<?xml version="1.0" encoding="utf-8"?>
<!-- Generator: Adobe Illustrator 26.0.3, SVG Export Plug-In . SVG Version: 6.00 Build 0)  -->
<svg version="1.1" id="Layer_1" xmlns="http://www.w3.org/2000/svg" xmlns:xlink="http://www.w3.org/1999/xlink" x="0px" y="0px"
	 viewBox="0 0 250 250" style="enable-background:new 0 0 250 250;" xml:space="preserve">
<style type="text/css">
	.st0{fill:#FFFFFF;}
	.st1{fill:#EBCEA0;}
	.st2{fill:#D4AD85;}
	.st3{fill:#7F643B;}
	.st4{fill:#EBD0A8;}
	.st5{fill:#E6CC9B;}
	.st6{fill:#D9BA86;}
	.st7{fill:#DCBA84;}
	.st8{fill:#E7C997;}
	.st9{fill:#DCC895;}
	.st10{fill:#EBD3A4;}
	.st11{fill:#EBD6A8;}
	.st12{fill:#6D5A2C;}
	.st13{fill:#F6CC90;}
	.st14{fill:#D8AC72;}
	.st15{fill:#ECC38A;}
	.st16{fill:#EAC78D;}
	.st17{fill:#D7A96F;}
	.st18{fill:#EEC387;}
	.st19{fill:#EAC089;}
	.st20{fill:#AF804D;}
	.st21{fill:#DFBA7F;}
	.st22{fill:#A77D48;}
	.st23{fill:#82562A;}
	.st24{fill:#85552A;}
	.st25{fill:#B3905D;}
	.st26{fill:#C49B72;}
	.st27{fill:#C89E74;}
	.st28{fill:#90653C;}
	.st29{fill:#C69E77;}
	.st30{fill:#976F45;}
	.st31{fill:#CB9E77;}
	.st32{fill:#C8A077;}
	.st33{fill:#D3AC83;}
	.st34{fill:#D2A87D;}
	.st35{fill:#D8B189;}
	.st36{fill:#CEA67F;}
	.st37{fill:#C39D76;}
	.st38{fill:#C39F76;}
	.st39{fill:#C3A177;}
	.st40{fill:#D6B485;}
	.st41{fill:#C79E77;}
	.st42{fill:#D6AC86;}
	.st43{fill:#C79A75;}
	.st44{fill:#D9AF86;}
	.st45{fill:#D6AD87;}
	.st46{fill:#B5935F;}
	.st47{fill:#D4A770;}
	.st48{fill:#DBBC84;}
	.st49{fill:#D9BA82;}
	.st50{fill:#F1D69F;}
	.st51{fill:#F5DBA4;}
	.st52{fill:#F5D8A5;}
	.st53{fill:#F3DBA5;}
	.st54{fill:#F7DAA5;}
	.st55{fill:#F6D8A4;}
	.st56{fill:#946E40;}
	.st57{fill:#976C3A;}
	.st58{fill:#F4D59C;}
	.st59{fill:#EACB9B;}
	.st60{fill:#EAC995;}
	.st61{fill:#EAC393;}
	.st62{fill:#E1B789;}
	.st63{fill:#B89E6F;}
	.st64{fill:#F7D9A3;}
	.st65{fill:#F7D9A2;}
	.st66{fill:#EDD3A4;}
	.st67{fill:#EBCF9A;}
	.st68{fill:#E4C89A;}
	.st69{fill:#E8C58E;}
	.st70{fill:#EFC791;}
	.st71{fill:#ECCC97;}
	.st72{fill:#EDCC95;}
	.st73{fill:#AF8853;}
	.st74{fill:#E7BD86;}
	.st75{fill:#E9D3A1;}
	.st76{fill:#E9C894;}
	.st77{fill:#ECDAAE;}
	.st78{fill:#F1D7A8;}
	.st79{fill:#EDD19E;}
	.st80{fill:#F3D59E;}
	.st81{fill:#F5D7A2;}
	.st82{fill:#E3C293;}
	.st83{fill:#EBC895;}
	.st84{fill:#AE8F5D;}
	.st85{fill:#A28C5F;}
	.st86{fill:#D5AD7A;}
	.st87{fill:#E9D1A2;}
	.st88{fill:#BE9363;}
	.st89{fill:#CBAA75;}
	.st90{fill:#E7CA9B;}
	.st91{fill:#C19D70;}
	.st92{fill:#A27D4A;}
	.st93{fill:#D6B483;}
	.st94{fill:#E5BD8D;}
	.st95{fill:#A48456;}
	.st96{fill:#B7996C;}
	.st97{fill:#C17A33;}
	.st98{fill:#C5A679;}
	.st99{fill:#9C7D4E;}
	.st100{fill:#CBAB7D;}
	.st101{fill:#987A4A;}
	.st102{fill:#D3B182;}
	.st103{fill:#997444;}
	.st104{fill:#C37C35;}
	.st105{fill:#E5B881;}
	.st106{fill:#EBCAA0;}
	.st107{fill:#CEA479;}
	.st108{fill:#EBC790;}
	.st109{fill:#F6E7C2;}
	.st110{fill:#ECDAB1;}
	.st111{fill:#ECCFA1;}
	.st112{fill:#F2DBAD;}
	.st113{fill:#F4DDB0;}
	.st114{fill:#BEA076;}
	.st115{fill:#E3C195;}
	.st116{fill:#E9C593;}
	.st117{fill:#C6A273;}
	.st118{fill:#F4D7A3;}
	.st119{fill:#F6DAA3;}
	.st120{fill:#AC8F67;}
	.st121{fill:#EBD3A5;}
	.st122{fill:#E8CE99;}
	.st123{fill:#B2895D;}
	.st124{fill:#CFAC82;}
	.st125{fill:#D8B288;}
	.st126{fill:#B89462;}
	.st127{fill:#B79561;}
	.st128{fill:#F6ECD3;}
	.st129{fill:#A2733E;}
	.st130{fill:#F1D9AA;}
	.st131{fill:#EAC395;}
	.st132{fill:#F1DAAA;}
	.st133{fill:#E6B681;}
	.st134{fill:#E0BF94;}
	.st135{fill:#EED3A4;}
	.st136{fill:#AD9461;}
	.st137{fill:#EBC692;}
	.st138{fill:#EFD9B1;}
	.st139{fill:#D0AB79;}
	.st140{fill:#CCA374;}
	.st141{fill:#ECD09F;}
	.st142{fill:#EBC997;}
	.st143{fill:#E5B782;}
	.st144{fill:#BE9767;}
	.st145{fill:#D0AF80;}
	.st146{fill:#F8DEA7;}
	.st147{fill:#9D814E;}
	.st148{fill:#C3A47A;}
	.st149{fill:#EED7AD;}
	.st150{fill:#AE9366;}
	.st151{fill:#EBD39E;}
	.st152{fill:#F5DBA6;}
	.st153{fill:#B28A5E;}
	.st154{fill:#F4D9A6;}
	.st155{fill:#D0B28D;}
	.st156{fill:#B07E4D;}
	.st157{fill:#855330;}
	.st158{fill:#C4A373;}
	.st159{fill:#C0AC89;}
	.st160{fill:#A9865C;}
	.st161{fill:#AA8456;}
	.st162{fill:#BFA47E;}
	.st163{fill:#B79666;}
	.st164{fill:#AF9467;}
	.st165{fill:#D5B78C;}
	.st166{fill:#A2733B;}
	.st167{fill:#D1B085;}
	.st168{fill:#EFCA9C;}
	.st169{fill:#CFB48E;}
	.st170{fill:#E6B582;}
	.st171{fill:#AB966D;}
	.st172{fill:#B87C3D;}
	.st173{fill:#AD9366;}
	.st174{fill:#E8CDAA;}
	.st175{fill:#7E5329;}
	.st176{fill:#F0CC9D;}
	.st177{fill:#E8C49A;}
	.st178{fill:#EEDCB3;}
	.st179{fill:#EACC9A;}
	.st180{fill:#ECBF8D;}
	.st181{fill:#C9A381;}
	.st182{fill:#BCA078;}
	.st183{fill:#B7966B;}
	.st184{fill:#FBDDA5;}
	.st185{fill:#B6976B;}
	.st186{fill:#EDD2A7;}
	.st187{fill:#ECC590;}
	.st188{fill:#C6976B;}
	.st189{fill:#B09970;}
	.st190{fill:#AB9569;}
	.st191{fill:#AF925E;}
	.st192{fill:#E1B578;}
	.st193{fill:#B28F5C;}
	.st194{fill:#BB9C60;}
	.st195{fill:#A68756;}
	.st196{fill:#A38855;}
	.st197{fill:#E9C592;}
	.st198{fill:#D5B07E;}
	.st199{fill:#B09463;}
	.st200{fill:#EFD6AA;}
	.st201{fill:#EFD0A2;}
	.st202{fill:#EECB9F;}
	.st203{fill:#E2BD87;}
	.st204{fill:#F4D8A2;}
	.st205{fill:#F2DDAF;}
	.st206{fill:#F5DFB5;}
	.st207{fill:#F5D8A6;}
	.st208{fill:#C7A875;}
	.st209{fill:#EFD9B0;}
	.st210{fill:#CDA67A;}
	.st211{fill:#EBC994;}
	.st212{fill:#F4DBAD;}
	.st213{fill:#D5B881;}
	.st214{fill:#F1DBAE;}
	.st215{fill:#CCAD7E;}
	.st216{fill:#967948;}
	.st217{fill:#D3B17E;}
	.st218{fill:#EDC498;}
	.st219{fill:#A28352;}
	.st220{fill:#9D8B5B;}
	.st221{fill:#967F4A;}
	.st222{fill:#9A7F4F;}
	.st223{fill:#9A753F;}
	.st224{fill:#D2AC7D;}
	.st225{fill:#E8BB86;}
	.st226{fill:#B89B71;}
	.st227{fill:#D8AE87;}
	.st228{fill:#C1A674;}
	.st229{fill:#C5A071;}
	.st230{fill:#A2976F;}
	.st231{fill:#E5BC87;}
	.st232{fill:#EFD2A2;}
	.st233{fill:#EDD4A8;}
	.st234{fill:#E8CA99;}
	.st235{fill:#B3996C;}
	.st236{fill:#F3C590;}
	.st237{fill:#B49870;}
	.st238{fill:#F3DEA4;}
	.st239{fill:#F6D7A1;}
	.st240{fill:#EECB98;}
	.st241{fill:#F0DDB0;}
	.st242{fill:#E9CF9F;}
	.st243{fill:#E6C091;}
	.st244{fill:#EAB87D;}
	.st245{fill:#B69E69;}
	.st246{fill:#A48E62;}
	.st247{fill:#F1CEA1;}
	.st248{fill:#E6C48F;}
	.st249{fill:#CAAA7B;}
	.st250{fill:#F5DAAD;}
	.st251{fill:#C9A881;}
	.st252{fill:#B2905D;}
	.st253{fill:#F2D3A5;}
	.st254{fill:#E8BD85;}
	.st255{fill:#C7AE81;}
	.st256{fill:#F0DBAB;}
	.st257{fill:#EFCE9B;}
	.st258{fill:#AE9363;}
	.st259{fill:#AC8F5C;}
	.st260{fill:#E7C08F;}
	.st261{fill:#EABB87;}
	.st262{fill:#EABF8C;}
	.st263{fill:#E8CC9C;}
	.st264{fill:#DABB82;}
	.st265{fill:#F4DAA3;}
	.st266{fill:#F4DB9F;}
	.st267{fill:#E1C390;}
	.st268{fill:#B49761;}
	.st269{fill:#E4C797;}
	.st270{fill:#76572F;}
	.st271{fill:#775A33;}
	.st272{fill:#BCA17A;}
	.st273{fill:#C09D77;}
	.st274{fill:#C79F7D;}
	.st275{fill:#B68F6C;}
	.st276{fill:#BB9774;}
	.st277{fill:#BB9B7D;}
	.st278{fill:#BE9F7A;}
	.st279{fill:#BC9B76;}
	.st280{fill:#C09E76;}
	.st281{fill:#D4B790;}
	.st282{fill:#834D1F;}
	.st283{fill:#824C1F;}
	.st284{fill:#F0CD94;}
	.st285{fill:#A67841;}
	.st286{fill:#B88C52;}
	.st287{fill:#AB7645;}
	.st288{fill:#CFA36C;}
	.st289{fill:#AB7746;}
	.st290{fill:#D4A66F;}
	.st291{fill:#ECC48D;}
	.st292{fill:#D5A870;}
	.st293{fill:#F2CF9B;}
	.st294{fill:#EEC993;}
	.st295{fill:#ECC593;}
	.st296{fill:#F7D89E;}
	.st297{fill:#F7CF98;}
	.st298{fill:#F7D59E;}
	.st299{fill:#F8D599;}
</style>
<circle class="st0" cx="125" cy="125" r="125"/>
<g>
	<g id="_x23_ebcea0ff">
		<path class="st1" d="M240.1,10.4c2.8-3.2,5.6-6.7,9.9-3.2v2.6c-6.6-1.7-12.5,8.7-6.2,12.5c1.7,1.7,4.1,2,6.2,0.9v7.4
			c-4.9-3.3-9-8-14.8-9.7C231.9,17.2,238.9,13.6,240.1,10.4z"/>
	</g>
	<g id="_x23_d4ad85ff">
		<path class="st2" d="M232.2,7.3C235.6,9.8,230,12.2,232.2,7.3z"/>
	</g>
	<g id="_x23_7f643bff">
		<path class="st3" d="M243.8,22.2c-6.3-3.8-0.4-14.2,6.2-12.5v1.7c-3.4,1.7-6.9,5.1-5.9,9.3c1.8,2.4,4-0.3,5.9-1.1v3.4
			C247.9,24.3,245.5,23.9,243.8,22.2z"/>
	</g>
	<g id="_x23_ebd0a8ff">
		<path class="st4" d="M244.1,20.8c-0.9-4.2,2.5-7.6,5.9-9.3v8.2C248.1,20.5,245.8,23.2,244.1,20.8z"/>
	</g>
	<g id="_x23_e6cc9bff">
		<path class="st5" d="M240.1,29.2c4.3-2.6,6.8,2.4,9.9,4.4v8.9c-2.4-1.8-6-3.1-7.5-5.5C244,33.6,239.5,32.3,240.1,29.2z"/>
	</g>
	<g id="_x23_d9ba86ff">
		<path class="st6" d="M243.3,41.2c5-1,0.6,5.5-2,4.5C238.4,44.7,242.2,42.4,243.3,41.2z"/>
	</g>
	<g id="_x23_dcba84ff">
		<path class="st7" d="M239.9,203c2.8-0.7,6.2,0.8,6.1,4C243.6,207.1,240.1,205.7,239.9,203z"/>
	</g>
	<g id="_x23_e7c997ff">
		<path class="st8" d="M242.2,214.4c0.2-4.6,5.5-6.2,7.8-9.7v9.8c-2.4,2.1-4.6,4.5-7.2,6.3C238.7,220.7,239.7,216.2,242.2,214.4z"/>
	</g>
	<g id="_x23_dcc895ff">
		<path class="st9" d="M250,223.3c-5.4-0.5-3.2-3.7,0-6V223.3z"/>
	</g>
	<g id="_x23_ebd3a4ff">
		<path class="st10" d="M234.1,228.3c2.8-0.4,9.9-8.1,8.4-2.5c-2.5,5.8,2.1,11,7.5,11.7v3.3c-1.9,0.7-4.1,3.5-5.8,1
			C241,237.3,235.4,233.7,234.1,228.3z"/>
	</g>
	<g id="_x23_ebd6a8ff">
		<path class="st11" d="M244.7,229.1c-0.4-4.5,2-6,5.3-2.8v9.3C247.9,233.8,245.9,231.7,244.7,229.1z"/>
	</g>
	<g id="_x23_6d5a2cff">
		<path class="st12" d="M242.5,225.7c0.9,1,1.6,2.2,2.2,3.4c1.1,2.6,3.1,4.7,5.3,6.4v1.8C244.5,236.8,240,231.6,242.5,225.7z"/>
	</g>
	<g>
		<g id="_x23_f6cc90ff">
			<path class="st13" d="M0,0h10.7C8.6,4,3.8,2.8,0,3.1V0z"/>
		</g>
		<g id="_x23_d8ac72ff">
			<path class="st14" d="M10.7,0h34.8C49.3,7.1,60.5,1,67,3.1c2.8,0.4,5,0,3.1-3.1h31.7c0.8,0.9,1.7,1.8,2.5,2.8
				C69.6,5.1,34.8,2.8,0,4V3.1C3.8,2.8,8.6,4,10.7,0z"/>
		</g>
		<g id="_x23_ecc38aff">
			<path class="st15" d="M45.4,0h24.7C72,3,69.8,3.4,67,3.1C60.5,1,49.3,7.1,45.4,0z"/>
		</g>
		<g id="_x23_eac78dff">
			<path class="st16" d="M101.8,0h36.6c-1.8,0.9-3.7,1.8-5.6,2.8c1.6,0.3,3.2,0.6,4.9,0.9c4.5,3.6,10.4,0.7,15.5,1.5
				c-8.1,5.5-18.7,0.2-27.4-2.2c0.8,6,11.3,0.8,10.2,7c-6.5-3-13.9-0.8-20.7-2.1c-2-3.1,8.1,0.4,6.8-3.8c-9.1,0.7-17.1,6.9-26.6,2
				c5.2-2.4,11.1,0.7,16.3-1.2c2.1-4.1-5.1-1.3-7.4-2C103.5,1.8,102.7,0.9,101.8,0z"/>
		</g>
		<g id="_x23_d7a96fff">
			<path class="st17" d="M138.5,0h15.9c8.5,4.2,20,2.5,29.6,3c4,2.5,5.1-0.9,6.6-3h31.9c2.8,6.1,11.3,2,16.8,3.1
				c-33.7,2.4-67.7-0.2-101.4,0.6c-1.6-0.3-3.2-0.6-4.9-0.9C134.8,1.8,136.6,0.9,138.5,0z"/>
		</g>
		<g id="_x23_eec387ff">
			<path class="st18" d="M154.4,0h36.2c-1.5,2.1-2.5,5.6-6.6,3C174.4,2.5,162.9,4.2,154.4,0z"/>
		</g>
		<g id="_x23_eac089ff">
			<path class="st19" d="M222.4,0H250v3.9c-3.6-0.5-7.2-1-10.8-0.8C233.7,2,225.2,6.1,222.4,0z"/>
		</g>
		<g id="_x23_af804dff">
			<path class="st20" d="M0,4c34.8-1.3,69.6,1.1,104.3-1.2c2.4,0.8,9.5-2,7.4,2c-5.1,2-11-1.2-16.3,1.2c-0.6-0.1-1.6-0.2-2.2-0.3
				C62.3,4,31.1,5.5,0,5V4z"/>
		</g>
		<g id="_x23_dfba7fff">
			<path class="st21" d="M125.8,3c8.8,2.4,19.3,7.6,27.4,2.2c1.4,0.2,2.8,0.5,4.1,0.8c3,1.3,6.3,1.9,9.4,2.9c1.3,3,4.6,5.4,8.2,4.1
				c18,0.2,36.1-0.1,54.1,0c0.5,0.1,1.6,0.4,2.1,0.5c-15.3,3.6-33.2,0.2-49.5,1.6c5,6.1,17.5-2.9,21.5,4.8c-2.2,1.6-4.4,3.2-6.7,4.7
				c-3.8,1.1-7.2-9.7-9.7-4.7c6.4,4,10.2,11.4,17.7,13.6c10.8,5.1,12.6,18.4,22.2,24.7c5.5,5.8,8.2,13.4,8.9,21.2
				c9,8.8,8.1,22,9.6,33.4c5.3,12.7-2.3,25.4-1.3,38.2c-0.5,7.2-5.2,13.1-8.4,19.2c-1.3,10.1-6.8,19.4-14.9,25.4
				c-4,6.6-7.6,14.4-14.7,18.2c-6.3,1.9-10.3,6.9-14.9,11.3c-6.6,4.3-14,7.7-22,8c0.1,0.5,0.4,1.6,0.6,2.1c0,3.5,4.2,2.1,5.6,4.6
				c-6.1-2.1-11.6,0-17.3,2.3c-5.9,1-11.9,2.4-17.9,1c2.2,4.4,11.7,0.6,17,2.8c-2,1.1-3.8,2.5-5.5,4h-11c-2.1-1.9-4.2-4.2-7.6-3.3
				c0.2-2.1,3.2-1.5,3.3-3.7c-4.4-1-12.6,5.3-15.1,0.1c4.1-1.7,12,0.9,14-3.9c-6.7,1-13.5,0.7-20.2-0.1c-0.2,3,4,1.9,5.1,3.9
				c-2.8,0.9-5.5-0.2-8.2-1c0.3,7.2,17.3,0.4,14.3,8h-10.5c-2.3-3.5-6.8-4.1-10.6-4.1c2.1-0.9,6.3,0.2,6-2.9
				c-4.9,0.5-9.8,0.6-14.7-0.1c-1.1-0.2-2.1-0.4-3.2-0.7c-3.8-1.4-7.7-3.5-11.9-2.5c-0.3-1.6-0.6-3.1-0.8-4.7
				c1.5-4.7-7.9-2.3-11.2-2.6c-12.2-4-26.3,3-37.7-3.2c-5-2.2-8.7,3-13.5,2.2c-6-0.5-12.1,0.3-18-0.5v-11c5.6-0.5,12.1-3.5,16.8,1.1
				c4.6,4.7,11.8,10.1,18.2,4.7c4.9-5.4,12.6-10.4,19.3-5c-1.5-4.8-7.7-5-11-8.2c-8.5-4.7-10-15.8-17.9-21.1
				c-6.6-6-9.5-14.5-11.1-23c-5.6-7.5-9-16.6-7.8-26.1c1.4-6-4.2-10.6-3.4-16.6c-1.7-6.4,2.9-11.7,3.7-17.7
				c-1.3-9.8,1.2-19.8,6.8-27.8c2.7-8,4.7-16.9,11.1-23c9.2-5.8,10.2-18.7,20.6-23.3c2.4-2,11.2-4.3,8.8-8c-8.2,8.9-16.2-2-23.2-6.1
				c9.7-7.8,24.5-0.3,35.9-3.5c2.2-1,7.3-3.4-2.6-1.6C42.7,14.9,21.4,15.1,0,15v-1.9c26.9-0.4,53.8,0.3,80.7-0.3
				c2.2-0.8,0.6-3,0.4-4.6c4.2,2.4,8.3-0.8,12.2-2.4c0.5,0.1,1.6,0.2,2.2,0.3c9.5,4.9,17.5-1.3,26.6-2c1.3,4.2-8.8,0.8-6.8,3.8
				c6.8,1.3,14.2-1,20.7,2.1C137.2,3.8,126.6,9,125.8,3 M121.4,18.5c-5.8-3.9,3.3,5.1-2.5,6.8c-2.8-2.1-4.5-7.1-8.6-6.2
				c-1.2,2.1-3.7,4-3.1,6.6c-5.3-0.2-10.2,2.9-13.9,6.4c-0.6-4.4-6.2-5.7-9.9-6.1c-2.1,5.3-3.5,12.1,2.8,15.2
				c-0.2,4.7-4.2,3.4-7,1.7c-1.4-6-6.7-0.2-9.9,1.2c1.4-5.2-5.9-3.8-9-5.1c-1.6,3.9-3.6,12.9,3,12.2c-2.3,4.2-5,8.9-3.3,13.7
				c-2.6,1.2-4.5-2.7-6.7-0.9c-1.1-2.6-2.9-5.3-6.1-5.5c1.8-3.3-1-5.4-1.5-1c-7.3-3.1-7.8,10-2.8,10.2c-3.1,3.6-3.9,8.5-4.7,13
				c-4-2.2-10.2-1.2-12.2,3.1c0.8,3.2,2.3,6.7,4.9,8.9c-7.4,2.2-3.9,15.5-5,21c2.1,4,3.6,8.2,6,12c-2.1,2.8-3.7,6.8-7.9,6.2
				c-1.8,8.9,3.4,17,9.1,22.5c-3.8-0.4-4.2,4-6.1,6.3c-3.4,3.2,3,8.3,5.8,6c1.6,5.2,4.8,9.8,8.4,13.8c-3.2,0.8,0.4,7.5-1.2,9.2
				c2.7-0.1,14.1,1.8,9.9-4c3.4,1.1,9.3,0.5,7.6,6.6c2,3.5-4.4,2.1-3.5,5.2c6.5,5.7,15.7,13.1,24.7,10c2.1,1.6,5.9,0.6,6.6,3.8
				c1.8,2.2-4.1,3.7-1.7,5.7c7.2,3.8,15,7.7,23.3,4.8c-0.3,3.4,2.3,6.4,5,8c2.7-2.1,6.3-4.4,7-7.8c-1.5-0.3-3.2-0.5-3-2.5
				c5.6,3.8,12.6-0.1,18.8,1c0.1,2.4-6.4-0.1-2.6,3c2,2.1,4.2,6,7.4,6c1.5-2.5,4.7-4.5,4.3-7.7c7.8,0.9,17.7,0.1,23-6
				c-2.6-2.4-1.9-5.4,0.4-7.8c10.4,1.6,22.1-1.8,28.3-10.6c1.4-2.2-2.3-2.6-3.7-3c1.9-4,0.5-8.4,6.6-8c0.4,6.2,8.7,2.2,12.4,3.3
				c-0.2-4.2,0.2-11.5-5-6.9c5.7-4,9.2-9.9,12-16.1c10.7,2.9,6.4-12.5-1.1-12.2c4.7-4,8.3-9.5,9.4-15.7c0.7-3.3,3.1-9.8-3.8-7.6
				c-6.5-4.7-0.7-10,1.4-15.7c-0.3,5.3,5.2-1.2,6.4-2.5c5.2-2.7-3-8.6-5.1-6.2c-1.1-3.8-0.6-14.8-7.1-12.9c2.3-3.5,7.3-6.3,6.8-10.9
				c-4-2.3-11.7-6.2-12.6,0.8c-0.1-5.7-1.8-11.2-4.2-16.3c2.6,2.4,3.2,1.1,2-3.8c3.2-7.3-6.4-5.9-9.8-4.9c-1.2,1.2-4,5.9-0.4,4.8
				c-2.6,1.4-5.6-1.2-8.8,1.1c1.1-5.3-1.9-10.3-4.4-14.8c6.3,2.7,6.2-7.8,3.1-11.2c-3.2,0.9-9.9,0.1-8.8,4.8
				c-3.2-1.4-10.1-7.2-9.3-0.1c-4,1.5-7.7,1.8-7.9-3.4c8.2-1.5,6.7-12.1,1.2-15.3c-2.9,1.8-7.5,3-7.4,7.2c-3.9-3.4-9.1-6.5-14.3-6
				c1.1-1.9,0-3.7-1.3-5.2c-3-4.3-8.9,0.9-10,4c2.3,2.6-2.4,13.6,3.8,11.9c-2,1.4-5.6,1.3-2.4,4.7c4.5,3.6-4.4,4.2-2.3,8.5
				c-1,0.3-2,0.7-3.1,1c-0.2-7.3,0.1-14.7-0.1-22c-3.2,2.6,0.4,11.7-1,16c1.3,12.1-0.9,0.3-4.8,2c-0.8-6,1.4-13-1.6-18.4
				c0.2-4.5,7.5-8.5,4.2-12.5C121.7,14.4,124.2,20.8,121.4,18.5 M24.9,105c-1.8,2.1-7.5,2.9-5.6,6.7c1.3,3.2,8.6,9.7,6.7,2.3
				C24.1,111.4,25.5,107.8,24.9,105 M21.2,134.2c-3.8,1.6-2.1,7,1.7,6.8C22.6,138.7,25.2,132.3,21.2,134.2z"/>
		</g>
		<g id="_x23_a77d48ff">
			<path class="st22" d="M137.8,3.7c33.7-0.8,67.7,1.9,101.4-0.6c3.6-0.2,7.2,0.3,10.8,0.8v3.2c-4.2-3.5-7,0-9.9,3.2
				c-0.5-1.9,3.6-6,0.1-5.3c-27.6,0.6-55.4-1.3-82.8,1c-1.4-0.3-2.8-0.6-4.1-0.8C148.2,4.4,142.2,7.3,137.8,3.7z"/>
		</g>
		<g id="_x23_82562aff">
			<path class="st23" d="M0,5C31.1,5.5,62.3,4,93.3,5.8c-3.9,1.6-8,4.8-12.2,2.4l-0.8-0.1C76.2,7.9,72,8,67.9,8.1l-0.7,0
				C62,8.5,57,8.3,51.9,8.1c-0.4,0-1.3,0-1.8,0c-1.8,0-5.4,0-7.2,0L42.2,8c-2.4-0.4-4.9,0-7.3,0.1c-0.4,0-1.3,0-1.8,0.1
				C32.3,8,30.7,8,29.8,7.9C29,8,27,6.3,27.1,8c0,0.8,0,2.3-0.1,3c-0.8,0.4-1.5,0.5-2.3,0.3c0.3-2.7-0.2-4.8-3.2-3.5
				c-0.4,0-1.2,0.1-1.6,0.1c-1.3,0-2,0.7-1.9,2.1c-0.4,2-0.8,2.5-1.1,0.1c0.2-4.2-9.7-4.2-6.8,1.1c-0.8,0.3-1.5,0.3-2.3,0
				c0.9-2.1-0.8-4-3-3.2L4,8c-2.5-1-4.1,1.5-1.9,3.2C1.6,11.4,0.5,12,0,12.3V5z"/>
		</g>
		<g id="_x23_85552aff">
			<path class="st24" d="M157.4,6c27.4-2.3,55.2-0.4,82.8-1c-1.2,1.6-2.4,3.6-4.7,3.6c-0.8,2.1-1.2,5.4-4.2,4.9
				c-0.5-0.1-1.6-0.4-2.1-0.5c-0.1-0.4-0.2-1.3-0.3-1.8c2.2-1.7,0.7-4.3-1.9-3.3c-0.4,0-1.3,0.1-1.8,0.1c-2.5-0.1-4.9-0.3-7.4-0.4
				c-1.6-0.3-3.2,0-4.9,0.3c-0.7,0-2.1,0-2.8-0.1c-1.6-0.2-3.2-0.3-4.8,0c-4.1,0-8.3,0-12.4-0.1c-1.6-0.7-3.3-0.3-4.9,0.1
				c-0.7,0-2.2,0-3,0c-0.4,0-1.3,0.1-1.8,0.1c-2.5,0.2-5,0.5-7.4,0.9c-1.1-1.9-2.9-1.8-4.7-1c-1.4-0.3-2.6,0.1-3.5,1.1l-0.7-0.2
				C163.7,7.9,160.4,7.3,157.4,6 M232.2,7.3C230,12.2,235.6,9.8,232.2,7.3z"/>
		</g>
		<g id="_x23_b3905dff">
			<path class="st25" d="M240.2,5c3.5-0.7-0.6,3.4-0.1,5.3c-1.2,3.3-8.2,6.9-5,10.4c5.8,1.7,9.9,6.4,14.8,9.7v3
				c-3.2-2-5.7-7-9.9-4.4c-0.6,3.1,3.9,4.4,2.5,7.7c1.4,2.5,5.1,3.7,7.5,5.5V53c-7,2.6-9.7-7.1-14.7-10.3c-3.1-2.2-1.9-6.4-3.3-9.6
				c-0.6-2.6-1.3-5.4,0.9-7.3c-0.8-2.4-3.3-2.5-5.4-2.5c-1.4-3.1,3.9-9.6-4.5-6.3c-4.6,0.4-10.6-1.7-13.4,3.1
				c-1.6,0-4.7-0.1-6.3-0.1c-3.9-7.8-16.4,1.3-21.5-4.8c16.3-1.3,34.1,2.1,49.5-1.6c3,0.6,3.5-2.8,4.2-4.9
				C237.8,8.7,239,6.7,240.2,5 M243.3,41.2c-1.1,1.2-4.9,3.4-2,4.5C243.9,46.7,248.3,40.2,243.3,41.2z"/>
		</g>
		<g id="_x23_c49b72ff">
			<path class="st26" d="M10.1,11.2c-2.9-5.3,7.1-5.3,6.8-1.1C14.7,10.2,12.4,10.5,10.1,11.2z"/>
		</g>
		<g id="_x23_c89e74ff">
			<path class="st27" d="M21.6,7.8c3-1.3,3.6,0.8,3.2,3.5C23,11.1,22.4,9.2,21.6,7.8z"/>
		</g>
		<g id="_x23_90653cff">
			<path class="st28" d="M27.1,8C27,6.3,29,8,29.8,7.9c0.3,3.3,4,4.3,3.3,0.2c0.5,0,1.3,0,1.8-0.1c-1.2,4.2,7.3,3.5,7.3-0.1L42.9,8
				c0.1,3.5,8.4,4.1,7.2,0c0.4,0,1.3,0,1.8,0c-0.4,2.4,1,2.8,3,2.4c3.8-1,10.6,2.3,12.2-2.3l0.7,0c1.5,3.6,10.9,3.9,12.4,0l0.8,0.1
				c0.1,1.6,1.7,3.8-0.4,4.6C53.8,13.4,26.9,12.7,0,13.1v-0.8c0.5-0.3,1.6-0.8,2.2-1.1C3.5,10.7,4.1,9.3,4,8l0.9,0
				c-0.1,1.7,1.5,2.8,3,3.2c0.7,0.4,1.5,0.4,2.3,0c2.2-0.7,4.5-0.9,6.8-1.1c0.3,2.4,0.7,1.9,1.1-0.1c1.7,2,4-0.6,1.9-2.1
				c0.4,0,1.2-0.1,1.6-0.1c0.8,1.4,1.4,3.2,3.2,3.5c0.8,0.2,1.5,0.1,2.3-0.3C29.3,10.9,29.2,8.3,27.1,8z"/>
		</g>
		<g id="_x23_c69e77ff">
			<path class="st29" d="M34.9,8c2.4-0.1,4.9-0.5,7.3-0.1C42.2,11.5,33.7,12.2,34.9,8z"/>
		</g>
		<g id="_x23_976f45ff">
			<path class="st30" d="M171.1,7.9c1.8-0.8,3.6-0.9,4.7,1c1.3,2.4,9.1,2.9,7.4-0.9c0.4,0,1.3-0.1,1.8-0.1c-0.9,2.9,3.8,3,3,0
				c1.6-0.4,3.3-0.8,4.9-0.1c0.4,4.4,5.8,1.6,8.8,2.7c2.1,0.9,2.9-0.9,3.6-2.6c1.6-0.3,3.2-0.2,4.8,0c-1,3.5,3.8,3.6,2.8,0.1
				c1.6-0.3,3.2-0.6,4.9-0.3c-0.1,4.1,8,4.6,7.4,0.4c0.5,0,1.4-0.1,1.8-0.1c-0.2,1.4,0.8,2.5,1.9,3.3c0.1,0.4,0.2,1.3,0.3,1.8
				c-18.1-0.1-36.1,0.1-54.1,0c-3.6,1.3-6.8-1.1-8.2-4.1l0.7,0.2C168.6,11,171.8,10.3,171.1,7.9z"/>
		</g>
		<g id="_x23_cb9e77ff">
			<path class="st31" d="M217.8,7.7c2.5,0.1,4.9,0.3,7.4,0.4C225.8,12.2,217.6,11.8,217.8,7.7z"/>
		</g>
		<g id="_x23_c8a077ff">
			<path class="st32" d="M2.2,11.2C-0.1,9.5,1.5,7,4,8C4.1,9.3,3.5,10.7,2.2,11.2z"/>
		</g>
		<g id="_x23_d3ac83ff">
			<path class="st33" d="M4.9,8c2.2-0.8,3.9,1.1,3,3.2C6.4,10.8,4.8,9.7,4.9,8z"/>
		</g>
		<g id="_x23_d2a87dff">
			<path class="st34" d="M18,10c0-1.4,0.6-2.1,1.9-2.1C22,9.5,19.7,12.1,18,10z"/>
		</g>
		<g id="_x23_d8b189ff">
			<path class="st35" d="M27.1,8c2.1,0.3,2.2,2.9-0.1,3C27.1,10.3,27.1,8.8,27.1,8z"/>
		</g>
		<g id="_x23_cea67fff">
			<path class="st36" d="M29.8,7.9c0.8,0,2.5,0.1,3.3,0.2C33.8,12.2,30.1,11.2,29.8,7.9z"/>
		</g>
		<g id="_x23_c39d76ff">
			<path class="st37" d="M42.9,8c1.8,0,5.4,0,7.2,0C51.2,12.2,43,11.5,42.9,8z"/>
		</g>
		<g id="_x23_c39f76ff">
			<path class="st38" d="M51.9,8.1C57,8.3,62,8.5,67.1,8.2c-1.6,4.6-8.4,1.4-12.2,2.3C52.9,10.9,51.5,10.5,51.9,8.1z"/>
		</g>
		<g id="_x23_c3a177ff">
			<path class="st39" d="M67.9,8.1c4.2-0.2,8.3-0.2,12.4,0C78.8,12.1,69.3,11.8,67.9,8.1z"/>
		</g>
		<g id="_x23_d6b485ff">
			<path class="st40" d="M167.6,9.1c0.9-1,2.1-1.4,3.5-1.1C171.8,10.3,168.6,11,167.6,9.1z"/>
		</g>
		<g id="_x23_c79e77ff">
			<path class="st41" d="M175.8,9c2.5-0.4,4.9-0.7,7.4-0.9C184.9,11.9,177.1,11.3,175.8,9z"/>
		</g>
		<g id="_x23_d6ac86ff">
			<path class="st42" d="M185,8c0.8,0,2.2,0,3,0C188.8,10.9,184.1,10.9,185,8z"/>
		</g>
		<g id="_x23_c79a75ff">
			<path class="st43" d="M192.9,7.9C197,8,201.1,8,205.3,8c-0.7,1.7-1.5,3.5-3.6,2.6C198.7,9.5,193.3,12.4,192.9,7.9z"/>
		</g>
		<g id="_x23_d9af86ff">
			<path class="st44" d="M210.1,7.9c0.7,0,2.1,0,2.8,0.1C213.8,11.6,209.1,11.5,210.1,7.9z"/>
		</g>
		<g id="_x23_d6ad87ff">
			<path class="st45" d="M227,8c2.6-1.1,4,1.6,1.9,3.3C227.8,10.5,226.8,9.4,227,8z"/>
		</g>
		<g id="_x23_b5935fff">
			<path class="st46" d="M0,15c21.4,0.1,42.7-0.1,64.1,0.1c9.9-1.8,4.8,0.6,2.6,1.6c-11.4,3.2-26.2-4.4-35.9,3.5
				c-1.8,0-3.5-0.1-5.3-0.1c-0.2-0.7-0.5-2.2-0.7-2.9C16.5,16.8,8.2,17,0,17V15z"/>
		</g>
		<g id="_x23_d4a770ff">
			<path class="st47" d="M121.4,18.5c2.8,2.2,0.4-4.2,3.4-2.4c3.3,4-4,8-4.2,12.5c-1,6.7-0.7,13.6-0.6,20.4c1.4,0.1,2.1-0.6,2.2-2
				c3.9-1.7,6.1,10.1,4.8-2c1.4-4.4-2.2-13.4,1-16c0.2,7.3-0.1,14.7,0.1,22c1-0.3,2.1-0.6,3.1-1c3.2,2.8-1.4,4-2.3,6.6
				c-2.3-1.9-7.2-4.2-7.6,0.4c-2.4-5.8-6.2-11.8-3.8-17.8c-0.7-0.8-1.5-1.4-2.2-2.2c4.8-1.1,2-8.1,3.6-11.8
				C124.7,23.6,115.6,14.6,121.4,18.5z"/>
		</g>
		<g id="_x23_dbbc84ff">
			<path class="st48" d="M0,17c8.2,0,16.5-0.2,24.7,0.1c0.2,0.7,0.5,2.2,0.7,2.9c-3.8,2.2-6.5,5.7-9.7,8.6C10.6,31,5.2,27,0,28.9V17
				z"/>
		</g>
		<g id="_x23_d9ba82ff">
			<path class="st49" d="M209.6,20c2.8-4.8,8.9-2.7,13.4-3.1c8.4-3.3,3.1,3.2,4.5,6.3c2.1,0,4.6,0.1,5.4,2.5c-2.3,2-1.6,4.8-0.9,7.3
				c-1.2-7.7-8.5-2.7-13.6-5.4C215.6,25,212.9,22.1,209.6,20z"/>
		</g>
		<g id="_x23_f1d69fff">
			<path class="st50" d="M186.9,20c2.5-5.1,5.9,5.8,9.7,4.7c2.2-1.5,4.5-3.1,6.7-4.7c1.6,0,4.7,0.1,6.3,0.1c3.3,2.1,6.1,4.9,8.8,7.7
				c5.1,2.7,12.4-2.3,13.6,5.4c1.4,3.2,0.2,7.4,3.3,9.6c5,3.2,7.7,13,14.7,10.3v140.9c-5.9-1.7-8.1,6.2-11.9,9.2
				c-4.5,2.6-5.7,6.9-6.1,11.8c-2.2,1-1,6.1-4,4.3c-7.5-2.7-13.2,5.3-18.4,9.7c-1.4-0.3-2.9-0.5-4.3-0.7c-3.1-1.2-6.2-2.6-9.3-3.9
				c-1.8,0-5.4,4.5-5,1.1c4.6-4.4,8.6-9.4,14.9-11.3c7.1-3.8,10.7-11.6,14.7-18.2c8.1-6,13.6-15.4,14.9-25.4
				c3.2-6.2,7.9-12.1,8.4-19.2c-1-12.8,6.7-25.5,1.3-38.2c-1.6-11.4-0.7-24.6-9.6-33.4c-0.7-7.8-3.4-15.4-8.9-21.2
				c-9.6-6.3-11.4-19.6-22.2-24.7C197.1,31.4,193.3,24,186.9,20z"/>
		</g>
		<g id="_x23_f5dba4ff">
			<path class="st51" d="M110.2,19.1c4.2-0.9,5.9,4.1,8.6,6.2c-1.5,3.7,1.2,10.6-3.6,11.8c-0.9-5.4-7.1-6.3-8.2-11.4
				C106.5,23.1,109,21.2,110.2,19.1z"/>
		</g>
		<g id="_x23_f5d8a5ff">
			<path class="st52" d="M132,25c1.2-3.2,7.1-8.3,10-4c1.3,1.5,2.4,3.3,1.3,5.2c-1.1,4.6-7.2,5.5-7.5,10.7
				C129.6,38.7,134.3,27.7,132,25z"/>
		</g>
		<g id="_x23_f3dba5ff">
			<path class="st53" d="M25.4,20c1.8,0,3.6,0,5.3,0.1c7,4.1,15,15,23.2,6.1c2.3,3.8-6.5,6-8.8,8c-10.4,4.6-11.3,17.5-20.6,23.3
				c-6.4,6.1-8.4,15-11.1,23c-5.7,8.1-8.2,18-6.8,27.8c-0.7,6-5.3,11.3-3.7,17.7c-0.8,6,4.8,10.6,3.4,16.6
				c-1.2,9.5,2.2,18.6,7.8,26.1c1.6,8.5,4.6,17,11.1,23c8,5.3,9.5,16.4,17.9,21.1c3.2,3.2,9.4,3.5,11,8.2c-6.7-5.5-14.4-0.4-19.3,5
				c-6.4,5.4-13.6,0.1-18.2-4.7c-4.7-4.6-11.2-1.6-16.8-1.1V28.9c5.2-1.9,10.6,2,15.7-0.3C18.9,25.7,21.6,22.2,25.4,20z"/>
		</g>
		<g id="_x23_f7daa5ff">
			<path class="st54" d="M157.7,32.2c-0.1-4.1,4.5-5.4,7.4-7.2c5.5,3.2,7,13.8-1.2,15.3C162.3,37.2,160.3,34.5,157.7,32.2z"/>
		</g>
		<g id="_x23_f6d8a4ff">
			<path class="st55" d="M83.3,26.1c3.7,0.4,9.4,1.7,9.9,6.1c-2.6,2.8-5.2,5.7-7.1,9.1C79.7,38.2,81.2,31.4,83.3,26.1z"/>
		</g>
		<g id="_x23_946e40ff">
			<path class="st56" d="M93.2,32.1c3.8-3.5,8.6-6.5,13.9-6.4c1,5.1,7.3,5.9,8.2,11.4c0.7,0.8,1.5,1.4,2.2,2.2
				c-2.5,6,1.4,12,3.8,17.8c-7.1,7.6-18,6.3-27.4,5.2c0.1,1.3,0.5,2.7,2,3c0.4,3.3-0.7,6.1-3.8,7.6c-3.9,3.3-9,3.9-13.7,5.4
				c0.3,5.5-3.3,10-6.8,13.7c-1.6,1.3-3.1,2.7-4.6,4c-2.3,1.5-4.8,2.8-7.2,4c-1.2,0-1.8,0.6-1.7,1.8c7.2-2.6,6.1,3.1,6.3,7.4
				c-1.1,5.1-4.7,8.9-7.7,13c6.9,4.4,6.5,18,3.8,26.1c-1.4,3.8,2.6-1.4,4.5-1.1c1.2,1.4,2.4,2.8,3.6,4.2c-0.8,0.6-1.6,1.2-2.5,1.7
				c-5.1,0.9-6.9,9.8-1.9,12.2c1.5,1.3,2.2,3.1,3,4.9c0.8,1.7,1.6,3.4,2.6,5c1.5,1.9-0.3,6.5,3.4,5.9c3.4,1.1,2.3-4.3,0-5
				c-4.3-3.1-0.7-9.8-2.6-14.3c-0.4-1.3-1-2.6-1.7-3.8c1-0.3,2-0.6,3.1-0.9c1.2,3.4,1.9,6.9,3,10.3c7.2,1.9,13,7,17.4,13
				c0.6,1.9,0.6,4.3,2.3,5.6c1.2-2.8,3.9-3.1,6.6-3.1c1.5,0.4,2.9,1,4.3,1.7c-0.7,0.3-2.1,1-2.8,1.4c-7.4,0.7,0.2,14.8,4.4,10.3
				c-0.4-4.8,1.7-1.6,3.2,0.5c-2.4,0-1.8,2.1-1.6,3.7c-5-0.3-14.2-4-15.6,2.4c-3-0.3-6.3-1.6-9,0.3c-2-0.2-3.9-0.5-5.8-0.9
				c-4.8,0.6-4.6-4.4-7.9-6c-2.7-3.4-12.9,0.8-7.7,4.5c5.7,4,12.8,5,19.6,4.8c-1.1,0.8-2.3,1.6-3.4,2.5c-9,3.2-18.2-4.3-24.7-10
				c-0.9-3.1,5.4-1.7,3.5-5.2c1.7-6.1-4.2-5.5-7.6-6.6c-2.9-1.7-5.8-3.5-8.7-5.2c-3.7-4-6.8-8.6-8.4-13.8c6.6-1.9,8.2-10.9,0.4-12.3
				c-5.8-5.5-10.9-13.6-9.1-22.5c4.2,0.6,5.8-3.4,7.9-6.2c-2.4-3.8-3.9-8-6-12c1.1-5.6-2.5-18.8,5-21c2.2,3.6,5.9,0.2,8.9-0.4
				c0.3-3.9-0.7-7.8-1.6-11.6c0.8-4.5,1.5-9.4,4.7-13c1.4-2.2,2.8-4.7,5.1-6.1c1.7,1.2,3,4.5,5.3,2.3c2.2-1.8,4.1,2.1,6.7,0.9
				c-1.7-4.8,1-9.6,3.3-13.7c1.9-2.5,3.9-4.8,5.9-7.2c3.1-1.4,8.4-7.2,9.9-1.2c2.8,1.7,6.8,3,7-1.7C88,37.8,90.6,35,93.2,32.1
				 M87.9,46c3.3-0.1,5.2-3.8,6.9-6.1c1.3-0.3,5.6,1.1,4.9-0.6c3.8-1.2,6.4-5.1,5.3-9.3C96.3,30,90.7,38.7,87.9,46 M108.2,33.1
				c-1.7,1-2.3,6.1,0.7,4.8C112.2,38,111.5,32,108.2,33.1 M104.4,40.4c-6.1,1.9-13.4,5.4-15.4,11.7c4.8-0.7,8.4-4.9,13.2-5.1
				c-3.3,3.8-8.5,5.1-12.3,8c9.2,0.7,19-4.7,23.2-13C112.3,38.1,106.4,41,104.4,40.4 M73.3,45.3C66.7,48.8,63.2,57,61.9,64.1
				c3.9-2.2,5.5-6.5,7.7-10.2C72,60.1,81.5,44.6,73.3,45.3 M79,47c0.1,1.8-1,5,2,4.1C85.3,51.8,82.3,45.2,79,47 M112,47
				c-0.9,3.3,0.6,4.9,3.9,3.9C116.9,47.7,115.3,46.1,112,47 M107.2,52.1c-1.5,1.2-2.2,2.9-2.6,4.6c-3.2-0.6-7-0.9-9.6,1.4
				c0.5,3.6,6.4,0.8,7.9,2c3.9-0.3,13.2,1.3,13-5C113.3,53.8,110.5,51.3,107.2,52.1 M75.8,55.7c-4.3,2.8-13.1,10.5-10.9,14
				c-1.4,3.3,5.7,5.9,4.7,2.2c7.6-3.1,15.6-9,16.3-17.7C83.4,51.6,78.6,54.7,75.8,55.7 M87.2,59.1c-1.7,1-2.1,5.1,0.8,3.9
				C92.4,63.8,91.1,57.3,87.2,59.1 M84.3,65.3c-2.5,0.7-4.1,2.9-3.8,5.5c-2.7,1.2-8.1,0.8-8.5,4.2c6.8,0.5,14.7-0.3,19.9-5.2
				C93,66,86.8,64.5,84.3,65.3 M53,67c-1,2.5,1.3,7.1,3.8,3.8C60.1,68.3,55.5,66,53,67 M47.2,68.1c-5.7,5.6-5.5,14.6-5.2,21.9
				c2.7,0.4,2.9-3.1,3-5c1.9-1.1,1-5.4,3.8-6.7C52.3,76.3,51.6,68,47.2,68.1 M46.9,91c-5.7,2.3,3.8,10.3,4.8,5
				C58.8,91.2,65,80.6,61.8,72C53.1,74.1,48.2,82.8,46.9,91 M66.2,75.1c-2.2,1.6-1.9,6.5,1.7,4.8C71.9,79.7,69,74.3,66.2,75.1
				 M68.4,82.4c-3.2,0.1-5.3,2.6-6.4,5.4c8.3,1.2-6.5,4.2-5,9.2c7.4-1.7,15.6-7.1,17.1-15C72.7,82.1,69.8,82.3,68.4,82.4 M38.2,96.1
				c-1.7,1.1-2.3,6.1,0.7,4.8C42.2,101,41.5,95,38.2,96.1 M30.2,99c-1.8,7-1.8,15,2.3,21.2c1.6,6.2,2.4-8.4,2-10.9
				C38.8,105.8,35.3,98.6,30.2,99 M43.2,101.2c-5.5,5.9-7.4,14.7-6.1,22.6c5,4.5,2.7-7.1,5-10c0.2,1.6,0.8,4.8,1,6.4
				c-0.3,1.6-2.8,5.9,0.6,4.7c5.1-6.6,5.9-15.7,4-23.6C47,99.4,44.2,99.7,43.2,101.2 M52.3,101.2c-2.4,1.2-2.4,3.4,0,4.6
				C55.9,107.3,55.9,99.7,52.3,101.2 M51.7,112.2c-1.8-0.3,0.2,3.5,0.4,4.8c-2.8,1.7-3,5.3-4.2,8.1c6.6-3.6,12.9-9.9,13-17.9
				C58,104.2,51,108.1,51.7,112.2 M48.2,127.1c-2,1-1.6,4.8,0.8,4.9C52.2,132,51.4,126,48.2,127.1 M56.3,129.3
				c-5.5,0.4-7.5,12.2-1.2,9.9c0.2,3.3-4.2,11.9,0.7,11.6C59.1,144.5,62.6,132.8,56.3,129.3 M32,130c-1,2.5,1.3,7.1,3.8,3.8
				C39.1,131.3,34.5,129,32,130 M40,130.8c-3.2,2.7-2.6,10.4-1.1,12.2c0.4,4.6,3.2,9.3,6.5,12.4c-0.1,3.7,8.7,0,5.6-4.6
				C51.8,143.6,47,130,40,130.8 M27,134.9c0.2,8.5,5.8,16.2,13.1,20.1c0.1-3.2-2.4-5.6-4.4-7.8c1.3-2.5,1.2-6.5-0.7-8.3
				C33.9,136.5,29.8,135.2,27,134.9 M56.2,154.1c-2,1-1.6,4.8,0.8,4.9C60.2,159,59.4,153,56.2,154.1 M49,158.9
				c-0.8,10.2,5.4,22.1,15.9,24.2c-1.8-2.6-3.7-5.2-5.4-7.8c0.4-0.4,1.2-1.2,1.6-1.6c2,2.4,3,5.9,5.8,7.4
				C66.5,171,59,161.2,49,158.9 M42.3,161.2c-2.4,1.2-2.4,3.4,0,4.6C46.4,168.3,45.9,159.8,42.3,161.2 M38.8,171.9
				c3.4,6.7,11,11.1,18.2,12.2c-0.2-3.4-4.6-4.4-7-6.1c-0.4-1,0.9-3.9-0.7-3.6c-1-1.9-2.1-3.8-3.6-5.4C45.1,166,34,168.3,38.8,171.9
				 M79.1,172c-2.2,3.9-2.6,11.2,3.2,12.2c0.4,1.4,3.5,1.4,4.7,2.7c1,1.9,2.6,4.2,5,4.1C91,183.3,86.6,175.2,79.1,172 M66.9,184
				c1,10,14.4,18.8,21.8,16c1.6-0.1,3.7-3.8,1.7-3.7C85.2,188.9,76.5,182.4,66.9,184 M61.2,188.1c-3.4,2.5,0.5,6.3,3.8,4.9
				C68.7,186.7,63.8,188,61.2,188.1 M95.2,192.1c-1.7,1-1.7,3.8,0,4.7C98.9,198,99.4,189.8,95.2,192.1z"/>
		</g>
		<g id="_x23_976c3aff">
			<path class="st57" d="M143.4,26.2c5.2-0.4,10.4,2.7,14.3,6c2.6,2.2,4.7,5,6.2,8.1c0.2,5.2,3.9,5,7.9,3.4
				c-0.8-7.1,6.1-1.3,9.3,0.1c2.2,1.8,4,4.1,5.6,6.4c2.4,4.5,5.5,9.5,4.4,14.8c3.2-2.3,6.2,0.3,8.8-1.1c2.7-4.8,5.7,1.9,8.1,3.9
				c2.4,5.1,4.1,10.6,4.2,16.3c-0.8,2.8-1.6,5.7-2.1,8.6c2.6,0,5.3,2.2,8,1.5c6.6-1.9,6,9.2,7.1,12.9c-0.3,2.9-0.4,5.9-1.3,8.7
				c-2.1,5.7-7.9,11.1-1.4,15.7c6.9-2.3,4.4,4.2,3.8,7.6c-1,6.2-4.6,11.7-9.4,15.7c-6.9,2-5.3,10.7,1.1,12.2
				c-2.8,6.2-6.3,12.1-12,16.1c-2.4,1.4-4.9,2.5-7.4,3.6c-6.2-0.4-4.8,4-6.6,8c1.4,0.4,5.1,0.7,3.7,3c-6.2,8.8-18,12.2-28.3,10.6
				c-2.3,2.4-3,5.4-0.4,7.8c-5.2,6.2-15.1,7-23,6c-3.1,0.8-7.9-4.9-9.2-1.2c-6.2-1.1-13.2,2.8-18.8-1c-2.9-1.3-6,1.7-9,2.2
				c-8.3,2.9-16.1-1-23.3-4.8c-2.3-2,3.5-3.4,1.7-5.7c-0.7-3.2-4.5-2.2-6.6-3.8c1.1-0.9,2.2-1.7,3.4-2.5c0.9-0.5,1.5-1.3,1.8-2.3
				c2.7-1.8,6-0.6,9-0.3c3.8,4.7,8.9,8.3,14.8,9.6c4.6,1,11.5,2.6,8.4-5.3c-0.6-3.8-4.8-4.9-7.6-6.7c-0.2-1.6-0.9-3.7,1.6-3.7
				c1.6,1.7,3.2,4,5.9,3.5c-0.3-7.3-8.3-10.6-13.5-14.3c0.7-0.3,2.1-1,2.8-1.4c5.5,1.8,9.1,8.5,15.6,5.8c4.9-0.4,9.9-0.2,14.8,0.1
				c5.4-3.6,10.9-7.1,17.5-8.5c2.1,0.4,1.6,2.8,2.2,4.3c1.4-2.2,2.6-4.6,3.8-6.9c3.2-4.9,7.6-8.7,12.7-11.4c2.3-0.2,3.3,1.2,3.6,3.3
				c2.7-3.4,1.2-8.3,2.2-12.4c0.5-1.2,1.4-2.1,2.2-3.1c0.5,0.3,1.4,1,1.8,1.3c-1.9,5.9-2.1,12.2-1.6,18.4c1.5-1.4,2.4-3.2,3-5.1
				c0.8-2.6,2.9-4.2,4.7-6.1c3.9-2.9,0.7-7-0.7-10.3c-0.5-2-2.9-1.9-4.4-2.6c1.6-4.2,4.9-5.2,7.4-1.1c-2-9.1-4.4-20.6,3.4-27.6
				c-1.9-3.4-4.5-6.5-6-10.1c-0.1-3.4-0.6-6.8-0.5-10.2c4.3,3.3,8.6-2.9,3.4-2.3c-2.1-1.2-4.1-2.4-5.8-4.2c0.6-0.3,1.9-0.9,2.6-1.2
				c2.2,1.1,4.3,2.4,6.9,2.4c-0.6-4-4.9-5.9-8.1-8c5.5-5.2-5.4-8-9.2-7c-0.3,4.3,3.1,7.6,6.2,10.1c-0.3,3.9-3.8,0.5-5.1-1
				c-2-2.5-3.8-5.1-5.1-8.1c2.4-4.5-2-7.2-6.2-6c-2.8-1-5.4-2.6-7.9-4.2c-0.4-0.9-0.7-1.8-1.1-2.8c6.7,3.3,13.7,6.5,21.4,4.8
				c-3.2-3.2-8.9-2.8-10.6-7.5c-2.1-4.3-7.1-0.8-10.6-0.3c-1.4,0.3-2.8,0.6-4.1,1c0-0.8,0-2.5,0-3.3c2.7,1.1,4.2-0.3,1.8-2.3
				c-4.7,0.2-9.3,0.8-14,0.9c-4.8-1.1-9.4-3.1-13-6.5c0.9-2.6,5.5-3.8,2.3-6.6c-2.1-4.2,6.8-4.9,2.3-8.5c-3.2-3.4,0.4-3.3,2.4-4.7
				C136.2,31.7,142.3,30.7,143.4,26.2 M146,29.9c-4.2,5.7,9.7,14.9,6.1,5.9c3.4,3.6,6.1,8.3,10.8,10.4C160.6,38.6,154,31.4,146,29.9
				 M140.2,33.1c-1,1.6-2,4.8,0.8,4.9C145.6,38.9,144.5,31.1,140.2,33.1 M139.2,44.8c4.3,6,11.5,10.3,18.9,10.3
				c0.7,3.9,7.6-4.8,2.9-4.8c-3.5-5.9-10.7-8.9-17-10.4C140.1,37,135.9,42.3,139.2,44.8 M175.1,44.9c-0.2,3.9-1.3,9.3,3.9,10
				c3.9-5.1,4.6,8.9,9.1,9.2C187.9,56.1,183,47.3,175.1,44.9 M135,47c0.1,1.7-1,5.1,1.9,4C140.9,50.5,138.2,45.5,135,47 M168.2,47.1
				c-3.3,1.9,1.1,5.7,3.1,3.2C173.4,48.4,170.2,46.1,168.2,47.1 M141,52.1c-2.1,1.3-6.4,2.1-6.8,4.7c5.4,6.2,14.8,2.1,21.9,3.1
				c-0.1-3.1-4.7-3.2-7.1-3.8C144.2,58.7,146.2,50.8,141,52.1 M165,54c-0.2,9,9.4,15.6,17.1,18.2c1.1,3.8,7.7-5,4-4.8
				C182,60,174.1,53,165,54 M161.2,59.1c-1.7,1-2.1,5,0.8,3.9C165.6,64.4,164.1,57.8,161.2,59.1 M194.2,67.1
				c-2.4,1.3-1.2,5.7,1.7,4.9C199.8,71.6,197.8,65.3,194.2,67.1 M202.2,68.1c-2,1.9-4.6,5.2-2.2,7.9c1.5,2.2,4.9,9.1,3.1-1
				c5.9,0.1-1.1,14.1,4.9,15C207.7,83.5,210,70.9,202.2,68.1 M188.4,80.6c1.8,6,5.3,11.5,10.1,15.6c1.6,4.8,10-2.9,4.6-6.3
				c-0.3-7.7-6.7-14.3-13.1-17.9C186.1,72.7,189,78.6,188.4,80.6 M182.2,76.1c-1.7,1-2.1,5,0.8,3.9
				C186.4,81.2,185.8,73.8,182.2,76.1 M210,96C207.2,109.5,219.8,94.8,210,96 M215.7,101.7c-3.9,1.5,0.8,13.1,1.6,5.6
				c1.1,2.9-1.1,10.1-1.2,14.8c3.4-0.5,3.5-5.5,4.9-8.1c2.7-0.7,1.3-11.3,0-11.8C220.8,98.3,217.5,98.6,215.7,101.7 M203.2,100.1
				c-2.9,8.3-1.5,18.5,4.1,25.2c1.6,4.5,3.3,0.1,6.6,0.4c0-4.4,1.4-11.1-0.8-13.8C211.1,107.6,209.3,99,203.2,100.1 M196.2,101.1
				c-2.4,1.3-1.2,5.7,1.7,4.9C201.8,105.6,199.8,99.3,196.2,101.1 M190,105.9c-0.9,7.8,5.6,17.1,13.1,19.1c-0.6-3.2-3-5.9-5.3-8.1
				c2.1-2,4.1-7,0.2-7.9C195.5,107.5,192.8,106.6,190,105.9 M200.2,127.1c-2.4,1.3-1.2,5.7,1.7,4.9
				C205.8,131.6,203.8,125.3,200.2,127.1 M192.3,129c-2.2,7.4-1,15.7,3.2,22.2c2.7,3.1,1.5-8.8,2.2-11.2
				C202.8,135.9,197.5,129.2,192.3,129 M208.2,130.2c-7.3,6.1-10.4,15.7-8.1,25.1c4.5-3,1.3-12.4,6.9-13.3
				c-0.2,4.9-2.9,9.3-4.1,14.1C211.4,153.7,216.9,133.8,208.2,130.2 M215.2,130.1c-2,0.9-1.3,4,0.8,3.9
				C219.9,134.6,219.2,128.2,215.2,130.1 M214.7,142.3c-1.9,0.1,0.4,3.5,0.5,4.8c-2.6,1.9-4.3,4.9-5.3,8c7.5-3,13.9-11.9,13.1-20.2
				C218.9,135.3,213.6,137.4,214.7,142.3 M192.2,154.1c-2.4,1.3-1.2,5.7,1.7,4.9C197.8,158.6,195.8,152.3,192.2,154.1 M199.3,159.3
				c-9.2,3.1-14.8,12.6-16.4,21.8c5.4-2.4,6.6-10.4,12.1-13.2c-0.3,6.2-8,9.2-9.1,15.2c7.8-0.8,12.6-9.3,15.2-15.9
				C202.4,164.5,203.4,158.3,199.3,159.3 M206.2,161.1c-2.4,1.5-1,4.5,1,5.7C211.1,166.4,210.8,159.4,206.2,161.1 M205.3,168.1
				c-1.8,2.1-7.1,7.6-1.3,7.1c-2.1,3.7-11.1,3.8-12.1,9.8c7.6-1.9,15.4-5.7,19.4-12.7C214.1,168,209.4,166.4,205.3,168.1
				 M170.2,172.4c-7,4.1-11.2,11.9-12.3,19.7c3.7-1.8,6.8-5.6,7.3-9.9c3-1.7,0.6,4.5,3.1,2.2C173.7,183.1,175.3,173.5,170.2,172.4
				 M176.2,177.1c-3.3,1.9,1.1,5.7,3.1,3.2C181.4,178.4,178.2,176.1,176.2,177.1 M160,198.1c3.1-1.5,5.9-3.6,8.7-5.5
				c0.4,0.4,1.2,1.3,1.7,1.7c-2.9,2.1-6.7,3.4-8.5,6.8c8.8,0.3,23-7.5,20.5-17.4C173.5,182.7,162.9,189.3,160,198.1 M148.3,186.3
				c-5.8,2.6-14.6,6.1-13.3,13.8c3.9-0.2,5.1-4.1,7.7-6.3c-1.2,5.3,7.2,2.9,7.1-1C150.3,190.5,153,184.3,148.3,186.3 M186.2,188.1
				c-2.4,1.3-1.2,5.7,1.7,4.9C191.8,192.6,189.8,186.3,186.2,188.1 M153.2,192.1c-2.9,1.9-0.4,5.4,2.6,4.8
				C158.6,195.2,156.4,190.6,153.2,192.1 M119,198c0.9,6.7-1.7,14.8,1.2,20.9c4.9-1.5-0.9-11.4,2.8-12.8c-1.2,7.1-0.4,15.4,9,12
				c0.1-6.7,0.1-13.3,0.1-20c7.3-4.9-4.6-6-2.6-4.5c-0.1,0.9-0.3,2.6-0.4,3.5c-3.4-0.1,2.2,9.1-2,7.9c-1-3.6,1.7-10.2-1.1-12
				c-0.4,0.1-1.2,0.2-1.7,0.3C121.4,193.3,115.4,191,119,198 M181.4,195.3c-1.8,1.6-5.2,2.7-3.8,5.6c-3.1,1.6-10.9,0-11.6,4
				c8.2,0.8,16.9-0.3,23.8-5.3C191.5,195.4,183.9,194.1,181.4,195.3 M134.8,204.3c-2.1-0.5-0.2,4.2,0.2,5.7c0,0.5-0.1,1.5-0.1,2
				c8.7,1.2,20.3-2.6,23-11.8C150,197.6,141.4,199.3,134.8,204.3 M88.2,205.1c-1.7,1.1-2.3,6.1,0.8,4.9
				C93.6,210.9,92.5,203.1,88.2,205.1 M160.2,205.1c-1.7,1.1-2.3,6.1,0.8,4.9C165.6,210.9,164.5,203.1,160.2,205.1 M155.3,210.5
				c-2.3,1-5.7,1.2-5.7,4.4c-4.3,0.5-8.6,0-12.9,0.3c6,5.5,16.3,4.6,23.5,2.1C164.6,214.6,157.3,211.9,155.3,210.5 M93.3,211.2
				c-1.6,0.7-3,1.7-4.2,3c-1.1,5.1,8,4.4,10.8,4.8c4.5-1.2,11.1,0.6,14.2-3.9c-4.6-0.3-9.2,0-13.8-0.2
				C100.3,211.4,96.3,210.2,93.3,211.2z"/>
		</g>
		<g id="_x23_f4d59cff">
			<path class="st58" d="M120,49.1c-0.1-6.8-0.4-13.7,0.6-20.4c2.9,5.4,0.8,12.4,1.6,18.4C122.1,48.5,121.4,49.2,120,49.1z"/>
		</g>
		<g id="_x23_eacb9bff">
			<path class="st59" d="M87.9,46c2.8-7.3,8.4-16,17.1-16.1c1.2,4.2-1.4,8.1-5.3,9.3c-2.9-0.1,0.3-2.9,0.3-4.4
				c-2.7,0.2-4.3,2.7-5.2,5C93.1,42.3,91.2,46,87.9,46z"/>
		</g>
		<g id="_x23_eac995ff">
			<path class="st60" d="M146,29.9c8,1.5,14.5,8.6,16.8,16.3c-4.7-2.1-7.4-6.8-10.8-10.4C155.7,44.9,141.9,35.7,146,29.9z"/>
		</g>
		<g id="_x23_eac393ff">
			<path class="st61" d="M108.2,33.1c3.2-1.1,4,4.9,0.7,4.8C105.9,39.2,106.5,34.2,108.2,33.1z"/>
		</g>
		<g id="_x23_e1b789ff">
			<path class="st62" d="M140.2,33.1c4.2-2,5.4,5.8,0.8,4.9C138.2,37.9,139.2,34.7,140.2,33.1z"/>
		</g>
		<g id="_x23_b89e6fff">
			<path class="st63" d="M94.8,39.9c0.9-2.3,2.5-4.8,5.2-5c-0.1,1.5-3.2,4.3-0.3,4.4C100.4,41,96.1,39.6,94.8,39.9z"/>
		</g>
		<g id="_x23_f7d9a3ff">
			<path class="st64" d="M60.2,39c3,1.3,10.3-0.2,9,5.1c-2,2.3-4.1,4.7-5.9,7.2C56.6,52,58.6,43,60.2,39z"/>
		</g>
		<g id="_x23_f7d9a2ff">
			<path class="st65" d="M181.1,43.8c-1.1-4.7,5.5-3.9,8.8-4.8c3,3.4,3.2,13.9-3.1,11.2C185.1,47.9,183.3,45.7,181.1,43.8z"/>
		</g>
		<g id="_x23_edd3a4ff">
			<path class="st66" d="M104.4,40.4c2,0.6,8-2.3,8.7,1.6c-4.2,8.2-14,13.7-23.2,13c3.8-2.9,9-4.2,12.3-8c-4.8,0.3-8.4,4.4-13.2,5.1
				C91,45.8,98.3,42.3,104.4,40.4z"/>
		</g>
		<g id="_x23_ebcf9aff">
			<path class="st67" d="M139.2,44.8c-3.3-2.5,0.9-7.8,4.8-4.8c6.4,1.5,13.5,4.5,17,10.4c-2.3,3.2-8.8-4.4-13.3-3.3
				c3.9,2.9,8.4,4.9,12.4,7.8c-0.5,0.1-1.5,0.3-2,0.4C150.7,55.1,143.5,50.8,139.2,44.8z"/>
		</g>
		<g id="_x23_e4c89aff">
			<path class="st68" d="M73.3,45.3c8.2-0.7-1.3,14.8-3.7,8.7c-2.2,3.7-3.8,8-7.7,10.2C63.2,57,66.7,48.8,73.3,45.3z"/>
		</g>
		<g id="_x23_e8c58eff">
			<path class="st69" d="M175.1,44.9c8,2.4,12.9,11.2,12.9,19.2c-4.5-0.3-5.2-14.4-9.1-9.2C173.8,54.3,174.8,48.8,175.1,44.9z"/>
		</g>
		<g id="_x23_efc791ff">
			<path class="st70" d="M79,47c3.3-1.8,6.2,4.9,2,4.1C78.1,52,79.1,48.7,79,47z"/>
		</g>
		<g id="_x23_eccc97ff">
			<path class="st71" d="M112,47c3.3-0.9,4.8,0.6,3.9,3.9C112.7,51.9,111.1,50.3,112,47z"/>
		</g>
		<g id="_x23_edcc95ff">
			<path class="st72" d="M135,47c3.1-1.4,5.8,3.5,1.9,4C134,52.1,135.1,48.7,135,47z"/>
		</g>
		<g id="_x23_af8853ff">
			<path class="st73" d="M147.8,47c4.6-1.1,11,6.5,13.3,3.3c4.7,0-2.2,8.7-2.9,4.8c0.5-0.1,1.5-0.3,2-0.4
				C156.1,52,151.7,49.9,147.8,47z"/>
		</g>
		<g id="_x23_e7bd86ff">
			<path class="st74" d="M168.2,47.1c2-1,5.2,1.3,3.1,3.2C169.3,52.8,164.9,49,168.2,47.1z"/>
		</g>
		<g id="_x23_e9d3a1ff">
			<path class="st75" d="M107.2,52.1c3.3-0.9,6,1.7,8.8,3c0.2,6.3-9.1,4.7-13,5c-1.5-1.1-7.5,1.6-7.9-2c2.6-2.2,6.5-1.9,9.6-1.4
				C105,55,105.8,53.3,107.2,52.1z"/>
		</g>
		<g id="_x23_e9c894ff">
			<path class="st76" d="M141,52.1c5.3-1.3,3.3,6.6,8,4c2.4,0.6,7,0.7,7.1,3.8c-7-1-16.4,3.1-21.9-3.1
				C134.6,54.2,138.9,53.4,141,52.1z"/>
		</g>
		<g id="_x23_ecdaaeff">
			<path class="st77" d="M75.8,55.7c2.9-1,7.6-4.1,10.2-1.5c-0.7,8.7-8.7,14.5-16.3,17.7c-0.7,0-2.1-0.1-2.8-0.1
				c2.2-4.6,9.4-5.5,10.3-10.9c-4.8,1.6-8.1,5.9-12.2,8.8C62.7,66.2,71.4,58.5,75.8,55.7z"/>
		</g>
		<g id="_x23_f1d7a8ff">
			<path class="st78" d="M121.3,57.1c0.3-4.6,5.3-2.3,7.6-0.4c3.6,3.4,8.3,5.4,13,6.5c4,0.6,8.1,0.8,12.1,1.4
				c-1.4,7.1-0.8,14.3-1.1,21.4c-1-0.3-2-0.6-2.9-0.9c-2.1-4.6,3.8-16.9-2-18.1c-3.4,3.8,1.5,15.1-2,19c-3.4-3.8,1.5-15.1-2-19
				c-0.5,0-1.5,0-1.9,0c-4.2,3.4,2.8,17.1-3,19c-0.7-6.5,1.2-13.3-0.8-19.6c-8.9-1.9,1.4,16.8-5.1,19.9l-0.3-1
				c-0.7-6,1.6-12.8-0.7-18.6c-2.5-2.1-3.3-0.7-2.2,4.2c-2.2,4.7,5.1,19.1-5,16.1c-5.9,1.4-2.8-8.2-2.3-11.2
				c0.4,3.8-1.7,13.2,6.2,10.2c-1.8-3,3.8-16.3-2-14.3c1.1-4.7-1.3-6-3.6-1.3c-6.8,3.8,1.5,18-8.2,16.6c-2.5-5.9,4.3-18.4-3-21.2
				c-0.2,7-0.1,14.1,0.1,21.1c-1.4,0.3-2.6,0-3.5-0.7c0.1-6.7,0.6-13.5,0.2-20.2c-0.5,0.2-1.4,0.5-1.8,0.6c-2,5.8-0.8,12.5-0.9,18.7
				c-0.7,1.3-2.2,2.1-3.5,1c-2.1-4.9,4.8-19.2-2.7-19.3c-0.1,6.4-0.2,12.9,0.2,19.3c-1-0.1-3.4,1.8-3.4-0.1c-2.3-6.2,4-16.8-1-21
				c-1.5-0.3-1.8-1.6-2-3C103.2,63.4,114.1,64.7,121.3,57.1z"/>
		</g>
		<g id="_x23_edd19eff">
			<path class="st79" d="M165,54c9.1-1,17,6,21.1,13.5c-3.1,3.4-8.8-7.2-14.2-7.6c2.7,5.1,7.9,8.1,12.1,11.9
				c-0.5,0.1-1.4,0.3-1.9,0.5C174.4,69.6,164.8,63,165,54z"/>
		</g>
		<g id="_x23_f3d59eff">
			<path class="st80" d="M45.6,57.7c0.5-4.4,3.3-2.4,1.5,1c3.2,0.1,5,2.8,6.1,5.5c-2.2,2.2-3.6-1.1-5.3-2.3
				c-2.3,1.5-3.7,3.9-5.1,6.1C37.9,67.7,38.3,54.7,45.6,57.7z"/>
		</g>
		<g id="_x23_f5d7a2ff">
			<path class="st81" d="M200.2,59.2c3.4-1,13-2.4,9.8,4.9c1.2,4.9,0.6,6.2-2,3.8c-2.4-2-5.4-8.7-8.1-3.9
				C196.2,65,199,60.4,200.2,59.2z"/>
		</g>
		<g id="_x23_e3c293ff">
			<path class="st82" d="M87.2,59.1c3.9-1.8,5.2,4.7,0.8,3.9C85.1,64.2,85.5,60.1,87.2,59.1z"/>
		</g>
		<g id="_x23_ebc895ff">
			<path class="st83" d="M161.2,59.1c2.9-1.3,4.4,5.3,0.8,3.9C159.1,64.1,159.5,60.1,161.2,59.1z"/>
		</g>
		<g id="_x23_ae8f5dff">
			<path class="st84" d="M171.9,59.8c5.4,0.4,11.1,11.1,14.2,7.6c3.7-0.2-2.9,8.6-4,4.8c0.5-0.1,1.4-0.3,1.9-0.5
				C179.9,67.9,174.7,64.9,171.9,59.8z"/>
		</g>
		<g id="_x23_a28c5fff">
			<path class="st85" d="M64.9,69.7c4.1-2.9,7.4-7.2,12.2-8.8c-0.9,5.4-8.1,6.3-10.3,10.9c0.7,0,2.1,0.1,2.8,0.1
				C70.6,75.6,63.5,73,64.9,69.7z"/>
		</g>
		<g id="_x23_d5ad7aff">
			<path class="st86" d="M141.8,63.2c4.7-0.1,9.3-0.8,14-0.9c2.4,2,0.8,3.4-1.8,2.3C149.9,64,145.9,63.8,141.8,63.2z"/>
		</g>
		<g id="_x23_e9d1a2ff">
			<path class="st87" d="M84.3,65.3c2.5-0.8,8.7,0.7,7.6,4.5C86.7,74.7,78.8,75.5,72,75c0.4-3.4,5.8-3.1,8.5-4.2
				C80.2,68.2,81.8,65.9,84.3,65.3z"/>
		</g>
		<g id="_x23_be9363ff">
			<path class="st88" d="M95.8,65.2c5,4.3-1.3,14.8,1,21c-0.5-2.9-0.5-5.9-1.5-8.7c-1.8,2.3,2.3,10.9-3.4,9.4
				c3.2-2.6,4.3-12.7,0.1-14.1C95.1,71.4,96.3,68.5,95.8,65.2z"/>
		</g>
		<g id="_x23_cbaa75ff">
			<path class="st89" d="M152.9,86c0.2-7.2-0.3-14.4,1.1-21.4c0,0.8,0,2.5,0,3.3c-2.4,5.1,5.2,20.3-4,19.1c0-0.5,0-1.4,0-1.9
				C150.9,85.4,151.9,85.8,152.9,86z"/>
		</g>
		<g id="_x23_e7ca9bff">
			<path class="st90" d="M158.1,67c3.4-0.5,8.5-4,10.6,0.3c1.7,4.7,7.4,4.3,10.6,7.5c-7.8,1.7-14.7-1.5-21.4-4.8
				c-0.2-0.5-0.7-1.5-1-2C157.1,67.8,157.8,67.2,158.1,67z"/>
		</g>
		<g id="_x23_c19d70ff">
			<path class="st91" d="M107.1,66.6c0.5-0.1,1.4-0.5,1.8-0.6c0.4,6.7-0.1,13.5-0.2,20.2C106.9,79.8,109.4,72.8,107.1,66.6z"/>
		</g>
		<g id="_x23_a27d4aff">
			<path class="st92" d="M112.1,65.8c7.3,2.8,0.5,15.3,3,21.2c9.8,1.4,1.5-12.8,8.2-16.6c2.3-4.7,4.7-3.4,3.6,1.3
				c-1.4,1.3-2.9,2.6-4.2,4.1c-0.6,3.1-3.6,12.7,2.3,11.2c10.1,3,2.8-11.4,5-16.1c-1-4.9-0.3-6.3,2.2-4.2
				c-0.1,6.1-0.2,12.1-0.2,18.2c-0.6,1.9-1.4,3.7-2.1,5.5c-0.9,0.8-2.4,1.3-2.7,2.6c0.3,4.7-5.6,7-8.3,5.1c1.4-4.9-0.4-7.6-4.9-7.6
				c-0.6-1.2-1.2-2.4-1.9-3.6C112,79.9,111.9,72.8,112.1,65.8z"/>
		</g>
		<g id="_x23_d6b483ff">
			<path class="st93" d="M133.2,86.3c6.5-3.1-3.8-21.8,5.1-19.9c-5,4.1-1.4,13.5-2.1,19.9C135.2,86.2,133.2,88,133.2,86.3z"/>
		</g>
		<g id="_x23_e5bd8dff">
			<path class="st94" d="M53,67c2.5-1,7.1,1.3,3.8,3.8C54.3,74.1,52,69.5,53,67z"/>
		</g>
		<g id="_x23_a48456ff">
			<path class="st95" d="M100.1,67c7.5,0,0.6,14.3,2.7,19.3c-0.6,0-1.9,0-2.5,0C99.8,79.9,99.9,73.4,100.1,67z"/>
		</g>
		<g id="_x23_b7996cff">
			<path class="st96" d="M106.2,85.2c0.1-6.2-1.2-12.8,0.9-18.7C106.2,72.6,108.6,79.5,106.2,85.2z"/>
		</g>
		<g id="_x23_c17a33ff">
			<path class="st97" d="M107.1,66.6c2.4,6.3-0.1,13.2,1.7,19.6c0.9,0.8,2,1,3.5,0.7c0.7,1.2,1.3,2.4,1.9,3.6
				c-0.3,2.6-0.6,5.1-0.9,7.7c-3.3-0.1-6.6-0.5-9.9-0.1c-2.4,1.9-1.9,7.3-0.4,9.1c1.5,0.3,4.6,0.8,6.1,1.1
				c0.3,10.5,0.1,21.1,0.1,31.6c-8.7-3.4-7.3,3.8-6.9,9c2.7,0,8.1,0.1,10.8,0.2c-0.7,3.9-0.2,6.8,3.9,6c-1.4,1.2-1.1,2.9-0.8,4.5
				c-0.2,0.3-0.7,1-1,1.4c-0.4,0-1.3-0.1-1.7-0.1c-1.4,0-4.1-0.1-5.5-0.1c-0.6,0-1.9,0-2.5-0.1c-2.8-0.4-5.7-1-8.5-0.1
				c-0.4,0.1-1.2,0.2-1.6,0.3c-2.6-0.6-5.7-0.5-7.2-3c-0.1-0.7-0.2-2.1-0.3-2.8c-0.6-1-1.2-1.9-1.8-2.9c2.9,0.6,3-5.1,0.1-4.4
				c0.3-0.4,0.9-1.3,1.2-1.7c0.8-0.9,1-1.9,0.6-3c-0.2-1-0.3-1.9-0.5-2.9c0.1-1.1,1.2-2.7-0.2-3.3c-3.4-2-0.3-1.3,0.8-3
				c0-0.5,0-1.4,0-1.8c0-1.4-0.1-2.7-0.1-4.1c0-1.7,0-5.1,0-6.8c-0.7-0.9-1.4-1.9-0.7-3c0.5-1.2,1.9-3.5,0.1-4.2c-5.2-2.2-1-1,0.8-3
				c0-1.3-0.1-2.6-0.2-3.9c0-1.3,0.2-2.6,0.4-3.8c1.5-3.5,0.2-6.9-0.6-10.3c-0.6-4.1,0.3-6.8,4.3-6c5.7,1.5,1.6-7.1,3.4-9.4
				c1,2.8,1,5.8,1.5,8.7c0,1.9,2.4,0,3.4,0.1c0.6,0,1.9,0,2.5,0c1.3,1.1,2.8,0.3,3.5-1C108.6,79.5,106.2,72.6,107.1,66.6z"/>
		</g>
		<g id="_x23_c5a679ff">
			<path class="st98" d="M132.2,66.8c2.3,5.8,0,12.5,0.7,18.6l-0.8-0.4C132,78.9,132.1,72.8,132.2,66.8z"/>
		</g>
		<g id="_x23_9c7d4eff">
			<path class="st99" d="M136.2,86.3c0.6-6.4-2.9-15.8,2.1-19.9c-0.2,6.8-0.4,13.7-0.2,20.5C137.6,86.8,136.6,86.5,136.2,86.3z"/>
		</g>
		<g id="_x23_cbab7dff">
			<path class="st100" d="M138.3,66.4c2,6.3,0.1,13.1,0.8,19.6c5.8-1.9-1.2-15.6,3-19c0,6.8-0.2,13.6,0.2,20.4
				c-1.4,0.5-2.8,0-4.1-0.4C137.9,80.1,138.1,73.2,138.3,66.4z"/>
		</g>
		<g id="_x23_987a4aff">
			<path class="st101" d="M142,67c0.5,0,1.5,0,1.9,0c0,6.7,0,13.4,0.1,20.1c-0.4,0.1-1.4,0.2-1.8,0.3C141.9,80.6,142,73.8,142,67z"
				/>
		</g>
		<g id="_x23_d3b182ff">
			<path class="st102" d="M144,67c3.5,3.9-1.4,15.2,2,19c3.5-3.9-1.4-15.2,2-19c0,6.7,0,13.3,0,20c-1.3,0-2.7,0-4,0.1
				C144,80.4,144,73.7,144,67z"/>
		</g>
		<g id="_x23_997444ff">
			<path class="st103" d="M148,67c5.7,1.2-0.1,13.5,2,18.1c0,0.5,0,1.4,0,1.9c-0.5,0-1.5,0-2,0C148,80.3,148,73.7,148,67z"/>
		</g>
		<g id="_x23_c37c35ff">
			<path class="st104" d="M153.9,67.9c1.4-0.3,2.7-0.7,4.1-1c-0.3,0.3-0.9,0.8-1.2,1.1c0.6,4.7-5.6,20.4,3.4,18.7
				c3.5-0.2,2.8,3.3,3,6.1c0.1,0.7,2.5,2.2,0.7,2.1c-4.4,0.1,0.3,4.5-1.1,6.9c-0.6,1-0.3,2.1-0.1,3.2c-0.1,0.4-0.2,1.2-0.2,1.7
				c-0.4,1.5-0.2,2.9,0.3,4.3c-0.1,0.7-0.3,2-0.4,2.6c1.1,4.8-0.9,9.7,0.4,14.4c0.4,0.9,0.4,2,0.2,2.9l-0.4,0.9
				c-1.9,2.2,4,3.4,0.4,5.2c-0.3,1.7-0.1,3.3,2.1,3.1c-0.7,1-1.4,1.9-2.1,2.9c0,0.7,0.1,2.1,0.1,2.8c0.1,0.5,0.4,1.5,0.5,2
				c-1.4,1.1-1.9,2.7-1.1,4.4c0.1,0.7,0.4,2.1,0.6,2.8c1.1,4.7-2.4,5.5-6.1,6.1c-3.3,4.4,1.4,15-2.1,18.9
				c-2.9-4.5,0.9-13.3-1.7-19.3c-0.3-1.7-2.4,0-3.5-0.1c-0.4,0-1.2,0-1.5,0c-1.8-0.4-4.9-1.6-4.4,1.4c-0.6-0.8-1.3-1.5-1.9-2.2
				c-1.4,0.1-2.8,0.4-4.2,0.8c-0.4,0-1.2,0-1.5,0c-1.5-0.2-3-0.4-4.5-0.5c-1.1-2.7,4.1-4.2,3.8-7.6c5.4-2.4,12.1-4.9,13.8-11.2
				c1-6.4,2.3-15.5-4.4-19.4c-4-4.2,0.6-10.7-2.4-15.4c-1.2-5.6-8.4-7.2-8.9-13.1c-0.4,0.1-1.2,0.3-1.6,0.4
				c-0.7-1.2-1.4-2.3-2.2-3.4c0.8-1.8,1.5-3.6,2.1-5.5l0.8,0.4l0.3,1c0,1.6,2.1-0.1,3,0c0.5,0.2,1.4,0.5,1.9,0.6
				c1.3,0.4,2.7,0.9,4.1,0.4c0.4-0.1,1.4-0.2,1.8-0.3c1.3,0,2.6,0,4-0.1c0.5,0,1.5,0,2,0C159.1,88.2,151.5,73.1,153.9,67.9z"/>
		</g>
		<g id="_x23_e5b881ff">
			<path class="st105" d="M194.2,67.1c3.6-1.8,5.6,4.5,1.7,4.9C193,72.8,191.8,68.4,194.2,67.1z"/>
		</g>
		<g id="_x23_ebcaa0ff">
			<path class="st106" d="M47.2,68.1c4.4-0.1,5.1,8.2,1.6,10.3c-4.8-7.6-3.8,2-3.8,6.7c-0.1,1.9-0.3,5.4-3,5
				C41.7,82.7,41.5,73.7,47.2,68.1z"/>
		</g>
		<g id="_x23_cea479ff">
			<path class="st107" d="M160.2,86.8c-9,1.7-2.9-14-3.4-18.7c0.2,0.5,0.7,1.5,1,2c0.4,0.9,0.7,1.8,1.1,2.8
				C155.8,74.5,154.4,86.2,160.2,86.8z"/>
		</g>
		<g id="_x23_ebc790ff">
			<path class="st108" d="M202.2,68.1c7.7,2.8,5.5,15.4,5.8,21.9c-6-0.8,1.1-14.9-4.9-15c1.8,10-1.6,3.1-3.1,1
				C197.7,73.3,200.2,70.1,202.2,68.1z"/>
		</g>
		<g id="_x23_f6e7c2ff">
			<path class="st109" d="M126.9,71.7c5.8-2,0.2,11.3,2,14.3c-7.9,3-5.8-6.5-6.2-10.2C124,74.3,125.5,73,126.9,71.7z"/>
		</g>
		<g id="_x23_ecdab1ff">
			<path class="st110" d="M46.9,91c1.3-8.3,6.2-17,14.9-19.1c3.2,8.7-3,19.2-10.2,24.1c-0.4-0.1-1.1-0.2-1.4-0.3
				c2.4-4.9,5.9-9.5,6.9-14.9c-4.9,1.7-4.8,9.1-8.8,12.3C46.7,95.6,47.1,92.2,46.9,91z"/>
		</g>
		<g id="_x23_eccfa1ff">
			<path class="st111" d="M188.4,80.6c0.6-2-2.3-8,1.6-8.7c6.4,3.6,12.8,10.2,13.1,17.9c0.5,11.1-10.3-16.9-7.6-2.4
				c0.3,2.7,6.6,7.2,3,8.7C193.6,92.2,190.2,86.6,188.4,80.6z"/>
		</g>
		<g id="_x23_f2dbadff">
			<path class="st112" d="M78.4,78.3c4.7-1.5,9.8-2.1,13.7-5.4c4.2,1.5,3.1,11.5-0.1,14.1c-4.1-0.8-5,1.9-4.3,6
				c-5.3-0.1-10.7,0.1-16-1C75.1,88.2,78.7,83.8,78.4,78.3z"/>
		</g>
		<g id="_x23_f4ddb0ff">
			<path class="st113" d="M160.2,86.8c-5.9-0.6-4.4-12.3-1.3-14c2.5,1.6,5,3.2,7.9,4.2c3.4,0.6,5.5,2.6,6.2,6
				c1.3,2.9,3.1,5.6,5.1,8.1c-2.1,4.2-10.1,1.2-14.8,1.7C163.1,90.1,163.8,86.6,160.2,86.8z"/>
		</g>
		<g id="_x23_bea076ff">
			<path class="st114" d="M45,85.1c0-4.6-1-14.3,3.8-6.7C46,79.7,46.9,83.9,45,85.1z"/>
		</g>
		<g id="_x23_e3c195ff">
			<path class="st115" d="M66.2,75.1c2.7-0.8,5.7,4.5,1.7,4.8C64.3,81.6,64,76.8,66.2,75.1z"/>
		</g>
		<g id="_x23_e9c593ff">
			<path class="st116" d="M182.2,76.1c3.5-2.3,4.2,5.1,0.8,3.9C180.1,81.1,180.5,77.1,182.2,76.1z"/>
		</g>
		<g id="_x23_c6a273ff">
			<path class="st117" d="M166.8,77.1c4.2-1.1,8.5,1.5,6.2,6C172.3,79.7,170.2,77.6,166.8,77.1z"/>
		</g>
		<g id="_x23_f4d7a3ff">
			<path class="st118" d="M26,84.1c2-4.4,8.2-5.3,12.2-3.1c0.9,3.8,2,7.7,1.6,11.6c-3,0.6-6.6,4-8.9,0.4
				C28.3,90.8,26.8,87.3,26,84.1z"/>
		</g>
		<g id="_x23_f6daa3ff">
			<path class="st119" d="M212.2,84.2c0.9-7.1,8.7-3.2,12.6-0.8c0.5,4.6-4.5,7.4-6.8,10.9c-2.7,0.8-5.4-1.5-8-1.5
				C210.5,89.8,211.4,87,212.2,84.2z"/>
		</g>
		<g id="_x23_ac8f67ff">
			<path class="st120" d="M48.3,93.2c4-3.1,4-10.5,8.8-12.3c-1,5.4-4.6,10-6.9,14.9c0.4,0.1,1.1,0.2,1.4,0.3c-1,5.3-10.4-2.7-4.8-5
				C47.1,92.2,46.7,95.6,48.3,93.2z"/>
		</g>
		<g id="_x23_ebd3a5ff">
			<path class="st121" d="M68.4,82.4c1.4-0.1,4.3-0.3,5.7-0.4c-1.5,8-9.7,13.4-17.1,15c-1.5-5,13.3-8,5-9.2
				C63.1,85,65.2,82.6,68.4,82.4z"/>
		</g>
		<g id="_x23_e8ce99ff">
			<path class="st122" d="M176.9,82.1c3.7-0.9,14.7,1.9,9.2,7c3.1,2.1,7.4,3.9,8.1,8c-2.5,0-4.7-1.3-6.9-2.4
				c-1.3-0.9-2.7-1.7-4.1-2.5C180,89.7,176.6,86.3,176.9,82.1z"/>
		</g>
		<g id="_x23_b2895dff">
			<path class="st123" d="M195.5,87.5c-2.7-14.5,8.1,13.5,7.6,2.4c5.4,3.4-3,11.2-4.6,6.3C202.1,94.7,195.8,90.2,195.5,87.5z"/>
		</g>
		<g id="_x23_cfac82ff">
			<path class="st124" d="M113.1,98.2c0.3-2.6,0.6-5.2,0.9-7.7c4.4,0,6.2,2.7,4.9,7.6C120.9,91,111,91.3,113.1,98.2z"/>
		</g>
		<g id="_x23_d8b288ff">
			<path class="st125" d="M127.2,93c0.3-1.3,1.8-1.8,2.7-2.6c0.8,1.1,1.5,2.2,2.2,3.4c0,2-0.1,4,0,6C130.3,97.3,132.5,91.4,127.2,93
				z"/>
		</g>
		<g id="_x23_b89462ff">
			<path class="st126" d="M178.1,91.2c1.3,1.5,4.8,4.9,5.1,1c1.4,0.8,2.8,1.6,4.1,2.5c-0.7,0.3-2,0.9-2.6,1.2
				c-7.1-1.2-14.5,0.6-21.8,0.3c2.3,7.1,20.3-3.2,20.1,5.8c-6.7,0.1-13.4,0.2-20.1-0.1c1.3-2.3-3.3-6.8,1.1-6.9
				c1.8,0.1-0.6-1.4-0.7-2.1C167.9,92.4,175.9,95.3,178.1,91.2z"/>
		</g>
		<g id="_x23_b79561ff">
			<path class="st127" d="M66.9,96c1.6-1.3,3-2.7,4.6-4c5.3,1.1,10.7,0.9,16,1c0.8,3.4,2.1,6.7,0.6,10.3
				C90.8,90.4,74.4,97.5,66.9,96z"/>
		</g>
		<g id="_x23_f6ecd3ff">
			<path class="st128" d="M113.1,98.2c-2.2-6.9,7.8-7.2,5.8-0.2c2.8,1.9,8.7-0.4,8.3-5.1c5.3-1.6,3.1,4.3,4.9,6.8
				c9.4,2.1,10.3,12.7,6.9,20c1.4,2.3,4,3.6,6.1,5.1c1.2,4.3,1.8,8.8,2.1,13.3c-0.2,0.5-0.7,1.6-0.9,2.2c-4.2,0.8-10.9,1.9-10.4-4.3
				c2.6-3.5-1.8-6.9-4.7-8.3c-3.5,0-8.2-2.4-11.4,0.1c-0.3,0.2-0.8,0.6-1,0.8c-1.2,3.7,1.4,16.9-6.5,12.1c-4-10,1-23.1-2-34
				c-5.3,0.9-7.4-1-6.3-5.7C103.2,96.2,110.6,100.6,113.1,98.2 M120.2,119.8c3.5-1.7,10.2,1.4,11-3.6c2.4-2.8-1.2-9.1-5.2-8.3
				C119.1,101.7,115.6,114.6,120.2,119.8z"/>
		</g>
		<g id="_x23_a2733eff">
			<path class="st129" d="M132.1,93.8c0.4-0.1,1.2-0.3,1.6-0.4c0.5,5.9,7.7,7.5,8.9,13.1c3,4.8-1.6,11.2,2.4,15.4l0,1
				c-1.9-1.2-3.9-2.3-6.1-3.1c3.5-7.3,2.5-17.9-6.9-20C132.1,97.8,132.1,95.8,132.1,93.8z"/>
		</g>
		<g id="_x23_f1d9aaff">
			<path class="st130" d="M162.9,96.1c7.2,0.2,14.6-1.6,21.8-0.3c1.7,1.7,3.7,3,5.8,4.2c-6.5,0.2-5.1,8.2-2.9,12.4
				c1.5,3.7,4,6.7,6,10.1c-7.7,7-5.3,18.4-3.4,27.6c-2.5-4.1-5.8-3.1-7.4,1.1l-0.7,0c-6-0.1-12,0-18-0.3c1.7-5.6,15.3,1.1,19-2.9
				c-2.6-4.8-13.5-0.9-19.8-2.1c0-0.7-0.1-2.1-0.1-2.8c5.2-2.5,19.5,4.3,19.9-3.1c-6-0.2-11.9-0.1-17.9,0.1
				c-2.1,0.3-2.4-1.4-2.1-3.1c5.2-2.5,19.4,4.3,19.9-3.1c-6.4-1.7-15.4,3-20.4-2.1l0.4-0.9c6.7-0.2,13.4,0.2,20.1-0.2
				c-2.6-6.8-14.1-1.6-20.2-2.8c-1.8-5.9,0-8.3,5.2-7.2c6.7-2.9,8.4,7.4,15.1,5.1c0.5-3.8-4.5-3.4-6.3-5.8
				c-3.7-4.9-14.2,1.7-14.3-6.5c6.6-0.8,13.2-0.5,19.8-0.8c4.2-4-6.9-2.9-9.3-2.9c-1.5-2-9.8,2.6-9-2c6.2-0.3,12.5,0.4,18.8-0.2
				c2.9-3.2-1.3-4.5-4-3.3c-5.3,0.4-10.6,0.5-15.9,0.6c-0.2-1.1-0.4-2.2,0.1-3.2c6.7,0.2,13.4,0.2,20.1,0.1
				C183.2,92.9,165.2,103.3,162.9,96.1z"/>
		</g>
		<g id="_x23_eac395ff">
			<path class="st131" d="M38.2,96.1c3.2-1.1,4,4.9,0.7,4.8C35.9,102.2,36.5,97.2,38.2,96.1z"/>
		</g>
		<g id="_x23_f1daaaff">
			<path class="st132" d="M59.7,99.9c2.5-1.2,4.9-2.5,7.2-4c7.5,1.5,23.8-5.5,21.2,7.3c-6.5,2.3-11.8,0.1-16.5-4
				c-6.8-5.7-5.8,6.9-0.2,3.5c4.2,4.9,10.4,4.4,16.3,4.4c0.1,1.3,0.2,2.6,0.2,3.9c-9.1,4.2-12.9-5.8-21-5c-1.1,4.3,4.3,2.4,6.2,5
				c3.4,4.4,9.3,2.4,14.1,3c1.8,0.7,0.4,3-0.1,4.2c-5.7-0.3-11.6-0.6-15.6,4.1c-5.6-3.5-6.7,9.2,0.1,3.4c4.5-4.3,10.2-5.4,16.2-4.5
				c0,1.7,0,5.1,0,6.8c-6,2.2-17.8-4.1-21,2.9c7,0.4,14.2-0.7,21.1,1.2c0,0.5,0,1.4,0,1.8c-7,0.1-14.1,0-21.1,0.2
				c2.9,6.8,14.1,1.5,20.4,2.8c1.4,0.7,0.3,2.3,0.2,3.3c-6.8-0.1-13.6-0.6-20.4-0.1c2.8,6.8,14.4,1.4,20.9,3c0.4,1.1,0.2,2.2-0.6,3
				c-6.9,0.3-14.1-1.2-20.8,0.6c-0.4,0.1-1.1,0.3-1.5,0.3c-1.9-0.3-5.9,4.9-4.5,1.1c2.7-8.1,3.2-21.7-3.8-26.1c3-4,6.6-7.9,7.7-13
				C65.1,105,66.9,98.6,59.7,99.9z"/>
		</g>
		<g id="_x23_e6b681ff">
			<path class="st133" d="M210,96C219.8,94.8,207.2,109.5,210,96z"/>
		</g>
		<g id="_x23_e0bf94ff">
			<path class="st134" d="M103.2,98.1c3.3-0.4,6.6,0,9.9,0.1c-2.5,2.4-10-2-9.1,2.8c-1.1,4.7,1,6.6,6.3,5.7
				c-1.9,0.1-5.6,0.3-7.5,0.5C101.3,105.4,100.8,100,103.2,98.1z"/>
		</g>
		<g id="_x23_eed3a4ff">
			<path class="st135" d="M30.2,99c5.1-0.5,8.6,6.8,4.3,10.3c-0.9-1.2-1.7-2.3-2.6-3.5c-0.1,4.8,1.8,9.7,0.6,14.4
				C28.4,114,28.4,106,30.2,99z"/>
		</g>
		<g id="_x23_ad9461ff">
			<path class="st136" d="M71.5,102.7c-5.6,3.5-6.7-9.2,0.2-3.5c4.7,4.1,10,6.3,16.5,4c-0.2,1.3-0.4,2.5-0.4,3.8
				C81.9,107.1,75.6,107.6,71.5,102.7z"/>
		</g>
		<g id="_x23_ebc692ff">
			<path class="st137" d="M215.7,101.7c1.8-3,5.1-3.4,5.3,0.4c0,3.9,0,7.9,0,11.8c-1.4,2.7-1.5,7.6-4.9,8.1
				c0.1-4.7,2.3-11.9,1.2-14.8C216.4,114.7,211.7,103.2,215.7,101.7z"/>
		</g>
		<g id="_x23_efd9b1ff">
			<path class="st138" d="M43.2,101.2c1-1.5,3.8-1.8,4.6,0.1c2,7.9,1.1,17-4,23.6c-3.4,1.2-1-3-0.6-4.7c0.8-3.4,1.8-6.7,1.8-10.2
				c-3.2-1-3.3,1.3-2.9,3.8c-2.4,2.9,0,14.5-5,10C35.8,115.9,37.6,107.1,43.2,101.2z"/>
		</g>
		<g id="_x23_d0ab79ff">
			<path class="st139" d="M58,101.8c-0.1-1.2,0.5-1.8,1.7-1.8c7.2-1.3,5.5,5.1,4.5,9.2C64.1,104.9,65.2,99.1,58,101.8z"/>
		</g>
		<g id="_x23_cca374ff">
			<path class="st140" d="M190.4,100c5.2-0.6,0.9,5.6-3.4,2.3c-0.1,3.4,0.3,6.8,0.5,10.2C185.4,108.1,183.9,100.2,190.4,100z"/>
		</g>
		<g id="_x23_ecd09fff">
			<path class="st141" d="M203.2,100.1c6.1-1.1,7.9,7.5,9.8,11.9c0,4.4,0.1,8.8-0.1,13.2c-4.1-3.5-3.3-10-5.7-14.6
				c-0.3,4.9,0.1,9.8,0.1,14.7C201.7,118.6,200.4,108.4,203.2,100.1z"/>
		</g>
		<g id="_x23_ebc997ff">
			<path class="st142" d="M52.3,101.2c3.7-1.5,3.7,6.1,0,4.6C49.8,104.6,49.8,102.4,52.3,101.2z"/>
		</g>
		<g id="_x23_e5b782ff">
			<path class="st143" d="M196.2,101.1c3.6-1.8,5.6,4.5,1.7,4.9C195,106.8,193.8,102.4,196.2,101.1z"/>
		</g>
		<g id="_x23_be9767ff">
			<path class="st144" d="M221,102.1c1.3,0.5,2.6,11.2,0,11.8C221,110,221,106,221,102.1z"/>
		</g>
		<g id="_x23_d0af80ff">
			<path class="st145" d="M178.8,104.5c2.7-1.2,6.9,0,4,3.3c-6.2,0.7-12.5-0.1-18.8,0.2c-0.8,4.6,7.5,0,9,2
				c2.4-0.1,13.5-1.1,9.3,2.9c-4.3-4.3-13.1-1.2-19.4-1.8c-0.5-1.4-0.7-2.9-0.3-4.3c6.5,0.1,12.9,0.5,19.4,0.2
				C182.7,104.6,180.3,104.9,178.8,104.5z"/>
		</g>
		<g id="_x23_f8dea7ff">
			<path class="st146" d="M24.9,105c0.6,2.8-0.8,6.4,1.1,9c1.9,7.4-5.4,0.8-6.7-2.3C17.4,107.9,23,107.1,24.9,105z"/>
		</g>
		<g id="_x23_9d814eff">
			<path class="st147" d="M162.8,105.1c5.3-0.1,10.6-0.2,15.9-0.6c1.6,0.3,4,0.1,3.2,2.4c-6.5,0.3-12.9-0.1-19.4-0.2
				C162.6,106.3,162.8,105.5,162.8,105.1z"/>
		</g>
		<g id="_x23_c3a47aff">
			<path class="st148" d="M31.9,105.8c0.9,1.2,1.7,2.3,2.6,3.5c0.3,2.5-0.4,17.1-2,10.9C33.7,115.5,31.8,110.6,31.9,105.8z"/>
		</g>
		<g id="_x23_eed7adff">
			<path class="st149" d="M51.7,112.2c-0.7-4.1,6.4-8,9.2-5c-0.1,7.9-6.4,14.3-13,17.9c1.2-2.8,1.4-6.4,4.2-8.1c1.3-1,2.8-2,3.1-3.7
				C53.8,113.2,51.9,114.2,51.7,112.2z"/>
		</g>
		<g id="_x23_ae9366ff">
			<path class="st150" d="M66.9,106c8.1-0.8,11.9,9.1,21,5c-1.8,1.9-5.9,0.8-0.8,3c-4.8-0.6-10.6,1.4-14.1-3
				C71.2,108.4,65.8,110.3,66.9,106z"/>
		</g>
		<g id="_x23_ebd39eff">
			<path class="st151" d="M190,105.9c2.8,0.6,5.5,1.6,7.9,3.1c0.4,2,2.6,5.8-1.1,4.3c-3.8-1.2-0.7,2.9,0.9,3.6
				c2.3,2.2,4.7,4.9,5.3,8.1C195.6,123.1,189.1,113.8,190,105.9z"/>
		</g>
		<g id="_x23_f5dba6ff">
			<path class="st152" d="M225.2,107.2c2.1-2.4,10.3,3.4,5.1,6.2c-1.3,1.3-6.7,7.8-6.4,2.5C224.8,113,224.9,110.1,225.2,107.2z"/>
		</g>
		<g id="_x23_b28a5eff">
			<path class="st153" d="M102.8,107.2c1.9-0.1,5.6-0.3,7.5-0.5c-0.6,11.1-0.1,22.1-0.4,33.2H109c-0.1-10.5,0.2-21.1-0.1-31.6
				C107.4,108,104.3,107.5,102.8,107.2z"/>
		</g>
		<g id="_x23_f4d9a6ff">
			<path class="st154" d="M110.3,106.7c3,10.9-2,24,2,34c7.9,4.8,5.3-8.4,6.5-12.1l1,0.2c0,0.5-0.1,1.5-0.1,1.9
				c0.7,2.2-2.5,8.2,0.3,9.2c0.5,0,1.5,0,2,0.1c5-0.1,11.4,1.5,13.9-4c-0.4,6.2,6.2,5,10.4,4.3c-1.9,5.8-8.3,8.1-13.7,9.3
				c-0.1,3.6-1.8,6.4-5.3,5.3c2.5-8.9-12.2-8-10.5,0.1c-4.1,0.9-4.6-2-3.9-6c-1.3-3.3-9.9,1.7-9.8-4.2c-2-5.3,6.1-2.1,6.9-5
				C110.2,128.9,109.8,117.8,110.3,106.7z"/>
		</g>
		<g id="_x23_d0b28dff">
			<path class="st155" d="M120.2,119.8c-4.6-5.3-1.1-18.2,5.8-11.9c-1.5,0.3-4.5,0.8-6,1.1c1.2,2.2-2.3,9.4,2,9
				c3.3,0.4,6.5,0.1,9.2-1.8C130.4,121.2,123.7,118.2,120.2,119.8z"/>
		</g>
		<g id="_x23_b07e4dff">
			<path class="st156" d="M120,109c1.5-0.3,4.5-0.8,6-1.1c4-0.8,7.6,5.5,5.2,8.3c-2.7,1.9-6,2.2-9.2,1.8c-0.5-5-1.2-9.7,5.4-8.9
				C125.5,109.1,121.8,109,120,109z"/>
		</g>
		<g id="_x23_855330ff">
			<path class="st157" d="M120,109c1.8,0,5.5,0.1,7.4,0.2c-6.6-0.8-5.9,3.9-5.4,8.9C117.7,118.4,121.2,111.2,120,109z"/>
		</g>
		<g id="_x23_c4a373ff">
			<path class="st158" d="M197.9,109c3.9,0.9,1.9,5.9-0.2,7.9c-1.7-0.7-4.7-4.8-0.9-3.6C200.5,114.9,198.4,111,197.9,109z"/>
		</g>
		<g id="_x23_c0ac89ff">
			<path class="st159" d="M42.2,113.8c-0.4-2.5-0.3-4.8,2.9-3.8c-0.1,3.5-1.1,6.8-1.8,10.2C42.9,118.6,42.4,115.4,42.2,113.8z"/>
		</g>
		<g id="_x23_a9865cff">
			<path class="st160" d="M162.9,111.1c6.2,0.6,15.1-2.5,19.4,1.8c-6.6,0.3-13.2,0-19.8,0.8C162.6,113.1,162.8,111.8,162.9,111.1z"
				/>
		</g>
		<g id="_x23_aa8456ff">
			<path class="st161" d="M207.2,110.6c2.4,4.6,1.6,11.1,5.7,14.6c0.2-4.4,0.1-8.8,0.1-13.2c2.3,2.6,0.8,9.4,0.8,13.8
				c-3.3-0.3-5,4-6.6-0.4C207.3,120.4,206.9,115.5,207.2,110.6z"/>
		</g>
		<g id="_x23_bfa47eff">
			<path class="st162" d="M52.1,117c-0.2-1.3-2.3-5.1-0.4-4.8c0.2,2,2.2,1,3.5,1.1C54.9,115,53.4,116,52.1,117z"/>
		</g>
		<g id="_x23_b79666ff">
			<path class="st163" d="M162.9,128.1c-1.3-4.7,0.7-9.6-0.4-14.4c0.1,8.2,10.6,1.6,14.3,6.5c1.8,2.4,6.8,2,6.3,5.8
				c-6.7,2.4-8.3-7.9-15.1-5.1C162.8,119.8,161.1,122.2,162.9,128.1z"/>
		</g>
		<g id="_x23_af9467ff">
			<path class="st164" d="M71.5,122.3c4-4.7,9.9-4.5,15.6-4.1c-0.8,1.1,0,2.1,0.7,3c-6-0.9-11.7,0.2-16.2,4.5
				C64.8,131.4,65.9,118.7,71.5,122.3z"/>
		</g>
		<g id="_x23_d5b78cff">
			<path class="st165" d="M139,119.8c2.1,0.8,4.1,1.9,6.1,3.1c0,0.5,0.1,1.5,0.1,2C143,123.4,140.4,122.2,139,119.8z"/>
		</g>
		<g id="_x23_a2733bff">
			<path class="st166" d="M145,121.9c6.7,3.9,5.4,13,4.4,19.4c-1.7,6.3-8.4,8.7-13.8,11.2c0.3,3.4-4.9,4.9-3.8,7.6
				c0.3,6.9,0.3,13.9,0.2,20.9c-5.2-2.6-0.1-15.1-2.1-21c-2.6,1.3-12.1-3.3-8,5c-2.5,6.8,6.5,9.7,5.1,16.1c-3-0.4-2.6-4.7-4.9-6.3
				c-5.1-3.9,2-14.7-6.2-15.3c-0.3-1.6-0.6-3.3,0.8-4.5c-1.6-8.1,13-9,10.5-0.1c3.6,1.2,5.2-1.7,5.3-5.3c5.4-1.2,11.8-3.6,13.7-9.3
				c0.2-0.5,0.7-1.6,0.9-2.2c1.2-4.4,1.4-9.9-2.1-13.3c0-0.5-0.1-1.5-0.1-2L145,121.9z"/>
		</g>
		<g id="_x23_d1b085ff">
			<path class="st167" d="M145.1,124.9c3.6,3.4,3.3,8.9,2.1,13.3C147,133.7,146.4,129.2,145.1,124.9z"/>
		</g>
		<g id="_x23_efca9cff">
			<path class="st168" d="M48.2,127.1c3.2-1.2,4,4.8,0.8,4.9C46.6,131.9,46.2,128.1,48.2,127.1z"/>
		</g>
		<g id="_x23_cfb48eff">
			<path class="st169" d="M119.9,127.8c3.2-2.5,7.8-0.1,11.4-0.1C127.4,127.8,123.7,128,119.9,127.8z"/>
		</g>
		<g id="_x23_e6b582ff">
			<path class="st170" d="M200.2,127.1c3.6-1.8,5.6,4.5,1.7,4.9C199,132.8,197.8,128.4,200.2,127.1z"/>
		</g>
		<g id="_x23_ab966dff">
			<path class="st171" d="M66.8,130.9c3.2-7.1,15-0.8,21-2.9c0,1.4,0.1,2.7,0.1,4.1C81,130.2,73.8,131.3,66.8,130.9z"/>
		</g>
		<g id="_x23_b87c3dff">
			<path class="st172" d="M118.8,128.6c0.3-0.2,0.8-0.6,1-0.8c3.8,0.1,7.6,0,11.4-0.1c2.9,1.5,7.2,4.9,4.7,8.3
				c-2.5,5.5-8.9,3.9-13.9,4c-1.8-2.8,3-11.2-2.2-11.2L118.8,128.6z"/>
		</g>
		<g id="_x23_ad9366ff">
			<path class="st173" d="M162.9,128.1c6.2,1.2,17.7-4,20.2,2.8c-6.7,0.4-13.4,0-20.1,0.2C163.2,130.1,163.3,129.1,162.9,128.1z"/>
		</g>
		<g id="_x23_e8cdaaff">
			<path class="st174" d="M56.3,129.3c6.3,3.5,2.8,15.2-0.5,21.6c-4.9,0.2-0.5-8.4-0.7-11.6C48.8,141.5,50.8,129.7,56.3,129.3z"/>
		</g>
		<g id="_x23_7e5329ff">
			<path class="st175" d="M119.8,128.8c5.2,0,0.4,8.4,2.2,11.2c-0.5,0-1.5-0.1-2-0.1c-0.1-3.1-0.2-6.1-0.3-9.2
				C119.8,130.3,119.8,129.3,119.8,128.8z"/>
		</g>
		<g id="_x23_f0cc9dff">
			<path class="st176" d="M192.3,129c5.2,0.1,10.5,6.9,5.5,11c-0.9-1-1.4-3.8-3.2-2.5c0.2,4.6,2.3,9.2,1,13.7
				C191.3,144.8,190,136.4,192.3,129z"/>
		</g>
		<g id="_x23_e8c49aff">
			<path class="st177" d="M32,130c2.5-1,7.1,1.3,3.8,3.8C33.3,137.1,31,132.5,32,130z"/>
		</g>
		<g id="_x23_eedcb3ff">
			<path class="st178" d="M40,130.8c7.1-0.9,11.8,12.8,11,20c-4.3,5.5-2.3-11.2-8-10.9c0,5.3,4.3,10.2,2.5,15.5
				c-3.3-3.1-6-7.8-6.5-12.4C38.8,138.9,39.2,134.9,40,130.8z"/>
		</g>
		<g id="_x23_eacc9aff">
			<path class="st179" d="M208.2,130.2c8.7,3.6,3.1,23.5-5.3,25.9c1.1-4.8,3.9-9.2,4.1-14.1c-5.6,0.9-2.4,10.3-6.9,13.3
				C197.9,145.9,200.9,136.3,208.2,130.2z"/>
		</g>
		<g id="_x23_ecbf8dff">
			<path class="st180" d="M215.2,130.1c4-1.9,4.7,4.5,0.8,3.9C213.9,134.1,213.2,131,215.2,130.1z"/>
		</g>
		<g id="_x23_c9a381ff">
			<path class="st181" d="M38.9,143c-1.6-1.8-2.1-9.5,1.1-12.2C39.2,134.9,38.8,138.9,38.9,143z"/>
		</g>
		<g id="_x23_bca078ff">
			<path class="st182" d="M120,140c-2.8-1,0.5-7-0.3-9.2C119.9,133.9,119.9,136.9,120,140z"/>
		</g>
		<g id="_x23_b7966bff">
			<path class="st183" d="M163.1,137.1c3.6-1.8-2.3-3.1-0.4-5.2c5,5.2,14,0.5,20.4,2.1C182.5,141.4,168.3,134.6,163.1,137.1z"/>
		</g>
		<g id="_x23_fbdda5ff">
			<path class="st184" d="M21.2,134.2c3.9-1.9,1.4,4.5,1.7,6.8C19.1,141.2,17.5,135.9,21.2,134.2z"/>
		</g>
		<g id="_x23_b6976bff">
			<path class="st185" d="M66.8,134.1c7-0.2,14.1-0.1,21.1-0.2c-1.1,1.7-4.2,1-0.8,3C80.8,135.6,69.7,140.9,66.8,134.1z"/>
		</g>
		<g id="_x23_edd2a7ff">
			<path class="st186" d="M27,134.9c2.8,0.2,7,1.5,8.1,4c0.5,2.9-0.2,4.5-3.3,3.3c0.7,2.1,2.4,3.5,3.9,5c2,2.2,4.5,4.6,4.4,7.8
				C32.8,151.2,27.2,143.4,27,134.9z"/>
		</g>
		<g id="_x23_ecc590ff">
			<path class="st187" d="M214.7,142.3c-1-5,4.2-7,8.4-7.4c0.8,8.3-5.6,17.2-13.1,20.2c1-3,2.7-6,5.3-8
				C218.9,144.7,220.4,141.1,214.7,142.3z"/>
		</g>
		<g id="_x23_c6976bff">
			<path class="st188" d="M194.5,137.5c1.8-1.2,2.3,1.5,3.2,2.5c-0.7,2.4,0.4,14.3-2.2,11.2C196.8,146.7,194.8,142.1,194.5,137.5z"
				/>
		</g>
		<g id="_x23_b09970ff">
			<path class="st189" d="M35,138.9c1.9,1.8,2,5.8,0.7,8.3c-1.5-1.5-3.2-2.9-3.9-5C34.8,143.4,35.6,141.8,35,138.9z"/>
		</g>
		<g id="_x23_ab9569ff">
			<path class="st190" d="M42.9,139.9c5.8-0.3,3.7,16.4,8,10.9c3.1,4.6-5.7,8.3-5.6,4.6C47.2,150.1,42.9,145.2,42.9,139.9z"/>
		</g>
		<g id="_x23_af925eff">
			<path class="st191" d="M66.9,140.1c6.8-0.4,13.6,0,20.4,0.1c0.2,0.9,0.3,1.9,0.5,2.9C81.3,141.5,69.7,146.9,66.9,140.1z"/>
		</g>
		<g id="_x23_e1b578ff">
			<path class="st192" d="M102.1,148.9c-0.4-5.2-1.8-12.4,6.9-9h0.9c-0.8,2.8-8.8-0.4-6.9,5c-0.1,5.9,8.5,0.9,9.8,4.2
				C110.2,149.1,104.8,149,102.1,148.9z"/>
		</g>
		<g id="_x23_b28f5cff">
			<path class="st193" d="M165.1,140.2c5.9-0.3,11.9-0.3,17.9-0.1c-0.5,7.4-14.7,0.6-19.9,3.1C163.7,142.1,164.4,141.2,165.1,140.2z
				"/>
		</g>
		<g id="_x23_bb9c60ff">
			<path class="st194" d="M215.2,147.1c-0.2-1.3-2.4-4.7-0.5-4.8C220.4,141.1,218.9,144.7,215.2,147.1z"/>
		</g>
		<g id="_x23_a68756ff">
			<path class="st195" d="M66.4,146.8c6.8-1.9,13.9-0.3,20.8-0.6c-0.3,0.4-0.9,1.3-1.2,1.7C79.6,147.2,72.3,149.9,66.4,146.8z"/>
		</g>
		<g id="_x23_a38855ff">
			<path class="st196" d="M163.2,145.9c6.3,1.2,17.2-2.7,19.8,2.1c-6.4,0-12.9,0.1-19.3-0.1C163.6,147.4,163.3,146.4,163.2,145.9z"
				/>
		</g>
		<g id="_x23_e9c592ff">
			<path class="st197" d="M64.8,147.1c0.4-0.1,1.1-0.3,1.5-0.3c6,3.1,13.2,0.4,19.6,1.1c3-0.8,2.8,5-0.1,4.4
				c-5.8-0.2-11.7-0.1-17.5-0.9C67.2,149.9,66.1,148.5,64.8,147.1z"/>
		</g>
		<g id="_x23_d5b07eff">
			<path class="st198" d="M162.6,152.2c-0.8-1.7-0.3-3.3,1.1-4.4c6.4,0.2,12.9,0.1,19.3,0.1c-3.7,4-17.3-2.7-19,2.9
				c6,0.3,12,0.2,18,0.3C175.6,152,169.1,151.9,162.6,152.2z"/>
		</g>
		<g id="_x23_b09463ff">
			<path class="st199" d="M68.4,151.4c5.8,0.8,11.7,0.7,17.5,0.9c0.6,1,1.3,1.9,1.8,2.9c-3.3,2-17.5-4.1-16,1.8
				c-1,0.3-2,0.6-3.1,0.9c-1-1.6-1.9-3.2-2.8-4.9C66.8,152.6,67.6,152,68.4,151.4z"/>
			<path class="st199" d="M182.1,151.2l0.7,0c1.5,0.7,3.9,0.6,4.4,2.6c-2.5-1.4-5.5,0.2-5.4,3.1c-0.4-0.3-1.4-1-1.8-1.3
				c-5.4-1.3-11.2-0.4-16.8-0.6c-0.1-0.7-0.4-2.1-0.6-2.8C169.1,151.9,175.6,152,182.1,151.2z"/>
		</g>
		<g id="_x23_efd6aaff">
			<path class="st200" d="M64,165.2c-4.9-2.4-3.1-11.3,1.9-12.2c0.9,1.6,1.8,3.3,2.8,4.9c0.7,1.2,1.3,2.5,1.7,3.8
				c-0.2,4.5-0.4,8.9-0.8,13.4c-1-1.6-1.9-3.3-2.6-5C68.8,165.2,66.4,158.5,64,165.2z"/>
		</g>
		<g id="_x23_efd0a2ff">
			<path class="st201" d="M181.8,156.9c-0.1-3,2.9-4.6,5.4-3.1c1.4,3.3,4.6,7.4,0.7,10.3c-5.7-4.4-5.2,1-4.7,6.1
				c-0.7,1.9-1.5,3.8-3,5.1C179.7,169.2,179.8,162.9,181.8,156.9z"/>
		</g>
		<g id="_x23_eecb9fff">
			<path class="st202" d="M56.2,154.1c3.2-1.1,4,4.8,0.8,4.9C54.6,158.9,54.2,155.1,56.2,154.1z"/>
		</g>
		<g id="_x23_e2bd87ff">
			<path class="st203" d="M192.2,154.1c3.6-1.8,5.6,4.5,1.7,4.9C191,159.8,189.8,155.4,192.2,154.1z"/>
		</g>
		<g id="_x23_f4d8a2ff">
			<path class="st204" d="M27,161c1.9-2.3,2.3-6.7,6.1-6.3c7.8,1.4,6.2,10.3-0.4,12.3C30,169.3,23.6,164.3,27,161z"/>
		</g>
		<g id="_x23_f2ddafff">
			<path class="st205" d="M71.8,156.9c-1.5-5.9,12.7,0.2,16-1.8c0.1,0.7,0.2,2.1,0.3,2.8c-1.8,6.5,10.6-0.8,6,8.1
				c-1.4,4,2.6,12.1-1.9,14.2c-4.3-6-10.1-11-17.4-13C73.7,163.8,73,160.3,71.8,156.9z"/>
		</g>
		<g id="_x23_f5dfb5ff">
			<path class="st206" d="M163.2,155c5.6,0.2,11.4-0.6,16.8,0.6c-0.8,1-1.6,2-2.2,3.1c-2,3.5-0.6,8.9-5.8,9.1
				c-5.1,2.7-9.5,6.5-12.7,11.4c-0.6,0.2-1.7,0.5-2.3,0.6c0-6.3,0-12.6,0.1-18.8C160.8,160.5,164.3,159.7,163.2,155z"/>
		</g>
		<g id="_x23_f5d8a6ff">
			<path class="st207" d="M218,167c-6.4-1.5-8-10.2-1.1-12.2C224.4,154.5,228.7,170,218,167z"/>
		</g>
		<g id="_x23_c7a875ff">
			<path class="st208" d="M88,157.9c1.5,2.5,4.5,2.4,7.2,3c-0.1,6.4-0.5,12.9,0,19.4c0.7-1.4,1.2-3,1.7-4.5
				c-2.7,4.1,2.4,9.3,3.2,4.2c0.9,0.3,1.8,0.6,2.6,0.9c-0.4,0.7-0.9,1.3-1.6,1.8c-2.7,0-5.4,0.3-6.6,3.1c-1.7-1.3-1.7-3.7-2.3-5.6
				c4.6-2.1,0.6-10.2,1.9-14.2C98.6,157.1,86.3,164.4,88,157.9z"/>
		</g>
		<g id="_x23_efd9b0ff">
			<path class="st209" d="M49,158.9c10,2.3,17.5,12.1,18,22.2c-2.8-1.5-3.8-5-5.8-7.4c-1.6-2.3-3.1-5.6-6.3-5.8
				c0.8,2.9,2.9,5.1,4.7,7.4c1.7,2.7,3.5,5.2,5.4,7.8C54.4,181,48.2,169.1,49,158.9z"/>
		</g>
		<g id="_x23_cda67aff">
			<path class="st210" d="M171.9,167.8c5.2-0.2,3.8-5.6,5.8-9.1c-1,4,0.4,9-2.2,12.4C175.2,169,174.2,167.6,171.9,167.8z"/>
		</g>
		<g id="_x23_ebc994ff">
			<path class="st211" d="M199.3,159.3c4.1-1,3.1,5.2,1.9,7.8c-2.6,6.6-7.4,15.2-15.2,15.9c1.1-6,8.8-9,9.1-15.2
				c-5.4,2.8-6.7,10.8-12.1,13.2C184.5,171.9,190.1,162.4,199.3,159.3z"/>
		</g>
		<g id="_x23_f4dbadff">
			<path class="st212" d="M96.8,160.6c2.8-0.9,5.7-0.3,8.5,0.1c2.9,8.3-4.5,12.4-5.3,19.3c-0.8,5.1-5.9-0.1-3.2-4.2
				C96.9,170.7,97.1,165.6,96.8,160.6z"/>
		</g>
		<g id="_x23_d5b881ff">
			<path class="st213" d="M107.8,160.8c1.4,0,4.1,0.1,5.5,0.1c-0.5,3.4,0.6,7.2-1,10.3c-0.9-2.9,1.9-9.7-3-10.4
				c0.3,3.9-0.1,7.7-1,11.4C108.1,168.4,108,164.6,107.8,160.8z"/>
		</g>
		<g id="_x23_f1dbaeff">
			<path class="st214" d="M115,160.9c0.2-0.3,0.7-1,1-1.4c8.2,0.6,1.1,11.4,6.2,15.3c2.3,1.6,1.8,5.8,4.9,6.3
				c1.3-6.4-7.7-9.3-5.1-16.1c-4.1-8.3,5.4-3.7,8-5c1.9,5.9-3.2,18.4,2.1,21c2.6-4.7,0.2-13.8,1.1-20c6.9,1.6-3.5,19.5,4.8,20.9
				c3.6-5.8-1.1-16.1,2.2-20.9c2.8,4.8-0.6,14.3,1.9,20.5c8.6,1.1-1.7-19.6,5.1-20.5c0.9,6.2-1.5,15.3,1.1,20
				c4.7-2.8,1.2-13.9,1.8-20.4c1.1,0.1,3.1-1.6,3.5,0.1c-0.1,7-0.6,14.1,0,21.1c-6.5,1.4-12,4.9-17.5,8.5c-4.9-0.3-9.9-0.5-14.8-0.1
				c-6.6,2.7-10.2-4.1-15.6-5.8c-1.4-0.7-2.9-1.2-4.3-1.7c0.7-0.5,1.2-1.1,1.6-1.8c0.8-3.5,3.1-6.2,5.6-8.8c1-3.6,1.3-7.4,1-11.4
				c4.9,0.6,2.1,7.4,3,10.4c-2.1,3-6.5,5.6-4.1,9.8C113.9,176.9,116.1,168.1,115,160.9z"/>
		</g>
		<g id="_x23_ccad7eff">
			<path class="st215" d="M131.8,160.1c1.5,0.1,3,0.3,4.5,0.5c1.8,5.1-3.9,17.6,1.7,19.4c0.1-6.4,0.2-12.9-0.2-19.4
				c1.4-0.3,2.8-0.6,4.2-0.8c0.1,7.2,0.2,14.4-0.1,21.6c-2.4-6.2,0.9-15.7-1.9-20.5c-3.3,4.8,1.4,15.2-2.2,20.9
				c-8.2-1.4,2.1-19.3-4.8-20.9c-0.9,6.2,1.5,15.3-1.1,20C132,174,132,167.1,131.8,160.1z"/>
		</g>
		<g id="_x23_967948ff">
			<path class="st216" d="M141.9,159.9c0.7,0.7,1.3,1.4,1.9,2.2c-1.4,6.1,3.3,14.7-2,19.4C142.1,174.3,142,167.1,141.9,159.9z"/>
		</g>
		<g id="_x23_d3b17eff">
			<path class="st217" d="M143.9,162.1c-0.6-3.1,2.6-1.8,4.4-1.4c-0.2,6.8-0.3,13.6-0.2,20.4c-2.5-4.7-0.1-13.8-1.1-20
				c-6.8,0.9,3.5,21.6-5.1,20.5C147.2,176.8,142.5,168.1,143.9,162.1z"/>
		</g>
		<g id="_x23_edc498ff">
			<path class="st218" d="M42.3,161.2c3.6-1.4,4.1,7.1,0,4.6C39.8,164.6,39.8,162.4,42.3,161.2z"/>
		</g>
		<g id="_x23_a28352ff">
			<path class="st219" d="M95.2,160.9c0.4-0.1,1.2-0.2,1.6-0.3c0.3,5,0.1,10.1,0,15.2c-0.4,1.5-0.9,3.1-1.7,4.5
				C94.7,173.8,95.1,167.4,95.2,160.9z"/>
		</g>
		<g id="_x23_9d8b5bff">
			<path class="st220" d="M105.3,160.7c0.6,0,1.9,0,2.5,0.1c0.2,3.8,0.3,7.6,0.4,11.4c-2.5,2.5-4.7,5.2-5.6,8.8
				c-0.9-0.3-1.8-0.6-2.6-0.9C100.8,173.1,108.2,169,105.3,160.7z"/>
		</g>
		<g id="_x23_967f4aff">
			<path class="st221" d="M113.2,160.8c0.4,0,1.3,0.1,1.7,0.1c1.2,7.2-1.1,16-6.9,20c-2.4-4.2,2-6.8,4.1-9.8
				C113.8,168,112.8,164.2,113.2,160.8z"/>
		</g>
		<g id="_x23_9a7f4fff">
			<path class="st222" d="M136.2,160.6c0.4,0,1.2,0,1.5,0c0.4,6.5,0.3,12.9,0.2,19.4C132.3,178.2,138,165.7,136.2,160.6z"/>
		</g>
		<g id="_x23_9a753fff">
			<path class="st223" d="M148.2,160.6c0.4,0,1.2,0,1.5,0c-0.5,6.5,2.9,17.5-1.8,20.4C148,174.2,148,167.4,148.2,160.6z"/>
		</g>
		<g id="_x23_d2ac7dff">
			<path class="st224" d="M153.2,160.7c2.6,6-1.2,14.8,1.7,19.3c3.4-3.9-1.3-14.6,2.1-18.9c-0.1,6.3-0.1,12.6-0.1,18.8
				c0.6-0.2,1.7-0.5,2.3-0.6c-1.2,2.3-2.4,4.7-3.8,6.9c-0.6-1.5-0.2-3.9-2.2-4.3C152.7,174.8,153.2,167.8,153.2,160.7z"/>
		</g>
		<g id="_x23_e8bb86ff">
			<path class="st225" d="M206.2,161.1c4.6-1.8,4.9,5.3,1,5.7C205.2,165.6,203.8,162.6,206.2,161.1z"/>
		</g>
		<g id="_x23_b89b71ff">
			<path class="st226" d="M64,165.2c2.4-6.7,4.8,0,3,4.9C66.1,168.4,65.5,166.5,64,165.2z"/>
		</g>
		<g id="_x23_d8ae87ff">
			<path class="st227" d="M70.4,161.7c2,4.5-1.7,11.2,2.6,14.3c2.3,0.7,3.4,6.1,0,5c-3.7,0.6-1.9-4-3.4-5.9
				C69.9,170.7,70.2,166.2,70.4,161.7z"/>
		</g>
		<g id="_x23_c1a674ff">
			<path class="st228" d="M183.2,170.2c-0.5-5.1-1-10.6,4.7-6.1C186.1,166,183.9,167.6,183.2,170.2z"/>
		</g>
		<g id="_x23_c5a071ff">
			<path class="st229" d="M38.8,171.9c-4.8-3.5,6.3-5.9,6.9-2.9C42.6,168.9,38.2,167.6,38.8,171.9z"/>
		</g>
		<g id="_x23_a2976fff">
			<path class="st230" d="M54.9,167.9c3.2,0.2,4.7,3.5,6.3,5.8c-0.4,0.4-1.2,1.2-1.6,1.6C57.8,173,55.6,170.8,54.9,167.9z"/>
		</g>
		<g id="_x23_e5bc87ff">
			<path class="st231" d="M205.3,168.1c4.2-1.8,8.8-0.1,6.1,4.2c-4.1,7-11.9,10.8-19.4,12.7c1-6.1,9.9-6.2,12.1-9.8
				C198.1,175.7,203.5,170.2,205.3,168.1z"/>
		</g>
		<g id="_x23_efd2a2ff">
			<path class="st232" d="M38.8,171.9c-0.6-4.2,3.8-3,6.9-2.9c1.5,1.6,2.6,3.4,3.6,5.4c-2,0.4-3.5-1.3-5.4-1.5
				c0.4,3,3.9,3.7,6.1,5.1c2.4,1.7,6.8,2.7,7,6.1C49.8,182.9,42.2,178.6,38.8,171.9z"/>
		</g>
		<g id="_x23_edd4a8ff">
			<path class="st233" d="M79.1,172c7.4,3.2,11.9,11.3,12.9,19c-2.4,0.1-4-2.3-5-4.1c-1.1-3.8-4-10.5-4.7-2.7
				C76.6,183.2,76.9,176,79.1,172z"/>
			<path class="st233" d="M106.9,196c-4.2,4.5-11.8-9.5-4.4-10.3c5.2,3.7,13.2,7,13.5,14.3c-2.7,0.4-4.3-1.8-5.9-3.5
				C108.6,194.4,106.5,191.2,106.9,196z"/>
		</g>
		<g id="_x23_e8ca99ff">
			<path class="st234" d="M170.2,172.4c5.1,1.1,3.4,10.8-1.9,12c-2.6,2.2-0.1-3.9-3.1-2.2c-0.6,4.3-3.6,8.1-7.3,9.9
				C159,184.2,163.3,176.4,170.2,172.4z"/>
		</g>
		<g id="_x23_b3996cff">
			<path class="st235" d="M43.9,172.9c1.9,0.2,3.5,1.9,5.4,1.5c1.6-0.3,0.4,2.6,0.7,3.6C47.8,176.6,44.3,175.9,43.9,172.9z"/>
		</g>
		<g id="_x23_f3c590ff">
			<path class="st236" d="M176.2,177.1c2-1.1,5.2,1.3,3.1,3.2C177.3,182.8,172.9,179,176.2,177.1z"/>
		</g>
		<g id="_x23_b49870ff">
			<path class="st237" d="M82.3,184.2c0.8-7.8,3.7-1.1,4.7,2.7C85.8,185.6,82.7,185.6,82.3,184.2z"/>
		</g>
		<g id="_x23_f3dea4ff">
			<path class="st238" d="M40,190c1.6-1.7-2-8.5,1.2-9.2c2.9,1.7,5.8,3.5,8.7,5.2C54.1,191.8,42.7,189.9,40,190z"/>
		</g>
		<g id="_x23_f6d7a1ff">
			<path class="st239" d="M206,183.1c5.2-4.6,4.8,2.6,5,6.9c-3.7-1-12,3-12.4-3.3C201.1,185.6,203.6,184.5,206,183.1z"/>
		</g>
		<g id="_x23_eecb98ff">
			<path class="st240" d="M160,198.1c2.9-8.8,13.5-15.4,22.4-14.5c2.5,9.9-11.6,17.8-20.5,17.4c1.7-3.3,5.5-4.7,8.5-6.8
				c2.1-1.3,5.1-2.2,4.8-5.3c-2.3,0.9-4.5,2.1-6.5,3.6C165.8,194.5,163.1,196.7,160,198.1z"/>
		</g>
		<g id="_x23_f0ddb0ff">
			<path class="st241" d="M66.9,184c9.6-1.7,18.3,4.8,23.5,12.4c-5.6,0.9-8.8-6.8-14.5-6.5c2.6,4.8,8.8,6.6,12.8,10.2
				C81.3,202.8,67.9,194,66.9,184z"/>
		</g>
		<g id="_x23_e9cf9fff">
			<path class="st242" d="M148.3,186.3c4.7-2,2,4.2,1.5,6.6c0.1,3.9-8.3,6.3-7.1,1c-2.6,2.2-3.8,6.1-7.7,6.3
				C133.7,192.5,142.5,188.9,148.3,186.3z"/>
		</g>
		<g id="_x23_e6c091ff">
			<path class="st243" d="M61.2,188.1c2.6-0.2,7.4-1.4,3.8,4.9C61.7,194.4,57.8,190.6,61.2,188.1z"/>
		</g>
		<g id="_x23_eab87dff">
			<path class="st244" d="M186.2,188.1c3.6-1.8,5.6,4.5,1.7,4.9C185,193.8,183.8,189.4,186.2,188.1z"/>
		</g>
		<g id="_x23_b69e69ff">
			<path class="st245" d="M168.7,192.6c2-1.5,4.2-2.7,6.5-3.6c0.3,3-2.7,4-4.8,5.3C169.9,193.9,169.1,193,168.7,192.6z"/>
		</g>
		<g id="_x23_a48e62ff">
			<path class="st246" d="M75.9,189.9c5.8-0.3,8.9,7.4,14.5,6.5c1.9-0.1-0.1,3.6-1.7,3.7C84.7,196.5,78.5,194.7,75.9,189.9z"/>
		</g>
		<g id="_x23_f1cea1ff">
			<path class="st247" d="M95.2,192.1c4.2-2.4,3.7,5.9,0,4.7C93.5,195.9,93.5,193.1,95.2,192.1z"/>
		</g>
		<g id="_x23_e6c48fff">
			<path class="st248" d="M153.2,192.1c3.1-1.5,5.4,3.1,2.6,4.8C152.9,197.5,150.3,194.1,153.2,192.1z"/>
		</g>
		<g id="_x23_caaa7bff">
			<path class="st249" d="M119,198c-3.6-7,2.4-4.7,5.3-4.7c-2.5,1-7.3,0.4-4.3,5.8c0.8,5.8-1.8,13,0.8,18.3c0.3-5.9,0-11.9,1.5-17.7
				c3.8,6.1-3.2,20.3,8.7,17.4c-1.4-7.3,3.2-17.3-1.5-23.5c-2-1.5,9.9-0.4,2.6,4.5c0.1,6.7,0,13.3-0.1,20c-9.4,3.5-10.2-4.9-9-12
				c-3.7,1.5,2.2,11.3-2.8,12.8C117.3,212.8,119.8,204.7,119,198z"/>
		</g>
		<g id="_x23_f5daadff">
			<path class="st250" d="M124.3,193.3c0.4-0.1,1.2-0.2,1.7-0.3c0.2,5.7-0.6,11.6,1.3,17.2c4.1-2.7,0.8-9,1.8-13.1
				c0.1-0.9,0.3-2.7,0.4-3.5c4.7,6.2,0.1,16.2,1.5,23.5c-11.9,2.9-4.8-11.2-8.7-17.4c-1.5,5.8-1.1,11.8-1.5,17.7
				c-2.6-5.3,0-12.5-0.8-18.3C117,193.7,121.7,194.2,124.3,193.3z"/>
		</g>
		<g id="_x23_c9a881ff">
			<path class="st251" d="M125.9,192.9c2.8,1.8,0.1,8.4,1.1,12c4.1,1.2-1.4-8,2-7.9c-1,4.1,2.2,10.4-1.8,13.1
				C125.3,204.6,126.1,198.7,125.9,192.9z"/>
		</g>
		<g id="_x23_b2905dff">
			<path class="st252" d="M238.1,203c3.9-3,6.1-10.9,11.9-9.2v10.8c-2.3,3.5-7.6,5.1-7.8,9.7c-2.5,1.8-3.5,6.3,0.6,6.4
				c2.6-1.8,4.8-4.2,7.2-6.3v2.9c-3.2,2.2-5.4,5.4,0,6v3c-3.3-3.2-5.6-1.7-5.3,2.8c-0.6-1.2-1.4-2.4-2.2-3.4
				c1.5-5.5-5.6,2.2-8.4,2.5c1.4,5.4,7,9,10.1,13.5c1.6,2.5,3.9-0.3,5.8-1v4.5c-2.1,0.8-4.4,0.3-6.5-0.1c-1-0.5-2.1-1-3.1-1.5
				l-0.5-0.7c-1.1-1.9-3-2.9-4.8-4c0.1-2-0.9-3.5-2.6-4.5c-16.1-3.8-34.1-0.1-50.9-1.8c7.3-3.4,16.8,1.1,23.7-4.7
				c1.4,0.1,2.9,0.3,4.3,0.7c4,4.8,10.6,2.6,16.1,2.8c3.6-0.1,1.1-4,1.5-6.2c2-0.5,7.1-1.3,4.7-4.2c-1.4-2-0.4-4.3,0.1-6.4
				C232.4,210,233.5,205.6,238.1,203 M239.9,203c0.2,2.7,3.7,4.1,6.1,4C246.2,203.8,242.7,202.3,239.9,203z"/>
		</g>
		<g id="_x23_f2d3a5ff">
			<path class="st253" d="M62.5,200.5c-5.2-3.7,5-7.8,7.7-4.5c-4.8,5.9,3.1,6.6,7.9,6c1.9,0.4,3.9,0.8,5.8,0.9
				c-0.3,1-0.9,1.8-1.8,2.3C75.3,205.5,68.2,204.5,62.5,200.5z"/>
		</g>
		<g id="_x23_e8bd85ff">
			<path class="st254" d="M181.4,195.3c2.5-1.2,10,0.1,8.3,4.3c-6.8,5-15.5,6.1-23.8,5.3c0.8-4,8.5-2.4,11.6-4
				C176.2,198,179.6,196.9,181.4,195.3z"/>
		</g>
		<g id="_x23_c7ae81ff">
			<path class="st255" d="M70.2,196c3.2,1.6,3.1,6.6,7.9,6C73.3,202.6,65.4,201.9,70.2,196z"/>
		</g>
		<g id="_x23_f0dbabff">
			<path class="st256" d="M92.9,202.7c1.4-6.4,10.7-2.7,15.6-2.4c2.8,1.8,7,2.9,7.6,6.7c-5.2-0.9-10.1-2.9-15.2-4.1
				c2.4,4.8,9.6,4.6,13.9,7.3c1.9,3.9-4.7,1.5-7.1,2.1C101.9,211,96.7,207.4,92.9,202.7z"/>
		</g>
		<g id="_x23_efce9bff">
			<path class="st257" d="M134.8,204.3c6.6-5,15.2-6.7,23.2-4.1c-2.7,9.2-14.4,13-23,11.8c0-0.5,0.1-1.5,0.1-2
				c4.7-2.4,11.2-2.5,14.8-6.1C147.3,199.9,135.3,211.4,134.8,204.3z"/>
		</g>
		<g id="_x23_ae9363ff">
			<path class="st258" d="M100.9,202.9c5.1,1.2,10,3.2,15.2,4.1c3.1,8-3.8,6.3-8.4,5.3c2.4-0.6,9,1.8,7.1-2.1
				C110.5,207.5,103.3,207.6,100.9,202.9z"/>
		</g>
		<g id="_x23_ac8f5cff">
			<path class="st259" d="M134.8,204.3c0.5,7.1,12.5-4.4,15-0.5c-3.6,3.6-10.1,3.8-14.8,6.1C134.6,208.5,132.8,203.7,134.8,204.3z"
				/>
		</g>
		<g id="_x23_e7c08fff">
			<path class="st260" d="M88.2,205.1c4.3-2,5.3,5.8,0.8,4.9C85.9,211.2,86.5,206.2,88.2,205.1z"/>
		</g>
		<g id="_x23_eabb87ff">
			<path class="st261" d="M160.2,205.1c4.3-2,5.4,5.8,0.8,4.9C157.9,211.2,158.5,206.2,160.2,205.1z"/>
		</g>
		<g id="_x23_eabf8cff">
			<path class="st262" d="M155.3,210.5c2,1.4,9.3,4.1,5,6.8c-7.2,2.4-17.5,3.4-23.5-2.1c4.3-0.3,8.6,0.2,12.9-0.3
				C149.7,211.6,153,211.5,155.3,210.5z"/>
		</g>
		<g id="_x23_e8cc9cff">
			<path class="st263" d="M93.3,211.2c3-1.1,7,0.1,7.1,3.6c4.6,0.2,9.2,0,13.8,0.2c-3.1,4.4-9.7,2.6-14.2,3.9
				c-2.9-0.3-11.9,0.3-10.8-4.8C90.3,213,91.7,211.9,93.3,211.2z"/>
		</g>
		<g id="_x23_dabb82ff">
			<path class="st264" d="M228,219.1c3,1.8,1.8-3.2,4-4.3c-0.5,2.1-1.5,4.4-0.1,6.4c2.4,3-2.7,3.8-4.7,4.2c-0.4,2.2,2.1,6.1-1.5,6.2
				c-5.5-0.2-12.1,2-16.1-2.8C214.8,224.4,220.4,216.4,228,219.1z"/>
		</g>
		<g id="_x23_f4daa3ff">
			<path class="st265" d="M107,222.1c3-0.5,6.1-3.5,9-2.2c-0.3,2,1.4,2.2,3,2.5c-0.7,3.4-4.3,5.7-7,7.8
				C109.3,228.5,106.7,225.4,107,222.1z"/>
		</g>
		<g id="_x23_f4db9fff">
			<path class="st266" d="M134.8,220.8c1.2-3.7,6,2,9.2,1.2c0.4,3.2-2.8,5.2-4.3,7.7c-3.2,0-5.4-3.9-7.4-6
				C128.4,220.7,134.9,223.2,134.8,220.8z"/>
		</g>
		<g id="_x23_e1c390ff">
			<path class="st267" d="M191,225.2c-0.4,3.4,3.2-1.1,5-1.1c3.1,1.3,6.2,2.7,9.3,3.9c-6.9,5.7-16.4,1.3-23.7,4.7
				c16.8,1.6,34.8-2,50.9,1.8c-21,1.2-42-0.1-62.9,0.8c-0.1-0.5-0.4-1.6-0.6-2.1C177,232.9,184.4,229.5,191,225.2z"/>
		</g>
		<g id="_x23_b49761ff">
			<path class="st268" d="M18,231.6c4.9,0.8,8.5-4.4,13.5-2.2c11.4,6.2,25.5-0.9,37.7,3.2c-23.1,0.9-46.2,0.2-69.2,0.4v-1.9
				C5.9,231.9,12,231.1,18,231.6z"/>
		</g>
		<g id="_x23_e4c797ff">
			<path class="st269" d="M69.2,232.6c3.2,0.3,12.6-2.1,11.2,2.6c-26.8-0.4-53.6-0.1-80.4-0.2v-2C23.1,232.8,46.2,233.5,69.2,232.6z
				"/>
		</g>
		<g id="_x23_76572fff">
			<path class="st270" d="M0,235c26.8,0.1,53.6-0.2,80.4,0.2c0.3,1.6,0.6,3.1,0.8,4.7l-0.9,0.1c-0.5-0.9-1-1.8-1.6-2.6
				c-15.8,0.3-31.7,0.5-47.5,0c-0.5,0.8-1,1.7-1.4,2.6L29,240c1-4.2-2.9-3.3-3.3,0.1L25,240c1.2-5.3-3-0.4-5.4-2.5
				c-1.3-0.8-1.1,1.9-1.7,2.6h-0.7c-0.1-3.9-8.1-4.3-7.4-0.2c-0.5,0-1.4,0-1.8,0c0.9-2.9-3.8-2.9-3.1,0l-0.9,0c0.8-3.4-3.8-3.4-3,0
				H0V235z"/>
		</g>
		<g id="_x23_775a33ff">
			<path class="st271" d="M169.6,235.3c21-0.9,42,0.4,62.9-0.8c1.7,1,2.6,2.5,2.6,4.5c-1.4,1.2-3,1.8-4.8,1c-1.3-4.9-7-1.4-10.6-2.6
				c-2-0.8-1.6,1.2-1.8,2.5l-0.9,0c0.5-4-10.4-3.8-11.2,0H205c0.9-4.7-4.6-1.8-7.4-2.4c-2,0-4.7-0.5-4.8,2.4l-0.8,0
				c0.5-2.4-0.9-3-3-2.5c-4.3,0.9-11.5-2.3-13.1,2.5l-0.7,0C173.9,237.4,169.6,238.8,169.6,235.3z"/>
		</g>
		<g id="_x23_bca17aff">
			<path class="st272" d="M1,239.9c-0.9-3.4,3.8-3.5,3,0C3.2,239.9,1.8,239.9,1,239.9z"/>
		</g>
		<g id="_x23_c09d77ff">
			<path class="st273" d="M9.8,239.9c-0.7-4.1,7.3-3.7,7.4,0.2C14.7,240.3,12.3,240.1,9.8,239.9z"/>
		</g>
		<g id="_x23_c79f7dff">
			<path class="st274" d="M17.9,240.1c0.6-0.7,0.4-3.4,1.7-2.6c2.4,2.1,6.6-2.8,5.4,2.5C22.6,240.1,20.2,240.3,17.9,240.1z"/>
		</g>
		<g id="_x23_b68f6cff">
			<path class="st275" d="M25.8,240.1c0.4-3.4,4.2-4.3,3.3-0.1C28,240.3,26.9,240.2,25.8,240.1z"/>
		</g>
		<g id="_x23_bb9774ff">
			<path class="st276" d="M31.2,237.3c15.8,0.5,31.7,0.3,47.5,0c0.6,0.9,1.1,1.7,1.6,2.6c-16.8,0.6-33.7,0.7-50.5-0.1
				C30.2,239,30.7,238.1,31.2,237.3z"/>
		</g>
		<g id="_x23_bb9b7dff">
			<path class="st277" d="M175.9,239.9c1.6-4.8,8.8-1.6,13.1-2.5c2.1-0.4,3.5,0.1,3,2.5C186.6,239.9,181.3,240.2,175.9,239.9z"/>
		</g>
		<g id="_x23_be9f7aff">
			<path class="st278" d="M192.8,239.9c0.1-2.8,2.8-2.3,4.8-2.4c2.7,0.6,8.3-2.3,7.4,2.4C200.9,240,196.9,239.9,192.8,239.9z"/>
		</g>
		<g id="_x23_bc9b76ff">
			<path class="st279" d="M205.8,239.9c0.9-3.7,11.7-4,11.2,0C213.3,240,209.6,240.1,205.8,239.9z"/>
		</g>
		<g id="_x23_c09e76ff">
			<path class="st280" d="M217.9,239.9c0.2-1.3-0.2-3.4,1.8-2.5c3.6,1.2,9.4-2.3,10.6,2.6C226.2,240,222,239.9,217.9,239.9z"/>
		</g>
		<g id="_x23_d4b790ff">
			<path class="st281" d="M4.9,239.9c-0.8-2.8,4-2.8,3.1,0C7.2,239.9,5.7,239.9,4.9,239.9z"/>
		</g>
		<g id="_x23_834d1fff">
			<path class="st282" d="M157.9,242.1c5.6-2.2,11.1-4.4,17.3-2.3l0.7,0c5.4,0.3,10.8,0.1,16.1,0l0.8,0c4.1,0.1,8.1,0.1,12.2,0h0.8
				c3.8,0.1,7.5,0.1,11.2,0l0.9,0c4.1,0,8.2,0,12.4,0.1c1.8,0.8,3.4,0.2,4.8-1c1.8,1.1,3.8,2.1,4.8,4c-26.2,0.8-53-1.5-78.9,1
				c-0.3,0-0.9,0.1-1.2,0.1C159.2,243.4,158.5,242.8,157.9,242.1z"/>
		</g>
		<g id="_x23_824c1fff">
			<path class="st283" d="M81.2,239.9c4.2-1,8.1,1.1,11.9,2.5c-5.1,0.5-10.2,0.9-15.3,1.3h-0.8c-25.7-1.4-51.4-0.2-77.1-0.6v-3.1h1
				c0.7,0,2.2,0,3,0l0.9,0c0.8,0,2.3,0,3.1,0c0.5,0,1.4,0,1.8,0c2.5,0.1,4.9,0.4,7.4,0.2h0.7c2.4,0.2,4.7-0.1,7.1-0.1l0.8,0.1
				c1.1,0.2,2.2,0.2,3.3-0.1l0.8-0.1c16.8,0.8,33.8,0.6,50.5,0.1L81.2,239.9z"/>
		</g>
		<g id="_x23_f0cd94ff">
			<path class="st284" d="M114.9,239.1c6.7,0.8,13.5,1.1,20.2,0.1c-2,4.8-9.9,2.2-14,3.9c2.5,5.2,10.8-1.1,15.1-0.1
				c-0.1,2.2-3.1,1.6-3.3,3.7c3.3-0.9,5.5,1.4,7.6,3.3h-14.4c3-7.6-14-0.7-14.3-8c2.7,0.8,5.4,1.9,8.2,1
				C118.9,241,114.7,242.1,114.9,239.1z"/>
		</g>
		<g id="_x23_a67841ff">
			<path class="st285" d="M93.2,242.3c1.1,0.2,2.1,0.4,3.2,0.7c-3.2,5.1-13.2-1.2-18.5,0.7C83,243.2,88.1,242.8,93.2,242.3z"/>
		</g>
		<g id="_x23_b88c52ff">
			<path class="st286" d="M140,243.1c6,1.4,12-0.1,17.9-1c0.6,0.6,1.3,1.3,1.9,1.9c-1.5,0-3,0-2.9,1.9
				C151.7,243.7,142.2,247.5,140,243.1z"/>
		</g>
		<g id="_x23_ab7645ff">
			<path class="st287" d="M0,243c25.7,0.4,51.5-0.8,77.1,0.6c-7.4,0.3-14.9,0.4-22.3,0.6c-0.6,0-1.9,0-2.6,0
				c-17.4,0.3-34.8,0.4-52.2-0.2V243z"/>
		</g>
		<g id="_x23_cfa36cff">
			<path class="st288" d="M96.4,243c4.9,0.7,9.8,0.6,14.7,0.1c0.3,3.1-3.9,2-6,2.9c-2,1.2-4,2.5-5.7,4.1h-8.7
				c-4.1-4.8-12.1-4.9-16.2,0h-4.4c1.9-9.5-10.4-2.1-15.3-5.8c7.5-0.1,14.9-0.3,22.3-0.6h0.8C83.1,241.8,93.1,248,96.4,243z"/>
		</g>
		<g id="_x23_ab7746ff">
			<path class="st289" d="M161,244c25.9-2.5,52.7-0.2,78.9-1l0.5,0.7C213.9,244.9,187.5,244.2,161,244z"/>
		</g>
		<g id="_x23_d4a66fff">
			<path class="st290" d="M0,244c17.4,0.6,34.8,0.6,52.2,0.2c-6.6-1-8.4,1.4-5,5.8h-8.8c-4-5.5-10.6-4-15.1,0h-9
				c-3.4-4.8-8.9-5.2-14.4-5V244z"/>
		</g>
		<g id="_x23_ecc48dff">
			<path class="st291" d="M52.2,244.2c0.6,0,1.9,0,2.6,0c4.9,3.7,17.3-3.7,15.3,5.8H47.3C43.8,245.6,45.6,243.2,52.2,244.2z"/>
		</g>
		<g id="_x23_d5a870ff">
			<path class="st292" d="M156.9,246c-0.2-1.9,1.4-2,2.9-1.9c0.3,0,0.9,0,1.2-0.1c26.5,0.2,52.9,0.9,79.4-0.3c1,0.5,2.1,1,3.1,1.5
				c-6.5,0.7-13.1,0.6-19.6-0.1c0,1.7,0.4,3.4,0.8,5h-9.1c-3.5-4.9-9.6-4.7-13.2,0h-11.3c0-7.2-7.3-3.7-12-4.7
				c2.1,4.1-4.9,3.7-2.5-0.4c-2.9,1.4-5.8,1.6-8.8,0.2C164.5,247.1,160.7,246.9,156.9,246z"/>
		</g>
		<g id="_x23_f2cf9bff">
			<path class="st293" d="M0,245c5.5-0.2,11,0.2,14.4,5H0V245z"/>
		</g>
		<g id="_x23_eec993ff">
			<path class="st294" d="M156.9,246c3.8,0.9,7.6,1.1,11-0.9c2.9,1.4,5.9,1.3,8.8-0.2c-2.4,4.1,4.6,4.5,2.5,0.4
				c4.7,1.1,12-2.5,12,4.7h-39.7C153.1,248.4,155,247.1,156.9,246z"/>
		</g>
		<g id="_x23_ecc593ff">
			<path class="st295" d="M223.9,245c6.5,0.8,13.1,0.8,19.6,0.1c2.1,0.3,4.4,0.9,6.5,0.1v4.8h-25.2
				C224.3,248.4,223.9,246.7,223.9,245z"/>
		</g>
		<g id="_x23_f7d89eff">
			<path class="st296" d="M23.4,250c4.5-4,11.1-5.5,15.1,0H23.4z"/>
		</g>
		<g id="_x23_f7cf98ff">
			<path class="st297" d="M74.5,250c4.1-4.9,12.1-4.8,16.2,0H74.5z"/>
		</g>
		<g id="_x23_f7d59eff">
			<path class="st298" d="M99.3,250c1.7-1.6,3.7-2.8,5.7-4.1c3.8,0,8.4,0.6,10.6,4.1H99.3z"/>
		</g>
		<g id="_x23_f8d599ff">
			<path class="st299" d="M202.5,250c3.5-4.7,9.7-4.9,13.2,0H202.5z"/>
		</g>
	</g>
</g>
</svg>
