<?xml version="1.0" encoding="utf-8"?>
<!-- Generator: Adobe Illustrator 26.0.3, SVG Export Plug-In . SVG Version: 6.00 Build 0)  -->
<svg version="1.1" id="Layer_1" xmlns="http://www.w3.org/2000/svg" xmlns:xlink="http://www.w3.org/1999/xlink" x="0px" y="0px"
	 viewBox="0 0 250 250" style="enable-background:new 0 0 250 250;" xml:space="preserve">
<style type="text/css">
	.st0{fill:#FFFFFF;}
	.st1{fill:#8C0000;}
	.st2{fill:#C7C7C7;}
	.st3{fill:#E2DFDD;}
	.st4{fill:#BA9484;}
	.st5{fill:#665550;}
</style>
<g id="_x23_ffffffff">
	<path class="st0" d="M174.8,110.8c4.4,4.1,7.7,9.3,11.6,14c-4,0.7-8.1,0.5-12.2,0.5C174.5,120.4,174.7,115.6,174.8,110.8z"/>
	<path class="st0" d="M73.6,112.5c0.4-0.1,1.3-0.2,1.7-0.2c0,4.3,0.1,8.7,1.1,12.9c-4.1,0-8.2,0.1-12.3-0.1
		C67,120.7,70.6,116.8,73.6,112.5z"/>
	<path class="st0" d="M45.1,123.6c0.7-0.2,2-0.6,2.6-0.9c0.9,1,1.8,2,2.7,3.1c-1.3,0.7-2.6,1.4-3.9,2
		C46.1,126.4,45.6,125,45.1,123.6z"/>
	<path class="st0" d="M200.2,125.9c1-1.2,2.1-2.3,3.1-3.4c0.6,0.5,1.7,1.6,2.2,2.1c-0.5,0.9-1.1,1.8-1.7,2.6
		C202.6,126.9,201.4,126.3,200.2,125.9z"/>
	<path class="st0" d="M47,132.6c2.6,0,4.6-1.9,7.1-2.1c2.4,0.9,4.3,2.9,5.3,5.2c0.2,3.3,0.2,6.7,0.3,10c-1.9,0.2-3.8,0.4-5.7,0.7
		c-0.5-1.8-1-3.5-1.5-5.3c-1.7,0-3.4,0-5.1,0c-0.7,1.8-1.5,3.7-2.2,5.5c-1.6-0.3-3.2-0.7-4.8-1c1-1.6,2.1-3.1,2.9-4.8
		c0.5-2.2-0.6-4.3-1-6.4C43.7,133.6,45.2,132.5,47,132.6z"/>
	<path class="st0" d="M80.5,131.4c2.4,0.7,3.9,3.3,4.8,5.5c-0.1,2-0.3,4-0.6,6c-1.8-0.6-3.6-1.3-5-2.5c-2.4-2-5.7-2.3-8.7-2.8
		c-0.6,2-1.2,4.1-1.7,6.1c-1.8,0.1-3.6,0.1-5.4,0.2c0.1-4,0.3-8,0.7-12C69.9,131.8,75.2,131.5,80.5,131.4z"/>
	<path class="st0" d="M93.1,131.6c2.9-0.1,5.7-0.2,8.6-0.4c1.3,6,2.5,12.1,3.3,18.2c-1.9,0.6-3.8,1.3-5.7,2c-0.7-2-1.3-4.1-1.9-6.2
		c-0.4,0.1-1.3,0.2-1.7,0.3c-0.2,1.5-0.4,3.1-0.5,4.6c-2.3,0.6-4.6,1.2-6.9,1.8c0.2-2.3,0.5-4.6,0.7-6.9c2.5-0.8,5.1-1.7,7.6-2.5
		c-2.1-1.2-4.1-2.5-6.2-3.6C91.4,136.5,92.3,134.1,93.1,131.6z"/>
	<path class="st0" d="M137.3,130.4c8.4,0,16.8-0.1,25.1,0.1c-0.2,2.1-0.5,4.2-0.8,6.3c-2.9,0.2-5.9,0.4-8.8,0.6
		c-0.4,4.4-0.2,8.8,0.1,13.2c-2.2-0.2-4.4-0.4-6.6-0.6c0-3.8-0.1-7.6,0-11.4c-3-0.6-6-1-9.1-1C137.3,135.2,137.3,132.8,137.3,130.4z
		"/>
	<path class="st0" d="M166.6,130.5c3.2,0.1,6.5,0.1,9.7,0.1c0.1,0.6,0.3,1.8,0.4,2.4c0.6,3.3,1,6.6,1.5,9.9c-4.4-0.2-8.7-0.6-13-1.3
		c0-0.7,0-2.1,0-2.8C165.2,136,165.9,133.2,166.6,130.5z"/>
	<path class="st0" d="M186.6,130.7c1.8-0.1,3.6-0.1,5.5,0c2.6,3.7,4.3,7.9,6.2,12c0.2,1.1,0.5,2.2,0.7,3.3
		c-3.4-0.4-6.9-0.8-10.3-1.3c-0.4,3.3-0.8,6.7-0.7,10.1c-0.1-0.2-0.3-0.6-0.5-0.8c0.1-4.6,0.4-9.3-0.3-13.9
		C186.5,136.9,186.4,133.8,186.6,130.7z"/>
	<path class="st0" d="M203.5,133c2.5-1,5-2.3,7.8-2.4c-1.1,3.3-4.6,5.6-3.9,9.4c-0.2,2.9,2.4,4.7,4,6.8c-1.3,1.4-2.6,2.8-3.6,4.4
		c-0.8,2.2-0.3,4.7-0.2,7c0.1,0.6,0.2,1.7,0.2,2.3c-6.3-2.6-13.1-3.4-19.7-4.7l0.1-0.3c0.4-1.4,0.8-2.7,1.2-4.1
		c5.3,2.3,10.7,4.2,16.3,5.5c-0.2-0.5-0.7-1.4-0.9-1.9c1.6-2.8,0.1-6,0-9C204.5,141.6,203.6,137.3,203.5,133z"/>
	<path class="st0" d="M113,131.9c5.7-0.1,11.8-1.4,17.2,0.9c4.4,3.2,3.7,9.5,4.2,14.4c-0.9,1.3-2,2.5-3.1,3.6
		c-5.9-1.6-12.1-1.4-18.1-1C113,143.8,113,137.8,113,131.9 M119.8,138.4c0,2.3-0.1,4.6,0,7c2.2,0.2,4.5,0.1,6.7,0.1
		c0.1-2.3,0.1-4.7,0.1-7C124.3,138.3,122,138.3,119.8,138.4z"/>
	<path class="st0" d="M29.9,139.6c0.6-1.3,1.3-2.7,2.2-3.8c1.8-0.1,3.6,0.1,5.4,0.2c-0.8,2-1.3,4.5-3.4,5.6
		C32.6,141,31.3,140.2,29.9,139.6z"/>
	<path class="st0" d="M212.6,136.7c2.4-0.6,4.9-0.9,7.4-0.8c0,2.8-1.2,5.2-4,6.2C214.9,140.3,213.8,138.5,212.6,136.7z"/>
	<path class="st0" d="M76.8,147.6c2.8-1.1,5.7-1.9,8.7-1.6c-1.2,4-3.9,7.8-8,9.1c-2.5,0.5-5.1,0.5-7.6,0.5c-2.3-0.1-4.5-0.2-6.8-0.2
		c0.1-3.2,0.1-6.4,0.2-9.6c0.3,1.4,0.6,2.9,0.8,4.3C68.3,149.1,72.6,148.6,76.8,147.6z"/>
	<path class="st0" d="M163.4,145.4c2.7,0.3,5.3,0.6,7.9,1.1c0,1.1,0,2.3,0,3.4c-0.6,0.9-1.2,1.7-1.7,2.6c-1.7-0.3-3.4-0.6-5.2-0.8
		c-0.3-1.7-0.6-3.4-0.9-5.1L163.4,145.4z"/>
	<path class="st0" d="M173.4,147c2.5,0.7,4.9,1.5,7.3,2.3c0.5,1.8,0.9,3.7,1.4,5.5c-3.2-0.8-6.9-1.4-8.6-4.8
		C173.6,149.3,173.5,147.8,173.4,147z"/>
	<path class="st0" d="M31.2,155.5c1.9-1.2,3.7-2.6,5.6-3.9c0.6,1.6,1.2,3.2,1.9,4.8C36.2,156.4,33.6,156.4,31.2,155.5z"/>
	<path class="st0" d="M211.6,155.3c1.2-1,2.3-2.1,3.6-3c1.3,1,2.4,2.2,3.5,3.4l0.5,0.6C216.7,156.5,214.1,156.4,211.6,155.3z"/>
	<path class="st0" d="M30.8,169.9c0.9-2.6,3-3.9,5.7-3.9c0,1.2,0,2.4,0,3.6C34.7,169.8,32.8,169.9,30.8,169.9z"/>
	<path class="st0" d="M214.3,166c1.4,0.3,2.8,0.6,4.2,1c0.1,0.7,0.3,2,0.4,2.7c-1.3,0.1-2.7,0.2-4,0.4l-1.3,0.1
		C213.8,168.8,214.1,167.4,214.3,166z"/>
</g>
<g id="_x23_000000ff">
	<path d="M106.4,5.4c17.5-2.2,35.8-1.8,52.8,3.4c21.2,6.1,40.6,18.2,55.5,34.5c23.4,25,35,60.5,31.2,94.4
		c-2.7,27-14.8,52.9-33.9,72.2c-22.9,23.8-56,37.4-89,36.5C84.9,246.2,47.6,226.3,26,195C16.5,181.5,9.8,166,6.4,149.9
		C3.8,137.8,4,125.3,4.6,113C7.1,86.4,19,60.8,37.5,41.5C55.7,22.3,80.3,9.4,106.4,5.4 M116.5,8.7c0,8.8,1.7,17.4,2.8,26.1
		c3.8,0.8,8.1,1.6,11.7-0.6c1.6-8,1.6-16.3,2.6-24.5C127.9,9.4,122.2,8.6,116.5,8.7 M98.3,17.2C82.7,21.1,68,28.5,55.5,38.5
		c-23,18.3-38.2,46.2-41,75.5c-0.3,8.2-0.6,16.5,0.3,24.7c0.5,0,1.4-0.1,1.9-0.2c0.1-2.2-0.2-4.3-0.1-6.5c1.4-4.4,4.1-8.5,8.8-9.8
		c1.2-4.4,2.5-8.9,5.6-12.3c3-3.8,7.1-6.4,11-9.1c0.6-0.2,1.7-0.5,2.3-0.6c1.7-5.8,3.5-11.8,7.4-16.6C56,77.9,63,74.7,70,74.1
		c3.4-0.2,5.9-2.7,8.8-4.2c6.4-3.7,13.5-5.8,20.2-8.7c0.6-3.3,1.2-7,3.9-9.3c2.9-2.5,6.1-4.5,9.2-6.6c0.2-2.7,0.1-5.4,0.3-8.1
		c2.5-7.1,0.2-14.8-0.1-22C107.7,15.2,102.9,15.9,98.3,17.2 M137.6,15.2c0.3,6-1.4,11.8-1.1,17.7c1.9,4,2,8.4,1.8,12.8l0.5,0
		c3.5,2.6,7.5,4.7,10.2,8.2c1.4,2.3,1.9,5,2.7,7.5c8,3.1,16.2,5.8,23.3,10.6c3.8,2.9,9,1.9,13.3,3.9c9,3.4,14.7,12.2,16.9,21.2
		c0.4,3.3,4.2,4.2,6.6,5.8c3.7,2.7,7.4,5.7,9.7,9.8c1.8,2.8,2.3,6,3.7,9c2.5,1.9,5.3,3.5,7.1,6.2c1.1,3.5,1.4,7.2,1.1,10.8
		c0.9,0.4,1.8,0.7,2.7,1.1c0.1-2.6,0.6-5.3,0.2-7.9c1.8-24.6-5.4-49.5-19.4-69.8c-14.8-21.1-36.8-37.2-61.7-44
		C149.5,16.4,143.6,15,137.6,15.2 M124.1,50.9c2.2-1.8,4.4-3.5,6.5-5.5c-3.9,0.4-7.8-0.1-11.3-1.9C118.7,47,121.4,49.1,124.1,50.9
		 M115.5,48.5c-3.3,1.5-6.3,3.7-9.1,5.9c-3.1,2.5-3.4,6.9-3.8,10.5c-0.2,7.6-0.3,15.6,2.5,22.8c4.9,7.5,8.9,15.6,14.3,22.7
		c0.3-7.2,0.7-14.5-0.6-21.7c0-2.5-0.1-4.9-0.2-7.4c-2.9-1.4-5.7-2.9-8.6-4.4c0-0.8,0.1-2.2,0.1-3c2.3,0.6,4.5,1.2,6.8,1.6
		c1.7,0.9,3.4,1.8,5.1,2.7c0.2,3.4,0.2,6.8,0.4,10.2c1.8,0.1,3.5,0.2,5.3,0.3c0.6-6.6,1.1-13.5-1.1-19.9c-0.4-0.7-1.1-2-1.5-2.6
		c-0.1-2.4-0.3-4.7-0.5-7c-2.6,1-5.2,1.9-7.9,2.7c2.7-2.1,5.3-5.3,8.9-5.4c7,2.5,13.4,6.3,20.1,9.4c-0.2,0.6-0.5,1.8-0.7,2.3
		c-4.9,2.1-9.6,4.8-14.1,7.6c3.2-0.7,6.4-1.4,9.6-1.9c-0.9,1.9-2.1,3.6-3.3,5.3c-1.8,0.6-3.6,1.3-5.4,2.1l-0.1-0.8
		c-1.1,9.5,0,19.1-0.2,28.6c3.4-8.2,6.1-16.6,8.9-25c0.8,1.1,1.6,2.2,2.4,3.2c1.1-0.5,2.2-1.1,3.2-1.6c0.6-4.5,1.6-9,0.8-13.6
		c-0.1-1.6-0.3-3.2-0.4-4.7l0.7-0.5c0.3-3.9-0.3-8.2-2.8-11.4c-3-2.9-6.6-5.4-10.5-7c-3.3,0.2-5.6,3.7-8.9,4
		c-1.9-0.5-3.6-1.5-5.4-2.4C118.9,48.7,117.2,47.8,115.5,48.5 M152,65.9c0,3.1-0.8,7,2.1,9c4.3,3.2,8.4,7.4,14,8.1
		c5.7,9.5,16.2,14.5,26.7,16.3c2.3,0.5,4.7,0.4,7.1,0.5c-0.5-2-1.1-4-2-5.8c-2.1-7.1-8.6-13.1-15.8-14.6c-4.2-2.4-9.2-1.9-13.8-1.8
		c0.5-0.9,1-1.7,1.5-2.6c-2.8-1.4-5.5-2.8-8.2-4.3C159.8,68.7,155.9,67.2,152,65.9 M87.2,70.4c-2.6,1.4-5.3,2.7-8,4
		c0.1,1,0.2,2,0.3,3.1c-4.3,0-8.9-0.5-12.8,1.8c-7.9,1.5-14.7,8-16.6,15.8c-0.9,1.6-1.9,3.2-1.4,5.1c5.2,0.7,10.2-1.4,15-3
		c7.5-2.3,14.7-7.1,18.5-14.1c2.2-0.3,4.5-0.8,6.3-2.2c3.3-2.4,6.9-4.6,9.5-7.8c0.5-2.2,0.3-4.4,0.3-6.7
		C94.6,67.3,90.8,68.7,87.2,70.4 M85.1,88.9c3.8-0.2,7.5-1.1,11.2-1.6c0.1-1.7,0.1-3.4,0.1-5.1C92.1,83.2,88,85.4,85.1,88.9
		 M154.2,87.2c4.5,0.3,8.7,1.7,12.9,3.3c-3.2-4.1-7.7-6.9-12.6-8.5C154.4,83.8,154.3,85.5,154.2,87.2 M82.6,106
		c1.1,4.5,4.1,8.2,7.5,11.1c0.1,0.4,0.3,1.2,0.4,1.7c-1.8-0.3-3.6-0.6-5.4-0.9c1,2.5,2,5.1,4.3,6.7c3,2.4,7,1.9,10.5,1.9
		c7.1-0.2,14.5,0.7,21.4-1.6c-0.8-2.4-1.8-4.8-3.4-6.8c-3.9-4.8-8.3-9.4-13.9-12.1c-3.8-3.1-8.3-5.2-13.1-6.1
		C87.2,99,82,101.6,82.6,106 M145,106.9c-5.1,2.6-9,7-12.7,11.3c-1.7,1.9-2.5,4.3-3.1,6.7c8.4,2.2,17.2,1.2,25.8,1.3
		c4.9,0.3,8.5-3.6,10.2-7.8c-1.5-0.7-3-1.4-4.5-2.1c2.5-2,4.6-4.5,5.6-7.5c2.1-2,0.7-5.1-0.1-7.4c-2.3-1-4.7-2.3-7.2-1.6
		C154,101.1,149,103.5,145,106.9 M44.8,104.2c-6.2,0.8-11.6,5.9-13.6,11.8c-0.9,1.6-1.7,3.2-2.4,4.9c2.4-1.4,4.9-2.9,7.8-3
		c-2.2,3.2-5.8,6.5-4.1,10.7c2.3-1.8,4.4-3.7,6.8-5.3c2.5,2.6,4.8,8.5,9.3,6.5c2.2-0.3,1.9-2.8,2.5-4.4l-0.7,0.4
		c-0.9-1-1.8-2-2.7-3.1c-1.2-1.2-2.4-2.4-3.6-3.7c-1.3-0.3-2.7-0.7-4-1c0.2-0.7,0.6-2.1,0.8-2.7c1.6,0.3,3.1,0.7,4.7,0.9
		c1.5,1.9,3.1,4.2,5.5,5.1c3.1,0.5,6.1-0.9,8.8-2.4c5.4-3.5,9.7-8.5,12.3-14.4c-3.2,1.6-6.1,3.5-9,5.4c2-2.5,4-5.1,6-7.6
		C61,102.7,52.5,101.3,44.8,104.2 M181.7,102.4c1.9,2.7,3.9,5.3,5.9,7.8c-3.5-2.5-7-5-10.7-7.2c4.2,7.8,10.3,15.7,19.1,18.3
		c4.1,1.3,7.1-2.6,9.2-5.6c3.5-0.2,7.3,2.1,10.2-0.8c1.4,1.9,3.1,3.4,5,4.7c-1.4-6.3-5.5-12.1-11.5-14.8
		C200.5,101.1,190.8,102.7,181.7,102.4 M174.8,110.8c-0.1,4.8-0.3,9.6-0.6,14.4c4.1,0,8.2,0.2,12.2-0.5
		C182.5,120.1,179.2,114.9,174.8,110.8 M73.6,112.5c-3.1,4.3-6.6,8.2-9.5,12.6c4.1,0.1,8.2,0.1,12.3,0.1c-1-4.2-1.1-8.6-1.1-12.9
		C74.9,112.3,74,112.4,73.6,112.5 M206,119.2c-0.9,1.1-1.7,2.2-2.7,3.2c-1.1,1.1-2.1,2.3-3.1,3.4c-0.2-0.1-0.7-0.3-1-0.4
		c0.1,1.3,0.2,2.6,0.4,3.9c1.7,0.3,3.5,0.7,5.2,0.9c2.3-1.6,4.1-3.8,5.3-6.4c1.2,0.1,2.3,0.3,3.5,0.4c1.3,1.6,2.7,3.1,4.1,4.6
		c1.3-3,0.5-6.4-2.1-8.4C213,117.8,209.2,118.4,206,119.2 M20.6,131c0.3,2.7,2.7,4.3,4.5,6.1c2.9,2.5,5.5,5.4,8.8,7.4
		c3.7-0.7,6.8-4.3,5.6-8.1c-3.6-3.5-8.1-6.1-12.6-8.3C24.6,125,21.5,128.4,20.6,131 M223.1,128.2c-4.2,2.4-8.4,4.7-12.1,7.9
		c-2.4,3.6,1.9,8.8,5.8,8.2c3.4-2,5.9-5.2,8.9-7.8c1.4-1.6,4.1-2.9,3.9-5.3C229.2,128.2,225.5,125,223.1,128.2 M63.6,130.5
		c-0.7,13.8-3.1,27.6-3.2,41.5c2.7-0.6,5.4-1.2,8-1.7c0.9-4.8,1.1-9.8,1.4-14.6c2.5,0,5.1,0.1,7.6-0.5c4.1-1.3,6.8-5.2,8-9.1
		c0.1-3.1,0.2-6.2-0.2-9.2c-0.9-2.2-2.4-4.8-4.8-5.5C75.1,129.5,69.2,130.8,63.6,130.5 M91.9,130.6c-0.5,3-1.2,5.9-1.7,8.8
		c-0.5,1.1-0.7,2.3-0.9,3.5c-3,8-4.4,16.5-7.1,24.7c3,0,5.9-0.1,8.9-0.3c0.4-2.3,0.7-4.7,2-6.7c2.1-0.3,4.3-0.3,6.5-0.4
		c0.8,2.1,1.5,4.2,2.3,6.3c2.7-0.2,5.4-0.6,8.1-1.1c-2.6-11.7-4.6-23.5-7.3-35.1C99,130.3,95.4,130.4,91.9,130.6 M112.5,130.5
		c-1.5,11.6-0.6,23.4-1.1,35.1c2.8,0,5.5-0.1,8.2-0.1c0.1-4,0.1-8,0.2-12.1c0.7,0.1,2.1,0.2,2.7,0.2c1.9,3.8,2.7,8.4,5.5,11.6
		c2.8,0.3,5.6,0.2,8.4,0.1c-1.5-4.9-5.1-9.3-5.2-14.6c1.1-1.1,2.2-2.2,3.1-3.6c0.3-2.7,0.6-5.4,0.4-8.1c-0.2-3.9-3.1-7.7-7-8.5
		C122.7,130.1,117.6,130.5,112.5,130.5 M47,132.6c-1.8-0.1-3.2,1-4.7,1.9c0.4,2.1,1.5,4.2,1,6.4c-0.8,1.7-1.9,3.2-2.9,4.8
		c-0.4,0-1.2-0.1-1.5-0.2c1.4,2.9,3.7,5.3,4.6,8.5c-0.1,2-1,3.8-1.7,5.7l0.5-0.3c0.3,0.3,0.9,0.8,1.2,1c1.6,4.2,4.2,7.8,6.3,11.7
		c-1.4,2.1-3.4,3.7-6.1,3.5c-0.1-2.5,0-5-0.1-7.4c-1.6,0.6-3.3,1.2-4.7,2.2c-0.5-2.4-1-4.8-1.6-7.2c-3.4,0.3-6.9,0.8-10.3,1.3
		c-1.9-3.3-4.5-6-6.9-8.9c-1.3,0.9-2.9,1.6-3.7,3c-0.6,2.2,0.4,4.4,0.9,6.5c2,2.1,4,4.1,6.5,5.5c3.9,0.4,8.6-0.7,11.7,2.4
		c-1.7,1.8-0.9,4.8-0.9,7c1.4,6.1,5.6,10.9,9,16c-0.8-2.8-1.7-5.5-2.7-8.2c4.5-0.9,9.6-2.1,12.4-6.1c4-4.7,5-11.3,3.7-17.2
		c-2.8-6.3-7.4-11.6-9.9-18c-0.9-2.7,0.8-5.1,3.7-5.1c1.3,1.5,1.2,3.6,1.5,5.5c2.7-0.1,5.3-0.2,8-0.4c0.1-3.6,0.4-7.4-1.2-10.8
		c-0.9-2.4-2.8-4.4-5.3-5.2C51.6,130.6,49.5,132.6,47,132.6 M137.3,130.4c0,2.4,0,4.8-0.1,7.1c3.1,0,6.1,0.5,9.1,1
		c0,3.8,0.1,7.6,0,11.4c-0.1,5-0.1,10.1,0.2,15.1c2.3,1.9,5.4,1,8.2,1.3c-0.1-9.3-0.3-18.6-0.4-27.9c2.8,0,5.6,0,8.4,0.1
		c0-2.7-0.1-5.3-0.3-8C154.1,130.4,145.7,130.4,137.3,130.4 M166.6,130.5c-0.7,2.8-1.4,5.6-1.4,8.4c-0.7,2.2-1.3,4.4-1.8,6.6
		l0.2,1.1c-1.5,6.8-3.2,13.7-3.4,20.7c2.6,0.1,5.3,0.3,7.9,0.2c0.7-2,1.1-4,1.6-6.1c2,0.1,4.1,0.1,6.1,0.5c2.3,1.5,2.3,4.6,3.1,6.9
		c2.8,0.7,5.8,1,8.7,1.2c-2.1-8-4.5-16-6.8-24c-1.3-4.3-2.1-8.9-4-12.9c-0.1-0.6-0.3-1.8-0.4-2.4
		C173.1,130.6,169.9,130.5,166.6,130.5 M186.6,130.7c-0.2,3.1,0,6.3,0.5,9.3c0.7,4.6,0.4,9.3,0.3,13.9c0.1,0.2,0.4,0.6,0.5,0.8
		l0.3,0.7l-0.1,0.3c1.2,8.5,1.1,17.2,2.6,25.7c2.7,1.4,5.8,1.6,8.7,2.3c-0.7-8-2.2-16-1.9-24.1c4.4,8.3,8.2,17,12.5,25.4
		c0.9,2.2,3.6,2.3,5.5,3.2c-0.9,2.7-1.9,5.3-2.9,7.9c2.1-3,5.9-5.7,5.1-9.8c0.2-5.1-0.2-10.1-1.4-15c1.4-0.3,2.8-0.6,4.1-0.9
		c0.8,0.3,1.6,0.6,2.5,0.9c-0.2,2.3-0.3,4.6-0.1,6.8c0.9-1.2,1.8-2.3,2.5-3.6c-0.1-1.2-0.5-2.4-0.8-3.7c3.7-1.3,7.3-3.6,8.7-7.4
		l0.2,0.8c0.2-2,0.6-4,0.1-6c-0.7-1.2-2-1.9-3-2.8c-2.5,3-5.2,5.8-7.6,8.9c-3.5-0.5-7-0.9-10.5-1.1c-0.5,2.4-0.3,4.8,1.1,6.8
		l1.3-0.1c-1,0.2-1.9,0.4-2.9,0.7c-2.6-1.4-3.3-4.4-2.3-7.1c1.3-1.9,3.6-2.7,5.4-4c-2.3-1.5-5-1.4-7.6-1.6c-0.1-2.3-0.6-4.8,0.2-7
		c1-1.6,2.3-3,3.6-4.4c-1.6-2.1-4.2-3.9-4-6.8c-0.7-3.8,2.8-6.1,3.9-9.4c-2.8,0.1-5.2,1.4-7.8,2.4c0.2,4.4,1.1,8.6,1.2,13
		c0.1,3,1.6,6.2,0,9c-2.3-4-4.1-8.3-6.5-12.3c-1.9-4.1-3.6-8.3-6.2-12C190.2,130.5,188.4,130.6,186.6,130.7 M17.1,144.6
		c0.9,3.4,1.5,7.5,4.9,9.4c2.6,1.5,6.4,3.4,9.2,1.5c2.4,0.9,5,0.9,7.5,0.9c0.6-1.7,1.6-3.7,0.6-5.5c-1.3-3.3-5.5-2.5-8.3-3.3
		c-3.2-0.1-5.5-2.5-7.9-4.2c0.9-1,1.9-1.9,2.8-2.9C22.3,138.1,18,140.8,17.1,144.6 M225.8,144.3c-2.9,4.3-8.7,2.9-13,4.5
		c-2.4,1.8-1.9,5.1-2.1,7.7l0.4-0.8l0.5-0.5c2.4,1.1,5.1,1.2,7.7,1l-0.5-0.6c0.1-0.4,0.5-1.1,0.6-1.4c0.4,0.6,1.1,1.8,1.5,2.4
		c4.2-1.1,9.2-2.3,11.3-6.6c0.6-2.8,1.9-5.9,0.2-8.5c-1.8-1.5-4.3-2-6.5-2.4C225.7,140.9,226.1,142.6,225.8,144.3 M26.6,158.7
		c1.2,0.9,2.5,1.8,3.8,2.6c0.1-0.8,0.3-2.4,0.4-3.2C29.4,158.3,28,158.5,26.6,158.7 M221.3,158.1c-1.8,0.4-1.1,3.3,0.7,2.7
		C223.9,160.4,223.1,157.4,221.3,158.1 M136.1,172.9c-6.9,1.5-13.6,3.9-19.6,7.6c-3.4,1.8-6.3,4.4-9.9,5.8c-4.9,1.3-10,1.3-15.1,1.3
		c3.3-4.6,9.5-5.1,14.7-4.8c3.3,0.3,7.2-2.2,7.4-5.7c-11.3-2.6-23.1-1.3-34.5-0.8c-3.8,0.1-7.6-0.2-11.4,0.5
		c-2.5,1.4-1.3,4.5,1.5,4.4c9.1-0.4,18.2-3.2,27.3-1.2c-5.2,3.3-11.1,5.3-16.8,7.8c-1.3,0.8-3.4,1.2-3.4,3.1
		c2.2,1.6,4.9,2.6,7.7,2.2c6.8-0.6,13.7-0.7,20.5-0.5c-4.1,5.4-10.3,8.4-15.6,12.3c-4.1,2.9-7.8,6.3-12.1,9c-3,1.8-5.6,4.3-7.7,7.1
		c5.4-2.8,10.4-6.3,15.6-9.4c2.6-1.7,5.9-1.6,8.8-2.1c2.6-2.2,4.4-5.9,8.1-6.6c4.1-0.7,8.5-1.9,12.6-0.6c1.5,0.2,3.1,1.1,4.7,0.7
		c2.8-1.4,4.6-4.1,7.3-5.6c2.4-1.1,5.1-1.5,7.4-2.7c1.8-1.2,3.2-2.9,4.8-4.4c0.3,2.2,0.4,4.4,1.2,6.5c1.7,1.5,3.9,2.3,5.9,3.4
		c-2.1,2.1-3.9,4.6-6.4,6.2c-1.9,0.7-4,0.6-6,0.8c2.6,1.6,5.1,3.5,8.1,4.4c3.3-2.6,4.6-6.9,7.4-9.9c2.5-1.8,5.7-1.7,8.6-2.3
		c-4.4,3.7-7.9,8.3-10.2,13.5c3.2-0.6,6.4-1.7,8.8-4.1c3.2-3.2,7.4-4.8,11.2-7c-0.2-1.4-1.5-3-0.7-4.5c0.6-1.5,2.4-1.7,3.7-2.2
		c4.9-1.3,9.1-4.5,12.6-8c0.5-3.7-0.9-7.4-2.9-10.4c-1.4-2.2-4.3-1.8-6.5-1.8c-9,0.8-17.7,3.2-26.1,6.4c-1.6-2.9-2.8-6.3-5.5-8.5
		C139.7,172.3,137.8,172.5,136.1,172.9 M24.7,173.5c1.1,2,2.3,4,3.6,5.9c0.2-2,0.4-4,0.5-6.1C27.4,173.3,26,173.4,24.7,173.5z"/>
	<path d="M119.8,138.4c2.3-0.1,4.6-0.1,6.9,0.1c0,2.3,0,4.7-0.1,7c-2.2,0-4.5,0.1-6.7-0.1C119.7,143,119.7,140.7,119.8,138.4z"/>
	<path d="M71.4,139.2c1.9,0.1,3.9-0.2,5.6,0.8c0.7,1.6,0.7,3.4,0.5,5.1c-1.3,2.6-4.6,2.4-7.1,2.4C70.5,144.7,70.9,142,71.4,139.2z"
		/>
	<path d="M171.4,146.5c0.7,0.1,1.4,0.3,2.1,0.5c0.1,0.8,0.1,2.3,0.2,3c0.1,1.2,0.1,2.4,0.2,3.6c-0.6-0.1-1.8-0.2-2.4-0.2
		c0-1.2,0-2.3,0-3.5C171.4,148.8,171.4,147.6,171.4,146.5z"/>
	<path d="M124.1,181.8c4.3-2.1,8.9-4.4,13.9-4c2.6,0.1,3.8,3,4.3,5.2c-1.4,3.2-4.5,5.1-7.3,7c-6.9,3.9-14.7,7.4-22.9,6.2
		c0.6-3.3,0.6-6.9,2.1-10C116.8,183.6,120.9,183.4,124.1,181.8z"/>
	<path d="M146.8,186.9c7.2-5.4,16.6-6.2,25.2-7.4c4.8-0.9,5.4,5.6,4.1,8.7c-6.4,3.8-14.1,4-21.2,5.5c0.5-2.2,2.2-4.6,1-6.9
		c-2.6,1.9-3.8,4.9-5.8,7.3c-2,0.8-4.3,0.7-6.5,0.9C144.5,192.3,144.9,189.1,146.8,186.9z"/>
</g>
<g id="_x23_8c0000ff">
	<path class="st1" d="M116.5,8.7c5.7,0,11.4,0.7,17.1,1c-1,8.2-0.9,16.5-2.6,24.5c-3.6,2.2-7.9,1.4-11.7,0.6
		C118.3,26.1,116.5,17.4,116.5,8.7z"/>
	<path class="st1" d="M136.1,172.9c1.8-0.3,3.6-0.6,5.4-0.3c2.7,2.2,3.9,5.6,5.5,8.5c8.4-3.2,17.1-5.7,26.1-6.4
		c2.2-0.1,5.2-0.4,6.5,1.8c2,3,3.3,6.8,2.9,10.4c-3.5,3.5-7.7,6.7-12.6,8c-1.3,0.6-3.1,0.7-3.7,2.2c-0.8,1.5,0.4,3,0.7,4.5
		c-3.8,2.2-8,3.9-11.2,7c-2.4,2.4-5.6,3.5-8.8,4.1c2.3-5.2,5.8-9.8,10.2-13.5c-2.9,0.6-6.1,0.5-8.6,2.3c-2.8,3-4.1,7.2-7.4,9.9
		c-3-0.9-5.5-2.8-8.1-4.4c2-0.2,4.1-0.1,6-0.8c2.6-1.6,4.4-4.1,6.4-6.2c-2-1-4.1-1.9-5.9-3.4c-0.8-2.1-0.9-4.3-1.2-6.5
		c-1.5,1.6-2.9,3.2-4.8,4.4c-2.3,1.2-5,1.6-7.4,2.7c-2.7,1.5-4.5,4.2-7.3,5.6c-1.6,0.4-3.2-0.4-4.7-0.7c-4.1-1.3-8.5-0.1-12.6,0.6
		c-3.7,0.7-5.4,4.4-8.1,6.6c-3,0.6-6.2,0.4-8.8,2.1c-5.2,3.1-10.2,6.6-15.6,9.4c2.2-2.8,4.7-5.3,7.7-7.1c4.3-2.7,8-6.1,12.1-9
		c5.3-3.9,11.6-6.9,15.6-12.3c-6.8-0.2-13.7-0.1-20.5,0.5c-2.8,0.4-5.5-0.6-7.7-2.2c0-1.9,2.1-2.3,3.4-3.1
		c5.7-2.5,11.5-4.5,16.8-7.8c-9.1-1.9-18.2,0.9-27.3,1.2c-2.8,0.1-4-3-1.5-4.4c3.8-0.7,7.6-0.4,11.4-0.5c11.5-0.4,23.2-1.8,34.5,0.8
		c-0.2,3.5-4.1,6-7.4,5.7c-5.2-0.2-11.3,0.3-14.7,4.8c5,0,10.2,0,15.1-1.3c3.6-1.4,6.6-4,9.9-5.8
		C122.5,176.8,129.2,174.4,136.1,172.9 M124.1,181.8c-3.2,1.6-7.2,1.8-9.8,4.4c-1.5,3.1-1.5,6.7-2.1,10c8.2,1.2,15.9-2.3,22.9-6.2
		c2.8-1.8,6-3.7,7.3-7c-0.6-2.2-1.7-5.1-4.3-5.2C133,177.4,128.4,179.7,124.1,181.8 M146.8,186.9c-2,2.2-2.3,5.4-3.2,8.1
		c2.2-0.2,4.4-0.1,6.5-0.9c2-2.4,3.2-5.4,5.8-7.3c1.2,2.2-0.6,4.6-1,6.9c7.1-1.6,14.8-1.8,21.2-5.5c1.3-3.1,0.8-9.6-4.1-8.7
		C163.4,180.7,154.1,181.5,146.8,186.9z"/>
</g>
<g id="_x23_c7c7c7ff">
	<path class="st2" d="M98.3,17.2c4.6-1.3,9.4-2,14.1-2.1c0.4,7.3,2.6,14.9,0.1,22c-0.3,2.7-0.1,5.4-0.3,8.1c-1-4.8-1.4-9.6-1.5-14.4
		c-19.2,2.9-37.2,12.3-51.5,25.3C52.3,62.5,47,70.3,42.3,78.3c-4.4,7.7-8,15.9-9.5,24.7c3.1-0.7,6.1-1.4,9.2-2.2
		c-4,2.7-8,5.3-11,9.1c-3,3.5-4.4,8-5.6,12.3c-4.7,1.3-7.4,5.5-8.8,9.8c-0.2,2.2,0.2,4.3,0.1,6.5c-0.5,0.1-1.4,0.1-1.9,0.2
		c-0.9-8.2-0.6-16.5-0.3-24.7c2.8-29.3,18-57.2,41-75.5C68,28.5,82.7,21.1,98.3,17.2z"/>
	<path class="st2" d="M137.6,15.2c6-0.2,11.9,1.1,17.6,2.8c24.9,6.8,46.9,22.9,61.7,44c13.9,20.2,21.1,45.2,19.4,69.8
		c-1.3-1.4-2.6-2.6-3.9-4c-1.9-2.6-4.6-4.3-7.1-6.2c-1.4-2.9-1.9-6.2-3.7-9c-2.3-4.1-5.9-7.1-9.7-9.8c0.7-0.5,2.1-1.6,2.8-2.1
		c-3.7-12.7-9.8-24.8-18.3-35c-5.8-6.6-12.3-12.6-19.6-17.5c-7.3-5-15.5-8.4-23.8-11.3c-4.2-1.5-8.6-2-13-2.5
		c-0.4,3.7-0.7,7.5-1,11.2l-0.5,0c0.2-4.4,0.1-8.8-1.8-12.8C136.3,27,138,21.2,137.6,15.2z"/>
	<path class="st2" d="M31.2,115.9c2-5.8,7.3-11,13.6-11.8c1.8-0.1,3.6-0.2,5.4-0.3c-5.6,2.1-10.7,5.6-14.7,10.1
		c-1.4,1.5-3,2.8-4.5,4.2C31.1,117.6,31.2,116.5,31.2,115.9z"/>
	<path class="st2" d="M199.8,103.9c3.1,0.2,6.2,0.5,9.3,1c6,2.7,10.1,8.4,11.5,14.8c-1.9-1.3-3.7-2.8-5-4.7
		C212,109.3,206.1,105.6,199.8,103.9z"/>
	<path class="st2" d="M63.6,130.5c5.6,0.3,11.5-1,16.9,0.9c-5.3,0.2-10.6,0.4-15.9,0.5c-0.4,4-0.6,8-0.7,12c1.8-0.1,3.6-0.2,5.4-0.2
		c0.6-2,1.1-4.1,1.7-6.1c3,0.5,6.2,0.9,8.7,2.8c1.4,1.2,3.2,1.9,5,2.5c0.2-2,0.4-4,0.6-6c0.4,3,0.3,6.1,0.2,9.2
		c-3-0.3-5.9,0.5-8.7,1.6c-4.2,1-8.5,1.4-12.7,2.5c-0.3-1.4-0.6-2.9-0.8-4.3c-0.1,3.2-0.2,6.4-0.2,9.6c2.3,0.1,4.5,0.2,6.8,0.2
		c-0.4,4.9-0.5,9.8-1.4,14.6c-2.7,0.5-5.4,1.1-8,1.7C60.5,158.1,63,144.3,63.6,130.5 M71.4,139.2c-0.5,2.7-0.9,5.5-1,8.2
		c2.5,0,5.8,0.2,7.1-2.4c0.2-1.7,0.3-3.5-0.5-5.1C75.3,139,73.2,139.3,71.4,139.2z"/>
	<path class="st2" d="M91.9,130.6c3.5-0.2,7.1-0.3,10.6-0.3c2.7,11.6,4.7,23.4,7.3,35.1c-2.7,0.4-5.4,0.8-8.1,1.1
		c-0.8-2.1-1.5-4.2-2.3-6.3c-2.2,0.1-4.3,0.2-6.5,0.4c-1.2,2-1.6,4.4-2,6.7c-3,0.2-5.9,0.3-8.9,0.3c2.7-8.1,4.1-16.6,7.1-24.7
		c-0.1,0.5-0.2,1.5-0.2,2c-0.2,2.3-0.5,4.6-0.7,6.9c2.3-0.6,4.6-1.2,6.9-1.8c-0.1,0.7-0.2,2.2-0.2,2.9c1.5-0.5,2.9-1.1,4.4-1.7
		c1.9-0.7,3.8-1.3,5.7-2c-0.8-6.1-2-12.1-3.3-18.2c-2.9,0.1-5.8,0.2-8.6,0.4c-0.8,2.4-1.7,4.8-2.7,7.2l-0.3,0.6
		C90.7,136.5,91.4,133.6,91.9,130.6z"/>
	<path class="st2" d="M112.5,130.5c5.1,0.1,10.2-0.4,15.3,0.1c3.8,0.8,6.8,4.6,7,8.5c0.2,2.7-0.1,5.4-0.4,8.1
		c-0.5-4.8,0.2-11.2-4.2-14.4c-5.4-2.3-11.5-1-17.2-0.9c0,5.9,0,11.9,0.2,17.8c6.1-0.3,12.2-0.6,18.1,1c0.2,5.3,3.7,9.6,5.2,14.6
		c-2.8,0-5.6,0.2-8.4-0.1c-2.8-3.3-3.5-7.8-5.5-11.6c-0.7,0-2.1-0.1-2.7-0.2c-0.2,4-0.2,8-0.2,12.1c-2.7,0-5.5,0.1-8.2,0.1
		C111.8,153.9,111,142.1,112.5,130.5z"/>
	<path class="st2" d="M162.5,130.5c0.2,2.7,0.3,5.3,0.3,8c-2.8-0.1-5.6,0-8.4-0.1c0.1,9.3,0.3,18.6,0.4,27.9
		c-2.7-0.3-5.9,0.6-8.2-1.3c-0.3-5-0.3-10-0.2-15.1c2.2,0.2,4.4,0.4,6.6,0.6c-0.3-4.4-0.5-8.8-0.1-13.2c2.9-0.2,5.9-0.4,8.8-0.6
		C162,134.7,162.2,132.6,162.5,130.5z"/>
	<path class="st2" d="M176.8,132.9c2,4.1,2.8,8.6,4,12.9c2.3,8,4.7,15.9,6.8,24c-2.9-0.2-5.8-0.5-8.7-1.2c-0.8-2.3-0.8-5.4-3.1-6.9
		c-2-0.4-4.1-0.4-6.1-0.5c-0.5,2-0.9,4.1-1.6,6.1c-2.6,0.2-5.3,0-7.9-0.2c0.2-7,1.9-13.9,3.4-20.7c0.3,1.7,0.6,3.4,0.9,5.1
		c1.7,0.3,3.5,0.5,5.2,0.8c0.6-0.9,1.1-1.7,1.7-2.6c0,1.2,0,2.3,0,3.5c0.6,0.1,1.8,0.2,2.4,0.2c-0.1-1.2-0.2-2.4-0.2-3.6
		c1.6,3.3,5.3,4,8.6,4.8c-0.5-1.8-1-3.7-1.4-5.5c-2.4-0.8-4.9-1.6-7.3-2.3c-0.7-0.2-1.4-0.4-2.1-0.5c-2.6-0.5-5.3-0.8-7.9-1.1
		c0.5-2.2,1.1-4.4,1.8-6.6c0,0.7,0,2.1,0,2.8c4.3,0.7,8.6,1.1,13,1.3C177.8,139.6,177.3,136.2,176.8,132.9z"/>
	<path class="st2" d="M59.3,135.7c1.6,3.4,1.3,7.2,1.2,10.8c-2.7,0.1-5.3,0.2-8,0.4c-0.2-1.9-0.2-4-1.5-5.5c-2.9,0-4.6,2.4-3.7,5.1
		c2.5,6.4,7.2,11.7,9.9,18c1.3,5.9,0.3,12.5-3.7,17.2c-2.8,4-7.9,5.2-12.4,6.1c1,2.7,1.9,5.4,2.7,8.2c-3.4-5.1-7.6-9.9-9-16
		c-0.1-2.3-0.9-5.3,0.9-7c1-0.9,2.1-1.8,3.2-2.6c1.4-1,3.1-1.6,4.7-2.2c0.1,2.5,0,5,0.1,7.4c2.7,0.2,4.7-1.4,6.1-3.5
		c-2.1-3.9-4.7-7.5-6.3-11.7c3.1-0.5,6.2-1.3,9.3-2c-0.7-1.1-1.3-2.3-2-3.4c-2.9,1.4-5.7,2.8-8.5,4.4l-0.5,0.3
		c0.6-1.9,1.6-3.7,1.7-5.7c-0.9-3.1-3.2-5.6-4.6-8.5c0.4,0,1.1,0.1,1.5,0.2c1.6,0.3,3.2,0.7,4.8,1c0.7-1.9,1.4-3.7,2.2-5.5
		c1.7,0,3.4,0,5.1,0c0.5,1.8,1,3.5,1.5,5.3c1.9-0.2,3.8-0.5,5.7-0.7C59.6,142.4,59.5,139,59.3,135.7z"/>
	<path class="st2" d="M198.2,142.7c2.4,4,4.2,8.2,6.5,12.3c0.2,0.5,0.7,1.4,0.9,1.9c-5.6-1.3-11-3.2-16.3-5.5
		c-0.4,1.4-0.8,2.7-1.2,4.1l-0.3-0.7c-0.1-3.4,0.2-6.7,0.7-10.1c3.4,0.5,6.9,0.9,10.3,1.3C198.7,144.9,198.5,143.8,198.2,142.7z"/>
	<path class="st2" d="M188.1,155.7c6.6,1.4,13.4,2.1,19.7,4.7c-0.1-0.6-0.2-1.7-0.2-2.3c2.6,0.2,5.3,0.1,7.6,1.6
		c-1.8,1.3-4.2,2.1-5.4,4c-1,2.7-0.2,5.6,2.3,7.1c5.3,3.3,4.5,10.2,5.6,15.6c0.9,4.1-3,6.8-5.1,9.8c1.1-2.6,2-5.3,2.9-7.9
		c-1.9-1-4.6-1.1-5.5-3.2c-4.4-8.4-8.1-17.1-12.5-25.4c-0.3,8.1,1.2,16.1,1.9,24.1c-2.9-0.6-6-0.9-8.7-2.3
		C189.2,172.9,189.3,164.2,188.1,155.7z"/>
</g>
<g id="_x23_e2dfddff">
	<path class="st3" d="M59.2,56.2c14.3-13.1,32.2-22.4,51.5-25.3c0.2,4.8,0.5,9.7,1.5,14.4c-3.1,2.2-6.4,4.1-9.2,6.6
		c-2.7,2.3-3.3,6-3.9,9.3c-6.8,2.8-13.8,5-20.2,8.7c-2.9,1.5-5.4,3.9-8.8,4.2c-7.1,0.5-14,3.8-18.4,9.5c-3.9,4.8-5.6,10.8-7.4,16.6
		c-0.6,0.2-1.7,0.5-2.3,0.6c-3,0.8-6.1,1.5-9.2,2.2c1.5-8.8,5.1-17,9.5-24.7C47,70.3,52.3,62.5,59.2,56.2z"/>
	<path class="st3" d="M139.8,34.5c4.4,0.4,8.8,1,13,2.5c8.3,2.9,16.6,6.3,23.8,11.3c7.2,5,13.7,11,19.6,17.5
		c8.6,10.1,14.7,22.2,18.3,35c-0.7,0.5-2.1,1.6-2.8,2.1c-2.4-1.6-6.1-2.5-6.6-5.8c-2.2-9-7.9-17.8-16.9-21.2
		c-4.2-1.9-9.4-0.9-13.3-3.9c-7.2-4.8-15.4-7.5-23.3-10.6c-0.8-2.5-1.2-5.3-2.7-7.5c-2.7-3.5-6.7-5.6-10.2-8.2
		C139.1,41.9,139.4,38.2,139.8,34.5z"/>
	<path class="st3" d="M50.2,95c1.8-7.8,8.7-14.3,16.6-15.8c2.1,0,4.2,0.1,6.3,0.2c-3.6,1.9-7.3,3.7-10.8,5.8c-5,3-8.9,7.5-12.4,12.1
		C49.9,96.7,50.1,95.6,50.2,95z"/>
	<path class="st3" d="M177.9,79.4c2.1-0.1,4.1-0.1,6.2-0.1c7.2,1.6,13.7,7.5,15.8,14.6c0,0.8,0.1,2.3,0.2,3
		c-2.9-3.7-5.6-7.7-9.6-10.4C186.5,83.7,182.1,81.7,177.9,79.4z"/>
	<path class="st3" d="M86.6,101.5c4.2-1.2,8.8,0.1,12,2.9c4.9,4.1,9.3,9,12.5,14.6c-3,0.4-6.1,0.9-9.1,0.1c-4.9-1.2-8.9-4.4-13-7.1
		c-2.4-1.6-5.5-3.6-5.2-6.9C83.7,103.3,85.1,101.9,86.6,101.5z"/>
	<path class="st3" d="M154,103c3.7-2.3,8.2-1.6,12.4-1.5c0.8,2.3,2.2,5.3,0.1,7.4c-4.6,2.8-9,6.1-13.8,8.7c-4,2.2-8.8,2.1-13.2,1.6
		C142.8,112.7,147.7,106.8,154,103z"/>
	<path class="st3" d="M89.3,143c0.2-1.2,0.4-2.4,0.9-3.5l0.3-0.6c2.1,1.2,4.1,2.4,6.2,3.6c-2.5,0.9-5.1,1.7-7.6,2.5
		C89.1,144.5,89.2,143.5,89.3,143z"/>
	<path class="st3" d="M42.3,159.5c2.8-1.6,5.6-3,8.5-4.4c0.7,1.1,1.3,2.3,2,3.4c-3.1,0.7-6.1,1.6-9.3,2
		C43.2,160.2,42.6,159.7,42.3,159.5z"/>
</g>
<g id="_x23_ba9484ff">
	<path class="st4" d="M124.1,50.9c-2.6-1.8-5.3-3.9-4.9-7.5c3.6,1.8,7.4,2.3,11.3,1.9C128.5,47.3,126.3,49.1,124.1,50.9z"/>
	<path class="st4" d="M115.5,48.5c1.7-0.8,3.4,0.2,4.2,1.7c0.9,1.3,1.8,2.6,2.7,3.9c-5.1,5-11,9.1-16.1,14.2c4,3,8.4,5.3,12.7,7.7
		c-0.5-0.1-1.4-0.2-1.9-0.3c-2.3-0.4-4.6-1-6.8-1.6c0,0.8-0.1,2.2-0.1,3c2.8,1.5,5.7,2.9,8.6,4.4c0.1,2.4,0.2,4.9,0.2,7.4
		c-0.1,6.2-0.1,12.4-0.5,18.5c-3.3-7.8-5.4-16.1-8.7-24c-1.5,1.5-3.1,3-4.6,4.4c-2.8-7.2-2.8-15.2-2.5-22.8c0.4-3.7,0.7-8,3.8-10.5
		C109.2,52.2,112.2,50,115.5,48.5z"/>
	<path class="st4" d="M123.5,87.5c0.1-7.1-1.4-14.5,1.7-21.2c0.4,0.7,1.1,2,1.5,2.6c0.1,6.3,0.1,12.6,0.2,18.9
		C125.8,87.7,124.6,87.6,123.5,87.5z"/>
	<path class="st4" d="M131,75.9c4.6-2.8,9.2-5.5,14.1-7.6c0.3-0.2,1.1-0.6,1.4-0.7c0.1,1.6,0.2,3.2,0.4,4.7
		c-2.1,0.7-4.2,1.3-6.3,1.8C137.4,74.5,134.2,75.2,131,75.9z"/>
	<path class="st4" d="M79.2,74.3c2.7-1.3,5.4-2.5,8-4c1.5,1.1,3,2.3,4.5,3.4c-4,2.9-7.8,6.1-11.6,9.3c-3.2,2.7-7.3,3.9-10.7,6.3
		c-3.6,2.4-6.6,5.6-10.4,7.7c-2.9,1.6-6.3,2-9.6,2.5c0.1-0.6,0.3-1.7,0.4-2.3c3.5-4.6,7.4-9.1,12.4-12.1c3.5-2.1,7.2-3.9,10.8-5.8
		c-2.1-0.1-4.2-0.1-6.3-0.2c3.9-2.3,8.5-1.8,12.8-1.8C79.4,76.4,79.3,75.3,79.2,74.3z"/>
	<path class="st4" d="M158.6,73.6c1.6-1,3.3-2,5-3c2.7,1.5,5.5,2.9,8.2,4.3c-0.5,0.9-1,1.7-1.5,2.6c4.6,0,9.6-0.5,13.8,1.8
		c-2.1,0-4.1,0.1-6.2,0.1c4.2,2.3,8.6,4.4,12.6,7.1c3.9,2.7,6.7,6.7,9.6,10.4c0-0.8-0.1-2.3-0.2-3c0.9,1.8,1.5,3.8,2,5.8
		c-2.4,0-4.8,0.1-7.1-0.5c-6.5-3.4-11.4-9.1-18-12.3C170,83.7,164.8,77.9,158.6,73.6z"/>
	<path class="st4" d="M131.8,81.4c1.8-0.8,3.6-1.5,5.4-2.1c0.3-0.1,1-0.3,1.3-0.4c-2,4.8-4,9.5-5.9,14.3
		C132.4,89.2,132.3,85.3,131.8,81.4z"/>
	<path class="st4" d="M85.1,88.9c2.9-3.5,7-5.7,11.4-6.7c0,1.7-0.1,3.4-0.1,5.1C92.6,87.8,88.9,88.7,85.1,88.9z"/>
	<path class="st4" d="M154.2,87.2c0.1-1.7,0.2-3.5,0.3-5.2c4.9,1.6,9.4,4.4,12.6,8.5C162.9,89,158.7,87.5,154.2,87.2z"/>
	<path class="st4" d="M82.6,106c-0.6-4.4,4.6-7,8.3-6.2c4.7,1,9.3,3.1,13.1,6.1c5.3,4.8,10.6,9.8,13.5,16.4
		c-9.1,3.8-19.8,0.5-27.4-5.3C86.7,114.2,83.7,110.4,82.6,106 M86.6,101.5c-1.5,0.5-2.9,1.8-2.8,3.6c-0.3,3.3,2.8,5.3,5.2,6.9
		c4.2,2.6,8.1,5.9,13,7.1c3,0.8,6.1,0.3,9.1-0.1c-3.2-5.6-7.6-10.5-12.5-14.6C95.4,101.6,90.8,100.3,86.6,101.5z"/>
	<path class="st4" d="M145,106.9c4-3.4,9-5.8,14.1-7.1c2.6-0.7,5,0.6,7.2,1.6c-4.1-0.2-8.7-0.8-12.4,1.5
		c-6.3,3.8-11.1,9.7-14.5,16.2c4.4,0.5,9.2,0.7,13.2-1.6c4.8-2.6,9.2-5.8,13.8-8.7c-1,3-3.1,5.6-5.6,7.5c-7.3,6.7-18.1,8.9-27.6,6.7
		C134.9,116.3,140.3,111.7,145,106.9z"/>
	<path class="st4" d="M50.2,103.9c4.7-0.3,9.3,0.7,13.8,1.9c-4.5,5.7-11,9.9-18.4,10.4c-1.6-0.2-3.2-0.6-4.7-0.9
		c-1.8-0.4-3.6-0.9-5.4-1.4C39.5,109.4,44.5,105.9,50.2,103.9z"/>
	<path class="st4" d="M186.3,105.8c4.4-1.1,8.9-2.2,13.5-1.8c6.3,1.7,12.2,5.3,15.7,11c-2.9,2.8-6.7,0.5-10.2,0.8
		C197.6,116.1,191.1,111.3,186.3,105.8z"/>
	<path class="st4" d="M39.5,120.7c1.5-0.5,3-1.1,4.6-1.6c1.2,1.2,2.4,2.5,3.6,3.7c-0.6,0.2-1.9,0.7-2.6,0.9c0.5,1.4,1,2.8,1.5,4.2
		c1.3-0.7,2.6-1.4,3.9-2l0.7-0.4c-0.6,1.6-0.3,4.1-2.5,4.4c-4.5,2-6.8-3.9-9.3-6.5C39.4,122.4,39.5,121.6,39.5,120.7z"/>
	<path class="st4" d="M203.4,122.5c0.9-1,1.8-2.1,2.7-3.2c1.8,0.6,3.6,1.2,5.4,1.9c-0.4,0.9-0.8,1.9-1.3,2.8c-1.2,2.5-3,4.8-5.3,6.4
		c-1.8-0.2-3.5-0.6-5.2-0.9c-0.1-1.3-0.2-2.6-0.4-3.9c0.2,0.1,0.7,0.3,1,0.4c1.2,0.5,2.4,1,3.6,1.3c0.6-0.9,1.2-1.7,1.7-2.6
		C205,124,203.9,123,203.4,122.5z"/>
	<path class="st4" d="M25.2,127.3c0.5,0.2,1.4,0.6,1.9,0.8c4.5,2.3,8.9,4.9,12.6,8.3c1.2,3.8-1.9,7.4-5.6,8.1c-3.3-2-6-4.8-8.8-7.4
		C25.3,133.9,25.4,130.6,25.2,127.3 M29.9,139.6c1.4,0.7,2.8,1.4,4.2,1.9c2.1-1.1,2.6-3.5,3.4-5.6c-1.8-0.1-3.6-0.3-5.4-0.2
		C31.1,136.9,30.5,138.2,29.9,139.6z"/>
	<path class="st4" d="M211,136.1c3.6-3.2,7.9-5.5,12.1-7.9c0.4-0.2,1.2-0.6,1.6-0.8c-0.1,3.1,0.3,6.1,1.1,9.1
		c-3,2.6-5.5,5.8-8.9,7.8C212.9,144.9,208.6,139.7,211,136.1 M212.6,136.7c1.1,1.8,2.3,3.6,3.4,5.4c2.7-1,4-3.4,4-6.2
		C217.6,135.8,215.1,136.1,212.6,136.7z"/>
	<path class="st4" d="M232.3,127.8c1.3,1.4,2.6,2.7,3.9,4c0.5,2.6,0,5.2-0.2,7.9c-0.9-0.4-1.8-0.7-2.7-1.1
		C233.7,134.9,233.4,131.3,232.3,127.8z"/>
	<path class="st4" d="M17.1,144.6c3.1,2,6.1,4.2,9.4,5.9c3.2,1.7,6.9,1.1,10.4,1.1c-1.9,1.3-3.7,2.6-5.6,3.9c-2.9,1.9-6.6,0-9.2-1.5
		C18.6,152.1,17.9,148,17.1,144.6z"/>
	<path class="st4" d="M222.2,151.2c3.7-1.3,6.8-3.9,9.9-6.2c0,1.7,0.1,3.4,0,5.1c-2.1,4.3-7.1,5.5-11.3,6.6
		c-0.4-0.6-1.1-1.8-1.5-2.4c-0.2,0.4-0.5,1.1-0.6,1.4c-1.1-1.2-2.2-2.4-3.5-3.4c-1.3,0.9-2.5,1.9-3.6,3l-0.5,0.5
		c0.6-1.4,1.1-2.8,1.7-4.2C215.9,151.6,219.2,152,222.2,151.2z"/>
	<path class="st4" d="M26.6,158.7c1.4-0.2,2.8-0.4,4.2-0.6c-0.1,0.8-0.3,2.4-0.4,3.2C29.1,160.5,27.8,159.6,26.6,158.7z"/>
	<path class="st4" d="M18.1,162.3c4,2.1,8.2,3.9,12.3,5.8c-2,1-4.1,1.9-6.3,2.5c-2.5-1.4-4.6-3.4-6.5-5.5
		C17.6,164.4,18,163,18.1,162.3z"/>
	<path class="st4" d="M221.8,166.9c3.8-1.4,7.4-3.1,11-4.9c0.1,0.4,0.3,1.1,0.4,1.5c-1.5,3.8-5,6.1-8.7,7.4c0.3,1.2,0.6,2.4,0.8,3.7
		c-0.7,1.3-1.6,2.4-2.5,3.6c-0.2-2.3-0.2-4.6,0.1-6.8c-0.8-0.3-1.6-0.6-2.5-0.9C220.9,169.3,221.3,168.1,221.8,166.9z"/>
	<path class="st4" d="M24.7,173.5c1.4-0.1,2.8-0.1,4.1-0.2c-0.2,2-0.3,4-0.5,6.1C26.9,177.4,25.7,175.5,24.7,173.5z"/>
</g>
<g id="_x23_665550ff">
	<path class="st5" d="M125.1,52.6c3.3-0.3,5.6-3.8,8.9-4c3.9,1.6,7.5,4.1,10.5,7c2.4,3.2,3.1,7.5,2.8,11.4l-0.7,0.5
		c-0.3,0.2-1.1,0.6-1.4,0.7c0.2-0.6,0.5-1.8,0.7-2.3c-6.7-3.1-13.2-6.9-20.1-9.4c-3.6,0.2-6.2,3.4-8.9,5.4c2.7-0.8,5.3-1.7,7.9-2.7
		c0.1,2.4,0.3,4.7,0.5,7c-3.1,6.7-1.5,14.1-1.7,21.2c1.1,0.1,2.2,0.2,3.4,0.3c-0.1-6.3-0.1-12.6-0.2-18.9c2.2,6.4,1.7,13.3,1.1,19.9
		c-1.8-0.1-3.5-0.2-5.3-0.3c-0.2-3.4-0.2-6.8-0.4-10.2c-1.7-0.9-3.4-1.8-5.1-2.7c0.5,0.1,1.5,0.2,1.9,0.3c-4.3-2.4-8.7-4.7-12.7-7.7
		c5.1-5,11-9.2,16.1-14.2c-0.9-1.3-1.8-2.6-2.7-3.9C121.4,51,123.2,52,125.1,52.6z"/>
	<path class="st5" d="M152,65.9c4,1.3,7.9,2.8,11.6,4.6c-1.7,1-3.4,2-5,3c6.2,4.3,11.4,10.1,18.3,13.3c6.6,3.2,11.5,8.9,18,12.3
		c-10.6-1.7-21.1-6.8-26.7-16.3c-5.6-0.7-9.7-4.8-14-8.1C151.1,72.9,151.9,69,152,65.9z"/>
	<path class="st5" d="M87.2,70.4c3.6-1.7,7.4-3,11.3-4.1c0,2.2,0.1,4.5-0.3,6.7c-2.6,3.2-6.2,5.4-9.5,7.8c-1.8,1.4-4.1,1.9-6.3,2.2
		c-3.9,7-11,11.8-18.5,14.1c-4.8,1.6-9.8,3.8-15,3c-0.5-1.9,0.5-3.5,1.4-5.1c-0.1,0.6-0.3,1.7-0.4,2.2c-0.1,0.6-0.3,1.7-0.4,2.3
		C52.7,99,56,98.6,59,97c3.8-2.1,6.8-5.3,10.4-7.7C72.7,87,76.8,85.7,80,83c3.8-3.2,7.6-6.4,11.6-9.3C90.2,72.6,88.7,71.5,87.2,70.4
		z"/>
	<path class="st5" d="M140.6,74c2.2-0.4,4.2-1.1,6.3-1.8c0.8,4.5-0.1,9.1-0.8,13.6c-1.1,0.5-2.2,1.1-3.2,1.6
		c-0.8-1.1-1.6-2.2-2.4-3.2c-2.9,8.4-5.5,16.8-8.9,25c0.2-9.5-0.9-19.1,0.2-28.6l0.1,0.8c0.4,3.9,0.6,7.8,0.8,11.8
		c2-4.8,4-9.5,5.9-14.3c-0.3,0.1-1,0.3-1.3,0.4C138.5,77.6,139.6,75.9,140.6,74z"/>
	<path class="st5" d="M109.8,83.3c3.2,7.9,5.3,16.2,8.7,24c0.3-6.2,0.3-12.4,0.5-18.5c1.3,7.2,0.9,14.5,0.6,21.7
		c-5.5-7.1-9.5-15.2-14.3-22.7C106.7,86.3,108.2,84.8,109.8,83.3z"/>
	<path class="st5" d="M44.8,104.2c7.7-2.9,16.2-1.5,24.3-1.8c-2,2.5-4,5.1-6,7.6c2.9-2,5.9-3.9,9-5.4c-2.6,5.9-6.9,10.9-12.3,14.4
		c-2.6,1.5-5.7,2.9-8.8,2.4c-2.4-0.9-3.9-3.1-5.5-5.1c7.4-0.6,13.8-4.8,18.4-10.4c-4.5-1.2-9.1-2.3-13.8-1.9
		C48.4,103.9,46.6,104,44.8,104.2z"/>
	<path class="st5" d="M181.7,102.4c9.1,0.3,18.8-1.2,27.4,2.5c-3.1-0.5-6.2-0.7-9.3-1c-4.6-0.4-9.1,0.7-13.5,1.8
		c4.8,5.5,11.3,10.3,19,9.9c-2.1,2.9-5.1,6.8-9.2,5.6c-8.8-2.6-14.9-10.5-19.1-18.3c3.7,2.2,7.1,4.8,10.7,7.2
		C185.6,107.6,183.6,105,181.7,102.4z"/>
	<path class="st5" d="M104,105.9c5.6,2.7,10,7.3,13.9,12.1c1.6,2,2.6,4.4,3.4,6.8c-6.9,2.3-14.2,1.4-21.4,1.6
		c-3.5-0.1-7.6,0.4-10.5-1.9c-2.3-1.6-3.3-4.2-4.3-6.7c1.8,0.3,3.6,0.6,5.4,0.9c-0.1-0.4-0.3-1.2-0.4-1.7c7.5,5.8,18.3,9.1,27.4,5.3
		C114.6,115.7,109.3,110.7,104,105.9z"/>
	<path class="st5" d="M132.3,118.3c3.7-4.3,7.6-8.7,12.7-11.3c-4.7,4.8-10.1,9.4-11.8,16.1c9.6,2.2,20.3,0,27.6-6.7
		c1.5,0.7,3,1.4,4.5,2.1c-1.7,4.2-5.3,8.1-10.2,7.8c-8.6-0.2-17.4,0.9-25.8-1.3C129.8,122.6,130.6,120.2,132.3,118.3z"/>
	<path class="st5" d="M31,118.1c1.5-1.4,3.1-2.8,4.5-4.2c1.8,0.5,3.6,1,5.4,1.4c-0.2,0.7-0.6,2.1-0.8,2.7c1.3,0.3,2.7,0.7,4,1
		c-1.5,0.5-3,1.1-4.6,1.6c0,0.9-0.1,1.8-0.2,2.7c-2.4,1.6-4.5,3.5-6.8,5.3c-1.7-4.2,1.9-7.6,4.1-10.7c-2.9,0.1-5.4,1.6-7.8,3
		c0.7-1.7,1.5-3.3,2.4-4.9C31.2,116.5,31.1,117.6,31,118.1z"/>
	<path class="st5" d="M206,119.2c3.2-0.8,7-1.4,9.6,1.2c2.6,2,3.4,5.4,2.1,8.4c-1.4-1.5-2.7-3.1-4.1-4.6c-1.2-0.1-2.3-0.3-3.5-0.4
		c0.4-0.9,0.8-1.9,1.3-2.8C209.6,120.5,207.8,119.9,206,119.2z"/>
	<path class="st5" d="M20.6,131c0.9-2.6,4-6,6.4-3c-0.5-0.2-1.4-0.6-1.9-0.8c0.1,3.3,0.1,6.5,0,9.8C23.4,135.4,21,133.7,20.6,131z"
		/>
	<path class="st5" d="M223.1,128.2c2.4-3.2,6.1,0.1,6.6,3c0.2,2.5-2.5,3.8-3.9,5.3c-0.8-3-1.2-6-1.1-9.1
		C224.2,127.6,223.5,128,223.1,128.2z"/>
	<path class="st5" d="M17.1,144.6c0.9-3.8,5.2-6.5,8.8-4.2c-0.9,1-1.9,2-2.8,2.9c2.4,1.7,4.7,4.1,7.9,4.2c2.8,0.8,7-0.1,8.3,3.3
		c1,1.8,0,3.8-0.6,5.5c-0.6-1.6-1.3-3.2-1.9-4.8c-3.5,0-7.2,0.6-10.4-1.1C23.2,148.8,20.2,146.6,17.1,144.6z"/>
	<path class="st5" d="M225.8,144.3c0.2-1.7-0.1-3.4,0-5.1c2.3,0.4,4.7,0.9,6.5,2.4c1.7,2.6,0.4,5.7-0.2,8.5c0-1.7,0-3.4,0-5.1
		c-3.2,2.2-6.2,4.9-9.9,6.2c-3.1,0.8-6.3,0.4-9.4,0.4c-0.6,1.4-1.1,2.8-1.7,4.2l-0.4,0.8c0.2-2.6-0.3-5.9,2.1-7.7
		C217.1,147.2,222.9,148.6,225.8,144.3z"/>
	<path class="st5" d="M95.7,145.6c0.4-0.1,1.3-0.2,1.7-0.3c0.6,2.1,1.3,4.1,1.9,6.2c-1.5,0.6-2.9,1.1-4.4,1.7
		c0.1-0.7,0.2-2.2,0.2-2.9C95.3,148.6,95.5,147.1,95.7,145.6z"/>
	<path class="st5" d="M16.6,158.7c0.8-1.4,2.4-2.1,3.7-3c2.4,2.9,5,5.7,6.9,8.9c3.4-0.5,6.8-1,10.3-1.3c0.6,2.4,1.1,4.8,1.6,7.2
		c-1.1,0.8-2.2,1.7-3.2,2.6c-3.1-3.1-7.8-2-11.7-2.4c2.2-0.6,4.3-1.5,6.3-2.5c-4.1-1.9-8.3-3.7-12.3-5.8c-0.1,0.7-0.5,2.2-0.6,2.9
		C17,163.1,16,160.9,16.6,158.7 M30.8,169.9c1.9-0.1,3.8-0.2,5.7-0.3c0-1.2,0-2.4,0-3.6C33.8,166,31.8,167.3,30.8,169.9z"/>
	<path class="st5" d="M230.6,155.6c1,0.9,2.2,1.6,3,2.8c0.4,2,0.1,4-0.1,6l-0.2-0.8c-0.1-0.4-0.3-1.1-0.4-1.5
		c-3.6,1.8-7.3,3.4-11,4.9c-0.5,1.2-0.9,2.4-1.4,3.5c-1.4,0.3-2.7,0.6-4.1,0.9c1.2,4.9,1.7,10,1.4,15c-1.1-5.4-0.3-12.3-5.6-15.6
		c0.9-0.3,1.9-0.5,2.9-0.7c1.3-0.1,2.6-0.3,4-0.4c-0.1-0.7-0.3-2-0.4-2.7c-1.4-0.3-2.8-0.6-4.2-1c-0.2,1.4-0.5,2.8-0.7,4.2
		c-1.4-2-1.6-4.5-1.1-6.8c3.5,0.2,7,0.6,10.5,1.1C225.4,161.4,228.1,158.6,230.6,155.6z"/>
	<path class="st5" d="M221.3,158.1c1.8-0.6,2.5,2.3,0.7,2.7C220.2,161.3,219.5,158.4,221.3,158.1z"/>
</g>
</svg>
