<?xml version="1.0" encoding="UTF-8" ?>
<!DOCTYPE svg PUBLIC "-//W3C//DTD SVG 1.1//EN" "http://www.w3.org/Graphics/SVG/1.1/DTD/svg11.dtd">
<svg width="250pt" height="250pt" viewBox="0 0 250 250" version="1.1" xmlns="http://www.w3.org/2000/svg">
<g id="#ffffffff">
<path fill="#ffffff" opacity="1.00" d=" M 0.00 0.00 L 60.94 0.00 C 60.31 0.41 59.06 1.24 58.44 1.66 C 53.56 2.95 48.74 4.62 44.42 7.27 C 42.52 8.39 40.68 9.60 38.85 10.81 C 34.23 13.32 30.06 16.69 27.01 21.00 C 21.53 28.69 15.00 35.92 11.94 45.03 C 7.66 52.70 5.65 61.38 4.04 69.96 C 2.55 75.15 1.16 80.37 0.00 85.65 L 0.00 0.00 Z" />
<path fill="#ffffff" opacity="1.00" d=" M 92.28 0.00 L 250.00 0.00 L 250.00 103.58 C 248.82 100.34 247.39 97.20 245.95 94.07 C 245.73 93.59 245.28 92.64 245.05 92.17 C 243.27 85.06 240.28 78.11 235.48 72.51 C 231.82 68.19 228.14 63.84 223.85 60.11 C 219.60 55.99 214.73 52.59 210.16 48.84 C 207.12 46.34 203.61 44.53 200.02 42.94 C 192.57 36.48 183.24 32.96 174.63 28.40 C 155.61 19.60 136.12 11.64 115.88 6.11 C 108.13 3.62 99.99 2.65 92.28 0.00 Z" />
<path fill="#ffffff" opacity="1.00" d=" M 0.00 128.30 C 2.84 137.63 2.64 147.60 5.76 156.85 C 8.10 167.01 10.64 177.15 14.10 186.99 C 18.68 199.76 22.30 213.39 30.88 224.18 C 31.75 225.44 32.63 226.68 33.53 227.91 C 34.77 229.56 36.06 231.19 37.44 232.74 C 38.75 234.18 40.11 235.59 41.55 236.91 C 47.29 242.90 54.68 246.75 62.21 250.00 L 0.00 250.00 L 0.00 128.30 Z" />
<path fill="#ffffff" opacity="1.00" d=" M 244.22 149.01 C 246.62 143.62 248.12 137.91 250.00 132.33 L 250.00 250.00 L 76.56 250.00 C 79.61 248.11 82.84 246.55 85.98 244.82 C 88.50 243.47 90.69 241.63 92.86 239.79 L 93.53 239.25 C 95.98 237.18 97.66 234.40 99.65 231.93 C 100.11 231.39 100.58 230.85 101.05 230.33 C 104.85 225.98 106.83 220.42 109.23 215.25 C 111.54 210.30 112.14 204.67 114.84 199.92 C 119.20 197.07 124.43 196.00 129.30 194.30 C 147.96 188.21 167.01 183.44 186.13 179.08 C 189.29 178.36 192.32 177.19 195.32 176.01 C 197.01 175.73 198.72 175.56 200.43 175.45 C 203.98 176.76 207.52 178.22 210.62 180.41 C 217.22 184.92 221.40 192.95 220.69 200.99 C 221.26 207.69 219.21 214.63 214.55 219.56 C 208.55 226.03 199.59 228.73 191.03 229.49 C 181.58 229.89 171.99 229.98 162.76 227.67 C 156.40 226.25 150.51 223.40 144.56 220.82 C 144.32 226.97 144.43 233.13 144.48 239.28 C 157.45 243.84 171.19 246.80 185.00 246.42 C 198.52 246.50 212.67 243.89 223.94 236.00 C 233.47 229.53 239.61 218.47 240.43 207.03 C 240.46 201.04 241.11 194.81 238.87 189.10 C 236.29 181.32 230.98 174.42 223.81 170.35 C 226.79 165.91 232.38 164.69 236.18 161.18 C 240.05 158.04 242.59 153.65 244.22 149.01 Z" />
</g>
<g id="#be7274ff">
<path fill="#be7274" opacity="1.00" d=" M 60.94 0.00 L 66.67 0.00 C 65.33 0.59 64.01 1.24 62.67 1.82 C 61.26 1.77 59.85 1.72 58.44 1.66 C 59.06 1.24 60.31 0.41 60.94 0.00 Z" />
</g>
<g id="#b14043ff">
<path fill="#b14043" opacity="1.00" d=" M 66.67 0.00 L 72.76 0.00 C 71.80 0.66 70.86 1.33 69.93 2.01 C 67.51 1.99 65.09 1.92 62.67 1.82 C 64.01 1.24 65.33 0.59 66.67 0.00 Z" />
</g>
<g id="#a70302ff">
<path fill="#a70302" opacity="1.00" d=" M 72.76 0.00 L 79.04 0.00 C 80.22 1.71 81.37 3.44 82.47 5.20 C 79.17 8.39 79.42 13.13 78.28 17.24 C 76.16 24.68 79.27 32.24 79.30 39.75 C 79.37 47.42 79.15 55.09 79.46 62.76 C 77.34 62.04 75.23 61.29 73.13 60.49 C 72.70 62.28 72.39 64.13 71.59 65.81 C 70.54 67.42 68.40 66.36 66.89 66.25 C 60.39 64.64 53.96 62.71 47.39 61.41 C 44.85 55.52 43.83 49.10 41.00 43.33 C 39.26 43.71 37.52 44.09 35.79 44.47 C 34.07 39.37 32.93 34.07 32.41 28.71 C 31.94 23.97 33.54 19.38 35.02 14.96 C 36.29 13.58 37.55 12.17 38.85 10.81 C 40.68 9.60 42.52 8.39 44.42 7.27 C 41.91 13.16 37.68 19.17 39.07 25.87 C 39.94 30.29 40.85 34.71 42.04 39.06 C 42.94 42.54 46.23 44.49 48.71 46.77 C 47.91 48.09 47.11 49.41 46.29 50.72 C 50.76 48.68 54.66 52.48 58.99 53.06 C 62.99 53.69 66.53 56.16 70.64 56.15 C 70.84 53.58 71.00 51.00 71.21 48.43 C 73.06 49.22 74.93 50.00 76.79 50.78 C 76.36 41.08 76.38 31.36 75.45 21.69 C 75.12 17.93 73.71 14.40 72.23 10.97 C 72.95 9.28 73.69 7.60 74.43 5.91 C 72.93 4.61 71.44 3.30 69.93 2.01 C 70.86 1.33 71.80 0.66 72.76 0.00 Z" />
</g>
<g id="#b80303ff">
<path fill="#b80303" opacity="1.00" d=" M 79.04 0.00 L 80.23 0.00 C 83.31 1.75 86.79 2.34 90.31 2.15 C 92.57 2.37 94.82 2.70 97.04 3.20 C 94.10 4.52 90.93 5.19 87.70 4.75 C 87.45 7.04 87.30 9.33 87.20 11.63 C 85.01 13.28 82.61 14.73 80.82 16.83 C 79.73 18.03 80.85 19.57 81.13 20.85 C 83.70 27.03 83.44 33.83 84.66 40.31 C 85.94 47.19 85.98 54.22 85.53 61.18 C 84.57 60.07 83.62 58.97 82.67 57.86 C 81.66 63.16 80.60 68.46 79.15 73.66 C 77.47 72.81 75.82 71.89 74.14 71.04 C 72.75 72.67 71.51 74.52 69.69 75.71 C 65.32 75.44 61.04 74.26 56.84 73.05 C 53.53 72.45 53.18 68.63 51.99 66.10 C 49.74 65.42 47.33 64.99 45.34 63.66 C 43.72 61.34 43.22 58.48 42.36 55.83 C 40.50 55.58 38.64 55.33 36.78 55.09 C 34.33 46.53 31.00 38.05 30.83 29.05 C 30.69 25.63 30.73 22.21 30.76 18.79 C 32.15 17.48 33.62 16.27 35.02 14.96 C 33.54 19.38 31.94 23.97 32.41 28.71 C 32.93 34.07 34.07 39.37 35.79 44.47 C 37.52 44.09 39.26 43.71 41.00 43.33 C 43.83 49.10 44.85 55.52 47.39 61.41 C 53.96 62.71 60.39 64.64 66.89 66.25 C 68.40 66.36 70.54 67.42 71.59 65.81 C 72.39 64.13 72.70 62.28 73.13 60.49 C 75.23 61.29 77.34 62.04 79.46 62.76 C 79.15 55.09 79.37 47.42 79.30 39.75 C 79.27 32.24 76.16 24.68 78.28 17.24 C 79.42 13.13 79.17 8.39 82.47 5.20 C 81.37 3.44 80.22 1.71 79.04 0.00 Z" />
</g>
<g id="#c5524cff">
<path fill="#c5524c" opacity="1.00" d=" M 80.23 0.00 L 85.35 0.00 C 87.01 0.69 88.64 1.46 90.31 2.15 C 86.79 2.34 83.31 1.75 80.23 0.00 Z" />
</g>
<g id="#ed9c84ff">
<path fill="#ed9c84" opacity="1.00" d=" M 85.35 0.00 L 92.28 0.00 C 99.99 2.65 108.13 3.62 115.88 6.11 C 136.12 11.64 155.61 19.60 174.63 28.40 C 183.24 32.96 192.57 36.48 200.02 42.94 C 195.41 40.87 191.02 38.37 186.58 35.96 C 180.02 32.47 173.40 29.05 166.59 26.06 C 160.11 23.47 153.75 20.59 147.30 17.94 C 141.52 15.75 135.65 13.80 129.85 11.65 C 124.45 9.79 118.91 8.37 113.40 6.85 C 108.52 5.55 103.56 4.57 98.62 3.51 C 98.22 3.44 97.44 3.28 97.04 3.20 C 94.82 2.70 92.57 2.37 90.31 2.15 C 88.64 1.46 87.01 0.69 85.35 0.00 Z" />
</g>
<g id="#950303ff">
<path fill="#950303" opacity="1.00" d=" M 44.42 7.27 C 48.74 4.62 53.56 2.95 58.44 1.66 C 59.85 1.72 61.26 1.77 62.67 1.82 C 65.09 1.92 67.51 1.99 69.93 2.01 C 71.44 3.30 72.93 4.61 74.43 5.91 C 73.69 7.60 72.95 9.28 72.23 10.97 C 73.71 14.40 75.12 17.93 75.45 21.69 C 76.38 31.36 76.36 41.08 76.79 50.78 C 74.93 50.00 73.06 49.22 71.21 48.43 C 71.00 51.00 70.84 53.58 70.64 56.15 C 66.53 56.16 62.99 53.69 58.99 53.06 C 54.66 52.48 50.76 48.68 46.29 50.72 C 47.11 49.41 47.91 48.09 48.71 46.77 C 46.23 44.49 42.94 42.54 42.04 39.06 C 40.85 34.71 39.94 30.29 39.07 25.87 C 37.68 19.17 41.91 13.16 44.42 7.27 M 49.96 9.92 C 47.53 11.39 44.41 12.39 43.28 15.26 C 40.58 20.32 41.53 26.25 43.08 31.50 C 45.16 31.39 47.24 31.34 49.33 31.36 C 49.80 35.52 50.90 39.99 54.82 42.23 C 56.75 44.22 59.44 42.89 61.79 42.95 C 63.70 43.46 65.53 44.22 67.42 44.78 C 68.15 39.59 68.67 34.35 68.60 29.10 C 68.56 25.29 66.85 21.60 67.58 17.77 C 68.00 14.93 68.49 12.11 68.84 9.26 C 65.46 7.52 62.05 5.36 58.17 5.12 C 55.21 6.32 52.77 8.46 49.96 9.92 Z" />
</g>
<g id="#cb0302ff">
<path fill="#cb0302" opacity="1.00" d=" M 87.70 4.75 C 90.93 5.19 94.10 4.52 97.04 3.20 C 97.44 3.28 98.22 3.44 98.62 3.51 C 98.33 6.44 97.98 9.35 97.56 12.26 C 94.99 12.76 92.42 13.31 89.86 13.87 C 88.10 18.79 85.34 23.45 84.62 28.67 C 84.75 34.80 86.70 40.72 87.33 46.80 C 88.56 57.27 88.61 67.94 87.09 78.38 C 85.28 77.63 83.48 76.88 81.67 76.14 C 80.71 78.48 79.59 80.75 78.36 82.96 C 76.34 82.06 74.35 81.12 72.32 80.24 C 71.13 81.65 69.94 83.05 68.75 84.45 C 63.76 83.60 58.59 83.19 53.88 81.25 C 51.98 79.25 51.32 76.09 48.48 75.05 C 45.91 74.06 44.84 71.49 43.60 69.25 C 42.56 66.90 38.96 67.60 37.94 65.26 C 35.85 60.27 34.97 54.87 32.90 49.87 C 31.73 46.88 27.74 46.42 26.48 43.48 C 24.32 38.18 24.87 32.31 24.61 26.72 C 26.53 23.98 28.40 21.17 30.76 18.79 C 30.73 22.21 30.69 25.63 30.83 29.05 C 31.00 38.05 34.33 46.53 36.78 55.09 C 38.64 55.33 40.50 55.58 42.36 55.83 C 43.22 58.48 43.72 61.34 45.34 63.66 C 47.33 64.99 49.74 65.42 51.99 66.10 C 53.18 68.63 53.53 72.45 56.84 73.05 C 61.04 74.26 65.32 75.44 69.69 75.71 C 71.51 74.52 72.75 72.67 74.14 71.04 C 75.82 71.89 77.47 72.81 79.15 73.66 C 80.60 68.46 81.66 63.16 82.67 57.86 C 83.62 58.97 84.57 60.07 85.53 61.18 C 85.98 54.22 85.94 47.19 84.66 40.31 C 83.44 33.83 83.70 27.03 81.13 20.85 C 80.85 19.57 79.73 18.03 80.82 16.83 C 82.61 14.73 85.01 13.28 87.20 11.63 C 87.30 9.33 87.45 7.04 87.70 4.75 Z" />
</g>
<g id="#e30704ff">
<path fill="#e30704" opacity="1.00" d=" M 98.62 3.51 C 103.56 4.57 108.52 5.55 113.40 6.85 C 112.80 9.72 112.14 12.57 111.45 15.41 C 107.89 15.02 104.32 14.65 100.75 14.32 C 100.70 16.40 100.64 18.47 100.59 20.55 C 96.08 21.47 90.13 21.04 87.37 25.48 C 87.17 30.10 89.02 34.52 89.65 39.07 C 93.13 51.92 95.70 65.16 94.93 78.54 C 93.56 78.23 92.18 77.92 90.81 77.61 C 89.01 82.03 89.04 87.30 86.29 91.22 C 79.49 91.00 72.77 92.29 66.14 93.63 C 59.54 92.46 53.09 90.41 46.42 89.49 C 46.00 87.86 45.59 86.24 45.17 84.61 C 43.32 84.19 41.47 83.77 39.62 83.36 C 38.20 78.80 36.91 74.21 35.52 69.65 C 33.84 69.96 32.17 70.27 30.49 70.58 C 26.81 57.45 23.65 44.15 21.66 30.65 C 22.67 29.36 23.67 28.06 24.61 26.72 C 24.87 32.31 24.32 38.18 26.48 43.48 C 27.74 46.42 31.73 46.88 32.90 49.87 C 34.97 54.87 35.85 60.27 37.94 65.26 C 38.96 67.60 42.56 66.90 43.60 69.25 C 44.84 71.49 45.91 74.06 48.48 75.05 C 51.32 76.09 51.98 79.25 53.88 81.25 C 58.59 83.19 63.76 83.60 68.75 84.45 C 69.94 83.05 71.13 81.65 72.32 80.24 C 74.35 81.12 76.34 82.06 78.36 82.96 C 79.59 80.75 80.71 78.48 81.67 76.14 C 83.48 76.88 85.28 77.63 87.09 78.38 C 88.61 67.94 88.56 57.27 87.33 46.80 C 86.70 40.72 84.75 34.80 84.62 28.67 C 85.34 23.45 88.10 18.79 89.86 13.87 C 92.42 13.31 94.99 12.76 97.56 12.26 C 97.98 9.35 98.33 6.44 98.62 3.51 Z" />
</g>
<g id="#850202ff">
<path fill="#850202" opacity="1.00" d=" M 49.96 9.92 C 52.77 8.46 55.21 6.32 58.17 5.12 C 62.05 5.36 65.46 7.52 68.84 9.26 C 68.49 12.11 68.00 14.93 67.58 17.77 C 66.85 21.60 68.56 25.29 68.60 29.10 C 68.67 34.35 68.15 39.59 67.42 44.78 C 65.53 44.22 63.70 43.46 61.79 42.95 C 59.44 42.89 56.75 44.22 54.82 42.23 C 50.90 39.99 49.80 35.52 49.33 31.36 C 47.24 31.34 45.16 31.39 43.08 31.50 C 41.53 26.25 40.58 20.32 43.28 15.26 C 44.41 12.39 47.53 11.39 49.96 9.92 Z" />
</g>
<g id="#fa1103ff">
<path fill="#fa1103" opacity="1.00" d=" M 113.40 6.85 C 118.91 8.37 124.45 9.79 129.85 11.65 C 130.25 14.52 129.60 17.53 127.43 19.59 C 123.27 20.14 119.26 18.30 115.26 17.40 C 114.34 19.18 113.44 20.97 112.51 22.74 C 107.12 22.33 101.54 22.03 96.49 24.33 C 96.44 26.36 96.60 28.44 96.10 30.43 C 93.90 33.28 90.96 35.60 89.65 39.07 C 89.02 34.52 87.17 30.10 87.37 25.48 C 90.13 21.04 96.08 21.47 100.59 20.55 C 100.64 18.47 100.70 16.40 100.75 14.32 C 104.32 14.65 107.89 15.02 111.45 15.41 C 112.14 12.57 112.80 9.72 113.40 6.85 Z" />
</g>
<g id="#e48979ff">
<path fill="#e48979" opacity="1.00" d=" M 27.01 21.00 C 30.06 16.69 34.23 13.32 38.85 10.81 C 37.55 12.17 36.29 13.58 35.02 14.96 C 33.62 16.27 32.15 17.48 30.76 18.79 C 28.40 21.17 26.53 23.98 24.61 26.72 C 23.67 28.06 22.67 29.36 21.66 30.65 C 19.35 33.46 17.30 36.49 15.77 39.80 C 15.10 41.12 14.39 42.42 13.66 43.71 C 13.01 44.47 12.36 45.22 11.71 45.98 L 11.94 45.03 C 15.00 35.92 21.53 28.69 27.01 21.00 Z" />
</g>
<g id="#fa2504ff">
<path fill="#fa2504" opacity="1.00" d=" M 129.85 11.65 C 135.65 13.80 141.52 15.75 147.30 17.94 C 147.70 18.93 148.10 19.93 148.48 20.93 C 146.72 23.43 145.02 26.49 141.88 27.38 C 138.20 26.35 134.86 24.38 131.25 23.13 C 129.80 24.41 128.47 25.91 126.70 26.74 C 122.90 26.73 119.27 25.07 115.45 25.24 C 113.94 26.82 113.13 29.06 111.35 30.33 C 105.99 31.80 99.88 30.84 95.02 34.00 C 93.01 35.25 92.80 37.82 92.92 39.96 C 93.46 47.68 94.54 55.67 98.81 62.32 C 98.94 62.82 99.19 63.82 99.31 64.33 C 98.71 68.32 99.23 72.35 99.58 76.34 C 100.16 81.67 96.98 86.38 96.39 91.57 C 95.75 96.39 94.35 101.15 91.32 105.05 C 89.58 103.78 87.86 102.48 86.12 101.22 C 84.62 102.97 83.22 104.84 81.40 106.27 C 78.95 106.14 76.65 104.84 74.15 105.18 C 71.67 105.43 69.20 105.05 66.80 104.41 C 63.19 103.46 59.40 104.23 55.77 103.40 C 53.07 102.62 51.02 100.53 48.43 99.51 C 46.16 98.67 43.71 98.43 41.48 97.48 C 39.45 95.90 38.02 93.70 36.14 91.95 C 34.35 90.07 31.81 88.61 31.25 85.89 C 30.26 82.48 29.38 79.04 28.12 75.71 C 26.70 75.91 25.27 76.10 23.84 76.29 C 20.68 64.25 16.03 52.41 15.77 39.80 C 17.30 36.49 19.35 33.46 21.66 30.65 C 23.65 44.15 26.81 57.45 30.49 70.58 C 32.17 70.27 33.84 69.96 35.52 69.65 C 36.91 74.21 38.20 78.80 39.62 83.36 C 41.47 83.77 43.32 84.19 45.17 84.61 C 45.59 86.24 46.00 87.86 46.42 89.49 C 53.09 90.41 59.54 92.46 66.14 93.63 C 72.77 92.29 79.49 91.00 86.29 91.22 C 89.04 87.30 89.01 82.03 90.81 77.61 C 92.18 77.92 93.56 78.23 94.93 78.54 C 95.70 65.16 93.13 51.92 89.65 39.07 C 90.96 35.60 93.90 33.28 96.10 30.43 C 96.60 28.44 96.44 26.36 96.49 24.33 C 101.54 22.03 107.12 22.33 112.51 22.74 C 113.44 20.97 114.34 19.18 115.26 17.40 C 119.26 18.30 123.27 20.14 127.43 19.59 C 129.60 17.53 130.25 14.52 129.85 11.65 Z" />
</g>
<g id="#fd4002ff">
<path fill="#fd4002" opacity="1.00" d=" M 147.30 17.94 C 153.75 20.59 160.11 23.47 166.59 26.06 C 166.66 29.67 163.82 33.25 160.01 33.02 C 155.57 32.24 151.63 29.83 147.36 28.46 C 145.80 30.02 144.26 31.61 142.70 33.18 C 138.25 32.20 133.89 30.81 129.44 29.82 C 128.44 31.44 127.45 33.05 126.46 34.67 C 120.08 33.78 113.63 32.89 107.19 33.53 C 105.05 33.79 102.74 34.26 101.15 35.83 C 100.26 38.82 100.38 42.03 99.15 44.93 C 98.06 46.63 96.43 48.09 95.93 50.09 C 96.51 54.24 98.06 58.19 98.81 62.32 C 94.54 55.67 93.46 47.68 92.92 39.96 C 92.80 37.82 93.01 35.25 95.02 34.00 C 99.88 30.84 105.99 31.80 111.35 30.33 C 113.13 29.06 113.94 26.82 115.45 25.24 C 119.27 25.07 122.90 26.73 126.70 26.74 C 128.47 25.91 129.80 24.41 131.25 23.13 C 134.86 24.38 138.20 26.35 141.88 27.38 C 145.02 26.49 146.72 23.43 148.48 20.93 C 148.10 19.93 147.70 18.93 147.30 17.94 Z" />
</g>
<g id="#fd5702ff">
<path fill="#fd5702" opacity="1.00" d=" M 166.59 26.06 C 173.40 29.05 180.02 32.47 186.58 35.96 C 183.98 38.22 181.42 41.04 177.87 41.66 C 173.16 41.12 169.56 37.39 164.96 36.43 C 162.62 36.81 160.83 38.68 158.85 39.89 C 154.40 38.51 150.13 36.62 145.65 35.33 C 144.41 36.93 143.24 38.62 141.68 39.93 C 133.13 38.31 124.54 36.45 115.78 36.25 C 115.32 38.33 114.92 40.43 114.45 42.52 C 109.31 43.09 104.20 43.80 99.15 44.93 C 100.38 42.03 100.26 38.82 101.15 35.83 C 102.74 34.26 105.05 33.79 107.19 33.53 C 113.63 32.89 120.08 33.78 126.46 34.67 C 127.45 33.05 128.44 31.44 129.44 29.82 C 133.89 30.81 138.25 32.20 142.70 33.18 C 144.26 31.61 145.80 30.02 147.36 28.46 C 151.63 29.83 155.57 32.24 160.01 33.02 C 163.82 33.25 166.66 29.67 166.59 26.06 Z" />
</g>
<g id="#fe6e02ff">
<path fill="#fe6e02" opacity="1.00" d=" M 145.65 35.33 C 150.13 36.62 154.40 38.51 158.85 39.89 C 160.83 38.68 162.62 36.81 164.96 36.43 C 169.56 37.39 173.16 41.12 177.87 41.66 C 181.42 41.04 183.98 38.22 186.58 35.96 C 191.02 38.37 195.41 40.87 200.02 42.94 C 200.87 43.71 201.72 44.46 202.57 45.22 C 199.84 47.44 196.84 50.13 193.07 49.92 C 188.88 49.20 185.76 45.90 181.77 44.66 C 179.40 45.10 177.29 46.39 174.95 46.97 C 170.34 46.60 166.72 43.06 162.21 42.24 C 160.11 42.94 159.01 45.47 156.84 45.92 C 152.51 45.35 148.69 42.61 144.23 42.59 C 139.24 42.49 134.43 41.12 129.60 40.00 C 129.22 41.97 128.83 43.94 128.46 45.91 C 119.58 45.58 110.17 43.11 101.65 46.68 C 100.88 52.28 101.57 58.08 99.54 63.49 L 99.31 64.33 C 99.19 63.82 98.94 62.82 98.81 62.32 C 98.06 58.19 96.51 54.24 95.93 50.09 C 96.43 48.09 98.06 46.63 99.15 44.93 C 104.20 43.80 109.31 43.09 114.45 42.52 C 114.92 40.43 115.32 38.33 115.78 36.25 C 124.54 36.45 133.13 38.31 141.68 39.93 C 143.24 38.62 144.41 36.93 145.65 35.33 Z" />
</g>
<g id="#f94205ff">
<path fill="#f94205" opacity="1.00" d=" M 13.66 43.71 C 14.39 42.42 15.10 41.12 15.77 39.80 C 16.03 52.41 20.68 64.25 23.84 76.29 C 25.27 76.10 26.70 75.91 28.12 75.71 C 29.38 79.04 30.26 82.48 31.25 85.89 C 31.81 88.61 34.35 90.07 36.14 91.95 C 38.02 93.70 39.45 95.90 41.48 97.48 C 43.71 98.43 46.16 98.67 48.43 99.51 C 51.02 100.53 53.07 102.62 55.77 103.40 C 59.40 104.23 63.19 103.46 66.80 104.41 C 69.20 105.05 71.67 105.43 74.15 105.18 C 76.65 104.84 78.95 106.14 81.40 106.27 C 83.22 104.84 84.62 102.97 86.12 101.22 C 87.86 102.48 89.58 103.78 91.32 105.05 C 94.35 101.15 95.75 96.39 96.39 91.57 C 96.98 86.38 100.16 81.67 99.58 76.34 C 99.23 72.35 98.71 68.32 99.31 64.33 L 99.54 63.49 C 100.16 65.14 100.88 66.75 101.56 68.37 C 101.49 80.75 104.56 93.60 100.11 105.58 C 98.64 104.79 97.17 104.01 95.70 103.23 C 93.23 106.83 90.90 110.53 88.30 114.03 C 86.57 112.84 84.87 111.61 83.15 110.42 C 81.45 111.52 79.76 112.64 78.04 113.72 C 71.91 111.44 65.29 111.08 59.11 108.99 C 51.08 106.22 42.63 104.71 34.89 101.13 C 32.63 100.30 32.20 97.65 31.05 95.83 C 29.22 91.85 25.01 89.32 24.12 84.86 C 22.35 77.99 20.54 71.13 18.61 64.31 C 16.91 57.45 13.14 51.00 13.66 43.71 Z" />
</g>
<g id="#fe8302ff">
<path fill="#fe8302" opacity="1.00" d=" M 129.60 40.00 C 134.43 41.12 139.24 42.49 144.23 42.59 C 148.69 42.61 152.51 45.35 156.84 45.92 C 159.01 45.47 160.11 42.94 162.21 42.24 C 166.72 43.06 170.34 46.60 174.95 46.97 C 177.29 46.39 179.40 45.10 181.77 44.66 C 185.76 45.90 188.88 49.20 193.07 49.92 C 196.84 50.13 199.84 47.44 202.57 45.22 C 207.07 48.36 211.58 51.50 215.68 55.16 C 213.20 57.74 209.81 59.90 206.08 59.40 C 202.57 58.11 200.00 55.07 196.46 53.85 C 193.74 53.83 191.21 55.63 188.52 55.31 C 184.95 53.74 181.77 51.40 178.19 49.85 C 176.42 51.11 174.68 52.41 172.90 53.68 C 168.37 51.83 163.93 49.49 158.98 49.02 C 154.33 48.52 149.87 47.08 145.49 45.49 C 144.23 47.16 143.06 48.94 141.46 50.32 C 133.56 48.95 125.67 46.81 117.58 46.81 C 115.27 48.34 116.19 52.00 115.46 54.43 C 112.24 55.12 109.01 55.81 105.92 56.97 C 104.09 57.64 102.38 58.79 101.32 60.44 C 101.08 62.82 101.48 65.19 101.54 67.56 L 101.56 68.37 C 100.88 66.75 100.16 65.14 99.54 63.49 C 101.57 58.08 100.88 52.28 101.65 46.68 C 110.17 43.11 119.58 45.58 128.46 45.91 C 128.83 43.94 129.22 41.97 129.60 40.00 Z" />
</g>
<g id="#f4bf78ff">
<path fill="#f4bf78" opacity="1.00" d=" M 200.02 42.94 C 203.61 44.53 207.12 46.34 210.16 48.84 C 214.73 52.59 219.60 55.99 223.85 60.11 L 224.26 60.86 C 221.25 59.20 218.35 57.33 215.68 55.16 C 211.58 51.50 207.07 48.36 202.57 45.22 C 201.72 44.46 200.87 43.71 200.02 42.94 Z" />
</g>
<g id="#f95e05ff">
<path fill="#f95e05" opacity="1.00" d=" M 11.71 45.98 C 12.36 45.22 13.01 44.47 13.66 43.71 C 13.14 51.00 16.91 57.45 18.61 64.31 C 20.54 71.13 22.35 77.99 24.12 84.86 C 25.01 89.32 29.22 91.85 31.05 95.83 C 32.20 97.65 32.63 100.30 34.89 101.13 C 42.63 104.71 51.08 106.22 59.11 108.99 C 65.29 111.08 71.91 111.44 78.04 113.72 C 79.76 112.64 81.45 111.52 83.15 110.42 C 84.87 111.61 86.57 112.84 88.30 114.03 C 90.90 110.53 93.23 106.83 95.70 103.23 C 97.17 104.01 98.64 104.79 100.11 105.58 C 104.56 93.60 101.49 80.75 101.56 68.37 L 101.54 67.56 C 103.08 71.53 104.18 75.65 105.34 79.74 C 105.41 91.96 105.08 104.66 99.99 116.00 C 98.70 119.10 96.54 121.69 94.26 124.10 C 92.71 122.79 91.20 121.44 89.66 120.13 C 87.13 121.40 84.59 122.66 82.05 123.91 C 74.21 120.68 66.66 116.66 58.43 114.45 C 51.89 112.67 45.06 112.85 38.39 111.91 C 34.22 111.45 30.86 108.65 27.67 106.17 C 25.26 104.37 25.42 101.02 24.43 98.43 C 23.94 95.41 20.59 94.42 19.20 91.95 C 17.92 89.69 16.98 87.25 16.06 84.82 C 13.84 74.51 10.40 64.39 9.55 53.83 C 10.34 51.23 11.05 48.61 11.71 45.98 Z" />
</g>
<g id="#f7c681ff">
<path fill="#f7c681" opacity="1.00" d=" M 4.04 69.96 C 5.65 61.38 7.66 52.70 11.94 45.03 L 11.71 45.98 C 11.05 48.61 10.34 51.23 9.55 53.83 C 7.84 58.70 6.53 63.69 5.39 68.73 C 4.99 69.88 4.55 71.02 4.14 72.17 C 4.12 71.62 4.07 70.51 4.04 69.96 Z" />
</g>
<g id="#fe9702ff">
<path fill="#fe9702" opacity="1.00" d=" M 145.49 45.49 C 149.87 47.08 154.33 48.52 158.98 49.02 C 163.93 49.49 168.37 51.83 172.90 53.68 C 174.68 52.41 176.42 51.11 178.19 49.85 C 181.77 51.40 184.95 53.74 188.52 55.31 C 191.21 55.63 193.74 53.83 196.46 53.85 C 200.00 55.07 202.57 58.11 206.08 59.40 C 209.81 59.90 213.20 57.74 215.68 55.16 C 218.35 57.33 221.25 59.20 224.26 60.86 C 224.54 61.38 225.08 62.41 225.35 62.93 C 225.40 64.23 225.41 65.53 225.43 66.84 C 222.35 67.55 219.25 68.69 216.04 68.41 C 213.23 67.33 211.44 64.58 208.73 63.27 C 206.14 63.29 203.63 64.04 201.12 64.61 C 198.32 62.63 195.80 60.24 192.80 58.56 C 190.67 58.95 188.80 60.11 186.88 61.03 C 182.72 59.11 178.80 56.39 174.16 55.83 C 169.76 55.23 165.55 53.83 161.34 52.51 C 159.62 53.68 158.05 55.30 155.97 55.77 C 152.08 55.28 148.55 53.29 144.66 52.73 C 139.70 52.02 134.76 51.16 129.81 50.32 C 129.30 52.74 128.82 55.17 128.31 57.59 C 120.89 56.54 113.38 56.44 105.92 56.97 C 109.01 55.81 112.24 55.12 115.46 54.43 C 116.19 52.00 115.27 48.34 117.58 46.81 C 125.67 46.81 133.56 48.95 141.46 50.32 C 143.06 48.94 144.23 47.16 145.49 45.49 Z" />
</g>
<g id="#fdb002ff">
<path fill="#fdb002" opacity="1.00" d=" M 129.81 50.32 C 134.76 51.16 139.70 52.02 144.66 52.73 C 148.55 53.29 152.08 55.28 155.97 55.77 C 158.05 55.30 159.62 53.68 161.34 52.51 C 165.55 53.83 169.76 55.23 174.16 55.83 C 178.80 56.39 182.72 59.11 186.88 61.03 C 188.80 60.11 190.67 58.95 192.80 58.56 C 195.80 60.24 198.32 62.63 201.12 64.61 C 203.63 64.04 206.14 63.29 208.73 63.27 C 211.44 64.58 213.23 67.33 216.04 68.41 C 219.25 68.69 222.35 67.55 225.43 66.84 C 225.41 65.53 225.40 64.23 225.35 62.93 C 228.66 66.96 232.34 70.68 235.52 74.82 C 235.06 75.98 234.60 77.14 234.14 78.29 C 228.23 79.62 220.74 82.00 215.73 77.33 C 212.58 74.89 208.57 73.99 205.31 71.71 C 202.45 69.54 198.53 71.19 195.51 69.44 C 193.37 68.32 191.35 67.00 189.26 65.79 C 187.17 66.51 184.93 68.40 182.68 67.25 C 179.16 65.72 175.83 63.60 171.94 63.08 C 167.35 62.35 162.97 60.77 158.59 59.24 C 157.60 60.78 156.67 62.37 155.44 63.75 C 154.08 63.87 152.71 63.70 151.36 63.49 C 139.00 61.14 126.63 57.89 113.95 58.08 C 111.51 58.29 108.24 58.35 106.91 60.78 C 106.16 64.48 106.03 68.28 105.43 72.00 C 105.37 73.32 105.38 74.65 105.46 75.97 C 106.37 79.17 107.34 82.36 108.03 85.62 C 108.16 86.19 108.43 87.33 108.56 87.90 C 109.34 91.05 110.48 94.11 111.34 97.24 C 111.71 99.20 112.00 101.18 112.27 103.16 C 113.06 108.76 113.92 114.42 113.31 120.08 C 112.84 124.81 111.69 129.44 110.06 133.89 C 108.86 132.74 107.67 131.59 106.49 130.44 C 102.19 135.45 98.21 141.52 91.44 143.32 C 89.56 140.82 87.15 138.81 84.27 137.56 C 83.52 136.58 82.77 135.60 82.07 134.59 C 81.83 134.14 81.33 133.26 81.08 132.82 C 80.83 132.31 80.33 131.30 80.08 130.79 L 79.72 130.10 C 81.91 131.67 84.17 133.16 86.37 134.72 C 89.21 133.30 92.01 131.79 94.76 130.22 C 96.02 132.12 97.24 134.04 98.50 135.93 C 103.43 132.23 106.17 126.49 107.62 120.63 C 111.71 107.19 109.04 92.93 105.34 79.74 C 104.18 75.65 103.08 71.53 101.54 67.56 C 101.48 65.19 101.08 62.82 101.32 60.44 C 102.38 58.79 104.09 57.64 105.92 56.97 C 113.38 56.44 120.89 56.54 128.31 57.59 C 128.82 55.17 129.30 52.74 129.81 50.32 Z" />
</g>
<g id="#f99b06ff">
<path fill="#f99b06" opacity="1.00" d=" M 5.39 68.73 C 6.53 63.69 7.84 58.70 9.55 53.83 C 10.40 64.39 13.84 74.51 16.06 84.82 C 16.98 90.04 17.93 95.27 19.42 100.36 C 20.66 105.21 24.30 108.86 27.36 112.64 C 29.20 115.10 32.52 115.09 35.29 115.42 C 45.37 116.07 55.55 116.35 65.44 118.57 C 68.33 119.19 70.88 120.79 73.08 122.73 C 67.23 120.75 60.99 121.52 54.97 121.88 C 49.56 122.31 44.12 122.37 38.72 122.93 C 33.80 123.61 28.83 121.85 23.96 123.22 C 20.78 117.66 18.13 111.79 14.21 106.69 C 11.16 94.06 7.26 81.60 5.39 68.73 Z" />
</g>
<g id="#fdc402ff">
<path fill="#fdc402" opacity="1.00" d=" M 106.91 60.78 C 108.24 58.35 111.51 58.29 113.95 58.08 C 126.63 57.89 139.00 61.14 151.36 63.49 C 152.71 63.70 154.08 63.87 155.44 63.75 C 156.67 62.37 157.60 60.78 158.59 59.24 C 162.97 60.77 167.35 62.35 171.94 63.08 C 175.83 63.60 179.16 65.72 182.68 67.25 C 184.93 68.40 187.17 66.51 189.26 65.79 C 191.35 67.00 193.37 68.32 195.51 69.44 C 198.53 71.19 202.45 69.54 205.31 71.71 C 208.57 73.99 212.58 74.89 215.73 77.33 C 220.74 82.00 228.23 79.62 234.14 78.29 C 234.60 77.14 235.06 75.98 235.52 74.82 C 236.51 76.14 237.46 77.50 238.33 78.91 C 237.10 81.96 236.39 85.51 233.91 87.83 C 231.23 88.96 228.22 89.09 225.60 90.36 C 224.51 91.40 223.74 92.71 222.94 93.97 C 222.61 92.69 222.29 91.40 221.95 90.12 C 219.58 88.91 217.24 87.54 215.48 85.51 C 211.87 81.34 207.20 78.32 202.58 75.43 C 199.86 73.65 196.40 76.11 193.65 74.37 C 187.43 70.53 180.18 68.93 173.86 65.27 C 172.41 66.86 170.97 68.44 169.54 70.04 C 157.49 66.34 145.23 63.19 132.72 61.44 C 131.31 61.38 129.40 61.02 128.53 62.47 C 127.67 64.15 127.31 66.03 126.83 67.84 C 119.74 69.53 112.15 68.82 105.43 72.00 C 106.03 68.28 106.16 64.48 106.91 60.78 Z" />
</g>
<g id="#f8e589ff">
<path fill="#f8e589" opacity="1.00" d=" M 223.85 60.11 C 228.14 63.84 231.82 68.19 235.48 72.51 C 240.28 78.11 243.27 85.06 245.05 92.17 L 244.53 91.54 C 243.15 89.50 242.15 87.26 241.23 84.99 C 240.40 82.91 239.44 80.87 238.33 78.91 C 237.46 77.50 236.51 76.14 235.52 74.82 C 232.34 70.68 228.66 66.96 225.35 62.93 C 225.08 62.41 224.54 61.38 224.26 60.86 L 223.85 60.11 Z" />
</g>
<g id="#fcd803ff">
<path fill="#fcd803" opacity="1.00" d=" M 128.53 62.47 C 129.40 61.02 131.31 61.38 132.72 61.44 C 145.23 63.19 157.49 66.34 169.54 70.04 C 170.97 68.44 172.41 66.86 173.86 65.27 C 180.18 68.93 187.43 70.53 193.65 74.37 C 196.40 76.11 199.86 73.65 202.58 75.43 C 207.20 78.32 211.87 81.34 215.48 85.51 C 217.24 87.54 219.58 88.91 221.95 90.12 C 222.29 91.40 222.61 92.69 222.94 93.97 C 223.74 92.71 224.51 91.40 225.60 90.36 C 228.22 89.09 231.23 88.96 233.91 87.83 C 236.39 85.51 237.10 81.96 238.33 78.91 C 239.44 80.87 240.40 82.91 241.23 84.99 C 241.46 88.85 240.68 92.98 237.50 95.51 C 233.59 100.26 226.59 99.65 222.40 104.00 C 217.94 101.26 213.12 99.14 208.17 97.47 C 208.67 97.33 209.69 97.03 210.20 96.88 C 214.91 93.46 211.10 86.67 207.11 84.44 C 201.34 81.85 196.37 77.80 190.55 75.36 C 186.85 73.51 182.78 76.87 179.09 74.87 C 173.95 72.69 168.48 71.49 163.19 69.75 C 157.35 67.36 150.70 69.59 145.06 66.40 C 144.10 68.05 143.17 69.72 142.24 71.39 C 140.11 71.72 137.97 72.07 135.82 72.25 C 127.23 70.92 118.23 69.24 109.68 71.67 C 107.48 72.11 106.56 74.28 105.46 75.97 C 105.38 74.65 105.37 73.32 105.43 72.00 C 112.15 68.82 119.74 69.53 126.83 67.84 C 127.31 66.03 127.67 64.15 128.53 62.47 Z" />
</g>
<g id="#fbeb03ff">
<path fill="#fbeb03" opacity="1.00" d=" M 142.24 71.39 C 143.17 69.72 144.10 68.05 145.06 66.40 C 150.70 69.59 157.35 67.36 163.19 69.75 C 168.48 71.49 173.95 72.69 179.09 74.87 C 182.78 76.87 186.85 73.51 190.55 75.36 C 196.37 77.80 201.34 81.85 207.11 84.44 C 211.10 86.67 214.91 93.46 210.20 96.88 C 209.29 94.07 208.68 90.81 206.21 88.89 C 204.70 88.00 202.93 87.77 201.28 87.28 C 196.47 86.17 192.71 82.74 188.29 80.73 C 182.79 78.17 177.15 75.89 171.41 73.91 C 170.39 75.58 169.37 77.25 168.35 78.93 C 157.62 76.17 146.67 74.49 135.82 72.25 C 137.97 72.07 140.11 71.72 142.24 71.39 Z" />
</g>
<g id="#f9d507ff">
<path fill="#f9d507" opacity="1.00" d=" M 4.14 72.17 C 4.55 71.02 4.99 69.88 5.39 68.73 C 7.26 81.60 11.16 94.06 14.21 106.69 C 15.22 111.86 15.34 117.40 17.83 122.14 C 21.39 125.71 26.49 128.47 31.68 127.75 C 40.98 126.64 50.39 126.55 59.60 124.73 C 64.75 123.70 70.04 124.01 75.21 124.74 C 76.79 126.46 78.26 128.27 79.72 130.10 L 80.08 130.79 C 77.12 129.06 74.03 126.22 70.33 127.41 C 65.53 128.51 60.62 128.79 55.71 129.06 C 46.97 129.57 38.47 132.87 29.65 131.47 C 26.19 130.82 21.76 134.31 19.22 130.81 C 16.07 126.49 15.96 120.85 13.82 116.07 C 11.23 110.32 8.49 104.65 5.86 98.92 C 3.43 92.89 2.00 86.37 2.77 79.85 C 3.10 77.27 3.68 74.73 4.14 72.17 Z" />
</g>
<g id="#ecfb98ff">
<path fill="#ecfb98" opacity="1.00" d=" M 0.00 85.65 C 1.16 80.37 2.55 75.15 4.04 69.96 C 4.07 70.51 4.12 71.62 4.14 72.17 C 3.68 74.73 3.10 77.27 2.77 79.85 C 2.30 84.60 2.06 89.46 0.00 93.85 L 0.00 85.65 Z" />
</g>
<g id="#ebfc0bff">
<path fill="#ebfc0b" opacity="1.00" d=" M 109.68 71.67 C 118.23 69.24 127.23 70.92 135.82 72.25 C 146.67 74.49 157.62 76.17 168.35 78.93 C 169.37 77.25 170.39 75.58 171.41 73.91 C 177.15 75.89 182.79 78.17 188.29 80.73 C 192.71 82.74 196.47 86.17 201.28 87.28 C 202.93 87.77 204.70 88.00 206.21 88.89 C 208.68 90.81 209.29 94.07 210.20 96.88 C 209.69 97.03 208.67 97.33 208.17 97.47 L 207.28 97.24 C 204.04 93.98 200.87 90.42 196.66 88.39 C 194.22 87.63 191.57 88.55 189.11 87.82 C 177.60 83.54 165.76 80.18 153.87 77.15 C 149.17 76.02 144.40 75.04 139.55 75.08 C 138.82 77.22 138.14 79.37 137.39 81.50 C 127.55 81.73 117.01 80.81 108.03 85.62 C 107.34 82.36 106.37 79.17 105.46 75.97 C 106.56 74.28 107.48 72.11 109.68 71.67 Z" />
</g>
<g id="#d9fe1dff">
<path fill="#d9fe1d" opacity="1.00" d=" M 139.55 75.08 C 144.40 75.04 149.17 76.02 153.87 77.15 C 165.76 80.18 177.60 83.54 189.11 87.82 C 191.57 88.55 194.22 87.63 196.66 88.39 C 200.87 90.42 204.04 93.98 207.28 97.24 C 206.53 97.12 205.01 96.87 204.25 96.75 C 201.61 96.30 199.00 95.67 196.41 95.02 C 188.57 88.56 178.30 87.11 169.15 83.41 C 167.24 84.64 165.51 86.88 163.05 86.73 C 152.69 85.21 142.22 83.24 131.70 84.16 C 124.01 84.34 114.77 82.06 108.56 87.90 C 108.43 87.33 108.16 86.19 108.03 85.62 C 117.01 80.81 127.55 81.73 137.39 81.50 C 138.14 79.37 138.82 77.22 139.55 75.08 Z" />
</g>
<g id="#cbfa2cff">
<path fill="#cbfa2c" opacity="1.00" d=" M 0.00 93.85 C 2.06 89.46 2.30 84.60 2.77 79.85 C 2.00 86.37 3.43 92.89 5.86 98.92 C 7.65 109.48 11.62 119.51 13.66 130.02 C 14.23 132.77 14.56 135.62 15.69 138.22 C 16.99 141.38 20.70 142.65 23.87 142.70 C 25.43 142.24 26.40 140.69 27.59 139.65 C 34.39 139.24 41.24 140.19 48.00 139.12 C 59.40 137.81 70.51 134.28 82.07 134.59 C 82.77 135.60 83.52 136.58 84.27 137.56 C 84.94 139.28 85.53 141.03 86.23 142.73 C 84.32 141.44 82.39 139.87 80.05 139.53 C 76.34 140.51 72.97 142.70 69.04 142.81 C 61.74 143.06 54.68 145.14 47.41 145.70 C 39.96 146.36 32.50 147.26 25.01 146.89 C 20.56 146.54 15.19 145.30 13.29 140.72 C 10.43 134.06 8.08 127.17 5.88 120.27 C 3.59 113.32 2.71 105.98 0.00 99.16 L 0.00 93.85 Z" />
</g>
<g id="#fb8204ff">
<path fill="#fb8204" opacity="1.00" d=" M 105.34 79.74 C 109.04 92.93 111.71 107.19 107.62 120.63 C 106.17 126.49 103.43 132.23 98.50 135.93 C 97.24 134.04 96.02 132.12 94.76 130.22 C 92.01 131.79 89.21 133.30 86.37 134.72 C 84.17 133.16 81.91 131.67 79.72 130.10 C 78.26 128.27 76.79 126.46 75.21 124.74 C 74.53 124.04 73.82 123.37 73.08 122.73 C 70.88 120.79 68.33 119.19 65.44 118.57 C 55.55 116.35 45.37 116.07 35.29 115.42 C 32.52 115.09 29.20 115.10 27.36 112.64 C 24.30 108.86 20.66 105.21 19.42 100.36 C 17.93 95.27 16.98 90.04 16.06 84.82 C 16.98 87.25 17.92 89.69 19.20 91.95 C 20.59 94.42 23.94 95.41 24.43 98.43 C 25.42 101.02 25.26 104.37 27.67 106.17 C 30.86 108.65 34.22 111.45 38.39 111.91 C 45.06 112.85 51.89 112.67 58.43 114.45 C 66.66 116.66 74.21 120.68 82.05 123.91 C 84.59 122.66 87.13 121.40 89.66 120.13 C 91.20 121.44 92.71 122.79 94.26 124.10 C 96.54 121.69 98.70 119.10 99.99 116.00 C 105.08 104.66 105.41 91.96 105.34 79.74 Z" />
</g>
<g id="#ccfe2bff">
<path fill="#ccfe2b" opacity="1.00" d=" M 163.05 86.73 C 165.51 86.88 167.24 84.64 169.15 83.41 C 178.30 87.11 188.57 88.56 196.41 95.02 C 191.01 95.18 185.62 95.37 180.22 95.16 C 172.65 90.83 163.92 89.61 155.58 87.53 C 147.75 85.59 139.65 85.39 131.70 84.16 C 142.22 83.24 152.69 85.21 163.05 86.73 Z" />
</g>
<g id="#b6fe41ff">
<path fill="#b6fe41" opacity="1.00" d=" M 108.56 87.90 C 114.77 82.06 124.01 84.34 131.70 84.16 C 139.65 85.39 147.75 85.59 155.58 87.53 C 163.92 89.61 172.65 90.83 180.22 95.16 C 178.62 95.18 177.03 95.25 175.43 95.30 C 166.71 90.79 156.92 89.14 147.31 87.68 C 144.84 87.30 142.34 87.28 139.85 87.36 C 139.28 89.41 138.80 91.49 138.23 93.54 C 129.15 93.69 120.01 94.33 111.34 97.24 C 110.48 94.11 109.34 91.05 108.56 87.90 Z" />
</g>
<g id="#f3f508ff">
<path fill="#f3f508" opacity="1.00" d=" M 241.23 84.99 C 242.15 87.26 243.15 89.50 244.53 91.54 C 244.51 94.66 244.93 98.16 242.81 100.76 C 239.72 105.68 234.04 107.73 228.80 109.47 C 226.80 107.51 224.65 105.68 222.40 104.00 C 226.59 99.65 233.59 100.26 237.50 95.51 C 240.68 92.98 241.46 88.85 241.23 84.99 Z" />
</g>
<g id="#aafe4dff">
<path fill="#aafe4d" opacity="1.00" d=" M 139.85 87.36 C 142.34 87.28 144.84 87.30 147.31 87.68 C 156.92 89.14 166.71 90.79 175.43 95.30 C 169.08 96.82 162.68 98.16 156.23 99.19 C 148.15 98.33 140.17 96.30 131.99 96.61 C 126.52 96.83 120.95 97.02 115.65 98.52 C 113.47 98.96 113.11 101.48 112.27 103.16 C 112.00 101.18 111.71 99.20 111.34 97.24 C 120.01 94.33 129.15 93.69 138.23 93.54 C 138.80 91.49 139.28 89.41 139.85 87.36 Z" />
</g>
<g id="#dcfe1bff">
<path fill="#dcfe1b" opacity="1.00" d=" M 244.53 91.54 L 245.05 92.17 C 245.28 92.64 245.73 93.59 245.95 94.07 C 246.51 96.36 246.94 98.68 247.29 101.01 C 245.42 107.84 239.47 112.71 232.81 114.56 C 231.62 112.76 230.29 111.05 228.80 109.47 C 234.04 107.73 239.72 105.68 242.81 100.76 C 244.93 98.16 244.51 94.66 244.53 91.54 Z" />
</g>
<g id="#dcfb95ff">
<path fill="#dcfb95" opacity="1.00" d=" M 245.95 94.07 C 247.39 97.20 248.82 100.34 250.00 103.58 L 250.00 109.53 C 249.59 109.07 248.77 108.15 248.36 107.69 C 247.99 105.47 247.63 103.24 247.29 101.01 C 246.94 98.68 246.51 96.36 245.95 94.07 Z" />
</g>
<g id="#628d2bff">
<path fill="#628d2b" opacity="1.00" d=" M 175.43 95.30 C 177.03 95.25 178.62 95.18 180.22 95.16 C 185.62 95.37 191.01 95.18 196.41 95.02 C 199.00 95.67 201.61 96.30 204.25 96.75 C 200.44 96.42 196.62 96.39 192.81 96.27 C 185.82 95.66 178.93 97.15 172.00 97.77 C 164.76 98.38 157.84 100.75 150.65 101.66 C 150.25 101.72 149.46 101.85 149.06 101.92 C 151.43 100.96 153.77 99.91 156.23 99.19 C 162.68 98.16 169.08 96.82 175.43 95.30 Z" />
</g>
<g id="#000000ff">
<path fill="#000000" opacity="1.00" d=" M 172.00 97.77 C 178.93 97.15 185.82 95.66 192.81 96.27 C 200.12 97.92 207.86 97.93 214.70 101.31 C 225.86 106.08 235.10 116.33 236.29 128.72 C 237.00 137.87 235.21 147.76 228.42 154.42 C 223.98 159.47 217.40 161.39 211.71 164.51 C 211.59 164.80 211.33 165.39 211.21 165.69 C 214.51 167.73 218.34 168.59 222.08 169.49 C 222.51 169.71 223.38 170.14 223.81 170.35 C 230.98 174.42 236.29 181.32 238.87 189.10 C 241.11 194.81 240.46 201.04 240.43 207.03 C 239.61 218.47 233.47 229.53 223.94 236.00 C 212.67 243.89 198.52 246.50 185.00 246.42 C 171.19 246.80 157.45 243.84 144.48 239.28 C 144.43 233.13 144.32 226.97 144.56 220.82 C 150.51 223.40 156.40 226.25 162.76 227.67 C 171.99 229.98 181.58 229.89 191.03 229.49 C 199.59 228.73 208.55 226.03 214.55 219.56 C 219.21 214.63 221.26 207.69 220.69 200.99 C 221.40 192.95 217.22 184.92 210.62 180.41 C 207.52 178.22 203.98 176.76 200.43 175.45 L 199.73 175.18 C 195.91 172.79 191.30 173.25 187.00 173.27 C 181.60 173.39 176.19 173.40 170.79 173.12 C 170.37 168.37 170.36 163.60 170.75 158.84 C 182.06 157.67 194.10 160.88 204.76 155.81 C 210.81 153.43 216.51 148.49 217.05 141.62 C 218.03 136.26 217.75 130.67 216.08 125.46 L 215.89 124.82 C 214.75 123.21 213.57 121.63 212.25 120.18 C 210.78 118.83 209.20 117.62 207.53 116.53 C 206.07 115.66 204.56 114.87 203.04 114.12 L 202.39 113.95 C 195.10 111.93 187.49 112.15 180.01 112.37 C 171.80 112.82 163.64 114.31 155.87 117.03 C 153.87 117.11 151.86 117.09 149.86 117.10 C 149.27 111.95 149.24 106.69 150.65 101.66 C 157.84 100.75 164.76 98.38 172.00 97.77 Z" />
</g>
<g id="#6b8020ff">
<path fill="#6b8020" opacity="1.00" d=" M 192.81 96.27 C 196.62 96.39 200.44 96.42 204.25 96.75 C 205.01 96.87 206.53 97.12 207.28 97.24 L 208.17 97.47 C 213.12 99.14 217.94 101.26 222.40 104.00 C 224.65 105.68 226.80 107.51 228.80 109.47 C 230.29 111.05 231.62 112.76 232.81 114.56 C 233.67 116.12 234.42 117.72 235.11 119.35 C 235.79 121.03 236.39 122.74 236.90 124.48 C 237.34 126.68 237.60 128.92 237.79 131.15 C 237.88 132.91 237.91 134.68 237.90 136.45 C 237.76 137.28 237.60 138.11 237.41 138.93 C 237.11 135.52 236.71 132.12 236.29 128.72 C 235.10 116.33 225.86 106.08 214.70 101.31 C 207.86 97.93 200.12 97.92 192.81 96.27 Z" />
</g>
<g id="#80fe78ff">
<path fill="#80fe78" opacity="1.00" d=" M 115.65 98.52 C 120.95 97.02 126.52 96.83 131.99 96.61 C 140.17 96.30 148.15 98.33 156.23 99.19 C 153.77 99.91 151.43 100.96 149.06 101.92 L 148.33 102.16 C 148.30 104.09 148.27 106.03 148.26 107.96 C 137.35 107.94 126.11 106.98 115.57 110.40 C 115.35 113.70 115.12 117.01 115.18 120.32 L 115.23 121.01 C 114.75 120.78 113.79 120.32 113.31 120.08 C 113.92 114.42 113.06 108.76 112.27 103.16 C 113.11 101.48 113.47 98.96 115.65 98.52 Z" />
</g>
<g id="#f3ec09ff">
<path fill="#f3ec09" opacity="1.00" d=" M 5.86 98.92 C 8.49 104.65 11.23 110.32 13.82 116.07 C 15.96 120.85 16.07 126.49 19.22 130.81 C 21.76 134.31 26.19 130.82 29.65 131.47 C 38.47 132.87 46.97 129.57 55.71 129.06 C 60.62 128.79 65.53 128.51 70.33 127.41 C 74.03 126.22 77.12 129.06 80.08 130.79 C 80.33 131.30 80.83 132.31 81.08 132.82 C 77.75 132.07 74.43 131.01 70.98 131.05 C 67.73 131.25 64.72 132.60 61.56 133.26 C 55.63 134.50 49.54 134.03 43.54 134.39 C 39.06 134.60 35.69 138.80 31.02 138.11 C 24.21 138.34 18.93 133.63 13.66 130.02 C 11.62 119.51 7.65 109.48 5.86 98.92 Z" />
</g>
<g id="#a9fa4dff">
<path fill="#a9fa4d" opacity="1.00" d=" M 0.00 99.16 C 2.71 105.98 3.59 113.32 5.88 120.27 C 8.08 127.17 10.43 134.06 13.29 140.72 C 15.19 145.30 20.56 146.54 25.01 146.89 C 32.50 147.26 39.96 146.36 47.41 145.70 C 54.68 145.14 61.74 143.06 69.04 142.81 C 72.97 142.70 76.34 140.51 80.05 139.53 C 82.39 139.87 84.32 141.44 86.23 142.73 C 86.78 143.93 87.33 145.13 87.88 146.33 C 88.47 147.64 89.04 148.95 89.62 150.26 C 90.44 152.52 91.16 154.81 91.85 157.12 C 92.85 160.57 93.58 164.13 93.59 167.75 L 93.06 166.90 C 92.39 164.57 91.91 162.19 91.26 159.86 C 90.21 156.39 89.32 152.75 87.24 149.73 C 86.11 147.83 83.59 148.40 81.75 148.43 C 75.03 149.21 68.44 150.86 61.70 151.58 C 48.48 152.99 35.35 155.87 21.99 155.71 C 18.45 155.80 14.69 154.17 13.41 150.64 C 7.80 137.24 6.00 122.52 0.00 109.26 L 0.00 99.16 Z" />
</g>
<g id="#c6fd30ff">
<path fill="#c6fd30" opacity="1.00" d=" M 247.29 101.01 C 247.63 103.24 247.99 105.47 248.36 107.69 C 246.78 110.29 245.32 113.01 243.20 115.21 C 241.03 117.44 237.94 118.30 235.11 119.35 C 234.42 117.72 233.67 116.12 232.81 114.56 C 239.47 112.71 245.42 107.84 247.29 101.01 Z" />
</g>
<g id="#36632cff">
<path fill="#36632c" opacity="1.00" d=" M 148.33 102.16 L 149.06 101.92 C 149.46 101.85 150.25 101.72 150.65 101.66 C 149.24 106.69 149.27 111.95 149.86 117.10 C 151.86 117.09 153.87 117.11 155.87 117.03 C 153.33 117.90 150.71 118.71 147.99 118.54 C 148.24 115.02 148.25 111.49 148.26 107.96 C 148.27 106.03 148.30 104.09 148.33 102.16 Z" />
</g>
<g id="#f7be08ff">
<path fill="#f7be08" opacity="1.00" d=" M 14.21 106.69 C 18.13 111.79 20.78 117.66 23.96 123.22 C 28.83 121.85 33.80 123.61 38.72 122.93 C 44.12 122.37 49.56 122.31 54.97 121.88 C 60.99 121.52 67.23 120.75 73.08 122.73 C 73.82 123.37 74.53 124.04 75.21 124.74 C 70.04 124.01 64.75 123.70 59.60 124.73 C 50.39 126.55 40.98 126.64 31.68 127.75 C 26.49 128.47 21.39 125.71 17.83 122.14 C 15.34 117.40 15.22 111.86 14.21 106.69 Z" />
</g>
<g id="#51fda8ff">
<path fill="#51fda8" opacity="1.00" d=" M 115.57 110.40 C 126.11 106.98 137.35 107.94 148.26 107.96 C 148.25 111.49 148.24 115.02 147.99 118.54 C 137.01 118.09 126.17 121.39 115.18 120.32 C 115.12 117.01 115.35 113.70 115.57 110.40 Z" />
</g>
<g id="#b2fd48ff">
<path fill="#b2fd48" opacity="1.00" d=" M 248.36 107.69 C 248.77 108.15 249.59 109.07 250.00 109.53 L 250.00 112.55 C 246.86 117.65 243.09 122.99 236.90 124.48 C 236.39 122.74 235.79 121.03 235.11 119.35 C 237.94 118.30 241.03 117.44 243.20 115.21 C 245.32 113.01 246.78 110.29 248.36 107.69 Z" />
</g>
<g id="#88fa71ff">
<path fill="#88fa71" opacity="1.00" d=" M 0.00 109.26 C 6.00 122.52 7.80 137.24 13.41 150.64 C 14.69 154.17 18.45 155.80 21.99 155.71 C 35.35 155.87 48.48 152.99 61.70 151.58 C 68.44 150.86 75.03 149.21 81.75 148.43 C 83.59 148.40 86.11 147.83 87.24 149.73 C 89.32 152.75 90.21 156.39 91.26 159.86 C 89.56 158.16 87.77 155.74 85.08 155.99 C 69.49 156.71 54.41 161.27 38.91 162.63 C 32.10 163.46 25.26 165.71 18.36 164.42 C 15.66 164.01 13.70 161.95 11.99 160.00 C 9.46 148.40 6.10 137.01 2.40 125.75 C 1.87 123.05 0.98 120.46 0.00 117.90 L 0.00 109.26 Z" />
</g>
<g id="#fce902ff">
<path fill="#fce902" opacity="1.00" d=" M 155.87 117.03 C 163.64 114.31 171.80 112.82 180.01 112.37 C 187.49 112.15 195.10 111.93 202.39 113.95 C 194.93 114.34 188.51 118.66 181.34 120.25 C 171.14 122.52 160.92 124.70 150.71 126.85 C 143.62 129.59 135.85 129.68 128.86 132.70 C 125.17 134.24 120.96 133.79 117.30 135.32 C 113.62 138.64 110.78 142.79 107.05 146.07 C 110.17 140.20 112.27 133.87 114.36 127.58 C 120.10 127.33 124.85 123.99 130.02 121.96 C 125.11 121.97 119.93 122.80 115.23 121.01 L 115.18 120.32 C 126.17 121.39 137.01 118.09 147.99 118.54 C 150.71 118.71 153.33 117.90 155.87 117.03 Z" />
</g>
<g id="#99fe5dff">
<path fill="#99fe5d" opacity="1.00" d=" M 236.90 124.48 C 243.09 122.99 246.86 117.65 250.00 112.55 L 250.00 119.56 C 246.81 124.25 242.58 128.14 237.79 131.15 C 237.60 128.92 237.34 126.68 236.90 124.48 Z" />
</g>
<g id="#eefc0aff">
<path fill="#eefc0a" opacity="1.00" d=" M 181.34 120.25 C 188.51 118.66 194.93 114.34 202.39 113.95 L 203.04 114.12 C 202.33 116.10 202.21 119.00 199.62 119.40 C 193.22 121.19 187.16 124.00 180.73 125.64 C 167.96 127.67 155.63 131.69 143.17 135.05 C 137.90 136.02 132.66 137.13 127.43 138.24 C 124.42 138.93 121.18 138.96 118.40 140.40 C 116.02 143.13 115.36 146.84 114.04 150.12 C 111.81 155.01 108.73 160.65 103.06 161.93 C 99.57 159.74 96.29 156.84 91.85 157.12 C 91.16 154.81 90.44 152.52 89.62 150.26 C 90.76 152.00 92.02 153.65 93.24 155.33 C 97.58 154.85 101.34 152.54 104.10 149.23 C 105.12 148.20 106.08 147.14 107.05 146.07 C 110.78 142.79 113.62 138.64 117.30 135.32 C 120.96 133.79 125.17 134.24 128.86 132.70 C 135.85 129.68 143.62 129.59 150.71 126.85 C 160.92 124.70 171.14 122.52 181.34 120.25 Z" />
</g>
<g id="#e0fe17ff">
<path fill="#e0fe17" opacity="1.00" d=" M 199.62 119.40 C 202.21 119.00 202.33 116.10 203.04 114.12 C 204.56 114.87 206.07 115.66 207.53 116.53 C 206.61 122.66 199.95 124.33 194.93 125.92 C 182.15 129.56 169.38 133.51 156.19 135.39 C 151.60 136.42 147.10 137.83 142.42 138.43 C 135.67 139.31 129.67 142.85 122.98 144.00 C 119.20 144.56 116.25 147.16 114.04 150.12 C 115.36 146.84 116.02 143.13 118.40 140.40 C 121.18 138.96 124.42 138.93 127.43 138.24 C 132.66 137.13 137.90 136.02 143.17 135.05 C 155.63 131.69 167.96 127.67 180.73 125.64 C 187.16 124.00 193.22 121.19 199.62 119.40 Z" />
</g>
<g id="#d3ff24ff">
<path fill="#d3ff24" opacity="1.00" d=" M 194.93 125.92 C 199.95 124.33 206.61 122.66 207.53 116.53 C 209.20 117.62 210.78 118.83 212.25 120.18 C 211.91 121.53 211.58 122.88 211.25 124.23 C 207.92 125.64 204.53 126.90 201.11 128.06 C 195.38 129.98 189.95 132.77 184.01 134.06 C 165.03 138.11 146.05 142.18 127.02 145.99 C 122.46 146.62 118.93 149.79 115.62 152.71 C 112.09 155.83 109.90 160.29 105.88 162.90 C 102.47 165.13 98.55 166.40 94.71 167.69 L 93.59 167.75 C 93.58 164.13 92.85 160.57 91.85 157.12 C 96.29 156.84 99.57 159.74 103.06 161.93 C 108.73 160.65 111.81 155.01 114.04 150.12 C 116.25 147.16 119.20 144.56 122.98 144.00 C 129.67 142.85 135.67 139.31 142.42 138.43 C 147.10 137.83 151.60 136.42 156.19 135.39 C 169.38 133.51 182.15 129.56 194.93 125.92 Z" />
</g>
<g id="#a7f7ceff">
<path fill="#a7f7ce" opacity="1.00" d=" M 0.00 117.90 C 0.98 120.46 1.87 123.05 2.40 125.75 C 2.08 136.25 5.26 146.41 5.76 156.85 C 2.64 147.60 2.84 137.63 0.00 128.30 L 0.00 117.90 Z" />
</g>
<g id="#fdca02ff">
<path fill="#fdca02" opacity="1.00" d=" M 113.31 120.08 C 113.79 120.32 114.75 120.78 115.23 121.01 C 119.93 122.80 125.11 121.97 130.02 121.96 C 124.85 123.99 120.10 127.33 114.36 127.58 C 112.27 133.87 110.17 140.20 107.05 146.07 C 106.08 147.14 105.12 148.20 104.10 149.23 C 102.51 149.69 100.90 150.08 99.29 150.48 C 98.03 148.78 96.81 147.05 95.55 145.35 C 92.98 145.63 90.43 145.96 87.88 146.33 C 87.33 145.13 86.78 143.93 86.23 142.73 C 85.53 141.03 84.94 139.28 84.27 137.56 C 87.15 138.81 89.56 140.82 91.44 143.32 C 98.21 141.52 102.19 135.45 106.49 130.44 C 107.67 131.59 108.86 132.74 110.06 133.89 C 111.69 129.44 112.84 124.81 113.31 120.08 Z" />
</g>
<g id="#c2fe34ff">
<path fill="#c2fe34" opacity="1.00" d=" M 212.25 120.18 C 213.57 121.63 214.75 123.21 215.89 124.82 C 214.84 126.42 213.97 128.42 211.99 129.06 C 206.41 131.35 200.53 132.81 194.99 135.19 C 187.03 138.74 178.26 139.62 169.92 141.91 C 159.13 143.98 148.46 146.59 137.68 148.75 C 131.32 150.24 124.74 151.08 118.69 153.65 C 114.93 154.89 115.04 159.92 111.72 161.74 C 106.56 164.86 101.05 168.56 94.71 167.69 C 98.55 166.40 102.47 165.13 105.88 162.90 C 109.90 160.29 112.09 155.83 115.62 152.71 C 118.93 149.79 122.46 146.62 127.02 145.99 C 146.05 142.18 165.03 138.11 184.01 134.06 C 189.95 132.77 195.38 129.98 201.11 128.06 C 204.53 126.90 207.92 125.64 211.25 124.23 C 211.58 122.88 211.91 121.53 212.25 120.18 Z" />
</g>
<g id="#85fd77ff">
<path fill="#85fd77" opacity="1.00" d=" M 237.79 131.15 C 242.58 128.14 246.81 124.25 250.00 119.56 L 250.00 126.45 C 249.38 127.32 248.73 128.18 248.06 129.02 C 245.06 131.98 241.51 134.31 237.90 136.45 C 237.91 134.68 237.88 132.91 237.79 131.15 Z" />
</g>
<g id="#affe48ff">
<path fill="#affe48" opacity="1.00" d=" M 215.89 124.82 L 216.08 125.46 C 216.34 128.28 216.29 131.11 216.25 133.94 C 209.76 137.88 202.15 139.11 195.33 142.29 C 187.60 145.95 178.97 146.63 170.71 148.44 C 162.23 149.35 154.24 152.48 145.85 153.85 C 140.35 154.92 134.94 156.43 129.41 157.34 C 125.88 158.05 121.96 158.60 119.35 161.33 C 115.19 165.57 113.02 171.57 108.02 175.03 C 104.54 177.57 100.09 177.79 95.97 178.21 C 94.86 174.79 94.60 171.18 93.59 167.75 L 94.71 167.69 C 101.05 168.56 106.56 164.86 111.72 161.74 C 115.04 159.92 114.93 154.89 118.69 153.65 C 124.74 151.08 131.32 150.24 137.68 148.75 C 148.46 146.59 159.13 143.98 169.92 141.91 C 178.26 139.62 187.03 138.74 194.99 135.19 C 200.53 132.81 206.41 131.35 211.99 129.06 C 213.97 128.42 214.84 126.42 215.89 124.82 Z" />
</g>
<g id="#93fe64ff">
<path fill="#93fe64" opacity="1.00" d=" M 216.08 125.46 C 217.75 130.67 218.03 136.26 217.05 141.62 L 216.60 142.35 C 206.16 144.63 196.58 149.72 186.10 151.85 C 166.36 155.96 146.77 160.68 127.05 164.89 C 123.97 165.65 120.74 166.26 118.06 168.03 C 115.09 170.40 113.51 174.07 110.54 176.46 C 106.62 179.42 101.68 181.07 96.75 180.64 C 96.55 180.03 96.16 178.82 95.97 178.21 C 100.09 177.79 104.54 177.57 108.02 175.03 C 113.02 171.57 115.19 165.57 119.35 161.33 C 121.96 158.60 125.88 158.05 129.41 157.34 C 134.94 156.43 140.35 154.92 145.85 153.85 C 154.24 152.48 162.23 149.35 170.71 148.44 C 178.97 146.63 187.60 145.95 195.33 142.29 C 202.15 139.11 209.76 137.88 216.25 133.94 C 216.29 131.11 216.34 128.28 216.08 125.46 Z" />
</g>
<g id="#4dfaabff">
<path fill="#4dfaab" opacity="1.00" d=" M 2.40 125.75 C 6.10 137.01 9.46 148.40 11.99 160.00 C 12.86 164.58 13.95 169.13 15.62 173.49 C 19.45 173.93 23.34 173.88 27.09 172.92 C 45.87 168.39 65.12 166.39 84.08 162.79 C 85.87 162.53 87.70 161.96 89.51 162.34 C 90.76 163.83 91.74 165.53 92.72 167.21 C 84.90 167.40 77.23 169.05 69.62 170.73 C 64.00 172.03 58.18 172.20 52.58 173.60 C 49.53 174.32 46.53 175.25 43.42 175.69 C 39.05 176.49 35.01 173.15 30.63 174.43 C 25.55 175.10 19.50 177.46 14.92 174.13 C 11.57 168.70 11.48 161.93 8.77 156.17 C 8.13 156.56 6.84 157.33 6.19 157.72 C 6.08 157.50 5.87 157.07 5.76 156.85 C 5.26 146.41 2.08 136.25 2.40 125.75 Z" />
</g>
<g id="#b8f8caff">
<path fill="#b8f8ca" opacity="1.00" d=" M 248.06 129.02 C 248.73 128.18 249.38 127.32 250.00 126.45 L 250.00 132.33 C 248.12 137.91 246.62 143.62 244.22 149.01 C 244.45 147.61 244.68 146.21 244.92 144.81 C 245.40 142.52 246.04 140.27 246.59 138.00 C 247.35 135.06 247.73 132.03 248.06 129.02 Z" />
</g>
<g id="#217459ff">
<path fill="#217459" opacity="1.00" d=" M 236.29 128.72 C 236.71 132.12 237.11 135.52 237.41 138.93 C 237.15 140.18 236.86 141.42 236.53 142.66 C 235.77 145.15 234.83 147.58 233.76 149.95 C 231.81 152.35 229.96 154.83 228.00 157.22 C 223.54 160.30 218.69 162.72 213.85 165.13 C 216.36 166.45 218.89 167.76 221.39 169.13 L 222.08 169.49 C 218.34 168.59 214.51 167.73 211.21 165.69 C 211.33 165.39 211.59 164.80 211.71 164.51 C 217.40 161.39 223.98 159.47 228.42 154.42 C 235.21 147.76 237.00 137.87 236.29 128.72 Z" />
</g>
<g id="#6bfd90ff">
<path fill="#6bfd90" opacity="1.00" d=" M 237.90 136.45 C 241.51 134.31 245.06 131.98 248.06 129.02 C 247.73 132.03 247.35 135.06 246.59 138.00 C 243.03 139.08 239.70 140.73 236.53 142.66 C 236.86 141.42 237.15 140.18 237.41 138.93 C 237.60 138.11 237.76 137.28 237.90 136.45 Z" />
</g>
<g id="#e1f917ff">
<path fill="#e1f917" opacity="1.00" d=" M 13.66 130.02 C 18.93 133.63 24.21 138.34 31.02 138.11 C 35.69 138.80 39.06 134.60 43.54 134.39 C 49.54 134.03 55.63 134.50 61.56 133.26 C 64.72 132.60 67.73 131.25 70.98 131.05 C 74.43 131.01 77.75 132.07 81.08 132.82 C 81.33 133.26 81.83 134.14 82.07 134.59 C 70.51 134.28 59.40 137.81 48.00 139.12 C 41.24 140.19 34.39 139.24 27.59 139.65 C 26.40 140.69 25.43 142.24 23.87 142.70 C 20.70 142.65 16.99 141.38 15.69 138.22 C 14.56 135.62 14.23 132.77 13.66 130.02 Z" />
</g>
<g id="#50fca9ff">
<path fill="#50fca9" opacity="1.00" d=" M 236.53 142.66 C 239.70 140.73 243.03 139.08 246.59 138.00 C 246.04 140.27 245.40 142.52 244.92 144.81 C 240.62 144.90 237.20 147.73 233.76 149.95 C 234.83 147.58 235.77 145.15 236.53 142.66 Z" />
</g>
<g id="#7cfe7aff">
<path fill="#7cfe7a" opacity="1.00" d=" M 186.10 151.85 C 196.58 149.72 206.16 144.63 216.60 142.35 C 215.79 143.66 215.02 144.99 214.22 146.31 C 204.66 150.73 194.16 152.64 184.71 157.34 C 179.73 157.45 174.74 157.43 169.76 157.63 C 169.54 158.69 169.33 159.75 169.14 160.83 C 163.12 161.86 157.05 162.68 151.13 164.22 C 141.29 166.95 131.06 168.15 121.36 171.40 C 115.87 173.00 115.46 179.64 112.86 183.87 C 109.53 187.90 104.32 190.24 99.08 189.83 C 97.91 189.69 96.28 189.60 95.83 188.25 C 94.79 184.83 94.69 181.22 94.20 177.70 C 93.87 174.46 93.45 171.23 93.16 167.99 L 93.06 166.90 L 93.59 167.75 C 94.60 171.18 94.86 174.79 95.97 178.21 C 96.16 178.82 96.55 180.03 96.75 180.64 C 101.68 181.07 106.62 179.42 110.54 176.46 C 113.51 174.07 115.09 170.40 118.06 168.03 C 120.74 166.26 123.97 165.65 127.05 164.89 C 146.77 160.68 166.36 155.96 186.10 151.85 Z" />
</g>
<g id="#2c6f44ff">
<path fill="#2c6f44" opacity="1.00" d=" M 216.60 142.35 L 217.05 141.62 C 216.51 148.49 210.81 153.43 204.76 155.81 C 194.10 160.88 182.06 157.67 170.75 158.84 C 170.36 163.60 170.37 168.37 170.79 173.12 C 176.19 173.40 181.60 173.39 187.00 173.27 C 191.30 173.25 195.91 172.79 199.73 175.18 C 189.81 173.69 179.78 174.71 169.81 174.23 C 169.60 173.03 169.43 171.83 169.31 170.62 C 169.22 169.03 169.17 167.44 169.13 165.85 C 169.10 164.17 169.09 162.50 169.14 160.83 C 169.33 159.75 169.54 158.69 169.76 157.63 C 174.74 157.43 179.73 157.45 184.71 157.34 C 195.17 157.51 208.49 156.53 214.22 146.31 C 215.02 144.99 215.79 143.66 216.60 142.35 Z" />
</g>
<g id="#36fbc2ff">
<path fill="#36fbc2" opacity="1.00" d=" M 233.76 149.95 C 237.20 147.73 240.62 144.90 244.92 144.81 C 244.68 146.21 244.45 147.61 244.22 149.01 C 243.05 150.68 241.81 152.31 240.61 153.97 C 240.17 153.59 239.30 152.84 238.86 152.47 C 235.30 154.20 231.64 155.68 228.00 157.22 C 229.96 154.83 231.81 152.35 233.76 149.95 Z" />
</g>
<g id="#fce302ff">
<path fill="#fce302" opacity="1.00" d=" M 87.88 146.33 C 90.43 145.96 92.98 145.63 95.55 145.35 C 96.81 147.05 98.03 148.78 99.29 150.48 C 100.90 150.08 102.51 149.69 104.10 149.23 C 101.34 152.54 97.58 154.85 93.24 155.33 C 92.02 153.65 90.76 152.00 89.62 150.26 C 89.04 148.95 88.47 147.64 87.88 146.33 Z" />
</g>
<g id="#6cfb8bff">
<path fill="#6cfb8b" opacity="1.00" d=" M 184.71 157.34 C 194.16 152.64 204.66 150.73 214.22 146.31 C 208.49 156.53 195.17 157.51 184.71 157.34 Z" />
</g>
<g id="#9cededff">
<path fill="#9ceded" opacity="1.00" d=" M 240.61 153.97 C 241.81 152.31 243.05 150.68 244.22 149.01 C 242.59 153.65 240.05 158.04 236.18 161.18 C 232.38 164.69 226.79 165.91 223.81 170.35 C 223.38 170.14 222.51 169.71 222.08 169.49 L 221.39 169.13 C 228.16 164.56 236.44 161.51 240.61 153.97 Z" />
</g>
<g id="#18f2e2ff">
<path fill="#18f2e2" opacity="1.00" d=" M 228.00 157.22 C 231.64 155.68 235.30 154.20 238.86 152.47 C 239.30 152.84 240.17 153.59 240.61 153.97 C 236.44 161.51 228.16 164.56 221.39 169.13 C 218.89 167.76 216.36 166.45 213.85 165.13 C 218.69 162.72 223.54 160.30 228.00 157.22 Z" />
</g>
<g id="#37f9c0ff">
<path fill="#37f9c0" opacity="1.00" d=" M 8.77 156.17 C 11.48 161.93 11.57 168.70 14.92 174.13 C 19.50 177.46 25.55 175.10 30.63 174.43 C 35.01 173.15 39.05 176.49 43.42 175.69 C 46.53 175.25 49.53 174.32 52.58 173.60 C 58.18 172.20 64.00 172.03 69.62 170.73 C 77.23 169.05 84.90 167.40 92.72 167.21 L 93.16 167.99 C 93.45 171.23 93.87 174.46 94.20 177.70 C 94.17 179.55 94.05 181.41 93.98 183.26 C 93.59 179.89 92.92 176.56 92.29 173.22 C 79.40 175.03 66.82 178.55 54.08 181.16 C 49.16 182.56 44.51 178.65 39.59 180.37 C 31.80 182.41 23.69 183.32 16.15 186.21 L 15.37 186.50 C 13.12 179.96 11.00 173.38 9.38 166.65 C 8.66 163.57 7.77 160.49 6.19 157.72 C 6.84 157.33 8.13 156.56 8.77 156.17 Z" />
</g>
<g id="#66fa91ff">
<path fill="#66fa91" opacity="1.00" d=" M 38.91 162.63 C 54.41 161.27 69.49 156.71 85.08 155.99 C 87.77 155.74 89.56 158.16 91.26 159.86 C 91.91 162.19 92.39 164.57 93.06 166.90 L 93.16 167.99 L 92.72 167.21 C 91.74 165.53 90.76 163.83 89.51 162.34 C 87.70 161.96 85.87 162.53 84.08 162.79 C 65.12 166.39 45.87 168.39 27.09 172.92 C 23.34 173.88 19.45 173.93 15.62 173.49 C 13.95 169.13 12.86 164.58 11.99 160.00 C 13.70 161.95 15.66 164.01 18.36 164.42 C 25.26 165.71 32.10 163.46 38.91 162.63 Z" />
</g>
<g id="#8ed9efff">
<path fill="#8ed9ef" opacity="1.00" d=" M 5.76 156.85 C 5.87 157.07 6.08 157.50 6.19 157.72 C 7.77 160.49 8.66 163.57 9.38 166.65 C 11.00 173.38 13.12 179.96 15.37 186.50 C 16.70 190.37 17.99 194.26 19.33 198.14 C 20.51 201.51 21.78 204.85 23.20 208.13 C 24.47 211.11 25.96 214.00 27.46 216.87 C 28.67 219.28 29.73 221.75 30.88 224.18 C 22.30 213.39 18.68 199.76 14.10 186.99 C 10.64 177.15 8.10 167.01 5.76 156.85 Z" />
</g>
<g id="#65fe92ff">
<path fill="#65fe92" opacity="1.00" d=" M 151.13 164.22 C 157.05 162.68 163.12 161.86 169.14 160.83 C 169.09 162.50 169.10 164.17 169.13 165.85 C 161.14 166.59 153.50 169.19 145.67 170.79 C 137.96 172.67 130.10 174.00 122.57 176.54 C 118.56 177.77 115.61 180.87 112.86 183.87 C 115.46 179.64 115.87 173.00 121.36 171.40 C 131.06 168.15 141.29 166.95 151.13 164.22 Z" />
</g>
<g id="#4ffea9ff">
<path fill="#4ffea9" opacity="1.00" d=" M 145.67 170.79 C 153.50 169.19 161.14 166.59 169.13 165.85 C 169.17 167.44 169.22 169.03 169.31 170.62 C 163.06 170.84 157.08 172.84 151.00 174.14 C 143.81 175.95 136.50 177.30 129.37 179.37 C 125.47 180.54 121.25 180.78 117.59 182.64 C 111.85 186.71 113.14 196.30 106.11 199.11 C 101.98 201.24 97.39 199.49 93.79 197.17 C 93.57 192.53 93.91 187.90 93.98 183.26 C 94.05 181.41 94.17 179.55 94.20 177.70 C 94.69 181.22 94.79 184.83 95.83 188.25 C 96.28 189.60 97.91 189.69 99.08 189.83 C 104.32 190.24 109.53 187.90 112.86 183.87 C 115.61 180.87 118.56 177.77 122.57 176.54 C 130.10 174.00 137.96 172.67 145.67 170.79 Z" />
</g>
<g id="#3bfdbcff">
<path fill="#3bfdbc" opacity="1.00" d=" M 151.00 174.14 C 157.08 172.84 163.06 170.84 169.31 170.62 C 169.43 171.83 169.60 173.03 169.81 174.23 L 169.99 175.02 C 162.71 175.36 155.50 176.74 148.44 178.49 C 139.12 181.06 129.58 182.76 120.29 185.46 C 117.13 186.03 116.13 189.37 114.76 191.81 C 113.26 194.85 111.39 197.72 109.13 200.26 C 104.30 201.37 99.28 201.84 94.42 200.65 C 94.18 199.49 93.97 198.33 93.79 197.17 C 97.39 199.49 101.98 201.24 106.11 199.11 C 113.14 196.30 111.85 186.71 117.59 182.64 C 121.25 180.78 125.47 180.54 129.37 179.37 C 136.50 177.30 143.81 175.95 151.00 174.14 Z" />
</g>
<g id="#1df9d9ff">
<path fill="#1df9d9" opacity="1.00" d=" M 54.08 181.16 C 66.82 178.55 79.40 175.03 92.29 173.22 C 92.92 176.56 93.59 179.89 93.98 183.26 C 93.91 187.90 93.57 192.53 93.79 197.17 C 93.97 198.33 94.18 199.49 94.42 200.65 C 99.28 201.84 104.30 201.37 109.13 200.26 C 106.56 203.01 104.26 206.01 101.74 208.81 C 100.36 210.84 97.56 210.25 95.63 209.46 C 92.95 208.44 92.36 205.31 91.56 202.90 C 91.88 201.32 92.19 199.74 92.44 198.15 C 93.17 194.12 93.44 190.02 93.27 185.93 C 92.70 184.63 92.00 182.87 90.22 183.32 C 85.10 183.66 79.85 182.03 74.84 183.65 C 68.24 185.57 61.33 186.28 54.89 188.81 C 51.34 190.31 48.09 186.99 44.52 187.44 C 37.39 188.33 30.83 191.57 23.78 192.81 C 21.94 189.92 19.79 186.82 16.15 186.21 C 23.69 183.32 31.80 182.41 39.59 180.37 C 44.51 178.65 49.16 182.56 54.08 181.16 Z" />
</g>
<g id="#14f3e7ff">
<path fill="#14f3e7" opacity="1.00" d=" M 169.81 174.23 C 179.78 174.71 189.81 173.69 199.73 175.18 L 200.43 175.45 C 198.72 175.56 197.01 175.73 195.32 176.01 C 190.15 176.61 185.10 177.89 180.07 179.18 C 158.87 184.30 137.66 189.63 117.16 197.15 C 111.49 198.88 111.55 205.83 109.53 210.43 C 102.99 212.71 95.47 212.85 89.46 209.03 C 90.18 206.99 90.95 204.97 91.56 202.90 C 92.36 205.31 92.95 208.44 95.63 209.46 C 97.56 210.25 100.36 210.84 101.74 208.81 C 104.26 206.01 106.56 203.01 109.13 200.26 C 111.39 197.72 113.26 194.85 114.76 191.81 C 122.45 189.00 130.25 186.50 138.34 185.15 C 151.49 181.33 165.09 179.34 178.22 175.47 C 175.48 175.24 172.74 175.09 169.99 175.02 L 169.81 174.23 Z" />
</g>
<g id="#26fdd0ff">
<path fill="#26fdd0" opacity="1.00" d=" M 148.44 178.49 C 155.50 176.74 162.71 175.36 169.99 175.02 C 172.74 175.09 175.48 175.24 178.22 175.47 C 165.09 179.34 151.49 181.33 138.34 185.15 C 130.25 186.50 122.45 189.00 114.76 191.81 C 116.13 189.37 117.13 186.03 120.29 185.46 C 129.58 182.76 139.12 181.06 148.44 178.49 Z" />
</g>
<g id="#8ee8f2ff">
<path fill="#8ee8f2" opacity="1.00" d=" M 180.07 179.18 C 185.10 177.89 190.15 176.61 195.32 176.01 C 192.32 177.19 189.29 178.36 186.13 179.08 C 167.01 183.44 147.96 188.21 129.30 194.30 C 124.43 196.00 119.20 197.07 114.84 199.92 C 112.14 204.67 111.54 210.30 109.23 215.25 C 106.83 220.42 104.85 225.98 101.05 230.33 C 101.84 228.12 102.65 225.91 103.68 223.81 C 104.25 222.64 104.86 221.50 105.46 220.35 C 107.10 217.17 108.42 213.83 109.53 210.43 C 111.55 205.83 111.49 198.88 117.16 197.15 C 137.66 189.63 158.87 184.30 180.07 179.18 Z" />
</g>
<g id="#09e9efff">
<path fill="#09e9ef" opacity="1.00" d=" M 74.84 183.65 C 79.85 182.03 85.10 183.66 90.22 183.32 C 92.00 182.87 92.70 184.63 93.27 185.93 C 86.03 186.74 78.65 187.09 71.83 189.89 C 68.16 191.78 64.72 187.56 61.08 189.09 C 53.38 191.93 45.17 192.89 37.45 195.68 C 34.53 197.11 32.47 194.04 29.93 193.24 C 27.54 193.44 25.32 194.48 23.21 195.56 C 21.89 196.38 20.61 197.26 19.33 198.14 C 17.99 194.26 16.70 190.37 15.37 186.50 L 16.15 186.21 C 19.79 186.82 21.94 189.92 23.78 192.81 C 30.83 191.57 37.39 188.33 44.52 187.44 C 48.09 186.99 51.34 190.31 54.89 188.81 C 61.33 186.28 68.24 185.57 74.84 183.65 Z" />
</g>
<g id="#04d5f9ff">
<path fill="#04d5f9" opacity="1.00" d=" M 71.83 189.89 C 78.65 187.09 86.03 186.74 93.27 185.93 C 93.44 190.02 93.17 194.12 92.44 198.15 C 92.11 196.27 91.69 194.41 91.30 192.54 C 88.70 191.89 86.01 190.95 83.30 191.52 C 79.70 192.13 76.48 194.10 72.88 194.64 C 70.69 194.35 68.67 193.26 66.46 193.08 C 62.91 193.96 59.73 196.08 56.02 196.35 C 52.56 196.67 49.17 197.41 45.91 198.61 C 43.51 197.93 40.97 196.44 38.45 197.48 C 35.35 198.52 32.31 199.75 29.16 200.66 C 27.28 198.83 25.30 197.13 23.21 195.56 C 25.32 194.48 27.54 193.44 29.93 193.24 C 32.47 194.04 34.53 197.11 37.45 195.68 C 45.17 192.89 53.38 191.93 61.08 189.09 C 64.72 187.56 68.16 191.78 71.83 189.89 Z" />
</g>
<g id="#03b2fbff">
<path fill="#03b2fb" opacity="1.00" d=" M 72.88 194.64 C 76.48 194.10 79.70 192.13 83.30 191.52 C 86.01 190.95 88.70 191.89 91.30 192.54 C 91.69 194.41 92.11 196.27 92.44 198.15 C 92.19 199.74 91.88 201.32 91.56 202.90 C 90.95 204.97 90.18 206.99 89.46 209.03 C 88.55 211.61 87.84 214.26 87.14 216.90 C 92.38 220.85 99.14 222.20 105.46 220.35 C 104.86 221.50 104.25 222.64 103.68 223.81 C 101.88 223.53 100.03 222.70 98.20 223.14 C 95.47 224.20 93.20 226.12 90.84 227.81 C 88.19 226.17 84.66 224.46 84.38 220.94 C 84.51 216.79 86.17 212.90 87.23 208.94 C 84.00 207.41 80.69 205.46 77.01 205.59 C 73.65 206.15 70.83 208.35 67.51 209.08 C 64.94 209.07 62.55 207.85 60.00 207.65 C 57.59 208.13 55.53 209.79 53.07 210.04 C 50.08 209.83 47.01 208.88 44.12 210.19 C 41.71 211.41 39.23 210.24 36.96 209.29 C 34.76 209.73 32.57 210.23 30.39 210.72 C 29.16 209.54 27.93 208.36 26.70 207.18 C 25.53 207.49 24.37 207.81 23.20 208.13 C 21.78 204.85 20.51 201.51 19.33 198.14 C 20.61 197.26 21.89 196.38 23.21 195.56 C 25.30 197.13 27.28 198.83 29.16 200.66 C 32.31 199.75 35.35 198.52 38.45 197.48 C 40.97 196.44 43.51 197.93 45.91 198.61 C 49.17 197.41 52.56 196.67 56.02 196.35 C 59.73 196.08 62.91 193.96 66.46 193.08 C 68.67 193.26 70.69 194.35 72.88 194.64 Z" />
</g>
<g id="#0387fbff">
<path fill="#0387fb" opacity="1.00" d=" M 67.51 209.08 C 70.83 208.35 73.65 206.15 77.01 205.59 C 80.69 205.46 84.00 207.41 87.23 208.94 C 86.17 212.90 84.51 216.79 84.38 220.94 C 84.66 224.46 88.19 226.17 90.84 227.81 C 93.20 226.12 95.47 224.20 98.20 223.14 C 100.03 222.70 101.88 223.53 103.68 223.81 C 102.65 225.91 101.84 228.12 101.05 230.33 C 100.58 230.85 100.11 231.39 99.65 231.93 C 94.97 230.01 89.98 230.95 85.77 233.52 C 80.17 231.36 76.90 226.18 72.46 222.55 C 66.48 220.67 60.27 219.42 54.18 217.91 C 49.18 218.34 44.18 218.51 39.15 218.31 C 35.06 219.13 31.55 215.74 27.46 216.87 C 25.96 214.00 24.47 211.11 23.20 208.13 C 24.37 207.81 25.53 207.49 26.70 207.18 C 27.93 208.36 29.16 209.54 30.39 210.72 C 32.57 210.23 34.76 209.73 36.96 209.29 C 39.23 210.24 41.71 211.41 44.12 210.19 C 47.01 208.88 50.08 209.83 53.07 210.04 C 55.53 209.79 57.59 208.13 60.00 207.65 C 62.55 207.85 64.94 209.07 67.51 209.08 Z" />
</g>
<g id="#04cbfaff">
<path fill="#04cbfa" opacity="1.00" d=" M 87.14 216.90 C 87.84 214.26 88.55 211.61 89.46 209.03 C 95.47 212.85 102.99 212.71 109.53 210.43 C 108.42 213.83 107.10 217.17 105.46 220.35 C 99.14 222.20 92.38 220.85 87.14 216.90 Z" />
</g>
<g id="#0264fbff">
<path fill="#0264fb" opacity="1.00" d=" M 27.46 216.87 C 31.55 215.74 35.06 219.13 39.15 218.31 C 44.18 218.51 49.18 218.34 54.18 217.91 C 60.27 219.42 66.48 220.67 72.46 222.55 C 76.90 226.18 80.17 231.36 85.77 233.52 C 89.98 230.95 94.97 230.01 99.65 231.93 C 97.66 234.40 95.98 237.18 93.53 239.25 C 87.75 235.26 80.33 239.05 74.43 235.51 C 67.38 231.84 59.92 228.25 51.95 227.43 C 46.12 228.42 40.44 226.81 34.95 225.01 C 34.47 225.97 34.00 226.94 33.53 227.91 C 32.63 226.68 31.75 225.44 30.88 224.18 C 29.73 221.75 28.67 219.28 27.46 216.87 Z" />
</g>
<g id="#0248fbff">
<path fill="#0248fb" opacity="1.00" d=" M 33.53 227.91 C 34.00 226.94 34.47 225.97 34.95 225.01 C 40.44 226.81 46.12 228.42 51.95 227.43 C 59.92 228.25 67.38 231.84 74.43 235.51 C 80.33 239.05 87.75 235.26 93.53 239.25 L 92.86 239.79 C 86.79 239.14 80.71 241.60 74.73 239.71 C 66.57 237.38 58.51 234.76 50.25 232.79 C 46.13 231.90 41.15 229.64 37.44 232.74 C 36.06 231.19 34.77 229.56 33.53 227.91 Z" />
</g>
<g id="#0332fbff">
<path fill="#0332fb" opacity="1.00" d=" M 37.44 232.74 C 41.15 229.64 46.13 231.90 50.25 232.79 C 58.51 234.76 66.57 237.38 74.73 239.71 C 80.71 241.60 86.79 239.14 92.86 239.79 C 90.69 241.63 88.50 243.47 85.98 244.82 C 83.23 244.16 80.43 243.71 77.60 243.59 C 71.44 243.38 65.46 241.76 59.45 240.57 C 53.45 239.47 47.82 236.09 41.55 236.91 C 40.11 235.59 38.75 234.18 37.44 232.74 Z" />
</g>
<g id="#0314f7ff">
<path fill="#0314f7" opacity="1.00" d=" M 41.55 236.91 C 47.82 236.09 53.45 239.47 59.45 240.57 C 65.46 241.76 71.44 243.38 77.60 243.59 C 80.43 243.71 83.23 244.16 85.98 244.82 C 82.84 246.55 79.61 248.11 76.56 250.00 L 62.21 250.00 C 54.68 246.75 47.29 242.90 41.55 236.91 Z" />
</g>
</svg>
