<?xml version="1.0" encoding="utf-8"?>
<!-- Generator: Adobe Illustrator 26.0.3, SVG Export Plug-In . SVG Version: 6.00 Build 0)  -->
<svg version="1.1" id="Layer_1" xmlns="http://www.w3.org/2000/svg" xmlns:xlink="http://www.w3.org/1999/xlink" x="0px" y="0px"
	 viewBox="0 0 250 241" style="enable-background:new 0 0 250 241;" xml:space="preserve">
<style type="text/css">
	.st0{fill:#FDDD53;}
	.st1{fill:#E37911;}
	.st2{fill:#E8921B;}
	.st3{fill:#F8D374;}
	.st4{fill:#F0BD3F;}
	.st5{fill:#D67913;}
	.st6{fill:#FCE16D;}
	.st7{fill:#FFE566;}
	.st8{fill:#CD6815;}
	.st9{fill:#FEF1BA;}
	.st10{fill:#FAE16D;}
	.st11{fill:#EB9B2C;}
	.st12{fill:#D67018;}
	.st13{fill:#FFE358;}
	.st14{fill:#E37C10;}
	.st15{fill:#FEF3BD;}
	.st16{fill:#F9D652;}
	.st17{fill:#FAE371;}
	.st18{fill:#EFBA3D;}
	.st19{fill:#EDEBD1;}
	.st20{fill:#D67015;}
	.st21{fill:#FEF4C3;}
	.st22{fill:#FDE05D;}
	.st23{fill:#FAE26F;}
	.st24{fill:#D26E09;}
	.st25{fill:#FEE66C;}
	.st26{fill:#EBAE35;}
	.st27{fill:#FEF5D3;}
	.st28{fill:#FDE15D;}
	.st29{fill:#FEF3C5;}
	.st30{fill:#CF6811;}
	.st31{fill:#FBE270;}
	.st32{fill:#F8DA6A;}
	.st33{fill:#FDE36A;}
	.st34{fill:#FBE17C;}
	.st35{fill:#D56E15;}
	.st36{fill:#CF6812;}
	.st37{fill:#FDE166;}
	.st38{fill:#FEF6D2;}
	.st39{fill:#FDE369;}
	.st40{fill:#FBE167;}
	.st41{fill:#CF6A17;}
	.st42{fill:#CB5E0D;}
	.st43{fill:#FEF5CC;}
	.st44{fill:#FFEA87;}
	.st45{fill:#FEF4C7;}
	.st46{fill:#DF8E26;}
	.st47{fill:#FAE270;}
	.st48{fill:#DE831F;}
	.st49{fill:#FBDC66;}
	.st50{fill:#FAD854;}
	.st51{fill:#FEF7D6;}
	.st52{fill:#DA7A1B;}
	.st53{fill:#FBE371;}
	.st54{fill:#E99A1F;}
	.st55{fill:#FDDB52;}
	.st56{fill:#E37811;}
	.st57{fill:#FCE268;}
	.st58{fill:#F8D071;}
	.st59{fill:#F3C240;}
	.st60{fill:#FEF6D5;}
	.st61{fill:#FFF6D3;}
	.st62{fill:#CE6811;}
	.st63{fill:#FDE77F;}
	.st64{fill:#FCE36A;}
	.st65{fill:#DE8E1D;}
	.st66{fill:#FBE381;}
	.st67{fill:#FADB6C;}
	.st68{fill:#C75308;}
	.st69{fill:#FEF4CC;}
	.st70{fill:#FEE775;}
	.st71{fill:#FBE16F;}
	.st72{fill:#FEF6D3;}
	.st73{fill:#D9791A;}
	.st74{fill:#FEF8DD;}
	.st75{fill:#FDE67D;}
	.st76{fill:#F9E06A;}
	.st77{fill:#CF6A16;}
	.st78{fill:#FEF4C6;}
	.st79{fill:#FCDD54;}
	.st80{fill:#DF8F26;}
	.st81{fill:#FAE16F;}
	.st82{fill:#FEF7D7;}
	.st83{fill:#DA781A;}
	.st84{fill:#FDE77D;}
	.st85{fill:#DE841F;}
	.st86{fill:#F9E069;}
	.st87{fill:#FFE876;}
	.st88{fill:#FEF3C2;}
	.st89{fill:#FAD754;}
	.st90{fill:#FEF7D5;}
	.st91{fill:#FCE480;}
	.st92{fill:#DA7A1A;}
	.st93{fill:#F9E06D;}
	.st94{fill:#FAE079;}
	.st95{fill:#CE6711;}
	.st96{fill:#FFE66D;}
	.st97{fill:#F8D763;}
	.st98{fill:#E5962B;}
	.st99{fill:#FFE667;}
	.st100{fill:#DF8521;}
	.st101{fill:#FAE16B;}
	.st102{fill:#FEF8DF;}
	.st103{fill:#FCE78A;}
	.st104{fill:#FFF7D5;}
	.st105{fill:#DA7B1B;}
	.st106{fill:#FDE880;}
	.st107{fill:#C8560A;}
	.st108{fill:#FEF5C6;}
	.st109{fill:#FADB5B;}
	.st110{fill:#F8DF69;}
	.st111{fill:#FCE586;}
	.st112{fill:#D56F15;}
	.st113{fill:#FADC6D;}
	.st114{fill:#FBE26F;}
	.st115{fill:#FEF6D4;}
	.st116{fill:#F7D561;}
	.st117{fill:#FAD95C;}
	.st118{fill:#FEF8DA;}
	.st119{fill:#FDE366;}
	.st120{fill:#C9590A;}
	.st121{fill:#FBE078;}
	.st122{fill:#CF6611;}
	.st123{fill:#FEF5D2;}
	.st124{fill:#F7D65F;}
	.st125{fill:#FDE780;}
	.st126{fill:#FADC60;}
	.st127{fill:#D97719;}
	.st128{fill:#D67019;}
	.st129{fill:#F0EED4;}
	.st130{fill:#FAE16A;}
	.st131{fill:#FFE976;}
	.st132{fill:#FAD855;}
	.st133{fill:#FEF7DE;}
	.st134{fill:#FDE67C;}
	.st135{fill:#DA791A;}
	.st136{fill:#FFE66B;}
	.st137{fill:#FEF5CD;}
	.st138{fill:#FFE984;}
	.st139{fill:#FCE78B;}
	.st140{fill:#D9D7C1;}
	.st141{fill:#D9D9C3;}
	.st142{fill:#D8D7C1;}
	.st143{fill:#B3B5A9;}
	.st144{fill:#9A9B8E;}
	.st145{fill:#DCDBC4;}
	.st146{fill:#636766;}
	.st147{fill:#E0DEC6;}
	.st148{fill:#BFBEAB;}
	.st149{fill:#EBEBE6;}
	.st150{fill:#FAD54C;}
	.st151{fill:#E78D1C;}
	.st152{fill:#F3F3ED;}
	.st153{fill:#878A89;}
	.st154{fill:#A1A292;}
	.st155{fill:#F8D272;}
	.st156{fill:#F1B03E;}
	.st157{fill:#B0B2B2;}
	.st158{fill:#E0DFD4;}
	.st159{fill:#CECFCB;}
	.st160{fill:#8A8D8C;}
	.st161{fill:#C8CACA;}
	.st162{fill:#D5D6BE;}
	.st163{fill:#CFD0BB;}
	.st164{fill:#C3C2AE;}
	.st165{fill:#D9D8C5;}
	.st166{fill:#737672;}
	.st167{fill:#686C6B;}
	.st168{fill:#FEE76C;}
	.st169{fill:#C4C4AE;}
	.st170{fill:#84857D;}
	.st171{fill:#8D908F;}
	.st172{fill:#D9DAC9;}
	.st173{fill:#C75106;}
	.st174{fill:#E8E7DE;}
	.st175{fill:#CECDB6;}
	.st176{fill:#EAA733;}
	.st177{fill:#727575;}
	.st178{fill:#FEE56D;}
	.st179{fill:#DFDED3;}
	.st180{fill:#FEF4CA;}
	.st181{fill:#DC7F1C;}
	.st182{fill:#D4D3C0;}
	.st183{fill:#F9D551;}
	.st184{fill:#EDECE4;}
	.st185{fill:#FBE067;}
	.st186{fill:#507365;}
	.st187{fill:#ADB19D;}
	.st188{fill:#8C8E85;}
	.st189{fill:#FEF5CE;}
	.st190{fill:#FDDF59;}
	.st191{fill:#FBE066;}
	.st192{fill:#B8B7A3;}
	.st193{fill:#8D9186;}
	.st194{fill:#959889;}
	.st195{fill:#C0BFAA;}
	.st196{fill:#8C8F85;}
	.st197{fill:#FAD64D;}
	.st198{fill:#D26912;}
	.st199{fill:#8E9186;}
	.st200{fill:#FDE987;}
	.st201{fill:#FDE268;}
	.st202{fill:#A3A492;}
	.st203{fill:#92968A;}
	.st204{fill:#C75206;}
	.st205{fill:#969A87;}
	.st206{fill:#F4D05C;}
	.st207{fill:#BFBEAC;}
	.st208{fill:#9A9D8A;}
	.st209{fill:#A2A4A2;}
	.st210{fill:#DD801E;}
	.st211{fill:#FDE46F;}
	.st212{fill:#979B89;}
	.st213{fill:#8A9081;}
	.st214{fill:#FADE65;}
	.st215{fill:#BEBDAF;}
	.st216{fill:#BFC1C1;}
	.st217{fill:#ECAB27;}
	.st218{fill:#707370;}
	.st219{fill:#FAD34B;}
	.st220{fill:#C2C4C4;}
	.st221{fill:#A2A799;}
	.st222{fill:#D6D7D7;}
	.st223{fill:#F8E79C;}
	.st224{fill:#FDDF58;}
	.st225{fill:#D36A11;}
	.st226{fill:#DD8B13;}
	.st227{fill:#FCE169;}
	.st228{fill:#D9D8C8;}
	.st229{fill:#CF6813;}
	.st230{fill:#E8AB36;}
	.st231{fill:#FEF3BE;}
	.st232{fill:#FEE56C;}
	.st233{fill:#FAE890;}
	.st234{fill:#FEF6D8;}
	.st235{fill:#F8E590;}
	.st236{fill:#FAD853;}
	.st237{fill:#D98621;}
	.st238{fill:#CDCDCD;}
	.st239{fill:#FAFAFA;}
	.st240{fill:#C8C8C8;}
</style>
<g id="_x23_fddd53ff">
	<path class="st0" d="M135.8,13.9c-0.1-5.5,6.5-7.2,10.9-7.3c-2,1.4-5,2.5-5.3,5.2c0.6-0.3,1.7-0.9,2.3-1.2c0.8,1.1,1.5,2.2,2.3,3.3
		c1.1,0.2,2.1,0.3,3.2,0.5c-0.2,0.3-0.5,0.9-0.7,1.2c0.4,0.3,1.1,0.9,1.4,1.2c-3.1-0.2-6.2-0.3-9.2-0.9
		C139,15.3,137.4,14.6,135.8,13.9z"/>
</g>
<g id="_x23_e37911ff">
	<path class="st1" d="M146.7,6.6c3.5-0.4,7.1-0.4,10.7-0.2c3.1,1.7,6.6,3,9.1,5.6c-1.8,2.3-4.4,3-7.2,3c1-1.3,1.9-2.6,2.9-3.9
		c-1-0.4-1.9-0.8-2.9-1.1c-2-0.8-4-0.3-5.6,1.1c-0.6-0.7-1.3-1.3-1.9-2c-0.7,0-2.2-0.1-2.9-0.1c-1.8,0.3-3.6,0.9-5.2,1.7
		c-0.6,0.3-1.7,0.9-2.3,1.2C141.7,9,144.7,8,146.7,6.6z"/>
</g>
<g id="_x23_e8921bff">
	<path class="st2" d="M157.4,6.4c3.9-0.1,8,0.8,11.1,3.2c1.5,1,1.2,2.9,1.3,4.4c-1.6,0.7-3.1,1.4-4.7,2c-4.1,0.9-8.4,0.9-12-1.5
		c1.8-0.7,3.6-1.3,5.4-2c0.2-0.7,0.6-2,0.8-2.7c1,0.4,1.9,0.8,2.9,1.1c-1,1.3-2,2.6-2.9,3.9c2.8,0.1,5.4-0.7,7.2-3
		C163.9,9.3,160.5,8.1,157.4,6.4z"/>
</g>
<g id="_x23_f8d374ff">
	<path class="st3" d="M143.6,10.6c1.6-0.8,3.4-1.4,5.2-1.7c1,0.7,2.1,1.4,3.1,2.1c-0.7,1.3-1.4,2.7-2.9,3.3
		c-1.1-0.1-2.1-0.3-3.2-0.5C145.2,12.8,144.4,11.7,143.6,10.6z"/>
	<path class="st3" d="M101,27.9c2.1-0.8,4.3-1.5,6.6-1.6c0.7,0.1,2.1,0.3,2.8,0.4c-0.4,1.2-0.8,2.5-1.2,3.8
		C106.4,30.3,103.1,30.4,101,27.9z"/>
</g>
<g id="_x23_f0bd3fff">
	<path class="st4" d="M148.9,8.9c0.7,0,2.2,0.1,2.9,0.1c0.6,0.7,1.3,1.3,1.9,2c1.6-1.4,3.5-2,5.6-1.1c-0.2,0.7-0.6,2-0.8,2.7
		c-1.8,0.6-3.6,1.3-5.4,2c3.6,2.4,7.9,2.4,12,1.5c-0.3,0.3-0.8,1-1.1,1.4c-2.4,0.5-4.2,2-4.7,4.5c1.6,0,3.2,0,4.9-0.1l0.1,0.8
		c-1.8,0.7-3.7,1.4-5.6,2c-0.4,1.1-0.9,2.2-1.3,3.3c2.5-0.3,4.9-0.7,7.4-1.2c0,1.4,0,2.8,0,4.1c1.8-0.8,3.6-1.5,5.4-2.2l-0.5,1.5
		c-1.6,1.1-3.3,2-5,2.9c0.1,0.8,0.2,2.3,0.3,3.1c1.7-0.8,3.4-1.7,5.2-2.5l-0.3,1.5c-1.7,1.5-3.7,2.5-5.9,3.3c-3,0.6-5.7,2.1-6.7,5.2
		c2.3-0.3,4.6-0.5,7-0.9v0.6c-1.8,1.2-5.4,1.8-4.5,4.7c1.7,0.1,3.4-0.1,5.1-0.3c0,1.4,0,2.8,0,4.2c1.8-0.8,3.6-1.6,5.4-2.4l-0.6,1.5
		c-2.3,1.6-5.7,2.6-5.1,6c1.9-0.8,3.7-1.6,5.6-2.5l-0.4,1.5c-1.7,1.5-3.7,2.5-5.8,3.2c-3.3,0.6-5.7,2.8-7.5,5.6
		c2.6-0.5,5.2-0.9,7.8-1.3l0,0.7c-2.3,0.9-4.9,1.8-5.4,4.5c1.8,0,3.6,0.1,5.4,0l0.1,0.7c-1.9,0.7-3.8,1.4-5.7,2
		c-0.4,1.1-0.8,2.2-1.3,3.3c2.3-0.2,4.7-0.4,7-0.7l-0.1,0.6c-2.7,1.1-6.2,1.7-6.4,5.2c2.2-0.1,4.4-0.3,6.6-0.6
		c0-0.9-0.1-2.7-0.1-3.6c0.2,0.6,0.7,1.7,0.9,2.2c1.7-0.8,3.4-1.6,5.1-2.4l-0.4,1.5c-1.7,1.4-3.7,2.4-5.8,3.2
		c-1.8,0.7-3.7,1.4-5.5,2c0,0.6-0.1,1.7-0.2,2.3c2,0,3.9,0.1,5.9,0.1l0,0.6c-1.8,0.7-3.7,1.4-5.5,2.1c-0.4,1.1-0.9,2.2-1.3,3.3
		c2.3-0.3,4.5-0.6,6.8-1l0.1,0.9c-1.8,0.7-3.7,1.4-5.6,2c-0.4,1-0.9,2-1.3,3c1.8,0,3.6,0,5.4,0c-2.3,1.2-4.3,2.9-5.7,5
		c2.2,0,4.3,0.1,6.5-0.3c0.9-1.3,0.6-3.1,0.8-4.6c0.2,1,0.4,2.1,0.6,3.1c1.7-0.8,3.5-1.6,5.2-2.3l-0.4,1.5c-1.7,1.4-3.8,2.5-5.9,3.2
		c-2.5,0.8-5.8,1.3-6.2,4.5c2.4,0.1,4.9,0.3,7.3,0.5c-1,0.2-3,0.8-3.9,1c-0.1,0.4-0.3,1.1-0.4,1.5c-2.4-1.4-4.8-2.8-7.3-4.2
		c-5.5-2.8-11.7-3.7-17.7-4.8l0.7-0.2c0.7-0.2,2-0.6,2.7-0.8c0.6-4.2,0.5-8.5,0.2-12.7c0.3-0.3,0.9-1,1.2-1.3
		c-0.5-1.6-1.1-3.2-1.6-4.8c1.4-0.3,2.9-0.5,4.3-0.7c0.3,0,1,0.1,1.3,0.1c1.6,0.2,3.1,0.3,4.7,0.4c0.9,0,2.6-0.1,3.4-0.1
		c0.5,0,1.6,0,2.1-0.1c0.4-1.1,0.7-2.3,1.1-3.4c-1.8,0-3.7,0-5.5-0.1c-0.5,0-1.5-0.1-2-0.1c-0.8-0.1-2.6-0.2-3.4-0.2
		c-1.1-0.2-2.2-0.4-3.3-0.6c-0.2,0.8-0.7,2.3-0.9,3.1c-0.3-0.2-1-0.5-1.3-0.7c0-4.5,0.3-9,0-13.5c1-0.4,1.9-0.8,2.9-1.2
		c1.3,0.3,2.6,0.7,3.9,1l2,0.7l-1.2,0.2c-2,0.2-4,0.3-6,0.4c0.7,1.9,2.1,3.2,4,3.7l2,0.5c-2,0.4-4,0.7-5.9,1
		c0.6,1.2,1.2,2.3,2.2,3.2c2.7,0.6,5.5,0.9,8.3,1c2.3,0.1,3.6-1.6,4.6-3.5c-1.5,0-3.1,0-4.6-0.1c-1.8-0.1-3.5-0.3-5.2-0.5l1.4-0.4
		c2.7-1,6.7-0.3,7.7-3.7c-1.8-0.3-3.6-0.5-5.4-0.7c1.6-1.2,2.6-3,3-4.9c-0.8-0.1-2.2-0.3-3-0.4l-1.5-0.1c-2.3-0.2-4.5-0.3-6.8-0.3
		c-0.1,0.7-0.2,2-0.2,2.6c-0.4-0.1-1.2-0.4-1.6-0.5c-0.3-1.1-0.5-2.2-0.7-3.2c1.5-0.2,3-0.5,4.5-0.7c2.1,0.1,4.1,0.4,6.1,0.6
		c1.6-0.1,3.3,0.1,4.7-0.6c0.6-1,1.1-2,1.5-3.1c-2.1,0-4.3-0.1-6.4-0.1c-2,0-4,0-6,0c0,0.8,0,2.4,0,3.1c-1.3-0.2-2.6-0.5-3.8-1
		c-1.3-2,0.5-4,1.3-5.7c1.2,0.5,2.4,1,3.6,1.4c2.3,0.4,4.6,0.6,6.9,0.8c2.4,0.2,3.6-1.3,3.8-3.5c-1.3,0-2.6,0-3.9,0
		c-1.7-0.1-3.5-0.2-5.2-0.4l1.4-0.6c2.2-0.8,5.5-0.8,5.1-4c-0.9-0.2-2.6-0.6-3.4-0.8c1.8-0.8,3.7-1.6,5.6-2.2c0-0.5,0.1-1.6,0.1-2.1
		c-1.5-0.2-3.1-0.4-4.6-0.6l-0.9-0.1c-2.6-0.3-5.2-0.5-7.8-0.5c0,0.7-0.1,2-0.2,2.7c-0.4-0.1-1.1-0.4-1.5-0.5
		c-0.2-0.6-0.6-1.7-0.8-2.2c0.4-0.3,1.1-1,1.5-1.3c-1.8-4.4-0.7-9.3-0.9-13.9c0-2.7-0.7-5.8,1.2-8c3,0.7,6.1,0.8,9.2,0.9
		c-0.4-0.3-1.1-0.9-1.4-1.2c0.2-0.3,0.5-0.9,0.7-1.2c1.5-0.6,2.2-2,2.9-3.3C150.9,10.3,149.9,9.6,148.9,8.9 M141.2,20.5
		c1.2,0.5,2.3,1,3.5,1.5l2.2,0.1c-1.6,1.3-3.8,1.1-5.7,1.3c0,1.7,1,2.8,2.4,3.5c2.5,0.3,5.1,0.6,7.6,0.9c1.1-0.1,2.2-0.3,3.2-0.6
		c0.3-1,0.6-2.1,0.8-3.1c-0.8,0.1-2.5,0.2-3.4,0.2c-1.5-0.2-3-0.4-4.5-0.6c2.3-1.2,4.9-1.4,7.3-2.2c0.1-0.7,0.3-2,0.4-2.7
		c0.8-0.1,2.4-0.4,3.2-0.6c-5.5,0-11,0-16.4-0.5C141.5,18.8,141.3,19.6,141.2,20.5 M157.2,32.6c1.9,0.1,3.7,0.2,5.5,0.3
		c-1.3,1-2.8,2-4.3,2.7c0,0.5-0.1,1.6-0.2,2.2c2.1,0,4.1-0.1,6.1-0.4c-0.3-1.6-0.7-3.1-1.2-4.6c0.3-0.4,0.8-1.3,1-1.7
		c-0.1-0.7-0.3-2.2-0.4-3C161.1,28.7,158.3,29.7,157.2,32.6 M143.2,29c0,0.7,0.1,2.1,0.1,2.7c2.4,1,5,1.1,7.6,1.1
		c2.5,0.5,4.2-1,4-3.5c-1.6,0-3.1,0-4.6-0.1C147.9,29,145.6,28.9,143.2,29 M143.3,34.3c0,0.6,0,1.9,0,2.5c2.2,1.1,4.7,1.2,7.2,1
		l0.3,0.7c1.2-0.3,2.4-0.6,3.7-0.9c0.4-1.1,0.8-2.1,1.2-3.2c-2.2,0-4.4,0-6.6,0C147.1,34.3,145.2,34.3,143.3,34.3 M158.5,50.5
		c-0.4,1.1-0.8,2.1-1.2,3.2c1.8,0.1,3.5,0.2,5.3,0.3c-1.3,0.7-2.6,1.3-3.9,1.9c-0.6,0.9-1.1,1.9-1.6,2.8c2.1,0,4.3,0.4,6.4-0.2
		c1.4-1.3,0.1-3.3-0.2-4.9c0.2-0.4,0.6-1.2,0.8-1.5c-0.1-0.8-0.2-2.4-0.2-3.2C162.1,49.4,160.3,49.9,158.5,50.5 M140.9,81.3
		c0.7,2.1,2.7,3,4.5,3.9c1.1-0.1,3.4-0.2,4.5-0.3c1.1,1.6,4.2-1.5,2.1-2.7C148.5,80.7,144.6,80.9,140.9,81.3 M141.2,86.3
		c0.1,0.6,0.2,1.7,0.3,2.3c1.1,0.5,2.1,1,3.2,1.6l2.1,0.3c-1.9,0.5-3.8,0.9-5.8,1.1c0.2,1.7,1.2,3,2.9,3.6c2.5,0.3,5,0.6,7.6,0.8
		c2.5,0.2,3.7-1.3,3.8-3.6c-1.3,0-2.6,0.1-3.9,0.1c-1.6-0.3-3.3-0.5-4.9-0.7c2.8-0.7,5.6-1,8.4-1.9c0-0.6,0.1-1.9,0.1-2.5
		c-1.3,0-2.6,0-3.9,0c-0.7-0.1-2.1-0.4-2.8-0.5C145.8,86.1,143.5,86.1,141.2,86.3 M141.2,96.5c-0.1,2.3,1.6,3.6,3.8,3.8
		c1.4,0.4,2.9,0.4,4.3,0.6c0.8-0.1,2.5-0.2,3.4-0.2c0.5,0,1.4,0,1.9,0c0.4-1.1,0.8-2.3,1.2-3.4c-1.9,0-3.7-0.1-5.6-0.1
		c-0.5,0-1.5-0.1-2-0.2c-0.9,0-2.6,0.1-3.4,0.2l-0.1-0.8C143.5,96.4,142.3,96.4,141.2,96.5z"/>
</g>
<g id="_x23_d67913ff">
	<path class="st5" d="M135.8,13.9c1.6,0.7,3.2,1.4,4.9,2c-1.9,2.3-1.2,5.3-1.2,8c0.2,4.6-0.9,9.4,0.9,13.9c-0.4,0.3-1.1,1-1.5,1.3
		c0.2,0.6,0.6,1.7,0.8,2.2c0.4,0.1,1.1,0.4,1.5,0.5l1.7,0.5c-1.2,0.5-2.5,1-3.7,1.5c0.4,1.2,0.9,2.4,1.3,3.6c-0.5,1.3-1,2.7-1.4,4
		c0.4,0,1.4,0.2,1.8,0.2c-0.8,1.7-2.5,3.8-1.3,5.7c1.2,0.5,2.5,0.8,3.8,1c-1.5,0.2-3,0.4-4.5,0.7c0.2,1.1,0.5,2.2,0.7,3.2
		c0.4,0.1,1.2,0.4,1.6,0.5l0.9,0.3c-1,0.4-1.9,0.8-2.9,1.2c0.3,4.5,0.1,9,0,13.5c0.3,0.2,1,0.5,1.3,0.7c0.6,0.2,1.9,0.7,2.6,1
		c-1.5,0.2-2.9,0.5-4.3,0.7c0.5,1.6,1,3.2,1.6,4.8c-0.3,0.3-0.9,1-1.2,1.3c0.3,4.2,0.4,8.5-0.2,12.7c-0.7,0.2-2,0.6-2.7,0.8
		c-0.9-15.2,0-30.3-0.3-45.5C135.7,40.7,136.4,27.3,135.8,13.9z"/>
</g>
<g id="_x23_fce16dff">
	<path class="st6" d="M165.1,16c1.6-0.6,3.1-1.3,4.7-2c0,1.3,0.1,2.7,0.2,4c-1.8,1-3.6,2.1-5.5,3.1c-0.2-0.9-0.5-2.8-0.6-3.7
		C164.2,17.1,164.8,16.4,165.1,16z"/>
</g>
<g id="_x23_ffe566ff">
	<path class="st7" d="M141.2,20.5c0.1-0.9,0.3-1.8,0.4-2.6c5.5,0.5,10.9,0.5,16.4,0.5c-0.8,0.2-2.4,0.4-3.2,0.6
		c-0.1,0.7-0.3,2-0.4,2.7c-2.4,0.8-5,1-7.3,2.2c-1.2-0.1-2.4-0.2-3.6-0.2c-0.1,1.1-0.1,2.2-0.2,3.4c-1.5-0.7-2.4-1.9-2.4-3.5
		c2-0.2,4.1,0,5.7-1.3c1.6-0.1,3.2-0.3,4.8-0.5c0-0.5,0-1.6,0-2.2c-2.4-0.4-4.7-0.7-7.1-1.1c0.1,0.9,0.1,2.8,0.2,3.7
		C143.5,21.5,142.3,21,141.2,20.5z"/>
</g>
<g id="_x23_cd6815ff">
	<path class="st8" d="M159.2,21.9c0.5-2.5,2.3-4,4.7-4.5c0.1,0.9,0.4,2.8,0.6,3.7c1.8-1,3.6-2.1,5.5-3.1l-0.5,1
		c-1.7,1.2-3.5,2.1-5.4,2.8C162.5,21.9,160.9,21.9,159.2,21.9z"/>
</g>
<g id="_x23_fef1baff">
	<path class="st9" d="M144.5,18.4c2.4,0.3,4.7,0.7,7.1,1.1c0,0.5,0,1.6,0,2.2c-1.6,0.2-3.2,0.4-4.8,0.5l-2.2-0.1
		C144.6,21.1,144.5,19.3,144.5,18.4z"/>
</g>
<g id="_x23_fae16dff">
	<path class="st10" d="M164.1,21.8c1.9-0.7,3.8-1.6,5.4-2.8c0.2,1.4,0.3,2.8,0.5,4.1c-1.8,1.1-3.6,2.2-5.4,3.3
		c-0.2-1.3-0.3-2.6-0.4-3.8L164.1,21.8z"/>
</g>
<g id="_x23_eb9b2cff">
	<path class="st11" d="M101.8,24.1c8.7-2.1,19.4-2.5,26.6,3.7c0,0.9-0.1,2.6-0.1,3.4c-1.8,0.8-3.6,1.5-5.5,2.1
		c-4.3,0.5-9.1,1.1-12.8-1.8c1.1-1.5,2.1-3,3.2-4.5c-0.7-0.1-2-0.3-2.7-0.4c-0.7-0.1-2.1-0.3-2.8-0.4c3.7-0.3,7.5-0.4,11.3-0.2
		c-0.2,2-0.3,4.1-0.4,6.1c2.7,0.3,7.8-1.6,5.2-4.8c-5.2-3.8-12.1-2.9-18.2-3.1C104.5,24.3,102.7,24.2,101.8,24.1z"/>
</g>
<g id="_x23_d67018ff">
	<path class="st12" d="M158.6,24.6c1.9-0.6,3.7-1.3,5.6-2c0.1,1.3,0.3,2.6,0.4,3.8c1.8-1,3.6-2.1,5.4-3.3c-0.2,0.5-0.5,1.4-0.6,1.8
		c-1.5,0.7-3.1,1.3-4.7,1.7c-2.5,0.5-4.9,0.8-7.4,1.2C157.8,26.8,158.2,25.7,158.6,24.6z"/>
	<path class="st12" d="M158.6,87.5c1.9-0.7,3.7-1.3,5.5-2.1c0.1,0.9,0.2,2.8,0.3,3.8c1.9-1,3.8-2,5.6-3.1c-0.2,0.4-0.5,1.3-0.7,1.7
		c-1.7,0.8-3.5,1.5-5.3,2c-2.2,0.4-4.5,0.7-6.8,1C157.7,89.7,158.2,88.6,158.6,87.5z"/>
</g>
<g id="_x23_ffe358ff">
	<path class="st13" d="M94.4,30.7c-0.3-4.1,4-6.3,7.5-6.6c0.9,0,2.7,0.1,3.6,0.2c-1.9,0.8-3.7,1.6-5.5,2.6l-0.5,0.6
		c-0.1,0.5-0.3,1.6-0.4,2.1c2.9,1.1,5.7,2.4,8.3,4.1c-2.1-0.1-4.2-0.2-6.3-0.5c-1.4-0.3-2.7-0.7-4.1-1.1C96.3,31.7,95,31,94.4,30.7z
		"/>
</g>
<g id="_x23_e37c10ff">
	<path class="st14" d="M105.4,24.3c6.1,0.1,13-0.8,18.2,3.1c2.6,3.3-2.5,5.2-5.2,4.8c0.2-2,0.3-4.1,0.4-6.1
		c-3.8-0.2-7.5-0.1-11.3,0.2c-2.3,0-4.5,0.8-6.6,1.6c-0.3-0.2-0.9-0.8-1.2-1C101.7,25.9,103.5,25.1,105.4,24.3z"/>
</g>
<g id="_x23_fef3bdff">
	<path class="st15" d="M143.5,27c0.1-1.1,0.1-2.2,0.2-3.4c1.2,0.1,2.4,0.1,3.6,0.2c1.5,0.2,3,0.3,4.5,0.6c-0.2,1.1-0.4,2.3-0.6,3.4
		C148.6,27.6,146,27.3,143.5,27z"/>
</g>
<g id="_x23_f9d652ff">
	<path class="st16" d="M151.8,24.4c0.8-0.1,2.5-0.2,3.4-0.2c-0.2,1-0.4,2.1-0.8,3.1c-1.1,0.3-2.2,0.5-3.2,0.6
		C151.3,26.7,151.5,25.6,151.8,24.4z"/>
	<path class="st16" d="M150.2,76.2c1.8,0,3.7,0,5.5,0.1c-0.4,1.2-0.7,2.3-1.1,3.4c-0.5,0-1.5,0.1-2.1,0.1
		C151.8,78.6,151.1,77.3,150.2,76.2z"/>
	<path class="st16" d="M150.1,97.2c1.9,0,3.7,0.1,5.6,0.1c-0.4,1.1-0.8,2.3-1.2,3.4c-0.5,0-1.4,0-1.9,0
		C151.8,99.5,151,98.3,150.1,97.2z"/>
</g>
<g id="_x23_fae371ff">
	<path class="st17" d="M164.7,26.7c1.6-0.5,3.2-1,4.7-1.7c0.2,1.2,0.5,2.4,0.7,3.6c-1.8,0.7-3.6,1.5-5.4,2.2
		C164.7,29.4,164.7,28.1,164.7,26.7z"/>
</g>
<g id="_x23_efba3dff">
	<path class="st18" d="M99.4,27.5l0.5-0.6c0.3,0.2,0.9,0.8,1.2,1c2,2.6,5.3,2.4,8.3,2.6c0.4-1.3,0.8-2.5,1.2-3.8
		c0.7,0.1,2,0.3,2.7,0.4c-1.1,1.5-2.1,3-3.2,4.5c3.7,2.9,8.5,2.2,12.8,1.8c0.2,1.5,0.4,3,0.6,4.5c1.6-1,3.2-2.1,4.8-3.1
		c0,0.5-0.1,1.6-0.1,2.2c-1.4,0.7-2.8,1.4-4.1,2.1c-1.7,0.6-0.7,2.8-1.1,4.1c1.7-1,3.4-2.1,5.1-3.1c0,0.5,0,1.5,0,2
		c-1.8,1-3.6,2-5.4,2.9c0.1,0.8,0.4,2.4,0.6,3.2c1.6-0.8,3.2-1.5,4.9-2.3l0,1.2c-1.7,1.1-3.5,2-5.3,2.9c0.1,0.8,0.3,2.5,0.4,3.3
		c1.6-0.8,3.3-1.6,4.9-2.4c0,0.5,0,1.5,0,1.9c-1.7,0.8-3.4,1.5-5.2,2.2c0.1,0.9,0.1,2.6,0.2,3.5c1.7-0.8,3.3-1.6,5-2.5
		c0,0.5,0,1.5,0,2c-1.8,1-3.8,1.8-5.7,2.7c-2,0.6-3.2,2.2-3.7,4.2c1.3,0,2.7,0,4.1-0.1c0.1,1.5,0.3,3,0.4,4.5
		c1.6-0.8,3.2-1.6,4.9-2.4V68c-1.7,1.1-3.5,2-5.3,2.9c0.1,0.8,0.3,2.5,0.4,3.3c1.6-0.8,3.2-1.6,4.9-2.4c0,0.5,0,1.5,0,2
		c-1.7,0.7-3.5,1.4-5.2,2c0.1,0.8,0.3,2.5,0.4,3.4c1.6-0.8,3.2-1.5,4.8-2.3c0,0.5,0,1.5,0,2c-1.7,0.8-3.4,1.4-5.1,2.1
		c0,1.3,0.1,2.6,0.2,3.9c1.6-1,3.3-2.1,4.9-3.1c0,0.5,0,1.5,0,2c-1.4,0.7-2.8,1.3-4.1,2.1c-1.8,0.6-0.7,2.9-1,4.2
		c1.7-1,3.4-2,5.1-3.1c0,0.5,0,1.5,0,2c-1.7,1-3.5,1.9-5.3,2.8c0.1,0.8,0.3,2.5,0.4,3.3c1.6-0.8,3.3-1.6,4.9-2.4c0,0.4,0,1.3,0,1.8
		c-2.1,1-4.2,2-5.9,3.7h-0.1c0.2-2,0.3-4.1,0.4-6.1c-2.7,0.4-5.1,1.7-6.4,4.2c1,0.3,2.9,1,3.9,1.4c-5.5,2-11.4,0.5-17,0.6
		c-1.3,0-2,1.4-2.9,2c-0.5,0.1-1.6,0.3-2.1,0.5c0.2-1.1,0.4-2.2,0.6-3.4c1.2-0.3,2.4-0.7,3.6-1l1,0c1.7,0.1,3.5,0.2,5.2,0.3
		c1.4,0,2.8-0.1,4.2-0.1c0.4-1.2,0.8-2.3,1.2-3.4c-2.1,0-4.3,0-6.4,0c-1.4,0-2.7-0.1-4.1-0.2c-0.2-0.2-0.6-0.7-0.8-0.9l-0.8-0.9
		c0.6,0,1.8,0.2,2.4,0.2c2.5,0.3,5,0.4,7.5,0.2c0.1-1.1,0.2-2.1,0.4-3.2c-1.5-0.2-3.1-0.3-4.6-0.5c-0.7,0-2-0.1-2.7-0.2
		c2.9-1.2,8.3-0.2,8-4.6c-0.8,0-2.6-0.1-3.4-0.1c-0.7-0.1-2.2-0.3-2.9-0.5c-0.4-0.2-1.1-0.5-1.5-0.6l-1.3-1.1c1.5,0.2,3,0.3,4.5,0.5
		c1.6-0.3,5-0.8,3.1-3.1c-0.8-0.2-2.3-0.6-3.1-0.7c-2.1-0.2-4.2-0.2-6.4-0.3c0,0.7,0,2.1-0.1,2.8c-0.5-0.2-1.5-0.6-2-0.8
		c-0.3-0.5-0.9-1.7-1.2-2.2c1.3-0.6,2.6-1.2,4-1.7l0.6,0.1c1.9,0.2,3.8,0.5,5.8,0.6c1-0.2,2.1-0.5,3.1-0.8c0-3-3.3-2.7-5.4-3
		c-0.7-0.1-2.2-0.3-3-0.4c-0.4-0.1-1.2-0.2-1.6-0.3l0.4-1.3c2.6,0.3,5.2,0.6,7.7,0.7c2.5,0.2,4-1,4.2-3.5c-1.7,0-3.3,0-4.9-0.1
		c-1.6-0.1-3.2-0.3-4.9-0.5c2.4-0.9,5-1,7.4-1.4c0.9-0.7,0.9-2.1,1.4-3c-1.5-0.1-3-0.3-4.5-0.4c-0.6-0.1-1.9-0.2-2.5-0.2
		c-0.4-0.2-1.2-0.6-1.6-0.9l-1.2-0.9c1,0.1,3,0.2,4,0.3c1.5-0.1,3-0.2,4.4-0.4c0-0.7,0-2-0.1-2.7c-1.4-0.2-2.8-0.4-4.3-0.6
		c-2-0.2-4-0.3-5.9-0.4c0,0.7-0.1,2.2-0.2,2.9c-1.9-0.4-3-1.8-3.5-3.5c1.4-0.4,2.7-0.8,4.1-1.1l0.9-0.1c1.8,0.2,3.7,0.5,5.5,0.6
		c3,0.5,4.9-1.6,6.4-3.8c-2.5,0-5,0-7.5,0c-1.6,0-3.2-0.1-4.8-0.1c-0.1-0.4-0.3-1.1-0.3-1.5l0.1-0.5c2.5,0.3,5.1,0.5,7.6,0.6
		c-0.1-1.1-0.2-2.1-0.3-3.2c-1.7-0.3-3.4-0.6-5.1-0.8c3.3-1.3,8.1-0.3,9.6-4.4c-1.8-0.1-3.6-0.2-5.4-0.4c-0.8-0.1-2.3-0.2-3.1-0.2
		c2.4-0.7,4.9-1.3,7-2.8c0.4-2-2.3-2-3.5-2.4c-2.5-0.1-4.9-0.2-7.4-0.3c-0.1,0.7-0.2,2.2-0.3,3c-1.5-0.4-2.3-1.7-3-3.1
		c0.9-0.7,1.9-1.3,2.8-2c2.1,0.3,4.2,0.4,6.3,0.5c-2.7-1.6-5.5-2.9-8.3-4.1C99.1,29.1,99.3,28,99.4,27.5 M118.5,36.9
		c-0.8,2.6,2.3,1.9,3.8,2.2c-0.1-1.5-0.2-2.9-0.3-4.3C120.7,35.1,119.1,35.4,118.5,36.9 M118.5,44.1c0.9,0,2.8,0,3.7-0.1
		c-0.1-1.4-0.2-2.9-0.3-4.3C119.9,40.4,117.9,41.7,118.5,44.1 M119.9,46.1c-0.7,0-2,0.1-2.7,0.2c-0.4,1.2-0.7,2.4-1.1,3.6
		c1.7-0.1,3.4-0.1,5.1-0.2l-0.5-0.6C123.6,48.9,121.9,43.2,119.9,46.1 M116.2,54.7c2.1,0.1,4.3,0.1,6.3-0.3c-0.2-1-0.5-2.9-0.7-3.8
		C119.1,50.7,117,52.1,116.2,54.7 M119,59.6c0.8,0.1,2.5,0.3,3.3,0.4c-0.1-1.5-0.2-2.9-0.4-4.4C120.3,56,117.1,57.8,119,59.6
		 M119.9,67.1c-0.7,0-2.1,0.1-2.8,0.1c-0.3,1.2-0.7,2.4-1,3.6c1.6-0.1,3.3-0.3,4.9-0.6C123.5,69.8,121.9,64.3,119.9,67.1
		 M116.2,75.7c1.6,0,3.2,0.1,4.8,0c2.1,0.1,0.7-3,1.1-4.1C119.3,71.6,117.1,73.1,116.2,75.7 M117.3,78.2c0,0.7-0.1,2-0.1,2.6
		c1.7,0.1,3.4,0.1,5.2,0.2c-0.1-1.5-0.2-2.9-0.4-4.3C120.4,77.2,118.8,77.7,117.3,78.2 M118.8,85.8c0.9,0.1,2.8,0.3,3.7,0.4
		c-0.2-1.5-0.4-3-0.6-4.5C120.3,82.4,117.3,83.5,118.8,85.8 M118,88.9c0.7,2,2.4,2.8,4.4,2.3c-0.2-1.4-0.4-2.9-0.5-4.3
		C120.6,87.6,119.3,88.3,118,88.9z"/>
</g>
<g id="_x23_edebd1ff">
	<path class="st19" d="M128.4,27.8c0.2,2.7,0.4,5.5,0.4,8.2c0,16.7,0,33.3,0,50c0.1,4.2-0.3,8.4,0.4,12.6c2.4,0,4.9,0.2,7.2,1
		l-0.7,0.2c-0.5,0.2-1.5,0.6-2,0.8c1.4,0.3,2.8,0.6,4.2,0.9c-1.7,0.3-3.5,0.7-5.2,1.1c1.4,0.3,2.8,0.7,4.2,1c-2,0.3-4,0.6-5.9,0.9
		c1.3,0.3,2.6,0.6,3.8,1c-2,0.3-4,0.7-6,1c1.4,0.4,2.7,0.8,4.1,1.2c-9,0-17.8,1.7-26.8,1.5c1.5,0.7,3,1.5,4.5,2.2
		c-1.2,0.2-2.3,0.4-3.4,0.7c-0.5,0-1.4,0-1.9-0.1c-0.5-0.3-1.6-0.9-2.1-1.2c-6.6-3.3-14.7,3.1-21-1.9c0.7-1.1,1.3-2.2,2-3.3
		c-0.2-0.6-0.5-1.1-0.7-1.7c0.4-0.3,1.1-0.9,1.5-1.2c0.4-0.2,1.2-0.5,1.6-0.6c0-0.5,0.1-1.6,0.1-2.2c0-0.8,0.1-2.3,0.1-3.1
		c0-0.5,0-1.5,0.1-2c0-0.8,0-2.3,0-3.1c0-0.5,0-1.6,0-2.1c0-1.2,0-2.5,0-3.7l0-1.4c0-1.3-0.1-2.6-0.1-3.9c0-0.4,0-1.2,0-1.6
		c0-0.8,0-2.3,0-3c0-0.6,0-1.8,0-2.4c0-0.8,0-2.2,0-3c0-0.5,0-1.5,0-2c0-1.2,0-2.5,0-3.8l0-1.5c0-1.2,0-2.4,0-3.6
		c0.1-0.8,0.3-2.5,0.5-3.3c1,8.7,0.1,17.5,0.4,26.2c0.3,6.3-0.3,12.6,0.2,18.9c2.2-0.3,4.3-0.4,6.5-0.5c0.5-0.1,1.4-0.1,1.8-0.2
		c0.4-0.1,1.2-0.2,1.6-0.3c0.5-0.1,1.6-0.3,2.1-0.5c1-0.7,1.6-2,2.9-2c5.7-0.1,11.5,1.4,17-0.6c0.7,0.2,1.4,0.4,2.1,0.5h0.1
		c2,0.2,4,0.3,6,0.5c0-1.4-0.1-2.8-0.1-4.2c0-0.5,0-1.3,0-1.8c0-1.2,0-2.5,0-3.7c0-0.5,0-1.5,0-2c0-0.8,0-2.4,0-3.2c0-0.5,0-1.5,0-2
		c0-0.7,0-2.2,0-3c0-0.5,0-1.5,0-2c0-0.8,0-2.3,0-3.1c0-0.5,0-1.5,0-2c0-1.3,0-2.6,0-3.8v-1.3c0-1.3,0-2.7,0-4c0-0.4,0-1.1,0-1.5
		c0-0.8,0-2.5,0-3.3c0-0.5,0-1.5,0-2c0-0.8,0-2.4,0-3.2c0-0.5,0-1.5,0-1.9c0-1.3,0-2.5,0-3.8l0-1.2c0-1.3,0-2.5,0-3.8
		c0-0.5,0-1.5,0-2c0-0.8,0-2.3,0-3.1c0-0.5,0.1-1.6,0.1-2.2c0-1.2,0.1-2.4,0.1-3.5C128.3,30.4,128.4,28.6,128.4,27.8z"/>
</g>
<g id="_x23_d67015ff">
	<path class="st20" d="M157.2,32.6c1.1-2.9,3.9-3.9,6.6-4.5c0.1,0.8,0.3,2.2,0.4,3c-0.3,0.4-0.8,1.3-1,1.7c0.4,1.5,0.8,3.1,1.2,4.6
		c-2,0.3-4.1,0.3-6.1,0.4c0.1-0.5,0.2-1.6,0.2-2.2c1.5-0.8,3-1.7,4.3-2.7C160.9,32.7,159.1,32.6,157.2,32.6z"/>
</g>
<g id="_x23_fef4c3ff">
	<path class="st21" d="M143.2,29c2.3-0.1,4.7,0.1,7,0.3c0.2,1.2,0.4,2.4,0.7,3.6c-2.6,0-5.2-0.2-7.6-1.1
		C143.3,31,143.2,29.7,143.2,29z"/>
	<path class="st21" d="M143.3,92.4c1-0.3,2-0.5,3.1-0.7c1.7,0.2,3.3,0.4,4.9,0.7c0,1.2,0,2.3,0,3.5c-2.5-0.2-5.1-0.4-7.6-0.8
		C143.6,94.2,143.4,93.3,143.3,92.4z"/>
</g>
<g id="_x23_fde05dff">
	<path class="st22" d="M150.2,29.3c1.5,0,3.1,0,4.6,0.1c0.2,2.5-1.4,4-4,3.5C150.7,31.7,150.4,30.5,150.2,29.3z"/>
</g>
<g id="_x23_fae26fff">
	<path class="st23" d="M164.6,33c1.7-0.9,3.4-1.8,5-2.9c0.1,1.2,0.3,2.3,0.4,3.5c-1.8,0.8-3.5,1.6-5.2,2.5
		C164.8,35.3,164.6,33.8,164.6,33z"/>
	<path class="st23" d="M164.1,42.7c1.9-0.5,3.8-1.4,5.4-2.6c0.2,1.4,0.3,2.7,0.5,4.1c-1.8,1.2-3.7,2.2-5.6,3.2c-0.1-1-0.2-3-0.3-4
		V42.7z"/>
	<path class="st23" d="M164.2,95c1.8-0.6,3.6-1.3,5.3-2.1c0.2,1.2,0.4,2.4,0.7,3.6c-1.8,0.8-3.5,1.5-5.2,2.3c-0.2-1-0.4-2.1-0.6-3.1
		L164.2,95z"/>
</g>
<g id="_x23_d26e09ff">
	<path class="st24" d="M94.5,101.4c0-23.6,0.2-47.1-0.1-70.7c0.7,0.3,2,1,2.6,1.4c-0.5,16.6-0.1,33.3-0.2,49.9
		c-0.2,6.4,0.5,12.9-0.5,19.2C95.8,101.3,94.9,101.3,94.5,101.4z"/>
	<path class="st24" d="M70.1,101.9c4,0.8,7.9-0.8,11.5-2.3l-0.6,2.2c1.3,0.1,2.7,0.3,4,0.4c0.6-0.8,1.2-1.5,1.8-2.3
		c0,0.5-0.1,1.6-0.1,2.2c-0.4,0.2-1.2,0.5-1.6,0.6c-2.6,0-5.1-0.1-7.7-0.2C75,102.5,72.5,102.3,70.1,101.9z"/>
	<path class="st24" d="M111.9,157.8c1.6-2.5,4.5-3.5,7.3-3.8c5.3,0,11.1-0.7,16,1.9c1.4,0.6,1.7,2.4,1.4,3.8
		c-1.5,1.6-3.8,1.7-5.8,2.3c1.3-1.6,2.7-3.2,4.2-4.7c-2.6-0.7-5.2-1.5-7.8-2.1c-0.7,0.9-1.5,1.8-2.2,2.7c-0.5-0.8-1-1.6-1.5-2.3
		C119.4,154.9,115.6,156.2,111.9,157.8z"/>
</g>
<g id="_x23_fee66cff">
	<path class="st25" d="M122.8,33.3c1.9-0.6,3.7-1.4,5.5-2.1c-0.1,1.2-0.1,2.4-0.1,3.5c-1.6,1-3.2,2.1-4.8,3.1
		C123.1,36.4,122.9,34.9,122.8,33.3z"/>
	<path class="st25" d="M79.8,62.2c2.4-0.5,4.8-1.2,7.1-2.1c0,1.2,0,2.4,0,3.6c-1.5,0.7-3,1.5-4.5,2.2c-0.4-0.9-0.8-1.7-1.2-2.6
		l-0.4-1L79.8,62.2z"/>
</g>
<g id="_x23_ebae35ff">
	<path class="st26" d="M97,32.1c1.3,0.5,2.7,0.8,4.1,1.1c-0.9,0.7-1.9,1.3-2.8,2c0.6,1.4,1.4,2.7,3,3.1c1.4,0.4,2.9,0.8,4.3,1.1
		c-2,0.9-5.9-0.1-6.1,2.8c0.9,1,2.2,1.5,3.4,2.1l1.9,0.2c-1.8,0.5-3.7,0.9-5.6,1.2c0.2,0.8,0.4,1.7,0.6,2.5c0.6,0.3,1.8,0.8,2.4,1.1
		l-0.1,0.5c-0.8,0.2-2.3,0.7-3.1,1c0.4,1.7,1.3,3.1,2.9,3.9c-1.4,0.3-2.7,0.7-4.1,1.1c0.6,1.8,1.6,3.1,3.5,3.5
		c0.7,0.3,1.4,0.6,2.1,0.8l1.2,0.9c-2,0.1-4,0.3-5.9,0.5c0.7,1.8,2.1,3.2,4,3.7l1.9,0.5c-1.8,0.4-3.7,0.7-5.5,1
		c0.2,0.8,0.4,1.7,0.6,2.6c0.6,0.2,1.8,0.7,2.4,1l-0.4,1.3c-0.6,0-1.9,0-2.5,0c0.1,1,0.3,1.9,0.4,2.9c0.7,0.3,1.9,0.8,2.6,1.1
		c-1.3,0.5-2.6,1.1-4,1.7c0.3,0.6,0.9,1.7,1.2,2.2c0.5,0.2,1.5,0.6,2,0.8c0.7,0.3,1.3,0.5,2,0.8l1.3,1.1c-1.8,0-3.6,0.1-5.5,0.2
		c0,0.6,0.1,1.8,0.1,2.4c1,0.4,2.1,0.8,3.1,1.2l2,0.7c-1.8,0.3-3.6,0.7-5.4,1.1c0.2,0.8,0.4,1.6,0.7,2.4c0.4,0.3,1.3,0.9,1.8,1.2
		l0.8,0.9c-0.9,0.1-2.6,0.2-3.4,0.3c0.6,1.7,1.5,3.2,3.2,4c-1.2,0.3-2.4,0.7-3.6,1c-0.2,1.1-0.4,2.2-0.6,3.4
		c-0.4,0.1-1.2,0.2-1.6,0.3c1-6.4,0.3-12.8,0.5-19.2C96.9,65.3,96.5,48.7,97,32.1z"/>
</g>
<g id="_x23_fef5d3ff">
	<path class="st27" d="M143.3,34.3c1.9,0,3.8,0,5.7,0.1c0.5,1.1,1,2.3,1.5,3.4c-2.4,0.2-4.9,0.2-7.2-1
		C143.3,36.2,143.3,34.9,143.3,34.3z"/>
	<path class="st27" d="M144.7,39.7c1.5,0,3-0.1,4.6-0.1l0.9,0.1c-0.1,0.8-0.4,2.4-0.6,3.2c-1.6-0.1-3.1-0.2-4.7-0.3
		C144.8,41.9,144.7,40.5,144.7,39.7z"/>
	<path class="st27" d="M145.1,50.3c0.2-0.1,0.7-0.3,1-0.4c1.7,0.1,3.4,0.3,5.2,0.4c0,1.2,0.1,2.4,0.1,3.5c-2.3-0.1-4.6-0.3-6.9-0.8
		C144.6,52.4,144.9,51,145.1,50.3z"/>
</g>
<g id="_x23_fde15dff">
	<path class="st28" d="M149,34.3c2.2,0,4.4,0,6.6,0c-0.4,1.1-0.8,2.1-1.2,3.2c-1.2,0.3-2.4,0.6-3.7,0.9l-0.3-0.7
		C150,36.6,149.5,35.5,149,34.3z"/>
	<path class="st28" d="M149.4,55.3c2.1,0,4.3,0,6.4,0.1c-0.5,1-1,2.1-1.5,3.1c-1.4,0.7-3.1,0.5-4.7,0.6
		C149.5,57.8,149.4,56.5,149.4,55.3z"/>
</g>
<g id="_x23_fef3c5ff">
	<path class="st29" d="M101.5,35.3c2.4,0.1,4.9,0.2,7.4,0.3c-0.1,0.8-0.2,2.3-0.3,3.1c-1,0.2-2,0.4-3,0.6c-1.4-0.3-2.9-0.7-4.3-1.1
		C101.3,37.5,101.4,36,101.5,35.3z"/>
</g>
<g id="_x23_cf6811ff">
	<path class="st30" d="M118.5,36.9c0.6-1.5,2.2-1.8,3.5-2.2c0.1,1.5,0.2,2.9,0.3,4.3C120.8,38.7,117.7,39.5,118.5,36.9z"/>
</g>
<g id="_x23_fbe270ff">
	<path class="st31" d="M163.9,38.4c2.1-0.7,4.1-1.8,5.9-3.3c0.1,1.3,0.2,2.6,0.3,3.9c-1.8,1-3.6,2-5.4,3
		C164.4,41.1,164.1,39.3,163.9,38.4z"/>
	<path class="st31" d="M163.9,59.3c2.1-0.8,4.1-1.8,5.8-3.2c0.1,1.3,0.2,2.6,0.3,3.8c-1.8,1-3.6,2.1-5.4,3.2
		C164.4,62.1,164.1,60.2,163.9,59.3z"/>
	<path class="st31" d="M163.9,80.3c2-0.8,4-1.8,5.8-3.2c0.1,1.2,0.2,2.5,0.4,3.7c-1.8,1.1-3.6,2.2-5.4,3.2
		C164.5,83.2,164.1,81.3,163.9,80.3z"/>
	<path class="st31" d="M163.9,101.3c2.1-0.7,4.1-1.8,5.9-3.2c0,1.3,0.1,2.5,0.1,3.8c-1.6,1-3.3,2-4.9,3
		C164.6,103.9,164.1,102.2,163.9,101.3z"/>
</g>
<g id="_x23_f8da6aff">
	<path class="st32" d="M108.9,35.6c1.2,0.4,4,0.4,3.5,2.4c-2.1,1.4-4.6,2.1-7,2.8c-1.1,0.2-2.2,0.3-3.2,0.5c0.2,1,0.4,1.9,0.6,2.9
		c-1.2-0.6-2.5-1.1-3.4-2.1c0.2-2.9,4.1-1.8,6.1-2.8c1-0.2,2-0.4,3-0.6C108.7,38,108.8,36.4,108.9,35.6z"/>
</g>
<g id="_x23_fde36aff">
	<path class="st33" d="M123.9,39c1.3-0.8,2.7-1.4,4.1-2.1c0,0.8,0,2.3,0,3.1c-1.7,1.1-3.4,2.1-5.1,3.1
		C123.2,41.8,122.3,39.6,123.9,39z"/>
</g>
<g id="_x23_fbe17cff">
	<path class="st34" d="M141.4,39.1c2.6,0,5.2,0.2,7.8,0.5c-1.5,0-3,0.1-4.6,0.1c0.1,0.7,0.1,2.2,0.2,2.9c-0.7-0.1-1.3-0.2-2-0.3
		l-1.7-0.5C141.2,41.2,141.3,39.8,141.4,39.1z"/>
</g>
<g id="_x23_d56e15ff">
	<path class="st35" d="M157.2,43.6c0.9-3.1,3.7-4.6,6.7-5.2c0.2,0.9,0.6,2.8,0.8,3.7c1.8-1,3.6-2,5.4-3l-0.5,1
		c-1.6,1.2-3.5,2.1-5.4,2.6C161.8,43,159.5,43.3,157.2,43.6z"/>
	<path class="st35" d="M156.3,64.9c1.8-2.8,4.2-4.9,7.5-5.6c0.2,0.9,0.6,2.8,0.8,3.8c1.8-1,3.6-2.1,5.4-3.2l-0.5,1.1
		c-1.6,1.2-3.5,2.1-5.4,2.6C161.5,64,158.9,64.4,156.3,64.9z"/>
</g>
<g id="_x23_cf6812ff">
	<path class="st36" d="M118.5,44.1c-0.6-2.4,1.4-3.7,3.3-4.4c0.1,1.4,0.2,2.9,0.3,4.3C121.3,44.1,119.4,44.1,118.5,44.1z"/>
	<path class="st36" d="M118.8,85.8c-1.4-2.3,1.5-3.3,3.1-4.1c0.2,1.5,0.4,3,0.6,4.5C121.5,86.1,119.7,85.9,118.8,85.8z"/>
</g>
<g id="_x23_fde166ff">
	<path class="st37" d="M150.1,39.7c1.5,0.2,3.1,0.4,4.6,0.6c0,0.5-0.1,1.6-0.1,2.1c-1.9,0.7-3.8,1.4-5.6,2.2
		c-1.5,0.2-2.9,0.4-4.4,0.6c-0.3,1.5,0.2,2.7,1.6,3.6c-1.6,0.3-3.1,0.5-4.7,0.8c-0.2,0.5-0.5,1.6-0.7,2.1c-0.5,0-1.4-0.2-1.8-0.2
		c0.5-1.3,1-2.7,1.4-4c-0.4-1.2-0.9-2.4-1.3-3.6c1.2-0.5,2.5-1,3.7-1.5c0.7,0.1,1.3,0.2,2,0.3c1.6,0.1,3.1,0.2,4.7,0.3
		C149.7,42.1,150,40.5,150.1,39.7z"/>
</g>
<g id="_x23_fef6d2ff">
	<path class="st38" d="M102.2,41.3c1.1-0.2,2.1-0.3,3.2-0.5c0.8,0.1,2.3,0.2,3.1,0.2c-0.4,1.2-0.8,2.3-1.2,3.5c-0.7,0-2-0.1-2.6-0.1
		l-1.9-0.2C102.7,43.2,102.4,42.3,102.2,41.3z"/>
</g>
<g id="_x23_fde369ff">
	<path class="st39" d="M108.6,41c1.8,0.1,3.6,0.3,5.4,0.4c-1.5,4.1-6.3,3-9.6,4.4c-0.5,0.1-1.4,0.4-1.8,0.5
		c-0.1,0.7-0.3,2.2-0.4,2.9c-0.6-0.3-1.8-0.8-2.4-1.1c-0.2-0.8-0.4-1.7-0.6-2.5c1.9-0.3,3.7-0.7,5.6-1.2c0.7,0,2,0.1,2.6,0.1
		C107.8,43.4,108.2,42.2,108.6,41z"/>
	<path class="st39" d="M107.2,51.3c2.5,0,5,0,7.5,0c-1.5,2.2-3.4,4.3-6.4,3.8C108,53.8,107.6,52.6,107.2,51.3z"/>
	<path class="st39" d="M108.7,62c1.5,0.1,3,0.2,4.5,0.4c-0.5,1-0.6,2.3-1.4,3c-2.5,0.5-5.1,0.5-7.4,1.4c-0.4,0.1-1.3,0.4-1.8,0.6
		c-0.1,0.7-0.3,2.1-0.4,2.8c-0.6-0.2-1.8-0.7-2.4-1c-0.2-0.9-0.4-1.7-0.6-2.6c1.8-0.3,3.7-0.6,5.5-1C106.9,65.5,108.3,64.2,108.7,62
		z"/>
	<path class="st39" d="M107.2,93.3c2.1,0,4.3,0,6.4,0c-0.4,1.1-0.8,2.3-1.2,3.4c-1.4,0-2.8,0.1-4.2,0.1
		C107.9,95.6,107.6,94.5,107.2,93.3z"/>
</g>
<g id="_x23_fbe167ff">
	<path class="st40" d="M122.6,44.9c1.8-1,3.6-1.9,5.4-2.9c0,1.3,0,2.5,0,3.8c-1.6,0.8-3.2,1.5-4.9,2.3
		C123,47.3,122.8,45.7,122.6,44.9z"/>
	<path class="st40" d="M122.7,49.9c1.8-0.9,3.6-1.8,5.3-2.9c0,1.3,0,2.5,0,3.8c-1.6,0.8-3.2,1.6-4.9,2.4
		C123,52.4,122.8,50.7,122.7,49.9z"/>
	<path class="st40" d="M122.7,64.7c1.8-0.5,3.5-1.2,5.2-1.9c0,1.3,0,2.7,0,4c-1.6,0.8-3.2,1.6-4.9,2.4
		C123,67.6,122.9,66.2,122.7,64.7z"/>
	<path class="st40" d="M122.7,70.9c1.8-0.9,3.6-1.8,5.3-2.9c0,1.3,0,2.6,0,3.8c-1.6,0.8-3.3,1.6-4.9,2.4
		C123,73.4,122.8,71.8,122.7,70.9z"/>
	<path class="st40" d="M122.7,91.9c1.8-0.9,3.6-1.8,5.3-2.8c0,1.2,0,2.5,0,3.7c-1.6,0.8-3.3,1.6-4.9,2.4
		C123,94.4,122.8,92.8,122.7,91.9z"/>
</g>
<g id="_x23_cf6a17ff">
	<path class="st41" d="M159.6,48c-0.9-3,2.7-3.5,4.5-4.7c0.1,1,0.2,3,0.3,4c1.9-0.9,3.8-2,5.6-3.2c-0.2,0.5-0.5,1.4-0.7,1.8
		c-1.5,0.7-3.1,1.3-4.7,1.8C163,48,161.3,48.1,159.6,48z"/>
</g>
<g id="_x23_cb5e0dff">
	<path class="st42" d="M119.9,46.1c2-3,3.7,2.8,0.8,3C120,48.3,119.7,47.3,119.9,46.1z"/>
	<path class="st42" d="M119.9,67.1c2-2.8,3.6,2.6,1.1,3.2C120.2,69.4,119.8,68.4,119.9,67.1z"/>
</g>
<g id="_x23_fef5ccff">
	<path class="st43" d="M144.6,45.2c1.5-0.2,2.9-0.4,4.4-0.6c0.2,2.1-0.5,4-2.8,4.2C144.9,47.9,144.3,46.7,144.6,45.2z"/>
</g>
<g id="_x23_ffea87ff">
	<path class="st44" d="M149.1,44.6c0.9,0.2,2.6,0.6,3.4,0.8c0.5,3.2-2.9,3.2-5.1,4L146,50c-0.2,0.1-0.7,0.3-1,0.4
		c-0.1,0.7-0.4,2.1-0.6,2.8c-1.2-0.4-2.4-0.9-3.6-1.4c0.2-0.5,0.5-1.6,0.7-2.1c1.6-0.2,3.1-0.5,4.7-0.8
		C148.5,48.6,149.3,46.7,149.1,44.6z"/>
</g>
<g id="_x23_fef4c7ff">
	<path class="st45" d="M102.5,46.3c0.5-0.1,1.4-0.4,1.8-0.5c1.7,0.2,3.4,0.5,5.1,0.8c0.1,1.1,0.2,2.1,0.3,3.2
		c-2.5-0.1-5.1-0.3-7.6-0.6C102.2,48.5,102.4,47,102.5,46.3z"/>
	<path class="st45" d="M102.5,67.4c0.4-0.1,1.3-0.4,1.8-0.6c1.6,0.2,3.2,0.3,4.9,0.5c0.2,1.2,0.5,2.4,0.8,3.6
		c-2.6-0.1-5.2-0.3-7.7-0.7C102.2,69.4,102.4,68.1,102.5,67.4z"/>
</g>
<g id="_x23_df8e26ff">
	<path class="st46" d="M117.2,46.3c0.7,0,2-0.1,2.7-0.2c-0.2,1.1,0.1,2.1,0.8,3l0.5,0.6c-1.7,0.1-3.4,0.1-5.1,0.2
		C116.5,48.7,116.8,47.5,117.2,46.3z"/>
</g>
<g id="_x23_fae270ff">
	<path class="st47" d="M164.7,47.7c1.6-0.5,3.2-1.1,4.7-1.8c0.2,1.2,0.5,2.4,0.8,3.6c-1.8,0.8-3.6,1.5-5.4,2.4
		C164.7,50.5,164.7,49.1,164.7,47.7z"/>
</g>
<g id="_x23_de831fff">
	<path class="st48" d="M158.5,50.5c1.8-0.6,3.7-1.1,5.5-1.6c0.1,0.8,0.2,2.4,0.2,3.2c-0.2,0.4-0.6,1.2-0.8,1.5
		c0.2,1.5,1.6,3.5,0.2,4.9c-2.1,0.6-4.3,0.2-6.4,0.2c0.5-0.9,1.1-1.9,1.6-2.8c1.3-0.6,2.6-1.3,3.9-1.9c-1.8-0.1-3.5-0.2-5.3-0.3
		C157.7,52.6,158.1,51.6,158.5,50.5z"/>
</g>
<g id="_x23_fbdc66ff">
	<path class="st49" d="M99,50.7c0.8-0.2,2.3-0.7,3.1-1c0.1,0.4,0.3,1.1,0.3,1.5c0.1,0.8,0.3,2.4,0.4,3.2l-0.9,0.1
		C100.3,53.8,99.4,52.4,99,50.7z"/>
</g>
<g id="_x23_fad854ff">
	<path class="st50" d="M151.2,50.3c1.3,0,2.6,0,3.9,0c-0.2,2.2-1.5,3.7-3.8,3.5C151.3,52.7,151.2,51.5,151.2,50.3z"/>
</g>
<g id="_x23_fef7d6ff">
	<path class="st51" d="M102.4,51.2c1.6,0.1,3.2,0.1,4.8,0.1c0.4,1.2,0.7,2.5,1.1,3.8c-1.8-0.2-3.7-0.4-5.5-0.6
		C102.7,53.6,102.5,52,102.4,51.2z"/>
	<path class="st51" d="M61.7,77.9c0.3-1.2,0.6-2.3,0.9-3.4c0.9,0.1,2.7,0.2,3.7,0.3c0.4,0,1.2,0.1,1.5,0.2c-0.1,0.7-0.2,2-0.3,2.7
		c-1.3,0.2-2.7,0.4-4,0.5L61.7,77.9z"/>
</g>
<g id="_x23_da7a1bff">
	<path class="st52" d="M116.2,54.7c0.8-2.6,2.9-4.1,5.7-4.2c0.2,1,0.5,2.9,0.7,3.8C120.4,54.8,118.3,54.8,116.2,54.7z"/>
</g>
<g id="_x23_fbe371ff">
	<path class="st53" d="M164.5,57c-0.7-3.5,2.8-4.5,5.1-6c0.2,1.2,0.3,2.4,0.5,3.6C168.2,55.4,166.4,56.2,164.5,57z"/>
</g>
<g id="_x23_e99a1fff">
	<path class="st54" d="M59.8,52.9c7.2-1.9,15.1-2.2,22.2,0.2c2.1,0.6,3.8,2,5.4,3.6c-0.1,0.8-0.3,2.5-0.5,3.3
		c-2.3,0.9-4.7,1.7-7.1,2.1c-3-0.1-6-0.5-8.9-1.2c2-1.7,3.8-3.6,4.6-6.2c1.2,0.7,2.4,1.4,3.6,2.1c-1,1.3-2,2.7-2.9,4
		c2.2-0.5,5.1-0.2,6.5-2.3c1.1-1.7-0.7-3.4-2.1-4.1C75.4,52,69.5,52.8,64,53.4c1.8,0.4,3.7,0.7,5.5,1.2l0.2,0.3
		c-3.3-0.5-6.7,0-9.5,1.9c-0.4-0.2-1-0.7-1.4-0.9c1.1-1,2.2-2,3.3-3C61.5,52.9,60.4,52.9,59.8,52.9z"/>
</g>
<g id="_x23_fddb52ff">
	<path class="st55" d="M53.2,59.6c-0.4-3.9,3.1-6.3,6.6-6.6c0.6,0,1.7,0,2.3,0c-1.1,1-2.2,2-3.3,3c0.3,0.2,1,0.7,1.4,0.9
		c1.4,1,2.7,2.1,3.8,3.5c0.2,0.4,0.7,1.1,1,1.5c-1.3,0.2-2.6,0.4-3.8,0.6C58.4,61.7,55.8,60.7,53.2,59.6z"/>
</g>
<g id="_x23_e37811ff">
	<path class="st56" d="M64,53.4c5.5-0.6,11.5-1.4,16.6,1.2c1.4,0.8,3.2,2.4,2.1,4.1c-1.4,2.1-4.3,1.8-6.5,2.3c1-1.3,2-2.7,2.9-4
		c-1.2-0.7-2.4-1.4-3.6-2.1c-1.8,0.4-3.5,1.3-4.8,2.6c-0.3-0.6-0.8-1.9-1-2.5l-0.2-0.3C67.7,54.2,65.8,53.8,64,53.4z"/>
</g>
<g id="_x23_fce268ff">
	<path class="st57" d="M122.8,55c1.7-0.7,3.5-1.4,5.2-2.2c0,0.8,0,2.4,0,3.2c-1.6,0.9-3.3,1.7-5,2.5C123,57.6,122.9,55.9,122.8,55z"
		/>
	<path class="st57" d="M122.9,81.1c1.7-0.7,3.4-1.4,5.1-2.1c0,0.8,0,2.2,0,3c-1.6,1-3.3,2.1-4.9,3.1C123,83.7,123,82.4,122.9,81.1z"
		/>
	<path class="st57" d="M123.9,86.1c1.3-0.8,2.7-1.4,4.1-2.1c0,0.8,0,2.4,0,3.2c-1.7,1.1-3.4,2.1-5.1,3.1
		C123.2,88.9,122.2,86.7,123.9,86.1z"/>
</g>
<g id="_x23_f8d071ff">
	<path class="st58" d="M60.2,56.8c2.8-2,6.1-2.4,9.5-1.9c0.3,0.6,0.8,1.9,1,2.5c-1.6,2.2-4.2,2.5-6.7,2.9C63,59,61.7,57.8,60.2,56.8
		z"/>
</g>
<g id="_x23_f3c240ff">
	<path class="st59" d="M70.7,57.4c1.3-1.3,3-2.2,4.8-2.6c-0.8,2.6-2.7,4.5-4.6,6.2c2.9,0.7,5.9,1.2,8.9,1.2l1,0.1
		c-2.4,1.4-4.6,3.1-6,5.6c2.2-0.1,4.5-0.3,6.7-0.5c-0.1-1.4-0.2-2.7-0.3-4.1c0.4,0.9,0.8,1.7,1.2,2.6c1.5-0.7,3-1.5,4.5-2.2l0,1.5
		c-1.7,1.2-3.5,2-5.3,2.9c0.1,0.8,0.3,2.4,0.4,3.2c1.6-0.8,3.3-1.6,4.9-2.3c0,0.5,0,1.5,0,2c-1.7,0.8-3.4,1.5-5.2,2.2
		c0.1,1.3,0.2,2.6,0.3,3.9c1.6-1,3.2-2,4.9-3c0,0.6,0,1.8,0,2.4c-1.8,0.8-3.6,1.4-5.5,2.1c-0.1-1.5-0.2-3-0.2-4.6
		c-1.2,0.3-2.4,0.6-3.6,0.9c-2.2,0.4-3.5,2.1-4.5,4c1.3,0.1,2.6,0.2,3.9,0.2c-1.1,1.6-2.1,3.2-3.1,4.9c1.8,0.1,3.5,0.1,5.3,0.2
		c-2.4,1-4.3,2.8-5.4,5.1c2.1,0,4.3,0.1,6.3-0.7c1.1-0.7,1.5-1.8,1.2-3.1l-0.2-1.4c0.4,1,0.8,2.1,1.2,3.1c1.6-0.7,3.1-1.4,4.7-2.2
		l0,1.4c-1.7,1.1-3.5,2-5.3,2.9c0.1,0.8,0.3,2.4,0.4,3.2c1.6-0.8,3.3-1.6,4.9-2.4c0,0.5,0,1.6,0,2.1c-1.6,0.8-3.3,1.4-5,2.1
		c0,0.9,0,2.7,0.1,3.5c1.7-0.8,3.3-1.7,5-2.6c0,0.5,0,1.5-0.1,2c-1.7,1-3.5,1.8-5.3,2.7c-3.6,1.5-7.5,3.1-11.5,2.3
		c-2.2-0.4-4.3-0.8-6.4-1.3c-1-0.4-2.1-0.7-3.1-1.1c0.5-0.1,1.4-0.4,1.9-0.5c1,0,3,0.1,4,0.2c1.4-0.1,2.9-0.2,4.3-0.4
		c0-0.6-0.1-1.9-0.1-2.5c-3.6-0.9-7.4-1.2-11.1-1.2c-0.1,1.2-0.3,2.4-0.4,3.5c-1.3-0.8-2.7-1.6-4-2.4c1.5-0.8,3-1.7,4.5-2.5
		c-1.6-1.1-2.7-2.8-3-4.7c1.6-0.2,3.1-0.5,4.7-0.6c1.8,0,3.5,0.3,5.3,0.4c1.6,0,3.2-0.2,4.9-0.3c0.1-1.1,0.3-2.1,0.4-3.2
		c-1.8-0.1-3.6-0.1-5.4-0.2c-1.6-0.1-3.2-0.2-4.8-0.3l0.2-1.3l0.7-0.1c2,0.1,3.9,0.2,5.9,0.3c2.1,0.1,3.4-1.3,3.9-3.2
		c-1.3-0.1-2.6-0.2-3.9-0.3c-1-0.1-3-0.3-4-0.4c2.4-0.7,4.8-1.4,7.2-2c0-0.8,0.1-1.6,0.2-2.4c-1.3-0.1-2.6-0.2-3.9-0.3
		c-0.4,0-1.2-0.1-1.5-0.2c-2.3-0.3-4.6-0.6-7-0.7c-0.1,0.8-0.4,2.3-0.5,3.1c-0.9-1-1.8-2.1-2.7-3.1c1.4-0.6,2.8-1.2,4.2-1.8
		c2.2,0.2,4.3,0.6,6.5,0.8c1.7,0.1,4.4-0.6,3.1-2.8c-0.8-0.2-2.3-0.6-3.1-0.8c-2.1-0.2-4.2-0.2-6.4-0.2c0,0.7-0.1,2.2-0.1,2.9
		c-2.7,0.1-3.4-2.1-3.8-4.2c0.8-0.1,2.5-0.2,3.3-0.2c-1.3-1.4-2.4-2.9-3.2-4.6c1.5-0.3,3-0.6,4.6-0.8c1.3-0.2,2.6-0.4,3.8-0.6
		c-0.2-0.4-0.7-1.1-1-1.5C66.5,59.9,69.1,59.6,70.7,57.4 M61,64.4c-1.6,3.1,3.5,3.2,5.4,3.7c1.5-0.2,3-0.3,4.5-0.5
		c-0.2-1-0.4-1.9-0.7-2.9c-1.2-0.3-2.5-0.4-3.8-0.6C64.6,64.2,62.8,64.2,61,64.4 M75.8,71c-0.4,3.1,4,1.8,5.8,1.4
		c-0.2-1-0.5-2.9-0.7-3.8C79.1,69.1,76.9,69.3,75.8,71 M60.6,92c1.8,2.5,5.1,1.7,7.7,1.8c1.1,0,2.3,0,3.4,0.1c0-0.7,0-2.1-0.1-2.8
		c-1.8-0.5-3.7-0.7-5.5-0.8C64.3,90.6,60.7,89.1,60.6,92 M75.1,93.7c1.9,0.1,3.9,0.2,5.8,0.1c0.2-1.4,0.2-2.8,0.3-4.2
		C78.3,89.6,75.9,90.9,75.1,93.7 M75.3,96.9c0.8,2.9,3.6,2.2,5.9,2.1c-0.1-1.4-0.2-2.9-0.3-4.4C78.9,95.1,77.1,95.9,75.3,96.9z"/>
</g>
<g id="_x23_fef6d5ff">
	<path class="st60" d="M143.4,55.2c2,0,4,0,6,0c0.1,1.3,0.1,2.5,0.1,3.8c-2-0.2-4.1-0.6-6.1-0.6C143.4,57.6,143.4,56,143.4,55.2z"/>
</g>
<g id="_x23_fff6d3ff">
	<path class="st61" d="M101.5,56.3c2,0.1,4,0.2,5.9,0.4c0,0.9-0.1,2.8-0.1,3.7c-1-0.1-3-0.2-4-0.3c-0.7-0.3-1.4-0.6-2.1-0.8
		C101.4,58.5,101.5,57,101.5,56.3z"/>
</g>
<g id="_x23_ce6811ff">
	<path class="st62" d="M119,59.6c-1.8-1.8,1.3-3.7,2.9-4c0.1,1.5,0.2,2.9,0.4,4.4C121.4,59.9,119.8,59.7,119,59.6z"/>
</g>
<g id="_x23_fde77fff">
	<path class="st63" d="M107.4,56.7c1.4,0.2,2.8,0.4,4.3,0.6c0,0.7,0.1,2,0.1,2.7c-1.5,0.2-2.9,0.3-4.4,0.4
		C107.4,59.4,107.4,57.6,107.4,56.7z"/>
</g>
<g id="_x23_fce36aff">
	<path class="st64" d="M122.3,60.6c1.9-0.9,3.8-1.7,5.7-2.7c0,0.8,0,2.5,0,3.3c-1.5,1.4-3.3,2.4-5.2,3.2
		C122.7,63.5,122.4,61.6,122.3,60.6z"/>
</g>
<g id="_x23_de8e1dff">
	<path class="st65" d="M53.2,59.6c2.6,1.1,5.2,2.1,7.9,2.8c-1.5,0.2-3,0.5-4.6,0.8c0.8,1.7,1.9,3.2,3.2,4.6C59,67.8,57.3,68,56.5,68
		c0.5,2.1,1.2,4.3,3.8,4.2c-1.4,0.6-2.8,1.2-4.2,1.8c0.9,1.1,1.7,2.1,2.7,3.1c0.9,0.3,1.9,0.5,2.9,0.7l1.8,0.3
		c-2.1,0.7-6.3-0.3-5.9,2.9c1.1,0.9,2.4,1.5,3.7,2.1l1.3,0.2l-0.7,0.1c-1.5,0.2-3,0.4-4.5,0.6c0.2,2.3,1.8,3.7,3.9,4.2
		c-1.6,0.1-3.1,0.4-4.7,0.6c0.3,2,1.4,3.6,3,4.7c-1.5,0.8-3,1.7-4.5,2.5c-0.4-0.3-1.1-1-1.4-1.3C52.9,83.2,53.8,71.3,53.2,59.6z"/>
</g>
<g id="_x23_fbe381ff">
	<path class="st66" d="M141.4,60.1c2.3,0,4.5,0.1,6.8,0.3c-1,0.1-3,0.3-4,0.4c0.6,1.1,1.1,2.2,1.7,3.3c-1.3-0.4-2.6-0.7-3.9-1
		l-0.9-0.3C141.3,62.1,141.4,60.8,141.4,60.1z"/>
</g>
<g id="_x23_fadb6cff">
	<path class="st67" d="M98.7,61.4c2-0.2,4-0.4,5.9-0.5c0.4,0.2,1.2,0.6,1.6,0.9c-0.8,0.1-2.5,0.2-3.4,0.2c0,0.8-0.1,2.3-0.1,3.1
		C100.8,64.6,99.4,63.2,98.7,61.4z"/>
</g>
<g id="_x23_c75308ff">
	<path class="st68" d="M118.7,64.8c0.5-2,1.7-3.6,3.7-4.2c0.1,1,0.3,2.9,0.4,3.8c1.9-0.8,3.7-1.8,5.2-3.2c0,0.4,0,1.1,0,1.5
		c-1.7,0.8-3.4,1.4-5.2,1.9C121.4,64.7,120,64.8,118.7,64.8z"/>
</g>
<g id="_x23_fef4ccff">
	<path class="st69" d="M144.2,60.8c1-0.1,3-0.3,4-0.4l1.5,0.1c-0.6,1.4-1.1,2.8-1.8,4.2l-2-0.7C145.4,63,144.8,61.9,144.2,60.8z"/>
	<path class="st69" d="M145.4,85.2c0.2-1.2-1.5-3.5,0.6-3.6c2.4-0.9,2.9,1.8,3.9,3.4C148.8,85,146.5,85.1,145.4,85.2z"/>
	<path class="st69" d="M173.4,120.3c2.1,0.7,5.5,0,6.3,2.8c-1.3,1.4-3.2,1.3-4.9,1.4l-1.2-0.2C173.5,123.3,173.4,121.3,173.4,120.3z
		"/>
</g>
<g id="_x23_fee775ff">
	<path class="st70" d="M149.8,60.6c0.8,0.1,2.2,0.3,3,0.4c-0.4,2-1.4,3.7-3,4.9c1.8,0.2,3.6,0.4,5.4,0.7c-1,3.4-5,2.8-7.7,3.7
		l-1.4,0.4c-0.9,0.2-1.8,0.5-2.6,0.8c-0.1,0.6-0.3,1.8-0.4,2.3c-1-0.9-1.6-2.1-2.2-3.2c2-0.3,4-0.6,5.9-1c1-0.3,2.1-0.6,3-1.1
		c0.3-2.9-3.3-2.5-5.2-3.1c0,0.9,0.1,2.8,0.2,3.7c-1.9-0.5-3.3-1.9-4-3.7c2-0.1,4-0.2,6-0.4l1.2-0.2C148.6,63.4,149.2,62,149.8,60.6
		z"/>
</g>
<g id="_x23_fbe16fff">
	<path class="st71" d="M164.1,63.6c2-0.5,3.8-1.3,5.4-2.6c0.2,1.4,0.3,2.8,0.5,4.2c-1.9,1-3.7,2.1-5.6,3.1c-0.1-1-0.2-3-0.3-4
		L164.1,63.6z"/>
</g>
<g id="_x23_fef6d3ff">
	<path class="st72" d="M102.8,62c0.8-0.1,2.5-0.2,3.4-0.2c0.6,0,1.8,0.1,2.5,0.2c-0.3,2.2-1.8,3.6-4,3.6l-1.9-0.5
		C102.8,64.3,102.8,62.8,102.8,62z"/>
	<path class="st72" d="M101.5,88.5c1-0.2,2-0.5,3-0.7c0.7,0,2,0.1,2.7,0.2c0.3,1.1,0.5,2.1,0.8,3.2c-1.3,0.1-2.7,0.2-4,0.2
		c-0.6-0.1-1.8-0.2-2.4-0.2C101.5,90.3,101.5,89.4,101.5,88.5z"/>
</g>
<g id="_x23_d9791aff">
	<path class="st73" d="M80.8,62.2l0.4,1c0.1,1.3,0.2,2.7,0.3,4.1c-2.2,0.2-4.5,0.4-6.7,0.5C76.2,65.4,78.4,63.6,80.8,62.2z"/>
</g>
<g id="_x23_fef8ddff">
	<path class="st74" d="M61,64.4c1.8-0.2,3.6-0.2,5.5-0.3c0,1.3,0,2.6,0,4C64.5,67.6,59.3,67.4,61,64.4z"/>
</g>
<g id="_x23_fde67dff">
	<path class="st75" d="M66.4,64.1c1.3,0.2,2.6,0.3,3.8,0.6c0.2,0.9,0.5,1.9,0.7,2.9c-1.5,0.2-3,0.3-4.5,0.5
		C66.4,66.7,66.4,65.4,66.4,64.1z"/>
</g>
<g id="_x23_f9e06aff">
	<path class="st76" d="M81.6,68.1c1.8-0.9,3.7-1.8,5.3-2.9c0,1.2,0,2.5,0,3.8c-1.7,0.8-3.3,1.6-4.9,2.3
		C81.9,70.4,81.7,68.9,81.6,68.1z"/>
	<path class="st76" d="M81.6,89.1c1.8-0.9,3.6-1.8,5.3-2.9c0,1.2,0,2.5,0,3.7c-1.7,0.8-3.3,1.6-4.9,2.4
		C81.9,91.4,81.7,89.8,81.6,89.1z"/>
</g>
<g id="_x23_cf6a16ff">
	<path class="st77" d="M158.7,68.8c0.6-2.7,3.1-3.6,5.4-4.5c0.1,1,0.2,3,0.3,4c1.9-1,3.8-2,5.6-3.1c-0.2,0.4-0.5,1.2-0.7,1.6
		c-1.7,0.8-3.5,1.5-5.2,2C162.3,68.9,160.5,68.9,158.7,68.8z"/>
</g>
<g id="_x23_fef4c6ff">
	<path class="st78" d="M144.6,65.4c1.9,0.6,5.5,0.2,5.2,3.1c-1,0.5-2,0.8-3,1.1l-2-0.5C144.8,68.2,144.7,66.4,144.6,65.4z"/>
</g>
<g id="_x23_fcdd54ff">
	<path class="st79" d="M109.1,67.3c1.6,0.1,3.3,0.1,4.9,0.1c-0.2,2.4-1.7,3.7-4.2,3.5C109.6,69.6,109.4,68.4,109.1,67.3z"/>
</g>
<g id="_x23_df8f26ff">
	<path class="st80" d="M117.2,67.2c0.7,0,2.1-0.1,2.8-0.1c-0.1,1.2,0.2,2.3,1.1,3.2c-1.6,0.3-3.3,0.4-4.9,0.6
		C116.5,69.7,116.8,68.5,117.2,67.2z"/>
</g>
<g id="_x23_fae16fff">
	<path class="st81" d="M164.1,68.8c1.8-0.5,3.6-1.2,5.2-2c0.3,1.3,0.5,2.6,0.8,3.9c-1.8,0.8-3.7,1.6-5.5,2.5
		c-0.2-1.2-0.3-2.5-0.5-3.7L164.1,68.8z"/>
</g>
<g id="_x23_fef7d7ff">
	<path class="st82" d="M60.5,69.3c2.1,0.1,4.2,0.1,6.4,0.2c0,0.9,0,2.7,0,3.6c-2.2-0.2-4.3-0.6-6.5-0.8C60.4,71.5,60.5,70,60.5,69.3
		z"/>
	<path class="st82" d="M60.6,92c0.1-2.9,3.7-1.4,5.6-1.8c0.8,1.2,1.4,2.4,2.1,3.6C65.7,93.7,62.3,94.6,60.6,92z"/>
</g>
<g id="_x23_da781aff">
	<path class="st83" d="M75.8,71c1.1-1.7,3.3-1.9,5.1-2.5c0.2,0.9,0.5,2.9,0.7,3.8C79.8,72.8,75.4,74.1,75.8,71z"/>
</g>
<g id="_x23_fde77dff">
	<path class="st84" d="M66.8,69.5c0.8,0.2,2.3,0.6,3.1,0.8c1.4,2.2-1.4,2.9-3.1,2.8C66.9,72.2,66.8,70.4,66.8,69.5z"/>
</g>
<g id="_x23_de841fff">
	<path class="st85" d="M158.4,71.6c1.9-0.6,3.9-1.3,5.7-2c0.1,1.2,0.3,2.5,0.5,3.7c1.8-0.9,3.7-1.7,5.5-2.5l-0.7,1.1
		c-1.6,1-3.4,1.7-5.3,2.3c-2.3,0.3-4.7,0.5-7,0.7C157.6,73.8,158,72.7,158.4,71.6z"/>
</g>
<g id="_x23_f9e069ff">
	<path class="st86" d="M81.8,73c1.7-0.7,3.5-1.4,5.2-2.2c0,0.8,0,2.2,0,3c-1.6,1-3.2,2-4.9,3C82,75.6,81.9,74.3,81.8,73z"/>
</g>
<g id="_x23_ffe876ff">
	<path class="st87" d="M99.2,71.4c0.6,0,1.9,0,2.5,0c0.4,0.1,1.2,0.2,1.6,0.3c-0.1,0.9-0.4,2.8-0.5,3.7l-0.6-0.1
		c-0.6-0.3-1.9-0.8-2.6-1.1C99.5,73.3,99.4,72.4,99.2,71.4z"/>
</g>
<g id="_x23_fef3c2ff">
	<path class="st88" d="M143.4,71.5c0.9-0.3,1.7-0.5,2.6-0.8c1.7,0.2,3.5,0.4,5.2,0.5c0,1.2,0,2.4,0.1,3.6c-2.8-0.2-5.6-0.5-8.3-1
		C143.1,73.3,143.3,72.1,143.4,71.5z"/>
</g>
<g id="_x23_fad754ff">
	<path class="st89" d="M151.3,71.3c1.5,0.1,3.1,0.1,4.6,0.1c-0.9,1.9-2.2,3.6-4.6,3.5C151.3,73.7,151.3,72.5,151.3,71.3z"/>
</g>
<g id="_x23_fef7d5ff">
	<path class="st90" d="M103.3,71.7c0.7,0.1,2.2,0.3,3,0.4c0.8,1.2,1.6,2.5,2.4,3.8c-2-0.1-3.9-0.3-5.8-0.6
		C102.9,74.5,103.2,72.7,103.3,71.7z"/>
</g>
<g id="_x23_fce480ff">
	<path class="st91" d="M106.3,72.2c2.1,0.4,5.4,0,5.4,3c-1,0.3-2,0.6-3.1,0.8C107.8,74.7,107.1,73.4,106.3,72.2z"/>
</g>
<g id="_x23_da7a1aff">
	<path class="st92" d="M116.2,75.7c0.9-2.6,3.1-4.1,5.9-4.1c-0.3,1.1,1.1,4.2-1.1,4.1C119.4,75.8,117.8,75.7,116.2,75.7z"/>
	<path class="st92" d="M116,96.4c1.3-2.5,3.7-3.8,6.4-4.2c-0.1,2-0.2,4-0.4,6.1c-0.7-0.2-1.4-0.3-2.1-0.5
		C119,97.4,117,96.8,116,96.4z"/>
</g>
<g id="_x23_f9e06dff">
	<path class="st93" d="M164.2,74.2c1.8-0.6,3.6-1.3,5.3-2.3c0.2,1.2,0.4,2.5,0.6,3.8c-1.7,0.8-3.4,1.6-5.1,2.4
		c-0.2-0.5-0.7-1.7-0.9-2.2l0-1L164.2,74.2z"/>
</g>
<g id="_x23_fae079ff">
	<path class="st94" d="M59.3,74.1c2.3,0.1,4.6,0.4,7,0.7c-0.9-0.1-2.8-0.2-3.7-0.3c-0.3,1.1-0.6,2.3-0.9,3.4c-1-0.2-1.9-0.4-2.9-0.7
		C58.9,76.4,59.2,74.8,59.3,74.1z"/>
</g>
<g id="_x23_ce6711ff">
	<path class="st95" d="M77.6,74.7c1.2-0.3,2.4-0.6,3.6-0.9c0.1,1.5,0.2,3,0.2,4.6c-0.8-0.2-2.3-0.6-3.1-0.8
		C78.1,76.8,77.8,75.4,77.6,74.7z"/>
</g>
<g id="_x23_ffe66dff">
	<path class="st96" d="M122.8,75.9c1.7-0.7,3.5-1.3,5.2-2c0,0.8,0,2.3,0,3.1c-1.6,0.8-3.2,1.5-4.8,2.3
		C123.1,78.4,122.9,76.8,122.8,75.9z"/>
</g>
<g id="_x23_f8d763ff">
	<path class="st97" d="M67.8,74.9c1.3,0.1,2.6,0.2,3.9,0.3c-0.1,0.8-0.1,1.6-0.2,2.4c-2.4,0.6-4.8,1.3-7.2,2c-1,0.2-2,0.3-3,0.5
		c0,0.7-0.1,2.2-0.2,2.9c-1.3-0.6-2.6-1.2-3.7-2.1c-0.3-3.2,3.9-2.2,5.9-2.9c1.4-0.2,2.7-0.3,4-0.5C67.6,77,67.7,75.6,67.8,74.9z"/>
</g>
<g id="_x23_e5962bff">
	<path class="st98" d="M73.1,78.6c1-1.8,2.3-3.6,4.5-4c0.2,0.7,0.6,2.2,0.8,2.9c0.8,0.2,2.3,0.6,3.1,0.8l-0.6,0.2
		c-1.5,0.9-2.4,2.4-3.1,4c0.8,0.1,2.3,0.3,3,0.4l0.3,0.9l0.2,1.4c-2-0.5-2.9,2.2-1.2,3.1c-2,0.7-4.2,0.7-6.3,0.7
		c1.1-2.3,3-4.1,5.4-5.1c-1.8,0-3.5-0.1-5.3-0.2c0.9-1.7,2-3.3,3.1-4.9C75.7,78.8,74.4,78.7,73.1,78.6z"/>
</g>
<g id="_x23_ffe667ff">
	<path class="st99" d="M141.5,75.2c1.1,0.2,2.2,0.5,3.3,0.6c-0.1,0.9-0.2,2.7-0.3,3.5c-0.3,0-1-0.1-1.3-0.1c-0.6-0.2-1.9-0.7-2.6-1
		C140.8,77.5,141.3,76,141.5,75.2z"/>
</g>
<g id="_x23_df8521ff">
	<path class="st100" d="M157.7,79.9c0.2-3.5,3.7-4.1,6.4-5.2l0,1c0,0.9,0.1,2.7,0.1,3.6C162.1,79.6,159.9,79.8,157.7,79.9z"/>
	<path class="st100" d="M157.6,105.8c0.4-3.2,3.7-3.7,6.2-4.5c0.2,0.9,0.8,2.7,1,3.5c1.7-1,3.3-1.9,4.9-3c-0.2,2.1-0.3,4.2-0.4,6.3
		c-1.7,1-3.3,2-4.9,3.1c-1.3-0.8-2.6-1.6-3.8-2.4c0.1-0.4,0.3-1.1,0.4-1.5c1-0.2,3-0.8,3.9-1C162.5,106.1,160.1,106,157.6,105.8z"/>
</g>
<g id="_x23_fae16bff">
	<path class="st101" d="M81.4,78.3c1.8-0.7,3.7-1.3,5.5-2.1c0,0.8,0,2.3,0,3c-1.5,1.3-3.2,2.3-5,3.2c-0.4-1.3-0.7-2.6-1.1-3.9
		L81.4,78.3z"/>
</g>
<g id="_x23_fef8dfff">
	<path class="st102" d="M144.8,75.9c0.8,0.1,2.6,0.2,3.4,0.2c0.3,1.2,0.6,2.5,0.9,3.7c-1.6-0.1-3.1-0.2-4.7-0.4
		C144.5,78.5,144.7,76.8,144.8,75.9z"/>
	<path class="st102" d="M144.7,97.2c0.8,0,2.6-0.1,3.4-0.2c0.4,1.3,0.7,2.6,1.1,3.9c-1.4-0.2-2.9-0.2-4.3-0.6
		C144.9,99.5,144.8,98,144.7,97.2z"/>
</g>
<g id="_x23_fce78aff">
	<path class="st103" d="M148.2,76.1c0.5,0,1.5,0.1,2,0.1c0.9,1.1,1.6,2.4,2.3,3.6c-0.9,0-2.6,0-3.4,0.1
		C148.8,78.6,148.5,77.3,148.2,76.1z"/>
</g>
<g id="_x23_fff7d5ff">
	<path class="st104" d="M101.5,77.3c2.1,0.1,4.2,0.1,6.4,0.3c0,1,0,2.8,0,3.8c-1.5-0.1-3-0.3-4.5-0.5c-0.7-0.3-1.3-0.5-2-0.8
		C101.4,79.4,101.4,78,101.5,77.3z"/>
</g>
<g id="_x23_da7b1bff">
	<path class="st105" d="M117.3,78.2c1.6-0.5,3.1-1.1,4.7-1.6c0.1,1.5,0.2,2.9,0.4,4.3c-1.7-0.1-3.5-0.1-5.2-0.2
		C117.2,80.2,117.2,78.9,117.3,78.2z"/>
</g>
<g id="_x23_fde880ff">
	<path class="st106" d="M107.8,77.6c0.8,0.2,2.3,0.6,3.1,0.7c2,2.3-1.4,2.8-3.1,3.1C107.9,80.4,107.8,78.6,107.8,77.6z"/>
</g>
<g id="_x23_c8560aff">
	<path class="st107" d="M77.8,82.5c0.7-1.5,1.6-3.1,3.1-4c0.4,1.3,0.7,2.6,1.1,3.9c1.8-0.8,3.5-1.9,5-3.2c0,0.4,0,1.2,0,1.6
		c-2,0.8-4,1.5-6.1,2C80,82.8,78.5,82.6,77.8,82.5z"/>
</g>
<g id="_x23_fef5c6ff">
	<path class="st108" d="M61.3,80.2c1-0.2,2-0.3,3-0.5c1,0.1,3,0.3,4,0.4c0,1.2,0,2.4,0,3.6c-2-0.1-3.9-0.3-5.9-0.3l-1.3-0.2
		C61.2,82.4,61.3,81,61.3,80.2z"/>
</g>
<g id="_x23_fadb5bff">
	<path class="st109" d="M68.3,80.2c1.3,0.1,2.6,0.2,3.9,0.3c-0.5,2-1.8,3.3-3.9,3.2C68.3,82.6,68.3,81.4,68.3,80.2z"/>
</g>
<g id="_x23_f8df69ff">
	<path class="st110" d="M80.8,82.9c2.1-0.5,4.1-1.2,6.1-2c0,1.3,0.1,2.6,0.1,3.9c-1.6,0.7-3.1,1.4-4.7,2.2c-0.4-1-0.8-2.1-1.2-3.1
		L80.8,82.9z"/>
</g>
<g id="_x23_fce586ff">
	<path class="st111" d="M140.9,81.3c3.7-0.4,7.6-0.6,11,0.9c2.1,1.2-1,4.3-2.1,2.7c-1-1.5-1.5-4.2-3.9-3.4c-2.1,0.1-0.4,2.4-0.6,3.6
		C143.6,84.3,141.6,83.4,140.9,81.3z"/>
</g>
<g id="_x23_d56f15ff">
	<path class="st112" d="M158.4,82.4c1.8-0.7,3.7-1.3,5.5-2c0.2,0.9,0.6,2.8,0.8,3.7c1.8-1.1,3.6-2.2,5.4-3.2l-0.5,1.1
		c-1.7,1.2-3.5,2.1-5.4,2.8c-2,0-3.9-0.1-5.9-0.1C158.3,84.1,158.4,82.9,158.4,82.4z"/>
</g>
<g id="_x23_fadc6dff">
	<path class="st113" d="M99.2,82.2c1.8-0.1,3.6-0.2,5.5-0.2c0.4,0.2,1.1,0.5,1.5,0.6c-2.3-0.2-3.7,0.9-3.7,3.2
		c-1.1-0.4-2.1-0.8-3.1-1.2C99.3,84,99.2,82.8,99.2,82.2z"/>
</g>
<g id="_x23_fbe26fff">
	<path class="st114" d="M164.1,84.8c1.9-0.7,3.8-1.6,5.4-2.8c0.2,1.4,0.3,2.8,0.5,4.2c-1.9,1.1-3.7,2.1-5.6,3.1
		c-0.1-0.9-0.2-2.8-0.3-3.8L164.1,84.8z"/>
	<path class="st114" d="M164.1,89.8c1.8-0.5,3.6-1.1,5.3-2c0.2,0.8,0.5,2.5,0.7,3.4c-1.8,1.2-3.6,2.3-5.5,3.3
		c-0.2-1.3-0.3-2.6-0.5-3.8L164.1,89.8z"/>
</g>
<g id="_x23_fef6d4ff">
	<path class="st115" d="M102.5,85.8c0-2.3,1.4-3.4,3.7-3.2c0.7,0.1,2.2,0.4,2.9,0.5c0.2,0.8,0.4,1.6,0.7,2.4c-1.7,0.3-3.5,0.7-5.2,1
		L102.5,85.8z"/>
</g>
<g id="_x23_f7d561ff">
	<path class="st116" d="M109.1,83.1c0.8,0,2.6,0.1,3.4,0.1c0.3,4.4-5.1,3.5-8,4.6c-1,0.2-2,0.5-3,0.7c0,0.9,0,1.8,0,2.7
		c-0.4-0.3-1.3-0.9-1.8-1.2c-0.2-0.8-0.4-1.6-0.7-2.4c1.8-0.4,3.6-0.7,5.4-1.1c1.7-0.3,3.5-0.6,5.2-1
		C109.5,84.7,109.3,83.9,109.1,83.1z"/>
</g>
<g id="_x23_fad95cff">
	<path class="st117" d="M57.3,84.2c1.5-0.2,3-0.4,4.5-0.6l-0.2,1.3c-0.1,1.2-0.2,2.4-0.4,3.5C59.1,87.8,57.5,86.4,57.3,84.2z"/>
</g>
<g id="_x23_fef8daff">
	<path class="st118" d="M61.2,88.4c0.1-1.2,0.2-2.4,0.4-3.5c1.6,0.1,3.2,0.2,4.8,0.3c0,1.2,0.1,2.4,0.1,3.7
		C64.8,88.7,63,88.4,61.2,88.4z"/>
</g>
<g id="_x23_fde366ff">
	<path class="st119" d="M66.4,85.2c1.8,0.1,3.6,0.1,5.4,0.2c-0.2,1.1-0.3,2.1-0.4,3.2c-1.6,0.1-3.2,0.3-4.9,0.3
		C66.5,87.6,66.4,86.4,66.4,85.2z"/>
</g>
<g id="_x23_c9590aff">
	<path class="st120" d="M80.1,88.3c-1.7-0.9-0.8-3.6,1.2-3.1C81.6,86.6,81.2,87.6,80.1,88.3z"/>
</g>
<g id="_x23_fbe078ff">
	<path class="st121" d="M141.2,86.3c2.3-0.2,4.6-0.2,6.9,0.5c-0.8,0-2.5,0-3.3,0c0,0.8-0.1,2.5-0.2,3.4c-1.1-0.5-2.1-1.1-3.2-1.6
		C141.4,88,141.2,86.8,141.2,86.3z"/>
</g>
<g id="_x23_cf6611ff">
	<path class="st122" d="M118,88.9c1.3-0.7,2.6-1.3,3.9-2c0.2,1.4,0.4,2.9,0.5,4.3C120.4,91.8,118.7,91,118,88.9z"/>
</g>
<g id="_x23_fef5d2ff">
	<path class="st123" d="M144.8,86.7c0.8,0,2.5,0,3.3,0c0.7,0.1,2.1,0.4,2.8,0.5c0.3,0.7,0.5,1.4,0.8,2.1c-1.7,0.3-3.3,0.7-5,1
		l-2.1-0.3C144.6,89.3,144.7,87.6,144.8,86.7z"/>
</g>
<g id="_x23_f7d65fff">
	<path class="st124" d="M150.9,87.3c1.3,0,2.6,0,3.9,0c0,0.6,0,1.9-0.1,2.5c-2.7,0.9-5.6,1.2-8.4,1.9c-1,0.2-2,0.5-3.1,0.7
		c0.2,0.9,0.3,1.8,0.5,2.7c-1.6-0.5-2.6-1.9-2.9-3.6c1.9-0.2,3.9-0.6,5.8-1.1c1.7-0.3,3.3-0.7,5-1C151.4,88.7,151.1,88,150.9,87.3z"
		/>
</g>
<g id="_x23_fde780ff">
	<path class="st125" d="M107.2,88c1.5,0.1,3.1,0.3,4.6,0.5c-0.1,1.1-0.2,2.1-0.4,3.2c-2.5,0.1-5,0.1-7.5-0.2c1.3-0.1,2.7-0.1,4-0.2
		C107.7,90.1,107.4,89.1,107.2,88z"/>
</g>
<g id="_x23_fadc60ff">
	<path class="st126" d="M66.2,90.2c1.9,0.1,3.7,0.4,5.5,0.8c0,0.7,0,2.1,0.1,2.8c-1.2,0-2.3-0.1-3.4-0.1
		C67.6,92.6,66.9,91.3,66.2,90.2z"/>
</g>
<g id="_x23_d97719ff">
	<path class="st127" d="M75.1,93.7c0.8-2.8,3.2-4.1,6.1-4.1c0,1.4-0.1,2.8-0.3,4.2C78.9,93.9,77,93.8,75.1,93.7z"/>
</g>
<g id="_x23_d67019ff">
	<path class="st128" d="M158.6,92.7c1.9-0.6,3.7-1.3,5.6-2c0.1,1.3,0.3,2.5,0.5,3.8c1.9-1,3.7-2.1,5.5-3.3c-0.2,0.4-0.5,1.3-0.7,1.8
		c-1.7,0.8-3.5,1.4-5.3,2.1l0.1,0.8c-0.2,1.5,0.1,3.3-0.8,4.6c-2.2,0.4-4.3,0.3-6.5,0.3c1.5-2.1,3.5-3.8,5.7-5c-1.8,0-3.6,0-5.4,0
		C157.7,94.6,158.2,93.7,158.6,92.7z"/>
</g>
<g id="_x23_f0eed4ff">
	<path class="st129" d="M49.7,92.5c1.7-0.5,2.7,1.6,3.9,2.4c0.4,0.3,1.1,1,1.4,1.3c1.3,0.9,2.7,1.6,4,2.4c0.5,0.3,1,0.6,1.5,0.9
		c-2.5,3-4.5,6.5-7.9,8.6c-0.5,0-1.6,0-2.2,0h-0.4c-2.3-4.7-8-6.2-11.6-9.7C41.8,95.6,45.7,93.7,49.7,92.5z"/>
</g>
<g id="_x23_fae16aff">
	<path class="st130" d="M81.9,94c1.7-0.7,3.4-1.4,5-2.1c0,0.8,0,2.3,0,3.1c-1.6,0.9-3.3,1.8-5,2.6C82,96.7,81.9,94.9,81.9,94z"/>
	<path class="st130" d="M81.6,99.6c1.8-0.9,3.6-1.8,5.3-2.7c0,0.8-0.1,2.3-0.1,3.1c-0.6,0.8-1.2,1.5-1.8,2.3c-1.3-0.1-2.7-0.3-4-0.4
		L81.6,99.6z"/>
</g>
<g id="_x23_ffe976ff">
	<path class="st131" d="M98.9,92.5c0.9-0.1,2.6-0.2,3.4-0.3c0.2,0.2,0.6,0.7,0.8,0.9c0,0.9,0,2.6-0.1,3.5l-1,0
		C100.4,95.7,99.5,94.2,98.9,92.5z"/>
</g>
<g id="_x23_fad855ff">
	<path class="st132" d="M151.3,92.4c1.3,0,2.6-0.1,3.9-0.1c-0.1,2.3-1.3,3.8-3.8,3.6C151.3,94.7,151.3,93.5,151.3,92.4z"/>
</g>
<g id="_x23_fef7deff">
	<path class="st133" d="M103.1,93.1c1.4,0.1,2.7,0.2,4.1,0.2c0.4,1.2,0.7,2.4,1.1,3.6c-1.7-0.1-3.5-0.2-5.2-0.3
		C103.1,95.7,103.1,93.9,103.1,93.1z"/>
</g>
<g id="_x23_fde67cff">
	<path class="st134" d="M59.5,95.1c3.7,0,7.5,0.3,11.1,1.2c0,0.6,0.1,1.9,0.1,2.5c-1.4,0.2-2.8,0.3-4.3,0.4
		c-0.1-0.8-0.2-2.4-0.3-3.2c-0.9-0.2-2.8-0.5-3.8-0.7c0,1.2,0,2.5,0.1,3.8c-0.5,0.1-1.4,0.4-1.9,0.5c-0.5-0.3-1-0.6-1.5-0.9
		C59.2,97.5,59.4,96.3,59.5,95.1z"/>
</g>
<g id="_x23_da791aff">
	<path class="st135" d="M75.3,96.9c1.7-1,3.6-1.8,5.6-2.3c0.1,1.5,0.2,2.9,0.3,4.4C78.9,99.1,76.1,99.9,75.3,96.9z"/>
</g>
<g id="_x23_ffe66bff">
	<path class="st136" d="M122.1,98.3c1.7-1.7,3.8-2.7,5.9-3.7c0,1.4,0,2.8,0.1,4.2C126.1,98.7,124.1,98.5,122.1,98.3z"/>
</g>
<g id="_x23_fef5cdff">
	<path class="st137" d="M62.5,99.1c0-1.3-0.1-2.5-0.1-3.8c0.9,0.2,2.8,0.5,3.8,0.7c0.1,0.8,0.2,2.4,0.3,3.2
		C65.4,99.2,63.5,99.1,62.5,99.1z"/>
	<path class="st137" d="M172.2,136.2c1.5,0.1,3.1,0.1,4.6,0.2c0.4,0.1,1.1,0.2,1.5,0.3c0,0.9-0.1,2.7-0.1,3.6c-2-0.2-4-0.5-5.9-0.8
		c0-0.3,0-1,0-1.4C172.2,137.7,172.2,136.7,172.2,136.2z"/>
</g>
<g id="_x23_ffe984ff">
	<path class="st138" d="M141.2,96.5c1.2,0,2.3-0.1,3.5-0.1l0.1,0.8c0.1,0.8,0.2,2.3,0.2,3.1C142.8,100.1,141.1,98.8,141.2,96.5z"/>
</g>
<g id="_x23_fce78bff">
	<path class="st139" d="M148.1,97c0.5,0.1,1.5,0.1,2,0.2c0.9,1.1,1.7,2.3,2.5,3.5c-0.8,0.1-2.5,0.2-3.4,0.2
		C148.9,99.6,148.5,98.3,148.1,97z"/>
</g>
<g id="_x23_d9d7c1ff">
	<path class="st140" d="M38.6,98.5c3.6,3.5,9.2,5,11.6,9.7c-3-1-5.3-3.1-7.8-4.8c-0.3-0.2-0.9-0.6-1.2-0.7c0,16.4-0.6,32.8,0.3,49.2
		c2.2,1.6,4.5,3.1,6.7,4.6c1.2,0.8,2.3,1.7,3.4,2.6c0.4,0.6,1.1,1.7,1.4,2.3c-5.2-2.6-10.7-5.5-14.2-10.1
		C38.4,133.6,38.8,116,38.6,98.5z"/>
</g>
<g id="_x23_d9d9c3ff">
	<path class="st141" d="M60.6,99.6c1,0.4,2.1,0.7,3.1,1.1c0.8,0.7,1.6,1.3,2.3,2c-0.8,0.1-2.5,0.4-3.3,0.5c0.5,0.3,1.5,1,2.1,1.4
		c-1,0.2-2.1,0.4-3.2,0.6c0.7,0.5,1.5,1,2.2,1.5c-1.3,0.2-2.7,0.3-4,0.4c0.6,0.5,1.2,1,1.8,1.5c-1,0.4-2.1,0.8-3.1,1.1
		c-1.9-0.6-3.9-1.1-5.8-1.6C56.1,106,58.1,102.5,60.6,99.6z"/>
</g>
<g id="_x23_d8d7c1ff">
	<path class="st142" d="M133.7,100.6c0.5-0.2,1.5-0.6,2-0.8c6,1.1,12.2,2,17.7,4.8c-1.4,0.2-2.8,0.4-4.1,0.5
		c0.5,0.6,1.1,1.3,1.6,1.9c-1.9-0.3-3.8-0.6-5.7-0.9c1.3,0.8,2.6,1.6,3.9,2.4c-0.9,0.3-1.8,0.6-2.7,0.9c1.9,1,3.7,2,5.6,3.1
		c-0.8,0.3-1.6,0.5-2.4,0.8c1.3,1.2,3.6,2.1,3.2,4.3c-4.3-2.4-8.6-6.2-13.9-5.3c-3-0.5-6-1-9-1.2c-3.1-0.2-6.3-0.3-9.4-0.2
		c-3.2,0-6.5,0-9.7,0.4c-1.5-0.8-3-1.5-4.5-2.2c9,0.2,17.8-1.5,26.8-1.5c-1.4-0.4-2.7-0.8-4.1-1.2c2-0.3,4-0.7,6-1
		c-1.3-0.3-2.6-0.7-3.8-1c2-0.3,4-0.6,5.9-0.9c-1.4-0.3-2.8-0.7-4.2-1c1.7-0.4,3.5-0.7,5.2-1.1C136.5,101.2,135.1,100.9,133.7,100.6
		z"/>
</g>
<g id="_x23_b3b5a9ff">
	<path class="st143" d="M63.7,100.7c2.1,0.5,4.3,0.9,6.4,1.3c2.4,0.4,4.9,0.5,7.3,0.7c-1.1,0.6-2.1,1.2-3.2,1.9
		c0.5,0.2,1.6,0.6,2.1,0.8c-1,0.4-2.1,0.8-3.1,1.1c1,0.3,1.9,0.6,2.9,0.9c-1.3,0.4-2.7,0.9-4,1.4c2.3,0.2,4.6,0.5,6.9,0.7
		c-1.1,0.2-2.1,0.5-3.1,0.7c0.7,0.5,1.3,1,2,1.5c-5.9,0.2-12,0.4-17.7-1.6l-1.5-0.4c1-0.4,2.1-0.8,3.1-1.1c-0.6-0.5-1.2-1-1.8-1.5
		c1.3-0.1,2.6-0.3,4-0.4c-0.7-0.5-1.5-1-2.2-1.5c1-0.2,2.1-0.4,3.2-0.6c-0.5-0.3-1.5-1-2.1-1.4c0.8-0.1,2.5-0.4,3.3-0.5
		C65.2,102,64.5,101.3,63.7,100.7z"/>
</g>
<g id="_x23_9a9b8eff">
	<path class="st144" d="M41.2,102.6c0.3,0.2,0.9,0.5,1.2,0.7c-0.9,2.2-1.3,4.9,0.3,6.9c0.4,10.7,0.3,21.4,0.7,32.1
		c2.2,1.5,3.9,3.5,5.2,5.9c-3.4,1.4-5.1-2-6.5-4.3c-0.2,2.6-0.4,5.2-0.5,7.9C40.7,135.4,41.2,119,41.2,102.6z"/>
</g>
<g id="_x23_dcdbc4ff">
	<path class="st145" d="M77.4,102.6c2.6,0.1,5.1,0.2,7.7,0.2c-0.4,0.3-1.1,0.9-1.5,1.2c0.2,0.6,0.5,1.1,0.7,1.7
		c-0.7,1.1-1.3,2.2-2,3.3c6.3,5,14.4-1.5,21,1.9c-7.5,1-15,1.5-22.4,2.3c-1.5-0.1-2.5,0.8-3.4,1.9c-5.7-0.1-11.2-1.6-16.9-1.7
		c-0.2-1.1-0.4-2.2-0.5-3.2c5.7,1.9,11.8,1.7,17.7,1.6c-0.7-0.5-1.3-1-2-1.5c1-0.2,2.1-0.5,3.1-0.7c-2.3-0.2-4.6-0.5-6.9-0.7
		c1.3-0.5,2.7-0.9,4-1.4c-1-0.3-1.9-0.6-2.9-0.9c1-0.4,2.1-0.8,3.1-1.1c-0.5-0.2-1.5-0.6-2.1-0.8C75.3,103.9,76.3,103.3,77.4,102.6z
		"/>
</g>
<g id="_x23_636766ff">
	<path class="st146" d="M42.7,110.3c-1.5-2.1-1.2-4.7-0.3-6.9c2.5,1.7,4.9,3.8,7.8,4.8c-1.8,0.5-3.1,1.8-4.5,2.9
		c1.5,1.3,3,2.6,4.4,4c-1.5-0.6-2.9-1.2-4.4-1.8c-0.1-1.1-0.3-2.1-0.4-3.2C44.7,110.1,43.3,110.2,42.7,110.3z"/>
	<path class="st146" d="M120.4,111c3.1-0.1,6.3,0,9.4,0.2c-0.2,1.1-0.5,2.2-0.8,3.3c-5.2,1.2-10.7,1.3-16,0.4
		c-0.1-0.5-0.4-1.5-0.5-2C114.9,111.5,117.8,111.4,120.4,111z"/>
	<path class="st146" d="M41.5,151.8c0.1-2.6,0.3-5.2,0.5-7.9c1.5,2.4,3.1,5.7,6.5,4.3c0.5,0.2,1.5,0.7,2,1c-0.1,2.4-0.5,4.8-1.3,7
		l-1.1,0.1C46,154.9,43.7,153.4,41.5,151.8z"/>
	<path class="st146" d="M68.5,158.2c2,0,4.1,0.1,6.1,0.1c0,1.5,0,2.9,0,4.4c-1.6,0.3-3.2,0.5-4.9,0.7c-2.9-0.2-5.7-0.9-8.5-1.8
		c0.3-0.2,0.8-0.6,1.1-0.8c1.9,0,3.7,0.2,5.5,0.3C68.1,160.4,68.4,158.9,68.5,158.2z"/>
</g>
<g id="_x23_e0dec6ff">
	<path class="st147" d="M149.2,105.2c1.4-0.2,2.8-0.4,4.1-0.5c2.4,1.4,4.9,2.8,7.3,4.2c1.3,0.8,2.6,1.6,3.8,2.4
		c2.8,1.9,5.4,4.1,7.6,6.6c-3.7,2.1-8,3.3-11.2,6.2c-0.4,3.3-0.2,6.7-0.2,10.1c0,2.7,0.1,5.5,0.1,8.2c0,2.5,0,4.9,0,7.4
		c-0.4,6.8-0.2,13.5-0.3,20.3c-0.1,2.3,0.2,4.5,0.8,6.7l0.1,0.6c-3.1-1.7-5.8-4-8.5-6.2c0.3-0.5,0.8-1.5,1.1-2c1.4,1.1,2.8,2,4.3,3
		c-0.1-15.4-0.1-30.7,0-46.1c0.7-4.2-4.1-5.3-6.9-6.9l1.2-1.4c0.3-2.2-2-3.1-3.2-4.3c0.8-0.3,1.6-0.5,2.4-0.8c-1.9-1-3.7-2-5.6-3.1
		c0.9-0.3,1.8-0.6,2.7-0.9c-1.3-0.8-2.6-1.6-3.9-2.4c1.9,0.3,3.8,0.6,5.7,0.9C150.2,106.4,149.7,105.8,149.2,105.2z"/>
</g>
<g id="_x23_bfbeabff">
	<path class="st148" d="M50.2,108.2h0.4c1.5,1.2,2.9,2.5,4.3,3.8c-1.9-0.6-3.7-1.2-5.5-1.9c0.4,0.9,0.8,1.8,1.2,2.6
		c0.4,1.1,0.8,2.1,1.1,3.2c-0.5,0.1-1.7,0.3-2.2,0.4c0.2,4.6,0.2,9.2,0.2,13.8c-0.1,6.5,1.7,12.8,0.9,19.3c-0.5-0.2-1.5-0.7-2-1
		c-1.3-2.4-3-4.4-5.2-5.9c-0.4-10.7-0.3-21.4-0.7-32.1c0.7-0.1,2-0.2,2.7-0.2c0.1,1.1,0.3,2.1,0.4,3.2c1.5,0.6,2.9,1.2,4.4,1.8
		c-1.5-1.3-2.9-2.6-4.4-4C47.1,110,48.5,108.7,50.2,108.2 M46.3,139.3c-2.3,1.8,2.9,6.1,3.7,2.7C49.5,140.7,47.6,137.6,46.3,139.3z"
		/>
</g>
<g id="_x23_ebebe6ff">
	<path class="st149" d="M50.6,108.2c0.5,0,1.6,0,2.2,0c2,0.4,3.9,1,5.8,1.6l1.5,0.4c0.2,1.1,0.3,2.2,0.5,3.2c0.2,0.5,0.8,1.4,1,1.9
		c-2.3,4.8-0.2,10.2-1,15.3c-0.3,4.3-0.2,8.6,0,12.9c0,0.5,0,1.6,0.1,2.1c0,2.6,0,5.3-0.1,7.9c-0.1,2.9,0,5.8,0.1,8.7
		c-0.6,0.6-1.3,1.1-1.9,1.7c-1.9-0.8-4.4-0.9-5.7-2.7c-0.4-0.6-1.1-1.7-1.4-2.3c2,0.4,4.1,0.6,6.2,0.9c-0.8-0.8-1.7-1.6-2.5-2.4
		c0.7-0.2,2.1-0.7,2.8-0.9c-0.4-4-3.8-6.7-4.5-10.6c0.3-0.5,0.6-1,0.9-1.6c-1.4-1.8-2.2-4-2.6-6.2c1.9,1.3,3.7,2.7,5.6,4.1
		c-0.8-3.3,0.7-6.6,0.6-9.9c-0.6-0.2-1.9-0.6-2.5-0.7c0.5-0.9,1-1.8,1.5-2.7c-1.7,0.2-3.5,0.4-5.2,0.6c-0.6-4.1-0.4-8.2-0.3-12.3
		c1.5,0.2,3,0.5,4.5,0.7c-1.4-2.1-3.1-4-5.4-5.2c-0.4-0.9-0.8-1.7-1.2-2.6c1.8,0.6,3.7,1.3,5.5,1.9
		C53.5,110.7,52.1,109.4,50.6,108.2z"/>
	<path class="st149" d="M131.5,194.4c3.8-0.2,7.7-0.1,11.5-0.1c0,0.3-0.1,1-0.1,1.4c-3.2-0.1-6.5-0.1-9.7-0.1c0,3.7,0,7.4,0,11
		c3.2,0.6,7.4-1.3,10.1,1c-3.3,0.6-6.7,0.5-10.1,0.5c0.1,3.7-0.2,7.5,0.3,11.2c3.4,0.3,7.6-1.3,10.5,0.9c-4.1,0.4-8.3,0.2-12.4,0.2
		C131.5,211.8,131.6,203.1,131.5,194.4z"/>
</g>
<g id="_x23_fad54cff">
	<path class="st150" d="M164.4,111.2c1.6-1,3.3-2.1,4.9-3.1c1,1.1,2.3,1.5,3.9,1.2l0.9,0c-1.3,1-3.4,1.5-3.8,3.3
		c0.7,0.4,1.4,0.8,2.1,1.2c1.6,1.2,3.4,2,5.1,2.8c1.5,1,2.9,2.2,4.5,3.1c1.7,0.2,3.4-0.2,5.1-0.4c1.8-0.3,3.7-0.5,5.5-0.8l0,1.2
		c-1.2,0.4-2.4,0.7-3.6,1c-1.2,0.2-2.4,0.5-3.6,0.8c-1.7,4.6-7,3.8-10.8,3c1.7-0.1,3.6,0,4.9-1.4c-0.8-2.7-4.2-2-6.3-2.8
		c0,1,0.1,3,0.2,4c-0.3-0.1-0.9-0.2-1.2-0.2c0-2.1-0.1-4.2-0.3-6.3C169.8,115.3,167.2,113.1,164.4,111.2z"/>
</g>
<g id="_x23_e78d1cff">
	<path class="st151" d="M173.5,108.8c7.7-0.7,16.3-1.7,23.2,2.6c2.1,1,1.8,3.3,1.8,5.3c-1.9,0.7-3.8,1.4-5.7,1.9
		c-1.8,0.3-3.7,0.6-5.5,0.8c-2.3-1.4-5.5-2.4-5.6-5.6c1.3,0.9,2.6,1.8,3.9,2.8c0.6-1.3,2.1-2.4,1.5-4c-2.3-0.8-4.7-1-7.1-1.3
		c-1.7-0.2-3.3-0.4-4.9-0.5c-0.8,1-1.6,2.1-2.4,3.1c-0.7-0.4-1.4-0.8-2.1-1.2c0.4-1.8,2.5-2.3,3.8-3.3l-0.9,0L173.5,108.8z"/>
</g>
<g id="_x23_f3f3edff">
	<path class="st152" d="M80.9,113.2c7.5-0.8,15-1.3,22.4-2.3c0.5,0.3,1.6,0.9,2.1,1.2c-1.6,0.2-3.1,0.4-4.7,0.7
		c-4.4,1-9.2,1-13.1,3.6c4.3,0.4,9,0.3,12.8,2.8c0.4,0.4,1.3,1.1,1.7,1.5c-0.9,3.7-1.6,7.5-3.6,10.8c-4.8,8.1-7,17.5-8.4,26.7
		c-1,0.6-1.9,1.3-2.9,1.9c1.2,3.4,4.8,2.7,7.6,2.3c1.7-0.2,3.3-0.5,5-0.7c1.4,0.2,2.9,0.5,4.3,0.7c-8.7,1.1-17.5,3.7-26.2,1.9
		c1.9-0.2,3.8-0.6,5.8-0.9c0.2-2.7,0.2-5.4-0.4-8.1c-0.5-9.9-0.8-20-2.8-29.7c2.5-2.9,3.7-6.5,3.4-10.2c-1.5,0-2.9-0.1-4.4-0.1
		l-1.9-0.1C78.3,114,79.4,113.1,80.9,113.2z"/>
</g>
<g id="_x23_878a89ff">
	<path class="st153" d="M107.2,112.1c1.1-0.2,2.3-0.5,3.4-0.7c3.2-0.4,6.5-0.4,9.7-0.4c-2.6,0.5-5.5,0.5-7.8,2
		c0.1,0.5,0.4,1.5,0.5,2c5.2,0.9,10.8,0.8,16-0.4c-0.1,0.4-0.3,1.1-0.4,1.4c-1.3,0.1-2.6,0.2-3.9,0.2c-6.8-0.3-13.6,0.3-20.3,0.5
		c0-1.1,0.1-2.1,0.1-3.2C105.4,113,106.3,112.6,107.2,112.1z"/>
</g>
<g id="_x23_a1a292ff">
	<path class="st154" d="M129.8,111.2c3,0.2,6,0.7,9,1.2c0.9,1.6,1,3.4,1.2,5.1c-1.5,0.3-3,0.6-4.5,0.8c1.1,0.8,2.2,1.6,3.4,2.3
		c-0.1,1.7-0.2,3.5-0.3,5.2c-8-1.4-16-1.6-24.1-1.7c0.1-0.6,0.2-1.9,0.3-2.6c-1.4-0.2-2.8-0.4-4.2-0.6c3.4-5,10.9-0.2,14.2-4.8
		c1.3,0,2.6-0.1,3.9-0.2c0.1-0.4,0.3-1.1,0.4-1.4C129.3,113.4,129.6,112.3,129.8,111.2 M130.1,113.1c-1.1,1.5,1.6,2.8,2.6,1.6
		C133.9,113.2,131.1,111.9,130.1,113.1 M133.8,114.3c1.3,1.2,2.9,1.8,4.5,2.4c0.2-0.7,0.5-2.2,0.7-2.9
		C137.2,113.8,135.5,113.9,133.8,114.3z"/>
</g>
<g id="_x23_f8d272ff">
	<path class="st155" d="M172.5,113.8c0.8-1,1.6-2.1,2.4-3.1c1.6,0.2,3.3,0.3,4.9,0.5c0.5,0.2,1.4,0.6,1.9,0.8
		c-0.4,1.1-0.7,2.2-1.1,3.3c-0.8,0.3-2.3,0.9-3,1.3C175.9,115.8,174.1,115.1,172.5,113.8z"/>
</g>
<g id="_x23_f1b03eff">
	<path class="st156" d="M179.9,111.3c2.4,0.2,4.8,0.5,7.1,1.3c0.6,1.6-0.9,2.7-1.5,4c-1.3-1-2.6-1.9-3.9-2.8
		c0.1,3.2,3.3,4.2,5.6,5.6c-1.7,0.2-3.4,0.7-5.1,0.4c-1.6-0.9-3-2.1-4.5-3.1c0.8-0.3,2.3-0.9,3-1.3c0.4-1.1,0.7-2.2,1.1-3.3
		C181.2,111.9,180.3,111.5,179.9,111.3z"/>
</g>
<g id="_x23_b0b2b2ff">
	<path class="st157" d="M100.7,112.8c1.6-0.3,3.1-0.5,4.7-0.7c0.5,0,1.4,0,1.9,0.1c-0.9,0.5-1.8,0.9-2.7,1.4
		c-0.1,1.1-0.1,2.1-0.1,3.2c0.3,1.1,0.8,2.2,1.3,3.2c-0.6,0.7-1.2,1.4-1.8,2.1c-0.5-0.4-1.4-1.1-1.8-1.4c-0.4-0.4-1.3-1.1-1.7-1.5
		C100.2,117,100.4,114.9,100.7,112.8z"/>
</g>
<g id="_x23_e0dfd4ff">
	<path class="st158" d="M138.8,112.4c5.3-1,9.6,2.9,13.9,5.3l-1.2,1.4c-0.8-0.6-2.4-1.8-3.2-2.3c0.4,1.6,2.1,3.6,0.5,5.1
		c1.9,1.1,3.9,2.2,5.7,3.5c-3.8,8.7-4.8,18.2-5.7,27.6c-0.7,0.7-1.5,1.3-2.2,2c0.7,1.3,1.5,2.6,2.2,3.9c-0.8,0-2.4,0.1-3.2,0.2
		c1.2,1.2,2.4,2.5,3.7,3.8c-1.9-0.2-3.7-0.3-5.5-0.4c1.2,0.9,2.5,1.7,3.9,2.2c2.3,1.2,4.4,2.8,6.4,4.5c-0.3,0.5-0.8,1.5-1.1,2
		c-3.9-1.9-7.6-4.4-12-5.1c0-0.5,0.1-1.4,0.1-1.9c0.1-1.3,0.1-2.6,0.1-3.8c-0.2-1.5-0.6-2.9-0.9-4.4c0.3-1.3,0.7-2.6,1-3.9
		c-0.7-0.7-1.4-1.4-2.1-2.1c-0.4-0.4-1.1-1.1-1.5-1.4c0.8-0.8,1.6-1.5,2.5-2.2c-1.3-2.6-2.5-5.3-3.5-8.1c-0.1-1.6-0.1-3.3,0-4.9
		c0.2-2,0.5-3.9,0.7-5.9c1.1-0.3,2.1-0.6,3.2-1c-0.1-1.5-0.1-3.1-0.2-4.6c-0.4-0.3-1.2-0.8-1.6-1.1c-1.2-0.8-2.3-1.5-3.4-2.3
		c1.5-0.3,3-0.6,4.5-0.8C139.8,115.8,139.6,114,138.8,112.4 M140.4,128.4c0,3.2,0.5,6.4,0.5,9.6c-0.2,4,1.6,7.9,0.5,11.9
		c0.8,1,2.2,0.8,3.3,1.2c0.9-3.2,1.1-6.6,1.4-10c0.4-4.7,1.6-9.3,1.7-14c-1,0.6-2,1.1-2.9,1.7C143.5,127.9,141.8,126.7,140.4,128.4z
		"/>
</g>
<g id="_x23_cecfcbff">
	<path class="st159" d="M50.6,112.7c2.2,1.2,4,3.1,5.4,5.2c-1.5-0.2-3-0.4-4.5-0.7c-0.1,4.1-0.3,8.2,0.3,12.3
		c1.7-0.2,3.5-0.4,5.2-0.6c-0.5,0.9-1,1.8-1.5,2.7c0.6,0.2,1.9,0.5,2.5,0.7c0.1,3.3-1.4,6.6-0.6,9.9c-1.8-1.4-3.7-2.8-5.6-4.1
		c0.3,2.3,1.2,4.4,2.6,6.2c-0.3,0.5-0.6,1.1-0.9,1.6c0.7,3.9,4.1,6.6,4.5,10.6c-0.7,0.2-2.1,0.7-2.8,0.9c0.8,0.8,1.7,1.6,2.5,2.4
		c-2.1-0.3-4.1-0.5-6.2-0.9c-1.1-0.9-2.2-1.7-3.4-2.6l1.1-0.1c0.8-2.3,1.1-4.6,1.3-7c0.8-6.5-1-12.8-0.9-19.3c0-4.6,0-9.2-0.2-13.8
		c0.6-0.1,1.7-0.3,2.2-0.4C51.3,114.8,51,113.8,50.6,112.7z"/>
</g>
<g id="_x23_8a8d8cff">
	<path class="st160" d="M60.6,113.4c5.7,0.1,11.2,1.6,16.9,1.7l1.9,0.1c0.1,1.4,0.1,2.8,0.1,4.2c-2.6,0.3-5.1,0.7-7.7,1
		c0.9-1.2,1.7-2.3,2.5-3.4c-1.4-0.4-2.8-0.8-4.2-1.2c-0.6,1.3-1.2,2.6-1.8,3.9c-0.2-1.5-0.4-2.9-0.6-4.4c-2,0.1-4.1,0.3-6.1,0.1
		C61.4,114.8,60.9,113.9,60.6,113.4z"/>
</g>
<g id="_x23_c8cacaff">
	<path class="st161" d="M87.6,116.4c3.8-2.6,8.7-2.6,13.1-3.6c-0.3,2.1-0.4,4.3-0.3,6.4C96.6,116.7,91.9,116.8,87.6,116.4z"/>
</g>
<g id="_x23_d5d6beff">
	<path class="st162" d="M130.1,113.1c1-1.2,3.7,0.1,2.6,1.6C131.8,116,129,114.6,130.1,113.1z"/>
</g>
<g id="_x23_cfd0bbff">
	<path class="st163" d="M133.8,114.3c1.7-0.4,3.5-0.5,5.2-0.5c-0.2,0.7-0.5,2.2-0.7,2.9C136.6,116.1,135.1,115.4,133.8,114.3z"/>
</g>
<g id="_x23_c3c2aeff">
	<path class="st164" d="M61.6,115.3c2,0.2,4.1,0,6.1-0.1c0.2,1.5,0.4,2.9,0.6,4.4c0.6-1.3,1.2-2.6,1.8-3.9c1.4,0.4,2.8,0.8,4.2,1.2
		c-0.8,1.2-1.7,2.3-2.5,3.4c2.6-0.3,5.2-0.6,7.7-1c0-1.4-0.1-2.8-0.1-4.2c1.5,0.1,3,0.1,4.4,0.1c0.2,3.8-1,7.4-3.4,10.2l-0.5-1.5
		c-0.1-0.6-0.3-1.3-0.4-1.9c-3.1,3.8-5.4,8.2-6.2,13c-2.3-0.3-4.6-0.6-6.8-0.9c-0.3,1-0.7,1.9-1.1,2.9c-0.8-2.7-2.2-5.3-4.7-6.7
		C61.4,125.5,59.3,120.1,61.6,115.3 M62.3,117.2C62.5,120.6,65.3,115.7,62.3,117.2 M60.7,119.2c1.8,2.1,4.7,2.2,7.2,2.7
		c2.8,0.3,5.8,1,8.4-0.5C71.1,121.1,66,119.2,60.7,119.2z"/>
</g>
<g id="_x23_d9d8c5ff">
	<path class="st165" d="M104.4,116.7c6.8-0.2,13.5-0.9,20.3-0.5c-3.3,4.6-10.9-0.2-14.2,4.8c1.4,0.2,2.8,0.4,4.2,0.6
		c-0.1,0.7-0.2,1.9-0.3,2.6c-0.4,3-1.6,5.8-3.2,8.3c-0.8-4.6-2.5-8.9-5.5-12.5C105.2,118.9,104.7,117.8,104.4,116.7z"/>
</g>
<g id="_x23_737672ff">
	<path class="st166" d="M62.3,117.2C65.3,115.7,62.5,120.6,62.3,117.2z"/>
</g>
<g id="_x23_686c6bff">
	<path class="st167" d="M148.8,121.8c1.6-1.4-0.1-3.4-0.5-5.1c0.8,0.6,2.4,1.8,3.2,2.3c2.9,1.5,7.6,2.7,6.9,6.9
		c-0.1,15.3-0.1,30.7,0,46.1c-1.5-1-2.9-1.9-4.3-3c-2-1.6-4.1-3.3-6.4-4.5c2.8,0.6,5.4,1.6,8.1,2.6c-0.9-2.8-3.4-4.4-5.6-6
		c2.1,0.9,4.2,1.9,6.4,2.8c1.5-7,0.8-14.3,0.4-21.4c0.2-5.7,2.2-12.8-2.4-17.2C152.6,124,150.7,122.8,148.8,121.8 M150.7,121
		c0,1.4,1.9,2.7,3.2,2C155,121.4,151.6,119,150.7,121z"/>
</g>
<g id="_x23_fee76cff">
	<path class="st168" d="M192.8,118.5c1.9-0.5,3.8-1.2,5.7-1.9c0,0.9,0.1,2.7,0.1,3.6c-1.7,1.5-3.7,2.4-5.8,3.1c0-0.9,0-2.7-0.1-3.6
		L192.8,118.5z"/>
</g>
<g id="_x23_c4c4aeff">
	<path class="st169" d="M160.9,124c3.2-2.9,7.5-4,11.2-6.2c0.2,2.1,0.3,4.2,0.3,6.3l-0.1,1.4c-0.1,1.1-0.2,2.2-0.3,3.2
		c-0.9,0.9-1.8,1.9-2.7,2.9c-0.3-0.4-0.8-1.2-1.1-1.6c-0.2,0.9-0.4,1.8-0.6,2.7c-0.4-0.4-1-1.2-1.4-1.5c-0.1,0.6-0.4,1.9-0.5,2.5
		c-0.2-0.2-0.7-0.7-0.9-1c-1.4,0.5-2.8,1-4.1,1.4C160.7,130.7,160.4,127.3,160.9,124z"/>
</g>
<g id="_x23_84857dff">
	<path class="st170" d="M60.7,119.2c5.3,0.1,10.4,1.9,15.7,2.2c-2.6,1.4-5.7,0.8-8.4,0.5C65.4,121.4,62.5,121.3,60.7,119.2z"/>
</g>
<g id="_x23_8d908fff">
	<path class="st171" d="M103.9,122.1c0.6-0.7,1.2-1.4,1.8-2.1c3,3.6,4.7,8,5.5,12.5c0,5.1-0.2,10.5-2.5,15.1c-1.3,2.6-2.9,5-4.3,7.6
		c1.4-0.3,2.9-0.6,4.3-0.7c0.4,0,1.2-0.1,1.7-0.1c-1.9,1.4-4,2.9-3.6,5.6l0,0.7c-1.8,0.1-3.6,0.1-5.3,0.3c1.5-2.4,1-5-0.2-7.3
		C108.2,144.9,109.9,131.7,103.9,122.1z"/>
</g>
<g id="_x23_d9dac9ff">
	<path class="st172" d="M150.7,121c0.9-1.9,4.2,0.4,3.2,2C152.7,123.7,150.8,122.4,150.7,121z"/>
</g>
<g id="_x23_c75106ff">
	<path class="st173" d="M189.1,120.7c1.2-0.3,2.4-0.6,3.6-1c0,0.9,0,2.7,0.1,3.6c2.1-0.7,4.1-1.6,5.8-3.1c-0.1,0.4-0.3,1.2-0.4,1.6
		c-1.7,0.8-3.4,1.4-5.2,1.8c-1.2,0-2.3,0.1-3.5,0.1C189.4,123,189.2,121.5,189.1,120.7z"/>
</g>
<g id="_x23_e8e7deff">
	<path class="st174" d="M102.1,120.6c0.5,0.3,1.4,1.1,1.8,1.4c6,9.7,4.3,22.8-2.7,31.5c-1.8,1.3-3.7,2.5-5.6,3.5
		c-1.9,0.5-3.7,0.8-5.6,1.1c1.4-9.2,3.6-18.6,8.4-26.7C100.4,128.1,101.2,124.3,102.1,120.6z"/>
</g>
<g id="_x23_cecdb6ff">
	<path class="st175" d="M138.8,120.7c0.4,0.3,1.2,0.8,1.6,1.1c0.2,1.5,0.2,3.1,0.2,4.6c-1.1,0.3-2.1,0.6-3.2,1
		c-0.3,1.9-0.5,3.9-0.7,5.9c-1.9-2.2-4.4-5.5-7.8-4.2c-3.1,1-3.8,4.6-3.4,7.5c-3.4,0.3-6.8-0.1-10.2-0.4c-1.9,6.2-3.9,12.5-6.7,18.4
		c-1.5,0.2-2.9,0.5-4.3,0.7c1.4-2.6,3-5,4.3-7.6c2.3-4.7,2.6-10,2.5-15.1c1.6-2.6,2.9-5.3,3.2-8.3c8.1,0.1,16.2,0.3,24.1,1.7
		C138.6,124.2,138.7,122.4,138.8,120.7z"/>
</g>
<g id="_x23_eaa733ff">
	<path class="st176" d="M185.6,121.5c1.2-0.2,2.4-0.5,3.6-0.8c0.1,0.8,0.2,2.3,0.3,3c1.1,0,2.3-0.1,3.5-0.1l-0.1,1.1
		c-1.7,0.7-3.5,1.3-5.3,1.9c-0.4,1-0.8,2.1-1.2,3.1c1.8,0,3.5,0,5.3,0c-2.3,1.3-4.2,3-5.6,5.1c2.5-0.1,5.2,0,7.5-1.2
		c1.8-1,3.5-2,5.2-2.9c-0.1,0.5-0.4,1.4-0.6,1.8c-1.8,1-3.6,1.9-5.4,2.8c-1.1,0.5-2.3,0.9-3.4,1.3c0,1.1-0.1,2.3-0.1,3.4
		c1.3-0.4,2.6-0.7,3.9-1.3c1.9-0.9,3.8-1.9,5.6-2.9c-0.1,0.5-0.3,1.4-0.4,1.8c-2,1.1-4,2-6.1,2.9c-1.8,0.7-2.8,2.3-3.3,4.1
		c1.4,0,2.7,0,4.1-0.1l0,1.1c-1.8,0.7-3.6,1.3-5.3,1.9c-0.4,1-0.8,2.1-1.2,3.1c1.7,0,3.4,0,5.1,0c-2.1,1.3-4.1,2.9-5.4,5
		c2.5-0.1,5.1,0,7.4-1.2c1.7-0.9,3.4-1.9,5.2-2.9c-0.1,0.5-0.3,1.4-0.4,1.9c-1.9,1-3.8,2-5.7,2.9c-1.7,0.7-3.4,1.4-5.1,2.1
		c0.2,1.1,0.3,2.2,0.5,3.4c-1.6,0.2-3.3,0.4-5,0.6c0.6-1.7,1.2-3.5,1.9-5.2c-2.3,0-4.7,0.1-7,0.1c-1.9-0.2-3.7-0.3-5.6-0.5
		c0-0.4,0-1.3,0-1.7c2.1,0.4,4.2,0.7,6.4,0.9c1.6-0.1,3.3-0.3,4.9-0.5c0.1-1.1,0.2-2.1,0.3-3.2c-2.2-0.1-4.3-0.2-6.5-0.3
		c-1.7,0-3.4,0-5.1,0.1c0-0.6-0.1-1.7-0.1-2.3c0.7,0.2,2.1,0.5,2.8,0.7c3.6,1.1,8.4,1,10-3.1c-2.5-0.2-5-0.5-7.6-0.6l-1.8-0.1
		c3-0.9,9.3-0.1,8.7-4.8c-1.5-0.1-3.1-0.2-4.6-0.2c-2.5-0.1-5-0.3-7.5-0.6l0-1.7c2,0.3,3.9,0.6,5.9,0.8c0.7,0,2.2,0.1,2.9,0.1
		c2.9,0.2,4.3-2.3,5.7-4.4c-3.4,0.1-6.7,0.2-10.1,0.3c-1.5-0.1-3.1-0.1-4.6-0.2c0-0.5,0-1.5,0-2c2.5,0.4,5,0.7,7.5,0.7
		c1.4,0,2.7-0.1,4.1-0.1c0.4-1.2,0.8-2.3,1.1-3.5c-2.5-0.1-5-0.2-7.6-0.2c-1.7,0-3.4,0-5.2,0.1c0-0.6-0.1-1.9-0.1-2.5
		c2.7,0.8,5.5,1.2,8.3,1.3c2.6,0.3,4-1.7,4.8-3.8c-1.6,0-3.3,0.1-4.9,0.1c-2.7-0.1-5.3-0.5-8-0.8l0.1-1.4c0.3,0.1,0.9,0.2,1.2,0.2
		l1.2,0.2C178.6,125.2,183.9,126.1,185.6,121.5z"/>
</g>
<g id="_x23_727575ff">
	<path class="st177" d="M79.4,122.2c0.1,0.6,0.3,1.3,0.4,1.9c-2.9,6.5-4.3,13.7-2.8,20.8c0.3,2.5-0.1,4.9-0.8,7.3
		c-2.6-5.2-3.7-11.1-3.1-16.9C74,130.4,76.3,126,79.4,122.2z"/>
</g>
<g id="_x23_fee56dff">
	<path class="st178" d="M192.9,123.6c1.8-0.4,3.5-1.1,5.2-1.8c0.2,1.4,0.4,2.8,0.6,4.2c-1.9,0.8-3.7,1.6-5.5,2.4
		c-0.1-0.9-0.3-2.8-0.4-3.7L192.9,123.6z"/>
	<path class="st178" d="M192.9,144.6c1.8-0.4,3.5-1.1,5.2-1.8c0.2,1.4,0.4,2.8,0.6,4.2c-1.9,0.7-3.7,1.5-5.5,2.3
		c-0.1-0.9-0.2-2.6-0.3-3.5L192.9,144.6z"/>
	<path class="st178" d="M192.5,156.4c1.9-0.9,3.8-1.8,5.7-2.9c0.3,2,0.5,4.3-1.4,5.7c-1.2,0.4-2.4,0.7-3.6,1
		C193,159.3,192.7,157.4,192.5,156.4z"/>
</g>
<g id="_x23_dfded3ff">
	<path class="st179" d="M79.8,124.1l0.5,1.5c1.9,9.8,2.3,19.8,2.8,29.7c-1-1.1-2-2.1-2.9-3.2c-1.2-2.4-2.2-4.7-3.2-7.2
		C75.5,137.8,76.9,130.6,79.8,124.1z"/>
</g>
<g id="_x23_fef4caff">
	<path class="st180" d="M172.2,125.4c2.6,0.4,5.3,0.8,8,0.8c0,1.2,0.1,2.5,0.1,3.7c-2.8-0.1-5.6-0.5-8.3-1.3
		C172.1,127.6,172.2,126.5,172.2,125.4z"/>
	<path class="st180" d="M172.2,141.2c2.5,0.3,5,0.6,7.5,0.6c0,0.8-0.1,2.4-0.1,3.2c-2.5,0.1-5,0-7.5-0.3
		C172.1,143.5,172.1,142.4,172.2,141.2z"/>
	<path class="st180" d="M172.1,147.3c1.2-0.2,2.3-0.4,3.5-0.5l1.8,0.1c0,0.8,0,2.5,0,3.4c-0.6,0.1-1.8,0.2-2.4,0.3
		c-0.7-0.2-2.1-0.5-2.8-0.7C172.1,149.2,172.1,147.9,172.1,147.3z"/>
</g>
<g id="_x23_dc7f1cff">
	<path class="st181" d="M187.6,126.6c1.8-0.6,3.5-1.2,5.3-1.9c0.1,0.9,0.3,2.8,0.4,3.7c1.8-0.8,3.7-1.7,5.5-2.4
		c-0.2,0.3-0.5,0.9-0.7,1.2c-1.8,0.9-3.7,1.6-5.6,2.4c0.2,1,0.8,3.1,1,4.1c-2.3,1.2-4.9,1.2-7.5,1.2c1.4-2.2,3.4-3.9,5.6-5.1
		c-1.8,0-3.5,0-5.3,0C186.7,128.7,187.1,127.7,187.6,126.6z"/>
</g>
<g id="_x23_d4d3c0ff">
	<path class="st182" d="M154.4,125.3c4.6,4.5,2.6,11.6,2.4,17.2c-1.2,4.9-0.8,10-2.2,14.8c-1.1-0.9-2.2-1.7-3.4-2.5
		c-0.8-0.6-1.7-1.3-2.5-1.9C149.6,143.5,150.6,133.9,154.4,125.3z"/>
</g>
<g id="_x23_f9d551ff">
	<path class="st183" d="M180.2,126.3c1.6,0,3.3-0.1,4.9-0.1c-0.9,2.2-2.2,4.1-4.8,3.8C180.3,128.7,180.2,127.5,180.2,126.3z"/>
</g>
<g id="_x23_edece4ff">
	<path class="st184" d="M140.4,128.4c1.3-1.6,3.1-0.4,4.6,0.3c1-0.6,2-1.1,2.9-1.7c-0.1,4.7-1.3,9.3-1.7,14c-0.3,3.3-0.5,6.7-1.4,10
		c-1.1-0.3-2.5-0.2-3.3-1.2c1-4-0.8-7.9-0.5-11.9C140.9,134.7,140.4,131.6,140.4,128.4z"/>
</g>
<g id="_x23_fbe067ff">
	<path class="st185" d="M192.4,129.5c1.9-0.7,3.8-1.5,5.6-2.4c0.2,0.9,0.5,2.6,0.6,3.5c-1.8,1-3.5,2-5.2,2.9
		C193.2,132.6,192.7,130.6,192.4,129.5z"/>
</g>
<g id="_x23_507365ff">
	<path class="st186" d="M125.6,136.4c-0.4-2.8,0.3-6.4,3.4-7.5c3.4-1.3,5.9,2,7.8,4.2c-0.1,1.6-0.1,3.3,0,4.9
		c-1.8,1.1-3.5,2.9-5.8,2.4C128.6,140.3,127.1,138.1,125.6,136.4z"/>
</g>
<g id="_x23_adb19dff">
	<path class="st187" d="M169.3,131.6c0.9-1,1.8-1.9,2.7-2.9c0,0.6,0.1,1.9,0.1,2.5c0,0.8,0,2.3,0.1,3.1c0,0.5,0,1.5,0,2
		c0,0.5,0,1.4,0,1.9c-0.6-1.2-1.3-2.3-2-3.4c-0.3,5.6-0.3,11.2,0.2,16.8c0.7-1.9,1.3-3.8,1.7-5.7l0,1.5c0,0.6,0.1,1.9,0.1,2.5
		c0,0.6,0,1.7,0.1,2.3c0,0.8,0,2.2,0,3c0,0.4,0,1.3,0,1.7c0,1.5,0,2.9,0.1,4.4c0.1,3.2,0.3,6.5-0.1,9.7c-2.9,3-6.9,4.3-10.7,5.7
		c-0.6-2.2-0.9-4.4-0.8-6.7c0.1-6.8-0.1-13.6,0.3-20.3c0.4,2.3,1.1,4.5,1.8,6.7c0-5.9,2.2-12.1-0.2-17.9c-0.6,1.2-1.1,2.5-1.6,3.8
		c0-2.7-0.1-5.5-0.1-8.2c1.4-0.5,2.8-0.9,4.1-1.4c0.2,0.2,0.7,0.7,0.9,1c0.1-0.6,0.4-1.9,0.5-2.5c0.3,0.4,1,1.1,1.4,1.5
		c0.2-0.9,0.4-1.8,0.6-2.7C168.5,130.4,169,131.2,169.3,131.6 M168.4,134.9c-1.3,6.2-0.5,12.6-0.1,18.8l0.5,0
		C169.2,147.5,169.6,141.1,168.4,134.9 M166.5,135.9c-1.2,5.7-0.8,11.5,0.1,17.2C167.3,147.4,167.7,141.6,166.5,135.9 M164.5,136.9
		c-1.3,6-1,12.3,0.2,18.3C165.3,149.1,165.9,142.9,164.5,136.9z"/>
</g>
<g id="_x23_8c8e85ff">
	<path class="st188" d="M60.6,130.5c2.5,1.4,3.9,4,4.7,6.7c-0.6,2.7-2.4,4.8-4.7,6.3C60.4,139.2,60.3,134.8,60.6,130.5z"/>
</g>
<g id="_x23_fef5ceff">
	<path class="st189" d="M172.1,131.2c1.7,0,3.4-0.1,5.2-0.1c0.9,1.2,1.6,2.5,2.4,3.8c-2.5,0-5-0.3-7.5-0.7
		C172.1,133.5,172.1,131.9,172.1,131.2z"/>
	<path class="st189" d="M172.2,152.2c1.7,0,3.4-0.1,5.1-0.1c0.4,1.3,0.8,2.6,1.3,3.9c-2.1-0.2-4.3-0.5-6.4-0.9
		C172.2,154.4,172.2,152.9,172.2,152.2z"/>
</g>
<g id="_x23_fddf59ff">
	<path class="st190" d="M177.3,131.1c2.5,0,5,0.1,7.6,0.2c-0.4,1.2-0.8,2.3-1.1,3.5c-1.3,0.1-2.7,0.1-4.1,0.1
		C178.9,133.6,178.1,132.3,177.3,131.1z"/>
</g>
<g id="_x23_fbe066ff">
	<path class="st191" d="M192.7,135.3c1.8-0.9,3.6-1.8,5.4-2.8c0.1,0.9,0.5,2.6,0.6,3.4c-1.9,1-3.7,2-5.6,2.9
		C193,137.9,192.8,136.2,192.7,135.3z"/>
</g>
<g id="_x23_b8b7a3ff">
	<path class="st192" d="M66.4,134.3c2.3,0.3,4.6,0.6,6.8,0.9c-0.6,5.8,0.5,11.7,3.1,16.9l-0.2,0.8c-0.4,1.5-0.7,3.1-1,4.6l-0.9-0.1
		c-0.3-1.3-0.5-2.6-0.8-3.8c-2.2-0.7-4.3-1.3-6.5-1.9c0.9-0.8,1.9-1.6,2.8-2.3c-0.1-1-0.2-1.9-0.3-2.9c-2.9-0.4-5.8-0.8-8.7-1
		c0-0.5,0-1.6-0.1-2.1c2.3-1.4,4.1-3.5,4.7-6.3C65.7,136.2,66,135.3,66.4,134.3z"/>
</g>
<g id="_x23_8d9186ff">
	<path class="st193" d="M168.4,134.9c1.2,6.2,0.7,12.6,0.4,18.8l-0.5,0C167.9,147.5,167.1,141.1,168.4,134.9z"/>
</g>
<g id="_x23_959889ff">
	<path class="st194" d="M170.2,134.7c0.7,1.1,1.4,2.3,2,3.4c0,0.4,0,1.1,0,1.4l0,1.7c0,1.2,0,2.3-0.1,3.5l0,1.1
		c-0.4,1.9-1.1,3.8-1.7,5.7C169.8,145.9,169.9,140.3,170.2,134.7z"/>
</g>
<g id="_x23_c0bfaaff">
	<path class="st195" d="M115.4,136.1c3.4,0.3,6.8,0.7,10.2,0.4c1.5,1.7,2.9,3.9,5.4,4.1c2.3,0.5,4-1.3,5.8-2.4
		c0.9,2.8,2.2,5.4,3.5,8.1c-0.8,0.7-1.7,1.5-2.5,2.2c-0.3,0.3-0.9,0.8-1.1,1.1c-0.6,1.4-1.1,2.8-1.6,4.1c-1.3-0.4-2.6-0.8-3.9-1.1
		c-0.1-0.9-0.2-2.7-0.3-3.6c-4.8-0.4-9.5-0.4-14.3-0.2c0,0.9,0.2,2.8,0.2,3.7l0,0.4c-2.2,0.6-4.3,1.1-6.5,1.5
		c-0.4,0-1.2,0.1-1.7,0.1C111.5,148.6,113.5,142.3,115.4,136.1 M117,142.2c0,0.7-0.1,2-0.1,2.7c6.8-0.4,13.6,0.5,20.3,1.4
		c1.8-1.1,0.2-2.7-1.2-2.9C129.8,142,123.4,142.1,117,142.2z"/>
</g>
<g id="_x23_8c8f85ff">
	<path class="st196" d="M166.5,135.9c1.2,5.7,0.8,11.5,0.1,17.2C165.6,147.4,165.3,141.6,166.5,135.9z"/>
</g>
<g id="_x23_fad64dff">
	<path class="st197" d="M176.7,136.4c3.4-0.1,6.7-0.3,10.1-0.3c-1.4,2.1-2.8,4.6-5.7,4.4c-0.1-0.8-0.3-2.4-0.4-3.2
		c-0.6-0.1-1.8-0.4-2.4-0.6C177.9,136.6,177.1,136.5,176.7,136.4z"/>
</g>
<g id="_x23_d26912ff">
	<path class="st198" d="M189.3,136.7c1.1-0.4,2.3-0.9,3.4-1.3c0.1,0.9,0.2,2.6,0.3,3.4c-1.3,0.6-2.6,0.9-3.9,1.3
		C189.2,138.9,189.2,137.8,189.3,136.7z"/>
</g>
<g id="_x23_8e9186ff">
	<path class="st199" d="M164.5,136.9c1.4,6,0.8,12.2,0.2,18.3C163.5,149.2,163.2,142.9,164.5,136.9z"/>
</g>
<g id="_x23_fde987ff">
	<path class="st200" d="M178.2,136.7c0.6,0.1,1.8,0.4,2.4,0.6c0.1,0.8,0.3,2.4,0.4,3.2c-0.7,0-2.2-0.1-2.9-0.1
		C178.1,139.4,178.2,137.6,178.2,136.7z"/>
</g>
<g id="_x23_fde268ff">
	<path class="st201" d="M192.2,140.6c2-0.9,4.1-1.8,6.1-2.9c0.1,0.9,0.2,2.6,0.3,3.4c-1.6,1-3.5,3.6-5.5,2.3
		C192.8,142.8,192.4,141.3,192.2,140.6z"/>
</g>
<g id="_x23_a3a492ff">
	<path class="st202" d="M46.3,139.3c1.3-1.7,3.2,1.4,3.7,2.7C49.2,145.4,44,141.1,46.3,139.3z"/>
</g>
<g id="_x23_92968aff">
	<path class="st203" d="M162.4,138.5c2.4,5.7,0.3,11.9,0.2,17.9c-0.7-2.2-1.3-4.4-1.8-6.7c0-2.5-0.1-4.9,0-7.4
		C161.3,141,161.8,139.7,162.4,138.5z"/>
</g>
<g id="_x23_c75206ff">
	<path class="st204" d="M188.8,144.7c0.6-1.8,1.6-3.3,3.3-4.1c0.2,0.7,0.7,2.1,0.9,2.8c2.1,1.3,3.9-1.3,5.5-2.3
		c-0.1,0.4-0.3,1.2-0.4,1.6c-1.7,0.8-3.4,1.4-5.2,1.8C191.6,144.7,190.2,144.7,188.8,144.7z"/>
</g>
<g id="_x23_969a87ff">
	<path class="st205" d="M117,142.2c6.3-0.1,12.7-0.2,18.9,1.2c1.5,0.2,3,1.9,1.2,2.9c-6.7-0.9-13.5-1.8-20.3-1.4
		C117,144.2,117,142.9,117,142.2z"/>
</g>
<g id="_x23_f4d05cff">
	<path class="st206" d="M179.7,141.8c1.5,0,3.1,0.1,4.6,0.2c0.6,4.7-5.7,3.8-8.7,4.8c-1.2,0.2-2.3,0.3-3.5,0.5l0-1.5l0-1.1
		c2.5,0.3,5,0.4,7.5,0.3C179.6,144.2,179.6,142.6,179.7,141.8z"/>
</g>
<g id="_x23_bfbeacff">
	<path class="st207" d="M154.6,157.3c1.4-4.8,1-9.9,2.2-14.8c0.4,7.1,1.1,14.4-0.4,21.4c-2.1-0.9-4.3-1.8-6.4-2.8
		c2.3,1.6,4.8,3.2,5.6,6c-2.6-1-5.3-2-8.1-2.6c-1.4-0.6-2.7-1.4-3.9-2.2c1.9,0.1,3.7,0.2,5.5,0.4c-1.2-1.2-2.5-2.5-3.7-3.8
		c0.8-0.1,2.4-0.1,3.2-0.2c-0.7-1.3-1.5-2.6-2.2-3.9c0.7-0.7,1.5-1.4,2.2-2c0.8,0.6,1.7,1.2,2.5,1.9c0,1.7,0.1,3.4,0.1,5.1
		c0.6,0.1,1.9,0.3,2.5,0.5C154.1,159.5,154.4,158,154.6,157.3z"/>
</g>
<g id="_x23_9a9d8aff">
	<path class="st208" d="M60.7,145.6c2.9,0.2,5.8,0.6,8.7,1c0.1,0.9,0.2,1.9,0.3,2.9c-0.9,0.8-1.9,1.6-2.8,2.3
		c2.2,0.6,4.3,1.3,6.5,1.9c0.3,1.3,0.5,2.6,0.8,3.8c-2.6-0.2-5.6,0-7.6-2c-1.6-1.5-3.7-2.1-5.9-2C60.6,150.9,60.7,148.2,60.7,145.6z
		"/>
</g>
<g id="_x23_a2a4a2ff">
	<path class="st209" d="M77,144.9c0.9,2.5,2,4.8,3.2,7.2c-0.2,1.5-0.5,3.1-0.7,4.6c-1.2-1.2-2.3-2.4-3.4-3.7l0.2-0.8
		C77,149.8,77.4,147.3,77,144.9z"/>
</g>
<g id="_x23_dd801eff">
	<path class="st210" d="M187.6,147.6c1.8-0.6,3.6-1.2,5.3-1.9c0.1,0.9,0.2,2.7,0.3,3.5c1.8-0.8,3.7-1.6,5.5-2.3
		c-0.2,0.3-0.5,1-0.7,1.4c-1.9,0.7-3.8,1.3-5.7,1.8c0.4,1.5,0.8,2.9,1.1,4.4c-2.3,1.2-4.9,1.1-7.4,1.2c1.4-2.1,3.3-3.7,5.4-5
		c-1.7,0-3.4,0-5.1,0C186.8,149.7,187.2,148.6,187.6,147.6z"/>
</g>
<g id="_x23_fde46fff">
	<path class="st211" d="M177.4,146.9c2.5,0.2,5,0.4,7.6,0.6c-1.6,4.1-6.4,4.2-10,3.1c0.6-0.1,1.8-0.2,2.4-0.3
		C177.4,149.4,177.4,147.7,177.4,146.9z"/>
	<path class="st211" d="M177.3,152.1c2.2,0,4.3,0.2,6.5,0.3c-0.1,1.1-0.2,2.1-0.3,3.2c-1.6,0.2-3.3,0.4-4.9,0.5
		C178.1,154.7,177.7,153.4,177.3,152.1z"/>
</g>
<g id="_x23_979b89ff">
	<path class="st212" d="M116.6,148.7c4.8-0.3,9.5-0.2,14.3,0.2c0.1,0.9,0.2,2.7,0.3,3.6c-4.8-0.4-9.6-0.2-14.4-0.1
		C116.7,151.5,116.6,149.7,116.6,148.7z"/>
</g>
<g id="_x23_8a9081ff">
	<path class="st213" d="M136.6,149.5c0.3-0.3,0.9-0.8,1.1-1.1c0.4,0.3,1.1,1.1,1.5,1.4c-0.3,1.7-0.7,3.4-1.1,5.1
		c-1-0.5-2-0.9-3.1-1.3C135.6,152.2,136.1,150.8,136.6,149.5z"/>
</g>
<g id="_x23_fade65ff">
	<path class="st214" d="M192.3,150.1c1.9-0.6,3.8-1.1,5.7-1.8c0.2,0.8,0.5,2.5,0.6,3.4c-1.8,0.9-3.5,1.9-5.2,2.9
		C193.1,153.1,192.7,151.6,192.3,150.1z"/>
</g>
<g id="_x23_bebdafff">
	<path class="st215" d="M139.2,149.8c0.7,0.7,1.4,1.4,2.1,2.1c-0.3,1.3-0.7,2.6-1,3.9c-0.5-0.2-1.6-0.7-2.2-0.9
		C138.5,153.2,138.9,151.5,139.2,149.8z"/>
</g>
<g id="_x23_bfc1c1ff">
	<path class="st216" d="M80.2,152c0.9,1.1,1.9,2.2,2.9,3.2c0.6,2.7,0.6,5.4,0.4,8.1c-1.9,0.3-3.8,0.6-5.8,0.9
		c-0.5-0.1-1.6-0.2-2.1-0.3c0.5-0.3,1.6-0.8,2.1-1.1c-0.1-1.7-0.2-3.4-0.4-5.1c-0.6,0-1.8-0.1-2.4-0.1c0.3-1.5,0.6-3.1,1-4.6
		c1.1,1.2,2.3,2.4,3.4,3.7C79.7,155.1,80,153.6,80.2,152z"/>
</g>
<g id="_x23_ecab27ff">
	<path class="st217" d="M116.8,152.4c4.8-0.1,9.6-0.3,14.4,0.1c1.3,0.3,2.6,0.7,3.9,1.1c1,0.4,2.1,0.8,3.1,1.3
		c0.5,0.2,1.6,0.7,2.2,0.9c0.3,1.4,0.6,2.9,0.9,4.4c-2,1.2-4,2.3-6.3,2.8c-4.5,0.2-9.5,2-13.4-1c1-2.1,1.6-4.3,2-6.5
		c0.5,0.8,1,1.6,1.5,2.3c0.8-0.9,1.5-1.8,2.2-2.7c2.6,0.7,5.2,1.4,7.8,2.1c-1.4,1.5-2.9,3.1-4.2,4.7c2-0.6,4.3-0.7,5.8-2.3
		c0.3-1.4,0-3.1-1.4-3.8c-4.9-2.6-10.7-1.9-16-1.9c-0.6-0.3-1.8-0.9-2.4-1.2L116.8,152.4z"/>
</g>
<g id="_x23_707370ff">
	<path class="st218" d="M60.6,153.5c2.2-0.2,4.3,0.4,5.9,2c2,2,5,1.9,7.6,2l0.9,0.1c0.6,0,1.8,0.1,2.4,0.1c0.1,1.7,0.2,3.4,0.4,5.1
		c-0.5,0.3-1.6,0.8-2.1,1.1c-1.9-0.1-3.9-0.3-5.9-0.4c1.6-0.2,3.2-0.5,4.9-0.7c0-1.5,0-3,0-4.4c-2,0-4.1-0.1-6.1-0.1
		c-0.1,0.7-0.4,2.2-0.5,3c-1.8-0.1-3.7-0.3-5.5-0.3c-0.3,0.2-0.8,0.6-1.1,0.8l-0.7,0.5C60.5,159.3,60.5,156.4,60.6,153.5z"/>
</g>
<g id="_x23_fad34bff">
	<path class="st219" d="M110.3,154.3c2.2-0.4,4.3-1,6.5-1.5c0.6,0.3,1.8,0.9,2.4,1.2c-2.8,0.3-5.7,1.3-7.3,3.8
		c3.7-1.5,7.5-2.9,11.6-2.2c-0.4,2.3-1,4.5-2,6.5c3.9,3,9,1.1,13.4,1l0.3,0.9c-1.2,0.2-2.4,0.4-3.5,0.6c-1.4,0.3-2.8,0.5-4.1,1.1
		c-1.4,1.4-2.3,3.7-4.7,3.3c-0.2-1.1-0.4-2.2-0.6-3.3c-2.4-0.4-4.8-0.9-7.2-0.8c-0.4,1.1-0.8,2.2-1.1,3.3c-1.4-0.7-2.7-1.6-3.2-3.1
		c1-2,3.4-1.2,5.2-1.4c-3.2-0.8-6.3-2.1-9.2-3.8C106.3,157.2,108.4,155.7,110.3,154.3z"/>
</g>
<g id="_x23_c2c4c4ff">
	<path class="st220" d="M95.7,157.1c1.9-1.1,3.8-2.2,5.6-3.5c1.2,2.3,1.7,5,0.2,7.3c-0.4,0.2-1.3,0.5-1.7,0.7
		c-1.7,0.2-3.3,0.5-5,0.7C95.1,160.6,95.4,158.9,95.7,157.1z"/>
</g>
<g id="_x23_a2a799ff">
	<path class="st221" d="M151.2,154.7c1.1,0.9,2.2,1.7,3.4,2.5c-0.2,0.8-0.5,2.3-0.7,3c-0.6-0.1-1.9-0.3-2.5-0.5
		C151.3,158.1,151.3,156.4,151.2,154.7z"/>
</g>
<g id="_x23_d6d7d7ff">
	<path class="st222" d="M90.1,158.2c1.9-0.3,3.8-0.6,5.6-1.1c-0.3,1.8-0.6,3.5-0.9,5.3c-2.8,0.4-6.4,1.1-7.6-2.3
		C88.1,159.5,89.1,158.8,90.1,158.2z"/>
	<path class="st222" d="M85,194.3c3.9-0.1,7.8-0.1,11.8,0c0,0.3-0.1,1-0.1,1.4c-3.4,0-6.8,0-10.1,0c0,3.6,0,7.2-0.1,10.8
		c3.2,0.1,6.4,0.1,9.6,0.1l-0.2,1.5c-3.1,0-6.2,0-9.4,0.1c0.1,3.5,0.1,7.1,0,10.6c3.4,0.5,6.8,0.4,10.3,0.3l-0.1,1.4
		c-3.9,0-7.8,0-11.8-0.1C84.9,211.7,84.6,203,85,194.3z"/>
	<path class="st222" d="M109.5,193.9c0.3,0.2,0.8,0.5,1.1,0.7c0.8,8-0.5,16.3,0.6,24.2c3.7,0.9,7.6-0.2,11.4,0.7
		c0,0.2-0.1,0.6-0.1,0.9c-4.4,0.4-8.8,0.1-13.2,0.1C109.4,211.6,109.2,202.8,109.5,193.9z"/>
	<path class="st222" d="M154.3,194.1c1.2,0.1,2.1,0.9,2.4,2.1c2.8,7.1,5.5,14.2,8.4,21.3c3.4-7.5,5.8-15.4,9.3-22.9
		c0.4-0.1,1.1-0.4,1.5-0.5c-2.4,7.1-5.4,13.9-8,21c-0.9,2-1.3,4.5-3.2,5.8C161.2,212,157.5,203.1,154.3,194.1z"/>
	<path class="st222" d="M188.7,194.5c4.1-0.4,8.2-0.3,12.3-0.1c-0.2,0.3-0.6,0.8-0.8,1.1c-3.2,0.4-6.5,0.1-9.7,0.1
		c-0.2,3.7-0.1,7.3-0.1,11c3.3,0,6.6,0,9.9,0.1l-0.8,1.2c-3,0.6-6.1,0.2-9.2,0.3c0,3.6,0,7.2,0,10.7c3.2,0.4,6.6,0.1,9.8,0.4
		l0.9,1.1c-4.1,0.3-8.2,0.2-12.3,0.1C188.7,211.8,188.9,203.1,188.7,194.5z"/>
</g>
<g id="_x23_f8e79cff">
	<path class="st223" d="M172.2,156.9c1.9,0.1,3.7,0.3,5.6,0.5c0.5,0.2,1.5,0.7,2,0.9c0.1,1.4,0.3,2.8,0.4,4.2
		c-0.9-0.1-2.6-0.2-3.4-0.3c-0.1-1.7,0.1-3.9-1.9-4.6c-0.6,1.6,0,4.8-2.7,3.8C172.2,159.8,172.2,158.3,172.2,156.9z"/>
</g>
<g id="_x23_fddf58ff">
	<path class="st224" d="M177.8,157.3c2.3,0,4.7-0.1,7-0.1c-0.6,1.7-1.2,3.5-1.9,5.2c-0.7,0-2,0-2.7,0c-0.1-1.4-0.3-2.8-0.4-4.2
		C179.3,158,178.3,157.5,177.8,157.3z"/>
</g>
<g id="_x23_d36a11ff">
	<path class="st225" d="M187.4,158.5c1.7-0.6,3.4-1.3,5.1-2.1c0.2,0.9,0.5,2.9,0.7,3.8c1.2-0.3,2.4-0.6,3.6-1
		c-2.9,1.3-5.9,2.1-8.9,2.6C187.7,160.7,187.6,159.6,187.4,158.5z"/>
</g>
<g id="_x23_dd8b13ff">
	<path class="st226" d="M106.7,159.9c2.9,1.6,6,3,9.2,3.8c-1.8,0.2-4.2-0.7-5.2,1.4c0.6,1.5,1.9,2.4,3.2,3.1l1.4,0.2
		c-1.6,0.1-3.2,0.3-4.7,0.5c0,0.9,0,2.7,0,3.6c-1.1-0.6-2.2-1.2-3.1-2.1c-0.6-2.1-0.2-4.4-0.5-6.6c-0.1-0.8-0.2-2.4-0.3-3.2
		L106.7,159.9z"/>
</g>
<g id="_x23_fce169ff">
	<path class="st227" d="M134.9,163c2.3-0.5,4.3-1.6,6.3-2.8c0,1.3,0,2.6-0.1,3.8c-1.7,1-3.3,2.1-5,3.1c-0.3-1.1-0.6-2.1-0.9-3.2
		L134.9,163z"/>
</g>
<g id="_x23_d9d8c8ff">
	<path class="st228" d="M99.7,161.6c0.4-0.2,1.3-0.5,1.7-0.7c1.8-0.2,3.5-0.3,5.3-0.3c0.1,0.8,0.2,2.4,0.3,3.2
		c-6.1,0.6-12,1.9-18.1,2.5c-10.1,0.4-20.4,0.5-30.2-2.4c0.6-0.6,1.2-1.1,1.9-1.7l0.7-0.5c2.8,0.9,5.6,1.6,8.5,1.8
		c2,0.1,3.9,0.3,5.9,0.4c0.5,0.1,1.6,0.3,2.1,0.3c8.7,1.8,17.5-0.7,26.2-1.9C102.6,162.1,101.2,161.9,99.7,161.6z"/>
</g>
<g id="_x23_cf6813ff">
	<path class="st229" d="M131.7,164.6c1.2-0.2,2.4-0.4,3.5-0.6c-0.1,1.3-0.1,2.7-0.1,4.1c-0.9,0.1-2.5,0.2-3.4,0.2
		C131.7,167.3,131.7,165.5,131.7,164.6z"/>
</g>
<g id="_x23_e8ab36ff">
	<path class="st230" d="M135.2,163.9c0.3,1.1,0.6,2.1,0.9,3.2c1.7-1,3.3-2.1,5-3.1c0,0.5-0.1,1.4-0.1,1.9c-1.7,1-3.4,1.8-5.2,2.6
		c-0.1,1.6-0.2,3.1-0.2,4.7c-0.2-1.2-0.3-2.5-0.5-3.7c-1.6,0.3-3.2,0.6-4.8,1.1c-0.7,1-1.1,2.2-1.6,3.3c-0.6,0.1-1.9,0.2-2.5,0.3
		c0.1-0.9,0.3-2.7,0.4-3.6c-1.8-0.2-3.6-0.3-5.4-0.5c-0.5,0-1.5-0.1-2-0.1c-0.6,0-1.7-0.1-2.2-0.2c-0.8-0.1-2.4-0.2-3.2-0.2
		c-0.5,1.3-1,2.5-1.5,3.8c-0.4-0.2-1.2-0.7-1.6-0.9c0-0.9,0-2.7,0-3.6c1.6-0.2,3.2-0.4,4.7-0.5c2.5,0.2,5,0.4,7.4,0.6
		c2.4,0.4,3.3-1.9,4.7-3.3c1.3-0.6,2.7-0.8,4.1-1.1c0,0.9,0,2.8,0,3.7c0.8-0.1,2.5-0.2,3.4-0.2C135.1,166.6,135.1,165.3,135.2,163.9
		z"/>
</g>
<g id="_x23_fef3beff">
	<path class="st231" d="M113.9,168.1c0.3-1.1,0.7-2.2,1.1-3.3c2.4-0.1,4.8,0.4,7.2,0.8c0.2,1.1,0.4,2.2,0.6,3.3
		c-2.5-0.2-5-0.4-7.4-0.6L113.9,168.1z"/>
</g>
<g id="_x23_fee56cff">
	<path class="st232" d="M135.8,168.5c1.8-0.8,3.5-1.6,5.2-2.6c0.7,3.7-1.7,6.9-5.4,7.3C135.6,171.6,135.7,170.1,135.8,168.5z"/>
</g>
<g id="_x23_fae890ff">
	<path class="st233" d="M112.2,173.4c0.5-1.3,1-2.5,1.5-3.8c0.8,0.1,2.4,0.2,3.2,0.2c-0.5,1.5-1,3-1.5,4.4c-0.8-0.2-2.5-0.4-3.3-0.6
		L112.2,173.4z"/>
</g>
<g id="_x23_fef6d8ff">
	<path class="st234" d="M116.9,169.8c0.6,0,1.7,0.1,2.2,0.2c0.4,1.7,0.7,3.4,1,5.2c-1.6-0.1-3.3-0.3-4.9-0.4l0.2-0.5
		C115.9,172.8,116.4,171.3,116.9,169.8z"/>
</g>
<g id="_x23_f8e590ff">
	<path class="st235" d="M119.2,170c0.5,0,1.5,0.1,2,0.1c1.1,1.3,1.9,2.9,2.7,4.4l-1.1,0.2c-0.6,0.1-1.9,0.3-2.6,0.4
		C119.8,173.4,119.5,171.7,119.2,170z"/>
</g>
<g id="_x23_fad853ff">
	<path class="st236" d="M121.2,170.1c1.8,0.1,3.6,0.3,5.4,0.5c-0.1,0.9-0.3,2.7-0.4,3.6c-0.6,0.1-1.8,0.2-2.3,0.3
		C123,173,122.3,171.4,121.2,170.1z"/>
</g>
<g id="_x23_d98621ff">
	<path class="st237" d="M130.3,170.6c1.5-0.5,3.2-0.7,4.8-1.1c0.1,1.2,0.3,2.5,0.5,3.7l0,0.3c-4.2,1.3-8.6,1.2-12.9,1.2l1.1-0.2
		c0.6-0.1,1.8-0.2,2.3-0.3c0.6-0.1,1.9-0.3,2.5-0.3C129.2,172.8,129.6,171.6,130.3,170.6z"/>
</g>
<g id="_x23_000000ff">
	<path d="M15,191.9c4.1-3.5,9.8-2.3,14.6-2.1c0.2,3.3,0.1,6.5,0.1,9.8c-1.8,0-3.6-0.1-5.4,0c-0.6,1.9,1.4,2.7,2.4,3.8
		c2.5,1.9,4.6,4.3,5.8,7.2c2,4.8,0.2,11.2-4.7,13.5c-5.1,2.4-11,1.3-16.3,0.3c0-3.4,0-6.8,0-10.1c3.2,0.1,6.8,1.6,9.7,0l0.2-1.2
		c-2.5-2.9-6.2-4.7-8.2-8.1C10.4,200.9,11,194.8,15,191.9 M16.6,200.5c1.8,5.3,7.9,7.4,10,12.5c0.3,1.8,0,4-1.7,5
		c-2.8,2.2-7.1-0.7-9.6,1.9c3.7,0.9,8.3,1.6,11.3-1.3c2.1-1.7,2.4-5,1.1-7.2c-2.3-4-6.8-6.3-9.1-10.3c-0.7-1.7-0.3-4.2,1.7-4.8
		c1.9-0.6,4-0.5,5.9-0.8C23,191.9,15.2,195.4,16.6,200.5z"/>
	<path d="M35.5,190.3c3.9,0,7.9-0.1,11.8,0.1c-0.1,11.4-0.2,22.8,0.1,34.1c-4,0-7.9,0-11.9,0C35.5,213.1,35.5,201.7,35.5,190.3
		 M40.5,194.3c0,8.7,0,17.4,0,26.2l1.7-0.1c0-8.7,0-17.3,0-25.9L40.5,194.3z"/>
	<path d="M48.6,190.2c4,0,7.9-0.1,11.9,0.1c0.9,1.8,1.7,3.8,3.3,5.1c0.8-1.7,1.6-3.4,2.6-4.9c3.9-0.4,7.9-0.1,11.8-0.2
		c-2.4,5.8-6,11.1-8.8,16.7c3.3,5.8,6.7,11.6,9.6,17.6c-3.9,0-7.8,0.2-11.7-0.1c-1.7-1.9-2.2-4.6-4.2-6.3c-1.3,2-2.1,4.4-3.7,6.3
		c-3.9,0.3-7.8,0.1-11.7,0.1c3-6,6.3-11.8,9.6-17.6C54.7,201.3,51.2,196,48.6,190.2 M56.2,193.8c1.1,4.8,4.5,8.7,6.5,13.2
		c-2.6,4.6-5.4,9-7.5,13.9c3.2-1.3,3.8-5.3,5.6-7.9c1-1.2,1.3-4,3.2-3.8c2.1,3.6,4.1,7.3,6,11.1c0.5,0.1,1.3,0.2,1.8,0.3
		c-2.4-4.5-5-8.9-7.4-13.5c1.6-4.6,4.9-8.4,6.5-13.1c-0.4,0.2-1.1,0.6-1.5,0.7c-2.3,3.2-3.8,6.9-5.7,10.3
		C60.5,201.8,59.9,196.6,56.2,193.8z"/>
	<path d="M79.7,190.4c6.9-0.3,13.8-0.3,20.7,0c-0.1,2.9-0.1,5.9-0.1,8.8c-3.2,0-6.4-0.1-9.5,0.2c0,0.9,0.1,2.5,0.1,3.4
		c3,0.3,6,0.3,8.9,0.3c0.1,2.8,0.4,5.7,0,8.5c-3-0.1-5.9-0.1-8.9,0c0,0.9-0.1,2.8-0.1,3.8c3.3,0.2,6.5,0.1,9.8,0.1c0,3,0,6,0,9
		c-7,0-13.9,0.1-20.9,0C79.9,213.2,79.8,201.8,79.7,190.4 M85,194.3c-0.4,8.7-0.1,17.4-0.2,26.1c3.9,0.2,7.8,0.1,11.8,0.1l0.1-1.4
		c-3.4,0-6.9,0.2-10.3-0.3c0.1-3.5,0.1-7.1,0-10.6c3.1-0.1,6.3-0.1,9.4-0.1l0.2-1.5c-3.2,0-6.4,0-9.6-0.1c0-3.6,0-7.2,0.1-10.8
		c3.4-0.1,6.8,0,10.1,0c0-0.3,0.1-1,0.1-1.4C92.8,194.2,88.9,194.2,85,194.3z"/>
	<path d="M104.3,190.2c3.8,0,7.6,0,11.3,0c0,8.4,0,16.8,0,25.2c3.2,0.1,6.4,0,9.7,0.1c0,3,0,6,0,9c-7,0.1-14,0-20.9,0.1
		C104.2,213.1,104.4,201.7,104.3,190.2 M109.5,193.9c-0.3,8.9-0.1,17.7-0.1,26.6c4.4,0,8.8,0.2,13.2-0.1c0-0.2,0.1-0.6,0.1-0.9
		c-3.7-0.9-7.7,0.2-11.4-0.7c-1.1-7.9,0.2-16.2-0.6-24.2C110.3,194.4,109.7,194.1,109.5,193.9z"/>
	<path d="M126.4,190.4c11-0.3,22,0,33-0.1c1.9,4.9,3.7,9.9,5.8,14.8c1.9-4.9,3.9-9.7,5.7-14.7c4-0.2,8.1-0.1,12.1-0.1
		c-4.4,11.4-8.9,22.9-13.4,34.3c-3,0-5.9,0-8.9,0c-3.7-9.5-7.4-18.9-11.1-28.4c-0.8-1.9-1.3-4-2.8-5.5c-0.2,2.9-0.1,5.8-0.2,8.7
		c-3.1-0.1-6.2-0.1-9.2,0c0.1,1,0.1,2.8,0.2,3.8c3,0,6,0,9,0c0,2.8,0,5.6,0,8.4c-3,0-6.1,0-9.1,0c0,1,0,3,0,3.9c3.1,0,6.2,0,9.4-0.1
		c0.5,3,0.4,6,0.4,9c-6.9,0.1-13.8,0-20.7,0C126.4,213.1,126.6,201.8,126.4,190.4 M131.5,194.4c0.1,8.7,0,17.3,0,26
		c4.1,0,8.3,0.2,12.4-0.2c-2.9-2.2-7.1-0.6-10.5-0.9c-0.4-3.7-0.2-7.5-0.3-11.2c3.4,0,6.8,0.2,10.1-0.5c-2.6-2.3-6.9-0.4-10.1-1
		c0-3.7,0-7.4,0-11c3.2,0,6.5,0,9.7,0.1c0-0.3,0.1-1,0.1-1.4C139.2,194.3,135.3,194.2,131.5,194.4 M154.3,194.1
		c3.2,9,6.9,17.9,10.4,26.8c1.9-1.4,2.3-3.8,3.2-5.8c2.6-7,5.6-13.9,8-21c-0.4,0.1-1.1,0.4-1.5,0.5c-3.5,7.4-5.9,15.4-9.3,22.9
		c-2.9-7-5.6-14.2-8.4-21.3C156.4,195,155.5,194.2,154.3,194.1z"/>
	<path d="M208.2,190.2c3,0.1,6.2-0.4,9.1,0.3c3.2,4.1,5.9,8.5,9.2,12.6c0.1-4.2,0.1-8.5,0-12.8c3.7-0.2,7.3-0.2,11,0
		c-0.2,11.4-0.1,22.8-0.1,34.2c-3.1,0-6.2,0.1-9.3-0.1c-3-4.3-5.8-8.7-9.2-12.6c-0.2,4.3,0,8.5-0.2,12.8c-3.5-0.1-7,0-10.5-0.1
		C208.3,213.1,208.2,201.7,208.2,190.2 M212.7,194.3c0.2,8.6-0.1,17.2,0.2,25.9c0.2,0.2,0.7,0.5,1,0.6l0.4-0.6
		c0.4-7.7,0-15.4,0.2-23c5.1,7.1,10.2,14.2,15.3,21.4c0.7,1.1,1.8,1.8,2.9,2.5c0.4-9,0.2-18,0.1-27c-0.3,0.1-1,0.4-1.3,0.5
		c-0.6,7.5,0,15.1-0.3,22.7c-5.8-7.3-10.8-15.3-16.6-22.7C214,194.5,213.1,194.3,212.7,194.3z"/>
	<path d="M183.6,190.3c6.8,0,13.7-0.1,20.5,0.1c0,3,0.3,6.1-0.6,9.1c-3-0.2-6-0.2-9,0c0.1,0.9,0.2,2.8,0.2,3.7c3,0,5.9,0,8.9,0
		c0.1,2.8,0.1,5.7,0,8.5c-3,0-6,0-9,0c0,1.3,0,2.6,0,3.9c3.2,0,6.5,0,9.7,0c0,3,0,6,0,9c-6.9,0.1-13.8,0.1-20.8,0
		C183.7,213.1,183.7,201.7,183.6,190.3 M188.7,194.5c0.2,8.6,0,17.3,0.1,26c4.1,0.1,8.2,0.2,12.3-0.1l-0.9-1.1
		c-3.3-0.3-6.6,0-9.8-0.4c0-3.6,0-7.2,0-10.7c3.1-0.1,6.2,0.3,9.2-0.3l0.8-1.2c-3.3-0.1-6.6-0.1-9.9-0.1c0-3.7-0.1-7.3,0.1-11
		c3.2,0,6.5,0.3,9.7-0.1c0.2-0.3,0.6-0.8,0.8-1.1C196.9,194.2,192.8,194.1,188.7,194.5z"/>
</g>
<g id="_x23_cdcdcdff">
	<path class="st238" d="M16.6,200.5c-1.4-5.1,6.4-8.6,9.5-5c-2,0.2-4,0.2-5.9,0.8c-2,0.6-2.4,3.1-1.7,4.8c2.4,4,6.8,6.3,9.1,10.3
		c1.3,2.3,1,5.5-1.1,7.2c-3,2.9-7.6,2.2-11.3,1.3c2.5-2.6,6.8,0.3,9.6-1.9c1.7-1,2-3.2,1.7-5C24.5,207.9,18.4,205.8,16.6,200.5z"/>
	<path class="st238" d="M40.5,194.3l1.7,0.2c0,8.6,0,17.3,0,25.9l-1.7,0.1C40.5,211.7,40.5,203,40.5,194.3z"/>
</g>
<g id="_x23_fafafaff">
	<path class="st239" d="M56.2,193.8c3.7,2.8,4.3,8,7.6,11.3c1.9-3.4,3.5-7.1,5.7-10.3c0.4-0.2,1.1-0.6,1.5-0.7
		c-1.7,4.6-5,8.4-6.5,13.1c2.3,4.6,5,8.9,7.4,13.5c-0.5-0.1-1.4-0.2-1.8-0.3c-1.9-3.7-3.9-7.4-6-11.1c-1.9-0.1-2.1,2.6-3.2,3.8
		c-1.8,2.6-2.4,6.6-5.6,7.9c2.1-4.8,4.9-9.3,7.5-13.9C60.8,202.4,57.3,198.6,56.2,193.8z"/>
</g>
<g id="_x23_c8c8c8ff">
	<path class="st240" d="M212.7,194.3c0.5,0.1,1.4,0.2,1.8,0.3c5.7,7.4,10.7,15.4,16.6,22.7c0.3-7.6-0.3-15.2,0.3-22.7
		c0.3-0.1,1-0.4,1.3-0.5c0.1,9,0.3,18-0.1,27c-1.1-0.6-2.2-1.4-2.9-2.5c-5.1-7.1-10.1-14.3-15.3-21.4c-0.2,7.7,0.2,15.4-0.2,23
		l-0.4,0.6c-0.2-0.1-0.7-0.5-1-0.6C212.6,211.5,212.9,202.9,212.7,194.3z"/>
</g>
</svg>
