<?xml version="1.0" encoding="UTF-8" ?>
<!DOCTYPE svg PUBLIC "-//W3C//DTD SVG 1.1//EN" "http://www.w3.org/Graphics/SVG/1.1/DTD/svg11.dtd">
<svg width="250pt" height="250pt" viewBox="0 0 250 250" version="1.1" xmlns="http://www.w3.org/2000/svg">
<g id="#ffffffff">
<path fill="#ffffff" opacity="1.00" d=" M 0.00 0.00 L 250.00 0.00 L 250.00 250.00 L 0.00 250.00 L 0.00 0.00 M 119.58 47.52 C 96.76 59.77 73.88 71.90 51.06 84.12 C 48.89 85.20 49.85 88.04 49.53 89.98 C 49.86 92.47 48.56 96.21 51.44 97.52 C 66.76 105.56 81.90 113.95 97.30 121.85 C 99.95 123.66 102.62 121.02 104.96 119.91 C 109.84 116.78 115.47 114.92 120.04 111.29 C 107.73 104.18 94.75 98.28 82.61 90.91 C 85.40 88.43 88.80 86.85 92.05 85.09 C 103.07 79.37 113.95 73.37 125.01 67.74 C 139.42 75.22 153.82 82.77 167.95 90.76 C 135.96 108.28 103.53 124.97 71.51 142.44 C 64.26 146.61 56.47 149.82 49.44 154.36 C 49.38 158.12 49.36 161.88 49.44 165.63 C 74.69 178.93 99.80 192.49 125.02 205.84 C 149.59 192.86 174.02 179.60 198.59 166.60 C 199.73 166.12 200.30 165.25 200.30 164.01 C 200.64 160.72 200.40 157.41 200.15 154.12 C 192.13 149.20 183.48 145.42 175.34 140.70 C 167.15 136.47 159.15 131.89 150.89 127.80 C 143.63 131.06 136.73 135.10 129.82 139.00 C 142.28 146.36 155.39 152.61 167.95 159.81 C 153.72 167.65 139.45 175.45 124.97 182.84 C 110.55 175.38 96.26 167.65 82.01 159.86 C 120.41 138.89 159.24 118.69 197.71 97.85 C 198.80 97.18 200.41 96.56 200.27 94.98 C 200.55 91.71 200.60 88.39 200.10 85.13 C 197.90 83.07 194.94 82.11 192.36 80.64 C 172.31 70.07 152.47 59.11 132.37 48.62 C 129.96 47.44 127.75 45.69 125.09 45.13 C 123.12 45.58 121.35 46.60 119.58 47.52 Z" />
</g>
<g id="#63c3d1ff">
<path fill="#63c3d1" opacity="1.00" d=" M 119.58 47.52 C 121.35 46.60 123.12 45.58 125.09 45.13 C 127.75 45.69 129.96 47.44 132.37 48.62 C 152.47 59.11 172.31 70.07 192.36 80.64 C 194.94 82.11 197.90 83.07 200.10 85.13 C 200.60 88.39 200.55 91.71 200.27 94.98 C 200.41 96.56 198.80 97.18 197.71 97.85 C 159.24 118.69 120.41 138.89 82.01 159.86 C 96.26 167.65 110.55 175.38 124.97 182.84 C 139.45 175.45 153.72 167.65 167.95 159.81 C 155.39 152.61 142.28 146.36 129.82 139.00 C 136.73 135.10 143.63 131.06 150.89 127.80 C 159.15 131.89 167.15 136.47 175.34 140.70 C 183.48 145.42 192.13 149.20 200.15 154.12 C 200.40 157.41 200.64 160.72 200.30 164.01 C 200.30 165.25 199.73 166.12 198.59 166.60 C 174.02 179.60 149.59 192.86 125.02 205.84 C 99.80 192.49 74.69 178.93 49.44 165.63 C 49.36 161.88 49.38 158.12 49.44 154.36 C 56.47 149.82 64.26 146.61 71.51 142.44 C 103.53 124.97 135.96 108.28 167.95 90.76 C 153.82 82.77 139.42 75.22 125.01 67.74 C 113.95 73.37 103.07 79.37 92.05 85.09 C 88.80 86.85 85.40 88.43 82.61 90.91 C 94.75 98.28 107.73 104.18 120.04 111.29 C 115.47 114.92 109.84 116.78 104.96 119.91 C 102.62 121.02 99.95 123.66 97.30 121.85 C 81.90 113.95 66.76 105.56 51.44 97.52 C 48.56 96.21 49.86 92.47 49.53 89.98 C 49.85 88.04 48.89 85.20 51.06 84.12 C 73.88 71.90 96.76 59.77 119.58 47.52 Z" />
</g>
</svg>
