<svg id="Layer_1" data-name="Layer 1" xmlns="http://www.w3.org/2000/svg" viewBox="0 0 250 250"><defs><style>.cls-1{fill:#fe9b00;}.cls-2{fill:#191c31;}.cls-3{fill:#ff9c00;}</style></defs><path class="cls-1" d="M250,125A124.93,124.93,0,0,1,125,250C55.39,250,0,193.37,0,124.94A125,125,0,0,1,250,125Z" transform="translate(0)"/><path class="cls-2" d="M221.09,140.54c-.21-.42,0-.77,0-1.11a14.24,14.24,0,0,0-11.17-15.52,14,14,0,0,0-12.46,3.41C193.08,131,188.94,135,184.85,139q-7.48,7.35-14.67,15a29.57,29.57,0,0,1-12,8,26.52,26.52,0,0,1-32.71-14.84c-.6-1.49-.55-1.79.64-2.82,2.77-2.43,5.59-4.81,8.36-7.24.08-.09.17-.13.25-.22.34-.21.6-.72,1-.51s.17.68.21,1a14.15,14.15,0,0,0,12.24,13.31,14.41,14.41,0,0,0,15.6-9.68c2.43-7.68-1.62-15.31-9.46-17.82a13,13,0,0,0-12.92,2.64c-3.11,2.56-6.1,5.24-9.13,7.93-2,1.79-4,3.62-6,5.37a4.47,4.47,0,0,0-1.49,2.6,26,26,0,0,1-13.52,18.42,25.08,25.08,0,0,1-15,3A26.22,26.22,0,0,1,81,156.58a25.65,25.65,0,0,1-6.83-9.6,2.83,2.83,0,0,1-.21-.55,1.48,1.48,0,0,1,.47-1.84c1-.81,1.92-1.62,2.9-2.43,2-1.75,4-3.49,6.05-5.2.35-.3.69-.81,1.11-.64s.26.77.3,1.19A14.47,14.47,0,0,0,96.15,151.2a14.26,14.26,0,0,0,16.72-10.15A14.52,14.52,0,0,0,98.24,122.8a13,13,0,0,0-8.06,3.12c-2.77,2.3-5.5,4.69-8.18,7.08s-5.5,4.9-8.28,7.33a3.15,3.15,0,0,0-1.15,2.51v18.51c0,1.75-.25,2-2,2a11.48,11.48,0,0,1-8.66-4c-.85-1-1-1-2.17-.34a25.63,25.63,0,0,1-13.52,3.45c-9.89-.34-17.44-4.82-22.55-13.3a25.09,25.09,0,0,1-3.59-13.27,26.19,26.19,0,0,1,6.1-16.75A24.64,24.64,0,0,1,41.57,110c8.36-1.32,16,.22,22.48,6.06a30.08,30.08,0,0,1,5.28,6.35,2.36,2.36,0,0,0,1,1.11,2.15,2.15,0,0,0,1-1.88c0-4.22,0-8.44,0-12.7q0-14.4,0-28.74c0-1.88.22-2.09,2.14-2.09A11.5,11.5,0,0,1,84.85,88.35,15.57,15.57,0,0,1,85,90.4v22.38c0,1,.26,1.15,1.2.69A26.71,26.71,0,0,1,95,110.61a26,26,0,0,1,20.51,5.63,25.63,25.63,0,0,1,5.24,5.71,3.3,3.3,0,0,0,.3.43c.3.42.56.89,1.11,1,.3,0,1.15-1.07,1.2-1.54a11.27,11.27,0,0,0,.08-1.74v-30a11.7,11.7,0,0,1,9.94-12,8.23,8.23,0,0,1,2-.22,1.4,1.4,0,0,1,1.5,1.24,8.79,8.79,0,0,1,.17,2V112.7c.08.55.25.72.81.51.72-.3,1.45-.64,2.17-.94a26.29,26.29,0,0,1,29.12,6.31,28,28,0,0,1,5.72,9.26l.25.76c.43,1.11.56,1.15,1.45.34l12-10.61A26.9,26.9,0,0,1,200.49,112a26.59,26.59,0,0,1,30.83,16.16,2.42,2.42,0,0,1-.59,2.94c-2.95,2.9-5.8,5.84-8.74,8.78A2.7,2.7,0,0,1,221.09,140.54Z" transform="translate(0)"/><path class="cls-2" d="M209.53,152.1a1,1,0,0,1-.46.81c-3.12,3.11-6.23,6.22-9.3,9.38a1.8,1.8,0,0,1-2.09.47,26.13,26.13,0,0,1-15.56-14.88c-.47-1.07-.39-1.41.47-2.14,3-2.64,6.09-5.28,9.12-7.88a1.34,1.34,0,0,1,.73-.43c.29.3.21.68.25,1a17.13,17.13,0,0,0,1.49,5.8,13.86,13.86,0,0,0,9.81,7.63,10.59,10.59,0,0,0,2.86.26C207.7,152.06,208.6,152.1,209.53,152.1Z" transform="translate(0)"/><path class="cls-3" d="M60.93,136.24c.22,7.59-6.27,14.19-14.15,14.28a14.35,14.35,0,0,1,0-28.7A14,14,0,0,1,60.93,136.24Z" transform="translate(0)"/></svg>