<?xml version="1.0" encoding="utf-8"?>
<!-- Generator: Adobe Illustrator 26.0.3, SVG Export Plug-In . SVG Version: 6.00 Build 0)  -->
<svg version="1.1" id="Layer_1" xmlns="http://www.w3.org/2000/svg" xmlns:xlink="http://www.w3.org/1999/xlink" x="0px" y="0px"
	 viewBox="0 0 250 250" style="enable-background:new 0 0 250 250;" xml:space="preserve">
<style type="text/css">
	.st0{fill:#FFFFFF;}
	.st1{fill:#F0B90B;}
</style>
<g id="_x23_ffffffff">
	<path class="st0" d="M73.5,91.5c17.2-17.1,34.3-34.3,51.5-51.4c6.4,6.3,12.6,12.7,19,18.9c0.8,0.8,1.9,1.6,1.6,2.9
		c-17.3,17.4-34.8,34.6-52,52.1c-0.9-0.1-1.7-0.5-2.4-1.2c-6.4-6.4-12.7-12.9-19.3-19.1C72.4,92.9,72.9,92.2,73.5,91.5z"/>
	<path class="st0" d="M156.4,72.3l0.6-0.1c7.2,6.7,14,13.9,21,20.8c-28.4,28.3-56.6,56.7-85,85c-7-7-14-14.1-21.1-21
		c0.3-0.4,1.1-1.2,1.4-1.6C101.1,127.7,128.7,100,156.4,72.3z"/>
	<path class="st0" d="M40.1,125c6.9-7.1,14-14,20.9-21c7.6,6.5,14.3,14.1,21.5,21c-6.8,6.9-13.7,13.8-20.6,20.6
		c-0.3,0-1-0.1-1.3-0.1C53.7,138.7,46.9,131.9,40.1,125z"/>
	<path class="st0" d="M187.3,105.2c0.6-1,2-1.2,2.7-0.2c6.6,6.7,13.4,13.3,20,20c-28.3,28.4-56.7,56.7-85,85
		c-6.9-6.8-13.7-13.7-20.5-20.5c-0.8-1.7,1.4-2.6,2.3-3.8C133.6,158.9,160.4,132.1,187.3,105.2z"/>
</g>
<g id="_x23_f0b90bff">
	<path class="st1" d="M121.3,0h7.4c27.7,0.9,55,11.1,76.3,28.9c27.4,22.4,44,57.1,45,92.4v7.3c-0.9,27.7-11.1,55.1-28.9,76.4
		c-22.4,27.3-57.1,44-92.4,45h-10c-28.2-1.7-55.8-12.8-76.9-31.7C16.3,195.8,0.9,162.5,0,128.6v-10c1.9-33.1,17.1-65.5,42.2-87.3
		C63.9,12.1,92.4,0.9,121.3,0 M73.5,91.5c-0.6,0.7-1.1,1.4-1.5,2.2c6.6,6.2,12.9,12.7,19.3,19.1c0.7,0.7,1.5,1.1,2.4,1.2
		c17.2-17.5,34.7-34.7,52-52.1c0.3-1.3-0.9-2.1-1.6-2.9c-6.4-6.3-12.6-12.7-19-18.9C107.8,57.2,90.7,74.4,73.5,91.5 M156.4,72.3
		c-27.7,27.7-55.4,55.4-83.1,83c-0.3,0.4-1.1,1.2-1.4,1.6c7.1,7,14,14,21.1,21c28.4-28.3,56.6-56.7,85-85c-7-7-13.8-14.1-21-20.8
		L156.4,72.3 M40.1,125c6.8,6.9,13.6,13.7,20.5,20.5c0.3,0,1,0.1,1.3,0.1c6.9-6.9,13.8-13.8,20.6-20.6c-7.2-6.9-13.9-14.6-21.5-21
		C54.1,111,47,117.9,40.1,125 M187.3,105.2c-26.8,26.9-53.6,53.7-80.5,80.5c-0.9,1.2-3.1,2-2.3,3.8c6.8,6.9,13.6,13.7,20.5,20.5
		c28.4-28.3,56.7-56.7,85-85c-6.6-6.7-13.4-13.3-20-20C189.3,103.9,187.8,104.2,187.3,105.2z"/>
</g>
</svg>
