<?xml version="1.0" encoding="utf-8"?>
<!-- Generator: Adobe Illustrator 26.0.3, SVG Export Plug-In . SVG Version: 6.00 Build 0)  -->
<svg version="1.1" id="Layer_1" xmlns="http://www.w3.org/2000/svg" xmlns:xlink="http://www.w3.org/1999/xlink" x="0px" y="0px"
	 viewBox="0 0 250 250" style="enable-background:new 0 0 250 250;" xml:space="preserve">
<style type="text/css">
	.st0{fill:#DAE0E0;}
	.st1{fill:#B6BAB8;}
	.st2{fill:#C30909;}
	.st3{fill:#B00D0E;}
	.st4{fill:#902224;}
	.st5{fill:#D7DBDB;}
	.st6{fill:#E8ECEC;}
	.st7{fill:#E8D8D7;}
	.st8{fill:#D9D8D8;}
	.st9{fill:#B39493;}
	.st10{fill:#DEE0E0;}
	.st11{fill:#C6BBBA;}
	.st12{fill:#CAC0C0;}
	.st13{fill:#C40404;}
	.st14{fill:#BE9E9D;}
	.st15{fill:#F5E2E1;}
	.st16{fill:#DFE1E0;}
	.st17{fill:#C8C4C3;}
	.st18{fill:#EEE0E0;}
	.st19{fill:#A70B0C;}
	.st20{fill:#CDCDCD;}
	.st21{fill:#BE0808;}
	.st22{fill:#A7ADAC;}
	.st23{fill:#D6CFD0;}
	.st24{fill:#DDDDDD;}
	.st25{fill:#D0CCCB;}
	.st26{fill:#CDCAC9;}
	.st27{fill:#BB7878;}
	.st28{fill:#A49493;}
	.st29{fill:#BFBFBE;}
	.st30{fill:#F2F5F5;}
	.st31{fill:#CB0B0C;}
	.st32{fill:#A5A4A3;}
	.st33{fill:#B96B6B;}
	.st34{fill:#9F1A1C;}
	.st35{fill:#AE0F10;}
	.st36{fill:#D4DBDB;}
	.st37{fill:#9A8C8B;}
	.st38{fill:#902325;}
	.st39{fill:#BF0A0A;}
	.st40{fill:#CE0504;}
	.st41{fill:#B41415;}
	.st42{fill:#B6ADAC;}
	.st43{fill:#CEC9C9;}
	.st44{fill:#DE1207;}
	.st45{fill:#812629;}
	.st46{fill:#EB210E;}
	.st47{fill:#A9A6A4;}
	.st48{fill:#D6CECE;}
	.st49{fill:#F52D10;}
	.st50{fill:#D47E7D;}
	.st51{fill:#A5AFAD;}
	.st52{fill:#FC3D15;}
	.st53{fill:#D9DCDB;}
	.st54{fill:#DFE2E1;}
	.st55{fill:#BB0C0C;}
	.st56{fill:#948181;}
	.st57{fill:#B49B9A;}
	.st58{fill:#AF1213;}
	.st59{fill:#E4DDDD;}
	.st60{fill:#F42C10;}
	.st61{fill:#F3F4F3;}
	.st62{fill:#D4D8D8;}
	.st63{fill:#8D8887;}
	.st64{fill:#F1E2E2;}
	.st65{fill:#E71E0E;}
	.st66{fill:#DC0F06;}
	.st67{fill:#CA0605;}
	.st68{fill:#939998;}
	.st69{fill:#DBC0BF;}
	.st70{fill:#A9A3A1;}
	.st71{fill:#EDDEDD;}
	.st72{fill:#A71011;}
	.st73{fill:#E7D1D1;}
	.st74{fill:#9FA5A4;}
	.st75{fill:#B1B8B7;}
	.st76{fill:#CB0605;}
	.st77{fill:#A81213;}
	.st78{fill:#B8BEBD;}
	.st79{fill:#ECD9D8;}
	.st80{fill:#9FA2A1;}
	.st81{fill:#B80A0A;}
	.st82{fill:#45393A;}
	.st83{fill:#E6D9D8;}
	.st84{fill:#EE250E;}
	.st85{fill:#B10F10;}
	.st86{fill:#D3C9C9;}
	.st87{fill:#979796;}
	.st88{fill:#E67E72;}
	.st89{fill:#D3D6D6;}
	.st90{fill:#4B3434;}
	.st91{fill:#D7C9C9;}
	.st92{fill:#A86161;}
	.st93{fill:#B4B4B4;}
	.st94{fill:#F32B10;}
	.st95{fill:#D78480;}
	.st96{fill:#882425;}
	.st97{fill:#F8F8F8;}
	.st98{fill:#EDEFEE;}
	.st99{fill:#CBCBCB;}
	.st100{fill:#ECEBEB;}
	.st101{fill:#F24829;}
	.st102{fill:#463233;}
	.st103{fill:#EFEDEC;}
	.st104{fill:#AF0F10;}
	.st105{fill:#A78C8B;}
	.st106{fill:#C5C0BF;}
	.st107{fill:#782E2D;}
	.st108{fill:#DD0F05;}
	.st109{fill:#D8D7D7;}
	.st110{fill:#E8E9E9;}
	.st111{fill:#443F40;}
	.st112{fill:#CCD5D4;}
	.st113{fill:#F7F7F6;}
	.st114{fill:#C80606;}
	.st115{fill:#852426;}
	.st116{fill:#958988;}
	.st117{fill:#8E6A6A;}
	.st118{fill:#D3C3C3;}
	.st119{fill:#922F30;}
	.st120{fill:#F5F7F7;}
	.st121{fill:#8A2725;}
	.st122{fill:#4E4445;}
	.st123{fill:#CFD0CF;}
	.st124{fill:#B7090A;}
	.st125{fill:#ADA2A2;}
	.st126{fill:#732E21;}
	.st127{fill:#513636;}
	.st128{fill:#D3D5D5;}
	.st129{fill:#E81F0E;}
	.st130{fill:#8C6464;}
	.st131{fill:#403637;}
	.st132{fill:#DAE2E2;}
	.st133{fill:#E1200D;}
	.st134{fill:#584C4C;}
	.st135{fill:#EDF3F3;}
	.st136{fill:#CD0606;}
	.st137{fill:#A51618;}
	.st138{fill:#D7D7D6;}
	.st139{fill:#D1605F;}
	.st140{fill:#412628;}
	.st141{fill:#EAC9C8;}
	.st142{fill:#6E6566;}
	.st143{fill:#6B2626;}
	.st144{fill:#9A9C9A;}
	.st145{fill:#AE0D0E;}
	.st146{fill:#F9FAFA;}
	.st147{fill:#B80C0C;}
	.st148{fill:#F1F2F1;}
	.st149{fill:#CED0CF;}
	.st150{fill:#9DA4A2;}
	.st151{fill:#A9A5A3;}
	.st152{fill:#D4B7B7;}
	.st153{fill:#AC1011;}
	.st154{fill:#B44B49;}
	.st155{fill:#9A8787;}
	.st156{fill:#AA1213;}
	.st157{fill:#9E1A1C;}
	.st158{fill:#CFD0D0;}
	.st159{fill:#F8F0F0;}
	.st160{fill:#A2A09E;}
	.st161{fill:#8B2123;}
	.st162{fill:#902425;}
	.st163{fill:#F5F1F1;}
	.st164{fill:#C97373;}
	.st165{fill:#A9AEAC;}
	.st166{fill:#E9E8E7;}
	.st167{fill:#AC1415;}
	.st168{fill:#C04032;}
	.st169{fill:#D3D7D6;}
	.st170{fill:#D7D3D2;}
	.st171{fill:#AFB7B6;}
	.st172{fill:#C6C4C3;}
	.st173{fill:#8D1F22;}
	.st174{fill:#B6BCBA;}
	.st175{fill:#C9C9C8;}
	.st176{fill:#AFB3B1;}
	.st177{fill:#AA0F10;}
	.st178{fill:#CDC9C8;}
	.st179{fill:#9CA3A2;}
	.st180{fill:#DCDEDE;}
	.st181{fill:#CFBAB9;}
	.st182{fill:#9A9695;}
	.st183{fill:#D7DFDF;}
	.st184{fill:#A8A9A7;}
	.st185{fill:#892325;}
	.st186{fill:#DFDBDB;}
	.st187{fill:#8F9190;}
	.st188{fill:#8B6E6E;}
	.st189{fill:#CDBFBE;}
	.st190{fill:#AE1112;}
	.st191{fill:#E5CECE;}
	.st192{fill:#A19695;}
	.st193{fill:#F0F0EF;}
	.st194{fill:#AE6565;}
	.st195{fill:#C6B2B2;}
	.st196{fill:#BDADAD;}
	.st197{fill:#9B1B1D;}
	.st198{fill:#868483;}
	.st199{fill:#AB0D0F;}
	.st200{fill:#875555;}
	.st201{fill:#EAEBEB;}
	.st202{fill:#CCCECD;}
	.st203{fill:#A9A8A6;}
</style>
<g id="_x23_dae0e0ff">
	<path class="st0" d="M109.9,0h32.5c3,2.2,6,4.3,9.1,6.4c-5.9-1.1-12-2-18-1.2C127.4,3.4,121,4,114.8,5c-3.8,0.7-7.6-0.5-11.3-1.3
		c-3.5-0.8-7-0.2-10.4,0.4C98.5,2.2,104.3,1.6,109.9,0z"/>
</g>
<g id="_x23_b6bab8ff">
	<path class="st1" d="M93.1,4.1c3.4-0.7,7-1.2,10.4-0.4c3.7,0.8,7.5,2,11.3,1.3c6.2-1,12.6-1.6,18.7,0.2l-0.9,0.1
		c-3.5,0.3-7.1,0.3-10.6,0.3c-7.4,0.3-15-0.7-22.2,1.8c-7.3,0.2-13.7,3.6-20.3,6.1c-8,3.3-15.6,7.7-23,12.1
		c-5.5,4.8-11.6,8.9-16.8,14c-11.2,12.8-21.1,27.1-27,43.1c-1.5,4.1-3.4,8.1-4.4,12.4c-1.1,6.9-3,13.8-2.6,20.8
		c0.4,9.5-0.8,19.3,1.4,28.7c0.8,3.8,1,7.8,1.8,11.7c-3.2-8.5-3.7-17.8-4-26.8c-0.7-0.2-2.2-0.6-2.9-0.8c0.2-7.3-0.3-14.7-0.2-22
		c0.9-7.6,3.7-14.9,5.3-22.4c1.3-6,4.4-11.4,7.3-16.8c3.2-6.8,7.8-13,12-19.2c5.6-7,12.1-13.1,18.6-19.3c4.5-4.4,10.4-6.9,15.3-10.6
		C70,11.1,81.7,7.5,93.1,4.1z"/>
</g>
<g id="_x23_c30909ff">
	<path class="st2" d="M99.8,7.4C107,4.9,114.6,6,122,5.6c1,0.8,1.9,1.7,2.9,2.5c-1.3,0.1-2.7,0.2-4,0.3c-2.6,0.3-5.1,0.9-7.6,1.6
		c0,3.3-0.1,6.6,0,9.9c3.3,0.9,6.8,0.5,10-0.5c0.6-2.2,1.2-4.4,1.8-6.5c0.4,2.9,0.6,5.8,1.4,8.5c4,1.8,9.1,2.9,12.5-0.6
		c0.1,0.9,0.2,1.9,0.4,2.8c-3.6,0.1-7.2,0.4-10.8,0.9c4.8,0.4,9.6,0.3,14.3,1.4c-10.7-0.8-21.5,0.1-32.2-0.3
		c-3.9,0.2-7.5,1.9-11.1,3.3c-5.9,0.6-11.3,2.9-16.6,5.6c-4.7,2.6-10.1,4-14.3,7.4C60.4,48.2,52.6,55.7,46,64
		c-2.8,3.5-5.9,6.9-7.7,11.1c-3.1,7.2-7.4,14.1-9,21.8c-1.3,6.6-4.3,13-3.9,19.8c0.1,5.4-0.1,10.8,0,16.2c0,5.1,1.8,9.9,3.1,14.8
		c0.9,6.2,3.8,11.8,6.3,17.4c2.4,4.5,4.1,9.5,7.1,13.7c6.4,8.3,13,16.5,21.4,22.8c4.6,3.3,8.7,7.5,14,9.8c6.2,2.5,12.2,5.4,18.4,7.7
		c6.8,2.5,14.2,2.7,21.4,3.9c0.3,1.1,0.5,2.2,0.8,3.4c-3,0.1-6.5-1.4-9.2,0.4c-0.8,0.9-1.6,1.8-2.4,2.7c-0.2-1.5-0.4-2.9-0.6-4.4
		c-1.3-0.4-2.5-0.7-3.8-1.1l-0.1,1.1c-0.3,2.7-0.5,5.4-1,8.1c-1.2,0.2-2.3,0.3-3.5,0.5c-1.5-3.2-0.2-6.5,0.6-9.7c-1,0.4-2,0.8-3,1.2
		c-1.1-1-2.2-2-3.3-2.9c-2.7-1.8-5.9-2.3-9.1-2c-1.1,0.6-2.2,1.3-3.3,1.9c-0.1-2.2-0.3-4.4-0.4-6.6c-1.5,0-2.9,0-4.4,0
		c-0.9,1.7-1.8,3.4-3.2,4.8c-0.2-0.6-0.4-2-0.6-2.6c0.3-2,0.7-4.1,0.7-6.1c-2.4,2.3-4,5.3-5.6,8.2c-0.6-1.1-1.1-2.3-1.7-3.4
		c0.6-2.4,1.2-4.7,1.8-7.1c-0.5,0-1.5-0.2-2-0.2c-0.8-0.1-1.6-0.2-2.5-0.3c-1-2.1-1.2-5-3.5-6.1c-2.1-1.2-4.5-0.5-6.7,0.1
		c-1.1,0.4-2.2,0.8-3.2,1.2c0.1-1.3,0.1-2.7,0.2-4c1.4-1.6,2.6-3.3,2.8-5.5c-2.9,1.3-5.5,3.2-8.1,5c-0.3-1.4-0.7-2.7-1-4.1
		c1.8-1.4,3.7-2.6,5.6-3.9c-1.7-1.8-3.5-3.5-5.2-5.3c-1.3-1.4-2.5-3-3.7-4.5c-1.7-2.4-4.4-1.6-6.5-0.2c-1.1,0.8-2.1,1.6-3.1,2.5
		c-1.8,3.1-0.4,6.7-1.1,10c-2.1-2.5-3.8-5.4-5.3-8.3l-0.4-0.8c1-1.1,2.1-2.2,3.2-3.2c2.3-1.7,4.4-3.6,6.5-5.4c0.5,0,1.4-0.1,1.8-0.1
		c0.1-0.6,0.3-1.8,0.4-2.4c-3.1,0.2-6.2,0.4-9.3,0.7c-0.4-0.4-1.2-1.3-1.6-1.8c2.7-1,5.4-2.1,8-3.3c-0.2-0.8-0.4-1.6-0.7-2.4
		c-2.6-0.4-5.1-0.1-7.7,0.1c1.2-1.2,2.4-2.5,3.6-3.7c0.6-0.6,1.2-1.2,1.9-1.8c-0.8-0.2-2.3-0.7-3.1-0.9c-0.6-0.1-1.9-0.4-2.5-0.6
		c4.2-3,3.5-8.8,0.3-12.2c-2.2-0.2-4.4-0.4-6.6-0.6c-0.1-0.6-0.2-1.9-0.3-2.5c2.2-0.2,4.4-0.4,6.6-0.6c0.3-1.3,0.5-2.6,0.7-3.8
		c-2.9,0-5.8,0.1-8.6,0.7c-0.2-1.3-0.4-2.7-0.6-4c2.8-0.5,5.7-0.7,8.6-1.1c-0.5-1-1-2.1-1.5-3.1c-0.3-0.6-0.6-1.2-0.9-1.8
		c1.3-3.9,1.9-8.5-1.5-11.6c-2.1-0.3-4.3-0.6-6.5-0.2c-1.3,1.1-2.4,2.5-3.5,3.8c-0.5,0-1.4,0-1.9,0c-0.3-8.6-0.2-17.4,2.8-25.6
		c0.3,4.2,0,8.3-0.4,12.5c4.6,0.2,9.3-0.1,13.8-0.8c-0.1-1.3-0.3-2.7-0.4-4c-2.8,0-5.6-0.1-8.4,0c0.3-1.3,0.5-2.6,0.8-3.9
		c3,0.1,6,0,8.9-0.9c-1.9-0.9-3.8-1.7-5.7-2.3c-0.4-0.8-0.8-1.7-1.2-2.5c2.6-0.1,5.3-0.1,7.9-0.2c0.4-3.2,2.3-7.2-0.9-9.6
		c-1.2-1.5-2.4-3.1-3.3-4.8c3,0,6,0.4,9.1,0.7c-1.2-3-4.2-4.4-7-5.6c2.1-0.6,4.3-1.3,6.5-1.5c1.3,0.3,2.6,0.5,3.9,0.8
		c-1.7-2.7-4.3-4.6-7-6.2c2.1-0.2,4.2-0.4,6.3-0.6c1.5,0.3,3,0.6,4.6,0.8c-1.1-1.4-2.3-2.8-3.5-4.1c1-0.2,1.9-0.4,2.9-0.7
		c4.8-0.5,7.7-5.5,6-10c-0.9-0.5-1.8-0.9-2.7-1.3c-0.2-1.2-0.4-2.5-0.6-3.8c1.2-0.1,2.4-0.2,3.5-0.2c1.8,1.8,3.6,3.5,5.4,5.3
		c0.7-0.7,1.5-1.5,2.2-2.2c-2.4-2.4-4.8-4.8-7.2-7.2c1.8-0.2,3.6-0.2,5.4-0.3c1.9,1.3,3.7,2.7,5.6,4c-0.2-1.4-0.3-2.7-0.5-4.1
		c1.7-0.4,3.4-0.9,5.1-1.4c1.9-1.1,3.9-2.2,5-4.2c0.3-1.5-0.6-3-1.1-4.5c-0.4-0.9-0.7-1.9-1-2.8c1.3,0.2,2.7,0.3,4,0.5
		c1.2,1.7,2.4,3.3,3.7,4.9c1-2.7,0.3-5.5-1.2-7.9c0.4-0.3,1.1-0.9,1.5-1.2c1.3,0.8,2.7,1.6,4,2.5c0.3,0.6,0.9,1.8,1.2,2.4
		c0.7-0.2,2-0.5,2.7-0.7c-0.7-1.5-1.5-2.9-2.2-4.3c-0.2-1.5-0.3-3-0.5-4.5c2.1,1.6,4.1,3.4,6.3,4.8c0.5,0.3,1.6,0.8,2.1,1.1
		c-0.5-2.4-1-4.8-1.4-7.3c0.4,0.2,1.1,0.7,1.4,1c1.5,0.9,2.9,2,4.5,2.7c2.4,0.1,4.8-0.6,7.2-0.9c0.3-3.3-0.3-6.6-1.4-9.7
		c-2.4-0.4-4.9-0.9-7.3-1.5C90.6,10.8,95.3,9.1,99.8,7.4 M104.1,11.6c1.6,3.6,3,7.3,3.7,11.1c0.4-0.1,1.2-0.3,1.6-0.4
		c0.2-4,0.1-8-0.1-12C107.5,10.7,105.8,11.1,104.1,11.6 M95.3,13.8c1.3,0.9,2.6,1.8,3.8,2.6c0.3,2.5,0.9,4.9,1.9,7.3
		c0.6-0.1,1.9-0.3,2.6-0.4c-1.5-3.7-2.2-7.6-2-11.6C99.2,11.5,96.6,11.4,95.3,13.8 M10.6,113.6c-0.1,1-0.3,2-0.5,3
		c3.7-1.2,7.4-0.6,11.2,0.1c0.2-1.2,0.4-2.3,0.7-3.5C18.2,113.2,14.4,113.3,10.6,113.6z"/>
</g>
<g id="_x23_b00d0eff">
	<path class="st3" d="M122,5.6c3.6,0,7.1,0.1,10.6-0.3c6.5,0.2,13.1,0.4,19.4,2.1c5.4,0.2,9.9,3.3,15,4.5c3.7,2.1,7.5,3.9,11.5,5.1
		c4.3,3,8.9,5.6,13.4,8.2c5.1,3.4,9.4,7.8,14.1,11.6c4.2,3.2,7.1,7.6,10.8,11.3c4.3,4.8,7.9,10.2,10.7,16c1.4,2.4,2.8,4.7,4.2,7
		c2.5,5.7,5,11.4,6.9,17.4c1.2,3.8,3,7.4,3.4,11.4c0.5,5.9,1.9,11.8,1.7,17.8c-1.2,8.1,0.4,17-3.7,24.4c-0.5-1.8-1.1-3.6-1.5-5.4
		c-3.8-0.8-8.3-2.7-11.6,0.1c-1.6,3.5,0.1,7.1,1.8,10.2c0.4,1,0.9,2.1,1.3,3.1c-2.1,0.1-4.2,0.3-6.2,0.6c0.6,0.9,1.2,1.7,1.9,2.6
		c1.7,1.1,3.5,2,5.3,3c-2.7,0.1-5.3,0.1-8,0.2c-0.3,0.4-0.8,1.1-1.1,1.5c0.8,1.4,1.7,2.8,2.5,4.2c-3.2,0.9-5.2,3.4-6.3,6.4
		c-0.8,1.4-1.6,2.8-2.4,4.1c-0.9-2.3-1.6-4.7-1.3-7.2c3.4-6.6,6.3-13.5,7.1-20.9c3.2-11.9,4.7-24.6,0.6-36.5
		c-1.1-4.2-1.4-8.6-2.7-12.7c-2.2-6.8-5.2-13.2-8.2-19.7C207.1,68,201.6,60.9,195,55c-5.6-6.1-11.9-11.6-19-15.9
		c-8.1-3-15.2-8.8-23.9-10.1c-3.2-0.6-6.1-2.2-9.2-3.2c-4.7-1.1-9.5-1-14.3-1.4c3.6-0.5,7.2-0.8,10.8-0.9c-0.1-0.9-0.3-1.9-0.4-2.8
		c-3.4,3.5-8.5,2.4-12.5,0.6c-0.9-2.8-1.1-5.7-1.4-8.5c-0.6,2.2-1.2,4.3-1.8,6.5c0.1-3.8,0.3-7.9-2.5-10.9c1.3-0.1,2.7-0.2,4-0.3
		C123.9,7.3,123,6.4,122,5.6 M126.2,9.4c1.9,3.6,0.5,8,2.7,11.4c0.4-0.2,1.3-0.7,1.7-0.9c0.4-3.5,0.4-7-0.1-10.5
		C129.3,8,127.6,9,126.2,9.4 M133.1,9.4c0,0.5,0.1,1.6,0.1,2.1c0.6,0.2,1.9,0.6,2.5,0.9c-0.9,3-1.4,6-1.4,9.1c0.6,0,1.9,0.1,2.5,0.1
		c1.5-3.6,2.2-7.5,2.2-11.4l-1.1,0.1l-0.1-0.8C136.3,9.5,134.7,9.5,133.1,9.4 M141.1,10.5c0.5,2.5,1.4,4.9,1.2,7.5
		c0,2.1-0.5,4.6,1.6,6c1.2-4,2.3-8.1,2.8-12.3C144.9,11.3,143,10.9,141.1,10.5 M148.2,23.5c3.1,0.3,6.9,3,9.6,0.5
		c1.1-2.9,3.5-6.9,0.6-9.5c-1.8-1.6-4.2-2.4-6.5-2.9C147.2,13.5,148.1,19.4,148.2,23.5 M162.6,15.2c-0.3,2.3,0.7,4.5,1,6.7
		c-0.6,2.1-1.3,4.1-1.5,6.3c3.3-2.4,4.2-6.7,6.1-10.2C166.3,17.1,164.4,16.2,162.6,15.2 M169.9,19.3c0.1,0.9,0.4,2.7,0.6,3.6
		c-0.3,2.8-3.8,6-0.4,8.2c1.9-3.2,3-6.9,5.6-9.6C174.4,19.6,172.1,19.4,169.9,19.3 M173.7,32c2.3,2,4.8,3.7,7.3,5.2
		c1.4-1.5,2.8-2.9,4.1-4.4l0.8,0c-0.1-2.4-0.2-4.9-0.3-7.3c-1.7-0.5-3.4-1-5.1-1.5l0.4-0.8C176.2,23.4,175,28.3,173.7,32
		 M189.7,29.3c-0.3,3.4,0.5,7.6-3.2,9.3c-0.1,0.7-0.2,2-0.3,2.6c3.7-1.3,7.8-4.9,7.3-9.1C192.3,31,191,30.1,189.7,29.3 M195.9,35
		c-0.9,3.4-2.5,6.5-4.5,9.4c0.2,0.8,0.4,1.7,0.6,2.5c3-2.5,5.4-5.6,7.5-8.8C198.3,37,197.1,36,195.9,35 M200.7,39.5
		c0.4,4.6-2.9,7.9-5.8,10.8c1.2,0.1,2.4,0.6,3.6,0.2c2.2-2,4.5-4,5.8-6.8c1-1.7-0.7-3.2-1.4-4.6C202.3,39.2,201.3,39.4,200.7,39.5
		 M201.1,52c0.2,0.7,0.5,2.2,0.7,2.9c1.6-1.6,3.2-3.3,5.2-4.5c1.3,0,3.9-0.3,3.7,1.8c0.5,1.9-1,3.1-2.2,4.2c-1.8-0.6-3.5-2-5.5-1.7
		c-0.1,2.6,2.6,4.5,5,4.8c2.4-0.5,4.2-2.5,5.3-4.6c0.5-3.2-1.9-5.8-3.2-8.6C206.2,46.5,203.5,49.3,201.1,52 M215.8,56
		c-0.1,1.2-0.2,2.4-0.3,3.7c-2.7,1.5-4.5,4-4.6,7.1c3.7-1.9,6.8-4.6,9.9-7.4C219.1,58.2,217.5,57.1,215.8,56 M221.8,63.1
		c-0.8,1.4-1.5,2.9-2.4,4.2c-1.9,1.2-3.9,2.1-5.7,3.4c-0.5,0.8-0.3,1.4,0.6,1.8c3.8-1.4,7.2-3.4,10.9-5.1
		C224.4,65.7,223.2,64.2,221.8,63.1 M219.3,73.5c-0.7,0.4-2.2,1.2-2.9,1.5c0.1,0.7,0.4,2,0.5,2.7c1,2.7,2.5,5.3,5.1,6.7
		c1.4,0.1,2.6-0.7,2.9-2.1c2.4,0.1,4.5-1.3,5.6-3.4c-0.8-1.5-1.7-2.9-2.6-4.3c-0.8-1.5-1.6-3-2.3-4.6
		C223.2,70.7,221,71.8,219.3,73.5 M222.6,88c-0.1,1.3-0.1,2.6-0.1,3.9c3.4-1.6,6.7-3.4,10.3-4.5c-0.2-1.4-0.4-2.9-0.6-4.4
		C229.3,85.2,226.5,87.9,222.6,88 M229.6,93.7c-2,1.2-4.6,1.8-5.7,4.1c3.8-0.2,7.2-1.7,10.9-2.5c-0.2-1.8-0.4-3.6-0.7-5.4
		C232.6,91.2,231.3,92.8,229.6,93.7 M235.4,97.1c-0.9,1.4-1.7,2.7-2.5,4.1c-2.1,0.1-4.3,0.3-6.4,0.5c0.1,0.8,0.2,2.4,0.2,3.2
		c2-0.5,4-1.2,5.9-2.1c1.9-0.3,3.6-1.1,5.4-1.7C237.1,99.8,236.2,98.4,235.4,97.1 M228,108c-2.7,2.2-0.9,5.8-0.5,8.6
		c1.1,0.3,2.2,0.7,3.4,1c2.5-0.1,4.9-0.2,7.4-0.3c0.1-2.6,0.2-5.1,0.4-7.7c-0.8-1.7-1.7-3.7-3.7-4C232.5,105.6,229.9,106.5,228,108
		 M236.6,119.3c-0.4,1-0.8,2.1-1.1,3.1c-2.8,0.6-7.4-0.9-8,2.9c2.7,0.3,5.3,0.7,8,1.1c0.3,1,0.5,2.1,0.8,3.1
		c-3.1,0.5-6.2,1.1-9.3,1.4c0,0.5,0,1.5,0,2c4.3,0.1,9,1.2,13-1c-0.1-3.8-0.3-7.6-0.9-11.3l0.3-0.8
		C238.4,119.7,237.5,119.5,236.6,119.3z"/>
</g>
<g id="_x23_902224ff">
	<path class="st4" d="M79.5,13.5c6.6-2.5,13.1-5.9,20.3-6.1c-4.5,1.7-9.3,3.4-13,6.7c2.4,0.5,4.9,1,7.3,1.5c-2.8,0.2-6-0.5-8.4,1.1
		c-1.3,2-1.4,4.5-2,6.7c-0.4-0.2-1.1-0.7-1.4-1c-1.4-0.9-2.8-2-4.4-2.7c-1.2,0.4-2.4,1-3.6,1.5c2.8,2,5.3,4.4,7.2,7.4
		c-2.2-1.4-4.3-3.2-6.3-4.8c0.2,1.5,0.3,3,0.5,4.5c-0.8-1.2-1.7-2.4-2.5-3.6c-1.3-0.3-2.6-0.6-4-1c2,2.2,3.7,4.6,4.9,7.3
		c-1.3-0.9-2.6-1.7-4-2.5c-0.4,0.3-1.1,0.9-1.5,1.2c-1-1.6-2-3.1-3.1-4.6c-1,1-2,2.1-3.1,3.1c1.2,1.5,2.5,2.9,3.6,4.5
		c-1.3-0.2-2.7-0.3-4-0.5c0.3,0.9,0.7,1.9,1,2.8l-0.6-0.5c-1.5-1.1-3.1-2.1-4.7-3.2c-2.5,2-4.8,4.2-6.9,6.6c1.4,1.7,2.8,3.3,4.2,4.9
		c1.4,0.3,2.7,0.6,4.1,0.8c-1.7,0.5-3.4,0.9-5.1,1.4c-2.2-1.9-4.4-3.9-6.6-5.9c-0.8,1.2-1.6,2.3-2.4,3.5c1.3,0.8,2.6,1.7,3.9,2.5
		c-1.8,0.1-3.6,0.2-5.4,0.3c-1.3,0.2-2.7,0.5-3.8,1.4c-0.3,1-0.2,2-0.1,3c0.2,1.3,0.4,2.5,0.6,3.8c-1.2-0.5-2.3-1.1-3.5-1.6
		c-2,1.9-4.5,3.6-5.6,6.2c0.2,1.6,1.6,2.8,2.5,4c1,0.9,2.1,1.8,3.2,2.7c-1,0.2-1.9,0.5-2.9,0.7c-2.3-1-4.7-1.8-7.1-2.5
		c-0.7,1.3-1.3,2.7-1.9,4c2.7,0.5,5.4,1.1,8,1.8c-2.1,0.1-4.2,0.4-6.3,0.6c-1.2,0.1-2.5,0.2-3.7,0.3c0.2,1.1,0.4,2.3,0.5,3.4
		c2.1,0.6,4.1,1.2,6.2,1.7c-2.2,0.2-4.4,0.9-6.5,1.5c-1.1,0.1-2.1,0.2-3.2,0.2c-0.3,1.5-0.5,3.1-0.8,4.6c-2.3,0-4.8,0.2-6.7,1.6
		c5.9-16.1,15.8-30.4,27-43.1c5.1-5.2,11.3-9.2,16.8-14C63.9,21.2,71.5,16.8,79.5,13.5z"/>
</g>
<g id="_x23_d7dbdbff">
	<path class="st5" d="M113.3,10c2.5-0.6,5-1.3,7.6-1.6c2.8,3,2.5,7.1,2.5,10.9c-3.3,1-6.7,1.4-10,0.5
		C113.2,16.6,113.3,13.3,113.3,10 M115.3,11.8c0.1,2,0.2,4.1,0.3,6.1c1.6-0.1,3.1-0.4,4.7-0.7c0.3-1.4,0.2-2.7-0.1-4.1
		C119.3,11.3,116.9,12,115.3,11.8z"/>
</g>
<g id="_x23_e8ececff">
	<path class="st6" d="M126.2,9.4c1.4-0.4,3.1-1.3,4.3,0c0.4,3.5,0.4,7,0.1,10.5c-0.4,0.2-1.3,0.7-1.7,0.9
		C126.7,17.4,128.1,13,126.2,9.4z"/>
</g>
<g id="_x23_e8d8d7ff">
	<path class="st7" d="M133.1,9.4c1.6,0.1,3.1,0.1,4.7,0.2l0.1,0.8c0.1,1,0.2,1.9,0.3,2.9c-0.8-0.3-1.7-0.6-2.5-0.9
		c-0.6-0.2-1.9-0.6-2.5-0.9C133.2,11,133.1,9.9,133.1,9.4z"/>
</g>
<g id="_x23_d9d8d8ff">
	<path class="st8" d="M104.1,11.6c1.7-0.4,3.5-0.9,5.2-1.2c0.2,4,0.3,8,0.1,12c-0.4,0.1-1.2,0.3-1.6,0.4
		C107,18.8,105.7,15.1,104.1,11.6z"/>
</g>
<g id="_x23_b39493ff">
	<path class="st9" d="M137.9,10.4l1.1-0.1c-0.1,3.9-0.8,7.8-2.2,11.4c-0.6,0-1.9-0.1-2.5-0.1c0.1-3.1,0.6-6.2,1.4-9.1
		c0.8,0.3,1.7,0.6,2.5,0.9C138.1,12.3,138,11.3,137.9,10.4z"/>
</g>
<g id="_x23_dee0e0ff">
	<path class="st10" d="M167.1,11.9c2.8-0.6,5.7-1.7,8.6-0.9c3.7,1,6.9,3.1,10.2,5c-2.4,0.4-4.8,0.8-7.3,1
		C174.6,15.8,170.7,14,167.1,11.9z"/>
</g>
<g id="_x23_c6bbbaff">
	<path class="st11" d="M141.1,10.5c1.9,0.4,3.7,0.8,5.6,1.2c-0.6,4.2-1.7,8.2-2.8,12.3c-2.1-1.4-1.6-3.9-1.6-6
		C142.5,15.4,141.6,13,141.1,10.5z"/>
	<path class="st11" d="M122.7,101.2c0.8,1.6,1.9,3,3.6,3.6c3.3,0.7,6.7,0.1,9.9-0.6c-1.8,0.6-3.6,1.3-5.4,1.8
		c-5.6,1.7-11.2,3.6-16.8,5c3.2-1.5,6.4-2.8,9.7-4.1C123.4,105.1,123.1,103.2,122.7,101.2z"/>
</g>
<g id="_x23_cac0c0ff">
	<path class="st12" d="M95.3,13.8c1.3-2.4,3.9-2.2,6.3-2.1c-0.2,4,0.5,7.9,2,11.6c-0.6,0.1-1.9,0.3-2.6,0.4
		c-0.9-2.3-1.6-4.8-1.9-7.3C97.8,15.5,96.6,14.7,95.3,13.8z"/>
</g>
<g id="_x23_c40404ff">
	<path class="st13" d="M115.3,11.8c1.6,0.2,3.9-0.4,4.9,1.3c0.3,1.4,0.3,2.7,0.1,4.1c-1.6,0.3-3.1,0.5-4.7,0.7
		C115.5,15.8,115.4,13.8,115.3,11.8z"/>
</g>
<g id="_x23_be9e9dff">
	<path class="st14" d="M148.2,23.5c-0.2-4.1-1-10,3.8-11.9c2.3,0.5,4.7,1.3,6.5,2.9c2.8,2.6,0.5,6.6-0.6,9.5
		C155.1,26.5,151.4,23.8,148.2,23.5 M151.1,12.6c-0.1,0.7-0.3,2-0.4,2.7c2.2-0.1,4.5-0.2,6.7-0.4C155.5,13.9,153.3,13.1,151.1,12.6
		 M148.8,23c0.6,0.1,1.9,0.3,2.5,0.4c-1.8-2.2-1.3-5.2-1.8-7.7C148.6,18,148.6,20.5,148.8,23 M150.8,15.7c0,1.7-0.3,3.5,0.4,5.1
		c1.3,0.4,2.6,0.7,4,1c0.6-1.6,1.3-3.2,1.9-4.8C155,16.4,152.9,16,150.8,15.7 M157.1,20.5c-1.4,0.1-1.4,2.5,0.1,2.4
		C158.6,22.9,158.6,20.4,157.1,20.5z"/>
</g>
<g id="_x23_f5e2e1ff">
	<path class="st15" d="M151.1,12.6c2.2,0.5,4.3,1.3,6.3,2.3c-2.2,0.2-4.5,0.3-6.7,0.4C150.9,14.6,151.1,13.3,151.1,12.6z"/>
</g>
<g id="_x23_dfe1e0ff">
	<path class="st16" d="M162.6,15.2c1.8,0.9,3.7,1.9,5.6,2.8c-1.8,3.5-2.8,7.8-6.1,10.2c0.2-2.2,0.9-4.2,1.5-6.3
		C163.3,19.7,162.2,17.5,162.6,15.2z"/>
</g>
<g id="_x23_c8c4c3ff">
	<path class="st17" d="M85.8,16.7c2.5-1.6,5.7-0.9,8.4-1.1c1.1,3.1,1.7,6.4,1.4,9.7c-2.4,0.3-4.8,1-7.2,0.9
		c-1.7-0.6-3.1-1.8-4.5-2.7C84.4,21.1,84.4,18.6,85.8,16.7 M85.8,21.1c1.7,1.7,3.7,3,6.2,2.1c-0.2-1.9-0.3-3.9-0.8-5.7
		C88.5,16.6,87.2,19.5,85.8,21.1z"/>
</g>
<g id="_x23_eee0e0ff">
	<path class="st18" d="M148.8,23c-0.2-2.5-0.2-5,0.7-7.4c0.5,2.6,0,5.5,1.8,7.7C150.7,23.2,149.5,23.1,148.8,23z"/>
</g>
<g id="_x23_a70b0cff">
	<path class="st19" d="M150.8,15.7c2.1,0.4,4.2,0.8,6.3,1.3c-0.6,1.6-1.2,3.2-1.9,4.8c-1.3-0.2-2.7-0.5-4-1
		C150.4,19.2,150.8,17.4,150.8,15.7z"/>
</g>
<g id="_x23_cdcdcdff">
	<path class="st20" d="M178.6,17c2.4-0.3,4.8-0.7,7.3-1c6.8,3.8,12.7,8.7,18.9,13.3c6.3,4.6,7.7,12.8,12.1,18.9
		c-3.6-3.7-6.6-8.1-10.8-11.3c-4.7-3.8-9-8.3-14.1-11.6C187.5,22.6,182.9,20,178.6,17z"/>
</g>
<g id="_x23_be0808ff">
	<path class="st21" d="M85.8,21.1c1.5-1.6,2.7-4.5,5.4-3.6c0.5,1.9,0.6,3.8,0.8,5.7C89.5,24.1,87.4,22.8,85.8,21.1z"/>
</g>
<g id="_x23_a7adacff">
	<path class="st22" d="M74.4,21.2c1.2-0.5,2.3-1.1,3.6-1.5c1.6,0.7,3,1.7,4.4,2.7c0.4,2.4,0.9,4.8,1.4,7.3c-0.5-0.3-1.6-0.8-2.1-1.1
		C79.7,25.6,77.2,23.2,74.4,21.2z"/>
</g>
<g id="_x23_d6cfd0ff">
	<path class="st23" d="M157.1,20.5c1.5-0.1,1.4,2.4,0.1,2.4C155.7,23,155.7,20.6,157.1,20.5z"/>
</g>
<g id="_x23_ddddddff">
	<path class="st24" d="M169.9,19.3c2.2,0,4.4,0.3,5.8,2.3c-2.7,2.7-3.8,6.4-5.6,9.6c-3.4-2.2,0.1-5.4,0.4-8.2
		C170.3,22.1,170.1,20.2,169.9,19.3z"/>
</g>
<g id="_x23_d0cccbff">
	<path class="st25" d="M173.7,32c1.3-3.7,2.5-8.6,7.3-8.8l-0.4,0.8c-0.6,1.2-1.2,2.4-1.9,3.6c-0.7,1.3-1.5,2.5-2.2,3.8
		c1.6,0.6,3.2,1.2,4.9,1.8c0.2-1.8,0.3-3.6,0.6-5.4c1-0.9,2-1.7,3.1-2.5c0.1,2.5,0.1,5,0.2,7.5c-1.4,1.4-2.8,2.9-4.1,4.4
		C178.4,35.7,176,34,173.7,32z"/>
	<path class="st25" d="M70,182c0.6-3.1,2.1-5.8,3.9-8.4c0.1,1.8,0.2,3.6,0.3,5.3C72.9,180.1,71.5,181.1,70,182z"/>
</g>
<g id="_x23_cdcac9ff">
	<path class="st26" d="M69.3,23.7c1.3,0.3,2.6,0.7,4,1c0.8,1.2,1.7,2.4,2.5,3.6c0.8,1.4,1.5,2.9,2.2,4.3c-0.7,0.2-2,0.5-2.7,0.7
		c-0.3-0.6-0.9-1.8-1.2-2.4C73,28.3,71.3,25.9,69.3,23.7z"/>
</g>
<g id="_x23_bb7878ff">
	<path class="st27" d="M180.6,24c1.7,0.5,3.4,1,5.1,1.5c0.1,2.4,0.2,4.9,0.3,7.3l-0.8,0c0-2.5-0.1-5-0.2-7.5c-1,0.8-2.1,1.6-3.1,2.5
		c-1.1-0.1-2.1-0.1-3.2-0.2C179.4,26.4,180,25.2,180.6,24z"/>
</g>
<g id="_x23_a49493ff">
	<path class="st28" d="M62.6,28.2c1-1,2-2.1,3.1-3.1c1.1,1.5,2.1,3,3.1,4.6c1.6,2.4,2.2,5.2,1.2,7.9c-1.3-1.6-2.5-3.3-3.7-4.9
		C65,31.2,63.8,29.7,62.6,28.2z"/>
</g>
<g id="_x23_bfbfbeff">
	<path class="st29" d="M99.7,28.7c3.6-1.4,7.2-3,11.1-3.3c0,0.6,0,1.7,0,2.2c2.2,0.4,4.3,0.7,6.5,1c-6.6,0.2-12.9,2.4-19.1,4.4
		c-1.3-0.7-2.7-1.4-4.1-2.1C96,30.2,97.8,29.5,99.7,28.7z"/>
	<path class="st29" d="M128.9,226c3,2.8,1.7,7.5,4.4,10.6c-1.1,0.4-2.2,0.9-3.3,1.4C129.3,234,128.7,230,128.9,226z"/>
</g>
<g id="_x23_f2f5f5ff">
	<path class="st30" d="M110.7,25.5c10.8,0.4,21.5-0.5,32.2,0.3c3.1,1,6,2.6,9.2,3.2c8.7,1.3,15.8,7,23.9,10.1
		c7.1,4.3,13.4,9.8,19,15.9c6.6,5.9,12.1,13.1,16.3,20.8c0.4,2,0.7,4.1,1,6.1c-1.2-0.6-2.4-1.2-3.6-1.8c-2.1-4.4-4.9-8.4-8-12.1
		c-1-1.2-2.1-2.4-3.1-3.5c-0.3-0.3-1-1.1-1.3-1.4c-1.3-1.8-2.1-3.9-3.2-5.8c-6.1-2.9-10-8.6-15.6-12.2c-2.7-1.7-5.5-3.2-8.3-4.9
		c-1.6-0.9-3.5-1.4-5.3-2.1c-3.6-1.2-6.9-3-10.4-4.2c-2.8-0.8-5.6-1.2-8.3-2.2c-8.8-4.3-18.7-1.8-28-3c-2.2-0.2-4.3-0.6-6.5-1
		C110.7,27.1,110.7,26,110.7,25.5z"/>
	<path class="st30" d="M216.4,75.1c0.7-0.4,2.2-1.2,2.9-1.5c0.3,2.4,0.6,4.9,0.9,7.3c-1.1-1-2.2-2-3.3-3
		C216.8,77.1,216.5,75.8,216.4,75.1z"/>
</g>
<g id="_x23_cb0b0cff">
	<path class="st31" d="M178.7,27.6c1.1,0.1,2.1,0.1,3.2,0.2c-0.2,1.8-0.4,3.6-0.6,5.4c-1.6-0.6-3.3-1.2-4.9-1.8
		C177.2,30.1,178,28.9,178.7,27.6z"/>
</g>
<g id="_x23_a5a4a3ff">
	<path class="st32" d="M83.1,34.3c5.2-2.7,10.7-5,16.6-5.6c-1.8,0.8-3.7,1.5-5.6,2.2c1.4,0.7,2.7,1.4,4.1,2.1c-1,0.4-2,0.8-3,1.2
		c-1.6,0.6-3.2,1.4-4.8,2.2C83.1,38.7,76.1,42.1,70,47c-5.2,4.5-11.4,8-15.3,13.8c-2.1,2.9-4.4,5.6-6.8,8.2
		c-5.7,6.6-9.1,14.8-12.1,22.9c-1.5,3.5-2.4,7.2-3.1,11c-2.2,6.6-3.8,13.3-4.2,20.3c-0.2-2.2-0.5-4.4-0.9-6.6
		c-0.6,0-1.7,0.1-2.3,0.2c-0.4-6.9,2.6-13.2,3.9-19.8c1.6-7.8,5.9-14.6,9-21.8C40,70.9,43.2,67.6,46,64c6.6-8.4,14.4-15.8,22.8-22.3
		C73.1,38.4,78.4,36.9,83.1,34.3z"/>
</g>
<g id="_x23_b96b6bff">
	<path class="st33" d="M98.2,33c6.2-2,12.5-4.1,19.1-4.4c9.3,1.2,19.2-1.3,28,3c-1.3,0-2.6-0.1-3.8-0.1c-4.9-1.3-10-2.1-15.1-1.7
		c-6.7-0.1-13.7-0.4-20,2.3c-3.6,1-7.3,1.4-11,2.1C96.2,33.8,97.2,33.4,98.2,33z"/>
</g>
<g id="_x23_9f1a1cff">
	<path class="st34" d="M106.2,32.1c6.4-2.7,13.3-2.4,20-2.3c-2.7,0.5-5.8,0.7-8.1,2.4c-2.8,3.2-4.8,7.1-8.1,9.8
		c-5.8,5-9.7,11.6-14.8,17.1c-7.1,7.6-14,15.3-20.8,23.1c-3.7,4.6-7.5,9.2-11.7,13.3c-4.8,4.6-8,10.5-12.9,15.1
		c-2.9,2.8-5.8,5.5-8.3,8.7c-3.8,4.9-8.2,9.7-10.1,15.8c-1-5.1-2.2-10.4-1.1-15.6c4.4-6.5,9.1-13,14.9-18.5
		c3.6-3.4,6.8-7.3,9.6-11.4c3.4-5.2,9.1-8.3,12.6-13.4c2.2-3.1,4.4-6.2,7.2-8.8c4.5-4.2,8-9.3,12.5-13.6
		C93.9,47.1,98.8,38.5,106.2,32.1z"/>
	<path class="st34" d="M195.3,132.3c7-8.3,14.4-16.3,21.1-24.9c1.1,4.4,2,9.2,0.7,13.7c-0.8,3.9-4,6.6-6.7,9.3
		c-4.8,4.6-8.6,10.1-13.1,14.9c-5.8,6.2-9.9,14.4-17.7,18.4c-2.5,1.4-5.5,0.7-8.2,0.1c-1.1-1.1-2.2-2.2-3.2-3.4
		c-0.2-0.4-0.5-1.3-0.6-1.7c0.8,0.6,1.6,1.2,2.4,1.9c3.1-3.7,6.1-7.6,9.6-11C185.3,144.2,189.7,137.8,195.3,132.3z"/>
</g>
<g id="_x23_ae0f10ff">
	<path class="st35" d="M126.2,29.8c5.1-0.4,10.2,0.4,15.1,1.7c-4.9,1.4-10.3,3-13.7,7.1c-2.2,3.4-1.9,7.8-1.9,11.6
		c-0.7-3.2-1.1-6.5-1.5-9.8c-2.3,4.7-5,9.3-6.3,14.5c0-1.4-0.1-2.7-0.1-4.1c-3.5,1.7-4.1,5.5-5.3,8.8c-2.9,2.2-6.8,2.8-9.3,5.5
		C94.5,73.9,87,83.6,78.9,92.8c-4,4.6-9.2,8.2-12.8,13.3c-4.2,6-9.8,10.9-14,16.9c-2.2,3.1-4.9,5.8-7.8,8.2
		c-4.2,3.4-7.1,8-10.5,12.2c-0.7-0.8-1.4-1.5-2.1-2.3c0-2-0.1-3.9-0.2-5.9c1.9-6.1,6.3-10.9,10.1-15.8c2.5-3.2,5.4-5.9,8.3-8.7
		c4.8-4.6,8.1-10.5,12.9-15.1c4.2-4.1,8-8.7,11.7-13.3c6.8-7.8,13.7-15.6,20.8-23.1c5.2-5.5,9.1-12.2,14.8-17.1
		c3.3-2.8,5.4-6.6,8.1-9.8C120.5,30.5,123.5,30.4,126.2,29.8z"/>
</g>
<g id="_x23_d4dbdbff">
	<path class="st36" d="M189.7,29.3c1.3,0.9,2.6,1.7,3.7,2.8c0.6,4.2-3.6,7.8-7.3,9.1c0.1-0.6,0.2-1.9,0.3-2.6
		C190.2,36.9,189.5,32.7,189.7,29.3z"/>
</g>
<g id="_x23_9a8c8bff">
	<path class="st37" d="M51,37.9c2.1-2.4,4.5-4.5,6.9-6.6c1.6,1,3.2,2.1,4.7,3.2c-0.7,1.4-1.3,2.8-2.1,4.2c-0.9-1.8-1.8-3.5-2.8-5.3
		c-1.1,2.1-2.2,4.3-2.4,6.7c-0.1,0.9-0.1,1.8-0.2,2.8C53.7,41.3,52.4,39.6,51,37.9z"/>
	<path class="st37" d="M226.9,136.9c3.4-2.8,7.9-0.9,11.6-0.1c-0.3,3.1,0.5,7.2-2.5,9.2c-2.4,0.8-4.9,0.8-7.4,1.1
		C227,144,225.3,140.4,226.9,136.9 M229.6,142.9c1.1,1.4,2.9,1.4,4.6,1.7c0.4-1.7,1.5-3.4,1.4-5.3c-0.6-1.1-1.5-2.1-2.4-3
		C230.1,136.7,229.4,140.5,229.6,142.9z"/>
</g>
<g id="_x23_902325ff">
	<path class="st38" d="M95.2,34.2c3.7-0.7,7.4-1,11-2.1c-7.4,6.4-12.3,15-19.3,21.8c-4.4,4.3-7.9,9.4-12.5,13.6
		c-2.8,2.6-5,5.7-7.2,8.8c-3.5,5.1-9.1,8.2-12.6,13.4c-2.8,4.1-5.9,8-9.6,11.4c-5.7,5.5-10.4,12-14.9,18.5
		c0.8-5.6,1.8-11.1,2.5-16.7c3.3-3.2,5.7-7.1,8.4-10.8c3.1-4.3,8.3-6.4,11.1-10.9c4.8-7.7,12.5-12.9,17.3-20.7
		c2.1-3.5,5.1-6.3,8.4-8.7c5.5-4,8.2-10.5,12.5-15.6C92,35.6,93.6,34.8,95.2,34.2z"/>
	<path class="st38" d="M215.1,95.8c1.9,4.7,1.9,9.8,3.1,14.7c1.6,7.5,1.4,15.1,1.1,22.7c-0.3,1.3-0.7,2.6-1,4
		c-4.2,4.8-8.6,9.5-13.3,13.7c-5.7,5.6-9.9,12.9-16.8,17.2c-4,1.6-8.3,0.4-12.4,0.1c-1.5-1.4-2.9-2.9-4.3-4.4
		c2.7,0.5,5.6,1.3,8.2-0.1c7.9-4,11.9-12.2,17.7-18.4c4.5-4.9,8.3-10.4,13.1-14.9c2.7-2.7,5.9-5.4,6.7-9.3c1.3-4.5,0.4-9.2-0.7-13.7
		C215.7,103.5,215.5,99.6,215.1,95.8z"/>
</g>
<g id="_x23_bf0a0aff">
	<path class="st39" d="M127.7,38.6c3.4-4.1,8.8-5.7,13.7-7.1c1.3,0,2.6,0.1,3.8,0.1c0.5,0.8,0.9,1.6,1.4,2.4
		c-5.1,3.8-9.4,8.3-13.9,12.7c-2.5,2.4-4.2,5.5-5.6,8.7c-0.4-1.7-1-3.4-1.3-5.2C125.8,46.4,125.4,42,127.7,38.6z"/>
</g>
<g id="_x23_ce0504ff">
	<path class="st40" d="M145.2,31.6c2.7,1,5.6,1.4,8.3,2.2c3.6,1.2,6.9,3,10.4,4.2l-0.9-0.2c-1.9-0.3-3.8-0.6-5.6-0.9
		c-3.3,4.3-6.4,8.7-9.7,12.9c-3.2,4.1-8.3,6.4-11,10.9c-2.1,3.3-4.1,6.8-6.3,10c-0.6-0.8-1.2-1.7-1.8-2.5c-1.4-4.1-1.2-8.5-1.5-12.8
		c1.4-3.2,3.1-6.2,5.6-8.7c4.5-4.4,8.9-8.9,13.9-12.7C146.1,33.2,145.7,32.5,145.2,31.6z"/>
</g>
<g id="_x23_b41415ff">
	<path class="st41" d="M55.4,40.1c0.1-2.4,1.2-4.6,2.4-6.7c1,1.7,1.9,3.5,2.8,5.3c-0.4,0.5-1.2,1.5-1.6,2.1
		C57.8,40.5,56.5,40.3,55.4,40.1z"/>
</g>
<g id="_x23_b6adacff">
	<path class="st42" d="M60.5,38.7c0.8-1.4,1.4-2.8,2.1-4.2l0.6,0.5c0.4,1.5,1.4,2.9,1.1,4.5c-1.1,2-3.2,3.1-5,4.2
		c-1.4-0.2-2.7-0.5-4.1-0.8c0-0.9,0.1-1.8,0.2-2.8c1.2,0.2,2.4,0.4,3.6,0.7C59.3,40.2,60.1,39.2,60.5,38.7z"/>
</g>
<g id="_x23_cec9c9ff">
	<path class="st43" d="M195.9,35c1.2,1,2.4,2,3.6,3c-2.1,3.2-4.6,6.3-7.5,8.8c-0.2-0.8-0.4-1.7-0.6-2.5
		C193.4,41.5,195.1,38.4,195.9,35z"/>
</g>
<g id="_x23_de1207ff">
	<path class="st44" d="M157.5,37c1.9,0.3,3.8,0.6,5.6,0.9c0.3,0.9,0.6,1.9,0.9,2.8c-4.2,5.2-8.6,10.3-13.5,14.9
		c-4.4,4-7.7,9-11.4,13.6c-3.3,3.9-4.5,9-6.9,13.4c-0.9-4.8-2-9.7-3.6-14.3c0.6,0.9,1.2,1.7,1.8,2.5c2.2-3.3,4.2-6.7,6.3-10
		c2.8-4.5,7.8-6.8,11-10.9C151.1,45.6,154.2,41.2,157.5,37z"/>
</g>
<g id="_x23_812629ff">
	<path class="st45" d="M70,47c6-4.9,13-8.3,20.4-10.7c-4.3,5.1-7,11.6-12.5,15.6c-3.3,2.4-6.3,5.2-8.4,8.7
		c-4.7,7.7-12.5,13-17.3,20.7c-2.8,4.5-8,6.6-11.1,10.9c-2.7,3.7-5.1,7.6-8.4,10.8c0.7-3.8,1.6-7.5,3.1-11c3-8.1,6.4-16.3,12.1-22.9
		c2.4-2.7,4.7-5.4,6.8-8.2C58.7,55,64.8,51.5,70,47z"/>
	<path class="st45" d="M204.9,150.9c4.8-4.2,9.2-8.9,13.3-13.7c-1.5,4.9-1,10.2-3.2,14.9c-1.7,3.9-2.5,8.1-4.2,11.9
		c-3.8,8-8.8,15.5-14.7,22.1c-3.9,5.8-9.7,9.6-14.9,14c-4.8,4-10.5,6.8-16,9.8c-3.9,2.1-8.3,2.7-12.3,4.3c-0.5-0.5-1.6-1.5-2.2-2
		c4.4-4.9,9.1-9.4,12.9-14.9c3.8-4.8,8.8-8.6,12-13.9c1.5-2,0-4.4-0.5-6.4c2.5,1.5,5.3,2.4,8.3,2.4c3.2,0.2,6.3-0.1,9.5-0.5
		c-6.2-2.3-11.9-5.8-16.7-10.4l-0.5-0.5c4.1,0.3,8.5,1.4,12.4-0.1C195,163.8,199.1,156.5,204.9,150.9z"/>
</g>
<g id="_x23_eb210eff">
	<path class="st46" d="M163.1,37.8L164,38c1.8,0.6,3.6,1.2,5.3,2.1c0.6,1.9,1,4.1-0.3,5.8c-3,4.3-7.1,7.6-10.2,11.9
		c-3.1,4.2-6.8,7.9-10.5,11.5c-6.1,6.4-10.1,14.4-14.3,22c-0.6-2.9-1.2-5.8-1.8-8.7c2.4-4.4,3.6-9.5,6.9-13.4
		c3.7-4.6,7.1-9.6,11.4-13.6c4.9-4.6,9.2-9.7,13.5-14.9C163.7,39.7,163.4,38.8,163.1,37.8z"/>
</g>
<g id="_x23_a9a6a4ff">
	<path class="st47" d="M45.1,42.6c0.8-1.2,1.6-2.3,2.4-3.5c2.2,2,4.4,4,6.6,5.9c0.2,1.4,0.3,2.7,0.5,4.1c-1.9-1.3-3.8-2.7-5.6-4
		C47.8,44.2,46.5,43.4,45.1,42.6z"/>
</g>
<g id="_x23_d6ceceff">
	<path class="st48" d="M200.7,39.5c0.5-0.1,1.6-0.3,2.1-0.3c0.7,1.5,2.4,2.9,1.4,4.6c-1.3,2.7-3.6,4.8-5.8,6.8
		c-1.2,0.4-2.4-0.2-3.6-0.2C197.9,47.3,201.1,44.1,200.7,39.5z"/>
</g>
<g id="_x23_f52d10ff">
	<path class="st49" d="M169,45.9c1.3-1.7,0.9-3.9,0.3-5.8c2.7,1.7,5.5,3.2,8.3,4.9c-0.2,2.4,0.1,5.1-1.3,7.1c-2.8,3-6.7,4.7-9.3,7.8
		c-3.2,3.8-5.7,8.2-9.2,11.7c-4.2,4.2-7.8,8.9-11.5,13.5c-3.9,4.5-3.7,11-7.3,15.7c-0.9-1.1-1.9-2.2-2.8-3.3
		c-0.3-0.5-0.8-1.4-1.1-1.9c-0.4-1.4-0.8-2.9-1.1-4.4c4.2-7.7,8.2-15.6,14.3-22c3.7-3.7,7.4-7.3,10.5-11.5
		C161.9,53.5,166,50.2,169,45.9z"/>
	<path class="st49" d="M115,117.9c1-0.1,2.1-0.2,3.1-0.4c-1.6,0.6-3.1,1.2-4.6,1.8C113.8,119,114.6,118.2,115,117.9z"/>
	<path class="st49" d="M116.1,134.3c2.2-1,4.5-1.9,6.9-2.6c1.8,0.1,3.6,0.3,5.4,0.5c-0.7,5.9-5.4,9.8-9,14.1
		c-14.1,15-27.1,30.9-41,46c-3.1,2.9-5.9,6-7.4,10c-1.4-1.1-2.8-2.2-4.1-3.3c1.8-3.5,2.9-7.4,1.5-11.2c1-0.2,1.9-0.5,2.9-0.7
		c0.5,1,1,2,1.5,3c4.2-5.8,9.7-10.6,13.9-16.5c2.6-3.6,5.9-6.8,9.1-9.9c5.3-5.1,9.2-11.4,14.5-16.5c2.5-2.7,5.7-5,7.2-8.5
		C117.3,137.2,116.6,135.8,116.1,134.3z"/>
</g>
<g id="_x23_d47e7dff">
	<path class="st50" d="M117.9,55c1.3-5.1,4-9.8,6.3-14.5c0.4,3.3,0.8,6.5,1.5,9.8c0.4,1.7,0.9,3.4,1.3,5.2c0.4,4.3,0.1,8.7,1.5,12.8
		c1.6,4.7,2.7,9.5,3.6,14.3c0.6,2.9,1.1,5.8,1.8,8.7c0.3,1.5,0.7,2.9,1.1,4.4c-3.6-5.5-3.7-12.3-5.1-18.5c-0.7-3.6-2.4-6.9-3.2-10.5
		c-0.5-2.9-0.5-5.9-0.8-8.8c-0.4-3.5-1.1-7.1-2.5-10.4c-0.3-0.1-1-0.2-1.3-0.3c-2.8,4.6-3.3,10.1-5.2,15c-2.7,6.6-5.4,13.1-8.4,19.6
		C110.2,72.4,116,64.3,117.9,55z"/>
</g>
<g id="_x23_a5afadff">
	<path class="st51" d="M39.8,46.8c1.1-0.8,2.5-1.1,3.8-1.4c2.4,2.4,4.8,4.8,7.2,7.2c-0.7,0.7-1.5,1.5-2.2,2.2
		c-1.8-1.8-3.6-3.5-5.4-5.3c-1.2,0.1-2.4,0.1-3.5,0.2C39.7,48.8,39.6,47.8,39.8,46.8z"/>
</g>
<g id="_x23_fc3d15ff">
	<path class="st52" d="M177.5,45c5.5,3.7,9.5,9.4,15.6,12.2c-0.1,0.6-0.2,1.7-0.3,2.2c-1.4-0.2-3.1-1.2-4.4-0.2
		c-2.1,1.5-3.7,3.7-5.3,5.7c-5.5,7.2-12.5,13-17.6,20.4c-3.3,5-8.9,7.6-13.3,11.4c0.3,0.7,0.8,2.2,1,3c-5.3,1.4-10.8,2-16.2,1.5
		c-0.2-1.3-0.5-2.5-0.7-3.8c0.9,1.1,1.8,2.2,2.8,3.3c3.5-4.7,3.4-11.2,7.3-15.7c3.7-4.6,7.4-9.3,11.5-13.5c3.5-3.5,6-7.9,9.2-11.7
		c2.6-3.2,6.5-4.9,9.3-7.8C177.7,50.1,177.3,47.4,177.5,45z"/>
	<path class="st52" d="M101.1,141c5-2.2,10.1-4.3,15-6.6c0.5,1.5,1.2,2.9,1.3,4.5c-1.5,3.5-4.6,5.8-7.2,8.5
		c-5.3,5.1-9.2,11.4-14.5,16.5c-3.2,3.1-6.5,6.2-9.1,9.9c-4.2,5.9-9.7,10.6-13.9,16.5c-0.5-1-1-2-1.5-3c-0.7-1.2-1.3-2.5-2-3.7
		c-0.3,1.5-0.7,2.9-0.9,4.4c1.4,3.8,0.2,7.7-1.5,11.2c-2.2-1.8-4.5-3.4-6.7-5.2c-3.4-2.6-5.7-6.4-8.4-9.6c1.6,0.7,3.2,1.3,4.8,1.9
		c2.3-3.2,5-6.1,7.8-8.9c5.7-5.5,10.4-12,14.6-18.8c-1.1,4.9-4.2,9.3-4.7,14.4l-0.1,0.8c-1.8,2.5-3.3,5.3-3.9,8.4
		c1.4-1,2.9-1.9,4.2-3c1.6-2.5,2.9-5.1,3.8-7.9c0.1-0.4,0.2-1.1,0.2-1.5c1.7-1.6,3.2-3.5,3.3-5.9c0.1-0.4,0.2-1.1,0.3-1.5
		c1.1-0.6,2.2-1.3,3.4-2c0.1-1.5,0.1-3,0.2-4.5l0.1-0.7c1.9-2.5,3.7-5.1,5.8-7.5c2.4-2.8,5.7-4.4,8.9-6.1L101.1,141z"/>
</g>
<g id="_x23_d9dcdbff">
	<path class="st53" d="M122.2,47.2c0.3,0.1,1,0.2,1.3,0.3c1.4,3.3,2.1,6.9,2.5,10.4c-2.6,6-6,11.8-10.6,16.6
		c-2.3,2.2-2.5,5.4-3.7,8.2c-1.3,1.1-2.8,1.7-4.3,2.4c0.4-1.1,0.8-2.1,1.2-3.2c2.9-6.5,5.7-13,8.4-19.6
		C118.9,57.3,119.4,51.8,122.2,47.2z"/>
</g>
<g id="_x23_dfe2e1ff">
	<path class="st54" d="M201.1,52c2.4-2.7,5.1-5.5,9-5.7c1.3,2.7,3.7,5.3,3.2,8.6c-1.1,2.1-2.9,4.1-5.3,4.6c-2.4-0.2-5.1-2.2-5-4.8
		c2-0.3,3.7,1.1,5.5,1.7c1.2-1.1,2.8-2.4,2.2-4.2c0.2-2.1-2.4-1.8-3.7-1.8c-2,1.2-3.6,2.9-5.2,4.5C201.7,54.2,201.3,52.8,201.1,52z"
		/>
</g>
<g id="_x23_bb0c0cff">
	<path class="st55" d="M112.6,59.7c1.2-3.3,1.8-7.1,5.3-8.8c0.1,1.4,0.1,2.7,0.1,4.1c-1.9,9.4-7.8,17.5-9.3,27
		c-0.4,1.1-0.8,2.1-1.2,3.2c-1.6,3.8-3.2,7.7-5,11.4c1.9-6,2-12.4,3.2-18.6c-4.9,5.3-11.1,9.3-15.7,15c-4.8,5.9-10.9,10.5-15.4,16.5
		c-4.3,5.7-9.6,10.5-13.9,16.2c-7.6,10-18.1,17.7-24.4,28.7c-1.6-3.4-2.6-7.1-2.5-10.9c3.4-4.1,6.3-8.8,10.5-12.2
		c2.9-2.4,5.7-5,7.8-8.2c4.2-6,9.8-10.9,14-16.9c3.6-5.1,8.7-8.7,12.8-13.3c8.1-9.2,15.7-19,24.4-27.6
		C105.8,62.5,109.7,61.8,112.6,59.7z"/>
	<path class="st55" d="M192.9,101.9c7.2-5.4,12.8-12.9,16.2-21.2c2.4,4.8,3.9,10,6.1,15c-1-0.8-1.9-1.6-2.9-2.4
		c-1.4,2.8-2.6,5.8-5.1,7.8c-2.2,1.6-4.7,2.8-7.3,3.8c-1.7,0.3-3.5,0.5-5.2,0.8c-4.1-1.1-8.4-0.9-12.7-0.6c-7.3,0.5-14.7-0.9-21.8,1
		c-2.7-0.1-5.4-0.4-8.2-0.4c6.2-0.4,12.4-1.6,18.2-4c1.9-0.4,3.8-0.7,5.8-1.2c-1.2-0.3-2.3-0.7-3.5-1l-0.9-0.2
		c0.8-0.1,2.4-0.3,3.3-0.4c4.2-0.6,8.4-0.4,12.6,0.1C188.9,100.6,190.4,103.9,192.9,101.9z"/>
</g>
<g id="_x23_948181ff">
	<path class="st56" d="M31.3,58.2c1.1-2.6,3.6-4.3,5.6-6.2c1.2,0.5,2.3,1.1,3.5,1.6c0.9,0.4,1.8,0.9,2.7,1.3
		c-1.4,0.2-2.8,0.3-4.1,0.6c-1.9,0.6-3.8,1.4-5.6,2.2c1.2,1.2,2.4,2.3,3.7,3.5c-1,0.4-2.1,0.7-3.1,1.1C32.9,61,31.5,59.8,31.3,58.2z
		"/>
</g>
<g id="_x23_b49b9aff">
	<path class="st57" d="M38.9,55.5c1.4-0.2,2.8-0.4,4.1-0.6c1.7,4.5-1.2,9.5-6,10c-1.1-0.9-2.2-1.8-3.2-2.7c1-0.3,2.1-0.7,3.1-1.1
		c1.4-0.6,2.7-1.3,4.1-2C40.3,57.9,39.7,56.7,38.9,55.5z"/>
</g>
<g id="_x23_af1213ff">
	<path class="st58" d="M33.3,57.6c1.9-0.8,3.7-1.5,5.6-2.2c0.7,1.2,1.4,2.4,2.1,3.6c-1.4,0.7-2.7,1.4-4.1,2
		C35.7,60,34.5,58.8,33.3,57.6z"/>
</g>
<g id="_x23_e4ddddff">
	<path class="st59" d="M215.8,56c1.7,1.1,3.3,2.2,4.9,3.4c-3.1,2.8-6.2,5.5-9.9,7.4c0.1-3.1,1.9-5.6,4.6-7.1
		C215.6,58.5,215.7,57.2,215.8,56z"/>
</g>
<g id="_x23_f42c10ff">
	<path class="st60" d="M193.1,57.2c1.2,1.9,1.9,4,3.2,5.8c-9.3,4.7-14.9,14.1-21.6,21.7c-4.2,5-10.3,8.2-13.3,14.2
		c-2.8,0.1-5.6,0.4-8.3,0.9c-0.3-0.8-0.8-2.2-1-3c4.4-3.8,9.9-6.4,13.3-11.4c5.1-7.5,12.2-13.3,17.6-20.4c1.6-2,3.2-4.2,5.3-5.7
		c1.3-1,3,0,4.4,0.2C192.8,58.9,193,57.8,193.1,57.2z"/>
</g>
<g id="_x23_f3f4f3ff">
	<path class="st61" d="M115.5,74.5c4.5-4.8,7.9-10.6,10.6-16.6c0.3,2.9,0.3,5.9,0.8,8.8c0.7,3.6,2.4,6.9,3.2,10.5
		c1.4,6.2,1.5,13,5.1,18.5c0.3,0.5,0.8,1.4,1.1,1.9c0.3,1.2,0.5,2.5,0.7,3.8c-3.8,0.1-7.3,1.7-10.5,3.6c-1.7-0.6-2.9-2-3.6-3.6
		c-1.1-3.2-2.6-6.3-3.5-9.6c-0.1-1.4-0.2-2.7-0.3-4.1c-2.9,5.2-5.5,10.5-8.3,15.8c-1.5,3.1-2.7,6.6-5.5,8.8c-3,2.4-6.3,4.5-9.9,5.7
		c0.6-2.4,1.3-4.8,2.4-7.1c2.2-4.5,3.2-9.5,4.8-14.2c1.8-3.7,3.4-7.6,5-11.4c1.5-0.7,3.1-1.3,4.3-2.4
		C112.9,79.9,113.2,76.7,115.5,74.5z"/>
</g>
<g id="_x23_d4d8d8ff">
	<path class="st62" d="M227.6,64.2c1.1-0.6,2.2-1.2,3.3-1.8c5.4,5.8,9.5,12.8,11.3,20.6c-1.7-0.8-3.3-1.5-5-2.3
		c-1.3-3.4-3.3-6.5-5.3-9.5C230.4,68.9,229,66.5,227.6,64.2z"/>
</g>
<g id="_x23_8d8887ff">
	<path class="st63" d="M27,63c2.4,0.7,4.8,1.5,7.1,2.5c1.2,1.3,2.4,2.7,3.5,4.1c-1.5-0.2-3-0.5-4.6-0.8c-2.6-0.7-5.3-1.3-8-1.8
		C25.8,65.7,26.4,64.4,27,63z"/>
</g>
<g id="_x23_f1e2e2ff">
	<path class="st64" d="M221.8,63.1c1.4,1.2,2.6,2.6,3.3,4.4c-3.6,1.7-7.1,3.7-10.9,5.1c-0.8-0.4-1-1-0.6-1.8
		c1.8-1.3,3.8-2.2,5.7-3.4C220.3,66,221,64.5,221.8,63.1z"/>
</g>
<g id="_x23_e71e0eff">
	<path class="st65" d="M174.8,84.8c6.7-7.7,12.3-17,21.6-21.7c0.3,0.3,1,1.1,1.3,1.4c-2.2,5.4-5.8,10.1-9.9,14.3
		c-4.7,4.7-7.6,11-13.2,14.8c-3.1,2.1-6.5,3.9-10,5.3c-0.8,0-2.3,0.1-3.1,0.1C164.5,93,170.6,89.8,174.8,84.8z"/>
</g>
<g id="_x23_dc0f06ff">
	<path class="st66" d="M197.6,64.5c1,1.2,2.1,2.3,3.1,3.5c-2.2,6.7-7,12-12,16.8c-4.8,4.6-9.2,9.6-13.9,14.2
		c-0.8,0.1-2.4,0.3-3.3,0.4c-2.3-0.2-4.6-0.5-6.9-0.6c3.5-1.5,6.9-3.2,10-5.3c5.6-3.8,8.5-10.1,13.2-14.8
		C191.8,74.6,195.4,69.9,197.6,64.5z"/>
</g>
<g id="_x23_ca0605ff">
	<path class="st67" d="M200.7,68c3.1,3.7,5.9,7.8,8,12.1l0.3,0.7c-3.4,8.3-8.9,15.8-16.2,21.2c-2.5,2-4-1.3-5.5-2.9
		c-4.2-0.5-8.4-0.7-12.6-0.1c4.8-4.6,9.2-9.6,13.9-14.2C193.7,79.9,198.5,74.7,200.7,68z"/>
</g>
<g id="_x23_939998ff">
	<path class="st68" d="M23.2,69.7c1.2-0.1,2.5-0.2,3.7-0.3c2.7,1.6,5.3,3.5,7,6.2c-1.3-0.2-2.6-0.5-3.9-0.8
		c-2.1-0.5-4.1-1.1-6.2-1.7C23.5,72,23.4,70.8,23.2,69.7z"/>
</g>
<g id="_x23_dbc0bfff">
	<path class="st69" d="M219.3,73.5c1.8-1.7,3.9-2.9,6.3-3.5c0.8,1.5,1.5,3,2.3,4.6c-0.6,1.4-1.2,2.7-1.7,4.1
		c-0.3-1.3-0.6-2.7-1.2-3.9c-1.5-0.2-2.9-0.4-4.4-0.5c0.3,2.4,0.6,4.8,0.9,7.2c1.4-0.4,2.8-0.8,4.2-1.2c-0.2,0.5-0.5,1.5-0.7,2
		c-0.2,1.4-1.5,2.2-2.9,2.1c-2.6-1.3-4.1-4-5.1-6.7c1.1,1,2.2,2,3.3,3C219.9,78.4,219.6,76,219.3,73.5 M220.6,73.7
		c1.8,0.2,3.6,0.3,5.4,0.4c0-0.6-0.1-1.9-0.1-2.5C224,72,222.2,72.6,220.6,73.7z"/>
</g>
<g id="_x23_a9a3a1ff">
	<path class="st70" d="M231.9,71.2c2,3,4,6.1,5.3,9.5c1.8,6,4.2,11.9,6.9,17.6c1.9,4,1.9,8.5,1.4,12.8c-0.7,6.3-0.7,12.7-0.6,19.1
		c0.2,7-1.1,13.9-2.3,20.8c-0.4,2.4-1.6,4.6-2.7,6.8c2.2-6.5,2.3-13.4,3.6-20.1c1.1-6.6,0.4-13.2,0.3-19.9c0.3-6-1.2-11.8-1.7-17.8
		c-0.4-4-2.2-7.6-3.4-11.4C236.9,82.6,234.4,76.9,231.9,71.2z"/>
</g>
<g id="_x23_eddeddff">
	<path class="st71" d="M220.6,73.7c1.6-1.1,3.4-1.7,5.2-2.1c0,0.6,0.1,1.9,0.1,2.5C224.2,74,222.4,73.8,220.6,73.7z"/>
</g>
<g id="_x23_a71011ff">
	<path class="st72" d="M220.6,74.3c1.5,0.1,2.9,0.3,4.4,0.5c0.6,1.2,0.9,2.6,1.2,3.9c-0.1,0.4-0.4,1.2-0.6,1.6
		c-1.4,0.4-2.8,0.8-4.2,1.2C221.1,79.2,220.8,76.8,220.6,74.3z"/>
</g>
<g id="_x23_e7d1d1ff">
	<path class="st73" d="M226.2,78.8c0.5-1.4,1.1-2.8,1.7-4.1c0.9,1.4,1.9,2.8,2.6,4.3c-1.1,2.1-3.2,3.4-5.6,3.4
		c0.2-0.5,0.5-1.5,0.7-2C225.8,80,226.1,79.2,226.2,78.8z"/>
</g>
<g id="_x23_9fa5a4ff">
	<path class="st74" d="M20.2,76.6c1.1-0.1,2.1-0.2,3.2-0.2c2.8,1.2,5.8,2.6,7,5.6c-3-0.3-6-0.8-9.1-0.7c-0.5,0-1.4,0-1.9,0
		C19.6,79.7,19.9,78.1,20.2,76.6z"/>
</g>
<g id="_x23_b1b8b7ff">
	<path class="st75" d="M211.3,75.8c3.1,6.4,6,12.9,8.2,19.7c1.2,4.2,1.6,8.5,2.7,12.7c-2.9,4.5-1.5,9.9-1.5,14.8
		c0.1,3.5-0.5,6.9-1.4,10.2c0.4-7.6,0.5-15.3-1.1-22.7c-1.1-4.9-1.1-10-3.1-14.7c-2.2-4.9-3.6-10.2-6.1-15l-0.3-0.7
		c1.2,0.6,2.4,1.2,3.6,1.8C212,79.9,211.7,77.8,211.3,75.8z"/>
</g>
<g id="_x23_cb0605ff">
	<path class="st76" d="M89.9,92.9c4.6-5.7,10.8-9.6,15.7-15c-1.2,6.2-1.3,12.5-3.2,18.6c-1.6,4.7-2.6,9.7-4.8,14.2
		c-1.1,2.2-1.8,4.7-2.4,7.1c-1-1.4-2.2-2.7-3.3-4c-5.1,4.8-11.9,9.1-13,16.6c-7,4.5-12.5,10.8-18.8,16.1c-1.5,0.9-3.1,1.8-4.6,2.6
		c2.3,1.4,4.6,2.7,7,4.1c-3.7,3.6-7.2,7.5-10.7,11.2c-1.5,1.3-3,2.6-4.4,4c-1,1.1-1.9,2.2-2.8,3.3c-2.3-3.2-4.7-6.4-6.8-9.9
		c-0.4-2.6-0.8-5.2-1.6-7.6c6.3-11,16.7-18.7,24.4-28.7c4.3-5.7,9.6-10.5,13.9-16.2C79,103.4,85.2,98.8,89.9,92.9z"/>
	<path class="st76" d="M131.2,119c0.4-0.1,1.2-0.4,1.6-0.6c1.1,0.4,2.2,0.8,3.4,1.1c-6.2,2.9-12.8,4.6-19.1,7.2
		c0.9-1.4,1.8-2.8,2.8-4.1c0.4,0,1.3,0,1.7,0c1.7,0.1,3.5,0.3,5.2,0.2C128.4,121.9,129.7,120.3,131.2,119z"/>
</g>
<g id="_x23_a81213ff">
	<path class="st77" d="M12.7,82.8c2-1.4,4.4-1.6,6.7-1.6c0.5,0,1.4,0,1.9,0c0.9,1.7,2,3.3,3.3,4.8c-2.9-0.3-6.2-1.1-8.7,0.9
		c-1.2,3.1,0.1,6.2,1.6,9c0.4,0.8,0.8,1.7,1.2,2.5c-1.8-0.3-3.7-0.6-5.6-0.6c-1.1,0.9-1.1,2.5-1.5,3.8c1.3,0,2.6,0.1,3.9,0.1
		c-0.3,1.3-0.5,2.6-0.8,3.9c-1,0-2,0.1-3,0.2c-0.2,0.9-0.3,1.8-0.5,2.8c4.1-0.2,8.2,0.3,12.2,1c-4.6,0.7-9.2,1-13.8,0.8
		c0.4-4.1,0.7-8.3,0.4-12.5c-3,8.2-3.1,17-2.8,25.6c0.5,0,1.4,0,1.9,0c0.2,2.3,0.4,4.7,0.5,7c0.6,0.1,1.9,0.1,2.5,0.2
		c2.8,0.2,5.6,0.5,8.4,0.7c0.3,0.6,0.6,1.2,0.9,1.8c-3.4,0.3-6.7,1-10,1.7c0.1,1.7,0.2,3.4,0.2,5c0.9-0.9,1.8-1.8,2.8-2.6
		c0.2,1.3,0.4,2.7,0.6,4c-1.2,0.9-2.8,1.6-3.4,3c0,1.7,0.7,3.3,1.1,4.9c1.2-1.4,2.5-2.7,3.7-4.1c0.1,0.6,0.2,1.9,0.3,2.5
		c2.2,0.2,4.4,0.4,6.6,0.6c-3.6,0.3-6.9,1.6-10,3.3c1,3.1,2.1,6.1,3.3,9.1c2.1-0.1,4.2-0.2,6.3-0.1c0.6,0.1,1.9,0.4,2.5,0.6
		c-2.8,1.1-5.5,2.3-8.1,4c1,1,1.9,1.9,2.9,2.9c2-1.6,4.2-2.9,6.4-4.2c-1.2,1.2-2.4,2.5-3.6,3.7c2.6-0.2,5.2-0.4,7.7-0.1
		c0.3,0.8,0.5,1.6,0.7,2.4c-1.1-0.7-2.2-1.4-3.4-2c-3.7,0.7-7.4,3.8-6.3,7.9c1.1-0.3,2.2-0.6,3.3-0.9c3.1-0.3,6.2-0.6,9.3-0.7
		c-0.1,0.6-0.3,1.8-0.4,2.4c-0.5,0-1.4,0.1-1.8,0.1c-2.2-0.1-4.4-0.3-6.5-0.3c0,1.9-0.1,3.8,0,5.8c-1.1,1-2.2,2.1-3.2,3.2
		c-2.3-4-5.1-7.8-6.8-12.2c-2.3-4.9-3.9-10.1-5.9-15c-0.1-0.4-0.5-1.2-0.6-1.6c-0.8-3.9-1-7.8-1.8-11.7c-2.2-9.4-1-19.1-1.4-28.7
		c-0.4-7.1,1.5-13.9,2.6-20.8C9.3,90.9,11.2,86.9,12.7,82.8z"/>
</g>
<g id="_x23_b8bebdff">
	<path class="st78" d="M237.2,80.7c1.7,0.8,3.3,1.5,5,2.3c1.3,5.5,2.5,11,4.3,16.4c2.5,7.5,2.1,15.5,1.5,23.2
		c-1.1,2.5-2.3,5-3.1,7.6c-0.1-6.4-0.1-12.8,0.6-19.1c0.5-4.3,0.5-8.8-1.4-12.8C241.4,92.6,239,86.7,237.2,80.7z"/>
</g>
<g id="_x23_ecd9d8ff">
	<path class="st79" d="M222.6,88c3.9-0.1,6.7-2.8,9.7-4.9c0.2,1.4,0.4,2.9,0.6,4.4c-3.6,1.2-6.9,2.9-10.3,4.5
		C222.5,90.6,222.5,89.3,222.6,88z"/>
</g>
<g id="_x23_9fa2a1ff">
	<path class="st80" d="M15.9,86.9c2.5-2,5.8-1.2,8.7-0.9c3.1,2.4,1.3,6.4,0.9,9.6c-2.6,0.1-5.3,0.2-7.9,0.2
		C16,93.1,14.6,90,15.9,86.9 M17.1,91.1c2,0.7,3.9,1.3,5.9,1.9c0.3-1.6,0.5-3.2,0.7-4.8c-1.2-0.3-2.5-0.4-3.7-0.6
		C18.8,88.5,18,89.9,17.1,91.1z"/>
	<path class="st80" d="M206.9,189.8c0.3-0.4,0.8-1.2,1-1.6c1,0.5,2,0.9,3.1,1.4c2.1,0.7,4.2,1.1,6.4,1.5c-1,1.5-2,3.1-3,4.6
		C211.9,193.6,209.4,191.6,206.9,189.8z"/>
	<path class="st80" d="M185.9,206.8c2.4,0.8,4.7,2,6.7,3.5c1,1.5,1.9,3.2,2.7,4.8C190.7,214.6,187.6,210.9,185.9,206.8z"/>
</g>
<g id="_x23_b80a0aff">
	<path class="st81" d="M17.1,91.1c0.9-1.2,1.7-2.6,2.9-3.5c1.2,0.1,2.5,0.3,3.7,0.6c-0.2,1.6-0.5,3.2-0.7,4.8
		C21,92.4,19.1,91.8,17.1,91.1z"/>
</g>
<g id="_x23_45393aff">
	<path class="st82" d="M110.6,103.2c2.8-5.2,5.4-10.6,8.3-15.8c0.1,1.4,0.2,2.7,0.3,4.1c-3.5,7.2-8.4,13.8-10.4,21.6
		c-4.3,1.8-8.1,4.5-12.5,6.1c-0.3-0.4-0.8-1.2-1.1-1.5c3.6-1.3,6.9-3.3,9.9-5.7C107.8,109.8,109.1,106.4,110.6,103.2z"/>
</g>
<g id="_x23_e6d9d8ff">
	<path class="st83" d="M229.6,93.7c1.8-0.9,3.1-2.5,4.5-3.8c0.2,1.8,0.4,3.6,0.7,5.4c-3.6,0.8-7.1,2.3-10.9,2.5
		C224.9,95.5,227.5,94.9,229.6,93.7z"/>
</g>
<g id="_x23_ee250eff">
	<path class="st84" d="M108.8,113.2c2-7.8,6.8-14.5,10.4-21.6c1,3.3,2.4,6.4,3.5,9.6c0.4,1.9,0.7,3.8,1,5.8
		c-3.2,1.3-6.5,2.7-9.7,4.1C112.3,111.9,110.6,112.6,108.8,113.2z"/>
</g>
<g id="_x23_b10f10ff">
	<path class="st85" d="M212.3,93.3c0.9,0.8,1.9,1.6,2.9,2.4c0.3,3.9,0.5,7.8,1.2,11.6c-6.7,8.6-14.1,16.6-21.1,24.9
		c-5.6,5.5-10,12-15.7,17.3c-3.5,3.4-6.5,7.2-9.6,11c-0.8-0.6-1.6-1.2-2.4-1.9c0.1,0.4,0.4,1.3,0.6,1.7l-0.5-0.5
		c-1.9-1.9-3.6-4-5-6.4c-2.2-3.8-4.8-7.4-7.3-11c-0.1-0.4-0.3-1.2-0.4-1.6c1.9-0.2,3.7-0.1,5.6-0.2c3.5-6.1,9.7-9.8,13.7-15.5
		c2.3-3.2,5.7-5,8.9-7.1c-2.8-0.2-5.6-0.3-8.4-0.3c4.8-0.7,9.6-1.1,14.3-1.9c-2.2-0.6-4.4-1.2-6.5-1.7c-4.6-1.4-9.4-0.7-14.1-1
		l-0.9-0.1c4.1-1.3,8.1-2.6,12.2-4l0.8-0.2c6.5,0.4,13,0.8,19.5,0.5c2.3-0.1,4.5-0.3,6.8-0.5c-0.1-1.1-0.2-2.3-0.3-3.4
		c-2.2-0.2-4.5-0.4-6.7-0.5c2.5-1,5.1-2.2,7.3-3.8C209.7,99.2,210.9,96.1,212.3,93.3z"/>
</g>
<g id="_x23_d3c9c9ff">
	<path class="st86" d="M235.4,97.1c0.8,1.3,1.7,2.6,2.5,4c-1.8,0.7-3.5,1.4-5.4,1.7c-2-0.3-4.1-0.7-6.1-1.1c2.1-0.2,4.3-0.4,6.4-0.5
		C233.7,99.8,234.5,98.5,235.4,97.1z"/>
</g>
<g id="_x23_979796ff">
	<path class="st87" d="M11.6,101.5c0.3-1.3,0.3-2.8,1.5-3.8c1.9-0.1,3.8,0.2,5.6,0.6c2,0.7,3.9,1.5,5.7,2.3c-2.9,0.9-5.9,1-8.9,0.9
		C14.2,101.6,12.9,101.6,11.6,101.5z"/>
</g>
<g id="_x23_e67e72ff">
	<path class="st88" d="M153.1,99.8c2.8-0.5,5.6-0.8,8.3-0.9c0.8,0,2.3-0.1,3.1-0.1c2.3,0.1,4.6,0.4,6.9,0.6l0.9,0.2
		c-6,0.1-12.1-0.2-18,0.9c-6.1,1.2-12.4,1.1-18.2,3.7c0.2-0.8,0.5-2.2,0.6-3C142.4,101.8,147.9,101.2,153.1,99.8z"/>
</g>
<g id="_x23_d3d6d6ff">
	<path class="st89" d="M154.5,100.6c5.9-1.1,12-0.8,18-0.9c1.2,0.3,2.3,0.6,3.5,1c-1.9,0.4-3.8,0.8-5.8,1.2
		c-4.9-0.2-10-0.5-14.7,1.3c-5.6,2.2-11.8,1.9-17.3,4.3c-3.6,1.5-7.5,1.9-11.2,2.9c1.8-1.1,3.7-2.1,5.6-3.1
		c-0.6-0.4-1.1-0.7-1.7-1.1c1.8-0.6,3.6-1.2,5.4-1.8C142.1,101.8,148.4,101.8,154.5,100.6z"/>
</g>
<g id="_x23_4b3434ff">
	<path class="st90" d="M126.4,104.9c3.2-1.9,6.7-3.5,10.5-3.6c-0.2,0.7-0.5,2.2-0.6,3C133,104.9,129.7,105.6,126.4,104.9z"/>
	<path class="st90" d="M155.5,103.1c4.7-1.9,9.8-1.5,14.7-1.3c-5.8,2.4-12,3.5-18.2,4c-2.9,0.4-5.5,2.1-8.1,3.3l-0.9,0.1
		c-3.1,0.2-6.3,0.5-9.2,1.8c-5,2.2-10.7,2.7-15,6.4l-0.8,0.2c-1,0.1-2.1,0.3-3.1,0.4c-0.4,0.4-1.1,1.1-1.5,1.4l-0.6,0.2l-0.7,0.1
		c-2.9-0.1-5.3,1.3-7.4,3.2c-0.4,0.1-1.2,0.2-1.6,0.3c-0.7-0.3-2-0.8-2.7-1.1c4.1-3.3,9.5-4.1,14.2-6.3c4.1-1.9,8.5-3.1,12.3-5.5
		c3.7-1,7.6-1.4,11.2-2.9C143.7,105.1,149.9,105.3,155.5,103.1z"/>
	<path class="st90" d="M195.5,105.9c2.1,0.2,4.2,0.3,6.3,0.4c-0.6,1-1.1,2-1.7,3.1c-6.5,0.3-13-0.1-19.5-0.5
		c2.8-1.1,5.9-1.6,8.9-2.1C191.5,106.5,193.5,106.2,195.5,105.9z"/>
	<path class="st90" d="M122,121.7c2.8-1.8,6-2.3,9.2-2.6c-1.4,1.3-2.7,2.9-4.5,3.8c-1.8,0.1-3.5-0.1-5.2-0.2L122,121.7z"/>
	<path class="st90" d="M110.7,126.2c2.9-1.5,5.8-3.3,9.1-3.7c-0.9,1.4-1.8,2.8-2.8,4.1c-0.6,0.2-1.9,0.7-2.5,0.9
		C113.6,127.3,111.6,126.6,110.7,126.2z"/>
	<path class="st90" d="M96.3,141.6c3.6-2.2,7.2-4.7,11.4-5.7c-2.2,1.8-4.3,3.6-6.7,5l-0.8,0.4C99,141.4,97.6,141.5,96.3,141.6z"/>
	<path class="st90" d="M81.9,162.2c0-2.7,1.6-4.8,3.6-6.5c-0.1,1.5-0.2,3-0.2,4.5C84.2,160.9,83.1,161.5,81.9,162.2z"/>
	<path class="st90" d="M78.5,165.6c1.1-0.7,2.1-1.3,3.2-2c-0.1,2.4-1.7,4.3-3.3,5.9C78.4,168.3,78.4,166.9,78.5,165.6z"/>
</g>
<g id="_x23_d7c9c9ff">
	<path class="st91" d="M226.4,101.7c2,0.4,4.1,0.8,6.1,1.1c-1.9,0.9-3.9,1.5-5.9,2.1C226.6,104.1,226.5,102.5,226.4,101.7z"/>
</g>
<g id="_x23_a86161ff">
	<path class="st92" d="M28.6,123.2c0.3-6.9,1.9-13.7,4.2-20.3c-0.7,5.6-1.7,11.1-2.5,16.7c-1.1,5.2,0.1,10.5,1.1,15.6
		c0.1,1.9,0.2,3.9,0.2,5.9c-0.1-0.4-0.3-1.1-0.4-1.5C29.6,134.3,28.9,128.8,28.6,123.2z"/>
</g>
<g id="_x23_b4b4b4ff">
	<path class="st93" d="M11.8,105.7c1-0.1,2-0.1,3-0.2c2.8-0.1,5.6-0.1,8.4,0c0.1,1.3,0.3,2.7,0.4,4c-4.1-0.7-8.1-1.2-12.2-1
		C11.4,107.5,11.6,106.6,11.8,105.7z"/>
</g>
<g id="_x23_f32b10ff">
	<path class="st94" d="M143.9,109.1c2.6-1.2,5.2-2.9,8.1-3.3c2.7,0.1,5.4,0.4,8.2,0.4C154.9,108,149.4,109.1,143.9,109.1z"/>
	<path class="st94" d="M104.8,122.9c2-1.9,4.5-3.3,7.4-3.2C110,121.2,107.6,122.7,104.8,122.9z"/>
	<path class="st94" d="M91.8,136.9c3-1.6,6.3-2.7,9.7-3.5c-2.5,2.3-5.4,4-8.4,5.7c-4.9,2.7-8.8,6.7-13.5,9.7
		c-3.3,2.1-6.3,4.6-8.8,7.5c-1.2,1.7-2.1,3.6-3,5.5c4-2.8,7.9-6,12.8-6.9c-0.6,1.2-1.2,2.4-1.7,3.6c-4.2,6.7-8.8,13.2-14.6,18.8
		c-2.8,2.7-5.4,5.7-7.8,8.9c-1.6-0.6-3.2-1.2-4.8-1.9c-5.5-6.8-11-13.9-13.8-22.3c2,3.4,4.4,6.6,6.8,9.9c0.9-1.1,1.8-2.2,2.8-3.3
		c0,1.1,0,2.3-0.1,3.4c1-0.2,1.9-0.4,2.8-0.6c0.3-1,0.6-2,1-3c7.2-6.2,13.9-13,21.6-18.6C79.1,145.4,85.4,141.1,91.8,136.9z"/>
</g>
<g id="_x23_d78480ff">
	<path class="st95" d="M160.2,106.2c7.1-1.9,14.6-0.5,21.8-1c4.2-0.3,8.5-0.6,12.7,0.6l0.9,0.2c-2,0.3-4,0.7-6,0.9
		c-6.8-1.4-13.7-1.5-20.6-0.9c-6.2,0.5-11.9,3-18,3.8c-3.3,0.4-6.7,0.8-9.9,1.6c0.7-0.7,1.4-1.4,2-2.1l0.9-0.1
		C149.4,109.1,154.9,108,160.2,106.2z"/>
</g>
<g id="_x23_882425ff">
	<path class="st96" d="M194.7,105.7c1.7-0.2,3.5-0.5,5.2-0.8c2.2,0.1,4.5,0.3,6.7,0.5c0.1,1.1,0.2,2.2,0.3,3.4
		c-2.3,0.2-4.6,0.4-6.8,0.5c0.6-1,1.1-2,1.7-3.1c-2.1-0.1-4.2-0.2-6.3-0.4L194.7,105.7z"/>
</g>
<g id="_x23_f8f8f8ff">
	<path class="st97" d="M114.1,111.1c5.7-1.4,11.3-3.2,16.8-5c0.6,0.4,1.1,0.7,1.7,1.1c-1.9,1-3.8,2-5.6,3.1
		c-3.9,2.4-8.2,3.6-12.3,5.5c-4.7,2.2-10.1,3-14.2,6.3c-6.8,2.5-12.8,6.8-19.2,10.2c-5.8,3.5-11.6,7.2-16,12.5c-0.5,0.5-1,1-1.5,1.5
		c-1.2,0.1-2.4,0.2-3.6,0.3c6.3-5.3,11.8-11.7,18.8-16.1c5.8-3.8,11.1-8.2,17.4-11.1c4.4-1.6,8.2-4.4,12.5-6.1
		C110.6,112.6,112.3,111.9,114.1,111.1z"/>
</g>
<g id="_x23_edefeeff">
	<path class="st98" d="M150.9,109.6c6.1-0.8,11.8-3.3,18-3.8c6.9-0.5,13.8-0.5,20.6,0.9c-3,0.5-6.1,1-8.9,2.1l-0.8,0.2
		c-4.2,0.6-8.5,0.1-12.7,0.5c-3.6,0.6-6.9,2.2-10.4,3.1c-5.4,0.4-10.6,1.3-15.7,3.2c-3.2,0.1-6.4-0.1-9.6-0.2
		c0.2-0.5,0.5-1.4,0.6-1.9c3-0.7,6-1.6,8.9-2.7C144.3,110.4,147.6,110.1,150.9,109.6z"/>
</g>
<g id="_x23_cbcbcbff">
	<path class="st99" d="M228,108c2-1.5,4.5-2.4,7-2.4c2.1,0.3,2.9,2.3,3.7,4c-0.5,0-1.6,0-2.1,0.1c-2,0-4.1-0.1-6.1-0.1
		c0.1,2,0.2,4.1,0.3,6.1c0,0.5,0,1.5,0.1,2c-1.1-0.3-2.3-0.7-3.4-1C227.1,113.8,225.2,110.1,228,108z"/>
</g>
<g id="_x23_ecebebff">
	<path class="st100" d="M0,114.7c0.6-2.7,1.3-5.3,1.8-8c-0.1,7.3,0.4,14.7,0.2,22c-0.1,4.3-0.5,8.5-0.6,12.8
		c-0.4-0.6-1.1-1.8-1.5-2.5V114.7z"/>
</g>
<g id="_x23_f24829ff">
	<path class="st101" d="M133.8,110.9c2.9-1.3,6.1-1.5,9.2-1.8c-0.7,0.7-1.3,1.4-2,2.1c-2.9,1.1-5.9,2-8.9,2.7
		c-4.4,1.1-8.7,2.8-13.2,3.4C123.1,113.6,128.9,113.1,133.8,110.9z"/>
</g>
<g id="_x23_463233ff">
	<path class="st102" d="M156.8,112.7c3.5-0.9,6.8-2.5,10.4-3.1c4.2-0.4,8.5,0.1,12.7-0.5c-4,1.4-8.1,2.7-12.2,4
		C164,112.8,160.4,112.5,156.8,112.7z"/>
</g>
<g id="_x23_efedecff">
	<path class="st103" d="M220.6,123c0-5-1.3-10.4,1.5-14.8c4,11.8,2.5,24.6-0.6,36.5c-0.8,7.4-3.8,14.3-7.1,20.9
		c-2.1,4.8-3.7,9.8-7.1,13.8c-5.4,6.5-10.2,13.7-16.9,19c-5.7,4.3-10.9,9.4-17.2,12.7c-7.8,3.2-15.3,7.1-23.4,9.3
		c-4.5,0.7-9,1.4-13.5,2.2c-2.1-0.3-4.1-0.8-6.2-1.1c1-0.9,1.9-1.9,2.9-2.8c6.7-1.4,13.8-1.1,20-4.2c4-1.6,8.5-2.2,12.3-4.3
		c5.4-3.1,11.1-5.9,16-9.8c5.2-4.4,11.1-8.3,14.9-14c6-6.6,10.9-14.1,14.7-22.1c1.7-3.9,2.4-8.1,4.2-11.9c2.2-4.7,1.7-10,3.2-14.9
		c0.4-1.3,0.7-2.6,1-4C220.1,129.9,220.8,126.5,220.6,123z"/>
</g>
<g id="_x23_af0f10ff">
	<path class="st104" d="M230.4,109.5c2,0,4.1,0.1,6.1,0.1c-0.5,1.5-1,3.1-1.4,4.6c-1.4,0.5-2.9,0.9-4.3,1.4
		C230.7,113.6,230.6,111.5,230.4,109.5z"/>
</g>
<g id="_x23_a78c8bff">
	<path class="st105" d="M236.5,109.6c0.5,0,1.6,0,2.1-0.1c-0.2,2.6-0.3,5.1-0.4,7.7c-2.5,0.1-4.9,0.2-7.4,0.3c0-0.5-0.1-1.5-0.1-2
		c1.4-0.5,2.9-1,4.3-1.4C235.6,112.7,236,111.1,236.5,109.6z"/>
</g>
<g id="_x23_c5c0bfff">
	<path class="st106" d="M10.6,113.6c3.8-0.3,7.6-0.3,11.3-0.3c-0.2,1.2-0.4,2.3-0.7,3.5c-3.7-0.7-7.5-1.3-11.2-0.1
		C10.3,115.6,10.5,114.6,10.6,113.6z"/>
</g>
<g id="_x23_782e2dff">
	<path class="st107" d="M141.1,115.9c5-1.9,10.3-2.9,15.7-3.2c3.6-0.2,7.2,0.1,10.9,0.5l0.9,0.1c-10.6,3.2-21.6,4.3-32.4,6.3
		c-1.1-0.4-2.3-0.7-3.4-1.1C135.5,117.4,138.3,116.8,141.1,115.9z"/>
	<path class="st107" d="M74.1,172.8c1.3-0.6,2.7-1.1,4-1.7c-0.9,2.8-2.3,5.4-3.8,7.9c-0.1-1.8-0.2-3.6-0.3-5.3L74.1,172.8z"/>
</g>
<g id="_x23_dd0f05ff">
	<path class="st108" d="M79,130.5c1-7.5,7.9-11.8,13-16.6c1.1,1.3,2.2,2.6,3.3,4c0.3,0.4,0.8,1.2,1.1,1.5
		C90.1,122.2,84.7,126.7,79,130.5z"/>
</g>
<g id="_x23_d8d7d7ff">
	<path class="st109" d="M118.9,117.3c4.5-0.6,8.8-2.3,13.2-3.4c-0.2,0.5-0.5,1.4-0.6,1.9c3.2,0.1,6.4,0.2,9.6,0.2
		c-2.8,0.9-5.6,1.4-8.3,2.5c-0.4,0.2-1.2,0.5-1.6,0.6c-3.2,0.3-6.4,0.9-9.2,2.6c0.6-1.2,1.2-2.4,1.8-3.6c-3.6,0.8-7.2,1.3-10.9,1.5
		l0.6-0.2c1.5-0.6,3.1-1.2,4.6-1.8L118.9,117.3z"/>
</g>
<g id="_x23_e8e9e9ff">
	<path class="st110" d="M168.5,113.2c4.7,0.3,9.6-0.4,14.1,1c-7.3,3.1-15.3,2.7-22.9,4.5c-4.5,0.6-9.4,0.4-12.9,3.8
		c-0.6,0.5-1.2,0.9-1.9,1.4c-3.7-2-7.6,0-11.1,1.2c-2.7,0.8-5.4,1.5-8,2.7c-5.7,3.5-12.7,4.2-18.1,8.2c-4.2,1-7.8,3.4-11.4,5.7
		c-2.7,1.5-5.6,2.7-8.2,4.3c-0.9,1.8-1.3,3.7-1.8,5.6c-1.2-0.2-2.5-0.4-3.7-0.6c-1.1-0.2-2.1-0.4-3.1-0.5c-2.2,2.8-4.9,5.7-8.6,6
		c2.5-3,5.6-5.5,8.8-7.5c4.7-3,8.6-7,13.5-9.7c2.9-1.7,5.9-3.3,8.4-5.7c4.5-1.7,8.9-3.5,13-5.8c0.6-0.2,1.9-0.7,2.5-0.9
		c6.3-2.6,13-4.2,19.1-7.2C146.9,117.5,158,116.5,168.5,113.2 M83.6,149c0.2,1.4,0.8,1.7,1.9,0.8C85.3,148.4,84.7,148.1,83.6,149z"
		/>
</g>
<g id="_x23_443f40ff">
	<path class="st111" d="M159.7,118.7c7.6-1.7,15.6-1.4,22.9-4.5c2.2,0.6,4.4,1.2,6.5,1.7c-4.8,0.8-9.6,1.2-14.3,1.9
		c-5.9,1.1-12,1.3-17.7,3.2c-3.4,1.1-6.9,1.8-10.4,2.2l0-0.8C150.3,119.1,155.3,119.3,159.7,118.7z"/>
</g>
<g id="_x23_ccd5d4ff">
	<path class="st112" d="M25.5,116.8c0.6,0,1.7-0.1,2.3-0.2c0.3,2.2,0.7,4.4,0.9,6.6c0.3,5.5,1,11.1,2.6,16.4
		c-1.1-1.3-2.4-2.5-3.6-3.8c0.3,4,0.5,8,0.9,12c-1.3-4.9-3.1-9.7-3.1-14.8C25.4,127.7,25.5,122.2,25.5,116.8z"/>
</g>
<g id="_x23_f7f7f6ff">
	<path class="st113" d="M112.9,119.6c3.7-0.2,7.3-0.7,10.9-1.5c-0.6,1.2-1.2,2.4-1.8,3.6l-0.5,1c-0.4,0-1.3,0-1.7,0
		c-3.3,0.3-6.2,2.1-9.1,3.7c-5.8,1.5-10.6,5.3-16.3,7c-4.9,2.3-9.1,5.7-13.7,8.4c-5.8,3.3-10.7,8-16.1,11.8
		c-4.5,4.1-9.6,7.7-13.1,12.8c0.1-0.5,0.2-1.4,0.3-1.8c3.5-3.7,7-7.6,10.7-11.2c3.4-3.2,6.7-6.5,10.1-9.6c4.3-3.9,9.6-6.6,13.8-10.6
		c5.8-2.8,12-5.4,16.7-9.9c0.4-0.1,1.2-0.2,1.6-0.3c2.8-0.2,5.1-1.7,7.4-3.2L112.9,119.6z"/>
	<path class="st113" d="M110.2,227.2c2.8-1.2,7.1-1.1,8.5,2.1c0.4,2.8,0,5.5-0.1,8.3c-2.9,0.6-5.8,0.7-8.8,0.7
		c-0.1-1.4-0.2-2.8-0.2-4.1c2.4,1.2,5,2,7.8,2.2l-0.1-1.3c-0.1-1.3-0.1-2.7-0.2-4l-0.1-1c-2.7-1-5.4-0.4-7.4,1.7
		C109.6,230.3,109.6,228.7,110.2,227.2z"/>
</g>
<g id="_x23_c80606ff">
	<path class="st114" d="M157.1,121.1c5.7-2,11.8-2.2,17.7-3.2c2.8-0.1,5.6,0.1,8.4,0.3c-3.2,2-6.7,3.9-8.9,7.1
		c-4,5.7-10.2,9.4-13.7,15.5c-1.9,0.1-3.7,0.1-5.6,0.2c0.1,0.4,0.3,1.2,0.4,1.6c-3.3-6.2-7.1-12.2-8.7-19.2
		C150.3,122.9,153.8,122.2,157.1,121.1z"/>
</g>
<g id="_x23_852426ff">
	<path class="st115" d="M240.1,142.2c4.1-7.4,2.5-16.3,3.7-24.4c0.2,6.6,0.9,13.3-0.3,19.9c-1.3,6.7-1.4,13.6-3.6,20.1
		c-3,6.9-5.2,14.2-9,20.8c-3.6,6.7-6.9,13.6-12.1,19.2c-4.4,4.9-7.5,11-13.1,14.8c-6.7,4.8-12.6,10.8-20.1,14.3
		c-5.8,3.1-11.4,6.7-17.5,9.2c-4.9,1.5-10,2.6-14.8,4.4c-4.3,1.7-8.9,1.8-13.4,1.8c1.8-0.5,3.6-1.1,5.4-1.6
		c-0.4-1.8-0.9-3.6-1.2-5.4c0.4,0.1,1.1,0.4,1.4,0.5c3.2,1.9,6.4,0.1,9.1-1.8c-0.2-2.8-0.6-5.6-0.9-8.4c0.9-0.8,1.8-1.6,2.7-2.3
		c-0.8,1.4-0.5,2.3,0.8,2.9c1.3-0.6,1.6-1.6,0.8-2.9c1.6,1.9,3.1,3.9,4.7,5.9c0-1.8,0-3.6,0-5.4c0.7,2.2,1.4,4.4,2.6,6.4
		c1.4,0.4,2.8,0.6,4.3,0.8c0.2-0.7,0.6-2.1,0.8-2.8c-1.4-1.3-2.8-2.7-4.2-4c0.8,0.3,1.6,0.7,2.3,1c-0.1-2.2-0.2-4.5-0.4-6.7
		c0.5-0.2,1.5-0.7,2.1-1c0.5,3.3,0.9,6.9,3.5,9.3c3,0.5,6.2-0.8,8.2-3.1c0.7-3.9-2.1-7.1-4-10.1c0.8-0.7,1.6-1.3,2.4-2
		c1.7,3.3,3.8,6.4,6.1,9.4c1.3-0.2,2.5-0.3,3.8-0.5c-1.7-2.8-3.8-5.4-5.9-7.9c0.6-1.8,1.2-3.7,1.7-5.6c1.7,4.1,4.8,7.8,9.4,8.3
		c-0.8-1.6-1.7-3.3-2.7-4.8c0.2-1.2,0.4-2.4,0.5-3.7c1.4,1.3,2.8,2.8,4.4,3.9c2.3,1.2,4-1.2,5.6-2.4c-2.4-0.8-4.8-1.6-6.9-2.8
		c0.6-0.5,1.2-1.1,1.8-1.6c-0.3-2.9-1-6.1,1-8.6c0.2,2.5,0.3,4.9,0.5,7.4c2,0.8,4,2,6.2,2.1c3-1.3,6.3-4.6,5-8.1
		c-1.7-1.7-3.9-2.6-5.9-3.7c0.7-1,1.3-2.1,2-3.1c2.5,1.9,5,3.8,7.5,5.8c1-1.5,2-3.1,3-4.6c-2.2-0.4-4.3-0.8-6.4-1.5
		c0.1-1.4,0.3-2.7,0.4-4.1c3,0.1,5.5,1.9,8,3.5c2,0.3,1.1-2.2,1.4-3.5c-3.2-0.9-6-2.5-8.7-4.4c0.8-2.3,1.6-4.5,2.7-6.6
		c0.7,1.6,1,3.4,2.3,4.6c2.1,1.4,4.5,2.1,6.8,3c1.8-2.8,3.9-6,2.7-9.5c-1.7-2.9-5.4-3.2-8.4-4.1c1.2-3,3.1-5.5,6.3-6.4
		c-0.8-1.4-1.7-2.8-2.5-4.2c0.3-0.4,0.8-1.1,1.1-1.5c2.7-0.1,5.3-0.1,8-0.2c-1.8-1-3.6-1.9-5.3-3c2.8,0.4,5.6,0.8,8.3,1.1
		c0.6-1.1,1.3-2.1,1.9-3.1c-2-0.4-4-0.8-6-1.1c-0.4-1.1-0.8-2.1-1.3-3.1c2.5-0.3,5-0.3,7.4-1.1c3-2,2.2-6.1,2.5-9.2
		C239,138.6,239.5,140.4,240.1,142.2 M224.7,158.6c1.7,2.9,5.7,4.7,8.8,2.9c0.4-1.2,0.7-2.4,1-3.7
		C231.1,157.7,227.9,158.1,224.7,158.6 M220.8,164.9c2.3,2.6,6.1,3.4,9.5,3.6c0.2-1.1,0.3-2.1,0.4-3.2c-2.9-0.9-5.9-1.1-8.8-1.5
		C221.6,164.1,221.1,164.6,220.8,164.9 M158.2,226.9c0,2.4,0.1,4.9,0.2,7.3c1.9-0.7,3.8-1.5,5.6-2.4
		C162.1,230.1,160.1,228.5,158.2,226.9z"/>
</g>
<g id="_x23_958988ff">
	<path class="st116" d="M9.2,123.4c1.1-1.3,2.2-2.7,3.5-3.8c2.1-0.4,4.3-0.1,6.5,0.2c-2.2,0.3-4.5,0.6-6.7,0.9c0,0.4,0,1.3,0,1.8
		c2.4,0.4,4.7,0.7,7.1,1.1c-2.6,0.1-5.1,0.1-7.7,0.2c0.2,1.4,0.5,2.8,0.8,4.2c2.3,0.4,4.6,0.7,6.9,1c-2.8,0.2-5.6,0.2-8.5,0
		c0.4,0.6,0.9,1.2,1.3,1.8c-0.6-0.1-1.9-0.1-2.5-0.2C9.5,128.1,9.4,125.7,9.2,123.4z"/>
</g>
<g id="_x23_8e6a6aff">
	<path class="st117" d="M236.6,119.3c0.9,0.2,1.8,0.4,2.8,0.5l-0.3,0.8c-0.5,1.4-0.9,2.8-1.4,4.2c-3.4,0.3-6.9,0.5-10.3,0.5
		c0.6-3.8,5.3-2.3,8-2.9C235.8,121.4,236.2,120.3,236.6,119.3z"/>
</g>
<g id="_x23_d3c3c3ff">
	<path class="st118" d="M12.4,120.6c2.2-0.3,4.5-0.5,6.7-0.9c3.4,3,2.8,7.7,1.5,11.6c-2.8-0.2-5.6-0.5-8.4-0.7
		c-0.4-0.6-0.9-1.2-1.3-1.8c2.8,0.2,5.6,0.2,8.5,0c0-1.8,0-3.6,0.1-5.4c-2.4-0.3-4.7-0.7-7.1-1.1C12.3,121.9,12.4,121.1,12.4,120.6z
		"/>
</g>
<g id="_x23_922f30ff">
	<path class="st119" d="M237.7,124.8c0.5-1.4,0.9-2.8,1.4-4.2c0.6,3.8,0.7,7.6,0.9,11.3c-1.2-0.8-2.4-1.7-3.8-2.4
		c-0.3-1.1-0.5-2.1-0.8-3.1c-2.7-0.4-5.3-0.8-8-1.1C230.8,125.3,234.3,125.1,237.7,124.8z"/>
</g>
<g id="_x23_f5f7f7ff">
	<path class="st120" d="M144.9,123.8c0.6-0.4,1.2-0.9,1.9-1.4l0,0.8c1.6,6.9,5.4,13,8.7,19.2c2.4,3.7,5.1,7.2,7.3,11
		c0.2,3,0.1,6.1,0,9.1c-1.2,0.2-2.4,0.4-3.7,0.7c-4.4-3.4-7.5-8.1-10.8-12.5c-5-5.9-8.5-12.8-12.5-19.4c-0.5-1.4-0.9-2.8-1.3-4.2
		C138.2,127.2,141.8,125.9,144.9,123.8z"/>
</g>
<g id="_x23_8a2725ff">
	<path class="st121" d="M81.3,132.2c6.4-3.3,12.4-7.6,19.2-10.2c0.7,0.3,2,0.8,2.7,1.1c-4.7,4.5-10.9,7.1-16.7,9.9
		c-8.2,1.7-13.6,8.8-21.2,11.7C69.7,139.5,75.5,135.8,81.3,132.2z"/>
</g>
<g id="_x23_4e4445ff">
	<path class="st122" d="M133.8,125.1c3.6-1.2,7.4-3.3,11.1-1.2c-3.1,2.1-6.8,3.3-10.6,3.3C134.2,126.6,133.9,125.6,133.8,125.1z"/>
</g>
<g id="_x23_cfd0cfff">
	<path class="st123" d="M244.9,130.2c0.8-2.6,2-5.1,3.1-7.6c0,7.8,1.1,15.9-0.8,23.6c-3,9.3-4.1,19.3-8.8,28.1
		c-2.3,4.6-5.5,8.7-7.5,13.5c-1.6,3.8-4.2,7.1-6.9,10.2c-3.6,4.1-6,9.2-9.9,13c-6.2,6.2-13,12-20.7,16.3c-9.2,6-18.6,11.8-29.2,14.9
		c-5.5,1.4-11,2.4-16.3,4.4c-5.1,2-10.7,1.3-16.1,1.3c5.7-0.6,11.6-1.4,16.8-4c6.3-3.2,13.3-4.4,19.5-7.8c6.1-2.6,11.7-6.1,17.5-9.2
		c7.5-3.5,13.5-9.5,20.1-14.3c5.6-3.8,8.7-9.9,13.1-14.8c5.1-5.7,8.4-12.6,12.1-19.2c3.8-6.6,6-13.9,9-20.8c1.1-2.2,2.2-4.4,2.7-6.8
		C243.8,144.1,245.1,137.2,244.9,130.2z"/>
</g>
<g id="_x23_b7090aff">
	<path class="st124" d="M11.7,123.6c2.6-0.1,5.1-0.1,7.7-0.2c0,1.8,0,3.6-0.1,5.4c-2.3-0.3-4.6-0.7-6.9-1
		C12.2,126.4,11.9,125,11.7,123.6z"/>
</g>
<g id="_x23_ada2a2ff">
	<path class="st125" d="M125.8,127.8c2.5-1.2,5.3-1.9,8-2.7c0.1,0.5,0.4,1.6,0.6,2.1c0.4,1.4,0.8,2.8,1.3,4.2
		c-0.8-0.7-1.6-1.3-2.3-2l-0.6-0.5C131,126.7,128.2,127.2,125.8,127.8z"/>
</g>
<g id="_x23_732e21ff">
	<path class="st126" d="M94.4,133.3c5.7-1.8,10.5-5.5,16.3-7c1,0.3,2.9,1,3.8,1.4c-4.2,2.3-8.6,4.1-13,5.8c-3.4,0.8-6.6,1.9-9.7,3.5
		C92.7,135.7,93.6,134.5,94.4,133.3z"/>
</g>
<g id="_x23_513636ff">
	<path class="st127" d="M125.8,127.8c2.4-0.6,5.2-1.1,6.9,1.1c-3.3,1-6.5,1.9-9.8,2.9c-2.4,0.7-4.7,1.6-6.9,2.6
		c-5,2.3-10,4.5-15,6.6c2.4-1.5,4.5-3.3,6.7-5C113.2,132,120.1,131.3,125.8,127.8z"/>
</g>
<g id="_x23_d3d5d5ff">
	<path class="st128" d="M2,128.7c0.7,0.2,2.2,0.6,2.9,0.8c0.3,9,0.7,18.2,4,26.8c0.1,0.4,0.5,1.2,0.6,1.6c-2.1-1-4-2.4-5.3-4.3
		c-1.1-4-1.9-8.1-2.7-12.1C1.6,137.2,1.9,132.9,2,128.7z"/>
</g>
<g id="_x23_e81f0eff">
	<path class="st129" d="M123,131.7c3.2-1,6.5-1.9,9.8-2.9l0.6,0.5c1.1,2.5,2.1,5,3.4,7.4c-6.7,6.6-13.5,13.2-19,21
		c-2.4,3.3-5.5,5.9-8.5,8.6c-4.1,3.6-6.8,8.5-10.5,12.5c-8.4,8.3-14.8,18.5-24.4,25.7c-1.2-0.7-2.4-1.4-3.5-2.2
		c1.5-4,4.3-7.1,7.4-10c13.9-15.1,26.9-31,41-46c3.6-4.3,8.3-8.2,9-14.1C126.6,132,124.8,131.8,123,131.7z"/>
</g>
<g id="_x23_8c6464ff">
	<path class="st130" d="M236.2,129.6c1.3,0.7,2.5,1.6,3.8,2.4c-4,2.2-8.7,1.1-13,1c0-0.5,0-1.5,0-2
		C230,130.7,233.1,130.1,236.2,129.6z"/>
</g>
<g id="_x23_403637ff">
	<path class="st131" d="M133.3,129.4c0.8,0.7,1.6,1.3,2.3,2c4,6.6,7.5,13.5,12.5,19.4c3.4,4.4,6.4,9.1,10.8,12.5
		c1.4,1.1,2.8,2.2,4.2,3.4c2.6,2.2,5.2,4.4,8.1,6.1c3.9,2.5,8.4,3.8,12,6.9c-2.9,0-5.8-0.9-8.3-2.4c-1.9-1.1-3.8-2.1-5.6-3.2
		c-3.7-2.3-7-5.3-10.3-8.2c-1-0.9-1.9-1.9-2.9-2.8c-2.9-3-5.4-6.5-7.9-9.8c-4.2-5.2-8.1-10.7-11.6-16.3
		C135.5,134.4,134.4,131.9,133.3,129.4z"/>
</g>
<g id="_x23_dae2e2ff">
	<path class="st132" d="M11.4,134.8c3.3-0.7,6.7-1.4,10-1.7c0.5,1,1,2,1.5,3.1c-2.9,0.4-5.8,0.5-8.6,1.1c-0.9,0.9-1.8,1.8-2.8,2.6
		C11.6,138.2,11.5,136.5,11.4,134.8z"/>
</g>
<g id="_x23_e1200dff">
	<path class="st133" d="M65.3,144.8c7.7-2.9,13-9.9,21.2-11.7c-4.2,4-9.5,6.7-13.8,10.6c-3.5,3.1-6.8,6.4-10.1,9.6
		c-2.3-1.3-4.7-2.7-7-4.1c1.5-0.9,3-1.8,4.6-2.6c1.2-0.1,2.4-0.2,3.6-0.3C64.3,145.8,64.8,145.3,65.3,144.8z"/>
</g>
<g id="_x23_584c4cff">
	<path class="st134" d="M80.7,141.7c4.6-2.7,8.9-6.1,13.7-8.4c-0.8,1.2-1.7,2.4-2.6,3.6c-6.4,4.2-12.7,8.5-19.1,12.8
		c-7.7,5.6-14.4,12.4-21.6,18.6c0.1-0.5,0.3-1.4,0.4-1.9c3.5-5.1,8.6-8.7,13.1-12.8C70,149.7,74.9,145.1,80.7,141.7z"/>
</g>
<g id="_x23_edf3f3ff">
	<path class="st135" d="M27.6,135.8c1.2,1.2,2.4,2.5,3.6,3.8c0.1,0.4,0.3,1.1,0.4,1.5c1.1,4.1,1.2,8.4,2.8,12.4
		c1.1,2.8,2.4,5.6,3.4,8.4c2.8,8.4,8.2,15.6,13.8,22.3c2.8,3.2,5,6.9,8.4,9.6c2.2,1.7,4.5,3.4,6.7,5.2c1.4,1.1,2.7,2.2,4.1,3.3
		c1.2,0.8,2.3,1.5,3.5,2.2c4.4,2.3,8.3,5.4,13.1,6.9c4,1.2,8.1,2.2,11.9,4c2.3,1.2,4.9,1.4,7.5,1.2c0.7,1,1.3,2,2,3.1
		c-4.4,0.1-8.8,0.2-13.1-0.5c-6.2-2.3-12.2-5.3-18.4-7.7c-5.3-2.2-9.4-6.5-14-9.8c-8.5-6.2-15.1-14.5-21.4-22.8
		c-3-4.2-4.7-9.2-7.1-13.7c-2.5-5.7-5.4-11.2-6.3-17.4C28.1,143.8,27.9,139.8,27.6,135.8z"/>
</g>
<g id="_x23_cd0606ff">
	<path class="st136" d="M117.8,157.7c5.5-7.7,12.3-14.3,19-21c3.5,5.7,7.4,11.2,11.6,16.3c-1.2,3-2.8,5.9-5.3,8
		c-5.8,5.3-11.1,11.1-15.8,17.3c-3.4,4.5-7.8,8.2-11.4,12.5c-5.9,6.9-12.5,13.2-17.6,20.7c-3.6,0.3-7.2,0.4-10.8-0.1
		c-4.7-1.5-8.7-4.6-13.1-6.9c9.5-7.2,15.9-17.4,24.4-25.7c3.8-3.9,6.4-8.9,10.5-12.5C112.3,163.6,115.4,161,117.8,157.7z"/>
</g>
<g id="_x23_a51618ff">
	<path class="st137" d="M229.6,142.9c-0.1-2.4,0.5-6.2,3.5-6.5c0.9,0.9,1.8,1.9,2.4,3c0.1,1.8-0.9,3.5-1.4,5.3
		C232.5,144.4,230.7,144.4,229.6,142.9z"/>
</g>
<g id="_x23_d7d7d6ff">
	<path class="st138" d="M15,141.2c2.8-0.6,5.8-0.7,8.6-0.7c-0.2,1.3-0.5,2.6-0.7,3.8c-2.2,0.2-4.4,0.3-6.6,0.6
		c-1.2,1.4-2.4,2.8-3.7,4.1c-0.4-1.6-1.1-3.2-1.1-4.9C12.2,142.8,13.8,142.1,15,141.2z"/>
</g>
<g id="_x23_d1605fff">
	<path class="st139" d="M31.6,141.1c0.7,0.8,1.4,1.5,2.1,2.3c-0.1,3.8,1,7.5,2.5,10.9c0.8,2.5,1.2,5.1,1.6,7.6
		c-1.1-2.8-2.3-5.6-3.4-8.4C32.8,149.6,32.7,145.2,31.6,141.1z"/>
</g>
<g id="_x23_412628ff">
	<path class="st140" d="M96.3,141.6c1.3-0.1,2.6-0.2,4-0.3c-3.1,1.7-6.5,3.3-8.9,6.1c-2.1,2.4-3.9,5-5.8,7.5
		c0.2-1.2,0.4-2.3,0.6-3.4c0.5-1.9,0.9-3.9,1.8-5.6C90.7,144.2,93.6,143.1,96.3,141.6z"/>
</g>
<g id="_x23_eac9c8ff">
	<path class="st141" d="M23.1,148c3.1,3.5,3.8,9.2-0.3,12.2c-2.1-0.1-4.2,0-6.3,0.1c-1.2-3-2.3-6-3.3-9.1
		C16.2,149.6,19.5,148.3,23.1,148 M15.6,152.8c1.1,1.8,2.2,3.7,3.3,5.5c1.3-0.8,2.7-1.6,3.9-2.6c0.8-1.6,0.5-3.5,0.7-5.2
		C20.5,150.2,17.8,151,15.6,152.8z"/>
</g>
<g id="_x23_6e6566ff">
	<path class="st142" d="M83.6,149c1.1-0.9,1.8-0.7,1.9,0.8C84.4,150.7,83.7,150.5,83.6,149z"/>
</g>
<g id="_x23_6b2626ff">
	<path class="st143" d="M79.4,150.3c1,0.2,2.1,0.3,3.1,0.5c-0.7,1.4-1.3,2.7-2,4c-4.9,0.9-8.8,4.2-12.8,6.9c0.9-1.9,1.8-3.8,3-5.5
		C74.6,156.1,77.2,153.1,79.4,150.3z"/>
</g>
<g id="_x23_9a9c9aff">
	<path class="st144" d="M223.8,150.8c2.1-0.3,4.1-0.5,6.2-0.6c2,0.3,4,0.7,6,1.1c-0.7,1.1-1.3,2.1-1.9,3.1c-2.8-0.3-5.6-0.7-8.3-1.1
		C225,152.5,224.4,151.6,223.8,150.8z"/>
</g>
<g id="_x23_ae0d0eff">
	<path class="st145" d="M15.6,152.8c2.3-1.8,5-2.6,7.9-2.3c-0.2,1.7,0.1,3.6-0.7,5.2c-1.2,1-2.6,1.8-3.9,2.6
		C17.7,156.5,16.7,154.7,15.6,152.8z"/>
</g>
<g id="_x23_f9fafaff">
	<path class="st146" d="M82.6,150.9c1.2,0.2,2.5,0.4,3.7,0.6c-0.2,1.1-0.4,2.3-0.6,3.4l-0.1,0.7c-2,1.7-3.6,3.8-3.6,6.5
		c-0.1,0.4-0.2,1.1-0.3,1.5c-1.1,0.7-2.1,1.3-3.2,2c0,1.3-0.1,2.6-0.2,3.9c-0.1,0.4-0.2,1.2-0.2,1.5c-1.3,0.6-2.7,1.2-4,1.7
		c0.6-5.1,3.6-9.4,4.7-14.4c0.6-1.2,1.2-2.4,1.7-3.6C81.2,153.6,81.9,152.2,82.6,150.9z"/>
</g>
<g id="_x23_b80c0cff">
	<path class="st147" d="M148.4,153.1c2.5,3.4,5,6.8,7.9,9.8c-2.5,1.1-5.3,2-7.1,4.2c-12.2,14.8-26.4,27.9-37.8,43.3
		c-1.8,2.6-4.6,4.1-7.4,5.2c2.1,0.3,4.2,0.7,6.2,1l-0.9,0c-0.6,0-1.8,0-2.4,0c-2.6,0.1-5.2-0.1-7.5-1.2c-3.8-1.7-7.9-2.7-11.9-4
		c3.6,0.5,7.2,0.4,10.8,0.1c5.1-7.5,11.7-13.8,17.6-20.7c3.7-4.3,8-7.9,11.4-12.5c4.7-6.2,10-12,15.8-17.3
		C145.6,159,147.2,156.1,148.4,153.1z"/>
</g>
<g id="_x23_f1f2f1ff">
	<path class="st148" d="M4.2,153.6c1.3,1.9,3.3,3.3,5.3,4.3c2,5,3.6,10.2,5.9,15c-1.6,0.8-3.1,1.5-4.7,2.3
		C7.2,168.5,5.9,160.9,4.2,153.6z"/>
</g>
<g id="_x23_ced0cfff">
	<path class="st149" d="M162.7,153.5c1.3,2.4,3.1,4.4,5,6.4c-1.3,2.3-2.8,4.6-4.4,6.8c-1.4-1.2-2.8-2.3-4.2-3.4
		c1.2-0.2,2.4-0.4,3.7-0.7C162.8,159.6,162.9,156.5,162.7,153.5z"/>
</g>
<g id="_x23_9da4a2ff">
	<path class="st150" d="M224.7,158.6c3.2-0.5,6.5-0.8,9.7-0.8c-0.3,1.2-0.6,2.5-1,3.7C230.3,163.2,226.4,161.5,224.7,158.6z"/>
</g>
<g id="_x23_a9a5a3ff">
	<path class="st151" d="M167.7,159.9l0.5,0.5c1,1.2,2.1,2.3,3.2,3.4c1.4,1.5,2.8,3,4.3,4.4l0.5,0.5c-2.4-0.9-4.9-0.4-7.2,0.6
		c0.8,1.1,1.6,2.3,2.4,3.4c-2.9-1.7-5.6-3.9-8.1-6.1C164.9,164.5,166.3,162.2,167.7,159.9z"/>
</g>
<g id="_x23_d4b7b7ff">
	<path class="st152" d="M25.3,160.8c0.8,0.2,2.4,0.7,3.1,0.9c-0.6,0.6-1.2,1.2-1.9,1.8c-2.2,1.3-4.4,2.6-6.4,4.2
		c-1-1-1.9-1.9-2.9-2.9C19.7,163.2,22.5,161.9,25.3,160.8z"/>
</g>
<g id="_x23_ac1011ff">
	<path class="st153" d="M156.3,163c0.9,1,1.9,1.9,2.9,2.8c1.1,1.8,2,3.6,3,5.4c-8.7,6.3-14.3,15.7-22,23
		c-6.6,6.2-11.1,14.2-17.9,20.1c-3.2,3-8,2-12,2.3c-2.1-0.3-4.2-0.6-6.2-1c2.9-1.1,5.7-2.6,7.4-5.2c11.4-15.4,25.6-28.5,37.8-43.3
		C151.1,165,153.8,164,156.3,163z"/>
</g>
<g id="_x23_b44b49ff">
	<path class="st154" d="M47.4,168.5c1.4-1.4,2.9-2.6,4.4-4c-0.1,0.5-0.2,1.4-0.3,1.8c-0.1,0.5-0.3,1.4-0.4,1.9c-0.3,1-0.6,2-1,3
		c-0.9,0.2-1.9,0.4-2.8,0.6C47.3,170.8,47.4,169.6,47.4,168.5z"/>
</g>
<g id="_x23_9a8787ff">
	<path class="st155" d="M220.8,164.9c0.3-0.3,0.8-0.8,1.1-1.1c3,0.4,6,0.6,8.8,1.5c-0.1,1.1-0.3,2.1-0.4,3.2
		C226.9,168.3,223.1,167.5,220.8,164.9z"/>
</g>
<g id="_x23_aa1213ff">
	<path class="st156" d="M207.3,179.3c3.4-4,5-9.1,7.1-13.8c-0.2,2.5,0.4,4.9,1.3,7.2c-0.2,0.4-0.7,1.3-1,1.7
		c-1.1,2.1-1.9,4.4-2.7,6.6c-0.4,1.4-0.5,2.9-0.7,4.4c-0.1,1.3-0.3,2.7-0.4,4.1c-1-0.4-2.1-0.9-3.1-1.4c-0.3,0.4-0.8,1.2-1,1.6
		c-0.7,1-1.3,2.1-2,3.1c-1.9,0.7-3.9,1.4-5.8,2.3c-2,2.5-1.3,5.7-1,8.6c-0.6,0.5-1.2,1.1-1.8,1.6c-0.9-0.7-1.9-1.5-2.8-2.3
		c-0.1,1.2-0.2,2.4-0.3,3.6c-0.2,1.2-0.3,2.4-0.5,3.7c-2.1-1.5-4.3-2.7-6.7-3.5c-0.5,1.9-1.1,3.7-1.7,5.6c-1.4-0.3-2.7-0.6-4-0.9
		c-0.8,0.7-1.6,1.4-2.4,2c-2.5,1.5-5.1,2.7-7.7,3.9c-0.5,0.2-1.6,0.7-2.1,1c0.1,2.2,0.3,4.5,0.4,6.7c-0.8-0.3-1.6-0.6-2.3-1
		c-1.2-1.1-2.4-2.2-3.5-3.3c0,1,0,1.9,0.1,2.9c0,1.8,0,3.6,0,5.4c-1.5-2-3-4-4.7-5.9c-0.4,0-1.2,0.1-1.6,0.1
		c-0.9,0.7-1.8,1.5-2.7,2.3c-3.3-1-7.4-1.8-9.9,1.2c-0.7,2.8,0,5.8,0.3,8.6c0.4,1.8,0.8,3.6,1.2,5.4c-1.8,0.6-3.6,1.1-5.4,1.6
		c-4.9,0.9-9.8,2.1-14.8,2.1c-6.8,0.2-13.5-2.2-20.3-2c-3.4,0-6.7-0.9-9.8-2.1c-4.2-1.7-8.6-2.7-12.8-4.3c-0.3-0.1-1-0.4-1.4-0.5
		c-6.2-2.1-11.7-5.8-17.6-8.7c-2.5-1.2-4.9-2.5-7-4.3c-2.3-1.8-4.6-3.7-6.9-5.5c-3.6-3.4-8.1-5.9-11.1-9.9c-2.5-3.2-5.1-6.2-7.6-9.4
		c-0.8-1.1-1.7-2.3-2.6-3.4c0.6-3.3-0.7-6.9,1.1-10c-0.2,4.2,2.8,8.6,7,9.4c2.7-1.8,4.5-4.5,6.3-7.2c1.7,1.8,3.5,3.5,5.2,5.3
		c-1.1-0.5-2.2-1-3.3-1.5c-2.2,2.1-4.7,4-7.1,5.8c0.1,0.8,0.2,2.5,0.3,3.3c1.5-1.2,3-2.5,4.5-3.7c0.4,1.4,0.7,2.7,1,4.1
		c0.3,2.3,0.3,4.7,0.4,7.1c0.9-0.2,1.8-0.4,2.7-0.5c0.6-2.1,1.1-4.2,2.2-6c-0.1,1.3-0.1,2.7-0.2,4c1.1-0.4,2.2-0.8,3.2-1.2
		c-1,2.2-2.1,4.3-2.6,6.7c1.7,2.2,4.3,4.1,7.2,3.4c2.1-1,3.8-2.6,5.6-4.1c0.8,0.1,1.6,0.2,2.5,0.3c-2,3.2-6.5,7.4-3.1,11.2
		c2.7,0.7,2.7-2.1,3.3-3.9c0.6,1.1,1.2,2.3,1.7,3.4c-0.3,0.6-0.9,1.6-1.2,2.2c2.6,1.7,5.4,3.3,8.4,4.3c1,0,2,0,3,0
		c0.5-3.6,2.4-7.1,1.2-10.8c-2.3,2.6-3.8,5.9-5.4,8.9c-1.6-2-1.8-4.5-1.2-6.8c0.2,0.7,0.4,2,0.6,2.6c1.4-1.3,2.3-3.1,3.2-4.8
		c1.5,0,2.9,0,4.4,0c0.2,2.2,0.3,4.4,0.4,6.6c1.1-0.7,2.2-1.3,3.3-1.9c-0.3,0.7-0.9,2.1-1.2,2.8c-0.6,1.8-2.1,4-0.9,5.9
		c1.9,1.5,4.1,2.3,6.2,3.4c1.1-0.8,2.2-1.6,3.3-2.5c1.9-2.1,1.6-5,1.5-7.6c1.1,0.9,2.2,1.9,3.3,2.9c-1.1,3.1-2.2,6.1-3,9.3
		c1.8-0.2,3.6-0.5,5.3-0.8c1.2-0.2,2.3-0.4,3.5-0.5c-1.4,3.2,2,4.6,4.6,4.4c-1.2-3.4-1.6-7-1.2-10.6c-0.6-0.5-1.8-1.5-2.4-2l0.1-1.1
		c1.3,0.3,2.5,0.7,3.8,1.1c0.2,1.5,0.4,2.9,0.6,4.4c0.8-0.9,1.6-1.8,2.4-2.7c-0.5,3.1-1.5,6.3-1,9.4c0.7,2.8,4.1,2.3,6.2,2.5
		c6.9-0.1,13.9,0.1,20.8-0.4c-0.2-0.3-0.6-0.8-0.8-1c-0.2-0.2-0.5-0.6-0.7-0.8c-2.7-3.1-1.4-7.8-4.4-10.6c-0.5,3.6-1,7.3-2.1,10.8
		c-0.8-0.5-2.4-1.4-3.2-1.9c0-2.7-0.1-5.4-0.1-8.2c-0.9,0.7-1.8,1.3-2.7,2c-0.9-0.8-1.8-1.6-2.8-2.3c-0.3-1.1-0.5-2.2-0.8-3.4
		c6.3,0.9,12.8,0.9,19-0.6c4.5-0.9,9-1.6,13.5-2.2c8.1-2.2,15.6-6.1,23.4-9.3c6.4-3.3,11.6-8.4,17.2-12.7
		C197.1,193,201.9,185.8,207.3,179.3 M135.6,227.1c1,3.6,0.9,7.4,0.9,11.2c1.7,0,3.4-0.2,5-0.6c-2.1-3.1-3.2-6.6-3.3-10.3
		C137.4,227.3,136.5,227.2,135.6,227.1z"/>
</g>
<g id="_x23_9e1a1cff">
	<path class="st157" d="M159.2,165.8c3.3,2.9,6.6,5.8,10.3,8.2c-5,9.7-12.4,17.8-20.1,25.4c-5.4,6.5-12.3,11.8-16.4,19.2
		c-7.9,0-16,0.8-23.6-1.9l0.9,0c4-0.4,8.7,0.6,12-2.3c6.8-5.9,11.3-13.9,17.9-20.1c7.7-7.3,13.3-16.7,22-23
		C161.2,169.4,160.3,167.5,159.2,165.8z"/>
</g>
<g id="_x23_cfd0d0ff">
	<path class="st158" d="M169,169.3c2.3-1,4.8-1.5,7.2-0.6c4.8,4.6,10.5,8.1,16.7,10.4c-3.1,0.5-6.3,0.8-9.5,0.5
		c-3.5-3.1-8.1-4.4-12-6.9C170.5,171.6,169.8,170.4,169,169.3z"/>
</g>
<g id="_x23_f8f0f0ff">
	<path class="st159" d="M21.5,175.6c-1.1-4.1,2.6-7.2,6.3-7.9c1.2,0.6,2.3,1.3,3.4,2c-2.6,1.3-5.3,2.3-8,3.3
		c0.4,0.4,1.2,1.3,1.6,1.8C23.8,175,22.7,175.3,21.5,175.6z"/>
</g>
<g id="_x23_a2a09eff">
	<path class="st160" d="M218.1,168.5c2.9,0.8,6.7,1.1,8.4,4.1c1.3,3.5-0.9,6.7-2.7,9.5c-2.3-0.9-4.7-1.6-6.8-3
		c-1.2-1.2-1.6-3.1-2.3-4.6c0.2-0.4,0.7-1.3,1-1.7C216.5,171.3,217.3,169.9,218.1,168.5 M218.7,172.2c-1.2,3.3,0.8,5.8,3.3,7.7
		c2.4-2.1,2.6-5.1,2.2-8C222.5,172,220.6,172.1,218.7,172.2z"/>
</g>
<g id="_x23_8b2123ff">
	<path class="st161" d="M218.7,172.2c1.9-0.1,3.7-0.2,5.6-0.3c0.3,3,0.1,5.9-2.2,8C219.6,178,217.6,175.5,218.7,172.2z"/>
</g>
<g id="_x23_902425ff">
	<path class="st162" d="M169.5,173.9c1.8,1.1,3.7,2.2,5.6,3.2c0.5,2.1,2,4.4,0.5,6.4c-3.2,5.3-8.2,9.2-12,13.9
		c-3.8,5.4-8.5,10-12.9,14.9c0.6,0.5,1.6,1.5,2.2,2c-6.2,3.1-13.3,2.8-20,4.2c4.1-7.4,11.1-12.7,16.4-19.2
		C157.1,191.8,164.4,183.6,169.5,173.9z"/>
</g>
<g id="_x23_f5f1f1ff">
	<path class="st163" d="M25.4,176.1c2.2,0.1,4.4,0.2,6.5,0.3c-2.1,1.9-4.3,3.7-6.5,5.4C25.4,180,25.4,178.1,25.4,176.1z"/>
</g>
<g id="_x23_c97373ff">
	<path class="st164" d="M32.1,181.7c2.1-1.3,4.8-2.1,6.5,0.2c-0.6,0.6-1.1,1.2-1.7,1.9c-0.4-0.2-1.1-0.6-1.5-0.7
		C34.3,182.6,33.2,182.1,32.1,181.7z"/>
</g>
<g id="_x23_a9aeacff">
	<path class="st165" d="M211.4,185.4c0.1-1.5,0.3-2.9,0.7-4.4c2.6,1.9,5.5,3.5,8.7,4.4c-0.3,1.2,0.6,3.8-1.4,3.5
		C216.9,187.3,214.4,185.6,211.4,185.4z"/>
</g>
<g id="_x23_e9e8e7ff">
	<path class="st166" d="M29,184.2c1-0.9,2.1-1.7,3.1-2.5c1.1,0.4,2.2,0.9,3.2,1.4c-1.1,1.2-2.3,2.3-3.4,3.5c0.8,1.1,1.5,2.2,2.4,3.1
		c1.7,0,3.3-0.4,5-0.6c-0.7-1.8-1.5-3.6-2.4-5.3c0.6-0.6,1.1-1.2,1.7-1.9c1.2,1.5,2.4,3.1,3.7,4.5c-1.8,2.6-3.6,5.4-6.3,7.2
		C31.8,192.7,28.8,188.4,29,184.2z"/>
</g>
<g id="_x23_ac1415ff">
	<path class="st167" d="M32,186.6c1.1-1.2,2.2-2.4,3.4-3.5c0.4,0.2,1.1,0.6,1.5,0.7c1,1.7,1.7,3.5,2.4,5.3c-1.6,0.3-3.3,0.6-5,0.6
		C33.5,188.7,32.7,187.6,32,186.6z"/>
</g>
<g id="_x23_c04032ff">
	<path class="st168" d="M68.3,187.8c0.2-1.5,0.6-3,0.9-4.4c0.7,1.2,1.3,2.5,2,3.7C70.2,187.4,69.3,187.6,68.3,187.8z"/>
</g>
<g id="_x23_d3d7d6ff">
	<path class="st169" d="M22.6,185.9c1.5,2.9,3.2,5.8,5.3,8.3c0.9,1.1,1.7,2.3,2.6,3.4c0.9,3.1,1.2,6.3,1.5,9.5c-2.5-2.9-5.3-5.6-7-9
		C23.2,194.3,23.4,189.9,22.6,185.9z"/>
</g>
<g id="_x23_d7d3d2ff">
	<path class="st170" d="M37.1,196.1c2.4-1.9,4.9-3.7,7.1-5.8c1.1,0.5,2.2,1,3.3,1.5c-1.9,1.3-3.8,2.6-5.6,3.9
		c-1.5,1.2-3,2.4-4.5,3.7C37.3,198.6,37.1,196.9,37.1,196.1z"/>
</g>
<g id="_x23_afb7b6ff">
	<path class="st171" d="M199.1,195.1c1.9-0.9,3.8-1.6,5.8-2.3c2,1.2,4.3,2,5.9,3.7c1.3,3.5-2,6.8-5,8.1c-2.2-0.1-4.2-1.4-6.2-2.1
		C199.4,200.1,199.3,197.6,199.1,195.1 M200.9,197.7c1.2,1.9,2.3,3.9,3.4,5.9c2.2-1.9,4.8-5.4,2.3-8.1
		C204.2,194.6,202.4,196.3,200.9,197.7z"/>
</g>
<g id="_x23_c6c4c3ff">
	<path class="st172" d="M42.9,199.8c2.6-1.7,5.2-3.7,8.1-5c-0.2,2.2-1.4,3.9-2.8,5.5c-1.2,1.8-1.7,3.9-2.2,6
		c-0.9,0.2-1.8,0.3-2.7,0.5C43.2,204.5,43.2,202.1,42.9,199.8z"/>
</g>
<g id="_x23_8d1f22ff">
	<path class="st173" d="M200.9,197.7c1.6-1.4,3.4-3.1,5.6-2.2c2.5,2.7-0.1,6.2-2.3,8.1C203.1,201.6,202,199.6,200.9,197.7z"/>
</g>
<g id="_x23_b6bcbaff">
	<path class="st174" d="M30.5,197.6c2.5,3.2,5.1,6.2,7.6,9.4c3.1,4,7.5,6.4,11.1,9.9c-3.5-2.2-7.3-4.5-11.7-4.1
		c-1.9-1.8-3.8-3.7-5.6-5.7C31.7,203.9,31.4,200.7,30.5,197.6z"/>
</g>
<g id="_x23_c9c9c8ff">
	<path class="st175" d="M51.2,203.2c2.1-0.6,4.6-1.3,6.7-0.1c2.3,1.1,2.6,4,3.5,6.1c-1.8,1.5-3.5,3.1-5.6,4.1
		c-2.9,0.7-5.5-1.2-7.2-3.4C49.2,207.5,50.3,205.4,51.2,203.2 M50.4,208c1.3,1.9,3.2,2.9,5.4,3.3c0.7-1.2,1.4-2.3,2.1-3.5
		c-1-0.9-1.8-2.1-3-2.7C53.4,205.9,51.9,207,50.4,208z"/>
</g>
<g id="_x23_afb3b1ff">
	<path class="st176" d="M193.5,203c0.9,0.8,1.8,1.5,2.8,2.3c2.2,1.2,4.6,1.9,6.9,2.8c-1.6,1.2-3.3,3.6-5.6,2.4
		c-1.6-1.1-3-2.6-4.4-3.9C193.3,205.4,193.4,204.2,193.5,203z"/>
</g>
<g id="_x23_aa0f10ff">
	<path class="st177" d="M50.4,208c1.5-1,3-2.1,4.6-2.9c1.2,0.6,2,1.8,3,2.7c-0.7,1.2-1.4,2.3-2.1,3.5
		C53.6,210.9,51.7,209.9,50.4,208z"/>
</g>
<g id="_x23_cdc9c8ff">
	<path class="st178" d="M63.9,209.5c0.5,0.1,1.5,0.2,2,0.2c-0.6,2.4-1.2,4.7-1.8,7.1c-0.6,1.8-0.6,4.6-3.3,3.9
		C57.4,216.9,62,212.7,63.9,209.5z"/>
</g>
<g id="_x23_9ca3a2ff">
	<path class="st179" d="M180.1,211.4c1.4,0.3,2.7,0.6,4,0.9c2.1,2.5,4.1,5.1,5.9,7.9c-1.3,0.2-2.5,0.3-3.8,0.5
		C184,217.8,181.8,214.7,180.1,211.4z"/>
</g>
<g id="_x23_dcdedeff">
	<path class="st180" d="M37.6,212.8c4.3-0.5,8.1,1.9,11.7,4.1c2.3,1.8,4.6,3.7,6.9,5.5c-0.8,1.1-1.6,2.2-2.3,3.2
		C48.2,221.5,42.5,217.7,37.6,212.8z"/>
</g>
<g id="_x23_cfbab9ff">
	<path class="st181" d="M65.9,220.1c1.6-2.9,3.2-5.9,5.6-8.2c-0.1,2.1-0.4,4.1-0.7,6.1c-0.6,2.4-0.4,4.9,1.2,6.8
		c0.4,0.6,0.8,1.2,1.2,1.8c-3-1-5.8-2.6-8.4-4.3C65,221.8,65.6,220.7,65.9,220.1z"/>
</g>
<g id="_x23_9a9695ff">
	<path class="st182" d="M170,217.3c2.6-1.2,5.2-2.5,7.7-3.9c1.9,3.1,4.7,6.3,4,10.1c-2,2.2-5.2,3.6-8.2,3.1
		C170.9,224.3,170.5,220.6,170,217.3 M174.3,217.1c-5,1.8,0.8,10.4,4.1,6.3C181.5,220.7,177.7,215.7,174.3,217.1z"/>
</g>
<g id="_x23_d7dfdfff">
	<path class="st183" d="M71.9,224.9c1.7-3.1,3.1-6.3,5.4-8.9c1.1,3.7-0.7,7.2-1.2,10.8c-1,0-2,0-3,0
		C72.7,226.1,72.3,225.5,71.9,224.9z"/>
</g>
<g id="_x23_a8a9a7ff">
	<path class="st184" d="M106.9,216.7c0.6,0,1.8,0,2.4,0c7.6,2.8,15.7,1.9,23.6,1.9c-1,0.9-1.9,1.9-2.9,2.8c2.1,0.4,4.1,0.8,6.2,1.1
		c-6.2,1.4-12.7,1.5-19,0.6c-7.1-1.1-14.5-1.3-21.4-3.9c4.3,0.8,8.7,0.6,13.1,0.5C108.2,218.7,107.6,217.7,106.9,216.7z"/>
</g>
<g id="_x23_892325ff">
	<path class="st185" d="M174.3,217.1c3.4-1.4,7.2,3.6,4.1,6.3C175.1,227.6,169.3,218.9,174.3,217.1z"/>
</g>
<g id="_x23_dfdbdbff">
	<path class="st186" d="M82.6,220.6c3.2-0.3,6.4,0.2,9.1,2c0,2.6,0.3,5.5-1.5,7.6c-0.8-0.4-1.7-0.8-2.6-1.2c0.6-1.4,1.2-2.7,1.8-4
		c-1.9-0.4-3.7-0.8-5.6-1.1c-0.6-0.1-1.7-0.3-2.3-0.4C81.8,222.6,82.3,221.2,82.6,220.6z"/>
</g>
<g id="_x23_8f9190ff">
	<path class="st187" d="M162.5,223.6c0-0.9-0.1-1.9-0.1-2.9c1.2,1.1,2.3,2.2,3.5,3.3c1.4,1.3,2.8,2.7,4.2,4
		c-0.2,0.7-0.6,2.1-0.8,2.8c-1.4-0.2-2.9-0.4-4.3-0.8C163.9,228.1,163.2,225.8,162.5,223.6z"/>
</g>
<g id="_x23_8b6e6eff">
	<path class="st188" d="M156.3,223.2c0.4,0,1.2-0.1,1.6-0.1c0.8,1.4,0.5,2.4-0.8,2.9C155.8,225.5,155.5,224.6,156.3,223.2z"/>
</g>
<g id="_x23_cdbfbeff">
	<path class="st189" d="M80.6,229.2c-1.3-1.9,0.3-4,0.9-5.9c0.6,0.1,1.7,0.3,2.3,0.4c-0.1,1.4-0.2,2.8-0.4,4.2
		c1.4,0.3,2.8,0.6,4.2,1c0.9,0.4,1.7,0.8,2.6,1.2c-1.1,0.8-2.2,1.7-3.3,2.5C84.8,231.6,82.5,230.7,80.6,229.2z"/>
</g>
<g id="_x23_ae1112ff">
	<path class="st190" d="M83.8,223.8c1.9,0.4,3.7,0.8,5.6,1.1c-0.6,1.3-1.2,2.7-1.8,4c-1.4-0.4-2.8-0.7-4.2-1
		C83.5,226.5,83.6,225.1,83.8,223.8z"/>
</g>
<g id="_x23_e5ceceff">
	<path class="st191" d="M95,225.4c1-0.4,2-0.8,3-1.2c-0.8,3.2-2.1,6.5-0.6,9.7c-1.8,0.3-3.6,0.5-5.3,0.8
		C92.8,231.6,93.9,228.5,95,225.4z"/>
</g>
<g id="_x23_a19695ff">
	<path class="st192" d="M143.7,226.6c2.5-3,6.6-2.1,9.9-1.2c0.4,2.8,0.7,5.6,0.9,8.4c-1-0.2-2-0.3-3-0.5c0.1-2.8-1-5.2-2.6-7.4
		c-0.9,1-1.9,2-2.5,3.2c0.1,1.6,0.6,3.2,1.1,4.7c0.2,0.6,0.6,1.8,0.8,2.4c-1-0.2-2-0.4-2.9-0.6c-0.4-0.1-1.1-0.3-1.4-0.5
		C143.7,232.4,142.9,229.5,143.7,226.6z"/>
</g>
<g id="_x23_f0f0efff">
	<path class="st193" d="M101.9,225.3c0.6,0.5,1.8,1.5,2.4,2c-0.4,3.6,0,7.2,1.2,10.6c-2.6,0.2-6-1.2-4.6-4.4
		C101.3,230.7,101.6,228,101.9,225.3z"/>
</g>
<g id="_x23_ae6565ff">
	<path class="st194" d="M108.8,226.9c2.7-1.8,6.2-0.3,9.2-0.4c0.9,0.8,1.8,1.6,2.8,2.3c0.2,3.1,0.4,6.1,0.7,9.2
		c1.6,0.1,3.2,0.3,4.8,0.4c0.1-0.4,0.4-1.3,0.5-1.7c1.1-3.5,1.6-7.2,2.1-10.8c-0.2,4,0.3,8,1.1,12c1.1-0.5,2.2-1,3.3-1.4
		c0.2,0.2,0.5,0.6,0.7,0.8c0.2,0.2,0.6,0.8,0.8,1c-6.9,0.5-13.9,0.2-20.8,0.4c-2.2-0.2-5.5,0.3-6.2-2.5
		C107.3,233.1,108.3,230,108.8,226.9 M110.2,227.2c-0.6,1.4-0.6,3.1-0.7,4.6c2-2.1,4.7-2.7,7.4-1.7l0.1,1c-1.7-0.1-3.4-0.2-5-0.2
		c0,0.8-0.1,2.4-0.1,3.2c1.8,0.3,3.6,0.7,5.4,1l0.1,1.3c-2.7-0.2-5.3-1.1-7.8-2.2c0.1,1.4,0.2,2.7,0.2,4.1c2.9,0,5.9-0.1,8.8-0.7
		c0.2-2.8,0.5-5.6,0.1-8.3C117.3,226.1,113,226,110.2,227.2z"/>
</g>
<g id="_x23_c6b2b2ff">
	<path class="st195" d="M120.8,228.8c0.9-0.7,1.8-1.4,2.7-2c0.1,2.7,0.1,5.4,0.1,8.2c0.8,0.5,2.4,1.4,3.2,1.9
		c-0.1,0.4-0.4,1.3-0.5,1.7c-1.6-0.1-3.2-0.3-4.8-0.4C121.2,234.9,121,231.8,120.8,228.8z"/>
</g>
<g id="_x23_bdadadff">
	<path class="st196" d="M135.6,227.1c0.9,0.1,1.8,0.2,2.7,0.2c0,3.7,1.2,7.2,3.3,10.3c-1.7,0.4-3.3,0.6-5,0.6
		C136.5,234.6,136.6,230.8,135.6,227.1z"/>
</g>
<g id="_x23_9b1b1dff">
	<path class="st197" d="M146.4,229.2c0.6-1.2,1.6-2.1,2.5-3.2c1.6,2.2,2.7,4.7,2.6,7.4c-1.3,0.1-2.6,0.3-4,0.4
		C147,232.4,146.5,230.8,146.4,229.2z"/>
</g>
<g id="_x23_868483ff">
	<path class="st198" d="M158.2,226.9c1.9,1.6,3.9,3.2,5.8,4.9c-1.8,1-3.7,1.7-5.6,2.4C158.3,231.7,158.2,229.3,158.2,226.9z"/>
</g>
<g id="_x23_ab0d0fff">
	<path class="st199" d="M111.9,230.9c1.7,0.1,3.4,0.2,5,0.2c0.1,1.3,0.2,2.7,0.2,4c-1.8-0.4-3.6-0.7-5.4-1
		C111.8,233.3,111.9,231.7,111.9,230.9z"/>
</g>
<g id="_x23_875555ff">
	<path class="st200" d="M147.5,233.9c1.3-0.2,2.6-0.3,4-0.4c1,0.1,2,0.3,3,0.5c-2.7,1.9-5.9,3.7-9.1,1.8c1,0.2,1.9,0.4,2.9,0.6
		C148.1,235.7,147.7,234.5,147.5,233.9z"/>
</g>
<g id="_x23_eaebebff">
	<path class="st201" d="M73.7,234.9c2.3,0.1,4.7,0.2,7,0.5c0.3,0.1,1,0.4,1.4,0.5c2.4,1.8,5.1,3,8.1,3.7c-0.5,1.3-1,2.7-1.4,4
		C83,242.3,77.5,239.5,73.7,234.9z"/>
</g>
<g id="_x23_cccecdff">
	<path class="st202" d="M82.1,236c4.2,1.6,8.6,2.7,12.8,4.3c3.1,1.2,6.5,2.1,9.8,2.1c1,1.9,2.1,3.8,3.2,5.6
		c-6.2-2.1-12.6-3.9-19.1-4.3c0.5-1.3,0.9-2.7,1.4-4C87.2,239,84.5,237.8,82.1,236z"/>
</g>
<g id="_x23_a9a8a6ff">
	<path class="st203" d="M153.2,240.5c4.8-1.8,9.9-2.9,14.8-4.4c-6.2,3.4-13.2,4.6-19.5,7.8c-5.2,2.6-11,3.4-16.8,4
		c-7.9,0.5-15.9,0.6-23.8,0.2c-1.1-1.9-2.1-3.8-3.2-5.6c6.9-0.2,13.5,2.1,20.3,2c5,0.1,9.9-1.1,14.8-2.1
		C144.3,242.2,149,242.1,153.2,240.5z"/>
</g>
</svg>
