<?xml version="1.0" encoding="utf-8"?>
<!-- Generator: Adobe Illustrator 26.0.3, SVG Export Plug-In . SVG Version: 6.00 Build 0)  -->
<svg version="1.1" id="Layer_1" xmlns="http://www.w3.org/2000/svg" xmlns:xlink="http://www.w3.org/1999/xlink" x="0px" y="0px"
	 viewBox="0 0 250 250" style="enable-background:new 0 0 250 250;" xml:space="preserve">
<style type="text/css">
	.st0{fill:#FFFFFF;}
	.st1{fill:#8DC3E1;}
	.st2{fill:#126FB7;}
	.st3{fill:#115EAA;}
	.st4{fill:#0887CC;}
	.st5{fill:#1B4092;}
	.st6{fill:#029BDF;}
	.st7{fill:#0D51A0;}
	.st8{fill:#106BB5;}
	.st9{fill:#028FD6;}
	.st10{fill:#0480C7;}
	.st11{fill:#1D3E91;}
	.st12{fill:#0F5DAA;}
	.st13{fill:#0B72BC;}
	.st14{fill:#0383CB;}
	.st15{fill:#1A4092;}
	.st16{fill:#1057A4;}
	.st17{fill:#058ED4;}
	.st18{fill:#135CA7;}
	.st19{fill:#0781C7;}
	.st20{fill:#0491D8;}
	.st21{fill:#7CC6E7;}
	.st22{fill:#0399DD;}
	.st23{fill:#84B5D7;}
	.st24{fill:#116FB7;}
	.st25{fill:#88CAE7;}
	.st26{fill:#85C3E2;}
	.st27{fill:#097AC1;}
	.st28{fill:#8DB0D2;}
	.st29{fill:#1062AC;}
	.st30{fill:#1060AC;}
	.st31{fill:#0F4D9C;}
	.st32{fill:#048FD6;}
	.st33{fill:#8BB1D3;}
	.st34{fill:#1B4093;}
	.st35{fill:#0875BF;}
	.st36{fill:#125BA7;}
	.st37{fill:#0F60AC;}
	.st38{fill:#79AFD4;}
	.st39{fill:#1062AD;}
	.st40{fill:#194193;}
	.st41{fill:#0C71BA;}
	.st42{fill:#165DA8;}
	.st43{fill:#0381C8;}
	.st44{fill:#7BAFD3;}
	.st45{fill:#068CD0;}
	.st46{fill:#8FC8E4;}
	.st47{fill:#038FD5;}
</style>
<g id="_x23_ffffffff">
	<path class="st0" d="M106.2,23.5c6.5-1.4,13.2-1,19.8-1.8c6.6,0.5,13.4,0.5,19.9,2.1c8.1,1.8,15.9,4.4,23.5,7.8
		c2.7,1.2,5.3,2.6,7.9,4.1c-4.4,1.2-9,1-13.4,2c-1.1,0.8-2.2,1.7-3.2,2.6c-4.2,5-6.8,11.2-10.2,16.8c-7.5,12.8-14.9,25.6-22,38.5
		c-1.1,1.9-2.8,3.3-4.5,4.6c-7.5-15.4-16.8-29.9-25.3-44.9c-2.6-4.5-5.2-9-8.2-13.2c-0.8-1.1-1.6-2.3-2.5-3.4
		c-4.8-2.4-10.4-0.9-15.5-2.4c2.2-1.5,4.4-2.8,6.8-3.9c0-0.2-0.1-0.6-0.1-0.9c4.1-1,8-2.4,11.9-3.9C96,25.8,101.1,24.5,106.2,23.5z"
		/>
	<path class="st0" d="M44.7,59.9c2.6-2.3,5.4-5,9.2-4.9c7.3,0,14.7-0.4,22,0.3c3.2,0.1,4.9,3.2,6.4,5.6c4.6,8.1,8.7,16.5,13.5,24.4
		c4.1,6.6,7.5,13.6,12.2,19.7c0.2,0.3,0.6,0.9,0.8,1.2c3.1,7.5,7.5,14.4,11.6,21.4c1.5,2.5,3.3,4.9,5.2,7.1
		c14.6-25.2,29-50.4,43.4-75.7c1.2-1.8,2.5-4.1,5-4c6.3-0.5,12.7,0.1,19-0.2c3,0.1,6.8-0.4,8.9,2.2c3,3.5,6.1,7,8.3,11.1
		c-5.1,11-12.3,20.8-17.3,31.9c-5.1,6.8-9,14.4-13.2,21.8c-6.8,11.2-13.2,22.7-19.9,33.9c-6.5,12.1-13.3,23.9-20.4,35.6
		c-2.1,3.4-3.8,7-5.4,10.7c-3.3,4.4-5.9,9.2-8.9,13.8c-5.8-9-11-18.4-16.1-27.8c-5.9-9.8-11.7-19.7-17.3-29.6
		c-12-19.8-22.9-40.2-34.8-60.1c-6-9.6-11-19.8-17-29.4c1.3-2.6,2.5-5.2,3.9-7.8C43.9,60.8,44.5,60.2,44.7,59.9z"/>
	<path class="st0" d="M219.2,88.8c1-0.1,2-0.3,3-0.4c1.4,5.9,3.3,11.8,4.4,17.8c1,4.9,0.9,10,1.7,15c-0.1,10.8-0.9,21.7-3.8,32.2
		c-1.7,5.4-4,10.7-6.2,15.9c-3.4,7.3-8.1,13.9-12.7,20.5c-3.9,4.7-8.3,8.9-12.8,13.1c-11.8,10.2-25.8,17.8-41,21.5
		c-2.2,0.5-5.1,0.1-5.5-2.5c-1.1-7.2,4.7-12.8,7.7-18.8c7.8-15.2,17.6-29.3,25.3-44.5c2.7-4.6,5.5-9,8-13.7
		c3.4-5.8,7.1-11.5,10.2-17.5c2.1-3.6,4-7.4,6.2-11c2.8-4.1,5.2-8.5,7.5-12.9C214.1,98.8,217.2,94,219.2,88.8z"/>
</g>
<g id="_x23_8dc3e1ff">
	<path class="st1" d="M105.3,6.3c11.9-1.8,24.1-2.5,35.9,0c-8.1,0.5-16.2-1-24.3-0.1c-11.3,1-22.6,3.1-33.1,7.3
		c-2.7,1-5.4,2.1-8.1,3.3C65.4,21.6,55.3,27.5,47,35.4c-4.9,4.8-12.2,2.5-18.2,2.5c-1.6-0.1-3.2-0.2-4.8-0.3c-3.1,0-6.1,0-9.2,0
		c-3.9,0-7.9,0-11.8-0.1c-0.4,0.7-1.1,2.1-1.5,2.8c-0.4-0.5-1.1-1.5-1.5-2v-2.1c11.3,0.2,22.7-0.2,34,0.2c4.3,0,9.3,0.5,12.7-2.7
		C63.2,19.3,83.7,9.7,105.3,6.3z"/>
</g>
<g id="_x23_126fb7ff">
	<path class="st2" d="M83.8,13.4c10.6-4.2,21.8-6.3,33.1-7.3c8.1-0.9,16.2,0.6,24.3,0.1c4.8,0.7,9.5,1.9,14.2,3.1
		c-2.6,0.3-5.1,0.8-7.6,1.2c0.6,3,1.6,6,1.4,9.1c-0.5,1.8-2.3,2.9-3.4,4.3c-6.5-1.6-13.2-1.6-19.9-2.1c-6.6,0.8-13.3,0.4-19.8,1.8
		c-5.2,1-10.2,2.3-15.1,4.2c-1.6-1-3.4-1.8-4.7-3.2C85.4,20.8,85.4,16.9,83.8,13.4z"/>
</g>
<g id="_x23_115eaaff">
	<path class="st3" d="M147.8,10.5c2.5-0.4,5.1-0.9,7.6-1.2c4.4,0.9,8.7,2.4,12.9,4.1c-1.7,0.2-3.4,0.5-5.2,0.8
		c2.4,5.7,4.1,11.7,6.2,17.5c-7.5-3.4-15.4-6-23.5-7.8c1.1-1.4,2.9-2.5,3.4-4.3C149.4,16.5,148.4,13.5,147.8,10.5z"/>
</g>
<g id="_x23_0887ccff">
	<path class="st4" d="M75.8,16.8c2.7-1.2,5.4-2.3,8.1-3.3c1.6,3.5,1.5,7.4,2.6,11.1c1.3,1.4,3.1,2.2,4.7,3.2
		c-3.9,1.5-7.9,2.9-11.9,3.9C78.4,26.5,77.5,21.5,75.8,16.8z"/>
</g>
<g id="_x23_1b4092ff">
	<path class="st5" d="M163.1,14.2c1.7-0.3,3.4-0.6,5.2-0.8c5.6,2.1,11,4.6,16.1,7.8c-0.6,6,1,11.9,1.7,17.9c-3-1-6-2-8.8-3.3
		c-2.6-1.4-5.2-2.9-7.9-4.1C167.2,25.9,165.5,19.9,163.1,14.2z"/>
</g>
<g id="_x23_029bdfff">
	<path class="st6" d="M47,35.4c8.3-7.9,18.4-13.8,28.8-18.6c1.8,4.8,2.7,9.8,3.4,14.8c0,0.2,0.1,0.6,0.1,0.9
		c-2.4,1.1-4.7,2.4-6.8,3.9c5,1.5,10.7,0.1,15.5,2.4c-1.7,0.2-3.3,0.4-5,0.5c-0.2,2.5-1,5.2,0.1,7.6c1.2,3,3.1,5.9,3.8,9.1
		c0.9,3.7,0.6,7.5,0.6,11.3c-2.4-4.1-4.5-8.5-7.8-12.1c-1.7-1.9-4.4-1.7-6.7-1.8c-7.7,0-15.4,0.3-23.1-0.2c1.8-0.6,3.6-1.1,5.4-1.7
		C53.7,45.7,51.8,39.5,47,35.4z"/>
	<path class="st6" d="M78.4,138.7c10,16.9,19.7,34.1,29.8,51c4.9,9.6,10.9,18.5,15.8,28c1.9,3.7,3.8,7.6,3.5,11.9
		c-0.1,5-1.5,10.6,2.2,14.7c-14.2,0.2-28.5-1.2-41.9-6.2c1.2,0.1,2.4,0.1,3.5,0.1c-1.4-4.1-3-8.1-5.1-11.8c0.9-1.2,1.9-2.3,2.8-3.5
		c3.4,1.4,7,2.7,10.8,2.6c3.5-0.1,6.5-3.9,5.2-7.3c-1.2-3.6-3.5-6.6-5.3-9.9c-5-9.8-11.4-18.7-16.2-28.6c2-4.5-1-8.7-1.7-13.1
		c-1.1-8-6.3-14.7-7.6-22.7C74.7,141.6,77.1,140.3,78.4,138.7z"/>
</g>
<g id="_x23_0d51a0ff">
	<path class="st7" d="M184.4,21.2c2.9,1.7,5.7,3.4,8.4,5.2c-0.8,2.5-2,5.1-1.1,7.8c1.1,3.5,2,7.1,1.5,10.8c-3.9-1.5-7.9-3-12.1-3.7
		c0.9,3.2,1.8,6.5,2.8,9.7c-1.3,1.1-2.7,2.1-4.1,3.2c-3,0-5.9-0.1-8.9-0.2c2.7-0.7,5.4-1.1,8.1-1.5c-1.8-4.5-3.2-9.4-2.6-14.3
		c-4.2-0.1-8.4-0.3-12.6-0.5c4.4-1,9-0.8,13.4-2c2.9,1.4,5.8,2.4,8.8,3.3C185.4,33.2,183.8,27.2,184.4,21.2z"/>
</g>
<g id="_x23_106bb5ff">
	<path class="st8" d="M191.7,34.2c-0.9-2.6,0.2-5.3,1.1-7.8c4,2.8,8.1,5.7,11.1,9.6c1.1,6.2,0.8,12.8,3.4,18.7c1.1,2.4,1,5,0.7,7.5
		c-1.9-2.5-3.8-5-6.2-7c-2.2-1.8-5.1-1.5-7.8-1.5c-4.7,0.3-9.4,0.6-14.1,0.5c1.4-1.1,2.7-2.1,4.1-3.2c-0.9-3.2-1.9-6.5-2.8-9.7
		c4.2,0.7,8.1,2.1,12.1,3.7C193.7,41.3,192.8,37.7,191.7,34.2z"/>
	<path class="st8" d="M213.9,37.6c4.5-0.1,9,0.2,13.5,0.6c-2.6,0.5-5.2,1-7.8,1.6c3,4.2,6.5,8.2,8.3,13.2c1.4,3.8,3.4,7.3,6.1,10.3
		c-0.9,1.8-1.9,3.6-2.8,5.3c-0.9-2-2-3.8-3.2-5.6c-4.1-8-9.5-15.1-14.9-22.2C213.4,39.8,213.7,38.7,213.9,37.6z"/>
</g>
<g id="_x23_028fd6ff">
	<path class="st9" d="M28.8,37.9c6.1,0,13.3,2.3,18.2-2.5c4.8,4.1,6.7,10.3,8.4,16.1c-1.8,0.5-3.6,1-5.4,1.7c-0.6,0.5-1.2,1-1.8,1.5
		c-2.8-0.8-5.7-1.4-8.3-2.7c-1.2-3.6-0.7-7.5-1.7-11.2C35.3,39.2,32,38.5,28.8,37.9z"/>
</g>
<g id="_x23_0480c7ff">
	<path class="st10" d="M203.9,36c0.3,0.2,1,0.8,1.4,1c2.8,0.6,5.7,0.6,8.6,0.6c-0.2,1.1-0.5,2.1-0.7,3.2c5.5,7,10.9,14.2,14.9,22.2
		c-3.5-3.6-6.3-7.8-9.4-11.8c-1.4-1.4-3-3.5-5.2-2.8c0.5,9.3,5.6,17.8,5,27.2c-2.4-2-4.7-4.2-6.4-6.8c-1.4-2.2-2.7-4.5-4.2-6.6
		c0.4-2.5,0.4-5.1-0.7-7.5C204.7,48.8,205,42.2,203.9,36z"/>
</g>
<g id="_x23_1d3e91ff">
	<path class="st11" d="M205.3,37c14.9,1,29.8,0,44.7,0.5v0.8c-3.9,4.7-7.1,9.8-9.8,15.3c-1.1,0-2.1,0-3.2,0c-3.2-4.6-6.7-9.6-6-15.5
		c-1.2,0.1-2.4,0.2-3.6,0.2c-4.5-0.4-9-0.7-13.5-0.6C211,37.6,208.1,37.6,205.3,37z"/>
</g>
<g id="_x23_0f5daaff">
	<path class="st12" d="M1.5,40.3c0.4-0.7,1.1-2.1,1.5-2.8c3.9,0,7.9,0,11.8,0.1c1.6,1.6,3.2,3.1,4.9,4.7c0.8,11.4,4.1,22.4,7.9,33.2
		c0.9,1.9-0.4,3.6-1.3,5.2c-2.1-3.8-4.6-7.3-7.2-10.7C13.4,60,8.1,49.7,1.5,40.3z"/>
</g>
<g id="_x23_0b72bcff">
	<path class="st13" d="M14.8,37.6c3.1,0,6.1,0,9.2,0c4.8,3.4,5.2,9.5,7.1,14.6c-0.2,2.5-1.2,5.1,0.2,7.4c1.9,3.9,5,7.2,5.7,11.6
		c1,6.4,1.5,12.9,3.7,19c2.2,5.9,2.7,12.2,5,18.1c1,2.6,1.5,5.5,1.4,8.3C39.8,104.8,33,92.8,26.2,80.7c0.9-1.6,2.1-3.3,1.3-5.2
		c-3.7-10.7-7.1-21.8-7.9-33.2C18,40.7,16.4,39.2,14.8,37.6z"/>
</g>
<g id="_x23_0383cbff">
	<path class="st14" d="M24,37.6c1.6,0,3.2,0.1,4.8,0.3c3.2,0.7,6.6,1.3,9.5,2.9c1,3.7,0.5,7.6,1.7,11.2c2.6,1.3,5.5,1.9,8.3,2.7
		c-1.2,1.7-2.3,3.5-3.5,5.2c-0.3,0.3-0.8,0.9-1.1,1.2l-0.6,0.6c-1.5-2.5-2.5-5.3-4.6-7.3c-2.3-0.3-4.5,0.4-6.8,0.7
		c2.3,5,5,9.7,7.2,14.7c5.1,9.3,10.6,18.3,15.6,27.6c-2.6,6.4,0.8,13,0.7,19.5c-0.2,3.2,2.2,5.4,4.2,7.5c-0.2,4.1,0.2,8.3,1.6,12.2
		c-1.1-0.4-2.2-0.9-3.3-1.3c-3.7-6.2-7.4-12.3-10.7-18.7c0.2-2.8-0.3-5.7-1.4-8.3c-2.3-5.8-2.8-12.2-5-18.1
		c-2.2-6.1-2.7-12.6-3.7-19c-0.7-4.4-3.8-7.8-5.7-11.6c-1.4-2.3-0.4-5-0.2-7.4C29.1,47.2,28.8,41,24,37.6z"/>
</g>
<g id="_x23_1a4092ff">
	<path class="st15" d="M163.9,37.7c4.2,0.2,8.4,0.4,12.6,0.5c-0.6,4.9,0.8,9.8,2.6,14.3c-2.7,0.4-5.4,0.9-8.1,1.5
		c-1.1,1.3-2.1,2.7-3.1,4.2c-1.1-0.3-2.2-0.6-3.3-0.9c-0.4-5.8-1.4-11.7-3.9-17.1C161.7,39.4,162.8,38.5,163.9,37.7z"/>
</g>
<g id="_x23_1057a4ff">
	<path class="st16" d="M227.4,38.2c1.2-0.1,2.4-0.1,3.6-0.2c-0.6,5.9,2.9,10.9,6,15.5c1.1,0,2.1,0,3.2,0c-1.7,3.5-3.9,6.6-6.1,9.8
		c-2.7-3-4.7-6.5-6.1-10.3c-1.8-4.9-5.4-8.9-8.3-13.2C222.2,39.3,224.8,38.7,227.4,38.2z"/>
</g>
<g id="_x23_058ed4ff">
	<path class="st17" d="M83,39.3c1.7-0.2,3.3-0.4,5-0.5c0.9,1.1,1.7,2.2,2.5,3.4c-3,7.5,1.9,14.5,3.6,21.6c1.3,5.8,3.5,11.8,1.7,17.7
		c-3.2-4.5-6-9.2-8.2-14.2c-0.1-3.7,0.2-7.6-0.6-11.3c-0.7-3.2-2.6-6.1-3.8-9.1C82,44.5,82.7,41.8,83,39.3z"/>
</g>
<g id="_x23_135ca7ff">
	<path class="st18" d="M150.5,57.1c3.5-5.5,6-11.7,10.2-16.8c2.5,5.3,3.5,11.2,3.9,17.1c1.1,0.3,2.2,0.6,3.3,0.9
		c-3.9,6.9-7.8,13.8-11.8,20.6c-1-1.2-2.2-2.4-2.8-3.9c0.9-2.8,3.7-5.5,2.5-8.7C154.4,63,152.2,60.2,150.5,57.1z"/>
</g>
<g id="_x23_0781c7ff">
	<path class="st19" d="M90.4,42.1c3,4.2,5.6,8.7,8.2,13.2c-0.8,3.5-1.4,7.3,0.3,10.7c3.1,6.7,4.3,14,5.9,21.2
		c0.9,3.9,0.8,7.9,0.9,11.9c-3.8-5.6-6.9-11.6-10-17.7c1.8-5.9-0.4-11.9-1.7-17.7C92.3,56.7,87.4,49.6,90.4,42.1z"/>
</g>
<g id="_x23_0491d8ff">
	<path class="st20" d="M213.6,48.4c2.2-0.7,3.8,1.5,5.2,2.8c3.1,3.9,5.9,8.1,9.4,11.8c1.1,1.8,2.2,3.7,3.2,5.6
		c5,11.7,9.9,23.7,11.8,36.3c2.6,17.7,2,36-2.9,53.2c-0.5,0.3-1.5,0.9-2,1.2c-5.8-7.7-2.1-19.2-9.3-26c-0.5-8.2,0.1-16.4-0.5-24.6
		c-0.2,4.1-0.3,8.2-0.2,12.3c-0.8-5-0.7-10.1-1.7-15c-1.1-6-2.9-11.9-4.4-17.8c-1,0.2-2,0.3-3,0.4c-2,5.3-5.1,10-7.9,14.8
		c-5.3-5.8-4.8-14-7.3-21c2.6-4.7,5.1-9.3,8.1-13.7c1.7,2.6,4,4.8,6.4,6.8C219.2,66.2,214,57.7,213.6,48.4z"/>
</g>
<g id="_x23_7cc6e7ff">
	<path class="st21" d="M48.3,54.6c0.6-0.5,1.2-1,1.8-1.5c7.7,0.6,15.4,0.2,23.1,0.2c2.3,0.1,5-0.1,6.7,1.8c3.2,3.6,5.3,8,7.8,12.1
		c2.2,5,5.1,9.7,8.2,14.2c3.1,6.1,6.2,12.1,10,17.7c0.7,1.9,1.4,3.9,2.2,5.8c-4.7-6.2-8.1-13.2-12.2-19.7
		c-4.9-7.9-8.9-16.3-13.5-24.4c-1.5-2.4-3.2-5.5-6.4-5.6c-7.3-0.6-14.6-0.3-22-0.3c-3.8-0.2-6.6,2.5-9.2,4.9
		C45.9,58.1,47,56.3,48.3,54.6z"/>
</g>
<g id="_x23_0399ddff">
	<path class="st22" d="M31.7,55.1c2.2-0.4,4.5-1,6.8-0.7c2.1,2,3.2,4.9,4.6,7.3c-2.4,2-4.4,4.8-4.2,8.1C36.7,64.8,34,60,31.7,55.1z"
		/>
</g>
<g id="_x23_84b5d7ff">
	<path class="st23" d="M171,54.1c3,0.1,5.9,0.1,8.9,0.2c4.7,0.1,9.4-0.2,14.1-0.5c2.6,0,5.6-0.3,7.8,1.5c2.4,2,4.3,4.5,6.2,7
		c1.5,2.2,2.8,4.4,4.2,6.6c-3,4.4-5.5,9.1-8.1,13.7c-2,3.3-3.9,6.6-5.8,9.9c-1.6,2.7-3.5,5.1-5.4,7.5c5-11,12.2-20.9,17.3-31.9
		c-2.2-4-5.2-7.6-8.3-11.1c-2.2-2.6-5.9-2.1-8.9-2.2c-6.3,0.3-12.7-0.3-19,0.2c-2.5-0.1-3.8,2.2-5,4c-14.5,25.2-28.9,50.5-43.4,75.7
		c-1.9-2.2-3.7-4.6-5.2-7.1c-4.1-7-8.4-13.9-11.6-21.4c6.4,8.1,10.3,17.8,16.2,26.2c10.8-17.6,20.7-35.7,31.1-53.5
		c4-6.8,8-13.7,11.8-20.6C168.9,56.8,169.9,55.4,171,54.1z"/>
</g>
<g id="_x23_116fb7ff">
	<path class="st24" d="M98.6,55.4c8.5,14.9,17.8,29.4,25.3,44.9c1.7-1.3,3.5-2.7,4.5-4.6c7.1-13,14.5-25.8,22-38.5
		c1.7,3.1,4,5.9,5.3,9.2c1.2,3.2-1.7,5.8-2.5,8.7c0.7,1.5,1.8,2.6,2.8,3.9c-10.4,17.8-20.2,36-31.1,53.5
		c-5.9-8.4-9.8-18.1-16.2-26.2c-0.2-0.3-0.6-0.9-0.8-1.2c-0.8-1.9-1.5-3.8-2.2-5.8c-0.1-4,0-8-0.9-11.9c-1.7-7.1-2.8-14.5-5.9-21.2
		C97.2,62.7,97.8,58.9,98.6,55.4z"/>
	<path class="st24" d="M144.8,184.8c9.7-16.6,19.1-33.4,28.8-49.9c-1.1,3.2-0.4,6.6,0.6,9.7c1.5,4.8,1.2,10.5,5.2,14.1
		c-7.7,15.3-17.4,29.4-25.3,44.5c-3,6-8.8,11.6-7.7,18.8c0.4,2.7,3.3,3,5.5,2.5c15.2-3.7,29.2-11.3,41-21.5
		c-0.1,1.3-0.3,2.6-0.4,3.9c1.4-0.2,2.8-0.3,4.2-0.5c0.8,3.6,1.9,7.2,4.1,10.3c-12.7,10.9-27.9,18.6-43.9,23.1
		c-5.1,1.5-10.4,2.5-15.7,2.9c-1.5-0.4-2.9-0.9-4.3-1.4c-3.6-9.9-1.8-20.9-6.7-30.4c1.4-2.9,2.6-5.9,3.9-8.8
		C138.1,196.6,141.6,190.8,144.8,184.8z"/>
</g>
<g id="_x23_88cae7ff">
	<path class="st25" d="M43.1,61.7l0.6-0.6c-1.4,2.6-2.6,5.2-3.9,7.8c6,9.6,11,19.8,17,29.4c11.9,19.8,22.9,40.3,34.8,60.1
		c5.6,10,11.4,19.8,17.3,29.6c5.1,9.4,10.3,18.8,16.1,27.8c3-4.6,5.7-9.4,8.9-13.8c-1.3,2.9-2.5,5.9-3.9,8.8c-1.4,2.7-3.5,5-6,6.8
		c-5-9.5-11-18.4-15.8-28c-10.1-16.9-19.8-34-29.8-51c-7.7-13.9-15.6-27.7-23.9-41.3c-5-9.3-10.5-18.4-15.6-27.6
		C38.7,66.4,40.7,63.7,43.1,61.7z"/>
</g>
<g id="_x23_85c3e2ff">
	<path class="st26" d="M19,70c2.6,3.4,5.2,6.9,7.2,10.7c6.7,12.1,13.6,24.2,20.9,35.9c3.3,6.4,7,12.5,10.7,18.7
		c8.6,14.8,17,29.6,25.9,44.2c4.8,9.9,11.2,18.9,16.2,28.6c1.7,3.3,4.1,6.4,5.3,9.9c1.3,3.4-1.7,7.2-5.2,7.3
		c-3.7,0.1-7.3-1.2-10.8-2.6c-6.7-3.2-13.7-5.9-19.9-10.1c-1.5-1.2-2.8-2.5-4.3-3.7c5.7,2.4,10.6,6.3,16.3,8.8c4.6,2,9.1,4.2,14,5.3
		c2.7,0.6,5.7,0.8,8.1-0.7c1.3-4.4-1.8-8.3-3.8-12c-8.4-15.4-17.9-30.3-26.3-45.7c-6.2-11.1-13-21.7-19.2-32.8
		c-5.5-9.5-11-19-16.5-28.5C31.6,92.2,24.4,81.6,19,70z"/>
</g>
<g id="_x23_097ac1ff">
	<path class="st27" d="M204.1,82.6c2.5,7,2,15.3,7.3,21c-2.3,4.4-4.7,8.8-7.5,12.9c-1.9-8-3.4-16.1-5.5-24
		C200.2,89.2,202.1,85.8,204.1,82.6z"/>
</g>
<g id="_x23_8db0d2ff">
	<path class="st28" d="M5.1,113c1.1-8.3,2.1-16.9,5.8-24.5c4.1,4.5,6.4,10.1,9.6,15.1c1.5,2.6,3.3,5.2,3.1,8.4
		c-0.3,7.6-0.7,15.3-0.3,22.9c0.4,12.3,4.6,24.1,9.6,35.2c4.9,9.6,11,18.7,18.7,26.3c4.3,4.4,9.1,8.2,13.4,12.6
		c-3.6-2.2-7.1-4.5-10.2-7.3c-3.9-3.6-7.6-7.5-10.9-11.8c-5.9-7.4-10.6-15.8-14.6-24.4c-4.2-9.3-5.9-19.5-8.1-29.4
		c0-7.6,0-15.2,0.4-22.8c0.1-2.6-0.2-5.2-1.5-7.5c-2.8-5.2-5.8-10.3-9.2-15.2c-1.3,4.2-2.5,8.5-3.1,12.8
		c-4.3,24.3-1.1,49.9,9.3,72.2c4.3,9.2,10.2,17.6,16.6,25.6c1.1,1.5,2.1,3.2,3.2,4.7c-8.8-7.6-14.8-17.8-20.1-28
		c-5-9.6-7.9-20.1-10.4-30.6c-1.4-5.7-1.3-11.6-1.4-17.4C5.1,124.3,4.3,118.6,5.1,113z"/>
</g>
<g id="_x23_1062acff">
	<path class="st29" d="M7.9,103.5c0.6-4.4,1.8-8.6,3.1-12.8c3.3,4.9,6.4,10,9.2,15.2c1.3,2.3,1.6,4.9,1.5,7.5
		c-0.4,7.6-0.3,15.2-0.4,22.8c-2.9-3-3.4-7.2-3.3-11.2c0.1-5.6-1.9-10.9-2.9-16.4c-1.1-1.5-2.3-3-3.2-4.7c0.3-1.7,1.7-2.9,2.7-4.3
		c-1.1-1.5-2.3-3-3.4-4.4c-0.8,3.3-1.6,6.6-2.6,9.8C8.3,104.7,8,103.9,7.9,103.5z"/>
</g>
<g id="_x23_1060acff">
	<path class="st30" d="M198.3,92.5c2.1,7.9,3.7,16,5.5,24c-2.2,3.6-4.1,7.4-6.2,11c-2.3-7.7-1.9-16.2-6.5-23.1
		c0.6-1.5,1.1-3,1.7-4.5C194.8,97.6,196.8,95.2,198.3,92.5z"/>
</g>
<g id="_x23_0f4d9cff">
	<path class="st31" d="M11.1,95.2c1.1,1.5,2.2,2.9,3.4,4.4c-0.9,1.4-2.3,2.6-2.7,4.3c0.9,1.7,2.1,3.2,3.2,4.7
		c1.1,5.4,3,10.8,2.9,16.4c-0.1,4,0.4,8.2,3.3,11.2c2.1,9.9,3.8,20.1,8.1,29.4c-0.3,1.9-0.8,3.8-0.7,5.7c0.9,3.2,3.4,5.8,3.7,9.2
		c0.6,5,1,10,1.9,14.9c1.3,0.3,2.5,0.6,3.8,0.9c-0.3,1.7-0.7,3.5-1,5.2c-1-0.1-2.1-0.1-3.1-0.2c-6.3-8-12.2-16.4-16.6-25.6
		c-10.5-22.4-13.7-47.9-9.3-72.2c0.1,0.4,0.4,1.2,0.6,1.6C9.5,101.8,10.3,98.6,11.1,95.2z"/>
</g>
<g id="_x23_048fd6ff">
	<path class="st32" d="M54.5,97.4c8.3,13.6,16.2,27.4,23.9,41.3c-1.4,1.6-3.7,2.8-4,5.1c1.3,7.9,6.6,14.7,7.6,22.7
		c0.7,4.4,3.7,8.6,1.7,13.1c-8.9-14.6-17.3-29.5-25.9-44.2c1.1,0.4,2.2,0.9,3.3,1.3c-1.3-3.9-1.8-8.1-1.6-12.2
		c-2-2.1-4.4-4.3-4.2-7.5C55.3,110.4,52,103.8,54.5,97.4z"/>
</g>
<g id="_x23_8bb1d3ff">
	<path class="st33" d="M179.8,121.8c4.1-7.4,8.1-15,13.2-21.8c-0.6,1.5-1.1,3-1.7,4.5c-3.6,6.1-7.4,12.1-10.4,18.5
		c-2.4,3.9-5,7.8-7.2,11.9c-9.7,16.6-19.1,33.3-28.8,49.9c-3.2,6-6.7,11.8-10.8,17.2c1.6-3.7,3.2-7.3,5.4-10.7
		c7.1-11.7,14-23.6,20.4-35.6C166.6,144.5,173,133,179.8,121.8z"/>
</g>
<g id="_x23_1b4093ff">
	<path class="st34" d="M180.8,123c3-6.4,6.8-12.4,10.4-18.5c4.6,6.9,4.2,15.4,6.5,23.1c-3.1,6-6.9,11.6-10.2,17.5
		C183.2,138.5,181.4,130.6,180.8,123z"/>
</g>
<g id="_x23_0875bfff">
	<path class="st35" d="M228.5,108.8c0.6,8.2,0,16.4,0.5,24.6c7.2,6.8,3.5,18.3,9.3,26c-0.9,5.9-3.4,11.3-5.8,16.7
		c-2-5.2-3.6-10.6-4.4-16.2c-0.2-2.6-1.8-4.7-3.5-6.6c2.8-10.5,3.7-21.4,3.8-32.2C228.1,117.1,228.3,112.9,228.5,108.8z"/>
</g>
<g id="_x23_125ba7ff">
	<path class="st36" d="M173.6,134.9c2.2-4.1,4.7-8,7.2-11.9c0.6,7.6,2.5,15.5,6.7,22c-2.5,4.7-5.3,9.1-8,13.7
		c-4-3.6-3.8-9.3-5.2-14.1C173.2,141.4,172.5,138.1,173.6,134.9z"/>
</g>
<g id="_x23_0f60acff">
	<path class="st37" d="M218.3,169.3c2.2-5.2,4.5-10.5,6.2-15.9c1.8,1.8,3.3,3.9,3.5,6.6c0.8,5.6,2.4,11,4.4,16.2
		c-1.7,3.9-3.7,7.6-6.1,11.1c-3.7-5.1-4.6-11.4-4.9-17.6C220.4,169.6,219.4,169.4,218.3,169.3z"/>
</g>
<g id="_x23_79afd4ff">
	<path class="st38" d="M238.2,159.5c0.5-0.3,1.5-0.9,2-1.2c-1.3,6.2-3.6,12.1-6.2,17.8c-3.4,7.2-7,14.6-12.9,20.2
		c1.7-3,3.3-6,5.2-8.9c2.4-3.5,4.4-7.3,6.1-11.1C234.8,170.8,237.4,165.4,238.2,159.5z"/>
</g>
<g id="_x23_1062adff">
	<path class="st39" d="M29.3,165.6c4,8.6,8.7,16.9,14.6,24.4c-3,9.5,2.8,18.6,6.2,27.1c-2-1.5-4.1-2.7-6.2-4.1
		c-2.3-2.3-4.6-4.6-6.9-6.9c-1.1-1.6-2.1-3.2-3.2-4.7c1,0,2.1,0.1,3.1,0.2c0.4-1.8,0.7-3.5,1-5.2c-1.3-0.3-2.5-0.6-3.8-0.9
		c-0.9-4.9-1.2-9.9-1.9-14.9c-0.4-3.4-2.8-6-3.7-9.2C28.5,169.4,29,167.5,29.3,165.6z"/>
</g>
<g id="_x23_194193ff">
	<path class="st40" d="M218.3,169.3c1,0.1,2.1,0.2,3.2,0.4c0.3,6.1,1.2,12.5,4.9,17.6c-1.9,2.9-3.5,5.9-5.2,8.9
		c-1.8,2.2-3.5,4.5-5.2,6.7c-2.9,2.2-5.7,4.6-8.2,7.3c-0.3-0.2-0.8-0.7-1.1-1c3.3-6.2,0.3-13-0.9-19.3
		C210.2,183.2,215,176.7,218.3,169.3z"/>
</g>
<g id="_x23_0c71baff">
	<path class="st41" d="M43.9,189.9c3.3,4.2,7,8.1,10.9,11.8c-1.9,4.1,0.5,8.2,1.7,12.1c1.2,3.6,3,7.1,3.7,10.9
		c-3.6-2.2-7-4.8-10.1-7.7C46.7,208.5,41,199.5,43.9,189.9z"/>
</g>
<g id="_x23_165da8ff">
	<path class="st42" d="M192.9,203c4.4-4.2,8.9-8.4,12.8-13.1c1.3,6.3,4.2,13.1,0.9,19.3c0.3,0.2,0.8,0.7,1.1,1
		c-2.2,2.3-4.5,4.5-6.9,6.5c-2.2-3-3.4-6.6-4.1-10.3c-1.4,0.2-2.8,0.3-4.2,0.5C192.6,205.6,192.7,204.3,192.9,203z"/>
</g>
<g id="_x23_0381c8ff">
	<path class="st43" d="M54.8,201.7c3.1,2.8,6.6,5.1,10.2,7.3c1.4,1.2,2.8,2.5,4.3,3.7c0.1,4.6,1.3,9.1,2.2,13.7
		c0.4,1.5-0.5,2.9-1,4.3c-3.5-1.8-6.9-3.8-10.2-6c-0.7-3.8-2.5-7.3-3.7-10.9C55.2,209.9,52.9,205.8,54.8,201.7z"/>
</g>
<g id="_x23_7bafd3ff">
	<path class="st44" d="M207.7,210.1c2.5-2.7,5.3-5.1,8.2-7.3c-17.1,22.1-43.5,35.7-70.7,41.1c-3.5,0.1-7-0.2-10.5-0.2
		c2.1-0.3,4.2-0.7,6.3-1c5.3-0.4,10.6-1.4,15.7-2.9c16-4.6,31.3-12.3,43.9-23.1C203.2,214.6,205.5,212.4,207.7,210.1z"/>
</g>
<g id="_x23_068cd0ff">
	<path class="st45" d="M124.1,217.7c2.5-1.8,4.6-4.1,6-6.8c4.9,9.5,3.1,20.6,6.7,30.4c1.4,0.5,2.9,1,4.3,1.4c-2.1,0.3-4.2,0.7-6.3,1
		c-1.7,0.2-3.3,0.4-5,0.5c-3.7-4.1-2.2-9.7-2.2-14.7C127.8,225.3,126,221.4,124.1,217.7z"/>
</g>
<g id="_x23_8fc8e4ff">
	<path class="st46" d="M43.9,213c2.1,1.4,4.2,2.6,6.2,4.1c3.1,2.9,6.5,5.4,10.1,7.7c3.3,2.2,6.7,4.2,10.2,6
		c5.6,2.9,11.5,5.4,17.5,7.4c13.3,5,27.7,6.4,41.9,6.2c1.7-0.1,3.3-0.3,5-0.5c3.5,0,7,0.3,10.5,0.2c-5.1,0.8-10.2,1.3-15.3,1.8
		c-7.2,0.8-14.3-0.8-21.5-1.4c-15.5-1.6-30-7.9-43.7-15.1C57.3,224.6,49.7,219.7,43.9,213z"/>
</g>
<g id="_x23_038fd5ff">
	<path class="st47" d="M69.2,212.7c6.2,4.2,13.2,6.9,19.9,10.1c-0.9,1.2-1.9,2.3-2.8,3.5c2.1,3.8,3.7,7.8,5.1,11.8
		c-1.2,0-2.4-0.1-3.5-0.1c-6-1.9-11.9-4.5-17.5-7.4c0.5-1.4,1.4-2.8,1-4.3C70.6,221.9,69.4,217.4,69.2,212.7z"/>
</g>
</svg>
