<?xml version="1.0" encoding="utf-8"?>
<!-- Generator: Adobe Illustrator 26.0.3, SVG Export Plug-In . SVG Version: 6.00 Build 0)  -->
<svg version="1.1" id="Layer_1" xmlns="http://www.w3.org/2000/svg" xmlns:xlink="http://www.w3.org/1999/xlink" x="0px" y="0px"
	 viewBox="0 0 250 250" style="enable-background:new 0 0 250 250;" xml:space="preserve">
<style type="text/css">
	.st0{fill:#E7C659;}
	.st1{fill:#EDD67A;}
	.st2{fill:#EDC237;}
	.st3{fill:#F5DF9B;}
	.st4{fill:#F3E79E;}
	.st5{fill:#51583D;}
	.st6{fill:#847B3E;}
	.st7{fill:#0A1F24;}
	.st8{fill:#0E2B34;}
	.st9{fill:#737B58;}
	.st10{fill:#7E753B;}
	.st11{fill:#767F5F;}
	.st12{fill:#7F7940;}
	.st13{fill:#F3DD7C;}
	.st14{fill:#7F7637;}
	.st15{fill:#7F8361;}
	.st16{fill:#817938;}
	.st17{fill:#808768;}
	.st18{fill:#0D272E;}
	.st19{fill:#143A47;}
	.st20{fill:#183E49;}
	.st21{fill:#F1D159;}
	.st22{fill:#356F85;}
	.st23{fill:#2C738B;}
	.st24{fill:#89926C;}
	.st25{fill:#698791;}
	.st26{fill:#F5DE96;}
	.st27{fill:#777F59;}
	.st28{fill:#0E2C36;}
	.st29{fill:#133B48;}
	.st30{fill:#817834;}
	.st31{fill:#7D7F51;}
	.st32{fill:#1A5163;}
	.st33{fill:#88782A;}
	.st34{fill:#17424D;}
	.st35{fill:#7F8855;}
	.st36{fill:#F3C637;}
	.st37{fill:#F5DC97;}
	.st38{fill:#113139;}
	.st39{fill:#1C4C5B;}
	.st40{fill:#1D5565;}
	.st41{fill:#5A98AA;}
	.st42{fill:#847C3B;}
	.st43{fill:#4B7884;}
	.st44{fill:#7B763A;}
	.st45{fill:#2D6679;}
	.st46{fill:#7599A3;}
	.st47{fill:#5C7A72;}
	.st48{fill:#F9E4A0;}
	.st49{fill:#153E4B;}
	.st50{fill:#3F8596;}
	.st51{fill:#778A70;}
	.st52{fill:#EED46B;}
	.st53{fill:#F0E294;}
	.st54{fill:#EFCB4B;}
	.st55{fill:#A0B693;}
	.st56{fill:#9D9E5A;}
	.st57{fill:#807734;}
	.st58{fill:#EFC436;}
	.st59{fill:#2B728A;}
	.st60{fill:#BCB672;}
	.st61{fill:#235C6B;}
	.st62{fill:#88813C;}
	.st63{fill:#848445;}
	.st64{fill:#738262;}
	.st65{fill:#827C3A;}
	.st66{fill:#7F7634;}
	.st67{fill:#618D8A;}
	.st68{fill:#6E7752;}
	.st69{fill:#11333D;}
	.st70{fill:#215667;}
	.st71{fill:#2D6E83;}
	.st72{fill:#0C272F;}
	.st73{fill:#408192;}
	.st74{fill:#225A68;}
	.st75{fill:#1C4956;}
	.st76{fill:#908135;}
	.st77{fill:#F4DE9B;}
	.st78{fill:#0E2F3A;}
	.st79{fill:#659FB2;}
	.st80{fill:#565A30;}
	.st81{fill:#F8E092;}
	.st82{fill:#1B5162;}
	.st83{fill:#16363F;}
	.st84{fill:#8B8C4B;}
	.st85{fill:#8D9049;}
	.st86{fill:#091A1E;}
	.st87{fill:#7CADAF;}
	.st88{fill:#F5DF9C;}
	.st89{fill:#F1E293;}
	.st90{fill:#286679;}
	.st91{fill:#898541;}
	.st92{fill:#847E3C;}
	.st93{fill:#7D7E48;}
	.st94{fill:#307487;}
	.st95{fill:#568A9C;}
	.st96{fill:#86AB96;}
	.st97{fill:#163740;}
	.st98{fill:#468DA4;}
	.st99{fill:#10252A;}
	.st100{fill:#2C4B4B;}
	.st101{fill:#0B1E22;}
	.st102{fill:#8B8960;}
	.st103{fill:#0A1D21;}
	.st104{fill:#796B29;}
	.st105{fill:#327185;}
	.st106{fill:#E2BA38;}
	.st107{fill:#EFD469;}
	.st108{fill:#7F844C;}
	.st109{fill:#7A6E2B;}
	.st110{fill:#83B1BE;}
	.st111{fill:#081B21;}
	.st112{fill:#6C6730;}
	.st113{fill:#8B936D;}
	.st114{fill:#7B6E30;}
	.st115{fill:#1F5B70;}
	.st116{fill:#61A3B9;}
	.st117{fill:#566644;}
	.st118{fill:#7D7D54;}
	.st119{fill:#2F504C;}
	.st120{fill:#C4A533;}
	.st121{fill:#0D2A33;}
	.st122{fill:#78876E;}
	.st123{fill:#7D6E2C;}
	.st124{fill:#0C2024;}
	.st125{fill:#102022;}
	.st126{fill:#7C6F2F;}
	.st127{fill:#808157;}
	.st128{fill:#0E262B;}
	.st129{fill:#163F4B;}
	.st130{fill:#858153;}
	.st131{fill:#89772C;}
	.st132{fill:#777F67;}
	.st133{fill:#1A5063;}
	.st134{fill:#827B3E;}
	.st135{fill:#868455;}
	.st136{fill:#8A8044;}
	.st137{fill:#39788D;}
	.st138{fill:#707559;}
	.st139{fill:#0C1C1E;}
	.st140{fill:#EFD266;}
	.st141{fill:#24667C;}
	.st142{fill:#7C7034;}
	.st143{fill:#478EA5;}
	.st144{fill:#0B1B1E;}
	.st145{fill:#7D7E5A;}
	.st146{fill:#276276;}
	.st147{fill:#838345;}
	.st148{fill:#7A8064;}
	.st149{fill:#216278;}
	.st150{fill:#285D6D;}
	.st151{fill:#8D8941;}
	.st152{fill:#FAE193;}
	.st153{fill:#5A7076;}
	.st154{fill:#387F97;}
	.st155{fill:#93B7BF;}
	.st156{fill:#39849D;}
	.st157{fill:#F7E19B;}
	.st158{fill:#407D91;}
	.st159{fill:#928F5D;}
	.st160{fill:#1E5B6E;}
	.st161{fill:#7E7134;}
	.st162{fill:#1A4E5F;}
	.st163{fill:#736B37;}
	.st164{fill:#73733D;}
	.st165{fill:#628B97;}
	.st166{fill:#85875A;}
	.st167{fill:#629BAD;}
	.st168{fill:#8F7D32;}
	.st169{fill:#778457;}
	.st170{fill:#CAD5BF;}
	.st171{fill:#7B7444;}
	.st172{fill:#8F8550;}
	.st173{fill:#E1BD42;}
	.st174{fill:#8B843E;}
	.st175{fill:#7E6F33;}
	.st176{fill:#8D8F5D;}
	.st177{fill:#8D7C34;}
	.st178{fill:#807837;}
	.st179{fill:#F1CF53;}
	.st180{fill:#0D2931;}
	.st181{fill:#F9E39A;}
	.st182{fill:#807A3B;}
	.st183{fill:#40798A;}
	.st184{fill:#85823E;}
	.st185{fill:#737149;}
	.st186{fill:#7F773A;}
	.st187{fill:#ECCB57;}
	.st188{fill:#737544;}
	.st189{fill:#091B20;}
	.st190{fill:#071317;}
	.st191{fill:#8A7930;}
	.st192{fill:#EEDA83;}
	.st193{fill:#707857;}
	.st194{fill:#265E72;}
	.st195{fill:#6A7357;}
	.st196{fill:#766B30;}
	.st197{fill:#7A7442;}
	.st198{fill:#184A5B;}
	.st199{fill:#837129;}
	.st200{fill:#F5D96E;}
	.st201{fill:#807640;}
	.st202{fill:#7F6C26;}
	.st203{fill:#556B74;}
	.st204{fill:#6E683E;}
	.st205{fill:#62633F;}
	.st206{fill:#898550;}
	.st207{fill:#ADA165;}
	.st208{fill:#837A47;}
	.st209{fill:#887424;}
	.st210{fill:#5B5A3F;}
	.st211{fill:#928A56;}
	.st212{fill:#F5E189;}
	.st213{fill:#937E28;}
	.st214{fill:#FAE296;}
	.st215{fill:#243F41;}
	.st216{fill:#727250;}
	.st217{fill:#8F7F32;}
	.st218{fill:#35565A;}
	.st219{fill:#F5E9A3;}
	.st220{fill:#809598;}
	.st221{fill:#FAE197;}
	.st222{fill:#747458;}
	.st223{fill:#1E5163;}
	.st224{fill:#867428;}
	.st225{fill:#F0D87A;}
	.st226{fill:#887428;}
	.st227{fill:#766F46;}
	.st228{fill:#7F6E27;}
	.st229{fill:#7F7441;}
	.st230{fill:#7C6B25;}
	.st231{fill:#EBC955;}
	.st232{fill:#6B6435;}
	.st233{fill:#6E6127;}
	.st234{fill:#726733;}
	.st235{fill:#7D6B27;}
	.st236{fill:#4F4A25;}
	.st237{fill:#BFA035;}
	.st238{fill:#E7BC39;}
	.st239{fill:#F5DD9D;}
	.st240{fill:#EED89B;}
	.st241{fill:#F2DD9E;}
</style>
<g id="_x23_e7c659ff">
	<path class="st0" d="M109.5,0h28c1.8,1.2,5.2,1.2,5.5,3.8c-6.9,3.3-15.9,3.3-21.4,9c4.6,0.8,10-1.2,14.4,1.1
		c-7.8,0.2-15.7-0.5-23.4,0.8c-1.2,0.2-2.4,0.4-3.6,0.5c-1.5,0.2-4.6,0.6-6.2,0.8c-1.4-0.4-3.2-0.3-4,1.1c-1.4-0.4-2.9-0.3-4.2,0.2
		c-1.7-4.9,7-5.8,8.2-10.3c5.7-4-1.8-4-4.2-4.3C102.4,1.8,106.1,1.3,109.5,0z"/>
</g>
<g id="_x23_edd67aff">
	<path class="st1" d="M137.6,0h3.9c5.9,2.3,12.4,2.9,18.5,4.9c6.6,7.2-9.6,4.7-9.4,11.2c-1.3,0-2.5,0.1-3.8,0.1l-0.8-0.3
		c-1.5-0.2-4.6-0.5-6.1-0.7c-0.6-0.1-1.9-0.4-2.5-0.5c-0.3-0.2-1-0.6-1.3-0.8c-4.3-2.3-9.7-0.3-14.4-1.1c5.5-5.8,14.5-5.8,21.4-9
		C142.8,1.2,139.4,1.2,137.6,0z"/>
</g>
<g id="_x23_edc237ff">
	<path class="st2" d="M94.2,4.1c1.5-0.5,3-1,4.6-1.4C101.1,3,108.7,3,103,7c-1.2,4.5-9.9,5.5-8.2,10.3l0.1,0.6
		c-1,0.4-1.9,0.7-2.9,1.1c-1.4-0.5-3.2-0.5-4.1,0.9c-1.9-0.4-3.7,0.4-4.9,1.9c-6.3,3.3-13.1,5.9-19,10.1c-1.5-0.3-2.9,0.7-2.9,2.2
		c-1.4,1-2.7,1.9-4.1,2.9c-2-0.3-3.6,1.2-3.8,3.1c-3.9,3.4-8,6.6-11.2,10.7c-1.9,1.9-3.9,3.8-5.1,6.3c-2.1,2.9-4.1,5.9-6.1,8.8
		c-0.7,0.9-1.3,1.9-2,2.8c-1.6,1.7-2.6,3.9-3.1,6.1c-0.6,1-1.2,2-1.8,2.9c-1.6,2.2-2.8,4.6-2.9,7.4c-0.5,1.6-0.9,3.2-1.4,4.7
		c-0.2,0.5-0.6,1.4-0.8,1.9c-1.6,3.2-2.3,6.8-3.1,10.3l-0.3,0.9c-1.5,2.5-1.6,4.8-0.4,7c-0.1,0.7-0.3,2.1-0.4,2.8
		c-1,7.8-1.6,15.8-0.2,23.5c0.2,1.2,0.4,2.4,0.5,3.6c-1.5,3.1-1.2,5.4,0.9,7c0.5,3.8,1.4,7.6,2.8,11.2c-0.2,1.2-0.1,2.5,0.5,3.6
		c-4.8-4.5-5,5.4-8.2,7.6c-2.2-3.4-4.1-6.9-6.1-10.4c-1.2-5.1-1.8-10.3-3.9-15.1c-0.4-1.1-0.8-2.2-1.2-3.2v-31
		c0.9-2,1.7-4.1,2.2-6.3C3.4,98.6,5,93.9,4.9,89c2.3-2.4,2.9-5.8,3.2-8.9c5-12.7,11.9-24.6,20.6-35.1c2-1.1,3.6-2.7,4.5-4.8
		c1.9-2.6,4.2-4.9,6.8-6.8c2.1-0.9,3.7-2.5,4.8-4.5C55.4,20,67.3,13.1,80,8.1C84.9,7.5,89.6,5.7,94.2,4.1z"/>
</g>
<g id="_x23_f5df9bff">
	<path class="st3" d="M80,8.1c4.3-2.5,9.2-4.2,14.2-4C89.6,5.7,84.9,7.5,80,8.1z"/>
</g>
<g id="_x23_f3e79eff">
	<path class="st4" d="M160,4.9c11.1,2.8,21.4,8.1,31.2,13.7c-5.8-1.6-7.6,5.4-11.2,8.4c-1.3-0.4-2.6-0.7-4-1c-3-1.5-6-2.9-9-4.3
		c-1.3-1.4-3.1-2.2-5-1.7c-0.8-1.4-2.7-1.4-4.1-0.9c-0.9-0.4-1.8-0.8-2.8-1.1c-1.5-0.6-3.1-1.2-4.6-1.8
		C150.4,9.6,166.6,12.1,160,4.9z"/>
</g>
<g id="_x23_51583dff">
	<path class="st5" d="M112.7,14.7c7.7-1.3,15.6-0.6,23.4-0.8c0.3,0.2,1,0.6,1.3,0.8c-1.5,0.1-3,0.3-4.6,0.4
		C126.1,15,119.4,15.2,112.7,14.7z"/>
</g>
<g id="_x23_847b3eff">
	<path class="st6" d="M103,15.9c1.5-0.2,4.6-0.6,6.2-0.8C107.6,15.4,104.5,15.8,103,15.9z"/>
</g>
<g id="_x23_0a1f24ff">
	<path class="st7" d="M109.1,15.2c1.2-0.2,2.4-0.3,3.6-0.5c6.7,0.5,13.4,0.3,20.1,0.4c2.9,4.7,5.1,10,4.1,15.7
		c-3.5,2.1-8.5,0.3-9-3.9c-0.2-0.5-0.6-1.6-0.8-2.1c-1.7-1.1-5.9-4.9-4.3-0.6c1.4,3.2-2.7,1.4-4.4,1.4c-5.8-0.5-11.2,3.5-17.2,3.1
		c-1.2,0-2.3,0-3.5,0.3c-1,3.7-1.5,7.6-2.8,11.2c-8.8-1.1-0.6-14.6-9.1-17.9c0.8-0.7,1.5-1.4,2.2-2.2c1.4,0.5,3.2,0.5,4.1-0.9
		c1-0.4,1.9-0.8,2.9-1.1c1.4,0.4,3.1,0.3,4.1-0.9c1.4,0.3,3.2,0.4,4-1.1C104.5,15.8,107.6,15.4,109.1,15.2z"/>
</g>
<g id="_x23_0e2b34ff">
	<path class="st8" d="M132.8,15.1c1.5-0.1,3-0.2,4.6-0.4c0.6,0.1,1.9,0.4,2.5,0.5c1.5,0.2,4.6,0.5,6.1,0.7l0.8,0.3
		c2.6,1.4,5.5,1.9,8.4,1.7c0.9,0.4,1.8,0.7,2.8,1.1c0.9,1.4,2.6,1.4,4.1,0.9c1,1.4,2.5,2.3,4.3,2.1c4.3,5-2.8,13.5,3.9,17.8
		c6.5,1.7,5.9-7.7,10.5-10.3c1.3,1.5,3.2,2.2,5.2,2.4c0.4,1.3,1.4,2.4,2.9,2.3c1.2,0.8,2.4,1.7,3.6,2.5c-0.7,7-7.5,10.4-12.1,14.5
		c-1.6,3.7-4.7,6.1-9.3,4.7c-0.3-0.3-0.8-0.8-1.1-1c-4.3-2.7-12.1-0.9-14.3-6.7c-2.8-6.6-2.4-15.9-10.7-18.3c-9.1,1-1.9,15-10.8,15
		c-1.5-5.4-12-5-9.4-12.2c0.8-1.4,1.8-2.8,2.4-4.3c0.2-0.4,0.6-1.2,0.8-1.6c0.5,4.3,5.5,6.1,9,3.9C137.9,25.1,135.7,19.8,132.8,15.1
		z"/>
</g>
<g id="_x23_737b58ff">
	<path class="st9" d="M139.9,15.2c1.5,0.2,4.6,0.5,6.1,0.7C144.5,15.7,141.4,15.4,139.9,15.2z"/>
</g>
<g id="_x23_7e753bff">
	<path class="st10" d="M99,17.1c0.8-1.4,2.6-1.5,4-1.1C102.2,17.5,100.4,17.4,99,17.1z"/>
</g>
<g id="_x23_767f5fff">
	<path class="st11" d="M146.8,16.2c1.3,0,2.5-0.1,3.8-0.1c1.5,0.6,3.1,1.2,4.6,1.8C152.3,18.1,149.4,17.6,146.8,16.2z"/>
</g>
<g id="_x23_7f7940ff">
	<path class="st12" d="M94.8,17.3c1.4-0.5,2.8-0.6,4.2-0.2c-1,1.2-2.7,1.3-4.1,0.9L94.8,17.3z"/>
</g>
<g id="_x23_f3dd7cff">
	<path class="st13" d="M180,27c3.6-3,5.4-10,11.2-8.4c2.4,1.6,4.7,3.2,6.9,4.9c-5.7,0.8-4.8,7.6-8.9,10.1c-0.8-1.1-1.9-1.6-3.3-1.7
		c-0.9-1.9-2.9-2.9-5-2.9C180.8,28.5,180.3,27.5,180,27z"/>
</g>
<g id="_x23_7f7637ff">
	<path class="st14" d="M87.9,20c0.9-1.4,2.7-1.4,4.1-0.9C91.1,20.4,89.3,20.5,87.9,20z"/>
</g>
<g id="_x23_7f8361ff">
	<path class="st15" d="M158,19c1.4-0.5,3.2-0.5,4.1,0.9C160.6,20.5,158.9,20.4,158,19z"/>
</g>
<g id="_x23_817938ff">
	<path class="st16" d="M83,21.8c1.2-1.4,3-2.2,4.9-1.9c-0.7,0.8-1.4,1.5-2.2,2.2C85.1,22.1,83.7,21.9,83,21.8z"/>
</g>
<g id="_x23_808768ff">
	<path class="st17" d="M162,20c1.9-0.4,3.7,0.4,5,1.7l-0.7,0.3C164.6,22.3,163,21.4,162,20z"/>
</g>
<g id="_x23_0d272eff">
	<path class="st18" d="M64,32c5.9-4.2,12.6-6.8,19-10.1c0.7,0.1,2,0.3,2.7,0.4c8.5,3.3,0.4,16.8,9.1,17.9c-3.2,9.1-7.8-4.5-13.6-3
		c-3,4.4-3.2,9.8-1.5,14.7c-6.5,6.6-14.6-5.8-21.1-0.1c-2.3,2.1-5.7,0.3-8.5,0.2c-3.7-3-6.2,3.3-1.3,3c5.5,0.3,9.9,3.9,14.5,6.5
		c5,0.8,11.2-0.8,15,3.6c2.9,3.9,7.8,1.8,10.6-1.1c3.2,2.6,7.6,6.7,5.8,11.1c-3.6,4.5-9.2,8.8-15.3,7.3c-4.6-0.6-4.2,5.3-6.9,7.6
		c-12.3-1.4-22.5-9.1-24.4-22c-0.1-6.8-10.7-4.5-10.8-11.1c1.9-1.6,3.7-3.5,4.4-6c3.2-4.1,7.3-7.3,11.2-10.7C55,40,56.4,38.7,57,37
		c1.4-1,2.7-1.9,4.1-2.9C62.5,34.3,63.8,33.4,64,32z"/>
</g>
<g id="_x23_143a47ff">
	<path class="st19" d="M122.7,24.1c-1.6-4.3,2.6-0.5,4.3,0.6c-4.3-0.6-3.2,3.2,0.1,3.7c-0.6,1.5-1.6,2.9-2.4,4.3
		c-2.6,7.3,7.9,6.8,9.4,12.2c-1.7,0.2-4.6-0.6-4.4,2.1c-2.9-1.1-3.2-4.3-4.2-6.9c-3.7-1.1-2.7,5.7-6.4,4.8c-2.1-1.6-3-4.5-4.4-6.8
		c2.1,0.3,4.1,0.7,6.2,0.8c1.4-9.5-13-11.4-19-7.8c0,5.6,4.7,9.9,10,10.9c-0.4,4.1-3.6,8.2,1,10.8c-6.2,4.1-8.2-5.9-13.9-1.9
		c-1.9,1.5-1.9,4.6-2.8,6.8c2.4,1.7,7.6,5.6,1.4,5.6l-0.7-0.4c-4-2.3-0.5-13.4-5.9-10.4c-0.3,0.3-0.9,1-1.2,1.3
		c-1.3,1.4-2.6,2.9-3.9,4.3c-2,2.8-5.9,3.6-7.5,6.7c-3.8-4.4-9.9-2.8-15-3.6c-4.6-2.6-9.1-6.2-14.5-6.5c0.4-1,0.8-2,1.3-3
		c2.7,0.1,6.2,1.8,8.5-0.2c6.6-5.7,14.6,6.7,21.1,0.1c-1.7-4.9-1.5-10.3,1.5-14.7c5.7-1.5,10.4,12.1,13.6,3
		c1.2-3.7,1.7-7.5,2.8-11.2c0.7,3.6,4.5,4.2,3.5-0.3c6,0.4,11.4-3.6,17.2-3.1c-2.4,0-6.3,2.2-3.1,4.4c3.1,1,4.4-1.9,3.1-4.4
		C120,25.5,124.1,27.4,122.7,24.1z"/>
</g>
<g id="_x23_183e49ff">
	<path class="st20" d="M166.3,22.1l0.7-0.3c3,1.4,6.1,2.8,9,4.3c0.8,2,2.9,3,5,2.9l-0.2,0.5c-4.6,2.6-4,12-10.5,10.3
		C163.5,35.6,170.6,27,166.3,22.1z"/>
	<path class="st20" d="M166.1,153.5c0.5-0.2,1.4-0.6,1.9-0.8c0.3,1.2,1,3.6,1.3,4.8c9.8,1.7,19.4,5.4,27.4,11.4c2.7,0,6,2.3,8.3,1.2
		c3.1-2.3,6.3-4.5,9.4-6.9c5.3-3.4,10.7-6.8,16.5-9.3c0,1.4,0.1,2.8,0.4,4.1c-0.4,1.3-0.9,2.7-1.4,4c-1.7,1.1-2.5,3-1.9,5
		c-1.6,2.9-3,6-4.1,9.1c-0.5,0.2-1.4,0.6-1.9,0.8c-0.5-4.6-6.6,0.6-9.4-0.7c-2.8-1.8-6.6-1.2-8.7-4.2c-5.9,5.3-1.6,12.9-6.6,17.9
		c-1.4-1.5-2.6,0.1-3.7,1c0.8-6,1.6-12,2.2-18c-4.7-1.4-8.4,2.2-12.8,2.1c-4.2-5-6.4-11.6-11.2-16.1c-9.3,1.7-6.9,15-15.8,16.8
		c-4.7-3.1-9.6,2.3-14.3-2.2C150.4,167.5,158.8,161.1,166.1,153.5z"/>
</g>
<g id="_x23_f1d159ff">
	<path class="st21" d="M189.2,33.6c4.2-2.5,3.3-9.3,8.9-10.1c6.5,4.9,13.3,9.7,18.1,16.3c-2-0.5-4-1.3-6.1-1.7
		c-1.8,3.1-2.9,6.5-5.1,9.3c-1.3-1.3-2.7-2.6-4.1-3.8c-0.6-0.5-1.2-1.1-1.8-1.6c-1.4-1.7-3.1-3.2-5.1-4.2c-0.4-0.2-1.2-0.8-1.6-1
		c-1.2-0.9-2.4-1.7-3.6-2.5L189.2,33.6z"/>
</g>
<g id="_x23_356f85ff">
	<path class="st22" d="M127.1,28.4c-3.3-0.5-4.4-4.4-0.1-3.7c0.2,0.5,0.6,1.6,0.8,2.1C127.7,27.2,127.3,28,127.1,28.4z"/>
</g>
<g id="_x23_2c738bff">
	<path class="st23" d="M115.2,29.9c-3.2-2.2,0.6-4.4,3.1-4.4C119.6,28,118.3,30.9,115.2,29.9z"/>
</g>
<g id="_x23_89926cff">
	<path class="st24" d="M176,26.1c1.3,0.2,2.7,0.6,4,1c0.2,0.5,0.7,1.5,1,2C178.9,29,176.9,28,176,26.1z"/>
</g>
<g id="_x23_698791ff">
	<path class="st25" d="M97.6,28.9c1.2-0.3,2.3-0.3,3.5-0.3C102.1,33.1,98.3,32.5,97.6,28.9z"/>
</g>
<g id="_x23_f5de96ff">
	<path class="st26" d="M40.1,33.3c1.1-2,2.7-3.7,4.8-4.5C43.8,30.7,42.2,32.4,40.1,33.3z"/>
</g>
<g id="_x23_777f59ff">
	<path class="st27" d="M181,29c2.1,0,4.1,1,5,2.9c-2-0.1-3.9-0.9-5.2-2.4L181,29z"/>
</g>
<g id="_x23_0e2c36ff">
	<path class="st28" d="M102.1,31.2c6-3.6,20.4-1.7,19,7.8c-2.1-0.1-4.1-0.5-6.2-0.8c1.4,2.2,2.3,5.2,4.4,6.8
		c3.7,0.8,2.7-5.9,6.4-4.8c1,2.6,1.3,5.8,4.2,6.9c3.4,3.4-3.4,5.2-4.6,8c-1.7,4-3.6,8.2-7.5,10.5c-3.5,2.6,0.7-6.2-1-6.2
		c-1.6-4.2-5.2-0.1-7.6,1.2c8.5,2.7-2.8,9.2-4,13.8c-2.8-3.3-5.1-7.1-7.3-10.9c6.2,0,1-4-1.4-5.6c0.9-2.2,0.9-5.3,2.8-6.8
		c5.6-3.9,7.7,6,13.9,1.9c-4.7-2.6-1.4-6.7-1-10.8C106.7,41.2,102,36.8,102.1,31.2z"/>
</g>
<g id="_x23_133b48ff">
	<path class="st29" d="M134.2,45c8.9,0,1.7-13.9,10.8-15c8.3,2.5,7.9,11.8,10.7,18.3c2.2,5.8,10,4,14.3,6.7c-0.7,0-2.1,0-2.9,0
		c-4.9,0.6-9.4-1.4-13.9-2.8c-3,10.2-14.8,2.6-17-4.3c-0.3-0.3-0.9-0.9-1.2-1.2C134.8,46.3,134.4,45.4,134.2,45 M144.3,34.2
		c-6.6,2.1-1.1,15,4,9.1C152.5,40.7,148.8,33,144.3,34.2z"/>
</g>
<g id="_x23_817834ff">
	<path class="st30" d="M61.1,34.2c0.1-1.5,1.4-2.6,2.9-2.2C63.8,33.4,62.5,34.3,61.1,34.2z"/>
</g>
<g id="_x23_7d7f51ff">
	<path class="st31" d="M186,31.9c1.4,0,2.4,0.6,3.3,1.7l-0.4,0.6C187.4,34.3,186.3,33.2,186,31.9z"/>
</g>
<g id="_x23_1a5163ff">
	<path class="st32" d="M144.3,34.2c4.5-1.2,8.2,6.4,4,9.1C143.2,49.2,137.7,36.3,144.3,34.2z"/>
</g>
<g id="_x23_88782aff">
	<path class="st33" d="M53.2,40.2c0.2-2,1.8-3.4,3.8-3.1C56.4,38.7,55,40,53.2,40.2z"/>
</g>
<g id="_x23_17424dff">
	<path class="st34" d="M192.5,36.8c0.4,0.2,1.2,0.8,1.6,1c1.1,2.1,2.7,3.8,5.1,4.2c0.6,0.5,1.2,1.1,1.8,1.6c-3.3,2.9-2.4,8-1.7,11.9
		c2.6,4.1-2.8,6.6-1.7,10.4l-0.6,0.3c-2-1.1-4.1-2.2-6.1-3.2c2.5-4.8,7.1-12.3,2-16.8c-8.3,0.8-7.8,11.4-13.9,13.1
		c-3.4,0.2-7.5,1-7.9-3.2c4.6,1.4,7.7-1,9.3-4.7C185,47.2,191.7,43.7,192.5,36.8z"/>
</g>
<g id="_x23_7f8855ff">
	<path class="st35" d="M194.1,37.8c2,1,3.7,2.5,5.1,4.2C196.8,41.6,195.2,39.9,194.1,37.8z"/>
</g>
<g id="_x23_f3c637ff">
	<path class="st36" d="M210.2,38.1c2.1,0.4,4.1,1.2,6.1,1.7c4.7,4.7,8.7,10,12.8,15.1c-0.2,2.1,0.7,4.2,2.8,5
		c4.1,6.3,7.1,13.2,10,20c2.1,9.8,4.8,19.4,7.1,29.1c0.3,0.6,0.8,1.8,1.1,2.4v25.9c-0.4,1.1-0.8,2.2-1.1,3.4
		c-1.6,6.6-3.7,13.3-3.8,20.2c-2.3,2.4-2.9,5.8-3.2,9c-5,12.7-11.9,24.6-20.6,35.1c-2,1.1-3.6,2.7-4.5,4.9c-1.9,2.6-4.2,4.9-6.8,6.8
		c-2.1,0.9-3.7,2.5-4.8,4.5c-10.7,8.5-22.5,15.6-35.1,20.7c-1.6,0.2-3.2,0.4-4.8,0.6c-1.4-2.4-5.5-0.1-7.2-1.4
		c-19.1-0.2-38.1-0.4-57.2,0.8c4.1-1.8,7.5-5.3,11.9-6l1,0.1c7.2,0.5,15.5,2.6,22.3,0c0.3-0.2,1-0.6,1.3-0.8
		c0.6-0.1,1.9-0.3,2.5-0.4c3.1,1.5,5.4,1.2,7-0.9c3.8-0.6,7.6-1.4,11.2-2.8c1.4,0.3,3,0.2,3.9-1.1c2,0.4,3.8-0.4,5-2
		c1.9,0.5,3.9-0.3,4.8-2.1c1.4-0.7,2.8-1.3,4.2-2c2,0,4.1-0.8,5-2.7c3.2-1.8,6.4-3.6,9.1-6.1c0.9-0.7,1.9-1.5,2.8-2.2
		c2,0.4,3.6-1.1,3.8-3.1c1.1-0.9,2.2-1.8,3.2-2.7c2.7-1.2,4.6-3.6,6.2-5.9c1.2-1.5,2.3-3,3.5-4.4c2-0.2,3.5-1.8,3.1-3.8
		c1-1.3,2.1-2.6,3.2-3.8c1.3-0.4,2.3-1.7,1.9-3.1c1.5-0.2,2.3-1.6,2-3.1c0.3-0.5,0.8-1.4,1.1-1.9c2-0.9,2.8-2.9,2.9-4.9
		c1.1-3.1,2.4-6.2,4.1-9.1c1.6-1.2,2.4-3,1.9-5c0.5-1.3,0.9-2.6,1.4-4c1.1-1.5,2-3.1,1.6-5c0-0.8-0.1-2.3-0.2-3.1l0.3-0.9
		c0.3-0.5,0.9-1.5,1.3-2c0.1-1.5,0.4-4.6,0.5-6.2c0-1.5,0.1-3,0.2-4.5l0.8-0.5c1.2-5.9,2.7-16.1,0-21.8l-0.8-0.4
		c-0.1-1.2-0.2-2.4-0.2-3.6c1.3-2.9,1.1-5.3-0.7-7.1c-0.6-3.8-1.4-7.7-2.9-11.3c-0.4-1.3-0.8-2.5-1.2-3.8c0.5-1.9-0.3-3.8-1.9-5
		c-1.4-2.6-2.7-5.3-3.9-8c-0.4-2.3-1.3-4.6-3.2-6.2c-0.9-1.7-1.8-3.3-2.8-5c0-1.4-0.9-2.6-2.2-3c-1.3-1.6-2.6-3.3-3.8-5
		c-0.9-2.1-2.5-3.7-4.2-5.1c-1-1.2-2-2.3-2.9-3.4C207.3,44.6,208.4,41.2,210.2,38.1z"/>
</g>
<g id="_x23_f5dc97ff">
	<path class="st37" d="M28.8,44.9c0.8-2.2,2.5-3.8,4.5-4.8C32.4,42.2,30.7,43.8,28.8,44.9z"/>
</g>
<g id="_x23_113139ff">
	<path class="st38" d="M199.3,55.5c-0.7-3.9-1.6-8.9,1.7-11.9c1.4,1.2,2.7,2.5,4.1,3.8c1,1.1,2,2.3,2.9,3.4c0.4,2.4,2.1,4,4.2,5.1
		c1.2,1.7,2.5,3.3,3.8,5c-0.4,1.5,0.6,3,2.2,3c0.9,1.6,1.9,3.3,2.8,5c0.5,2.3,1.5,4.5,3.2,6.2c-1,7-2.2,15.4-8.2,20c0,0.8,0,2.3,0,3
		c1.4,2.8,3.3,5.3,5.3,7.7c6.3,1.5,4.9-9.2,10.4-8.9c0.5,1.6,0.9,3.2,1.4,4.7c-4.5,0.5-9.3,3.7-6.4,9.1c-2.1,1.3-5.5,2.2-2.7,6.3
		c2.8,0.8,4.3-1.5,4.1-4.1c1.9,3.6,2.2,9,6.8,10.3c1.4,4.7-7.1,1.2-6,5.7c-0.5,3.9,3.6,2.7,5.9,2.2c0.2,1.7,0.2,3.4,0.3,5.1
		c-0.1,1.5-0.2,3-0.2,4.5c-0.3,0.2-0.8,0.7-1.1,1c-1.1,11.1-2.9,0.1-7.7-0.8c-1.5-2.1-3.4-1.4-5.3-0.3c-3-0.3-5.8-2-8.7-2.9
		c-0.1-0.4-0.2-1.3-0.3-1.7c3.2-4.1,6.4-10.5,1.1-14.4c-1.4,1.2-2.5,2.6-3.7,4c-0.9-2.8-5.5-9.9-7.8-5.1c-3,5.1,5.1,10.1,2.2,14.3
		c-5.8,1.5-2.6-5.5-5.7-7c-2.7,2.4-6,3.7-9.6,3.7c1.4-3.5,6.9-1.5,7.4-5.6c-2.9-3.1-1.4-11.8-7.1-9.3c1.7-1.6,3.5-3.1,5.2-4.6
		c3.4-2.5,7.6-4.9,9-9.3c1-1.3,2-2.6,3.1-3.9c2-0.9,2.8-3,2.8-5.1c0.4-0.9,0.8-1.9,1.1-2.9c0.6-3.5,2.2-7.9,0.1-11.3
		c-0.9-1.6-2.1-3.2-3.2-4.7c-0.9-3-3.4-4.8-6-6.2c-0.7-1.5-1.8-2.6-3.4-3C196.4,62,201.9,59.5,199.3,55.5 M206.3,104.3
		c-8.7,2.7-1.7,13.1,3.7,15.8c2.3-2,4.9-3.3,7.7-4.4C221.8,109.9,211.7,103,206.3,104.3z"/>
</g>
<g id="_x23_1c4c5bff">
	<path class="st39" d="M129.8,47.1c-0.2-2.7,2.7-1.9,4.4-2.1c0.2,0.4,0.6,1.3,0.8,1.8c-5.7,1.5,1.9,8,1.2,1.2
		c2.2,6.9,14,14.5,17,4.3c4.5,1.4,9,3.4,13.9,2.8c0.1,1.3,0.2,2.7,0.2,4l-0.9,0.2c-3.9-0.2-7.8,0-11.6,0.7c-0.4,0.1-1.2,0.3-1.6,0.3
		c-4.2,1-12.7-6-13.3,1.6c-0.3,0.3-0.9,0.8-1.1,1c-2.6,0.6-5,1.4-7.5,2.2c-6.3,0.4-12.1,3.4-18.2,4.9c-1.7,0.4-3.3,0.8-5,1.3
		c0.9,3.2,7.7,5.9,7.6,0.6c2.3,3,4.3,5.8-0.4,7.5c0.2,4.3,5.7,6.9,8.8,9.7c-7.1,2.1-9-1.3-9.2-6.6c-7,1.8-10-6.2-14.2-9.9
		c-1.8,1-3.7,1.8-5.7,2.5c1.7-4.4-2.7-8.5-5.8-11.1c-2.7,2.8-7.7,4.9-10.6,1.1c1.6-3.2,5.5-3.9,7.5-6.7c-0.9,2.5,2.7,5.5,3.8,2.7
		c1.3-6.4,6.7,8.1,7.2,2.1l0.7,0.4c2.2,3.8,4.5,7.5,7.3,10.9c1.2-4.6,12.5-11.1,4-13.8c2.4-1.4,6-5.5,7.6-1.2c1.7,0-2.5,8.8,1,6.2
		c3.9-2.3,5.8-6.5,7.5-10.5C126.4,52.3,133.1,50.5,129.8,47.1z"/>
</g>
<g id="_x23_1d5565ff">
	<path class="st40" d="M178.9,59.2c6.1-1.7,5.7-12.4,13.9-13.1c5.2,4.5,0.6,12-2,16.8l-0.7-0.3c-2.2-1.4-4.8-1.7-7.4-1.5
		c-1.2-0.4-2.4-0.8-3.6-1.2L178.9,59.2z"/>
</g>
<g id="_x23_5a98aaff">
	<path class="st41" d="M136.2,48c0.7,6.8-6.9,0.3-1.2-1.2C135.2,47,135.9,47.7,136.2,48z"/>
</g>
<g id="_x23_847c3bff">
	<path class="st42" d="M36.8,57.1c1.2-2.5,3.2-4.3,5.1-6.3c-0.6,2.5-2.5,4.4-4.4,6L36.8,57.1z"/>
</g>
<g id="_x23_4b7884ff">
	<path class="st43" d="M49,55c-5,0.2-2.5-6,1.3-3C49.8,52.9,49.4,54,49,55z"/>
</g>
<g id="_x23_7b763aff">
	<path class="st44" d="M208,50.8c1.8,1.4,3.3,3.1,4.2,5.1C210.1,54.8,208.4,53.2,208,50.8z"/>
</g>
<g id="_x23_2d6679ff">
	<path class="st45" d="M91.1,52.7c5.4-3,1.9,8,5.9,10.4c-0.5,6-5.9-8.5-7.2-2.1c-1.2,2.8-4.8-0.2-3.8-2.7c1.3-1.4,2.6-2.8,3.9-4.3
		C89.2,59.9,96.1,55.8,91.1,52.7z"/>
</g>
<g id="_x23_7599a3ff">
	<path class="st46" d="M91.1,52.7c4.9,3.1-1.9,7.2-1.2,1.3C90.2,53.7,90.8,53,91.1,52.7z"/>
</g>
<g id="_x23_5c7a72ff">
	<path class="st47" d="M167.1,55c0.7,0,2.1,0,2.9,0c0.3,0.2,0.8,0.8,1.1,1c0.3,4.2,4.4,3.4,7.9,3.2l0.2,0.8c-1.7,0-3.4,0.1-5,0.1
		c-2.3-0.3-4.5-0.7-6.8-1C167.3,57.7,167.2,56.4,167.1,55z"/>
</g>
<g id="_x23_f9e4a0ff">
	<path class="st48" d="M229.1,55c2,0.9,2.8,3,2.8,5C229.9,59.2,229,57.1,229.1,55z"/>
</g>
<g id="_x23_153e4bff">
	<path class="st49" d="M36.8,57.1l0.8-0.3c0,6.5,10.7,4.3,10.8,11.1c-1.7-1.9-3.7-3.6-6.4-2.9c-1.7,4.5,4.6,8,6.4,2.9
		c1.9,12.9,12,20.6,24.4,22c2.7-2.2,2.3-8.1,6.9-7.6c6.1,1.4,11.7-2.8,15.3-7.3c-0.6,3.5,1.2,5.1,5.1,4.7c-4.6-0.5-3.1,5.2-4.2,8.2
		c-5.9-7.3-15.2-1-19.8,4.2c-0.9,6.6,8.4,1.5,11.2,4.6c-5.8,0.2-9.1,5.5-11.6,10.1c-3.5,2.4-7.8-1.4-11.5-1c-1.8-5,5.2-2.1,8.1-3
		c-1.8-1.9-6.8-2.7-4.5-6.1c3.9-5-9.2-12-8-3.4c2.8,6.8-12,4.8-6.9,10.8c0.4,4.4-8.7,2.9-7.6,7.6c3.9,4.4,10.8,0.6,15.8,3.4l0.7,0.4
		c2.3,6.9,8.1-4.8,9.6,2.3c-2.6,2.2-5,4.5-7.1,7.2c-0.5-2.9-0.3-9-5.8-5.6c-7.4,3.7-14.4,8.3-21.6,12.4c-2.8,5-0.3,11.5-1.8,17
		c-1.7-1.1-3.1-0.1-4.4,1.1c-4.1,0.4-8.3,0.9-12.4,1.2c-0.6-1.4-1.4-2.8-2.1-4.1c1-2.8,0.8-5.1-0.9-7c-0.2-1.2-0.4-2.4-0.5-3.6
		c0.3-7.1,0.5-14.2,0.3-21.3c8.4,4.1,10.6-14.4,1.8-13.5c1.2-3.1,2.2-6.3,2.3-9.6c0.2-0.5,0.6-1.4,0.8-1.9c0.7,4.5,0.8,9.7,5.1,12.3
		c-1.4-3-0.3-13.2,5.2-9.3c5.7,2.3,0,7.4-1.1,11c7,0.4,17.5,1.2,20.3-6.6c1.6,0.2,3.2,0.5,4.8,0.7c1.8-9.3-5.4-16.7-8.1-25.1
		c-5.9,0.7-2.6,8.2-5.1,12c-4,1.7-4.2-3.8-6.8-4.8c-5.1,2.8-9.7,6.4-14.4,9.8c0.5-1.6,0.9-3.2,1.4-4.7c1.5-2.2,2.8-4.6,2.9-7.4
		c0.6-1,1.2-2,1.8-2.9c0.7-0.7,1.4-1.3,2.1-2c1.5,2.8,2.6,7.6,6.9,6c4.8-4.7-5.1-7.7-4-12.9C32.8,63,34.8,60,36.8,57.1 M27.9,113.9
		c2.1-2.7,3.3-9.2-1-10C23,99.7,21.5,113.9,27.9,113.9 M25.4,116.4c-1,3.3-6.7,4.1-4.9,8c0.6,4.7-6.3,13.6,1.2,13.6
		c-0.7-4.9,4.7-1.6,7.3-2c-0.1-2.7-1.4-5.4-0.3-8.1C29.1,124.8,28.8,116.9,25.4,116.4 M31.2,132.1c-1.6,0.8-1.4,2.8-0.1,3.8
		C34.6,136.1,35.3,130.4,31.2,132.1z"/>
</g>
<g id="_x23_3f8596ff">
	<path class="st50" d="M139.9,61.8c0.6-7.6,9.1-0.6,13.3-1.6c-1,0.4-1.9,0.7-2.9,1C146.8,61.3,143.3,61.4,139.9,61.8z"/>
</g>
<g id="_x23_778a70ff">
	<path class="st51" d="M154.8,59.9c3.8-0.7,7.7-0.9,11.6-0.7c-1.5,0.3-3,0.6-4.5,0.9C160.1,60,156.6,60,154.8,59.9z"/>
</g>
<g id="_x23_eed46bff">
	<path class="st52" d="M166.4,59.2l0.9-0.2c2.3,0.3,4.5,0.8,6.8,1c-1.1,3.6-2.6,7.1-3.3,10.8c-3.3-0.4-6.6-0.9-9.9-1.4
		c2.7-2.1,5-7.5,1-9.4C163.4,59.9,164.9,59.6,166.4,59.2z"/>
</g>
<g id="_x23_f0e294ff">
	<path class="st53" d="M153.2,60.2c0.4-0.1,1.2-0.3,1.6-0.3c1.8,0,5.3,0.1,7.1,0.2c3.9,2,1.7,7.4-1,9.4c-1.7-0.2-5-0.6-6.6-0.8
		c-9.4-1.3-19-0.5-28.4-0.8c1.8-1,3.6-1.9,5.4-2.9c2.5-0.8,5-1.6,7.5-2.2c3.9,0.1,7.8-0.5,11.5-1.6
		C151.2,60.9,152.2,60.6,153.2,60.2z"/>
</g>
<g id="_x23_efcb4bff">
	<path class="st54" d="M174.1,60.1c1.7,0,3.4-0.1,5-0.1c1.2,0.4,2.4,0.8,3.6,1.2c2.1,0.7,4.2,1.4,6.4,1.8c-3,3.5-5.5,7.6-6.6,12.1
		c-0.4-0.1-1.1-0.4-1.5-0.5c-1.6-0.6-3.2-1.2-4.8-1.8c-1.8-0.7-3.6-1.4-5.5-1.9C171.6,67.2,173,63.7,174.1,60.1z"/>
	<path class="st54" d="M151.2,109.8c0.4,0.3,1.3,1.1,1.7,1.4c1.2,2.1,2.6,4.1,4,6c0,0.4,0,1.3,0.1,1.8c-2.3,8-6.9,15.3-9.7,23.3
		l-0.6,0.4c-1.6,0.8-3.1,1.7-4.7,2.5c-1.9-0.6-3.8,0.2-5,1.8c-1.6,0.8-3.2,1.6-4.8,2.4c0.9-5.4,4.8-9.7,5.7-15.1
		c-0.5-0.1-1.5-0.4-2-0.6c0.3-0.1,1-0.4,1.3-0.6c2.3,0.6,5.3-1.7,3.1-3.9c-0.3-0.4-1-1.3-1.3-1.8
		C146.1,124.2,146.7,115.2,151.2,109.8z"/>
</g>
<g id="_x23_a0b693ff">
	<path class="st55" d="M139.9,61.8c3.4-0.4,6.9-0.5,10.4-0.6c-3.7,1.1-7.6,1.8-11.5,1.6C139,62.6,139.6,62.1,139.9,61.8z"/>
</g>
<g id="_x23_9d9e5aff">
	<path class="st56" d="M182.8,61.2c2.6-0.2,5.2,0.1,7.4,1.5l-1,0.3C187,62.5,184.9,61.9,182.8,61.2z"/>
</g>
<g id="_x23_807734ff">
	<path class="st57" d="M216,60.9c1.3,0.4,2.3,1.5,2.2,3C216.6,63.9,215.6,62.4,216,60.9z"/>
</g>
<g id="_x23_efc436ff">
	<path class="st58" d="M189.2,62.9l1-0.3l0.7,0.3c2.1,1,4.1,2.1,6.1,3.2c0.5,1.8,2.1,3.1,4,2.8c1.9,2.2,3.9,4.2,6,6.2
		c1.1,1.5,2.2,3.1,3.2,4.7c-0.1,3.8-0.1,7.5-0.1,11.3c-0.4,1-0.8,1.9-1.1,2.9c-2,0.9-2.9,3-2.8,5.1c-1,1.3-2.1,2.6-3.1,3.9
		c-3.2,2.8-6.6,5.6-9,9.3c-1.8,1.5-3.6,3-5.2,4.6c-1.8,1.5-3.8,2.9-5.7,4.3c-1.5-0.4-2.8,0.5-3.2,1.9c-1.2,1-2.5,2-3.8,3
		c-2.6,0.5-4.8,1.8-6.3,4c-1.7,0.9-3.3,1.8-4.9,2.8c-1.9,1.1-3.9,2.2-5.8,3.2c-1.5-0.4-2.8,0.5-3.2,2c-1.1,0.6-2.3,1.3-3.4,1.9
		c-1.8,0.7-3.5,1.5-5.2,2.3c2.8-7.9,7.4-15.3,9.7-23.3c0.6,0.2,1.7,0.7,2.2,0.9c1.3-0.1,2.6-0.4,3.9-0.7c1.9,0,3.3-1.4,3.9-3.1
		c1.4-1,2.7-1.9,4.1-2.9c1.4,0.1,2.6-0.8,3.1-2.1c0.6-0.6,1.3-1.2,1.9-1.8c2.1-0.9,3.8-2.5,4.9-4.5c2.2-2.3,4.4-4.4,6.6-6.7
		c2.2-2.3,3.5-5.2,5-7.9c1.4-2.3,1.4-4.4-0.1-6.2c-2.2-4-6.2-6.3-9.8-8.9C183.7,70.5,186.2,66.5,189.2,62.9z"/>
</g>
<g id="_x23_2b728aff">
	<path class="st59" d="M42,65c2.7-0.7,4.7,1.1,6.4,2.9C46.6,73,40.3,69.5,42,65z"/>
</g>
<g id="_x23_bcb672ff">
	<path class="st60" d="M113,70c6.1-1.5,11.9-4.5,18.2-4.9c-1.8,1-3.6,1.9-5.4,2.9c9.5,0.3,19-0.5,28.4,0.8
		c-9.4,0.9-19.2-1.1-28.3,1.2c-3.1,0.2-6.3-0.2-9.2,0.8l-0.8,0.2C114,71.5,110.8,73,113,70z"/>
</g>
<g id="_x23_235c6bff">
	<path class="st61" d="M28.8,68.8c0.7-0.9,1.3-1.9,2-2.8c-1.2,5.2,8.8,8.3,4,12.9c-4.2,1.6-5.3-3.2-6.9-6
		C28.2,71.5,28.5,70.1,28.8,68.8z"/>
</g>
<g id="_x23_88813cff">
	<path class="st62" d="M197,66.1l0.6-0.3c1.6,0.4,2.8,1.6,3.4,3C199.1,69.2,197.5,67.9,197,66.1z"/>
</g>
<g id="_x23_848445ff">
	<path class="st63" d="M25.7,74.9c0.5-2.3,1.5-4.4,3.1-6.1c-0.3,1.4-0.6,2.7-0.9,4.1C27.2,73.5,26.5,74.2,25.7,74.9z"/>
</g>
<g id="_x23_738262ff">
	<path class="st64" d="M125.9,69.9c9.1-2.3,19-0.2,28.3-1.2c1.7,0.2,5,0.6,6.6,0.8c3.3,0.5,6.6,1,9.9,1.4c1.9,0.5,3.7,1.2,5.5,1.9
		l-0.9,0.3c-7.2-1.2-14.3-2.9-21.6-3C144.5,69.9,135.2,70,125.9,69.9z"/>
</g>
<g id="_x23_827c3aff">
	<path class="st65" d="M201,68.9c2.6,1.4,5.1,3.3,6,6.2C204.9,73.1,202.9,71,201,68.9z"/>
</g>
<g id="_x23_7f7634ff">
	<path class="st66" d="M221,68.8c1.9,1.6,2.8,3.8,3.2,6.2C222.5,73.3,221.6,71.1,221,68.8z"/>
</g>
<g id="_x23_618d8aff">
	<path class="st67" d="M108,71.3c1.6-0.5,3.3-0.9,5-1.3c-2.3,3,1,1.5,2.9,1l-0.2,0.8C115.8,77.1,108.9,74.5,108,71.3z"/>
</g>
<g id="_x23_6e7752ff">
	<path class="st68" d="M116.7,70.8c3-1,6.1-0.7,9.2-0.8C122.9,70.6,119.8,71,116.7,70.8z"/>
</g>
<g id="_x23_11333dff">
	<path class="st69" d="M125.9,69.9c9.3,0.1,18.6-0.1,27.8,0.2c3,3.6,9.5,5.8,10,10.5c-7.6,2.5-15.3,6.3-23.5,5.3
		c1.3-12.5-5.6-1.5-10.7-2.4c-1.4,1.7-2.6,3.5-3.8,5.3c-0.4,0-1.2,0.1-1.7,0.2c-3.1-2.8-8.6-5.3-8.8-9.7c4.6-1.7,2.7-4.5,0.4-7.5
		l0.2-0.8l0.8-0.2C119.8,71,122.9,70.6,125.9,69.9z"/>
</g>
<g id="_x23_215667ff">
	<path class="st70" d="M153.8,70.1c7.3,0.1,14.4,1.8,21.6,3c-1.3,4.3-13.9,4.2-7.4,9.8c-9.6,2.9-21.3,4.6-28.5,12.3
		c-0.6-0.7-1.1-1.3-1.7-2c1.1-1.6,2.7-3.4,1.3-5.4c-3.1-3.6-9.5-0.6-13.5,1.1c1.2-1.8,2.4-3.6,3.8-5.3c5.2,0.8,12.1-10.2,10.7,2.4
		c8.3,1,15.9-2.8,23.5-5.3C163.3,75.9,156.8,73.7,153.8,70.1z"/>
</g>
<g id="_x23_2d6e83ff">
	<path class="st71" d="M100.6,72.5c4.2,3.7,7.2,11.8,14.2,9.9c0.2,5.3,2.1,8.8,9.2,6.6c0.4,0,1.2-0.1,1.7-0.2
		c3.9-1.7,10.3-4.7,13.5-1.1c-5.7-2-10.5,2.1-11.2,7.3c-0.8,1.3-1.7,2.7-2.7,3.9c-0.3-3.9-4.2-0.7-6.1,0.1c-1.5-3.2-3.3-6.3-4.1-9.9
		c-3.4-1.6-6.8-3.6-8.3-7.2c-0.5-2.8-4.7-2.9-4,0.3l-0.3,0.8c-0.8-1.2-1.5-2.4-2.4-3.5c-4,0.4-5.7-1.2-5.1-4.7
		C96.9,74.3,98.8,73.5,100.6,72.5z"/>
</g>
<g id="_x23_0c272fff">
	<path class="st72" d="M40.8,84.9c2.5-3.8-0.8-11.3,5.1-12c2.7,8.4,9.9,15.7,8.1,25.1c-1.6-0.2-3.2-0.5-4.8-0.7
		c-2.8,7.8-13.3,7.1-20.3,6.6c1.1-3.6,6.8-8.7,1.1-11c-5.5-3.9-6.7,6.3-5.2,9.3c-4.3-2.6-4.4-7.8-5.1-12.3c4.7-3.4,9.2-7.1,14.4-9.8
		C36.6,81.2,36.8,86.7,40.8,84.9z"/>
</g>
<g id="_x23_408192ff">
	<path class="st73" d="M175.4,73.1l0.9-0.3c1.6,0.6,3.2,1.2,4.8,1.8c-7.2-0.8-5.3,10.1-12.3,8.7l-0.8-0.3
		C161.5,77.4,174.1,77.4,175.4,73.1z"/>
</g>
<g id="_x23_225a68ff">
	<path class="st74" d="M168.9,83.2c7,1.4,5.1-9.5,12.3-8.7c0.4,0.1,1.1,0.4,1.5,0.5c3.6,2.6,7.6,4.9,9.8,8.9c-1,1.9-0.9,4.2,0.1,6.2
		c-1.4,2.8-2.8,5.7-5,7.9c-4.4-5.4-10.7-9.1-16.4-13C170.3,84.4,169.6,83.8,168.9,83.2z"/>
</g>
<g id="_x23_1c4956ff">
	<path class="st75" d="M224.2,75c1.2,2.7,2.4,5.4,3.9,8c-0.6,1.9,0.2,3.9,1.9,5c0.4,1.2,0.9,2.5,1.2,3.8c0.1,1.7,0.2,3.5,0.5,5.2
		c-5.5-0.3-4.1,10.3-10.4,8.9c-2-2.4-3.9-4.9-5.3-7.7c4,1.3,4.1-4.5,0-3C222,90.4,223.2,82.1,224.2,75z"/>
</g>
<g id="_x23_908135ff">
	<path class="st76" d="M21.1,85.2c0.1-2.8,1.3-5.2,2.9-7.4C23.9,80.6,22.6,83,21.1,85.2z"/>
</g>
<g id="_x23_f4de9bff">
	<path class="st77" d="M4.9,89c0.6-3.1,1.5-6.2,3.2-8.9C7.8,83.2,7.2,86.6,4.9,89z"/>
</g>
<g id="_x23_0e2f3aff">
	<path class="st78" d="M95.8,87.9c1.1-3-0.4-8.6,4.2-8.2c0.9,1.1,1.6,2.3,2.4,3.5c-1.2,7.9-7.5,13-15.2,13.4
		c-2.8-3.1-12.1,2-11.2-4.6C80.7,86.9,89.9,80.6,95.8,87.9z"/>
</g>
<g id="_x23_659fb2ff">
	<path class="st79" d="M102.8,82.5c-0.6-3.3,3.5-3.1,4-0.3c1.5,3.6,4.9,5.6,8.3,7.2c0.7,3.5,2.5,6.7,4.1,9.9c-4.7,0-5.7-5.6-9-8.1
		C107.2,88.7,105.9,84.8,102.8,82.5z"/>
</g>
<g id="_x23_565a30ff">
	<path class="st80" d="M210.2,79.8c2.1,3.3,0.5,7.8-0.1,11.3C210.1,87.3,210.1,83.6,210.2,79.8z"/>
</g>
<g id="_x23_f8e092ff">
	<path class="st81" d="M241.9,80c4.9,8.8,6.3,19.2,7.1,29.1C246.7,99.4,244,89.8,241.9,80z"/>
</g>
<g id="_x23_1b5162ff">
	<path class="st82" d="M102.5,83.2l0.3-0.8c3.1,2.3,4.4,6.2,7.4,8.6c0.6,6.6-6.5,0.6-8.2,5c-5.1-2.9-9.1,2.5-14,3.1
		c-5.4,0.8-8,5.9-11.4,9.5c-5.7,2.9-12.9,0.6-18.7,3.4c0.6,1,1.6,1.6,2.5,2.3l0.6,0.7c-5-2.8-11.9,1-15.8-3.4
		c-1.1-4.6,8-3.1,7.6-7.6c-5-6,9.7-4,6.9-10.8c-1.1-8.6,12-1.6,8,3.4c-2.3,3.4,2.8,4.2,4.5,6.1c-2.9,0.8-9.9-2-8.1,3
		c3.7-0.5,8,3.4,11.5,1c2.5-4.6,5.8-9.8,11.6-10.1C95,96.3,101.3,91.2,102.5,83.2 M58.3,99.2c-2.1,0.7-0.7,2.2,0.4,3.1
		C62.9,106.5,66.4,94.1,58.3,99.2z"/>
</g>
<g id="_x23_16363fff">
	<path class="st83" d="M139.6,95.2c7.2-7.7,18.9-9.3,28.5-12.3l0.8,0.3c0.8,0.6,1.5,1.2,2.2,1.8c-8.5,4.2-18.9,2.6-26.9,8.1
		c-2.8,2.1-0.1,5.5,0.8,7.9C142.9,99.4,141.1,97.3,139.6,95.2z"/>
</g>
<g id="_x23_8b8c4bff">
	<path class="st84" d="M228.1,83c1.5,1.2,2.3,3,1.9,5C228.3,86.9,227.5,84.9,228.1,83z"/>
</g>
<g id="_x23_8d9049ff">
	<path class="st85" d="M192.4,83.9c1.5,1.8,1.5,3.8,0.1,6.2C191.5,88.2,191.4,85.9,192.4,83.9z"/>
</g>
<g id="_x23_091a1eff">
	<path class="st86" d="M144.2,93.2c8-5.5,18.4-3.9,26.9-8.1c5.7,3.9,12,7.6,16.4,13c-2.1,2.3-4.4,4.5-6.6,6.7
		c-2.2,0.8-3.8,2.5-4.9,4.5c-0.6,0.6-1.3,1.2-1.9,1.8c-1.5-0.5-3,0.5-3.1,2.1c-1.4,1-2.7,1.9-4.1,2.9c-2-0.3-3.6,1.2-3.9,3.1
		c-1.3,0.3-2.6,0.6-3.9,0.7c0.1-1.4-1-2.4-2.3-2.6c-1.4-1.9-2.8-4-4-6c1.8-5.7-3.9-7.8-8-10.1C144.1,98.7,141.4,95.2,144.2,93.2z"/>
</g>
<g id="_x23_7cadafff">
	<path class="st87" d="M128.1,95.2c0.7-5.3,5.5-9.3,11.2-7.3c1.4,2-0.2,3.7-1.3,5.4c-1.3-1.5-2.5-3.1-3.9-4.4
		C131.6,90.5,129.9,92.9,128.1,95.2z"/>
</g>
<g id="_x23_f5df9cff">
	<path class="st88" d="M2.2,103.2C1.8,98.3,3.1,93.5,4.9,89C5,93.9,3.4,98.6,2.2,103.2z"/>
</g>
<g id="_x23_f1e293ff">
	<path class="st89" d="M128.1,95.2c1.9-2.2,3.6-4.6,5.9-6.4c1.4,1.3,2.6,2.9,3.9,4.4c0.6,0.7,1.1,1.3,1.7,2c1.6,2.2,3.3,4.2,5.4,5.9
		c0.1,0.4,0.2,1.2,0.3,1.7c-4.1,5.5-5.4,12.7-10.2,17.7c-2.7-7.1-8.6-3.7-10.1,2.6c-0.2,0.3-0.7,0.8-0.9,1.1
		c-1.9,2.1-3.6,4.4-5.2,6.8c-0.2,0.3-0.7,0.8-0.9,1.1c-1.4,0.3-2.4,1.6-2.2,3c-1.3,1.7-2.6,3.3-4.1,4.8c-1.6,1.4-3.2,2.9-2.9,5.2
		c3.6-0.7,7.1-2,10.3-3.9c1.6-0.8,3.2-1.5,4.9-2.3c0.4,0.1,1.3,0.2,1.8,0.2c1.8,3.3-3.8,9.4-4.8,13.8c-0.7,0.7-1.3,1.4-1.9,2.1
		c-11.5,4.5-23.1,8.7-34.9,12.1c-3.6,0.5-9,2.4-6.3-3.2c0.8-0.9,1.6-1.7,2.4-2.6c2-1.6,3.2-3.9,3.8-6.4c0.7-0.9,1.4-1.8,2-2.7
		c1.4-0.4,2.2-1.7,2.1-3c0.6-0.7,1.1-1.5,1.7-2.2c1.6-0.1,2.6-1.5,2.2-3c2.8-4.1,5.9-8,8.8-12c1.5-0.1,2.5-1.3,2.4-2.8
		c1-1.4,1.9-2.7,2.9-4.1c1.7-0.6,3.1-2,2.9-4c1.4-0.3,2.3-1.5,2.2-3c0.2-0.2,0.7-0.7,0.9-1c1.3-0.4,2.2-1.5,2.2-2.9
		c0.2-0.5,0.7-1.5,0.9-2c0.8-1.1,1.7-2.2,2.6-3.3c1.6,0.1,2.7-1.4,2.2-2.9c0.2-0.2,0.7-0.7,0.9-1c1.6-0.1,2.5-1.5,2.1-3
		c0.8-1,1.6-1.9,2.4-2.9C126.4,97.8,127.2,96.5,128.1,95.2z"/>
</g>
<g id="_x23_286679ff">
	<path class="st90" d="M110.2,91.1c3.3,2.5,4.3,8.1,9,8.1c-8.8,2.3-19.2,1.7-25.7,9.3c-1.5,0.1-4.4,0.2-5.9,0.3l0.5-0.6
		c7.3-0.7,11.1-8.5,17-12.1c-0.8,0-2.4-0.1-3.2-0.1C103.7,91.7,110.9,97.7,110.2,91.1z"/>
</g>
<g id="_x23_898541ff">
	<path class="st91" d="M15.9,102.1c0.7-3.5,1.4-7,3.1-10.3c-0.1,3.3-1.1,6.5-2.3,9.6L15.9,102.1z"/>
</g>
<g id="_x23_847e3cff">
	<path class="st92" d="M231.2,91.8c1.5,3.6,2.3,7.4,2.9,11.3c-0.3-0.3-0.8-1-1.1-1.3c-0.4-1.6-0.9-3.2-1.4-4.7
		C231.4,95.2,231.3,93.5,231.2,91.8z"/>
</g>
<g id="_x23_7d7e48ff">
	<path class="st93" d="M206.1,99c-0.1-2.1,0.7-4.2,2.8-5.1C209,96.1,208.1,98.2,206.1,99z"/>
</g>
<g id="_x23_307487ff">
	<path class="st94" d="M88,99.1c4.9-0.5,8.9-6,14-3.1c-3.6,2.3-7.9,3.7-11,6.8c-6.9,4.6-13.7,9.3-19.8,15c-1.5-7.1-7.3,4.6-9.6-2.3
		c7,0.9,0.7-8-1.2-1.2c-0.9-0.7-1.9-1.3-2.5-2.3c5.8-2.9,13-0.5,18.7-3.4C80,105,82.6,99.9,88,99.1z"/>
</g>
<g id="_x23_568a9cff">
	<path class="st95" d="M216,95c4-1.5,4,4.3,0,3C216,97.3,216,95.8,216,95z"/>
</g>
<g id="_x23_86ab96ff">
	<path class="st96" d="M102,96c0.8,0,2.4,0.1,3.2,0.1c-6,3.6-9.7,11.4-17,12.1c0.8-1.9,7.2-5.3,2.9-5.4C94.1,99.8,98.4,98.4,102,96z
		"/>
</g>
<g id="_x23_163740ff">
	<path class="st97" d="M119.2,99.2c1.9-0.8,5.8-4.1,6.1-0.1c-0.8,1-1.6,1.9-2.4,2.9c-1.4,0.4-2.3,1.6-2.1,3c-0.2,0.2-0.7,0.7-0.9,1
		c-1.3,0.4-2.3,1.5-2.2,2.9c-0.9,1.1-1.8,2.2-2.6,3.3c-0.9-3.5,0-8.8-4.1-10c-5.4,4-13.7,2.4-16.5,9.4c-3.4,7.4-5.7,15.3-9.2,22.7
		c0.5-5.4-5-7.9-9.3-9.3c-1.6,6,3.2,14.9,9.3,9.3c-2,5.5-3.9,12.3,0.3,17.3l0.4,0.7c-0.7,0.9-1.4,1.8-2,2.7c-1.3,1.5-2.6,3-3.9,4.5
		c-1.8-3.4-1.7-7.2-1.2-10.9c1.9-0.6,4.8-2.5,2-4.2c-2.8-1.6-1.5,2.7-2,4.2c-4.4-1.8,1.2-8.5-4.8-8.4c-4-0.2,0.5,5.8-2.9,5
		c0.7-3.5-1.7-3.2-4.1-2.2c0-2.3-0.6-4.4-2-6.2c5.8-10.5,13.2-20.4,22.6-27.8c1.5-0.1,4.4-0.2,5.9-0.3
		C100,100.9,110.4,101.5,119.2,99.2z"/>
</g>
<g id="_x23_468da4ff">
	<path class="st98" d="M58.3,99.2c8.1-5.1,4.6,7.3,0.4,3.1C57.6,101.4,56.1,99.8,58.3,99.2z"/>
</g>
<g id="_x23_10252aff">
	<path class="st99" d="M16.7,101.5c8.9-0.9,6.6,17.6-1.8,13.5c0-0.6-0.1-1.7-0.1-2.2c0.1-0.7,0.3-2.1,0.4-2.8c1.6-2.5,1.8-4.8,0.4-7
		l0.3-0.9L16.7,101.5z"/>
</g>
<g id="_x23_2c4b4bff">
	<path class="st100" d="M145,101.1c4.1,2.3,9.7,4.4,8,10.1c-0.4-0.4-1.3-1.1-1.7-1.4c-1.9-2.4-3.9-4.7-5.9-7
		C145.2,102.3,145.1,101.5,145,101.1z"/>
</g>
<g id="_x23_0b1e22ff">
	<path class="st101" d="M94.5,111.5c2.8-7,11.1-5.4,16.5-9.4c4.1,1.2,3.2,6.6,4.1,10c-0.2,0.5-0.7,1.5-0.9,2
		c-1.6-0.1-2.7,1.4-2.2,2.9c-0.2,0.2-0.7,0.7-0.9,1c-1.5,0.1-2.6,1.5-2.2,3c-1.8,0.5-3.2,2-2.9,4c-1,1.4-1.9,2.7-2.9,4.1
		c-1.5,0-2.5,1.3-2.4,2.8c-3,4-6,7.9-8.8,12c-1.4,0.4-2.3,1.6-2.2,3c-0.6,0.7-1.1,1.5-1.7,2.2c-1.3,0.3-2.1,1.1-2.5,2.3
		c-4.2-5-2.3-11.8-0.3-17.3C88.8,126.8,91.2,118.9,94.5,111.5z"/>
</g>
<g id="_x23_8b8960ff">
	<path class="st102" d="M120.8,104.9c-0.2-1.4,0.7-2.7,2.1-3C123.4,103.4,122.4,104.8,120.8,104.9z"/>
</g>
<g id="_x23_0a1d21ff">
	<path class="st103" d="M226.7,110.7c-2.9-5.3,1.8-8.5,6.4-9.1c0.3,0.3,0.8,1,1.1,1.3c-1.3,2.9-1.1,5.2,0.7,7.1
		c0.1,1.2,0.2,2.4,0.2,3.6c-0.1,3.2-0.1,6.4-0.2,9.6c-4.5-1.3-4.9-6.7-6.8-10.3C227.8,112.4,227.1,111.3,226.7,110.7z"/>
</g>
<g id="_x23_796b29ff">
	<path class="st104" d="M15.2,110c-1.2-2.2-1.1-4.6,0.4-7C17,105.2,16.9,107.6,15.2,110z"/>
</g>
<g id="_x23_327185ff">
	<path class="st105" d="M27.9,113.9c-6.4-0.1-4.9-14.3-1-10c-5.4,0.9,1.8,5.8,0,0C31.2,104.8,30,111.2,27.9,113.9z"/>
</g>
<g id="_x23_e2ba38ff">
	<path class="st106" d="M91,102.9c4.3,0.1-2.1,3.4-2.9,5.4l-0.5,0.6c-9.4,7.4-16.8,17.3-22.6,27.8c-2.8,4.2-5.3,8.7-7.2,13.4
		c-1.8,1.4-2.4,3.6-2,5.8c-0.4,3.9-0.8,7.9-1.2,11.9c-4.6,5.9-3.9,13.7-3.1,20.7c-2.4-1.5-4.3-3.7-5.8-6.2
		c-2.6-8.9-2.1-18.3-0.8-27.4c0.7-1.6,1.4-3.2,2.2-4.8c1.3-0.9,2.1-2.5,1.8-4.1c4.3-7.5,9.5-14.5,15.3-20.9c2.1-2.6,4.5-5,7.1-7.2
		C77.3,112.2,84.2,107.5,91,102.9z"/>
</g>
<g id="_x23_efd469ff">
	<path class="st107" d="M145.3,102.7c2,2.3,4,4.6,5.9,7c-4.5,5.5-5.1,14.4-12.1,17.6c-1.4-1.8-2.8-3.5-4.3-5.2
		c0.1-0.4,0.2-1.3,0.3-1.7C139.9,115.4,141.2,108.2,145.3,102.7z"/>
</g>
<g id="_x23_7f844cff">
	<path class="st108" d="M194.1,112.2c2.3-3.7,5.7-6.4,9-9.3C201.7,107.3,197.5,109.7,194.1,112.2z"/>
</g>
<g id="_x23_7a6e2bff">
	<path class="st109" d="M234.1,103c1.8,1.8,2,4.2,0.7,7.1C233.1,108.2,232.9,105.9,234.1,103z"/>
</g>
<g id="_x23_83b1beff">
	<path class="st110" d="M26.9,103.9C21.5,104.8,28.6,109.8,26.9,103.9z"/>
</g>
<g id="_x23_081b21ff">
	<path class="st111" d="M206.3,104.3c5.3-1.3,15.4,5.6,11.4,11.4c-2.8,1-5.4,2.4-7.7,4.4C204.6,117.4,197.6,106.9,206.3,104.3z"/>
</g>
<g id="_x23_6c6730ff">
	<path class="st112" d="M176.1,109.3c1.1-2,2.7-3.7,4.9-4.5C179.8,106.7,178.2,108.4,176.1,109.3z"/>
</g>
<g id="_x23_8b936dff">
	<path class="st113" d="M117.7,108.8c0-1.4,0.9-2.5,2.2-2.9C120.4,107.4,119.3,108.9,117.7,108.8z"/>
</g>
<g id="_x23_7b6e30ff">
	<path class="st114" d="M171.1,113.2c0-1.6,1.6-2.6,3.1-2.1C173.7,112.4,172.5,113.3,171.1,113.2z"/>
</g>
<g id="_x23_1f5b70ff">
	<path class="st115" d="M224,117.1c-2.8-4.1,0.6-5,2.7-6.3c0.4,0.6,1.1,1.7,1.4,2.3C228.4,115.5,226.8,117.8,224,117.1z"/>
</g>
<g id="_x23_61a3b9ff">
	<path class="st116" d="M60.4,114.4c2-6.9,8.2,2.1,1.2,1.2l-0.7-0.4L60.4,114.4z"/>
</g>
<g id="_x23_566644ff">
	<path class="st117" d="M14.6,136.3c-1.4-7.7-0.8-15.8,0.2-23.5c0,0.5,0.1,1.7,0.1,2.2C15.2,122.1,14.9,129.2,14.6,136.3z"/>
</g>
<g id="_x23_7d7d54ff">
	<path class="st118" d="M112,117.1c-0.4-1.5,0.6-3,2.2-2.9C114.3,115.6,113.3,116.7,112,117.1z"/>
</g>
<g id="_x23_2f504cff">
	<path class="st119" d="M235.1,113.7l0.8,0.4c0.1,7.2,0.1,14.5,0,21.8l-0.8,0.5c-0.1-1.7-0.1-3.4-0.3-5.1c-2.3,0.4-6.4,1.6-5.9-2.2
		c-1.1-4.5,7.4-1,6-5.7C235.1,120.1,235.1,116.9,235.1,113.7z"/>
</g>
<g id="_x23_c4a533ff">
	<path class="st120" d="M236,114.1c2.7,5.7,1.2,15.8,0,21.8C236,128.6,236,121.3,236,114.1z"/>
</g>
<g id="_x23_0d2a33ff">
	<path class="st121" d="M25.4,116.4c3.3,0.6,3.6,8.4,3.3,11.5c-1,2.7,0.2,5.4,0.3,8.1c-2.6,0.4-8-2.8-7.3,2c-7.5,0-0.6-8.9-1.2-13.6
		C18.7,120.4,24.5,119.7,25.4,116.4z"/>
</g>
<g id="_x23_78876eff">
	<path class="st122" d="M125,123c1.5-6.3,7.4-9.6,10.1-2.6c-0.1,0.4-0.2,1.3-0.3,1.7c-1.4-1.6-2.6-3.4-4-5
		C128.8,119.1,126.9,121.1,125,123z"/>
</g>
<g id="_x23_7d6e2cff">
	<path class="st123" d="M163.1,119.2c0.3-1.9,1.9-3.4,3.9-3.1C166.4,117.7,165,119.2,163.1,119.2z"/>
</g>
<g id="_x23_0c2024ff">
	<path class="st124" d="M188.8,116.8c5.7-2.5,4.2,6.2,7.1,9.3c-0.5,4.1-6,2.1-7.4,5.6c-1.1,3.7-7,3.3-5.9,7.4c-5.9,0.1-6.2-7-8.5-11
		c0.7-0.7,1.3-1.4,1.9-2.1c1.3-1,2.5-2,3.8-3c1.5,0.4,2.8-0.5,3.2-1.9C185,119.7,187,118.3,188.8,116.8z"/>
</g>
<g id="_x23_102022ff">
	<path class="st125" d="M125,123c2-1.9,3.8-4,5.8-5.9c1.4,1.6,2.6,3.4,4,5c1.4,1.7,2.9,3.4,4.3,5.2c0.3,0.4,1,1.3,1.3,1.8
		c-1,1.4-2.1,2.6-3.1,3.9c-0.3,0.1-1,0.4-1.3,0.6c-2.4,1-4.9,2-7.1,3.3c-1.9-0.4-4.1-0.2-4.8,1.9c-1.6,0.8-3.2,1.5-4.9,2.3
		c-3-0.3-9.9,4.5-7.3-1.3c1.4-1.6,2.8-3.2,4.1-4.8c1.5-0.2,2.5-1.5,2.2-3c0.2-0.3,0.6-0.8,0.9-1.1c1.9-2.1,3.6-4.4,5.2-6.8
		C124.3,123.8,124.8,123.3,125,123z"/>
</g>
<g id="_x23_7c6f2fff">
	<path class="st126" d="M157,117.2c1.3,0.2,2.3,1.3,2.3,2.6c-0.6-0.2-1.7-0.7-2.2-0.9C157,118.5,157,117.6,157,117.2z"/>
</g>
<g id="_x23_808157ff">
	<path class="st127" d="M109,121.1c-0.4-1.5,0.7-2.9,2.2-3C111.3,119.5,110.4,120.8,109,121.1z"/>
</g>
<g id="_x23_0e262bff">
	<path class="st128" d="M58.4,119.4c5.4-3.4,5.3,2.7,5.8,5.6c-5.8,6.4-11,13.4-15.3,20.9c-1.8,0.6-2.4,2.4-1.8,4.1
		c-0.7,1.6-1.5,3.2-2.2,4.8c-2.8,5.9-2.8,12.6-2.9,18.9c-4.5,4.9-14.8-5-15.3,3.2c-1.8-3.3-3-6.8-4.8-10c0.5-1.9-0.2-4-2-4.9
		c0.6-1.4,0.6-3.3-1-4c-0.2-2.4-0.4-4.7-0.7-7.1c4.2-0.2,8.3-0.7,12.4-1.2c1.9,0.9,4,1.8,4.4-1.1c1.6-5.5-0.9-12,1.8-17
		C44,127.7,51,123.1,58.4,119.4z"/>
</g>
<g id="_x23_163f4bff">
	<path class="st129" d="M201.6,120.6c2.3-4.8,6.9,2.2,7.8,5.1c1.2-1.4,2.3-2.8,3.7-4c5.2,3.9,2,10.3-1.1,14.4
		c-5.4-7.1-9.8,7.8-16.9,5.9l-0.8,0.2c-8.3,1-16-1.6-24.3,0.8c-1.5,0-3,0.3-4.5,0.7c-4.2,1.2-10.4-0.2-11.6,5.3
		c1.3,3.4,5.5,3,8.4,3.9l-0.4,0.9c-2.4,1.7-5,3.2-7.6,4.5c1.6-3.9-2.1-6.9-2.9-10.5c2.1-5.4-2.2-4.5-4.8-5.2l0.6-0.4
		c1.7-0.8,3.4-1.6,5.2-2.3c3.9,3.2,11.3,4.7,15.4,0.8c-0.5-2.6,2.1-9-3-8c1.6-1,3.3-1.9,4.9-2.8c1.5-0.6,2.9-1.2,4.3-1.9
		c2.3,3.9,2.6,11.1,8.5,11c-1.1-4.1,4.7-3.7,5.9-7.4c3.6,0,6.9-1.3,9.6-3.7c3.1,1.5-0.1,8.5,5.7,7
		C206.6,130.7,198.6,125.7,201.6,120.6z"/>
</g>
<g id="_x23_858153ff">
	<path class="st130" d="M106.1,125c-0.2-1.9,1.1-3.5,2.9-4C109.2,123,107.8,124.4,106.1,125z"/>
</g>
<g id="_x23_89772cff">
	<path class="st131" d="M179.9,122.9c0.4-1.4,1.8-2.3,3.2-1.9C182.7,122.5,181.3,123.4,179.9,122.9z"/>
</g>
<g id="_x23_777f67ff">
	<path class="st132" d="M118.9,130.9c1.6-2.4,3.3-4.6,5.2-6.8C122.5,126.5,120.8,128.8,118.9,130.9z"/>
</g>
<g id="_x23_1a5063ff">
	<path class="st133" d="M76,124.8c4.3,1.4,9.8,3.9,9.3,9.3C79.2,139.8,74.4,130.8,76,124.8z"/>
</g>
<g id="_x23_827b3eff">
	<path class="st134" d="M169.9,130c1.5-2.2,3.7-3.5,6.3-4c-0.6,0.7-1.3,1.4-1.9,2.1C172.8,128.8,171.3,129.4,169.9,130z"/>
</g>
<g id="_x23_868455ff">
	<path class="st135" d="M100.8,131.9c-0.2-1.5,0.9-2.8,2.4-2.8C103.3,130.6,102.3,131.8,100.8,131.9z"/>
</g>
<g id="_x23_8a8044ff">
	<path class="st136" d="M140.4,129.1c2.1,2.2-0.8,4.5-3.1,3.9C138.3,131.8,139.4,130.5,140.4,129.1z"/>
</g>
<g id="_x23_39788dff">
	<path class="st137" d="M31.2,132.1c4.1-1.8,3.4,3.9-0.1,3.8C29.8,134.9,29.6,132.9,31.2,132.1z"/>
</g>
<g id="_x23_707559ff">
	<path class="st138" d="M115.9,135c-0.2-1.5,0.7-2.7,2.2-3C118.4,133.4,117.4,134.8,115.9,135z"/>
</g>
<g id="_x23_0c1c1eff">
	<path class="st139" d="M159.1,136c2-1.1,3.9-2.1,5.8-3.2c5.1-1.1,2.5,5.3,3,8c-4.1,3.9-11.5,2.4-15.4-0.8c1.1-0.6,2.3-1.3,3.4-1.9
		C157.4,138.3,158.7,137.5,159.1,136z"/>
</g>
<g id="_x23_efd266ff">
	<path class="st140" d="M128.8,136.9c2.3-1.3,4.7-2.4,7.1-3.3c0.5,0.1,1.5,0.4,2,0.6c-0.9,5.4-4.8,9.7-5.7,15.1
		c-1.1,0.6-2.1,1.3-3.2,1.9c-2-0.6-4,0.1-5,1.9c-0.8-0.1-2.2-0.2-3-0.3c1-4.5,6.5-10.6,4.8-13.8
		C126.9,138.4,127.9,137.8,128.8,136.9z"/>
</g>
<g id="_x23_24667cff">
	<path class="st141" d="M195,142c7.1,1.9,11.5-12.9,16.9-5.9c0.1,0.4,0.2,1.3,0.3,1.7c-4.2-3.7-6.5,1.1-7.7,4.8
		C201.3,142.5,198.1,142.1,195,142z"/>
</g>
<g id="_x23_7c7034ff">
	<path class="st142" d="M155.9,138c0.3-1.5,1.7-2.4,3.2-2C158.7,137.5,157.4,138.3,155.9,138z"/>
</g>
<g id="_x23_478ea5ff">
	<path class="st143" d="M204.4,142.7c1.2-3.7,3.5-8.5,7.7-4.8c-1.2,2.1-1.6,4.5-1.5,6.9c-2.5,1.1-5.2,0.6-7.8,0.3
		c-3.1-1.3-4.8,3-7.8,1.9c-3.1-1-6.3-2-6.6,1.8c-4.8,2.9-5.1-2.1-5.5-4.7c3.8,0.4,8.3,1.2,11.3-1.9l0.8-0.2
		C198.1,142.1,201.3,142.5,204.4,142.7z"/>
</g>
<g id="_x23_0b1b1eff">
	<path class="st144" d="M65,136.6c1.4,1.8,2,4,2,6.2c-0.8,2.9,2.3,2.1,4.1,2.2c3.4,0.7-1-5.3,2.9-5c6-0.1,0.4,6.6,4.8,8.4
		c-0.5,3.7-0.5,7.5,1.2,10.9c0,0.5,0.1,1.4,0.2,1.9c-0.8,0.9-1.7,1.7-2.4,2.6c-1.4,1.4-2.5,3.2-3,5.2c3.4,0.9,6.8,0.2,9.4-2
		c11.8-3.4,23.5-7.6,34.9-12.1c1.9,0.4,3.7-0.4,4.9-1.8c1.9,0.3,3.8-0.5,5-1.9c1.1-0.6,2.1-1.3,3.2-1.9c1.6-0.8,3.2-1.6,4.8-2.4
		c1.9,0.6,3.8-0.2,5-1.8c1.6-0.8,3.1-1.7,4.7-2.5c2.6,0.6,6.9-0.2,4.8,5.2c0.8,3.6,4.4,6.6,2.9,10.5c-4.9,2.4-9.7,5.1-14.4,7.9
		c-1.9-0.7-3.8,0.2-5.1,1.7c-0.5,0.3-1.4,1-1.9,1.3c-1.9-0.7-3.9,0.1-5,1.8c-5.5,2.9-11.4,4.6-17.2,6.8c-1.2,0.5-2.5,1-3.7,1.5
		c-1.3-0.6-3.4-0.8-4,0.9c-11.4,0.8-22.8,2.8-34.1,1c-3.9-1.4-7.7-3.6-10.2-6.9c-2.6-5.8-3.1-12.1-2.9-18.4c1.8-1.4,2.5-3.6,2-5.8
		C59.7,145.3,62.2,140.9,65,136.6z"/>
</g>
<g id="_x23_7d7e5aff">
	<path class="st145" d="M124,138.8c0.7-2.1,2.9-2.3,4.8-1.9c-0.9,0.9-1.9,1.6-3,2.1C125.3,139,124.4,138.9,124,138.8z"/>
</g>
<g id="_x23_276276ff">
	<path class="st146" d="M212.2,137.9c2.9,0.8,5.6,2.6,8.7,2.9c1.9-1.1,3.8-1.8,5.3,0.3l-0.1,0.9c-1.4,0-2.8,0-4.2,0
		c-4-0.8-4.1,1-2.3,3.9c-3,2.3-5.7,4.9-7.7,8.1c0.9-3.1,1.3-8.3-3.4-6.5c-2.6,2.8-4.1-0.3-5.6-2.4c2.6,0.3,5.3,0.8,7.8-0.3
		C210.5,142.4,211,140,212.2,137.9z"/>
</g>
<g id="_x23_838345ff">
	<path class="st147" d="M15.2,139.9c1.6,1.9,1.9,4.2,0.9,7C14,145.3,13.7,143,15.2,139.9z"/>
</g>
<g id="_x23_7a8064ff">
	<path class="st148" d="M108.9,145c-0.3-2.3,1.3-3.8,2.9-5.2c-2.5,5.8,4.4,1,7.3,1.3C116,143,112.5,144.3,108.9,145z"/>
</g>
<g id="_x23_216278ff">
	<path class="st149" d="M170,143c8.3-2.4,16,0.1,24.3-0.8c-3,3.1-7.5,2.2-11.3,1.9c0.4,2.7,0.7,7.7,5.5,4.7c0.3-3.8,3.5-2.8,6.6-1.8
		c-9.8-2-1.9,12.1,4,8.9c3.4,0.1,6.9,0.2,10.3,0.4c-6.9,3.2-15.8,0.6-23.2-0.5c-3.6-0.5-5-4.4-7.4-6.6c-2.9,0.6-5.7,2.6-8.7,1
		C172.1,148,172.5,145.1,170,143z"/>
</g>
<g id="_x23_285d6dff">
	<path class="st150" d="M226.2,141c4.8,0.9,6.6,11.9,7.7,0.8c-0.6,1.7-0.1,3.6,0.6,5.2c-0.3,0.5-0.9,1.5-1.3,2
		c-3.7,0.1-5,4.5-8.7,4.9c-2.2-0.3-5,0.1-5.4-2.7c2.4-1.2,4.7-2.7,5.9-5.1c0.8-1.3,0.9-2.8,1-4.2L226.2,141z"/>
</g>
<g id="_x23_8d8941ff">
	<path class="st151" d="M233.9,141.8c0.3-0.2,0.8-0.7,1.1-1c-0.1,1.5-0.4,4.6-0.5,6.2C233.8,145.4,233.3,143.6,233.9,141.8z"/>
</g>
<g id="_x23_fae193ff">
	<path class="st152" d="M245.1,161c0-6.9,2.1-13.6,3.8-20.2C248.5,147.6,247.6,154.6,245.1,161z"/>
</g>
<g id="_x23_5a7076ff">
	<path class="st153" d="M67,142.9c2.5-1.1,4.8-1.3,4.1,2.2C69.3,144.9,66.2,145.7,67,142.9z"/>
</g>
<g id="_x23_387f97ff">
	<path class="st154" d="M219.6,145.9c-1.9-2.9-1.7-4.7,2.3-3.9c-1.7,3.2-0.5,4.8,3.1,4.2c-1.2,2.5-3.5,4-5.9,5.1
		c0.4,2.9,3.2,2.4,5.4,2.7c-5.5,3-10.9,6.5-16.9,8.4c-4.3,0.3-9.5,2.3-10.9,6.6c-8-6-17.6-9.7-27.4-11.4c-0.3-1.2-1-3.6-1.3-4.8
		c0.7-0.8,1.3-1.7,2-2.5c3,1.5,5.8-0.4,8.7-1c2.4,2.2,3.8,6.1,7.4,6.6c7.4,1.1,16.3,3.7,23.2,0.5c0.9-0.7,1.9-1.4,2.6-2.3
		C213.9,150.8,216.6,148.2,219.6,145.9z"/>
</g>
<g id="_x23_93b7bfff">
	<path class="st155" d="M221.9,141.9c1.4,0,2.8,0,4.2,0c-0.1,1.4-0.3,2.9-1,4.2C221.3,146.8,220.2,145.1,221.9,141.9z"/>
</g>
<g id="_x23_39849dff">
	<path class="st156" d="M165.5,143.7c1.5-0.4,3-0.6,4.5-0.7c2.5,2.1,2.1,5,0,7.2l-0.7-0.6C167.8,147.8,164.8,146.5,165.5,143.7z"/>
</g>
<g id="_x23_f7e19bff">
	<path class="st157" d="M1.2,143.8c2.1,4.8,2.8,10,3.9,15.1c-0.1,0.6-0.1,1.7-0.2,2.2C2.9,155.5,1.3,149.7,1.2,143.8z"/>
</g>
<g id="_x23_407d91ff">
	<path class="st158" d="M78.8,148.4c0.5-1.5-0.9-5.8,2-4.2C83.6,145.9,80.8,147.8,78.8,148.4z"/>
</g>
<g id="_x23_928f5dff">
	<path class="st159" d="M89.8,146.9c-0.1-1.4,0.8-2.6,2.2-3C92.4,145.4,91.4,146.9,89.8,146.9z"/>
</g>
<g id="_x23_1e5b6eff">
	<path class="st160" d="M153.9,149c1.1-5.5,7.3-4.2,11.6-5.3c-0.7,2.8,2.3,4.1,3.8,5.9c-2.4,0.9-4.7,2-6.9,3.3
		C159.4,152.1,155.2,152.4,153.9,149z"/>
</g>
<g id="_x23_7e7134ff">
	<path class="st161" d="M137,146.9c1.2-1.6,3.1-2.4,5-1.8C140.8,146.7,138.9,147.5,137,146.9z"/>
</g>
<g id="_x23_1a4e5fff">
	<path class="st162" d="M195,147c3,1.1,4.7-3.2,7.8-1.9c1.5,2.1,3.1,5.2,5.6,2.4c4.7-1.9,4.3,3.4,3.4,6.5c-0.7,0.9-1.7,1.6-2.6,2.3
		c-3.4-0.2-6.9-0.3-10.3-0.4C193.1,159.1,185.2,145,195,147z"/>
</g>
<g id="_x23_736b37ff">
	<path class="st163" d="M47.1,150c-0.6-1.7,0-3.6,1.8-4.1C49.2,147.5,48.4,149.1,47.1,150z"/>
</g>
<g id="_x23_73733dff">
	<path class="st164" d="M16,146.9c0.8,1.3,1.5,2.7,2.1,4.1c0.3,2.4,0.6,4.7,0.7,7.1C17.4,154.5,16.6,150.8,16,146.9z"/>
</g>
<g id="_x23_628b97ff">
	<path class="st165" d="M30.6,149.9c1.3-1.2,2.7-2.1,4.4-1.1C34.7,151.6,32.5,150.8,30.6,149.9z"/>
</g>
<g id="_x23_85875aff">
	<path class="st166" d="M85.6,151.4c0.4-1.2,1.2-2,2.5-2.3c0,1.4-0.8,2.6-2.1,3L85.6,151.4z"/>
</g>
<g id="_x23_629badff">
	<path class="st167" d="M224.5,154c3.7-0.5,5-4.9,8.7-4.9l-0.3,0.9c-2.4-0.4-2.2,2.4-0.5,3.2c-0.4,0.2-1.1,0.7-1.4,0.9
		c-5.8,2.5-11.2,5.9-16.5,9.3c-4-2.2-9.8,2.4-9.4,6.9c-2.4,1.1-5.6-1.2-8.3-1.2c1.4-4.3,6.6-6.3,10.9-6.6
		C213.6,160.4,219,157,224.5,154z"/>
</g>
<g id="_x23_8f7d32ff">
	<path class="st168" d="M55.8,155.8c-0.4-2.2,0.3-4.4,2-5.8C58.3,152.2,57.6,154.5,55.8,155.8z"/>
</g>
<g id="_x23_778457ff">
	<path class="st169" d="M162.4,152.9c2.2-1.2,4.5-2.4,6.9-3.3l0.7,0.6c-0.7,0.8-1.3,1.7-2,2.5c-0.5,0.2-1.4,0.6-1.9,0.8
		c-1.4,0-2.8,0.1-4.2,0.2L162.4,152.9z"/>
</g>
<g id="_x23_cad5bfff">
	<path class="st170" d="M232.3,153.1c-1.7-0.8-1.9-3.6,0.5-3.2c0,0.8,0.1,2.3,0.2,3.1L232.3,153.1z"/>
</g>
<g id="_x23_7b7444ff">
	<path class="st171" d="M124,153.1c1-1.8,3.1-2.6,5-1.9C127.7,152.6,125.9,153.4,124,153.1z"/>
</g>
<g id="_x23_8f8550ff">
	<path class="st172" d="M121,152.8c0.7,0.1,2.2,0.2,3,0.3c-1.2,1.4-3,2.2-4.9,1.8C119.7,154.2,120.3,153.5,121,152.8z"/>
</g>
<g id="_x23_e1bd42ff">
	<path class="st173" d="M162,153.8c1.4-0.1,2.8-0.2,4.2-0.2c-7.3,7.6-15.7,14-24.4,20c-3.4,2-6.8,3.9-10,6.1l-0.7,0.4
		c-2.5,0-4.8,1-6.3,3c-6.6,2.4-12.8,6.2-19.8,7.2c5.2-2.1,8.3-7,9.9-12.1c-1.4-0.1-2.8-0.2-4.1-0.3c5.8-2.2,11.7-3.9,17.2-6.8
		c1.9,0.5,3.8-0.3,5-1.8c0.5-0.3,1.4-1,1.9-1.3c1.9,0.7,3.8-0.1,5.1-1.7c4.7-2.8,9.5-5.4,14.4-7.9C157,156.9,159.6,155.4,162,153.8z
		"/>
</g>
<g id="_x23_8b843eff">
	<path class="st174" d="M232.3,153.1l0.6,0c0.4,1.9-0.6,3.6-1.6,5c-0.3-1.4-0.4-2.7-0.4-4.1C231.3,153.7,232,153.3,232.3,153.1z"/>
</g>
<g id="_x23_7e6f33ff">
	<path class="st175" d="M42,173.8c0.1-6.4,0.1-13.1,2.9-18.9c-1.3,9.1-1.7,18.5,0.8,27.4C43.7,179.9,42.7,176.9,42,173.8z"/>
</g>
<g id="_x23_8d8f5dff">
	<path class="st176" d="M80,159.3c1.3-1.5,2.6-3,3.9-4.5c-0.6,2.5-1.8,4.7-3.8,6.4C80.2,160.7,80.1,159.8,80,159.3z"/>
</g>
<g id="_x23_8d7c34ff">
	<path class="st177" d="M54.7,167.7c0.4-3.9,0.8-7.9,1.2-11.9c-0.2,6.3,0.3,12.6,2.9,18.4C57.1,172.2,55.9,169.9,54.7,167.7z"/>
</g>
<g id="_x23_807837ff">
	<path class="st178" d="M18.9,158.1c1.6,0.6,1.6,2.6,1,4l-0.6-0.4C18.8,160.6,18.7,159.4,18.9,158.1z"/>
</g>
<g id="_x23_f1cf53ff">
	<path class="st179" d="M5.1,158.8c2,3.5,3.9,7,6.1,10.4c3.2-2.1,3.4-12.1,8.2-7.6l0.6,0.4c-0.4,1.9,0.5,3.7,2,4.9
		c1.8,3.2,3,6.8,4.8,10c0.8,1.4,1.6,2.7,2.4,4c0.2,1.3,0.4,2.7,0.8,3.9c-5.5-2-4.2,6.7-8.6,5.9c-2.2-2.2-4.1-4.7-6.5-6.8
		c-4.6-7.1-6.8-15.2-9.9-23C5,160.5,5.1,159.4,5.1,158.8z"/>
</g>
<g id="_x23_0d2931ff">
	<path class="st180" d="M156.1,175.7c8.8-1.8,6.5-15.1,15.8-16.8c4.8,4.5,7,11.1,11.2,16.1c-6-1.4-12.2,0-17.9,1.1
		c-4,2.6,3.7,6.8-1,8.9c-8.6,5.2-4,15.1-0.4,22c-0.5,0-1.5,0.1-2.1,0.1c-2.4-4.6-4.2-9.5-6.6-14.1c3.1-1.8,7.5-9.7,1.9-10.1
		c-3.7,0.5-4.7,3.8-4.2,7c-4-8.3-13.7-7.3-21-10.4c3.2-2.3,6.6-4.1,10-6.1C146.5,178,151.4,172.7,156.1,175.7 M150.2,179.1
		c-3,1.8,0.2,4.9,2.8,3.9C153.3,180.6,153.4,177.8,150.2,179.1z"/>
</g>
<g id="_x23_f9e39aff">
	<path class="st181" d="M241.9,170c0.3-3.2,0.9-6.6,3.2-9C244.6,164.2,243.7,167.3,241.9,170z"/>
</g>
<g id="_x23_807a3bff">
	<path class="st182" d="M19.9,162.1c1.8,1,2.5,3,2,4.9C20.4,165.8,19.5,164,19.9,162.1z"/>
</g>
<g id="_x23_40798aff">
	<path class="st183" d="M205,170.2c-0.4-4.5,5.4-9.2,9.4-6.9C211.3,165.6,208.1,167.9,205,170.2z"/>
</g>
<g id="_x23_85823eff">
	<path class="st184" d="M228.1,167c-0.6-1.9,0.2-3.9,1.9-5C230.5,164,229.6,165.8,228.1,167z"/>
</g>
<g id="_x23_737149ff">
	<path class="st185" d="M74.8,169c0.5-2,1.6-3.7,3-5.2c-2.7,5.6,2.7,3.7,6.3,3.2C81.5,169.2,78.2,169.9,74.8,169z"/>
</g>
<g id="_x23_7f773aff">
	<path class="st186" d="M134.9,167.8c1.2-1.5,3.1-2.3,5.1-1.7C138.8,167.7,136.9,168.5,134.9,167.8z"/>
</g>
<g id="_x23_eccb57ff">
	<path class="st187" d="M51.6,188.4c-0.8-7-1.5-14.8,3.1-20.7c1.2,2.3,2.4,4.6,4.1,6.5c2.5,3.4,6.3,5.6,10.2,6.9l-0.4,0.9
		c-7.4,0.3-1.8,8.5,1.7,10.9c-2.1,0.1-4.3,0.2-6.4,0.3c-3.3-1.1-6.7-2.3-10.2-3C53,189.6,52.3,189,51.6,188.4z"/>
</g>
<g id="_x23_737544ff">
	<path class="st188" d="M128,170.9c1.1-1.7,3.1-2.4,5-1.8C131.8,170.6,129.9,171.5,128,170.9z"/>
</g>
<g id="_x23_091b20ff">
	<path class="st189" d="M204,172c2.1,3,5.9,2.4,8.7,4.2c2.8,1.3,9-3.8,9.4,0.7c-0.5,1.3-0.8,2.7-1,4.1c-0.3,0.5-0.8,1.4-1.1,1.9
		c-1.4,0.3-2.4,1.6-2,3.1c-1.5,0.2-2.4,1.7-1.9,3.1c-1.1,1.3-2.1,2.6-3.2,3.8c-1.7,0.7-2.9,2-3.1,3.8c-1.2,1.4-2.3,2.9-3.5,4.4
		c-2.3,1.7-4.5,3.6-6.2,5.9c-1.1,0.9-2.2,1.8-3.2,2.7c-1.8,0.2-3.2,1.5-3.8,3.1c-0.9,0.7-1.9,1.5-2.8,2.2c-3,1.4-5.9,2-8.4-0.6
		c-6.8,2.4-16.7,1.2-18-7.3c-3.7-6.9-8.3-16.8,0.4-22c4.7-2.2-3-6.3,1-8.9c5.7-1.1,11.9-2.5,17.9-1.1c4.4,0.1,8.1-3.5,12.8-2.1
		c-0.6,6-1.4,12-2.2,18c-0.1,1.8-2.3,6.2,1.1,5c1.1-1.9,1.7-4,2.6-6C202.4,184.9,198.1,177.3,204,172z"/>
</g>
<g id="_x23_071317ff">
	<path class="st190" d="M26.7,177c0.5-8.2,10.8,1.7,15.3-3.2c0.6,3.1,1.6,6.1,3.7,8.5c1.5,2.4,3.4,4.6,5.8,6.2
		c0.7,0.6,1.5,1.2,2.2,1.7c2.7,2.6,6.6,3.1,10.1,3.9l0.9,0.1c8.4,1.2,17,1.3,25.4-0.1c2.7-0.6,5.3-1.4,8-2.1c1.8,0.3,3.8,0.3,5.3-1
		c0.4-0.2,1.2-0.7,1.6-0.9c7-1,13.2-4.8,19.8-7.2c2.2-0.6,4.4-1.6,6.3-3l0.7-0.4c7.3,3.1,17,2.1,21,10.4c0.8,1,1.6,2.1,2.3,3.1
		c2.4,4.6,4.2,9.5,6.6,14.1c3.8,3.6,0.5,13.5,8.3,10.7c2.1,1.1,11.3-1.9,10.4,3c-1.8,0.3-3.6,1.2-4.4,3c-1.4,0.7-2.8,1.3-4.2,2
		c-1.9-0.3-3.7,0.5-4.8,2.1c-2-0.5-3.9,0.3-5,2c-1.4-0.5-3.3-0.6-3.9,1.1c-4-0.4-7.8,1-11.2,2.8c-2.8-1.1-5.1-0.8-7,0.9
		c-0.6,0.1-1.9,0.3-2.5,0.4c-8.1-0.3-16.2-0.3-24.3-0.2c-0.7,0-2.2-0.1-2.9-0.1c-1.5-0.2-4.6-0.5-6.2-0.7l-0.8-0.3
		c-3.5-1.8-7.3-3.2-11.3-2.8c-0.5-1.7-2.4-1.6-3.8-1.1c-2.1-1.7-4.5-2.9-7.2-3.1c-1.6-0.7-3.2-1.4-4.9-2c-0.3-0.2-0.8-0.6-1.1-0.8
		c-1.7-1.7-3.9-2.6-6.1-3.1c-1-0.6-2.1-1.2-3.1-1.8c-3.2-3.1,2-4,1.3-7.3c-3.9-1.1-3.2,5.4-7.2,3.4l-0.7-0.5
		c-1.4-1.2-2.9-2.4-4.3-3.6c-0.2-2-1.8-3.5-3.8-3.1c-0.3-0.2-0.8-0.7-1-0.9c-2.1-2.6-4.3-5.1-6.9-7.2c-0.6-0.6-1.3-1.3-1.9-1.9
		c-0.8-2.1-2.4-3.8-4.2-5c0.5-1.5-0.6-2.9-2.1-2.9c-0.2-0.2-0.7-0.7-0.9-0.9c0.4-1.5-0.5-2.9-1.9-3.3c-0.1-2-1-4-2.9-4.8
		C28.3,179.7,27.5,178.4,26.7,177 M98,221c-0.3,2-0.2,5.7,2.8,4.9C103.7,224,101.2,219.8,98,221z"/>
</g>
<g id="_x23_8a7930ff">
	<path class="st191" d="M222.1,176.9c0.5-0.2,1.4-0.6,1.9-0.8c-0.1,2-0.9,4-2.9,4.9C221.3,179.6,221.6,178.2,222.1,176.9z"/>
</g>
<g id="_x23_eeda83ff">
	<path class="st192" d="M107.1,179.2c1.2-0.5,2.5-1,3.7-1.5c1.4,0.1,2.8,0.2,4.1,0.3c-1.6,5.2-4.7,10.1-9.9,12.1
		c-0.4,0.2-1.2,0.7-1.6,0.9c-1.7-1.3-4-0.5-5.3,1c-9.3,0.5-18.5,1.3-27.8,0.8c-3.6-2.3-9.1-10.6-1.7-10.9
		c11.4,1.5,23.6,2.3,34.5-1.8C104.5,180.4,106.1,180.3,107.1,179.2z"/>
</g>
<g id="_x23_707857ff">
	<path class="st193" d="M103.1,180.2c0.5-1.8,2.6-1.6,4-0.9C106.1,180.3,104.5,180.4,103.1,180.2z"/>
</g>
<g id="_x23_265e72ff">
	<path class="st194" d="M150.2,179.1c3.2-1.3,3.1,1.5,2.8,3.9C150.4,184,147.3,180.9,150.2,179.1z"/>
</g>
<g id="_x23_6a7357ff">
	<path class="st195" d="M69,181.1c11.4,1.8,22.8-0.2,34.1-1c-11,4.1-23.1,3.4-34.5,1.8L69,181.1z"/>
</g>
<g id="_x23_766b30ff">
	<path class="st196" d="M124.8,183c1.5-2,3.8-3,6.3-3C129.2,181.4,127.1,182.4,124.8,183z"/>
</g>
<g id="_x23_7a7442ff">
	<path class="st197" d="M29.1,181c1.9,0.9,2.8,2.8,2.9,4.8c-0.5-0.2-1.6-0.7-2.1-0.9C29.5,183.7,29.3,182.3,29.1,181z"/>
</g>
<g id="_x23_184a5bff">
	<path class="st198" d="M152.8,190.1c-0.5-3.3,0.6-6.6,4.2-7c5.6,0.4,1.2,8.4-1.9,10.1C154.4,192.1,153.6,191.1,152.8,190.1z"/>
</g>
<g id="_x23_837129ff">
	<path class="st199" d="M218,186c-0.4-1.5,0.6-2.8,2-3.1C220.3,184.4,219.5,185.8,218,186z"/>
</g>
<g id="_x23_f5d96eff">
	<path class="st200" d="M14.8,184.1c2.4,2,4.3,4.5,6.5,6.8c4.4,0.8,3.1-7.9,8.6-5.9c0.5,0.2,1.6,0.7,2.1,0.9
		c-0.4,1.5,0.5,2.8,1.9,3.3c0.2,0.2,0.7,0.7,0.9,0.9c-0.2,1.4,0.7,2.7,2.1,2.9c0.6,2.3,2.3,3.8,4.2,5c0.6,0.7,1.2,1.3,1.9,1.9
		l-0.6,0.7c-3.3,1.8-3.6,6.1-6.6,8.1c-2.1-0.8-4-1.9-6.1-2.7C23.5,199.8,18.8,191.9,14.8,184.1z"/>
</g>
<g id="_x23_807640ff">
	<path class="st201" d="M32,185.8c1.4,0.4,2.3,1.8,1.9,3.3C32.5,188.7,31.6,187.3,32,185.8z"/>
</g>
<g id="_x23_7f6c26ff">
	<path class="st202" d="M216.1,189.1c-0.4-1.4,0.4-2.9,1.9-3.1C218.4,187.4,217.4,188.7,216.1,189.1z"/>
</g>
<g id="_x23_556b74ff">
	<path class="st203" d="M193.7,190.9c1.1-0.8,2.3-2.4,3.7-1c-1,2-1.6,4.1-2.6,6C191.4,197.1,193.7,192.6,193.7,190.9z"/>
</g>
<g id="_x23_6e683eff">
	<path class="st204" d="M34.8,190.1c1.5,0.1,2.6,1.4,2.1,2.9C35.5,192.7,34.7,191.5,34.8,190.1z"/>
</g>
<g id="_x23_62633fff">
	<path class="st205" d="M53.8,190.1c3.5,0.7,6.8,1.8,10.2,3l0,0.9C60.4,193.3,56.4,192.8,53.8,190.1z"/>
</g>
<g id="_x23_898550ff">
	<path class="st206" d="M98.2,192.1c1.2-1.5,3.6-2.3,5.3-1C102,192.4,100,192.3,98.2,192.1z"/>
</g>
<g id="_x23_ada165ff">
	<path class="st207" d="M70.3,192.9c9.3,0.5,18.5-0.3,27.8-0.8c-2.6,0.7-5.3,1.5-8,2.1c-8.5-0.1-16.9-0.3-25.4,0.1l-0.9-0.1l0-0.9
		C66.1,193,68.2,192.9,70.3,192.9z"/>
</g>
<g id="_x23_837a47ff">
	<path class="st208" d="M37,193c1.9,1.2,3.4,2.9,4.2,5C39.2,196.8,37.5,195.3,37,193z"/>
</g>
<g id="_x23_887424ff">
	<path class="st209" d="M209.8,196.8c0.2-1.8,1.5-3.2,3.1-3.8C213.3,195,211.8,196.6,209.8,196.8z"/>
</g>
<g id="_x23_5b5a3fff">
	<path class="st210" d="M64.8,194.2c8.5-0.4,17-0.2,25.4-0.1C81.8,195.5,73.2,195.4,64.8,194.2z"/>
</g>
<g id="_x23_928a56ff">
	<path class="st211" d="M43.1,199.9c2.6,2.1,4.8,4.7,6.9,7.2c-2.9-1.7-5.3-4-7.4-6.5L43.1,199.9z"/>
</g>
<g id="_x23_f5e189ff">
	<path class="st212" d="M35.9,208.8c3-2,3.3-6.3,6.6-8.1c2.1,2.6,4.6,4.8,7.4,6.5c0.3,0.2,0.8,0.7,1,0.9c0.6,1.7,2,2.9,3.8,3.1
		c1.4,1.2,2.9,2.4,4.3,3.6c-6.2-3.2-3.3,5.8-7.3,7.8c-1.7,0-3.4-0.2-5.1-0.3c-6.5-4.4-12-10.1-16.9-16.3
		C31.9,206.9,33.8,208,35.9,208.8z"/>
</g>
<g id="_x23_937e28ff">
	<path class="st213" d="M200,207.1c1.7-2.3,3.9-4.2,6.2-5.9C204.6,203.6,202.8,205.9,200,207.1z"/>
</g>
<g id="_x23_fae296ff">
	<path class="st214" d="M216.7,209.9c0.9-2.1,2.5-3.7,4.5-4.9C220.4,207.2,218.8,208.8,216.7,209.9z"/>
</g>
<g id="_x23_243f41ff">
	<path class="st215" d="M161.8,207.2c0.5,0,1.5-0.1,2.1-0.1c1.3,8.6,11.2,9.7,18,7.3c2.4,2.7,5.4,2,8.4,0.6
		c-2.7,2.5-5.9,4.3-9.1,6.1l-0.6-0.3c0.9-4.9-8.4-1.9-10.4-3C162.2,220.7,165.5,210.8,161.8,207.2 M166.2,215.2
		C165.2,219.8,170.8,214.2,166.2,215.2z"/>
</g>
<g id="_x23_727250ff">
	<path class="st216" d="M51,208.1c2-0.4,3.6,1.1,3.8,3.1C53,211,51.6,209.7,51,208.1z"/>
</g>
<g id="_x23_8f7f32ff">
	<path class="st217" d="M193,212.9c0.6-1.6,2-2.9,3.8-3.1C196.6,211.8,195,213.3,193,212.9z"/>
</g>
<g id="_x23_35565aff">
	<path class="st218" d="M59.8,215.3c4,2,3.3-4.4,7.2-3.4c0.7,3.3-4.5,4.2-1.3,7.3C63.7,218.1,61.7,216.8,59.8,215.3z"/>
</g>
<g id="_x23_f5e9a3ff">
	<path class="st219" d="M51.8,222.7c4.1-2.1,1.2-11,7.3-7.8l0.7,0.5c1.9,1.4,3.8,2.8,5.9,4c1,0.6,2,1.2,3.1,1.8
		c1.6,1.8,3.8,2.8,6.1,3.1c0.3,0.2,0.8,0.6,1.1,0.8c7.4,4.2-2.5,9.8-0.4,15.2c-10.1-5.1-20.5-10.2-29-17.9
		C48.4,222.4,50.1,222.7,51.8,222.7z"/>
</g>
<g id="_x23_809598ff">
	<path class="st220" d="M166.2,215.2C170.8,214.2,165.2,219.8,166.2,215.2z"/>
</g>
<g id="_x23_fae197ff">
	<path class="st221" d="M205.1,221.3c1.1-2,2.7-3.6,4.8-4.5C208.8,218.8,207.2,220.4,205.1,221.3z"/>
</g>
<g id="_x23_747458ff">
	<path class="st222" d="M68.8,221.1c2.3,0.5,4.5,1.4,6.1,3.1C72.6,223.8,70.4,222.9,68.8,221.1z"/>
</g>
<g id="_x23_1e5163ff">
	<path class="st223" d="M98,221c3.2-1.2,5.7,3,2.8,4.9C97.8,226.7,97.7,222.9,98,221z"/>
</g>
<g id="_x23_867428ff">
	<path class="st224" d="M176,223.9c0.8-1.8,2.6-2.7,4.4-3l0.6,0.3C180.1,223.1,178.1,223.9,176,223.9z"/>
</g>
<g id="_x23_f0d87aff">
	<path class="st225" d="M76,224.9c1.6,0.6,3.3,1.3,4.9,2c2.1,1.7,4.5,2.9,7.2,3.1c0.2,0.3,0.7,0.8,1,1.1c7.1,5.2-11.2,8.6-2.1,13.1
		c-3.9-1-7.6-2.6-11.3-4C73.5,234.8,83.4,229.1,76,224.9z"/>
</g>
<g id="_x23_887428ff">
	<path class="st226" d="M167,228c1.1-1.6,2.9-2.4,4.8-2.1C170.9,227.7,168.9,228.5,167,228z"/>
</g>
<g id="_x23_766f46ff">
	<path class="st227" d="M80.9,227c2.7,0.2,5.2,1.4,7.2,3.1C85.4,229.8,83,228.6,80.9,227z"/>
</g>
<g id="_x23_7f6e27ff">
	<path class="st228" d="M162,230c1.1-1.7,3-2.5,5-2C165.9,229.6,164,230.4,162,230z"/>
</g>
<g id="_x23_7f7441ff">
	<path class="st229" d="M88.1,230c1.3-0.5,3.3-0.6,3.8,1.1c-0.7,0-2.1,0-2.8,0C88.8,230.8,88.3,230.3,88.1,230z"/>
</g>
<g id="_x23_7c6b25ff">
	<path class="st230" d="M158.1,231.1c0.6-1.7,2.5-1.6,3.9-1.1C161.1,231.3,159.5,231.4,158.1,231.1z"/>
</g>
<g id="_x23_ebc955ff">
	<path class="st231" d="M89.1,231.1c0.7,0,2.1,0,2.8,0c3.6,1.5,7.4,2.3,11.3,2.8l0.8,0.3c1.5,0.2,4.6,0.5,6.2,0.7
		c0.7,0,2.2,0.1,2.9,0.1l-0.3,1c-4.4,0.7-7.9,4.1-11.9,6c-1.5,1.1-2.8,2.6-4.1,4c-2.6-0.4-5.3-0.7-7.9-0.8c-0.5-0.2-1.4-0.7-1.9-0.9
		C77.9,239.8,96.2,236.3,89.1,231.1z"/>
</g>
<g id="_x23_6b6435ff">
	<path class="st232" d="M91.8,231.1c4-0.4,7.8,1.1,11.3,2.8C99.3,233.4,95.5,232.6,91.8,231.1z"/>
</g>
<g id="_x23_6e6127ff">
	<path class="st233" d="M146.9,234c3.4-1.9,7.2-3.3,11.2-2.8C154.5,232.6,150.8,233.4,146.9,234z"/>
</g>
<g id="_x23_726733ff">
	<path class="st234" d="M103.9,234.2c1.5,0.2,4.6,0.5,6.2,0.7C108.6,234.7,105.5,234.4,103.9,234.2z"/>
</g>
<g id="_x23_7d6b27ff">
	<path class="st235" d="M139.9,234.8c1.9-1.6,4.2-1.9,7-0.9C145.3,236,143,236.3,139.9,234.8z"/>
</g>
<g id="_x23_4f4a25ff">
	<path class="st236" d="M113,235c8.1,0,16.2,0,24.3,0.2c-0.3,0.2-1,0.6-1.3,0.8c-7.5,0-14.9,0-22.3,0l-1-0.1L113,235z"/>
</g>
<g id="_x23_bfa035ff">
	<path class="st237" d="M113.7,236.1c7.4,0,14.9-0.1,22.3,0C129.2,238.7,120.9,236.6,113.7,236.1z"/>
</g>
<g id="_x23_e7bc39ff">
	<path class="st238" d="M100.8,241.9c19-1.3,38.1-1.1,57.2-0.8c1.7,1.3,5.8-1.1,7.2,1.4c-1.4,0.8-2.8,1.7-4.1,2.6
		c-4.6,0.2-9,1.2-13.3,2.7c-3,0.8-6.1,1.5-9.1,2.2h-27.1c-1.1-0.4-2.2-0.8-3.3-1.2c-3.7-1.3-7.6-2.1-11.5-2.9
		C98.1,244.5,99.3,243,100.8,241.9z"/>
</g>
<g id="_x23_f5dd9dff">
	<path class="st239" d="M165.2,242.5c1.6-0.2,3.2-0.4,4.8-0.6c-2.7,1.7-5.8,2.6-8.9,3.2C162.4,244.1,163.8,243.3,165.2,242.5z"/>
</g>
<g id="_x23_eed89bff">
	<path class="st240" d="M88.9,245.1c2.7,0.1,5.3,0.4,7.9,0.8c3.8,0.9,7.7,1.6,11.5,2.9C101.7,248.7,95,247.4,88.9,245.1z"/>
</g>
<g id="_x23_f2dd9eff">
	<path class="st241" d="M147.7,247.8c4.3-1.4,8.8-2.5,13.3-2.7C156.9,246.9,152.3,247.8,147.7,247.8z"/>
</g>
</svg>
