<?xml version="1.0" encoding="utf-8"?>
<!-- Generator: Adobe Illustrator 26.0.3, SVG Export Plug-In . SVG Version: 6.00 Build 0)  -->
<svg version="1.1" id="Layer_1" xmlns="http://www.w3.org/2000/svg" xmlns:xlink="http://www.w3.org/1999/xlink" x="0px" y="0px"
	 viewBox="0 0 250 214" style="enable-background:new 0 0 250 214;" xml:space="preserve">
<style type="text/css">
	.st0{fill:#ABEBF4;}
	.st1{fill:#02A5C2;}
	.st2{fill:#5FCADE;}
</style>
<g id="_x23_abebf4ff">
	<path class="st0" d="M75.5,11.7c4.5-0.7,9-0.1,13.5-0.2c46.4,0,92.7,0.1,139,0c1.3,0.1,2.6,0.2,3.7,0.8c0.9,1.8,0.9,3.8,0.9,5.7
		c-0.1,13.4-0.1,26.7,0,40.1c-0.1,1.9,0,4-0.9,5.7c-1.1,0.6-2.5,0.8-3.7,0.9c-50.4,0-100.7-0.1-151.1,0c-1.3-0.1-2.7-0.1-3.6-1.2
		c-0.8-2.8-0.7-5.6-0.7-8.5c0.2-12.7,0-25.4,0.1-38.1C72.9,15,72.8,11.8,75.5,11.7 M74.5,13.6c-0.4,9.1-0.1,18.2-0.2,27.4
		c0.2,7.4-0.4,14.8,0.3,22.1c6.8,0.4,13.6,0.1,20.3,0.2c43.4,0,86.7,0,130,0c1.9-0.1,3.7-0.2,5.5-0.4c0.1-16.3,0-32.7,0.1-49
		c-2.9-0.4-5.8-0.6-8.6-0.5C172.8,13.7,123.7,13.2,74.5,13.6z"/>
	<path class="st0" d="M74.2,152.4c14.6-0.2,29.2,0.2,43.9-0.1c2.1,0,4.2,0.2,6.3,0.4c0.9,8.4,0.1,16.9,0.3,25.4
		c-0.3,8.4,0.6,16.9-0.4,25.3c-13.1,0.8-26.2,0-39.3,0.4c-3.6-0.1-7.4,0.6-10.8-0.9c-0.9-1.8-0.8-3.8-0.9-5.7
		c0.2-12.7,0.1-25.4,0-38.1C73.3,156.7,73.7,154.6,74.2,152.4z"/>
</g>
<g id="_x23_02a5c2ff">
	<path class="st1" d="M74.5,13.6c49.2-0.4,98.3,0,147.5-0.2c2.9-0.1,5.8,0.1,8.6,0.5c-0.1,16.3,0,32.7-0.1,49
		c-1.8,0.2-3.7,0.3-5.5,0.4c-43.3-0.1-86.7,0-130,0c-6.8-0.1-13.6,0.2-20.3-0.2C74,55.8,74.5,48.4,74.3,41
		C74.4,31.9,74.1,22.8,74.5,13.6z"/>
</g>
<g id="_x23_5fcadeff">
	<path class="st2" d="M11.5,83c2.2-0.2,4.3-0.5,6.5-0.5c12.7,0.1,25.4,0.1,38,0c2.2,0,4.4,0.3,6.5,0.5c0,16.6,0,33.3,0,49.9
		c-8.5,1.2-17,0.2-25.5,0.5c-8.5-0.3-17,0.7-25.5-0.6C11.5,116.3,11.5,99.7,11.5,83z"/>
	<path class="st2" d="M74.1,83c5.3-0.8,10.6-0.4,15.9-0.4c27,0,54,0,81,0c5.2,0,10.4-0.3,15.6,0.4c0.1,16.7,0,33.4,0,50.1
		c-5.5,0.8-11.1,0.3-16.6,0.4c-30,0.1-60-0.1-90,0.1c-2,0-4-0.3-6-0.5c-1-11.3-0.1-22.7-0.4-34.1C73.7,93.7,73.2,88.3,74.1,83z"/>
</g>
</svg>
