<?xml version="1.0" encoding="UTF-8" ?>
<!DOCTYPE svg PUBLIC "-//W3C//DTD SVG 1.1//EN" "http://www.w3.org/Graphics/SVG/1.1/DTD/svg11.dtd">
<svg width="250pt" height="250pt" viewBox="0 0 250 250" version="1.1" xmlns="http://www.w3.org/2000/svg">
<g id="#ffffffff">
<path fill="#ffffff" opacity="1.00" d=" M 0.00 0.00 L 250.00 0.00 L 250.00 117.58 C 248.77 106.70 247.12 95.80 243.53 85.42 C 233.77 56.23 212.75 31.04 185.82 16.14 C 167.63 5.95 146.85 0.51 126.00 0.47 C 97.94 -0.16 69.87 9.51 47.86 26.85 C 23.08 46.15 6.04 75.14 1.45 106.23 C 0.91 110.01 0.46 113.79 0.00 117.58 L 0.00 0.00 Z" />
<path fill="#ffffff" opacity="1.00" d=" M 110.31 34.14 C 118.15 33.00 126.14 33.51 134.03 33.63 C 146.53 35.14 159.09 38.41 169.92 45.02 C 189.03 55.52 204.19 73.04 211.67 93.54 C 214.83 100.99 216.03 109.04 217.31 116.97 C 217.45 125.20 218.07 133.58 215.98 141.64 C 212.94 160.84 202.99 178.61 188.96 191.96 C 186.03 194.69 183.64 198.11 180.02 200.01 C 173.54 203.46 167.73 208.16 160.79 210.74 C 152.80 213.75 144.50 216.13 136.04 217.35 C 130.85 217.11 125.69 218.55 120.53 217.75 C 94.31 217.02 68.73 204.04 52.31 183.61 C 49.91 180.71 46.87 178.25 45.35 174.72 C 43.26 169.89 40.32 165.49 38.31 160.63 C 35.02 151.73 32.69 142.45 31.60 133.02 C 31.71 125.92 30.91 118.69 32.53 111.71 C 34.72 99.66 38.25 87.51 45.25 77.31 C 46.60 75.26 47.81 73.13 48.98 70.98 C 50.98 67.14 54.68 64.67 57.53 61.53 C 71.49 46.90 90.36 37.26 110.31 34.14 M 114.44 40.71 C 98.29 43.04 82.26 48.98 69.91 59.88 C 52.53 73.58 41.84 94.61 38.72 116.31 C 38.32 120.53 38.54 124.78 38.47 129.01 C 38.16 135.92 40.63 142.50 42.06 149.16 C 45.91 162.00 52.40 174.48 62.51 183.49 C 66.48 187.17 69.72 191.66 74.29 194.65 C 91.58 206.46 113.07 212.39 133.95 210.01 C 149.78 207.81 165.54 202.21 177.86 191.81 C 182.08 187.02 188.03 184.01 191.51 178.55 C 201.05 166.29 207.90 151.59 209.30 135.99 C 209.61 131.65 210.77 127.33 210.19 122.96 C 209.30 116.78 209.16 110.48 207.53 104.42 C 200.39 75.94 177.26 52.32 149.21 43.96 C 138.00 40.36 126.10 39.83 114.44 40.71 Z" />
<path fill="#ffffff" opacity="1.00" d=" M 123.49 44.48 C 125.98 42.94 130.99 42.76 131.87 46.22 C 133.66 50.25 128.17 55.18 124.44 52.56 C 121.70 51.18 121.47 46.39 123.49 44.48 Z" />
<path fill="#ffffff" opacity="1.00" d=" M 108.72 48.09 C 109.97 43.80 115.84 43.24 118.53 46.45 C 118.55 48.63 119.53 52.07 116.83 53.00 C 113.35 55.06 108.00 52.34 108.72 48.09 Z" />
<path fill="#ffffff" opacity="1.00" d=" M 138.14 45.90 C 140.11 45.20 142.77 45.01 144.38 46.62 C 146.97 49.27 145.21 55.20 141.00 54.57 C 136.20 55.36 134.51 48.33 138.14 45.90 Z" />
<path fill="#ffffff" opacity="1.00" d=" M 98.15 47.83 C 101.25 46.27 105.30 48.50 105.43 51.99 C 105.43 56.45 98.69 58.48 96.49 54.41 C 94.58 52.24 96.18 49.28 98.15 47.83 Z" />
<path fill="#ffffff" opacity="1.00" d=" M 149.54 56.38 C 146.83 53.26 150.68 49.13 153.98 48.77 C 155.73 49.13 157.31 50.14 158.48 51.48 C 158.62 53.32 159.10 55.49 158.12 57.15 C 155.70 59.15 151.31 59.33 149.54 56.38 Z" />
<path fill="#ffffff" opacity="1.00" d=" M 86.24 52.85 C 90.15 50.80 94.34 56.31 91.99 59.75 C 90.90 61.59 88.38 62.90 86.34 61.80 C 82.57 60.48 82.20 54.08 86.24 52.85 Z" />
<path fill="#ffffff" opacity="1.00" d=" M 164.34 55.34 C 167.28 54.61 171.09 56.56 170.53 60.01 C 171.27 64.62 164.43 66.61 162.05 62.97 C 159.41 60.73 161.22 55.95 164.34 55.34 Z" />
<path fill="#ffffff" opacity="1.00" d=" M 75.29 60.07 C 79.53 57.86 83.89 65.27 79.96 67.96 C 77.14 71.18 71.12 68.06 71.60 64.01 C 71.55 61.94 73.60 60.72 75.29 60.07 Z" />
<path fill="#ffffff" opacity="1.00" d=" M 174.24 64.03 C 176.81 62.65 181.13 63.68 181.44 67.04 C 182.51 70.88 177.93 74.76 174.41 72.65 C 170.82 71.29 170.83 65.64 174.24 64.03 Z" />
<path fill="#ffffff" opacity="1.00" d=" M 63.66 69.68 C 66.17 67.41 69.70 69.21 71.49 71.47 C 71.84 73.90 72.18 77.14 69.54 78.43 C 67.87 78.76 66.14 78.74 64.46 78.48 C 61.53 76.43 61.02 72.19 63.66 69.68 Z" />
<path fill="#ffffff" opacity="1.00" d=" M 184.35 73.34 C 188.73 71.97 192.33 77.02 189.91 80.76 C 187.40 84.49 180.92 82.40 180.74 78.01 C 181.12 76.05 182.10 73.64 184.35 73.34 Z" />
<path fill="#ffffff" opacity="1.00" d=" M 56.33 80.12 C 59.43 78.13 64.00 81.45 63.43 84.99 C 63.21 88.82 57.71 90.96 55.14 87.86 C 52.38 85.78 53.39 81.49 56.33 80.12 Z" />
<path fill="#ffffff" opacity="1.00" d=" M 193.18 84.40 C 196.55 84.29 199.75 88.50 197.69 91.60 C 196.35 94.78 191.46 95.27 189.50 92.42 C 187.00 89.47 189.04 84.13 193.18 84.40 Z" />
<path fill="#ffffff" opacity="1.00" d=" M 101.21 87.95 C 103.12 86.73 105.40 87.84 107.21 88.70 C 120.22 94.99 132.98 101.89 144.97 109.97 C 148.44 111.87 152.13 113.37 155.50 115.47 C 159.77 118.05 164.99 119.71 167.85 124.07 C 169.00 125.94 168.93 128.67 167.07 130.07 C 161.71 135.82 153.87 138.02 147.61 142.54 C 133.82 150.45 119.99 158.31 106.06 165.97 C 104.03 166.92 101.52 166.65 99.85 165.12 C 97.94 162.52 97.50 159.16 97.48 156.02 C 97.55 136.33 97.49 116.65 97.50 96.96 C 97.64 93.73 98.17 89.76 101.21 87.95 Z" />
<path fill="#ffffff" opacity="1.00" d=" M 50.26 92.03 C 52.92 90.41 56.39 92.31 56.95 95.28 C 58.93 99.50 51.95 103.43 49.08 99.92 C 46.35 97.81 47.36 93.46 50.26 92.03 Z" />
<path fill="#ffffff" opacity="1.00" d=" M 196.35 97.23 C 200.14 94.86 205.26 99.91 202.89 103.69 C 201.57 106.40 198.02 107.48 195.57 105.57 C 192.28 103.85 193.19 98.59 196.35 97.23 Z" />
<path fill="#ffffff" opacity="1.00" d=" M 46.24 104.99 C 48.95 103.39 52.29 105.36 53.34 108.06 C 53.69 110.03 52.55 111.88 51.32 113.31 C 49.00 114.27 45.43 114.31 44.13 111.70 C 42.64 109.40 43.88 106.18 46.24 104.99 Z" />
<path fill="#ffffff" opacity="1.00" d=" M 196.37 114.06 C 196.19 109.67 201.53 109.82 204.58 110.41 C 206.71 112.62 207.43 116.74 204.66 118.74 C 201.38 121.45 195.41 118.45 196.37 114.06 Z" />
<path fill="#ffffff" opacity="1.00" d=" M 45.28 118.01 C 48.98 116.29 53.24 121.35 51.01 124.78 C 49.44 128.17 43.39 128.53 42.24 124.67 C 40.82 122.01 42.49 118.80 45.28 118.01 Z" />
<path fill="#ffffff" opacity="1.00" d=" M 199.33 124.20 C 202.39 122.22 207.03 124.28 207.28 128.03 C 207.77 131.85 202.66 135.07 199.64 132.36 C 196.63 130.83 196.26 125.85 199.33 124.20 Z" />
<path fill="#ffffff" opacity="1.00" d=" M 0.00 131.42 C 0.80 139.69 1.73 147.98 3.93 156.02 C 11.67 186.89 31.83 214.41 58.92 231.12 C 76.18 242.15 96.29 248.09 116.59 250.00 L 0.00 250.00 L 0.00 131.42 Z" />
<path fill="#ffffff" opacity="1.00" d=" M 45.21 131.93 C 48.22 130.22 52.10 132.63 52.40 135.97 C 52.06 138.16 50.69 141.03 48.02 140.56 C 42.93 141.90 40.48 134.02 45.21 131.93 Z" />
<path fill="#ffffff" opacity="1.00" d=" M 235.17 184.09 C 243.83 168.21 248.48 150.39 250.00 132.42 L 250.00 250.00 L 132.41 250.00 C 140.90 249.05 149.44 248.09 157.66 245.68 C 190.51 236.96 219.23 214.09 235.17 184.09 Z" />
<path fill="#ffffff" opacity="1.00" d=" M 198.36 137.25 C 201.45 135.59 206.02 138.39 205.46 142.00 C 205.75 145.65 200.31 148.07 197.65 145.49 C 194.44 143.66 195.12 138.62 198.36 137.25 Z" />
<path fill="#ffffff" opacity="1.00" d=" M 48.26 145.01 C 51.76 142.84 56.80 147.00 55.20 150.89 C 54.08 154.68 47.83 155.28 46.31 151.51 C 44.46 149.24 46.06 146.29 48.26 145.01 Z" />
<path fill="#ffffff" opacity="1.00" d=" M 194.34 150.17 C 197.66 148.15 202.40 151.78 201.51 155.49 C 200.69 158.40 197.11 160.63 194.30 158.89 C 190.90 157.29 190.48 151.45 194.34 150.17 Z" />
<path fill="#ffffff" opacity="1.00" d=" M 53.36 157.32 C 56.47 155.41 61.14 158.31 60.48 161.99 C 60.38 165.94 54.61 168.23 52.10 164.90 C 49.51 162.89 50.92 158.71 53.36 157.32 Z" />
<path fill="#ffffff" opacity="1.00" d=" M 188.31 162.11 C 191.17 160.35 195.09 162.95 195.42 166.01 C 196.01 169.91 190.73 173.17 187.64 170.43 C 184.39 168.61 184.94 163.48 188.31 162.11 Z" />
<path fill="#ffffff" opacity="1.00" d=" M 61.24 168.90 C 64.67 166.91 69.63 170.97 67.75 174.62 C 66.56 178.20 61.08 178.62 58.93 175.81 C 57.84 173.30 58.16 169.73 61.24 168.90 Z" />
<path fill="#ffffff" opacity="1.00" d=" M 179.46 172.56 C 181.67 172.29 184.60 171.70 186.11 173.82 C 187.84 176.23 187.50 180.34 184.62 181.73 C 182.14 183.32 179.03 181.69 177.40 179.63 C 177.02 177.15 176.80 173.86 179.46 172.56 Z" />
<path fill="#ffffff" opacity="1.00" d=" M 67.16 184.90 C 64.85 181.27 69.56 177.85 72.95 177.85 C 76.93 178.91 78.81 184.56 75.20 187.15 C 72.48 188.23 68.37 188.16 67.16 184.90 Z" />
<path fill="#ffffff" opacity="1.00" d=" M 167.51 183.44 C 169.18 181.36 172.07 181.08 174.52 181.55 C 177.36 183.10 178.25 187.55 175.88 189.90 C 174.08 191.90 170.79 191.91 168.75 190.25 C 166.55 188.73 167.25 185.69 167.51 183.44 Z" />
<path fill="#ffffff" opacity="1.00" d=" M 81.22 186.85 C 83.47 185.79 86.56 186.54 87.46 189.05 C 87.83 191.22 87.67 193.67 85.88 195.20 C 84.04 195.63 81.98 195.84 80.19 195.08 C 77.55 193.02 77.64 187.88 81.22 186.85 Z" />
<path fill="#ffffff" opacity="1.00" d=" M 158.40 189.38 C 161.91 187.17 166.43 190.87 165.61 194.72 C 165.39 198.87 159.33 200.39 157.11 196.91 C 154.56 194.79 156.03 190.90 158.40 189.38 Z" />
<path fill="#ffffff" opacity="1.00" d=" M 92.44 192.51 C 94.12 192.20 95.86 192.20 97.55 192.48 C 99.18 194.00 100.98 196.39 99.82 198.69 C 98.62 202.71 92.36 203.44 90.48 199.59 C 90.18 197.13 89.72 193.79 92.44 192.51 Z" />
<path fill="#ffffff" opacity="1.00" d=" M 145.42 203.51 C 141.95 201.63 142.48 194.17 147.06 194.24 C 148.55 194.14 150.06 194.18 151.53 194.49 C 153.06 196.44 154.53 199.36 152.68 201.61 C 151.39 204.40 147.92 204.14 145.42 203.51 Z" />
<path fill="#ffffff" opacity="1.00" d=" M 106.39 196.36 C 110.35 194.94 114.82 199.66 112.42 203.39 C 111.62 206.37 107.94 206.08 105.62 205.37 C 102.08 203.52 102.75 197.67 106.39 196.36 Z" />
<path fill="#ffffff" opacity="1.00" d=" M 133.37 197.40 C 136.56 196.32 139.93 198.78 140.30 202.00 C 139.95 204.58 138.04 207.54 135.05 206.81 C 129.77 207.51 128.09 198.35 133.37 197.40 Z" />
<path fill="#ffffff" opacity="1.00" d=" M 119.38 198.29 C 121.90 196.70 124.76 198.62 126.47 200.51 C 126.76 202.92 127.15 206.14 124.51 207.41 C 122.32 207.61 119.19 208.47 117.87 206.09 C 115.89 203.69 116.38 199.59 119.38 198.29 Z" />
</g>
<g id="#3cb0e5ff">
<path fill="#3cb0e5" opacity="1.00" d=" M 47.86 26.85 C 69.87 9.51 97.94 -0.16 126.00 0.47 C 146.85 0.51 167.63 5.95 185.82 16.14 C 212.75 31.04 233.77 56.23 243.53 85.42 C 247.12 95.80 248.77 106.70 250.00 117.58 L 250.00 132.42 C 248.48 150.39 243.83 168.21 235.17 184.09 C 219.23 214.09 190.51 236.96 157.66 245.68 C 149.44 248.09 140.90 249.05 132.41 250.00 L 116.59 250.00 C 96.29 248.09 76.18 242.15 58.92 231.12 C 31.83 214.41 11.67 186.89 3.93 156.02 C 1.73 147.98 0.80 139.69 0.00 131.42 L 0.00 117.58 C 0.46 113.79 0.91 110.01 1.45 106.23 C 6.04 75.14 23.08 46.15 47.86 26.85 M 110.31 34.14 C 90.36 37.26 71.49 46.90 57.53 61.53 C 54.68 64.67 50.98 67.14 48.98 70.98 C 47.81 73.13 46.60 75.26 45.25 77.31 C 38.25 87.51 34.72 99.66 32.53 111.71 C 30.91 118.69 31.71 125.92 31.60 133.02 C 32.69 142.45 35.02 151.73 38.31 160.63 C 40.32 165.49 43.26 169.89 45.35 174.72 C 46.87 178.25 49.91 180.71 52.31 183.61 C 68.73 204.04 94.31 217.02 120.53 217.75 C 125.69 218.55 130.85 217.11 136.04 217.35 C 144.50 216.13 152.80 213.75 160.79 210.74 C 167.73 208.16 173.54 203.46 180.02 200.01 C 183.64 198.11 186.03 194.69 188.96 191.96 C 202.99 178.61 212.94 160.84 215.98 141.64 C 218.07 133.58 217.45 125.20 217.31 116.97 C 216.03 109.04 214.83 100.99 211.67 93.54 C 204.19 73.04 189.03 55.52 169.92 45.02 C 159.09 38.41 146.53 35.14 134.03 33.63 C 126.14 33.51 118.15 33.00 110.31 34.14 Z" />
<path fill="#3cb0e5" opacity="1.00" d=" M 114.44 40.71 C 126.10 39.83 138.00 40.36 149.21 43.96 C 177.26 52.32 200.39 75.94 207.53 104.42 C 209.16 110.48 209.30 116.78 210.19 122.96 C 210.77 127.33 209.61 131.65 209.30 135.99 C 207.90 151.59 201.05 166.29 191.51 178.55 C 188.03 184.01 182.08 187.02 177.86 191.81 C 165.54 202.21 149.78 207.81 133.95 210.01 C 113.07 212.39 91.58 206.46 74.29 194.65 C 69.72 191.66 66.48 187.17 62.51 183.49 C 52.40 174.48 45.91 162.00 42.06 149.16 C 40.63 142.50 38.16 135.92 38.47 129.01 C 38.54 124.78 38.32 120.53 38.72 116.31 C 41.84 94.61 52.53 73.58 69.91 59.88 C 82.26 48.98 98.29 43.04 114.44 40.71 M 123.49 44.48 C 121.47 46.39 121.70 51.18 124.44 52.56 C 128.17 55.18 133.66 50.25 131.87 46.22 C 130.99 42.76 125.98 42.94 123.49 44.48 M 108.72 48.09 C 108.00 52.34 113.35 55.06 116.83 53.00 C 119.53 52.07 118.55 48.63 118.53 46.45 C 115.84 43.24 109.97 43.80 108.72 48.09 M 138.14 45.90 C 134.51 48.33 136.20 55.36 141.00 54.57 C 145.21 55.20 146.97 49.27 144.38 46.62 C 142.77 45.01 140.11 45.20 138.14 45.90 M 98.15 47.83 C 96.18 49.28 94.58 52.24 96.49 54.41 C 98.69 58.48 105.43 56.45 105.43 51.99 C 105.30 48.50 101.25 46.27 98.15 47.83 M 149.54 56.38 C 151.31 59.33 155.70 59.15 158.12 57.15 C 159.10 55.49 158.62 53.32 158.48 51.48 C 157.31 50.14 155.73 49.13 153.98 48.77 C 150.68 49.13 146.83 53.26 149.54 56.38 M 86.24 52.85 C 82.20 54.08 82.57 60.48 86.34 61.80 C 88.38 62.90 90.90 61.59 91.99 59.75 C 94.34 56.31 90.15 50.80 86.24 52.85 M 164.34 55.34 C 161.22 55.95 159.41 60.73 162.05 62.97 C 164.43 66.61 171.27 64.62 170.53 60.01 C 171.09 56.56 167.28 54.61 164.34 55.34 M 75.29 60.07 C 73.60 60.72 71.55 61.94 71.60 64.01 C 71.12 68.06 77.14 71.18 79.96 67.96 C 83.89 65.27 79.53 57.86 75.29 60.07 M 174.24 64.03 C 170.83 65.64 170.82 71.29 174.41 72.65 C 177.93 74.76 182.51 70.88 181.44 67.04 C 181.13 63.68 176.81 62.65 174.24 64.03 M 63.66 69.68 C 61.02 72.19 61.53 76.43 64.46 78.48 C 66.14 78.74 67.87 78.76 69.54 78.43 C 72.18 77.14 71.84 73.90 71.49 71.47 C 69.70 69.21 66.17 67.41 63.66 69.68 M 184.35 73.34 C 182.10 73.64 181.12 76.05 180.74 78.01 C 180.92 82.40 187.40 84.49 189.91 80.76 C 192.33 77.02 188.73 71.97 184.35 73.34 M 56.33 80.12 C 53.39 81.49 52.38 85.78 55.14 87.86 C 57.71 90.96 63.21 88.82 63.43 84.99 C 64.00 81.45 59.43 78.13 56.33 80.12 M 193.18 84.40 C 189.04 84.13 187.00 89.47 189.50 92.42 C 191.46 95.27 196.35 94.78 197.69 91.60 C 199.75 88.50 196.55 84.29 193.18 84.40 M 101.21 87.95 C 98.17 89.76 97.64 93.73 97.50 96.96 C 97.49 116.65 97.55 136.33 97.48 156.02 C 97.50 159.16 97.94 162.52 99.85 165.12 C 101.52 166.65 104.03 166.92 106.06 165.97 C 119.99 158.31 133.82 150.45 147.61 142.54 C 153.87 138.02 161.71 135.82 167.07 130.07 C 168.93 128.67 169.00 125.94 167.85 124.07 C 164.99 119.71 159.77 118.05 155.50 115.47 C 152.13 113.37 148.44 111.87 144.97 109.97 C 132.98 101.89 120.22 94.99 107.21 88.70 C 105.40 87.84 103.12 86.73 101.21 87.95 M 50.26 92.03 C 47.36 93.46 46.35 97.81 49.08 99.92 C 51.95 103.43 58.93 99.50 56.95 95.28 C 56.39 92.31 52.92 90.41 50.26 92.03 M 196.35 97.23 C 193.19 98.59 192.28 103.85 195.57 105.57 C 198.02 107.48 201.57 106.40 202.89 103.69 C 205.26 99.91 200.14 94.86 196.35 97.23 M 46.24 104.99 C 43.88 106.18 42.64 109.40 44.13 111.70 C 45.43 114.31 49.00 114.27 51.32 113.31 C 52.55 111.88 53.69 110.03 53.34 108.06 C 52.29 105.36 48.95 103.39 46.24 104.99 M 196.37 114.06 C 195.41 118.45 201.38 121.45 204.66 118.74 C 207.43 116.74 206.71 112.62 204.58 110.41 C 201.53 109.82 196.19 109.67 196.37 114.06 M 45.28 118.01 C 42.49 118.80 40.82 122.01 42.24 124.67 C 43.39 128.53 49.44 128.17 51.01 124.78 C 53.24 121.35 48.98 116.29 45.28 118.01 M 199.33 124.20 C 196.26 125.85 196.63 130.83 199.64 132.36 C 202.66 135.07 207.77 131.85 207.28 128.03 C 207.03 124.28 202.39 122.22 199.33 124.20 M 45.21 131.93 C 40.48 134.02 42.93 141.90 48.02 140.56 C 50.69 141.03 52.06 138.16 52.40 135.97 C 52.10 132.63 48.22 130.22 45.21 131.93 M 198.36 137.25 C 195.12 138.62 194.44 143.66 197.65 145.49 C 200.31 148.07 205.75 145.65 205.46 142.00 C 206.02 138.39 201.45 135.59 198.36 137.25 M 48.26 145.01 C 46.06 146.29 44.46 149.24 46.31 151.51 C 47.83 155.28 54.08 154.68 55.20 150.89 C 56.80 147.00 51.76 142.84 48.26 145.01 M 194.34 150.17 C 190.48 151.45 190.90 157.29 194.30 158.89 C 197.11 160.63 200.69 158.40 201.51 155.49 C 202.40 151.78 197.66 148.15 194.34 150.17 M 53.36 157.32 C 50.92 158.71 49.51 162.89 52.10 164.90 C 54.61 168.23 60.38 165.94 60.48 161.99 C 61.14 158.31 56.47 155.41 53.36 157.32 M 188.31 162.11 C 184.94 163.48 184.39 168.61 187.64 170.43 C 190.73 173.17 196.01 169.91 195.42 166.01 C 195.09 162.95 191.17 160.35 188.31 162.11 M 61.24 168.90 C 58.16 169.73 57.84 173.30 58.93 175.81 C 61.08 178.62 66.56 178.20 67.75 174.62 C 69.63 170.97 64.67 166.91 61.24 168.90 M 179.46 172.56 C 176.80 173.86 177.02 177.15 177.40 179.63 C 179.03 181.69 182.14 183.32 184.62 181.73 C 187.50 180.34 187.84 176.23 186.11 173.82 C 184.60 171.70 181.67 172.29 179.46 172.56 M 67.16 184.90 C 68.37 188.16 72.48 188.23 75.20 187.15 C 78.81 184.56 76.93 178.91 72.95 177.85 C 69.56 177.85 64.85 181.27 67.16 184.90 M 167.51 183.44 C 167.25 185.69 166.55 188.73 168.75 190.25 C 170.79 191.91 174.08 191.90 175.88 189.90 C 178.25 187.55 177.36 183.10 174.52 181.55 C 172.07 181.08 169.18 181.36 167.51 183.44 M 81.22 186.85 C 77.64 187.88 77.55 193.02 80.19 195.08 C 81.98 195.84 84.04 195.63 85.88 195.20 C 87.67 193.67 87.83 191.22 87.46 189.05 C 86.56 186.54 83.47 185.79 81.22 186.85 M 158.40 189.38 C 156.03 190.90 154.56 194.79 157.11 196.91 C 159.33 200.39 165.39 198.87 165.61 194.72 C 166.43 190.87 161.91 187.17 158.40 189.38 M 92.44 192.51 C 89.72 193.79 90.18 197.13 90.48 199.59 C 92.36 203.44 98.62 202.71 99.82 198.69 C 100.98 196.39 99.18 194.00 97.55 192.48 C 95.86 192.20 94.12 192.20 92.44 192.51 M 145.42 203.51 C 147.92 204.14 151.39 204.40 152.68 201.61 C 154.53 199.36 153.06 196.44 151.53 194.49 C 150.06 194.18 148.55 194.14 147.06 194.24 C 142.48 194.17 141.95 201.63 145.42 203.51 M 106.39 196.36 C 102.75 197.67 102.08 203.52 105.62 205.37 C 107.94 206.08 111.62 206.37 112.42 203.39 C 114.82 199.66 110.35 194.94 106.39 196.36 M 133.37 197.40 C 128.09 198.35 129.77 207.51 135.05 206.81 C 138.04 207.54 139.95 204.58 140.30 202.00 C 139.93 198.78 136.56 196.32 133.37 197.40 M 119.38 198.29 C 116.38 199.59 115.89 203.69 117.87 206.09 C 119.19 208.47 122.32 207.61 124.51 207.41 C 127.15 206.14 126.76 202.92 126.47 200.51 C 124.76 198.62 121.90 196.70 119.38 198.29 Z" />
</g>
</svg>
