<?xml version="1.0" encoding="UTF-8" ?>
<!DOCTYPE svg PUBLIC "-//W3C//DTD SVG 1.1//EN" "http://www.w3.org/Graphics/SVG/1.1/DTD/svg11.dtd">
<svg width="250pt" height="250pt" viewBox="0 0 250 250" version="1.1" xmlns="http://www.w3.org/2000/svg">
<g id="#ffffffff">
<path fill="#ffffff" opacity="1.00" d=" M 0.00 0.00 L 118.57 0.00 C 93.00 1.66 67.86 10.79 47.73 26.73 C 19.29 48.79 1.70 83.67 0.00 119.54 L 0.00 0.00 Z" />
<path fill="#ffffff" opacity="1.00" d=" M 131.44 0.00 L 250.00 0.00 L 250.00 119.54 C 248.29 83.19 230.22 47.86 201.14 25.86 C 181.20 10.44 156.53 1.63 131.44 0.00 Z" />
<path fill="#ffffff" opacity="1.00" d=" M 100.22 33.25 C 107.36 33.15 114.52 33.16 121.66 33.28 C 122.60 35.86 123.56 38.43 124.53 41.01 C 125.86 38.49 126.89 35.83 127.97 33.20 C 135.21 33.25 142.46 33.10 149.71 33.28 C 161.11 63.19 173.05 92.89 184.49 122.78 C 193.10 145.35 202.08 167.78 210.68 190.35 C 203.41 190.47 196.15 190.46 188.89 190.39 C 187.72 189.55 187.48 188.04 186.92 186.81 C 171.23 143.65 154.82 100.76 139.33 57.53 C 139.10 57.52 138.65 57.51 138.42 57.50 C 137.34 61.07 134.72 64.66 135.40 68.47 C 150.85 109.20 167.05 149.66 182.65 190.33 C 175.12 190.49 167.59 190.48 160.07 190.34 C 148.78 159.55 137.52 128.76 126.09 98.03 C 125.68 96.93 125.08 95.92 124.44 94.94 C 112.60 126.74 101.15 158.68 89.18 190.43 C 81.76 190.37 74.34 190.53 66.92 190.34 C 67.68 187.78 68.62 185.28 69.62 182.80 C 83.27 147.70 97.12 112.68 110.58 77.52 C 111.85 74.03 113.53 70.68 114.43 67.08 C 113.49 63.58 112.04 60.24 110.82 56.84 C 109.97 58.34 109.25 59.92 108.68 61.54 C 93.08 104.59 76.92 147.43 61.11 190.41 C 53.67 190.41 46.23 190.50 38.80 190.35 C 58.07 140.28 77.54 90.28 97.07 40.31 C 98.14 37.99 98.55 35.24 100.22 33.25 Z" />
<path fill="#ffffff" opacity="1.00" d=" M 217.30 209.30 C 236.80 188.16 248.21 160.08 250.00 131.45 L 250.00 250.00 L 131.42 250.00 C 163.84 248.03 195.50 233.51 217.30 209.30 Z" />
<path fill="#ffffff" opacity="1.00" d=" M 0.00 133.34 C 0.94 139.90 1.61 146.52 3.18 152.98 C 8.88 177.77 22.26 200.78 41.22 217.78 C 62.31 237.00 90.16 248.21 118.56 250.00 L 0.00 250.00 L 0.00 133.34 Z" />
</g>
<g id="#000000ff">
<path fill="#000000" opacity="1.00" d=" M 118.57 0.00 L 131.44 0.00 C 156.53 1.63 181.20 10.44 201.14 25.86 C 230.22 47.86 248.29 83.19 250.00 119.54 L 250.00 131.45 C 248.21 160.08 236.80 188.16 217.30 209.30 C 195.50 233.51 163.84 248.03 131.42 250.00 L 118.56 250.00 C 90.16 248.21 62.31 237.00 41.22 217.78 C 22.26 200.78 8.88 177.77 3.18 152.98 C 1.61 146.52 0.94 139.90 0.00 133.34 L 0.00 119.54 C 1.70 83.67 19.29 48.79 47.73 26.73 C 67.86 10.79 93.00 1.66 118.57 0.00 M 100.22 33.25 C 98.55 35.24 98.14 37.99 97.07 40.31 C 77.54 90.28 58.07 140.28 38.80 190.35 C 46.23 190.50 53.67 190.41 61.11 190.41 C 76.92 147.43 93.08 104.59 108.68 61.54 C 109.25 59.92 109.97 58.34 110.82 56.84 C 112.04 60.24 113.49 63.58 114.43 67.08 C 113.53 70.68 111.85 74.03 110.58 77.52 C 97.12 112.68 83.27 147.70 69.62 182.80 C 68.62 185.28 67.68 187.78 66.92 190.34 C 74.34 190.53 81.76 190.37 89.18 190.43 C 101.15 158.68 112.60 126.74 124.44 94.94 C 125.08 95.92 125.68 96.93 126.09 98.03 C 137.52 128.76 148.78 159.55 160.07 190.34 C 167.59 190.48 175.12 190.49 182.65 190.33 C 167.05 149.66 150.85 109.20 135.40 68.47 C 134.72 64.66 137.34 61.07 138.42 57.50 C 138.65 57.51 139.10 57.52 139.33 57.53 C 154.82 100.76 171.23 143.65 186.92 186.81 C 187.48 188.04 187.72 189.55 188.89 190.39 C 196.15 190.46 203.41 190.47 210.68 190.35 C 202.08 167.78 193.10 145.35 184.49 122.78 C 173.05 92.89 161.11 63.19 149.71 33.28 C 142.46 33.10 135.21 33.25 127.97 33.20 C 126.89 35.83 125.86 38.49 124.53 41.01 C 123.56 38.43 122.60 35.86 121.66 33.28 C 114.52 33.16 107.36 33.15 100.22 33.25 Z" />
</g>
</svg>
