<?xml version="1.0" encoding="UTF-8" ?>
<!DOCTYPE svg PUBLIC "-//W3C//DTD SVG 1.1//EN" "http://www.w3.org/Graphics/SVG/1.1/DTD/svg11.dtd">
<svg width="250pt" height="250pt" viewBox="0 0 250 250" version="1.1" xmlns="http://www.w3.org/2000/svg">
<g id="#ffffffff">
<path fill="#ffffff" opacity="1.00" d=" M 0.00 0.00 L 112.66 0.00 C 103.22 2.12 93.47 3.24 84.46 6.95 C 92.76 9.45 101.42 10.97 109.31 14.71 C 116.13 17.90 120.68 24.31 124.37 30.64 C 126.48 34.01 126.49 38.05 126.63 41.88 C 126.74 46.37 128.67 50.90 132.19 53.76 C 135.37 56.25 139.71 55.14 143.27 54.20 C 150.64 52.21 157.25 47.54 165.01 47.06 C 171.69 46.59 177.26 50.95 183.61 52.15 C 186.08 48.55 188.40 44.60 192.24 42.28 C 198.00 38.36 204.98 37.24 211.47 35.10 C 207.00 29.99 201.45 26.01 195.96 22.07 C 182.67 13.06 167.75 6.31 152.01 3.00 C 147.13 2.00 142.25 1.03 137.37 0.00 L 250.00 0.00 L 250.00 113.65 C 248.09 103.37 246.43 92.98 242.79 83.13 C 237.80 69.55 230.74 56.65 221.49 45.49 C 219.24 42.56 215.61 41.11 211.98 41.06 C 203.57 40.37 196.03 45.70 190.92 51.91 C 184.72 59.67 184.44 70.42 186.37 79.75 C 187.63 87.03 191.23 93.53 194.93 99.81 C 186.73 97.90 178.60 95.01 170.05 95.36 C 156.53 95.51 142.10 100.73 134.07 112.11 C 127.37 121.45 123.49 133.28 125.34 144.81 C 126.68 153.01 132.34 160.93 140.64 163.08 C 145.69 164.14 150.90 163.67 156.03 163.69 C 163.17 163.70 170.35 162.03 177.44 163.56 C 183.83 164.59 189.97 167.93 193.58 173.41 C 197.80 179.82 201.14 187.19 201.21 194.99 C 201.24 204.91 196.73 214.18 191.28 222.23 C 187.74 227.59 183.21 232.16 179.15 237.10 C 185.65 234.79 191.49 231.05 197.12 227.12 C 219.84 211.17 236.85 187.39 244.77 160.80 C 247.17 152.81 248.42 144.55 250.00 136.38 L 250.00 250.00 L 137.33 250.00 C 144.35 248.39 151.52 247.45 158.45 245.48 C 163.69 244.01 167.37 239.77 171.14 236.14 C 178.69 228.71 184.69 219.83 189.28 210.32 C 194.28 200.59 194.08 188.45 189.23 178.72 C 186.69 173.41 181.10 170.35 175.44 169.59 C 163.34 167.79 151.18 171.49 139.07 169.83 C 132.60 169.09 126.39 165.81 122.40 160.62 C 119.40 156.51 119.32 151.21 118.44 146.38 C 116.57 134.21 109.24 122.79 98.54 116.55 C 92.28 113.19 85.19 111.15 78.04 111.31 C 74.15 111.36 70.24 111.57 66.37 111.00 C 61.96 101.17 53.84 93.47 44.38 88.51 C 36.63 84.21 27.23 82.11 18.54 84.53 C 12.11 86.66 6.56 91.52 3.65 97.64 C 1.66 102.41 1.08 107.61 0.00 112.62 L 0.00 0.00 M 62.02 16.99 C 41.78 28.82 24.89 46.40 14.17 67.27 C 11.41 72.67 8.63 78.14 7.15 84.05 C 12.12 82.25 16.35 78.76 21.58 77.60 C 27.11 76.05 32.98 76.76 38.38 78.48 C 48.39 81.67 57.35 87.86 64.55 95.44 C 67.14 97.91 68.47 101.62 71.34 103.69 C 76.83 103.96 82.36 101.11 87.80 103.13 C 95.61 105.77 103.47 108.89 110.11 113.88 C 114.35 116.94 116.71 121.69 119.31 126.07 C 122.98 120.09 123.96 112.82 128.08 107.10 C 133.19 100.25 140.66 95.42 148.67 92.62 C 159.91 88.33 172.10 88.79 183.91 89.10 C 181.36 83.58 177.14 78.39 177.33 72.01 C 177.25 67.19 179.43 62.42 178.35 57.62 C 176.84 53.84 172.25 52.82 168.62 52.43 C 156.89 52.21 147.36 61.04 135.77 61.62 C 131.55 61.85 126.86 60.10 124.76 56.24 C 120.72 48.76 121.87 39.66 117.82 32.18 C 112.95 22.16 102.55 15.97 91.79 14.26 C 81.95 12.84 70.84 11.21 62.02 16.99 Z" />
<path fill="#ffffff" opacity="1.00" d=" M 0.00 137.33 C 0.87 141.68 1.81 146.00 2.68 150.35 C 6.05 167.11 13.13 183.07 22.91 197.06 C 39.33 220.47 64.06 237.79 91.60 245.42 C 98.83 247.42 106.25 248.60 113.62 250.00 L 0.00 250.00 L 0.00 137.33 Z" />
</g>
<g id="#c1c1c1ff">
<path fill="#c1c1c1" opacity="1.00" d=" M 112.66 0.00 L 137.37 0.00 C 142.25 1.03 147.13 2.00 152.01 3.00 C 167.75 6.31 182.67 13.06 195.96 22.07 C 201.45 26.01 207.00 29.99 211.47 35.10 C 204.98 37.24 198.00 38.36 192.24 42.28 C 188.40 44.60 186.08 48.55 183.61 52.15 C 177.26 50.95 171.69 46.59 165.01 47.06 C 157.25 47.54 150.64 52.21 143.27 54.20 C 139.71 55.14 135.37 56.25 132.19 53.76 C 128.67 50.90 126.74 46.37 126.63 41.88 C 126.49 38.05 126.48 34.01 124.37 30.64 C 120.68 24.31 116.13 17.90 109.31 14.71 C 101.42 10.97 92.76 9.45 84.46 6.95 C 93.47 3.24 103.22 2.12 112.66 0.00 Z" />
<path fill="#c1c1c1" opacity="1.00" d=" M 62.02 16.99 C 70.84 11.21 81.95 12.84 91.79 14.26 C 102.55 15.97 112.95 22.16 117.82 32.18 C 121.87 39.66 120.72 48.76 124.76 56.24 C 126.86 60.10 131.55 61.85 135.77 61.62 C 147.36 61.04 156.89 52.21 168.62 52.43 C 172.25 52.82 176.84 53.84 178.35 57.62 C 179.43 62.42 177.25 67.19 177.33 72.01 C 177.14 78.39 181.36 83.58 183.91 89.10 C 172.10 88.79 159.91 88.33 148.67 92.62 C 140.66 95.42 133.19 100.25 128.08 107.10 C 123.96 112.82 122.98 120.09 119.31 126.07 C 116.71 121.69 114.35 116.94 110.11 113.88 C 103.47 108.89 95.61 105.77 87.80 103.13 C 82.36 101.11 76.83 103.96 71.34 103.69 C 68.47 101.62 67.14 97.91 64.55 95.44 C 57.35 87.86 48.39 81.67 38.38 78.48 C 32.98 76.76 27.11 76.05 21.58 77.60 C 16.35 78.76 12.12 82.25 7.15 84.05 C 8.63 78.14 11.41 72.67 14.17 67.27 C 24.89 46.40 41.78 28.82 62.02 16.99 Z" />
<path fill="#c1c1c1" opacity="1.00" d=" M 190.92 51.91 C 196.03 45.70 203.57 40.37 211.98 41.06 C 215.61 41.11 219.24 42.56 221.49 45.49 C 230.74 56.65 237.80 69.55 242.79 83.13 C 246.43 92.98 248.09 103.37 250.00 113.65 L 250.00 136.38 C 248.42 144.55 247.17 152.81 244.77 160.80 C 236.85 187.39 219.84 211.17 197.12 227.12 C 191.49 231.05 185.65 234.79 179.15 237.10 C 183.21 232.16 187.74 227.59 191.28 222.23 C 196.73 214.18 201.24 204.91 201.21 194.99 C 201.14 187.19 197.80 179.82 193.58 173.41 C 189.97 167.93 183.83 164.59 177.44 163.56 C 170.35 162.03 163.17 163.70 156.03 163.69 C 150.90 163.67 145.69 164.14 140.64 163.08 C 132.34 160.93 126.68 153.01 125.34 144.81 C 123.49 133.28 127.37 121.45 134.07 112.11 C 142.10 100.73 156.53 95.51 170.05 95.36 C 178.60 95.01 186.73 97.90 194.93 99.81 C 191.23 93.53 187.63 87.03 186.37 79.75 C 184.44 70.42 184.72 59.67 190.92 51.91 Z" />
<path fill="#c1c1c1" opacity="1.00" d=" M 18.54 84.53 C 27.23 82.11 36.63 84.21 44.38 88.51 C 53.84 93.47 61.96 101.17 66.37 111.00 C 70.24 111.57 74.15 111.36 78.04 111.31 C 85.19 111.15 92.28 113.19 98.54 116.55 C 109.24 122.79 116.57 134.21 118.44 146.38 C 119.32 151.21 119.40 156.51 122.40 160.62 C 126.39 165.81 132.60 169.09 139.07 169.83 C 151.18 171.49 163.34 167.79 175.44 169.59 C 181.10 170.35 186.69 173.41 189.23 178.72 C 194.08 188.45 194.28 200.59 189.28 210.32 C 184.69 219.83 178.69 228.71 171.14 236.14 C 167.37 239.77 163.69 244.01 158.45 245.48 C 151.52 247.45 144.35 248.39 137.33 250.00 L 113.62 250.00 C 106.25 248.60 98.83 247.42 91.60 245.42 C 64.06 237.79 39.33 220.47 22.91 197.06 C 13.13 183.07 6.05 167.11 2.68 150.35 C 1.81 146.00 0.87 141.68 0.00 137.33 L 0.00 112.62 C 1.08 107.61 1.66 102.41 3.65 97.64 C 6.56 91.52 12.11 86.66 18.54 84.53 Z" />
</g>
</svg>
