<?xml version="1.0" encoding="utf-8"?>
<!-- Generator: Adobe Illustrator 26.0.3, SVG Export Plug-In . SVG Version: 6.00 Build 0)  -->
<svg version="1.1" id="Layer_1" xmlns="http://www.w3.org/2000/svg" xmlns:xlink="http://www.w3.org/1999/xlink" x="0px" y="0px"
	 viewBox="0 0 250 250" style="enable-background:new 0 0 250 250;" xml:space="preserve">
<style type="text/css">
	.st0{fill:#15112A;}
	.st1{fill:#FAF9FF;}
	.st2{fill:#FCFBFF;}
	.st3{fill:#F9F8FF;}
	.st4{fill:#FFFDFF;}
	.st5{fill:#FFFEFF;}
	.st6{fill:#FDFCFF;}
	.st7{fill:#16151B;}
	.st8{fill:#15141C;}
	.st9{fill:#BDC0C3;}
	.st10{fill:#13121E;}
	.st11{fill:#7D8E78;}
	.st12{fill:#999C98;}
	.st13{fill:#9E9E9A;}
	.st14{fill:#0E2D10;}
	.st15{fill:#73C35E;}
	.st16{fill:#6B9373;}
	.st17{fill:#111524;}
	.st18{fill:#C9E9EF;}
	.st19{fill:#E9F7F8;}
	.st20{fill:#7A8E89;}
	.st21{fill:#BCBFBB;}
	.st22{fill:#121119;}
	.st23{fill:#C9E7EF;}
	.st24{fill:#CBE8F0;}
	.st25{fill:#A4A4AD;}
	.st26{fill:#A2A5AA;}
	.st27{fill:#1A1221;}
	.st28{fill:#0F2F0F;}
	.st29{fill:#151525;}
	.st30{fill:#121325;}
	.st31{fill:#72956A;}
	.st32{fill:#E9EBEB;}
	.st33{fill:#E7E8EA;}
	.st34{fill:#0E0C17;}
	.st35{fill:#A3A6AD;}
	.st36{fill:#BEBFC1;}
	.st37{fill:#E7F8FD;}
	.st38{fill:#E7F7FC;}
	.st39{fill:#F8F9FD;}
	.st40{fill:#111424;}
	.st41{fill:#111323;}
	.st42{fill:#BFC2C4;}
	.st43{fill:#6CC145;}
	.st44{fill:#F2F3F7;}
	.st45{fill:#62C840;}
	.st46{fill:#011704;}
	.st47{fill:#5CCC3A;}
	.st48{fill:#15131C;}
	.st49{fill:#1A570B;}
	.st50{fill:#155308;}
	.st51{fill:#FDE9A7;}
	.st52{fill:#0C2B0B;}
	.st53{fill:#1A1621;}
	.st54{fill:#1A1101;}
	.st55{fill:#13060C;}
	.st56{fill:#F8EFD5;}
	.st57{fill:#F6F1C7;}
	.st58{fill:#E0F2F8;}
	.st59{fill:#7B8C7A;}
	.st60{fill:#A2A6B0;}
	.st61{fill:#A79FA6;}
	.st62{fill:#FEFDFF;}
	.st63{fill:#DBDCD8;}
	.st64{fill:#171523;}
	.st65{fill:#E9EBE6;}
	.st66{fill:#E9E0BE;}
	.st67{fill:#A9A7A9;}
	.st68{fill:#FEFCFF;}
	.st69{fill:#FFFCFF;}
	.st70{fill:#A4A4A6;}
	.st71{fill:#171522;}
	.st72{fill:#7F9A81;}
	.st73{fill:#FFFAFF;}
	.st74{fill:#17122B;}
</style>
<g id="_x23_15112aff">
	<path class="st0" d="M115.2,0H135c27.7,2.4,54.7,13.8,75,32.9c18.1,16.4,31,38.3,36.8,62c1.7,6.2,2.2,12.7,3.3,19.1v22
		c-2,17.6-6.9,35.1-15.8,50.5c-8.9,15.9-21.5,29.6-36.2,40.3c-18.5,13.5-40.9,21.1-63.7,23.1h-18.6c-16.9-1.6-33.7-6-48.7-14
		c-33.6-17.3-58.5-50.7-65-88c-1-4.9-1.4-9.9-2.1-14.8v-16.3c1.5-16.3,5.3-32.6,12.7-47.3c10.8-21.8,28-40.5,49.1-52.7
		C78.1,7.3,96.5,1.8,115.2,0 M140.2,13.2c-2,1.6,0.2,3.5,2.2,3.3C143.1,14.7,142.6,12.5,140.2,13.2 M122.2,17.1
		c-2.8-0.1-2.2,2.5,0,2.6c0.3,3.1-1.8,8.6,2.6,9.5c2.4,1.1,7.7-1.5,4.3-4c-0.8,2.4-3,2.1-5,1.9c0-2.5,0-5,0.1-7.6c1.8,0,3.5,0,5.3,0
		c0.5-3.1-3.4-1.6-5.1-2.1c-0.1-1.3-0.2-2.6-0.5-3.8C121.9,13.5,122.5,15.8,122.2,17.1 M105.6,15.7c0.1,0.8,0.2,2.3,0.2,3.1
		c-0.4,0.2-1.3,0.6-1.7,0.8c-0.6,1.5,1.4,1.3,2.2,1.9c0.3,2.6,0.3,5.2,1.3,7.7c1.4,1.5,3.5,1.3,5.3,0.8c2-0.4,3.7-3.3,1.2-4.3
		c-0.7,2-2.5,2.8-4.5,2.9c-0.7-2.5-1-5.1-1.3-7.7c1.8-0.6,5.6,0.5,5.1-2.5c-1.7,0.1-3.5,0.2-5.2,0.4c-0.3-1.1-0.5-2.3-0.8-3.4
		C107,15.4,106.1,15.6,105.6,15.7 M88.9,18.3c0.4,2.1,2.3,3,4,1.4c-0.4-0.9-0.8-1.8-1.2-2.7C90.8,17.4,89.9,17.9,88.9,18.3
		 M137,18.2c-0.4,2,1,2.4,2.7,2.2c-0.5,2.9,0.8,9-4.2,7.6c0.1,0.4,0.4,1.2,0.5,1.6c2.6,0.7,5.3,0.9,8.1,0.8c0.2-2.2-1.9-1.9-3.2-2.3
		c0.4-2.8,0.8-5.7,1.1-8.5C141.6,17.6,138.6,18.8,137,18.2 M149.8,29.2c0.8,4.4,5.6,5.1,9.2,5.9c0-4.1-6.8-2.1-7.4-6.4
		c3.1,0,5.7,2,8.8,2.1c0.4-1.6,1.2-3.2,1-5c-0.9-2.4-3.4-3.3-5.5-4.1C151.7,21.8,150.9,26,149.8,29.2 M75.4,30.9
		c-1.2-1.7-1.5-4.9-4.2-4.6c1.5,5.1,4.5,9.7,7,14.4c0.5,0,1.4,0.2,1.8,0.2c-0.5-2-1.5-3.9-2.5-5.7c3.2,0.2,6.6,2.4,9.7,1.5l0.1-0.9
		c-3-1.8-6.9-2-10.3-2.9c1.1-3.6,3.3-6.8,3.8-10.6C77,23.1,77.6,28.3,75.4,30.9 M89,25.1c0.8-0.1,2.5-0.3,3.3-0.5
		c0.9,2.4,1.7,4.9,2.4,7.3c-1.6,0.1-2.6,1.1-2.5,2.7c2.5-0.4,5-1.2,7.3-2.3c2.5-1.6-1.5-2.3-2.6-1.1c-1.3-3.1-1.7-6.5-3.6-9.2
		C91.7,23,88.9,22.8,89,25.1 M166.4,30c1.6,2.4,3.7,4.5,5.2,7l-0.5,1.5c-3-0.7-4.9-3.4-7.8-4.1c-0.1,3.3,3.3,4.3,5.7,5.5
		c2.4,1.5,5.3-1.2,4.5-3.8c-1.3-2.6-4.3-4.1-4.6-7.1c2.7,1,4.9,2.8,7.1,4.4c1.1-3.7-3.4-5-6.1-6C168.1,26.5,167.1,28.7,166.4,30
		 M177.2,41.2c-0.4,0.9-2.2,3-0.1,3.2c2.6-1.6,3.4-6.1,6.2-6.7c0.8,3.6-0.8,7.3-0.4,11c0.5,0.1,1.4,0.2,1.8,0.3
		c0.4-3,0.7-5.9,0.9-8.9c1.5,0.5,3.3,1.3,4.8,0.3c1.3-1.2,2.7-3.3,1.4-5c-1.9-2.1-4.5-3.4-6.7-5.2C182.4,33.8,179.8,37.6,177.2,41.2
		 M61.2,42c0.9,2,2.2,3.8,3.8,5.2c3.8,2,8.6-1.9,8-6c-1.3-1.8-2.4-3.8-4-5.2C65.2,34.3,60.3,37.8,61.2,42 M130.4,39.5
		c1.4,1.3,3.3-1,1.9-2.3C131,35.2,129,38.2,130.4,39.5 M106.2,43c0.8,0.9,1.6,1.8,2.4,2.7c0.4-0.7,1.2-2,1.6-2.7
		c-0.4-0.5-1.2-1.5-1.5-2.1C107.8,41.6,107,42.3,106.2,43 M200.1,43.2c-1.3,1,0.9,1.9,1.3,2.8c0.8-0.7,1.6-1.4,2.4-2
		C202.8,43,201.1,41.2,200.1,43.2 M195.8,44.6c-1.5,1.1,0.5,2.5,1.2,3.4c-1.8,1.7-3.4,3.5-5.1,5.2c-1.2-0.9-2.7-2.8-3.8-0.5
		c2.2,1.8,3.9,4.7,6.9,5.3c-0.1-1.3-0.7-2.4-1.7-3.3c2.2-2.3,4.4-4.6,6.6-6.9C198.6,46.9,197.7,44.6,195.8,44.6 M50.3,50.7
		c-0.7-0.3-1.9-1-2.6-1.3c0.7,4,4.8,6.4,7.4,9.3l1.7-0.1c-1-2.3-2.9-3.9-4.5-5.7c0.1-1.5,0.2-2.9,0.3-4.3c0.4-0.5,1.3-1.4,1.7-1.8
		c1,0.5,2,1.1,3,1.6c1.2-2.6-2.4-4.5-4.3-2.9C51,46.3,50.3,48.6,50.3,50.7 M94.4,48.4c-1.3,0.9-0.1,3.8,1.5,2.6
		C97.2,50.1,95.9,47.4,94.4,48.4 M78.3,49.4c-1.5,0.9,0.1,3.5,1.6,2.3C81.4,50.8,79.8,48.2,78.3,49.4 M111.9,50
		c-7.5,1.8-15.5,2.6-22.3,6.7c-2.3,1.1-5.1,1.3-7.2,2.8C75.2,64.9,68.6,71,61.7,76.8c-3.9,5.8-7.3,11.9-11,17.8
		c-2.2,0.4-4.6,0.5-6.6,1.5c-3.5,2-4.3,6.3-5.2,9.8c-2.6,12.8-1.8,26.2,2.8,38.4c2.8,1.4,6,2,9,3c2.3,1.2,2.8,4.1,4,6.2
		c3.2,5.5,7.1,10.5,10.9,15.6c1.4,0.5,2.8,1.2,3.8,2.5c2.2,2.5,5,4.5,6.7,7.3c1.4,0.6,2.7,1.1,4.1,1.7c1,3.6,3.2,6.7,6.1,9
		c2.8,2.2,5.3,5.1,8.9,6.1c6.9,1.9,13.6,4.6,20.8,4.6c8.6,1.1,17.3,0.5,25.9-0.7c7.8-1.3,14.9-5,21.5-9.2c4-2.5,4.5-8,8.2-10.8
		c5.1-3.8,9.6-8.3,14.3-12.6c3.2-2.8,5-6.8,7.9-9.9c0.5,0.1,1.4,0.4,1.8,0.5c0.1-3.9,1-8.3,4.4-10.7c1.8-0.1,4.1,1.6,5.5-0.1
		c1.6-1.5,3.3-3,4.1-5.1c3.1-7.1,2.7-15.1,3.3-22.6c-0.7-7.2-0.8-15-4.8-21.2c-2.6-2.2-6.6-1.5-9.3-3.6c-2-3.4-3.2-7.2-5.7-10.3
		c-2.7-3.4-4.5-8.5-9.4-9.2l0,0c0.1-3.2-2.8-4.8-4.9-6.6C160.8,52.3,135.4,46.8,111.9,50 M156.2,49.6c-1.5,1,0.1,3.7,1.6,2.5
		C159.1,51,157.7,48.4,156.2,49.6 M172.5,56.2c0.7,0.9,1.3,1.7,2,2.6c0.7-0.9,1.3-1.7,2-2.6c-0.4-0.5-1.3-1.6-1.8-2.1
		C174,54.8,173.2,55.5,172.5,56.2 M39.4,59.8c-1.3-1.1-3.4-3-3.8-0.1c0.6,0.3,1.7,1,2.2,1.4c-0.2,0.8-0.3,1.7-0.5,2.5
		c1,0.4,1.9,0.2,2.7-0.7c2,1.6,3.9,3.3,6.1,4.6c2.7,0.6,4.7-2.3,5.2-4.5c0.6-1.2-1.6-3.9-2.5-2.1c1,2-0.4,3.5-1.7,4.9
		c-2.1-1.5-4.1-3.1-6.1-4.7c1-1.5,3-2.7,2.7-4.8C41.6,55.9,40.8,58.6,39.4,59.8 M205.4,67.5c-2.8-1.1-4.3-3.9-5.1-6.6
		c-3.2,0.7-0.9,4,0.4,5.5c1.2,1.9,3.8,4.3,6,2.1c2.7-3-0.8-6.9-0.6-10.4c2.5,1.5,3.7,4.3,4.9,6.9c0.3-0.5,1-1.4,1.4-1.9
		c-1-2.8-3-6.5-6.2-6.9C201.5,58.5,206.5,63.8,205.4,67.5 M185.2,68c-0.6,1.7,0,2.3,1.6,1.8C187.3,68.2,186.8,67.6,185.2,68
		 M29.3,76.1c0.8,1,1.4,2.5,2.8,2.7c3.3-0.4,5.1-4.7,8.5-4.4c0.6,3.3-3.8,5-3.8,7.8c3,0.8,4.2-2.9,5.4-4.9c1.2-1.8,0.3-5-2.1-4.9
		c-3.6-0.5-5.2,4.5-8.7,4.2c0.8-2.7,3.7-4.4,4.4-6.9C31.9,68.4,31,73.8,29.3,76.1 M57.5,70c-1.2,1.2,0.5,3.8,1.9,2.4
		C60.8,71.2,58.9,68.2,57.5,70 M212.5,70.5c-2.7,1.1-6.1,3.9-4.1,7.2c1.2,1.8,1.8,5.1,4.5,5.1c-0.1-3.3-3.6-5.5-2.7-9
		c2.9,1.2,3.2,5.1,5.5,7c1.2-0.8,2.5-1.6,3.6-2.6C222.3,74.4,216.9,67.4,212.5,70.5 M48.9,84.6c0.7,0.8,1.4,1.7,2.1,2.5
		c0.6-0.8,1.2-1.7,1.9-2.6c-0.5-0.4-1.4-1.3-1.9-1.8C50.5,83.2,49.4,84.1,48.9,84.6 M220.3,85.2c-0.8,2.9,0.1,6.2-1.3,9
		c-3.1-1.9-1.8-6.2-4.1-8.3c-1.9,2.6-0.1,5.7,1.1,8.2c1,2.5,5,2.1,5.7-0.4c0.4-2.8,0.1-5.6,0.9-8.4c1.2,1.8,2.2,3.8,2.2,6
		c-0.8,1.5,1.9,2.3,2,0.8c0.7-2.4-0.9-4.8-1.8-6.9C224.1,83.2,221,83.2,220.3,85.2 M199.2,87c0.7,0.8,1.5,1.7,2.2,2.5
		c0.4-0.6,1.3-1.9,1.7-2.5c-0.4-0.7-1.2-2-1.6-2.6C200.8,85.3,200,86.1,199.2,87 M20,85.3l0.4,1.5c4,3.4,8.1,6.9,12.6,9.6l1.1-1.2
		c-1-0.8-2-1.7-3-2.5c0.5-1.4,1-2.8,1.5-4.1c1.4-0.1,5.2,0.9,3.9-1.8C31.1,86.1,25.6,85.4,20,85.3 M9.3,118.2l0.7,0.7
		c1.1,2.7,4.2,3,6.7,2.7c0.8,1.2,1.5,2.4,2.2,3.6c0.9-0.9,2.2-1.8,2-3.3c0.4,0,1.3-0.2,1.8-0.2c1.9,1.1,3.9,1.9,6.1,2.2
		c0-6-0.1-12.1-0.2-18.1C21.8,109.4,15.7,114.1,9.3,118.2 M221.6,106.1l0,0.8c-0.4,0.3-1.2,1-1.6,1.3c-0.8,4.7-0.4,9.7,0.3,14.4
		l1.1,0.6l0,0.8c2.4-0.1,4.5-1.4,6.7-2.2c1.4,0.7,1.7,3,3.4,3.2c1.2-1.8,2.3-3.8,3.6-5.6c2.1,0.1,4.1-0.2,6-1
		c-4.2-2.9-8.6-5.6-12.9-8.4C226.1,108.4,224.1,106.6,221.6,106.1 M47.2,151.4c-1.6,1,0.3,3.4,1.7,2.3
		C50.5,152.7,48.7,150.3,47.2,151.4 M202.2,156.1c-0.5,1.7,0,2.3,1.5,1.8C204.2,156.2,203.7,155.6,202.2,156.1 M216.2,158.6
		c0.2,0.6,0.5,1.7,0.6,2.2c-2.9,1.8-4.6,6.4-1.5,8.8c2.8,1.2,6.1,4,9.1,1.7c1.9-1.4,2.6-4.2,2.1-6.5c1.5,0.5,2.5,1.5,3,3.1
		c-0.9,2.1-3.2,4.5-1.6,6.8c2.1-2,3.6-5,3.5-7.9c-0.4-3.5-4.3-4-6.8-5.3C221.8,160.6,219.2,158.5,216.2,158.6 M22.7,163.1
		c-0.1,0.5-0.3,1.6-0.4,2.2c1.5-0.1,2.9-0.1,4.4-0.1c0.6,1.4,1.3,2.8,2,4.2c-1.1,1-2.1,2-3.1,3c0.3,0.3,0.9,1,1.2,1.3
		c3.8-2.2,6.8-5.8,10.4-8.5c1.2-1.3,3.6-2.2,3.2-4.4C34.3,161.3,28.5,162.2,22.7,163.1 M60.4,173.3c-0.3,0.5-1,1.6-1.4,2.2
		c0.5,0.8,1,1.6,1.5,2.5c0.7-0.8,1.4-1.6,2.1-2.4C61.9,174.8,61.2,174,60.4,173.3 M210.3,173.4c-2.5,1.4-3.5,4.4-2.6,7.1
		c-0.6-0.1-1.8-0.2-2.4-0.2l-0.9,0.9c3.7,2.5,7.3,5.6,11.6,7c0.4-3.2-3.6-3.7-5.4-5.6c-0.6-1.5-0.7-3.1-1-4.7
		c0.4-0.6,1.1-1.8,1.4-2.4c0.9,0.2,2.6,0.6,3.5,0.9C215.3,173.7,212.1,172.8,210.3,173.4 M37.3,184.6L36,185
		c-2.8-1.8-2.8-5.5-4.8-7.8c-2.4,2.9,0.5,6,2.1,8.5c1.4,2.4,5.2,1.9,6.2-0.7c0.3-3.3-1.1-6.4-0.9-9.7c1.6,1.3,2.7,3.1,3.8,4.8
		c0,0.7,0.1,2,0.1,2.7c0.5-0.1,1.5-0.3,1.9-0.4c1.3-3.3-2.2-5.8-3.5-8.6c-0.8-0.1-2.2-0.4-3-0.5C34.5,176.3,37.6,180.9,37.3,184.6
		 M195.4,174.1c-1.1,1.3,1,3.6,2.1,1.8C198.6,174.6,196.5,172.4,195.4,174.1 M183.5,180.3c-1.5,1.4-1.4,3.1-0.3,4.7
		c0.8-0.7,1.7-1.3,2.5-2C185,182.1,184.3,181.2,183.5,180.3 M47.1,186c0.2,0.5,0.5,1.6,0.7,2.2c-2.1,1.9-4.5,3.4-6.2,5.7
		c-1,3.1,2.4,6.8,5.6,6.4c1,0.1,2.4-2.2,0.7-2.4c-2.2,0.7-3.4-1.3-4.6-2.7c2-1.9,4.1-3.7,6.2-5.5c1.2,1.4,2.4,2.8,3.6,4.2
		c3.1-1.9-0.8-3.9-1.9-5.7c1.3-0.7,4.3-3.5,1.1-3.8c-0.6,0.5-1.8,1.5-2.4,2C49.2,185.8,47.4,184.5,47.1,186 M196.7,192
		c-0.7,3.2,2.5,5.1,4.6,6.8c3.4,2.6,8-1.1,8.5-4.7c0.6-3.8-3.4-5.4-5.6-7.7C200.7,186.1,197.3,188.5,196.7,192 M77.4,193.6
		c-0.4,0.6-1.1,1.8-1.5,2.4c0.4,0.6,1.2,1.7,1.6,2.2c0.8-0.8,1.5-1.5,2.3-2.3C78.9,195.1,78.2,194.3,77.4,193.6 M58.6,196.1
		c-2.8,3.4-6.6,6.3-8.3,10.5c3.2,0.5,4.5-3.3,6.5-5.1c2.5,0,5.6-0.5,6.9,2.2c-0.4,0.6-1.2,1.8-1.6,2.3c1.1,1.6,3.2,0.3,3.4-1.2
		c1-3.5-3.2-6.3-6.3-5.5C59.7,198.1,60.1,196.8,58.6,196.1 M93.2,198.2c-1.8,0.4-1,3.3,0.7,2.8C95.5,200.6,95,197.7,93.2,198.2
		 M164.3,198.5c-1.5,1,0.3,3.5,1.7,2.3C167.5,199.8,165.8,197.4,164.3,198.5 M189.9,205.1c0.6,1.1,1.1,2.2,2.2,2.9
		c1.7,0.2,2.5-1.6,3.6-2.6c-0.9-0.9-1.8-1.9-2.8-2.8C191.9,203.4,190.9,204.2,189.9,205.1 M69.3,207.6c-2.8,2.3-5.6,6.7-3.2,10.2
		c2.1,2.1,5.8,3.9,8.4,1.6c1.4-1.6,2.4-3.5,3.2-5.4C78.8,209.5,73.2,206.1,69.3,207.6 M173.4,209.5c-2.1,1.1-1.6,4.4,0.5,5.1
		c3.2,0.2,6.4-0.8,9.6-0.2c-0.1,0.4-0.2,1.2-0.3,1.6c-2.3,1.4-4.7,2.8-7.5,2.9c0.4,3.1,4,1.9,5.8,0.7c2.4-1.1,5.6-3.7,3.5-6.6
		c-2.9-3.2-7.6,0.2-11.2-0.9c1.8-1.6,3.8-3.1,6.3-3.4c1.2,0.5,1.9-1.4,1.1-2C178.3,205.7,175.7,208.1,173.4,209.5 M135.3,208.4
		c-1.7,0.9,0.2,3.3,1.6,2.3C138.5,209.7,136.8,207.2,135.3,208.4 M85.1,208.7c-2.3,5.4-5.1,10.8-6.3,16.5c2.9,1.1,2.8-3.7,4.1-5.3
		c1.8,3,2.9,6.5,5.2,9.2c0.4-0.3,1.1-0.8,1.5-1.1c-1.7-3.5-3.5-6.9-5.3-10.3c3.8-1.2,7.5-2.4,11.2-3.8c-0.3-0.4-0.8-1.2-1-1.7
		c-3.4,0.6-6.6,2.1-9.9,3.2C84.9,213.6,88.6,209.1,85.1,208.7 M102.4,213.3c-1.2,1.3-1.9,3.7,0.7,4
		C106.1,216.8,104.7,213.6,102.4,213.3 M144.3,214.4c0.2,1.2,0.4,3.6,2.2,2.9c1.9,0,1.3-2,1.4-3.2
		C146.7,214.2,145.5,214.3,144.3,214.4 M158.3,220.1c0.5,2.1,1.2,4.3,2.5,6.2c3,2.7,6.8,0.4,9.8-0.8c1.2,0.1,1.6-2.6,0.3-2.2
		c-3,0-6.9,4.2-9.1,0.5c2.6-1.1,5.3-1.9,7.9-3.1c0.6-1.1-0.2-2.4-0.6-3.5C167,211.8,157.7,214.7,158.3,220.1 M114.2,221.3
		c-1.1,0.3-2.1,0.8-2.9,1.7c0.6,0.3,1.9,0.8,2.6,1.1c-0.1,2.7-0.2,5.4-0.4,8.1c0.3,0.6,1,1.6,1.4,2.2c1.9,0.2,3.9,0.9,5.8,0.2
		c1.6-0.6,2.2-2.6,1.4-4.1c-1.7,1.9-3.9,2.7-6.3,1.9c0.2-2.7,0.5-5.4,0.7-8.2c1.9,0.1,3.9,0.2,5.8,0.1c0-3.1-3.6-1.9-5.6-2.5
		c-0.1-1.5,0.3-3.2-0.9-4.5C114.5,218.3,114.2,219.8,114.2,221.3 M129.4,218.3c0,2,0.3,4.4-2.3,4.7c0.7,0.4,2,1.3,2.6,1.7
		c0.1,2.7,0.2,5.4,0.6,8.1c0.6,0.6,1.1,1.3,1.7,1.9c1.7-0.1,3.5,0.1,5.2-0.3c1.3-0.9,2.8-2.7,1.4-4.1c-1.4-0.3-1.7,1.3-2.4,2.1
		c-0.9,0.1-2.7,0.2-3.6,0.2c-0.3-2.8-0.5-5.5-0.8-8.3c1.9-0.3,4.2,0.1,5.8-1.2c-0.5-2.7-4.1-0.9-5.9-1.2c-0.1-1.2-0.2-2.4-0.3-3.5
		C130.9,218.4,129.9,218.3,129.4,218.3 M98.2,219.2c-0.7,2,1.5,2,2.8,2.5c-0.5,2.6-1.2,5.3-1.7,7.9c-1.1-0.3-5.2-0.7-3.3,1.5
		c2.5,1.1,5.3,1.6,8.1,1.9c2-1.8-1.6-2.5-2.6-2.8c0.6-3.4,2.1-6.8,1.9-10.2C101.8,219.4,99.9,218.5,98.2,219.2 M143.7,222.6
		c1.2-0.1,2.4-0.3,3.5-0.4c0.5,2.7,1.1,5.3,1.7,7.9c-1.6,0.3-3.4,0.7-2.8,2.8c2.8-0.3,5.6-0.8,8.3-1.8c0.1-0.5,0.4-1.4,0.5-1.9
		c-1.3,0.1-2.6,0.2-3.8,0.3c-0.6-3.3-1.4-6.5-2-9.8C147.1,219.8,142.7,219.5,143.7,222.6z"/>
</g>
<g id="_x23_faf9ffff">
	<path class="st1" d="M140.2,13.2c2.4-0.8,2.9,1.5,2.2,3.3C140.4,16.8,138.2,14.9,140.2,13.2z"/>
	<path class="st1" d="M177.2,41.2c2.6-3.7,5.2-7.4,7.8-11.1c2.2,1.7,4.8,3.1,6.7,5.2c1.3,1.7-0.1,3.8-1.4,5
		c-1.5,1.1-3.3,0.3-4.8-0.3c-0.1,3-0.4,6-0.9,8.9c-0.5-0.1-1.4-0.2-1.8-0.3c-0.4-3.7,1.2-7.4,0.4-11c-2.9,0.6-3.6,5.1-6.2,6.7
		C174.9,44.2,176.7,42.1,177.2,41.2 M185.6,33.1c-0.7,0.9-1.3,1.8-2,2.7c1.7,1.2,3.5,2.4,5.3,3.5c0.4-1,0.8-1.9,1.2-2.9
		C188.6,35.3,187.1,34.2,185.6,33.1z"/>
	<path class="st1" d="M212.5,70.5c4.4-3.1,9.8,3.9,6.8,7.8c-1.1,1-2.4,1.7-3.6,2.6c-2.3-2-2.6-5.9-5.5-7c-0.9,3.4,2.6,5.7,2.7,9
		c-2.7,0-3.2-3.3-4.5-5.1C206.4,74.4,209.8,71.6,212.5,70.5 M213.2,72.5c0.8,1.9,1.5,4.7,3.7,5.4C219.7,75.7,216.3,70,213.2,72.5z"
		/>
	<path class="st1" d="M102.4,213.3c2.3,0.3,3.7,3.5,0.7,4C100.5,217.1,101.2,214.7,102.4,213.3z"/>
	<path class="st1" d="M158.3,220.1c-0.6-5.4,8.7-8.3,10.8-3c0.4,1.1,1.2,2.3,0.6,3.5c-2.6,1.2-5.3,2-7.9,3.1
		c2.2,3.7,6.1-0.5,9.1-0.5c1.3-0.4,0.9,2.3-0.3,2.2c-3,1.2-6.9,3.5-9.8,0.8C159.6,224.4,158.9,222.2,158.3,220.1 M163.6,216.7
		c-2.1,0.4-4,2.5-2.7,4.7c2.2-0.7,4.9-1.1,6.6-2.8C166.7,217.2,165.2,216,163.6,216.7z"/>
</g>
<g id="_x23_fcfbffff">
	<path class="st2" d="M122.2,17.1c0.2-1.4-0.3-3.6,1.8-3.5c0.3,1.2,0.5,2.5,0.5,3.8c1.7,0.5,5.6-1,5.1,2.1c-1.8,0-3.5,0-5.3,0
		c-0.1,2.5-0.1,5-0.1,7.6c2,0.2,4.2,0.5,5-1.9c3.3,2.5-1.9,5.2-4.3,4c-4.3-0.9-2.3-6.4-2.6-9.5C120,19.6,119.4,17,122.2,17.1z"/>
	<path class="st2" d="M105.6,15.7c0.5-0.1,1.4-0.3,1.9-0.4c0.2,1.1,0.5,2.3,0.8,3.4c1.7-0.2,3.5-0.4,5.2-0.4c0.5,3-3.3,1.9-5.1,2.5
		c0.3,2.6,0.6,5.2,1.3,7.7c2-0.2,3.8-0.9,4.5-2.9c2.5,1,0.8,4-1.2,4.3c-1.8,0.5-3.9,0.7-5.3-0.8c-1-2.4-1-5.1-1.3-7.7
		c-0.9-0.5-2.9-0.4-2.2-1.9c0.4-0.2,1.3-0.6,1.7-0.8C105.8,18,105.7,16.5,105.6,15.7z"/>
	<path class="st2" d="M149.8,29.2c1.1-3.2,1.9-7.3,6-7.5c2.2,0.8,4.7,1.7,5.5,4.1c0.2,1.7-0.6,3.3-1,5c-3.1-0.1-5.7-2.1-8.8-2.1
		c0.7,4.3,7.5,2.2,7.4,6.4C155.4,34.3,150.6,33.5,149.8,29.2 M153.3,26.4c1.7,0.7,3.5,1.3,5.2,2c1.8-1,0.4-2.6-0.1-3.9
		C156.6,24,152.6,23.5,153.3,26.4z"/>
	<path class="st2" d="M166.4,30c0.7-1.3,1.7-3.5,3.6-2.7c2.6,1,7.1,2.3,6.1,6c-2.3-1.6-4.5-3.4-7.1-4.4c0.3,3,3.4,4.6,4.6,7.1
		c0.8,2.6-2.1,5.3-4.5,3.8c-2.4-1.2-5.8-2.2-5.7-5.5c2.8,0.7,4.8,3.4,7.8,4.1l0.5-1.5C170.1,34.5,168,32.5,166.4,30z"/>
	<path class="st2" d="M61.2,42c-0.9-4.1,4-7.7,7.8-6.1c1.7,1.5,2.7,3.4,4,5.2c0.6,4.1-4.2,8-8,6C63.4,45.7,62.1,43.9,61.2,42
		 M63.6,39.5c-1.2,2.3,1.5,4.2,2.5,6.1c2,0.2,3.9-0.9,4.8-2.6c0.1-2.2-1.7-3.8-3-5.3C66.1,37,64.6,38.3,63.6,39.5z"/>
	<path class="st2" d="M195.8,44.6c1.9,0,2.8,2.3,4.1,3.3c-2.2,2.3-4.4,4.6-6.6,6.9c1,0.9,1.6,2,1.7,3.3c-3-0.6-4.7-3.5-6.9-5.3
		c1-2.3,2.5-0.4,3.8,0.5c1.7-1.8,3.3-3.5,5.1-5.2C196.4,47.1,194.3,45.8,195.8,44.6z"/>
	<path class="st2" d="M50.3,50.7c0.1-2.1,0.7-4.4,2.7-5.4c1.9-1.5,5.5,0.4,4.3,2.9c-1-0.5-2-1-3-1.6c-0.4,0.5-1.3,1.4-1.7,1.8
		c-0.1,1.5-0.2,2.9-0.3,4.3c1.6,1.8,3.5,3.4,4.5,5.7l-1.7,0.1c-2.6-2.9-6.7-5.3-7.4-9.3C48.3,49.7,49.6,50.3,50.3,50.7z"/>
	<path class="st2" d="M39.4,59.8c1.4-1.2,2.2-4,4.4-3.5c0.3,2-1.7,3.3-2.7,4.8c2,1.6,4,3.2,6.1,4.7c1.2-1.4,2.7-2.9,1.7-4.9
		c0.9-1.9,3.1,0.8,2.5,2.1c-0.5,2.2-2.6,5.1-5.2,4.5c-2.2-1.3-4.1-3-6.1-4.6c-0.8,0.9-1.7,1.1-2.7,0.7c0.1-0.8,0.3-1.7,0.5-2.5
		c-0.5-0.3-1.7-1-2.2-1.4C36,56.9,38.1,58.7,39.4,59.8z"/>
	<path class="st2" d="M205.4,67.5c1.1-3.7-3.9-9,0.7-11.2c3.3,0.4,5.2,4,6.2,6.9c-0.3,0.5-1,1.4-1.4,1.9c-1.2-2.6-2.4-5.4-4.9-6.9
		c-0.2,3.4,3.3,7.4,0.6,10.4c-2.1,2.2-4.8-0.2-6-2.1c-1.2-1.5-3.5-4.8-0.4-5.5C201.1,63.6,202.6,66.3,205.4,67.5z"/>
	<path class="st2" d="M29.3,76.1c1.8-2.3,2.6-7.7,6.5-6.6c-0.7,2.5-3.6,4.2-4.4,6.9c3.5,0.3,5.1-4.7,8.7-4.2c2.4,0,3.3,3.2,2.1,4.9
		c-1.2,2-2.4,5.7-5.4,4.9c0-2.8,4.5-4.4,3.8-7.8c-3.4-0.3-5.2,4-8.5,4.4C30.6,78.6,30.1,77,29.3,76.1z"/>
	<path class="st2" d="M220.3,85.2c0.8-2,3.8-2,4.7-0.1c0.9,2.2,2.4,4.5,1.8,6.9c-0.1,1.5-2.8,0.7-2-0.8c0-2.2-1-4.2-2.2-6
		c-0.8,2.7-0.5,5.6-0.9,8.4c-0.6,2.5-4.7,2.9-5.7,0.4c-1.2-2.5-3-5.6-1.1-8.2c2.4,2.1,1,6.5,4.1,8.3
		C220.4,91.3,219.4,88.1,220.3,85.2z"/>
	<path class="st2" d="M189.9,205.1c1-0.8,2-1.7,3-2.5c0.9,0.9,1.9,1.9,2.8,2.8c-1.1,1-1.9,2.8-3.6,2.6
		C190.9,207.3,190.5,206.1,189.9,205.1z"/>
</g>
<g id="_x23_f9f8ffff">
	<path class="st3" d="M88.9,18.3c0.9-0.4,1.8-0.9,2.8-1.3c0.4,0.9,0.8,1.8,1.2,2.7C91.2,21.3,89.4,20.4,88.9,18.3z"/>
	<path class="st3" d="M200.1,43.2c1-2,2.7-0.2,3.7,0.8c-0.8,0.7-1.6,1.4-2.4,2C201,45.1,198.8,44.3,200.1,43.2z"/>
	<path class="st3" d="M144.3,214.4c1.2-0.1,2.4-0.2,3.6-0.3c-0.2,1.2,0.5,3.3-1.4,3.2C144.6,218,144.5,215.6,144.3,214.4z"/>
	<path class="st3" d="M143.7,222.6c-1-3.1,3.4-2.8,5.4-2.9c0.6,3.3,1.4,6.5,2,9.8c1.3-0.1,2.6-0.2,3.8-0.3c-0.1,0.5-0.4,1.4-0.5,1.9
		c-2.7,1-5.5,1.4-8.3,1.8c-0.6-2.1,1.2-2.4,2.8-2.8c-0.6-2.6-1.2-5.3-1.7-7.9C146,222.3,144.8,222.5,143.7,222.6z"/>
</g>
<g id="_x23_fffdffff">
	<path class="st4" d="M137,18.2c1.6,0.5,4.6-0.6,5.1,1.5c-0.3,2.8-0.7,5.7-1.1,8.5c1.3,0.4,3.4,0.2,3.2,2.3
		c-2.7,0.1-5.4-0.1-8.1-0.8c-0.1-0.4-0.4-1.2-0.5-1.6c4.9,1.4,3.6-4.8,4.2-7.6C138,20.6,136.7,20.2,137,18.2z"/>
	<path class="st4" d="M196.7,192c0.6-3.5,4-5.9,7.5-5.6c2.2,2.3,6.2,3.9,5.6,7.7c-0.5,3.6-5.1,7.3-8.5,4.7
		C199.2,197.1,196,195.1,196.7,192 M199.1,192c-0.4,2.6,2.3,3.8,4,5.2c2.7,0.7,5-2.6,4.4-5.1c-1.4-1.1-2.8-2.4-4.3-3.4
		C201.2,188.6,199.6,190.3,199.1,192z"/>
	<path class="st4" d="M114.2,221.3c0-1.5,0.3-2.9,1.5-4c1.2,1.2,0.8,3,0.9,4.5c2,0.6,5.6-0.7,5.6,2.5c-1.9,0.1-3.9,0-5.8-0.1
		c-0.2,2.7-0.5,5.4-0.7,8.2c2.4,0.8,4.6,0,6.3-1.9c0.8,1.5,0.3,3.5-1.4,4.1c-1.9,0.7-3.9,0-5.8-0.2c-0.3-0.6-1-1.6-1.4-2.2
		c0.2-2.7,0.3-5.4,0.4-8.1c-0.6-0.3-1.9-0.8-2.6-1.1C112.2,222.1,113.1,221.6,114.2,221.3z"/>
	<path class="st4" d="M98.2,219.2c1.7-0.7,3.6,0.2,5.2,0.8c0.2,3.4-1.4,6.8-1.9,10.2c1,0.3,4.7,0.9,2.6,2.8
		c-2.7-0.3-5.5-0.8-8.1-1.9c-2-2.2,2.2-1.7,3.3-1.5c0.6-2.6,1.2-5.3,1.7-7.9C99.7,221.2,97.5,221.2,98.2,219.2z"/>
</g>
<g id="_x23_fffeffff">
	<path class="st5" d="M75.4,30.9c2.2-2.6,1.7-7.8,5.4-8.6c-0.4,3.8-2.7,7-3.8,10.6c3.4,0.9,7.3,1,10.3,2.9l-0.1,0.9
		c-3.1,0.9-6.5-1.3-9.7-1.5c1,1.8,2,3.6,2.5,5.7c-0.5,0-1.4-0.2-1.8-0.2c-2.5-4.7-5.5-9.3-7-14.4C73.9,26.1,74.2,29.2,75.4,30.9z"/>
	<path class="st5" d="M47.1,186c0.3-1.5,2.1-0.2,2.8,0.3c0.6-0.5,1.8-1.5,2.4-2c3.2,0.3,0.2,3.1-1.1,3.8c1.1,1.8,5.1,3.8,1.9,5.7
		c-1.2-1.4-2.4-2.8-3.6-4.2c-2.1,1.8-4.2,3.6-6.2,5.5c1.2,1.4,2.4,3.4,4.6,2.7c1.6,0.2,0.3,2.4-0.7,2.4c-3.1,0.4-6.5-3.3-5.6-6.4
		c1.6-2.3,4.1-3.8,6.2-5.7C47.7,187.6,47.3,186.6,47.1,186z"/>
	<path class="st5" d="M69.3,207.6c3.9-1.5,9.4,1.9,8.4,6.4c-0.8,1.9-1.8,3.8-3.2,5.4c-2.7,2.2-6.3,0.5-8.4-1.6
		C63.7,214.2,66.6,209.9,69.3,207.6 M70,209.8c-1.1,1.6-2.3,3.2-2.8,5.2c0.5,1.8,2.3,2.6,3.8,3.4c2.8-0.2,3.6-3.2,4.6-5.3
		C75.7,210.4,72.3,208.6,70,209.8z"/>
	<path class="st5" d="M85.1,208.7c3.5,0.4-0.1,4.8-0.5,6.7c3.3-1.1,6.5-2.6,9.9-3.2c0.3,0.4,0.8,1.2,1,1.7
		c-3.7,1.5-7.4,2.7-11.2,3.8c1.8,3.4,3.6,6.8,5.3,10.3c-0.4,0.3-1.1,0.8-1.5,1.1c-2.3-2.8-3.4-6.2-5.2-9.2c-1.2,1.6-1.2,6.5-4.1,5.3
		C79.9,219.5,82.8,214.1,85.1,208.7z"/>
</g>
<g id="_x23_fdfcffff">
	<path class="st6" d="M89,25.1c-0.1-2.3,2.7-2.1,4.2-3c1.9,2.8,2.4,6.2,3.6,9.2c1.1-1.2,5.1-0.4,2.6,1.1c-2.3,1.1-4.8,1.8-7.3,2.3
		c-0.1-1.6,0.9-2.6,2.5-2.7c-0.7-2.5-1.5-4.9-2.4-7.3C91.5,24.8,89.8,25,89,25.1z"/>
	<path class="st6" d="M20,85.3c5.5,0.1,11.1,0.8,16.6,1.4c1.3,2.6-2.5,1.7-3.9,1.8c-0.5,1.4-1,2.8-1.5,4.1c1,0.8,2,1.7,3,2.5
		L33,96.4c-4.5-2.8-8.6-6.2-12.6-9.6L20,85.3 M24.9,87.6c1.4,1.3,2.9,2.5,4.3,3.7c0.5-1,1.1-1.9,1.6-2.9
		C28.9,88,26.9,87.7,24.9,87.6z"/>
	<path class="st6" d="M216.2,158.6c3.1-0.1,5.6,1.9,8.4,2.9c2.5,1.4,6.5,1.8,6.8,5.3c0.1,2.9-1.4,5.9-3.5,7.9
		c-1.6-2.4,0.7-4.7,1.6-6.8c-0.5-1.5-1.5-2.6-3-3.1c0.5,2.3-0.2,5-2.1,6.5c-2.9,2.3-6.3-0.5-9.1-1.7c-3.1-2.4-1.4-7,1.5-8.8
		C216.6,160.3,216.3,159.2,216.2,158.6 M216.8,163.8c-0.3,0.6-0.8,1.9-1.1,2.5c1.3,2.4,4.2,2.9,6.4,4.1c2.5-1.5,2.9-4.3,1.5-6.8
		c-1.2-0.5-2.3-1-3.5-1.6C219,162.6,217.9,163.2,216.8,163.8z"/>
	<path class="st6" d="M173.4,209.5c2.3-1.4,4.9-3.8,7.7-2.7c0.9,0.7,0.2,2.5-1.1,2c-2.4,0.3-4.5,1.8-6.3,3.4
		c3.7,1.1,8.3-2.3,11.2,0.9c2.1,2.9-1.1,5.4-3.5,6.6c-1.8,1.1-5.4,2.4-5.8-0.7c2.8-0.1,5.2-1.5,7.5-2.9c0.1-0.4,0.2-1.2,0.3-1.6
		c-3.2-0.6-6.4,0.4-9.6,0.2C171.8,213.9,171.4,210.5,173.4,209.5z"/>
	<path class="st6" d="M129.4,218.3c0.5,0,1.5,0.1,2,0.1c0.1,1.2,0.2,2.3,0.3,3.5c1.8,0.3,5.4-1.5,5.9,1.2c-1.6,1.3-3.8,0.9-5.8,1.2
		c0.2,2.8,0.4,5.5,0.8,8.3c0.9-0.1,2.7-0.2,3.6-0.2c0.7-0.8,1-2.4,2.4-2.1c1.4,1.4-0.1,3.2-1.4,4.1c-1.7,0.4-3.5,0.3-5.2,0.3
		c-0.6-0.7-1.1-1.3-1.7-1.9c-0.4-2.7-0.6-5.4-0.6-8.1c-0.6-0.4-2-1.3-2.6-1.7C129.7,222.7,129.4,220.3,129.4,218.3z"/>
</g>
<g id="_x23_16151bff">
	<path class="st7" d="M153.3,26.4c-0.7-2.9,3.3-2.4,5.1-1.8c0.5,1.3,1.9,2.9,0.1,3.9C156.7,27.8,155,27.2,153.3,26.4z"/>
</g>
<g id="_x23_15141cff">
	<path class="st8" d="M185.6,33.1c1.5,1.1,3,2.2,4.5,3.2c-0.4,1-0.8,2-1.2,2.9c-1.8-1.1-3.6-2.3-5.3-3.5
		C184.3,34.9,184.9,34,185.6,33.1z"/>
</g>
<g id="_x23_bdc0c3ff">
	<path class="st9" d="M130.4,39.5c-1.4-1.2,0.6-4.3,1.9-2.3C133.7,38.5,131.8,40.8,130.4,39.5z"/>
	<path class="st9" d="M88.5,173.4c12,10.8,28.8,15.7,44.7,13.2c10.6-1.4,20.5-6.3,28.7-13.1c0.4,6.9-5.6,11.7-11.5,13.9
		c-12.8,4.9-27,5.3-40.3,3c-6.8-1.4-13.9-3.5-18.8-8.7C89.1,179.5,88.4,176.4,88.5,173.4z"/>
</g>
<g id="_x23_13121eff">
	<path class="st10" d="M63.6,39.5c1.1-1.3,2.5-2.5,4.3-1.8c1.3,1.5,3.1,3.1,3,5.3c-1,1.7-2.8,2.8-4.8,2.6
		C65.1,43.7,62.3,41.9,63.6,39.5z"/>
</g>
<g id="_x23_7d8e78ff">
	<path class="st11" d="M106.2,43c0.8-0.7,1.6-1.4,2.5-2.1c0.4,0.5,1.2,1.5,1.5,2.1c-0.4,0.7-1.2,2-1.6,2.7
		C107.8,44.8,107,43.9,106.2,43z"/>
</g>
<g id="_x23_999c98ff">
	<path class="st12" d="M94.4,48.4c1.5-1.1,2.8,1.7,1.5,2.6C94.3,52.2,93.1,49.4,94.4,48.4z"/>
	<path class="st12" d="M156.2,49.6c1.5-1.1,2.8,1.5,1.6,2.5C156.3,53.3,154.8,50.5,156.2,49.6z"/>
	<path class="st12" d="M199.7,123.8c1.3,0,2.6,0,3.9,0c-0.3,4.4-0.8,8.8-2.2,12.9c-0.9,1.2-2.9,0.9-4.3,1.2
		C198.7,133.3,199.2,128.6,199.7,123.8z"/>
	<path class="st12" d="M60.4,173.3c0.7,0.7,1.5,1.5,2.2,2.2c-0.7,0.8-1.4,1.6-2.1,2.4c-0.5-0.8-1-1.6-1.5-2.5
		C59.4,174.9,60.1,173.8,60.4,173.3z"/>
	<path class="st12" d="M183.5,180.3c0.8,0.9,1.5,1.8,2.2,2.7c-0.8,0.7-1.7,1.3-2.5,2C182.1,183.4,182,181.7,183.5,180.3z"/>
</g>
<g id="_x23_9e9e9aff">
	<path class="st13" d="M78.3,49.4c1.5-1.2,3.1,1.3,1.6,2.3C78.4,53,76.8,50.4,78.3,49.4z"/>
	<path class="st13" d="M46.5,123.6c2.1-0.4,3.6,0.5,4.2,2.5c0.6,4,1.2,8,2.2,11.9c-1.4-0.3-2.7-0.5-4.1-0.8
		C47.6,132.8,46.7,128.2,46.5,123.6z"/>
	<path class="st13" d="M47.2,151.4c1.4-1.2,3.2,1.3,1.7,2.3C47.5,154.9,45.7,152.4,47.2,151.4z"/>
</g>
<g id="_x23_0e2d10ff">
	<path class="st14" d="M111.9,50c23.4-3.3,48.9,2.2,66.9,18.1c2.1,1.8,5,3.4,4.9,6.6C172.2,63.1,157.2,55,141,52.1
		c-23.7-4.5-49.4,1.3-68.1,16.8C64,76.2,56.9,85.7,52.3,96.3c-3.1,0.6-6.1,1.2-9.2,1.9c-5.5,14.5-5.3,30.9,0,45.5
		c3.1,0.6,6.2,1.2,9.2,1.8c5.1,12.2,13.8,22.9,24.6,30.6c1.9,1.4,4.3,2.4,5.1,4.9c2.8,7.5,10.2,11.8,17.4,14.4
		c11.6,4,24.1,4.6,36.3,3.3c9.9-1.3,20.5-3.8,27.9-11c2.7-2.3,3.7-5.7,5.4-8.6c2.5-2.2,5.5-3.8,8.1-6c8.9-7.4,16.2-16.8,20.6-27.5
		c3.1-0.7,6.2-1.3,9.3-1.8c5.4-14.6,5.7-31.2,0-45.7c-3.1-0.5-6.1-1.1-9.2-1.8c-3.3-8-8.2-15.2-14-21.6c4.9,0.7,6.7,5.8,9.4,9.2
		c2.5,3.1,3.8,6.9,5.7,10.3c2.7,2,6.7,1.3,9.3,3.6c4,6.3,4.1,14,4.8,21.2c-0.6,7.6-0.3,15.5-3.3,22.6c-0.8,2.1-2.5,3.6-4.1,5.1
		c-1.4,1.7-3.7,0-5.5,0.1c-3.3,2.4-4.2,6.8-4.4,10.7c-0.5-0.1-1.4-0.4-1.8-0.5c-2.9,3.1-4.7,7.1-7.9,9.9c-4.7,4.3-9.1,8.9-14.3,12.6
		c-3.7,2.8-4.2,8.3-8.2,10.8c-6.6,4.2-13.7,7.9-21.5,9.2c-8.6,1.2-17.2,1.8-25.9,0.7c-7.2,0-14-2.7-20.8-4.6
		c-3.6-0.9-6.1-3.9-8.9-6.1c-2.9-2.3-5.1-5.4-6.1-9c-1.4-0.6-2.8-1.1-4.1-1.7c-1.8-2.8-4.6-4.8-6.7-7.3c-1-1.2-2.4-1.9-3.8-2.5
		c-3.8-5.1-7.8-10-10.9-15.6c-1.2-2.1-1.7-4.9-4-6.2c-3-1-6.1-1.6-9-3c-4.5-12.2-5.4-25.7-2.8-38.4c0.9-3.6,1.8-7.8,5.2-9.8
		c2-1,4.4-1.1,6.6-1.5c3.7-5.9,7.1-12,11-17.8c6.9-5.8,13.5-11.9,20.7-17.3c2.2-1.5,4.9-1.7,7.2-2.8C96.4,52.7,104.4,51.8,111.9,50z
		"/>
</g>
<g id="_x23_73c35eff">
	<path class="st15" d="M73,68.9c18.6-15.5,44.4-21.3,68.1-16.8c16.1,2.9,31.1,11,42.7,22.6l0,0c5.8,6.4,10.7,13.6,14,21.6
		c3.1,0.7,6.1,1.3,9.2,1.8c5.7,14.6,5.5,31.1,0,45.7c-3.1,0.5-6.2,1.1-9.3,1.8c-4.4,10.7-11.7,20.2-20.6,27.5
		c-2.5,2.2-5.6,3.7-8.1,6c-1.7,2.9-2.8,6.3-5.4,8.6c-7.5,7.1-18,9.7-27.9,11c-12.1,1.3-24.7,0.7-36.3-3.3
		c-7.2-2.6-14.6-6.9-17.4-14.4c-0.8-2.4-3.2-3.5-5.1-4.9c-10.8-7.7-19.5-18.3-24.6-30.6c-3.1-0.6-6.1-1.2-9.2-1.8
		c-5.3-14.6-5.5-31,0-45.5c3.1-0.6,6.1-1.2,9.2-1.9C56.9,85.7,64,76.2,73,68.9 M64.7,81.2v0.4c-4.6,4.8-7.6,11-10.2,17.1
		c-3.1,0.9-6.5,1-9.5,2.3c-0.1,0.7-0.4,2-0.5,2.7l-0.2,0.1c-3.6,12.3-3.3,25.7,1.2,37.8c3,0.6,6.2,0.6,9,2
		c5.7,14.1,16.3,26,29.4,33.8c1.9,9,10.8,13.9,19,16.2c14.2,4.1,29.5,4,43.7,0.2c8.1-2.3,17.1-6.8,19.5-15.6c2.2-3,6.2-4.4,8.9-7
		c9.1-7.2,16.2-16.9,20.6-27.6c2.7-1.7,6.4-1.4,9.4-2.4c4.3-13.1,4.5-27.3,0-40.3c-3-0.8-6-1.2-9-1.9c-1.1-1.3-1.5-3-2.2-4.5
		c-7.3-15.3-20.6-27.3-36-34c-14.9-6.6-31.8-8.3-47.7-5.4C92.5,58.1,75.9,67.3,64.7,81.2z"/>
	<path class="st15" d="M48.9,84.6c0.5-0.5,1.6-1.4,2.1-1.8c0.5,0.5,1.4,1.4,1.9,1.8c-0.6,0.9-1.2,1.7-1.9,2.6
		C50.3,86.3,49.6,85.4,48.9,84.6z"/>
</g>
<g id="_x23_6b9373ff">
	<path class="st16" d="M172.5,56.2c0.7-0.7,1.5-1.4,2.2-2.1c0.4,0.5,1.3,1.6,1.8,2.1c-0.7,0.9-1.3,1.7-2,2.6
		C173.8,57.9,173.1,57,172.5,56.2z"/>
</g>
<g id="_x23_111524ff">
	<path class="st17" d="M64.7,81.2C75.9,67.3,92.5,58.1,110,54.8c16-2.9,32.9-1.2,47.7,5.4c15.4,6.7,28.8,18.7,36,34
		c0.8,1.5,1.2,3.2,2.2,4.5c3,0.8,6,1.1,9,1.9c4.5,13,4.3,27.3,0,40.3c-3.1,1.1-6.8,0.8-9.4,2.4c-4.5,10.7-11.5,20.4-20.6,27.6
		c-2.7,2.6-6.7,4-8.9,7c-2.4,8.8-11.4,13.3-19.5,15.6c-14.2,3.8-29.5,3.9-43.7-0.2c-8.1-2.4-17-7.3-19-16.2
		c-13.1-7.8-23.7-19.7-29.4-33.8c-2.8-1.3-6-1.4-9-2c-4.5-12-4.8-25.5-1.2-37.8l0.2-0.1c4-1,7.7-2.9,11.6-4.4
		c1.3-3.5,2.7-7.1,5-10.1c1.6-2.3,4.2-4.4,3.6-7.5V81.2 M92.3,65.4c-15,7.1-27.8,19.7-33.6,35.5c-5,13.1-4.8,28,0.3,41
		c4.9,12.3,14,22.9,25.1,30c0.6-3-1.8-4.9-3.3-7.1c3.7,2.4,7,5.5,11.2,6.8c3.3,2.1,6.8,4,10.4,5.6c6.4,3.9,14.1,5.2,21.5,5.6
		c8-0.1,16.4-1.1,23.3-5.4c3.3-1.3,6.4-3.2,9.5-4.9c4.6-1.7,8.5-4.9,12.5-7.7c-1.5,2.2-3.8,4.2-3,7.1c11.5-7.8,21-18.8,25.6-32
		c5.1-14,4.2-30-2.3-43.4c-7.5-15.9-22-28-38.5-33.8C132.2,55.8,110.6,56.8,92.3,65.4 M48.8,104.7c-1.8,6.1-2.5,12.5-2.4,18.9
		c0.2,4.6,1.1,9.2,2.3,13.6c1.4,0.3,2.7,0.5,4.1,0.8c-1-3.9-1.6-7.9-2.2-11.9c-0.7-7.5,0.3-15,2.1-22.2
		C51.5,104.1,50.2,104.4,48.8,104.7 M197.4,103.8c1.7,6.5,2.6,13.3,2.3,20c-0.6,4.7-1.1,9.5-2.5,14.1c1.4-0.3,3.3,0.1,4.3-1.2
		c1.4-4.1,1.9-8.5,2.2-12.9c0.3-6.5-0.5-12.9-2.3-19.1C200.1,104.4,198.7,104.1,197.4,103.8 M88.5,173.4c-0.1,3,0.7,6.1,2.8,8.3
		c4.8,5.2,12,7.3,18.8,8.7c13.4,2.4,27.6,1.9,40.3-3c5.9-2.2,11.8-7,11.5-13.9c-8.2,6.8-18.1,11.8-28.7,13.1
		C117.3,189.1,100.4,184.1,88.5,173.4z"/>
	<path class="st17" d="M70.1,88.6c1.1-3.3,3.3-6.4,6.8-7.4l0.8-0.3C75,83.3,73,86.4,70.1,88.6z"/>
</g>
<g id="_x23_c9e9efff">
	<path class="st18" d="M92.3,65.4c18.2-8.6,39.9-9.6,58.8-2.8c16.5,5.8,30.9,17.9,38.5,33.8c6.5,13.4,7.4,29.4,2.3,43.4
		c-4.5,13.2-14.1,24.2-25.6,32c-0.8-2.9,1.5-5,3-7.1c1.5-2.3,2.7-4.8,4-7.2c6.7-12.7,5.8-28.4-0.1-41.3c3-3.8,5.1-8.2,6.3-12.9
		c5.3,4.6,7.6,11.5,10.2,17.8c2-11.5-4.1-22.2-9.1-32.1c-1.6-3.6-3.8-7.2-7.9-8.2c-0.4-0.1-1.2-0.3-1.6-0.4c-2-2.8-4.6-5.3-7.7-6.9
		c-18.3-12.1-42.3-13.9-62.8-6.9c-8.1,3.5-16.1,7.7-22.3,13.9c-0.4,0.2-1.1,0.5-1.5,0.7c-3.5,1-5.7,4.1-6.8,7.4
		c-0.3,0.9-0.5,1.8-0.6,2.8c-4.4,4.9-6.6,11.4-8.2,17.8c-1,3.6-1.3,7.4-1.1,11.2c3.4-5.4,5.2-12,10.1-16.5l0.5-0.5
		c1.4,4.6,3.4,9.1,6.4,12.9c-5.5,11.9-6.4,25.9-1.6,38.1c-1.4,0-2.8,0.1-4.1,0.2c2,2.6,4.1,5.2,6.1,7.8c0.5,0,1.4-0.1,1.9-0.1
		c0.5,0.9,1.1,1.7,1.7,2.5c1.5,2.2,3.9,4.1,3.3,7.1c-11.2-7.1-20.2-17.6-25.1-30c-5.1-13-5.3-27.9-0.3-41
		C64.5,85.1,77.3,72.6,92.3,65.4z"/>
</g>
<g id="_x23_e9f7f8ff">
	<path class="st19" d="M100.6,66.5c20.5-6.9,44.5-5.2,62.8,6.9c3.1,1.6,5.6,4.1,7.7,6.9c-5.4-0.5-10.9,0.8-15.7,3.2l-0.8,0.6
		c-3.6-2.8-7.8-4.3-12.2-5.1c0.6,3.4,1,6.9-0.2,10.2c-5.7-0.7-11.4-2-17.2-1.9c-5.7-0.1-11.3,1.1-16.9,1.8
		c-1.1-3.3-1.1-6.9,0.4-10.1C103.8,80.1,99,81,95.2,84l-0.5-0.3c-5-2.7-10.8-3.7-16.4-3.2C84.6,74.2,92.6,70,100.6,66.5z"/>
</g>
<g id="_x23_7a8e89ff">
	<path class="st20" d="M185.2,68c1.6-0.5,2.1,0.1,1.6,1.8C185.2,70.3,184.7,69.7,185.2,68z"/>
</g>
<g id="_x23_bcbfbbff">
	<path class="st21" d="M57.5,70c1.4-1.8,3.3,1.2,1.9,2.4C58,73.8,56.3,71.2,57.5,70z"/>
	<path class="st21" d="M197.4,103.8c1.3,0.3,2.6,0.6,3.9,0.9c1.8,6.2,2.6,12.7,2.3,19.1c-1.3,0-2.6,0-3.9,0
		C200,117.1,199.1,110.3,197.4,103.8z"/>
	<path class="st21" d="M93.2,198.2c1.8-0.5,2.3,2.4,0.7,2.8C92.2,201.5,91.5,198.6,93.2,198.2z"/>
</g>
<g id="_x23_121119ff">
	<path class="st22" d="M213.2,72.5c3.1-2.4,6.5,3.2,3.7,5.4C214.7,77.2,214,74.4,213.2,72.5z"/>
</g>
<g id="_x23_c9e7efff">
	<path class="st23" d="M95.2,84c3.8-2.9,8.6-3.9,13.3-4.8c-1.5,3.2-1.5,6.8-0.4,10.1l0.2,0.4c-1.5,0.5-3,1.1-4.5,1.7
		C101.2,88.7,98.3,86.1,95.2,84z"/>
</g>
<g id="_x23_cbe8f0ff">
	<path class="st24" d="M142.3,79.2c4.4,0.8,8.7,2.3,12.2,5.1c-3,2.1-5.6,4.6-8.2,7.1c-1.5-0.6-3.1-1.2-4.6-1.7l0.3-0.3
		C143.4,86,143,82.5,142.3,79.2z"/>
</g>
<g id="_x23_a4a4adff">
	<path class="st25" d="M76.8,81.2c0.4-0.2,1.1-0.5,1.5-0.7c5.6-0.5,11.4,0.5,16.4,3.2c-2,1-4,2.1-6,3.1c-3.5-1.1-7.7-2.1-11,0.1
		c-3.2,2.3-2.8,6.8-2.8,10.3l0,0.3c-1.7,1.8-3.6,3.5-4.3,5.9l-0.5,0.5c-0.2-4.2-0.7-8.3-0.7-12.4c0.2-0.9,0.3-1.9,0.6-2.8
		c2.9-2.2,5-5.2,7.6-7.8L76.8,81.2z"/>
</g>
<g id="_x23_a2a5aaff">
	<path class="st26" d="M155.4,83.7c4.8-2.4,10.3-3.7,15.7-3.2c0.4,0.1,1.2,0.3,1.6,0.4c2.5,2.7,5,5.5,7.4,8.2
		c0.1,3.3,0.1,6.7,0.1,10c-0.1,0.8-0.4,2.4-0.5,3.2c-1.5-1.6-2.9-3.1-4.4-4.7l0.1-0.7c0-3.5,0.1-8-3-10.3c-3.3-1.9-7.4-1-10.8,0.1
		C159.5,85.7,157.5,84.7,155.4,83.7z"/>
	<path class="st26" d="M164.3,198.5c1.5-1.1,3.2,1.3,1.7,2.3C164.6,201.9,162.8,199.4,164.3,198.5z"/>
</g>
<g id="_x23_1a1221ff">
	<path class="st27" d="M172.7,80.8c4.1,1,6.4,4.6,7.9,8.2c0.1,3.4,0.2,6.8-0.4,10.1c-0.1-3.3,0-6.7-0.1-10
		C177.7,86.3,175.3,83.5,172.7,80.8z"/>
	<path class="st27" d="M108.2,136.8c-1.6-2.3,1.1-4.4,2.9-5.4c2.1,0.7,4.6,2.5,3.5,5C113.8,139.3,109.2,139.7,108.2,136.8z"/>
</g>
<g id="_x23_0f2f0fff">
	<path class="st28" d="M64.7,81.6c0.6,3.1-2,5.2-3.6,7.5c-2.3,3-3.6,6.6-5,10.1c-3.8,1.5-7.5,3.4-11.6,4.4c0.1-0.7,0.4-2,0.5-2.7
		c3-1.3,6.3-1.3,9.5-2.3C57.1,92.6,60.1,86.4,64.7,81.6z"/>
</g>
<g id="_x23_151525ff">
	<path class="st29" d="M88.7,86.8c2-1,4-2.1,6-3.1l0.5,0.3c3.2,2.1,6,4.7,8.6,7.4c1.5-0.6,3-1.2,4.5-1.7c2.1,0.7,4,1.9,5.8,3.2
		c-1.4,0.4-2.8,0.8-4.2,1.2c-6.5,1.8-12.5,5.1-17.7,9.4c0.7-3,2.5-5.5,4.7-7.5c0.8-0.7,1.7-1.5,2.6-2.2
		C96.2,90.9,92.7,88.4,88.7,86.8z"/>
</g>
<g id="_x23_121325ff">
	<path class="st30" d="M154.6,84.2l0.8-0.6c2.1,1,4.1,2,6.1,3.1c-4,1.7-7.5,4.1-10.7,7.1c0.5,0.5,1.6,1.4,2.2,1.9
		c2.2,2.1,4.5,4.6,4.8,7.8c-6.2-5.5-14-9-22.1-10.6c1.9-1.2,4-2.3,6.1-3.3c1.5,0.5,3.1,1.1,4.6,1.7C149,88.8,151.6,86.3,154.6,84.2z
		"/>
</g>
<g id="_x23_72956aff">
	<path class="st31" d="M199.2,87c0.8-0.8,1.5-1.7,2.3-2.5c0.4,0.6,1.2,1.9,1.6,2.6c-0.4,0.6-1.3,1.9-1.7,2.5
		C200.7,88.7,200,87.8,199.2,87z"/>
</g>
<g id="_x23_e9ebebff">
	<path class="st32" d="M77.8,86.8c3.3-2.1,7.5-1.2,11-0.1c4,1.7,7.5,4.2,10.7,7c-0.9,0.7-1.7,1.4-2.6,2.2c-3.4-3-7-6.5-11.8-6.8
		c-3.9,1.8-6.8,5.3-10.2,7.9C75,93.6,74.6,89.2,77.8,86.8z"/>
</g>
<g id="_x23_e7e8eaff">
	<path class="st33" d="M161.6,86.7c3.4-1.1,7.5-2,10.8-0.1c3.2,2.3,3.1,6.8,3,10.3c-3.7-2.3-6.5-6-10.5-7.7
		c-4.7,0.2-8.1,4.1-11.9,6.5c-0.5-0.5-1.6-1.4-2.2-1.9C154,90.9,157.6,88.4,161.6,86.7z"/>
</g>
<g id="_x23_0e0c17ff">
	<path class="st34" d="M24.9,87.6c2,0.1,3.9,0.4,5.9,0.8c-0.5,1-1,1.9-1.6,2.9C27.8,90.1,26.3,88.9,24.9,87.6z"/>
	<path class="st34" d="M29,164.5c2.1-0.3,4.1-0.6,6.2-1c-1.4,1.6-3.2,3-5,4.2C29.8,166.7,29.4,165.6,29,164.5z"/>
	<path class="st34" d="M163.6,216.7c1.6-0.7,3.1,0.6,3.9,1.9c-1.7,1.7-4.4,2.1-6.6,2.8C159.6,219.2,161.5,217.1,163.6,216.7z"/>
</g>
<g id="_x23_a3a6adff">
	<path class="st35" d="M108.1,89.3c5.6-0.7,11.2-1.9,16.9-1.8c5.8-0.1,11.4,1.2,17.2,1.9l-0.3,0.3c-2.1,0.9-4.1,2-6.1,3.3
		c-8.6-1.9-17.4-1.1-25.8,1.1c1.4-0.4,2.8-0.8,4.2-1.2c-1.8-1.3-3.7-2.4-5.8-3.2L108.1,89.3z"/>
</g>
<g id="_x23_bebfc1ff">
	<path class="st36" d="M74.9,97.1c3.4-2.7,6.2-6.1,10.2-7.9c4.7,0.2,8.4,3.8,11.8,6.8c-2.2,2.1-4,4.6-4.7,7.5
		c-3.2,3.5-6.8,6.5-9.3,10.6c-4.9-4.2-7-10.5-7.9-16.7L74.9,97.1z"/>
	<path class="st36" d="M153,95.7c3.8-2.4,7.1-6.3,11.9-6.5c4,1.7,6.8,5.4,10.5,7.7l-0.1,0.7c-1,6.1-3.2,12.1-7.6,16.5
		c7.2,13.7,8.1,31.3-0.2,44.9c-0.5,0.3-1.4,0.8-1.9,1.1c0,0.7,0.1,1.4,0.1,2.2l0,0c-1.7,0.1-3.5,0.3-5.1,1.1c-2.3,1.1-4.7,2-7.2,2
		c7.3-7.4,11.5-18.1,9.4-28.5c-1.6-9.9-8.7-18-17.2-23c0-0.4,0-1.1,0-1.5c-16-9.6-39-7.6-51.7,6.6c-7.5,7.8-10.2,19.5-7.6,29.9
		c0.4,1.3,1.5,2.2,2.2,3.3c2.1,4.6,4.5,9.1,8,12.8c-4.2,0.4-7.7-3-12-2.9c-0.2-0.3-0.6-0.8-0.8-1.1c-5.8-9.2-8.4-20.5-6.3-31.2
		c0.9-4.3,1.4-8.8,3.6-12.6c3-1.8,4.3-5,6.7-7.4c9.8-10.1,24.1-15.7,38.2-15.2c11.9-0.4,23.7,4.1,32.8,11.6c3.3,2.6,5.6,6.1,8.4,9.2
		c-1.8-4.8-5.8-8.4-9.5-11.8C157.5,100.3,155.2,97.8,153,95.7z"/>
</g>
<g id="_x23_e7f8fdff">
	<path class="st37" d="M180.6,89c5,9.9,11.1,20.6,9.1,32.1c-2.6-6.3-4.9-13.3-10.2-17.8c0.1-0.2,0.2-0.8,0.2-1
		c0.1-0.8,0.4-2.4,0.5-3.2C180.9,95.8,180.7,92.4,180.6,89z"/>
</g>
<g id="_x23_e7f7fcff">
	<path class="st38" d="M61.2,109.2c1.6-6.3,3.8-12.8,8.2-17.8c0,4.2,0.6,8.3,0.7,12.4c-4.8,4.5-6.6,11.1-10.1,16.5
		C59.9,116.6,60.2,112.8,61.2,109.2z"/>
</g>
<g id="_x23_f8f9fdff">
	<path class="st39" d="M109.9,94c8.4-2.2,17.3-3,25.8-1.1c8.1,1.6,15.9,5.1,22.1,10.6c3.7,3.5,7.6,7,9.5,11.8
		c-2.8-3.1-5.2-6.6-8.4-9.2c-9.2-7.4-20.9-12-32.8-11.6c-14.1-0.5-28.4,5.1-38.2,15.2c-2.4,2.4-3.8,5.6-6.7,7.4
		c0.6-1.1,1.1-2.1,1.8-3.1c2.5-4.1,6.2-7.1,9.3-10.6C97.4,99.2,103.4,95.9,109.9,94z"/>
</g>
<g id="_x23_111424ff">
	<path class="st40" d="M70.6,103.3c0.8-2.4,2.7-4.1,4.3-5.9c0.9,6.2,2.9,12.5,7.9,16.7c-0.6,1-1.2,2.1-1.8,3.1
		c-2.2,3.9-2.8,8.4-3.6,12.6c-2.1,10.7,0.6,22,6.3,31.2c-2.2-1.4-4.6-2.5-6.9-3.7c-0.5-1-1-2-1.5-3c-4.9-12.3-3.9-26.3,1.6-38.1
		C74.1,112.4,72,108,70.6,103.3z"/>
</g>
<g id="_x23_111323ff">
	<path class="st41" d="M175.3,97.6c1.5,1.5,2.9,3.1,4.4,4.7c-0.1,0.3-0.2,0.8-0.2,1c-1.2,4.7-3.3,9.1-6.3,12.9
		c5.8,12.9,6.7,28.5,0.1,41.3c-2.1,1-4.2,2.1-6.2,3.3c0.1-0.4,0.4-1.3,0.5-1.7c8.2-13.5,7.3-31.1,0.2-44.9
		C172.1,109.7,174.3,103.7,175.3,97.6z"/>
</g>
<g id="_x23_bfc2c4ff">
	<path class="st42" d="M48.8,104.7c1.3-0.3,2.6-0.6,4-0.9c-1.8,7.2-2.8,14.8-2.1,22.2c-0.6-2-2.2-2.9-4.2-2.5
		C46.3,117.2,47.1,110.9,48.8,104.7z"/>
</g>
<g id="_x23_6cc145ff">
	<path class="st43" d="M9.3,118.2c6.4-4.1,12.5-8.8,19.3-12.2c0.1,6,0.3,12.1,0.2,18.1c-2.2-0.3-4.2-1.1-6.1-2.2
		c1.3-0.2,2.6-0.3,3.8-0.5c0.6-4.1,1.1-8.2,0-12.3c-0.3,0.2-0.8,0.6-1.1,0.8c-3.5,2.3-5.9,5.8-9.1,8.5c0.7,1.3,1.3,2.7,2,4
		c0.7-2.5,2-4.9,3.6-6.9c-0.6,2.2-0.8,4.4-1,6.6c0.2,1.5-1.1,2.3-2,3.3c-0.8-1.2-1.5-2.4-2.2-3.6c-1-3-4.3-2.4-6.7-2.7L9.3,118.2z"
		/>
</g>
<g id="_x23_f2f3f7ff">
	<path class="st44" d="M93.9,118.9c12.8-14.2,35.7-16.2,51.7-6.6c0,0.4,0,1.1,0,1.5c-15.8-9.3-38-6.4-50.3,7.4
		c-7.6,8.1-10.4,20.4-6.7,30.9c-0.8-1.1-1.8-2-2.2-3.3C83.7,138.5,86.4,126.7,93.9,118.9z"/>
</g>
<g id="_x23_62c840ff">
	<path class="st45" d="M221.6,106.1c2.6,0.5,4.5,2.4,6.7,3.7c4.3,2.8,8.7,5.5,12.9,8.4c-1.9,0.8-3.9,1.1-6,1
		c-1.3,1.8-2.4,3.7-3.6,5.6c-1.8-0.2-2-2.4-3.4-3.2c-2.2,0.9-4.3,2.1-6.7,2.2l0-0.8c0.1-5.4,0.2-10.8,0.2-16.3L221.6,106.1
		 M224.6,109.8c2.1,4.3,6.3,7.4,7.3,12.3c0.7-1.2,1.4-2.4,2.1-3.6C230.7,115.7,228.4,112,224.6,109.8z"/>
</g>
<g id="_x23_011704ff">
	<path class="st46" d="M219.9,108.2c0.4-0.3,1.2-1,1.6-1.3c0,5.4-0.1,10.8-0.2,16.3l-1.1-0.6C219.5,117.9,219.2,112.9,219.9,108.2z"
		/>
</g>
<g id="_x23_5ccc3aff">
	<path class="st47" d="M25.4,109.8c0.3-0.2,0.9-0.6,1.1-0.8c1,4,0.6,8.2,0,12.3c-1.3,0.2-2.6,0.3-3.8,0.5c-0.4,0.1-1.3,0.2-1.8,0.2
		c0.1-2.2,0.4-4.5,1-6.6C23.1,113.6,24.3,111.7,25.4,109.8z"/>
</g>
<g id="_x23_15131cff">
	<path class="st48" d="M95.3,121.3c12.3-13.8,34.5-16.7,50.3-7.4c8.5,5,15.5,13.1,17.2,23c2.1,10.4-2.1,21.1-9.4,28.5
		c-0.3,0.2-0.9,0.7-1.2,0.9c-2.6,0.9-5.3,1.3-8,1.4c0.7-0.4,2.1-1.3,2.8-1.8c3.4-2.2,6.2-5.4,8.6-8.7c-3.4-2.1-6.8-4.1-10.2-6.2
		c0.3-0.4,1-1.3,1.3-1.8c3.7,1.4,6.7,4,10.2,5.7c0.7-1.5,1.3-3.1,2-4.6c-4-1.6-8.3-2.3-12.2-4.2c0.3-0.5,1-1.4,1.4-1.9
		c3.8,1.2,7.6,2.3,11.4,3.5c0.1-1.7,0.2-3.4,0.3-5.1c-3.4-0.2-6.9-0.3-10.4-0.3c-0.2-0.7-0.7-2.1-0.9-2.8c3.8,0.1,7.6,0.4,11.4,0.6
		c-1-8.8-6-16.9-13.4-21.8c-13.8-9.6-34-8.5-46.4,2.8c-5.5,4.8-9,11.7-9.8,19l1.2-0.1c-0.4,0.9-0.8,1.7-1.2,2.6
		c0,1.7,0.2,3.4,0.3,5.1c3.8-1.1,7.7-2.3,11.5-3.5c0.3,0.5,0.8,1.6,1.1,2.1c-3.8,1.6-7.9,2.7-11.9,3.9c0.6,1.6,1.3,3.3,1.9,4.9
		c3.5-1.9,6.6-4.4,10.3-5.8c0.4,0.6,0.8,1.3,1.1,2c-3.4,2-6.8,4-10.2,6.1c3.3,4.5,7.4,8.5,12.4,11.1c-2.4-0.6-4.9-0.9-7.4-1.2
		c-1.1-0.7-2.1-1.4-3.1-2.1c-3.6-3.7-5.9-8.2-8-12.8C84.9,141.6,87.7,129.4,95.3,121.3z"/>
</g>
<g id="_x23_1a570bff">
	<path class="st49" d="M16.3,118.3c3.2-2.7,5.6-6.2,9.1-8.5c-1.1,1.9-2.3,3.8-3.5,5.6c-1.7,2-2.9,4.4-3.6,6.9
		C17.6,120.9,17,119.6,16.3,118.3z"/>
</g>
<g id="_x23_155308ff">
	<path class="st50" d="M224.6,109.8c3.7,2.2,6.1,6,9.4,8.7c-0.7,1.2-1.4,2.4-2.1,3.6C231,117.2,226.8,114.1,224.6,109.8z"/>
</g>
<g id="_x23_fde9a7ff">
	<path class="st51" d="M100.2,121.1c12.4-11.3,32.6-12.4,46.4-2.8c7.4,4.8,12.3,13,13.4,21.8c-3.8-0.2-7.6-0.5-11.4-0.6
		c0.2,0.7,0.7,2.1,0.9,2.8c-0.5,0.7-0.9,1.3-1.4,1.9c-0.3,0.5-1,1.4-1.4,1.9c3.9,1.9,8.2,2.7,12.2,4.2c-0.7,1.5-1.3,3.1-2,4.6
		c-3.5-1.7-6.5-4.3-10.2-5.7c-0.3,0.4-1,1.3-1.3,1.8c3.4,2.1,6.8,4.1,10.2,6.2c-2.4,3.3-5.1,6.4-8.6,8.7c-2.1-0.5-4.1,0-6.1,0.6
		c-6.1,1.7-12.5,2.3-18.9,1.8c-4.9-0.2-10-1.5-14.8,0.2l-0.2-0.1c-5-2.6-9.1-6.6-12.4-11.1c3.3-2.1,6.8-4.1,10.2-6.1
		c-0.4-0.7-0.7-1.3-1.1-2c-3.7,1.4-6.8,3.9-10.3,5.8c-0.7-1.6-1.3-3.3-1.9-4.9c4-1.2,8.1-2.2,11.9-3.9c-0.3-0.5-0.8-1.6-1.1-2.1
		c-0.2-0.5-0.7-1.5-0.9-2c0.1-0.6,0.3-1.9,0.4-2.5c-3.4-0.1-6.7,0.1-10.1,0.4l-1.2,0.1C91.2,132.9,94.6,125.9,100.2,121.1
		 M108.2,136.8c1,2.9,5.7,2.5,6.4-0.4c1.1-2.5-1.5-4.3-3.5-5C109.2,132.4,106.6,134.6,108.2,136.8 M135.9,137c1.2,2.9,6,2.2,6.4-0.9
		c0.6-2.3-1.5-3.7-3.2-4.6C136.9,132,134.3,134.5,135.9,137 M120.7,142.9c1.4,1.2,2.7,2.5,3.7,4c-0.9,2.2-1.4,4.9-3.5,6.3l0.5-1.1
		c-1.9,0.3-3.7,0.7-5.5,1.2c-2.7-2.2-3.9-5.5-3.4-8.9c-1-0.5-2-0.9-3-1.4c0.1,0.3,0.3,0.9,0.4,1.2c-1.4,0.5-1.9,1.5-1.6,2.8
		c0.3,3.1,1.5,6.4,4.1,8.3c3.3,2.4,8.5,1.9,11-1.4c3.3,2.3,7.2,5.9,11.5,4.2c2.7-0.6,6.4-1.9,5.3-5.5c1.1-2.6,2.3-5.9,0.6-8.5
		c-0.3,0.4-0.9,1.3-1.2,1.7l-1.2-0.7c-1.1,2.7-1,7-4.5,7.9c-2.1-0.2-4.1-0.6-6.1-0.9c-1.2-1.8-1.5-3.9-1.7-6.1
		c1-1.2,3.1-2.1,2.8-3.8C126.4,140.5,122.9,140.8,120.7,142.9z"/>
</g>
<g id="_x23_0c2b0bff">
	<path class="st52" d="M10,118.9c2.5,0.3,5.8-0.3,6.7,2.7C14.2,121.9,11.1,121.6,10,118.9z"/>
</g>
<g id="_x23_1a1621ff">
	<path class="st53" d="M135.9,137c-1.7-2.4,0.9-4.9,3.2-5.5c1.7,0.9,3.9,2.3,3.2,4.6C141.9,139.1,137.2,139.9,135.9,137z"/>
</g>
<g id="_x23_1a1101ff">
	<path class="st54" d="M91.6,140c3.4-0.3,6.7-0.5,10.1-0.4c-0.1,0.6-0.3,1.9-0.4,2.5c-3.6,0.2-7.2,0.2-10.8,0.5
		C90.8,141.7,91.2,140.9,91.6,140z"/>
</g>
<g id="_x23_13060cff">
	<path class="st55" d="M120.7,142.9c2.2-2.1,5.7-2.3,8.2-0.7c0.4,1.7-1.8,2.6-2.8,3.8c0.2,2.1,0.5,4.3,1.7,6.1
		c1.8,2.1,4.8,3.5,7.4,2.2c3.3-1.4,4.2-5.2,4.4-8.4c0.3-0.4,0.9-1.3,1.2-1.7c1.7,2.6,0.5,5.9-0.6,8.5c-1.8,2.3-4.2,4.5-7.3,4.3
		c-3.6,0.4-6.1-2.4-8-5c-0.4,0.5-1.1,1.5-1.5,2c-2.5,3.4-7.7,3.9-11,1.4c-2.6-1.9-3.8-5.2-4.1-8.3c-0.3-1.3,0.2-2.3,1.6-2.8
		c0.7,2.3,0.9,4.7,1.8,6.9c1.5,3.4,6.5,4.8,9.2,2.1c2.2-1.4,2.6-4.1,3.5-6.3C123.4,145.4,122.1,144.1,120.7,142.9z"/>
</g>
<g id="_x23_f8efd5ff">
	<path class="st56" d="M90.4,142.6c3.6-0.2,7.2-0.3,10.8-0.5c0.2,0.5,0.7,1.5,0.9,2c-3.8,1.2-7.6,2.4-11.5,3.5
		C90.6,146,90.4,144.3,90.4,142.6z"/>
	<path class="st56" d="M109.6,143c1,0.5,2,0.9,3,1.4c-0.6,3.4,0.6,6.7,3.4,8.9c1.8-0.5,3.7-0.9,5.5-1.2l-0.5,1.1
		c-2.7,2.8-7.7,1.3-9.2-2.1c-0.9-2.2-1.1-4.6-1.8-6.9C109.9,143.9,109.7,143.3,109.6,143z"/>
	<path class="st56" d="M138.4,145.1l1.2,0.7c-0.2,3.2-1.1,7-4.4,8.4c-2.7,1.3-5.6-0.1-7.4-2.2c2,0.3,4.1,0.7,6.1,0.9
		C137.5,152.1,137.3,147.8,138.4,145.1z"/>
	<path class="st56" d="M123.5,153.9c0.4-0.5,1.1-1.5,1.5-2c1.9,2.6,4.5,5.3,8,5c3.1,0.3,5.6-2,7.3-4.3c1.1,3.6-2.6,4.9-5.3,5.5
		C130.7,159.8,126.8,156.2,123.5,153.9z"/>
</g>
<g id="_x23_f6f1c7ff">
	<path class="st57" d="M149.4,142.2c3.5,0.1,6.9,0.2,10.4,0.3c-0.1,1.7-0.2,3.4-0.3,5.1c-3.8-1.2-7.6-2.3-11.4-3.5
		C148.5,143.5,149,142.9,149.4,142.2z"/>
</g>
<g id="_x23_e0f2f8ff">
	<path class="st58" d="M71.3,154.6c1.4-0.1,2.8-0.1,4.1-0.2c0.5,1,0.9,2,1.5,3c0.8,1.6,1.6,3.2,2.4,4.8c-0.5,0-1.4,0.1-1.9,0.1
		C75.3,159.8,73.2,157.2,71.3,154.6z"/>
</g>
<g id="_x23_7b8c7aff">
	<path class="st59" d="M202.2,156.1c1.6-0.5,2.1,0.1,1.5,1.8C202.1,158.4,201.6,157.8,202.2,156.1z"/>
</g>
<g id="_x23_a2a6b0ff">
	<path class="st60" d="M76.9,157.4c2.3,1.2,4.7,2.3,6.9,3.7c0.2,0.3,0.6,0.8,0.8,1.1c2.4,3.3,5.3,6.1,7.6,9.4
		c-4.3-1.3-7.5-4.4-11.2-6.8c-0.6-0.8-1.2-1.7-1.7-2.5C78.4,160.6,77.7,159,76.9,157.4z"/>
</g>
<g id="_x23_a79fa6ff">
	<path class="st61" d="M167.1,160.7c2-1.2,4.1-2.3,6.2-3.3c-1.3,2.4-2.4,4.9-4,7.2c-4,2.9-7.9,6-12.5,7.7c3-3.3,6.1-6.5,8.9-10.1
		l0,0c0-0.7,0-1.4-0.1-2.2c0.5-0.3,1.4-0.8,1.9-1.1C167.4,159.4,167.2,160.3,167.1,160.7z"/>
</g>
<g id="_x23_fefdffff">
	<path class="st62" d="M22.7,163.1c5.8-0.9,11.7-1.8,17.6-2.4c0.5,2.2-2,3.1-3.2,4.4c-3.5,2.7-6.5,6.2-10.4,8.5
		c-0.3-0.3-0.9-1-1.2-1.3c1.1-1,2.1-2,3.1-3c-0.7-1.4-1.3-2.8-2-4.2c-1.5,0-2.9,0.1-4.4,0.1C22.4,164.7,22.6,163.6,22.7,163.1
		 M29,164.5c0.4,1.1,0.8,2.2,1.2,3.3c1.8-1.3,3.5-2.6,5-4.2C33.1,163.9,31,164.2,29,164.5z"/>
</g>
<g id="_x23_dbdcd8ff">
	<path class="st63" d="M84.6,162.1c4.2-0.1,7.7,3.3,12,2.9c1,0.7,2.1,1.4,3.1,2.1c12.2,10.8,31.3,11.7,45.4,4.1
		c-0.3,0.9-0.6,1.9-0.9,2.8c4.6-2.2,9.4-4.3,13.8-7c1.3-0.9,3.1-1.8,2.6-3.6c1.6-0.7,3.4-1,5.1-1.1c-2.7,3.6-5.9,6.8-8.9,10.1
		c-3.1,1.8-6.2,3.6-9.5,4.9c-5,0.2-9.7,1.7-14.7,2.2c-6.8,0.7-13.8,0.6-20.5-0.9c-3.1-0.7-6.3-1.2-9.6-1.4
		c-3.6-1.6-7.1-3.5-10.4-5.6C89.9,168.2,86.9,165.4,84.6,162.1z"/>
</g>
<g id="_x23_171523ff">
	<path class="st64" d="M216.8,163.8c1.1-0.6,2.2-1.2,3.3-1.7c1.2,0.5,2.3,1.1,3.5,1.6c1.3,2.4,0.9,5.3-1.5,6.8
		c-2.2-1.2-5.1-1.7-6.4-4.1C215.9,165.7,216.5,164.4,216.8,163.8z"/>
</g>
<g id="_x23_e9ebe6ff">
	<path class="st65" d="M153.4,165.3c2.5,0,4.9-0.9,7.2-2c0.4,1.9-1.3,2.8-2.6,3.6c-4.4,2.7-9.1,4.8-13.8,7c0.3-0.9,0.6-1.9,0.9-2.8
		c2.6-1.3,4.8-3.1,7.1-4.9C152.5,166,153.1,165.6,153.4,165.3z"/>
</g>
<g id="_x23_e9e0beff">
	<path class="st66" d="M140.9,166.4c2-0.6,4.1-1,6.1-0.6c-0.7,0.5-2.1,1.3-2.8,1.8c-10.9,6.9-25.8,7.1-37,0.7
		c4.8-1.6,9.8-0.4,14.8-0.2C128.3,168.7,134.7,168.1,140.9,166.4z"/>
</g>
<g id="_x23_a9a7a9ff">
	<path class="st67" d="M144.2,167.7c2.7-0.2,5.4-0.5,8-1.4c-2.3,1.8-4.5,3.6-7.1,4.9c-14.1,7.6-33.2,6.7-45.4-4.1
		c2.5,0.4,4.9,0.7,7.4,1.2l0.2,0.1C118.4,174.8,133.3,174.6,144.2,167.7z"/>
	<path class="st67" d="M195.4,174.1c1.1-1.7,3.2,0.5,2.1,1.8C196.4,177.7,194.3,175.4,195.4,174.1z"/>
</g>
<g id="_x23_fefcffff">
	<path class="st68" d="M210.3,173.4c1.8-0.5,5,0.4,4.1,2.9c-0.9-0.2-2.6-0.6-3.5-0.9c-0.4,0.6-1.1,1.8-1.4,2.4
		c0.3,1.6,0.4,3.2,1,4.7c1.8,1.9,5.9,2.3,5.4,5.6c-4.3-1.4-7.9-4.5-11.6-7l0.9-0.9c0.6,0,1.8,0.2,2.4,0.2
		C206.8,177.7,207.8,174.8,210.3,173.4z"/>
</g>
<g id="_x23_fffcffff">
	<path class="st69" d="M37.3,184.6c0.3-3.7-2.8-8.3,0.7-11.2c0.8,0.1,2.2,0.3,3,0.5c1.3,2.7,4.8,5.2,3.5,8.6
		c-0.5,0.1-1.5,0.3-1.9,0.4c0-0.7-0.1-2-0.1-2.7c-1.1-1.8-2.2-3.5-3.8-4.8c-0.2,3.3,1.2,6.5,0.9,9.7c-0.9,2.6-4.8,3.1-6.2,0.7
		c-1.6-2.4-4.5-5.5-2.1-8.5c2,2.3,2,6,4.8,7.8L37.3,184.6z"/>
</g>
<g id="_x23_a4a4a6ff">
	<path class="st70" d="M102.5,177.1c3.2,0.2,6.4,0.7,9.6,1.4c6.7,1.5,13.7,1.6,20.5,0.9c4.9-0.6,9.7-2,14.7-2.2
		c-6.9,4.3-15.3,5.4-23.3,5.4C116.6,182.4,108.9,181,102.5,177.1z"/>
	<path class="st70" d="M135.3,208.4c1.4-1.2,3.2,1.3,1.6,2.3C135.5,211.7,133.6,209.3,135.3,208.4z"/>
</g>
<g id="_x23_171522ff">
	<path class="st71" d="M199.1,192c0.5-1.8,2.2-3.5,4.1-3.3c1.5,1,2.8,2.3,4.3,3.4c0.6,2.5-1.7,5.8-4.4,5.1
		C201.4,195.9,198.6,194.6,199.1,192z"/>
</g>
<g id="_x23_7f9a81ff">
	<path class="st72" d="M77.4,193.6c0.8,0.8,1.5,1.5,2.3,2.3c-0.8,0.8-1.5,1.5-2.3,2.3c-0.4-0.6-1.2-1.7-1.6-2.2
		C76.3,195.4,77,194.2,77.4,193.6z"/>
</g>
<g id="_x23_fffaffff">
	<path class="st73" d="M58.6,196.1c1.5,0.6,1.1,2,0.6,3.3c3.1-0.9,7.4,2,6.3,5.5c-0.2,1.5-2.3,2.8-3.4,1.2c0.4-0.6,1.2-1.8,1.6-2.3
		c-1.3-2.7-4.4-2.2-6.9-2.2c-2,1.8-3.3,5.5-6.5,5.1C52,202.4,55.8,199.6,58.6,196.1z"/>
</g>
<g id="_x23_17122bff">
	<path class="st74" d="M70,209.8c2.2-1.2,5.7,0.7,5.6,3.3c-1,2.1-1.8,5.1-4.6,5.3c-1.5-0.8-3.3-1.6-3.8-3.4
		C67.7,213,68.9,211.3,70,209.8z"/>
</g>
</svg>
