<?xml version="1.0" encoding="UTF-8" ?>
<!DOCTYPE svg PUBLIC "-//W3C//DTD SVG 1.1//EN" "http://www.w3.org/Graphics/SVG/1.1/DTD/svg11.dtd">
<svg width="250pt" height="250pt" viewBox="0 0 250 250" version="1.1" xmlns="http://www.w3.org/2000/svg">
<g id="#ffffffff">
<path fill="#ffffff" opacity="1.00" d=" M 0.00 0.00 L 111.80 0.00 C 108.00 1.30 104.13 2.36 100.14 2.85 C 80.72 6.71 62.37 15.47 46.88 27.77 C 45.42 28.99 43.89 30.24 43.05 31.99 C 46.96 37.21 53.52 41.08 54.39 48.09 C 54.16 53.96 48.81 58.53 43.16 59.06 C 36.86 57.94 33.86 51.62 28.91 48.33 C 27.11 47.58 25.93 49.85 24.81 50.88 C 14.99 63.72 8.34 78.76 3.94 94.26 C 2.15 99.68 2.98 105.72 0.00 110.78 L 0.00 0.00 Z" />
<path fill="#ffffff" opacity="1.00" d=" M 140.11 0.00 L 250.00 0.00 L 250.00 110.88 C 247.74 107.02 247.56 102.54 246.95 98.24 C 244.37 87.64 240.76 77.24 235.60 67.61 C 221.44 39.86 196.31 18.09 167.02 7.60 C 158.23 4.46 148.80 3.45 140.11 0.00 Z" />
<path fill="#ffffff" opacity="1.00" d=" M 131.44 13.44 C 137.53 10.15 145.15 16.69 144.74 23.02 C 145.11 26.20 142.62 28.54 140.70 30.70 C 133.38 38.04 125.98 45.31 118.70 52.70 C 116.93 54.41 115.22 56.25 113.05 57.45 C 109.54 57.95 105.49 57.98 103.14 54.87 C 100.05 52.47 99.83 48.52 100.42 44.94 C 101.78 41.71 104.55 39.40 106.94 36.94 C 111.37 32.69 115.25 27.92 119.78 23.78 C 123.60 20.28 126.65 15.73 131.44 13.44 Z" />
<path fill="#ffffff" opacity="1.00" d=" M 74.22 66.55 C 79.45 65.72 85.07 67.38 88.76 71.25 C 96.00 77.78 95.48 90.79 87.69 96.71 C 83.42 101.09 76.81 101.33 71.18 100.17 C 64.64 97.68 59.12 91.26 59.39 84.00 C 59.04 75.55 65.77 67.50 74.22 66.55 Z" />
<path fill="#ffffff" opacity="1.00" d=" M 106.41 104.58 C 110.36 104.07 114.86 104.20 117.80 107.29 C 125.25 114.47 132.43 121.93 139.84 129.16 C 142.39 131.89 145.40 135.01 145.31 139.01 C 145.29 146.68 134.73 152.97 128.69 147.39 C 119.60 138.44 110.66 129.33 101.62 120.34 C 98.61 117.73 99.53 113.24 99.96 109.76 C 101.47 107.45 103.69 105.27 106.41 104.58 Z" />
<path fill="#ffffff" opacity="1.00" d=" M 0.00 137.30 C 0.55 139.10 1.28 140.85 1.74 142.68 C 4.22 157.87 8.71 172.96 16.52 186.32 C 32.57 215.30 60.91 236.87 92.80 245.54 C 98.69 247.75 105.28 246.94 110.90 250.00 L 0.00 250.00 L 0.00 137.30 Z" />
<path fill="#ffffff" opacity="1.00" d=" M 244.91 161.75 C 246.79 155.22 246.83 148.16 250.00 142.03 L 250.00 250.00 L 143.12 250.00 C 143.94 249.19 144.75 248.36 145.54 247.53 C 157.48 248.20 168.47 242.63 179.05 237.86 C 186.94 234.16 194.45 229.59 201.33 224.24 C 202.79 223.45 202.89 221.31 201.78 220.17 C 198.17 215.66 192.69 212.50 190.58 206.89 C 188.72 199.29 197.90 192.44 204.74 196.00 C 209.53 199.14 212.51 204.36 217.35 207.41 C 219.63 208.03 220.79 205.47 222.13 204.14 C 232.06 191.46 240.28 177.24 244.91 161.75 Z" />
<path fill="#ffffff" opacity="1.00" d=" M 161.23 157.98 C 166.35 157.00 172.64 156.28 176.97 159.90 C 181.69 163.35 185.40 168.99 184.74 175.05 C 184.69 184.90 174.64 193.01 165.02 191.58 C 159.80 190.50 154.40 187.83 152.06 182.76 C 149.64 178.97 150.09 174.26 150.52 170.01 C 152.27 164.77 156.28 160.40 161.23 157.98 Z" />
<path fill="#ffffff" opacity="1.00" d=" M 131.14 195.73 C 137.05 193.37 144.58 198.49 143.79 205.02 C 144.15 209.53 140.53 212.73 137.63 215.62 C 130.31 222.67 123.38 230.13 115.95 237.05 C 113.56 239.46 110.21 240.18 106.93 239.69 C 99.50 238.53 96.75 228.11 102.11 223.09 C 108.53 216.52 115.10 210.10 121.54 203.55 C 124.43 200.61 127.41 197.60 131.14 195.73 Z" />
</g>
<g id="#0054ffff">
<path fill="#0054ff" opacity="1.00" d=" M 111.80 0.00 L 140.11 0.00 C 148.80 3.45 158.23 4.46 167.02 7.60 C 196.31 18.09 221.44 39.86 235.60 67.61 C 240.76 77.24 244.37 87.64 246.95 98.24 C 247.56 102.54 247.74 107.02 250.00 110.88 L 250.00 142.03 C 246.83 148.16 246.79 155.22 244.91 161.75 C 240.28 177.24 232.06 191.46 222.13 204.14 C 220.79 205.47 219.63 208.03 217.35 207.41 C 212.51 204.36 209.53 199.14 204.74 196.00 C 197.90 192.44 188.72 199.29 190.58 206.89 C 192.69 212.50 198.17 215.66 201.78 220.17 C 202.89 221.31 202.79 223.45 201.33 224.24 C 194.45 229.59 186.94 234.16 179.05 237.86 C 168.47 242.63 157.48 248.20 145.54 247.53 C 144.75 248.36 143.94 249.19 143.12 250.00 L 110.90 250.00 C 105.28 246.94 98.69 247.75 92.80 245.54 C 60.91 236.87 32.57 215.30 16.52 186.32 C 8.71 172.96 4.22 157.87 1.74 142.68 C 1.28 140.85 0.55 139.10 0.00 137.30 L 0.00 110.78 C 2.98 105.72 2.15 99.68 3.94 94.26 C 8.34 78.76 14.99 63.72 24.81 50.88 C 25.93 49.85 27.11 47.58 28.91 48.33 C 33.86 51.62 36.86 57.94 43.16 59.06 C 48.81 58.53 54.16 53.96 54.39 48.09 C 53.52 41.08 46.96 37.21 43.05 31.99 C 43.89 30.24 45.42 28.99 46.88 27.77 C 62.37 15.47 80.72 6.71 100.14 2.85 C 104.13 2.36 108.00 1.30 111.80 0.00 M 131.44 13.44 C 126.65 15.73 123.60 20.28 119.78 23.78 C 115.25 27.92 111.37 32.69 106.94 36.94 C 104.55 39.40 101.78 41.71 100.42 44.94 C 99.83 48.52 100.05 52.47 103.14 54.87 C 105.49 57.98 109.54 57.95 113.05 57.45 C 115.22 56.25 116.93 54.41 118.70 52.70 C 125.98 45.31 133.38 38.04 140.70 30.70 C 142.62 28.54 145.11 26.20 144.74 23.02 C 145.15 16.69 137.53 10.15 131.44 13.44 M 74.22 66.55 C 65.77 67.50 59.04 75.55 59.39 84.00 C 59.12 91.26 64.64 97.68 71.18 100.17 C 76.81 101.33 83.42 101.09 87.69 96.71 C 95.48 90.79 96.00 77.78 88.76 71.25 C 85.07 67.38 79.45 65.72 74.22 66.55 M 106.41 104.58 C 103.69 105.27 101.47 107.45 99.96 109.76 C 99.53 113.24 98.61 117.73 101.62 120.34 C 110.66 129.33 119.60 138.44 128.69 147.39 C 134.73 152.97 145.29 146.68 145.31 139.01 C 145.40 135.01 142.39 131.89 139.84 129.16 C 132.43 121.93 125.25 114.47 117.80 107.29 C 114.86 104.20 110.36 104.07 106.41 104.58 M 161.23 157.98 C 156.28 160.40 152.27 164.77 150.52 170.01 C 150.09 174.26 149.64 178.97 152.06 182.76 C 154.40 187.83 159.80 190.50 165.02 191.58 C 174.64 193.01 184.69 184.90 184.74 175.05 C 185.40 168.99 181.69 163.35 176.97 159.90 C 172.64 156.28 166.35 157.00 161.23 157.98 M 131.14 195.73 C 127.41 197.60 124.43 200.61 121.54 203.55 C 115.10 210.10 108.53 216.52 102.11 223.09 C 96.75 228.11 99.50 238.53 106.93 239.69 C 110.21 240.18 113.56 239.46 115.95 237.05 C 123.38 230.13 130.31 222.67 137.63 215.62 C 140.53 212.73 144.15 209.53 143.79 205.02 C 144.58 198.49 137.05 193.37 131.14 195.73 Z" />
</g>
</svg>
