<?xml version="1.0" encoding="UTF-8" ?>
<!DOCTYPE svg PUBLIC "-//W3C//DTD SVG 1.1//EN" "http://www.w3.org/Graphics/SVG/1.1/DTD/svg11.dtd">
<svg width="250pt" height="200pt" viewBox="0 0 250 200" version="1.1" xmlns="http://www.w3.org/2000/svg">
<g id="#feffffff">
<path fill="#feffff" opacity="1.00" d=" M 0.00 0.00 L 250.00 0.00 L 250.00 200.00 L 0.00 200.00 L 0.00 0.00 M 75.63 9.50 C 73.88 12.74 72.40 16.24 72.58 20.00 C 72.67 31.68 72.55 43.36 72.63 55.04 C 72.39 59.33 75.12 64.55 79.94 64.45 C 125.28 64.55 170.63 64.40 215.96 64.52 C 220.13 64.37 224.91 65.31 228.44 62.50 C 231.46 60.35 231.32 56.27 231.44 52.96 C 231.38 42.64 231.35 32.32 231.45 22.01 C 231.31 18.29 231.47 14.08 229.03 11.01 C 226.82 9.14 223.67 9.49 220.97 9.33 C 172.53 9.54 124.07 9.21 75.63 9.50 M 15.01 79.00 C 12.45 81.23 12.61 84.91 12.58 88.00 C 12.73 97.98 12.63 107.97 12.62 117.95 C 12.77 121.73 12.70 125.90 14.85 129.18 C 17.13 130.91 20.25 130.89 22.98 131.21 C 31.66 131.53 40.35 131.16 49.04 131.34 C 54.07 131.24 59.30 131.58 64.10 129.83 C 66.58 128.09 66.34 124.64 66.52 121.97 C 66.43 108.00 66.51 94.04 66.43 80.07 C 63.25 78.21 59.78 76.54 55.99 76.67 C 45.99 76.59 35.99 76.79 25.99 76.61 C 22.27 76.67 18.06 76.49 15.01 79.00 M 77.31 77.44 C 75.74 79.35 73.46 81.17 73.58 83.90 C 73.36 93.59 73.67 103.28 73.54 112.97 C 73.55 118.93 72.53 125.49 76.44 130.57 C 110.96 130.58 145.48 130.55 180.00 130.59 C 181.86 130.27 184.76 131.13 185.52 128.79 C 187.38 125.14 187.31 120.92 187.37 116.93 C 187.24 105.37 187.34 93.81 187.31 82.24 C 185.70 80.67 184.10 79.09 182.50 77.51 C 147.44 77.47 112.38 77.61 77.31 77.44 M 77.18 147.87 C 75.87 149.16 76.54 151.33 76.25 153.00 C 76.29 166.72 76.30 180.45 76.28 194.18 C 85.16 195.15 94.09 194.50 102.99 194.67 C 109.75 194.50 116.56 195.15 123.28 194.28 C 123.75 191.90 123.74 189.46 123.78 187.04 C 123.67 173.95 123.74 160.85 123.73 147.75 C 113.18 146.79 102.59 147.52 92.02 147.30 C 87.08 147.46 82.02 146.67 77.18 147.87 Z" />
</g>
<g id="#afecf4ff">
<path fill="#afecf4" opacity="1.00" d=" M 75.63 9.50 C 124.07 9.21 172.53 9.54 220.97 9.33 C 223.67 9.49 226.82 9.14 229.03 11.01 C 231.47 14.08 231.31 18.29 231.45 22.01 C 231.35 32.32 231.38 42.64 231.44 52.96 C 231.32 56.27 231.46 60.35 228.44 62.50 C 224.91 65.31 220.13 64.37 215.96 64.52 C 170.63 64.40 125.28 64.55 79.94 64.45 C 75.12 64.55 72.39 59.33 72.63 55.04 C 72.55 43.36 72.67 31.68 72.58 20.00 C 72.40 16.24 73.88 12.74 75.63 9.50 M 77.38 12.44 C 76.10 14.76 75.06 17.29 75.22 19.99 C 75.28 30.68 75.35 41.37 75.22 52.05 C 75.29 54.37 75.10 56.79 75.89 59.01 C 77.80 61.39 81.20 61.24 83.97 61.43 C 124.97 61.34 165.98 61.42 206.99 61.38 C 214.15 61.23 221.69 62.49 228.38 59.21 C 228.79 47.12 228.39 35.03 228.64 22.94 C 228.58 20.58 228.79 18.14 228.06 15.86 C 226.55 12.98 223.16 11.71 220.05 11.67 C 209.38 11.42 198.70 11.93 188.02 11.86 C 172.38 11.99 156.73 11.38 141.10 11.98 C 127.73 11.36 114.35 11.81 100.97 11.63 C 93.09 11.48 85.25 12.62 77.38 12.44 Z" />
<path fill="#afecf4" opacity="1.00" d=" M 15.01 79.00 C 18.06 76.49 22.27 76.67 25.99 76.61 C 35.99 76.79 45.99 76.59 55.99 76.67 C 59.78 76.54 63.25 78.21 66.43 80.07 C 66.51 94.04 66.43 108.00 66.52 121.97 C 66.34 124.64 66.58 128.09 64.10 129.83 C 59.30 131.58 54.07 131.24 49.04 131.34 C 40.35 131.16 31.66 131.53 22.98 131.21 C 20.25 130.89 17.13 130.91 14.85 129.18 C 12.70 125.90 12.77 121.73 12.62 117.95 C 12.63 107.97 12.73 97.98 12.58 88.00 C 12.61 84.91 12.45 81.23 15.01 79.00 M 15.72 88.01 C 15.72 97.00 15.84 106.00 15.70 115.00 C 15.53 119.24 16.50 123.40 18.03 127.32 C 27.34 127.41 36.66 127.33 45.97 127.36 C 51.83 127.33 58.16 128.31 63.37 124.97 C 63.39 110.61 63.39 96.26 63.38 81.90 C 60.30 81.17 57.17 80.54 54.00 80.57 C 41.96 80.70 29.92 80.67 17.88 80.60 C 16.66 82.89 15.63 85.36 15.72 88.01 Z" />
<path fill="#afecf4" opacity="1.00" d=" M 77.31 77.44 C 112.38 77.61 147.44 77.47 182.50 77.51 C 184.10 79.09 185.70 80.67 187.31 82.24 C 187.34 93.81 187.24 105.37 187.37 116.93 C 187.31 120.92 187.38 125.14 185.52 128.79 C 184.76 131.13 181.86 130.27 180.00 130.59 C 145.48 130.55 110.96 130.58 76.44 130.57 C 72.53 125.49 73.55 118.93 73.54 112.97 C 73.67 103.28 73.36 93.59 73.58 83.90 C 73.46 81.17 75.74 79.35 77.31 77.44 M 77.44 81.53 C 75.60 93.25 77.10 105.15 76.66 116.95 C 76.69 120.03 76.09 123.99 79.01 126.02 C 83.24 127.05 87.65 126.46 91.96 126.54 C 121.81 126.55 151.66 126.49 181.51 126.58 C 184.68 121.24 183.22 114.89 183.46 109.03 C 183.14 99.84 184.27 90.57 182.67 81.46 C 176.78 80.54 170.88 81.38 164.98 81.41 C 150.31 80.70 135.63 81.68 120.96 81.17 C 106.46 81.53 91.95 81.19 77.44 81.53 Z" />
<path fill="#afecf4" opacity="1.00" d=" M 77.18 147.87 C 82.02 146.67 87.08 147.46 92.02 147.30 C 102.59 147.52 113.18 146.79 123.73 147.75 C 123.74 160.85 123.67 173.95 123.78 187.04 C 123.74 189.46 123.75 191.90 123.28 194.28 C 116.56 195.15 109.75 194.50 102.99 194.67 C 94.09 194.50 85.16 195.15 76.28 194.18 C 76.30 180.45 76.29 166.72 76.25 153.00 C 76.54 151.33 75.87 149.16 77.18 147.87 Z" />
</g>
<g id="#60cadeff">
<path fill="#60cade" opacity="1.00" d=" M 77.38 12.44 C 85.25 12.62 93.09 11.48 100.97 11.63 C 114.35 11.81 127.73 11.36 141.10 11.98 C 156.73 11.38 172.38 11.99 188.02 11.86 C 198.70 11.93 209.38 11.42 220.05 11.67 C 223.16 11.71 226.55 12.98 228.06 15.86 C 228.79 18.14 228.58 20.58 228.64 22.94 C 228.39 35.03 228.79 47.12 228.38 59.21 C 221.69 62.49 214.15 61.23 206.99 61.38 C 165.98 61.42 124.97 61.34 83.97 61.43 C 81.20 61.24 77.80 61.39 75.89 59.01 C 75.10 56.79 75.29 54.37 75.22 52.05 C 75.35 41.37 75.28 30.68 75.22 19.99 C 75.06 17.29 76.10 14.76 77.38 12.44 M 77.51 16.69 C 77.58 30.33 77.57 43.97 77.53 57.61 C 82.27 58.78 87.17 58.71 92.02 58.57 C 135.87 58.53 179.72 58.61 223.57 58.53 C 224.19 57.88 224.80 57.24 225.42 56.59 C 225.46 43.34 225.33 30.08 225.50 16.83 C 220.53 13.77 214.55 14.78 209.02 14.72 C 168.68 14.70 128.35 14.77 88.01 14.68 C 84.41 14.66 80.91 15.58 77.51 16.69 Z" />
<path fill="#60cade" opacity="1.00" d=" M 15.72 88.01 C 15.63 85.36 16.66 82.89 17.88 80.60 C 29.92 80.67 41.96 80.70 54.00 80.57 C 57.17 80.54 60.30 81.17 63.38 81.90 C 63.39 96.26 63.39 110.61 63.37 124.97 C 58.16 128.31 51.83 127.33 45.97 127.36 C 36.66 127.33 27.34 127.41 18.03 127.32 C 16.50 123.40 15.53 119.24 15.70 115.00 C 15.84 106.00 15.72 97.00 15.72 88.01 Z" />
<path fill="#60cade" opacity="1.00" d=" M 77.44 81.53 C 91.95 81.19 106.46 81.53 120.96 81.17 C 135.63 81.68 150.31 80.70 164.98 81.41 C 170.88 81.38 176.78 80.54 182.67 81.46 C 184.27 90.57 183.14 99.84 183.46 109.03 C 183.22 114.89 184.68 121.24 181.51 126.58 C 151.66 126.49 121.81 126.55 91.96 126.54 C 87.65 126.46 83.24 127.05 79.01 126.02 C 76.09 123.99 76.69 120.03 76.66 116.95 C 77.10 105.15 75.60 93.25 77.44 81.53 Z" />
</g>
<g id="#02a5c2ff">
<path fill="#02a5c2" opacity="1.00" d=" M 77.51 16.69 C 80.91 15.58 84.41 14.66 88.01 14.68 C 128.35 14.77 168.68 14.70 209.02 14.72 C 214.55 14.78 220.53 13.77 225.50 16.83 C 225.33 30.08 225.46 43.34 225.42 56.59 C 224.80 57.24 224.19 57.88 223.57 58.53 C 179.72 58.61 135.87 58.53 92.02 58.57 C 87.17 58.71 82.27 58.78 77.53 57.61 C 77.57 43.97 77.58 30.33 77.51 16.69 Z" />
</g>
</svg>
