<?xml version="1.0" encoding="utf-8"?>
<!-- Generator: Adobe Illustrator 26.0.3, SVG Export Plug-In . SVG Version: 6.00 Build 0)  -->
<svg version="1.1" id="Layer_1" xmlns="http://www.w3.org/2000/svg" xmlns:xlink="http://www.w3.org/1999/xlink" x="0px" y="0px"
	 viewBox="0 0 250 250" style="enable-background:new 0 0 250 250;" xml:space="preserve">
<style type="text/css">
	.st0{fill:#FFFFFF;}
	.st1{fill:#A35FA4;}
	.st2{fill:#6C89B4;}
	.st3{fill:#2A5ADA;}
	.st4{fill:#3CAFC2;}
</style>
<g id="_x23_ffffffff">
	<path class="st0" d="M79.1,23.2c26-11.5,56.3-13.1,83.1-3.4c30.4,10.5,55.6,35,67,65.1c7.8,20.2,9.3,42.6,5,63.8
		c-5.5,25.4-20.2,48.7-40.8,64.6c-9.7,7.6-20.8,13.4-32.4,17.5c-23.2,7.6-49.1,7.9-72.3-0.3c-26.6-9-49.3-28.7-62.4-53.6
		c-10.3-19.5-14.3-42.1-12.2-64.1c1.3-9.8,3.6-19.5,7.2-28.7C31.6,57.3,52.9,35.1,79.1,23.2 M119.3,32.3
		C95.1,46.5,70.8,60.5,46.4,74.4c-1.5,0.8-2.9,1.8-4.2,2.8c-0.2,2.6-0.3,5.2-0.2,7.9c0.2,29.3-0.3,58.6,0.2,87.8
		c1.6,1.1,3.2,2.2,4.9,3.1c24,13.6,47.9,27.3,71.8,41.2c2.3,1.2,4.4,3,7,3.5c6-2.8,11.4-6.5,17.2-9.7c21.7-12.8,43.6-25.2,65.3-38.1
		c0.1-2,0.2-4,0.2-5.9c-0.2-30,0.2-60-0.2-89.9c-3.1-2.1-6.4-3.9-9.6-5.7c-22.4-12.9-44.9-25.8-67.2-38.9c-2-1.2-4.1-2.5-6.3-3.3
		C123.1,30.1,121.2,31.2,119.3,32.3z"/>
	<path class="st0" d="M110.8,77.8c4.8-2.7,9.3-5.7,14.2-8c1.4,0.6,2.9,1.2,4.2,2c11.1,6.5,22.3,13,33.5,19.5c3.4,2,7,3.7,10.1,6
		c0.6,1.5,0.4,3.1,0.5,4.7c-0.1,15.7,0,31.4,0,47.1c-0.1,1.6,0.2,3.9-1.7,4.6c-13.9,8.1-27.9,16.1-41.8,24.3
		c-1.5,0.9-3.1,1.7-4.8,2.3c-16.1-8.9-31.8-18.3-47.7-27.5c-0.3-18.4-0.3-36.9,0-55.4C88.4,90.7,99.7,84.4,110.8,77.8z"/>
</g>
<g id="_x23_a35fa4ff">
	<path class="st1" d="M117.6,0h14.8c6.3,0.7,12.6,1.5,18.8,2.8c28.7,6.1,55.1,22.7,72.9,46.1c15.2,19.7,23.9,44,25.8,68.8v13.8
		c-0.8,9.5-2.2,19.1-4.9,28.2c-5.2-1.2-11.3-5-11-11c4.3-21.2,2.8-43.6-5-63.8c-11.4-30.1-36.6-54.5-67-65.1
		c-26.8-9.7-57.2-8.1-83.1,3.4c-4.2-2.4-7.8-5.6-10.8-9.4C83.5,5.7,100.5,1.5,117.6,0z"/>
</g>
<g id="_x23_6c89b4ff">
	<path class="st2" d="M0.9,110.6c4.4-40.8,30.4-78.8,67.4-96.8c3,3.8,6.6,7,10.8,9.4C52.9,35.1,31.6,57.3,21.2,84.1
		c-3.6,9.2-5.9,18.9-7.2,28.7c-0.5,0.9-1.1,1.9-1.6,2.8C8.9,113.2,5.2,110.8,0.9,110.6z"/>
	<path class="st2" d="M193.3,213.3c20.6-15.9,35.3-39.2,40.8-64.6c-0.3,6,5.8,9.8,11,11c-2.6,8.9-6.2,17.6-10.7,25.7
		c-13.6,25.3-36.5,45.2-63.2,55.8c0.6-1.1,1.1-2.2,1.7-3.3c-2.8-4-7.3-6.4-12.1-7.1C172.5,226.7,183.6,220.9,193.3,213.3z"/>
</g>
<g id="_x23_2a5adaff">
	<path class="st3" d="M119.3,32.3c1.9-1.1,3.8-2.2,5.8-3.1c2.2,0.8,4.3,2.1,6.3,3.3c22.3,13.1,44.8,25.9,67.2,38.9
		c3.2,1.8,6.6,3.6,9.6,5.7c0.4,30,0,60,0.2,89.9c0,2-0.1,4-0.2,5.9c-21.6,12.9-43.6,25.2-65.3,38.1c-5.8,3.1-11.2,6.9-17.2,9.7
		c-2.6-0.6-4.7-2.3-7-3.5C95,203.3,71,189.6,47,176c-1.7-0.9-3.3-2-4.9-3.1c-0.5-29.3,0-58.6-0.2-87.8c0-2.6,0-5.2,0.2-7.9
		c1.4-1,2.8-1.9,4.2-2.8C70.8,60.5,95.1,46.5,119.3,32.3 M110.8,77.8c-11.1,6.6-22.4,12.9-33.4,19.5c-0.3,18.4-0.3,36.9,0,55.4
		c15.9,9.2,31.6,18.7,47.7,27.5c1.7-0.7,3.3-1.4,4.8-2.3c13.9-8.2,27.9-16.2,41.8-24.3c1.9-0.7,1.6-2.9,1.7-4.6
		c0-15.7-0.1-31.4,0-47.1c-0.1-1.6,0.1-3.2-0.5-4.7c-3.1-2.4-6.7-4-10.1-6c-11.2-6.5-22.4-12.9-33.5-19.5c-1.3-0.8-2.8-1.4-4.2-2
		C120.1,72.1,115.6,75.2,110.8,77.8z"/>
</g>
<g id="_x23_3cafc2ff">
	<path class="st4" d="M0.9,110.6c4.4,0.2,8.1,2.6,11.5,5c0.5-0.9,1.1-1.9,1.6-2.8c-2.1,22,1.9,44.5,12.2,64.1
		c13.1,24.8,35.8,44.6,62.4,53.6c23.1,8.2,49,7.9,72.3,0.3c4.8,0.7,9.2,3.2,12.1,7.1c-0.6,1.1-1.1,2.2-1.7,3.3
		c-12.4,4.9-25.6,7.7-38.8,8.9h-13.8c-28.4-1.8-56.3-13-77.4-32.2C16.9,196.2,2.3,164.7,0,132.4v-13.8
		C0.2,115.9,0.5,113.3,0.9,110.6z"/>
</g>
</svg>
