<?xml version="1.0" encoding="UTF-8" ?>
<!DOCTYPE svg PUBLIC "-//W3C//DTD SVG 1.1//EN" "http://www.w3.org/Graphics/SVG/1.1/DTD/svg11.dtd">
<svg width="250pt" height="250pt" viewBox="0 0 250 250" version="1.1" xmlns="http://www.w3.org/2000/svg">
<g id="#fdfdfdff">
<path fill="#fdfdfd" opacity="1.00" d=" M 0.00 0.00 L 56.43 0.00 C 42.44 9.49 27.87 18.80 17.17 32.15 C 10.62 39.31 6.43 48.26 0.00 55.50 L 0.00 0.00 Z" />
</g>
<g id="#edededff">
<path fill="#ededed" opacity="1.00" d=" M 56.43 0.00 L 65.55 0.00 C 46.33 11.52 27.35 24.64 14.13 43.18 C 8.80 49.89 5.26 57.81 0.00 64.55 L 0.00 55.50 C 6.43 48.26 10.62 39.31 17.17 32.15 C 27.87 18.80 42.44 9.49 56.43 0.00 Z" />
</g>
<g id="#dadadaff">
<path fill="#dadada" opacity="1.00" d=" M 65.55 0.00 L 73.47 0.00 C 50.82 10.96 29.29 25.93 15.08 47.08 C 9.25 54.71 5.22 63.46 0.00 71.48 L 0.00 64.55 C 5.26 57.81 8.80 49.89 14.13 43.18 C 27.35 24.64 46.33 11.52 65.55 0.00 Z" />
</g>
<g id="#c7c7c7ff">
<path fill="#c7c7c7" opacity="1.00" d=" M 73.47 0.00 L 79.49 0.00 C 53.25 10.98 29.06 28.36 13.66 52.66 C 8.03 60.38 5.36 69.76 0.00 77.56 L 0.00 71.48 C 5.22 63.46 9.25 54.71 15.08 47.08 C 29.29 25.93 50.82 10.96 73.47 0.00 Z" />
</g>
<g id="#b4b4b2ff">
<path fill="#b4b4b2" opacity="1.00" d=" M 79.49 0.00 L 85.58 0.00 C 67.06 8.18 48.03 16.73 33.72 31.71 C 18.05 45.78 8.58 64.83 0.00 83.58 L 0.00 77.56 C 5.36 69.76 8.03 60.38 13.66 52.66 C 29.06 28.36 53.25 10.98 79.49 0.00 Z" />
</g>
<g id="#a2a199ff">
<path fill="#a2a199" opacity="1.00" d=" M 85.58 0.00 L 93.52 0.00 C 71.85 7.49 50.18 17.05 34.20 34.20 C 17.45 49.60 7.63 70.49 0.00 91.50 L 0.00 83.58 C 8.58 64.83 18.05 45.78 33.72 31.71 C 48.03 16.73 67.06 8.18 85.58 0.00 Z" />
</g>
<g id="#919081ff">
<path fill="#919081" opacity="1.00" d=" M 93.52 0.00 L 150.48 0.00 C 171.19 7.45 193.63 15.60 207.99 33.16 C 199.90 27.79 192.38 20.29 182.82 17.91 C 190.37 25.81 199.67 31.91 207.75 39.21 C 213.37 45.93 217.33 54.09 224.71 59.24 C 237.41 80.35 242.34 104.64 247.80 128.28 C 248.42 138.26 246.60 148.17 243.55 157.63 C 242.30 161.64 235.26 156.59 239.19 153.14 C 243.05 140.21 244.12 126.60 241.73 113.26 C 240.35 111.01 234.62 110.72 239.03 116.96 C 239.90 125.76 238.02 134.34 236.85 142.98 C 236.54 151.46 231.68 158.65 229.66 166.68 C 228.10 174.02 222.04 179.10 219.83 186.02 C 218.10 188.33 215.57 190.06 214.28 192.67 C 213.29 193.96 212.22 195.19 211.12 196.38 C 210.39 195.62 209.69 194.84 208.99 194.05 C 214.58 188.66 218.29 181.72 222.19 175.10 C 229.93 161.29 234.35 145.81 236.43 130.16 C 239.62 104.23 230.01 77.97 214.13 57.74 C 203.48 45.93 192.63 33.62 178.52 25.88 C 178.13 25.64 177.34 25.15 176.94 24.91 C 176.99 24.45 177.08 23.52 177.13 23.05 C 190.43 30.47 202.94 40.42 213.11 51.13 C 204.87 33.55 185.56 24.18 169.54 14.56 C 159.99 12.15 152.79 4.39 142.90 3.22 C 125.96 0.96 108.48 1.07 92.01 6.05 C 83.55 8.65 73.23 10.16 68.46 18.51 C 55.29 27.43 43.43 38.03 32.99 50.04 C 35.94 44.20 40.67 39.45 43.88 33.75 C 32.51 38.05 25.38 49.99 19.06 59.84 C 8.40 76.28 2.71 95.31 0.00 114.56 L 0.00 91.50 C 7.63 70.49 17.45 49.60 34.20 34.20 C 50.18 17.05 71.85 7.49 93.52 0.00 Z" />
</g>
<g id="#a3a28eff">
<path fill="#a3a28e" opacity="1.00" d=" M 150.48 0.00 L 158.49 0.00 C 199.42 13.90 234.64 46.43 246.07 88.88 C 247.19 93.13 247.43 97.79 250.00 101.52 L 250.00 142.41 C 244.99 152.63 245.22 165.78 238.08 174.92 C 236.35 173.88 237.08 167.87 234.50 165.54 C 232.92 157.42 240.41 150.26 239.05 141.92 C 239.53 139.60 237.51 142.71 236.85 142.98 C 238.02 134.34 239.90 125.76 239.03 116.96 C 234.62 110.72 240.35 111.01 241.73 113.26 C 244.12 126.60 243.05 140.21 239.19 153.14 C 235.26 156.59 242.30 161.64 243.55 157.63 C 246.60 148.17 248.42 138.26 247.80 128.28 C 250.19 92.55 233.37 57.60 207.99 33.16 C 193.63 15.60 171.19 7.45 150.48 0.00 Z" />
</g>
<g id="#b0b0a7ff">
<path fill="#b0b0a7" opacity="1.00" d=" M 158.49 0.00 L 164.52 0.00 C 200.18 14.15 231.57 41.59 244.75 78.29 C 246.76 82.62 246.69 87.93 250.00 91.57 L 250.00 101.52 C 247.43 97.79 247.19 93.13 246.07 88.88 C 234.64 46.43 199.42 13.90 158.49 0.00 Z" />
</g>
<g id="#c1c0beff">
<path fill="#c1c0be" opacity="1.00" d=" M 164.52 0.00 L 170.44 0.00 C 193.87 11.04 216.31 26.08 230.97 48.05 C 239.62 58.94 243.83 72.27 250.00 84.49 L 250.00 91.57 C 246.69 87.93 246.76 82.62 244.75 78.29 C 231.57 41.59 200.18 14.15 164.52 0.00 Z" />
</g>
<g id="#d3d3d2ff">
<path fill="#d3d3d2" opacity="1.00" d=" M 170.44 0.00 L 177.46 0.00 C 194.23 10.18 211.38 20.49 224.22 35.78 C 235.35 47.61 242.34 62.41 250.00 76.50 L 250.00 84.49 C 243.83 72.27 239.62 58.94 230.97 48.05 C 216.31 26.08 193.87 11.04 170.44 0.00 Z" />
</g>
<g id="#e4e4e4ff">
<path fill="#e4e4e4" opacity="1.00" d=" M 177.46 0.00 L 183.58 0.00 C 204.78 12.40 225.01 27.75 238.00 49.02 C 242.63 55.48 245.53 62.94 250.00 69.49 L 250.00 76.50 C 242.34 62.41 235.35 47.61 224.22 35.78 C 211.38 20.49 194.23 10.18 177.46 0.00 Z" />
</g>
<g id="#f3f3f3ff">
<path fill="#f3f3f3" opacity="1.00" d=" M 183.58 0.00 L 192.47 0.00 C 213.69 13.38 233.15 30.36 245.14 52.80 C 246.51 55.21 248.05 57.53 250.00 59.51 L 250.00 69.49 C 245.53 62.94 242.63 55.48 238.00 49.02 C 225.01 27.75 204.78 12.40 183.58 0.00 Z" />
</g>
<g id="#fefefeff">
<path fill="#fefefe" opacity="1.00" d=" M 192.47 0.00 L 250.00 0.00 L 250.00 59.51 C 248.05 57.53 246.51 55.21 245.14 52.80 C 233.15 30.36 213.69 13.38 192.47 0.00 Z" />
<path fill="#fefefe" opacity="1.00" d=" M 204.92 239.90 C 223.73 227.36 237.62 209.13 250.00 190.56 L 250.00 250.00 L 189.50 250.00 C 194.16 245.93 200.00 243.61 204.92 239.90 Z" />
<path fill="#fefefe" opacity="1.00" d=" M 0.00 193.58 C 13.67 217.73 35.00 235.99 58.53 250.00 L 0.00 250.00 L 0.00 193.58 Z" />
</g>
<g id="#a8a8a3ff">
<path fill="#a8a8a3" opacity="1.00" d=" M 92.01 6.05 C 108.48 1.07 125.96 0.96 142.90 3.22 C 152.79 4.39 159.99 12.15 169.54 14.56 C 185.56 24.18 204.87 33.55 213.11 51.13 C 202.94 40.42 190.43 30.47 177.13 23.05 C 177.08 23.52 176.99 24.45 176.94 24.91 C 172.68 22.25 167.23 20.90 164.89 16.06 C 157.64 13.56 150.64 9.39 142.68 10.50 C 143.63 11.81 144.82 12.92 145.95 14.08 C 142.99 12.84 138.96 12.98 138.89 17.10 C 141.66 15.50 145.48 14.82 143.17 19.41 C 140.68 18.36 133.91 19.25 136.93 15.88 C 139.97 13.30 135.16 9.67 141.19 10.78 C 138.52 6.35 134.36 13.01 131.07 8.94 C 130.54 7.48 130.49 6.00 131.77 4.93 C 127.59 4.83 123.43 4.41 119.26 4.14 C 117.28 5.62 120.56 6.69 118.22 8.52 C 112.52 6.93 119.74 20.03 111.94 18.10 C 114.97 14.14 113.21 13.28 108.87 14.60 C 105.64 13.56 108.65 9.94 108.74 7.67 C 106.62 9.10 104.78 10.88 102.78 12.44 C 102.64 12.03 102.35 11.19 102.21 10.78 C 102.09 10.40 101.84 9.65 101.71 9.28 C 94.30 10.97 85.67 11.35 79.83 16.81 C 61.75 22.14 46.70 35.78 35.73 50.77 C 34.77 52.07 34.17 53.61 34.56 55.24 C 26.96 62.84 24.04 73.64 18.02 82.26 C 18.69 69.95 27.63 60.51 32.99 50.04 C 43.43 38.03 55.29 27.43 68.46 18.51 C 73.23 10.16 83.55 8.65 92.01 6.05 Z" />
</g>
<g id="#8e8e8eff">
<path fill="#8e8e8e" opacity="1.00" d=" M 119.26 4.14 C 123.43 4.41 127.59 4.83 131.77 4.93 C 130.49 6.00 130.54 7.48 131.07 8.94 C 127.83 9.03 123.64 10.28 123.57 6.10 C 120.26 6.06 120.31 10.84 119.26 13.20 C 118.98 11.63 118.63 10.07 118.22 8.52 C 120.56 6.69 117.28 5.62 119.26 4.14 Z" />
</g>
<g id="#b9b9b9ff">
<path fill="#b9b9b9" opacity="1.00" d=" M 119.26 13.20 C 120.31 10.84 120.26 6.06 123.57 6.10 C 123.64 10.28 127.83 9.03 131.07 8.94 C 130.21 11.69 131.53 17.47 127.36 17.15 C 128.80 12.17 116.08 20.44 119.26 13.20 Z" />
</g>
<g id="#c3c3c3ff">
<path fill="#c3c3c3" opacity="1.00" d=" M 102.78 12.44 C 104.78 10.88 106.62 9.10 108.74 7.67 C 108.65 9.94 105.64 13.56 108.87 14.60 C 106.75 15.18 106.09 17.21 105.44 19.05 C 103.87 17.19 103.42 14.72 102.78 12.44 Z" />
</g>
<g id="#ebebeaff">
<path fill="#ebebea" opacity="1.00" d=" M 111.94 18.10 C 119.74 20.03 112.52 6.93 118.22 8.52 C 118.63 10.07 118.98 11.63 119.26 13.20 C 116.08 20.44 128.80 12.17 127.36 17.15 C 131.53 17.47 130.21 11.69 131.07 8.94 C 134.36 13.01 138.52 6.35 141.19 10.78 C 135.16 9.67 139.97 13.30 136.93 15.88 C 133.91 19.25 140.68 18.36 143.17 19.41 C 145.72 21.16 144.63 14.90 147.32 17.71 C 148.65 20.06 155.17 26.45 149.80 27.31 C 149.37 27.21 148.51 26.99 148.09 26.89 C 147.06 25.54 145.28 25.59 143.84 26.14 L 143.13 25.78 C 141.68 24.51 139.69 24.64 137.95 25.10 C 137.53 25.04 136.68 24.92 136.26 24.85 C 128.19 24.05 119.67 22.76 111.68 24.76 C 111.27 24.87 110.46 25.08 110.05 25.19 C 108.36 24.63 106.28 24.39 104.99 25.91 C 103.57 25.57 102.02 25.69 100.86 26.67 C 86.55 30.58 72.66 36.47 61.21 46.11 C 57.76 43.16 52.89 44.92 48.81 44.27 C 50.41 42.96 51.93 41.54 53.43 40.11 C 60.71 33.40 68.88 27.79 77.54 23.03 C 79.84 21.85 82.06 20.53 84.16 19.04 C 80.93 19.54 76.08 21.21 79.83 16.81 C 87.14 14.34 94.43 11.33 102.21 10.78 C 102.35 11.19 102.64 12.03 102.78 12.44 C 103.42 14.72 103.87 17.19 105.44 19.05 C 106.09 17.21 106.75 15.18 108.87 14.60 C 113.21 13.28 114.97 14.14 111.94 18.10 M 135.31 13.26 C 134.13 13.79 132.55 15.20 133.21 16.61 C 134.63 17.11 137.12 13.96 135.31 13.26 Z" />
</g>
<g id="#cbcbcaff">
<path fill="#cbcbca" opacity="1.00" d=" M 79.83 16.81 C 85.67 11.35 94.30 10.97 101.71 9.28 C 101.84 9.65 102.09 10.40 102.21 10.78 C 94.43 11.33 87.14 14.34 79.83 16.81 Z" />
</g>
<g id="#c8c8c7ff">
<path fill="#c8c8c7" opacity="1.00" d=" M 142.68 10.50 C 150.64 9.39 157.64 13.56 164.89 16.06 C 167.23 20.90 172.68 22.25 176.94 24.91 C 177.34 25.15 178.13 25.64 178.52 25.88 C 173.96 27.26 169.22 28.81 166.80 33.29 C 161.29 30.88 155.61 28.85 149.80 27.31 C 155.17 26.45 148.65 20.06 147.32 17.71 C 144.63 14.90 145.72 21.16 143.17 19.41 C 145.48 14.82 141.66 15.50 138.89 17.10 C 138.96 12.98 142.99 12.84 145.95 14.08 C 144.82 12.92 143.63 11.81 142.68 10.50 Z" />
</g>
<g id="#acacadff">
<path fill="#acacad" opacity="1.00" d=" M 135.31 13.26 C 137.12 13.96 134.63 17.11 133.21 16.61 C 132.55 15.20 134.13 13.79 135.31 13.26 Z" />
</g>
<g id="#d0cfcaff">
<path fill="#d0cfca" opacity="1.00" d=" M 35.73 50.77 C 46.70 35.78 61.75 22.14 79.83 16.81 C 76.08 21.21 80.93 19.54 84.16 19.04 C 82.06 20.53 79.84 21.85 77.54 23.03 C 67.87 23.30 59.35 33.85 50.84 38.58 C 44.88 43.56 39.51 49.25 34.56 55.24 C 34.17 53.61 34.77 52.07 35.73 50.77 Z" />
</g>
<g id="#80807aff">
<path fill="#80807a" opacity="1.00" d=" M 182.82 17.91 C 192.38 20.29 199.90 27.79 207.99 33.16 C 233.37 57.60 250.19 92.55 247.80 128.28 C 242.34 104.64 237.41 80.35 224.71 59.24 C 217.33 54.09 213.37 45.93 207.75 39.21 C 199.67 31.91 190.37 25.81 182.82 17.91 Z" />
</g>
<g id="#ababa7ff">
<path fill="#ababa7" opacity="1.00" d=" M 50.84 38.58 C 59.35 33.85 67.87 23.30 77.54 23.03 C 68.88 27.79 60.71 33.40 53.43 40.11 C 52.78 39.73 51.49 38.97 50.84 38.58 Z" />
</g>
<g id="#797979ff">
<path fill="#797979" opacity="1.00" d=" M 111.68 24.76 C 119.67 22.76 128.19 24.05 136.26 24.85 C 128.07 24.97 119.87 25.10 111.68 24.76 Z" />
</g>
<g id="#898989ff">
<path fill="#898989" opacity="1.00" d=" M 104.99 25.91 C 106.28 24.39 108.36 24.63 110.05 25.19 C 108.68 26.50 106.69 26.42 104.99 25.91 Z" />
<path fill="#898989" opacity="1.00" d=" M 138.89 224.83 C 139.93 223.49 141.73 223.62 143.13 224.24 C 142.02 225.44 140.31 225.38 138.89 224.83 Z" />
</g>
<g id="#1e1e1bff">
<path fill="#1e1e1b" opacity="1.00" d=" M 110.05 25.19 C 110.46 25.08 111.27 24.87 111.68 24.76 C 119.87 25.10 128.07 24.97 136.26 24.85 C 136.68 24.92 137.53 25.04 137.95 25.10 C 139.29 26.59 141.40 26.38 143.13 25.78 L 143.84 26.14 C 144.90 27.42 146.64 27.39 148.09 26.89 C 148.51 26.99 149.37 27.21 149.80 27.31 C 155.61 28.85 161.29 30.88 166.80 33.29 C 183.50 41.12 197.48 53.54 208.23 68.40 C 221.16 87.84 227.37 111.74 224.60 135.01 C 223.60 137.38 223.46 139.71 224.20 142.02 C 222.08 152.99 218.39 163.77 212.87 173.50 C 210.37 177.70 207.96 181.99 204.93 185.84 C 189.89 205.58 167.53 219.54 143.13 224.24 C 141.73 223.62 139.93 223.49 138.89 224.83 C 138.24 224.96 136.95 225.22 136.31 225.35 C 128.52 225.02 120.74 224.97 112.95 224.92 C 112.49 224.90 111.57 224.85 111.10 224.82 C 109.69 223.40 107.60 223.62 105.89 224.29 C 99.24 222.95 92.58 221.46 86.32 218.77 C 80.12 215.66 73.52 213.19 68.02 208.82 C 56.27 200.81 46.18 190.60 38.27 178.81 C 36.77 175.91 35.12 173.08 33.87 170.05 C 36.59 171.55 38.39 177.22 42.00 174.00 C 43.24 172.44 48.55 172.34 45.91 170.04 C 34.76 161.07 43.71 147.61 47.09 137.09 C 47.66 135.59 48.34 133.88 50.28 134.06 C 48.92 143.21 39.87 153.78 46.80 162.27 C 55.60 165.78 63.51 150.22 71.93 156.24 C 71.51 168.08 70.40 180.48 75.32 191.67 C 76.70 193.66 78.70 195.22 81.00 195.99 C 89.46 193.73 86.90 178.10 96.72 179.17 C 102.46 184.75 104.70 194.17 112.37 197.74 C 125.69 201.48 114.97 182.28 124.09 179.01 C 128.75 179.92 131.04 187.27 137.03 185.04 C 146.46 185.12 135.32 167.36 144.81 166.29 C 153.59 171.14 155.72 187.75 168.88 183.86 C 180.56 182.35 185.70 168.87 183.45 158.58 C 182.17 154.42 176.50 151.97 177.15 147.28 C 178.51 144.94 181.17 144.91 183.56 144.88 C 191.63 152.92 200.54 141.53 205.62 135.63 C 210.64 130.13 212.19 121.11 205.97 116.02 C 198.11 107.78 183.43 111.29 176.94 101.05 C 171.26 92.39 159.72 87.16 160.68 75.15 C 156.32 66.13 148.15 58.02 139.45 53.01 C 137.72 60.40 132.58 67.93 123.72 65.01 C 122.82 64.62 121.91 64.24 121.00 63.87 C 112.28 62.26 105.51 54.02 96.19 56.10 C 94.80 61.78 96.78 69.12 90.81 72.58 C 88.45 72.50 86.08 72.35 83.72 72.66 C 86.22 69.80 90.27 69.32 92.89 66.72 C 93.40 62.63 90.79 56.88 94.74 53.73 C 98.61 50.31 104.12 52.46 107.76 55.22 C 113.58 59.38 121.10 58.55 127.42 61.55 C 136.95 64.99 132.14 50.68 139.39 49.28 C 144.98 46.65 147.58 52.37 150.18 55.89 C 153.28 61.49 159.51 63.80 163.78 68.21 C 168.66 73.65 162.39 82.54 168.76 87.24 C 174.76 92.31 178.40 99.58 184.35 104.61 C 192.07 107.66 200.87 107.33 208.01 111.97 C 210.57 112.63 217.39 118.87 213.62 110.41 C 209.44 100.80 198.49 97.05 189.40 93.52 C 171.46 83.01 161.88 63.16 159.08 43.24 C 162.15 40.95 167.21 44.44 170.11 40.08 C 176.23 35.94 162.28 36.73 160.14 37.07 C 156.69 39.09 154.82 50.76 149.26 44.78 C 143.85 42.53 147.80 36.86 145.80 33.03 C 135.11 33.01 127.48 44.35 116.39 41.76 C 106.67 41.33 95.11 35.31 86.91 42.82 C 78.76 45.57 79.60 57.20 71.24 60.21 C 67.61 63.67 62.68 62.08 58.21 62.12 C 55.84 65.80 55.18 70.73 51.03 73.04 C 43.07 78.47 39.12 87.73 31.35 93.31 C 27.45 97.21 27.55 103.30 24.78 107.87 C 24.82 107.10 24.91 105.57 24.95 104.80 C 26.11 99.50 27.60 94.29 29.38 89.17 C 32.15 82.64 35.19 76.24 39.07 70.29 C 45.30 61.27 52.55 52.87 61.21 46.11 C 72.66 36.47 86.55 30.58 100.86 26.67 C 102.21 27.35 104.29 27.62 104.99 25.91 C 106.69 26.42 108.68 26.50 110.05 25.19 Z" />
</g>
<g id="#777777ff">
<path fill="#777777" opacity="1.00" d=" M 137.95 25.10 C 139.69 24.64 141.68 24.51 143.13 25.78 C 141.40 26.38 139.29 26.59 137.95 25.10 Z" />
</g>
<g id="#787878ff">
<path fill="#787878" opacity="1.00" d=" M 100.86 26.67 C 102.02 25.69 103.57 25.57 104.99 25.91 C 104.29 27.62 102.21 27.35 100.86 26.67 Z" />
</g>
<g id="#7d7d7dff">
<path fill="#7d7d7d" opacity="1.00" d=" M 143.84 26.14 C 145.28 25.59 147.06 25.54 148.09 26.89 C 146.64 27.39 144.90 27.42 143.84 26.14 Z" />
</g>
<g id="#a6a6a1ff">
<path fill="#a6a6a1" opacity="1.00" d=" M 178.52 25.88 C 192.63 33.62 203.48 45.93 214.13 57.74 C 209.23 59.80 207.78 63.45 208.23 68.40 C 197.48 53.54 183.50 41.12 166.80 33.29 C 169.22 28.81 173.96 27.26 178.52 25.88 Z" />
</g>
<g id="#161613ff">
<path fill="#161613" opacity="1.00" d=" M 116.39 41.76 C 127.48 44.35 135.11 33.01 145.80 33.03 C 147.80 36.86 143.85 42.53 149.26 44.78 C 154.82 50.76 156.69 39.09 160.14 37.07 C 162.28 36.73 176.23 35.94 170.11 40.08 C 167.21 44.44 162.15 40.95 159.08 43.24 C 161.88 63.16 171.46 83.01 189.40 93.52 C 198.49 97.05 209.44 100.80 213.62 110.41 C 217.39 118.87 210.57 112.63 208.01 111.97 C 200.87 107.33 192.07 107.66 184.35 104.61 C 178.40 99.58 174.76 92.31 168.76 87.24 C 162.39 82.54 168.66 73.65 163.78 68.21 C 159.51 63.80 153.28 61.49 150.18 55.89 C 147.58 52.37 144.98 46.65 139.39 49.28 C 132.14 50.68 136.95 64.99 127.42 61.55 C 121.10 58.55 113.58 59.38 107.76 55.22 C 104.12 52.46 98.61 50.31 94.74 53.73 C 90.79 56.88 93.40 62.63 92.89 66.72 C 90.27 69.32 86.22 69.80 83.72 72.66 C 64.70 80.04 49.40 95.76 41.42 114.41 C 38.52 125.21 49.03 120.88 54.85 119.04 C 57.76 123.99 51.57 129.17 50.28 134.06 C 48.34 133.88 47.66 135.59 47.09 137.09 C 43.71 147.61 34.76 161.07 45.91 170.04 C 48.55 172.34 43.24 172.44 42.00 174.00 C 38.39 177.22 36.59 171.55 33.87 170.05 C 33.61 169.84 33.10 169.42 32.84 169.21 C 28.89 160.13 25.98 150.65 24.43 140.86 C 24.18 139.66 23.93 138.47 23.67 137.28 C 24.05 129.11 24.13 120.92 23.74 112.75 C 23.93 111.10 24.29 109.46 24.78 107.87 C 27.55 103.30 27.45 97.21 31.35 93.31 C 39.12 87.73 43.07 78.47 51.03 73.04 C 55.18 70.73 55.84 65.80 58.21 62.12 C 62.68 62.08 67.61 63.67 71.24 60.21 C 79.60 57.20 78.76 45.57 86.91 42.82 C 95.11 35.31 106.67 41.33 116.39 41.76 Z" />
</g>
<g id="#72726cff">
<path fill="#72726c" opacity="1.00" d=" M 19.06 59.84 C 25.38 49.99 32.51 38.05 43.88 33.75 C 40.67 39.45 35.94 44.20 32.99 50.04 C 19.97 63.50 14.81 82.23 9.95 99.83 C 5.14 117.07 7.84 134.60 11.25 151.73 L 10.29 151.80 C 9.03 139.78 4.43 128.25 5.99 115.98 C 6.69 98.25 14.09 81.81 19.00 65.00 C 19.23 63.27 22.44 59.58 19.06 59.84 Z" />
</g>
<g id="#8e8d83ff">
<path fill="#8e8d83" opacity="1.00" d=" M 34.56 55.24 C 39.51 49.25 44.88 43.56 50.84 38.58 C 51.49 38.97 52.78 39.73 53.43 40.11 C 51.93 41.54 50.41 42.96 48.81 44.27 C 41.59 50.03 36.27 57.69 30.74 64.98 C 25.79 73.43 19.31 82.08 19.04 92.25 C 22.86 91.61 25.40 86.04 29.38 89.17 C 27.60 94.29 26.11 99.50 24.95 104.80 C 24.27 104.93 22.91 105.19 22.22 105.32 C 20.14 114.50 16.67 123.83 18.55 133.39 C 18.95 135.89 17.84 139.70 15.06 140.17 C 11.37 129.69 13.78 118.53 12.81 107.71 C 9.35 116.32 10.38 126.14 10.90 135.21 C 6.19 125.03 9.98 111.37 9.95 99.83 C 14.81 82.23 19.97 63.50 32.99 50.04 C 27.63 60.51 18.69 69.95 18.02 82.26 C 24.04 73.64 26.96 62.84 34.56 55.24 Z" />
</g>
<g id="#c3c3beff">
<path fill="#c3c3be" opacity="1.00" d=" M 30.74 64.98 C 36.27 57.69 41.59 50.03 48.81 44.27 C 52.89 44.92 57.76 43.16 61.21 46.11 C 52.55 52.87 45.30 61.27 39.07 70.29 C 38.84 63.78 31.76 69.02 30.74 64.98 Z" />
</g>
<g id="#504d2bff">
<path fill="#504d2b" opacity="1.00" d=" M 139.45 53.01 C 148.15 58.02 156.32 66.13 160.68 75.15 C 159.72 87.16 171.26 92.39 176.94 101.05 C 183.43 111.29 198.11 107.78 205.97 116.02 C 212.19 121.11 210.64 130.13 205.62 135.63 C 200.54 141.53 191.63 152.92 183.56 144.88 C 185.96 143.13 187.85 146.81 190.05 145.45 C 193.06 143.39 195.76 140.89 198.22 138.20 C 199.50 136.78 200.69 135.29 201.98 133.88 C 205.12 130.90 207.79 126.98 206.75 122.33 C 203.66 115.35 195.83 113.60 189.19 111.86 C 185.72 110.84 182.25 110.85 178.79 111.89 C 176.77 112.26 174.73 112.91 172.69 112.26 C 173.12 111.98 173.97 111.42 174.39 111.14 C 176.30 110.29 182.51 108.56 178.41 106.54 C 175.27 103.99 173.53 106.17 172.25 109.16 C 169.52 109.47 168.56 109.00 170.82 107.08 C 171.85 105.01 167.09 99.15 171.16 101.83 C 175.30 104.75 171.88 97.88 169.73 97.29 C 163.09 92.60 159.22 84.93 152.09 80.90 C 147.73 77.92 142.88 75.23 139.93 70.69 C 138.73 68.96 137.52 67.21 135.94 65.80 C 135.91 68.53 137.39 70.87 138.80 73.08 C 139.32 74.41 141.07 77.29 138.41 75.53 C 134.15 71.17 129.06 67.89 123.72 65.01 C 132.58 67.93 137.72 60.40 139.45 53.01 M 140.07 54.82 C 137.58 65.21 146.17 72.88 153.68 78.33 C 155.23 79.16 157.44 81.01 158.83 78.90 C 156.37 68.36 144.90 64.00 140.07 54.82 Z" />
</g>
<g id="#b1b1afff">
<path fill="#b1b1af" opacity="1.00" d=" M 140.07 54.82 C 144.90 64.00 156.37 68.36 158.83 78.90 C 157.44 81.01 155.23 79.16 153.68 78.33 C 146.17 72.88 137.58 65.21 140.07 54.82 Z" />
</g>
<g id="#4e4c29ff">
<path fill="#4e4c29" opacity="1.00" d=" M 96.19 56.10 C 105.51 54.02 112.28 62.26 121.00 63.87 C 120.51 63.93 119.52 64.04 119.03 64.10 C 122.14 67.56 125.29 71.01 127.72 74.99 C 128.56 76.29 129.43 77.58 130.24 78.90 C 129.97 79.47 129.43 80.60 129.16 81.16 C 120.27 71.16 110.41 60.55 97.07 56.85 C 97.69 60.21 98.67 63.49 99.28 66.86 C 99.41 68.44 99.68 71.61 99.81 73.19 L 100.22 73.89 C 99.62 75.61 99.51 77.59 100.68 79.11 C 101.91 82.52 103.50 85.79 105.05 89.07 C 101.18 87.63 99.55 81.94 94.27 84.09 C 93.69 86.03 93.28 88.00 92.94 89.99 C 89.52 89.95 86.08 89.82 82.74 90.64 C 81.41 90.75 80.08 90.82 78.75 90.85 C 83.27 87.99 88.25 86.04 93.10 83.83 C 87.78 81.44 92.75 79.11 95.90 77.75 C 95.31 76.02 95.79 72.17 93.01 73.10 C 78.39 77.08 64.74 85.51 55.71 97.81 C 50.19 104.44 45.78 112.00 43.08 120.21 C 49.05 117.46 54.76 114.05 61.18 112.39 C 63.45 111.87 65.71 111.24 68.04 111.12 C 65.28 115.34 62.33 119.45 59.67 123.74 C 56.73 128.10 54.71 132.96 52.71 137.80 C 49.93 145.30 47.75 153.20 46.98 161.16 C 51.85 158.92 56.23 155.73 61.05 153.36 C 66.47 151.14 72.26 149.85 78.04 148.99 C 77.61 152.67 76.23 156.15 75.64 159.81 C 73.71 171.38 74.99 183.58 80.35 194.08 C 84.05 189.34 85.61 183.25 89.04 178.27 C 91.54 175.44 93.91 172.23 97.68 171.02 C 101.76 181.18 108.32 190.19 116.83 197.11 C 116.16 192.12 116.11 187.10 116.95 182.13 C 118.51 177.89 120.31 173.69 122.93 169.98 C 129.63 168.34 128.63 184.64 137.96 183.09 C 137.94 176.68 135.07 169.74 138.90 163.94 C 139.98 162.23 141.39 157.64 144.01 160.14 C 152.43 164.73 154.61 174.88 161.87 180.26 C 163.99 181.97 167.45 182.51 169.15 180.17 C 172.57 178.73 176.07 177.07 178.37 174.04 C 179.79 171.74 179.93 169.41 178.78 167.07 C 179.73 165.73 180.69 164.39 181.54 162.98 C 183.37 160.93 182.52 156.58 179.88 158.75 C 179.31 157.40 178.78 156.04 178.08 154.76 C 175.56 156.65 173.75 159.58 170.91 160.99 C 165.89 161.11 167.36 153.39 165.71 150.13 C 165.57 148.55 165.30 145.38 165.16 143.80 C 164.86 141.09 164.07 138.34 164.74 135.62 C 168.89 140.64 167.53 147.83 170.95 153.28 C 173.20 157.29 174.17 151.84 172.75 148.95 C 173.26 142.76 178.90 139.79 182.00 135.35 C 179.25 134.46 176.50 133.59 173.72 132.80 C 175.20 132.36 176.69 131.96 178.20 131.62 C 180.55 132.10 182.77 133.05 184.95 134.04 C 184.93 135.76 184.88 139.19 184.85 140.91 C 184.41 142.23 183.99 143.55 183.56 144.88 C 181.17 144.91 178.51 144.94 177.15 147.28 C 176.50 151.97 182.17 154.42 183.45 158.58 C 185.70 168.87 180.56 182.35 168.88 183.86 C 155.72 187.75 153.59 171.14 144.81 166.29 C 135.32 167.36 146.46 185.12 137.03 185.04 C 131.04 187.27 128.75 179.92 124.09 179.01 C 114.97 182.28 125.69 201.48 112.37 197.74 C 104.70 194.17 102.46 184.75 96.72 179.17 C 86.90 178.10 89.46 193.73 81.00 195.99 C 78.70 195.22 76.70 193.66 75.32 191.67 C 70.40 180.48 71.51 168.08 71.93 156.24 C 63.51 150.22 55.60 165.78 46.80 162.27 C 39.87 153.78 48.92 143.21 50.28 134.06 C 51.57 129.17 57.76 123.99 54.85 119.04 C 49.03 120.88 38.52 125.21 41.42 114.41 C 49.40 95.76 64.70 80.04 83.72 72.66 C 86.08 72.35 88.45 72.50 90.81 72.58 C 96.78 69.12 94.80 61.78 96.19 56.10 Z" />
</g>
<g id="#dadad9ff">
<path fill="#dadad9" opacity="1.00" d=" M 97.07 56.85 C 110.41 60.55 120.27 71.16 129.16 81.16 C 130.01 83.14 131.18 85.01 133.03 86.18 C 132.51 83.62 131.71 81.08 130.24 78.90 C 129.43 77.58 128.56 76.29 127.72 74.99 C 128.45 73.80 128.70 70.87 130.62 72.43 C 141.62 79.93 152.26 87.92 162.26 96.73 C 163.60 97.92 162.83 99.53 161.01 99.19 C 157.92 97.32 154.48 95.77 150.78 96.02 C 155.87 99.47 162.34 101.94 165.42 107.63 C 166.47 109.19 166.20 111.56 164.15 112.05 C 159.93 107.22 154.50 103.31 148.24 101.66 C 147.02 102.20 136.88 98.79 139.63 102.98 C 143.72 106.26 148.08 109.23 152.06 112.66 C 145.84 113.11 151.60 116.42 154.76 116.20 C 158.23 117.14 161.71 117.15 165.19 116.24 C 168.83 115.32 167.93 109.88 171.85 109.76 C 172.48 110.10 173.75 110.80 174.39 111.14 C 173.97 111.42 173.12 111.98 172.69 112.26 C 168.39 116.48 178.80 113.27 181.66 114.36 C 186.65 115.27 190.63 118.38 194.21 121.83 C 192.37 121.08 182.48 121.62 187.60 124.09 C 188.18 124.32 189.34 124.78 189.92 125.00 C 192.83 125.92 195.99 125.91 199.02 126.13 C 198.88 127.48 198.31 128.72 197.84 129.98 C 194.04 136.89 204.08 128.00 201.98 133.88 C 200.69 135.29 199.50 136.78 198.22 138.20 C 197.19 137.08 195.42 134.76 194.11 136.90 C 193.83 137.17 193.27 137.70 192.99 137.97 C 192.32 137.37 191.64 136.79 190.94 136.25 C 189.72 135.67 188.68 135.94 187.81 137.05 C 184.43 140.41 192.41 139.48 188.24 141.92 C 186.61 142.52 184.26 143.85 184.85 140.91 C 186.09 138.85 188.04 135.14 184.95 134.04 C 182.77 133.05 180.55 132.10 178.20 131.62 C 175.56 131.51 170.27 131.28 167.63 131.17 C 169.38 132.56 171.51 133.08 173.72 132.80 C 176.50 133.59 179.25 134.46 182.00 135.35 C 178.90 139.79 173.26 142.76 172.75 148.95 C 172.09 150.37 171.51 151.82 170.95 153.28 C 167.53 147.83 168.89 140.64 164.74 135.62 C 163.33 133.93 162.71 136.79 162.45 137.92 C 155.75 134.58 161.33 143.30 162.31 146.32 C 163.15 148.27 164.60 144.63 165.16 143.80 C 165.30 145.38 165.57 148.55 165.71 150.13 C 167.36 153.39 165.89 161.11 170.91 160.99 C 173.75 159.58 175.56 156.65 178.08 154.76 C 177.99 158.59 177.59 162.42 177.12 166.22 C 179.56 164.54 179.24 161.37 179.88 158.75 C 180.37 160.18 180.92 161.59 181.54 162.98 C 180.69 164.39 179.73 165.73 178.78 167.07 C 177.19 169.46 177.06 171.78 178.37 174.04 C 176.07 177.07 172.57 178.73 169.15 180.17 C 167.33 180.19 163.69 180.24 161.87 180.26 C 154.61 174.88 152.43 164.73 144.01 160.14 C 143.48 156.67 144.10 152.65 149.29 152.74 L 150.16 153.20 C 151.67 156.25 156.12 159.27 153.43 162.81 C 155.73 163.82 158.14 164.65 160.25 166.07 C 159.18 166.52 155.77 167.43 157.81 168.85 C 161.73 172.09 167.36 176.31 172.01 171.81 C 167.19 163.80 158.20 158.27 153.20 149.93 C 152.16 147.91 151.84 151.22 151.10 151.93 C 149.54 149.64 149.19 139.60 145.78 142.07 C 145.53 141.53 145.01 140.43 144.76 139.88 C 147.15 135.70 150.68 132.12 155.33 130.61 C 158.79 132.00 151.44 136.86 151.95 140.06 C 155.39 136.03 159.12 132.30 163.28 129.02 C 160.67 129.23 155.45 129.64 152.84 129.84 C 152.43 129.94 151.59 130.13 151.18 130.23 C 150.55 129.91 149.29 129.26 148.65 128.94 C 153.05 127.43 157.59 126.28 162.20 125.71 C 177.96 127.06 159.73 121.62 154.74 124.62 C 146.91 126.56 139.72 130.46 133.89 136.05 C 134.44 132.99 135.54 130.07 136.13 127.02 C 130.03 130.77 123.16 134.18 118.85 140.10 C 122.41 139.72 125.64 138.08 128.96 136.88 C 126.22 141.25 123.33 145.52 120.82 150.03 C 117.36 146.81 113.74 143.76 110.16 140.69 C 109.80 137.40 112.60 134.67 113.83 131.77 C 114.18 131.54 114.88 131.06 115.23 130.83 C 119.27 125.58 108.02 128.70 105.71 128.95 L 104.87 129.09 C 104.31 128.79 103.18 128.20 102.62 127.90 C 105.73 123.78 110.58 121.62 114.06 118.01 C 111.59 115.30 103.00 117.52 98.70 117.98 L 97.89 118.12 C 97.37 117.86 96.34 117.32 95.83 117.05 C 99.27 114.66 102.79 112.26 106.78 110.88 C 110.13 112.11 114.43 108.64 109.11 107.91 C 107.51 107.45 105.88 107.08 104.23 106.86 C 102.26 105.85 95.38 107.54 97.98 103.93 C 104.20 102.11 110.32 99.84 116.70 98.63 C 120.21 99.75 133.65 99.05 124.99 95.96 C 117.61 95.39 109.96 95.45 105.05 89.07 C 103.50 85.79 101.91 82.52 100.68 79.11 C 101.36 77.41 101.61 75.32 100.22 73.89 L 99.81 73.19 C 99.68 71.61 99.41 68.44 99.28 66.86 C 98.67 63.49 97.69 60.21 97.07 56.85 M 107.87 71.97 C 108.81 75.61 111.14 78.66 112.94 81.91 C 111.45 82.31 107.93 81.11 109.17 83.78 C 111.68 86.43 116.70 86.72 117.36 90.76 C 121.34 91.31 125.42 91.30 129.21 92.84 C 124.13 84.35 116.49 76.81 107.87 71.97 M 127.29 106.28 C 122.96 108.47 123.52 112.82 128.23 113.78 C 134.46 117.88 125.70 120.80 124.88 125.02 C 127.92 122.74 131.17 120.75 134.85 119.66 C 135.56 115.19 130.58 112.72 128.20 109.76 C 128.08 108.29 130.16 104.80 127.29 106.28 M 155.95 146.89 C 156.51 152.62 162.02 156.54 166.04 160.12 C 164.34 154.83 159.71 150.77 155.95 146.89 M 175.28 160.27 C 174.22 160.72 172.50 162.21 173.64 163.39 C 175.36 165.08 177.33 160.75 175.28 160.27 Z" />
</g>
<g id="#9a9994ff">
<path fill="#9a9994" opacity="1.00" d=" M 208.23 68.40 C 207.78 63.45 209.23 59.80 214.13 57.74 C 230.01 77.97 239.62 104.23 236.43 130.16 C 235.69 129.15 235.23 125.52 233.72 127.75 C 231.50 132.24 230.74 137.45 228.71 142.10 C 227.54 140.71 226.62 139.14 225.65 137.61 C 225.39 136.96 224.86 135.66 224.60 135.01 C 227.37 111.74 221.16 87.84 208.23 68.40 Z" />
</g>
<g id="#5a5956ff">
<path fill="#5a5956" opacity="1.00" d=" M 19.06 59.84 C 22.44 59.58 19.23 63.27 19.00 65.00 C 14.09 81.81 6.69 98.25 5.99 115.98 C 4.43 128.25 9.03 139.78 10.29 151.80 C 13.81 170.77 22.77 188.41 34.22 203.78 C 37.28 208.08 42.76 210.03 45.41 214.62 C 47.30 216.78 43.15 216.72 41.86 217.38 C 31.27 207.70 22.16 196.59 14.75 184.30 C 7.43 168.43 2.07 151.81 0.00 134.44 L 0.00 114.56 C 2.71 95.31 8.40 76.28 19.06 59.84 Z" />
</g>
<g id="#bdbdbbff">
<path fill="#bdbdbb" opacity="1.00" d=" M 119.03 64.10 C 119.52 64.04 120.51 63.93 121.00 63.87 C 121.91 64.24 122.82 64.62 123.72 65.01 C 129.06 67.89 134.15 71.17 138.41 75.53 C 141.07 77.29 139.32 74.41 138.80 73.08 C 139.09 72.48 139.65 71.29 139.93 70.69 C 142.88 75.23 147.73 77.92 152.09 80.90 C 159.22 84.93 163.09 92.60 169.73 97.29 C 171.88 97.88 175.30 104.75 171.16 101.83 C 167.09 99.15 171.85 105.01 170.82 107.08 C 167.55 104.45 164.36 101.71 161.01 99.19 C 162.83 99.53 163.60 97.92 162.26 96.73 C 152.26 87.92 141.62 79.93 130.62 72.43 C 128.70 70.87 128.45 73.80 127.72 74.99 C 125.29 71.01 122.14 67.56 119.03 64.10 Z" />
</g>
<g id="#a6a69fff">
<path fill="#a6a69f" opacity="1.00" d=" M 19.04 92.25 C 19.31 82.08 25.79 73.43 30.74 64.98 C 31.76 69.02 38.84 63.78 39.07 70.29 C 35.19 76.24 32.15 82.64 29.38 89.17 C 25.40 86.04 22.86 91.61 19.04 92.25 Z" />
</g>
<g id="#898874ff">
<path fill="#898874" opacity="1.00" d=" M 135.94 65.80 C 137.52 67.21 138.73 68.96 139.93 70.69 C 139.65 71.29 139.09 72.48 138.80 73.08 C 137.39 70.87 135.91 68.53 135.94 65.80 Z" />
</g>
<g id="#92917fff">
<path fill="#92917f" opacity="1.00" d=" M 99.28 66.86 C 99.41 68.44 99.68 71.61 99.81 73.19 C 99.68 71.61 99.41 68.44 99.28 66.86 Z" />
</g>
<g id="#5f5d33ff">
<path fill="#5f5d33" opacity="1.00" d=" M 107.87 71.97 C 116.49 76.81 124.13 84.35 129.21 92.84 C 125.42 91.30 121.34 91.31 117.36 90.76 C 116.70 86.72 111.68 86.43 109.17 83.78 C 107.93 81.11 111.45 82.31 112.94 81.91 C 111.14 78.66 108.81 75.61 107.87 71.97 Z" />
</g>
<g id="#cfcfceff">
<path fill="#cfcfce" opacity="1.00" d=" M 55.71 97.81 C 64.74 85.51 78.39 77.08 93.01 73.10 C 95.79 72.17 95.31 76.02 95.90 77.75 C 92.75 79.11 87.78 81.44 93.10 83.83 C 88.25 86.04 83.27 87.99 78.75 90.85 C 80.08 90.82 81.41 90.75 82.74 90.64 C 85.57 90.88 88.44 91.00 91.23 91.59 C 86.28 92.86 81.33 94.17 76.59 96.10 C 75.13 96.70 72.76 96.68 72.87 98.81 C 78.32 98.45 83.77 97.89 89.23 97.78 C 91.58 98.02 93.86 98.63 96.12 99.28 C 93.07 102.68 87.27 103.99 85.99 108.62 C 87.82 109.08 89.92 109.10 91.21 110.68 C 85.16 114.18 78.71 117.27 73.83 122.39 C 70.42 119.50 69.30 114.14 68.04 111.12 C 65.71 111.24 63.45 111.87 61.18 112.39 C 55.87 110.79 54.72 102.81 55.71 97.81 Z" />
</g>
<g id="#9a9989ff">
<path fill="#9a9989" opacity="1.00" d=" M 100.22 73.89 C 101.61 75.32 101.36 77.41 100.68 79.11 C 99.51 77.59 99.62 75.61 100.22 73.89 Z" />
</g>
<g id="#85836aff">
<path fill="#85836a" opacity="1.00" d=" M 130.24 78.90 C 131.71 81.08 132.51 83.62 133.03 86.18 C 131.18 85.01 130.01 83.14 129.16 81.16 C 129.43 80.60 129.97 79.47 130.24 78.90 Z" />
</g>
<g id="#2e2c13ff">
<path fill="#2e2c13" opacity="1.00" d=" M 94.27 84.09 C 99.55 81.94 101.18 87.63 105.05 89.07 C 105.58 92.03 108.54 95.98 105.34 98.32 C 100.78 102.66 92.19 98.27 92.93 91.93 C 95.56 93.14 95.60 88.90 92.94 89.99 C 93.28 88.00 93.69 86.03 94.27 84.09 Z" />
</g>
<g id="#535027ff">
<path fill="#535027" opacity="1.00" d=" M 105.05 89.07 C 109.96 95.45 117.61 95.39 124.99 95.96 C 128.37 100.42 119.15 96.98 116.70 98.63 C 110.32 99.84 104.20 102.11 97.98 103.93 C 90.32 106.89 100.30 107.35 104.23 106.86 C 105.88 107.08 107.51 107.45 109.11 107.91 C 110.58 109.95 108.35 110.31 106.78 110.88 C 102.79 112.26 99.27 114.66 95.83 117.05 C 91.01 119.39 95.15 121.06 97.89 118.12 L 98.70 117.98 C 103.82 117.91 108.94 118.00 114.06 118.01 C 110.58 121.62 105.73 123.78 102.62 127.90 C 99.07 130.40 102.84 131.63 104.87 129.09 L 105.71 128.95 C 108.39 129.87 114.25 127.07 115.23 130.83 C 114.88 131.06 114.18 131.54 113.83 131.77 C 108.20 134.99 103.28 139.41 99.67 144.81 C 97.25 148.05 94.83 151.32 92.90 154.89 C 91.16 158.09 89.29 160.60 90.08 155.20 C 91.54 148.31 94.49 141.94 98.02 135.88 C 95.22 135.95 92.49 136.30 89.72 136.57 C 91.77 131.89 96.07 128.87 99.22 124.99 C 89.76 124.40 80.92 128.11 71.86 130.04 C 74.66 126.21 78.69 123.68 82.85 121.59 C 80.96 118.16 76.49 124.39 73.83 122.39 C 78.71 117.27 85.16 114.18 91.21 110.68 C 89.92 109.10 87.82 109.08 85.99 108.62 C 87.27 103.99 93.07 102.68 96.12 99.28 C 93.86 98.63 91.58 98.02 89.23 97.78 C 85.04 97.09 80.68 97.36 76.59 96.10 C 81.33 94.17 86.28 92.86 91.23 91.59 C 91.66 91.67 92.50 91.85 92.93 91.93 C 92.19 98.27 100.78 102.66 105.34 98.32 C 108.54 95.98 105.58 92.03 105.05 89.07 Z" />
</g>
<g id="#9b9a8aff">
<path fill="#9b9a8a" opacity="1.00" d=" M 82.74 90.64 C 86.08 89.82 89.52 89.95 92.94 89.99 C 92.94 90.48 92.93 91.45 92.93 91.93 C 92.50 91.85 91.66 91.67 91.23 91.59 C 88.44 91.00 85.57 90.88 82.74 90.64 Z" />
</g>
<g id="#57553cff">
<path fill="#57553c" opacity="1.00" d=" M 92.94 89.99 C 95.60 88.90 95.56 93.14 92.93 91.93 C 92.93 91.45 92.94 90.48 92.94 89.99 Z" />
</g>
<g id="#888771ff">
<path fill="#888771" opacity="1.00" d=" M 72.87 98.81 C 72.76 96.68 75.13 96.70 76.59 96.10 C 80.68 97.36 85.04 97.09 89.23 97.78 C 83.77 97.89 78.32 98.45 72.87 98.81 Z" />
</g>
<g id="#a4a396ff">
<path fill="#a4a396" opacity="1.00" d=" M 124.99 95.96 C 133.65 99.05 120.21 99.75 116.70 98.63 C 119.15 96.98 128.37 100.42 124.99 95.96 Z" />
</g>
<g id="#605d35ff">
<path fill="#605d35" opacity="1.00" d=" M 150.78 96.02 C 154.48 95.77 157.92 97.32 161.01 99.19 C 164.36 101.71 167.55 104.45 170.82 107.08 C 168.56 109.00 169.52 109.47 172.25 109.16 L 171.85 109.76 C 167.93 109.88 168.83 115.32 165.19 116.24 C 161.70 116.19 158.24 116.13 154.76 116.20 C 151.60 116.42 145.84 113.11 152.06 112.66 C 148.08 109.23 143.72 106.26 139.63 102.98 C 142.48 102.48 145.36 102.00 148.24 101.66 C 154.50 103.31 159.93 107.22 164.15 112.05 C 166.20 111.56 166.47 109.19 165.42 107.63 C 162.34 101.94 155.87 99.47 150.78 96.02 M 152.03 106.87 C 153.82 109.86 156.27 113.04 160.15 111.99 C 158.61 108.93 154.92 108.13 152.03 106.87 Z" />
</g>
<g id="#aaaaa9ff">
<path fill="#aaaaa9" opacity="1.00" d=" M 43.08 120.21 C 45.78 112.00 50.19 104.44 55.71 97.81 C 54.72 102.81 55.87 110.79 61.18 112.39 C 54.76 114.05 49.05 117.46 43.08 120.21 Z" />
</g>
<g id="#7f7f71ff">
<path fill="#7f7f71" opacity="1.00" d=" M 11.25 151.73 C 7.84 134.60 5.14 117.07 9.95 99.83 C 9.98 111.37 6.19 125.03 10.90 135.21 C 10.38 126.14 9.35 116.32 12.81 107.71 C 13.78 118.53 11.37 129.69 15.06 140.17 C 17.84 139.70 18.95 135.89 18.55 133.39 C 16.67 123.83 20.14 114.50 22.22 105.32 C 22.91 105.19 24.27 104.93 24.95 104.80 C 24.91 105.57 24.82 107.10 24.78 107.87 C 24.29 109.46 23.93 111.10 23.74 112.75 C 23.07 120.84 21.94 129.25 23.67 137.28 C 23.93 138.47 24.18 139.66 24.43 140.86 C 17.78 145.63 23.30 153.34 25.78 159.14 C 27.88 162.81 27.53 168.58 32.84 169.21 C 33.10 169.42 33.61 169.84 33.87 170.05 C 35.12 173.08 36.77 175.91 38.27 178.81 C 34.11 175.91 30.46 172.21 25.89 169.92 C 27.21 179.80 34.77 187.68 40.68 195.30 C 42.48 197.99 38.03 197.27 37.29 195.67 C 30.49 187.13 23.69 178.23 20.34 167.69 C 19.38 165.97 19.41 163.20 17.11 162.74 C 17.30 165.52 17.57 168.36 17.87 171.14 C 14.21 165.27 14.30 157.92 11.25 151.73 Z" />
</g>
<g id="#a2a18cff">
<path fill="#a2a18c" opacity="1.00" d=" M 139.63 102.98 C 136.88 98.79 147.02 102.20 148.24 101.66 C 145.36 102.00 142.48 102.48 139.63 102.98 Z" />
</g>
<g id="#838165ff">
<path fill="#838165" opacity="1.00" d=" M 104.23 106.86 C 100.30 107.35 90.32 106.89 97.98 103.93 C 95.38 107.54 102.26 105.85 104.23 106.86 Z" />
</g>
<g id="#b1b1abff">
<path fill="#b1b1ab" opacity="1.00" d=" M 172.25 109.16 C 173.53 106.17 175.27 103.99 178.41 106.54 C 182.51 108.56 176.30 110.29 174.39 111.14 C 173.75 110.80 172.48 110.10 171.85 109.76 L 172.25 109.16 Z" />
</g>
<g id="#66643eff">
<path fill="#66643e" opacity="1.00" d=" M 127.29 106.28 C 130.16 104.80 128.08 108.29 128.20 109.76 C 130.58 112.72 135.56 115.19 134.85 119.66 C 131.17 120.75 127.92 122.74 124.88 125.02 C 125.70 120.80 134.46 117.88 128.23 113.78 C 123.52 112.82 122.96 108.47 127.29 106.28 Z" />
</g>
<g id="#bebdb6ff">
<path fill="#bebdb6" opacity="1.00" d=" M 152.03 106.87 C 154.92 108.13 158.61 108.93 160.15 111.99 C 156.27 113.04 153.82 109.86 152.03 106.87 Z" />
</g>
<g id="#949380ff">
<path fill="#949380" opacity="1.00" d=" M 109.11 107.91 C 114.43 108.64 110.13 112.11 106.78 110.88 C 108.35 110.31 110.58 109.95 109.11 107.91 Z" />
</g>
<g id="#acacabff">
<path fill="#acacab" opacity="1.00" d=" M 68.04 111.12 C 69.30 114.14 70.42 119.50 73.83 122.39 C 76.49 124.39 80.96 118.16 82.85 121.59 C 78.69 123.68 74.66 126.21 71.86 130.04 C 80.92 128.11 89.76 124.40 99.22 124.99 C 96.07 128.87 91.77 131.89 89.72 136.57 C 92.49 136.30 95.22 135.95 98.02 135.88 C 94.49 141.94 91.54 148.31 90.08 155.20 C 88.25 155.76 85.86 156.74 84.76 154.24 C 77.56 147.04 69.71 140.56 61.76 134.23 C 58.30 131.77 59.42 127.38 59.67 123.74 C 62.33 119.45 65.28 115.34 68.04 111.12 Z" />
</g>
<g id="#797764ff">
<path fill="#797764" opacity="1.00" d=" M 178.79 111.89 C 182.25 110.85 185.72 110.84 189.19 111.86 C 185.71 111.83 182.26 111.84 178.79 111.89 Z" />
</g>
<g id="#b8b8b6ff">
<path fill="#b8b8b6" opacity="1.00" d=" M 181.66 114.36 C 178.80 113.27 168.39 116.48 172.69 112.26 C 174.73 112.91 176.77 112.26 178.79 111.89 C 182.26 111.84 185.71 111.83 189.19 111.86 C 195.83 113.60 203.66 115.35 206.75 122.33 C 207.79 126.98 205.12 130.90 201.98 133.88 C 204.08 128.00 194.04 136.89 197.84 129.98 C 199.79 135.67 207.53 119.37 198.21 122.09 C 196.87 122.02 195.54 121.93 194.21 121.83 C 190.63 118.38 186.65 115.27 181.66 114.36 Z" />
</g>
<g id="#3f403fff">
<path fill="#3f403f" opacity="1.00" d=" M 23.67 137.28 C 21.94 129.25 23.07 120.84 23.74 112.75 C 24.13 120.92 24.05 129.11 23.67 137.28 Z" />
</g>
<g id="#a7a69dff">
<path fill="#a7a69d" opacity="1.00" d=" M 154.76 116.20 C 158.24 116.13 161.70 116.19 165.19 116.24 C 161.71 117.15 158.23 117.14 154.76 116.20 Z" />
</g>
<g id="#929180ff">
<path fill="#929180" opacity="1.00" d=" M 97.89 118.12 C 95.15 121.06 91.01 119.39 95.83 117.05 C 96.34 117.32 97.37 117.86 97.89 118.12 Z" />
</g>
<g id="#8a886bff">
<path fill="#8a886b" opacity="1.00" d=" M 98.70 117.98 C 103.00 117.52 111.59 115.30 114.06 118.01 C 108.94 118.00 103.82 117.91 98.70 117.98 Z" />
<path fill="#8a886b" opacity="1.00" d=" M 143.80 132.03 C 144.90 130.32 146.77 129.48 148.65 128.94 C 149.29 129.26 150.55 129.91 151.18 130.23 C 148.79 131.07 146.34 131.82 143.80 132.03 Z" />
</g>
<g id="#93927bff">
<path fill="#93927b" opacity="1.00" d=" M 187.60 124.09 C 182.48 121.62 192.37 121.08 194.21 121.83 C 195.54 121.93 196.87 122.02 198.21 122.09 C 194.66 122.71 191.12 123.38 187.60 124.09 Z" />
</g>
<g id="#605e38ff">
<path fill="#605e38" opacity="1.00" d=" M 198.21 122.09 C 207.53 119.37 199.79 135.67 197.84 129.98 C 198.31 128.72 198.88 127.48 199.02 126.13 C 199.19 122.78 192.32 125.99 189.92 125.00 C 189.34 124.78 188.18 124.32 187.60 124.09 C 191.12 123.38 194.66 122.71 198.21 122.09 Z" />
</g>
<g id="#919190ff">
<path fill="#919190" opacity="1.00" d=" M 52.71 137.80 C 54.71 132.96 56.73 128.10 59.67 123.74 C 59.42 127.38 58.30 131.77 61.76 134.23 C 69.71 140.56 77.56 147.04 84.76 154.24 C 85.86 156.74 88.25 155.76 90.08 155.20 C 89.29 160.60 91.16 158.09 92.90 154.89 C 92.45 157.96 91.04 161.76 93.85 164.16 C 101.10 170.13 108.24 176.25 115.22 182.54 C 115.65 182.44 116.52 182.23 116.95 182.13 C 116.11 187.10 116.16 192.12 116.83 197.11 C 108.32 190.19 101.76 181.18 97.68 171.02 C 93.91 172.23 91.54 175.44 89.04 178.27 C 82.21 174.19 76.74 167.85 75.64 159.81 C 76.23 156.15 77.61 152.67 78.04 148.99 C 72.26 149.85 66.47 151.14 61.05 153.36 C 55.61 150.29 51.83 144.28 52.71 137.80 Z" />
</g>
<g id="#8c8a6fff">
<path fill="#8c8a6f" opacity="1.00" d=" M 154.74 124.62 C 159.73 121.62 177.96 127.06 162.20 125.71 C 159.71 125.33 157.22 124.96 154.74 124.62 Z" />
<path fill="#8c8a6f" opacity="1.00" d=" M 167.63 131.17 C 170.27 131.28 175.56 131.51 178.20 131.62 C 176.69 131.96 175.20 132.36 173.72 132.80 C 171.51 133.08 169.38 132.56 167.63 131.17 Z" />
</g>
<g id="#4f4d28ff">
<path fill="#4f4d28" opacity="1.00" d=" M 133.89 136.05 C 139.72 130.46 146.91 126.56 154.74 124.62 C 157.22 124.96 159.71 125.33 162.20 125.71 C 157.59 126.28 153.05 127.43 148.65 128.94 C 146.77 129.48 144.90 130.32 143.80 132.03 C 146.34 131.82 148.79 131.07 151.18 130.23 C 151.59 130.13 152.43 129.94 152.84 129.84 C 153.46 130.04 154.71 130.42 155.33 130.61 C 150.68 132.12 147.15 135.70 144.76 139.88 C 142.05 143.22 143.84 147.57 145.78 142.07 C 149.19 139.60 149.54 149.64 151.10 151.93 C 150.86 152.25 150.40 152.88 150.16 153.20 L 149.29 152.74 C 143.70 149.21 136.52 150.87 131.77 154.96 C 131.95 151.68 135.07 149.93 136.30 147.12 C 129.80 148.69 124.41 152.64 118.84 156.07 C 119.15 153.95 119.95 151.97 120.82 150.03 C 123.33 145.52 126.22 141.25 128.96 136.88 C 125.64 138.08 122.41 139.72 118.85 140.10 C 123.16 134.18 130.03 130.77 136.13 127.02 C 135.54 130.07 134.44 132.99 133.89 136.05 Z" />
</g>
<g id="#97968cff">
<path fill="#97968c" opacity="1.00" d=" M 189.92 125.00 C 192.32 125.99 199.19 122.78 199.02 126.13 C 195.99 125.91 192.83 125.92 189.92 125.00 Z" />
</g>
<g id="#afafa8ff">
<path fill="#afafa8" opacity="1.00" d=" M 233.72 127.75 C 235.23 125.52 235.69 129.15 236.43 130.16 C 234.35 145.81 229.93 161.29 222.19 175.10 C 222.56 168.25 216.65 177.79 212.87 173.50 C 218.39 163.77 222.08 152.99 224.20 142.02 C 225.04 140.69 225.55 139.18 225.65 137.61 C 226.62 139.14 227.54 140.71 228.71 142.10 C 230.74 137.45 231.50 132.24 233.72 127.75 Z" />
</g>
<g id="#9f9e8eff">
<path fill="#9f9e8e" opacity="1.00" d=" M 104.87 129.09 C 102.84 131.63 99.07 130.40 102.62 127.90 C 103.18 128.20 104.31 128.79 104.87 129.09 Z" />
</g>
<g id="#a8a897ff">
<path fill="#a8a897" opacity="1.00" d=" M 105.71 128.95 C 108.02 128.70 119.27 125.58 115.23 130.83 C 114.25 127.07 108.39 129.87 105.71 128.95 Z" />
</g>
<g id="#757352ff">
<path fill="#757352" opacity="1.00" d=" M 152.84 129.84 C 155.45 129.64 160.67 129.23 163.28 129.02 C 159.12 132.30 155.39 136.03 151.95 140.06 C 151.44 136.86 158.79 132.00 155.33 130.61 C 154.71 130.42 153.46 130.04 152.84 129.84 Z" />
</g>
<g id="#bfbfbeff">
<path fill="#bfbfbe" opacity="1.00" d=" M 99.67 144.81 C 103.28 139.41 108.20 134.99 113.83 131.77 C 112.60 134.67 109.80 137.40 110.16 140.69 C 113.74 143.76 117.36 146.81 120.82 150.03 C 119.95 151.97 119.15 153.95 118.84 156.07 C 124.41 152.64 129.80 148.69 136.30 147.12 C 135.07 149.93 131.95 151.68 131.77 154.96 C 136.52 150.87 143.70 149.21 149.29 152.74 C 144.10 152.65 143.48 156.67 144.01 160.14 C 141.39 157.64 139.98 162.23 138.90 163.94 C 135.07 169.74 137.94 176.68 137.96 183.09 C 128.63 184.64 129.63 168.34 122.93 169.98 C 114.78 168.82 110.41 159.63 103.70 155.31 C 99.76 153.17 99.99 148.77 99.67 144.81 Z" />
</g>
<g id="#989787ff">
<path fill="#989787" opacity="1.00" d=" M 184.95 134.04 C 188.04 135.14 186.09 138.85 184.85 140.91 C 184.88 139.19 184.93 135.76 184.95 134.04 Z" />
</g>
<g id="#959375ff">
<path fill="#959375" opacity="1.00" d=" M 0.00 134.44 C 2.07 151.81 7.43 168.43 14.75 184.30 C 7.17 175.06 5.95 162.60 0.00 152.49 L 0.00 134.44 Z" />
</g>
<g id="#b1b0a1ff">
<path fill="#b1b0a1" opacity="1.00" d=" M 162.45 137.92 C 162.71 136.79 163.33 133.93 164.74 135.62 C 164.07 138.34 164.86 141.09 165.16 143.80 C 164.60 144.63 163.15 148.27 162.31 146.32 C 162.42 143.51 162.55 140.72 162.45 137.92 Z" />
</g>
<g id="#5f5f5fff">
<path fill="#5f5f5f" opacity="1.00" d=" M 224.20 142.02 C 223.46 139.71 223.60 137.38 224.60 135.01 C 224.86 135.66 225.39 136.96 225.65 137.61 C 225.55 139.18 225.04 140.69 224.20 142.02 Z" />
</g>
<g id="#6a6844ff">
<path fill="#6a6844" opacity="1.00" d=" M 187.81 137.05 C 188.68 135.94 189.72 135.67 190.94 136.25 C 191.59 138.73 187.77 140.22 187.81 137.05 Z" />
</g>
<g id="#bbbab0ff">
<path fill="#bbbab0" opacity="1.00" d=" M 190.94 136.25 C 191.64 136.79 192.32 137.37 192.99 137.97 C 187.05 144.63 199.29 137.32 194.11 136.90 C 195.42 134.76 197.19 137.08 198.22 138.20 C 195.76 140.89 193.06 143.39 190.05 145.45 C 188.19 145.18 188.51 143.29 188.24 141.92 C 192.41 139.48 184.43 140.41 187.81 137.05 C 187.77 140.22 191.59 138.73 190.94 136.25 Z" />
</g>
<g id="#67653fff">
<path fill="#67653f" opacity="1.00" d=" M 162.31 146.32 C 161.33 143.30 155.75 134.58 162.45 137.92 C 162.55 140.72 162.42 143.51 162.31 146.32 Z" />
</g>
<g id="#6e6b46ff">
<path fill="#6e6b46" opacity="1.00" d=" M 194.11 136.90 C 199.29 137.32 187.05 144.63 192.99 137.97 C 193.27 137.70 193.83 137.17 194.11 136.90 Z" />
</g>
<g id="#797977ff">
<path fill="#797977" opacity="1.00" d=" M 46.98 161.16 C 47.75 153.20 49.93 145.30 52.71 137.80 C 51.83 144.28 55.61 150.29 61.05 153.36 C 56.23 155.73 51.85 158.92 46.98 161.16 Z" />
</g>
<g id="#8d8b74ff">
<path fill="#8d8b74" opacity="1.00" d=" M 145.78 142.07 C 143.84 147.57 142.05 143.22 144.76 139.88 C 145.01 140.43 145.53 141.53 145.78 142.07 Z" />
</g>
<g id="#686864ff">
<path fill="#686864" opacity="1.00" d=" M 24.43 140.86 C 25.98 150.65 28.89 160.13 32.84 169.21 C 27.53 168.58 27.88 162.81 25.78 159.14 C 23.30 153.34 17.78 145.63 24.43 140.86 Z" />
</g>
<g id="#89876dff">
<path fill="#89876d" opacity="1.00" d=" M 183.56 144.88 C 183.99 143.55 184.41 142.23 184.85 140.91 C 184.26 143.85 186.61 142.52 188.24 141.92 C 188.51 143.29 188.19 145.18 190.05 145.45 C 187.85 146.81 185.96 143.13 183.56 144.88 Z" />
</g>
<g id="#b3b29cff">
<path fill="#b3b29c" opacity="1.00" d=" M 236.85 142.98 C 237.51 142.71 239.53 139.60 239.05 141.92 C 240.41 150.26 232.92 157.42 234.50 165.54 C 237.08 167.87 236.35 173.88 238.08 174.92 C 245.22 165.78 244.99 152.63 250.00 142.41 L 250.00 153.49 C 241.33 180.01 227.63 205.73 205.26 223.22 C 190.35 236.36 171.67 243.06 153.50 250.00 L 139.45 250.00 C 139.04 249.43 138.23 248.30 137.82 247.74 C 140.54 247.33 143.31 247.10 146.00 246.51 C 165.11 242.87 183.69 235.17 199.07 223.18 C 204.91 218.88 210.03 213.71 214.96 208.42 C 217.82 205.42 220.61 202.35 223.17 199.09 C 229.53 190.59 237.08 176.33 229.66 166.68 C 231.68 158.65 236.54 151.46 236.85 142.98 Z" />
</g>
<g id="#95947bff">
<path fill="#95947b" opacity="1.00" d=" M 165.16 143.80 C 165.30 145.38 165.57 148.55 165.71 150.13 C 165.57 148.55 165.30 145.38 165.16 143.80 Z" />
</g>
<g id="#a6a6a6ff">
<path fill="#a6a6a6" opacity="1.00" d=" M 92.90 154.89 C 94.83 151.32 97.25 148.05 99.67 144.81 C 99.99 148.77 99.76 153.17 103.70 155.31 C 110.41 159.63 114.78 168.82 122.93 169.98 C 120.31 173.69 118.51 177.89 116.95 182.13 C 116.52 182.23 115.65 182.44 115.22 182.54 C 108.24 176.25 101.10 170.13 93.85 164.16 C 91.04 161.76 92.45 157.96 92.90 154.89 Z" />
<path fill="#a6a6a6" opacity="1.00" d=" M 110.59 233.68 C 109.05 228.64 118.75 227.74 118.20 232.94 C 118.97 231.88 119.72 230.81 120.57 229.82 C 121.07 233.71 123.65 233.86 122.17 229.78 C 125.99 231.96 123.06 236.90 121.97 240.07 C 127.15 239.31 124.52 232.03 127.09 229.95 C 125.98 233.51 129.84 244.72 125.22 241.77 C 122.24 242.86 116.90 241.75 116.94 240.07 C 113.20 243.76 107.11 238.45 110.59 233.68 Z" />
</g>
<g id="#828062ff">
<path fill="#828062" opacity="1.00" d=" M 155.95 146.89 C 159.71 150.77 164.34 154.83 166.04 160.12 C 162.02 156.54 156.51 152.62 155.95 146.89 Z" />
</g>
<g id="#5f5c33ff">
<path fill="#5f5c33" opacity="1.00" d=" M 151.10 151.93 C 151.84 151.22 152.16 147.91 153.20 149.93 C 158.20 158.27 167.19 163.80 172.01 171.81 C 167.36 176.31 161.73 172.09 157.81 168.85 C 158.92 168.49 162.29 167.44 160.25 166.07 C 158.14 164.65 155.73 163.82 153.43 162.81 C 156.12 159.27 151.67 156.25 150.16 153.20 C 150.40 152.88 150.86 152.25 151.10 151.93 Z" />
</g>
<g id="#a9a792ff">
<path fill="#a9a792" opacity="1.00" d=" M 170.95 153.28 C 171.51 151.82 172.09 150.37 172.75 148.95 C 174.17 151.84 173.20 157.29 170.95 153.28 Z" />
</g>
<g id="#70706bff">
<path fill="#70706b" opacity="1.00" d=" M 10.29 151.80 L 11.25 151.73 C 14.30 157.92 14.21 165.27 17.87 171.14 C 25.42 189.13 37.54 205.11 53.13 216.86 C 55.25 220.31 61.80 226.01 57.97 229.39 C 52.27 225.86 46.66 222.08 41.86 217.38 C 43.15 216.72 47.30 216.78 45.41 214.62 C 42.76 210.03 37.28 208.08 34.22 203.78 C 22.77 188.41 13.81 170.77 10.29 151.80 Z" />
</g>
<g id="#a4a28cff">
<path fill="#a4a28c" opacity="1.00" d=" M 0.00 152.49 C 5.95 162.60 7.17 175.06 14.75 184.30 C 22.16 196.59 31.27 207.70 41.86 217.38 C 46.66 222.08 52.27 225.86 57.97 229.39 C 63.84 233.16 69.92 237.33 77.06 238.06 C 74.93 229.18 63.79 225.70 58.09 218.89 C 53.15 212.25 44.14 208.55 40.87 200.88 C 47.99 205.97 55.11 212.12 62.09 217.82 C 66.11 226.09 75.37 229.93 81.19 236.79 C 85.58 242.81 93.22 245.08 100.32 245.84 C 108.03 247.26 115.85 248.34 123.71 247.95 C 128.41 247.91 133.13 248.00 137.82 247.74 C 138.23 248.30 139.04 249.43 139.45 250.00 L 102.54 250.00 C 76.20 243.86 50.53 232.19 31.70 212.30 C 16.69 198.09 7.56 179.34 0.00 160.51 L 0.00 152.49 Z" />
</g>
<g id="#bfbeb4ff">
<path fill="#bfbeb4" opacity="1.00" d=" M 205.26 223.22 C 227.63 205.73 241.33 180.01 250.00 153.49 L 250.00 160.51 C 246.73 165.58 245.56 171.60 242.90 176.96 C 229.54 206.60 204.71 230.97 174.85 243.83 C 170.11 245.97 164.90 247.10 160.51 250.00 L 153.50 250.00 C 171.67 243.06 190.35 236.36 205.26 223.22 Z" />
</g>
<g id="#8b896cff">
<path fill="#8b896c" opacity="1.00" d=" M 178.08 154.76 C 178.78 156.04 179.31 157.40 179.88 158.75 C 179.24 161.37 179.56 164.54 177.12 166.22 C 177.59 162.42 177.99 158.59 178.08 154.76 Z" />
</g>
<g id="#989680ff">
<path fill="#989680" opacity="1.00" d=" M 179.88 158.75 C 182.52 156.58 183.37 160.93 181.54 162.98 C 180.92 161.59 180.37 160.18 179.88 158.75 Z" />
</g>
<g id="#777776ff">
<path fill="#777776" opacity="1.00" d=" M 80.35 194.08 C 74.99 183.58 73.71 171.38 75.64 159.81 C 76.74 167.85 82.21 174.19 89.04 178.27 C 85.61 183.25 84.05 189.34 80.35 194.08 Z" />
</g>
<g id="#716f4dff">
<path fill="#716f4d" opacity="1.00" d=" M 175.28 160.27 C 177.33 160.75 175.36 165.08 173.64 163.39 C 172.50 162.21 174.22 160.72 175.28 160.27 Z" />
</g>
<g id="#b0b0a4ff">
<path fill="#b0b0a4" opacity="1.00" d=" M 0.00 160.51 C 7.56 179.34 16.69 198.09 31.70 212.30 C 50.53 232.19 76.20 243.86 102.54 250.00 L 91.51 250.00 C 70.63 242.41 49.67 233.30 33.75 217.26 C 18.29 203.50 8.41 185.10 0.00 166.51 L 0.00 160.51 Z" />
</g>
<g id="#cdccc9ff">
<path fill="#cdccc9" opacity="1.00" d=" M 242.90 176.96 C 245.56 171.60 246.73 165.58 250.00 160.51 L 250.00 166.51 C 240.43 188.73 227.58 210.13 208.34 225.33 C 196.05 236.17 181.14 243.02 166.50 250.00 L 160.51 250.00 C 164.90 247.10 170.11 245.97 174.85 243.83 C 204.71 230.97 229.54 206.60 242.90 176.96 Z" />
</g>
<g id="#8f8e83ff">
<path fill="#8f8e83" opacity="1.00" d=" M 17.11 162.74 C 19.41 163.20 19.38 165.97 20.34 167.69 C 23.69 178.23 30.49 187.13 37.29 195.67 C 38.03 197.27 42.48 197.99 40.68 195.30 C 34.77 187.68 27.21 179.80 25.89 169.92 C 30.46 172.21 34.11 175.91 38.27 178.81 C 46.18 190.60 56.27 200.81 68.02 208.82 C 62.01 214.44 58.28 206.42 53.08 203.98 C 51.77 205.40 51.45 207.24 53.73 208.28 C 58.25 213.28 64.93 215.82 69.15 221.10 C 66.63 220.39 64.36 219.07 62.09 217.82 C 55.11 212.12 47.99 205.97 40.87 200.88 C 44.14 208.55 53.15 212.25 58.09 218.89 C 63.79 225.70 74.93 229.18 77.06 238.06 C 69.92 237.33 63.84 233.16 57.97 229.39 C 61.80 226.01 55.25 220.31 53.13 216.86 C 37.54 205.11 25.42 189.13 17.87 171.14 C 17.57 168.36 17.30 165.52 17.11 162.74 Z" />
</g>
<g id="#9d9b87ff">
<path fill="#9d9b87" opacity="1.00" d=" M 160.25 166.07 C 162.29 167.44 158.92 168.49 157.81 168.85 C 155.77 167.43 159.18 166.52 160.25 166.07 Z" />
</g>
<g id="#c0c0bcff">
<path fill="#c0c0bc" opacity="1.00" d=" M 0.00 166.51 C 8.41 185.10 18.29 203.50 33.75 217.26 C 49.67 233.30 70.63 242.41 91.51 250.00 L 83.58 250.00 C 77.67 245.80 70.16 244.81 63.97 241.06 C 34.97 227.01 13.43 201.40 0.00 172.53 L 0.00 166.51 Z" />
</g>
<g id="#959377ff">
<path fill="#959377" opacity="1.00" d=" M 178.37 174.04 C 177.06 171.78 177.19 169.46 178.78 167.07 C 179.93 169.41 179.79 171.74 178.37 174.04 Z" />
</g>
<g id="#bbbbb5ff">
<path fill="#bbbbb5" opacity="1.00" d=" M 219.83 186.02 C 222.04 179.10 228.10 174.02 229.66 166.68 C 237.08 176.33 229.53 190.59 223.17 199.09 C 223.31 195.08 225.03 180.63 219.83 186.02 Z" />
</g>
<g id="#dbdbdbff">
<path fill="#dbdbdb" opacity="1.00" d=" M 208.34 225.33 C 227.58 210.13 240.43 188.73 250.00 166.51 L 250.00 173.51 C 237.74 197.91 221.44 221.15 197.95 235.95 C 190.52 241.90 180.96 244.24 173.46 250.00 L 166.50 250.00 C 181.14 243.02 196.05 236.17 208.34 225.33 Z" />
</g>
<g id="#c2c2bcff">
<path fill="#c2c2bc" opacity="1.00" d=" M 212.87 173.50 C 216.65 177.79 222.56 168.25 222.19 175.10 C 218.29 181.72 214.58 188.66 208.99 194.05 C 209.68 190.54 206.61 188.44 204.93 185.84 C 207.96 181.99 210.37 177.70 212.87 173.50 Z" />
</g>
<g id="#d1d1d1ff">
<path fill="#d1d1d1" opacity="1.00" d=" M 0.00 172.53 C 13.43 201.40 34.97 227.01 63.97 241.06 C 70.16 244.81 77.67 245.80 83.58 250.00 L 76.50 250.00 C 55.74 239.84 35.20 227.79 20.52 209.42 C 12.23 200.10 6.77 188.80 0.00 178.46 L 0.00 172.53 Z" />
</g>
<g id="#e9e9e9ff">
<path fill="#e9e9e9" opacity="1.00" d=" M 197.95 235.95 C 221.44 221.15 237.74 197.91 250.00 173.51 L 250.00 179.55 C 235.20 209.91 210.60 234.65 180.53 250.00 L 173.46 250.00 C 180.96 244.24 190.52 241.90 197.95 235.95 Z" />
</g>
<g id="#e3e3e3ff">
<path fill="#e3e3e3" opacity="1.00" d=" M 0.00 178.46 C 6.77 188.80 12.23 200.10 20.52 209.42 C 35.20 227.79 55.74 239.84 76.50 250.00 L 68.48 250.00 C 47.71 238.54 27.57 224.97 13.59 205.38 C 8.32 199.25 5.42 191.46 0.00 185.49 L 0.00 178.46 Z" />
</g>
<g id="#9e9d89ff">
<path fill="#9e9d89" opacity="1.00" d=" M 161.87 180.26 C 163.69 180.24 167.33 180.19 169.15 180.17 C 167.45 182.51 163.99 181.97 161.87 180.26 Z" />
</g>
<g id="#f6f6f6ff">
<path fill="#f6f6f6" opacity="1.00" d=" M 180.53 250.00 C 210.60 234.65 235.20 209.91 250.00 179.55 L 250.00 190.56 C 237.62 209.13 223.73 227.36 204.92 239.90 C 200.00 243.61 194.16 245.93 189.50 250.00 L 180.53 250.00 Z" />
</g>
<g id="#cbcbc8ff">
<path fill="#cbcbc8" opacity="1.00" d=" M 219.83 186.02 C 225.03 180.63 223.31 195.08 223.17 199.09 C 220.61 202.35 217.82 205.42 214.96 208.42 C 213.51 203.23 214.58 197.93 214.28 192.67 C 215.57 190.06 218.10 188.33 219.83 186.02 Z" />
</g>
<g id="#f2f2f2ff">
<path fill="#f2f2f2" opacity="1.00" d=" M 0.00 185.49 C 5.42 191.46 8.32 199.25 13.59 205.38 C 27.57 224.97 47.71 238.54 68.48 250.00 L 58.53 250.00 C 35.00 235.99 13.67 217.73 0.00 193.58 L 0.00 185.49 Z" />
</g>
<g id="#efefeeff">
<path fill="#efefee" opacity="1.00" d=" M 143.13 224.24 C 167.53 219.54 189.89 205.58 204.93 185.84 C 206.61 188.44 209.68 190.54 208.99 194.05 C 197.05 208.20 181.99 219.35 165.78 227.98 C 178.43 224.56 189.23 215.87 199.21 207.64 C 198.68 212.55 195.40 218.15 199.07 223.18 C 183.69 235.17 165.11 242.87 146.00 246.51 C 142.94 239.49 154.05 238.78 158.65 237.59 C 162.67 236.14 158.98 232.51 159.33 229.69 C 155.99 238.71 144.70 233.84 138.15 232.00 C 137.66 229.50 135.85 229.20 132.75 231.09 C 130.74 231.41 129.14 229.52 127.09 229.95 C 124.52 232.03 127.15 239.31 121.97 240.07 C 123.06 236.90 125.99 231.96 122.17 229.78 C 123.65 233.86 121.07 233.71 120.57 229.82 C 119.90 227.86 111.68 229.83 112.55 225.77 C 120.44 225.75 128.49 226.77 136.31 225.35 C 136.95 225.22 138.24 224.96 138.89 224.83 C 140.31 225.38 142.02 225.44 143.13 224.24 Z" />
</g>
<g id="#dddddbff">
<path fill="#dddddb" opacity="1.00" d=" M 214.28 192.67 C 214.58 197.93 213.51 203.23 214.96 208.42 C 210.03 213.71 204.91 218.88 199.07 223.18 C 195.40 218.15 198.68 212.55 199.21 207.64 C 203.59 204.34 207.64 200.63 211.12 196.38 C 212.22 195.19 213.29 193.96 214.28 192.67 Z" />
</g>
<g id="#bcbcb9ff">
<path fill="#bcbcb9" opacity="1.00" d=" M 165.78 227.98 C 181.99 219.35 197.05 208.20 208.99 194.05 C 209.69 194.84 210.39 195.62 211.12 196.38 C 207.64 200.63 203.59 204.34 199.21 207.64 C 189.23 215.87 178.43 224.56 165.78 227.98 Z" />
</g>
<g id="#a9a8a2ff">
<path fill="#a9a8a2" opacity="1.00" d=" M 53.08 203.98 C 58.28 206.42 62.01 214.44 68.02 208.82 C 73.52 213.19 80.12 215.66 86.32 218.77 C 86.51 222.09 85.87 224.86 81.95 224.32 C 82.23 227.73 90.89 229.33 86.28 232.60 C 90.27 237.74 97.40 239.80 100.32 245.84 C 93.22 245.08 85.58 242.81 81.19 236.79 C 75.37 229.93 66.11 226.09 62.09 217.82 C 64.36 219.07 66.63 220.39 69.15 221.10 C 64.93 215.82 58.25 213.28 53.73 208.28 C 51.45 207.24 51.77 205.40 53.08 203.98 Z" />
</g>
<g id="#c2c2c1ff">
<path fill="#c2c2c1" opacity="1.00" d=" M 86.32 218.77 C 92.58 221.46 99.24 222.95 105.89 224.29 C 107.39 225.49 109.37 225.37 111.10 224.82 C 111.57 224.85 112.49 224.90 112.95 224.92 L 112.55 225.77 C 111.68 229.83 119.90 227.86 120.57 229.82 C 119.72 230.81 118.97 231.88 118.20 232.94 C 118.75 227.74 109.05 228.64 110.59 233.68 C 107.11 238.45 113.20 243.76 116.94 240.07 C 116.90 241.75 122.24 242.86 125.22 241.77 C 129.84 244.72 125.98 233.51 127.09 229.95 C 129.14 229.52 130.74 231.41 132.75 231.09 C 133.09 232.73 132.50 235.37 135.03 235.02 C 139.45 234.89 136.63 241.02 134.83 242.93 C 131.02 244.31 124.90 243.04 123.71 247.95 C 115.85 248.34 108.03 247.26 100.32 245.84 C 97.40 239.80 90.27 237.74 86.28 232.60 C 90.89 229.33 82.23 227.73 81.95 224.32 C 85.87 224.86 86.51 222.09 86.32 218.77 Z" />
</g>
<g id="#656565ff">
<path fill="#656565" opacity="1.00" d=" M 105.89 224.29 C 107.60 223.62 109.69 223.40 111.10 224.82 C 109.37 225.37 107.39 225.49 105.89 224.29 Z" />
</g>
<g id="#707070ff">
<path fill="#707070" opacity="1.00" d=" M 112.95 224.92 C 120.74 224.97 128.52 225.02 136.31 225.35 C 128.49 226.77 120.44 225.75 112.55 225.77 L 112.95 224.92 Z" />
</g>
<g id="#a9a9a9ff">
<path fill="#a9a9a9" opacity="1.00" d=" M 132.75 231.09 C 135.85 229.20 137.66 229.50 138.15 232.00 C 138.93 236.02 140.78 242.62 134.83 242.93 C 136.63 241.02 139.45 234.89 135.03 235.02 C 132.50 235.37 133.09 232.73 132.75 231.09 Z" />
</g>
<g id="#d5d5d4ff">
<path fill="#d5d5d4" opacity="1.00" d=" M 138.15 232.00 C 144.70 233.84 155.99 238.71 159.33 229.69 C 158.98 232.51 162.67 236.14 158.65 237.59 C 154.05 238.78 142.94 239.49 146.00 246.51 C 143.31 247.10 140.54 247.33 137.82 247.74 C 133.13 248.00 128.41 247.91 123.71 247.95 C 124.90 243.04 131.02 244.31 134.83 242.93 C 140.78 242.62 138.93 236.02 138.15 232.00 Z" />
</g>
</svg>
