<?xml version="1.0" encoding="UTF-8" ?>
<!DOCTYPE svg PUBLIC "-//W3C//DTD SVG 1.1//EN" "http://www.w3.org/Graphics/SVG/1.1/DTD/svg11.dtd">
<svg width="250pt" height="250pt" viewBox="0 0 250 250" version="1.1" xmlns="http://www.w3.org/2000/svg">
<g id="#ffffffff">
<path fill="#ffffff" opacity="1.00" d=" M 0.00 0.00 L 250.00 0.00 L 250.00 250.00 L 0.00 250.00 L 0.00 0.00 M 77.39 23.14 C 55.18 32.87 37.30 51.37 26.97 73.16 C 28.37 73.69 29.76 74.27 31.13 74.90 C 40.21 58.20 53.04 43.14 69.70 33.67 C 86.97 23.74 107.10 18.80 126.99 19.88 C 153.34 21.02 179.32 32.28 197.58 51.41 C 214.37 67.97 224.80 90.59 227.48 113.94 C 228.24 128.17 227.87 142.66 223.35 156.32 C 226.14 157.71 228.97 159.13 232.03 159.85 C 233.21 153.90 235.03 148.08 235.58 142.02 C 239.10 116.94 234.11 90.68 221.07 68.91 C 201.41 34.72 162.57 12.18 123.00 13.36 C 107.30 12.93 91.62 16.60 77.39 23.14 M 120.26 33.23 C 114.73 45.82 108.72 58.20 103.43 70.90 C 106.60 72.25 109.76 73.61 112.97 74.86 C 117.25 65.28 121.61 55.75 125.89 46.17 C 129.42 58.00 132.08 70.07 135.25 81.99 C 135.66 83.34 136.08 84.89 137.50 85.51 C 140.65 87.33 144.08 88.57 147.45 89.90 C 143.31 71.55 138.28 53.43 133.79 35.16 C 132.97 31.79 131.24 27.22 127.00 27.48 C 123.54 27.08 121.44 30.49 120.26 33.23 M 98.49 81.87 C 95.69 87.91 92.68 93.91 90.80 100.33 C 93.91 101.56 96.99 102.86 100.14 104.00 C 102.88 97.92 105.63 91.84 108.04 85.62 C 104.90 84.25 101.73 82.96 98.49 81.87 M 21.78 84.21 C 14.17 105.02 11.31 127.72 15.21 149.61 C 17.16 160.14 20.96 170.35 26.63 179.46 C 31.40 187.48 36.25 195.47 41.45 203.23 C 36.91 193.18 31.19 183.73 26.08 173.98 C 19.63 161.03 16.67 146.43 17.31 132.00 C 16.83 120.78 18.74 109.63 21.67 98.83 C 22.90 94.15 25.19 89.76 25.88 84.93 C 24.51 84.71 23.14 84.48 21.78 84.21 M 140.10 99.87 C 141.91 107.60 143.65 115.40 146.10 122.95 C 148.79 125.84 153.21 126.53 156.78 128.06 C 155.22 120.29 153.58 112.47 151.04 104.97 C 148.00 102.25 143.82 101.31 140.10 99.87 M 85.75 110.96 C 81.91 119.79 78.33 128.75 74.77 137.71 C 68.66 153.57 62.72 169.88 61.77 187.02 C 61.73 203.09 72.20 217.64 85.92 225.26 C 97.68 233.15 111.88 237.10 126.01 236.66 C 137.09 237.10 148.15 235.51 158.79 232.47 C 166.15 230.26 173.83 228.65 180.50 224.63 C 201.42 212.44 218.14 193.25 227.58 170.96 C 224.71 169.95 221.90 168.78 219.13 167.50 C 210.18 188.37 194.13 206.14 174.22 217.10 C 169.87 219.66 164.69 220.08 160.18 222.24 C 152.69 223.57 145.36 225.84 137.75 226.38 C 130.70 226.82 123.60 226.96 116.58 226.13 C 102.62 224.40 89.49 217.31 79.98 207.01 C 73.47 199.90 71.14 189.73 72.90 180.35 C 76.86 157.51 86.88 136.38 95.38 114.99 C 92.20 113.56 89.01 112.18 85.75 110.96 M 150.04 138.22 C 153.39 152.20 157.63 165.95 161.03 179.91 C 155.06 171.10 147.99 163.03 139.84 156.18 C 132.22 150.08 123.24 145.80 113.89 143.14 C 108.24 141.51 102.41 140.09 96.48 140.41 C 101.51 143.69 107.47 144.87 112.93 147.18 C 121.44 150.73 129.79 155.07 136.54 161.46 C 146.92 171.13 154.80 183.16 161.43 195.62 C 163.39 198.93 164.74 202.82 167.71 205.41 C 171.43 208.22 176.98 203.39 175.07 199.19 C 171.29 183.69 167.01 168.30 163.30 152.78 C 162.35 149.45 161.87 145.92 160.26 142.82 C 157.16 140.70 153.50 139.61 150.04 138.22 Z" />
</g>
<g id="#020102ff">
<path fill="#020102" opacity="1.00" d=" M 77.39 23.14 C 91.62 16.60 107.30 12.93 123.00 13.36 C 162.57 12.18 201.41 34.72 221.07 68.91 C 234.11 90.68 239.10 116.94 235.58 142.02 C 235.03 148.08 233.21 153.90 232.03 159.85 C 228.97 159.13 226.14 157.71 223.35 156.32 C 227.87 142.66 228.24 128.17 227.48 113.94 C 224.80 90.59 214.37 67.97 197.58 51.41 C 179.32 32.28 153.34 21.02 126.99 19.88 C 107.10 18.80 86.97 23.74 69.70 33.67 C 53.04 43.14 40.21 58.20 31.13 74.90 C 29.76 74.27 28.37 73.69 26.97 73.16 C 37.30 51.37 55.18 32.87 77.39 23.14 Z" />
<path fill="#020102" opacity="1.00" d=" M 21.78 84.21 C 23.14 84.48 24.51 84.71 25.88 84.93 C 25.19 89.76 22.90 94.15 21.67 98.83 C 18.74 109.63 16.83 120.78 17.31 132.00 C 16.67 146.43 19.63 161.03 26.08 173.98 C 31.19 183.73 36.91 193.18 41.45 203.23 C 36.25 195.47 31.40 187.48 26.63 179.46 C 20.96 170.35 17.16 160.14 15.21 149.61 C 11.31 127.72 14.17 105.02 21.78 84.21 Z" />
<path fill="#020102" opacity="1.00" d=" M 219.13 167.50 C 221.90 168.78 224.71 169.95 227.58 170.96 C 218.14 193.25 201.42 212.44 180.50 224.63 C 173.83 228.65 166.15 230.26 158.79 232.47 C 148.15 235.51 137.09 237.10 126.01 236.66 C 111.88 237.10 97.68 233.15 85.92 225.26 C 109.60 234.63 137.43 233.98 160.18 222.24 C 164.69 220.08 169.87 219.66 174.22 217.10 C 194.13 206.14 210.18 188.37 219.13 167.50 Z" />
</g>
<g id="#f04186ff">
<path fill="#f04186" opacity="1.00" d=" M 120.26 33.23 C 121.44 30.49 123.54 27.08 127.00 27.48 C 131.24 27.22 132.97 31.79 133.79 35.16 C 138.28 53.43 143.31 71.55 147.45 89.90 C 144.08 88.57 140.65 87.33 137.50 85.51 C 136.08 84.89 135.66 83.34 135.25 81.99 C 132.08 70.07 129.42 58.00 125.89 46.17 C 121.61 55.75 117.25 65.28 112.97 74.86 C 109.76 73.61 106.60 72.25 103.43 70.90 C 108.72 58.20 114.73 45.82 120.26 33.23 Z" />
<path fill="#f04186" opacity="1.00" d=" M 98.49 81.87 C 101.73 82.96 104.90 84.25 108.04 85.62 C 105.63 91.84 102.88 97.92 100.14 104.00 C 96.99 102.86 93.91 101.56 90.80 100.33 C 92.68 93.91 95.69 87.91 98.49 81.87 Z" />
<path fill="#f04186" opacity="1.00" d=" M 140.10 99.87 C 143.82 101.31 148.00 102.25 151.04 104.97 C 153.58 112.47 155.22 120.29 156.78 128.06 C 153.21 126.53 148.79 125.84 146.10 122.95 C 143.65 115.40 141.91 107.60 140.10 99.87 Z" />
<path fill="#f04186" opacity="1.00" d=" M 85.75 110.96 C 89.01 112.18 92.20 113.56 95.38 114.99 C 86.88 136.38 76.86 157.51 72.90 180.35 C 71.14 189.73 73.47 199.90 79.98 207.01 C 89.49 217.31 102.62 224.40 116.58 226.13 C 123.60 226.96 130.70 226.82 137.75 226.38 C 145.36 225.84 152.69 223.57 160.18 222.24 C 137.43 233.98 109.60 234.63 85.92 225.26 C 72.20 217.64 61.73 203.09 61.77 187.02 C 62.72 169.88 68.66 153.57 74.77 137.71 C 78.33 128.75 81.91 119.79 85.75 110.96 Z" />
<path fill="#f04186" opacity="1.00" d=" M 150.04 138.22 C 153.50 139.61 157.16 140.70 160.26 142.82 C 161.87 145.92 162.35 149.45 163.30 152.78 C 167.01 168.30 171.29 183.69 175.07 199.19 C 176.98 203.39 171.43 208.22 167.71 205.41 C 164.74 202.82 163.39 198.93 161.43 195.62 C 154.80 183.16 146.92 171.13 136.54 161.46 C 129.79 155.07 121.44 150.73 112.93 147.18 C 107.47 144.87 101.51 143.69 96.48 140.41 C 102.41 140.09 108.24 141.51 113.89 143.14 C 123.24 145.80 132.22 150.08 139.84 156.18 C 147.99 163.03 155.06 171.10 161.03 179.91 C 157.63 165.95 153.39 152.20 150.04 138.22 Z" />
</g>
</svg>
