<?xml version="1.0" encoding="UTF-8" ?>
<!DOCTYPE svg PUBLIC "-//W3C//DTD SVG 1.1//EN" "http://www.w3.org/Graphics/SVG/1.1/DTD/svg11.dtd">
<svg width="250pt" height="250pt" viewBox="0 0 250 250" version="1.1" xmlns="http://www.w3.org/2000/svg">
<g id="#ffffffff">
<path fill="#ffffff" opacity="1.00" d=" M 0.00 0.00 L 250.00 0.00 L 250.00 250.00 L 0.00 250.00 L 0.00 0.00 M 123.90 59.67 C 112.46 90.69 100.25 121.41 88.26 152.22 C 86.26 156.95 84.51 162.10 80.63 165.67 C 77.58 168.55 73.22 168.96 69.35 169.93 C 69.25 171.52 69.27 173.13 69.27 174.73 C 82.02 174.72 94.76 174.71 107.50 174.73 C 107.51 173.09 107.50 171.45 107.49 169.81 C 103.49 169.13 98.82 169.08 95.78 166.01 C 93.80 162.93 95.32 159.26 96.12 156.05 C 103.59 132.48 112.81 109.50 120.84 86.12 C 121.37 84.63 121.70 83.00 122.87 81.84 C 131.53 107.35 140.52 132.74 149.45 158.15 C 150.19 160.39 150.98 162.76 150.52 165.16 C 148.42 169.16 143.13 168.99 139.29 169.82 C 139.27 171.45 139.26 173.09 139.26 174.73 C 153.47 174.71 167.68 174.72 181.89 174.72 C 181.88 173.08 181.87 171.44 181.85 169.81 C 177.59 169.26 172.85 168.56 169.84 165.16 C 165.99 160.82 164.39 155.09 162.31 149.80 C 151.04 119.33 140.37 88.64 129.45 58.05 C 127.59 58.55 125.74 59.10 123.90 59.67 Z" />
</g>
<g id="#000000ff">
<path fill="#000000" opacity="1.00" d=" M 123.90 59.67 C 125.74 59.10 127.59 58.55 129.45 58.05 C 140.37 88.64 151.04 119.33 162.31 149.80 C 164.39 155.09 165.99 160.82 169.84 165.16 C 172.85 168.56 177.59 169.26 181.85 169.81 C 181.87 171.44 181.88 173.08 181.89 174.72 C 167.68 174.72 153.47 174.71 139.26 174.73 C 139.26 173.09 139.27 171.45 139.29 169.82 C 143.13 168.99 148.42 169.16 150.52 165.16 C 150.98 162.76 150.19 160.39 149.45 158.15 C 140.52 132.74 131.53 107.35 122.87 81.84 C 121.70 83.00 121.37 84.63 120.84 86.12 C 112.81 109.50 103.59 132.48 96.12 156.05 C 95.32 159.26 93.80 162.93 95.78 166.01 C 98.82 169.08 103.49 169.13 107.49 169.81 C 107.50 171.45 107.51 173.09 107.50 174.73 C 94.76 174.71 82.02 174.72 69.27 174.73 C 69.27 173.13 69.25 171.52 69.35 169.93 C 73.22 168.96 77.58 168.55 80.63 165.67 C 84.51 162.10 86.26 156.95 88.26 152.22 C 100.25 121.41 112.46 90.69 123.90 59.67 Z" />
</g>
</svg>
