<?xml version="1.0" encoding="UTF-8" ?>
<!DOCTYPE svg PUBLIC "-//W3C//DTD SVG 1.1//EN" "http://www.w3.org/Graphics/SVG/1.1/DTD/svg11.dtd">
<svg width="250pt" height="250pt" viewBox="0 0 250 250" version="1.1" xmlns="http://www.w3.org/2000/svg">
<g id="#ffffffff">
<path fill="#ffffff" opacity="1.00" d=" M 0.00 0.00 L 250.00 0.00 L 250.00 250.00 L 0.00 250.00 L 0.00 0.00 M 112.46 2.59 C 79.41 5.99 47.86 23.18 27.70 49.70 C 9.30 73.39 -0.03 104.03 2.33 133.96 C 4.34 163.15 17.30 191.35 37.95 212.06 C 58.39 232.43 86.13 245.32 114.92 247.61 C 144.48 250.12 174.85 241.41 198.59 223.61 C 219.55 208.09 235.24 185.65 242.71 160.66 C 250.50 135.32 249.67 107.45 240.45 82.59 C 232.52 60.79 218.26 41.26 199.73 27.26 C 175.17 8.37 143.27 -0.62 112.46 2.59 Z" />
<path fill="#ffffff" opacity="1.00" d=" M 109.41 12.55 C 134.13 9.12 159.94 14.04 181.60 26.47 C 205.42 40.31 224.24 62.87 232.76 89.14 C 240.41 112.24 240.40 137.76 232.76 160.85 C 224.32 186.89 205.76 209.28 182.25 223.15 C 158.02 237.29 128.47 241.94 101.07 235.97 C 78.41 231.27 57.43 219.24 41.77 202.23 C 22.77 182.09 11.85 154.65 11.55 126.99 C 10.88 99.20 20.94 71.25 39.38 50.41 C 57.14 29.86 82.46 16.10 109.41 12.55 M 87.43 20.11 C 79.20 22.72 71.51 26.84 64.20 31.40 C 57.68 35.71 51.50 40.59 46.06 46.21 C 40.37 51.97 34.98 58.17 30.96 65.23 C 27.10 70.65 24.37 76.75 21.70 82.81 C 20.62 85.64 19.16 88.44 18.91 91.49 C 16.81 96.47 15.85 101.81 14.95 107.10 C 13.97 113.19 13.16 119.36 13.73 125.53 C 13.16 133.91 14.67 142.26 16.40 150.43 C 23.16 180.42 43.18 207.03 69.97 222.07 C 79.35 227.10 89.30 231.71 99.87 233.37 C 110.72 236.70 122.28 236.71 133.53 236.28 C 145.22 235.14 156.91 232.77 167.67 227.95 C 177.22 224.12 186.42 219.03 194.22 212.28 C 200.32 207.69 205.95 202.42 210.56 196.32 C 216.24 190.08 220.86 182.87 224.45 175.24 C 228.64 167.72 231.23 159.45 233.55 151.19 L 233.05 150.65 C 236.49 140.83 236.65 130.13 236.32 119.82 C 235.62 99.70 228.97 79.92 217.90 63.14 C 202.20 39.59 177.29 22.12 149.52 16.31 C 138.45 13.57 126.91 12.94 115.58 13.94 C 105.99 14.75 96.41 16.60 87.43 20.11 Z" />
<path fill="#ffffff" opacity="1.00" d=" M 99.16 31.59 C 108.26 29.07 117.71 27.95 127.15 28.20 C 140.16 28.15 152.85 31.70 164.89 36.37 C 182.08 44.64 197.16 57.44 207.26 73.70 C 210.72 79.12 213.32 85.01 216.00 90.84 C 219.13 100.59 221.65 110.67 221.72 120.96 C 221.77 125.85 221.78 130.76 221.45 135.64 C 220.31 144.81 217.81 153.74 214.58 162.37 C 210.68 170.91 205.99 179.15 200.00 186.40 C 194.97 192.47 189.18 197.89 182.96 202.70 C 168.94 213.15 152.15 219.60 134.79 221.51 C 119.79 222.51 104.46 221.15 90.40 215.56 C 77.67 210.65 66.02 203.05 56.34 193.45 C 40.37 177.35 30.13 155.62 28.42 132.98 C 28.04 124.36 28.01 115.65 29.63 107.14 C 31.51 97.38 34.88 87.92 39.53 79.15 C 43.63 71.55 48.85 64.58 54.68 58.23 C 60.62 52.15 67.24 46.71 74.43 42.18 C 82.17 37.59 90.49 34.00 99.16 31.59 M 115.39 30.54 C 103.69 31.95 92.07 34.98 81.59 40.46 C 50.94 56.09 29.84 89.43 30.19 124.01 C 29.52 145.91 37.48 167.74 51.27 184.67 C 65.53 202.27 86.13 214.90 108.58 218.58 C 116.29 220.28 124.22 219.77 132.05 219.75 C 154.56 218.32 176.24 208.07 192.05 192.05 C 207.41 176.85 217.27 156.27 219.51 134.78 C 220.38 122.43 219.78 109.85 216.02 97.98 C 208.47 72.23 189.39 50.15 165.08 38.81 C 149.62 31.72 132.31 29.02 115.39 30.54 Z" />
<path fill="#ffffff" opacity="1.00" d=" M 80.77 76.19 C 110.26 76.20 139.74 76.20 169.23 76.18 C 169.54 83.38 169.63 90.60 169.18 97.79 C 158.50 97.89 147.81 97.51 137.13 97.97 C 136.70 102.66 136.75 107.38 136.95 112.08 C 149.97 112.98 163.23 113.95 175.58 118.46 C 178.67 119.78 182.54 121.32 183.32 124.99 C 182.37 128.88 178.19 130.45 174.86 131.78 C 162.66 135.90 149.72 137.09 136.94 137.89 C 136.65 153.14 137.00 168.40 136.77 183.66 C 128.95 183.60 121.13 183.59 113.31 183.67 C 113.00 168.29 113.81 152.86 112.91 137.51 C 100.43 137.30 87.83 135.77 75.88 132.04 C 72.35 130.67 67.68 129.18 66.75 125.00 C 67.41 121.29 71.35 119.77 74.41 118.45 C 86.81 113.97 100.11 112.87 113.18 112.13 C 113.37 107.38 113.38 102.62 113.14 97.87 C 102.37 97.64 91.59 97.83 80.82 97.79 C 80.37 90.60 80.47 83.38 80.77 76.19 M 78.11 119.13 C 75.75 120.16 71.97 121.46 72.34 124.66 C 74.28 127.33 77.59 128.43 80.60 129.43 C 88.36 131.69 96.43 132.62 104.45 133.40 C 123.38 134.61 142.52 134.60 161.26 131.35 C 165.97 130.41 170.81 129.43 175.03 127.04 C 176.48 126.17 178.64 124.54 177.35 122.66 C 174.88 119.64 170.82 118.74 167.25 117.70 C 157.39 115.35 147.24 114.09 137.10 114.13 C 136.69 119.35 136.87 124.59 136.83 129.82 C 129.00 130.48 121.10 130.41 113.26 129.80 C 113.28 124.56 113.40 119.31 113.14 114.07 C 101.35 114.37 89.37 115.45 78.11 119.13 Z" />
</g>
<g id="#8247e5ff">
<path fill="#8247e5" opacity="1.00" d=" M 112.46 2.59 C 143.27 -0.62 175.17 8.37 199.73 27.26 C 218.26 41.26 232.52 60.79 240.45 82.59 C 249.67 107.45 250.50 135.32 242.71 160.66 C 235.24 185.65 219.55 208.09 198.59 223.61 C 174.85 241.41 144.48 250.12 114.92 247.61 C 86.13 245.32 58.39 232.43 37.95 212.06 C 17.30 191.35 4.34 163.15 2.33 133.96 C -0.03 104.03 9.30 73.39 27.70 49.70 C 47.86 23.18 79.41 5.99 112.46 2.59 M 109.41 12.55 C 82.46 16.10 57.14 29.86 39.38 50.41 C 20.94 71.25 10.88 99.20 11.55 126.99 C 11.85 154.65 22.77 182.09 41.77 202.23 C 57.43 219.24 78.41 231.27 101.07 235.97 C 128.47 241.94 158.02 237.29 182.25 223.15 C 205.76 209.28 224.32 186.89 232.76 160.85 C 240.40 137.76 240.41 112.24 232.76 89.14 C 224.24 62.87 205.42 40.31 181.60 26.47 C 159.94 14.04 134.13 9.12 109.41 12.55 Z" />
</g>
<g id="#8d70aaff">
<path fill="#8d70aa" opacity="1.00" d=" M 87.43 20.11 C 96.41 16.60 105.99 14.75 115.58 13.94 C 118.66 19.28 122.98 23.71 127.15 28.20 C 117.71 27.95 108.26 29.07 99.16 31.59 C 94.18 29.02 89.91 25.19 87.43 20.11 Z" />
</g>
<g id="#9a65a6ff">
<path fill="#9a65a6" opacity="1.00" d=" M 115.58 13.94 C 126.91 12.94 138.45 13.57 149.52 16.31 C 151.30 25.09 160.58 29.04 164.89 36.37 C 152.85 31.70 140.16 28.15 127.15 28.20 C 122.98 23.71 118.66 19.28 115.58 13.94 Z" />
</g>
<g id="#a75ba2ff">
<path fill="#a75ba2" opacity="1.00" d=" M 164.89 36.37 C 160.58 29.04 151.30 25.09 149.52 16.31 C 177.29 22.12 202.20 39.59 217.90 63.14 C 228.97 79.92 235.62 99.70 236.32 119.82 C 232.36 118.23 230.46 114.18 228.02 110.98 C 223.28 104.68 222.01 96.26 216.00 90.84 C 213.32 85.01 210.72 79.12 207.26 73.70 C 197.16 57.44 182.08 44.64 164.89 36.37 Z" />
</g>
<g id="#7f7aaeff">
<path fill="#7f7aae" opacity="1.00" d=" M 64.20 31.40 C 71.51 26.84 79.20 22.72 87.43 20.11 C 89.91 25.19 94.18 29.02 99.16 31.59 C 90.49 34.00 82.17 37.59 74.43 42.18 C 71.52 38.18 69.41 32.86 64.20 31.40 Z" />
</g>
<g id="#53ae94ff">
<path fill="#53ae94" opacity="1.00" d=" M 115.39 30.54 C 132.31 29.02 149.62 31.72 165.08 38.81 C 189.39 50.15 208.47 72.23 216.02 97.98 C 219.78 109.85 220.38 122.43 219.51 134.78 C 217.27 156.27 207.41 176.85 192.05 192.05 C 176.24 208.07 154.56 218.32 132.05 219.75 C 124.22 219.77 116.29 220.28 108.58 218.58 C 86.13 214.90 65.53 202.27 51.27 184.67 C 37.48 167.74 29.52 145.91 30.19 124.01 C 29.84 89.43 50.94 56.09 81.59 40.46 C 92.07 34.98 103.69 31.95 115.39 30.54 M 80.77 76.19 C 80.47 83.38 80.37 90.60 80.82 97.79 C 91.59 97.83 102.37 97.64 113.14 97.87 C 113.38 102.62 113.37 107.38 113.18 112.13 C 100.11 112.87 86.81 113.97 74.41 118.45 C 71.35 119.77 67.41 121.29 66.75 125.00 C 67.68 129.18 72.35 130.67 75.88 132.04 C 87.83 135.77 100.43 137.30 112.91 137.51 C 113.81 152.86 113.00 168.29 113.31 183.67 C 121.13 183.59 128.95 183.60 136.77 183.66 C 137.00 168.40 136.65 153.14 136.94 137.89 C 149.72 137.09 162.66 135.90 174.86 131.78 C 178.19 130.45 182.37 128.88 183.32 124.99 C 182.54 121.32 178.67 119.78 175.58 118.46 C 163.23 113.95 149.97 112.98 136.95 112.08 C 136.75 107.38 136.70 102.66 137.13 97.97 C 147.81 97.51 158.50 97.89 169.18 97.79 C 169.63 90.60 169.54 83.38 169.23 76.18 C 139.74 76.20 110.26 76.20 80.77 76.19 Z" />
<path fill="#53ae94" opacity="1.00" d=" M 78.11 119.13 C 89.37 115.45 101.35 114.37 113.14 114.07 C 113.40 119.31 113.28 124.56 113.26 129.80 C 121.10 130.41 129.00 130.48 136.83 129.82 C 136.87 124.59 136.69 119.35 137.10 114.13 C 147.24 114.09 157.39 115.35 167.25 117.70 C 170.82 118.74 174.88 119.64 177.35 122.66 C 178.64 124.54 176.48 126.17 175.03 127.04 C 170.81 129.43 165.97 130.41 161.26 131.35 C 142.52 134.60 123.38 134.61 104.45 133.40 C 96.43 132.62 88.36 131.69 80.60 129.43 C 77.59 128.43 74.28 127.33 72.34 124.66 C 71.97 121.46 75.75 120.16 78.11 119.13 Z" />
</g>
<g id="#7384b1ff">
<path fill="#7384b1" opacity="1.00" d=" M 46.06 46.21 C 51.50 40.59 57.68 35.71 64.20 31.40 C 69.41 32.86 71.52 38.18 74.43 42.18 C 67.24 46.71 60.62 52.15 54.68 58.23 C 53.89 53.04 51.03 48.30 46.06 46.21 Z" />
</g>
<g id="#658eb5ff">
<path fill="#658eb5" opacity="1.00" d=" M 30.96 65.23 C 34.98 58.17 40.37 51.97 46.06 46.21 C 51.03 48.30 53.89 53.04 54.68 58.23 C 48.85 64.58 43.63 71.55 39.53 79.15 C 38.80 73.47 35.98 68.19 30.96 65.23 Z" />
</g>
<g id="#5798b9ff">
<path fill="#5798b9" opacity="1.00" d=" M 21.70 82.81 C 24.37 76.75 27.10 70.65 30.96 65.23 C 35.98 68.19 38.80 73.47 39.53 79.15 C 34.88 87.92 31.51 97.38 29.63 107.14 C 27.09 101.27 22.92 96.38 18.91 91.49 C 19.16 88.44 20.62 85.64 21.70 82.81 Z" />
</g>
<g id="#9a63a5ff">
<path fill="#9a63a5" opacity="1.00" d=" M 216.00 90.84 C 222.01 96.26 223.28 104.68 228.02 110.98 C 230.46 114.18 232.36 118.23 236.32 119.82 C 236.65 130.13 236.49 140.83 233.05 150.65 C 228.50 146.18 225.76 140.31 221.45 135.64 C 221.78 130.76 221.77 125.85 221.72 120.96 C 221.65 110.67 219.13 100.59 216.00 90.84 Z" />
</g>
<g id="#48a3bdff">
<path fill="#48a3bd" opacity="1.00" d=" M 14.95 107.10 C 15.85 101.81 16.81 96.47 18.91 91.49 C 22.92 96.38 27.09 101.27 29.63 107.14 C 28.01 115.65 28.04 124.36 28.42 132.98 C 30.13 155.62 40.37 177.35 56.34 193.45 C 55.97 194.06 55.25 195.29 54.89 195.90 C 42.64 184.36 34.68 169.11 28.38 153.70 C 24.58 143.91 22.81 132.08 13.73 125.53 C 13.16 119.36 13.97 113.19 14.95 107.10 Z" />
</g>
<g id="#39afc2ff">
<path fill="#39afc2" opacity="1.00" d=" M 13.73 125.53 C 22.81 132.08 24.58 143.91 28.38 153.70 C 34.68 169.11 42.64 184.36 54.89 195.90 C 59.31 199.86 63.80 203.74 68.13 207.80 C 72.11 213.05 78.19 215.82 83.43 219.56 C 87.19 222.16 91.42 224.08 94.86 227.13 C 97.16 229.16 99.41 231.23 101.70 233.27 C 101.24 233.30 100.33 233.35 99.87 233.37 C 89.30 231.71 79.35 227.10 69.97 222.07 C 43.18 207.03 23.16 180.42 16.40 150.43 C 14.67 142.26 13.16 133.91 13.73 125.53 Z" />
</g>
<g id="#8e6ca8ff">
<path fill="#8e6ca8" opacity="1.00" d=" M 214.58 162.37 C 217.81 153.74 220.31 144.81 221.45 135.64 C 225.76 140.31 228.50 146.18 233.05 150.65 L 233.55 151.19 C 231.23 159.45 228.64 167.72 224.45 175.24 C 220.23 171.71 217.82 166.71 214.58 162.37 Z" />
</g>
<g id="#8176abff">
<path fill="#8176ab" opacity="1.00" d=" M 200.00 186.40 C 205.99 179.15 210.68 170.91 214.58 162.37 C 217.82 166.71 220.23 171.71 224.45 175.24 C 220.86 182.87 216.24 190.08 210.56 196.32 C 207.63 192.44 204.46 188.57 200.00 186.40 Z" />
</g>
<g id="#737fafff">
<path fill="#737faf" opacity="1.00" d=" M 182.96 202.70 C 189.18 197.89 194.97 192.47 200.00 186.40 C 204.46 188.57 207.63 192.44 210.56 196.32 C 205.95 202.42 200.32 207.69 194.22 212.28 C 190.93 210.20 187.20 208.92 183.28 208.93 C 184.25 207.09 185.02 205.16 185.80 203.23 C 185.09 203.10 183.67 202.84 182.96 202.70 Z" />
</g>
<g id="#4497afff">
<path fill="#4497af" opacity="1.00" d=" M 54.89 195.90 C 55.25 195.29 55.97 194.06 56.34 193.45 C 66.02 203.05 77.67 210.65 90.40 215.56 C 104.46 221.15 119.79 222.51 134.79 221.51 C 137.39 222.34 139.90 223.39 142.47 224.29 C 137.96 225.83 133.49 227.55 128.82 228.54 C 111.35 227.68 93.83 223.23 78.73 214.26 C 75.22 212.06 71.72 209.85 68.13 207.80 C 63.80 203.74 59.31 199.86 54.89 195.90 Z" />
</g>
<g id="#5c87a9ff">
<path fill="#5c87a9" opacity="1.00" d=" M 134.79 221.51 C 152.15 219.60 168.94 213.15 182.96 202.70 C 183.67 202.84 185.09 203.10 185.80 203.23 C 185.02 205.16 184.25 207.09 183.28 208.93 C 177.45 213.93 171.01 218.41 163.90 221.40 C 156.85 222.92 149.65 223.69 142.47 224.29 C 139.90 223.39 137.39 222.34 134.79 221.51 Z" />
</g>
<g id="#47a5bdff">
<path fill="#47a5bd" opacity="1.00" d=" M 68.13 207.80 C 71.72 209.85 75.22 212.06 78.73 214.26 C 93.83 223.23 111.35 227.68 128.82 228.54 C 132.31 229.63 133.57 232.91 133.53 236.28 C 122.28 236.71 110.72 236.70 99.87 233.37 C 100.33 233.35 101.24 233.30 101.70 233.27 C 99.41 231.23 97.16 229.16 94.86 227.13 C 91.42 224.08 87.19 222.16 83.43 219.56 C 78.19 215.82 72.11 213.05 68.13 207.80 Z" />
</g>
<g id="#688db5ff">
<path fill="#688db5" opacity="1.00" d=" M 183.28 208.93 C 187.20 208.92 190.93 210.20 194.22 212.28 C 186.42 219.03 177.22 224.12 167.67 227.95 C 166.60 225.66 165.36 223.46 163.90 221.40 C 171.01 218.41 177.45 213.93 183.28 208.93 Z" />
</g>
<g id="#5699b9ff">
<path fill="#5699b9" opacity="1.00" d=" M 142.47 224.29 C 149.65 223.69 156.85 222.92 163.90 221.40 C 165.36 223.46 166.60 225.66 167.67 227.95 C 156.91 232.77 145.22 235.14 133.53 236.28 C 133.57 232.91 132.31 229.63 128.82 228.54 C 133.49 227.55 137.96 225.83 142.47 224.29 Z" />
</g>
</svg>
