<?xml version="1.0" encoding="UTF-8" ?>
<!DOCTYPE svg PUBLIC "-//W3C//DTD SVG 1.1//EN" "http://www.w3.org/Graphics/SVG/1.1/DTD/svg11.dtd">
<svg width="250pt" height="250pt" viewBox="0 0 250 250" version="1.1" xmlns="http://www.w3.org/2000/svg">
<g id="#fdfdfdff">
<path fill="#fdfdfd" opacity="1.00" d=" M 0.00 0.00 L 110.30 0.00 C 102.07 2.75 93.39 3.76 85.18 6.56 C 66.83 12.85 49.86 23.39 36.48 37.47 C 22.16 51.04 12.11 68.73 6.15 87.43 C 2.99 96.69 2.31 106.50 0.00 115.96 L 0.00 0.00 Z" />
<path fill="#fdfdfd" opacity="1.00" d=" M 139.95 0.00 L 250.00 0.00 L 250.00 114.12 C 247.83 104.66 246.83 94.91 243.46 85.75 C 235.95 63.42 222.49 42.81 203.84 28.23 C 192.86 18.81 179.82 12.07 166.31 7.05 C 157.78 3.78 148.55 3.04 139.95 0.00 Z" />
<path fill="#fdfdfd" opacity="1.00" d=" M 111.44 8.79 C 118.28 8.11 125.18 7.18 132.04 8.17 C 160.55 9.71 188.31 22.30 208.18 42.82 C 238.28 72.08 249.91 118.52 237.42 158.57 C 230.43 182.13 215.82 203.38 196.20 218.19 C 177.64 232.73 154.44 240.83 131.00 242.31 C 103.05 243.62 74.64 234.71 52.74 217.21 C 27.43 197.50 10.85 167.03 8.32 135.02 C 6.87 124.88 8.20 114.64 9.74 104.60 C 14.09 79.74 26.84 56.49 45.42 39.41 C 63.36 22.43 86.94 11.67 111.44 8.79 M 113.42 11.53 C 86.36 14.05 60.42 27.04 41.92 46.93 C 26.17 63.33 15.92 84.74 12.22 107.13 C 11.41 111.71 11.56 116.39 10.87 120.99 C 10.07 126.77 11.52 132.51 11.63 138.28 C 15.43 173.15 36.39 205.65 66.68 223.37 C 84.76 234.14 105.83 239.66 126.83 239.54 C 142.39 238.98 157.95 235.82 172.13 229.30 C 197.04 218.12 217.69 197.70 228.93 172.79 C 237.68 153.46 241.51 131.65 238.41 110.57 C 235.23 84.21 222.16 59.24 202.68 41.26 C 185.05 24.93 162.17 14.33 138.28 11.63 C 130.01 11.17 121.70 11.27 113.42 11.53 Z" />
<path fill="#fdfdfd" opacity="1.00" d=" M 206.33 67.88 C 207.03 67.23 207.76 66.61 208.49 65.98 C 208.67 97.43 208.64 128.89 208.51 160.34 C 199.88 153.79 193.37 144.91 185.00 138.10 C 182.87 138.70 181.38 140.41 179.84 141.87 C 167.18 154.87 154.16 167.50 141.46 180.46 C 139.57 182.17 137.78 184.71 134.94 184.60 C 125.73 184.69 116.52 184.70 107.32 184.53 C 108.62 182.47 109.97 180.44 111.63 178.67 C 130.43 159.78 149.16 140.84 167.91 121.91 C 171.15 118.53 174.83 115.43 177.20 111.35 C 179.37 105.53 180.12 99.26 180.62 93.10 C 189.51 85.04 197.56 76.09 206.33 67.88 Z" />
<path fill="#fdfdfd" opacity="1.00" d=" M 80.34 86.93 C 84.47 83.14 87.75 78.12 92.98 75.77 C 98.23 73.93 103.22 77.75 105.63 82.15 C 106.77 84.81 106.54 87.80 107.42 90.54 C 111.13 92.78 115.33 94.05 119.24 95.92 C 117.24 98.71 115.20 101.76 112.05 103.37 C 108.38 101.79 104.95 99.66 101.07 98.57 C 102.78 102.08 105.12 105.23 107.57 108.25 C 105.52 110.01 103.89 114.27 100.71 113.32 C 93.35 104.99 87.91 95.11 80.34 86.93 M 93.06 85.60 C 93.31 87.14 93.45 88.71 93.89 90.22 C 95.10 90.80 96.20 91.59 97.40 92.21 C 97.77 90.06 98.87 87.60 97.00 85.81 C 95.69 85.69 94.38 85.62 93.06 85.60 Z" />
<path fill="#fdfdfd" opacity="1.00" d=" M 62.20 106.02 C 66.00 101.48 70.10 96.28 76.05 94.63 C 82.22 94.63 87.67 100.05 88.48 106.05 C 89.06 110.95 85.29 114.70 82.38 118.12 C 84.36 121.18 86.43 124.18 88.48 127.19 C 86.62 129.29 84.70 131.33 82.77 133.37 C 77.82 128.77 74.57 122.77 70.36 117.56 C 67.61 113.73 64.26 110.29 62.20 106.02 M 74.33 104.17 C 74.50 106.18 74.09 108.65 75.90 110.07 C 77.34 111.65 79.36 109.32 79.52 107.82 C 80.12 104.93 76.24 104.72 74.33 104.17 Z" />
<path fill="#fdfdfd" opacity="1.00" d=" M 46.54 121.36 C 47.95 118.83 50.13 116.18 52.97 115.33 C 58.10 117.68 61.97 122.16 66.70 125.21 C 71.02 128.82 76.68 131.07 79.92 135.81 C 78.25 137.98 76.40 140.26 73.85 141.39 C 72.14 141.07 70.51 140.44 68.85 139.94 C 67.38 141.40 65.80 142.78 64.61 144.49 C 64.01 146.85 64.56 149.34 64.59 151.75 C 62.45 153.92 60.10 155.94 57.19 156.99 C 55.09 148.22 51.82 139.80 49.00 131.25 C 48.02 128.02 46.37 124.81 46.54 121.36 M 57.23 128.73 C 57.64 131.03 58.15 133.31 58.61 135.60 C 60.07 135.46 61.52 135.23 62.99 135.13 C 62.21 132.11 59.85 130.16 57.23 128.73 Z" />
<path fill="#fdfdfd" opacity="1.00" d=" M 0.00 140.68 C 2.68 147.20 3.31 154.28 5.33 160.98 C 11.90 180.59 22.13 199.40 37.35 213.65 C 49.99 227.03 66.31 236.53 83.53 242.72 C 92.99 246.28 103.02 247.78 112.84 250.00 L 0.00 250.00 L 0.00 140.68 Z" />
<path fill="#fdfdfd" opacity="1.00" d=" M 244.04 162.73 C 246.37 155.91 247.60 148.77 250.00 141.97 L 250.00 250.00 L 137.89 250.00 C 141.65 249.23 145.35 248.20 149.12 247.48 C 171.72 243.22 192.91 232.35 209.92 216.93 C 225.87 202.34 237.63 183.35 244.04 162.73 Z" />
</g>
<g id="#fdd52cff">
<path fill="#fdd52c" opacity="1.00" d=" M 110.30 0.00 L 139.95 0.00 C 148.55 3.04 157.78 3.78 166.31 7.05 C 179.82 12.07 192.86 18.81 203.84 28.23 C 222.49 42.81 235.95 63.42 243.46 85.75 C 246.83 94.91 247.83 104.66 250.00 114.12 L 250.00 141.97 C 247.60 148.77 246.37 155.91 244.04 162.73 C 237.63 183.35 225.87 202.34 209.92 216.93 C 192.91 232.35 171.72 243.22 149.12 247.48 C 145.35 248.20 141.65 249.23 137.89 250.00 L 112.84 250.00 C 103.02 247.78 92.99 246.28 83.53 242.72 C 66.31 236.53 49.99 227.03 37.35 213.65 C 22.13 199.40 11.90 180.59 5.33 160.98 C 3.31 154.28 2.68 147.20 0.00 140.68 L 0.00 115.96 C 2.31 106.50 2.99 96.69 6.15 87.43 C 12.11 68.73 22.16 51.04 36.48 37.47 C 49.86 23.39 66.83 12.85 85.18 6.56 C 93.39 3.76 102.07 2.75 110.30 0.00 M 111.44 8.79 C 86.94 11.67 63.36 22.43 45.42 39.41 C 26.84 56.49 14.09 79.74 9.74 104.60 C 8.20 114.64 6.87 124.88 8.32 135.02 C 10.85 167.03 27.43 197.50 52.74 217.21 C 74.64 234.71 103.05 243.62 131.00 242.31 C 154.44 240.83 177.64 232.73 196.20 218.19 C 215.82 203.38 230.43 182.13 237.42 158.57 C 249.91 118.52 238.28 72.08 208.18 42.82 C 188.31 22.30 160.55 9.71 132.04 8.17 C 125.18 7.18 118.28 8.11 111.44 8.79 Z" />
<path fill="#fdd52c" opacity="1.00" d=" M 113.42 11.53 C 121.70 11.27 130.01 11.17 138.28 11.63 C 162.17 14.33 185.05 24.93 202.68 41.26 C 222.16 59.24 235.23 84.21 238.41 110.57 C 241.51 131.65 237.68 153.46 228.93 172.79 C 217.69 197.70 197.04 218.12 172.13 229.30 C 157.95 235.82 142.39 238.98 126.83 239.54 C 105.83 239.66 84.76 234.14 66.68 223.37 C 36.39 205.65 15.43 173.15 11.63 138.28 C 11.52 132.51 10.07 126.77 10.87 120.99 C 11.56 116.39 11.41 111.71 12.22 107.13 C 15.92 84.74 26.17 63.33 41.92 46.93 C 60.42 27.04 86.36 14.05 113.42 11.53 M 114.06 66.42 C 120.89 73.10 127.59 79.93 134.43 86.61 C 135.22 87.57 136.54 88.36 136.47 89.76 C 134.06 92.89 131.03 95.46 128.27 98.27 C 102.27 124.27 76.27 150.27 50.27 176.27 C 47.60 178.88 44.79 181.36 42.42 184.25 C 52.26 185.02 62.18 184.62 72.04 184.53 C 79.64 179.21 85.63 171.83 92.62 165.73 C 98.80 160.56 104.21 154.56 110.25 149.24 C 118.35 142.02 125.57 133.86 133.89 126.90 C 140.18 120.84 146.43 114.76 152.91 108.91 C 156.93 105.44 160.03 100.55 165.29 98.86 C 170.43 97.00 175.44 94.84 180.62 93.10 C 180.12 99.26 179.37 105.53 177.20 111.35 C 174.83 115.43 171.15 118.53 167.91 121.91 C 149.16 140.84 130.43 159.78 111.63 178.67 C 109.97 180.44 108.62 182.47 107.32 184.53 C 116.52 184.70 125.73 184.69 134.94 184.60 C 137.78 184.71 139.57 182.17 141.46 180.46 C 154.16 167.50 167.18 154.87 179.84 141.87 C 181.38 140.41 182.87 138.70 185.00 138.10 C 193.37 144.91 199.88 153.79 208.51 160.34 C 208.64 128.89 208.67 97.43 208.49 65.98 C 207.76 66.61 207.03 67.23 206.33 67.88 C 206.47 67.30 206.75 66.14 206.90 65.56 C 177.93 65.35 148.95 65.57 119.97 65.46 C 117.95 65.37 115.96 65.74 114.06 66.42 M 80.34 86.93 C 87.91 95.11 93.35 104.99 100.71 113.32 C 103.89 114.27 105.52 110.01 107.57 108.25 C 105.12 105.23 102.78 102.08 101.07 98.57 C 104.95 99.66 108.38 101.79 112.05 103.37 C 115.20 101.76 117.24 98.71 119.24 95.92 C 115.33 94.05 111.13 92.78 107.42 90.54 C 106.54 87.80 106.77 84.81 105.63 82.15 C 103.22 77.75 98.23 73.93 92.98 75.77 C 87.75 78.12 84.47 83.14 80.34 86.93 M 62.20 106.02 C 64.26 110.29 67.61 113.73 70.36 117.56 C 74.57 122.77 77.82 128.77 82.77 133.37 C 84.70 131.33 86.62 129.29 88.48 127.19 C 86.43 124.18 84.36 121.18 82.38 118.12 C 85.29 114.70 89.06 110.95 88.48 106.05 C 87.67 100.05 82.22 94.63 76.05 94.63 C 70.10 96.28 66.00 101.48 62.20 106.02 M 46.54 121.36 C 46.37 124.81 48.02 128.02 49.00 131.25 C 51.82 139.80 55.09 148.22 57.19 156.99 C 60.10 155.94 62.45 153.92 64.59 151.75 C 64.56 149.34 64.01 146.85 64.61 144.49 C 65.80 142.78 67.38 141.40 68.85 139.94 C 70.51 140.44 72.14 141.07 73.85 141.39 C 76.40 140.26 78.25 137.98 79.92 135.81 C 76.68 131.07 71.02 128.82 66.70 125.21 C 61.97 122.16 58.10 117.68 52.97 115.33 C 50.13 116.18 47.95 118.83 46.54 121.36 Z" />
<path fill="#fdd52c" opacity="1.00" d=" M 93.06 85.60 C 94.38 85.62 95.69 85.69 97.00 85.81 C 98.87 87.60 97.77 90.06 97.40 92.21 C 96.20 91.59 95.10 90.80 93.89 90.22 C 93.45 88.71 93.31 87.14 93.06 85.60 Z" />
<path fill="#fdd52c" opacity="1.00" d=" M 74.33 104.17 C 76.24 104.72 80.12 104.93 79.52 107.82 C 79.36 109.32 77.34 111.65 75.90 110.07 C 74.09 108.65 74.50 106.18 74.33 104.17 Z" />
<path fill="#fdd52c" opacity="1.00" d=" M 57.23 128.73 C 59.85 130.16 62.21 132.11 62.99 135.13 C 61.52 135.23 60.07 135.46 58.61 135.60 C 58.15 133.31 57.64 131.03 57.23 128.73 Z" />
</g>
<g id="#010100ff">
<path fill="#010100" opacity="1.00" d=" M 114.06 66.42 C 115.96 65.74 117.95 65.37 119.97 65.46 C 148.95 65.57 177.93 65.35 206.90 65.56 C 206.75 66.14 206.47 67.30 206.33 67.88 C 197.56 76.09 189.51 85.04 180.62 93.10 C 175.44 94.84 170.43 97.00 165.29 98.86 C 160.03 100.55 156.93 105.44 152.91 108.91 C 146.43 114.76 140.18 120.84 133.89 126.90 C 125.57 133.86 118.35 142.02 110.25 149.24 C 104.21 154.56 98.80 160.56 92.62 165.73 C 85.63 171.83 79.64 179.21 72.04 184.53 C 62.18 184.62 52.26 185.02 42.42 184.25 C 44.79 181.36 47.60 178.88 50.27 176.27 C 76.27 150.27 102.27 124.27 128.27 98.27 C 131.03 95.46 134.06 92.89 136.47 89.76 C 136.54 88.36 135.22 87.57 134.43 86.61 C 127.59 79.93 120.89 73.10 114.06 66.42 Z" />
</g>
</svg>
