<?xml version="1.0" encoding="UTF-8" ?>
<!DOCTYPE svg PUBLIC "-//W3C//DTD SVG 1.1//EN" "http://www.w3.org/Graphics/SVG/1.1/DTD/svg11.dtd">
<svg width="250pt" height="250pt" viewBox="0 0 250 250" version="1.1" xmlns="http://www.w3.org/2000/svg">
<g id="#ffffffff">
<path fill="#ffffff" opacity="1.00" d=" M 0.00 0.00 L 250.00 0.00 L 250.00 250.00 L 0.00 250.00 L 0.00 0.00 M 78.05 13.91 C 75.03 15.28 72.01 16.64 69.07 18.19 C 62.25 21.75 55.83 26.03 49.75 30.74 C 42.86 36.50 36.47 42.87 30.72 49.77 C 26.82 54.68 23.31 59.89 20.14 65.30 C 16.79 70.89 14.33 76.94 11.85 82.95 C 11.52 83.96 11.18 84.96 10.82 85.96 C 1.44 113.04 2.29 143.38 12.79 170.02 C 24.27 198.53 46.82 222.42 74.87 235.11 C 83.86 239.29 93.43 242.24 103.19 243.97 C 132.42 249.29 163.64 243.73 188.81 227.79 C 214.47 211.89 233.81 186.08 241.58 156.89 C 247.97 133.37 246.94 107.98 238.97 84.97 C 238.61 83.97 238.24 82.99 237.85 82.01 C 237.28 80.62 236.71 79.23 236.18 77.82 C 234.26 73.51 232.18 69.28 229.90 65.15 C 222.99 53.50 214.41 42.77 204.08 33.99 C 185.49 17.59 161.60 7.43 136.94 5.05 C 116.99 3.08 96.54 6.12 78.05 13.91 Z" />
<path fill="#ffffff" opacity="1.00" d=" M 50.24 44.39 C 68.05 27.74 91.56 17.21 115.90 15.39 C 138.38 13.39 161.43 18.68 180.85 30.18 C 192.71 37.18 203.19 46.42 211.77 57.18 C 218.37 65.67 223.78 75.08 227.73 85.09 C 238.32 111.88 237.73 142.81 226.17 169.19 C 215.89 192.81 197.06 212.53 174.00 223.97 C 153.15 234.36 128.95 238.00 106.01 233.80 C 72.30 228.15 42.10 205.58 26.76 175.08 C 16.28 154.57 12.41 130.69 16.16 107.95 C 19.86 83.70 32.21 60.97 50.24 44.39 M 99.21 22.55 C 99.41 23.73 99.61 24.92 99.82 26.10 C 104.02 41.33 107.56 56.75 111.56 72.04 C 119.77 70.49 128.18 70.12 136.41 71.79 C 140.15 55.11 143.73 38.40 147.26 21.69 C 143.24 21.09 139.22 20.51 135.21 19.83 C 123.16 18.85 110.97 19.75 99.21 22.55 M 51.31 49.11 C 62.83 61.21 74.54 73.14 86.02 85.29 C 86.34 85.42 86.99 85.69 87.31 85.82 C 93.21 79.99 100.62 75.86 108.42 73.18 C 104.98 63.55 102.14 53.73 98.90 44.04 C 96.88 37.55 94.40 31.18 92.93 24.54 C 77.31 29.19 63.26 38.15 51.31 49.11 M 153.88 23.56 C 149.37 39.48 144.55 55.31 140.21 71.26 C 140.00 71.55 139.59 72.13 139.39 72.42 C 143.28 73.84 147.16 75.31 150.88 77.17 C 154.79 79.28 158.20 82.14 161.81 84.70 C 173.08 72.01 184.48 59.41 196.02 46.97 C 190.81 42.06 184.97 37.85 178.84 34.19 C 174.12 31.31 169.09 29.00 164.00 26.88 C 160.66 25.67 157.32 24.44 153.88 23.56 M 200.62 51.58 C 188.57 63.57 176.22 75.24 164.04 87.10 C 167.03 90.13 169.43 93.66 171.74 97.22 C 173.74 100.83 175.64 104.53 176.74 108.53 C 193.07 103.44 209.25 97.87 225.63 92.93 C 224.75 90.34 223.87 87.76 222.87 85.22 C 217.59 72.79 210.36 61.00 200.62 51.58 M 27.13 85.04 C 25.71 88.71 24.40 92.43 23.28 96.21 C 36.45 100.00 49.63 103.80 62.83 107.48 C 66.17 108.38 69.43 109.99 72.98 109.74 C 74.61 101.69 79.45 94.78 84.42 88.43 C 72.02 76.89 59.24 65.77 46.92 54.15 C 38.21 62.86 32.00 73.80 27.13 85.04 M 88.49 90.45 C 78.13 101.01 73.32 116.38 74.80 131.00 C 75.08 134.22 76.98 137.52 75.99 140.68 C 77.96 140.16 78.40 138.27 78.72 136.51 C 78.72 137.92 78.67 139.33 78.56 140.74 C 77.84 141.79 77.51 143.34 78.28 144.47 C 84.54 159.40 98.20 171.16 114.14 174.39 C 125.19 176.89 137.10 175.51 147.21 170.36 C 159.63 164.47 168.96 153.05 173.21 140.08 C 176.28 129.49 175.94 118.08 172.26 107.69 C 168.83 99.45 163.88 91.68 156.73 86.18 C 146.89 77.98 133.73 73.99 120.99 75.03 C 108.75 75.91 96.92 81.52 88.49 90.45 M 178.10 111.65 C 179.70 120.02 179.84 128.54 178.44 136.95 C 195.16 140.04 211.72 144.00 228.36 147.51 C 231.63 131.62 231.50 114.99 227.42 99.27 C 210.99 103.44 194.57 107.66 178.10 111.65 M 21.71 102.67 C 18.32 118.52 18.41 135.17 22.45 150.90 C 39.00 146.87 55.50 142.68 72.00 138.48 C 70.29 130.32 69.91 121.86 71.70 113.68 C 60.14 111.02 48.53 108.61 36.93 106.13 C 31.87 104.93 26.74 104.01 21.71 102.67 M 177.37 140.12 C 175.03 148.21 170.80 155.62 165.29 161.96 C 177.29 172.55 189.01 183.46 200.91 194.18 C 201.73 194.76 202.42 195.88 203.57 195.75 C 210.86 187.92 216.62 178.76 221.17 169.10 C 223.33 164.15 225.27 159.11 226.68 153.90 C 210.17 149.56 193.90 144.35 177.37 140.12 M 54.00 147.90 C 44.33 150.94 34.72 154.21 25.03 157.18 C 23.70 157.50 25.05 159.20 25.12 159.98 C 29.24 171.28 35.01 182.04 42.60 191.40 C 44.72 193.85 46.91 196.24 48.91 198.80 C 61.24 186.92 73.68 175.14 85.86 163.10 C 79.87 157.17 75.63 149.61 73.09 141.62 C 66.78 143.88 60.36 145.81 54.00 147.90 M 141.64 177.03 C 146.46 193.33 152.23 209.36 156.99 225.68 C 162.66 224.33 167.90 221.71 173.15 219.27 C 182.52 214.45 191.05 208.19 198.71 200.99 C 186.64 188.90 174.74 176.61 162.98 164.21 C 156.96 170.05 149.58 174.39 141.64 177.03 M 87.04 166.98 C 75.97 178.70 65.62 191.11 54.39 202.68 C 54.40 203.02 54.43 203.69 54.45 204.03 C 66.46 214.48 80.62 222.61 96.03 226.78 C 100.34 210.71 105.41 194.84 109.79 178.79 C 110.02 178.55 110.49 178.07 110.72 177.83 C 103.95 175.83 97.44 172.80 91.87 168.42 C 90.44 167.58 88.58 164.90 87.04 166.98 M 113.42 178.45 C 109.68 195.11 106.19 211.81 102.49 228.47 C 118.35 231.90 134.93 231.54 150.70 227.77 C 149.73 223.84 148.84 219.90 147.76 216.01 C 144.74 203.37 141.35 190.81 138.33 178.16 C 130.15 179.87 121.63 180.16 113.42 178.45 Z" />
</g>
<g id="#020202ff">
<path fill="#020202" opacity="1.00" d=" M 78.05 13.91 C 96.54 6.12 116.99 3.08 136.94 5.05 C 161.60 7.43 185.49 17.59 204.08 33.99 C 214.41 42.77 222.99 53.50 229.90 65.15 C 232.18 69.28 234.26 73.51 236.18 77.82 C 236.71 79.23 237.28 80.62 237.85 82.01 C 238.24 82.99 238.61 83.97 238.97 84.97 C 246.94 107.98 247.97 133.37 241.58 156.89 C 233.81 186.08 214.47 211.89 188.81 227.79 C 163.64 243.73 132.42 249.29 103.19 243.97 C 93.43 242.24 83.86 239.29 74.87 235.11 C 46.82 222.42 24.27 198.53 12.79 170.02 C 2.29 143.38 1.44 113.04 10.82 85.96 C 11.18 84.96 11.52 83.96 11.85 82.95 C 14.33 76.94 16.79 70.89 20.14 65.30 C 23.31 59.89 26.82 54.68 30.72 49.77 C 36.47 42.87 42.86 36.50 49.75 30.74 C 55.83 26.03 62.25 21.75 69.07 18.19 C 72.01 16.64 75.03 15.28 78.05 13.91 M 50.24 44.39 C 32.21 60.97 19.86 83.70 16.16 107.95 C 12.41 130.69 16.28 154.57 26.76 175.08 C 42.10 205.58 72.30 228.15 106.01 233.80 C 128.95 238.00 153.15 234.36 174.00 223.97 C 197.06 212.53 215.89 192.81 226.17 169.19 C 237.73 142.81 238.32 111.88 227.73 85.09 C 223.78 75.08 218.37 65.67 211.77 57.18 C 203.19 46.42 192.71 37.18 180.85 30.18 C 161.43 18.68 138.38 13.39 115.90 15.39 C 91.56 17.21 68.05 27.74 50.24 44.39 Z" />
<path fill="#020202" opacity="1.00" d=" M 99.21 22.55 C 110.97 19.75 123.16 18.85 135.21 19.83 C 139.22 20.51 143.24 21.09 147.26 21.69 C 143.73 38.40 140.15 55.11 136.41 71.79 C 128.18 70.12 119.77 70.49 111.56 72.04 C 107.56 56.75 104.02 41.33 99.82 26.10 C 99.61 24.92 99.41 23.73 99.21 22.55 M 104.59 37.96 C 104.99 39.02 105.38 40.09 105.76 41.17 C 107.63 43.07 109.50 44.96 111.38 46.85 C 111.93 48.60 112.43 50.38 113.14 52.08 C 114.58 52.55 116.12 52.24 117.61 52.21 C 117.19 51.17 116.78 50.13 116.36 49.09 C 119.74 49.49 120.10 46.35 120.98 43.97 C 122.41 43.74 123.84 43.56 125.28 43.42 C 126.20 45.53 127.25 47.58 128.62 49.43 C 128.30 48.81 127.66 47.58 127.34 46.97 C 127.37 46.37 127.43 45.19 127.46 44.60 C 126.65 43.51 125.86 42.41 125.06 41.32 C 126.10 40.36 127.14 39.40 128.16 38.43 C 126.53 38.31 124.89 38.22 123.25 38.16 C 123.38 36.62 123.50 35.09 123.62 33.55 C 125.13 34.70 126.63 35.86 128.17 36.96 C 129.08 38.28 130.02 39.59 131.06 40.81 C 131.19 39.80 131.44 37.79 131.57 36.78 C 133.05 37.96 134.56 39.12 135.88 40.49 C 136.17 40.86 136.73 41.60 137.01 41.97 C 133.52 44.30 130.93 47.64 129.16 51.41 C 129.87 51.63 131.29 52.06 132.00 52.28 C 132.56 52.03 133.68 51.51 134.25 51.26 C 134.32 50.12 134.39 48.98 134.46 47.83 C 136.63 44.81 139.01 41.91 141.71 39.33 C 141.37 36.24 141.05 33.13 140.32 30.11 C 139.65 27.86 137.30 26.38 135.01 26.36 C 130.44 26.26 125.84 28.22 123.02 31.87 C 119.76 27.82 113.96 25.97 108.98 27.24 C 104.65 28.96 105.50 34.28 104.59 37.96 Z" />
<path fill="#020202" opacity="1.00" d=" M 51.31 49.11 C 63.26 38.15 77.31 29.19 92.93 24.54 C 94.40 31.18 96.88 37.55 98.90 44.04 C 102.14 53.73 104.98 63.55 108.42 73.18 C 100.62 75.86 93.21 79.99 87.31 85.82 C 86.99 85.69 86.34 85.42 86.02 85.29 C 74.54 73.14 62.83 61.21 51.31 49.11 M 81.58 35.47 C 84.50 36.63 87.84 37.24 89.81 39.94 C 87.92 44.79 82.68 46.55 78.01 47.48 C 76.76 47.60 76.58 49.14 75.90 49.95 C 72.75 52.22 69.06 56.06 64.85 54.01 C 63.43 51.15 64.78 47.99 65.32 45.07 C 62.37 48.71 60.23 53.43 61.54 58.17 C 63.49 61.51 67.78 61.22 71.04 60.44 C 73.06 60.30 73.45 58.16 73.82 56.59 C 74.33 58.49 74.76 60.44 75.64 62.22 C 77.35 63.68 79.85 63.66 81.94 64.27 C 82.14 64.78 82.53 65.81 82.73 66.32 C 84.46 66.55 86.55 66.42 86.93 68.60 C 88.67 67.38 90.58 66.32 91.93 64.63 C 90.89 64.57 88.83 64.45 87.79 64.39 C 89.03 64.01 90.26 63.65 91.50 63.30 C 89.89 59.90 91.17 56.44 91.45 52.97 C 90.30 51.27 88.92 49.75 87.75 48.07 C 88.33 48.46 89.49 49.25 90.07 49.65 C 92.99 47.32 96.27 44.12 95.36 39.98 C 93.07 34.76 86.33 35.10 81.58 35.47 Z" />
<path fill="#020202" opacity="1.00" d=" M 153.88 23.56 C 157.32 24.44 160.66 25.67 164.00 26.88 C 169.09 29.00 174.12 31.31 178.84 34.19 C 184.97 37.85 190.81 42.06 196.02 46.97 C 184.48 59.41 173.08 72.01 161.81 84.70 C 158.20 82.14 154.79 79.28 150.88 77.17 C 147.16 75.31 143.28 73.84 139.39 72.42 C 139.59 72.13 140.00 71.55 140.21 71.26 C 144.55 55.31 149.37 39.48 153.88 23.56 M 167.66 36.57 C 167.56 38.11 167.45 39.64 167.35 41.18 C 164.91 43.08 161.71 44.57 160.70 47.72 C 159.70 50.40 160.81 53.33 160.06 56.06 C 158.09 53.92 156.20 51.68 153.82 49.97 C 155.29 52.59 157.89 54.46 158.78 57.42 C 157.90 56.77 156.15 55.48 155.27 54.83 C 155.93 56.54 156.57 58.28 157.07 60.05 C 155.14 57.25 152.16 56.00 148.78 56.36 C 150.56 57.05 152.41 57.53 154.26 58.04 C 154.47 58.94 154.68 59.84 154.89 60.75 C 152.95 63.91 151.75 67.44 150.82 71.02 C 150.79 70.25 150.73 68.70 150.70 67.92 C 149.35 68.14 146.47 68.64 147.62 70.56 C 150.16 73.61 153.89 75.64 157.92 75.63 C 157.58 73.76 156.66 72.16 155.37 70.80 C 156.58 68.38 157.73 65.82 159.87 64.06 C 162.97 64.35 162.58 67.98 163.56 70.15 C 163.52 68.36 163.45 66.57 163.41 64.78 C 162.50 64.28 160.68 63.27 159.76 62.77 C 161.60 62.57 163.38 62.84 165.12 63.58 C 164.41 62.79 163.00 61.22 162.29 60.43 C 165.45 60.88 167.66 63.34 170.32 64.84 C 168.37 62.55 166.04 60.63 163.72 58.73 C 166.89 58.62 170.57 59.50 173.28 57.33 C 176.35 54.81 177.75 50.85 177.75 46.95 C 180.27 45.41 180.85 42.68 180.89 39.91 C 180.07 41.77 180.53 44.73 178.22 45.46 C 174.37 46.63 171.52 49.61 167.96 51.35 C 166.02 53.10 165.62 49.98 165.24 48.75 C 164.97 49.91 164.69 51.08 164.41 52.24 C 163.88 52.38 162.81 52.65 162.28 52.79 C 162.54 52.43 163.05 51.71 163.31 51.35 C 163.27 50.61 163.21 49.15 163.17 48.41 C 163.86 48.35 165.23 48.22 165.92 48.16 C 167.10 47.41 168.30 46.68 169.51 45.98 C 168.88 45.42 168.24 44.86 167.61 44.32 C 168.25 43.77 169.55 42.68 170.19 42.14 C 170.02 42.90 169.67 44.44 169.49 45.21 C 171.80 45.09 172.27 42.98 173.03 41.38 C 171.25 41.30 169.47 41.26 167.69 41.23 C 167.92 39.67 168.16 38.11 168.39 36.55 C 170.32 35.56 172.25 34.57 174.14 33.50 C 171.90 34.35 169.74 35.40 167.66 36.57 Z" />
<path fill="#020202" opacity="1.00" d=" M 119.83 36.13 C 120.64 35.23 121.45 34.34 122.28 33.46 C 122.47 35.06 122.66 36.65 122.84 38.25 C 121.88 38.25 119.95 38.26 118.99 38.26 C 118.95 39.74 120.29 40.58 121.10 41.63 C 120.44 42.85 119.77 44.07 119.11 45.30 C 119.26 46.16 119.35 47.02 119.38 47.89 C 118.55 48.12 116.90 48.57 116.08 48.79 C 114.31 46.29 112.02 44.24 109.52 42.49 C 110.27 41.53 111.02 40.57 111.77 39.60 C 112.78 38.78 113.79 37.94 114.79 37.11 C 115.13 38.43 115.48 39.76 115.84 41.08 C 116.59 39.71 117.31 38.33 118.01 36.94 C 118.47 36.74 119.38 36.33 119.83 36.13 Z" />
<path fill="#020202" opacity="1.00" d=" M 122.97 38.70 C 124.10 40.05 124.93 41.61 125.80 43.13 C 124.56 43.22 122.07 43.38 120.82 43.47 C 121.38 41.81 121.92 40.12 122.97 38.70 Z" />
<path fill="#020202" opacity="1.00" d=" M 86.30 51.54 C 88.15 50.37 89.02 53.60 87.39 54.36 C 85.52 55.60 84.74 52.32 86.30 51.54 Z" />
<path fill="#020202" opacity="1.00" d=" M 165.69 56.75 C 165.96 53.21 169.04 51.32 171.71 49.54 C 171.55 51.55 171.36 53.55 171.22 55.56 C 169.37 55.94 167.53 56.35 165.69 56.75 Z" />
<path fill="#020202" opacity="1.00" d=" M 200.62 51.58 C 210.36 61.00 217.59 72.79 222.87 85.22 C 223.87 87.76 224.75 90.34 225.63 92.93 C 209.25 97.87 193.07 103.44 176.74 108.53 C 175.64 104.53 173.74 100.83 171.74 97.22 C 169.43 93.66 167.03 90.13 164.04 87.10 C 176.22 75.24 188.57 63.57 200.62 51.58 M 190.46 67.19 C 194.58 68.10 199.03 68.78 202.17 71.89 C 198.33 69.45 193.55 67.66 189.03 69.17 C 186.34 70.78 185.10 73.93 184.22 76.80 C 189.41 73.30 196.28 71.05 202.10 74.50 C 196.06 72.63 188.78 73.29 184.34 78.18 C 183.93 83.21 185.95 88.26 188.84 92.31 C 191.31 86.08 196.74 81.13 203.54 80.31 C 203.83 80.54 204.42 81.01 204.71 81.24 C 197.71 81.21 191.94 86.67 189.54 92.93 C 190.78 95.41 192.89 98.17 190.38 100.64 C 194.03 99.44 195.98 96.02 197.71 92.84 C 197.96 93.86 198.45 95.90 198.70 96.93 C 200.56 95.76 202.58 94.88 204.65 94.14 C 204.59 93.52 204.47 92.28 204.41 91.66 C 205.13 91.21 206.56 90.30 207.27 89.85 C 206.81 93.59 210.93 92.68 213.27 92.52 C 213.28 88.98 213.39 85.44 213.07 81.91 C 213.45 79.39 214.23 76.51 212.29 74.39 C 210.50 72.09 209.59 68.55 206.38 67.88 C 202.25 63.93 194.98 63.72 190.46 67.19 Z" />
<path fill="#020202" opacity="1.00" d=" M 27.13 85.04 C 32.00 73.80 38.21 62.86 46.92 54.15 C 59.24 65.77 72.02 76.89 84.42 88.43 C 79.45 94.78 74.61 101.69 72.98 109.74 C 69.43 109.99 66.17 108.38 62.83 107.48 C 49.63 103.80 36.45 100.00 23.28 96.21 C 24.40 92.43 25.71 88.71 27.13 85.04 M 46.35 62.05 C 46.71 63.13 47.08 64.21 47.46 65.29 C 46.13 66.77 44.80 68.25 43.50 69.77 C 43.47 70.42 43.40 71.72 43.37 72.37 C 42.14 74.19 41.64 76.32 41.34 78.47 C 40.10 79.88 38.92 81.35 37.91 82.94 C 36.11 85.32 34.86 88.03 34.50 91.01 C 33.54 91.52 32.58 92.03 31.63 92.55 C 33.12 92.68 34.62 92.81 36.12 92.92 C 36.50 93.35 37.24 94.20 37.61 94.63 C 39.73 94.74 42.19 95.46 44.02 94.03 C 45.57 92.58 45.31 90.25 45.71 88.35 C 45.15 88.14 44.01 87.70 43.44 87.48 C 41.04 84.79 45.26 82.23 43.48 79.28 C 44.55 78.72 45.62 78.16 46.69 77.60 C 46.85 76.58 47.01 75.57 47.18 74.55 C 49.01 74.90 51.11 76.14 52.84 74.89 C 54.90 73.78 55.99 71.17 54.86 69.00 C 54.17 66.58 51.52 65.94 49.46 65.18 C 48.43 64.13 47.40 63.08 46.35 62.05 M 47.03 77.00 C 47.59 77.92 47.65 78.99 46.78 79.73 C 45.50 81.51 44.81 83.70 43.11 85.17 C 44.57 86.28 46.10 87.29 47.79 88.03 C 47.09 88.75 46.40 89.47 45.71 90.19 C 48.41 91.74 51.16 93.21 53.85 94.79 C 54.58 95.92 55.32 97.05 56.10 98.14 C 55.28 95.07 53.20 92.61 51.18 90.26 C 54.62 89.20 58.18 89.18 61.52 90.59 C 61.56 90.33 61.65 89.80 61.69 89.54 C 61.13 89.50 60.01 89.42 59.46 89.38 L 59.47 87.37 C 60.11 87.34 61.39 87.30 62.02 87.28 C 59.66 85.03 57.78 82.37 56.17 79.55 C 59.51 79.63 62.89 79.61 66.15 78.79 C 61.40 79.34 57.40 76.61 53.00 75.50 C 52.79 76.17 52.36 77.53 52.15 78.21 C 51.72 77.41 51.29 76.61 50.87 75.82 C 49.58 76.20 48.30 76.59 47.03 77.00 Z" />
<path fill="#020202" opacity="1.00" d=" M 76.42 57.41 C 77.33 56.35 79.47 56.83 79.69 58.26 C 79.54 60.48 75.27 59.45 76.42 57.41 Z" />
<path fill="#020202" opacity="1.00" d=" M 48.98 69.95 C 50.60 69.49 51.16 70.07 50.66 71.69 C 49.03 72.14 48.47 71.56 48.98 69.95 Z" />
<path fill="#020202" opacity="1.00" d=" M 88.49 90.45 C 96.92 81.52 108.75 75.91 120.99 75.03 C 133.73 73.99 146.89 77.98 156.73 86.18 C 163.88 91.68 168.83 99.45 172.26 107.69 C 175.94 118.08 176.28 129.49 173.21 140.08 C 168.96 153.05 159.63 164.47 147.21 170.36 C 137.10 175.51 125.19 176.89 114.14 174.39 C 98.20 171.16 84.54 159.40 78.28 144.47 C 77.51 143.34 77.84 141.79 78.56 140.74 C 80.19 141.71 81.88 143.08 83.93 142.77 C 87.88 142.69 90.69 139.54 93.47 137.13 C 93.25 135.19 92.33 133.10 93.33 131.23 C 96.41 125.52 101.03 120.56 107.00 117.84 C 104.49 120.01 101.25 121.83 100.21 125.19 C 99.27 128.27 99.12 131.52 98.71 134.70 C 97.46 134.55 96.21 134.40 94.96 134.25 C 96.32 133.46 97.68 132.64 98.97 131.74 C 97.37 131.73 95.46 130.90 94.12 132.20 C 92.27 134.35 94.52 136.56 95.75 138.32 C 98.11 137.37 101.40 137.34 102.56 134.65 C 103.99 131.83 105.88 129.30 108.47 127.45 C 109.61 128.43 110.52 129.83 111.99 130.36 C 114.01 129.96 115.85 127.95 117.99 128.84 C 122.22 130.22 126.68 130.23 131.06 130.53 C 128.95 131.29 126.80 131.92 124.64 132.52 C 124.65 133.29 124.68 134.82 124.70 135.59 C 126.86 135.15 129.03 134.71 131.21 134.37 C 131.36 135.42 131.65 137.52 131.80 138.56 C 132.43 137.44 133.04 136.30 133.65 135.16 C 137.55 140.16 143.48 143.81 149.95 143.82 C 157.76 144.37 165.04 139.23 168.61 132.54 C 173.24 122.97 168.90 109.13 158.30 105.76 C 151.70 103.36 144.76 105.33 138.03 105.74 C 138.20 107.38 138.39 109.02 138.58 110.66 C 138.82 111.05 139.30 111.83 139.53 112.22 C 138.66 114.47 137.78 116.72 137.14 119.05 C 137.37 116.97 137.58 114.88 137.61 112.78 C 137.89 110.43 137.91 108.05 137.95 105.69 C 134.58 102.89 130.43 100.22 125.90 101.89 C 127.65 102.97 130.58 103.01 131.13 105.37 C 132.26 110.61 130.17 116.01 127.35 120.37 C 125.34 123.13 122.74 126.24 119.03 126.35 C 116.92 124.95 116.84 122.14 116.00 119.97 C 118.92 118.30 122.11 117.17 125.52 117.50 C 126.87 115.13 128.22 112.74 129.48 110.32 C 123.97 110.28 118.51 111.45 113.92 114.60 C 117.92 110.68 123.46 109.78 128.84 109.97 C 126.57 105.97 122.23 104.43 118.29 102.64 C 119.44 102.55 121.74 102.37 122.89 102.28 C 122.16 101.87 120.70 101.04 119.97 100.62 C 117.15 100.09 116.13 103.15 116.03 105.36 C 113.38 105.72 110.67 105.95 108.20 107.06 C 100.98 110.10 97.19 118.20 89.35 120.16 C 88.79 119.22 88.22 118.28 87.66 117.34 C 88.75 117.32 90.94 117.27 92.03 117.24 C 90.54 116.36 89.08 113.80 87.10 115.21 C 84.56 116.02 85.05 119.80 86.71 121.32 C 89.13 123.85 92.83 122.19 95.62 121.30 C 92.76 123.57 90.52 126.58 89.54 130.13 C 88.23 134.27 86.81 139.98 81.43 140.02 C 81.23 139.35 80.82 138.01 80.61 137.35 C 81.75 137.53 82.89 137.72 84.03 137.91 C 83.77 137.32 83.25 136.15 82.99 135.57 C 81.56 135.86 80.14 136.18 78.72 136.51 C 78.40 138.27 77.96 140.16 75.99 140.68 C 76.98 137.52 75.08 134.22 74.80 131.00 C 73.32 116.38 78.13 101.01 88.49 90.45 M 131.09 98.94 C 134.16 100.62 137.08 102.63 139.28 105.40 C 141.81 105.18 144.34 104.59 145.61 102.15 C 144.30 102.62 142.99 103.11 141.70 103.61 C 140.05 102.21 138.79 100.45 137.74 98.58 C 142.22 96.65 146.64 98.87 150.06 101.76 C 149.24 96.71 143.49 94.37 138.88 95.17 C 135.85 95.30 133.40 97.18 131.09 98.94 M 119.83 131.46 C 120.49 136.32 123.94 140.90 128.81 142.12 C 131.94 143.05 135.29 142.25 138.01 140.55 C 134.16 140.80 129.69 141.42 126.71 138.36 C 124.43 136.93 124.27 134.26 124.26 131.84 C 122.78 131.71 121.30 131.58 119.83 131.46 Z" />
<path fill="#020202" opacity="1.00" d=" M 39.36 89.01 C 40.43 87.47 42.77 89.36 41.56 90.76 C 40.53 92.32 38.18 90.38 39.36 89.01 Z" />
<path fill="#020202" opacity="1.00" d=" M 178.10 111.65 C 194.57 107.66 210.99 103.44 227.42 99.27 C 231.50 114.99 231.63 131.62 228.36 147.51 C 211.72 144.00 195.16 140.04 178.44 136.95 C 179.84 128.54 179.70 120.02 178.10 111.65 M 210.33 111.48 C 207.47 110.90 204.42 110.41 201.91 112.25 C 201.37 112.41 200.29 112.74 199.75 112.91 C 198.59 116.62 197.54 120.37 196.24 124.04 C 192.05 127.80 187.06 130.40 181.68 132.00 C 184.06 132.63 186.49 133.06 188.91 133.48 C 189.63 132.48 190.37 131.50 191.10 130.51 C 193.58 133.23 196.41 129.81 197.85 127.78 C 199.83 124.49 203.69 123.36 206.92 121.71 C 213.38 123.87 218.30 117.27 224.75 118.19 C 225.71 114.66 225.55 111.04 224.24 107.62 C 220.86 108.44 217.37 108.50 213.98 107.67 C 212.79 108.96 211.57 110.23 210.33 111.48 Z" />
<path fill="#020202" opacity="1.00" d=" M 21.71 102.67 C 26.74 104.01 31.87 104.93 36.93 106.13 C 48.53 108.61 60.14 111.02 71.70 113.68 C 69.91 121.86 70.29 130.32 72.00 138.48 C 55.50 142.68 39.00 146.87 22.45 150.90 C 18.41 135.17 18.32 118.52 21.71 102.67 M 37.25 115.46 C 35.08 114.60 32.91 113.76 30.71 113.02 C 30.74 113.84 30.81 115.48 30.84 116.30 C 28.24 117.77 25.79 119.50 23.53 121.45 C 23.59 122.45 23.65 123.46 23.70 124.47 C 28.21 126.05 33.30 125.99 37.31 128.86 C 37.40 129.46 37.58 130.65 37.67 131.25 C 35.57 132.83 33.29 134.20 30.85 135.21 C 28.89 134.01 27.03 132.64 24.94 131.65 C 25.87 133.44 27.40 135.00 27.79 137.03 C 27.73 139.07 27.05 141.02 26.61 143.00 C 28.59 141.32 29.93 139.08 30.97 136.73 C 33.24 137.14 35.51 137.54 37.78 137.91 C 37.74 138.69 37.66 140.27 37.62 141.06 C 38.65 140.26 39.68 139.46 40.72 138.66 C 42.48 138.74 44.25 138.79 46.02 138.82 C 46.61 139.58 47.23 140.34 47.84 141.09 C 48.70 136.20 57.07 137.26 56.50 131.70 C 53.68 129.62 50.13 129.13 46.79 128.49 C 46.66 127.66 46.39 126.01 46.25 125.18 C 44.47 126.86 42.65 128.51 40.66 129.95 C 38.96 128.53 37.00 127.49 34.78 127.16 C 35.58 124.62 38.69 124.57 40.73 123.56 C 42.13 123.89 43.54 124.21 44.95 124.50 C 44.01 123.96 43.07 123.43 42.12 122.91 C 44.16 121.03 46.49 119.51 48.93 118.22 C 50.73 120.00 52.73 121.56 54.92 122.82 C 53.86 120.87 52.58 119.04 51.74 116.97 C 51.97 115.19 52.40 113.45 52.69 111.68 C 50.79 112.83 49.93 114.88 49.10 116.84 C 46.13 116.57 43.19 116.08 40.27 115.48 C 40.36 113.99 40.47 112.51 40.58 111.03 C 39.45 112.50 38.35 113.97 37.25 115.46 Z" />
<path fill="#020202" opacity="1.00" d=" M 150.10 112.71 C 152.81 112.07 155.54 111.42 158.34 111.32 C 156.22 112.34 153.96 112.99 151.72 113.70 C 152.66 115.74 153.57 117.79 154.46 119.85 C 152.35 120.74 150.25 121.65 148.18 122.64 C 149.22 124.63 150.47 126.59 150.88 128.84 C 149.16 129.98 147.30 130.87 145.49 131.84 C 146.80 133.74 148.09 135.67 149.19 137.71 C 146.68 136.49 145.40 133.93 143.82 131.79 C 145.83 130.38 147.83 128.96 149.73 127.40 C 148.38 125.70 147.27 123.83 146.90 121.67 C 148.80 120.89 150.68 120.08 152.56 119.28 C 151.74 117.09 150.92 114.90 150.10 112.71 Z" />
<path fill="#020202" opacity="1.00" d=" M 204.32 113.11 C 205.01 111.88 207.74 111.75 208.23 113.21 C 207.63 114.67 204.75 114.65 204.32 113.11 Z" />
<path fill="#020202" opacity="1.00" d=" M 213.82 119.05 C 214.06 114.84 218.89 114.11 222.17 113.35 C 222.33 114.39 222.49 115.43 222.65 116.47 C 219.48 116.43 216.50 117.39 213.82 119.05 Z" />
<path fill="#020202" opacity="1.00" d=" M 155.47 116.41 C 157.76 115.82 160.08 115.37 162.45 115.26 C 160.72 116.00 158.90 116.48 157.07 116.90 C 157.74 118.81 158.43 120.72 159.10 122.65 C 157.55 123.45 155.17 123.26 154.24 124.90 C 154.32 126.87 155.75 128.45 156.58 130.17 C 154.85 131.02 153.12 131.86 151.40 132.72 C 152.61 134.41 153.76 136.14 154.74 137.97 C 152.81 136.48 151.36 134.50 150.11 132.43 C 151.79 131.39 153.47 130.34 155.15 129.29 C 154.15 127.63 153.15 125.97 152.16 124.31 C 153.97 123.50 155.79 122.68 157.61 121.89 C 156.90 120.06 156.19 118.24 155.47 116.41 Z" />
<path fill="#020202" opacity="1.00" d=" M 112.01 124.39 C 113.31 122.98 114.59 121.55 115.89 120.14 C 115.78 121.90 115.65 123.66 115.55 125.43 C 114.95 125.33 113.74 125.13 113.13 125.03 C 113.25 126.15 113.36 127.29 113.44 128.42 C 112.81 127.14 112.40 125.76 112.01 124.39 Z" />
<path fill="#020202" opacity="1.00" d=" M 177.37 140.12 C 193.90 144.35 210.17 149.56 226.68 153.90 C 225.27 159.11 223.33 164.15 221.17 169.10 C 216.62 178.76 210.86 187.92 203.57 195.75 C 202.42 195.88 201.73 194.76 200.91 194.18 C 189.01 183.46 177.29 172.55 165.29 161.96 C 170.80 155.62 175.03 148.21 177.37 140.12 M 198.38 150.50 C 196.81 151.94 196.82 154.27 196.31 156.19 C 192.67 151.11 185.54 148.87 179.90 151.93 C 173.03 155.10 170.56 166.31 177.30 170.83 C 181.79 174.13 188.66 171.23 190.08 166.02 C 191.36 162.74 188.46 158.77 184.93 159.14 C 182.59 159.14 181.18 161.15 179.76 162.69 C 182.15 162.18 185.46 160.19 187.08 163.08 C 189.65 167.45 183.17 172.27 179.09 169.98 C 174.17 168.05 174.13 161.04 177.80 157.87 C 181.22 154.02 187.75 153.95 191.24 157.74 C 194.87 160.96 194.28 166.44 192.21 170.37 C 193.75 169.52 195.38 168.78 196.77 167.69 C 198.50 164.75 197.64 161.19 197.43 157.97 C 199.77 160.54 203.30 161.08 206.57 161.43 C 209.66 159.54 210.61 155.26 208.86 152.16 C 206.94 148.50 201.33 147.57 198.38 150.50 M 198.37 167.43 C 197.40 169.18 196.30 172.13 198.58 173.41 C 199.36 170.06 201.17 166.08 205.04 165.59 C 209.41 164.52 213.75 168.65 213.48 173.00 C 213.42 175.36 211.40 176.88 210.04 178.57 C 207.86 178.47 205.28 179.10 203.57 177.35 C 201.95 176.27 200.67 173.87 202.39 172.28 C 203.92 169.96 206.62 171.92 208.47 172.64 C 207.28 171.21 206.23 169.15 204.04 169.40 C 201.81 169.14 200.76 171.58 199.37 172.85 C 200.16 174.78 200.63 177.11 202.48 178.35 C 205.65 180.66 210.79 180.53 213.37 177.38 C 216.16 173.99 215.75 168.47 212.58 165.47 C 208.69 161.50 200.98 162.43 198.37 167.43 Z" />
<path fill="#020202" opacity="1.00" d=" M 54.00 147.90 C 60.36 145.81 66.78 143.88 73.09 141.62 C 75.63 149.61 79.87 157.17 85.86 163.10 C 73.68 175.14 61.24 186.92 48.91 198.80 C 46.91 196.24 44.72 193.85 42.60 191.40 C 35.01 182.04 29.24 171.28 25.12 159.98 C 25.05 159.20 23.70 157.50 25.03 157.18 C 34.72 154.21 44.33 150.94 54.00 147.90 M 63.88 149.74 C 63.50 150.33 62.75 151.53 62.38 152.12 C 60.73 151.81 59.06 151.05 57.37 151.33 C 55.98 152.08 54.75 153.09 53.42 153.94 C 52.90 155.75 53.18 157.61 53.45 159.43 C 52.99 159.11 52.05 158.48 51.58 158.16 C 51.26 159.35 51.11 161.82 49.22 161.24 C 46.63 160.95 43.99 161.05 41.72 162.47 C 44.47 162.37 47.26 162.37 49.81 163.53 C 48.63 165.05 47.53 166.68 45.91 167.77 C 43.01 167.24 46.24 164.77 46.89 163.60 C 44.82 164.61 43.16 166.20 42.07 168.24 C 43.47 169.44 45.09 170.32 46.78 171.06 C 44.00 171.56 41.47 170.34 38.94 169.39 C 36.89 168.54 34.84 169.76 32.88 170.32 C 35.56 170.52 38.44 170.40 40.68 172.14 C 44.35 174.77 48.93 174.94 53.24 175.48 C 52.22 176.23 51.20 176.96 50.18 177.71 C 49.32 177.12 48.45 176.54 47.58 175.96 C 47.62 177.13 47.66 178.31 47.71 179.49 C 51.00 180.07 53.79 178.28 56.17 176.24 C 57.14 176.23 59.06 176.20 60.02 176.19 C 58.63 177.93 56.71 179.03 54.70 179.92 C 57.15 180.01 59.88 179.73 61.21 177.36 C 64.61 171.93 73.17 171.32 74.92 164.68 C 74.28 164.60 73.01 164.42 72.37 164.34 C 71.64 162.51 72.71 161.02 73.89 159.73 C 73.46 158.40 73.01 157.08 72.56 155.76 C 73.53 155.21 74.49 154.65 75.44 154.08 C 73.73 154.23 72.02 154.52 70.90 155.96 C 70.42 155.27 69.45 153.89 68.97 153.20 C 68.78 155.00 68.58 156.85 67.56 158.41 C 67.56 155.83 67.64 153.25 67.64 150.67 C 66.64 151.97 65.65 153.29 64.65 154.60 C 64.38 152.97 64.15 151.36 63.88 149.74 Z" />
<path fill="#020202" opacity="1.00" d=" M 197.13 156.23 C 197.89 154.07 198.50 151.49 200.90 150.58 C 203.61 149.80 205.83 151.73 207.77 153.31 C 207.82 156.07 207.56 159.00 204.98 160.62 C 205.50 158.55 205.72 156.41 204.54 154.52 C 203.37 154.53 202.21 154.54 201.05 154.56 C 202.12 155.00 203.19 155.43 204.28 155.87 C 203.82 157.20 203.92 159.19 202.09 159.42 C 199.92 159.48 198.66 157.41 197.13 156.23 Z" />
<path fill="#020202" opacity="1.00" d=" M 57.13 158.03 C 58.47 157.47 59.80 156.91 61.14 156.37 C 60.62 157.16 59.58 158.76 59.05 159.56 C 61.20 160.19 62.70 159.18 63.64 157.28 C 64.17 157.79 64.70 158.31 65.21 158.84 C 63.71 161.49 66.72 161.64 68.28 160.50 C 68.96 161.24 69.65 161.98 70.34 162.73 C 69.16 161.66 67.80 161.19 66.28 161.32 C 66.64 162.62 67.02 163.92 67.44 165.21 C 66.28 162.66 63.95 160.85 60.99 161.29 C 59.31 162.73 57.30 163.67 55.18 164.27 C 55.26 163.63 55.41 162.35 55.48 161.71 C 56.44 161.63 58.35 161.47 59.31 161.38 C 58.68 160.20 57.94 159.09 57.13 158.03 Z" />
<path fill="#020202" opacity="1.00" d=" M 71.90 165.02 C 72.49 165.57 72.49 165.57 71.90 165.02 Z" />
<path fill="#020202" opacity="1.00" d=" M 141.64 177.03 C 149.58 174.39 156.96 170.05 162.98 164.21 C 174.74 176.61 186.64 188.90 198.71 200.99 C 191.05 208.19 182.52 214.45 173.15 219.27 C 167.90 221.71 162.66 224.33 156.99 225.68 C 152.23 209.36 146.46 193.33 141.64 177.03 M 150.88 179.41 C 154.42 179.49 157.84 180.43 161.33 180.84 C 159.83 182.03 158.23 183.09 156.68 184.22 C 157.57 184.23 159.35 184.25 160.24 184.26 C 159.58 185.03 158.98 185.87 158.31 186.64 C 157.11 186.22 155.90 185.83 154.69 185.46 C 154.66 187.37 154.62 189.29 154.55 191.20 C 153.04 189.00 151.47 186.83 149.65 184.87 C 149.50 184.10 149.20 182.55 149.05 181.78 C 147.60 184.74 147.63 188.06 148.52 191.18 C 151.16 192.68 153.64 194.44 156.18 196.09 C 156.98 194.32 157.75 192.53 158.53 190.75 C 158.85 192.55 159.17 194.36 159.49 196.17 C 158.23 196.57 156.97 196.98 155.71 197.39 C 157.11 197.54 158.51 197.69 159.91 197.85 C 160.11 197.09 160.50 195.58 160.70 194.83 C 161.00 196.33 161.29 197.84 161.56 199.35 C 159.97 199.84 158.38 200.33 156.80 200.82 C 158.54 201.07 160.30 201.36 162.08 201.26 C 162.71 198.90 162.56 196.42 162.79 194.00 C 164.35 196.13 164.96 198.71 165.66 201.20 C 164.94 201.56 163.49 202.29 162.77 202.65 C 164.05 202.65 165.33 202.65 166.62 202.65 C 166.33 200.79 165.99 198.94 165.67 197.10 C 169.72 199.05 173.87 200.82 178.25 201.89 C 178.64 202.87 179.04 203.85 179.44 204.83 C 179.38 205.57 179.26 207.06 179.19 207.80 C 178.35 207.82 176.66 207.86 175.81 207.88 C 176.18 206.92 176.55 205.95 176.93 204.99 C 176.00 204.52 175.30 202.67 174.12 203.37 C 172.22 203.65 172.27 206.17 173.51 207.22 C 174.69 209.14 177.34 211.88 179.47 209.47 C 181.88 207.96 181.64 205.11 181.48 202.64 C 178.14 198.50 176.08 193.07 171.26 190.34 C 171.45 189.90 171.82 189.00 172.00 188.56 C 170.16 188.62 168.34 188.41 166.59 187.83 C 168.64 187.39 170.72 187.07 172.75 186.52 C 172.73 185.10 172.56 183.69 172.45 182.28 C 172.26 182.29 171.90 182.33 171.71 182.34 C 172.24 185.84 168.81 186.78 166.00 186.19 C 167.22 185.11 168.47 184.05 169.64 182.90 C 168.57 180.99 167.38 183.50 166.56 184.10 C 164.88 184.43 163.19 184.73 161.50 185.02 C 162.06 184.66 163.18 183.94 163.74 183.58 C 163.60 181.99 163.49 180.40 163.41 178.81 C 162.02 177.74 160.67 176.59 159.09 175.80 C 155.96 175.82 153.32 177.65 150.88 179.41 Z" />
<path fill="#020202" opacity="1.00" d=" M 87.04 166.98 C 88.58 164.90 90.44 167.58 91.87 168.42 C 97.44 172.80 103.95 175.83 110.72 177.83 C 110.49 178.07 110.02 178.55 109.79 178.79 C 105.41 194.84 100.34 210.71 96.03 226.78 C 80.62 222.61 66.46 214.48 54.45 204.03 C 54.43 203.69 54.40 203.02 54.39 202.68 C 65.62 191.11 75.97 178.70 87.04 166.98 M 93.80 180.96 C 92.02 184.03 88.32 185.17 86.67 188.32 C 87.79 188.34 90.02 188.36 91.14 188.38 C 91.21 187.52 91.35 185.80 91.42 184.93 C 92.47 185.27 93.52 185.63 94.59 185.95 C 95.29 184.52 96.18 183.21 97.13 181.95 C 97.21 179.93 97.28 177.92 97.43 175.91 C 96.40 177.72 95.28 179.48 93.80 180.96 M 91.10 189.14 C 91.51 189.68 92.33 190.76 92.74 191.29 C 91.77 190.40 90.81 189.48 89.86 188.56 C 87.21 188.60 84.57 188.93 82.03 189.71 C 79.95 191.99 78.19 194.59 78.15 197.81 C 75.13 195.32 71.58 193.59 67.96 192.14 C 71.24 194.89 72.75 199.41 76.78 201.26 C 73.33 203.96 71.55 208.19 72.24 212.55 C 73.70 210.27 74.47 207.47 76.54 205.64 C 78.98 203.32 82.86 205.37 84.43 207.77 C 85.48 211.45 82.59 214.34 81.01 217.33 C 85.89 215.88 88.26 210.72 87.81 205.92 C 87.09 205.76 85.66 205.46 84.94 205.30 C 87.08 205.44 89.24 205.64 91.33 206.16 C 90.55 206.38 89.00 206.83 88.22 207.05 C 91.45 210.10 96.12 209.03 100.13 209.33 C 97.18 207.37 94.01 205.77 90.75 204.40 C 91.81 203.19 92.87 201.98 93.94 200.79 C 94.24 198.65 94.49 196.50 94.66 194.35 C 94.29 193.97 93.57 193.20 93.20 192.81 C 93.83 191.03 95.64 188.84 93.83 187.19 C 92.52 186.69 91.60 187.34 91.10 189.14 Z" />
<path fill="#020202" opacity="1.00" d=" M 113.42 178.45 C 121.63 180.16 130.15 179.87 138.33 178.16 C 141.35 190.81 144.74 203.37 147.76 216.01 C 148.84 219.90 149.73 223.84 150.70 227.77 C 134.93 231.54 118.35 231.90 102.49 228.47 C 106.19 211.81 109.68 195.11 113.42 178.45 M 126.35 184.22 C 126.93 186.11 127.47 188.00 127.93 189.92 C 125.41 192.13 123.69 195.03 122.03 197.90 C 123.81 195.86 125.50 193.74 127.29 191.70 C 128.31 194.20 129.05 196.80 129.68 199.44 C 127.46 201.04 125.10 202.67 122.23 202.60 C 121.68 201.61 118.19 197.92 118.24 200.73 C 119.18 202.32 119.66 204.10 120.14 205.86 C 119.61 205.43 118.54 204.56 118.01 204.12 C 116.45 205.16 114.83 206.12 113.41 207.35 C 113.83 209.32 114.97 211.33 117.30 211.24 C 116.69 209.97 116.08 208.72 115.45 207.47 C 117.87 206.42 119.00 208.72 120.27 210.32 C 122.53 211.25 124.58 212.56 126.56 213.98 C 126.09 214.88 125.61 215.78 125.14 216.69 C 123.75 215.91 122.34 215.13 120.94 214.40 C 120.99 214.91 121.11 215.94 121.17 216.46 C 122.15 217.26 123.12 218.10 124.09 218.94 C 125.35 218.66 126.61 218.38 127.88 218.12 C 128.73 221.28 125.79 219.74 123.98 219.53 C 123.12 220.43 122.26 221.33 121.40 222.23 C 122.03 222.69 122.66 223.15 123.30 223.61 C 124.08 222.85 124.87 222.10 125.67 221.35 C 126.75 221.90 127.83 222.44 128.92 222.99 C 129.51 221.88 130.10 220.77 130.69 219.67 C 131.25 219.61 132.36 219.50 132.92 219.44 C 134.21 218.82 135.51 218.23 136.81 217.65 C 136.81 219.17 136.80 220.69 136.78 222.21 C 137.05 222.72 137.59 223.74 137.86 224.25 C 139.14 224.49 140.43 224.72 141.72 224.98 C 138.60 222.54 140.34 216.99 135.86 215.96 C 134.73 211.39 129.61 210.04 127.73 205.96 C 130.45 204.99 132.27 207.38 134.26 208.75 C 134.44 206.12 134.44 203.48 134.30 200.85 C 134.55 201.32 135.06 202.26 135.31 202.73 C 136.54 202.72 137.77 202.71 139.00 202.70 C 138.52 200.98 138.01 199.26 137.46 197.56 C 136.52 197.55 134.65 197.51 133.71 197.49 C 133.41 198.03 132.79 199.10 132.48 199.64 C 131.18 196.87 129.95 194.07 128.96 191.18 C 131.71 191.65 134.42 192.34 137.16 192.88 C 134.34 191.75 131.49 190.66 128.53 189.95 C 128.04 188.06 127.59 186.16 127.20 184.25 C 126.99 184.24 126.56 184.23 126.35 184.22 M 116.43 200.64 C 114.85 200.58 113.60 203.56 115.32 204.23 C 117.24 204.44 117.72 201.66 116.43 200.64 M 117.22 218.69 C 118.51 218.70 119.66 218.30 120.69 217.46 C 120.02 216.65 119.32 215.86 118.60 215.09 C 117.52 216.11 117.06 217.31 117.22 218.69 Z" />
<path fill="#020202" opacity="1.00" d=" M 154.29 193.19 C 157.24 191.49 154.48 196.55 154.29 193.19 Z" />
<path fill="#020202" opacity="1.00" d=" M 76.27 199.12 C 79.22 197.57 76.37 202.52 76.27 199.12 Z" />
</g>
<g id="#bca25cff">
<path fill="#bca25c" opacity="1.00" d=" M 104.59 37.96 C 105.50 34.28 104.65 28.96 108.98 27.24 C 113.96 25.97 119.76 27.82 123.02 31.87 C 125.84 28.22 130.44 26.26 135.01 26.36 C 137.30 26.38 139.65 27.86 140.32 30.11 C 141.05 33.13 141.37 36.24 141.71 39.33 C 139.01 41.91 136.63 44.81 134.46 47.83 C 134.39 48.98 134.32 50.12 134.25 51.26 C 133.68 51.51 132.56 52.03 132.00 52.28 C 131.29 52.06 129.87 51.63 129.16 51.41 C 130.93 47.64 133.52 44.30 137.01 41.97 C 136.73 41.60 136.17 40.86 135.88 40.49 C 134.56 39.12 133.05 37.96 131.57 36.78 C 131.44 37.79 131.19 39.80 131.06 40.81 C 130.02 39.59 129.08 38.28 128.17 36.96 C 126.63 35.86 125.13 34.70 123.62 33.55 C 123.50 35.09 123.38 36.62 123.25 38.16 C 124.89 38.22 126.53 38.31 128.16 38.43 C 127.14 39.40 126.10 40.36 125.06 41.32 C 125.86 42.41 126.65 43.51 127.46 44.60 C 127.43 45.19 127.37 46.37 127.34 46.97 C 127.66 47.58 128.30 48.81 128.62 49.43 C 127.25 47.58 126.20 45.53 125.28 43.42 C 123.84 43.56 122.41 43.74 120.98 43.97 C 120.10 46.35 119.74 49.49 116.36 49.09 C 116.78 50.13 117.19 51.17 117.61 52.21 C 116.12 52.24 114.58 52.55 113.14 52.08 C 112.43 50.38 111.93 48.60 111.38 46.85 C 109.50 44.96 107.63 43.07 105.76 41.17 C 105.38 40.09 104.99 39.02 104.59 37.96 M 119.83 36.13 C 119.38 36.33 118.47 36.74 118.01 36.94 C 117.31 38.33 116.59 39.71 115.84 41.08 C 115.48 39.76 115.13 38.43 114.79 37.11 C 113.79 37.94 112.78 38.78 111.77 39.60 C 111.02 40.57 110.27 41.53 109.52 42.49 C 112.02 44.24 114.31 46.29 116.08 48.79 C 116.90 48.57 118.55 48.12 119.38 47.89 C 119.35 47.02 119.26 46.16 119.11 45.30 C 119.77 44.07 120.44 42.85 121.10 41.63 C 120.29 40.58 118.95 39.74 118.99 38.26 C 119.95 38.26 121.88 38.25 122.84 38.25 C 122.66 36.65 122.47 35.06 122.28 33.46 C 121.45 34.34 120.64 35.23 119.83 36.13 M 122.97 38.70 C 121.92 40.12 121.38 41.81 120.82 43.47 C 122.07 43.38 124.56 43.22 125.80 43.13 C 124.93 41.61 124.10 40.05 122.97 38.70 Z" />
<path fill="#bca25c" opacity="1.00" d=" M 167.66 36.57 C 169.74 35.40 171.90 34.35 174.14 33.50 C 172.25 34.57 170.32 35.56 168.39 36.55 C 168.16 38.11 167.92 39.67 167.69 41.23 C 169.47 41.26 171.25 41.30 173.03 41.38 C 172.27 42.98 171.80 45.09 169.49 45.21 C 169.67 44.44 170.02 42.90 170.19 42.14 C 169.55 42.68 168.25 43.77 167.61 44.32 C 168.24 44.86 168.88 45.42 169.51 45.98 C 168.30 46.68 167.10 47.41 165.92 48.16 C 165.23 48.22 163.86 48.35 163.17 48.41 C 163.21 49.15 163.27 50.61 163.31 51.35 C 163.05 51.71 162.54 52.43 162.28 52.79 C 162.81 52.65 163.88 52.38 164.41 52.24 C 164.69 51.08 164.97 49.91 165.24 48.75 C 165.62 49.98 166.02 53.10 167.96 51.35 C 171.52 49.61 174.37 46.63 178.22 45.46 C 180.53 44.73 180.07 41.77 180.89 39.91 C 180.85 42.68 180.27 45.41 177.75 46.95 C 177.75 50.85 176.35 54.81 173.28 57.33 C 170.57 59.50 166.89 58.62 163.72 58.73 C 166.04 60.63 168.37 62.55 170.32 64.84 C 167.66 63.34 165.45 60.88 162.29 60.43 C 163.00 61.22 164.41 62.79 165.12 63.58 C 163.38 62.84 161.60 62.57 159.76 62.77 C 160.68 63.27 162.50 64.28 163.41 64.78 C 163.45 66.57 163.52 68.36 163.56 70.15 C 162.58 67.98 162.97 64.35 159.87 64.06 C 157.73 65.82 156.58 68.38 155.37 70.80 C 156.66 72.16 157.58 73.76 157.92 75.63 C 153.89 75.64 150.16 73.61 147.62 70.56 C 146.47 68.64 149.35 68.14 150.70 67.92 C 150.73 68.70 150.79 70.25 150.82 71.02 C 151.75 67.44 152.95 63.91 154.89 60.75 C 154.68 59.84 154.47 58.94 154.26 58.04 C 152.41 57.53 150.56 57.05 148.78 56.36 C 152.16 56.00 155.14 57.25 157.07 60.05 C 156.57 58.28 155.93 56.54 155.27 54.83 C 156.15 55.48 157.90 56.77 158.78 57.42 C 157.89 54.46 155.29 52.59 153.82 49.97 C 156.20 51.68 158.09 53.92 160.06 56.06 C 160.81 53.33 159.70 50.40 160.70 47.72 C 161.71 44.57 164.91 43.08 167.35 41.18 C 167.45 39.64 167.56 38.11 167.66 36.57 M 165.69 56.75 C 167.53 56.35 169.37 55.94 171.22 55.56 C 171.36 53.55 171.55 51.55 171.71 49.54 C 169.04 51.32 165.96 53.21 165.69 56.75 Z" />
<path fill="#bca25c" opacity="1.00" d=" M 81.58 35.47 C 86.33 35.10 93.07 34.76 95.36 39.98 C 96.27 44.12 92.99 47.32 90.07 49.65 C 89.49 49.25 88.33 48.46 87.75 48.07 C 88.92 49.75 90.30 51.27 91.45 52.97 C 91.17 56.44 89.89 59.90 91.50 63.30 C 90.26 63.65 89.03 64.01 87.79 64.39 C 88.83 64.45 90.89 64.57 91.93 64.63 C 90.58 66.32 88.67 67.38 86.93 68.60 C 86.55 66.42 84.46 66.55 82.73 66.32 C 82.53 65.81 82.14 64.78 81.94 64.27 C 79.85 63.66 77.35 63.68 75.64 62.22 C 74.76 60.44 74.33 58.49 73.82 56.59 C 73.45 58.16 73.06 60.30 71.04 60.44 C 67.78 61.22 63.49 61.51 61.54 58.17 C 60.23 53.43 62.37 48.71 65.32 45.07 C 64.78 47.99 63.43 51.15 64.85 54.01 C 69.06 56.06 72.75 52.22 75.90 49.95 C 76.58 49.14 76.76 47.60 78.01 47.48 C 82.68 46.55 87.92 44.79 89.81 39.94 C 87.84 37.24 84.50 36.63 81.58 35.47 M 86.30 51.54 C 84.74 52.32 85.52 55.60 87.39 54.36 C 89.02 53.60 88.15 50.37 86.30 51.54 M 76.42 57.41 C 75.27 59.45 79.54 60.48 79.69 58.26 C 79.47 56.83 77.33 56.35 76.42 57.41 Z" />
<path fill="#bca25c" opacity="1.00" d=" M 46.35 62.05 C 47.40 63.08 48.43 64.13 49.46 65.18 C 51.52 65.94 54.17 66.58 54.86 69.00 C 55.99 71.17 54.90 73.78 52.84 74.89 C 51.11 76.14 49.01 74.90 47.18 74.55 C 47.01 75.57 46.85 76.58 46.69 77.60 C 45.62 78.16 44.55 78.72 43.48 79.28 C 45.26 82.23 41.04 84.79 43.44 87.48 C 44.01 87.70 45.15 88.14 45.71 88.35 C 45.31 90.25 45.57 92.58 44.02 94.03 C 42.19 95.46 39.73 94.74 37.61 94.63 C 37.24 94.20 36.50 93.35 36.12 92.92 C 34.62 92.81 33.12 92.68 31.63 92.55 C 32.58 92.03 33.54 91.52 34.50 91.01 C 34.86 88.03 36.11 85.32 37.91 82.94 C 38.92 81.35 40.10 79.88 41.34 78.47 C 41.64 76.32 42.14 74.19 43.37 72.37 C 43.40 71.72 43.47 70.42 43.50 69.77 C 44.80 68.25 46.13 66.77 47.46 65.29 C 47.08 64.21 46.71 63.13 46.35 62.05 M 48.98 69.95 C 48.47 71.56 49.03 72.14 50.66 71.69 C 51.16 70.07 50.60 69.49 48.98 69.95 M 39.36 89.01 C 38.18 90.38 40.53 92.32 41.56 90.76 C 42.77 89.36 40.43 87.47 39.36 89.01 Z" />
<path fill="#bca25c" opacity="1.00" d=" M 190.46 67.19 C 194.98 63.72 202.25 63.93 206.38 67.88 C 209.59 68.55 210.50 72.09 212.29 74.39 C 214.23 76.51 213.45 79.39 213.07 81.91 C 213.39 85.44 213.28 88.98 213.27 92.52 C 210.93 92.68 206.81 93.59 207.27 89.85 C 206.56 90.30 205.13 91.21 204.41 91.66 C 204.47 92.28 204.59 93.52 204.65 94.14 C 202.58 94.88 200.56 95.76 198.70 96.93 C 198.45 95.90 197.96 93.86 197.71 92.84 C 195.98 96.02 194.03 99.44 190.38 100.64 C 192.89 98.17 190.78 95.41 189.54 92.93 C 191.94 86.67 197.71 81.21 204.71 81.24 C 204.42 81.01 203.83 80.54 203.54 80.31 C 196.74 81.13 191.31 86.08 188.84 92.31 C 185.95 88.26 183.93 83.21 184.34 78.18 C 188.78 73.29 196.06 72.63 202.10 74.50 C 196.28 71.05 189.41 73.30 184.22 76.80 C 185.10 73.93 186.34 70.78 189.03 69.17 C 193.55 67.66 198.33 69.45 202.17 71.89 C 199.03 68.78 194.58 68.10 190.46 67.19 Z" />
<path fill="#bca25c" opacity="1.00" d=" M 47.03 77.00 C 48.30 76.59 49.58 76.20 50.87 75.82 C 51.29 76.61 51.72 77.41 52.15 78.21 C 52.36 77.53 52.79 76.17 53.00 75.50 C 57.40 76.61 61.40 79.34 66.15 78.79 C 62.89 79.61 59.51 79.63 56.17 79.55 C 57.78 82.37 59.66 85.03 62.02 87.28 C 61.39 87.30 60.11 87.34 59.47 87.37 L 59.46 89.38 C 60.01 89.42 61.13 89.50 61.69 89.54 C 61.65 89.80 61.56 90.33 61.52 90.59 C 58.18 89.18 54.62 89.20 51.18 90.26 C 53.20 92.61 55.28 95.07 56.10 98.14 C 55.32 97.05 54.58 95.92 53.85 94.79 C 51.16 93.21 48.41 91.74 45.71 90.19 C 46.40 89.47 47.09 88.75 47.79 88.03 C 46.10 87.29 44.57 86.28 43.11 85.17 C 44.81 83.70 45.50 81.51 46.78 79.73 C 47.65 78.99 47.59 77.92 47.03 77.00 Z" />
<path fill="#bca25c" opacity="1.00" d=" M 131.09 98.94 C 133.40 97.18 135.85 95.30 138.88 95.17 C 143.49 94.37 149.24 96.71 150.06 101.76 C 146.64 98.87 142.22 96.65 137.74 98.58 C 138.79 100.45 140.05 102.21 141.70 103.61 C 142.99 103.11 144.30 102.62 145.61 102.15 C 144.34 104.59 141.81 105.18 139.28 105.40 C 137.08 102.63 134.16 100.62 131.09 98.94 Z" />
<path fill="#bca25c" opacity="1.00" d=" M 116.03 105.36 C 116.13 103.15 117.15 100.09 119.97 100.62 C 120.70 101.04 122.16 101.87 122.89 102.28 C 121.74 102.37 119.44 102.55 118.29 102.64 C 122.23 104.43 126.57 105.97 128.84 109.97 C 123.46 109.78 117.92 110.68 113.92 114.60 C 118.51 111.45 123.97 110.28 129.48 110.32 C 128.22 112.74 126.87 115.13 125.52 117.50 C 122.11 117.17 118.92 118.30 116.00 119.97 C 116.84 122.14 116.92 124.95 119.03 126.35 C 122.74 126.24 125.34 123.13 127.35 120.37 C 130.17 116.01 132.26 110.61 131.13 105.37 C 130.58 103.01 127.65 102.97 125.90 101.89 C 130.43 100.22 134.58 102.89 137.95 105.69 C 137.91 108.05 137.89 110.43 137.61 112.78 C 137.58 114.88 137.37 116.97 137.14 119.05 C 137.78 116.72 138.66 114.47 139.53 112.22 C 139.30 111.83 138.82 111.05 138.58 110.66 C 138.39 109.02 138.20 107.38 138.03 105.74 C 144.76 105.33 151.70 103.36 158.30 105.76 C 168.90 109.13 173.24 122.97 168.61 132.54 C 165.04 139.23 157.76 144.37 149.95 143.82 C 143.48 143.81 137.55 140.16 133.65 135.16 C 133.04 136.30 132.43 137.44 131.80 138.56 C 131.65 137.52 131.36 135.42 131.21 134.37 C 129.03 134.71 126.86 135.15 124.70 135.59 C 124.68 134.82 124.65 133.29 124.64 132.52 C 126.80 131.92 128.95 131.29 131.06 130.53 C 126.68 130.23 122.22 130.22 117.99 128.84 C 115.85 127.95 114.01 129.96 111.99 130.36 C 110.52 129.83 109.61 128.43 108.47 127.45 C 105.88 129.30 103.99 131.83 102.56 134.65 C 101.40 137.34 98.11 137.37 95.75 138.32 C 94.52 136.56 92.27 134.35 94.12 132.20 C 95.46 130.90 97.37 131.73 98.97 131.74 C 97.68 132.64 96.32 133.46 94.96 134.25 C 96.21 134.40 97.46 134.55 98.71 134.70 C 99.12 131.52 99.27 128.27 100.21 125.19 C 101.25 121.83 104.49 120.01 107.00 117.84 C 101.03 120.56 96.41 125.52 93.33 131.23 C 92.33 133.10 93.25 135.19 93.47 137.13 C 90.69 139.54 87.88 142.69 83.93 142.77 C 81.88 143.08 80.19 141.71 78.56 140.74 C 78.67 139.33 78.72 137.92 78.72 136.51 C 80.14 136.18 81.56 135.86 82.99 135.57 C 83.25 136.15 83.77 137.32 84.03 137.91 C 82.89 137.72 81.75 137.53 80.61 137.35 C 80.82 138.01 81.23 139.35 81.43 140.02 C 86.81 139.98 88.23 134.27 89.54 130.13 C 90.52 126.58 92.76 123.57 95.62 121.30 C 92.83 122.19 89.13 123.85 86.71 121.32 C 85.05 119.80 84.56 116.02 87.10 115.21 C 89.08 113.80 90.54 116.36 92.03 117.24 C 90.94 117.27 88.75 117.32 87.66 117.34 C 88.22 118.28 88.79 119.22 89.35 120.16 C 97.19 118.20 100.98 110.10 108.20 107.06 C 110.67 105.95 113.38 105.72 116.03 105.36 M 150.10 112.71 C 150.92 114.90 151.74 117.09 152.56 119.28 C 150.68 120.08 148.80 120.89 146.90 121.67 C 147.27 123.83 148.38 125.70 149.73 127.40 C 147.83 128.96 145.83 130.38 143.82 131.79 C 145.40 133.93 146.68 136.49 149.19 137.71 C 148.09 135.67 146.80 133.74 145.49 131.84 C 147.30 130.87 149.16 129.98 150.88 128.84 C 150.47 126.59 149.22 124.63 148.18 122.64 C 150.25 121.65 152.35 120.74 154.46 119.85 C 153.57 117.79 152.66 115.74 151.72 113.70 C 153.96 112.99 156.22 112.34 158.34 111.32 C 155.54 111.42 152.81 112.07 150.10 112.71 M 155.47 116.41 C 156.19 118.24 156.90 120.06 157.61 121.89 C 155.79 122.68 153.97 123.50 152.16 124.31 C 153.15 125.97 154.15 127.63 155.15 129.29 C 153.47 130.34 151.79 131.39 150.11 132.43 C 151.36 134.50 152.81 136.48 154.74 137.97 C 153.76 136.14 152.61 134.41 151.40 132.72 C 153.12 131.86 154.85 131.02 156.58 130.17 C 155.75 128.45 154.32 126.87 154.24 124.90 C 155.17 123.26 157.55 123.45 159.10 122.65 C 158.43 120.72 157.74 118.81 157.07 116.90 C 158.90 116.48 160.72 116.00 162.45 115.26 C 160.08 115.37 157.76 115.82 155.47 116.41 M 112.01 124.39 C 112.40 125.76 112.81 127.14 113.44 128.42 C 113.36 127.29 113.25 126.15 113.13 125.03 C 113.74 125.13 114.95 125.33 115.55 125.43 C 115.65 123.66 115.78 121.90 115.89 120.14 C 114.59 121.55 113.31 122.98 112.01 124.39 Z" />
<path fill="#bca25c" opacity="1.00" d=" M 210.33 111.48 C 211.57 110.23 212.79 108.96 213.98 107.67 C 217.37 108.50 220.86 108.44 224.24 107.62 C 225.55 111.04 225.71 114.66 224.75 118.19 C 218.30 117.27 213.38 123.87 206.92 121.71 C 203.69 123.36 199.83 124.49 197.85 127.78 C 196.41 129.81 193.58 133.23 191.10 130.51 C 190.37 131.50 189.63 132.48 188.91 133.48 C 186.49 133.06 184.06 132.63 181.68 132.00 C 187.06 130.40 192.05 127.80 196.24 124.04 C 197.54 120.37 198.59 116.62 199.75 112.91 C 200.29 112.74 201.37 112.41 201.91 112.25 C 204.42 110.41 207.47 110.90 210.33 111.48 M 204.32 113.11 C 204.75 114.65 207.63 114.67 208.23 113.21 C 207.74 111.75 205.01 111.88 204.32 113.11 M 213.82 119.05 C 216.50 117.39 219.48 116.43 222.65 116.47 C 222.49 115.43 222.33 114.39 222.17 113.35 C 218.89 114.11 214.06 114.84 213.82 119.05 Z" />
<path fill="#bca25c" opacity="1.00" d=" M 37.25 115.46 C 38.35 113.97 39.45 112.50 40.58 111.03 C 40.47 112.51 40.36 113.99 40.27 115.48 C 43.19 116.08 46.13 116.57 49.10 116.84 C 49.93 114.88 50.79 112.83 52.69 111.68 C 52.40 113.45 51.97 115.19 51.74 116.97 C 52.58 119.04 53.86 120.87 54.92 122.82 C 52.73 121.56 50.73 120.00 48.93 118.22 C 46.49 119.51 44.16 121.03 42.12 122.91 C 43.07 123.43 44.01 123.96 44.95 124.50 C 43.54 124.21 42.13 123.89 40.73 123.56 C 38.69 124.57 35.58 124.62 34.78 127.16 C 37.00 127.49 38.96 128.53 40.66 129.95 C 42.65 128.51 44.47 126.86 46.25 125.18 C 46.39 126.01 46.66 127.66 46.79 128.49 C 50.13 129.13 53.68 129.62 56.50 131.70 C 57.07 137.26 48.70 136.20 47.84 141.09 C 47.23 140.34 46.61 139.58 46.02 138.82 C 44.25 138.79 42.48 138.74 40.72 138.66 C 39.68 139.46 38.65 140.26 37.62 141.06 C 37.66 140.27 37.74 138.69 37.78 137.91 C 35.51 137.54 33.24 137.14 30.97 136.73 C 29.93 139.08 28.59 141.32 26.61 143.00 C 27.05 141.02 27.73 139.07 27.79 137.03 C 27.40 135.00 25.87 133.44 24.94 131.65 C 27.03 132.64 28.89 134.01 30.85 135.21 C 33.29 134.20 35.57 132.83 37.67 131.25 C 37.58 130.65 37.40 129.46 37.31 128.86 C 33.30 125.99 28.21 126.05 23.70 124.47 C 23.65 123.46 23.59 122.45 23.53 121.45 C 25.79 119.50 28.24 117.77 30.84 116.30 C 30.81 115.48 30.74 113.84 30.71 113.02 C 32.91 113.76 35.08 114.60 37.25 115.46 Z" />
<path fill="#bca25c" opacity="1.00" d=" M 119.83 131.46 C 121.30 131.58 122.78 131.71 124.26 131.84 C 124.27 134.26 124.43 136.93 126.71 138.36 C 129.69 141.42 134.16 140.80 138.01 140.55 C 135.29 142.25 131.94 143.05 128.81 142.12 C 123.94 140.90 120.49 136.32 119.83 131.46 Z" />
<path fill="#bca25c" opacity="1.00" d=" M 198.38 150.50 C 201.33 147.57 206.94 148.50 208.86 152.16 C 210.61 155.26 209.66 159.54 206.57 161.43 C 203.30 161.08 199.77 160.54 197.43 157.97 C 197.64 161.19 198.50 164.75 196.77 167.69 C 195.38 168.78 193.75 169.52 192.21 170.37 C 194.28 166.44 194.87 160.96 191.24 157.74 C 187.75 153.95 181.22 154.02 177.80 157.87 C 174.13 161.04 174.17 168.05 179.09 169.98 C 183.17 172.27 189.65 167.45 187.08 163.08 C 185.46 160.19 182.15 162.18 179.76 162.69 C 181.18 161.15 182.59 159.14 184.93 159.14 C 188.46 158.77 191.36 162.74 190.08 166.02 C 188.66 171.23 181.79 174.13 177.30 170.83 C 170.56 166.31 173.03 155.10 179.90 151.93 C 185.54 148.87 192.67 151.11 196.31 156.19 C 196.82 154.27 196.81 151.94 198.38 150.50 M 197.13 156.23 C 198.66 157.41 199.92 159.48 202.09 159.42 C 203.92 159.19 203.82 157.20 204.28 155.87 C 203.19 155.43 202.12 155.00 201.05 154.56 C 202.21 154.54 203.37 154.53 204.54 154.52 C 205.72 156.41 205.50 158.55 204.98 160.62 C 207.56 159.00 207.82 156.07 207.77 153.31 C 205.83 151.73 203.61 149.80 200.90 150.58 C 198.50 151.49 197.89 154.07 197.13 156.23 Z" />
<path fill="#bca25c" opacity="1.00" d=" M 63.88 149.74 C 64.15 151.36 64.38 152.97 64.65 154.60 C 65.65 153.29 66.64 151.97 67.64 150.67 C 67.64 153.25 67.56 155.83 67.56 158.41 C 68.58 156.85 68.78 155.00 68.97 153.20 C 69.45 153.89 70.42 155.27 70.90 155.96 C 72.02 154.52 73.73 154.23 75.44 154.08 C 74.49 154.65 73.53 155.21 72.56 155.76 C 73.01 157.08 73.46 158.40 73.89 159.73 C 72.71 161.02 71.64 162.51 72.37 164.34 C 73.01 164.42 74.28 164.60 74.92 164.68 C 73.17 171.32 64.61 171.93 61.21 177.36 C 59.88 179.73 57.15 180.01 54.70 179.92 C 56.71 179.03 58.63 177.93 60.02 176.19 C 59.06 176.20 57.14 176.23 56.17 176.24 C 53.79 178.28 51.00 180.07 47.71 179.49 C 47.66 178.31 47.62 177.13 47.58 175.96 C 48.45 176.54 49.32 177.12 50.18 177.71 C 51.20 176.96 52.22 176.23 53.24 175.48 C 48.93 174.94 44.35 174.77 40.68 172.14 C 38.44 170.40 35.56 170.52 32.88 170.32 C 34.84 169.76 36.89 168.54 38.94 169.39 C 41.47 170.34 44.00 171.56 46.78 171.06 C 45.09 170.32 43.47 169.44 42.07 168.24 C 43.16 166.20 44.82 164.61 46.89 163.60 C 46.24 164.77 43.01 167.24 45.91 167.77 C 47.53 166.68 48.63 165.05 49.81 163.53 C 47.26 162.37 44.47 162.37 41.72 162.47 C 43.99 161.05 46.63 160.95 49.22 161.24 C 51.11 161.82 51.26 159.35 51.58 158.16 C 52.05 158.48 52.99 159.11 53.45 159.43 C 53.18 157.61 52.90 155.75 53.42 153.94 C 54.75 153.09 55.98 152.08 57.37 151.33 C 59.06 151.05 60.73 151.81 62.38 152.12 C 62.75 151.53 63.50 150.33 63.88 149.74 M 57.13 158.03 C 57.94 159.09 58.68 160.20 59.31 161.38 C 58.35 161.47 56.44 161.63 55.48 161.71 C 55.41 162.35 55.26 163.63 55.18 164.27 C 57.30 163.67 59.31 162.73 60.99 161.29 C 63.95 160.85 66.28 162.66 67.44 165.21 C 67.02 163.92 66.64 162.62 66.28 161.32 C 67.80 161.19 69.16 161.66 70.34 162.73 C 69.65 161.98 68.96 161.24 68.28 160.50 C 66.72 161.64 63.71 161.49 65.21 158.84 C 64.70 158.31 64.17 157.79 63.64 157.28 C 62.70 159.18 61.20 160.19 59.05 159.56 C 59.58 158.76 60.62 157.16 61.14 156.37 C 59.80 156.91 58.47 157.47 57.13 158.03 M 71.90 165.02 C 72.49 165.57 72.49 165.57 71.90 165.02 Z" />
<path fill="#bca25c" opacity="1.00" d=" M 198.37 167.43 C 200.98 162.43 208.69 161.50 212.58 165.47 C 215.75 168.47 216.16 173.99 213.37 177.38 C 210.79 180.53 205.65 180.66 202.48 178.35 C 200.63 177.11 200.16 174.78 199.37 172.85 C 200.76 171.58 201.81 169.14 204.04 169.40 C 206.23 169.15 207.28 171.21 208.47 172.64 C 206.62 171.92 203.92 169.96 202.39 172.28 C 200.67 173.87 201.95 176.27 203.57 177.35 C 205.28 179.10 207.86 178.47 210.04 178.57 C 211.40 176.88 213.42 175.36 213.48 173.00 C 213.75 168.65 209.41 164.52 205.04 165.59 C 201.17 166.08 199.36 170.06 198.58 173.41 C 196.30 172.13 197.40 169.18 198.37 167.43 Z" />
<path fill="#bca25c" opacity="1.00" d=" M 93.80 180.96 C 95.28 179.48 96.40 177.72 97.43 175.91 C 97.28 177.92 97.21 179.93 97.13 181.95 C 96.18 183.21 95.29 184.52 94.59 185.95 C 93.52 185.63 92.47 185.27 91.42 184.93 C 91.35 185.80 91.21 187.52 91.14 188.38 C 90.02 188.36 87.79 188.34 86.67 188.32 C 88.32 185.17 92.02 184.03 93.80 180.96 Z" />
<path fill="#bca25c" opacity="1.00" d=" M 150.88 179.41 C 153.32 177.65 155.96 175.82 159.09 175.80 C 160.67 176.59 162.02 177.74 163.41 178.81 C 163.49 180.40 163.60 181.99 163.74 183.58 C 163.18 183.94 162.06 184.66 161.50 185.02 C 163.19 184.73 164.88 184.43 166.56 184.10 C 167.38 183.50 168.57 180.99 169.64 182.90 C 168.47 184.05 167.22 185.11 166.00 186.19 C 168.81 186.78 172.24 185.84 171.71 182.34 C 171.90 182.33 172.26 182.29 172.45 182.28 C 172.56 183.69 172.73 185.10 172.75 186.52 C 170.72 187.07 168.64 187.39 166.59 187.83 C 168.34 188.41 170.16 188.62 172.00 188.56 C 171.82 189.00 171.45 189.90 171.26 190.34 C 176.08 193.07 178.14 198.50 181.48 202.64 C 181.64 205.11 181.88 207.96 179.47 209.47 C 177.34 211.88 174.69 209.14 173.51 207.22 C 172.27 206.17 172.22 203.65 174.12 203.37 C 175.30 202.67 176.00 204.52 176.93 204.99 C 176.55 205.95 176.18 206.92 175.81 207.88 C 176.66 207.86 178.35 207.82 179.19 207.80 C 179.26 207.06 179.38 205.57 179.44 204.83 C 179.04 203.85 178.64 202.87 178.25 201.89 C 173.87 200.82 169.72 199.05 165.67 197.10 C 165.99 198.94 166.33 200.79 166.62 202.65 C 165.33 202.65 164.05 202.65 162.77 202.65 C 163.49 202.29 164.94 201.56 165.66 201.20 C 164.96 198.71 164.35 196.13 162.79 194.00 C 162.56 196.42 162.71 198.90 162.08 201.26 C 160.30 201.36 158.54 201.07 156.80 200.82 C 158.38 200.33 159.97 199.84 161.56 199.35 C 161.29 197.84 161.00 196.33 160.70 194.83 C 160.50 195.58 160.11 197.09 159.91 197.85 C 158.51 197.69 157.11 197.54 155.71 197.39 C 156.97 196.98 158.23 196.57 159.49 196.17 C 159.17 194.36 158.85 192.55 158.53 190.75 C 157.75 192.53 156.98 194.32 156.18 196.09 C 153.64 194.44 151.16 192.68 148.52 191.18 C 147.63 188.06 147.60 184.74 149.05 181.78 C 149.20 182.55 149.50 184.10 149.65 184.87 C 151.47 186.83 153.04 189.00 154.55 191.20 C 154.62 189.29 154.66 187.37 154.69 185.46 C 155.90 185.83 157.11 186.22 158.31 186.64 C 158.98 185.87 159.58 185.03 160.24 184.26 C 159.35 184.25 157.57 184.23 156.68 184.22 C 158.23 183.09 159.83 182.03 161.33 180.84 C 157.84 180.43 154.42 179.49 150.88 179.41 M 154.29 193.19 C 154.48 196.55 157.24 191.49 154.29 193.19 Z" />
<path fill="#bca25c" opacity="1.00" d=" M 126.35 184.22 C 126.56 184.23 126.99 184.24 127.20 184.25 C 127.59 186.16 128.04 188.06 128.53 189.95 C 131.49 190.66 134.34 191.75 137.16 192.88 C 134.42 192.34 131.71 191.65 128.96 191.18 C 129.95 194.07 131.18 196.87 132.48 199.64 C 132.79 199.10 133.41 198.03 133.71 197.49 C 134.65 197.51 136.52 197.55 137.46 197.56 C 138.01 199.26 138.52 200.98 139.00 202.70 C 137.77 202.71 136.54 202.72 135.31 202.73 C 135.06 202.26 134.55 201.32 134.30 200.85 C 134.44 203.48 134.44 206.12 134.26 208.75 C 132.27 207.38 130.45 204.99 127.73 205.96 C 129.61 210.04 134.73 211.39 135.86 215.96 C 140.34 216.99 138.60 222.54 141.72 224.98 C 140.43 224.72 139.14 224.49 137.86 224.25 C 137.59 223.74 137.05 222.72 136.78 222.21 C 136.80 220.69 136.81 219.17 136.81 217.65 C 135.51 218.23 134.21 218.82 132.92 219.44 C 132.36 219.50 131.25 219.61 130.69 219.67 C 130.10 220.77 129.51 221.88 128.92 222.99 C 127.83 222.44 126.75 221.90 125.67 221.35 C 124.87 222.10 124.08 222.85 123.30 223.61 C 122.66 223.15 122.03 222.69 121.40 222.23 C 122.26 221.33 123.12 220.43 123.98 219.53 C 125.79 219.74 128.73 221.28 127.88 218.12 C 126.61 218.38 125.35 218.66 124.09 218.94 C 123.12 218.10 122.15 217.26 121.17 216.46 C 121.11 215.94 120.99 214.91 120.94 214.40 C 122.34 215.13 123.75 215.91 125.14 216.69 C 125.61 215.78 126.09 214.88 126.56 213.98 C 124.58 212.56 122.53 211.25 120.27 210.32 C 119.00 208.72 117.87 206.42 115.45 207.47 C 116.08 208.72 116.69 209.97 117.30 211.24 C 114.97 211.33 113.83 209.32 113.41 207.35 C 114.83 206.12 116.45 205.16 118.01 204.12 C 118.54 204.56 119.61 205.43 120.14 205.86 C 119.66 204.10 119.18 202.32 118.24 200.73 C 118.19 197.92 121.68 201.61 122.23 202.60 C 125.10 202.67 127.46 201.04 129.68 199.44 C 129.05 196.80 128.31 194.20 127.29 191.70 C 125.50 193.74 123.81 195.86 122.03 197.90 C 123.69 195.03 125.41 192.13 127.93 189.92 C 127.47 188.00 126.93 186.11 126.35 184.22 Z" />
<path fill="#bca25c" opacity="1.00" d=" M 91.10 189.14 C 91.60 187.34 92.52 186.69 93.83 187.19 C 95.64 188.84 93.83 191.03 93.20 192.81 C 93.57 193.20 94.29 193.97 94.66 194.35 C 94.49 196.50 94.24 198.65 93.94 200.79 C 92.87 201.98 91.81 203.19 90.75 204.40 C 94.01 205.77 97.18 207.37 100.13 209.33 C 96.12 209.03 91.45 210.10 88.22 207.05 C 89.00 206.83 90.55 206.38 91.33 206.16 C 89.24 205.64 87.08 205.44 84.94 205.30 C 85.66 205.46 87.09 205.76 87.81 205.92 C 88.26 210.72 85.89 215.88 81.01 217.33 C 82.59 214.34 85.48 211.45 84.43 207.77 C 82.86 205.37 78.98 203.32 76.54 205.64 C 74.47 207.47 73.70 210.27 72.24 212.55 C 71.55 208.19 73.33 203.96 76.78 201.26 C 72.75 199.41 71.24 194.89 67.96 192.14 C 71.58 193.59 75.13 195.32 78.15 197.81 C 78.19 194.59 79.95 191.99 82.03 189.71 C 84.57 188.93 87.21 188.60 89.86 188.56 C 90.81 189.48 91.77 190.40 92.74 191.29 C 92.33 190.76 91.51 189.68 91.10 189.14 M 76.27 199.12 C 76.37 202.52 79.22 197.57 76.27 199.12 Z" />
<path fill="#bca25c" opacity="1.00" d=" M 116.43 200.64 C 117.72 201.66 117.24 204.44 115.32 204.23 C 113.60 203.56 114.85 200.58 116.43 200.64 Z" />
<path fill="#bca25c" opacity="1.00" d=" M 117.22 218.69 C 117.06 217.31 117.52 216.11 118.60 215.09 C 119.32 215.86 120.02 216.65 120.69 217.46 C 119.66 218.30 118.51 218.70 117.22 218.69 Z" />
</g>
</svg>
