<?xml version="1.0" encoding="UTF-8" ?>
<!DOCTYPE svg PUBLIC "-//W3C//DTD SVG 1.1//EN" "http://www.w3.org/Graphics/SVG/1.1/DTD/svg11.dtd">
<svg width="246pt" height="250pt" viewBox="0 0 246 250" version="1.1" xmlns="http://www.w3.org/2000/svg">
<g id="#ffffffff">
<path fill="#ffffff" opacity="1.00" d=" M 0.00 0.00 L 246.00 0.00 L 246.00 250.00 L 0.00 250.00 L 0.00 0.00 M 113.18 42.19 C 85.18 44.04 58.63 59.96 43.66 83.67 C 35.95 95.39 31.51 109.05 29.75 122.91 C 29.67 128.95 29.66 134.99 29.75 141.04 C 30.87 151.45 33.75 161.66 38.16 171.16 C 50.69 197.28 76.18 216.97 104.92 221.46 C 126.43 225.31 149.27 220.45 167.69 208.75 C 188.97 195.49 204.26 172.92 208.49 148.18 C 212.25 127.48 208.54 105.42 197.81 87.28 C 181.33 57.68 146.93 39.41 113.18 42.19 Z" />
<path fill="#ffffff" opacity="1.00" d=" M 115.78 73.81 C 121.20 72.44 127.28 73.74 131.53 77.43 C 134.98 80.35 136.90 84.64 138.25 88.86 C 145.81 110.16 153.36 131.47 161.10 152.71 C 162.12 155.69 163.54 159.42 161.19 162.15 C 158.08 164.75 153.81 164.15 150.05 164.20 C 134.02 164.21 117.99 164.11 101.95 164.26 C 99.74 163.90 98.21 165.87 97.69 167.78 C 95.94 173.67 93.62 179.39 92.12 185.35 C 83.79 185.78 75.44 185.45 67.10 185.52 C 67.61 181.95 69.30 178.72 70.44 175.33 C 81.64 145.50 92.89 115.68 103.99 85.81 C 105.82 80.30 110.11 75.48 115.78 73.81 M 115.36 106.61 C 110.15 107.69 105.87 111.30 102.76 115.47 C 98.23 121.91 98.15 130.98 101.92 137.79 C 105.69 144.45 113.22 148.93 120.93 148.55 C 131.79 148.55 141.71 138.99 141.59 128.03 C 142.23 119.57 136.81 111.40 129.22 107.93 C 124.98 105.70 119.96 106.24 115.36 106.61 Z" />
<path fill="#ffffff" opacity="1.00" d=" M 118.29 116.17 C 119.05 115.17 120.37 115.32 121.47 115.10 C 125.20 118.90 129.04 122.58 132.70 126.45 C 132.68 126.95 132.65 127.97 132.63 128.47 C 129.39 131.62 126.24 134.85 123.04 138.04 C 122.09 139.08 120.53 140.27 119.15 139.17 C 115.42 135.78 112.06 132.00 108.36 128.58 C 108.35 128.00 108.34 126.84 108.33 126.26 C 111.63 122.88 114.98 119.54 118.29 116.17 Z" />
<path fill="#ffffff" opacity="1.00" d=" M 143.42 167.16 C 149.97 167.09 156.53 167.13 163.08 167.11 C 164.26 167.16 166.03 167.04 166.44 168.50 C 168.74 174.08 170.80 179.76 172.86 185.43 C 164.78 185.70 156.70 185.47 148.61 185.56 C 147.00 182.90 146.61 179.77 145.62 176.87 C 144.74 173.66 143.36 170.55 143.42 167.16 Z" />
</g>
<g id="#06cdffff">
<path fill="#06cdff" opacity="1.00" d=" M 113.18 42.19 C 146.93 39.41 181.33 57.68 197.81 87.28 C 208.54 105.42 212.25 127.48 208.49 148.18 C 204.26 172.92 188.97 195.49 167.69 208.75 C 149.27 220.45 126.43 225.31 104.92 221.46 C 76.18 216.97 50.69 197.28 38.16 171.16 C 33.75 161.66 30.87 151.45 29.75 141.04 C 29.66 134.99 29.67 128.95 29.75 122.91 C 31.51 109.05 35.95 95.39 43.66 83.67 C 58.63 59.96 85.18 44.04 113.18 42.19 M 115.78 73.81 C 110.11 75.48 105.82 80.30 103.99 85.81 C 92.89 115.68 81.64 145.50 70.44 175.33 C 69.30 178.72 67.61 181.95 67.10 185.52 C 75.44 185.45 83.79 185.78 92.12 185.35 C 93.62 179.39 95.94 173.67 97.69 167.78 C 98.21 165.87 99.74 163.90 101.95 164.26 C 117.99 164.11 134.02 164.21 150.05 164.20 C 153.81 164.15 158.08 164.75 161.19 162.15 C 163.54 159.42 162.12 155.69 161.10 152.71 C 153.36 131.47 145.81 110.16 138.25 88.86 C 136.90 84.64 134.98 80.35 131.53 77.43 C 127.28 73.74 121.20 72.44 115.78 73.81 M 143.42 167.16 C 143.36 170.55 144.74 173.66 145.62 176.87 C 146.61 179.77 147.00 182.90 148.61 185.56 C 156.70 185.47 164.78 185.70 172.86 185.43 C 170.80 179.76 168.74 174.08 166.44 168.50 C 166.03 167.04 164.26 167.16 163.08 167.11 C 156.53 167.13 149.97 167.09 143.42 167.16 Z" />
<path fill="#06cdff" opacity="1.00" d=" M 115.36 106.61 C 119.96 106.24 124.98 105.70 129.22 107.93 C 136.81 111.40 142.23 119.57 141.59 128.03 C 141.71 138.99 131.79 148.55 120.93 148.55 C 113.22 148.93 105.69 144.45 101.92 137.79 C 98.15 130.98 98.23 121.91 102.76 115.47 C 105.87 111.30 110.15 107.69 115.36 106.61 M 118.29 116.17 C 114.98 119.54 111.63 122.88 108.33 126.26 C 108.34 126.84 108.35 128.00 108.36 128.58 C 112.06 132.00 115.42 135.78 119.15 139.17 C 120.53 140.27 122.09 139.08 123.04 138.04 C 126.24 134.85 129.39 131.62 132.63 128.47 C 132.65 127.97 132.68 126.95 132.70 126.45 C 129.04 122.58 125.20 118.90 121.47 115.10 C 120.37 115.32 119.05 115.17 118.29 116.17 Z" />
</g>
</svg>
