<?xml version="1.0" encoding="UTF-8" ?>
<!DOCTYPE svg PUBLIC "-//W3C//DTD SVG 1.1//EN" "http://www.w3.org/Graphics/SVG/1.1/DTD/svg11.dtd">
<svg width="250pt" height="247pt" viewBox="0 0 250 247" version="1.1" xmlns="http://www.w3.org/2000/svg">
<g id="#fefeffff">
<path fill="#fefeff" opacity="1.00" d=" M 0.00 0.00 L 250.00 0.00 L 250.00 247.00 L 0.00 247.00 L 0.00 0.00 M 67.12 20.99 C 69.20 27.76 64.66 36.75 67.92 42.00 L 67.95 42.95 C 113.29 43.04 158.62 43.04 203.96 42.94 C 204.77 43.85 206.22 44.55 206.00 46.01 C 206.03 91.34 205.95 136.67 206.02 182.00 C 204.00 188.01 211.33 192.48 216.36 189.42 C 219.14 189.59 220.97 184.35 223.28 187.69 C 227.31 192.01 234.63 190.32 237.81 185.76 C 238.40 134.24 238.38 82.87 237.72 31.33 C 235.56 24.19 224.07 31.83 222.09 24.94 C 221.52 20.74 224.14 11.04 216.93 12.00 C 167.62 11.95 118.31 12.10 69.00 11.93 C 65.10 13.14 68.03 18.47 67.12 20.99 M 73.97 100.99 L 73.04 101.05 C 72.93 128.70 73.01 156.37 73.02 184.03 L 73.94 183.84 C 72.56 189.96 80.93 187.61 84.00 188.07 C 88.75 186.46 98.90 191.10 101.12 185.23 C 103.50 159.82 100.80 131.81 102.43 105.44 C 103.97 103.17 105.57 100.75 104.95 97.85 C 114.68 81.77 141.55 84.76 147.30 102.70 C 149.89 112.71 144.11 124.96 152.10 132.88 C 148.97 133.12 145.82 133.16 142.70 133.36 C 131.25 132.33 119.69 133.23 108.21 133.10 C 104.09 137.72 106.69 144.53 105.95 150.01 C 106.58 154.05 104.07 162.00 110.07 162.89 C 122.68 163.35 135.32 162.71 147.94 163.05 C 148.79 169.78 146.60 180.31 149.02 184.75 C 149.32 185.06 149.94 185.66 150.24 185.97 C 155.79 187.43 168.77 188.18 175.89 185.79 C 175.39 168.71 177.49 150.60 174.87 134.10 C 170.39 131.25 177.01 130.39 176.05 126.85 C 175.60 112.66 178.55 97.43 170.24 84.84 C 166.02 78.98 160.91 70.44 154.02 68.38 C 150.18 61.50 140.72 62.00 134.32 58.69 C 107.25 53.09 78.15 73.95 73.97 100.99 M 14.98 67.02 C 15.10 117.06 14.83 167.10 15.12 217.13 L 16.02 216.76 C 16.33 217.06 16.93 217.66 17.24 217.96 C 17.65 220.86 25.99 217.90 28.75 219.15 C 32.84 223.18 26.43 232.83 33.06 234.92 C 80.98 235.13 128.91 234.92 176.83 235.02 C 185.27 233.56 176.25 222.45 178.97 217.04 C 177.66 213.89 181.73 206.09 176.94 205.02 L 176.99 204.06 C 134.33 203.90 91.67 204.05 49.01 204.01 C 47.51 202.76 44.52 200.24 43.02 198.99 C 43.02 155.00 42.92 111.00 43.08 67.01 C 43.79 60.02 33.74 62.86 29.64 64.60 C 25.39 64.34 14.83 59.51 14.98 67.02 Z" />
</g>
<g id="#eceff7ff">
<path fill="#eceff7" opacity="1.00" d=" M 67.12 20.99 C 68.03 18.47 65.10 13.14 69.00 11.93 L 68.87 12.90 L 68.73 13.83 C 67.84 17.32 67.81 20.77 68.64 24.19 L 69.01 25.03 C 114.03 27.33 161.24 25.30 207.10 26.03 C 207.09 26.77 207.07 28.25 207.06 28.99 C 161.72 29.03 116.37 28.97 71.03 29.00 C 70.50 29.22 69.45 29.67 68.92 29.90 C 67.54 33.42 68.14 37.36 67.94 41.07 L 67.92 42.00 C 64.66 36.75 69.20 27.76 67.12 20.99 Z" />
</g>
<g id="#d1e1f0ff">
<path fill="#d1e1f0" opacity="1.00" d=" M 69.00 11.93 C 118.31 12.10 167.62 11.95 216.93 12.00 L 217.02 12.93 C 167.63 13.02 118.25 13.10 68.87 12.90 L 69.00 11.93 Z" />
</g>
<g id="#f0f4f9ff">
<path fill="#f0f4f9" opacity="1.00" d=" M 216.93 12.00 C 224.14 11.04 221.52 20.74 222.09 24.94 C 224.07 31.83 235.56 24.19 237.72 31.33 C 238.38 82.87 238.40 134.24 237.81 185.76 C 234.63 190.32 227.31 192.01 223.28 187.69 C 220.97 184.35 219.14 189.59 216.36 189.42 C 211.33 192.48 204.00 188.01 206.02 182.00 C 205.95 136.67 206.03 91.34 206.00 46.01 C 206.22 44.55 204.77 43.85 203.96 42.94 C 204.70 42.98 206.18 43.07 206.91 43.12 C 207.13 90.08 206.94 137.04 206.98 184.00 C 206.73 188.91 213.96 187.58 216.95 186.12 C 217.27 185.92 217.91 185.52 218.23 185.33 L 218.96 184.86 C 220.83 139.27 220.39 91.81 219.25 45.70 C 218.66 43.27 221.62 42.93 223.30 42.52 C 222.73 90.26 222.97 138.04 223.14 185.77 C 225.91 187.86 232.89 188.56 235.23 185.15 C 237.08 136.86 235.39 88.35 236.07 39.98 C 234.92 37.68 237.23 34.02 235.06 31.94 C 231.73 27.15 225.07 29.92 220.24 28.83 C 216.69 24.84 221.60 17.58 217.17 13.79 L 217.02 12.93 L 216.93 12.00 Z" />
</g>
<g id="#a4c3e2ff">
<path fill="#a4c3e2" opacity="1.00" d=" M 68.87 12.90 C 118.25 13.10 167.63 13.02 217.02 12.93 L 217.17 13.79 C 193.12 14.26 169.06 13.88 145.00 13.98 C 119.58 13.86 94.15 14.28 68.73 13.83 L 68.87 12.90 Z" />
</g>
<g id="#8f9bcbff">
<path fill="#8f9bcb" opacity="1.00" d=" M 68.64 24.19 C 67.81 20.77 67.84 17.32 68.73 13.83 C 94.15 14.28 119.58 13.86 145.00 13.98 L 145.00 14.94 C 140.26 14.98 135.52 15.05 130.78 15.12 C 117.45 14.94 104.11 14.87 90.78 15.16 C 83.53 14.99 76.27 14.83 69.02 15.06 C 65.71 24.38 73.13 23.62 79.77 22.76 C 98.48 23.19 117.21 22.96 135.93 22.99 C 136.42 23.00 137.40 23.00 137.90 23.01 L 138.05 23.99 C 114.91 24.15 91.77 23.73 68.64 24.19 Z" />
</g>
<g id="#5cb0dfff">
<path fill="#5cb0df" opacity="1.00" d=" M 145.00 13.98 C 169.06 13.88 193.12 14.26 217.17 13.79 C 217.22 14.50 217.33 15.93 217.38 16.65 C 202.34 15.42 187.22 16.11 172.14 16.05 C 163.07 16.31 154.03 15.70 145.00 14.94 L 145.00 13.98 Z" />
</g>
<g id="#abcbe7ff">
<path fill="#abcbe7" opacity="1.00" d=" M 217.17 13.79 C 221.60 17.58 216.69 24.84 220.24 28.83 C 225.07 29.92 231.73 27.15 235.06 31.94 C 235.08 83.01 234.73 134.08 235.23 185.15 L 234.22 185.32 C 233.72 160.88 234.14 136.44 234.00 112.00 C 233.36 85.63 235.20 58.87 233.25 32.72 C 229.61 28.22 221.28 34.22 218.32 28.64 C 217.93 24.65 217.87 20.63 217.38 16.65 C 217.33 15.93 217.22 14.50 217.17 13.79 Z" />
</g>
<g id="#6564acff">
<path fill="#6564ac" opacity="1.00" d=" M 69.02 15.06 C 76.27 14.83 83.53 14.99 90.78 15.16 C 96.44 16.66 102.28 17.45 107.88 19.16 C 108.82 21.52 106.04 21.14 104.56 21.50 C 96.31 22.28 88.00 21.78 79.77 22.76 C 73.13 23.62 65.71 24.38 69.02 15.06 Z" />
</g>
<g id="#617ebdff">
<path fill="#617ebd" opacity="1.00" d=" M 90.78 15.16 C 104.11 14.87 117.45 14.94 130.78 15.12 C 133.61 16.60 141.05 19.87 135.93 22.99 C 117.21 22.96 98.48 23.19 79.77 22.76 C 88.00 21.78 96.31 22.28 104.56 21.50 C 106.04 21.14 108.82 21.52 107.88 19.16 C 102.28 17.45 96.44 16.66 90.78 15.16 Z" />
</g>
<g id="#5293cdff">
<path fill="#5293cd" opacity="1.00" d=" M 130.78 15.12 C 135.52 15.05 140.26 14.98 145.00 14.94 C 154.03 15.70 163.07 16.31 172.14 16.05 C 164.75 19.73 174.56 21.83 178.24 22.82 C 164.79 23.10 151.34 22.96 137.90 23.01 C 137.40 23.00 136.42 23.00 135.93 22.99 C 141.05 19.87 133.61 16.60 130.78 15.12 Z" />
</g>
<g id="#37a3dbff">
<path fill="#37a3db" opacity="1.00" d=" M 172.14 16.05 C 187.22 16.11 202.34 15.42 217.38 16.65 C 217.77 21.61 215.50 27.26 218.26 31.83 C 223.19 32.91 228.24 32.66 233.25 32.72 C 232.78 47.57 233.14 62.42 232.92 77.27 C 229.83 76.19 227.38 74.07 225.03 71.89 C 224.77 62.29 225.37 52.67 224.92 43.08 C 224.67 39.90 220.98 41.11 218.72 41.53 C 214.29 46.38 218.46 56.60 217.02 63.21 C 213.65 64.38 211.74 60.18 209.18 58.70 C 208.99 53.43 209.15 48.12 208.27 42.89 C 208.05 42.59 207.62 41.99 207.41 41.69 L 206.88 41.04 C 201.23 36.98 185.35 42.45 185.99 32.84 C 193.05 31.51 201.08 34.88 207.67 31.68 C 209.93 29.10 209.06 25.33 206.74 23.12 C 197.24 22.73 187.74 23.25 178.24 22.82 C 174.56 21.83 164.75 19.73 172.14 16.05 Z" />
</g>
<g id="#6fc5eaff">
<path fill="#6fc5ea" opacity="1.00" d=" M 217.38 16.65 C 217.87 20.63 217.93 24.65 218.32 28.64 C 221.28 34.22 229.61 28.22 233.25 32.72 C 228.24 32.66 223.19 32.91 218.26 31.83 C 215.50 27.26 217.77 21.61 217.38 16.65 Z" />
</g>
<g id="#7eb7dfff">
<path fill="#7eb7df" opacity="1.00" d=" M 137.90 23.01 C 151.34 22.96 164.79 23.10 178.24 22.82 C 187.74 23.25 197.24 22.73 206.74 23.12 C 209.06 25.33 209.93 29.10 207.67 31.68 C 201.08 34.88 193.05 31.51 185.99 32.84 C 174.80 31.67 163.38 33.99 152.11 32.82 C 150.44 32.42 148.75 32.11 147.05 31.89 L 146.99 30.97 C 166.95 30.85 186.93 31.27 206.89 30.90 L 206.99 29.97 L 207.06 28.99 C 207.07 28.25 207.09 26.77 207.10 26.03 C 206.88 25.68 206.43 24.99 206.21 24.64 C 183.55 23.10 160.76 24.46 138.05 23.99 L 137.90 23.01 Z" />
</g>
<g id="#a8c0e0ff">
<path fill="#a8c0e0" opacity="1.00" d=" M 68.64 24.19 C 91.77 23.73 114.91 24.15 138.05 23.99 C 160.76 24.46 183.55 23.10 206.21 24.64 C 160.49 25.48 114.74 24.74 69.01 25.03 L 68.64 24.19 Z" />
</g>
<g id="#c8d7ebff">
<path fill="#c8d7eb" opacity="1.00" d=" M 69.01 25.03 C 114.74 24.74 160.49 25.48 206.21 24.64 C 206.43 24.99 206.88 25.68 207.10 26.03 C 161.24 25.30 114.03 27.33 69.01 25.03 Z" />
</g>
<g id="#d1dbedff">
<path fill="#d1dbed" opacity="1.00" d=" M 68.92 29.90 C 69.45 29.67 70.50 29.22 71.03 29.00 C 116.37 28.97 161.72 29.03 207.06 28.99 L 206.99 29.97 C 162.59 30.18 118.19 29.70 73.80 30.22 C 72.17 30.10 70.54 29.99 68.92 29.90 Z" />
</g>
<g id="#9f9ecbff">
<path fill="#9f9ecb" opacity="1.00" d=" M 68.92 29.90 C 70.54 29.99 72.17 30.10 73.80 30.22 C 98.13 31.96 122.60 30.56 146.99 30.97 L 147.05 31.89 C 121.08 32.23 95.10 31.77 69.13 32.08 L 69.05 33.02 C 68.91 35.07 68.91 37.13 68.89 39.19 C 68.87 39.68 68.84 40.67 68.82 41.17 L 67.94 41.07 C 68.14 37.36 67.54 33.42 68.92 29.90 Z" />
</g>
<g id="#b1c3e1ff">
<path fill="#b1c3e1" opacity="1.00" d=" M 73.80 30.22 C 118.19 29.70 162.59 30.18 206.99 29.97 L 206.89 30.90 C 186.93 31.27 166.95 30.85 146.99 30.97 C 122.60 30.56 98.13 31.96 73.80 30.22 Z" />
</g>
<g id="#8185beff">
<path fill="#8185be" opacity="1.00" d=" M 69.13 32.08 C 95.10 31.77 121.08 32.23 147.05 31.89 C 148.75 32.11 150.44 32.42 152.11 32.82 L 151.01 32.86 C 135.61 33.18 120.21 32.86 104.81 33.07 C 92.89 32.95 80.97 32.98 69.05 33.02 L 69.13 32.08 Z" />
</g>
<g id="#5594cdff">
<path fill="#5594cd" opacity="1.00" d=" M 152.11 32.82 C 163.38 33.99 174.80 31.67 185.99 32.84 C 185.35 42.45 201.23 36.98 206.88 41.04 C 189.66 40.84 172.43 41.22 155.21 40.84 C 152.71 40.36 150.24 39.89 147.76 39.35 C 150.19 38.56 152.61 37.74 154.96 36.73 C 154.66 34.70 152.34 34.11 151.01 32.86 L 152.11 32.82 Z" />
</g>
<g id="#d8e3f1ff">
<path fill="#d8e3f1" opacity="1.00" d=" M 235.06 31.94 C 237.23 34.02 234.92 37.68 236.07 39.98 C 235.39 88.35 237.08 136.86 235.23 185.15 C 234.73 134.08 235.08 83.01 235.06 31.94 Z" />
</g>
<g id="#6851a2ff">
<path fill="#6851a2" opacity="1.00" d=" M 69.05 33.02 C 80.97 32.98 92.89 32.95 104.81 33.07 C 106.97 34.11 109.08 35.28 111.03 36.67 C 107.60 37.68 104.17 38.72 100.76 39.82 C 90.14 40.01 79.45 40.60 68.89 39.19 C 68.91 37.13 68.91 35.07 69.05 33.02 Z" />
</g>
<g id="#5d73b7ff">
<path fill="#5d73b7" opacity="1.00" d=" M 104.81 33.07 C 120.21 32.86 135.61 33.18 151.01 32.86 C 152.34 34.11 154.66 34.70 154.96 36.73 C 152.61 37.74 150.19 38.56 147.76 39.35 C 132.09 38.42 116.42 39.32 100.76 39.82 C 104.17 38.72 107.60 37.68 111.03 36.67 C 109.08 35.28 106.97 34.11 104.81 33.07 Z" />
</g>
<g id="#74b7e0ff">
<path fill="#74b7e0" opacity="1.00" d=" M 233.25 32.72 C 235.20 58.87 233.36 85.63 234.00 112.00 L 233.02 112.00 C 232.99 110.37 232.98 108.74 232.94 107.11 C 232.95 97.17 233.13 87.22 232.92 77.27 C 233.14 62.42 232.78 47.57 233.25 32.72 Z" />
</g>
<g id="#7a7fbcff">
<path fill="#7a7fbc" opacity="1.00" d=" M 68.89 39.19 C 79.45 40.60 90.14 40.01 100.76 39.82 C 116.42 39.32 132.09 38.42 147.76 39.35 C 150.24 39.89 152.71 40.36 155.21 40.84 C 126.42 41.31 97.62 40.67 68.82 41.17 C 68.84 40.67 68.87 39.68 68.89 39.19 Z" />
</g>
<g id="#c2cbe4ff">
<path fill="#c2cbe4" opacity="1.00" d=" M 67.94 41.07 L 68.82 41.17 C 114.94 42.89 161.24 41.87 207.41 41.69 C 207.62 41.99 208.05 42.59 208.27 42.89 C 207.73 66.59 208.09 90.30 208.01 114.01 C 208.09 137.57 207.81 161.15 208.11 184.71 C 210.13 187.39 214.05 185.64 216.95 186.12 C 213.96 187.58 206.73 188.91 206.98 184.00 C 206.94 137.04 207.13 90.08 206.91 43.12 C 206.18 43.07 204.70 42.98 203.96 42.94 C 158.62 43.04 113.29 43.04 67.95 42.95 L 67.92 42.00 L 67.94 41.07 Z" />
</g>
<g id="#a0afd6ff">
<path fill="#a0afd6" opacity="1.00" d=" M 68.82 41.17 C 97.62 40.67 126.42 41.31 155.21 40.84 C 172.43 41.22 189.66 40.84 206.88 41.04 L 207.41 41.69 C 161.24 41.87 114.94 42.89 68.82 41.17 Z" />
</g>
<g id="#81b8dfff">
<path fill="#81b8df" opacity="1.00" d=" M 218.72 41.53 C 220.98 41.11 224.67 39.90 224.92 43.08 C 225.37 52.67 224.77 62.29 225.03 71.89 C 225.00 82.22 224.99 92.55 224.97 102.89 C 224.93 107.92 225.04 112.97 224.99 118.01 L 224.01 117.99 C 223.29 92.88 225.25 67.46 223.30 42.52 C 221.79 42.09 220.25 41.81 218.72 41.53 Z" />
</g>
<g id="#87b4dcff">
<path fill="#87b4dc" opacity="1.00" d=" M 217.02 63.21 C 218.46 56.60 214.29 46.38 218.72 41.53 C 217.06 68.96 218.47 96.51 217.99 123.99 L 217.01 124.01 C 216.93 115.72 217.10 107.43 216.93 99.14 C 216.99 87.16 217.03 75.18 217.02 63.21 Z" />
</g>
<g id="#b8c8e3ff">
<path fill="#b8c8e3" opacity="1.00" d=" M 218.72 41.53 C 220.25 41.81 221.79 42.09 223.30 42.52 C 221.62 42.93 218.66 43.27 219.25 45.70 C 218.64 92.08 219.22 138.47 218.96 184.86 L 218.23 185.33 C 217.74 164.88 218.13 144.43 217.99 123.99 C 218.47 96.51 217.06 68.96 218.72 41.53 Z" />
</g>
<g id="#78a9d6ff">
<path fill="#78a9d6" opacity="1.00" d=" M 208.27 42.89 C 209.15 48.12 208.99 53.43 209.18 58.70 C 208.95 70.05 208.90 81.41 209.06 92.76 C 208.97 99.84 209.04 106.92 208.99 114.00 L 208.01 114.01 C 208.09 90.30 207.73 66.59 208.27 42.89 Z" />
</g>
<g id="#c7d3e9ff">
<path fill="#c7d3e9" opacity="1.00" d=" M 223.30 42.52 C 225.25 67.46 223.29 92.88 224.01 117.99 C 224.49 140.45 223.02 163.14 224.68 185.47 C 227.84 186.03 231.10 186.17 234.22 185.32 L 235.23 185.15 C 232.89 188.56 225.91 187.86 223.14 185.77 C 222.97 138.04 222.73 90.26 223.30 42.52 Z" />
</g>
<g id="#d7dfefff">
<path fill="#d7dfef" opacity="1.00" d=" M 219.25 45.70 C 220.39 91.81 220.83 139.27 218.96 184.86 C 219.22 138.47 218.64 92.08 219.25 45.70 Z" />
</g>
<g id="#c1c1dfff">
<path fill="#c1c1df" opacity="1.00" d=" M 73.97 100.99 C 78.15 73.95 107.25 53.09 134.32 58.69 C 140.72 62.00 150.18 61.50 154.02 68.38 C 138.77 58.34 116.80 56.15 101.15 66.09 C 97.87 67.25 94.90 69.14 92.81 71.96 C 91.44 73.17 90.13 74.44 88.87 75.76 C 87.30 77.22 85.80 78.78 84.83 80.72 C 68.46 99.23 77.14 126.73 75.01 149.03 C 74.83 160.76 75.32 172.51 74.77 184.24 L 73.94 183.84 C 74.04 156.22 74.02 128.61 73.97 100.99 Z" />
</g>
<g id="#4a8ecbff">
<path fill="#4a8ecb" opacity="1.00" d=" M 209.18 58.70 C 211.74 60.18 213.65 64.38 217.02 63.21 C 217.03 75.18 216.99 87.16 216.93 99.14 C 214.39 96.93 212.83 92.96 209.06 92.76 C 208.90 81.41 208.95 70.05 209.18 58.70 Z" />
</g>
<g id="#9d7dbaff">
<path fill="#9d7dba" opacity="1.00" d=" M 101.15 66.09 C 116.80 56.15 138.77 58.34 154.02 68.38 L 153.70 69.35 C 137.97 59.38 118.15 60.08 101.15 66.09 Z" />
</g>
<g id="#65459bff">
<path fill="#65459b" opacity="1.00" d=" M 101.15 66.09 C 118.15 60.08 137.97 59.38 153.70 69.35 C 156.17 71.47 158.82 73.41 161.09 75.76 C 162.18 80.33 165.61 84.08 166.05 88.81 C 154.73 93.13 142.62 89.14 132.51 83.52 C 131.35 82.73 129.93 83.55 128.68 83.61 C 126.22 83.67 123.76 83.69 121.31 83.65 C 115.66 82.59 110.61 86.79 105.34 88.34 C 98.62 89.55 91.67 88.97 84.87 88.93 C 85.60 84.37 87.74 80.21 88.87 75.76 C 90.13 74.44 91.44 73.17 92.81 71.96 C 95.95 70.66 99.20 69.00 101.15 66.09 Z" />
</g>
<g id="#f2f6fbff">
<path fill="#f2f6fb" opacity="1.00" d=" M 14.98 67.02 C 14.83 59.51 25.39 64.34 29.64 64.60 C 33.74 62.86 43.79 60.02 43.08 67.01 C 39.93 64.48 33.43 63.13 31.63 67.56 C 31.44 67.90 31.05 68.59 30.86 68.93 C 28.79 113.83 30.68 158.98 29.94 203.98 C 29.22 203.98 27.78 203.98 27.06 203.98 C 26.86 158.99 27.12 113.99 26.97 69.01 C 27.30 62.67 18.31 64.09 14.98 67.02 Z" />
</g>
<g id="#cddbedff">
<path fill="#cddbed" opacity="1.00" d=" M 14.98 67.02 C 18.31 64.09 27.30 62.67 26.97 69.01 C 27.12 113.99 26.86 158.99 27.06 203.98 C 27.78 203.98 29.22 203.98 29.94 203.98 C 30.68 158.98 28.79 113.83 30.86 68.93 C 31.32 114.03 30.63 159.14 31.21 204.23 C 29.97 205.33 26.90 207.26 26.25 204.66 C 25.60 181.78 26.22 158.88 25.99 135.99 C 25.24 113.52 27.45 89.54 25.07 67.89 C 22.58 66.65 19.34 66.35 16.96 67.93 C 14.70 96.10 16.65 126.12 16.00 155.01 C 15.99 175.59 15.98 196.17 16.02 216.76 L 15.12 217.13 C 14.83 167.10 15.10 117.06 14.98 67.02 Z" />
</g>
<g id="#b2d0e9ff">
<path fill="#b2d0e9" opacity="1.00" d=" M 31.63 67.56 C 33.43 63.13 39.93 64.48 43.08 67.01 C 42.92 111.00 43.02 155.00 43.02 198.99 C 42.91 200.81 42.72 202.64 42.52 204.46 L 41.84 203.81 C 42.16 182.52 41.96 161.23 41.98 139.94 C 41.91 116.03 42.20 92.12 41.88 68.22 C 39.48 65.29 34.88 67.43 31.63 67.56 Z" />
</g>
<g id="#987db9ff">
<path fill="#987db9" opacity="1.00" d=" M 92.81 71.96 C 94.90 69.14 97.87 67.25 101.15 66.09 C 99.20 69.00 95.95 70.66 92.81 71.96 Z" />
</g>
<g id="#3ba1d8ff">
<path fill="#3ba1d8" opacity="1.00" d=" M 16.96 67.93 C 19.34 66.35 22.58 66.65 25.07 67.89 C 24.94 81.32 25.07 94.75 24.93 108.18 C 22.31 106.38 19.79 104.43 17.12 102.71 C 16.91 91.12 17.02 79.53 16.96 67.93 Z" />
</g>
<g id="#76bbe2ff">
<path fill="#76bbe2" opacity="1.00" d=" M 31.63 67.56 C 34.88 67.43 39.48 65.29 41.88 68.22 C 42.20 92.12 41.91 116.03 41.98 139.94 L 40.96 140.14 C 41.03 131.18 41.06 122.22 40.87 113.26 C 41.02 99.18 41.09 85.09 41.02 71.00 C 41.63 66.91 34.71 66.34 33.19 69.33 C 32.72 81.51 33.05 93.70 33.03 105.88 C 33.01 116.19 32.99 126.51 33.00 136.83 L 32.03 137.05 C 31.70 113.89 32.53 90.71 31.63 67.56 Z" />
</g>
<g id="#91bbdfff">
<path fill="#91bbdf" opacity="1.00" d=" M 16.00 155.01 C 16.65 126.12 14.70 96.10 16.96 67.93 C 17.02 79.53 16.91 91.12 17.12 102.71 C 16.90 116.16 17.03 129.62 16.99 143.07 C 16.98 147.04 16.98 151.02 16.99 154.99 L 16.00 155.01 Z" />
</g>
<g id="#80bbe1ff">
<path fill="#80bbe1" opacity="1.00" d=" M 25.07 67.89 C 27.45 89.54 25.24 113.52 25.99 135.99 L 25.01 136.01 C 24.97 126.73 25.06 117.45 24.93 108.18 C 25.07 94.75 24.94 81.32 25.07 67.89 Z" />
</g>
<g id="#b5cce6ff">
<path fill="#b5cce6" opacity="1.00" d=" M 30.86 68.93 C 31.05 68.59 31.44 67.90 31.63 67.56 C 32.53 90.71 31.70 113.89 32.03 137.05 C 31.34 159.38 33.19 182.17 31.21 204.23 C 30.63 159.14 31.32 114.03 30.86 68.93 Z" />
</g>
<g id="#34a4dbff">
<path fill="#34a4db" opacity="1.00" d=" M 33.19 69.33 C 34.71 66.34 41.63 66.91 41.02 71.00 C 41.09 85.09 41.02 99.18 40.87 113.26 C 37.86 111.27 35.04 108.90 33.03 105.88 C 33.05 93.70 32.72 81.51 33.19 69.33 Z" />
</g>
<g id="#b7b2d6ff">
<path fill="#b7b2d6" opacity="1.00" d=" M 154.02 68.38 C 160.91 70.44 166.02 78.98 170.24 84.84 C 178.55 97.43 175.60 112.66 176.05 126.85 L 175.24 127.20 C 174.45 118.15 176.11 108.72 174.08 99.87 C 171.10 91.23 168.40 81.95 161.09 75.76 C 158.82 73.41 156.17 71.47 153.70 69.35 L 154.02 68.38 Z" />
</g>
<g id="#4890ccff">
<path fill="#4890cc" opacity="1.00" d=" M 225.03 71.89 C 227.38 74.07 229.83 76.19 232.92 77.27 C 233.13 87.22 232.95 97.17 232.94 107.11 C 230.44 105.61 228.33 100.59 224.97 102.89 C 224.99 92.55 225.00 82.22 225.03 71.89 Z" />
</g>
<g id="#635ba7ff">
<path fill="#635ba7" opacity="1.00" d=" M 84.83 80.72 C 85.80 78.78 87.30 77.22 88.87 75.76 C 87.74 80.21 85.60 84.37 84.87 88.93 C 91.67 88.97 98.62 89.55 105.34 88.34 C 110.61 86.79 115.66 82.59 121.31 83.65 C 119.47 84.69 117.64 85.76 115.77 86.73 C 108.49 89.65 103.11 95.84 99.99 102.90 C 97.10 111.87 83.35 104.99 76.01 106.99 C 76.50 97.57 80.85 89.06 84.83 80.72 Z" />
</g>
<g id="#645ca8ff">
<path fill="#645ca8" opacity="1.00" d=" M 161.09 75.76 C 168.40 81.95 171.10 91.23 174.08 99.87 C 174.06 101.65 174.02 105.21 174.00 106.99 C 166.36 107.00 158.73 107.01 151.09 106.99 C 150.90 106.42 150.51 105.27 150.31 104.70 C 148.03 96.63 141.81 90.11 134.24 86.74 C 132.36 85.74 130.52 84.67 128.68 83.61 C 129.93 83.55 131.35 82.73 132.51 83.52 C 142.62 89.14 154.73 93.13 166.05 88.81 C 165.61 84.08 162.18 80.33 161.09 75.76 Z" />
</g>
<g id="#8690c5ff">
<path fill="#8690c5" opacity="1.00" d=" M 75.01 149.03 C 77.14 126.73 68.46 99.23 84.83 80.72 C 80.85 89.06 76.50 97.57 76.01 106.99 C 75.87 113.67 75.95 120.36 76.01 127.05 C 75.99 133.70 75.97 140.35 76.02 147.00 C 76.01 147.49 76.00 148.48 75.99 148.98 L 75.01 149.03 Z" />
</g>
<g id="#8f80bbff">
<path fill="#8f80bb" opacity="1.00" d=" M 115.77 86.73 C 117.64 85.76 119.47 84.69 121.31 83.65 C 123.76 83.69 126.22 83.67 128.68 83.61 C 130.52 84.67 132.36 85.74 134.24 86.74 C 128.09 86.23 121.89 85.80 115.77 86.73 Z" />
</g>
<g id="#aaafd5ff">
<path fill="#aaafd5" opacity="1.00" d=" M 115.77 86.73 C 121.89 85.80 128.09 86.23 134.24 86.74 C 141.81 90.11 148.03 96.63 150.31 104.70 C 150.09 112.19 149.91 119.67 149.75 127.16 C 146.97 119.38 152.07 109.66 147.30 102.70 C 141.55 84.76 114.68 81.77 104.95 97.85 C 98.99 105.23 101.43 115.24 100.97 124.00 C 100.99 137.00 101.05 150.01 100.99 163.01 L 99.99 162.99 C 99.99 156.59 99.96 150.20 99.93 143.81 C 99.99 133.46 100.22 123.11 99.78 112.77 C 99.86 109.47 99.88 106.19 99.99 102.90 C 103.11 95.84 108.49 89.65 115.77 86.73 Z" />
</g>
<g id="#5879bbff">
<path fill="#5879bb" opacity="1.00" d=" M 209.06 92.76 C 212.83 92.96 214.39 96.93 216.93 99.14 C 217.10 107.43 216.93 115.72 217.01 124.01 C 217.01 131.74 216.96 139.47 216.79 147.21 C 215.43 141.17 219.62 125.17 208.96 126.82 C 208.94 122.54 209.01 118.27 208.99 114.00 C 209.04 106.92 208.97 99.84 209.06 92.76 Z" />
</g>
<g id="#d5e1f0ff">
<path fill="#d5e1f0" opacity="1.00" d=" M 100.97 124.00 C 101.43 115.24 98.99 105.23 104.95 97.85 C 105.57 100.75 103.97 103.17 102.43 105.44 C 100.80 131.81 103.50 159.82 101.12 185.23 C 101.01 177.82 101.01 170.42 100.99 163.01 C 101.05 150.01 100.99 137.00 100.97 124.00 Z" />
</g>
<g id="#7989c2ff">
<path fill="#7989c2" opacity="1.00" d=" M 174.08 99.87 C 176.11 108.72 174.45 118.15 175.24 127.20 C 166.74 126.93 158.24 126.86 149.75 127.16 C 149.91 119.67 150.09 112.19 150.31 104.70 C 150.51 105.27 150.90 106.42 151.09 106.99 C 151.12 113.30 150.69 119.62 151.10 125.93 C 158.70 126.03 166.33 126.33 173.93 125.89 C 174.10 119.59 174.03 113.29 174.00 106.99 C 174.02 105.21 174.06 101.65 174.08 99.87 Z" />
</g>
<g id="#e4edf6ff">
<path fill="#e4edf6" opacity="1.00" d=" M 73.04 101.05 L 73.97 100.99 C 74.02 128.61 74.04 156.22 73.94 183.84 L 73.02 184.03 C 73.01 156.37 72.93 128.70 73.04 101.05 Z" />
</g>
<g id="#547ebfff">
<path fill="#547ebf" opacity="1.00" d=" M 224.97 102.89 C 228.33 100.59 230.44 105.61 232.94 107.11 C 232.98 108.74 232.99 110.37 233.02 112.00 C 233.00 119.73 232.97 127.46 232.89 135.19 C 230.80 132.32 229.20 127.25 224.95 129.85 C 224.96 125.90 224.98 121.96 224.99 118.01 C 225.04 112.97 224.93 107.92 224.97 102.89 Z" />
</g>
<g id="#4e89c7ff">
<path fill="#4e89c7" opacity="1.00" d=" M 17.12 102.71 C 19.79 104.43 22.31 106.38 24.93 108.18 C 25.06 117.45 24.97 126.73 25.01 136.01 C 24.98 139.39 24.96 142.80 24.93 146.19 C 22.77 144.05 19.60 138.29 16.99 143.07 C 17.03 129.62 16.90 116.16 17.12 102.71 Z" />
</g>
<g id="#596bb2ff">
<path fill="#596bb2" opacity="1.00" d=" M 76.01 106.99 C 83.35 104.99 97.10 111.87 99.99 102.90 C 99.88 106.19 99.86 109.47 99.78 112.77 C 99.37 117.81 99.03 122.86 98.76 127.92 C 91.20 127.94 83.45 128.72 76.01 127.05 C 75.95 120.36 75.87 113.67 76.01 106.99 Z" />
<path fill="#596bb2" opacity="1.00" d=" M 151.09 106.99 C 158.73 107.01 166.36 107.00 174.00 106.99 C 174.03 113.29 174.10 119.59 173.93 125.89 C 166.33 126.33 158.70 126.03 151.10 125.93 C 150.69 119.62 151.12 113.30 151.09 106.99 Z" />
</g>
<g id="#dde4f1ff">
<path fill="#dde4f1" opacity="1.00" d=" M 147.30 102.70 C 152.07 109.66 146.97 119.38 149.75 127.16 C 154.77 130.60 169.36 130.18 175.24 127.20 L 176.05 126.85 C 177.01 130.39 170.39 131.25 174.87 134.10 C 164.15 133.76 153.38 134.59 142.70 133.36 C 145.82 133.16 148.97 133.12 152.10 132.88 C 144.11 124.96 149.89 112.71 147.30 102.70 Z" />
</g>
<g id="#4891cdff">
<path fill="#4891cd" opacity="1.00" d=" M 33.03 105.88 C 35.04 108.90 37.86 111.27 40.87 113.26 C 41.06 122.22 41.03 131.18 40.96 140.14 C 40.93 140.68 40.89 141.74 40.87 142.28 C 38.47 140.41 36.37 137.76 33.04 137.77 L 33.00 136.83 C 32.99 126.51 33.01 116.19 33.03 105.88 Z" />
</g>
<g id="#8e94c7ff">
<path fill="#8e94c7" opacity="1.00" d=" M 233.02 112.00 L 234.00 112.00 C 234.14 136.44 233.72 160.88 234.22 185.32 C 231.10 186.17 227.84 186.03 224.68 185.47 C 239.35 188.68 230.94 169.79 232.86 162.24 C 233.00 153.22 233.08 144.20 232.89 135.19 C 232.97 127.46 233.00 119.73 233.02 112.00 Z" />
</g>
<g id="#537ebfff">
<path fill="#537ebf" opacity="1.00" d=" M 98.76 127.92 C 99.03 122.86 99.37 117.81 99.78 112.77 C 100.22 123.11 99.99 133.46 99.93 143.81 C 95.95 151.23 83.33 145.17 76.02 147.00 C 75.97 140.35 75.99 133.70 76.01 127.05 C 83.45 128.72 91.20 127.94 98.76 127.92 Z" />
</g>
<g id="#918ac1ff">
<path fill="#918ac1" opacity="1.00" d=" M 208.01 114.01 L 208.99 114.00 C 209.01 118.27 208.94 122.54 208.96 126.82 C 208.97 136.50 209.00 146.18 208.97 155.87 C 209.01 164.88 208.80 173.91 209.04 182.93 C 209.20 186.05 215.24 186.41 216.25 184.23 C 217.84 171.97 216.82 159.53 216.79 147.21 C 216.96 139.47 217.01 131.74 217.01 124.01 L 217.99 123.99 C 218.13 144.43 217.74 164.88 218.23 185.33 C 217.91 185.52 217.27 185.92 216.95 186.12 C 214.05 185.64 210.13 187.39 208.11 184.71 C 207.81 161.15 208.09 137.57 208.01 114.01 Z" />
</g>
<g id="#9596c7ff">
<path fill="#9596c7" opacity="1.00" d=" M 224.01 117.99 L 224.99 118.01 C 224.98 121.96 224.96 125.90 224.95 129.85 C 224.96 139.25 225.02 148.64 224.99 158.04 C 224.99 167.18 225.07 176.33 224.68 185.47 C 223.02 163.14 224.49 140.45 224.01 117.99 Z" />
</g>
<g id="#6161abff">
<path fill="#6161ab" opacity="1.00" d=" M 208.96 126.82 C 219.62 125.17 215.43 141.17 216.79 147.21 C 216.82 159.53 217.84 171.97 216.25 184.23 C 215.96 175.27 216.26 166.29 215.75 157.35 C 213.80 155.70 211.42 154.35 208.97 155.87 C 209.00 146.18 208.97 136.50 208.96 126.82 Z" />
</g>
<g id="#a0b1d7ff">
<path fill="#a0b1d7" opacity="1.00" d=" M 149.75 127.16 C 158.24 126.86 166.74 126.93 175.24 127.20 C 169.36 130.18 154.77 130.60 149.75 127.16 Z" />
</g>
<g id="#5c6bb1ff">
<path fill="#5c6bb1" opacity="1.00" d=" M 224.95 129.85 C 229.20 127.25 230.80 132.32 232.89 135.19 C 233.08 144.20 233.00 153.22 232.86 162.24 C 230.59 158.80 228.82 152.01 224.99 158.04 C 225.02 148.64 224.96 139.25 224.95 129.85 Z" />
</g>
<g id="#bad4ebff">
<path fill="#bad4eb" opacity="1.00" d=" M 108.21 133.10 C 119.69 133.23 131.25 132.33 142.70 133.36 C 153.38 134.59 164.15 133.76 174.87 134.10 C 177.49 150.60 175.39 168.71 175.89 185.79 C 168.77 188.18 155.79 187.43 150.24 185.97 C 158.19 185.30 166.62 187.47 174.36 185.28 C 174.93 168.99 176.17 151.60 174.29 135.69 C 152.66 134.10 130.08 135.35 108.09 135.07 C 108.06 135.55 108.01 136.52 107.99 137.00 C 107.91 140.36 107.96 143.74 107.99 147.11 C 107.94 151.07 107.94 155.03 107.99 158.99 C 108.02 159.48 108.08 160.45 108.10 160.94 C 121.42 161.67 135.37 159.90 148.30 161.70 C 149.90 168.92 148.67 177.13 149.02 184.75 C 146.60 180.31 148.79 169.78 147.94 163.05 C 135.32 162.71 122.68 163.35 110.07 162.89 C 104.07 162.00 106.58 154.05 105.95 150.01 C 106.69 144.53 104.09 137.72 108.21 133.10 Z" />
</g>
<g id="#80a7d4ff">
<path fill="#80a7d4" opacity="1.00" d=" M 108.09 135.07 C 130.08 135.35 152.66 134.10 174.29 135.69 C 176.17 151.60 174.93 168.99 174.36 185.28 C 174.02 178.18 174.01 171.09 173.98 164.00 C 174.00 158.66 174.05 153.34 173.99 148.01 C 173.97 145.28 173.94 139.82 173.92 137.09 C 151.94 136.83 129.96 137.09 107.99 137.00 C 108.01 136.52 108.06 135.55 108.09 135.07 Z" />
</g>
<g id="#939bcbff">
<path fill="#939bcb" opacity="1.00" d=" M 25.01 136.01 L 25.99 135.99 C 26.22 158.88 25.60 181.78 26.25 204.66 C 26.90 207.26 29.97 205.33 31.21 204.23 C 33.19 182.17 31.34 159.38 32.03 137.05 L 33.00 136.83 L 33.04 137.77 C 33.01 149.60 32.86 161.42 33.17 173.25 C 33.01 183.26 32.67 193.30 33.34 203.30 C 33.45 207.82 27.26 210.05 25.20 205.65 C 24.82 198.51 25.03 191.35 24.87 184.21 C 25.02 171.53 25.09 158.86 24.93 146.19 C 24.96 142.80 24.98 139.39 25.01 136.01 Z" />
</g>
<g id="#5082c2ff">
<path fill="#5082c2" opacity="1.00" d=" M 107.99 137.00 C 129.96 137.09 151.94 136.83 173.92 137.09 C 173.94 139.82 173.97 145.28 173.99 148.01 C 152.09 145.64 129.93 147.71 107.99 147.11 C 107.96 143.74 107.91 140.36 107.99 137.00 Z" />
</g>
<g id="#557ebfff">
<path fill="#557ebf" opacity="1.00" d=" M 33.04 137.77 C 36.37 137.76 38.47 140.41 40.87 142.28 C 41.06 151.93 41.05 161.59 40.91 171.25 C 38.91 169.53 37.85 166.41 35.08 165.86 C 34.15 168.23 33.78 170.77 33.17 173.25 C 32.86 161.42 33.01 149.60 33.04 137.77 Z" />
</g>
<g id="#8397c9ff">
<path fill="#8397c9" opacity="1.00" d=" M 40.96 140.14 L 41.98 139.94 C 41.96 161.23 42.16 182.52 41.84 203.81 L 40.93 204.05 C 40.92 202.75 40.90 201.44 40.89 200.14 C 40.99 190.51 41.12 180.88 40.91 171.25 C 41.05 161.59 41.06 151.93 40.87 142.28 C 40.89 141.74 40.93 140.68 40.96 140.14 Z" />
</g>
<g id="#5c6fb4ff">
<path fill="#5c6fb4" opacity="1.00" d=" M 16.99 143.07 C 19.60 138.29 22.77 144.05 24.93 146.19 C 25.09 158.86 25.02 171.53 24.87 184.21 C 22.92 182.11 22.65 176.77 19.27 177.14 C 18.39 179.11 17.81 181.18 17.18 183.24 C 16.99 173.82 17.01 164.41 16.99 154.99 C 16.98 151.02 16.98 147.04 16.99 143.07 Z" />
</g>
<g id="#478fccff">
<path fill="#478fcc" opacity="1.00" d=" M 76.02 147.00 C 83.33 145.17 95.95 151.23 99.93 143.81 C 99.96 150.20 99.99 156.59 99.99 162.99 C 99.97 164.79 99.92 168.40 99.89 170.20 C 98.89 159.73 83.61 167.01 76.01 165.00 C 75.98 159.65 76.01 154.32 75.99 148.98 C 76.00 148.48 76.01 147.49 76.02 147.00 Z" />
</g>
<g id="#488ecaff">
<path fill="#488eca" opacity="1.00" d=" M 107.99 147.11 C 129.93 147.71 152.09 145.64 173.99 148.01 C 174.05 153.34 174.00 158.66 173.98 164.00 C 166.78 166.25 154.69 159.43 150.08 167.12 C 150.19 164.13 150.52 160.84 147.68 159.17 C 134.45 158.72 121.22 159.11 107.99 158.99 C 107.94 155.03 107.94 151.07 107.99 147.11 Z" />
</g>
<g id="#73bfe5ff">
<path fill="#73bfe5" opacity="1.00" d=" M 75.01 149.03 L 75.99 148.98 C 76.01 154.32 75.98 159.65 76.01 165.00 C 77.25 171.61 70.86 189.32 84.02 184.26 C 89.28 183.32 94.69 185.05 99.89 183.91 C 100.02 179.34 100.08 174.77 99.89 170.20 C 99.92 168.40 99.97 164.79 99.99 162.99 L 100.99 163.01 C 101.01 170.42 101.01 177.82 101.12 185.23 C 92.85 185.22 81.41 188.51 74.77 184.24 C 75.32 172.51 74.83 160.76 75.01 149.03 Z" />
</g>
<g id="#a095c6ff">
<path fill="#a095c6" opacity="1.00" d=" M 16.00 155.01 L 16.99 154.99 C 17.01 164.41 16.99 173.82 17.18 183.24 C 16.99 194.12 16.76 205.02 17.09 215.91 C 21.95 217.27 29.32 213.44 32.79 218.33 C 33.06 222.85 32.79 227.41 33.15 231.93 C 41.68 232.18 50.21 232.05 58.74 231.76 C 72.09 232.05 85.45 232.15 98.80 231.90 C 102.53 231.91 106.27 231.99 110.00 232.03 L 110.00 233.01 C 97.58 233.23 85.11 232.36 72.72 233.66 C 59.57 234.00 46.36 234.40 33.21 233.84 C 29.83 229.46 31.82 223.19 30.82 218.09 C 26.29 217.94 21.76 217.99 17.24 217.96 C 16.93 217.66 16.33 217.06 16.02 216.76 C 15.98 196.17 15.99 175.59 16.00 155.01 Z" />
</g>
<g id="#64479cff">
<path fill="#64479c" opacity="1.00" d=" M 208.97 155.87 C 211.42 154.35 213.80 155.70 215.75 157.35 C 216.26 166.29 215.96 175.27 216.25 184.23 C 215.24 186.41 209.20 186.05 209.04 182.93 C 208.80 173.91 209.01 164.88 208.97 155.87 Z" />
</g>
<g id="#6455a3ff">
<path fill="#6455a3" opacity="1.00" d=" M 224.99 158.04 C 228.82 152.01 230.59 158.80 232.86 162.24 C 230.94 169.79 239.35 188.68 224.68 185.47 C 225.07 176.33 224.99 167.18 224.99 158.04 Z" />
</g>
<g id="#87bfe3ff">
<path fill="#87bfe3" opacity="1.00" d=" M 107.99 158.99 C 121.22 159.11 134.45 158.72 147.68 159.17 C 150.52 160.84 150.19 164.13 150.08 167.12 C 150.79 172.57 148.53 179.36 150.69 184.32 C 158.22 185.81 166.52 184.61 174.36 185.28 C 166.62 187.47 158.19 185.30 150.24 185.97 C 149.94 185.66 149.32 185.06 149.02 184.75 C 148.67 177.13 149.90 168.92 148.30 161.70 C 135.37 159.90 121.42 161.67 108.10 160.94 C 108.08 160.45 108.02 159.48 107.99 158.99 Z" />
</g>
<g id="#35a1d9ff">
<path fill="#35a1d9" opacity="1.00" d=" M 150.08 167.12 C 154.69 159.43 166.78 166.25 173.98 164.00 C 174.01 171.09 174.02 178.18 174.36 185.28 C 166.52 184.61 158.22 185.81 150.69 184.32 C 148.53 179.36 150.79 172.57 150.08 167.12 Z" />
</g>
<g id="#33a0d9ff">
<path fill="#33a0d9" opacity="1.00" d=" M 76.01 165.00 C 83.61 167.01 98.89 159.73 99.89 170.20 C 100.08 174.77 100.02 179.34 99.89 183.91 C 94.69 185.05 89.28 183.32 84.02 184.26 C 70.86 189.32 77.25 171.61 76.01 165.00 Z" />
</g>
<g id="#5e6ab0ff">
<path fill="#5e6ab0" opacity="1.00" d=" M 35.08 165.86 C 37.85 166.41 38.91 169.53 40.91 171.25 C 41.12 180.88 40.99 190.51 40.89 200.14 C 38.60 198.14 37.26 194.86 34.31 193.70 C 34.00 196.86 34.17 200.19 33.34 203.30 C 32.67 193.30 33.01 183.26 33.17 173.25 C 33.78 170.77 34.15 168.23 35.08 165.86 Z" />
</g>
<g id="#6751a2ff">
<path fill="#6751a2" opacity="1.00" d=" M 19.27 177.14 C 22.65 176.77 22.92 182.11 24.87 184.21 C 25.03 191.35 24.82 198.51 25.20 205.65 C 27.26 210.05 33.45 207.82 33.34 203.30 C 34.17 200.19 34.00 196.86 34.31 193.70 C 37.26 194.86 38.60 198.14 40.89 200.14 C 40.90 201.44 40.92 202.75 40.93 204.05 C 38.93 211.92 50.67 207.38 53.11 211.93 C 49.99 213.68 44.97 212.55 43.00 216.01 L 42.80 216.93 L 42.62 217.88 C 41.89 220.07 41.99 222.12 42.93 224.04 C 49.26 226.23 57.71 224.44 64.83 225.07 C 66.37 226.18 68.62 226.76 69.23 228.78 C 65.74 229.81 62.23 230.75 58.74 231.76 C 50.21 232.05 41.68 232.18 33.15 231.93 C 32.79 227.41 33.06 222.85 32.79 218.33 C 29.32 213.44 21.95 217.27 17.09 215.91 C 16.76 205.02 16.99 194.12 17.18 183.24 C 17.81 181.18 18.39 179.11 19.27 177.14 Z" />
</g>
<g id="#ccebf8ff">
<path fill="#ccebf8" opacity="1.00" d=" M 73.94 183.84 L 74.77 184.24 C 81.41 188.51 92.85 185.22 101.12 185.23 C 98.90 191.10 88.75 186.46 84.00 188.07 C 80.93 187.61 72.56 189.96 73.94 183.84 Z" />
</g>
<g id="#dbe7f4ff">
<path fill="#dbe7f4" opacity="1.00" d=" M 43.02 198.99 C 44.52 200.24 47.51 202.76 49.01 204.01 C 91.67 204.05 134.33 203.90 176.99 204.06 L 176.94 205.02 C 132.33 204.99 87.72 204.98 43.11 205.03 L 42.52 204.46 C 42.72 202.64 42.91 200.81 43.02 198.99 Z" />
</g>
<g id="#656db2ff">
<path fill="#656db2" opacity="1.00" d=" M 40.93 204.05 L 41.84 203.81 C 42.12 205.24 42.09 206.86 43.26 207.92 C 52.43 208.18 61.60 207.86 70.76 208.15 C 73.26 210.08 80.23 208.83 79.94 212.79 C 76.88 213.82 73.82 214.83 70.75 215.82 C 61.50 216.08 52.25 215.99 43.00 216.01 C 44.97 212.55 49.99 213.68 53.11 211.93 C 50.67 207.38 38.93 211.92 40.93 204.05 Z" />
</g>
<g id="#8c9dccff">
<path fill="#8c9dcc" opacity="1.00" d=" M 41.84 203.81 L 42.52 204.46 L 43.11 205.03 C 43.53 205.35 44.38 205.98 44.80 206.30 C 65.12 207.94 85.59 206.53 105.98 207.01 L 106.03 208.00 C 104.28 208.05 102.52 208.11 100.77 208.15 C 90.77 207.92 80.76 207.91 70.76 208.15 C 61.60 207.86 52.43 208.18 43.26 207.92 C 42.09 206.86 42.12 205.24 41.84 203.81 Z" />
</g>
<g id="#bbd6ecff">
<path fill="#bbd6ec" opacity="1.00" d=" M 43.11 205.03 C 87.72 204.98 132.33 204.99 176.94 205.02 C 181.73 206.09 177.66 213.89 178.97 217.04 C 178.55 217.10 177.72 217.20 177.30 217.25 C 177.24 213.82 179.77 208.96 176.21 206.69 C 132.47 205.25 88.58 206.09 44.80 206.30 C 44.38 205.98 43.53 205.35 43.11 205.03 Z" />
</g>
<g id="#9dc1e2ff">
<path fill="#9dc1e2" opacity="1.00" d=" M 44.80 206.30 C 88.58 206.09 132.47 205.25 176.21 206.69 C 152.80 207.35 129.39 206.83 105.98 207.01 C 85.59 206.53 65.12 207.94 44.80 206.30 Z" />
</g>
<g id="#78bde3ff">
<path fill="#78bde3" opacity="1.00" d=" M 105.98 207.01 C 129.39 206.83 152.80 207.35 176.21 206.69 C 179.77 208.96 177.24 213.82 177.30 217.25 C 155.19 216.73 133.09 217.13 110.98 216.99 L 111.02 216.01 C 121.08 215.96 131.14 216.06 141.21 215.90 C 152.39 215.84 163.61 216.43 174.78 215.84 C 177.04 213.76 178.12 209.68 174.65 208.20 C 160.73 207.68 146.80 208.13 132.89 207.96 C 123.93 207.98 114.98 208.01 106.03 208.00 L 105.98 207.01 Z" />
</g>
<g id="#5d82c0ff">
<path fill="#5d82c0" opacity="1.00" d=" M 70.76 208.15 C 80.76 207.91 90.77 207.92 100.77 208.15 C 104.55 209.73 108.91 211.75 105.02 216.01 C 93.60 216.04 82.17 216.08 70.75 215.82 C 73.82 214.83 76.88 213.82 79.94 212.79 C 80.23 208.83 73.26 210.08 70.76 208.15 Z" />
</g>
<g id="#5095ceff">
<path fill="#5095ce" opacity="1.00" d=" M 100.77 208.15 C 102.52 208.11 104.28 208.05 106.03 208.00 C 114.98 208.01 123.93 207.98 132.89 207.96 C 130.10 212.94 138.14 213.78 141.21 215.90 C 131.14 216.06 121.08 215.96 111.02 216.01 C 109.02 215.99 107.02 216.01 105.02 216.01 C 108.91 211.75 104.55 209.73 100.77 208.15 Z" />
</g>
<g id="#3ca7ddff">
<path fill="#3ca7dd" opacity="1.00" d=" M 132.89 207.96 C 146.80 208.13 160.73 207.68 174.65 208.20 C 178.12 209.68 177.04 213.76 174.78 215.84 C 163.61 216.43 152.39 215.84 141.21 215.90 C 138.14 213.78 130.10 212.94 132.89 207.96 Z" />
</g>
<g id="#919ecdff">
<path fill="#919ecd" opacity="1.00" d=" M 43.00 216.01 C 52.25 215.99 61.50 216.08 70.75 215.82 C 82.17 216.08 93.60 216.04 105.02 216.01 C 107.02 216.01 109.02 215.99 111.02 216.01 L 110.98 216.99 C 88.25 216.99 65.52 217.06 42.80 216.93 L 43.00 216.01 Z" />
</g>
<g id="#b2cae6ff">
<path fill="#b2cae6" opacity="1.00" d=" M 42.80 216.93 C 65.52 217.06 88.25 216.99 110.98 216.99 C 133.09 217.13 155.19 216.73 177.30 217.25 C 132.47 218.91 87.50 217.67 42.62 217.88 L 42.80 216.93 Z" />
</g>
<g id="#edf2f9ff">
<path fill="#edf2f9" opacity="1.00" d=" M 177.30 217.25 C 177.72 217.20 178.55 217.10 178.97 217.04 C 176.25 222.45 185.27 233.56 176.83 235.02 L 177.36 234.28 C 180.22 231.05 180.30 223.75 175.23 222.72 C 131.49 221.24 87.59 222.05 43.79 222.34 C 42.53 221.28 43.05 219.32 42.62 217.88 C 87.50 217.67 132.47 218.91 177.30 217.25 Z" />
</g>
<g id="#d6daecff">
<path fill="#d6daec" opacity="1.00" d=" M 17.24 217.96 C 21.76 217.99 26.29 217.94 30.82 218.09 C 31.82 223.19 29.83 229.46 33.21 233.84 C 46.36 234.40 59.57 234.00 72.72 233.66 C 107.59 234.61 142.49 233.41 177.36 234.28 L 176.83 235.02 C 128.91 234.92 80.98 235.13 33.06 234.92 C 26.43 232.83 32.84 223.18 28.75 219.15 C 25.99 217.90 17.65 220.86 17.24 217.96 Z" />
</g>
<g id="#abc3e2ff">
<path fill="#abc3e2" opacity="1.00" d=" M 42.93 224.04 C 41.99 222.12 41.89 220.07 42.62 217.88 C 43.05 219.32 42.53 221.28 43.79 222.34 C 87.53 223.73 131.44 222.90 175.23 222.72 C 180.30 223.75 180.22 231.05 177.36 234.28 C 142.49 233.41 107.59 234.61 72.72 233.66 C 85.11 232.36 97.58 233.23 110.00 233.01 C 131.91 232.89 153.83 233.22 175.74 232.88 C 177.86 230.81 179.37 226.58 176.23 224.71 C 131.87 223.06 87.35 224.44 42.93 224.04 Z" />
</g>
<g id="#d1dceeff">
<path fill="#d1dcee" opacity="1.00" d=" M 43.79 222.34 C 87.59 222.05 131.49 221.24 175.23 222.72 C 131.44 222.90 87.53 223.73 43.79 222.34 Z" />
</g>
<g id="#83a2d1ff">
<path fill="#83a2d1" opacity="1.00" d=" M 42.93 224.04 C 87.35 224.44 131.87 223.06 176.23 224.71 C 163.43 225.17 150.62 224.93 137.81 225.05 C 125.49 224.91 113.18 225.02 100.87 225.03 C 88.85 224.95 76.84 224.95 64.83 225.07 C 57.71 224.44 49.26 226.23 42.93 224.04 Z" />
</g>
<g id="#626eb3ff">
<path fill="#626eb3" opacity="1.00" d=" M 64.83 225.07 C 76.84 224.95 88.85 224.95 100.87 225.03 C 106.27 227.11 102.49 230.66 98.80 231.90 C 85.45 232.15 72.09 232.05 58.74 231.76 C 62.23 230.75 65.74 229.81 69.23 228.78 C 68.62 226.76 66.37 226.18 64.83 225.07 Z" />
</g>
<g id="#5688c5ff">
<path fill="#5688c5" opacity="1.00" d=" M 100.87 225.03 C 113.18 225.02 125.49 224.91 137.81 225.05 C 139.11 227.39 140.79 229.53 143.12 230.93 C 132.08 231.52 121.05 231.63 110.00 232.03 C 106.27 231.99 102.53 231.91 98.80 231.90 C 102.49 230.66 106.27 227.11 100.87 225.03 Z" />
</g>
<g id="#419ed6ff">
<path fill="#419ed6" opacity="1.00" d=" M 137.81 225.05 C 150.62 224.93 163.43 225.17 176.23 224.71 C 177.95 228.17 175.48 231.41 171.89 231.79 C 162.30 231.54 152.71 231.13 143.12 230.93 C 140.79 229.53 139.11 227.39 137.81 225.05 Z" />
</g>
<g id="#69a9d8ff">
<path fill="#69a9d8" opacity="1.00" d=" M 176.23 224.71 C 179.37 226.58 177.86 230.81 175.74 232.88 C 153.83 233.22 131.91 232.89 110.00 233.01 L 110.00 232.03 C 121.05 231.63 132.08 231.52 143.12 230.93 C 152.71 231.13 162.30 231.54 171.89 231.79 C 175.48 231.41 177.95 228.17 176.23 224.71 Z" />
</g>
</svg>
