<?xml version="1.0" encoding="UTF-8" ?>
<!DOCTYPE svg PUBLIC "-//W3C//DTD SVG 1.1//EN" "http://www.w3.org/Graphics/SVG/1.1/DTD/svg11.dtd">
<svg width="249pt" height="250pt" viewBox="0 0 249 250" version="1.1" xmlns="http://www.w3.org/2000/svg">
<g id="#ffffffff">
<path fill="#ffffff" opacity="1.00" d=" M 0.00 0.00 L 249.00 0.00 L 249.00 250.00 L 0.00 250.00 L 0.00 0.00 M 125.25 5.66 C 121.73 13.56 117.73 21.24 114.03 29.06 C 86.66 85.38 59.39 141.75 31.98 198.05 C 54.32 198.23 76.68 198.29 99.02 198.02 C 100.23 193.74 101.98 189.63 102.97 185.28 C 91.05 176.66 79.15 168.00 67.23 159.38 C 81.95 159.24 96.67 159.32 111.40 159.35 C 116.31 145.29 120.52 130.99 125.43 116.93 C 130.15 131.07 134.47 145.36 139.51 159.39 C 154.20 159.28 168.91 159.22 183.60 159.42 C 171.52 167.99 159.59 176.77 147.59 185.46 C 149.15 189.64 150.51 193.89 151.81 198.17 C 174.13 198.17 196.46 198.16 218.79 198.17 C 187.62 134.00 156.64 69.73 125.25 5.66 Z" />
</g>
<g id="#0070c1ff">
<path fill="#0070c1" opacity="1.00" d=" M 125.25 5.66 C 156.64 69.73 187.62 134.00 218.79 198.17 C 196.46 198.16 174.13 198.17 151.81 198.17 C 150.51 193.89 149.15 189.64 147.59 185.46 C 159.59 176.77 171.52 167.99 183.60 159.42 C 168.91 159.22 154.20 159.28 139.51 159.39 C 134.47 145.36 130.15 131.07 125.43 116.93 C 120.52 130.99 116.31 145.29 111.40 159.35 C 96.67 159.32 81.95 159.24 67.23 159.38 C 79.15 168.00 91.05 176.66 102.97 185.28 C 101.98 189.63 100.23 193.74 99.02 198.02 C 76.68 198.29 54.32 198.23 31.98 198.05 C 59.39 141.75 86.66 85.38 114.03 29.06 C 117.73 21.24 121.73 13.56 125.25 5.66 Z" />
</g>
</svg>
