<svg id="Layer_1" data-name="Layer 1" xmlns="http://www.w3.org/2000/svg" viewBox="0 0 250 250"><defs><style>.cls-1{fill:#2e3148;}.cls-2{fill:#1b1e36;}.cls-3{fill:#6f7390;}.cls-4{fill:#b7b9c8;}</style></defs><circle class="cls-1" cx="125" cy="125" r="125"/><circle class="cls-2" cx="125" cy="125" r="72.53"/><path class="cls-3" d="M125.26,16c-13.5,0-24.44,48.94-24.44,109.31s10.94,109.31,24.44,109.31,24.43-48.94,24.43-109.31S138.75,16,125.26,16Zm1.68,212.45c-1.54,2.06-3.08.51-3.08.51-6.22-7.2-9.32-20.57-9.32-20.57-10.87-35-8.28-110.08-8.28-110.08,5.1-59.63,14.4-73.71,17.56-76.84a1.93,1.93,0,0,1,2.47-.2c4.59,3.25,8.44,16.85,8.44,16.85,11.36,42.18,10.33,81.79,10.33,81.79,1,34.46-5.69,73-5.69,73C134.19,222.22,126.94,228.4,126.94,228.4Z"/><path class="cls-3" d="M220.07,70.86c-6.72-11.71-54.61,3.16-107,33.2S23.73,168,30.44,179.65s54.61-3.16,107-33.2,89.34-63.89,82.63-75.59ZM36.64,178c-2.58-.32-2-2.43-2-2.43,3.16-9,13.2-18.33,13.2-18.33,24.94-26.83,91.38-62,91.38-62,54.25-25.24,71.1-24.18,75.38-23a1.92,1.92,0,0,1,1.4,2.06c-.51,5.6-10.42,15.7-10.42,15.7-30.91,30.86-65.78,49.68-65.78,49.68-29.38,18.05-66.19,31.41-66.19,31.41-28,10.09-37,6.87-37,6.87Z"/><path class="cls-3" d="M219.84,180c6.77-11.68-30.1-45.68-82.3-75.95S37.44,58.78,30.68,70.47,60.77,116.15,113,146.42,213.07,191.74,219.84,180ZM35.16,75c-1-2.37,1.12-2.94,1.12-2.94,9.34-1.76,22.47,2.26,22.47,2.26,35.72,8.13,99.4,48,99.4,48,49,34.31,56.55,49.42,57.68,53.71a1.93,1.93,0,0,1-1.07,2.24c-5.11,2.34-18.81-1.14-18.81-1.14-42.2-11.32-76-32.06-76-32.06-30.33-16.35-60.32-41.52-60.32-41.52C36.88,84.37,35.17,75,35.17,75Z"/><circle class="cls-4" cx="125" cy="125" r="12.86"/><ellipse class="cls-4" cx="177.73" cy="75.62" rx="7.46" ry="7.72"/><ellipse class="cls-4" cx="55.3" cy="101.85" rx="7.46" ry="7.72"/><ellipse class="cls-4" cx="109.82" cy="196.5" rx="7.46" ry="7.72"/></svg>