<?xml version="1.0" encoding="UTF-8" ?>
<!DOCTYPE svg PUBLIC "-//W3C//DTD SVG 1.1//EN" "http://www.w3.org/Graphics/SVG/1.1/DTD/svg11.dtd">
<svg width="250pt" height="250pt" viewBox="0 0 250 250" version="1.1" xmlns="http://www.w3.org/2000/svg">
<g id="#ffffffff">
<path fill="#ffffff" opacity="1.00" d=" M 0.00 0.00 L 119.46 0.00 C 102.63 0.93 85.91 4.96 70.73 12.36 C 60.37 17.39 50.68 23.78 42.09 31.45 C 37.62 35.28 33.55 39.54 29.76 44.04 C 28.73 45.24 27.73 46.47 26.75 47.72 C 10.80 67.81 1.55 92.88 0.00 118.44 L 0.00 0.00 Z" />
<path fill="#ffffff" opacity="1.00" d=" M 129.62 0.00 L 250.00 0.00 L 250.00 119.50 C 248.42 82.79 229.84 47.21 200.33 25.25 C 197.48 23.08 194.51 21.08 191.50 19.14 C 189.44 17.82 187.31 16.62 185.17 15.44 C 168.21 5.99 148.98 0.86 129.62 0.00 Z" />
<path fill="#ffffff" opacity="1.00" d=" M 115.24 46.04 C 116.13 43.96 118.76 43.85 120.64 44.44 C 122.59 46.24 123.61 48.78 124.98 51.00 C 149.35 93.28 173.76 135.53 198.16 177.79 C 199.34 179.90 200.75 181.91 201.63 184.17 C 202.01 185.74 200.96 187.10 200.50 188.52 C 189.62 189.21 178.69 188.64 167.79 188.83 C 151.35 188.83 134.91 188.82 118.46 188.83 C 107.66 188.71 96.85 188.90 86.05 188.71 C 83.90 188.88 83.37 186.43 82.49 185.00 C 87.21 175.85 92.74 167.16 97.74 158.17 C 98.16 157.41 98.57 156.64 98.97 155.87 C 100.20 155.08 101.51 154.38 103.03 154.54 C 115.30 154.33 127.59 154.85 139.85 154.39 C 140.94 153.44 141.77 152.25 142.53 151.03 C 137.15 139.94 130.32 129.60 124.39 118.79 C 122.92 116.56 122.06 113.31 119.08 112.68 C 117.08 112.30 115.49 113.99 114.66 115.60 C 109.70 124.31 104.61 132.95 99.62 141.64 C 98.33 144.02 96.94 146.37 95.11 148.37 C 84.38 148.48 73.66 148.48 62.94 148.35 C 61.01 148.66 59.79 147.02 58.81 145.65 C 58.67 143.51 59.90 141.68 60.89 139.89 C 66.23 130.76 71.48 121.58 76.78 112.43 C 82.88 101.95 88.92 91.44 95.00 80.94 C 97.86 76.09 100.64 71.18 103.49 66.32 C 107.43 59.57 111.29 52.78 115.24 46.04 Z" />
<path fill="#ffffff" opacity="1.00" d=" M 248.70 143.13 C 249.50 138.69 249.70 134.17 250.00 129.67 L 250.00 250.00 L 130.54 250.00 C 142.12 249.34 153.63 247.27 164.63 243.56 C 179.41 238.67 193.22 230.89 205.15 220.91 C 214.73 213.00 222.98 203.53 229.79 193.15 C 230.45 192.13 231.11 191.10 231.76 190.06 C 236.78 181.85 240.81 173.04 243.86 163.91 C 244.45 162.06 244.98 160.19 245.50 158.32 C 246.89 153.33 247.90 148.25 248.70 143.13 Z" />
<path fill="#ffffff" opacity="1.00" d=" M 0.00 130.37 C 1.23 155.38 9.85 180.04 25.00 200.02 C 43.45 224.81 71.43 242.22 101.80 247.88 C 107.61 249.00 113.49 249.62 119.39 250.00 L 0.00 250.00 L 0.00 130.37 Z" />
</g>
<g id="#7d1ac5ff">
<path fill="#7d1ac5" opacity="1.00" d=" M 119.46 0.00 L 123.95 0.00 C 136.25 21.35 145.95 44.05 155.13 66.88 C 165.35 94.74 177.03 122.20 192.19 147.78 C 197.22 156.82 203.59 165.02 209.87 173.20 C 216.13 180.22 223.05 186.61 229.79 193.15 C 222.98 203.53 214.73 213.00 205.15 220.91 C 193.02 213.78 182.09 204.78 172.60 194.42 C 173.61 193.74 174.70 193.19 175.97 193.33 C 181.98 193.13 188.02 193.65 194.03 193.21 C 196.76 193.01 200.40 191.77 200.50 188.52 C 200.96 187.10 202.01 185.74 201.63 184.17 C 200.75 181.91 199.34 179.90 198.16 177.79 C 173.76 135.53 149.35 93.28 124.98 51.00 C 123.61 48.78 122.59 46.24 120.64 44.44 C 118.76 43.85 116.13 43.96 115.24 46.04 C 111.29 52.78 107.43 59.57 103.49 66.32 C 93.44 47.84 83.70 29.02 70.73 12.36 C 85.91 4.96 102.63 0.93 119.46 0.00 Z" />
</g>
<g id="#911fcfff">
<path fill="#911fcf" opacity="1.00" d=" M 123.95 0.00 L 127.96 0.00 C 145.15 29.90 156.64 62.55 169.60 94.39 C 177.70 114.43 187.54 133.77 198.97 152.13 C 203.20 158.74 207.88 165.07 212.77 171.21 C 218.93 177.65 225.34 183.87 231.76 190.06 C 231.11 191.10 230.45 192.13 229.79 193.15 C 223.05 186.61 216.13 180.22 209.87 173.20 C 203.59 165.02 197.22 156.82 192.19 147.78 C 177.03 122.20 165.35 94.74 155.13 66.88 C 145.95 44.05 136.25 21.35 123.95 0.00 Z" />
</g>
<g id="#ad22d4ff">
<path fill="#ad22d4" opacity="1.00" d=" M 127.96 0.00 L 129.62 0.00 C 148.98 0.86 168.21 5.99 185.17 15.44 C 186.67 22.91 189.34 30.08 191.53 37.36 C 195.17 50.39 199.21 63.33 202.31 76.51 C 199.37 77.77 196.35 78.91 193.62 80.60 C 186.00 85.85 176.90 88.62 169.60 94.39 C 156.64 62.55 145.15 29.90 127.96 0.00 Z" />
</g>
<g id="#5911b9ff">
<path fill="#5911b9" opacity="1.00" d=" M 42.09 31.45 C 50.68 23.78 60.37 17.39 70.73 12.36 C 83.70 29.02 93.44 47.84 103.49 66.32 C 100.64 71.18 97.86 76.09 95.00 80.94 C 93.81 80.92 92.34 80.26 91.45 81.41 C 88.60 84.37 86.71 88.13 83.59 90.86 C 80.83 88.40 79.00 85.15 77.13 82.01 C 73.00 74.90 67.62 68.60 63.61 61.41 C 59.29 55.62 55.99 49.16 51.52 43.47 C 48.33 39.50 46.79 34.02 42.09 31.45 Z" />
</g>
<g id="#b827dcff">
<path fill="#b827dc" opacity="1.00" d=" M 185.17 15.44 C 187.31 16.62 189.44 17.82 191.50 19.14 C 191.10 22.71 192.59 26.06 193.57 29.41 C 200.73 52.84 206.28 76.71 212.67 100.35 C 215.63 111.28 217.98 122.54 223.25 132.67 C 228.43 142.81 235.58 152.40 245.50 158.32 C 244.98 160.19 244.45 162.06 243.86 163.91 C 240.60 160.54 236.50 158.14 233.23 154.78 C 228.77 150.31 225.18 145.06 221.89 139.70 C 215.32 127.42 211.91 113.83 208.59 100.40 C 206.36 92.47 204.37 84.48 202.31 76.51 C 199.21 63.33 195.17 50.39 191.53 37.36 C 189.34 30.08 186.67 22.91 185.17 15.44 Z" />
</g>
<g id="#db00d7ff">
<path fill="#db00d7" opacity="1.00" d=" M 193.57 29.41 C 192.59 26.06 191.10 22.71 191.50 19.14 C 194.51 21.08 197.48 23.08 200.33 25.25 C 200.63 27.58 200.99 29.91 201.72 32.15 C 207.25 49.24 211.90 66.62 215.74 84.17 C 218.71 98.01 223.84 111.29 229.70 124.14 C 233.70 132.25 239.33 140.84 248.70 143.13 C 247.90 148.25 246.89 153.33 245.50 158.32 C 235.58 152.40 228.43 142.81 223.25 132.67 C 217.98 122.54 215.63 111.28 212.67 100.35 C 206.28 76.71 200.73 52.84 193.57 29.41 Z" />
</g>
<g id="#d000d0ff">
<path fill="#d000d0" opacity="1.00" d=" M 200.33 25.25 C 229.84 47.21 248.42 82.79 250.00 119.50 L 250.00 129.67 C 249.70 134.17 249.50 138.69 248.70 143.13 C 239.33 140.84 233.70 132.25 229.70 124.14 C 223.84 111.29 218.71 98.01 215.74 84.17 C 211.90 66.62 207.25 49.24 201.72 32.15 C 200.99 29.91 200.63 27.58 200.33 25.25 Z" />
</g>
<g id="#4e12b4ff">
<path fill="#4e12b4" opacity="1.00" d=" M 29.76 44.04 C 33.55 39.54 37.62 35.28 42.09 31.45 C 46.79 34.02 48.33 39.50 51.52 43.47 C 55.99 49.16 59.29 55.62 63.61 61.41 C 67.62 68.60 73.00 74.90 77.13 82.01 C 79.00 85.15 80.83 88.40 83.59 90.86 C 86.71 88.13 88.60 84.37 91.45 81.41 C 92.34 80.26 93.81 80.92 95.00 80.94 C 88.92 91.44 82.88 101.95 76.78 112.43 C 75.92 110.98 75.05 109.52 74.22 108.05 C 62.12 85.09 50.08 60.96 29.76 44.04 Z" />
</g>
<g id="#a221d4ff">
<path fill="#a221d4" opacity="1.00" d=" M 26.75 47.72 C 27.73 46.47 28.73 45.24 29.76 44.04 C 50.08 60.96 62.12 85.09 74.22 108.05 C 74.06 108.82 73.74 110.35 73.58 111.12 C 72.59 110.64 71.52 110.17 71.09 109.06 C 65.11 98.65 60.04 87.68 53.14 77.82 C 45.82 66.64 37.73 55.58 26.75 47.72 Z" />
</g>
<g id="#871cc9ff">
<path fill="#871cc9" opacity="1.00" d=" M 0.00 118.44 C 1.55 92.88 10.80 67.81 26.75 47.72 C 37.73 55.58 45.82 66.64 53.14 77.82 C 60.04 87.68 65.11 98.65 71.09 109.06 C 71.52 110.17 72.59 110.64 73.58 111.12 C 73.74 110.35 74.06 108.82 74.22 108.05 C 75.05 109.52 75.92 110.98 76.78 112.43 C 71.48 121.58 66.23 130.76 60.89 139.89 C 59.90 141.68 58.67 143.51 58.81 145.65 C 58.27 144.82 57.74 143.98 57.22 143.14 C 56.54 146.82 57.31 151.13 60.76 153.19 C 65.52 155.44 70.90 154.32 75.96 154.27 C 82.81 153.82 90.50 155.60 96.28 150.83 L 96.78 151.86 C 97.47 153.21 98.22 154.54 98.97 155.87 C 98.57 156.64 98.16 157.41 97.74 158.17 C 96.33 158.38 94.78 158.60 94.08 160.03 C 91.38 163.84 88.68 167.66 86.04 171.52 C 83.45 173.47 81.82 176.44 79.02 178.15 C 72.19 171.88 64.78 166.31 57.83 160.18 C 55.50 158.13 53.15 155.37 49.74 155.64 C 37.01 139.86 20.23 126.09 0.00 121.72 L 0.00 118.44 Z" />
</g>
<g id="#a520d2ff">
<path fill="#a520d2" opacity="1.00" d=" M 193.62 80.60 C 196.35 78.91 199.37 77.77 202.31 76.51 C 204.37 84.48 206.36 92.47 208.59 100.40 C 211.91 113.83 215.32 127.42 221.89 139.70 C 214.07 143.51 206.62 148.00 198.97 152.13 C 187.54 133.77 177.70 114.43 169.60 94.39 C 176.90 88.62 186.00 85.85 193.62 80.60 Z" />
</g>
<g id="#460e98ff">
<path fill="#460e98" opacity="1.00" d=" M 114.66 115.60 C 115.49 113.99 117.08 112.30 119.08 112.68 C 122.06 113.31 122.92 116.56 124.39 118.79 C 130.32 129.60 137.15 139.94 142.53 151.03 C 141.77 152.25 140.94 153.44 139.85 154.39 C 135.85 145.17 130.93 136.40 126.59 127.35 C 125.29 124.81 124.01 122.12 121.79 120.24 C 119.65 118.28 116.04 119.17 114.48 121.44 C 107.59 130.99 105.03 143.23 96.78 151.86 L 96.28 150.83 C 95.88 150.02 95.49 149.20 95.11 148.37 C 96.94 146.37 98.33 144.02 99.62 141.64 C 104.61 132.95 109.70 124.31 114.66 115.60 Z" />
</g>
<g id="#5212b5ff">
<path fill="#5212b5" opacity="1.00" d=" M 114.48 121.44 C 116.04 119.17 119.65 118.28 121.79 120.24 C 124.01 122.12 125.29 124.81 126.59 127.35 C 130.93 136.40 135.85 145.17 139.85 154.39 C 127.59 154.85 115.30 154.33 103.03 154.54 C 101.51 154.38 100.20 155.08 98.97 155.87 C 98.22 154.54 97.47 153.21 96.78 151.86 C 105.03 143.23 107.59 130.99 114.48 121.44 Z" />
</g>
<g id="#7318b6ff">
<path fill="#7318b6" opacity="1.00" d=" M 0.00 121.72 C 20.23 126.09 37.01 139.86 49.74 155.64 C 59.13 168.23 67.09 181.78 74.33 195.70 C 77.28 201.72 81.34 207.21 83.53 213.59 C 84.29 215.21 83.39 216.86 82.97 218.43 C 77.04 209.86 72.79 200.30 67.82 191.18 C 58.33 173.26 47.41 155.49 31.69 142.34 C 22.55 134.55 11.58 129.10 0.00 126.01 L 0.00 121.72 Z" />
</g>
<g id="#2d0f93ff">
<path fill="#2d0f93" opacity="1.00" d=" M 0.00 126.01 C 11.58 129.10 22.55 134.55 31.69 142.34 C 47.41 155.49 58.33 173.26 67.82 191.18 C 72.79 200.30 77.04 209.86 82.97 218.43 C 87.89 226.25 92.86 234.05 98.35 241.49 C 99.72 243.48 101.75 245.29 101.80 247.88 C 71.43 242.22 43.45 224.81 25.00 200.02 C 9.85 180.04 1.23 155.38 0.00 130.37 L 0.00 126.01 Z" />
</g>
<g id="#9f1ed0ff">
<path fill="#9f1ed0" opacity="1.00" d=" M 198.97 152.13 C 206.62 148.00 214.07 143.51 221.89 139.70 C 225.18 145.06 228.77 150.31 233.23 154.78 C 236.50 158.14 240.60 160.54 243.86 163.91 C 240.81 173.04 236.78 181.85 231.76 190.06 C 225.34 183.87 218.93 177.65 212.77 171.21 C 207.88 165.07 203.20 158.74 198.97 152.13 Z" />
</g>
<g id="#7017abff">
<path fill="#7017ab" opacity="1.00" d=" M 60.76 153.19 C 57.31 151.13 56.54 146.82 57.22 143.14 C 57.74 143.98 58.27 144.82 58.81 145.65 C 59.79 147.02 61.01 148.66 62.94 148.35 C 73.66 148.48 84.38 148.48 95.11 148.37 C 95.49 149.20 95.88 150.02 96.28 150.83 C 90.50 155.60 82.81 153.82 75.96 154.27 C 70.90 154.32 65.52 155.44 60.76 153.19 Z" />
</g>
<g id="#7c1ac5ff">
<path fill="#7c1ac5" opacity="1.00" d=" M 49.74 155.64 C 53.15 155.37 55.50 158.13 57.83 160.18 C 64.78 166.31 72.19 171.88 79.02 178.15 C 81.82 176.44 83.45 173.47 86.04 171.52 C 84.12 177.21 78.74 181.65 79.16 188.05 C 78.82 193.31 84.25 196.78 89.00 196.78 C 95.34 196.84 101.69 196.65 108.04 196.70 C 112.99 196.61 117.89 195.34 122.86 195.94 C 132.68 210.83 143.70 225.11 157.23 236.83 C 159.79 238.97 162.34 241.13 164.63 243.56 C 153.63 247.27 142.12 249.34 130.54 250.00 L 119.39 250.00 C 113.49 249.62 107.61 249.00 101.80 247.88 C 101.75 245.29 99.72 243.48 98.35 241.49 C 92.86 234.05 87.89 226.25 82.97 218.43 C 83.39 216.86 84.29 215.21 83.53 213.59 C 81.34 207.21 77.28 201.72 74.33 195.70 C 67.09 181.78 59.13 168.23 49.74 155.64 Z" />
</g>
<g id="#7219b3ff">
<path fill="#7219b3" opacity="1.00" d=" M 94.08 160.03 C 94.78 158.60 96.33 158.38 97.74 158.17 C 92.74 167.16 87.21 175.85 82.49 185.00 C 83.37 186.43 83.90 188.88 86.05 188.71 C 96.85 188.90 107.66 188.71 118.46 188.83 C 119.56 190.75 120.70 192.64 121.91 194.49 C 122.15 194.85 122.62 195.58 122.86 195.94 C 117.89 195.34 112.99 196.61 108.04 196.70 C 101.69 196.65 95.34 196.84 89.00 196.78 C 84.25 196.78 78.82 193.31 79.16 188.05 C 78.74 181.65 84.12 177.21 86.04 171.52 C 88.68 167.66 91.38 163.84 94.08 160.03 Z" />
</g>
<g id="#3f0d95ff">
<path fill="#3f0d95" opacity="1.00" d=" M 118.46 188.83 C 134.91 188.82 151.35 188.83 167.79 188.83 C 168.75 190.05 169.72 191.27 170.73 192.46 C 167.57 193.59 164.28 192.24 161.05 192.34 C 156.37 192.36 151.66 192.26 146.99 192.68 C 138.68 193.98 130.21 192.98 121.91 194.49 C 120.70 192.64 119.56 190.75 118.46 188.83 Z" />
</g>
<g id="#6b16a6ff">
<path fill="#6b16a6" opacity="1.00" d=" M 167.79 188.83 C 178.69 188.64 189.62 189.21 200.50 188.52 C 200.40 191.77 196.76 193.01 194.03 193.21 C 188.02 193.65 181.98 193.13 175.97 193.33 C 174.70 193.19 173.61 193.74 172.60 194.42 C 171.97 193.77 171.33 193.13 170.73 192.46 C 169.72 191.27 168.75 190.05 167.79 188.83 Z" />
</g>
<g id="#5012b5ff">
<path fill="#5012b5" opacity="1.00" d=" M 121.91 194.49 C 130.21 192.98 138.68 193.98 146.99 192.68 C 151.66 192.26 156.37 192.36 161.05 192.34 C 164.28 192.24 167.57 193.59 170.73 192.46 C 171.33 193.13 171.97 193.77 172.60 194.42 C 182.09 204.78 193.02 213.78 205.15 220.91 C 193.22 230.89 179.41 238.67 164.63 243.56 C 162.34 241.13 159.79 238.97 157.23 236.83 C 143.70 225.11 132.68 210.83 122.86 195.94 C 122.62 195.58 122.15 194.85 121.91 194.49 Z" />
</g>
</svg>
