<?xml version="1.0" encoding="utf-8"?>
<!-- Generator: Adobe Illustrator 26.0.3, SVG Export Plug-In . SVG Version: 6.00 Build 0)  -->
<svg version="1.1" id="Layer_1" xmlns="http://www.w3.org/2000/svg" xmlns:xlink="http://www.w3.org/1999/xlink" x="0px" y="0px"
	 viewBox="0 0 250 250" style="enable-background:new 0 0 250 250;" xml:space="preserve">
<style type="text/css">
	.st0{fill:#FFFFFF;}
	.st1{fill:#30CD82;}
	.st2{fill:#2FD686;}
	.st3{fill:#2EC37B;}
	.st4{fill:#2EE08B;}
	.st5{fill:#1DA765;}
	.st6{fill:#2FD485;}
	.st7{fill:#30C880;}
	.st8{fill:#30C67E;}
	.st9{fill:#29BA74;}
	.st10{fill:#2FDA88;}
	.st11{fill:#22B06C;}
	.st12{fill:#2ABB75;}
	.st13{fill:#2DEA8F;}
	.st14{fill:#30C980;}
	.st15{fill:#2BBE77;}
</style>
<g id="_x23_ffffffff">
	<path class="st0" d="M181.8,113.7c4,0,8.1,0,11.7,1.8c5.2,4.1,5.9,12.8,1.5,17.7c-3.4,3.8-8.9,3.2-13.5,3.4
		C182.1,128.9,181.7,121.3,181.8,113.7z"/>
	<path class="st0" d="M57.4,130.4c1.6-4.8,3.2-9.6,4.8-14.4c1.8,4.8,3.3,9.6,4.8,14.4C63.8,130.4,60.6,130.5,57.4,130.4z"/>
</g>
<g id="_x23_30cd82ff">
	<path class="st1" d="M117.7,0h14.7c8.3,0.8,16.7,2,24.8,4.2c-1,3.8-2.1,7.6-3.3,11.4c-14.6-3.8-30-4.8-45-2.6
		c1.1-4.2,2.4-8.4,3.9-12.5C114.5,0.3,116.1,0.1,117.7,0z"/>
</g>
<g id="_x23_2fd686ff">
	<path class="st2" d="M70.9,12.3c13.1-6.4,27.5-10.2,42-11.8c-1.5,4.1-2.8,8.3-3.9,12.5c-14.2,2-28,6.8-40.5,13.9
		C68.2,21.9,71.1,17.4,70.9,12.3z"/>
</g>
<g id="_x23_2ec37bff">
	<path class="st3" d="M157.2,4.2c15.2,4.1,29.6,10.9,42.2,20.4c3.8,2.5,2.8,9-1.5,10.4c-2.8,1.3-5.4-0.8-7.6-2.3
		C179.4,24.8,167,19.1,154,15.6C155.1,11.8,156.2,8,157.2,4.2z"/>
</g>
<g id="_x23_2ee08bff">
	<path class="st4" d="M9.3,77.5c11.6-28.4,33.9-52.1,61.6-65.2c0.2,5.1-2.7,9.6-2.4,14.7c-12,7-22.8,16.1-31.5,27
		c-15.3,18.9-24.3,42.8-25,67.2c-0.3,3.1,0.3,7.1-2.9,8.9c-3.4,2.2-7.7,0.1-9.1-3.4v-9.1C1.2,103.8,4,90.2,9.3,77.5z"/>
</g>
<g id="_x23_1da765ff">
	<path class="st5" d="M232.5,106.7c-1.8-5.4,2.8-11.7,8.6-11.4c4.3-0.2,7.9,3.2,8.9,7.2v3.3c-0.9,2.6-2.3,5.2-4.9,6.3
		C240.3,114.8,233.8,111.8,232.5,106.7z"/>
</g>
<g id="_x23_2fd485ff">
	<path class="st6" d="M90.5,105.4c3.1,0,6.2,0,9.3,0c0,8.3,0.1,16.6,0,24.8c-0.6-1.5-1.1-2.9-1.7-4.4c-3,2.1-5.9,4.6-7,8.2
		C89.9,124.5,90.8,114.9,90.5,105.4z"/>
</g>
<g id="_x23_30c880ff">
	<path class="st7" d="M113.4,105.4c3.1,0,6.2,0,9.3,0c0,8.3,0.1,16.5,0,24.8c-0.1,5.7-3.4,11.5-8.8,13.7c-5.9,2.4-13.5,2.1-18.4-2.4
		c-2.2-2-3.5-4.7-4.4-7.5c1.1-3.6,4.1-6.1,7-8.2c0.6,1.5,1.1,2.9,1.7,4.4c0.8,1.7,1.2,3.9,3,5c2.8,1.8,7.1,1.4,9.2-1.4
		c1.6-2.3,1.5-5.2,1.5-7.9C113.4,119.1,113.4,112.2,113.4,105.4z"/>
</g>
<g id="_x23_30c67eff">
	<path class="st8" d="M137.4,107.4c5.2-3.5,12.4-3.6,17.9-0.7c3.7,2,5.6,5.8,6.3,9.8c-3.3,0-6.6,0.1-9.9,0.1c-1.1-2.1-2.7-5-5.6-4.2
		c-3.6,0.1-3.5,4.8-1.4,6.8c-2.7,1.8-5.3,3.8-7.5,6.1C131.8,120.9,131.6,111.4,137.4,107.4z"/>
</g>
<g id="_x23_29ba74ff">
	<path class="st9" d="M172.5,105.4c9.4,0.5,19.8-1.9,28,3.9c-2.3,2.1-4.6,4.1-6.9,6.2c-3.7-1.7-7.8-1.8-11.7-1.8
		c-0.1,7.6,0.3,15.2-0.2,22.8c-0.7-3.8-1.1-7.6-0.8-11.4c-2.7,1.7-5.5,3.5-8.2,5.2C172.5,122,172.5,113.7,172.5,105.4z"/>
</g>
<g id="_x23_2fda88ff">
	<path class="st10" d="M42.7,144.8c4.8-13.1,9.5-26.1,14.2-39.2c3.6,0,7.1,0,10.7,0c4.9,13,9.5,26.2,14.3,39.2c-3.3,0-6.7,0.1-10,0
		c-0.8-2.4-1.6-4.8-2.5-7.2c-4.8,0-9.7,0-14.5,0.1c-0.8,2.4-1.5,4.8-2.3,7.1C49.3,144.9,46,144.9,42.7,144.8 M57.4,130.4
		c3.2,0,6.5,0,9.7,0c-1.5-4.8-3.1-9.6-4.8-14.4C60.6,120.8,59,125.6,57.4,130.4z"/>
</g>
<g id="_x23_22b06cff">
	<path class="st11" d="M193.6,115.4c2.3-2,4.7-4.1,6.9-6.2c9.5,8,9.4,25.1-1.1,32.2c-7.9,5.4-18,2.6-26.9,3.3c0-4.9,0-9.7,0-14.5
		c2.8-1.7,5.5-3.5,8.2-5.2c-0.2,3.8,0.1,7.6,0.8,11.4c4.6-0.2,10.1,0.4,13.5-3.4C199.4,128.2,198.8,119.5,193.6,115.4z"/>
	<path class="st11" d="M240.9,119.9c3.4-2.1,7.7-0.1,9.1,3.5v9c-1.9,26.9-12.2,53.2-29.9,73.7c-15.4,18.2-36.3,31.8-59.2,38.6
		c-0.6-0.6-1.2-1.2-1.8-1.8c1.2-3.7,2.7-7.4,4.5-10.9c-0.4,0-1.3,0-1.8,0c15-5.3,29-13.7,40.6-24.6c21.5-20.1,34.8-49,35.5-78.5
		C238.3,125.8,237.7,121.7,240.9,119.9z"/>
</g>
<g id="_x23_2abb75ff">
	<path class="st12" d="M137.2,125.2c2.2-2.3,4.8-4.4,7.5-6.1c4.5,2.2,9.8,3.1,13.8,6.3c5.1,4.1,4.8,12.8-0.3,16.9
		c-8.3,6.6-24.3,2.7-25.2-9.1c3.3-0.1,6.6-0.1,9.9,0c0.6,3.4,4.1,5.7,7.4,4.2c2.6-1.5,2-5.9-0.7-6.9
		C145.6,128.5,141.2,127.3,137.2,125.2z"/>
</g>
<g id="_x23_2dea8fff">
	<path class="st13" d="M0,144.1c1-3,2.9-5.9,6.1-6.7c5.1-2,11.5,2,11.7,7.5c0.9,5.4-4.4,10.6-9.8,9.8c-4-0.2-6.9-3.5-8-7.1V144.1z"
		/>
</g>
<g id="_x23_30c980ff">
	<path class="st14" d="M53.5,227.5c-3.8-2.4-2.9-9.2,1.5-10.4c2.5-1.2,4.9,0.5,7,1.8c14,9.6,30.3,15.7,47.1,18.1
		c-3.4,2.2-5.9,5.4-7,9.3c-1.1,0.3-2.1,0.6-3.2,0.9C82.6,243.8,67,237.1,53.5,227.5z"/>
</g>
<g id="_x23_2bbe77ff">
	<path class="st15" d="M109.1,237c17.7,2.6,35.8,0.6,52.8-4.9c0.5,0,1.3,0,1.8,0c-1.8,3.5-3.2,7.2-4.5,10.9c0.6,0.6,1.2,1.2,1.8,1.8
		c-9.6,2.9-19.5,4.5-29.5,5.2h-13c-6.6-0.5-13.1-1.4-19.6-2.8c1.1-0.3,2.1-0.6,3.2-0.9C103.2,242.4,105.7,239.2,109.1,237z"/>
</g>
</svg>
