<?xml version="1.0" encoding="utf-8"?>
<!-- Generator: Adobe Illustrator 26.0.3, SVG Export Plug-In . SVG Version: 6.00 Build 0)  -->
<svg version="1.1" id="Layer_1" xmlns="http://www.w3.org/2000/svg" xmlns:xlink="http://www.w3.org/1999/xlink" x="0px" y="0px"
	 viewBox="0 0 250 245" style="enable-background:new 0 0 250 245;" xml:space="preserve">
<style type="text/css">
	.st0{fill:#E2E1DD;}
	.st1{fill:#E6E5E1;}
	.st2{fill:#0206F0;}
	.st3{fill:#0A1CE7;}
	.st4{fill:#1634D9;}
	.st5{fill:#2251CF;}
	.st6{fill:#2F68C1;}
	.st7{fill:#4392AE;}
	.st8{fill:#50A49D;}
	.st9{fill:#1E49CE;}
	.st10{fill:#397BB5;}
	.st11{fill:#2F4391;}
	.st12{fill:#295EC7;}
	.st13{fill:#69DC93;}
	.st14{fill:#447D8F;}
	.st15{fill:#58BF9C;}
	.st16{fill:#337CBD;}
	.st17{fill:#377CB7;}
	.st18{fill:#4CA3A6;}
	.st19{fill:#75FA88;}
	.st20{fill:#70BD94;}
	.st21{fill:#8FE5A2;}
	.st22{fill:#62DE96;}
	.st23{fill:#74F68D;}
	.st24{fill:#79DA94;}
	.st25{fill:#ECF6FF;}
	.st26{fill:#0F06C7;}
	.st27{fill:#0B1093;}
	.st28{fill:#151897;}
	.st29{fill:#2534BD;}
	.st30{fill:#A6B7FA;}
	.st31{fill:#1732B2;}
	.st32{fill:#4B848D;}
	.st33{fill:#60AA95;}
	.st34{fill:#1824DC;}
	.st35{fill:#CFF3F9;}
	.st36{fill:#EFFFFF;}
	.st37{fill:#9CC8F6;}
	.st38{fill:#D4FAFD;}
	.st39{fill:#67AC95;}
	.st40{fill:#536D7E;}
</style>
<g id="_x23_e2e1ddff">
	<path class="st0" d="M0,0h0.9c0,81.7-0.1,163.3,0.1,245H0V0z"/>
</g>
<g id="_x23_e6e5e1ff">
	<path class="st1" d="M249,0h1v245h-1C249.1,163.3,249.1,81.7,249,0z"/>
</g>
<g id="_x23_0206f0ff">
	<path class="st2" d="M124.1,15.4c2.8,4.3,5.4,8.7,7.7,13.3c0,2.7-0.3,5.4-0.9,8c-1.4-0.3-2.8-1.6-4.2-1c-1.4,1.7-2.1,3.9-3.5,5.6
		c-2.4,1.6-4.9-2.1-7.3-0.4c-2,0.8-1.7,3.4-2.4,5.1c-0.2,1.8-1.8,2.8-3.1,3.8c-1.5-1.7-2.3-3.8-2.6-6
		C113.2,34.3,118.8,24.9,124.1,15.4z"/>
	<path class="st2" d="M43.5,158.3c1-0.9,2-0.9,3.1-0.1c0.1,3.1,0.1,6.3,1,9.3c-1.7,0.1-3.4,0-5.1-0.2
		C43.6,164.5,43.5,161.4,43.5,158.3 M43.8,158.4c0,2.9-0.1,5.9,0.1,8.8c0.6,0,1.8-0.1,2.3-0.2c0.4-2.8,0.3-5.6,0.1-8.4
		C45.7,158.6,44.4,158.5,43.8,158.4z"/>
</g>
<g id="_x23_0a1ce7ff">
	<path class="st3" d="M131.8,28.7c0.3,0.5,0.9,1.5,1.2,2c0,3.3,1.8,6.1,2.6,9.2c-0.9,1.5-2.7,1.6-4.2,2c0.1,1.1,0.2,2.2,0.2,3.3
		c-1.7,0.5-3.3,1.4-4.8,2.5c-1-0.9-2-1.8-3-2.8c-2,2.6-4.3,5.1-7.1,7c-2.1,1.2-2.9,3.7-4.6,5.3c-1.6,1.2-3.4,1.8-5.2,2.6
		c-0.6-0.9-1.2-1.7-1.8-2.6c-2,2.6-2.9,5.9-5.2,8.3c-0.6-1.6-1.2-3.3-1.8-4.9c3.3-5.6,6.4-11.2,9.6-16.8c0.4,2.2,1.2,4.3,2.6,6
		c1.3-1.1,3-2,3.1-3.8c0.7-1.7,0.4-4.2,2.4-5.1c2.4-1.7,4.9,2,7.3,0.4c1.4-1.7,2.1-3.9,3.5-5.6c1.4-0.6,2.8,0.7,4.2,1
		C131.5,34.1,131.9,31.4,131.8,28.7z"/>
</g>
<g id="_x23_1634d9ff">
	<path class="st4" d="M133.1,30.7c3.5,5.6,6.7,11.3,9.8,17.1c0,0.8-0.1,2.3-0.1,3.1c-1-0.9-1.9-1.9-2.9-2.8c0.5,1.5,1,3,1.4,4.5
		c-3.7,2.2-7.3,4.7-10.9,7.2c-2.1-3.6-3.9-7.3-6.2-10.8c-3.9,6.4-7.2,13.3-11.5,19.4l0.3,0.3c-1.2-0.1-2.5-0.4-3.7-0.1
		c-2,1.6-3.3,3.8-4.8,5.8c-3,0.2-5.7,1.3-7.1,4.1c-1.1-0.8-2.1-1.5-3.1-2.2c-1.5,2.1-3,4.2-4.8,6c0.2-2.5,0.5-5,0.8-7.5
		c2.4-4.8,5.3-9.4,8-14.1c0.6,1.6,1.2,3.3,1.8,4.9c2.3-2.4,3.2-5.7,5.2-8.3c0.6,0.9,1.2,1.7,1.8,2.6c1.8-0.8,3.6-1.5,5.2-2.6
		c1.7-1.7,2.5-4.1,4.6-5.3c2.8-1.8,5-4.4,7.1-7c1,0.9,2,1.8,3,2.8c1.5-1.1,3-2,4.8-2.5c-0.1-1.1-0.1-2.2-0.2-3.3
		c1.5-0.4,3.4-0.5,4.2-2C134.9,36.8,133.1,34,133.1,30.7z"/>
</g>
<g id="_x23_2251cfff">
	<path class="st5" d="M139.9,48.1c1,0.9,1.9,1.9,2.9,2.8c0-0.8,0.1-2.3,0.1-3.1c1.7,2.5,3.2,5,4.5,7.7c0,7.4-11,7.8-10.8,15.3
		c-2-3.7-4.1-7.4-6.1-11.1c3.6-2.5,7.2-4.9,10.9-7.2C140.8,51.1,140.4,49.6,139.9,48.1z"/>
</g>
<g id="_x23_2f68c1ff">
	<path class="st6" d="M147.4,55.5c2.6,4.2,5,8.5,7.5,12.8c-1,1.6-2,3.2-3,4.8c-2.4-0.9-4.7-2-7.1-2.9c-2-0.3-2.8,2.2-4.1,3.3
		c-0.9-0.1-1.9-0.2-2.9-0.4c-0.3-0.6-1-1.8-1.3-2.4C136.4,63.2,147.4,62.8,147.4,55.5z"/>
</g>
<g id="_x23_4392aeff">
	<path class="st7" d="M159.2,75.8c10.2-4.3,19.7-10.3,28.8-16.5c-1,3.5-3.8,6-5.8,9c-11,13.2-26.1,22.4-42.2,28
		c-8.3,2.9-16.8,5.4-25.5,6.6c-1.5-0.2-3.1-0.6-4.6-0.8c1.2-0.4,2.5-0.9,3.7-1.3c-0.9-0.9-1.7-1.8-2.6-2.8c3.2-1.1,6.6-0.3,9.9,0.1
		c-0.9-0.6-1.8-1.2-2.7-1.8c3.8-2.4,9.2-2.3,11.8-6.5c-1.1-0.5-2.1-0.9-3.2-1.3c5.8-0.9,11.5-2.4,17-4.5c-0.2-0.3-0.7-0.9-0.9-1.2
		l-0.7-1l0.7-0.4c3.9-1.9,7.8-3.9,11.5-6.3c-0.8-0.6-1.6-1.3-2.5-1.9c1-1.6,2-3.2,3-4.8C156.4,70.7,157.8,73.2,159.2,75.8z"/>
	<path class="st7" d="M163.2,158.2c1.4,0,2.8,0.1,4.1,0.1c-1.2,0.1-2.5,0.2-3.7,0.4c0,2.5,0,4.9,0.1,7.4c0.8,0,2.5,0,3.3,0.1
		c-0.1,0.5-0.4,1.6-0.6,2.1c-0.7,0.1-2.1,0.2-2.7,0.3c-0.1,2.9-0.2,5.8-0.2,8.7c1.6,0,3.3,0,5,0l-0.8,1.1c-1.7,0.2-3.5,0.2-5.2,0.3
		C161.9,171.9,161.6,165,163.2,158.2z"/>
</g>
<g id="_x23_50a49dff">
	<path class="st8" d="M173,84.9c8.2-7.7,16.2-15.6,22.9-24.8c-9.7,20.9-23.6,40.3-41.8,54.6c-1.1-0.9-2.2-1.9-3.3-2.8
		c3.4-4.1,8.2-6.5,11.7-10.4c5-5.5,12-9.7,14.6-16.9c-4.3,2.4-8.1,5.6-11.6,9c-1,1.2-2.7,0.3-4,0.5C165.2,90.9,169.4,88.3,173,84.9z
		"/>
</g>
<g id="_x23_1e49ceff">
	<path class="st9" d="M109.2,68.6c1.2-0.3,2.5,0,3.7,0.1c-2.6,3.9-4.5,8.2-7.2,11.9c-2.4,1-4.7,2.2-6.2,4.4
		c-0.8-0.1-1.7-0.4-2.4,0.2c-3.3,2.3-6.6,4.7-9.5,7.5c-0.8,1-2.2,0.2-3.2,0.1c-1.4,1.4-2.9,2.7-5,3c2.2-5.2,6.8-9.4,7.3-15.2
		c0.7-2.2,2.1-4.1,3.4-6c-0.4,2.5-0.6,5-0.8,7.5c1.9-1.8,3.4-3.9,4.8-6c1,0.8,2.1,1.5,3.1,2.2c1.3-2.8,4.1-3.9,7.1-4.1
		C105.9,72.4,107.2,70.1,109.2,68.6z"/>
</g>
<g id="_x23_397bb5ff">
	<path class="st10" d="M140.7,73.5c1.3-1.1,2.1-3.6,4.1-3.3c2.4,0.9,4.7,2,7.1,2.9c0.8,0.6,1.7,1.2,2.5,1.9
		c-3.7,2.3-7.6,4.3-11.5,6.3c-2.2-2.3-3.3-5.4-5-8.1C138.8,73.3,139.8,73.4,140.7,73.5z"/>
</g>
<g id="_x23_2f4391ff">
	<path class="st11" d="M57.3,131.6c9.9-16.9,19.3-34.1,29.4-50.9c-0.5,5.8-5.1,10.1-7.3,15.2c-2.4,3.4-4.1,7.2-6.1,10.8
		c-3.1,4.6-5.3,9.7-8.5,14.2c-2,3.2-4.6,6.5-4.5,10.5c3.7,0.6,7.5,0.1,11.2,0c2.2,0.2,4.4,0.5,6.7,0.8
		C71.2,131.7,64.2,132.6,57.3,131.6z"/>
	<path class="st11" d="M139.3,156.4c0.6,0,1.7-0.1,2.2-0.1l0.2,1c0.5,2.6,0.9,5.2,1.1,7.8c0.2,1.7,0.3,3.5,0.4,5.2
		c-0.1,0.7-0.5,2-0.6,2.7c-0.5-1.7-1-3.4-1.4-5.1C140.4,164.1,140.1,160.2,139.3,156.4z"/>
	<path class="st11" d="M146.5,156.3c0.6,0,1.6,0,2.2,0c-0.8,5.7-1.8,11.3-2.6,17c-0.4-0.9-0.8-1.9-1.3-2.8c0-1.5,0.1-3,0.2-4.5
		C145.4,162.8,146,159.5,146.5,156.3z"/>
	<path class="st11" d="M161.2,156.3c2.2,0,4.4,0,6.6-0.1c-0.1,0.5-0.4,1.6-0.6,2.1c-1.4,0-2.8-0.1-4.1-0.1
		c-1.6,6.8-1.2,13.6-0.7,20.5c1.7-0.1,3.5-0.1,5.2-0.3c0,0.2,0.1,0.7,0.1,1c-2.1,0.1-4.2,0.1-6.3,0.2
		C161.2,171.8,161.4,164.1,161.2,156.3z"/>
	<path class="st11" d="M100.2,179.7c0.2-2.3,0.3-4.7,1.2-6.8c0.5,1.4,1.1,2.9,1.7,4.3c-0.1,0.6-0.2,1.8-0.3,2.4
		C102.1,179.6,100.8,179.7,100.2,179.7z"/>
	<path class="st11" d="M108.6,173c0.4,2.2,0.8,4.5,1,6.7c-1-0.2-1.9-0.3-2.8-0.5c0-0.7-0.1-2.1-0.1-2.8
		C107.3,175.3,107.9,174.1,108.6,173z"/>
</g>
<g id="_x23_295ec7ff">
	<path class="st12" d="M99.5,85.1c1.5-2.2,3.8-3.5,6.2-4.4c-4.6,8.9-9.9,17.5-14.9,26.2c-1.3-2.9-3.3-5.5-6.3-6.8
		c-1.2,2.6-1.9,6-5,6.9c-0.2-0.4-0.6-1.1-0.9-1.4c-0.7,2.3-2.6,3.6-4.6,4.7c-0.2-0.9-0.5-2.6-0.7-3.4c2.1-3.6,3.7-7.4,6.1-10.8
		c2-0.3,3.6-1.6,5-3c1,0.1,2.4,0.9,3.2-0.1c2.9-2.8,6.2-5.2,9.5-7.5C97.8,84.7,98.7,85,99.5,85.1z"/>
</g>
<g id="_x23_69dc93ff">
	<path class="st13" d="M163.2,117.4c11.9-9.3,19.3-22.8,26.7-35.6c-1,10.8-4.9,21.3-9.4,31.1c1.9,3.2,4,6.2,5.3,9.7
		c-0.1,0.3-0.4,1-0.5,1.3c-2.8-4.1-6.7-8.1-6.6-13.4c-0.3,0.2-1,0.7-1.4,1c-0.7-0.7-1.4-1.3-2.1-2c-3.8,3.8-8.3,7.1-10.4,12.1
		C164,120.3,163.4,118.9,163.2,117.4z"/>
</g>
<g id="_x23_447d8fff">
	<path class="st14" d="M110.9,88.5c10.9-0.5,21.5-3,31.9-5.9c0.2,0.3,0.7,0.9,0.9,1.2c-5.5,2.2-11.2,3.6-17,4.5
		c-6,1-12.5,0.7-18.1,3.2c-2.3,3-3.7,6.5-5.7,9.6c0.6,0.8,1.3,1.6,1.9,2.4c1.7-0.6,3.3-1.1,5-1.6c1.5,0.2,3.1,0.6,4.6,0.8
		c-5.1,1.1-10.3,2-15.5,2.3c2.7-5.3,5.9-10.3,8.8-15.6C108.2,88.2,109.9,88.8,110.9,88.5z"/>
	<path class="st14" d="M180.2,156.3c2.4,0.2,5.8-1.1,7.1,1.7c0.4,3.5,0.1,7,0,10.4c-0.1,3.6,0.2,7.2-0.2,10.8l-1.8,0.7
		c-0.1-3.4,0.1-6.8-0.3-10.1c-0.6-0.1-1.9-0.4-2.6-0.5c-0.1,3.4-0.1,6.9,0,10.3c-0.5,0-1.6,0-2.1,0
		C180.3,171.8,180.4,164.1,180.2,156.3 M182.6,158.3c0,3.1,0,6.1-0.1,9.2c1.2,0.1,2.6,0.4,2.8-1.2c0.2-2.5,0.2-5-0.1-7.5
		C184.5,158.6,183.2,158.4,182.6,158.3z"/>
</g>
<g id="_x23_58bf9cff">
	<path class="st15" d="M165.5,93.7c3.5-3.5,7.3-6.6,11.6-9c-2.6,7.2-9.6,11.4-14.6,16.9c-3.5,4-8.3,6.4-11.7,10.4
		c1.1,1,2.2,1.9,3.3,2.8c-5,3.6-10,7.7-15.8,9.8c-4.9,0.4-9.1,3.4-13.9,4.1c-6.6-2.8-13.8,0.4-20.8,0.2c3.7-1.7,7.9-2.5,11-5.3
		c5.1-4.6,12.4-5.8,17.4-10.6c2.6-2.5,5.8-4.5,9.6-4.5c-0.3-0.3-1.1-0.9-1.4-1.2c2.9-1.8,5.8-3.3,8.8-5c-0.5-0.1-1.5-0.4-2.1-0.5
		c3.3-2.1,7.1-3.4,10.4-5.6c1.4-0.7,2.7-1.9,4.3-2.1C162.8,94,164.5,94.8,165.5,93.7z"/>
</g>
<g id="_x23_337cbdff">
	<path class="st16" d="M108.7,91.6c5.6-2.6,12.1-2.3,18.1-3.2c1.1,0.4,2.1,0.9,3.2,1.3c-2.6,4.1-8,4-11.8,6.5
		c0.9,0.6,1.8,1.2,2.7,1.8c-3.3-0.4-6.7-1.1-9.9-0.1c0.8,0.9,1.7,1.8,2.6,2.8c-1.2,0.4-2.5,0.9-3.7,1.3c-1.7,0.5-3.3,1.1-5,1.6
		c-0.6-0.8-1.3-1.6-1.9-2.4C105,98.1,106.4,94.6,108.7,91.6z"/>
	<path class="st16" d="M141.2,167.9c0.4,1.7,0.9,3.4,1.4,5.1c0.2-0.7,0.5-2,0.6-2.7c0.4,0.1,1.2,0.2,1.7,0.3
		c0.4,0.9,0.9,1.8,1.3,2.8c-0.1,0.7-0.3,2.2-0.4,2.9c-1.1,0-2.2,0.1-3.3,0.1C141.7,173.6,141.4,170.7,141.2,167.9z"/>
</g>
<g id="_x23_377cb7ff">
	<path class="st17" d="M84.4,100.1c3,1.2,5,3.9,6.3,6.8c-1.1,1.9-2.1,3.8-2.9,5.9c2.6-0.1,5.2-0.3,7.8-0.3c1.8,0.4,3.6,0.8,5.4,1.3
		c-2.6,1.2-5.3,2-8.1,2.8c-1.6,3.6-4.7,6-8.4,7.2c-5,1.5-8.6,5.5-13.1,7.9c-3.8,0.2-7.5,0.6-11.2,0c0-4,2.5-7.3,4.5-10.5
		c3.2-4.5,5.4-9.6,8.5-14.2c0.2,0.9,0.5,2.6,0.7,3.4c2-1,3.9-2.4,4.6-4.7c0.2,0.4,0.7,1.1,0.9,1.4C82.6,106,83.2,102.6,84.4,100.1z"
		/>
</g>
<g id="_x23_4ca3a6ff">
	<path class="st18" d="M95.7,112.3c17.4-1.5,35-3.8,51.2-10.5c0.5,0.1,1.5,0.4,2.1,0.5c-2.9,1.7-5.9,3.2-8.8,5
		c0.3,0.3,1.1,0.9,1.4,1.2c-3.8,0-7,2-9.6,4.5c-5,4.8-12.2,6-17.4,10.6c-3,2.8-7.3,3.7-11,5.3c-7.9,1.9-15.9,2.8-24,3.4
		c-0.4,0-1.2-0.1-1.6-0.1c-2.2-0.3-4.4-0.7-6.7-0.8c4.5-2.4,8.1-6.4,13.1-7.9c3.7-1.1,6.8-3.6,8.4-7.2c2.8-0.7,5.5-1.6,8.1-2.8
		C99.3,113.1,97.5,112.7,95.7,112.3z"/>
</g>
<g id="_x23_75fa88ff">
	<path class="st19" d="M164.9,121.6c2.1-5.1,6.6-8.4,10.4-12.1c0.7,0.7,1.4,1.3,2.1,2c0.3-0.2,1-0.7,1.4-1
		c-0.1,5.3,3.8,9.3,6.6,13.4c0.1-0.3,0.4-1,0.5-1.3c1.6-0.5,1.6,0.9,1.6,2c0.1,2.2-0.4,4.5,0.3,6.6c2.6,1.6,4.1,4.1,4.6,7.1
		c-3.9,1.7-8.3,0.7-12.4,0.6c-4,0.3-6.1-3.8-8.6-6.2C169.1,129.1,166.9,125.4,164.9,121.6z"/>
</g>
<g id="_x23_70bd94ff">
	<path class="st20" d="M124.4,128.7c4.8-0.7,9-3.7,13.9-4.1c-3.2,3.2-7.9,4-11.8,6.1c-6.3,2.4-12.7,4.7-19.4,5.7
		c-0.6-0.3-1.7-1-2.3-1.3C111.7,134.1,117.8,130.8,124.4,128.7z"/>
</g>
<g id="_x23_8fe5a2ff">
	<path class="st21" d="M187.8,131.2c-0.7-2.1-0.2-4.4-0.3-6.6c2.7,3.6,4.6,7.8,7.2,11.5c1,1.3,0.9,2.9,1.2,4.5
		c-6.8-0.1-13.7,0.1-20.5-0.2c-2.1-2.1-3.4-4.9-4.1-7.8c2.5,2.5,4.6,6.6,8.6,6.2c4.1,0,8.5,1.1,12.4-0.6
		C191.9,135.3,190.4,132.7,187.8,131.2z"/>
</g>
<g id="_x23_62de96ff">
	<path class="st22" d="M103.7,129c6.9,0.2,14.1-3.1,20.8-0.2c-6.6,2-12.7,5.4-19.6,6.4c-3.4,0.6-6.9,1.2-10.3,0.2
		c0.9-0.2,2.6-0.6,3.5-0.9c-6-1.7-12.2-1.4-18.3-2.1C87.7,131.8,95.8,130.9,103.7,129z"/>
</g>
<g id="_x23_74f68dff">
	<path class="st23" d="M53.1,140.4c0.1-3.4,2.3-6.2,4.2-8.8c6.9,1.1,13.9,0.1,20.8,0.7c0.4,0,1.2,0.1,1.6,0.1
		c6.1,0.6,12.3,0.3,18.3,2.1c-0.9,0.2-2.6,0.6-3.5,0.9c-3.6,0-6.6,1.9-9.9,3.1c-7.9,2.2-16.3-0.6-24.1,1.9
		C58.1,140.9,55.5,140.4,53.1,140.4z"/>
</g>
<g id="_x23_79da94ff">
	<path class="st24" d="M84.6,138.4c3.2-1.2,6.3-3.1,9.9-3.1c3.4,1,6.9,0.4,10.3-0.2c0.6,0.3,1.7,1,2.3,1.3
		c-3.7,1.9-8.1,1.6-12.1,2.7c-11.4,1.3-23,1.8-34.5,1.2C68.3,137.9,76.7,140.6,84.6,138.4z"/>
</g>
<g id="_x23_ecf6ffff">
	<path class="st25" d="M141.7,157.2c0.8-0.8,1.5-1.6,2.3-2.5c0.6,0.4,1.9,1.1,2.6,1.5c-0.6,3.2-1.1,6.5-1.4,9.8
		c-0.6-0.2-1.8-0.8-2.3-1C142.6,162.4,142.2,159.8,141.7,157.2z"/>
	<path class="st25" d="M43.8,158.4c0.6,0.1,1.9,0.2,2.5,0.2c0.2,2.8,0.3,5.6-0.1,8.4c-0.6,0-1.8,0.1-2.3,0.2
		C43.7,164.3,43.8,161.4,43.8,158.4z"/>
</g>
<g id="_x23_0f06c7ff">
	<path class="st26" d="M24.7,156.2c0.9,0.2,2.6-0.2,2.6,1.2c1.2,7.4,2.2,14.9,3.3,22.3c-0.7-0.1-2-0.2-2.7-0.3
		c-0.5-4.3-1-8.7-1.7-13c-0.1-0.1-0.5-0.4-0.6-0.6c-0.8,4.6-1,9.2-1.8,13.8c-0.7,0-2,0-2.6,0C22.2,171.8,23.5,164,24.7,156.2z"/>
</g>
<g id="_x23_0b1093ff">
	<path class="st27" d="M41.5,156.3c2.2,0.1,5.3-0.9,6.8,1.2c1,3.9,0.1,8,0.2,12.1c0.2,3.3,0.1,6.7,0.1,10c-0.6,0-1.7,0-2.2,0
		c0-3.3,0.1-6.6-0.2-9.9c-0.6-0.1-1.9-0.1-2.5-0.2c-0.1,3.4,0.2,6.8-0.2,10.2l-2,0C41.5,171.9,41.5,164.1,41.5,156.3 M43.5,158.3
		c-0.1,3.1,0.1,6.2-1.1,9.1c1.7,0.2,3.4,0.2,5.1,0.2c-0.9-3.1-0.9-6.2-1-9.3C45.5,157.5,44.5,157.5,43.5,158.3z"/>
	<path class="st27" d="M81.6,171.4l2.2-0.2c0,2.8,0,5.6-0.1,8.4c-0.5,0-1.5-0.1-2-0.2C81.7,176.8,81.7,174.1,81.6,171.4z"/>
</g>
<g id="_x23_151897ff">
	<path class="st28" d="M62.5,156.4c2.4-0.2,4.8-0.2,7.1-0.1c-0.3,0.7-0.7,1.4-1,2.2c-1.2,0.1-2.5,0.1-3.7,0.2c0.3,2.4-1,5.5,0.7,7.5
		c0.7,0,2.1,0,2.8,0c0,2.1-2,2.4-3.7,2.6c0,2.9,0,5.7,0,8.6c1.7,0,3.4-0.1,5.1-0.1c-0.2,0.5-0.5,1.6-0.6,2.2
		c-2.2,0.1-4.4,0.1-6.6,0.1C62.5,171.9,62.6,164.1,62.5,156.4z"/>
	<path class="st28" d="M86.8,156.1c0.6,0.1,1.9,0.4,2.5,0.5c-0.2,7.6-0.2,15.3,0,22.9c-0.8,0-1.7-0.1-2.5-0.1
		c-0.2-0.9-0.3-1.8-0.5-2.7c0.5-0.2,1.5-0.5,2-0.7c0.8-3.4,0.2-7-1-10.2C87.1,162.5,87,159.3,86.8,156.1z"/>
</g>
<g id="_x23_2534bdff">
	<path class="st29" d="M81.6,155.9c3.6-0.6,3,3.6,3.6,5.8c0.3,2.4,0.9,4.7,1.7,7c0.1-0.8,0.3-2.4,0.4-3.1c1.3,3.2,1.9,6.8,1,10.2
		c-0.5,0.2-1.5,0.5-2,0.7c-0.7-2.9-1.7-5.7-2-8.7c-0.1-3.1,0.1-6.4-1.2-9.3c-0.7,3.4-0.6,6.9,0.6,10.1c0,0.6,0.1,1.9,0.1,2.5
		l-2.2,0.2C81.5,166.2,81.5,161.1,81.6,155.9z"/>
</g>
<g id="_x23_a6b7faff">
	<path class="st30" d="M85.1,161.8c0.8-1.8,1.4-3.8,1.7-5.7c0.2,3.2,0.3,6.4,0.4,9.6c-0.1,0.8-0.3,2.3-0.4,3.1
		C86.1,166.5,85.4,164.2,85.1,161.8z"/>
</g>
<g id="_x23_1732b2ff">
	<path class="st31" d="M103.7,156.2c0.9,0.1,1.7,0.2,2.6,0.3c0.7,5.5,1.5,10.9,2.3,16.4c-0.7,1.2-1.3,2.3-1.9,3.5
		c-0.4-4.2-1.1-8.4-1.6-12.6c-0.9,4.4-1.3,8.9-1.9,13.3c-0.5-1.4-1.1-2.9-1.7-4.3C101.7,167.3,103,161.8,103.7,156.2z"/>
</g>
<g id="_x23_4b848dff">
	<path class="st32" d="M200.6,157.4c1.3-1.8,4.1-1.6,5.9-0.8c1.7,0.9,1,3.2,0.9,4.7c-0.5,0.1-1.5,0.3-2,0.4
		c-0.1-1.2-0.2-2.5-0.4-3.7c-0.6,0.2-1.7,0.5-2.3,0.7c-1,3.8,1.8,6.9,2.9,10.3l-1.9,0c-0.5-0.8-0.9-1.5-1.4-2.3
		C200.5,164.1,199.7,160.7,200.6,157.4z"/>
</g>
<g id="_x23_60aa95ff">
	<path class="st33" d="M221.4,156.3c2.1,0,4.3-0.1,6.5-0.1c-0.1,0.5-0.3,1.6-0.4,2.2c-1.2,0.1-2.5,0.2-3.7,0.4
		c-0.1,2.4-0.1,4.8,0,7.1c0.8,0.1,2.3,0.4,3.1,0.5c-0.1,0.5-0.4,1.4-0.5,1.9c-0.7,0.1-2,0.3-2.6,0.4c-0.1,2.9-0.2,5.7-0.2,8.6
		c1.8,0,3.6,0.1,5.4,0.4c-1.5,2.9-5,1.5-7.6,1.9C221.4,171.9,221.3,164.1,221.4,156.3z"/>
</g>
<g id="_x23_1824dcff">
	<path class="st34" d="M83,158.6c1.3,2.9,1.2,6.2,1.2,9.3l-0.6,0.8C82.4,165.5,82.3,162,83,158.6z"/>
</g>
<g id="_x23_cff3f9ff">
	<path class="st35" d="M182.6,158.3c0.6,0.1,1.9,0.4,2.6,0.5c0.3,2.5,0.3,5,0.1,7.5c-0.1,1.6-1.6,1.4-2.8,1.2
		C182.5,164.4,182.5,161.4,182.6,158.3z"/>
</g>
<g id="_x23_efffffff">
	<path class="st36" d="M105,163.9c0.5,4.2,1.2,8.4,1.6,12.6c0,0.7,0.1,2.1,0.1,2.8c-1.9,1-5.5,3.8-6.5,0.5c0.6,0,1.9-0.1,2.6-0.1
		c0.1-0.6,0.2-1.8,0.3-2.4C103.6,172.7,104.1,168.3,105,163.9z"/>
</g>
<g id="_x23_9cc8f6ff">
	<path class="st37" d="M142.8,165c0.6,0.3,1.8,0.8,2.3,1c-0.1,1.5-0.2,3-0.2,4.5c-0.4-0.1-1.2-0.2-1.7-0.3
		C143.1,168.5,143,166.8,142.8,165z"/>
</g>
<g id="_x23_d4fafdff">
	<path class="st38" d="M202.4,166.9c0.4,0.8,0.9,1.5,1.4,2.3c1.2,2.6,2.4,5.7,1,8.5c-2.7,0.8-1.8-2.8-2.1-4.4
		c-0.5-0.1-1.6-0.2-2.1-0.3C201.3,171,201.9,168.9,202.4,166.9z"/>
	<path class="st38" d="M187.4,168.4c2.3,3.2,0.6,7.8,0.4,11.6c-1.8,0.5-3.5,0-5.2-0.4c-0.1-3.4-0.1-6.9,0-10.3
		c0.6,0.1,1.9,0.4,2.6,0.5c0.4,3.3,0.2,6.7,0.3,10.1l1.8-0.7C187.6,175.6,187.2,172,187.4,168.4z"/>
</g>
<g id="_x23_67ac95ff">
	<path class="st39" d="M203.8,169.2l1.9,0c2.9,2.1,2.2,6.9,1.6,10.1c-2.2,0.6-4.4,0.6-6.6,0c-0.4-2.1-0.6-4.1-0.2-6.2
		c0.5,0.1,1.6,0.2,2.1,0.3c0.3,1.6-0.6,5.2,2.1,4.4C206.2,174.9,205,171.8,203.8,169.2z"/>
</g>
<g id="_x23_536d7eff">
	<path class="st40" d="M142.4,176.3c1.1,0,2.2-0.1,3.3-0.1c-0.1,1.1-0.2,2.3-0.4,3.4c-0.9-0.1-1.8-0.3-2.6-0.4
		C142.6,178.3,142.6,177.3,142.4,176.3z"/>
</g>
</svg>
