<?xml version="1.0" encoding="UTF-8" ?>
<!DOCTYPE svg PUBLIC "-//W3C//DTD SVG 1.1//EN" "http://www.w3.org/Graphics/SVG/1.1/DTD/svg11.dtd">
<svg width="250pt" height="231pt" viewBox="0 0 250 231" version="1.1" xmlns="http://www.w3.org/2000/svg">
<g id="#ffffffff">
<path fill="#ffffff" opacity="1.00" d=" M 0.00 0.00 L 250.00 0.00 L 250.00 231.00 L 0.00 231.00 L 0.00 0.00 M 98.51 28.37 L 97.41 28.41 C 97.54 33.11 98.85 37.90 102.53 41.09 C 103.46 42.10 104.40 43.11 105.20 44.23 C 105.13 46.84 105.68 49.81 103.95 52.03 C 102.28 54.41 100.33 56.56 98.55 58.86 C 97.74 61.80 97.46 64.86 97.97 67.87 C 100.20 71.09 102.98 73.85 105.29 76.99 C 105.16 79.17 105.45 81.50 104.53 83.54 C 102.50 86.80 99.00 89.21 98.44 93.27 L 97.44 93.64 C 97.50 96.96 98.25 100.23 99.69 103.23 C 101.51 104.71 103.23 106.43 105.44 107.31 C 108.30 107.91 111.26 107.52 114.16 107.58 L 113.98 107.09 C 116.58 105.64 120.34 104.21 120.63 100.80 C 123.40 100.33 126.19 99.94 129.01 99.76 C 131.60 102.52 134.20 105.37 137.55 107.25 L 137.04 107.56 C 141.21 107.45 146.06 108.62 149.50 105.56 C 155.33 101.47 155.66 91.24 149.82 87.06 C 146.94 84.46 145.69 80.86 145.72 77.02 C 147.88 75.10 149.95 73.05 151.80 70.83 C 154.56 67.72 153.92 63.18 153.45 59.40 C 151.86 55.75 148.31 53.54 145.79 50.59 C 146.78 48.86 145.99 46.66 146.11 44.75 C 150.00 40.71 154.96 36.15 154.20 29.95 C 153.87 25.74 150.75 22.63 147.44 20.38 C 145.18 19.89 142.89 19.54 140.61 19.21 C 140.48 19.46 140.23 19.96 140.10 20.21 C 135.24 19.86 132.32 24.19 130.41 27.99 C 129.96 32.25 130.44 36.92 133.93 39.86 C 135.41 41.58 137.05 43.20 138.21 45.18 C 137.84 47.17 137.74 49.25 136.97 51.14 C 135.27 54.24 132.18 56.39 130.77 59.67 C 129.77 61.94 130.27 64.45 130.55 66.82 C 130.72 67.39 131.05 68.53 131.22 69.11 C 133.69 71.93 136.44 74.60 138.30 77.90 C 137.96 83.62 134.21 88.44 129.32 91.15 C 127.02 92.01 124.49 91.68 122.09 91.84 C 120.13 89.75 118.36 87.29 115.74 85.98 C 113.14 82.43 112.63 77.65 115.59 74.14 C 117.77 72.44 120.14 70.61 120.98 67.84 C 122.72 62.46 120.65 54.91 114.74 53.20 C 113.12 49.44 113.03 45.18 115.68 41.86 C 119.86 39.15 122.28 33.93 121.42 28.98 C 120.98 25.11 117.76 22.57 115.01 20.21 C 112.55 19.80 110.07 19.56 107.58 19.43 C 103.28 20.68 99.04 23.54 98.51 28.37 M 81.43 118.45 C 77.58 121.60 77.48 126.99 74.95 130.97 C 73.13 132.64 70.40 132.56 68.12 133.11 C 66.76 132.78 65.43 132.36 64.05 132.11 C 59.44 130.09 54.44 132.93 51.61 136.59 C 49.03 140.01 49.09 144.92 45.94 147.93 C 42.56 149.72 38.57 148.03 34.99 147.84 C 29.63 146.74 24.50 150.43 21.95 154.91 C 20.36 157.59 21.13 160.80 21.52 163.71 C 21.62 164.11 21.82 164.92 21.93 165.32 C 23.99 167.58 25.83 170.41 28.93 171.34 C 35.84 174.23 43.79 169.16 45.16 162.03 C 45.82 158.48 47.89 154.17 52.11 154.30 C 56.48 154.52 60.73 156.60 65.16 155.29 C 69.46 153.95 72.32 149.89 73.07 145.58 C 73.77 142.88 74.82 139.93 77.54 138.67 C 81.54 137.58 85.55 139.22 89.45 139.95 C 91.05 140.88 92.64 141.84 94.23 142.79 C 94.88 146.50 94.23 150.22 94.19 153.93 C 92.70 156.37 91.87 160.01 88.69 160.74 C 84.57 161.35 80.47 160.10 76.40 159.57 C 71.66 160.33 68.02 163.57 65.98 167.80 C 65.03 171.09 64.55 175.63 60.70 176.81 C 56.50 177.61 52.27 176.17 48.11 175.72 C 43.94 176.72 40.09 179.20 38.14 183.10 C 36.54 185.74 37.29 188.90 37.79 191.73 C 37.80 192.05 37.84 192.68 37.85 192.99 C 39.99 195.33 41.90 198.11 44.89 199.45 C 48.45 200.51 52.45 200.63 55.66 198.50 C 58.75 196.86 60.27 193.56 61.32 190.40 C 61.98 186.54 64.36 181.70 69.03 182.30 C 73.30 182.99 77.58 184.44 81.95 183.23 C 85.70 181.63 88.40 178.29 89.39 174.36 C 89.85 171.90 90.32 169.09 92.55 167.56 C 94.63 165.79 97.52 166.39 100.02 166.39 L 100.64 167.18 L 99.83 167.25 C 104.29 167.58 109.49 168.46 113.11 165.11 C 113.97 164.07 116.16 163.05 115.77 161.59 C 119.31 156.60 117.36 150.15 113.39 146.08 C 112.90 145.86 112.45 145.61 111.96 145.41 C 109.02 144.19 105.94 143.37 102.92 142.40 L 103.38 141.37 C 102.80 141.43 101.64 141.56 101.07 141.63 C 99.67 138.03 99.46 134.14 101.19 130.61 C 102.18 125.62 100.22 120.31 96.04 117.36 C 94.76 116.74 93.48 116.10 92.11 115.70 C 88.33 114.78 84.24 115.69 81.43 118.45 M 148.51 122.50 L 147.51 122.51 C 147.32 125.96 146.99 129.49 148.14 132.82 C 148.56 135.91 148.46 139.67 145.82 141.80 C 142.67 143.61 138.77 143.66 135.74 145.74 C 133.79 147.20 132.58 149.37 131.21 151.33 C 130.35 154.81 130.68 158.38 131.94 161.73 C 133.99 164.09 136.29 166.47 139.40 167.33 C 142.33 167.91 145.38 167.53 148.23 166.69 L 147.35 166.70 C 149.86 166.62 152.70 165.61 155.01 167.03 C 160.01 170.06 158.35 177.03 162.39 180.90 C 164.49 182.03 166.50 183.73 169.02 183.72 C 173.87 184.20 178.38 181.55 183.27 182.41 C 185.61 185.70 186.47 189.74 188.34 193.20 C 190.93 200.37 200.97 202.61 206.53 197.51 C 212.46 192.88 212.55 182.99 206.40 178.51 C 201.20 174.01 194.22 177.59 188.22 177.12 C 187.57 176.93 186.27 176.54 185.62 176.35 C 185.61 175.44 185.27 174.92 184.59 174.77 C 182.83 169.31 181.08 162.03 174.63 160.51 C 172.86 160.20 171.09 159.92 169.30 159.71 C 165.49 160.91 161.48 161.19 157.58 160.26 C 157.28 159.25 156.90 157.53 155.63 157.50 C 155.05 153.36 153.13 149.30 153.71 145.07 C 155.33 140.09 161.05 139.71 165.24 138.23 C 167.82 138.59 170.90 137.98 172.89 140.08 C 175.26 142.51 175.20 146.17 175.82 149.30 L 176.30 149.12 C 178.19 152.78 181.76 155.79 186.05 155.80 C 190.61 156.32 195.43 152.48 199.69 155.41 C 203.30 158.47 203.42 163.71 205.48 167.73 L 206.23 167.81 C 209.17 171.27 214.22 173.35 218.61 171.53 C 223.45 170.33 226.56 165.61 227.40 160.94 C 227.90 155.94 224.57 151.44 220.48 148.93 L 220.97 148.61 C 218.26 148.80 214.65 147.35 212.45 148.79 C 208.85 148.70 205.24 148.83 201.66 148.26 C 201.90 147.02 201.42 146.32 200.22 146.19 C 199.61 140.10 196.41 133.60 189.96 132.13 C 187.80 132.18 185.65 132.24 183.50 132.37 C 180.49 132.62 177.47 132.66 174.45 132.61 C 174.74 131.13 173.29 130.30 172.02 130.18 C 171.37 124.90 169.39 119.66 164.73 116.66 C 163.99 116.34 162.50 115.68 161.76 115.36 C 156.31 114.34 150.35 117.04 148.51 122.50 Z" />
</g>
<g id="#98a8edff">
<path fill="#98a8ed" opacity="1.00" d=" M 98.51 28.37 C 99.04 23.54 103.28 20.68 107.58 19.43 C 106.46 22.51 105.02 25.47 103.13 28.15 C 101.59 28.25 100.05 28.32 98.51 28.37 Z" />
</g>
<g id="#6764d4ff">
<path fill="#6764d4" opacity="1.00" d=" M 107.58 19.43 C 110.07 19.56 112.55 19.80 115.01 20.21 C 113.74 21.00 112.48 21.78 111.23 22.59 C 108.72 24.26 106.33 26.09 103.81 27.74 L 103.13 28.15 C 105.02 25.47 106.46 22.51 107.58 19.43 Z" />
</g>
<g id="#ee79a9ff">
<path fill="#ee79a9" opacity="1.00" d=" M 130.41 27.99 C 132.32 24.19 135.24 19.86 140.10 20.21 C 139.08 22.14 138.27 24.25 136.74 25.84 C 134.83 27.03 132.55 27.38 130.41 27.99 Z" />
</g>
<g id="#d72174ff">
<path fill="#d72174" opacity="1.00" d=" M 140.10 20.21 C 140.23 19.96 140.48 19.46 140.61 19.21 C 140.80 20.91 141.00 22.61 141.21 24.31 C 138.10 26.40 134.94 28.72 133.01 32.01 C 131.53 34.52 133.04 37.42 133.93 39.86 C 130.44 36.92 129.96 32.25 130.41 27.99 C 132.55 27.38 134.83 27.03 136.74 25.84 C 138.27 24.25 139.08 22.14 140.10 20.21 Z" />
</g>
<g id="#d50e4bff">
<path fill="#d50e4b" opacity="1.00" d=" M 140.61 19.21 C 142.89 19.54 145.18 19.89 147.44 20.38 C 145.36 21.68 143.27 22.97 141.21 24.31 C 141.00 22.61 140.80 20.91 140.61 19.21 Z" />
</g>
<g id="#5f2f83ff">
<path fill="#5f2f83" opacity="1.00" d=" M 111.23 22.59 C 112.48 21.78 113.74 21.00 115.01 20.21 C 117.76 22.57 120.98 25.11 121.42 28.98 C 122.28 33.93 119.86 39.15 115.68 41.86 C 113.95 42.97 112.17 43.99 110.29 44.83 C 110.31 42.29 110.30 39.75 110.38 37.22 C 111.59 36.26 112.82 35.33 113.89 34.21 C 113.12 33.80 111.58 32.99 110.81 32.58 C 112.63 31.34 114.55 30.25 116.46 29.16 C 115.07 26.71 113.28 24.52 111.23 22.59 Z" />
</g>
<g id="#9d0028ff">
<path fill="#9d0028" opacity="1.00" d=" M 141.21 24.31 C 143.27 22.97 145.36 21.68 147.44 20.38 C 150.75 22.63 153.87 25.74 154.20 29.95 C 154.96 36.15 150.00 40.71 146.11 44.75 C 143.77 45.52 141.38 46.09 138.99 46.64 C 138.79 46.28 138.40 45.54 138.21 45.18 C 137.05 43.20 135.41 41.58 133.93 39.86 C 133.04 37.42 131.53 34.52 133.01 32.01 C 134.94 28.72 138.10 26.40 141.21 24.31 M 141.60 37.34 C 142.19 37.24 143.35 37.04 143.94 36.94 C 146.55 36.28 145.21 33.17 145.13 31.35 C 143.45 33.02 142.28 35.08 141.60 37.34 Z" />
</g>
<g id="#373587ff">
<path fill="#373587" opacity="1.00" d=" M 103.81 27.74 C 106.33 26.09 108.72 24.26 111.23 22.59 C 113.28 24.52 115.07 26.71 116.46 29.16 C 114.55 30.25 112.63 31.34 110.81 32.58 C 110.59 34.12 110.40 35.66 110.38 37.22 C 110.30 39.75 110.31 42.29 110.29 44.83 C 108.87 45.17 107.43 45.42 105.99 45.68 C 105.79 45.32 105.40 44.59 105.20 44.23 C 104.40 43.11 103.46 42.10 102.53 41.09 C 102.81 36.62 103.23 32.17 103.81 27.74 Z" />
</g>
<g id="#345fc5ff">
<path fill="#345fc5" opacity="1.00" d=" M 97.41 28.41 L 98.51 28.37 C 100.05 28.32 101.59 28.25 103.13 28.15 L 103.81 27.74 C 103.23 32.17 102.81 36.62 102.53 41.09 C 98.85 37.90 97.54 33.11 97.41 28.41 Z" />
</g>
<g id="#d4254dff">
<path fill="#d4254d" opacity="1.00" d=" M 141.60 37.34 C 142.28 35.08 143.45 33.02 145.13 31.35 C 145.21 33.17 146.55 36.28 143.94 36.94 C 143.35 37.04 142.19 37.24 141.60 37.34 Z" />
</g>
<g id="#7a68aeff">
<path fill="#7a68ae" opacity="1.00" d=" M 110.38 37.22 C 110.40 35.66 110.59 34.12 110.81 32.58 C 111.58 32.99 113.12 33.80 113.89 34.21 C 112.82 35.33 111.59 36.26 110.38 37.22 Z" />
</g>
<g id="#624cbbff">
<path fill="#624cbb" opacity="1.00" d=" M 110.29 44.83 C 112.17 43.99 113.95 42.97 115.68 41.86 C 113.03 45.18 113.12 49.44 114.74 53.20 C 114.36 53.11 113.60 52.94 113.22 52.86 C 112.31 52.68 111.39 52.51 110.48 52.34 C 109.02 53.91 107.52 55.45 106.05 57.00 L 105.57 57.49 C 108.25 53.99 107.75 49.46 105.99 45.68 C 107.43 45.42 108.87 45.17 110.29 44.83 Z" />
</g>
<g id="#92a7e9ff">
<path fill="#92a7e9" opacity="1.00" d=" M 105.20 44.23 C 105.40 44.59 105.79 45.32 105.99 45.68 C 107.75 49.46 108.25 53.99 105.57 57.49 C 105.31 57.75 104.78 58.27 104.51 58.53 C 102.53 58.71 100.54 58.78 98.55 58.86 C 100.33 56.56 102.28 54.41 103.95 52.03 C 105.68 49.81 105.13 46.84 105.20 44.23 Z" />
</g>
<g id="#fa618eff">
<path fill="#fa618e" opacity="1.00" d=" M 138.21 45.18 C 138.40 45.54 138.79 46.28 138.99 46.64 C 139.65 49.77 139.84 53.01 139.40 56.18 C 138.67 56.80 137.93 57.41 137.19 58.01 C 134.95 59.44 131.06 59.79 130.91 63.09 C 130.71 64.32 130.59 65.57 130.55 66.82 C 130.27 64.45 129.77 61.94 130.77 59.67 C 132.18 56.39 135.27 54.24 136.97 51.14 C 137.74 49.25 137.84 47.17 138.21 45.18 Z" />
</g>
<g id="#ce0235ff">
<path fill="#ce0235" opacity="1.00" d=" M 138.99 46.64 C 141.38 46.09 143.77 45.52 146.11 44.75 C 145.99 46.66 146.78 48.86 145.79 50.59 C 143.77 52.58 141.57 54.36 139.40 56.18 C 139.84 53.01 139.65 49.77 138.99 46.64 Z" />
</g>
<g id="#a3002eff">
<path fill="#a3002e" opacity="1.00" d=" M 139.40 56.18 C 141.57 54.36 143.77 52.58 145.79 50.59 C 148.31 53.54 151.86 55.75 153.45 59.40 C 153.92 63.18 154.56 67.72 151.80 70.83 C 149.95 73.05 147.88 75.10 145.72 77.02 C 143.69 78.35 141.48 79.39 139.30 80.44 C 139.05 79.81 138.55 78.54 138.30 77.90 C 136.44 74.60 133.69 71.93 131.22 69.11 C 133.19 65.40 135.06 61.63 137.19 58.01 C 137.93 57.41 138.67 56.80 139.40 56.18 M 141.78 69.36 C 143.39 69.81 144.99 70.27 146.61 70.71 C 146.08 68.30 145.48 65.91 144.79 63.54 C 143.62 65.39 142.62 67.34 141.78 69.36 Z" />
</g>
<g id="#3a3782ff">
<path fill="#3a3782" opacity="1.00" d=" M 110.48 52.34 C 111.39 52.51 112.31 52.68 113.22 52.86 C 115.24 56.57 117.46 60.65 116.51 65.03 C 115.11 65.20 113.69 65.18 112.29 65.16 C 111.78 65.13 110.77 65.09 110.26 65.06 C 109.30 67.58 110.50 70.05 111.53 72.32 C 111.02 74.16 110.48 76.00 109.94 77.83 C 107.58 76.02 104.64 74.36 103.76 71.31 C 102.47 66.47 104.11 61.44 106.05 57.00 C 107.52 55.45 109.02 53.91 110.48 52.34 Z" />
</g>
<g id="#883790ff">
<path fill="#883790" opacity="1.00" d=" M 113.22 52.86 C 113.60 52.94 114.36 53.11 114.74 53.20 C 120.65 54.91 122.72 62.46 120.98 67.84 C 120.14 70.61 117.77 72.44 115.59 74.14 C 114.51 71.13 113.52 68.10 112.29 65.16 C 113.69 65.18 115.11 65.20 116.51 65.03 C 117.46 60.65 115.24 56.57 113.22 52.86 Z" />
</g>
<g id="#3462b5ff">
<path fill="#3462b5" opacity="1.00" d=" M 105.57 57.49 L 106.05 57.00 C 104.11 61.44 102.47 66.47 103.76 71.31 C 104.64 74.36 107.58 76.02 109.94 77.83 C 109.70 78.64 109.46 79.45 109.22 80.26 C 108.71 80.46 107.70 80.85 107.19 81.05 C 106.63 79.66 106.00 78.31 105.29 76.99 C 102.98 73.85 100.20 71.09 97.97 67.87 C 99.62 64.42 101.62 61.09 104.51 58.53 C 104.78 58.27 105.31 57.75 105.57 57.49 Z" />
</g>
<g id="#6393deff">
<path fill="#6393de" opacity="1.00" d=" M 98.55 58.86 C 100.54 58.78 102.53 58.71 104.51 58.53 C 101.62 61.09 99.62 64.42 97.97 67.87 C 97.46 64.86 97.74 61.80 98.55 58.86 Z" />
</g>
<g id="#e30753ff">
<path fill="#e30753" opacity="1.00" d=" M 130.91 63.09 C 131.06 59.79 134.95 59.44 137.19 58.01 C 135.06 61.63 133.19 65.40 131.22 69.11 C 131.05 68.53 130.72 67.39 130.55 66.82 C 130.59 65.57 130.71 64.32 130.91 63.09 Z" />
</g>
<g id="#ee3567ff">
<path fill="#ee3567" opacity="1.00" d=" M 141.78 69.36 C 142.62 67.34 143.62 65.39 144.79 63.54 C 145.48 65.91 146.08 68.30 146.61 70.71 C 144.99 70.27 143.39 69.81 141.78 69.36 Z" />
</g>
<g id="#5f53b8ff">
<path fill="#5f53b8" opacity="1.00" d=" M 111.53 72.32 C 110.50 70.05 109.30 67.58 110.26 65.06 C 110.77 65.09 111.78 65.13 112.29 65.16 C 113.52 68.10 114.51 71.13 115.59 74.14 C 112.63 77.65 113.14 82.43 115.74 85.98 C 115.07 85.75 113.75 85.29 113.08 85.06 L 112.21 85.36 C 110.90 85.81 109.58 86.29 108.32 86.87 C 107.97 84.92 107.65 82.97 107.19 81.05 C 107.70 80.85 108.71 80.46 109.22 80.26 C 109.46 79.45 109.70 78.64 109.94 77.83 C 110.48 76.00 111.02 74.16 111.53 72.32 Z" />
</g>
<g id="#8eb0ecff">
<path fill="#8eb0ec" opacity="1.00" d=" M 105.29 76.99 C 106.00 78.31 106.63 79.66 107.19 81.05 C 107.65 82.97 107.97 84.92 108.32 86.87 C 107.54 87.58 106.78 88.31 106.04 89.06 C 103.92 91.12 101.20 92.32 98.44 93.27 C 99.00 89.21 102.50 86.80 104.53 83.54 C 105.45 81.50 105.16 79.17 105.29 76.99 Z" />
</g>
<g id="#d1024dff">
<path fill="#d1024d" opacity="1.00" d=" M 139.30 80.44 C 141.48 79.39 143.69 78.35 145.72 77.02 C 145.69 80.86 146.94 84.46 149.82 87.06 C 148.86 86.51 147.88 85.98 146.90 85.47 C 145.99 85.00 145.07 84.54 144.16 84.08 C 140.56 88.30 136.75 92.51 131.78 95.14 L 132.32 94.69 C 136.18 90.92 141.32 86.50 139.30 80.44 Z" />
</g>
<g id="#fb7bafff">
<path fill="#fb7baf" opacity="1.00" d=" M 138.30 77.90 C 138.55 78.54 139.05 79.81 139.30 80.44 C 141.32 86.50 136.18 90.92 132.32 94.69 C 128.88 93.84 125.46 92.91 122.09 91.84 C 124.49 91.68 127.02 92.01 129.32 91.15 C 134.21 88.44 137.96 83.62 138.30 77.90 Z" />
</g>
<g id="#970038ff">
<path fill="#970038" opacity="1.00" d=" M 131.78 95.14 C 136.75 92.51 140.56 88.30 144.16 84.08 C 145.07 84.54 145.99 85.00 146.90 85.47 C 148.41 88.65 150.91 91.86 150.55 95.54 C 149.38 98.61 145.90 96.44 143.68 96.14 C 142.75 97.00 141.83 97.87 140.92 98.74 C 141.91 100.25 142.92 101.75 143.92 103.25 C 141.80 104.59 139.68 105.93 137.55 107.25 C 134.20 105.37 131.60 102.52 129.01 99.76 C 128.38 99.08 127.77 98.40 127.15 97.72 C 128.71 96.88 130.28 96.07 131.78 95.14 Z" />
</g>
<g id="#2c4794ff">
<path fill="#2c4794" opacity="1.00" d=" M 108.32 86.87 C 109.58 86.29 110.90 85.81 112.21 85.36 C 109.36 88.11 107.32 91.55 105.52 95.05 C 107.61 95.31 109.69 95.57 111.79 95.70 C 111.41 96.65 111.03 97.60 110.65 98.54 C 111.83 101.36 112.92 104.22 113.98 107.09 L 114.16 107.58 C 111.26 107.52 108.30 107.91 105.44 107.31 C 103.23 106.43 101.51 104.71 99.69 103.23 C 102.01 98.60 103.80 93.72 106.04 89.06 C 106.78 88.31 107.54 87.58 108.32 86.87 Z" />
</g>
<g id="#3e357bff">
<path fill="#3e357b" opacity="1.00" d=" M 105.52 95.05 C 107.32 91.55 109.36 88.11 112.21 85.36 L 113.08 85.06 C 114.83 88.47 116.30 92.01 117.46 95.66 C 115.57 95.70 113.68 95.74 111.79 95.70 C 109.69 95.57 107.61 95.31 105.52 95.05 Z" />
</g>
<g id="#74409eff">
<path fill="#74409e" opacity="1.00" d=" M 113.08 85.06 C 113.75 85.29 115.07 85.75 115.74 85.98 C 118.36 87.29 120.13 89.75 122.09 91.84 C 121.33 94.77 120.94 97.79 120.63 100.80 C 120.34 104.21 116.58 105.64 113.98 107.09 C 112.92 104.22 111.83 101.36 110.65 98.54 C 111.03 97.60 111.41 96.65 111.79 95.70 C 113.68 95.74 115.57 95.70 117.46 95.66 C 116.30 92.01 114.83 88.47 113.08 85.06 Z" />
</g>
<g id="#b8004eff">
<path fill="#b8004e" opacity="1.00" d=" M 150.55 95.54 C 150.91 91.86 148.41 88.65 146.90 85.47 C 147.88 85.98 148.86 86.51 149.82 87.06 C 155.66 91.24 155.33 101.47 149.50 105.56 C 146.06 108.62 141.21 107.45 137.04 107.56 L 137.55 107.25 C 139.68 105.93 141.80 104.59 143.92 103.25 C 142.92 101.75 141.91 100.25 140.92 98.74 C 141.83 97.87 142.75 97.00 143.68 96.14 C 145.90 96.44 149.38 98.61 150.55 95.54 Z" />
</g>
<g id="#2f7fd0ff">
<path fill="#2f7fd0" opacity="1.00" d=" M 98.44 93.27 C 101.20 92.32 103.92 91.12 106.04 89.06 C 103.80 93.72 102.01 98.60 99.69 103.23 C 98.25 100.23 97.50 96.96 97.44 93.64 L 98.44 93.27 Z" />
</g>
<g id="#af2989ff">
<path fill="#af2989" opacity="1.00" d=" M 120.63 100.80 C 120.94 97.79 121.33 94.77 122.09 91.84 C 125.46 92.91 128.88 93.84 132.32 94.69 L 131.78 95.14 C 130.28 96.07 128.71 96.88 127.15 97.72 C 127.77 98.40 128.38 99.08 129.01 99.76 C 126.19 99.94 123.40 100.33 120.63 100.80 Z" />
</g>
<g id="#7ee0f2ff">
<path fill="#7ee0f2" opacity="1.00" d=" M 81.43 118.45 C 84.24 115.69 88.33 114.78 92.11 115.70 C 91.42 115.68 90.04 115.64 89.34 115.63 C 85.52 120.86 81.11 125.70 78.27 131.59 C 75.10 133.01 71.59 134.21 68.12 133.11 C 70.40 132.56 73.13 132.64 74.95 130.97 C 77.48 126.99 77.58 121.60 81.43 118.45 Z" />
</g>
<g id="#ff85baff">
<path fill="#ff85ba" opacity="1.00" d=" M 148.51 122.50 C 150.35 117.04 156.31 114.34 161.76 115.36 C 157.92 115.66 156.27 119.14 154.90 122.24 C 152.77 122.42 150.64 122.47 148.51 122.50 Z" />
</g>
<g id="#26b0dbff">
<path fill="#26b0db" opacity="1.00" d=" M 78.27 131.59 C 81.11 125.70 85.52 120.86 89.34 115.63 C 90.04 115.64 91.42 115.68 92.11 115.70 C 93.48 116.10 94.76 116.74 96.04 117.36 C 95.54 117.57 94.55 117.98 94.05 118.19 C 90.99 119.61 87.86 121.07 85.31 123.33 C 82.45 125.97 81.28 129.82 79.90 133.33 C 77.34 134.84 74.68 136.21 71.83 137.08 C 66.75 137.43 61.63 137.46 56.62 138.49 L 57.02 137.87 C 57.24 137.58 57.69 137.00 57.91 136.71 C 62.75 135.65 67.73 136.01 72.63 135.52 C 75.15 135.46 76.83 133.39 78.27 131.59 Z" />
</g>
<g id="#fd117cff">
<path fill="#fd117c" opacity="1.00" d=" M 154.90 122.24 C 156.27 119.14 157.92 115.66 161.76 115.36 C 162.50 115.68 163.99 116.34 164.73 116.66 C 162.21 118.58 159.62 120.40 156.89 122.00 C 156.40 122.06 155.40 122.18 154.90 122.24 Z" />
</g>
<g id="#990034ff">
<path fill="#990034" opacity="1.00" d=" M 156.89 122.00 C 159.62 120.40 162.21 118.58 164.73 116.66 C 169.39 119.66 171.37 124.90 172.02 130.18 C 167.93 129.58 163.69 128.71 159.58 129.59 C 158.11 129.86 157.54 131.43 157.30 132.71 C 159.46 135.16 162.33 136.83 165.24 138.23 C 161.05 139.71 155.33 140.09 153.71 145.07 C 153.13 149.30 155.05 153.36 155.63 157.50 C 151.85 157.27 148.06 157.25 144.27 157.13 C 144.30 160.35 144.33 163.58 144.32 166.81 C 145.33 166.78 146.34 166.74 147.35 166.70 L 148.23 166.69 C 145.38 167.53 142.33 167.91 139.40 167.33 C 136.29 166.47 133.99 164.09 131.94 161.73 C 133.76 158.67 135.33 155.49 136.99 152.36 C 137.58 151.54 138.24 150.78 138.96 150.09 C 142.94 148.28 148.27 147.71 150.43 143.38 C 152.67 138.38 151.64 132.71 152.72 127.45 C 153.17 125.08 155.16 123.49 156.89 122.00 Z" />
</g>
<g id="#086cc1ff">
<path fill="#086cc1" opacity="1.00" d=" M 85.31 123.33 C 87.86 121.07 90.99 119.61 94.05 118.19 C 94.62 122.05 95.45 125.87 96.36 129.66 C 97.66 129.96 98.97 130.24 100.28 130.50 C 97.08 130.29 93.87 130.19 90.67 129.98 C 90.42 132.09 90.17 134.20 89.92 136.32 C 86.59 135.27 83.26 134.25 79.90 133.33 C 81.28 129.82 82.45 125.97 85.31 123.33 Z" />
</g>
<g id="#1b699cff">
<path fill="#1b699c" opacity="1.00" d=" M 94.05 118.19 C 94.55 117.98 95.54 117.57 96.04 117.36 C 100.22 120.31 102.18 125.62 101.19 130.61 L 100.28 130.50 C 98.97 130.24 97.66 129.96 96.36 129.66 C 95.45 125.87 94.62 122.05 94.05 118.19 Z" />
</g>
<g id="#ce014fff">
<path fill="#ce014f" opacity="1.00" d=" M 147.51 122.51 L 148.51 122.50 C 150.64 122.47 152.77 122.42 154.90 122.24 C 155.40 122.18 156.40 122.06 156.89 122.00 C 155.16 123.49 153.17 125.08 152.72 127.45 C 151.64 132.71 152.67 138.38 150.43 143.38 C 148.27 147.71 142.94 148.28 138.96 150.09 C 141.76 147.47 145.46 145.93 147.95 142.99 C 149.55 139.85 148.87 136.11 148.14 132.82 C 146.99 129.49 147.32 125.96 147.51 122.51 Z" />
</g>
<g id="#cd0054ff">
<path fill="#cd0054" opacity="1.00" d=" M 159.58 129.59 C 163.69 128.71 167.93 129.58 172.02 130.18 C 173.29 130.30 174.74 131.13 174.45 132.61 C 174.90 135.02 173.82 139.32 177.22 139.79 C 181.51 140.53 182.20 135.21 183.50 132.37 C 185.65 132.24 187.80 132.18 189.96 132.13 C 187.43 134.90 184.36 137.20 182.17 140.27 C 182.13 141.94 183.29 143.45 184.86 143.99 C 188.34 145.31 192.13 145.43 195.80 145.79 C 195.24 147.41 195.25 149.78 193.22 150.31 C 187.38 153.14 181.96 145.50 176.30 149.12 L 175.82 149.30 C 175.20 146.17 175.26 142.51 172.89 140.08 C 170.90 137.98 167.82 138.59 165.24 138.23 C 162.33 136.83 159.46 135.16 157.30 132.71 C 157.54 131.43 158.11 129.86 159.58 129.59 Z" />
</g>
<g id="#1d8fdaff">
<path fill="#1d8fda" opacity="1.00" d=" M 89.92 136.32 C 90.17 134.20 90.42 132.09 90.67 129.98 C 93.87 130.19 97.08 130.29 100.28 130.50 L 101.19 130.61 C 99.46 134.14 99.67 138.03 101.07 141.63 C 98.78 141.94 96.50 142.37 94.23 142.79 C 92.64 141.84 91.05 140.88 89.45 139.95 C 89.61 138.74 89.76 137.53 89.92 136.32 Z" />
</g>
<g id="#88e9f0ff">
<path fill="#88e9f0" opacity="1.00" d=" M 51.61 136.59 C 54.44 132.93 59.44 130.09 64.05 132.11 C 62.75 132.23 61.46 132.39 60.16 132.57 C 59.46 133.97 58.74 135.37 57.91 136.71 C 57.69 137.00 57.24 137.58 57.02 137.87 C 53.78 141.40 51.44 145.70 47.94 148.97 C 43.49 151.24 38.22 148.08 33.67 149.50 C 30.25 152.18 27.11 155.22 23.42 157.55 C 21.16 158.71 21.64 161.59 21.52 163.71 C 21.13 160.80 20.36 157.59 21.95 154.91 C 24.50 150.43 29.63 146.74 34.99 147.84 C 38.57 148.03 42.56 149.72 45.94 147.93 C 49.09 144.92 49.03 140.01 51.61 136.59 Z" />
</g>
<g id="#2cd1e5ff">
<path fill="#2cd1e5" opacity="1.00" d=" M 68.12 133.11 C 71.59 134.21 75.10 133.01 78.27 131.59 C 76.83 133.39 75.15 135.46 72.63 135.52 C 67.73 136.01 62.75 135.65 57.91 136.71 C 58.74 135.37 59.46 133.97 60.16 132.57 C 61.46 132.39 62.75 132.23 64.05 132.11 C 65.43 132.36 66.76 132.78 68.12 133.11 Z" />
</g>
<g id="#14859eff">
<path fill="#14859e" opacity="1.00" d=" M 71.83 137.08 C 74.68 136.21 77.34 134.84 79.90 133.33 C 83.26 134.25 86.59 135.27 89.92 136.32 C 89.76 137.53 89.61 138.74 89.45 139.95 C 85.55 139.22 81.54 137.58 77.54 138.67 C 74.82 139.93 73.77 142.88 73.07 145.58 C 71.52 146.06 69.97 146.55 68.45 147.11 C 69.19 143.65 70.36 140.29 71.83 137.08 Z" />
</g>
<g id="#f870a0ff">
<path fill="#f870a0" opacity="1.00" d=" M 148.14 132.82 C 148.87 136.11 149.55 139.85 147.95 142.99 C 145.46 145.93 141.76 147.47 138.96 150.09 C 138.24 150.78 137.58 151.54 136.99 152.36 C 135.06 152.04 133.13 151.70 131.21 151.33 C 132.58 149.37 133.79 147.20 135.74 145.74 C 138.77 143.66 142.67 143.61 145.82 141.80 C 148.46 139.67 148.56 135.91 148.14 132.82 Z" />
</g>
<g id="#fc0d78ff">
<path fill="#fc0d78" opacity="1.00" d=" M 174.45 132.61 C 177.47 132.66 180.49 132.62 183.50 132.37 C 182.20 135.21 181.51 140.53 177.22 139.79 C 173.82 139.32 174.90 135.02 174.45 132.61 Z" />
</g>
<g id="#98003cff">
<path fill="#98003c" opacity="1.00" d=" M 189.96 132.13 C 196.41 133.60 199.61 140.10 200.22 146.19 C 198.74 146.01 197.27 145.90 195.80 145.79 C 192.13 145.43 188.34 145.31 184.86 143.99 C 183.29 143.45 182.13 141.94 182.17 140.27 C 184.36 137.20 187.43 134.90 189.96 132.13 Z" />
</g>
<g id="#0b7bc4ff">
<path fill="#0b7bc4" opacity="1.00" d=" M 56.62 138.49 C 61.63 137.46 66.75 137.43 71.83 137.08 C 70.36 140.29 69.19 143.65 68.45 147.11 C 66.45 148.26 64.56 149.60 62.65 150.90 C 58.75 150.42 54.86 149.94 50.94 149.66 C 52.71 145.87 54.51 142.09 56.62 138.49 M 59.55 146.85 C 61.31 147.31 63.08 147.73 64.86 148.13 C 65.28 146.33 65.67 144.51 66.03 142.70 C 63.74 143.87 61.57 145.26 59.55 146.85 Z" />
</g>
<g id="#2ed0e0ff">
<path fill="#2ed0e0" opacity="1.00" d=" M 47.94 148.97 C 51.44 145.70 53.78 141.40 57.02 137.87 L 56.62 138.49 C 54.51 142.09 52.71 145.87 50.94 149.66 C 48.62 150.94 46.26 152.17 43.77 153.09 C 39.74 153.40 35.61 152.80 31.66 153.79 C 28.20 155.14 26.45 158.72 24.41 161.58 C 23.59 162.83 22.76 164.08 21.93 165.32 C 21.82 164.92 21.62 164.11 21.52 163.71 C 21.64 161.59 21.16 158.71 23.42 157.55 C 27.11 155.22 30.25 152.18 33.67 149.50 C 38.22 148.08 43.49 151.24 47.94 148.97 Z" />
</g>
<g id="#59c1ffff">
<path fill="#59c1ff" opacity="1.00" d=" M 101.07 141.63 C 101.64 141.56 102.80 141.43 103.38 141.37 L 102.92 142.40 C 100.57 147.85 97.61 153.00 94.92 158.29 C 94.65 156.84 94.38 155.39 94.19 153.93 C 94.23 150.22 94.88 146.50 94.23 142.79 C 96.50 142.37 98.78 141.94 101.07 141.63 Z" />
</g>
<g id="#4fadf3ff">
<path fill="#4fadf3" opacity="1.00" d=" M 59.55 146.85 C 61.57 145.26 63.74 143.87 66.03 142.70 C 65.67 144.51 65.28 146.33 64.86 148.13 C 63.08 147.73 61.31 147.31 59.55 146.85 Z" />
</g>
<g id="#3a84f6ff">
<path fill="#3a84f6" opacity="1.00" d=" M 94.92 158.29 C 97.61 153.00 100.57 147.85 102.92 142.40 C 105.94 143.37 109.02 144.19 111.96 145.41 C 110.16 146.68 108.32 147.91 106.29 148.77 C 104.21 149.79 101.59 150.22 100.21 152.25 C 98.34 154.92 97.11 157.95 95.66 160.85 C 94.77 161.24 93.88 161.65 93.00 162.07 L 93.40 161.32 C 93.92 160.31 94.42 159.30 94.92 158.29 Z" />
</g>
<g id="#3b5abfff">
<path fill="#3b5abf" opacity="1.00" d=" M 111.96 145.41 C 112.45 145.61 112.90 145.86 113.39 146.08 C 112.71 147.96 111.74 149.81 111.64 151.85 C 112.23 155.37 114.36 158.37 115.77 161.59 C 116.16 163.05 113.97 164.07 113.11 165.11 C 109.49 168.46 104.29 167.58 99.83 167.25 L 100.64 167.18 C 102.66 167.02 104.68 166.84 106.70 166.70 C 106.86 165.16 107.01 163.62 107.16 162.08 C 108.30 160.01 109.36 157.91 110.41 155.79 C 108.86 155.10 107.32 154.41 105.77 153.73 C 105.91 152.07 106.11 150.42 106.29 148.77 C 108.32 147.91 110.16 146.68 111.96 145.41 Z" />
</g>
<g id="#1fb2c4ff">
<path fill="#1fb2c4" opacity="1.00" d=" M 68.45 147.11 C 69.97 146.55 71.52 146.06 73.07 145.58 C 72.32 149.89 69.46 153.95 65.16 155.29 C 64.40 155.30 62.87 155.33 62.11 155.35 C 62.29 153.86 62.47 152.38 62.65 150.90 C 64.56 149.60 66.45 148.26 68.45 147.11 Z" />
</g>
<g id="#b60050ff">
<path fill="#b60050" opacity="1.00" d=" M 195.80 145.79 C 197.27 145.90 198.74 146.01 200.22 146.19 C 201.42 146.32 201.90 147.02 201.66 148.26 C 201.97 151.23 201.32 156.01 205.21 156.76 C 209.56 157.21 210.47 151.58 212.45 148.79 C 214.65 147.35 218.26 148.80 220.97 148.61 L 220.48 148.93 C 217.05 151.23 213.57 153.45 210.09 155.69 C 211.86 159.02 215.41 159.72 218.88 159.55 C 220.24 161.47 221.57 163.41 222.89 165.36 C 220.69 166.62 218.57 168.49 215.90 168.52 C 212.66 168.58 209.45 168.09 206.23 167.81 L 205.48 167.73 C 203.42 163.71 203.30 158.47 199.69 155.41 C 195.43 152.48 190.61 156.32 186.05 155.80 C 181.76 155.79 178.19 152.78 176.30 149.12 C 181.96 145.50 187.38 153.14 193.22 150.31 C 195.25 149.78 195.24 147.41 195.80 145.79 M 211.64 162.59 C 213.19 164.77 215.46 166.62 218.29 165.51 C 218.74 164.00 219.03 162.46 219.36 160.93 C 216.77 161.42 214.20 161.98 211.64 162.59 Z" />
</g>
<g id="#3c3c8cff">
<path fill="#3c3c8c" opacity="1.00" d=" M 111.64 151.85 C 111.74 149.81 112.71 147.96 113.39 146.08 C 117.36 150.15 119.31 156.60 115.77 161.59 C 114.36 158.37 112.23 155.37 111.64 151.85 Z" />
</g>
<g id="#f60671ff">
<path fill="#f60671" opacity="1.00" d=" M 201.66 148.26 C 205.24 148.83 208.85 148.70 212.45 148.79 C 210.47 151.58 209.56 157.21 205.21 156.76 C 201.32 156.01 201.97 151.23 201.66 148.26 Z" />
</g>
<g id="#1c8b9cff">
<path fill="#1c8b9c" opacity="1.00" d=" M 50.94 149.66 C 54.86 149.94 58.75 150.42 62.65 150.90 C 62.47 152.38 62.29 153.86 62.11 155.35 C 62.87 155.33 64.40 155.30 65.16 155.29 C 60.73 156.60 56.48 154.52 52.11 154.30 C 47.89 154.17 45.82 158.48 45.16 162.03 C 43.72 162.34 42.28 162.64 40.85 163.01 C 41.66 159.66 42.63 156.34 43.77 153.09 C 46.26 152.17 48.62 150.94 50.94 149.66 Z" />
</g>
<g id="#185cb1ff">
<path fill="#185cb1" opacity="1.00" d=" M 100.21 152.25 C 101.59 150.22 104.21 149.79 106.29 148.77 C 106.11 150.42 105.91 152.07 105.77 153.73 C 105.51 156.59 106.24 159.40 107.16 162.08 C 107.01 163.62 106.86 165.16 106.70 166.70 C 104.68 166.84 102.66 167.02 100.64 167.18 L 100.02 166.39 C 98.57 164.54 97.11 162.70 95.66 160.85 C 97.11 157.95 98.34 154.92 100.21 152.25 Z" />
</g>
<g id="#94003bff">
<path fill="#94003b" opacity="1.00" d=" M 210.09 155.69 C 213.57 153.45 217.05 151.23 220.48 148.93 C 224.57 151.44 227.90 155.94 227.40 160.94 C 226.56 165.61 223.45 170.33 218.61 171.53 C 214.22 173.35 209.17 171.27 206.23 167.81 C 209.45 168.09 212.66 168.58 215.90 168.52 C 218.57 168.49 220.69 166.62 222.89 165.36 C 221.57 163.41 220.24 161.47 218.88 159.55 C 215.41 159.72 211.86 159.02 210.09 155.69 Z" />
</g>
<g id="#cc1060ff">
<path fill="#cc1060" opacity="1.00" d=" M 131.94 161.73 C 130.68 158.38 130.35 154.81 131.21 151.33 C 133.13 151.70 135.06 152.04 136.99 152.36 C 135.33 155.49 133.76 158.67 131.94 161.73 Z" />
</g>
<g id="#0f79c3ff">
<path fill="#0f79c3" opacity="1.00" d=" M 31.66 153.79 C 35.61 152.80 39.74 153.40 43.77 153.09 C 42.63 156.34 41.66 159.66 40.85 163.01 C 38.82 164.39 36.96 166.02 35.28 167.81 C 31.42 166.18 27.76 164.11 24.41 161.58 C 26.45 158.72 28.20 155.14 31.66 153.79 M 36.41 159.17 C 34.66 159.97 33.52 161.59 32.53 163.18 C 35.09 165.96 38.87 163.21 38.74 160.00 C 38.50 158.36 37.72 158.08 36.41 159.17 Z" />
</g>
<g id="#5ce6ffff">
<path fill="#5ce6ff" opacity="1.00" d=" M 88.69 160.74 C 91.87 160.01 92.70 156.37 94.19 153.93 C 94.38 155.39 94.65 156.84 94.92 158.29 C 94.42 159.30 93.92 160.31 93.40 161.32 C 86.71 161.64 80.26 163.61 74.10 166.11 C 75.01 163.99 75.69 161.77 76.40 159.57 C 80.47 160.10 84.57 161.35 88.69 160.74 Z" />
</g>
<g id="#5a8cf1ff">
<path fill="#5a8cf1" opacity="1.00" d=" M 107.16 162.08 C 106.24 159.40 105.51 156.59 105.77 153.73 C 107.32 154.41 108.86 155.10 110.41 155.79 C 109.36 157.91 108.30 160.01 107.16 162.08 Z" />
</g>
<g id="#cc0038ff">
<path fill="#cc0038" opacity="1.00" d=" M 144.27 157.13 C 148.06 157.25 151.85 157.27 155.63 157.50 C 156.90 157.53 157.28 159.25 157.58 160.26 C 158.55 162.90 157.97 168.00 161.98 167.85 C 165.83 167.06 167.23 162.58 169.30 159.71 C 171.09 159.92 172.86 160.20 174.63 160.51 C 171.67 162.95 168.38 165.18 166.18 168.38 C 166.17 168.93 166.16 170.03 166.15 170.58 C 171.65 173.87 178.35 174.11 184.59 174.77 C 185.27 174.92 185.61 175.44 185.62 176.35 C 186.60 178.94 186.05 184.00 189.98 183.86 C 193.21 183.22 194.68 179.68 196.64 177.37 C 197.82 177.39 199.01 177.44 200.19 177.52 C 198.26 180.11 195.55 182.08 194.02 184.97 C 194.83 187.71 197.98 187.74 200.23 188.48 C 202.59 188.91 204.32 190.63 206.07 192.12 C 203.93 193.36 201.87 195.39 199.21 195.24 C 195.52 194.97 191.94 193.98 188.34 193.20 C 186.47 189.74 185.61 185.70 183.27 182.41 C 182.77 181.09 182.32 179.76 181.87 178.43 C 176.04 179.90 169.95 179.95 164.10 178.57 C 163.53 179.34 162.96 180.12 162.39 180.90 C 158.35 177.03 160.01 170.06 155.01 167.03 C 152.70 165.61 149.86 166.62 147.35 166.70 C 146.34 166.74 145.33 166.78 144.32 166.81 C 144.33 163.58 144.30 160.35 144.27 157.13 Z" />
</g>
<g id="#39a2edff">
<path fill="#39a2ed" opacity="1.00" d=" M 36.41 159.17 C 37.72 158.08 38.50 158.36 38.74 160.00 C 38.87 163.21 35.09 165.96 32.53 163.18 C 33.52 161.59 34.66 159.97 36.41 159.17 Z" />
</g>
<g id="#a6f4ffff">
<path fill="#a6f4ff" opacity="1.00" d=" M 65.98 167.80 C 68.02 163.57 71.66 160.33 76.40 159.57 C 75.69 161.77 75.01 163.99 74.10 166.11 C 72.80 167.16 71.51 168.21 70.30 169.36 C 68.86 168.84 67.42 168.32 65.98 167.80 Z" />
</g>
<g id="#fd175fff">
<path fill="#fd175f" opacity="1.00" d=" M 157.58 160.26 C 161.48 161.19 165.49 160.91 169.30 159.71 C 167.23 162.58 165.83 167.06 161.98 167.85 C 157.97 168.00 158.55 162.90 157.58 160.26 Z" />
</g>
<g id="#27cee6ff">
<path fill="#27cee6" opacity="1.00" d=" M 74.10 166.11 C 80.26 163.61 86.71 161.64 93.40 161.32 L 93.00 162.07 C 91.93 162.67 90.85 163.26 89.78 163.85 C 84.10 165.24 77.88 165.51 72.95 168.97 C 70.04 171.18 68.67 174.70 66.78 177.72 C 64.51 178.99 62.16 180.13 59.65 180.87 C 52.79 182.17 44.91 183.19 40.65 189.49 C 39.70 190.64 38.78 191.82 37.85 192.99 C 37.84 192.68 37.80 192.05 37.79 191.73 C 37.72 189.68 37.73 187.63 37.75 185.59 C 40.71 184.68 43.65 183.68 46.48 182.42 C 51.34 180.07 56.56 178.71 61.83 177.64 C 66.20 176.98 67.73 172.32 70.30 169.36 C 71.51 168.21 72.80 167.16 74.10 166.11 Z" />
</g>
<g id="#137da2ff">
<path fill="#137da2" opacity="1.00" d=" M 93.00 162.07 C 93.88 161.65 94.77 161.24 95.66 160.85 C 97.11 162.70 98.57 164.54 100.02 166.39 C 97.52 166.39 94.63 165.79 92.55 167.56 C 90.32 169.09 89.85 171.90 89.39 174.36 C 87.90 174.59 86.41 174.83 84.92 175.07 C 85.43 170.96 86.48 166.66 89.78 163.85 C 90.85 163.26 91.93 162.67 93.00 162.07 Z" />
</g>
<g id="#980031ff">
<path fill="#980031" opacity="1.00" d=" M 166.18 168.38 C 168.38 165.18 171.67 162.95 174.63 160.51 C 181.08 162.03 182.83 169.31 184.59 174.77 C 178.35 174.11 171.65 173.87 166.15 170.58 C 166.16 170.03 166.17 168.93 166.18 168.38 Z" />
</g>
<g id="#f70b5fff">
<path fill="#f70b5f" opacity="1.00" d=" M 211.64 162.59 C 214.20 161.98 216.77 161.42 219.36 160.93 C 219.03 162.46 218.74 164.00 218.29 165.51 C 215.46 166.62 213.19 164.77 211.64 162.59 Z" />
</g>
<g id="#1d8b9bff">
<path fill="#1d8b9b" opacity="1.00" d=" M 21.93 165.32 C 22.76 164.08 23.59 162.83 24.41 161.58 C 27.76 164.11 31.42 166.18 35.28 167.81 C 34.37 168.96 33.52 170.16 32.67 171.36 C 31.42 171.37 30.17 171.37 28.93 171.34 C 25.83 170.41 23.99 167.58 21.93 165.32 Z" />
</g>
<g id="#25b5c3ff">
<path fill="#25b5c3" opacity="1.00" d=" M 40.85 163.01 C 42.28 162.64 43.72 162.34 45.16 162.03 C 43.79 169.16 35.84 174.23 28.93 171.34 C 30.17 171.37 31.42 171.37 32.67 171.36 C 33.52 170.16 34.37 168.96 35.28 167.81 C 36.96 166.02 38.82 164.39 40.85 163.01 Z" />
</g>
<g id="#0177ccff">
<path fill="#0177cc" opacity="1.00" d=" M 72.95 168.97 C 77.88 165.51 84.10 165.24 89.78 163.85 C 86.48 166.66 85.43 170.96 84.92 175.07 C 83.08 176.66 81.20 178.20 79.30 179.70 C 75.28 178.32 71.07 177.12 66.78 177.72 C 68.67 174.70 70.04 171.18 72.95 168.97 M 76.03 175.31 C 77.76 175.51 79.97 177.11 81.32 175.29 C 82.61 174.15 83.09 172.11 81.91 170.72 C 79.55 171.67 77.77 173.53 76.03 175.31 Z" />
</g>
<g id="#68eeffff">
<path fill="#68eeff" opacity="1.00" d=" M 65.98 167.80 C 67.42 168.32 68.86 168.84 70.30 169.36 C 67.73 172.32 66.20 176.98 61.83 177.64 C 56.56 178.71 51.34 180.07 46.48 182.42 C 47.04 180.19 47.58 177.96 48.11 175.72 C 52.27 176.17 56.50 177.61 60.70 176.81 C 64.55 175.63 65.03 171.09 65.98 167.80 Z" />
</g>
<g id="#2e9cf0ff">
<path fill="#2e9cf0" opacity="1.00" d=" M 76.03 175.31 C 77.77 173.53 79.55 171.67 81.91 170.72 C 83.09 172.11 82.61 174.15 81.32 175.29 C 79.97 177.11 77.76 175.51 76.03 175.31 Z" />
</g>
<g id="#11a6c7ff">
<path fill="#11a6c7" opacity="1.00" d=" M 84.92 175.07 C 86.41 174.83 87.90 174.59 89.39 174.36 C 88.40 178.29 85.70 181.63 81.95 183.23 C 80.72 183.32 79.48 183.39 78.25 183.45 C 78.60 182.20 78.94 180.95 79.30 179.70 C 81.20 178.20 83.08 176.66 84.92 175.07 Z" />
</g>
<g id="#a7f6ffff">
<path fill="#a7f6ff" opacity="1.00" d=" M 38.14 183.10 C 40.09 179.20 43.94 176.72 48.11 175.72 C 47.58 177.96 47.04 180.19 46.48 182.42 C 43.65 183.68 40.71 184.68 37.75 185.59 C 37.73 187.63 37.72 189.68 37.79 191.73 C 37.29 188.90 36.54 185.74 38.14 183.10 Z" />
</g>
<g id="#fa0a62ff">
<path fill="#fa0a62" opacity="1.00" d=" M 185.62 176.35 C 186.27 176.54 187.57 176.93 188.22 177.12 C 191.02 177.36 193.83 177.30 196.64 177.37 C 194.68 179.68 193.21 183.22 189.98 183.86 C 186.05 184.00 186.60 178.94 185.62 176.35 Z" />
</g>
<g id="#99002eff">
<path fill="#99002e" opacity="1.00" d=" M 188.22 177.12 C 194.22 177.59 201.20 174.01 206.40 178.51 C 212.55 182.99 212.46 192.88 206.53 197.51 C 200.97 202.61 190.93 200.37 188.34 193.20 C 191.94 193.98 195.52 194.97 199.21 195.24 C 201.87 195.39 203.93 193.36 206.07 192.12 C 204.32 190.63 202.59 188.91 200.23 188.48 C 197.98 187.74 194.83 187.71 194.02 184.97 C 195.55 182.08 198.26 180.11 200.19 177.52 C 199.01 177.44 197.82 177.39 196.64 177.37 C 193.83 177.30 191.02 177.36 188.22 177.12 Z" />
</g>
<g id="#0e84a3ff">
<path fill="#0e84a3" opacity="1.00" d=" M 66.78 177.72 C 71.07 177.12 75.28 178.32 79.30 179.70 C 78.94 180.95 78.60 182.20 78.25 183.45 C 79.48 183.39 80.72 183.32 81.95 183.23 C 77.58 184.44 73.30 182.99 69.03 182.30 C 64.36 181.70 61.98 186.54 61.32 190.40 C 59.80 190.58 58.28 190.78 56.76 190.97 C 57.53 187.55 58.47 184.17 59.65 180.87 C 62.16 180.13 64.51 178.99 66.78 177.72 Z" />
</g>
<g id="#a80131ff">
<path fill="#a80131" opacity="1.00" d=" M 164.10 178.57 C 169.95 179.95 176.04 179.90 181.87 178.43 C 182.32 179.76 182.77 181.09 183.27 182.41 C 178.38 181.55 173.87 184.20 169.02 183.72 C 166.50 183.73 164.49 182.03 162.39 180.90 C 162.96 180.12 163.53 179.34 164.10 178.57 Z" />
</g>
<g id="#057acdff">
<path fill="#057acd" opacity="1.00" d=" M 40.65 189.49 C 44.91 183.19 52.79 182.17 59.65 180.87 C 58.47 184.17 57.53 187.55 56.76 190.97 C 55.00 192.78 53.22 194.56 51.48 196.38 C 47.78 194.22 44.17 191.92 40.65 189.49 M 52.43 187.41 C 49.89 187.79 48.13 193.16 51.93 192.25 C 54.66 192.07 55.95 185.57 52.43 187.41 Z" />
</g>
<g id="#34a1f2ff">
<path fill="#34a1f2" opacity="1.00" d=" M 52.43 187.41 C 55.95 185.57 54.66 192.07 51.93 192.25 C 48.13 193.16 49.89 187.79 52.43 187.41 Z" />
</g>
<g id="#1188a0ff">
<path fill="#1188a0" opacity="1.00" d=" M 37.85 192.99 C 38.78 191.82 39.70 190.64 40.65 189.49 C 44.17 191.92 47.78 194.22 51.48 196.38 C 50.55 197.36 49.64 198.35 48.73 199.35 C 47.45 199.40 46.17 199.44 44.89 199.45 C 41.90 198.11 39.99 195.33 37.85 192.99 Z" />
</g>
<g id="#14afc6ff">
<path fill="#14afc6" opacity="1.00" d=" M 56.76 190.97 C 58.28 190.78 59.80 190.58 61.32 190.40 C 60.27 193.56 58.75 196.86 55.66 198.50 C 52.45 200.63 48.45 200.51 44.89 199.45 C 46.17 199.44 47.45 199.40 48.73 199.35 C 49.64 198.35 50.55 197.36 51.48 196.38 C 53.22 194.56 55.00 192.78 56.76 190.97 Z" />
</g>
</svg>
