<?xml version="1.0" encoding="UTF-8" ?>
<!DOCTYPE svg PUBLIC "-//W3C//DTD SVG 1.1//EN" "http://www.w3.org/Graphics/SVG/1.1/DTD/svg11.dtd">
<svg width="229pt" height="250pt" viewBox="0 0 229 250" version="1.1" xmlns="http://www.w3.org/2000/svg">
<g id="#fefffeff">
<path fill="#fefffe" opacity="1.00" d=" M 0.00 0.00 L 229.00 0.00 L 229.00 250.00 L 0.00 250.00 L 0.00 0.00 M 77.36 6.19 C 60.11 9.00 44.29 18.94 33.88 32.92 C 25.19 44.68 19.99 59.31 20.47 74.00 C 19.90 86.08 23.99 97.89 29.57 108.45 C 36.97 120.41 47.42 130.78 60.37 136.59 C 70.31 141.69 81.52 143.04 92.32 145.30 C 105.67 147.52 115.67 161.67 113.15 174.98 C 110.49 189.65 112.83 205.48 121.03 218.09 C 126.39 225.58 132.91 232.65 141.36 236.64 C 146.93 239.29 152.83 241.46 158.98 242.28 C 167.10 242.63 175.48 242.98 183.22 240.06 C 205.28 233.52 222.16 211.23 220.69 188.00 C 220.67 185.03 220.76 182.06 220.49 179.11 C 216.82 157.04 198.56 138.44 176.61 134.19 C 165.94 132.64 156.77 124.17 154.38 113.66 C 152.27 106.85 155.04 99.95 156.12 93.23 C 158.27 85.32 157.56 77.07 157.64 68.97 C 157.80 63.89 156.13 59.06 154.81 54.24 C 151.65 42.32 144.50 31.78 135.76 23.24 C 128.19 15.85 118.53 11.05 108.56 7.79 C 98.45 4.99 87.69 4.75 77.36 6.19 M 40.47 166.83 C 28.08 169.83 17.65 179.49 13.47 191.50 C 9.32 203.05 11.37 216.53 18.58 226.43 C 27.24 238.81 43.76 245.11 58.43 241.44 C 70.40 238.60 80.76 229.65 85.29 218.21 C 88.22 211.42 88.24 203.78 87.28 196.57 C 84.96 184.79 76.87 173.99 65.70 169.28 C 57.85 165.85 48.82 164.46 40.47 166.83 Z" />
</g>
<g id="#4169e2ff">
<path fill="#4169e2" opacity="1.00" d=" M 77.36 6.19 C 87.69 4.75 98.45 4.99 108.56 7.79 C 118.53 11.05 128.19 15.85 135.76 23.24 C 144.50 31.78 151.65 42.32 154.81 54.24 C 156.13 59.06 157.80 63.89 157.64 68.97 C 157.56 77.07 158.27 85.32 156.12 93.23 C 155.04 99.95 152.27 106.85 154.38 113.66 C 156.77 124.17 165.94 132.64 176.61 134.19 C 198.56 138.44 216.82 157.04 220.49 179.11 C 220.76 182.06 220.67 185.03 220.69 188.00 C 222.16 211.23 205.28 233.52 183.22 240.06 C 175.48 242.98 167.10 242.63 158.98 242.28 C 152.83 241.46 146.93 239.29 141.36 236.64 C 132.91 232.65 126.39 225.58 121.03 218.09 C 112.83 205.48 110.49 189.65 113.15 174.98 C 115.67 161.67 105.67 147.52 92.32 145.30 C 81.52 143.04 70.31 141.69 60.37 136.59 C 47.42 130.78 36.97 120.41 29.57 108.45 C 23.99 97.89 19.90 86.08 20.47 74.00 C 19.99 59.31 25.19 44.68 33.88 32.92 C 44.29 18.94 60.11 9.00 77.36 6.19 Z" />
<path fill="#4169e2" opacity="1.00" d=" M 40.47 166.83 C 48.82 164.46 57.85 165.85 65.70 169.28 C 76.87 173.99 84.96 184.79 87.28 196.57 C 88.24 203.78 88.22 211.42 85.29 218.21 C 80.76 229.65 70.40 238.60 58.43 241.44 C 43.76 245.11 27.24 238.81 18.58 226.43 C 11.37 216.53 9.32 203.05 13.47 191.50 C 17.65 179.49 28.08 169.83 40.47 166.83 Z" />
</g>
</svg>
