<?xml version="1.0" encoding="utf-8"?>
<!-- Generator: Adobe Illustrator 26.0.3, SVG Export Plug-In . SVG Version: 6.00 Build 0)  -->
<svg version="1.1" id="Layer_1" xmlns="http://www.w3.org/2000/svg" xmlns:xlink="http://www.w3.org/1999/xlink" x="0px" y="0px"
	 viewBox="0 0 250 250" style="enable-background:new 0 0 250 250;" xml:space="preserve">
<style type="text/css">
	.st0{fill:#FFFFFF;}
	.st1{fill:#604C3A;}
	.st2{fill:#FFE3B3;}
	.st3{fill:#FFB737;}
	.st4{fill:#F75F72;}
	.st5{fill:#D15867;}
	.st6{fill:#6D4E4F;}
	.st7{fill:#F76073;}
	.st8{fill:#D5707B;}
	.st9{fill:#807676;}
	.st10{fill:#D45768;}
	.st11{fill:#DE7E8A;}
	.st12{fill:#A8515B;}
	.st13{fill:#DD7C88;}
	.st14{fill:#715758;}
	.st15{fill:#DD7B87;}
	.st16{fill:#DC7B86;}
	.st17{fill:#3D2C2A;}
	.st18{fill:#62393E;}
	.st19{fill:#F28290;}
	.st20{fill:#D9737F;}
	.st21{fill:#5A393A;}
	.st22{fill:#CB6A76;}
	.st23{fill:#CF6D78;}
	.st24{fill:#D5747F;}
	.st25{fill:#3E2C2A;}
	.st26{fill:#625454;}
	.st27{fill:#D2707C;}
	.st28{fill:#DA737F;}
	.st29{fill:#B9B4B4;}
	.st30{fill:#5E5050;}
	.st31{fill:#F2CF92;}
	.st32{fill:#FFB93D;}
	.st33{fill:#E8818D;}
	.st34{fill:#DC7C87;}
	.st35{fill:#D75969;}
	.st36{fill:#A94F59;}
	.st37{fill:#D5D5D5;}
	.st38{fill:#69373C;}
	.st39{fill:#E87F8C;}
	.st40{fill:#E77E8B;}
	.st41{fill:#F68593;}
	.st42{fill:#D97985;}
	.st43{fill:#A19999;}
	.st44{fill:#D5D4D4;}
	.st45{fill:#C76773;}
	.st46{fill:#DA7C87;}
	.st47{fill:#D59C38;}
	.st48{fill:#B68333;}
	.st49{fill:#CC6C77;}
	.st50{fill:#993737;}
	.st51{fill:#918786;}
	.st52{fill:#DAB92E;}
	.st53{fill:#E37F8B;}
	.st54{fill:#DD7683;}
	.st55{fill:#C79236;}
	.st56{fill:#E77F8C;}
	.st57{fill:#C3A432;}
	.st58{fill:#5B472C;}
	.st59{fill:#FEFEFE;}
	.st60{fill:#CCAB33;}
	.st61{fill:#CE9535;}
	.st62{fill:#FCB538;}
	.st63{fill:#594A43;}
	.st64{fill:#F87B8B;}
	.st65{fill:#F75E71;}
	.st66{fill:#D5D6D6;}
	.st67{fill:#D7D8D8;}
	.st68{fill:#F67283;}
	.st69{fill:#D16573;}
	.st70{fill:#FED735;}
	.st71{fill:#D5B636;}
	.st72{fill:#81682E;}
	.st73{fill:#FFD935;}
	.st74{fill:#E4C236;}
	.st75{fill:#DCBB36;}
	.st76{fill:#FFD835;}
	.st77{fill:#D7B836;}
</style>
<circle class="st0" cx="125" cy="125.5" r="125"/>
<g id="_x23_ffffffff">
	<path class="st0" d="M117,82.5c4.4-1.4,10,1.9,9.5,6.8c-1.6,0.2-3.1,0.3-4.7,0.4C120.5,87.2,118.8,84.8,117,82.5z"/>
	<path class="st0" d="M137.1,93.1c1.8-4.9,8.2-3.9,11.9-2.2c-2.4,2-5.2,3.3-8,4.4C139.4,95.6,138.4,93.9,137.1,93.1z"/>
	<path class="st0" d="M99.1,109.3c1.8,1.7,3.7,3.4,4.5,5.8c0.2,2.2,0,4.3-0.1,6.5c-0.5,0-1.6-0.1-2.1-0.1c0.1-0.4,0.2-1.2,0.3-1.7
		c-1-0.9-2-1.8-2.9-2.7c0.4,0.9,0.7,1.8,0.9,2.8c-1.1,3.4-4.3,2.9-7.1,2.5c-0.2-1.1-0.3-2.2-0.5-3.3c-0.7,2.1-1.2,4.3-1.4,6.5
		c-2.1-1.6-4.9-2.9-5.7-5.6c-1.1-2.6-0.2-5.3,0.6-7.8C90,112.6,96.2,113.7,99.1,109.3z"/>
	<path class="st0" d="M108.6,137.8c2.8,0,5.6-0.4,8.3,0.3c1.3,0.9,1.7,2.7,2.5,4c1.5,6.3,11.5,5.7,12.3-0.6c2.4,0.7,4.3,2.2,5.3,4.6
		c-2.5,1.5-5.9,3.5-5.7,6.9c-0.6,4.7,3.8,7.8,7.5,9.5c2.8,0.3,5.6,0.4,8.4,0c-2.7,6.5-8.4,11.9-15.4,13.4c-5.9,1.2-12.5,0.5-17.6-3
		c-5.9-4.2-9.2-11.4-9.3-18.6c0-0.9-0.1-2.6-0.1-3.5c0-4.1,1.3-8,3.1-11.6C108,138.8,108.4,138.1,108.6,137.8z"/>
	<path class="st0" d="M81.4,176c-1-4.5,0-9.9,4.6-12.1c6-2,11.8,2.3,15.3,6.8c-0.7,1.9-1.3,3.8-1.8,5.7c-1.2-1.3-2.3-2.7-3.4-4.1
		c-1.5,0-2.9,0-4.4,0.2c-2.4,1.6-1.3,4.8-0.1,6.8c-1.2-0.1-2.5-0.2-3.7-0.4c0.5-0.2,1.5-0.6,2-0.8c-0.4-2.5-2.5-4.2-5.1-3.9
		c-0.1,0.6-0.4,1.7-0.5,2.3c-0.1,0.5-0.3,1.5-0.4,2C83.2,177.8,82.3,176.9,81.4,176 M89.4,166.3c-0.6,2.9,1.8,4.4,4,5.7
		C95.6,169.1,92.7,165.7,89.4,166.3 M85.2,170.1c-0.2,2.7,2.8,2.7,4.7,2.8c-0.4-1.1-0.4-2.5-1.5-3.2
		C87.3,168.7,84.9,167.6,85.2,170.1z"/>
	<path class="st0" d="M151.6,171.9c3.2-4.3,7.7-8.7,13.5-8.4c2.8-0.2,4.6,2.1,6.4,3.7c1.2,3.1,1.7,6.7,0.1,9.8c-0.8,0-2.3,0-3.1,0
		c0-0.8,0.1-2.3,0.1-3c-2,0.3-3.7,1.1-4.9,2.8c-1.1-1.7-2.3-3.3-3.7-4.8c1.4-1,2.9-2,4.3-3c-1.7-2.2-4.2-1.6-5.7,0.4
		c0.1,1,0.1,2.1,0.2,3.1c-1.4,1-2.8,2.1-4.1,3.2C153.6,174.3,152.6,173.1,151.6,171.9 M163.3,172.4c1.1,0.1,2.1,0.2,3.2,0.2
		c0.7-0.7,1.3-1.4,2-2.2c0-0.5,0.1-1.6,0.1-2.1C165.6,167.8,163.9,169.6,163.3,172.4z"/>
</g>
<g id="_x23_604c3aff">
	<path class="st1" d="M98.7,59.9c1.2-3.1,3.4-6.9,7.3-6.5c8-0.8,12.1,7.3,16.8,12.2c7.1-0.8,14.6-0.7,21,2.6
		c2.5,1.1,4.9,2.6,7.1,4.3c5.7-2.7,11.6-6.3,18.1-6.1c4.6,0.2,7.3,5.2,6.2,9.5c-1.4,7.1-6.9,12.4-10.7,18.3c2,7,4.4,14.8,1.6,21.9
		c1.5-0.5,2.6-1.4,3.4-2.8c0-2.7-0.1-5.3,0.3-8c0.4-0.1,1.1-0.2,1.5-0.3c-0.1,1.7-0.1,3.5-0.1,5.2c1.6-0.9,2.8-2.3,4-3.5
		c0,0.5,0.1,1.4,0.1,1.9c-3.3,4.6-7.2,8.8-10.7,13.3c-2.6,2.9-4.6,6.3-7.7,8.8c0.7,0.1,2,0.3,2.7,0.4c-0.1,0.7-0.4,2.1-0.6,2.8
		c4.6-2.8,9.9-0.1,12.7,3.9c0.9-0.6,1.7-1.2,2.6-1.8c2.8,6.5,4.2,15.7-1.5,21c-0.7,0.6-1.3,1.2-2,1.8c-4.4-3.9-10.8-2.6-14.9,1
		c-1.1,0.9-2.2,1.9-3.4,2.7c-0.9-0.4-1.8-0.8-2.7-1.2c-1,0.4-1.9,0.8-2.9,1.1c-2.8,0.3-5.6,0.3-8.4,0c0.9-0.3,1.7-0.7,2.6-1
		c3.8-0.7,8-1.3,10.7-4.4c3.2-3.7,6.7-7.9,6.6-13.1c0.1-3.2-1.1-6.3-2.3-9.2c-0.5-1.3-1.2-2.6-1.7-3.8c-1.7,0.4-3.5,0.7-5.2,1.3
		c-1.8,0.7-3.5,1.6-5.2,2.4c-3.9,2.2-8.2,3.2-12.7,3.2c0,1.2,0,2.4,0,3.6c-0.8,6.4-10.8,6.9-12.3,0.6c0.1-2.1,0.2-4.1,0.4-6.2
		c-2.5-1.2-5-2.3-7.2-3.9c-3-2.2-5.7-5-8.2-7.8c-3.3,3.1-7.7,4.1-12.1,3.5c1.7,2.9,0.5,5.9-1.3,8.5c0.8,0.9,1.6,1.9,2.3,2.8
		c1.9-2.6,4.3-5.2,7.8-5.6c2.8,1.1,3.1,4,2.5,6.5c-2.5,1.4-5.1,2.7-7.5,4.2c-0.7,2.1-0.8,4.3-1.1,6.5c3.2-0.3,7.3-2.9,9.9,0
		c0,0.9,0.1,2.7,0.1,3.5c-1.8,1.3-3.7,2.5-5.4,3.8c1.1,1.6,2.4,3,3.6,4.4c-0.5,0-1.7-0.1-2.2-0.1c-0.3-0.3-1.1-0.9-1.4-1.1
		c-3.4-2.9-7.8-5.7-12.4-4.7c-3.2,1.2-6.5,3.7-7.2,7.3c-0.4,1.9-0.5,3.9-0.6,5.9c0.8-1.6,1.5-3.2,2.2-4.8c2.6-1.7,5.3-4.1,8.7-3.5
		c5.9,0.9,10.6,5.2,13.9,9.9c1.4,2.9,1.8,6.1,1.7,9.3c1.2-0.9,2.3-1.9,3.5-2.8c0.1,0.8,0.3,2.3,0.4,3.1c11,3.9,23,3.1,33.9-0.3
		c0.4-0.8,0.9-1.6,1.3-2.3c0.7,0.2,2,0.6,2.6,0.9c0.3-1.6,0.7-3.1,1.1-4.7c2.3-6.4,8.1-11.4,14.7-12.9c4.6-1,8.2,2.7,10.5,6.2
		c-0.6-0.1-1.7-0.5-2.2-0.6c-1.9-1.6-3.7-3.9-6.4-3.7c-5.8-0.3-10.3,4.1-13.5,8.4c-1.5,2.9-2.7,6.6-1.1,9.8c1.3,2.8,4.8,3.2,7.5,3
		c5.3-0.6,10.1-3.7,13.6-7.7c0.9,0.6,1.9,1.2,2.8,1.8c1,0.6,2.1,1.2,3,1.9c0.5,3.6,0.5,7.3,0.1,10.9c-1.7,2.6-4.8,3.4-7.4,4.6
		c-10.1,3.1-20.6,4.1-31.1,4.5c-6.6,0.9-13.4,0.6-20.1,0.5c-9.6-1.1-19.4-0.9-28.8-3.3c-1-0.2-2.1-0.4-3.1-0.6
		c-3.9-1.6-9-2.1-11.2-6.1c-0.5-2.9-0.3-6-0.2-9c0.2-2.1,2.5-3.1,4.1-4c0-0.5,0-1.5-0.1-2c-2.8-4.9-3.3-11.5,0-16.3
		c2-3.8,7.3-4.1,9.1-8.2c1.1-0.4,2.3-0.9,3.4-1.3c2.9-4,1.6-9.3-2.1-12.2c-1.9,0.4-3.7-0.3-5.4-1c-0.4-2.4,0.2-4.8,0.9-7.1
		c-0.5-0.4-1.6-1.1-2.1-1.5c0.7-0.6,1.3-1.2,1.9-1.9c-0.3-0.9-0.9-2.8-1.1-3.8c-0.5,0.9-1.1,1.9-1.5,2.8c-0.2-0.1-0.8-0.3-1-0.4
		c0-0.5,0-1.6,0.1-2.1c-0.2-0.5-0.6-1.4-0.8-1.9c-0.2-0.4-0.5-1.1-0.7-1.5c-0.3-1.2-1.1-1.8-2.3-1.9c-1.1-0.1-2.2-0.1-3.3-0.1
		c-1.4-0.1-2,0.5-1.9,1.9c-0.5-0.6-1-1.1-1.4-1.7l-0.1-1.6c3.7,0.2,9.5-2.1,11.1,2.7C82,114,84.9,109,89.7,107
		c0.2-2.7,0.2-5.4-0.2-8.1c0.5-0.1,1.6-0.2,2.1-0.3c-0.2,2.4-0.2,4.7-0.2,7.1c2.3,0.2,4.7,0,6.9,0.9c3.3,2.1,6.3,5.2,7.3,9.1
		c0,2.3-0.3,4.6-0.2,6.9c7.9,5.6,17.6,8,27,9.3c6.2,1.1,12.7,0.3,18.4-2.4c0.3-0.2,0.9-0.5,1.2-0.7c5.9-2.6,11.4-7.4,13-13.9
		c1.8-7.1-0.5-14.2-1.7-21.1c2.3-5.3,6.9-9.4,9.4-14.7c1.4-3.3,2.2-8.3-1.6-10.3c-4.9-1.6-9.9,0.7-14.3,2.8c-1.9,0.9-3.8,2-5.7,3
		c-5.6-4.8-12.7-7.1-20-8c-3.2,0-6.4,0.8-9.6,0.9c-0.9-1.7-1.9-3.3-3.2-4.7c-3.2-3.7-6.7-8.7-12.3-7.8c-4.1-0.1-5.7,4.5-5.9,7.9
		c-0.3,5.8,1.9,11.2,2.6,16.8c-3.9,5.3-8.9,10.1-10.1,16.8c-0.1,0.5-0.4,1.6-0.5,2.1c-1.3-1.3-1.8-2.9-1.3-4.7
		c-0.5,0.2-1.4,0.7-1.9,0.9c-0.5,0.9-1,1.8-1.5,2.7c-1.6-0.1-3.1-0.2-4.7-0.2c-1.3,1.4-1.6,3.4-2.5,5.1c-0.1,0.3-0.4,0.9-0.5,1.2
		c-0.1-1.3-0.1-2.6-0.2-3.9c-1.8-0.1-3.5-0.2-5.3-0.3c2-2.4,7,0.5,6.8-3.9c-1.8-0.6-2.9-2-3.6-3.7c1.3-1.6,1.3-3.7,1.2-5.7
		c1.9-3.1,5.8-1.6,8.8-1.8c2.6,0.1,2.8,3.2,3.2,5.2c2.9,0.7,3.8-2.3,5.2-4.2c1.4-2.2,3.4-3.9,4.9-6c-0.2-3.3-1.2-6.5-2-9.7
		C98.5,66.7,98.6,63.3,98.7,59.9 M81.3,89.1c-0.3,0.5-0.9,1.4-1.2,1.9c-1.4,1.1,0.3,3.8,1.8,2.8c0.6,0.1,1.8,0.2,2.4,0.3
		c-0.5,1.8,0.1,2.5,2,2.1c0.6-1,1.2-1.9,1.6-3c1.7,0.3,2.4-0.4,2.1-2c-0.7-0.7-1.5-1.4-2.2-2c1.8-1.1-0.5-3.9-2-2.5l-0.2-0.8
		c-1.3,2.4,1.1,4.6,0.2,6.9c-0.7,0-2,0-2.6,0c-0.7-1.4,0.3-2.6,0.9-3.8c-0.1-0.8-0.3-2.4-0.4-3.2l-0.4,0.8
		C81.6,84.9,79.2,88,81.3,89.1 M87,111.3c-0.5,0.3-1.1,0.6-1.6,0.9c-0.8,2.5-1.7,5.2-0.6,7.8c0.8,2.7,3.6,3.9,5.7,5.6
		c0.2-2.2,0.7-4.4,1.4-6.5c0.2,1.1,0.4,2.2,0.5,3.3c0.4,1.3,0.9,2.6,1.4,3.8c2.5,0,5-0.4,7.2-1.7c-0.5-1.5-1-3.1-1.4-4.6
		c-0.3-0.9-0.6-1.9-0.9-2.8c1,0.9,1.9,1.8,2.9,2.7c-0.1,0.4-0.2,1.2-0.3,1.7c0.5,0,1.6,0.1,2.1,0.1c0.1-2.2,0.4-4.3,0.1-6.5
		c-0.8-2.4-2.7-4.1-4.5-5.8l0.4-0.5c-0.5,0.1-1.5,0.2-1.9,0.2l0-1.4C93.8,107.2,89.3,107.9,87,111.3 M82.4,119.8
		c-0.4,1.4,0,2,1.3,1.7C84.2,120,83.7,119.5,82.4,119.8 M86.3,125.5c-0.7,1.3,1.2,3.4,2.5,2.3C89.8,126.5,87.6,124.6,86.3,125.5
		 M111.6,128.8c2.6,2.4,5.7,4.4,9,5.6c2.7,0.6,5.7-0.9,8.3,0.8c3.5,2,7.8,0.9,11.3-0.8c-4.7-0.5-9.5-0.6-14.1-1.8
		C121.2,131.7,116.6,129.6,111.6,128.8 M155.5,129.2C156,129.6,156,129.6,155.5,129.2 M88.2,136.3c2-1.5,3.5-3.8,3-6.4
		C89.1,131.4,88.2,133.8,88.2,136.3 M159,135.4c0.4,2.3,0.9,4.6,1.1,6.9l0.4,1c-0.1,2.1-0.6,4.3,0.1,6.4c1.9,1.2,3.9,2.1,5.7,3.3
		l0.3-0.6l-0.4,1.9c2.2,0.9,4.9,3.6,6.8,0.8c2.9-4.7,2.8-10.4,1.3-15.5c-0.8,0.1-2.4,0.4-3.2,0.6c-1.2-1.8-2.2-3.9-4.3-4.8
		C164.3,134,161.5,134.9,159,135.4 M94.7,140.1c2.8-0.1,5.1-1.8,6-4.3C98,135.9,95.7,137.6,94.7,140.1 M121.9,136.9
		c-0.5,1.1-1,2.1-1.6,3.2c0.9,2.3,2.5,5.5,5.5,4.7c4.2-0.1,5.7-6.7,1.9-8.5C125.9,134.8,123.8,136.1,121.9,136.9 M96.4,154.2
		c2.4-0.3,5.4-0.8,6.1-3.6C100.2,150.8,96.6,151,96.4,154.2 M88.5,154.7c2.1,0.3,4.2,0.6,6.3,1c-0.2-0.9-0.5-2.8-0.7-3.7
		C91.9,152.1,89.6,152.6,88.5,154.7 M158.3,152.4c-2.2,2.5-4,5.5-6.4,7.9c3.7-3.2,8.1-5.9,13.2-5.8
		C163.5,152.5,160.9,152,158.3,152.4 M81.4,176c0.9,0.9,1.8,1.8,2.7,2.7c1.1,2.1,3.9,3,5.9,4.3c4.1,2,10.5,3.1,13.3-1.5
		c1.1-3.7,0.1-7.6-2-10.8c-3.5-4.5-9.4-8.8-15.3-6.8C81.4,166.1,80.5,171.5,81.4,176 M171.8,179.2c-3.9,5.4-10.6,7.7-17,7.7
		c-3.1-1.2-6-3-8.9-4.7c-2.7,0.2-5.3,1.3-7.9,1.8c-10.2,2.2-21,1.5-31-1.5c-3,2.1-6.3,4.1-10,3.9c-5.4,0.2-9.9-3.1-14.4-5.7
		c-0.1-0.5-0.3-1.4-0.4-1.8c-1.7,0.7-3.6,1.3-4.8,2.9c-0.2,1.7,0.8,2.8,2.3,3.4c5.3,2.7,11.3,4,17.1,4.7c0.3,0.5,0.8,1.5,1.1,2
		c-3.5-0.8-7.1-1.1-10.5-2c-3.5-0.8-6.9-2.1-10-3.9c0,1.5,0,3,0.2,4.5c2.3,3.1,6.4,3.8,9.9,4.9c2.7,0.5,5.4,1.1,8.2,1.7
		c3.4,0.1,6.7,1,10.1,1.3c8.7,1,17.5,0.9,26.2,1c4.5,0.1,8.9-0.8,13.4-0.2c0.1-0.3,0.2-0.8,0.3-1.1l0.4,0.4
		c7.1-0.7,14.2-1.7,21.1-3.5c3.2-0.8,6.6-1.8,9-4.3c0.2-1.6,0.1-3.2,0.1-4.9l-0.6,0.4c-0.4-0.3-1.3-0.9-1.7-1.2
		c0.4-0.2,1.3-0.6,1.7-0.8c0.2-0.6,0.7-1.9,0.9-2.5C175,180.7,173.5,179.7,171.8,179.2z"/>
</g>
<g id="_x23_ffe3b3ff">
	<path class="st2" d="M100.1,63c0.2-3.4,1.8-8,5.9-7.9c5.6-0.9,9.1,4.1,12.3,7.8c-3.7-2.2-7.1-5.3-11.3-6.4
		C103.6,57.2,102.1,60.6,100.1,63z"/>
	<path class="st2" d="M121.5,67.6c3.2-0.2,6.3-1,9.6-0.9c7.2,0.8,14.4,3.2,20,8c0.2,0.5,0.7,1.5,0.9,2c-2.2-1.4-4.3-2.8-6.8-3.8
		c-2.4-1-4.9,0.4-7.3,0.6c-2-0.8-2.8-3-3.9-4.6c-4-0.5-8-0.5-12-0.3C121.8,68.2,121.6,67.8,121.5,67.6z"/>
	<path class="st2" d="M156.8,71.6c4.4-2.1,9.4-4.3,14.3-2.8c3.8,2,3,7,1.6,10.3c-0.2-3-0.4-6.9-3.2-8.7
		C165.2,69.5,160.9,70.9,156.8,71.6z"/>
	<path class="st2" d="M156.3,134.8c1.3,2.9,2.4,6,2.3,9.2c0.1,5.2-3.4,9.4-6.6,13.1c1.4-2.8,2.7-5.8,3.7-8.8c-0.6-1.6-2.7-3.3-1.4-5
		C156,140.8,156.7,137.8,156.3,134.8z"/>
	<path class="st2" d="M79.8,163.9c0.7-3.6,3.9-6.1,7.2-7.3c4.7-1.1,9,1.8,12.4,4.7c-2.7-0.9-5.5-1.8-8.4-2.3c-4.1-0.7-9,1.5-9.7,6
		c-0.7,1.6-1.4,3.2-2.2,4.8C79.3,167.8,79.4,165.8,79.8,163.9z"/>
	<path class="st2" d="M156.1,159.9c4.1-3.6,10.5-4.9,14.9-1c1.7,1.8,2.8,4,3.3,6.4c-2.4-2.6-4.4-6.3-8.3-6.6
		C162.7,158.4,159.4,159.3,156.1,159.9z"/>
</g>
<g id="_x23_ffb737ff">
	<path class="st3" d="M100.1,63c2-2.4,3.5-5.8,6.8-6.5c4.2,1.1,7.6,4.2,11.3,6.4c1.3,1.4,2.3,3,3.2,4.7c0.1,0.2,0.3,0.7,0.5,0.9
		c4-0.2,8-0.1,12,0.3c1.2,1.6,2,3.8,3.9,4.6c2.4-0.2,4.9-1.5,7.3-0.6c2.4,0.9,4.6,2.4,6.8,3.8c-0.2-0.5-0.7-1.5-0.9-2
		c1.9-1,3.8-2.1,5.7-3c4.2-0.8,8.5-2.1,12.8-1.2c2.8,1.9,2.9,5.7,3.2,8.7c-2.5,5.3-7.1,9.4-9.4,14.7c1.2,6.9,3.5,14,1.7,21.1
		c-2.8-1.7-5.9-2.6-9-3.3c-4.6,0.2-9.5,1.8-13.7-0.7c-4.6-3-7.8-8.5-13.5-9.5c-5.2-1-9.6,2.8-14.7,3c-8.3,1-13-9-21.5-7.7
		c1.2-6.7,6.3-11.6,10.1-16.8C102,74.2,99.8,68.8,100.1,63 M104.5,60.5c-0.6,5.2-0.1,10.6,2.3,15.2c2-0.6,3.8-1.9,5.3-3.3
		c2-1.1,3.7-2.5,5.5-3.8c-1.7-3.7-5.2-5.9-8.4-8.3C107.7,59.7,106,59.9,104.5,60.5 M155.9,76c-2,3.2,1.8,5.7,3.1,8.3
		c0.8,1.4,1.8,2.7,2.9,3.8c2-1.9,4-3.9,5-6.5c1.5-2,2.3-4.4,2.9-6.9C165.6,71.8,160,74,155.9,76 M117,82.5c1.8,2.2,3.5,4.6,4.8,7.2
		c1.6-0.1,3.1-0.2,4.7-0.4C127,84.5,121.4,81.2,117,82.5 M137.1,93.1c1.3,0.7,2.2,2.5,3.9,2.3c2.9-1.1,5.7-2.5,8-4.4
		C145.3,89.2,138.9,88.2,137.1,93.1 M113.1,91.5c2.6,1.5,5.3,3.2,6.8,5.9c0.6,1.5,2.4,1.2,3.7,1.4c0-0.6-0.1-1.8-0.1-2.3
		C121.1,93.1,117.3,90.7,113.1,91.5 M136.1,102.6c4.1,1.1,7-2.8,11-2.4C144.8,96.7,137.3,98.2,136.1,102.6z"/>
	<path class="st3" d="M149.4,132.3c1.7-0.5,3.4-0.9,5.2-1.3c0.6,1.3,1.2,2.5,1.7,3.8c0.4,3-0.3,5.9-2,8.4c-1.3,1.8,0.8,3.5,1.4,5
		c-1,3-2.2,6-3.7,8.8c-6-0.8-9.4-6.4-11.2-11.6c2.6-1.6,4.8-3.7,6.7-6.1c0.3-0.4,1-1.2,1.3-1.6C149.1,135.9,149.2,134.1,149.4,132.3
		z"/>
	<path class="st3" d="M159,135.4c2.5-0.4,5.3-1.3,7.7,0c2.1,0.9,3.1,3,4.3,4.8c0.8-0.1,2.4-0.4,3.2-0.6c1.5,5.1,1.7,10.8-1.3,15.5
		c-0.8-3.7-1.4-7.4-2.9-10.9c-2.2,1.6-2.3,4.1-2.7,6.5c-0.4-1.6-0.9-3.1-1.6-4.6c-0.9-2.6-3.1-3.9-5.8-3.8
		C159.9,139.9,159.4,137.6,159,135.4z"/>
	<path class="st3" d="M103.5,140c1.4-0.4,2.9-0.6,4.3-0.9c-1.8,3.6-3.1,7.6-3.1,11.6c-2.6-3-6.7-0.4-9.9,0c0.3-2.2,0.4-4.4,1.1-6.5
		C98.4,142.8,101,141.4,103.5,140z"/>
	<path class="st3" d="M99.4,158.1c1.8-1.3,3.6-2.5,5.4-3.8c0.1,7.2,3.4,14.4,9.3,18.6c5.1,3.5,11.7,4.3,17.6,3
		c7-1.5,12.7-6.9,15.4-13.4c1-0.4,1.9-0.8,2.9-1.1c0.9,0.4,1.8,0.8,2.7,1.2c1.2-0.8,2.3-1.8,3.4-2.7c3.3-0.6,6.6-1.5,9.9-1.2
		c3.9,0.4,5.9,4.1,8.3,6.6c0.2,1.3,0.4,2.7,0.6,4c-0.3-0.4-0.9-1.1-1.2-1.5c-2.3-3.5-5.9-7.2-10.5-6.2c-6.6,1.5-12.4,6.5-14.7,12.9
		c-1.3-1.2-2.5-2.3-3.8-3.5c-3.9,3.3-7.5,7.6-12.8,8.7c-5.5,1.1-11.5,0.6-16.6-1.9c-3.3-1.7-5.3-4.9-7.3-7.9c-1.3,0.5-2.7,1-4,1.4
		c-3.3-4.7-8.1-9-13.9-9.9c-3.3-0.6-6.1,1.8-8.7,3.5c0.7-4.5,5.6-6.7,9.7-6c2.9,0.5,5.6,1.4,8.4,2.3c0.3,0.3,1.1,0.9,1.4,1.1
		c0.5,0,1.7,0.1,2.2,0.1C101.8,161,100.4,159.7,99.4,158.1z"/>
</g>
<g id="_x23_f75f72ff">
	<path class="st4" d="M104.5,60.5c1.6-0.6,3.2-0.8,4.8-0.1c-1.2,0.4-2.5,0.9-3.8,1.3c-0.1,2.1-0.2,4.2-0.4,6.3
		c0.8-1.5,1.5-3,2.2-4.5c1.6,0.7,3.6,1.3,4.2,3.2c0.3,1.7-0.5,3.4-0.8,5.1c0.3,0.2,1,0.5,1.4,0.7c-1.6,1.4-3.3,2.7-5.3,3.3
		C104.3,71.1,103.9,65.7,104.5,60.5z"/>
	<path class="st4" d="M161.1,78.2c1.1-1.3,3-1.6,4.5-2.2c0.4,1.9,0.9,3.7,1.3,5.6c-0.9,2.6-3,4.6-5,6.5c-1.1-1.1-2.1-2.4-2.9-3.8
		C159.7,82.2,160.1,80.1,161.1,78.2z"/>
	<path class="st4" d="M158.5,169.2c1.5-2,4-2.6,5.7-0.4c-1.4,1-2.8,2-4.3,3c1.4,1.5,2.6,3.1,3.7,4.8c1.2-1.7,2.9-2.5,4.9-2.8
		c0,0.8-0.1,2.3-0.1,3c-0.9,0.6-1.8,1.2-2.7,1.9c-0.9-0.6-1.9-1.3-2.8-1.9c-0.6,1.3-1.1,2.6-1.7,3.9c-2.5-1.2-5-2.4-7.4-3.7
		c0.2-0.4,0.6-1.2,0.8-1.5c1.3-1.1,2.7-2.1,4.1-3.2C158.7,171.3,158.6,170.3,158.5,169.2z"/>
</g>
<g id="_x23_d15867ff">
	<path class="st5" d="M105.5,61.7c1.3-0.4,2.5-0.8,3.8-1.3c3.2,2.3,6.7,4.5,8.4,8.3c-1.8,1.3-3.6,2.7-5.5,3.8
		c-0.4-0.2-1.1-0.5-1.4-0.7c0.2-1.7,1.1-3.4,0.8-5.1c-0.5-1.9-2.6-2.5-4.2-3.2c-0.7,1.5-1.5,3-2.2,4.5
		C105.2,65.9,105.3,63.8,105.5,61.7z"/>
</g>
<g id="_x23_6d4e4fff">
	<path class="st6" d="M180.6,61.4c3.6,0.3,8.5-1.6,10.8,2.3c0,0.6,0.1,1.7,0.1,2.2c2.2,2,1.5,5.6-1.6,6.1c-0.8,2.3-2.9,3.4-5.3,2.7
		l-0.6-1.2c-0.1-0.2-0.3-0.5-0.4-0.6c-1.3-0.6-2.7-1.1-4-1.7c1-0.3,3-0.8,4-1c-0.1-1.1-0.2-2.1-0.2-3.2c0.4-0.5,1.2-1.4,1.6-1.8
		c-0.3-0.6-0.8-1.7-1.1-2.2c-0.9,0.3-1.8,0.6-2.7,0.9c0.6,1,1.2,1.9,1.8,2.9c-1.2,1.2-2.4,2.4-3.4,3.7l-0.5,0.5
		C178.7,67.7,179.9,64.6,180.6,61.4 M186.9,62.7c-0.5,1.1-0.8,2.3-1.1,3.6c1.7,0,3.1-0.9,4.2-2.2C189.3,63.8,187.7,63.1,186.9,62.7
		 M188.5,67.5c-1.3,1.7-3.9,2.9-3.5,5.4c0.6,0,1.8-0.1,2.4-0.1c-0.1-0.8-0.2-2.5-0.2-3.3c0.9,0.1,2.8,0.3,3.7,0.5
		c-0.1-0.6-0.2-1.8-0.2-2.4C190.2,67.5,189.1,67.5,188.5,67.5z"/>
</g>
<g id="_x23_f76073ff">
	<path class="st7" d="M181.1,63.8c0.9-0.3,1.8-0.6,2.7-0.9c0.3,0.6,0.8,1.7,1.1,2.2c-0.4,0.4-1.2,1.3-1.6,1.8
		c0.1,1.1,0.2,2.1,0.2,3.2c-1,0.3-3,0.8-4,1c-0.1,0-0.3-0.1-0.3-0.1l0.2-0.5c1.1-1.3,2.3-2.5,3.4-3.7
		C182.2,65.7,181.6,64.8,181.1,63.8z"/>
	<path class="st7" d="M188.5,67.5c0.6,0,1.7,0,2.2,0c0,0.6,0.2,1.8,0.2,2.4c-0.9-0.1-2.8-0.3-3.7-0.5c0.1,0.8,0.2,2.5,0.2,3.3
		c-0.6,0-1.8,0.1-2.4,0.1C184.6,70.4,187.2,69.2,188.5,67.5z"/>
	<path class="st7" d="M69.4,101.4c0.7,0,2-0.1,2.7-0.2c0.1,0.6,0.2,1.9,0.3,2.5c-0.9,0-2.8-0.1-3.7-0.2c0,0.8,0,2.5,0,3.3
		c-0.7-0.1-2.2-0.3-3-0.4c0.2-0.5,0.7-1.6,0.9-2.1c0.5-0.2,1.4-0.7,1.9-0.9C68.7,102.9,69.2,101.9,69.4,101.4z"/>
	<path class="st7" d="M192,130.2c0.4-0.7,1.3-2.2,1.7-2.9c0.8,0.7,1.4,2,2.4,2.4c1.3-0.7,2.5-1.4,3.8-2.1c-0.3,1.4-0.9,2.9-0.6,4.4
		c0.5,0.2,1.6,0.6,2.1,0.8c0,0.7,0,1.5,0.1,2.2c-0.7-0.2-2-0.5-2.7-0.6c-0.2,1.8-0.7,3.5-1.8,4.9c-0.5-0.8-1.5-2.5-2-3.3
		c1.2-1.2,3.3-2,3.2-4C196.5,130.5,193.7,132.1,192,130.2z"/>
	<path class="st7" d="M191.2,132.3c1.1,0,2.2,0,3.3,0c0.1,0.7,0.2,2.1,0.3,2.8c-0.8,0.1-2.5,0.3-3.4,0.4
		C191.4,134.5,191.3,133.4,191.2,132.3z"/>
	<path class="st7" d="M163.3,172.4c0.6-2.7,2.3-4.6,5.3-4c0,0.5,0,1.6-0.1,2.1c-0.7,0.7-1.3,1.4-2,2.2
		C165.4,172.5,164.4,172.5,163.3,172.4z"/>
</g>
<g id="_x23_d5707bff">
	<path class="st8" d="M186.9,62.7c0.8,0.3,2.4,1,3.2,1.4c-1.1,1.2-2.5,2.2-4.2,2.2C186.1,65.1,186.4,63.9,186.9,62.7z"/>
</g>
<g id="_x23_807676ff">
	<path class="st9" d="M179.2,71c0.1,0,0.3,0.1,0.3,0.1c1.3,0.6,2.7,1.1,4,1.7c0.1,0.2,0.3,0.5,0.4,0.6l-1.8,0
		c0.5,6.5,1.4,13.1,2.2,19.6c0.9,1.6,2.4,2.9,2.6,4.9c5.8-2.1,6.6-8.9,10.5-13c1,2.3-0.5,4.4-1.5,6.4c1,0.1,3.1,0.3,4.1,0.4
		c-1.3,1.9-3.6,2.2-5.7,2.7c-1.6,2.2-3.6,3.9-5.9,5.3c-0.3,1.5,0.2,3.7-1.8,4.1c0.1-1.5,0.2-3,0.4-4.5l-1.1,0.3
		c-0.5,0.1-1.5,0.4-1.9,0.5c0.3-1.3,0.5-2.6,0.8-3.9c-0.7-0.2-2-0.8-2.7-1c-0.9-0.1-1.7-0.2-2.6-0.2c-1.3,0.5-2.4,1.4-3.4,2.5
		c-0.2,0.6-0.4,1.8-0.6,2.4c0.5,1.4,1.1,2.8,1.8,4.1c-0.3,0.8-0.5,1.7-0.7,2.5c-0.3,0.6-0.9,1.6-1.2,2.2c0-0.5-0.1-1.4-0.1-1.9
		c0.1-0.4,0.2-1.3,0.2-1.8c-0.7-1-1.3-1.9-2-2.9c1.3-2.8,0.6-6.3,3-8.6c1.8,0.1,3.5,0.3,5.3,0.4C181.2,86.2,180.5,78.6,179.2,71z"/>
	<path class="st9" d="M200.9,126.9c1.8,2.5,3.1,5.7,2.6,8.8c1.7,0.6,3.2,1.5,4.6,2.7c-2.8,0.8-5.5-0.8-8.2-1.3
		c0.7-0.6,1.4-1.2,2.1-1.8c-0.1-0.1-0.3-0.3-0.4-0.4c0-0.7,0-1.5-0.1-2.2C201.5,130.8,201.2,128.9,200.9,126.9z"/>
</g>
<g id="_x23_d45768ff">
	<path class="st10" d="M155.9,76c4.1-2,9.8-4.2,14-1.3c-0.6,2.4-1.4,4.8-2.9,6.9c-0.4-1.9-0.8-3.8-1.3-5.6c-1.5,0.6-3.4,0.9-4.5,2.2
		c-1.1,1.9-1.5,4.1-2.1,6.1C157.7,81.7,153.9,79.2,155.9,76z"/>
</g>
<g id="_x23_de7e8aff">
	<path class="st11" d="M81.3,89.1c-2.2-1.1,0.2-4.2,1.9-2.6C83.4,87.8,82.7,88.9,81.3,89.1z"/>
</g>
<g id="_x23_a8515bff">
	<path class="st12" d="M83.2,86.5l0.4-0.8c0.1,0.8,0.3,2.4,0.4,3.2c-0.6,1.2-1.5,2.4-0.9,3.8c0.6,0,2,0,2.6,0
		c0.8-2.4-1.6-4.6-0.2-6.9l0.2,0.8c-0.1,1.2,0.9,2.1,2,2.5c0.8,0.6,1.5,1.3,2.2,2c-0.6,0-1.8-0.1-2.4-0.1c0.1,0.5,0.2,1.6,0.2,2.2
		c-0.4,1.1-1,2-1.6,3c0.2-1.4-0.5-2.1-2-2.1c-0.6-0.1-1.8-0.2-2.4-0.3c0.9-1.3-0.2-3.2-1.8-2.8c0.3-0.5,0.9-1.4,1.2-1.9
		C82.7,88.9,83.4,87.8,83.2,86.5z"/>
</g>
<g id="_x23_dd7c88ff">
	<path class="st13" d="M85.7,86.6c1.5-1.4,3.8,1.4,2,2.5C86.6,88.6,85.6,87.8,85.7,86.6z"/>
</g>
<g id="_x23_715758ff">
	<path class="st14" d="M68.4,88.1c2.4,0.3,2.3,3.1,2.9,4.9c0.6,3.5,1.9,6.7,3,10.1c-0.3,2-2.7,2.8-3.8,4.4c-1.3,2.3-4.1,1.2-6.1,1
		c0.3-0.5,1-1.4,1.3-1.9c0.7,0.1,2.2,0.3,3,0.4c0-0.8,0-2.5,0-3.3c0.9,0,2.8,0.1,3.7,0.2c-0.1-0.6-0.2-1.9-0.3-2.5
		c-0.4-3.2-1-6.3-1.6-9.4c-0.1,1.8-0.3,3.6-0.3,5.4c-0.5-0.2-1.6-0.7-2.1-0.9L67,95.9c0.7-0.3,2-0.8,2.7-1
		C69.4,92.6,68.7,90.4,68.4,88.1z"/>
	<path class="st14" d="M176.4,114.8c1.7-3.9,6.6-2.1,9.9-2.2c2,1.7,2.1,4.6,3.5,6.7c1.8-2.1,3.2-4.6,5.6-6c-0.3,4.7-4.5,7.8-8.3,9.9
		c-1.1,2.1-3,3.1-5.4,2.8c-0.8-0.8-1.7-1.7-2.5-2.6c-3.6,0.1-6.8,1.8-9.8,3.5c-0.1,0.4-0.2,1.2-0.2,1.7c2.6,0.1,5.2,0.1,7.9,0.5
		c4.5,0.9,9.2,0.4,13.6,2.1c-0.1-1.5,0-2.9,0.1-4.4c3.2-1.2,6.7-0.6,10.1-0.4l0.1,0.6c0.3,1.9,0.6,3.9,0.6,5.8
		c-0.5-0.2-1.6-0.6-2.1-0.8c-0.3-1.5,0.2-2.9,0.6-4.4c-1.3,0.7-2.5,1.4-3.8,2.1c-1.1-0.5-1.6-1.7-2.4-2.4c-0.4,0.7-1.3,2.2-1.7,2.9
		c-0.6,1-1.3,1.9-1.9,2.9c-2.6-1.1-5.2-1.8-8.1-1.7c0.9,1.8,2,3.6,3,5.4c-0.6,0-1.7-0.1-2.3-0.1c-1-1.7-2.1-3.5-3.1-5.2
		c-4.7-1.2-9.7-1.3-14.5-1.7c-1.9-0.2-3.7,2.6-5.4,1.3l0-0.8l0.5-0.7c5.2-2.3,10-5.5,15.2-7.6C175.9,119.6,176.7,117.2,176.4,114.8
		 M180.1,117.2c-0.3,0.4-1,1.2-1.3,1.6c-2.4,0.2-0.4,3.8,1.2,2.2c0.6,0.7,1.2,1.3,1.9,1.9l0.5,0.8c0.5,0,1.4-0.1,1.9-0.1l0,0.6
		c0.5-1,0.9-2.1,1.2-3.2c1.6,1,3.5-1.8,1.4-2.4c-0.7-0.5-1.3-0.9-2-1.4c3.2-0.6-0.5-5.3-1.5-1.9c-0.7,0-1.4,0-2.1,0
		C180.2,111.7,176.7,116.6,180.1,117.2z"/>
</g>
<g id="_x23_dd7b87ff">
	<path class="st15" d="M80.1,91c1.6-0.5,2.7,1.5,1.8,2.8C80.4,94.8,78.7,92,80.1,91z"/>
	<path class="st15" d="M181.9,122.9c0.3-1.9,3.1-1.1,2.4,0.6c-0.5,0-1.5,0.1-1.9,0.1L181.9,122.9z"/>
</g>
<g id="_x23_dc7b86ff">
	<path class="st16" d="M87.5,91c0.6,0,1.8,0.1,2.4,0.1c0.3,1.6-0.4,2.3-2.1,2C87.7,92.6,87.6,91.5,87.5,91z"/>
</g>
<g id="_x23_3d2c2aff">
	<path class="st17" d="M113.1,91.5c4.2-0.8,8,1.6,10.4,4.9c0,0.6,0.1,1.8,0.1,2.3c-1.3-0.2-3.1,0.2-3.7-1.4
		C118.3,94.7,115.7,93,113.1,91.5z"/>
	<path class="st17" d="M145.6,139.4c0.7-0.8,1.3-1.5,2-2.3c0,0.6-0.1,1.7-0.1,2.3c-1.9,2.3-4.1,4.5-6.7,6.1c-3.3,2-9.3,4.2-7.7,9.2
		c1.5-0.3,4.5-1,6-1.3c-1.6,0.8-3.2,1.7-4.8,2.5c0,0.5,0,1.4-0.1,1.9c2,2.4,5.3,2.5,7.7,0.5c-0.2,1.1-0.4,2.2-0.6,3.3
		c-0.9,0.3-1.8,0.6-2.6,1c-3.7-1.7-8.2-4.8-7.5-9.5c-0.2-3.4,3.2-5.4,5.7-6.9C140.2,144.4,143.3,142.3,145.6,139.4z"/>
</g>
<g id="_x23_62393eff">
	<path class="st18" d="M70,97.2c0.1-1.8,0.2-3.6,0.3-5.4c0.6,3.1,1.2,6.2,1.6,9.4c-0.7,0-2,0.2-2.7,0.2c-0.2,0.5-0.6,1.5-0.8,2
		c-0.5,0.2-1.4,0.7-1.9,0.9c-0.2,0.5-0.7,1.6-0.9,2.1c-0.3,0.5-1,1.4-1.3,1.9c-0.7,3.1,1.6,5.9,2.4,8.7c1.6-0.1,3.1,0.2,4.5,0.9
		c0.5,0.6,0.9,1.1,1.4,1.7c1.4,2.5,3.9-0.3,1.9-1.9c1.1,0,2.2,0.1,3.3,0.1c0,0.7-0.1,1.9-0.1,2.6c0.6-0.2,1.8-0.5,2.4-0.7
		c0.2,0.4,0.5,1.1,0.7,1.5c-1.9,1.5-3.8,3.1-5.7,4.6c0.5,0.8,1.4,2.5,1.9,3.3c0.8-1.5,1.6-3,2.2-4.6c0.6,0.2,1.8,0.6,2.3,0.8
		c0.2,0.1,0.8,0.3,1,0.4c-0.1,0.6-0.3,1.7-0.4,2.2c-0.4-0.4-1.2-1.2-1.6-1.6c-0.4,3.5-5,4.5-6.6,1.3c-1.3-0.6-2.9-0.8-3.7-2
		c-1.4-1.8,0.2-3.8,0.6-5.6c-0.5-0.3-1.4-1-1.9-1.3c-2.4,0.7-4.9,1.3-7.3,2c-0.8,1.8-1.5,3.6-2.2,5.4c2.5,2.7,4.5,6.4,4,10.1
		c-0.7,0.1-2,0.4-2.6,0.5c-0.6,1.8-1.7,3.3-3.7,3.6c-0.8-0.3-2.4-0.9-3.2-1.2c-0.1,0.8-0.4,2.4-0.6,3.2c-0.5,0-1.6,0.1-2.1,0.1
		c0.5-1.5,1-2.9,1.5-4.4c-1.1-0.9-2.4-1.6-3-2.9c0.4-2.1,1.1-4.2,0.9-6.4c1.3-3.3,4.9-1.8,7.6-2.4c0.2-0.9,0.5-2.7,0.6-3.7
		c-1.7-0.7-3.8-1-5-2.5c1.8,0.1,3.7,0.3,5.5,0.5c1.6-1.4,3.5-2.2,5.6-2.2c0.2-4.2-4-7.4-2.1-11.6c-2.4-1.4-3.3-4.1-1.8-6.5
		c0.1-1.2,0.2-2.4,0.4-3.6c1.3-1.7,3.7-1.7,5.5-0.7l0.9,0.4c-0.1,1.1-0.2,3.2-0.3,4.2c1.3-0.4,2.5-0.9,3.8-1.3
		C71.1,98.7,70.4,97.7,70,97.2 M62.1,97.9c0.8,0.9,1.6,1.9,2.4,2.8c-1.2,0.7-2.5,1.5-3.7,2.2c1.2,1,2.4,2,4,2.1
		c0.1-1.3,0.2-2.7,0.2-4c0.4-0.5,1.2-1.5,1.6-2C65.9,96.8,63.8,95.4,62.1,97.9 M71.6,123.1c-1.1,1.5,1.6,2.9,2.6,1.6
		C75.3,123.2,72.6,121.7,71.6,123.1 M51.8,129.3c1.7,3.3,6.7,2.6,9.2,0.6c-0.9-0.7-1.7-1.4-2.6-2.1c-0.8,0.8-1.5,1.6-2.2,2.3
		c-0.7-0.9-1.4-1.9-2.1-2.8C53.5,127.9,52.4,128.8,51.8,129.3 M52.4,133.2c-1.8,0.4-0.6,2.9,0.9,2.3C55.2,135.1,54,132.5,52.4,133.2
		 M59,133.1c-1.3,1.5,1.6,2.8,2.6,1.6C62.8,133.1,60,131.8,59,133.1 M56.5,136c-0.5,1.7,0,2.3,1.5,1.9
		C58.6,136.1,58.1,135.5,56.5,136z"/>
</g>
<g id="_x23_f28290ff">
	<path class="st19" d="M84.3,94c1.5,0,2.1,0.7,2,2.1C84.4,96.5,83.8,95.8,84.3,94z"/>
</g>
<g id="_x23_d9737fff">
	<path class="st20" d="M176.2,97.4c0.9-1,2.1-1.9,3.4-2.5c0.1,1.1,0.2,3.4,0.3,4.6C178.6,98.8,177.4,98.2,176.2,97.4z"/>
</g>
<g id="_x23_5a393aff">
	<path class="st21" d="M179.6,95c0.9,0,1.7,0.1,2.6,0.2c-0.3,0.7-0.9,2.1-1.2,2.8c0.5,0.4,1.4,1.1,1.9,1.5c-0.1,0.8-0.4,2.4-0.6,3.2
		c1-0.1,3-0.2,4-0.2c-0.1-0.7-0.3-2.2-0.4-2.9l1.1-0.3c-0.1,1.5-0.2,3-0.4,4.5c-0.5,0.2-1.4,0.7-1.8,0.9c-0.6,1.3-1.1,3-2.9,2.8
		c-1.8-0.5-3.5-1.2-5.3-1.1c0.3-0.8,0.5-1.7,0.7-2.5c0.6-0.6,1.6-1.7,2.2-2.2c-0.8-1.5-2.5-1.6-4-1.9c0.1-0.6,0.4-1.8,0.6-2.4
		c1.2,0.7,2.5,1.4,3.7,2.1C179.8,98.4,179.6,96.1,179.6,95 M180.4,103.1c-1.2,1.3,0.7,3.8,2.1,2.4
		C183.8,104.2,181.8,101.6,180.4,103.1z"/>
</g>
<g id="_x23_cb6a76ff">
	<path class="st22" d="M181,98c0.3-0.7,0.9-2.1,1.2-2.8c0.7,0.2,2,0.8,2.7,1c-0.3,1.3-0.5,2.6-0.8,3.9c0.5-0.1,1.4-0.4,1.9-0.5
		c0.1,0.7,0.3,2.2,0.4,2.9c-1,0.1-3,0.2-4,0.2c0.1-0.8,0.4-2.4,0.6-3.2C182.4,99.1,181.5,98.4,181,98z"/>
</g>
<g id="_x23_cf6d78ff">
	<path class="st23" d="M62.1,97.9c1.7-2.5,3.8-1.1,4.6,1.2c-0.4,0.5-1.2,1.5-1.6,2c-0.1,1.3-0.2,2.7-0.2,4c-1.6-0.2-2.8-1.1-4-2.1
		c1.2-0.8,2.4-1.5,3.7-2.2C63.7,99.8,62.9,98.8,62.1,97.9z"/>
</g>
<g id="_x23_d5747fff">
	<path class="st24" d="M67.9,96.3c0.5,0.2,1.6,0.7,2.1,0.9c0.3,0.5,1,1.5,1.4,2c-1.3,0.4-2.5,0.9-3.8,1.3
		C67.7,99.5,67.8,97.4,67.9,96.3z"/>
</g>
<g id="_x23_3e2c2aff">
	<path class="st25" d="M136.1,102.6c1.2-4.5,8.7-6,11-2.4C143,99.8,140.2,103.7,136.1,102.6z"/>
	<path class="st25" d="M190.1,133.1c0.6-1,1.3-1.9,1.9-2.9c1.7,2,4.5,0.3,6.3,1.8c0,2-2,2.8-3.2,4c0.5,0.8,1.5,2.5,2,3.3
		c1.1-1.4,1.5-3.2,1.8-4.9c0.7,0.2,2,0.5,2.7,0.6c0.1,0.1,0.3,0.3,0.4,0.4c-0.7,0.6-1.4,1.2-2.1,1.8c-0.2,0.6-0.5,1.7-0.6,2.2
		c-2.6,0.8-4.8-0.4-6.1-2.7c-0.6-0.1-1.7-0.1-2.3-0.2c-0.3-0.6-1-1.9-1.3-2.5L190.1,133.1 M191.2,132.3c0.1,1.1,0.2,2.2,0.2,3.3
		c0.8-0.1,2.5-0.3,3.4-0.4c-0.1-0.7-0.2-2.1-0.3-2.8C193.4,132.3,192.3,132.3,191.2,132.3z"/>
</g>
<g id="_x23_625454ff">
	<path class="st26" d="M74.2,99.7c1.8,0.1,3.5,0.2,5.3,0.3c0.1,1.3,0.1,2.6,0.2,3.9c0.1-0.3,0.4-0.9,0.5-1.2
		c-0.2,2.7,0.1,5.4,0.6,8.1c-0.5-0.2-1.4-0.5-1.9-0.6c-0.2-1.8-0.6-3.5-1.2-5.2c0.5-1.5,0.9-3,1.4-4.6
		C77.4,100.3,75.8,100,74.2,99.7z"/>
</g>
<g id="_x23_d2707cff">
	<path class="st27" d="M175.6,99.8c1.5,0.3,3.2,0.4,4,1.9c-0.6,0.6-1.6,1.7-2.2,2.2C176.8,102.6,176.1,101.2,175.6,99.8z"/>
</g>
<g id="_x23_da737fff">
	<path class="st28" d="M180.4,103.1c1.4-1.5,3.4,1.1,2.1,2.4C181.1,106.9,179.2,104.4,180.4,103.1z"/>
</g>
<g id="_x23_b9b4b4ff">
	<path class="st29" d="M121.8,105.1c0.4-0.4,1.2-1.1,1.6-1.4c-0.7,2.6,1.5,4.5,2.9,6.5c-0.7,1.4-1.5,2.9-2.3,4.3
		c-0.3,0-0.9,0.2-1.2,0.2c0.6-1.5,2.5-2.9,2-4.7C123.8,108.3,122.8,106.7,121.8,105.1z"/>
</g>
<g id="_x23_5e5050ff">
	<path class="st30" d="M123.4,103.7c0.8-0.2,2.4-0.5,3.2-0.7c-0.7,2.8,2,2.6,3.7,3c-0.2-0.7-0.8-2.2-1-2.9c1.7,1.4,4.9,2.2,4.3,5.1
		c-1.8,1.2-3.9,2-5.9,2.6c-0.8,3.4,1.5,5.9,4.1,7.6c0.8,0.1,2.5,0.2,3.3,0.3c-1.6,1.6-4.1,0.6-6.1,0.7c-0.5,3.2-3.8,3.3-6.4,3.2
		c-1.2-1.8-2.1-3.8-2.1-6c-2.6,0.5-4.4-1.3-5.5-3.4c0.4,0.3,1.2,1,1.6,1.4c2,0.1,4,0.3,6.1,0.1c0.3-0.1,0.9-0.2,1.2-0.2
		c0.8-1.4,1.6-2.8,2.3-4.3C124.8,108.2,122.7,106.3,123.4,103.7 M125.4,115c-0.9,0.6-1.8,1.3-2.6,1.9c-0.1,0.9-0.4,2.7-0.5,3.6
		c2.3,1.7,4.7,0.1,5.5-2.3C127.2,117,126.3,116,125.4,115z"/>
</g>
<g id="_x23_f2cf92ff">
	<path class="st31" d="M87,111.3c2.3-3.4,6.8-4,10.6-3.6l0,1.4C94,109.5,90.4,110.2,87,111.3z"/>
</g>
<g id="_x23_ffb93dff">
	<path class="st32" d="M87,111.3c3.5-1.1,7-1.8,10.6-2.3c0.5-0.1,1.4-0.2,1.9-0.2l-0.4,0.5c-2.9,4.5-9.2,3.3-13.7,2.9
		C85.9,111.9,86.4,111.6,87,111.3z"/>
</g>
<g id="_x23_e8818dff">
	<path class="st33" d="M180.1,117.2c-3.4-0.6,0.1-5.5,1.2-2C181,115.7,180.4,116.7,180.1,117.2z"/>
</g>
<g id="_x23_dc7c87ff">
	<path class="st34" d="M183.4,115.2c1-3.3,4.7,1.3,1.5,1.9C184.6,116.7,183.8,115.7,183.4,115.2z"/>
</g>
<g id="_x23_d75969ff">
	<path class="st35" d="M125.4,115c0.8,1,1.7,2,2.4,3.2c-0.8,2.4-3.1,4.1-5.5,2.3c0.1-0.9,0.3-2.7,0.5-3.6
		C123.7,116.3,124.6,115.6,125.4,115z"/>
</g>
<g id="_x23_a94f59ff">
	<path class="st36" d="M181.3,115.2c0.7,0,1.4,0,2.1,0c0.4,0.5,1.1,1.5,1.5,1.9c0.7,0.5,1.3,1,2,1.4c-1.5-0.2-2,1.3-1.4,2.4
		c-0.3,1.1-0.8,2.1-1.2,3.2l0-0.6c0.7-1.8-2.2-2.5-2.4-0.6c-0.7-0.6-1.3-1.3-1.9-1.9c-0.3-0.6-0.9-1.6-1.2-2.2
		c0.3-0.4,1-1.2,1.3-1.6C180.4,116.7,181,115.7,181.3,115.2 M180.4,117.9c0.4,1.2,0.9,2.2,1.6,3.2c1.7,0.1,2.7-1.6,2.2-3.1
		C183.1,116.9,181.7,117.6,180.4,117.9z"/>
</g>
<g id="_x23_d5d5d5ff">
	<path class="st37" d="M105.6,115.8c10.8,7.2,23,13.9,36.4,13.1c2.9,0.1,6.1-0.7,8.8,0.7c-5.7,2.7-12.2,3.6-18.4,2.4
		c-9.5-1.4-19.2-3.7-27-9.3C105.3,120.3,105.6,118.1,105.6,115.8z"/>
	<path class="st37" d="M112.5,132c2.3,1.5,4.8,2.7,7.2,3.9c-0.2,2.1-0.3,4.1-0.4,6.2c-0.8-1.3-1.2-3.1-2.5-4
		c-2.7-0.7-5.6-0.3-8.3-0.3C109.8,135.8,111.1,133.9,112.5,132z"/>
	<path class="st37" d="M131.6,137.9c4.4,0,8.8-1,12.7-3.2c0.5,1.6,0.9,3.1,1.3,4.7c-2.4,2.9-5.5,5-8.7,6.7c-1-2.4-2.8-3.9-5.3-4.6
		C131.6,140.3,131.6,139.1,131.6,137.9z"/>
	<path class="st37" d="M160.4,143.2c1.2,1.9,3.4,2.5,5.4,2.9c0.6,1.5,1.1,3,1.6,4.6c-0.2,0.4-0.7,1.2-0.9,1.6l-0.3,0.6
		c-1.8-1.3-3.8-2.2-5.7-3.3C159.8,147.5,160.3,145.3,160.4,143.2z"/>
</g>
<g id="_x23_69373cff">
	<path class="st38" d="M180.4,117.9c1.3-0.3,2.7-1,3.8,0.1c0.5,1.5-0.5,3.3-2.2,3.1C181.3,120.1,180.8,119,180.4,117.9z"/>
</g>
<g id="_x23_e87f8cff">
	<path class="st39" d="M72.7,119.8c-0.1-1.4,0.6-2.1,1.9-1.9C76.6,119.4,74.1,122.3,72.7,119.8z"/>
</g>
<g id="_x23_e77e8bff">
	<path class="st40" d="M78,117.9c1.2,0,2,0.7,2.3,1.9c-0.6,0.2-1.8,0.5-2.4,0.7C77.9,119.9,78,118.6,78,117.9z"/>
</g>
<g id="_x23_f68593ff">
	<path class="st41" d="M180,121c-1.6,1.6-3.6-2-1.2-2.2C179.1,119.4,179.7,120.4,180,121z"/>
</g>
<g id="_x23_d97985ff">
	<path class="st42" d="M185.5,121c-0.6-1.1-0.1-2.6,1.4-2.4C189,119.2,187.1,122,185.5,121z"/>
</g>
<g id="_x23_a19999ff">
	<path class="st43" d="M82.4,119.8c1.3-0.3,1.8,0.2,1.3,1.7C82.4,121.8,81.9,121.3,82.4,119.8z"/>
</g>
<g id="_x23_d5d4d4ff">
	<path class="st44" d="M99.7,119.9c0.5,1.5,0.9,3.1,1.4,4.6c-2.2,1.3-4.7,1.7-7.2,1.7c-0.5-1.3-0.9-2.6-1.4-3.8
		C95.3,122.8,98.6,123.2,99.7,119.9z"/>
</g>
<g id="_x23_c76773ff">
	<path class="st45" d="M75.2,125.9c1.9-1.5,3.8-3.1,5.7-4.6c0.2,0.5,0.6,1.5,0.8,1.9c0,0.5,0,1.6-0.1,2.1c-0.6-0.2-1.7-0.6-2.3-0.8
		c-0.6,1.6-1.3,3.1-2.2,4.6C76.7,128.4,75.7,126.7,75.2,125.9z"/>
</g>
<g id="_x23_da7c87ff">
	<path class="st46" d="M71.6,123.1c1-1.4,3.7,0.1,2.6,1.6C73.2,125.9,70.5,124.6,71.6,123.1z"/>
</g>
<g id="_x23_d59c38ff">
	<path class="st47" d="M92.2,127.8c4.4,0.6,8.8-0.4,12.1-3.5c2.5,2.8,5.1,5.5,8.2,7.8c-1.4,1.9-2.8,3.8-4,5.8
		c-0.2,0.3-0.5,1-0.7,1.3c-1.5,0.3-2.9,0.6-4.3,0.9c0.6-2.5,0.3-5.4-2.5-6.5c-3.4,0.4-5.8,2.9-7.8,5.6c-0.8-0.9-1.6-1.9-2.3-2.8
		C92.7,133.7,93.9,130.7,92.2,127.8z"/>
	<path class="st47" d="M167.4,150.7c0.4-2.4,0.5-4.9,2.7-6.5c1.5,3.5,2.1,7.2,2.9,10.9c-1.9,2.8-4.6,0-6.8-0.8l0.4-1.9
		C166.8,151.9,167.2,151.1,167.4,150.7z"/>
	<path class="st47" d="M103.9,171.4c1.3-0.5,2.7-1,4-1.4c2,3,4,6.2,7.3,7.9c5.1,2.6,11.1,3.1,16.6,1.9c5.3-1.1,8.9-5.4,12.8-8.7
		c1.3,1.2,2.5,2.3,3.8,3.5c-0.4,1.5-0.7,3.1-1.1,4.7c-0.7-0.2-2-0.7-2.6-0.9c-0.4,0.8-0.9,1.5-1.3,2.3c-11,3.4-23,4.2-33.9,0.3
		c-0.1-0.8-0.3-2.3-0.4-3.1c-1.2,0.9-2.3,1.9-3.5,2.8C105.7,177.5,105.4,174.2,103.9,171.4z"/>
</g>
<g id="_x23_b68333ff">
	<path class="st48" d="M86.3,125.5c1.2-0.9,3.4,1,2.5,2.3C87.6,128.9,85.6,126.8,86.3,125.5z"/>
</g>
<g id="_x23_cc6c77ff">
	<path class="st49" d="M51.8,129.3c0.6-0.5,1.7-1.4,2.2-1.9c0.7,0.9,1.4,1.8,2.1,2.8c0.8-0.8,1.5-1.6,2.2-2.3
		c0.9,0.7,1.7,1.4,2.6,2.1C58.6,131.9,53.5,132.6,51.8,129.3z"/>
</g>
<g id="_x23_993737ff">
	<path class="st50" d="M111.6,128.8c4.9,0.8,9.5,2.9,14.4,3.8c4.6,1.2,9.4,1.3,14.1,1.8c-3.5,1.7-7.8,2.8-11.3,0.8
		c-2.5-1.6-5.6-0.2-8.3-0.8C117.3,133.2,114.2,131.2,111.6,128.8z"/>
</g>
<g id="_x23_918786ff">
	<path class="st51" d="M155.5,129.2C156,129.6,156,129.6,155.5,129.2z"/>
</g>
<g id="_x23_dab92eff">
	<path class="st52" d="M88.2,136.3c0-2.5,0.9-4.9,3-6.4C91.7,132.5,90.2,134.8,88.2,136.3z"/>
	<path class="st52" d="M121.9,136.9c1.8-0.8,4-2.2,5.9-0.6c3.8,1.8,2.3,8.4-1.9,8.5c-3,0.7-4.6-2.4-5.5-4.7
		C120.9,139,121.4,138,121.9,136.9z"/>
</g>
<g id="_x23_e37f8bff">
	<path class="st53" d="M52.4,133.2c1.5-0.7,2.8,1.9,0.9,2.3C51.8,136.1,50.6,133.5,52.4,133.2z"/>
</g>
<g id="_x23_dd7683ff">
	<path class="st54" d="M59,133.1c1-1.3,3.8,0,2.6,1.6C60.6,135.9,57.7,134.6,59,133.1z"/>
</g>
<g id="_x23_c79236ff">
	<path class="st55" d="M144.3,134.7c1.7-0.9,3.4-1.7,5.2-2.4c-0.2,1.8-0.4,3.7-0.7,5.5c-0.3,0.4-1,1.2-1.3,1.6
		c0-0.6,0.1-1.7,0.1-2.3c-0.7,0.8-1.3,1.5-2,2.3C145.2,137.8,144.7,136.3,144.3,134.7z"/>
</g>
<g id="_x23_e77f8cff">
	<path class="st56" d="M56.5,136c1.6-0.4,2.1,0.2,1.5,1.9C56.5,138.3,56,137.6,56.5,136z"/>
</g>
<g id="_x23_c3a432ff">
	<path class="st57" d="M94.7,140.1c1-2.6,3.2-4.2,6-4.3C99.8,138.4,97.5,140.1,94.7,140.1z"/>
	<path class="st57" d="M96.4,154.2c0.2-3.2,3.8-3.3,6.1-3.6C101.8,153.4,98.8,153.9,96.4,154.2z"/>
</g>
<g id="_x23_5b472cff">
	<path class="st58" d="M81.6,141.6c1.8-0.1,4-1.1,5.4,0.4c2.3,1.9,5,5.7,2.1,8.3C84.4,152.4,79.6,146,81.6,141.6 M83.6,142.5
		c1.1,2.3,2.4,5.1,5.3,5.3C88.3,145.3,86.5,142.6,83.6,142.5z"/>
</g>
<g id="_x23_fefefeff">
	<path class="st59" d="M160.1,142.3c2.7-0.1,4.9,1.2,5.8,3.8c-2.1-0.4-4.2-1-5.4-2.9L160.1,142.3z"/>
	<path class="st59" d="M133.1,154.6c-1.7-5,4.4-7.1,7.7-9.2c1.8,5.2,5.2,10.8,11.2,11.6c-2.7,3.1-6.8,3.7-10.7,4.4
		c0.2-1.1,0.4-2.2,0.6-3.3c-2.4,2-5.7,1.9-7.7-0.5c0-0.5,0-1.4,0.1-1.9c1.6-0.8,3.2-1.6,4.8-2.5
		C137.6,153.7,134.6,154.3,133.1,154.6z"/>
</g>
<g id="_x23_ccab33ff">
	<path class="st60" d="M83.6,142.5c2.9,0.1,4.7,2.8,5.3,5.3C86,147.6,84.8,144.8,83.6,142.5z"/>
</g>
<g id="_x23_ce9535ff">
	<path class="st61" d="M88.5,154.7c1.1-2.1,3.4-2.6,5.6-2.7c0.2,0.9,0.5,2.8,0.7,3.7C92.7,155.4,90.6,155,88.5,154.7z"/>
</g>
<g id="_x23_fcb538ff">
	<path class="st62" d="M158.3,152.4c2.5-0.5,5.2,0.1,6.9,2.1c-5.2-0.2-9.5,2.5-13.2,5.8C154.3,157.9,156.1,155,158.3,152.4z"/>
</g>
<g id="_x23_594a43ff">
	<path class="st63" d="M171,158.9c0.7-0.6,1.4-1.2,2-1.8c1,3.7,3.5,7,3.3,11c0.4,3.7-2.9,7-1.9,10.7c-1-0.6-1.9-1.2-2.8-1.8
		c1.6-3.1,1.1-6.7-0.1-9.8c0.5,0.2,1.7,0.5,2.2,0.6c0.3,0.4,0.9,1.1,1.2,1.5c-0.2-1.3-0.4-2.7-0.6-4
		C173.9,162.9,172.7,160.7,171,158.9z"/>
</g>
<g id="_x23_f87b8bff">
	<path class="st64" d="M89.4,166.3c3.3-0.5,6.2,2.8,4,5.7C91.2,170.7,88.8,169.2,89.4,166.3z"/>
</g>
<g id="_x23_f75e71ff">
	<path class="st65" d="M85.2,170.1c-0.3-2.5,2.1-1.3,3.2-0.5c1.1,0.7,1.1,2.1,1.5,3.2C88,172.8,85,172.7,85.2,170.1z"/>
	<path class="st65" d="M91.8,172.6c1.5-0.2,2.9-0.2,4.4-0.2c1.1,1.4,2.3,2.7,3.4,4.1c-0.5,1.8-0.5,4.2-2.6,4.8
		c-2,0.4-3.7-0.9-5.3-1.8C90.5,177.4,89.4,174.2,91.8,172.6z"/>
</g>
<g id="_x23_d5d6d6ff">
	<path class="st66" d="M101.4,170.8c2.1,3.1,3.1,7.1,2,10.8c-2.8,4.6-9.2,3.5-13.3,1.5c-2-1.2-4.8-2.2-5.9-4.3
		c0.1-0.5,0.3-1.5,0.4-2c1.1,0.8,2.3,1.7,3.6,2.3c1.2,0.2,2.4,0.3,3.7,0.4c1.6,0.9,3.3,2.2,5.3,1.8c2.1-0.6,2.2-3.1,2.6-4.8
		C100.1,174.5,100.7,172.6,101.4,170.8z"/>
</g>
<g id="_x23_d7d8d8ff">
	<path class="st67" d="M150.4,181.7c-1.6-3.2-0.4-6.8,1.1-9.8c1,1.2,2,2.4,3,3.6c-0.2,0.4-0.6,1.2-0.8,1.5c-0.1,1.5-0.6,3.2,0.8,4.2
		c1.7,2.4,4.7,0.7,6.6-0.6c0.6-1.3,1.1-2.6,1.7-3.9c0.9,0.6,1.9,1.3,2.8,1.9c0.9-0.6,1.8-1.3,2.7-1.9c0.8,0,2.3,0,3.1,0
		c-3.5,4-8.3,7.1-13.6,7.7C155.2,184.9,151.7,184.5,150.4,181.7z"/>
</g>
<g id="_x23_f67283ff">
	<path class="st68" d="M85,174.4c2.6-0.3,4.6,1.4,5.1,3.9c-0.5,0.2-1.5,0.6-2,0.8c-1.3-0.6-2.4-1.5-3.6-2.3
		C84.6,176.1,84.9,175,85,174.4z"/>
</g>
<g id="_x23_d16573ff">
	<path class="st69" d="M153.8,177.1c2.4,1.3,4.9,2.5,7.4,3.7c-1.9,1.3-4.9,3-6.6,0.6C153.2,180.3,153.8,178.6,153.8,177.1z"/>
</g>
<g id="_x23_fed735ff">
	<path class="st70" d="M171.8,179.2c1.7,0.5,3.2,1.5,4.6,2.8c-0.2,0.6-0.7,1.9-0.9,2.5c-0.4,0.2-1.3,0.6-1.7,0.8
		c-11.6,5.1-24.5,5.7-37,6.4c-13.3,0.5-26.7,0-40-1.6c-5.9-0.7-11.8-2.1-17.1-4.7c-1.5-0.6-2.5-1.7-2.3-3.4c1.2-1.6,3-2.2,4.8-2.9
		c0.1,0.5,0.3,1.4,0.4,1.8c0.4,2,0.8,4.3,3.3,4.6c9.9,2.7,20.1,4.8,30.4,4.3c-2.7-0.8-5.4-1.8-8.1-3c5.9-1.5,11.9-0.1,17.8,0.3
		c6.1,0.5,12-1.4,18.1-0.7c2.1,0.4,3.8,1.8,5.9,2.3c1.8,0.2,3.2-1.2,4.8-1.8C161.2,186.9,167.9,184.5,171.8,179.2z"/>
</g>
<g id="_x23_d5b636ff">
	<path class="st71" d="M82.6,180.8c4.5,2.6,9,5.8,14.4,5.7c3.8,0.1,7.1-1.9,10-3.9c10,3,20.7,3.7,31,1.5c2.7-0.5,5.2-1.6,7.9-1.8
		c2.9,1.7,5.8,3.4,8.9,4.7c-1.6,0.6-3,2-4.8,1.8c-2.1-0.5-3.8-1.9-5.9-2.3c-6.1-0.7-12,1.2-18.1,0.7c-5.9-0.3-12-1.7-17.8-0.3
		c2.6,1.2,5.3,2.1,8.1,3c-10.3,0.5-20.5-1.7-30.4-4.3C83.4,185.1,82.9,182.8,82.6,180.8z"/>
</g>
<g id="_x23_81682eff">
	<path class="st72" d="M136.8,191.6c12.5-0.7,25.4-1.2,37-6.4c0.4,0.3,1.3,0.9,1.7,1.2c-3.7,2.7-8.3,3.4-12.6,4.5
		c-10.9,2.3-22.1,3.1-33.2,3.2c-4.5,0-9.1,0.1-13.6-0.1c-5.6-0.3-11.3-0.9-16.9-1.5c-0.3-0.1-1-0.3-1.4-0.4c-0.3-0.5-0.8-1.5-1.1-2
		C110.1,191.6,123.5,192.1,136.8,191.6z"/>
</g>
<g id="_x23_ffd935ff">
	<path class="st73" d="M77.4,186.1c3.1,1.8,6.5,3.1,10,3.9c0.1,1.8,0.1,3.7,0.1,5.5c-3.5-1.1-7.6-1.8-9.9-4.9
		C77.4,189.1,77.4,187.6,77.4,186.1z"/>
</g>
<g id="_x23_e4c236ff">
	<path class="st74" d="M175.5,186.4l0.6-0.4c0,1.6,0.1,3.2-0.1,4.9c-2.4,2.4-5.8,3.4-9,4.3c-0.4-1.4-0.9-2.7-1.3-4.1
		c-0.7-0.1-2.1-0.2-2.8-0.2C167.3,189.8,171.8,189,175.5,186.4z"/>
</g>
<g id="_x23_dcbb36ff">
	<path class="st75" d="M87.4,189.9c3.5,0.9,7.1,1.2,10.5,2c0.3,0.1,1,0.3,1.4,0.4c-0.8,0.2-2.3,0.6-3.1,0.7c-0.2,1.4-0.3,2.7-0.5,4
		c-2.7-0.6-5.4-1.2-8.2-1.7C87.5,193.6,87.4,191.8,87.4,189.9z"/>
</g>
<g id="_x23_ffd835ff">
	<path class="st76" d="M129.8,194c11.1,0,22.3-0.8,33.2-3.2c0.7,0,2.1,0.2,2.8,0.2c0.4,1.4,0.9,2.7,1.3,4.1
		c-6.9,1.8-14,2.8-21.1,3.5l-0.4-0.4c-0.2-0.1-0.5-0.4-0.6-0.6c-5,0.4-10,0.8-15,0.6C129.9,196.8,129.8,195.4,129.8,194z"/>
	<path class="st76" d="M96.2,193.1c0.8-0.2,2.3-0.5,3.1-0.7c5.6,0.7,11.2,1.2,16.9,1.5c-0.2,1.3-0.3,2.7-0.4,4
		c-3.3,0.2-6.6,0.5-9.9,0.6c-3.4-0.3-6.7-1.2-10.1-1.3C95.8,195.8,96,194.5,96.2,193.1z"/>
</g>
<g id="_x23_d7b836ff">
	<path class="st77" d="M116.2,193.9c4.5,0.2,9.1,0.1,13.6,0.1c0.1,1.4,0.1,2.8,0.2,4.2c5,0.2,10-0.1,15-0.6c0.1,0.1,0.5,0.4,0.6,0.6
		c-0.1,0.3-0.2,0.8-0.3,1.1c-4.4-0.6-8.9,0.3-13.4,0.2c-8.7-0.1-17.5,0-26.2-1c3.3,0,6.6-0.3,9.9-0.6
		C115.8,196.6,116,195.3,116.2,193.9z"/>
</g>
</svg>
