<?xml version="1.0" encoding="utf-8"?>
<!-- Generator: Adobe Illustrator 26.0.3, SVG Export Plug-In . SVG Version: 6.00 Build 0)  -->
<svg version="1.1" id="Layer_1" xmlns="http://www.w3.org/2000/svg" xmlns:xlink="http://www.w3.org/1999/xlink" x="0px" y="0px"
	 viewBox="0 0 250 250" style="enable-background:new 0 0 250 250;" xml:space="preserve">
<style type="text/css">
	.st0{fill:#F1E1FB;}
	.st1{fill:#140035;}
	.st2{fill:#826A80;}
	.st3{fill:#E5A75A;}
	.st4{fill:#E4A750;}
	.st5{fill:#947D7B;}
	.st6{fill:#AFA4D1;}
	.st7{fill:#AEAED1;}
	.st8{fill:#130048;}
	.st9{fill:#F9F2EE;}
	.st10{fill:#FCF2EF;}
	.st11{fill:#120646;}
	.st12{fill:#FACF94;}
	.st13{fill:#B3A9EB;}
	.st14{fill:#28166A;}
	.st15{fill:#FCA429;}
	.st16{fill:#B6AEE9;}
	.st17{fill:#B2AEE0;}
	.st18{fill:#73618A;}
	.st19{fill:#DAA36A;}
	.st20{fill:#FCF4E0;}
	.st21{fill:#FDF5DF;}
	.st22{fill:#160230;}
	.st23{fill:#230932;}
	.st24{fill:#06036D;}
	.st25{fill:#030370;}
	.st26{fill:#FBFBFF;}
	.st27{fill:#FBFCFF;}
	.st28{fill:#CD9E7D;}
	.st29{fill:#E8A746;}
	.st30{fill:#080563;}
	.st31{fill:#FEF3EA;}
	.st32{fill:#F7D9A5;}
	.st33{fill:#63599B;}
	.st34{fill:#A49FF0;}
	.st35{fill:#A9A4F8;}
	.st36{fill:#130647;}
	.st37{fill:#FB8183;}
	.st38{fill:#B1AFDE;}
	.st39{fill:#F98382;}
	.st40{fill:#B4AAC0;}
	.st41{fill:#020029;}
	.st42{fill:#958EBE;}
	.st43{fill:#B3A8C4;}
	.st44{fill:#6A194F;}
	.st45{fill:#F46F74;}
	.st46{fill:#1C0448;}
	.st47{fill:#810C41;}
	.st48{fill:#B31330;}
	.st49{fill:#C80319;}
	.st50{fill:#F9F5EF;}
	.st51{fill:#83113B;}
	.st52{fill:#B00928;}
	.st53{fill:#FFF1D1;}
	.st54{fill:#F80204;}
	.st55{fill:#E2A74F;}
	.st56{fill:#FBA42A;}
	.st57{fill:#A90B26;}
	.st58{fill:#47002D;}
	.st59{fill:#D49A6D;}
	.st60{fill:#240307;}
	.st61{fill:#D1995A;}
	.st62{fill:#490E2F;}
	.st63{fill:#B56F27;}
	.st64{fill:#D9A072;}
	.st65{fill:#870D3B;}
	.st66{fill:#A37464;}
	.st67{fill:#FAA42B;}
	.st68{fill:#6ADEEF;}
	.st69{fill:#D4A985;}
	.st70{fill:#FAF3EE;}
	.st71{fill:#B0A8CC;}
	.st72{fill:#290005;}
	.st73{fill:#B2ABC9;}
	.st74{fill:#F7A42C;}
	.st75{fill:#FAA32D;}
	.st76{fill:#200000;}
	.st77{fill:#AA7160;}
	.st78{fill:#B2AAC9;}
	.st79{fill:#AF8473;}
	.st80{fill:#AC7247;}
	.st81{fill:#B7752E;}
	.st82{fill:#280307;}
	.st83{fill:#FAF2F2;}
	.st84{fill:#FBF3F0;}
	.st85{fill:#FCF3F0;}
	.st86{fill:#FAF3F1;}
</style>
<circle class="st0" cx="125" cy="125" r="125"/>
<g id="_x23_140035ff">
	<path class="st1" d="M76.1,31c2.9-1.5,6.5-1,9.4,0.3c6.6,3.1,12.4,7.7,18.7,11.4c3,2.1,6.5,0.2,9.7-0.2c11-2.5,22.2-1,33.1,1.3
		c8.2-3.5,14.9-10.1,23.4-13.2c2.9-1,6-0.3,8.7,1c7,9.6,4.6,22.4,2,33.1c-0.9-4.1,0-8.3,0.1-12.5c0.1-6.7,0.3-14.6-4.8-19.8
		c-2.8-0.1-5.7,0.2-8.2,1.5c-6.4,3.2-12.1,7.6-18.2,11.2c2.1,1.1,4.3,2.1,6.4,3.2c5.6-3.8,10.8-8.2,16.7-11.6
		c0.6-0.1,1.7-0.4,2.2-0.6c2.8,2.4,3.4,6.1,3.8,9.5c0.4,8.2-1.2,16.4-3.6,24.3c1.3-0.1,2.7-0.1,4-0.2c-1,1.9-1.6,4.1-0.5,6.2
		c3.3,8.6,5.1,17.8,6,26.9c-0.6,0.3-1.7,1-2.3,1.3c-0.8-5.4-1.4-10.8-2.9-16c-1.8-8.6-4.7-17.3-9.8-24.5c0.5-0.1,1.5-0.4,2-0.5
		c0.4,0.7,1.4,1.9,1.8,2.6c0.2,0.3,0.6,1,0.9,1.3c2.7-7.9,3.5-16.5,1.8-24.7c-0.4-1.3-0.5-3.3-2.3-3.3c-3.5,1.3-6.4,3.9-9.5,5.9
		c1.9,1.7,1.9,4.1,2,6.4c0.2,0.3,0.7,1,0.9,1.3c1.8,1.6,0.8,4,0.3,6c-0.5-0.4-1.4-1.3-1.9-1.7c0.3-0.6,0.8-1.7,1.1-2.2
		c-0.9-0.7-1.9-1.5-2.8-2.2c-0.5,0.5-1.4,1.6-1.9,2.1c-12.6-10.1-29.8-12.5-45.4-10.4c-9.7,1.1-19.1,5-26.6,11.3
		c0-0.7-0.1-2.1-0.1-2.7c0.4-0.2,1.3-0.7,1.7-0.9c1.3-0.7,2.5-1.4,3.8-2.1c-1.2-1-2.5-2-3.7-3c-1.2-1-2.4-1.9-3.6-2.8
		c-3.1-2-6.2-4-9.4-5.8c-3.8,9.1-2.3,19.5,0.2,28.7c0.1-0.2,0.4-0.6,0.5-0.8c0.9-1.2,1.8-2.3,2.8-3.4l0.7,0.2
		c-2,5.6-5.1,10.8-6.8,16.5c-2.3,7.5-3.8,15.3-4.6,23.1l-0.4,1c-0.1,0.1-0.2,0.4-0.3,0.6c-0.6-0.8-1.2-1.5-1.9-2.3
		c0.6-5.6,1.3-11.3,2.9-16.8c1.8-4.8,4.3-9.5,5.4-14.6c-1.6-8.2-4-16.4-2.7-24.9c0.6-3.2,1.7-6.3,3.1-9.3c0.8,0.1,2.3,0.4,3.1,0.5
		c5.9,2.9,10.6,7.8,16.3,11c2.5-0.1,4.5-1.7,6.7-2.7c-6.3-3.6-12.1-8.1-18.7-11.3c-2.5-1.3-5.4-1.5-8.1-1.1
		c-3.5,3.9-4.2,9.2-4.6,14.1c-1-2.2-1.5-4.6-1.5-7C71.8,36.5,73.2,33,76.1,31 M158.3,49.8c0.7,0.5,2.1,1.6,2.9,2.2
		c1.7-0.9,3.5-2.1,3.6-4.3c-0.7-0.1-2.1-0.2-2.7-0.3C160.8,48.2,159.5,49,158.3,49.8z"/>
</g>
<g id="_x23_826a80ff">
	<path class="st2" d="M72.5,46.8c0.4-5,1.2-10.2,4.6-14.1c1.2,1.5,2.4,2.9,3.8,4.3c-0.8-0.1-2.3-0.4-3.1-0.5c-1.4,3-2.5,6.1-3.1,9.3
		c-0.5,2.2-1,4.4-1.4,6.6C73.1,50.5,72.8,48.7,72.5,46.8z"/>
</g>
<g id="_x23_e5a75aff">
	<path class="st3" d="M77.1,32.7c2.8-0.3,5.6-0.2,8.1,1.1c6.5,3.3,12.3,7.8,18.7,11.3c-2.2,1-4.2,2.6-6.7,2.7
		c-5.8-3.1-10.4-8-16.3-11C79.6,35.6,78.3,34.1,77.1,32.7z"/>
</g>
<g id="_x23_e4a750ff">
	<path class="st4" d="M168.2,34c2.5-1.4,5.4-1.6,8.2-1.5c-1.1,1.5-2.2,2.9-3.4,4.3c-5.9,3.4-11.1,7.8-16.7,11.6
		c-2.1-1.1-4.3-2.2-6.4-3.2C156.1,41.7,161.8,37.3,168.2,34z"/>
</g>
<g id="_x23_947d7bff">
	<path class="st5" d="M176.4,32.5c5.1,5.2,4.8,13.1,4.8,19.8c-1.6-1.8-1.9-4.2-2.1-6.5c-0.3-3.4-1-7.2-3.8-9.5
		c-0.5,0.1-1.7,0.4-2.2,0.6C174.2,35.4,175.3,33.9,176.4,32.5z"/>
</g>
<g id="_x23_afa4d1ff">
	<path class="st6" d="M79.1,67.1c-2.5-9.2-4-19.7-0.2-28.7c3.2,1.8,6.3,3.7,9.4,5.8c0.1,0.3,0.2,0.8,0.3,1.1c-1.4,2-1.4,4.3-1,6.6
		c-0.5,0.3-1.5,0.8-2,1.1c0.1-4.7-2.6-9.8-6.7-12.1c-3,8.2-1.6,17.3,0.8,25.4C79.5,66.5,79.3,66.9,79.1,67.1z"/>
</g>
<g id="_x23_aeaed1ff">
	<path class="st7" d="M164.6,45c3.1-2,6-4.5,9.5-5.9c1.8-0.1,1.9,1.9,2.3,3.3c1.6,8.2,0.9,16.8-1.8,24.7c-0.2-0.3-0.6-1-0.9-1.3
		c2.2-3.1,2.3-7.1,2.6-10.8c0.4-5,0.3-10.2-1.7-14.9c-3.3,3.6-5.9,7.9-7.1,12.6c-0.2-0.3-0.7-1-0.9-1.3
		C166.6,49.1,166.5,46.7,164.6,45z"/>
</g>
<g id="_x23_130048ff">
	<path class="st8" d="M70.5,51.7c-0.2-4-0.2-8,0.5-11.9c0.1,2.4,0.6,4.8,1.5,7c0.2,1.9,0.6,3.7,0.8,5.6c0.5,6.2,1.9,12.4,4.1,18.2
		c-1.1,5.1-3.6,9.8-5.4,14.6c0.8-4.2,3.1-8,3.5-12.3C72.8,66.2,70.9,59,70.5,51.7z"/>
</g>
<g id="_x23_f9f2eeff">
	<path class="st9" d="M78.9,40.9c4.1,2.2,6.8,7.4,6.7,12.1c0,1.6-0.1,3.2-0.1,4.9c-0.5,2-1.8,3.6-3.1,5.1c-1,1.1-1.9,2.2-2.8,3.4
		C77.3,58.1,75.9,49,78.9,40.9z"/>
</g>
<g id="_x23_fcf2efff">
	<path class="st10" d="M167.5,52.7c1.2-4.8,3.8-9,7.1-12.6c2.1,4.7,2.1,9.9,1.7,14.9c-0.4,3.7-0.4,7.7-2.6,10.8
		c-0.5-0.7-1.4-1.9-1.8-2.6c-1.3-1.5-2.6-3-4-4.5C168.3,56.8,169.3,54.4,167.5,52.7z"/>
</g>
<g id="_x23_120646ff">
	<path class="st11" d="M88.3,44.1c1.3,0.9,2.5,1.8,3.6,2.8c-0.9,0.6-2.5,0.7-2.6,2.1c0.8,1.1,1.7,2,2.5,3c-0.4,0.2-1.3,0.7-1.7,0.9
		c-2.2,0.6-2.6,2.5-2.7,4.5c-0.1,0.1-0.3,0.2-0.4,0.2c-0.4,0-1.2,0.1-1.6,0.2c0-1.6,0-3.2,0.1-4.9c0.5-0.3,1.5-0.8,2-1.1
		c-0.4-2.3-0.4-4.6,1-6.6C88.6,45,88.4,44.4,88.3,44.1z"/>
	<path class="st11" d="M182.6,104.3c0.6-0.3,1.7-1,2.3-1.3c3.5,4.2,5.7,9.6,5.5,15.1c-0.6,6.1-3.3,11.8-7.4,16.3
		c-5.8,6.6-13.8,11-22.1,13.4l-1.3-1.6c12-3.9,24.7-11.9,27.3-25.1C188.7,115.2,186.8,108.7,182.6,104.3z"/>
</g>
<g id="_x23_facf94ff">
	<path class="st12" d="M90.3,55.7c7.5-6.3,16.9-10.2,26.6-11.3c15.7-2.1,32.8,0.3,45.4,10.4c1.2,0.8,2.4,1.5,3.6,2.3
		c0.5,0.4,1.4,1.3,1.9,1.7c1.4,1.4,2.8,2.9,4,4.5c-0.5,0.1-1.5,0.4-2,0.5c-6.9-7.1-15.4-12.9-25-15.6c-7.8-2.2-15.9-1.9-23.9-1.8
		c-11.9,0.3-23.5,5.2-32.5,13c-1.3,1.2-2.4,2.7-3.2,4.3c-0.5-0.2-1.6-0.4-2.2-0.6l-0.7-0.2c1.3-1.5,2.6-3.1,3.1-5.1
		c0.4,0,1.2-0.1,1.6-0.2c0.1-0.1,0.3-0.2,0.4-0.2C88.4,56.9,89.4,56.3,90.3,55.7z"/>
</g>
<g id="_x23_b3a9ebff">
	<path class="st13" d="M73.3,52.4c0.4-2.2,0.9-4.4,1.4-6.6c-1.3,8.5,1.1,16.7,2.7,24.9C75.3,64.7,73.8,58.6,73.3,52.4z"/>
	<path class="st13" d="M89.4,49c0.1-1.3,1.7-1.5,2.6-2.1c1.2,1,2.4,2,3.7,3c-1.2,0.7-2.5,1.5-3.8,2.1C91,51,90.1,50.1,89.4,49z"/>
</g>
<g id="_x23_28166aff">
	<path class="st14" d="M179,45.8c0.3,2.3,0.5,4.7,2.1,6.5c0,4.2-1,8.3-0.1,12.5c-0.4,1.8-1,3.4-1.6,5.1c-1.3,0.1-2.7,0.1-4,0.2
		C177.8,62.2,179.4,54,179,45.8z"/>
</g>
<g id="_x23_fca429ff">
	<path class="st15" d="M88.4,59.3c9-7.8,20.6-12.7,32.5-13c8-0.2,16.2-0.5,23.9,1.8c9.6,2.8,18.1,8.5,25,15.6
		c5.1,7.2,8,15.9,9.8,24.5c-0.4,4.7,0.4,9.3,0.7,14c-1.1-0.6-2.3-1.1-3.5-1.6c-4.8-2.3-10.2-0.4-15.2-0.8c-0.5-5.1-0.8-11-4.9-14.7
		c-3-3.1-7.9-3.8-11.8-2.2c-2.7,1.5-4.8,4.2-5.9,7.1c-0.9,3.2-0.6,6.5-0.8,9.8c-7.1-3.5-15.5-3.5-22.7-0.4c0-5.5-0.2-12.4-5.4-15.7
		c-4.9-3.3-11.7-0.8-15,3.6c-2.8,3-2.9,7.3-3,11.2c-5.7,0.2-11.3-0.3-17-0.6c-0.2-1.7-0.4-3.4-0.5-5C75.8,88.9,77,85,78,81
		c1.5-6.1,4.9-11.6,7.3-17.4C86.1,62,87.1,60.5,88.4,59.3 M98.2,75.5c3.3,0.2,6.6,0.2,10,0.1c0.8-0.8,1.5-1.5,2.3-2.3
		c0-1.5,0-3,0-4.5c-1.7-1.1-3.4-2.9-5.6-2.1C101.3,68.2,97.6,71.1,98.2,75.5 M143.5,74.3c3.8,1.9,8,1.5,12.1,1.3
		c0.6-4.9-4.2-8.8-8.8-9C143.1,67.4,143.3,71.2,143.5,74.3z"/>
</g>
<g id="_x23_b6aee9ff">
	<path class="st16" d="M158.3,49.8c1.2-0.8,2.5-1.6,3.7-2.5c0.7,0.1,2.1,0.2,2.7,0.3c-0.1,2.2-1.9,3.4-3.6,4.3
		C160.4,51.4,159,50.3,158.3,49.8z"/>
	<path class="st16" d="M85.9,215.2c1.4-0.2,2.8-0.3,4.3-0.4c-0.2,0.8-0.6,2.3-0.8,3c-1-0.2-1.9-0.4-2.9-0.6
		C86.3,216.7,86.1,215.7,85.9,215.2z"/>
</g>
<g id="_x23_b2aee0ff">
	<path class="st17" d="M87.5,57.4c0-2,0.5-3.9,2.7-4.5c0,0.7,0.1,2.1,0.1,2.7C89.4,56.3,88.4,56.9,87.5,57.4z"/>
	<path class="st17" d="M98.9,207.7l0.2-0.2l1.5-0.2c0.1,3.3-0.1,6.6-0.2,10c-2.6,0.1-5.2,0.2-7.9,0.3c-0.2-0.5-0.4-1.6-0.6-2.1
		c1.9-0.6,3.9-1.2,5.8-1.8c0.2-1.8,0.5-3.5,0.7-5.3C98.4,208.2,98.7,207.9,98.9,207.7z"/>
</g>
<g id="_x23_73618aff">
	<path class="st18" d="M162.4,54.7c0.5-0.5,1.4-1.6,1.9-2.1c0.9,0.7,1.9,1.5,2.8,2.2c-0.3,0.6-0.8,1.7-1.1,2.2
		C164.8,56.2,163.5,55.5,162.4,54.7z"/>
</g>
<g id="_x23_daa36aff">
	<path class="st19" d="M83.1,63c0.5,0.1,1.6,0.4,2.2,0.6C82.9,69.5,79.5,74.9,78,81c-1,4-2.2,7.9-3.2,11.8c-0.4,2.8-2.5,6.9,0.9,8.4
		c-1.4,0.4-2.7,0.9-4,1.4c0.8-7.8,2.3-15.6,4.6-23.1C78.1,73.8,81.1,68.7,83.1,63z"/>
	<path class="st19" d="M95.3,87.3c3.3-4.5,10-6.9,15-3.6c5.2,3.3,5.4,10.2,5.4,15.7c7.2-3.1,15.6-3.1,22.7,0.4
		c0.1-3.3-0.1-6.6,0.8-9.8c1.1-2.9,3.2-5.6,5.9-7.1c3.9-1.6,8.8-0.9,11.8,2.2c4.1,3.7,4.4,9.6,4.9,14.7c5.1,0.4,10.4-1.5,15.2,0.8
		c-5.6-0.6-11.1,0.6-16.4,2.1c-0.1-0.4-0.4-1.2-0.6-1.7c-0.2-4,0.1-8.4-2.4-11.8c-2.2-3.7-6.8-7-11.1-4.9c-5.4,2.4-6.8,9.2-5.8,14.5
		c0.1,1.4,0.2,2.7,0.3,4.1c-2.6-1-5.2-2.1-7.9-3c-3.5-1-7.2-0.8-10.7-0.5c-1.7,0-2.7,1.5-2.8,3c-0.3-0.7-0.5-1.5-0.7-2.2
		c-2.3,1.4-4.7,2.6-7.1,3.6c1.8-4.8,2.8-10.3,0.4-15c-1.8-4.1-7.2-6.7-11.2-4.1c-6.2,3.3-7.7,11.3-6.5,17.7
		c-1.4-0.4-2.8-0.8-4.2-1.1c1.1-0.6,1.7-1.7,2-2.9C92.4,94.6,92.5,90.3,95.3,87.3z"/>
	<path class="st19" d="M80.6,192.5c-8-4.3-14.9-12.8-13-22.4c0.1,2.5,0.4,5,1.2,7.4c0.2,0.4,0.5,1.2,0.6,1.6c0.4-1,0.9-2.1,1.4-3.1
		c-1.2,7.4,6.2,13.3,12.8,14.7c-0.1,1.3-0.1,2.7-0.1,4c-0.4,0.4-1.3,1.2-1.8,1.6C81.3,195,80.9,193.8,80.6,192.5z"/>
</g>
<g id="_x23_fcf4e0ff">
	<path class="st20" d="M98.2,75.5c-0.7-4.3,3.1-7.3,6.7-8.8c2.2-0.8,3.9,1,5.6,2.1c0,1.5,0,3,0,4.5c-0.8,0.8-1.5,1.5-2.3,2.3
		C104.9,75.7,101.6,75.7,98.2,75.5z"/>
</g>
<g id="_x23_fdf5dfff">
	<path class="st21" d="M143.5,74.3c-0.2-3-0.4-6.9,3.3-7.7c4.6,0.2,9.4,4.1,8.8,9C151.6,75.7,147.3,76.2,143.5,74.3z"/>
</g>
<g id="_x23_160230ff">
	<path class="st22" d="M100.9,84.8c4-2.6,9.4,0,11.2,4.1c2.5,4.7,1.4,10.3-0.4,15c-1.4,1.7-3,3.2-4.7,4.5c1-3.4,3.5-6.1,4.4-9.5
		c0.5-1.7-0.9-2.7-2-3.7c0.4-3.1,0.9-7.4-2.7-8.8c-4.1-1.7-8.2,1.6-9.7,5.3c-2.1,4-0.4,8.6-1.4,12.9c-0.2-0.3-0.7-0.9-0.9-1.3
		l-0.2-1C93.3,96.1,94.8,88.2,100.9,84.8z"/>
</g>
<g id="_x23_230932ff">
	<path class="st23" d="M146.5,84.4c4.3-2,8.9,1.3,11.1,4.9c2.4,3.4,2.2,7.8,2.4,11.8c-1.3,4.3-4.9,9.1-9.9,8.3
		c-3.7-0.3-6-3.7-8.4-6.2c-0.3-1.5-0.7-2.9-0.9-4.4C139.7,93.6,141,86.8,146.5,84.4 M145.3,87.6c-0.7,1.5-1.2,3-1.8,4.5
		c0.1,0.3,0.4,0.9,0.6,1.1c-2.6,2.4-1.8,6.3-0.6,9.2c1.2,2.9,4.2,4.4,6.5,6.2c1.7-0.7,3.3-1.3,5-2l-0.7-0.3c0.3-0.5,0.9-1.5,1.3-2
		c3.6-3.4,2.1-9.2,0.4-13.2C154.8,86.8,148.7,84.4,145.3,87.6z"/>
	<path class="st23" d="M119.9,124.8c-0.4-2.1-0.9-4.7,0.9-6.3c0.5,2.3,0.5,4.8,1.7,7c1.8,2.5,5.6,2.3,8,1c2.2-1.8,2-4.9,2.5-7.3
		c0.5,0.8,1.1,1.5,1.6,2.3c-0.1,0.7-0.2,2.1-0.2,2.8C132.4,130.7,122.3,131.1,119.9,124.8z"/>
	<path class="st23" d="M159.6,178.8c1.1,0,2.1-0.1,3.2-0.1c4,2.9,6.1,7.5,7.4,12.1c0.5,5,0.1,10-2.1,14.6l-1.8-0.3
		c0.4-1.5,0.7-3,1-4.5C169.9,192.5,166.6,183.5,159.6,178.8z"/>
</g>
<g id="_x23_06036dff">
	<path class="st24" d="M97,91.9c1.5-3.7,5.6-6.9,9.7-5.3l-0.6,0.2c-3.6,0.6-3.4,5.5-1.6,7.8c0.9,1.9,3.4,0.7,5,0.8
		c1.1,1,2.5,2,2,3.7c-1,3.4-3.4,6.1-4.4,9.5c-4.2,2.5-9.4,0.5-11.5-3.7C96.7,100.5,94.9,95.9,97,91.9 M98.2,101.4
		c-0.6,1.6,0.2,3.1,0.8,4.5c0.6-0.1,1.8-0.3,2.3-0.3c0-0.5,0.2-1.6,0.2-2.1c-0.3-0.5-1-1.4-1.3-1.8
		C99.8,101.5,98.7,101.4,98.2,101.4z"/>
</g>
<g id="_x23_030370ff">
	<path class="st25" d="M145.3,87.6c3.3-3.2,9.5-0.8,10.7,3.4c1.7,4,3.2,9.8-0.4,13.2c0-0.7,0-2,0-2.7c-0.6,0-1.8,0-2.4-0.1
		c-0.4,1.2-0.7,2.5-1.1,3.7c0.6,0.3,1.7,0.8,2.2,1l0.7,0.3c-1.7,0.7-3.3,1.3-5,2c-2.4-1.8-5.4-3.3-6.5-6.2c-1.3-2.8-2-6.8,0.6-9.2
		c0.4,1.8,2.5,3.5,4.2,2.1c2.7-1.8,3.5-7.5-0.3-8.4C147.1,87.1,146.2,87.3,145.3,87.6z"/>
</g>
<g id="_x23_fbfbffff">
	<path class="st26" d="M104.5,94.5c-1.8-2.3-2-7.2,1.6-7.8l0.6-0.2c3.7,1.4,3.1,5.7,2.7,8.8C107.9,95.2,105.4,96.4,104.5,94.5z"/>
	<path class="st26" d="M140.9,148.2c5-0.4,10-2.4,15-1.2c-7,1.8-14.1,2.8-21.2,4.1c-5,0.8-10.1,0.5-15.1,0.2c-1.7-0.4-3.3-0.8-5-1
		c1.2-0.5,2.3-0.9,3.5-1.4C125.7,149.7,133.4,149,140.9,148.2z"/>
</g>
<g id="_x23_fbfcffff">
	<path class="st27" d="M145.3,87.6c0.9-0.3,1.8-0.5,2.7-0.7c3.8,0.9,3,6.6,0.3,8.4c-1.7,1.4-3.8-0.2-4.2-2.1
		c-0.1-0.3-0.4-0.9-0.6-1.1C144.1,90.6,144.7,89.1,145.3,87.6z"/>
</g>
<g id="_x23_cd9e7dff">
	<path class="st28" d="M179.7,88.2c1.5,5.2,2.2,10.6,2.9,16c-0.7-0.7-1.5-1.4-2.3-2C180.1,97.6,179.3,92.9,179.7,88.2z"/>
	<path class="st28" d="M158.6,178.8c0.3,0,0.8,0,1,0c6.9,4.8,10.3,13.7,7.8,21.8c-1,0-2-0.1-3-0.1c4-5.7,1.9-13.9-3.5-18
		c-1.8,4.9-1.9,10.2-2.8,15.3c-0.4-0.3-1.2-0.9-1.6-1.3C157.6,190.6,158.6,184.7,158.6,178.8z"/>
</g>
<g id="_x23_e8a746ff">
	<path class="st29" d="M75.7,101.2c-3.5-1.5-1.3-5.7-0.9-8.4c0.1,1.7,0.3,3.4,0.5,5c5.7,0.3,11.3,0.8,17,0.6c-0.3,1.2-0.9,2.3-2,2.9
		C85.5,100.1,80.4,99.7,75.7,101.2z"/>
</g>
<g id="_x23_080563ff">
	<path class="st30" d="M122.4,99.6c3.5-0.3,7.2-0.6,10.7,0.5c0.4,0.2,1.3,0.7,1.8,1c-0.9,2.8-3.2,4.7-5.6,6.2l-0.8,0.6
		c-0.1,1.4-0.1,2.7-0.1,4.1c1.9,1,3.9,1.7,6.1,2.1c0.5,1.6,0.7,3.3,0.7,5c-2.4-0.2-4.7-0.2-7.1-0.2c-0.5,0-1.5,0-2,0
		c-1.7-0.1-3.4-0.2-5.2-0.3c-1.9,1.7-1.3,4.2-0.9,6.3c-0.7-3.3-0.9-6.8-3.1-9.6c-1.5-1.8-1.4-4.1-1.3-6.3c0.3,0.2,1,0.7,1.3,1
		c0.6,1.7,1.1,3.8,3.1,4.3c2.4-0.2,5.4-1.2,5.8-4c-0.1-0.6-0.2-1.7-0.2-2.3c-2.1-1.7-4.4-3.2-5.9-5.4
		C119.7,101,120.7,99.6,122.4,99.6 M124.1,101.2c1.9,0.8,5.1,1.3,6.1-1.2C128.4,100.7,124.6,98.7,124.1,101.2z"/>
</g>
<g id="_x23_fef3eaff">
	<path class="st31" d="M141,103c-0.1-1.4-0.2-2.7-0.3-4.1c0.3,1.5,0.6,2.9,0.9,4.4c2.4,2.5,4.7,5.8,8.4,6.2c5,0.8,8.7-4,9.9-8.3
		c0.2,0.4,0.4,1.2,0.6,1.7c5.3-1.5,10.8-2.8,16.4-2.1c1.2,0.5,2.3,1,3.5,1.6c0.8,0.6,1.5,1.3,2.3,2c4.1,4.5,6.1,11,4.2,16.9
		c-4,3.2-6.7,7.8-11.1,10.6c-13.5,9.7-30.6,11.9-46.8,12.5c-14.9-0.1-30.3-1.7-43.9-8.4c-6.9-3.3-12.9-8.4-17-14.9
		c-2.5-3.7-0.8-8.4,0.1-12.4c0.8-1.5,1.9-2.9,2.8-4.4c0.1-0.1,0.2-0.4,0.3-0.6c3.9-0.6,7.7-2,11.7-2.3c4,0.2,7.8,1.6,11.7,2.1
		c0.2,0.3,0.7,0.9,0.9,1.3c2.1,4.2,7.3,6.2,11.5,3.7c1.7-1.3,3.3-2.9,4.7-4.5c2.5-1,4.8-2.2,7.1-3.6c0.2,0.7,0.5,1.5,0.7,2.2
		c1.6,2.2,3.8,3.7,5.9,5.4c0.1,0.6,0.2,1.7,0.2,2.3c-2.2,0.7-4.4,1.2-6.7,1.4c-0.6-0.4-1.7-1.3-2.2-1.8c-0.3-0.2-1-0.7-1.3-1
		c-0.1,2.2-0.2,4.5,1.3,6.3c2.2,2.8,2.4,6.3,3.1,9.6c2.4,6.3,12.5,5.9,14.5-0.5c0.4-1.8,0.7-3.5,0.7-5.3c1.8-3,4-6,3.5-9.7
		c-0.4,0.1-1.3,0.4-1.7,0.5c-0.1,0.4-0.3,1.2-0.4,1.7c-2.4-0.3-4.8-0.5-7.2-0.8c0-1.1,0-2.3-0.1-3.4c2.4-1.6,4.7-3.4,5.6-6.2
		c-0.4-0.2-1.3-0.7-1.8-1C135.7,100.9,138.3,102,141,103 M70.3,112.8c0,2.2,0,4.4-0.1,6.5c4.2,6,12.3,6.5,18.7,4.6
		c2.7-1.3,5.9-3.5,5.8-6.9c0.2-2.4-0.2-5-2.3-6.4c-3.7-3.8-9.4-3.7-14.3-3.1C74.9,108.2,72.5,110.6,70.3,112.8 M167.4,107.5
		c-3.9,0.8-7.8,3.4-8.7,7.4c-0.5,3.7,2.1,7.1,5.4,8.5c5.1,2.8,11.6,2,16.3-1.1c3.9-2.4,4.6-8.9,0.8-11.7
		C177.7,107.1,172.2,106.8,167.4,107.5z"/>
</g>
<g id="_x23_f7d9a5ff">
	<path class="st32" d="M75.7,101.2c4.8-1.6,9.8-1.2,14.6,0.2c1.4,0.3,2.8,0.7,4.2,1.1l0.2,1c-3.9-0.4-7.7-1.8-11.7-2.1
		c-4,0.2-7.7,1.7-11.7,2.3l0.4-1C73,102.2,74.3,101.7,75.7,101.2z"/>
</g>
<g id="_x23_63599bff">
	<path class="st33" d="M124.1,101.2c0.6-2.5,4.3-0.5,6.1-1.2C129.1,102.5,126,102.1,124.1,101.2z"/>
</g>
<g id="_x23_a49ff0ff">
	<path class="st34" d="M98.2,101.4c0.5,0,1.6,0.1,2.1,0.2c0.3,0.5,1,1.4,1.3,1.8c-0.1,0.5-0.2,1.6-0.2,2.1c-0.6,0.1-1.8,0.2-2.3,0.3
		C98.4,104.5,97.6,103,98.2,101.4z"/>
</g>
<g id="_x23_a9a4f8ff">
	<path class="st35" d="M153.2,101.5c0.6,0,1.8,0,2.4,0.1c0,0.7,0,2,0,2.7c-0.3,0.5-1,1.5-1.3,2c-0.6-0.3-1.7-0.8-2.2-1
		C152.5,103.9,152.9,102.7,153.2,101.5z"/>
</g>
<g id="_x23_130647ff">
	<path class="st36" d="M69.2,102c0.6,0.8,1.2,1.5,1.9,2.3c-0.9,1.5-2,2.8-2.8,4.4c-4.1,7-1.6,16.1,3.1,22.2
		c8.4,11.3,22.6,15.7,35.8,18.5l-1.7,0.9c-1.4,0.1-2.7,0.2-4.1,0.4c0,1.7,0,3.4,0,5.1c0,2,0,3.9-0.1,5.9c-0.1,0.6-0.4,1.8-0.5,2.3
		c-0.5-0.2-1.4-0.6-1.9-0.8c-0.1,0.6-0.4,1.7-0.6,2.2c-0.2-0.6-0.6-1.8-0.7-2.4c-1.5,5-0.7,10.2-2,15.2c-4.4,3-8.3,6.9-9.6,12.3
		c-0.8,0.1-1.7,0.2-2.5,0.3c-6.6-1.4-14-7.3-12.8-14.7c0.8-2.3,3.6-4.4,5.9-2.8c2.5,1.1,2.5,4.4,3.4,6.6c1.8-0.6,3.6-1.2,5.2-2.2
		c1.8-2.6,2.6-5.9,2.3-9.1c-0.5-3.8-2.1-7.6-5-10.3c-7.3-7.3-19.8-7.2-28.1-1.6c-7.8,5.6-11,15.7-10.8,25
		c0.3,10.6,5.4,21.3,14.6,26.9c6.1,3.9,13.6,4.5,20.7,3.8c1.2-3,3.4-5.4,6.4-6.6c-0.5-2-1.1-3.9-1.6-5.9c0.7,0.5,2.1,1.4,2.8,1.9
		c0.4,1.1,0.8,2.2,1.2,3.4c3.7,0.2,7.9-0.1,11,2.5c-0.1,0.2-0.4,0.5-0.6,0.6c-0.4-0.2-1.1-0.7-1.5-0.9c-5.4-0.2-12.8-0.6-15.4,5.2
		c0.5,1.3,1.1,2.6,1.6,3.9c0.7-1.7,1.4-3.4,2.1-5.1c0.2,0.9,0.6,2.7,0.8,3.7c0.1,0.5,0.4,1.5,0.6,2c1,0.2,1.9,0.4,2.9,0.6
		c0.2-0.8,0.6-2.2,0.8-3c0.3-1,0.6-2,0.9-3c0.2,0.9,0.5,2.8,0.7,3.8c0.2,0.5,0.4,1.6,0.6,2.1c2.6-0.1,5.2-0.2,7.9-0.3
		c0.2-3.3,0.4-6.7,0.2-10c0.4,0,1.2,0.1,1.6,0.1c0.5,0.3,1,0.6,1.5,0.8c1.8,0.4,3.7,0.5,5.6,0.6c-2.4,0.8-5.4,1.4-6.3,4.1
		c-1.2,2,0.2,4.1,1,5.9c0.7-1.9,1.4-3.9,2.1-5.8c0.4,1.9,0.9,3.9,1.3,5.8c2.4,0,4.8,0,7.1,0c0.1-1.9,0.2-3.9,0.3-5.8
		c1,1.6,1.9,3.3,2.8,4.9c0.9-0.2,1.8-0.3,2.7-0.5c0.9-3.4,0.2-6.9-0.3-10.3c-0.5-5.9-1.3-11.8-0.6-17.7c0.3,0.6,1,1.9,1.3,2.5
		c1.1,8.1,2.2,16.3,2.7,24.6c2.3,0,4.7,0,7,0c0.6-8.2,1.6-16.3,2.8-24.4c0.3-0.7,1-2,1.3-2.7c0.7,6.5-0.2,13-0.9,19.4
		c-0.5,2.9-0.7,5.8,0,8.7c0.9,0.2,1.8,0.3,2.6,0.5c0.9-1.8,1.9-3.5,2.9-5.2c0,1.3,0,3.9,0,5.2c2.6,0,5.2,0,7.8-0.1
		c0.2-1.6,0.5-3.3,0.7-4.9c0.8,2,1.5,4,2.3,6c0.5-1.6,1.2-3.2,1.3-4.8c-0.9-3.2-4.2-4.6-7.2-5.2c2-0.1,4-0.4,6-0.5
		c0.3,0.1,0.8,0.2,1.1,0.2c0.3-1.1,0.6-2.2,0.9-3.4c0.1,1.3,0.2,2.5,0.3,3.8c0.8-2,1.7-3.9,2.4-6c-0.2,1.1-0.5,3.2-0.7,4.3
		c4-1,8.1-2.3,12.3-2.2l1.8,0.3c2,1.7,4.9,2.9,5.8,5.6c1.6,3.6-1.2,8.1-5,8.6c-5.6,0.7-11.2,0.2-16.8-0.1c-6,3.2-13.6,2.7-19.8,0.1
		c-3-1.4-6.4-0.8-9.7-0.8c-6,3.5-13.7,3.9-20.1,1.4c-1.4-0.6-2.9-0.6-4.4-0.4c-4.7,0.3-9.4,0.5-14-0.2c-2.6-0.3-3.9-2.8-5.2-4.8
		c-7.6,0.6-15.8,0.1-22.4-4.3c-16.2-10.3-20-35-8.8-50.2c4.5-6.1,11.9-9.4,19.4-9.6c7.1-0.2,14.4,2.6,18.6,8.5
		c4,4.8,4.3,11.4,2.9,17.2c-1.6,2.9-4.3,5.8-7.9,5.6c-4.8,0.7-2.8-7.3-7.7-6.8C71.5,182,78,187.1,84,188.8c1.5-4.8,4.6-8.9,8.9-11.5
		c2.2-9.2,5.2-18.3,7-27.6c-11.2-2.6-22.6-7.2-30-16.4c-5.2-6.3-8-15-5.3-23C65.9,107.4,67.8,104.8,69.2,102 M153.3,208.3
		c-0.1,3,0.3,6,0.4,9.1c2.5,0.2,5,0.2,7.5,0.2c0.3-0.5,0.8-1.5,1.1-2c0.1-0.9,0.3-2.8,0.4-3.7c0.9,1.9,1.6,4,2,6.1
		c3.1-0.7,4-3.4,4-6.3c0.8,1.7,1.5,3.4,2.2,5.1c2.4-2.9,0.8-6.8-2.5-8.1c-4.1-1.5-8.6-1.6-12.8-0.9
		C155.1,207.9,153.9,208.2,153.3,208.3z"/>
</g>
<g id="_x23_fb8183ff">
	<path class="st37" d="M70.3,112.8c2.2-2.2,4.6-4.6,7.8-5.2c4.9-0.6,10.6-0.7,14.3,3.1c2.2,1.4,2.6,4,2.3,6.4
		c0.1,3.4-3.1,5.5-5.8,6.9c-6.5,1.9-14.5,1.4-18.7-4.6C70.3,117.1,70.3,114.9,70.3,112.8z"/>
</g>
<g id="_x23_b1afdeff">
	<path class="st38" d="M128.4,107.8l0.8-0.6c0,1.1,0,2.3,0.1,3.4c2.4,0.3,4.8,0.6,7.2,0.8c-0.1,0.4-0.3,1.2-0.4,1.6
		c-0.4,0.2-1.3,0.7-1.7,0.9c-2.1-0.3-4.2-1.1-6.1-2.1C128.4,110.5,128.4,109.2,128.4,107.8z"/>
	<path class="st38" d="M153.3,208.3c0.6-0.1,1.8-0.4,2.4-0.5c0.4,1.8,0,3.9,0.9,5.7c1.7,1,3.8,1.5,5.7,2.1c-0.3,0.5-0.8,1.5-1.1,2
		c-2.5,0.1-5,0-7.5-0.2C153.6,214.3,153.2,211.3,153.3,208.3z"/>
</g>
<g id="_x23_f98382ff">
	<path class="st39" d="M167.4,107.5c4.8-0.7,10.2-0.5,13.9,3.2c3.8,2.8,3.1,9.3-0.8,11.7c-4.8,3.1-11.3,3.9-16.3,1.1
		c-3.3-1.4-5.9-4.8-5.4-8.5C159.7,110.9,163.5,108.3,167.4,107.5z"/>
</g>
<g id="_x23_b4aac0ff">
	<path class="st40" d="M71.4,130.8c-4.7-6.1-7.2-15.2-3.1-22.2c-0.9,4-2.7,8.7-0.1,12.4c4.1,6.5,10.1,11.6,17,14.9
		c13.6,6.7,29,8.3,43.9,8.4c16.2-0.6,33.3-2.9,46.8-12.5c4.4-2.8,7.1-7.4,11.1-10.6c-2.6,13.2-15.4,21.2-27.3,25.1
		c-1.2,0.3-2.4,0.5-3.5,0.8c-5.1-1.2-10,0.9-15,1.2c-7.6,0.7-15.2,1.4-22.8,0.5c-9.6-1.5-19.6-2.2-28.6-6.2
		C82.7,139.9,77.1,135.3,71.4,130.8z"/>
</g>
<g id="_x23_020029ff">
	<path class="st41" d="M136.9,109.8c0.4-0.1,1.3-0.4,1.7-0.5c0.4,3.7-1.8,6.7-3.5,9.7c0-1.7-0.2-3.3-0.7-5c0.4-0.2,1.3-0.7,1.7-0.9
		c0.1-0.4,0.3-1.2,0.4-1.6C136.6,111,136.8,110.2,136.9,109.8z"/>
</g>
<g id="_x23_958ebeff">
	<path class="st42" d="M116.8,109.9c0.6,0.4,1.7,1.3,2.2,1.8c2.3-0.2,4.5-0.7,6.7-1.4c-0.4,2.8-3.5,3.8-5.8,4
		C117.9,113.7,117.4,111.6,116.8,109.9z"/>
</g>
<g id="_x23_b3a8c4ff">
	<path class="st43" d="M120.8,118.5c1.7,0.1,3.4,0.2,5.2,0.3l-0.6,0.7c-1.1,0.3-2.3,0.6-3.4,0.9c0.4,1.7,0.2,3.9,2.1,4.7
		c2.6,1.5,5.4,0.1,7.7-1.3c-0.1-1.4-0.3-2.9-0.4-4.3c-0.7,0-2.2,0-2.9,0.1l-0.5-0.8c2.4-0.1,4.7,0,7.1,0.2c-0.1,1.8-0.3,3.6-0.7,5.3
		c0.1-0.7,0.2-2.1,0.2-2.8c-0.5-0.8-1.1-1.5-1.6-2.3c-0.5,2.5-0.3,5.6-2.5,7.3c-2.4,1.3-6.3,1.5-8-1
		C121.3,123.3,121.3,120.8,120.8,118.5z"/>
	<path class="st43" d="M119.7,151.2c5,0.4,10.1,0.6,15.1-0.2c1.2,0.3,3.6,0.9,4.9,1.2c-4,1.7-8.2,3.3-12.7,3.3
		c-4.4,0.1-8.5-1.6-12.4-3.3C116.3,151.9,118,151.5,119.7,151.2z"/>
</g>
<g id="_x23_6a194fff">
	<path class="st44" d="M126,118.8c0.5,0,1.5,0,2,0l0.5,0.8c-1,1.3-2.1,1.2-3.1-0.1L126,118.8z"/>
</g>
<g id="_x23_f46f74ff">
	<path class="st45" d="M122,120.4c1.1-0.3,2.3-0.6,3.4-0.9c1,1.3,2,1.4,3.1,0.1c0.7,0,2.2-0.1,2.9-0.1c0.1,1.4,0.3,2.9,0.4,4.3
		c-2.3,1.4-5.1,2.8-7.7,1.3C122.2,124.4,122.4,122.1,122,120.4z"/>
	<path class="st45" d="M139,162.1c3.3-3.1,6.8-6,10.3-8.8c0.1,0.6,0.4,1.7,0.5,2.3c-3.7,2.8-7.3,5.6-11.4,7.8
		c-0.3,0.1-0.8,0.2-1.1,0.2C137.7,163.3,138.5,162.5,139,162.1z"/>
</g>
<g id="_x23_1c0448ff">
	<path class="st46" d="M156,147c1.2-0.2,2.4-0.5,3.5-0.8l1.3,1.6c-2.2,0.6-4.4,1.2-6.6,1.8c1.8,9.2,4.4,18.2,6.6,27.3
		c0.7,0.6,1.3,1.1,2,1.7c-1.1,0.1-2.1,0.1-3.2,0.1c-0.2,0-0.8,0-1,0c-0.5-0.1-1.6-0.4-2.1-0.6c0.3-5.4-0.2-10.9-2.2-15.9
		c-0.7,1.1-1.4,2.3-2.1,3.4c-0.3-0.7-0.9-2-1.3-2.6c1-1.3,2-2.7,2.9-4.1c-0.7-3-1.4-5.9-2-8.9c-7.2,0.6-12.8,5.8-19.9,7
		c-9.4,2.2-18.2-2.9-26.4-6.9l1.7-0.9c2.5,0.2,5,0.6,7.5,0.9c1.7,0.3,3.4,0.6,5,1c-1.7,0.3-3.4,0.6-5.1,1c3.9,1.8,8.1,3.4,12.4,3.3
		c4.4,0,8.7-1.6,12.7-3.3c-1.2-0.3-3.6-0.9-4.9-1.2C141.9,149.8,149,148.8,156,147z"/>
</g>
<g id="_x23_810c41ff">
	<path class="st47" d="M131.9,157.1c7.1-1.2,12.7-6.4,19.9-7c0.7,3,1.3,5.9,2,8.9c-0.9,1.4-1.9,2.8-2.9,4.1c-0.8,1-1.7,2-2.6,3
		c-0.2-1.8-0.5-3.5-0.7-5.3c1.3-2,4.2-3.3,3.3-6.1c-0.1-0.7-0.2-2-0.2-2.7c-6.1,0.8-10.8,5.4-16.8,6.8c-8.6,2.3-18,0.1-25.1-5
		c-1.6-1.1-3.4-1.6-5.3-1.9c-0.4,0.7-1.1,2.1-1.5,2.8l-0.5,1.1c0-1.7,0-3.4,0-5.1c1.4-0.1,2.7-0.2,4.1-0.4
		C113.7,154.2,122.5,159.2,131.9,157.1z"/>
</g>
<g id="_x23_b31330ff">
	<path class="st48" d="M103.6,151.8c1.9,0.4,3.7,0.8,5.3,1.9c-1.4,0.1-2.8,0.2-4.1,0.3c1.3,2.1,2.6,4.3,4.1,6.3
		c-2.4-1.8-4.7-3.7-6.8-5.7C102.4,153.9,103.2,152.5,103.6,151.8z"/>
</g>
<g id="_x23_c80319ff">
	<path class="st49" d="M134,158.7c6-1.4,10.6-6,16.8-6.8c0.1,0.7,0.2,2,0.2,2.7c-0.3,0.2-0.9,0.8-1.2,1c-0.1-0.6-0.3-1.7-0.5-2.3
		c-3.5,2.8-7,5.8-10.3,8.8c-0.5-0.5-1.4-1.6-1.8-2.1c-7.9,3.7-17.5,3.1-24.9-1.5c-0.5,2.9,1.9,5,3.4,7.2c-1.1,1.6-2.3,3.3-3.5,4.9
		l-0.8,1c-0.6-0.6-1.3-1.3-1.9-1.9c-0.4-1.7-0.7-3.4-1-5.1c1.6,0.2,3.1,0.4,4.7,0.7c-0.9-1.2-1.8-2.5-2.8-3.6
		c-0.4-0.4-1.1-1.1-1.5-1.4c-1.5-2-2.8-4.1-4.1-6.3c1.4-0.1,2.8-0.2,4.1-0.3C116,158.8,125.4,161,134,158.7z"/>
</g>
<g id="_x23_f9f5efff">
	<path class="st50" d="M54.5,156.7c8.3-5.6,20.8-5.7,28.1,1.6c2.9,2.7,4.5,6.4,5,10.3l-0.8-1c-1.7-2.1-3.5-4-5.6-5.7
		c0.5,0,1.5,0,2,0c-5.1-4.7-12.9-5.4-19.4-4c-4.8,2.6-10.4,5.5-12.1,11.1c-1.4,3.6-2.8,7.2-3.1,11.1c-0.6,4.5,2,8.6,1.7,13
		c-2.6-3.5-5-7.1-6.5-11.2C43.6,172.4,46.7,162.3,54.5,156.7z"/>
</g>
<g id="_x23_83113bff">
	<path class="st51" d="M101.5,155.6l0.5-1.1c2.2,2,4.4,3.9,6.8,5.7c0.4,0.4,1.1,1.1,1.5,1.4c-1.3,0.4-2.6,0.8-3.9,1.3
		c0.1,1.4,0.2,2.8,0.3,4.2c-1.8-1.8-3.6-3.8-5.4-5.6C101.5,159.6,101.5,157.6,101.5,155.6z"/>
</g>
<g id="_x23_b00928ff">
	<path class="st52" d="M151,154.6c0.9,2.8-2,4.2-3.3,6.1c0.2,1.8,0.5,3.5,0.7,5.3c-0.8,0.9-1.6,1.7-2.4,2.5
		c-5.9,4.8-11.3,11-18.9,13c-4.2-0.8-7.6-3.7-11.4-5.7c-1.4-1.4-2.9-2.8-4.3-4.2l0.8-1c4.7,2.9,8.2,7.9,13.9,8.9
		c7.6-0.2,12.1-7.1,17.3-11.6c-1.6-1.5-3.2-3.1-4.9-4.5c4-2.2,7.7-5,11.4-7.8C150,155.4,150.7,154.8,151,154.6z"/>
</g>
<g id="_x23_fff1d1ff">
	<path class="st53" d="M63.8,157.8c6.6-1.4,14.3-0.7,19.4,4c-0.5,0-1.5,0-2,0c-5.4-2.2-11.5-3.3-17.1-1.3
		c-6.5,2.1-10.5,8.4-12.4,14.7c-1.5,6.3-1.6,13.6,2.2,19.2c0.1,0.5,0.2,1.4,0.3,1.9c-1.3-1-2.6-2-3.9-3.1l-0.1-0.2
		c0.4-4.5-2.3-8.6-1.7-13c0.4-3.9,1.8-7.5,3.1-11.1C53.4,163.3,59.1,160.4,63.8,157.8z"/>
</g>
<g id="_x23_f80204ff">
	<path class="st54" d="M115.6,165.8c-1.5-2.2-3.8-4.3-3.4-7.2c7.4,4.6,17,5.2,24.9,1.5c0.4,0.5,1.3,1.6,1.8,2.1
		c-0.4,0.4-1.2,1.1-1.7,1.5c0.3-0.1,0.8-0.2,1.1-0.2c1.7,1.4,3.3,3,4.9,4.5c-5.2,4.6-9.7,11.4-17.3,11.6c-5.6-0.9-9.2-6-13.9-8.9
		C113.3,169.1,114.5,167.4,115.6,165.8z"/>
</g>
<g id="_x23_e2a74fff">
	<path class="st55" d="M51.7,175.2c1.9-6.2,5.9-12.6,12.4-14.7c5.6-2,11.7-0.9,17.1,1.3c2.1,1.7,3.9,3.6,5.6,5.7
		c-0.5,1.7-1,3.5-1.6,5.2c0.2-3.1-1.1-6.4-4-7.9c-4.1-1.9-8.7-4.7-13.3-3c-3.9,1.3-8.6,2.4-10.8,6.3c-4.1,5.6-5,12.9-3.8,19.5
		c0.9,3.4,2.9,7,6.3,8.6c6.6,2.3,13.8,2.4,20.7,1.4l-0.4,0.5c-6.2,1.4-12.8,2-19.1,0.6c-2.8-0.6-4.8-2.8-7-4.4
		C50.1,188.8,50.1,181.5,51.7,175.2z"/>
</g>
<g id="_x23_fba42aff">
	<path class="st56" d="M67.9,161.9c4.6-1.6,9.2,1.1,13.3,3c3,1.4,4.3,4.7,4,7.9c-0.6,1.4-1.4,2.7-2.2,4c-0.2-0.1-0.8-0.4-1-0.6
		c-0.8-1.4-1.6-2.8-2.4-4.2c-1.3-2.1-2.8-4.7-5.6-4.7c-2.5-0.5-4.6,1.3-6.3,2.8c-1.9,9.6,5,18.1,13,22.4c0.3,1.2,0.7,2.5,1,3.8
		c-0.3,0.3-0.9,1.1-1.2,1.4c-6.9,1-14.1,0.9-20.7-1.4c-3.4-1.6-5.4-5.1-6.3-8.6c-1.3-6.6-0.3-13.9,3.8-19.5
		C59.3,164.3,64,163.2,67.9,161.9z"/>
	<path class="st56" d="M148.5,173.6c1.1-2,2.7-3.7,4.6-5c2.4,4.7,1.5,10.3,1.2,15.4c-1,7.3-1.4,14.9-4.9,21.5
		c-4.4-1.2-8.9-0.3-13.3,0.4c1.1-6.7-1.1-14,2.6-20.1C140.8,180.9,145.9,178.3,148.5,173.6z"/>
</g>
<g id="_x23_a90b26ff">
	<path class="st57" d="M110.3,161.7c1,1.1,1.9,2.4,2.8,3.6c-1.6-0.2-3.1-0.5-4.7-0.7c0.3,1.7,0.6,3.4,1,5.1
		c-0.9-0.9-1.8-1.8-2.7-2.6c-0.1-1.4-0.2-2.8-0.3-4.2C107.7,162.6,109.1,162.1,110.3,161.7z"/>
</g>
<g id="_x23_47002dff">
	<path class="st58" d="M101.4,161.5c1.8,1.9,3.6,3.8,5.4,5.6c0.9,0.9,1.8,1.8,2.7,2.6c0.6,0.6,1.2,1.3,1.9,1.9
		c1.4,1.4,2.9,2.8,4.3,4.2c3.2,3.5,7.2,7.3,12.3,7c4.1-0.7,7.3-3.8,10.5-6.3c0.5,0.4,1.6,1.2,2.1,1.5c-4.2,2.9-8.2,6.8-13.6,7.5
		c-4-0.4-7.3-3-10.5-5.1c-1.1-0.8-2.2-1.7-3.2-2.6c-4.7-4.1-9.3-8.5-12.4-14.1C101,163.3,101.3,162.1,101.4,161.5z"/>
</g>
<g id="_x23_d49a6dff">
	<path class="st59" d="M152.2,165.6c0.7-1.1,1.4-2.3,2.1-3.4c2,5.1,2.4,10.5,2.2,15.9c-0.3,9.1-2,18.1-4.4,26.9
		c-0.3,1.1-0.6,2.2-0.9,3.4c-0.3-0.1-0.8-0.2-1.1-0.2c-4.7-2.2-10.4-2.1-14.9,0.8c-0.4-0.1-1.2-0.2-1.6-0.3
		c0.8-6.4,1.6-12.9,0.9-19.4c1.8-3,3.6-5.9,4.8-9.1c0.3-0.5,0.9-1.5,1.2-2C144.9,174.4,149,170.3,152.2,165.6 M148.5,173.6
		c-2.5,4.7-7.7,7.3-9.8,12.2c-3.7,6.1-1.5,13.4-2.6,20.1c4.4-0.6,8.9-1.5,13.3-0.4c3.4-6.6,3.9-14.2,4.9-21.5
		c0.3-5.1,1.2-10.7-1.2-15.4C151.2,169.9,149.6,171.6,148.5,173.6z"/>
</g>
<g id="_x23_240307ff">
	<path class="st60" d="M95.6,178.1c1.3-5,0.5-10.2,2-15.2c0.2,0.6,0.6,1.8,0.7,2.4c-2.6,14.1,0.5,28.4,3.7,42.1
		c-0.4,0-1.2,0-1.6-0.1l-1.5,0.2c0.5-0.9,0.6-1.8,0.4-2.8c-0.9-4.4-2.1-8.7-2.9-13.1C95.9,187.2,94.9,182.6,95.6,178.1z"/>
	<path class="st60" d="M103.6,208.2c5-2.2,10.8-2,15.5,0.9c-3.3,0-6.6-0.4-9.9-0.4C107.3,208.7,105.5,208.6,103.6,208.2z"/>
</g>
<g id="_x23_d1995aff">
	<path class="st61" d="M99,163.1c0.5,0.2,1.4,0.6,1.9,0.8c3,5.5,7.7,9.9,12.4,14.1c2.5,3.6,3.8,7.8,6.2,11.4
		c-0.6,5.9,0.1,11.8,0.6,17.7c-0.3,0.7-0.7,1.4-1,2.1c-4.7-3-10.5-3.2-15.5-0.9c-0.5-0.2-1-0.5-1.5-0.8c-3.2-13.7-6.4-28-3.7-42.1
		C98.5,164.7,98.8,163.6,99,163.1 M100.6,190c0.8,5.3,1,11.1,4.1,15.7c4.4-1.4,8.9-0.9,13.2,0.3c-0.8-7.5,0.9-16.2-4.5-22.4
		c-4.7-4.5-7.6-10.5-12.7-14.6C97.8,175.6,100.2,183,100.6,190z"/>
</g>
<g id="_x23_490e2fff">
	<path class="st62" d="M148.4,166c0.9-1,1.8-2,2.6-3c0.3,0.7,0.9,2,1.3,2.6c-3.2,4.7-7.3,8.8-11.6,12.5c-0.5-0.4-1.6-1.1-2.1-1.5
		c2.9-2.3,5.3-5.1,7.5-8.1C146.8,167.7,147.6,166.9,148.4,166z"/>
</g>
<g id="_x23_b56f27ff">
	<path class="st63" d="M67.6,170.1c1.7-1.6,3.8-3.4,6.3-2.8c2.8,0,4.3,2.6,5.6,4.7c-2.4-0.6-4.8-1.5-7.2-1.5c-3.1,0.7-2.8,4.6-3.5,7
		C68,175.1,67.7,172.6,67.6,170.1z"/>
</g>
<g id="_x23_d9a072ff">
	<path class="st64" d="M86.8,167.6l0.8,1c0.2,3.2-0.5,6.4-2.3,9.1c-0.6-0.2-1.7-0.7-2.3-1c0.8-1.3,1.6-2.6,2.2-4
		C85.8,171.1,86.3,169.3,86.8,167.6z"/>
</g>
<g id="_x23_870d3bff">
	<path class="st65" d="M127,181.6c7.6-2,13-8.2,18.9-13c-2.1,3-4.6,5.8-7.5,8.1c-3.2,2.5-6.4,5.5-10.5,6.3c-5.1,0.3-9.2-3.5-12.3-7
		C119.4,177.9,122.8,180.7,127,181.6z"/>
</g>
<g id="_x23_a37464ff">
	<path class="st66" d="M72.3,170.4c2.5,0,4.9,0.9,7.2,1.5c0.8,1.4,1.6,2.8,2.4,4.2c0.2,0.1,0.8,0.4,1,0.6c0.6,0.2,1.7,0.7,2.3,1
		c-1.6,0.9-3.4,1.6-5.2,2.2c-1-2.2-0.9-5.4-3.4-6.6c-2.3-1.6-5.1,0.5-5.9,2.8c-0.5,1-0.9,2-1.4,3.1c-0.1-0.4-0.4-1.2-0.6-1.6
		C69.5,175.1,69.2,171.1,72.3,170.4z"/>
</g>
<g id="_x23_faa42bff">
	<path class="st67" d="M100.6,190c-0.4-6.9-2.8-14.4,0.1-21c5.1,4.1,8,10.2,12.7,14.6c5.4,6.2,3.7,14.9,4.5,22.4
		c-4.3-1.3-8.9-1.7-13.2-0.3C101.6,201.1,101.4,195.3,100.6,190z"/>
</g>
<g id="_x23_6adeefff">
	<path class="st68" d="M73.3,174.9c4.9-0.5,2.9,7.5,7.7,6.8c3.6,0.2,6.3-2.6,7.9-5.6c0,0.4,0,1.3,0,1.7c1.3-0.1,2.6-0.3,4-0.5
		c-4.3,2.6-7.4,6.7-8.9,11.5C78,187.1,71.5,182,73.3,174.9z"/>
</g>
<g id="_x23_d4a985ff">
	<path class="st69" d="M86.1,190.4c1.2-5.4,5.2-9.3,9.6-12.3c-0.7,4.6,0.3,9.1,0.9,13.6c-0.2,2.2-0.4,4.5-0.7,6.7l0-0.6
		c-0.6-5.3-1-10.7-2.5-15.8c-5.5,4.2-7.2,12-4.8,18.4l-0.9-0.3c-0.6-0.8-1.3-1.6-1.9-2.4C85.6,195.3,85.7,192.8,86.1,190.4z"/>
</g>
<g id="_x23_faf3eeff">
	<path class="st70" d="M113.3,177.9c1,0.9,2.1,1.8,3.2,2.6c-0.1,0.5-0.4,1.6-0.5,2.1c3.2,2.6,6.7,5.5,11,5.8
		c5.2-0.7,9.5-4.1,12.3-8.3c-1.2,3.2-3,6.2-4.8,9.1c-0.3,0.7-1,2-1.3,2.7c-1.4,2.4-3.3,4.9-6.2,5.6c-2.8-0.9-5-3.1-6.2-5.7
		c-0.3-0.6-1-1.9-1.3-2.5C117.1,185.7,115.7,181.5,113.3,177.9z"/>
</g>
<g id="_x23_b0a8ccff">
	<path class="st71" d="M127,185.6c5.3-0.6,9.3-4.6,13.6-7.5c-0.3,0.5-0.9,1.5-1.2,2c-2.8,4.3-7.2,7.6-12.3,8.3
		c-4.3-0.3-7.7-3.2-11-5.8c0.1-0.5,0.4-1.6,0.5-2.1C119.8,182.6,123,185.2,127,185.6z"/>
</g>
<g id="_x23_290005ff">
	<path class="st72" d="M156.5,178.2c0.5,0.1,1.6,0.4,2.1,0.6c0,6-1,11.9-2,17.7c-0.5,2.2-1.1,4.3-1.7,6.5c-0.7,2-1.6,4-2.4,6
		c-0.1-1.3-0.2-2.6-0.3-3.8C154.5,196.3,156.2,187.3,156.5,178.2z"/>
</g>
<g id="_x23_b2abc9ff">
	<path class="st73" d="M43.8,181.7c1.5,4.1,3.9,7.8,6.5,11.2l0.1,0.2c2.1,3.3,4.7,6.5,8.5,7.9c5.3,2.8,11.5,4.3,17.5,2.8
		c2.6-1,5-2.6,7.5-3.9c0.6,2,1.1,3.9,1.6,5.9c-3,1.2-5.2,3.6-6.4,6.6c-7.1,0.7-14.6,0.1-20.7-3.8C49.2,203,44.1,192.3,43.8,181.7z"
		/>
</g>
<g id="_x23_f7a42cff">
	<path class="st74" d="M88.5,200.4c-2.5-6.4-0.7-14.1,4.8-18.4c1.6,5.1,2,10.5,2.5,15.8C93.7,199.4,91.3,200.6,88.5,200.4z"/>
</g>
<g id="_x23_faa32dff">
	<path class="st75" d="M160.9,182.5c5.4,4.1,7.5,12.2,3.5,18c-2.5,0.1-4.5-1.1-6.2-2.7C158.9,192.6,159.1,187.4,160.9,182.5z"/>
</g>
<g id="_x23_200000ff">
	<path class="st76" d="M83.5,190.7c0.9-0.1,1.7-0.2,2.5-0.3c-0.4,2.4-0.5,4.9-0.3,7.4c0.2,1.4,0.6,2.7,0.9,4.1
		c-0.7-0.5-2.1-1.4-2.8-1.9c-0.2-1.8-0.3-3.5-0.4-5.3C83.4,193.4,83.5,192.1,83.5,190.7z"/>
</g>
<g id="_x23_aa7160ff">
	<path class="st77" d="M96.5,191.7c0.7,4.4,2,8.7,2.9,13.1c0.2,1,0.1,1.9-0.4,2.8l-0.2,0.2c-3.1-2.6-7.3-2.3-11-2.5
		c-0.4-1.1-0.9-2.2-1.2-3.4c-0.4-1.3-0.7-2.7-0.9-4.1c0.6,0.8,1.3,1.6,1.9,2.4c0.7,0.9,1.3,1.8,1.9,2.7c1.7-0.1,3.4-0.1,5.1-0.4
		c1-1.1,1-2.7,1.2-4C96.1,196.2,96.4,194,96.5,191.7z"/>
</g>
<g id="_x23_b2aac9ff">
	<path class="st78" d="M120.8,191.8c1.2,2.6,3.4,4.9,6.2,5.7c2.9-0.7,4.8-3.2,6.2-5.6c-1.2,8.1-2.2,16.3-2.8,24.4c-2.3,0-4.7,0-7,0
		C123,208.2,121.9,200,120.8,191.8z"/>
</g>
<g id="_x23_af8473ff">
	<path class="st79" d="M50.4,193.1c1.2,1.1,2.5,2.1,3.9,3.1c-0.1-0.5-0.2-1.4-0.3-1.9c2.2,1.7,4.2,3.9,7,4.4
		c6.3,1.4,12.9,0.8,19.1-0.6l0.4-0.5c0.3-0.4,0.9-1.1,1.2-1.4c0.4-0.4,1.3-1.2,1.8-1.6c0.1,1.8,0.2,3.5,0.4,5.3
		c-2.5,1.3-4.9,2.8-7.5,3.9c-6,1.5-12.2,0-17.5-2.8C55,199.6,52.4,196.4,50.4,193.1z"/>
</g>
<g id="_x23_ac7247ff">
	<path class="st80" d="M156.6,196.5c0.4,0.3,1.2,0.9,1.6,1.3c1.7,1.6,3.8,2.8,6.2,2.7c1,0,2,0.1,3,0.1c-0.3,1.5-0.7,3-1,4.5
		c-4.2-0.1-8.2,1.2-12.3,2.2c0.2-1.1,0.5-3.2,0.7-4.3C155.4,200.8,156.1,198.7,156.6,196.5z"/>
</g>
<g id="_x23_b7752eff">
	<path class="st81" d="M95.8,197.8l0,0.6c-0.2,1.4-0.2,2.9-1.2,4c-1.7,0.3-3.4,0.3-5.1,0.4c-0.6-0.9-1.3-1.8-1.9-2.7l0.9,0.3
		C91.3,200.6,93.7,199.4,95.8,197.8z"/>
</g>
<g id="_x23_280307ff">
	<path class="st82" d="M135.2,209c4.4-2.8,10.1-3,14.9-0.8c-2,0.1-4,0.4-6,0.5C141.1,208.8,138.2,209.3,135.2,209z"/>
</g>
<g id="_x23_faf2f2ff">
	<path class="st83" d="M119.1,209.1c0.3-0.7,0.7-1.4,1-2.1c0.4,3.4,1.1,6.9,0.3,10.3c-0.9,0.1-1.8,0.3-2.7,0.5
		c-0.9-1.7-1.8-3.3-2.8-4.9c-0.1,1.9-0.2,3.9-0.3,5.8c-2.4,0-4.8,0-7.1,0c-0.5-1.9-0.9-3.9-1.3-5.8c-0.7,1.9-1.4,3.9-2.1,5.8
		c-0.8-1.8-2.2-3.9-1-5.9c0.9-2.7,3.9-3.3,6.3-4.1C112.5,208.8,115.8,209.2,119.1,209.1z"/>
</g>
<g id="_x23_fbf3f0ff">
	<path class="st84" d="M81.4,212.8c2.7-5.9,10-5.4,15.4-5.2c0.4,0.2,1.1,0.7,1.5,0.9c-0.3,1.7-0.5,3.5-0.7,5.3
		c-1.9,0.6-3.9,1.2-5.8,1.8c-0.2-0.9-0.5-2.8-0.7-3.8c-0.3,1-0.6,2-0.9,3c-1.4,0.1-2.9,0.3-4.3,0.4c-0.2-0.9-0.6-2.7-0.8-3.7
		c-0.7,1.7-1.4,3.4-2.1,5.1C82.5,215.4,81.9,214.1,81.4,212.8z"/>
</g>
<g id="_x23_fcf3f0ff">
	<path class="st85" d="M133.6,217.4c-0.7-2.9-0.5-5.8,0-8.7c0.4,0.1,1.2,0.2,1.6,0.3c2.9,0.4,5.9-0.1,8.9-0.2c3,0.5,6.3,2,7.2,5.2
		c-0.2,1.7-0.8,3.2-1.3,4.8c-0.8-2-1.6-4-2.3-6c-0.2,1.6-0.5,3.3-0.7,4.9c-2.6,0.1-5.2,0.1-7.8,0.1c0-1.3,0-3.9,0-5.2
		c-1,1.7-2,3.5-2.9,5.2C135.4,217.7,134.5,217.6,133.6,217.4z"/>
</g>
<g id="_x23_faf3f1ff">
	<path class="st86" d="M155.7,207.8c4.2-0.7,8.8-0.5,12.8,0.9c3.2,1.2,4.8,5.1,2.5,8.1c-0.7-1.7-1.4-3.4-2.2-5.1
		c0,2.8-0.9,5.6-4,6.3c-0.5-2.1-1.1-4.1-2-6.1c-0.1,0.9-0.3,2.8-0.4,3.7c-1.9-0.6-3.9-1.1-5.7-2.1
		C155.7,211.7,156.1,209.6,155.7,207.8z"/>
</g>
</svg>
