<?xml version="1.0" encoding="utf-8"?>
<!-- Generator: Adobe Illustrator 26.0.3, SVG Export Plug-In . SVG Version: 6.00 Build 0)  -->
<svg version="1.1" id="Layer_1" xmlns="http://www.w3.org/2000/svg" xmlns:xlink="http://www.w3.org/1999/xlink" x="0px" y="0px"
	 viewBox="0 0 250 250" style="enable-background:new 0 0 250 250;" xml:space="preserve">
<style type="text/css">
	.st0{fill:#FFFFFF;}
	.st1{fill:#008AD3;}
	.st2{fill:#006DA6;}
	.st3{fill:#5DD1FA;}
	.st4{fill:#64D6FB;}
	.st5{fill:#49CCFA;}
	.st6{fill:#71009F;}
	.st7{fill:#E765FE;}
	.st8{fill:#4E006D;}
	.st9{fill:#E15BFE;}
	.st10{fill:#DB66FE;}
	.st11{fill:#34C0F9;}
	.st12{fill:#D552FE;}
	.st13{fill:#CC50FE;}
	.st14{fill:#D16FFE;}
	.st15{fill:#6ED0FB;}
	.st16{fill:#CD62FE;}
	.st17{fill:#20B4F9;}
	.st18{fill:#C558FF;}
	.st19{fill:#24B7F9;}
	.st20{fill:#0CA9F8;}
	.st21{fill:#B42EFF;}
	.st22{fill:#1CB2F9;}
	.st23{fill:#A923FF;}
	.st24{fill:#14AEF8;}
	.st25{fill:#AB25FF;}
	.st26{fill:#A41EFF;}
	.st27{fill:#9D18FF;}
	.st28{fill:#9510FF;}
</style>
<circle class="st0" cx="124.5" cy="125.5" r="125"/>
<g>
	<g id="_x23_ffffffff">
		<path class="st0" d="M154.5,53.7c2.8,0.7,5.5,1.4,8.2,2.2c4.4,1.2,8.8,2.4,13.2,3.6c1.1,21,0.5,42.2-4.5,62.7
			c-3.3,13.2-8.4,26.1-16.9,36.8c-0.1-10.6,0-21.3-0.1-31.9c-0.1-6,0-12,0-18C154.4,90.6,154.4,72.2,154.5,53.7z"/>
		<path class="st0" d="M73.4,86.1c10.9-2.5,21.8-5.1,32.7-7.5c0.2,14.7-0.3,29.4,0.2,44c-10.8,4.3-21.6,8.5-32.4,12.6
			c-0.3-2.1-0.6-4.2-0.9-6.4c-0.3-3-0.5-6-0.8-8.9c-0.3-10-0.1-19.9,0.7-29.9C73.1,88.8,73.3,87.5,73.4,86.1z"/>
		<path class="st0" d="M74.1,136.3c9.4,2.1,18.6,5,27.8,7.4c1.4,0.4,2.8,0.8,4.2,1.2c-0.1,15,0.1,30-0.1,45
			c-4.1-2.7-8.1-5.6-11.8-8.8c-0.5-0.5-1-1-1.5-1.5c-3.5-3.9-6.3-8.5-8.8-13.1C78.9,157.1,75.9,146.8,74.1,136.3z"/>
	</g>
	<g id="_x23_008ad3ff">
		<path class="st1" d="M126.4,43.5c0-8.1-0.1-16.2,0.1-24.4c2.9,2.9,5.4,6.2,9,8.2c-0.3,0.1-0.9,0.3-1.2,0.4
			c-0.1,7.9,0.1,15.7-0.1,23.6C131.7,48.7,129,46.2,126.4,43.5z"/>
	</g>
	<g id="_x23_006da6ff">
		<path class="st2" d="M126.5,19.2c21.3,6,42.7,11.9,64,17.9c5.2,0.6,7.6,5.8,11.4,8.8c-5.1-1.5-10.4-2.7-15.5-4.2
			c-7.4-2-14.8-4.1-22.1-6.1c-9.6-2.7-19.2-5.3-28.8-8.1C131.9,25.4,129.4,22,126.5,19.2z"/>
		<path class="st2" d="M175.9,59.5c2.4,0.7,4.8,1.3,7.3,2c0.1,1.3,0.3,2.7,0.4,4c0.4,5.8,0.6,11.7,0.6,17.6
			c0.1,16.4-1.2,32.9-5.4,48.7c-1.6,6.1-3.6,12.1-6.2,17.9c-2.7,6.1-6.1,12-10.3,17.3c-2.4,2.8-4.8,5.6-7.8,7.9
			c-0.1-2.5-0.1-5-0.1-7.4c0-2.8,0-5.5,0.1-8.3c8.4-10.7,13.6-23.7,16.9-36.8C176.4,101.7,177,80.5,175.9,59.5z"/>
	</g>
	<g id="_x23_5dd1faff">
		<path class="st3" d="M134.3,27.7c0.3-0.1,0.9-0.3,1.2-0.4c9.5,2.8,19.2,5.3,28.8,8.1c-0.7,1.9-1.8,4-0.5,5.9
			c1.6,2.4,1,5.2,0.2,7.7c0.7,1.1,1.3,2.2,2,3.3c-1.1,1.2-2.2,2.4-3.3,3.6c-2.7-0.8-5.5-1.5-8.2-2.2c-0.1,18.5,0,37-0.1,55.4
			c-4.2,5.2-8.3,10.5-12.6,15.7c-2,2.4-4.6,4.3-5.8,7.3c-1.5,3.9-0.8,8.2-1.2,12.3l-0.1,1l-0.4-1.1c-0.2-13.9,0.1-27.7-0.2-41.5
			c0.1-12.2,0.1-24.3,0-36.5c0.1-4.9,0-9.8,0.1-14.8v-0.2C134.4,43.5,134.2,35.6,134.3,27.7z"/>
	</g>
	<g id="_x23_64d6fbff">
		<path class="st4" d="M164.3,35.4c7.4,2.1,14.8,4.1,22.1,6.1c0.2,3.4,0.2,6.9-0.2,10.4c-0.5,4.6-0.6,9.3-2.6,13.6
			c-0.1-1.3-0.3-2.7-0.4-4c-2.4-0.7-4.8-1.3-7.3-2c-4.4-1.2-8.8-2.4-13.2-3.6c1.1-1.2,2.2-2.4,3.3-3.6c-0.7-1.1-1.4-2.2-2-3.3
			c0.7-2.6,1.3-5.3-0.2-7.7C162.5,39.4,163.6,37.3,164.3,35.4z"/>
	</g>
	<g id="_x23_49ccfaff">
		<path class="st5" d="M186.4,41.6c5.2,1.5,10.4,2.7,15.5,4.2c1.2,10.7,2.2,21.4,2.3,32.2c0.2,4.4,0.7,8.9,0,13.3
			c-0.3-1.6-0.7-3.2-1-4.8c-5.6-0.2-11.3,0.3-16.9,0.4c-0.7-1.3-1.4-2.5-2-3.8c0-5.9-0.2-11.7-0.6-17.6c2.1-4.2,2.1-9,2.6-13.6
			C186.6,48.5,186.6,45,186.4,41.6z"/>
	</g>
	<g id="_x23_71009fff">
		<path class="st6" d="M47,61.9c26.4-6.3,52.9-12.2,79.4-18.4c2.6,2.7,5.2,5.2,7.8,7.8v0.2c-15.3,3.5-30.6,7.1-45.9,10.6
			C77.2,64.6,66,67.2,55,69.8C52.6,66.9,49.9,64.3,47,61.9z"/>
	</g>
	<g id="_x23_e765feff">
		<path class="st7" d="M88.3,62.1c15.3-3.5,30.6-7.1,45.9-10.6c0,4.9,0.1,9.8-0.1,14.8c-1.2,3.6-1,7.5-1.1,11.2
			c-6.4,0.9-12.3-4.6-18.6-1.8c-0.4,0-1.2,0-1.6,0.1c-1-2-1-5.3-3.7-5.6c-1.5-0.3-2.9-0.5-4.4-0.7c-0.8-1.9-1.6-4.4-4-4.7
			C96.6,64,92,64.7,88.3,62.1z"/>
	</g>
	<g id="_x23_4e006dff">
		<path class="st8" d="M44.3,104.1C44,90,45.4,75.9,47,61.9c2.8,2.4,5.6,5,7.9,7.9c-0.6,5.4-1.3,10.8-1.8,16.2
			c-0.4,3.6-0.5,7.1-0.7,10.7c-1,14.3-0.2,28.8,2.1,43c1.7,9.9,4.4,19.6,8.4,28.8c1.9,4.3,4,8.4,6.4,12.4c2.4,4.3,5.7,8.1,8.2,12.4
			c-10-9.6-17.8-21.3-23.1-34.1C47.3,141.7,44.7,122.8,44.3,104.1z"/>
		<path class="st8" d="M106.1,78.6c2.7-0.6,5.4-1.3,8.1-1.6c0,14.2,0.1,28.5,0,42.7c-2.7,0.7-5.3,1.9-7.9,2.8
			C105.8,108,106.3,93.3,106.1,78.6z"/>
		<path class="st8" d="M106.1,145c2.7,0.7,5.4,1.4,8.1,2.3c0,3.3,0,6.5,0,9.8c-0.1,13.6,0.1,27.3-0.1,40.9c-3.2-1.7-6.1-3.8-9-6
			c-4-3.2-7.9-6.6-10.9-10.8c3.7,3.2,7.7,6.2,11.8,8.8C106.2,175,106.1,160,106.1,145z"/>
	</g>
	<g id="_x23_e15bfeff">
		<path class="st9" d="M55,69.8c11.1-2.7,22.2-5.2,33.4-7.7c3.7,2.6,8.3,1.9,12.4,2.7c2.4,0.3,3.2,2.8,4,4.7c1.5,0.2,3,0.4,4.4,0.7
			c2.7,0.4,2.8,3.6,3.7,5.6c0.4,0,1.2,0,1.6-0.1c0.3,0.3,0.9,0.8,1.2,1.1c-0.4,0.1-1.1,0.1-1.5,0.2c-2.7,0.3-5.4,0.9-8.1,1.6
			c-10.9,2.5-21.8,5-32.7,7.5c-0.2,1.3-0.3,2.6-0.5,3.9c-4.5-0.3-8.4-3.2-12.9-3.5c-2.3-0.2-4.6-0.3-6.8-0.5
			C53.7,80.6,54.3,75.2,55,69.8z"/>
	</g>
	<g id="_x23_db66feff">
		<path class="st10" d="M133.1,77.5c0.1-3.8-0.1-7.6,1.1-11.2c0.1,12.2,0.1,24.3,0,36.5c-1.4,3.8-1,7.8-1.3,11.7
			c-1.8,0.9-3.5,2-5.2,3.1c-0.3-0.4-0.9-1.2-1.2-1.6c-3.1,2.5-6.9,4.3-10.9,3.9l-1.4,0c0.1-14.2,0-28.5,0-42.7
			c0.4-0.1,1.1-0.1,1.5-0.2c-0.3-0.3-0.9-0.8-1.2-1.1C120.8,73,126.7,78.4,133.1,77.5z"/>
	</g>
	<g id="_x23_34c0f9ff">
		<path class="st11" d="M184.2,83c0.6,1.3,1.3,2.6,2,3.8c5.6-0.1,11.3-0.6,16.9-0.4c0.4,1.6,0.7,3.2,1,4.8
			c0.1,14.4-1.7,28.8-4.9,42.9l-0.2,0c-6.4-0.9-12.9,0.2-19.4-0.2c-0.2-0.5-0.7-1.6-0.9-2.2C182.9,115.9,184.3,99.4,184.2,83z"/>
	</g>
	<g id="_x23_d552feff">
		<path class="st12" d="M53.2,86.1c2.3,0.2,4.6,0.3,6.8,0.5c4.5,0.3,8.4,3.2,12.9,3.5c-0.9,9.9-1,19.9-0.7,29.9
			c-0.5-2.6-0.9-5.2-1.2-7.9c-3.2-1.1-6.8-1.2-9.7-3.1c-2.3-1.5-5-2.4-7.6-3.1c-0.5-3-0.9-6.1-1.2-9.1
			C52.7,93.2,52.8,89.6,53.2,86.1z"/>
	</g>
	<g id="_x23_cc50feff">
		<path class="st13" d="M54.7,139.7c-2.3-14.2-3.1-28.6-2.1-43c0.3,3,0.8,6.1,1.2,9.1c2.7,0.7,5.3,1.6,7.6,3.1
			c2.9,1.9,6.5,1.9,9.7,3.1c0.2,2.6,0.6,5.3,1.2,7.9c0.4,3,0.5,5.9,0.8,8.9c-2,2.1-3.9,4.6-6.8,5.4
			C62.1,135.4,58.4,137.6,54.7,139.7z"/>
	</g>
	<g id="_x23_d16ffeff">
		<path class="st14" d="M132.9,114.4c0.3-3.9-0.1-7.9,1.3-11.7c0.2,13.8,0,27.7,0.2,41.5l0,1c-6.4,4.2-12.9,7.9-19.6,11.4l-0.5,0.3
			c0-3.3,0-6.5,0-9.8c-2.7-0.8-5.4-1.5-8.1-2.3c-1.4-0.4-2.8-0.8-4.2-1.2c1.5-0.8,3.8-1.2,4.3-3.2c0.9-3,1.9-6,3.7-8.6
			c1.1-1.3,0.6-3,0.7-4.5c1.4-2.7,4.2-4.5,5-7.6c4,0.5,7.9-1.4,10.9-3.9c0.3,0.4,0.9,1.2,1.2,1.6
			C129.4,116.4,131.1,115.3,132.9,114.4z"/>
	</g>
	<g id="_x23_6ed0fbff">
		<path class="st15" d="M141.8,124.8c4.3-5.2,8.4-10.5,12.6-15.7c0.1,6,0,12,0,18c-6.1,6.3-12.3,12.4-19.6,17.4
			c0.4-4.1-0.3-8.4,1.2-12.3C137.2,129.2,139.9,127.2,141.8,124.8z"/>
	</g>
	<g id="_x23_cd62feff">
		<path class="st16" d="M106.3,122.6c2.6-1,5.2-2.2,7.9-2.8l1.4,0c-0.8,3.1-3.6,4.9-5,7.6c-0.2,1.5,0.3,3.2-0.7,4.5
			c-1.8,2.6-2.7,5.6-3.7,8.6c-0.5,2-2.7,2.3-4.3,3.2c-9.3-2.5-18.5-5.3-27.8-7.4c-0.1-0.4-0.1-0.7-0.2-1.1
			C84.8,131.1,95.6,126.9,106.3,122.6z"/>
	</g>
	<g id="_x23_20b4f9ff">
		<path class="st17" d="M134.8,144.5c7.2-4.9,13.5-11.1,19.6-17.4c0.1,10.7,0,21.3,0.1,31.9c0,2.8-0.1,5.5-0.1,8.3
			c-6.1-0.4-12.1,0.3-18.2-0.2c-0.4-1.1-0.9-2.2-1.3-3.3c0-6.1-0.5-12.2-0.2-18.4L134.8,144.5z"/>
	</g>
	<g id="_x23_c558ffff">
		<path class="st18" d="M73.1,128.9c0.3,2.1,0.6,4.2,0.9,6.4c0.1,0.4,0.1,0.7,0.2,1.1c1.8,10.5,4.8,20.8,9.8,30.2
			c-6.9,1.3-13.9,1.9-20.9,2c-4-9.2-6.6-18.9-8.4-28.8c3.7-2.2,7.4-4.3,11.5-5.5C69.2,133.5,71.1,131,73.1,128.9z"/>
	</g>
	<g id="_x23_24b7f9ff">
		<path class="st19" d="M172.6,149.7c2.6-5.8,4.6-11.8,6.2-17.9c0.2,0.5,0.7,1.6,0.9,2.2c6.5,0.4,12.9-0.6,19.4,0.2
			c-1.2,5.6-3.1,11.1-5,16.5l-0.2,0C186.9,149.4,179.5,152,172.6,149.7z"/>
	</g>
	<g id="_x23_0ca9f8ff">
		<path class="st20" d="M134.4,144.3l0.4,1.1c-0.2,6.1,0.3,12.3,0.2,18.4c0,6.6-0.6,13.3,1,19.7c7.5,0.6,15-0.2,22.5,0.1
			c4.8,0.4,9.9-0.8,14.5,1.1c-10.7,11.4-24.2,20.1-38.7,26c0-7.5,0-15.1,0-22.6c0.1-9.5,0-19,0-28.5c0.1-4.8-0.1-9.6,0.1-14.4
			L134.4,144.3z"/>
	</g>
	<g id="_x23_b42effff">
		<path class="st21" d="M114.8,156.7c6.7-3.5,13.3-7.3,19.6-11.4c-0.2,4.8,0,9.6-0.1,14.4c-0.5,1.1-1,2.1-1.7,3.1
			c-1.5,1.2-3.5,1-5.3,1c-4.1-0.2-8.1,0.5-12.2,0.7C114.9,161.9,114.8,159.3,114.8,156.7z"/>
	</g>
	<g id="_x23_1cb2f9ff">
		<path class="st22" d="M162.3,166.9c4.2-5.2,7.6-11.1,10.3-17.3c6.9,2.4,14.3-0.3,21.3,1c-2.3,6.4-5.4,12.6-8.9,18.4
			c-0.5-0.6-1.1-1.2-1.6-1.7C176.4,167.2,169.3,167.6,162.3,166.9z"/>
	</g>
	<g id="_x23_a923ffff">
		<path class="st23" d="M114.3,157l0.5-0.3c0,2.6,0.1,5.2,0.3,7.7c4.1-0.2,8.1-0.9,12.2-0.7c1.8,0,3.9,0.2,5.3-1
			c0.7-0.9,1.2-2,1.7-3.1c0,9.5,0,19,0,28.5c-0.5,1.1-1.1,2.3-1.7,3.4c-5.7,0.7-11.4-0.5-17,0.7c-0.5,1.9-0.9,3.8-1.4,5.7
			C114.3,184.3,114.2,170.7,114.3,157z"/>
	</g>
	<g id="_x23_14aef8ff">
		<path class="st24" d="M135,163.8c0.4,1.1,0.8,2.2,1.3,3.3c6,0.6,12.1-0.2,18.2,0.2c0,2.5,0,5,0.1,7.4c2.9-2.3,5.4-5,7.8-7.9
			c7,0.7,14,0.3,21.1,0.4c0.5,0.6,1.1,1.2,1.6,1.7c-3.5,5.6-7.5,10.9-12,15.7c-4.7-1.9-9.7-0.7-14.5-1.1c-7.5-0.3-15,0.5-22.5-0.1
			C134.5,177.1,135,170.4,135,163.8z"/>
	</g>
	<g id="_x23_ab25ffff">
		<path class="st25" d="M63,168.5c7-0.1,14-0.7,20.9-2c2.5,4.6,5.3,9.2,8.8,13.1c-1.8,0.6-3.7,1.3-5.7,1.1
			c-5.9-0.1-11.8-0.1-17.6,0.1C67,176.9,64.9,172.8,63,168.5z"/>
	</g>
	<g id="_x23_a41effff">
		<path class="st26" d="M87.1,180.8c2,0.1,3.8-0.5,5.7-1.1c0.5,0.5,1,1,1.5,1.5c3,4.2,6.9,7.6,10.9,10.8c-9,2.3-18.4-0.4-27.5,1.5
			c0,0,0-0.1-0.1-0.1c-2.5-4.3-5.8-8-8.2-12.4C75.3,180.7,81.2,180.7,87.1,180.8z"/>
	</g>
	<g id="_x23_9d18ffff">
		<path class="st27" d="M132.6,191.5c0.6-1.1,1.1-2.3,1.7-3.4c0,7.5,0,15.1,0,22.6c0,1.4-0.1,2.7-0.1,4.1c-0.7-2.8-1.2-5.7-1.3-8.6
			c-7.7,0.7-15.5,0.2-23.2,0.5c-5.7,0.3-11.5-0.8-17.2,0.5c-5.4-4.1-9.8-9.3-14.8-13.9c9.1-1.9,18.5,0.9,27.5-1.5
			c2.9,2.2,5.8,4.3,9,6c0.5-1.9,0.9-3.8,1.4-5.7C121.2,191,126.9,192.2,132.6,191.5z"/>
	</g>
	<g id="_x23_9510ffff">
		<path class="st28" d="M109.7,206.7c7.7-0.3,15.5,0.2,23.2-0.5c0.1,2.9,0.5,5.8,1.3,8.6c0.3,4.9,0,9.8,0.1,14.7
			c-15-5.2-29.4-12.3-41.8-22.3C98.2,205.9,104,207,109.7,206.7z"/>
	</g>
</g>
</svg>
