<?xml version="1.0" encoding="utf-8"?>
<!-- Generator: Adobe Illustrator 26.0.3, SVG Export Plug-In . SVG Version: 6.00 Build 0)  -->
<svg version="1.1" id="Layer_1" xmlns="http://www.w3.org/2000/svg" xmlns:xlink="http://www.w3.org/1999/xlink" x="0px" y="0px"
	 viewBox="0 0 250 250" style="enable-background:new 0 0 250 250;" xml:space="preserve">
<style type="text/css">
	.st0{fill:#ACADA8;}
	.st1{fill:#8D8E88;}
	.st2{fill:#1B1B0E;}
	.st3{fill:#8D8E89;}
	.st4{fill:#8F908B;}
	.st5{fill:#91918C;}
	.st6{fill:#838483;}
	.st7{fill:#8E8F89;}
	.st8{fill:#878983;}
	.st9{fill:#EEEFEE;}
	.st10{fill:#80823F;}
	.st11{fill:#E6D281;}
	.st12{fill:#858680;}
	.st13{fill:#938856;}
	.st14{fill:#92603C;}
	.st15{fill:#3B3F31;}
	.st16{fill:#7D7E77;}
	.st17{fill:#867D41;}
	.st18{fill:#DADFDE;}
	.st19{fill:#AFB2B1;}
	.st20{fill:#B5B5B6;}
	.st21{fill:#686868;}
	.st22{fill:#B2A6A7;}
	.st23{fill:#8B8D87;}
	.st24{fill:#E4D182;}
	.st25{fill:#DACC82;}
	.st26{fill:#8F613B;}
	.st27{fill:#6E655A;}
	.st28{fill:#8E8944;}
	.st29{fill:#564F2B;}
	.st30{fill:#292F1A;}
	.st31{fill:#8E8F92;}
	.st32{fill:#E0D68E;}
	.st33{fill:#201B12;}
	.st34{fill:#A4A6A2;}
	.st35{fill:#E6D182;}
	.st36{fill:#58664B;}
	.st37{fill:#859971;}
	.st38{fill:#94959A;}
	.st39{fill:#848680;}
	.st40{fill:#7A6C41;}
	.st41{fill:#A3804F;}
	.st42{fill:#434441;}
	.st43{fill:#986840;}
	.st44{fill:#EDDE8B;}
	.st45{fill:#D9CC82;}
	.st46{fill:#5A3C20;}
	.st47{fill:#47493D;}
	.st48{fill:#A77347;}
	.st49{fill:#9FA3A1;}
	.st50{fill:#4B3F31;}
	.st51{fill:#7B7C7D;}
	.st52{fill:#AB926E;}
	.st53{fill:#886D3B;}
	.st54{fill:#D9C8A1;}
	.st55{fill:#715E46;}
	.st56{fill:#D6DCDA;}
	.st57{fill:#C6B390;}
	.st58{fill:#E2C9A1;}
	.st59{fill:#442F1B;}
	.st60{fill:#515745;}
	.st61{fill:#7D6C54;}
	.st62{fill:#9E8868;}
	.st63{fill:#684423;}
	.st64{fill:#B48F5D;}
	.st65{fill:#DFC7A0;}
	.st66{fill:#E1CBA4;}
	.st67{fill:#473E32;}
	.st68{fill:#B2B3B4;}
	.st69{fill:#6B6E6D;}
	.st70{fill:#7C7E7D;}
	.st71{fill:#83857E;}
	.st72{fill:#7C6C47;}
	.st73{fill:#B69E68;}
	.st74{fill:#877860;}
	.st75{fill:#323A1A;}
	.st76{fill:#A18A6A;}
	.st77{fill:#E2C9A0;}
	.st78{fill:#D2BA93;}
	.st79{fill:#A49376;}
	.st80{fill:#372C1F;}
	.st81{fill:#796A47;}
	.st82{fill:#1D1811;}
	.st83{fill:#726341;}
	.st84{fill:#AF9864;}
	.st85{fill:#2E2A21;}
	.st86{fill:#66411F;}
	.st87{fill:#6F614C;}
	.st88{fill:#766146;}
	.st89{fill:#AC9662;}
	.st90{fill:#897850;}
	.st91{fill:#534D49;}
	.st92{fill:#B1A284;}
	.st93{fill:#6A5B3B;}
	.st94{fill:#6B5931;}
	.st95{fill:#9F9E9D;}
	.st96{fill:#8E8374;}
	.st97{fill:#56483C;}
	.st98{fill:#B59D68;}
	.st99{fill:#554D48;}
	.st100{fill:#8F7F6C;}
	.st101{fill:#929090;}
	.st102{fill:#F7F8F8;}
	.st103{fill:#806F49;}
	.st104{fill:#796741;}
	.st105{fill:#DFC9A2;}
	.st106{fill:#D6D7D8;}
	.st107{fill:#F3F3F3;}
	.st108{fill:#B7B6B7;}
	.st109{fill:#F7F7F7;}
	.st110{fill:#DADBDD;}
	.st111{fill:#191810;}
	.st112{fill:#A3A49F;}
	.st113{fill:#918055;}
	.st114{fill:#1F1714;}
	.st115{fill:#7B4E42;}
	.st116{fill:#422F26;}
	.st117{fill:#AB9562;}
	.st118{fill:#666665;}
	.st119{fill:#86754E;}
	.st120{fill:#2E1B11;}
	.st121{fill:#DDC9A1;}
	.st122{fill:#DEC69F;}
	.st123{fill:#695A44;}
	.st124{fill:#645647;}
	.st125{fill:#B46442;}
	.st126{fill:#897B63;}
	.st127{fill:#AE9763;}
	.st128{fill:#9D8859;}
	.st129{fill:#A18C75;}
	.st130{fill:#55574E;}
	.st131{fill:#433C2F;}
	.st132{fill:#7A6B48;}
	.st133{fill:#293016;}
	.st134{fill:#C0C3C4;}
	.st135{fill:#5F5442;}
	.st136{fill:#B7B7B4;}
	.st137{fill:#512811;}
	.st138{fill:#D5A335;}
	.st139{fill:#7F7F80;}
	.st140{fill:#BDBDBE;}
	.st141{fill:#708038;}
	.st142{fill:#EFF0F1;}
	.st143{fill:#A8967C;}
	.st144{fill:#F6F6F7;}
	.st145{fill:#544E49;}
	.st146{fill:#A7A8AA;}
	.st147{fill:#B7A488;}
	.st148{fill:#E1CBA3;}
	.st149{fill:#82724C;}
	.st150{fill:#675A50;}
	.st151{fill:#504A45;}
	.st152{fill:#B9A05C;}
	.st153{fill:#C1C0C0;}
	.st154{fill:#281C11;}
	.st155{fill:#958459;}
	.st156{fill:#563E27;}
	.st157{fill:#DBC49D;}
	.st158{fill:#3A3532;}
	.st159{fill:#BFA75F;}
	.st160{fill:#C9B149;}
	.st161{fill:#CAB164;}
	.st162{fill:#5A5451;}
	.st163{fill:#3A2717;}
	.st164{fill:#846C3D;}
	.st165{fill:#CDBC6B;}
	.st166{fill:#C6AB60;}
	.st167{fill:#846D3D;}
	.st168{fill:#A3A4A0;}
	.st169{fill:#6A5F4C;}
	.st170{fill:#E0C96F;}
	.st171{fill:#7C6035;}
	.st172{fill:#CFB865;}
	.st173{fill:#D8C16E;}
	.st174{fill:#8A8988;}
	.st175{fill:#D4BA68;}
	.st176{fill:#4B381E;}
	.st177{fill:#775B32;}
	.st178{fill:#8E8F8A;}
	.st179{fill:#C5A95F;}
	.st180{fill:#4B2F19;}
	.st181{fill:#856739;}
	.st182{fill:#CAAF61;}
	.st183{fill:#816537;}
	.st184{fill:#593F22;}
	.st185{fill:#49443E;}
	.st186{fill:#CAB465;}
	.st187{fill:#8C6E3D;}
	.st188{fill:#B69E69;}
	.st189{fill:#675538;}
	.st190{fill:#321E10;}
	.st191{fill:#E5CB71;}
	.st192{fill:#9C854B;}
	.st193{fill:#CAB466;}
	.st194{fill:#847D7C;}
	.st195{fill:#352B18;}
	.st196{fill:#967944;}
	.st197{fill:#CAAC60;}
	.st198{fill:#887951;}
	.st199{fill:#989994;}
	.st200{fill:#141212;}
	.st201{fill:#776946;}
	.st202{fill:#1A0D0A;}
	.st203{fill:#6B6351;}
	.st204{fill:#695839;}
	.st205{fill:#847C7B;}
	.st206{fill:#382E1A;}
	.st207{fill:#1B1918;}
	.st208{fill:#2A1716;}
	.st209{fill:#190A08;}
	.st210{fill:#514E4E;}
	.st211{fill:#6D5B3C;}
	.st212{fill:#725E35;}
	.st213{fill:#847B7A;}
	.st214{fill:#79873F;}
	.st215{fill:#1D110D;}
	.st216{fill:#2A1211;}
	.st217{fill:#999090;}
	.st218{fill:#534E48;}
	.st219{fill:#ECD983;}
	.st220{fill:#25130F;}
	.st221{fill:#EEBB48;}
	.st222{fill:#67593B;}
	.st223{fill:#756341;}
	.st224{fill:#877D7D;}
	.st225{fill:#721512;}
	.st226{fill:#B5B5B5;}
	.st227{fill:#431512;}
	.st228{fill:#1A1515;}
	.st229{fill:#24120E;}
	.st230{fill:#50120A;}
	.st231{fill:#761A12;}
	.st232{fill:#8C7E54;}
	.st233{fill:#631312;}
	.st234{fill:#4C402D;}
	.st235{fill:#1E1010;}
	.st236{fill:#251B1B;}
	.st237{fill:#5D1311;}
	.st238{fill:#948E7E;}
	.st239{fill:#695E46;}
	.st240{fill:#221515;}
	.st241{fill:#13150A;}
	.st242{fill:#675A3B;}
	.st243{fill:#9A8A89;}
	.st244{fill:#6D302C;}
	.st245{fill:#302A21;}
	.st246{fill:#563B22;}
	.st247{fill:#8E7961;}
	.st248{fill:#677739;}
	.st249{fill:#333A2C;}
	.st250{fill:#8D7860;}
	.st251{fill:#353428;}
	.st252{fill:#B8AC6D;}
	.st253{fill:#8A5B3A;}
	.st254{fill:#9C9B99;}
	.st255{fill:#8F633F;}
	.st256{fill:#BEA569;}
	.st257{fill:#736845;}
	.st258{fill:#CCB974;}
	.st259{fill:#D4BD75;}
	.st260{fill:#7A715B;}
	.st261{fill:#A78733;}
	.st262{fill:#AEAEAE;}
	.st263{fill:#625545;}
	.st264{fill:#AF937C;}
	.st265{fill:#CABB79;}
	.st266{fill:#827A6D;}
	.st267{fill:#776A5E;}
	.st268{fill:#9E8C70;}
	.st269{fill:#949491;}
	.st270{fill:#5A4E40;}
	.st271{fill:#685A49;}
	.st272{fill:#7D8079;}
	.st273{fill:#7F807A;}
	.st274{fill:#767770;}
	.st275{fill:#7E7467;}
	.st276{fill:#989288;}
	.st277{fill:#9C8A6E;}
	.st278{fill:#5E5143;}
	.st279{fill:#BBBBBB;}
</style>
<g id="_x23_acada8ff">
	<path class="st0" d="M99.9,14.3c5.1-1.3,19.2-3.6,24.1,0C116,14,108,13.6,99.9,14.3z"/>
</g>
<g id="_x23_8d8e88ff">
	<path class="st1" d="M95.1,15c0.2-1.9,3.6-1.6,4.8-0.7C98.5,15.1,96.8,15.2,95.1,15z"/>
</g>
<g id="_x23_1b1b0eff">
	<path class="st2" d="M99.9,14.3c8-0.7,16.1-0.4,24.1,0c1.5,0.7,3.2,0.8,4.8,0.6c0.5,0.1,1.6,0.3,2.1,0.4c1.2,0.7,2.5,0.8,3.9,0.6
		c1.6-0.2,2.9,0.9,4.3,1.4c1.8,0.9,3.6,1.6,5.6,1.6c3,0.3,5.6,1.7,8.1,3.2c2,1.2,4.6,2.7,6-0.1c1.3,3.1,2.5,6.3,3.4,9.6
		c0,3-0.1,6,0,9.1c0.7,11.5-14.3-0.5-16.3,8c4.1,2.2,2.5,6.6,1,10c-2,0.6-3.2,1.8-2.2,3.9c-1.9,1.2-4,2.5-4,5l-0.6,0.4l-0.9-0.1
		l-0.4-0.7l0.2-1c0.4-3.1,2-6.7,0.3-9.7c-2.2-0.5-4.4-1-6.6-1.4c2.2-1.9,14.1,3,11.8-2.2c-0.2-1.3-1-2.1-2.3-2.4
		c-4.8-1.2-9.7-0.4-14.5,0.4l-0.7-0.4c-2.4-1.6-4.4-1.6-6.2,0c-2.7,0.3-5.3,0.4-7.9,1.2c-1.4,0.4-2.8,0.8-4.2,1.1
		c-3.8-1.3-5.2,6.2-5.8,0.3c-4.1,1.4-10.2,0.4-12.4,4.7c-2.2-1.2-6-1.9-4.4,1.8c3.2,2.6,8.2-0.1,12.2,0.1c4.6-0.1,9.1-0.8,13.6-1.7
		l0.7-0.1c1.9,1.9,4.6,1.9,7.1,2.3c1.4,0.4,4.1,1.2,5.5,1.6c-1.8,4.8-1.2,7.3,1.9,9.9c-3.6-0.3-8.6-2.2-8.3,3.1
		c-0.4,0.1-1.2,0.2-1.6,0.2c-2.8,0.1-5.6-0.3-8.2,0.4c-0.5,0.1-1.4,0.4-1.9,0.5c-0.2-0.2-0.6-0.8-0.8-1c-2.4-3.5-6.3-5.9-7.6-10.1
		c-2.5-2.4-11.7-5.1-10.3,1.1c-0.8,0.1-1.6,0.2-2.4,0.2l-0.7-0.6c-0.8-3.4-2.9-6.3-5.4-8.7c-6.3-0.4-7.3-2.2-1.7-2.3
		c-9.5-4-15,10.6-15.4,18.3C62.4,73,61.4,73,61,73c-1.9-0.4-3.8-0.9-5.7-1.2c-4-0.5-8.6-2-12.4,0c-13.9,4.6-25.3,16.8-25.7,31.9
		c3.1-1.2,4.7,0.9,6,3.4c-0.3,0.3-1,0.9-1.3,1.2c-1.7-0.5-5.2-4.2-5-0.4c-1.3,8.5-1.8,19.2,2.3,26.1c1.8-1.5,3-14,5.3-8.8
		c-0.7,4.7-2.3,9.2-3.3,13.9c9.2-0.8,18.4-2.4,27.6-3.2c3,0.2,10.1-2.4,4.8,1.5c1,2,6.2,4.2,9.4,4.5c1.4,1.4,1.2,15.9-1.9,9
		c0.7-6.1-6.2-12.3-11.7-7.7c-4.1,3.1-2.3,10.6,1.9,12.8c2,0.9,3,2.5,3.3,4.6c-2.4,0.9-6.9,1.2-4.7,4.8c2,4.7,1.8,9.8,2.5,14.7
		c-0.2,0.5-0.6,1.5-0.8,2c-1.4-0.4-2.9-0.7-4.4-1c-3.9,0.3-7.2-7.3-1.6-7.3c2.3,0.6,3.5-0.2,2.6-2.6c-1.7-3.1-1.8-9.5-6.8-8.1
		c-1.9,0.3-3.8,0.8-5.8,1.1c-1.6,0.2-4.9,0.5-6.5,0.7c-1.7-0.1-3.5,0.2-5-0.7c-0.1-1.6-0.3-4.8-0.4-6.3l-0.5-0.7
		c-0.1-1.6-0.4-4.8-0.6-6.4l-0.4-0.7c1.8-3.8,1.5-6.1-0.9-6.9c-3.9,1.1-4.7,6.8-7.1,10c-0.5-0.8-1.1-1.5-1.6-2.3
		c-2-2.9-2.2-6.6-3.1-9.9c-0.5-3.6-1-7.2-1.2-10.9c0.1-7.7,0.1-15.4,0-23.1c0.2-3.3,0.9-6.7,1.2-10c1.5-7.2,3.2-14.7,7.2-21.1
		c1.1-1.3,1.7-2.8,1.9-4.4c1.2-2.5,2.3-5.2,4.1-7.4c1-0.7,1.7-1.6,1.8-2.8c1.4-3.1,3.6-5.9,6.1-8.3c1.1-0.5,1.9-1.4,2.1-2.5
		c3.2-4.1,6.3-8.8,11.2-11.2c1.5-0.5,2.8-1.5,3.4-3.1c3.4-3.4,7.8-6.4,12.4-8.1c1.2-0.1,2.2-0.8,2.9-1.8c1.8-1.5,4-2.6,6.2-3.2
		c1.7,0,3.3-0.6,4.6-1.7c2.5-1.7,5.5-2.4,8.3-3.3c1.2,0.1,2.7,0.2,3.7-0.8c1.1-1.1,2.7-1.6,4.2-1.3c1.3,0.2,2.7,0.1,3.9-0.6
		c0.5-0.1,1.6-0.3,2.1-0.4C96.8,15.2,98.5,15.1,99.9,14.3 M88.7,25.6c-4.8,1.5-8.3,6.4-9.6,11.3L78.9,38c-2.5,1.5-1.3,6.9-2,9.9
		c-3.7,3.9,2.4,6.1,6.1,2.9c1,1,2,2,3.1,2.9c-1.6,0.1-2.2,0.9-2.1,2.4c17.6-4.8,35.6-8.8,54-8.1c4,6.5,6.6-3.7,4.4-2.8
		c-4.3-3.5-12.9,0.2-18.4-1.2c-9.3,2.7-4.6-1.1-2.4-2.3c3.1,2,21.1,2.7,19.8-0.3c-0.8-1.5-1.6-3-2.5-4.5c-0.8-1.2-1-3.7-2.5-3.7
		c-1.3-2-3.5-2.9-5.5-3.9c5.9-1.5-2.9-5.4-5.7-4.4c2.3-2.3-0.7-4.7-3.2-3.8c-2.6-0.7-5.2-1.2-7.9-1.1
		C105.1,19.1,96.1,20.6,88.7,25.6 M32.3,144.6c-3.3,1.5-0.4,7,0.1,10.2c-0.7,1.9,0,5.3,2.7,3.8c1.2,1,4.6,1.5,4.8-0.5
		c3.8,0.6,6.1-6.7,1.5-7.4c2-4.3-0.3-8.2-5.3-6.6C35.1,144.3,31.1,143.2,32.3,144.6z"/>
</g>
<g id="_x23_8d8e89ff">
	<path class="st3" d="M124.1,14.4c1.2-0.9,4.6-1.3,4.8,0.6C127.2,15.2,125.6,15.1,124.1,14.4z"/>
</g>
<g id="_x23_8f908bff">
	<path class="st4" d="M89.2,16c-0.1-1.8,3-1.6,3.9-0.6C91.8,16.1,90.5,16.2,89.2,16z"/>
</g>
<g id="_x23_91918cff">
	<path class="st5" d="M131,15.4c0.9-1.1,4-1.2,3.9,0.6C133.5,16.2,132.2,16.1,131,15.4z"/>
</g>
<g id="_x23_838483ff">
	<path class="st6" d="M153.9,15C167,16.8,175,29.8,182,39.6c-8-5.4-12.5-17.9-23.2-21.5c-3.5-2.8-0.4,2.2,0,3.9
		c-1.4,2.8-3.9,1.2-6,0.1C158.5,23,154.6,17.8,153.9,15z"/>
</g>
<g id="_x23_8e8f89ff">
	<path class="st7" d="M81.2,18.1c-0.2-1.8,2.8-1.8,3.7-0.8C83.9,18.3,82.5,18.2,81.2,18.1z"/>
	<path class="st7" d="M22.3,64.1c-1.2-1.1,0.2-3.7,1.8-2.8C24,62.5,23.3,63.4,22.3,64.1z"/>
</g>
<g id="_x23_878983ff">
	<path class="st8" d="M139.1,17.4c1.7-1.2,5.2-0.6,5.6,1.6C142.7,19,140.8,18.3,139.1,17.4z"/>
</g>
<g id="_x23_eeefeeff">
	<path class="st9" d="M158.9,22.1c-0.5-1.8-3.6-6.7,0-3.9c10.7,3.6,15.2,16.1,23.2,21.5c1.6,0.4,2.9,2.5,3.5,4.1
		c0.2,3.2,2.5,5.8,4.2,8.3c4.8,6.4,9.3,12.9,14.3,19.1c3.4,5,6.4,10.5,11.3,14.3c-0.7,1-1.3,2.1-2.2,2.9c-1.1-0.1-2-0.4-2.7-1.1
		c-4.1-11.7-15-21.7-22.1-32.4c-3.5-3.6-1.7,0.3,0,2.5c-4.8-0.3-11.4-0.4-10.2,6l-0.8-0.5c-1.1-1.2-2.1-2.5-3-3.9
		c-0.1-1.9-1.4-3.3-3.1-3.9c-0.2-0.3-0.6-0.8-0.8-1.1c-0.9-1.3-1.8-2.6-2.7-3.9c3.4-2.9,6.2-6.1,6.2-11.1c7.3,7-2.2-11.1-8.1-7.7
		c-0.4,1.3-1.2,3.8-1.6,5.1c-0.6-1.5-1.3-3-1.9-4.5C161.4,28.4,160.2,25.2,158.9,22.1z"/>
</g>
<g id="_x23_80823fff">
	<path class="st10" d="M88.7,25.6c7.5-5,16.5-6.4,25.3-5.6c4.4,4.4-1.9,7.8-5.9,4.9c-4.7-2.9-2.9,4.2-6.3,5.8
		C96.1,30.1,90.7,33,84.9,33c-0.4-4.2,5.1-2.6,8-3.2C93.9,26.6,90.2,27.3,88.7,25.6z"/>
</g>
<g id="_x23_e6d281ff">
	<path class="st11" d="M114,20c2.7-0.1,5.3,0.4,7.9,1.1c1.1,1.2,2,2.6,3.2,3.8c2.8-1,11.6,2.9,5.7,4.4c-3,0.4-10.7,3.7-9.4-1.9
		c1.7-2.1-1.8-7.2-3.2-4.1c-3.4,4.5,5.7,11.4-5.6,10.5c-0.5,0.3-1.5,0.8-1.9,1.1c-0.3,4.2-3.4,1.6-5.8,0.6c2.2-2.9,11.7-2.5,8.9-6.4
		c-3.8,0.7-7,3.1-10.9,3.3c-0.3-0.4-0.8-1.3-1.1-1.7c3.3-1.7,1.6-8.8,6.3-5.8C112.1,27.8,118.4,24.4,114,20z"/>
</g>
<g id="_x23_858680ff">
	<path class="st12" d="M68.3,23.1c-0.1-1.9,3.2-2.9,4.6-1.7C71.6,22.5,70,23.1,68.3,23.1z"/>
</g>
<g id="_x23_938856ff">
	<path class="st13" d="M121.9,21.1c2.5-1,5.5,1.5,3.2,3.8C123.9,23.7,123,22.3,121.9,21.1z"/>
</g>
<g id="_x23_92603cff">
	<path class="st14" d="M118.3,23.3c1.4-3.1,4.8,2,3.2,4.1c-1.3,5.6,6.3,2.3,9.4,1.9c2,1,4.2,1.9,5.5,3.9c-7.9,0.6-17,8.6-23.6,0.7
		C124,34.7,114.9,27.8,118.3,23.3z"/>
</g>
<g id="_x23_3b3f31ff">
	<path class="st15" d="M79.1,36.9c1.3-4.9,4.8-9.8,9.6-11.3c1.6,1.7,5.3,1,4.3,4.2c-2.9,0.6-8.4-1-8,3.2c5.7,0,11.2-3,16.9-2.3
		c0.3,0.4,0.8,1.2,1.1,1.7c0.2,5.1,0.5,10.3,6.2,11.4c0.7,0.1,2.1,0.2,2.8,0.2c1.1-1.8,2.1-3.7,3-5.7c-2.3-0.2-4.7-0.4-4.2-3.4
		c0.5-0.3,1.5-0.8,1.9-1.1c6.6,8,15.7-0.1,23.6-0.7c1.6,0,1.8,2.6,2.5,3.7c-1.6,0.3-3.8-0.2-4.1,1.9c-4.3,1.3-9.4,0.3-13.2,2.9
		c-2.2,1.2-6.8,5,2.4,2.3c5.6,1.4,14.1-2.3,18.4,1.2c-5.6-0.1-11.1-0.4-16.7-0.1c-13,3.4-27.5,2.4-39.6,8.6C85,52.7,84,51.8,83,50.8
		c1.7-0.8,3.5-1.4,5.2-1.9c1.6-2.3-1.3-6.8-1.7-9.9C84.2,37.6,81.5,37.4,79.1,36.9 M100.3,32.3c-1.8,1-7.9,0.6-5.2,3.5
		C96.2,40.9,105.7,34.6,100.3,32.3 M89.3,35.3c-2.8-0.2-3,3.7-0.2,3.7C97.3,43.5,94.1,32,89.3,35.3 M99.4,39.5
		c-2.3,0.9-5,3.6-7.2,1.3c-1.8-2-3.2,2.3-1.1,3.1c0.6,0.8,1.2,1.5,1.8,2.2c1.4,2.6,6.7,3.2,7.1-0.1c4.2,1,3.7-6.9,0-2.9l-1-0.2
		C100.2,42,102.5,37.6,99.4,39.5 M92.9,46.1C87.4,44.2,93.1,51,92.9,46.1z"/>
</g>
<g id="_x23_7d7e77ff">
	<path class="st16" d="M59.2,28.1c-0.8-1.5,1.8-3,2.9-1.8C61.4,27.3,60.5,28,59.2,28.1z"/>
</g>
<g id="_x23_867d41ff">
	<path class="st17" d="M102.9,32.4c3.9-0.2,7.1-2.6,10.9-3.3c2.9,3.9-6.7,3.5-8.9,6.4c2.4,1,5.5,3.6,5.8-0.6c-0.5,3,1.9,3.2,4.2,3.4
		c-0.9,2-1.8,3.9-3,5.7c1-2.6-3.7-3-2.8-0.2C103.4,42.7,103.1,37.5,102.9,32.4z"/>
</g>
<g id="_x23_dadfdeff">
	<path class="st18" d="M164.2,36.2c0.4-1.3,1.2-3.8,1.6-5.1c2.5,2.8,6,4.5,8.1,7.7c0,5-2.8,8.2-6.2,11.1
		C164.2,46.2,165.5,40.8,164.2,36.2z"/>
</g>
<g id="_x23_afb2b1ff">
	<path class="st19" d="M165.7,31.2c5.9-3.4,15.4,14.7,8.1,7.7C171.7,35.7,168.2,33.9,165.7,31.2z"/>
</g>
<g id="_x23_b5b5b6ff">
	<path class="st20" d="M100.3,32.3c5.3,2.2-4.1,8.6-5.2,3.5C92.4,32.9,98.5,33.3,100.3,32.3z"/>
	<path class="st20" d="M138.2,94c1.4,1.3,0.6,3.7,1.1,5.4c-0.1,0.4-0.2,1.3-0.3,1.7c-0.4-0.1-1.1-0.3-1.5-0.4
		c-1.2-0.3-2.3-0.6-3.5-0.8l-1.1-0.2C136.1,99.3,139,97.7,138.2,94z"/>
</g>
<g id="_x23_686868ff">
	<path class="st21" d="M162.3,31.7c0.6,1.5,1.2,3,1.9,4.5c1.3,4.6,0,9.9,3.5,13.7c0.9,1.3,1.8,2.6,2.7,3.9c-6.4-1.6-6.6-7.7-8-13.1
		C162.1,37.8,162.2,34.8,162.3,31.7z"/>
</g>
<g id="_x23_b2a6a7ff">
	<path class="st22" d="M89.3,35.3c4.8-3.3,8,8.2-0.2,3.7C86.3,39,86.5,35.1,89.3,35.3z"/>
</g>
<g id="_x23_8b8d87ff">
	<path class="st23" d="M43.5,39.2c-0.8-1.7,1.7-4,3.4-3.1C46.3,37.7,45,38.7,43.5,39.2z"/>
</g>
<g id="_x23_e4d182ff">
	<path class="st24" d="M79.1,36.9c2.5,0.5,5.2,0.7,7.4,2c-1,4.3-8.4,3.9-7.6-0.9L79.1,36.9z"/>
</g>
<g id="_x23_dacc82ff">
	<path class="st25" d="M134.8,38.8c0.2-2.2,2.5-1.7,4.1-1.9c0.9,1.5,1.7,3,2.5,4.5c-0.5,0.1-1.6,0.3-2.1,0.4
		C137.8,40.7,136.3,39.7,134.8,38.8z"/>
</g>
<g id="_x23_8f613bff">
	<path class="st26" d="M76.9,47.9c0.6-3-0.5-8.4,2-9.9c-0.8,4.8,6.6,5.2,7.6,0.9c0.4,3.1,3.3,7.6,1.7,9.9
		C87.5,42,80.7,46.7,76.9,47.9z"/>
</g>
<g id="_x23_6e655aff">
	<path class="st27" d="M99.4,39.5c3.1-1.9,0.8,2.5-0.4,3.4c-2.2,2.5-5.1,1.9-7.9,0.9c-2.1-0.8-0.7-5.1,1.1-3.1
		C94.4,43.1,97.1,40.4,99.4,39.5z"/>
</g>
<g id="_x23_8e8944ff">
	<path class="st28" d="M121.5,41.7c3.9-2.5,8.9-1.6,13.2-2.9c1.5,0.9,3,1.9,4.5,2.9C133.3,42.2,127.4,41.9,121.5,41.7z"/>
</g>
<g id="_x23_564f2bff">
	<path class="st29" d="M141.3,41.4c1.2,3-16.7,2.3-19.8,0.3c5.9,0.2,11.8,0.5,17.7,0C139.8,41.6,140.8,41.5,141.3,41.4z"/>
</g>
<g id="_x23_292f1aff">
	<path class="st30" d="M162.3,40.8c1.4,5.4,1.6,11.5,8,13.1c0.2,0.3,0.6,0.9,0.8,1.1c-0.3,2,1.1,3.7,3.1,3.9c-0.3,2.7-3,5.6-1.2,8.2
		c1.5-1.3,2.8-2.9,4.2-4.3l0.8,0.5c1.9,2.8,3.7,8.9,8,5.5c2.4,2.3-3.6,7.4,1.3,5.6c4.4-1.8,1.3,2.3,0.6,4.4c3.4-1.3,4.6-0.5,3.2,3
		c4.5-1.9,4.3,1,2.1,4.1c4.9-2,5.2-0.1,2.8,3.9c4.2-1.8,4.1,0.5,3,4c3.5-1.1,4.9-0.7,2.2,2.5c2.7-0.2,4.4-2.3,6.1-4.2l0.6-0.6
		c2.6,3.9-5.6,5.9-8.1,8.5c9.1,1.6,13.7-7.7,21.3-10c-0.1,0.4-0.2,1.2-0.3,1.6c-3.6,2.5-7.1,5.1-10.4,7.9c-3,5.3,1.9,5.7,4.9,4.7
		c-0.1,0.3-0.4,0.9-0.5,1.2c-1.9,1.1-3.5,2.6-4.3,4.7c-0.4-1.1-0.8-2.1-1.4-3.1c-5.4-1.6,1.8-8.3-5.2-5.2l-0.8-0.2
		c-4.3-0.8-8.3,2.1-12.3,3.4c0.1-4.3,7.8-2,6-6.8c-2.7-2.2-7.9-3.1-9.5-5.2c6.3-4.8,0.3-11.7-4.9-14.5c-5-1.4-11.6-0.8-14.7-5.7
		c-5.9,4.5,5.6,6.4,6.3,11.2c-5.8-3.1-11.5-9.5-18.5-5.7l-0.8,0.2c-1.3,0.6-2.6,1.3-3.9,2c2.2-4.1,7.4-8.9,6.5-15
		c1.5-6.8-6.2-6.6-10.4-6.7c1.4-3.5,3.1-7.8-1-10C148,40.3,163,52.3,162.3,40.8z"/>
</g>
<g id="_x23_8e8f92ff">
	<path class="st31" d="M100,43.1c3.8-4,4.3,3.9,0,2.9C100,45.3,100,43.8,100,43.1z"/>
</g>
<g id="_x23_e0d68eff">
	<path class="st32" d="M109.2,43.8c-0.9-2.8,3.8-2.4,2.8,0.2C111.3,43.9,109.8,43.8,109.2,43.8z"/>
</g>
<g id="_x23_201b12ff">
	<path class="st33" d="M91.1,43.9c2.8,1,5.7,1.5,7.9-0.9l1,0.2c0,0.7,0,2.2,0,2.9c-0.4,3.3-5.7,2.7-7.1,0.1
		C92.3,45.4,91.7,44.7,91.1,43.9z"/>
</g>
<g id="_x23_a4a6a2ff">
	<path class="st34" d="M189.7,52c-1.7-2.6-4-5.1-4.2-8.3c2.4,2.1,5.5,4,6.7,7C190.8,50.2,189.5,50.1,189.7,52z"/>
</g>
<g id="_x23_e6d182ff">
	<path class="st35" d="M76.9,47.9c3.8-1.2,10.6-5.9,11.3,0.9c-1.8,0.6-3.5,1.1-5.2,1.9C79.3,54,73.2,51.8,76.9,47.9z"/>
</g>
<g id="_x23_58664bff">
	<path class="st36" d="M86.1,53.7c12.2-6.3,26.6-5.2,39.6-8.6c2.5,3.1,14,4,16.7,0.1c2.2-0.9-0.4,9.3-4.4,2.8
		c-18.4-0.7-36.4,3.3-54,8.1C83.8,54.6,84.5,53.8,86.1,53.7z"/>
</g>
<g id="_x23_859971ff">
	<path class="st37" d="M125.7,45c5.6-0.2,11.1,0,16.7,0.1C139.7,49,128.2,48.2,125.7,45z"/>
</g>
<g id="_x23_94959aff">
	<path class="st38" d="M92.9,46.1C93.1,51,87.4,44.2,92.9,46.1z"/>
</g>
<g id="_x23_848680ff">
	<path class="st39" d="M30.2,53c-1.2-1.2,0.7-3.6,2.1-2.5C32,51.6,31.2,52.5,30.2,53z"/>
</g>
<g id="_x23_7a6c41ff">
	<path class="st40" d="M120.8,50.7c1.7-1.6,3.8-1.6,6.2,0C125,51.4,122.7,51.8,120.8,50.7z"/>
</g>
<g id="_x23_a3804fff">
	<path class="st41" d="M127.7,51.1c4.8-0.9,9.7-1.6,14.5-0.4c-3.8,0.6-9.5-1.2-11.6,3.2C129.6,53,128.7,52,127.7,51.1z"/>
</g>
<g id="_x23_434441ff">
	<path class="st42" d="M189.7,52c-0.2-1.9,1.1-1.8,2.5-1.3c5.1,5.8,9.6,12.3,13,19.2c-0.3,0.3-0.8,0.9-1.1,1.2
		C199,65,194.5,58.4,189.7,52z"/>
</g>
<g id="_x23_986840ff">
	<path class="st43" d="M112.9,51.9c2.6-0.8,5.2-0.9,7.9-1.2c2.5,3.9,6.8,4.6,11.1,4.6c-6.4,0.9-13.3,0.1-19.3,2.8l-0.7,0.1l0.1-0.7
		C112.4,55.6,112.6,53.8,112.9,51.9z"/>
</g>
<g id="_x23_edde8bff">
	<path class="st44" d="M120.8,50.7c1.9,1.1,4.2,0.7,6.2,0l0.7,0.4c0.9,1,1.8,2,2.9,2.8c2.1-4.4,7.8-2.6,11.6-3.2
		c1.3,0.3,2.1,1,2.3,2.4c-3.6,2.2-9.4-2.1-11.8,2.2l-0.7,0C127.6,55.3,123.4,54.6,120.8,50.7z"/>
</g>
<g id="_x23_d9cc82ff">
	<path class="st45" d="M108.8,53c1.4-0.3,2.8-0.7,4.2-1.1c-0.3,1.8-0.6,3.7-0.9,5.5C110.3,56.4,108.9,55.1,108.8,53z"/>
</g>
<g id="_x23_5a3c20ff">
	<path class="st46" d="M62.8,73c0.4-7.7,5.9-22.3,15.4-18.3c-5.6,0.1-4.6,1.9,1.7,2.3c-2.5-0.1-5.2,0.1-7.1,1.9
		c-9.7,8.1-5,29.8,10.4,26.5c-3.1,1.8-6.9,2-10.3,1.1C66.5,85.3,65.4,77.8,62.8,73z"/>
</g>
<g id="_x23_47493dff">
	<path class="st47" d="M90.6,58c2.3-4.3,8.3-3.3,12.4-4.7c0.6,5.9,2-1.6,5.8-0.3c0.1,2.1,1.6,3.4,3.3,4.5l-0.1,0.7
		c-4.5,0.9-9,1.6-13.6,1.7C96.4,57.1,92.9,59.8,90.6,58z"/>
</g>
<g id="_x23_a77347ff">
	<path class="st48" d="M132.7,55.2c2.4-4.3,8.2,0,11.8-2.2C146.8,58.2,134.9,53.3,132.7,55.2z"/>
</g>
<g id="_x23_9fa3a1ff">
	<path class="st49" d="M188.3,57.3c-1.7-2.2-3.5-6.1,0-2.5c7.2,10.8,18.1,20.7,22.1,32.4C203,77.2,195.4,67.4,188.3,57.3z"/>
</g>
<g id="_x23_4b3f31ff">
	<path class="st50" d="M132,55.3l0.7,0c2.2,0.4,4.4,0.9,6.6,1.4c-4-0.3-7.9,0.3-10.7,3.2c-1.1,0.7-2.2,1.4-3.3,2.1
		c-1.4-0.4-4.1-1.2-5.5-1.6c2.7-0.2,5.8,0.2,7.6-2.2c-1.2,1.5-10.4-2.8-7.6,2.2c-2.5-0.4-5.2-0.4-7.1-2.3
		C118.7,55.3,125.5,56.2,132,55.3z"/>
</g>
<g id="_x23_7b7c7dff">
	<path class="st51" d="M171.1,55c1.7,0.7,3,2.1,3.1,3.9C172.2,58.6,170.8,57,171.1,55z"/>
</g>
<g id="_x23_ab926eff">
	<path class="st52" d="M72.8,58.8c2-1.8,4.6-1.9,7.1-1.9c2.4,2.4,4.6,5.3,5.4,8.7c-7.5,0.5-7.8,8.8-6.4,14.5
		c-6.6-3.7-2.9-11,1.1-15.2c-3.6-1.3-7.4-0.7-10.2,1.9c1.6-6.7,8.5-4.2,13.3-2.8C82.1,60,75.8,60.7,72.8,58.8z"/>
</g>
<g id="_x23_886d3bff">
	<path class="st53" d="M86.2,59.8c-1.6-3.7,2.2-3,4.4-1.8c2.3,1.9,5.8-0.9,7.7,1.9C94.3,59.6,89.4,62.3,86.2,59.8z"/>
</g>
<g id="_x23_d9c8a1ff">
	<path class="st54" d="M128.6,59.9c2.8-3,6.7-3.6,10.7-3.2c-0.1,3.2-0.1,6.5-0.3,9.7l-0.2,1c-3.9-0.9-2.5-4.6-2-7.5
		C134.9,57.9,128.9,64.2,128.6,59.9z"/>
	<path class="st54" d="M107.1,76c0.5-0.1,1.4-0.4,1.9-0.5c1.7,1.5-1,2.3-1.8,3.5c0.6,1.5,2.8,3.7-0.3,3.4
		C103.8,81,105.2,77.8,107.1,76z"/>
</g>
<g id="_x23_715e46ff">
	<path class="st55" d="M139.3,56.7c1.7,3,0.1,6.6-0.3,9.7C139.2,63.1,139.2,59.9,139.3,56.7z"/>
</g>
<g id="_x23_d6dcdaff">
	<path class="st56" d="M178.1,63.3c-1.2-6.5,5.4-6.4,10.2-6c7.1,10.2,14.7,20,22.1,29.9c0.7,0.7,1.6,1.1,2.7,1.1
		c-2,0.7-4.4,0.9-5.2,3.2l-0.6,0.6c-0.5-0.2-1.4-0.5-1.9-0.7c-4.5-7.7-10.3-14.6-15.7-21.7c-0.6-1.7-2.3-2-3.7-0.9
		C181.8,72.3,179.9,66.2,178.1,63.3z"/>
</g>
<g id="_x23_c6b390ff">
	<path class="st57" d="M119.8,60.3c-2.8-5,6.4-0.7,7.6-2.2C125.6,60.6,122.5,60.1,119.8,60.3z"/>
</g>
<g id="_x23_e2c9a1ff">
	<path class="st58" d="M83.1,85.3c-15.4,3.4-20.1-18.3-10.4-26.5c3,1.9,9.4,1.2,10.3,5.3c-4.8-1.4-11.8-3.9-13.3,2.8
		c2.8-2.7,6.6-3.2,10.2-1.9c-4,4.2-7.6,11.4-1.1,15.2c-1.4-5.7-1-14,6.4-14.5l0.7,0.6c0.6,3.2,0.8,6.4,1.1,9.6
		c-1.8,2.7-4.9,4.3-6.3,7.2c3.4,0.7,6.8-7.6,6.5-0.9C86.2,83.5,84.7,84.4,83.1,85.3z"/>
	<path class="st58" d="M224.1,93c0.4,0,1.3,0.1,1.7,0.2c2.5,1.3,6.8,1.9,4.2,6.5c-3.3-0.5-10.9-0.1-6.2,4.3
		c3.1,2.8,4.6,7.8,0.2,10.3c-1.6-1.2-2.9-2.8-4.1-4.4c-1.2-1.9-3-3.4-5.1-4.4c0.1-0.3,0.4-0.9,0.5-1.2
		C216.9,99.5,219.2,94.9,224.1,93z"/>
	<path class="st58" d="M60.3,195.1c0.4-0.1,1.1-0.3,1.5-0.4c2.9,0.4,5.7,0.8,8.6,1.4c-1.1,1.6-4.7,2.6-3.8,4.9
		c-1.2,5.3,3.2,10.7,8.9,9c1.6,2.2,3.2,2.2,4.6-0.2c0.3,0.5,0.8,1.5,1.1,2c0.6,4.6,0.2,9.3-3.5,12.3c-2-0.2-4-0.2-5.8-1.2
		c1.3-1.8,2.8-3.3,4-5.1c-2.9-5.7-6.4,0.2-9.2,3.1c-2.6-1-5.2-2-7.9-2.9c3.6,3.8,8.2,6.3,13.3,7.3c-0.1,4.1-3.7,5.8-7.1,6.8
		c-0.8-0.1-2.4-0.4-3.2-0.5c1.1-1.3,2.3-2.5,3.3-3.8c-3.2-4.4-8.1,0.5-11.3,2.6c-7.8-0.6,5.5,4.1,8.4,3.9c-2.8,3.4-6.4,2.5-9.2-0.3
		c-5.4,6.8-16.3-1.9-16-8.2c0.9-3.8,0.9-8.1,4.1-3.6c4.3,3.4,2.5-3.4,2.3-6.4c2.9-3.5-2.2-6.8,1.4-9.9c1.8-3.7,5.4,4,5.9,1.2
		c-4.6-13.5,9.3,4.8,5.3-7.9c1.9,0.2,3.7,0.7,5.6,0.9C61.1,198.5,59.9,197,60.3,195.1 M59.2,214.8c1.9,3.7,9.7-1.3,7.1-2.4
		c-2.1-1-4.7-2.3-6.5-0.2C56.6,209,56.4,213.3,59.2,214.8 M47,220.9c-1.5,3.9,6.8,9,6.9,4.4C50.3,225.7,49.9,221.3,47,220.9z"/>
</g>
<g id="_x23_442f1bff">
	<path class="st59" d="M144.8,62.8c-0.9-2.1,0.2-3.3,2.2-3.9c4.2,0.1,11.9-0.1,10.4,6.7c0.8,6.1-4.3,10.9-6.5,15
		c-1,0.8-2.1,1.5-3.1,2.3c5.5,3.8,10.6,8.7,12.7,15.2c0.9,3.6,1.4,7.3,1.6,11c-1.4,3-3.8,7.7,0.1,9.7c2.5,0,4.7-1.8,7.1-2.6
		c1.2,0,2.4,0,3.6,0l1,0c-1.6,4.8,11.5-1.4,15-0.2c-2.9,5,4.8,5.8,8.2,5.1c-6.7-1.5-6.7,3-6,7.7c-0.1,0.6-0.2,1.8-0.3,2.4
		c0.2-1.7-0.8-12.7-4.3-7.7c-1.3,5.1-7.9-2.9-6.7,3.7c-0.9-5.6-5.5-2.5-4,2.1c-0.7-1.5-0.1-4.6-2.5-4.2c0.2,3.1-1.3,4.6-4.4,4.3
		c-2.7-2.8,4.8,0.2,3.2-3.4c-2.2,1.1-10.1-2.2-10,2.7c7.8-1.2,0.7,11.7,7.9,11.4c-1.9,1.3-5.4,1.1-3.1,5.1c0.1,0.7,0.4,2.2,0.5,3
		c-3.7,2.5-8.4,0.2-12.2,2.8c-0.1-9.1-1.7,3.6-6.1,0.2c0.2-6.1-8.8-1.7-12.9-1.1c-2.9,3.2,0.9,10.2,4.7,4.9
		c-0.7,1.6-0.4,6.8-3.1,4.3c-7-6.1-17.2-2-25.5-2.2c-0.1-0.5-0.2-1.4-0.3-1.9c0.6-2.7-1.6-3.7-3.7-4.6c-0.5-3.1,1.7-6.4-0.5-9.2
		c-3.4-1.8-1.6,3.9-2.4,6c0.9-5.3-0.4-15.4-8.7-11.6c-6-0.9-2.5,6.2-2.9,9.6c-0.3-7.1-4.6-13.5-11.6-15.2c5.2-1.3,20.2,3,17.2-6.6
		c4-1.8,1.9-4.6-1-6.3c-1.5,4.6-6.1-1.2-3.3,5c-2.5-2.7-5.4-4.4-9.2-3.3c0.8-0.4,1.7-0.9,2.5-1.3c3.4-2.1-0.4-9-3.4-10.6
		c-0.5-0.6-1-1.2-1.5-1.8c3.1-3.1-6.2-15.3-5.4-8.2c-0.5-0.2-1.5-0.8-1.9-1c-0.2-0.5-0.6-1.6-0.8-2.2c-0.2-3.9-3.6-5.1-6.6-6.5
		c-3.8-3.9-6.1-9.1-7.8-14.2c0.5,0,1.4,0,1.9-0.1c2.6,4.8,3.7,12.4,10,13.4c3.4,0.9,7.2,0.7,10.3-1.1c1.5-0.8,3-1.8,4.2-3.1
		c1.3-2,0-4.2-0.2-6.3c-0.3-3.2-0.6-6.4-1.1-9.6c0.8-0.1,1.6-0.1,2.4-0.2c0.7,6.7,1.6,13.4,0.8,20.1c3.8-1,6.6-3.9,9.7-6.1
		c-4.2-4-4.3-9.6-3.9-15c3.6-0.2-0.4,6.2,2,8c2.2,3.3,6,2.9,9.4,2c0.2,0.3,0.6,0.8,0.8,1c-1.8,1.8-3.2,4.9-0.2,6.4
		c0.5,0.2,1.5,0.7,2,0.9c1.3,0.4,4,1.2,5.3,1.6c-2.6,0.8-5.3,1.5-7.6,3c-3.2,3.1-9.7,1.9-11.4,6c-0.8,3.9,0.1,7.7,2,11.1
		c-0.5,1.7-0.6,3.7,0.7,5.1c2.4,6.5,6.6,12.1,12.4,16c-0.5,0.1-1.6,0.4-2.2,0.5c-2.7-3.5-8.7-4.9-6.6,1.4c1.7,5.2,9.1,5.9,12.4,10.1
		c1.7,2.4,1.1-1,1.3-2.2c0.7,3.7,1.4,7.3,2.1,11c3.7-0.1,8.2,0.2,10.6-3.1c0.6-3.3-2.8-6.1-1-9.6c1.1,1.3,2.5,2.4,4,3.2
		c0,2.4-2.5,4.2-1.9,6.8c2.8-1.7,3-5.3,4.2-8.1c-2.6,2.4-0.5,13.2,2.5,6.5c2.5-6,7.9,5.1,9.2-0.6c-1.9-4-4.5-7.7-6-11.9
		c1.8-2.4,5.2-4.6,4.5-7.9c1.2-0.9,2.5-1.8,3.6-2.8c2.5-2.6,4.9-5.6,6.2-9c-5.6-0.1-14.6-1.9-14.2-9.2c0.1-0.4,0.2-1.3,0.3-1.7
		c0.4-0.2,1.2-0.8,1.6-1c0.3-0.3,1-0.9,1.4-1.2c0.4-0.6,1.2-1.7,1.5-2.3c1.4,0.2,0.8,1.2,0.5,2.1c-1.2,2.5-2.5,5.1-3.2,7.8
		c3.8,1.2,9.7,6.2,12.8,1.9c2.4-5.3-3.4-6.5-6.3-8.9c2.3-0.8,4.4,0.7,6.5,1.2c-2.7-4.1-6.2-7.6-9.4-11.3
		c9.8,3.9,11.9,14.2,14.5,23.2c4.5-5.3-1.7-14.4-4.5-19.6c-2.2-2.3-8-9.7-10.1-3.5c-1.2,0.5-2.4,1-3.6,1.4c-2.2-2.1-4.4-4.4-7.3-5.3
		c1.4-0.5,2.9-1,4.3-1.4c0.4-0.1,1.2-0.2,1.6-0.3c1.3,4.9,6-0.9,7.6-2.8c3.8-3.9,10.4-12.5,5-17.4C150,60.5,147.2,62.5,144.8,62.8
		 M101.9,80.2c-4,3.4-8.6,5.9-12.7,9.1c-0.9,4.8-1.9,9.7-2.2,14.6c3.5,1.3,7,3.4,7.6,7.5c2.7,5.3,0.4-6.4-0.1-6.9
		c0.5-4.4-5.3-4.7-5.6-8.3c3.7,2.1,3.6-2.6,5.8-4.4c2.9-3.6,9.5-2,11.3-6.7C104.7,83.5,104,80.3,101.9,80.2 M82.4,89.4
		c-0.8,0.7-4,3.6-1.5,3.6c5.3-1.7-0.3,6.6,5,6.2C85.1,96,88.7,86.3,82.4,89.4 M155,110c3.1,5-7.6,11.8,4.1,10
		C158,117,159.4,109.4,155,110 M149.2,128.1c-0.9,0.4-2.3,3.2-0.3,2.8c7.4-1.4-1.2,13,7.1,11.1c0.7-4.5-5.7-13.4,1.9-12.2
		C158.9,125.4,150.6,129.8,149.2,128.1 M130.4,150.4c-4.9,2.6-17-1.3-17.4,5.6c5.9-0.9,11.8-1,17.7-1.2
		C130.8,153.3,133.5,149,130.4,150.4z"/>
</g>
<g id="_x23_515745ff">
	<path class="st60" d="M174.2,58.9c0.9,1.3,1.9,2.6,3,3.9c-1.4,1.4-2.7,3-4.2,4.3C171.2,64.5,173.9,61.6,174.2,58.9z"/>
</g>
<g id="_x23_7d6c54ff">
	<path class="st61" d="M125.3,62c1.1-0.7,2.2-1.4,3.3-2.1c0.3,4.3,6.3-2,8.2,0.1c-0.5,2.9-1.9,6.6,2,7.5l0.4,0.7
		c-5.7-1.7,0.7,4.2-3.3,6.8c-5.6-1.8-7.8,0.2-7.1,5c-0.5,1.2-1.1,2.7,0.8,1.8c-4.4,1.8,3.8,11.3-1.9,6.5c-5.7-3,1.2-8.9-2-13
		c-1.7-0.1-5.2-0.2-7-0.3c-0.2-5.3,4.8-3.4,8.3-3.1C124.1,69.3,123.4,66.8,125.3,62 M132.2,62.3c-2.2,1.2-5.2,2.8-5.3,5.7
		c2.7,0.1,5.4,0.1,8.2,0C134.4,66.2,135.1,61.3,132.2,62.3z"/>
</g>
<g id="_x23_9e8868ff">
	<path class="st62" d="M144.8,62.8c2.4-0.3,5.2-2.3,7.5-0.9c-1.8,0.5-3.6,1-5.3,1.5c2.8,0.5,8.1,4.3,2.2,2.8c1.3,4,0.7,9.8-4.1,11.1
		c1.2-3.3,3.4-6.3,2.8-10.1c-1.9-2.6-4.9-0.1-7.2,0.6C140.8,65.3,142.9,64,144.8,62.8z"/>
</g>
<g id="_x23_684423ff">
	<path class="st63" d="M88.4,66.1c-1.4-6.2,7.8-3.5,10.3-1.1c-3.6,0.6-1.1,5.6-1.8,8.1c-2.4-1.8,1.6-8.3-2-8c-0.4,5.5-0.3,11,3.9,15
		c-3.1,2.2-5.9,5.1-9.7,6.1C90,79.4,89.1,72.7,88.4,66.1z"/>
</g>
<g id="_x23_b48f5dff">
	<path class="st64" d="M132.2,62.3c2.8-1,2.1,3.9,2.8,5.7c-2.7,0.1-5.4,0.1-8.2,0C127.1,65.1,130,63.5,132.2,62.3z"/>
</g>
<g id="_x23_dfc7a0ff">
	<path class="st65" d="M146.9,63.3c1.8-0.5,3.6-0.9,5.3-1.5c5.4,4.9-1.3,13.5-5,17.4c-1.6,1.9-6.3,7.7-7.6,2.8
		c6.1-0.8-0.1-5.9-0.9-9.1c0.5-1.6,0.9-3.1,1.4-4.7l0.6-0.4c2.2-0.7,5.3-3.1,7.2-0.6c0.5,3.7-1.6,6.8-2.8,10.1
		c4.8-1.3,5.4-7.1,4.1-11.1C155,67.6,149.7,63.8,146.9,63.3z"/>
</g>
<g id="_x23_e1cba4ff">
	<path class="st66" d="M96.9,73.1c0.7-2.6-1.8-7.6,1.8-8.1c1.3,4.2,5.1,6.6,7.6,10.1C102.8,75.9,99,76.4,96.9,73.1z"/>
</g>
<g id="_x23_473e32ff">
	<path class="st67" d="M135.9,74.9c4-2.7-2.3-8.5,3.3-6.8l0.9,0.1c-0.4,1.6-0.9,3.2-1.4,4.7c-0.6,0.7-1.3,1.4-1.9,2.2L135.9,74.9z"
		/>
</g>
<g id="_x23_b2b3b4ff">
	<path class="st68" d="M186,68.8c1.4-1.1,3-0.8,3.7,0.9c2.2,7.1,8.6,12.7,12.2,19.5c0.8,1.2,1.9,2.5,3.5,2.2
		c0.5,0.2,1.4,0.5,1.9,0.7c-1.6,1.9-3.4,4-6.1,4.2c2.7-3.1,1.3-3.5-2.2-2.5c1.1-3.5,1.1-5.8-3-4c2.5-4,2.1-5.9-2.8-3.9
		c2.3-3.1,2.5-6-2.1-4.1c1.5-3.5,0.2-4.3-3.2-3c0.7-2.2,3.8-6.2-0.6-4.4C182.4,76.2,188.4,71.1,186,68.8z"/>
</g>
<g id="_x23_6b6e6dff">
	<path class="st69" d="M201.9,89.2c-3.6-6.8-10-12.4-12.2-19.5c5.4,7.1,11.1,14,15.7,21.7C203.8,91.7,202.6,90.4,201.9,89.2z"/>
</g>
<g id="_x23_7c7e7dff">
	<path class="st70" d="M205.2,69.9c3.1,5.2,8.1,9.7,10.2,15.5c-4.8-3.8-7.8-9.3-11.3-14.3C204.3,70.8,204.9,70.2,205.2,69.9z"/>
</g>
<g id="_x23_83857eff">
	<path class="st71" d="M16.3,75.9c-1.2-1.4-0.1-4.8,1.9-4.4C18.1,73.1,17.4,74.6,16.3,75.9z"/>
</g>
<g id="_x23_7c6c47ff">
	<path class="st72" d="M42.8,71.8c3.8-2,8.4-0.5,12.4,0C51.1,71.8,47,71.8,42.8,71.8z"/>
</g>
<g id="_x23_b69e68ff">
	<path class="st73" d="M17.1,103.7c0.4-15.1,11.8-27.3,25.7-31.9c4.1,0,8.3,0,12.4,0c1.9,0.3,3.8,0.9,5.7,1.2
		c1.7,5.1,4,10.3,7.8,14.2c3,1.3,6.4,2.6,6.6,6.5c0,4.2-0.1,8.4,0,12.6c-0.2,0.6-0.4,1.9-0.6,2.5c-1.6,3.1-3.6,5.9-5.4,8.8
		c-1.1,0.5-2.2,1-3.3,1.4c-14.9-1.2-28.5-8.4-42.9-11.9C21.8,104.6,20.2,102.5,17.1,103.7z"/>
</g>
<g id="_x23_877860ff">
	<path class="st74" d="M136.9,75.1c0.6-0.7,1.3-1.4,1.9-2.2c0.8,3.2,7,8.4,0.9,9.1c-0.4,0.1-1.2,0.2-1.6,0.3
		C141.4,80,139.1,77.1,136.9,75.1z"/>
</g>
<g id="_x23_323a1aff">
	<path class="st75" d="M174.1,84.1c-0.7-4.8-12.2-6.7-6.3-11.2c3.1,4.9,9.7,4.3,14.7,5.7c5.2,2.8,11.2,9.7,4.9,14.5
		c1.6,2.1,6.8,2.9,9.5,5.2c1.8,4.8-6,2.4-6,6.8c-0.8,1.4-2.7,2.6-2.1,4.4c-5.2,1.7-10.1,4-14.9,6.8l-1,0l-0.1-0.8
		c9.5-3.8,8.5-15.8,5.3-23.8C177.1,88.9,175.4,86.6,174.1,84.1z"/>
</g>
<g id="_x23_a18a6aff">
	<path class="st76" d="M108.9,75.5c2.7-0.7,5.5-0.3,8.2-0.4c-5.5,0.3-6.4,1.2-2.1,2.7c-2.5-0.9-7.7,2.3-3.2,3.4
		c2.5,2.5-1.3,1.8-3.1,2c-0.5-0.2-1.5-0.6-2-0.9c3.1,0.3,0.9-1.9,0.3-3.4C107.9,77.8,110.6,77.1,108.9,75.5z"/>
</g>
<g id="_x23_e2c9a0ff">
	<path class="st77" d="M117.2,75.1c0.4-0.1,1.2-0.2,1.6-0.2c1.7,0.1,5.2,0.2,7,0.3c3.2,4.1-3.7,10,2,13c5.7,4.8-2.4-4.6,1.9-6.5
		c1.3,0.8,2.6,1.6,4.1,2.1c2.9,1,5.1,3.2,7.3,5.3c0.3,0.5,0.9,1.4,1.2,1.8c0.3,2.8-2.3,0.8-3.8,0.7c-9.7-1.1-19.6-0.9-29.4-0.3
		c-2.1,0-2.2-1.9-2.6-3.5c2.3-1.5,5-2.2,7.6-3c2.7-0.5,4.8-4.4,7.1-1.2c3.3,3.4,0.9-2.7-0.9-3.6c-1.7-0.9-3.6-1.5-5.3-2.2
		C110.7,76.3,111.6,75.4,117.2,75.1z"/>
</g>
<g id="_x23_d2ba93ff">
	<path class="st78" d="M128.8,80c-0.7-4.8,1.5-6.8,7.1-5l0.9,0.2c2.3,2,4.5,4.9,1.3,7.3c-1.2-0.4-2.3-0.8-3.4-1.2
		C142.3,78.5,131.4,75,128.8,80z"/>
</g>
<g id="_x23_a49376ff">
	<path class="st79" d="M80.8,83.1c1.4-2.9,4.5-4.5,6.3-7.2c0.2,2.1,1.5,4.4,0.2,6.3C87.6,75.5,84.2,83.7,80.8,83.1z"/>
</g>
<g id="_x23_372c1fff">
	<path class="st80" d="M128.8,80c2.6-4.9,13.5-1.4,5.9,1.2c-1.7,0-3.4,0.2-5,0.6C127.7,82.6,128.4,81.2,128.8,80z"/>
</g>
<g id="_x23_796a47ff">
	<path class="st81" d="M155.6,78.3c7-3.8,12.7,2.6,18.5,5.7c1.3,2.5,2.9,4.9,4,7.5c-0.8,8.3-6.7,15.3-5.3,23.8l0.1,0.8
		c-1.2,0-2.4,0-3.6,0c3-7.2-2.1-10.2-4.2-16.4c0,5.5,1.5,10.8,1.8,16.3c-4.7,0.5-1.5-21.3-4.8-6.9c-0.2-3.7-0.8-7.4-1.6-11
		c0.2-1.1,0.5-2.1,0.7-3.2c2.6,0.2,7.1,4,7.2-0.5c0.9-4.4,3.4-0.3,0.6,1.7c3.4,1.4,3,6.8-0.3,2.9c-0.2,10.3,8.7-2.1,5.6-6.3
		c-2.9-5.4-7.6-13.2-14.6-13.1C158.4,79.3,157,78.8,155.6,78.3z"/>
	<path class="st81" d="M77,158.3c11.1-1.6,22.3-5.2,33.5-3.4c-2.2,3.9-10.1,3.8-8.5,9.9c1.9,7.7,7.5,14.7,6,23.2
		c-7.3,2-3.2-8.5-7.6-11.4c-5.1-3.6-3-12.3-8.7-15.4C87.5,159.8,77.9,165.2,77,158.3z"/>
</g>
<g id="_x23_1d1811ff">
	<path class="st82" d="M111.9,81.2c-4.6-1.1,0.7-4.3,3.2-3.4c1.8,0.8,3.6,1.4,5.3,2.2C117.6,80.5,114.7,80.9,111.9,81.2z"/>
</g>
<g id="_x23_726341ff">
	<path class="st83" d="M150.9,80.6c1.3-0.6,2.6-1.4,3.9-2c2.1,3.9,5.7,7,6.1,11.6c-1.6-1.3-3-3.4-5.3-3.6c-2.5-1.4-4.8-3.5-7.9-3.7
		C148.9,82.1,149.9,81.3,150.9,80.6z"/>
</g>
<g id="_x23_af9864ff">
	<path class="st84" d="M154.8,78.6l0.8-0.2c1.4,0.5,2.7,0.9,4.1,1.3c4.4,3.1,8.4,9.2,6.2,14.4c-1.8-1.1-3.5-2.4-5-3.9
		C160.5,85.6,156.9,82.5,154.8,78.6z"/>
</g>
<g id="_x23_2e2a21ff">
	<path class="st85" d="M159.8,79.6c7-0.1,11.7,7.7,14.6,13.1c3.1,4.2-5.8,16.7-5.6,6.3c3.3,3.9,3.7-1.5,0.3-2.9
		c2.8-2.1,0.3-6.2-0.6-1.7c-0.2,4.5-4.7,0.7-7.2,0.5c-1.6-2.9-3.4-5.7-5.5-8.3c2.3,0.2,3.6,2.2,5.3,3.6c1.5,1.5,3.2,2.8,5,3.9
		C168.1,88.8,164.2,82.7,159.8,79.6z"/>
</g>
<g id="_x23_66411fff">
	<path class="st86" d="M101.9,80.2c2.1,0.2,2.8,3.3,4.1,4.9c-1.8,4.7-8.4,3.1-11.3,6.7c-2.1,1.8-2.1,6.5-5.8,4.4
		c0.4,3.6,6.1,3.9,5.6,8.3c0.5,0.5,2.8,12.2,0.1,6.9c-0.6-4.1-4.1-6.2-7.6-7.5c0.3-4.9,1.3-9.8,2.2-14.6
		C93.3,86,97.9,83.6,101.9,80.2z"/>
</g>
<g id="_x23_6f614cff">
	<path class="st87" d="M120.4,80.1c1.8,0.9,4.2,7,0.9,3.6c-2.4-3.2-4.5,0.7-7.1,1.2c-1.3-0.4-4-1.2-5.3-1.6c1.8-0.2,5.6,0.5,3.1-2
		C114.7,80.9,117.6,80.5,120.4,80.1z"/>
</g>
<g id="_x23_766146ff">
	<path class="st88" d="M129.7,81.7c1.6-0.4,3.3-0.6,5-0.6c1.1,0.4,2.3,0.8,3.4,1.2c-1.5,0.4-2.9,0.9-4.3,1.4
		C132.3,83.3,131,82.5,129.7,81.7z"/>
</g>
<g id="_x23_ac9662ff">
	<path class="st89" d="M147.8,82.9c3,0.2,5.3,2.3,7.9,3.7c2.1,2.6,3.9,5.4,5.5,8.3c-0.2,1.1-0.5,2.1-0.7,3.2
		C158.4,91.6,153.3,86.6,147.8,82.9z"/>
</g>
<g id="_x23_897850ff">
	<path class="st90" d="M144.7,87.7c2.1-6.2,7.9,1.2,10.1,3.5c2.7,5.2,9,14.3,4.5,19.6C156.6,101.9,154.5,91.7,144.7,87.7z"/>
</g>
<g id="_x23_534d49ff">
	<path class="st91" d="M215.3,85.4c5.9-2.4,10,3.6,14,7c-1.1,0.3-2.3,0.6-3.4,0.8c-0.4,0-1.3-0.1-1.7-0.2c0-1.6-1.2-3.8-3.1-3
		c-7.6,2.3-12.2,11.6-21.3,10c2.5-2.6,10.7-4.6,8.1-8.5c0.8-2.2,3.3-2.5,5.2-3.2C214,87.5,214.6,86.4,215.3,85.4z"/>
</g>
<g id="_x23_b1a284ff">
	<path class="st92" d="M95.1,93.9c1.7-4.1,8.3-2.9,11.4-6c0.4,1.6,0.5,3.5,2.6,3.5c-2.2,1.9-12.6-0.5-11.5,4
		c0.4,1.5,0.8,2.9,1.1,4.4c-0.2,0.5-0.6,1.6-0.8,2.2C96.3,99.6,95.9,96.6,95.1,93.9z"/>
</g>
<g id="_x23_6a5b3bff">
	<path class="st93" d="M141.1,89.1c1.2-0.4,2.4-0.9,3.6-1.4c3.2,3.7,6.7,7.2,9.4,11.3c-2.2-0.6-4.3-2-6.5-1.2
		c-1.1-0.3-2.2-0.5-3.4-0.8c0.3-0.9,0.9-1.9-0.5-2.1c-0.2-1.4-0.6-2.7-1.4-3.9C142,90.5,141.4,89.6,141.1,89.1z"/>
</g>
<g id="_x23_6b5931ff">
	<path class="st94" d="M82.4,89.4c6.3-3.1,2.7,6.7,3.6,9.7c-5.4,0.4,0.3-7.9-5-6.2C78.5,92.9,81.6,90.1,82.4,89.4z"/>
</g>
<g id="_x23_9f9e9dff">
	<path class="st95" d="M221.1,90c1.9-0.8,3.1,1.4,3.1,3c-1.3-0.1-2.4-0.6-3.4-1.4C220.8,91.2,221,90.4,221.1,90z"/>
</g>
<g id="_x23_8e8374ff">
	<path class="st96" d="M109.2,91.3c9.8-0.6,19.6-0.8,29.4,0.3c1.5,0.1,4.1,2.1,3.8-0.7c0.8,1.2,1.2,2.5,1.4,3.9
		c-0.4,0.6-1.1,1.7-1.5,2.3c0.4-5.3-3.9-2.6-1.4,1.2c-0.4,0.2-1.2,0.8-1.6,1c-0.4-1.7,0.3-4.1-1.1-5.4c-0.5-0.3-1.4-0.8-1.9-1
		c-8.7-1.8-17.7-0.8-26.5-0.8c1.1,0.6,2.2,1.2,3.3,1.8c-3.4-0.7-9.7-0.5-7.2,4.2c-0.4,0-1.2,0-1.6,0.1c1-5.3-3.3-3.8-6.6-2.7
		C96.5,90.8,106.9,93.2,109.2,91.3z"/>
</g>
<g id="_x23_56483cff">
	<path class="st97" d="M109.8,92.1c8.8,0.1,17.8-0.9,26.5,0.8c-6.1,0.7-12.6-1.2-18.5,0.9c-0.9,0.4-1.7,0.8-2.6,1.1
		c-0.5-0.3-1.6-0.8-2.1-1.1C112,93.2,110.9,92.7,109.8,92.1z"/>
</g>
<g id="_x23_b59d68ff">
	<path class="st98" d="M172.9,115.4c-1.4-8.6,4.5-15.6,5.3-23.8C181.4,99.5,182.4,111.6,172.9,115.4z"/>
</g>
<g id="_x23_554d48ff">
	<path class="st99" d="M210.4,99.6c3.3-2.9,6.8-5.5,10.4-7.9c1,0.8,2.1,1.3,3.4,1.4c-4.9,1.9-7.2,6.5-8.8,11.2
		C212.3,105.3,207.4,104.9,210.4,99.6z"/>
</g>
<g id="_x23_8f7f6cff">
	<path class="st100" d="M229.3,92.4c2.8,5.7,12.3,9.9,10.7,17.6c-0.7,4.1,5.8,7.5,1.7,11.2c-0.6,0.7-1.2,1.3-1.8,1.9
		c-1.9,1.3-3.7,2.7-5.5,4.1c-0.3-1.6-0.5-3.1-0.8-4.7c4.4-0.5,10-2.1,6.3-7.7c-2.2,2.5-4.3,5.1-6.3,7.7c-3.5,1.3-3.3,4.7-2.9,7.8
		c0,0.8,0.1,1.6,0.2,2.5c-2.2,0.2-4.7,0.5-6.3-1.3c-1.3-1.2-2.8-2.1-4.3-2.9c-3.9-5.7,4-2.4,7.7-2.6c-0.7-2.4,0-7-3.8-6.1
		c3.2,7-7.8,4.8-9.4,0.1c3.1-2.7,8.4-1.6,11.2-5c1.7,2.7,0.7,8.7,5.1,8c-0.3-3.7-2.9-7.7,0.2-10.8c2,1.4,4.5,4.4,3.9-0.1
		c2.5,3.9,2.1-2.1,3.1-4c2.5-3.6-4.9-10-6.9-5.2c-2.4-2.3-2,2.6-2.6,4c-1.3-1.4-4.8-7.3-5-2.9c-4.7-4.4,2.9-4.8,6.2-4.3
		c2.6-4.6-1.7-5.2-4.2-6.5C227,92.9,228.1,92.7,229.3,92.4z"/>
</g>
<g id="_x23_929090ff">
	<path class="st101" d="M117.9,93.8c5.8-2.1,12.4-0.2,18.5-0.9c-4.9-0.1-8.1,1.3-6.3,6.7c-0.5-0.1-1.5-0.2-2-0.3
		C131.4,91.9,123.2,93.9,117.9,93.8z"/>
</g>
<g id="_x23_f7f8f8ff">
	<path class="st102" d="M136.3,92.9c0.5,0.3,1.4,0.8,1.9,1c0.8,3.7-2.1,5.4-5.3,5.8c-0.7,0-2.1-0.1-2.8-0.1
		C128.2,94.2,131.4,92.8,136.3,92.9z"/>
</g>
<g id="_x23_806f49ff">
	<path class="st103" d="M75.3,93.7c0.2,0.5,0.6,1.6,0.8,2.2c-0.1,3.5,0.2,7-0.8,10.4C75.3,102.1,75.3,97.9,75.3,93.7z"/>
</g>
<g id="_x23_796741ff">
	<path class="st104" d="M78.1,96.9c-0.8-7.1,8.5,5.1,5.4,8.2C81.5,102.5,79.9,99.6,78.1,96.9z"/>
</g>
<g id="_x23_dfc9a2ff">
	<path class="st105" d="M95.1,93.9c0.7,2.7,1.2,5.7,2.8,8.1c0.9,1.4,1.8,2.8,2.7,4.3c0.8,6.1,6.5-0.6,5.1,4.6
		c-0.1,1.1,0.1,2.2,0.2,3.3c-0.2,2.4-1.6,4.8,1.7,5.9c2.1-2.6,5-0.1,7.3,0.7c-9.5,2.4,7.7,5.4,10.5,4.5c-1.6-4.4,7.7-3.3,4.5,0.6
		c3.3-1.3,6.8-2,10.3-2.6c-1.7,4.3-6.2,5.7-10.2,7.3c-1.9-1.2-4.3-1-6.3,0c-4.7-1.2-9.2-2.8-13.7-4.5c-5.8-3.8-10-9.5-12.4-16
		c0.6-1.7,0.8-3.8-0.7-5.1C95.3,101.6,94.4,97.8,95.1,93.9z"/>
</g>
<g id="_x23_d6d7d8ff">
	<path class="st106" d="M97.7,95.3c3.4-1.1,7.7-2.6,6.6,2.7c-0.2,4.8-4,7.9-5.5,1.7C98.4,98.3,98.1,96.8,97.7,95.3z"/>
</g>
<g id="_x23_f3f3f3ff">
	<path class="st107" d="M105.9,98c-2.4-4.7,3.8-4.9,7.2-4.2c0.5,0.3,1.6,0.8,2.1,1.1c0,1.3-0.1,2.7-0.1,4c-0.7,0.8-1.4,1.7-2.1,2.5
		c-1.5-1.1-3.5-1.2-5-0.2C107.3,100.2,106.6,99.1,105.9,98z"/>
</g>
<g id="_x23_b7b6b7ff">
	<path class="st108" d="M115.3,95c0.9-0.4,1.7-0.8,2.6-1.1c0,2.1,0.1,4.2,0.1,6.2c-0.9-0.4-1.9-0.7-2.8-1.1
		C115.2,97.6,115.2,96.3,115.3,95z"/>
</g>
<g id="_x23_f7f7f7ff">
	<path class="st109" d="M117.9,93.8c5.3,0.1,13.6-2,10.2,5.5c-3.4,0.4-6.7,0.8-10.1,0.7C117.9,98,117.9,95.9,117.9,93.8z"/>
</g>
<g id="_x23_dadbddff">
	<path class="st110" d="M140.8,98.3c-2.6-3.8,1.7-6.5,1.4-1.2C141.8,97.4,141.1,98,140.8,98.3z"/>
</g>
<g id="_x23_191810ff">
	<path class="st111" d="M76.1,95.9c0.5,0.2,1.4,0.8,1.9,1c1.8,2.7,3.4,5.6,5.4,8.2c0.5,0.6,1,1.2,1.5,1.8c0.8,3.6,2,7.1,3.4,10.6
		c-0.8,0.5-1.7,0.9-2.5,1.3c-5.3,1.1-6.7,5.5-4.8,10.3c-0.4,3.8-7.5,1.1-10-0.9c-1.3,1.6-2.7,3.1-4.9,2.2c-1.5-1.5-3-3-4.4-4.5
		c-2.5-2.9,0.2-8,4.5-6.9c1.1-0.4,2.2-0.9,3.3-1.4c0.3,3.1-8,6.6,2.4,4.1c3.2-2.7,15.8-3.3,8.2-7.5c5.3-1.6-0.6-5.9-4-4.4
		c-0.3-0.3-0.9-0.8-1.2-1.1c0.1-0.6,0.4-1.9,0.6-2.5C76.3,102.9,76.1,99.3,76.1,95.9z"/>
</g>
<g id="_x23_a3a49fff">
	<path class="st112" d="M7,107c1.2-2.6-0.5-8.5,2.2-10c-0.3,3.3-1,6.6-1.2,10L7,107z"/>
</g>
<g id="_x23_918055ff">
	<path class="st113" d="M144.2,97c1.1,0.3,2.2,0.6,3.4,0.8c2.9,2.3,8.7,3.6,6.3,8.9c-3.1,4.3-9-0.6-12.8-1.9
		C141.7,102.1,143,99.5,144.2,97z"/>
</g>
<g id="_x23_1f1714ff">
	<path class="st114" d="M104.3,98c0.4,0,1.2-0.1,1.6-0.1c0.7,1.1,1.5,2.2,2.2,3.3c1.2,0.1,3.8,0.2,5,0.2c0.7-0.8,1.4-1.7,2.1-2.5
		c0.9,0.4,1.9,0.7,2.8,1.1c5.7-1.1,9.1,2.1,5.1,6.3c-1.8-0.9-3.7-3-5.8-2c-5.1,2.8-11.2,0-16.5,1.9c-0.9-1.4-1.8-2.8-2.7-4.3
		c0.2-0.6,0.6-1.6,0.8-2.2C100.3,106,104.1,102.9,104.3,98z"/>
</g>
<g id="_x23_7b4e42ff">
	<path class="st115" d="M128.1,99.4c0.5,0.1,1.5,0.2,2,0.3c0.7,0,2.1,0.1,2.8,0.1l1.1,0.2c0.4,2.3,2.7,6.5-1,6.1
		c-2.2,0.2,1.5,1.2,2,1.9c-2.4,0.6-8.1,0.5-4,3.4c0,0.4,0,1.3,0,1.7c-0.4,0-1.4,0-1.8,0c-3.3,0.4-8.3-1.6-10.4,2.1
		c-0.8-0.4-1.6-0.8-2.4-1.3c-2.5-1.2-5.9-3.5-8.5-1.6c-0.6,0.6-1.2,1.2-1.7,1.8c-0.2-1.1-0.3-2.2-0.2-3.3c7.2-2.5,13.1,4.5,20.3,0.3
		c4.2-0.1-1.9-3.3-3.1-4.7c3.9-4.1,0.6-7.4-5.1-6.3C121.3,100.1,124.7,99.8,128.1,99.4z"/>
</g>
<g id="_x23_422f26ff">
	<path class="st116" d="M134,99.9c1.2,0.2,2.4,0.4,3.5,0.8c0.1,2.3-0.3,4.7-0.3,7c0.3,0.6,0.9,1.8,1.2,2.4c-0.8,0.1-1.6,0.2-2.4,0.3
		c-0.3-0.6-0.8-1.8-1.1-2.4c-0.5-0.7-4.1-1.7-2-1.9C136.7,106.4,134.4,102.2,134,99.9z"/>
</g>
<g id="_x23_ab9562ff">
	<path class="st117" d="M165.1,99.7c2.2,6.2,7.2,9.2,4.2,16.4c-2.3,0.8-4.6,2.5-7.1,2.6c-3.9-2-1.5-6.6-0.1-9.7
		c3.3-14.3,0.1,7.5,4.8,6.9C166.6,110.6,165.1,105.2,165.1,99.7z"/>
</g>
<g id="_x23_666665ff">
	<path class="st118" d="M108.1,101.2c1.5-0.9,3.5-0.8,5,0.2C111.8,101.4,109.3,101.3,108.1,101.2z"/>
</g>
<g id="_x23_86754eff">
	<path class="st119" d="M137.5,100.7c0.4,0.1,1.1,0.3,1.5,0.4c-0.3,7.3,8.6,9.2,14.2,9.2c-1.3,3.5-3.7,6.4-6.2,9
		c-5.4-2-2.5-11.5-9.8-11.7C137.1,105.3,137.6,103,137.5,100.7z"/>
</g>
<g id="_x23_2e1b11ff">
	<path class="st120" d="M190.9,105c4-1.3,8-4.2,12.3-3.4c-0.3,4-0.1,7.9,0.6,11.6c5.2-0.7,5.2,3.2,6.1,6.8c0.6,0.9,1.4,1.8,2.1,2.7
		c-2.2,4.6-0.9,9.7,4.4,10.2l-0.2,0.7l-0.5,1.1c-0.8,1.2-0.9,2.6-0.7,4c-0.2,3.2-0.6,6.6-2.3,9.3c-1.1,1.7-1.7,3.6-1.8,5.5
		c-0.4,2.2-1.1,4.3-2.2,6.3c-0.6,1.2-0.6,2.5-0.6,3.8c-0.2,0.6-0.7,1.9-0.9,2.6c-7.3-3.4-0.4-10.4-3.1-16.4
		c-1.1-7.7-10.6,0.2-15.1-1.9c-9.1,0.8-13.1,11.4-9.7,19c-3.9-1.9-8.3,4.4-10.4,0.8c5-3.9,3.6-10.6,2.8-17c-7,1.7-14.2,2.1-21,4.8
		c-3-0.8-10.2-1-8.5,3.8c3.2,2.9,4.4,7.1,5,11.2c-0.5,2-1.1,3.9-1.6,5.9c-3.4,3.4-4.3,10.2-9.8,10.6c1.5-1.5,3-3,3.1-5.2
		c2.2-3,5.8-6.9,2.4-10.3c-0.9-3.3-1.6-6.8-3.7-9.5c-4.9-6.4-13.9-3.7-20.7-3.1c-4,0.8-8.8,0.1-12,3.1c-1,2.9,1.6,4.7,3.1,6.7
		c0.4,6.6-3.9-2.6-6.1-4.2c-1.6-6.1,6.3-6,8.5-9.9c0.4,0,1.1,0.1,1.5,0.2c0.1,0.5,0.2,1.4,0.3,1.9c8.3,0.2,18.5-3.8,25.5,2.2
		c2.7,2.5,2.4-2.7,3.1-4.3c2.2-2.2,5.4-2.7,8.2-3.7c4.4,3.4,6-9.3,6.1-0.2c3.7-2.6,8.5-0.3,12.2-2.8c5.1-2.3,6.6,1.9,8.7,5.1
		c2.5-2.2,4.5-5,7.3-6.9c4.2-1.9,10.1-0.9,12.8-5.2c-9.8,1.1-19.6,2.9-29.4,4c-2.3-4,1.2-3.8,3.1-5.1c0.1-1.3,0.1-2.6,0.1-3.9
		c-0.2-1.5-0.5-4.6-0.7-6.1l-0.4-0.6c3.1,0.3,4.7-1.2,4.4-4.3c2.4-0.4,1.7,2.7,2.5,4.2c1.2,3.3-0.4,10.6,4.7,9.4
		c3.8,3,13.8-6.7,2.7-3.2c-4.8,1.2-2.8-5.2-3.4-8.3c-1.2-6.6,5.4,1.4,6.7-3.7c3.6-5,4.5,6,4.3,7.7c-2.3,7,8.9,6.2,11.2,3.9
		c1-2.9-2.2-2-4-2.1c-1,0.4-2.1,0.8-3.1,1.3l-0.1-0.9c-1.5-5.1,5.5-1.5,6.2-4.3c1-3.2-3.2-1.6-5-2c-0.5,0-1.5,0-2,0
		c-1.7-5.2,7.8-0.1,7-4.9c0.4-2-2.7-0.5-3.8-0.9c-3.5,0.7-11.1-0.2-8.2-5.1c4-0.9,13.1-3.2,9.8-8.4c-0.2-6.3-6.9,0.9-9.9,1.8
		C188.2,107.6,190.1,106.4,190.9,105z"/>
</g>
<g id="_x23_ddc9a1ff">
	<path class="st121" d="M204,101.8c7-3.1-0.3,3.6,5.2,5.2c2.1,5.7-1.3,6.6-5.4,6.3C203.9,109.4,204,105.6,204,101.8z"/>
</g>
<g id="_x23_dec69fff">
	<path class="st122" d="M231.3,102.9c2-4.8,9.4,1.6,6.9,5.2c-1,1.9-0.6,7.9-3.1,4c0.6,4.5-1.9,1.5-3.9,0.1
		c-3.1,3.2-0.5,7.2-0.2,10.8c-4.4,0.7-3.3-5.3-5.1-8C229.1,111.7,230.3,107.2,231.3,102.9z"/>
</g>
<g id="_x23_695a44ff">
	<path class="st123" d="M203.2,101.6l0.8,0.2c0,3.8-0.1,7.6-0.2,11.5C203,109.5,202.8,105.6,203.2,101.6z"/>
</g>
<g id="_x23_645647ff">
	<path class="st124" d="M223.8,104c0.1-4.4,3.6,1.6,5,2.9c0.6-1.4,0.2-6.3,2.6-4c-1,4.3-2.3,8.8-5.4,12.1c-2.8,3.4-8.1,2.3-11.2,5
		c1.6,4.7,12.6,6.9,9.4-0.1c3.8-0.9,3.1,3.6,3.8,6.1c-3.7,0.3-11.6-3-7.7,2.6c1.3,2.5-0.1,3-2.2,1.9c1.7-4.9-5.5-8.9-6.4-14.1
		c-2.1-3.8-1.5,1.9-1.7,3.7c-0.9-3.6-0.9-7.5-6.1-6.8c4.2,0.3,7.5-0.6,5.4-6.3c0.6,1,1,2.1,1.4,3.1c0.2,3,2.2,7.5,5.9,6.5
		c11.2,2.8-2.5-6.4,3.4-6.8c1.2,1.6,2.5,3.2,4.1,4.4C228.4,111.8,226.9,106.8,223.8,104z"/>
</g>
<g id="_x23_b46442ff">
	<path class="st125" d="M100.7,106.2c5.4-2,11.4,0.9,16.5-1.9c2.2-1,4,1.1,5.8,2c1.2,1.5,7.3,4.6,3.1,4.7
		c-7.3,4.2-13.1-2.8-20.3-0.3C107.2,105.6,101.4,112.3,100.7,106.2z"/>
</g>
<g id="_x23_897b63ff">
	<path class="st126" d="M97.1,105c1.5,1.3,1.3,3.4,0.7,5.1C96.5,108.7,96.6,106.7,97.1,105z"/>
</g>
<g id="_x23_ae9763ff">
	<path class="st127" d="M188.8,109.4c3-0.9,9.7-8.1,9.9-1.8c3.3,5.2-5.8,7.5-9.8,8.4c-3.5-1.2-16.5,5-15,0.2
		C178.7,113.4,183.6,111.1,188.8,109.4z"/>
</g>
<g id="_x23_9d8859ff">
	<path class="st128" d="M16.8,107.9c-0.2-3.7,3.3-0.1,5,0.4c11.3,5.5,23.7,8.4,35.6,12.6c-10.6-0.1-20.3-4.6-30.2-7.8
		C23.5,111.6,20,109.9,16.8,107.9z"/>
</g>
<g id="_x23_a18c75ff">
	<path class="st129" d="M210.6,110.1c0.7-2.1,2.4-3.6,4.3-4.7c2.1,1,3.8,2.5,5.1,4.4c-5.9,0.3,7.8,9.5-3.4,6.8
		C212.8,117.6,210.8,113.1,210.6,110.1z"/>
</g>
<g id="_x23_55574eff">
	<path class="st130" d="M7,107l1-0.1c0.1,7.7,0.1,15.4,0,23.1l-1,0c0-0.5,0-1.5,0-2c0.1-6.3,0.1-12.7,0-19C7,108.5,7,107.5,7,107z"
		/>
</g>
<g id="_x23_433c2fff">
	<path class="st131" d="M23.1,107.1c14.4,3.5,28,10.8,42.9,11.9c-4.3-1.1-7,4-4.5,6.9c-0.7,0.6-1.3,1.2-2,1.9c-1.3-0.5-3-1.3-2.6,1
		c-11.2-1.2-21.6-4.1-31.8-8.8c0.5-0.6,1-1.2,1.6-1.8c10,4.3,20.8,6.6,31.5,7.8c-10.1-5.5-22.1-6-31.9-12.3l0.7-0.7
		c9.9,3.2,19.6,7.8,30.2,7.8c-11.8-4.2-24.2-7.1-35.6-12.6C22.1,108,22.8,107.4,23.1,107.1z"/>
</g>
<g id="_x23_7a6b48ff">
	<path class="st132" d="M84.9,106.8c3,1.6,6.8,8.4,3.4,10.6C86.9,114,85.7,110.5,84.9,106.8z"/>
</g>
<g id="_x23_293016ff">
	<path class="st133" d="M16.8,107.9c3.3,2.1,6.8,3.8,10.4,5.2l-0.7,0.7c-2.4,0.7-1.3,3.6,0.4,4.5c-0.5,0.6-1.1,1.2-1.6,1.8
		c-0.4,1.7-0.6,3.5-0.9,5.3c-2.3-5.2-3.5,7.3-5.3,8.8C14.9,127.1,15.4,116.3,16.8,107.9z"/>
</g>
<g id="_x23_c0c3c4ff">
	<path class="st134" d="M130.9,111.3c-4.1-2.9,1.6-2.8,4-3.4c0.3,0.6,0.8,1.8,1.1,2.4C134.3,110.7,132.6,111,130.9,111.3z"/>
</g>
<g id="_x23_5f5442ff">
	<path class="st135" d="M137.2,107.7c7.3,0.2,4.4,9.7,9.8,11.7c-1.1,1-2.4,1.9-3.6,2.8c-0.6-0.1-1.6-0.2-2.2-0.2
		c4.6-8.7-9.7,3.4-7.4-3c2.8-0.3,7.7,1.2,4.4-5.2c2,8.1,5.9-3.1,0.2-3.7C138.1,109.5,137.5,108.3,137.2,107.7z"/>
</g>
<g id="_x23_b7b7b4ff">
	<path class="st136" d="M7,128c-1.1-3.8-2.5-15.1,0-19C7.1,115.3,7,121.7,7,128z"/>
</g>
<g id="_x23_512811ff">
	<path class="st137" d="M69.3,117.7c1.8-2.9,3.8-5.8,5.4-8.8c0.3,0.3,0.9,0.8,1.2,1.1c-3.3,4.7-0.9,5.9,4,4.4
		c7.6,4.2-4.9,4.8-8.2,7.5C61.4,124.3,69.6,120.8,69.3,117.7z"/>
</g>
<g id="_x23_d5a335ff">
	<path class="st138" d="M75.9,109.9c3.4-1.6,9.3,2.8,4,4.4C75,115.9,72.6,114.6,75.9,109.9z"/>
</g>
<g id="_x23_7f7f80ff">
	<path class="st139" d="M130.9,111.3c1.7-0.3,3.4-0.6,5.1-0.9c0.8-0.1,1.6-0.2,2.4-0.3c-0.8,1.3-2.2,2.1-3.5,2.8
		c-1.4,0.1-2.7,0.1-4.1,0.2C130.9,112.6,130.9,111.7,130.9,111.3z"/>
</g>
<g id="_x23_bdbdbeff">
	<path class="st140" d="M138.4,110.1c5.7,0.5,1.8,11.8-0.2,3.7c3.2,6.5-1.7,4.9-4.4,5.2l0.3-0.7c3.9,1.2,4.9-5.8,0.9-5.4
		C136.2,112.1,137.6,111.4,138.4,110.1z"/>
</g>
<g id="_x23_708038ff">
	<path class="st141" d="M155,110c4.4-0.5,3,7,4.1,10C147.4,121.8,158,114.9,155,110z"/>
</g>
<g id="_x23_eff0f1ff">
	<path class="st142" d="M107.8,112.2c2.6-1.9,6,0.4,8.5,1.6c-0.2,1.9-0.4,3.8-0.7,5.6C112.9,117.1,109.3,115.4,107.8,112.2z"/>
	<path class="st142" d="M118.7,115.1c2.1-3.7,7-1.7,10.4-2.1c0.5,1.9,0.8,3.9,0.6,6c-3.8,0.9-8,2.2-11-1
		C118.7,117.2,118.7,115.8,118.7,115.1z"/>
</g>
<g id="_x23_a8967cff">
	<path class="st143" d="M106.1,114c0.5-0.6,1.1-1.3,1.7-1.8c1.6,3.3,5.1,4.9,7.8,7.3c3.2,1.9,14,5.9,14.2-0.5c0.1-2-0.2-4-0.6-6
		c0.4,0,1.4,0,1.8,0c-0.2,2.4,0.7,4.4,3.2,5.2l-0.3,0.7c-2.3,6.4,12-5.7,7.4,3c-0.2,0.3-0.6,0.9-0.8,1.2c-3.5,0.6-7,1.3-10.3,2.6
		c3.2-4-6.1-5-4.5-0.6c-2.8,0.9-20-2.2-10.5-4.5c-2.4-0.8-5.2-3.2-7.3-0.7C104.5,118.8,105.8,116.4,106.1,114z"/>
</g>
<g id="_x23_f6f6f7ff">
	<path class="st144" d="M130.9,113c1.4-0.1,2.7-0.1,4.1-0.2c4-0.4,3,6.6-0.9,5.4C131.6,117.5,130.7,115.5,130.9,113z"/>
</g>
<g id="_x23_544e49ff">
	<path class="st145" d="M26.8,118.2c-1.7-0.9-2.8-3.8-0.4-4.5c9.8,6.2,21.8,6.8,31.9,12.3C47.6,124.7,36.8,122.4,26.8,118.2z"/>
</g>
<g id="_x23_a7a8aaff">
	<path class="st146" d="M116.2,113.8c0.8,0.4,1.6,0.9,2.4,1.3c0,0.7,0,2.1,0,2.9c-1.1,0.5-2.1,1-3.2,1.5
		C115.8,117.6,116,115.7,116.2,113.8z"/>
</g>
<g id="_x23_b7a488ff">
	<path class="st147" d="M209.9,120.1c0.2-1.8-0.4-7.5,1.7-3.7c0.9,5.2,8.1,9.2,6.4,14.1c-2.3-2.3-4-5.2-6.1-7.7
		C211.2,121.9,210.5,121,209.9,120.1z"/>
</g>
<g id="_x23_e1cba3ff">
	<path class="st148" d="M233.6,122.6c2.1-2.6,4.1-5.3,6.3-7.7C243.6,120.5,238,122.1,233.6,122.6z"/>
</g>
<g id="_x23_82724cff">
	<path class="st149" d="M98.3,117.1c2.9,1.8,5,4.5,1,6.3c3,9.6-12,5.3-17.2,6.6c-0.3-0.2-0.9-0.7-1.2-0.9c-1.8-4.9-0.5-9.2,4.8-10.3
		c3.8-1.1,6.8,0.6,9.2,3.3C92.2,115.9,96.8,121.7,98.3,117.1z"/>
</g>
<g id="_x23_675a50ff">
	<path class="st150" d="M115.5,119.4c1.1-0.5,2.1-1,3.2-1.5c3,3.2,7.2,1.9,11,1C129.5,125.3,118.7,121.3,115.5,119.4z"/>
</g>
<g id="_x23_504a45ff">
	<path class="st151" d="M25.3,119.9c10.2,4.7,20.6,7.6,31.8,8.8c2.5,5.2-5.7,4.5-8.3,7.1c-9.2,0.7-18.4,2.4-27.6,3.2
		c1-4.6,2.6-9.1,3.3-13.9C24.7,123.4,24.9,121.7,25.3,119.9z"/>
</g>
<g id="_x23_b9a05cff">
	<path class="st152" d="M197.2,121.1c1.1,0.4,4.2-1.1,3.8,0.9c0.8,4.8-8.7-0.3-7,4.9c0.2,1.6,0.6,4.8,0.8,6.4l0.1,0.9
		c-3.8,2.8-3.2-2.5-3.8-5.4C190.5,124.1,190.4,119.7,197.2,121.1z"/>
</g>
<g id="_x23_c1c0c0ff">
	<path class="st153" d="M239.9,123.2c0.6-0.6,1.2-1.3,1.8-1.9c0.5,1,1.9,1.6,2,2.7C242.4,124,240.1,125.3,239.9,123.2z"/>
</g>
<g id="_x23_281c11ff">
	<path class="st154" d="M141.2,121.9c0.5,0.1,1.6,0.2,2.2,0.2c0.7,3.4-2.7,5.6-4.5,7.9c-4.2-1.4-4.7,3-5.7,6
		c-1.2,2.7-1.4,6.4-4.2,8.1c-0.6-2.6,1.9-4.4,1.9-6.8c-1.5-0.8-2.9-1.9-4-3.2c-2.3-3.2-12.6-3.2-11.7,1.7c-0.2,1.2,0.4,4.6-1.3,2.2
		c-3.4-4.2-10.7-4.9-12.4-10.1c2.2-0.4,4.4-0.9,6.6-1.4c0.6-0.1,1.6-0.4,2.2-0.5c4.5,1.7,9,3.2,13.7,4.5c2.4,1.4,4.5,1.4,6.3,0
		c3.9-1.6,8.5-3,10.2-7.3C140.5,122.9,140.9,122.3,141.2,121.9z"/>
</g>
<g id="_x23_958459ff">
	<path class="st155" d="M101.4,127.9c-2.1-6.3,4-4.9,6.6-1.4C105.9,127.1,103.7,127.5,101.4,127.9z"/>
</g>
<g id="_x23_563e27ff">
	<path class="st156" d="M211.9,122.8c2.1,2.5,3.7,5.4,6.1,7.7c2.2,1.1,3.5,0.7,2.2-1.9c1.5,0.8,3,1.8,4.3,2.9
		c-0.3,2.2-3.3,1.2-4.8,1.5c-1.1-0.1-2.3-0.1-3.4-0.1C211,132.6,209.8,127.4,211.9,122.8z"/>
</g>
<g id="_x23_dbc49dff">
	<path class="st157" d="M230.7,130.4c-0.4-3.1-0.6-6.5,2.9-7.8c0.3,1.6,0.5,3.2,0.8,4.7C233.3,128.5,232,129.4,230.7,130.4z"/>
</g>
<g id="_x23_3a3532ff">
	<path class="st158" d="M234.4,127.3c1.8-1.5,3.6-2.8,5.5-4.1c0.2,2.2,2.5,0.9,3.8,0.8c1.2,0.2,2.1,1,2.7,2.3
		c-2.9,2.7-15,6.2-7.2,8.7c-2.8,2.7-6.2,0.3-8.3-2c-0.1-0.8-0.2-1.6-0.2-2.5C232,129.4,233.3,128.5,234.4,127.3z"/>
</g>
<g id="_x23_bfa75fff">
	<path class="st159" d="M175.7,129.2c-1.4-4.6,3.1-7.7,4-2.1c0.5,3-1.4,9.5,3.4,8.3c11.1-3.4,1.1,6.2-2.7,3.2
		C175.4,139.9,176.9,132.6,175.7,129.2z"/>
</g>
<g id="_x23_c9b149ff">
	<path class="st160" d="M59.6,127.8c0.6-0.7,1.3-1.3,2-1.9c1.5,1.5,2.9,3,4.4,4.5C65.8,133.6,61.5,128.4,59.6,127.8z"/>
</g>
<g id="_x23_cab164ff">
	<path class="st161" d="M162,128.6c0-4.9,7.8-1.6,10-2.7c1.6,3.6-5.9,0.6-3.2,3.4l0.4,0.6c0.2,1.5,0.5,4.6,0.7,6.1
		c0,1.3,0,2.6-0.1,3.9C162.7,140.4,169.8,127.5,162,128.6z"/>
</g>
<g id="_x23_5a5451ff">
	<path class="st162" d="M246.3,126.2c5.2,1.4-4.3,7.5-7.2,8.7C231.3,132.4,243.4,128.8,246.3,126.2z"/>
</g>
<g id="_x23_3a2717ff">
	<path class="st163" d="M57,128.8c-0.4-2.2,1.2-1.4,2.6-1c1.8,0.6,6.2,5.8,6.4,2.6c2.2,0.9,3.7-0.6,4.9-2.2c2.6,1.9,9.6,4.7,10,0.9
		c0.3,0.2,0.9,0.7,1.2,0.9c7,1.7,11.4,8.1,11.6,15.2c-0.3,6.7,8.3,5.9,11.6,2c0.8-2.1-1-7.8,2.4-6c2.2,2.8,0,6.1,0.5,9.2
		c2.1,0.9,4.3,1.8,3.7,4.6c-0.4,0-1.1-0.1-1.5-0.2c-11.2-1.8-22.4,1.8-33.5,3.4c0.9,7,10.4,1.6,14.7,3c5.6,3,3.5,11.8,8.7,15.4
		c4.5,2.9,0.3,13.4,7.6,11.4c1.5-8.6-4-15.6-6-23.2c2.2,1.6,6.6,10.8,6.1,4.2c1.5,2.2,1.8,4.9,2.2,7.5c-6.2,2.6,3.1,14.6-3.4,17.5
		c-6-3-5.5-13.2-11.9-16.2c-1.8-4.6-2.4-9.6-5.1-13.8c-4,1.8-9.3,0.5-12.7,3.3c-0.4,4.5-0.9,9-1.3,13.5c-0.9,0.4-1.9,0.8-2.8,1.2
		c0.5-2.8,1-5.6-0.2-8.3c-4.2-3.6-5.2,6.8-5.1,9c-1.2,3.3-2.4,7.8-6.8,7.6c1.5,2.6,6.5,3.4,0.8,4.3c-0.4,0.1-1.1,0.3-1.5,0.4
		c0.3-2.8-0.8-6.5-4.1-6.5c-4.7-2.5-1.6,7.5-6.1,6c-0.4-4.5,4.2-8.4,1.2-12.6c0.2-0.5,0.6-1.5,0.8-2l0.9-0.2c2.1,1.4,1.3,3.8,1.2,6
		c1.9,0.6,3.9,1.1,5.9,1.3c-0.5-2.7-2.1-5.4-0.3-7.9c-6.1-2.7,2.2-14.9-5.4-18.6c-0.2-2.1-1.3-3.7-3.3-4.6c7.7,0.3-4.4-5.5-0.5-9.3
		c1.4-3.4,5.1-2.9,6.7,0.1c2.8,3.4-2.9,5.9-2.4,9.4c3.1,0,4.7-2.9,6-5.2c3.1,6.9,3.4-7.6,1.9-9c1.3,3.9,1.1,8.4,3.3,12
		c3,1.2,1.3-3.2,2-4.8c4.9-1.4,6.6,0,5,4c5.8,1.6,3-3.2,1.2-6.1c1.4-3.9,0.3-7.9-4.4-8.1c-1.7,0.2-3.4,0.6-5,1.2
		c-0.8,0.6-1.5,1.1-2.2,1.8c-3.2-0.3-8.4-2.6-9.4-4.5c5.3-3.8-1.8-1.3-4.8-1.5C51.3,133.2,59.5,133.9,57,128.8 M79.1,139.1
		c1,3.6,1,7.2,0.9,10.9c-0.9,4.6,10.7,1.6,11,1c1.9-4.9-4.6-2.9-6.3-0.9c-2.8-3.6,1.5-4.1,3.7-5.2l1.1-0.3c2.7-2.3-3.3-4.2-4.3-1.9
		l-1.3,0.4c-0.3-1-0.6-2-0.9-3.1c2.3-0.4,6.8,0.9,7-1.9C87.2,135.3,82,137.5,79.1,139.1 M58.8,160.9l0.3,0.9c1,3-0.9,8.4,3.5,8.6
		c1.9,0.8,7.4,2.8,6.8-0.2c1.2-1.8,6.4-5.1,3.4-6.5C71.1,156.6,63.1,160.2,58.8,160.9z"/>
</g>
<g id="_x23_846c3dff">
	<path class="st164" d="M194,126.9c0.5,0,1.5,0,2,0c-2.7,3.5,2.1,2.1,5,2c-0.6,2.8-7.6-0.8-6.2,4.3
		C194.6,131.7,194.2,128.5,194,126.9z"/>
</g>
<g id="_x23_cdbc6bff">
	<path class="st165" d="M196,126.9c1.8,0.4,6-1.2,5,2C198.1,129.1,193.3,130.5,196,126.9z"/>
</g>
<g id="_x23_c6ab60ff">
	<path class="st166" d="M149.2,128.1c1.4,1.7,9.7-2.7,8.7,1.7c-7.7-1.2-1.2,7.7-1.9,12.2c-8.3,1.9,0.3-12.5-7.1-11.1
		C147,131.3,148.3,128.5,149.2,128.1z"/>
</g>
<g id="_x23_846d3dff">
	<path class="st167" d="M191.1,128.8c0.6,2.9,0,8.2,3.8,5.4c1-0.4,2-0.9,3.1-1.3c-2.5,3.1,2.1,1.9,4,2.1c-2.2,2.3-13.5,3.1-11.2-3.9
		C190.9,130.6,191.1,129.4,191.1,128.8z"/>
</g>
<g id="_x23_a3a4a0ff">
	<path class="st168" d="M7,130l1,0c0.2,3.6,0.7,7.3,1.2,10.9C5.8,140.2,8.5,132.3,7,130z"/>
</g>
<g id="_x23_6a5f4cff">
	<path class="st169" d="M123.9,130.5c2-1,4.3-1.2,6.3,0C128.4,131.9,126.3,131.9,123.9,130.5z"/>
</g>
<g id="_x23_e0c96fff">
	<path class="st170" d="M133.1,136.1c1-3,1.5-7.4,5.7-6c1.5,4.2,4.1,7.9,6,11.9c-1.3,5.7-6.7-5.4-9.2,0.6
		C132.6,149.3,130.5,138.6,133.1,136.1 M136,134.9c0.4,1.2-1.1,4.4,1,4.1C140.7,140.2,139,133.9,136,134.9z"/>
</g>
<g id="_x23_7c6035ff">
	<path class="st171" d="M169.3,130c0.2,1.5,0.5,4.6,0.7,6.1C169.8,134.6,169.4,131.5,169.3,130z"/>
</g>
<g id="_x23_cfb865ff">
	<path class="st172" d="M115.1,135.8c-1-4.8,9.3-4.8,11.7-1.7c-1.8,3.4,1.6,6.3,1,9.6c-2.4,3.3-6.9,3-10.6,3.1
		C116.6,143.1,115.8,139.5,115.1,135.8 M119,135c-1,3.1,1.3,3.5,3.8,2.8C126.3,134.9,121.5,134.5,119,135 M118.9,140
		c0.5,2.2,1.2,5,4.1,4C127.8,143.5,122.5,135.9,118.9,140z"/>
</g>
<g id="_x23_d8c16eff">
	<path class="st173" d="M198,132.9c1.8,0.1,5-0.8,4,2.1C200.1,134.8,195.5,136.1,198,132.9z"/>
</g>
<g id="_x23_8a8988ff">
	<path class="st174" d="M216.4,133c1.1,0,2.3,0,3.4,0.1c0.1,1.6-2.8,1.6-3.6,0.7L216.4,133z"/>
</g>
<g id="_x23_d4ba68ff">
	<path class="st175" d="M96.7,135.6c8.3-3.8,9.6,6.4,8.7,11.6c-3.3,3.9-11.9,4.7-11.6-2C94.2,141.9,90.7,134.7,96.7,135.6 M97,138
		c0,3-0.2,6.2,1.2,8.9C104.7,148.7,103,135.3,97,138z"/>
</g>
<g id="_x23_4b381eff">
	<path class="st176" d="M119,135c2.5-0.5,7.2-0.2,3.8,2.8C120.3,138.5,118,138.1,119,135z"/>
</g>
<g id="_x23_775b32ff">
	<path class="st177" d="M136,134.9c3-1,4.7,5.3,1,4.1C134.9,139.4,136.4,136.1,136,134.9z"/>
</g>
<g id="_x23_8e8f8aff">
	<path class="st178" d="M215,138.8c-0.2-1.4-0.1-2.8,0.7-4C216.6,135.8,216.8,138.9,215,138.8z"/>
</g>
<g id="_x23_c5a95fff">
	<path class="st179" d="M79.1,139.1c2.9-1.7,8.1-3.9,10.7-1c-0.2,2.9-4.7,1.6-7,1.9c-3.7,0.7,4,14.2-2.8,10
		C80.1,146.4,80.1,142.7,79.1,139.1z"/>
</g>
<g id="_x23_4b2f19ff">
	<path class="st180" d="M97,138c6-2.7,7.7,10.7,1.2,8.9C96.8,144.2,97,141,97,138z"/>
</g>
<g id="_x23_856739ff">
	<path class="st181" d="M65.1,140.1c1.6-0.6,3.3-1,5-1.2c-3.9,3-0.1,2.7,2.1,4.2c-2.6-0.3-5-0.1-4.3,3.2
		C66.8,144.2,66,142.1,65.1,140.1z"/>
</g>
<g id="_x23_caaf61ff">
	<path class="st182" d="M70,138.8c4.7,0.2,5.7,4.2,4.4,8.1c-3.2-0.3-5.3,0.4-6.2,2.1c-0.6,1.6,1,6-2,4.8c-2.2-3.6-2-8.1-3.3-12
		c0.7-0.7,1.5-1.2,2.2-1.8c0.9,2.1,1.8,4.2,2.8,6.2c2,0.2,4.6-0.7,4.3-3.2C69.9,141.6,66.1,141.8,70,138.8z"/>
</g>
<g id="_x23_816537ff">
	<path class="st183" d="M80,150.1c6.9,4.3-0.8-9.3,2.8-10c0.3,1,0.6,2,0.9,3.1c-0.1,2.7,2.9,1.6,4.6,1.8c-2.2,1.1-6.5,1.6-3.7,5.2
		c1.6,0.2,4.7,0.7,6.3,0.9C90.7,151.7,79,154.7,80,150.1z"/>
</g>
<g id="_x23_593f22ff">
	<path class="st184" d="M118.9,140c3.7-4.1,8.9,3.4,4.1,4C120,145,119.3,142.3,118.9,140z"/>
</g>
<g id="_x23_49443eff">
	<path class="st185" d="M166.8,145.2c9.8-1.2,19.6-2.9,29.4-4c-2.8,4.3-8.7,3.3-12.8,5.2c-2.8,1.9-4.8,4.7-7.3,6.9
		c-2.1-3.2-3.6-7.4-8.7-5.1C167.2,147.4,166.9,145.9,166.8,145.2z"/>
</g>
<g id="_x23_cab465ff">
	<path class="st186" d="M49.2,143.2c5.5-4.7,12.4,1.5,11.7,7.7c-1.3,2.4-2.9,5.2-6,5.2c-0.6-3.5,5.2-5.9,2.4-9.4
		c-1.6-2.9-5.3-3.5-6.7-0.1c-3.9,3.8,8.2,9.6,0.5,9.3C46.8,153.8,45,146.2,49.2,143.2z"/>
</g>
<g id="_x23_8c6e3dff">
	<path class="st187" d="M85.1,142.8c1-2.3,7-0.4,4.3,1.9C88.5,143.1,86.7,142.9,85.1,142.8z"/>
</g>
<g id="_x23_b69e69ff">
	<path class="st188" d="M13.8,153.1c2.4-3.1,3.2-8.9,7.1-10c-0.8,2.6-0.5,4.9,0.9,6.9l0.4,0.7c0.1,1.6,0.4,4.8,0.6,6.4l0.5,0.7
		c0.1,1.6,0.3,4.8,0.4,6.3c1.5,0.9,3.3,0.6,5,0.7c1.6,3.1,4.3,0,6.5-0.7c1.9-0.4,3.8-0.8,5.8-1.1c1.2,2.2,2.4,4.4,3.1,6.8
		c-3.3,0-6.6-0.1-9.9-0.3c2.3-3.7-3.8-3.6-2,0.1c2.7,5.1,10.7-0.1,13,4c-5.6,0-2.2,7.6,1.6,7.3c4.3,1.9,0.8,8,2,11.3
		c-5.5-7.9-15.7-0.1-21.1,4.8c5-1.2,9.1-5,14.1-6c1.5,0.6,6.6,1.1,4,3.3c-5-0.7-18.7,2-15.8,9.7c-2-0.1-6.7,0-6.7-1.9
		c0.9-1.7,5.5-3.4,2.2-4.8c-9.6-2.1-6.6-14.2-12-20.2C12.1,169.3,13.3,161.1,13.8,153.1z"/>
</g>
<g id="_x23_675538ff">
	<path class="st189" d="M20.9,143.1c2.3,0.8,2.6,3.2,0.9,6.9C20.4,148,20.2,145.7,20.9,143.1z"/>
</g>
<g id="_x23_321e10ff">
	<path class="st190" d="M67.9,146.2c-0.7-3.3,1.6-3.5,4.3-3.2C72.4,145.5,69.9,146.4,67.9,146.2z"/>
</g>
<g id="_x23_e5cb71ff">
	<path class="st191" d="M83.8,143.2l1.3-0.4c1.6,0.2,3.4,0.4,4.3,1.9l-1.1,0.3C86.6,144.7,83.7,145.8,83.8,143.2z"/>
</g>
<g id="_x23_9c854bff">
	<path class="st192" d="M32.3,144.6c-1.2-1.4,2.8-0.3,3.7-0.6c-2.5,3.1,2.5,1,3.2,3c-3-0.4-5.2,0.1-3.5,3.4c0.1,0.4,0.2,1.1,0.3,1.4
		c-0.3,0.4-0.9,1.1-1.2,1.4C33.5,150.7,35.4,146.1,32.3,144.6z"/>
</g>
<g id="_x23_cab466ff">
	<path class="st193" d="M36,144c5-1.6,7.3,2.4,5.3,6.6c4.7,0.7,2.4,8-1.5,7.4c-1.6-0.2-3.3-0.1-4.8,0.5c-2.7,1.5-3.3-1.8-2.7-3.8
		c-0.4-3.2-3.3-8.6-0.1-10.2c3,1.5,1.1,6.1,2.4,8.6c-0.1,3.2,5,4,5.3,0.7c1.1-2.8-2.4-1.8-4-2.1c-0.1-0.4-0.2-1.1-0.3-1.4
		c1.3-1,3.5-1.4,3.5-3.4C38.5,145,33.4,147.1,36,144z"/>
</g>
<g id="_x23_847d7cff">
	<path class="st194" d="M189,148.1c4.5,2.1,14-5.8,15.1,1.9c2.7,6-4.2,13,3.1,16.4c3.5,6.5,1.4,16-6.1,18.7
		c-4.5,3.4-10.4,0.5-15.2,2.6c-4.8,1.9-3.4-4.8-4.5-7.9c-1.4-3-1.5-5.9,1.3-8.1c-0.9-1.7-2.2-3.1-3.3-4.6
		C175.9,159.5,179.9,148.9,189,148.1 M199.3,149.4c-2.8,0.8-5.8,0.6-8.6,0.8c3.1,2.6,8.2,2.9,9.6,7.4c0.1,2.1,3.9,3.6,2.4,0.4
		C201,155.3,204.5,147.1,199.3,149.4 M187.3,150.3c-5.6,2.4-9.4,9.1-6.7,15.1c3.2,7.4,12.9,6,18.3,10.8c3.2,5.2-4.6,4.5-2.9,8.9
		c6.4-1,11.7-7.3,10.7-13.8c-1.1-8.7-11.2-9.5-17.7-12.3C183,156.7,195,149.2,187.3,150.3 M190.2,154.1c-3.7,4.3,5.7,6,8.9,5.9
		C198.5,156.3,193.9,153.3,190.2,154.1 M185.8,173.2c1.5,4.4,6.1,10.2,11.1,6.6C198,174,189.5,175.1,185.8,173.2 M181.9,174
		c0.1,4.2,3.9,7.6,2.2,12.2c3-1.9,6.3-2.7,9.9-1.2c-0.4-3.2-5.2-2.7-6.4-5.7C185.6,177.8,185.1,173.7,181.9,174z"/>
</g>
<g id="_x23_352b18ff">
	<path class="st195" d="M35.7,150.4c-1.7-3.3,0.4-3.8,3.5-3.4C39.2,149,37,149.4,35.7,150.4z"/>
</g>
<g id="_x23_967944ff">
	<path class="st196" d="M74.4,146.9c1.8,2.9,4.6,7.7-1.2,6.1c1.5-4-0.1-5.4-5-4C69.1,147.3,71.2,146.6,74.4,146.9z"/>
</g>
<g id="_x23_caac60ff">
	<path class="st197" d="M84.6,150.2c1.7-2,8.2-4,6.3,0.9C89.4,150.9,86.2,150.4,84.6,150.2z"/>
</g>
<g id="_x23_887951ff">
	<path class="st198" d="M136.2,150c4.1-0.6,13.1-5,12.9,1.1c-2.8,1-6,1.5-8.2,3.7C137.1,160.2,133.2,153.2,136.2,150z"/>
</g>
<g id="_x23_989994ff">
	<path class="st199" d="M210.9,153.7c0.1-1.9,0.7-3.9,1.8-5.5C213.8,149.9,213.1,153.4,210.9,153.7z"/>
</g>
<g id="_x23_141212ff">
	<path class="st200" d="M199.3,149.4c5.2-2.4,1.6,5.9,3.4,8.7c1.4,3.1-2.3,1.7-2.4-0.4c-1.4-4.5-6.4-4.9-9.6-7.4
		C193.5,150,196.6,150.2,199.3,149.4z"/>
</g>
<g id="_x23_776946ff">
	<path class="st201" d="M130.4,150.4c3.2-1.4,0.5,2.9,0.4,4.4c-5.9,0.2-11.8,0.3-17.7,1.2C113.3,149.1,125.4,153.1,130.4,150.4z"/>
</g>
<g id="_x23_1a0d0aff">
	<path class="st202" d="M187.3,150.3c7.7-1.1-4.3,6.4,1.7,8.8c6.5,2.7,16.6,3.6,17.7,12.3c1.1,6.4-4.3,12.8-10.7,13.8
		c-1.7-4.4,6.1-3.7,2.9-8.9c-5.4-4.8-15.1-3.4-18.3-10.8C177.8,159.4,181.6,152.7,187.3,150.3z"/>
</g>
<g id="_x23_6b6351ff">
	<path class="st203" d="M12.2,150.9c0.5,0.8,1.1,1.5,1.6,2.3c-0.5,8-1.7,16.1-0.2,24.1c5.4,6,2.4,18.1,12,20.2
		c3.3,1.5-1.3,3.1-2.2,4.8c-5.2-3.8-6.9-10.6-8.1-16.6c-0.5-3.7-5.1-5.6-4.4-9.6c0-3.7,0.1-7.4,0-11
		C11.1,160.3,11.9,155.6,12.2,150.9z"/>
</g>
<g id="_x23_695839ff">
	<path class="st204" d="M22.2,150.8c0.1,1.6,0.4,4.8,0.6,6.4C22.6,155.6,22.3,152.4,22.2,150.8z"/>
</g>
<g id="_x23_847c7bff">
	<path class="st205" d="M150.9,155.8c6.7-2.7,14-3.1,21-4.8c0.8,6.4,2.1,13.1-2.8,17c-1.6,8.6,8.3,6.3,7.9,14.3
		c-0.2,2.3,2.6,6.2-0.2,7.4c-9.2,0.6-18.3,3-27.4,4.2c-0.9-0.9-2.9-2-2-3.6c2.7-6.1,2.1-13.2,0.1-19.4c-0.6-4.2-1.8-8.3-5-11.2
		C140.7,154.8,147.8,155,150.9,155.8 M168.3,154.4c-3,1.8-10.9-2.1-9.3,3.4c6.1-1.8,8,4.5,12,6.3
		C169.3,161.5,172.2,153.2,168.3,154.4 M143.8,158.1c0.4,2.6,4.4,2.8,4.2,5.8c1.7,8.7,5.9,18.8,0.9,27.1c4.3-0.6,8.7-1.2,13.1-1.2
		c-1-7.2-3.5-14.2-4.4-21.5c-0.2-3.8,2.1-10.4-0.7-12.4C152.8,157.8,148.4,158.7,143.8,158.1 M160.1,160c-0.2,3-0.1,6,0,9.1
		c3.5,0.3,1.9-5.1,5-6.1C167.9,160.4,161.9,159.7,160.1,160 M165.3,165.2c0.2,3.3-4.2,4.6-4.1,7.5c3.8,0.4,4.5,5.1,7.8,5.4
		C167.5,174.2,167.7,166.3,165.3,165.2 M160.9,175c0.4,3.5,1.5,6.9,3.2,10c2.8-0.1,4.1-3.1,5.9-4.8C165.2,181.7,165.1,175,160.9,175
		 M172.1,178.1c-1.5,3.7-3,7.5-6.9,9.2c-1,4.5,8.1-1.9,9.8,0.6C174.3,184.9,175.9,178.2,172.1,178.1z"/>
</g>
<g id="_x23_382e1aff">
	<path class="st206" d="M34.7,153.2c0.3-0.3,0.9-1.1,1.2-1.4c1.6,0.4,5.1-0.7,4,2.1C39.7,157.2,34.6,156.4,34.7,153.2z"/>
</g>
<g id="_x23_1b1918ff">
	<path class="st207" d="M168.3,154.4c3.9-1.2,1,7.1,2.7,9.7c-4-1.8-5.9-8.1-12-6.3C157.5,152.3,165.3,156.2,168.3,154.4z"/>
</g>
<g id="_x23_2a1716ff">
	<path class="st208" d="M190.2,154.1c3.7-0.9,8.3,2.2,8.9,5.9C195.9,160.1,186.5,158.4,190.2,154.1z"/>
</g>
<g id="_x23_190a08ff">
	<path class="st209" d="M143.8,158.1c4.6,0.6,9-0.3,13.1-2.2c0.2,4.1,0,8.3,0.7,12.4c0.9,7.3,3.4,14.3,4.4,21.5
		c-4.4,0-8.7,0.5-13.1,1.2c5-8.2,0.8-18.3-0.9-27.1C148.3,160.9,144.3,160.8,143.8,158.1z"/>
</g>
<g id="_x23_514e4eff">
	<path class="st210" d="M156.9,155.9c2.8,2,0.6,8.7,0.7,12.4C156.9,164.2,157.1,160,156.9,155.9z"/>
</g>
<g id="_x23_6d5b3cff">
	<path class="st211" d="M23.2,157.9c0.1,1.6,0.3,4.8,0.4,6.3C23.6,162.6,23.4,159.4,23.2,157.9z"/>
</g>
<g id="_x23_725e35ff">
	<path class="st212" d="M35,158.5c1.5-0.6,3.2-0.7,4.8-0.5C39.6,160,36.2,159.6,35,158.5z"/>
</g>
<g id="_x23_847b7aff">
	<path class="st213" d="M117.1,159.1c6.8-0.6,15.8-3.4,20.7,3.1c2.1,2.8,2.8,6.2,3.7,9.5c-1.8,7.3-8.1,12-15.4,12.7
		c-3.8,5.8,8.4,7.6,3.7,12.4c-4.4,2.5-10.4,0.5-15.2,2.8c-2,1-5.3,0.3-4.6-2.5c2.9-6.6,1.9-13.8,0.3-20.6c-0.4-2.6-0.7-5.3-2.2-7.5
		c-1.5-2-4.1-3.9-3.1-6.7C108.3,159.2,113.2,159.9,117.1,159.1 M123.2,160.1c-2,0.9-0.7,2.3,0.8,2.9c4.5,3.5,7.8,14.1,1.2,17.2
		c3,4.4,11.5-1.6,13.2-5.9C141.9,165.5,131.8,157.1,123.2,160.1 M115.4,161.4c-2.1,0.4-12.2,1.2-6.2,4.4c3.7,9.7,7.5,22,2.7,32.2
		c5.6-1.4,11.6-2.9,16.9-3.2c-8.6-7.5-5.3-23.9-9.1-33.8L115.4,161.4 M123,165c1.3,3.2-1.7,12,3,12C123.6,174.6,128.2,164.4,123,165
		z"/>
</g>
<g id="_x23_79873fff">
	<path class="st214" d="M58.8,160.9c4.3-0.7,12.2-4.3,14.1,2.8C67,171.1,65.9,158.4,58.8,160.9z"/>
</g>
<g id="_x23_1d110dff">
	<path class="st215" d="M123.2,160.1c8.5-3.1,18.6,5.4,15.1,14.2c-1.7,4.3-10.2,10.3-13.2,5.9c6.6-3.1,3.3-13.8-1.2-17.2
		C122.5,162.5,121.3,161.1,123.2,160.1z"/>
</g>
<g id="_x23_2a1211ff">
	<path class="st216" d="M160.1,160c1.8-0.3,7.8,0.4,5,3c-3.1,0.9-1.5,6.3-5,6.1C160,166,159.8,163,160.1,160z"/>
</g>
<g id="_x23_999090ff">
	<path class="st217" d="M208.1,163.7c0.1-1.3,0-2.6,0.6-3.8c2.3,6.2,7.3,15.9,1.3,21C210.9,175.2,212.2,168.6,208.1,163.7z"/>
</g>
<g id="_x23_534e48ff">
	<path class="st218" d="M49.6,165.3c-2.2-3.6,2.3-3.8,4.7-4.8c7.7,3.6-0.7,15.9,5.4,18.6c-1.8,2.6-0.2,5.2,0.3,7.9
		c-2-0.2-4-0.6-5.9-1.3c0.2-2.1,1-4.5-1.2-6c6.6,1.6-1-6.2,0,0l-0.9,0.2C51.4,175.1,51.7,170,49.6,165.3z"/>
</g>
<g id="_x23_ecd983ff">
	<path class="st219" d="M58.8,160.9c7-2.5,8.2,10.2,14.1,2.8c3,1.4-2.2,4.8-3.4,6.5c-3.6-2.6-7.2-5.3-10.3-8.4L58.8,160.9z"/>
</g>
<g id="_x23_25130fff">
	<path class="st220" d="M115.4,161.4l4.4-0.4c3.8,9.9,0.4,26.3,9.1,33.8c-5.4,0.3-11.4,1.7-16.9,3.2c4.8-10.1,0.9-22.4-2.7-32.2
		C103.2,162.6,113.3,161.9,115.4,161.4z"/>
</g>
<g id="_x23_eebb48ff">
	<path class="st221" d="M59.2,161.8c3.1,3.2,6.7,5.8,10.3,8.4c0.6,2.9-4.9,1-6.8,0.2C58.3,170.2,60.2,164.8,59.2,161.8z"/>
</g>
<g id="_x23_67593bff">
	<path class="st222" d="M41,163.1c5-1.4,5.1,4.9,6.8,8.1c0.9,2.4-0.3,3.2-2.6,2.6c-2.4-4.1-10.3,1.1-13-4c-1.8-3.7,4.2-3.8,2-0.1
		c3.3,0.1,6.6,0.2,9.9,0.3C43.4,167.5,42.2,165.2,41,163.1z"/>
</g>
<g id="_x23_756341ff">
	<path class="st223" d="M28.7,164.9c1.6-0.2,4.9-0.5,6.5-0.7C33,164.9,30.3,168,28.7,164.9z"/>
</g>
<g id="_x23_877d7dff">
	<path class="st224" d="M77.3,167.3c3.3-2.8,8.7-1.4,12.7-3.3c2.6,4.2,3.3,9.2,5.1,13.8c2.6,6.7,5.1,13.8,10.6,18.7
		c2.9,4.3-1.2,6-4.1,5.1c-4.8-2.4-8.8,2.4-13.2,2.1c-3.3-1.5-2.1-4.6-0.4-6.9c-1.1-3.6-5.6-0.4-8,0.2c2.1,1.7,6.1,4.4,3.5,7.1
		c-4,0-11,4.3-13.5-1.2c6.3-5.5,4.9-14.6,6.1-22.2C76.4,176.3,76.8,171.8,77.3,167.3 M87.3,167.4c-2.4,1.6-9.8-1.9-8.2,2.5
		c2.7,6.3,6,12.4,7.8,19.1c-0.3,3.3-6.7,0.7-6.1,4.9c6.6-4,10.9,2.5,8,8c4.8-3.7,11.3-1.2,15.9-3.1c-7.5-8.1-12.7-20.5-15-31.9
		C89.2,167.1,87.9,167.3,87.3,167.4 M78.1,174.9c-1.4,9.7-0.1,20.4-5.3,29c2.4-1.8,10.3,1.5,8.9-2.7
		C73.1,195.9,86.9,179.8,78.1,174.9 M82.2,183.1c0,2.2-2.1,5-0.1,6.8C86.2,190.3,84.9,182.8,82.2,183.1z"/>
</g>
<g id="_x23_721512ff">
	<path class="st225" d="M208.1,163.7c4.1,4.8,2.8,11.4,1.9,17.2c-5.4,6.4-12.9,9.6-21.2,9.6l-0.6,0.1c-3.3-0.2-7.3-2.3-10.2,0.3
		c-9.4,3-19.3,3.5-29,5.1c-6.7-2.6-2.4-10.8-3.2-16.2c0-0.8-0.1-2.4-0.1-3.1c0.5-2,1.1-3.9,1.6-5.9c2,6.2,2.6,13.3-0.1,19.4
		c-0.9,1.6,1.1,2.6,2,3.6c9.1-1.3,18.1-3.6,27.4-4.2c2.8-1.2,0-5,0.2-7.4c2.6,1,5.1,1.2,4.5-2.4c1.1,3-0.3,9.8,4.5,7.9
		c4.9-2.2,10.8,0.8,15.2-2.6c7.5-2.6,9.6-12.1,6.1-18.7C207.4,165.7,207.9,164.4,208.1,163.7z"/>
</g>
<g id="_x23_b5b5b5ff">
	<path class="st226" d="M11,176c-1.3-0.3-2.6-10.7,0-11C11,168.7,11,172.3,11,176z"/>
</g>
<g id="_x23_431512ff">
	<path class="st227" d="M123,165c5.2-0.6,0.6,9.6,3,12C121.3,177,124.3,168.2,123,165z"/>
</g>
<g id="_x23_1a1515ff">
	<path class="st228" d="M165.3,165.2c2.4,1.1,2.1,9,3.7,12.8c-3.4-0.3-4.1-5-7.8-5.4C161.1,169.8,165.5,168.5,165.3,165.2z"/>
</g>
<g id="_x23_24120eff">
	<path class="st229" d="M87.3,167.4c0.6-0.1,1.8-0.3,2.4-0.4c2.3,11.3,7.5,23.8,15,31.9c-4.6,1.9-11.1-0.6-15.9,3.1
		c3-5.5-1.4-11.9-8-8c-0.7-4.2,5.8-1.6,6.1-4.9c-1.8-6.7-5.1-12.8-7.8-19.1C77.6,165.5,84.9,169,87.3,167.4z"/>
</g>
<g id="_x23_50120aff">
	<path class="st230" d="M169,167.9c2.1,3.5,6.5-2.7,10.4-0.8c1.1,1.5,2.4,2.9,3.3,4.6c-2.8,2.2-2.7,5.1-1.3,8.1
		c0.6,3.6-1.9,3.5-4.5,2.4C177.3,174.2,167.3,176.5,169,167.9z"/>
</g>
<g id="_x23_761a12ff">
	<path class="st231" d="M141.5,171.7c3.4,3.5-0.2,7.4-2.4,10.3c-3.1,1.7-6.4,3.1-9.4,4.9c2.5,4.5,6,9.3,0.1,12.9
		c-4.4,0.5-8.8,0.8-13.1,2.1c-1,0.3-2.1,0.5-3.1,0.8c-2.5-0.2-5.4-1.4-6.7,1.3c-1.2,0.7-2.5,1.4-3.8,2.1c-3.7-4.4-12.8,0.3-18.4,0.7
		c-0.6,0.3-1.8,0.8-2.4,1.1c-2.4,0-4.7,0.4-6.8,1.2c-4.7-0.1-7.3-4.2-8.9-8c2.2-0.8,4.1-2.4,4.7-4.8c1-4.7,1.2-9.4,1.8-14.2
		c0.9-0.4,1.9-0.8,2.8-1.2c-1.2,7.6,0.3,16.7-6.1,22.2c2.4,5.5,9.4,1.2,13.5,1.2c2.7-2.7-1.4-5.4-3.5-7.1c2.4-0.6,6.9-3.8,8-0.2
		c-1.6,2.3-2.8,5.4,0.4,6.9c4.4,0.3,8.4-4.5,13.2-2.1c2.9,0.9,7-0.8,4.1-5.1c-5.5-4.9-8.1-12-10.6-18.7c6.5,3,5.9,13.2,11.9,16.2
		c6.5-3-2.8-14.9,3.4-17.5c1.6,6.8,2.6,14-0.3,20.6c-0.8,2.8,2.6,3.6,4.6,2.5c4.8-2.2,10.8-0.3,15.2-2.8c4.7-4.8-7.5-6.5-3.7-12.4
		C133.4,183.7,139.7,179,141.5,171.7z"/>
</g>
<g id="_x23_8c7e54ff">
	<path class="st232" d="M67.8,182.8c-0.1-2.3,0.9-12.6,5.1-9c1.5,6.6-5,13.3-1.9,19.4C65.7,192.6,67.2,186.4,67.8,182.8z"/>
</g>
<g id="_x23_631312ff">
	<path class="st233" d="M185.8,173.2c3.6,1.9,12.2,0.8,11.1,6.6C192,183.4,187.3,177.6,185.8,173.2z"/>
</g>
<g id="_x23_4c402dff">
	<path class="st234" d="M70.9,193.2c-3-6.1,3.4-12.8,1.9-19.4c1.2,2.7,0.7,5.5,0.2,8.3c-0.6,4.7-0.8,9.5-1.8,14.2l-0.9-0.1
		c-2.8-0.6-5.7-1-8.6-1.4c5.7-1,0.7-1.8-0.8-4.3c4.3,0.2,5.6-4.2,6.8-7.6C67.2,186.4,65.7,192.6,70.9,193.2z"/>
</g>
<g id="_x23_1e1010ff">
	<path class="st235" d="M181.9,174c3.1-0.3,3.6,3.8,5.8,5.3c1.2,3,6,2.5,6.4,5.7c-3.6-1.4-6.9-0.7-9.9,1.2
		C185.8,181.6,182.1,178.2,181.9,174z"/>
</g>
<g id="_x23_251b1bff">
	<path class="st236" d="M78.1,174.9c8.8,4.8-5.1,21,3.7,26.3c1.4,4.1-6.5,0.9-8.9,2.7C78.1,195.3,76.8,184.6,78.1,174.9z"/>
</g>
<g id="_x23_5d1311ff">
	<path class="st237" d="M160.9,175c4.1,0,4.2,6.8,9.2,5.3c-1.8,1.7-3.2,4.6-5.9,4.8C162.5,181.9,161.4,178.4,160.9,175z"/>
</g>
<g id="_x23_948e7eff">
	<path class="st238" d="M53,179.8C59.6,181.5,52,173.6,53,179.8z"/>
</g>
<g id="_x23_695e46ff">
	<path class="st239" d="M136.1,187.2c5.4-0.3,6.3-7.2,9.8-10.6c0,0.8,0.1,2.4,0.1,3.1c-1.6,3.9-5.1,6.6-7.2,10.2
		c-3.6,0.6-6.4-0.9-9-3.1c3-1.8,6.3-3.2,9.4-4.9C139,184.2,137.5,185.8,136.1,187.2z"/>
</g>
<g id="_x23_221515ff">
	<path class="st240" d="M172.1,178.1c3.8,0.1,2.2,6.9,2.9,9.8c-1.7-2.5-10.8,3.9-9.8-0.6C169.1,185.5,170.7,181.8,172.1,178.1z"/>
</g>
<g id="_x23_13150aff">
	<path class="st241" d="M138.7,190c2.1-3.6,5.5-6.3,7.2-10.2c0.8,5.3-3.5,13.6,3.2,16.2c9.7-1.6,19.7-2,29-5.1
		c2.9-2.6,6.8-0.5,10.2-0.3c-9.7,11.1-22.6,19.6-36.3,25.1c-2.9,0.6-5.7,1.6-8.2,3c-2.8,1.2-5.8,2.2-8.9,2.3
		c-1.3-0.2-2.6-0.1-3.8,0.6c-12.6,1.4-25.5,2.3-38.1,0c-1.2-0.7-2.5-0.9-3.8-0.6c-1.9,0.3-3.6-0.6-5.3-1.2c-2.2-2-1.5-5.3-2.6-7.9
		c-0.3-0.5-0.8-1.5-1.1-2c-0.9-1.7-3.2,0-4.6,0.2l0-1c2.2-0.8,4.5-1.2,6.8-1.2c3.4,2.4,8.3,4.4,12.2,2c0.3,0.3,0.9,0.9,1.2,1.2
		c1.1,1.6,2.7,2.2,4.3,1c3.9,2,8.3,1.8,12.6,1.6c1.4,0.1,2.9,0.3,4.4,0.3c4,0.3,8-0.3,12-1c2.1-0.1,7.6,0.2,4.8-3.1
		c0.6-0.7,1.2-1.4,1.8-2.1c-0.8,5.1,5.1,3.5,3.3-0.9c0-1.7,0-3.3,0-5c0-0.5-0.1-1.6-0.1-2.1C138.9,196.6,138.3,193.3,138.7,190z"/>
</g>
<g id="_x23_675a3bff">
	<path class="st242" d="M46.9,181.1c1.5,0.2,3,0.6,4.4,1c3,4.2-1.7,8.1-1.2,12.6c-1.4-0.1-2.7-0.1-4.1-0.2c2.5-2.2-2.5-2.6-4-3.3
		c-5,0.9-9.1,4.7-14.1,6c5.4-4.9,15.5-12.6,21.1-4.8C47.7,189.1,51.2,182.9,46.9,181.1z"/>
</g>
<g id="_x23_9a8a89ff">
	<path class="st243" d="M188.8,190.6c8.2,0,15.8-3.3,21.2-9.6C206.9,189.1,196.9,192.5,188.8,190.6z"/>
</g>
<g id="_x23_6d302cff">
	<path class="st244" d="M82.2,183.1c2.7-0.3,4,7.2-0.1,6.8C80.2,188.1,82.2,185.3,82.2,183.1z"/>
</g>
<g id="_x23_302a21ff">
	<path class="st245" d="M129.7,186.9c2.5,2.2,5.4,3.7,9,3.1c-0.4,3.3,0.2,6.5,0.3,9.8c-3.1-0.4-6.1-0.8-9.1,0
		C135.8,196.3,132.2,191.4,129.7,186.9z"/>
</g>
<g id="_x23_563b22ff">
	<path class="st246" d="M50,194.7c4.5,1.5,1.5-8.6,6.1-6c3.3,0,4.5,3.7,4.1,6.5c-0.4,1.9,0.8,3.4,1.5,5c-1.9-0.2-3.7-0.7-5.6-0.9
		c4,12.8-9.9-5.6-5.3,7.9c-0.5,2.8-4.1-4.9-5.9-1.2c-3.6,3,1.5,6.4-1.4,9.9c0.6,3.2-0.1,5.3-2.3,6.4c-3.3-4.4-3.2-0.2-4.1,3.6
		c-1.2-2.3-2.4-0.2-4.2-0.5c-0.4-4.1,0.9-8.6-0.7-12.6c-0.2-0.5-0.7-1.6-0.9-2.1c-0.1-0.5-0.2-1.4-0.3-1.8c0.2-1.3,0.1-2.7-0.6-3.8
		l-0.3-0.9c-2.9-7.7,10.8-10.4,15.8-9.7C47.3,194.5,48.7,194.6,50,194.7z"/>
</g>
<g id="_x23_8e7961ff">
	<path class="st247" d="M70.4,196.1l0.9,0.1c-0.5,2.4-2.4,4-4.7,4.8C65.7,198.7,69.3,197.7,70.4,196.1z"/>
</g>
<g id="_x23_677739ff">
	<path class="st248" d="M129.8,199.8c3-0.8,6.1-0.4,9.1,0c0,0.5,0.1,1.6,0.1,2.1C136.6,201.1,126.6,205.9,129.8,199.8z"/>
</g>
<g id="_x23_333a2cff">
	<path class="st249" d="M116.7,201.9c4.3-1.2,8.7-1.6,13.1-2.1c-3.3,6.1,6.7,1.3,9.2,2.1c0,1.7,0.1,3.3,0,5c-1-0.4-2-0.7-3.1-0.9
		c-4.8-1.1-9.2,1.7-13.8,1.2C121.2,204.7,118.7,203.4,116.7,201.9z"/>
</g>
<g id="_x23_8d7860ff">
	<path class="st250" d="M66.7,201c1.7,3.8,4.2,7.9,8.9,8l0,1C69.9,211.7,65.5,206.4,66.7,201z"/>
</g>
<g id="_x23_353428ff">
	<path class="st251" d="M107,204c1.3-2.7,4.2-1.5,6.7-1.3c2.1,1.5,4.3,2.9,6.5,4.2c2.2,3-2.5,2.7-4.3,3.7c-1.7,0.1-2.3,1.8-3.1,3.1
		c-4.2,0.1-8.7,0.3-12.6-1.6c2.3-4.6-1.8-2.4-4.3-1c-0.3-0.3-0.9-0.9-1.2-1.2c-1.6-4.1-6.3-2.7-9.8-3.1c5.6-0.4,14.7-5.1,18.4-0.7
		c0,0.4-0.1,1.3-0.2,1.7c-1.9,1.6-0.8,4.1,1.6,3.6c7.1,3.3,0.8-5,5.7-6.9C111.9,203.3,107.7,204.3,107,204z"/>
</g>
<g id="_x23_b8ac6dff">
	<path class="st252" d="M113.7,202.7c1-0.3,2.1-0.6,3.1-0.8c2,1.5,4.4,2.8,5.4,5.3c-0.5,0-1.5-0.1-2-0.2
		C117.9,205.7,115.7,204.3,113.7,202.7z"/>
</g>
<g id="_x23_8a5b3aff">
	<path class="st253" d="M107,204c0.8,0.3,4.9-0.7,3.5,0.5c-5,1.9,1.4,10.2-5.7,6.9c0.5-1.5-0.3-2.9-1.6-3.6c0-0.4,0.1-1.3,0.2-1.7
		C104.5,205.4,105.7,204.7,107,204z"/>
</g>
<g id="_x23_9c9b99ff">
	<path class="st254" d="M30.4,205c0.7,1.2,0.8,2.5,0.6,3.8C29.2,209,29.4,205.9,30.4,205z"/>
</g>
<g id="_x23_8f633fff">
	<path class="st255" d="M122.2,207.2c4.7,0.5,9.1-2.3,13.8-1.2c-0.1,0.5-0.2,1.4-0.2,1.8c-0.6,0.7-1.2,1.4-1.8,2.1
		c-3.1,0.2-6.2-2.5-9.1-0.9c1.2,1.6,2.7,2.8,4.3,4c-4,0.7-7.9,1.3-12,1c0.5-1.6,1.4-3.7-1.3-3.4c1.8-0.9,6.5-0.7,4.3-3.7
		C120.7,207,121.7,207.1,122.2,207.2z"/>
</g>
<g id="_x23_bea569ff">
	<path class="st256" d="M136,206c1,0.3,2.1,0.6,3.1,0.9c1.8,4.4-4.1,6-3.3,0.9C135.8,207.4,135.9,206.4,136,206z"/>
</g>
<g id="_x23_736845ff">
	<path class="st257" d="M82.4,207.9c0.6-0.3,1.8-0.8,2.4-1.1c3.6,0.3,8.3-1.1,9.8,3.1C90.7,212.2,85.9,210.2,82.4,207.9z"/>
</g>
<g id="_x23_ccb974ff">
	<path class="st258" d="M103.1,207.8c1.3,0.7,2.2,2.1,1.6,3.6C102.2,211.8,101.2,209.4,103.1,207.8z"/>
</g>
<g id="_x23_d4bd75ff">
	<path class="st259" d="M124.8,209.1c2.9-1.6,6,1,9.1,0.9c2.8,3.3-2.7,3.1-4.8,3.1C127.6,211.9,126,210.6,124.8,209.1z"/>
</g>
<g id="_x23_7a715bff">
	<path class="st260" d="M75.6,210.1c1.3-0.2,3.7-2,4.6-0.2C78.8,212.2,77.2,212.3,75.6,210.1z"/>
</g>
<g id="_x23_a78733ff">
	<path class="st261" d="M95.9,211.1c2.6-1.3,6.6-3.6,4.3,1C98.5,213.3,96.9,212.7,95.9,211.1z"/>
</g>
<g id="_x23_aeaeaeff">
	<path class="st262" d="M31.3,210.6c0.2,0.5,0.7,1.6,0.9,2.1c-0.1,3.1-0.2,6.2-0.3,9.2C30.7,219.1,30.5,215.3,31.3,210.6z"/>
</g>
<g id="_x23_625545ff">
	<path class="st263" d="M59.2,214.8c-2.8-1.5-2.6-5.8,0.6-2.6c1.7,2.6,4.3,1.4,6.5,0.2C68.9,213.6,61.1,218.5,59.2,214.8z"/>
</g>
<g id="_x23_af937cff">
	<path class="st264" d="M59.8,212.3c1.8-2.2,4.5-0.9,6.5,0.2C64.1,213.6,61.5,214.9,59.8,212.3z"/>
</g>
<g id="_x23_cabb79ff">
	<path class="st265" d="M112.8,213.7c0.8-1.3,1.4-2.9,3.1-3.1c2.7-0.3,1.8,1.8,1.3,3.4C115.7,214,114.2,213.9,112.8,213.7z"/>
</g>
<g id="_x23_827a6dff">
	<path class="st266" d="M81.2,211.8c1.1,2.6,0.4,5.9,2.6,7.9c-1.9,1.7-2.8,5.4-5.7,5.2l-0.4-0.8C81.4,221.1,81.8,216.4,81.2,211.8z"
		/>
</g>
<g id="_x23_776a5eff">
	<path class="st267" d="M32.2,212.8c1.5,3.9,0.2,8.4,0.7,12.6c-1-0.7-1.4-1.8-0.9-3.3C32.1,218.9,32.2,215.8,32.2,212.8z"/>
</g>
<g id="_x23_9e8c70ff">
	<path class="st268" d="M66.7,221c2.8-2.9,6.3-8.8,9.2-3.1C73,219.5,70.1,224.7,66.7,221z"/>
	<path class="st268" d="M43.5,215.8c0.2,3,2,9.8-2.3,6.4C43.4,221.1,44.1,218.9,43.5,215.8z"/>
</g>
<g id="_x23_949491ff">
	<path class="st269" d="M143.7,218.7c2.6-1.4,5.4-2.3,8.2-3C150.7,218.2,146.4,218.9,143.7,218.7z"/>
</g>
<g id="_x23_5a4e40ff">
	<path class="st270" d="M58.8,218.1c2.7,0.9,5.3,1.9,7.9,2.9c3.4,3.7,6.2-1.5,9.2-3.1c-1.2,1.8-2.7,3.4-4,5.1c1.8,1,3.8,1,5.8,1.2
		l0.4,0.8l-1,0.1c-1.7,0.1-3.3,0.3-5,0.4C67.1,224.4,62.4,221.9,58.8,218.1z"/>
</g>
<g id="_x23_685a49ff">
	<path class="st271" d="M47,220.9c2.9,0.4,3.4,4.8,6.9,4.4C53.8,229.9,45.4,224.8,47,220.9z"/>
</g>
<g id="_x23_7d8079ff">
	<path class="st272" d="M89.2,221c1.3-0.2,2.7-0.1,3.8,0.6C92.1,222.7,89,222.8,89.2,221z"/>
</g>
<g id="_x23_7f807aff">
	<path class="st273" d="M131,221.6c1.2-0.7,2.5-0.8,3.8-0.6C135,222.8,131.9,222.7,131,221.6z"/>
</g>
<g id="_x23_767770ff">
	<path class="st274" d="M93,221.6c12.6,2.3,25.4,1.4,38.1,0C120.7,224.8,103.2,225.9,93,221.6z"/>
</g>
<g id="_x23_7e7467ff">
	<path class="st275" d="M32.9,225.3c1.8,0.3,3-1.8,4.2,0.5c-0.3,6.3,10.6,15,16,8.2c2.8,2.8,6.3,3.8,9.2,0.3
		c0.7-0.1,2.1-0.2,2.9-0.3c-1.5,2.9-5.1,4.2-8.1,5c-3,0-6,0-9,0C40.7,237.9,36.7,230.9,32.9,225.3z"/>
</g>
<g id="_x23_989288ff">
	<path class="st276" d="M72.1,225.4c1.7-0.1,3.3-0.3,5-0.4c-4.2,2.8-6.2,9.4-12,9c0-0.4,0-1.4-0.1-1.8
		C68.5,231.2,72.1,229.6,72.1,225.4z"/>
</g>
<g id="_x23_9c8a6eff">
	<path class="st277" d="M53.8,230.5c3.2-2.1,8.1-7,11.3-2.6c-1,1.3-2.2,2.5-3.3,3.8C59.2,231.3,56.5,230.9,53.8,230.5z"/>
</g>
<g id="_x23_5e5143ff">
	<path class="st278" d="M62.2,234.3c-2.9,0.2-16.2-4.5-8.4-3.9c2.7,0.5,5.3,0.8,8,1.2c0.8,0.1,2.4,0.4,3.2,0.5
		c0,0.4,0.1,1.4,0.1,1.8C64.4,234.1,63,234.3,62.2,234.3z"/>
</g>
<g id="_x23_bbbbbbff">
	<path class="st279" d="M48,239c3,0,6,0,9,0C57.3,240.8,48.5,240.8,48,239z"/>
</g>
</svg>
