<?xml version="1.0" encoding="utf-8"?>
<!-- Generator: Adobe Illustrator 26.0.3, SVG Export Plug-In . SVG Version: 6.00 Build 0)  -->
<svg version="1.1" id="Layer_1" xmlns="http://www.w3.org/2000/svg" xmlns:xlink="http://www.w3.org/1999/xlink" x="0px" y="0px"
	 viewBox="0 0 250 250" style="enable-background:new 0 0 250 250;" xml:space="preserve">
<style type="text/css">
	.st0{fill:#E79E55;}
	.st1{fill:#9E3B17;}
</style>
<g id="_x23_e79e55ff">
	<path class="st0" d="M114.1,0h21l-0.2,1c-7,0-14,0-21,0L114.1,0z"/>
	<path class="st0" d="M105.9,1.9c1-1.3,2.8-1.3,4.2-0.8C109.1,2.5,107.3,2.4,105.9,1.9z"/>
	<path class="st0" d="M139.9,1.1c1.4-0.5,3.3-0.6,4.1,1C142.6,2.4,140.9,2.4,139.9,1.1z"/>
	<path class="st0" d="M110.4,9.5C162.2,1.9,215.5,35,233.3,83.8c20.8,51-1.8,113.8-49.3,141.2c-36.6,22.6-86,21.6-122-2
		C20.9,197.1-0.3,144.2,12,97.1C22.7,51.2,63.6,14.8,110.4,9.5 M166.4,42.3c-2.1,0.7-3.8,2.4-6.1,2.1c-3.8,7.6-1.6,18.8-10.5,23.4
		c-8.7,7.1-8.5,19-12.4,28.5c-5.5,15.6-17,28.3-29,39c-11.2,7.2-24.4,10-37.3,12.7c-7.3,2.9-13.3,8.8-18.4,14.7
		c-3.7,0.7-6.4-4.1-10.2-3.5c-0.5,4.3-4.9,6.1-6.8,9.5c-1.5,5.9-2,17.6,5.4,19.4c11-4.2,18.7,6.8,29,8c14.7,0.9,28.3-5.3,41.7-10.2
		c42.5-15.8,74.7-56,81.2-100.7c1.7-9.3-2.2-18.7-9.7-24.2c1.2-5.2,5.7-9.2,5.8-14.7C182.1,42.8,173.9,41.7,166.4,42.3z"/>
	<path class="st0" d="M172.8,10.1c1.6-0.3,3.2,0.4,4.2,1.7C175.4,12.5,173.5,11.9,172.8,10.1z"/>
	<path class="st0" d="M47,28c0.2-1.6,1.3-3.3,3.2-2.8C49.7,26.6,48.7,28.1,47,28z"/>
	<path class="st0" d="M202.9,28c1.5,0.4,2.6,1.5,3.1,3C204.2,31.4,202.6,29.9,202.9,28z"/>
	<path class="st0" d="M28.9,45.1c4.5-6,10.6-11.3,16.2-16.1C41.3,35.7,35,40.6,28.9,45.1z"/>
	<path class="st0" d="M209,32.9c3.8,1.3,6.4,4.7,8,8.2C214.1,38.7,211.5,35.8,209,32.9z"/>
	<path class="st0" d="M218,43c1.7,0.8,3.8,1.8,3.9,3.9C219.9,46.6,217.8,45.4,218,43z"/>
	<path class="st0" d="M173.1,45c4.1-0.2,8.1,0.8,11.8,2.2c0.6,2.7-4.7,11.3-4.1,4.7c-2.2,0.3-4.7,3.3-6.5,0.8
		c-1.5-2.8-3.8,0.9-6-0.8c-3.1,0.1-2.9-3.7-3.4-5.9c5.2-2.7,6.4,1.7,9.1,4.2C173.8,48.4,173.4,46.7,173.1,45z"/>
	<path class="st0" d="M25.2,50.2c-0.5-1.9,1.2-3,2.8-3.2C28.1,48.7,26.6,49.7,25.2,50.2z"/>
	<path class="st0" d="M165.4,62.3c3.9-0.4,7.7-0.5,11.6-0.3c-0.6,17.3-7.2,33.5-14.1,49.1c10.3-12.8,14.1-30.5,18.3-46.2
		c1.7,1.8,4.9,3.2,4.7,6c-4.2,25-13.5,49.6-29.6,69.4c-4.9,4.1-7.5,13.1-14.5,13.7c1.6-2.4,4.7-4.1,5.2-7.1
		c-23.5,20.8-53.8,32.6-84.9,35c-6.6-9.7-1.6-23.1,7.8-28.9c11.7-8.3,10.8,13.1,21.2,15c-2.9-5.6-5.8-11.5-6.2-17.9
		c6-3.1,12.7-4.8,19-7.1c3.7,3.5,6.5,9.6,12.2,11c-1.4-5.1-5.1-9.1-7-14c4.9-3.3,9.5-7.7,14.8-10.1c4.3,3.7,9.1,8.4,15.2,8.1
		c-0.5-6.5-16.8-10.6-7.9-16.8c3.5-4,6.9-8.2,9.2-13.1c4,3.8,8,8.2,13.7,9c-1.9-5.3-8-8.2-10.7-13.3c1.7-6,5-11.5,5.9-17.8
		c3.6,3.9,8.6,6.3,13.8,7.1C160.6,87,146.6,84.3,152,75C153.9,68.5,159.9,65.3,165.4,62.3 M168.5,112.5c-3.7,6.2-6.9,12.9-11.4,18.6
		c-2,2.6-0.5,4.9,1.9-0.1C163,125.9,169.3,116.4,168.5,112.5 M147.3,136.3c-11.7,8.7-22.6,19.1-36.4,24.6c-1.7,1.3-5.5,1.2-5,4.1
		c14.7-4.6,27.7-13.8,38.9-24.3C145.7,140.1,149.6,135.9,147.3,136.3z"/>
	<path class="st0" d="M247.1,103.9c1.3,1,1.3,2.8,0.7,4.2C246.5,107.1,246.6,105.3,247.1,103.9z"/>
	<path class="st0" d="M248.1,110.9c1.3,1,1.3,2.8,0.8,4.2C247.5,114.1,247.6,112.3,248.1,110.9z"/>
	<path class="st0" d="M0,114.2l0.9-0.4c0.1,7.4,0.1,14.8,0,22.2L0,136V114.2z"/>
	<path class="st0" d="M248.1,139.1c-0.5-1.4-0.6-3.2,0.8-4.2C249.4,136.3,249.4,138.1,248.1,139.1z"/>
	<path class="st0" d="M247.2,146.1c-0.6-1.4-0.8-3.2,0.6-4.2C248.4,143.3,248.4,145,247.2,146.1z"/>
	<path class="st0" d="M44.2,164.1c4.1-1.6,5,2.8,6.5,5.5C46.8,174,40,168.9,44.2,164.1z"/>
	<path class="st0" d="M43.1,172.3c3.7-0.8,10.4,1.1,6.7,5.5c-3.5,3.3,6.1,1.5,0.1,4.2C43.4,188.9,41.1,176,43.1,172.3z"/>
	<path class="st0" d="M24.9,200c1.6,0.2,3.2,1.2,3.1,3C26.5,202.7,24.8,201.8,24.9,200z"/>
	<path class="st0" d="M218,206.9c-0.1-2.4,1.9-3.5,4-3.9C221.8,205.2,219.7,206.2,218,206.9z"/>
	<path class="st0" d="M28.9,205c6.6,4,11.9,9.8,16.2,16.1C39.4,216.2,33.2,211,28.9,205z"/>
	<path class="st0" d="M208.9,217c2.4-3,5.3-5.5,8.2-8.1C215.9,212.8,212.3,215.1,208.9,217z"/>
	<path class="st0" d="M202.9,221.9c-0.2-1.9,1.4-3.3,3.2-2.9C205.6,220.5,204.4,221.6,202.9,221.9z"/>
	<path class="st0" d="M47,222c1.8-0.2,2.8,1.4,3.1,3C48.2,225.2,47.3,223.6,47,222z"/>
	<path class="st0" d="M173,240c0.4-2,2.4-2.6,4.1-1.8C176,239.3,174.6,240.1,173,240z"/>
	<path class="st0" d="M105.9,248.2c1.4-0.6,3.2-0.8,4.2,0.6C108.7,249.4,107,249.4,105.9,248.2z"/>
	<path class="st0" d="M139.9,248.9c0.9-1.5,2.8-1.3,4.2-0.6C143,249.4,141.3,249.4,139.9,248.9z"/>
	<path class="st0" d="M113.9,249c7,0,14,0,21,0l0.2,1h-21L113.9,249z"/>
</g>
<g id="_x23_9e3b17ff">
	<path class="st1" d="M110.1,1.1c1.3,0,2.6-0.1,3.8-0.1c7,0,14,0,21,0c1.7,0,3.3,0.1,5,0.1c1,1.3,2.6,1.3,4.1,1
		c9.8,2.1,19.5,4.4,28.8,8.1c0.7,1.8,2.5,2.4,4.2,1.7c9,4.7,17.4,10.6,25.9,16.1c-0.3,1.9,1.3,3.3,3.1,3c1,0.6,1.9,1.3,2.9,1.9
		c2.5,2.9,5.1,5.8,8,8.2c0.3,0.5,0.8,1.4,1,1.9c-0.2,2.4,1.9,3.5,3.9,3.9c11.9,17.1,21.8,36.1,25.2,57c-0.5,1.4-0.6,3.2,0.7,4.2
		c0.1,0.7,0.2,2.1,0.3,2.8c-0.5,1.4-0.6,3.2,0.8,4.2c0.1,6.6,0,13.2,0,19.8c-1.4,1-1.3,2.8-0.8,4.2c-0.1,0.7-0.2,2.1-0.3,2.8
		c-1.4,1-1.2,2.8-0.6,4.2c-3.1,20.7-12,40.7-25.3,56.9c-2,0.4-4.1,1.5-4,3.9c-0.2,0.5-0.7,1.5-0.9,2c-2.9,2.5-5.8,5.1-8.2,8.1
		c-0.9,0.7-1.9,1.3-2.8,2c-1.8-0.4-3.4,1-3.2,2.9c-7.5,6.8-16.5,12.1-25.7,16.3c-1.7-0.8-3.8-0.2-4.1,1.8c-9.1,4.3-19,6.3-28.8,8.2
		c-1.4-0.6-3.3-0.8-4.2,0.6c-1.7,0-3.3,0.1-5,0.1c-7,0-14,0-21,0c-1.3,0-2.6-0.1-3.8-0.1c-1-1.4-2.8-1.3-4.2-0.6
		c-20.1-2.8-39.6-11-55.8-23.3c-0.3-1.6-1.3-3.2-3.1-3c-0.5-0.2-1.4-0.7-1.9-1c-4.3-6.3-9.6-12.1-16.2-16.1c-0.2-0.5-0.7-1.5-0.9-2
		c0.2-1.8-1.5-2.8-3.1-3c-13.4-18.7-22.7-40.8-24-63.9c0-7.4,0-14.8,0-22.2c2-23.2,11.4-44.6,24.3-63.7c1.4-0.5,2.9-1.4,2.8-3.2
		c0.2-0.5,0.6-1.4,0.9-1.9c6.1-4.5,12.4-9.4,16.2-16.1c0.5-0.2,1.4-0.7,1.9-0.9c1.8,0.1,2.7-1.4,3.2-2.8C66.9,13.8,85.7,5,105.9,1.9
		C107.3,2.4,109.1,2.5,110.1,1.1 M110.4,9.5C63.6,14.8,22.7,51.2,12,97.1C-0.3,144.2,20.9,197.1,62,223c36,23.6,85.3,24.5,122,2
		c47.5-27.3,70-90.2,49.3-141.2C215.5,35,162.2,1.9,110.4,9.5z"/>
	<path class="st1" d="M166.4,42.3c7.6-0.6,15.8,0.5,22.6,3.9c-0.1,5.4-4.6,9.5-5.8,14.7c7.6,5.5,11.5,14.8,9.7,24.2
		c-6.6,44.8-38.8,84.9-81.2,100.7c-13.4,5-27,11.2-41.7,10.2c-10.3-1.2-18-12.2-29-8c-7.4-1.7-7-13.5-5.4-19.4
		c1.9-3.4,6.2-5.2,6.8-9.5c3.8-0.6,6.5,4.2,10.2,3.5c5.1-5.9,11.1-11.7,18.4-14.7c12.9-2.7,26.1-5.5,37.3-12.7
		c12-10.7,23.6-23.3,29-39c3.9-9.6,3.8-21.4,12.4-28.5c8.9-4.6,6.7-15.8,10.5-23.4C162.6,44.7,164.3,43,166.4,42.3 M173.1,45
		c0.3,1.7,0.7,3.5,0.9,5.2c-2.7-2.5-3.9-6.8-9.1-4.2c0.4,2.2,0.3,6,3.4,5.9c2.2,1.7,4.5-2,6,0.8c1.8,2.5,4.3-0.5,6.5-0.8
		c-0.5,6.6,4.8-2,4.1-4.7C181.2,45.7,177.1,44.8,173.1,45 M165.4,62.3c-5.5,3-11.5,6.2-13.4,12.6c-5.4,9.4,8.7,12,11.1,18.1
		c-5.2-0.8-10.2-3.2-13.8-7.1c-0.9,6.2-4.2,11.8-5.9,17.8c2.7,5.1,8.8,8,10.7,13.3c-5.7-0.7-9.8-5.2-13.7-9
		c-2.3,4.9-5.7,9.1-9.2,13.1c-8.8,6.3,7.4,10.4,7.9,16.8c-6.1,0.3-10.9-4.3-15.2-8.1c-5.4,2.4-9.9,6.8-14.8,10.1
		c1.9,4.9,5.6,8.9,7,14c-5.7-1.4-8.4-7.6-12.2-11c-6.3,2.3-13,4-19,7.1c0.4,6.4,3.3,12.3,6.2,17.9c-10.4-1.9-9.5-23.3-21.2-15
		c-9.5,5.9-14.5,19.2-7.8,28.9c31.1-2.3,61.5-14.2,84.9-35c-0.5,3-3.6,4.6-5.2,7.1c7-0.5,9.6-9.6,14.5-13.7
		C172.5,120.6,181.8,96,186,71c0.1-2.8-3.1-4.2-4.7-6c-4.2,15.7-8.1,33.4-18.3,46.2c6.8-15.6,13.4-31.8,14.1-49.1
		C173.1,61.8,169.2,61.9,165.4,62.3 M44.2,164.1c-4.2,4.7,2.6,9.9,6.5,5.5C49.2,166.9,48.3,162.5,44.2,164.1 M43.1,172.3
		c-2,3.7,0.3,16.6,6.8,9.8c6-2.7-3.7-0.9-0.1-4.2C53.6,173.4,46.9,171.5,43.1,172.3z"/>
	<path class="st1" d="M168.5,112.5c0.8,4-5.5,13.4-9.5,18.5c-2.5,5-4,2.7-1.9,0.1C161.6,125.3,164.8,118.7,168.5,112.5z"/>
	<path class="st1" d="M147.3,136.3c2.3-0.4-1.6,3.8-2.5,4.5c-11.1,10.5-24.1,19.7-38.9,24.3c-0.4-2.9,3.3-2.8,5-4.1
		C124.8,155.4,135.7,145,147.3,136.3z"/>
</g>
</svg>
