<?xml version="1.0" encoding="UTF-8" ?>
<!DOCTYPE svg PUBLIC "-//W3C//DTD SVG 1.1//EN" "http://www.w3.org/Graphics/SVG/1.1/DTD/svg11.dtd">
<svg width="250pt" height="250pt" viewBox="0 0 250 250" version="1.1" xmlns="http://www.w3.org/2000/svg">
<g id="#ffffffff">
<path fill="#ffffff" opacity="1.00" d=" M 0.00 0.00 L 250.00 0.00 L 250.00 250.00 L 0.00 250.00 L 0.00 0.00 M 71.24 18.12 C 67.65 19.85 63.93 21.38 60.69 23.73 C 55.55 27.55 49.94 30.81 45.62 35.62 C 35.65 44.57 27.01 55.13 20.98 67.13 C 17.00 72.21 15.61 78.63 13.25 84.51 C 6.89 101.15 5.24 119.28 6.85 136.92 C 8.07 141.56 7.00 146.67 9.21 151.05 C 10.03 153.68 10.02 156.51 10.94 159.13 C 15.11 171.72 20.74 183.88 28.36 194.76 C 38.81 207.24 50.05 219.65 64.47 227.61 C 72.02 232.10 79.89 236.21 88.31 238.82 C 91.24 240.18 94.67 239.95 97.47 241.61 C 100.31 242.88 103.71 241.74 106.47 243.41 C 114.20 244.93 122.16 244.40 130.00 244.49 C 139.48 244.66 149.11 243.69 158.08 240.50 C 161.10 240.10 164.00 239.19 166.70 237.78 C 180.64 232.94 193.64 225.42 205.00 215.99 C 215.53 205.12 226.14 193.86 232.79 180.10 C 237.10 171.88 241.00 163.30 242.52 154.07 C 242.92 152.38 243.94 150.88 244.04 149.11 C 244.41 144.37 245.75 139.76 245.69 134.99 C 245.73 126.98 245.84 118.97 245.59 110.97 C 243.35 88.60 233.82 67.45 220.41 49.58 C 213.66 42.34 206.75 35.22 199.21 28.80 C 194.64 25.67 189.66 23.18 185.19 19.89 C 181.15 17.83 177.41 14.98 172.94 13.94 C 168.24 12.95 164.35 9.77 159.48 9.34 C 156.38 7.61 152.82 7.46 149.34 7.63 C 149.80 7.22 150.25 6.81 150.71 6.40 C 137.20 4.94 123.57 5.11 110.01 5.64 C 96.41 7.02 83.28 11.76 71.24 18.12 Z" />
<path fill="#ffffff" opacity="1.00" d=" M 57.34 52.26 C 59.03 51.20 61.08 51.41 62.98 51.34 C 105.67 51.41 148.35 51.37 191.03 51.36 C 193.55 51.24 196.34 51.93 197.84 54.12 C 200.08 56.54 199.47 60.00 199.57 63.00 C 199.50 105.35 199.58 147.70 199.53 190.04 C 199.87 193.17 197.81 196.18 194.99 197.38 C 191.69 197.87 188.33 197.61 185.00 197.65 C 143.66 197.64 102.32 197.65 60.98 197.65 C 55.05 198.52 51.73 192.13 52.58 187.00 C 52.64 144.65 52.54 102.30 52.63 59.95 C 52.46 56.67 54.27 53.51 57.34 52.26 M 116.59 63.56 C 114.54 65.66 114.54 68.73 114.27 71.46 C 110.00 74.31 105.64 77.36 100.56 78.51 C 100.85 78.84 101.14 79.18 101.42 79.51 C 93.95 81.55 88.38 87.47 80.99 89.66 C 77.77 89.45 75.31 86.55 72.03 86.44 C 66.86 86.09 61.08 89.48 60.45 94.96 C 60.36 98.03 59.75 101.60 61.78 104.22 C 65.93 110.82 76.21 109.79 80.96 104.35 C 92.30 109.08 102.65 115.84 113.40 121.68 C 113.01 123.94 113.02 126.29 113.42 128.56 C 109.49 128.33 106.73 131.73 103.29 133.11 C 100.01 134.27 97.58 136.91 94.35 138.18 C 89.77 140.07 85.92 143.67 80.96 144.59 C 77.85 143.50 75.63 140.12 72.02 140.46 C 66.22 139.97 59.67 144.71 60.33 150.97 C 59.55 155.53 61.99 160.03 66.18 161.92 C 70.87 163.62 75.90 162.22 79.98 159.64 C 88.84 163.60 96.85 169.27 105.65 173.38 C 108.27 174.66 110.94 175.95 113.18 177.85 C 114.68 180.75 114.84 184.35 117.18 186.80 C 120.56 189.85 125.66 190.23 129.87 189.05 C 134.29 187.32 135.90 182.61 137.67 178.66 C 140.47 176.81 143.26 174.87 146.31 173.43 C 151.86 171.19 156.45 167.01 162.36 165.53 C 162.13 165.18 161.90 164.82 161.67 164.47 C 165.22 163.11 168.44 161.06 171.95 159.60 C 175.00 160.51 177.61 162.96 180.98 162.60 C 185.36 163.12 189.79 160.66 191.68 156.70 C 194.76 150.20 190.59 141.08 183.04 140.54 C 178.94 139.62 175.62 142.44 171.93 143.50 C 167.57 142.08 163.89 139.18 159.85 137.10 C 152.84 133.35 145.93 129.39 138.86 125.77 C 137.80 124.31 139.40 123.19 140.52 122.54 C 151.24 117.26 161.13 110.37 172.05 105.47 C 176.61 108.33 182.42 110.10 187.49 107.40 C 194.95 103.13 194.22 90.09 185.88 87.24 C 181.11 85.04 176.29 87.62 172.03 89.68 C 163.28 85.92 155.23 80.77 146.99 76.06 C 143.90 73.64 139.61 73.18 136.89 70.30 C 135.70 66.82 134.55 62.97 131.33 60.80 C 126.53 58.51 119.95 59.09 116.59 63.56 Z" />
<path fill="#ffffff" opacity="1.00" d=" M 129.47 84.94 C 128.86 81.32 133.17 77.44 136.62 79.09 C 141.41 80.89 146.09 82.99 151.03 84.36 C 150.99 84.74 150.94 85.12 150.90 85.50 C 154.97 86.26 158.50 88.52 162.43 89.71 C 165.15 90.53 167.73 91.75 170.23 93.08 C 170.41 96.03 170.41 98.99 170.27 101.95 C 167.62 103.45 164.87 104.76 162.03 105.85 C 155.36 108.49 148.88 111.68 141.89 113.43 C 141.97 113.81 142.04 114.19 142.12 114.57 C 139.59 115.28 137.12 116.14 134.71 117.17 C 133.08 115.79 131.35 114.53 129.61 113.29 C 129.38 103.84 129.52 94.39 129.47 84.94 Z" />
<path fill="#ffffff" opacity="1.00" d=" M 82.48 93.24 C 92.88 89.21 103.17 84.93 113.31 80.27 C 116.39 78.64 119.66 80.32 122.55 81.50 C 123.13 84.30 123.42 87.15 123.32 90.00 C 123.18 97.65 123.41 105.31 123.16 112.96 C 122.64 113.27 121.59 113.89 121.07 114.21 C 120.78 114.39 120.18 114.76 119.88 114.94 C 119.31 115.00 118.17 115.13 117.60 115.20 C 115.05 114.39 112.53 113.46 109.99 112.63 C 110.00 112.23 110.01 111.83 110.03 111.43 C 100.61 108.79 91.78 104.42 82.69 100.84 C 82.38 98.32 82.30 95.77 82.48 93.24 Z" />
<path fill="#ffffff" opacity="1.00" d=" M 117.31 132.82 C 119.09 134.26 121.10 135.37 123.17 136.34 C 123.29 145.58 123.40 154.83 123.19 164.06 C 123.35 168.55 117.44 171.26 113.70 169.51 C 108.31 167.48 102.89 165.49 97.79 162.80 C 92.86 160.29 87.12 159.55 82.49 156.47 C 82.02 153.83 82.35 151.15 82.46 148.50 C 87.55 146.18 92.84 144.35 97.88 141.93 C 101.14 140.36 104.59 139.24 108.14 138.54 C 108.07 138.14 108.00 137.75 107.94 137.35 C 111.30 136.40 114.61 135.12 117.31 132.82 Z" />
</g>
<g id="#00a0e9ff">
<path fill="#00a0e9" opacity="1.00" d=" M 71.24 18.12 C 83.28 11.76 96.41 7.02 110.01 5.64 C 123.57 5.11 137.20 4.94 150.71 6.40 C 150.25 6.81 149.80 7.22 149.34 7.63 C 152.82 7.46 156.38 7.61 159.48 9.34 C 164.35 9.77 168.24 12.95 172.94 13.94 C 177.41 14.98 181.15 17.83 185.19 19.89 C 189.66 23.18 194.64 25.67 199.21 28.80 C 206.75 35.22 213.66 42.34 220.41 49.58 C 233.82 67.45 243.35 88.60 245.59 110.97 C 245.84 118.97 245.73 126.98 245.69 134.99 C 245.75 139.76 244.41 144.37 244.04 149.11 C 243.94 150.88 242.92 152.38 242.52 154.07 C 241.00 163.30 237.10 171.88 232.79 180.10 C 226.14 193.86 215.53 205.12 205.00 215.99 C 193.64 225.42 180.64 232.94 166.70 237.78 C 164.00 239.19 161.10 240.10 158.08 240.50 C 149.11 243.69 139.48 244.66 130.00 244.49 C 122.16 244.40 114.20 244.93 106.47 243.41 C 103.71 241.74 100.31 242.88 97.47 241.61 C 94.67 239.95 91.24 240.18 88.31 238.82 C 79.89 236.21 72.02 232.10 64.47 227.61 C 50.05 219.65 38.81 207.24 28.36 194.76 C 20.74 183.88 15.11 171.72 10.94 159.13 C 10.02 156.51 10.03 153.68 9.21 151.05 C 7.00 146.67 8.07 141.56 6.85 136.92 C 5.24 119.28 6.89 101.15 13.25 84.51 C 15.61 78.63 17.00 72.21 20.98 67.13 C 27.01 55.13 35.65 44.57 45.62 35.62 C 49.94 30.81 55.55 27.55 60.69 23.73 C 63.93 21.38 67.65 19.85 71.24 18.12 M 57.34 52.26 C 54.27 53.51 52.46 56.67 52.63 59.95 C 52.54 102.30 52.64 144.65 52.58 187.00 C 51.73 192.13 55.05 198.52 60.98 197.65 C 102.32 197.65 143.66 197.64 185.00 197.65 C 188.33 197.61 191.69 197.87 194.99 197.38 C 197.81 196.18 199.87 193.17 199.53 190.04 C 199.58 147.70 199.50 105.35 199.57 63.00 C 199.47 60.00 200.08 56.54 197.84 54.12 C 196.34 51.93 193.55 51.24 191.03 51.36 C 148.35 51.37 105.67 51.41 62.98 51.34 C 61.08 51.41 59.03 51.20 57.34 52.26 Z" />
</g>
<g id="#02a0e9ff">
<path fill="#02a0e9" opacity="1.00" d=" M 116.59 63.56 C 119.95 59.09 126.53 58.51 131.33 60.80 C 134.55 62.97 135.70 66.82 136.89 70.30 C 139.61 73.18 143.90 73.64 146.99 76.06 C 155.23 80.77 163.28 85.92 172.03 89.68 C 176.29 87.62 181.11 85.04 185.88 87.24 C 194.22 90.09 194.95 103.13 187.49 107.40 C 182.42 110.10 176.61 108.33 172.05 105.47 C 161.13 110.37 151.24 117.26 140.52 122.54 C 139.40 123.19 137.80 124.31 138.86 125.77 C 145.93 129.39 152.84 133.35 159.85 137.10 C 163.89 139.18 167.57 142.08 171.93 143.50 C 175.62 142.44 178.94 139.62 183.04 140.54 C 190.59 141.08 194.76 150.20 191.68 156.70 C 189.79 160.66 185.36 163.12 180.98 162.60 C 177.61 162.96 175.00 160.51 171.95 159.60 C 168.44 161.06 165.22 163.11 161.67 164.47 C 161.90 164.82 162.13 165.18 162.36 165.53 C 156.45 167.01 151.86 171.19 146.31 173.43 C 143.26 174.87 140.47 176.81 137.67 178.66 C 135.90 182.61 134.29 187.32 129.87 189.05 C 125.66 190.23 120.56 189.85 117.18 186.80 C 114.84 184.35 114.68 180.75 113.18 177.85 C 110.94 175.95 108.27 174.66 105.65 173.38 C 96.85 169.27 88.84 163.60 79.98 159.64 C 75.90 162.22 70.87 163.62 66.18 161.92 C 61.99 160.03 59.55 155.53 60.33 150.97 C 59.67 144.71 66.22 139.97 72.02 140.46 C 75.63 140.12 77.85 143.50 80.96 144.59 C 85.92 143.67 89.77 140.07 94.35 138.18 C 97.58 136.91 100.01 134.27 103.29 133.11 C 106.73 131.73 109.49 128.33 113.42 128.56 C 113.87 128.78 114.77 129.22 115.22 129.44 C 115.74 130.30 116.26 131.15 116.79 132.01 L 117.31 132.82 C 114.61 135.12 111.30 136.40 107.94 137.35 C 108.00 137.75 108.07 138.14 108.14 138.54 C 104.59 139.24 101.14 140.36 97.88 141.93 C 92.84 144.35 87.55 146.18 82.46 148.50 C 82.35 151.15 82.02 153.83 82.49 156.47 C 87.12 159.55 92.86 160.29 97.79 162.80 C 102.89 165.49 108.31 167.48 113.70 169.51 C 117.44 171.26 123.35 168.55 123.19 164.06 C 123.40 154.83 123.29 145.58 123.17 136.34 C 125.17 136.42 127.17 136.36 129.17 136.29 C 129.74 145.85 129.28 155.43 129.40 164.99 C 128.81 168.91 133.57 171.70 136.99 170.29 C 142.90 168.48 148.17 165.02 154.24 163.62 C 154.04 163.17 153.84 162.72 153.65 162.28 C 155.56 162.20 157.46 162.10 159.37 161.98 C 159.17 161.44 158.98 160.91 158.78 160.38 C 162.68 159.28 167.21 158.88 170.20 155.87 C 170.68 152.95 170.37 149.97 170.31 147.03 C 164.09 143.92 157.54 141.57 151.15 138.85 C 145.54 136.68 140.27 133.46 134.26 132.53 L 134.59 131.95 C 137.62 127.58 137.11 121.70 134.71 117.17 C 137.12 116.14 139.59 115.28 142.12 114.57 C 142.04 114.19 141.97 113.81 141.89 113.43 C 148.88 111.68 155.36 108.49 162.03 105.85 C 164.87 104.76 167.62 103.45 170.27 101.95 C 170.41 98.99 170.41 96.03 170.23 93.08 C 167.73 91.75 165.15 90.53 162.43 89.71 C 158.50 88.52 154.97 86.26 150.90 85.50 C 150.94 85.12 150.99 84.74 151.03 84.36 C 146.09 82.99 141.41 80.89 136.62 79.09 C 133.17 77.44 128.86 81.32 129.47 84.94 C 129.52 94.39 129.38 103.84 129.61 113.29 C 127.45 113.24 125.30 113.14 123.16 112.96 C 123.41 105.31 123.18 97.65 123.32 90.00 C 123.42 87.15 123.13 84.30 122.55 81.50 C 119.66 80.32 116.39 78.64 113.31 80.27 C 103.17 84.93 92.88 89.21 82.48 93.24 C 82.30 95.77 82.38 98.32 82.69 100.84 C 91.78 104.42 100.61 108.79 110.03 111.43 C 110.01 111.83 110.00 112.23 109.99 112.63 C 112.53 113.46 115.05 114.39 117.60 115.20 C 116.25 117.39 114.77 119.50 113.40 121.68 C 102.65 115.84 92.30 109.08 80.96 104.35 C 76.21 109.79 65.93 110.82 61.78 104.22 C 59.75 101.60 60.36 98.03 60.45 94.96 C 61.08 89.48 66.86 86.09 72.03 86.44 C 75.31 86.55 77.77 89.45 80.99 89.66 C 88.38 87.47 93.95 81.55 101.42 79.51 C 101.14 79.18 100.85 78.84 100.56 78.51 C 105.64 77.36 110.00 74.31 114.27 71.46 C 114.54 68.73 114.54 65.66 116.59 63.56 Z" />
</g>
<g id="#c85560ff">
<path fill="#c85560" opacity="1.00" d=" M 121.07 114.21 C 121.59 113.89 122.64 113.27 123.16 112.96 C 125.30 113.14 127.45 113.24 129.61 113.29 C 131.35 114.53 133.08 115.79 134.71 117.17 C 137.11 121.70 137.62 127.58 134.59 131.95 C 134.11 126.78 135.66 120.43 131.58 116.36 C 128.11 115.48 124.51 115.24 121.07 114.21 Z" />
</g>
<g id="#e50112ff">
<path fill="#e50112" opacity="1.00" d=" M 121.07 114.21 C 124.51 115.24 128.11 115.48 131.58 116.36 C 135.66 120.43 134.11 126.78 134.59 131.95 L 134.26 132.53 C 133.70 132.93 132.58 133.74 132.02 134.14 C 126.81 134.87 121.47 134.57 116.79 132.01 C 116.26 131.15 115.74 130.30 115.22 129.44 C 114.07 124.08 115.99 118.70 119.88 114.94 C 120.18 114.76 120.78 114.39 121.07 114.21 Z" />
</g>
<g id="#b26479ff">
<path fill="#b26479" opacity="1.00" d=" M 117.60 115.20 C 118.17 115.13 119.31 115.00 119.88 114.94 C 115.99 118.70 114.07 124.08 115.22 129.44 C 114.77 129.22 113.87 128.78 113.42 128.56 C 113.02 126.29 113.01 123.94 113.40 121.68 C 114.77 119.50 116.25 117.39 117.60 115.20 Z" />
</g>
<g id="#cc5866ff">
<path fill="#cc5866" opacity="1.00" d=" M 116.79 132.01 C 121.47 134.57 126.81 134.87 132.02 134.14 C 131.06 134.84 130.11 135.56 129.17 136.29 C 127.17 136.36 125.17 136.42 123.17 136.34 C 121.10 135.37 119.09 134.26 117.31 132.82 L 116.79 132.01 Z" />
</g>
<g id="#feffffff">
<path fill="#feffff" opacity="1.00" d=" M 132.02 134.14 C 132.58 133.74 133.70 132.93 134.26 132.53 C 140.27 133.46 145.54 136.68 151.15 138.85 C 157.54 141.57 164.09 143.92 170.31 147.03 C 170.37 149.97 170.68 152.95 170.20 155.87 C 167.21 158.88 162.68 159.28 158.78 160.38 C 158.98 160.91 159.17 161.44 159.37 161.98 C 157.46 162.10 155.56 162.20 153.65 162.28 C 153.84 162.72 154.04 163.17 154.24 163.62 C 148.17 165.02 142.90 168.48 136.99 170.29 C 133.57 171.70 128.81 168.91 129.40 164.99 C 129.28 155.43 129.74 145.85 129.17 136.29 C 130.11 135.56 131.06 134.84 132.02 134.14 Z" />
</g>
</svg>
