<?xml version="1.0" encoding="utf-8"?>
<!-- Generator: Adobe Illustrator 26.0.3, SVG Export Plug-In . SVG Version: 6.00 Build 0)  -->
<svg version="1.1" id="Layer_1" xmlns="http://www.w3.org/2000/svg" xmlns:xlink="http://www.w3.org/1999/xlink" x="0px" y="0px"
	 viewBox="0 0 250 250" style="enable-background:new 0 0 250 250;" xml:space="preserve">
<style type="text/css">
	.st0{fill:#FFFFFF;}
	.st1{fill:#F04186;}
</style>
<g id="_x23_ffffffff">
	<path class="st0" d="M83.3,58.4c20.6,0.1,41.2,0,61.8,0c10.2,0,21.1,1.2,29.8,6.9c14.2,9.6,17,31.6,6.4,44.8
		c-4.4,5.9-11.5,9-18.5,10.5c7.3,1.2,14.8,3.9,19.9,9.6c9.1,8.9,10,23.5,5.8,35c-3.6,10.1-13.4,16.5-23.2,19.7
		c-5.8,2.3-12,2.5-18.1,3.3c-21.2,0.1-42.4-0.1-63.7,0.1c-0.7-5.1,0-10.3-0.4-15.4c0.1-7.5-0.4-15,0.6-22.4c8.7,0.2,17.3,0.2,26,0
		c0.4,5.2,0.1,10.5,0.2,15.7c0.2,0.2,0.7,0.7,1,1c10.1,0.1,20.3,0,30.4,0c6.1-0.3,12.8-1.5,17.4-5.9c3.9-4.4,4.9-10.8,3.8-16.4
		c-0.7-4.5-4.3-8.2-8.5-9.8c-6.7-2.1-13.8-1.4-20.7-1.5c-27.8,0-55.7,0.1-83.5-0.1c0.4-6.9-0.4-13.9,0.4-20.8c11-0.5,22,0,33-0.2
		C83.1,94.5,82.5,76.5,83.3,58.4 M109.7,79.6c0.1,11,0.1,21.9,0,32.9c9.1,0.3,18.2,0.1,27.4,0.2c4.8,0.1,9.7-0.4,14.1-2.4
		c9.3-4.1,10.8-17.6,4.7-25c-4.8-5-12.2-5.9-18.7-5.9C127.9,79.5,118.8,79.1,109.7,79.6z"/>
</g>
<g id="_x23_f04186ff">
	<path class="st1" d="M116.6,0h16c25,1.6,49.5,10.7,69.3,26.2c28.2,21.6,46,55.9,48.1,91.3v15c-1.3,20.7-7.7,41-18.7,58.6
		c-13.2,21.5-33.3,38.7-56.5,48.7c-12.6,5.6-26.1,8.6-39.8,10.2h-17.6c-24.8-1.6-49.1-10.5-68.7-25.7C20.2,202.6,2,168.2,0,132.6
		v-16.1c2.3-31.3,16.4-61.6,39.5-82.9C60.4,13.9,88.1,2,116.6,0 M83.3,58.4c-0.8,18-0.1,36.1-0.4,54.2c-11,0.3-22-0.2-33,0.2
		c-0.8,6.9,0,13.9-0.4,20.8c27.8,0.2,55.7,0.1,83.5,0.1c6.9,0.1,14-0.6,20.7,1.5c4.2,1.6,7.8,5.3,8.5,9.8c1.2,5.6,0.1,12-3.8,16.4
		c-4.6,4.4-11.2,5.6-17.4,5.9c-10.1,0-20.3,0-30.4,0c-0.2-0.2-0.7-0.7-1-1c-0.1-5.2,0.2-10.5-0.2-15.7c-8.7,0.1-17.3,0.2-26,0
		c-0.9,7.4-0.4,14.9-0.6,22.4c0.4,5.1-0.3,10.3,0.4,15.4c21.2-0.2,42.5,0,63.7-0.1c6.1-0.8,12.3-1,18.1-3.3
		c9.8-3.2,19.6-9.5,23.2-19.7c4.2-11.5,3.4-26.1-5.8-35c-5.1-5.7-12.5-8.4-19.9-9.6c7-1.5,14.1-4.6,18.5-10.5
		C191.8,97,189,75,174.8,65.4c-8.8-5.7-19.6-6.9-29.8-6.9C124.4,58.4,103.8,58.5,83.3,58.4z"/>
	<path class="st1" d="M109.7,79.6c9.1-0.5,18.3-0.1,27.4-0.2c6.6,0,14,0.8,18.7,5.9c6.1,7.4,4.6,20.9-4.7,25
		c-4.4,2-9.3,2.4-14.1,2.4c-9.1,0-18.2,0.2-27.4-0.2C109.8,101.5,109.7,90.5,109.7,79.6z"/>
</g>
</svg>
