<?xml version="1.0" encoding="UTF-8" ?>
<!DOCTYPE svg PUBLIC "-//W3C//DTD SVG 1.1//EN" "http://www.w3.org/Graphics/SVG/1.1/DTD/svg11.dtd">
<svg width="250pt" height="250pt" viewBox="0 0 250 250" version="1.1" xmlns="http://www.w3.org/2000/svg">
<g id="#ffffffff">
<path fill="#ffffff" opacity="1.00" d=" M 0.00 0.00 L 120.59 0.00 C 91.06 1.39 62.01 13.06 40.40 33.36 C 19.78 52.35 5.84 78.46 1.73 106.20 C -3.23 136.98 4.26 169.49 21.78 195.23 C 37.01 217.77 59.76 235.12 85.58 243.69 C 95.93 247.23 106.77 249.12 117.66 250.00 L 0.00 250.00 L 0.00 0.00 Z" />
<path fill="#ffffff" opacity="1.00" d=" M 131.25 0.00 L 250.00 0.00 L 250.00 118.88 C 248.32 83.18 230.50 48.68 202.26 26.76 C 182.11 10.69 156.87 1.73 131.25 0.00 Z" />
<path fill="#ffffff" opacity="1.00" d=" M 117.20 7.16 C 143.59 5.21 170.52 12.66 192.25 27.74 C 215.58 43.79 232.84 68.44 239.72 95.92 C 246.16 121.17 244.01 148.54 233.52 172.40 C 221.61 199.93 198.77 222.53 171.10 234.11 C 147.54 244.14 120.67 246.06 95.88 239.72 C 64.67 231.86 37.22 210.54 21.76 182.34 C 9.22 159.89 4.59 133.30 8.28 107.89 C 12.23 80.15 26.57 54.05 47.80 35.78 C 66.98 19.00 91.76 8.72 117.20 7.16 M 177.80 67.89 C 176.98 69.11 176.17 70.34 175.35 71.56 C 153.54 71.53 131.73 70.81 109.92 70.88 C 103.46 70.83 97.74 74.98 94.71 80.50 C 91.60 88.64 93.30 97.54 92.64 106.03 C 92.63 107.82 92.62 109.62 92.61 111.41 C 89.90 111.40 87.19 111.41 84.49 111.45 C 83.70 111.42 82.14 111.37 81.35 111.35 C 79.47 111.27 77.58 111.15 75.71 111.39 C 67.97 98.88 60.38 86.27 52.50 73.85 C 52.28 87.54 52.21 101.24 52.02 114.94 C 51.65 118.63 51.91 122.36 51.79 126.07 C 51.62 134.59 51.63 143.10 51.43 151.62 C 51.42 153.26 51.40 154.90 51.36 156.54 C 51.34 159.28 51.28 162.01 51.25 164.75 C 50.78 174.59 51.84 184.51 50.66 194.29 C 50.83 194.36 51.16 194.49 51.32 194.55 L 50.88 194.65 C 50.93 198.90 50.50 203.44 52.49 207.37 C 55.38 213.12 61.43 217.47 68.00 217.42 C 77.62 217.52 87.25 217.74 96.88 217.73 C 103.80 217.87 110.74 218.23 117.67 218.07 C 124.80 218.24 131.93 218.17 139.06 218.28 C 147.69 218.68 155.97 211.55 156.68 202.91 C 156.97 197.58 156.74 192.25 156.95 186.93 C 157.18 183.77 157.12 180.62 157.18 177.46 C 159.01 177.45 160.85 177.50 162.68 177.40 C 169.09 177.85 175.54 177.86 181.96 177.63 C 189.26 177.51 196.55 171.50 197.26 164.20 C 198.59 163.22 198.12 161.38 198.21 159.96 C 198.20 154.33 198.31 148.69 198.37 143.06 C 198.45 139.02 198.45 134.97 198.53 130.92 C 198.66 124.98 198.65 119.03 198.74 113.09 C 198.77 110.78 198.95 108.46 198.76 106.16 C 199.20 97.50 199.09 88.82 199.20 80.15 C 199.26 76.08 199.28 72.00 199.34 67.93 C 199.47 56.87 199.59 45.81 199.64 34.74 C 192.22 45.70 185.01 56.79 177.80 67.89 Z" />
<path fill="#ffffff" opacity="1.00" d=" M 116.56 102.60 C 116.41 98.53 119.75 94.69 123.92 94.80 C 137.28 94.74 150.64 95.06 163.99 95.24 C 166.10 95.33 168.26 95.27 170.33 95.77 C 173.23 96.84 175.10 99.91 175.09 102.96 C 175.22 108.77 174.75 114.58 174.94 120.39 C 174.81 124.49 174.90 128.60 174.79 132.70 C 174.74 136.15 174.74 139.60 174.62 143.05 C 174.53 145.14 174.38 147.24 174.26 149.34 C 170.86 155.49 163.10 153.67 157.33 153.80 C 157.40 151.48 157.46 149.17 157.50 146.85 C 157.54 140.90 157.70 134.95 157.67 129.00 C 157.67 120.37 150.04 112.44 141.36 112.37 C 135.00 112.12 128.62 112.04 122.26 111.71 C 120.32 111.65 118.38 111.60 116.44 111.55 C 116.49 108.56 116.48 105.58 116.56 102.60 Z" />
<path fill="#ffffff" opacity="1.00" d=" M 214.02 212.98 C 235.51 191.42 248.46 161.80 250.00 131.43 L 250.00 250.00 L 132.19 250.00 C 162.80 248.27 192.57 234.91 214.02 212.98 Z" />
<path fill="#ffffff" opacity="1.00" d=" M 76.10 139.13 C 77.16 136.54 80.03 135.72 82.53 135.25 C 85.78 135.09 89.03 135.14 92.28 135.18 C 92.52 143.12 92.25 151.05 92.19 158.98 C 91.81 166.59 97.12 174.20 104.51 176.20 C 110.43 177.41 116.51 177.11 122.51 177.15 C 125.40 177.15 128.29 177.09 131.18 177.14 C 131.74 177.16 132.87 177.19 133.43 177.21 C 133.30 180.81 133.55 184.44 133.13 188.03 C 132.66 191.44 129.55 194.40 126.02 194.23 C 113.62 194.21 101.22 194.25 88.83 193.80 C 85.49 193.72 82.16 193.58 78.83 193.39 C 76.05 191.53 74.56 188.31 74.70 185.00 C 74.74 176.53 75.10 168.06 74.96 159.59 C 75.11 155.91 75.17 152.22 75.25 148.54 C 75.44 145.40 75.14 142.15 76.10 139.13 Z" />
<path fill="#ffffff" opacity="1.00" d=" M 116.16 135.35 C 118.43 135.38 120.71 135.40 122.98 135.50 C 126.05 135.78 129.57 135.82 131.95 138.06 C 134.15 140.42 133.53 143.88 133.72 146.83 C 133.75 149.13 133.72 151.44 133.60 153.75 C 131.81 153.70 130.02 153.68 128.23 153.64 C 126.72 153.60 125.20 153.52 123.69 153.40 C 122.31 153.11 120.95 152.75 119.60 152.35 C 118.14 151.14 116.50 149.74 116.33 147.71 C 115.97 143.60 116.20 139.47 116.16 135.35 Z" />
</g>
<g id="#34af3aff">
<path fill="#34af3a" opacity="1.00" d=" M 120.59 0.00 L 131.25 0.00 C 156.87 1.73 182.11 10.69 202.26 26.76 C 230.50 48.68 248.32 83.18 250.00 118.88 L 250.00 131.43 C 248.46 161.80 235.51 191.42 214.02 212.98 C 192.57 234.91 162.80 248.27 132.19 250.00 L 117.66 250.00 C 106.77 249.12 95.93 247.23 85.58 243.69 C 59.76 235.12 37.01 217.77 21.78 195.23 C 4.26 169.49 -3.23 136.98 1.73 106.20 C 5.84 78.46 19.78 52.35 40.40 33.36 C 62.01 13.06 91.06 1.39 120.59 0.00 M 117.20 7.16 C 91.76 8.72 66.98 19.00 47.80 35.78 C 26.57 54.05 12.23 80.15 8.28 107.89 C 4.59 133.30 9.22 159.89 21.76 182.34 C 37.22 210.54 64.67 231.86 95.88 239.72 C 120.67 246.06 147.54 244.14 171.10 234.11 C 198.77 222.53 221.61 199.93 233.52 172.40 C 244.01 148.54 246.16 121.17 239.72 95.92 C 232.84 68.44 215.58 43.79 192.25 27.74 C 170.52 12.66 143.59 5.21 117.20 7.16 Z" />
</g>
<g id="#72a8cfff">
<path fill="#72a8cf" opacity="1.00" d=" M 177.80 67.89 C 185.01 56.79 192.22 45.70 199.64 34.74 C 199.59 45.81 199.47 56.87 199.34 67.93 C 192.16 67.85 184.98 67.91 177.80 67.89 Z" />
</g>
<g id="#64a0caff">
<path fill="#64a0ca" opacity="1.00" d=" M 177.80 67.89 C 184.98 67.91 192.16 67.85 199.34 67.93 C 199.28 72.00 199.26 76.08 199.20 80.15 C 171.14 80.22 143.09 80.11 115.03 80.23 C 108.26 80.23 101.47 79.99 94.71 80.50 C 97.74 74.98 103.46 70.83 109.92 70.88 C 131.73 70.81 153.54 71.53 175.35 71.56 C 176.17 70.34 176.98 69.11 177.80 67.89 Z" />
</g>
<g id="#50f458ff">
<path fill="#50f458" opacity="1.00" d=" M 52.50 73.85 C 60.38 86.27 67.97 98.88 75.71 111.39 C 68.86 112.75 61.90 111.36 55.01 112.04 C 53.37 112.05 52.82 113.83 52.02 114.94 C 52.21 101.24 52.28 87.54 52.50 73.85 Z" />
</g>
<g id="#5698c5ff">
<path fill="#5698c5" opacity="1.00" d=" M 94.71 80.50 C 101.47 79.99 108.26 80.23 115.03 80.23 C 143.09 80.11 171.14 80.22 199.20 80.15 C 199.09 88.82 199.20 97.50 198.76 106.16 C 198.48 105.38 197.94 103.82 197.66 103.04 C 190.52 102.35 183.29 102.43 176.15 103.04 C 175.83 106.39 175.84 109.75 175.95 113.12 C 175.81 115.57 175.33 117.97 174.94 120.39 C 174.75 114.58 175.22 108.77 175.09 102.96 C 175.10 99.91 173.23 96.84 170.33 95.77 C 168.26 95.27 166.10 95.33 163.99 95.24 C 150.64 95.06 137.28 94.74 123.92 94.80 C 119.75 94.69 116.41 98.53 116.56 102.60 C 109.40 102.68 102.24 102.53 95.09 102.81 C 94.27 103.88 93.46 104.96 92.64 106.03 C 93.30 97.54 91.60 88.64 94.71 80.50 Z" />
</g>
<g id="#3f8abaff">
<path fill="#3f8aba" opacity="1.00" d=" M 95.09 102.81 C 102.24 102.53 109.40 102.68 116.56 102.60 C 116.48 105.58 116.49 108.56 116.44 111.55 C 116.42 112.90 116.40 114.25 116.39 115.59 C 108.43 115.26 100.50 116.57 92.55 115.73 C 92.57 114.29 92.59 112.85 92.61 111.41 C 92.62 109.62 92.63 107.82 92.64 106.03 C 93.46 104.96 94.27 103.88 95.09 102.81 Z" />
</g>
<g id="#438ebeff">
<path fill="#438ebe" opacity="1.00" d=" M 176.15 103.04 C 183.29 102.43 190.52 102.35 197.66 103.04 C 197.94 103.82 198.48 105.38 198.76 106.16 C 198.95 108.46 198.77 110.78 198.74 113.09 C 191.14 113.22 183.54 113.21 175.95 113.12 C 175.84 109.75 175.83 106.39 176.15 103.04 Z" />
</g>
<g id="#4ce954ff">
<path fill="#4ce954" opacity="1.00" d=" M 52.02 114.94 C 52.82 113.83 53.37 112.05 55.01 112.04 C 61.90 111.36 68.86 112.75 75.71 111.39 C 77.58 111.15 79.47 111.27 81.35 111.35 C 82.15 116.37 82.25 124.75 75.68 125.65 C 67.77 126.68 59.75 125.90 51.79 126.07 C 51.91 122.36 51.65 118.63 52.02 114.94 Z" />
</g>
<g id="#47dd4fff">
<path fill="#47dd4f" opacity="1.00" d=" M 81.35 111.35 C 82.14 111.37 83.70 111.42 84.49 111.45 C 85.14 114.24 85.78 117.08 85.62 119.97 C 85.54 125.23 83.24 130.09 82.53 135.25 C 80.03 135.72 77.16 136.54 76.10 139.13 C 75.14 142.15 75.44 145.40 75.25 148.54 C 69.54 149.58 63.75 149.93 57.95 149.72 C 55.60 149.52 53.46 150.57 51.43 151.62 C 51.63 143.10 51.62 134.59 51.79 126.07 C 59.75 125.90 67.77 126.68 75.68 125.65 C 82.25 124.75 82.15 116.37 81.35 111.35 Z" />
</g>
<g id="#3cbe43ff">
<path fill="#3cbe43" opacity="1.00" d=" M 84.49 111.45 C 87.19 111.41 89.90 111.40 92.61 111.41 C 92.59 112.85 92.57 114.29 92.55 115.73 C 92.49 119.01 92.41 122.29 92.38 125.56 C 92.36 128.59 92.25 131.63 92.27 134.66 L 92.28 135.18 C 89.03 135.14 85.78 135.09 82.53 135.25 C 83.24 130.09 85.54 125.23 85.62 119.97 C 85.78 117.08 85.14 114.24 84.49 111.45 Z" />
</g>
<g id="#3cbf43ff">
<path fill="#3cbf43" opacity="1.00" d=" M 116.44 111.55 C 118.38 111.60 120.32 111.65 122.26 111.71 C 120.85 119.12 122.59 126.51 124.43 133.67 C 124.07 134.12 123.34 135.04 122.98 135.50 C 120.71 135.40 118.43 135.38 116.16 135.35 C 116.22 131.92 116.27 128.50 116.28 125.08 C 116.31 121.92 116.35 118.76 116.39 115.59 C 116.40 114.25 116.42 112.90 116.44 111.55 Z" />
</g>
<g id="#49e250ff">
<path fill="#49e250" opacity="1.00" d=" M 122.26 111.71 C 128.62 112.04 135.00 112.12 141.36 112.37 C 150.04 112.44 157.67 120.37 157.67 129.00 C 157.70 134.95 157.54 140.90 157.50 146.85 C 149.58 146.65 141.65 146.71 133.72 146.83 C 133.53 143.88 134.15 140.42 131.95 138.06 C 129.57 135.82 126.05 135.78 122.98 135.50 C 123.34 135.04 124.07 134.12 124.43 133.67 C 122.59 126.51 120.85 119.12 122.26 111.71 Z" />
</g>
<g id="#3485b9ff">
<path fill="#3485b9" opacity="1.00" d=" M 175.95 113.12 C 183.54 113.21 191.14 113.22 198.74 113.09 C 198.65 119.03 198.66 124.98 198.53 130.92 C 192.34 131.13 186.15 130.72 179.95 130.83 C 178.03 130.72 176.39 131.79 174.79 132.70 C 174.90 128.60 174.81 124.49 174.94 120.39 C 175.33 117.97 175.81 115.57 175.95 113.12 Z" />
</g>
<g id="#2b78a7ff">
<path fill="#2b78a7" opacity="1.00" d=" M 92.55 115.73 C 100.50 116.57 108.43 115.26 116.39 115.59 C 116.35 118.76 116.31 121.92 116.28 125.08 C 108.32 125.67 100.35 126.72 92.38 125.56 C 92.41 122.29 92.49 119.01 92.55 115.73 Z" />
</g>
<g id="#186695ff">
<path fill="#186695" opacity="1.00" d=" M 92.38 125.56 C 100.35 126.72 108.32 125.67 116.28 125.08 C 116.27 128.50 116.22 131.92 116.16 135.35 C 116.20 139.47 115.97 143.60 116.33 147.71 C 116.50 149.74 118.14 151.14 119.60 152.35 C 114.45 154.05 108.80 153.78 103.61 152.41 C 96.25 149.95 91.74 142.29 92.27 134.66 C 92.25 131.63 92.36 128.59 92.38 125.56 Z" />
</g>
<g id="#257db3ff">
<path fill="#257db3" opacity="1.00" d=" M 174.79 132.70 C 176.39 131.79 178.03 130.72 179.95 130.83 C 186.15 130.72 192.34 131.13 198.53 130.92 C 198.45 134.97 198.45 139.02 198.37 143.06 C 190.45 143.05 182.54 143.10 174.62 143.05 C 174.74 139.60 174.74 136.15 174.79 132.70 Z" />
</g>
<g id="#1171abff">
<path fill="#1171ab" opacity="1.00" d=" M 92.28 135.18 L 92.27 134.66 C 91.74 142.29 96.25 149.95 103.61 152.41 C 108.80 153.78 114.45 154.05 119.60 152.35 C 120.95 152.75 122.31 153.11 123.69 153.40 C 123.66 156.60 123.94 159.80 124.21 162.99 C 124.60 167.78 123.22 172.46 122.51 177.15 C 116.51 177.11 110.43 177.41 104.51 176.20 C 97.12 174.20 91.81 166.59 92.19 158.98 C 92.25 151.05 92.52 143.12 92.28 135.18 Z" />
</g>
<g id="#1b77b0ff">
<path fill="#1b77b0" opacity="1.00" d=" M 174.62 143.05 C 182.54 143.10 190.45 143.05 198.37 143.06 C 198.31 148.69 198.20 154.33 198.21 159.96 C 198.12 161.38 198.59 163.22 197.26 164.20 L 197.06 164.17 C 197.33 161.85 197.09 159.54 196.64 157.27 C 189.37 156.78 182.04 156.81 174.81 157.70 C 174.77 154.91 174.42 152.13 174.26 149.34 C 174.38 147.24 174.53 145.14 174.62 143.05 Z" />
</g>
<g id="#42d249ff">
<path fill="#42d249" opacity="1.00" d=" M 133.72 146.83 C 141.65 146.71 149.58 146.65 157.50 146.85 C 157.46 149.17 157.40 151.48 157.33 153.80 C 157.23 157.24 157.20 160.67 157.22 164.11 C 156.64 162.85 156.01 161.62 155.39 160.39 C 148.75 159.80 142.08 159.92 135.43 160.26 C 135.30 163.46 134.91 166.67 133.59 169.62 C 133.46 164.33 133.24 159.03 133.60 153.75 C 133.72 151.44 133.75 149.13 133.72 146.83 Z" />
</g>
<g id="#40cb46ff">
<path fill="#40cb46" opacity="1.00" d=" M 57.95 149.72 C 63.75 149.93 69.54 149.58 75.25 148.54 C 75.17 152.22 75.11 155.91 74.96 159.59 L 74.99 158.57 C 74.18 157.88 73.68 156.41 72.40 156.57 C 65.41 156.40 58.22 158.15 51.36 156.54 C 51.40 154.90 51.42 153.26 51.43 151.62 C 53.46 150.57 55.60 149.52 57.95 149.72 Z" />
</g>
<g id="#0f6192ff">
<path fill="#0f6192" opacity="1.00" d=" M 157.33 153.80 C 163.10 153.67 170.86 155.49 174.26 149.34 C 174.42 152.13 174.77 154.91 174.81 157.70 C 174.55 162.06 174.07 166.71 171.39 170.33 C 169.18 173.42 165.99 175.62 162.68 177.40 C 160.85 177.50 159.01 177.45 157.18 177.46 C 157.26 173.01 157.33 168.56 157.22 164.11 C 157.20 160.67 157.23 157.24 157.33 153.80 Z" />
</g>
<g id="#0e5c8cff">
<path fill="#0e5c8c" opacity="1.00" d=" M 124.21 162.99 C 123.94 159.80 123.66 156.60 123.69 153.40 C 125.20 153.52 126.72 153.60 128.23 153.64 C 129.17 160.60 128.59 167.60 128.55 174.58 C 128.34 176.13 130.15 176.52 131.18 177.14 C 128.29 177.09 125.40 177.15 122.51 177.15 C 123.22 172.46 124.60 167.78 124.21 162.99 Z" />
</g>
<g id="#0c4d74ff">
<path fill="#0c4d74" opacity="1.00" d=" M 128.23 153.64 C 130.02 153.68 131.81 153.70 133.60 153.75 C 133.24 159.03 133.46 164.33 133.59 169.62 C 133.49 172.15 133.48 174.68 133.43 177.21 C 132.87 177.19 131.74 177.16 131.18 177.14 C 130.15 176.52 128.34 176.13 128.55 174.58 C 128.59 167.60 129.17 160.60 128.23 153.64 Z" />
</g>
<g id="#3abc41ff">
<path fill="#3abc41" opacity="1.00" d=" M 51.25 164.75 C 51.28 162.01 51.34 159.28 51.36 156.54 C 58.22 158.15 65.41 156.40 72.40 156.57 C 73.68 156.41 74.18 157.88 74.99 158.57 C 74.23 160.22 74.45 162.93 72.22 163.37 C 65.42 165.38 58.20 163.71 51.25 164.75 Z" />
</g>
<g id="#0e70abff">
<path fill="#0e70ab" opacity="1.00" d=" M 174.81 157.70 C 182.04 156.81 189.37 156.78 196.64 157.27 C 197.09 159.54 197.33 161.85 197.06 164.17 L 197.26 164.20 C 196.55 171.50 189.26 177.51 181.96 177.63 C 175.54 177.86 169.09 177.85 162.68 177.40 C 165.99 175.62 169.18 173.42 171.39 170.33 C 174.07 166.71 174.55 162.06 174.81 157.70 Z" />
</g>
<g id="#32a437ff">
<path fill="#32a437" opacity="1.00" d=" M 74.99 158.57 L 74.96 159.59 C 75.10 168.06 74.74 176.53 74.70 185.00 C 74.56 188.31 76.05 191.53 78.83 193.39 C 73.52 194.28 67.95 194.81 62.69 193.29 C 58.00 191.73 55.10 187.47 51.88 184.01 C 51.67 187.45 51.12 191.00 52.35 194.34 C 52.10 194.39 51.58 194.50 51.32 194.55 C 51.16 194.49 50.83 194.36 50.66 194.29 C 51.84 184.51 50.78 174.59 51.25 164.75 C 58.20 163.71 65.42 165.38 72.22 163.37 C 74.45 162.93 74.23 160.22 74.99 158.57 Z" />
</g>
<g id="#3ec744ff">
<path fill="#3ec744" opacity="1.00" d=" M 135.43 160.26 C 142.08 159.92 148.75 159.80 155.39 160.39 C 156.01 161.62 156.64 162.85 157.22 164.11 C 157.33 168.56 157.26 173.01 157.18 177.46 C 157.12 180.62 157.18 183.77 156.95 186.93 C 149.96 186.90 142.95 186.58 135.97 186.88 C 134.36 186.68 134.09 188.68 133.78 189.80 C 132.62 196.11 134.51 203.16 130.83 208.87 C 128.06 213.76 122.65 216.09 117.67 218.07 C 110.74 218.23 103.80 217.87 96.88 217.73 C 98.09 217.30 99.28 216.81 100.48 216.34 C 100.58 209.86 98.51 203.44 94.93 198.06 C 93.54 195.89 91.09 194.81 88.83 193.80 C 101.22 194.25 113.62 194.21 126.02 194.23 C 129.55 194.40 132.66 191.44 133.13 188.03 C 133.55 184.44 133.30 180.81 133.43 177.21 C 133.48 174.68 133.49 172.15 133.59 169.62 C 134.91 166.67 135.30 163.46 135.43 160.26 Z" />
</g>
<g id="#36b53dff">
<path fill="#36b53d" opacity="1.00" d=" M 51.88 184.01 C 55.10 187.47 58.00 191.73 62.69 193.29 C 67.95 194.81 73.52 194.28 78.83 193.39 C 82.16 193.58 85.49 193.72 88.83 193.80 C 91.09 194.81 93.54 195.89 94.93 198.06 C 98.51 203.44 100.58 209.86 100.48 216.34 C 99.28 216.81 98.09 217.30 96.88 217.73 C 87.25 217.74 77.62 217.52 68.00 217.42 C 61.43 217.47 55.38 213.12 52.49 207.37 C 50.50 203.44 50.93 198.90 50.88 194.65 L 51.32 194.55 C 51.58 194.50 52.10 194.39 52.35 194.34 C 51.12 191.00 51.67 187.45 51.88 184.01 Z" />
<path fill="#36b53d" opacity="1.00" d=" M 133.78 189.80 C 134.09 188.68 134.36 186.68 135.97 186.88 C 142.95 186.58 149.96 186.90 156.95 186.93 C 156.74 192.25 156.97 197.58 156.68 202.91 C 155.97 211.55 147.69 218.68 139.06 218.28 C 131.93 218.17 124.80 218.24 117.67 218.07 C 122.65 216.09 128.06 213.76 130.83 208.87 C 134.51 203.16 132.62 196.11 133.78 189.80 Z" />
</g>
</svg>
