<?xml version="1.0" encoding="utf-8"?>
<!-- Generator: Adobe Illustrator 26.0.3, SVG Export Plug-In . SVG Version: 6.00 Build 0)  -->
<svg version="1.1" id="Layer_1" xmlns="http://www.w3.org/2000/svg" xmlns:xlink="http://www.w3.org/1999/xlink" x="0px" y="0px"
	 viewBox="0 0 250 249" style="enable-background:new 0 0 250 249;" xml:space="preserve">
<style type="text/css">
	.st0{fill:#FFFFFF;}
	.st1{fill:#F44336;}
</style>
<circle class="st0" cx="125" cy="124.5" r="125"/>
<g id="_x23_ffffffff">
	<path class="st0" d="M125.5,65.7c1.4-1.2,2.7,0.3,3.9,1c5,3.7,10.3,7.1,15.3,10.8c0,0.2,0,0.6,0,0.7c-5.7,3.8-11.4,7.5-17.2,11.2
		c-1.1,0.9-2.2-0.2-3.1-0.8c-5.4-3.9-11-7.6-16.4-11.6C113.9,73.3,119.7,69.4,125.5,65.7z"/>
	<path class="st0" d="M68.4,158.2c0.2-21.1,0.5-42.2,1.1-63.3c3.1,2.1,6.1,4.2,9.3,6.2c0,16.6-0.6,33.1-0.5,49.7
		c15.2,10.4,30.2,21.1,45.3,31.6c1,0.9,2.5,0.4,3.4-0.4c15.2-10,30.4-19.9,45.6-29.9c0.4-16.1,0.9-32.3,1-48.4
		c3.2-2.4,6.4-4.6,9.7-6.8c-0.1,21.1-0.9,42.2-0.9,63.3c-18.2,12.2-36.7,24-55,36.1c-1.2,0.6-2.5,2.2-3.8,1
		C105.2,184.3,86.8,171.2,68.4,158.2z"/>
	<path class="st0" d="M91.5,110.9c11.5,7.6,22.8,15.4,34.4,22.9c11.5-7.3,23.2-14.2,34.7-21.5c0.1,10.9-0.2,21.8-0.3,32.7
		c-11.8,7.5-23.4,15.4-35.2,22.8c-10.7-7.6-21.5-15.1-32.3-22.6c-1-0.7-2.4-1.6-2-3.1C91.5,131.7,91.1,121.3,91.5,110.9z"/>
</g>
<g id="_x23_f44336ff">
	<path class="st1" d="M79.9,36.1c4.4,2.5,8.4,5.8,12.7,8.6c0,7.6-0.3,15.2-0.2,22.8c1.2,0.8,2.4,1.5,3.5,2.3
		c10.3-6.6,20.9-12.9,31.2-19.6c10.6,6.4,20.4,14.1,30.8,20.7c1.2-0.8,2.4-1.7,3.6-2.5c0.4-7.3-0.2-14.9,0.7-22.1
		c3.9-3.2,8.5-5.5,12.5-8.5c0.1,12.5-0.3,25-0.4,37.5c-16,10.6-32.1,21.1-48.2,31.5C110.8,95.6,95.1,85,79.6,74
		C79.3,61.4,79.8,48.7,79.9,36.1 M125.5,65.7c-5.8,3.8-11.6,7.7-17.5,11.4c5.4,3.9,11,7.7,16.4,11.6c0.9,0.5,2,1.7,3.1,0.8
		c5.8-3.7,11.5-7.5,17.2-11.2c0-0.2,0-0.6,0-0.7c-5-3.7-10.2-7.1-15.3-10.8C128.3,66,126.9,64.5,125.5,65.7z"/>
	<path class="st1" d="M37.8,59.1c1.6,0.8,3.1,1.6,4.5,2.6c27.9,19,56,37.8,83.9,56.9c27.5-16.9,54.9-34,82.4-51
		c2.5-1.5,4.9-3.4,7.7-4.4c-0.1,4.6-0.7,9.2-0.5,13.8c-6.4,3.9-13,7.8-19.5,11.7c-0.2,7.2,0.1,14.4-0.6,21.6
		c6.1,4.6,12.7,8.6,19,12.9c0.1,4.8,0,9.7-0.2,14.6c-6.2-4-12.3-8.3-18.8-11.9c-0.3,12.4-0.4,24.8-0.6,37.2c0.1,1.5-0.2,3.1,0.2,4.6
		c6.8,4.9,14.1,9.1,20.7,14.3c-28.6,18.2-57.2,36.5-85.8,55c-0.1-5.1,0.1-10.3,0.1-15.4c21.4-13.3,42.9-26.5,64.3-39.8
		c0-0.2-0.1-0.7-0.1-0.9c-2.8-2-5.7-3.9-8.5-5.9c-1.7-1.4-3.4,0.7-4.8,1.5c-19,12.4-37.9,24.9-57,37.2
		c-19.8-13.9-39.5-27.8-59.5-41.4c-3.4,0.5-5.9,3.4-9,4.9c0.8,2.1,3.2,2.9,4.9,4.3c19,13.4,38.1,26.5,56.9,40
		c0.2,5.1-0.1,10.2-0.2,15.3c-27.2-19.5-54.2-39.2-81.2-58.9c0-0.3,0-0.8,0.1-1.1c5.7-3.7,11.4-7.3,17.1-11c1.2-0.6,1.9-2,1.7-3.3
		c0.1-13.2,0.5-26.3,0.5-39.5c-6.3,4-12.8,7.9-19.2,11.8c0-4.9,0.1-9.8,0.2-14.6c6.4-4,13-7.8,19.5-11.7c0.1-7.3,0.4-14.6,0.3-21.9
		c-6.4-3.9-12.5-8.3-18.8-12.3C37.7,68.9,37.8,64,37.8,59.1 M68.4,158.2c18.4,13,36.8,26,55.2,39.1c1.3,1.2,2.6-0.4,3.8-1
		c18.3-12.1,36.8-23.9,55-36.1c0-21.1,0.8-42.2,0.9-63.3c-3.3,2.2-6.5,4.5-9.7,6.8c-0.1,16.2-0.7,32.3-1,48.4
		c-15.2,10-30.4,19.9-45.6,29.9c-0.9,0.7-2.4,1.3-3.4,0.4c-15.1-10.5-30.2-21.1-45.3-31.6c-0.1-16.6,0.5-33.1,0.5-49.7
		c-3.1-2-6.2-4.1-9.3-6.2C68.9,116,68.5,137.1,68.4,158.2 M91.5,110.9c-0.4,10.4,0,20.8-0.7,31.3c-0.4,1.5,0.9,2.4,2,3.1
		c10.8,7.5,21.6,15,32.3,22.6c11.9-7.4,23.4-15.3,35.2-22.8c0.1-10.9,0.4-21.8,0.3-32.7c-11.5,7.3-23.3,14.1-34.7,21.5
		C114.3,126.3,102.9,118.5,91.5,110.9z"/>
</g>
</svg>
