<?xml version="1.0" encoding="UTF-8" ?>
<!DOCTYPE svg PUBLIC "-//W3C//DTD SVG 1.1//EN" "http://www.w3.org/Graphics/SVG/1.1/DTD/svg11.dtd">
<svg width="250pt" height="250pt" viewBox="0 0 250 250" version="1.1" xmlns="http://www.w3.org/2000/svg">
<g id="#ffffffff">
<path fill="#ffffff" opacity="1.00" d=" M 0.00 0.00 L 119.47 0.00 C 91.90 1.36 64.78 11.85 43.86 29.93 C 17.44 52.18 1.24 85.85 0.00 120.34 L 0.00 0.00 Z" />
<path fill="#ffffff" opacity="1.00" d=" M 129.66 0.00 L 250.00 0.00 L 250.00 119.63 C 248.53 85.84 232.82 52.90 207.16 30.81 C 185.87 12.05 158.00 1.09 129.66 0.00 Z" />
<path fill="#ffffff" opacity="1.00" d=" M 221.04 205.01 C 238.68 184.02 248.91 157.09 250.00 129.72 L 250.00 250.00 L 135.19 250.00 C 138.15 249.42 141.14 248.97 144.13 248.53 C 173.93 244.08 201.84 228.22 221.04 205.01 Z" />
<path fill="#ffffff" opacity="1.00" d=" M 0.00 130.37 C 1.48 164.16 17.17 197.10 42.83 219.19 C 64.13 237.95 92.01 248.91 120.36 250.00 L 0.00 250.00 L 0.00 130.37 Z" />
</g>
<g id="#000000ff">
<path fill="#000000" opacity="1.00" d=" M 119.47 0.00 L 129.66 0.00 C 158.00 1.09 185.87 12.05 207.16 30.81 C 232.82 52.90 248.53 85.84 250.00 119.63 L 250.00 129.72 C 248.91 157.09 238.68 184.02 221.04 205.01 C 201.84 228.22 173.93 244.08 144.13 248.53 C 141.14 248.97 138.15 249.42 135.19 250.00 L 120.36 250.00 C 92.01 248.91 64.13 237.95 42.83 219.19 C 17.17 197.10 1.48 164.16 0.00 130.37 L 0.00 120.34 C 1.24 85.85 17.44 52.18 43.86 29.93 C 64.78 11.85 91.90 1.36 119.47 0.00 M 81.34 44.26 C 76.64 47.06 72.16 50.39 68.76 54.72 C 61.85 63.61 50.30 67.93 44.82 78.09 C 44.63 83.57 48.54 88.15 52.07 91.98 C 60.23 101.29 69.36 109.69 77.52 119.00 C 77.48 121.41 77.54 123.99 76.02 126.03 C 69.83 135.76 59.09 141.14 51.81 149.88 C 49.17 152.86 46.22 155.60 44.01 158.94 C 42.87 160.52 43.21 162.70 43.72 164.45 C 46.32 170.06 50.06 175.19 54.88 179.10 C 64.23 186.81 70.18 198.30 80.88 204.40 C 82.33 204.37 83.79 204.35 85.24 204.34 C 90.12 200.97 94.49 196.94 98.78 192.88 C 105.16 185.86 111.31 178.52 118.95 172.82 C 120.99 171.45 123.41 169.91 125.98 170.59 C 130.21 172.08 133.28 175.53 136.24 178.73 C 143.78 187.21 150.23 196.84 159.37 203.77 C 162.08 205.97 165.33 208.38 169.05 207.34 C 178.63 202.63 184.83 193.58 192.78 186.79 C 196.28 183.61 199.96 180.59 203.14 177.07 C 205.82 173.94 207.77 169.30 205.70 165.36 C 198.27 153.02 185.87 145.10 176.36 134.57 C 173.53 131.58 169.63 127.49 171.89 123.08 C 177.15 112.96 187.74 107.44 195.49 99.51 C 199.06 95.71 203.53 92.57 205.95 87.85 C 207.33 85.33 206.36 82.35 204.81 80.17 C 198.55 71.48 188.99 65.89 182.71 57.22 C 178.75 51.95 174.77 46.32 168.95 42.96 C 165.18 41.86 161.69 44.76 158.90 46.97 C 150.93 54.31 143.68 62.40 136.29 70.31 C 132.83 73.66 129.05 77.20 124.05 77.83 C 117.64 73.78 112.18 68.46 106.81 63.15 C 101.17 56.82 95.91 50.06 89.37 44.61 C 87.22 42.55 83.75 42.82 81.34 44.26 Z" />
<path fill="#000000" opacity="1.00" d=" M 161.04 68.59 C 162.00 67.46 162.98 66.35 163.96 65.23 C 164.98 65.87 166.00 66.51 167.02 67.16 C 165.01 67.58 163.03 68.10 161.04 68.59 Z" />
<path fill="#000000" opacity="1.00" d=" M 172.34 69.82 C 176.19 69.10 172.11 74.45 171.28 71.07 C 171.55 70.75 172.08 70.13 172.34 69.82 Z" />
<path fill="#000000" opacity="1.00" d=" M 159.41 72.09 C 160.50 70.74 162.84 72.61 161.87 74.00 C 160.76 75.33 158.44 73.49 159.41 72.09 Z" />
<path fill="#000000" opacity="1.00" d=" M 79.18 74.07 C 79.70 74.26 80.74 74.62 81.26 74.81 C 81.38 75.30 81.62 76.28 81.74 76.77 C 81.12 76.76 79.88 76.73 79.26 76.71 C 79.24 76.05 79.20 74.73 79.18 74.07 Z" />
<path fill="#000000" opacity="1.00" d=" M 156.99 76.96 C 155.22 77.33 154.30 74.32 156.06 73.75 C 157.79 73.40 158.83 76.46 156.99 76.96 Z" />
<path fill="#000000" opacity="1.00" d=" M 145.62 75.87 C 147.04 75.50 147.50 76.00 147.01 77.38 C 145.59 77.75 145.13 77.25 145.62 75.87 Z" />
<path fill="#000000" opacity="1.00" d=" M 68.37 76.93 C 70.01 76.45 70.54 77.01 69.96 78.63 C 68.33 79.11 67.79 78.54 68.37 76.93 Z" />
<path fill="#000000" opacity="1.00" d=" M 73.30 77.38 C 75.71 77.37 78.01 78.16 80.32 78.73 C 77.71 79.77 75.08 80.73 72.42 81.64 C 72.14 80.21 71.40 78.00 73.30 77.38 Z" />
<path fill="#000000" opacity="1.00" d=" M 141.93 80.24 C 139.18 79.27 143.28 75.47 144.21 78.15 C 144.03 79.45 143.27 80.15 141.93 80.24 Z" />
<path fill="#000000" opacity="1.00" d=" M 155.10 83.16 C 155.73 79.67 159.00 78.33 161.96 77.21 C 159.94 79.48 157.70 81.57 155.10 83.16 Z" />
<path fill="#000000" opacity="1.00" d=" M 163.78 78.85 C 164.58 77.59 166.20 77.77 167.46 77.41 C 167.74 80.64 167.18 83.83 166.32 86.93 C 165.39 84.26 164.38 81.62 163.78 78.85 Z" />
<path fill="#000000" opacity="1.00" d=" M 83.30 78.94 C 85.02 78.11 86.65 79.02 88.16 79.79 C 90.16 80.36 93.18 79.58 94.08 82.03 C 95.38 83.66 93.25 85.56 93.02 87.22 C 91.54 85.29 90.31 83.09 90.75 80.55 C 88.92 80.84 87.08 81.06 85.29 81.57 C 88.21 82.61 87.71 85.39 86.94 87.64 C 85.55 86.00 83.86 84.42 83.32 82.27 C 84.00 81.37 84.81 80.59 85.55 79.75 L 83.30 78.94 Z" />
<path fill="#000000" opacity="1.00" d=" M 95.12 78.86 C 96.90 79.78 98.69 80.70 100.47 81.62 C 99.34 84.92 98.06 88.18 96.34 91.22 C 97.15 91.42 98.77 91.81 99.57 92.00 C 98.26 92.93 96.81 93.59 95.24 93.96 C 94.33 93.00 93.41 92.05 92.49 91.09 C 91.32 92.29 90.09 93.43 88.78 94.48 C 89.56 94.87 91.11 95.65 91.88 96.04 C 88.54 96.42 85.18 96.48 81.83 96.60 C 82.98 94.12 85.59 94.48 87.90 94.61 C 87.51 93.69 86.74 91.85 86.35 90.93 C 85.80 91.11 84.69 91.48 84.13 91.67 C 84.12 91.33 84.09 90.65 84.08 90.30 C 84.68 90.38 85.87 90.54 86.46 90.61 C 90.35 89.57 94.70 89.76 98.00 87.12 C 97.44 84.24 96.38 81.50 95.12 78.86 Z" />
<path fill="#000000" opacity="1.00" d=" M 144.00 82.94 C 145.60 82.14 147.21 81.36 148.83 80.61 C 149.14 82.14 149.49 83.67 149.78 85.22 C 147.85 84.47 145.94 83.67 144.00 82.94 Z" />
<path fill="#000000" opacity="1.00" d=" M 66.40 83.31 C 67.76 81.54 69.87 84.05 68.28 85.33 C 66.92 86.97 64.70 84.59 66.40 83.31 Z" />
<path fill="#000000" opacity="1.00" d=" M 71.27 83.14 C 71.73 83.30 72.64 83.62 73.09 83.78 C 73.25 84.27 73.57 85.26 73.73 85.76 C 74.88 86.76 76.03 87.78 77.16 88.81 C 76.50 88.79 75.17 88.77 74.51 88.76 C 73.47 86.87 72.37 85.00 71.27 83.14 Z" />
<path fill="#000000" opacity="1.00" d=" M 142.17 83.30 C 143.86 84.82 145.49 86.41 147.07 88.05 C 145.52 88.97 143.95 89.87 142.38 90.76 C 142.15 88.28 142.10 85.79 142.17 83.30 Z" />
<path fill="#000000" opacity="1.00" d=" M 107.50 90.47 C 107.54 88.60 107.60 86.72 107.75 84.85 C 108.45 86.09 109.15 87.32 109.86 88.56 C 111.01 88.18 112.17 87.81 113.32 87.42 C 113.31 88.26 113.30 89.10 113.27 89.94 C 113.56 91.91 113.64 93.92 114.09 95.86 C 115.08 97.96 116.70 99.67 118.07 101.53 C 118.72 101.38 120.01 101.09 120.66 100.95 C 119.63 103.38 118.59 105.91 116.29 107.43 C 117.22 108.35 118.16 109.28 119.09 110.21 C 120.12 109.76 121.14 109.32 122.17 108.88 C 122.95 110.69 123.72 112.50 124.52 114.29 C 125.96 113.90 127.39 113.87 128.83 114.19 C 128.75 117.28 126.07 119.92 126.93 123.06 C 130.08 126.52 135.18 127.47 138.31 131.08 C 136.07 131.56 133.81 131.96 131.57 132.42 C 131.20 131.14 130.83 129.85 130.46 128.57 C 129.27 127.85 128.09 127.12 126.90 126.40 C 126.17 127.06 124.70 128.39 123.96 129.06 C 125.26 129.71 126.63 130.21 128.00 130.69 C 126.73 131.44 125.45 132.16 124.20 132.95 C 126.85 133.42 129.48 134.00 132.08 134.66 C 130.68 135.79 129.29 136.92 127.89 138.05 C 127.43 137.78 126.49 137.25 126.02 136.98 C 124.09 137.52 122.15 138.05 120.22 138.62 C 122.72 141.68 125.28 144.72 127.36 148.09 C 123.93 147.88 123.24 144.23 120.92 142.42 C 119.54 141.31 118.54 139.85 117.73 138.30 C 116.69 140.54 116.01 142.93 115.32 145.31 C 116.93 145.28 118.54 145.25 120.15 145.23 C 119.51 146.16 118.87 147.10 118.25 148.04 C 117.76 149.23 117.44 150.49 116.89 151.66 C 115.87 151.59 114.84 151.50 113.82 151.42 C 113.51 151.70 112.88 152.25 112.56 152.52 C 111.46 152.59 110.36 152.65 109.26 152.70 C 108.94 152.17 108.31 151.11 108.00 150.57 C 107.08 150.55 105.25 150.50 104.34 150.48 C 107.15 148.96 109.95 147.33 111.91 144.73 C 111.58 143.83 111.27 142.92 110.96 142.02 C 110.06 143.25 108.99 144.34 107.49 144.80 C 106.78 145.65 106.27 146.75 105.16 147.16 C 104.69 145.11 105.12 143.03 105.38 140.99 C 104.65 140.90 103.20 140.72 102.47 140.62 C 102.68 141.27 103.09 142.56 103.29 143.21 C 102.97 144.32 102.65 145.44 102.32 146.56 C 101.02 147.26 99.71 147.97 98.41 148.68 C 98.47 148.20 98.59 147.23 98.65 146.74 C 99.28 146.74 100.54 146.72 101.17 146.71 C 101.42 145.17 101.69 143.65 101.96 142.12 C 101.28 141.14 100.61 140.17 99.96 139.19 C 102.35 139.63 104.73 140.25 107.17 140.39 C 109.02 139.88 108.58 137.88 108.97 136.45 C 108.02 136.60 106.12 136.91 105.17 137.06 C 106.81 135.43 108.17 133.56 106.79 131.25 C 105.02 132.28 103.14 133.70 101.07 132.47 C 102.03 131.53 102.99 130.60 103.97 129.68 C 103.71 128.32 103.45 126.97 103.19 125.62 C 104.89 124.50 106.63 123.42 108.49 122.56 C 107.55 122.32 105.67 121.82 104.73 121.58 C 102.63 123.00 101.07 125.03 99.35 126.86 C 99.44 125.45 99.54 124.05 99.64 122.65 C 99.40 122.24 98.92 121.44 98.69 121.04 C 98.18 119.05 97.57 117.08 96.97 115.12 C 97.41 115.45 98.30 116.11 98.75 116.44 C 100.21 116.32 101.66 116.20 103.13 116.09 C 102.55 118.00 101.96 119.91 101.49 121.85 C 103.11 120.80 104.68 119.67 106.25 118.53 C 107.51 119.57 108.79 120.58 110.04 121.62 C 109.85 119.97 108.18 118.15 109.40 116.58 C 112.16 115.99 116.20 117.43 117.54 114.07 C 117.60 112.16 118.26 107.15 115.05 108.77 C 114.78 110.05 114.52 111.33 114.26 112.61 C 112.97 113.75 111.44 114.58 109.88 115.28 C 108.19 114.15 107.48 112.14 106.34 110.54 C 107.15 109.85 107.96 109.16 108.79 108.49 C 110.36 108.50 111.94 108.52 113.51 108.55 C 114.58 106.53 115.74 104.55 116.95 102.61 C 113.69 102.17 110.45 101.63 107.18 101.24 C 108.85 100.47 110.21 98.92 108.80 97.19 C 105.69 96.52 104.89 99.89 103.75 101.98 C 104.35 102.27 105.56 102.86 106.16 103.15 C 106.03 106.83 103.04 108.74 100.12 110.29 C 99.45 110.30 98.12 110.30 97.45 110.31 C 96.50 111.46 95.54 112.62 94.57 113.76 C 94.54 116.97 95.00 120.26 94.11 123.40 C 92.84 120.84 92.22 118.05 91.99 115.23 C 91.26 115.50 89.81 116.05 89.08 116.32 C 85.95 112.96 82.70 109.70 79.85 106.09 C 81.38 105.39 82.90 104.66 84.44 103.97 C 84.64 104.82 85.03 106.53 85.23 107.39 C 86.68 107.37 88.13 107.36 89.58 107.36 C 88.43 108.36 87.25 109.33 86.09 110.32 C 87.30 111.47 88.53 112.61 89.77 113.72 C 92.19 112.34 95.15 111.33 96.34 108.58 C 97.15 106.20 99.64 105.55 101.62 104.47 C 99.81 104.17 98.01 103.77 96.20 103.51 C 95.83 101.86 95.49 100.20 95.15 98.54 C 96.55 97.16 97.93 95.75 99.26 94.29 C 103.04 94.41 106.82 94.70 110.61 94.51 C 107.96 93.57 105.18 93.06 102.47 92.35 C 104.14 91.70 105.82 91.09 107.50 90.47 M 118.36 119.66 C 117.75 120.75 117.15 121.86 116.55 122.97 C 117.00 123.98 117.46 125.00 117.94 126.01 C 118.60 125.81 119.92 125.42 120.58 125.23 C 120.46 124.41 120.22 122.76 120.10 121.94 C 120.68 121.67 121.85 121.15 122.44 120.88 C 122.05 123.52 121.80 126.19 121.19 128.79 C 119.57 128.20 117.99 127.49 116.39 126.85 C 115.64 128.16 114.88 129.48 114.12 130.79 C 115.52 130.43 116.90 130.05 118.28 129.63 C 118.47 130.87 118.65 132.12 118.85 133.37 C 117.28 133.72 115.51 134.01 114.54 135.45 C 113.17 136.72 112.60 140.47 115.72 139.99 C 115.90 139.35 116.25 138.07 116.43 137.43 C 119.12 136.73 121.46 135.23 122.67 132.62 C 121.91 132.48 120.40 132.19 119.64 132.05 C 124.50 131.72 123.32 125.83 125.42 122.79 C 124.89 122.49 123.85 121.91 123.32 121.61 C 123.43 120.75 123.65 119.04 123.75 118.18 C 121.95 118.64 120.16 119.19 118.36 119.66 M 109.70 124.59 C 111.14 124.31 112.88 124.50 113.80 123.08 C 112.25 121.00 110.72 123.54 109.70 124.59 Z" />
<path fill="#000000" opacity="1.00" d=" M 151.27 85.00 C 152.89 84.36 153.45 84.87 152.98 86.51 C 151.36 87.15 150.79 86.64 151.27 85.00 Z" />
<path fill="#000000" opacity="1.00" d=" M 169.42 84.87 C 171.61 84.03 171.81 87.44 169.82 87.67 C 167.73 88.44 167.61 85.18 169.42 84.87 Z" />
<path fill="#000000" opacity="1.00" d=" M 68.49 87.19 C 69.85 85.53 71.92 88.15 70.46 89.40 C 69.05 90.93 67.04 88.47 68.49 87.19 Z" />
<path fill="#000000" opacity="1.00" d=" M 131.83 90.61 C 133.99 89.17 136.21 87.80 138.36 86.33 C 139.04 87.94 139.71 89.56 140.37 91.19 C 139.32 91.34 138.26 91.49 137.21 91.64 C 137.25 93.26 137.27 94.89 137.28 96.51 C 136.26 95.46 135.25 94.40 134.26 93.33 C 133.43 93.42 132.61 93.51 131.79 93.61 C 131.39 94.75 130.99 95.89 130.59 97.03 C 132.27 100.10 134.69 102.63 137.98 103.96 C 138.62 105.77 139.30 107.55 140.01 109.33 C 140.42 107.34 140.69 105.33 140.95 103.32 C 142.80 102.83 144.67 102.08 146.61 102.26 C 148.24 103.47 149.70 105.00 150.56 106.86 C 149.49 110.08 148.98 113.41 149.45 116.79 C 149.87 116.77 150.71 116.74 151.13 116.73 C 151.54 114.66 151.99 112.60 152.43 110.54 C 153.22 112.01 153.93 113.55 154.91 114.91 C 156.68 115.31 158.48 115.49 160.27 115.76 C 159.03 116.15 157.77 116.53 156.54 116.92 C 156.67 118.13 156.81 119.36 156.96 120.58 C 152.30 120.93 147.48 121.34 143.91 124.72 C 143.17 123.90 142.42 123.07 141.68 122.23 C 142.11 119.78 142.47 117.32 142.99 114.89 C 143.86 115.64 144.72 116.42 145.57 117.21 C 146.58 116.28 147.80 115.36 147.58 113.78 C 146.19 112.66 144.56 111.90 142.97 111.12 C 141.72 112.74 139.59 113.43 137.81 112.19 C 136.21 110.59 135.11 108.58 133.78 106.76 C 133.65 105.71 133.52 104.66 133.39 103.60 C 130.12 100.11 125.28 102.19 121.16 101.28 C 122.38 98.39 126.34 99.03 128.93 98.41 C 128.51 97.62 128.09 96.84 127.68 96.06 C 129.48 94.59 130.90 92.74 131.83 90.61 Z" />
<path fill="#000000" opacity="1.00" d=" M 173.02 87.30 C 174.62 86.77 175.15 87.33 174.60 88.98 C 172.99 89.51 172.46 88.96 173.02 87.30 Z" />
<path fill="#000000" opacity="1.00" d=" M 148.50 95.48 C 148.71 92.93 146.89 89.91 149.03 87.73 C 150.23 91.09 149.60 94.67 149.49 98.14 C 148.02 95.25 144.18 95.86 142.17 93.58 C 141.34 93.15 142.00 92.16 141.90 91.48 C 144.10 92.81 146.31 94.12 148.50 95.48 Z" />
<path fill="#000000" opacity="1.00" d=" M 158.04 92.46 C 159.87 90.97 162.05 88.48 164.39 90.66 C 165.28 90.66 166.17 90.66 167.07 90.67 C 166.42 92.64 165.59 94.55 164.56 96.36 C 164.53 95.12 164.48 92.63 164.45 91.39 C 163.17 92.53 161.90 93.69 160.58 94.79 C 159.74 94.00 158.83 93.29 158.04 92.46 Z" />
<path fill="#000000" opacity="1.00" d=" M 100.24 90.25 C 100.82 90.75 100.82 90.75 100.24 90.25 Z" />
<path fill="#000000" opacity="1.00" d=" M 152.90 90.78 C 153.30 90.78 154.11 90.78 154.51 90.78 C 154.39 92.77 154.34 94.76 154.35 96.75 C 155.11 98.46 155.63 100.26 156.08 102.08 C 157.00 103.02 157.94 103.94 158.89 104.87 C 161.35 103.91 163.78 102.88 166.24 101.92 C 165.52 103.59 164.78 105.25 164.05 106.92 C 160.31 106.19 156.81 104.73 153.64 102.61 C 153.54 103.38 153.34 104.92 153.24 105.69 C 152.74 105.65 151.74 105.58 151.25 105.54 C 150.81 102.89 151.81 100.59 153.69 98.75 C 153.08 98.45 151.87 97.84 151.26 97.54 C 151.06 96.79 150.67 95.31 150.47 94.56 C 151.67 94.10 152.86 93.65 154.06 93.21 C 153.77 92.60 153.19 91.39 152.90 90.78 Z" />
<path fill="#000000" opacity="1.00" d=" M 74.34 91.95 C 75.72 91.56 76.20 92.07 75.79 93.48 C 74.40 93.86 73.92 93.35 74.34 91.95 Z" />
<path fill="#000000" opacity="1.00" d=" M 74.69 95.88 C 76.13 95.64 77.57 95.38 79.02 95.16 C 78.11 96.78 77.20 98.41 76.28 100.03 C 75.74 98.65 75.22 97.26 74.69 95.88 Z" />
<path fill="#000000" opacity="1.00" d=" M 158.53 98.15 C 160.58 97.77 162.64 97.39 164.73 97.31 C 165.46 99.41 163.16 100.51 162.04 101.90 C 160.62 100.90 159.22 99.81 158.53 98.15 Z" />
<path fill="#000000" opacity="1.00" d=" M 77.02 102.37 C 78.68 100.19 80.41 97.73 83.51 98.18 C 83.55 99.64 83.59 101.10 83.60 102.57 C 81.41 102.53 79.22 102.47 77.02 102.37 Z" />
<path fill="#000000" opacity="1.00" d=" M 85.06 103.09 C 86.15 101.10 87.39 99.19 88.84 97.43 C 89.45 100.32 87.52 102.15 85.06 103.09 Z" />
<path fill="#000000" opacity="1.00" d=" M 141.03 97.90 C 142.66 97.43 143.21 98.00 142.68 99.62 C 141.03 100.07 140.48 99.50 141.03 97.90 Z" />
<path fill="#000000" opacity="1.00" d=" M 91.29 101.63 C 92.72 100.40 94.50 102.86 92.89 103.85 C 91.47 105.10 89.65 102.59 91.29 101.63 Z" />
<path fill="#000000" opacity="1.00" d=" M 122.73 106.15 C 122.78 103.32 125.18 103.04 127.47 103.09 C 126.18 104.51 124.52 105.49 122.73 106.15 Z" />
<path fill="#000000" opacity="1.00" d=" M 108.08 103.92 C 109.16 102.56 111.62 104.25 110.41 105.67 C 109.37 107.08 106.85 105.32 108.08 103.92 Z" />
<path fill="#000000" opacity="1.00" d=" M 125.63 107.75 C 127.70 107.18 129.73 106.48 131.72 105.68 C 131.36 107.76 131.19 109.88 131.04 111.99 C 128.98 111.10 126.85 110.33 124.57 110.45 C 124.92 109.55 125.28 108.65 125.63 107.75 Z" />
<path fill="#000000" opacity="1.00" d=" M 139.03 115.30 C 140.42 114.18 142.36 116.50 140.76 117.54 C 139.36 118.69 137.47 116.34 139.03 115.30 Z" />
<path fill="#000000" opacity="1.00" d=" M 131.09 117.32 C 131.79 117.27 133.18 117.18 133.88 117.14 C 134.20 117.55 134.84 118.39 135.16 118.81 C 135.57 120.56 134.89 123.14 136.97 123.96 C 139.44 125.19 141.99 126.26 144.39 127.64 C 144.51 128.76 144.64 129.88 144.76 131.00 C 144.25 130.29 143.73 129.59 143.21 128.89 C 140.46 129.07 138.49 127.32 136.78 125.43 C 135.88 126.00 134.98 126.58 134.10 127.18 C 133.81 126.33 133.52 125.48 133.22 124.64 L 135.23 124.62 C 134.72 123.75 133.70 122.01 133.19 121.14 C 132.51 121.61 131.84 122.11 131.19 122.63 C 130.64 122.62 129.53 122.62 128.97 122.61 C 129.20 120.67 129.87 118.86 131.09 117.32 Z" />
<path fill="#000000" opacity="1.00" d=" M 98.29 129.45 C 99.93 129.00 100.48 129.57 99.94 131.16 C 98.30 131.63 97.75 131.06 98.29 129.45 Z" />
<path fill="#000000" opacity="1.00" d=" M 97.64 134.31 C 98.59 133.29 100.20 133.33 101.40 132.78 C 101.09 135.43 99.20 137.01 96.92 138.02 C 97.10 136.77 97.34 135.54 97.64 134.31 Z" />
<path fill="#000000" opacity="1.00" d=" M 91.78 134.73 C 92.88 134.57 93.99 134.48 95.10 134.45 C 95.89 138.42 97.18 142.26 98.32 146.13 C 94.55 143.59 91.51 137.56 86.18 139.41 C 86.52 137.88 86.81 136.33 87.14 134.80 C 89.03 136.54 91.28 137.31 93.84 136.75 C 93.33 136.25 92.29 135.24 91.78 134.73 Z" />
<path fill="#000000" opacity="1.00" d=" M 137.33 134.14 C 139.81 134.52 141.65 136.34 143.54 137.82 C 141.71 137.72 139.88 137.60 138.05 137.45 C 139.01 138.96 140.16 140.39 140.79 142.09 C 140.60 143.61 139.57 144.84 138.92 146.19 C 138.80 145.42 138.57 143.88 138.45 143.11 C 137.34 142.03 136.22 140.96 135.12 139.88 C 135.91 139.26 136.69 138.63 137.49 138.01 C 137.42 136.72 137.32 135.43 137.33 134.14 Z" />
<path fill="#000000" opacity="1.00" d=" M 150.33 135.07 C 152.69 136.33 155.00 137.67 157.31 139.02 C 156.64 140.09 155.97 141.16 155.30 142.24 C 155.31 142.89 155.34 144.20 155.36 144.86 C 154.08 146.95 152.85 149.08 151.66 151.22 C 152.45 151.31 154.02 151.49 154.81 151.59 C 154.64 152.49 154.48 153.40 154.31 154.31 C 152.83 154.34 151.35 154.36 149.87 154.39 C 149.16 153.31 148.45 152.24 147.74 151.17 C 147.18 151.17 146.06 151.17 145.49 151.17 C 145.33 151.82 145.00 153.13 144.84 153.79 C 143.45 154.00 142.06 154.20 140.67 154.40 C 140.42 152.74 140.18 151.07 139.92 149.42 C 141.20 149.67 142.48 149.93 143.76 150.20 C 147.14 148.40 150.53 146.63 153.93 144.87 C 153.04 141.50 151.70 138.27 150.33 135.07 Z" />
<path fill="#000000" opacity="1.00" d=" M 145.51 136.71 C 147.51 137.51 149.41 138.85 149.91 141.08 C 149.66 143.01 147.89 144.17 146.68 145.49 C 146.05 142.60 145.68 139.66 145.51 136.71 Z" />
<path fill="#000000" opacity="1.00" d=" M 129.37 138.81 C 131.01 139.96 132.66 141.09 134.29 142.26 C 133.71 142.84 133.12 143.42 132.52 143.99 C 132.43 143.33 132.24 142.02 132.15 141.37 C 131.55 141.33 130.34 141.26 129.73 141.23 C 129.64 140.62 129.46 139.42 129.37 138.81 Z" />
<path fill="#000000" opacity="1.00" d=" M 86.31 142.26 C 89.03 141.29 87.76 145.70 85.72 145.28 C 83.93 144.94 85.11 142.57 86.31 142.26 Z" />
<path fill="#000000" opacity="1.00" d=" M 90.92 143.59 C 92.33 143.17 92.79 143.65 92.31 145.05 C 90.89 145.47 90.43 144.99 90.92 143.59 Z" />
<path fill="#000000" opacity="1.00" d=" M 78.40 148.43 C 79.70 148.34 81.01 148.25 82.31 148.18 C 81.17 149.18 80.00 150.17 78.84 151.15 C 78.73 150.47 78.51 149.11 78.40 148.43 Z" />
<path fill="#000000" opacity="1.00" d=" M 87.87 155.95 C 90.84 153.39 93.38 150.38 96.32 147.78 C 95.79 148.97 95.60 150.43 94.51 151.29 C 91.30 154.07 87.94 156.67 84.55 159.22 C 82.71 157.78 80.82 156.42 78.93 155.04 C 80.84 153.42 82.70 151.74 84.87 150.47 C 85.91 152.27 86.87 154.12 87.87 155.95 Z" />
<path fill="#000000" opacity="1.00" d=" M 136.60 148.97 C 138.17 147.66 139.42 150.56 138.00 151.46 C 136.41 152.68 135.26 149.89 136.60 148.97 Z" />
<path fill="#000000" opacity="1.00" d=" M 98.93 151.48 C 100.16 151.50 101.38 151.52 102.61 151.54 C 102.71 153.03 102.81 154.53 102.91 156.03 C 101.57 154.52 100.25 153.00 98.93 151.48 Z" />
<path fill="#000000" opacity="1.00" d=" M 123.52 150.92 C 124.60 149.73 126.53 151.62 125.74 152.85 C 124.68 154.03 122.72 152.14 123.52 150.92 Z" />
<path fill="#000000" opacity="1.00" d=" M 129.45 151.34 C 130.41 149.99 132.54 151.75 131.61 153.02 C 130.63 154.31 128.53 152.61 129.45 151.34 Z" />
<path fill="#000000" opacity="1.00" d=" M 91.62 156.87 C 93.00 155.55 94.44 154.29 95.87 153.03 C 96.43 153.68 96.99 154.33 97.55 154.98 C 95.57 155.59 93.60 156.24 91.62 156.87 Z" />
<path fill="#000000" opacity="1.00" d=" M 156.97 153.14 C 158.13 153.87 159.29 154.61 160.41 155.41 C 159.05 155.52 157.69 155.62 156.33 155.70 C 156.49 155.06 156.81 153.78 156.97 153.14 Z" />
<path fill="#000000" opacity="1.00" d=" M 123.81 155.94 C 125.88 155.66 127.95 155.41 130.02 155.17 C 128.88 157.29 127.71 159.39 126.65 161.55 C 125.67 159.70 124.76 157.81 123.81 155.94 Z" />
<path fill="#000000" opacity="1.00" d=" M 134.20 154.92 C 136.11 155.27 138.02 155.62 139.94 155.91 C 141.88 155.63 143.85 155.57 145.79 155.89 C 143.45 157.64 140.47 157.57 137.79 156.78 C 136.65 157.22 135.51 157.66 134.38 158.10 C 134.33 157.30 134.24 155.71 134.20 154.92 Z" />
<path fill="#000000" opacity="1.00" d=" M 126.51 164.33 C 128.41 162.40 130.44 160.60 132.36 158.69 C 134.90 159.54 135.45 162.06 135.78 164.42 C 132.69 164.60 129.60 164.56 126.51 164.33 Z" />
<path fill="#000000" opacity="1.00" d=" M 140.04 159.89 C 140.56 159.71 141.61 159.34 142.13 159.16 C 142.30 162.38 139.89 164.34 137.38 165.83 C 137.15 164.14 138.15 162.90 139.22 161.77 C 139.43 161.30 139.83 160.36 140.04 159.89 Z" />
<path fill="#000000" opacity="1.00" d=" M 101.30 160.33 C 102.57 161.03 102.53 161.71 101.18 162.38 C 99.93 161.67 99.97 160.99 101.30 160.33 Z" />
<path fill="#000000" opacity="1.00" d=" M 68.61 162.44 C 69.88 162.41 71.16 162.40 72.43 162.41 C 71.20 163.32 69.93 164.15 68.64 164.97 C 68.63 164.34 68.62 163.07 68.61 162.44 Z" />
<path fill="#000000" opacity="1.00" d=" M 78.84 164.18 C 79.91 164.42 80.99 164.65 82.06 164.95 C 81.66 166.57 79.89 166.52 78.61 166.98 C 78.66 166.28 78.78 164.88 78.84 164.18 Z" />
<path fill="#000000" opacity="1.00" d=" M 86.18 165.51 C 87.57 164.98 89.04 164.65 90.45 164.16 C 89.22 165.18 87.91 166.10 86.61 167.03 C 86.50 166.65 86.28 165.89 86.18 165.51 Z" />
<path fill="#000000" opacity="1.00" d=" M 144.09 164.25 C 145.45 164.44 146.81 164.65 148.17 164.88 C 147.30 165.53 146.40 166.16 145.48 166.76 C 145.00 165.93 144.53 165.10 144.09 164.25 Z" />
<path fill="#000000" opacity="1.00" d=" M 93.49 165.33 C 95.52 165.67 97.50 166.24 99.47 166.82 C 97.23 167.89 95.18 166.89 93.49 165.33 Z" />
<path fill="#000000" opacity="1.00" d=" M 169.00 164.78 C 171.29 165.09 172.86 166.34 172.78 168.79 C 170.33 168.76 169.17 167.10 169.00 164.78 Z" />
<path fill="#000000" opacity="1.00" d=" M 141.75 167.77 C 144.40 168.66 147.20 168.86 149.98 168.93 C 148.47 171.26 146.87 173.76 147.66 176.68 C 146.34 176.23 145.02 175.77 143.71 175.32 C 144.02 172.61 143.11 170.07 141.75 167.77 Z" />
<path fill="#000000" opacity="1.00" d=" M 76.26 171.23 C 76.78 171.78 76.78 171.78 76.26 171.23 Z" />
<path fill="#000000" opacity="1.00" d=" M 155.44 177.57 C 157.97 175.42 160.31 173.02 163.08 171.16 C 164.82 169.45 165.91 172.43 167.09 173.18 C 166.04 173.20 163.96 173.23 162.92 173.25 C 160.61 175.76 158.27 178.27 155.59 180.40 C 155.55 179.69 155.48 178.28 155.44 177.57 Z" />
<path fill="#000000" opacity="1.00" d=" M 150.85 174.18 C 151.66 173.58 152.44 172.92 153.31 172.40 C 153.97 173.17 154.61 173.98 155.21 174.80 C 153.75 174.66 152.29 174.47 150.85 174.18 Z" />
<path fill="#000000" opacity="1.00" d=" M 184.26 172.37 C 185.70 171.21 187.46 173.67 185.90 174.67 C 184.46 175.79 182.68 173.35 184.26 172.37 Z" />
<path fill="#000000" opacity="1.00" d=" M 64.35 174.16 C 66.00 173.67 66.56 174.22 66.02 175.82 C 64.38 176.30 63.82 175.75 64.35 174.16 Z" />
<path fill="#000000" opacity="1.00" d=" M 86.11 179.87 C 84.15 179.11 80.82 178.85 82.72 175.87 C 83.90 177.15 85.03 178.49 86.11 179.87 Z" />
<path fill="#000000" opacity="1.00" d=" M 166.37 177.12 C 167.07 179.55 167.83 181.95 168.51 184.39 C 166.95 183.31 165.57 182.00 164.30 180.60 C 165.00 179.44 165.69 178.28 166.37 177.12 Z" />
<path fill="#000000" opacity="1.00" d=" M 158.91 186.99 C 160.54 186.44 161.08 186.98 160.56 188.62 C 158.93 189.15 158.38 188.61 158.91 186.99 Z" />
</g>
<g id="#ff0000ff">
<path fill="#ff0000" opacity="1.00" d=" M 81.34 44.26 C 83.75 42.82 87.22 42.55 89.37 44.61 C 95.91 50.06 101.17 56.82 106.81 63.15 C 112.18 68.46 117.64 73.78 124.05 77.83 C 129.05 77.20 132.83 73.66 136.29 70.31 C 143.68 62.40 150.93 54.31 158.90 46.97 C 161.69 44.76 165.18 41.86 168.95 42.96 C 174.77 46.32 178.75 51.95 182.71 57.22 C 188.99 65.89 198.55 71.48 204.81 80.17 C 206.36 82.35 207.33 85.33 205.95 87.85 C 203.53 92.57 199.06 95.71 195.49 99.51 C 187.74 107.44 177.15 112.96 171.89 123.08 C 169.63 127.49 173.53 131.58 176.36 134.57 C 185.87 145.10 198.27 153.02 205.70 165.36 C 207.77 169.30 205.82 173.94 203.14 177.07 C 199.96 180.59 196.28 183.61 192.78 186.79 C 184.83 193.58 178.63 202.63 169.05 207.34 C 165.33 208.38 162.08 205.97 159.37 203.77 C 150.23 196.84 143.78 187.21 136.24 178.73 C 133.28 175.53 130.21 172.08 125.98 170.59 C 123.41 169.91 120.99 171.45 118.95 172.82 C 111.31 178.52 105.16 185.86 98.78 192.88 C 94.49 196.94 90.12 200.97 85.24 204.34 C 83.79 204.35 82.33 204.37 80.88 204.40 C 70.18 198.30 64.23 186.81 54.88 179.10 C 50.06 175.19 46.32 170.06 43.72 164.45 C 43.21 162.70 42.87 160.52 44.01 158.94 C 46.22 155.60 49.17 152.86 51.81 149.88 C 59.09 141.14 69.83 135.76 76.02 126.03 C 77.54 123.99 77.48 121.41 77.52 119.00 C 69.36 109.69 60.23 101.29 52.07 91.98 C 48.54 88.15 44.63 83.57 44.82 78.09 C 50.30 67.93 61.85 63.61 68.76 54.72 C 72.16 50.39 76.64 47.06 81.34 44.26 M 161.04 68.59 C 163.03 68.10 165.01 67.58 167.02 67.16 C 166.00 66.51 164.98 65.87 163.96 65.23 C 162.98 66.35 162.00 67.46 161.04 68.59 M 172.34 69.82 C 172.08 70.13 171.55 70.75 171.28 71.07 C 172.11 74.45 176.19 69.10 172.34 69.82 M 159.41 72.09 C 158.44 73.49 160.76 75.33 161.87 74.00 C 162.84 72.61 160.50 70.74 159.41 72.09 M 79.18 74.07 C 79.20 74.73 79.24 76.05 79.26 76.71 C 79.88 76.73 81.12 76.76 81.74 76.77 C 81.62 76.28 81.38 75.30 81.26 74.81 C 80.74 74.62 79.70 74.26 79.18 74.07 M 156.99 76.96 C 158.83 76.46 157.79 73.40 156.06 73.75 C 154.30 74.32 155.22 77.33 156.99 76.96 M 145.62 75.87 C 145.13 77.25 145.59 77.75 147.01 77.38 C 147.50 76.00 147.04 75.50 145.62 75.87 M 68.37 76.93 C 67.79 78.54 68.33 79.11 69.96 78.63 C 70.54 77.01 70.01 76.45 68.37 76.93 M 73.30 77.38 C 71.40 78.00 72.14 80.21 72.42 81.64 C 75.08 80.73 77.71 79.77 80.32 78.73 C 78.01 78.16 75.71 77.37 73.30 77.38 M 141.93 80.24 C 143.27 80.15 144.03 79.45 144.21 78.15 C 143.28 75.47 139.18 79.27 141.93 80.24 M 155.10 83.16 C 157.70 81.57 159.94 79.48 161.96 77.21 C 159.00 78.33 155.73 79.67 155.10 83.16 M 163.78 78.85 C 164.38 81.62 165.39 84.26 166.32 86.93 C 167.18 83.83 167.74 80.64 167.46 77.41 C 166.20 77.77 164.58 77.59 163.78 78.85 M 83.30 78.94 L 85.55 79.75 C 84.81 80.59 84.00 81.37 83.32 82.27 C 83.86 84.42 85.55 86.00 86.94 87.64 C 87.71 85.39 88.21 82.61 85.29 81.57 C 87.08 81.06 88.92 80.84 90.75 80.55 C 90.31 83.09 91.54 85.29 93.02 87.22 C 93.25 85.56 95.38 83.66 94.08 82.03 C 93.18 79.58 90.16 80.36 88.16 79.79 C 86.65 79.02 85.02 78.11 83.30 78.94 M 95.12 78.86 C 96.38 81.50 97.44 84.24 98.00 87.12 C 94.70 89.76 90.35 89.57 86.46 90.61 C 85.87 90.54 84.68 90.38 84.08 90.30 C 84.09 90.65 84.12 91.33 84.13 91.67 C 84.69 91.48 85.80 91.11 86.35 90.93 C 86.74 91.85 87.51 93.69 87.90 94.61 C 85.59 94.48 82.98 94.12 81.83 96.60 C 85.18 96.48 88.54 96.42 91.88 96.04 C 91.11 95.65 89.56 94.87 88.78 94.48 C 90.09 93.43 91.32 92.29 92.49 91.09 C 93.41 92.05 94.33 93.00 95.24 93.96 C 96.81 93.59 98.26 92.93 99.57 92.00 C 98.77 91.81 97.15 91.42 96.34 91.22 C 98.06 88.18 99.34 84.92 100.47 81.62 C 98.69 80.70 96.90 79.78 95.12 78.86 M 144.00 82.94 C 145.94 83.67 147.85 84.47 149.78 85.22 C 149.49 83.67 149.14 82.14 148.83 80.61 C 147.21 81.36 145.60 82.14 144.00 82.94 M 66.40 83.31 C 64.70 84.59 66.92 86.97 68.28 85.33 C 69.87 84.05 67.76 81.54 66.40 83.31 M 71.27 83.14 C 72.37 85.00 73.47 86.87 74.51 88.76 C 75.17 88.77 76.50 88.79 77.16 88.81 C 76.03 87.78 74.88 86.76 73.73 85.76 C 73.57 85.26 73.25 84.27 73.09 83.78 C 72.64 83.62 71.73 83.30 71.27 83.14 M 142.17 83.30 C 142.10 85.79 142.15 88.28 142.38 90.76 C 143.95 89.87 145.52 88.97 147.07 88.05 C 145.49 86.41 143.86 84.82 142.17 83.30 M 107.50 90.47 C 105.82 91.09 104.14 91.70 102.47 92.35 C 105.18 93.06 107.96 93.57 110.61 94.51 C 106.82 94.70 103.04 94.41 99.26 94.29 C 97.93 95.75 96.55 97.16 95.15 98.54 C 95.49 100.20 95.83 101.86 96.20 103.51 C 98.01 103.77 99.81 104.17 101.62 104.47 C 99.64 105.55 97.15 106.20 96.34 108.58 C 95.15 111.33 92.19 112.34 89.77 113.72 C 88.53 112.61 87.30 111.47 86.09 110.32 C 87.25 109.33 88.43 108.36 89.58 107.36 C 88.13 107.36 86.68 107.37 85.23 107.39 C 85.03 106.53 84.64 104.82 84.44 103.97 C 82.90 104.66 81.38 105.39 79.85 106.09 C 82.70 109.70 85.95 112.96 89.08 116.32 C 89.81 116.05 91.26 115.50 91.99 115.23 C 92.22 118.05 92.84 120.84 94.11 123.40 C 95.00 120.26 94.54 116.97 94.57 113.76 C 95.54 112.62 96.50 111.46 97.45 110.31 C 98.12 110.30 99.45 110.30 100.12 110.29 C 103.04 108.74 106.03 106.83 106.16 103.15 C 105.56 102.86 104.35 102.27 103.75 101.98 C 104.89 99.89 105.69 96.52 108.80 97.19 C 110.21 98.92 108.85 100.47 107.18 101.24 C 110.45 101.63 113.69 102.17 116.95 102.61 C 115.74 104.55 114.58 106.53 113.51 108.55 C 111.94 108.52 110.36 108.50 108.79 108.49 C 107.96 109.16 107.15 109.85 106.34 110.54 C 107.48 112.14 108.19 114.15 109.88 115.28 C 111.44 114.58 112.97 113.75 114.26 112.61 C 114.52 111.33 114.78 110.05 115.05 108.77 C 118.26 107.15 117.60 112.16 117.54 114.07 C 116.20 117.43 112.16 115.99 109.40 116.58 C 108.18 118.15 109.85 119.97 110.04 121.62 C 108.79 120.58 107.51 119.57 106.25 118.53 C 104.68 119.67 103.11 120.80 101.49 121.85 C 101.96 119.91 102.55 118.00 103.13 116.09 C 101.66 116.20 100.21 116.32 98.75 116.44 C 98.30 116.11 97.41 115.45 96.97 115.12 C 97.57 117.08 98.18 119.05 98.69 121.04 C 98.92 121.44 99.40 122.24 99.64 122.65 C 99.54 124.05 99.44 125.45 99.35 126.86 C 101.07 125.03 102.63 123.00 104.73 121.58 C 105.67 121.82 107.55 122.32 108.49 122.56 C 106.63 123.42 104.89 124.50 103.19 125.62 C 103.45 126.97 103.71 128.32 103.97 129.68 C 102.99 130.60 102.03 131.53 101.07 132.47 C 103.14 133.70 105.02 132.28 106.79 131.25 C 108.17 133.56 106.81 135.43 105.17 137.06 C 106.12 136.91 108.02 136.60 108.97 136.45 C 108.58 137.88 109.02 139.88 107.17 140.39 C 104.73 140.25 102.35 139.63 99.96 139.19 C 100.61 140.17 101.28 141.14 101.96 142.12 C 101.69 143.65 101.42 145.17 101.17 146.71 C 100.54 146.72 99.28 146.74 98.65 146.74 C 98.59 147.23 98.47 148.20 98.41 148.68 C 99.71 147.97 101.02 147.26 102.32 146.56 C 102.65 145.44 102.97 144.32 103.29 143.21 C 103.09 142.56 102.68 141.27 102.47 140.62 C 103.20 140.72 104.65 140.90 105.38 140.99 C 105.12 143.03 104.69 145.11 105.16 147.16 C 106.27 146.75 106.78 145.65 107.49 144.80 C 108.99 144.34 110.06 143.25 110.96 142.02 C 111.27 142.92 111.58 143.83 111.91 144.73 C 109.95 147.33 107.15 148.96 104.34 150.48 C 105.25 150.50 107.08 150.55 108.00 150.57 C 108.31 151.11 108.94 152.17 109.26 152.70 C 110.36 152.65 111.46 152.59 112.56 152.52 C 112.88 152.25 113.51 151.70 113.82 151.42 C 114.84 151.50 115.87 151.59 116.89 151.66 C 117.44 150.49 117.76 149.23 118.25 148.04 C 118.87 147.10 119.51 146.16 120.15 145.23 C 118.54 145.25 116.93 145.28 115.32 145.31 C 116.01 142.93 116.69 140.54 117.73 138.30 C 118.54 139.85 119.54 141.31 120.92 142.42 C 123.24 144.23 123.93 147.88 127.36 148.09 C 125.28 144.72 122.72 141.68 120.22 138.62 C 122.15 138.05 124.09 137.52 126.02 136.98 C 126.49 137.25 127.43 137.78 127.89 138.05 C 129.29 136.92 130.68 135.79 132.08 134.66 C 129.48 134.00 126.85 133.42 124.20 132.95 C 125.45 132.16 126.73 131.44 128.00 130.69 C 126.63 130.21 125.26 129.71 123.96 129.06 C 124.70 128.39 126.17 127.06 126.90 126.40 C 128.09 127.12 129.27 127.85 130.46 128.57 C 130.83 129.85 131.20 131.14 131.57 132.42 C 133.81 131.96 136.07 131.56 138.31 131.08 C 135.18 127.47 130.08 126.52 126.93 123.06 C 126.07 119.92 128.75 117.28 128.83 114.19 C 127.39 113.87 125.96 113.90 124.52 114.29 C 123.72 112.50 122.95 110.69 122.17 108.88 C 121.14 109.32 120.12 109.76 119.09 110.21 C 118.16 109.28 117.22 108.35 116.29 107.43 C 118.59 105.91 119.63 103.38 120.66 100.95 C 120.01 101.09 118.72 101.38 118.07 101.53 C 116.70 99.67 115.08 97.96 114.09 95.86 C 113.64 93.92 113.56 91.91 113.27 89.94 C 113.30 89.10 113.31 88.26 113.32 87.42 C 112.17 87.81 111.01 88.18 109.86 88.56 C 109.15 87.32 108.45 86.09 107.75 84.85 C 107.60 86.72 107.54 88.60 107.50 90.47 M 151.27 85.00 C 150.79 86.64 151.36 87.15 152.98 86.51 C 153.45 84.87 152.89 84.36 151.27 85.00 M 169.42 84.87 C 167.61 85.18 167.73 88.44 169.82 87.67 C 171.81 87.44 171.61 84.03 169.42 84.87 M 68.49 87.19 C 67.04 88.47 69.05 90.93 70.46 89.40 C 71.92 88.15 69.85 85.53 68.49 87.19 M 131.83 90.61 C 130.90 92.74 129.48 94.59 127.68 96.06 C 128.09 96.84 128.51 97.62 128.93 98.41 C 126.34 99.03 122.38 98.39 121.16 101.28 C 125.28 102.19 130.12 100.11 133.39 103.60 C 133.52 104.66 133.65 105.71 133.78 106.76 C 135.11 108.58 136.21 110.59 137.81 112.19 C 139.59 113.43 141.72 112.74 142.97 111.12 C 144.56 111.90 146.19 112.66 147.58 113.78 C 147.80 115.36 146.58 116.28 145.57 117.21 C 144.72 116.42 143.86 115.64 142.99 114.89 C 142.47 117.32 142.11 119.78 141.68 122.23 C 142.42 123.07 143.17 123.90 143.91 124.72 C 147.48 121.34 152.30 120.93 156.96 120.58 C 156.81 119.36 156.67 118.13 156.54 116.92 C 157.77 116.53 159.03 116.15 160.27 115.76 C 158.48 115.49 156.68 115.31 154.91 114.91 C 153.93 113.55 153.22 112.01 152.43 110.54 C 151.99 112.60 151.54 114.66 151.13 116.73 C 150.71 116.74 149.87 116.77 149.45 116.79 C 148.98 113.41 149.49 110.08 150.56 106.86 C 149.70 105.00 148.24 103.47 146.61 102.26 C 144.67 102.08 142.80 102.83 140.95 103.32 C 140.69 105.33 140.42 107.34 140.01 109.33 C 139.30 107.55 138.62 105.77 137.98 103.96 C 134.69 102.63 132.27 100.10 130.59 97.03 C 130.99 95.89 131.39 94.75 131.79 93.61 C 132.61 93.51 133.43 93.42 134.26 93.33 C 135.25 94.40 136.26 95.46 137.28 96.51 C 137.27 94.89 137.25 93.26 137.21 91.64 C 138.26 91.49 139.32 91.34 140.37 91.19 C 139.71 89.56 139.04 87.94 138.36 86.33 C 136.21 87.80 133.99 89.17 131.83 90.61 M 173.02 87.30 C 172.46 88.96 172.99 89.51 174.60 88.98 C 175.15 87.33 174.62 86.77 173.02 87.30 M 148.50 95.48 C 146.31 94.12 144.10 92.81 141.90 91.48 C 142.00 92.16 141.34 93.15 142.17 93.58 C 144.18 95.86 148.02 95.25 149.49 98.14 C 149.60 94.67 150.23 91.09 149.03 87.73 C 146.89 89.91 148.71 92.93 148.50 95.48 M 158.04 92.46 C 158.83 93.29 159.74 94.00 160.58 94.79 C 161.90 93.69 163.17 92.53 164.45 91.39 C 164.48 92.63 164.53 95.12 164.56 96.36 C 165.59 94.55 166.42 92.64 167.07 90.67 C 166.17 90.66 165.28 90.66 164.39 90.66 C 162.05 88.48 159.87 90.97 158.04 92.46 M 100.24 90.25 C 100.82 90.75 100.82 90.75 100.24 90.25 M 152.90 90.78 C 153.19 91.39 153.77 92.60 154.06 93.21 C 152.86 93.65 151.67 94.10 150.47 94.56 C 150.67 95.31 151.06 96.79 151.26 97.54 C 151.87 97.84 153.08 98.45 153.69 98.75 C 151.81 100.59 150.81 102.89 151.25 105.54 C 151.74 105.58 152.74 105.65 153.24 105.69 C 153.34 104.92 153.54 103.38 153.64 102.61 C 156.81 104.73 160.31 106.19 164.05 106.92 C 164.78 105.25 165.52 103.59 166.24 101.92 C 163.78 102.88 161.35 103.91 158.89 104.87 C 157.94 103.94 157.00 103.02 156.08 102.08 C 155.63 100.26 155.11 98.46 154.35 96.75 C 154.34 94.76 154.39 92.77 154.51 90.78 C 154.11 90.78 153.30 90.78 152.90 90.78 M 74.34 91.95 C 73.92 93.35 74.40 93.86 75.79 93.48 C 76.20 92.07 75.72 91.56 74.34 91.95 M 74.69 95.88 C 75.22 97.26 75.74 98.65 76.28 100.03 C 77.20 98.41 78.11 96.78 79.02 95.16 C 77.57 95.38 76.13 95.64 74.69 95.88 M 158.53 98.15 C 159.22 99.81 160.62 100.90 162.04 101.90 C 163.16 100.51 165.46 99.41 164.73 97.31 C 162.64 97.39 160.58 97.77 158.53 98.15 M 77.02 102.37 C 79.22 102.47 81.41 102.53 83.60 102.57 C 83.59 101.10 83.55 99.64 83.51 98.18 C 80.41 97.73 78.68 100.19 77.02 102.37 M 85.06 103.09 C 87.52 102.15 89.45 100.32 88.84 97.43 C 87.39 99.19 86.15 101.10 85.06 103.09 M 141.03 97.90 C 140.48 99.50 141.03 100.07 142.68 99.62 C 143.21 98.00 142.66 97.43 141.03 97.90 M 91.29 101.63 C 89.65 102.59 91.47 105.10 92.89 103.85 C 94.50 102.86 92.72 100.40 91.29 101.63 M 122.73 106.15 C 124.52 105.49 126.18 104.51 127.47 103.09 C 125.18 103.04 122.78 103.32 122.73 106.15 M 108.08 103.92 C 106.85 105.32 109.37 107.08 110.41 105.67 C 111.62 104.25 109.16 102.56 108.08 103.92 M 125.63 107.75 C 125.28 108.65 124.92 109.55 124.57 110.45 C 126.85 110.33 128.98 111.10 131.04 111.99 C 131.19 109.88 131.36 107.76 131.72 105.68 C 129.73 106.48 127.70 107.18 125.63 107.75 M 139.03 115.30 C 137.47 116.34 139.36 118.69 140.76 117.54 C 142.36 116.50 140.42 114.18 139.03 115.30 M 131.09 117.32 C 129.87 118.86 129.20 120.67 128.97 122.61 C 129.53 122.62 130.64 122.62 131.19 122.63 C 131.84 122.11 132.51 121.61 133.19 121.14 C 133.70 122.01 134.72 123.75 135.23 124.62 L 133.22 124.64 C 133.52 125.48 133.81 126.33 134.10 127.18 C 134.98 126.58 135.88 126.00 136.78 125.43 C 138.49 127.32 140.46 129.07 143.21 128.89 C 143.73 129.59 144.25 130.29 144.76 131.00 C 144.64 129.88 144.51 128.76 144.39 127.64 C 141.99 126.26 139.44 125.19 136.97 123.96 C 134.89 123.14 135.57 120.56 135.16 118.81 C 134.84 118.39 134.20 117.55 133.88 117.14 C 133.18 117.18 131.79 117.27 131.09 117.32 M 98.29 129.45 C 97.75 131.06 98.30 131.63 99.94 131.16 C 100.48 129.57 99.93 129.00 98.29 129.45 M 97.64 134.31 C 97.34 135.54 97.10 136.77 96.92 138.02 C 99.20 137.01 101.09 135.43 101.40 132.78 C 100.20 133.33 98.59 133.29 97.64 134.31 M 91.78 134.73 C 92.29 135.24 93.33 136.25 93.84 136.75 C 91.28 137.31 89.03 136.54 87.14 134.80 C 86.81 136.33 86.52 137.88 86.18 139.41 C 91.51 137.56 94.55 143.59 98.32 146.13 C 97.18 142.26 95.89 138.42 95.10 134.45 C 93.99 134.48 92.88 134.57 91.78 134.73 M 137.33 134.14 C 137.32 135.43 137.42 136.72 137.49 138.01 C 136.69 138.63 135.91 139.26 135.12 139.88 C 136.22 140.96 137.34 142.03 138.45 143.11 C 138.57 143.88 138.80 145.42 138.92 146.19 C 139.57 144.84 140.60 143.61 140.79 142.09 C 140.16 140.39 139.01 138.96 138.05 137.45 C 139.88 137.60 141.71 137.72 143.54 137.82 C 141.65 136.34 139.81 134.52 137.33 134.14 M 150.33 135.07 C 151.70 138.27 153.04 141.50 153.93 144.87 C 150.53 146.63 147.14 148.40 143.76 150.20 C 142.48 149.93 141.20 149.67 139.92 149.42 C 140.18 151.07 140.42 152.74 140.67 154.40 C 142.06 154.20 143.45 154.00 144.84 153.79 C 145.00 153.13 145.33 151.82 145.49 151.17 C 146.06 151.17 147.18 151.17 147.74 151.17 C 148.45 152.24 149.16 153.31 149.87 154.39 C 151.35 154.36 152.83 154.34 154.31 154.31 C 154.48 153.40 154.64 152.49 154.81 151.59 C 154.02 151.49 152.45 151.31 151.66 151.22 C 152.85 149.08 154.08 146.95 155.36 144.86 C 155.34 144.20 155.31 142.89 155.30 142.24 C 155.97 141.16 156.64 140.09 157.31 139.02 C 155.00 137.67 152.69 136.33 150.33 135.07 M 145.51 136.71 C 145.68 139.66 146.05 142.60 146.68 145.49 C 147.89 144.17 149.66 143.01 149.91 141.08 C 149.41 138.85 147.51 137.51 145.51 136.71 M 129.37 138.81 C 129.46 139.42 129.64 140.62 129.73 141.23 C 130.34 141.26 131.55 141.33 132.15 141.37 C 132.24 142.02 132.43 143.33 132.52 143.99 C 133.12 143.42 133.71 142.84 134.29 142.26 C 132.66 141.09 131.01 139.96 129.37 138.81 M 86.31 142.26 C 85.11 142.57 83.93 144.94 85.72 145.28 C 87.76 145.70 89.03 141.29 86.31 142.26 M 90.92 143.59 C 90.43 144.99 90.89 145.47 92.31 145.05 C 92.79 143.65 92.33 143.17 90.92 143.59 M 78.40 148.43 C 78.51 149.11 78.73 150.47 78.84 151.15 C 80.00 150.17 81.17 149.18 82.31 148.18 C 81.01 148.25 79.70 148.34 78.40 148.43 M 87.87 155.95 C 86.87 154.12 85.91 152.27 84.87 150.47 C 82.70 151.74 80.84 153.42 78.93 155.04 C 80.82 156.42 82.71 157.78 84.55 159.22 C 87.94 156.67 91.30 154.07 94.51 151.29 C 95.60 150.43 95.79 148.97 96.32 147.78 C 93.38 150.38 90.84 153.39 87.87 155.95 M 136.60 148.97 C 135.26 149.89 136.41 152.68 138.00 151.46 C 139.42 150.56 138.17 147.66 136.60 148.97 M 98.93 151.48 C 100.25 153.00 101.57 154.52 102.91 156.03 C 102.81 154.53 102.71 153.03 102.61 151.54 C 101.38 151.52 100.16 151.50 98.93 151.48 M 123.52 150.92 C 122.72 152.14 124.68 154.03 125.74 152.85 C 126.53 151.62 124.60 149.73 123.52 150.92 M 129.45 151.34 C 128.53 152.61 130.63 154.31 131.61 153.02 C 132.54 151.75 130.41 149.99 129.45 151.34 M 91.62 156.87 C 93.60 156.24 95.57 155.59 97.55 154.98 C 96.99 154.33 96.43 153.68 95.87 153.03 C 94.44 154.29 93.00 155.55 91.62 156.87 M 156.97 153.14 C 156.81 153.78 156.49 155.06 156.33 155.70 C 157.69 155.62 159.05 155.52 160.41 155.41 C 159.29 154.61 158.13 153.87 156.97 153.14 M 123.81 155.94 C 124.76 157.81 125.67 159.70 126.65 161.55 C 127.71 159.39 128.88 157.29 130.02 155.17 C 127.95 155.41 125.88 155.66 123.81 155.94 M 134.20 154.92 C 134.24 155.71 134.33 157.30 134.38 158.10 C 135.51 157.66 136.65 157.22 137.79 156.78 C 140.47 157.57 143.45 157.64 145.79 155.89 C 143.85 155.57 141.88 155.63 139.94 155.91 C 138.02 155.62 136.11 155.27 134.20 154.92 M 126.51 164.33 C 129.60 164.56 132.69 164.60 135.78 164.42 C 135.45 162.06 134.90 159.54 132.36 158.69 C 130.44 160.60 128.41 162.40 126.51 164.33 M 140.04 159.89 C 139.83 160.36 139.43 161.30 139.22 161.77 C 138.15 162.90 137.15 164.14 137.38 165.83 C 139.89 164.34 142.30 162.38 142.13 159.16 C 141.61 159.34 140.56 159.71 140.04 159.89 M 101.30 160.33 C 99.97 160.99 99.93 161.67 101.18 162.38 C 102.53 161.71 102.57 161.03 101.30 160.33 M 68.61 162.44 C 68.62 163.07 68.63 164.34 68.64 164.97 C 69.93 164.15 71.20 163.32 72.43 162.41 C 71.16 162.40 69.88 162.41 68.61 162.44 M 78.84 164.18 C 78.78 164.88 78.66 166.28 78.61 166.98 C 79.89 166.52 81.66 166.57 82.06 164.95 C 80.99 164.65 79.91 164.42 78.84 164.18 M 86.18 165.51 C 86.28 165.89 86.50 166.65 86.61 167.03 C 87.91 166.10 89.22 165.18 90.45 164.16 C 89.04 164.65 87.57 164.98 86.18 165.51 M 144.09 164.25 C 144.53 165.10 145.00 165.93 145.48 166.76 C 146.40 166.16 147.30 165.53 148.17 164.88 C 146.81 164.65 145.45 164.44 144.09 164.25 M 93.49 165.33 C 95.18 166.89 97.23 167.89 99.47 166.82 C 97.50 166.24 95.52 165.67 93.49 165.33 M 169.00 164.78 C 169.17 167.10 170.33 168.76 172.78 168.79 C 172.86 166.34 171.29 165.09 169.00 164.78 M 141.75 167.77 C 143.11 170.07 144.02 172.61 143.71 175.32 C 145.02 175.77 146.34 176.23 147.66 176.68 C 146.87 173.76 148.47 171.26 149.98 168.93 C 147.20 168.86 144.40 168.66 141.75 167.77 M 76.26 171.23 C 76.78 171.78 76.78 171.78 76.26 171.23 M 155.44 177.57 C 155.48 178.28 155.55 179.69 155.59 180.40 C 158.27 178.27 160.61 175.76 162.92 173.25 C 163.96 173.23 166.04 173.20 167.09 173.18 C 165.91 172.43 164.82 169.45 163.08 171.16 C 160.31 173.02 157.97 175.42 155.44 177.57 M 150.85 174.18 C 152.29 174.47 153.75 174.66 155.21 174.80 C 154.61 173.98 153.97 173.17 153.31 172.40 C 152.44 172.92 151.66 173.58 150.85 174.18 M 184.26 172.37 C 182.68 173.35 184.46 175.79 185.90 174.67 C 187.46 173.67 185.70 171.21 184.26 172.37 M 64.35 174.16 C 63.82 175.75 64.38 176.30 66.02 175.82 C 66.56 174.22 66.00 173.67 64.35 174.16 M 86.11 179.87 C 85.03 178.49 83.90 177.15 82.72 175.87 C 80.82 178.85 84.15 179.11 86.11 179.87 M 166.37 177.12 C 165.69 178.28 165.00 179.44 164.30 180.60 C 165.57 182.00 166.95 183.31 168.51 184.39 C 167.83 181.95 167.07 179.55 166.37 177.12 M 158.91 186.99 C 158.38 188.61 158.93 189.15 160.56 188.62 C 161.08 186.98 160.54 186.44 158.91 186.99 Z" />
<path fill="#ff0000" opacity="1.00" d=" M 118.36 119.66 C 120.16 119.19 121.95 118.64 123.75 118.18 C 123.65 119.04 123.43 120.75 123.32 121.61 C 123.85 121.91 124.89 122.49 125.42 122.79 C 123.32 125.83 124.50 131.72 119.64 132.05 C 120.40 132.19 121.91 132.48 122.67 132.62 C 121.46 135.23 119.12 136.73 116.43 137.43 C 116.25 138.07 115.90 139.35 115.72 139.99 C 112.60 140.47 113.17 136.72 114.54 135.45 C 115.51 134.01 117.28 133.72 118.85 133.37 C 118.65 132.12 118.47 130.87 118.28 129.63 C 116.90 130.05 115.52 130.43 114.12 130.79 C 114.88 129.48 115.64 128.16 116.39 126.85 C 117.99 127.49 119.57 128.20 121.19 128.79 C 121.80 126.19 122.05 123.52 122.44 120.88 C 121.85 121.15 120.68 121.67 120.10 121.94 C 120.22 122.76 120.46 124.41 120.58 125.23 C 119.92 125.42 118.60 125.81 117.94 126.01 C 117.46 125.00 117.00 123.98 116.55 122.97 C 117.15 121.86 117.75 120.75 118.36 119.66 Z" />
<path fill="#ff0000" opacity="1.00" d=" M 109.70 124.59 C 110.72 123.54 112.25 121.00 113.80 123.08 C 112.88 124.50 111.14 124.31 109.70 124.59 Z" />
</g>
</svg>
