<?xml version="1.0" encoding="utf-8"?>
<!-- Generator: Adobe Illustrator 26.0.3, SVG Export Plug-In . SVG Version: 6.00 Build 0)  -->
<svg version="1.1" id="Layer_1" xmlns="http://www.w3.org/2000/svg" xmlns:xlink="http://www.w3.org/1999/xlink" x="0px" y="0px"
	 viewBox="0 0 250 250" style="enable-background:new 0 0 250 250;" xml:space="preserve">
<style type="text/css">
	.st0{fill:#309FEE;}
	.st1{fill:#E7E6E6;}
	.st2{fill:#4DD7FF;}
	.st3{fill:#3BCFFF;}
	.st4{fill:#6BE0FE;}
	.st5{fill:#3383B7;}
	.st6{fill:#38C2FF;}
	.st7{fill:#3DC9FE;}
	.st8{fill:#50C3FF;}
	.st9{fill:#38B5FF;}
	.st10{fill:#318BB3;}
	.st11{fill:#308EB0;}
	.st12{fill:#32BEFE;}
	.st13{fill:#3997D0;}
	.st14{fill:#35A8FF;}
	.st15{fill:#30B9FE;}
	.st16{fill:#8AC4E6;}
	.st17{fill:#49B2F4;}
	.st18{fill:#406FB4;}
	.st19{fill:#3D72B6;}
	.st20{fill:#2E97AA;}
	.st21{fill:#329EEE;}
	.st22{fill:#41A5E3;}
	.st23{fill:#2F95E0;}
	.st24{fill:#446BB1;}
	.st25{fill:#2C9EA6;}
	.st26{fill:#2CA8F7;}
	.st27{fill:#4965AD;}
	.st28{fill:#4C63AB;}
	.st29{fill:#2D8CD1;}
	.st30{fill:#2C9FA6;}
	.st31{fill:#2C82C1;}
	.st32{fill:#2B97DD;}
	.st33{fill:#4D61AA;}
	.st34{fill:#3988BB;}
	.st35{fill:#2AA5A1;}
	.st36{fill:#3079B1;}
	.st37{fill:#5558A4;}
	.st38{fill:#2987C5;}
	.st39{fill:#5558A3;}
	.st40{fill:#298AC8;}
	.st41{fill:#5658A3;}
	.st42{fill:#2B77A8;}
	.st43{fill:#2D70A0;}
	.st44{fill:#5D509E;}
	.st45{fill:#227AB1;}
	.st46{fill:#644898;}
</style>
<g id="_x23_309feeff">
	<path class="st0" d="M116.4,3.3c2.9-0.3,5.7-0.7,8.6-0.6c11.8,0.7,23.7,1.8,35,5.5c24,7.3,45.4,22.4,60.5,42.3
		c16.2,21.2,25.3,47.8,25.1,74.5c0.2,28.4-10.1,56.6-28.2,78.4c-17.7,21.4-43,36.6-70.3,41.6c-6.3,1.3-12.7,1.5-19,2.1
		c-5.7,0.5-11.3-0.6-17-0.9c-27.1-2.9-53.1-15.6-72.1-35.2c-17.4-17.4-29.1-40.3-33.4-64.5c-1-7.9-2.8-15.7-2.6-23.6
		c1.2-11.2,2.4-22.4,5.9-33.2c5.9-20.2,17.3-38.9,32.6-53.4C61.4,17,88.5,4.8,116.4,3.3 M111.4,7.6c-31,3.3-60.2,19.9-79.2,44.5
		C16.1,72.7,6.9,98.8,7.3,125C6.9,146.4,13,167.7,24,186c13.9,23.3,36,41.5,61.6,50.5c11.7,4.3,24.1,6.1,36.4,6.8
		c25.5,0.3,51.1-7.5,71.6-22.6c25-18.2,42.4-46.5,47-77.1c0.8-5.8,1.4-11.7,1.7-17.6c-0.3-17.3-3.5-34.7-10.9-50.4
		c-12.4-27.3-35.6-49.5-63.5-60.5C150.1,8.1,130.4,5.2,111.4,7.6z"/>
</g>
<g id="_x23_e7e6e6ff">
	<path class="st1" d="M111.4,7.6c19-2.4,38.7,0.5,56.5,7.5c27.9,11,51.1,33.2,63.5,60.5c7.4,15.7,10.6,33.1,10.9,50.4
		c-0.3,5.9-0.9,11.8-1.7,17.6c-4.6,30.6-22.1,58.9-47,77.1c-20.6,15.2-46.2,23-71.6,22.6c-12.3-0.7-24.8-2.5-36.4-6.8
		C60,227.5,37.9,209.3,24,186c-11-18.3-17.1-39.6-16.7-61c-0.5-26.2,8.8-52.3,24.8-72.8C51.2,27.5,80.4,10.9,111.4,7.6 M80.1,25.1
		c-4.4,1-8,3.9-11.8,6.1c-13.7,8.5-25.3,20.4-34,33.9c-4,7.1-8.2,14.2-9.9,22.2c-3.4,5.9-4.1,12.7-5.7,19.2
		c-1.9,8-1.4,16.2-1.4,24.4c-0.1,4.1,0.6,8.1,1.8,11.9c0.4,2.4,1.1,4.8,1.8,7.2c1.7,9,5.2,17.7,9.2,25.9
		c6.4,13.2,16.3,24.2,27.1,33.9c6.5,4.8,13,9.9,20.7,12.7c7.5,4.3,15.9,7.2,24.5,8.7c5.8,1.6,11.8,2.4,17.8,2.4
		c7.3,0,14.7,0.4,22-1.1c22.6-3.5,43.7-14.7,59.5-31.1c4.4-4.6,8.9-9.4,11.9-15.2c5.2-6.4,8.3-14.1,11.4-21.6c1.8-4.2,3.1-8.5,4-13
		l0.5,0.5c0.6-5.5,2.1-11,2.1-16.6l0.9-0.3c-0.2-3.6-0.1-7.3,0.1-10.9c-0.1-2.8-0.1-5.5,0-8.3c-0.5-2.7-0.8-5.4-1.5-8
		c-0.6-4.4-0.9-9.1-2.8-13.2c-2.1-8.4-5.3-16.7-9.9-24c-3.1-6.5-6.9-12.9-12.3-17.8c-4.3-6.3-10.1-11.3-16-16
		c-18.5-14-41.6-22.4-64.9-21.8C109.5,14.8,94,18.5,80.1,25.1z"/>
</g>
<g id="_x23_4dd7ffff">
	<path class="st2" d="M80.1,25.1c14-6.6,29.5-10.3,44.9-9.9c23.3-0.6,46.4,7.8,64.9,21.8c5.9,4.7,11.7,9.8,16,16
		c-3.8-2.9-7.6-5.9-11-9.3c-12.8-11.1-29.1-17.8-45.8-20.2c-8-1.3-16.1-0.2-23.9,1.8c-4.7,1.1-9.5,2.6-13.6,5.3
		C96,41.2,79.9,51.2,64.1,61.6c-6.2-1-13.2-4.1-19.2-0.7c-2.6,1.3-5,2.9-7.3,4.7c6.2-9.5,14.2-17.8,23-25
		c7.8-6.4,16.9-10.9,25.6-15.8C84.2,24.9,82.1,25,80.1,25.1z"/>
</g>
<g id="_x23_3bcfffff">
	<path class="st3" d="M125.4,25.4c7.8-2.1,15.9-3.1,23.9-1.8c16.6,2.4,33,9.1,45.8,20.2c-4.8-0.3-10.9-2.6-14.5,1.7
		c-2.1,2.7-4,5.5-5.6,8.5c-2-0.6-4.1-1.1-6.1-1.7C154.2,43.5,140.3,33.6,125.4,25.4z"/>
</g>
<g id="_x23_6be0feff">
	<path class="st4" d="M68.2,31.3c3.8-2.3,7.4-5.2,11.8-6.1c2-0.2,4.1-0.2,6.2-0.3c-8.7,4.9-17.8,9.4-25.6,15.8
		c-8.8,7.2-16.8,15.5-23,25c-5.2,6.5-9.1,13.8-13.1,21.1l-0.3,0.7c1.8-8,5.9-15.2,9.9-22.2C42.9,51.6,54.5,39.8,68.2,31.3z"/>
</g>
<g id="_x23_3383b7ff">
	<path class="st5" d="M111.8,30.8c4.1-2.7,8.9-4.2,13.6-5.3c14.9,8.2,28.8,18.1,43.4,26.8c5.4,3.5,10.8,7.1,16.2,10.7
		c0.7,1,1.4,2,2.1,3c-8.7,0.3-17.4-0.2-26.1,0.2c-5.7,0.2-11.4,0.7-17,0c-6.8-3.9-12.9-9.8-20.9-10.6c-7.2-0.6-13.1,4.1-18.9,7.6
		c-4.9,1.2-10,1.5-15.1,1.7c-9.2,0.3-18.5,0.8-27.7,1.2c0.2-1,0.4-2.1,0.5-3.1c0.7-0.5,1.5-0.9,2.2-1.4
		C79.9,51.2,96,41.2,111.8,30.8z"/>
</g>
<g id="_x23_38c2ffff">
	<path class="st6" d="M180.5,45.5c3.6-4.3,9.8-2,14.5-1.7c3.4,3.4,7.1,6.4,11,9.3c5.4,4.9,9.2,11.3,12.3,17.8
		c-3.9-3.9-7.8-8.6-13.4-9.8c-5,0.9-8.7,5.4-14,5.5c-2-1.2-4-2.4-6-3.7c-5.3-3.6-10.8-7.1-16.2-10.7c2,0.6,4.1,1.2,6.1,1.7
		C176.4,51,178.4,48.2,180.5,45.5z"/>
</g>
<g id="_x23_3dc9feff">
	<path class="st7" d="M104.1,63.2c5.8-3.5,11.7-8.2,18.9-7.6c8.1,0.8,14.2,6.7,20.9,10.6c2.9,1.8,5.7,3.7,8.5,5.5
		c0,1.1,0,2.2,0.1,3.3c-2.6,0.4-5.2,0.9-7.8,1.4C138.5,72.7,132.7,68,126,65c-4.8-2.3-10,0.2-14.1,2.9
		c-11.5,7.6-23.1,14.9-34.7,22.4c-4.9,3.3-9.8,6.3-15,9.1c-2.2-1.5-4.4-3-6.8-4.2C71.4,84,88.1,74.1,104.1,63.2z"/>
</g>
<g id="_x23_50c3ffff">
	<path class="st8" d="M44.9,60.9c6-3.4,12.9-0.3,19.2,0.7c-0.8,0.5-1.5,0.9-2.2,1.4c-6.3,3.5-12.9,8.9-13.1,16.8
		c-0.3,2.3-0.4,4.7-0.6,7c-0.9,3.2-1.5,7.1-4.5,9c-4.1,0.8-8.2-1.1-12.4-0.4c-3.9,1.3-7.1,4-10.1,6.6c1.4-5,1.8-10.2,3.4-15.1
		c3.9-7.3,7.9-14.6,13.1-21.1C39.9,63.8,42.3,62.2,44.9,60.9z"/>
</g>
<g id="_x23_38b5ffff">
	<path class="st9" d="M190.9,66.6c5.3-0.1,9-4.7,14-5.5c5.6,1.2,9.5,6,13.4,9.8c4.7,7.3,7.9,15.6,9.9,24c-2.4-4.2-4.8-8.4-8.3-11.8
		c-1.9-1.9-4.8-2.5-7.3-1.6c-5.2,1.8-9.4,5.5-13.9,8.6C199.1,81.7,198.3,71.9,190.9,66.6z"/>
</g>
<g id="_x23_318bb3ff">
	<path class="st10" d="M48.8,79.8C49,71.8,55.5,66.5,61.8,63c-0.1,1-0.3,2.1-0.5,3.1c9.2-0.4,18.5-0.9,27.7-1.2
		c5.1-0.2,10.1-0.5,15.1-1.7C88.1,74.1,71.4,84,55.5,95.1c-2.1-1.2-4.3-2.2-6.5-3.2C48.9,87.9,48.6,83.8,48.8,79.8z"/>
</g>
<g id="_x23_308eb0ff">
	<path class="st11" d="M184.9,62.9c2,1.3,4,2.4,6,3.7c7.4,5.3,8.2,15.1,7.8,23.5c-0.1,6.6-0.2,13.3,0,19.9c0.1,4.9,0.1,9.8,0.1,14.7
		c-0.3,0.2-1,0.5-1.4,0.7c0.2-2.7,0.2-5.3,0.5-7.9c-0.7-0.2-2.1-0.5-2.7-0.7c1.4-1.6,2.8-3.5,2.9-5.8c0.6-6.7-0.3-13.3-0.3-20
		c-10.6,6.2-20.8,13.1-31.3,19.3c-9.4-6.6-19.4-12.5-29-18.9c-4.7-3-9.6-6.4-15.4-6.4c-6.1-0.2-11.3,3.5-16.2,6.7
		c-8.9,6-18.3,11.4-26.9,17.9c-5.6-3.3-11.2-6.7-16.6-10.3c5.2-2.7,10.2-5.8,15-9.1c11.6-7.4,23.2-14.8,34.7-22.4
		c4.1-2.7,9.2-5.2,14.1-2.9c6.7,3,12.5,7.7,18.8,11.4c10.5,6.6,20.7,13.6,31.5,19.7c-0.1-2.9,0.1-5.9-0.6-8.8
		c-1.5-2.2-3.9-3.5-6.1-5c-5.7-3.5-11.4-7-17.1-10.7c-2.9-1.8-5.7-3.7-8.5-5.5c5.7,0.7,11.4,0.2,17,0c8.7-0.4,17.4,0.1,26.1-0.2
		C186.4,64.9,185.7,63.9,184.9,62.9z"/>
</g>
<g id="_x23_32befeff">
	<path class="st12" d="M152.5,71.7c5.6,3.7,11.3,7.2,17.1,10.7c2.2,1.5,4.6,2.8,6.1,5c0.7,2.9,0.5,5.8,0.6,8.8
		c-10.8-6.2-21-13.2-31.5-19.7c2.6-0.5,5.2-1,7.8-1.4C152.5,73.9,152.5,72.8,152.5,71.7z"/>
</g>
<g id="_x23_3997d0ff">
	<path class="st13" d="M48.2,86.8c0.2-2.3,0.3-4.7,0.6-7c-0.2,4.1,0.1,8.1,0.2,12.2c0.1,8.5-0.2,17-0.2,25.4
		c0,7.3,0.3,14.6,0.2,21.9c0,3.8-0.1,7.7-0.2,11.5c-0.4,2.5-0.9,5-1.4,7.5c-4.1-1.7-8.5-2.8-12-5.6c-4.1-3.2-8.6-5.5-13-8.2
		c-0.5,1.9-1.1,3.8-1.6,5.7c-0.6-2.4-1.4-4.7-1.8-7.2c-0.6-4.2-0.7-8.4-0.9-12.6c3.2-0.4,6.5-0.7,9.3,1.1c6.3,3.4,12.8,6.4,19.6,8.7
		c1.1-7.7,1.4-15.4,1.1-23.2C48.4,106.9,48.2,96.8,48.2,86.8z"/>
</g>
<g id="_x23_35a8ffff">
	<path class="st14" d="M212.6,81.5c2.5-0.9,5.4-0.4,7.3,1.6c3.4,3.4,5.8,7.7,8.3,11.8c2,4.1,2.2,8.7,2.8,13.2c-1.5-3.1-4-6.7-8-6.3
		c-8.6,0.7-16.3,5.2-24.3,8.2c-0.1-6.7-0.1-13.3,0-19.9C203.2,87,207.4,83.3,212.6,81.5z"/>
</g>
<g id="_x23_30b9feff">
	<path class="st15" d="M105.8,91.8c4.9-3.2,10.1-6.8,16.2-6.7c5.8,0,10.8,3.4,15.4,6.4c9.6,6.4,19.5,12.3,29,18.9
		c-2.6,1.5-5.2,3.2-7.8,4.8c-7.9-6-16.6-10.7-24.7-16.2c-3.7-2.3-7.5-5.1-11.9-5.3c-4.5,0.1-8.4,2.8-12.1,5.2
		c-7.8,5.3-15.9,9.9-23.5,15.5c-2.5-1.7-5-3.2-7.6-4.7C87.4,103.2,96.8,97.8,105.8,91.8z"/>
</g>
<g id="_x23_8ac4e6ff">
	<path class="st16" d="M24.2,87.4l0.3-0.7c-1.6,4.9-2,10.2-3.4,15.1c-1.3,4.8-2.6,9.7-3.1,14.7c-0.2,4.6-0.1,9.1,0,13.7
		c0.1,4.2,0.3,8.4,0.9,12.6c-1.2-3.9-1.9-7.9-1.8-11.9c0-8.1-0.5-16.4,1.4-24.4C20.1,100.2,20.8,93.3,24.2,87.4z"/>
</g>
<g id="_x23_49b2f4ff">
	<path class="st17" d="M43.7,95.7c3-1.9,3.6-5.8,4.5-9c0.1,10.1,0.3,20.2,0,30.2c-0.8,1-1.6,2.1-2.3,3.1c-6.3-1-12.2-3.7-18.2-5.7
		c-3.4-1.4-6.6,0.8-9.5,2.2c0.5-5,1.8-9.9,3.1-14.7c3.1-2.6,6.3-5.3,10.1-6.6C35.4,94.6,39.6,96.5,43.7,95.7z"/>
</g>
<g id="_x23_406fb4ff">
	<path class="st18" d="M166.4,110.4c10.6-6.3,20.8-13.1,31.3-19.3c0.1,6.7,1,13.4,0.3,20c-0.2,2.2-1.5,4.1-2.9,5.8
		c-7.1,4.5-14.1,8.9-21.3,13.2c1.9-1.6,2.6-4.1,4.4-5.8c-6.1,0.1-12.2,0.5-18.3,0.9c-6.8,0.4-13.7,0.5-20.2,2.6
		c0.5-0.3,1.4-0.9,1.9-1.2c5.6-3.8,11.3-7.5,16.9-11.3C161.2,113.6,163.8,111.9,166.4,110.4z"/>
</g>
<g id="_x23_3d72b6ff">
	<path class="st19" d="M49,91.9c2.2,1,4.4,2,6.5,3.2c2.3,1.3,4.5,2.8,6.8,4.2c5.4,3.6,10.9,7,16.6,10.3c2.6,1.5,5.1,3,7.6,4.7
		c2.6,1.7,5.2,3.6,7.9,5.2c-15-3.5-30.7,2.9-45.5-2.2C48.7,108.9,49.1,100.4,49,91.9z"/>
</g>
<g id="_x23_2e97aaff">
	<path class="st20" d="M109.9,98.8c3.7-2.4,7.6-5.1,12.1-5.2c4.5,0.3,8.3,3,11.9,5.3c8.1,5.6,16.9,10.2,24.7,16.2
		c-5.6,3.7-11.3,7.4-16.9,11.3c-5.5-4.1-11.5-8.7-18.7-8.4c-6.8,0.1-12.4,4.5-17.6,8.3c-3.7-2.3-7.4-4.5-11.1-6.8
		c-2.7-1.6-5.2-3.5-7.9-5.2C93.9,108.7,102.1,104.1,109.9,98.8z"/>
</g>
<g id="_x23_329eeeff">
	<path class="st21" d="M198.7,110c8-2.9,15.7-7.5,24.3-8.2c4-0.5,6.5,3.1,8,6.3c0.7,2.6,1,5.3,1.5,8c-2.6-0.4-5.3-1.9-8-0.8
		c-8.7,2.7-16.9,6.9-25.7,9.4C198.8,119.8,198.8,114.9,198.7,110z"/>
</g>
<g id="_x23_41a5e3ff">
	<path class="st22" d="M18.1,116.6c2.9-1.4,6.1-3.6,9.5-2.2c6,2,11.9,4.6,18.2,5.7c0.8-1,1.6-2.1,2.3-3.1c0.3,7.8,0,15.5-1.1,23.2
		c-6.8-2.2-13.3-5.2-19.6-8.7c-2.8-1.9-6.1-1.5-9.3-1.1C18,125.8,18,121.2,18.1,116.6z"/>
</g>
<g id="_x23_2f95e0ff">
	<path class="st23" d="M224.5,115.3c2.7-1.1,5.3,0.4,8,0.8c0,2.8,0,5.6,0,8.3c-12,3.4-22.1,11-33.9,14.7c0.2-4.8,0.3-9.6,0.2-14.5
		C207.6,122.2,215.8,118,224.5,115.3z"/>
</g>
<g id="_x23_446bb1ff">
	<path class="st24" d="M48.7,117.4c14.9,5.1,30.5-1.3,45.5,2.2c3.7,2.3,7.5,4.5,11.1,6.8c3.3,2.1,6.4,4.5,9.7,6.6
		c-9.6-2-19.4-0.2-29.1,0.7c0.6,1.2,1.1,2.5,1.7,3.7l-0.6-0.4c-5.3-3.5-10.7-6.7-16.4-9.5c0.3,2.8-0.1,5.9,1.2,8.6
		c1.8,2.5,4.6,4.1,7.2,5.8c-9.3-5.6-20.1-1.5-30.2-2.6C49,132,48.8,124.7,48.7,117.4z"/>
</g>
<g id="_x23_2c9ea6ff">
	<path class="st25" d="M173.9,130c7.2-4.3,14.3-8.7,21.3-13.2c0.7,0.2,2,0.5,2.7,0.7c-0.3,2.6-0.3,5.3-0.5,7.9
		c-2.8,1.5-5.9,2.6-8.5,4.5c-6.7,4.6-13.7,8.9-20.5,13.4c-2.5-1.6-4.9-3.1-7.4-4.7C165.2,135.7,169.7,133.1,173.9,130z"/>
</g>
<g id="_x23_2ca8f7ff">
	<path class="st26" d="M105.4,126.4c5.2-3.8,10.8-8.2,17.6-8.3c7.2-0.2,13.2,4.4,18.7,8.4c-0.5,0.3-1.4,0.9-1.9,1.2
		c-4,2.5-7.9,5.5-12.7,6.4c-4,0.9-8.1-0.2-12-1.2C111.8,130.9,108.7,128.5,105.4,126.4z"/>
</g>
<g id="_x23_4965adff">
	<path class="st27" d="M160,125.1c6.1-0.4,12.2-0.8,18.3-0.9c-1.8,1.7-2.6,4.2-4.4,5.8c-4.1,3.1-8.6,5.7-12.9,8.6
		c-9.7,5.9-19.1,12.5-28.7,18.6c-4.3,2.9-9.9,2.6-14.1-0.3c-10.1-6.5-20.1-13.3-30.4-19.5c-0.6-1.2-1.1-2.5-1.7-3.7
		c9.6-0.9,19.4-2.7,29.1-0.7c3.9,1,7.9,2,12,1.2c4.8-0.9,8.7-3.9,12.7-6.4C146.3,125.7,153.2,125.5,160,125.1z"/>
</g>
<g id="_x23_4c63abff">
	<path class="st28" d="M188.9,129.9c2.6-1.9,5.6-3,8.5-4.5c0.3-0.2,1-0.5,1.4-0.7c0.2,4.8,0,9.6-0.2,14.5c0,1.8,0.1,3.6,0.1,5.4
		c-4.9,2.4-9.5,5.4-14.1,8.3c-1.8,1.1-3.6,2.2-5.4,3.3c0.5-1.3,0.9-2.6,1.4-3.9c-11.7,0.4-24.1-0.3-34.7,5.6
		c7.4-5,14.9-9.9,22.4-14.7C175.2,138.8,182.2,134.5,188.9,129.9z"/>
</g>
<g id="_x23_2d8cd1ff">
	<path class="st29" d="M198.6,139.2c11.8-3.8,22-11.4,33.9-14.7c-0.1,3.6-0.2,7.3-0.1,10.9l-0.9,0.3c-6.7,2.1-13.2,5-19.1,8.9
		c-4.3,2.8-9.1,4.8-14.1,6c0-2,0.2-3.9,0.3-5.9C198.7,142.8,198.5,141,198.6,139.2z"/>
</g>
<g id="_x23_2c9fa6ff">
	<path class="st30" d="M70.8,127.5c5.6,2.9,11.1,6.1,16.4,9.5c-2.2,1.9-4.4,3.7-6.7,5.6c-0.3-0.2-1-0.6-1.3-0.8
		c-2.6-1.6-5.4-3.2-7.2-5.8C70.7,133.4,71.1,130.4,70.8,127.5z"/>
</g>
<g id="_x23_2c82c1ff">
	<path class="st31" d="M212.4,144.5c5.9-3.9,12.4-6.8,19.1-8.9c0,5.6-1.5,11.1-2.1,16.6l-0.5-0.5c-1.1-1-2.1-2-3.1-3
		c-9.4,3.7-17.3,10.3-26.9,13.6c-0.1-2.9,0-5.8-0.1-8.7c-0.1-1.1-0.2-2.1-0.3-3.2C203.4,149.3,208.2,147.4,212.4,144.5z"/>
</g>
<g id="_x23_2b97ddff">
	<path class="st32" d="M87.1,137.1l0.6,0.4c10.3,6.2,20.3,13,30.4,19.5c4.2,2.9,9.8,3.2,14.1,0.3c9.6-6.1,19-12.7,28.7-18.6
		c2.5,1.6,4.9,3.1,7.4,4.7c-7.6,4.8-15.1,9.6-22.4,14.7c-5.3,3.2-10.3,7-16.2,8.8c-6.1,1.8-12.3-0.9-17.5-3.9
		c-10.3-7.2-21.1-13.6-31.7-20.3C82.7,140.8,84.9,138.9,87.1,137.1z"/>
</g>
<g id="_x23_4d61aaff">
	<path class="st33" d="M49,139.2c10.1,1.1,20.9-3,30.2,2.6c0.3,0.2,1,0.6,1.3,0.8c10.6,6.7,21.5,13.1,31.7,20.3
		c-3.6-1.9-7.3-3.8-11.4-4.2c-7.1-1.3-14.3,0.3-21.4,0.1c0.4,1.2,0.9,2.4,1.3,3.6c-3.2-2-6.6-3.8-9.9-5.6c0.3,3.4,0.6,6.8,0.9,10.3
		c-1-2.1-1.9-4.1-2.7-6.2c-6.7,0.4-13.4,0.4-20,0.3c0-3.4-0.1-6.9-0.1-10.3C48.9,146.9,48.9,143.1,49,139.2z"/>
</g>
<g id="_x23_3988bbff">
	<path class="st34" d="M22.4,144.5c4.4,2.7,8.9,5.1,13,8.2c3.5,2.8,7.9,3.9,12,5.6c0.5-2.5,1.1-5,1.4-7.5c0,3.4,0.1,6.8,0.1,10.3
		c0,2.1-0.1,4.2,0,6.2c-4.5-1-8.8,0.9-13.2,1.1c1.4,5.2,2.5,10.5,4.6,15.4c4.1,8.7,10,16.4,16.9,23c6.2,6.1,13.9,10.3,20.6,15.8
		c-7.7-2.8-14.2-7.9-20.7-12.7C46.2,200.3,36.3,189.2,30,176c-4-8.2-7.5-16.9-9.2-25.9C21.2,148.2,21.8,146.4,22.4,144.5z"/>
</g>
<g id="_x23_2aa5a1ff">
	<path class="st35" d="M184.6,152.9c4.6-2.9,9.2-5.9,14.1-8.3c-0.1,2-0.3,3.9-0.3,5.9c0.1,1.1,0.2,2.1,0.3,3.2
		c-2.6,1.5-5.1,2.9-7.6,4.5C188.9,156.4,186.7,154.6,184.6,152.9z"/>
</g>
<g id="_x23_3079b1ff">
	<path class="st36" d="M198.8,162.4c9.6-3.3,17.5-9.9,26.9-13.6c1,1,2.1,2,3.1,3c-0.9,4.5-2.3,8.8-4,13c-3.1,7.5-6.3,15.2-11.4,21.6
		c2.3-5.9,2.8-12.1,3.7-18.3c-3-0.1-6.1-0.6-9.2-0.1c-3.3,1-6.2,3.1-9.2,4.9C199.2,169.4,199,165.9,198.8,162.4z"/>
</g>
<g id="_x23_5558a4ff">
	<path class="st37" d="M145.9,157.9c10.6-5.9,23-5.3,34.7-5.6c-0.5,1.3-1,2.6-1.4,3.9c-12,7.5-23.7,15.4-35.5,23.2
		c-6,3.5-11.5,8.9-18.7,9.5c-6.6-1-11.8-5.7-17.4-9c-9-5.9-18-11.8-27.1-17.6c-0.4-1.2-0.9-2.4-1.3-3.6c7.2,0.3,14.3-1.4,21.4-0.1
		c4.1,0.5,7.8,2.4,11.4,4.2c5.2,2.9,11.4,5.7,17.5,3.9C135.6,164.9,140.6,161.1,145.9,157.9z"/>
</g>
<g id="_x23_2987c5ff">
	<path class="st38" d="M179.2,156.2c1.8-1.1,3.6-2.2,5.4-3.3c2.2,1.8,4.3,3.5,6.5,5.3c-10.8,7.2-22,13.7-32.7,21.2
		c-4.9,0.2-9.8-0.3-14.7,0.1C155.5,171.6,167.2,163.7,179.2,156.2z"/>
</g>
<g id="_x23_5558a3ff">
	<path class="st39" d="M191.1,158.2c2.5-1.6,5.1-3,7.6-4.5c0.2,2.9,0.1,5.8,0.1,8.7c0.1,3.5,0.3,7,0,10.5c-0.6,2.5-1.5,4.9-2.6,7.2
		c0.1-2.6-0.2-5.2-0.2-7.8c-6.2,1.2-12.6,1.6-18.9,1.5c-6.9-0.2-13.4,2.8-19.3,5.9l0.6-0.4C169,171.9,180.3,165.4,191.1,158.2z"/>
</g>
<g id="_x23_298ac8ff">
	<path class="st40" d="M70.8,156.7c3.3,1.8,6.7,3.6,9.9,5.6c9.1,5.8,18.1,11.7,27.1,17.6c-4.6,0.4-9.3,0.7-13.9,0.4
		c-7.1-4.9-14.6-9.2-22.1-13.3C71.3,163.6,71,160.1,70.8,156.7z"/>
</g>
<g id="_x23_5658a3ff">
	<path class="st41" d="M48.9,161.1c6.7,0.1,13.4,0.1,20-0.3c0.8,2.1,1.8,4.2,2.7,6.2c7.5,4.2,15,8.4,22.1,13.3
		c1.2,0.8,2.4,1.6,3.6,2.5c-8.8-5.4-19.5-4.6-29.2-3.4c-4.7,0.5-7.6,4.6-10.6,7.8c-7-4-9.2-12.3-8.7-19.9
		C48.8,165.2,48.9,163.1,48.9,161.1z"/>
</g>
<g id="_x23_2b77a8ff">
	<path class="st42" d="M35.7,168.4c4.4-0.2,8.7-2.1,13.2-1.1c-0.5,7.6,1.7,15.8,8.7,19.9c8,5.1,15.9,10.2,23.9,15.2
		c8.1,5,16.1,10.2,24,15.3c-3.2,3.4-6.3,6.8-9.5,10.1c2.1,1.2,4.1,2.5,6.2,3.6c-8.5-1.5-16.9-4.4-24.5-8.7
		c-6.7-5.5-14.4-9.7-20.6-15.8c-6.9-6.7-12.8-14.4-16.9-23C38.1,178.8,37,173.5,35.7,168.4z"/>
</g>
<g id="_x23_2d70a0ff">
	<path class="st43" d="M208,168c3-0.5,6.1,0,9.2,0.1c-0.9,6.2-1.5,12.4-3.7,18.3c-2.9,5.8-7.5,10.6-11.9,15.2
		c-15.8,16.4-37,27.6-59.5,31.1c-7.2,1.5-14.6,1.1-22,1.1c-6,0-12-0.8-17.8-2.4c-2.1-1.1-4.2-2.3-6.2-3.6c3.2-3.4,6.3-6.8,9.5-10.1
		c5.8,3.5,11.4,8.6,18.6,8.9c7.1-0.5,12.7-5.5,18.4-9.1c6.2-4.1,12.5-8,18.6-12.3c8.2-4.7,16-10.1,24-15.1c4.2-2.8,8.8-5.4,11.3-9.9
		c1.1-2.3,2-4.7,2.6-7.2C201.8,171.1,204.6,169,208,168z"/>
</g>
<g id="_x23_5d509eff">
	<path class="st44" d="M177.1,173.8c6.3,0,12.7-0.4,18.9-1.5c0,2.6,0.3,5.2,0.2,7.8c-2.4,4.5-7.1,7.2-11.3,9.9
		c-8,5-15.8,10.4-24,15.1c3.7-3,7.2-6.3,11.1-9.2c-9.5-1-18.9,0.6-28.4,0.6c-6.5,0.1-12.9,1.7-19.4,1.9c-5.7,0.2-11.4-0.8-17.2-0.6
		c-8.5,0.2-17,1.4-25.5,1.6c0,1-0.1,2-0.2,3c-8-5-16-10.1-23.9-15.2c3-3.1,5.9-7.3,10.6-7.8c9.8-1.3,20.5-2.1,29.2,3.4
		c4.7,3,9.5,5.7,14.2,8.8c4.5,2.9,9.7,5.7,15.2,5.2c6.2-0.6,11.3-4.4,16.3-7.6c4.9-3.1,9.8-6.4,14.7-9.4
		C163.8,176.6,170.2,173.6,177.1,173.8z"/>
</g>
<g id="_x23_227ab1ff">
	<path class="st45" d="M143.7,179.4c4.9-0.3,9.8,0.1,14.7-0.1l-0.6,0.4c-5,3-9.8,6.2-14.7,9.4c-5,3.3-10.1,7.1-16.3,7.6
		c-5.6,0.5-10.7-2.3-15.2-5.2c-4.7-3.1-9.5-5.8-14.2-8.8c-1.2-0.8-2.4-1.6-3.6-2.5c4.6,0.3,9.3,0,13.9-0.4c5.6,3.3,10.8,8,17.4,9
		C132.3,188.3,137.7,182.9,143.7,179.4z"/>
</g>
<g id="_x23_644898ff">
	<path class="st46" d="M143.7,196.5c9.5,0,18.9-1.6,28.4-0.6c-3.8,2.9-7.3,6.2-11.1,9.2c-6.1,4.3-12.4,8.2-18.6,12.3
		c-5.7,3.7-11.3,8.6-18.4,9.1c-7.1-0.3-12.7-5.3-18.6-8.9c-8-5.2-15.9-10.4-24-15.3c0.1-1,0.2-2,0.2-3c8.5-0.2,17-1.4,25.5-1.6
		c5.7-0.1,11.4,0.8,17.2,0.6C130.8,198.2,137.2,196.6,143.7,196.5z"/>
</g>
</svg>
