<?xml version="1.0" encoding="utf-8"?>
<!-- Generator: Adobe Illustrator 26.0.3, SVG Export Plug-In . SVG Version: 6.00 Build 0)  -->
<svg version="1.1" id="Layer_1" xmlns="http://www.w3.org/2000/svg" xmlns:xlink="http://www.w3.org/1999/xlink" x="0px" y="0px"
	 viewBox="0 0 250 250" style="enable-background:new 0 0 250 250;" xml:space="preserve">
<style type="text/css">
	.st0{fill:#202020;}
	.st1{fill:#F2C019;}
</style>
<circle class="st0" cx="125" cy="125.5" r="125"/>
<g id="_x23_f2c019ff">
	<path class="st1" d="M123.5,37.4c0.6-0.7,1.8-1.9,2.6-0.7c17.8,17.9,35.7,35.7,53.5,53.6c1,1.1-0.8,2.1-1.3,2.9
		c-5.9,5.8-11.7,11.7-17.6,17.5c-0.4,0-1.1,0-1.5,0c-11-10.9-21.9-22.1-33-33c-0.9-1.2-2.1-0.1-2.8,0.7
		c-10.2,10.4-20.7,20.6-30.9,31.1c-0.7,0.7-1.4,1.2-2.3,1.7c-6.7-6.7-13.4-13.3-20.1-20.1C87.8,73.1,105.8,55.3,123.5,37.4z"/>
	<path class="st1" d="M105.6,124.6c6.6-6.5,12.8-13.5,19.8-19.5c6.7,6.9,13.5,13.7,20.3,20.3c-6.5,7-13.4,13.6-20.1,20.4l-0.8,0.1
		c-6.2-6-12.2-12.2-18.4-18.3C105.7,126.8,104.2,125.6,105.6,124.6z"/>
	<path class="st1" d="M174.2,125.7c6.8-6.9,13.5-13.8,20.5-20.4c6.5,7.1,13.8,13.4,20.1,20.6c-6.9,6.5-13.4,13.3-20.1,20
		C187.5,139.5,181.1,132.4,174.2,125.7z"/>
	<path class="st1" d="M35.8,125.2c6.7-6.6,13.3-13.4,20.1-20c6.6,6.8,13.4,13.4,20.1,20.1c-0.6,0.8-1,1.7-1.8,2.4
		c-6.1,5.9-12,12.1-18.2,18l-0.6-0.2c-5.4-5.3-10.7-10.7-16-16C38.1,128.2,36.6,127,35.8,125.2z"/>
	<path class="st1" d="M90.2,140c11.8,11.3,23.3,23,34.9,34.6c11.5-11.3,22.9-22.8,34.3-34.3c1.1-0.5,1.8,1,2.6,1.5
		c5.8,5.9,11.7,11.7,17.5,17.6c1,1.1-0.7,2.1-1.3,2.8c-15.4,15.3-30.6,30.7-46,46c-2.4,2.3-4.6,4.9-7.2,7
		c-18.3-18.4-36.7-36.7-54.9-55.2C76.8,153.4,83.4,146.6,90.2,140z"/>
</g>
</svg>
