<?xml version="1.0" encoding="utf-8"?>
<!-- Generator: Adobe Illustrator 26.0.3, SVG Export Plug-In . SVG Version: 6.00 Build 0)  -->
<svg version="1.1" id="Layer_1" xmlns="http://www.w3.org/2000/svg" xmlns:xlink="http://www.w3.org/1999/xlink" x="0px" y="0px"
	 viewBox="0 0 216 250" style="enable-background:new 0 0 216 250;" xml:space="preserve">
<style type="text/css">
	.st0{fill:#FFFFFF;}
	.st1{fill:#F38F36;}
	.st2{fill:#F6AC4F;}
</style>
<g id="_x23_ffffffff">
	<path class="st0" d="M71.6,81.7c8-5.3,16.9-9.4,25.1-14.4c0.8,3.5,0.4,7.2,0.5,10.7c0,24.8,0,49.5,0,74.3c3.6,0,7.2,0,10.8,0
		c3.8,0,7.6,0,11.4,0c0.1-8.9,0-17.9,0.1-26.9c-7.2-0.1-14.4-0.2-21.6-0.1c3.3-3.8,7-7.3,10.4-11c3.5-3.6,6.9-7.2,10.3-10.8
		c0.8-1.1,2.1-1.4,3.4-1.3c3.9,0,8-0.4,11.6,1.3c6.4,2.8,11.3,9.3,11.2,16.4c0.1,12.4,0,24.7,0,37.1c0.4,9.6-8.3,18.3-17.8,18.4
		c-6.3,0.1-12.6,0-19,0c-6.3-0.1-12.7,0.1-19-0.1c-9.4-0.2-17.7-8.9-17.5-18.4C71.6,131.9,71.4,106.8,71.6,81.7z"/>
</g>
<g id="_x23_f38f36ff">
	<path class="st1" d="M37,82C60.8,68.4,84.4,54.6,108.1,41c0,24.4-0.4,48.9,0.1,73.3c-3.4,3.7-7.1,7.2-10.4,11
		c3.3,0.3,6.7,0.5,10,0.6c0.4,8.8,0.1,17.6,0.2,26.4c-3.6,0-7.2,0-10.8,0c0-24.8,0-49.5,0-74.3c0-3.6,0.3-7.2-0.5-10.7
		c-8.2,5-17.1,9.1-25.1,14.4c-0.2,25.1,0,50.2-0.1,75.3c-0.2,9.5,8,18.1,17.5,18.4c6.3,0.2,12.7,0,19,0.1c0.1,11.5,0,23,0.1,34.5
		C84.4,196.3,60.8,182.6,37,169c-1-0.7-2.6-1.4-2.2-2.9c0-27.1,0-54.1,0-81.1C34.4,83.4,36,82.6,37,82z"/>
</g>
<g id="_x23_f6ac4fff">
	<path class="st2" d="M108.1,41c24.6,14,49,28.1,73.4,42.3c0,28.1,0,56.3,0,84.4c-24.4,14.1-48.9,28.3-73.4,42.3
		c-0.2-11.5,0-23-0.1-34.5c6.3,0,12.6,0.1,19,0c9.5-0.1,18.3-8.8,17.8-18.4c0-12.4,0-24.7,0-37.1c0.1-7.1-4.8-13.6-11.2-16.4
		c-3.6-1.7-7.7-1.2-11.6-1.3c-1.3-0.1-2.6,0.2-3.4,1.3c-3.5,3.6-6.9,7.2-10.3,10.8C107.7,89.9,108.1,65.5,108.1,41z"/>
	<path class="st2" d="M97.9,125.3c7.2-0.1,14.4,0,21.6,0.1c-0.1,8.9,0,17.9-0.1,26.9c-3.8,0-7.6,0-11.4,0c0-8.8,0.2-17.6-0.2-26.4
		C104.5,125.9,101.2,125.6,97.9,125.3z"/>
</g>
</svg>
