<?xml version="1.0" encoding="utf-8"?>
<!-- Generator: Adobe Illustrator 26.0.3, SVG Export Plug-In . SVG Version: 6.00 Build 0)  -->
<svg version="1.1" id="Layer_1" xmlns="http://www.w3.org/2000/svg" xmlns:xlink="http://www.w3.org/1999/xlink" x="0px" y="0px"
	 viewBox="0 0 250 250" style="enable-background:new 0 0 250 250;" xml:space="preserve">
<style type="text/css">
	.st0{fill:#020366;}
	.st1{fill:#69090B;}
	.st2{fill:#8B0201;}
	.st3{fill:#000185;}
	.st4{fill:#9E9ED0;}
	.st5{fill:#020281;}
	.st6{fill:#767AA7;}
	.st7{fill:#3030B2;}
	.st8{fill:#B92F3B;}
	.st9{fill:#A96870;}
	.st10{fill:#7B7B7E;}
	.st11{fill:#E7E8FB;}
	.st12{fill:#DBB8BF;}
	.st13{fill:#929197;}
	.st14{fill:#BDBDBF;}
	.st15{fill:#D4D0CF;}
	.st16{fill:#D1D6D0;}
	.st17{fill:#FCFDFC;}
	.st18{fill:#B9BADE;}
	.st19{fill:#D2D4D5;}
	.st20{fill:#FCFEFE;}
	.st21{fill:#3130B3;}
	.st22{fill:#6F0B15;}
	.st23{fill:#FC9F5E;}
	.st24{fill:#8E0204;}
	.st25{fill:#CC343F;}
	.st26{fill:#D0D4D4;}
	.st27{fill:#FDE4BE;}
	.st28{fill:#FFBB82;}
	.st29{fill:#D8D8DC;}
	.st30{fill:#7B8199;}
	.st31{fill:#C17980;}
	.st32{fill:#7F7E82;}
	.st33{fill:#C6C5C7;}
	.st34{fill:#A6A2A7;}
	.st35{fill:#D2D3D5;}
	.st36{fill:#BFC7E1;}
	.st37{fill:#707597;}
	.st38{fill:#3636CB;}
	.st39{fill:#CE6772;}
	.st40{fill:#B8353C;}
	.st41{fill:#8A0206;}
	.st42{fill:#DA3843;}
	.st43{fill:#3C3BA6;}
	.st44{fill:#C2C8EF;}
	.st45{fill:#D9D8DA;}
	.st46{fill:#827984;}
	.st47{fill:#C6C6C8;}
	.st48{fill:#9F9DA0;}
	.st49{fill:#02024F;}
	.st50{fill:#F4C6C9;}
	.st51{fill:#BDC7E0;}
	.st52{fill:#37399E;}
	.st53{fill:#D4DBF7;}
	.st54{fill:#CD5E69;}
	.st55{fill:#C7343D;}
	.st56{fill:#6D1013;}
	.st57{fill:#E13946;}
	.st58{fill:#900202;}
	.st59{fill:#3532BD;}
	.st60{fill:#4245A6;}
	.st61{fill:#FAFBF8;}
	.st62{fill:#EDC0B2;}
	.st63{fill:#404196;}
	.st64{fill:#E18B68;}
	.st65{fill:#FE8D59;}
	.st66{fill:#F5BC89;}
	.st67{fill:#FCFCFB;}
	.st68{fill:#0603A0;}
	.st69{fill:#D6937D;}
	.st70{fill:#9E5255;}
	.st71{fill:#DAD1CA;}
	.st72{fill:#ECBDBD;}
	.st73{fill:#7D7A80;}
	.st74{fill:#0301BD;}
	.st75{fill:#FFC690;}
	.st76{fill:#FE9B59;}
	.st77{fill:#D8D6D9;}
	.st78{fill:#C3C4C7;}
	.st79{fill:#A6A4AA;}
	.st80{fill:#939095;}
	.st81{fill:#9B9CC5;}
	.st82{fill:#D0D3FE;}
	.st83{fill:#FAFBFB;}
	.st84{fill:#FCBD82;}
	.st85{fill:#EFB995;}
	.st86{fill:#040174;}
	.st87{fill:#FA9B5A;}
	.st88{fill:#4C0570;}
	.st89{fill:#FEBB82;}
	.st90{fill:#7F0105;}
	.st91{fill:#B30A3A;}
	.st92{fill:#DC0109;}
	.st93{fill:#AA0102;}
	.st94{fill:#7E0004;}
	.st95{fill:#A80203;}
	.st96{fill:#CE0107;}
	.st97{fill:#E20009;}
	.st98{fill:#CB0104;}
	.st99{fill:#FCA56C;}
	.st100{fill:#FBBA82;}
	.st101{fill:#F8D9BD;}
	.st102{fill:#B81B22;}
	.st103{fill:#B91F26;}
	.st104{fill:#FFDEA6;}
	.st105{fill:#F1854C;}
	.st106{fill:#FEAA6C;}
	.st107{fill:#F2BFBB;}
	.st108{fill:#EFBCB7;}
	.st109{fill:#7C7C81;}
	.st110{fill:#A1979E;}
	.st111{fill:#C5C3C5;}
	.st112{fill:#D1D1D4;}
	.st113{fill:#F48A56;}
	.st114{fill:#D1645C;}
	.st115{fill:#C8C7CA;}
	.st116{fill:#96939C;}
	.st117{fill:#827D7E;}
	.st118{fill:#DDDCE0;}
	.st119{fill:#AAA7B2;}
	.st120{fill:#FDD39A;}
	.st121{fill:#FDA565;}
	.st122{fill:#9C1303;}
	.st123{fill:#FDA05D;}
	.st124{fill:#FE9D58;}
	.st125{fill:#FDB87F;}
	.st126{fill:#60070B;}
	.st127{fill:#DB0107;}
	.st128{fill:#FEA969;}
	.st129{fill:#A00101;}
	.st130{fill:#DD0108;}
	.st131{fill:#A00204;}
	.st132{fill:#600305;}
	.st133{fill:#EB8852;}
	.st134{fill:#C60107;}
	.st135{fill:#FFA96A;}
	.st136{fill:#3C5A2B;}
	.st137{fill:#FABB84;}
	.st138{fill:#036731;}
	.st139{fill:#EDB0B3;}
	.st140{fill:#B05A45;}
	.st141{fill:#C49A6C;}
	.st142{fill:#A39DA4;}
	.st143{fill:#FFD3D2;}
	.st144{fill:#7E7C7F;}
	.st145{fill:#E08F6E;}
	.st146{fill:#A2A0A9;}
	.st147{fill:#7E7E80;}
	.st148{fill:#C7C9CB;}
	.st149{fill:#DADADB;}
	.st150{fill:#FDAA6B;}
	.st151{fill:#68C630;}
	.st152{fill:#D8DADB;}
	.st153{fill:#CED0D1;}
	.st154{fill:#C5C5C6;}
	.st155{fill:#06682E;}
	.st156{fill:#066931;}
	.st157{fill:#A70103;}
	.st158{fill:#980203;}
	.st159{fill:#B90202;}
	.st160{fill:#75070B;}
	.st161{fill:#D10106;}
	.st162{fill:#E10109;}
	.st163{fill:#BE1214;}
	.st164{fill:#DC010A;}
	.st165{fill:#CA0204;}
	.st166{fill:#9F0100;}
	.st167{fill:#056921;}
	.st168{fill:#016636;}
	.st169{fill:#60C84D;}
	.st170{fill:#67C438;}
	.st171{fill:#61C73E;}
	.st172{fill:#E8C3C1;}
	.st173{fill:#E08E6E;}
	.st174{fill:#DD8083;}
	.st175{fill:#767A7D;}
	.st176{fill:#96949B;}
	.st177{fill:#C7C7CB;}
	.st178{fill:#EEC9C5;}
	.st179{fill:#C6C7C9;}
	.st180{fill:#99959D;}
	.st181{fill:#797E7D;}
	.st182{fill:#D5D7DA;}
	.st183{fill:#D6D4D9;}
	.st184{fill:#69C630;}
	.st185{fill:#F87E4C;}
	.st186{fill:#D96735;}
	.st187{fill:#FF8E5F;}
	.st188{fill:#E58D90;}
	.st189{fill:#DD898B;}
	.st190{fill:#6E0A0D;}
	.st191{fill:#850405;}
	.st192{fill:#CB0106;}
	.st193{fill:#C80105;}
	.st194{fill:#9E0203;}
	.st195{fill:#A1070C;}
	.st196{fill:#066932;}
	.st197{fill:#833335;}
	.st198{fill:#B7928F;}
	.st199{fill:#797E7F;}
	.st200{fill:#95979B;}
	.st201{fill:#7C7D80;}
	.st202{fill:#9898A2;}
	.st203{fill:#BBBCC1;}
	.st204{fill:#726971;}
	.st205{fill:#440A08;}
</style>
<g id="_x23_020366ff">
	<path class="st0" d="M119.4,0h6.8c0,2.8,0.1,5.7,0.3,8.5c-0.6,0-1.9-0.1-2.5-0.1c-0.1-1.4-0.2-2.9-0.3-4.3c-4-1.3-8.1-0.1-11.1,2.7
		c-0.4,0.1-1.3,0.2-1.7,0.2c-0.3-1-0.7-2-1-3c-0.2,0.7-0.6,2-0.9,2.7c-0.8,0.1-2.4,0.3-3.2,0.4c0.6,0.6,1.3,1.3,1.9,2
		c0,0.4-0.1,1-0.2,1.4c-0.6-0.1-1.7-0.3-2.3-0.4c-0.6-1.7-1-3.3-1.5-5c-4.2,1.3-8.4,1.7-12.8,2c-1.6,1.4-2.7,3.1-4,4.6
		c-0.2-0.6-0.5-1.9-0.7-2.5c0.6-0.6,1.3-1.1,1.9-1.7c-0.7-0.3-2.1-0.9-2.8-1.2C96.3,2.8,107.8,0.6,119.4,0z"/>
	<path class="st0" d="M48.1,26C57.2,19,67.3,13.3,78,8.9c1.6-0.3,3.2-0.6,4.7-0.8c-0.5,1.2-0.9,2.3-1.4,3.4c-1.9,0.2-4,0.1-5.7,1.1
		c-4.8,2.5-9.9,4.5-14.3,7.6c-4.4,1.9-8.1,4.8-11.3,8.3C49.5,28,48.5,26.7,48.1,26z"/>
</g>
<g id="_x23_69090bff">
	<path class="st1" d="M126.2,0h4.4c16.9,0.8,33.7,5,48.9,12.2c-1.3,0.2-2.6,0.4-3.9,0.5c-2.7-0.1-5.4-0.3-8.1-0.3c1-0.7,2-1.4,3-2.1
		c-13.7-5.2-28.4-8.5-43.1-8.2c-0.3,1.9-0.6,3.8-0.9,5.7l-0.1,0.6C126.3,5.7,126.2,2.8,126.2,0z"/>
</g>
<g id="_x23_8b0201ff">
	<path class="st2" d="M127.5,2.2c14.8-0.3,29.4,3,43.1,8.2c-1,0.7-2,1.4-3,2.1c-5.1,0-10.3-0.1-15.4-0.7c-8.3-2.9-17.1-3-25.7-3.9
		C126.8,6,127.2,4.1,127.5,2.2z"/>
</g>
<g id="_x23_000185ff">
	<path class="st3" d="M112.6,6.8c3-2.8,7.1-4,11.1-2.7c0.1,1.4,0.2,2.9,0.3,4.3c-3.7-0.2-7.4,0.4-11.1,0.8l-0.3-0.8
		c0.3-0.4,1-1.3,1.3-1.8L112.6,6.8z"/>
</g>
<g id="_x23_9e9ed0ff">
	<path class="st4" d="M109.8,4c0.4,1,0.7,2,1,3c0.4-0.1,1.3-0.2,1.7-0.2l1.3-0.2c-0.3,0.4-1,1.3-1.3,1.8c-0.1,0.2-0.4,0.6-0.5,0.8
		c0.1,1,0.2,2,0.4,3c-0.9-0.6-1.8-1.1-2.6-1.7c-0.9,0.7-1.8,1.4-2.7,2.1c0.1-0.5,0.2-1.6,0.3-2.2c0-0.4,0.1-1,0.2-1.4
		c-0.6-0.7-1.3-1.3-1.9-2c0.8-0.1,2.4-0.3,3.2-0.4C109.2,6,109.6,4.6,109.8,4z"/>
</g>
<g id="_x23_020281ff">
	<path class="st5" d="M90.9,6.9c4.3-0.3,8.6-0.7,12.8-2c0.5,1.7,1,3.4,1.5,5c-11.4,2.1-22.6,5.5-33,10.8c-0.2,0.5-0.7,1.4-1,1.9
		c-1,0.1-2,0.3-3,0.4c-6.5,2.8-11.9,7.4-17.6,11.5c-14.5,11.9-26.3,27-33.8,44.1c-3.2,6.4-4.7,13.5-7,20.2c-0.5,1.4-1.1,2.8-1.4,4.3
		c0.3,2.1,1.7,3.9,2.8,5.7c-0.6-0.1-1.9-0.2-2.5-0.3c-0.4-0.7-1.1-2.1-1.4-2.8c-0.3,1-0.7,2.1-1,3.1c-1.2,0-2.3,0-3.5,0l-0.5-0.3
		c1.1-7.5,2.8-14.9,5.3-22c0.8-2.6,3.2-5.9,1-8.4c2.3-5.7,4.9-11.2,7.9-16.5c1.3-0.3,2.6-0.5,3.9-0.8c0.9,0.5,1.9,0.9,2.8,1.4
		c-0.3-1-0.6-2.1-1-3.1c0.9-0.7,1.8-1.4,2.7-2.1c-1.5-0.2-3.3-0.2-4.4-1.6c2.7-4,5.7-7.8,8.8-11.5l1.8-1.1c-0.2,0.8-0.5,2.5-0.7,3.3
		c0.7-0.6,1.4-1.2,2.1-1.9c1,0.4,2.1,0.8,3.1,1.1c-0.1-0.7-0.3-2.2-0.4-2.9c0.7-0.5,1.4-1.1,2.1-1.7c-0.9-0.1-2.6-0.4-3.5-0.5l0-1.3
		c4.3-4.5,8.9-8.6,13.8-12.5c0.8,0.7,1.6,1.4,2.4,2.2c3.2-3.5,6.9-6.4,11.3-8.3c4.4-3.1,9.5-5.1,14.3-7.6c1.8-1,3.8-0.9,5.7-1.1
		c1-0.2,1.9-0.4,2.9-0.6c0.9,0.2,1.8,0.4,2.7,0.6C88.2,10,89.4,8.3,90.9,6.9z"/>
</g>
<g id="_x23_767aa7ff">
	<path class="st6" d="M78,8.9c2.4-1,4.8-1.9,7.3-2.7c0.7,0.3,2.1,0.9,2.8,1.2c-0.6,0.5-1.3,1.1-1.9,1.7c0.2,0.6,0.5,1.9,0.7,2.5
		c-0.9-0.2-1.8-0.4-2.7-0.6c-1,0.2-1.9,0.4-2.9,0.6c0.5-1.1,0.9-2.3,1.4-3.4C81.1,8.4,79.5,8.6,78,8.9z"/>
</g>
<g id="_x23_3030b2ff">
	<path class="st7" d="M112.1,9.2c0.1-0.2,0.4-0.6,0.5-0.8l0.3,0.8c3.7-0.4,7.4-1,11.1-0.8c0.6,0,1.9,0.1,2.5,0.1
		c-0.1,1.1-0.2,2.2-0.2,3.3v1c0,1.6,0.1,3.2,0.2,4.8c-10.1,1-20.4,1.7-30.2,4.5c-3.1,0.9-6.1,1.7-9.2,2.5c-3.5,0.8-6.8,2.1-9.9,3.7
		l-1.3,0.5L75.3,28c-1.4-1.9,0.6-3.3,1.7-4.7c-0.8,0-2.3,0.1-3.1,0.1c-0.6-0.9-1.2-1.8-1.7-2.7c10.4-5.2,21.6-8.7,33-10.8
		c0.6,0.1,1.7,0.3,2.3,0.4c-0.1,0.5-0.2,1.6-0.3,2.2c0.9-0.7,1.8-1.4,2.7-2.1c0.9,0.6,1.8,1.1,2.6,1.7
		C112.3,11.2,112.2,10.2,112.1,9.2z"/>
</g>
<g id="_x23_b92f3bff">
	<path class="st8" d="M126.5,8.5l0.1-0.6c8.6,0.8,17.4,1,25.7,3.9c-8.6,0.9-17.3,0.5-25.9,0.1C126.3,10.7,126.4,9.6,126.5,8.5z"/>
</g>
<g id="_x23_a96870ff">
	<path class="st9" d="M126.3,11.8c8.6,0.4,17.3,0.8,25.9-0.1c5.1,0.7,10.2,0.7,15.4,0.7c2.7,0,5.4,0.2,8.1,0.3
		c-4,0.8-8,0.8-12.1,0.8c-3-0.1-6-0.2-9-0.2c-9.1-0.8-18.3-0.5-27.5-0.5h-0.8V11.8z"/>
</g>
<g id="_x23_7b7b7eff">
	<path class="st10" d="M179.6,12.2c8.2,3.9,16,8.6,23,14.3c-2.1,0.5-4.3,0.9-6.5,0.4c-0.4-0.3-1.2-0.8-1.6-1.1
		c-2.6-2.2-5.7-3.7-8.3-5.9c-3.4-2.7-8.2-3.3-10.6-7.2C177,12.6,178.3,12.4,179.6,12.2z"/>
</g>
<g id="_x23_e7e8fbff">
	<path class="st11" d="M126.3,12.8h0.8c0,0.8,0.1,2.3,0.1,3.1c0,0.4,0,1.3,0,1.8c3,0,6,0.1,9,0c-0.7,0.7-1.4,1.3-2.2,2
		c-1.1-0.1-2.1-0.2-3.1-0.3c-4-0.2-7.9,0.6-11.9,1.1c2.7,1.2,6.4,1.9,7.6,5c0.9,3.2-2.2,5.5-4.6,6.8c1.4-1.9,4.2-4.7,1.8-6.9
		c-3.1-2.5-7.2-3.1-11-3.1c-4.8-2.2-10.1,0.5-14.9,1.5c4.5,0.6,9.7,0.8,12.5,4.9c-3.1-1-6.2-2.2-9.4-2.6c-4.6-0.7-9.5,0.3-14-1.4
		c3.1-0.8,6.1-1.6,9.2-2.5c9.8-2.8,20.1-3.5,30.2-4.5C126.4,16,126.3,14.4,126.3,12.8z"/>
</g>
<g id="_x23_dbb8bfff">
	<path class="st12" d="M127.2,12.8c9.2,0,18.3-0.3,27.5,0.5c-9,2.5-18.5-0.3-27.3,2.5C127.3,15.1,127.2,13.6,127.2,12.8z"/>
</g>
<g id="_x23_929197ff">
	<path class="st13" d="M163.6,13.5c4,0.1,8.1,0.1,12.1-0.8c2.4,3.9,7.2,4.5,10.6,7.2c2.6,2.1,5.7,3.7,8.3,5.9
		c-2.4,0.5-4.8,0.9-7.2,1.1c-4.4-3.5-9.2-6.6-14.4-8.6C169.6,17.1,166.4,15.7,163.6,13.5z"/>
</g>
<g id="_x23_bdbdbfff">
	<path class="st14" d="M127.3,15.9c8.9-2.9,18.4,0,27.3-2.5c3,0,6,0.1,9,0.2c2.8,2.2,6,3.6,9.3,4.8c5.3,2,10,5.1,14.4,8.6
		c-5.7,0.2-11.4-0.5-17.1,0.3c-7.2-4.7-15.5-7.2-23.9-8.4c-3.3-0.7-6.6-1.2-10-1.1c-3,0-6,0-9,0C127.3,17.2,127.3,16.3,127.3,15.9z"
		/>
</g>
<g id="_x23_d4d0cfff">
	<path class="st15" d="M136.3,17.7c3.4-0.1,6.7,0.4,10,1.1c-1.8-0.1-3.6-0.1-5.4-0.1c-1.2,4-2.2,8.2-4.6,11.7
		c-1.2,2.4-4.2,2-6.4,2.5c1.9-1.8,4.2-3.3,5.6-5.5c1-2.7-0.4-5.3-1.4-7.8C134.8,19,135.6,18.3,136.3,17.7z"/>
</g>
<g id="_x23_d1d6d0ff">
	<path class="st16" d="M119.1,20.4c4-0.5,7.9-1.2,11.9-1.1c0.8,6.5-3.4,11.9-8.4,15.5c-2.2,0.5-4.4,1-6.7,1.4c2-1.5,4.1-2.8,6.3-4.1
		c2.5-1.3,5.5-3.6,4.6-6.8C125.5,22.3,121.8,21.6,119.1,20.4z"/>
</g>
<g id="_x23_fcfdfcff">
	<path class="st17" d="M131,19.3c1,0.1,2.1,0.2,3.1,0.3c1,2.4,2.4,5.1,1.4,7.8c-1.4,2.3-3.7,3.8-5.6,5.5c2.2-0.6,5.2-0.2,6.4-2.5
		c2.3-3.5,3.4-7.7,4.6-11.7c1.8,0,3.6,0,5.4,0.1c8.4,1.2,16.7,3.8,23.9,8.4c5.7-0.8,11.4,0,17.1-0.3c2.4-0.1,4.9-0.6,7.2-1.1
		c0.4,0.3,1.2,0.8,1.6,1.1c-3-0.7-6.1,0.3-9.1,0.4c-5.3,0.1-10.6,0.1-15.9,0c0.9,0.9,1.8,1.8,2.6,2.7c2.6,3.4,4.6,7.3,6,11.5
		c0.2,0.7,0.5,1.3,0.8,2l0.4,1.3c1.2,3.8,2.2,7.7,3.2,11.5c4.6,0.3,9.2,0.3,13.8,0.3c2.2,0.1,4.5,0.4,6.7,0.7
		c-6.6,0.1-13.3,0-19.9,0.3c1.5,5.2,2.9,10.4,4.2,15.7l-1.4-0.3c-3.1-12.9-6-26.2-12.2-38.1c-0.9-1.9-2.6-3.3-4.2-4.7
		c1.3,4.9,3.2,9.5,4.5,14.3c1.7,6.5,5.2,12.6,5.4,19.4c0.2,6.3,0.3,13.6-4.2,18.6c-2.1,2.1-2.7,5-3.2,7.9c-0.8-4.8-1.7-9.6-0.9-14.4
		c1-6.1,1.9-12.5,0.6-18.6c-2.5-6.8-6.8-12.7-10.8-18.8c-2.7-4-5.1-8.5-9.3-11.2c-2.6-0.1-4.9,1.1-7.3,2c-4.7,2-9.6,3.2-14.4,4.9
		c-3,0.1-5.9,0.1-8.9,0.4C127.6,31.3,131.8,25.9,131,19.3z"/>
	<path class="st17" d="M77.1,28.3c3.2-1.6,6.5-2.9,9.9-3.7c4.5,1.6,9.3,0.7,14,1.4c3.2,0.4,6.3,1.6,9.4,2.6c0.7,1.5,1.7,3.2,0.9,4.9
		c-1.3,1.6-3.1,2.7-4.7,3.9c-7.5,1.4-15.1,0.3-22.7,1c-3.8,0.4-8.2,0.7-11,3.6c-3.9,3.8-7.7,8.1-9.9,13.2c-4,9-5.2,19-4.8,28.8
		c-0.3,6.5,1.8,12.7,3.1,19c0.8,3.5,1.3,7.3,3.9,9.9c-3.1,7.4-0.9,15.6,2.6,22.4c-4.9,1-6.9-4.3-9-7.6c-0.2-0.9-0.4-1.9-0.5-2.8
		c-0.2-1.1-0.3-2.1-0.5-3.2c-0.1-0.5-0.2-1.5-0.3-2c-0.1-0.7-0.4-2.1-0.5-2.8c-1.8-8.7-2.9-17.4-4.5-26.1c-0.6,0-1.7,0.1-2.3,0.1
		c-0.3,0.4-1,1.1-1.4,1.5c-0.1-0.4-0.3-1.2-0.4-1.6c1.1-0.5,2.3-1,3.4-1.6C50,80,48,70.6,49,61.2c0.3-1.3,0.6-2.5,0.9-3.8
		c1.5-4.8,3.8-9.4,6.9-13.4c1.7-1.4,3.2-3,4.3-4.9c3.1-4,7.2-6.9,11.8-8.9C74.3,29.6,75.7,28.9,77.1,28.3z"/>
</g>
<g id="_x23_b9badeff">
	<path class="st18" d="M71.2,22.6c0.2-0.5,0.7-1.4,1-1.9c0.6,0.9,1.1,1.8,1.7,2.7c0.8,0,2.3-0.1,3.1-0.1c-1.2,1.4-3.2,2.7-1.7,4.7
		l0.5,0.8l1.3-0.5c-1.4,0.6-2.8,1.3-4.2,1.9c0.3-0.5,0.8-1.5,1-2c-1-1.8-2.8-0.1-4.1,0.4c0.2-0.7,0.5-2.1,0.7-2.8
		C69.8,24.9,69,24,68.2,23C69.2,22.9,70.2,22.7,71.2,22.6z"/>
</g>
<g id="_x23_d2d4d5ff">
	<path class="st19" d="M97.9,23.6c4.8-0.9,10.1-3.7,14.9-1.5c1.2,2.6,2.5,5.3,2.8,8.2c0.1,2.4-1.6,4.3-2.6,6.3
		c-2.1,0.2-4.3,0.4-6.4,0.6c1.7-1.2,3.4-2.3,4.7-3.9c0.8-1.7-0.3-3.4-0.9-4.9C107.7,24.5,102.4,24.2,97.9,23.6z"/>
</g>
<g id="_x23_fcfefeff">
	<path class="st20" d="M112.8,22.2c3.8,0,8,0.6,11,3.1c2.4,2.2-0.4,5-1.8,6.9c-2.2,1.3-4.2,2.7-6.3,4.1c-0.9,0.2-1.8,0.4-2.8,0.5
		c1-2,2.7-4,2.6-6.3C115.4,27.5,114.1,24.8,112.8,22.2z"/>
</g>
<g id="_x23_3130b3ff">
	<path class="st21" d="M50.6,34.5c5.7-4.1,11.1-8.8,17.6-11.5c0.8,0.9,1.6,1.8,2.4,2.8c-0.2,0.7-0.5,2.1-0.7,2.8
		c1.3-0.5,3-2.2,4.1-0.4c-0.3,0.5-0.8,1.5-1,2c-4.6,2-8.7,4.9-11.8,8.9l-1.8,1c-0.1-0.8-0.2-2.4-0.3-3.2c-0.6,1.2-1.1,2.5-1.7,3.7
		c-0.8-0.1-2.3-0.2-3.1-0.3c1,1.1,2.2,2.2,2.6,3.7c-3.1,4-5.5,8.6-6.9,13.4c-1.4-0.9-2.3-2.3-3.1-3.8c-0.2,1-0.5,2.1-0.7,3.1
		c-0.9,0-2.6,0.1-3.5,0.1c0.8,0.8,1.7,1.5,2.5,2.3c-0.3,0.9-0.6,1.8-1,2.7c-2.7-0.6-3.6-3.5-5.2-5.4c-0.8,0.6-1.7,1.2-2.4,1.8
		c1,3.4,1.6,6.9,1,10.5c-2.3-0.8-4.5-1.9-7-2.2c-1.2,0.6-1.2,2.2-1.8,3.2c2-0.1,4.1-0.3,6.1-0.5c1.1,1.2,2.3,2.4,3.4,3.7
		c-0.2,0.2-0.7,0.6-0.9,0.8c-0.8,0.1-2.3,0.2-3,0.3c-0.3-0.7-1-2-1.3-2.7c-0.3,0.6-1,1.8-1.4,2.4c-0.7,0.1-2,0.3-2.7,0.5
		c0.7,0.6,1.4,1.2,2.2,1.8c-0.3,1-0.6,2-0.9,3.1c1.8-1.1,3.6-1.9,5.3-0.1c-0.9,2.7-3.7,3.1-6.1,3.6c-0.2,1.7-0.5,3.3-0.7,5
		c-1.6,0.8-3.3,1.7-5,2.4c-0.4,0.1-1.2,0.3-1.6,0.4c-0.7-0.8-1.4-1.6-2.2-2.3c-0.3,0.5-0.8,1.7-1.1,2.2c-0.7,0-2-0.1-2.7-0.1
		c1,1.5,1.9,3,1.9,4.9c-1.2-0.6-2.4-1.1-3.6-1.7c-0.2,3.2-0.5,6.3-1.1,9.4c-1.2-0.5-2.3-1.1-3.4-1.7c0-0.5-0.1-1.6-0.2-2.2
		c2.3-6.8,3.8-13.8,7-20.2C24.2,61.5,36.1,46.4,50.6,34.5z"/>
</g>
<g id="_x23_6f0b15ff">
	<path class="st22" d="M202.6,26.6c6.1,4.6,11.7,9.9,16.8,15.6c-0.2,0.3-0.5,0.9-0.6,1.2c-3.6,0-7.2-0.4-10.8-0.7c2-0.5,4-0.9,6-1.4
		c-0.7-4.7-5-7.2-8.4-9.9c-3.9-3.2-9.3-3-14.1-3c-5.6,0-11.2-0.6-16.8,0c-0.3,0.4-0.8,1.3-1.1,1.7c-0.8-0.9-1.7-1.8-2.6-2.7
		c5.3,0.1,10.6,0.1,15.9,0c3-0.1,6.1-1.1,9.1-0.4C198.3,27.5,200.5,27.1,202.6,26.6z"/>
</g>
<g id="_x23_fc9f5eff">
	<path class="st23" d="M145.8,29.5c2.4-0.9,4.7-2.1,7.3-2c4.2,2.7,6.6,7.2,9.3,11.2c3.9,6,8.2,12,10.8,18.8
		c1.3,6.1,0.4,12.5-0.6,18.6c-0.8,4.8,0.1,9.7,0.9,14.4c0.3,4,1.5,7.9,2.5,11.7c-1.7,0.6-3.4,1.3-5.1,1.8c-0.7,0.2-2.1,0.5-2.8,0.6
		c-1.8-2.5-4.2-4.6-7.5-4.6c-0.1-0.2-0.2-0.6-0.3-0.8c0.8-5.8,2.3-11.5,2.9-17.4c0.6-8.9,2.6-18.1-0.5-26.8c-3-7-8.3-12.9-14.5-17.3
		c-5.8-3.5-12,2.1-18.1,0.2c0.5-0.6,1-1.2,1.6-1.8c-1.3-0.1-2.7-0.2-4.1-0.3c1.3-0.5,2.5-1,3.8-1.5
		C136.2,32.7,141.2,31.5,145.8,29.5z"/>
</g>
<g id="_x23_8e0204ff">
	<path class="st24" d="M191.6,28.4c4.8,0,10.1-0.2,14.1,3c3.4,2.7,7.7,5.2,8.4,9.9c-2,0.5-4,0.9-6,1.4
		C203.6,36.8,197.2,32.9,191.6,28.4z"/>
</g>
<g id="_x23_cc343fff">
	<path class="st25" d="M174.8,28.4c5.6-0.5,11.2,0.1,16.8,0c5.6,4.5,12,8.4,16.5,14.2c-7.3-0.1-14.6,0-21.9,0
		c-2.2,0-4.3-0.4-6.4-1.1c-1.4-4.1-3.3-8-6-11.5C174,29.7,174.5,28.8,174.8,28.4z"/>
</g>
<g id="_x23_d0d4d4ff">
	<path class="st26" d="M170.9,30.2c1.6,1.4,3.3,2.8,4.2,4.7c6.2,11.9,9,25.1,12.2,38.1c0.2,2.8-0.1,5.7,1.2,8.2
		c2.1,4.3,2.2,9.1,4.2,13.4c-0.1,0.2-0.2,0.7-0.2,0.9c-2.9,1.4-5.8,3-7.8,5.7c-4.6,1-9.2,1.9-13.8,2.8c1.7-0.6,3.4-1.2,5.1-1.8
		c-1-3.9-2.2-7.7-2.5-11.7c0.5-2.8,1.1-5.8,3.2-7.9c4.4-5.1,4.4-12.3,4.2-18.6c-0.1-6.9-3.6-13-5.4-19.4
		C174.2,39.7,172.2,35.1,170.9,30.2z"/>
</g>
<g id="_x23_fde4beff">
	<path class="st27" d="M122.5,34.8c3-0.3,5.9-0.3,8.9-0.4c-1.3,0.5-2.5,1-3.8,1.5c-8.2,1.5-16.3,3.5-24.6,3.4
		c-8.2-0.1-16.7-0.3-24.5,2.4c-8.7,5.4-14.4,15.1-16.2,25.1c-1.2,6.3-1,12.8-0.8,19.2c0.9,8,1.8,16.3,6,23.5
		c-0.8,1.1-1.5,2.2-2.2,3.4c-2.6-2.6-3.1-6.4-3.9-9.9c-1.3-6.3-3.4-12.5-3.1-19c-0.4-9.8,0.8-19.8,4.8-28.8c2.2-5.1,6-9.4,9.9-13.2
		c2.8-3,7.2-3.2,11-3.6c7.5-0.7,15.2,0.4,22.7-1c2.1-0.3,4.3-0.4,6.4-0.6c0.9-0.1,1.9-0.3,2.8-0.5C118.1,35.8,120.3,35.3,122.5,34.8
		z"/>
</g>
<g id="_x23_ffbb82ff">
	<path class="st28" d="M103,39.3c8.3,0,16.5-1.9,24.6-3.4c1.4,0.1,2.7,0.2,4.1,0.3c-0.5,0.6-1.1,1.2-1.6,1.8
		c6.1,1.9,12.3-3.7,18.1-0.2c6.2,4.4,11.5,10.3,14.5,17.3c3.1,8.7,1.1,17.9,0.5,26.8c-0.6,5.8-2.1,11.6-2.9,17.4
		c-4.6-5.5-11.9-7.5-18.8-7.2c-6.9-1.7-14.6,0.1-20.3,4.4c-8.8,1.3-17.4,3.2-26.2,4c-9.7-0.4-20.8,1.1-27.5,9
		c-4.2-7.1-5.1-15.4-6-23.5c-0.2-6.4-0.4-12.9,0.8-19.2c1.8-10,7.5-19.6,16.2-25.1C86.4,39,94.9,39.2,103,39.3z"/>
</g>
<g id="_x23_d8d8dcff">
	<path class="st29" d="M57.3,40.6c0.6-1.2,1.1-2.5,1.7-3.7c0.1,0.8,0.2,2.4,0.3,3.2l1.8-1C60,41,58.5,42.6,56.8,44
		c-0.4-1.5-1.6-2.6-2.6-3.7C55,40.4,56.5,40.5,57.3,40.6z"/>
	<path class="st29" d="M201.4,149.3c1.4-4.3,2.4-9.2,5.7-12.4c4.7-0.8,9.5-0.1,14.3-0.2c0.4,1.4,1.1,2.7,1.2,4.1
		c-0.6,1.6-1.6,3-2.1,4.6c1,0.8,2.1,1.6,3.2,2.3c-1.6,0.3-3.3,0.7-4.9,1C213,149.2,207.2,148.6,201.4,149.3z"/>
</g>
<g id="_x23_7b8199ff">
	<path class="st30" d="M29.2,43.8c1.4-1.7,2.9-3.3,4.5-4.9l0,1.3c0.9,0.1,2.6,0.4,3.5,0.5c-0.7,0.6-1.4,1.1-2.1,1.7
		c0.1,0.7,0.3,2.1,0.4,2.9c-1-0.4-2.1-0.8-3.1-1.1c-0.7,0.6-1.4,1.2-2.1,1.9c0.2-0.8,0.5-2.5,0.7-3.3L29.2,43.8z"/>
</g>
<g id="_x23_c17980ff">
	<path class="st31" d="M179.7,41.6c2.1,0.6,4.2,1.1,6.4,1.1c7.3,0,14.6-0.1,21.9,0c3.6,0.3,7.2,0.7,10.8,0.7c-0.2,0.3-0.5,1-0.7,1.3
		c-0.7,0-2.1,0.1-2.8,0.1c-2.8-0.3-5.6-0.8-8.5-1c-8.8-0.5-17.5-0.6-26.3-0.2C180.2,42.9,180,42.2,179.7,41.6z"/>
</g>
<g id="_x23_7f7e82ff">
	<path class="st32" d="M219.4,42.2c4.3,4.7,8.1,9.8,11.5,15.2c-1.9,0-3.8-0.1-5.7-0.1c-3-4.4-7.1-8-10-12.6c0.7,0,2.1-0.1,2.8-0.1
		c0.2-0.3,0.5-1,0.7-1.3C218.9,43.1,219.2,42.5,219.4,42.2z"/>
</g>
<g id="_x23_c6c5c7ff">
	<path class="st33" d="M180.5,43.5c8.8-0.4,17.5-0.3,26.3,0.2c3.5,4.6,7.7,8.7,10.6,13.7l-1.5,0c-3.8,0.1-7.6,0.2-11.4-0.1
		c-2.2-0.4-4.4-0.7-6.7-0.7c0.6-0.7,1.2-1.5,1.8-2.2c-2.2-0.8-4.4-1.7-6.6-2.7c0.6-1,1.2-1.9,1.9-2.9c-2.6-0.8-5.1-2.1-7.1-4.1
		c-2.3,0-4.6,0-6.9,0.1L180.5,43.5z"/>
</g>
<g id="_x23_a6a2a7ff">
	<path class="st34" d="M206.8,43.7c2.8,0.2,5.6,0.7,8.5,1c2.8,4.6,6.9,8.1,10,12.6c-2.6,0-5.2,0-7.8,0.1
		C214.5,52.4,210.2,48.4,206.8,43.7z"/>
</g>
<g id="_x23_d2d3d5ff">
	<path class="st35" d="M180.9,44.8c2.3-0.1,4.6-0.1,6.9-0.1c2,2,4.4,3.3,7.1,4.1c-0.6,1-1.2,1.9-1.9,2.9c2.1,1,4.4,1.9,6.6,2.7
		c-0.6,0.7-1.2,1.5-1.8,2.2c-4.6,0.1-9.2,0-13.8-0.3C183.2,52.5,182.1,48.6,180.9,44.8z"/>
</g>
<g id="_x23_bfc7e1ff">
	<path class="st36" d="M46,56.8c0.2-1,0.5-2.1,0.7-3.1c0.8,1.4,1.8,2.8,3.1,3.8c-0.3,1.2-0.6,2.5-0.9,3.8c-1.6-0.7-3,0.1-4.4,0.8
		l-0.5-0.2c0.3-0.9,0.7-1.8,1-2.7c-0.8-0.8-1.7-1.5-2.5-2.3C43.5,56.8,45.2,56.8,46,56.8z"/>
</g>
<g id="_x23_707597ff">
	<path class="st37" d="M16.3,61.6c1.2-2.2,2.6-4.2,4-6.3c1.1,1.4,2.8,1.4,4.4,1.6c-0.9,0.7-1.8,1.4-2.7,2.1c0.3,1,0.6,2.1,1,3.1
		c-0.9-0.5-1.9-0.9-2.8-1.4C18.9,61.1,17.6,61.3,16.3,61.6z"/>
</g>
<g id="_x23_3636cbff">
	<path class="st38" d="M36.5,58.3c0.8-0.6,1.6-1.3,2.4-1.8c1.6,1.9,2.6,4.8,5.2,5.4l0.5,0.2c3.1,2,2.1,6,2.5,9.1
		c0,5.8,3.6,11.7,1,17.3c-0.4,0-1.3-0.1-1.8-0.1c-1.4-0.3-2.4,0.8-3,1.9l-0.5,0.6c-1.6,1.2-0.2,4.1,1.8,3.6c0.6,0,1.8,0,2.5,0
		c0.7,0.2,2,0.6,2.7,0.9c-0.2-0.7-0.6-2.2-0.8-2.9c0.3-0.4,1-1.1,1.4-1.5c0.6,0,1.7-0.1,2.3-0.1c1.6,8.7,2.7,17.5,4.5,26.1
		c-0.4-0.1-1.1-0.3-1.5-0.4c-6.8-2.1-13.8-3.4-20.6-5.6c0.8-0.7,1.6-1.3,2.3-2c-0.8-0.1-2.3-0.2-3-0.2c-0.5-0.9-0.9-1.7-1.3-2.6
		c-0.6,1.9-2.2,2.7-4,3.3c-2.4-1.4-5-2.4-7.7-3.4c-2-0.7-3.9-1.5-5.9-2.3c2.3-3.4,6.8,0.8,9.6-1.7c2.4-2.2,3.7-5.3,5.2-8.2
		c-2.1-1-4.2-2-6.2-3.1l-0.2-0.8c1.7-0.7,3.3-1.6,5-2.4c0.2-1.7,0.5-3.4,0.7-5c2.4-0.5,5.2-0.9,6.1-3.6c0-0.1,0-0.4,0-0.6
		c-0.1-0.8-0.2-1.7-0.3-2.5c0.7-0.8,1.5-1.5,2.2-2.2c0.2-0.2,0.7-0.6,0.9-0.8c-1.1-1.2-2.3-2.5-3.4-3.7c-2,0.2-4,0.4-6.1,0.5
		c0.6-1,0.6-2.6,1.8-3.2c2.4,0.4,4.7,1.4,7,2.2C38,65.2,37.5,61.7,36.5,58.3z"/>
</g>
<g id="_x23_ce6772ff">
	<path class="st39" d="M184.6,57.6c6.6-0.3,13.3-0.2,19.9-0.3c3.8,0.3,7.6,0.2,11.4,0.1c1,0,1.9,0,2.9,0l-0.3,1
		c-10.4,0.3-21-0.7-31.3,0.7c0.6,4,0.8,8.2,2.8,11.8c1.4,2,4,1.6,6.1,1.7c9-0.1,18.1,0.2,27.1-0.7c-2.9,0.2-5.7,0.8-8.5,1.5
		c-7.6,0.5-15.2-0.1-22.9,0.3c-1-0.1-2-0.3-3-0.5C187.5,68.1,186.1,62.8,184.6,57.6z"/>
</g>
<g id="_x23_b8353cff">
	<path class="st40" d="M218.8,57.5c1.2,0,2.4,0,3.5,0c2.5,5.6,6.2,10.5,9,16c-0.6,0-1.8,0-2.4,0c-4.8,0-9.5-0.1-14.3,0
		c2.8-0.7,5.6-1.3,8.5-1.5c0.7-0.1,2-0.2,2.7-0.3c-1.1-3.1-2.2-6.2-3.5-9.2c-1.1-0.3-2.2-0.6-3.2-0.8c-0.2-0.8-0.4-2.4-0.6-3.2
		L218.8,57.5z"/>
</g>
<g id="_x23_8a0206ff">
	<path class="st41" d="M222.3,57.6c2.9,0,5.9,0,8.8,0c3.2,5,6,10.2,8.6,15.6c-0.4,0.1-1.1,0.4-1.5,0.5c-2.3,0-4.6,0-6.9-0.1
		C228.5,68.1,224.8,63.2,222.3,57.6z"/>
</g>
<g id="_x23_da3843ff">
	<path class="st42" d="M187.1,59.2c10.4-1.4,20.9-0.4,31.3-0.7c0.2,0.8,0.4,2.4,0.6,3.2c1.1,0.3,2.2,0.6,3.2,0.8
		c1.3,3,2.5,6.1,3.5,9.2c-0.7,0.1-2,0.2-2.7,0.3c-9,0.9-18.1,0.6-27.1,0.7c-2.1-0.1-4.7,0.3-6.1-1.7
		C187.9,67.4,187.7,63.2,187.1,59.2z"/>
</g>
<g id="_x23_3c3ba6ff">
	<path class="st43" d="M44.6,62c1.4-0.7,2.8-1.6,4.4-0.8c-0.9,9.4,1,18.8,2.9,28c-1.1,0.5-2.3,1.1-3.4,1.6c-0.1-0.6-0.3-1.7-0.4-2.3
		c2.7-5.7-1-11.5-1-17.3C46.7,68,47.8,64,44.6,62z"/>
</g>
<g id="_x23_c2c8efff">
	<path class="st44" d="M31.6,73.7c0.3-0.6,1-1.8,1.4-2.4c0.3,0.7,1,2,1.3,2.7c0.8-0.1,2.3-0.2,3-0.3c-0.7,0.7-1.5,1.5-2.2,2.2
		c0.1,0.8,0.2,1.6,0.3,2.5c0,0.1,0,0.4,0,0.6c-1.7-1.8-3.6-1-5.3,0.1c0.3-1,0.6-2,0.9-3.1c-0.7-0.6-1.5-1.2-2.2-1.8
		C29.5,74.1,30.9,73.8,31.6,73.7z"/>
</g>
<g id="_x23_d9d8daff">
	<path class="st45" d="M187.3,73l1.4,0.3c1,0.2,2,0.3,3,0.5c6.3,1.2,12.8,0.3,19.1,0.9c1.5,1.3,3,2.5,4.5,3.8
		c-0.2,0.3-0.4,0.7-0.6,1c2,1.9,2.7,4.6,3.2,7.3c-6.7-0.2-13.3,0.3-20,0.2c-1.6-0.1-3.2,0.2-4.5,1.1c-0.3,1.1,0,2.3,0,3.4
		c-0.2,0.8-0.6,2.4-0.7,3.2c-2.1-4.3-2.1-9.2-4.2-13.4C187.3,78.7,187.5,75.8,187.3,73z"/>
</g>
<g id="_x23_827984ff">
	<path class="st46" d="M239.6,73.1c2.2,4.7,4.1,9.6,5.6,14.6c-0.8,0-2.4,0-3.2,0.1c-2.1-3.8-3.9-7.8-5.6-11.8
		c0.4-0.6,1.3-1.8,1.7-2.3C238.5,73.5,239.3,73.2,239.6,73.1z"/>
</g>
<g id="_x23_c6c6c8ff">
	<path class="st47" d="M191.7,73.8c7.6-0.4,15.3,0.2,22.9-0.3c4.8,0,9.5,0,14.3,0c0,0.5-0.1,1.4-0.1,1.9c2.6,3.3,3.6,7.4,4.8,11.3
		c-5.2,0.1-10.4,0.1-15.6,0c-0.5-2.7-1.2-5.3-3.2-7.3c0.2-0.3,0.4-0.7,0.6-1c-1.5-1.2-3-2.5-4.5-3.8C204.5,74.2,198.1,75,191.7,73.8
		z"/>
</g>
<g id="_x23_9f9da0ff">
	<path class="st48" d="M228.9,73.6c0.6,0,1.8,0,2.4,0c2.3,0,4.6,0.1,6.9,0.1c-0.4,0.6-1.3,1.8-1.7,2.3c1.6,4.1,3.4,8,5.6,11.8
		c-2.6,0.2-5.1,0.4-7.7,0.6c-0.2-0.4-0.6-1.2-0.7-1.6c-1.2-3.9-2.2-8-4.8-11.3C228.8,74.9,228.9,74,228.9,73.6z"/>
</g>
<g id="_x23_02024fff">
	<path class="st49" d="M8.4,78.2c2.3,2.5-0.1,5.8-1,8.4c-2.5,7.1-4.2,14.6-5.3,22l0.5,0.3c1,0.7,2,1.3,3,2c-0.4,0.6-1.1,1.8-1.5,2.4
		c-1.5-0.7-2.9-1.5-4.2-2.4v-1.3C1.6,98.8,4,88.1,8.4,78.2z"/>
</g>
<g id="_x23_f4c6c9ff">
	<path class="st50" d="M193.4,88.1c1.3-0.9,2.9-1.2,4.5-1.1c6.7,0,13.3-0.5,20-0.2c5.2,0.1,10.4,0.1,15.6,0c0.2,0.4,0.6,1.2,0.7,1.6
		l-1,0C220.1,87.7,206.7,88.7,193.4,88.1z"/>
</g>
<g id="_x23_bdc7e0ff">
	<path class="st51" d="M19.9,88.1c0.8,0.7,1.4,1.5,2.2,2.3c0.4-0.1,1.2-0.3,1.6-0.4l0.2,0.8c-0.3,0.4-1,1.2-1.3,1.6
		c-0.1,0.7-0.4,2.2-0.5,3c-0.5-0.4-1.5-1.1-2-1.4c-0.5,0.3-1.5,1-2,1.3L18,95c0-1.9-0.9-3.5-1.9-4.9c0.7,0,2,0.1,2.7,0.1
		C19.1,89.7,19.6,88.6,19.9,88.1z"/>
</g>
<g id="_x23_37399eff">
	<path class="st52" d="M43.3,90.2c0.6-1.1,1.7-2.2,3-1.9C46.8,90.2,44.6,90.6,43.3,90.2z"/>
</g>
<g id="_x23_d4dbf7ff">
	<path class="st53" d="M46.3,88.4c0.4,0,1.3,0,1.8,0.1c0.1,0.6,0.3,1.7,0.4,2.3c0.1,0.4,0.3,1.2,0.4,1.6c0.2,0.7,0.6,2.2,0.8,2.9
		c-0.7-0.2-2-0.7-2.7-0.9c-0.6,0-1.8,0-2.5,0c0.7-1.5-0.1-3.3-1.8-3.6l0.5-0.6C44.6,90.6,46.8,90.2,46.3,88.4z"/>
</g>
<g id="_x23_cd5e69ff">
	<path class="st54" d="M193.5,91.5c0-1.1-0.3-2.3,0-3.4c13.3,0.6,26.6-0.4,39.9,0.3c-2.9,0.3-5.7,0.8-8.6,1.1c-9.7,0-19.4,0-29.1,0
		c-0.6,1.3-1.1,2.5-1.6,3.8C193.9,92.8,193.6,91.9,193.5,91.5z"/>
</g>
<g id="_x23_c7343dff">
	<path class="st55" d="M233.3,88.4l1,0c2.6-0.1,5.1-0.4,7.7-0.6c0.8,0,2.4-0.1,3.2-0.1l0.2,0.5c-2.6,0.1-5.2,0.2-7.8,0.3l0.3,1.2
		c0.8,3.1,1.7,6.2,2.3,9.3c0.9,2-1.9,2.8-2.8,3.9c-0.6,0.4-1.2,0.8-1.8,1.3c-10.1-0.8-20.3-0.4-30.5-0.5l-0.4-0.8
		c4.1-0.3,8.2-0.3,12.3-0.3c5.3,0,10.4-1.4,15.6-2c-1-1.4-2.1-2.7-3.1-4.1c0.2-0.3,0.8-1,1-1.4c-2.5-1.3-5-2.8-5.8-5.7
		C227.6,89.2,230.5,88.7,233.3,88.4z"/>
</g>
<g id="_x23_6d1013ff">
	<path class="st56" d="M237.6,88.6c2.6-0.1,5.2-0.2,7.8-0.3c1.6,5.2,2.8,10.4,3.8,15.8h-0.8c-0.5,0-1.6-0.1-2.1-0.1
		c0.6-4.6-0.4-9.3-2.6-13.4c-1.9-0.4-3.8-0.5-5.7-0.7L237.6,88.6z"/>
</g>
<g id="_x23_e13946ff">
	<path class="st57" d="M194.1,93.3c0.5-1.3,1.1-2.5,1.6-3.8c9.7,0,19.4,0,29.1,0c0.8,2.9,3.3,4.4,5.8,5.7c-0.2,0.3-0.8,1-1,1.4
		c1,1.4,2.1,2.7,3.1,4.1c-5.2,0.6-10.3,2.1-15.6,2c-4.1,0-8.2,0-12.3,0.3c-1.1-2.2-2.1-4.8-4.1-6.3c-1.3-0.3-2.6-0.3-3.9-0.4l-1.6,0
		C194.8,95.5,194.3,94,194.1,93.3z"/>
</g>
<g id="_x23_900202ff">
	<path class="st58" d="M237.9,89.8c1.9,0.2,3.8,0.4,5.7,0.7c2.2,4,3.2,8.8,2.6,13.4c-3-0.2-5.9-0.4-8.8-0.9c0.9-1.1,3.7-1.9,2.8-3.9
		C239.6,96,238.7,92.9,237.9,89.8z"/>
</g>
<g id="_x23_3532bdff">
	<path class="st59" d="M22.5,92.3c0.3-0.4,1-1.2,1.3-1.6c2,1.2,4.1,2.1,6.2,3.1c-1.5,2.9-2.7,6-5.2,8.2c-2.7,2.5-7.3-1.7-9.6,1.7
		c-0.7-0.3-1.4-0.6-2.1-0.9c0.6-3.1,0.9-6.3,1.1-9.4c1.2,0.5,2.4,1.1,3.6,1.7l0.2,0.2c0.9,1.1,3.4,1.8,3.9,0.1
		C22.2,94.6,22.4,93.1,22.5,92.3z"/>
</g>
<g id="_x23_4245a6ff">
	<path class="st60" d="M44.6,94.4c-2,0.5-3.4-2.4-1.8-3.6C44.5,91.2,45.3,92.9,44.6,94.4z"/>
</g>
<g id="_x23_fafbf8ff">
	<path class="st61" d="M121.2,96.5c5.7-4.3,13.3-6.1,20.3-4.4C134.5,92.2,128.2,95.8,121.2,96.5z"/>
	<path class="st61" d="M132.1,160.4c4.1-1.1,8.3-2,12.4-3.2l-0.3,1.6c-0.2,1.2-0.5,2.5-0.7,3.7c-3.5,1.7-7,3.5-10.6,4.9
		c-2.9,0.9-5.7,1.9-8.5,2.7c-5.5,1.8-11.5,1.7-17.2,1.4c-0.9-0.1-2.6-0.2-3.5-0.3c-0.3-0.6-0.9-1.7-1.2-2.2
		c-0.2-0.4-0.7-1.2-0.9-1.6c7.2-2,15-0.8,22.1-2.6C126.6,163.5,128.9,161.1,132.1,160.4z"/>
</g>
<g id="_x23_000000ff">
	<path d="M121.2,96.5c6.9-0.7,13.2-4.3,20.3-4.4c6.9-0.3,14.2,1.7,18.8,7.2c0.1,0.2,0.3,0.6,0.3,0.8c0.8,1.8,1.6,3.6,2.4,5.5
		c1.7-0.2,3.4-0.5,5.1-0.9c0.7-0.2,2.1-0.5,2.8-0.6c4.6-1,9.2-1.8,13.8-2.8l1.4-0.3c-0.8,0.8-1.6,1.7-2.4,2.5
		c-2.3,1-4.8,1.8-7.2,2.6c-2.8,1-5.6,2-8.4,3c-1.3,0.5-2.5,1-3.8,1.5c-0.4,6.4-0.2,13.8-5.2,18.6c-4,3.9-9.9,3.9-15.1,3.6
		c-6.2-0.2-12-3.2-16.7-7.2c-3-3.2-5.8-6.8-7.7-10.9c-0.7-1.6-1.2-3.3-1.6-5c-0.2-1.4-0.3-2.8-0.5-4.2c-3.6-0.4-7.1,0.4-10.3,2
		c1.5,6.3,0.9,13-1.8,18.9c-2.2,4.5-5.3,8.8-9.5,11.7c-3.3,2.5-7.3,3.7-11.2,5.2c-5.8,1.3-12.3-0.6-15.5-5.8
		c-0.5-0.7-0.9-1.4-1.4-2.1c-3.6-6.8-5.7-15-2.6-22.4c0.7-1.2,1.4-2.3,2.2-3.4c6.7-7.9,17.8-9.4,27.5-9
		C103.8,99.7,112.5,97.8,121.2,96.5 M100,101.1c2,1.7,4.4,3,6.1,5c3.7-2.2,8-2.7,12.2-2.4c1.2-2.3,2.8-4.4,4.7-6.2
		C115.4,98.9,107.7,100.1,100,101.1 M124.5,116.5c0.8-0.1,1.6-0.2,2.4-0.4c2.1-2.7,2.9-6.1,4.6-9.1c1.4-2.7,4-4.8,4.6-8
		c-1.8-1.1-3.9-2.1-5.9-0.9C122.9,100.4,118.9,110.8,124.5,116.5 M72.9,108.9c-5.5,3.4-7.6,12.2-2.8,17.1c3.3,0.2,4-3.5,5.1-5.8
		c1.5-4.2,4.6-7.4,6.5-11.4C79.3,106.2,75.4,107,72.9,108.9z"/>
</g>
<g id="_x23_edc0b2ff">
	<path class="st62" d="M193.5,91.5c0.2,0.4,0.5,1.3,0.6,1.8c0.2,0.7,0.7,2.2,0.9,2.9c-3.2,1.2-6.1,3-9,4.7l-1.4,0.3
		c2-2.7,4.9-4.3,7.8-5.7c0.1-0.2,0.2-0.7,0.2-0.9C192.9,93.9,193.3,92.3,193.5,91.5z"/>
</g>
<g id="_x23_404196ff">
	<path class="st63" d="M18.1,95.2c0.5-0.3,1.5-1,2-1.3c0.5,0.4,1.5,1.1,2,1.4C21.6,97.1,19,96.3,18.1,95.2z"/>
</g>
<g id="_x23_e18b68ff">
	<path class="st64" d="M186.1,100.9c2.9-1.7,5.8-3.5,9-4.7l1.6,0c-3.6,3.7-9.3,4.7-12.2,9.2c-2.2,4.4-3,9.3-4.9,13.8
		c-0.1-1.4-0.2-2.8-0.4-4.2c0.7-4.1,2.4-8,4.4-11.6C184.5,102.6,185.2,101.8,186.1,100.9z"/>
</g>
<g id="_x23_fe8d59ff">
	<path class="st65" d="M196.7,96.2c1.3,0.1,2.6,0.1,3.9,0.4c2.1,1.5,3,4.1,4.1,6.3l0.4,0.8c0.8,5.2,1.7,10.5,2.1,15.7l-0.1,0.9
		c-0.4,4-0.9,8-1.7,11.9c-0.2,0.8-0.5,1.7-0.7,2.5c-0.1,0.3-0.3,0.8-0.4,1.1c-0.9,1.5-1.9,3-2.7,4.5c-0.2-0.6-0.7-1.9-0.9-2.5
		c3.4-5.4,4.1-12.1,3.2-18.4c-1.9,2.6-1.9,6-2.2,9.1c-3.2,3.9-5,8.9-9,12.1c-0.4-3.5,2.3-7.2,0.2-10.5c-1-1.8-3-2.8-4.6-3.8
		c-2.7-6.8-0.4-14,0.8-20.9c-1.5,0-3,0-4.5,0C187.3,100.9,193.1,99.9,196.7,96.2z"/>
</g>
<g id="_x23_f5bc89ff">
	<path class="st66" d="M100,101.1c7.7-1,15.4-2.3,23.1-3.6c-1.9,1.8-3.5,3.9-4.7,6.2c-4.2-0.3-8.6,0.2-12.2,2.4
		C104.4,104.1,102,102.8,100,101.1z"/>
</g>
<g id="_x23_fcfcfbff">
	<path class="st67" d="M124.5,116.5c-5.6-5.7-1.6-16.1,5.6-18.4c2-1.2,4.2-0.2,5.9,0.9c-0.6,3.2-3.2,5.3-4.6,8
		c-1.7,3-2.5,6.4-4.6,9.1C126.1,116.3,125.3,116.4,124.5,116.5z"/>
</g>
<g id="_x23_0603a0ff">
	<path class="st68" d="M8.4,103.2c0.3-1.5,0.9-2.9,1.4-4.3c0,0.5,0.1,1.6,0.2,2.2c1.1,0.6,2.3,1.2,3.4,1.7c0.7,0.3,1.4,0.6,2.1,0.9
		c1.9,0.8,3.9,1.5,5.9,2.3c0.1,0.6,0.4,1.8,0.5,2.4c-2.2-0.8-4.4-1.8-6.6-2.9c-0.4,0.2-1.2,0.6-1.6,0.8c0.1,3.5-0.6,7-1.5,10.4
		c3.9,0,7.9,0.1,11.5,1.6c-5.4,0.3-10.9,0.1-16.3,0.3c-0.3-0.6-0.9-1.9-1.2-2.5c1.2-0.7,2.3-1.4,3.5-2.2c0-1-0.1-2-0.1-3
		c0.8-0.6,1.7-1.2,2.5-1.8l-0.8-0.1C10.1,107.1,8.7,105.3,8.4,103.2z"/>
</g>
<g id="_x23_d6937dff">
	<path class="st69" d="M160.6,100.1c3.3,0,5.7,2.1,7.5,4.6c-1.7,0.4-3.4,0.6-5.1,0.9C162.3,103.7,161.5,101.9,160.6,100.1z"/>
</g>
<g id="_x23_9e5255ff">
	<path class="st70" d="M235.6,104.2c0.6-0.4,1.2-0.8,1.8-1.3c2.9,0.5,5.9,0.8,8.8,0.9c0.5,0,1.6,0.1,2.1,0.1c-0.8,0.5-1.5,1-2.3,1.5
		c-1-0.4-2-0.7-3-1c-0.8-0.1-2.3-0.2-3-0.2c-0.6,0-1.8,0-2.4,0C237.1,104.3,236.1,104.3,235.6,104.2z"/>
</g>
<g id="_x23_dad1caff">
	<path class="st71" d="M176.5,106.1c2.4-0.8,4.8-1.6,7.2-2.6c-2.1,3.6-3.7,7.5-4.4,11.6C178.6,111.9,177.5,109,176.5,106.1z"/>
</g>
<g id="_x23_ecbdbdff">
	<path class="st72" d="M205.1,103.7c10.2,0.2,20.4-0.2,30.5,0.5c0.5,0,1.5,0.1,2,0.1c-1.5,0.3-2.9,0.6-4.4,0.9
		c-6.7,0-13.5,0.4-20.2,0.3c-1.9,0.1-5-0.1-5.4,2.5c-0.5,3,0.3,6.1,1.6,8.9c6,1.4,12.2,0.2,18.2,0.2c4.4,0.6,8.9,0.6,13.3,0.8
		c0.8,0.1,2.5,0.2,3.3,0.2c0.8,0,2.4,0.2,3.2,0.2c0.7,0,2.1,0.1,2.8,0.1v0.2c-14.2,1.3-28.5,0.6-42.8,0.9
		C206.7,114.2,205.9,108.9,205.1,103.7z"/>
</g>
<g id="_x23_7d7a80ff">
	<path class="st73" d="M248.3,104h0.8c0.3,1.6,0.6,3.1,0.8,4.7v9.6c-0.7,0-2.1-0.1-2.8-0.1c-0.5-4.2-0.9-8.5-1.2-12.7
		C246.8,105,247.6,104.5,248.3,104z"/>
</g>
<g id="_x23_0301bdff">
	<path class="st74" d="M15.2,105.5c2.1,1.1,4.3,2.1,6.6,2.9c-0.1-0.6-0.4-1.8-0.5-2.4c2.6,1,5.2,2,7.7,3.4c0.5,0.3,1.4,0.9,1.9,1.2
		c-0.1,1.2-0.2,2.4-0.4,3.6c0.8-0.6,1.7-1.2,2.5-1.9c0.9,0.7,1.9,1.3,2.8,2c-0.2-1.1-0.5-2.2-0.7-3.3c6.8,2.2,13.8,3.5,20.6,5.6
		c-0.4,0.5-1.2,1.4-1.7,1.8c-10.1,0.1-20.2,0.2-30.3-0.1c-3.7-1.5-7.7-1.5-11.5-1.6c0.9-3.4,1.6-6.8,1.5-10.4
		C13.9,106.1,14.8,105.7,15.2,105.5z"/>
</g>
<g id="_x23_ffc690ff">
	<path class="st75" d="M107.2,107.5c3.2-1.6,6.7-2.4,10.3-2c0.1,1.4,0.3,2.8,0.5,4.2c-2.4-1.1-6-2.9-8.2-0.9
		c-0.4,3.7,0.2,7.4,0.7,11.1c0.5,4,3.8,6.9,4.8,10.8c1.3,4.8,2.6,9.6,4.2,14.4c-0.8,1.5-1.6,3.1-2.3,4.6c-2.1,0.6-4.3,0.6-6.4-0.3
		c1.6-0.1,3.2-0.3,4.8-0.4c-0.2-0.3-0.7-0.9-0.9-1.2c0.3-0.6,0.6-1.2,0.9-1.7c-1.7-4.4-3.2-9-6.2-12.8c-0.7,1.1-1.5,2.1-2.2,3.3
		c-0.3-3.4-0.7-6.7-1.7-10C108.1,120.5,108.8,113.8,107.2,107.5z"/>
</g>
<g id="_x23_fe9b59ff">
	<path class="st76" d="M184.5,105.4c1.5,0,3,0,4.5,0c-1.1,6.9-3.4,14.1-0.8,20.9c1.7,1.1,3.6,2,4.6,3.8c2.1,3.3-0.6,7-0.2,10.5
		c4.1-3.2,5.8-8.2,9-12.1c0.3-3.1,0.4-6.4,2.2-9.1c0.9,6.2,0.2,13-3.2,18.4c0.2,0.6,0.7,1.9,0.9,2.5c-1.6,3.5-3.7,6.8-4.3,10.7
		c-2.2,2.6-5.3,4-8.8,3.7c0,3.4,0.1,6.7,0,10.1l-0.1,0.9c0,0.2-0.1,0.5-0.1,0.7c-2.7,3.3-3.8,7.6-6,11.2c-1.9,0.2-3.8,0.2-5.7,0.1
		c1.2-4.9,0.1-10,1-14.9c0.8-8,1.5-16.6-1.8-24.1c-1.3-3.9-2.1-8-4-11.7c-1.9-3.3-4.3-6.3-6.5-9.4c-0.1-3.2,0.7-6.2,2.8-8.7
		c2.8-1,5.6-2,8.4-3c1,3,2.1,5.9,2.8,9c0.1,1.4,0.2,2.8,0.4,4.2C181.5,114.7,182.2,109.8,184.5,105.4z"/>
</g>
<g id="_x23_d8d6d9ff">
	<path class="st77" d="M213,105.5c6.7,0.1,13.5-0.3,20.2-0.3c-2.9,0.5-5.3,2.1-7.1,4.3c0.5,0.2,1.6,0.7,2.2,1c0,1.4,0.1,2.8,0.1,4.2
		c0.7,0.3,1.5,0.5,2.2,0.8c-1.1,0.5-2.2,1-3.3,1.5c-6.1,0.1-12.3,1.2-18.2-0.2c-1.3-2.8-2.1-5.9-1.6-8.9
		C208,105.4,211.1,105.7,213,105.5z"/>
</g>
<g id="_x23_c3c4c7ff">
	<path class="st78" d="M233.2,105.2c1.5-0.3,2.9-0.6,4.4-0.9c0.6,0,1.8,0,2.4,0c0.3,4.5,0.5,9,0.7,13.5c-4.4-0.2-8.9-0.2-13.3-0.8
		c1.1-0.5,2.2-1,3.3-1.5c-0.8-0.3-1.5-0.5-2.2-0.8c-0.1-1.4-0.1-2.8-0.1-4.2c-0.6-0.2-1.6-0.7-2.2-1
		C228,107.3,230.4,105.7,233.2,105.2z"/>
</g>
<g id="_x23_a6a4aaff">
	<path class="st79" d="M240.1,104.3c0.8,0.1,2.2,0.2,3,0.2c0.4,4.5,0.7,9,0.9,13.5c-0.8-0.1-2.5-0.2-3.3-0.2
		C240.6,113.3,240.4,108.8,240.1,104.3z"/>
</g>
<g id="_x23_939095ff">
	<path class="st80" d="M243.1,104.6c1,0.3,2,0.6,3,1c0.3,4.2,0.7,8.5,1.2,12.7c-0.8,0-2.4-0.1-3.2-0.2
		C243.8,113.5,243.5,109,243.1,104.6z"/>
</g>
<g id="_x23_9b9cc5ff">
	<path class="st81" d="M6.2,108.8c0.3-1,0.7-2.1,1-3.1c0.4,0.7,1.1,2.1,1.4,2.8c0.6,0.1,1.9,0.2,2.5,0.3l0.8,0.1
		c-0.8,0.6-1.6,1.2-2.5,1.8c0.1,1,0.1,2,0.1,3c-1.6-1.3-3.5-0.7-5.3-0.5c0.4-0.6,1.1-1.8,1.5-2.4c-1-0.7-2-1.4-3-2
		C3.9,108.8,5,108.8,6.2,108.8z"/>
</g>
<g id="_x23_d0d3feff">
	<path class="st82" d="M32.9,106c0.4,0.9,0.9,1.7,1.3,2.6c0.8,0.1,2.3,0.2,3,0.2c-0.8,0.7-1.6,1.3-2.3,2c0.2,1.1,0.5,2.2,0.7,3.3
		c-0.9-0.7-1.9-1.3-2.8-2c-0.8,0.6-1.7,1.2-2.5,1.9c0.1-1.2,0.3-2.4,0.4-3.6c-0.5-0.3-1.4-0.9-1.9-1.2C30.7,108.8,32.3,108,32.9,106
		z"/>
</g>
<g id="_x23_fafbfbff">
	<path class="st83" d="M72.9,108.9c2.5-1.9,6.4-2.6,8.8-0.1c-1.9,4-5,7.2-6.5,11.4c-1.2,2.3-1.8,6-5.1,5.8
		C65.3,121.1,67.4,112.3,72.9,108.9z"/>
</g>
<g id="_x23_fcbd82ff">
	<path class="st84" d="M109.9,108.7c2.2-2,5.8-0.2,8.2,0.9c0.4,1.7,0.9,3.4,1.6,5c-0.5,0.4-1.5,1.1-2,1.4c0.3,4.9,0.2,10,1.3,14.9
		c0.3,2.2,2.5,4,4.8,3.5c2.8-0.9,5.2-2.4,7.8-3.8c1.5,1,2.4,2.6,3.2,4.2c-0.1,1.8,0.1,3.8-0.5,5.6c-2.4,1.8-5.6,1.3-8.3,1.5
		c-2.7,2.8-5.3,5.8-8.8,7.7c0.8-1.6,1.5-3.1,2.3-4.6c-1.6-4.7-2.9-9.6-4.2-14.4c-1-3.9-4.3-6.8-4.8-10.8
		C110.1,116.1,109.5,112.4,109.9,108.7z"/>
</g>
<g id="_x23_efb995ff">
	<path class="st85" d="M164.3,110.5c1.3-0.5,2.5-1,3.8-1.5c-2,2.5-2.8,5.5-2.8,8.7c-0.2,2.8,0,5.8-1.1,8.5c-2,3-4.5,5.9-8.1,7
		c-4,1.3-8.2,1.2-12.4,0.8c-2.6-0.2-5.1-0.4-7.7-0.3c-0.3,0.3-1,0.8-1.3,1.1c-0.8-1.6-1.8-3.1-3.2-4.2c-1.7-1.4-4.5-2.4-4.2-5.1
		c4.7,3.9,10.4,7,16.7,7.2c5.2,0.3,11.1,0.3,15.1-3.6C164.1,124.3,163.9,116.9,164.3,110.5z"/>
</g>
<g id="_x23_040174ff">
	<path class="st86" d="M0,110.8c1.4,0.8,2.8,1.7,4.2,2.4c1.8-0.2,3.7-0.8,5.3,0.5c-1.1,0.8-2.3,1.5-3.5,2.2c0.3,0.6,0.9,1.9,1.2,2.5
		c-2.4,0.1-4.9,0.3-7.3,0.5V110.8z"/>
</g>
<g id="_x23_fa9b5aff">
	<path class="st87" d="M117.7,116.1c0.5-0.4,1.5-1.1,2-1.4c1.9,4,4.6,7.6,7.7,10.9c-0.2,2.7,2.5,3.7,4.2,5.1
		c-2.6,1.3-5.1,2.9-7.8,3.8c-2.2,0.6-4.5-1.3-4.8-3.5C117.9,126.1,118,121,117.7,116.1z"/>
</g>
<g id="_x23_4c0570ff">
	<path class="st88" d="M55.5,116.5c0.4,0.1,1.1,0.3,1.5,0.4c0.1,0.7,0.4,2.1,0.5,2.8c-13.2-0.1-26.4,0-39.6,0
		c-3.2,0-6.3,0.3-9.4,0.6c-1.2,0-2.4,0-3.6,0c-1.6,0-3.3,0-4.9,0v-1.4c2.4-0.2,4.9-0.4,7.3-0.5c5.4-0.1,10.9,0,16.3-0.3
		c10.1,0.3,20.2,0.2,30.3,0.1C54.3,117.8,55.1,116.9,55.5,116.5z"/>
</g>
<g id="_x23_febb82ff">
	<path class="st89" d="M164.2,126.2c1.1-2.7,0.9-5.7,1.1-8.5c2.2,3.1,4.6,6.1,6.5,9.4c1.9,3.7,2.7,7.8,4,11.7
		c0.2,9.1,1.8,18.1,0.1,27.1c-1.1,10.6-7.1,20.1-14.9,27.1c-2.3,1.7-4.6,3.4-6.7,5.4c-0.5,0.5-1.6,1.5-2.1,2
		c-2-10.7-5.6-21.2-5.8-32.1c1.8,2.2,3,4.7,3.9,7.3c0.6-1.2,1.2-2.4,1.8-3.6c1.4,2,3.1,5.4,6,3.3c2.7-3.8,3.8-8.8,3.4-13.4
		c0-0.8,0-2.2-0.1-3c0.3-1.4,1.3-2.7,0.7-4.1c-1-3-1.6-6.2-3.4-8.8c-2.7-3.1-6.8-4.1-10.6-5c-0.7-0.8-1.3-1.7-2-2.5
		c1.2-0.3,2.5-0.6,3.7-1c-1.7-0.4-3.5-0.7-5.2-1.1c-0.2-0.6-0.7-1.7-0.9-2.3c4.1,0.4,8.4,0.5,12.4-0.8
		C159.7,132.2,162.3,129.2,164.2,126.2z"/>
</g>
<g id="_x23_7f0105ff">
	<path class="st90" d="M207.2,119.4c14.3-0.2,28.6,0.4,42.8-0.9v16.8c-3.4,0-6.7,0-10.1-0.1l0.3-1.2c2.1-0.5,4.2-1.2,6.2-2
		c-0.5-3.6-0.8-7.2-0.9-10.8c-3.7-1-7.5-1.2-11.2-0.7c-9.1-0.1-18.2-0.2-27.2-0.1L207.2,119.4z"/>
</g>
<g id="_x23_b30a3aff">
	<path class="st91" d="M8.5,120.4c3.1-0.3,6.3-0.7,9.4-0.6c13.2,0.1,26.4-0.1,39.6,0c0.1,0.5,0.2,1.5,0.3,2
		c-5.2-0.7-10.4-1-15.7-0.5c-10.2-0.3-20.4,0.2-30.6-0.3C10.9,120.8,9.3,120.5,8.5,120.4z"/>
</g>
<g id="_x23_dc0109ff">
	<path class="st92" d="M207.1,120.3c9.1,0,18.2,0,27.2,0.1l1.3,0.4c-3.9,0.2-7.9,0.3-11.8,0.5c2.2,1.5,4.7,2.6,7.2,3.5
		c-1.7,1.9-3.5,3.8-5.4,5.5c1.4,0.9,2.8,1.8,4.1,2.8c-8.1-0.1-16.5,1.4-24.4-0.9C206.2,128.3,206.6,124.3,207.1,120.3z"/>
</g>
<g id="_x23_aa0102ff">
	<path class="st93" d="M234.3,120.5c3.8-0.5,7.6-0.3,11.2,0.7c0.1,3.6,0.4,7.2,0.9,10.8c-2,0.8-4.1,1.5-6.2,2
		c-0.3-0.1-0.9-0.2-1.2-0.2c1.2-4,1.6-8.1,0.7-12.2c-1.4-0.2-2.7-0.4-4.1-0.7L234.3,120.5z"/>
</g>
<g id="_x23_7e0004ff">
	<path class="st94" d="M0,120.4c1.6,0,3.3,0,4.9,0c-1.1,4.2-2.5,8.7-0.2,12.8c1.4,0.3,2.7,0.6,4.1,0.9l0.6,1.2
		c-3.1,0.1-6.3,0.1-9.4,0.2V120.4z"/>
</g>
<g id="_x23_a80203ff">
	<path class="st95" d="M4.9,120.3c1.2,0,2.4,0,3.6,0c0.8,0.1,2.4,0.4,3.2,0.5c-2.3,3.7-1.4,8,0,11.7c3.6,0.2,7.2,0.6,10.8,1
		c-4.5,0.7-9.1,0.7-13.6,0.3c-1.4-0.3-2.7-0.6-4.1-0.9C2.4,129,3.9,124.5,4.9,120.3z"/>
</g>
<g id="_x23_ce0107ff">
	<path class="st96" d="M11.7,120.9c10.2,0.5,20.4-0.1,30.6,0.3c-5.4,1.3-10.8,2.6-16.1,4.2c1.1,1.8,2.2,3.6,3.4,5.4
		c-1.1,0.2-2.3,0.3-3.4,0.5c1.8,0.7,3.5,1.4,5.3,2c-3,0-5.9,0.2-8.9,0.4c-3.6-0.4-7.2-0.8-10.8-1C10.3,128.9,9.4,124.6,11.7,120.9z"
		/>
</g>
<g id="_x23_e20009ff">
	<path class="st97" d="M42.2,121.2c5.2-0.5,10.5-0.2,15.7,0.5c0.2,1,0.4,2.1,0.5,3.2c0.1,0.6,0.2,1.8,0.2,2.3
		c-1.3,0.2-2.6,0.4-3.9,0.6c-0.6,2.3-1.3,4.6-1.4,7c-0.9-0.9-1.9-1.6-3.3-1.4c-6.2,0-12.5,0.3-18.7-0.1c-1.8-0.6-3.6-1.3-5.3-2
		c1.1-0.2,2.3-0.3,3.4-0.5c-1.2-1.8-2.3-3.6-3.4-5.4C31.4,123.8,36.8,122.5,42.2,121.2z"/>
</g>
<g id="_x23_cb0104ff">
	<path class="st98" d="M223.8,121.4c3.9-0.3,7.9-0.4,11.8-0.5c1.4,0.2,2.7,0.5,4.1,0.7c0.9,4.1,0.5,8.2-0.7,12.2
		c-3-0.4-6.1-0.4-9.2-0.6c-1.3-1-2.7-1.9-4.1-2.8c1.9-1.8,3.6-3.6,5.4-5.5C228.5,124.1,226,122.9,223.8,121.4z"/>
</g>
<g id="_x23_fca56cff">
	<path class="st99" d="M58.4,124.9c0.2,0.9,0.3,1.9,0.5,2.8c0,4.3,3.3,7.2,5.8,10.3c-0.3,0.4-0.9,1.3-1.3,1.8
		c-1.7-2.2-3.8-4-6.7-4.1c1.8,3.7,4.9,6.9,5.3,11.2c0.8,5.7,2.5,11.6,6.7,15.7c1.9,3.4,4,6.8,7.3,9.2c2.3,1.5,3.6,4,4.2,6.6
		c-2.2,0.2-4.5,0.4-6.7,0.7c-4.4-3-5.9-8.3-7.8-13c-0.3-0.7-0.6-1.3-0.8-2c-2.7-4.1-4.8-8.6-4.7-13.7c-1.7-5.5-6.2-9.9-6.8-15.8
		c0.1-2.4,0.8-4.7,1.4-7c1.3-0.2,2.6-0.4,3.9-0.6C58.6,126.6,58.5,125.4,58.4,124.9z"/>
</g>
<g id="_x23_fbba82ff">
	<path class="st100" d="M105.5,126.4c1,3.2,1.4,6.6,1.7,10c-2.4,3.2-2.2,7.3-0.6,10.8c-2.1-1.4-4.7-1.7-7.2-1.8
		c-1-4.1,1.2-7.7,4.4-10.1c-5.6-0.4-8.1,6.6-7,11.2c-1.4,1.6-2.9,3.1-4.4,4.7c-2.6,2.5-5,5.2-7,8.2c-0.4-1.1-0.8-2.2-1.1-3.3
		c0.5-1,0.9-2.1,1.4-3.1c-1.2,0.7-2.5,1.3-3.8,1.9c-1.7-1.8-3.4-3.6-4.9-5.6c0.5-0.7,1.1-1.4,1.6-2.1c-1.8-0.4-3.6-0.6-5.1-1.7
		c3.8-0.6,8.3,0.8,11.2-2.3c3.8-1.5,7.9-2.7,11.2-5.2C100.2,135.2,103.2,130.9,105.5,126.4z"/>
</g>
<g id="_x23_f8d9bdff">
	<path class="st101" d="M59,127.7c2.1,3.3,4.1,8.6,9,7.6c0.4,0.7,0.9,1.4,1.4,2.1c-0.9,1-1.8,2-2.7,3c-0.4-0.6-0.8-1.1-1.2-1.6
		l-0.6-0.8C62.3,134.9,58.9,132,59,127.7z"/>
</g>
<g id="_x23_b81b22ff">
	<path class="st102" d="M205.4,132.2c7.9,2.4,16.3,0.8,24.4,0.9c3.1,0.2,6.2,0.2,9.2,0.6c0.3,0.1,0.9,0.2,1.2,0.2l-0.3,1.2
		c-11.7-0.3-23.5-0.3-35.2-0.4C204.9,133.9,205.2,133.1,205.4,132.2z"/>
</g>
<g id="_x23_b91f26ff">
	<path class="st103" d="M22.5,133.6c3-0.2,5.9-0.4,8.9-0.4c6.2,0.4,12.5,0.1,18.7,0.1c1.3-0.2,2.4,0.4,3.3,1.4
		c-14.6,0.4-29.3,0.1-43.9,0.5L8.9,134C13.4,134.4,18,134.4,22.5,133.6z"/>
</g>
<g id="_x23_ffdea6ff">
	<path class="st104" d="M109.3,133.1c3,3.8,4.5,8.4,6.2,12.8c-0.3,0.6-0.6,1.2-0.9,1.7c0.2,0.3,0.7,0.9,0.9,1.2
		c-1.6,0.1-3.2,0.3-4.8,0.4c-1.5-0.6-2.8-1.4-4.2-2.2c-1.6-3.5-1.7-7.6,0.6-10.8C107.9,135.2,108.6,134.2,109.3,133.1z"/>
</g>
<g id="_x23_f1854cff">
	<path class="st105" d="M134.8,134.8c0.3-0.3,1-0.8,1.3-1.1c0.2,2,0.8,4,0.5,6c-1,3.4-4.3,5.4-6.9,7.6c-0.9-0.7-1.8-1.4-2.7-2.1
		c-2.6,2.9-5.3,6.1-9.4,6.6c-5.1,1.7-9.8-1.8-14-4.2c-1.1,0.4-2.3,0.7-3.4,1.1c-1.2-0.8-2.3-1.6-3.5-2.3c-1.1-4.6,1.4-11.6,7-11.2
		c-3.2,2.4-5.4,6-4.4,10.1c2.5,0.1,5,0.4,7.2,1.8c1.4,0.8,2.8,1.6,4.2,2.2c2.1,0.8,4.3,0.8,6.4,0.3c3.5-1.9,6.1-4.9,8.8-7.7
		c2.8-0.2,6,0.3,8.3-1.5C135,138.6,134.7,136.6,134.8,134.8z"/>
</g>
<g id="_x23_feaa6cff">
	<path class="st106" d="M136.2,133.7c2.6-0.1,5.1,0.1,7.7,0.3c0.2,0.6,0.7,1.7,0.9,2.3c1.8,0.4,3.5,0.7,5.2,1.1
		c-1.2,0.3-2.5,0.6-3.7,1c0.6,0.8,1.3,1.7,2,2.5c-1.7-0.2-3.4-0.3-5.2-0.4c0.9,0.1,1.7,0.3,2.6,0.4c-0.3,4.9,2,9.7,5.2,13.3
		c-2.6,0.7-5.3,1.4-7.9,2c-2.4-1.4-3.2-4.2-4.7-6.4c-2.3-1.5-5.2-1.9-7.9-2l-0.5-0.4c2.5-2.3,5.8-4.2,6.9-7.6
		C137,137.7,136.4,135.7,136.2,133.7z"/>
</g>
<g id="_x23_f2bfbbff">
	<path class="st107" d="M0,135.4c3.1-0.1,6.3-0.1,9.4-0.2c14.6-0.4,29.3-0.1,43.9-0.5c0.6,5.9,5,10.3,6.8,15.8c-0.7,0-2,0-2.6-0.1
		c-15.5-0.6-30.9-0.1-46.4-0.1l0.1-1.3c5.1-0.5,10.1-0.4,15.2-0.5c3.3,0.1,6.6,0,10-0.1c6.5,0.6,13.2,1.2,19.7,0.6
		c0.2-0.2,0.7-0.7,1-1c-1.5-3.8-2.9-7.8-5.1-11.2c-5.4-0.9-11-0.3-16.4-0.2c-4.4,0-8.9-0.3-13.3-0.4c-4.2-0.1-8.3,0.1-12.5-0.2
		c-2.2-0.2-4.4-0.4-6.6-0.5c-0.8,0-2.3,0-3.1-0.1V135.4z"/>
</g>
<g id="_x23_efbcb7ff">
	<path class="st108" d="M204.3,135.9c0.1-0.3,0.3-0.9,0.4-1.1c11.8,0.1,23.5,0.1,35.2,0.4c3.4,0.1,6.7,0.2,10.1,0.1v0
		c-1.3,0.2-2.5,0.4-3.8,0.6c-1.1,0.2-2.2,0.3-3.3,0.4c-0.7,0-2.1,0.1-2.8,0.1c-6.2-0.2-12.4,0.1-18.7,0.1c-4.8,0.1-9.6-0.5-14.3,0.2
		c-3.3,3.2-4.2,8.2-5.7,12.4c5.8-0.7,11.6-0.1,17.4-0.6c5.9,0,11.9-0.3,17.7,1c-5.2,0.7-10.4,0.7-15.6,0.6
		c-7.5-0.1-15.1,0.3-22.6-0.2C200.8,145.5,202.9,140.9,204.3,135.9z"/>
</g>
<g id="_x23_7c7c81ff">
	<path class="st109" d="M0,135.7c0.8,0,2.3,0.1,3.1,0.1c1.2,4.8,2.5,9.7,2,14.7c-0.8,0-2.3-0.1-3.1-0.1c-0.1-0.3-0.4-0.9-0.5-1.2
		c-0.6-2.6-1.1-5.2-1.5-7.8V135.7z"/>
</g>
<g id="_x23_a1979eff">
	<path class="st110" d="M3.1,135.7c2.2,0.1,4.4,0.3,6.6,0.5c-0.4,4.4,0.7,8.6,1.5,12.9l-0.1,1.3c-2,0-4,0-6.1,0
		C5.6,145.4,4.3,140.5,3.1,135.7z"/>
</g>
<g id="_x23_c5c3c5ff">
	<path class="st111" d="M9.7,136.2c4.2,0.2,8.3,0.1,12.5,0.2c0.1,0.4,0.3,1.1,0.4,1.4c-1.1,0.8-2.1,1.6-3.2,2.4c2.3,1,4,2.7,4.6,5.1
		c-1.3,0.4-2.6,0.7-3.9,1.1c2.1,0.7,4.1,1.5,6.2,2.1c-5.1,0.1-10.1,0.1-15.2,0.5C10.4,144.9,9.3,140.6,9.7,136.2z"/>
</g>
<g id="_x23_d1d1d4ff">
	<path class="st112" d="M22.2,136.4c4.4,0.1,8.9,0.3,13.3,0.4c-1.2,0.7-2.4,1.5-3.5,2.2c-0.2,2.1,0.7,3.7,2.4,4.8
		c-0.2,0.9-0.4,1.9-0.7,2.8c-1.5,0.3-3.1,0.6-4.6,0.8c2.4,0.3,4.8,0.7,7.2,1.1c-3.3,0.1-6.6,0.2-10,0.1c-2.1-0.7-4.2-1.4-6.2-2.1
		c1.3-0.4,2.6-0.7,3.9-1.1c-0.6-2.4-2.4-4.1-4.6-5.1c1.1-0.8,2.1-1.6,3.2-2.4C22.5,137.5,22.3,136.8,22.2,136.4z"/>
</g>
<g id="_x23_f48a56ff">
	<path class="st113" d="M56.8,135.7c2.9,0.1,5.1,1.8,6.7,4.1c0.3-0.4,1-1.3,1.3-1.8l0.6,0.8c-0.4,4.7-1.7,9.7,0.6,14.1
		c2.5,4.5,6.6,8.1,11.1,10.6c1.3,6,3.9,11.6,5.7,17.4c1.5,5,3.4,9.8,6,14.4l-0.9,1.6c-2.3-4.6-4.2-9.4-5.7-14.3
		c-0.5-0.2-1.5-0.7-2-0.9c0.1-0.3,0.4-0.9,0.5-1.1c-2.4-0.4-4.9-0.7-7.2-1.4c2.2-0.3,4.5-0.5,6.7-0.7c-0.6-2.6-1.9-5.1-4.2-6.6
		c-3.2-2.4-5.4-5.7-7.3-9.2c-4.2-4.1-5.9-10.1-6.7-15.7C61.7,142.6,58.6,139.4,56.8,135.7z"/>
</g>
<g id="_x23_d1645cff">
	<path class="st114" d="M201.6,140.4c0.8-1.6,1.8-3,2.7-4.5c-1.3,4.9-3.5,9.6-5.9,14.1c7.5,0.5,15,0.1,22.6,0.2
		c5.2,0.1,10.4,0.1,15.6-0.6c0.4,0,1.1,0.1,1.5,0.1c0.8,0,2.3,0.1,3,0.1l1.5,0l-1,0.6c-14.7,0.6-29.5-0.6-44.2,0.6
		C197.9,147.3,200,143.9,201.6,140.4z"/>
</g>
<g id="_x23_c8c7caff">
	<path class="st115" d="M221.4,136.6c6.2-0.1,12.4-0.4,18.7-0.1c-0.8,4.4-1.6,8.8-2,13.3c-0.4,0-1.1-0.1-1.5-0.1
		c-5.8-1.3-11.8-1-17.7-1c1.6-0.3,3.3-0.7,4.9-1c-1.1-0.8-2.2-1.5-3.2-2.3c0.5-1.6,1.5-3,2.1-4.6C222.5,139.3,221.8,138,221.4,136.6
		z"/>
</g>
<g id="_x23_96939cff">
	<path class="st116" d="M242.9,136.4c1.1-0.1,2.2-0.3,3.3-0.4c-0.4,3.9-0.6,7.8-1.8,11.5c-0.3,1-0.9,2-1.9,2.5l-1.5,0
		C242,145.4,242.8,140.9,242.9,136.4z"/>
</g>
<g id="_x23_827d7eff">
	<path class="st117" d="M246.2,135.9c1.3-0.2,2.5-0.4,3.8-0.6v6.1c-0.5,3-1.1,6-1.7,9c-1.9,0-3.8-0.1-5.8,0l-1,0l1-0.6
		c1-0.5,1.6-1.4,1.9-2.5C245.6,143.7,245.8,139.8,246.2,135.9z"/>
</g>
<g id="_x23_dddce0ff">
	<path class="st118" d="M35.5,136.8c5.5-0.1,11-0.8,16.4,0.2c2.2,3.5,3.6,7.4,5.1,11.2c-0.2,0.2-0.7,0.7-1,1
		c-6.5,0.6-13.2,0.1-19.7-0.6c-2.4-0.4-4.8-0.8-7.2-1.1c1.5-0.3,3.1-0.6,4.6-0.8c0.2-0.9,0.4-1.9,0.7-2.8c-1.7-1.1-2.6-2.8-2.4-4.8
		C33.1,138.3,34.3,137.5,35.5,136.8z"/>
</g>
<g id="_x23_aaa7b2ff">
	<path class="st119" d="M240.1,136.5c0.7,0,2.1-0.1,2.8-0.1c-0.1,4.6-0.9,9.1-1.8,13.5c-0.8,0-2.3-0.1-3-0.1
		C238.4,145.3,239.3,140.9,240.1,136.5z"/>
</g>
<g id="_x23_fdd39aff">
	<path class="st120" d="M66.6,140.4c0.9-1,1.8-2,2.7-3c3.2,5.3,9.7,7.1,15.5,5.8c-2.9,3-7.5,1.7-11.2,2.3c1.5,1.1,3.3,1.3,5.1,1.7
		c-0.5,0.7-1.1,1.4-1.6,2.1c1.5,1.9,3.1,3.8,4.9,5.6c1.2-0.6,2.5-1.3,3.8-1.9c-0.5,1-0.9,2.1-1.4,3.1c0.4,1.1,0.8,2.2,1.1,3.3
		c-0.5,0.9-0.9,1.8-1.2,2.7c-2.3,0.9-4.6,1.6-7.1,1.5c-4.5-2.5-8.6-6.1-11.1-10.6c-2.3-4.4-0.9-9.5-0.6-14.1
		C65.8,139.4,66.2,139.9,66.6,140.4z"/>
</g>
<g id="_x23_fda565ff">
	<path class="st121" d="M175.9,138.8c3.3,7.5,2.5,16.1,1.8,24.1c-1,4.9,0.1,10-1,14.9c1.9,0.1,3.8,0.1,5.7-0.1
		c-0.4,0.8-0.7,1.5-1,2.3c0.3,0.3,0.9,1.1,1.2,1.4l-0.1,0.2c-0.3,0.4-0.8,1.2-1.1,1.5c-3,4.2-5.6,8.7-8.8,12.7
		c-0.1,0.2-0.5,0.5-0.6,0.7l-0.3,0c-0.4,0-1.1,0.1-1.5,0.1c-0.8,0.9-1.5,1.8-2.2,2.8c-3.8,3.3-8.4,6.1-13.5,6.3
		c-0.2-0.3-0.5-1-0.7-1.3c0.3-2,0.6-4,0.9-6c2.1-2,4.4-3.7,6.7-5.4c7.8-7,13.8-16.5,14.9-27.1C177.7,157,176,147.9,175.9,138.8z"/>
</g>
<g id="_x23_9c1303ff">
	<path class="st122" d="M143.1,140.5c1.7,0.1,3.4,0.2,5.2,0.4c3.8,0.9,7.9,1.9,10.6,5c1.9,2.6,2.4,5.9,3.4,8.8
		c0.6,1.4-0.4,2.8-0.7,4.1c0,0.8,0.1,2.2,0.1,3c-0.5-2.2-0.8-4.5-1-6.7l0.1-0.6c-0.1-0.3-0.2-1.1-0.3-1.4c-3.4,0.3-6.7,1.2-9.7,2.8
		c-2.1,2.3-3.3,5.4-4.7,8.2l-0.5,1.2c0-2.2-0.1-4.5-0.1-6.7c-0.3,0.1-1,0.2-1.3,0.3l0.3-1.6c-4.1,1.2-8.3,2.1-12.4,3.2
		c-3.1,0.8-5.5,3.1-8.4,4.5c-2.7-0.3-5.3-0.7-8-0.9c2.3-0.1,4.7,0,6.9-0.5c3-1.3,5.4-3.6,8.5-4.6c3.9-1.2,7.8-1.8,11.8-2.7
		c2.7-0.6,5.3-1.3,7.9-2c3.4-1,6.9-1.9,10.4-2.7c-1.2-2.5-1.9-5.5-4.4-7c-3.3-2.3-7.3-3-11.2-3.6C144.8,140.8,144,140.6,143.1,140.5
		z"/>
</g>
<g id="_x23_fda05dff">
	<path class="st123" d="M145.7,140.9c3.9,0.6,7.9,1.3,11.2,3.6c2.5,1.5,3.2,4.5,4.4,7c-3.5,0.8-6.9,1.7-10.4,2.7
		C147.6,150.6,145.4,145.8,145.7,140.9z"/>
</g>
<g id="_x23_fe9d58ff">
	<path class="st124" d="M127.1,145.2c0.9,0.7,1.8,1.4,2.7,2.1l0.5,0.4c-5.6,2.3-10.6,7.2-17.1,6.2c-3.2-1.3-6.3-2.7-9.5-3.8
		c-2.7,4.5-5.5,8.9-8.7,13c0.7,0.7,1.3,1.5,2,2.2c-3.7,0.4-7.3,0.7-11,0.6c0.6-2.4,1.1-5,2.6-7c1.6-2.4,3.8-4.6,3.8-7.7
		c1.5-1.5,3-3.1,4.4-4.7c1.2,0.8,2.3,1.5,3.5,2.3c1.1-0.4,2.3-0.7,3.4-1.1c4.2,2.4,8.8,5.8,14,4.2
		C121.8,151.3,124.5,148.1,127.1,145.2z"/>
</g>
<g id="_x23_fdb87fff">
	<path class="st125" d="M130.3,147.8c2.7,0.1,5.6,0.5,7.9,2c1.5,2.2,2.3,5,4.7,6.4c-3.9,0.9-7.9,1.5-11.8,2.7
		c-3.1,1-5.6,3.3-8.5,4.6c-2.3,0.5-4.6,0.4-6.9,0.5c-3,0-6,0.4-8.9,0.7c-0.9-1.4-2.6-2.7-2.2-4.5c1.5-3.5,4.4-7,8.7-6.3
		C119.7,155,124.8,150.1,130.3,147.8z"/>
</g>
<g id="_x23_60070bff">
	<path class="st126" d="M1.5,149.1c0.1,0.3,0.4,0.9,0.5,1.2c0.8,0,2.3,0.1,3.1,0.1c2,0,4,0,6.1,0c15.5,0,30.9-0.6,46.4,0.1l0.7,0.2
		c-10.7,0.3-21.5,0.5-32.2,0c-6.9,0-14.3-1.1-20.6,2.4C5,158.5,8,163.1,12,166.3c-2,0-3.9,0-5.9,0C4.2,160.7,2.6,155,1.5,149.1z"/>
</g>
<g id="_x23_db0107ff">
	<path class="st127" d="M57.5,150.5c0.7,0,2,0,2.6,0.1c0,5,2,9.6,4.7,13.7c-7.8,2.2-15.9,0.9-23.8,0.6c-8.1-0.5-16.4,0.6-24.3-1.5
		c-1.5-3.5-2.7-7.2-3.4-10.9c15.6-1.1,31.2-0.8,46.9-1c-0.5-0.2-1.5-0.6-2-0.7L57.5,150.5z"/>
</g>
<g id="_x23_fea969ff">
	<path class="st128" d="M95,163.1c3.2-4.1,6.1-8.5,8.7-13c3.2,1.2,6.3,2.5,9.5,3.8c-4.3-0.7-7.2,2.8-8.7,6.3
		c-0.4,1.8,1.3,3.2,2.2,4.5c-1.5,0.1-3,0.2-4.5,0.3c-1.8,0.1-3.5,0.1-5.3,0.2C96.4,164.6,95.7,163.8,95,163.1z"/>
</g>
<g id="_x23_a00101ff">
	<path class="st129" d="M5.4,153.2c6.3-3.6,13.7-2.4,20.6-2.4c10.7,0.5,21.5,0.3,32.2,0c0.5,0.2,1.5,0.6,2,0.7
		c-15.6,0.2-31.3-0.1-46.9,1c0.8,3.8,1.9,7.4,3.4,10.9c7.9,2.1,16.2,0.9,24.3,1.5c7.9,0.2,16.1,1.6,23.8-0.6c0.3,0.7,0.6,1.3,0.8,2
		c-16-0.1-31.9,0.2-47.8,0c-2,0-3.9,0-5.8,0.1C8,163.1,5,158.5,5.4,153.2z"/>
</g>
<g id="_x23_dd0108ff">
	<path class="st130" d="M188.5,154.8c3.4,0.3,6.6-1,8.8-3.7c7,1.1,14.2,0.1,21.2,1.1c3.9,1,8,0.9,12,1.3c1.9,2.2-0.1,5.4-0.3,7.9
		c-7,2.2-14.4,2-21.6,3.3c-6.7,0.3-13.4,0.6-20,0.2C188.6,161.5,188.5,158.2,188.5,154.8z"/>
</g>
<g id="_x23_a00204ff">
	<path class="st131" d="M197.3,151.1c14.7-1.2,29.5-0.1,44.2-0.6l1,0c1,0.8,2,1.5,3,2.3c-0.9,4.9-2,10-5.6,13.7
		c-17.2-0.5-34.3-0.7-51.5-0.6l0.1-0.9c6.7,0.5,13.4,0.1,20-0.2c7.2,0.8,14.5,0.7,21.6-0.4c4.8-1,5.4-6.8,6.6-10.7
		c-5.6-3-12.2-1.8-18.2-1.4C211.5,151.2,204.3,152.2,197.3,151.1z"/>
</g>
<g id="_x23_600305ff">
	<path class="st132" d="M242.5,150.5c1.9,0,3.8,0,5.8,0c-0.9,4.1-2,8.1-3.1,12.1c-0.6,1.3-1.2,2.6-1.8,3.9c-0.9,0-2.6-0.1-3.5-0.1
		c3.6-3.6,4.8-8.8,5.6-13.7C244.5,152,243.5,151.2,242.5,150.5z"/>
	<path class="st132" d="M98.2,167.4c0.3-0.2,1-0.6,1.4-0.8c0.5,0.2,1.5,0.7,2,0.9c0.2,0.4,0.7,1.2,0.9,1.6c-0.5,0.4-1.6,1.3-2.1,1.7
		c-0.5-0.5-1-1.1-1.5-1.6C98.7,168.8,98.3,167.9,98.2,167.4z"/>
	<path class="st132" d="M12.9,181.5c0.9,0,2.7,0,3.6,0c-0.7,4.1,3.3,6.4,4.4,9.9c1.1,3.4,4.9,4.3,7.7,6.1c-2.2-0.1-4.4-0.2-6.5-0.3
		c-2.8-4.3-5.7-8.6-8.1-13.1C13.7,183.4,13.2,182.1,12.9,181.5z"/>
	<path class="st132" d="M35.4,212.9c0.7-0.1,2.2-0.2,2.9-0.2c0.3,0,1-0.1,1.3-0.1c0.5,0,1.5,0.1,2,0.1c-1.5,5.6,6.6,6.6,7,11.7
		C43.9,220.8,39.6,216.9,35.4,212.9z"/>
	<path class="st132" d="M106.4,248.7c0.7-1.5,1.7-2.7,3.5-2.4c9.3,0,18.7,0.1,28-0.1c2.3,0.2,5.7-0.8,6.5,2.3
		c-4.5,0.8-9.2,1.1-13.8,1.4h-11.3C115,249.7,110.7,249.5,106.4,248.7z"/>
</g>
<g id="_x23_eb8852ff">
	<path class="st133" d="M85.4,159.3c2-3,4.4-5.7,7-8.2c0,3.1-2.2,5.3-3.8,7.7c-1.4,2.1-2,4.6-2.6,7c3.7,0.1,7.4-0.2,11-0.6
		c1.8-0.1,3.5-0.2,5.3-0.2c-0.9,0.5-1.9,1-2.8,1.6c-0.4,0.2-1.1,0.6-1.4,0.8c0.2,0.4,0.6,1.3,0.8,1.8c-3.3-0.5-6.6-1.4-9.9-1.4
		c-1.5,0.1-1.9,1.8-1.6,3c0.4,3.6,0.9,7.2,0.2,10.7c-1.6-6.4-3.6-12.9-3.4-19.6C84.5,161.1,85,160.2,85.4,159.3z"/>
</g>
<g id="_x23_c60107ff">
	<path class="st134" d="M218.5,152.2c6-0.4,12.6-1.6,18.2,1.4c-1.2,3.9-1.8,9.7-6.6,10.7c-7.1,1.1-14.4,1.2-21.6,0.4
		c7.2-1.3,14.6-1.2,21.6-3.3c0.2-2.5,2.3-5.7,0.3-7.9C226.5,153.1,222.5,153.3,218.5,152.2z"/>
</g>
<g id="_x23_ffa96aff">
	<path class="st135" d="M150.8,155.9c3-1.5,6.3-2.4,9.7-2.8c0.1,0.4,0.2,1.1,0.3,1.4l-0.1,0.6c0.2,2.3,0.5,4.5,1,6.7
		c0.4,4.6-0.6,9.6-3.4,13.4c-2.9,2.1-4.6-1.2-6-3.3c-0.6,1.2-1.2,2.4-1.8,3.6c-0.9-2.6-2.2-5.1-3.9-7.3c-0.1-1.4-0.2-2.9-0.4-4.3
		C147.6,161.3,148.7,158.2,150.8,155.9z"/>
</g>
<g id="_x23_3c5a2bff">
	<path class="st136" d="M144.2,158.8c0.3-0.1,1-0.2,1.3-0.3c0,2.2,0.1,4.5,0.1,6.7c0.2,16.2,3.7,32.2,5,48.4
		c-3.4-7.3-2.6-15.8-3.8-23.6c-1.6-9.1-2-18.3-3.3-27.5C143.7,161.3,144,160,144.2,158.8z"/>
</g>
<g id="_x23_fabb84ff">
	<path class="st137" d="M77.1,163.5c2.5,0.1,4.8-0.6,7.1-1.5c-0.2,6.7,1.8,13.1,3.4,19.6c0.2,0.9,0.5,1.8,0.7,2.6
		c0.5-1.4,1-2.7,1.6-4.1c3.8-2.8,7.7-6.1,9-10.9c0.5,0.5,1,1.1,1.5,1.6c-3.5,8.5-6.6,17.1-10.4,25.5l-1.3-1c-2.5-4.6-4.5-9.4-6-14.4
		C81,175.1,78.4,169.5,77.1,163.5z"/>
</g>
<g id="_x23_036731ff">
	<path class="st138" d="M132.9,167.4c3.7-1.3,7.1-3.2,10.6-4.9c1.4,9.1,1.7,18.4,3.3,27.5c1.2,7.9,0.3,16.3,3.8,23.6
		c0.2,0.7,0.4,1.4,0.6,2.1c0.3,4.3,0.5,8.5,1.2,12.8c0.2,1.5,0.4,3.1,0.6,4.6c0.1,1.3,0.3,2.6,0.4,3.9c0.1,1.4,0.2,2.8,0.2,4.3
		c-0.2,0.8-0.5,1.6-0.7,2.4c-15.6,0.9-31.3,1.4-47,0.7c-5.6-0.5-11.5-1.5-17,0.4c-2.3-0.8-4.7-1.6-7-2.3c1.4-3.1,2.6-6.4,2.9-9.8
		c-0.3-0.1-1-0.3-1.4-0.4c-2.7-0.8-5.5-1.4-8.2-2.2c-0.2-3.7,2-6.7,3.4-9.8c1.5-2.1,2.5-4.5,3.4-6.9l0.4-0.9l0.2-0.4
		c0.6,3,0.8,6.3,2.2,9c0.9,1.7,2.8,1.1,4.2,0.6c2.6-7.1,4.6-14.4,6.7-21.6c0.7,0.3,1.5,0.5,2.2,0.8c0.3,4.4-2.5,8.4-1.6,12.8
		c-1.3,5.3-3.3,10.4-4.8,15.7c2.6,1.1,5.3,1.9,7.5,3.7c1.7,1.8,2.6,4.1,4.1,6.1c9.3,0.8,18.6,0.6,27.9,0.4
		c3.4-5.5,8.9-9.3,15.3-10.4c-0.8-9.7-1.9-19.4-3.3-29.1c-0.4-4-1-8.1-1.4-12.1c-0.6-6.3-1.2-12.7-1.5-19
		C137.9,167.9,135.4,167.3,132.9,167.4z"/>
</g>
<g id="_x23_edb0b3ff">
	<path class="st139" d="M243.4,166.5c0.6-1.3,1.2-2.6,1.8-3.9c-0.5,1.8-1,3.6-1.7,5.3l-0.5-1c-0.8-0.1-2.4-0.3-3.3-0.4
		c-2.9,0.1-5.7,0.8-8.5,1.2c-3.8,0.1-7.5,0-11.3,0c-2.9,0-5.9,0-8.8-0.1c-7.1,0-14.2-0.6-21.2,0.1c-0.8,4.1-2.3,8-4.6,11.6
		c6.2,2.4,12.9,0.9,19.3,0.9c2.7,0,5.4-0.1,8.1-0.4c4.2,0.2,8.4,0.4,12.6,0.1c0.5,0.4,1.6,1.3,2.1,1.7c-15.1,0.1-30.1,0.2-45.1,0.1
		l0.1-0.2c2.6-4.7,5.3-9.5,5.8-14.9c0-0.2,0.1-0.5,0.1-0.7c17.2-0.1,34.3,0.1,51.5,0.6C240.8,166.4,242.5,166.5,243.4,166.5z"/>
</g>
<g id="_x23_b05a45ff">
	<path class="st140" d="M106.8,164.7c3-0.3,5.9-0.7,8.9-0.7c2.7,0.2,5.3,0.6,8,0.9c-7.2,1.9-14.9,0.7-22.1,2.6
		c-0.5-0.2-1.5-0.7-2-0.9c0.9-0.5,1.8-1,2.8-1.6C103.8,165,105.3,164.9,106.8,164.7z"/>
</g>
<g id="_x23_c49a6cff">
	<path class="st141" d="M145.6,165.2l0.5-1.2c0.1,1.4,0.2,2.9,0.4,4.3c0.2,10.9,3.8,21.4,5.8,32.1c0.5-0.5,1.6-1.5,2.1-2
		c-0.3,2-0.6,4-0.9,6l-0.4-0.8c-0.2-0.5-0.7-1.5-0.9-2c-1.6,4.5-1.2,9.5,1.4,13.6c-0.6,0.1-1.8,0.3-2.4,0.5
		c-0.2-0.7-0.4-1.4-0.6-2.1C149.4,197.5,145.8,181.5,145.6,165.2z"/>
</g>
<g id="_x23_a39da4ff">
	<path class="st142" d="M6.1,166.4c2,0,3.9,0,5.9,0c1.9,0,3.9-0.1,5.8-0.1c0.2,0.4,0.5,1.2,0.7,1.5c1.8,4.3,3.6,8.7,5.9,12.8
		c-0.9,0.3-1.8,0.6-2.7,0.9c-1.8,0.1-3.5,0.1-5.3,0.1c-0.9,0-2.7,0-3.6,0c0.3,0.7,0.8,1.9,1.1,2.6c-0.5-0.9-1-1.8-1.4-2.7
		c1.2-0.3,2.4-0.6,3.7-0.9c-1.9-4.2-3.2-8.6-5.2-12.8c-1.3-0.6-2.8-0.9-4.2-1.3c0.1,0.6,0.2,1.9,0.2,2.5
		C6.7,168.1,6.4,167.2,6.1,166.4z"/>
</g>
<g id="_x23_ffd3d2ff">
	<path class="st143" d="M17.9,166.2c15.9,0.1,31.9-0.2,47.8,0c1.8,4.7,3.4,10,7.8,13c2.4,0.7,4.8,1,7.2,1.4
		c-0.1,0.3-0.4,0.9-0.5,1.1c-17.7-0.3-35.5,0-53.2-0.2c-1.7,0-3.5-0.1-5.2-0.1c0.9-0.3,1.8-0.6,2.7-0.9c6.1-0.2,12.2-0.6,18.4-0.8
		c7-0.1,14.1,0,21.1-0.1c1.9,0.1,3.6-0.6,5.3-1.4c-1.8-3.4-2.9-7.3-5.7-9.9c-8.3-1.4-16.8,0-25.2-0.3c-6.6-0.3-13.2-0.8-19.8-0.2
		C18.4,167.4,18,166.6,17.9,166.2z"/>
</g>
<g id="_x23_7e7c7fff">
	<path class="st144" d="M6.8,166.5c1.4,0.4,2.9,0.7,4.2,1.3c1.9,4.2,3.3,8.6,5.2,12.8c-1.2,0.3-2.5,0.6-3.7,0.9
		c-2-4.1-3.9-8.2-5.5-12.4C7,168.4,6.9,167.1,6.8,166.5z"/>
</g>
<g id="_x23_e08f6eff">
	<path class="st145" d="M182.3,177.7c2.2-3.6,3.3-7.9,6-11.2c-0.5,5.4-3.2,10.3-5.8,14.9c-0.3-0.4-0.9-1.1-1.2-1.4
		C181.6,179.2,181.9,178.5,182.3,177.7z"/>
</g>
<g id="_x23_a2a0a9ff">
	<path class="st146" d="M231.3,167.6c2.8-0.4,5.6-1,8.5-1.2c-2.6,4.9-4.7,10-6.8,15.1c-1.8,0-3.7,0-5.5,0c-0.5-0.4-1.6-1.3-2.1-1.7
		C228,176.1,229.8,171.9,231.3,167.6z"/>
</g>
<g id="_x23_7e7e80ff">
	<path class="st147" d="M239.8,166.5c0.8,0.1,2.4,0.3,3.3,0.4l0.5,1c-1.9,4.5-3.7,9-6.1,13.3c-1.5,0.2-3,0.3-4.5,0.3
		C235.1,176.5,237.2,171.4,239.8,166.5z"/>
</g>
<g id="_x23_c7c9cbff">
	<path class="st148" d="M18.6,167.8c6.6-0.6,13.2-0.1,19.8,0.2c1.7,3.9,0.6,9,4.5,11.8c-6.1,0.1-12.2,0.6-18.4,0.8
		C22.2,176.5,20.4,172.1,18.6,167.8z"/>
</g>
<g id="_x23_dadadbff">
	<path class="st149" d="M38.4,168c8.4,0.4,16.9-1,25.2,0.3c2.9,2.6,3.9,6.6,5.7,9.9c-1.7,0.8-3.4,1.5-5.3,1.4
		c-7,0.1-14.1,0-21.1,0.1C39,177,40.1,171.9,38.4,168z"/>
</g>
<g id="_x23_fdaa6bff">
	<path class="st150" d="M87.3,170.8c-0.3-1.2,0.1-2.9,1.6-3c3.4-0.1,6.6,0.9,9.9,1.4c-1.3,4.8-5.2,8.1-9,10.9
		c-0.5,1.4-1.1,2.7-1.6,4.1c-0.2-0.9-0.5-1.8-0.7-2.6C88.2,178,87.8,174.4,87.3,170.8z"/>
</g>
<g id="_x23_68c630ff">
	<path class="st151" d="M124.3,170.1c2.9-0.8,5.7-1.8,8.5-2.7c2.5,0,5,0.6,7.4,1.3c0.2,6.4,0.9,12.7,1.5,19c-0.5,0.5-1.5,1.6-2,2.1
		c-1.8-1.6-3.8-3-6.1-3.7c-3.3-1.3-6.7-2.4-10.2-2.4c-0.2,0-0.6,0-0.8,0c-6.9,0.3-13.2,4.2-17.3,9.7c-0.4,0.1-1.3,0.2-1.7,0.2
		c0.2-2,0.2-4.1,0.2-6.1c0.8-5.1,1.7-10.2,3.1-15.1c4.3,0,8.5-0.1,12.8-0.2c-0.4,1.4-0.8,2.8-1.2,4.2c1.9,1,4.5,1.9,6.3,0.1
		C126.9,174.9,125.2,172.1,124.3,170.1z"/>
</g>
<g id="_x23_d8dadbff">
	<path class="st152" d="M190,167.7c7-0.7,14.1-0.1,21.2-0.1c-2.9,3-3.7,6.9-2.9,10.9c-1.2,0.6-2.4,1.1-3.6,1.7
		c-6.4,0-13.2,1.4-19.3-0.9C187.7,175.7,189.2,171.8,190,167.7z"/>
</g>
<g id="_x23_ced0d1ff">
	<path class="st153" d="M211.2,167.6c2.9,0.1,5.9,0.1,8.8,0.1c-2.1,3-2.6,6.6-3,10.2c0.1,0.2,0.4,0.6,0.5,0.8
		c-1.6,0.4-3.1,0.8-4.7,1.1c-2.7,0.3-5.4,0.4-8.1,0.4c1.2-0.5,2.4-1.1,3.6-1.7C207.5,174.5,208.3,170.5,211.2,167.6z"/>
</g>
<g id="_x23_c5c5c6ff">
	<path class="st154" d="M220,167.6c3.8,0,7.5,0.1,11.3,0c-1.5,4.3-3.3,8.5-5.9,12.2c-4.2,0.3-8.4,0.1-12.6-0.1
		c1.6-0.4,3.1-0.8,4.7-1.1c-0.1-0.2-0.4-0.6-0.5-0.8C217.4,174.3,217.9,170.6,220,167.6z"/>
</g>
<g id="_x23_06682eff">
	<path class="st155" d="M100.4,170.8c0.5-0.4,1.6-1.3,2.1-1.7c0.3,0.6,0.9,1.7,1.2,2.2c0.9,0.1,2.6,0.2,3.5,0.3l-0.3,0.9
		c-1.4,4.9-2.2,10.1-3.1,15.1c-1.7,6.1-3.2,12.1-4.8,18.2c-0.8,2.6-1.7,5.2-2.5,7.8c-0.9-4.4,1.9-8.4,1.6-12.8
		c-0.7-0.3-1.4-0.5-2.2-0.8c0.9-3.1,1.8-6.3,1.9-9.6c-4.9,9.1-8.5,18.8-13.4,27.9c1.6,1.1,3.2,2.2,4.8,3.3c-1.4,0.5-3.3,1.1-4.2-0.6
		c-1.5-2.8-1.6-6-2.2-9c1.9-4.1,3.9-8.2,5.8-12.3c0.5-1.1,1-2.2,1.5-3.4C93.8,187.9,96.9,179.3,100.4,170.8z"/>
</g>
<g id="_x23_066931ff">
	<path class="st156" d="M107.1,171.5c5.8,0.2,11.7,0.3,17.2-1.4c0.8,2,2.6,4.8,0.3,6.4c-1.8,1.8-4.4,0.9-6.3-0.1
		c0.4-1.4,0.8-2.8,1.2-4.2c-4.3,0.2-8.5,0.2-12.8,0.2L107.1,171.5z"/>
</g>
<g id="_x23_a70103ff">
	<path class="st157" d="M182.3,181.7c15,0.1,30.1,0,45.1-0.1c1.8,0,3.7,0,5.5,0c1.5-0.1,3-0.1,4.5-0.3c-0.5,0.9-1,1.9-1.5,2.8
		c0.2-0.5,0.6-1.6,0.8-2.2c-4.4,0-8.8,0.1-13.1,0.9c-9,1.2-18.2-0.4-27.2,0.4c-5.1-0.8-10.2,0.1-15.2,0.1
		C181.5,182.9,182,182.1,182.3,181.7z"/>
	<path class="st157" d="M46.8,215.1c7-1.6,14.4-1.8,21.5-1c-3.8,0.4-7.6,0.7-11.4,1c0.9,5.6,7.4,5.6,11.4,7.9
		c-0.2,0.6-0.4,1.1-0.7,1.7c2.4-0.2,4.6,0.6,6.7,1.5c-5.8,1.9-11.9,0.2-17.6-1.2c-2.7-0.5-3.7-3.6-6-4.9
		C48.8,219.1,47.6,217.2,46.8,215.1z"/>
</g>
<g id="_x23_980203ff">
	<path class="st158" d="M16.5,181.5c1.8,0,3.5,0,5.3-0.1c1.7,0,3.5,0,5.2,0.1c-2.5,3.9,1,7.5,2.5,11c1.7,3.8,6.3,3.3,9.7,3.7l0,1.3
		c-3.5,0.1-7,0.1-10.6,0.1c-2.7-1.8-6.5-2.7-7.7-6.1C19.8,187.9,15.8,185.6,16.5,181.5z"/>
</g>
<g id="_x23_b90202ff">
	<path class="st159" d="M27,181.5c17.7,0.2,35.5-0.1,53.2,0.2c0.5,0.2,1.5,0.7,2,0.9c-0.8,0.1-2.3,0.2-3,0.3
		c-4.9,0.5-9.8,0.3-14.7,0.3c-11.8-0.1-23.7-0.4-35.4,1.3c0.9,3.9,3.8,7,6.9,9.3c3,1.3,6.3,1,9.5,1.5c-2.1,0.4-4.2,0.7-6.2,0.8
		c-3.4-0.4-8,0.1-9.7-3.7C27.9,189,24.5,185.4,27,181.5z"/>
</g>
<g id="_x23_75070bff">
	<path class="st160" d="M223.7,182.7c4.3-0.8,8.7-0.9,13.1-0.9c-0.2,0.5-0.6,1.6-0.8,2.2c-2.4,4.6-5.2,9.1-8.2,13.3
		c-5.2,0.4-10.5-0.3-15.7-0.4c-13.4-0.3-26.8,0.2-40.3-0.3c0.1-0.2,0.5-0.5,0.6-0.7c9.8,1.1,19.6,0.2,29.5,0.5
		c4.7,0,9.4-0.1,14.1-0.4c3.2-0.4,7.2,0.3,9.6-2.3c1.8-2.8,3.4-5.8,4.2-9.1c-0.8-1.8-3.1-1.4-4.6-1.8L223.7,182.7z"/>
</g>
<g id="_x23_d10106ff">
	<path class="st161" d="M29.1,184.6c11.7-1.7,23.6-1.4,35.4-1.3c-5,3.6-11.5,1-16.9,3.6c3.1,1.1,6.5,1.5,9.8,1.7
		c0.2,0.4,0.5,1.2,0.6,1.6c-0.9,0.3-1.8,0.6-2.7,0.9c0.5,0.9,0.9,1.8,1.4,2.6c2.6,0.3,5.2,0.7,7.8,1.3c-6.3,0.6-12.7,0-19,0.4
		c-3.1-0.4-6.5-0.2-9.5-1.5C32.9,191.5,30,188.4,29.1,184.6z"/>
</g>
<g id="_x23_e10109ff">
	<path class="st162" d="M64.5,183.2c4.9,0,9.8,0.2,14.7-0.3c3.4,3.2,4.5,7.9,5.7,12.2c-6.8,0.4-13.6,0.3-20.4-0.2
		c-2.6-0.6-5.2-1-7.8-1.3c-0.5-0.9-0.9-1.8-1.4-2.6c0.9-0.3,1.8-0.6,2.7-0.9c-0.2-0.4-0.5-1.2-0.6-1.6c-3.3-0.2-6.6-0.6-9.8-1.7
		C53,184.2,59.5,186.8,64.5,183.2z"/>
</g>
<g id="_x23_be1214ff">
	<path class="st163" d="M79.2,183c0.8-0.1,2.3-0.2,3-0.3c1.5,4.9,3.3,9.7,5.7,14.3l-0.3,0.6c-16.1-0.2-32.3,0-48.4-0.1l0-1.3
		c2.1-0.1,4.2-0.4,6.2-0.8c6.3-0.4,12.7,0.2,19-0.4c6.8,0.6,13.6,0.6,20.4,0.2C83.7,190.9,82.6,186.2,79.2,183z"/>
</g>
<g id="_x23_dc010aff">
	<path class="st164" d="M172.4,195.9c3.2-4,5.9-8.4,8.8-12.7c5.1,0,10.2-0.8,15.2-0.1c3.8,1.8,8,2.4,12,3.6c-2.8,2-6,3.8-8.2,6.6
		c-0.2,1.1,1.2,2.1,1.5,3.1C192,196.1,182.2,197,172.4,195.9z"/>
</g>
<g id="_x23_ca0204ff">
	<path class="st165" d="M196.5,183.1c9.1-0.8,18.2,0.7,27.2-0.4l1.4,0c0.1,0.5,0.4,1.6,0.5,2.2c-3.6,3.4-4.8,9.2-9.7,11.1
		c-4.7,0.3-9.4,0.4-14.1,0.4c-0.4-1.1-1.8-2-1.5-3.1c2.2-2.8,5.3-4.5,8.2-6.6C204.5,185.5,200.3,185,196.5,183.1z"/>
</g>
<g id="_x23_9f0100ff">
	<path class="st166" d="M225.1,182.8c1.6,0.4,3.9,0,4.6,1.8c-0.8,3.2-2.4,6.3-4.2,9.1c-2.4,2.7-6.4,1.9-9.6,2.3
		c4.9-1.8,6.2-7.7,9.7-11.1C225.5,184.4,225.2,183.3,225.1,182.8z"/>
</g>
<g id="_x23_056921ff">
	<path class="st167" d="M105.2,193.4c4.1-5.4,10.4-9.4,17.3-9.7c-3.1,2-6.7,3.2-9.9,5c-3,2.3-5.6,5.2-7.9,8.2
		c1.2-0.1,2.4-0.2,3.7-0.3c1.6-2.1,3.1-4.5,5.6-5.6c2.8-1.4,6-0.2,8.9-0.5c1.8,0.1,3.7-0.5,5.5-0.1c3.2,2,6,4.4,9.1,6.4
		c-0.4,0.5-1.3,1.4-1.8,1.9c-0.2-0.6-0.7-1.9-0.9-2.5c-1.1-0.2-2.2-0.4-3.4-0.5c-1.1-1.4-1.9-3.2-3.6-3.9c-2.7-0.6-6,0.3-7.3,2.9
		c-1.7,3.2-2.4,7.2-5.8,9.2c-0.7-1-1.4-1.9-2-3c-0.3-3.1,2.4-5.1,4.5-6.9c-0.3-0.7-1-2.1-1.3-2.7c-2.6,1.6-4.8,3.9-6.3,6.5
		c-0.8,0.1-2.3,0.4-3,0.5c-0.1,0.8-0.4,2.4-0.5,3.2c0.7,0,2.2,0.1,3,0.1c0.9,1.9,1.5,4.6,4,5.2c3.2,0.6,7.2-0.8,8.3-4.1
		c1.6-2.9,1.6-8.1,6.1-7.4c0.6,3.2-0.8,6.1-2.4,8.7c-0.4-0.1-1.2-0.2-1.6-0.3c-1.8,2-3.7,3.8-5.6,5.6c-2.2-0.5-4.4-0.8-6.5-1.8
		c-3.2-2-5.3-5.3-7.6-8.2c-1.2,4.6,1.3,10.2,6,11.7c3.6,1.4,7.4,3.3,11.3,2.3c5.6-1.2,10.6-4.4,14.8-8.2c4.2-3.6,2.7-10.2-0.1-14.2
		c-3-4.4-8.8-4.1-12.7-7.2c3.6-0.1,7,1.1,10.2,2.4c2.7,2.5,5.6,5.2,6.5,8.9c1.4,4.7-0.9,9.6-4.2,12.9c-6.1,5.9-15.2,8-23.4,6.4
		c-4.6-1.2-9.3-4.4-10.3-9.3C101.2,200.8,103.1,196.8,105.2,193.4z"/>
</g>
<g id="_x23_016636ff">
	<path class="st168" d="M122.6,183.7c0.2,0,0.6,0,0.8,0c3.9,3.1,9.7,2.8,12.7,7.2c2.8,4,4.2,10.6,0.1,14.2c-4.2,3.8-9.2,7-14.8,8.2
		c-3.9,0.9-7.8-0.9-11.3-2.3c-4.8-1.5-7.2-7.1-6-11.7c2.3,2.9,4.4,6.2,7.6,8.2c2.1,0.9,4.3,1.2,6.5,1.8c1.9-1.8,3.8-3.6,5.6-5.6
		c0.4,0.1,1.2,0.2,1.6,0.3c0.1,0.5,0.4,1.6,0.5,2.1c2.8-1,4.8-3.2,6.2-5.8c1.3-0.5,2.6-0.9,3.9-1.4c0.4-0.5,1.3-1.4,1.8-1.9
		c-3.1-2-6-4.5-9.1-6.4c-1.8-0.5-3.7,0.1-5.5,0.1c-3,0.2-6.1-0.9-8.9,0.5c-2.5,1.1-4,3.6-5.6,5.6c-1.2,0.1-2.5,0.2-3.7,0.3
		c2.3-3,4.9-5.9,7.9-8.2C115.9,186.9,119.4,185.7,122.6,183.7z"/>
</g>
<g id="_x23_60c84dff">
	<path class="st169" d="M133.6,186c2.3,0.7,4.3,2.2,6.1,3.7c0.5-0.5,1.5-1.6,2-2.1c0.4,4.1,0.9,8.1,1.4,12.1
		c-0.1,0.8-0.2,2.3-0.3,3.1c-0.5-0.5-1-1-1.5-1.5c-1.7,6.4-7.1,11.7-13.6,13.2c-5.5,2-11.5,2.2-17.2,1.6c-4.8-1.9-7.7-6.5-10.1-10.8
		c-0.4,0.1-1.1,0.3-1.5,0.3c1.7-6,3.2-12.1,4.8-18.2c0,2-0.1,4.1-0.2,6.1c0.4-0.1,1.3-0.2,1.7-0.2c-2.1,3.4-4,7.4-3.1,11.6
		c1.1,4.9,5.7,8.2,10.3,9.3c8.2,1.6,17.3-0.5,23.4-6.4c3.3-3.2,5.6-8.2,4.2-12.9C139.2,191.3,136.3,188.5,133.6,186z"/>
</g>
<g id="_x23_67c438ff">
	<path class="st170" d="M84.3,218.3c4.9-9.1,8.4-18.9,13.4-27.9c-0.1,3.3-0.9,6.5-1.9,9.6c-2.1,7.2-4.1,14.5-6.7,21.6
		C87.5,220.4,85.9,219.4,84.3,218.3z"/>
</g>
<g id="_x23_61c73eff">
	<path class="st171" d="M109.8,197.8c1.6-2.7,3.7-4.9,6.3-6.5c0.3,0.7,1,2.1,1.3,2.7c-2.1,1.8-4.8,3.8-4.5,6.9c0.6,1,1.3,2,2,3
		c3.4-2,4.1-6,5.8-9.2c1.2-2.6,4.6-3.5,7.3-2.9c1.7,0.7,2.5,2.6,3.6,3.9c1.1,0.2,2.2,0.4,3.4,0.5c0.2,0.6,0.7,1.9,0.9,2.5
		c-1.3,0.5-2.6,1-3.9,1.4c-1.4,2.6-3.4,4.8-6.2,5.8c-0.1-0.5-0.4-1.6-0.5-2.1c1.6-2.7,3-5.5,2.4-8.7c-4.5-0.7-4.5,4.5-6.1,7.4
		c-1.2,3.3-5.1,4.8-8.3,4.1c-2.5-0.5-3-3.2-4-5.2c-0.7,0-2.2,0-3-0.1c0.1-0.8,0.4-2.4,0.5-3.2C107.5,198.2,109,197.9,109.8,197.8z"
		/>
</g>
<g id="_x23_e8c3c1ff">
	<path class="st172" d="M87.9,196.9l0.9-1.6l1.3,1c-0.5,1.1-1,2.2-1.5,3.4c-6.8-0.6-13.6-0.4-20.4-0.4c-10.5-0.3-21.2,0.6-31.6-1.2
		c6.5-0.8,13-0.3,19.5-0.1c8.3,0.3,16.7,0.2,25,0.4c2.2,0,4.5,0.1,6.5-0.8L87.9,196.9z"/>
</g>
<g id="_x23_e08e6eff">
	<path class="st173" d="M170,196.7c0.4,0,1.1-0.1,1.5-0.1l-0.5,1.1c-2.3,5.1-4.5,10.7-9.4,13.9c-0.3,0.2-0.9,0.6-1.2,0.8
		c0-0.4,0.1-1.2,0.1-1.7c1.3-1.5,2.8-2.8,4.2-4.3c1.4-2.1,2.2-4.6,3.1-7C168.5,198.5,169.2,197.6,170,196.7z"/>
</g>
<g id="_x23_dd8083ff">
	<path class="st174" d="M171.5,196.6l0.3,0c13.4,0.5,26.8,0.1,40.3,0.3c5.2,0.1,10.5,0.8,15.7,0.4c-0.1,0.2-0.4,0.5-0.6,0.7
		c-0.8,0-2.4,0.1-3.3,0.1c-2.2,0.1-4.4,0.1-6.7,0.2c-1.6,0-3.2,0.1-4.8,0.1c-13.8-0.9-27.6-0.5-41.4-0.7L171.5,196.6z"/>
</g>
<g id="_x23_767a7dff">
	<path class="st175" d="M22.1,197.8c1.6,0,3.3,0,4.9,0c3.5,5.2,7.9,9.6,11.2,14.8c-0.7,0.1-2.2,0.2-2.9,0.2
		C30.5,208.3,26.6,202.8,22.1,197.8z"/>
</g>
<g id="_x23_96949bff">
	<path class="st176" d="M27.1,197.8c2.3,0,4.6,0.1,6.9,0.2c4.4,3.8,8,8.5,12.4,12.3c0,0.3-0.1,0.9-0.1,1.2c-2.2,0.2-4.5,0.6-6.7,1
		c-0.3,0-1,0.1-1.3,0.1C35,207.3,30.5,202.9,27.1,197.8z"/>
</g>
<g id="_x23_c7c7cbff">
	<path class="st177" d="M34,198c0.6,0,1.9,0.1,2.5,0.1c10.4,1.8,21.1,0.9,31.6,1.2c-1.7,0.5-3.3,1.1-5,1.7c3.1,1.7,6.4,2.9,9.8,4
		c-1.1,0.7-2.2,1.4-3.3,2.2c2.4,1.2,4.8,2.3,7.3,3.5c-8.4,0.1-16.9-0.2-25.2,0.9c-1.8,0-3.6,0-5.4,0c0-0.3,0.1-0.9,0.1-1.2
		C42,206.5,38.4,201.8,34,198z"/>
</g>
<g id="_x23_eec9c5ff">
	<path class="st178" d="M171,197.7c13.8,0.2,27.7-0.2,41.4,0.7c-8.8,0.5-17.6,0.9-26.5,0.7c-4.2,0-8.5-0.4-12.7,0.3
		c-2.1,0.3-2.7,2.6-3.4,4.3c-0.9,2.6-2.1,5.1-3.6,7.4c3.5,0.2,7.1,0.2,10.6-0.2c6.8-0.3,13.7-0.3,20.5,0.7
		c-9.1,0.6-18.2,0.4-27.3,0.7c-2.8,0.1-5.6-0.3-8.4-0.7C166.5,208.4,168.6,202.8,171,197.7z"/>
</g>
<g id="_x23_c6c7c9ff">
	<path class="st179" d="M212.4,198.4c1.6,0,3.2,0,4.8-0.1c-1.1,0.4-2.3,0.9-3.4,1.3c-1.9,5.4-8.2,7.1-10.8,11.9
		c-1.9,0-3.8,0-5.7,0.1c-6.8-1-13.7-1-20.5-0.7c1.6-0.6,3.4-1,4.7-2.2c0.1-1.4-0.1-2.9-0.1-4.3c2.2-1.2,4.4-2.3,6.6-3.5
		c-0.7-0.6-1.4-1.2-2.1-1.8C194.8,199.4,203.6,198.9,212.4,198.4z"/>
</g>
<g id="_x23_99959dff">
	<path class="st180" d="M217.3,198.3c2.2-0.1,4.5-0.1,6.7-0.2c-5,2.8-7.6,8.4-11.6,12.3c0.2,0.6,0.6,1.7,0.8,2.3
		c-1.2-0.1-2.4-0.1-3.6-0.1c-2.1-0.3-4.2-0.7-6.4-0.9c2.6-4.9,8.9-6.5,10.8-11.9C215,199.2,216.1,198.7,217.3,198.3z"/>
</g>
<g id="_x23_797e7dff">
	<path class="st181" d="M223.9,198.1c0.8,0,2.5-0.1,3.3-0.1c-3.9,5.3-8.1,10.4-12.7,15c-0.4-0.1-1.1-0.2-1.4-0.3
		c-0.2-0.6-0.6-1.7-0.8-2.3C216.4,206.5,218.9,200.9,223.9,198.1z"/>
</g>
<g id="_x23_d5d7daff">
	<path class="st182" d="M68.1,199.3c6.8,0,13.6-0.2,20.4,0.4c-1.9,4.1-3.8,8.2-5.8,12.3l-0.2,0.4c-10.3-0.3-20.6-0.8-30.9-0.9
		c8.4-1.1,16.8-0.7,25.2-0.9c-2.5-1.1-4.9-2.3-7.3-3.5c1.1-0.7,2.2-1.5,3.3-2.2c-3.3-1.1-6.7-2.3-9.8-4
		C64.8,200.4,66.4,199.8,68.1,199.3z"/>
</g>
<g id="_x23_d6d4d9ff">
	<path class="st183" d="M173.3,199.4c4.2-0.7,8.4-0.3,12.7-0.3c0.7,0.6,1.4,1.2,2.1,1.8c-2.2,1.1-4.4,2.3-6.6,3.5
		c0.1,1.4,0.2,2.9,0.1,4.3c-1.3,1.2-3.1,1.6-4.7,2.2c-3.5,0.3-7.1,0.3-10.6,0.2c1.5-2.3,2.7-4.8,3.6-7.4
		C170.6,202,171.2,199.7,173.3,199.4z"/>
</g>
<g id="_x23_69c630ff">
	<path class="st184" d="M143.1,199.8c1.3,9.7,2.4,19.4,3.3,29.1c-6.4,1.2-11.9,4.9-15.3,10.4c-9.3,0.2-18.7,0.4-27.9-0.4
		c-1.5-2-2.3-4.3-4.1-6.1c-2.2-1.8-4.9-2.6-7.5-3.7c1.5-5.3,3.5-10.4,4.8-15.7c0.8-2.6,1.7-5.2,2.5-7.8c0.4-0.1,1.1-0.3,1.5-0.3
		c2.4,4.4,5.2,8.9,10.1,10.8c5.8,0.6,11.7,0.4,17.2-1.6c6.5-1.6,11.8-6.8,13.6-13.2c0.5,0.5,1,1,1.5,1.5
		C142.9,202.1,143.1,200.6,143.1,199.8 M115.3,222.5c-2.8,0.7-4.2,5-1.3,6.6c3,1.3,8.3,0.9,8.9-3.1
		C123.7,222,118.1,220.9,115.3,222.5z"/>
</g>
<g id="_x23_f87e4cff">
	<path class="st185" d="M154.3,205.8c5.2-0.2,9.7-3,13.5-6.3c-0.9,2.4-1.6,4.9-3.1,7c-3.7,0.7-7,2.6-10.1,4.5
		c-0.4-2.4-0.9-4.9-1.5-7.3l0.4,0.8C153.7,204.8,154.1,205.4,154.3,205.8z"/>
</g>
<g id="_x23_d96735ff">
	<path class="st186" d="M153.6,215.3c-2.6-4.1-3-9-1.4-13.6c0.2,0.5,0.7,1.5,0.9,2c0.6,2.4,1.1,4.9,1.5,7.3c0.2,1.3,0.6,2.6,2,2.9
		l-0.2,0.8C155.8,214.8,154.3,215.1,153.6,215.3z"/>
</g>
<g id="_x23_ff8e5fff">
	<path class="st187" d="M154.6,211c3.2-1.9,6.4-3.8,10.1-4.5c-1.4,1.4-2.8,2.8-4.2,4.3c0,0.4-0.1,1.2-0.1,1.7l-0.1,0.8
		c-1.2,0.2-2.5,0.4-3.7,0.6C155.2,213.6,154.8,212.3,154.6,211z"/>
</g>
<g id="_x23_e58d90ff">
	<path class="st188" d="M160.4,212.4c0.3-0.2,0.9-0.6,1.2-0.8c2.8,0.4,5.6,0.8,8.4,0.7c9.1-0.2,18.2,0,27.3-0.7
		c1.9,0,3.8-0.1,5.7-0.1c2.1,0.3,4.2,0.6,6.4,0.9c-16.4,1-32.8,0.3-49.1,0.7L160.4,212.4z"/>
</g>
<g id="_x23_dd898bff">
	<path class="st189" d="M39.6,212.5c2.2-0.4,4.4-0.8,6.7-1c1.8-0.1,3.6,0,5.4,0c10.3,0.1,20.6,0.6,30.9,0.9l-0.4,0.9
		c-13.5-0.2-27.1,0.3-40.6-0.7C41,212.6,40.1,212.5,39.6,212.5z"/>
</g>
<g id="_x23_6e0a0dff">
	<path class="st190" d="M209.4,212.6c1.2,0,2.4,0.1,3.6,0.1c0.4,0.1,1.1,0.3,1.4,0.3c-5.8,5.5-11.8,10.9-18.5,15.2
		c-5.8,0-11.7,0.2-17.4-1.3c0.8,0,2.3-0.2,3-0.2c4.7-0.1,9.9,0.9,13.9-2.1c3.9-3.1,7.6-6.5,11.6-9.4c-3.3-1-6.7-1.4-10.2-1
		c-12.2-1.2-24.5-0.1-36.7-1C176.7,212.9,193.1,213.6,209.4,212.6z"/>
</g>
<g id="_x23_850405ff">
	<path class="st191" d="M41.5,212.6c13.5,1,27.1,0.5,40.6,0.7c-0.9,2.4-1.9,4.8-3.4,6.9c0.2-2.1,0.4-4.3,0.6-6.4
		c-3.7-0.1-7.3,0.1-11,0.3c-7.2-0.8-14.5-0.6-21.5,1c0.8,2.1,2,4,4,5c2.3,1.3,3.3,4.4,6,4.9c5.7,1.4,11.8,3.1,17.6,1.2l0.6-0.1
		c0,0.4,0.1,1.2,0.1,1.5c-8.3,0.3-16.9,1.1-24.8-2c-0.6-0.4-1.2-0.9-1.8-1.4C48.1,219.2,40,218.2,41.5,212.6z"/>
</g>
<g id="_x23_cb0106ff">
	<path class="st192" d="M156.6,213.9c1.2-0.2,2.5-0.5,3.7-0.6c12.2,0.9,24.5-0.2,36.7,1c-0.8,1.9-1.5,4.2-3.5,5.2
		c-3.9,2.6-8.2,4.5-11.9,7.3c-0.8,0.1-2.3,0.2-3,0.2c-7.2-1.1-15.1,1.6-21.9-2c-0.2-3.5-0.5-6.9-0.2-10.4L156.6,213.9z"/>
</g>
<g id="_x23_c80105ff">
	<path class="st193" d="M68.4,214.1c3.7-0.3,7.3-0.4,11-0.3c-0.2,2.1-0.4,4.3-0.6,6.4c-1.4,3.2-3.7,6.2-3.4,9.8
		c0-0.4-0.1-1.1-0.1-1.4l-0.1-0.9c0-0.4-0.1-1.2-0.1-1.5l-0.6,0.1c-2.2-0.9-4.4-1.6-6.7-1.5c0.2-0.6,0.5-1.2,0.7-1.7
		c-4-2.3-10.5-2.4-11.4-7.9C60.8,214.9,64.6,214.5,68.4,214.1z"/>
</g>
<g id="_x23_9e0203ff">
	<path class="st194" d="M197,214.2c3.4-0.4,6.9,0,10.2,1c-4.1,2.9-7.7,6.3-11.6,9.4c-4,3.1-9.3,2-13.9,2.1c3.8-2.8,8.1-4.7,11.9-7.3
		C195.5,218.4,196.2,216.2,197,214.2z"/>
</g>
<g id="_x23_a1070cff">
	<path class="st195" d="M153.6,215.3c0.7-0.2,2.1-0.5,2.9-0.6c-0.3,3.5,0.1,6.9,0.2,10.4c6.8,3.5,14.6,0.8,21.9,2
		c5.7,1.5,11.6,1.3,17.4,1.3c-0.2,0.1-0.7,0.4-0.9,0.6c-2.8-0.2-5.6-0.4-8.4-0.4c-11.4-0.1-22.9-0.4-34.3,0
		c-0.7-4.2-0.9-8.5-1.2-12.8C151.8,215.6,153,215.4,153.6,215.3z"/>
</g>
<g id="_x23_066932ff">
	<path class="st196" d="M115.3,222.5c2.7-1.6,8.4-0.5,7.6,3.5c-0.6,3.9-5.9,4.4-8.9,3.1C111.2,227.5,112.5,223.2,115.3,222.5z"/>
</g>
<g id="_x23_833335ff">
	<path class="st197" d="M50.3,225.7c7.9,3.1,16.5,2.3,24.8,2l0.1,0.9l-1,0.1c-6.2,0-12.5-0.1-18.6,0.7C53.8,228.2,52,227,50.3,225.7
		z"/>
</g>
<g id="_x23_b7928fff">
	<path class="st198" d="M152.4,228.5c11.4-0.4,22.9-0.1,34.3,0c-0.4,0.4-1.3,1.2-1.7,1.6c-4.1,0.6-8.2,0.5-12.3,0
		c-4.6-0.7-9.6-1.7-14,0.3c-1.8,0-3.6,0-5.4,0c-0.1,0.7-0.2,2.1-0.2,2.7C152.8,231.6,152.6,230,152.4,228.5z"/>
</g>
<g id="_x23_797e7fff">
	<path class="st199" d="M55.6,229.4c6.2-0.9,12.4-0.8,18.6-0.7c-2.6,0.3-5.1,0.8-7.6,1.3c3,5.2,9.6,5.2,14.7,7.2
		c0.8-1.6,1.5-3.3,2.3-4.9c0.3,0.1,1,0.3,1.4,0.4c-0.3,3.4-1.5,6.7-2.9,9.8C72.6,239.5,63.9,234.7,55.6,229.4z"/>
</g>
<g id="_x23_95979bff">
	<path class="st200" d="M74.2,228.6l1-0.1c0,0.4,0.1,1.1,0.1,1.4c2.7,0.8,5.5,1.5,8.2,2.2c-0.8,1.6-1.5,3.3-2.3,4.9
		c-5-2-11.7-2-14.7-7.2C69.1,229.5,71.7,229,74.2,228.6z"/>
</g>
<g id="_x23_7c7d80ff">
	<path class="st201" d="M186.7,228.5c2.8,0,5.6,0.1,8.4,0.4c-9.5,6.6-20.1,11.5-31.1,15.2c-1.7-1.5-3.3-3.1-4.8-4.8
		c-1.8,0.7-3.6,1.4-5.5,2.1c0-1.4-0.1-2.8-0.2-4.3c1.8-0.5,3.7-1.2,5.6-1.3c1,1.2,1.9,2.5,2.8,3.8c4.7-0.2,8.9-3,13.6-3.2
		c-0.1-0.4-0.2-1.1-0.3-1.5c3.5-1.1,7.2-2.1,9.9-4.8C185.4,229.7,186.2,228.9,186.7,228.5z"/>
</g>
<g id="_x23_9898a2ff">
	<path class="st202" d="M153.2,230.4c1.8,0.1,3.6,0.1,5.4,0c0.8,1.4,1.6,2.9,2.4,4.3c3.9-1.4,7.7-3.1,11.6-4.6
		c4.1,0.5,8.2,0.6,12.3,0c-2.7,2.7-6.4,3.6-9.9,4.8c0.1,0.4,0.2,1.1,0.3,1.5c-4.7,0.2-8.8,3-13.6,3.2c-0.9-1.3-1.8-2.6-2.8-3.8
		c-1.9,0.1-3.8,0.8-5.6,1.3c-0.1-1.3-0.3-2.6-0.4-3.9C153,232.4,153.1,231.1,153.2,230.4z"/>
</g>
<g id="_x23_bbbcc1ff">
	<path class="st203" d="M158.6,230.4c4.5-2,9.4-1,14-0.3c-3.9,1.5-7.7,3.2-11.6,4.6C160.2,233.3,159.4,231.8,158.6,230.4z"/>
</g>
<g id="_x23_726971ff">
	<path class="st204" d="M153.6,241.3c1.8-0.7,3.7-1.4,5.5-2.1c1.5,1.7,3.1,3.3,4.8,4.8c-0.8,0.2-1.5,0.4-2.3,0.7
		c-2.9-0.7-5.8-1-8.8-1.1C153.2,242.9,153.4,242.1,153.6,241.3z"/>
</g>
<g id="_x23_440a08ff">
	<path class="st205" d="M89,244.7c5.5-1.9,11.3-0.9,17-0.4c15.7,0.7,31.3,0.2,47-0.7c2.9,0,5.9,0.4,8.8,1.1
		c-5.7,1.6-11.4,3-17.3,3.9c-0.8-3.1-4.1-2.1-6.5-2.3c-9.3,0.2-18.7,0.1-28,0.1c-1.8-0.4-2.9,0.8-3.5,2.4
		C100.5,247.8,94.7,246.7,89,244.7z"/>
</g>
</svg>
