<?xml version="1.0" encoding="utf-8"?>
<!-- Generator: Adobe Illustrator 26.0.3, SVG Export Plug-In . SVG Version: 6.00 Build 0)  -->
<svg version="1.1" id="Layer_1" xmlns="http://www.w3.org/2000/svg" xmlns:xlink="http://www.w3.org/1999/xlink" x="0px" y="0px"
	 viewBox="0 0 250 250" style="enable-background:new 0 0 250 250;" xml:space="preserve">
<style type="text/css">
	.st0{fill:#FFFFFF;}
	.st1{fill:#082458;}
	.st2{fill:#8992B1;}
	.st3{fill:#1B4B74;}
	.st4{fill:#1DBDCF;}
	.st5{fill:#626890;}
	.st6{fill:#444A74;}
	.st7{fill:#FCECA6;}
</style>
<circle class="st0" cx="125" cy="125.5" r="125"/>
<g id="_x23_082458ff">
	<path class="st1" d="M108.6,56.6c2.5-2.6,3.3-8,8-7.2c2.3,2.2,4.3,6.3,8.2,5.3c2.4-1,3.8-3.5,5.7-5.2c1,0,2.1,0,3.1,0
		c1.6,2.4,3.1,4.9,4.9,7.1c4.7,1.1,7.3-4.8,12-3.2c1.1,2.8,1.5,6.2,4.1,8c4.1,1.7,7.9-3.6,11.8-0.8c0.5,3.4,0,8,3.8,9.6
		c2.8,0.4,5.7-0.7,8.5-0.8c2.7,3,0.3,6.9,1.9,10.2c2.1,3.6,6.8,1.1,9.8,3.1c2.3,2.8-0.9,6.1-0.2,9.3c0.3,4.4,6,4,9.2,4.9
		c1.3,3.6-1.7,6.2-2.7,9.3c-0.4,4,4,5.1,6.8,6.5c1.7,0.6,1.6,2.7,1.3,4c-1.2,2.6-4.9,4-4.2,7.3c0.5,3.2,3.9,4.6,6.1,6.5
		c0,1,0,2,0,3.1c-2.5,2.3-7,4.3-6,8.5c1.9,2.9,5.6,5.2,3.9,9.1c-3.4,0.8-6.7,2.4-8,5.8c1.1,3,3.7,5.7,3.2,9
		c-1.8,3.2-7.1,1.1-9.1,4.5c-1,3.2,0.6,6.3,0.9,9.5c-2.2,4.6-8.7,0.2-11,4.5c-2.2,3,1.8,7.3-1.6,9.8c-2.9,1.1-6.1-1.7-9-0.3
		c-3.5,1.8-2.9,6.2-3.6,9.5c-3.7,2.8-7.1-2.1-11-0.9c-4.1,1.1-2.8,7.2-6.4,8.9c-3.3-0.1-5.5-3.8-8.9-3.9c-3.5,0.8-4.7,4.6-6.5,7.3
		c-3.8,0.6-5.5-3.2-8.1-5.1c-1.3-0.2-2.6-0.2-3.9-0.2c-2.4,2.2-4.3,5.9-8,5.3c-1.9-2.6-3.3-6.1-6.5-7.3c-3.4,0.3-5.6,3.7-9,4.1
		c-3.3-1.8-2.7-6.6-5.5-8.9c-3.4-1.2-6.3,1.3-9.5,2c-3.1-0.7-2.5-4.1-3.1-6.4c-0.1-2.3-2.2-3.5-3.7-4.8c-3,0.3-7.2,2.8-9.4-0.5
		c-1.2-2.7,1.6-5.9-0.4-8.4c-2.1-4.4-9,0.3-10.9-4.5c0.2-3.2,1.9-6.3,0.9-9.4c-2.2-2.5-5.9-2.4-8.8-3.3c-1.5-3.8,2.3-6.6,2.2-10.2
		c0.3-4.2-4.9-4.6-7.6-6.4c-0.8-3.7,2.3-5.9,4-8.7c1.2-4.2-3.6-6-6.1-8.3c-0.8-4.4,4.3-5.5,6.1-8.6c0.9-4.2-4.6-6.5-4.8-10.5
		c2.2-3.2,8.7-2.6,8.3-7.4c-0.2-3.5-3.5-6.4-2.2-10.1c2.9-0.7,6.1-0.8,8.5-2.8c2.3-3.7-1.8-7.8,0.1-11.7c3.3-1.4,8.2,0.7,10.3-2.9
		c2.3-2.8-2-7.3,1.7-9.7c3.3-1.2,7.2,2,10.3-0.5c2-2.4,1.6-5.9,2.2-8.8c1.6-0.7,3.3-1.2,4.9-0.2c2.6,1.3,7.1,2.5,8.6-1
		c1.2-2.4,1.5-7.3,5.4-6.1C102.5,54.7,105.1,57.1,108.6,56.6 M121.6,71.3c-1.2,2.8-2.7,5.5-4.5,8c-4.7,0.4-9.8-1-14.3,0.8
		c-4.2,1.7-8.2,4.2-11.9,6.8c-3.7,3.8-5.7,9-8.6,13.4c-3.3-0.4-6.7-0.5-10-0.5c-0.8,0.1-2.3,0.3-3.1,0.3c-0.1,0.8-0.2,2.3-0.2,3.1
		c-0.1,6.4-0.3,12.8,0.4,19.1c-2.6,5.3-2,11.8-1,17.4c0.9,7.2,0.6,14.5,0.4,21.8c0.1,0.8,0.3,2.4,0.4,3.2c0.9,0.1,2.6,0.2,3.5,0.2
		c3.3,0,6.6-0.1,9.9-0.4c3.4,5.1,5.2,11.8,11,15c3.1,1.7,6.1,3.9,9.6,4.7c4.1,0.5,8.3,0.4,12.4-0.2c3.2,3.3,5.8,7.1,7.9,11.2
		c2.1,1.1,3.4-1.4,4.1-3c1.3-3.3,4.1-5.5,6.2-8.3c4.4,0.7,9,1.1,13.4,0c4-1.8,8-3.9,11.4-6.7c3.2-3.7,5.1-8.3,7.6-12.4
		c3.4,0.1,6.7,0.2,10.1,0.1c1.3,0,2.5-0.1,3.8-0.1c0-0.7,0-2.2,0.1-3c0-7,0.1-14-0.1-21c1.8-4,0.6-8.6,0.9-12.9
		c0.3-4.7-3.6-8.1-5.5-12c-3.9-7.6-8.7-14.8-12.8-22.3c-1.8-3.1-3.4-6.5-6.7-8.2c-3.4-1.9-6.6-4.4-10.5-5.3c-4.4-2-9.4,0.2-13.9-1.2
		c-2.2-2.6-3.5-5.8-5-8.8c-0.6-0.4-1.9-1.3-2.5-1.7C123,69.3,122.3,70.3,121.6,71.3 M175.7,100.2c0.4,1.3,0.8,2.6,1.2,3.9
		c1.8-0.7,2.5-2.2,2.3-4C178.4,100.2,176.6,100.2,175.7,100.2z"/>
	<path class="st1" d="M98.7,86c1.8-1.5,3.8-2.9,6.3-2.7c12.4,0.1,24.7,0.2,37.1,0c3.1-0.3,5.8,1.5,8.3,3c-5.9,2.2-12.3,0.9-18.4,1.6
		c-4.5,0.6-9,0.8-13.4,0C112,86.8,105,88.6,98.7,86z"/>
	<path class="st1" d="M87.8,97c1.6-2.4,2.7-5.6,5.3-7.1c5.6-0.2,11.1,0.7,16.7,0.8c-1.1,3.7-2.4,8.7-6.8,9.5
		c-4.9,0.3-9.9-1.2-14.8-0.4C88,99,87.9,97.6,87.8,97 M96.2,92.4c-1.4,1.1-1.7,2.9-2.1,4.5C96,96.8,99.1,92.9,96.2,92.4z"/>
	<path class="st1" d="M138.4,90.6c5.9-0.5,11.8,0.2,17.7-1c2.1,3,3.9,6.2,5.6,9.3c-5.2,1-10.5,1.4-15.7,1
		C141.1,100.1,140.1,94.1,138.4,90.6 M151.7,93.6c-0.3,2.4,0.7,5.1,3.6,4.8C154.9,96.3,154.4,93.6,151.7,93.6z"/>
	<path class="st1" d="M108,100c1.1-3.5,2.6-8.8,7.2-8.2c-0.4,2.4-0.9,4.9-2.4,6.9C111.8,100.4,109.6,99.7,108,100z"/>
	<path class="st1" d="M117,92c1.7-0.2,3.4-0.3,5.1-0.5c0.4,1.2,0.9,2.3,1.3,3.4c-1.2,1.8-2.2,3.6-3.3,5.4c-1.8-0.2-3.5-0.4-5.3-0.6
		C115.2,97.1,115.9,94.5,117,92z"/>
	<path class="st1" d="M125.4,94c0.3-0.6,1-1.9,1.3-2.5c1.5,0.2,2.9,0.4,4.3,0.5c1.1,2.5,2.1,5.1,3,7.7c-1.8,0.3-3.5,0.6-5.3,0.8
		C127.5,98.4,126.4,96.2,125.4,94z"/>
	<path class="st1" d="M133.7,91.7c4.2-0.2,5.9,4.9,6.5,8.3c-1.5-0.2-3.2,0.2-4.4-0.8C134.2,97.1,133.9,94.3,133.7,91.7z"/>
	<path class="st1" d="M93.1,103.8c-0.2-1.8,1.7-2.3,3.1-2.7c2.7-0.6,5.5-0.2,8,0.8c-0.8,1.2-1.3,2.8-2.5,3.7
		C98.8,105.8,95.6,105.5,93.1,103.8z"/>
	<path class="st1" d="M103.9,106c1.1-3.2,3.7-5.6,7.2-5c0.1,2.1,0.4,4.5-1.4,6C107.7,107.9,105.7,106.7,103.9,106z"/>
	<path class="st1" d="M138.3,101.3c2.8-1.1,4.5,2.1,6.2,3.8c-1.6,2.1-4,2.4-6.4,1.9C138,105.2,135.9,102.2,138.3,101.3z"/>
	<path class="st1" d="M144.8,101.2c3.2-0.1,6.5-0.7,9.5,0.5c0.3,1,0.6,2,0.8,3.1c-2.6,0.4-5.2,1-7.8,0.9
		C145.4,105,145,102.9,144.8,101.2z"/>
	<path class="st1" d="M70.2,104.9c1.9,2.3,3.6,4.8,5.3,7.3c-1.4,2.5-2.9,4.9-4.4,7.3C69.3,114.8,69.6,109.8,70.2,104.9z"/>
	<path class="st1" d="M92.3,106.1c2.8-0.5,5.5,0.8,8,1.9c-0.8,1.8-1.3,3.9-2.9,5.2c-1.5,0.6-3.2,0.6-4.8,0.8
		c0.7,1.4,1.4,2.8,2.2,4.2c-1.1,2-2.4,3.9-3.9,5.7c-2.2-2.2-4.2-4.5-6.2-7c1.1-1.1,2-2.4,3.4-3.1c1.4,0,2.9,0.2,4.3,0.2
		c-0.8-1.5-1.7-3-2.6-4.5C90.7,108.4,91.3,107.1,92.3,106.1z"/>
	<path class="st1" d="M147.9,108c3-1.1,6.4-2.7,9.6-1.7c1.6,2.6,0.3,5.3-0.8,7.8c1.4-0.2,2.7-0.4,4.1-0.6c0.7,1.2,1.4,2.4,1.9,3.7
		c-0.4,3.1-3.2,5-5.5,6.9c-1.2-1.9-2.8-3.7-3.3-5.9c0.6-1.5,1.4-2.9,2.2-4.3c-1.7,0-3.4,0.1-5.1,0.1C149.9,112,148.9,110,147.9,108z
		"/>
	<path class="st1" d="M75.8,117.6c0.5-0.1,1.6-0.2,2.1-0.2c2.7,4.9,6.2,9.3,8,14.6c-0.1,3.5-2.8,6.1-5,8.5
		c-3.4-4.6-5.6-10.1-9.3-14.5C72.6,123,74.3,120.3,75.8,117.6 M76.6,127.5c2.8,0.1,4.1-2.3,3.8-4.9C77.5,122.5,76.4,125,76.6,127.5z
		"/>
	<path class="st1" d="M170.4,117.3c0.9,0.5,1.9,0.9,2.8,1.4c1.4,2.4,2.6,4.8,3.8,7.3c-2.9,4.5-5.8,9-8.7,13.5
		c-0.6,0.1-1.7,0.1-2.3,0.2c-1.6-2.9-4.6-6.1-3-9.6C165.2,125.7,169.2,122.3,170.4,117.3 M170.1,124c-2.5,1.6,0.8,5.7,3.2,5.3
		C173.4,127.1,172.6,124.3,170.1,124z"/>
	<path class="st1" d="M83.1,119.9c2.9,0.6,5,3,6.5,5.4c0.7,1.9-1,3.5-2.2,4.8C85.3,127,83,123.8,83.1,119.9z"/>
	<path class="st1" d="M158.9,126.1c1-2.6,3.1-4.6,5-6.6c0.5,0.4,1.5,1.2,2,1.6c-1.4,3.3-3,6.6-5.7,8.9
		C159.7,128.8,159.1,127.5,158.9,126.1z"/>
	<path class="st1" d="M91.1,127.9c1.8,1.4,4.5,3.1,3.5,5.8c-0.7,1.7-3.5,3.9-4.7,1.5C88.2,132.7,89.8,130,91.1,127.9z"/>
	<path class="st1" d="M153,132.8c0.9-1.9,2.2-3.6,3.8-4.9c1,1.4,2.2,2.7,2.8,4.3c0,1.8-1.6,3-2.6,4.3
		C155.7,135.3,154.4,134,153,132.8z"/>
	<path class="st1" d="M71.3,132c4.4,5.9,8,12.4,12.3,18.4c2.4,3.4,4.2,7.2,6,11c2.8,5.8,6.3,11.3,8.3,17.5c-3.1-1.7-6.1-3.8-7.7-7.1
		c-4.2-7.7-8.6-15.4-13.1-23c-1.8-3.1-4-6-5.4-9.3C71.1,137,71.4,134.5,71.3,132z"/>
	<path class="st1" d="M164.7,150.7c4.4-6.2,8-12.9,12.9-18.8c0.1,3.1,0.4,6.5-1.5,9.1c-6.3,10.2-12.2,20.6-17.9,31
		c-1.6,3.3-5,5-8,6.8c2-5.3,5.1-10.1,7.5-15.2C159.9,159.3,161.8,154.7,164.7,150.7z"/>
	<path class="st1" d="M87.3,134.8c1.1,1.3,3.2,2.8,2.2,4.8c-1.3,2.4-3.5,4-5.5,5.7c-0.3-0.6-1-1.6-1.4-2.2
		C84.1,140.2,85.6,137.4,87.3,134.8z"/>
	<path class="st1" d="M160.1,134.9c2.5,1.7,4,4.4,5.3,7.1c-0.4,0.6-1.2,1.7-1.6,2.3c-1.9-1.5-3.9-3-5-5.3
		C159.1,137.5,159.7,136.2,160.1,134.9z"/>
	<path class="st1" d="M85.7,147.8c0.9-3,2.9-5.4,5.3-7.2c0.7,1.7,1.4,3.4,2.1,5.1c0.3,0.6,0.8,1.8,1.1,2.4c-2.1,0.9-4.1,2-6.1,3
		C87.3,150,86.5,148.9,85.7,147.8z"/>
	<path class="st1" d="M156.1,143.2c0.3-0.6,0.9-1.8,1.2-2.4c2.5,1.9,4.4,4.3,5.4,7.2c-0.7,1-1.4,2-2.1,3.1c-2.4-1-4.7-2.3-6.8-3.8
		C154.6,146,155.4,144.6,156.1,143.2z"/>
	<path class="st1" d="M70.2,160c-0.5-5.1-0.7-10.3,0.7-15.4c1.6,2.6,3.1,5.3,4.7,8C73.8,155.1,72,157.6,70.2,160z"/>
	<path class="st1" d="M176.8,145.7c0.5-0.1,1.5-0.2,2-0.3c0.1,4.9,0.1,9.8-0.2,14.7c-2.5-2.5-4.3-5.6-5-9
		C174.7,149.3,175.8,147.5,176.8,145.7z"/>
	<path class="st1" d="M94.4,151.1c1.4-0.6,2.8-1.1,4.2-1.7c8.4,5.3,17.5,9.5,25.4,15.4c0.3-0.2,0.8-0.5,1.1-0.7
		c5.3-3.5,11.3-5.9,16.5-9.5c2.8-1.9,5.9-3.5,8.8-5.2c1.4,0.6,2.8,1.1,4.1,1.7c-5,3.7-10.7,6.3-15.9,9.5c-4.6,2.4-8.8,5.7-13.7,7.7
		c-3.6-0.4-6.5-3-9.6-4.6C108.4,159.4,101,155.9,94.4,151.1z"/>
	<path class="st1" d="M91.1,156.9c-1.2-1.6-0.3-3.3,0.8-4.7c4,4.1,7,9,10.4,13.6c3.9,5.3,8,10.4,11.6,15.9c-3.5-0.2-7-0.2-10.5-0.2
		C99.2,173.4,95.2,165.1,91.1,156.9z"/>
	<path class="st1" d="M135,181.6c7.5-9.6,13.7-20.2,21.9-29.3c0.5,0.5,1.4,1.4,1.9,1.9c-4.4,9.1-9.1,18-13.6,27
		C141.8,181.9,138.4,181.5,135,181.6z"/>
</g>
<g id="_x23_8992b1ff">
	<path class="st2" d="M121.6,71.3c0.7-1,1.4-2,2.2-2.9c0.6,0.4,1.9,1.3,2.5,1.7c-0.2,0.8-0.7,2.3-0.9,3.1
		C124.1,72.5,122.8,71.9,121.6,71.3z"/>
	<path class="st2" d="M123.4,94.9c0.3,0.1,1.1,0.3,1.4,0.4c-0.3,10.2,0,20.5-0.1,30.7c-0.2,1.8,0.2,4-1.4,5.3c-2.4,1.9-5.3,2.8-8,4
		c-7.2,2.9-14.2,6.5-21.4,9.4c0.1-0.4,0.2-1.2,0.2-1.6c2-4.7,5.4-8.7,7.9-13.1c2.2-3.5,3.2-7.7,6-10.9c5-5.6,8.1-12.5,12.1-18.8
		C121.2,98.5,122.2,96.7,123.4,94.9z"/>
	<path class="st2" d="M69.2,100.2c0.8-0.1,2.3-0.3,3.1-0.3c-0.2,0.7-0.5,2.1-0.6,2.8c-0.7,0.2-2,0.5-2.7,0.6
		C69,102.5,69.1,100.9,69.2,100.2z"/>
	<path class="st2" d="M175.7,100.2c0.9,0,2.7-0.1,3.6-0.1c0.2,1.9-0.5,3.3-2.3,4C176.5,102.9,176.1,101.6,175.7,100.2z"/>
	<path class="st2" d="M68.7,161.5c1.1,0.1,2.4-0.2,3.5,0.3c0.2,1,0.3,2.1,0.4,3.1c-0.9-0.1-2.6-0.2-3.5-0.2
		C69,163.9,68.8,162.3,68.7,161.5z"/>
	<path class="st2" d="M176.7,161.5c1,0.1,2.1,0.2,3.1,0.4c0,0.8,0,2.2-0.1,3c-1.3,0-2.5,0.1-3.8,0.1
		C176.2,163.8,176.4,162.6,176.7,161.5z"/>
</g>
<g id="_x23_1b4b74ff">
	<path class="st3" d="M126.3,70.1c1.5,3,2.8,6.3,5,8.8c4.5,1.4,9.5-0.7,13.9,1.2c-14.1,0.2-28.2,0.2-42.4,0
		c4.5-1.8,9.5-0.4,14.3-0.8c1.8-2.5,3.3-5.2,4.5-8c1.2,0.7,2.5,1.2,3.8,1.8C125.6,72.3,126,70.8,126.3,70.1z"/>
	<path class="st3" d="M109.8,90.6c4.1,0.1,8.2,0.4,12.3,0.9c-1.7,0.2-3.4,0.3-5.1,0.5c-1.1,2.5-1.8,5.1-2.1,7.7
		c1.8,0.2,3.5,0.4,5.3,0.6c-4,6.3-7.1,13.2-12.1,18.8c-2.8,3.2-3.8,7.4-6,10.9c-2.5,4.4-5.9,8.4-7.9,13.1c-0.4,0.8-0.7,1.7-1.1,2.6
		c-0.7-1.7-1.4-3.4-2.1-5.1c-2.4,1.9-4.4,4.3-5.3,7.2c-0.6-0.8-1.1-1.7-1.7-2.6c2-1.7,4.2-3.4,5.5-5.7c1-2-1.1-3.4-2.2-4.8
		c-1.7,2.7-3.3,5.4-4.7,8.3c-0.5-0.8-1.1-1.7-1.7-2.5c2.2-2.4,4.9-5,5-8.5c-1.8-5.3-5.4-9.8-8-14.6c-0.5,0.1-1.6,0.2-2.1,0.2
		c4.1-6.8,8-13.8,11.9-20.7c0.1,0.7,0.3,2,0.4,2.7c5-0.8,9.9,0.7,14.8,0.4C107.3,99.3,108.7,94.3,109.8,90.6 M108,100
		c1.6-0.3,3.8,0.5,4.8-1.3c1.5-2,2-4.5,2.4-6.9C110.5,91.2,109,96.5,108,100 M93.1,103.8c2.4,1.7,5.6,2,8.5,1.8
		c1.2-0.9,1.7-2.4,2.5-3.7c-2.5-0.9-5.3-1.4-8-0.8C94.8,101.5,92.9,102,93.1,103.8 M103.9,106c1.8,0.7,3.8,1.9,5.8,1
		c1.8-1.5,1.5-3.9,1.4-6C107.5,100.4,105,102.8,103.9,106 M92.3,106.1c-1,1-1.7,2.2-2.4,3.4c0.9,1.5,1.8,3,2.6,4.5
		c-1.4-0.1-2.9-0.3-4.3-0.2c-1.4,0.7-2.3,2.1-3.4,3.1c1.9,2.4,4,4.8,6.2,7c1.4-1.8,2.7-3.7,3.9-5.7c-0.7-1.4-1.5-2.8-2.2-4.2
		c1.6-0.2,3.3-0.2,4.8-0.8c1.6-1.3,2.1-3.4,2.9-5.2C97.8,107,95.1,105.6,92.3,106.1 M83.1,119.9c-0.1,3.9,2.3,7.1,4.2,10.2
		c1.2-1.3,2.9-2.8,2.2-4.8C88,122.9,86,120.6,83.1,119.9 M91.1,127.9c-1.3,2.1-2.9,4.9-1.2,7.2c1.2,2.4,4,0.2,4.7-1.5
		C95.7,130.9,92.9,129.3,91.1,127.9z"/>
	<path class="st3" d="M126.7,91.4c3.9-0.3,7.8-0.6,11.8-0.8c1.7,3.5,2.7,9.4,7.6,9.4c5.2,0.4,10.5,0,15.7-1
		c4,6.5,7.7,13.1,11.5,19.7c-0.9-0.5-1.9-0.9-2.8-1.4c-1.2,5-5.2,8.4-7.3,12.8c-1.7,3.5,1.4,6.7,3,9.6c0.6-0.1,1.7-0.1,2.3-0.2
		c-1.9,2.8-3.8,5.7-5.7,8.5c-0.9-3-2.9-5.4-5.4-7.2c-0.3,0.6-0.9,1.8-1.2,2.4l-0.8,0.4c-2.6-4.3-5.4-8.5-8-12.8
		c-2.3-3.7-3.6-8.1-6.5-11.5c-4.8-5.7-8-12.6-12.1-18.8c1.8-0.3,3.5-0.6,5.3-0.8c-0.8-2.6-1.8-5.2-3-7.7
		C129.6,91.8,128.1,91.6,126.7,91.4 M133.7,91.7c0.2,2.6,0.5,5.4,2,7.6c1.3,0.9,3,0.5,4.4,0.8C139.6,96.6,138,91.5,133.7,91.7
		 M138.3,101.3c-2.5,0.9-0.3,3.9-0.2,5.7c2.4,0.5,4.8,0.2,6.4-1.9C142.9,103.4,141.1,100.2,138.3,101.3 M144.8,101.2
		c0.2,1.7,0.6,3.8,2.5,4.4c2.6,0.1,5.2-0.5,7.8-0.9c-0.2-1-0.5-2.1-0.8-3.1C151.3,100.5,148,101.1,144.8,101.2 M147.9,108
		c0.9,2,2,4,3.1,5.9c1.7,0,3.4,0,5.1-0.1c-0.8,1.4-1.6,2.8-2.2,4.3c0.4,2.3,2,4.1,3.3,5.9c2.2-1.8,5.1-3.8,5.5-6.9
		c-0.5-1.3-1.2-2.5-1.9-3.7c-1.4,0.2-2.7,0.4-4.1,0.6c1.1-2.4,2.5-5.2,0.8-7.8C154.3,105.3,150.9,106.9,147.9,108 M158.9,126.1
		c0.2,1.4,0.8,2.7,1.3,4c2.7-2.4,4.3-5.6,5.7-8.9c-0.5-0.4-1.5-1.2-2-1.6C162,121.5,159.9,123.5,158.9,126.1 M153,132.8
		c1.3,1.2,2.7,2.5,4.1,3.7c1-1.3,2.5-2.5,2.6-4.3c-0.6-1.6-1.8-2.9-2.8-4.3C155.2,129.2,153.9,130.9,153,132.8 M160.1,134.9
		c-0.5,1.3-1,2.7-1.3,4.1c1,2.3,3.1,3.7,5,5.3c0.4-0.6,1.2-1.7,1.6-2.3C164.1,139.3,162.6,136.6,160.1,134.9z"/>
	<path class="st3" d="M151.7,93.6c2.7-0.1,3.2,2.7,3.6,4.8C152.4,98.7,151.4,96,151.7,93.6z"/>
	<path class="st3" d="M72.3,99.8c3.4-0.1,6.7,0.1,10,0.5c-2.2,4-4.5,8-6.9,11.9c-1.6-2.5-3.4-5-5.3-7.3c-0.6,4.9-0.9,9.9,0.8,14.6
		c-0.6,0.9-1.1,1.8-1.7,2.8c-0.7-6.3-0.5-12.7-0.4-19.1c0.7-0.2,2-0.5,2.7-0.6C71.8,101.9,72.1,100.5,72.3,99.8z"/>
	<path class="st3" d="M76.6,127.5c-0.2-2.5,0.9-5,3.8-4.9C80.6,125.1,79.4,127.5,76.6,127.5z"/>
	<path class="st3" d="M170.1,124c2.5,0.3,3.3,3.2,3.2,5.3C170.8,129.7,167.6,125.6,170.1,124z"/>
	<path class="st3" d="M68.3,139.8c0.8,1.7,1.6,3.3,2.5,4.9c-1.3,5-1.2,10.2-0.7,15.4c1.8-2.4,3.6-4.9,5.3-7.4
		c2.4,3.9,4.8,7.9,6.9,12c-3.3,0.3-6.6,0.5-9.9,0.4c-0.1-1.1-0.2-2.1-0.4-3.1c-1.1-0.5-2.3-0.2-3.5-0.3
		C68.9,154.3,69.2,147,68.3,139.8z"/>
	<path class="st3" d="M176.8,145.7c1-1.6,2-3.2,2.9-4.8c0.1,7,0.1,14,0.1,21c-1.1-0.1-2.1-0.2-3.1-0.4c-0.2,1.1-0.5,2.3-0.7,3.4
		c-3.4,0.1-6.7,0-10.1-0.1c2.5-4.6,5.2-9.1,7.8-13.7c0.7,3.4,2.5,6.5,5,9c0.3-4.9,0.2-9.8,0.2-14.7
		C178.3,145.5,177.3,145.6,176.8,145.7z"/>
</g>
<g id="_x23_1dbdcfff">
	<path class="st4" d="M90.9,86.9c3.8-2.6,7.7-5.1,11.9-6.8c14.1,0.2,28.2,0.2,42.4,0c3.8,0.9,7,3.5,10.5,5.3
		c3.3,1.7,4.9,5.2,6.7,8.2c4.1,7.5,8.9,14.6,12.8,22.3c1.9,3.9,5.8,7.3,5.5,12c-0.2,4.3,0.9,8.9-0.9,12.9c-0.9,1.6-1.9,3.2-2.9,4.8
		c-1.1,1.8-2.1,3.6-3.2,5.4c-2.6,4.6-5.3,9.1-7.8,13.7c-2.6,4.1-4.4,8.7-7.6,12.4c-3.4,2.8-7.4,4.9-11.4,6.7c-4.4,1.1-9,0.6-13.4,0
		c0.4-0.6,1.2-1.7,1.6-2.3c3.4-0.1,6.8,0.2,10.1-0.4c4.5-9,9.2-17.9,13.6-27c-0.5-0.5-1.4-1.4-1.9-1.9c-0.8-0.4-1.6-0.8-2.3-1.1
		c-1.4-0.6-2.8-1.1-4.1-1.7c1.1-0.7,2.3-1.4,3.3-2.2c2.1,1.5,4.4,2.8,6.8,3.8c0.7-1,1.4-2,2.1-3.1c1.9-2.8,3.8-5.7,5.7-8.5
		c2.9-4.5,5.9-9,8.7-13.5c-1.2-2.5-2.4-4.9-3.8-7.3c-3.8-6.6-7.6-13.2-11.5-19.7c-1.7-3.2-3.5-6.4-5.6-9.3c-5.8,1.2-11.8,0.5-17.7,1
		c-3.9,0.2-7.9,0.5-11.8,0.8c-0.3,0.6-1,1.9-1.3,2.5c-0.1,0.3-0.4,1-0.6,1.4c-0.4-0.1-1.1-0.3-1.4-0.4c-0.5-1.1-0.9-2.3-1.3-3.4
		c-4.1-0.5-8.2-0.8-12.3-0.9c-5.6,0-11.1-0.9-16.7-0.8c-2.6,1.5-3.7,4.7-5.3,7.1c-4,6.9-7.9,13.8-11.9,20.7
		c-1.5,2.7-3.2,5.4-4.2,8.4c3.7,4.4,5.9,9.9,9.3,14.5c0.6,0.8,1.1,1.7,1.7,2.5c0.3,0.6,1,1.7,1.4,2.2c0.5,0.9,1.1,1.7,1.7,2.6
		c0.8,1.1,1.6,2.2,2.4,3.2c2-1.1,4-2.1,6.1-3c0.8-0.2,1.5-0.4,2.3-0.6c0.7,0.7,1.4,1.4,2.1,2c-1.4,0.6-2.8,1.1-4.2,1.7
		c-0.8,0.3-1.7,0.7-2.5,1.1c-1.1,1.4-2,3.1-0.8,4.7c4.1,8.2,8.1,16.4,12.3,24.6c3.5,0,7,0.1,10.5,0.2c0.4,0.6,1.1,1.7,1.5,2.2
		c-4.1,0.6-8.3,0.8-12.4,0.2c-3.5-0.8-6.5-3-9.6-4.7c-5.7-3.1-7.6-9.8-11-15c-2.1-4.1-4.5-8.1-6.9-12c-1.6-2.7-3.1-5.3-4.7-8
		c-0.9-1.6-1.8-3.2-2.5-4.9c-1-5.6-1.6-12.1,1-17.4c0.5-0.9,1.1-1.9,1.7-2.8c1.5-2.4,3-4.9,4.4-7.3c2.4-3.9,4.7-7.9,6.9-11.9
		C85.2,95.9,87.1,90.7,90.9,86.9 M98.7,86c6.3,2.6,13.3,0.8,19.9,1.9c4.4,0.8,9,0.6,13.4,0c6.1-0.7,12.5,0.6,18.4-1.6
		c-2.6-1.4-5.2-3.2-8.3-3c-12.4,0.2-24.7,0.1-37.1,0C102.5,83,100.5,84.5,98.7,86 M71.3,132c0.1,2.5-0.2,5.1,0.4,7.5
		c1.4,3.3,3.6,6.2,5.4,9.3c4.5,7.6,8.8,15.3,13.1,23c1.6,3.3,4.6,5.4,7.7,7.1c-2-6.2-5.5-11.7-8.3-17.5c-1.8-3.8-3.6-7.6-6-11
		C79.3,144.4,75.7,137.9,71.3,132 M164.7,150.7c-2.9,4-4.8,8.6-7,13c-2.5,5.1-5.5,9.9-7.5,15.2c3-1.8,6.4-3.5,8-6.8
		c5.8-10.4,11.7-20.9,17.9-31c1.9-2.7,1.5-6,1.5-9.1C172.6,137.7,169,144.5,164.7,150.7z"/>
	<path class="st4" d="M96.2,92.4c2.9,0.4-0.2,4.3-2.1,4.5C94.6,95.4,94.8,93.6,96.2,92.4z"/>
</g>
<g id="_x23_626890ff">
	<path class="st5" d="M124.8,95.3c0.1-0.3,0.4-1,0.6-1.4c1,2.2,2.1,4.4,3.3,6.5c4.1,6.2,7.2,13.1,12.1,18.8
		c2.9,3.4,4.2,7.7,6.5,11.5c2.6,4.3,5.4,8.5,8,12.8c-5.1,0.2-9.3-3.3-13.9-4.9c-5.7-2.1-10.7-5.8-16.8-6.6
		c-0.2,10.7-0.9,21.5,0.6,32.1c-0.3,0.2-0.8,0.5-1.1,0.7c-7.9-6-17-10.1-25.4-15.4c-0.7-0.7-1.4-1.3-2.1-2c-0.8,0.2-1.5,0.4-2.3,0.6
		c-0.3-0.6-0.8-1.8-1.1-2.4c0.3-0.9,0.7-1.7,1.1-2.6c-0.1,0.4-0.2,1.2-0.2,1.6c7.2-2.9,14.2-6.5,21.4-9.4c2.7-1.2,5.7-2.1,8-4
		c1.6-1.2,1.2-3.5,1.4-5.3C124.8,115.8,124.5,105.6,124.8,95.3z"/>
</g>
<g id="_x23_444a74ff">
	<path class="st6" d="M124.5,132.1c6.1,0.8,11.2,4.5,16.8,6.6c4.6,1.6,8.8,5.1,13.9,4.9l0.8-0.4c-0.7,1.4-1.5,2.8-2.4,4.1
		c-1.1,0.8-2.2,1.5-3.3,2.2c-3,1.7-6,3.2-8.8,5.2c-5.2,3.6-11.2,6-16.5,9.5C123.6,153.6,124.3,142.8,124.5,132.1z"/>
</g>
<g id="_x23_fceca6ff">
	<path class="st7" d="M91.9,152.2c0.8-0.4,1.7-0.7,2.5-1.1c6.6,4.8,14.1,8.2,21,12.6c3.1,1.7,6,4.2,9.6,4.6c4.8-2,9-5.2,13.7-7.7
		c5.3-3.2,11-5.8,15.9-9.5c0.8,0.3,1.6,0.7,2.3,1.1c-8.1,9.1-14.4,19.7-21.9,29.3c-0.4,0.6-1.2,1.7-1.6,2.3c-2,2.8-4.8,5-6.2,8.3
		c-0.7,1.6-1.9,4.1-4.1,3c-2-4.1-4.7-7.9-7.9-11.2c-0.4-0.6-1.1-1.7-1.5-2.2c-3.5-5.5-7.7-10.6-11.6-15.9
		C98.9,161.2,95.8,156.3,91.9,152.2z"/>
</g>
</svg>
