<?xml version="1.0" encoding="utf-8"?>
<!-- Generator: Adobe Illustrator 26.0.3, SVG Export Plug-In . SVG Version: 6.00 Build 0)  -->
<svg version="1.1" id="Layer_1" xmlns="http://www.w3.org/2000/svg" xmlns:xlink="http://www.w3.org/1999/xlink" x="0px" y="0px"
	 viewBox="0 0 250 250" style="enable-background:new 0 0 250 250;" xml:space="preserve">
<g id="_x23_000000ff">
	<path d="M123.9,0h2.5c3.8,6.6,8.4,12.7,12.1,19.4c6.2,9.3,11.5,19.1,17.2,28.7c-11.1,17.6-20.2,36.5-26.2,56.4
		c-2.5,8.9-4.7,17.8-6.6,26.8c-3,19.7-4.4,39.9-2.2,59.8c0.1,1.9,1.3,3.5,2.8,4.6c17.5,12.9,36.8,23.6,57.3,30.7
		c7.8,3,15.8,5.4,23.9,6.9c-1.8-8.6-2.9-17.3-5.2-25.8c-18.4-6.2-36.4-13.9-52.8-24.4c-4.4-2.9-9.2-5.4-13.1-9.1
		c-0.4-6.4,0.9-12.7,1-19c12.7,8.3,24.6,18,38.4,24.8c11.3,5.8,22.9,11,35,14.5c1.7,0.7,4.4,1.1,4.7,3.3c1.9,9.5,3.8,18.9,5.7,28.4
		c0.8,7.5,3.2,14.8,3.1,22.4c-0.5,0.4-1.6,1.1-2.1,1.5h-9.3c-2.7-1.9-5.8-2.5-9-2.8c-31.6-6.3-61.6-19.8-87.8-38.6
		c-1.8-1.3-3.8-2.9-4.1-5.3c-1.6-7.3-1.7-14.9-2.9-22.3c-0.1-8.4-1.4-16.7-0.3-25c-0.1-9.4,1.6-18.6,2.6-27.9
		c5.1-28.5,15.1-56.3,30.2-81.1c-4.9-8-9-16.5-14.7-24c-2.4,4.6-5.4,8.8-7.9,13.3C97.9,66.7,88.1,101.7,85.6,137
		c-0.2,8.4-0.3,16.8,0,25.3c0.6,8,2.2,15.9,2.2,24c-7.3-5.7-12.9-13.2-18.7-20.4C48.3,138.9,33.3,107.3,26.4,74
		c2.7-5,6.8-9.2,10.8-13.2c3.7,11.5,6,23.5,10.6,34.7c4.6,11.5,9.7,22.9,16.1,33.6c2.4,3.9,4.4,8.1,7.5,11.4
		c0.4-9.8,1.8-19.5,2.6-29.2C80.2,70.6,97.4,31.5,123.9,0z"/>
</g>
</svg>
