<?xml version="1.0" encoding="UTF-8" ?>
<!DOCTYPE svg PUBLIC "-//W3C//DTD SVG 1.1//EN" "http://www.w3.org/Graphics/SVG/1.1/DTD/svg11.dtd">
<svg width="250pt" height="250pt" viewBox="0 0 250 250" version="1.1" xmlns="http://www.w3.org/2000/svg">
<g id="#fffefdff">
<path fill="#fffefd" opacity="1.00" d=" M 0.00 0.00 L 114.43 0.00 C 63.93 4.81 18.16 41.63 4.82 90.91 C 2.39 98.27 2.02 106.12 0.00 113.57 L 0.00 0.00 Z" />
<path fill="#fffefd" opacity="1.00" d=" M 135.57 0.00 L 250.00 0.00 L 250.00 110.52 C 248.39 104.24 247.20 97.86 245.46 91.62 C 232.82 41.92 186.14 4.80 135.57 0.00 Z" />
<path fill="#fffefd" opacity="1.00" d=" M 0.00 136.43 C 2.16 143.54 1.62 151.37 4.90 158.16 L 5.14 158.91 C 6.26 162.70 5.94 167.23 8.74 170.33 C 9.35 172.24 10.11 174.10 10.95 175.92 C 11.69 179.44 13.04 182.84 15.98 185.06 L 16.32 185.68 C 17.93 190.75 20.73 195.78 24.94 199.09 L 25.31 199.69 C 29.77 208.97 38.83 215.39 46.24 221.96 L 46.94 222.24 C 47.87 223.86 49.19 225.26 51.01 225.85 L 51.61 226.17 C 52.93 228.12 55.11 229.03 57.23 229.83 L 57.74 230.28 C 59.81 232.44 62.58 233.70 65.28 234.87 C 66.09 235.32 66.89 235.76 67.71 236.19 C 70.06 238.37 73.10 239.38 76.20 239.90 C 77.02 240.36 77.85 240.82 78.67 241.28 C 80.87 242.89 83.58 243.39 86.16 244.05 C 90.26 245.58 94.61 246.28 98.87 247.26 C 100.02 248.41 101.72 248.40 103.17 247.87 L 103.88 248.22 C 105.37 249.49 107.40 249.37 109.17 248.84 L 109.96 249.30 L 110.26 250.00 L 0.00 250.00 L 0.00 136.43 Z" />
<path fill="#fffefd" opacity="1.00" d=" M 246.28 155.28 C 247.75 150.11 248.88 144.84 250.00 139.58 L 250.00 250.00 L 139.79 250.00 L 139.95 249.09 C 140.40 249.03 141.29 248.91 141.74 248.85 C 145.02 249.07 148.22 248.34 151.28 247.26 C 156.62 246.24 161.85 244.74 167.03 243.09 C 168.72 243.48 170.41 242.83 171.19 241.24 C 176.62 239.38 181.79 236.83 186.73 233.92 C 189.72 233.16 192.12 231.28 194.15 229.02 L 194.81 228.79 C 196.42 228.79 198.18 228.00 198.12 226.14 L 198.68 225.80 C 209.85 219.35 219.35 209.88 225.70 198.70 L 226.02 198.08 C 227.87 196.73 229.18 194.91 229.71 192.67 L 230.06 192.06 C 233.24 190.94 234.06 187.60 234.83 184.68 C 235.29 183.88 235.73 183.07 236.15 182.25 C 238.02 178.94 239.79 175.55 240.96 171.93 L 241.27 171.24 C 243.59 167.90 244.21 163.78 245.03 159.89 C 245.52 158.37 245.92 156.83 246.28 155.28 Z" />
</g>
<g id="#f6af4bff">
<path fill="#f6af4b" opacity="1.00" d=" M 114.43 0.00 L 135.57 0.00 C 186.14 4.80 232.82 41.92 245.46 91.62 C 247.20 97.86 248.39 104.24 250.00 110.52 L 250.00 139.58 C 248.88 144.84 247.75 150.11 246.28 155.28 C 247.67 147.19 244.28 139.64 242.89 131.97 C 242.94 127.62 242.95 123.28 242.99 118.94 C 242.86 117.44 242.58 114.45 242.44 112.96 C 242.04 111.54 241.60 110.13 241.12 108.74 L 240.89 108.00 C 241.39 106.28 241.49 104.30 240.22 102.87 L 239.86 102.16 C 240.42 100.73 240.44 98.96 239.12 97.93 L 238.90 97.19 C 238.12 94.04 237.17 90.95 236.04 87.91 C 235.61 86.71 235.19 85.51 234.80 84.30 C 233.44 78.32 231.63 72.12 227.00 67.83 L 226.72 67.19 C 226.61 65.43 226.35 63.10 224.17 62.85 C 222.49 60.77 220.98 58.56 219.71 56.20 C 219.37 54.24 217.92 52.86 216.24 51.94 L 216.00 51.19 C 215.70 48.84 213.46 47.68 211.97 46.11 C 210.47 43.06 208.46 39.75 204.89 38.98 C 203.11 37.11 201.63 34.76 199.02 33.96 L 198.36 33.63 C 192.64 28.56 186.18 23.12 178.56 21.36 C 177.10 20.56 175.65 19.76 174.20 18.93 C 172.53 17.06 170.07 16.54 167.69 16.23 C 164.41 15.40 161.22 14.26 158.10 12.96 C 154.54 11.22 150.65 10.57 146.75 10.19 C 146.33 10.09 145.51 9.91 145.09 9.82 C 144.02 8.59 142.33 8.59 140.90 9.09 C 140.24 9.01 138.91 8.86 138.25 8.78 C 129.47 7.68 120.50 7.45 111.73 8.73 C 111.10 8.83 109.83 9.04 109.19 9.15 C 105.92 9.20 102.67 9.47 99.67 10.84 C 99.26 10.92 98.42 11.08 98.00 11.16 C 95.82 10.63 93.71 11.50 92.07 12.91 C 89.86 13.83 87.60 14.61 85.31 15.26 C 78.65 16.62 71.89 19.50 66.66 23.77 C 65.92 24.29 65.18 24.80 64.43 25.30 C 62.22 25.93 59.81 26.68 58.74 28.93 C 57.60 29.76 56.44 30.58 55.26 31.35 C 53.02 31.25 51.39 32.67 50.98 34.83 L 50.20 35.02 C 44.60 38.51 38.51 44.60 35.02 50.20 L 34.83 50.98 C 32.68 51.39 31.19 53.02 31.42 55.28 C 30.85 56.62 30.04 57.83 28.94 58.80 C 26.72 59.79 26.01 62.17 25.20 64.25 L 24.71 64.73 C 21.83 66.67 21.09 70.18 20.29 73.32 L 19.87 73.89 C 17.16 77.09 15.90 81.23 15.26 85.31 C 14.62 87.53 13.88 89.73 13.00 91.87 C 11.59 94.11 10.93 96.65 11.29 99.29 C 10.90 100.89 10.47 102.48 9.96 104.05 C 9.18 104.95 8.68 105.99 8.44 107.17 C 7.79 108.68 7.68 110.35 8.11 111.94 C 8.03 112.65 7.88 114.06 7.81 114.77 C 7.31 122.53 5.55 130.83 7.87 138.44 L 8.18 139.42 C 1.27 143.97 3.59 151.34 4.90 158.16 C 1.62 151.37 2.16 143.54 0.00 136.43 L 0.00 113.57 C 2.02 106.12 2.39 98.27 4.82 90.91 C 18.16 41.63 63.93 4.81 114.43 0.00 Z" />
<path fill="#f6af4b" opacity="1.00" d=" M 185.00 124.98 C 189.41 121.92 197.17 121.97 194.13 130.26 L 193.60 130.94 C 192.40 131.90 191.78 133.30 191.85 134.84 L 191.64 135.83 C 190.46 136.80 189.80 138.17 189.90 139.71 L 189.77 140.60 C 188.02 143.20 186.47 145.95 185.96 149.08 C 185.82 150.08 185.43 150.97 184.80 151.75 C 179.85 159.81 175.15 168.05 170.03 176.01 L 169.61 176.54 C 159.32 188.31 148.77 199.97 136.41 209.64 L 135.80 210.08 C 134.67 210.73 133.72 211.62 132.95 212.67 C 131.91 213.78 130.71 214.80 129.23 215.25 C 126.21 216.92 122.82 217.31 119.98 215.04 L 119.42 214.61 C 117.76 213.16 115.86 211.97 113.77 211.29 C 112.03 211.07 110.69 210.28 110.20 208.53 C 109.82 207.08 108.39 206.56 107.13 206.14 L 106.41 205.83 C 104.37 203.35 101.53 201.83 98.88 200.11 L 98.31 199.72 C 96.05 196.98 93.31 194.72 90.68 192.37 C 97.47 193.42 105.47 191.26 111.06 196.15 L 111.71 196.60 C 112.34 197.85 113.61 198.47 114.90 198.83 L 115.64 199.12 C 117.07 201.59 119.22 203.41 122.03 204.10 C 123.60 204.99 125.41 205.06 127.02 204.22 C 140.34 195.66 151.83 183.74 161.44 171.04 C 162.56 169.97 163.32 168.62 163.95 167.21 C 164.67 166.21 165.53 165.31 166.24 164.29 C 169.22 159.79 171.91 155.08 174.33 150.25 C 174.98 148.94 175.65 147.63 176.31 146.31 C 177.81 143.36 179.12 140.31 180.34 137.23 C 182.15 133.26 183.94 129.24 185.00 124.98 Z" />
<path fill="#f6af4b" opacity="1.00" d=" M 66.05 124.95 C 72.89 124.34 64.40 130.78 63.17 133.20 C 62.04 134.63 61.65 136.45 61.09 138.16 C 60.30 139.49 60.66 142.42 59.21 142.77 C 58.24 142.34 57.67 143.28 57.06 143.86 C 56.84 143.67 56.40 143.29 56.17 143.10 L 56.03 141.97 C 56.17 140.31 56.12 138.60 55.42 137.06 L 55.14 136.18 C 54.94 132.72 54.95 129.24 55.02 125.78 C 56.87 125.92 58.60 126.55 59.89 127.93 C 60.17 128.16 60.74 128.60 61.02 128.83 C 62.74 130.11 64.20 127.72 64.16 126.18 C 64.63 125.88 65.58 125.26 66.05 124.95 Z" />
<path fill="#f6af4b" opacity="1.00" d=" M 87.68 126.96 C 88.47 126.83 89.26 126.71 90.05 126.62 C 91.11 130.65 98.95 138.59 98.03 129.91 C 98.22 129.33 98.60 128.17 98.79 127.59 C 98.98 129.34 99.03 131.30 101.23 131.52 C 99.92 133.54 98.49 135.53 97.67 137.81 C 97.87 140.53 95.07 145.78 99.03 146.98 C 101.17 147.75 103.45 147.98 105.70 148.16 C 105.29 151.40 107.83 151.27 110.18 150.51 C 111.56 150.18 112.95 149.86 114.26 149.31 C 122.28 148.16 118.57 136.86 112.39 135.54 C 107.85 134.46 104.46 128.10 111.67 130.11 C 112.03 130.30 112.75 130.68 113.11 130.87 C 116.60 132.81 121.27 134.16 124.93 131.99 C 125.27 131.83 125.96 131.52 126.30 131.36 C 129.11 130.39 132.44 130.27 134.49 127.84 C 135.06 128.47 135.62 129.10 136.16 129.75 C 134.31 131.37 132.38 132.90 130.57 134.58 L 130.00 134.93 C 127.20 136.08 125.17 138.27 123.82 140.92 L 123.42 141.52 C 118.54 146.98 125.63 149.22 129.94 150.26 C 131.16 150.46 133.11 151.72 133.81 150.02 C 135.27 146.58 140.46 149.33 142.41 146.14 C 143.96 145.03 142.24 143.31 141.10 142.73 L 141.53 142.03 C 143.99 143.06 146.51 148.94 148.71 146.21 C 148.84 144.41 147.69 142.87 146.26 141.92 L 146.02 140.89 C 145.95 139.55 145.08 138.54 144.11 137.73 C 144.20 136.40 144.68 135.15 145.03 133.88 C 145.56 134.10 146.63 134.54 147.16 134.76 C 147.57 135.11 148.39 135.82 148.80 136.17 C 150.58 139.01 152.51 141.77 154.89 144.15 C 157.30 152.44 160.06 162.18 155.04 170.04 L 154.65 170.63 C 152.36 174.03 149.45 176.91 146.62 179.86 L 145.91 180.36 C 145.65 179.83 145.14 178.77 144.88 178.25 C 145.33 177.25 145.78 176.25 146.24 175.26 C 148.33 170.44 149.45 165.16 149.00 159.89 C 147.23 159.70 145.86 161.15 146.01 162.90 C 145.76 164.23 146.13 165.90 144.76 166.73 C 141.23 172.62 141.92 160.36 138.74 167.00 L 138.43 167.92 C 137.21 169.27 136.17 170.88 136.09 172.75 L 135.93 173.67 C 133.84 174.51 129.46 180.45 129.87 175.48 C 131.70 172.24 130.67 167.18 133.78 164.68 C 133.34 166.91 136.77 168.15 136.20 165.25 C 136.61 162.11 136.89 158.99 137.24 155.86 C 139.67 157.44 144.92 163.53 141.96 154.11 C 138.36 149.32 128.43 154.10 122.76 151.22 C 119.88 150.80 117.07 151.69 114.27 152.21 C 108.39 154.01 96.73 148.66 100.03 158.81 C 106.98 154.76 101.39 168.20 105.92 165.00 C 106.72 164.42 107.51 163.83 108.28 163.23 C 107.51 164.81 107.72 166.68 108.77 168.09 L 109.11 168.83 C 108.60 170.29 108.58 172.02 109.79 173.16 L 109.91 174.02 C 110.25 176.75 110.82 179.45 110.98 182.20 C 109.32 180.44 107.97 178.42 106.44 176.56 L 106.08 175.96 C 104.78 173.45 102.93 170.56 99.94 170.02 L 99.13 169.77 C 96.05 166.93 93.15 163.83 91.68 159.84 C 95.12 160.46 97.07 159.36 95.40 155.73 C 95.32 155.32 95.14 154.49 95.06 154.08 C 93.48 148.45 96.18 141.31 92.26 136.72 C 91.63 135.90 90.85 135.42 89.91 135.26 C 88.36 134.96 87.73 136.90 87.13 137.97 L 86.68 138.80 C 85.75 139.55 84.92 140.53 85.02 141.82 L 84.90 142.70 C 83.92 143.85 82.93 144.99 81.89 146.09 C 82.13 141.95 83.39 137.96 85.21 134.26 C 87.13 132.27 88.41 129.80 87.68 126.96 Z" />
<path fill="#f6af4b" opacity="1.00" d=" M 69.99 133.03 C 71.78 131.53 73.62 130.08 75.61 128.84 L 75.86 129.64 C 75.08 131.37 74.35 133.13 73.75 134.94 L 73.49 135.63 C 71.19 142.17 70.44 149.50 72.62 156.20 C 72.87 157.95 73.72 159.50 74.62 160.99 L 75.04 161.96 C 73.96 164.44 77.83 164.81 76.97 162.15 C 78.96 158.46 79.22 161.74 79.62 164.28 L 79.76 165.05 C 80.33 168.95 82.00 172.74 84.67 175.65 L 85.25 176.34 C 86.07 177.37 87.00 178.30 87.98 179.17 C 86.10 170.67 85.62 161.96 86.07 153.27 C 88.95 144.86 87.84 158.13 88.72 161.39 C 88.78 162.94 88.94 164.50 89.48 165.97 C 89.90 167.38 90.25 168.82 90.73 170.22 C 91.81 173.81 93.52 177.19 95.89 180.12 C 98.00 183.38 100.61 186.32 102.36 189.81 C 101.51 189.73 99.81 189.59 98.96 189.51 C 97.43 188.91 95.79 188.80 94.18 189.01 C 91.50 189.71 87.87 186.72 85.87 188.77 C 84.16 191.73 83.33 195.38 80.46 197.51 C 80.38 196.90 80.23 195.68 80.15 195.06 C 80.32 189.77 79.61 184.02 76.21 179.74 C 75.58 178.97 75.17 178.10 74.95 177.13 C 73.95 173.38 72.56 169.70 70.30 166.52 L 70.02 165.56 C 68.14 161.21 66.06 169.81 63.06 170.24 C 62.85 161.91 62.64 153.52 64.25 145.30 C 64.55 144.28 64.90 143.28 65.29 142.30 C 66.85 139.20 68.38 136.10 69.99 133.03 Z" />
<path fill="#f6af4b" opacity="1.00" d=" M 142.22 129.09 C 142.46 129.58 142.92 130.54 143.16 131.03 C 142.58 132.62 141.35 134.61 139.91 132.50 C 140.71 131.38 141.55 130.29 142.22 129.09 Z" />
<path fill="#f6af4b" opacity="1.00" d=" M 5.14 158.91 C 6.56 162.63 8.09 166.38 8.74 170.33 C 5.94 167.23 6.26 162.70 5.14 158.91 Z" />
<path fill="#f6af4b" opacity="1.00" d=" M 241.27 171.24 C 241.80 167.27 242.52 163.14 245.03 159.89 C 244.21 163.78 243.59 167.90 241.27 171.24 Z" />
<path fill="#f6af4b" opacity="1.00" d=" M 124.05 167.94 C 126.63 174.64 127.14 161.36 128.88 160.68 C 129.24 162.55 129.74 164.39 130.20 166.23 C 129.82 168.44 129.30 170.61 128.75 172.78 C 125.26 178.73 121.39 184.84 121.76 192.08 C 118.51 191.51 117.34 187.84 115.36 185.61 L 114.97 185.01 C 114.28 181.71 109.79 175.82 113.66 173.89 C 114.30 175.35 115.02 176.77 115.91 178.10 C 116.10 179.58 118.72 181.31 119.02 178.99 C 119.74 175.61 120.43 172.23 121.07 168.84 C 121.79 167.83 122.45 166.44 123.94 166.77 L 124.05 167.94 Z" />
<path fill="#f6af4b" opacity="1.00" d=" M 236.15 182.25 C 236.02 178.22 238.70 174.99 240.96 171.93 C 239.79 175.55 238.02 178.94 236.15 182.25 Z" />
<path fill="#f6af4b" opacity="1.00" d=" M 10.95 175.92 C 12.86 178.83 14.67 181.83 15.98 185.06 C 13.04 182.84 11.69 179.44 10.95 175.92 Z" />
<path fill="#f6af4b" opacity="1.00" d=" M 230.06 192.06 C 231.44 189.48 232.71 186.75 234.83 184.68 C 234.06 187.60 233.24 190.94 230.06 192.06 Z" />
<path fill="#f6af4b" opacity="1.00" d=" M 16.32 185.68 C 19.76 189.74 22.57 194.34 24.94 199.09 C 20.73 195.78 17.93 190.75 16.32 185.68 Z" />
<path fill="#f6af4b" opacity="1.00" d=" M 226.02 198.08 C 226.63 195.91 227.94 194.05 229.71 192.67 C 229.18 194.91 227.87 196.73 226.02 198.08 Z" />
<path fill="#f6af4b" opacity="1.00" d=" M 212.76 213.74 C 216.91 208.61 220.68 203.06 225.70 198.70 C 219.35 209.88 209.85 219.35 198.68 225.80 C 202.61 221.00 207.91 217.53 212.76 213.74 Z" />
<path fill="#f6af4b" opacity="1.00" d=" M 25.31 199.69 C 32.04 207.13 40.17 213.71 46.24 221.96 C 38.83 215.39 29.77 208.97 25.31 199.69 Z" />
<path fill="#f6af4b" opacity="1.00" d=" M 46.94 222.24 C 49.26 221.69 51.14 223.57 51.01 225.85 C 49.19 225.26 47.87 223.86 46.94 222.24 Z" />
<path fill="#f6af4b" opacity="1.00" d=" M 51.61 226.17 C 53.75 226.91 56.06 227.72 57.23 229.83 C 55.11 229.03 52.93 228.12 51.61 226.17 Z" />
<path fill="#f6af4b" opacity="1.00" d=" M 194.81 228.79 C 194.87 226.99 196.57 226.27 198.12 226.14 C 198.18 228.00 196.42 228.79 194.81 228.79 Z" />
<path fill="#f6af4b" opacity="1.00" d=" M 186.73 233.92 C 188.65 231.58 191.13 229.67 194.15 229.02 C 192.12 231.28 189.72 233.16 186.73 233.92 Z" />
<path fill="#f6af4b" opacity="1.00" d=" M 57.74 230.28 C 60.74 230.84 63.66 232.13 65.28 234.87 C 62.58 233.70 59.81 232.44 57.74 230.28 Z" />
<path fill="#f6af4b" opacity="1.00" d=" M 67.71 236.19 C 70.75 236.82 73.85 237.76 76.20 239.90 C 73.10 239.38 70.06 238.37 67.71 236.19 Z" />
<path fill="#f6af4b" opacity="1.00" d=" M 78.67 241.28 C 81.30 241.73 84.43 241.64 86.16 244.05 C 83.58 243.39 80.87 242.89 78.67 241.28 Z" />
<path fill="#f6af4b" opacity="1.00" d=" M 167.03 243.09 C 167.78 241.52 169.52 240.76 171.19 241.24 C 170.41 242.83 168.72 243.48 167.03 243.09 Z" />
<path fill="#f6af4b" opacity="1.00" d=" M 98.87 247.26 C 100.29 246.62 102.10 246.52 103.17 247.87 C 101.72 248.40 100.02 248.41 98.87 247.26 Z" />
<path fill="#f6af4b" opacity="1.00" d=" M 141.74 248.85 C 144.77 247.62 147.99 246.84 151.28 247.26 C 148.22 248.34 145.02 249.07 141.74 248.85 Z" />
<path fill="#f6af4b" opacity="1.00" d=" M 103.88 248.22 C 105.63 247.63 107.72 247.45 109.17 248.84 C 107.40 249.37 105.37 249.49 103.88 248.22 Z" />
<path fill="#f6af4b" opacity="1.00" d=" M 109.96 249.30 C 111.60 248.33 113.83 248.43 115.06 250.00 L 110.26 250.00 L 109.96 249.30 Z" />
<path fill="#f6af4b" opacity="1.00" d=" M 133.84 250.00 C 135.36 249.77 138.42 249.31 139.95 249.09 L 139.79 250.00 L 133.84 250.00 Z" />
</g>
<g id="#77442dff">
<path fill="#77442d" opacity="1.00" d=" M 111.73 8.73 C 120.50 7.45 129.47 7.68 138.25 8.78 C 129.41 8.92 120.56 9.29 111.73 8.73 Z" />
<path fill="#77442d" opacity="1.00" d=" M 99.67 10.84 C 102.67 9.47 105.92 9.20 109.19 9.15 C 106.08 10.07 102.93 10.89 99.67 10.84 Z" />
<path fill="#77442d" opacity="1.00" d=" M 140.90 9.09 C 142.33 8.59 144.02 8.59 145.09 9.82 C 143.69 10.38 141.85 10.51 140.90 9.09 Z" />
<path fill="#77442d" opacity="1.00" d=" M 146.75 10.19 C 150.65 10.57 154.54 11.22 158.10 12.96 C 154.25 12.32 150.44 11.48 146.75 10.19 Z" />
<path fill="#77442d" opacity="1.00" d=" M 92.07 12.91 C 93.71 11.50 95.82 10.63 98.00 11.16 C 96.54 12.98 94.29 13.58 92.07 12.91 Z" />
<path fill="#77442d" opacity="1.00" d=" M 66.66 23.77 C 71.89 19.50 78.65 16.62 85.31 15.26 C 79.29 18.48 73.10 21.50 66.66 23.77 Z" />
<path fill="#77442d" opacity="1.00" d=" M 167.69 16.23 C 170.07 16.54 172.53 17.06 174.20 18.93 C 171.88 18.44 169.56 17.74 167.69 16.23 Z" />
<path fill="#77442d" opacity="1.00" d=" M 178.56 21.36 C 186.18 23.12 192.64 28.56 198.36 33.63 C 191.21 30.47 185.35 25.13 178.56 21.36 Z" />
<path fill="#77442d" opacity="1.00" d=" M 58.74 28.93 C 59.81 26.68 62.22 25.93 64.43 25.30 C 62.92 27.04 60.85 28.09 58.74 28.93 Z" />
<path fill="#77442d" opacity="1.00" d=" M 50.98 34.83 C 51.39 32.67 53.02 31.25 55.26 31.35 C 54.44 33.05 53.10 34.93 50.98 34.83 Z" />
<path fill="#77442d" opacity="1.00" d=" M 199.02 33.96 C 201.63 34.76 203.11 37.11 204.89 38.98 C 207.11 41.49 209.40 43.96 211.97 46.11 C 213.46 47.68 215.70 48.84 216.00 51.19 C 209.22 46.68 203.75 40.52 199.02 33.96 Z" />
<path fill="#77442d" opacity="1.00" d=" M 35.02 50.20 C 38.51 44.60 44.60 38.51 50.20 35.02 C 45.86 40.79 40.79 45.85 35.02 50.20 Z" />
<path fill="#77442d" opacity="1.00" d=" M 111.84 49.23 C 116.05 46.20 123.55 45.93 129.00 43.93 C 129.52 49.30 122.83 53.71 117.84 53.92 C 121.77 51.65 125.80 49.16 128.36 45.31 C 122.90 46.83 117.45 48.40 111.84 49.23 Z" />
<path fill="#77442d" opacity="1.00" d=" M 164.88 45.79 C 167.18 43.27 169.56 52.83 166.21 50.87 C 165.93 44.18 162.08 52.56 159.21 53.28 C 140.60 61.08 115.76 51.66 100.23 67.30 C 101.34 60.61 110.16 60.12 115.05 58.02 C 130.88 53.03 153.80 61.73 164.88 45.79 Z" />
<path fill="#77442d" opacity="1.00" d=" M 107.20 50.07 C 106.96 48.19 110.17 48.29 110.98 49.47 C 109.80 50.04 108.49 50.19 107.20 50.07 Z" />
<path fill="#77442d" opacity="1.00" d=" M 75.11 60.08 C 82.59 51.09 95.79 51.73 106.32 50.21 C 97.91 53.26 87.92 52.27 80.30 57.30 C 73.35 61.05 68.04 72.12 76.56 77.27 C 75.91 73.31 76.20 65.94 81.77 65.97 C 81.61 71.60 83.13 76.92 87.31 80.75 C 81.08 79.44 81.09 71.94 80.87 66.94 C 74.27 69.25 81.26 79.89 74.20 77.86 C 70.20 73.02 69.58 64.18 75.11 60.08 Z" />
<path fill="#77442d" opacity="1.00" d=" M 31.42 55.28 C 31.19 53.02 32.68 51.39 34.83 50.98 C 34.94 53.09 33.06 54.39 31.42 55.28 Z" />
<path fill="#77442d" opacity="1.00" d=" M 144.70 64.64 C 153.60 64.39 162.92 61.02 165.84 51.74 C 165.29 62.24 153.66 66.56 144.70 64.64 Z" />
<path fill="#77442d" opacity="1.00" d=" M 216.24 51.94 C 217.92 52.86 219.37 54.24 219.71 56.20 C 217.55 55.96 215.70 54.25 216.24 51.94 Z" />
<path fill="#77442d" opacity="1.00" d=" M 168.26 63.68 C 159.42 67.44 168.12 50.41 171.01 53.70 C 168.63 55.67 162.38 63.47 168.26 63.68 Z" />
<path fill="#77442d" opacity="1.00" d=" M 171.98 54.31 C 173.72 53.49 177.11 54.24 177.69 56.04 C 175.59 56.27 173.58 55.69 171.98 54.31 Z" />
<path fill="#77442d" opacity="1.00" d=" M 98.73 59.64 C 102.50 57.44 106.79 56.43 111.11 56.01 C 108.05 58.64 102.79 59.38 98.73 59.64 Z" />
<path fill="#77442d" opacity="1.00" d=" M 178.52 56.28 C 180.99 56.52 184.87 56.79 185.93 59.22 C 183.31 58.68 180.74 57.81 178.52 56.28 Z" />
<path fill="#77442d" opacity="1.00" d=" M 25.20 64.25 C 26.01 62.17 26.72 59.79 28.94 58.80 C 28.02 60.82 27.18 63.02 25.20 64.25 Z" />
<path fill="#77442d" opacity="1.00" d=" M 186.66 59.44 C 193.28 59.64 198.96 63.75 204.96 66.10 C 206.03 67.36 207.77 76.46 205.02 77.02 C 205.08 73.87 204.94 70.71 204.66 67.57 C 198.89 64.33 192.56 62.35 186.66 59.44 Z" />
<path fill="#77442d" opacity="1.00" d=" M 89.53 73.26 C 87.20 66.83 91.74 60.75 98.02 59.90 C 93.50 63.07 89.00 66.83 89.53 73.26 Z" />
<path fill="#77442d" opacity="1.00" d=" M 224.17 62.85 C 226.35 63.10 226.61 65.43 226.72 67.19 C 224.66 66.78 224.41 64.56 224.17 62.85 Z" />
<path fill="#77442d" opacity="1.00" d=" M 169.05 63.83 C 174.05 64.47 178.96 66.09 183.19 68.86 C 178.48 68.09 172.65 66.23 169.05 63.83 Z" />
<path fill="#77442d" opacity="1.00" d=" M 20.29 73.32 C 21.09 70.18 21.83 66.67 24.71 64.73 C 23.57 67.73 22.67 71.02 20.29 73.32 Z" />
<path fill="#77442d" opacity="1.00" d=" M 109.62 74.16 C 112.57 62.46 128.20 64.80 137.00 65.01 C 128.92 66.25 115.48 63.96 109.62 74.16 Z" />
<path fill="#77442d" opacity="1.00" d=" M 99.50 76.48 C 98.21 82.33 94.58 68.21 99.88 67.92 C 99.20 70.59 96.40 74.41 99.50 76.48 Z" />
<path fill="#77442d" opacity="1.00" d=" M 227.00 67.83 C 231.63 72.12 233.44 78.32 234.80 84.30 C 231.37 79.28 229.40 73.39 227.00 67.83 Z" />
<path fill="#77442d" opacity="1.00" d=" M 99.79 75.27 C 99.66 72.78 102.86 66.99 104.78 69.61 C 102.74 71.15 101.48 73.41 99.79 75.27 Z" />
<path fill="#77442d" opacity="1.00" d=" M 123.17 69.99 C 123.02 68.17 126.14 68.32 126.98 69.44 C 125.81 70.07 124.47 70.21 123.17 69.99 Z" />
<path fill="#77442d" opacity="1.00" d=" M 135.10 69.46 C 136.56 68.21 140.53 67.84 140.93 70.18 C 139.47 70.00 136.56 69.64 135.10 69.46 Z" />
<path fill="#77442d" opacity="1.00" d=" M 116.00 78.09 C 115.41 74.39 117.85 69.18 122.21 69.96 C 120.20 71.35 118.20 72.97 117.30 75.33 C 117.95 77.15 131.40 69.06 129.19 74.63 C 124.49 72.98 120.51 77.33 116.00 78.09 Z" />
<path fill="#77442d" opacity="1.00" d=" M 141.90 70.42 C 142.80 69.33 145.99 69.20 145.79 71.09 C 144.45 71.17 143.11 71.02 141.90 70.42 Z" />
<path fill="#77442d" opacity="1.00" d=" M 186.85 70.13 C 193.52 70.60 197.79 75.21 194.32 82.24 C 197.76 73.88 190.90 73.77 186.85 70.13 Z" />
<path fill="#77442d" opacity="1.00" d=" M 146.67 71.24 C 156.91 71.82 166.97 73.51 177.05 70.98 C 176.44 75.69 170.54 79.66 165.76 78.85 C 169.78 77.57 173.24 75.14 176.03 72.02 C 166.41 75.45 156.32 73.07 146.67 71.24 Z" />
<path fill="#77442d" opacity="1.00" d=" M 104.95 76.79 C 103.17 77.04 103.20 72.94 104.98 73.22 C 105.08 74.41 105.07 75.60 104.95 76.79 Z" />
<path fill="#77442d" opacity="1.00" d=" M 15.26 85.31 C 15.90 81.23 17.16 77.09 19.87 73.89 C 19.02 77.93 17.60 81.88 15.26 85.31 Z" />
<path fill="#77442d" opacity="1.00" d=" M 89.69 74.04 C 92.16 77.31 97.39 79.26 97.07 83.98 C 94.35 83.20 89.44 84.45 87.98 81.01 C 90.67 81.81 93.35 82.69 96.14 83.07 C 94.58 79.57 89.90 78.19 89.69 74.04 Z" />
<path fill="#77442d" opacity="1.00" d=" M 109.44 79.95 C 109.42 78.72 109.38 76.26 109.35 75.04 C 110.96 76.01 111.05 78.93 109.44 79.95 Z" />
<path fill="#77442d" opacity="1.00" d=" M 121.21 80.28 C 121.52 76.69 125.36 75.33 128.47 75.17 C 126.09 76.93 123.56 78.47 121.21 80.28 Z" />
<path fill="#77442d" opacity="1.00" d=" M 50.10 83.15 C 53.13 75.43 65.48 74.96 72.32 77.70 C 74.78 80.62 68.81 81.38 66.80 80.79 C 69.15 79.72 76.21 76.64 66.52 77.41 C 60.48 76.19 54.65 79.47 50.10 83.15 Z" />
<path fill="#77442d" opacity="1.00" d=" M 131.80 78.85 C 136.30 76.69 141.53 78.57 146.26 78.74 C 141.44 78.94 136.61 79.17 131.80 78.85 Z" />
<path fill="#77442d" opacity="1.00" d=" M 105.15 78.70 C 107.29 81.92 112.49 88.82 109.81 80.79 C 111.96 82.03 112.18 84.85 112.01 87.09 C 108.00 86.70 105.46 82.35 105.15 78.70 Z" />
<path fill="#77442d" opacity="1.00" d=" M 148.98 78.97 C 154.29 79.05 159.60 79.00 164.92 78.99 C 162.92 80.17 151.12 81.57 148.98 78.97 Z" />
<path fill="#77442d" opacity="1.00" d=" M 119.97 83.12 C 119.16 89.46 125.21 78.57 129.11 80.02 C 125.13 82.49 122.11 85.76 119.11 89.26 C 119.32 87.73 119.75 84.66 119.97 83.12 Z" />
<path fill="#77442d" opacity="1.00" d=" M 203.89 86.73 C 203.79 84.50 204.01 82.29 204.56 80.11 C 205.55 81.84 206.30 86.16 203.89 86.73 Z" />
<path fill="#77442d" opacity="1.00" d=" M 58.52 84.52 C 60.69 82.72 63.37 81.73 66.06 81.01 C 64.63 83.74 61.27 84.15 58.52 84.52 Z" />
<path fill="#77442d" opacity="1.00" d=" M 133.89 81.90 C 146.24 77.39 158.72 91.42 169.91 94.22 C 156.78 93.54 147.68 79.84 133.89 81.90 Z" />
<path fill="#77442d" opacity="1.00" d=" M 131.34 84.60 C 128.60 83.52 130.40 81.00 132.86 81.90 C 132.74 82.36 132.49 83.29 132.36 83.75 C 137.52 85.64 143.38 86.63 147.46 90.59 C 141.95 89.03 136.87 86.18 131.34 84.60 Z" />
<path fill="#77442d" opacity="1.00" d=" M 73.14 83.93 C 72.49 80.94 87.30 83.54 79.29 84.76 C 77.75 84.55 74.67 84.13 73.14 83.93 Z" />
<path fill="#77442d" opacity="1.00" d=" M 99.34 83.34 C 104.48 80.94 101.43 90.64 97.90 89.86 C 99.10 87.99 100.27 86.10 101.23 84.10 C 93.84 89.14 85.43 92.31 76.98 95.08 C 83.08 89.53 93.36 89.64 99.34 83.34 Z" />
<path fill="#77442d" opacity="1.00" d=" M 190.38 105.32 C 190.38 98.26 191.93 88.26 194.23 83.09 C 193.58 90.59 192.46 98.08 190.38 105.32 Z" />
<path fill="#77442d" opacity="1.00" d=" M 45.98 92.98 C 47.38 90.62 45.70 83.71 49.79 83.86 C 48.43 88.05 45.24 93.63 48.54 97.46 C 50.92 101.99 40.46 95.55 45.98 92.98 Z" />
<path fill="#77442d" opacity="1.00" d=" M 55.45 99.49 C 56.07 91.17 64.27 84.44 72.31 84.22 C 64.76 86.85 58.56 92.03 55.45 99.49 Z" />
<path fill="#77442d" opacity="1.00" d=" M 48.79 96.26 C 49.25 91.08 53.99 87.70 57.97 84.92 C 56.53 89.29 51.43 92.15 48.79 96.26 Z" />
<path fill="#77442d" opacity="1.00" d=" M 65.74 94.03 C 67.36 89.66 71.67 86.95 76.08 85.97 C 72.79 88.84 69.31 91.52 65.74 94.03 Z" />
<path fill="#77442d" opacity="1.00" d=" M 201.03 104.11 C 201.45 98.55 202.66 93.09 203.76 87.64 C 203.13 92.92 204.37 99.72 201.03 104.11 Z" />
<path fill="#77442d" opacity="1.00" d=" M 236.04 87.91 C 237.17 90.95 238.12 94.04 238.90 97.19 C 237.86 94.12 236.91 91.03 236.04 87.91 Z" />
<path fill="#77442d" opacity="1.00" d=" M 64.94 111.98 C 72.53 100.81 85.75 96.14 97.17 90.12 C 90.86 96.51 80.28 99.09 72.98 105.01 C 70.37 107.25 68.74 111.67 64.94 111.98 Z" />
<path fill="#77442d" opacity="1.00" d=" M 148.01 90.99 C 150.17 92.14 152.68 92.82 154.37 94.69 C 152.19 93.83 147.74 94.19 148.01 90.99 Z" />
<path fill="#77442d" opacity="1.00" d=" M 11.29 99.29 C 10.93 96.65 11.59 94.11 13.00 91.87 C 12.86 94.43 12.23 96.91 11.29 99.29 Z" />
<path fill="#77442d" opacity="1.00" d=" M 170.74 94.30 C 173.76 95.65 184.24 90.98 183.79 95.74 C 175.68 99.15 164.14 101.24 156.86 96.09 C 164.82 98.68 173.58 98.46 181.39 95.44 C 178.72 95.16 173.40 94.59 170.74 94.30 Z" />
<path fill="#77442d" opacity="1.00" d=" M 63.91 97.80 C 63.48 96.52 64.22 95.27 65.37 94.72 C 66.27 95.68 65.37 98.24 63.91 97.80 Z" />
<path fill="#77442d" opacity="1.00" d=" M 65.90 99.95 C 68.32 96.97 72.65 95.86 76.31 95.36 C 73.17 97.52 69.63 99.15 65.90 99.95 Z" />
<path fill="#77442d" opacity="1.00" d=" M 95.12 99.03 C 94.78 96.49 102.21 97.33 101.91 98.96 C 96.70 98.69 93.75 98.92 99.09 100.57 C 96.42 101.63 93.60 102.20 90.85 103.01 C 90.09 99.48 95.61 102.50 95.12 99.03 Z" />
<path fill="#77442d" opacity="1.00" d=" M 140.01 100.05 C 140.84 97.60 145.31 98.20 146.87 98.05 C 149.86 97.85 145.83 106.21 153.07 101.21 C 153.99 105.74 143.84 112.70 143.85 106.08 C 141.58 107.92 138.96 109.18 135.97 108.76 C 135.34 104.46 141.89 107.48 144.60 105.03 C 144.05 112.87 158.58 98.56 147.45 101.45 C 144.70 101.56 145.36 100.32 146.88 98.82 C 144.57 99.11 142.29 99.60 140.01 100.05 Z" />
<path fill="#77442d" opacity="1.00" d=" M 239.12 97.93 C 240.44 98.96 240.42 100.73 239.86 102.16 C 238.57 101.11 238.60 99.37 239.12 97.93 Z" />
<path fill="#77442d" opacity="1.00" d=" M 102.75 99.17 C 107.70 98.56 111.55 105.50 116.36 101.46 C 118.87 99.42 118.27 103.82 116.34 103.76 C 111.22 104.81 106.80 101.95 102.75 99.17 Z" />
<path fill="#77442d" opacity="1.00" d=" M 128.66 101.42 C 132.28 104.73 135.46 100.05 139.30 100.30 C 136.58 104.00 131.23 102.73 128.59 104.85 C 126.01 103.94 124.68 99.35 128.66 101.42 Z" />
<path fill="#77442d" opacity="1.00" d=" M 40.91 119.94 C 46.96 115.19 48.90 107.06 54.12 101.96 C 52.50 108.54 47.28 113.58 44.64 119.33 C 44.69 120.91 41.94 119.61 40.91 119.94 Z" />
<path fill="#77442d" opacity="1.00" d=" M 240.22 102.87 C 241.49 104.30 241.39 106.28 240.89 108.00 C 239.41 106.67 239.60 104.57 240.22 102.87 Z" />
<path fill="#77442d" opacity="1.00" d=" M 8.44 107.17 C 8.68 105.99 9.18 104.95 9.96 104.05 C 10.31 105.67 10.40 107.46 9.42 108.89 C 9.17 108.46 8.68 107.60 8.44 107.17 Z" />
<path fill="#77442d" opacity="1.00" d=" M 92.78 105.23 C 95.11 106.05 97.36 107.10 99.60 108.15 C 99.93 110.07 93.05 107.83 92.78 105.23 Z" />
<path fill="#77442d" opacity="1.00" d=" M 99.83 106.96 C 99.85 102.05 106.57 109.29 108.80 107.34 C 109.20 112.00 108.66 122.95 110.79 113.58 C 110.92 116.13 112.14 120.37 108.07 118.98 C 108.03 116.28 107.95 110.87 107.91 108.17 C 103.09 111.98 103.07 104.71 99.83 106.96 Z" />
<path fill="#77442d" opacity="1.00" d=" M 129.25 105.51 C 135.19 111.10 133.15 120.55 134.49 127.84 C 132.44 130.27 129.11 130.39 126.30 131.36 C 126.26 128.53 131.25 129.74 132.96 127.81 C 133.49 120.18 132.13 112.56 129.25 105.51 Z" />
<path fill="#77442d" opacity="1.00" d=" M 111.01 112.72 C 111.41 110.95 111.65 108.78 113.43 107.82 C 113.91 109.48 113.25 112.96 111.01 112.72 Z" />
<path fill="#77442d" opacity="1.00" d=" M 241.12 108.74 C 241.60 110.13 242.04 111.54 242.44 112.96 C 241.95 114.37 241.64 115.81 241.50 117.29 C 240.86 114.49 241.19 111.58 241.12 108.74 Z" />
<path fill="#77442d" opacity="1.00" d=" M 186.35 119.33 C 186.21 116.30 186.96 111.69 189.29 110.07 C 188.86 113.31 187.78 116.41 186.35 119.33 Z" />
<path fill="#77442d" opacity="1.00" d=" M 8.11 111.94 L 8.81 111.88 C 9.02 120.89 9.04 129.90 8.99 138.92 L 8.18 139.42 L 7.87 138.44 C 7.99 130.55 7.97 122.66 7.81 114.77 C 7.88 114.06 8.03 112.65 8.11 111.94 Z" />
<path fill="#77442d" opacity="1.00" d=" M 60.96 121.11 C 61.67 118.08 62.04 114.72 64.50 112.51 C 63.44 115.39 63.89 119.39 60.96 121.11 Z" />
<path fill="#77442d" opacity="1.00" d=" M 74.00 119.06 C 75.05 116.05 79.00 113.93 82.01 112.92 C 81.25 124.64 66.90 130.07 61.09 138.16 C 61.65 136.45 62.04 134.63 63.17 133.20 C 69.57 127.65 77.48 122.89 80.97 114.84 C 78.65 116.26 76.39 117.77 74.00 119.06 Z" />
<path fill="#77442d" opacity="1.00" d=" M 45.53 118.90 C 48.90 117.38 52.06 114.87 55.91 114.93 C 55.45 118.53 54.94 122.12 55.02 125.78 C 54.95 129.24 54.94 132.72 55.14 136.18 C 53.02 130.94 53.45 122.40 54.72 115.82 C 51.84 117.29 48.95 119.31 45.53 118.90 Z" />
<path fill="#77442d" opacity="1.00" d=" M 135.96 115.00 C 138.33 115.90 136.47 120.87 136.73 123.34 C 135.91 120.64 136.01 117.79 135.96 115.00 Z" />
<path fill="#77442d" opacity="1.00" d=" M 196.13 122.81 C 196.12 121.13 196.83 119.55 197.69 118.14 C 198.79 119.55 198.33 123.09 196.13 122.81 Z" />
<path fill="#77442d" opacity="1.00" d=" M 60.59 122.73 C 61.71 130.54 68.58 118.33 73.42 119.42 C 71.02 121.34 68.55 123.17 66.05 124.95 C 65.58 125.26 64.63 125.88 64.16 126.18 C 62.75 126.55 61.50 127.40 61.02 128.83 C 60.74 128.60 60.17 128.16 59.89 127.93 C 60.03 126.19 60.20 124.44 60.59 122.73 Z" />
<path fill="#77442d" opacity="1.00" d=" M 242.21 119.02 L 242.99 118.94 C 242.95 123.28 242.94 127.62 242.89 131.97 L 241.93 132.16 C 242.06 127.78 242.09 123.40 242.21 119.02 Z" />
<path fill="#77442d" opacity="1.00" d=" M 85.21 134.26 C 88.00 130.01 84.51 122.53 86.95 120.04 C 87.17 122.35 87.41 124.65 87.68 126.96 C 88.41 129.80 87.13 132.27 85.21 134.26 Z" />
<path fill="#77442d" opacity="1.00" d=" M 88.88 119.96 C 90.85 122.15 93.59 135.72 97.39 129.82 L 98.03 129.91 C 98.95 138.59 91.11 130.65 90.05 126.62 C 89.31 124.47 88.99 122.22 88.88 119.96 Z" />
<path fill="#77442d" opacity="1.00" d=" M 180.34 137.23 C 181.30 132.85 181.65 125.92 185.22 123.09 C 185.16 123.56 185.05 124.51 185.00 124.98 C 183.94 129.24 182.15 133.26 180.34 137.23 Z" />
<path fill="#77442d" opacity="1.00" d=" M 96.70 127.93 C 93.24 126.19 99.06 121.14 98.80 126.84 C 97.78 126.14 96.90 126.81 96.70 127.93 Z" />
<path fill="#77442d" opacity="1.00" d=" M 136.93 124.18 C 141.64 127.64 135.40 134.19 130.57 134.58 C 132.38 132.90 134.31 131.37 136.16 129.75 C 136.36 128.36 136.74 125.58 136.93 124.18 Z" />
<path fill="#77442d" opacity="1.00" d=" M 139.91 132.50 C 140.01 129.62 142.72 122.80 144.54 125.51 C 143.60 126.59 142.86 127.82 142.22 129.09 C 141.55 130.29 140.71 131.38 139.91 132.50 Z" />
<path fill="#77442d" opacity="1.00" d=" M 69.99 133.03 C 70.34 128.99 75.39 126.31 79.01 125.94 C 79.92 129.95 76.17 132.43 73.75 134.94 C 74.35 133.13 75.08 131.37 75.86 129.64 C 79.63 129.73 77.46 125.05 75.61 128.84 C 73.62 130.08 71.78 131.53 69.99 133.03 Z" />
<path fill="#77442d" opacity="1.00" d=" M 105.98 131.01 C 104.14 127.16 112.96 127.93 111.67 130.11 C 104.46 128.10 107.85 134.46 112.39 135.54 C 118.57 136.86 122.28 148.16 114.26 149.31 C 112.68 145.81 120.25 147.44 117.68 143.32 C 116.97 136.13 107.01 137.48 105.98 131.01 Z" />
<path fill="#77442d" opacity="1.00" d=" M 113.11 130.87 C 114.40 130.60 123.51 131.04 124.93 131.99 C 121.27 134.16 116.60 132.81 113.11 130.87 Z" />
<path fill="#77442d" opacity="1.00" d=" M 101.23 131.52 C 103.09 131.57 99.22 138.49 97.82 139.94 C 97.78 139.41 97.71 138.34 97.67 137.81 C 98.49 135.53 99.92 133.54 101.23 131.52 Z" />
<path fill="#77442d" opacity="1.00" d=" M 143.16 131.03 L 143.96 130.85 C 145.45 136.80 136.72 134.50 139.91 132.50 C 141.35 134.61 142.58 132.62 143.16 131.03 Z" />
<path fill="#77442d" opacity="1.00" d=" M 144.90 133.09 C 145.42 127.98 149.71 132.97 148.80 136.17 C 148.39 135.82 147.57 135.11 147.16 134.76 C 147.71 133.05 146.29 131.13 144.90 133.09 Z" />
<path fill="#77442d" opacity="1.00" d=" M 191.85 134.84 C 191.78 133.30 192.40 131.90 193.60 130.94 C 194.62 132.18 193.53 135.06 191.85 134.84 Z" />
<path fill="#77442d" opacity="1.00" d=" M 65.29 142.30 C 65.34 139.16 66.28 133.24 69.99 133.03 C 68.38 136.10 66.85 139.20 65.29 142.30 Z" />
<path fill="#77442d" opacity="1.00" d=" M 80.96 141.98 C 81.58 139.36 81.62 133.55 85.21 134.26 C 83.39 137.96 82.13 141.95 81.89 146.09 C 82.93 144.99 83.92 143.85 84.90 142.70 C 86.18 147.46 77.38 149.99 80.96 141.98 Z" />
<path fill="#77442d" opacity="1.00" d=" M 241.27 141.12 C 240.01 138.87 240.14 136.49 241.65 133.98 C 243.01 136.27 242.88 138.65 241.27 141.12 Z" />
<path fill="#77442d" opacity="1.00" d=" M 87.13 137.97 C 87.73 136.90 88.36 134.96 89.91 135.26 C 90.77 136.75 88.57 138.69 87.13 137.97 Z" />
<path fill="#77442d" opacity="1.00" d=" M 123.82 140.92 C 125.17 138.27 127.20 136.08 130.00 134.93 C 128.94 137.39 126.42 140.18 123.82 140.92 Z" />
<path fill="#77442d" opacity="1.00" d=" M 72.62 156.20 C 70.44 149.50 71.19 142.17 73.49 135.63 C 72.75 142.24 72.21 148.78 72.84 155.43 L 72.62 156.20 Z" />
<path fill="#77442d" opacity="1.00" d=" M 148.80 136.17 C 152.80 136.71 154.75 140.44 154.89 144.15 C 152.51 141.77 150.58 139.01 148.80 136.17 Z" />
<path fill="#77442d" opacity="1.00" d=" M 189.90 139.71 C 189.80 138.17 190.46 136.80 191.64 135.83 C 192.63 137.06 191.59 140.01 189.90 139.71 Z" />
<path fill="#77442d" opacity="1.00" d=" M 55.42 137.06 C 56.12 138.60 56.17 140.31 56.03 141.97 C 54.07 141.63 54.45 138.30 55.42 137.06 Z" />
<path fill="#77442d" opacity="1.00" d=" M 92.26 136.72 C 96.18 141.31 93.48 148.45 95.06 154.08 C 90.78 149.84 94.06 142.29 92.26 136.72 Z" />
<path fill="#77442d" opacity="1.00" d=" M 176.31 146.31 C 175.85 143.06 177.38 138.59 180.34 137.23 C 179.12 140.31 177.81 143.36 176.31 146.31 Z" />
<path fill="#77442d" opacity="1.00" d=" M 146.02 140.89 C 144.56 141.45 141.96 138.32 144.11 137.73 C 145.08 138.54 145.95 139.55 146.02 140.89 Z" />
<path fill="#77442d" opacity="1.00" d=" M 85.02 141.82 C 84.92 140.53 85.75 139.55 86.68 138.80 C 87.79 139.86 86.58 142.50 85.02 141.82 Z" />
<path fill="#77442d" opacity="1.00" d=" M 141.10 142.73 C 138.56 143.06 140.63 138.22 141.88 140.61 C 141.79 140.97 141.61 141.68 141.53 142.03 L 141.10 142.73 Z" />
<path fill="#77442d" opacity="1.00" d=" M 9.18 140.89 C 10.55 142.32 10.38 144.39 9.78 146.13 C 8.48 144.66 8.63 142.63 9.18 140.89 Z" />
<path fill="#77442d" opacity="1.00" d=" M 185.96 149.08 C 186.47 145.95 188.02 143.20 189.77 140.60 C 188.97 143.44 188.52 147.30 185.96 149.08 Z" />
<path fill="#77442d" opacity="1.00" d=" M 129.94 150.26 C 125.63 149.22 118.54 146.98 123.42 141.52 C 120.90 147.01 127.79 147.02 129.94 150.26 Z" />
<path fill="#77442d" opacity="1.00" d=" M 146.26 141.92 C 147.69 142.87 148.84 144.41 148.71 146.21 C 147.49 145.79 146.24 145.13 145.70 143.89 C 145.84 143.40 146.12 142.42 146.26 141.92 Z" />
<path fill="#77442d" opacity="1.00" d=" M 240.32 147.10 C 239.63 145.38 239.40 143.26 240.84 141.84 C 241.38 143.59 241.45 145.56 240.32 147.10 Z" />
<path fill="#77442d" opacity="1.00" d=" M 56.17 143.10 C 56.40 143.29 56.84 143.67 57.06 143.86 C 57.34 144.81 57.91 145.50 58.77 145.93 C 57.85 148.77 54.41 144.78 56.17 143.10 Z" />
<path fill="#77442d" opacity="1.00" d=" M 98.14 142.89 C 100.09 145.65 102.88 147.49 106.38 147.35 L 105.70 148.16 C 103.45 147.98 101.17 147.75 99.03 146.98 C 98.69 145.63 98.36 144.27 98.14 142.89 Z" />
<path fill="#77442d" opacity="1.00" d=" M 154.89 144.15 C 160.44 149.22 162.02 165.53 155.04 170.04 C 160.06 162.18 157.30 152.44 154.89 144.15 Z" />
<path fill="#77442d" opacity="1.00" d=" M 62.09 172.17 C 62.70 163.66 59.97 151.54 64.25 145.30 C 62.64 153.52 62.85 161.91 63.06 170.24 C 66.06 169.81 68.14 161.21 70.02 165.56 C 67.13 167.46 65.94 171.59 62.09 172.17 Z" />
<path fill="#77442d" opacity="1.00" d=" M 141.24 144.83 C 141.53 145.15 142.12 145.81 142.41 146.14 C 140.46 149.33 135.27 146.58 133.81 150.02 C 131.84 149.79 130.45 147.86 129.81 146.12 C 133.24 144.94 139.21 149.35 141.24 144.83 Z" />
<path fill="#77442d" opacity="1.00" d=" M 107.19 146.65 C 109.08 144.01 110.84 147.73 109.08 150.20 C 106.93 150.31 107.53 148.04 107.19 146.65 Z" />
<path fill="#77442d" opacity="1.00" d=" M 10.13 146.83 C 11.47 147.86 11.38 149.63 10.81 151.05 C 9.56 149.98 9.57 148.25 10.13 146.83 Z" />
<path fill="#77442d" opacity="1.00" d=" M 86.07 153.27 C 85.76 150.71 85.54 147.85 88.99 149.02 C 89.13 153.15 89.04 157.27 88.72 161.39 C 87.84 158.13 88.95 144.86 86.07 153.27 Z" />
<path fill="#77442d" opacity="1.00" d=" M 171.14 153.11 C 171.72 151.48 172.01 149.19 174.33 150.25 C 171.91 155.08 169.22 159.79 166.24 164.29 C 165.77 159.73 170.17 157.20 171.14 153.11 Z" />
<path fill="#77442d" opacity="1.00" d=" M 122.76 151.22 C 128.43 154.10 138.36 149.32 141.96 154.11 C 144.92 163.53 139.67 157.44 137.24 155.86 C 136.89 158.99 136.61 162.11 136.20 165.25 C 136.19 160.40 134.05 152.55 141.32 155.54 C 137.46 150.32 128.07 156.07 122.76 151.22 Z" />
<path fill="#77442d" opacity="1.00" d=" M 11.13 151.76 C 13.25 155.61 13.92 160.06 14.72 164.33 C 11.94 160.75 11.65 156.10 11.13 151.76 Z" />
<path fill="#77442d" opacity="1.00" d=" M 100.03 158.81 C 96.73 148.66 108.39 154.01 114.27 152.21 C 110.03 155.85 100.05 149.48 100.92 156.59 C 106.71 154.02 104.89 161.52 105.92 165.00 C 101.39 168.20 106.98 154.76 100.03 158.81 Z" />
<path fill="#77442d" opacity="1.00" d=" M 170.03 176.01 C 175.15 168.05 179.85 159.81 184.80 151.75 C 183.46 159.40 178.02 165.53 174.02 172.01 C 172.77 173.46 172.54 176.49 170.03 176.01 Z" />
<path fill="#77442d" opacity="1.00" d=" M 85.25 176.34 C 86.73 168.92 82.83 158.36 86.07 153.27 C 85.62 161.96 86.10 170.67 87.98 179.17 C 87.00 178.30 86.07 177.37 85.25 176.34 Z" />
<path fill="#77442d" opacity="1.00" d=" M 72.84 155.43 C 74.77 155.64 75.41 159.34 74.62 160.99 C 73.72 159.50 72.87 157.95 72.62 156.20 L 72.84 155.43 Z" />
<path fill="#77442d" opacity="1.00" d=" M 90.91 159.83 C 89.13 151.33 96.14 163.27 95.40 155.73 C 97.07 159.36 95.12 160.46 91.68 159.84 L 90.91 159.83 Z" />
<path fill="#77442d" opacity="1.00" d=" M 236.25 162.16 C 235.94 160.27 236.61 158.38 237.96 157.05 C 238.54 158.99 238.25 161.20 236.25 162.16 Z" />
<path fill="#77442d" opacity="1.00" d=" M 76.97 162.15 C 75.19 155.76 83.79 156.94 79.62 164.28 C 79.22 161.74 78.96 158.46 76.97 162.15 Z" />
<path fill="#77442d" opacity="1.00" d=" M 127.13 158.15 C 129.29 157.15 128.88 159.23 128.88 160.68 C 127.14 161.36 126.63 174.64 124.05 167.94 C 127.95 167.19 125.45 161.23 127.13 158.15 Z" />
<path fill="#77442d" opacity="1.00" d=" M 90.91 159.83 L 91.68 159.84 C 93.15 163.83 96.05 166.93 99.13 169.77 C 94.39 168.97 91.50 164.32 90.91 159.83 Z" />
<path fill="#77442d" opacity="1.00" d=" M 146.01 162.90 C 145.86 161.15 147.23 159.70 149.00 159.89 C 149.45 165.16 148.33 170.44 146.24 175.26 C 144.83 171.91 151.31 161.12 146.01 162.90 Z" />
<path fill="#77442d" opacity="1.00" d=" M 88.72 161.39 C 90.90 161.16 90.64 164.88 89.48 165.97 C 88.94 164.50 88.78 162.94 88.72 161.39 Z" />
<path fill="#77442d" opacity="1.00" d=" M 75.04 161.96 C 75.53 162.01 76.49 162.10 76.97 162.15 C 77.83 164.81 73.96 164.44 75.04 161.96 Z" />
<path fill="#77442d" opacity="1.00" d=" M 105.92 165.00 C 104.96 163.08 107.72 160.33 108.74 162.92 L 108.28 163.23 C 107.51 163.83 106.72 164.42 105.92 165.00 Z" />
<path fill="#77442d" opacity="1.00" d=" M 130.20 166.23 C 130.71 163.55 133.34 160.00 133.78 164.68 C 130.67 167.18 131.70 172.24 129.87 175.48 C 129.59 174.80 129.03 173.45 128.75 172.78 C 129.30 170.61 129.82 168.44 130.20 166.23 Z" />
<path fill="#77442d" opacity="1.00" d=" M 79.76 165.05 C 82.38 167.61 83.62 172.01 84.67 175.65 C 82.00 172.74 80.33 168.95 79.76 165.05 Z" />
<path fill="#77442d" opacity="1.00" d=" M 121.07 168.84 C 119.26 166.03 123.62 162.58 123.94 166.77 C 122.45 166.44 121.79 167.83 121.07 168.84 Z" />
<path fill="#77442d" opacity="1.00" d=" M 138.74 167.00 C 141.92 160.36 141.23 172.62 144.76 166.73 C 144.48 168.89 143.68 170.76 141.14 170.00 C 141.03 167.89 141.53 164.92 138.74 167.00 Z" />
<path fill="#77442d" opacity="1.00" d=" M 70.30 166.52 C 72.56 169.70 73.95 173.38 74.95 177.13 C 71.94 174.63 70.83 170.25 70.30 166.52 Z" />
<path fill="#77442d" opacity="1.00" d=" M 161.44 171.04 C 160.21 169.56 161.93 166.09 163.95 167.21 C 163.32 168.62 162.56 169.97 161.44 171.04 Z" />
<path fill="#77442d" opacity="1.00" d=" M 15.97 167.84 C 18.03 169.37 18.40 171.95 18.76 174.31 C 17.31 172.41 16.56 170.13 15.97 167.84 Z" />
<path fill="#77442d" opacity="1.00" d=" M 136.09 172.75 C 136.17 170.88 137.21 169.27 138.43 167.92 C 139.55 169.53 138.13 172.92 136.09 172.75 Z" />
<path fill="#77442d" opacity="1.00" d=" M 109.11 168.83 C 110.45 169.90 110.37 171.70 109.79 173.16 C 108.58 172.02 108.60 170.29 109.11 168.83 Z" />
<path fill="#77442d" opacity="1.00" d=" M 226.30 184.28 C 228.02 178.77 230.59 173.50 234.01 168.85 C 232.41 174.33 229.99 179.93 226.30 184.28 Z" />
<path fill="#77442d" opacity="1.00" d=" M 90.73 170.22 C 93.57 171.72 95.37 176.76 95.89 180.12 C 93.52 177.19 91.81 173.81 90.73 170.22 Z" />
<path fill="#77442d" opacity="1.00" d=" M 99.94 170.02 C 102.93 170.56 104.78 173.45 106.08 175.96 C 103.72 174.31 101.50 172.46 99.94 170.02 Z" />
<path fill="#77442d" opacity="1.00" d=" M 146.62 179.86 C 149.45 176.91 152.36 174.03 154.65 170.63 C 154.50 175.01 150.67 178.92 146.62 179.86 Z" />
<path fill="#77442d" opacity="1.00" d=" M 148.37 184.37 C 153.19 180.22 155.71 173.47 161.44 171.04 C 151.83 183.74 140.34 195.66 127.02 204.22 C 133.21 196.56 142.17 192.07 148.37 184.37 Z" />
<path fill="#77442d" opacity="1.00" d=" M 109.91 174.02 C 111.04 172.24 113.10 171.07 113.66 173.89 C 109.79 175.82 114.28 181.71 114.97 185.01 C 112.07 186.18 114.06 181.35 111.63 182.59 C 108.04 184.25 107.01 179.12 106.44 176.56 C 107.97 178.42 109.32 180.44 110.98 182.20 C 110.82 179.45 110.25 176.75 109.91 174.02 Z" />
<path fill="#77442d" opacity="1.00" d=" M 121.76 192.08 C 121.39 184.84 125.26 178.73 128.75 172.78 C 129.03 173.45 129.59 174.80 129.87 175.48 C 129.46 180.45 133.84 174.51 135.93 173.67 C 136.08 178.16 125.12 183.53 128.89 175.81 C 125.24 180.66 122.51 186.70 122.85 192.98 C 118.43 194.08 115.47 189.51 115.36 185.61 C 117.34 187.84 118.51 191.51 121.76 192.08 Z" />
<path fill="#77442d" opacity="1.00" d=" M 136.41 209.64 C 148.77 199.97 159.32 188.31 169.61 176.54 C 164.85 187.58 153.91 193.99 146.67 203.50 C 142.84 204.95 140.97 209.34 136.41 209.64 Z" />
<path fill="#77442d" opacity="1.00" d=" M 115.91 178.10 C 117.05 178.02 118.09 178.32 119.02 178.99 C 118.72 181.31 116.10 179.58 115.91 178.10 Z" />
<path fill="#77442d" opacity="1.00" d=" M 145.91 180.36 C 144.85 182.90 142.35 178.20 144.88 178.25 C 145.14 178.77 145.65 179.83 145.91 180.36 Z" />
<path fill="#77442d" opacity="1.00" d=" M 76.21 179.74 C 79.61 184.02 80.32 189.77 80.15 195.06 C 79.45 190.91 77.22 184.89 76.21 179.74 Z" />
<path fill="#77442d" opacity="1.00" d=" M 95.89 180.12 C 99.07 180.13 105.08 190.18 102.36 189.81 C 100.61 186.32 98.00 183.38 95.89 180.12 Z" />
<path fill="#77442d" opacity="1.00" d=" M 22.01 180.84 C 23.86 182.58 24.95 184.88 25.84 187.22 C 23.44 185.94 22.65 183.28 22.01 180.84 Z" />
<path fill="#77442d" opacity="1.00" d=" M 212.12 202.11 C 217.81 197.23 220.56 189.95 225.81 184.77 C 217.02 202.35 202.22 216.85 184.77 225.80 C 193.78 217.89 205.17 212.18 212.12 202.11 Z" />
<path fill="#77442d" opacity="1.00" d=" M 26.29 187.73 C 27.94 189.22 28.80 191.31 29.78 193.25 C 27.31 192.40 26.73 190.03 26.29 187.73 Z" />
<path fill="#77442d" opacity="1.00" d=" M 80.46 197.51 C 83.33 195.38 84.16 191.73 85.87 188.77 C 86.94 192.33 82.33 200.05 80.46 197.51 Z" />
<path fill="#77442d" opacity="1.00" d=" M 94.18 189.01 C 95.79 188.80 97.43 188.91 98.96 189.51 C 97.83 190.57 94.34 190.99 94.18 189.01 Z" />
<path fill="#77442d" opacity="1.00" d=" M 90.00 191.04 C 96.65 193.30 108.01 188.19 111.06 196.15 C 105.47 191.26 97.47 193.42 90.68 192.37 C 93.31 194.72 96.05 196.98 98.31 199.72 C 94.95 198.38 89.45 195.27 90.00 191.04 Z" />
<path fill="#77442d" opacity="1.00" d=" M 30.22 193.77 C 38.44 202.77 47.61 211.29 56.25 219.74 C 51.71 217.53 47.88 214.25 44.54 210.49 C 39.58 205.05 32.95 200.89 30.22 193.77 Z" />
<path fill="#77442d" opacity="1.00" d=" M 111.71 196.60 C 112.99 195.53 115.95 197.11 114.90 198.83 C 113.61 198.47 112.34 197.85 111.71 196.60 Z" />
<path fill="#77442d" opacity="1.00" d=" M 115.64 199.12 C 117.96 200.06 121.43 201.74 122.03 204.10 C 119.22 203.41 117.07 201.59 115.64 199.12 Z" />
<path fill="#77442d" opacity="1.00" d=" M 98.88 200.11 C 101.53 201.83 104.37 203.35 106.41 205.83 C 103.51 205.05 99.47 203.44 98.88 200.11 Z" />
<path fill="#77442d" opacity="1.00" d=" M 107.13 206.14 C 108.39 206.56 109.82 207.08 110.20 208.53 C 108.88 209.43 106.12 207.78 107.13 206.14 Z" />
<path fill="#77442d" opacity="1.00" d=" M 132.95 212.67 C 133.72 211.62 134.67 210.73 135.80 210.08 C 137.10 211.69 134.44 214.06 132.95 212.67 Z" />
<path fill="#77442d" opacity="1.00" d=" M 113.77 211.29 C 115.86 211.97 117.76 213.16 119.42 214.61 C 117.22 214.24 114.04 214.17 113.77 211.29 Z" />
<path fill="#77442d" opacity="1.00" d=" M 119.98 215.04 C 122.82 217.31 126.21 216.92 129.23 215.25 C 128.48 219.16 119.99 219.16 119.98 215.04 Z" />
<path fill="#77442d" opacity="1.00" d=" M 56.80 220.15 C 58.67 221.26 60.48 222.46 62.20 223.80 C 59.79 223.51 57.48 222.72 56.80 220.15 Z" />
<path fill="#77442d" opacity="1.00" d=" M 62.88 224.11 C 69.84 227.95 77.61 230.43 84.08 235.08 C 76.61 232.53 68.42 229.92 62.88 224.11 Z" />
<path fill="#77442d" opacity="1.00" d=" M 168.93 234.07 C 173.61 230.73 178.76 228.01 184.27 226.29 C 180.12 230.32 174.27 232.19 168.93 234.07 Z" />
<path fill="#77442d" opacity="1.00" d=" M 87.90 236.26 C 89.86 235.47 91.91 236.23 92.97 238.02 C 91.03 238.41 89.25 237.59 87.90 236.26 Z" />
<path fill="#77442d" opacity="1.00" d=" M 157.03 238.02 C 158.09 236.22 160.14 235.47 162.10 236.27 C 160.73 237.59 158.96 238.40 157.03 238.02 Z" />
<path fill="#77442d" opacity="1.00" d=" M 102.88 240.33 C 104.56 239.60 106.69 239.36 108.03 240.88 C 106.31 241.38 104.37 241.46 102.88 240.33 Z" />
<path fill="#77442d" opacity="1.00" d=" M 142.00 240.96 C 143.26 239.33 145.44 239.60 147.12 240.33 C 145.63 241.44 143.72 241.37 142.00 240.96 Z" />
<path fill="#77442d" opacity="1.00" d=" M 108.81 241.02 C 119.61 242.45 130.43 241.40 141.26 241.16 C 130.72 244.27 119.41 243.40 108.81 241.02 Z" />
</g>
<g id="#0a0909ff">
<path fill="#0a0909" opacity="1.00" d=" M 109.19 9.15 C 109.83 9.04 111.10 8.83 111.73 8.73 C 120.56 9.29 129.41 8.92 138.25 8.78 C 138.91 8.86 140.24 9.01 140.90 9.09 C 141.85 10.51 143.69 10.38 145.09 9.82 C 145.51 9.91 146.33 10.09 146.75 10.19 C 150.44 11.48 154.25 12.32 158.10 12.96 C 161.22 14.26 164.41 15.40 167.69 16.23 C 169.56 17.74 171.88 18.44 174.20 18.93 C 175.65 19.76 177.10 20.56 178.56 21.36 C 185.35 25.13 191.21 30.47 198.36 33.63 L 199.02 33.96 C 203.75 40.52 209.22 46.68 216.00 51.19 L 216.24 51.94 C 215.70 54.25 217.55 55.96 219.71 56.20 C 220.98 58.56 222.49 60.77 224.17 62.85 C 224.41 64.56 224.66 66.78 226.72 67.19 L 227.00 67.83 C 229.40 73.39 231.37 79.28 234.80 84.30 C 235.19 85.51 235.61 86.71 236.04 87.91 C 236.91 91.03 237.86 94.12 238.90 97.19 L 239.12 97.93 C 238.60 99.37 238.57 101.11 239.86 102.16 L 240.22 102.87 C 239.60 104.57 239.41 106.67 240.89 108.00 L 241.12 108.74 C 241.19 111.58 240.86 114.49 241.50 117.29 C 241.67 117.72 242.03 118.59 242.21 119.02 C 242.09 123.40 242.06 127.78 241.93 132.16 C 241.86 132.61 241.72 133.52 241.65 133.98 C 240.14 136.49 240.01 138.87 241.27 141.12 L 240.84 141.84 C 239.40 143.26 239.63 145.38 240.32 147.10 C 239.94 150.50 239.18 153.85 237.96 157.05 C 236.61 158.38 235.94 160.27 236.25 162.16 C 235.66 164.43 234.92 166.67 234.01 168.85 C 230.59 173.50 228.02 178.77 226.30 184.28 L 225.81 184.77 C 220.56 189.95 217.81 197.23 212.12 202.11 C 205.17 212.18 193.78 217.89 184.77 225.80 L 184.27 226.29 C 178.76 228.01 173.61 230.73 168.93 234.07 C 166.69 234.93 164.41 235.66 162.10 236.27 C 160.14 235.47 158.09 236.22 157.03 238.02 C 153.75 238.88 150.46 239.72 147.12 240.33 C 145.44 239.60 143.26 239.33 142.00 240.96 L 141.26 241.16 C 130.43 241.40 119.61 242.45 108.81 241.02 L 108.03 240.88 C 106.69 239.36 104.56 239.60 102.88 240.33 C 99.54 239.72 96.25 238.88 92.97 238.02 C 91.91 236.23 89.86 235.47 87.90 236.26 C 86.62 235.88 85.34 235.50 84.08 235.08 C 77.61 230.43 69.84 227.95 62.88 224.11 L 62.20 223.80 C 60.48 222.46 58.67 221.26 56.80 220.15 L 56.25 219.74 C 47.61 211.29 38.44 202.77 30.22 193.77 L 29.78 193.25 C 28.80 191.31 27.94 189.22 26.29 187.73 L 25.84 187.22 C 24.95 184.88 23.86 182.58 22.01 180.84 C 20.86 178.70 19.77 176.52 18.76 174.31 C 18.40 171.95 18.03 169.37 15.97 167.84 C 15.53 166.67 15.12 165.50 14.72 164.33 C 13.92 160.06 13.25 155.61 11.13 151.76 L 10.81 151.05 C 11.38 149.63 11.47 147.86 10.13 146.83 L 9.78 146.13 C 10.38 144.39 10.55 142.32 9.18 140.89 C 9.13 140.40 9.04 139.41 8.99 138.92 C 9.04 129.90 9.02 120.89 8.81 111.88 C 8.96 111.13 9.27 109.64 9.42 108.89 C 10.40 107.46 10.31 105.67 9.96 104.05 C 10.47 102.48 10.90 100.89 11.29 99.29 C 12.23 96.91 12.86 94.43 13.00 91.87 C 13.88 89.73 14.62 87.53 15.26 85.31 C 17.60 81.88 19.02 77.93 19.87 73.89 L 20.29 73.32 C 22.67 71.02 23.57 67.73 24.71 64.73 L 25.20 64.25 C 27.18 63.02 28.02 60.82 28.94 58.80 C 30.04 57.83 30.85 56.62 31.42 55.28 C 33.06 54.39 34.94 53.09 34.83 50.98 L 35.02 50.20 C 40.79 45.85 45.86 40.79 50.20 35.02 L 50.98 34.83 C 53.10 34.93 54.44 33.05 55.26 31.35 C 56.44 30.58 57.60 29.76 58.74 28.93 C 60.85 28.09 62.92 27.04 64.43 25.30 C 65.18 24.80 65.92 24.29 66.66 23.77 C 73.10 21.50 79.29 18.48 85.31 15.26 C 87.60 14.61 89.86 13.83 92.07 12.91 C 94.29 13.58 96.54 12.98 98.00 11.16 C 98.42 11.08 99.26 10.92 99.67 10.84 C 102.93 10.89 106.08 10.07 109.19 9.15 M 111.84 49.23 L 110.98 49.47 C 110.17 48.29 106.96 48.19 107.20 50.07 L 106.32 50.21 C 95.79 51.73 82.59 51.09 75.11 60.08 C 69.58 64.18 70.20 73.02 74.20 77.86 C 81.26 79.89 74.27 69.25 80.87 66.94 C 81.09 71.94 81.08 79.44 87.31 80.75 L 87.98 81.01 C 89.44 84.45 94.35 83.20 97.07 83.98 C 97.39 79.26 92.16 77.31 89.69 74.04 L 89.53 73.26 C 89.00 66.83 93.50 63.07 98.02 59.90 L 98.73 59.64 C 102.79 59.38 108.05 58.64 111.11 56.01 C 113.46 55.81 115.81 55.15 117.84 53.92 C 122.83 53.71 129.52 49.30 129.00 43.93 C 123.55 45.93 116.05 46.20 111.84 49.23 M 164.88 45.79 C 153.80 61.73 130.88 53.03 115.05 58.02 C 110.16 60.12 101.34 60.61 100.23 67.30 L 99.88 67.92 C 94.58 68.21 98.21 82.33 99.50 76.48 L 99.79 75.27 C 101.48 73.41 102.74 71.15 104.78 69.61 C 104.83 70.52 104.93 72.32 104.98 73.22 C 103.20 72.94 103.17 77.04 104.95 76.79 C 105.00 77.27 105.10 78.22 105.15 78.70 C 105.46 82.35 108.00 86.70 112.01 87.09 C 112.18 84.85 111.96 82.03 109.81 80.79 L 109.44 79.95 C 111.05 78.93 110.96 76.01 109.35 75.04 L 109.62 74.16 C 115.48 63.96 128.92 66.25 137.00 65.01 C 139.57 65.03 142.14 64.91 144.70 64.64 C 153.66 66.56 165.29 62.24 165.84 51.74 L 166.21 50.87 C 169.56 52.83 167.18 43.27 164.88 45.79 M 168.26 63.68 L 169.05 63.83 C 172.65 66.23 178.48 68.09 183.19 68.86 C 184.26 69.66 185.58 69.85 186.85 70.13 C 190.90 73.77 197.76 73.88 194.32 82.24 L 194.23 83.09 C 191.93 88.26 190.38 98.26 190.38 105.32 C 189.96 106.89 189.61 108.48 189.29 110.07 C 186.96 111.69 186.21 116.30 186.35 119.33 C 185.88 120.55 185.44 121.80 185.22 123.09 C 181.65 125.92 181.30 132.85 180.34 137.23 C 177.38 138.59 175.85 143.06 176.31 146.31 C 175.65 147.63 174.98 148.94 174.33 150.25 C 172.01 149.19 171.72 151.48 171.14 153.11 C 170.17 157.20 165.77 159.73 166.24 164.29 C 165.53 165.31 164.67 166.21 163.95 167.21 C 161.93 166.09 160.21 169.56 161.44 171.04 C 155.71 173.47 153.19 180.22 148.37 184.37 C 142.17 192.07 133.21 196.56 127.02 204.22 C 125.41 205.06 123.60 204.99 122.03 204.10 C 121.43 201.74 117.96 200.06 115.64 199.12 L 114.90 198.83 C 115.95 197.11 112.99 195.53 111.71 196.60 L 111.06 196.15 C 108.01 188.19 96.65 193.30 90.00 191.04 C 89.45 195.27 94.95 198.38 98.31 199.72 L 98.88 200.11 C 99.47 203.44 103.51 205.05 106.41 205.83 L 107.13 206.14 C 106.12 207.78 108.88 209.43 110.20 208.53 C 110.69 210.28 112.03 211.07 113.77 211.29 C 114.04 214.17 117.22 214.24 119.42 214.61 L 119.98 215.04 C 119.99 219.16 128.48 219.16 129.23 215.25 C 130.71 214.80 131.91 213.78 132.95 212.67 C 134.44 214.06 137.10 211.69 135.80 210.08 L 136.41 209.64 C 140.97 209.34 142.84 204.95 146.67 203.50 C 153.91 193.99 164.85 187.58 169.61 176.54 L 170.03 176.01 C 172.54 176.49 172.77 173.46 174.02 172.01 C 178.02 165.53 183.46 159.40 184.80 151.75 C 185.43 150.97 185.82 150.08 185.96 149.08 C 188.52 147.30 188.97 143.44 189.77 140.60 L 189.90 139.71 C 191.59 140.01 192.63 137.06 191.64 135.83 L 191.85 134.84 C 193.53 135.06 194.62 132.18 193.60 130.94 L 194.13 130.26 C 195.75 128.19 195.90 125.34 196.13 122.81 C 198.33 123.09 198.79 119.55 197.69 118.14 C 199.88 113.85 200.54 108.87 201.03 104.11 C 204.37 99.72 203.13 92.92 203.76 87.64 L 203.89 86.73 C 206.30 86.16 205.55 81.84 204.56 80.11 C 204.67 79.34 204.91 77.80 205.02 77.02 C 207.77 76.46 206.03 67.36 204.96 66.10 C 198.96 63.75 193.28 59.64 186.66 59.44 L 185.93 59.22 C 184.87 56.79 180.99 56.52 178.52 56.28 L 177.69 56.04 C 177.11 54.24 173.72 53.49 171.98 54.31 L 171.01 53.70 C 168.12 50.41 159.42 67.44 168.26 63.68 M 123.17 69.99 L 122.21 69.96 C 117.85 69.18 115.41 74.39 116.00 78.09 C 120.51 77.33 124.49 72.98 129.19 74.63 L 128.47 75.17 C 125.36 75.33 121.52 76.69 121.21 80.28 C 120.71 81.19 120.29 82.14 119.97 83.12 C 119.75 84.66 119.32 87.73 119.11 89.26 C 122.11 85.76 125.13 82.49 129.11 80.02 C 130.02 79.67 130.91 79.27 131.80 78.85 C 136.61 79.17 141.44 78.94 146.26 78.74 C 146.94 78.80 148.30 78.91 148.98 78.97 C 151.12 81.57 162.92 80.17 164.92 78.99 L 165.76 78.85 C 170.54 79.66 176.44 75.69 177.05 70.98 C 166.97 73.51 156.91 71.82 146.67 71.24 L 145.79 71.09 C 145.99 69.20 142.80 69.33 141.90 70.42 L 140.93 70.18 C 140.53 67.84 136.56 68.21 135.10 69.46 C 132.39 68.77 129.68 68.76 126.98 69.44 C 126.14 68.32 123.02 68.17 123.17 69.99 M 50.10 83.15 L 49.79 83.86 C 45.70 83.71 47.38 90.62 45.98 92.98 C 40.46 95.55 50.92 101.99 48.54 97.46 L 48.79 96.26 C 51.43 92.15 56.53 89.29 57.97 84.92 L 58.52 84.52 C 61.27 84.15 64.63 83.74 66.06 81.01 L 66.80 80.79 C 68.81 81.38 74.78 80.62 72.32 77.70 C 65.48 74.96 53.13 75.43 50.10 83.15 M 133.89 81.90 L 132.86 81.90 C 130.40 81.00 128.60 83.52 131.34 84.60 C 136.87 86.18 141.95 89.03 147.46 90.59 L 148.01 90.99 C 147.74 94.19 152.19 93.83 154.37 94.69 C 155.01 95.48 155.84 95.95 156.86 96.09 C 164.14 101.24 175.68 99.15 183.79 95.74 C 184.24 90.98 173.76 95.65 170.74 94.30 L 169.91 94.22 C 158.72 91.42 146.24 77.39 133.89 81.90 M 73.14 83.93 L 72.31 84.22 C 64.27 84.44 56.07 91.17 55.45 99.49 C 54.92 100.27 54.48 101.10 54.12 101.96 C 48.90 107.06 46.96 115.19 40.91 119.94 C 41.94 119.61 44.69 120.91 44.64 119.33 L 45.53 118.90 C 48.95 119.31 51.84 117.29 54.72 115.82 C 53.45 122.40 53.02 130.94 55.14 136.18 L 55.42 137.06 C 54.45 138.30 54.07 141.63 56.03 141.97 L 56.17 143.10 C 54.41 144.78 57.85 148.77 58.77 145.93 C 58.88 145.14 59.10 143.56 59.21 142.77 C 60.66 142.42 60.30 139.49 61.09 138.16 C 66.90 130.07 81.25 124.64 82.01 112.92 C 79.00 113.93 75.05 116.05 74.00 119.06 L 73.42 119.42 C 68.58 118.33 61.71 130.54 60.59 122.73 C 60.68 122.33 60.87 121.52 60.96 121.11 C 63.89 119.39 63.44 115.39 64.50 112.51 L 64.94 111.98 C 68.74 111.67 70.37 107.25 72.98 105.01 C 80.28 99.09 90.86 96.51 97.17 90.12 L 97.90 89.86 C 101.43 90.64 104.48 80.94 99.34 83.34 C 93.36 89.64 83.08 89.53 76.98 95.08 L 76.31 95.36 C 72.65 95.86 68.32 96.97 65.90 99.95 C 64.30 100.30 63.63 99.58 63.91 97.80 C 65.37 98.24 66.27 95.68 65.37 94.72 L 65.74 94.03 C 69.31 91.52 72.79 88.84 76.08 85.97 C 77.20 85.70 78.27 85.30 79.29 84.76 C 87.30 83.54 72.49 80.94 73.14 83.93 M 95.12 99.03 C 95.61 102.50 90.09 99.48 90.85 103.01 C 90.82 104.32 91.46 105.06 92.78 105.23 C 93.05 107.83 99.93 110.07 99.60 108.15 L 99.83 106.96 C 103.07 104.71 103.09 111.98 107.91 108.17 C 107.95 110.87 108.03 116.28 108.07 118.98 C 112.14 120.37 110.92 116.13 110.79 113.58 L 111.01 112.72 C 113.25 112.96 113.91 109.48 113.43 107.82 C 114.81 106.79 116.29 105.65 116.34 103.76 C 118.27 103.82 118.87 99.42 116.36 101.46 C 111.55 105.50 107.70 98.56 102.75 99.17 L 101.91 98.96 C 102.21 97.33 94.78 96.49 95.12 99.03 M 140.01 100.05 L 139.30 100.30 C 135.46 100.05 132.28 104.73 128.66 101.42 C 124.68 99.35 126.01 103.94 128.59 104.85 L 129.25 105.51 C 132.13 112.56 133.49 120.18 132.96 127.81 C 131.25 129.74 126.26 128.53 126.30 131.36 C 125.96 131.52 125.27 131.83 124.93 131.99 C 123.51 131.04 114.40 130.60 113.11 130.87 C 112.75 130.68 112.03 130.30 111.67 130.11 C 112.96 127.93 104.14 127.16 105.98 131.01 C 107.01 137.48 116.97 136.13 117.68 143.32 C 120.25 147.44 112.68 145.81 114.26 149.31 C 112.95 149.86 111.56 150.18 110.18 150.51 L 109.08 150.20 C 110.84 147.73 109.08 144.01 107.19 146.65 L 106.38 147.35 C 102.88 147.49 100.09 145.65 98.14 142.89 C 98.06 142.16 97.90 140.68 97.82 139.94 C 99.22 138.49 103.09 131.57 101.23 131.52 C 99.03 131.30 98.98 129.34 98.79 127.59 L 98.80 126.84 C 99.06 121.14 93.24 126.19 96.70 127.93 C 96.88 128.40 97.22 129.35 97.39 129.82 C 93.59 135.72 90.85 122.15 88.88 119.96 C 88.11 118.45 87.47 118.48 86.95 120.04 C 84.51 122.53 88.00 130.01 85.21 134.26 C 81.62 133.55 81.58 139.36 80.96 141.98 C 77.38 149.99 86.18 147.46 84.90 142.70 L 85.02 141.82 C 86.58 142.50 87.79 139.86 86.68 138.80 L 87.13 137.97 C 88.57 138.69 90.77 136.75 89.91 135.26 C 90.85 135.42 91.63 135.90 92.26 136.72 C 94.06 142.29 90.78 149.84 95.06 154.08 C 95.14 154.49 95.32 155.32 95.40 155.73 C 96.14 163.27 89.13 151.33 90.91 159.83 C 91.50 164.32 94.39 168.97 99.13 169.77 L 99.94 170.02 C 101.50 172.46 103.72 174.31 106.08 175.96 L 106.44 176.56 C 107.01 179.12 108.04 184.25 111.63 182.59 C 114.06 181.35 112.07 186.18 114.97 185.01 L 115.36 185.61 C 115.47 189.51 118.43 194.08 122.85 192.98 C 122.51 186.70 125.24 180.66 128.89 175.81 C 125.12 183.53 136.08 178.16 135.93 173.67 L 136.09 172.75 C 138.13 172.92 139.55 169.53 138.43 167.92 L 138.74 167.00 C 141.53 164.92 141.03 167.89 141.14 170.00 C 143.68 170.76 144.48 168.89 144.76 166.73 C 146.13 165.90 145.76 164.23 146.01 162.90 C 151.31 161.12 144.83 171.91 146.24 175.26 C 145.78 176.25 145.33 177.25 144.88 178.25 C 142.35 178.20 144.85 182.90 145.91 180.36 L 146.62 179.86 C 150.67 178.92 154.50 175.01 154.65 170.63 L 155.04 170.04 C 162.02 165.53 160.44 149.22 154.89 144.15 C 154.75 140.44 152.80 136.71 148.80 136.17 C 149.71 132.97 145.42 127.98 144.90 133.09 L 145.03 133.88 C 144.68 135.15 144.20 136.40 144.11 137.73 C 141.96 138.32 144.56 141.45 146.02 140.89 L 146.26 141.92 C 146.12 142.42 145.84 143.40 145.70 143.89 C 144.74 142.45 143.85 140.67 141.88 140.61 C 140.63 138.22 138.56 143.06 141.10 142.73 C 141.13 143.25 141.20 144.30 141.24 144.83 C 139.21 149.35 133.24 144.94 129.81 146.12 C 130.45 147.86 131.84 149.79 133.81 150.02 C 133.11 151.72 131.16 150.46 129.94 150.26 C 127.79 147.02 120.90 147.01 123.42 141.52 L 123.82 140.92 C 126.42 140.18 128.94 137.39 130.00 134.93 L 130.57 134.58 C 135.40 134.19 141.64 127.64 136.93 124.18 L 136.73 123.34 C 136.47 120.87 138.33 115.90 135.96 115.00 C 135.94 112.92 135.95 110.84 135.97 108.76 C 138.96 109.18 141.58 107.92 143.85 106.08 C 143.84 112.70 153.99 105.74 153.07 101.21 C 145.83 106.21 149.86 97.85 146.87 98.05 C 145.31 98.20 140.84 97.60 140.01 100.05 M 139.91 132.50 C 136.72 134.50 145.45 136.80 143.96 130.85 C 145.63 129.53 144.89 127.25 144.54 125.51 C 142.72 122.80 140.01 129.62 139.91 132.50 M 69.99 133.03 C 66.28 133.24 65.34 139.16 65.29 142.30 C 64.90 143.28 64.55 144.28 64.25 145.30 C 59.97 151.54 62.70 163.66 62.09 172.17 C 65.94 171.59 67.13 167.46 70.02 165.56 L 70.30 166.52 C 70.83 170.25 71.94 174.63 74.95 177.13 C 75.17 178.10 75.58 178.97 76.21 179.74 C 77.22 184.89 79.45 190.91 80.15 195.06 C 80.23 195.68 80.38 196.90 80.46 197.51 C 82.33 200.05 86.94 192.33 85.87 188.77 C 87.87 186.72 91.50 189.71 94.18 189.01 C 94.34 190.99 97.83 190.57 98.96 189.51 C 99.81 189.59 101.51 189.73 102.36 189.81 C 105.08 190.18 99.07 180.13 95.89 180.12 C 95.37 176.76 93.57 171.72 90.73 170.22 C 90.25 168.82 89.90 167.38 89.48 165.97 C 90.64 164.88 90.90 161.16 88.72 161.39 C 89.04 157.27 89.13 153.15 88.99 149.02 C 85.54 147.85 85.76 150.71 86.07 153.27 C 82.83 158.36 86.73 168.92 85.25 176.34 L 84.67 175.65 C 83.62 172.01 82.38 167.61 79.76 165.05 L 79.62 164.28 C 83.79 156.94 75.19 155.76 76.97 162.15 C 76.49 162.10 75.53 162.01 75.04 161.96 L 74.62 160.99 C 75.41 159.34 74.77 155.64 72.84 155.43 C 72.21 148.78 72.75 142.24 73.49 135.63 L 73.75 134.94 C 76.17 132.43 79.92 129.95 79.01 125.94 C 75.39 126.31 70.34 128.99 69.99 133.03 Z" />
<path fill="#0a0909" opacity="1.00" d=" M 114.27 152.21 C 117.07 151.69 119.88 150.80 122.76 151.22 C 128.07 156.07 137.46 150.32 141.32 155.54 C 134.05 152.55 136.19 160.40 136.20 165.25 C 136.77 168.15 133.34 166.91 133.78 164.68 C 133.34 160.00 130.71 163.55 130.20 166.23 C 129.74 164.39 129.24 162.55 128.88 160.68 C 128.88 159.23 129.29 157.15 127.13 158.15 C 125.45 161.23 127.95 167.19 124.05 167.94 L 123.94 166.77 C 123.62 162.58 119.26 166.03 121.07 168.84 C 120.43 172.23 119.74 175.61 119.02 178.99 C 118.09 178.32 117.05 178.02 115.91 178.10 C 115.02 176.77 114.30 175.35 113.66 173.89 C 113.10 171.07 111.04 172.24 109.91 174.02 L 109.79 173.16 C 110.37 171.70 110.45 169.90 109.11 168.83 L 108.77 168.09 C 109.13 166.41 109.64 164.52 108.74 162.92 C 107.72 160.33 104.96 163.08 105.92 165.00 C 104.89 161.52 106.71 154.02 100.92 156.59 C 100.05 149.48 110.03 155.85 114.27 152.21 Z" />
</g>
<g id="#e85643ff">
<path fill="#e85643" opacity="1.00" d=" M 204.89 38.98 C 208.46 39.75 210.47 43.06 211.97 46.11 C 209.40 43.96 207.11 41.49 204.89 38.98 Z" />
<path fill="#e85643" opacity="1.00" d=" M 111.84 49.23 C 117.45 48.40 122.90 46.83 128.36 45.31 C 125.80 49.16 121.77 51.65 117.84 53.92 C 115.81 55.15 113.46 55.81 111.11 56.01 C 106.79 56.43 102.50 57.44 98.73 59.64 L 98.02 59.90 C 91.74 60.75 87.20 66.83 89.53 73.26 L 89.69 74.04 C 89.90 78.19 94.58 79.57 96.14 83.07 C 93.35 82.69 90.67 81.81 87.98 81.01 L 87.31 80.75 C 83.13 76.92 81.61 71.60 81.77 65.97 C 76.20 65.94 75.91 73.31 76.56 77.27 C 68.04 72.12 73.35 61.05 80.30 57.30 C 87.92 52.27 97.91 53.26 106.32 50.21 L 107.20 50.07 C 108.49 50.19 109.80 50.04 110.98 49.47 L 111.84 49.23 Z" />
<path fill="#e85643" opacity="1.00" d=" M 159.21 53.28 C 162.08 52.56 165.93 44.18 166.21 50.87 L 165.84 51.74 C 162.92 61.02 153.60 64.39 144.70 64.64 C 142.14 64.91 139.57 65.03 137.00 65.01 C 128.20 64.80 112.57 62.46 109.62 74.16 L 109.35 75.04 C 109.38 76.26 109.42 78.72 109.44 79.95 L 109.81 80.79 C 112.49 88.82 107.29 81.92 105.15 78.70 C 105.10 78.22 105.00 77.27 104.95 76.79 C 105.07 75.60 105.08 74.41 104.98 73.22 C 104.93 72.32 104.83 70.52 104.78 69.61 C 102.86 66.99 99.66 72.78 99.79 75.27 L 99.50 76.48 C 96.40 74.41 99.20 70.59 99.88 67.92 L 100.23 67.30 C 115.76 51.66 140.60 61.08 159.21 53.28 Z" />
<path fill="#e85643" opacity="1.00" d=" M 168.26 63.68 C 162.38 63.47 168.63 55.67 171.01 53.70 L 171.98 54.31 C 173.58 55.69 175.59 56.27 177.69 56.04 L 178.52 56.28 C 180.74 57.81 183.31 58.68 185.93 59.22 L 186.66 59.44 C 192.56 62.35 198.89 64.33 204.66 67.57 C 204.94 70.71 205.08 73.87 205.02 77.02 C 204.91 77.80 204.67 79.34 204.56 80.11 C 204.01 82.29 203.79 84.50 203.89 86.73 L 203.76 87.64 C 202.66 93.09 201.45 98.55 201.03 104.11 C 200.54 108.87 199.88 113.85 197.69 118.14 C 196.83 119.55 196.12 121.13 196.13 122.81 C 195.90 125.34 195.75 128.19 194.13 130.26 C 197.17 121.97 189.41 121.92 185.00 124.98 C 185.05 124.51 185.16 123.56 185.22 123.09 C 185.44 121.80 185.88 120.55 186.35 119.33 C 187.78 116.41 188.86 113.31 189.29 110.07 C 189.61 108.48 189.96 106.89 190.38 105.32 C 192.46 98.08 193.58 90.59 194.23 83.09 L 194.32 82.24 C 197.79 75.21 193.52 70.60 186.85 70.13 C 185.58 69.85 184.26 69.66 183.19 68.86 C 178.96 66.09 174.05 64.47 169.05 63.83 L 168.26 63.68 Z" />
<path fill="#e85643" opacity="1.00" d=" M 126.98 69.44 C 129.68 68.76 132.39 68.77 135.10 69.46 C 136.56 69.64 139.47 70.00 140.93 70.18 L 141.90 70.42 C 143.11 71.02 144.45 71.17 145.79 71.09 L 146.67 71.24 C 156.32 73.07 166.41 75.45 176.03 72.02 C 173.24 75.14 169.78 77.57 165.76 78.85 L 164.92 78.99 C 159.60 79.00 154.29 79.05 148.98 78.97 C 148.30 78.91 146.94 78.80 146.26 78.74 C 141.53 78.57 136.30 76.69 131.80 78.85 C 130.91 79.27 130.02 79.67 129.11 80.02 C 125.21 78.57 119.16 89.46 119.97 83.12 C 120.29 82.14 120.71 81.19 121.21 80.28 C 123.56 78.47 126.09 76.93 128.47 75.17 L 129.19 74.63 C 131.40 69.06 117.95 77.15 117.30 75.33 C 118.20 72.97 120.20 71.35 122.21 69.96 L 123.17 69.99 C 124.47 70.21 125.81 70.07 126.98 69.44 Z" />
<path fill="#e85643" opacity="1.00" d=" M 50.10 83.15 C 54.65 79.47 60.48 76.19 66.52 77.41 C 76.21 76.64 69.15 79.72 66.80 80.79 L 66.06 81.01 C 63.37 81.73 60.69 82.72 58.52 84.52 L 57.97 84.92 C 53.99 87.70 49.25 91.08 48.79 96.26 L 48.54 97.46 C 45.24 93.63 48.43 88.05 49.79 83.86 L 50.10 83.15 Z" />
<path fill="#e85643" opacity="1.00" d=" M 132.86 81.90 L 133.89 81.90 C 147.68 79.84 156.78 93.54 169.91 94.22 L 170.74 94.30 C 173.40 94.59 178.72 95.16 181.39 95.44 C 173.58 98.46 164.82 98.68 156.86 96.09 C 155.84 95.95 155.01 95.48 154.37 94.69 C 152.68 92.82 150.17 92.14 148.01 90.99 L 147.46 90.59 C 143.38 86.63 137.52 85.64 132.36 83.75 C 132.49 83.29 132.74 82.36 132.86 81.90 Z" />
<path fill="#e85643" opacity="1.00" d=" M 72.31 84.22 L 73.14 83.93 C 74.67 84.13 77.75 84.55 79.29 84.76 C 78.27 85.30 77.20 85.70 76.08 85.97 C 71.67 86.95 67.36 89.66 65.74 94.03 L 65.37 94.72 C 64.22 95.27 63.48 96.52 63.91 97.80 C 63.63 99.58 64.30 100.30 65.90 99.95 C 69.63 99.15 73.17 97.52 76.31 95.36 L 76.98 95.08 C 85.43 92.31 93.84 89.14 101.23 84.10 C 100.27 86.10 99.10 87.99 97.90 89.86 L 97.17 90.12 C 85.75 96.14 72.53 100.81 64.94 111.98 L 64.50 112.51 C 62.04 114.72 61.67 118.08 60.96 121.11 C 60.87 121.52 60.68 122.33 60.59 122.73 C 60.20 124.44 60.03 126.19 59.89 127.93 C 58.60 126.55 56.87 125.92 55.02 125.78 C 54.94 122.12 55.45 118.53 55.91 114.93 C 52.06 114.87 48.90 117.38 45.53 118.90 L 44.64 119.33 C 47.28 113.58 52.50 108.54 54.12 101.96 C 54.48 101.10 54.92 100.27 55.45 99.49 C 58.56 92.03 64.76 86.85 72.31 84.22 Z" />
<path fill="#e85643" opacity="1.00" d=" M 99.09 100.57 C 93.75 98.92 96.70 98.69 101.91 98.96 L 102.75 99.17 C 106.80 101.95 111.22 104.81 116.34 103.76 C 116.29 105.65 114.81 106.79 113.43 107.82 C 111.65 108.78 111.41 110.95 111.01 112.72 L 110.79 113.58 C 108.66 122.95 109.20 112.00 108.80 107.34 C 106.57 109.29 99.85 102.05 99.83 106.96 L 99.60 108.15 C 97.36 107.10 95.11 106.05 92.78 105.23 C 91.46 105.06 90.82 104.32 90.85 103.01 C 93.60 102.20 96.42 101.63 99.09 100.57 Z" />
<path fill="#e85643" opacity="1.00" d=" M 140.01 100.05 C 142.29 99.60 144.57 99.11 146.88 98.82 C 145.36 100.32 144.70 101.56 147.45 101.45 C 158.58 98.56 144.05 112.87 144.60 105.03 C 141.89 107.48 135.34 104.46 135.97 108.76 C 135.95 110.84 135.94 112.92 135.96 115.00 C 136.01 117.79 135.91 120.64 136.73 123.34 L 136.93 124.18 C 136.74 125.58 136.36 128.36 136.16 129.75 C 135.62 129.10 135.06 128.47 134.49 127.84 C 133.15 120.55 135.19 111.10 129.25 105.51 L 128.59 104.85 C 131.23 102.73 136.58 104.00 139.30 100.30 L 140.01 100.05 Z" />
<path fill="#e85643" opacity="1.00" d=" M 8.11 111.94 C 7.68 110.35 7.79 108.68 8.44 107.17 C 8.68 107.60 9.17 108.46 9.42 108.89 C 9.27 109.64 8.96 111.13 8.81 111.88 L 8.11 111.94 Z" />
<path fill="#e85643" opacity="1.00" d=" M 242.44 112.96 C 242.58 114.45 242.86 117.44 242.99 118.94 L 242.21 119.02 C 242.03 118.59 241.67 117.72 241.50 117.29 C 241.64 115.81 241.95 114.37 242.44 112.96 Z" />
<path fill="#e85643" opacity="1.00" d=" M 7.87 138.44 C 5.55 130.83 7.31 122.53 7.81 114.77 C 7.97 122.66 7.99 130.55 7.87 138.44 Z" />
<path fill="#e85643" opacity="1.00" d=" M 74.00 119.06 C 76.39 117.77 78.65 116.26 80.97 114.84 C 77.48 122.89 69.57 127.65 63.17 133.20 C 64.40 130.78 72.89 124.34 66.05 124.95 C 68.55 123.17 71.02 121.34 73.42 119.42 L 74.00 119.06 Z" />
<path fill="#e85643" opacity="1.00" d=" M 86.95 120.04 C 87.47 118.48 88.11 118.45 88.88 119.96 C 88.99 122.22 89.31 124.47 90.05 126.62 C 89.26 126.71 88.47 126.83 87.68 126.96 C 87.41 124.65 87.17 122.35 86.95 120.04 Z" />
<path fill="#e85643" opacity="1.00" d=" M 61.02 128.83 C 61.50 127.40 62.75 126.55 64.16 126.18 C 64.20 127.72 62.74 130.11 61.02 128.83 Z" />
<path fill="#e85643" opacity="1.00" d=" M 96.70 127.93 C 96.90 126.81 97.78 126.14 98.80 126.84 L 98.79 127.59 C 98.60 128.17 98.22 129.33 98.03 129.91 L 97.39 129.82 C 97.22 129.35 96.88 128.40 96.70 127.93 Z" />
<path fill="#e85643" opacity="1.00" d=" M 142.22 129.09 C 142.86 127.82 143.60 126.59 144.54 125.51 C 144.89 127.25 145.63 129.53 143.96 130.85 L 143.16 131.03 C 142.92 130.54 142.46 129.58 142.22 129.09 Z" />
<path fill="#e85643" opacity="1.00" d=" M 75.61 128.84 C 77.46 125.05 79.63 129.73 75.86 129.64 L 75.61 128.84 Z" />
<path fill="#e85643" opacity="1.00" d=" M 144.90 133.09 C 146.29 131.13 147.71 133.05 147.16 134.76 C 146.63 134.54 145.56 134.10 145.03 133.88 L 144.90 133.09 Z" />
<path fill="#e85643" opacity="1.00" d=" M 241.93 132.16 L 242.89 131.97 C 244.28 139.64 247.67 147.19 246.28 155.28 C 245.92 156.83 245.52 158.37 245.03 159.89 C 242.52 163.14 241.80 167.27 241.27 171.24 L 240.96 171.93 C 238.70 174.99 236.02 178.22 236.15 182.25 C 235.73 183.07 235.29 183.88 234.83 184.68 C 232.71 186.75 231.44 189.48 230.06 192.06 L 229.71 192.67 C 227.94 194.05 226.63 195.91 226.02 198.08 L 225.70 198.70 C 220.68 203.06 216.91 208.61 212.76 213.74 C 207.91 217.53 202.61 221.00 198.68 225.80 L 198.12 226.14 C 196.57 226.27 194.87 226.99 194.81 228.79 L 194.15 229.02 C 191.13 229.67 188.65 231.58 186.73 233.92 C 181.79 236.83 176.62 239.38 171.19 241.24 C 169.52 240.76 167.78 241.52 167.03 243.09 C 161.85 244.74 156.62 246.24 151.28 247.26 C 147.99 246.84 144.77 247.62 141.74 248.85 C 141.29 248.91 140.40 249.03 139.95 249.09 C 138.42 249.31 135.36 249.77 133.84 250.00 L 115.06 250.00 C 113.83 248.43 111.60 248.33 109.96 249.30 L 109.17 248.84 C 107.72 247.45 105.63 247.63 103.88 248.22 L 103.17 247.87 C 102.10 246.52 100.29 246.62 98.87 247.26 C 94.61 246.28 90.26 245.58 86.16 244.05 C 84.43 241.64 81.30 241.73 78.67 241.28 C 77.85 240.82 77.02 240.36 76.20 239.90 C 73.85 237.76 70.75 236.82 67.71 236.19 C 66.89 235.76 66.09 235.32 65.28 234.87 C 63.66 232.13 60.74 230.84 57.74 230.28 L 57.23 229.83 C 56.06 227.72 53.75 226.91 51.61 226.17 L 51.01 225.85 C 51.14 223.57 49.26 221.69 46.94 222.24 L 46.24 221.96 C 40.17 213.71 32.04 207.13 25.31 199.69 L 24.94 199.09 C 22.57 194.34 19.76 189.74 16.32 185.68 L 15.98 185.06 C 14.67 181.83 12.86 178.83 10.95 175.92 C 10.11 174.10 9.35 172.24 8.74 170.33 C 8.09 166.38 6.56 162.63 5.14 158.91 L 4.90 158.16 C 3.59 151.34 1.27 143.97 8.18 139.42 L 8.99 138.92 C 9.04 139.41 9.13 140.40 9.18 140.89 C 8.63 142.63 8.48 144.66 9.78 146.13 L 10.13 146.83 C 9.57 148.25 9.56 149.98 10.81 151.05 L 11.13 151.76 C 11.65 156.10 11.94 160.75 14.72 164.33 C 15.12 165.50 15.53 166.67 15.97 167.84 C 16.56 170.13 17.31 172.41 18.76 174.31 C 19.77 176.52 20.86 178.70 22.01 180.84 C 22.65 183.28 23.44 185.94 25.84 187.22 L 26.29 187.73 C 26.73 190.03 27.31 192.40 29.78 193.25 L 30.22 193.77 C 32.95 200.89 39.58 205.05 44.54 210.49 C 47.88 214.25 51.71 217.53 56.25 219.74 L 56.80 220.15 C 57.48 222.72 59.79 223.51 62.20 223.80 L 62.88 224.11 C 68.42 229.92 76.61 232.53 84.08 235.08 C 85.34 235.50 86.62 235.88 87.90 236.26 C 89.25 237.59 91.03 238.41 92.97 238.02 C 96.25 238.88 99.54 239.72 102.88 240.33 C 104.37 241.46 106.31 241.38 108.03 240.88 L 108.81 241.02 C 119.41 243.40 130.72 244.27 141.26 241.16 L 142.00 240.96 C 143.72 241.37 145.63 241.44 147.12 240.33 C 150.46 239.72 153.75 238.88 157.03 238.02 C 158.96 238.40 160.73 237.59 162.10 236.27 C 164.41 235.66 166.69 234.93 168.93 234.07 C 174.27 232.19 180.12 230.32 184.27 226.29 L 184.77 225.80 C 202.22 216.85 217.02 202.35 225.81 184.77 L 226.30 184.28 C 229.99 179.93 232.41 174.33 234.01 168.85 C 234.92 166.67 235.66 164.43 236.25 162.16 C 238.25 161.20 238.54 158.99 237.96 157.05 C 239.18 153.85 239.94 150.50 240.32 147.10 C 241.45 145.56 241.38 143.59 240.84 141.84 L 241.27 141.12 C 242.88 138.65 243.01 136.27 241.65 133.98 C 241.72 133.52 241.86 132.61 241.93 132.16 Z" />
<path fill="#e85643" opacity="1.00" d=" M 99.03 146.98 C 95.07 145.78 97.87 140.53 97.67 137.81 C 97.71 138.34 97.78 139.41 97.82 139.94 C 97.90 140.68 98.06 142.16 98.14 142.89 C 98.36 144.27 98.69 145.63 99.03 146.98 Z" />
<path fill="#e85643" opacity="1.00" d=" M 141.53 142.03 C 141.61 141.68 141.79 140.97 141.88 140.61 C 143.85 140.67 144.74 142.45 145.70 143.89 C 146.24 145.13 147.49 145.79 148.71 146.21 C 146.51 148.94 143.99 143.06 141.53 142.03 Z" />
<path fill="#e85643" opacity="1.00" d=" M 57.06 143.86 C 57.67 143.28 58.24 142.34 59.21 142.77 C 59.10 143.56 58.88 145.14 58.77 145.93 C 57.91 145.50 57.34 144.81 57.06 143.86 Z" />
<path fill="#e85643" opacity="1.00" d=" M 141.10 142.73 C 142.24 143.31 143.96 145.03 142.41 146.14 C 142.12 145.81 141.53 145.15 141.24 144.83 C 141.20 144.30 141.13 143.25 141.10 142.73 Z" />
<path fill="#e85643" opacity="1.00" d=" M 106.38 147.35 L 107.19 146.65 C 107.53 148.04 106.93 150.31 109.08 150.20 L 110.18 150.51 C 107.83 151.27 105.29 151.40 105.70 148.16 L 106.38 147.35 Z" />
<path fill="#e85643" opacity="1.00" d=" M 108.28 163.23 L 108.74 162.92 C 109.64 164.52 109.13 166.41 108.77 168.09 C 107.72 166.68 107.51 164.81 108.28 163.23 Z" />
</g>
</svg>
