<?xml version="1.0" encoding="utf-8"?>
<!-- Generator: Adobe Illustrator 26.0.3, SVG Export Plug-In . SVG Version: 6.00 Build 0)  -->
<svg version="1.1" id="Layer_1" xmlns="http://www.w3.org/2000/svg" xmlns:xlink="http://www.w3.org/1999/xlink" x="0px" y="0px"
	 viewBox="0 0 250 250" style="enable-background:new 0 0 250 250;" xml:space="preserve">
<style type="text/css">
	.st0{fill:#F6AF4B;}
	.st1{fill:#77442D;}
	.st2{fill:#0A0909;}
	.st3{fill:#E85643;}
</style>
<g id="_x23_f6af4bff">
	<path class="st0" d="M114.4,0h21.1c50.6,4.8,97.2,41.9,109.9,91.6c1.7,6.2,2.9,12.6,4.5,18.9v29.1c-1.1,5.3-2.2,10.5-3.7,15.7
		c1.4-8.1-2-15.6-3.4-23.3c0.1-4.3,0.1-8.7,0.1-13c-0.1-1.5-0.4-4.5-0.6-6c-0.4-1.4-0.8-2.8-1.3-4.2l-0.2-0.7
		c0.5-1.7,0.6-3.7-0.7-5.1l-0.4-0.7c0.6-1.4,0.6-3.2-0.7-4.2l-0.2-0.7c-0.8-3.2-1.7-6.2-2.9-9.3c-0.4-1.2-0.8-2.4-1.2-3.6
		c-1.4-6-3.2-12.2-7.8-16.5l-0.3-0.6c-0.1-1.8-0.4-4.1-2.6-4.3c-1.7-2.1-3.2-4.3-4.5-6.6c-0.3-2-1.8-3.3-3.5-4.3l-0.2-0.8
		c-0.3-2.3-2.5-3.5-4-5.1c-1.5-3-3.5-6.4-7.1-7.1c-1.8-1.9-3.3-4.2-5.9-5l-0.7-0.3c-5.7-5.1-12.2-10.5-19.8-12.3
		c-1.5-0.8-2.9-1.6-4.4-2.4c-1.7-1.9-4.1-2.4-6.5-2.7c-3.3-0.8-6.5-2-9.6-3.3c-3.6-1.7-7.5-2.4-11.4-2.8c-0.4-0.1-1.2-0.3-1.7-0.4
		c-1.1-1.2-2.8-1.2-4.2-0.7c-0.7-0.1-2-0.2-2.6-0.3c-8.8-1.1-17.8-1.3-26.5-0.1c-0.6,0.1-1.9,0.3-2.5,0.4c-3.3,0.1-6.5,0.3-9.5,1.7
		c-0.4,0.1-1.2,0.2-1.7,0.3c-2.2-0.5-4.3,0.3-5.9,1.8c-2.2,0.9-4.5,1.7-6.8,2.4c-6.7,1.4-13.4,4.2-18.6,8.5c-0.7,0.5-1.5,1-2.2,1.5
		c-2.2,0.6-4.6,1.4-5.7,3.6c-1.1,0.8-2.3,1.6-3.5,2.4c-2.2-0.1-3.9,1.3-4.3,3.5L50.2,35c-5.6,3.5-11.7,9.6-15.2,15.2L34.8,51
		c-2.2,0.4-3.6,2-3.4,4.3c-0.6,1.3-1.4,2.6-2.5,3.5c-2.2,1-2.9,3.4-3.7,5.5l-0.5,0.5c-2.9,1.9-3.6,5.4-4.4,8.6l-0.4,0.6
		c-2.7,3.2-4,7.3-4.6,11.4c-0.6,2.2-1.4,4.4-2.3,6.6c-1.4,2.2-2.1,4.8-1.7,7.4c-0.4,1.6-0.8,3.2-1.3,4.8c-0.8,0.9-1.3,1.9-1.5,3.1
		c-0.6,1.5-0.8,3.2-0.3,4.8c-0.1,0.7-0.2,2.1-0.3,2.8c-0.5,7.8-2.3,16.1,0.1,23.7l0.3,1c-6.9,4.6-4.6,11.9-3.3,18.7
		c-3.3-6.8-2.7-14.6-4.9-21.7v-22.9c2-7.4,2.4-15.3,4.8-22.7C18.2,41.6,63.9,4.8,114.4,0z"/>
	<path class="st0" d="M185,125c4.4-3.1,12.2-3,9.1,5.3l-0.5,0.7c-1.2,1-1.8,2.4-1.8,3.9l-0.2,1c-1.2,1-1.8,2.3-1.7,3.9l-0.1,0.9
		c-1.8,2.6-3.3,5.3-3.8,8.5c-0.1,1-0.5,1.9-1.2,2.7c-4.9,8.1-9.7,16.3-14.8,24.3l-0.4,0.5c-10.3,11.8-20.8,23.4-33.2,33.1l-0.6,0.4
		c-1.1,0.6-2.1,1.5-2.9,2.6c-1,1.1-2.2,2.1-3.7,2.6c-3,1.7-6.4,2.1-9.2-0.2l-0.6-0.4c-1.7-1.4-3.6-2.6-5.7-3.3
		c-1.7-0.2-3.1-1-3.6-2.8c-0.4-1.4-1.8-2-3.1-2.4l-0.7-0.3c-2-2.5-4.9-4-7.5-5.7l-0.6-0.4c-2.3-2.7-5-5-7.6-7.4
		c6.8,1.1,14.8-1.1,20.4,3.8l0.7,0.5c0.6,1.2,1.9,1.9,3.2,2.2l0.7,0.3c1.4,2.5,3.6,4.3,6.4,5c1.6,0.9,3.4,1,5,0.1
		c13.3-8.6,24.8-20.5,34.4-33.2c1.1-1.1,1.9-2.4,2.5-3.8c0.7-1,1.6-1.9,2.3-2.9c3-4.5,5.7-9.2,8.1-14c0.6-1.3,1.3-2.6,2-3.9
		c1.5-2.9,2.8-6,4-9.1C182.1,133.3,183.9,129.2,185,125z"/>
	<path class="st0" d="M66.1,124.9c6.8-0.6-1.7,5.8-2.9,8.2c-1.1,1.4-1.5,3.2-2.1,5c-0.8,1.3-0.4,4.3-1.9,4.6c-1-0.4-1.5,0.5-2.1,1.1
		c-0.2-0.2-0.7-0.6-0.9-0.8L56,142c0.1-1.7,0.1-3.4-0.6-4.9l-0.3-0.9c-0.2-3.5-0.2-6.9-0.1-10.4c1.8,0.1,3.6,0.8,4.9,2.2
		c0.3,0.2,0.9,0.7,1.1,0.9c1.7,1.3,3.2-1.1,3.1-2.7C64.6,125.9,65.6,125.3,66.1,124.9z"/>
	<path class="st0" d="M87.7,127c0.8-0.1,1.6-0.2,2.4-0.3c1.1,4,8.9,12,8,3.3c0.2-0.6,0.6-1.7,0.8-2.3c0.2,1.8,0.2,3.7,2.4,3.9
		c-1.3,2-2.7,4-3.6,6.3c0.2,2.7-2.6,8,1.4,9.2c2.1,0.8,4.4,1,6.7,1.2c-0.4,3.2,2.1,3.1,4.5,2.3c1.4-0.3,2.8-0.6,4.1-1.2
		c8-1.1,4.3-12.4-1.9-13.8c-4.5-1.1-7.9-7.4-0.7-5.4c0.4,0.2,1.1,0.6,1.4,0.8c3.5,1.9,8.2,3.3,11.8,1.1c0.3-0.2,1-0.5,1.4-0.6
		c2.8-1,6.1-1.1,8.2-3.5c0.6,0.6,1.1,1.3,1.7,1.9c-1.9,1.6-3.8,3.1-5.6,4.8l-0.6,0.3c-2.8,1.2-4.8,3.3-6.2,6l-0.4,0.6
		c-4.9,5.5,2.2,7.7,6.5,8.7c1.2,0.2,3.2,1.5,3.9-0.2c1.5-3.4,6.7-0.7,8.6-3.9c1.6-1.1-0.2-2.8-1.3-3.4l0.4-0.7c2.5,1,5,6.9,7.2,4.2
		c0.1-1.8-1-3.3-2.5-4.3l-0.2-1c-0.1-1.3-0.9-2.4-1.9-3.2c0.1-1.3,0.6-2.6,0.9-3.8c0.5,0.2,1.6,0.7,2.1,0.9c0.4,0.4,1.2,1.1,1.6,1.4
		c1.8,2.8,3.7,5.6,6.1,8c2.4,8.3,5.2,18,0.1,25.9l-0.4,0.6c-2.3,3.4-5.2,6.3-8,9.2l-0.7,0.5c-0.3-0.5-0.8-1.6-1-2.1
		c0.4-1,0.9-2,1.4-3c2.1-4.8,3.2-10.1,2.8-15.4c-1.8-0.2-3.1,1.3-3,3c-0.2,1.3,0.1,3-1.2,3.8c-3.5,5.9-2.8-6.4-6,0.3l-0.3,0.9
		c-1.2,1.4-2.3,3-2.3,4.8l-0.2,0.9c-2.1,0.8-6.5,6.8-6.1,1.8c1.8-3.2,0.8-8.3,3.9-10.8c-0.4,2.2,3,3.5,2.4,0.6
		c0.4-3.1,0.7-6.3,1-9.4c2.4,1.6,7.7,7.7,4.7-1.8c-3.6-4.8-13.5,0-19.2-2.9c-2.9-0.4-5.7,0.5-8.5,1c-5.9,1.8-17.5-3.6-14.2,6.6
		c7-4.1,1.4,9.4,5.9,6.2c0.8-0.6,1.6-1.2,2.4-1.8c-0.8,1.6-0.6,3.4,0.5,4.9l0.3,0.7c-0.5,1.5-0.5,3.2,0.7,4.3l0.1,0.9
		c0.3,2.7,0.9,5.4,1.1,8.2c-1.7-1.8-3-3.8-4.5-5.6l-0.4-0.6c-1.3-2.5-3.2-5.4-6.1-5.9l-0.8-0.2c-3.1-2.8-6-5.9-7.4-9.9
		c3.4,0.6,5.4-0.5,3.7-4.1c-0.1-0.4-0.3-1.2-0.3-1.6c-1.6-5.6,1.1-12.8-2.8-17.4c-0.6-0.8-1.4-1.3-2.3-1.5c-1.6-0.3-2.2,1.6-2.8,2.7
		l-0.4,0.8c-0.9,0.8-1.8,1.7-1.7,3l-0.1,0.9c-1,1.2-2,2.3-3,3.4c0.2-4.1,1.5-8.1,3.3-11.8C87.1,132.3,88.4,129.8,87.7,127z"/>
	<path class="st0" d="M70,133c1.8-1.5,3.6-2.9,5.6-4.2l0.2,0.8c-0.8,1.7-1.5,3.5-2.1,5.3l-0.3,0.7c-2.3,6.5-3,13.9-0.9,20.6
		c0.2,1.8,1.1,3.3,2,4.8l0.4,1c-1.1,2.5,2.8,2.8,1.9,0.2c2-3.7,2.2-0.4,2.7,2.1l0.1,0.8c0.6,3.9,2.2,7.7,4.9,10.6l0.6,0.7
		c0.8,1,1.8,2,2.7,2.8c-1.9-8.5-2.4-17.2-1.9-25.9c2.9-8.4,1.8,4.9,2.7,8.1c0.1,1.6,0.2,3.1,0.8,4.6c0.4,1.4,0.8,2.9,1.2,4.2
		c1.1,3.6,2.8,7,5.2,9.9c2.1,3.3,4.7,6.2,6.5,9.7c-0.8-0.1-2.6-0.2-3.4-0.3c-1.5-0.6-3.2-0.7-4.8-0.5c-2.7,0.7-6.3-2.3-8.3-0.2
		c-1.7,3-2.5,6.6-5.4,8.7c-0.1-0.6-0.2-1.8-0.3-2.4c0.2-5.3-0.5-11-3.9-15.3c-0.6-0.8-1-1.6-1.3-2.6c-1-3.8-2.4-7.4-4.6-10.6l-0.3-1
		c-1.9-4.3-4,4.2-7,4.7c-0.2-8.3-0.4-16.7,1.2-24.9c0.3-1,0.7-2,1-3C66.8,139.2,68.4,136.1,70,133z"/>
	<path class="st0" d="M142.2,129.1c0.2,0.5,0.7,1.4,0.9,1.9c-0.6,1.6-1.8,3.6-3.2,1.5C140.7,131.4,141.6,130.3,142.2,129.1z"/>
	<path class="st0" d="M5.1,158.9c1.4,3.7,3,7.5,3.6,11.4C5.9,167.2,6.3,162.7,5.1,158.9z"/>
	<path class="st0" d="M241.3,171.2c0.5-4,1.2-8.1,3.8-11.4C244.2,163.8,243.6,167.9,241.3,171.2z"/>
	<path class="st0" d="M124.1,167.9c2.6,6.7,3.1-6.6,4.8-7.3c0.4,1.9,0.9,3.7,1.3,5.6c-0.4,2.2-0.9,4.4-1.4,6.6
		c-3.5,5.9-7.4,12.1-7,19.3c-3.2-0.6-4.4-4.2-6.4-6.5L115,185c-0.7-3.3-5.2-9.2-1.3-11.1c0.6,1.5,1.4,2.9,2.2,4.2
		c0.2,1.5,2.8,3.2,3.1,0.9c0.7-3.4,1.4-6.8,2.1-10.2c0.7-1,1.4-2.4,2.9-2.1L124.1,167.9z"/>
	<path class="st0" d="M236.1,182.2c-0.1-4,2.6-7.3,4.8-10.3C239.8,175.6,238,178.9,236.1,182.2z"/>
	<path class="st0" d="M10.9,175.9c1.9,2.9,3.7,5.9,5,9.1C13,182.8,11.7,179.4,10.9,175.9z"/>
	<path class="st0" d="M230.1,192.1c1.4-2.6,2.7-5.3,4.8-7.4C234.1,187.6,233.2,190.9,230.1,192.1z"/>
	<path class="st0" d="M16.3,185.7c3.4,4.1,6.2,8.7,8.6,13.4C20.7,195.8,17.9,190.8,16.3,185.7z"/>
	<path class="st0" d="M226,198.1c0.6-2.2,1.9-4,3.7-5.4C229.2,194.9,227.9,196.7,226,198.1z"/>
	<path class="st0" d="M212.8,213.7c4.2-5.1,7.9-10.7,12.9-15c-6.3,11.2-15.8,20.7-27,27.1C202.6,221,207.9,217.5,212.8,213.7z"/>
	<path class="st0" d="M25.3,199.7c6.7,7.4,14.9,14,20.9,22.3C38.8,215.4,29.8,209,25.3,199.7z"/>
	<path class="st0" d="M46.9,222.2c2.3-0.6,4.2,1.3,4.1,3.6C49.2,225.3,47.9,223.9,46.9,222.2z"/>
	<path class="st0" d="M51.6,226.2c2.1,0.7,4.5,1.6,5.6,3.7C55.1,229,52.9,228.1,51.6,226.2z"/>
	<path class="st0" d="M194.8,228.8c0.1-1.8,1.8-2.5,3.3-2.6C198.2,228,196.4,228.8,194.8,228.8z"/>
	<path class="st0" d="M186.7,233.9c1.9-2.3,4.4-4.2,7.4-4.9C192.1,231.3,189.7,233.2,186.7,233.9z"/>
	<path class="st0" d="M57.7,230.3c3,0.6,5.9,1.9,7.5,4.6C62.6,233.7,59.8,232.4,57.7,230.3z"/>
	<path class="st0" d="M67.7,236.2c3,0.6,6.1,1.6,8.5,3.7C73.1,239.4,70.1,238.4,67.7,236.2z"/>
	<path class="st0" d="M78.7,241.3c2.6,0.4,5.8,0.4,7.5,2.8C83.6,243.4,80.9,242.9,78.7,241.3z"/>
	<path class="st0" d="M167,243.1c0.8-1.6,2.5-2.3,4.2-1.8C170.4,242.8,168.7,243.5,167,243.1z"/>
	<path class="st0" d="M98.9,247.3c1.4-0.6,3.2-0.7,4.3,0.6C101.7,248.4,100,248.4,98.9,247.3z"/>
	<path class="st0" d="M141.7,248.9c3-1.2,6.2-2,9.5-1.6C148.2,248.3,145,249.1,141.7,248.9z"/>
	<path class="st0" d="M103.9,248.2c1.8-0.6,3.8-0.8,5.3,0.6C107.4,249.4,105.4,249.5,103.9,248.2z"/>
	<path class="st0" d="M110,249.3c1.6-1,3.9-0.9,5.1,0.7h-4.8L110,249.3z"/>
	<path class="st0" d="M133.8,250c1.5-0.2,4.6-0.7,6.1-0.9l-0.2,0.9H133.8z"/>
</g>
<g id="_x23_77442dff">
	<path class="st1" d="M111.7,8.7c8.8-1.3,17.7-1,26.5,0.1C129.4,8.9,120.6,9.3,111.7,8.7z"/>
	<path class="st1" d="M99.7,10.8c3-1.4,6.2-1.6,9.5-1.7C106.1,10.1,102.9,10.9,99.7,10.8z"/>
	<path class="st1" d="M140.9,9.1c1.4-0.5,3.1-0.5,4.2,0.7C143.7,10.4,141.9,10.5,140.9,9.1z"/>
	<path class="st1" d="M146.8,10.2c3.9,0.4,7.8,1,11.4,2.8C154.2,12.3,150.4,11.5,146.8,10.2z"/>
	<path class="st1" d="M92.1,12.9c1.6-1.4,3.8-2.3,5.9-1.8C96.5,13,94.3,13.6,92.1,12.9z"/>
	<path class="st1" d="M66.7,23.8c5.2-4.3,12-7.1,18.6-8.5C79.3,18.5,73.1,21.5,66.7,23.8z"/>
	<path class="st1" d="M167.7,16.2c2.4,0.3,4.8,0.8,6.5,2.7C171.9,18.4,169.6,17.7,167.7,16.2z"/>
	<path class="st1" d="M178.6,21.4c7.6,1.8,14.1,7.2,19.8,12.3C191.2,30.5,185.4,25.1,178.6,21.4z"/>
	<path class="st1" d="M58.7,28.9c1.1-2.2,3.5-3,5.7-3.6C62.9,27,60.8,28.1,58.7,28.9z"/>
	<path class="st1" d="M51,34.8c0.4-2.2,2-3.6,4.3-3.5C54.4,33,53.1,34.9,51,34.8z"/>
	<path class="st1" d="M199,34c2.6,0.8,4.1,3.2,5.9,5c2.2,2.5,4.5,5,7.1,7.1c1.5,1.6,3.7,2.7,4,5.1C209.2,46.7,203.8,40.5,199,34z"/>
	<path class="st1" d="M35,50.2c3.5-5.6,9.6-11.7,15.2-15.2C45.9,40.8,40.8,45.8,35,50.2z"/>
	<path class="st1" d="M111.8,49.2c4.2-3,11.7-3.3,17.2-5.3c0.5,5.4-6.2,9.8-11.2,10c3.9-2.3,8-4.8,10.5-8.6
		C122.9,46.8,117.4,48.4,111.8,49.2z"/>
	<path class="st1" d="M164.9,45.8c2.3-2.5,4.7,7,1.3,5.1c-0.3-6.7-4.1,1.7-7,2.4c-18.6,7.8-43.5-1.6-59,14c1.1-6.7,9.9-7.2,14.8-9.3
		C130.9,53,153.8,61.7,164.9,45.8z"/>
	<path class="st1" d="M107.2,50.1c-0.2-1.9,3-1.8,3.8-0.6C109.8,50,108.5,50.2,107.2,50.1z"/>
	<path class="st1" d="M75.1,60.1c7.5-9,20.7-8.4,31.2-9.9c-8.4,3-18.4,2.1-26,7.1c-7,3.8-12.3,14.8-3.7,20c-0.6-4-0.4-11.3,5.2-11.3
		c-0.2,5.6,1.4,10.9,5.5,14.8c-6.2-1.3-6.2-8.8-6.4-13.8c-6.6,2.3,0.4,12.9-6.7,10.9C70.2,73,69.6,64.2,75.1,60.1z"/>
	<path class="st1" d="M31.4,55.3c-0.2-2.3,1.3-3.9,3.4-4.3C34.9,53.1,33.1,54.4,31.4,55.3z"/>
	<path class="st1" d="M144.7,64.6c8.9-0.2,18.2-3.6,21.1-12.9C165.3,62.2,153.7,66.6,144.7,64.6z"/>
	<path class="st1" d="M216.2,51.9c1.7,0.9,3.1,2.3,3.5,4.3C217.6,56,215.7,54.2,216.2,51.9z"/>
	<path class="st1" d="M168.3,63.7c-8.8,3.8-0.1-13.3,2.8-10C168.6,55.7,162.4,63.5,168.3,63.7z"/>
	<path class="st1" d="M172,54.3c1.7-0.8,5.1-0.1,5.7,1.7C175.6,56.3,173.6,55.7,172,54.3z"/>
	<path class="st1" d="M98.7,59.6c3.8-2.2,8.1-3.2,12.4-3.6C108.1,58.6,102.8,59.4,98.7,59.6z"/>
	<path class="st1" d="M178.5,56.3c2.5,0.2,6.3,0.5,7.4,2.9C183.3,58.7,180.7,57.8,178.5,56.3z"/>
	<path class="st1" d="M25.2,64.2c0.8-2.1,1.5-4.5,3.7-5.5C28,60.8,27.2,63,25.2,64.2z"/>
	<path class="st1" d="M186.7,59.4c6.6,0.2,12.3,4.3,18.3,6.7c1.1,1.3,2.8,10.4,0.1,10.9c0.1-3.1-0.1-6.3-0.4-9.4
		C198.9,64.3,192.6,62.3,186.7,59.4z"/>
	<path class="st1" d="M89.5,73.3c-2.3-6.4,2.2-12.5,8.5-13.4C93.5,63.1,89,66.8,89.5,73.3z"/>
	<path class="st1" d="M224.2,62.8c2.2,0.2,2.4,2.6,2.6,4.3C224.7,66.8,224.4,64.6,224.2,62.8z"/>
	<path class="st1" d="M169.1,63.8c5,0.6,9.9,2.3,14.1,5C178.5,68.1,172.6,66.2,169.1,63.8z"/>
	<path class="st1" d="M20.3,73.3c0.8-3.1,1.5-6.7,4.4-8.6C23.6,67.7,22.7,71,20.3,73.3z"/>
	<path class="st1" d="M109.6,74.2c2.9-11.7,18.6-9.4,27.4-9.2C128.9,66.2,115.5,64,109.6,74.2z"/>
	<path class="st1" d="M99.5,76.5c-1.3,5.8-4.9-8.3,0.4-8.6C99.2,70.6,96.4,74.4,99.5,76.5z"/>
	<path class="st1" d="M227,67.8c4.6,4.3,6.4,10.5,7.8,16.5C231.4,79.3,229.4,73.4,227,67.8z"/>
	<path class="st1" d="M99.8,75.3c-0.1-2.5,3.1-8.3,5-5.7C102.7,71.2,101.5,73.4,99.8,75.3z"/>
	<path class="st1" d="M123.2,70c-0.2-1.8,3-1.7,3.8-0.5C125.8,70.1,124.5,70.2,123.2,70z"/>
	<path class="st1" d="M135.1,69.5c1.5-1.2,5.4-1.6,5.8,0.7C139.5,70,136.6,69.6,135.1,69.5z"/>
	<path class="st1" d="M116,78.1c-0.6-3.7,1.8-8.9,6.2-8.1c-2,1.4-4,3-4.9,5.4c0.6,1.8,14.1-6.3,11.9-0.7
		C124.5,73,120.5,77.3,116,78.1z"/>
	<path class="st1" d="M141.9,70.4c0.9-1.1,4.1-1.2,3.9,0.7C144.4,71.2,143.1,71,141.9,70.4z"/>
	<path class="st1" d="M186.9,70.1c6.7,0.5,10.9,5.1,7.5,12.1C197.8,73.9,190.9,73.8,186.9,70.1z"/>
	<path class="st1" d="M146.7,71.2c10.2,0.6,20.3,2.3,30.4-0.3c-0.6,4.7-6.5,8.7-11.3,7.9c4-1.3,7.5-3.7,10.3-6.8
		C166.4,75.4,156.3,73.1,146.7,71.2z"/>
	<path class="st1" d="M104.9,76.8c-1.8,0.2-1.8-3.8,0-3.6C105.1,74.4,105.1,75.6,104.9,76.8z"/>
	<path class="st1" d="M15.3,85.3c0.6-4.1,1.9-8.2,4.6-11.4C19,77.9,17.6,81.9,15.3,85.3z"/>
	<path class="st1" d="M89.7,74c2.5,3.3,7.7,5.2,7.4,9.9c-2.7-0.8-7.6,0.5-9.1-3c2.7,0.8,5.4,1.7,8.2,2.1
		C94.6,79.6,89.9,78.2,89.7,74z"/>
	<path class="st1" d="M109.4,79.9c0-1.2-0.1-3.7-0.1-4.9C111,76,111.1,78.9,109.4,79.9z"/>
	<path class="st1" d="M121.2,80.3c0.3-3.6,4.2-4.9,7.3-5.1C126.1,76.9,123.6,78.5,121.2,80.3z"/>
	<path class="st1" d="M50.1,83.2c3-7.7,15.4-8.2,22.2-5.5c2.5,2.9-3.5,3.7-5.5,3.1c2.3-1.1,9.4-4.2-0.3-3.4
		C60.5,76.2,54.7,79.5,50.1,83.2z"/>
	<path class="st1" d="M131.8,78.8c4.5-2.2,9.7-0.3,14.5-0.1C141.4,78.9,136.6,79.2,131.8,78.8z"/>
	<path class="st1" d="M105.2,78.7c2.1,3.2,7.3,10.1,4.7,2.1c2.2,1.2,2.4,4.1,2.2,6.3C108,86.7,105.5,82.3,105.2,78.7z"/>
	<path class="st1" d="M149,79c5.3,0.1,10.6,0,15.9,0C162.9,80.2,151.1,81.6,149,79z"/>
	<path class="st1" d="M120,83.1c-0.8,6.3,5.2-4.6,9.1-3.1c-4,2.5-7,5.7-10,9.2C119.3,87.7,119.8,84.7,120,83.1z"/>
	<path class="st1" d="M203.9,86.7c-0.1-2.2,0.1-4.4,0.7-6.6C205.6,81.8,206.3,86.2,203.9,86.7z"/>
	<path class="st1" d="M58.5,84.5c2.2-1.8,4.8-2.8,7.5-3.5C64.6,83.7,61.3,84.2,58.5,84.5z"/>
	<path class="st1" d="M133.9,81.9c12.4-4.5,24.8,9.5,36,12.3C156.8,93.5,147.7,79.8,133.9,81.9z"/>
	<path class="st1" d="M131.3,84.6c-2.7-1.1-0.9-3.6,1.5-2.7c-0.1,0.5-0.4,1.4-0.5,1.8c5.2,1.9,11,2.9,15.1,6.8
		C141.9,89,136.9,86.2,131.3,84.6z"/>
	<path class="st1" d="M73.1,83.9c-0.7-3,14.2-0.4,6.2,0.8C77.8,84.6,74.7,84.1,73.1,83.9z"/>
	<path class="st1" d="M99.3,83.3c5.1-2.4,2.1,7.3-1.4,6.5c1.2-1.9,2.4-3.8,3.3-5.8c-7.4,5-15.8,8.2-24.2,11
		C83.1,89.5,93.4,89.6,99.3,83.3z"/>
	<path class="st1" d="M190.4,105.3c0-7.1,1.5-17.1,3.8-22.2C193.6,90.6,192.5,98.1,190.4,105.3z"/>
	<path class="st1" d="M46,93c1.4-2.4-0.3-9.3,3.8-9.1c-1.4,4.2-4.5,9.8-1.2,13.6C50.9,102,40.5,95.6,46,93z"/>
	<path class="st1" d="M55.5,99.5c0.6-8.3,8.8-15,16.9-15.3C64.8,86.8,58.6,92,55.5,99.5z"/>
	<path class="st1" d="M48.8,96.3c0.5-5.2,5.2-8.6,9.2-11.3C56.5,89.3,51.4,92.2,48.8,96.3z"/>
	<path class="st1" d="M65.7,94c1.6-4.4,5.9-7.1,10.3-8.1C72.8,88.8,69.3,91.5,65.7,94z"/>
	<path class="st1" d="M201,104.1c0.4-5.6,1.6-11,2.7-16.5C203.1,92.9,204.4,99.7,201,104.1z"/>
	<path class="st1" d="M236,87.9c1.1,3,2.1,6.1,2.9,9.3C237.9,94.1,236.9,91,236,87.9z"/>
	<path class="st1" d="M64.9,112c7.6-11.2,20.8-15.8,32.2-21.9c-6.3,6.4-16.9,9-24.2,14.9C70.4,107.2,68.7,111.7,64.9,112z"/>
	<path class="st1" d="M148,91c2.2,1.2,4.7,1.8,6.4,3.7C152.2,93.8,147.7,94.2,148,91z"/>
	<path class="st1" d="M11.3,99.3c-0.4-2.6,0.3-5.2,1.7-7.4C12.9,94.4,12.2,96.9,11.3,99.3z"/>
	<path class="st1" d="M170.7,94.3c3,1.3,13.5-3.3,13,1.4c-8.1,3.4-19.6,5.5-26.9,0.3c8,2.6,16.7,2.4,24.5-0.6
		C178.7,95.2,173.4,94.6,170.7,94.3z"/>
	<path class="st1" d="M63.9,97.8c-0.4-1.3,0.3-2.5,1.5-3.1C66.3,95.7,65.4,98.2,63.9,97.8z"/>
	<path class="st1" d="M65.9,99.9c2.4-3,6.8-4.1,10.4-4.6C73.2,97.5,69.6,99.2,65.9,99.9z"/>
	<path class="st1" d="M95.1,99c-0.3-2.5,7.1-1.7,6.8-0.1c-5.2-0.3-8.2,0-2.8,1.6c-2.7,1.1-5.5,1.6-8.2,2.4
		C90.1,99.5,95.6,102.5,95.1,99z"/>
	<path class="st1" d="M140,100.1c0.8-2.5,5.3-1.9,6.9-2c3-0.2-1,8.2,6.2,3.2c0.9,4.5-9.2,11.5-9.2,4.9c-2.3,1.8-4.9,3.1-7.9,2.7
		c-0.6-4.3,5.9-1.3,8.6-3.7c-0.6,7.8,14-6.5,2.8-3.6c-2.8,0.1-2.1-1.1-0.6-2.6C144.6,99.1,142.3,99.6,140,100.1z"/>
	<path class="st1" d="M239.1,97.9c1.3,1,1.3,2.8,0.7,4.2C238.6,101.1,238.6,99.4,239.1,97.9z"/>
	<path class="st1" d="M102.8,99.2c4.9-0.6,8.8,6.3,13.6,2.3c2.5-2,1.9,2.4,0,2.3C111.2,104.8,106.8,101.9,102.8,99.2z"/>
	<path class="st1" d="M128.7,101.4c3.6,3.3,6.8-1.4,10.6-1.1c-2.7,3.7-8.1,2.4-10.7,4.5C126,103.9,124.7,99.3,128.7,101.4z"/>
	<path class="st1" d="M40.9,119.9c6-4.8,8-12.9,13.2-18c-1.6,6.6-6.8,11.6-9.5,17.4C44.7,120.9,41.9,119.6,40.9,119.9z"/>
	<path class="st1" d="M240.2,102.9c1.3,1.4,1.2,3.4,0.7,5.1C239.4,106.7,239.6,104.6,240.2,102.9z"/>
	<path class="st1" d="M8.4,107.2c0.2-1.2,0.7-2.2,1.5-3.1c0.4,1.6,0.4,3.4-0.5,4.8C9.2,108.5,8.7,107.6,8.4,107.2z"/>
	<path class="st1" d="M92.8,105.2c2.3,0.8,4.6,1.9,6.8,2.9C99.9,110.1,93.1,107.8,92.8,105.2z"/>
	<path class="st1" d="M99.8,107c0-4.9,6.7,2.3,9,0.4c0.4,4.7-0.1,15.6,2,6.2c0.1,2.5,1.3,6.8-2.7,5.4c0-2.7-0.1-8.1-0.2-10.8
		C103.1,112,103.1,104.7,99.8,107z"/>
	<path class="st1" d="M129.2,105.5c5.9,5.6,3.9,15,5.2,22.3c-2.1,2.4-5.4,2.6-8.2,3.5c0-2.8,4.9-1.6,6.7-3.6
		C133.5,120.2,132.1,112.6,129.2,105.5z"/>
	<path class="st1" d="M111,112.7c0.4-1.8,0.6-3.9,2.4-4.9C113.9,109.5,113.2,113,111,112.7z"/>
	<path class="st1" d="M241.1,108.7c0.5,1.4,0.9,2.8,1.3,4.2c-0.5,1.4-0.8,2.8-0.9,4.3C240.9,114.5,241.2,111.6,241.1,108.7z"/>
	<path class="st1" d="M186.4,119.3c-0.1-3,0.6-7.6,2.9-9.3C188.9,113.3,187.8,116.4,186.4,119.3z"/>
	<path class="st1" d="M8.1,111.9l0.7-0.1c0.2,9,0.2,18,0.2,27l-0.8,0.5l-0.3-1c0.1-7.9,0.1-15.8-0.1-23.7
		C7.9,114.1,8,112.7,8.1,111.9z"/>
	<path class="st1" d="M61,121.1c0.7-3,1.1-6.4,3.5-8.6C63.4,115.4,63.9,119.4,61,121.1z"/>
	<path class="st1" d="M74,119.1c1.1-3,5-5.1,8-6.1c-0.8,11.7-15.1,17.2-20.9,25.2c0.6-1.7,1-3.5,2.1-5c6.4-5.5,14.3-10.3,17.8-18.4
		C78.7,116.3,76.4,117.8,74,119.1z"/>
	<path class="st1" d="M45.5,118.9c3.4-1.5,6.5-4,10.4-4c-0.5,3.6-1,7.2-0.9,10.8c-0.1,3.5-0.1,6.9,0.1,10.4
		c-2.1-5.2-1.7-13.8-0.4-20.4C51.8,117.3,49,119.3,45.5,118.9z"/>
	<path class="st1" d="M136,115c2.4,0.9,0.5,5.9,0.8,8.3C135.9,120.6,136,117.8,136,115z"/>
	<path class="st1" d="M196.1,122.8c0-1.7,0.7-3.3,1.6-4.7C198.8,119.6,198.3,123.1,196.1,122.8z"/>
	<path class="st1" d="M60.6,122.7c1.1,7.8,8-4.4,12.8-3.3c-2.4,1.9-4.9,3.8-7.4,5.5c-0.5,0.3-1.4,0.9-1.9,1.2
		c-1.4,0.4-2.7,1.2-3.1,2.7c-0.3-0.2-0.9-0.7-1.1-0.9C60,126.2,60.2,124.4,60.6,122.7z"/>
	<path class="st1" d="M242.2,119l0.8-0.1c0,4.3-0.1,8.7-0.1,13l-1,0.2C242.1,127.8,242.1,123.4,242.2,119z"/>
	<path class="st1" d="M85.2,134.3c2.8-4.2-0.7-11.7,1.7-14.2c0.2,2.3,0.5,4.6,0.7,6.9C88.4,129.8,87.1,132.3,85.2,134.3z"/>
	<path class="st1" d="M88.9,120c2,2.2,4.7,15.8,8.5,9.9l0.6,0.1c0.9,8.7-6.9,0.7-8-3.3C89.3,124.5,89,122.2,88.9,120z"/>
	<path class="st1" d="M180.3,137.2c1-4.4,1.3-11.3,4.9-14.1c-0.1,0.5-0.2,1.4-0.2,1.9C183.9,129.2,182.1,133.3,180.3,137.2z"/>
	<path class="st1" d="M96.7,127.9c-3.5-1.7,2.4-6.8,2.1-1.1C97.8,126.1,96.9,126.8,96.7,127.9z"/>
	<path class="st1" d="M136.9,124.2c4.7,3.5-1.5,10-6.4,10.4c1.8-1.7,3.7-3.2,5.6-4.8C136.4,128.4,136.7,125.6,136.9,124.2z"/>
	<path class="st1" d="M139.9,132.5c0.1-2.9,2.8-9.7,4.6-7c-0.9,1.1-1.7,2.3-2.3,3.6C141.6,130.3,140.7,131.4,139.9,132.5z"/>
	<path class="st1" d="M70,133c0.3-4,5.4-6.7,9-7.1c0.9,4-2.8,6.5-5.3,9c0.6-1.8,1.3-3.6,2.1-5.3c3.8,0.1,1.6-4.6-0.2-0.8
		C73.6,130.1,71.8,131.5,70,133z"/>
	<path class="st1" d="M106,131c-1.8-3.8,7-3.1,5.7-0.9c-7.2-2-3.8,4.4,0.7,5.4c6.2,1.3,9.9,12.6,1.9,13.8c-1.6-3.5,6-1.9,3.4-6
		C117,136.1,107,137.5,106,131z"/>
	<path class="st1" d="M113.1,130.9c1.3-0.3,10.4,0.2,11.8,1.1C121.3,134.2,116.6,132.8,113.1,130.9z"/>
	<path class="st1" d="M101.2,131.5c1.9,0.1-2,7-3.4,8.4c0-0.5-0.1-1.6-0.2-2.1C98.5,135.5,99.9,133.5,101.2,131.5z"/>
	<path class="st1" d="M143.2,131l0.8-0.2c1.5,5.9-7.2,3.6-4.1,1.6C141.4,134.6,142.6,132.6,143.2,131z"/>
	<path class="st1" d="M144.9,133.1c0.5-5.1,4.8-0.1,3.9,3.1c-0.4-0.3-1.2-1.1-1.6-1.4C147.7,133.1,146.3,131.1,144.9,133.1z"/>
	<path class="st1" d="M191.9,134.8c-0.1-1.5,0.5-2.9,1.8-3.9C194.6,132.2,193.5,135.1,191.9,134.8z"/>
	<path class="st1" d="M65.3,142.3c0-3.1,1-9.1,4.7-9.3C68.4,136.1,66.8,139.2,65.3,142.3z"/>
	<path class="st1" d="M81,142c0.6-2.6,0.7-8.4,4.2-7.7c-1.8,3.7-3.1,7.7-3.3,11.8c1-1.1,2-2.2,3-3.4C86.2,147.5,77.4,150,81,142z"/>
	<path class="st1" d="M241.3,141.1c-1.3-2.2-1.1-4.6,0.4-7.1C243,136.3,242.9,138.6,241.3,141.1z"/>
	<path class="st1" d="M87.1,138c0.6-1.1,1.2-3,2.8-2.7C90.8,136.8,88.6,138.7,87.1,138z"/>
	<path class="st1" d="M123.8,140.9c1.3-2.6,3.4-4.8,6.2-6C128.9,137.4,126.4,140.2,123.8,140.9z"/>
	<path class="st1" d="M72.6,156.2c-2.2-6.7-1.4-14,0.9-20.6c-0.7,6.6-1.3,13.1-0.7,19.8L72.6,156.2z"/>
	<path class="st1" d="M148.8,136.2c4,0.5,5.9,4.3,6.1,8C152.5,141.8,150.6,139,148.8,136.2z"/>
	<path class="st1" d="M189.9,139.7c-0.1-1.5,0.6-2.9,1.7-3.9C192.6,137.1,191.6,140,189.9,139.7z"/>
	<path class="st1" d="M55.4,137.1c0.7,1.5,0.8,3.2,0.6,4.9C54.1,141.6,54.5,138.3,55.4,137.1z"/>
	<path class="st1" d="M92.3,136.7c3.9,4.6,1.2,11.7,2.8,17.4C90.8,149.8,94.1,142.3,92.3,136.7z"/>
	<path class="st1" d="M176.3,146.3c-0.5-3.2,1.1-7.7,4-9.1C179.1,140.3,177.8,143.4,176.3,146.3z"/>
	<path class="st1" d="M146,140.9c-1.5,0.6-4.1-2.6-1.9-3.2C145.1,138.5,145.9,139.6,146,140.9z"/>
	<path class="st1" d="M85,141.8c-0.1-1.3,0.7-2.3,1.7-3C87.8,139.9,86.6,142.5,85,141.8z"/>
	<path class="st1" d="M141.1,142.7c-2.5,0.3-0.5-4.5,0.8-2.1c-0.1,0.4-0.3,1.1-0.4,1.4L141.1,142.7z"/>
	<path class="st1" d="M9.2,140.9c1.4,1.4,1.2,3.5,0.6,5.2C8.5,144.7,8.6,142.6,9.2,140.9z"/>
	<path class="st1" d="M186,149.1c0.5-3.1,2.1-5.9,3.8-8.5C189,143.4,188.5,147.3,186,149.1z"/>
	<path class="st1" d="M129.9,150.3c-4.3-1-11.4-3.3-6.5-8.7C120.9,147,127.8,147,129.9,150.3z"/>
	<path class="st1" d="M146.3,141.9c1.4,0.9,2.6,2.5,2.5,4.3c-1.2-0.4-2.5-1.1-3-2.3C145.8,143.4,146.1,142.4,146.3,141.9z"/>
	<path class="st1" d="M240.3,147.1c-0.7-1.7-0.9-3.8,0.5-5.3C241.4,143.6,241.4,145.6,240.3,147.1z"/>
	<path class="st1" d="M56.2,143.1c0.2,0.2,0.7,0.6,0.9,0.8c0.3,0.9,0.8,1.6,1.7,2.1C57.8,148.8,54.4,144.8,56.2,143.1z"/>
	<path class="st1" d="M98.1,142.9c1.9,2.8,4.7,4.6,8.2,4.5l-0.7,0.8c-2.2-0.2-4.5-0.4-6.7-1.2C98.7,145.6,98.4,144.3,98.1,142.9z"/>
	<path class="st1" d="M154.9,144.1c5.6,5.1,7.1,21.4,0.1,25.9C160.1,162.2,157.3,152.4,154.9,144.1z"/>
	<path class="st1" d="M62.1,172.2c0.6-8.5-2.1-20.6,2.2-26.9c-1.6,8.2-1.4,16.6-1.2,24.9c3-0.4,5.1-9,7-4.7
		C67.1,167.5,65.9,171.6,62.1,172.2z"/>
	<path class="st1" d="M141.2,144.8c0.3,0.3,0.9,1,1.2,1.3c-1.9,3.2-7.1,0.4-8.6,3.9c-2-0.2-3.4-2.2-4-3.9
		C133.2,144.9,139.2,149.4,141.2,144.8z"/>
	<path class="st1" d="M107.2,146.6c1.9-2.6,3.6,1.1,1.9,3.6C106.9,150.3,107.5,148,107.2,146.6z"/>
	<path class="st1" d="M10.1,146.8c1.3,1,1.2,2.8,0.7,4.2C9.6,150,9.6,148.2,10.1,146.8z"/>
	<path class="st1" d="M86.1,153.3c-0.3-2.6-0.5-5.4,2.9-4.2c0.1,4.1,0.1,8.2-0.3,12.4C87.8,158.1,88.9,144.9,86.1,153.3z"/>
	<path class="st1" d="M171.1,153.1c0.6-1.6,0.9-3.9,3.2-2.9c-2.4,4.8-5.1,9.5-8.1,14C165.8,159.7,170.2,157.2,171.1,153.1z"/>
	<path class="st1" d="M122.8,151.2c5.7,2.9,15.6-1.9,19.2,2.9c3,9.4-2.3,3.3-4.7,1.8c-0.4,3.1-0.6,6.2-1,9.4c0-4.9-2.1-12.7,5.1-9.7
		C137.5,150.3,128.1,156.1,122.8,151.2z"/>
	<path class="st1" d="M11.1,151.8c2.1,3.9,2.8,8.3,3.6,12.6C11.9,160.8,11.6,156.1,11.1,151.8z"/>
	<path class="st1" d="M100,158.8c-3.3-10.1,8.4-4.8,14.2-6.6c-4.2,3.6-14.2-2.7-13.3,4.4c5.8-2.6,4,4.9,5,8.4
		C101.4,168.2,107,154.8,100,158.8z"/>
	<path class="st1" d="M170,176c5.1-8,9.8-16.2,14.8-24.3c-1.3,7.6-6.8,13.8-10.8,20.3C172.8,173.5,172.5,176.5,170,176z"/>
	<path class="st1" d="M85.2,176.3c1.5-7.4-2.4-18,0.8-23.1c-0.4,8.7,0,17.4,1.9,25.9C87,178.3,86.1,177.4,85.2,176.3z"/>
	<path class="st1" d="M72.8,155.4c1.9,0.2,2.6,3.9,1.8,5.6c-0.9-1.5-1.8-3-2-4.8L72.8,155.4z"/>
	<path class="st1" d="M90.9,159.8c-1.8-8.5,5.2,3.4,4.5-4.1c1.7,3.6-0.3,4.7-3.7,4.1L90.9,159.8z"/>
	<path class="st1" d="M236.2,162.2c-0.3-1.9,0.4-3.8,1.7-5.1C238.5,159,238.2,161.2,236.2,162.2z"/>
	<path class="st1" d="M77,162.1c-1.8-6.4,6.8-5.2,2.7,2.1C79.2,161.7,79,158.5,77,162.1z"/>
	<path class="st1" d="M127.1,158.1c2.2-1,1.8,1.1,1.8,2.5c-1.7,0.7-2.3,14-4.8,7.3C127.9,167.2,125.4,161.2,127.1,158.1z"/>
	<path class="st1" d="M90.9,159.8l0.8,0c1.5,4,4.4,7.1,7.4,9.9C94.4,169,91.5,164.3,90.9,159.8z"/>
	<path class="st1" d="M146,162.9c-0.1-1.8,1.2-3.2,3-3c0.4,5.3-0.7,10.6-2.8,15.4C144.8,171.9,151.3,161.1,146,162.9z"/>
	<path class="st1" d="M88.7,161.4c2.2-0.2,1.9,3.5,0.8,4.6C88.9,164.5,88.8,162.9,88.7,161.4z"/>
	<path class="st1" d="M75,162c0.5,0,1.4,0.1,1.9,0.2C77.8,164.8,74,164.4,75,162z"/>
	<path class="st1" d="M105.9,165c-1-1.9,1.8-4.7,2.8-2.1l-0.5,0.3C107.5,163.8,106.7,164.4,105.9,165z"/>
	<path class="st1" d="M130.2,166.2c0.5-2.7,3.1-6.2,3.6-1.6c-3.1,2.5-2.1,7.6-3.9,10.8c-0.3-0.7-0.8-2-1.1-2.7
		C129.3,170.6,129.8,168.4,130.2,166.2z"/>
	<path class="st1" d="M79.8,165.1c2.6,2.6,3.9,7,4.9,10.6C82,172.7,80.3,168.9,79.8,165.1z"/>
	<path class="st1" d="M121.1,168.8c-1.8-2.8,2.6-6.3,2.9-2.1C122.4,166.4,121.8,167.8,121.1,168.8z"/>
	<path class="st1" d="M138.7,167c3.2-6.6,2.5,5.6,6-0.3c-0.3,2.2-1.1,4-3.6,3.3C141,167.9,141.5,164.9,138.7,167z"/>
	<path class="st1" d="M70.3,166.5c2.3,3.2,3.6,6.9,4.6,10.6C71.9,174.6,70.8,170.2,70.3,166.5z"/>
	<path class="st1" d="M161.4,171c-1.2-1.5,0.5-4.9,2.5-3.8C163.3,168.6,162.6,170,161.4,171z"/>
	<path class="st1" d="M16,167.8c2.1,1.5,2.4,4.1,2.8,6.5C17.3,172.4,16.6,170.1,16,167.8z"/>
	<path class="st1" d="M136.1,172.8c0.1-1.9,1.1-3.5,2.3-4.8C139.6,169.5,138.1,172.9,136.1,172.8z"/>
	<path class="st1" d="M109.1,168.8c1.3,1.1,1.3,2.9,0.7,4.3C108.6,172,108.6,170.3,109.1,168.8z"/>
	<path class="st1" d="M226.3,184.3c1.7-5.5,4.3-10.8,7.7-15.4C232.4,174.3,230,179.9,226.3,184.3z"/>
	<path class="st1" d="M90.7,170.2c2.8,1.5,4.6,6.5,5.2,9.9C93.5,177.2,91.8,173.8,90.7,170.2z"/>
	<path class="st1" d="M99.9,170c3,0.5,4.8,3.4,6.1,5.9C103.7,174.3,101.5,172.5,99.9,170z"/>
	<path class="st1" d="M146.6,179.9c2.8-2.9,5.7-5.8,8-9.2C154.5,175,150.7,178.9,146.6,179.9z"/>
	<path class="st1" d="M148.4,184.4c4.8-4.1,7.3-10.9,13.1-13.3c-9.6,12.7-21.1,24.6-34.4,33.2C133.2,196.6,142.2,192.1,148.4,184.4z
		"/>
	<path class="st1" d="M109.9,174c1.1-1.8,3.2-2.9,3.8-0.1c-3.9,1.9,0.6,7.8,1.3,11.1c-2.9,1.2-0.9-3.7-3.3-2.4
		c-3.6,1.7-4.6-3.5-5.2-6c1.5,1.9,2.9,3.9,4.5,5.6C110.8,179.4,110.2,176.8,109.9,174z"/>
	<path class="st1" d="M121.8,192.1c-0.4-7.2,3.5-13.4,7-19.3c0.3,0.7,0.8,2,1.1,2.7c-0.4,5,4-1,6.1-1.8c0.2,4.5-10.8,9.9-7,2.1
		c-3.7,4.9-6.4,10.9-6,17.2c-4.4,1.1-7.4-3.5-7.5-7.4C117.3,187.8,118.5,191.5,121.8,192.1z"/>
	<path class="st1" d="M136.4,209.6c12.4-9.7,22.9-21.3,33.2-33.1c-4.8,11-15.7,17.5-22.9,27C142.8,204.9,141,209.3,136.4,209.6z"/>
	<path class="st1" d="M115.9,178.1c1.1-0.1,2.2,0.2,3.1,0.9C118.7,181.3,116.1,179.6,115.9,178.1z"/>
	<path class="st1" d="M145.9,180.4c-1.1,2.5-3.6-2.2-1-2.1C145.1,178.8,145.6,179.8,145.9,180.4z"/>
	<path class="st1" d="M76.2,179.7c3.4,4.3,4.1,10,3.9,15.3C79.4,190.9,77.2,184.9,76.2,179.7z"/>
	<path class="st1" d="M95.9,180.1c3.2,0,9.2,10.1,6.5,9.7C100.6,186.3,98,183.4,95.9,180.1z"/>
	<path class="st1" d="M22,180.8c1.9,1.7,2.9,4,3.8,6.4C23.4,185.9,22.6,183.3,22,180.8z"/>
	<path class="st1" d="M212.1,202.1c5.7-4.9,8.4-12.2,13.7-17.3c-8.8,17.6-23.6,32.1-41,41C193.8,217.9,205.2,212.2,212.1,202.1z"/>
	<path class="st1" d="M26.3,187.7c1.6,1.5,2.5,3.6,3.5,5.5C27.3,192.4,26.7,190,26.3,187.7z"/>
	<path class="st1" d="M80.5,197.5c2.9-2.1,3.7-5.8,5.4-8.7C86.9,192.3,82.3,200.1,80.5,197.5z"/>
	<path class="st1" d="M94.2,189c1.6-0.2,3.2-0.1,4.8,0.5C97.8,190.6,94.3,191,94.2,189z"/>
	<path class="st1" d="M90,191c6.7,2.3,18-2.8,21.1,5.1c-5.6-4.9-13.6-2.7-20.4-3.8c2.6,2.4,5.4,4.6,7.6,7.4
		C94.9,198.4,89.4,195.3,90,191z"/>
	<path class="st1" d="M30.2,193.8c8.2,9,17.4,17.5,26,26c-4.5-2.2-8.4-5.5-11.7-9.2C39.6,205.1,33,200.9,30.2,193.8z"/>
	<path class="st1" d="M111.7,196.6c1.3-1.1,4.2,0.5,3.2,2.2C113.6,198.5,112.3,197.9,111.7,196.6z"/>
	<path class="st1" d="M115.6,199.1c2.3,0.9,5.8,2.6,6.4,5C119.2,203.4,117.1,201.6,115.6,199.1z"/>
	<path class="st1" d="M98.9,200.1c2.7,1.7,5.5,3.2,7.5,5.7C103.5,205.1,99.5,203.4,98.9,200.1z"/>
	<path class="st1" d="M107.1,206.1c1.3,0.4,2.7,0.9,3.1,2.4C108.9,209.4,106.1,207.8,107.1,206.1z"/>
	<path class="st1" d="M132.9,212.7c0.8-1.1,1.7-1.9,2.9-2.6C137.1,211.7,134.4,214.1,132.9,212.7z"/>
	<path class="st1" d="M113.8,211.3c2.1,0.7,4,1.9,5.7,3.3C117.2,214.2,114,214.2,113.8,211.3z"/>
	<path class="st1" d="M120,215c2.8,2.3,6.2,1.9,9.2,0.2C128.5,219.2,120,219.2,120,215z"/>
	<path class="st1" d="M56.8,220.1c1.9,1.1,3.7,2.3,5.4,3.7C59.8,223.5,57.5,222.7,56.8,220.1z"/>
	<path class="st1" d="M62.9,224.1c7,3.8,14.7,6.3,21.2,11C76.6,232.5,68.4,229.9,62.9,224.1z"/>
	<path class="st1" d="M168.9,234.1c4.7-3.3,9.8-6.1,15.3-7.8C180.1,230.3,174.3,232.2,168.9,234.1z"/>
	<path class="st1" d="M87.9,236.3c2-0.8,4,0,5.1,1.8C91,238.4,89.2,237.6,87.9,236.3z"/>
	<path class="st1" d="M157,238c1.1-1.8,3.1-2.6,5.1-1.8C160.7,237.6,159,238.4,157,238z"/>
	<path class="st1" d="M102.9,240.3c1.7-0.7,3.8-1,5.2,0.6C106.3,241.4,104.4,241.5,102.9,240.3z"/>
	<path class="st1" d="M142,241c1.3-1.6,3.4-1.4,5.1-0.6C145.6,241.4,143.7,241.4,142,241z"/>
	<path class="st1" d="M108.8,241c10.8,1.4,21.6,0.4,32.4,0.1C130.7,244.3,119.4,243.4,108.8,241z"/>
</g>
<g id="_x23_0a0909ff">
	<path class="st2" d="M109.2,9.1c0.6-0.1,1.9-0.3,2.5-0.4c8.8,0.6,17.7,0.2,26.5,0.1c0.7,0.1,2,0.2,2.6,0.3c1,1.4,2.8,1.3,4.2,0.7
		c0.4,0.1,1.2,0.3,1.7,0.4c3.7,1.3,7.5,2.1,11.4,2.8c3.1,1.3,6.3,2.4,9.6,3.3c1.9,1.5,4.2,2.2,6.5,2.7c1.4,0.8,2.9,1.6,4.4,2.4
		c6.8,3.8,12.7,9.1,19.8,12.3L199,34c4.7,6.6,10.2,12.7,17,17.2l0.2,0.8c-0.5,2.3,1.3,4,3.5,4.3c1.3,2.4,2.8,4.6,4.5,6.6
		c0.2,1.7,0.5,3.9,2.6,4.3l0.3,0.6c2.4,5.6,4.4,11.4,7.8,16.5c0.4,1.2,0.8,2.4,1.2,3.6c0.9,3.1,1.8,6.2,2.9,9.3l0.2,0.7
		c-0.5,1.4-0.5,3.2,0.7,4.2l0.4,0.7c-0.6,1.7-0.8,3.8,0.7,5.1l0.2,0.7c0.1,2.8-0.3,5.8,0.4,8.6c0.2,0.4,0.5,1.3,0.7,1.7
		c-0.1,4.4-0.2,8.8-0.3,13.1c-0.1,0.4-0.2,1.4-0.3,1.8c-1.5,2.5-1.6,4.9-0.4,7.1l-0.4,0.7c-1.4,1.4-1.2,3.5-0.5,5.3
		c-0.4,3.4-1.1,6.8-2.4,9.9c-1.4,1.3-2,3.2-1.7,5.1c-0.6,2.3-1.3,4.5-2.2,6.7c-3.4,4.6-6,9.9-7.7,15.4l-0.5,0.5
		c-5.2,5.2-8,12.5-13.7,17.3c-6.9,10.1-18.3,15.8-27.3,23.7l-0.5,0.5c-5.5,1.7-10.7,4.4-15.3,7.8c-2.2,0.9-4.5,1.6-6.8,2.2
		c-2-0.8-4-0.1-5.1,1.8c-3.3,0.9-6.6,1.7-9.9,2.3c-1.7-0.7-3.9-1-5.1,0.6l-0.7,0.2c-10.8,0.2-21.6,1.3-32.4-0.1l-0.8-0.1
		c-1.3-1.5-3.5-1.3-5.2-0.6c-3.3-0.6-6.6-1.4-9.9-2.3c-1.1-1.8-3.1-2.6-5.1-1.8c-1.3-0.4-2.6-0.8-3.8-1.2c-6.5-4.7-14.2-7.1-21.2-11
		l-0.7-0.3c-1.7-1.3-3.5-2.5-5.4-3.7l-0.5-0.4c-8.6-8.5-17.8-17-26-26l-0.4-0.5c-1-1.9-1.8-4-3.5-5.5l-0.5-0.5
		c-0.9-2.3-2-4.6-3.8-6.4c-1.1-2.1-2.2-4.3-3.2-6.5c-0.4-2.4-0.7-4.9-2.8-6.5c-0.4-1.2-0.9-2.3-1.2-3.5c-0.8-4.3-1.5-8.7-3.6-12.6
		l-0.3-0.7c0.6-1.4,0.7-3.2-0.7-4.2l-0.4-0.7c0.6-1.7,0.8-3.8-0.6-5.2c-0.1-0.5-0.1-1.5-0.2-2c0.1-9,0-18-0.2-27
		c0.1-0.8,0.5-2.2,0.6-3c1-1.4,0.9-3.2,0.5-4.8c0.5-1.6,0.9-3.2,1.3-4.8c0.9-2.4,1.6-4.9,1.7-7.4c0.9-2.1,1.6-4.3,2.3-6.6
		c2.3-3.4,3.8-7.4,4.6-11.4l0.4-0.6c2.4-2.3,3.3-5.6,4.4-8.6l0.5-0.5c2-1.2,2.8-3.4,3.7-5.5c1.1-1,1.9-2.2,2.5-3.5
		c1.6-0.9,3.5-2.2,3.4-4.3l0.2-0.8c5.8-4.4,10.8-9.4,15.2-15.2l0.8-0.2c2.1,0.1,3.5-1.8,4.3-3.5c1.2-0.8,2.3-1.6,3.5-2.4
		c2.1-0.8,4.2-1.9,5.7-3.6c0.8-0.5,1.5-1,2.2-1.5c6.4-2.3,12.6-5.3,18.6-8.5c2.3-0.7,4.6-1.4,6.8-2.4c2.2,0.7,4.5,0.1,5.9-1.8
		c0.4-0.1,1.3-0.2,1.7-0.3C102.9,10.9,106.1,10.1,109.2,9.1 M111.8,49.2l-0.9,0.2c-0.8-1.2-4-1.3-3.8,0.6l-0.9,0.1
		c-10.5,1.5-23.7,0.9-31.2,9.9c-5.5,4.1-4.9,12.9-0.9,17.8c7.1,2,0.1-8.6,6.7-10.9c0.2,5,0.2,12.5,6.4,13.8L88,81
		c1.5,3.4,6.4,2.2,9.1,3c0.3-4.7-4.9-6.7-7.4-9.9l-0.2-0.8c-0.5-6.4,4-10.2,8.5-13.4l0.7-0.3c4.1-0.3,9.3-1,12.4-3.6
		c2.3-0.2,4.7-0.9,6.7-2.1c5-0.2,11.7-4.6,11.2-10C123.6,45.9,116.1,46.2,111.8,49.2 M164.9,45.8c-11.1,15.9-34,7.2-49.8,12.2
		c-4.9,2.1-13.7,2.6-14.8,9.3l-0.4,0.6c-5.3,0.3-1.7,14.4-0.4,8.6l0.3-1.2c1.7-1.9,2.9-4.1,5-5.7c0.1,0.9,0.2,2.7,0.2,3.6
		c-1.8-0.3-1.8,3.8,0,3.6c0.1,0.5,0.2,1.4,0.2,1.9c0.3,3.7,2.8,8,6.9,8.4c0.2-2.2-0.1-5.1-2.2-6.3l-0.4-0.8c1.6-1,1.5-3.9-0.1-4.9
		l0.3-0.9c5.9-10.2,19.3-7.9,27.4-9.2c2.6,0,5.1-0.1,7.7-0.4c9,1.9,20.6-2.4,21.1-12.9l0.4-0.9C169.6,52.8,167.2,43.3,164.9,45.8
		 M168.3,63.7l0.8,0.2c3.6,2.4,9.4,4.3,14.1,5c1.1,0.8,2.4,1,3.7,1.3c4,3.6,10.9,3.8,7.5,12.1l-0.1,0.8c-2.3,5.2-3.8,15.2-3.8,22.2
		c-0.4,1.6-0.8,3.2-1.1,4.8c-2.3,1.6-3.1,6.2-2.9,9.3c-0.5,1.2-0.9,2.5-1.1,3.8c-3.6,2.8-3.9,9.8-4.9,14.1c-3,1.4-4.5,5.8-4,9.1
		c-0.7,1.3-1.3,2.6-2,3.9c-2.3-1.1-2.6,1.2-3.2,2.9c-1,4.1-5.4,6.6-4.9,11.2c-0.7,1-1.6,1.9-2.3,2.9c-2-1.1-3.7,2.3-2.5,3.8
		c-5.7,2.4-8.2,9.2-13.1,13.3c-6.2,7.7-15.2,12.2-21.3,19.9c-1.6,0.8-3.4,0.8-5-0.1c-0.6-2.4-4.1-4-6.4-5l-0.7-0.3
		c1-1.7-1.9-3.3-3.2-2.2l-0.7-0.5c-3-8-14.4-2.8-21.1-5.1c-0.6,4.2,4.9,7.3,8.3,8.7l0.6,0.4c0.6,3.3,4.6,4.9,7.5,5.7l0.7,0.3
		c-1,1.6,1.8,3.3,3.1,2.4c0.5,1.8,1.8,2.5,3.6,2.8c0.3,2.9,3.5,3,5.7,3.3l0.6,0.4c0,4.1,8.5,4.1,9.2,0.2c1.5-0.4,2.7-1.5,3.7-2.6
		c1.5,1.4,4.2-1,2.9-2.6l0.6-0.4c4.6-0.3,6.4-4.7,10.3-6.1c7.2-9.5,18.2-15.9,22.9-27l0.4-0.5c2.5,0.5,2.7-2.5,4-4
		c4-6.5,9.4-12.6,10.8-20.3c0.6-0.8,1-1.7,1.2-2.7c2.6-1.8,3-5.6,3.8-8.5l0.1-0.9c1.7,0.3,2.7-2.7,1.7-3.9l0.2-1
		c1.7,0.2,2.8-2.7,1.8-3.9l0.5-0.7c1.6-2.1,1.8-4.9,2-7.4c2.2,0.3,2.7-3.3,1.6-4.7c2.2-4.3,2.8-9.3,3.3-14
		c3.3-4.4,2.1-11.2,2.7-16.5l0.1-0.9c2.4-0.6,1.7-4.9,0.7-6.6c0.1-0.8,0.4-2.3,0.5-3.1c2.8-0.6,1-9.7-0.1-10.9
		c-6-2.3-11.7-6.5-18.3-6.7l-0.7-0.2c-1.1-2.4-4.9-2.7-7.4-2.9l-0.8-0.2c-0.6-1.8-4-2.5-5.7-1.7l-1-0.6
		C168.1,50.4,159.4,67.4,168.3,63.7 M123.2,70l-1,0c-4.4-0.8-6.8,4.4-6.2,8.1c4.5-0.8,8.5-5.1,13.2-3.5l-0.7,0.5
		c-3.1,0.2-7,1.5-7.3,5.1c-0.5,0.9-0.9,1.9-1.2,2.8c-0.2,1.5-0.7,4.6-0.9,6.1c3-3.5,6-6.8,10-9.2c0.9-0.3,1.8-0.8,2.7-1.2
		c4.8,0.3,9.6,0.1,14.5-0.1c0.7,0.1,2,0.2,2.7,0.2c2.1,2.6,13.9,1.2,15.9,0l0.8-0.1c4.8,0.8,10.7-3.2,11.3-7.9
		c-10.1,2.5-20.1,0.8-30.4,0.3l-0.9-0.2c0.2-1.9-3-1.8-3.9-0.7l-1-0.2c-0.4-2.3-4.4-2-5.8-0.7c-2.7-0.7-5.4-0.7-8.1,0
		C126.1,68.3,123,68.2,123.2,70 M50.1,83.2l-0.3,0.7c-4.1-0.2-2.4,6.8-3.8,9.1c-5.5,2.6,4.9,9,2.6,4.5l0.2-1.2
		c2.6-4.1,7.7-7,9.2-11.3l0.5-0.4c2.8-0.4,6.1-0.8,7.5-3.5l0.7-0.2c2,0.6,8-0.2,5.5-3.1C65.5,75,53.1,75.4,50.1,83.2 M133.9,81.9h-1
		c-2.5-0.9-4.3,1.6-1.5,2.7c5.5,1.6,10.6,4.4,16.1,6L148,91c-0.3,3.2,4.2,2.8,6.4,3.7c0.6,0.8,1.5,1.3,2.5,1.4
		c7.3,5.2,18.8,3.1,26.9-0.3c0.5-4.8-10-0.1-13-1.4l-0.8-0.1C158.7,91.4,146.2,77.4,133.9,81.9 M73.1,83.9l-0.8,0.3
		c-8,0.2-16.2,6.9-16.9,15.3c-0.5,0.8-1,1.6-1.3,2.5c-5.2,5.1-7.2,13.2-13.2,18c1-0.3,3.8,1,3.7-0.6l0.9-0.4
		c3.4,0.4,6.3-1.6,9.2-3.1c-1.3,6.6-1.7,15.1,0.4,20.4l0.3,0.9c-1,1.2-1.3,4.6,0.6,4.9l0.1,1.1c-1.8,1.7,1.7,5.7,2.6,2.8
		c0.1-0.8,0.3-2.4,0.4-3.2c1.5-0.4,1.1-3.3,1.9-4.6c5.8-8.1,20.2-13.5,20.9-25.2c-3,1-7,3.1-8,6.1l-0.6,0.4
		c-4.8-1.1-11.7,11.1-12.8,3.3c0.1-0.4,0.3-1.2,0.4-1.6c2.9-1.7,2.5-5.7,3.5-8.6l0.4-0.5c3.8-0.3,5.4-4.7,8-7
		c7.3-5.9,17.9-8.5,24.2-14.9l0.7-0.3c3.5,0.8,6.6-8.9,1.4-6.5c-6,6.3-16.3,6.2-22.4,11.7l-0.7,0.3c-3.7,0.5-8,1.6-10.4,4.6
		c-1.6,0.4-2.3-0.4-2-2.1c1.5,0.4,2.4-2.1,1.5-3.1l0.4-0.7c3.6-2.5,7.1-5.2,10.3-8.1c1.1-0.3,2.2-0.7,3.2-1.2
		C87.3,83.5,72.5,80.9,73.1,83.9 M95.1,99c0.5,3.5-5,0.5-4.3,4c0,1.3,0.6,2,1.9,2.2c0.3,2.6,7.2,4.8,6.8,2.9l0.2-1.2
		c3.2-2.2,3.3,5,8.1,1.2c0,2.7,0.1,8.1,0.2,10.8c4.1,1.4,2.8-2.9,2.7-5.4l0.2-0.9c2.2,0.2,2.9-3.2,2.4-4.9c1.4-1,2.9-2.2,2.9-4.1
		c1.9,0.1,2.5-4.3,0-2.3c-4.8,4-8.7-2.9-13.6-2.3l-0.8-0.2C102.2,97.3,94.8,96.5,95.1,99 M140,100.1l-0.7,0.2
		c-3.8-0.2-7,4.4-10.6,1.1c-4-2.1-2.7,2.5-0.1,3.4l0.7,0.7c2.9,7,4.2,14.7,3.7,22.3c-1.7,1.9-6.7,0.7-6.7,3.6
		c-0.3,0.2-1,0.5-1.4,0.6c-1.4-1-10.5-1.4-11.8-1.1c-0.4-0.2-1.1-0.6-1.4-0.8c1.3-2.2-7.5-2.9-5.7,0.9c1,6.5,11,5.1,11.7,12.3
		c2.6,4.1-5,2.5-3.4,6c-1.3,0.6-2.7,0.9-4.1,1.2l-1.1-0.3c1.8-2.5,0-6.2-1.9-3.6l-0.8,0.7c-3.5,0.1-6.3-1.7-8.2-4.5
		c-0.1-0.7-0.2-2.2-0.3-2.9c1.4-1.4,5.3-8.4,3.4-8.4c-2.2-0.2-2.2-2.2-2.4-3.9l0-0.8c0.3-5.7-5.6-0.6-2.1,1.1
		c0.2,0.5,0.5,1.4,0.7,1.9c-3.8,5.9-6.5-7.7-8.5-9.9c-0.8-1.5-1.4-1.5-1.9,0.1c-2.4,2.5,1.1,10-1.7,14.2c-3.6-0.7-3.6,5.1-4.2,7.7
		c-3.6,8,5.2,5.5,3.9,0.7l0.1-0.9c1.6,0.7,2.8-2,1.7-3l0.4-0.8c1.4,0.7,3.6-1.2,2.8-2.7c0.9,0.2,1.7,0.6,2.3,1.5
		c1.8,5.6-1.5,13.1,2.8,17.4c0.1,0.4,0.3,1.2,0.3,1.6c0.7,7.5-6.3-4.4-4.5,4.1c0.6,4.5,3.5,9.1,8.2,9.9l0.8,0.2
		c1.6,2.4,3.8,4.3,6.1,5.9l0.4,0.6c0.6,2.6,1.6,7.7,5.2,6c2.4-1.2,0.4,3.6,3.3,2.4l0.4,0.6c0.1,3.9,3.1,8.5,7.5,7.4
		c-0.3-6.3,2.4-12.3,6-17.2c-3.8,7.7,7.2,2.4,7-2.1l0.2-0.9c2,0.2,3.5-3.2,2.3-4.8l0.3-0.9c2.8-2.1,2.3,0.9,2.4,3
		c2.5,0.8,3.3-1.1,3.6-3.3c1.4-0.8,1-2.5,1.2-3.8c5.3-1.8-1.2,9,0.2,12.4c-0.5,1-0.9,2-1.4,3c-2.5-0.1,0,4.6,1,2.1l0.7-0.5
		c4.1-0.9,7.9-4.9,8-9.2l0.4-0.6c7-4.5,5.4-20.8-0.1-25.9c-0.1-3.7-2.1-7.4-6.1-8c0.9-3.2-3.4-8.2-3.9-3.1l0.1,0.8
		c-0.4,1.3-0.8,2.5-0.9,3.8c-2.1,0.6,0.4,3.7,1.9,3.2l0.2,1c-0.1,0.5-0.4,1.5-0.6,2c-1-1.4-1.8-3.2-3.8-3.3
		c-1.2-2.4-3.3,2.4-0.8,2.1c0,0.5,0.1,1.6,0.1,2.1c-2,4.5-8,0.1-11.4,1.3c0.6,1.7,2,3.7,4,3.9c-0.7,1.7-2.6,0.4-3.9,0.2
		c-2.2-3.2-9-3.2-6.5-8.7l0.4-0.6c2.6-0.7,5.1-3.5,6.2-6l0.6-0.3c4.8-0.4,11.1-6.9,6.4-10.4l-0.2-0.8c-0.3-2.5,1.6-7.4-0.8-8.3
		c0-2.1,0-4.2,0-6.2c3,0.4,5.6-0.8,7.9-2.7c0,6.6,10.1-0.3,9.2-4.9c-7.2,5-3.2-3.4-6.2-3.2C145.3,98.2,140.8,97.6,140,100.1
		 M139.9,132.5c-3.2,2,5.5,4.3,4.1-1.6c1.7-1.3,0.9-3.6,0.6-5.3C142.7,122.8,140,129.6,139.9,132.5 M70,133
		c-3.7,0.2-4.7,6.1-4.7,9.3c-0.4,1-0.7,2-1,3c-4.3,6.2-1.5,18.4-2.2,26.9c3.9-0.6,5-4.7,7.9-6.6l0.3,1c0.5,3.7,1.6,8.1,4.6,10.6
		c0.2,1,0.6,1.8,1.3,2.6c1,5.1,3.2,11.2,3.9,15.3c0.1,0.6,0.2,1.8,0.3,2.4c1.9,2.5,6.5-5.2,5.4-8.7c2-2.1,5.6,0.9,8.3,0.2
		c0.2,2,3.7,1.6,4.8,0.5c0.8,0.1,2.6,0.2,3.4,0.3c2.7,0.4-3.3-9.7-6.5-9.7c-0.5-3.4-2.3-8.4-5.2-9.9c-0.5-1.4-0.8-2.8-1.2-4.2
		c1.2-1.1,1.4-4.8-0.8-4.6c0.3-4.1,0.4-8.2,0.3-12.4c-3.4-1.2-3.2,1.7-2.9,4.2c-3.2,5.1,0.7,15.6-0.8,23.1l-0.6-0.7
		c-1-3.6-2.3-8-4.9-10.6l-0.1-0.8c4.2-7.3-4.4-8.5-2.7-2.1c-0.5,0-1.4-0.1-1.9-0.2l-0.4-1c0.8-1.7,0.1-5.4-1.8-5.6
		c-0.6-6.6-0.1-13.2,0.7-19.8l0.3-0.7c2.4-2.5,6.2-5,5.3-9C75.4,126.3,70.3,129,70,133z"/>
	<path class="st2" d="M114.3,152.2c2.8-0.5,5.6-1.4,8.5-1c5.3,4.9,14.7-0.9,18.6,4.3c-7.3-3-5.1,4.9-5.1,9.7
		c0.6,2.9-2.9,1.7-2.4-0.6c-0.4-4.7-3.1-1.1-3.6,1.6c-0.5-1.8-1-3.7-1.3-5.6c0-1.4,0.4-3.5-1.8-2.5c-1.7,3.1,0.8,9-3.1,9.8l-0.1-1.2
		c-0.3-4.2-4.7-0.7-2.9,2.1c-0.6,3.4-1.3,6.8-2.1,10.2c-0.9-0.7-2-1-3.1-0.9c-0.9-1.3-1.6-2.8-2.2-4.2c-0.6-2.8-2.6-1.6-3.8,0.1
		l-0.1-0.9c0.6-1.5,0.7-3.3-0.7-4.3l-0.3-0.7c0.4-1.7,0.9-3.6,0-5.2c-1-2.6-3.8,0.2-2.8,2.1c-1-3.5,0.8-11-5-8.4
		C100.1,149.5,110,155.9,114.3,152.2z"/>
</g>
<g id="_x23_e85643ff">
	<path class="st3" d="M204.9,39c3.6,0.8,5.6,4.1,7.1,7.1C209.4,44,207.1,41.5,204.9,39z"/>
	<path class="st3" d="M111.8,49.2c5.6-0.8,11.1-2.4,16.5-3.9c-2.6,3.8-6.6,6.3-10.5,8.6c-2,1.2-4.4,1.9-6.7,2.1
		c-4.3,0.4-8.6,1.4-12.4,3.6L98,59.9c-6.3,0.8-10.8,6.9-8.5,13.4l0.2,0.8c0.2,4.2,4.9,5.5,6.4,9c-2.8-0.4-5.5-1.3-8.2-2.1l-0.7-0.3
		c-4.2-3.8-5.7-9.2-5.5-14.8c-5.6,0-5.9,7.3-5.2,11.3c-8.5-5.1-3.2-16.2,3.7-20c7.6-5,17.6-4,26-7.1l0.9-0.1c1.3,0.1,2.6,0,3.8-0.6
		L111.8,49.2z"/>
	<path class="st3" d="M159.2,53.3c2.9-0.7,6.7-9.1,7-2.4l-0.4,0.9c-2.9,9.3-12.2,12.6-21.1,12.9c-2.6,0.3-5.1,0.4-7.7,0.4
		c-8.8-0.2-24.4-2.6-27.4,9.2l-0.3,0.9c0,1.2,0.1,3.7,0.1,4.9l0.4,0.8c2.7,8-2.5,1.1-4.7-2.1c-0.1-0.5-0.2-1.4-0.2-1.9
		c0.1-1.2,0.1-2.4,0-3.6c-0.1-0.9-0.2-2.7-0.2-3.6c-1.9-2.6-5.1,3.2-5,5.7l-0.3,1.2c-3.1-2.1-0.3-5.9,0.4-8.6l0.4-0.6
		C115.8,51.7,140.6,61.1,159.2,53.3z"/>
	<path class="st3" d="M168.3,63.7c-5.9-0.2,0.4-8,2.8-10l1,0.6c1.6,1.4,3.6,2,5.7,1.7l0.8,0.2c2.2,1.5,4.8,2.4,7.4,2.9l0.7,0.2
		c5.9,2.9,12.2,4.9,18,8.1c0.3,3.1,0.4,6.3,0.4,9.4c-0.1,0.8-0.4,2.3-0.5,3.1c-0.6,2.2-0.8,4.4-0.7,6.6l-0.1,0.9
		c-1.1,5.4-2.3,10.9-2.7,16.5c-0.5,4.8-1.1,9.7-3.3,14c-0.9,1.4-1.6,3-1.6,4.7c-0.2,2.5-0.4,5.4-2,7.4c3-8.3-4.7-8.3-9.1-5.3
		c0.1-0.5,0.2-1.4,0.2-1.9c0.2-1.3,0.7-2.5,1.1-3.8c1.4-2.9,2.5-6,2.9-9.3c0.3-1.6,0.7-3.2,1.1-4.8c2.1-7.2,3.2-14.7,3.8-22.2
		l0.1-0.8c3.5-7-0.8-11.6-7.5-12.1c-1.3-0.3-2.6-0.5-3.7-1.3c-4.2-2.8-9.1-4.4-14.1-5L168.3,63.7z"/>
	<path class="st3" d="M127,69.4c2.7-0.7,5.4-0.7,8.1,0c1.5,0.2,4.4,0.5,5.8,0.7l1,0.2c1.2,0.6,2.6,0.8,3.9,0.7l0.9,0.2
		c9.7,1.8,19.7,4.2,29.4,0.8c-2.8,3.1-6.2,5.6-10.3,6.8l-0.8,0.1c-5.3,0-10.6,0.1-15.9,0c-0.7-0.1-2-0.2-2.7-0.2
		c-4.7-0.2-10-2-14.5,0.1c-0.9,0.4-1.8,0.8-2.7,1.2c-3.9-1.4-9.9,9.4-9.1,3.1c0.3-1,0.7-1.9,1.2-2.8c2.3-1.8,4.9-3.3,7.3-5.1
		l0.7-0.5c2.2-5.6-11.2,2.5-11.9,0.7c0.9-2.4,2.9-4,4.9-5.4l1,0C124.5,70.2,125.8,70.1,127,69.4z"/>
	<path class="st3" d="M50.1,83.2c4.6-3.7,10.4-7,16.4-5.7c9.7-0.8,2.6,2.3,0.3,3.4L66.1,81c-2.7,0.7-5.4,1.7-7.5,3.5L58,84.9
		c-4,2.8-8.7,6.2-9.2,11.3l-0.2,1.2c-3.3-3.8-0.1-9.4,1.2-13.6L50.1,83.2z"/>
	<path class="st3" d="M132.9,81.9h1c13.8-2.1,22.9,11.6,36,12.3l0.8,0.1c2.7,0.3,8,0.9,10.6,1.1c-7.8,3-16.6,3.2-24.5,0.6
		c-1-0.1-1.9-0.6-2.5-1.4c-1.7-1.9-4.2-2.6-6.4-3.7l-0.5-0.4c-4.1-4-9.9-4.9-15.1-6.8C132.5,83.3,132.7,82.4,132.9,81.9z"/>
	<path class="st3" d="M72.3,84.2l0.8-0.3c1.5,0.2,4.6,0.6,6.2,0.8c-1,0.5-2.1,0.9-3.2,1.2c-4.4,1-8.7,3.7-10.3,8.1l-0.4,0.7
		c-1.2,0.5-1.9,1.8-1.5,3.1c-0.3,1.8,0.4,2.5,2,2.1c3.7-0.8,7.3-2.4,10.4-4.6l0.7-0.3c8.4-2.8,16.9-5.9,24.2-11
		c-1,2-2.1,3.9-3.3,5.8l-0.7,0.3c-11.4,6-24.6,10.7-32.2,21.9l-0.4,0.5c-2.5,2.2-2.8,5.6-3.5,8.6c-0.1,0.4-0.3,1.2-0.4,1.6
		c-0.4,1.7-0.6,3.5-0.7,5.2c-1.3-1.4-3-2-4.9-2.2c-0.1-3.7,0.4-7.2,0.9-10.8c-3.8-0.1-7,2.4-10.4,4l-0.9,0.4
		c2.6-5.8,7.9-10.8,9.5-17.4c0.4-0.9,0.8-1.7,1.3-2.5C58.6,92,64.8,86.8,72.3,84.2z"/>
	<path class="st3" d="M99.1,100.6c-5.3-1.7-2.4-1.9,2.8-1.6l0.8,0.2c4.1,2.8,8.5,5.6,13.6,4.6c0,1.9-1.5,3-2.9,4.1
		c-1.8,1-2,3.1-2.4,4.9l-0.2,0.9c-2.1,9.4-1.6-1.6-2-6.2c-2.2,2-9-5.3-9-0.4l-0.2,1.2c-2.2-1.1-4.5-2.1-6.8-2.9
		c-1.3-0.2-2-0.9-1.9-2.2C93.6,102.2,96.4,101.6,99.1,100.6z"/>
	<path class="st3" d="M140,100.1c2.3-0.5,4.6-0.9,6.9-1.2c-1.5,1.5-2.2,2.7,0.6,2.6c11.1-2.9-3.4,11.4-2.8,3.6
		c-2.7,2.5-9.3-0.6-8.6,3.7c0,2.1,0,4.2,0,6.2c0,2.8-0.1,5.6,0.8,8.3l0.2,0.8c-0.2,1.4-0.6,4.2-0.8,5.6c-0.5-0.6-1.1-1.3-1.7-1.9
		c-1.3-7.3,0.7-16.7-5.2-22.3l-0.7-0.7c2.6-2.1,8-0.8,10.7-4.5L140,100.1z"/>
	<path class="st3" d="M8.1,111.9c-0.4-1.6-0.3-3.3,0.3-4.8c0.2,0.4,0.7,1.3,1,1.7c-0.1,0.8-0.5,2.2-0.6,3L8.1,111.9z"/>
	<path class="st3" d="M242.4,113c0.1,1.5,0.4,4.5,0.6,6l-0.8,0.1c-0.2-0.4-0.5-1.3-0.7-1.7C241.6,115.8,241.9,114.4,242.4,113z"/>
	<path class="st3" d="M7.9,138.4c-2.3-7.6-0.6-15.9-0.1-23.7C8,122.7,8,130.6,7.9,138.4z"/>
	<path class="st3" d="M74,119.1c2.4-1.3,4.7-2.8,7-4.2c-3.5,8.1-11.4,12.8-17.8,18.4c1.2-2.4,9.7-8.9,2.9-8.2c2.5-1.8,5-3.6,7.4-5.5
		L74,119.1z"/>
	<path class="st3" d="M86.9,120c0.5-1.6,1.2-1.6,1.9-0.1c0.1,2.3,0.4,4.5,1.2,6.7c-0.8,0.1-1.6,0.2-2.4,0.3
		C87.4,124.7,87.2,122.3,86.9,120z"/>
	<path class="st3" d="M61,128.8c0.5-1.4,1.7-2.3,3.1-2.7C64.2,127.7,62.7,130.1,61,128.8z"/>
	<path class="st3" d="M96.7,127.9c0.2-1.1,1.1-1.8,2.1-1.1l0,0.8c-0.2,0.6-0.6,1.7-0.8,2.3l-0.6-0.1
		C97.2,129.4,96.9,128.4,96.7,127.9z"/>
	<path class="st3" d="M142.2,129.1c0.6-1.3,1.4-2.5,2.3-3.6c0.4,1.7,1.1,4-0.6,5.3l-0.8,0.2C142.9,130.5,142.5,129.6,142.2,129.1z"
		/>
	<path class="st3" d="M75.6,128.8c1.8-3.8,4,0.9,0.2,0.8L75.6,128.8z"/>
	<path class="st3" d="M144.9,133.1c1.4-2,2.8,0,2.3,1.7c-0.5-0.2-1.6-0.7-2.1-0.9L144.9,133.1z"/>
	<path class="st3" d="M241.9,132.2l1-0.2c1.4,7.7,4.8,15.2,3.4,23.3c-0.4,1.6-0.8,3.1-1.2,4.6c-2.5,3.2-3.2,7.4-3.8,11.4l-0.3,0.7
		c-2.3,3.1-4.9,6.3-4.8,10.3c-0.4,0.8-0.9,1.6-1.3,2.4c-2.1,2.1-3.4,4.8-4.8,7.4l-0.3,0.6c-1.8,1.4-3.1,3.2-3.7,5.4l-0.3,0.6
		c-5,4.4-8.8,9.9-12.9,15c-4.8,3.8-10.1,7.3-14.1,12.1l-0.6,0.3c-1.5,0.1-3.2,0.9-3.3,2.6l-0.7,0.2c-3,0.6-5.5,2.6-7.4,4.9
		c-4.9,2.9-10.1,5.5-15.5,7.3c-1.7-0.5-3.4,0.3-4.2,1.8c-5.2,1.7-10.4,3.2-15.8,4.2c-3.3-0.4-6.5,0.4-9.5,1.6
		c-0.5,0.1-1.3,0.2-1.8,0.2c-1.5,0.2-4.6,0.7-6.1,0.9h-18.8c-1.2-1.6-3.5-1.7-5.1-0.7l-0.8-0.5c-1.4-1.4-3.5-1.2-5.3-0.6l-0.7-0.4
		c-1.1-1.3-2.9-1.2-4.3-0.6c-4.3-1-8.6-1.7-12.7-3.2c-1.7-2.4-4.9-2.3-7.5-2.8c-0.8-0.5-1.7-0.9-2.5-1.4c-2.3-2.1-5.4-3.1-8.5-3.7
		c-0.8-0.4-1.6-0.9-2.4-1.3c-1.6-2.7-4.5-4-7.5-4.6l-0.5-0.4c-1.2-2.1-3.5-2.9-5.6-3.7l-0.6-0.3c0.1-2.3-1.8-4.2-4.1-3.6l-0.7-0.3
		c-6.1-8.2-14.2-14.8-20.9-22.3l-0.4-0.6c-2.4-4.8-5.2-9.3-8.6-13.4l-0.3-0.6c-1.3-3.2-3.1-6.2-5-9.1c-0.8-1.8-1.6-3.7-2.2-5.6
		c-0.6-3.9-2.2-7.7-3.6-11.4l-0.2-0.8c-1.3-6.8-3.6-14.2,3.3-18.7l0.8-0.5c0.1,0.5,0.1,1.5,0.2,2c-0.6,1.7-0.7,3.8,0.6,5.2l0.4,0.7
		c-0.6,1.4-0.6,3.1,0.7,4.2l0.3,0.7c0.5,4.3,0.8,9,3.6,12.6c0.4,1.2,0.8,2.3,1.2,3.5c0.6,2.3,1.3,4.6,2.8,6.5c1,2.2,2.1,4.4,3.2,6.5
		c0.6,2.4,1.4,5.1,3.8,6.4l0.5,0.5c0.4,2.3,1,4.7,3.5,5.5l0.4,0.5c2.7,7.1,9.4,11.3,14.3,16.7c3.3,3.8,7.2,7,11.7,9.2l0.5,0.4
		c0.7,2.6,3,3.4,5.4,3.7l0.7,0.3c5.5,5.8,13.7,8.4,21.2,11c1.3,0.4,2.5,0.8,3.8,1.2c1.3,1.3,3.1,2.2,5.1,1.8
		c3.3,0.9,6.6,1.7,9.9,2.3c1.5,1.1,3.4,1.1,5.2,0.6l0.8,0.1c10.6,2.4,21.9,3.2,32.4,0.1l0.7-0.2c1.7,0.4,3.6,0.5,5.1-0.6
		c3.3-0.6,6.6-1.4,9.9-2.3c1.9,0.4,3.7-0.4,5.1-1.8c2.3-0.6,4.6-1.3,6.8-2.2c5.3-1.9,11.2-3.8,15.3-7.8l0.5-0.5
		c17.4-8.9,32.2-23.4,41-41l0.5-0.5c3.7-4.4,6.1-9.9,7.7-15.4c0.9-2.2,1.7-4.4,2.2-6.7c2-1,2.3-3.2,1.7-5.1c1.2-3.2,2-6.6,2.4-9.9
		c1.1-1.5,1.1-3.5,0.5-5.3l0.4-0.7c1.6-2.5,1.7-4.8,0.4-7.1C241.7,133.5,241.9,132.6,241.9,132.2z"/>
	<path class="st3" d="M99,147c-4-1.2-1.2-6.4-1.4-9.2c0,0.5,0.1,1.6,0.2,2.1c0.1,0.7,0.2,2.2,0.3,2.9C98.4,144.3,98.7,145.6,99,147z
		"/>
	<path class="st3" d="M141.5,142c0.1-0.4,0.3-1.1,0.4-1.4c2,0.1,2.9,1.8,3.8,3.3c0.5,1.2,1.8,1.9,3,2.3
		C146.5,148.9,144,143.1,141.5,142z"/>
	<path class="st3" d="M57.1,143.9c0.6-0.6,1.2-1.5,2.1-1.1c-0.1,0.8-0.3,2.4-0.4,3.2C57.9,145.5,57.3,144.8,57.1,143.9z"/>
	<path class="st3" d="M141.1,142.7c1.1,0.6,2.9,2.3,1.3,3.4c-0.3-0.3-0.9-1-1.2-1.3C141.2,144.3,141.1,143.2,141.1,142.7z"/>
	<path class="st3" d="M106.4,147.4l0.8-0.7c0.3,1.4-0.3,3.7,1.9,3.6l1.1,0.3c-2.3,0.8-4.9,0.9-4.5-2.3L106.4,147.4z"/>
	<path class="st3" d="M108.3,163.2l0.5-0.3c0.9,1.6,0.4,3.5,0,5.2C107.7,166.7,107.5,164.8,108.3,163.2z"/>
</g>
</svg>
