<?xml version="1.0" encoding="UTF-8" ?>
<!DOCTYPE svg PUBLIC "-//W3C//DTD SVG 1.1//EN" "http://www.w3.org/Graphics/SVG/1.1/DTD/svg11.dtd">
<svg width="250pt" height="250pt" viewBox="0 0 250 250" version="1.1" xmlns="http://www.w3.org/2000/svg">
<g id="#fdfefdff">
<path fill="#fdfefd" opacity="1.00" d=" M 0.00 0.00 L 110.41 0.00 L 110.30 0.94 C 105.76 0.97 101.16 1.33 96.87 2.94 C 92.61 4.47 88.17 5.49 83.92 7.05 C 81.70 6.45 79.47 7.02 78.01 8.84 C 76.73 9.60 75.44 10.35 74.14 11.08 C 71.02 11.48 68.28 12.92 65.84 14.87 C 60.03 18.23 54.47 22.00 49.07 25.98 C 47.59 25.62 46.19 26.59 46.04 28.12 C 44.97 29.00 43.91 29.87 42.88 30.78 C 38.22 34.07 33.63 37.83 30.71 42.82 C 29.84 43.89 29.00 44.98 28.15 46.06 C 26.68 46.19 25.67 47.43 25.80 48.90 C 24.60 50.63 23.40 52.36 22.19 54.09 C 20.60 54.12 19.61 55.60 20.02 57.09 C 18.31 60.00 16.53 62.88 14.94 65.86 C 12.67 68.93 10.18 72.18 10.02 76.16 C 9.73 76.63 9.15 77.57 8.86 78.04 C 7.01 79.46 6.44 81.71 7.05 83.92 C 5.47 88.18 4.39 92.60 3.03 96.93 C 1.29 100.82 1.27 105.02 1.08 109.18 L 0.94 110.10 L 0.00 110.24 L 0.00 0.00 Z" />
<path fill="#fdfefd" opacity="1.00" d=" M 139.67 0.00 L 250.00 0.00 L 250.00 107.28 L 249.19 106.76 C 248.30 101.11 248.79 94.65 244.99 89.93 C 245.41 88.53 245.42 86.76 243.99 85.94 C 244.30 83.77 243.45 81.74 242.15 80.05 C 239.12 74.55 237.06 68.57 234.06 63.05 C 234.33 61.59 233.44 60.28 232.02 59.91 C 230.67 57.97 229.33 56.03 227.97 54.10 C 228.34 52.64 227.48 51.30 226.09 50.86 C 224.69 49.26 223.26 47.68 221.88 46.07 C 222.28 44.03 220.81 42.41 218.84 42.17 C 212.33 36.02 206.29 29.35 198.92 24.17 C 198.86 22.60 197.39 21.60 195.90 22.04 C 194.96 21.34 194.04 20.65 193.11 19.96 C 192.72 18.53 191.37 17.65 189.91 18.01 C 187.97 17.00 186.04 15.98 184.13 14.92 C 181.74 12.88 178.98 11.50 175.87 11.07 C 174.56 10.35 173.27 9.60 171.99 8.84 C 170.53 7.01 168.28 6.42 166.07 7.09 C 162.89 5.71 159.54 4.84 156.23 3.83 C 151.09 1.51 145.30 1.57 139.81 0.87 L 139.67 0.00 Z" />
<path fill="#fdfefd" opacity="1.00" d=" M 0.00 139.76 L 0.93 139.91 L 1.13 140.79 C 1.15 144.97 1.82 149.08 2.81 153.14 C 2.57 154.54 2.71 156.04 3.72 157.13 C 4.18 158.07 4.65 159.01 5.12 159.94 C 4.58 161.30 4.49 163.10 5.94 163.94 C 6.36 166.85 7.14 169.75 8.95 172.13 C 9.22 172.56 9.75 173.44 10.02 173.88 C 10.15 176.58 11.39 179.00 12.93 181.17 C 14.54 184.13 16.31 187.01 18.04 189.91 C 17.67 191.33 18.47 192.83 20.00 193.01 C 19.62 194.42 20.54 195.80 22.00 195.99 C 21.62 197.43 22.57 198.68 23.91 199.13 C 25.30 200.74 26.73 202.31 28.12 203.93 C 27.71 205.97 29.20 207.60 31.17 207.82 C 34.96 211.37 38.60 215.07 42.17 218.84 C 42.41 220.79 44.01 222.25 46.03 221.93 C 47.70 223.24 49.37 224.56 51.07 225.84 C 51.21 227.30 52.41 228.32 53.86 228.24 C 54.87 228.84 55.89 229.43 56.90 230.03 C 57.28 231.44 58.58 232.32 60.04 232.06 C 63.51 234.39 67.32 236.13 71.00 238.10 C 72.17 239.69 74.08 240.50 76.02 239.85 C 77.35 240.64 78.69 241.42 80.03 242.20 C 81.74 243.48 83.79 244.29 85.95 243.93 C 88.24 244.66 90.56 245.31 92.86 246.08 C 96.96 249.06 102.50 248.02 107.20 248.88 L 108.09 249.06 L 108.24 250.00 L 0.00 250.00 L 0.00 139.76 Z" />
</g>
<g id="#91c670ff">
<path fill="#91c670" opacity="1.00" d=" M 110.41 0.00 L 117.09 0.00 C 115.38 1.93 113.11 2.25 110.30 0.94 L 110.41 0.00 Z" />
</g>
<g id="#41b421ff">
<path fill="#41b421" opacity="1.00" d=" M 117.09 0.00 L 132.85 0.00 C 135.29 2.02 137.61 2.31 139.81 0.87 C 145.20 2.23 150.65 3.67 156.23 3.83 C 159.54 4.84 162.89 5.71 166.07 7.09 C 167.70 8.51 169.81 9.36 171.99 8.84 C 173.27 9.60 174.56 10.35 175.87 11.07 C 178.47 12.67 181.28 13.85 184.13 14.92 C 186.04 15.98 187.97 17.00 189.91 18.01 C 190.24 19.48 191.64 20.36 193.11 19.96 C 194.04 20.65 194.96 21.34 195.90 22.04 C 196.29 23.40 197.48 24.32 198.92 24.17 C 206.29 29.35 212.33 36.02 218.84 42.17 C 218.95 44.01 220.25 45.38 221.88 46.07 C 223.26 47.68 224.69 49.26 226.09 50.86 C 225.63 52.32 226.50 53.75 227.97 54.10 C 229.33 56.03 230.67 57.97 232.02 59.91 C 231.64 61.38 232.54 62.80 234.06 63.05 C 237.06 68.57 239.12 74.55 242.15 80.05 C 241.40 82.27 241.95 84.64 243.99 85.94 C 243.55 87.33 243.54 89.12 244.99 89.93 C 246.14 95.58 247.59 101.19 248.30 106.93 C 247.98 109.11 248.54 111.16 250.00 113.09 L 250.00 135.83 C 249.77 137.35 249.30 140.39 249.06 141.91 L 248.90 142.80 C 247.64 148.61 245.99 154.36 245.21 160.26 C 244.81 161.54 244.41 162.80 243.96 164.06 C 241.96 165.39 241.39 167.72 242.15 169.95 C 239.26 175.52 237.06 181.43 234.02 186.93 C 232.53 187.22 231.64 188.62 232.02 190.10 C 229.16 194.52 226.16 198.85 223.15 203.16 C 221.30 203.48 219.91 204.89 219.80 206.79 C 216.11 211.04 212.35 215.22 208.17 219.00 C 205.73 219.41 204.13 221.15 203.11 223.30 C 193.05 231.25 181.59 236.94 169.95 242.15 C 167.72 241.39 165.40 241.96 164.06 243.95 C 160.78 245.04 157.50 246.13 154.18 247.10 C 150.32 247.26 146.50 247.75 142.80 248.88 L 141.91 249.06 C 140.39 249.29 137.36 249.76 135.84 250.00 L 114.16 250.00 C 112.64 249.76 109.61 249.29 108.09 249.06 L 107.20 248.88 C 102.49 247.63 97.69 246.73 92.86 246.08 C 90.56 245.31 88.24 244.66 85.95 243.93 C 84.58 241.96 82.25 241.38 80.03 242.20 C 78.69 241.42 77.35 240.64 76.02 239.85 C 74.79 238.33 72.93 237.51 71.00 238.10 C 67.32 236.13 63.51 234.39 60.04 232.06 C 59.80 230.54 58.38 229.63 56.90 230.03 C 55.89 229.43 54.87 228.84 53.86 228.24 C 53.88 226.70 52.56 225.63 51.07 225.84 C 49.37 224.56 47.70 223.24 46.03 221.93 C 45.39 220.26 44.03 218.94 42.17 218.84 C 38.60 215.07 34.96 211.37 31.17 207.82 C 31.04 205.98 29.75 204.62 28.12 203.93 C 26.73 202.31 25.30 200.74 23.91 199.13 C 24.34 197.70 23.55 196.16 22.00 195.99 C 22.37 194.57 21.46 193.19 20.00 193.01 C 20.39 191.55 19.42 190.28 18.04 189.91 C 16.31 187.01 14.54 184.13 12.93 181.17 C 12.91 178.43 11.65 175.99 10.02 173.88 C 9.75 173.44 9.22 172.56 8.95 172.13 C 8.65 169.19 7.98 166.19 5.94 163.94 C 6.44 162.57 6.45 160.86 5.12 159.94 C 4.65 159.01 4.18 158.07 3.72 157.13 C 4.38 155.80 4.63 153.64 2.81 153.14 C 3.11 148.91 2.60 144.77 1.13 140.79 L 0.93 139.91 C 0.70 138.39 0.23 135.35 0.00 133.84 L 0.00 116.16 C 0.23 114.65 0.70 111.61 0.94 110.10 L 1.08 109.18 C 2.03 105.15 2.65 101.05 3.03 96.93 C 4.39 92.60 5.47 88.18 7.05 83.92 C 8.53 82.33 9.34 80.21 8.86 78.04 C 9.15 77.57 9.73 76.63 10.02 76.16 C 12.13 72.97 13.90 69.54 14.94 65.86 C 16.53 62.88 18.31 60.00 20.02 57.09 C 21.39 56.72 22.31 55.52 22.19 54.09 C 23.40 52.36 24.60 50.63 25.80 48.90 C 27.32 48.85 28.36 47.54 28.15 46.06 C 29.00 44.98 29.84 43.89 30.71 42.82 C 35.23 39.35 39.76 35.62 42.88 30.78 C 43.91 29.87 44.97 29.00 46.04 28.12 C 47.49 28.33 48.75 27.40 49.07 25.98 C 54.47 22.00 60.03 18.23 65.84 14.87 C 68.71 13.85 71.54 12.69 74.14 11.08 C 75.44 10.35 76.73 9.60 78.01 8.84 C 80.19 9.35 82.33 8.54 83.92 7.05 C 88.17 5.49 92.61 4.47 96.87 2.94 C 101.41 3.06 106.03 2.63 110.30 0.94 C 113.11 2.25 115.38 1.93 117.09 0.00 M 98.90 8.08 C 96.89 7.99 94.97 8.70 93.08 9.26 C 90.60 10.27 86.46 9.86 85.15 12.04 C 77.59 13.77 69.91 17.43 63.72 22.13 C 56.81 25.66 49.99 30.09 44.85 35.90 C 40.26 39.91 35.91 44.33 31.96 48.96 C 28.92 52.15 26.58 56.10 24.20 59.85 C 16.58 70.70 11.52 83.33 8.22 96.10 C 4.69 96.70 7.58 104.89 6.23 107.25 C 5.40 110.18 5.10 113.22 5.10 116.27 C 4.98 124.44 4.18 132.90 6.03 140.87 C 7.27 153.30 10.35 166.49 16.89 177.04 C 21.22 188.25 28.58 198.39 36.93 206.97 C 37.42 210.43 40.97 212.78 43.94 214.07 C 44.20 214.27 44.71 214.67 44.97 214.87 C 45.84 215.42 46.55 216.56 47.67 216.56 C 48.99 218.79 50.99 221.17 53.66 221.65 C 57.87 226.52 64.57 228.71 70.00 232.00 C 71.27 233.75 74.11 233.78 76.07 234.71 C 77.15 237.03 80.68 238.05 83.21 237.84 C 86.86 239.91 91.05 240.80 95.10 241.79 C 95.67 245.30 103.89 242.39 106.21 243.85 C 108.72 244.66 111.34 244.90 113.98 245.00 C 118.98 247.75 131.97 245.98 137.01 245.03 C 139.34 245.14 141.54 244.35 143.75 243.77 C 146.01 242.38 154.47 245.33 154.88 241.85 C 159.74 240.63 164.64 239.30 169.14 237.04 C 182.76 232.03 195.40 223.96 205.98 214.08 C 209.73 213.15 212.60 209.40 214.00 205.96 C 216.11 203.79 218.29 201.56 219.90 199.01 C 223.53 193.86 228.04 188.95 230.26 183.00 C 231.57 182.33 231.70 180.45 232.03 179.15 C 236.80 172.14 239.48 163.04 241.64 154.68 C 245.20 154.36 242.94 145.15 243.81 142.76 C 245.72 131.11 245.76 118.86 243.87 107.21 C 243.60 104.04 244.51 98.92 242.29 96.92 C 241.75 94.51 241.07 92.11 240.06 89.85 C 236.55 79.40 232.38 68.77 225.97 59.83 C 224.52 57.78 223.36 55.22 221.12 53.93 C 218.93 48.15 212.60 42.86 209.15 39.46 C 203.39 33.43 196.58 28.08 189.43 24.16 C 176.53 14.65 160.49 8.98 144.64 6.74 C 141.51 4.32 131.95 5.61 127.24 5.18 C 117.68 4.19 108.20 6.06 98.90 8.08 Z" />
</g>
<g id="#8ec56dff">
<path fill="#8ec56d" opacity="1.00" d=" M 132.85 0.00 L 139.67 0.00 L 139.81 0.87 C 137.61 2.31 135.29 2.02 132.85 0.00 Z" />
</g>
<g id="#9fd487ff">
<path fill="#9fd487" opacity="1.00" d=" M 96.87 2.94 C 101.16 1.33 105.76 0.97 110.30 0.94 C 106.03 2.63 101.41 3.06 96.87 2.94 Z" />
</g>
<g id="#9bd384ff">
<path fill="#9bd384" opacity="1.00" d=" M 139.81 0.87 C 145.30 1.57 151.09 1.51 156.23 3.83 C 150.65 3.67 145.20 2.23 139.81 0.87 Z" />
</g>
<g id="#286ab6ff">
<path fill="#286ab6" opacity="1.00" d=" M 98.90 8.08 C 108.20 6.06 117.68 4.19 127.24 5.18 C 123.86 5.40 117.35 5.85 120.49 11.58 C 120.69 20.27 118.74 31.58 127.06 37.04 C 131.15 34.67 138.67 33.76 139.10 28.12 C 143.87 31.25 139.06 35.41 135.70 37.23 C 128.95 38.61 131.70 43.62 136.26 46.00 C 134.13 50.52 128.20 49.62 124.69 47.22 C 124.36 46.84 123.70 46.10 123.37 45.72 C 122.10 43.70 118.86 44.26 118.22 41.64 C 114.96 36.94 121.66 35.22 120.93 31.25 C 118.38 28.23 112.72 29.51 110.71 32.61 C 109.52 36.06 105.62 32.73 103.08 32.77 C 104.39 25.96 106.58 19.15 107.97 12.21 C 105.09 8.89 97.21 15.43 98.90 8.08 Z" />
</g>
<g id="#327ac8ff">
<path fill="#327ac8" opacity="1.00" d=" M 127.24 5.18 C 131.95 5.61 141.51 4.32 144.64 6.74 C 142.95 9.86 151.68 14.34 145.83 15.71 C 140.75 16.40 134.43 23.72 139.10 28.12 C 138.67 33.76 131.15 34.67 127.06 37.04 C 118.74 31.58 120.69 20.27 120.49 11.58 C 117.35 5.85 123.86 5.40 127.24 5.18 Z" />
</g>
<g id="#afd899ff">
<path fill="#afd899" opacity="1.00" d=" M 78.01 8.84 C 79.47 7.02 81.70 6.45 83.92 7.05 C 82.33 8.54 80.19 9.35 78.01 8.84 Z" />
</g>
<g id="#1c62c0ff">
<path fill="#1c62c0" opacity="1.00" d=" M 145.83 15.71 C 151.68 14.34 142.95 9.86 144.64 6.74 C 160.49 8.98 176.53 14.65 189.43 24.16 C 182.88 32.60 170.55 35.17 160.32 33.71 C 153.59 33.36 144.07 30.89 139.16 37.20 C 138.31 38.51 136.80 37.47 135.70 37.23 C 139.06 35.41 143.87 31.25 139.10 28.12 C 134.43 23.72 140.75 16.40 145.83 15.71 Z" />
</g>
<g id="#a9d997ff">
<path fill="#a9d997" opacity="1.00" d=" M 166.07 7.09 C 168.28 6.42 170.53 7.01 171.99 8.84 C 169.81 9.36 167.70 8.51 166.07 7.09 Z" />
</g>
<g id="#235eaaff">
<path fill="#235eaa" opacity="1.00" d=" M 93.08 9.26 C 94.97 8.70 96.89 7.99 98.90 8.08 C 97.21 15.43 105.09 8.89 107.97 12.21 C 106.58 19.15 104.39 25.96 103.08 32.77 C 105.62 32.73 109.52 36.06 110.71 32.61 C 112.72 29.51 118.38 28.23 120.93 31.25 C 121.66 35.22 114.96 36.94 118.22 41.64 C 118.86 44.26 122.10 43.70 123.37 45.72 C 117.04 51.62 114.83 43.63 113.15 38.26 C 107.77 40.10 95.82 43.80 96.38 34.45 C 94.82 29.67 100.54 24.05 95.57 20.41 C 91.41 17.81 92.31 13.31 93.08 9.26 Z" />
</g>
<g id="#23539dff">
<path fill="#23539d" opacity="1.00" d=" M 85.15 12.04 C 86.46 9.86 90.60 10.27 93.08 9.26 C 92.31 13.31 91.41 17.81 95.57 20.41 C 100.54 24.05 94.82 29.67 96.38 34.45 C 95.82 43.80 107.77 40.10 113.15 38.26 C 114.83 43.63 117.04 51.62 123.37 45.72 C 123.70 46.10 124.36 46.84 124.69 47.22 C 125.59 54.90 132.22 51.73 136.94 49.95 C 141.41 58.16 135.08 65.71 132.27 73.32 C 129.79 69.99 127.50 66.41 122.99 65.98 C 118.14 64.40 120.30 59.37 123.08 56.90 C 120.41 51.27 113.05 57.32 108.96 53.03 C 105.88 50.12 102.71 52.37 99.39 52.98 C 99.39 48.21 94.65 45.67 90.59 44.67 C 92.83 39.01 86.25 37.16 84.72 33.19 C 87.41 35.23 91.35 35.84 91.43 31.36 C 95.53 28.63 89.08 17.48 87.53 24.75 C 83.58 26.26 85.89 22.93 86.79 20.91 C 84.95 19.96 82.75 21.05 80.93 20.00 C 82.85 17.59 85.52 15.48 85.15 12.04 Z" />
</g>
<g id="#a2d58bff">
<path fill="#a2d58b" opacity="1.00" d=" M 65.84 14.87 C 68.28 12.92 71.02 11.48 74.14 11.08 C 71.54 12.69 68.71 13.85 65.84 14.87 Z" />
</g>
<g id="#9dd489ff">
<path fill="#9dd489" opacity="1.00" d=" M 175.87 11.07 C 178.98 11.50 181.74 12.88 184.13 14.92 C 181.28 13.85 178.47 12.67 175.87 11.07 Z" />
</g>
<g id="#1c4189ff">
<path fill="#1c4189" opacity="1.00" d=" M 63.72 22.13 C 69.91 17.43 77.59 13.77 85.15 12.04 C 85.52 15.48 82.85 17.59 80.93 20.00 C 82.75 21.05 84.95 19.96 86.79 20.91 C 85.89 22.93 83.58 26.26 87.53 24.75 C 89.08 17.48 95.53 28.63 91.43 31.36 C 91.35 35.84 87.41 35.23 84.72 33.19 C 86.25 37.16 92.83 39.01 90.59 44.67 C 94.65 45.67 99.39 48.21 99.39 52.98 C 102.71 52.37 105.88 50.12 108.96 53.03 C 113.05 57.32 120.41 51.27 123.08 56.90 C 120.30 59.37 118.14 64.40 122.99 65.98 C 127.50 66.41 129.79 69.99 132.27 73.32 C 131.03 75.93 129.72 78.51 128.39 81.08 C 124.07 78.94 117.60 77.52 121.76 72.02 C 115.81 67.82 107.80 78.87 101.10 72.81 C 98.86 66.91 109.93 72.93 109.05 67.01 C 108.45 60.28 97.47 64.42 95.97 68.93 C 92.83 72.08 92.53 68.12 94.54 65.91 C 92.39 62.29 94.37 58.18 93.79 54.28 C 90.68 48.96 80.39 52.71 82.54 43.43 C 78.76 41.27 79.53 36.31 75.94 34.04 C 72.71 29.24 67.47 26.46 63.72 22.13 Z" />
</g>
<g id="#a7d592ff">
<path fill="#a7d592" opacity="1.00" d=" M 189.91 18.01 C 191.37 17.65 192.72 18.53 193.11 19.96 C 191.64 20.36 190.24 19.48 189.91 18.01 Z" />
</g>
<g id="#1b367aff">
<path fill="#1b367a" opacity="1.00" d=" M 44.85 35.90 C 49.99 30.09 56.81 25.66 63.72 22.13 C 67.47 26.46 72.71 29.24 75.94 34.04 C 79.53 36.31 78.76 41.27 82.54 43.43 C 80.39 52.71 90.68 48.96 93.79 54.28 C 94.37 58.18 92.39 62.29 94.54 65.91 C 92.53 68.12 92.83 72.08 95.97 68.93 C 97.47 64.42 108.45 60.28 109.05 67.01 C 109.93 72.93 98.86 66.91 101.10 72.81 C 107.80 78.87 115.81 67.82 121.76 72.02 C 117.60 77.52 124.07 78.94 128.39 81.08 C 128.13 82.78 127.91 84.49 127.69 86.21 C 119.73 84.18 111.26 84.40 103.99 80.07 C 100.24 78.19 95.86 77.44 92.52 80.24 C 95.00 72.88 84.27 70.70 86.43 64.02 C 85.34 61.49 84.29 58.71 87.00 56.77 C 84.23 52.97 79.27 51.41 76.77 47.35 C 75.07 41.01 70.41 34.54 63.58 33.41 C 56.19 28.91 51.25 42.85 44.85 35.90 Z" />
</g>
<g id="#a7d794ff">
<path fill="#a7d794" opacity="1.00" d=" M 195.90 22.04 C 197.39 21.60 198.86 22.60 198.92 24.17 C 197.48 24.32 196.29 23.40 195.90 22.04 Z" />
</g>
<g id="#1d55aeff">
<path fill="#1d55ae" opacity="1.00" d=" M 189.43 24.16 C 196.58 28.08 203.39 33.43 209.15 39.46 C 207.15 42.19 205.85 45.30 204.19 48.22 C 202.30 51.98 195.23 49.01 195.59 54.20 C 195.23 52.51 194.89 50.82 194.54 49.13 C 199.29 49.89 203.05 46.75 202.85 42.22 C 198.20 37.61 188.54 38.00 194.00 47.00 C 187.68 41.13 182.01 51.42 175.17 48.74 C 169.51 46.80 163.55 45.47 157.55 46.32 C 150.81 49.31 147.59 39.37 141.26 41.16 C 138.51 43.27 138.10 46.91 136.94 49.95 C 132.22 51.73 125.59 54.90 124.69 47.22 C 128.20 49.62 134.13 50.52 136.26 46.00 C 131.70 43.62 128.95 38.61 135.70 37.23 C 136.80 37.47 138.31 38.51 139.16 37.20 C 144.07 30.89 153.59 33.36 160.32 33.71 C 170.55 35.17 182.88 32.60 189.43 24.16 Z" />
</g>
<g id="#9fd588ff">
<path fill="#9fd588" opacity="1.00" d=" M 46.04 28.12 C 46.19 26.59 47.59 25.62 49.07 25.98 C 48.75 27.40 47.49 28.33 46.04 28.12 Z" />
</g>
<g id="#97d381ff">
<path fill="#97d381" opacity="1.00" d=" M 30.71 42.82 C 33.63 37.83 38.22 34.07 42.88 30.78 C 39.76 35.62 35.23 39.35 30.71 42.82 Z" />
</g>
<g id="#122466ff">
<path fill="#122466" opacity="1.00" d=" M 44.85 35.90 C 51.25 42.85 56.19 28.91 63.58 33.41 C 70.41 34.54 75.07 41.01 76.77 47.35 C 79.27 51.41 84.23 52.97 87.00 56.77 C 84.29 58.71 85.34 61.49 86.43 64.02 C 84.27 70.70 95.00 72.88 92.52 80.24 C 92.87 83.00 93.70 85.69 94.76 88.26 C 90.15 90.06 86.34 86.47 87.73 82.26 C 80.46 77.07 70.24 73.29 62.88 80.08 L 63.34 79.35 C 65.56 76.65 65.43 72.57 68.18 70.30 C 70.50 71.08 76.89 71.41 74.29 67.83 C 66.80 67.09 67.99 57.66 61.40 55.46 C 55.58 51.98 54.19 41.43 45.36 45.25 C 42.98 50.79 36.98 50.82 31.96 48.96 C 35.91 44.33 40.26 39.91 44.85 35.90 Z" />
</g>
<g id="#2d73cbff">
<path fill="#2d73cb" opacity="1.00" d=" M 194.00 47.00 C 188.54 38.00 198.20 37.61 202.85 42.22 C 203.05 46.75 199.29 49.89 194.54 49.13 C 194.40 48.60 194.14 47.53 194.00 47.00 M 197.23 41.11 C 194.89 42.55 195.59 47.79 198.94 47.00 C 202.74 46.56 201.26 39.21 197.23 41.11 Z" />
</g>
<g id="#1f408aff">
<path fill="#1f408a" opacity="1.00" d=" M 209.15 39.46 C 212.60 42.86 218.93 48.15 221.12 53.93 C 212.36 57.50 205.47 63.81 201.42 72.36 C 198.33 74.55 202.34 76.89 201.38 79.43 C 198.84 80.27 196.54 79.81 195.85 76.96 C 195.02 69.53 198.53 61.78 195.59 54.20 C 195.23 49.01 202.30 51.98 204.19 48.22 C 205.85 45.30 207.15 42.19 209.15 39.46 M 208.21 55.17 C 203.73 60.82 214.60 55.93 208.21 55.17 Z" />
</g>
<g id="#9d9baaff">
<path fill="#9d9baa" opacity="1.00" d=" M 141.26 41.16 C 147.59 39.37 150.81 49.31 157.55 46.32 C 163.55 45.47 169.51 46.80 175.17 48.74 C 182.01 51.42 187.68 41.13 194.00 47.00 C 194.14 47.53 194.40 48.60 194.54 49.13 C 194.89 50.82 195.23 52.51 195.59 54.20 C 198.53 61.78 195.02 69.53 195.85 76.96 C 197.60 84.05 196.85 91.17 194.04 97.73 C 198.03 98.79 202.10 99.60 206.10 100.68 C 208.10 101.53 210.01 102.60 211.66 104.02 C 212.61 105.75 213.66 107.43 214.67 109.13 C 215.28 110.65 215.88 112.19 216.39 113.75 C 216.09 115.24 215.77 116.72 215.46 118.20 C 214.80 115.72 214.00 113.26 212.98 110.91 C 210.57 101.54 199.42 101.52 191.87 99.35 L 191.15 98.80 C 195.02 91.58 196.38 83.06 193.09 75.00 C 196.20 66.70 194.67 57.73 192.62 49.33 C 189.60 43.77 183.33 49.78 179.87 51.60 C 179.52 51.73 178.83 51.98 178.49 52.11 C 167.42 45.54 152.67 53.10 143.05 42.81 C 137.72 45.15 140.42 51.96 140.77 56.43 C 140.78 57.01 140.79 58.17 140.79 58.74 C 137.05 65.63 134.87 73.22 131.13 80.10 C 128.11 87.06 131.92 94.25 137.03 98.92 C 136.21 99.05 134.57 99.30 133.75 99.43 C 130.22 98.83 126.72 98.16 123.19 97.60 C 106.43 91.69 89.41 98.22 74.95 106.77 C 74.47 107.13 73.53 107.84 73.05 108.20 C 72.77 107.86 72.20 107.18 71.92 106.84 C 73.94 103.75 77.33 102.64 80.59 101.29 C 82.82 100.52 84.96 99.52 87.07 98.45 C 101.48 90.44 117.72 93.88 132.89 97.06 C 131.03 93.51 128.71 90.13 127.69 86.21 C 127.91 84.49 128.13 82.78 128.39 81.08 C 129.72 78.51 131.03 75.93 132.27 73.32 C 135.08 65.71 141.41 58.16 136.94 49.95 C 138.10 46.91 138.51 43.27 141.26 41.16 Z" />
</g>
<g id="#7dbcebff">
<path fill="#7dbceb" opacity="1.00" d=" M 197.23 41.11 C 201.26 39.21 202.74 46.56 198.94 47.00 C 195.59 47.79 194.89 42.55 197.23 41.11 Z" />
</g>
<g id="#add99eff">
<path fill="#add99e" opacity="1.00" d=" M 218.84 42.17 C 220.81 42.41 222.28 44.03 221.88 46.07 C 220.25 45.38 218.95 44.01 218.84 42.17 Z" />
</g>
<g id="#90643fff">
<path fill="#90643f" opacity="1.00" d=" M 140.77 56.43 C 140.42 51.96 137.72 45.15 143.05 42.81 C 152.67 53.10 167.42 45.54 178.49 52.11 C 169.32 52.32 158.05 46.51 148.97 52.79 C 146.01 54.60 143.88 57.39 141.78 60.08 C 141.53 59.75 141.04 59.08 140.79 58.74 C 140.79 58.17 140.78 57.01 140.77 56.43 C 144.06 54.10 147.15 51.43 150.80 49.64 C 148.28 47.76 145.69 45.98 143.10 44.22 C 139.45 47.11 141.61 52.42 140.77 56.43 Z" />
</g>
<g id="#c89547ff">
<path fill="#c89547" opacity="1.00" d=" M 143.10 44.22 C 145.69 45.98 148.28 47.76 150.80 49.64 C 147.15 51.43 144.06 54.10 140.77 56.43 C 141.61 52.42 139.45 47.11 143.10 44.22 Z" />
</g>
<g id="#101650ff">
<path fill="#101650" opacity="1.00" d=" M 45.36 45.25 C 54.19 41.43 55.58 51.98 61.40 55.46 C 67.99 57.66 66.80 67.09 74.29 67.83 C 76.89 71.41 70.50 71.08 68.18 70.30 C 65.43 72.57 65.56 76.65 63.34 79.35 C 57.73 75.71 56.91 83.18 52.56 84.66 C 51.41 86.30 50.96 88.30 50.15 90.11 C 45.89 88.12 43.78 83.84 41.67 79.87 C 44.60 77.71 49.37 78.10 50.96 74.19 C 46.60 70.84 41.99 67.70 37.87 64.15 C 32.71 65.78 28.58 61.99 24.20 59.85 C 26.58 56.10 28.92 52.15 31.96 48.96 C 36.98 50.82 42.98 50.79 45.36 45.25 M 31.16 56.19 C 26.88 60.66 36.91 58.30 31.16 56.19 Z" />
</g>
<g id="#9dd785ff">
<path fill="#9dd785" opacity="1.00" d=" M 25.80 48.90 C 25.67 47.43 26.68 46.19 28.15 46.06 C 28.36 47.54 27.32 48.85 25.80 48.90 Z" />
</g>
<g id="#9f7143ff">
<path fill="#9f7143" opacity="1.00" d=" M 179.87 51.60 C 183.33 49.78 189.60 43.77 192.62 49.33 C 194.67 57.73 196.20 66.70 193.09 75.00 C 196.38 83.06 195.02 91.58 191.15 98.80 C 190.38 98.19 189.62 97.56 188.88 96.91 C 191.25 94.14 194.29 91.18 193.04 86.98 C 192.49 84.48 194.32 75.59 188.89 77.72 C 190.91 72.99 197.76 65.10 192.05 60.79 C 190.52 64.08 192.19 71.74 186.93 72.05 C 186.53 68.90 191.27 67.81 189.95 64.34 C 188.87 60.82 190.76 55.12 187.00 52.72 C 184.53 55.07 182.74 58.11 179.99 60.15 C 174.50 59.82 188.50 51.12 179.87 51.60 Z" />
</g>
<g id="#cb9644ff">
<path fill="#cb9644" opacity="1.00" d=" M 148.97 52.79 C 158.05 46.51 169.32 52.32 178.49 52.11 C 178.83 51.98 179.52 51.73 179.87 51.60 C 188.50 51.12 174.50 59.82 179.99 60.15 C 176.49 61.47 180.35 62.93 181.67 64.36 C 183.64 66.31 183.98 69.32 185.82 71.40 C 187.59 68.16 182.50 60.32 187.66 58.89 C 188.24 60.25 189.38 62.98 189.95 64.34 C 191.27 67.81 186.53 68.90 186.93 72.05 C 192.19 71.74 190.52 64.08 192.05 60.79 C 197.76 65.10 190.91 72.99 188.89 77.72 C 194.32 75.59 192.49 84.48 193.04 86.98 C 194.29 91.18 191.25 94.14 188.88 96.91 C 184.54 101.50 177.97 102.69 171.96 103.13 C 181.31 100.74 190.45 91.59 187.87 81.22 C 184.27 77.25 177.42 81.25 174.20 76.79 C 169.75 73.08 175.67 65.76 170.06 62.91 C 161.65 58.29 158.48 71.81 150.24 69.96 C 148.36 66.73 147.18 63.06 144.44 60.39 C 142.82 57.72 154.40 53.50 148.97 52.79 Z" />
</g>
<g id="#a6da94ff">
<path fill="#a6da94" opacity="1.00" d=" M 226.09 50.86 C 227.48 51.30 228.34 52.64 227.97 54.10 C 226.50 53.75 225.63 52.32 226.09 50.86 Z" />
</g>
<g id="#ddb364ff">
<path fill="#ddb364" opacity="1.00" d=" M 141.78 60.08 C 143.88 57.39 146.01 54.60 148.97 52.79 C 154.40 53.50 142.82 57.72 144.44 60.39 C 147.18 63.06 148.36 66.73 150.24 69.96 C 158.48 71.81 161.65 58.29 170.06 62.91 C 175.67 65.76 169.75 73.08 174.20 76.79 C 177.42 81.25 184.27 77.25 187.87 81.22 C 190.45 91.59 181.31 100.74 171.96 103.13 C 168.59 103.74 165.15 104.29 161.76 103.56 C 167.80 103.14 169.59 95.97 175.06 94.04 C 180.33 92.37 186.82 83.91 179.36 80.58 C 169.72 80.45 159.68 81.88 149.92 82.79 C 151.14 80.53 155.51 79.52 153.67 76.37 C 152.54 73.22 149.38 72.43 146.43 71.88 C 142.86 67.66 133.83 72.78 140.75 74.17 C 141.99 77.37 142.96 80.61 141.99 84.05 C 140.10 81.08 136.15 82.16 133.13 82.00 C 132.95 84.74 132.82 87.48 132.73 90.23 C 129.86 79.30 138.79 70.16 141.78 60.08 M 160.06 78.00 C 156.31 79.02 168.56 82.30 165.85 79.25 C 167.44 78.90 168.22 77.28 168.36 75.79 C 171.08 79.41 171.17 71.69 168.81 70.17 C 164.49 65.48 154.36 73.16 160.06 78.00 Z" />
</g>
<g id="#e1b461ff">
<path fill="#e1b461" opacity="1.00" d=" M 179.99 60.15 C 182.74 58.11 184.53 55.07 187.00 52.72 C 190.76 55.12 188.87 60.82 189.95 64.34 C 189.38 62.98 188.24 60.25 187.66 58.89 C 182.50 60.32 187.59 68.16 185.82 71.40 C 183.98 69.32 183.64 66.31 181.67 64.36 C 180.35 62.93 176.49 61.47 179.99 60.15 Z" />
</g>
<g id="#a4da91ff">
<path fill="#a4da91" opacity="1.00" d=" M 20.02 57.09 C 19.61 55.60 20.60 54.12 22.19 54.09 C 22.31 55.52 21.39 56.72 20.02 57.09 Z" />
</g>
<g id="#394d90ff">
<path fill="#394d90" opacity="1.00" d=" M 201.42 72.36 C 205.47 63.81 212.36 57.50 221.12 53.93 C 223.36 55.22 224.52 57.78 225.97 59.83 C 221.45 63.51 217.24 68.00 211.43 69.54 C 207.55 73.72 207.59 79.52 207.04 84.95 C 203.02 86.66 198.65 85.57 201.38 79.43 C 202.34 76.89 198.33 74.55 201.42 72.36 Z" />
</g>
<g id="#7586aeff">
<path fill="#7586ae" opacity="1.00" d=" M 208.21 55.17 C 214.60 55.93 203.73 60.82 208.21 55.17 Z" />
</g>
<g id="#5b5a78ff">
<path fill="#5b5a78" opacity="1.00" d=" M 31.16 56.19 C 36.91 58.30 26.88 60.66 31.16 56.19 Z" />
</g>
<g id="#9b7a5fff">
<path fill="#9b7a5f" opacity="1.00" d=" M 131.13 80.10 C 134.87 73.22 137.05 65.63 140.79 58.74 C 141.04 59.08 141.53 59.75 141.78 60.08 C 138.79 70.16 129.86 79.30 132.73 90.23 C 133.65 92.81 136.35 98.45 139.50 95.98 C 140.89 97.64 139.25 99.02 137.92 99.96 C 136.52 99.88 135.13 99.68 133.75 99.43 C 134.57 99.30 136.21 99.05 137.03 98.92 C 131.92 94.25 128.11 87.06 131.13 80.10 Z" />
</g>
<g id="#0b0737ff">
<path fill="#0b0737" opacity="1.00" d=" M 24.20 59.85 C 28.58 61.99 32.71 65.78 37.87 64.15 C 41.99 67.70 46.60 70.84 50.96 74.19 C 49.37 78.10 44.60 77.71 41.67 79.87 C 42.29 85.12 38.71 86.74 34.79 87.88 C 32.27 89.75 34.08 93.20 33.92 95.78 C 26.54 99.35 19.14 103.13 12.67 108.19 C 12.86 112.25 8.91 115.62 5.10 116.27 C 5.10 113.22 5.40 110.18 6.23 107.25 C 7.21 103.59 7.78 99.85 8.22 96.10 C 11.52 83.33 16.58 70.70 24.20 59.85 Z" />
</g>
<g id="#2c296cff">
<path fill="#2c296c" opacity="1.00" d=" M 211.43 69.54 C 217.24 68.00 221.45 63.51 225.97 59.83 C 232.38 68.77 236.55 79.40 240.06 89.85 C 231.57 85.51 231.34 99.72 223.05 99.06 C 219.68 102.36 213.86 101.54 211.66 104.02 C 210.01 102.60 208.10 101.53 206.10 100.68 C 207.83 95.14 203.75 90.36 207.04 84.95 C 207.59 79.52 207.55 73.72 211.43 69.54 Z" />
</g>
<g id="#b0da9dff">
<path fill="#b0da9d" opacity="1.00" d=" M 232.02 59.91 C 233.44 60.28 234.33 61.59 234.06 63.05 C 232.54 62.80 231.64 61.38 232.02 59.91 Z" />
</g>
<g id="#a3d78eff">
<path fill="#a3d78e" opacity="1.00" d=" M 10.02 76.16 C 10.18 72.18 12.67 68.93 14.94 65.86 C 13.90 69.54 12.13 72.97 10.02 76.16 Z" />
</g>
<g id="#e2d1a8ff">
<path fill="#e2d1a8" opacity="1.00" d=" M 160.06 78.00 C 154.36 73.16 164.49 65.48 168.81 70.17 C 171.17 71.69 171.08 79.41 168.36 75.79 C 168.04 75.53 167.40 75.02 167.09 74.77 C 160.92 70.03 163.53 77.76 160.06 78.00 Z" />
</g>
<g id="#e6d29eff">
<path fill="#e6d29e" opacity="1.00" d=" M 140.75 74.17 C 133.83 72.78 142.86 67.66 146.43 71.88 C 145.93 73.08 145.07 73.90 143.87 74.35 C 143.09 74.30 141.53 74.21 140.75 74.17 Z" />
</g>
<g id="#c69347ff">
<path fill="#c69347" opacity="1.00" d=" M 146.43 71.88 C 149.38 72.43 152.54 73.22 153.67 76.37 C 155.51 79.52 151.14 80.53 149.92 82.79 C 149.72 83.03 149.32 83.51 149.12 83.75 C 148.75 81.15 146.26 80.92 144.12 80.76 C 146.41 78.69 148.77 74.50 143.87 74.35 C 145.07 73.90 145.93 73.08 146.43 71.88 Z" />
</g>
<g id="#633726ff">
<path fill="#633726" opacity="1.00" d=" M 140.75 74.17 C 141.53 74.21 143.09 74.30 143.87 74.35 C 148.77 74.50 146.41 78.69 144.12 80.76 C 146.26 80.92 148.75 81.15 149.12 83.75 C 148.61 84.18 147.58 85.03 147.07 85.45 C 145.69 86.90 144.25 86.88 143.03 85.27 C 142.77 84.97 142.25 84.36 141.99 84.05 C 142.96 80.61 141.99 77.37 140.75 74.17 Z" />
</g>
<g id="#97755bff">
<path fill="#97755b" opacity="1.00" d=" M 160.06 78.00 C 163.53 77.76 160.92 70.03 167.09 74.77 C 162.63 72.95 160.99 79.75 165.85 79.25 C 168.56 82.30 156.31 79.02 160.06 78.00 Z" />
</g>
<g id="#50251dff">
<path fill="#50251d" opacity="1.00" d=" M 165.85 79.25 C 160.99 79.75 162.63 72.95 167.09 74.77 C 167.40 75.02 168.04 75.53 168.36 75.79 C 168.22 77.28 167.44 78.90 165.85 79.25 Z" />
</g>
<g id="#202768ff">
<path fill="#202768" opacity="1.00" d=" M 62.88 80.08 C 70.24 73.29 80.46 77.07 87.73 82.26 C 86.34 86.47 90.15 90.06 94.76 88.26 C 93.70 85.69 92.87 83.00 92.52 80.24 C 95.86 77.44 100.24 78.19 103.99 80.07 C 111.26 84.40 119.73 84.18 127.69 86.21 C 128.71 90.13 131.03 93.51 132.89 97.06 C 117.72 93.88 101.48 90.44 87.07 98.45 C 85.34 96.61 82.29 93.47 86.88 93.62 C 88.76 88.64 80.05 90.41 82.73 84.29 C 78.48 79.98 68.99 76.22 64.98 83.23 C 65.96 89.73 71.12 94.24 76.22 97.89 C 71.53 97.02 67.41 94.09 63.44 91.55 C 63.98 88.16 58.97 82.49 62.88 80.08 Z" />
</g>
<g id="#3c3b7aff">
<path fill="#3c3b7a" opacity="1.00" d=" M 195.85 76.96 C 196.54 79.81 198.84 80.27 201.38 79.43 C 198.65 85.57 203.02 86.66 207.04 84.95 C 203.75 90.36 207.83 95.14 206.10 100.68 C 202.10 99.60 198.03 98.79 194.04 97.73 C 196.85 91.17 197.60 84.05 195.85 76.96 Z" />
</g>
<g id="#aad896ff">
<path fill="#aad896" opacity="1.00" d=" M 7.05 83.92 C 6.44 81.71 7.01 79.46 8.86 78.04 C 9.34 80.21 8.53 82.33 7.05 83.92 Z" />
</g>
<g id="#1f135dff">
<path fill="#1f135d" opacity="1.00" d=" M 52.56 84.66 C 56.91 83.18 57.73 75.71 63.34 79.35 L 62.88 80.08 C 58.97 82.49 63.98 88.16 63.44 91.55 C 67.41 94.09 71.53 97.02 76.22 97.89 C 77.76 98.92 79.22 100.06 80.59 101.29 C 77.33 102.64 73.94 103.75 71.92 106.84 L 71.36 107.26 C 71.86 101.22 60.57 99.80 60.38 106.36 C 59.79 111.67 53.52 111.76 50.35 108.64 C 45.40 106.76 48.48 97.61 41.11 99.79 C 37.67 99.44 36.37 93.80 38.85 91.94 C 38.91 93.62 38.97 95.31 39.17 96.98 C 46.03 101.07 45.27 92.37 41.87 90.49 C 45.22 88.45 46.73 92.59 49.00 94.24 C 51.12 93.53 51.00 91.82 50.15 90.11 C 50.96 88.30 51.41 86.30 52.56 84.66 M 52.23 99.13 C 48.70 101.85 51.10 108.24 55.80 106.93 C 59.79 103.95 57.42 97.32 52.23 99.13 Z" />
</g>
<g id="#302f72ff">
<path fill="#302f72" opacity="1.00" d=" M 64.98 83.23 C 68.99 76.22 78.48 79.98 82.73 84.29 C 80.05 90.41 88.76 88.64 86.88 93.62 C 82.29 93.47 85.34 96.61 87.07 98.45 C 84.96 99.52 82.82 100.52 80.59 101.29 C 79.22 100.06 77.76 98.92 76.22 97.89 C 71.12 94.24 65.96 89.73 64.98 83.23 Z" />
</g>
<g id="#170647ff">
<path fill="#170647" opacity="1.00" d=" M 34.79 87.88 C 38.71 86.74 42.29 85.12 41.67 79.87 C 43.78 83.84 45.89 88.12 50.15 90.11 C 51.00 91.82 51.12 93.53 49.00 94.24 C 46.73 92.59 45.22 88.45 41.87 90.49 C 40.83 90.90 39.82 91.38 38.85 91.94 C 36.37 93.80 37.67 99.44 41.11 99.79 C 48.48 97.61 45.40 106.76 50.35 108.64 C 53.52 111.76 59.79 111.67 60.38 106.36 C 60.57 99.80 71.86 101.22 71.36 107.26 C 59.19 116.51 42.95 120.27 34.26 133.97 C 29.74 132.98 28.84 137.74 27.01 140.71 C 19.13 141.60 31.31 135.45 27.42 131.63 C 25.45 126.78 21.54 129.52 23.73 133.81 C 18.51 136.21 9.71 135.21 12.03 144.04 C 11.18 149.00 5.92 144.34 6.03 140.87 C 4.18 132.90 4.98 124.44 5.10 116.27 C 8.91 115.62 12.86 112.25 12.67 108.19 C 19.14 103.13 26.54 99.35 33.92 95.78 C 34.08 93.20 32.27 89.75 34.79 87.88 Z" />
</g>
<g id="#e9d7a7ff">
<path fill="#e9d7a7" opacity="1.00" d=" M 149.92 82.79 C 159.68 81.88 169.72 80.45 179.36 80.58 C 186.82 83.91 180.33 92.37 175.06 94.04 C 169.59 95.97 167.80 103.14 161.76 103.56 C 157.04 102.97 152.29 102.33 147.72 100.94 C 150.59 97.01 157.82 95.24 156.01 89.06 C 155.56 84.85 147.85 89.24 147.07 85.45 C 147.58 85.03 148.61 84.18 149.12 83.75 C 149.32 83.51 149.72 83.03 149.92 82.79 Z" />
</g>
<g id="#9fd68aff">
<path fill="#9fd68a" opacity="1.00" d=" M 242.15 80.05 C 243.45 81.74 244.30 83.77 243.99 85.94 C 241.95 84.64 241.40 82.27 242.15 80.05 Z" />
</g>
<g id="#e2d1a3ff">
<path fill="#e2d1a3" opacity="1.00" d=" M 133.13 82.00 C 136.15 82.16 140.10 81.08 141.99 84.05 C 142.25 84.36 142.77 84.97 143.03 85.27 C 134.70 84.37 134.98 92.14 139.50 95.98 C 136.35 98.45 133.65 92.81 132.73 90.23 C 132.82 87.48 132.95 84.74 133.13 82.00 Z" />
</g>
<g id="#726366ff">
<path fill="#726366" opacity="1.00" d=" M 143.03 85.27 C 144.25 86.88 145.69 86.90 147.07 85.45 C 147.85 89.24 155.56 84.85 156.01 89.06 C 157.82 95.24 150.59 97.01 147.72 100.94 C 144.47 100.46 141.19 100.20 137.92 99.96 C 139.25 99.02 140.89 97.64 139.50 95.98 C 134.98 92.14 134.70 84.37 143.03 85.27 M 141.86 89.83 C 140.98 97.34 149.36 89.07 141.86 89.83 C 141.90 89.37 142.00 88.44 142.04 87.98 C 136.19 86.24 138.32 95.31 141.86 89.83 M 144.73 88.09 C 146.81 90.23 150.34 91.38 150.32 94.91 C 158.82 95.46 151.21 82.79 144.73 88.09 Z" />
</g>
<g id="#99d07dff">
<path fill="#99d07d" opacity="1.00" d=" M 243.99 85.94 C 245.42 86.76 245.41 88.53 244.99 89.93 C 243.54 89.12 243.55 87.33 243.99 85.94 Z" />
</g>
<g id="#5490cdff">
<path fill="#5490cd" opacity="1.00" d=" M 141.86 89.83 C 138.32 95.31 136.19 86.24 142.04 87.98 C 142.00 88.44 141.90 89.37 141.86 89.83 Z" />
</g>
<g id="#5a8dc6ff">
<path fill="#5a8dc6" opacity="1.00" d=" M 144.73 88.09 C 151.21 82.79 158.82 95.46 150.32 94.91 C 150.34 91.38 146.81 90.23 144.73 88.09 Z" />
</g>
<g id="#291757ff">
<path fill="#291757" opacity="1.00" d=" M 223.05 99.06 C 231.34 99.72 231.57 85.51 240.06 89.85 C 241.07 92.11 241.75 94.51 242.29 96.92 C 237.08 93.55 236.31 100.30 234.30 103.34 C 231.51 106.10 223.22 99.66 223.05 106.04 C 222.94 110.99 214.69 103.89 214.67 109.13 C 213.66 107.43 212.61 105.75 211.66 104.02 C 213.86 101.54 219.68 102.36 223.05 99.06 Z" />
</g>
<g id="#679fc8ff">
<path fill="#679fc8" opacity="1.00" d=" M 141.86 89.83 C 149.36 89.07 140.98 97.34 141.86 89.83 Z" />
</g>
<g id="#aed999ff">
<path fill="#aed999" opacity="1.00" d=" M 244.99 89.93 C 248.79 94.65 248.30 101.11 249.19 106.76 L 248.30 106.93 C 247.59 101.19 246.14 95.58 244.99 89.93 Z" />
</g>
<g id="#351698ff">
<path fill="#351698" opacity="1.00" d=" M 38.85 91.94 C 39.82 91.38 40.83 90.90 41.87 90.49 C 45.27 92.37 46.03 101.07 39.17 96.98 C 38.97 95.31 38.91 93.62 38.85 91.94 M 40.02 93.02 C 38.93 100.34 47.34 91.93 40.02 93.02 Z" />
</g>
<g id="#7750d1ff">
<path fill="#7750d1" opacity="1.00" d=" M 40.02 93.02 C 47.34 91.93 38.93 100.34 40.02 93.02 Z" />
</g>
<g id="#654947ff">
<path fill="#654947" opacity="1.00" d=" M 74.95 106.77 C 89.41 98.22 106.43 91.69 123.19 97.60 C 121.66 97.95 120.14 98.36 118.64 98.82 L 117.71 99.03 C 103.30 94.76 90.09 102.28 77.46 108.12 C 76.83 107.78 75.57 107.11 74.95 106.77 Z" />
</g>
<g id="#285f26ff">
<path fill="#285f26" opacity="1.00" d=" M 6.23 107.25 C 7.58 104.89 4.69 96.70 8.22 96.10 C 7.78 99.85 7.21 103.59 6.23 107.25 Z" />
</g>
<g id="#23063eff">
<path fill="#23063e" opacity="1.00" d=" M 234.30 103.34 C 236.31 100.30 237.08 93.55 242.29 96.92 C 240.24 101.43 240.31 103.83 243.87 107.21 C 245.76 118.86 245.72 131.11 243.81 142.76 C 242.97 146.71 242.29 150.69 241.64 154.68 C 239.48 163.04 236.80 172.14 232.03 179.15 C 229.75 177.52 224.95 176.91 226.05 173.16 C 227.05 171.16 229.20 169.63 229.07 167.20 C 219.03 168.89 213.91 158.30 211.70 150.24 C 207.38 150.25 203.07 151.03 198.77 150.30 C 202.82 148.32 208.17 149.79 211.88 146.83 C 214.19 142.89 215.87 138.58 217.16 134.20 C 218.14 128.50 218.81 122.38 217.33 116.70 C 217.04 115.71 216.73 114.72 216.39 113.75 C 215.88 112.19 215.28 110.65 214.67 109.13 C 214.69 103.89 222.94 110.99 223.05 106.04 C 223.22 99.66 231.51 106.10 234.30 103.34 Z" />
</g>
<g id="#a6d791ff">
<path fill="#a6d791" opacity="1.00" d=" M 1.08 109.18 C 1.27 105.02 1.29 100.82 3.03 96.93 C 2.65 101.05 2.03 105.15 1.08 109.18 Z" />
</g>
<g id="#532d20ff">
<path fill="#532d20" opacity="1.00" d=" M 171.96 103.13 C 177.97 102.69 184.54 101.50 188.88 96.91 C 189.62 97.56 190.38 98.19 191.15 98.80 L 191.87 99.35 C 188.29 100.77 184.07 102.39 182.21 105.95 C 178.80 102.15 172.34 107.03 167.98 106.72 C 166.45 107.08 165.74 108.68 164.96 109.88 C 163.44 110.79 161.93 111.73 160.59 112.91 C 159.03 115.07 159.02 117.12 160.59 119.07 C 161.63 120.67 162.81 122.23 164.58 123.07 C 165.36 123.67 166.14 124.29 166.90 124.92 C 167.23 125.26 167.89 125.94 168.22 126.27 C 167.60 126.54 166.37 127.07 165.76 127.33 C 158.24 123.75 151.22 127.37 145.03 131.56 C 138.38 135.34 131.40 138.55 124.99 142.76 C 122.12 144.43 119.14 145.91 116.18 147.41 C 115.52 147.06 114.20 146.37 113.54 146.02 C 123.95 139.70 134.94 134.40 145.64 128.62 C 150.16 124.41 141.26 127.14 138.29 127.34 C 131.46 127.41 124.42 125.98 117.70 127.69 C 100.95 125.56 82.87 126.59 67.59 118.45 C 56.87 118.28 50.35 130.71 45.86 139.18 C 45.38 139.10 44.41 138.94 43.92 138.86 C 44.75 132.91 50.11 129.26 52.12 123.90 C 48.30 124.89 45.39 128.02 42.79 130.79 C 41.61 133.35 43.27 137.79 40.32 139.38 C 40.07 139.04 39.56 138.36 39.31 138.02 C 34.53 134.33 40.78 130.23 43.22 127.22 C 51.57 118.26 64.74 117.02 73.05 108.20 C 73.53 107.84 74.47 107.13 74.95 106.77 C 75.57 107.11 76.83 107.78 77.46 108.12 C 76.58 108.72 75.71 109.32 74.83 109.93 C 72.49 111.15 75.28 112.95 76.86 112.09 C 81.07 112.03 86.03 115.20 90.12 113.15 C 91.73 112.30 93.28 111.34 94.95 110.60 C 95.82 111.17 96.57 111.86 97.22 112.67 C 96.30 113.44 93.78 113.36 94.06 114.96 C 98.52 120.16 110.34 114.23 114.34 120.54 C 116.13 117.07 119.32 118.18 121.11 121.10 C 122.46 122.74 123.65 125.14 126.11 125.09 C 125.83 123.01 124.27 121.52 122.99 120.00 C 125.24 119.30 127.53 118.61 129.80 117.95 C 136.75 120.74 134.72 111.86 139.94 110.88 C 132.94 119.30 148.71 123.54 152.04 115.37 C 148.61 115.71 148.45 112.79 149.98 110.46 C 152.11 111.47 154.04 112.85 156.10 113.99 C 158.52 112.65 160.04 110.21 161.39 107.88 C 164.53 103.67 155.30 106.93 152.94 105.92 C 150.65 105.21 148.46 104.21 146.13 103.68 C 144.64 103.41 141.67 102.88 140.18 102.61 C 133.00 101.34 125.80 100.19 118.64 98.82 C 120.14 98.36 121.66 97.95 123.19 97.60 C 126.72 98.16 130.22 98.83 133.75 99.43 C 135.13 99.68 136.52 99.88 137.92 99.96 C 141.19 100.20 144.47 100.46 147.72 100.94 C 152.29 102.33 157.04 102.97 161.76 103.56 C 165.15 104.29 168.59 103.74 171.96 103.13 M 151.21 118.13 C 149.55 119.14 149.38 121.98 151.99 121.03 C 155.47 122.10 154.44 116.04 151.21 118.13 Z" />
</g>
<g id="#3e5649ff">
<path fill="#3e5649" opacity="1.00" d=" M 242.29 96.92 C 244.51 98.92 243.60 104.04 243.87 107.21 C 240.31 103.83 240.24 101.43 242.29 96.92 Z" />
</g>
<g id="#e7edefff">
<path fill="#e7edef" opacity="1.00" d=" M 77.46 108.12 C 90.09 102.28 103.30 94.76 117.71 99.03 C 121.97 100.33 120.39 101.05 116.92 101.93 C 114.53 103.02 112.16 104.14 109.70 105.08 C 109.26 105.24 108.38 105.56 107.94 105.72 C 103.50 107.03 99.24 108.87 94.95 110.60 C 93.28 111.34 91.73 112.30 90.12 113.15 C 85.70 112.77 81.29 112.26 76.86 112.09 C 76.30 111.26 75.63 110.54 74.83 109.93 C 75.71 109.32 76.58 108.72 77.46 108.12 Z" />
</g>
<g id="#3e17a7ff">
<path fill="#3e17a7" opacity="1.00" d=" M 52.23 99.13 C 57.42 97.32 59.79 103.95 55.80 106.93 C 51.10 108.24 48.70 101.85 52.23 99.13 M 53.23 101.13 C 51.51 102.04 51.11 106.23 53.95 104.96 C 57.09 105.11 56.12 99.94 53.23 101.13 Z" />
</g>
<g id="#9b8d8cff">
<path fill="#9b8d8c" opacity="1.00" d=" M 117.71 99.03 L 118.64 98.82 C 125.80 100.19 133.00 101.34 140.18 102.61 C 138.33 102.80 136.55 103.35 135.20 104.67 C 129.36 102.59 123.05 102.38 116.92 101.93 C 120.39 101.05 121.97 100.33 117.71 99.03 Z" />
</g>
<g id="#554b1fff">
<path fill="#554b1f" opacity="1.00" d=" M 191.87 99.35 C 199.42 101.52 210.57 101.54 212.98 110.91 C 212.34 111.86 211.75 112.85 210.99 113.71 C 210.91 112.85 210.74 112.02 210.48 111.20 C 209.53 107.83 206.28 105.84 203.22 104.62 C 199.15 103.20 195.12 101.42 190.80 100.95 C 193.14 104.23 197.56 104.52 201.11 105.69 C 202.04 112.35 195.43 106.42 192.19 106.02 C 191.00 108.88 185.14 113.91 189.75 116.32 C 193.08 117.91 196.99 121.07 193.73 124.70 C 189.54 128.74 181.26 124.26 178.62 130.72 C 174.30 130.26 169.78 129.20 165.76 127.33 C 166.37 127.07 167.60 126.54 168.22 126.27 C 170.74 127.91 169.24 123.28 171.60 124.23 C 171.89 128.61 176.25 127.02 175.45 123.21 C 175.87 121.51 176.33 119.83 176.88 118.17 C 178.31 114.62 181.65 114.97 184.79 115.68 C 187.01 113.04 183.53 108.74 182.21 105.95 C 184.07 102.39 188.29 100.77 191.87 99.35 M 188.21 103.34 C 185.89 109.65 193.46 104.86 188.21 103.34 M 178.95 119.88 C 179.85 124.09 189.90 125.95 192.17 122.09 C 191.41 118.09 179.53 114.32 178.95 119.88 Z" />
</g>
<g id="#9967d9ff">
<path fill="#9967d9" opacity="1.00" d=" M 53.23 101.13 C 56.12 99.94 57.09 105.11 53.95 104.96 C 51.11 106.23 51.51 102.04 53.23 101.13 Z" />
</g>
<g id="#82912aff">
<path fill="#82912a" opacity="1.00" d=" M 190.80 100.95 C 195.12 101.42 199.15 103.20 203.22 104.62 C 202.69 104.89 201.64 105.42 201.11 105.69 C 197.56 104.52 193.14 104.23 190.80 100.95 Z" />
</g>
<g id="#605862ff">
<path fill="#605862" opacity="1.00" d=" M 109.70 105.08 C 112.16 104.14 114.53 103.02 116.92 101.93 C 123.05 102.38 129.36 102.59 135.20 104.67 C 134.93 105.01 134.38 105.69 134.11 106.03 C 129.57 106.17 124.98 107.37 120.44 106.80 C 120.50 102.64 116.01 104.64 113.92 106.06 C 113.62 106.27 113.04 106.68 112.75 106.88 C 111.32 106.94 109.86 106.83 109.70 105.08 Z" />
</g>
<g id="#dfca98ff">
<path fill="#dfca98" opacity="1.00" d=" M 135.20 104.67 C 136.55 103.35 138.33 102.80 140.18 102.61 C 141.67 102.88 144.64 103.41 146.13 103.68 C 145.50 105.30 145.15 107.01 145.00 108.74 L 144.26 109.07 C 144.34 102.74 136.65 109.01 132.89 108.88 C 133.29 107.93 133.69 106.98 134.11 106.03 C 134.38 105.69 134.93 105.01 135.20 104.67 Z" />
</g>
<g id="#6cac34ff">
<path fill="#6cac34" opacity="1.00" d=" M 188.21 103.34 C 193.46 104.86 185.89 109.65 188.21 103.34 Z" />
</g>
<g id="#969098ff">
<path fill="#969098" opacity="1.00" d=" M 113.92 106.06 C 116.01 104.64 120.50 102.64 120.44 106.80 C 124.98 107.37 129.57 106.17 134.11 106.03 C 133.69 106.98 133.29 107.93 132.89 108.88 L 132.11 109.10 C 127.57 109.72 116.68 115.48 122.99 120.00 C 122.52 120.28 121.58 120.83 121.11 121.10 C 119.32 118.18 116.13 117.07 114.34 120.54 C 110.34 114.23 98.52 120.16 94.06 114.96 C 93.78 113.36 96.30 113.44 97.22 112.67 C 100.95 110.83 107.43 110.81 107.94 105.72 C 108.38 105.56 109.26 105.24 109.70 105.08 C 109.86 106.83 111.32 106.94 112.75 106.88 C 109.37 110.05 101.88 110.55 101.94 115.84 C 109.68 116.82 119.49 118.01 124.27 110.00 C 121.79 107.04 116.40 109.42 113.92 106.06 Z" />
</g>
<g id="#e2e6e5ff">
<path fill="#e2e6e5" opacity="1.00" d=" M 146.13 103.68 C 148.46 104.21 150.65 105.21 152.94 105.92 C 155.73 106.61 158.63 107.01 161.39 107.88 C 160.04 110.21 158.52 112.65 156.10 113.99 C 154.04 112.85 152.11 111.47 149.98 110.46 C 148.41 109.64 146.71 109.16 145.00 108.74 C 145.15 107.01 145.50 105.30 146.13 103.68 Z" />
</g>
<g id="#c49249ff">
<path fill="#c49249" opacity="1.00" d=" M 167.98 106.72 C 172.34 107.03 178.80 102.15 182.21 105.95 C 183.53 108.74 187.01 113.04 184.79 115.68 C 181.65 114.97 178.31 114.62 176.88 118.17 C 175.91 115.54 173.27 110.76 171.99 115.86 C 172.22 112.51 171.47 108.13 167.98 106.72 Z" />
</g>
<g id="#97de2eff">
<path fill="#97de2e" opacity="1.00" d=" M 201.11 105.69 C 201.64 105.42 202.69 104.89 203.22 104.62 C 206.28 105.84 209.53 107.83 210.48 111.20 C 204.25 107.50 204.15 117.42 198.91 118.08 C 198.68 113.66 204.63 109.63 201.11 105.69 Z" />
</g>
<g id="#69575aff">
<path fill="#69575a" opacity="1.00" d=" M 94.95 110.60 C 99.24 108.87 103.50 107.03 107.94 105.72 C 107.43 110.81 100.95 110.83 97.22 112.67 C 96.57 111.86 95.82 111.17 94.95 110.60 Z" />
</g>
<g id="#dddde1ff">
<path fill="#dddde1" opacity="1.00" d=" M 112.75 106.88 C 113.04 106.68 113.62 106.27 113.92 106.06 C 116.40 109.42 121.79 107.04 124.27 110.00 C 119.49 118.01 109.68 116.82 101.94 115.84 C 101.88 110.55 109.37 110.05 112.75 106.88 Z" />
</g>
<g id="#be8c47ff">
<path fill="#be8c47" opacity="1.00" d=" M 132.89 108.88 C 136.65 109.01 144.34 102.74 144.26 109.07 C 142.84 109.73 141.38 110.29 139.94 110.88 C 134.72 111.86 136.75 120.74 129.80 117.95 C 130.27 114.93 131.30 112.04 132.11 109.10 L 132.89 108.88 Z" />
</g>
<g id="#b1a4a3ff">
<path fill="#b1a4a3" opacity="1.00" d=" M 152.94 105.92 C 155.30 106.93 164.53 103.67 161.39 107.88 C 158.63 107.01 155.73 106.61 152.94 105.92 Z" />
</g>
<g id="#6ec833ff">
<path fill="#6ec833" opacity="1.00" d=" M 192.19 106.02 C 195.43 106.42 202.04 112.35 201.11 105.69 C 204.63 109.63 198.68 113.66 198.91 118.08 C 204.15 117.42 204.25 107.50 210.48 111.20 C 210.74 112.02 210.91 112.85 210.99 113.71 C 208.31 115.90 206.86 119.04 205.85 122.28 C 205.78 119.80 205.83 117.35 205.73 114.88 C 201.70 116.64 202.31 122.59 199.84 125.90 C 194.58 131.55 191.51 138.72 186.76 144.72 C 182.71 147.98 178.17 150.71 175.23 155.11 C 174.75 153.34 175.91 149.98 173.21 149.92 L 172.83 149.34 C 181.58 146.52 170.90 129.89 163.93 136.75 C 162.60 137.76 161.38 138.90 160.15 140.02 C 155.49 144.65 150.35 151.03 151.53 157.95 C 145.15 165.66 151.13 179.33 140.63 184.64 C 138.17 187.29 137.16 184.11 135.97 182.11 C 132.69 177.17 128.94 172.11 123.24 169.81 C 100.11 166.00 75.78 171.94 53.16 164.78 C 44.36 161.64 34.15 155.50 32.65 145.53 C 33.96 145.02 34.90 146.12 35.93 146.73 C 39.63 145.02 42.76 145.20 45.10 148.90 C 59.22 161.68 81.62 163.62 99.33 158.80 C 100.46 159.26 101.26 160.24 102.18 160.99 C 102.87 161.75 103.73 162.17 104.76 162.25 C 110.85 161.61 116.51 167.24 121.31 161.52 C 127.22 162.78 129.96 171.41 136.07 173.10 C 136.75 167.45 127.50 166.13 129.07 160.22 C 134.52 155.68 144.55 160.33 148.98 157.04 C 145.04 154.31 136.60 157.18 131.97 153.00 L 131.79 152.29 C 134.42 150.41 137.36 148.75 139.21 146.01 C 138.08 142.43 134.53 145.37 132.12 145.77 C 132.16 143.14 129.34 144.94 127.81 144.80 C 131.35 138.68 143.49 137.98 145.03 131.56 C 151.22 127.37 158.24 123.75 165.76 127.33 C 169.78 129.20 174.30 130.26 178.62 130.72 C 181.26 124.26 189.54 128.74 193.73 124.70 C 196.99 121.07 193.08 117.91 189.75 116.32 C 185.14 113.91 191.00 108.88 192.19 106.02 Z" />
</g>
<g id="#958b91ff">
<path fill="#958b91" opacity="1.00" d=" M 71.36 107.26 L 71.92 106.84 C 72.20 107.18 72.77 107.86 73.05 108.20 C 64.74 117.02 51.57 118.26 43.22 127.22 C 40.78 130.23 34.53 134.33 39.31 138.02 C 36.54 138.39 34.47 137.42 33.80 134.60 L 34.26 133.97 C 42.95 120.27 59.19 116.51 71.36 107.26 Z" />
</g>
<g id="#ad988eff">
<path fill="#ad988e" opacity="1.00" d=" M 164.96 109.88 C 165.74 108.68 166.45 107.08 167.98 106.72 C 168.53 108.66 166.87 110.27 164.96 109.88 Z" />
</g>
<g id="#f0edeaff">
<path fill="#f0edea" opacity="1.00" d=" M 167.98 106.72 C 171.47 108.13 172.22 112.51 171.99 115.86 C 169.14 117.83 166.10 119.81 164.58 123.07 C 162.81 122.23 161.63 120.67 160.59 119.07 C 161.44 117.10 161.49 114.87 160.59 112.91 C 161.93 111.73 163.44 110.79 164.96 109.88 C 166.87 110.27 168.53 108.66 167.98 106.72 Z" />
</g>
<g id="#9fcf83ff">
<path fill="#9fcf83" opacity="1.00" d=" M 248.30 106.93 L 249.19 106.76 L 250.00 107.28 L 250.00 113.09 C 248.54 111.16 247.98 109.11 248.30 106.93 Z" />
</g>
<g id="#5d4f52ff">
<path fill="#5d4f52" opacity="1.00" d=" M 122.99 120.00 C 116.68 115.48 127.57 109.72 132.11 109.10 C 131.30 112.04 130.27 114.93 129.80 117.95 C 127.53 118.61 125.24 119.30 122.99 120.00 Z" />
</g>
<g id="#9e9292ff">
<path fill="#9e9292" opacity="1.00" d=" M 144.26 109.07 L 145.00 108.74 C 146.71 109.16 148.41 109.64 149.98 110.46 C 148.45 112.79 148.61 115.71 152.04 115.37 C 148.71 123.54 132.94 119.30 139.94 110.88 C 141.38 110.29 142.84 109.73 144.26 109.07 Z" />
</g>
<g id="#95c876ff">
<path fill="#95c876" opacity="1.00" d=" M 0.00 110.24 L 0.94 110.10 C 0.70 111.61 0.23 114.65 0.00 116.16 L 0.00 110.24 Z" />
</g>
<g id="#9d8783ff">
<path fill="#9d8783" opacity="1.00" d=" M 76.86 112.09 C 75.28 112.95 72.49 111.15 74.83 109.93 C 75.63 110.54 76.30 111.26 76.86 112.09 Z" />
</g>
<g id="#4d2518ff">
<path fill="#4d2518" opacity="1.00" d=" M 210.99 113.71 C 211.75 112.85 212.34 111.86 212.98 110.91 C 214.00 113.26 214.80 115.72 215.46 118.20 C 215.49 118.62 215.57 119.44 215.61 119.86 C 214.59 123.29 213.98 120.85 213.19 118.78 C 205.20 122.37 208.96 136.61 208.52 143.64 C 210.21 148.76 202.13 144.35 199.73 146.78 C 189.86 155.21 179.24 162.84 169.85 171.78 C 167.18 177.92 164.70 184.21 160.08 189.22 C 154.65 189.28 149.08 188.39 143.76 189.90 C 136.27 193.31 128.40 195.97 120.25 197.26 C 113.42 197.07 106.58 196.88 99.75 197.23 C 77.12 190.15 51.52 190.90 31.68 176.31 C 22.41 168.13 31.46 156.09 29.94 145.83 C 30.60 145.73 31.27 145.65 31.95 145.60 C 29.17 151.42 35.32 156.37 37.74 161.30 C 62.66 179.58 95.05 168.41 123.24 169.81 C 128.94 172.11 132.69 177.17 135.97 182.11 C 137.53 187.53 130.73 188.61 126.84 188.30 C 123.12 187.60 119.55 186.26 116.12 184.68 C 116.70 180.17 120.38 176.51 121.04 171.88 C 115.35 173.07 115.77 181.24 111.23 184.33 C 98.80 184.26 86.09 183.27 74.46 178.55 C 72.38 176.71 71.14 173.44 67.39 174.61 C 56.90 173.70 47.15 169.81 37.93 164.98 C 36.65 163.91 35.42 162.78 34.16 161.69 C 28.31 155.79 26.68 170.62 31.81 173.02 C 35.35 175.68 38.70 171.64 41.50 169.81 C 51.29 174.98 62.63 175.37 72.75 179.27 C 77.29 181.18 81.07 192.60 86.23 188.33 C 96.53 188.93 108.80 184.50 117.31 192.42 C 108.71 196.12 97.45 190.73 87.77 191.11 C 107.48 200.22 132.66 195.80 149.81 182.82 C 153.89 179.89 149.95 174.04 151.12 170.04 C 152.36 159.61 154.85 149.18 160.15 140.02 C 161.38 138.90 162.60 137.76 163.93 136.75 C 169.62 136.06 172.51 142.37 171.45 147.19 C 169.29 141.97 163.38 140.66 160.54 146.10 C 157.87 149.87 160.50 155.44 156.94 158.90 C 154.15 161.82 158.98 159.99 160.66 161.02 C 160.12 162.40 159.60 163.79 159.01 165.15 C 157.02 164.58 153.61 162.95 155.88 166.19 C 156.85 171.50 154.69 177.54 157.24 183.03 C 159.38 181.83 161.47 181.96 163.66 182.91 C 165.41 178.43 166.95 173.54 164.10 168.99 C 163.35 164.79 166.99 170.47 169.11 170.08 C 168.67 167.20 165.74 165.69 164.20 163.43 C 165.80 162.36 172.11 161.02 168.78 158.97 C 167.09 157.99 170.32 157.29 171.04 156.97 C 167.71 167.87 174.92 163.16 178.77 158.77 C 185.55 152.83 190.11 144.91 194.31 137.05 C 198.37 135.18 200.72 138.73 203.75 140.27 C 203.59 134.18 204.93 128.25 205.85 122.28 C 206.86 119.04 208.31 115.90 210.99 113.71 M 195.18 144.14 C 192.78 146.53 190.70 149.22 188.96 152.12 C 191.94 151.39 202.23 143.65 195.18 144.14 Z" />
</g>
<g id="#8f7d80ff">
<path fill="#8f7d80" opacity="1.00" d=" M 76.86 112.09 C 81.29 112.26 85.70 112.77 90.12 113.15 C 86.03 115.20 81.07 112.03 76.86 112.09 Z" />
</g>
<g id="#95807fff">
<path fill="#95807f" opacity="1.00" d=" M 160.59 119.07 C 159.02 117.12 159.03 115.07 160.59 112.91 C 161.49 114.87 161.44 117.10 160.59 119.07 Z" />
</g>
<g id="#795c4eff">
<path fill="#795c4e" opacity="1.00" d=" M 171.99 115.86 C 173.27 110.76 175.91 115.54 176.88 118.17 C 176.33 119.83 175.87 121.51 175.45 123.21 L 175.22 122.29 C 175.32 118.85 172.00 118.13 169.65 120.06 C 167.93 121.10 167.53 123.18 166.90 124.92 C 166.14 124.29 165.36 123.67 164.58 123.07 C 166.10 119.81 169.14 117.83 171.99 115.86 Z" />
</g>
<g id="#9a8990ff">
<path fill="#9a8990" opacity="1.00" d=" M 216.39 113.75 C 216.73 114.72 217.04 115.71 217.33 116.70 C 217.14 122.53 217.11 128.37 217.16 134.20 C 215.87 138.58 214.19 142.89 211.88 146.83 C 208.17 149.79 202.82 148.32 198.77 150.30 C 191.97 155.74 185.41 161.56 178.59 167.01 C 171.14 170.91 169.47 179.07 165.92 185.94 C 165.66 186.17 165.14 186.62 164.88 186.84 C 164.44 187.16 163.56 187.79 163.12 188.10 C 162.11 188.49 161.10 188.86 160.08 189.22 C 164.70 184.21 167.18 177.92 169.85 171.78 C 179.24 162.84 189.86 155.21 199.73 146.78 C 202.13 144.35 210.21 148.76 208.52 143.64 C 208.96 136.61 205.20 122.37 213.19 118.78 C 212.19 124.05 205.36 135.25 214.97 134.71 C 215.25 129.78 216.37 124.80 215.61 119.86 C 215.57 119.44 215.49 118.62 215.46 118.20 C 215.77 116.72 216.09 115.24 216.39 113.75 Z" />
</g>
<g id="#4d961cff">
<path fill="#4d961c" opacity="1.00" d=" M 199.84 125.90 C 202.31 122.59 201.70 116.64 205.73 114.88 C 205.83 117.35 205.78 119.80 205.85 122.28 C 204.93 128.25 203.59 134.18 203.75 140.27 C 200.72 138.73 198.37 135.18 194.31 137.05 C 190.11 144.91 185.55 152.83 178.77 158.77 C 174.92 163.16 167.71 167.87 171.04 156.97 C 172.45 156.45 174.21 156.33 175.23 155.11 C 178.17 150.71 182.71 147.98 186.76 144.72 C 191.51 138.72 194.58 131.55 199.84 125.90 Z" />
</g>
<g id="#83cc2fff">
<path fill="#83cc2f" opacity="1.00" d=" M 178.95 119.88 C 179.53 114.32 191.41 118.09 192.17 122.09 C 187.58 122.57 183.17 121.49 178.95 119.88 Z" />
</g>
<g id="#59566fff">
<path fill="#59566f" opacity="1.00" d=" M 217.33 116.70 C 218.81 122.38 218.14 128.50 217.16 134.20 C 217.11 128.37 217.14 122.53 217.33 116.70 Z" />
</g>
<g id="#9dd531ff">
<path fill="#9dd531" opacity="1.00" d=" M 45.86 139.18 C 50.35 130.71 56.87 118.28 67.59 118.45 C 82.87 126.59 100.95 125.56 117.70 127.69 C 124.52 127.69 131.55 128.93 138.29 127.34 C 141.26 127.14 150.16 124.41 145.64 128.62 C 134.94 134.40 123.95 139.70 113.54 146.02 L 112.85 146.32 C 112.45 145.32 112.07 144.32 111.69 143.32 C 115.51 139.41 127.88 137.54 124.32 130.72 C 104.83 128.17 83.26 129.62 65.16 120.27 C 58.38 125.20 51.90 131.80 48.95 139.69 C 54.21 138.88 53.54 143.50 48.84 143.40 C 48.14 143.26 46.74 142.99 46.05 142.86 C 45.98 141.63 45.92 140.40 45.86 139.18 Z" />
</g>
<g id="#a69694ff">
<path fill="#a69694" opacity="1.00" d=" M 151.21 118.13 C 154.44 116.04 155.47 122.10 151.99 121.03 C 149.38 121.98 149.55 119.14 151.21 118.13 Z" />
</g>
<g id="#ddd6d4ff">
<path fill="#ddd6d4" opacity="1.00" d=" M 169.65 120.06 C 172.00 118.13 175.32 118.85 175.22 122.29 C 172.98 123.28 170.48 122.51 169.65 120.06 Z" />
</g>
<g id="#7b5f5bff">
<path fill="#7b5f5b" opacity="1.00" d=" M 213.19 118.78 C 213.98 120.85 214.59 123.29 215.61 119.86 C 216.37 124.80 215.25 129.78 214.97 134.71 C 205.36 135.25 212.19 124.05 213.19 118.78 Z" />
</g>
<g id="#6fcb34ff">
<path fill="#6fcb34" opacity="1.00" d=" M 65.16 120.27 C 83.26 129.62 104.83 128.17 124.32 130.72 C 127.88 137.54 115.51 139.41 111.69 143.32 C 108.43 140.84 105.67 137.60 101.85 135.93 C 100.67 140.68 110.87 143.06 106.70 146.74 C 97.69 156.92 83.74 145.30 73.70 150.94 C 64.75 151.07 56.92 146.51 48.84 143.40 C 53.54 143.50 54.21 138.88 48.95 139.69 C 51.90 131.80 58.38 125.20 65.16 120.27 Z" />
</g>
<g id="#775852ff">
<path fill="#775852" opacity="1.00" d=" M 122.99 120.00 C 124.27 121.52 125.83 123.01 126.11 125.09 C 123.65 125.14 122.46 122.74 121.11 121.10 C 121.58 120.83 122.52 120.28 122.99 120.00 Z" />
</g>
<g id="#af9e9cff">
<path fill="#af9e9c" opacity="1.00" d=" M 166.90 124.92 C 167.53 123.18 167.93 121.10 169.65 120.06 C 170.48 122.51 172.98 123.28 175.22 122.29 L 175.45 123.21 C 176.25 127.02 171.89 128.61 171.60 124.23 C 169.24 123.28 170.74 127.91 168.22 126.27 C 167.89 125.94 167.23 125.26 166.90 124.92 Z" />
</g>
<g id="#519c1eff">
<path fill="#519c1e" opacity="1.00" d=" M 178.95 119.88 C 183.17 121.49 187.58 122.57 192.17 122.09 C 189.90 125.95 179.85 124.09 178.95 119.88 Z" />
</g>
<g id="#7db131ff">
<path fill="#7db131" opacity="1.00" d=" M 42.79 130.79 C 45.39 128.02 48.30 124.89 52.12 123.90 C 50.11 129.26 44.75 132.91 43.92 138.86 C 40.82 138.51 43.61 133.03 42.79 130.79 Z" />
</g>
<g id="#7d8325ff">
<path fill="#7d8325" opacity="1.00" d=" M 117.70 127.69 C 124.42 125.98 131.46 127.41 138.29 127.34 C 131.55 128.93 124.52 127.69 117.70 127.69 Z" />
</g>
<g id="#150735ff">
<path fill="#150735" opacity="1.00" d=" M 23.73 133.81 C 21.54 129.52 25.45 126.78 27.42 131.63 C 31.31 135.45 19.13 141.60 27.01 140.71 C 27.46 141.82 27.86 142.95 28.22 144.09 C 26.34 147.29 25.72 150.67 27.65 154.02 C 26.08 160.33 22.37 166.95 26.31 173.09 C 23.18 174.45 19.77 175.14 16.89 177.04 C 10.35 166.49 7.27 153.30 6.03 140.87 C 5.92 144.34 11.18 149.00 12.03 144.04 C 9.71 135.21 18.51 136.21 23.73 133.81 M 16.16 151.19 C 11.88 155.66 21.91 153.30 16.16 151.19 Z" />
</g>
<g id="#767448ff">
<path fill="#767448" opacity="1.00" d=" M 40.32 139.38 C 43.27 137.79 41.61 133.35 42.79 130.79 C 43.61 133.03 40.82 138.51 43.92 138.86 C 44.41 138.94 45.38 139.10 45.86 139.18 C 45.92 140.40 45.98 141.63 46.05 142.86 L 45.10 142.69 C 43.44 142.26 41.74 141.99 40.04 141.74 C 40.11 141.15 40.25 139.97 40.32 139.38 Z" />
</g>
<g id="#9cc84bff">
<path fill="#9cc84b" opacity="1.00" d=" M 124.99 142.76 C 131.40 138.55 138.38 135.34 145.03 131.56 C 143.49 137.98 131.35 138.68 127.81 144.80 C 129.34 144.94 132.16 143.14 132.12 145.77 C 130.42 146.34 128.66 146.73 126.89 146.99 L 126.11 147.10 C 126.21 145.52 127.74 142.55 124.99 142.76 Z" />
</g>
<g id="#8fc66fff">
<path fill="#8fc66f" opacity="1.00" d=" M 0.00 133.84 C 0.23 135.35 0.70 138.39 0.93 139.91 L 0.00 139.76 L 0.00 133.84 Z" />
</g>
<g id="#4c4369ff">
<path fill="#4c4369" opacity="1.00" d=" M 27.01 140.71 C 28.84 137.74 29.74 132.98 34.26 133.97 L 33.80 134.60 C 32.49 136.08 31.12 137.50 29.97 139.11 C 29.53 140.35 28.66 142.84 28.22 144.09 C 27.86 142.95 27.46 141.82 27.01 140.71 Z" />
</g>
<g id="#d7d3d4ff">
<path fill="#d7d3d4" opacity="1.00" d=" M 29.97 139.11 C 31.12 137.50 32.49 136.08 33.80 134.60 C 34.47 137.42 36.54 138.39 39.31 138.02 C 39.44 142.61 33.21 141.35 30.53 143.10 C 30.30 141.77 30.11 140.44 29.97 139.11 Z" />
</g>
<g id="#589926ff">
<path fill="#589926" opacity="1.00" d=" M 163.93 136.75 C 170.90 129.89 181.58 146.52 172.83 149.34 C 172.34 148.64 171.88 147.92 171.45 147.19 C 172.51 142.37 169.62 136.06 163.93 136.75 Z" />
</g>
<g id="#8dd24eff">
<path fill="#8dd24e" opacity="1.00" d=" M 101.85 135.93 C 105.67 137.60 108.43 140.84 111.69 143.32 C 112.07 144.32 112.45 145.32 112.85 146.32 C 107.54 148.63 102.65 151.77 97.71 154.77 C 97.11 154.87 95.91 155.06 95.31 155.16 C 88.64 151.83 80.75 153.17 73.70 150.94 C 83.74 145.30 97.69 156.92 106.70 146.74 C 110.87 143.06 100.67 140.68 101.85 135.93 Z" />
</g>
<g id="#90c770ff">
<path fill="#90c770" opacity="1.00" d=" M 249.06 141.91 C 249.30 140.39 249.77 137.35 250.00 135.83 L 250.00 141.76 L 249.06 141.91 Z" />
<path fill="#90c770" opacity="1.00" d=" M 108.09 249.06 C 109.61 249.29 112.64 249.76 114.16 250.00 L 108.24 250.00 L 108.09 249.06 Z" />
</g>
<g id="#ae9f98ff">
<path fill="#ae9f98" opacity="1.00" d=" M 39.31 138.02 C 39.56 138.36 40.07 139.04 40.32 139.38 C 40.25 139.97 40.11 141.15 40.04 141.74 C 36.96 142.78 33.81 144.20 30.53 143.10 C 33.21 141.35 39.44 142.61 39.31 138.02 Z" />
</g>
<g id="#9f8998ff">
<path fill="#9f8998" opacity="1.00" d=" M 28.22 144.09 C 28.66 142.84 29.53 140.35 29.97 139.11 C 30.11 140.44 30.30 141.77 30.53 143.10 C 30.32 144.01 30.12 144.92 29.94 145.83 C 31.46 156.09 22.41 168.13 31.68 176.31 C 51.52 190.90 77.12 190.15 99.75 197.23 C 106.51 198.41 113.48 198.35 120.25 197.26 C 128.40 195.97 136.27 193.31 143.76 189.90 C 144.25 189.95 145.23 190.07 145.72 190.13 C 149.18 190.65 152.69 190.96 156.18 191.21 C 155.81 191.42 155.06 191.84 154.69 192.05 C 154.23 192.05 153.31 192.05 152.85 192.05 C 152.09 192.05 150.55 192.04 149.79 192.04 C 144.03 190.89 139.48 194.69 134.38 196.44 C 122.97 200.30 110.75 200.53 98.86 199.61 C 97.41 199.45 94.51 199.11 93.06 198.95 C 90.49 197.66 87.87 196.40 85.04 195.78 C 84.10 195.50 83.16 195.25 82.21 195.02 C 77.54 193.89 72.63 194.48 67.97 193.10 C 53.36 188.95 36.20 185.62 26.31 173.09 C 22.37 166.95 26.08 160.33 27.65 154.02 C 25.72 150.67 26.34 147.29 28.22 144.09 Z" />
</g>
<g id="#4c8d1aff">
<path fill="#4c8d1a" opacity="1.00" d=" M 151.53 157.95 C 150.35 151.03 155.49 144.65 160.15 140.02 C 154.85 149.18 152.36 159.61 151.12 170.04 C 149.95 174.04 153.89 179.89 149.81 182.82 C 132.66 195.80 107.48 200.22 87.77 191.11 C 97.45 190.73 108.71 196.12 117.31 192.42 C 120.57 191.55 131.76 190.99 126.84 188.30 C 130.73 188.61 137.53 187.53 135.97 182.11 C 137.16 184.11 138.17 187.29 140.63 184.64 C 151.13 179.33 145.15 165.66 151.53 157.95 Z" />
</g>
<g id="#9dd486ff">
<path fill="#9dd486" opacity="1.00" d=" M 1.13 140.79 C 2.60 144.77 3.11 148.91 2.81 153.14 C 1.82 149.08 1.15 144.97 1.13 140.79 Z" />
</g>
<g id="#78674eff">
<path fill="#78674e" opacity="1.00" d=" M 30.53 143.10 C 33.81 144.20 36.96 142.78 40.04 141.74 C 38.37 143.13 36.75 144.66 35.93 146.73 C 34.90 146.12 33.96 145.02 32.65 145.53 L 31.95 145.60 C 31.27 145.65 30.60 145.73 29.94 145.83 C 30.12 144.92 30.32 144.01 30.53 143.10 Z" />
</g>
<g id="#523a19ff">
<path fill="#523a19" opacity="1.00" d=" M 40.04 141.74 C 41.74 141.99 43.44 142.26 45.10 142.69 C 56.18 155.93 78.94 156.66 95.31 155.16 C 95.91 155.06 97.11 154.87 97.71 154.77 C 100.68 154.60 106.23 160.32 102.18 160.99 C 101.26 160.24 100.46 159.26 99.33 158.80 C 91.97 157.51 84.45 159.75 77.02 158.94 C 65.97 157.06 55.26 153.62 45.10 148.90 C 42.76 145.20 39.63 145.02 35.93 146.73 C 36.75 144.66 38.37 143.13 40.04 141.74 Z" />
</g>
<g id="#9f8c89ff">
<path fill="#9f8c89" opacity="1.00" d=" M 160.54 146.10 C 163.38 140.66 169.29 141.97 171.45 147.19 C 171.88 147.92 172.34 148.64 172.83 149.34 L 173.21 149.92 C 171.86 149.92 170.52 149.92 169.18 149.92 C 168.81 147.85 168.14 145.81 166.95 144.06 C 164.81 144.70 162.84 147.57 160.54 146.10 Z" />
</g>
<g id="#fdfefcff">
<path fill="#fdfefc" opacity="1.00" d=" M 249.06 141.91 L 250.00 141.76 L 250.00 250.00 L 141.76 250.00 L 141.91 249.06 L 142.80 248.88 C 146.66 248.75 150.50 248.37 154.18 247.10 C 157.50 246.13 160.78 245.04 164.06 243.95 C 166.22 244.31 168.27 243.46 169.95 242.15 C 181.59 236.94 193.05 231.25 203.11 223.30 C 205.12 222.29 206.77 220.75 208.17 219.00 C 212.35 215.22 216.11 211.04 219.80 206.79 C 221.70 206.57 223.13 205.10 223.15 203.16 C 226.16 198.85 229.16 194.52 232.02 190.10 C 233.46 189.73 234.33 188.39 234.02 186.93 C 237.06 181.43 239.26 175.52 242.15 169.95 C 243.46 168.27 244.30 166.22 243.96 164.06 C 244.41 162.80 244.81 161.54 245.21 160.26 C 248.48 155.07 248.25 148.68 248.90 142.80 L 249.06 141.91 Z" />
</g>
<g id="#4c991aff">
<path fill="#4c991a" opacity="1.00" d=" M 45.10 142.69 L 46.05 142.86 C 46.74 142.99 48.14 143.26 48.84 143.40 C 56.92 146.51 64.75 151.07 73.70 150.94 C 80.75 153.17 88.64 151.83 95.31 155.16 C 78.94 156.66 56.18 155.93 45.10 142.69 Z" />
</g>
<g id="#cbdb89ff">
<path fill="#cbdb89" opacity="1.00" d=" M 116.18 147.41 C 119.14 145.91 122.12 144.43 124.99 142.76 C 127.74 142.55 126.21 145.52 126.11 147.10 C 123.47 147.86 120.86 148.77 118.15 149.31 C 117.47 148.94 116.11 148.20 115.43 147.83 L 116.18 147.41 Z" />
</g>
<g id="#2d6027ff">
<path fill="#2d6027" opacity="1.00" d=" M 241.64 154.68 C 242.29 150.69 242.97 146.71 243.81 142.76 C 242.94 145.15 245.20 154.36 241.64 154.68 Z" />
</g>
<g id="#aad794ff">
<path fill="#aad794" opacity="1.00" d=" M 245.21 160.26 C 245.99 154.36 247.64 148.61 248.90 142.80 C 248.25 148.68 248.48 155.07 245.21 160.26 Z" />
</g>
<g id="#5b3a27ff">
<path fill="#5b3a27" opacity="1.00" d=" M 132.12 145.77 C 134.53 145.37 138.08 142.43 139.21 146.01 C 137.36 148.75 134.42 150.41 131.79 152.29 C 130.30 150.50 125.69 149.84 126.89 146.99 C 128.66 146.73 130.42 146.34 132.12 145.77 Z" />
</g>
<g id="#7c615dff">
<path fill="#7c615d" opacity="1.00" d=" M 160.54 146.10 C 162.84 147.57 164.81 144.70 166.95 144.06 C 168.14 145.81 168.81 147.85 169.18 149.92 C 167.66 152.69 167.83 155.68 171.04 156.97 C 170.32 157.29 167.09 157.99 168.78 158.97 C 172.11 161.02 165.80 162.36 164.20 163.43 C 165.74 165.69 168.67 167.20 169.11 170.08 C 166.99 170.47 163.35 164.79 164.10 168.99 C 158.48 167.21 167.86 151.02 161.88 159.27 C 161.90 156.47 162.80 153.26 160.04 151.66 C 158.85 154.52 159.77 157.46 161.88 159.27 C 161.49 159.86 161.08 160.44 160.66 161.02 C 158.98 159.99 154.15 161.82 156.94 158.90 C 160.50 155.44 157.87 149.87 160.54 146.10 Z" />
</g>
<g id="#669530ff">
<path fill="#669530" opacity="1.00" d=" M 195.18 144.14 C 202.23 143.65 191.94 151.39 188.96 152.12 C 190.70 149.22 192.78 146.53 195.18 144.14 Z" />
</g>
<g id="#4b9219ff">
<path fill="#4b9219" opacity="1.00" d=" M 31.95 145.60 L 32.65 145.53 C 34.15 155.50 44.36 161.64 53.16 164.78 C 75.78 171.94 100.11 166.00 123.24 169.81 C 95.05 168.41 62.66 179.58 37.74 161.30 C 35.32 156.37 29.17 151.42 31.95 145.60 Z" />
</g>
<g id="#7e6555ff">
<path fill="#7e6555" opacity="1.00" d=" M 112.85 146.32 L 113.54 146.02 C 114.20 146.37 115.52 147.06 116.18 147.41 L 115.43 147.83 C 112.39 150.59 101.85 152.08 106.11 157.95 C 107.30 159.58 108.38 161.32 105.74 162.14 L 104.76 162.25 C 103.73 162.17 102.87 161.75 102.18 160.99 C 106.23 160.32 100.68 154.60 97.71 154.77 C 102.65 151.77 107.54 148.63 112.85 146.32 Z" />
</g>
<g id="#968276ff">
<path fill="#968276" opacity="1.00" d=" M 118.15 149.31 C 120.86 148.77 123.47 147.86 126.11 147.10 L 126.89 146.99 C 125.69 149.84 130.30 150.50 131.79 152.29 L 131.97 153.00 C 130.96 153.76 129.96 154.55 128.95 155.31 C 127.40 154.84 126.26 153.77 125.83 152.19 C 129.81 147.86 121.70 151.12 119.18 151.21 C 116.24 151.31 115.24 150.74 118.15 149.31 Z" />
</g>
<g id="#beb3abff">
<path fill="#beb3ab" opacity="1.00" d=" M 106.11 157.95 C 101.85 152.08 112.39 150.59 115.43 147.83 C 116.11 148.20 117.47 148.94 118.15 149.31 C 115.24 150.74 116.24 151.31 119.18 151.21 C 114.85 152.42 110.46 153.35 106.07 154.30 C 105.74 159.66 114.32 155.79 117.03 157.10 C 120.79 157.57 122.99 153.98 125.83 152.19 C 126.26 153.77 127.40 154.84 128.95 155.31 C 126.78 156.85 124.85 158.94 122.21 159.64 C 117.52 156.24 111.38 159.56 106.11 157.95 Z" />
</g>
<g id="#95cd2fff">
<path fill="#95cd2f" opacity="1.00" d=" M 45.10 148.90 C 55.26 153.62 65.97 157.06 77.02 158.94 C 84.45 159.75 91.97 157.51 99.33 158.80 C 81.62 163.62 59.22 161.68 45.10 148.90 Z" />
</g>
<g id="#efeceaff">
<path fill="#efecea" opacity="1.00" d=" M 119.18 151.21 C 121.70 151.12 129.81 147.86 125.83 152.19 C 122.99 153.98 120.79 157.57 117.03 157.10 C 114.32 155.79 105.74 159.66 106.07 154.30 C 110.46 153.35 114.85 152.42 119.18 151.21 Z" />
</g>
<g id="#d5d5c8ff">
<path fill="#d5d5c8" opacity="1.00" d=" M 169.18 149.92 C 170.52 149.92 171.86 149.92 173.21 149.92 C 175.91 149.98 174.75 153.34 175.23 155.11 C 174.21 156.33 172.45 156.45 171.04 156.97 C 167.83 155.68 167.66 152.69 169.18 149.92 Z" />
</g>
<g id="#3a0451ff">
<path fill="#3a0451" opacity="1.00" d=" M 178.59 167.01 C 185.41 161.56 191.97 155.74 198.77 150.30 C 203.07 151.03 207.38 150.25 211.70 150.24 C 213.91 158.30 219.03 168.89 229.07 167.20 C 229.20 169.63 227.05 171.16 226.05 173.16 C 224.95 176.91 229.75 177.52 232.03 179.15 C 231.70 180.45 231.57 182.33 230.26 183.00 C 227.27 174.51 218.70 182.45 213.55 177.69 C 212.59 169.71 201.52 171.04 196.56 166.38 C 190.32 161.28 184.10 172.62 178.59 167.01 Z" />
</g>
<g id="#585568ff">
<path fill="#585568" opacity="1.00" d=" M 16.16 151.19 C 21.91 153.30 11.88 155.66 16.16 151.19 Z" />
</g>
<g id="#582f2aff">
<path fill="#582f2a" opacity="1.00" d=" M 160.04 151.66 C 162.80 153.26 161.90 156.47 161.88 159.27 C 159.77 157.46 158.85 154.52 160.04 151.66 Z" />
</g>
<g id="#b0d89cff">
<path fill="#b0d89c" opacity="1.00" d=" M 2.81 153.14 C 4.63 153.64 4.38 155.80 3.72 157.13 C 2.71 156.04 2.57 154.54 2.81 153.14 Z" />
</g>
<g id="#8cd35cff">
<path fill="#8cd35c" opacity="1.00" d=" M 128.95 155.31 C 129.96 154.55 130.96 153.76 131.97 153.00 C 136.60 157.18 145.04 154.31 148.98 157.04 C 144.55 160.33 134.52 155.68 129.07 160.22 C 127.50 166.13 136.75 167.45 136.07 173.10 C 129.96 171.41 127.22 162.78 121.31 161.52 C 116.51 167.24 110.85 161.61 104.76 162.25 L 105.74 162.14 C 111.26 161.60 116.81 160.97 122.21 159.64 C 124.85 158.94 126.78 156.85 128.95 155.31 Z" />
</g>
<g id="#b6a7a5ff">
<path fill="#b6a7a5" opacity="1.00" d=" M 161.88 159.27 C 167.86 151.02 158.48 167.21 164.10 168.99 C 165.38 180.16 161.06 173.23 160.50 168.58 C 158.42 168.14 157.87 166.93 159.01 165.15 C 159.60 163.79 160.12 162.40 160.66 161.02 C 161.08 160.44 161.49 159.86 161.88 159.27 Z" />
</g>
<g id="#988d79ff">
<path fill="#988d79" opacity="1.00" d=" M 106.11 157.95 C 111.38 159.56 117.52 156.24 122.21 159.64 C 116.81 160.97 111.26 161.60 105.74 162.14 C 108.38 161.32 107.30 159.58 106.11 157.95 Z" />
</g>
<g id="#a4d68eff">
<path fill="#a4d68e" opacity="1.00" d=" M 5.12 159.94 C 6.45 160.86 6.44 162.57 5.94 163.94 C 4.49 163.10 4.58 161.30 5.12 159.94 Z" />
<path fill="#a4d68e" opacity="1.00" d=" M 142.80 248.88 C 146.50 247.75 150.32 247.26 154.18 247.10 C 150.50 248.37 146.66 248.75 142.80 248.88 Z" />
</g>
<g id="#4c6d1aff">
<path fill="#4c6d1a" opacity="1.00" d=" M 31.81 173.02 C 26.68 170.62 28.31 155.79 34.16 161.69 C 26.87 161.57 38.32 169.53 31.81 173.02 Z" />
</g>
<g id="#66bc2eff">
<path fill="#66bc2e" opacity="1.00" d=" M 31.81 173.02 C 38.32 169.53 26.87 161.57 34.16 161.69 C 35.42 162.78 36.65 163.91 37.93 164.98 C 39.18 166.54 40.37 168.15 41.50 169.81 C 38.70 171.64 35.35 175.68 31.81 173.02 Z" />
</g>
<g id="#a7d792ff">
<path fill="#a7d792" opacity="1.00" d=" M 5.94 163.94 C 7.98 166.19 8.65 169.19 8.95 172.13 C 7.14 169.75 6.36 166.85 5.94 163.94 Z" />
</g>
<g id="#795c59ff">
<path fill="#795c59" opacity="1.00" d=" M 155.88 166.19 C 153.61 162.95 157.02 164.58 159.01 165.15 C 157.87 166.93 158.42 168.14 160.50 168.58 C 161.06 173.23 165.38 180.16 164.10 168.99 C 166.95 173.54 165.41 178.43 163.66 182.91 C 161.47 181.96 159.38 181.83 157.24 183.03 C 154.69 177.54 156.85 171.50 155.88 166.19 Z" />
</g>
<g id="#98d380ff">
<path fill="#98d380" opacity="1.00" d=" M 242.15 169.95 C 241.39 167.72 241.96 165.39 243.96 164.06 C 244.30 166.22 243.46 168.27 242.15 169.95 Z" />
<path fill="#98d380" opacity="1.00" d=" M 164.06 243.95 C 165.40 241.96 167.72 241.39 169.95 242.15 C 168.27 243.46 166.22 244.31 164.06 243.95 Z" />
</g>
<g id="#4c821aff">
<path fill="#4c821a" opacity="1.00" d=" M 37.93 164.98 C 47.15 169.81 56.90 173.70 67.39 174.61 C 71.14 173.44 72.38 176.71 74.46 178.55 C 86.09 183.27 98.80 184.26 111.23 184.33 C 101.51 185.59 91.47 185.75 81.97 183.05 C 81.12 186.15 82.98 188.51 86.23 188.33 C 81.07 192.60 77.29 181.18 72.75 179.27 C 62.63 175.37 51.29 174.98 41.50 169.81 C 40.37 168.15 39.18 166.54 37.93 164.98 Z" />
</g>
<g id="#520562ff">
<path fill="#520562" opacity="1.00" d=" M 178.59 167.01 C 184.10 172.62 190.32 161.28 196.56 166.38 C 201.52 171.04 212.59 169.71 213.55 177.69 C 218.70 182.45 227.27 174.51 230.26 183.00 C 228.04 188.95 223.53 193.86 219.90 199.01 C 210.41 199.62 205.99 188.35 196.63 188.53 C 189.73 188.77 182.91 187.88 176.08 187.11 C 171.15 187.89 172.58 194.33 171.28 197.95 C 165.15 206.76 150.18 203.11 149.79 192.04 C 150.55 192.04 152.09 192.05 152.85 192.05 C 151.57 200.23 162.00 203.71 166.79 197.80 C 169.58 194.33 169.54 188.85 165.92 185.94 C 169.47 179.07 171.14 170.91 178.59 167.01 M 185.04 171.03 C 180.49 171.60 171.45 175.46 176.02 180.90 C 183.92 187.27 194.99 182.07 204.13 185.82 C 207.45 186.03 216.63 181.82 208.96 179.05 C 204.48 173.69 198.42 172.13 192.04 169.86 C 189.65 169.78 187.27 170.15 185.04 171.03 Z" />
</g>
<g id="#850294ff">
<path fill="#850294" opacity="1.00" d=" M 185.04 171.03 C 187.27 170.15 189.65 169.78 192.04 169.86 C 193.15 172.89 196.10 178.16 191.35 179.41 C 185.54 182.65 180.44 175.19 185.04 171.03 M 186.24 172.10 C 183.06 174.16 186.66 181.27 190.76 177.90 C 194.05 175.60 190.95 168.75 186.24 172.10 Z" />
</g>
<g id="#600371ff">
<path fill="#600371" opacity="1.00" d=" M 192.04 169.86 C 198.42 172.13 204.48 173.69 208.96 179.05 C 216.63 181.82 207.45 186.03 204.13 185.82 C 194.99 182.07 183.92 187.27 176.02 180.90 C 171.45 175.46 180.49 171.60 185.04 171.03 C 180.44 175.19 185.54 182.65 191.35 179.41 C 196.10 178.16 193.15 172.89 192.04 169.86 Z" />
</g>
<g id="#69bb30ff">
<path fill="#69bb30" opacity="1.00" d=" M 111.23 184.33 C 115.77 181.24 115.35 173.07 121.04 171.88 C 120.38 176.51 116.70 180.17 116.12 184.68 C 119.55 186.26 123.12 187.60 126.84 188.30 C 131.76 190.99 120.57 191.55 117.31 192.42 C 108.80 184.50 96.53 188.93 86.23 188.33 C 82.98 188.51 81.12 186.15 81.97 183.05 C 91.47 185.75 101.51 185.59 111.23 184.33 Z" />
</g>
<g id="#c81fccff">
<path fill="#c81fcc" opacity="1.00" d=" M 186.24 172.10 C 190.95 168.75 194.05 175.60 190.76 177.90 C 186.66 181.27 183.06 174.16 186.24 172.10 Z" />
</g>
<g id="#360643ff">
<path fill="#360643" opacity="1.00" d=" M 26.31 173.09 C 36.20 185.62 53.36 188.95 67.97 193.10 C 70.31 197.74 60.21 194.46 57.30 197.29 C 52.35 200.64 53.73 207.34 56.05 211.83 C 52.58 216.88 44.52 208.95 44.97 214.87 C 44.71 214.67 44.20 214.27 43.94 214.07 C 41.89 211.44 39.69 208.89 36.93 206.97 C 28.58 198.39 21.22 188.25 16.89 177.04 C 19.77 175.14 23.18 174.45 26.31 173.09 Z" />
</g>
<g id="#a0d58aff">
<path fill="#a0d58a" opacity="1.00" d=" M 10.02 173.88 C 11.65 175.99 12.91 178.43 12.93 181.17 C 11.39 179.00 10.15 176.58 10.02 173.88 Z" />
</g>
<g id="#7f0886ff">
<path fill="#7f0886" opacity="1.00" d=" M 164.88 186.84 C 165.14 186.62 165.66 186.17 165.92 185.94 C 169.54 188.85 169.58 194.33 166.79 197.80 C 162.00 203.71 151.57 200.23 152.85 192.05 C 153.31 192.05 154.23 192.05 154.69 192.05 C 155.48 195.86 159.40 199.56 163.39 197.44 C 167.52 195.64 167.58 189.95 164.88 186.84 Z" />
</g>
<g id="#c417c7ff">
<path fill="#c417c7" opacity="1.00" d=" M 163.12 188.10 C 163.56 187.79 164.44 187.16 164.88 186.84 C 167.58 189.95 167.52 195.64 163.39 197.44 C 159.40 199.56 155.48 195.86 154.69 192.05 C 155.06 191.84 155.81 191.42 156.18 191.21 C 159.73 192.98 165.38 197.90 163.12 188.10 Z" />
</g>
<g id="#45044cff">
<path fill="#45044c" opacity="1.00" d=" M 171.28 197.95 C 172.58 194.33 171.15 187.89 176.08 187.11 C 182.91 187.88 189.73 188.77 196.63 188.53 C 205.99 188.35 210.41 199.62 219.90 199.01 C 218.29 201.56 216.11 203.79 214.00 205.96 C 211.14 208.47 208.15 210.92 205.98 214.08 C 195.40 223.96 182.76 232.03 169.14 237.04 C 169.56 229.25 162.58 222.02 156.73 217.02 C 157.76 216.30 158.86 215.69 159.94 215.05 C 166.84 212.18 158.63 210.58 156.67 214.83 C 154.79 214.19 153.49 210.54 153.58 208.64 C 155.03 204.19 161.05 207.91 163.93 209.08 C 165.83 205.07 172.31 202.54 171.28 197.95 Z" />
</g>
<g id="#a4d98fff">
<path fill="#a4d98f" opacity="1.00" d=" M 232.02 190.10 C 231.64 188.62 232.53 187.22 234.02 186.93 C 234.33 188.39 233.46 189.73 232.02 190.10 Z" />
</g>
<g id="#dabdd8ff">
<path fill="#dabdd8" opacity="1.00" d=" M 160.08 189.22 C 161.10 188.86 162.11 188.49 163.12 188.10 C 165.38 197.90 159.73 192.98 156.18 191.21 C 152.69 190.96 149.18 190.65 145.72 190.13 C 150.45 189.73 155.53 190.98 160.08 189.22 Z" />
</g>
<g id="#7e6461ff">
<path fill="#7e6461" opacity="1.00" d=" M 143.76 189.90 C 149.08 188.39 154.65 189.28 160.08 189.22 C 155.53 190.98 150.45 189.73 145.72 190.13 C 145.23 190.07 144.25 189.95 143.76 189.90 Z" />
</g>
<g id="#a8dc94ff">
<path fill="#a8dc94" opacity="1.00" d=" M 18.04 189.91 C 19.42 190.28 20.39 191.55 20.00 193.01 C 18.47 192.83 17.67 191.33 18.04 189.91 Z" />
</g>
<g id="#570450ff">
<path fill="#570450" opacity="1.00" d=" M 134.38 196.44 C 139.48 194.69 144.03 190.89 149.79 192.04 C 150.18 203.11 165.15 206.76 171.28 197.95 C 172.31 202.54 165.83 205.07 163.93 209.08 C 161.05 207.91 155.03 204.19 153.58 208.64 C 153.49 210.54 154.79 214.19 156.67 214.83 C 157.49 214.88 159.13 214.99 159.94 215.05 C 158.86 215.69 157.76 216.30 156.73 217.02 C 162.58 222.02 169.56 229.25 169.14 237.04 C 164.64 239.30 159.74 240.63 154.88 241.85 C 154.13 241.86 152.64 241.87 151.89 241.88 C 154.06 237.76 154.88 232.44 150.20 229.84 C 144.97 219.63 132.82 217.71 123.57 212.49 C 119.65 210.33 114.19 212.59 111.11 208.89 C 108.18 205.24 103.03 208.55 99.05 208.62 C 100.34 205.52 99.07 202.63 98.86 199.61 C 110.75 200.53 122.97 200.30 134.38 196.44 Z" />
</g>
<g id="#9bd684ff">
<path fill="#9bd684" opacity="1.00" d=" M 20.00 193.01 C 21.46 193.19 22.37 194.57 22.00 195.99 C 20.54 195.80 19.62 194.42 20.00 193.01 Z" />
</g>
<g id="#580656ff">
<path fill="#580656" opacity="1.00" d=" M 67.97 193.10 C 72.63 194.48 77.54 193.89 82.21 195.02 C 82.83 199.59 74.04 200.62 78.79 204.90 C 68.68 209.51 59.81 220.75 47.67 216.56 C 46.55 216.56 45.84 215.42 44.97 214.87 C 44.52 208.95 52.58 216.88 56.05 211.83 C 53.73 207.34 52.35 200.64 57.30 197.29 C 60.21 194.46 70.31 197.74 67.97 193.10 Z" />
</g>
<g id="#740769ff">
<path fill="#740769" opacity="1.00" d=" M 82.21 195.02 C 83.16 195.25 84.10 195.50 85.04 195.78 C 85.62 200.78 87.63 206.61 84.07 211.03 C 76.84 214.73 73.99 226.02 64.25 222.91 C 62.94 215.71 58.07 222.79 53.66 221.65 C 50.99 221.17 48.99 218.79 47.67 216.56 C 59.81 220.75 68.68 209.51 78.79 204.90 C 74.04 200.62 82.83 199.59 82.21 195.02 Z" />
</g>
<g id="#a8db95ff">
<path fill="#a8db95" opacity="1.00" d=" M 22.00 195.99 C 23.55 196.16 24.34 197.70 23.91 199.13 C 22.57 198.68 21.62 197.43 22.00 195.99 Z" />
</g>
<g id="#970c88ff">
<path fill="#970c88" opacity="1.00" d=" M 85.04 195.78 C 87.87 196.40 90.49 197.66 93.06 198.95 C 95.27 202.64 96.18 207.03 93.84 210.90 C 92.75 209.05 90.54 208.19 88.78 209.79 C 81.36 213.90 76.02 220.47 71.02 227.11 C 71.25 231.70 77.39 228.69 80.16 228.11 C 79.16 233.09 73.93 232.00 70.00 232.00 C 64.57 228.71 57.87 226.52 53.66 221.65 C 58.07 222.79 62.94 215.71 64.25 222.91 C 73.99 226.02 76.84 214.73 84.07 211.03 C 87.63 206.61 85.62 200.78 85.04 195.78 Z" />
</g>
<g id="#765451ff">
<path fill="#765451" opacity="1.00" d=" M 99.75 197.23 C 106.58 196.88 113.42 197.07 120.25 197.26 C 113.48 198.35 106.51 198.41 99.75 197.23 Z" />
</g>
<g id="#7a0665ff">
<path fill="#7a0665" opacity="1.00" d=" M 93.06 198.95 C 94.51 199.11 97.41 199.45 98.86 199.61 C 99.07 202.63 100.34 205.52 99.05 208.62 C 103.03 208.55 108.18 205.24 111.11 208.89 C 114.19 212.59 119.65 210.33 123.57 212.49 C 132.82 217.71 144.97 219.63 150.20 229.84 C 154.88 232.44 154.06 237.76 151.89 241.88 C 149.15 242.38 146.43 243.04 143.75 243.77 C 141.54 244.35 139.34 245.14 137.01 245.03 C 129.33 244.98 121.66 245.00 113.98 245.00 C 111.34 244.90 108.72 244.66 106.21 243.85 C 102.58 242.75 98.85 242.17 95.10 241.79 C 91.05 240.80 86.86 239.91 83.21 237.84 C 81.02 236.39 78.62 235.30 76.07 234.71 C 74.11 233.78 71.27 233.75 70.00 232.00 C 73.93 232.00 79.16 233.09 80.16 228.11 C 87.19 226.74 90.47 219.94 97.03 218.14 C 99.96 218.55 101.54 221.13 102.53 223.65 C 105.28 223.43 108.14 222.51 111.05 222.55 C 110.19 218.92 108.40 215.16 105.12 213.17 C 101.45 215.74 96.97 214.16 93.09 212.99 C 93.28 212.47 93.65 211.42 93.84 210.90 C 96.18 207.03 95.27 202.64 93.06 198.95 Z" />
</g>
<g id="#aada97ff">
<path fill="#aada97" opacity="1.00" d=" M 219.80 206.79 C 219.91 204.89 221.30 203.48 223.15 203.16 C 223.13 205.10 221.70 206.57 219.80 206.79 Z" />
</g>
<g id="#aedc9cff">
<path fill="#aedc9c" opacity="1.00" d=" M 28.12 203.93 C 29.75 204.62 31.04 205.98 31.17 207.82 C 29.20 207.60 27.71 205.97 28.12 203.93 Z" />
</g>
<g id="#436033ff">
<path fill="#436033" opacity="1.00" d=" M 205.98 214.08 C 208.15 210.92 211.14 208.47 214.00 205.96 C 212.60 209.40 209.73 213.15 205.98 214.08 Z" />
</g>
<g id="#415f30ff">
<path fill="#415f30" opacity="1.00" d=" M 36.93 206.97 C 39.69 208.89 41.89 211.44 43.94 214.07 C 40.97 212.78 37.42 210.43 36.93 206.97 Z" />
</g>
<g id="#b509a9ff">
<path fill="#b509a9" opacity="1.00" d=" M 88.78 209.79 C 90.54 208.19 92.75 209.05 93.84 210.90 C 93.65 211.42 93.28 212.47 93.09 212.99 C 89.77 218.91 85.48 223.78 80.16 228.11 C 77.39 228.69 71.25 231.70 71.02 227.11 C 76.02 220.47 81.36 213.90 88.78 209.79 Z" />
</g>
<g id="#714977ff">
<path fill="#714977" opacity="1.00" d=" M 156.67 214.83 C 158.63 210.58 166.84 212.18 159.94 215.05 C 159.13 214.99 157.49 214.88 156.67 214.83 Z" />
</g>
<g id="#901381ff">
<path fill="#901381" opacity="1.00" d=" M 93.09 212.99 C 96.97 214.16 101.45 215.74 105.12 213.17 C 108.40 215.16 110.19 218.92 111.05 222.55 C 108.14 222.51 105.28 223.43 102.53 223.65 C 101.54 221.13 99.96 218.55 97.03 218.14 C 90.47 219.94 87.19 226.74 80.16 228.11 C 85.48 223.78 89.77 218.91 93.09 212.99 Z" />
</g>
<g id="#adda9aff">
<path fill="#adda9a" opacity="1.00" d=" M 42.17 218.84 C 44.03 218.94 45.39 220.26 46.03 221.93 C 44.01 222.25 42.41 220.79 42.17 218.84 Z" />
</g>
<g id="#a8d995ff">
<path fill="#a8d995" opacity="1.00" d=" M 203.11 223.30 C 204.13 221.15 205.73 219.41 208.17 219.00 C 206.77 220.75 205.12 222.29 203.11 223.30 Z" />
</g>
<g id="#a3d68cff">
<path fill="#a3d68c" opacity="1.00" d=" M 51.07 225.84 C 52.56 225.63 53.88 226.70 53.86 228.24 C 52.41 228.32 51.21 227.30 51.07 225.84 Z" />
</g>
<g id="#9dd587ff">
<path fill="#9dd587" opacity="1.00" d=" M 56.90 230.03 C 58.38 229.63 59.80 230.54 60.04 232.06 C 58.58 232.32 57.28 231.44 56.90 230.03 Z" />
</g>
<g id="#68624bff">
<path fill="#68624b" opacity="1.00" d=" M 76.07 234.71 C 78.62 235.30 81.02 236.39 83.21 237.84 C 80.68 238.05 77.15 237.03 76.07 234.71 Z" />
</g>
<g id="#9bd382ff">
<path fill="#9bd382" opacity="1.00" d=" M 71.00 238.10 C 72.93 237.51 74.79 238.33 76.02 239.85 C 74.08 240.50 72.17 239.69 71.00 238.10 Z" />
</g>
<g id="#a1d58aff">
<path fill="#a1d58a" opacity="1.00" d=" M 80.03 242.20 C 82.25 241.38 84.58 241.96 85.95 243.93 C 83.79 244.29 81.74 243.48 80.03 242.20 Z" />
</g>
<g id="#665741ff">
<path fill="#665741" opacity="1.00" d=" M 95.10 241.79 C 98.85 242.17 102.58 242.75 106.21 243.85 C 103.89 242.39 95.67 245.30 95.10 241.79 Z" />
</g>
<g id="#5c5a3aff">
<path fill="#5c5a3a" opacity="1.00" d=" M 143.75 243.77 C 146.43 243.04 149.15 242.38 151.89 241.88 C 152.64 241.87 154.13 241.86 154.88 241.85 C 154.47 245.33 146.01 242.38 143.75 243.77 Z" />
</g>
<g id="#5a752fff">
<path fill="#5a752f" opacity="1.00" d=" M 113.98 245.00 C 121.66 245.00 129.33 244.98 137.01 245.03 C 131.97 245.98 118.98 247.75 113.98 245.00 Z" />
</g>
<g id="#abd896ff">
<path fill="#abd896" opacity="1.00" d=" M 92.86 246.08 C 97.69 246.73 102.49 247.63 107.20 248.88 C 102.50 248.02 96.96 249.06 92.86 246.08 Z" />
</g>
<g id="#8fc76fff">
<path fill="#8fc76f" opacity="1.00" d=" M 135.84 250.00 C 137.36 249.76 140.39 249.29 141.91 249.06 L 141.76 250.00 L 135.84 250.00 Z" />
</g>
</svg>
