<?xml version="1.0" encoding="utf-8"?>
<!-- Generator: Adobe Illustrator 26.0.3, SVG Export Plug-In . SVG Version: 6.00 Build 0)  -->
<svg version="1.1" id="Layer_1" xmlns="http://www.w3.org/2000/svg" xmlns:xlink="http://www.w3.org/1999/xlink" x="0px" y="0px"
	 viewBox="0 0 250 250" style="enable-background:new 0 0 250 250;" xml:space="preserve">
<style type="text/css">
	.st0{fill:#FFFFFF;}
	.st1{fill:#F7DA8E;}
	.st2{fill:#353535;}
	.st3{fill:#2E3030;}
	.st4{fill:#F8A628;}
	.st5{fill:#AE7742;}
	.st6{fill:#AC7742;}
	.st7{fill:#F7DB8F;}
	.st8{fill:#F7A528;}
	.st9{fill:#313233;}
	.st10{fill:#F15C97;}
	.st11{fill:#F15C98;}
	.st12{fill:#323233;}
	.st13{fill:#FBFCFB;}
	.st14{fill:#2E2F31;}
	.st15{fill:#FB90AF;}
	.st16{fill:#F9256D;}
	.st17{fill:#FEFEFE;}
	.st18{fill:#2D2F30;}
	.st19{fill:#313132;}
	.st20{fill:#AEB1D4;}
	.st21{fill:#F9256E;}
	.st22{fill:#ADB0D4;}
	.st23{fill:#313131;}
	.st24{fill:#2A2F2F;}
	.st25{fill:#FA266E;}
	.st26{fill:#F9266E;}
	.st27{fill:#F5A327;}
	.st28{fill:#FB256F;}
	.st29{fill:#9A2C51;}
	.st30{fill:#F82B72;}
	.st31{fill:#FB266F;}
	.st32{fill:#AC7642;}
	.st33{fill:#F9266D;}
	.st34{fill:#ADB0D3;}
	.st35{fill:#BC1D72;}
	.st36{fill:#2F2F31;}
	.st37{fill:#AEB2D5;}
	.st38{fill:#AEB1D5;}
	.st39{fill:#FE6998;}
	.st40{fill:#FE6898;}
	.st41{fill:#333333;}
</style>
<g id="_x23_ffffffff">
	<path class="st0" d="M69.7,94.2c6.2,2.3,11.3,6.7,14.8,12.3c1.8,2.2,3.2,5.8,6.4,6c3.5-2.1,5.8-5.7,9.1-8.1
		c4.2-0.7,7.6-3.2,9.9-6.6c7.6-2,16.3-2.8,23.5,1c1.1,2.7,3.6,3.2,6.2,2.7c3.8,3.6,7.1,7.9,11.4,10.9c3.5-0.3,5-4.1,7-6.5
		c3.4-5.2,8.4-9.4,14.2-11.6c0.6,12.3-4.6,24.2-12.5,33.4c-2.9,3.6-6.7,7.3-11.8,6.6c-8.1-1.8-16.4-0.2-24.1,2.7
		c-3.6,1.5-7-1-10.5-1.7c-7.4-2.3-15.3-2.4-22.7,0C77.7,126,69.6,110.3,69.7,94.2 M110.6,106c1.2,3.8,5,5.7,8.2,7.5
		c-1.5,1.2-2.7,3.2-4.8,3.1c-2.8,0-5.2-1.7-7.8-2.4c0.2,1.4-0.1,3.4,1.5,4c4.1,2,4.5,7.5,8.8,9.2c5,2.8,11.9,0.3,14.1-4.9
		c1.1-3,4.6-3.8,6-6.6c-0.6-3.1-3.6-0.3-5.4,0.1c-2.9,1.6-6.1-0.1-7.5-2.9c3.4-1.5,7.8-3.8,7.8-8.1c-2.3-5.6-9.3-5.9-14.4-4.9
		C113.9,100.5,111.1,102.8,110.6,106 M114.1,130.3c3.3,4.2,10.1,4.9,13.4,0.3c-2.1,0.6-4.2,1.6-6.5,1.8
		C118.6,132.2,116.4,131.1,114.1,130.3z"/>
	<path class="st0" d="M180.8,120.8c5.2-0.8,11.7-1.6,15.5,3c3.1,2.9,2.6,7.4,2.5,11.3c-0.1,5.4-2.9,10.2-5.6,14.6
		c-2.4,0-4.8,0.1-7.2,0c-3.4-2.9-6.5-6.5-7.6-11c-1.9-5.8-0.4-11.9,2-17.3L180.8,120.8z"/>
	<path class="st0" d="M65.5,140.5c2.1-1.6,4.8-2.6,7.5-2.8c6.5,0.8,11.2,6.4,13.1,12.3c0.1,7.7-4.3,15.8-12,18.1
		c-5.2,1.7-10.3-1.1-14.4-4.1C56.8,156.1,58.7,146,65.5,140.5z"/>
	<path class="st0" d="M40,185.1c1.7-7.6,9.3-13.2,17.1-12.7c2.2-0.2,4.9,0.1,5.7,2.5c-0.7,5.5-1.4,11.1-1.1,16.7
		c-3.2,0.7-7.1,1-8.9,4.2c-2.3,3.1-1,6.9,0,10.2c0,0.5,0.1,1.4,0.2,1.9c-2.4-0.4-4.9-0.8-7.2-1.5C40.8,200.6,38.3,192.6,40,185.1z"
		/>
	<path class="st0" d="M180.8,172.6c6.9-0.8,14.9,0.3,19.2,6.4c6.5,8.7,3.1,20.9-3.6,28.4c-2.1,0.1-4.2,0.2-6.3,0.2
		c0-0.4,0-1.2,0-1.6c0.6-2.8,2-5.8,0.7-8.6c-0.9-2.6-3.3-4.4-5.8-5.3c-1.2-0.5-2.4-1-3.6-1.5c-0.1-5.5-0.6-11-1.7-16.4
		C180,173.9,180.5,173,180.8,172.6z"/>
</g>
<g id="_x23_f7da8eff">
	<path class="st1" d="M91.6,14.5c12.5-3.6,25.5-5.8,38.5-5.1c22.1,1.4,44,8.6,61.9,21.7c10.9,7.9,20.4,17.8,28.1,28.9
		c0.9,1.3,1.6,2.8,2.1,4.3c0.5,2.6,1.8,5,4.1,6.4c13.8,24.7,16.6,54.9,9.6,82.1c-1.2,5.6-3.1,11-5.8,16.1c-1.8-0.7-3.7-2.5-5.6-1.5
		c-2.4,0.9-2.6,4.2-0.8,5.8c1.3,0.4,2.7,0.6,4.1,0.8c-5.7,12.6-14.5,23.6-24.3,33.3c-0.5-0.3-1.4-0.9-1.8-1.2c3.3-5.1,5.3-11,5-17.1
		c0.1-6.9-3.7-13.6-9.6-17c-4.1-2.5-8.9-2.7-13.5-3.5c6-7.2,12.4-14.2,15.9-23c2.4-6,4.3-12.7,2.1-19c-1.4-4.6-5.4-8.1-10-9.2
		c-5.2-1.6-10.5,0.2-15.5,1.4c0.6-6.6,2.2-13.2,0.9-19.7c-0.6-5.1-2.5-9.8-4.2-14.6c-1-2.5,0.8-4.8,1.5-7.1
		c3.3-7.7,4.6-16.7,1.1-24.6c-1.9-4.9-7.6-6.8-12.4-6.9c-6.8,0.5-12.8,4.3-18.4,7.9c-1.6,0.9-3.3,2.4-5.3,1.7
		c-6-1.4-12.1-3-18.3-2.8c-6.2-0.2-12.3,1.6-18.3,2.9c-1.7,0.5-3.2-0.6-4.6-1.4c-5.5-3.6-11.4-7.3-18.1-8.2
		c-5.1-0.3-11.1,1.9-13.3,6.9c-3.3,7.8-2.2,16.8,1.1,24.4c0.8,2.3,2.5,4.8,1.6,7.3c-1.6,4.8-3.6,9.6-4.2,14.7
		c-1.2,6.9,0.2,13.9,1.2,20.8c-5.6-0.5-12.1-1.2-16.5,3.1c-4,3.2,0.3,8.1,2.2,11.2c-0.9,3.2-2.1,6.4-1.7,9.8
		c1.7,1.6,3.8,2.7,5.8,3.9c-1.6,7-1.1,14.3,1.4,21c-3.3,0.5-6.7,0.7-9.8,2.1c-5.6,2.4-9.8,7.6-11.1,13.5c-0.7,3.6-0.4,7.2-0.3,10.8
		c-6.4-5.8-10.5-13.6-14.3-21.2c2.8,0.2,6.4-1.4,5.2-4.8c-1.6-3.3-5.2-1.8-7.4-0.3c-3.2-6-5.1-12.6-6.5-19.3
		c-5-21.2-3.6-43.9,3.7-64.4c2.2-4.8,3.5-10.2,7-14.3c1.7-1.8,3.1-3.8,3.7-6.3c0.5-1.4,0.9-2.8,1.7-4C44.2,38.8,66.3,21.9,91.6,14.5
		 M206.3,78.3c-3.8,1.2-5.8,5.9-4.3,9.5c1.5,4.6,5.8,9.1,10.9,8.5c5.1-1.6,9.3-6.7,8.7-12.2c0-3.5-3.3-6.2-6.6-6.4
		C212.1,77.7,209.1,77.4,206.3,78.3 M183.5,89.6c-2.3,1.2-3.8,3.9-3.8,6.5c0.4,5.5,4.8,10.7,10.3,11.4c5.6-0.9,10.4-6.5,9.8-12.3
		c0.1-4-4-6.8-7.7-6.4C189.2,88.8,186.1,88.2,183.5,89.6 M206.5,104.6c-2.1,1-4,3.1-4.1,5.5c-0.7,5.4,3.3,10.5,8.1,12.3
		c5.1,1.2,9.6-3.3,11.2-7.8c2.1-4.1-0.7-10.6-5.7-10.3C212.9,104.4,209.6,104.1,206.5,104.6 M23,139.5c-0.7,3.8-4,5.7-7.1,7.5
		c1.8,0.9,3.7,1.8,5.5,2.6c0.4,1.4,0.9,2.7,1.3,4.1c0.5,0,1.4,0.1,1.9,0.2c1-3.6,4-5.6,7.3-7c-3.2-1.8-6.2-3.9-7.4-7.6
		C24.1,139.3,23.4,139.4,23,139.5 M225.5,139.2c-1.1,3.7-4.2,5.9-7.4,7.6c3.3,1.3,6.3,3.3,7.3,7c0.5,0,1.4-0.1,1.9-0.2
		c0.4-1.4,0.9-2.7,1.3-4.1c1.8-0.9,3.7-1.8,5.5-2.7c-3.1-1.8-6.4-3.6-7.1-7.5C226.6,139.4,225.9,139.3,225.5,139.2z"/>
</g>
<g id="_x23_353535ff">
	<path class="st2" d="M22.8,35.4c0.5,0,1.5-0.1,2-0.2c0.7,1.5,1.3,3.1,2,4.7c1.9,0.8,3.8,1.7,5.4,3c-1.9,0.9-3.8,1.8-5.6,2.6
		c-0.6,1.5-1.1,2.9-1.6,4.4c-0.5-0.1-1.6-0.2-2.2-0.3c-0.5-1.4-1-2.9-1.6-4.3c-1.8-0.9-4.1-1.2-5-3.3c1.7-0.9,3.5-1.7,5.3-2.4
		C21.9,38.2,22.4,36.8,22.8,35.4z"/>
	<path class="st2" d="M225.4,35.2c0.5,0,1.4,0.1,1.9,0.2c0.4,1.4,0.9,2.8,1.3,4.2c1.8,0.8,3.6,1.5,5.3,2.4c-1,2-3.2,2.4-5,3.2
		c-0.5,1.5-1.1,2.9-1.6,4.4c-0.5,0.1-1.6,0.2-2.2,0.2c-0.5-1.5-1.1-2.9-1.6-4.4c-1.9-0.8-3.8-1.7-5.6-2.6
		C221,41,224.4,39.2,225.4,35.2z"/>
	<path class="st2" d="M114.1,130.3c2.3,0.8,4.5,1.9,6.9,2.1c2.3-0.1,4.3-1.1,6.5-1.8C124.3,135.3,117.4,134.5,114.1,130.3z"/>
</g>
<g id="_x23_2e3030ff">
	<path class="st3" d="M66.8,52.7c2.2-5,8.1-7.2,13.3-6.9c6.7,0.8,12.5,4.5,18.1,8.2c1.4,0.8,2.9,2,4.6,1.4c6-1.3,12-3.1,18.3-2.9
		c6.2-0.2,12.3,1.4,18.3,2.8c2,0.7,3.7-0.8,5.3-1.7c5.6-3.6,11.6-7.4,18.4-7.9c4.8,0.1,10.5,2.1,12.4,6.9c3.5,7.9,2.2,16.9-1.1,24.6
		c-0.7,2.3-2.5,4.6-1.5,7.1c1.7,4.8,3.5,9.5,4.2,14.6c1.3,6.6-0.3,13.2-0.9,19.7c5-1.2,10.3-3,15.5-1.4c4.6,1.1,8.6,4.6,10,9.2
		c2.1,6.3,0.2,13.1-2.1,19c-3.5,8.8-9.9,15.8-15.9,23c4.5,0.8,9.4,1,13.5,3.5c5.9,3.4,9.7,10.2,9.6,17c0.3,6.1-1.7,12-5,17.1
		c-6.4,9.7-17.7,16.8-29.6,15.4c-6-0.3-10.9-4.2-15.1-8.2c-9.6,9.8-22,18.1-36,19.1c-13.7-1.5-25.9-9.4-35.2-19.2
		c-4.1,4-8.9,8-14.9,8.3c-11.8,1.4-23.3-5.6-29.6-15.3c-2.2-3.4-3.9-7.1-4.9-11.1c-0.2-3.6-0.4-7.2,0.3-10.8
		c1.4-5.9,5.6-11.1,11.1-13.5c3.1-1.4,6.5-1.6,9.8-2.1c-2.5-6.7-3.1-14-1.4-21c-2-1.2-4.1-2.3-5.8-3.9c-0.5-3.3,0.8-6.6,1.7-9.8
		c-1.9-3.1-6.1-8-2.2-11.2c4.4-4.3,10.9-3.6,16.5-3.1c-0.9-6.9-2.4-13.9-1.2-20.8c0.5-5.1,2.5-9.8,4.2-14.7c1-2.5-0.8-4.9-1.6-7.3
		C64.5,69.5,63.5,60.5,66.8,52.7 M70.1,52.9c-2.9,8.4-2.1,17.8,2,25.7c1-1.2,2.2-2.4,3-3.7c-0.1-3-1-5.9-1-8.8
		c-0.2-3.8,1.9-7.4,1-11.2c0.4-1.4-0.1-3.6,1.8-3.7c2.4,3.8,2.5,8.8,6,11.9c1.1,1.1,2.8,0.6,4,0.1c3.5-1.7,6.7-3.7,9.9-5.8
		c-5.8-3.6-11.9-8.2-19.1-7.8C74.9,49.3,72.5,51.2,70.1,52.9 M145.2,57.1c3.4,2.2,6.8,4.5,10.5,6.2c2.1,1.2,4.1-0.9,5.2-2.4
		c2.4-3.1,2.1-7.7,5.2-10.2c0.4,1.8,0.6,3.6,0.8,5.3c-0.3,3.4,1.3,6.6,1.4,10c-0.2,3-1.2,5.8-1.2,8.8c0.8,1.4,1.8,2.5,2.8,3.8
		c4.5-8,5.1-17.7,2-26.3c-3.3-2-7-3.5-10.9-2.7C155.1,50.6,150.1,54.1,145.2,57.1 M110.8,56.9C96.1,59.9,82,68.6,74.9,82
		c-2.8,3.5-3.9,8-5.3,12.2c-2.5,11-1.4,22.9,4.1,32.9c2.4,4.4,5,8.9,9.4,11.6c2.7-0.8,5.1-2.3,7.7-3.4c7.3-2.4,15.3-2.3,22.7,0
		c3.4,0.7,6.9,3.3,10.5,1.7c7.6-2.9,16-4.5,24.1-2.7c4.1,1,7.9,2.9,11.9,4.4c11.9-11.4,16.8-29.5,12.3-45.3
		c-1.4-5.2-3.3-10.5-6.9-14.5c-4.5-7.8-12-13.4-19.9-17.4C134.7,56.2,122.4,55.2,110.8,56.9 M77.4,62.6c0.3,2.7-1,6.2,1.5,8.1
		c1-0.9,2-1.9,2.8-3C81.6,65.2,78.9,64.1,77.4,62.6 M160.1,67c1.2,1.6,2.7,2.9,4.1,4.2c0.4-2.9,0.5-5.8,0.5-8.7
		C163,63.9,161.4,65.3,160.1,67 M180.8,120.8l-0.3,0.7c-1.3,0.1-2.6,0.1-3.8,0.2c0,6-0.8,11.9-2.5,17.6c-1.9,2.8-3.6,5.7-5.1,8.7
		c4.3,6.9,6.4,14.8,6.8,22.9c1.7-0.4,3.4-0.9,5-1.3c-0.2-5.6-2-10.9-2.8-16.3c0.3-0.4,0.8-1.2,1-1.6c3.2,2.7,3.4,7.4,4.9,11.1
		c3.8-3.8,7.2-8,9.3-13c2.7-4.5,5.4-9.3,5.6-14.6c0.1-3.9,0.6-8.3-2.5-11.3C192.5,119.2,185.9,119.9,180.8,120.8 M51.8,125.3
		c0.6,3.8,3.3,6.6,6.3,8.7c-0.1-4.2,1.9-7.9,4-11.4C58.5,122.7,55,123.7,51.8,125.3 M61.8,130.2c-1,2.5,0.8,4.8,2,6.9
		c1.1-0.4,2.1-0.9,3.2-1.3c-0.3-3.3-0.8-6.7-1.8-9.9C64,127.2,62.7,128.6,61.8,130.2 M69.9,130.3c-0.6,2.7,0.7,4.4,3.4,4.9
		C72.3,133.4,71.2,131.8,69.9,130.3 M163.5,142.1c1.1,1,2.2,2,3.3,2.9c2.5-4.4,4.6-9,5.1-14.1C169.1,134.6,166.5,138.4,163.5,142.1
		 M53.9,143.1c1.5,0.1,3.1,0.9,4.5,0.3c1.4-1.2,2.1-3.1,2.9-4.8c-1.9-0.8-3.8-1.6-5.8-2.4C54.8,138.4,54.3,140.7,53.9,143.1
		 M85.5,141.7c0.4,0.6,1.2,1.7,1.6,2.3c1.1,2.6,2.2,5.2,2.9,7.8c0.6,7.7-0.8,16.1-6.6,21.7c-3,3.4-7.7,3.9-11.7,5.6
		c2.9,14.4,10.9,27.6,22,37.1c8.2,6.8,18.2,12.8,29.1,12.6c11.7-1.5,22.2-8.3,30.3-16.6c9.1-9.6,16.5-21.8,17.8-35.2
		c1.5-4.9,1.6-10.2,0.1-15.1c-2.2-13.1-13.9-23.8-27.1-24.9c-6.7-0.9-13.3,1.2-19.5,3.3c-5.5,1.6-10.5-2-15.8-2.7
		C100.8,135.8,92.3,137.2,85.5,141.7 M65.5,140.5c-6.8,5.5-8.6,15.6-5.7,23.6c1.2,3,2.7,5.9,5.2,8c4.4,4.1,12.2,3.7,16.1-0.9
		c5.6-5.4,6.3-13.8,5-21.1c-1.9-6-6.6-11.6-13.1-12.3C70.3,137.9,67.6,138.8,65.5,140.5 M40,185.1c-1.7,7.5,0.8,15.5,5.7,21.3
		c5.8,7.7,15.5,13.1,25.4,11.8c4.7-1,10.2-3.3,11.8-8.2c-1.3-2.5-3.2-4.7-4.8-7.1c-5-7.6-8.4-16.3-9.9-25.3
		c-1.8-0.9-3.6-1.9-5.4-2.8c-0.8-2.4-3.6-2.7-5.7-2.5C49.3,171.9,41.7,177.5,40,185.1 M175.7,174.8c-0.7,1.5-0.9,3.2-1.3,4.8
		c-1.9,9.9-6.3,19.3-12.4,27.4c-0.8,1.4-2.7,2.9-1.5,4.5c3.6,5.2,10.4,7.6,16.6,6.9c7.6-1,14.6-5.1,19.3-11
		c6.7-7.5,10.1-19.7,3.6-28.4c-4.3-6.1-12.3-7.3-19.2-6.4C179,173.2,177.3,173.8,175.7,174.8z"/>
</g>
<g id="_x23_f8a628ff">
	<path class="st4" d="M70.1,52.9c2.3-1.6,4.8-3.5,7.8-3.5c7.2-0.4,13.2,4.2,19.1,7.8c-3.2,2.1-6.5,4.2-9.9,5.8c-1.2,0.6-2.9,1-4-0.1
		c-3.6-3.1-3.6-8.1-6-11.9c-2,0.1-1.5,2.3-1.8,3.7c-0.1,0.9-0.4,2.7-0.6,3.6C73.1,56.6,71.6,54.7,70.1,52.9z"/>
	<path class="st4" d="M145.2,57.1c4.9-3.1,10-6.5,15.8-7.6c3.9-0.8,7.6,0.8,10.9,2.7c-1.3,2.2-2.7,4.3-4.5,6.2
		c-0.1-0.6-0.4-1.8-0.5-2.4c-0.2-1.8-0.4-3.6-0.8-5.3c-3.2,2.5-2.9,7.1-5.2,10.2c-1.1,1.6-3.1,3.6-5.2,2.4
		C152,61.6,148.6,59.4,145.2,57.1z"/>
</g>
<g id="_x23_ae7742ff">
	<path class="st5" d="M171.9,52.2c3.1,8.6,2.5,18.3-2,26.3c-1-1.2-2.1-2.4-2.8-3.8c0-3,1-5.8,1.2-8.8c-0.1-3.4-1.7-6.6-1.4-10
		c0.1,0.6,0.4,1.8,0.5,2.4C169.2,56.6,170.6,54.5,171.9,52.2z"/>
</g>
<g id="_x23_ac7742ff">
	<path class="st6" d="M72.2,78.5c-4.1-7.9-4.9-17.2-2-25.7c1.5,1.9,3,3.7,4.5,5.5c0.1-0.9,0.4-2.7,0.6-3.6c0.9,3.8-1.2,7.4-1,11.2
		c0,3,0.9,5.9,1,8.8C74.3,76.2,73.2,77.3,72.2,78.5z"/>
</g>
<g id="_x23_f7db8fff">
	<path class="st7" d="M110.8,56.9c11.7-1.7,24-0.7,34.6,4.7c7.9,4,15.4,9.6,19.9,17.4c-8.7-7.9-18.2-15.7-30-18.2
		c-2-0.4-3.4,1.5-5,2.4c-3.6,3-8.5,2.8-12.9,2.4c-3.7-0.3-6.2-3.3-9.4-4.8c-5.3,0.5-10.1,3.1-14.7,5.5C86,70.1,80.5,76.2,74.9,82
		C82,68.6,96.1,59.9,110.8,56.9z"/>
</g>
<g id="_x23_f7a528ff">
	<path class="st8" d="M108,60.8c3.2,1.5,5.7,4.5,9.4,4.8c4.3,0.4,9.3,0.6,12.9-2.4c1.6-0.9,3-2.8,5-2.4c11.8,2.5,21.3,10.3,30,18.2
		c3.6,4,5.5,9.3,6.9,14.5l0,0.9c-5.8,2.3-10.8,6.4-14.2,11.6c-2,2.4-3.5,6.2-7,6.5c-4.3-3.1-7.5-7.3-11.4-10.9
		c4.2-0.4,8.4,0.1,12.5,0.9c-3.6-2.2-7.4-4-11.3-5.6c4.2-3,9.4-3.6,14.4-3.7c-4-1.7-8.5-2.7-12.8-1.5c-3.9,1.1-6.5,4.3-9.1,7.2
		c-7.2-3.8-15.9-3-23.5-1c-0.3-3.4,0.1-7.5-2.8-10c-2.7-2.9-7.3-3.3-10.8-1.4c-3.2,1.7-6.6,3.1-10.3,3.5c1.5,1.1,3.1,2.1,4.6,3.2
		c0.6,2.3,1.1,4.7,2.4,6.8c1.6,2.4,4.4,3.4,7,4.4c-3.3,2.4-5.6,6-9.1,8.1c-3.2-0.2-4.6-3.8-6.4-6c-3.5-5.6-8.7-10-14.8-12.3
		C71,90,72.1,85.6,74.9,82c5.6-5.8,11.1-12,18.4-15.8C97.9,63.9,102.7,61.2,108,60.8 M91.8,76.3c0.5,1.9,1.3,3.9,3.5,4.3
		c3.7,1.7,7.6-0.1,10.8-1.9c-0.9-1.3-1.5-3.1-3-3.8C99.4,73.6,95.3,74.4,91.8,76.3 M135.8,78.1c3.3,3,8.2,4.3,12.2,2
		c2.5-0.6,2.3-4.3-0.1-5C143.8,73.5,138.2,73.7,135.8,78.1z"/>
</g>
<g id="_x23_313233ff">
	<path class="st9" d="M20.4,66c0-1.8,2.3-2.5,3.3-3.7c1.4,0.8,2.7,1.5,4.1,2.3c-0.6,2.4-2,4.5-3.7,6.3C22.7,69.4,19.9,68.4,20.4,66z
		"/>
</g>
<g id="_x23_f15c97ff">
	<path class="st10" d="M77.4,62.6c1.5,1.5,4.2,2.7,4.3,5.1c-0.8,1.1-1.8,2.1-2.8,3C76.5,68.8,77.8,65.2,77.4,62.6z"/>
</g>
<g id="_x23_f15c98ff">
	<path class="st11" d="M160.1,67c1.3-1.7,2.9-3.1,4.6-4.5c0.1,2.9-0.1,5.8-0.5,8.7C162.8,69.9,161.3,68.6,160.1,67z"/>
</g>
<g id="_x23_323233ff">
	<path class="st12" d="M222.2,64.3c2.3-1,5.9-2.1,7.4,0.7c0.8,2.7-1.6,4.2-3.3,5.7C223.9,69.2,222.7,66.9,222.2,64.3z"/>
	<path class="st12" d="M96.4,86.5c3.4-1.9,8-1.5,10.8,1.4c2.9,2.5,2.5,6.5,2.8,10c-2.4,3.4-5.8,5.9-9.9,6.6c-2.5-1-5.3-2-7-4.4
		c-1.3-2-1.8-4.5-2.4-6.8c-1.5-1.1-3-2.2-4.6-3.2C89.8,89.6,93.1,88.2,96.4,86.5 M101.3,91c-0.6,1.8,1.8,2.8,2.6,4.1
		c1.1-1.2,3.4-2,2.8-4C107.2,87.7,101.4,87.8,101.3,91z"/>
</g>
<g id="_x23_fbfcfbff">
	<path class="st13" d="M91.8,76.3c3.4-1.9,7.6-2.7,11.4-1.4c1.5,0.8,2.1,2.5,3,3.8c-3.3,1.8-7.2,3.6-10.8,1.9
		C93.2,80.2,92.4,78.2,91.8,76.3z"/>
	<path class="st13" d="M135.8,78.1c2.4-4.3,8-4.6,12.2-3c2.4,0.6,2.5,4.3,0.1,5C144,82.4,139.1,81.1,135.8,78.1z"/>
</g>
<g id="_x23_2e2f31ff">
	<path class="st14" d="M206.3,78.3c2.8-0.9,5.8-0.6,8.7-0.5c3.3,0.2,6.6,2.9,6.6,6.4c0.6,5.5-3.6,10.7-8.7,12.2
		c-5.1,0.5-9.4-4-10.9-8.5C200.5,84.2,202.5,79.5,206.3,78.3 M206.7,82.2c-0.4,0-1.2,0-1.6,0c-0.5,4.3,1.3,9.3,5.9,10.4
		c4.8,0.3,7.9-5.4,7.4-9.7c-0.5-0.4-1.5-1.1-1.9-1.5C213.2,81.5,209.8,81,206.7,82.2z"/>
</g>
<g id="_x23_fb90afff">
	<path class="st15" d="M206.7,82.2c3.1-1.1,6.5-0.7,9.8-0.8c0.5,0.4,1.5,1.1,1.9,1.5C214.5,82.6,210.6,82.4,206.7,82.2z"/>
	<path class="st15" d="M183.8,93.6c3.9-2.1,8.8-1.5,12.9-0.1C192.4,93.6,188.1,93.6,183.8,93.6z"/>
	<path class="st15" d="M206.6,108.4c3.7-1.2,8.1-1.5,11.7,0.3C214.3,108.7,210.4,108.5,206.6,108.4z"/>
	<path class="st15" d="M85.5,141.7c6.7-4.5,15.3-5.9,23.2-4.1c5.3,0.8,10.3,4.4,15.8,2.7c6.3-2.1,12.8-4.2,19.5-3.3
		c13.2,1.1,24.9,11.8,27.1,24.9c-1.1-2.2-2.4-4.2-3.7-6.3c-2.5,1.4-5.2,3.5-8.3,2.5c-6.3-1.4-12.4-4.9-16.2-10.2
		c-1.7-2.2-0.9-5-0.8-7.5c-4.1,0.2-8.2,0.5-12.2,1.6c-3.8,1-7.7,2.7-11.6,1.5c-5.1-1.3-10.1-3.2-15.3-3.1
		c-5.5-0.2-10.8,1.5-15.8,3.5C86.8,143.4,85.9,142.3,85.5,141.7z"/>
</g>
<g id="_x23_f9256dff">
	<path class="st16" d="M205.2,82.1c0.4,0,1.2,0,1.6,0c3.9,0.2,7.8,0.4,11.7,0.7c0.5,4.3-2.6,10-7.4,9.7
		C206.4,91.4,204.7,86.4,205.2,82.1z"/>
</g>
<g id="_x23_fefefeff">
	<path class="st17" d="M101.3,91c0-3.2,5.8-3.3,5.4,0.1c0.6,2-1.7,2.8-2.8,4C103.1,93.8,100.7,92.8,101.3,91z"/>
</g>
<g id="_x23_2d2f30ff">
	<path class="st18" d="M183.5,89.6c2.6-1.4,5.7-0.7,8.6-0.9c3.7-0.4,7.9,2.4,7.7,6.4c0.7,5.8-4.2,11.4-9.8,12.3
		c-5.5-0.7-9.9-5.9-10.3-11.4C179.8,93.4,181.2,90.8,183.5,89.6 M183.8,93.6l-0.9,0c0.3,4.1,2,8.5,6.2,9.9c5.1,0.3,7.9-5.6,7.6-10
		C192.6,92.1,187.7,91.5,183.8,93.6z"/>
</g>
<g id="_x23_313132ff">
	<path class="st19" d="M142.6,91.7c4.3-1.2,8.8-0.2,12.8,1.5c-5,0.1-10.2,0.7-14.4,3.7c3.9,1.7,7.7,3.4,11.3,5.6
		c-4.1-0.8-8.3-1.3-12.5-0.9c-2.6,0.5-5.1-0.1-6.2-2.7C136.1,96,138.7,92.8,142.6,91.7z"/>
	<path class="st19" d="M23,139.5c0.4-0.1,1.2-0.2,1.5-0.2c1.1,3.7,4.2,5.9,7.4,7.6c-3.3,1.3-6.3,3.3-7.3,7c-0.5,0-1.4-0.1-1.9-0.2
		c-0.4-1.4-0.9-2.7-1.3-4.1c-1.9-0.9-3.7-1.7-5.5-2.6C18.9,145.1,22.3,143.3,23,139.5z"/>
	<path class="st19" d="M225.5,139.2c0.4,0.1,1.2,0.2,1.5,0.2c0.7,3.9,4,5.7,7.1,7.5c-1.8,0.9-3.7,1.8-5.5,2.7
		c-0.4,1.3-0.9,2.7-1.3,4.1c-0.5,0-1.4,0.1-1.9,0.2c-1-3.6-4-5.6-7.3-7C221.3,145.1,224.4,142.9,225.5,139.2z"/>
</g>
<g id="_x23_aeb1d4ff">
	<path class="st20" d="M172.2,93.5c4.5,15.8-0.5,33.9-12.3,45.3c-3.9-1.5-7.7-3.4-11.9-4.4c5.1,0.7,8.8-3,11.8-6.6
		c7.9-9.2,13.1-21.1,12.5-33.4L172.2,93.5z"/>
</g>
<g id="_x23_f9256eff">
	<path class="st21" d="M182.8,93.6l0.9,0c4.3,0,8.6,0,12.9-0.1c0.3,4.4-2.5,10.4-7.6,10C184.9,102.1,183.1,97.7,182.8,93.6z"/>
</g>
<g id="_x23_adb0d4ff">
	<path class="st22" d="M73.7,127.1c-5.5-10-6.6-21.9-4.1-32.9c0,16.1,8.1,31.8,21.2,41.1c-2.6,1.1-5,2.5-7.7,3.4
		C78.8,136.1,76.1,131.5,73.7,127.1z"/>
</g>
<g id="_x23_313131ff">
	<path class="st23" d="M110.6,106c0.6-3.1,3.4-5.5,6.5-5.9c5.1-1,12.2-0.7,14.4,4.9c0,4.3-4.4,6.6-7.8,8.1c1.4,2.8,4.6,4.5,7.5,2.9
		c1.8-0.4,4.8-3.1,5.4-0.1c-1.3,2.7-4.9,3.6-6,6.6c-2.3,5.2-9.2,7.7-14.1,4.9c-4.3-1.7-4.7-7.2-8.8-9.2c-1.7-0.7-1.3-2.6-1.5-4
		c2.6,0.7,5,2.4,7.8,2.4c2.1,0.1,3.4-1.9,4.8-3.1C115.5,111.7,111.7,109.8,110.6,106 M115.2,122c3.2,3.5,8.9,3.7,12,0
		c-1.9-1.1-3.8-2.9-6.2-2.6C118.7,119.3,117,121,115.2,122z"/>
</g>
<g id="_x23_2a2f2fff">
	<path class="st24" d="M206.5,104.6c3.1-0.5,6.4-0.2,9.6-0.2c5-0.3,7.9,6.2,5.7,10.3c-1.7,4.4-6.1,8.9-11.2,7.8
		c-4.9-1.8-8.9-6.9-8.1-12.3C202.5,107.7,204.3,105.6,206.5,104.6 M206.6,108.4c-3.7,4.8,4,13.6,9,9.2c2.8-2.1,3.3-5.6,3.7-8.9l-1,0
		C214.7,106.9,210.2,107.1,206.6,108.4z"/>
</g>
<g id="_x23_fa266eff">
	<path class="st25" d="M215.6,117.5c-5,4.4-12.7-4.4-9-9.2c3.9,0.2,7.8,0.3,11.7,0.3l1,0C218.9,111.9,218.4,115.5,215.6,117.5z"/>
	<path class="st25" d="M51.8,125.3c3.2-1.6,6.7-2.7,10.3-2.7c-2.1,3.5-4.1,7.1-4,11.4C55,131.9,52.3,129.1,51.8,125.3z"/>
</g>
<g id="_x23_f9266eff">
	<path class="st26" d="M115.2,122c1.8-1.1,3.6-2.7,5.8-2.6c2.4-0.2,4.3,1.5,6.2,2.6C124,125.8,118.4,125.5,115.2,122z"/>
</g>
<g id="_x23_f5a327ff">
	<path class="st27" d="M176.6,121.6c1.3-0.1,2.6-0.1,3.8-0.2c-2.4,5.4-3.9,11.5-2,17.3c1,4.5,4.2,8,7.6,11
		c-5.9-0.1-11.1-4.6-11.9-10.5C175.7,133.4,176.6,127.5,176.6,121.6z"/>
</g>
<g id="_x23_fb256fff">
	<path class="st28" d="M61.8,130.2c0.9-1.6,2.2-2.9,3.4-4.3c0.9,3.2,1.4,6.6,1.8,9.9c-1.1,0.4-2.1,0.9-3.2,1.3
		C62.6,135,60.8,132.7,61.8,130.2z"/>
</g>
<g id="_x23_9a2c51ff">
	<path class="st29" d="M69.9,130.3c1.3,1.5,2.5,3.1,3.4,4.9C70.6,134.7,69.2,133,69.9,130.3z"/>
</g>
<g id="_x23_f82b72ff">
	<path class="st30" d="M163.5,142.1c3-3.6,5.6-7.4,8.5-11.2c-0.5,5.1-2.7,9.7-5.1,14.1C165.7,144,164.6,143,163.5,142.1z"/>
</g>
<g id="_x23_fb266fff">
	<path class="st31" d="M53.9,143.1c0.4-2.3,0.9-4.6,1.7-6.9c1.9,0.8,3.9,1.6,5.8,2.4c-0.8,1.7-1.5,3.5-2.9,4.8
		C57,143.9,55.3,143.1,53.9,143.1z"/>
</g>
<g id="_x23_ac7642ff">
	<path class="st32" d="M169,147.9c1.5-3,3.2-6,5.1-8.7c0.8,5.9,6,10.3,11.9,10.5c2.4,0.1,4.8,0,7.2,0c-2.2,4.9-5.5,9.2-9.3,13
		c-1.5-3.7-1.6-8.4-4.9-11.1c-0.3,0.4-0.8,1.2-1,1.6c0.8,5.5,2.6,10.8,2.8,16.3c-1.7,0.4-3.4,0.9-5,1.3
		C175.3,162.7,173.3,154.8,169,147.9z"/>
</g>
<g id="_x23_f9266dff">
	<path class="st33" d="M87.2,144c5.1-2,10.4-3.7,15.8-3.5c5.3-0.1,10.3,1.8,15.3,3.1c3.9,1.1,7.9-0.6,11.6-1.5
		c3.9-1.1,8.1-1.4,12.2-1.6c-0.2,2.5-0.9,5.3,0.8,7.5c3.8,5.3,9.9,8.8,16.2,10.2c3.1,0.9,5.8-1.1,8.3-2.5c1.2,2.1,2.5,4.2,3.7,6.3
		c1.5,4.9,1.4,10.2-0.1,15.1c-6.8,15-17.2,29.1-31.9,37c-6.8,3.5-14.6,6.8-22.3,5.1c-11.6-2.6-21.8-9.6-29.8-18.1
		c-3.4-3.9-7.5-8.3-7.4-13.8c1.1-5.3,5.8-8.8,8.4-13.3c4-6.6,3.7-14.9,2.1-22.2C89.3,149.1,88.2,146.6,87.2,144 M93.8,180
		c0.6,2.2,1.2,4.7,3.4,5.9c2,1.4,5.9,3.2,7.3,0.1C102.7,181.6,97.9,180.3,93.8,180 M96.4,191.5c-2.6,0.8-3.4,4-2.4,6.3
		c2,5,6.5,8.4,11,11.2c5.3,3,11.4,5.8,17.6,4.6c3.4-0.6,3.9-5,2.3-7.5c-3.1-5.1-8.1-8.9-13.3-11.6
		C106.9,192.2,101.7,190.3,96.4,191.5z"/>
</g>
<g id="_x23_adb0d3ff">
	<path class="st34" d="M86.1,150c1.4,7.3,0.7,15.7-5,21.1c-4,4.6-11.7,5-16.1,0.9c-2.5-2-4-5-5.2-8c4,3.1,9.2,5.9,14.4,4.1
		C81.8,165.8,86.2,157.8,86.1,150z"/>
	<path class="st34" d="M41.3,206.2c6.3,9.7,17.8,16.6,29.6,15.3c6-0.3,10.8-4.3,14.9-8.3c9.3,9.8,21.5,17.7,35.2,19.2
		c14-1,26.4-9.3,36-19.1c4.2,4,9,8,15.1,8.2c11.9,1.3,23.2-5.8,29.6-15.4c0.4,0.3,1.4,0.9,1.8,1.2c4.2,3.1,10,5.4,11.6,10.8
		c1.1,4.1-2.2,7.5-5.2,9.7c-9,6.6-20.3,8.6-30.9,11.2c-22.6,4.9-45.9,5.8-68.9,5.3c-12.3-0.7-24.6-1.4-36.8-3.6
		c-11.1-1.6-22.2-4.1-32.6-8.5c-4.1-1.9-8.4-4.1-11.3-7.7c-2-2.4-2.5-6.2-0.7-8.9C31.8,211.3,37.1,209.3,41.3,206.2z"/>
</g>
<g id="_x23_bc1d72ff">
	<path class="st35" d="M90.1,151.8c1.6,7.3,1.9,15.6-2.1,22.2c-2.6,4.5-7.3,8-8.4,13.3c-0.1,5.5,4,9.9,7.4,13.8
		c8.1,8.5,18.3,15.5,29.8,18.1c7.8,1.8,15.5-1.6,22.3-5.1c14.8-8,25.1-22,31.9-37c-1.3,13.4-8.8,25.5-17.8,35.2
		c-8.1,8.3-18.6,15.1-30.3,16.6c-10.9,0.2-20.9-5.8-29.1-12.6c-11-9.6-19.1-22.8-22-37.1c4-1.7,8.7-2.2,11.7-5.6
		C89.3,167.9,90.7,159.5,90.1,151.8z"/>
</g>
<g id="_x23_2f2f31ff">
	<path class="st36" d="M19.9,168.9c2.3-1.5,5.9-3,7.4,0.3c1.2,3.4-2.4,5-5.2,4.8C20.9,172.6,20.5,170.6,19.9,168.9z"/>
	<path class="st36" d="M224.5,167.4c2-1,3.8,0.8,5.6,1.5c-0.6,1.8-1,3.7-2.3,5.1c-1.4-0.2-2.8-0.4-4.1-0.8
		C221.9,171.6,222.1,168.3,224.5,167.4z"/>
</g>
<g id="_x23_aeb2d5ff">
	<path class="st37" d="M175.7,174.8c1.6-0.9,3.4-1.6,5.1-2.2c-0.2,0.4-0.8,1.3-1,1.8c1,5.4,1.6,10.9,1.7,16.4c1.2,0.5,2.4,1,3.6,1.5
		c-7.6-1-15.1,5.1-15.4,12.8c-0.4,4.6,3.8,8.9,8.4,8.6c5.2,0.2,9.1-3.8,12.1-7.6c0,0.4,0,1.2,0,1.6c2.1,0,4.2-0.1,6.3-0.2
		c-4.8,5.9-11.8,10-19.3,11c-6.2,0.7-12.9-1.7-16.6-6.9c-1.2-1.7,0.7-3.1,1.5-4.5c6.1-8.1,10.5-17.5,12.4-27.4
		C174.7,177.9,175,176.3,175.7,174.8z"/>
</g>
<g id="_x23_aeb1d5ff">
	<path class="st38" d="M62.7,174.9c1.8,0.9,3.6,1.8,5.4,2.8c1.4,9,4.9,17.6,9.9,25.3c1.5,2.4,3.4,4.6,4.8,7.1
		c-1.6,4.8-7.1,7.2-11.8,8.2c-9.8,1.3-19.5-4.1-25.4-11.8c2.4,0.7,4.8,1.2,7.2,1.5c0-0.5-0.1-1.4-0.2-1.9c2.9,3.9,7,7.8,12.3,7.6
		c5.6,0.3,9.9-6.2,7.8-11.3c-1.3-5.4-6.4-8.5-11.1-10.7C61.4,186,62,180.4,62.7,174.9z"/>
</g>
<g id="_x23_fe6998ff">
	<path class="st39" d="M93.8,180c4.2,0.3,9,1.7,10.6,6c-1.3,3.1-5.3,1.3-7.3-0.1C94.9,184.7,94.4,182.2,93.8,180z"/>
</g>
<g id="_x23_fe6898ff">
	<path class="st40" d="M96.4,191.5c5.2-1.2,10.5,0.7,15.1,3c5.3,2.7,10.2,6.5,13.3,11.6c1.6,2.5,1.1,6.9-2.3,7.5
		c-6.2,1.2-12.3-1.5-17.6-4.6c-4.4-2.8-9-6.2-11-11.2C93,195.5,93.8,192.2,96.4,191.5z"/>
</g>
<g id="_x23_333333ff">
	<path class="st41" d="M52.8,195.9c1.8-3.2,5.7-3.6,8.9-4.2c4.7,2.2,9.7,5.2,11.1,10.7c2.1,5.1-2.1,11.6-7.8,11.3
		c-5.3,0.3-9.3-3.7-12.3-7.6C51.8,202.8,50.5,198.9,52.8,195.9z"/>
	<path class="st41" d="M169.6,205c0.3-7.7,7.8-13.8,15.4-12.8c2.5,0.9,4.9,2.6,5.8,5.3c1.3,2.8-0.1,5.8-0.7,8.6
		c-3,3.8-6.9,7.8-12.1,7.6C173.4,213.9,169.2,209.6,169.6,205z"/>
</g>
</svg>
