<?xml version="1.0" encoding="UTF-8" ?>
<!DOCTYPE svg PUBLIC "-//W3C//DTD SVG 1.1//EN" "http://www.w3.org/Graphics/SVG/1.1/DTD/svg11.dtd">
<svg width="250pt" height="250pt" viewBox="0 0 250 250" version="1.1" xmlns="http://www.w3.org/2000/svg">
<g id="#fefefaff">
<path fill="#fefefa" opacity="1.00" d=" M 0.00 0.00 L 104.60 0.00 C 91.15 4.88 75.81 6.78 63.91 15.81 C 60.99 17.12 58.16 18.63 55.85 20.89 C 54.88 21.51 53.92 22.15 52.96 22.78 C 42.81 27.86 34.63 37.07 27.76 45.93 C 23.44 51.71 18.83 57.43 16.11 64.19 L 15.79 64.86 C 14.33 67.13 13.04 69.51 11.89 71.95 C 9.62 75.65 8.23 79.78 6.84 83.86 C 5.05 89.78 3.53 95.79 1.86 101.76 C 1.24 102.99 0.62 104.22 0.00 105.45 L 0.00 0.00 Z" />
<path fill="#fefefa" opacity="1.00" d=" M 144.40 0.00 L 250.00 0.00 L 250.00 106.58 C 248.71 104.85 247.78 102.90 246.92 100.94 C 244.86 91.65 242.26 82.55 237.98 74.00 C 237.96 72.44 237.33 70.94 236.13 69.93 C 236.51 68.26 235.80 66.58 234.11 66.04 C 233.30 63.36 231.82 60.98 230.02 58.85 C 229.39 57.92 228.74 56.99 228.12 56.06 C 225.81 51.53 223.09 47.06 219.13 43.79 C 215.36 39.96 211.84 35.87 207.85 32.26 C 205.72 28.97 203.07 25.80 199.10 24.88 C 198.85 24.66 198.36 24.23 198.11 24.02 C 196.68 21.77 194.43 20.46 191.85 19.96 C 188.56 17.97 185.14 16.21 181.96 14.05 C 173.76 8.98 164.74 4.84 155.02 3.93 C 151.77 1.75 147.42 2.51 144.40 0.00 Z" />
</g>
<g id="#f7f991ff">
<path fill="#f7f991" opacity="1.00" d=" M 104.60 0.00 L 117.53 0.00 C 104.22 3.31 90.06 4.50 77.34 10.36 C 72.66 11.70 68.93 15.73 63.91 15.81 C 75.81 6.78 91.15 4.88 104.60 0.00 Z" />
</g>
<g id="#f3ea2bff">
<path fill="#f3ea2b" opacity="1.00" d=" M 117.53 0.00 L 130.58 0.00 C 138.74 1.23 146.71 3.74 155.02 3.93 C 162.39 8.29 171.79 8.84 179.02 13.97 C 181.24 15.87 185.13 16.47 185.24 19.95 C 182.09 18.71 178.85 17.62 175.87 16.00 C 152.19 3.46 123.81 1.32 97.84 7.50 C 80.21 12.27 63.82 20.61 49.16 31.21 C 45.99 33.15 43.11 37.39 38.90 35.97 C 42.79 30.63 49.14 27.98 52.96 22.78 C 53.92 22.15 54.88 21.51 55.85 20.89 C 58.77 19.71 62.62 19.10 63.91 15.81 C 68.93 15.73 72.66 11.70 77.34 10.36 C 90.06 4.50 104.22 3.31 117.53 0.00 Z" />
</g>
<g id="#f8f995ff">
<path fill="#f8f995" opacity="1.00" d=" M 130.58 0.00 L 144.40 0.00 C 147.42 2.51 151.77 1.75 155.02 3.93 C 146.71 3.74 138.74 1.23 130.58 0.00 Z" />
</g>
<g id="#f6d20bff">
<path fill="#f6d20b" opacity="1.00" d=" M 97.84 7.50 C 123.81 1.32 152.19 3.46 175.87 16.00 C 172.91 16.52 163.45 17.43 167.54 21.45 C 168.89 24.44 171.60 20.96 173.68 20.64 C 172.31 22.98 173.15 26.03 171.00 28.00 C 169.94 29.90 166.44 31.93 169.17 33.96 C 172.66 34.21 173.65 30.29 175.23 27.98 C 177.95 29.73 179.24 32.24 176.96 34.93 C 180.80 37.97 182.71 44.35 175.71 44.14 C 170.88 41.51 166.05 38.82 160.86 36.95 C 137.07 27.08 109.17 27.24 85.56 37.63 C 78.03 41.39 70.59 45.62 64.12 51.07 C 52.83 52.06 57.32 40.62 62.19 36.22 C 67.04 32.62 70.64 26.25 77.28 26.14 C 81.03 19.92 87.95 16.08 94.77 13.86 C 96.12 10.76 102.96 10.90 97.84 7.50 Z" />
</g>
<g id="#f8f897ff">
<path fill="#f8f897" opacity="1.00" d=" M 155.02 3.93 C 164.74 4.84 173.76 8.98 181.96 14.05 C 181.23 14.03 179.76 13.99 179.02 13.97 C 171.79 8.84 162.39 8.29 155.02 3.93 Z" />
</g>
<g id="#efc50bff">
<path fill="#efc50b" opacity="1.00" d=" M 49.16 31.21 C 63.82 20.61 80.21 12.27 97.84 7.50 C 102.96 10.90 96.12 10.76 94.77 13.86 C 87.95 16.08 81.03 19.92 77.28 26.14 C 70.64 26.25 67.04 32.62 62.19 36.22 C 57.32 40.62 52.83 52.06 64.12 51.07 C 58.63 55.22 54.22 60.51 49.97 65.87 C 49.52 66.17 48.64 66.78 48.20 67.08 C 45.21 66.69 43.03 69.03 40.18 69.33 C 42.44 64.49 44.35 58.67 39.26 54.75 C 34.30 50.13 46.89 44.66 39.30 40.92 C 40.32 45.35 33.59 44.92 34.67 49.41 C 32.48 49.26 30.62 50.40 28.79 51.43 C 29.70 45.70 36.23 42.34 37.98 36.90 C 38.21 36.67 38.67 36.20 38.90 35.97 C 43.11 37.39 45.99 33.15 49.16 31.21 Z" />
</g>
<g id="#eed944ff">
<path fill="#eed944" opacity="1.00" d=" M 179.02 13.97 C 179.76 13.99 181.23 14.03 181.96 14.05 C 185.14 16.21 188.56 17.97 191.85 19.96 C 193.51 21.88 195.68 23.27 198.11 24.02 C 198.36 24.23 198.85 24.66 199.10 24.88 C 201.83 27.52 204.40 30.52 207.85 32.26 C 211.84 35.87 215.36 39.96 219.13 43.79 C 216.85 44.26 213.60 46.75 212.99 42.04 C 205.21 32.42 196.24 25.21 185.24 19.95 C 185.13 16.47 181.24 15.87 179.02 13.97 Z" />
</g>
<g id="#f5f387ff">
<path fill="#f5f387" opacity="1.00" d=" M 55.85 20.89 C 58.16 18.63 60.99 17.12 63.91 15.81 C 62.62 19.10 58.77 19.71 55.85 20.89 Z" />
</g>
<g id="#eaba0cff">
<path fill="#eaba0c" opacity="1.00" d=" M 167.54 21.45 C 163.45 17.43 172.91 16.52 175.87 16.00 C 178.85 17.62 182.09 18.71 185.24 19.95 C 196.24 25.21 205.21 32.42 212.99 42.04 C 213.60 46.75 216.85 44.26 219.13 43.79 C 217.19 49.49 223.77 53.72 228.12 56.06 C 228.74 56.99 229.39 57.92 230.02 58.85 C 229.38 62.13 231.82 64.22 234.11 66.04 C 233.51 67.68 234.07 69.89 236.13 69.93 L 235.58 70.44 C 231.18 74.82 241.85 79.42 239.71 85.07 C 229.21 81.00 217.73 81.90 206.98 79.17 C 203.28 78.46 201.03 75.69 202.85 71.97 C 196.81 60.79 186.54 51.39 175.71 44.14 C 182.71 44.35 180.80 37.97 176.96 34.93 C 179.24 32.24 177.95 29.73 175.23 27.98 C 173.65 30.29 172.66 34.21 169.17 33.96 C 166.44 31.93 169.94 29.90 171.00 28.00 C 173.15 26.03 172.31 22.98 173.68 20.64 C 171.60 20.96 168.89 24.44 167.54 21.45 Z" />
</g>
<g id="#f7f09dff">
<path fill="#f7f09d" opacity="1.00" d=" M 191.85 19.96 C 194.43 20.46 196.68 21.77 198.11 24.02 C 195.68 23.27 193.51 21.88 191.85 19.96 Z" />
</g>
<g id="#f7f091ff">
<path fill="#f7f091" opacity="1.00" d=" M 27.76 45.93 C 34.63 37.07 42.81 27.86 52.96 22.78 C 49.14 27.98 42.79 30.63 38.90 35.97 C 38.67 36.20 38.21 36.67 37.98 36.90 C 34.57 39.90 31.58 43.41 27.76 45.93 Z" />
</g>
<g id="#faf1a4ff">
<path fill="#faf1a4" opacity="1.00" d=" M 199.10 24.88 C 203.07 25.80 205.72 28.97 207.85 32.26 C 204.40 30.52 201.83 27.52 199.10 24.88 Z" />
</g>
<g id="#bd6c04ff">
<path fill="#bd6c04" opacity="1.00" d=" M 85.56 37.63 C 109.17 27.24 137.07 27.08 160.86 36.95 C 161.39 38.96 166.20 43.28 161.99 43.16 C 145.30 35.19 125.99 33.30 107.91 36.78 C 101.02 37.27 94.84 40.77 88.24 42.53 C 85.57 42.38 86.05 39.52 85.56 37.63 Z" />
</g>
<g id="#e1bf0dff">
<path fill="#e1bf0d" opacity="1.00" d=" M 107.91 36.78 C 125.99 33.30 145.30 35.19 161.99 43.16 C 167.38 45.73 172.24 49.26 177.06 52.75 C 177.42 55.53 178.45 58.13 179.22 60.80 C 175.65 59.03 171.53 59.35 168.15 56.95 C 162.18 65.46 156.59 50.81 149.91 51.88 C 147.49 53.52 144.81 53.05 142.87 51.24 C 139.38 52.20 137.35 55.08 135.80 58.15 C 132.30 52.93 127.98 51.02 123.92 46.93 C 122.51 47.96 121.25 49.17 119.95 50.33 C 117.35 47.73 116.09 41.54 111.35 43.41 C 107.15 44.90 106.38 39.61 107.91 36.78 Z" />
</g>
<g id="#ebcc34ff">
<path fill="#ebcc34" opacity="1.00" d=" M 27.76 45.93 C 31.58 43.41 34.57 39.90 37.98 36.90 C 36.23 42.34 29.70 45.70 28.79 51.43 C 27.37 54.48 26.61 58.25 22.62 58.63 C 21.20 61.22 19.50 64.20 16.11 64.19 C 18.83 57.43 23.44 51.71 27.76 45.93 Z" />
</g>
<g id="#d9ad0cff">
<path fill="#d9ad0c" opacity="1.00" d=" M 88.24 42.53 C 94.84 40.77 101.02 37.27 107.91 36.78 C 106.38 39.61 107.15 44.90 111.35 43.41 C 116.09 41.54 117.35 47.73 119.95 50.33 C 109.74 59.88 100.47 70.38 90.63 80.28 C 88.45 80.88 84.66 79.81 84.79 82.90 C 85.80 85.22 87.21 87.45 87.10 90.08 C 87.06 92.00 87.07 93.92 87.15 95.84 C 84.96 100.23 81.87 95.14 79.20 93.85 C 77.24 89.40 73.60 83.60 68.04 83.89 C 67.59 83.86 66.70 83.80 66.25 83.77 C 64.64 82.97 62.99 82.23 61.26 81.73 C 53.47 80.61 55.03 67.88 64.00 72.73 C 71.81 75.39 70.01 68.57 65.69 67.07 C 68.80 67.10 71.89 67.65 75.00 67.91 C 73.96 65.48 76.47 61.17 73.82 59.17 C 71.73 56.99 67.08 60.59 66.40 56.73 C 72.84 50.90 80.30 46.04 88.24 42.53 Z" />
</g>
<g id="#c68606ff">
<path fill="#c68606" opacity="1.00" d=" M 160.86 36.95 C 166.05 38.82 170.88 41.51 175.71 44.14 C 186.54 51.39 196.81 60.79 202.85 71.97 C 201.03 75.69 203.28 78.46 206.98 79.17 C 205.53 80.85 203.36 80.72 201.27 80.61 C 199.60 76.54 196.67 67.66 191.13 69.96 C 191.62 69.07 192.18 68.22 192.61 67.30 C 187.67 62.24 183.84 55.61 177.06 52.75 C 172.24 49.26 167.38 45.73 161.99 43.16 C 166.20 43.28 161.39 38.96 160.86 36.95 Z" />
</g>
<g id="#c07f05ff">
<path fill="#c07f05" opacity="1.00" d=" M 64.12 51.07 C 70.59 45.62 78.03 41.39 85.56 37.63 C 86.05 39.52 85.57 42.38 88.24 42.53 C 80.30 46.04 72.84 50.90 66.40 56.73 C 62.41 59.83 61.55 65.63 56.41 67.44 C 52.07 68.75 51.72 75.34 46.94 75.05 C 46.63 71.34 51.59 70.00 49.97 65.87 C 54.22 60.51 58.63 55.22 64.12 51.07 Z" />
</g>
<g id="#e4af0dff">
<path fill="#e4af0d" opacity="1.00" d=" M 39.30 40.92 C 46.89 44.66 34.30 50.13 39.26 54.75 C 44.35 58.67 42.44 64.49 40.18 69.33 C 43.03 69.03 45.21 66.69 48.20 67.08 C 44.90 71.58 42.17 76.46 38.91 80.98 C 30.03 80.98 21.13 81.29 12.26 80.81 C 8.36 78.86 12.72 75.11 11.89 71.95 C 14.17 70.30 16.13 67.84 15.79 64.86 L 16.11 64.19 C 19.50 64.20 21.20 61.22 22.62 58.63 C 26.61 58.25 27.37 54.48 28.79 51.43 C 30.62 50.40 32.48 49.26 34.67 49.41 C 33.59 44.92 40.32 45.35 39.30 40.92 Z" />
</g>
<g id="#eddd53ff">
<path fill="#eddd53" opacity="1.00" d=" M 219.13 43.79 C 223.09 47.06 225.81 51.53 228.12 56.06 C 223.77 53.72 217.19 49.49 219.13 43.79 Z" />
</g>
<g id="#efda0bff">
<path fill="#efda0b" opacity="1.00" d=" M 119.95 50.33 C 121.25 49.17 122.51 47.96 123.92 46.93 C 127.98 51.02 132.30 52.93 135.80 58.15 C 138.00 59.42 137.75 63.09 140.59 63.16 C 145.91 69.30 152.53 74.07 158.01 79.94 C 151.61 80.75 145.05 80.65 138.75 81.72 C 135.83 88.41 130.76 80.55 127.44 77.55 C 120.67 73.62 116.08 82.71 111.57 86.16 C 107.38 78.40 97.67 81.19 90.63 80.28 C 100.47 70.38 109.74 59.88 119.95 50.33 Z" />
</g>
<g id="#d8a90dff">
<path fill="#d8a90d" opacity="1.00" d=" M 135.80 58.15 C 137.35 55.08 139.38 52.20 142.87 51.24 C 144.81 53.05 147.49 53.52 149.91 51.88 C 156.59 50.81 162.18 65.46 168.15 56.95 C 171.53 59.35 175.65 59.03 179.22 60.80 C 178.45 58.13 177.42 55.53 177.06 52.75 C 183.84 55.61 187.67 62.24 192.61 67.30 C 192.18 68.22 191.62 69.07 191.13 69.96 C 196.67 67.66 199.60 76.54 201.27 80.61 C 193.54 81.04 185.80 81.07 178.07 80.97 C 173.15 74.28 186.17 71.36 188.27 66.07 C 182.64 67.87 172.94 76.61 170.99 67.01 C 169.42 65.00 164.48 68.71 164.48 64.62 C 164.74 58.17 156.59 70.79 157.77 65.76 C 163.67 59.50 152.29 54.28 146.90 55.82 C 143.76 55.52 145.83 57.52 146.70 58.93 C 144.50 60.11 142.38 61.42 140.59 63.16 C 137.75 63.09 138.00 59.42 135.80 58.15 Z" />
</g>
<g id="#ce9d0bff">
<path fill="#ce9d0b" opacity="1.00" d=" M 146.90 55.82 C 152.29 54.28 163.67 59.50 157.77 65.76 C 156.59 70.79 164.74 58.17 164.48 64.62 C 164.48 68.71 169.42 65.00 170.99 67.01 C 172.94 76.61 182.64 67.87 188.27 66.07 C 186.17 71.36 173.15 74.28 178.07 80.97 C 174.48 79.71 172.43 80.33 171.91 82.84 L 171.72 83.69 C 169.43 87.80 174.05 90.81 173.50 94.87 C 173.84 106.07 173.30 118.01 173.11 128.64 C 171.09 132.52 173.65 136.93 172.09 140.99 C 172.48 146.38 167.44 150.67 169.26 156.03 C 166.47 156.06 163.70 156.06 160.92 156.04 C 160.53 151.75 157.48 146.96 161.72 143.71 C 159.02 133.64 159.74 123.11 160.04 112.94 C 156.82 109.49 164.59 100.97 158.85 101.58 C 158.72 95.97 158.92 90.35 160.20 84.87 C 160.61 84.04 160.63 83.29 160.25 82.60 C 159.56 81.66 158.78 80.80 158.01 79.94 C 152.53 74.07 145.91 69.30 140.59 63.16 C 142.38 61.42 144.50 60.11 146.70 58.93 C 145.83 57.52 143.76 55.52 146.90 55.82 M 162.06 85.12 C 159.57 89.59 160.28 95.23 159.99 100.15 C 163.22 97.73 167.18 95.68 169.95 92.99 C 167.62 90.11 164.99 87.37 162.06 85.12 Z" />
</g>
<g id="#d19c0aff">
<path fill="#d19c0a" opacity="1.00" d=" M 56.41 67.44 C 61.55 65.63 62.41 59.83 66.40 56.73 C 67.08 60.59 71.73 56.99 73.82 59.17 C 76.47 61.17 73.96 65.48 75.00 67.91 C 71.89 67.65 68.80 67.10 65.69 67.07 C 70.01 68.57 71.81 75.39 64.00 72.73 C 55.03 67.88 53.47 80.61 61.26 81.73 C 60.42 81.81 58.75 81.96 57.91 82.03 L 57.09 81.91 C 51.11 80.64 44.98 81.04 38.91 80.98 C 42.17 76.46 44.90 71.58 48.20 67.08 C 48.64 66.78 49.52 66.17 49.97 65.87 C 51.59 70.00 46.63 71.34 46.94 75.05 C 51.72 75.34 52.07 68.75 56.41 67.44 Z" />
</g>
<g id="#dec560ff">
<path fill="#dec560" opacity="1.00" d=" M 230.02 58.85 C 231.82 60.98 233.30 63.36 234.11 66.04 C 231.82 64.22 229.38 62.13 230.02 58.85 Z" />
</g>
<g id="#d9bb5cff">
<path fill="#d9bb5c" opacity="1.00" d=" M 11.89 71.95 C 13.04 69.51 14.33 67.13 15.79 64.86 C 16.13 67.84 14.17 70.30 11.89 71.95 Z" />
</g>
<g id="#ebd777ff">
<path fill="#ebd777" opacity="1.00" d=" M 234.11 66.04 C 235.80 66.58 236.51 68.26 236.13 69.93 C 234.07 69.89 233.51 67.68 234.11 66.04 Z" />
</g>
<g id="#ebcf7eff">
<path fill="#ebcf7e" opacity="1.00" d=" M 236.13 69.93 C 237.33 70.94 237.96 72.44 237.98 74.00 C 236.56 73.38 235.43 72.09 235.58 70.44 L 236.13 69.93 Z" />
</g>
<g id="#b8851eff">
<path fill="#b8851e" opacity="1.00" d=" M 239.71 85.07 C 241.85 79.42 231.18 74.82 235.58 70.44 C 235.43 72.09 236.56 73.38 237.98 74.00 C 242.26 82.55 244.86 91.65 246.92 100.94 C 247.25 105.21 247.71 109.47 248.35 113.71 C 248.19 118.06 248.06 122.42 247.91 126.78 C 245.08 127.88 245.09 131.02 243.46 133.16 C 242.99 131.15 242.54 129.09 241.16 127.49 C 240.58 126.26 240.02 125.03 239.39 123.84 C 238.86 122.74 238.11 121.77 237.35 120.83 C 237.04 120.45 236.44 119.69 236.14 119.31 C 242.15 111.02 244.40 99.50 239.17 90.29 C 239.74 88.49 238.07 86.82 239.71 85.07 Z" />
</g>
<g id="#caac4aff">
<path fill="#caac4a" opacity="1.00" d=" M 6.84 83.86 C 8.23 79.78 9.62 75.65 11.89 71.95 C 12.72 75.11 8.36 78.86 12.26 80.81 C 21.13 81.29 30.03 80.98 38.91 80.98 C 44.98 81.04 51.11 80.64 57.09 81.91 C 41.63 82.47 26.07 81.07 10.68 82.72 C 10.27 82.82 9.45 83.03 9.04 83.13 C 8.49 83.31 7.39 83.68 6.84 83.86 Z" />
</g>
<g id="#d19f0bff">
<path fill="#d19f0b" opacity="1.00" d=" M 111.57 86.16 C 116.08 82.71 120.67 73.62 127.44 77.55 C 130.76 80.55 135.83 88.41 138.75 81.72 L 138.74 82.71 C 138.73 83.24 138.72 84.31 138.71 84.85 C 140.14 90.89 139.21 97.18 139.68 103.44 C 138.97 107.33 142.04 112.93 137.90 115.57 C 128.52 106.70 120.60 96.44 111.80 87.05 L 111.57 86.16 Z" />
</g>
<g id="#caa53eff">
<path fill="#caa53e" opacity="1.00" d=" M 201.27 80.61 C 203.36 80.72 205.53 80.85 206.98 79.17 C 217.73 81.90 229.21 81.00 239.71 85.07 C 238.07 86.82 239.74 88.49 239.17 90.29 L 238.09 90.14 C 237.58 90.05 236.57 89.88 236.06 89.80 C 234.46 88.45 232.87 87.08 231.26 85.73 C 225.88 80.97 217.60 82.36 211.01 81.96 C 198.28 82.62 185.31 80.83 172.70 82.65 L 171.91 82.84 C 172.43 80.33 174.48 79.71 178.07 80.97 C 185.80 81.07 193.54 81.04 201.27 80.61 Z" />
</g>
<g id="#d1bb3fff">
<path fill="#d1bb3f" opacity="1.00" d=" M 84.79 82.90 C 84.66 79.81 88.45 80.88 90.63 80.28 C 97.67 81.19 107.38 78.40 111.57 86.16 L 111.80 87.05 C 111.31 87.07 110.34 87.12 109.86 87.14 C 108.24 85.83 106.69 84.43 105.19 82.98 C 99.13 81.54 91.95 81.13 85.62 82.70 L 84.79 82.90 Z" />
</g>
<g id="#ddcd4eff">
<path fill="#ddcd4e" opacity="1.00" d=" M 138.75 81.72 C 145.05 80.65 151.61 80.75 158.01 79.94 C 158.78 80.80 159.56 81.66 160.25 82.60 L 159.38 82.54 C 152.86 82.19 146.17 81.18 139.70 82.53 L 138.74 82.71 L 138.75 81.72 Z" />
</g>
<g id="#ede3bcff">
<path fill="#ede3bc" opacity="1.00" d=" M 10.68 82.72 C 26.07 81.07 41.63 82.47 57.09 81.91 L 57.91 82.03 C 60.63 82.85 63.37 83.83 66.25 83.77 C 66.70 83.80 67.59 83.86 68.04 83.89 L 67.93 84.69 C 67.19 86.45 67.51 88.27 68.05 90.04 C 63.67 89.14 64.09 82.23 58.05 83.88 C 43.77 84.67 28.55 80.44 14.60 85.06 C 13.27 84.32 11.98 83.51 10.68 82.72 Z" />
</g>
<g id="#cdbb68ff">
<path fill="#cdbb68" opacity="1.00" d=" M 57.91 82.03 C 58.75 81.96 60.42 81.81 61.26 81.73 C 62.99 82.23 64.64 82.97 66.25 83.77 C 63.37 83.83 60.63 82.85 57.91 82.03 Z" />
</g>
<g id="#f1e5b2ff">
<path fill="#f1e5b2" opacity="1.00" d=" M 85.62 82.70 C 91.95 81.13 99.13 81.54 105.19 82.98 C 104.97 83.48 104.54 84.47 104.32 84.96 C 99.95 83.28 94.67 82.22 90.55 85.05 C 88.88 84.32 87.25 83.51 85.62 82.70 Z" />
</g>
<g id="#eae8caff">
<path fill="#eae8ca" opacity="1.00" d=" M 139.70 82.53 C 146.17 81.18 152.86 82.19 159.38 82.54 C 156.80 84.25 154.20 85.94 151.82 87.90 C 151.50 88.18 150.86 88.73 150.54 89.01 C 148.41 88.81 146.80 87.37 145.13 86.20 C 143.38 84.89 141.56 83.67 139.70 82.53 Z" />
</g>
<g id="#eadfb9ff">
<path fill="#eadfb9" opacity="1.00" d=" M 172.70 82.65 C 185.31 80.83 198.28 82.62 211.01 81.96 C 217.60 82.36 225.88 80.97 231.26 85.73 C 231.85 88.25 232.20 90.90 231.03 93.32 C 227.86 90.99 230.06 84.98 224.07 84.90 C 209.11 80.48 192.86 83.95 177.33 83.37 C 177.25 83.72 177.10 84.42 177.02 84.76 C 175.57 84.09 174.13 83.37 172.70 82.65 Z" />
</g>
<g id="#bd7814ff">
<path fill="#bd7814" opacity="1.00" d=" M 6.84 83.86 C 7.39 83.68 8.49 83.31 9.04 83.13 C 10.69 89.26 12.86 95.61 10.96 102.00 C 9.91 113.55 11.04 125.20 10.87 136.79 C 9.93 141.72 5.95 143.10 4.10 137.85 C 3.65 135.15 6.09 122.41 0.00 125.89 L 0.00 113.43 C 0.78 109.57 1.76 105.72 1.86 101.76 C 3.53 95.79 5.05 89.78 6.84 83.86 Z" />
</g>
<g id="#835e23ff">
<path fill="#835e23" opacity="1.00" d=" M 9.04 83.13 C 9.45 83.03 10.27 82.82 10.68 82.72 C 11.98 83.51 13.27 84.32 14.60 85.06 C 14.97 85.31 15.71 85.81 16.07 86.06 C 11.26 90.06 10.56 101.31 15.43 105.17 C 14.86 105.17 13.72 105.19 13.15 105.19 C 12.77 118.85 12.99 132.52 13.19 146.18 C 12.50 146.84 11.78 147.49 11.05 148.12 C 11.06 144.33 11.03 140.57 10.87 136.79 C 11.04 125.20 9.91 113.55 10.96 102.00 C 12.86 95.61 10.69 89.26 9.04 83.13 Z" />
</g>
<g id="#f1eee8ff">
<path fill="#f1eee8" opacity="1.00" d=" M 14.60 85.06 C 28.55 80.44 43.77 84.67 58.05 83.88 C 64.09 82.23 63.67 89.14 68.05 90.04 C 69.05 96.07 71.76 102.86 68.11 108.44 C 63.91 107.46 67.32 101.69 65.26 98.84 C 64.69 97.82 64.03 96.85 63.33 95.91 C 58.73 89.19 49.98 89.45 42.71 90.12 C 42.08 90.11 40.84 90.09 40.21 90.09 C 35.56 89.82 27.48 88.71 25.74 94.75 C 24.74 100.42 24.79 106.21 24.93 111.95 C 24.89 113.89 25.92 115.52 27.01 117.04 C 26.58 117.96 26.17 118.89 25.79 119.84 C 25.50 126.90 22.52 135.75 27.22 141.97 C 30.38 142.55 30.98 138.58 32.96 136.97 C 39.65 136.39 46.75 138.33 53.26 136.28 C 53.75 136.04 54.74 135.55 55.23 135.30 C 55.72 135.02 56.71 134.44 57.20 134.16 C 59.79 134.65 62.35 135.31 64.95 135.76 C 66.05 132.59 66.59 129.02 65.52 125.79 C 64.90 124.75 64.12 123.82 63.35 122.89 L 62.79 122.13 C 64.63 118.30 68.40 117.21 72.24 118.74 C 67.40 124.11 70.41 131.84 70.33 138.20 C 67.58 139.88 64.81 141.54 62.06 143.22 C 60.14 143.58 58.21 143.90 56.30 144.32 C 47.59 143.92 38.88 144.11 30.17 143.87 C 27.14 143.45 24.10 143.21 21.09 142.73 C 20.75 125.82 21.20 108.91 21.00 92.01 C 21.16 90.59 20.16 89.62 19.23 88.72 C 18.59 88.05 17.89 87.42 17.15 86.85 C 16.88 86.65 16.34 86.26 16.07 86.06 C 15.71 85.81 14.97 85.31 14.60 85.06 Z" />
</g>
<g id="#584c20ff">
<path fill="#584c20" opacity="1.00" d=" M 84.79 82.90 L 85.62 82.70 C 87.25 83.51 88.88 84.32 90.55 85.05 L 91.15 85.69 C 90.39 86.44 89.65 87.21 88.93 87.99 C 88.30 88.67 87.69 89.37 87.10 90.08 C 87.21 87.45 85.80 85.22 84.79 82.90 Z" />
</g>
<g id="#f1f0eeff">
<path fill="#f1f0ee" opacity="1.00" d=" M 90.55 85.05 C 94.67 82.22 99.95 83.28 104.32 84.96 C 104.14 85.43 103.79 86.35 103.62 86.81 C 101.43 90.53 105.89 93.46 107.67 96.28 C 117.16 106.47 125.92 117.39 135.97 127.03 C 139.82 130.34 139.28 120.15 143.54 123.50 C 153.01 124.76 147.80 136.41 149.22 143.26 C 148.81 144.88 146.80 143.16 145.72 143.25 C 142.34 141.42 140.22 138.15 137.87 135.23 C 135.67 132.07 133.07 129.20 129.90 127.01 C 128.48 125.18 126.94 123.44 125.23 121.87 C 122.70 118.06 119.56 114.71 116.00 111.87 C 114.34 109.97 112.68 108.07 111.05 106.15 C 108.40 101.65 100.35 101.23 97.86 106.00 C 91.48 107.00 101.03 90.26 93.00 87.58 C 92.38 86.95 91.77 86.32 91.15 85.69 L 90.55 85.05 Z" />
</g>
<g id="#a9a28aff">
<path fill="#a9a28a" opacity="1.00" d=" M 105.19 82.98 C 106.69 84.43 108.24 85.83 109.86 87.14 C 119.05 97.58 126.75 109.69 137.91 118.17 L 137.99 119.09 C 124.46 113.02 118.43 97.80 107.30 88.47 C 105.29 90.57 104.17 89.27 103.62 86.81 C 103.79 86.35 104.14 85.43 104.32 84.96 C 104.54 84.47 104.97 83.48 105.19 82.98 Z" />
</g>
<g id="#504b25ff">
<path fill="#504b25" opacity="1.00" d=" M 138.74 82.71 L 139.70 82.53 C 141.56 83.67 143.38 84.89 145.13 86.20 C 144.61 86.48 143.58 87.06 143.06 87.35 C 141.57 86.59 140.13 85.73 138.71 84.85 C 138.72 84.31 138.73 83.24 138.74 82.71 Z" />
</g>
<g id="#43361dff">
<path fill="#43361d" opacity="1.00" d=" M 151.82 87.90 C 154.20 85.94 156.80 84.25 159.38 82.54 L 160.25 82.60 C 160.63 83.29 160.61 84.04 160.20 84.87 C 159.70 85.27 158.71 86.06 158.21 86.46 C 157.17 108.36 159.14 130.59 157.35 152.32 C 152.01 152.22 146.67 152.02 141.35 151.71 C 138.50 149.14 136.07 146.06 132.70 144.14 C 123.73 135.04 117.40 121.98 105.18 117.04 C 102.23 126.85 105.63 137.27 103.95 147.22 C 97.11 146.40 102.45 134.87 100.07 130.00 C 101.70 123.83 100.09 114.44 107.14 111.24 C 118.20 121.28 126.51 134.81 139.12 141.70 C 138.46 150.56 151.72 147.89 155.49 144.13 C 153.08 132.72 156.55 120.19 153.62 108.35 C 149.64 101.55 160.63 92.70 151.82 87.90 Z" />
</g>
<g id="#4f4321ff">
<path fill="#4f4321" opacity="1.00" d=" M 171.91 82.84 L 172.70 82.65 C 174.13 83.37 175.57 84.09 177.02 84.76 C 178.10 86.32 177.36 87.57 175.95 88.56 C 174.26 87.20 173.00 85.42 171.72 83.69 L 171.91 82.84 Z" />
</g>
<g id="#f0efebff">
<path fill="#f0efeb" opacity="1.00" d=" M 177.33 83.37 C 192.86 83.95 209.11 80.48 224.07 84.90 C 230.06 84.98 227.86 90.99 231.03 93.32 C 233.65 97.07 232.80 101.87 233.24 106.20 C 232.67 107.02 231.96 107.71 231.12 108.26 C 225.71 109.12 229.92 103.67 228.52 100.77 C 227.79 97.24 225.51 94.22 222.25 92.66 C 221.97 92.48 221.41 92.10 221.13 91.91 C 217.20 88.50 211.50 90.64 206.78 90.13 C 204.27 90.05 201.77 90.02 199.28 90.03 C 195.35 89.31 190.37 89.58 188.78 93.83 C 187.62 99.78 187.83 105.92 187.96 111.97 C 187.86 113.97 188.96 115.61 190.19 117.08 L 189.78 117.76 C 185.76 122.39 189.18 129.77 188.16 135.29 L 188.10 136.11 C 188.07 136.56 188.02 137.47 187.99 137.93 C 187.31 141.02 194.18 146.19 185.05 143.01 C 181.73 127.19 186.18 106.84 183.19 89.81 C 182.33 88.62 181.23 87.63 180.11 86.69 C 179.19 85.89 178.08 85.34 177.02 84.76 C 177.10 84.42 177.25 83.72 177.33 83.37 Z" />
</g>
<g id="#b49631ff">
<path fill="#b49631" opacity="1.00" d=" M 68.04 83.89 C 73.60 83.60 77.24 89.40 79.20 93.85 C 78.10 93.30 77.00 92.75 75.90 92.21 L 75.26 91.83 C 74.28 90.46 73.33 89.06 72.35 87.69 C 71.53 85.93 69.55 85.43 67.93 84.69 L 68.04 83.89 Z" />
</g>
<g id="#937425ff">
<path fill="#937425" opacity="1.00" d=" M 171.72 83.69 C 173.00 85.42 174.26 87.20 175.95 88.56 C 176.10 108.09 175.87 127.62 176.08 147.15 C 175.01 147.75 173.93 148.33 172.88 148.96 C 173.88 142.32 175.29 135.11 173.11 128.64 C 173.30 118.01 173.84 106.07 173.50 94.87 C 174.05 90.81 169.43 87.80 171.72 83.69 Z" />
</g>
<g id="#c6c1b7ff">
<path fill="#c6c1b7" opacity="1.00" d=" M 67.93 84.69 C 69.55 85.43 71.53 85.93 72.35 87.69 C 72.92 93.29 70.14 98.58 71.26 104.28 C 71.32 106.37 69.95 107.70 68.11 108.44 C 71.76 102.86 69.05 96.07 68.05 90.04 C 67.51 88.27 67.19 86.45 67.93 84.69 Z" />
</g>
<g id="#8f752dff">
<path fill="#8f752d" opacity="1.00" d=" M 138.71 84.85 C 140.13 85.73 141.57 86.59 143.06 87.35 C 143.70 89.28 141.97 91.13 143.74 92.80 C 139.79 99.82 142.66 109.35 142.33 117.31 C 141.90 118.79 142.29 121.10 140.16 121.17 C 139.43 120.47 138.71 119.78 137.99 119.09 L 137.91 118.17 C 137.91 117.52 137.90 116.22 137.90 115.57 C 142.04 112.93 138.97 107.33 139.68 103.44 C 139.21 97.18 140.14 90.89 138.71 84.85 Z" />
</g>
<g id="#a27f14ff">
<path fill="#a27f14" opacity="1.00" d=" M 158.21 86.46 C 158.71 86.06 159.70 85.27 160.20 84.87 C 158.92 90.35 158.72 95.97 158.85 101.58 C 164.59 100.97 156.82 109.49 160.04 112.94 C 159.74 123.11 159.02 133.64 161.72 143.71 C 157.48 146.96 160.53 151.75 160.92 156.04 C 159.16 156.03 155.64 156.01 153.88 155.99 C 155.19 154.94 156.73 153.97 157.35 152.32 C 159.14 130.59 157.17 108.36 158.21 86.46 Z" />
</g>
<g id="#e5d113ff">
<path fill="#e5d113" opacity="1.00" d=" M 162.06 85.12 C 164.99 87.37 167.62 90.11 169.95 92.99 C 167.18 95.68 163.22 97.73 159.99 100.15 C 160.28 95.23 159.57 89.59 162.06 85.12 Z" />
</g>
<g id="#9f9988ff">
<path fill="#9f9988" opacity="1.00" d=" M 177.02 84.76 C 178.08 85.34 179.19 85.89 180.11 86.69 C 176.94 103.16 179.06 120.06 178.55 136.63 C 176.91 140.57 182.54 146.06 176.08 147.15 C 175.87 127.62 176.10 108.09 175.95 88.56 C 177.36 87.57 178.10 86.32 177.02 84.76 Z" />
</g>
<g id="#9b917bff">
<path fill="#9b917b" opacity="1.00" d=" M 16.07 86.06 C 16.34 86.26 16.88 86.65 17.15 86.85 C 12.23 92.26 15.52 99.08 15.43 105.17 C 10.56 101.31 11.26 90.06 16.07 86.06 Z" />
</g>
<g id="#a19888ff">
<path fill="#a19888" opacity="1.00" d=" M 91.15 85.69 C 91.77 86.32 92.38 86.95 93.00 87.58 C 90.03 107.22 89.75 127.68 91.95 147.50 C 90.04 149.10 87.77 150.13 85.54 151.17 C 86.08 149.80 86.66 148.45 87.22 147.09 C 87.43 146.57 87.83 145.54 88.04 145.02 C 89.26 142.18 88.55 139.11 88.52 136.14 C 88.92 120.07 90.27 104.03 88.93 87.99 C 89.65 87.21 90.39 86.44 91.15 85.69 Z" />
</g>
<g id="#acaba6ff">
<path fill="#acaba6" opacity="1.00" d=" M 145.13 86.20 C 146.80 87.37 148.41 88.81 150.54 89.01 C 150.14 93.91 149.81 98.86 150.21 103.78 C 150.13 108.92 149.97 114.08 149.85 119.23 C 150.30 116.96 147.68 105.58 147.46 116.53 C 147.92 120.17 143.01 123.69 140.16 121.17 C 142.29 121.10 141.90 118.79 142.33 117.31 C 144.27 109.74 145.69 100.47 143.74 92.80 C 141.97 91.13 143.70 89.28 143.06 87.35 C 143.58 87.06 144.61 86.48 145.13 86.20 Z" />
</g>
<g id="#bbb8b3ff">
<path fill="#bbb8b3" opacity="1.00" d=" M 231.26 85.73 C 232.87 87.08 234.46 88.45 236.06 89.80 C 234.33 94.43 234.06 99.34 234.15 104.23 C 233.93 104.72 233.47 105.71 233.24 106.20 C 232.80 101.87 233.65 97.07 231.03 93.32 C 232.20 90.90 231.85 88.25 231.26 85.73 Z" />
</g>
<g id="#adaaa5ff">
<path fill="#adaaa5" opacity="1.00" d=" M 17.15 86.85 C 17.89 87.42 18.59 88.05 19.23 88.72 C 19.78 107.17 19.77 126.21 19.91 144.27 C 19.21 145.17 18.49 146.07 17.76 146.96 C 17.06 147.60 16.35 148.25 15.65 148.89 C 13.94 149.62 12.27 150.46 10.61 151.31 L 9.77 151.05 C 10.15 150.05 10.57 149.07 11.05 148.12 C 11.78 147.49 12.50 146.84 13.19 146.18 C 18.72 133.63 12.46 118.55 15.43 105.17 C 15.52 99.08 12.23 92.26 17.15 86.85 Z" />
</g>
<g id="#bfbebbff">
<path fill="#bfbebb" opacity="1.00" d=" M 107.67 96.28 C 105.89 93.46 101.43 90.53 103.62 86.81 C 104.17 89.27 105.29 90.57 107.30 88.47 C 118.43 97.80 124.46 113.02 137.99 119.09 C 138.71 119.78 139.43 120.47 140.16 121.17 C 143.01 123.69 147.92 120.17 147.46 116.53 C 147.68 105.58 150.30 116.96 149.85 119.23 C 149.19 127.11 151.66 135.63 149.22 143.26 C 147.80 136.41 153.01 124.76 143.54 123.50 C 139.28 120.15 139.82 130.34 135.97 127.03 C 125.92 117.39 117.16 106.47 107.67 96.28 Z" />
</g>
<g id="#ac923cff">
<path fill="#ac923c" opacity="1.00" d=" M 109.86 87.14 C 110.34 87.12 111.31 87.07 111.80 87.05 C 120.60 96.44 128.52 106.70 137.90 115.57 C 137.90 116.22 137.91 117.52 137.91 118.17 C 126.75 109.69 119.05 97.58 109.86 87.14 Z" />
</g>
<g id="#b4b1abff">
<path fill="#b4b1ab" opacity="1.00" d=" M 180.11 86.69 C 181.23 87.63 182.33 88.62 183.19 89.81 C 183.44 107.92 182.10 126.05 183.07 144.14 C 182.10 145.13 181.11 146.09 180.11 147.06 C 177.77 148.62 175.29 149.96 172.81 151.28 L 172.11 151.21 C 172.30 150.65 172.69 149.52 172.88 148.96 C 173.93 148.33 175.01 147.75 176.08 147.15 C 182.54 146.06 176.91 140.57 178.55 136.63 C 179.06 120.06 176.94 103.16 180.11 86.69 Z" />
</g>
<g id="#948f85ff">
<path fill="#948f85" opacity="1.00" d=" M 72.35 87.69 C 73.33 89.06 74.28 90.46 75.26 91.83 C 75.23 96.48 71.19 99.54 71.26 104.28 C 70.14 98.58 72.92 93.29 72.35 87.69 Z" />
</g>
<g id="#947e4fff">
<path fill="#947e4f" opacity="1.00" d=" M 87.10 90.08 C 87.69 89.37 88.30 88.67 88.93 87.99 C 90.27 104.03 88.92 120.07 88.52 136.14 C 87.37 124.37 88.57 112.54 87.73 100.77 C 87.63 99.12 87.42 97.48 87.15 95.84 C 87.07 93.92 87.06 92.00 87.10 90.08 Z" />
</g>
<g id="#adaba8ff">
<path fill="#adaba8" opacity="1.00" d=" M 91.95 147.50 C 89.75 127.68 90.03 107.22 93.00 87.58 C 101.03 90.26 91.48 107.00 97.86 106.00 C 96.82 116.61 96.19 127.32 96.97 137.98 C 98.71 142.23 94.97 144.38 92.73 146.90 L 91.95 147.50 Z" />
</g>
<g id="#5b5853ff">
<path fill="#5b5853" opacity="1.00" d=" M 150.54 89.01 C 150.86 88.73 151.50 88.18 151.82 87.90 C 160.63 92.70 149.64 101.55 153.62 108.35 C 156.55 120.19 153.08 132.72 155.49 144.13 C 151.72 147.89 138.46 150.56 139.12 141.70 C 126.51 134.81 118.20 121.28 107.14 111.24 C 100.09 114.44 101.70 123.83 100.07 130.00 C 102.45 134.87 97.11 146.40 103.95 147.22 C 103.87 147.76 103.72 148.82 103.64 149.35 C 100.29 147.49 96.51 147.04 92.73 146.90 C 94.97 144.38 98.71 142.23 96.97 137.98 C 96.19 127.32 96.82 116.61 97.86 106.00 C 102.06 103.95 106.84 104.29 111.05 106.15 C 112.68 108.07 114.34 109.97 116.00 111.87 C 117.99 116.02 121.34 119.44 125.23 121.87 C 126.94 123.44 128.48 125.18 129.90 127.01 C 131.78 130.38 134.24 133.64 137.87 135.23 C 140.22 138.15 142.34 141.42 145.72 143.25 C 143.53 146.66 149.53 145.91 150.87 143.73 C 150.91 130.42 151.71 117.03 150.21 103.78 C 149.81 98.86 150.14 93.91 150.54 89.01 Z" />
</g>
<g id="#c6c5c3ff">
<path fill="#c6c5c3" opacity="1.00" d=" M 19.23 88.72 C 20.16 89.62 21.16 90.59 21.00 92.01 C 21.20 108.91 20.75 125.82 21.09 142.73 C 24.10 143.21 27.14 143.45 30.17 143.87 C 29.58 143.95 28.40 144.10 27.81 144.18 C 25.18 144.17 22.54 144.20 19.91 144.27 C 19.77 126.21 19.78 107.17 19.23 88.72 Z" />
</g>
<g id="#605f58ff">
<path fill="#605f58" opacity="1.00" d=" M 25.74 94.75 C 27.48 88.71 35.56 89.82 40.21 90.09 C 36.43 91.95 29.68 94.92 31.89 100.03 C 30.62 103.77 31.59 107.62 32.80 111.26 L 33.04 112.12 L 32.18 112.16 C 22.66 112.02 26.74 101.25 25.74 94.75 Z" />
</g>
<g id="#3e392bff">
<path fill="#3e392b" opacity="1.00" d=" M 40.21 90.09 C 40.84 90.09 42.08 90.11 42.71 90.12 C 44.58 93.29 47.91 90.88 50.58 91.43 C 53.71 94.55 59.75 95.41 58.07 101.07 C 50.25 97.80 39.43 95.08 31.89 100.03 C 29.68 94.92 36.43 91.95 40.21 90.09 Z" />
</g>
<g id="#6d6c68ff">
<path fill="#6d6c68" opacity="1.00" d=" M 42.71 90.12 C 49.98 89.45 58.73 89.19 63.33 95.91 C 63.21 99.48 60.07 101.50 58.21 104.18 C 58.18 103.40 58.10 101.85 58.07 101.07 C 59.75 95.41 53.71 94.55 50.58 91.43 C 47.91 90.88 44.58 93.29 42.71 90.12 Z" />
</g>
<g id="#d1d0d0ff">
<path fill="#d1d0d0" opacity="1.00" d=" M 183.19 89.81 C 186.18 106.84 181.73 127.19 185.05 143.01 C 194.18 146.19 187.31 141.02 187.99 137.93 C 189.09 140.58 191.75 139.80 193.88 139.07 C 193.54 140.69 193.20 142.32 192.89 143.95 C 189.87 144.02 186.89 144.14 183.89 144.20 L 183.07 144.14 C 182.10 126.05 183.44 107.92 183.19 89.81 Z" />
</g>
<g id="#6b6a67ff">
<path fill="#6b6a67" opacity="1.00" d=" M 188.78 93.83 C 190.37 89.58 195.35 89.31 199.28 90.03 C 198.60 93.10 194.95 91.60 192.59 92.21 C 190.81 95.92 192.62 100.12 190.71 103.72 C 189.31 105.86 191.67 107.63 192.70 109.32 C 192.81 109.80 193.03 110.77 193.15 111.26 C 184.59 112.79 190.80 98.55 188.78 93.83 Z" />
</g>
<g id="#54534eff">
<path fill="#54534e" opacity="1.00" d=" M 199.28 90.03 C 201.77 90.02 204.27 90.05 206.78 90.13 C 211.56 90.67 216.29 91.84 221.13 91.91 C 221.41 92.10 221.97 92.48 222.25 92.66 C 226.47 96.56 224.38 100.53 221.23 104.14 C 221.16 103.41 221.00 101.93 220.93 101.19 C 215.82 93.30 203.50 92.07 195.30 95.36 C 193.89 99.88 193.33 104.63 192.70 109.32 C 191.67 107.63 189.31 105.86 190.71 103.72 C 192.62 100.12 190.81 95.92 192.59 92.21 C 194.95 91.60 198.60 93.10 199.28 90.03 Z" />
</g>
<g id="#828684ff">
<path fill="#828684" opacity="1.00" d=" M 206.78 90.13 C 211.50 90.64 217.20 88.50 221.13 91.91 C 216.29 91.84 211.56 90.67 206.78 90.13 Z" />
</g>
<g id="#877f79ff">
<path fill="#877f79" opacity="1.00" d=" M 236.06 89.80 C 236.57 89.88 237.58 90.05 238.09 90.14 C 238.24 92.52 240.06 95.80 237.04 97.05 C 234.45 98.46 235.09 101.78 234.15 104.23 C 234.06 99.34 234.33 94.43 236.06 89.80 Z" />
</g>
<g id="#47391eff">
<path fill="#47391e" opacity="1.00" d=" M 238.09 90.14 L 239.17 90.29 C 244.40 99.50 242.15 111.02 236.14 119.31 C 235.17 118.80 234.19 118.31 233.22 117.82 C 232.83 117.61 232.04 117.20 231.65 116.99 C 232.42 109.70 240.00 104.78 237.04 97.05 C 240.06 95.80 238.24 92.52 238.09 90.14 Z" />
</g>
<g id="#65635dff">
<path fill="#65635d" opacity="1.00" d=" M 75.26 91.83 L 75.90 92.21 C 76.01 92.84 76.23 94.11 76.34 94.74 C 76.75 98.62 72.84 101.01 73.28 104.82 C 71.93 108.96 65.75 112.38 68.95 117.15 C 66.47 116.29 61.03 118.77 60.86 115.06 C 61.70 113.76 62.52 112.46 63.30 111.13 C 64.87 110.17 66.50 109.32 68.11 108.44 C 69.95 107.70 71.32 106.37 71.26 104.28 C 71.19 99.54 75.23 96.48 75.26 91.83 Z" />
</g>
<g id="#825c18ff">
<path fill="#825c18" opacity="1.00" d=" M 75.90 92.21 C 77.00 92.75 78.10 93.30 79.20 93.85 C 79.73 97.95 81.53 102.29 79.28 106.16 C 78.82 103.07 80.04 99.35 78.01 96.70 C 77.47 96.03 76.91 95.38 76.34 94.74 C 76.23 94.11 76.01 92.84 75.90 92.21 Z" />
</g>
<g id="#9a927fff">
<path fill="#9a927f" opacity="1.00" d=" M 142.33 117.31 C 142.66 109.35 139.79 99.82 143.74 92.80 C 145.69 100.47 144.27 109.74 142.33 117.31 Z" />
</g>
<g id="#3f371fff">
<path fill="#3f371f" opacity="1.00" d=" M 195.30 95.36 C 203.50 92.07 215.82 93.30 220.93 101.19 C 213.87 97.85 205.97 97.28 198.26 98.15 C 193.95 100.88 196.97 106.88 196.00 110.95 C 195.29 111.02 193.86 111.18 193.15 111.26 C 193.03 110.77 192.81 109.80 192.70 109.32 C 193.33 104.63 193.89 99.88 195.30 95.36 Z" />
</g>
<g id="#979793ff">
<path fill="#979793" opacity="1.00" d=" M 222.25 92.66 C 225.51 94.22 227.79 97.24 228.52 100.77 C 228.66 105.20 224.34 105.36 220.90 105.94 C 220.98 105.49 221.15 104.59 221.23 104.14 C 224.38 100.53 226.47 96.56 222.25 92.66 Z" />
</g>
<g id="#b67e11ff">
<path fill="#b67e11" opacity="1.00" d=" M 79.20 93.85 C 81.87 95.14 84.96 100.23 87.15 95.84 C 87.42 97.48 87.63 99.12 87.73 100.77 C 83.88 104.72 88.58 110.66 85.68 115.26 C 87.32 123.23 86.32 131.54 85.94 139.66 C 86.01 142.20 83.83 148.17 88.04 145.02 C 87.83 145.54 87.43 146.57 87.22 147.09 C 82.41 148.26 80.22 152.92 76.68 155.89 C 73.34 155.94 70.01 156.00 66.68 155.83 C 77.18 151.47 83.56 140.97 79.29 129.78 C 78.87 128.70 78.42 127.63 77.94 126.57 C 77.44 125.31 76.88 124.08 76.24 122.89 C 75.74 121.95 75.23 121.01 74.72 120.07 C 75.76 115.43 80.05 112.11 79.01 106.91 L 79.28 106.16 C 81.53 102.29 79.73 97.95 79.20 93.85 Z" />
</g>
<g id="#8c8b87ff">
<path fill="#8c8b87" opacity="1.00" d=" M 187.96 111.97 C 187.83 105.92 187.62 99.78 188.78 93.83 C 190.80 98.55 184.59 112.79 193.15 111.26 C 193.86 111.18 195.29 111.02 196.00 110.95 L 195.85 111.83 C 195.39 112.11 194.48 112.65 194.02 112.93 C 191.93 112.95 189.13 114.50 187.96 111.97 Z" />
</g>
<g id="#95938fff">
<path fill="#95938f" opacity="1.00" d=" M 24.93 111.95 C 24.79 106.21 24.74 100.42 25.74 94.75 C 26.74 101.25 22.66 112.02 32.18 112.16 C 31.92 112.41 31.39 112.92 31.13 113.17 C 28.92 113.72 26.14 114.59 24.93 111.95 Z" />
</g>
<g id="#474438ff">
<path fill="#474438" opacity="1.00" d=" M 76.34 94.74 C 76.91 95.38 77.47 96.03 78.01 96.70 C 76.14 102.93 74.61 109.38 71.19 114.99 C 71.73 115.13 72.81 115.43 73.34 115.57 C 72.58 116.24 71.76 116.84 70.90 117.38 C 70.41 117.32 69.44 117.21 68.95 117.15 C 65.75 112.38 71.93 108.96 73.28 104.82 C 72.84 101.01 76.75 98.62 76.34 94.74 Z" />
</g>
<g id="#a8a398ff">
<path fill="#a8a398" opacity="1.00" d=" M 63.33 95.91 C 64.03 96.85 64.69 97.82 65.26 98.84 C 67.23 104.26 62.84 106.65 58.93 108.28 C 57.99 108.65 57.05 109.03 56.12 109.43 L 56.52 108.49 C 57.18 107.09 57.76 105.65 58.21 104.18 C 60.07 101.50 63.21 99.48 63.33 95.91 Z" />
</g>
<g id="#35260dff">
<path fill="#35260d" opacity="1.00" d=" M 71.19 114.99 C 74.61 109.38 76.14 102.93 78.01 96.70 C 80.04 99.35 78.82 103.07 79.28 106.16 L 79.01 106.91 C 77.45 109.98 76.08 113.34 73.34 115.57 C 72.81 115.43 71.73 115.13 71.19 114.99 Z" />
</g>
<g id="#5d5a56ff">
<path fill="#5d5a56" opacity="1.00" d=" M 234.15 104.23 C 235.09 101.78 234.45 98.46 237.04 97.05 C 240.00 104.78 232.42 109.70 231.65 116.99 C 231.28 117.04 230.53 117.14 230.16 117.19 C 226.57 118.29 224.45 117.56 223.78 115.00 C 224.61 113.63 225.43 112.26 226.29 110.92 C 227.92 110.07 229.57 109.26 231.12 108.26 C 231.96 107.71 232.67 107.02 233.24 106.20 C 233.47 105.71 233.93 104.72 234.15 104.23 Z" />
</g>
<g id="#684e11ff">
<path fill="#684e11" opacity="1.00" d=" M 31.89 100.03 C 39.43 95.08 50.25 97.80 58.07 101.07 C 58.10 101.85 58.18 103.40 58.21 104.18 C 57.76 105.65 57.18 107.09 56.52 108.49 C 58.22 97.88 43.40 100.25 37.01 99.95 C 33.13 99.49 34.04 103.87 34.32 106.31 C 33.93 107.99 33.43 109.65 32.80 111.26 C 31.59 107.62 30.62 103.77 31.89 100.03 Z" />
</g>
<g id="#735511ff">
<path fill="#735511" opacity="1.00" d=" M 198.26 98.15 C 205.97 97.28 213.87 97.85 220.93 101.19 C 221.00 101.93 221.16 103.41 221.23 104.14 C 221.15 104.59 220.98 105.49 220.90 105.94 C 220.64 106.54 220.12 107.75 219.86 108.35 L 219.36 107.78 C 219.59 99.48 211.19 100.95 205.57 100.43 C 202.32 99.11 197.03 99.71 196.93 104.03 C 196.94 105.76 196.95 109.21 196.95 110.94 L 196.00 110.95 C 196.97 106.88 193.95 100.88 198.26 98.15 Z" />
</g>
<g id="#ceccc9ff">
<path fill="#ceccc9" opacity="1.00" d=" M 65.26 98.84 C 67.32 101.69 63.91 107.46 68.11 108.44 C 66.50 109.32 64.87 110.17 63.30 111.13 C 61.71 110.38 60.30 109.35 58.93 108.28 C 62.84 106.65 67.23 104.26 65.26 98.84 Z" />
</g>
<g id="#9a6b0eff">
<path fill="#9a6b0e" opacity="1.00" d=" M 34.32 106.31 C 34.04 103.87 33.13 99.49 37.01 99.95 C 43.40 100.25 58.22 97.88 56.52 108.49 L 56.12 109.43 C 52.70 109.37 56.47 105.20 53.72 104.28 C 49.23 101.19 43.74 105.28 39.08 102.89 C 36.43 101.21 35.11 104.32 34.32 106.31 Z" />
</g>
<g id="#a7720fff">
<path fill="#a7720f" opacity="1.00" d=" M 196.93 104.03 C 197.03 99.71 202.32 99.11 205.57 100.43 C 211.19 100.95 219.59 99.48 219.36 107.78 C 217.57 106.20 216.86 102.99 214.12 102.89 C 215.08 105.80 212.83 108.48 214.00 111.18 C 213.46 111.16 212.39 111.12 211.86 111.09 C 212.28 106.31 210.49 105.09 205.34 105.74 C 203.81 101.94 199.79 100.71 196.93 104.03 Z" />
</g>
<g id="#8a6013ff">
<path fill="#8a6013" opacity="1.00" d=" M 85.68 115.26 C 88.58 110.66 83.88 104.72 87.73 100.77 C 88.57 112.54 87.37 124.37 88.52 136.14 C 88.55 139.11 89.26 142.18 88.04 145.02 C 83.83 148.17 86.01 142.20 85.94 139.66 C 86.32 131.54 87.32 123.23 85.68 115.26 Z" />
</g>
<g id="#c2bfb9ff">
<path fill="#c2bfb9" opacity="1.00" d=" M 228.52 100.77 C 229.92 103.67 225.71 109.12 231.12 108.26 C 229.57 109.26 227.92 110.07 226.29 110.92 C 224.28 109.83 222.19 107.64 219.79 108.93 L 219.86 108.35 C 220.12 107.75 220.64 106.54 220.90 105.94 C 224.34 105.36 228.66 105.20 228.52 100.77 Z" />
</g>
<g id="#fcedc2ff">
<path fill="#fcedc2" opacity="1.00" d=" M 246.92 100.94 C 247.78 102.90 248.71 104.85 250.00 106.58 L 250.00 136.52 C 249.38 138.08 248.79 139.66 248.22 141.25 C 248.20 139.57 248.20 137.89 248.23 136.22 C 249.04 128.78 249.78 121.11 248.35 113.71 C 247.71 109.47 247.25 105.21 246.92 100.94 Z" />
</g>
<g id="#f7dda6ff">
<path fill="#f7dda6" opacity="1.00" d=" M 0.00 105.45 C 0.62 104.22 1.24 102.99 1.86 101.76 C 1.76 105.72 0.78 109.57 0.00 113.43 L 0.00 105.45 Z" />
</g>
<g id="#b98816ff">
<path fill="#b98816" opacity="1.00" d=" M 34.32 106.31 C 35.11 104.32 36.43 101.21 39.08 102.89 C 43.74 105.28 49.23 101.19 53.72 104.28 C 56.47 105.20 52.70 109.37 56.12 109.43 C 54.84 110.05 53.58 110.72 52.26 111.25 C 45.78 111.10 39.28 110.80 32.80 111.26 C 33.43 109.65 33.93 107.99 34.32 106.31 Z" />
</g>
<g id="#bc9218ff">
<path fill="#bc9218" opacity="1.00" d=" M 196.93 104.03 C 199.79 100.71 203.81 101.94 205.34 105.74 C 210.49 105.09 212.28 106.31 211.86 111.09 C 206.88 111.01 201.92 111.03 196.95 110.94 C 196.95 109.21 196.94 105.76 196.93 104.03 Z" />
</g>
<g id="#9a9997ff">
<path fill="#9a9997" opacity="1.00" d=" M 97.86 106.00 C 100.35 101.23 108.40 101.65 111.05 106.15 C 106.84 104.29 102.06 103.95 97.86 106.00 Z" />
</g>
<g id="#c69132ff">
<path fill="#c69132" opacity="1.00" d=" M 214.12 102.89 C 216.86 102.99 217.57 106.20 219.36 107.78 L 219.86 108.35 L 219.79 108.93 C 218.23 109.72 216.66 110.51 215.07 111.23 L 214.00 111.18 C 212.83 108.48 215.08 105.80 214.12 102.89 Z" />
</g>
<g id="#7d7976ff">
<path fill="#7d7976" opacity="1.00" d=" M 150.21 103.78 C 151.71 117.03 150.91 130.42 150.87 143.73 C 149.53 145.91 143.53 146.66 145.72 143.25 C 146.80 143.16 148.81 144.88 149.22 143.26 C 151.66 135.63 149.19 127.11 149.85 119.23 C 149.97 114.08 150.13 108.92 150.21 103.78 Z" />
</g>
<g id="#988b76ff">
<path fill="#988b76" opacity="1.00" d=" M 13.15 105.19 C 13.72 105.19 14.86 105.17 15.43 105.17 C 12.46 118.55 18.72 133.63 13.19 146.18 C 12.99 132.52 12.77 118.85 13.15 105.19 Z" />
</g>
<g id="#7f5c14ff">
<path fill="#7f5c14" opacity="1.00" d=" M 73.34 115.57 C 76.08 113.34 77.45 109.98 79.01 106.91 C 80.05 112.11 75.76 115.43 74.72 120.07 C 74.28 119.84 73.39 119.37 72.95 119.14 L 72.24 118.74 C 71.91 118.40 71.24 117.72 70.90 117.38 C 71.76 116.84 72.58 116.24 73.34 115.57 Z" />
</g>
<g id="#f2ece3ff">
<path fill="#f2ece3" opacity="1.00" d=" M 56.12 109.43 C 57.05 109.03 57.99 108.65 58.93 108.28 C 60.30 109.35 61.71 110.38 63.30 111.13 C 62.52 112.46 61.70 113.76 60.86 115.06 C 52.05 119.46 40.13 116.08 30.04 117.01 C 30.44 115.74 30.79 114.46 31.13 113.17 C 31.39 112.92 31.92 112.41 32.18 112.16 L 33.04 112.12 C 39.36 111.40 46.15 113.34 52.26 111.25 C 53.58 110.72 54.84 110.05 56.12 109.43 Z" />
</g>
<g id="#efebe2ff">
<path fill="#efebe2" opacity="1.00" d=" M 219.79 108.93 C 222.19 107.64 224.28 109.83 226.29 110.92 C 225.43 112.26 224.61 113.63 223.78 115.00 C 215.05 119.93 202.13 115.50 192.00 117.02 C 192.76 115.70 193.43 114.33 194.02 112.93 C 194.48 112.65 195.39 112.11 195.85 111.83 C 202.14 111.25 209.01 113.52 215.07 111.23 C 216.66 110.51 218.23 109.72 219.79 108.93 Z" />
</g>
<g id="#ebd295ff">
<path fill="#ebd295" opacity="1.00" d=" M 32.80 111.26 C 39.28 110.80 45.78 111.10 52.26 111.25 C 46.15 113.34 39.36 111.40 33.04 112.12 L 32.80 111.26 Z" />
</g>
<g id="#e8d093ff">
<path fill="#e8d093" opacity="1.00" d=" M 196.00 110.95 L 196.95 110.94 C 201.92 111.03 206.88 111.01 211.86 111.09 C 212.39 111.12 213.46 111.16 214.00 111.18 L 215.07 111.23 C 209.01 113.52 202.14 111.25 195.85 111.83 L 196.00 110.95 Z" />
</g>
<g id="#c8c4c1ff">
<path fill="#c8c4c1" opacity="1.00" d=" M 24.93 111.95 C 26.14 114.59 28.92 113.72 31.13 113.17 C 30.79 114.46 30.44 115.74 30.04 117.01 C 29.28 117.02 27.77 117.03 27.01 117.04 C 25.92 115.52 24.89 113.89 24.93 111.95 Z" />
</g>
<g id="#a5a49cff">
<path fill="#a5a49c" opacity="1.00" d=" M 116.00 111.87 C 119.56 114.71 122.70 118.06 125.23 121.87 C 121.34 119.44 117.99 116.02 116.00 111.87 Z" />
</g>
<g id="#bfc0bbff">
<path fill="#bfc0bb" opacity="1.00" d=" M 187.96 111.97 C 189.13 114.50 191.93 112.95 194.02 112.93 C 193.43 114.33 192.76 115.70 192.00 117.02 C 191.55 117.04 190.64 117.06 190.19 117.08 C 188.96 115.61 187.86 113.97 187.96 111.97 Z" />
</g>
<g id="#b38e56ff">
<path fill="#b38e56" opacity="1.00" d=" M 248.35 113.71 C 249.78 121.11 249.04 128.78 248.23 136.22 C 248.14 133.06 248.01 129.93 247.91 126.78 C 248.06 122.42 248.19 118.06 248.35 113.71 Z" />
</g>
<g id="#999792ff">
<path fill="#999792" opacity="1.00" d=" M 30.04 117.01 C 40.13 116.08 52.05 119.46 60.86 115.06 C 61.03 118.77 66.47 116.29 68.95 117.15 C 69.44 117.21 70.41 117.32 70.90 117.38 C 71.24 117.72 71.91 118.40 72.24 118.74 C 68.40 117.21 64.63 118.30 62.79 122.13 C 61.28 118.16 57.82 117.53 53.81 118.01 C 46.94 117.96 40.07 118.00 33.20 117.93 C 30.55 117.67 27.96 118.28 25.79 119.84 C 26.17 118.89 26.58 117.96 27.01 117.04 C 27.77 117.03 29.28 117.02 30.04 117.01 Z" />
</g>
<g id="#8f8d89ff">
<path fill="#8f8d89" opacity="1.00" d=" M 192.00 117.02 C 202.13 115.50 215.05 119.93 223.78 115.00 C 224.45 117.56 226.57 118.29 230.16 117.19 C 229.48 117.81 228.80 118.43 228.12 119.05 C 226.70 119.33 225.28 119.63 223.87 119.94 C 221.01 118.50 217.87 118.07 214.68 118.14 C 208.86 117.86 203.03 117.98 197.21 118.07 C 195.35 117.99 191.64 117.84 189.78 117.76 L 190.19 117.08 C 190.64 117.06 191.55 117.04 192.00 117.02 Z" />
</g>
<g id="#9a6a10ff">
<path fill="#9a6a10" opacity="1.00" d=" M 105.18 117.04 C 117.40 121.98 123.73 135.04 132.70 144.14 C 134.78 147.39 136.92 150.64 139.50 153.52 C 141.26 155.20 146.80 152.25 147.29 155.92 C 143.54 155.96 139.82 156.04 136.09 156.04 C 137.74 150.66 130.94 146.33 127.93 142.14 C 118.38 141.27 115.16 130.05 107.10 126.01 C 104.25 132.23 108.81 138.05 106.04 144.01 C 106.08 146.63 109.17 148.67 108.18 151.32 L 107.25 151.41 C 106.00 150.80 104.81 150.10 103.64 149.35 C 103.72 148.82 103.87 147.76 103.95 147.22 C 105.63 137.27 102.23 126.85 105.18 117.04 Z" />
</g>
<g id="#eeebe3ff">
<path fill="#eeebe3" opacity="1.00" d=" M 230.16 117.19 C 230.53 117.14 231.28 117.04 231.65 116.99 C 232.04 117.20 232.83 117.61 233.22 117.82 C 232.77 124.48 231.74 131.32 233.27 138.24 C 231.88 139.87 230.02 140.97 228.27 142.15 C 225.81 142.68 223.36 143.38 220.95 144.06 L 220.18 144.22 C 211.08 144.01 201.99 143.96 192.89 143.95 C 193.20 142.32 193.54 140.69 193.88 139.07 L 194.07 138.30 C 194.30 138.06 194.77 137.57 195.00 137.33 L 195.91 137.05 C 202.32 136.60 208.98 137.94 215.29 136.37 C 216.91 135.92 218.72 135.49 219.86 134.14 C 220.13 133.84 220.66 133.24 220.93 132.95 C 223.11 134.25 227.04 136.59 227.68 132.53 C 231.40 128.20 223.82 123.02 228.12 119.05 C 228.80 118.43 229.48 117.81 230.16 117.19 Z" />
</g>
<g id="#625e5aff">
<path fill="#625e5a" opacity="1.00" d=" M 25.79 119.84 C 27.96 118.28 30.55 117.67 33.20 117.93 C 34.88 125.17 25.66 130.63 30.26 136.98 C 21.38 138.68 27.84 124.89 25.79 119.84 Z" />
</g>
<g id="#483f2bff">
<path fill="#483f2b" opacity="1.00" d=" M 33.20 117.93 C 40.07 118.00 46.94 117.96 53.81 118.01 C 53.45 122.09 59.43 122.96 58.00 127.28 C 51.46 123.02 42.62 123.76 35.54 125.48 C 31.28 127.19 33.45 132.40 32.97 136.01 L 32.96 136.97 C 32.28 136.97 30.93 136.98 30.26 136.98 C 25.66 130.63 34.88 125.17 33.20 117.93 Z" />
</g>
<g id="#5e5d59ff">
<path fill="#5e5d59" opacity="1.00" d=" M 53.81 118.01 C 57.82 117.53 61.28 118.16 62.79 122.13 L 63.35 122.89 C 62.11 125.13 59.71 126.30 58.03 128.15 L 58.00 127.28 C 59.43 122.96 53.45 122.09 53.81 118.01 Z" />
</g>
<g id="#908f8bff">
<path fill="#908f8b" opacity="1.00" d=" M 188.16 135.29 C 189.18 129.77 185.76 122.39 189.78 117.76 C 189.25 123.59 189.81 129.62 188.16 135.29 Z" />
</g>
<g id="#63615aff">
<path fill="#63615a" opacity="1.00" d=" M 189.78 117.76 C 191.64 117.84 195.35 117.99 197.21 118.07 C 194.47 123.80 190.78 131.68 195.00 137.33 C 194.77 137.57 194.30 138.06 194.07 138.30 C 192.08 137.57 190.08 136.86 188.10 136.11 L 188.16 135.29 C 189.81 129.62 189.25 123.59 189.78 117.76 Z" />
</g>
<g id="#483c28ff">
<path fill="#483c28" opacity="1.00" d=" M 197.21 118.07 C 203.03 117.98 208.86 117.86 214.68 118.14 C 216.49 121.39 221.50 122.87 221.00 127.13 C 213.94 123.84 205.74 124.69 198.21 123.10 C 194.92 126.53 196.34 131.73 195.96 136.04 L 195.91 137.05 L 195.00 137.33 C 190.78 131.68 194.47 123.80 197.21 118.07 Z" />
</g>
<g id="#5f5c59ff">
<path fill="#5f5c59" opacity="1.00" d=" M 214.68 118.14 C 217.87 118.07 221.01 118.50 223.87 119.94 C 227.69 123.64 224.07 125.79 221.07 128.06 L 221.00 127.13 C 221.50 122.87 216.49 121.39 214.68 118.14 Z" />
</g>
<g id="#b6b1a8ff">
<path fill="#b6b1a8" opacity="1.00" d=" M 233.22 117.82 C 234.19 118.31 235.17 118.80 236.14 119.31 C 236.44 119.69 237.04 120.45 237.35 120.83 C 234.02 125.62 233.74 131.47 234.12 137.11 C 233.91 137.39 233.48 137.96 233.27 138.24 C 231.74 131.32 232.77 124.48 233.22 117.82 Z" />
</g>
<g id="#c0bfb9ff">
<path fill="#c0bfb9" opacity="1.00" d=" M 72.24 118.74 L 72.95 119.14 C 74.66 125.02 69.56 130.70 70.93 136.97 C 70.78 137.28 70.48 137.89 70.33 138.20 C 70.41 131.84 67.40 124.11 72.24 118.74 Z" />
</g>
<g id="#8f897dff">
<path fill="#8f897d" opacity="1.00" d=" M 72.95 119.14 C 73.39 119.37 74.28 119.84 74.72 120.07 C 75.23 121.01 75.74 121.95 76.24 122.89 C 77.04 128.54 70.66 131.17 70.93 136.97 C 69.56 130.70 74.66 125.02 72.95 119.14 Z" />
</g>
<g id="#afaea7ff">
<path fill="#afaea7" opacity="1.00" d=" M 223.87 119.94 C 225.28 119.63 226.70 119.33 228.12 119.05 C 223.82 123.02 231.40 128.20 227.68 132.53 C 227.04 136.59 223.11 134.25 220.93 132.95 C 220.98 131.32 221.02 129.69 221.07 128.06 C 224.07 125.79 227.69 123.64 223.87 119.94 Z" />
</g>
<g id="#a4a39fff">
<path fill="#a4a39f" opacity="1.00" d=" M 27.22 141.97 C 22.52 135.75 25.50 126.90 25.79 119.84 C 27.84 124.89 21.38 138.68 30.26 136.98 C 30.93 136.98 32.28 136.97 32.96 136.97 C 30.98 138.58 30.38 142.55 27.22 141.97 Z" />
</g>
<g id="#858173ff">
<path fill="#858173" opacity="1.00" d=" M 237.35 120.83 C 238.11 121.77 238.86 122.74 239.39 123.84 C 238.00 128.58 234.31 131.86 234.12 137.11 C 233.74 131.47 234.02 125.62 237.35 120.83 Z" />
</g>
<g id="#9d9b90ff">
<path fill="#9d9b90" opacity="1.00" d=" M 63.35 122.89 C 64.12 123.82 64.90 124.75 65.52 125.79 C 65.16 129.70 60.63 130.04 58.00 132.02 C 58.02 130.73 58.02 129.44 58.03 128.15 C 59.71 126.30 62.11 125.13 63.35 122.89 Z" />
</g>
<g id="#5b5953ff">
<path fill="#5b5953" opacity="1.00" d=" M 76.24 122.89 C 76.88 124.08 77.44 125.31 77.94 126.57 C 77.37 128.25 77.02 129.99 76.76 131.74 C 74.15 135.70 73.88 141.05 70.02 144.07 C 66.02 148.77 59.48 147.27 54.09 147.55 C 42.01 146.63 29.62 149.70 17.76 146.96 C 18.49 146.07 19.21 145.17 19.91 144.27 C 22.54 144.20 25.18 144.17 27.81 144.18 C 37.21 145.03 46.95 146.03 56.30 144.32 C 58.21 143.90 60.14 143.58 62.06 143.22 C 65.50 143.10 69.14 141.74 70.33 138.20 C 70.48 137.89 70.78 137.28 70.93 136.97 C 70.66 131.17 77.04 128.54 76.24 122.89 Z" />
</g>
<g id="#7c5312ff">
<path fill="#7c5312" opacity="1.00" d=" M 198.21 123.10 C 205.74 124.69 213.94 123.84 221.00 127.13 L 221.07 128.06 C 221.02 129.69 220.98 131.32 220.93 132.95 C 220.66 133.24 220.13 133.84 219.86 134.14 C 219.32 131.62 219.31 128.06 216.13 127.76 C 211.27 127.93 206.15 127.88 201.09 127.04 C 198.07 128.87 195.64 132.64 197.91 136.03 C 197.43 136.03 196.45 136.04 195.96 136.04 C 196.34 131.73 194.92 126.53 198.21 123.10 Z" />
</g>
<g id="#8d5f13ff">
<path fill="#8d5f13" opacity="1.00" d=" M 35.54 125.48 C 42.62 123.76 51.46 123.02 58.00 127.28 L 58.03 128.15 C 58.02 129.44 58.02 130.73 58.00 132.02 C 57.80 132.55 57.40 133.62 57.20 134.16 C 56.71 134.44 55.72 135.02 55.23 135.30 C 51.31 131.44 48.18 124.92 41.39 127.39 C 35.71 124.20 34.15 131.58 33.90 135.96 L 32.97 136.01 C 33.45 132.40 31.28 127.19 35.54 125.48 Z" />
</g>
<g id="#535049ff">
<path fill="#535049" opacity="1.00" d=" M 239.39 123.84 C 240.02 125.03 240.58 126.26 241.16 127.49 C 239.17 129.54 238.75 132.17 239.55 134.84 C 236.95 134.69 237.17 135.53 238.85 137.04 C 235.30 146.18 225.14 149.33 216.20 150.54 C 206.17 148.74 195.98 149.05 185.87 149.85 C 183.45 150.41 181.85 148.31 180.11 147.06 C 181.11 146.09 182.10 145.13 183.07 144.14 L 183.89 144.20 C 195.90 145.38 208.18 145.66 220.18 144.22 L 220.95 144.06 C 223.52 143.80 226.39 144.22 228.27 142.15 C 230.02 140.97 231.88 139.87 233.27 138.24 C 233.48 137.96 233.91 137.39 234.12 137.11 C 234.31 131.86 238.00 128.58 239.39 123.84 Z" />
</g>
<g id="#8e4616ff">
<path fill="#8e4616" opacity="1.00" d=" M 0.00 125.89 C 6.09 122.41 3.65 135.15 4.10 137.85 C 4.94 151.92 10.90 164.96 16.02 177.89 C 13.97 176.18 13.25 178.40 12.58 180.13 C 6.31 167.58 2.86 153.80 0.75 139.98 C 2.31 137.01 2.06 134.65 0.00 132.90 L 0.00 125.89 Z" />
</g>
<g id="#b67d10ff">
<path fill="#b67d10" opacity="1.00" d=" M 33.90 135.96 C 34.15 131.58 35.71 124.20 41.39 127.39 C 48.18 124.92 51.31 131.44 55.23 135.30 C 54.74 135.55 53.75 136.04 53.26 136.28 C 46.81 136.11 40.36 135.97 33.90 135.96 Z" />
</g>
<g id="#c6c3beff">
<path fill="#c6c3be" opacity="1.00" d=" M 65.52 125.79 C 66.59 129.02 66.05 132.59 64.95 135.76 C 62.35 135.31 59.79 134.65 57.20 134.16 C 57.40 133.62 57.80 132.55 58.00 132.02 C 60.63 130.04 65.16 129.70 65.52 125.79 Z" />
</g>
<g id="#c5900dff">
<path fill="#c5900d" opacity="1.00" d=" M 107.10 126.01 C 115.16 130.05 118.38 141.27 127.93 142.14 C 130.94 146.33 137.74 150.66 136.09 156.04 C 124.96 156.01 113.84 156.08 102.72 155.84 C 104.48 154.30 107.60 153.85 108.18 151.32 C 109.17 148.67 106.08 146.63 106.04 144.01 C 108.81 138.05 104.25 132.23 107.10 126.01 Z" />
</g>
<g id="#3e2c12ff">
<path fill="#3e2c12" opacity="1.00" d=" M 76.76 131.74 C 77.02 129.99 77.37 128.25 77.94 126.57 C 78.42 127.63 78.87 128.70 79.29 129.78 C 79.69 135.74 79.01 142.12 74.92 146.77 C 60.10 156.26 41.90 150.27 25.67 153.49 C 20.61 153.58 15.39 153.09 10.61 151.31 C 12.27 150.46 13.94 149.62 15.65 148.89 C 28.29 150.85 41.23 149.07 54.02 149.48 C 64.78 152.29 78.93 143.99 76.76 131.74 Z" />
</g>
<g id="#a7a6a2ff">
<path fill="#a7a6a2" opacity="1.00" d=" M 129.90 127.01 C 133.07 129.20 135.67 132.07 137.87 135.23 C 134.24 133.64 131.78 130.38 129.90 127.01 Z" />
</g>
<g id="#b4790fff">
<path fill="#b4790f" opacity="1.00" d=" M 197.91 136.03 C 195.64 132.64 198.07 128.87 201.09 127.04 C 206.15 127.88 211.27 127.93 216.13 127.76 C 215.28 130.68 211.74 134.24 215.29 136.37 C 209.50 136.06 203.70 136.02 197.91 136.03 Z" />
</g>
<g id="#874a17ff">
<path fill="#874a17" opacity="1.00" d=" M 243.46 133.16 C 245.09 131.02 245.08 127.88 247.91 126.78 C 248.01 129.93 248.14 133.06 248.23 136.22 C 248.20 137.89 248.20 139.57 248.22 141.25 C 247.69 144.85 246.77 148.38 245.87 151.91 C 244.51 152.90 244.60 154.69 245.17 156.10 C 240.03 175.19 230.65 193.24 217.44 207.99 C 216.08 207.25 214.70 206.55 213.28 205.96 C 214.56 204.39 217.02 203.43 217.02 201.13 C 206.08 199.92 194.84 200.69 183.77 200.18 L 184.03 199.17 C 194.68 198.78 205.34 199.19 216.00 199.00 C 217.85 199.11 219.59 197.91 220.18 196.16 C 234.09 181.59 240.18 161.20 243.95 141.84 C 241.82 142.29 241.54 144.78 240.32 146.26 C 240.34 145.06 240.32 143.86 240.32 142.67 C 241.54 137.73 242.52 132.50 241.16 127.49 C 242.54 129.09 242.99 131.15 243.46 133.16 Z" />
</g>
<g id="#c9a02eff">
<path fill="#c9a02e" opacity="1.00" d=" M 216.13 127.76 C 219.31 128.06 219.32 131.62 219.86 134.14 C 218.72 135.49 216.91 135.92 215.29 136.37 C 211.74 134.24 215.28 130.68 216.13 127.76 Z" />
</g>
<g id="#3a2a16ff">
<path fill="#3a2a16" opacity="1.00" d=" M 239.55 134.84 C 238.75 132.17 239.17 129.54 241.16 127.49 C 242.52 132.50 241.54 137.73 240.32 142.67 C 231.54 156.30 214.29 152.17 200.68 152.42 C 191.37 151.98 182.02 153.21 172.81 151.28 C 175.29 149.96 177.77 148.62 180.11 147.06 C 181.85 148.31 183.45 150.41 185.87 149.85 C 195.98 149.05 206.17 148.74 216.20 150.54 C 225.14 149.33 235.30 146.18 238.85 137.04 C 237.17 135.53 236.95 134.69 239.55 134.84 Z" />
</g>
<g id="#b28813ff">
<path fill="#b28813" opacity="1.00" d=" M 173.11 128.64 C 175.29 135.11 173.88 142.32 172.88 148.96 C 172.69 149.52 172.30 150.65 172.11 151.21 C 172.33 152.82 172.76 154.39 173.09 155.99 C 171.81 156.01 170.53 156.02 169.26 156.03 C 167.44 150.67 172.48 146.38 172.09 140.99 C 173.65 136.93 171.09 132.52 173.11 128.64 Z" />
</g>
<g id="#8c5e12ff">
<path fill="#8c5e12" opacity="1.00" d=" M 79.29 129.78 C 83.56 140.97 77.18 151.47 66.68 155.83 C 63.71 155.87 60.74 155.90 57.77 155.92 C 63.03 151.75 71.90 153.48 74.92 146.77 C 79.01 142.12 79.69 135.74 79.29 129.78 Z" />
</g>
<g id="#434038ff">
<path fill="#434038" opacity="1.00" d=" M 70.02 144.07 C 73.88 141.05 74.15 135.70 76.76 131.74 C 78.93 143.99 64.78 152.29 54.02 149.48 C 41.23 149.07 28.29 150.85 15.65 148.89 C 16.35 148.25 17.06 147.60 17.76 146.96 C 29.62 149.70 42.01 146.63 54.09 147.55 C 59.48 147.27 66.02 148.77 70.02 144.07 Z" />
</g>
<g id="#d49a65ff">
<path fill="#d49a65" opacity="1.00" d=" M 0.00 132.90 C 2.06 134.65 2.31 137.01 0.75 139.98 L 0.00 139.74 L 0.00 132.90 Z" />
</g>
<g id="#b3954bff">
<path fill="#b3954b" opacity="1.00" d=" M 32.97 136.01 L 33.90 135.96 C 40.36 135.97 46.81 136.11 53.26 136.28 C 46.75 138.33 39.65 136.39 32.96 136.97 L 32.97 136.01 Z" />
</g>
<g id="#999797ff">
<path fill="#999797" opacity="1.00" d=" M 188.10 136.11 C 190.08 136.86 192.08 137.57 194.07 138.30 L 193.88 139.07 C 191.75 139.80 189.09 140.58 187.99 137.93 C 188.02 137.47 188.07 136.56 188.10 136.11 Z" />
</g>
<g id="#b29348ff">
<path fill="#b29348" opacity="1.00" d=" M 195.96 136.04 C 196.45 136.04 197.43 136.03 197.91 136.03 C 203.70 136.02 209.50 136.06 215.29 136.37 C 208.98 137.94 202.32 136.60 195.91 137.05 L 195.96 136.04 Z" />
</g>
<g id="#a15f0fff">
<path fill="#a15f0f" opacity="1.00" d=" M 4.10 137.85 C 5.95 143.10 9.93 141.72 10.87 136.79 C 11.03 140.57 11.06 144.33 11.05 148.12 C 10.57 149.07 10.15 150.05 9.77 151.05 C 11.44 158.64 21.77 153.01 25.12 158.74 C 23.59 164.33 24.84 170.07 24.11 175.73 C 27.26 177.19 31.12 177.43 33.67 180.00 L 33.61 180.75 C 27.67 183.85 32.45 192.33 27.84 195.53 C 21.42 192.05 19.90 183.74 16.02 177.89 C 10.90 164.96 4.94 151.92 4.10 137.85 Z" />
</g>
<g id="#fdfcfbff">
<path fill="#fdfcfb" opacity="1.00" d=" M 248.22 141.25 C 248.79 139.66 249.38 138.08 250.00 136.52 L 250.00 250.00 L 136.06 250.00 L 135.97 249.06 C 167.12 246.57 196.56 231.03 217.44 207.99 C 230.65 193.24 240.03 175.19 245.17 156.10 C 246.45 155.05 246.39 153.32 245.87 151.91 C 246.77 148.38 247.69 144.85 248.22 141.25 Z" />
</g>
<g id="#afb0acff">
<path fill="#afb0ac" opacity="1.00" d=" M 62.06 143.22 C 64.81 141.54 67.58 139.88 70.33 138.20 C 69.14 141.74 65.50 143.10 62.06 143.22 Z" />
</g>
<g id="#fdfcfaff">
<path fill="#fdfcfa" opacity="1.00" d=" M 0.00 139.74 L 0.75 139.98 C 2.86 153.80 6.31 167.58 12.58 180.13 C 22.74 199.68 37.50 216.86 55.90 229.06 C 56.30 230.45 57.59 231.33 59.04 231.05 C 73.35 239.69 89.28 245.98 105.89 248.26 C 107.01 249.41 108.67 249.40 110.10 248.89 C 111.39 248.92 112.69 248.96 113.99 249.00 L 114.01 250.00 L 0.00 250.00 L 0.00 139.74 Z" />
</g>
<g id="#90938cff">
<path fill="#90938c" opacity="1.00" d=" M 220.95 144.06 C 223.36 143.38 225.81 142.68 228.27 142.15 C 226.39 144.22 223.52 143.80 220.95 144.06 Z" />
</g>
<g id="#a56610ff">
<path fill="#a56610" opacity="1.00" d=" M 240.32 146.26 C 241.54 144.78 241.82 142.29 243.95 141.84 C 240.18 161.20 234.09 181.59 220.18 196.16 C 218.31 190.70 222.51 186.39 222.84 181.36 C 220.63 180.16 218.32 179.17 216.04 178.10 C 213.49 174.17 221.68 175.78 222.51 172.58 C 222.59 167.53 226.28 162.34 224.09 157.41 C 229.33 153.34 237.09 152.90 240.32 146.26 Z" />
</g>
<g id="#6c4710ff">
<path fill="#6c4710" opacity="1.00" d=" M 200.68 152.42 C 214.29 152.17 231.54 156.30 240.32 142.67 C 240.32 143.86 240.34 145.06 240.32 146.26 C 237.09 152.90 229.33 153.34 224.09 157.41 L 223.43 157.90 C 222.79 157.17 222.04 156.61 221.19 156.21 C 205.24 154.20 189.13 157.07 173.09 155.99 C 172.76 154.39 172.33 152.82 172.11 151.21 L 172.81 151.28 C 182.02 153.21 191.37 151.98 200.68 152.42 Z" />
</g>
<g id="#a3a19fff">
<path fill="#a3a19f" opacity="1.00" d=" M 27.81 144.18 C 28.40 144.10 29.58 143.95 30.17 143.87 C 38.88 144.11 47.59 143.92 56.30 144.32 C 46.95 146.03 37.21 145.03 27.81 144.18 Z" />
</g>
<g id="#775c13ff">
<path fill="#775c13" opacity="1.00" d=" M 132.70 144.14 C 136.07 146.06 138.50 149.14 141.35 151.71 C 146.67 152.02 152.01 152.22 157.35 152.32 C 156.73 153.97 155.19 154.94 153.88 155.99 C 152.23 155.98 148.93 155.94 147.29 155.92 C 146.80 152.25 141.26 155.20 139.50 153.52 C 136.92 150.64 134.78 147.39 132.70 144.14 Z" />
</g>
<g id="#9c9b96ff">
<path fill="#9c9b96" opacity="1.00" d=" M 183.89 144.20 C 186.89 144.14 189.87 144.02 192.89 143.95 C 201.99 143.96 211.08 144.01 220.18 144.22 C 208.18 145.66 195.90 145.38 183.89 144.20 Z" />
</g>
<g id="#67420eff">
<path fill="#67420e" opacity="1.00" d=" M 25.67 153.49 C 41.90 150.27 60.10 156.26 74.92 146.77 C 71.90 153.48 63.03 151.75 57.77 155.92 C 57.01 156.00 55.48 156.17 54.72 156.25 C 45.66 158.93 34.17 150.26 26.73 157.82 C 26.33 158.05 25.52 158.51 25.12 158.74 C 21.77 153.01 11.44 158.64 9.77 151.05 L 10.61 151.31 C 15.39 153.09 20.61 153.58 25.67 153.49 Z" />
</g>
<g id="#ccaf29ff">
<path fill="#ccaf29" opacity="1.00" d=" M 76.68 155.89 C 80.22 152.92 82.41 148.26 87.22 147.09 C 86.66 148.45 86.08 149.80 85.54 151.17 C 84.52 152.76 85.31 154.51 85.93 156.07 C 82.84 156.03 79.77 155.97 76.68 155.89 Z" />
</g>
<g id="#2d2613ff">
<path fill="#2d2613" opacity="1.00" d=" M 91.95 147.50 L 92.73 146.90 C 96.51 147.04 100.29 147.49 103.64 149.35 C 104.81 150.10 106.00 150.80 107.25 151.41 C 100.06 152.07 92.64 152.77 85.54 151.17 C 87.77 150.13 90.04 149.10 91.95 147.50 Z" />
</g>
<g id="#7a6915ff">
<path fill="#7a6915" opacity="1.00" d=" M 85.93 156.07 C 85.31 154.51 84.52 152.76 85.54 151.17 C 92.64 152.77 100.06 152.07 107.25 151.41 L 108.18 151.32 C 107.60 153.85 104.48 154.30 102.72 155.84 C 97.12 155.99 91.52 156.10 85.93 156.07 Z" />
</g>
<g id="#bc9676ff">
<path fill="#bc9676" opacity="1.00" d=" M 245.17 156.10 C 244.60 154.69 244.51 152.90 245.87 151.91 C 246.39 153.32 246.45 155.05 245.17 156.10 Z" />
</g>
<g id="#8b7e57ff">
<path fill="#8b7e57" opacity="1.00" d=" M 26.73 157.82 C 34.17 150.26 45.66 158.93 54.72 156.25 C 55.87 156.62 57.02 156.97 58.18 157.31 C 47.74 158.51 37.21 157.97 26.73 157.82 Z" />
</g>
<g id="#a49764ff">
<path fill="#a49764" opacity="1.00" d=" M 173.09 155.99 C 189.13 157.07 205.24 154.20 221.19 156.21 C 218.00 160.01 212.02 156.60 207.97 157.23 C 187.87 156.71 167.66 157.00 147.68 158.09 C 144.51 158.03 141.37 157.97 138.21 158.05 C 114.25 157.47 90.20 159.05 66.30 157.12 C 63.59 157.14 60.89 157.21 58.18 157.31 C 57.02 156.97 55.87 156.62 54.72 156.25 C 55.48 156.17 57.01 156.00 57.77 155.92 C 60.74 155.90 63.71 155.87 66.68 155.83 C 70.01 156.00 73.34 155.94 76.68 155.89 C 79.77 155.97 82.84 156.03 85.93 156.07 C 91.52 156.10 97.12 155.99 102.72 155.84 C 113.84 156.08 124.96 156.01 136.09 156.04 C 139.82 156.04 143.54 155.96 147.29 155.92 C 148.93 155.94 152.23 155.98 153.88 155.99 C 155.64 156.01 159.16 156.03 160.92 156.04 C 163.70 156.06 166.47 156.06 169.26 156.03 C 170.53 156.02 171.81 156.01 173.09 155.99 Z" />
</g>
<g id="#4e4d42ff">
<path fill="#4e4d42" opacity="1.00" d=" M 221.19 156.21 C 222.04 156.61 222.79 157.17 223.43 157.90 C 221.94 162.57 223.26 170.27 218.52 173.27 C 218.75 170.26 218.36 166.46 215.22 165.08 C 208.25 162.92 196.10 160.53 192.51 169.26 L 191.84 168.92 C 191.05 167.53 190.26 166.13 189.43 164.77 C 182.38 160.56 171.21 164.04 162.77 163.12 C 163.47 164.09 164.52 164.65 165.67 164.92 C 165.49 165.41 165.14 166.40 164.96 166.90 C 163.65 167.21 162.34 167.56 161.04 167.92 C 157.77 163.21 151.96 161.64 147.68 158.09 C 167.66 157.00 187.87 156.71 207.97 157.23 C 212.02 156.60 218.00 160.01 221.19 156.21 Z" />
</g>
<g id="#45453cff">
<path fill="#45453c" opacity="1.00" d=" M 58.18 157.31 C 60.89 157.21 63.59 157.14 66.30 157.12 C 63.96 158.44 61.39 159.72 61.82 162.88 C 56.83 161.96 55.19 162.36 56.89 164.10 C 57.15 164.35 57.66 164.86 57.91 165.11 C 57.53 168.10 57.20 171.08 56.92 174.09 L 56.12 174.16 C 50.43 174.10 44.66 173.52 39.07 174.83 C 39.00 172.33 38.93 169.83 38.88 167.34 C 39.99 166.48 41.10 165.63 42.22 164.78 C 48.50 161.08 34.62 163.88 33.14 162.89 C 37.05 171.29 34.54 181.35 34.28 190.28 C 34.12 187.09 33.96 183.92 33.61 180.75 L 33.67 180.00 C 36.12 173.90 28.55 177.94 26.25 174.65 C 25.99 169.33 25.81 164.02 25.12 158.74 C 25.52 158.51 26.33 158.05 26.73 157.82 C 37.21 157.97 47.74 158.51 58.18 157.31 Z" />
</g>
<g id="#525248ff">
<path fill="#525248" opacity="1.00" d=" M 66.30 157.12 C 90.20 159.05 114.25 157.47 138.21 158.05 C 135.73 162.49 131.17 165.09 127.68 168.65 C 125.28 172.81 125.11 178.45 120.76 181.69 C 115.70 179.16 116.95 184.10 119.01 187.02 C 115.70 188.51 110.91 182.55 113.16 179.81 L 114.25 179.75 C 116.66 180.10 118.56 178.48 120.33 177.10 C 121.31 176.35 121.99 175.31 122.34 174.14 C 122.88 171.26 127.47 166.75 123.09 165.12 C 122.12 164.64 121.13 164.21 120.12 163.84 C 112.80 162.38 105.28 162.98 97.87 163.07 C 98.47 163.66 99.09 164.24 99.73 164.80 C 99.96 173.23 100.51 181.73 99.63 190.14 C 96.13 182.46 104.10 169.74 95.29 164.94 C 95.42 164.44 95.68 163.44 95.81 162.94 C 87.26 162.94 78.70 162.93 70.15 162.98 C 70.31 163.46 70.63 164.42 70.79 164.90 C 68.77 165.46 65.96 168.02 65.08 164.78 C 67.13 162.20 63.50 163.09 61.82 162.88 C 61.39 159.72 63.96 158.44 66.30 157.12 Z" />
</g>
<g id="#615619ff">
<path fill="#615619" opacity="1.00" d=" M 138.21 158.05 C 141.37 157.97 144.51 158.03 147.68 158.09 C 151.96 161.64 157.77 163.21 161.04 167.92 C 161.90 169.90 162.05 172.06 161.96 174.19 C 161.31 172.81 160.67 171.42 159.99 170.07 C 154.88 157.38 133.46 158.04 129.07 171.13 C 128.81 171.40 128.29 171.93 128.03 172.20 C 127.94 171.31 127.77 169.54 127.68 168.65 C 131.17 165.09 135.73 162.49 138.21 158.05 Z" />
</g>
<g id="#2c261bff">
<path fill="#2c261b" opacity="1.00" d=" M 223.43 157.90 L 224.09 157.41 C 226.28 162.34 222.59 167.53 222.51 172.58 C 221.68 175.78 213.49 174.17 216.04 178.10 C 215.60 177.98 214.72 177.75 214.28 177.63 C 209.92 175.42 205.20 174.05 200.91 171.72 C 199.45 171.03 197.10 172.47 196.62 170.28 C 197.62 169.05 198.58 167.77 199.80 166.74 C 203.24 166.80 206.72 166.86 210.17 166.94 C 212.56 167.97 214.76 168.23 215.22 165.08 C 218.36 166.46 218.75 170.26 218.52 173.27 C 223.26 170.27 221.94 162.57 223.43 157.90 Z" />
</g>
<g id="#523814ff">
<path fill="#523814" opacity="1.00" d=" M 24.11 175.73 C 24.84 170.07 23.59 164.33 25.12 158.74 C 25.81 164.02 25.99 169.33 26.25 174.65 C 28.55 177.94 36.12 173.90 33.67 180.00 C 31.12 177.43 27.26 177.19 24.11 175.73 Z" />
</g>
<g id="#e3c42fff">
<path fill="#e3c42f" opacity="1.00" d=" M 129.07 171.13 C 133.46 158.04 154.88 157.38 159.99 170.07 C 155.94 169.96 153.00 167.05 149.60 165.29 C 142.28 163.98 135.03 167.15 129.07 171.13 Z" />
</g>
<g id="#949491ff">
<path fill="#949491" opacity="1.00" d=" M 33.14 162.89 C 34.62 163.88 48.50 161.08 42.22 164.78 C 35.49 162.59 35.10 164.10 38.88 167.34 C 38.93 169.83 39.00 172.33 39.07 174.83 C 44.66 173.52 50.43 174.10 56.12 174.16 C 51.33 176.07 44.37 172.72 40.68 176.89 C 47.18 177.01 53.71 177.28 60.20 176.88 C 59.17 175.87 58.05 174.98 56.92 174.09 C 57.20 171.08 57.53 168.10 57.91 165.11 C 59.13 165.78 60.35 166.43 61.60 167.04 C 62.38 174.57 60.95 179.92 52.78 178.08 C 49.92 178.01 47.07 177.91 44.22 177.92 C 38.58 176.41 38.39 181.88 39.04 186.21 C 38.45 187.56 33.56 194.86 34.28 190.28 C 34.54 181.35 37.05 171.29 33.14 162.89 Z" />
</g>
<g id="#8e8f8aff">
<path fill="#8e8f8a" opacity="1.00" d=" M 56.89 164.10 C 55.19 162.36 56.83 161.96 61.82 162.88 C 63.50 163.09 67.13 162.20 65.08 164.78 L 64.25 164.71 C 61.79 164.48 59.34 164.28 56.89 164.10 Z" />
<path fill="#8e8f8a" opacity="1.00" d=" M 70.15 162.98 C 78.70 162.93 87.26 162.94 95.81 162.94 C 95.68 163.44 95.42 164.44 95.29 164.94 L 94.57 164.88 C 87.02 164.01 79.06 162.97 71.57 164.68 L 70.79 164.90 C 70.63 164.42 70.31 163.46 70.15 162.98 Z" />
<path fill="#8e8f8a" opacity="1.00" d=" M 76.67 166.91 C 82.08 165.69 87.63 166.13 93.12 166.04 C 88.07 168.00 82.04 166.43 76.67 166.91 Z" />
</g>
<g id="#878682ff">
<path fill="#878682" opacity="1.00" d=" M 97.87 163.07 C 105.28 162.98 112.80 162.38 120.12 163.84 C 113.37 164.42 106.30 162.78 99.73 164.80 C 99.09 164.24 98.47 163.66 97.87 163.07 Z" />
</g>
<g id="#8e8f89ff">
<path fill="#8e8f89" opacity="1.00" d=" M 162.77 163.12 C 171.21 164.04 182.38 160.56 189.43 164.77 L 188.62 164.74 C 181.09 164.40 172.98 162.52 165.67 164.92 C 164.52 164.65 163.47 164.09 162.77 163.12 Z" />
</g>
<g id="#cecdc9ff">
<path fill="#cecdc9" opacity="1.00" d=" M 192.51 169.26 C 196.10 160.53 208.25 162.92 215.22 165.08 C 214.76 168.23 212.56 167.97 210.17 166.94 C 206.70 165.74 203.25 165.68 199.80 166.74 C 198.58 167.77 197.62 169.05 196.62 170.28 C 195.14 170.76 193.79 169.90 192.51 169.26 Z" />
</g>
<g id="#e6e6e3ff">
<path fill="#e6e6e3" opacity="1.00" d=" M 38.88 167.34 C 35.10 164.10 35.49 162.59 42.22 164.78 C 41.10 165.63 39.99 166.48 38.88 167.34 Z" />
</g>
<g id="#dedfdaff">
<path fill="#dedfda" opacity="1.00" d=" M 56.89 164.10 C 59.34 164.28 61.79 164.48 64.25 164.71 C 63.34 165.46 62.46 166.24 61.60 167.04 C 60.35 166.43 59.13 165.78 57.91 165.11 C 57.66 164.86 57.15 164.35 56.89 164.10 Z" />
</g>
<g id="#e8e8e3ff">
<path fill="#e8e8e3" opacity="1.00" d=" M 71.57 164.68 C 79.06 162.97 87.02 164.01 94.57 164.88 C 94.21 165.17 93.48 165.75 93.12 166.04 C 87.63 166.13 82.08 165.69 76.67 166.91 L 75.73 167.03 C 74.30 166.33 72.94 165.50 71.57 164.68 Z" />
</g>
<g id="#dbdbd6ff">
<path fill="#dbdbd6" opacity="1.00" d=" M 99.73 164.80 C 106.30 162.78 113.37 164.42 120.12 163.84 C 121.13 164.21 122.12 164.64 123.09 165.12 C 122.45 166.66 122.42 169.77 120.12 168.14 C 119.17 167.64 118.20 167.18 117.20 166.77 C 113.66 166.52 109.07 164.51 105.84 166.89 C 105.35 167.20 104.39 167.82 103.90 168.13 C 102.52 167.00 101.14 165.88 99.73 164.80 Z" />
</g>
<g id="#e9eae4ff">
<path fill="#e9eae4" opacity="1.00" d=" M 165.67 164.92 C 172.98 162.52 181.09 164.40 188.62 164.74 C 188.25 165.06 187.50 165.71 187.13 166.04 C 181.63 166.12 176.08 165.72 170.67 166.89 L 169.74 167.00 C 168.35 166.36 167.01 165.63 165.67 164.92 Z" />
</g>
<g id="#363732ff">
<path fill="#363732" opacity="1.00" d=" M 61.60 167.04 C 62.46 166.24 63.34 165.46 64.25 164.71 L 65.08 164.78 C 65.96 168.02 68.77 165.46 70.79 164.90 L 71.57 164.68 C 70.44 173.78 71.89 183.04 70.22 192.08 C 72.79 197.89 67.72 197.42 63.07 197.06 C 66.06 194.31 66.47 186.90 61.00 187.69 C 61.00 184.74 61.10 181.81 60.92 178.88 C 55.34 178.59 54.43 189.96 57.74 190.98 C 55.65 192.53 56.39 194.88 56.83 197.04 C 51.94 196.88 43.30 198.26 42.83 191.24 C 43.36 184.36 50.26 180.60 56.17 184.85 C 57.24 181.09 52.72 181.37 52.78 178.08 C 60.95 179.92 62.38 174.57 61.60 167.04 Z" />
</g>
<g id="#969893ff">
<path fill="#969893" opacity="1.00" d=" M 71.57 164.68 C 72.94 165.50 74.30 166.33 75.73 167.03 L 75.67 167.86 C 75.92 170.59 72.80 177.00 77.92 176.23 C 77.92 176.64 77.93 177.45 77.94 177.86 C 72.26 177.37 75.86 185.58 74.12 188.93 C 72.78 189.92 71.47 190.97 70.22 192.08 C 71.89 183.04 70.44 173.78 71.57 164.68 Z" />
</g>
<g id="#2b2c27ff">
<path fill="#2b2c27" opacity="1.00" d=" M 94.57 164.88 L 95.29 164.94 C 104.10 169.74 96.13 182.46 99.63 190.14 C 99.66 190.47 99.74 191.12 99.78 191.44 C 96.76 194.77 94.81 189.70 95.63 186.95 C 94.58 182.10 83.98 187.33 79.00 186.10 C 75.28 186.06 79.57 178.10 83.21 178.19 C 86.22 178.40 89.43 177.61 90.30 174.32 C 86.59 174.58 82.89 174.95 79.18 175.24 C 74.52 176.05 75.98 171.04 75.67 167.86 L 75.73 167.03 L 76.67 166.91 C 82.04 166.43 88.07 168.00 93.12 166.04 C 93.48 165.75 94.21 165.17 94.57 164.88 Z" />
</g>
<g id="#8d8d8aff">
<path fill="#8d8d8a" opacity="1.00" d=" M 99.73 164.80 C 101.14 165.88 102.52 167.00 103.90 168.13 C 105.09 170.47 101.66 178.33 106.67 176.77 C 104.43 181.32 111.73 178.16 114.25 179.75 L 113.16 179.81 C 105.45 177.70 102.68 180.86 103.89 187.73 C 102.56 189.01 101.23 190.30 99.78 191.44 C 99.74 191.12 99.66 190.47 99.63 190.14 C 100.51 181.73 99.96 173.23 99.73 164.80 Z" />
</g>
<g id="#83847fff">
<path fill="#83847f" opacity="1.00" d=" M 123.09 165.12 C 127.47 166.75 122.88 171.26 122.34 174.14 C 122.63 171.23 118.92 172.28 118.01 173.97 C 117.75 171.73 118.86 169.87 120.12 168.14 C 122.42 169.77 122.45 166.66 123.09 165.12 Z" />
</g>
<g id="#daaa10ff">
<path fill="#daaa10" opacity="1.00" d=" M 129.07 171.13 C 135.03 167.15 142.28 163.98 149.60 165.29 C 153.00 167.05 155.94 169.96 159.99 170.07 C 160.67 171.42 161.31 172.81 161.96 174.19 C 161.95 174.60 161.93 175.42 161.92 175.83 C 156.72 176.06 158.39 191.28 156.67 179.27 C 149.92 175.08 150.73 181.00 150.46 185.27 C 149.08 184.14 147.86 180.87 146.44 183.72 C 143.98 182.63 144.57 178.32 141.21 178.89 C 140.08 179.73 142.77 188.56 138.66 185.36 C 139.59 180.84 136.41 176.79 131.97 176.91 C 131.91 182.17 134.78 186.34 138.00 190.13 C 131.77 189.14 132.77 180.81 127.97 179.81 C 127.98 177.27 128.00 174.73 128.03 172.20 C 128.29 171.93 128.81 171.40 129.07 171.13 Z" />
</g>
<g id="#91938dff">
<path fill="#91938d" opacity="1.00" d=" M 165.67 164.92 C 167.01 165.63 168.35 166.36 169.74 167.00 C 169.59 167.51 169.29 168.52 169.15 169.02 C 169.05 171.56 167.71 175.34 170.62 176.42 C 171.01 176.76 171.78 177.43 172.17 177.77 C 166.25 177.18 169.80 185.44 168.17 188.96 C 167.01 189.71 165.85 190.48 164.72 191.27 C 164.93 183.14 165.04 175.02 164.96 166.90 C 165.14 166.40 165.49 165.41 165.67 164.92 Z" />
</g>
<g id="#2a2b27ff">
<path fill="#2a2b27" opacity="1.00" d=" M 188.62 164.74 L 189.43 164.77 C 190.26 166.13 191.05 167.53 191.84 168.92 C 190.54 174.65 194.45 174.71 198.60 174.91 C 202.55 177.63 207.45 178.42 211.45 181.05 C 210.58 182.33 209.70 183.61 208.90 184.94 C 204.22 186.89 199.14 185.95 194.82 183.70 C 194.59 183.43 194.14 182.89 193.92 182.62 C 190.12 174.86 185.03 179.46 183.83 185.90 C 179.76 186.01 175.69 186.10 171.62 186.19 C 171.98 182.14 173.93 179.86 177.38 178.32 C 180.32 178.33 183.43 177.54 184.31 174.34 C 180.57 174.60 176.85 175.02 173.10 175.00 C 173.97 170.85 173.38 168.02 169.15 169.02 C 169.29 168.52 169.59 167.51 169.74 167.00 L 170.67 166.89 C 176.02 166.40 182.13 168.05 187.13 166.04 C 187.50 165.71 188.25 165.06 188.62 164.74 Z" />
</g>
<g id="#9d9e98ff">
<path fill="#9d9e98" opacity="1.00" d=" M 105.84 166.89 C 109.07 164.51 113.66 166.52 117.20 166.77 C 113.41 166.84 109.63 166.95 105.84 166.89 Z" />
</g>
<g id="#8f918cff">
<path fill="#8f918c" opacity="1.00" d=" M 170.67 166.89 C 176.08 165.72 181.63 166.12 187.13 166.04 C 182.13 168.05 176.02 166.40 170.67 166.89 Z" />
</g>
<g id="#7c7a76ff">
<path fill="#7c7a76" opacity="1.00" d=" M 199.80 166.74 C 203.25 165.68 206.70 165.74 210.17 166.94 C 206.72 166.86 203.24 166.80 199.80 166.74 Z" />
</g>
<g id="#31312cff">
<path fill="#31312c" opacity="1.00" d=" M 103.90 168.13 C 104.39 167.82 105.35 167.20 105.84 166.89 C 109.63 166.95 113.41 166.84 117.20 166.77 C 118.20 167.18 119.17 167.64 120.12 168.14 C 118.86 169.87 117.75 171.73 118.01 173.97 L 117.95 174.84 C 117.08 175.35 116.18 175.81 115.26 176.23 C 112.37 176.22 109.45 175.84 106.67 176.77 C 101.66 178.33 105.09 170.47 103.90 168.13 Z" />
</g>
<g id="#3f331fff">
<path fill="#3f331f" opacity="1.00" d=" M 161.04 167.92 C 162.34 167.56 163.65 167.21 164.96 166.90 C 165.04 175.02 164.93 183.14 164.72 191.27 C 159.97 193.80 165.02 193.80 166.17 197.02 C 161.87 196.67 155.18 198.98 155.14 192.77 C 157.34 189.98 159.66 187.23 160.99 183.89 C 161.91 181.31 161.77 178.52 161.92 175.83 C 161.93 175.42 161.95 174.60 161.96 174.19 C 162.05 172.06 161.90 169.90 161.04 167.92 Z" />
</g>
<g id="#676763ff">
<path fill="#676763" opacity="1.00" d=" M 77.92 176.23 C 72.80 177.00 75.92 170.59 75.67 167.86 C 75.98 171.04 74.52 176.05 79.18 175.24 C 78.87 175.48 78.24 175.98 77.92 176.23 Z" />
</g>
<g id="#392e1bff">
<path fill="#392e1b" opacity="1.00" d=" M 120.76 181.69 C 125.11 178.45 125.28 172.81 127.68 168.65 C 127.77 169.54 127.94 171.31 128.03 172.20 C 128.00 174.73 127.98 177.27 127.97 179.81 C 126.97 186.73 133.05 191.83 138.45 195.04 C 134.79 198.77 128.67 196.68 123.89 196.92 C 123.94 194.79 125.34 193.12 126.21 191.28 C 125.96 187.90 122.67 184.75 120.76 181.69 Z" />
</g>
<g id="#575456ff">
<path fill="#575456" opacity="1.00" d=" M 169.15 169.02 C 173.38 168.02 173.97 170.85 173.10 175.00 C 172.48 175.35 171.24 176.06 170.62 176.42 C 167.71 175.34 169.05 171.56 169.15 169.02 Z" />
</g>
<g id="#72706cff">
<path fill="#72706c" opacity="1.00" d=" M 191.84 168.92 L 192.51 169.26 C 193.79 169.90 195.14 170.76 196.62 170.28 C 197.10 172.47 199.45 171.03 200.91 171.72 C 200.09 172.74 199.32 173.81 198.60 174.91 C 194.45 174.71 190.54 174.65 191.84 168.92 Z" />
</g>
<g id="#b6b9b8ff">
<path fill="#b6b9b8" opacity="1.00" d=" M 118.01 173.97 C 118.92 172.28 122.63 171.23 122.34 174.14 C 121.99 175.31 121.31 176.35 120.33 177.10 C 119.55 176.33 118.75 175.58 117.95 174.84 L 118.01 173.97 Z" />
</g>
<g id="#bebfbbff">
<path fill="#bebfbb" opacity="1.00" d=" M 198.60 174.91 C 199.32 173.81 200.09 172.74 200.91 171.72 C 205.20 174.05 209.92 175.42 214.28 177.63 C 213.82 179.26 213.74 181.45 211.45 181.05 C 207.45 178.42 202.55 177.63 198.60 174.91 Z" />
</g>
<g id="#eff0edff">
<path fill="#eff0ed" opacity="1.00" d=" M 56.12 174.16 L 56.92 174.09 C 58.05 174.98 59.17 175.87 60.20 176.88 C 53.71 177.28 47.18 177.01 40.68 176.89 C 44.37 172.72 51.33 176.07 56.12 174.16 Z" />
</g>
<g id="#d3d5d1ff">
<path fill="#d3d5d1" opacity="1.00" d=" M 79.18 175.24 C 82.89 174.95 86.59 174.58 90.30 174.32 C 89.43 177.61 86.22 178.40 83.21 178.19 C 81.45 178.10 79.69 177.97 77.94 177.86 C 77.93 177.45 77.92 176.64 77.92 176.23 C 78.24 175.98 78.87 175.48 79.18 175.24 Z" />
</g>
<g id="#d5d8d4ff">
<path fill="#d5d8d4" opacity="1.00" d=" M 173.10 175.00 C 176.85 175.02 180.57 174.60 184.31 174.34 C 183.43 177.54 180.32 178.33 177.38 178.32 C 175.64 178.12 173.91 177.95 172.17 177.77 C 171.78 177.43 171.01 176.76 170.62 176.42 C 171.24 176.06 172.48 175.35 173.10 175.00 Z" />
</g>
<g id="#e8ebe7ff">
<path fill="#e8ebe7" opacity="1.00" d=" M 115.26 176.23 C 116.18 175.81 117.08 175.35 117.95 174.84 C 118.75 175.58 119.55 176.33 120.33 177.10 C 118.56 178.48 116.66 180.10 114.25 179.75 C 111.73 178.16 104.43 181.32 106.67 176.77 C 109.53 176.69 112.61 177.60 115.26 176.23 Z" />
</g>
<g id="#8e8e8dff">
<path fill="#8e8e8d" opacity="1.00" d=" M 106.67 176.77 C 109.45 175.84 112.37 176.22 115.26 176.23 C 112.61 177.60 109.53 176.69 106.67 176.77 Z" />
</g>
<g id="#c2830dff">
<path fill="#c2830d" opacity="1.00" d=" M 156.67 179.27 C 158.39 191.28 156.72 176.06 161.92 175.83 C 161.77 178.52 161.91 181.31 160.99 183.89 C 154.19 188.09 146.12 197.14 138.00 190.13 C 134.78 186.34 131.91 182.17 131.97 176.91 C 136.41 176.79 139.59 180.84 138.66 185.36 C 142.77 188.56 140.08 179.73 141.21 178.89 C 144.57 178.32 143.98 182.63 146.44 183.72 C 147.86 180.87 149.08 184.14 150.46 185.27 C 150.73 181.00 149.92 175.08 156.67 179.27 Z" />
</g>
<g id="#733612ff">
<path fill="#733612" opacity="1.00" d=" M 12.58 180.13 C 13.25 178.40 13.97 176.18 16.02 177.89 C 19.90 183.74 21.42 192.05 27.84 195.53 C 31.91 201.98 44.79 195.43 52.28 198.72 C 45.15 198.96 38.01 198.96 30.88 199.06 C 40.35 216.52 59.80 226.49 76.88 235.17 C 117.55 253.71 167.74 246.11 201.30 217.22 C 205.55 213.74 209.57 210.01 213.28 205.96 C 214.70 206.55 216.08 207.25 217.44 207.99 C 196.56 231.03 167.12 246.57 135.97 249.06 C 128.64 249.00 121.32 248.99 113.99 249.00 C 112.69 248.96 111.39 248.92 110.10 248.89 C 109.13 247.45 107.27 247.62 105.89 248.26 C 89.28 245.98 73.35 239.69 59.04 231.05 C 58.82 229.53 57.37 228.63 55.90 229.06 C 37.50 216.86 22.74 199.68 12.58 180.13 Z" />
</g>
<g id="#393c39ff">
<path fill="#393c39" opacity="1.00" d=" M 39.04 186.21 C 38.39 181.88 38.58 176.41 44.22 177.92 C 43.46 180.56 42.19 186.97 39.04 186.21 Z" />
</g>
<g id="#1e1812ff">
<path fill="#1e1812" opacity="1.00" d=" M 44.22 177.92 C 47.07 177.91 49.92 178.01 52.78 178.08 C 52.72 181.37 57.24 181.09 56.17 184.85 C 50.26 180.60 43.36 184.36 42.83 191.24 C 43.30 198.26 51.94 196.88 56.83 197.04 C 56.39 194.88 55.65 192.53 57.74 190.98 C 58.80 189.86 59.89 188.76 61.00 187.69 C 66.47 186.90 66.06 194.31 63.07 197.06 C 67.72 197.42 72.79 197.89 70.22 192.08 C 71.47 190.97 72.78 189.92 74.12 188.93 C 74.74 188.93 75.98 188.94 76.60 188.94 L 77.62 189.08 C 82.67 189.97 88.18 190.81 93.15 189.22 C 94.02 188.51 94.85 187.75 95.63 186.95 C 94.81 189.70 96.76 194.77 99.78 191.44 C 101.23 190.30 102.56 189.01 103.89 187.73 C 106.76 185.98 109.26 188.66 106.37 190.87 C 110.39 192.43 107.93 194.79 105.89 197.03 C 108.12 195.82 121.46 199.74 116.09 194.87 C 113.18 191.39 120.16 190.69 122.03 188.72 C 123.44 189.55 124.82 190.41 126.21 191.28 C 125.34 193.12 123.94 194.79 123.89 196.92 C 128.67 196.68 134.79 198.77 138.45 195.04 C 144.26 196.74 150.05 195.98 155.14 192.77 C 155.18 198.98 161.87 196.67 166.17 197.02 C 165.02 193.80 159.97 193.80 164.72 191.27 C 165.85 190.48 167.01 189.71 168.17 188.96 C 168.77 189.03 169.97 189.17 170.57 189.25 C 175.81 189.35 182.31 191.65 187.14 189.16 C 187.82 188.41 188.47 187.64 189.11 186.86 C 191.02 189.27 193.67 192.96 195.22 188.17 C 195.70 188.11 196.65 187.99 197.12 187.93 C 198.72 188.39 200.31 188.86 201.92 189.30 C 204.28 190.50 207.36 191.71 209.13 189.23 C 209.67 188.98 210.75 188.49 211.29 188.25 C 213.02 185.40 215.64 181.75 216.04 178.10 C 218.32 179.17 220.63 180.16 222.84 181.36 C 222.51 186.39 218.31 190.70 220.18 196.16 C 219.59 197.91 217.85 199.11 216.00 199.00 C 205.34 199.19 194.68 198.78 184.03 199.17 C 165.72 198.81 147.41 199.08 129.10 198.98 C 123.69 198.92 118.29 199.08 112.91 199.61 L 112.12 199.65 C 100.70 198.57 89.22 198.90 77.78 199.19 C 76.12 199.12 74.47 199.09 72.81 199.09 C 70.11 199.07 67.42 199.08 64.73 199.13 C 60.58 198.98 56.43 198.95 52.28 198.72 C 44.79 195.43 31.91 201.98 27.84 195.53 C 32.45 192.33 27.67 183.85 33.61 180.75 C 33.96 183.92 34.12 187.09 34.28 190.28 C 33.56 194.86 38.45 187.56 39.04 186.21 C 42.19 186.97 43.46 180.56 44.22 177.92 Z" />
</g>
<g id="#50524fff">
<path fill="#50524f" opacity="1.00" d=" M 74.12 188.93 C 75.86 185.58 72.26 177.37 77.94 177.86 C 79.69 177.97 81.45 178.10 83.21 178.19 C 79.57 178.10 75.28 186.06 79.00 186.10 C 78.16 187.01 77.37 187.97 76.60 188.94 C 75.98 188.94 74.74 188.93 74.12 188.93 Z" />
</g>
<g id="#4e4f4cff">
<path fill="#4e4f4c" opacity="1.00" d=" M 168.17 188.96 C 169.80 185.44 166.25 177.18 172.17 177.77 C 173.91 177.95 175.64 178.12 177.38 178.32 C 173.93 179.86 171.98 182.14 171.62 186.19 C 170.65 186.96 170.40 188.04 170.57 189.25 C 169.97 189.17 168.77 189.03 168.17 188.96 Z" />
</g>
<g id="#42433eff">
<path fill="#42433e" opacity="1.00" d=" M 183.83 185.90 C 185.03 179.46 190.12 174.86 193.92 182.62 C 191.08 182.74 192.67 188.58 195.22 188.17 C 193.67 192.96 191.02 189.27 189.11 186.86 C 188.64 186.69 187.69 186.36 187.22 186.20 C 186.37 186.12 184.68 185.97 183.83 185.90 Z" />
</g>
<g id="#83827dff">
<path fill="#83827d" opacity="1.00" d=" M 214.28 177.63 C 214.72 177.75 215.60 177.98 216.04 178.10 C 215.64 181.75 213.02 185.40 211.29 188.25 C 212.39 185.79 211.85 184.30 208.90 184.94 C 209.70 183.61 210.58 182.33 211.45 181.05 C 213.74 181.45 213.82 179.26 214.28 177.63 Z" />
</g>
<g id="#8e908bff">
<path fill="#8e908b" opacity="1.00" d=" M 57.74 190.98 C 54.43 189.96 55.34 178.59 60.92 178.88 C 61.10 181.81 61.00 184.74 61.00 187.69 C 59.89 188.76 58.80 189.86 57.74 190.98 Z" />
</g>
<g id="#333430ff">
<path fill="#333430" opacity="1.00" d=" M 103.89 187.73 C 102.68 180.86 105.45 177.70 113.16 179.81 C 110.91 182.55 115.70 188.51 119.01 187.02 C 120.02 187.56 121.04 188.11 122.03 188.72 C 120.16 190.69 113.18 191.39 116.09 194.87 C 121.46 199.74 108.12 195.82 105.89 197.03 C 107.93 194.79 110.39 192.43 106.37 190.87 C 109.26 188.66 106.76 185.98 103.89 187.73 Z" />
</g>
<g id="#915e10ff">
<path fill="#915e10" opacity="1.00" d=" M 127.97 179.81 C 132.77 180.81 131.77 189.14 138.00 190.13 C 146.12 197.14 154.19 188.09 160.99 183.89 C 159.66 187.23 157.34 189.98 155.14 192.77 C 150.05 195.98 144.26 196.74 138.45 195.04 C 133.05 191.83 126.97 186.73 127.97 179.81 Z" />
</g>
<g id="#81827dff">
<path fill="#81827d" opacity="1.00" d=" M 119.01 187.02 C 116.95 184.10 115.70 179.16 120.76 181.69 C 122.67 184.75 125.96 187.90 126.21 191.28 C 124.82 190.41 123.44 189.55 122.03 188.72 C 121.04 188.11 120.02 187.56 119.01 187.02 Z" />
<path fill="#81827d" opacity="1.00" d=" M 195.22 188.17 C 192.67 188.58 191.08 182.74 193.92 182.62 C 194.14 182.89 194.59 183.43 194.82 183.70 C 193.21 185.85 195.54 186.87 197.12 187.93 C 196.65 187.99 195.70 188.11 195.22 188.17 Z" />
</g>
<g id="#c5c6c3ff">
<path fill="#c5c6c3" opacity="1.00" d=" M 197.12 187.93 C 195.54 186.87 193.21 185.85 194.82 183.70 C 199.14 185.95 204.22 186.89 208.90 184.94 C 211.85 184.30 212.39 185.79 211.29 188.25 C 210.75 188.49 209.67 188.98 209.13 189.23 C 207.33 189.25 203.72 189.28 201.92 189.30 C 200.31 188.86 198.72 188.39 197.12 187.93 Z" />
</g>
<g id="#cbcdcaff">
<path fill="#cbcdca" opacity="1.00" d=" M 79.00 186.10 C 83.98 187.33 94.58 182.10 95.63 186.95 C 94.85 187.75 94.02 188.51 93.15 189.22 C 87.97 189.11 82.80 189.07 77.62 189.08 L 76.60 188.94 C 77.37 187.97 78.16 187.01 79.00 186.10 Z" />
</g>
<g id="#b3b5b0ff">
<path fill="#b3b5b0" opacity="1.00" d=" M 171.62 186.19 C 175.69 186.10 179.76 186.01 183.83 185.90 C 184.68 185.97 186.37 186.12 187.22 186.20 C 182.97 188.12 175.07 184.44 172.66 188.97 C 172.14 189.04 171.09 189.18 170.57 189.25 C 170.40 188.04 170.65 186.96 171.62 186.19 Z" />
</g>
<g id="#e5e4e0ff">
<path fill="#e5e4e0" opacity="1.00" d=" M 187.22 186.20 C 187.69 186.36 188.64 186.69 189.11 186.86 C 188.47 187.64 187.82 188.41 187.14 189.16 C 182.31 189.11 177.49 188.98 172.66 188.97 C 175.07 184.44 182.97 188.12 187.22 186.20 Z" />
</g>
<g id="#464844ff">
<path fill="#464844" opacity="1.00" d=" M 77.62 189.08 C 82.80 189.07 87.97 189.11 93.15 189.22 C 88.18 190.81 82.67 189.97 77.62 189.08 Z" />
</g>
<g id="#474843ff">
<path fill="#474843" opacity="1.00" d=" M 170.57 189.25 C 171.09 189.18 172.14 189.04 172.66 188.97 C 177.49 188.98 182.31 189.11 187.14 189.16 C 182.31 191.65 175.81 189.35 170.57 189.25 Z" />
</g>
<g id="#60615fff">
<path fill="#60615f" opacity="1.00" d=" M 201.92 189.30 C 203.72 189.28 207.33 189.25 209.13 189.23 C 207.36 191.71 204.28 190.50 201.92 189.30 Z" />
</g>
<g id="#995d07ff">
<path fill="#995d07" opacity="1.00" d=" M 30.88 199.06 C 38.01 198.96 45.15 198.96 52.28 198.72 C 56.43 198.95 60.58 198.98 64.73 199.13 C 96.93 226.74 149.50 228.28 182.17 200.52 C 182.57 200.43 183.37 200.26 183.77 200.18 C 194.84 200.69 206.08 199.92 217.02 201.13 C 217.02 203.43 214.56 204.39 213.28 205.96 C 209.57 210.01 205.55 213.74 201.30 217.22 C 199.18 215.57 195.26 208.31 196.61 217.57 C 194.49 221.88 189.65 221.30 186.90 218.04 C 182.81 220.51 179.11 225.10 174.87 227.97 C 171.43 227.78 171.26 222.48 168.86 221.20 C 163.42 224.79 159.82 234.20 152.41 234.86 C 152.46 231.15 147.92 227.31 147.61 233.07 C 145.21 230.43 141.45 230.62 139.29 227.65 C 135.10 224.83 132.53 229.53 129.47 231.31 C 131.33 225.46 124.61 226.65 125.67 231.97 C 122.16 229.00 117.62 230.23 116.58 234.89 C 112.17 233.31 119.04 229.11 115.80 227.06 C 111.72 227.26 107.41 230.17 103.62 227.29 C 100.67 223.88 98.18 231.84 95.16 228.90 C 92.71 227.58 89.67 221.46 87.99 227.95 C 85.95 232.72 81.86 234.85 76.88 235.17 C 59.80 226.49 40.35 216.52 30.88 199.06 Z" />
</g>
<g id="#e0b716ff">
<path fill="#e0b716" opacity="1.00" d=" M 64.73 199.13 C 67.42 199.08 70.11 199.07 72.81 199.09 C 90.86 209.85 111.57 217.03 132.84 214.98 C 146.98 212.02 162.72 208.40 174.33 200.10 C 176.93 200.00 179.58 200.10 182.17 200.52 C 149.50 228.28 96.93 226.74 64.73 199.13 Z" />
</g>
<g id="#b9730bff">
<path fill="#b9730b" opacity="1.00" d=" M 72.81 199.09 C 74.47 199.09 76.12 199.12 77.78 199.19 C 89.16 200.48 100.69 200.29 112.12 199.65 L 112.91 199.61 C 117.08 199.69 120.96 201.27 124.06 204.03 C 125.83 202.84 127.32 201.29 128.88 199.86 C 143.96 201.37 159.21 200.39 174.33 200.10 C 162.72 208.40 146.98 212.02 132.84 214.98 C 111.57 217.03 90.86 209.85 72.81 199.09 Z" />
</g>
<g id="#6c481fff">
<path fill="#6c481f" opacity="1.00" d=" M 77.78 199.19 C 89.22 198.90 100.70 198.57 112.12 199.65 C 100.69 200.29 89.16 200.48 77.78 199.19 Z" />
</g>
<g id="#8b3e15ff">
<path fill="#8b3e15" opacity="1.00" d=" M 112.91 199.61 C 118.29 199.08 123.69 198.92 129.10 198.98 L 128.88 199.86 C 127.32 201.29 125.83 202.84 124.06 204.03 C 120.96 201.27 117.08 199.69 112.91 199.61 Z" />
</g>
<g id="#a2722dff">
<path fill="#a2722d" opacity="1.00" d=" M 129.10 198.98 C 147.41 199.08 165.72 198.81 184.03 199.17 L 183.77 200.18 C 183.37 200.26 182.57 200.43 182.17 200.52 C 179.58 200.10 176.93 200.00 174.33 200.10 C 159.21 200.39 143.96 201.37 128.88 199.86 L 129.10 198.98 Z" />
</g>
<g id="#915107ff">
<path fill="#915107" opacity="1.00" d=" M 196.61 217.57 C 195.26 208.31 199.18 215.57 201.30 217.22 C 167.74 246.11 117.55 253.71 76.88 235.17 C 81.86 234.85 85.95 232.72 87.99 227.95 C 89.67 221.46 92.71 227.58 95.16 228.90 C 98.18 231.84 100.67 223.88 103.62 227.29 C 107.41 230.17 111.72 227.26 115.80 227.06 C 119.04 229.11 112.17 233.31 116.58 234.89 C 117.62 230.23 122.16 229.00 125.67 231.97 C 124.61 226.65 131.33 225.46 129.47 231.31 C 132.53 229.53 135.10 224.83 139.29 227.65 C 141.45 230.62 145.21 230.43 147.61 233.07 C 147.92 227.31 152.46 231.15 152.41 234.86 C 159.82 234.20 163.42 224.79 168.86 221.20 C 171.26 222.48 171.43 227.78 174.87 227.97 C 179.11 225.10 182.81 220.51 186.90 218.04 C 189.65 221.30 194.49 221.88 196.61 217.57 Z" />
</g>
<g id="#a98a76ff">
<path fill="#a98a76" opacity="1.00" d=" M 55.90 229.06 C 57.37 228.63 58.82 229.53 59.04 231.05 C 57.59 231.33 56.30 230.45 55.90 229.06 Z" />
</g>
<g id="#b4937cff">
<path fill="#b4937c" opacity="1.00" d=" M 105.89 248.26 C 107.27 247.62 109.13 247.45 110.10 248.89 C 108.67 249.40 107.01 249.41 105.89 248.26 Z" />
</g>
<g id="#ce9c7fff">
<path fill="#ce9c7f" opacity="1.00" d=" M 113.99 249.00 C 121.32 248.99 128.64 249.00 135.97 249.06 L 136.06 250.00 L 114.01 250.00 L 113.99 249.00 Z" />
</g>
</svg>
