<?xml version="1.0" encoding="utf-8"?>
<!-- Generator: Adobe Illustrator 26.0.3, SVG Export Plug-In . SVG Version: 6.00 Build 0)  -->
<svg version="1.1" id="Layer_1" xmlns="http://www.w3.org/2000/svg" xmlns:xlink="http://www.w3.org/1999/xlink" x="0px" y="0px"
	 viewBox="0 0 250 250" style="enable-background:new 0 0 250 250;" xml:space="preserve">
<style type="text/css">
	.st0{fill:#FFFFFF;}
	.st1{fill:#FEFEFE;}
	.st2{fill:#E5E5E5;}
	.st3{fill:#3A1100;}
	.st4{fill:#F7E7AE;}
	.st5{fill:#F1D273;}
	.st6{fill:#E7BD40;}
	.st7{fill:#FAB51A;}
	.st8{fill:#BC6B7B;}
	.st9{fill:#CD8E49;}
	.st10{fill:#D9C593;}
	.st11{fill:#300E00;}
	.st12{fill:#FADF8C;}
	.st13{fill:#DC9E4B;}
	.st14{fill:#F9B41B;}
	.st15{fill:#401D00;}
	.st16{fill:#F2B52B;}
	.st17{fill:#F4B54F;}
	.st18{fill:#E6882B;}
	.st19{fill:#F4AD3C;}
	.st20{fill:#FB937D;}
	.st21{fill:#FFF697;}
	.st22{fill:#F7977D;}
	.st23{fill:#DF724D;}
	.st24{fill:#42070B;}
	.st25{fill:#DEB861;}
	.st26{fill:#E26D66;}
	.st27{fill:#EFD096;}
	.st28{fill:#E4BE62;}
	.st29{fill:#FFFCE7;}
	.st30{fill:#4A0A00;}
	.st31{fill:#3B1B00;}
	.st32{fill:#DBA05F;}
	.st33{fill:#3F0400;}
	.st34{fill:#030506;}
	.st35{fill:#F7F8FA;}
	.st36{fill:#010A1E;}
	.st37{fill:#3C73A3;}
	.st38{fill:#EBAF48;}
	.st39{fill:#BD8B45;}
	.st40{fill:#F4E0BB;}
	.st41{fill:#786F7A;}
	.st42{fill:#4F0000;}
	.st43{fill:#3A69A5;}
	.st44{fill:#79A4B4;}
	.st45{fill:#F7F7FF;}
	.st46{fill:#1A0A11;}
	.st47{fill:#F6E8EE;}
	.st48{fill:#F7B517;}
	.st49{fill:#FAE9CE;}
	.st50{fill:#DFA853;}
	.st51{fill:#93A0B3;}
	.st52{fill:#ECBB1B;}
	.st53{fill:#340703;}
	.st54{fill:#F1E1C7;}
	.st55{fill:#EAC456;}
	.st56{fill:#EFB33F;}
	.st57{fill:#FFE28D;}
	.st58{fill:#541A1C;}
	.st59{fill:#D4A748;}
	.st60{fill:#945531;}
	.st61{fill:#C6A256;}
	.st62{fill:#D8AD29;}
	.st63{fill:#FEFAF2;}
	.st64{fill:#D0CCC9;}
	.st65{fill:#E2DBE2;}
	.st66{fill:#F6F6F4;}
	.st67{fill:#2B0B05;}
	.st68{fill:#F9CB8C;}
	.st69{fill:#260504;}
	.st70{fill:#C1A897;}
	.st71{fill:#48050E;}
	.st72{fill:#D0CBCF;}
	.st73{fill:#C4C6C7;}
	.st74{fill:#E25E74;}
	.st75{fill:#FF768E;}
	.st76{fill:#D3C9D2;}
	.st77{fill:#D3CBAF;}
	.st78{fill:#C3934F;}
	.st79{fill:#E3B844;}
	.st80{fill:#300806;}
	.st81{fill:#F4B71F;}
	.st82{fill:#E9DFC5;}
	.st83{fill:#B88917;}
	.st84{fill:#C1A762;}
	.st85{fill:#C79427;}
	.st86{fill:#EEE9E9;}
	.st87{fill:#F6E2EA;}
	.st88{fill:#ECE9E0;}
	.st89{fill:#4F200B;}
	.st90{fill:#F5E3C8;}
	.st91{fill:#E4CA76;}
	.st92{fill:#270400;}
	.st93{fill:#DEC899;}
	.st94{fill:#DABF39;}
	.st95{fill:#DCAE6F;}
	.st96{fill:#46170A;}
	.st97{fill:#3C0000;}
	.st98{fill:#E4BA2D;}
	.st99{fill:#D7C964;}
	.st100{fill:#CD860D;}
	.st101{fill:#EFA049;}
	.st102{fill:#F0E7F1;}
	.st103{fill:#D4B792;}
	.st104{fill:#E3B434;}
	.st105{fill:#F9D869;}
	.st106{fill:#3B0000;}
	.st107{fill:#F7B817;}
	.st108{fill:#430100;}
	.st109{fill:#E4B44E;}
	.st110{fill:#400400;}
	.st111{fill:#EA8C15;}
	.st112{fill:#C68F4B;}
	.st113{fill:#CB903D;}
	.st114{fill:#E59315;}
	.st115{fill:#EBB927;}
	.st116{fill:#511500;}
	.st117{fill:#410000;}
	.st118{fill:#E2921C;}
	.st119{fill:#EFC270;}
	.st120{fill:#D4CBD1;}
	.st121{fill:#EAB75E;}
	.st122{fill:#F1B423;}
	.st123{fill:#F3B91F;}
	.st124{fill:#D6942C;}
	.st125{fill:#E3C7BC;}
	.st126{fill:#EEE9E8;}
	.st127{fill:#D5C9D0;}
	.st128{fill:#EDB546;}
	.st129{fill:#E09017;}
	.st130{fill:#D5B46C;}
	.st131{fill:#F8B716;}
	.st132{fill:#F1B61E;}
	.st133{fill:#CCCAD0;}
	.st134{fill:#E2911E;}
	.st135{fill:#ECEBEB;}
	.st136{fill:#C98F47;}
	.st137{fill:#E9CCAA;}
	.st138{fill:#DBC393;}
	.st139{fill:#B1825D;}
	.st140{fill:#CECDCE;}
	.st141{fill:#E2B94D;}
	.st142{fill:#E6C055;}
	.st143{fill:#CEC8CA;}
	.st144{fill:#F1ECEF;}
	.st145{fill:#D3C9CC;}
	.st146{fill:#EFE9F2;}
	.st147{fill:#D2BEA3;}
	.st148{fill:#D59D16;}
	.st149{fill:#BE9A60;}
	.st150{fill:#DFCEAC;}
	.st151{fill:#E8B02F;}
	.st152{fill:#400104;}
	.st153{fill:#5E352C;}
</style>
<circle class="st0" cx="125" cy="125.5" r="125"/>
<g id="_x23_fefefeff">
	<path class="st1" d="M77.1,64.9c2-1.2,3.9,0.6,5.6,1.3c-0.5,0.1-1.6,0.4-2.1,0.5c-5.8,0-8,7.6-5.2,11.9c1.2,2.1,3.4,2.9,5.4,4
		c1.7-0.8,3.4-1.7,5.2-2.5c-0.2,0.4-0.7,1.3-0.9,1.7c-4.6,2.7-10.7,0-12.6-4.8C72.2,72.6,73.7,67.8,77.1,64.9z"/>
</g>
<g id="_x23_e5e5e5ff">
	<path class="st2" d="M248.8,0h1.2v250h-1.1c0.3-39.3,0.1-78.7,0.1-118C248.9,88,249.2,44,248.8,0z"/>
</g>
<g id="_x23_3a1100ff">
	<path class="st3" d="M128.6,29.8c4.7-1,9.7-1.4,14.2,0.8c-0.8-0.1-1.6-0.2-2.4-0.5c-3.9-1.9-8.2-0.8-12.1,0.1
		c-2.1,3-4.4,5.8-6.9,8.4l2.2-0.1c-1.1,0.6-2.2,1.2-3.4,1.8c-0.5,0-1.5,0.1-2,0.2c-0.4-0.3-1.2-0.8-1.6-1
		c-6.1,0.8-12.3,2.4-17.3,6.1c-0.2,0.1-0.5,0.3-0.6,0.4c-0.3,0.2-0.9,0.6-1.2,0.8c1.1-1.6,2.2-3.1,3.3-4.7c1.5-1.5,3.4-2.7,5.3-3.6
		c2.9-1,6-1,9.1-0.4c2.2,0.2,4.7,1.3,6.6-0.4C124.3,35.4,126.1,32.3,128.6,29.8z"/>
	<path class="st3" d="M160,138.9c0.4-0.4,1.2-1.1,1.6-1.5c0.3,0.4,0.9,1.2,1.1,1.6c-0.1,1.5-0.3,3-0.5,4.4c-0.2,0-0.5,0-0.7,0
		c-0.6-0.3-1.9-0.8-2.5-1.1C159.4,141.2,159.7,140,160,138.9z"/>
	<path class="st3" d="M155.2,193.9c0.9-0.4,1.8-0.7,2.7-1c1.6,1.8,3.1,3.8,4.3,5.9c-2.5-1.8-4.9-4.1-8.2-4.4L155.2,193.9z"/>
</g>
<g id="_x23_f7e7aeff">
	<path class="st4" d="M128.2,30.3c4-0.9,8.3-2,12.1-0.1c-3.5,1-7.2,1.2-10.6,2.6c-2.6,2.3-4.3,5.9-8.4,5.9
		C123.8,36.1,126.1,33.3,128.2,30.3z"/>
</g>
<g id="_x23_f1d273ff">
	<path class="st5" d="M129.7,32.8c3.4-1.4,7.1-1.6,10.6-2.6c0.8,0.2,1.6,0.4,2.4,0.5l0.6,0.1c1.1,0.9,2.1,1.9,3.2,2.8
		c-0.3,0.3-0.8,0.9-1.1,1.2c-2.8-2.3-6.5-2.5-10-2.2c-3.9,0-6.8,2.9-8.1,6.4c-1.7,0.7-3.5,1.4-5.3,1.9l-1.9-0.5
		c1.1-0.6,2.2-1.2,3.4-1.8l-2.2,0.1C125.4,38.7,127.1,35.1,129.7,32.8z"/>
</g>
<g id="_x23_e7bd40ff">
	<path class="st6" d="M127.3,39c1.2-3.5,4.1-6.4,8.1-6.4C133.8,35.9,130.8,38,127.3,39z"/>
</g>
<g id="_x23_fab51aff">
	<path class="st7" d="M135.4,32.6c3.5-0.4,7.2-0.1,10,2.2c0.3-0.3,0.8-0.9,1.1-1.2l0.1-0.1c1.1,1.6,2.6,3.1,3.1,5c0,1.4,0,2.9,0,4.3
		c-1.5-1-2.8-2.6-4.7-2.4c-2.4,0.2-4.5,1.7-6.7,2.6c-3.4,0.8-5.4,3.7-6.5,6.8c-0.9,2,0.4,4,0.6,6c-1.3,1.6-3,2.8-4.5,4.1
		c2.5,2.4,5.8,3.6,9.1,4.4l0.1,0.4c-2.3,2.4-5,4.5-7.7,6.4c-1.1-2.1-2.2-4.3-3.9-6.1c-0.1-0.1-0.3-0.4-0.4-0.5
		c-0.2-3.2-1.5-6.3-4.3-8c-3.9-3.5-9.9-2.4-14,0.2c-2.9,3-3.3,7.4-4,11.2c-0.5,4.1-1.6,8.4-0.1,12.4c0.3,0.8,0.6,1.5,0.8,2.3
		c-0.9,0.6-1.8,1.2-2.8,1.8c-0.3,0-0.9,0.1-1.2,0.2c-4.1-0.1-8.2,0.1-12.2-0.2c0.1-0.6,0.4-1.9,0.5-2.6c1-5.4-1.3-10.6-1.4-15.9
		c0.7-0.5,1.3-1,2-1.5c1.3,1.7,2.3,3.8,4.4,4.6c2.7-2.8,3.6-6.9,6.1-10c-0.2-1.2-0.4-2.3-0.5-3.5c2.9-0.9,6-1.6,8.2-3.9
		c0.3-0.1,1.1-0.4,1.4-0.5c0.4-0.1,1.1-0.4,1.4-0.5c-4.1-2-8.7-2-13.1-1.7c0.4-0.3,1.1-1,1.5-1.4l0.9-1.3c0.1-0.1,0.4-0.3,0.6-0.4
		c2.3-0.2,4.5-0.7,6.7-1.6c3.9-1.6,8.2-2,12.2-3.5c0.5,0,1.5-0.1,2-0.2l1.9,0.5c1.8-0.5,3.5-1.2,5.3-1.9
		C130.8,38,133.8,35.9,135.4,32.6z"/>
</g>
<g id="_x23_bc6b7bff">
	<path class="st8" d="M97,37.8c5.9-1.9,12.3-0.9,18.2,0.3c-3-0.6-6.1-0.6-9.1,0.4c-2.1-1.9-4.7-0.9-7-0.1l0.2-0.8
		C98.8,37.7,97.6,37.8,97,37.8z"/>
	<path class="st8" d="M106.6,93.8c-0.2,4.5-0.8,9.4-4.1,12.8c-2,2-4.9,2.3-7.6,2.2c-0.1-0.3-0.4-0.8-0.5-1c3.6-0.4,7.3-1.6,8.9-5.2
		c-1.3-3.9-5.8-1.8-8.8-1.8c0.2-0.4,0.6-1.2,0.8-1.5c1.4-0.3,2.9-0.5,4.3-0.8l0.6-0.2C102.7,97.4,104.7,95.6,106.6,93.8z"/>
</g>
<g id="_x23_cd8e49ff">
	<path class="st9" d="M57.6,44.7c1.4-2.8,2.7-6.7,6.5-6.7c-0.2,0.4-0.7,1.1-0.9,1.4c-2,1.9-3.5,4.3-3.7,7.2c0.3,0.3,0.9,0.8,1.2,1
		c-0.6,3.8-2,7.4-1.7,11.3c0.4,5.7,2.9,11.3,7.1,15.2c0.9,0.7,1.9,1.3,2.9,1.9c2.6-5-0.4-10.5,1.7-15.5c0.6,2.8,0.7,5.7,0.8,8.6
		c0.1,1.6,0.2,3.3,0.3,4.9c-0.1,1-0.3,2-0.4,3c-1.1,0.7-2.2,1.4-3.3,2.1c-2.4-2.2-5.4-3.9-7.3-6.7C55.2,64.4,54.4,53.7,57.6,44.7z"
		/>
</g>
<g id="_x23_d9c593ff">
	<path class="st10" d="M86.1,40.9c2.1-2.2,5-2.8,8-2.4c-0.2,0.9-0.4,1.8-0.6,2.7c-2.1,0.7-4.2,1.4-6.4,2.1
		C86.8,42.7,86.4,41.5,86.1,40.9z"/>
</g>
<g id="_x23_300e00ff">
	<path class="st11" d="M94.1,38.5c0.7-0.2,2.2-0.5,2.9-0.6c0.6,0,1.8-0.1,2.4-0.2l-0.2,0.8c-0.2,0.2-0.7,0.5-0.9,0.7
		c-2.3,1.9-4,4.4-5.7,6.8c0.3-1.6,0.6-3.3,0.9-4.9C93.7,40.2,93.9,39.3,94.1,38.5z"/>
	<path class="st11" d="M105.9,61.2c2.1-2.4,4.6-5.2,8-5.4c2.7-0.2,4.8,1.6,6.9,3l-1.2-0.3c-5-2.1-10.5-0.3-13.9,3.7
		C105.8,61.9,105.9,61.4,105.9,61.2z"/>
	<path class="st11" d="M74.6,86.8c0.3-0.1,0.8-0.3,1.1-0.3c-0.4,0.4-1.1,1.3-1.5,1.8c-1.1,1.2-2.1,2.4-3.3,3.5
		c-0.5,0.3-1.4,1-1.9,1.3c0.1-0.8,0.2-2.4,0.3-3.2c-0.5,0.3-1.6,1-2.1,1.3c0-0.8,0.1-2.5,0.2-3.4c1.9,0.3,3.8,0.2,5.7-0.4
		C73.4,87.2,74.2,86.9,74.6,86.8z"/>
	<path class="st11" d="M90.4,141.2c0.2-2.9-0.1-5.9,0-8.8c0.2,1.6,0.4,3.2,0.5,4.8l-0.3,0.7c1.9,0.4,3.8,0.8,5.7,1.2
		c0.1,0.6,0.3,1.8,0.4,2.4c2.1-0.1,4.2-0.3,6.4-0.5c0.3,0.4,0.5,0.9,0.7,1.4c-1.8,0.3-3.6,0.6-5.3,1l0.2,0.9
		c-0.9-1.1-1.7-2.2-2.5-3.3c-1.6,0-3.1-0.1-4.7,0L90.4,141.2z"/>
	<path class="st11" d="M164.4,191.2c0.1-0.2,0.4-0.7,0.5-0.9c1.1,0.1,2.3,0.2,3.4,0.4c0.9,1.5,1.8,3,2.5,4.6c0.3,0.6,0.8,1.8,1,2.4
		c-0.6,0.1-1.9,0.4-2.6,0.5c-0.7-1.6-1.3-3.2-2.1-4.7C166.3,192.7,165.3,191.9,164.4,191.2z"/>
</g>
<g id="_x23_fadf8cff">
	<path class="st12" d="M99.1,38.5c2.3-0.8,4.9-1.8,7,0.1c-2,0.9-3.8,2.1-5.3,3.6c-0.8-1-1.7-2-2.5-3C98.4,39,98.9,38.7,99.1,38.5z"
		/>
	<path class="st12" d="M138.4,116.3c1.7-0.5,1.6,1.6,2.2,2.6l-0.5-0.9c-1.4,2.1-3.2,3.9-5.4,5.2C136,120.9,137.3,118.7,138.4,116.3z
		"/>
	<path class="st12" d="M117.8,138.9c0.6,0,1.7,0,2.3,0c0.1,0.4,0.3,1.2,0.4,1.7c0.1,1.2,0.1,2.4,0.2,3.7c1.9,0.2,3.8,0.4,5.7,0.5
		c-3.3,0.8-6.8,0.7-10.2,0.6C116.4,143.1,117,140.9,117.8,138.9z"/>
</g>
<g id="_x23_dc9e4bff">
	<path class="st13" d="M149.7,38.4c5.6,7.4,5.3,17.6,2.5,26.1l-0.7,0.3c-1.6,0.5-3.3,1.1-4.8,2c2.6-5.6,5.1-11.9,3.5-18.2
		c-1.2-2.3-3.2-5.1-6.1-5.2c-4.4,1-7.7,5.5-7,10c1.9,0.9,3.8,1.8,5.5,2.9c-2.1,1-4.5,1.5-6.6,2.4c-0.1-0.2-0.4-0.7-0.5-0.9
		c-1-1.9-1.9-3.8-2.8-5.7c1.6-3.1,3.4-6.3,5.5-9.2c2.2-0.9,4.3-2.4,6.7-2.6c1.9-0.2,3.3,1.4,4.7,2.4
		C149.7,41.3,149.7,39.8,149.7,38.4z"/>
</g>
<g id="_x23_f9b41bff">
	<path class="st14" d="M59.4,46.6c0.2-2.8,1.7-5.2,3.7-7.2c4.4-0.8,8.8,0.4,13,1.4l0.8,0.3c0.4,0.9,0.8,1.9,1.2,2.8
		c-1.8,2.1-3.9,5.3-7.1,4.2C67.2,47.2,63,42.8,59.4,46.6z"/>
</g>
<g id="_x23_401d00ff">
	<path class="st15" d="M76.2,40.8c0.6-0.1,1.1-0.1,1.7-0.2c1.2,1,2.6,1.8,3.8,2.7c1.5-0.8,3-1.6,4.5-2.5c0.2,0.6,0.7,1.8,1,2.4
		c0.5,1.2,0.9,2.4,1.4,3.7c-2-0.9-4.1-1.8-6.1-2.7c-0.4-0.1-1.2-0.4-1.6-0.5c-0.9-0.2-1.7-0.2-2.6,0.1c-0.4-0.9-0.8-1.9-1.2-2.8
		L76.2,40.8z"/>
</g>
<g id="_x23_f2b52bff">
	<path class="st16" d="M92.5,46c1.7-2.4,3.4-4.9,5.7-6.8c0.8,1,1.7,2,2.5,3c-1.1,1.6-2.2,3.1-3.3,4.7c0.3-0.2,0.9-0.6,1.2-0.8
		l-0.9,1.3c-0.4,0.3-1.1,1-1.5,1.4c4.4-0.3,9-0.2,13.1,1.7c-0.4,0.1-1.1,0.4-1.4,0.5c-3.6-0.2-7.3-0.8-10.9,0.1
		c-3.1,0.7-5.7,2.6-8.2,4.4c-3.3-2.2-7.2-3-11.1-1.8c4.8,1,8.9,3.7,11.8,7.6c-0.1,0.4-0.4,1.1-0.5,1.5c0.4,0.2,1.1,0.5,1.4,0.6
		c0.3,0.5,1.1,1.5,1.4,1.9c0.3,0,0.9,0.1,1.2,0.1c1-2.2,2.1-4.3,3.1-6.5c-1.2,0.9-2.5,1.8-3.7,2.8c-0.3-1.1-0.7-2.2-1.1-3.4
		c3.8-4.5,9.5-6.5,15.2-6.9c-2.2,2.3-5.3,3-8.2,3.9c0.2,1.2,0.4,2.3,0.5,3.5c-2.5,3.1-3.4,7.2-6.1,10c-2.1-0.8-3.1-2.9-4.4-4.6
		c-1-1.5-2.4-2.7-3.8-3.7c-0.2-0.7-0.5-2-0.7-2.7c-1,0.6-2,1.3-3,1.9c-2.4-2-4.7-0.2-6.8,1.2c-0.6-1.2-1.1-2.4-1.4-3.7
		c0.3-5.3,4.1-9.3,7.7-12.7l0.7,0.5c0.3-0.2,1.1-0.6,1.4-0.8c2.1,0.8,4.1,1.7,6.1,2.7c-0.4-1.2-0.9-2.5-1.4-3.7
		c2.1-0.7,4.2-1.4,6.4-2.1C93.1,42.7,92.8,44.4,92.5,46z"/>
</g>
<g id="_x23_f4b54fff">
	<path class="st17" d="M99.3,45.7c5-3.8,11.2-5.3,17.3-6.1c0.4,0.3,1.2,0.8,1.6,1c-4,1.5-8.3,1.8-12.2,3.5
		C103.9,45,101.6,45.4,99.3,45.7z"/>
	<path class="st17" d="M147,131c1.8,0.4,3.5,0.9,5.2,1.4c-1.4,3.7-3.7,7-6.8,9.6c0.9-2.8,2.3-5.2,4.2-7.5c-0.5-0.7-1-1.3-1.6-2
		c-0.9,1-1.7,2-2.6,3c-0.6-0.2-1.7-0.5-2.3-0.7C144.6,133.6,145.9,132.4,147,131z"/>
	<path class="st17" d="M120.1,138.9c4.7-0.2,8.9-2.6,12.4-5.5c-0.5,1.9-0.7,4.4-2.9,5.2c-2.9,1.1-6.1,1.4-9.1,2
		C120.4,140.1,120.2,139.3,120.1,138.9z"/>
	<path class="st17" d="M162.3,143.5c1.2-0.1,2.5-0.3,3.8-0.5c-0.6,0.3-1.9,0.8-2.5,1.1c0.5,0.8,0.9,1.6,1.4,2.4l0.7,1.3
		c-1.4,0.3-2.8,0.6-4.2,0.9c0.1-1.8,0.1-3.5,0.2-5.2C161.8,143.5,162.1,143.5,162.3,143.5z"/>
	<path class="st17" d="M140.9,158.2c0.4-0.2,1.3-0.7,1.7-0.9c0.2,0.5,0.6,1.5,0.8,2c4.3,0.2,8.5-0.2,12.8-0.7
		c-3.3,2.9-7.6,4-11.9,4.8c-1.5-0.9-3-1.7-4.5-2.6c-0.1-0.5-0.3-1.4-0.4-1.9C139.8,158.8,140.5,158.4,140.9,158.2z"/>
	<path class="st17" d="M164.6,163.7c1.3-0.3,2.7-0.3,4.1-0.4c0.2,1.3,0.4,2.6,0.6,3.9l-0.2,1.2c-1.6,0-3.2,0-4.8,0
		c0.7-1.1,1.3-2.2,1.9-3.4c-3.6,3.7-8.1,6.7-13.4,6.8c0.5-1.1,1-2.2,1.5-3.3c1.5,0.1,3.1,0.2,4.6,0.1
		C161.1,167.3,162.5,165.1,164.6,163.7z"/>
	<path class="st17" d="M163.6,169.5c0.5,1.4,0.8,3,0.2,4.4c-1.6,0.4-3.2,0.9-4.8,1.5c-0.9-0.5-2-0.9-2.9-1.4
		C158.9,173.3,161.5,171.7,163.6,169.5z"/>
	<path class="st17" d="M168.2,190.6c2.1-0.2,4.2-0.8,6.1-1.7c1.1,1.3,2.1,2.6,3.1,4l0.2,0.6c-0.4,0.2-1.3,0.7-1.7,0.9
		c-0.9-0.8-1.8-1.6-2.7-2.4c0.4,1.1,0.8,2.2,1.2,3.3c-1.2,0-2.5,0-3.7,0C170,193.7,169.1,192.2,168.2,190.6z"/>
</g>
<g id="_x23_e6882bff">
	<path class="st18" d="M78.2,43.9c0.8-0.3,1.7-0.3,2.6-0.1l-0.5,0.9c-3.6,3.4-7.4,7.5-7.7,12.7c0,4-0.6,7.9-1.3,11.8
		c-0.1-2.9-0.2-5.8-0.8-8.6c-0.7-3.4-1.7-6.8-3.3-9.9c-1.4-2.4-3.9-3.6-6.7-3c-0.3-0.3-0.9-0.8-1.2-1c3.5-3.8,7.8,0.6,11.6,1.4
		C74.3,49.1,76.4,46,78.2,43.9z"/>
	<path class="st18" d="M136.9,60.1c1.5,1.1,3.1,2.1,4.6,3.1c-1,1-2.1,1.9-3,2.9c-0.3,0.3-0.8,0.9-1.1,1.2c-0.1-0.7-0.3-2-0.4-2.7
		l-0.1-0.4c-0.1-0.5-0.3-1.5-0.4-2c-1.2-0.4-2.3-0.8-3.5-1.2c0.8,0.1,2.3,0.2,3.1,0.2C136.2,61,136.7,60.4,136.9,60.1z"/>
</g>
<g id="_x23_f4ad3cff">
	<path class="st19" d="M131.8,49.8c1.1-3.1,3.1-6,6.5-6.8c-2.1,2.9-3.8,6-5.5,9.2c0.9,1.9,1.8,3.8,2.8,5.7c-1.8,0.9-3.7,1.8-5.5,2.6
		c0.7,0.2,2.1,0.5,2.8,0.7c1.2,0.3,2.4,0.7,3.5,1.2c0.1,0.5,0.3,1.5,0.4,2c-3.3-0.8-6.5-2-9.1-4.4c1.5-1.3,3.2-2.5,4.5-4.1
		C132.2,53.8,130.8,51.7,131.8,49.8z"/>
</g>
<g id="_x23_fb937dff">
	<path class="st20" d="M137.2,53.4c-0.7-4.6,2.6-9,7-10c2.9,0.1,4.9,2.9,6.1,5.2c1.6,6.3-0.9,12.5-3.5,18.2
		c-0.6,0.4-1.8,1.2-2.4,1.6c-0.7-0.6-1.5-1.1-2.2-1.6c0.2-3.5,0.5-6.9,0.5-10.4C140.9,55.2,139.1,54.3,137.2,53.4z"/>
</g>
<g id="_x23_fff697ff">
	<path class="st21" d="M80.7,43.8c0.4,0.1,1.2,0.4,1.6,0.5c-0.3,0.2-1,0.6-1.4,0.8l-0.7-0.5L80.7,43.8z"/>
</g>
<g id="_x23_f7977dff">
	<path class="st22" d="M60.6,47.7c2.8-0.6,5.2,0.6,6.7,3c-0.4,3.8-1.2,7.5-1.1,11.3c0.5,2.8,2.6,5.1,3.1,7.9c0.3,2.2-2,3-3.2,4.2
		c-4.2-3.9-6.7-9.5-7.1-15.2C58.6,55.1,60,51.4,60.6,47.7z"/>
</g>
<g id="_x23_df724dff">
	<path class="st23" d="M67.2,50.7c1.6,3.1,2.7,6.5,3.3,9.9c-2.1,5,0.9,10.5-1.7,15.5c-1-0.6-1.9-1.2-2.9-1.9
		c1.3-1.2,3.6-2.1,3.2-4.2c-0.5-2.8-2.6-5.1-3.1-7.9C66.1,58.2,66.8,54.5,67.2,50.7z"/>
</g>
<g id="_x23_42070bff">
	<path class="st24" d="M88.8,55.5c2.5-1.8,5.1-3.7,8.2-4.4c3.6-1,7.3-0.3,10.9-0.1c-0.4,0.1-1.1,0.4-1.4,0.5
		c-5.7,0.5-11.4,2.5-15.2,6.9c-0.4,0.7-1.3,2.2-1.8,2.9c-2.9-4-7-6.7-11.8-7.6C81.6,52.5,85.6,53.2,88.8,55.5z"/>
</g>
<g id="_x23_deb861ff">
	<path class="st25" d="M106.7,56.7c4.1-2.6,10.1-3.7,14-0.2c2.8,1.7,4.1,4.8,4.3,8c-1.9-1.9-3.6-3.9-5.3-6l1.2,0.3
		c-2.1-1.4-4.2-3.2-6.9-3c-3.5,0.1-5.9,3-8,5.4c-0.1,0.2-0.2,0.7-0.2,1c-0.7,2.5-1.5,5-1.2,7.6c-0.5,3.6-0.5,7.1-0.7,10.7l-1.2-0.2
		c-1.5-4-0.5-8.3,0.1-12.4C103.4,64,103.8,59.6,106.7,56.7z"/>
	<path class="st25" d="M102.6,112.2c0.6-0.2,1.7-0.6,2.3-0.8c1.3,0.9,2.5,1.8,3.8,2.8c0.7,0,1.3,0.1,2,0.1c-0.1,1.7-0.1,3.5-0.1,5.2
		c-0.4,1.8-1.2,3.5-2.3,5c-0.4,0.1-1.2,0.2-1.6,0.3c-1.3,0.1-2.6,0.2-3.9,0.2l-1-1.4c0.5,0.1,1.5,0.2,2,0.3
		c-1.1-1.2-2.4-2.3-3.2-3.8C100.6,117.3,101.6,114.8,102.6,112.2 M105.3,116.1c-0.5,1.4,0,1.9,1.5,1.6
		C107.2,116.3,106.7,115.8,105.3,116.1 M103.6,118.1c-0.9,0.9-0.5,3.4,1.2,2.7C106.7,120.3,105.3,117,103.6,118.1z"/>
	<path class="st25" d="M90.4,141.2l1-0.1c-0.1,1.8-0.3,3.6-0.4,5.4c-0.1,0.9-0.2,2.6-0.3,3.5c2.5,0.4,5,1.1,7.4,2.1
		c-2.6,0.5-5.2,1-7.8,1.5C90.6,149.5,89.6,145.3,90.4,141.2z"/>
</g>
<g id="_x23_e26d66ff">
	<path class="st26" d="M142.7,56.2c0,3.5-0.3,7-0.5,10.4c0.7,0.5,1.5,1.1,2.2,1.6l0,1.4c-2.3-0.6-4.3-1.9-5.9-3.6c1-1,2-1.9,3-2.9
		c-1.6-1-3.2-2-4.6-3.1l-0.8-1.4C138.2,57.8,140.6,57.3,142.7,56.2z"/>
</g>
<g id="_x23_efd096ff">
	<path class="st27" d="M72.6,57.3c0.4,1.3,0.9,2.5,1.4,3.7l0.3,0.6c2.2-0.7,4.4-1.4,6.7-1.5c1.1,1.6,2.1,3.3,2.9,5c0,0.7,0,2,0,2.7
		c-1.3-2-3-4.5-5.7-4.5c-4.5,1.6-5.2,6.9-6.6,10.8c-0.2-1.6-0.2-3.3-0.3-4.9C71.9,65.2,72.6,61.3,72.6,57.3z"/>
</g>
<g id="_x23_e4be62ff">
	<path class="st28" d="M80.8,59.9c1-0.6,2-1.3,3-1.9c0.2,0.7,0.6,2,0.7,2.7c0.7,1.7,1.5,3.4,1.8,5.2c0.1,5.3,2.4,10.5,1.4,15.9
		l-1.2-0.2c-0.2-2.2-0.3-4.5-0.7-6.6c-0.5-2.4-1.3-4.8-2-7.1c0-0.7,0-2,0-2.7c-0.8-1.8-1.8-3.4-2.9-5L80.8,59.9z"/>
</g>
<g id="_x23_fffce7ff">
	<path class="st29" d="M105.7,62.2c3.4-4,9-5.8,13.9-3.7c1.7,2.1,3.4,4.1,5.3,6c0.1,0.1,0.3,0.4,0.4,0.5c0.1,0.7,0.2,2.2,0.3,2.9
		c-2.1-3.6-5.2-7.3-9.7-7.5c-5.6-0.5-10,4.4-11.5,9.4C104.2,67.1,105.1,64.6,105.7,62.2z"/>
	<path class="st29" d="M79.5,93.7c0.1-1.8,0.1-3.5,0.2-5.3c2.4,2.9,5.5,5.3,9.1,6.8c0.5,0.3,1.6,0.8,2.1,1c-2,1.7-4.5,2.3-7.1,2.7
		C82.3,97.2,80.9,95.5,79.5,93.7z"/>
</g>
<g id="_x23_4a0a00ff">
	<path class="st30" d="M130.1,60.4c1.8-0.9,3.7-1.7,5.5-2.6c0.1,0.2,0.4,0.7,0.5,0.9l0.8,1.4c-0.2,0.3-0.6,0.9-0.9,1.2
		c-0.8,0-2.3-0.2-3.1-0.2C132.2,60.9,130.8,60.6,130.1,60.4z"/>
	<path class="st30" d="M145.4,126.2c0.7,1.3,1.7,2.5,3.2,2.9c-0.4,0.5-1.2,1.5-1.6,1.9c-1.2,1.4-2.4,2.6-3.8,3.8
		c-0.3-0.1-0.8-0.2-1.1-0.3c1.2-1.5,2.3-3,3.4-4.6C145.7,128.7,145.5,127.4,145.4,126.2z"/>
	<path class="st30" d="M145.5,146.5c2.7,0.7,5.5,1.2,8.3,1.5c0.4,0.2,1.2,0.6,1.6,0.7c-3.7,0.8-7.4,1.4-11.1,0.6
		C144.7,148.7,145.2,147.3,145.5,146.5z"/>
	<path class="st30" d="M117.9,172.4c3.3,0.1,6.5,1,9.6,2.3c0,0.2,0,0.5-0.1,0.7c0,0.1-0.1,0.4-0.1,0.5c-3.3-0.9-6.7-0.8-10,0
		C117.5,174.7,117.7,173.6,117.9,172.4z"/>
	<path class="st30" d="M180.7,175.1c0.4-1,1-1.8,2-2.4c0.1,0.4,0.2,1.2,0.2,1.6c-0.9,2-1.8,4.1-2.7,6.1l-1.1-1.5
		C179.6,177.7,180.2,176.4,180.7,175.1z"/>
	<path class="st30" d="M184.2,177.2c1.3-0.7,2.6-1.3,3.9-2c0.7,0.2,2.1,0.7,2.8,0.9c-1.3,0.4-2.7,0.8-4,1.3c-1,0.4-1.9,0.7-2.9,1.1
		C184.1,178.2,184.2,177.5,184.2,177.2z"/>
	<path class="st30" d="M174.9,187.9c0.2-0.1,0.7-0.3,1-0.4c0.7,1.1,1.4,2.3,2,3.5c-0.1,0.5-0.3,1.4-0.4,1.8c-1-1.4-2.1-2.6-3.1-4
		C174.5,188.6,174.8,188.1,174.9,187.9z"/>
	<path class="st30" d="M173.3,191.9c0.9,0.8,1.8,1.6,2.7,2.4c0.2,0.2,0.6,0.7,0.8,1c-0.2,0.3-0.7,0.9-0.9,1.2l-0.6,0.7
		c-0.2-0.5-0.6-1.5-0.8-1.9C174.1,194.2,173.7,193.1,173.3,191.9z"/>
	<path class="st30" d="M163.3,195.7c0.7,0.5,1.4,1,2.1,1.6c0.5,0.5,1.4,1.4,1.9,1.9c0.4,0,1.4,0,1.8,0.1c-0.9,0.2-1.9,0.4-2.9,0.6
		c-0.4,0-1.3,0.1-1.8,0.2C164.1,198.5,163.7,197.1,163.3,195.7z"/>
</g>
<g id="_x23_3b1b00ff">
	<path class="st31" d="M74,61c2.1-1.4,4.4-3.1,6.8-1.2l0.2,0.2c-2.3,0.2-4.5,0.8-6.7,1.5L74,61z"/>
	<path class="st31" d="M84.6,60.7c1.5,1,2.8,2.2,3.8,3.7c-0.7,0.5-1.3,1-2,1.5C86.1,64,85.2,62.4,84.6,60.7z"/>
	<path class="st31" d="M100.1,112.4c0.6,0,1.9-0.1,2.5-0.2c-1,2.5-2,5.1-2.1,7.9c0.8,1.5,2.1,2.6,3.2,3.8c-0.5-0.1-1.5-0.2-2-0.3
		c-0.5-0.7-1-1.4-1.5-2.1c-1,0-2.9-0.1-3.9-0.1c0,1.9,0.1,3.9,0.1,5.8c0-2.4-0.3-4.7-1-7c0.2,0.1,0.7,0.4,0.9,0.5
		c0.3-1.4,0.9-2.8,1.8-3.9c0.1-0.7,0.4-2,0.5-2.7C99.1,113.5,99.6,113,100.1,112.4 M99.5,117.1c1.4-0.9,1.8-2,1.1-3.4
		C98.9,113.6,98.1,116.2,99.5,117.1z"/>
</g>
<g id="_x23_dba05fff">
	<path class="st32" d="M89.6,61.4c0.5-0.7,1.3-2.2,1.8-2.9c0.4,1.1,0.8,2.2,1.1,3.4c-0.5,0.4-1.5,1.2-2,1.7
		c-0.4-0.2-1.1-0.5-1.4-0.6C89.2,62.5,89.4,61.7,89.6,61.4z"/>
</g>
<g id="_x23_3f0400ff">
	<path class="st33" d="M92.5,61.8c1.2-1,2.4-1.9,3.7-2.8c-1,2.2-2.1,4.3-3.1,6.5c-0.3,0-0.9-0.1-1.2-0.1c-0.3-0.5-1.1-1.5-1.4-1.9
		C91,63.1,92,62.2,92.5,61.8z"/>
	<path class="st33" d="M120.1,165.2c4.7-0.2,9.4,0,13.8,1.8c0.4,0.2,1.4,0.5,1.8,0.7c0.5,0.2,1.4,0.6,1.9,0.8
		c-0.4,1.4-0.8,2.9-1.2,4.3l-0.1,0.4c-1-0.9-1.9-1.8-2.9-2.7c-0.3-0.2-0.8-0.7-1-0.9c-3.7-2.3-8.1-2.5-12.4-2.3L120.1,165.2z"/>
	<path class="st33" d="M178.2,186.5c4.2-1.4,6.6,3.3,8.6,6.1c-0.3,0-1,0.1-1.3,0.1c-1.9,0.7-2.4-1.4-3.3-2.6
		C180.9,188.8,179.6,187.6,178.2,186.5z"/>
</g>
<g id="_x23_030506ff">
	<path class="st34" d="M104.6,69.7c1.5-4.9,5.9-9.8,11.5-9.4c4.4,0.3,7.5,4,9.7,7.5c0.9,1.7,1.8,3.3,2.7,5
		c-3.1,3.5-6.7,6.8-11.4,7.9c-4.3,1.5-8.9,0.8-13.2-0.3C104,76.9,104.1,73.3,104.6,69.7 M110,63.7c-4.4,3.9-6.2,10.5-4.7,16.2
		c4,1.1,8.2,0.7,12.3,0.1c1.6-0.2,2.9-1.1,4.1-2.2c0,0,0.1-0.1,0.1-0.1c2.4-1.7,4.1-4.4,3.1-7.4c-0.7-2-1.9-3.8-3-5.6l-1.4,1.1
		c0.1-0.5,0.2-1.4,0.2-1.8C117.9,61.1,113.1,61.1,110,63.7z"/>
	<path class="st34" d="M113.6,74.6c-2.4-2.6-0.7-6.3,1.8-8.2c0.6,2.6,2.8,4,5.2,2.7c0.1,0.3,0.2,0.9,0.3,1.2l0.3,1
		c-1.8-0.3-2.4,0.3-1.9,1.9c0.2,0.5,0.7,1.6,0.9,2.1C118.2,77,115,76.9,113.6,74.6z"/>
</g>
<g id="_x23_f7f8faff">
	<path class="st35" d="M110,63.7c3-2.6,7.9-2.6,10.7,0.3c-0.1,0.5-0.2,1.4-0.2,1.8c-0.1,0.5-0.2,1.5-0.2,2c-1.2-0.7-2.4-1.3-3.6-1.9
		c0.9-0.2,2.9-0.7,3.8-1c-1.8-2.4-5.6-2.1-7.8-0.4c-3.1,2.6-4.2,7.7-1.8,11.1c1.4,2.5,4.1,3.5,6.7,4.2c-4.1,0.6-8.3,1-12.3-0.1
		C103.8,74.3,105.6,67.6,110,63.7z"/>
</g>
<g id="_x23_010a1eff">
	<path class="st36" d="M71.6,74.1c1.3-3.9,2.1-9.2,6.6-10.8c2.7,0,4.4,2.5,5.7,4.5c0.6,2.4,1.5,4.7,2,7.1c0,0.4,0,1.2,0,1.6
		c-0.4-0.1-1.2-0.2-1.6-0.3c1.4-1.5-1.5-3.8-1.9-1.4c0.3,0.3,0.8,1,1.1,1.4c0.3,0.2,1,0.8,1.3,1c-1.1,1.4-2.9,3.2-4.8,1.8
		c-2.9-1.4-2.8-4.8-2.6-7.5c0.3-0.4,0.8-1.1,1.1-1.5c0.9,1.3,2.9,3.7,4.4,1.8c2.3-2.1,0.1-5.8-2.8-4.3l0.6-0.9
		c0.5-0.1,1.6-0.4,2.1-0.5c-1.8-0.7-3.7-2.5-5.6-1.3c-3.4,2.9-4.9,7.7-4.6,12c1.9,4.8,8,7.5,12.6,4.8L84,82.6
		c-1.1,1.2-2.7,0.9-4.1,1c-2.4-0.8-4.7-2-6.6-3.8c-0.7-0.9-1.4-1.8-2.1-2.7C71.3,76.1,71.5,75.1,71.6,74.1z"/>
</g>
<g id="_x23_3c73a3ff">
	<path class="st37" d="M112.7,64.7c2.2-1.7,5.9-2,7.8,0.4c-1,0.2-2.9,0.7-3.8,1c-0.3,0.1-1,0.2-1.4,0.3c-2.4,1.9-4.2,5.6-1.8,8.2
		c1.4,2.4,4.6,2.4,6.6,0.7c-0.2-0.5-0.7-1.6-0.9-2.1c1.6,0.3,2.2-0.4,1.9-1.9l-0.3-1c-0.1-0.3-0.2-0.9-0.3-1.2l-0.3-1.2
		c0.1-0.5,0.2-1.5,0.2-2l1.4-1.1c1.1,1.8,2.3,3.6,3,5.6c-0.9,2.5-1.9,5-3.1,7.4c0,0-0.1,0.1-0.1,0.1c-1.2,1-2.5,2-4.1,2.2
		c-2.6-0.8-5.3-1.7-6.7-4.2C108.5,72.3,109.6,67.3,112.7,64.7z"/>
</g>
<g id="_x23_ebaf48ff">
	<path class="st38" d="M125.4,65c1.6,1.8,2.7,4,3.9,6.1c2.7-1.9,5.4-4,7.7-6.4c0.1,0.7,0.3,2,0.4,2.7c-1.5,2-3.6,3.3-5.7,4.6
		c3.8,1,7.5-0.6,10.5-2.9c0.6,0.5,1.7,1.4,2.2,1.8c0,0.7-0.1,2.1-0.1,2.8c-0.8,0.1-1.6,0.3-2.4,0.4c-0.4,0-1.3,0.2-1.8,0.2
		c0.2,2,0.3,3.9,0.5,5.9c-4,0.9-8.2,1-12.4,0.7c0.1-0.5,0.3-1.4,0.3-1.9c3-0.1,6.2,0.7,9.2-0.3c0.3-1.5,0.2-3,0.3-4.5
		c-2.6,0-5.3-0.3-7.9,0.2c-4.1,3.5-8.3,7.1-13.3,9.1c-3.3,0.9-7.3-1.4-10.1,1.2l0.4,1.1c-0.7-0.1-1.9-0.2-2.6-0.2
		c-0.1-0.4-0.3-1.1-0.5-1.5c-0.8,0.1-2.5,0.2-3.3,0.3c0.9-0.6,1.9-1.2,2.8-1.8c-0.3-0.8-0.6-1.5-0.8-2.3l1.2,0.2
		c4.3,1.1,8.9,1.8,13.2,0.3c4.7-1.1,8.3-4.4,11.4-7.9c-0.9-1.7-1.8-3.3-2.7-5C125.6,67.2,125.5,65.7,125.4,65z"/>
</g>
<g id="_x23_bd8b45ff">
	<path class="st39" d="M146.8,66.8c1.5-0.9,3.1-1.4,4.8-2c-2.2,3.4-4.5,6.7-7.1,9.9l0-1c0-0.7,0-2.1,0.1-2.8c0-0.3,0-0.9,0-1.2
		l0-1.4C145,67.9,146.2,67.1,146.8,66.8z"/>
</g>
<g id="_x23_f4e0bbff">
	<path class="st40" d="M151.5,64.8l0.7-0.3c-0.5,4.9-4.5,8.1-6.9,12c-0.2-0.4-0.7-1.4-1-1.8C147,71.5,149.3,68.2,151.5,64.8z"/>
</g>
<g id="_x23_786f7aff">
	<path class="st41" d="M115.3,66.3c0.3-0.1,1-0.2,1.4-0.3c1.2,0.6,2.4,1.2,3.6,1.9l0.3,1.2C118.1,70.3,115.9,68.9,115.3,66.3z"/>
</g>
<g id="_x23_4f0000ff">
	<path class="st42" d="M137.4,67.4c0.3-0.3,0.8-0.9,1.1-1.2c1.6,1.7,3.6,3,5.9,3.6c0,0.3,0,0.9,0,1.2c-0.6-0.5-1.7-1.4-2.2-1.8
		c-3,2.2-6.7,3.8-10.5,2.9C133.8,70.8,135.9,69.4,137.4,67.4z"/>
</g>
<g id="_x23_3a69a5ff">
	<path class="st43" d="M75.4,78.6c-2.8-4.3-0.6-11.9,5.2-11.9l-0.6,0.9c-0.4,0.6-1.2,1.8-1.6,2.5c-0.3,0.4-0.8,1.1-1.1,1.5
		c-0.3,2.7-0.3,6.1,2.6,7.5c1.9,1.3,3.6-0.4,4.8-1.8c-0.3-0.2-1-0.8-1.3-1l0.8,0c0.4,0.1,1.2,0.2,1.6,0.3c0-0.4,0-1.2,0-1.6
		c0.5,2.2,0.5,4.4,0.7,6.6c-0.4,0-1.1,0.1-1.4,0.2c0.2-0.4,0.7-1.3,0.9-1.7c-1.7,0.8-3.4,1.7-5.2,2.5C78.9,81.5,76.6,80.7,75.4,78.6
		z"/>
</g>
<g id="_x23_79a4b4ff">
	<path class="st44" d="M80.1,67.7c2.9-1.5,5.1,2.2,2.8,4.3c-1.5,1.8-3.6-0.5-4.4-1.8C78.8,69.5,79.7,68.3,80.1,67.7z"/>
</g>
<g id="_x23_f7f7ffff">
	<path class="st45" d="M119.2,73.1c-0.5-1.6,0.2-2.2,1.9-1.9C121.5,72.8,120.8,73.4,119.2,73.1z"/>
	<path class="st45" d="M121.8,77.7c1.2-2.4,2.2-4.8,3.1-7.4C125.9,73.3,124.2,76,121.8,77.7z"/>
	<path class="st45" d="M177.4,181.4c0.6-0.8,1.1-1.6,1.7-2.5l1.1,1.5c0.7,1,1.9,2.2,1.1,3.5c-1.5,1.6-3.4,2.6-5.3,3.6
		c-0.2,0.1-0.7,0.3-1,0.4c-2.4,0.4-4.7,0.8-7.1,1.2c0.8-0.9,1.7-1.8,2.5-2.6C173.4,185.9,176.2,184.4,177.4,181.4z"/>
</g>
<g id="_x23_1a0a11ff">
	<path class="st46" d="M141.9,74.1c0.8-0.1,1.6-0.2,2.4-0.4l0,1c0.2,0.5,0.7,1.4,1,1.8c2,2,3,4.6,4,7.2c-1.7-0.2-3.5-0.2-5.1-0.8
		c-0.8-1-1.5-2-2.3-3c1.4-0.5,2.9-1,4.3-1.5c-0.9-1.3-1.9-2.6-2.9-3.9C143.1,74.3,142.3,74.2,141.9,74.1z"/>
	<path class="st46" d="M66.4,80.5c0.5-0.1,1.4-0.2,1.9-0.3c0.1,0.3,0.4,0.9,0.5,1.2c-0.6-0.1-1.8-0.2-2.5-0.2L66.4,80.5z"/>
</g>
<g id="_x23_f6e8eeff">
	<path class="st47" d="M82.3,74.9c0.4-2.4,3.3-0.1,1.9,1.4l-0.8,0C83.1,75.9,82.6,75.2,82.3,74.9z"/>
	<path class="st47" d="M95.9,131.8c1-0.2,2.9-0.6,3.8-0.7c-0.5,1.6-2.1,3.6-0.1,4.8c0.3,0.5,0.8,1.5,1.1,2c0.7,1.1,1.5,2.2,2.3,3.2
		c-2.1,0.2-4.2,0.3-6.4,0.5c-0.1-0.6-0.3-1.8-0.4-2.4C95.9,136.7,95.8,134.2,95.9,131.8z"/>
</g>
<g id="_x23_f7b517ff">
	<path class="st48" d="M116.8,83.5c5.1-2,9.2-5.6,13.3-9.1c2.6-0.5,5.3-0.2,7.9-0.2c0,1.5,0.1,3-0.3,4.5c-2.9,0.9-6.1,0.2-9.2,0.3
		c-0.1,0.5-0.2,1.4-0.3,1.9c0,0.2-0.1,0.7-0.1,0.9c0,0.7,0.1,2.2,0.1,2.9c1.8,0.2,3.6,0.2,5.4,0.3c0.1,1.8,1.3,4.7-1,5.5
		c-2.5,0.2-5.1,0.2-7.6,0.6c-0.2-0.2-0.8-0.6-1-0.8c0.3,0.6,0.9,1.9,1.2,2.6c-1.4,2.3-3.9,3.8-6.5,2.6c-0.7-1.5-1.1-3.1-1.6-4.7
		c-3.5-2-7-3.9-10.4-6C109.5,82.1,113.5,84.5,116.8,83.5z"/>
</g>
<g id="_x23_fae9ceff">
	<path class="st49" d="M140.2,74.3c0.4-0.1,1.3-0.2,1.8-0.2c0.4,0.1,1.2,0.2,1.6,0.3c1,1.3,1.9,2.6,2.9,3.9
		c-1.4,0.5-2.9,1.1-4.3,1.5l-1.4,0.4C140.5,78.2,140.3,76.2,140.2,74.3z"/>
</g>
<g id="_x23_dfa853ff">
	<path class="st50" d="M67.9,79.1c1.1-0.7,2.2-1.4,3.3-2.1c0.7,0.9,1.4,1.8,2.1,2.7c-0.8,0.2-2.5,0.5-3.3,0.6c1.5,2.1,3,4.3,4.6,6.4
		c-0.4,0.1-1.2,0.3-1.6,0.5c-1.7-1.7-3.1-3.7-4.2-5.9c-0.1-0.3-0.4-0.9-0.5-1.2L67.9,79.1z"/>
</g>
<g id="_x23_93a0b3ff">
	<path class="st51" d="M121.7,77.8c0,0,0.1-0.1,0.1-0.1C121.8,77.7,121.7,77.8,121.7,77.8z"/>
</g>
<g id="_x23_ecbb1bff">
	<path class="st52" d="M70,80.4c0.8-0.2,2.5-0.5,3.3-0.6c1.9,1.7,4.2,2.9,6.6,3.8c0,0.6-0.1,1.9-0.1,2.5c-1.4,1.7-3.4,2.9-5.6,2.2
		c0.4-0.4,1.1-1.3,1.5-1.8c-0.3,0.1-0.8,0.2-1.1,0.3C73.1,84.7,71.5,82.6,70,80.4z"/>
</g>
<g id="_x23_340703ff">
	<path class="st53" d="M140.6,80.2l1.4-0.4c0.8,1,1.5,2,2.3,3c0.1,0.7,0.3,2.1,0.4,2.8c-2.7-0.2-5.5-0.1-8.1-0.9
		c-0.9-0.3-2.6-0.9-3.5-1.2c-1.7-0.6-3.3-1.2-5-1.8c0-0.2,0.1-0.7,0.1-0.9C132.4,81.2,136.6,81.1,140.6,80.2z"/>
	<path class="st53" d="M136,116.1c0.5-1.9,1.3-1.8,2.5,0.2c-1.1,2.4-2.4,4.6-3.7,6.9c2.2-1.3,4-3.1,5.4-5.2l0.5,0.9
		c0.5,0.9,0.9,1.9,1.1,3c-4,1.9-8,4.4-12.7,4.1C132.1,123.3,135,120.2,136,116.1z"/>
	<path class="st53" d="M146,199.3c1-0.6,1.9-1.2,2.9-1.8c3.4-0.2,7.1,0.3,9.8,2.6c0.8,1,1.5,1.9,2.3,2.9c-0.7,0.7-1.4,1.4-2,2.2
		c-1.8-4.4-6.5-6.5-11-6C147.4,199.3,146.5,199.3,146,199.3z"/>
</g>
<g id="_x23_f1e1c7ff">
	<path class="st54" d="M66.3,81.2c0.6,0,1.8,0.1,2.5,0.2c1.1,2.2,2.5,4.2,4.2,5.9c-1.8,0.6-3.8,0.7-5.7,0.4l-0.7-0.1
		C67.4,85.5,68.7,82.8,66.3,81.2z"/>
</g>
<g id="_x23_eac456ff">
	<path class="st55" d="M85.2,81.8c0.4-0.1,1.1-0.2,1.4-0.2l1.2,0.2c-0.1,0.6-0.4,1.9-0.5,2.6c4.1,0.3,8.2,0.1,12.2,0.2l-1,0.3
		c-1.5,0.4-3.1,0.9-4.7,1.2c-3.6,0.2-7.8,0.1-9.8-3.4L85.2,81.8z"/>
	<path class="st55" d="M91.9,128.6c0.4-3.1,1.4-6.1,3.5-8.4c0.7,2.3,1,4.6,1,7l0,1.3C94.9,128.5,93.4,128.6,91.9,128.6z"/>
</g>
<g id="_x23_efb33fff">
	<path class="st56" d="M128.1,81.8c1.7,0.6,3.3,1.2,5,1.8l0.5,1.4c-1.8-0.1-3.6-0.1-5.4-0.3C128.2,83.9,128.2,82.5,128.1,81.8z"/>
</g>
<g id="_x23_ffe28dff">
	<path class="st57" d="M79.9,83.6c1.4,0,3,0.2,4.1-1c2,3.5,6.3,3.6,9.8,3.4c-2.2,0.4-4.5,0.6-6.7,0.7c-2.2-0.3-4.5-0.8-6.7-1.2
		c-0.2,0.4-0.5,1.1-0.7,1.5l0-0.9C79.8,85.4,79.9,84.2,79.9,83.6z"/>
	<path class="st57" d="M119.2,116.9c1.9-0.6,3.7-1.4,5.4-2.3c0.1,3-0.7,6-0.9,9c-1.6-0.8-3.2-1.5-4.8-2.3c0.4-0.7,1.1-2,1.5-2.6
		C120.1,118.2,119.5,117.3,119.2,116.9z"/>
	<path class="st57" d="M116.6,126.2c0.8,0,2.5,0.2,3.3,0.2c-0.3,2.3-0.6,4.5-0.8,6.8c2.9,0.6,5.9,1.2,8.8,0.9
		c-3.9,0.9-7.9,1.2-11.9,1.2c0.5-2.7,0.5-5.4,0.5-8.1L116.6,126.2z"/>
	<path class="st57" d="M126.4,146.1c0.3,0.2,0.8,0.6,1,0.8l0.1,0.3c-2.9,1.2-5.7,2.4-8.5,3.8c-0.7-0.8-1.3-1.7-2-2.5
		c0.2,2.6,0.5,5.2,0.7,7.9c-1.8-2.3-2.4-5.2-3.4-7.8c0.5,0.1,1.5,0.4,2,0.5c0-0.5,0-1.6,0-2.1C118.3,150.9,123.6,147.6,126.4,146.1z
		"/>
</g>
<g id="_x23_541a1cff">
	<path class="st58" d="M99.6,84.5c0.3,0,0.9-0.2,1.2-0.2c0.8-0.1,2.5-0.2,3.3-0.3c0.1,0.4,0.4,1.1,0.5,1.5
		c-2.1,4.6-6.6,7.7-11.3,9.3c-1.5,0.1-2.9,0.2-4.4,0.3c-3.6-1.4-6.6-3.8-9.1-6.8c0-0.4,0.1-1.1,0.1-1.4c0.2-0.4,0.5-1.1,0.7-1.5
		c2.2,0.4,4.5,0.9,6.7,1.2c0.1,0.3,0.3,1.1,0.3,1.4c-1.2,1.1-1.6,2.6-2,4.1c3.8,0.2,7.6-0.1,11.3-1c-0.3-1.3-0.6-2.7-0.9-4
		c0.8-0.8,1.7-1.6,2.5-2.4L99.6,84.5z"/>
</g>
<g id="_x23_d4a748ff">
	<path class="st59" d="M133.1,83.5c0.9,0.3,2.6,0.9,3.5,1.2c0,2.7-0.2,5.9-2.8,7.4c-0.8,0.6-1.6,1.3-2.3,1.9c-0.6-0.3-1.7-1-2.2-1.3
		c0,0.4,0.1,1.1,0.1,1.5c-1.6-0.8-3-2-4.4-3.2c2.5-0.4,5.1-0.4,7.6-0.6c2.3-0.8,1.2-3.7,1-5.5L133.1,83.5z"/>
</g>
<g id="_x23_945531ff">
	<path class="st60" d="M93.9,86c1.6-0.3,3.1-0.7,4.7-1.2c-0.8,0.8-1.7,1.6-2.5,2.4c0.3,1.3,0.6,2.6,0.9,4c-3.7,1-7.5,1.2-11.3,1
		c0.3-1.5,0.8-3,2-4.1c-0.1-0.4-0.3-1.1-0.3-1.4C89.4,86.6,91.7,86.4,93.9,86z"/>
</g>
<g id="_x23_c6a256ff">
	<path class="st61" d="M106.6,84.7c3.4,2.1,6.9,4,10.4,6c0.5,1.6,0.9,3.2,1.6,4.7c2.7,1.2,5.1-0.3,6.5-2.6c0.7,1.1,1.5,2.2,2.4,3.2
		c-3.4,1.1-7.7,2.8-10.8,0.2c-2.2-2.7-3.5-7.1-7.8-6.8c-0.7-1.2-1.3-2.3-1.9-3.5L106.6,84.7z"/>
</g>
<g id="_x23_d8ad29ff">
	<path class="st62" d="M74.2,88.3c2.3,0.7,4.2-0.5,5.6-2.2l0,0.9c0,0.4-0.1,1.1-0.1,1.4c-0.1,1.8-0.1,3.5-0.2,5.3l-1.5,0
		c-0.3,0-1,0-1.4,0c-1.6,0.8-3.3,1.6-5.1,2.1c-0.2-1.4-0.4-2.7-0.7-4.1C72.1,90.6,73.1,89.5,74.2,88.3z"/>
</g>
<g id="_x23_fefaf2ff">
	<path class="st63" d="M104.4,85.6c0.7,0.1,1.9,0.2,2.6,0.2c0.6,1.2,1.3,2.4,1.9,3.5c-0.5,0.2-1.6,0.7-2.1,0.9
		c-0.1,1.2-0.2,2.4-0.3,3.5c-1.9,1.8-3.9,3.6-6.4,4.4c-2.7,0.1-5.6,0.8-8.2-0.6c-0.3-0.3-1-0.9-1.3-1.1c0.8-0.6,1.6-1.1,2.4-1.6
		C97.8,93.2,102.3,90.2,104.4,85.6z"/>
</g>
<g id="_x23_d0ccc9ff">
	<path class="st64" d="M142.7,90.6c0.3-1.9-1-5.8,2.3-4.8c1.7,2.8,1.4,6.1,0.9,9.2c-0.9-0.6-1.7-1.2-2.5-1.8c-0.3,1.8-1,3.5-2.2,4.8
		c0.3-0.6,0.9-1.9,1.2-2.6c-3.3,0.5-6.7,0.8-10.1,0.4l0-0.3c1.2-0.5,2.3-1.2,3.2-2.2c0.7,0.4,1.4,0.9,2,1.3c0.5,0.1,1.7,0.2,2.2,0.3
		c-0.2-0.4-0.8-1.3-1-1.8C139.4,91.4,140.5,88.3,142.7,90.6z"/>
</g>
<g id="_x23_e2dbe2ff">
	<path class="st65" d="M67.2,91.1c0.5-0.3,1.6-1,2.1-1.3c-0.1,0.8-0.2,2.4-0.3,3.2c0.5-0.3,1.4-1,1.9-1.3c0.3,1.3,0.5,2.7,0.7,4.1
		c-0.6,0.2-1.9,0.6-2.6,0.8c0,0.4,0.1,1.2,0.1,1.6C67.9,96,67.7,93.4,67.2,91.1z"/>
	<path class="st65" d="M112,109.4c0.8-0.5,1.7-1,2.5-1.5l0.6,1.1c0.2,1.6,0.2,3.2,0.3,4.8c-1.6,0.3-3.2,0.5-4.8,0.5
		c-0.7,0-1.3-0.1-2-0.1c-1.2-0.9-2.5-1.9-3.8-2.8c1.8-0.1,3.7,0,5.6,0C110.9,110.7,111.5,110,112,109.4z"/>
</g>
<g id="_x23_f6f6f4ff">
	<path class="st66" d="M106.9,90.3c0.5-0.2,1.5-0.7,2.1-0.9c4.3-0.3,5.6,4.1,7.8,6.8c3.1,2.6,7.4,0.9,10.8-0.2
		c0.7,0.8,1.5,1.5,2.3,2.2c-1.8,1.4-3.7,2.7-5.9,3.5l-0.6,0.1c-5.5,1.1-11.4,3-15,7.6c0.9,0,2.8,0,3.7,0c-0.5,0.7-1.1,1.3-1.6,2
		c-1.9,0-3.7-0.1-5.6,0c-0.6,0.2-1.7,0.6-2.3,0.8c-0.6,0-1.9,0.1-2.5,0.2c-2.5-0.3-5-0.4-7.4-1.1c-3.4-1.4-4.9-5.3-8.3-6.8
		c-3.1-1.5-6.1-3.2-8.6-5.5c-0.1,0.7-0.1,2.1-0.2,2.8c-0.8-1-1.5-1.9-2.3-2.9c0.8-0.9,1.6-1.8,2.4-2.7c3.5,2.3,7.7,3.1,11.8,3.2
		c1.8,3.5,2.9,8.6,7.5,9.4c2.7,0,5.6-0.2,7.6-2.2c3.3-3.3,3.9-8.3,4.1-12.8C106.7,92.6,106.8,91.5,106.9,90.3z"/>
</g>
<g id="_x23_2b0b05ff">
	<path class="st67" d="M124,90.2c0.2,0.2,0.8,0.6,1,0.8c1.3,1.2,2.8,2.3,4.4,3.2c0.4,0.1,1.2,0.2,1.7,0.3l0.4-0.6
		c0.8-0.7,1.5-1.3,2.3-1.9c-0.7,1-2.3,1.8-1.6,3.3l0,0.3c3.4,0.4,6.7,0.1,10.1-0.4c-0.3,0.6-0.9,1.9-1.2,2.6
		c-0.8,1.1-1.6,2.2-2.5,3.3c-0.4-0.6-1.4-1.8-1.8-2.3c-0.8,1-1.7,2-2.5,3c-1.5-1.2-3-2.5-4.4-3.8c-0.8-0.7-1.5-1.4-2.3-2.2
		c-0.8-1-1.6-2.1-2.4-3.2C124.9,92.2,124.3,90.9,124,90.2z"/>
</g>
<g id="_x23_f9cb8cff">
	<path class="st68" d="M129.3,92.8c0.6,0.3,1.7,1,2.2,1.3l-0.4,0.6c-0.4-0.1-1.2-0.2-1.7-0.3C129.4,93.9,129.3,93.1,129.3,92.8z"/>
</g>
<g id="_x23_260504ff">
	<path class="st69" d="M76.7,93.7c0.3,0,1,0,1.4,0c-0.8,0.8-1.6,1.7-2.3,2.6c-0.8,0.9-1.6,1.8-2.4,2.7c-0.3,0.2-0.9,0.4-1.2,0.6
		L72,97.2c-0.8,0.9-1.7,1.8-2.5,2.7c-0.1-0.5-0.3-1.3-0.4-1.8c0-0.4-0.1-1.2-0.1-1.6c0.6-0.2,1.9-0.6,2.6-0.8
		C73.3,95.3,75,94.5,76.7,93.7z"/>
	<path class="st69" d="M151.9,211.5c0.7-1.8,1.7-3.5,2.8-5.1c0.4,0.5,1.3,1.6,1.8,2.1c-2.8,4.6-5.1,10.5-10.7,12.2
		c-2.5,1.2-5.1-0.5-6.4-2.6c0.1-1.4,0.2-2.8,0.4-4.2c1.4,3.3,4.8,3.8,7.9,3.6C148.6,215.2,150.2,213.3,151.9,211.5z"/>
</g>
<g id="_x23_c1a897ff">
	<path class="st70" d="M75.7,96.2c0.8-0.9,1.5-1.7,2.3-2.6l1.5,0c1.4,1.8,2.8,3.5,4.3,5.2c2.5-0.4,5.1-1,7.1-2.7
		c-0.5-0.3-1.6-0.8-2.1-1c1.5,0,2.9-0.1,4.4-0.3c-0.8,0.5-1.6,1.1-2.4,1.6c0.3,0.3,1,0.8,1.3,1.1l-1.3-0.5c-1.1,0.7-2.2,1.5-3.2,2.3
		C83.4,99.3,79.2,98.6,75.7,96.2z"/>
</g>
<g id="_x23_48050eff">
	<path class="st71" d="M87.5,99.5c1.1-0.8,2.1-1.6,3.2-2.3l1.3,0.5c2.5,1.4,5.4,0.6,8.2,0.6l-0.6,0.2c-1.4,0.3-2.8,0.5-4.3,0.8
		c-0.2,0.4-0.6,1.2-0.8,1.5c-0.2,0.4-0.5,1.3-0.7,1.8c-0.3,1.8,0,3.6,0.6,5.2c0.1,0.3,0.4,0.8,0.5,1C90.4,108.1,89.3,103,87.5,99.5z
		"/>
</g>
<g id="_x23_d0cbcfff">
	<path class="st72" d="M129.8,98.2c1.5,1.3,3,2.5,4.4,3.8c-1.4,1.6-2.9,3.2-5.2,3.3c-1.2-1.9-2.9-3.2-5.1-3.6
		C126.1,100.8,128,99.5,129.8,98.2z"/>
</g>
<g id="_x23_c4c6c7ff">
	<path class="st73" d="M72.1,99.6c0.3-0.2,0.9-0.4,1.2-0.6c0.8,0.9,1.6,1.9,2.3,2.9c0-0.7,0.1-2.1,0.2-2.8c2.5,2.3,5.5,4,8.6,5.5
		c3.4,1.5,4.9,5.3,8.3,6.8c2.4,0.8,4.9,0.8,7.4,1.1c-0.5,0.6-1,1.1-1.5,1.7c-2.4-0.4-5-0.3-7.2-1.5c-2.4-1.5-4-3.9-6.4-5.5
		c-2.2-1.4-4.6-2.6-6.9-3.9c-0.5,0.2-1.5,0.6-2,0.8l-0.9-0.1C73.9,102.7,72.9,101.2,72.1,99.6z"/>
</g>
<g id="_x23_e25e74ff">
	<path class="st74" d="M94.6,100.8c3,0.1,7.5-2.1,8.8,1.8c-2.1-0.7-4.1-0.6-5,1.7c-1.5-0.6-3-1.2-4.5-1.8
		C94.1,102.1,94.4,101.2,94.6,100.8z"/>
</g>
<g id="_x23_ff768eff">
	<path class="st75" d="M98.4,104.3c0.9-2.3,2.9-2.3,5-1.7c-1.6,3.6-5.3,4.7-8.9,5.2c-0.6-1.7-0.8-3.5-0.6-5.2
		C95.4,103.1,96.9,103.7,98.4,104.3z"/>
</g>
<g id="_x23_d3c9d2ff">
	<path class="st76" d="M108.3,109.3c3.6-4.6,9.5-6.5,15-7.6c-0.7,1.6-1.3,3.1-2.1,4.6c-2.3,0.2-4.6,0.6-6.8,1.4
		c-0.8,0.5-1.7,1-2.5,1.5C111.1,109.4,109.2,109.4,108.3,109.3z"/>
</g>
<g id="_x23_d3cbafff">
	<path class="st77" d="M123.4,101.8l0.6-0.1c2.2,0.3,4,1.7,5.1,3.6c-2.6,0.4-5.2,0.9-7.8,1.2C122,104.9,122.7,103.3,123.4,101.8z"/>
	<path class="st77" d="M148.6,129.1c4.9,1.7,9,5.2,13,8.4c-0.4,0.4-1.2,1.1-1.6,1.5c-1.9-1.4-3.8-2.8-5.5-4.4l0.4-1.2
		c-0.6-0.2-1.9-0.7-2.6-0.9c-1.7-0.5-3.5-1-5.2-1.4C147.4,130.5,148.2,129.5,148.6,129.1z"/>
	<path class="st77" d="M191,176.1l0.3-0.1c1.5,1.6,3.8,3.6,2.4,6.1c-0.8-0.4-1.7-0.7-2.5-1.1c-0.7-2.1-1.8-3.9-4.2-3.6
		C188.3,177,189.6,176.6,191,176.1z"/>
</g>
<g id="_x23_c3934fff">
	<path class="st78" d="M121.3,106.4c2.6-0.3,5.2-0.8,7.8-1.2c-0.1,0.6-0.3,1.7-0.4,2.3c-1,0.5-2,1-3.1,1.5c-3.3-0.9-6.4,0.9-9.5,2
		c-0.3-0.5-0.8-1.5-1.1-2l-0.6-1.1C116.7,107,119,106.6,121.3,106.4z"/>
	<path class="st78" d="M158.6,200.2c2-0.1,3.9-0.2,5.8-0.3c0.4,0,1.3-0.1,1.8-0.2c-1.6,1.4-3.4,2.5-5.3,3.4
		C160.2,202.1,159.4,201.2,158.6,200.2z"/>
</g>
<g id="_x23_e3b844ff">
	<path class="st79" d="M116.2,110.9c3-1.1,6.2-2.9,9.5-2c-3.4,1.7-6.8,3.3-10.2,4.8c-0.1-1.6-0.2-3.2-0.3-4.8
		C115.3,109.5,115.9,110.4,116.2,110.9z"/>
	<path class="st79" d="M157.9,192.9c2.1-0.8,4.3-1.3,6.5-1.7c1,0.8,1.9,1.5,2.8,2.4c-0.6,1.2-1.2,2.5-1.8,3.8
		c-0.7-0.5-1.4-1.1-2.1-1.6c0.4,1.4,0.8,2.8,1.2,4.2c-2,0.1-3.9,0.2-5.8,0.3c-2.7-2.4-6.3-2.8-9.8-2.6c1.5-0.4,5.3,0.2,3.2-2.4
		c0.6-0.3,1.3-0.6,2-0.8c3.2,0.3,5.7,2.5,8.2,4.4C161,196.6,159.5,194.7,157.9,192.9z"/>
</g>
<g id="_x23_300806ff">
	<path class="st80" d="M125.6,109c1-0.5,2-1,3.1-1.5c0.1,2.5,1.8,3.8,4,4.2c-3.2-0.9-5.7,1-8.2,2.8c-1.7,1-3.5,1.8-5.4,2.3
		c-2.1,0.6-4.2,1.2-6.3,1.9c-0.6,0.2-1.8,0.6-2.4,0.7c0.1-1.7,0.1-3.5,0.1-5.2c1.6,0,3.2-0.2,4.8-0.5
		C118.9,112.3,122.3,110.7,125.6,109z"/>
</g>
<g id="_x23_f4b71fff">
	<path class="st81" d="M124.6,114.5c2.4-1.8,5-3.6,8.2-2.8c1.6,0.8,2.8,2.6,3.2,4.4c-1,4.1-3.9,7.2-7,9.8c4.7,0.4,8.6-2.1,12.7-4.1
		c2.1,0.6,3.7,3.1,2.2,5.1c0.6,1,1.1,2,1.7,2.9c-1.1,1.6-2.2,3.1-3.4,4.6c0.3,0.1,0.8,0.2,1.1,0.3c0.6,0.2,1.7,0.5,2.3,0.7
		c0.9-1,1.7-2,2.6-3c0.5,0.7,1,1.3,1.6,2c-1.9,2.2-3.3,4.7-4.2,7.5c-0.2,0.3-0.5,0.8-0.6,1c-0.8,1.2-1.6,2.5-2.4,3.8l-0.4-0.7
		c0.2-2.3,0.6-4.7,1-7c-0.8,0.8-1.7,1.6-2.5,2.4c-0.4-2.1-0.8-4.2-1.3-6.2c-2.1,3.2-1.4,7.2-1.5,10.9c-1.9,0.6-3.7,1.3-5.6,1.9
		c-3.9,0.5-6.8,3.3-10.1,5.1c-0.7,0.5-1.6-0.1-2.3-0.3c-0.2-0.5-0.6-1.5-0.8-2c2.8-1.3,5.6-2.6,8.5-3.8l-0.1-0.3
		c-0.1-0.6-0.2-1.7-0.2-2.3c-0.2,0-0.6,0.1-0.8,0.1c-1.9-0.1-3.8-0.3-5.7-0.5c-0.1-1.2-0.1-2.4-0.2-3.7c3.1-0.6,6.2-0.9,9.1-2
		c2.2-0.8,2.4-3.3,2.9-5.2c0.1-0.3,0.2-0.9,0.3-1.2c-1.6,0.7-3.3,1.4-5,1.9c-3,0.3-5.9-0.3-8.8-0.9c0.3-2.3,0.5-4.5,0.8-6.8
		c2.5,0.1,4.7-1.2,6.5-2.8c-0.7,0-2-0.1-2.7-0.1C123.9,120.5,124.7,117.6,124.6,114.5z"/>
</g>
<g id="_x23_e9dfc5ff">
	<path class="st82" d="M99.5,117.1c-1.3-0.9-0.5-3.5,1.1-3.4C101.2,115.1,100.9,116.2,99.5,117.1z"/>
</g>
<g id="_x23_b88917ff">
	<path class="st83" d="M105.3,116.1c1.4-0.3,1.9,0.2,1.5,1.6C105.3,118,104.8,117.5,105.3,116.1z"/>
</g>
<g id="_x23_c1a762ff">
	<path class="st84" d="M112.9,118.8c2.1-0.7,4.2-1.3,6.3-1.9c0.3,0.4,0.9,1.3,1.2,1.8c-0.4,0.7-1.1,2-1.5,2.6
		c-0.2,0.4-0.7,1.3-0.9,1.7l-0.8-0.9c-0.7-1.1-1.4-2.2-2.2-3.3C114.5,118.8,113.4,118.8,112.9,118.8z"/>
</g>
<g id="_x23_c79427ff">
	<path class="st85" d="M103.6,118.1c1.7-1.1,3.1,2.2,1.2,2.7C103.2,121.5,102.7,119,103.6,118.1z"/>
</g>
<g id="_x23_eee9e9ff">
	<path class="st86" d="M110.5,119.5c0.6-0.2,1.8-0.6,2.4-0.7c0.5,0,1.6,0,2.1,0c0.8,1.1,1.5,2.2,2.2,3.3c0,0.6,0.1,1.7,0.1,2.2
		c-2.6,0.6-5.2,0.9-7.8,1.1c-0.3-0.2-0.9-0.7-1.3-0.9C109.2,123,110.1,121.3,110.5,119.5z"/>
</g>
<g id="_x23_f6e2eaff">
	<path class="st87" d="M118.9,121.2c1.6,0.7,3.2,1.5,4.8,2.3c-1.9-0.1-3.9,0.2-5.7-0.6C118.2,122.5,118.7,121.7,118.9,121.2z"/>
	<path class="st87" d="M110.8,131.6c0.2-1.7,0.1-3.4,0-5.1c1.5,0.6,3,1.2,4.5,1.7c-0.3,1.4-0.5,2.8-0.7,4.2
		c-1.8-0.2-3.4,0.2-4.4,1.8c-0.2,0.3-0.7,1-0.9,1.3c-0.5,0.1-1.5,0.3-2.1,0.4c0-1.1,0-2.1,0-3.2C108.5,132.4,109.7,132,110.8,131.6z
		"/>
</g>
<g id="_x23_ece9e0ff">
	<path class="st88" d="M96.3,121.4c1,0,2.9,0.1,3.9,0.1c0.5,0.7,1,1.4,1.5,2.1l1,1.4c-0.7,0.5-1.3,1-2,1.5c0.3,1,0.7,1.9,0.5,3
		c-1.7-0.3-3.3-0.6-4.9-0.9l0-1.3C96.3,125.3,96.3,123.3,96.3,121.4z"/>
</g>
<g id="_x23_4f200bff">
	<path class="st89" d="M117.2,122.1l0.8,0.9c1.8,0.8,3.8,0.5,5.7,0.6c0.7,0,2,0.1,2.7,0.1c-1.8,1.7-4,2.9-6.5,2.8
		c-0.8-0.1-2.5-0.2-3.3-0.2l-0.1,1c-0.3,0.2-0.9,0.7-1.2,0.9c-1.5-0.5-3-1.1-4.5-1.7c-0.3-0.2-1-0.8-1.4-1c2.6-0.2,5.2-0.5,7.8-1.1
		C117.3,123.7,117.2,122.6,117.2,122.1z"/>
</g>
<g id="_x23_f5e3c8ff">
	<path class="st90" d="M106.6,124.8c0.4-0.1,1.2-0.2,1.6-0.3c0.3,0.2,0.9,0.7,1.3,0.9c0.3,0.2,1,0.8,1.4,1c0.1,1.7,0.2,3.4,0,5.1
		c-1.1,0.4-2.3,0.8-3.5,1.2c0,1.1,0,2.1,0,3.2c0.5-0.1,1.5-0.3,2.1-0.4c0.2-0.3,0.7-1,0.9-1.3c1,2.2,3,2.6,5.1,1.7
		c-0.1,0.7-0.3,2.1-0.5,2.8c-5,2.5-7.8,7.6-12.4,10.6c-1.3-1.6-2.7-3.2-4-4.8l-0.2-0.9c1.8-0.4,3.5-0.7,5.3-1c1,0.5,1.9,1,2.9,1.5
		c1.5-2.4,3.6-4.7,3-7.7c-1.4,1.1-2.8,2.3-4.2,3.5c-1.2-1.4-3.3-5.5-4.7-2c-0.3-0.5-0.8-1.5-1.1-2l0.2-0.5c0.2-0.3,0.7-1,0.9-1.3
		l-1.6-0.2c0.4-1.2,0.9-2.3,1.4-3.4c0.9,0.4,1.7,0.9,2.6,1.3c0.4-0.8,0.8-1.6,1.3-2.4c2,0.6,4.1,2.4,6.2,1.1
		C109.3,128.5,108,126.7,106.6,124.8z"/>
</g>
<g id="_x23_e4ca76ff">
	<path class="st91" d="M102.8,125c1.3,0,2.6-0.1,3.9-0.2c1.3,1.9,2.7,3.7,4,5.6c-2.1,1.3-4.2-0.5-6.2-1.1c-0.5,0.8-0.9,1.6-1.3,2.4
		c-0.9-0.4-1.7-0.9-2.6-1.3c0.2-0.2,0.6-0.8,0.8-1c0.1-1-0.2-2-0.5-3C101.4,126,102.1,125.5,102.8,125z"/>
	<path class="st91" d="M185.7,182.6c2.9-0.1,5.7,0.2,8.5,0.8c-0.4,0.3-1.3,0.8-1.7,1.1c0.4,0.4,1.1,1.2,1.4,1.5
		c-0.8,1-1.6,1.9-2.6,2.8C190.3,186.1,187.9,184.3,185.7,182.6z"/>
</g>
<g id="_x23_270400ff">
	<path class="st92" d="M91.9,128.6c1.5,0,3,0,4.5,0c1.6,0.4,3.3,0.7,4.9,0.9c-0.2,0.2-0.6,0.8-0.8,1c-0.5,1.1-1,2.2-1.4,3.4l1.6,0.2
		c-0.2,0.3-0.7,1-0.9,1.3l-0.2,0.5c-2.1-1.2-0.4-3.2,0.1-4.8c-1,0.2-2.9,0.6-3.8,0.7l-0.1,0l-0.6-1.7c-1.6,0-2.9,0.6-4,1.7
		C91.4,130.7,91.7,129.6,91.9,128.6z"/>
	<path class="st92" d="M166.1,143l1-0.4c0.9,0.9,1.9,1.8,2.8,2.7c-0.5,0.2-1.5,0.7-2,1c-0.3,0-1,0.1-1.3,0.1c-0.4,0-1.2,0.1-1.6,0.1
		c-0.5-0.8-0.9-1.6-1.4-2.4C164.1,143.8,165.4,143.2,166.1,143z"/>
</g>
<g id="_x23_dec899ff">
	<path class="st93" d="M115.3,128.1c0.3-0.2,0.9-0.7,1.2-0.9c0,2.7-0.1,5.4-0.5,8.1c-0.2,0.1-0.4,0.4-0.6,0.5
		c-2.1,1-4.1,0.6-5.1-1.7c1-1.7,2.6-2.1,4.4-1.8C114.9,130.9,115.1,129.5,115.3,128.1z"/>
</g>
<g id="_x23_dabf39ff">
	<path class="st94" d="M91.1,131.8c1.1-1.1,2.4-1.7,4-1.7l0.6,1.7c-0.3,1.3-0.6,2.7-1,4c-1.2,0.7-2.6,1-3.8,1.5
		c-0.1-1.6-0.2-3.2-0.5-4.8L91.1,131.8z"/>
</g>
<g id="_x23_dcae6fff">
	<path class="st95" d="M95.7,131.8l0.1,0c-0.1,2.5,0,5,0.4,7.4c-1.9-0.4-3.8-0.9-5.7-1.2l0.3-0.7c1.3-0.5,2.6-0.8,3.8-1.5
		C95.1,134.4,95.5,133.1,95.7,131.8z"/>
</g>
<g id="_x23_46170aff">
	<path class="st96" d="M127.9,134.1c1.7-0.6,3.3-1.3,5-1.9c-0.1,0.3-0.2,0.9-0.3,1.2c-3.5,3-7.7,5.3-12.4,5.5c-0.6,0-1.7,0-2.3,0
		c-0.7,0-2.2-0.1-2.9-0.2c0.1-0.7,0.3-2.1,0.5-2.8c0.2-0.1,0.4-0.4,0.6-0.5C120,135.4,124,135.1,127.9,134.1z"/>
</g>
<g id="_x23_3c0000ff">
	<path class="st97" d="M152.3,132.4c0.6,0.2,1.9,0.7,2.6,0.9l-0.4,1.2c-0.3,0.6-0.8,1.6-1.1,2.2c-2.4,2.6-5.4,4.6-8.5,6.3
		c0.2-0.3,0.5-0.8,0.6-1C148.6,139.4,150.9,136.1,152.3,132.4z"/>
	<path class="st97" d="M152.8,171.8c5.4,0,9.8-3.1,13.4-6.8c-0.6,1.2-1.2,2.3-1.9,3.4c-0.2,0.4-0.5,0.8-0.8,1.2
		c-2,2.2-4.6,3.8-7.5,4.5c-2.7,0.3-5.4,0.2-8.1,0c-0.7-1.2-1.4-2.4-2.1-3.6c1.9,1.1,4.2,1.4,6.3,1.3L152.8,171.8z"/>
</g>
<g id="_x23_e4ba2dff">
	<path class="st98" d="M154.5,134.5c1.8,1.5,3.7,2.9,5.5,4.4c-0.3,1.1-0.6,2.3-0.9,3.5c0.6,0.3,1.9,0.8,2.5,1.1
		c-3.3,0.8-6.7,0.9-10.1,1c-0.4,0.2-1.1,0.5-1.5,0.6c-0.5-0.1-1.4-0.2-1.9-0.2c2.8-1.7,6.1-1.9,9.3-2.3c-1.8-0.6-3.5-1.2-5.4-1.5
		c0.4-1.5,0.9-2.9,1.3-4.4C153.7,136.2,154.2,135.1,154.5,134.5z"/>
</g>
<g id="_x23_d7c964ff">
	<path class="st99" d="M100.7,137.9c1.4-3.5,3.5,0.6,4.7,2c1.4-1.2,2.8-2.4,4.2-3.5c0.6,3-1.5,5.4-3,7.7c-1-0.5-2-1-2.9-1.5
		c-0.2-0.5-0.4-1-0.7-1.4C102.2,140,101.4,139,100.7,137.9z"/>
</g>
<g id="_x23_cd860dff">
	<path class="st100" d="M137.9,146.2c0.1-3.6-0.6-7.7,1.5-10.9c0.5,2.1,0.9,4.1,1.3,6.2c0.8-0.8,1.6-1.6,2.5-2.4
		c-0.4,2.3-0.8,4.6-1,7c-0.7-0.1-1.3-0.2-2-0.3C139.5,145.9,138.4,146.1,137.9,146.2z"/>
</g>
<g id="_x23_efa049ff">
	<path class="st101" d="M144.9,143c3.1-1.7,6.1-3.7,8.5-6.3c-0.5,1.4-0.9,2.9-1.3,4.4c-2,0.6-3.8,1.8-4.8,3.8l0.8,0.1
		c0.5,0.1,1.4,0.2,1.9,0.2c1.3,0.9,2.5,1.9,3.8,2.9c-2.8-0.4-5.6-0.9-8.3-1.5c-0.3,0.7-0.9,2.2-1.1,2.9c3.7,0.8,7.4,0.2,11.1-0.6
		c0.4,0.2,1.2,0.5,1.6,0.7c-3.5,1.4-7.2,2.2-10.8,2.9c-0.6-0.5-1.2-1-1.8-1.5c-2.3-2.1-5.3-1.6-7.9-0.6c-2.1,0.6-4.2,1.5-6.1,2.6
		c2.1,0.5,4.2,0.9,6.4,1c1.8-0.1,3.7-0.2,5.5-0.3c0.4,0.3,1.3,1,1.7,1.4l0.1-1.2c3.4,0.8,7,2.1,10.4,0.7c3.1-0.8,6.9-3,9.7-0.4
		c-6.9,1.6-13.9,2.9-21,2.2c0,0.8-0.1,2.3-0.1,3.1c-0.2-0.5-0.6-1.5-0.8-2c-0.4,0.2-1.3,0.7-1.7,0.9c-0.1-0.8-0.2-2.3-0.3-3.1
		c-5.2-0.9-10.4-0.3-15.5,0.7c3.6-4.3,8.8-6.9,14.3-8c0.2-0.5,0.5-1.6,0.6-2.2c0.7,0.1,1.3,0.2,2,0.3l0.4,0.7
		C143.3,145.5,144.1,144.3,144.9,143z"/>
</g>
<g id="_x23_f0e7f1ff">
	<path class="st102" d="M102.6,149.3c4.6-3,7.4-8.1,12.4-10.6c0.7,0,2.2,0.1,2.9,0.2c-0.8,2.1-1.4,4.2-1.5,6.4l0,1.6
		c0,0.5,0,1.6,0,2.1c-0.5-0.1-1.5-0.4-2-0.5c1.1,2.6,1.6,5.6,3.4,7.8c0.1,0.6,0.3,1.8,0.4,2.4c-3.2-1.2-6.5-1.8-9.8-2.6
		c-0.2-0.1-0.8-0.4-1-0.6c-0.4-0.4-1.2-1.3-1.6-1.7c-0.3-0.4-0.9-1.2-1.2-1.6C103.9,151.2,103.3,150.2,102.6,149.3z"/>
</g>
<g id="_x23_d4b792ff">
	<path class="st103" d="M162.8,139c4,1.3,6.9,4.6,9.3,8c-0.5-0.1-1.5-0.3-2-0.4c-0.6-0.1-1.7-0.2-2.3-0.3c0.5-0.2,1.5-0.7,2-1
		c-0.9-0.9-1.8-1.8-2.8-2.7l-1,0.4c-1.2,0.2-2.5,0.4-3.8,0.5C162.5,142,162.7,140.5,162.8,139z"/>
</g>
<g id="_x23_e3b434ff">
	<path class="st104" d="M91.4,141.2c1.6,0,3.1,0,4.7,0c0.8,1.1,1.7,2.2,2.5,3.3c1.3,1.6,2.7,3.2,4,4.8c0.7,0.9,1.3,1.9,2,2.9
		c0.2,0.5,0.5,1.6,0.7,2.1c-4.3-3.3-8.8-6.7-14.2-7.7C91.1,144.8,91.3,143,91.4,141.2z"/>
</g>
<g id="_x23_f9d869ff">
	<path class="st105" d="M147.3,144.9c0.9-1.9,2.8-3.1,4.8-3.8c1.8,0.3,3.6,0.9,5.4,1.5c-3.2,0.4-6.5,0.6-9.3,2.3L147.3,144.9z"/>
</g>
<g id="_x23_3b0000ff">
	<path class="st106" d="M126.4,144.7c0.2,0,0.6-0.1,0.8-0.1c0.1,0.6,0.2,1.7,0.2,2.3c-0.2-0.2-0.8-0.6-1-0.8
		c-2.9,1.5-8.1,4.9-10.2,0.8l0-1.6C119.7,145.5,123.1,145.6,126.4,144.7z"/>
	<path class="st106" d="M89.4,161.3c0.6,0,1.7-0.1,2.3-0.1c5.2-0.6,10.5,0.6,14.5,4.1c-0.2,0.7-0.7,2-0.9,2.7
		c-2.6-1.8-5.4-3.5-8.6-4.1c-1.6-0.2-3.2-0.3-4.8-0.5c-0.9,1-1.8,1.9-2.7,2.9c2.5,0.8,5,1.9,7.3,3.1c-1-0.1-2.1-0.2-3.1-0.3
		c-2-0.2-3.9-0.4-5.9-0.7C88.4,166.2,89.4,163.8,89.4,161.3z"/>
	<path class="st106" d="M182.6,181.5c2.8-0.4,5.7-0.7,8.6-0.4c0.8,0.3,1.7,0.7,2.5,1.1l0.6,1.2c-2.8-0.5-5.7-0.8-8.5-0.8
		c2.2,1.7,4.6,3.5,5.6,6.2c-0.4,0.5-1.2,1.5-1.6,2c-1.2-3.8-4.1-6.7-8.2-6.9C181.8,183.3,182.4,182.1,182.6,181.5z"/>
</g>
<g id="_x23_f7b817ff">
	<path class="st107" d="M151.6,144.5c3.4-0.1,6.8-0.2,10.1-1c-0.1,1.7-0.2,3.5-0.2,5.2c1.4-0.3,2.8-0.6,4.2-0.9
		c3.3,5.9,4.9,12.8,3.7,19.5c-0.2-1.3-0.4-2.6-0.6-3.9c-1.4,0.1-2.7,0.1-4.1,0.4c-2.1,1.4-3.6,3.6-5.8,4.8c-1.5,0.1-3.1,0-4.6-0.1
		c-0.5,1.1-1,2.2-1.5,3.3l-0.5,0c-1.7-1.2-3.4-2.5-5-3.8c3.1-2.1,6.7-3.2,10-4.9c2.5-1.8,4.8-3.9,7.3-5.8c0-0.5,0-1.6,0-2.2
		c0-0.2-0.1-0.7-0.1-0.9c-2.8-2.6-6.6-0.4-9.7,0.4c-3.4,1.4-7.1,0.2-10.4-0.7c0.1-0.8,0.2-2.3,0.3-3c0.6,0.5,1.2,1,1.8,1.5
		c3.7-0.7,7.4-1.5,10.8-2.9c-0.4-0.2-1.2-0.5-1.6-0.7c-0.4-0.2-1.2-0.6-1.6-0.7c-1.3-1-2.5-2-3.8-2.9
		C150.4,145,151.2,144.7,151.6,144.5z"/>
</g>
<g id="_x23_430100ff">
	<path class="st108" d="M137.9,146.2c0.6-0.1,1.7-0.3,2.2-0.4c-0.2,0.5-0.5,1.6-0.6,2.2c-5.5,1-10.7,3.6-14.3,8
		c5.1-1,10.3-1.6,15.5-0.7c0.1,0.8,0.2,2.3,0.3,3.1c-0.4,0.2-1.1,0.6-1.5,0.7c-1-0.5-2.1-1-3.1-1.4c-4.5-0.4-9,0.5-13.3,1.8
		c-1.5,0.4-2.9,0.9-4.4,1.3c-0.1-1.5-0.1-3-0.2-4.5c5.6-0.8,9.5-4.9,13.9-8C134.1,147.4,136,146.8,137.9,146.2z"/>
</g>
<g id="_x23_e4b44eff">
	<path class="st109" d="M166.6,146.4c0.3,0,1-0.1,1.3-0.1c0.6,0.1,1.7,0.2,2.3,0.3c0.3,1.5,0.7,3,1,4.5l-1.6,0
		C168.6,149.5,167.7,147.9,166.6,146.4z"/>
</g>
<g id="_x23_400400ff">
	<path class="st110" d="M91,146.6c5.5,1,9.9,4.4,14.2,7.7c-0.2-0.5-0.5-1.6-0.7-2.1c0.3,0.4,0.9,1.2,1.2,1.6
		c0.4,0.4,1.2,1.3,1.6,1.7c-3.2-0.2-6.4-0.3-9.6-0.3c-2.4,0-4.8,0.6-7.1,1.2c0,0.9-0.1,2.7-0.1,3.6c-0.1-1.1-0.2-2.2-0.2-3.4
		c0-0.8-0.1-2.3-0.1-3.1c2.6-0.5,5.2-1,7.8-1.5c-2.4-1-4.8-1.7-7.4-2.1C90.8,149.2,90.9,147.5,91,146.6z"/>
</g>
<g id="_x23_ea8c15ff">
	<path class="st111" d="M164.9,146.5c0.4,0,1.2-0.1,1.6-0.1c1.1,1.5,2.1,3.1,3,4.7c0.2,0.4,0.6,1.1,0.8,1.5c0.2,0.2,0.7,0.6,0.9,0.8
		c2.2,1.9,4.7,3.7,5.8,6.5c2.3,4.6,1.1,9.8,1.6,14.8c-1.9,2-3.6,5.2-6.8,5c-4.8,0.7-8.5-3-13-4.2c1.6-0.6,3.2-1.1,4.8-1.5
		c2.8-0.6,4-3.4,5.4-5.5l0.2-1.2c1.2-6.7-0.4-13.6-3.7-19.5L164.9,146.5z"/>
</g>
<g id="_x23_c68f4bff">
	<path class="st112" d="M170.1,146.6c0.5,0.1,1.5,0.3,2,0.4c3.1,3.6,5.2,7.8,7,12.1c2.2,5,1.8,10.6,1.6,16c-0.5,1.3-1.1,2.6-1.6,3.9
		c-0.6,0.8-1.1,1.6-1.7,2.5c-4.7,0-9.4,0.2-14-0.9c-1.4-0.8-2.7-1.8-3.8-3l-0.7-2.1c4.4,1.2,8.1,4.9,13,4.2c3.2,0.2,4.9-3,6.8-5
		c-0.4-4.9,0.7-10.2-1.6-14.8c-1.1-2.8-3.7-4.6-5.8-6.5c1-0.1,3-0.2,3.9-0.3c-0.5-2.1-2.3-2.3-4.1-2
		C170.8,149.6,170.4,148.1,170.1,146.6z"/>
</g>
<g id="_x23_cb903dff">
	<path class="st113" d="M122.2,153.2c3.3-1.8,6.2-4.6,10.1-5.1c-4.4,3.1-8.4,7.2-13.9,8l-0.7,0.2c-0.2-2.6-0.5-5.2-0.7-7.9
		c0.7,0.8,1.3,1.6,2,2.5c0.2,0.5,0.6,1.5,0.8,2C120.6,153.1,121.4,153.7,122.2,153.2z"/>
</g>
<g id="_x23_e59315ff">
	<path class="st114" d="M136.6,150.3c2.6-1,5.6-1.6,7.9,0.6c-0.1,0.8-0.2,2.3-0.3,3l-0.1,1.2c-0.4-0.3-1.3-1-1.7-1.4
		c-1.8,0.1-3.7,0.2-5.5,0.3C136.8,153,136.6,151.2,136.6,150.3z"/>
</g>
<g id="_x23_ebb927ff">
	<path class="st115" d="M130.5,152.9c1.9-1.1,3.9-2,6.1-2.6c0.1,0.9,0.2,2.8,0.3,3.7C134.7,153.9,132.6,153.4,130.5,152.9z"/>
</g>
<g id="_x23_511500ff">
	<path class="st116" d="M169.6,151.1l1.6,0c1.9-0.3,3.6-0.1,4.1,2c-1,0.1-3,0.2-3.9,0.3c-0.2-0.2-0.7-0.6-0.9-0.8
		C170.2,152.2,169.8,151.5,169.6,151.1z"/>
</g>
<g id="_x23_410000ff">
	<path class="st117" d="M143.4,156.3c7.1,0.8,14.1-0.5,21-2.2c0,0.2,0.1,0.7,0.1,0.9c-4.8,3.3-8.9,7.8-14.5,9.6
		c-2.2,0.8-5.7,1.2-4.7,4.4l-0.2-0.7c-0.3-1.7-0.6-3.3-0.8-5c4.2-0.8,8.5-1.9,11.9-4.8c-4.2,0.5-8.5,0.9-12.8,0.7
		C143.4,158.6,143.4,157.1,143.4,156.3z"/>
</g>
<g id="_x23_e2921cff">
	<path class="st118" d="M107.3,155.5c0.2,0.1,0.8,0.4,1,0.6c0.2,1.8,0.3,3.5,0.2,5.3c-0.8,1.3-1.6,2.6-2.4,3.9
		c-4-3.5-9.3-4.7-14.5-4.1l0.1-0.6c2.8,0,4.8-1.2,5.3-4l0.6-1.3C100.9,155.2,104.1,155.3,107.3,155.5z"/>
</g>
<g id="_x23_efc270ff">
	<path class="st119" d="M90.6,156.4c2.3-0.6,4.7-1.2,7.1-1.2l-0.6,1.3c-2.4,0.6-6,0.5-5.3,4l-0.1,0.6c-0.6,0-1.7,0.1-2.3,0.1
		c0-1.5-0.2-3.3,0.9-4.5c0.1,1.1,0.1,2.2,0.2,3.4C90.5,159.2,90.6,157.4,90.6,156.4z"/>
</g>
<g id="_x23_d4cbd1ff">
	<path class="st120" d="M108.3,156.1c3.3,0.7,6.6,1.3,9.8,2.6c-0.1-0.6-0.3-1.8-0.4-2.4l0.7-0.2c0.1,1.5,0.1,3,0.2,4.5
		c0.1,3.9-0.2,7.9-0.7,11.8c-0.2,1.2-0.4,2.3-0.6,3.4c-0.2,0.3-0.6,0.9-0.8,1.2c-2.2-5.4-5.7-10.2-7.9-15.6
		C108.6,159.6,108.5,157.8,108.3,156.1z"/>
</g>
<g id="_x23_eab75eff">
	<path class="st121" d="M149.9,164.7c5.7-1.8,9.8-6.2,14.5-9.6c0,0.5,0,1.6,0,2.2c-2.4,1.9-4.7,4-7.3,5.8c-3.3,1.7-6.9,2.8-10,4.9
		c1.7,1.3,3.3,2.6,5,3.8c-2.2,0.1-4.4-0.2-6.3-1.3c-0.2-0.3-0.5-1-0.7-1.3C144.2,165.9,147.8,165.5,149.9,164.7z"/>
	<path class="st121" d="M118.6,160.6c1.5-0.4,2.9-0.9,4.4-1.3c-0.8,1-1.6,2.1-2.3,3.2c3.5,2.9,8.4,0.6,12.3,2.4
		c0.2,0.5,0.7,1.6,1,2.1c-4.4-1.7-9.2-1.9-13.8-1.8l-0.1,2c4.2-0.2,8.7,0,12.4,2.3c-0.2,0.4-0.7,1.2-0.9,1.6c-3-1.2-5.9-3.1-9.2-2.7
		c-0.2,0.4-0.6,1.3-0.8,1.7c1.8,1.2,4,1.8,6.1,2.4c0,0.6-0.1,1.7-0.1,2.2c-3-1.3-6.2-2.2-9.6-2.3
		C118.3,168.5,118.6,164.6,118.6,160.6z"/>
</g>
<g id="_x23_f1b423ff">
	<path class="st122" d="M91.8,160.5c-0.7-3.6,2.9-3.4,5.3-4C96.6,159.4,94.6,160.6,91.8,160.5z"/>
</g>
<g id="_x23_f3b91fff">
	<path class="st123" d="M122.9,159.4c4.3-1.3,8.8-2.2,13.3-1.8c-0.9,2.5-2,5-3.3,7.3c-4-1.8-8.9,0.5-12.3-2.4
		C121.4,161.5,122.2,160.4,122.9,159.4z"/>
</g>
<g id="_x23_d6942cff">
	<path class="st124" d="M136.3,157.6c1.1,0.4,2.1,0.9,3.1,1.4c0.1,0.5,0.3,1.4,0.4,1.9c0.1,0.4,0.2,1.3,0.3,1.7
		c-0.6,1.7-1.2,3.3-2,4.9c-0.6,0-1.7,0.1-2.3,0.2c-0.4-0.2-1.4-0.6-1.8-0.7c-0.2-0.5-0.7-1.6-1-2.1
		C134.3,162.6,135.3,160.1,136.3,157.6z"/>
</g>
<g id="_x23_e3c7bcff">
	<path class="st125" d="M139.7,160.9c1.5,0.8,3,1.7,4.5,2.6c0.3,1.7,0.5,3.3,0.8,5c-1.3-0.7-2.5-1.5-3.8-2.2
		c-0.4-1.2-0.8-2.4-1.2-3.7C139.9,162.2,139.8,161.3,139.7,160.9z"/>
</g>
<g id="_x23_eee9e8ff">
	<path class="st126" d="M108.6,161.4c2.2,5.4,5.7,10.2,7.9,15.6c-0.8,1.1-1.5,2.2-2.3,3.3c-0.5,0.1-1.6,0.3-2.1,0.4
		c-0.2-2.4,0.3-4.8,1.6-6.9c-1.9,2.1-3.8,4.1-5.7,6.2c-0.4-1.6-1.6-3.1-1.2-4.8c1-1.8,2.3-3.4,3.5-5.1c-1.8,1.5-3.6,2.9-5.4,4.4
		c-0.2-0.4-0.6-1.2-0.8-1.6c0.4-1.6,0.8-3.2,1.2-4.8c0.2-0.7,0.7-2,0.9-2.7C106.9,164,107.8,162.7,108.6,161.4z"/>
</g>
<g id="_x23_d5c9d0ff">
	<path class="st127" d="M140,162.6c0.4,1.2,0.8,2.4,1.2,3.7c1.3,0.7,2.5,1.5,3.8,2.2l0.2,0.7c0.2,0.3,0.5,1,0.7,1.3
		c0.7,1.2,1.4,2.4,2.1,3.6c0.3,0.6,0.9,1.7,1.2,2.2c-1.9,0.1-3.8,0.2-5.8,0.4c-1.5,2.8-3.1,5.4-5,7.9c0.3,0.4,1,1.1,1.3,1.5
		c-0.2,0.6-0.7,1.8-0.9,2.3c-1.2-0.1-2.5-0.3-3.7-0.4c0.4-0.5,0.9-1.1,1.3-1.6c0-0.5-0.1-1.5-0.1-2c0.3-3.2,1.1-6.2,1.8-9.3
		c-0.4-0.5-1.2-1.6-1.6-2.1c0.4-1.4,0.8-2.9,1.2-4.3c-0.5-0.2-1.4-0.6-1.9-0.8c0.6-0.1,1.8-0.1,2.3-0.2
		C138.8,165.9,139.4,164.3,140,162.6z"/>
</g>
<g id="_x23_edb546ff">
	<path class="st128" d="M89.2,166.4c0.9-1,1.8-1.9,2.7-2.9c1.6,0.1,3.2,0.3,4.8,0.5c-1.2,0.6-2.3,1.2-3.4,1.8
		c0.6,0.2,1.7,0.4,2.3,0.6c0.2,0.8,0.7,2.4,1,3.2C94.1,168.2,91.7,167.2,89.2,166.4z"/>
</g>
<g id="_x23_e09017ff">
	<path class="st129" d="M96.6,163.9c3.2,0.6,6,2.2,8.6,4.1c-0.5,1.6-0.9,3.2-1.2,4.8c-0.4,0.4-1.1,1.2-1.5,1.6c-1.8,0-3.7,0-5.5,0
		c-0.1-1.6-0.1-3.2-0.2-4.8l-0.3-0.1c-0.2-0.8-0.7-2.4-1-3.2c-0.6-0.1-1.8-0.4-2.3-0.6C94.3,165.1,95.5,164.5,96.6,163.9z"/>
</g>
<g id="_x23_d5b46cff">
	<path class="st130" d="M84.2,171.1c1.1-0.9,2.2-1.8,3.4-2.6c2,0.3,3.9,0.5,5.9,0.7c-1.8,0.6-7.3,0.5-5.2,3.5
		c3.1,3.4,8.2,1.5,12.1,2.1c-1.3,0.5-2.7,1-4,1.5c-2.7,0.1-5.5,0.2-8.1-0.6C86.6,174.4,85.5,172.6,84.2,171.1z"/>
</g>
<g id="_x23_f8b716ff">
	<path class="st131" d="M122.3,168.4c3.3-0.4,6.3,1.6,9.2,2.7c-0.1,0.5-0.3,1.5-0.4,2c-0.4,2.5-0.5,5.1-0.4,7.7l-0.8,0.2
		c-4.2,0.6-8.6,3.8-12.7,1.2c0.9-1.7,1.2-3.9,2.9-5c2.3-0.6,4.8-0.7,7.1-1.3c0-0.1,0.1-0.4,0.1-0.5c0-0.2,0-0.5,0.1-0.7
		c0-0.6,0.1-1.7,0.1-2.2c-2.1-0.6-4.2-1.2-6.1-2.4C121.7,169.7,122.1,168.8,122.3,168.4z"/>
	<path class="st131" d="M163.6,169.5c0.3-0.4,0.5-0.8,0.8-1.2c1.6,0,3.2,0.1,4.8,0c-1.4,2.2-2.6,5-5.4,5.5
		C164.4,172.5,164,171,163.6,169.5z"/>
</g>
<g id="_x23_f1b61eff">
	<path class="st132" d="M96.5,169.5l0.3,0.1c0.1,1.6,0.1,3.2,0.2,4.8c1.8,0,3.7,0,5.5,0l0.6,0.3c-0.7,0-2.1,0-2.8,0
		c-4-0.5-9.1,1.3-12.1-2.1c-2.2-3,3.4-2.9,5.2-3.5C94.4,169.3,95.5,169.4,96.5,169.5z"/>
</g>
<g id="_x23_cccad0ff">
	<path class="st133" d="M104.9,174.5c1.8-1.5,3.6-3,5.4-4.4c-1.2,1.7-2.5,3.3-3.5,5.1c-0.5,1.7,0.8,3.2,1.2,4.8
		c1.8-2.1,3.8-4.1,5.7-6.2c-1.3,2.1-1.8,4.4-1.6,6.9c0.5-0.1,1.6-0.3,2.1-0.4c0.2,1.3,0.5,2.6,0.7,3.9c-0.4-0.3-1.2-1-1.6-1.4
		c-4.1,2.3-9.3,5.5-8.3,11c1.2,0.3,2.3,0.6,3.5,1c0.8-2.4,2-4.6,3.6-6.5c-0.6,2.6-1,5.2-1.1,7.9c1.5,0.1,3,0.3,4.4,0.5
		c0.9-3,1.9-6.1,4.6-7.9c-1,2.2-1.7,4.4-1.9,6.8c1.7,0.3,3.4,0.7,5.2,1c4.2-2.7,5.9-7.4,7.4-11.9c1.9-0.1,3.9-0.2,5.9-0.3
		c0,0.5,0.1,1.5,0.1,2c-0.4,0.5-0.9,1.1-1.3,1.6c-1.4,1.9-1.7,4.3-3,6.2c-2.9,3.7-7.6,6.4-12.5,5.4c-4.7,0.2-8.9-1.6-13.3-2.9
		c-2.9-1.3-2.6-5-2-7.5c1.1-3.1,4.2-4.9,6.7-6.8c-1.6-0.4-4,0.3-5-1.5c-1.2-1.9-1.6-4.3-2.9-6.1l-0.6-0.3c0.4-0.4,1.1-1.2,1.5-1.6
		C104.2,173.2,104.7,174.1,104.9,174.5z"/>
</g>
<g id="_x23_e2911eff">
	<path class="st134" d="M132.4,169.6c0.3,0.2,0.8,0.7,1,0.9c0.7,3.3,0.6,6.8-1,9.8c-0.4,0.1-1.3,0.4-1.8,0.5c-0.1-2.6,0-5.1,0.4-7.7
		c0.1-0.5,0.3-1.5,0.4-2C131.7,170.8,132.2,170,132.4,169.6z"/>
</g>
<g id="_x23_ecebebff">
	<path class="st135" d="M79.4,174.6c-1.7-2.3,3.2-4.8,4.8-3.4c1.3,1.5,2.4,3.3,4.1,4.5c2.6,0.9,5.4,0.7,8.1,0.6
		c-0.5,4.5-3.8,8.5-8.5,8.8c-3,0.6-1.6-3.5-2.2-5.2c-1.5,2.8-3.8,5.1-6.7,6.4c-0.6-1.1-1.3-2.1-1.7-3.3c0.5-2.3,1.8-4.3,2.8-6.4
		c-1.9,1.7-3.6,3.6-5.1,5.7c0.1-0.8,0.3-2.3,0.4-3.1C76.1,177.1,77.6,175.6,79.4,174.6z"/>
</g>
<g id="_x23_c98f47ff">
	<path class="st136" d="M133.4,170.5c1,0.9,1.9,1.8,2.9,2.7c-0.7,3.2-1.2,6.4-1.6,9.6c-1.9,0.1-3.8,0.2-5.6,0.4
		c0.2-0.6,0.6-1.7,0.9-2.3l0.8-0.2c0.4-0.1,1.3-0.4,1.8-0.5C134,177.3,134.1,173.8,133.4,170.5z"/>
</g>
<g id="_x23_e9ccaaff">
	<path class="st137" d="M136.4,173.2l0.1-0.4c0.4,0.5,1.2,1.6,1.6,2.1c-0.7,3.1-1.5,6.2-1.8,9.3c-1.9,0.2-3.9,0.2-5.9,0.3
		c-4.6,0.3-9.2,1.6-13.9,1c-0.4-0.4-1.3-1.1-1.8-1.4c4.7,1.7,9.6,0.5,14.2-0.9c1.9-0.2,3.8-0.3,5.6-0.4
		C135.2,179.6,135.7,176.4,136.4,173.2z"/>
</g>
<g id="_x23_dbc393ff">
	<path class="st138" d="M182.7,172.7c2.2,0.5,4.4,1.1,6.5,2l-1,0.6c-1.3,0.6-2.6,1.3-3.9,2c-0.3-0.7-1-2.2-1.3-2.9
		C182.8,173.9,182.7,173.1,182.7,172.7z"/>
</g>
<g id="_x23_b1825dff">
	<path class="st139" d="M148,174c2.7,0.1,5.4,0.3,8.1,0c0.9,0.5,2,0.9,2.9,1.4l0.7,2.1c-2.3-1.2-4.9-1.5-7.5-1.4
		c-0.7,0-2.2,0.1-3,0.1C148.9,175.7,148.3,174.6,148,174z"/>
</g>
<g id="_x23_cecdceff">
	<path class="st140" d="M100.4,174.7c0.7,0,2.1,0,2.8,0c-0.1,2.6,0.4,5.7-1.7,7.8c-2.8,3-6.5,5.2-10.5,6.4c-4,0.4-8.1,0.4-12.1-0.1
		c-2.5-1.4-5-3.7-5.2-6.8c0.2-1.6-0.4-4.3,1.8-4.8l-0.2,1.8c-0.1,0.8-0.3,2.3-0.4,3.1c1.5-2.1,3.2-4,5.1-5.7
		c-0.9,2.1-2.2,4.1-2.8,6.4c0.4,1.2,1.1,2.2,1.7,3.3c3-1.2,5.2-3.5,6.7-6.4c0.6,1.8-0.8,5.8,2.2,5.2c4.7-0.4,8-4.3,8.5-8.8
		C97.7,175.7,99,175.2,100.4,174.7z"/>
</g>
<g id="_x23_e2b94dff">
	<path class="st141" d="M180.2,180.4c0.9-2.1,1.8-4.1,2.7-6.1c0.3,0.7,1,2.2,1.3,2.9c0,0.3-0.1,1-0.1,1.4c0.9-0.4,1.9-0.8,2.9-1.1
		c2.5-0.3,3.6,1.6,4.2,3.6c-2.9-0.3-5.7,0-8.6,0.4c-0.3,0.6-0.8,1.8-1.1,2.4c4.1,0.2,7,3.1,8.2,6.9c-1,0.6-1.9,1.2-2.9,1.8
		c-2-2.8-4.4-7.5-8.6-6.1c1.3,1.2,2.7,2.3,4,3.5c-0.1,0.7-0.2,2.1-0.3,2.7c-0.7,0.1-2.2,0.4-3,0.5c0.7-0.7,2.3-1.6,1.7-2.8
		c-1-0.3-1.9-0.1-2.7,0.6c-0.6-1.2-1.3-2.4-2-3.5c1.9-1,3.8-2,5.3-3.6C182,182.6,180.8,181.5,180.2,180.4z"/>
</g>
<g id="_x23_e6c055ff">
	<path class="st142" d="M117.3,175.8c3.3-0.8,6.7-0.9,10,0c-2.3,0.6-4.8,0.8-7.1,1.3c-1.7,1.1-2,3.4-2.9,5c4.1,2.6,8.5-0.6,12.7-1.2
		c-0.2,0.6-0.6,1.7-0.9,2.3c-4.6,1.4-9.5,2.6-14.2,0.9c-0.2-1.3-0.5-2.6-0.7-3.9c0.8-1.1,1.6-2.2,2.3-3.3
		C116.7,176.7,117.1,176.1,117.3,175.8z"/>
</g>
<g id="_x23_cec8caff">
	<path class="st143" d="M143.4,176.6c1.9-0.1,3.8-0.3,5.8-0.4c0.8,0,2.2-0.1,3-0.1c-4.2,1.5-9.8,2.9-10.9,7.9
		c-0.6,1.9,0.5,3.3,2,4.1c0.8-2.4,1.3-5,2.6-7.2c1.2-0.9,2.5-1.5,3.8-2.1c-1.7,2.7-5,5.2-4.4,8.7c1.1,1.4,2.8,2.3,4.3,3.4
		c2.1-3.1,2.6-7.5,6.2-9.2c-1.4,2.6-2.4,5.4-1.4,8.3c0.1,0.7,0.4,2.1,0.5,2.8c-0.8-0.4-1.5-0.9-2.3-1.3c-4.9,1.9-9.3-2-13.9-3.3
		c0.2-0.6,0.7-1.8,0.9-2.3c-0.3-0.4-1-1.1-1.3-1.5C140.3,182,141.9,179.4,143.4,176.6z"/>
</g>
<g id="_x23_f1ecefff">
	<path class="st144" d="M152.2,176.2c2.6-0.1,5.2,0.2,7.5,1.4c1.1,1.2,2.3,2.2,3.8,3c-0.1,1.9,0.4,4.2-1.2,5.7
		c-2,2.2-5.1,2.7-7.8,3.8c-1-2.9-0.1-5.8,1.4-8.3c-3.6,1.8-4.1,6.1-6.2,9.2c-1.5-1.1-3.1-1.9-4.3-3.4c-0.6-3.5,2.7-6,4.4-8.7
		c-1.3,0.7-2.6,1.2-3.8,2.1c-1.3,2.2-1.8,4.8-2.6,7.2c-1.5-0.9-2.6-2.3-2-4.1C142.4,179.1,148,177.6,152.2,176.2z"/>
</g>
<g id="_x23_d3c9ccff">
	<path class="st145" d="M163.4,180.6c4.6,1.1,9.3,0.9,14,0.9c-1.3,2.9-4,4.5-7,5c-2.4,0.4-4.9,0.8-7.3,1.1c0.8,0.1,2.3,0.3,3,0.4
		c-0.3,0.6-1,1.8-1.3,2.3c-0.1,0.2-0.4,0.7-0.5,0.9c-2.2,0.4-4.4,0.9-6.5,1.7c-0.9,0.3-1.8,0.7-2.7,1l-0.2-1
		c-0.1-0.7-0.4-2.1-0.5-2.8c2.7-1.1,5.8-1.6,7.8-3.8C163.8,184.8,163.4,182.5,163.4,180.6z"/>
</g>
<g id="_x23_efe9f2ff">
	<path class="st146" d="M104.9,193.8c-1-5.5,4.2-8.7,8.3-11c0.4,0.3,1.2,1,1.6,1.4c0.4,0.4,1.3,1.1,1.8,1.4c4.7,0.6,9.2-0.7,13.9-1
		c-1.5,4.5-3.2,9.2-7.4,11.9c-1.7-0.4-3.4-0.7-5.2-1c0.2-2.4,0.9-4.6,1.9-6.8c-2.7,1.9-3.7,4.9-4.6,7.9c-1.5-0.2-3-0.3-4.4-0.5
		c0.1-2.6,0.5-5.3,1.1-7.9c-1.6,1.9-2.8,4.1-3.6,6.5C107.2,194.4,106,194.1,104.9,193.8z"/>
</g>
<g id="_x23_d2bea3ff">
	<path class="st147" d="M163.1,187.5c2.4-0.3,4.9-0.6,7.3-1.1c-0.8,0.9-1.7,1.8-2.5,2.6c2.4-0.4,4.7-0.8,7.1-1.2
		c-0.2,0.2-0.5,0.8-0.6,1c-1.9,0.9-4,1.6-6.1,1.7c-1.1-0.1-2.3-0.2-3.4-0.4c0.3-0.6,1-1.8,1.3-2.3
		C165.4,187.9,163.8,187.6,163.1,187.5z"/>
</g>
<g id="_x23_d59d16ff">
	<path class="st148" d="M177.9,191c0.8-0.7,1.8-0.9,2.7-0.6c0.6,1.2-1,2.1-1.7,2.8c-0.3,0.1-0.9,0.2-1.2,0.2l-0.2-0.6
		C177.6,192.4,177.8,191.5,177.9,191z"/>
</g>
<g id="_x23_be9a60ff">
	<path class="st149" d="M182.2,190c0.9,1.2,1.4,3.4,3.3,2.6c-0.5,0.9-0.8,1.9-1,3c-0.1-0.3-0.4-0.9-0.5-1.2
		c-2.7,0.7-5.3,1.8-8.1,2.1c0.2-0.3,0.7-0.9,0.9-1.2c-0.2-0.2-0.6-0.7-0.8-1c0.4-0.2,1.3-0.7,1.7-0.9c0.3-0.1,0.9-0.1,1.2-0.2
		c0.7-0.1,2.2-0.4,3-0.5C182,192.1,182.1,190.7,182.2,190z"/>
	<path class="st149" d="M165.4,197.3c0.6-1.2,1.2-2.5,1.8-3.8c0.8,1.5,1.4,3.1,2.1,4.7c0.6-0.1,1.9-0.4,2.6-0.5
		c-0.3-0.6-0.8-1.8-1-2.4c1.2,0,2.5,0,3.7,0c0.2,0.5,0.6,1.5,0.8,1.9c-2,0.9-3.9,1.9-6.1,2c-0.4,0-1.4-0.1-1.8-0.1
		C166.8,198.7,165.9,197.8,165.4,197.3z"/>
</g>
<g id="_x23_dfceacff">
	<path class="st150" d="M145.3,199.3l0.7,0c0.5,0,1.4,0,1.9,0c-0.1,0.8-0.2,2.5-0.3,3.3c-0.7,0.1-1.9,0.2-2.6,0.2
		c-1,0.3-2,0.6-2.9,1C143,202.2,144.1,200.8,145.3,199.3z"/>
</g>
<g id="_x23_e8b02fff">
	<path class="st151" d="M147.9,199.3c4.6-0.5,9.2,1.6,11,6c-0.5,1.3-1.5,2.2-2.4,3.3c-0.4-0.5-1.3-1.6-1.8-2.1
		c-1.9-2.1-4.4-3.2-7.1-3.8C147.7,201.8,147.8,200.1,147.9,199.3z"/>
</g>
<g id="_x23_400104ff">
	<path class="st152" d="M147.6,202.6c2.7,0.6,5.3,1.7,7.1,3.8c-1.2,1.6-2.2,3.2-2.8,5.1c-1.7,1.8-3.3,3.7-4.2,6
		c-3.2,0.2-6.6-0.3-7.9-3.6c0.1-1.3,0.2-2.6,0.4-3.9c0.4,0.5,1.1,1.4,1.5,1.9c1.2-2.5,2.4-5.1,3.7-7.5c-0.1-0.4-0.3-1.1-0.4-1.5
		C145.7,202.8,147,202.7,147.6,202.6z"/>
</g>
<g id="_x23_5e352cff">
	<path class="st153" d="M142.1,203.8c1-0.3,1.9-0.7,2.9-1c0.1,0.4,0.3,1.1,0.4,1.5c-1.3,2.5-2.6,5-3.7,7.5c-0.4-0.5-1.1-1.4-1.5-1.9
		c-0.1,1.3-0.3,2.6-0.4,3.9c-0.1,1.4-0.2,2.8-0.4,4.2C138,213.2,139.7,208.2,142.1,203.8z"/>
</g>
</svg>
