<?xml version="1.0" encoding="utf-8"?>
<!-- Generator: Adobe Illustrator 26.0.3, SVG Export Plug-In . SVG Version: 6.00 Build 0)  -->
<svg version="1.1" id="Layer_1" xmlns="http://www.w3.org/2000/svg" xmlns:xlink="http://www.w3.org/1999/xlink" x="0px" y="0px"
	 viewBox="0 0 250 250" style="enable-background:new 0 0 250 250;" xml:space="preserve">
<style type="text/css">
	.st0{fill:#32C9A4;}
	.st1{fill:#0C2A4D;}
</style>
<g id="_x23_32c9a4ff">
	<path class="st0" d="M103.8,0h7.9c-1.2,0.7-2.3,1.7-3.7,2.1c-12.2,2-24.1,5.6-35.6,10.2C50,22.8,30.8,40,18.2,61.3
		c-4.6,7.3-7.4,15.6-10.6,23.5c-1.9,4.5-2.3,9.3-4,13.9c-2.2,5.8,0.6,12.7-3.7,17.7v-12.7c0.9-1.5,2.1-3,2.2-4.9
		C3,91.4,6.1,84.4,8.5,77.3c1.5-4.5,4.1-8.4,6.4-12.5c3.8-7,8.3-13.5,13.2-19.8c5.3-6,11-11.6,17-16.9C59.4,16.6,76,7.7,93.8,3.1
		C97.2,2.3,100.8,2,103.8,0z"/>
	<path class="st0" d="M138.4,0h7.9c2.8,2.6,6.7,2.3,10.3,2.7c1.3,0,1.9,1.4,2.7,2.2c-4.8-0.3-9.2-2.5-14-2.3
		C142.6,2.7,140.3,1.6,138.4,0z"/>
	<path class="st0" d="M116.8,62.9c5.4-0.5,10.9-0.5,16.3,0c0.7,5.2-0.1,10.5,0.4,15.7c2.3,3.5,7,4.1,9.5,7.4
		c4,4.7,7.5,10.9,6.2,17.3c-5,0.1-10.1,0.7-15.1-0.2c-2.6-3-4.4-8.2-9.2-7.7c-3.2-0.7-5.7,1.7-7.4,4.1c-0.3,3.8-1.3,8.9,2.4,11.5
		c7.8,5.5,17.9,6.6,25.4,12.6c3.4,2.5,5.7,6.4,6.9,10.4c0.2,5.9,0.4,12-0.2,17.9c-2,5-4.3,10.2-8.8,13.4c-2.7,2.5-6.5,3.4-9.4,5.5
		c-1.2,5.3,0.2,11-0.7,16.4c-5.4,0.4-10.9,0.5-16.4,0c-0.6-5.2,0.1-10.5-0.3-15.8c-1.3-2.1-4.1-2.4-6.1-3.6
		c-8.9-4.2-16.3-13.9-14.6-24.1c5.4-0.2,10.8-0.4,16.3,0c2,1.6,2,4.8,3.6,6.8c2.8,3.6,7.7,4.9,12,3.9c4.9-2.2,8.8-7.4,7.8-13
		c-1.4-3.2-3.6-6.3-6.8-8c-6.4-3.6-14.1-4.5-20-9c-3.8-3.1-7.3-7-8.4-11.9c-1.7-8.5-0.9-17.9,4.3-25c3.1-3.9,8-5.2,12.1-7.8
		C116.7,74.1,116.2,68.5,116.8,62.9z"/>
	<path class="st0" d="M247.3,99.8c0.5,3,1.5,5.9,2.7,8.8v4C247,109,247.4,104.2,247.3,99.8z"/>
	<path class="st0" d="M0,133.5c4.1,4.9,1.7,11.4,3.4,17c2,6.3,3.2,12.9,5.9,19c5.5,15.4,14.8,29.2,25.8,41.3
		c3.1,3.2,7.1,5.6,9.5,9.5c-5.5-2-9.1-6.9-12.9-11c-2.9-4-7.2-7.1-9.2-11.7c-2.3-5.2-6.8-9.1-8.6-14.7c-5-7.7-7.8-16.5-10.5-25.3
		c-1.2-3.8-0.7-8.2-3.4-11.5V133.5z"/>
	<path class="st0" d="M177.4,237.5c6.5-3,12.5-7,18.9-10.2c-3.4,2.9-6.8,6.2-11.1,7.8c-4.2,1.5-7.5,4.7-11.8,6.1
		c-5.4,1.9-10.8,4.2-16.4,5.6c-3.6,1-7.7,0.6-10.8,3.2h-12.7c5.1-4.2,12-1.5,17.8-3.7C159.9,243.3,169.6,242.8,177.4,237.5z"/>
</g>
<g id="_x23_0c2a4dff">
	<path class="st1" d="M111.7,0h26.6c2,1.6,4.3,2.7,6.8,2.6c4.8-0.2,9.2,2,14,2.3c3.6,1.2,8.2,1.4,10.8,4.4
		c7.3,0.8,13.5,5.2,19.7,8.8c13,7.9,24.5,18.2,34,30.1c5.2,7.9,11.8,15.3,14.1,24.7c3.3,3.3,3.2,8.4,5.1,12.5
		c2.2,4.5,3.4,9.5,4.4,14.4c0,4.4-0.3,9.2,2.7,12.8v28.7c-3.4,4.5-2.5,10.4-2.3,15.7c-0.3-1.4-0.5-2.7-0.8-4.1
		c-1.6,3.7-2.3,7.8-2.3,11.8c-0.5-0.5-1-1-1.5-1.5c-0.4,2.7-0.7,5.4-0.6,8.1c-0.6,0.1-1.3,0.1-1.9,0.2c-0.4,1.6-0.8,3.3-1.1,4.9
		c-0.6,0.1-1.2,0.2-1.8,0.3c-0.5,3.9-2,7.8-4.8,10.8c-0.2,1.2-0.4,2.3-0.5,3.5c-2.9,1.5-4.3,4.7-6.1,7.2c-3.4,5.2-7.6,9.7-11.9,14.2
		c-5.6,5.5-11.2,11.1-18.1,15c-6.4,3.2-12.4,7.2-18.9,10.2c-7.8,5.3-17.4,5.8-26.1,8.8c-5.8,2.2-12.7-0.5-17.8,3.7h-25.8
		c-4.1-3.9-10.3-1.4-14.9-4c-2.1-1.4-4.8-1.1-7.1-2c-3.8-2.1-8-3.2-12.1-4.7c-0.2-0.5-0.3-1.1-0.4-1.6c-5.9-0.6-10.6-4.5-15.5-7.4
		c-4.5-3-9.2-5.9-13.1-9.9c-2.4-3.9-6.4-6.3-9.5-9.5c-11-12.1-20.3-25.9-25.8-41.3c-2.7-6.1-3.9-12.7-5.9-19
		c-1.8-5.6,0.6-12.1-3.4-17v-17c4.2-5.1,1.5-12,3.7-17.7c1.6-4.6,2.1-9.4,4-13.9c3.2-8,6-16.2,10.6-23.5C30.8,40,50,22.8,72.4,12.4
		C83.9,7.7,95.8,4.1,108,2.1C109.4,1.7,110.5,0.7,111.7,0 M116.8,62.9c-0.6,5.6-0.2,11.2-0.2,16.8c-4.1,2.6-9,3.9-12.1,7.8
		c-5.2,7.1-6.1,16.5-4.3,25c1.1,4.9,4.6,8.8,8.4,11.9c5.9,4.5,13.6,5.4,20,9c3.2,1.7,5.4,4.8,6.8,8c1,5.6-2.9,10.8-7.8,13
		c-4.3,1-9.3-0.3-12-3.9c-1.6-2.1-1.6-5.2-3.6-6.8c-5.4-0.4-10.8-0.2-16.3,0c-1.7,10.2,5.7,19.9,14.6,24.1c2,1.2,4.8,1.6,6.1,3.6
		c0.4,5.2-0.3,10.5,0.3,15.8c5.4,0.5,10.9,0.4,16.4,0c0.8-5.4-0.5-11.1,0.7-16.4c3-2.1,6.7-3,9.4-5.5c4.6-3.2,6.8-8.4,8.8-13.4
		c0.6-5.9,0.4-12,0.2-17.9c-1.2-4-3.5-7.9-6.9-10.4c-7.5-6-17.6-7.1-25.4-12.6c-3.7-2.6-2.7-7.7-2.4-11.5c1.7-2.4,4.1-4.8,7.4-4.1
		c4.8-0.5,6.6,4.7,9.2,7.7c4.9,0.9,10.1,0.3,15.1,0.2c1.3-6.3-2.2-12.6-6.2-17.3c-2.5-3.3-7.2-3.9-9.5-7.4
		c-0.4-5.2,0.4-10.5-0.4-15.7C127.7,62.4,122.3,62.4,116.8,62.9z"/>
</g>
</svg>
