<?xml version="1.0" encoding="utf-8"?>
<!-- Generator: Adobe Illustrator 26.0.3, SVG Export Plug-In . SVG Version: 6.00 Build 0)  -->
<svg version="1.1" id="Layer_1" xmlns="http://www.w3.org/2000/svg" xmlns:xlink="http://www.w3.org/1999/xlink" x="0px" y="0px"
	 viewBox="0 0 250 235" style="enable-background:new 0 0 250 235;" xml:space="preserve">
<style type="text/css">
	.st0{fill:#FFFFFF;}
	.st1{fill:#F94E51;}
	.st2{fill:#F74B5F;}
	.st3{fill:#FB523E;}
	.st4{fill:#F5496D;}
	.st5{fill:#FC5335;}
	.st6{fill:#E6C9D6;}
	.st7{fill:#F74C5F;}
	.st8{fill:#FA5045;}
	.st9{fill:#FD5628;}
	.st10{fill:#F4467B;}
	.st11{fill:#F84D58;}
	.st12{fill:#F94F4A;}
	.st13{fill:#FB523C;}
	.st14{fill:#F6496C;}
	.st15{fill:#F34487;}
	.st16{fill:#FE581C;}
	.st17{fill:#FC5334;}
	.st18{fill:#F64A68;}
	.st19{fill:#FB523D;}
	.st20{fill:#F5496F;}
	.st21{fill:#F74C5E;}
	.st22{fill:#FA5047;}
</style>
<g id="_x23_ffffffff">
	<path class="st0" d="M145.9,17.8c1.1-0.8,2.2,0.4,3.2,0.7c4.4,2.7,8.9,5.3,13.4,7.9c0,5.9,0,11.8,0,17.6c2.2,1.2,4.3,2.4,6.5,3.7
		c2.9,1.7,5.7,3.3,8.7,4.9c0.1,5.9,0.1,11.7,0,17.6c3.1,1.9,6.2,3.7,9.4,5.5c2.3,1.7,6.6,2.6,6.1,6.3c0,22.8-0.1,45.5,0,68.3
		c-2.3,1.4-4.7,2.9-7,4.3c-1.9,1.1-4,2.3-6.3,2c3.7-2.7,7.8-4.7,11.6-7.1c-0.1-5.5-0.1-11.1-0.1-16.6c-4.8-2.8-9.7-5.5-14.4-8.4
		c-4.8,2.8-9.6,5.6-14.5,8.4c0,5.5,0,11-0.1,16.5c5,3,10.2,5.9,15.2,8.8c0,6.2,0,12.4,0,18.6c-2.6,1.5-5.1,3.1-7.7,4.5
		c-1.7,0.9-3.4,1.6-5.2,2.2c3-3.6,7.5-5.2,11.5-7.6c0-5.6,0.1-11.2,0-16.8c-4.9-2.5-9.3-5.8-14.4-7.9c-2.2,0.7-4.2,2.1-6.2,3.2
		c-1.9,1.2-4,2.1-6.2,2.4c3.5-3.1,7.8-5,11.7-7.5c-0.1-5.5,0-11,0-16.4c-4.8-2.8-9.7-5.5-14.4-8.4c-4.8,2.7-9.6,5.5-14.4,8.2
		c-0.1,5.6-0.1,11.3,0,16.9c5,2.8,10,5.8,15,8.6c0.1,5.9,0.1,11.7,0,17.6c2.7,1.6,5.5,3.2,8.3,4.8c2.3,1.3,4.6,2.7,6.9,4
		c0,6.2,0,12.4,0,18.6c-2.9,1.6-5.6,3.4-8.5,5c-1.4,0.6-2.9,1.2-4.3,1.7c3-3.7,7.7-5.2,11.5-7.8c0-5.5,0-10.9,0-16.4
		c-4.8-2.9-9.7-5.5-14.4-8.5c-4.9,2.6-9.7,5.5-14.5,8.2c-0.1,5.6-0.1,11.3,0,16.9c5.1,3.2,10.9,5.3,15.2,9.6c-3.6-0.9-6.8-3-10-4.8
		c-2.3-1.4-4.6-2.7-6.9-4c0-58.9,0.1-117.7,0-176.6C135.6,23.6,140.6,20.4,145.9,17.8 M132.4,27.4c-0.5,5.5-0.1,11.1-0.2,16.6
		c5,2.9,10.1,5.8,15.1,8.8c0,5.9,0,11.7,0,17.6c3.2,1.8,6.4,3.8,9.7,5.5c1.7,1.2,3.6,2.2,5.5,3.3c0,5.9-0.1,11.8,0.1,17.7
		c2.8,1.5,5.5,3,8.2,4.6c2.3,1.3,4.5,2.6,6.9,3.9c0.2,5.9,0,11.8,0.1,17.7c4.6,2.6,9.1,5.3,13.7,7.9c0-10.8,0.1-21.6,0-32.4
		c-3.7,1.9-7,4.9-11.3,5.5c3.1-3.3,7.5-4.9,11.3-7.2c0.1-5.6,0.1-11.3,0-16.9c-4.7-2.4-9-5.5-13.8-7.7c-2.5-0.2-4.6,2-6.8,3.1
		c-1.9,1-3.8,2.7-6.1,2c3.7-2.7,7.8-4.7,11.6-7.1c0-5.5,0-11,0-16.5c-4.8-2.9-9.7-5.6-14.4-8.4c-1.6,0.9-3.2,1.8-4.8,2.8
		c-2.2,1.3-4.5,2.6-6.8,3.7c0.1-0.4,0.2-1.2,0.3-1.7c3.3-2.4,7.1-4.1,10.6-6.2c0-5.4-0.1-10.9,0.1-16.3c-4.7-2.9-9.4-5.8-14.3-8.3
		C141.8,21.2,137.2,24.6,132.4,27.4 M132.3,46c-0.1,10.7-0.1,21.4,0,32.1c4.6-2.4,8.9-5.1,13.4-7.6c0.1-5.7,0.1-11.3,0-17
		C141.2,51.1,136.8,48.4,132.3,46 M132.4,80.2c-0.4,5.5-0.1,11.1-0.1,16.6c4.9,2.9,10,5.5,14.8,8.7c0.7,5.8,0,11.8,0.3,17.7
		c2.6,1.4,5.2,2.9,7.8,4.4c2.3,1.3,4.5,2.6,6.8,4c4.7-2.9,9.6-5.6,14.4-8.4c0-5.5,0-11,0.1-16.5c-4.8-2.8-9.5-5.8-14.4-8.3
		c-2.2,0.8-4.2,2.1-6.2,3.4c-1.9,1.1-3.8,2.1-6,2.3c3.3-3.3,7.8-4.8,11.6-7.5c-0.2-5.5,0-10.9-0.1-16.4c-4.8-2.4-9.3-5.7-14.2-7.9
		C141.8,73.9,137.1,77.3,132.4,80.2 M132.3,98.7c0,10.8-0.2,21.5,0.1,32.3c4.4-2.6,8.8-5.2,13.3-7.7c0-5.6,0.4-11.3-0.1-16.9
		C141.3,103.6,136.7,101.2,132.3,98.7 M132.2,151.4c0.1,10.8-0.2,21.6,0.1,32.4c4.4-2.7,8.8-5.2,13.3-7.8c0.1-5.6,0.1-11.3,0-16.9
		C141.2,156.6,136.8,153.9,132.2,151.4z"/>
</g>
<g id="_x23_f94e51ff">
	<path class="st1" d="M110,1.4c13.3-0.6,26.8-1.3,39.8,1.9c0.2,5.1,0.2,10.2-0.7,15.2c-1-0.3-2.1-1.5-3.2-0.7
		c-5.2,2.6-10.2,5.8-15.3,8.8c0.1,58.9,0,117.7,0,176.6c2.3,1.3,4.6,2.7,6.9,4c-0.6,1.5-0.8,3.1-0.7,4.7c0.2,4.9,0.2,9.8,0.3,14.7
		c1.7,0.3,3.3,0.7,5,1c-9.6,1.7-19.3,1.7-29,0.9c-1-0.9-2-1.8-3.1-2.7c0-5.8,0-11.5-0.3-17.3c2.9-1.8,6-3.2,8.7-5.2
		c0.2-1.1,0.4-2.1,0.4-3.2c-0.1-57.9,0-115.8-0.1-173.7c-3.2-1.9-6.5-3.8-9.8-5.7C110.8,14.4,110,7.8,110,1.4z"/>
</g>
<g id="_x23_f74b5fff">
	<path class="st2" d="M87.8,6.6c7.2-2.4,14.7-4.2,22.2-5.2c0,6.4,0.8,12.9-1,19.2c-2.2-1.2-4.2-2.7-6.6-3.3
		c-4.5,1.9-8.5,4.9-12.8,7.2c-0.8-1-1.6-2.1-1.6-3.4C87.7,16.2,88,11.4,87.8,6.6z"/>
</g>
<g id="_x23_fb523eff">
	<path class="st3" d="M149.8,3.3c7.1,1.6,14.1,3.9,20.8,6.8c-1.8,12.4,0.9,25.2-1.5,37.5c-2.2-1.2-4.3-2.5-6.5-3.7
		c-0.1-5.9,0-11.8,0-17.6c-4.5-2.6-9-5.2-13.4-7.9C150,13.5,150,8.4,149.8,3.3z"/>
</g>
<g id="_x23_f5496dff">
	<path class="st4" d="M58.6,21.5c9-6.3,18.8-11.4,29.2-14.9C88,11.4,87.7,16.2,88,21c-0.1,1.4,0.8,2.4,1.6,3.4c-1,0.6-2,1.1-3,1.7
		c-0.4,5.8,0.3,11.6-0.3,17.3C82,47.4,76.1,49,71.6,52.7c-0.9,5.8-0.1,11.7-0.3,17.5c-4.1,2.5-8.3,4.8-12.5,7.2
		C59.3,66.9,58.9,56.5,59,46C58.9,37.8,59.2,29.7,58.6,21.5z"/>
</g>
<g id="_x23_fc5335ff">
	<path class="st5" d="M169.1,47.7c2.4-12.3-0.2-25.1,1.5-37.5c6.2,2.8,12.2,6.1,17.9,9.9l0,0.2c-0.9,10.9-0.2,21.8-0.4,32.7
		c-0.3,7.6,0.9,15.2-1,22.7c-3.2-1.7-6.3-3.6-9.4-5.5c0-5.9,0.1-11.7,0-17.6C174.8,51,171.9,49.4,169.1,47.7z"/>
	<path class="st5" d="M162.6,132.9c4.9-2.8,9.7-5.6,14.5-8.4c4.8,2.8,9.6,5.6,14.4,8.4c0,5.5,0,11.1,0.1,16.6
		c-3.9,2.4-8,4.4-11.6,7.1c2.3,0.2,4.4-0.9,6.3-2c2.7,3.6,1.9,8.3,1.9,12.5c-0.1,11.7,0.1,23.3-0.1,35c-0.1,2.4,0.3,4.8,1.7,6.7
		c-5.7,3.9-11.7,7.5-18.1,10.1c-1.7-12.4,0.9-25.1-1.5-37.5c2.6-1.5,5.1-3.1,7.7-4.5c0-6.2,0-12.4,0-18.6
		c-5.1-2.9-10.2-5.8-15.2-8.8C162.6,143.9,162.5,138.4,162.6,132.9z"/>
</g>
<g id="_x23_e6c9d6ff">
	<path class="st6" d="M102.4,17.3c2.4,0.6,4.5,2.1,6.6,3.3c3.2,1.9,6.5,3.8,9.8,5.7c0.1,57.9,0,115.8,0.1,173.7
		c0,1.1-0.1,2.2-0.4,3.2c-2.7,2.1-5.8,3.5-8.7,5.2c-2.5,1.5-5.1,2.9-7.8,4.1c0.4-2.6,2.9-3.6,4.9-4.8c3.4-1.9,6.8-3.8,10.1-5.8
		c0-5.4,0-10.8,0-16.2c-4.7-2.8-9.5-5.5-14.2-8.3c-4.9,2.6-9.6,5.5-14.4,8.1c-0.2,5.4-0.1,10.9-0.2,16.3c3.7,2.8,9.1,3.8,11.2,8.3
		c-2.7-1-5.2-2.4-7.7-3.8c-1.8-1-3.6-2.1-5.3-3.2c0-6.2,0.1-12.3,0-18.5c1.2-0.7,2.3-1.5,3.5-2.1c3.9-2.3,7.9-4.5,11.8-6.8
		c0-5.9,0-11.7,0.1-17.6c5.1-2.9,10.1-5.9,15.2-8.6c0.2-5.5,0.1-11,0.1-16.4c-4-2.3-7.9-4.7-12-7c-1.1-0.5-2.3-1.4-3.4-0.6
		c-4.6,2.2-8.8,5.1-13.3,7.6c0,5.5,0,10.9,0.1,16.4c3.9,2.4,8.6,3.9,11.4,7.8c-3.7-0.8-6.8-2.8-9.9-4.8c-1-0.4-2.1-1.4-3.3-0.8
		c-4.6,2.2-8.9,5.2-13.4,7.6c0,5.5,0,10.9,0,16.4c3.7,2.6,8.9,3.7,11,8.1c-3-1.2-5.8-2.7-8.6-4.4c-1.5-0.9-2.9-1.7-4.3-2.6
		c0-6.2,0-12.5,0-18.7c5-3,10.1-5.8,15.1-8.9c-0.2-5.4,0.6-10.9-0.3-16.3c-4.4-3-9.1-5.9-14.1-7.9c-4.9,2.1-9.3,5.3-14,7.9
		c0,5.6,0,11.1,0.1,16.6c3.7,2.5,8.9,3.6,10.9,7.9c-2.1-0.9-4.2-1.9-6.3-3c-2.3-1.4-4.9-2.4-6.6-4.5c-0.5-3.3-0.2-6.7-0.2-10
		c0-19.4,0-38.8,0-58.2c-0.4-2.2,1-3.6,2.8-4.6c4.2-2.4,8.4-4.7,12.5-7.2c0.2-5.8-0.5-11.7,0.3-17.5c4.5-3.6,10.4-5.3,14.7-9.2
		c0.6-5.8-0.1-11.6,0.3-17.3c1-0.6,2-1.1,3-1.7C93.9,22.2,97.8,19.2,102.4,17.3 M88.3,27.4c-0.1,5.5-0.1,10.9-0.1,16.4
		c3.8,2.6,8.6,3.9,11.4,7.7c-5.2-0.1-8.5-5.5-13.7-5.4c-4.2,2.8-8.7,5.1-12.9,7.8c0.1,5.5-0.1,11,0.1,16.5c3.7,2.5,8.8,3.6,11.1,7.7
		c-4.6-0.7-7.9-4.4-12.2-5.8c-4.8,2.3-9.3,5.3-14,7.9c0,5.6-0.1,11.1,0,16.7c3.7,2.1,7.4,4.2,11,6.4c-0.3,0.3-1,0.9-1.4,1.1
		c-3.5-1.3-6.5-3.5-9.7-5.3c0,10.5,0,21.1,0,31.6c4.4-2.6,8.8-5.1,13.1-7.6c0.1-5.9,0-11.7,0.1-17.6c5-3,10.2-5.8,15.2-8.9
		c0-5.8-0.1-11.6,0-17.5c0.5-0.3,1.6-0.8,2.1-1.1l-0.1-0.5c4.5-2,8.7-4.8,13-7.2c0.1-5.8,0.1-11.7,0-17.5c5-3.1,10.2-6,15.4-9
		c0-5.5,0.1-11-0.1-16.4c-4.7-2.6-9.4-5.3-14-8.1C97.9,21.8,93.2,24.8,88.3,27.4 M103.5,53.8c-0.1,5.5-0.1,10.9,0,16.4
		c4.5,2.6,8.9,5.1,13.4,7.8c0-10.6,0-21.2,0-31.9C112.5,48.7,108,51.3,103.5,53.8 M88.3,80.3c0,5.4-0.1,10.9,0,16.4
		c3.8,2.5,8.6,3.8,11.4,7.6c-4.2-0.2-7.4-3.5-11.1-5.1l0.1-0.6c-3.9,0.5-6.8,3.2-10.2,4.9c-1.7,1.1-4,1.8-5.2,3.5
		c-0.4,5.3,0,10.7-0.1,16c4.2,2.5,8.6,4.7,12.5,7.6c3,0.8,5.4-1.7,7.9-2.9c2.6-1.7,5.8-2.7,7.9-5c0.5-5.8-0.2-11.6,0.3-17.4
		c5.1-2.7,10-5.8,15.1-8.5c0.2-5.5,0.1-11,0-16.5c-4.8-2.6-9.3-5.6-14.1-8C97.6,74.3,93.2,77.7,88.3,80.3 M103.5,106.6
		c0,5.4,0,10.8-0.1,16.2c4.4,2.8,9,5.3,13.5,7.9c0-10.6,0-21.2,0-31.8C112.4,101.4,107.9,104,103.5,106.6 M103.4,159.4
		c0,5.4,0,10.8,0,16.2c4.5,2.6,8.9,5.2,13.4,7.8c0.1-10.6,0.1-21.2,0-31.8C112.4,154.2,107.9,156.9,103.4,159.4z"/>
</g>
<g id="_x23_f74c5fff">
	<path class="st7" d="M88.3,27.4c4.9-2.6,9.5-5.6,14.5-8.2c4.6,2.8,9.3,5.5,14,8.1c0.2,5.5,0.1,10.9,0.1,16.4
		c-5.1,3-10.3,5.8-15.4,9c0,5.8,0.1,11.7,0,17.5c-4.3,2.4-8.5,5.2-13,7.2C87.3,69,88.2,60.5,88,52c0.1-2.2-1.1-4-2-5.9
		c5.2-0.2,8.5,5.3,13.7,5.4c-2.8-3.8-7.6-5.1-11.4-7.7C88.3,38.3,88.2,32.9,88.3,27.4z"/>
	<path class="st7" d="M88.3,80.3c4.9-2.6,9.4-6,14.5-8c4.9,2.4,9.4,5.4,14.1,8c0.1,5.5,0.1,11,0,16.5c-5.1,2.8-10,5.8-15.1,8.5
		c-0.5,5.8,0.2,11.6-0.3,17.4c-2.1,2.3-5.3,3.3-7.9,5c-2.5,1.3-4.9,3.7-7.9,2.9c0.8-0.9,1.6-1.8,2.3-2.7c0.4-9.6-0.6-19.2,0.6-28.7
		c3.7,1.6,6.8,4.8,11.1,5.1c-2.8-3.8-7.6-5.1-11.4-7.6C88.2,91.2,88.2,85.7,88.3,80.3z"/>
	<path class="st7" d="M101.5,125.5c1.2-0.8,2.4,0.1,3.4,0.6c4.1,2.2,8,4.7,12,7c0,5.5,0.1,11-0.1,16.4c-5.1,2.8-10.1,5.8-15.2,8.6
		c-0.1,5.9-0.1,11.7-0.1,17.6c-3.9,2.4-7.8,4.5-11.8,6.8c0.2-10,0.4-20.1,0-30.1c3.1,2,6.3,4,9.9,4.8c-2.8-3.8-7.5-5.4-11.4-7.8
		c-0.1-5.4-0.1-10.9-0.1-16.4C92.7,130.6,96.9,127.7,101.5,125.5z"/>
</g>
<g id="_x23_fa5045ff">
	<path class="st8" d="M132.4,27.4c4.7-2.8,9.4-6.1,14.5-8c4.9,2.5,9.6,5.4,14.3,8.3c-0.1,5.4,0,10.9-0.1,16.3
		c-3.5,2.2-7.3,3.8-10.6,6.2c-0.1,0.4-0.2,1.2-0.3,1.7c2.3-1.2,4.6-2.5,6.8-3.7c1.4,9.1,1.3,18.6-0.1,27.7c-3.3-1.7-6.5-3.6-9.7-5.5
		c0-5.9,0-11.7,0-17.6c-5-3-10.1-5.9-15.1-8.8C132.4,38.5,132,32.9,132.4,27.4z"/>
	<path class="st8" d="M132.4,80.2c4.7-2.8,9.4-6.2,14.5-8c5,2.2,9.4,5.5,14.2,7.9c0.1,5.5,0,10.9,0.1,16.4
		c-3.7,2.7-8.3,4.2-11.6,7.5c2.2-0.2,4.2-1.2,6-2.3c0.1,8.6,1,17.3-0.6,25.9c-2.6-1.5-5.2-2.9-7.8-4.4c-0.3-5.9,0.4-11.9-0.3-17.7
		c-4.8-3.2-9.9-5.8-14.8-8.7C132.3,91.2,132,85.7,132.4,80.2z"/>
	<path class="st8" d="M132.3,132.7c4.9-2.7,9.6-5.5,14.4-8.2c4.8,2.9,9.6,5.6,14.4,8.4c0,5.5,0,11,0,16.4c-3.9,2.4-8.2,4.4-11.7,7.5
		c2.2-0.3,4.3-1.1,6.2-2.4c0.5,8.7,0.4,17.4-0.1,26.2c-2.8-1.6-5.6-3.2-8.3-4.8c0-5.9,0.1-11.8,0-17.6c-5.1-2.8-10-5.8-15-8.6
		C132.2,144,132.2,138.4,132.3,132.7z"/>
</g>
<g id="_x23_fd5628ff">
	<path class="st9" d="M188.1,53c0.2-10.9-0.5-21.8,0.4-32.7c14.8,9.6,26.9,23.2,35.6,38.5l0,0.2c-0.6,2-1.1,4-1.2,6.1
		c0.1,29.7,0,59.3,0,89c0,5.7-0.6,11.6,1,17.2c-8.3,14.9-20.3,27.8-34.2,37.6c-1.4-2-1.8-4.4-1.7-6.7c0.2-11.7,0-23.3,0.1-35
		c-0.1-4.2,0.8-8.8-1.9-12.5c2.4-1.4,4.7-2.8,7-4.3c-0.1-22.8,0-45.5,0-68.3c0.6-3.7-3.7-4.6-6.1-6.3C189,68.2,187.8,60.5,188.1,53z
		"/>
</g>
<g id="_x23_f4467bff">
	<path class="st10" d="M25.8,57.5C34,43.3,45.3,31,58.6,21.5c0.6,8.1,0.3,16.3,0.3,24.5c0,10.4,0.3,20.9-0.2,31.3
		c-1.8,0.9-3.2,2.4-2.8,4.6c-0.1,19.4,0,38.8,0,58.2c0,3.3-0.2,6.7,0.2,10c1.7,2.1,4.3,3.1,6.6,4.5c-1.6,0.9-1.8,2.7-1.8,4.4
		c-0.2,16.8,0.3,33.7-0.2,50.6c-14.4-9.7-26.3-22.8-35.2-37.7l0-0.5c0.4-3.4,0.6-6.9,0.6-10.3c-0.2-26,0-52-0.1-77.9
		C26,74.5,26.3,66,25.8,57.5z"/>
</g>
<g id="_x23_f84d58ff">
	<path class="st11" d="M103.5,53.8c4.5-2.5,8.9-5.1,13.4-7.7c0,10.6,0,21.2,0,31.9c-4.5-2.6-8.9-5.2-13.4-7.8
		C103.4,64.8,103.4,59.3,103.5,53.8z"/>
	<path class="st11" d="M103.5,106.6c4.5-2.6,8.9-5.2,13.4-7.7c0.1,10.6,0,21.2,0,31.8c-4.5-2.6-9.1-5.1-13.5-7.9
		C103.5,117.4,103.4,112,103.5,106.6z"/>
	<path class="st11" d="M103.4,159.4c4.5-2.6,8.9-5.2,13.4-7.7c0.1,10.6,0.1,21.2,0,31.8c-4.5-2.6-9-5.2-13.4-7.8
		C103.4,170.2,103.4,164.8,103.4,159.4z"/>
</g>
<g id="_x23_f94f4aff">
	<path class="st12" d="M132.3,46c4.5,2.4,8.9,5.1,13.4,7.6c0.1,5.7,0.1,11.3,0,17c-4.5,2.4-8.9,5.2-13.4,7.6
		C132.2,67.4,132.2,56.7,132.3,46z"/>
	<path class="st12" d="M132.3,98.7c4.4,2.6,9,4.9,13.3,7.7c0.5,5.6,0.1,11.3,0.1,16.9c-4.5,2.5-8.9,5-13.3,7.7
		C132.1,120.2,132.3,109.4,132.3,98.7z"/>
	<path class="st12" d="M132.2,151.4c4.5,2.5,8.9,5.2,13.4,7.7c0.1,5.6,0.1,11.3,0,16.9c-4.5,2.5-8.9,5.1-13.3,7.8
		C132.1,173,132.3,162.2,132.2,151.4z"/>
</g>
<g id="_x23_fb523cff">
	<path class="st13" d="M157.2,48.1c1.6-0.9,3.2-1.9,4.8-2.8c4.8,2.9,9.7,5.6,14.4,8.4c0,5.5,0,11,0,16.5c-3.8,2.4-7.9,4.4-11.6,7.1
		c2.3,0.8,4.2-1,6.1-2c0.1,8.7,0.3,17.4-0.1,26.1c-2.7-1.6-5.4-3.1-8.2-4.6c-0.2-5.9-0.1-11.8-0.1-17.7c-1.8-1.1-3.7-2.1-5.5-3.3
		C158.5,66.7,158.5,57.3,157.2,48.1z"/>
</g>
<g id="_x23_f6496cff">
	<path class="st14" d="M73.1,53.9c4.3-2.7,8.8-4.9,12.9-7.8c0.9,1.8,2.1,3.7,2,5.9c0.2,8.5-0.7,17,0.5,25.5l0.1,0.5
		c-0.5,0.3-1.6,0.8-2.1,1.1c-0.1,5.8,0,11.7,0,17.5c-5,3.1-10.1,5.8-15.2,8.9c-0.1,5.8,0,11.7-0.1,17.6c-4.4,2.6-8.8,5.1-13.1,7.6
		c0-10.5,0-21,0-31.6c3.2,1.8,6.3,4,9.7,5.3c0.3-0.3,1-0.9,1.4-1.1c-3.6-2.2-7.3-4.3-11-6.4c-0.1-5.6-0.1-11.1,0-16.7
		c4.7-2.6,9.2-5.6,14-7.9c4.3,1.5,7.6,5.1,12.2,5.8c-2.2-4.1-7.4-5.1-11.1-7.7C73,64.9,73.2,59.4,73.1,53.9z"/>
</g>
<g id="_x23_f34487ff">
	<path class="st15" d="M25.6,171.3C5.2,137,5.7,91.8,25.8,57.5c0.5,8.5,0.2,17,0.3,25.5c0.1,26-0.1,52,0.1,77.9
		C26.2,164.4,26,167.9,25.6,171.3z"/>
</g>
<g id="_x23_fe581cff">
	<path class="st16" d="M222.9,65c0.1-2.1,0.6-4.1,1.2-6.1c19.7,34,19.5,78.3-0.2,112.2c-1.6-5.6-1-11.5-1-17.2
		C222.9,124.3,223,94.6,222.9,65z"/>
</g>
<g id="_x23_fc5334ff">
	<path class="st17" d="M170.9,75.3c2.2-1.1,4.2-3.2,6.8-3.1c4.8,2.2,9.1,5.3,13.8,7.7c0.1,5.6,0.1,11.3,0,16.9
		c-3.8,2.3-8.2,3.9-11.3,7.2c4.3-0.6,7.6-3.6,11.3-5.5c0.2,10.8,0.1,21.6,0,32.4c-4.6-2.6-9.1-5.3-13.7-7.9
		c-0.1-5.9,0.1-11.8-0.1-17.7c-2.3-1.3-4.6-2.6-6.9-3.9C171.2,92.8,171.1,84.1,170.9,75.3z"/>
</g>
<g id="_x23_f64a68ff">
	<path class="st18" d="M78.4,103.5c3.4-1.7,6.4-4.5,10.2-4.9l-0.1,0.6c-1.2,9.5-0.2,19.1-0.6,28.7c-0.8,0.9-1.6,1.8-2.3,2.7
		c-4-2.9-8.4-5-12.5-7.6c0.1-5.3-0.3-10.7,0.1-16C74.5,105.3,76.7,104.6,78.4,103.5z"/>
	<path class="st18" d="M86.6,151.7c1.1-0.7,2.2,0.4,3.3,0.8c0.3,10,0.2,20.1,0,30.1c-1.2,0.7-2.3,1.4-3.5,2.1
		c0.1,6.2,0.1,12.3,0,18.5c1.8,1.1,3.5,2.2,5.3,3.2c-1,0.9-1.8,2.1-1.7,3.5c-0.2,4.5,0.1,9-0.3,13.5l0,0.4
		c-5.2-1.9-10.3-3.9-15.2-6.2c-0.9-9.8-0.2-19.7-0.5-29.5c0.2-2.9-0.6-6.2,1.6-8.5c2.8,1.6,5.6,3.2,8.6,4.4c-2.1-4.4-7.3-5.5-11-8.1
		c0-5.5,0-10.9,0-16.4C77.7,156.9,81.9,153.9,86.6,151.7z"/>
</g>
<g id="_x23_fb523dff">
	<path class="st19" d="M155.8,101.7c2-1.3,4-2.6,6.2-3.4c4.9,2.5,9.7,5.5,14.4,8.3c-0.1,5.5,0,11-0.1,16.5
		c-4.8,2.7-9.7,5.5-14.4,8.4c-2.3-1.3-4.5-2.6-6.8-4C156.8,119,155.9,110.3,155.8,101.7z"/>
	<path class="st19" d="M155.8,154.5c2-1.2,3.9-2.6,6.2-3.2c5.1,2.1,9.5,5.5,14.4,7.9c0.1,5.6,0,11.2,0,16.8c-3.9,2.4-8.5,4-11.5,7.6
		c1.8-0.6,3.5-1.3,5.2-2.2c2.4,12.4-0.2,25,1.5,37.5l0,0.2c-5.3,2.2-10.6,4.3-16.1,5.7c-0.5-5.5-0.1-11.1-1.4-16.5
		c2.9-1.6,5.6-3.3,8.5-5c0-6.2,0-12.4,0-18.6c-2.3-1.3-4.6-2.7-6.9-4C156.2,171.9,156.2,163.2,155.8,154.5z"/>
</g>
<g id="_x23_f5496fff">
	<path class="st20" d="M58,133c4.7-2.6,9-5.7,14-7.9c5,2,9.6,4.9,14.1,7.9c1,5.4,0.1,10.9,0.3,16.3c-5,3-10.1,5.9-15.1,8.9
		c-0.1,6.2-0.1,12.5,0,18.7c1.4,0.9,2.9,1.8,4.3,2.6c-2.2,2.3-1.4,5.6-1.6,8.5c0.3,9.8-0.4,19.7,0.5,29.5c-4.7-2.4-9.3-5.1-13.8-8
		c0.6-16.9,0-33.7,0.2-50.6c0-1.7,0.2-3.5,1.8-4.4c2,1.1,4.1,2.1,6.3,3c-2-4.4-7.2-5.4-10.9-7.9C58,144.1,58,138.5,58,133z"/>
</g>
<g id="_x23_f74c5eff">
	<path class="st21" d="M88.4,185.7c4.8-2.7,9.5-5.5,14.4-8.1c4.7,2.8,9.5,5.5,14.2,8.3c-0.1,5.4,0,10.8,0,16.2
		c-3.3,2-6.7,3.9-10.1,5.8c-2,1.2-4.4,2.2-4.9,4.8c2.7-1.2,5.2-2.6,7.8-4.1c0.4,5.8,0.3,11.5,0.3,17.3c1,0.9,2,1.8,3.1,2.7
		c-7.9-1-15.9-2.2-23.4-5.1c0.4-4.5,0.1-9,0.3-13.5c-0.1-1.4,0.7-2.6,1.7-3.5c2.5,1.4,5,2.8,7.7,3.8c-2.1-4.5-7.6-5.5-11.2-8.3
		C88.3,196.5,88.2,191.1,88.4,185.7z"/>
</g>
<g id="_x23_fa5047ff">
	<path class="st22" d="M132.3,185.5c4.9-2.7,9.6-5.6,14.5-8.2c4.7,2.9,9.6,5.6,14.4,8.5c0,5.5,0,10.9,0,16.4
		c-3.9,2.5-8.6,4-11.5,7.8c1.5-0.5,2.9-1.1,4.3-1.7c1.3,5.4,0.9,11,1.4,16.5l0,0.2c-4.4,0.9-8.8,2.3-13.4,2.7c-1.7-0.3-3.3-0.6-5-1
		c-0.1-4.9-0.1-9.8-0.3-14.7c-0.1-1.6,0.1-3.2,0.7-4.7c3.2,1.8,6.3,3.9,10,4.8c-4.2-4.3-10.1-6.4-15.2-9.6
		C132.2,196.8,132.2,191.1,132.3,185.5z"/>
</g>
</svg>
