<?xml version="1.0" encoding="utf-8"?>
<!-- Generator: Adobe Illustrator 26.0.3, SVG Export Plug-In . SVG Version: 6.00 Build 0)  -->
<svg version="1.1" id="Layer_1" xmlns="http://www.w3.org/2000/svg" xmlns:xlink="http://www.w3.org/1999/xlink" x="0px" y="0px"
	 viewBox="0 0 245 250" style="enable-background:new 0 0 245 250;" xml:space="preserve">
<style type="text/css">
	.st0{fill:#262F38;}
	.st1{fill:#D9103A;}
</style>
<g id="_x23_262f38ff">
	<path class="st0" d="M109.4,12.6c14.1-1.5,28.5-0.8,42.3,2.4c27,6.5,51.4,23.1,67.2,45.9c10.4,14.8,17,32,19.5,49.8
		c3.1,20.8,0.1,42.3-8,61.6c-9.5,22.3-26.1,41.6-47.2,53.8c-31.7,19.1-72.6,21.2-106.5,6.7c-23.3-10.1-43.2-28.1-55.2-50.5
		C2.8,148.6,2.9,105,22,71.1C39.4,39,73.1,16.5,109.4,12.6 M115.1,30.1c-4,2.9-8,6.2-10.4,10.6c-2.7,5-5.6,10.4-5.4,16.3
		c-0.1,13.7-0.1,27.3,0,41c3.1,0.7,6.2,0.8,9.3,0.7c1-5.8,0.5-11.7,0.6-17.6c0-6.7,0-13.4,0-20c-0.2-8.4,4-16.8,10.8-21.8
		c2.5-2,6-1.5,8.4,0.4c5.4,4.1,8.4,10.5,9.9,16.9c0.9,4.8,6.9,2.6,10.3,2.6c0.3-6.3-2.5-12.1-5.1-17.6c-2.5-5-6.6-8.9-11.3-11.8
		C127.3,26.2,119.9,26.3,115.1,30.1 M112.6,62.6c-1.4,2.8-1,6.1-0.5,9.1c11,0.2,22,0.2,33,0.1c5,0,10.2,0.3,14.9,2.2
		c6.1,2.3,11,7.1,14.6,12.4c2.6,3.5,2,8.2,4.2,11.8c3,1.3,6.4,0.6,9.5,0.5c0.4-20.1-18.5-37.3-38.2-37.2c-10.7,0-21.4,0.1-32.1,0
		C116.1,61.6,114.1,61.4,112.6,62.6 M71,73c-6.2,5.8-10,13.9-11.4,22.1c-0.4,13.9-0.2,27.9-0.2,41.8c3,1,7.2,2.8,9.7,0
		c0.8-7.6,0.1-15.2,0.3-22.8c0.3-9.1-1.6-18.9,3.5-27c4.2-9,13.9-13.8,23.4-14.8c0.2-3.3,0.2-6.6,0.2-9.9C86.9,61.5,77.8,66.4,71,73
		 M138.6,74.5c-0.2,21.1,0.1,42.2-0.1,63.3c3.4,0.6,6.8,0.6,10.2,0.1c-0.1-21.1,0.2-42.2-0.3-63.3C145.1,74.4,141.9,74.4,138.6,74.5
		 M72.7,101.8c-1,3.1-0.2,6.3,0,9.5c18.1,0.4,36.2,0,54.3,0.2c2.9-0.1,6.3,0.4,8.6-1.8c1.8-2.2,0.6-5.5,0.9-8.1
		c-19.2-0.4-38.3,0-57.5-0.2C76.9,101.4,74.7,101.2,72.7,101.8 M151.9,103.2c-0.6,2.2-0.6,4.5,0,6.7c0.7,1.6,2.7,1.3,4.1,1.5
		c11,0.1,22.1-0.2,33.1-0.1c8.2-0.2,16.5,3.6,21.9,9.8c2.7,2.9,2.5,7.7-0.3,10.5c-4.9,5.3-12,8.1-19.1,9.1c-0.2,3.3-0.3,6.6-0.1,9.9
		c11.4,0.8,21.5-6.3,28.5-14.6c5.1-5.1,5.1-14.1,0.4-19.4c-6.8-8.5-17-15.8-28.3-15.2c-11.7,0-23.4,0-35.1-0.1
		C155.2,101.6,152.5,100.9,151.9,103.2 M25.1,121c-2.6,6.8,1,14.2,5.9,18.9c7.1,6.3,16.2,11.2,26,10.8c11,0,22,0,33.1,0
		c1.7-0.2,3.5,0.1,5-0.8c2-2.3,1.2-5.6,1.3-8.4c-12.4-0.6-24.9,0-37.3-0.3c-7.2-0.4-14.2-3.1-19.7-7.7c-2-1.7-4.3-3.8-4.1-6.7
		c-0.7-5.2,4.3-8.3,7.9-10.9c3.8-3,8.8-3.3,13.3-4.7c0.7-3.1,0.4-6.4,0.3-9.6C43.6,101.2,30.9,109.4,25.1,121 M178.5,114.2
		c0.1,10.9-0.1,21.9,0.1,32.8c0.1,4.3-0.2,8.7-1.5,12.9c-2.6,9.6-10.8,17.4-20.5,19.4c-1.6,0.5-3.5,0.6-4.7,1.8
		c-0.8,2.9-0.2,5.9,0.1,8.9c15.6,0.1,29.4-11.1,34.7-25.3c2.8-6.5,2-13.7,2.1-20.6c-0.2-9.8,0.2-19.6-0.3-29.4
		C185.2,113.5,181.8,113.3,178.5,114.2 M99.3,114.2c0.1,6.9-0.4,13.9-0.4,20.8c0.8,12.7,0.2,25.4,0.4,38c0.2,1.5-0.1,3.4,1.5,4.3
		c2.7,0.6,5.4,0.3,8.1,0.4c0.9-8.2,0.3-16.5,0.5-24.7c-0.3-12.9,0.5-25.9-0.4-38.8C105.7,113.8,102.5,113.8,99.3,114.2 M112.6,141.6
		c-1.4,2.9-1.1,6.1-0.6,9.1c16.7,0.2,33.4,0,50,0.1c4.5,0,9,0,13.5-0.3c0.3-3.3,0.3-6.6,0-9.9c-19.2-0.1-38.4,0-57.6-0.1
		C116.1,140.6,114.1,140.3,112.6,141.6 M59.6,153.7c0.3,9.7,4.5,19.4,11.9,25.8c4.3,4.1,9.4,7.6,15.3,8.9c9.8,3.1,20.2,1.6,30.2,1.9
		c5.6-0.2,11.3,0.7,16.7-0.6c4.1-1.2,2.6-6.1,2.7-9.2c-12.2-0.4-24.3,0-36.5-0.2c-7.4-0.5-15.2-2.3-20.8-7.5
		c-5.8-4.8-8.5-12.2-10-19.4C66,153.4,62.8,153.5,59.6,153.7 M138.5,154.2c0.3,12.3,0.1,24.5,0.1,36.8c0.2,7.3-2.4,14.8-7.6,20
		c-2.6,2-6.2,4.5-9.5,2.7c-6.4-3.5-10-10.4-11.7-17.3c-0.5-5-7.2-4.5-10.3-2.4c0.1,12.4,7.7,24.1,18.6,29.9
		c4.6,2.1,10.1,1.3,14.3-1.4c5.9-3.7,10.1-9.6,13.4-15.7c3.9-7.3,2.5-15.9,2.8-23.8c-0.2-9.3,0.4-18.6-0.3-27.9
		C145.8,152.3,141.6,153.8,138.5,154.2z"/>
</g>
<g id="_x23_d9103aff">
	<path class="st1" d="M115.1,30.1c4.9-3.7,12.2-3.9,17.2-0.4c4.7,2.9,8.9,6.8,11.3,11.8c2.7,5.5,5.4,11.3,5.1,17.6
		c-3.4,0-9.4,2.2-10.3-2.6c-1.6-6.4-4.6-12.8-9.9-16.9c-2.4-1.9-5.9-2.3-8.4-0.4c-6.8,5-11.1,13.4-10.8,21.8c0,6.7,0,13.4,0,20
		c0,5.9,0.5,11.8-0.6,17.6c-3.1,0.2-6.3,0-9.3-0.7c-0.2-13.7-0.1-27.3,0-41c-0.2-5.9,2.7-11.2,5.4-16.3
		C107.1,36.2,111,33,115.1,30.1z"/>
	<path class="st1" d="M112.6,62.6c1.5-1.2,3.6-0.9,5.4-1c10.7,0.1,21.4,0,32.1,0c19.7-0.1,38.6,17.1,38.2,37.2
		c-3.1,0.1-6.5,0.8-9.5-0.5c-2.2-3.6-1.6-8.3-4.2-11.8c-3.6-5.3-8.5-10.1-14.6-12.4c-4.7-1.9-9.9-2.3-14.9-2.2
		c-11,0.1-22,0.2-33-0.1C111.6,68.6,111.1,65.4,112.6,62.6z"/>
	<path class="st1" d="M71,73c6.8-6.6,16-11.5,25.7-10.7c-0.1,3.3-0.1,6.6-0.2,9.9c-9.5,1-19.2,5.8-23.4,14.8c-5.1,8.1-3.2,18-3.5,27
		c-0.2,7.6,0.5,15.2-0.3,22.8c-2.6,2.8-6.7,1-9.7,0c0-13.9-0.2-27.9,0.2-41.8C61,86.8,64.8,78.7,71,73z"/>
	<path class="st1" d="M138.6,74.5c3.3-0.1,6.5-0.1,9.8,0.1c0.5,21.1,0.1,42.2,0.3,63.3c-3.4,0.5-6.8,0.5-10.2-0.1
		C138.7,116.7,138.4,95.6,138.6,74.5z"/>
	<path class="st1" d="M72.7,101.8c2-0.6,4.2-0.4,6.3-0.4c19.2,0.2,38.3-0.2,57.5,0.2c-0.2,2.7,0.9,5.9-0.9,8.1
		c-2.2,2.2-5.7,1.7-8.6,1.8c-18.1-0.2-36.2,0.2-54.3-0.2C72.5,108.1,71.7,104.8,72.7,101.8z"/>
	<path class="st1" d="M151.9,103.2c0.6-2.3,3.3-1.6,5.1-1.8c11.7,0.1,23.4,0.1,35.1,0.1c11.4-0.5,21.5,6.7,28.3,15.2
		c4.7,5.3,4.7,14.3-0.4,19.4c-7,8.4-17.1,15.4-28.5,14.6c-0.2-3.3-0.2-6.6,0.1-9.9c7.1-1,14.1-3.8,19.1-9.1c2.8-2.7,3-7.6,0.3-10.5
		c-5.4-6.2-13.6-10-21.9-9.8c-11-0.1-22,0.1-33.1,0.1c-1.4-0.2-3.5,0-4.1-1.5C151.3,107.7,151.2,105.3,151.9,103.2z"/>
	<path class="st1" d="M25.1,121c5.8-11.6,18.5-19.8,31.6-19.2c0,3.2,0.3,6.4-0.3,9.6c-4.5,1.4-9.5,1.7-13.3,4.7
		c-3.6,2.7-8.5,5.8-7.9,10.9c-0.1,2.9,2.2,4.9,4.1,6.7c5.5,4.6,12.5,7.4,19.7,7.7c12.4,0.3,24.9-0.4,37.3,0.3
		c-0.1,2.8,0.7,6.1-1.3,8.4c-1.5,0.9-3.3,0.6-5,0.8c-11,0-22.1,0-33.1,0c-9.7,0.3-18.8-4.5-26-10.8C26.1,135.2,22.5,127.8,25.1,121z
		"/>
	<path class="st1" d="M178.5,114.2c3.3-0.9,6.7-0.7,9.9,0.4c0.4,9.8,0.1,19.6,0.3,29.4c-0.1,6.9,0.7,14.1-2.1,20.6
		c-5.3,14.2-19.1,25.5-34.7,25.3c-0.2-2.9-0.8-5.9-0.1-8.9c1.3-1.2,3.1-1.3,4.7-1.8c9.7-2.1,17.9-9.9,20.5-19.4
		c1.3-4.2,1.5-8.6,1.5-12.9C178.4,136,178.6,125.1,178.5,114.2z"/>
	<path class="st1" d="M99.3,114.2c3.2-0.4,6.4-0.4,9.6,0c1,12.9,0.1,25.9,0.4,38.8c-0.2,8.2,0.5,16.5-0.5,24.7
		c-2.7,0-5.5,0.2-8.1-0.4c-1.6-0.8-1.3-2.8-1.5-4.3c-0.2-12.7,0.4-25.4-0.4-38C98.9,128.1,99.4,121.1,99.3,114.2z"/>
	<path class="st1" d="M112.6,141.6c1.5-1.2,3.6-0.9,5.4-1c19.2,0.1,38.4,0,57.6,0.1c0.3,3.3,0.3,6.6,0,9.9c-4.5,0.3-9,0.4-13.5,0.3
		c-16.7-0.1-33.4,0.1-50-0.1C111.5,147.6,111.2,144.4,112.6,141.6z"/>
	<path class="st1" d="M59.6,153.7c3.2-0.2,6.4-0.3,9.6-0.2c1.5,7.2,4.1,14.5,10,19.4c5.6,5.2,13.4,7,20.8,7.5
		c12.2,0.2,24.3-0.2,36.5,0.2c-0.2,3.2,1.3,8-2.7,9.2c-5.5,1.3-11.2,0.3-16.7,0.6c-10.1-0.3-20.4,1.1-30.2-1.9
		c-5.9-1.4-11-4.8-15.3-8.9C64.1,173.2,59.9,163.4,59.6,153.7z"/>
	<path class="st1" d="M138.5,154.2c3.2-0.4,7.3-1.9,9.8,0.9c0.7,9.3,0.1,18.6,0.3,27.9c-0.3,7.9,1.2,16.5-2.8,23.8
		c-3.3,6-7.4,12-13.4,15.7c-4.2,2.7-9.7,3.5-14.3,1.4c-10.9-5.8-18.5-17.5-18.6-29.9c3.1-2.2,9.8-2.6,10.3,2.4
		c1.7,6.9,5.3,13.8,11.7,17.3c3.3,1.8,6.9-0.7,9.5-2.7c5.2-5.2,7.8-12.7,7.6-20C138.5,178.7,138.7,166.4,138.5,154.2z"/>
</g>
</svg>
