<svg id="Layer_1" data-name="Layer 1" xmlns="http://www.w3.org/2000/svg" viewBox="0 0 250 250"><defs><style>.cls-1{fill:#272d63;}.cls-2{fill:#fefefe;}</style></defs><circle class="cls-1" cx="125" cy="125" r="125"/><path class="cls-2" d="M157.93,56.25l-5.47,22.2c16.91,5.91,29.35,14.77,26.92,31.17-.7,5-2.42,10-6,13.75-3,3.26-7.79,5-11.84,6.32a50.59,50.59,0,0,1-15.08,2.65c-3.44,0-6.78-.11-10.22-.41a115.79,115.79,0,0,1-16.69-2.14c-1.72-.41-3.35-.71-4.86-1.13l-7.39,29.85L103,174.8l-5.47,22.32-13.46-3.36,5.57-22.52c-3.14-.81-6.38-1.72-9.61-2.54L62.5,164.32l6.68-15.39s9.92,2.66,9.81,2.45c3.85.92,5.47-1.63,6.17-3.25l7.6-30.57,3.54-14.15,4-16.3c.2-2.85-.81-6.52-6.28-7.84.2-.11-9.81-2.45-9.81-2.45L87.8,62.36l18.51,4.69c2.85.7,5.67,1.32,8.61,2l5.47-22.2,13.45,3.35L128.48,72c3.54.82,7.19,1.63,10.73,2.55l5.26-21.7Zm-1.11,80.47a58.58,58.58,0,0,0,11.53-3.47c.1-.1.31-.1.41-.2,7,6.21,10.32,16.29,5.76,29.23-7.18,21-24.48,22.71-47.36,18.34l-5.56,22.5-13.36-3.35,5.16-21.5.2-.71,4.06-16.51c11.93,2.66,28,4.39,31.06-8,1.62-6.62-1.52-11.41-6.58-14.87l5.27-.31a71.85,71.85,0,0,0,9.41-1.12Zm-3.95-27.31c3.95-16-20.55-19.45-28.13-21.48L118.05,115C125.65,117,149.12,124.7,152.87,109.41Z"/></svg>