<?xml version="1.0" encoding="utf-8"?>
<!-- Generator: Adobe Illustrator 26.0.3, SVG Export Plug-In . SVG Version: 6.00 Build 0)  -->
<svg version="1.1" id="Layer_1" xmlns="http://www.w3.org/2000/svg" xmlns:xlink="http://www.w3.org/1999/xlink" x="0px" y="0px"
	 viewBox="0 0 250 191" style="enable-background:new 0 0 250 191;" xml:space="preserve">
<style type="text/css">
	.st0{fill:#53D9C0;}
	.st1{fill:#5EF0B3;}
	.st2{fill:#44C5CF;}
	.st3{fill:#4DDBC4;}
	.st4{fill:#FFB7C9;}
	.st5{fill:#FA7E9C;}
	.st6{fill:#FB6B8D;}
	.st7{fill:#BD546C;}
	.st8{fill:#FA819E;}
	.st9{fill:#B5EED2;}
	.st10{fill:#C1CFC7;}
	.st11{fill:#F96789;}
	.st12{fill:#BD5870;}
	.st13{fill:#FE678A;}
	.st14{fill:#FF9AB3;}
	.st15{fill:#FB5B80;}
	.st16{fill:#836671;}
	.st17{fill:#795A65;}
	.st18{fill:#4D4755;}
	.st19{fill:#4D4654;}
	.st20{fill:#866ECE;}
	.st21{fill:#8B97AB;}
	.st22{fill:#A48EDB;}
	.st23{fill:#8855D8;}
	.st24{fill:#E3B8C3;}
	.st25{fill:#EECDD5;}
	.st26{fill:#EAA9B8;}
	.st27{fill:#EF527A;}
	.st28{fill:#E1A4B3;}
	.st29{fill:#8C707A;}
	.st30{fill:#886A75;}
	.st31{fill:#7D3449;}
	.st32{fill:#846973;}
	.st33{fill:#7E626D;}
	.st34{fill:#734ACB;}
	.st35{fill:#E19EAE;}
	.st36{fill:#7E3549;}
	.st37{fill:#E1B5C0;}
	.st38{fill:#945AE1;}
	.st39{fill:#4830A5;}
	.st40{fill:#B2E9D7;}
	.st41{fill:#BFCEC9;}
	.st42{fill:#B59CD9;}
	.st43{fill:#4B33A7;}
	.st44{fill:#BEA4E0;}
	.st45{fill:#B09CD1;}
	.st46{fill:#795A66;}
	.st47{fill:#B59CD8;}
	.st48{fill:#C0AAE1;}
	.st49{fill:#4D4655;}
	.st50{fill:#565081;}
	.st51{fill:#B093D8;}
	.st52{fill:#6A6290;}
	.st53{fill:#5B5384;}
	.st54{fill:#8D5BA5;}
	.st55{fill:#C8ACB4;}
	.st56{fill:#5F5887;}
	.st57{fill:#605A88;}
	.st58{fill:#E3A9B8;}
	.st59{fill:#DBB7C0;}
	.st60{fill:#615989;}
	.st61{fill:#BE6E82;}
	.st62{fill:#876B75;}
	.st63{fill:#4A4654;}
	.st64{fill:#7D606B;}
	.st65{fill:#BDABDC;}
	.st66{fill:#689A55;}
	.st67{fill:#81646F;}
	.st68{fill:#FA96AF;}
	.st69{fill:#973A53;}
	.st70{fill:#80646F;}
	.st71{fill:#B9A8D7;}
	.st72{fill:#669953;}
	.st73{fill:#84364B;}
	.st74{fill:#ADCAA6;}
	.st75{fill:#82354A;}
	.st76{fill:#246634;}
	.st77{fill:#ADC9A6;}
	.st78{fill:#2A6E37;}
	.st79{fill:#6C48BA;}
	.st80{fill:#E6E9EA;}
	.st81{fill:#F09DB3;}
	.st82{fill:#AC9BCD;}
	.st83{fill:#D8DEE0;}
	.st84{fill:#B8A0DE;}
	.st85{fill:#B5A3D8;}
	.st86{fill:#AD9BCD;}
	.st87{fill:#A993D0;}
	.st88{fill:#AA95CF;}
	.st89{fill:#BF7487;}
	.st90{fill:#5D5585;}
	.st91{fill:#655D8D;}
	.st92{fill:#7F51CF;}
	.st93{fill:#625B89;}
	.st94{fill:#635C8A;}
	.st95{fill:#FD98B1;}
	.st96{fill:#5C5585;}
	.st97{fill:#C2D7BA;}
	.st98{fill:#3F7832;}
	.st99{fill:#AFE3DB;}
	.st100{fill:#BECCCB;}
	.st101{fill:#3E7731;}
	.st102{fill:#C4D8BD;}
	.st103{fill:#E0D8C6;}
	.st104{fill:#856B75;}
	.st105{fill:#795965;}
	.st106{fill:#7F636D;}
	.st107{fill:#CFC6BE;}
	.st108{fill:#9764AF;}
	.st109{fill:#8E727C;}
	.st110{fill:#91737E;}
	.st111{fill:#993B54;}
	.st112{fill:#B87C56;}
	.st113{fill:#B17655;}
	.st114{fill:#803349;}
	.st115{fill:#987587;}
	.st116{fill:#672F41;}
	.st117{fill:#A48FD1;}
	.st118{fill:#A999D0;}
	.st119{fill:#A596CB;}
	.st120{fill:#A494CB;}
	.st121{fill:#C3BADA;}
	.st122{fill:#6D49BF;}
	.st123{fill:#AB9DCC;}
	.st124{fill:#5A5384;}
	.st125{fill:#5E5687;}
	.st126{fill:#CA9464;}
	.st127{fill:#C1B0E3;}
	.st128{fill:#DABDC5;}
	.st129{fill:#F1D4DC;}
	.st130{fill:#B3A5D7;}
	.st131{fill:#BBAFDB;}
	.st132{fill:#C2E1DE;}
	.st133{fill:#B1A6D1;}
	.st134{fill:#CEC8E1;}
	.st135{fill:#AA9ECE;}
	.st136{fill:#755662;}
	.st137{fill:#B8AED4;}
	.st138{fill:#AFA5D4;}
	.st139{fill:#7E616C;}
	.st140{fill:#F96B8D;}
	.st141{fill:#F76386;}
	.st142{fill:#F76587;}
	.st143{fill:#88B7EB;}
	.st144{fill:#6BA6E8;}
	.st145{fill:#67AAE4;}
	.st146{fill:#6C9BE2;}
	.st147{fill:#6AA9E4;}
	.st148{fill:#67A0D8;}
	.st149{fill:#629ADE;}
	.st150{fill:#6FE7C0;}
	.st151{fill:#78EAC6;}
	.st152{fill:#27898F;}
	.st153{fill:#A0E5EA;}
	.st154{fill:#247F88;}
	.st155{fill:#60D8BB;}
	.st156{fill:#C3F0F0;}
	.st157{fill:#4774A2;}
	.st158{fill:#C6F2F1;}
	.st159{fill:#328697;}
	.st160{fill:#58C4B8;}
	.st161{fill:#CEF3F2;}
	.st162{fill:#71EFBF;}
	.st163{fill:#298E97;}
	.st164{fill:#9CE4E9;}
	.st165{fill:#64E1BC;}
	.st166{fill:#278A95;}
	.st167{fill:#62DDBB;}
	.st168{fill:#F9FEFD;}
	.st169{fill:#F9FEFC;}
	.st170{fill:#57579D;}
	.st171{fill:#73F0BF;}
	.st172{fill:#F5FEFA;}
	.st173{fill:#5F5CA2;}
	.st174{fill:#655EA5;}
	.st175{fill:#F6FFF9;}
	.st176{fill:#5C5C9F;}
	.st177{fill:#F8FFFB;}
	.st178{fill:#5871A5;}
	.st179{fill:#F9FFFC;}
	.st180{fill:#5B72A8;}
	.st181{fill:#71F3BD;}
	.st182{fill:#207681;}
	.st183{fill:#81FCBB;}
	.st184{fill:#868CE0;}
	.st185{fill:#7784DE;}
	.st186{fill:#217F86;}
	.st187{fill:#6155A1;}
	.st188{fill:#8876D9;}
	.st189{fill:#59559B;}
	.st190{fill:#247583;}
	.st191{fill:#55BEB1;}
	.st192{fill:#1E767D;}
	.st193{fill:#8A7EDB;}
	.st194{fill:#1F7B7F;}
	.st195{fill:#397E91;}
	.st196{fill:#5AC5B6;}
	.st197{fill:#7284C4;}
	.st198{fill:#1D747C;}
	.st199{fill:#8A7EDE;}
	.st200{fill:#5BC6B7;}
	.st201{fill:#8686D9;}
	.st202{fill:#53C0B1;}
	.st203{fill:#8D78D8;}
	.st204{fill:#C7C9F1;}
	.st205{fill:#187278;}
	.st206{fill:#38798B;}
	.st207{fill:#36A4AB;}
	.st208{fill:#37A8AB;}
	.st209{fill:#915DD1;}
	.st210{fill:#38A6AC;}
	.st211{fill:#2D9199;}
	.st212{fill:#4FB5B3;}
	.st213{fill:#228187;}
	.st214{fill:#4BB3AF;}
	.st215{fill:#8F56CF;}
	.st216{fill:#6653A1;}
	.st217{fill:#278893;}
	.st218{fill:#63429A;}
	.st219{fill:#565194;}
	.st220{fill:#2F95A4;}
	.st221{fill:#622A92;}
	.st222{fill:#A987C5;}
	.st223{fill:#D0BDDE;}
	.st224{fill:#DDD0E8;}
	.st225{fill:#CAB6DB;}
	.st226{fill:#9C74BD;}
	.st227{fill:#B796D1;}
	.st228{fill:#D5C2E4;}
	.st229{fill:#A278C4;}
</style>
<g id="_x23_53d9c0ff">
	<path class="st0" d="M106,30.9c3.6-7.9,14.2-14,21.3-6.2c3.3,8.2,15.9,7.7,18.7,15.3c-0.5,0.1-1.6,0.2-2.1,0.2
		c-2.8-1.1-5.2-2.9-7.9-4.2C125.2,38.2,115.9,33.5,106,30.9z"/>
</g>
<g id="_x23_5ef0b3ff">
	<path class="st1" d="M101.3,45.9c0.3-5.1-5-17.2,4.8-15c9.9,2.7,19.2,7.3,30,5.2c0,9.8-1.3,19.6-2,29.4c-1.5,3.3-6.4,7.2-8.7,3.7
		c7.8,4.9,8.9-12.7,1.9-11.1c-2.1,2.9-0.7,6.9-1.9,10.3c-6.8-9.3,0.5-22.7-5.2-31.6c-0.9,6.8,1.5,14.4-1.9,20.7
		c-2-6.2,2.9-15.8-2.1-20.5c-2.3,9.9,1.1,21.2-2.8,31.3c-1-2.6,1.8-10.5-3.3-10.3c-1.9-0.4-3.3,1.3-2.6,3.1c0.2,1.7,0.5,5.2,0.7,6.9
		l-0.9,0c-8.4,0.3-2.1-12.3-4.8-17.2C102.1,49.1,101.7,47.5,101.3,45.9 M107.7,42.6c0.1,1.9,0.3,5.6,0.4,7.4c-4.6,1.3,5.9,5.2,5,0.9
		c-1.1-2.9,2.7-11.4-3-11C108.2,38.8,105.6,43.2,107.7,42.6 M127.2,40.1C125.3,44,122.1,55,131,51C130.3,47.8,133.5,38.6,127.2,40.1
		z"/>
</g>
<g id="_x23_44c5cfff">
	<path class="st2" d="M136,36.1c2.7,1.3,5.1,3,7.9,4.2c0.2,2,0.6,4,0.5,6c-4.5-4.3-3.7,5.9-0.2,6.8c-0.1,4-0.3,8-0.7,12
		c-3-2-2.3,4.6-0.4,5.8c0,3.7,0.1,7.5-0.2,11.2c-1.6,2.4-1.8,4.8-0.5,7c-0.2,4.3-0.2,8.6-0.4,12.9c-0.3,0.5-0.8,1.5-1.1,2
		c-3.6,0-7.2,0.1-10.7,0c0.8-3.8-0.9-6.5-5-6.4c-1.4-5.7,3.5-6.2,7.7-4.7c1.2-9.1,3.2-18.4,1.2-27.5C134.7,55.7,136,45.9,136,36.1
		 M138,42.9c0.2,2.9-1.5,7,2,8.3C139.8,48.2,141.5,44.1,138,42.9 M138,60.9c0.2,2.9-1.5,7,2,8.3C139.8,66.2,141.5,62.1,138,60.9
		 M138,79.9c0.2,2.9-1.5,7,2,8.3C139.8,85.2,141.5,81.1,138,79.9z"/>
</g>
<g id="_x23_4ddbc4ff">
	<path class="st3" d="M116.1,37c5,4.6,0.1,14.3,2.1,20.5c3.4-6.4,1.1-13.9,1.9-20.7c5.7,8.9-1.6,22.3,5.2,31.6l-0.1,0.9
		c2.4,3.4,7.2-0.4,8.7-3.7c2,9.1,0.1,18.4-1.2,27.5c-4.2-1.5-9.1-1-7.7,4.7c4-0.2,5.8,2.6,5,6.4c-1.8,0-5.3,0-7,0
		c0.2-3.8,1.2-12.1-6-9c-3.8,0.6-1.6,6.1-2,9c-4.3,0-8.7,0-13,0.1c0-17.8-0.4-35.6,0.3-53.3c2.7,4.9-3.6,17.5,4.8,17.2
		c-1,3.7,6.4,3.4,6.2,0.3C117.2,58.1,113.9,46.9,116.1,37 M107.7,78.6c0.1,1.9,0.3,5.6,0.4,7.4c-4.6,1.3,5.9,5.2,5,0.9
		c-1.1-2.9,2.7-11.4-3-11C108.2,74.8,105.6,79.2,107.7,78.6 M127.2,76.1c-1.9,3.9-5.1,14.9,3.8,10.9
		C130.3,83.8,133.5,74.6,127.2,76.1z"/>
</g>
<g id="_x23_ffb7c9ff">
	<path class="st4" d="M70.1,41.9c2.4-1.5,10.1-5.1,11.8-1.8c-0.5,0-1.4-0.1-1.9-0.1c-1.3-0.1-2.6-0.1-3.9,0
		c-1.9-0.2-0.6,2.6-1.1,3.8C73.6,42.6,71.9,41.8,70.1,41.9z"/>
</g>
<g id="_x23_fa7e9cff">
	<path class="st5" d="M153.3,41.3c2-2.8,8-3.4,9.4-1.5c-0.2,9.7-2.9,20.1,0.9,29.5c0.3-1.4,1-4.2,1.4-5.6l0,1c0,2,0,4.1,0,6.1
		c-0.2,0.3-0.7,1-1,1.3c7.5,3,4.5-4.6,5.4-8.2c4.1-0.3-0.1-6.5,2.5-8.2c0.1,3.2,0.3,6.4,0.5,9.5c-0.3,5.3-0.5,10.6-1.1,15.9
		c1.1-6.8-2.1-11-1.3-1.2c-1.1-2.4-4.9-4.8-6-1.1c-0.1,2-0.1,4.1,0,6.1c-6-5.8-6.3,7.8-0.1,6.2c0.6,4.6-8.5,0-11.1,2.7
		c-2.6,1.1-6,0.5-8.1-1.6c1.6-0.4,8.2,0.6,7.4-3.3c-2-1.4-6.7,0.4-6.1-2.9c7.2,2.9,6-7.1,3.8-10.1c-5.4-1.4-3.3,5.8-3.9,9.1
		c-4.2-3.4,0-10.1-2.8-14.4c0.1-1.9,0.3-3.8,0.4-5.8c0.4-4,0.6-8,0.7-12c2.6,5-2.2,14.2,2.5,17.3c3.3,1.9,5.2,0.1,4.3-3.5
		c0-0.8,0.1-2.3,0.1-3.1l0-1c0.5,1.1,0.9,2.2,1.4,3.3C155.3,58.4,154.4,49.3,153.3,41.3 M156.1,40c-0.4,11-1.6,22.1-1.2,33.1
		c-2.9,3.1,0.1,12.8-0.8,17.9c8.4,1.1,3.2-13.6,4.9-18c0.9-8.5,0.9-17,1.7-25.5C160.7,43.8,163.8,36.4,156.1,40z"/>
</g>
<g id="_x23_fb6b8dff">
	<path class="st6" d="M75,43.8c0.5-1.1-0.8-4,1.1-3.8c-0.2,8.4-0.2,16.8,1.1,25.1c-0.1,1.2-0.1,2.5-0.2,3.7
		c-0.8,0.9-1.6,1.7-2.4,2.6c0-3.2,0.6-9.5-4.3-8.4c-2.3,2.5-0.9,6.3-1.5,9.3c-4.8-0.7,0.8-8.5-2.8-10.2l-0.8-0.5
		c0-0.4-0.1-1.3-0.1-1.7c0-0.7-0.1-2.1-0.1-2.8c0.4-4.6,0.5-9.2-1.8-13.2c-1.6-4,4.5-1.6,7-2C71.9,41.8,73.6,42.6,75,43.8
		 M69.2,49.1c-2.9,2.3,0,7.1-1.2,9.9C74.7,61.9,75.8,47.3,69.2,49.1z"/>
</g>
<g id="_x23_bd546cff">
	<path class="st7" d="M76.1,40c1.3-0.1,2.6-0.1,3.9,0c0.6,8,1.1,16,1.2,24c-1.3,0.4-2.7,0.8-4,1.1C75.9,56.8,75.9,48.4,76.1,40z"/>
</g>
<g id="_x23_fa819eff">
	<path class="st8" d="M79.9,40c0.5,0,1.4,0.1,1.9,0.1c3.3,1.6,10.8-1,12.2,1.8c-2.9,3.3-9.1,4.7-12.3,1.1c0.3,7.3,1,14.8,3.3,21.8
		c2.1-4,10-0.9,7-7.9c0.2-11.9,2.8,3.7,1.7,7.9C93.2,69.5,93,74.3,93,79c-3.8-6.7-7.7,0.7-6,5.9c-4.5-4.4-3.1,2.4-2.8,5.9
		c10.7-0.9,2.3,2.3-0.5,3c-2.3,0.4-4.9,0.2-6.8,1.7c-2.5-0.5-7.4,1.1-6.9-2.3c9.6,3,5.1-7.6,4.3-12.4c-2-3.2-5.7-1.8-4.2,2
		c0.2,6.6-1.9-0.3-3.1-2.8c-0.2-0.3-0.6-1-0.7-1.4c-0.2-1.8-0.4-3.6-0.5-5.4c0.1-3.7,0.3-7.4,0.2-11.1c3.6,1.7-2,9.4,2.8,10.2
		c2.5,1.4,4.5,1.1,5.8-0.9c0.8-0.8,1.6-1.7,2.4-2.6c0.4,7.4,0.8,14.8,1.3,22.1l4.8,0c-1-9,0-18.1-1.8-26.9C81.1,56,80.6,48,79.9,40
		 M87,64c0.5,2.2-0.8,7.5,2.8,6.8C91.9,68.8,91.1,62.4,87,64z"/>
</g>
<g id="_x23_b5eed2ff">
	<path class="st9" d="M107.7,42.6c-2.1,0.5,0.6-3.9,2.3-2.7c5.7-0.4,1.9,8.1,3,11c0.9,4.3-9.6,0.4-5-0.9
		C114.6,52.5,113.8,38.3,107.7,42.6z"/>
</g>
<g id="_x23_c1cfc7ff">
	<path class="st10" d="M127.2,40.1c6.3-1.5,3.1,7.7,3.8,10.9C122.1,55,125.3,44,127.2,40.1 M127.1,42c0.2,3.1-2.2,9.6,2.9,8
		C129.7,46.8,132.1,40.4,127.1,42z"/>
</g>
<g id="_x23_f96789ff">
	<path class="st11" d="M143.9,40.2c0.5-0.1,1.6-0.2,2.1-0.2c2.5-0.3,4.9,0.7,7.3,1.3c1.1,8,2,17.1-0.8,24.8
		c-0.4-1.1-0.9-2.2-1.4-3.3c-4.2-3.3-4.8,4.3-4.5,7.6c-4.7-3.2,0.1-12.4-2.5-17.3c0.1-1.7,0.2-5.1,0.2-6.8
		C144.6,44.2,144.2,42.2,143.9,40.2 M148.2,48.8c-0.1,1.8-0.2,5.4-0.2,7.3c-0.3,0.2-0.8,0.8-1.1,1c7.1,3.6,4.7-2.5,4.8-5.4
		c0-0.5,0.1-1.4,0.2-1.9C152.9,47.7,148.4,46.9,148.2,48.8z"/>
</g>
<g id="_x23_bd5870ff">
	<path class="st12" d="M156.1,40c7.6-3.6,4.6,3.8,4.5,7.4c-0.8,8.5-0.8,17-1.7,25.5c-1.5,0.5-4.4,3.5-4,0.2
		C154.6,62.1,155.7,51,156.1,40z"/>
</g>
<g id="_x23_fe678aff">
	<path class="st13" d="M163.5,69.3c-3.8-9.4-1.1-19.8-0.9-29.5l0.1,1.1c-1.3,6.1,11,6.2,10.3,1.2c3.6,2,8.9,4.9,7.8,9.7
		c-0.5,0-1.6,0-2.1,0c1.3-3.2-4.4-5.4-5.6-2.5c-0.3,5.3-0.3,10.7-0.9,16c-0.2-3.2-0.4-6.4-0.5-9.5c-2.6,1.8,1.6,8-2.5,8.2
		c-1.2-0.5-4-2.2-4.4-0.2C164.6,65.1,163.9,67.9,163.5,69.3 M165.9,49.8c-2.9,1,1.2,6.9-0.9,8.2C173.2,63.4,170.9,43,165.9,49.8z"/>
</g>
<g id="_x23_ff9ab3ff">
	<path class="st14" d="M162.8,40.9c3.5,0,6.9,0.3,10.3,1.2C173.8,47.1,161.5,47,162.8,40.9z"/>
</g>
<g id="_x23_fb5b80ff">
	<path class="st15" d="M81.7,43c3.2,3.7,9.4,2.2,12.3-1.1c2.7,0.5,4.7,2.8,7.2,3.9C101,53.3,101,60.6,101,68
		c-4.2-3.3-2.6,4.8-0.2,6.3c0,2.5-0.1,5.1-0.2,7.6c-1.7,2.6-1.7,4.6,0.1,6.2c0.2,5.4,0.2,10.7,0.4,16.1c-2,0-4.1-0.1-6.1-0.2
		c1.8-13-0.4-26.2-1.3-39.2c1.1-4.1-1.6-19.7-1.7-7.9c3,7-5,3.9-7,7.9C82.7,57.8,82,50.4,81.7,43 M86,50c0.1,0.4,0.2,1.3,0.3,1.7
		c-0.1,1.6-0.2,4.7-0.3,6.3c4.9,5.8,6.5-4.2,4.2-3.9c0-1.4-0.1-2.8-0.2-4.2C91.6,47,84.5,47,86,50 M95.1,49.9c0.4,2-1.6,7,1.9,6.1
		C97,53.8,97.7,50.8,95.1,49.9 M98,52c0,2.2-0.8,5.2,1.9,6.1C99.5,56.1,101.6,51.1,98,52 M95,64.9c-2.2,3.7,0.7,5.6,3,7.2
		C98.3,69.2,99,64.7,95,64.9 M96,79.9c-0.3,2.9-1,7.5,3,7.2C101.1,83.4,98.2,81.5,96,79.9z"/>
</g>
<g id="_x23_836671ff">
	<path class="st16" d="M107.7,42.6c6.1-4.4,7,9.9,0.4,7.4C107.9,48.2,107.8,44.5,107.7,42.6z"/>
	<path class="st16" d="M107.4,61c6.2-5.6,7.6,9.7,0.7,6.9C107.9,66.2,107.5,62.8,107.4,61z"/>
	<path class="st16" d="M107.7,78.6c6.1-4.4,7,9.9,0.4,7.4C107.9,84.2,107.8,80.5,107.7,78.6z"/>
</g>
<g id="_x23_795a65ff">
	<path class="st17" d="M127.1,42c5.1-1.6,2.7,4.8,2.9,8C124.8,51.6,127.3,45.2,127.1,42z"/>
</g>
<g id="_x23_4d4755ff">
	<path class="st18" d="M138,42.9c3.5,1.2,1.8,5.4,2,8.3C136.5,49.9,138.2,45.8,138,42.9z"/>
</g>
<g id="_x23_4d4654ff">
	<path class="st19" d="M144.2,53c-3.4-0.9-4.3-11,0.2-6.8C144.4,48,144.2,51.3,144.2,53z"/>
</g>
<g id="_x23_866eceff">
	<path class="st20" d="M53,48c0.4-5,4,2.6,1,4.2c-4.7,1.7-9.6,0.4-14.4,1.5c-1.1,0.1-2.2,0.3-3.3,0.4c-0.1-1.8-0.2-5.4-0.2-7.3
		c1.3,1.1,3.8,5.2,4.9,2.2c0.3-5,2.9,2,5.7-0.2C47.6,44.2,51.5,52.3,53,48z"/>
</g>
<g id="_x23_8b97abff">
	<path class="st21" d="M101.3,45.9c0.4,1.6,0.8,3.2,1.1,4.8c-0.7,17.8-0.3,35.6-0.3,53.3l-0.9,0.1c-0.2-5.4-0.2-10.7-0.4-16.1
		c0.9-2,0.8-4.2-0.1-6.2c0.1-2.5,0.2-5.1,0.2-7.6c0.1-2.1,0.2-4.2,0.2-6.3C101,60.6,101,53.3,101.3,45.9z"/>
</g>
<g id="_x23_a48edbff">
	<path class="st22" d="M183,51.8c0.2-1.5,0.7-4.5,0.9-6c-2,6.4,7,1.5,6.4,6.9C188.2,51,185.5,51.7,183,51.8z"/>
</g>
<g id="_x23_8855d8ff">
	<path class="st23" d="M183.9,45.8c1.2,2.9,5.9,5.1,5.3,0.2c3-1.1,0.5,4.2,3.8,2.9c1.8,0.9,3.1-4,3.9-1c-0.2,4.1,4.3,1.3,4.9-1.2
		c-3.7,9,8,8.2,10.1,14.4c-2.4-0.3-4.6-1.4-6.9-2.2c-2.3,10.9-3.4,22-5,33l-1,0.2c-0.1-0.8-0.2-2.5-0.2-3.4c0-0.7,0-2.2,0-3
		c0.9-3-2.5-1.8-3.9-0.8c-1.4,0.9-2.6,2-3.9,3.1c0.7-3.3-1.8-7-4.6-3.5c-1.2,0.8-2.3,1.6-3.5,2.5c0.7-3.6-1.1-4.8-4.5-3.9
		c-0.9-1-0.2-2.3-0.1-3.4c6.8,2.4,5.7-4.1,5.3-8.9c-4.2-1-4.1,3.5-3.9,6.4l-0.3,1l-0.9-0.1c-0.5-3.4-1-6.9-1.5-10.3
		c0.4-5.4,0.7-10.7,1.5-16.1c0.5,0,1.6,0,2.1,0c0.5,0,1.5,0,2,0c2.5-0.1,5.2-0.8,7.2,1C190.9,47.4,181.9,52.2,183.9,45.8 M181.9,65
		c0,0.5,0.1,1.5,0.1,2c-5.8,2.3,8.1,0.9,2.2-2.9c-0.1-0.7-0.2-2.1-0.2-2.8c3.7,2.2,1.9-3.2-0.8-2.2C180.5,58.7,178.6,65.9,181.9,65
		 M189.8,66.2l-0.1,1.1c-2.6,2.6,6.4,2.5,3.3-2.7l0.4-1c1.6,1.1,0.7-4.3-1.4-3.7C188.9,58.9,186.5,65.6,189.8,66.2 M198.2,61.1
		c-2.4,2.7-3.5,12.9,3.7,8.9C201.7,66.3,204.2,58.9,198.2,61.1 M188.2,78.2c2.2,4.2,4-1.4,3.9-4.2C194.9,71.5,181.7,69.9,188.2,78.2
		 M198,82c3.4,1,1.6-3.5,2-5.4l0.4-1c1.2,1.5,1-3-0.3-2.8C194.9,69.9,192.5,82.5,198,82z"/>
</g>
<g id="_x23_e3b8c3ff">
	<path class="st24" d="M86,50c-1.5-3,5.6-3,4,0C88.6,50,87.3,50,86,50z"/>
</g>
<g id="_x23_eecdd5ff">
	<path class="st25" d="M148.2,48.8c0.1-2,4.7-1.2,3.7,1C150.7,49.5,149.5,49.2,148.2,48.8z"/>
</g>
<g id="_x23_eaa9b8ff">
	<path class="st26" d="M165.9,49.8c5-6.8,7.3,13.6-0.9,8.2C167.1,56.7,163,50.8,165.9,49.8c0,3.3-1.6,8.6,3.1,7.2
		C169,54,170.5,49,165.9,49.8z"/>
</g>
<g id="_x23_ef527aff">
	<path class="st27" d="M173.2,49.3c1.3-2.9,6.9-0.7,5.6,2.5c-0.8,5.3-1.1,10.7-1.5,16.1c-0.9,12.1-2.5,24.1-3.4,36.1
		c-1.3,0-2.6,0-3.9,0c0.8-7.6,1-15.2,1.3-22.8c0.5-5.3,0.8-10.6,1.1-15.9C172.9,60,173,54.7,173.2,49.3 M174.1,50.8
		c0.1,2.5-1.2,6.1,1.9,7.3C175.8,55.6,177.1,52,174.1,50.8 M173.1,65.8c0.1,2.5-1.2,6.1,1.9,7.3C174.8,70.6,176.1,67,173.1,65.8
		 M173.3,82.3c-0.7,1.6-0.7,3.7,0,5.4C174.7,87,174.7,83,173.3,82.3z"/>
</g>
<g id="_x23_e1a4b3ff">
	<path class="st28" d="M69.2,49.1c6.6-1.8,5.4,12.8-1.2,9.9C69.2,56.2,66.3,51.4,69.2,49.1 M69.1,51c0,2.6-1.3,7.4,2.9,6
		C71.9,54.4,73.3,49.6,69.1,51z"/>
</g>
<g id="_x23_8c707aff">
	<path class="st29" d="M148.2,48.8c1.2,0.3,2.5,0.7,3.7,1c-0.1,0.5-0.2,1.4-0.2,1.9c-0.5,2.2-0.7,5.1-3.7,4.4
		C148.1,54.3,148.2,50.6,148.2,48.8z"/>
</g>
<g id="_x23_886a75ff">
	<path class="st30" d="M86,50c1.3,0,2.7,0,4,0c0.1,1.4,0.2,2.8,0.2,4.2c-0.9,4.2-4.4,0.4-3.9-2.4C86.2,51.3,86.1,50.4,86,50z"/>
</g>
<g id="_x23_7d3449ff">
	<path class="st31" d="M95.1,49.9c2.7,0.9,1.9,3.9,1.9,6.1C93.4,56.9,95.5,51.9,95.1,49.9z"/>
	<path class="st31" d="M174.1,50.8c3.1,1.2,1.8,4.8,1.9,7.3C172.9,57,174.2,53.4,174.1,50.8z"/>
</g>
<g id="_x23_846973ff">
	<path class="st32" d="M165.9,49.8C170.5,49,169,54,169,57C164.4,58.3,165.9,53.1,165.9,49.8z"/>
</g>
<g id="_x23_7e626dff">
	<path class="st33" d="M69.1,51c4.2-1.4,2.8,3.4,2.9,6C67.7,58.4,69.1,53.6,69.1,51z"/>
	<path class="st33" d="M154.2,95c6.3-2.7,6,12.1-1.4,6.2C153.8,99.3,154,97.1,154.2,95z"/>
</g>
<g id="_x23_734acbff">
	<path class="st34" d="M39.6,53.7c4.7-1.1,9.7,0.2,14.4-1.5c4,0.8,7.5,3,11,5c0,0.7,0,2.1,0.1,2.8c-7.2-5.5-6.6,3.4-6.7,9.3
		c-1.8-4,3.8-15.7-5.3-12.3C48.8,56.1,41.3,59.4,39.6,53.7z"/>
</g>
<g id="_x23_e19eaeff">
	<path class="st35" d="M86.3,51.7c-0.4,2.8,3,6.7,3.9,2.4c2.3-0.4,0.7,9.6-4.2,3.9C86.1,56.4,86.2,53.3,86.3,51.7z"/>
</g>
<g id="_x23_7e3549ff">
	<path class="st36" d="M98,52c3.6-0.9,1.5,4.1,1.9,6.1C97.3,57.2,98,54.2,98,52z"/>
</g>
<g id="_x23_e1b5c0ff">
	<path class="st37" d="M148,56.1c3.1,0.6,3.2-2.2,3.7-4.4c-0.1,3,2.3,9-4.8,5.4C147.2,56.8,147.7,56.3,148,56.1z"/>
</g>
<g id="_x23_945ae1ff">
	<path class="st38" d="M36.2,54.1c1.1-0.2,2.2-0.3,3.3-0.4c1.8,5.8,9.2,2.5,13.4,3.4c9.1-3.4,3.5,8.3,5.3,12.3
		c-0.1,2.8-0.2,5.7-0.1,8.5c0.3,1.8-0.1,2.8-1.2,3.2c3.8-3.1-2.8-13.4-3.9-7.1c0,0.5,0,1.5,0,2c-1.2-0.9-2.4-1.7-3.7-2.4
		c-1.8-1.8-4.2-1.8-6,0.1c-1.7,0.8-2.7,2.3-2.5,4.2l-0.6,0.6c-0.1-0.9-0.2-2.6-0.3-3.5c0.5-3.5-5.8-2.2-4.1,1.3
		c-1-0.7-1.9-1.3-2.9-2c-0.3-1.2-0.6-2.4-0.9-3.5c4-0.9,3-3.7-0.9-2.7C35.4,63.3,26,52.7,36.2,54.1 M43.9,61.8
		c-2.9,4.2,1.9,8.5,3.9,5.4C50.4,63.8,46.6,57,43.9,61.8 M52,64c-6.2,7.9,9.3,5.2,4.1,3.2l-0.2-0.9C60.6,59.2,49.9,57.4,52,64
		 M36,62.8c0.2,2.1,0,4.3,1,6.2c-3.3,1.5,5.6,1.9,3-2C44.7,63.4,35,57.9,36,62.8z"/>
</g>
<g id="_x23_4830a5ff">
	<path class="st39" d="M58.3,69.3c0-6-0.5-14.9,6.7-9.3c0,0.4,0.1,1.3,0.1,1.7c0,3.9,0.2,7.7,0.6,11.6c0.1,1.8,0.3,3.6,0.5,5.4
		c-0.2,4.2-0.2,8.4,0.4,12.6c0.2,1.8,0.5,3.6,0.7,5.4c-0.2,1.9-0.5,5.8-0.7,7.7c-2.7-0.3-5.4-0.4-8-1.2c1-6.5,1.4-13.1,0.1-19.5
		c-0.1-1.5-0.4-4.4-0.5-5.9C58.2,75,58.2,72.1,58.3,69.3z"/>
</g>
<g id="_x23_b2e9d7ff">
	<path class="st40" d="M107.4,61c-0.7-1.8,0.8-3.5,2.6-3.1c5.1-0.2,2.3,7.7,3.3,10.3c0.2,3.1-7.2,3.4-6.2-0.3l0.9,0
		C114.9,70.8,113.5,55.5,107.4,61z"/>
</g>
<g id="_x23_bfcec9ff">
	<path class="st41" d="M127.2,58c7-1.6,5.9,16-1.9,11.1l0.1-0.9C126.5,64.9,125.1,60.9,127.2,58 M127.1,60c0.2,3.1-2.2,9.6,2.9,8
		C129.7,64.8,132.1,58.4,127.1,60z"/>
</g>
<g id="_x23_b59cd9ff">
	<path class="st42" d="M181.9,65c-3.3,0.9-1.4-6.3,1.2-6c2.7-1,4.5,4.4,0.8,2.2C181.1,59.9,182.2,63.4,181.9,65z"/>
</g>
<g id="_x23_4b33a7ff">
	<path class="st43" d="M205.1,59c2.3,0.8,4.4,1.9,6.9,2.2c0,1.6,0,4.9,0.1,6.6c-4-1.8-5.3,2.6-0.8,3.1c-0.1,0.8-0.2,2.4-0.3,3.2
		c-3.8,0.7-5.1,4.3-0.2,4.1c-0.4,1.6-0.7,3.3-0.9,4.9c-2.3,6.8-5.3,13.7-5,21c-2,0-3.9,0.1-5.9-0.1c0.1-4,1.6-7.9,1.1-11.9
		C201.7,81,202.8,69.9,205.1,59z"/>
</g>
<g id="_x23_bea4e0ff">
	<path class="st44" d="M43.9,61.8c2.6-4.8,6.4,2,3.9,5.4C47.7,64.2,47.3,61.4,43.9,61.8z"/>
</g>
<g id="_x23_b09cd1ff">
	<path class="st45" d="M52,64c-2.1-6.6,8.7-4.8,3.9,2.3c-0.8-1.6-0.3-4.7-2.9-4.5c-1.4,4.7-0.5,7.1,3.1,5.3
		C61.3,69.2,45.7,71.9,52,64z"/>
</g>
<g id="_x23_795a66ff">
	<path class="st46" d="M127.1,60c5.1-1.6,2.7,4.8,2.9,8C124.8,69.6,127.3,63.2,127.1,60z"/>
</g>
<g id="_x23_b59cd8ff">
	<path class="st47" d="M189.8,66.2c-3.3-0.6-0.8-7.3,2.2-6.2c2.1-0.6,3,4.7,1.4,3.7C191.7,59.9,188.8,63.2,189.8,66.2z"/>
</g>
<g id="_x23_c0aae1ff">
	<path class="st48" d="M36,62.8c-1-4.9,8.7,0.5,4,4.2c2.7,4-6.3,3.6-3,2C41.3,69.5,40,61.3,36,62.8z"/>
</g>
<g id="_x23_4d4655ff">
	<path class="st49" d="M138,60.9c3.5,1.2,1.8,5.4,2,8.3C136.5,67.9,138.2,63.8,138,60.9z"/>
	<path class="st49" d="M138,79.9c3.5,1.2,1.8,5.4,2,8.3C136.5,86.9,138.2,82.8,138,79.9z"/>
</g>
<g id="_x23_565081ff">
	<path class="st50" d="M181.9,65c0.3-1.6-0.8-5.1,2-3.8c0.1,0.7,0.2,2.1,0.2,2.8c-0.1,1.5,0,3.5-2.2,2.9
		C182,66.5,181.9,65.5,181.9,65z"/>
</g>
<g id="_x23_b093d8ff">
	<path class="st51" d="M198.2,61.1c6-2.2,3.5,5.2,3.7,8.9C194.7,74,195.9,63.9,198.2,61.1 M198,63C195.8,76.8,205.8,61.5,198,63z"/>
</g>
<g id="_x23_6a6290ff">
	<path class="st52" d="M43.9,61.8c3.4-0.3,3.8,2.4,3.9,5.4C45.9,70.3,41,66,43.9,61.8z"/>
</g>
<g id="_x23_5b5384ff">
	<path class="st53" d="M53,61.9c2.6-0.2,2.1,2.8,2.9,4.5l0.2,0.9C52.4,68.9,51.5,66.6,53,61.9z"/>
</g>
<g id="_x23_8d5ba5ff">
	<path class="st54" d="M65.1,61.7l0.8,0.5c0.2,3.7-0.1,7.4-0.2,11.1C65.3,69.4,65.1,65.5,65.1,61.7z"/>
</g>
<g id="_x23_c8acb4ff">
	<path class="st55" d="M146.6,70.3c-0.3-3.3,0.3-10.9,4.5-7.6l0,1c-6.6-0.7-2.2,11.3-0.1,3.1C151.9,70.4,150,72.2,146.6,70.3z"/>
</g>
<g id="_x23_5f5887ff">
	<path class="st56" d="M189.8,66.2c-0.9-3,2-6.4,3.6-2.5l-0.4,1c-0.7,1.7-1.1,4.1-3.3,2.7L189.8,66.2z"/>
</g>
<g id="_x23_605a88ff">
	<path class="st57" d="M36,62.8c4-1.5,5.2,6.6,1,6.2C36,67.2,36.2,64.9,36,62.8z"/>
</g>
<g id="_x23_e3a9b8ff">
	<path class="st58" d="M70.2,63c4.9-1.1,4.3,5.3,4.3,8.4c-1.3,2-3.3,2.3-5.8,0.9C69.3,69.3,67.9,65.5,70.2,63 M70.1,65
		c0,2.6-1.3,7.4,2.9,6C72.9,68.4,74.3,63.6,70.1,65z"/>
</g>
<g id="_x23_dbb7c0ff">
	<path class="st59" d="M164.9,63.8c0.4-1.9,3.2-0.3,4.4,0.2c-0.9,3.7,2.2,11.3-5.4,8.2c0.2-0.3,0.7-1,1-1.3c5,2,4.7-7.5,0-6.1
		L164.9,63.8z"/>
</g>
<g id="_x23_615989ff">
	<path class="st60" d="M198,63C205.8,61.5,195.8,76.8,198,63z"/>
	<path class="st60" d="M40.3,78.3c-2.8,6-6.3-4.9-0.3-3.5C40.1,75.7,40.2,77.4,40.3,78.3z"/>
</g>
<g id="_x23_be6e82ff">
	<path class="st61" d="M77.1,65.2c1.3-0.3,2.7-0.7,4-1.1C82.9,72.9,82,82,83,91l-4.8,0c-0.5-7.4-0.9-14.7-1.3-22.1
		C77,67.6,77.1,66.4,77.1,65.2z"/>
</g>
<g id="_x23_876b75ff">
	<path class="st62" d="M87,64c4.1-1.6,4.9,4.8,2.8,6.8C86.2,71.5,87.5,66.2,87,64z"/>
</g>
<g id="_x23_4a4654ff">
	<path class="st63" d="M143,70.8c-1.8-1.2-2.5-7.7,0.4-5.8C143.3,66.9,143.1,68.8,143,70.8z"/>
</g>
<g id="_x23_7d606bff">
	<path class="st64" d="M151,66.8c-2.1,8.2-6.4-3.8,0.1-3.1C151.1,64.5,151,66,151,66.8z"/>
</g>
<g id="_x23_bdabdcff">
	<path class="st65" d="M184.1,64c5.9,3.9-7.9,5.2-2.2,2.9C184.2,67.6,184,65.6,184.1,64z"/>
</g>
<g id="_x23_689a55ff">
	<path class="st66" d="M24.8,74c-1.9-3.8-0.9-9.8,4.3-9c-0.3,0.6-0.8,1.7-1.1,2.2c-1.6,0.8-2.9,3.2-1.4,4.7c0.2,0.2,0.7,0.8,1,1
		c1.4,1.4,3.7,0.8,5.5,1.2c1,0.7,1.9,1.3,2.9,2V77C35,77.4,34,77.8,33,78.1c-1.9-0.1-3.9-0.1-5.8-0.2c-1.2-5-3.9,1.7-3.3,4.1
		c-1.2-4.1-3.5-2.9-3.5,1.7c4.6,2.5-4,2.8-3.6,6.2c-0.7,4.1-3.3,0.4-3.1-2c-2.1,1-1.6,3.3-1.9,5.2c-3.1-0.7-0.2-6.5-3.9-4.3
		c-1.8-5.8,9.1-1.6,4.8-6.5C11.9,77.1,19.2,70.7,24.8,74 M19.4,76.4c-1.7,1.3-4.4,2.1-4.5,4.6C15.7,80.6,24.4,75,19.4,76.4z"/>
</g>
<g id="_x23_81646fff">
	<path class="st67" d="M70.1,65c4.2-1.4,2.8,3.4,2.9,6C68.7,72.4,70.1,67.6,70.1,65z"/>
</g>
<g id="_x23_fa96afff">
	<path class="st68" d="M93,79c0.1-4.8,0.2-9.5,0.8-14.2c0.9,13,3.1,26.2,1.3,39.2c-1.7,0-3.3,0-5,0c1.6-5.4-5.7-10.1-3.2,0
		c-7.2-1.4-21.9,5.2-19.6-7.3c-0.2-1.8-0.5-3.6-0.7-5.4c0.2-3.8,0.5-7.5,0.3-11.3c1.2,2.5,3.3,9.4,3.1,2.8c1.2,5.5,5.5,2.6,4.2-2
		c0.7,4.8,5.2,15.4-4.3,12.4c-0.5,3.5,4.4,1.8,6.9,2.3c1.5,3-0.9,10.8,6.1,7.5c4.8,0.8,0.8-6.6,0.7-9.2c2.7-0.7,11.1-3.9,0.5-3
		c-0.3-3.5-1.8-10.3,2.8-5.9C85.3,79.7,89.2,72.3,93,79 M88,78c0,3.1-1.8,8.5,2.9,7C91,81.9,92.7,76.5,88,78z"/>
</g>
<g id="_x23_973a53ff">
	<path class="st69" d="M95,64.9c4-0.2,3.3,4.3,3,7.2C95.8,70.5,92.8,68.6,95,64.9z"/>
</g>
<g id="_x23_80646fff">
	<path class="st70" d="M164.9,64.7c4.7-1.4,5,8.1,0,6.1C164.9,68.8,164.9,66.8,164.9,64.7z"/>
</g>
<g id="_x23_b9a8d7ff">
	<path class="st71" d="M189.7,67.3c2.2,1.4,2.6-1,3.3-2.7C196.1,69.9,187,69.9,189.7,67.3z"/>
</g>
<g id="_x23_669953ff">
	<path class="st72" d="M213.9,65c5.2-0.9,6.2,5.3,4.3,9c6.9-3.6,13.5,4.2,11.1,11c3.3-1.5,6.3,0.8,5.8,3.9c-3.7-2.2-0.9,3.6-3.9,4.3
		c0.6-2.8-2.3-7.7-2.6-2.4c-2.6,3.7-2.1-4.2-5.3-4.1c-4.8-1.2,1.6-4.2-1.5-7.6c-2.9-1.4-0.8,2.9-2.8,2.8c0.6-2.3-2.1-9.1-3.3-4
		c-1.7,0.1-3.3,0.1-5,0.2c-4.9,0.2-3.7-3.3,0.2-4.1c1.5-0.3,3.4,0.2,4.5-1.1c0.2-0.2,0.7-0.8,1-1c1.4-1.5,0.2-3.9-1.4-4.7
		C214.7,66.7,214.2,65.5,213.9,65 M221.9,75.9c1.3,2.5,4,3.7,6.2,5.1C227.9,78.1,224.3,76.7,221.9,75.9z"/>
</g>
<g id="_x23_84364bff">
	<path class="st73" d="M173.1,65.8c3.1,1.2,1.8,4.8,1.9,7.3C171.9,72,173.2,68.4,173.1,65.8z"/>
</g>
<g id="_x23_adcaa6ff">
	<path class="st74" d="M26.6,71.9c-1.5-1.5-0.2-3.9,1.4-4.7c0.2,0.2,0.7,0.6,0.9,0.8C28.2,69.4,27.4,70.6,26.6,71.9z"/>
</g>
<g id="_x23_82354aff">
	<path class="st75" d="M100.9,74.3c-2.5-1.5-4-9.6,0.2-6.3C101,70.1,101,72.2,100.9,74.3z"/>
</g>
<g id="_x23_246634ff">
	<path class="st76" d="M211.2,70.8c-4.5-0.5-3.2-4.8,0.8-3.1c0.5,0.1,1.5,0.2,2,0.3c0.8,1.3,1.6,2.5,2.4,3.8c-0.2,0.2-0.7,0.8-1,1
		C214.1,72.2,212.7,71.4,211.2,70.8z"/>
</g>
<g id="_x23_adc9a6ff">
	<path class="st77" d="M215,67.2c1.6,0.8,2.9,3.2,1.4,4.7c-0.8-1.3-1.6-2.5-2.4-3.8C214.3,67.9,214.8,67.4,215,67.2z"/>
</g>
<g id="_x23_2a6e37ff">
	<path class="st78" d="M28.9,68.1c0.5,0,1.7-0.1,2.2-0.1c3.9-1,4.9,1.8,0.9,2.7c-1.6,0.6-3,1.4-4.5,2.3c-0.2-0.2-0.7-0.8-1-1
		C27.4,70.6,28.2,69.4,28.9,68.1z"/>
</g>
<g id="_x23_6c48baff">
	<path class="st79" d="M177.4,67.9c0.4,3.4,0.9,6.9,1.5,10.3c-0.1,0.4-0.2,1.2-0.2,1.6c-0.2,1.1-0.9,2.4,0.1,3.4
		c1.1,2.7,6.9,0.7,3.3,6.4c-1.6,0.6-4.6-0.2-4,2.4c6.5,3.5,4.7-2.1,5.2-4.9c1.1-0.8,2.3-1.7,3.5-2.5c-0.2,2.8,2,11.4,1.6,0.5
		c5-0.7,2,8.4-2.4,6.2c3.5,2.9,6.4,1.4,5.4-3.3c1.2-1.1,2.5-2.2,3.9-3.1c0,3.9-3.1,11.4,4.2,7.2l1-0.2c0.5,4-0.9,7.9-1.1,11.9
		c-1.4-1.6-1.8-4.2-2.6,0c-7.5-1.2-14.9-0.5-22.6,0.2C174.9,92,176.5,80,177.4,67.9 M179.2,94.1c-3.4,2.7,2.6,0.8,1.9,3.9
		C182.7,101.3,182.7,92.2,179.2,94.1 M187.2,95.1c-3.4,2.7,2.6,0.8,1.9,3.9C190.7,102.3,190.7,93.2,187.2,95.1 M195.2,96.1
		C192,100.9,202.5,95.5,195.2,96.1z"/>
</g>
<g id="_x23_e6e9eaff">
	<path class="st80" d="M27.5,72.9c1.5-0.8,2.9-1.7,4.5-2.3c0.3,1.2,0.7,2.3,0.9,3.5C31.2,73.8,28.9,74.4,27.5,72.9z"/>
</g>
<g id="_x23_f09db3ff">
	<path class="st81" d="M143,70.8c2.8,4.4-1.4,11,2.8,14.4c0.6-3.4-1.4-10.5,3.9-9.1c2.2,3,3.5,13-3.8,10.1c-0.6,3.3,4.1,1.6,6.1,2.9
		c0.8,3.9-5.9,2.9-7.4,3.3c2,2.1,5.4,2.7,8.1,1.6c0.4,0.2,1.1,0.8,1.4,1c-0.1,2.1-0.3,4.3-1.4,6.2c-0.2,0.4-0.7,1.2-0.9,1.6
		c-2.6-0.5-2.8-3.6-3.2-5.7c-3.2,0.4-1.9,6.8-6.7,4.8c0.1-4.3,0.2-8.6,0.4-12.9c1.5-2.4,1.7-4.8,0.5-7C143.1,78.2,143,74.5,143,70.8
		 M147.1,78c0,2.6-1.3,7.4,2.9,6C149.9,81.4,151.3,76.6,147.1,78z"/>
</g>
<g id="_x23_ac9bcdff">
	<path class="st82" d="M180,77.3c-0.3-2.8-0.3-7.4,3.9-6.4c0.4,4.8,1.5,11.2-5.3,8.9c0-0.4,0.2-1.2,0.2-1.6l0.9,0.1
		c4.4,3.4,5.4-6.5,1.6-5C180.9,74.6,180.5,76,180,77.3z"/>
</g>
<g id="_x23_d8dee0ff">
	<path class="st83" d="M211.2,70.8c1.4,0.6,2.8,1.3,4.2,2.1c-1.1,1.3-3,0.7-4.5,1.1C211.1,73.2,211.2,71.6,211.2,70.8z"/>
</g>
<g id="_x23_b8a0deff">
	<path class="st84" d="M43.5,73.6c1.8-1.9,4.2-1.8,6-0.1c5.6,5-6.7,11.5-4.5,6.4c5.3,2,4.5-9.1-0.3-5.1
		C44.4,74.5,43.8,73.9,43.5,73.6z"/>
</g>
<g id="_x23_b5a3d8ff">
	<path class="st85" d="M53.1,73.9c1.1-6.3,7.7,4,3.9,7.1c-1.6-0.1-4.7,0.8-3.8-1.8C57.8,82.7,57.8,72.2,53.1,73.9z"/>
</g>
<g id="_x23_ad9bcdff">
	<path class="st86" d="M188.2,78.2c-6.5-8.2,6.6-6.7,3.9-4.2C188.8,72.3,187.8,74.3,188.2,78.2z"/>
</g>
<g id="_x23_a993d0ff">
	<path class="st87" d="M198,82c-5.5,0.5-3.1-12.2,2.1-9.2c1.3-0.3,1.5,4.2,0.3,2.8c-2.3-1.3-6.8-5.1-3.4,3.5c0.3,2.8,2.9-1.1,3-2.5
		C199.5,78.5,201.4,83,198,82z"/>
</g>
<g id="_x23_aa95cfff">
	<path class="st88" d="M35.9,76.1c-1.7-3.5,4.6-4.8,4.1-1.3c-5.9-1.4-2.5,9.4,0.3,3.5l0.6-0.6c2.1,6.5-7.4,5.4-5.1-0.7V76.1z"/>
</g>
<g id="_x23_bf7487ff">
	<path class="st89" d="M154.1,91c1-5-2-14.8,0.8-17.9c-0.4,3.3,2.5,0.4,4-0.2C157.2,77.4,162.5,92.1,154.1,91z"/>
</g>
<g id="_x23_5d5585ff">
	<path class="st90" d="M181.4,73.3c3.8-1.5,2.8,8.4-1.6,5l0.3-1C180.5,76,180.9,74.6,181.4,73.3z"/>
</g>
<g id="_x23_655d8dff">
	<path class="st91" d="M188.2,78.2c-0.4-3.8,0.5-5.8,3.9-4.2C192.2,76.7,190.5,82.3,188.2,78.2z"/>
	<path class="st91" d="M45.9,86.3c0.7-0.1,2.1-0.2,2.8-0.3c0,1.9-0.1,3.8,0.3,5.7c-0.8,0-2.3,0-3,0C46,89.9,46,88.1,45.9,86.3z"/>
</g>
<g id="_x23_7f51cfff">
	<path class="st92" d="M41,77.7c-0.1-1.9,0.9-3.3,2.5-4.2c0.3,0.3,0.9,0.9,1.2,1.2c0.2,1.7,0.2,3.4,0.3,5.1
		c-2.2,5.2,10.1-1.4,4.5-6.4c1.3,0.7,2.5,1.5,3.7,2.4c0.1,1.1,0.1,2.2,0,3.3c-0.9,2.7,2.2,1.7,3.8,1.8c1.1-0.4,1.5-1.4,1.2-3.2
		c0.1,1.5,0.4,4.5,0.5,5.9c-0.2,1.1-0.4,2.2-0.6,3.2l-0.8-0.1L57,86c-0.2-4.5-4.4-3-4.4,0.8c-2.1,1.1-2.8,3.3-3.1,5.5L49,91.7
		c-0.3-1.9-0.3-3.8-0.3-5.7c0.6-3-4.9-2.3-2.8,0.3c0,1.8,0.1,3.6,0,5.4l-0.6,0.6c-0.2-1.8-0.4-3.7-0.6-5.5c-1,1.7-1.8,3.6-2.8,5.3
		l-0.9,0l-0.1-0.9c-0.2-2.5,1.1-7.8-2.7-7.2c-2.2,2.5-0.9,6.2-1.5,9.3c-1.2-3.1-2.5-6.2-3.7-9.2c0-2,0-3.9,0-5.9
		c1-0.3,1.9-0.7,2.9-1.1C33.6,83.1,43.1,84.3,41,77.7z"/>
</g>
<g id="_x23_625b89ff">
	<path class="st93" d="M44.7,74.8c4.8-4,5.6,7.1,0.3,5.1C44.9,78.2,44.8,76.5,44.7,74.8z"/>
</g>
<g id="_x23_635c8aff">
	<path class="st94" d="M53.1,73.9c4.7-1.7,4.7,8.8,0.1,5.3c0-1.1,0-2.2,0-3.3C53.1,75.4,53.1,74.4,53.1,73.9z"/>
	<path class="st94" d="M56.8,90.9c-4.9,2.3-4.5-9.1,0.2-5l0.2,0.9C57.2,88.2,57,89.6,56.8,90.9z"/>
</g>
<g id="_x23_fd98b1ff">
	<path class="st95" d="M170,80c-0.8-9.8,2.4-5.6,1.3,1.2c-0.3,7.6-0.5,15.2-1.3,22.8c-2,0-4,0-5.9,0c3.1-8-6.2-8-3.1,0
		c-2,0-4,0.1-5.9,0.1l0-0.9c7.5,2.2,5.4-14.6-2.2-9.2c2.6-2.7,11.8,2,11.1-2.7c-6.1,1.6-5.9-12,0.1-6.2c6,2.4,6-8.5,0-6.1
		C165.1,75.2,168.9,77.7,170,80z"/>
</g>
<g id="_x23_5c5585ff">
	<path class="st96" d="M197,79.1c-3.5-8.5,1.1-4.8,3.4-3.5l-0.4,1C199.9,78,197.3,81.8,197,79.1z"/>
</g>
<g id="_x23_c2d7baff">
	<path class="st97" d="M19.4,76.4c5.1-1.4-3.6,4.2-4.5,4.6C14.9,78.4,17.6,77.6,19.4,76.4z"/>
</g>
<g id="_x23_3f7832ff">
	<path class="st98" d="M23.9,82c-0.6-2.3,2-9.1,3.3-4.1c-0.1,1.4-0.1,2.8-0.2,4.1C27,84.3,22.7,85,23.9,82z"/>
</g>
<g id="_x23_afe3dbff">
	<path class="st99" d="M107.7,78.6c-2.1,0.5,0.6-3.9,2.3-2.7c5.7-0.4,1.9,8.1,3,11c0.9,4.3-9.6,0.4-5-0.9
		C114.6,88.5,113.8,74.3,107.7,78.6z"/>
</g>
<g id="_x23_becccbff">
	<path class="st100" d="M127.2,76.1c6.3-1.5,3.1,7.7,3.8,10.9C122.1,91,125.3,79.9,127.2,76.1 M127.1,78c0.2,3.1-2.2,9.6,2.9,8
		C129.7,82.8,132.1,76.4,127.1,78z"/>
</g>
<g id="_x23_3e7731ff">
	<path class="st101" d="M215.8,77.9c1.2-5,3.8,1.7,3.3,4c1.2,3.1-3.1,2.4-3.1,0.1C216,80.7,215.9,79.3,215.8,77.9z"/>
</g>
<g id="_x23_c4d8bdff">
	<path class="st102" d="M221.9,75.9c2.5,0.8,6.1,2.1,6.2,5.1C225.8,79.6,223.2,78.4,221.9,75.9z"/>
</g>
<g id="_x23_e0d8c6ff">
	<path class="st103" d="M27.2,77.9c1.9,0.1,3.9,0.2,5.8,0.2c0,2-0.1,3.9,0,5.9c-0.9-0.9-1.5-2.9-3.1-2.5c-1.2-1.3-1.5-1.4-2.9,0.5
		C27,80.7,27.1,79.3,27.2,77.9z"/>
</g>
<g id="_x23_856b75ff">
	<path class="st104" d="M88,78c4.7-1.5,2.9,3.9,2.9,7C86.3,86.5,88,81.1,88,78z"/>
</g>
<g id="_x23_795965ff">
	<path class="st105" d="M127.1,78c5.1-1.6,2.7,4.8,2.9,8C124.8,87.6,127.3,81.2,127.1,78z"/>
</g>
<g id="_x23_7f636dff">
	<path class="st106" d="M147.1,78c4.2-1.4,2.8,3.4,2.9,6C145.7,85.4,147.1,80.6,147.1,78z"/>
</g>
<g id="_x23_cfc6beff">
	<path class="st107" d="M210.8,78.1c1.7-0.1,3.3-0.1,5-0.2c0.1,1.4,0.1,2.8,0.2,4.1c-1.1-1.6-1.7-2.1-2.9-0.6
		c-1.2,0.2-2.2,0.9-3.2,1.5C210.2,81.3,210.4,79.7,210.8,78.1z"/>
</g>
<g id="_x23_9764afff">
	<path class="st108" d="M66.2,78.7c0.2,0.3,0.6,1,0.7,1.4c0.2,3.8-0.2,7.5-0.3,11.3C66.1,87.1,66.1,82.9,66.2,78.7z"/>
</g>
<g id="_x23_8e727cff">
	<path class="st109" d="M70.1,82.8c-1.4-3.8,2.2-5.2,4.2-2C75.6,85.4,71.3,88.3,70.1,82.8z"/>
</g>
<g id="_x23_91737eff">
	<path class="st110" d="M164,78.9c6-2.4,6,8.5,0,6.1C163.9,83,163.9,81,164,78.9z"/>
</g>
<g id="_x23_993b54ff">
	<path class="st111" d="M96,79.9c2.2,1.6,5.1,3.5,3,7.2C95,87.3,95.7,82.7,96,79.9z"/>
</g>
<g id="_x23_b87c56ff">
	<path class="st112" d="M29.8,81.5c1.6-0.4,2.2,1.6,3.1,2.5c1.2,3.1,2.6,6.1,3.7,9.2l0.3,0.9c0.3,1.1,0.6,2.1,0.9,3.2L38,98
		c0,2,0,4,0,6c-1.3,0-2.6,0-4,0C35.1,96.1,33.5,88.4,29.8,81.5z"/>
</g>
<g id="_x23_b17655ff">
	<path class="st113" d="M209.9,83c1-0.6,2-1.3,3.2-1.5c-3.8,6.9-4.6,14.7-4.2,22.5c-1.3,0-2.7,0-4,0C204.7,96.7,207.6,89.8,209.9,83
		z"/>
</g>
<g id="_x23_803349ff">
	<path class="st114" d="M100.8,88.1c-1.8-1.5-1.8-3.6-0.1-6.2C101.5,83.9,101.7,86.1,100.8,88.1z"/>
</g>
<g id="_x23_987587ff">
	<path class="st115" d="M142.3,89c-1.3-2.3-1.2-4.6,0.5-7C144,84.2,143.8,86.6,142.3,89z"/>
</g>
<g id="_x23_672f41ff">
	<path class="st116" d="M173.3,82.3c1.4,0.7,1.4,4.7,0,5.4C172.6,86.1,172.6,83.9,173.3,82.3z"/>
</g>
<g id="_x23_a48fd1ff">
	<path class="st117" d="M52.6,86.7c0-3.7,4.2-5.3,4.4-0.8c-4.7-4.2-5.1,7.2-0.2,5c0.2-1.4,0.3-2.7,0.5-4.1l0.8,0.1
		C62.3,95.8,48.6,95.3,52.6,86.7z"/>
</g>
<g id="_x23_a999d0ff">
	<path class="st118" d="M178.7,83.2c3.4-0.9,5.2,0.3,4.5,3.9c-0.5,2.8,1.3,8.4-5.2,4.9c-0.6-2.6,2.4-1.8,4-2.4
		C185.6,83.9,179.8,85.9,178.7,83.2z"/>
</g>
<g id="_x23_a596cbff">
	<path class="st119" d="M186.6,84.6c2.8-3.5,5.3,0.2,4.6,3.5c1.1,4.7-1.8,6.2-5.4,3.3c4.4,2.1,7.4-7,2.4-6.2
		C188.6,96.1,186.4,87.4,186.6,84.6z"/>
</g>
<g id="_x23_a494cbff">
	<path class="st120" d="M38.2,84c3.8-0.6,2.6,4.7,2.7,7.2c-0.1-13.3-7.3,2.7,0.1,0.9l0.9,0c-0.7,2.2-3.1,1.9-5,2.1l-0.3-0.9
		C37.2,90.2,36,86.5,38.2,84z"/>
</g>
<g id="_x23_c3badaff">
	<path class="st121" d="M45.9,86.3c-2.1-2.6,3.4-3.3,2.8-0.3C48,86.1,46.6,86.2,45.9,86.3z"/>
</g>
<g id="_x23_6d49bfff">
	<path class="st122" d="M58.1,87c0.2-1.1,0.4-2.2,0.6-3.2c1.3,6.5,1,13.1-0.1,19.5c-6.9,0-13.8,0.4-20.7,0.7c0-2,0-4,0-6
		c4.1,1.3,2.4-3.8-0.2-0.7c-0.3-1.1-0.6-2.1-0.9-3.2c1.9-0.2,4.3,0.1,5-2.1c1-1.7,1.8-3.6,2.8-5.3c0.2,1.8,0.3,3.7,0.6,5.5
		c1,0,3.2,0,4.2-0.1c0.3-2.2,1-4.4,3.1-5.5C48.6,95.3,62.3,95.8,58.1,87 M55.2,95.2c-2.5,1.4,1.3,2.8,2.6,2.4
		C58.6,96.1,56.5,94.4,55.2,95.2 M46,96c-0.5,2.7,3.2,1.9,4.1,4C50.8,96.7,49.4,95.1,46,96z"/>
</g>
<g id="_x23_ab9dccff">
	<path class="st123" d="M195,85c1.4-1,4.9-2.1,3.9,0.8c-6.5-0.7-2,11.2,0,3c0.1,0.9,0.2,2.6,0.2,3.4C192,96.4,195,88.9,195,85z"/>
</g>
<g id="_x23_5a5384ff">
	<path class="st124" d="M41,92.1c-7.5,1.8-0.2-14.2-0.1-0.9L41,92.1z"/>
</g>
<g id="_x23_5e5687ff">
	<path class="st125" d="M199,88.8c-2.1,8.2-6.5-3.7,0-3C199,86.6,199,88.1,199,88.8z"/>
</g>
<g id="_x23_ca9464ff">
	<path class="st126" d="M18.9,88.9c4.8,3.3,8.1,9.4,9.1,15.1c-0.7,0-2.2,0-2.9,0C25.1,98.3,21.4,93.7,18.9,88.9z"/>
	<path class="st126" d="M215,104c1-5.8,4.2-11.7,9.1-15.1c-1.6,5.2-6.9,9.2-6.2,15.1C217.1,104,215.7,104,215,104z"/>
</g>
<g id="_x23_c1b0e3ff">
	<path class="st127" d="M45.3,92.3l0.6-0.6c0.8,0,2.3,0,3,0l0.6,0.6C48.5,92.3,46.4,92.3,45.3,92.3z"/>
</g>
<g id="_x23_dabdc5ff">
	<path class="st128" d="M76.9,95.5c1.9-1.5,4.4-1.4,6.8-1.7c0.1,2.6,4.2,10.1-0.7,9.2C76,106.4,78.4,98.6,76.9,95.5 M79,96
		c0,1.5,0,4.5,0,6C85,104.7,85.1,93.4,79,96z"/>
</g>
<g id="_x23_f1d4dcff">
	<path class="st129" d="M152.7,94c7.6-5.4,9.7,11.4,2.2,9.2c-0.8-0.1-2.3-0.3-3.1-0.4c0.2-0.4,0.7-1.2,0.9-1.6
		c7.4,5.9,7.7-8.9,1.4-6.2C153.8,94.7,153.1,94.2,152.7,94z"/>
</g>
<g id="_x23_b3a5d7ff">
	<path class="st130" d="M179.2,94.1c3.5-1.9,3.5,7.2,1.9,3.9C181.8,94.9,175.9,96.8,179.2,94.1z"/>
</g>
<g id="_x23_bbafdbff">
	<path class="st131" d="M55.2,95.2c1.4-0.8,3.4,0.9,2.6,2.4C56.5,98,52.6,96.6,55.2,95.2z"/>
</g>
<g id="_x23_c2e1deff">
	<path class="st132" d="M115.1,104c0.4-2.9-1.8-8.4,2-9c7.2-3.1,6.2,5.2,6,9l-1,0c0-1.8-0.1-5.2-0.2-7c-7.7-3.2-5.1,3-5.7,7
		L115.1,104z"/>
</g>
<g id="_x23_b1a6d1ff">
	<path class="st133" d="M187.2,95.1c3.5-1.9,3.5,7.2,1.9,3.9C189.8,95.9,183.9,97.8,187.2,95.1z"/>
</g>
<g id="_x23_cec8e1ff">
	<path class="st134" d="M37.8,97.4c2.5-3.1,4.3,1.9,0.2,0.7L37.8,97.4z"/>
</g>
<g id="_x23_aa9eceff">
	<path class="st135" d="M46,96c3.4-0.9,4.8,0.7,4.1,4C49.2,97.9,45.5,98.7,46,96z"/>
</g>
<g id="_x23_755662ff">
	<path class="st136" d="M79,96c6-2.6,5.9,8.7,0,6C79,100.5,79,97.5,79,96z"/>
</g>
<g id="_x23_b8aed4ff">
	<path class="st137" d="M195.2,96.1C202.5,95.5,192,100.9,195.2,96.1z"/>
</g>
<g id="_x23_afa5d4ff">
	<path class="st138" d="M67.4,96.7c-2.3,12.5,12.4,5.8,19.6,7.3c0.8,0,2.4,0,3.2,0c1.7,0,3.3,0,5,0c2,0.1,4.1,0.1,6.1,0.2
		c-11.4,1-23.1,1.7-34.5,0.2C66.9,102.5,67.2,98.6,67.4,96.7z"/>
</g>
<g id="_x23_7e616cff">
	<path class="st139" d="M116.2,104c0.6-4-2-10.3,5.7-7c0.1,1.8,0.1,5.2,0.2,7C120.1,104,118.1,104.1,116.2,104z"/>
</g>
<g id="_x23_f96b8dff">
	<path class="st140" d="M141.9,101.9c4.9,2,3.5-4.4,6.7-4.8c0.5,2.1,0.6,5.2,3.2,5.7c0.8,0.1,2.3,0.3,3.1,0.4l0,0.9
		c-4.7,0-9.5-0.1-14.2-0.1C141.1,103.4,141.6,102.4,141.9,101.9z"/>
</g>
<g id="_x23_f76386ff">
	<path class="st141" d="M86.9,104c-2.6-10.2,4.8-5.4,3.2,0C89.3,104,87.7,104,86.9,104z"/>
</g>
<g id="_x23_f76587ff">
	<path class="st142" d="M160.9,104c-3.1-8,6.2-8,3.1,0C163.3,104,161.7,104,160.9,104z"/>
</g>
<g id="_x23_88b7ebff">
	<path class="st143" d="M196.5,103.8c0.8-4.2,1.2-1.6,2.6,0c1.9,0.2,3.9,0.2,5.9,0.1c1.3,0,2.7,0,4,0c2,0,4,0,6,0c0.7,0,2.2,0,2.9,0
		c4-0.5,2.8,5.7,3,8.1c-0.7-0.1-2.1-0.2-2.7-0.2c-0.3-0.3-0.9-0.9-1.2-1.2c-8-3.7-17.5-6.4-26.5-4.2c-3,3.3-7.7,2.5-10.6-0.5
		c-2.6,2-16,3.5-7.6,4.2l-0.4,0.8c-6.4,0.2-13-0.7-19.3,0.6l-1,0.2c1-5.4,13.2,2.5,11.4-4.7c-6.5,1.2-15.7-3.4-20.4,2.9l-0.8,0.2
		c-5.3,0-10.5-0.3-15.8,0c-6.6,2.4-6.7,8.9-6.1,15.9H119c0-3.9-0.1-7.9-0.1-11.8c0-1.8,0-5.4,0-7.1c-6.8,0.3-14.1-1.5-20.5,1.2
		c-3.7,2.9-5.8-0.8-8.4-2.3c-2.8,1.6-5.1,4-8.1,5l-0.8-0.2l-0.3-0.8c-7.4-3.1-22.2-9.1-27.7-0.1l-0.2,0.9l-0.7,0.5
		c-1.3-0.4-2.5-0.5-3.8-0.4l-0.2-0.8c-0.7-7.1-7.5,0.7-11.4,0.9c-5.9,0-11.9,0-17.8-0.1l0.2-0.9c4,0,8,0,12,0
		c-2.6-7.7-13.8-3.9-20-3.1c-0.9-6.4,9.6-1.8,14.1-2.9c0.7,0,2.2,0,2.9,0c2,0,4,0,6,0c1.3,0,2.7,0,4,0c6.9-0.3,13.8-0.8,20.7-0.7
		c2.6,0.7,5.3,0.8,8,1.2c11.4,1.5,23.1,0.8,34.5-0.2l0.9-0.1c4.3-0.1,8.7,0,13-0.1l1.1,0c2,0,3.9,0,5.9,0l1,0c1.8,0,5.3,0,7,0
		c3.6,0.1,7.1,0,10.7,0c4.7,0.1,9.4,0.1,14.2,0.1c2,0,4,0,5.9-0.1c0.8,0,2.3,0,3.1,0c2,0,4,0,5.9,0c1.3,0,2.6,0,3.9,0
		C181.6,103.3,188.9,102.6,196.5,103.8z"/>
</g>
<g id="_x23_6ba6e8ff">
	<path class="st144" d="M11.1,106.9c6.2-0.9,17.4-4.6,20,3.1c-4,0-8,0-12,0c-4.6-1.2-2.9,4.3-3.7,7.3c0.7-4-2.8-3.6-5.4-2.4
		C9.8,112.2,10.5,109.5,11.1,106.9z"/>
</g>
<g id="_x23_67aae4ff">
	<path class="st145" d="M53,109.8c5.5-9,20.3-3,27.7,0.1c0.5,3.1-0.1,5.1-1.8,5.9c0-1.3,0-2.6,0-3.9l0-1c-4.7-2.1-14.5-1.3-20.3,0
		c-1.2,1.2-0.4,3.4-0.8,5l-1,0.1c-0.1-0.4-0.4-1.1-0.5-1.4c-0.4-1.5-0.2-3.4-2-4C54,110.5,53.3,110.1,53,109.8z"/>
</g>
<g id="_x23_6c9be2ff">
	<path class="st146" d="M81.8,111c3.1-1,5.4-3.4,8.1-5c2.6,1.5,4.7,5.2,8.4,2.3c6.5-2.8,13.7-0.9,20.5-1.2c0,1.8,0,5.4,0,7.1
		c-0.6-1.1-1.1-2.3-1.7-3.3c-0.3-0.2-0.9-0.6-1.1-0.8l-0.8,0c-1.8,0.1-4.3-0.6-5.6,1c-0.2,2.5-0.6,7.4-0.8,9.9
		c-2.9,0.1-5.8,0.3-8.8,0.2c-1.1-3.2,2.4-10.4-3-10.9l-0.8-0.1c-1.4-0.1-2.8-0.2-4.2-0.1c-5.1,2.8-0.1,14.5-2.8,20.2
		c0.3-5.7,1.5-14.1-6-10.2C82.8,117,82.3,114,81.8,111z"/>
</g>
<g id="_x23_6aa9e4ff">
	<path class="st147" d="M172.2,110.2c-8.3-0.8,5-2.2,7.6-4.2c2.9,3,7.6,3.8,10.6,0.5c9-2.3,18.5,0.4,26.5,4.2
		c-0.3,0.6-0.9,1.9-1.2,2.5c-0.4-3.6-3.4-3.9-6.7-3.2c-1,0.3-1.4,1.3-1.2,2.8c-2.4,4.6-0.8-1.6-3.6-2.2c-0.3-0.2-1-0.4-1.3-0.6
		c-8-0.2-16-0.2-24,0c-2.7,0-3.4,2-2,5.9l-0.9,0.1c1.2-6-3.3-6.1-2.1,0l-0.9,0C172.8,114.5,172.4,111.7,172.2,110.2z"/>
</g>
<g id="_x23_67a0d8ff">
	<path class="st148" d="M36.7,111c3.9-0.2,10.7-8,11.4-0.9c-2.6,3.9-1.8,8.8-2.2,13.2l-0.7-0.5c-0.5-2.6-0.6-5.5-2-7.9
		c-0.6-0.2-1.7-0.5-2.2-0.7c-1.6-0.4-3.1-1-4.3-2.2V111z"/>
</g>
<g id="_x23_629adeff">
	<path class="st149" d="M142.6,109.9c4.6-6.3,13.9-1.7,20.4-2.9c1.8,7.2-10.4-0.7-11.4,4.7c-0.5,3.5-0.7,7.1-0.9,10.6
		c-0.4-0.1-1.2-0.4-1.6-0.5c-0.4-2.5,0.8-5.9-1.6-7.4C145.8,112.7,142.4,113.2,142.6,109.9z"/>
</g>
<g id="_x23_6fe7c0ff">
	<path class="st150" d="M15.4,117.2c0.8-3-1-8.5,3.7-7.3l-0.2,0.9c-0.5,0.3-1.6,0.8-2.2,1c6.7,0.2,13.3,0.1,20,0.1
		c1.2,1.2,2.7,1.9,4.3,2.2c2.2,5.4-1.8,5.3-4.6,7.4c-1.2,1-2.2,2.3-3.2,3.6c-2.8,0-8.4-0.1-11.2-0.1c-1.5,5.5,6.2,2.2,9.4,3.2
		l-0.5,0.8l-0.8,0.1c-4.6,1-8.3,0-11.2-3.2c-6.5-2.2-1.5,9.7-5.2,8.3C13.6,128.5,14.4,122.9,15.4,117.2 M23,117
		c-2.1,5.4,11.6,5.1,11,0C31.3,117,25.8,117,23,117z"/>
</g>
<g id="_x23_78eac6ff">
	<path class="st151" d="M45.8,123.2c0.5-4.4-0.3-9.3,2.2-13.2l0.2,0.8c0.1,2.1,2.9,1.6,3.8,0.4l0.7-0.5c0.1,3.4,0.3,6.8-0.8,10.1
		C49.9,121.1,46,126.6,45.8,123.2z"/>
</g>
<g id="_x23_27898fff">
	<path class="st152" d="M53,109.8c0.3,0.2,1,0.6,1.3,0.9c0.4,10.1-0.8,20.1-1.5,30.2c-1.6,0.2-4.7,0.5-6.3,0.7
		c-0.7-0.8-1.2-1.7-1.6-2.6c-0.1-1.2-0.1-2.4-0.2-3.6c11.3,3.6,6.5-8.2,7.3-14.5c1.1-3.3,0.9-6.7,0.8-10.1L53,109.8z"/>
</g>
<g id="_x23_a0e5eaff">
	<path class="st153" d="M58.6,111c5.9-1.3,15.6-2.1,20.3,0C72.2,111,65.4,111,58.6,111z"/>
</g>
<g id="_x23_247f88ff">
	<path class="st154" d="M79,115.9c1.7-0.9,2.3-2.8,1.8-5.9l0.3,0.8c-0.3,5.3,2.7,15.1-6.9,12.3c-4.5,3.9,3.8,21.6-8.4,18.2l-0.9-0.2
		c-0.6-2-0.8-4-0.8-6.1c12,3.7,5.9-12.2,7.9-18.2C73.9,116,76.2,115.7,79,115.9z"/>
</g>
<g id="_x23_60d8bbff">
	<path class="st155" d="M89.2,130.1c2.7-5.7-2.3-17.4,2.8-20.2c-3.3,3.4,4.2,3.5,4.2,0.1l0.8,0.1c1.5,3-3.2,12.3,3,10.9
		c2.9,0.1,5.8-0.1,8.8-0.2c0.2-2.5,0.6-7.4,0.8-9.9c3.2,1.9,5.1,1.5,5.6-1l0.8,0c-0.2,8.3,0.3,16.6-0.2,24.9c-1.7,0-5.1,0-6.8,0l0-1
		c3.8-10-6.3-6.7-11.8-6.8c0.3,6.1-2,9.5-8.3,7.9c0-1.4,0.1-2.7,0.2-4.1L89.2,130.1 M111.2,126.1c-3,2.2-2.7,11.1,3.7,6.9
		C115.3,129.4,116.3,124.2,111.2,126.1z"/>
</g>
<g id="_x23_c3f0f0ff">
	<path class="st156" d="M92,109.9c1.4-0.1,2.8,0,4.2,0.1C96.2,113.4,88.7,113.4,92,109.9z"/>
</g>
<g id="_x23_4774a2ff">
	<path class="st157" d="M97,110.1c5.4,0.5,1.9,7.7,3,10.9C93.8,122.5,98.5,113.2,97,110.1z"/>
</g>
<g id="_x23_c6f2f1ff">
	<path class="st158" d="M109.6,111c1.3-1.6,3.8-0.9,5.6-1C114.7,112.6,112.8,112.9,109.6,111z"/>
</g>
<g id="_x23_328697ff">
	<path class="st159" d="M116,110c0.3,0.2,0.8,0.6,1.1,0.8c-0.9,9.9,1.4,20.3-1.4,29.9c-1.7,0.3-3.3,0.5-5,0.7
		c-2.9-0.2-1.3-3.6-1.7-5.5l0-0.9c1.7,0,5.1,0,6.8,0C116.4,126.6,115.8,118.3,116,110z"/>
</g>
<g id="_x23_58c4b8ff">
	<path class="st160" d="M120,126c-0.7-7.1-0.5-13.6,6.1-15.9c0.1,0.5,0.2,1.5,0.3,2c-0.6,3.8-8.3,0-4.2,6.9c0.2,2.5,2.5,3.1,4.6,3.6
		c0.3,2-0.7,6.3,2.4,5.1c2.7-0.2,5.4-0.4,8.1-0.6c0.5-1.2,1.5-3.7,2-5c3.3-8.5-6.6-3.9-10.6-5.3c4.7-0.5,15-4,11.7,5.3
		c6.4,2.6,6.4-3.7,5.7-7.6c-1.6-0.5-3.9-0.2-4.2-2.3c0-0.5,0.1-1.5,0.1-2l0.8-0.2c-0.2,3.3,3.1,2.8,4.9,4.6
		c-0.4,5.4-0.4,10.9-0.5,16.4c-6.1-2.1-1.8,7.7-9,4.1c-4.2-1.2-13.9,3.4-13.3-3.9c-1.5-0.2-3.1-0.2-4.7-0.2
		C120,129.3,120,127.6,120,126 M141.5,126.4c-2.2,1.9-4.6,3.7-5.6,6.6c6.8,3.2,4.6-4.3,10-3.2C145.9,127.4,147.3,122.6,141.5,126.4z
		"/>
</g>
<g id="_x23_cef3f2ff">
	<path class="st161" d="M126,110.1c5.3-0.3,10.5,0,15.8,0c0,0.5-0.1,1.5-0.1,2c-5.1,0-10.3-0.1-15.4,0
		C126.2,111.6,126.1,110.6,126,110.1z"/>
</g>
<g id="_x23_71efbfff">
	<path class="st162" d="M172.2,110.2c0.2,1.4,0.6,4.3,0.8,5.7c-5.3-1.1-9.2-0.5-6.9,5.8c1.2,7.7-0.2,8.4-2.9,3.2
		c5.3-4-8.2-1.7-3.2-8c-0.2-0.2-0.7-0.7-0.9-0.9c-4.5,0.9-8,0.5-7.4-4.3l1-0.2c5.9-0.9,14.4,2.7,19.3-0.6L172.2,110.2z"/>
</g>
<g id="_x23_298e97ff">
	<path class="st163" d="M176.9,116c-1.4-4-0.7-5.9,2-5.9c0,0.5,0,1.5,0,2c0.1,7.6-0.1,15.3,0.2,22.9c8.7,0.3,17.4,0,26.1-0.2
		l0.9,0.2c-0.3,2,0.6,4.6-1.4,6c-8.4,0.5-16.8-0.4-25.1,0.5c-3.4-1.6-0.9-6.5-1.8-9.5C177.6,126.6,177,121.3,176.9,116z"/>
</g>
<g id="_x23_9ce4e9ff">
	<path class="st164" d="M178.9,110c8-0.2,16-0.1,24,0v0.9c-7.7,0.4-15.7-1.1-23.3,0.8l-0.7,0.2C178.9,111.5,178.9,110.5,178.9,110z"
		/>
</g>
<g id="_x23_64e1bcff">
	<path class="st165" d="M203,110.1c0.3,0.2,1,0.4,1.3,0.6c0,1.7-0.1,3.4,0,5.1c-6.4,0.3-12.9,0-19.3,0.4c-2.3,8.7,10.5,1.6,12.4,6.8
		l0,0.8c-4,1.2-13.6-2.7-11.1,4.5c-2,0.2-2.6-3.4-5-2.2c-2.6,1.9-0.6,5.4,0.1,7.8c7.9,0.9,16.1-1.1,23.9,0.8
		c-8.7,0.3-17.4,0.5-26.1,0.2c-0.3-7.6-0.1-15.3-0.2-22.9l0.7-0.2c7,4.1,15.4,3.4,23.2,3.1c0-0.7,0-2.2,0.1-2.9l0-1V110.1z"/>
</g>
<g id="_x23_278a95ff">
	<path class="st166" d="M207.9,112.8c-0.2-1.6,0.2-2.5,1.2-2.8c0.5,8.2-0.1,17.8,1.8,25.2c8.5,1.6,17.5,0.4,26.2,0.8
		c-0.3,2,0.7,4.6-1.3,5.9c-8,0.3-15.9,0-23.9,0.3c-1.4-0.7-2.8-1.7-3.2-3.3c0.2-3,0.6-6-0.5-8.9c-0.1-3.1-0.2-6.2-0.3-9.2
		C207.9,118.1,207.9,115.5,207.9,112.8z"/>
</g>
<g id="_x23_62ddbbff">
	<path class="st167" d="M209,110c3.4-0.7,6.4-0.5,6.7,3.2c1.9,3.8-2.2,14.9,3.3,15.8c5.7,0.1,11.3-0.1,17,0.3
		c-5.6,2.5-17.7,2.5-24-2.6c-4.7,12.2,9.4,4.5,14.1,8.2c-5.1,0.1-10.2,0-15.4,0.3C208.9,127.8,209.6,118.2,209,110 M210.3,111.2
		C212.8,114.5,215.2,109,210.3,111.2z"/>
</g>
<g id="_x23_f9fefdff">
	<path class="st168" d="M16.7,111.9c0.5-0.3,1.6-0.8,2.2-1c5.9,0.1,11.9,0.2,17.8,0.1v1C30,112,23.3,112.1,16.7,111.9z"/>
</g>
<g id="_x23_f9fefcff">
	<path class="st169" d="M48.2,110.9c1.3-0.1,2.6,0,3.8,0.4C51.1,112.5,48.3,113,48.2,110.9z"/>
</g>
<g id="_x23_57579dff">
	<path class="st170" d="M54.3,110.7c1.8,0.6,1.6,2.5,2,4c-0.2,8.8-0.5,17.6-1.3,26.3c0.3,4-6.9,2.8-8.5,0.5c1.6-0.2,4.7-0.5,6.3-0.7
		C53.5,130.8,54.7,120.8,54.3,110.7z"/>
</g>
<g id="_x23_73f0bfff">
	<path class="st171" d="M57.9,116c0.3-1.6-0.4-3.8,0.8-5c6.7,1.3,13.6,1,20.4,1c0,1.3,0,2.6,0,3.9c-2.8-0.2-5.1,0.1-7.1,1
		c-0.7,3.7-3.8,6.3-7.2,7.4C67.4,116.9,64.3,114.7,57.9,116z"/>
</g>
<g id="_x23_f5fefaff">
	<path class="st172" d="M58.6,111c6.8,0,13.5,0,20.3,0l0,1C72.2,112,65.3,112.4,58.6,111z"/>
</g>
<g id="_x23_5f5ca2ff">
	<path class="st173" d="M81,110.8l0.8,0.2c0.5,3,0.9,6,1.3,9c1.2,5.5-4.4,3.7-8,4.2c-0.1,2.7-0.3,8-0.5,10.7c2.4,6.3-4.3,10.8-9,6.5
		c12.2,3.4,3.9-14.3,8.4-18.2C83.7,125.9,80.7,116.1,81,110.8z"/>
</g>
<g id="_x23_655ea5ff">
	<path class="st174" d="M117.2,110.8c0.6,1.1,1.2,2.2,1.7,3.3c0,3.9,0.1,7.9,0.1,11.8c0.1,6.1,2.7,20.4-8.3,15.4
		c1.7-0.2,3.4-0.3,5-0.7C118.6,131.1,116.2,120.7,117.2,110.8z"/>
</g>
<g id="_x23_f6fff9ff">
	<path class="st175" d="M152.6,111.6c6.3-1.3,12.9-0.4,19.3-0.6C166.9,114.3,158.5,110.7,152.6,111.6z"/>
</g>
<g id="_x23_5c5c9fff">
	<path class="st176" d="M174,116c-1.2-6,3.2-6,2.1,0c2.2,7-0.9,9-7,8.1c-0.1,4.7-0.1,9.4,0.1,14.1c1.4,5.3-5,4.5-8.3,3
		c5.7,1.4,7.7-0.7,6.2-6.2c0.1-4,0.1-7.9,0.1-11.9C172.6,124.6,175.8,121.5,174,116z"/>
</g>
<g id="_x23_f8fffbff">
	<path class="st177" d="M179.7,111.8c7.6-1.9,15.6-0.4,23.3-0.8l0,1C195.2,112,187.4,112.1,179.7,111.8z"/>
</g>
<g id="_x23_5871a5ff">
	<path class="st178" d="M204.2,110.7c2.8,0.6,1.2,6.8,3.6,2.2c0,2.6,0,5.2,0,7.8c-2,4.2-9.4,1.3-8,7.2c-0.7,0-2.1,0-2.9,0
		c0.1-1.4,0.3-2.8,0.3-4.2l0-0.8c6.3,3.3,8.2-2.8,6.9-7.1C204.2,114.1,204.2,112.4,204.2,110.7z"/>
</g>
<g id="_x23_f9fffcff">
	<path class="st179" d="M210.3,111.2C215.2,109,212.8,114.5,210.3,111.2z"/>
</g>
<g id="_x23_5b72a8ff">
	<path class="st180" d="M215.8,113.2c0.3-0.6,0.9-1.9,1.2-2.5c0.3,0.3,0.9,0.9,1.2,1.2c0,5.7,0.8,11.4,0.9,17.2
		C213.6,128.1,217.6,117,215.8,113.2z"/>
</g>
<g id="_x23_71f3bdff">
	<path class="st181" d="M126.3,112.1c5.1-0.1,10.3,0,15.4,0c0.2,2.2,2.6,1.8,4.2,2.3c0.7,3.9,0.7,10.2-5.7,7.6
		c3.2-9.3-7-5.8-11.7-5.3c-0.7,3.7-0.6,7.3,0.5,10.9c-3.1,1.2-2-3.1-2.4-5.1c-2.1-0.4-4.4-1.1-4.6-3.6
		C118,112.1,125.7,115.8,126.3,112.1z"/>
</g>
<g id="_x23_207681ff">
	<path class="st182" d="M150.7,122.4c0.2-3.5,0.4-7.1,0.9-10.6c-0.6,4.8,2.8,5.3,7.4,4.3c0,3.1,0.1,6.2-0.6,9.2
		C158.2,121.2,153.1,124.7,150.7,122.4z"/>
</g>
<g id="_x23_81fcbbff">
	<path class="st183" d="M179.7,111.8c7.8,0.3,15.5,0.2,23.3,0.2c0,0.7,0,2.2-0.1,2.9C195.1,115.2,186.7,115.9,179.7,111.8z"/>
</g>
<g id="_x23_868ce0ff">
	<path class="st184" d="M218.1,111.8c0.7,0.1,2.1,0.2,2.7,0.2c0.6,3.6,0.8,7.3,1.2,10.9c4.6,2.3,12.6,0.6,18.7,1
		c1.2,2.2,1.4,4.7,1.1,7.1c-0.7-2.3-2.8-2-4.7-1.8c-0.3,0-0.8-0.1-1.1-0.1c-5.7-0.5-11.3-0.2-17-0.3
		C218.9,123.3,218.1,117.6,218.1,111.8z"/>
</g>
<g id="_x23_7784deff">
	<path class="st185" d="M10,114.9c2.6-1.2,6.1-1.6,5.4,2.4c-1,5.6-1.8,11.3-1.7,17l-0.7-0.4c0.5-2.7-1.9-3.2-4-3.9
		C8,124.8,9.9,119.9,10,114.9z"/>
</g>
<g id="_x23_217f86ff">
	<path class="st186" d="M40.9,114.2c0.5,0.2,1.7,0.5,2.2,0.7c-2.4,7.6,4,21.6-6,24.2c-7.8-0.1-15.6-0.1-23.4,0
		c-0.3-1-0.4-2.1-0.6-3.2c9.7,0.5,27.2,2.8,27.8-10.6c-2.5-0.1-4.6-0.8-4.6-3.8C39.2,119.5,43.1,119.6,40.9,114.2z"/>
</g>
<g id="_x23_6155a1ff">
	<path class="st187" d="M43.2,114.9c1.4,2.4,1.5,5.2,2,7.9c0.2,4.2-0.6,8.4-0.5,12.5c0.1,1.2,0.1,2.4,0.2,3.6c-5.2-2.6-5.3,7-10.9,4
		c-5.9-1.4-13.1,3-18.3-0.5c5.8-2.8,19.8,4,21.5-3.3C47.2,136.5,40.7,122.5,43.2,114.9z"/>
</g>
<g id="_x23_8876d9ff">
	<path class="st188" d="M56.3,114.7c0.1,0.4,0.4,1.1,0.5,1.4c-0.7,4.7,2.2,8.5,7.1,8.3c0.1,3.5,0,7.1,0.1,10.7
		c0,2.1,0.3,4.1,0.8,6.1c-3.2-0.1-6.5-0.1-9.7-0.1C55.8,132.3,56.1,123.5,56.3,114.7z"/>
</g>
<g id="_x23_59559bff">
	<path class="st189" d="M147.5,114.5c2.5,1.5,1.2,4.9,1.6,7.4c0.2,6,3.1,14.6-3.3,18.4c-5.8,2.7-13.8,2.8-20,1
		c8.5,0.8,22.3,1.8,21.1-10.3C147.1,125.4,147.1,119.9,147.5,114.5z"/>
</g>
<g id="_x23_247583ff">
	<path class="st190" d="M56.8,116.1l1-0.1c6.4-1.3,9.5,0.9,6.9,8.3l-0.8,0.1C59,124.6,56.1,120.8,56.8,116.1z"/>
</g>
<g id="_x23_55beb1ff">
	<path class="st191" d="M159,116.1c0.2,0.2,0.7,0.7,0.9,0.9c-5,6.3,8.5,4,3.2,8c2.7,5.2,4.1,4.5,2.9-3.2c0.3,0.3,0.8,1,1,1.4
		c0,4,0,7.9-0.1,11.9c-1.7,0-5.2-0.1-6.9-0.2c-1.9-0.4,2.2-10.8-1.7-8c0-0.4,0-1.2,0-1.6C159.1,122.2,159,119.2,159,116.1z"/>
</g>
<g id="_x23_1e767dff">
	<path class="st192" d="M166.1,121.8c-2.2-6.4,1.6-6.9,6.9-5.8l0.9,0c1.9,5.5-1.4,8.7-6.9,7.2C166.8,122.8,166.3,122.1,166.1,121.8z
		"/>
</g>
<g id="_x23_8a7edbff">
	<path class="st193" d="M176.1,116l0.9-0.1c0,5.3,0.7,10.6,0.9,15.9c-2.7,2.3-4.9,6-8.8,6.4c-0.2-4.7-0.2-9.4-0.1-14.1
		C175.2,125,178.2,123.1,176.1,116z"/>
</g>
<g id="_x23_1f7b7fff">
	<path class="st194" d="M185,116.1c6.4-0.4,12.8-0.1,19.3-0.4c1.3,4.4-0.5,10.4-6.9,7.1C195.5,117.7,182.7,124.8,185,116.1z"/>
</g>
<g id="_x23_397e91ff">
	<path class="st195" d="M23,117c2.8,0,8.3,0,11,0C34.6,122.2,20.9,122.4,23,117z"/>
</g>
<g id="_x23_5ac5b6ff">
	<path class="st196" d="M64.7,124.3c3.4-1.1,6.5-3.7,7.2-7.4c-2,6,4,21.9-7.9,18.2c0-3.6,0-7.1-0.1-10.7L64.7,124.3z"/>
</g>
<g id="_x23_7284c4ff">
	<path class="st197" d="M129,127.6c-1.1-3.6-1.3-7.2-0.5-10.9c0,6.8,13.2-0.5,8.6,10.3C134.4,127.2,131.7,127.4,129,127.6z"/>
</g>
<g id="_x23_1d747cff">
	<path class="st198" d="M128.5,116.7c4,1.4,13.9-3.2,10.6,5.3c-0.5,1.2-1.5,3.7-2,5C141.6,116.2,128.5,123.5,128.5,116.7z"/>
</g>
<g id="_x23_8a7edeff">
	<path class="st199" d="M83.2,120c7.5-4,6.3,4.4,6,10.2l-0.1,0.8c-5.2,1.1-12.6,13.9-14.5,3.9c0.1-2.7,0.3-8,0.5-10.7
		C78.8,123.7,84.4,125.5,83.2,120z"/>
</g>
<g id="_x23_5bc6b7ff">
	<path class="st200" d="M45.8,123.2c0.1,3.3,4.1-2.2,6.2-2.4c-0.9,6.3,4,18.1-7.3,14.5c-0.2-4.2,0.6-8.4,0.5-12.5L45.8,123.2z"/>
</g>
<g id="_x23_8686d9ff">
	<path class="st201" d="M199.9,127.9c-1.4-5.9,5.9-3,8-7.2c0.1,3.1,0.2,6.1,0.3,9.2c-0.5,0-1.4-0.1-1.9-0.2
		C204.8,127.7,202.1,128,199.9,127.9z"/>
</g>
<g id="_x23_53c0b1ff">
	<path class="st202" d="M33.2,125.2c1-1.3,2-2.5,3.2-3.6c0,2.9,2.1,3.7,4.6,3.8c-0.6,13.4-18.1,11.1-27.8,10.6
		c-0.1-0.5-0.2-1.5-0.2-2.1l0.7,0.4c3.6,1.4-1.4-10.5,5.2-8.3c2.9,3.2,6.6,4.2,11.2,3.2c-2.1,2.1-7.1,8,1.9,4.8
		c4.4,1.1,1.9-5.6,6.9-4.4c1.5-7.1-5-1.5-8-0.6l0.5-0.8C32,127.3,32.6,126.2,33.2,125.2z"/>
</g>
<g id="_x23_8d78d8ff">
	<path class="st203" d="M149.1,121.9c0.4,0.1,1.2,0.4,1.6,0.5c2.3,2.3,7.5-1.2,7.7,2.9c0,0.4,0,1.2,0,1.6c0.2,4.4,0.5,8.8,0.5,13.2
		c-1.8,0.9-3.5,1.8-5.2,2.7l-0.7-0.1c-2.1-1-6.5,0.6-7.1-2.5C152.2,136.4,149.3,127.9,149.1,121.9z"/>
</g>
<g id="_x23_c7c9f1ff">
	<path class="st204" d="M222.1,123c5.1,1.1,15.9-2.1,18.7,1C234.7,123.6,226.7,125.3,222.1,123z"/>
</g>
<g id="_x23_187278ff">
	<path class="st205" d="M186.2,128.2c-2.5-7.2,7.1-3.4,11.1-4.5c-0.1,1.4-0.2,2.8-0.3,4.2C193.4,127.9,189.8,128,186.2,128.2z"/>
</g>
<g id="_x23_38798bff">
	<path class="st206" d="M22,125c2.8,0,8.4,0.1,11.2,0.1c-0.6,1.1-1.2,2.1-1.8,3.1C28.2,127.2,20.5,130.5,22,125z"/>
</g>
<g id="_x23_36a4abff">
	<path class="st207" d="M30.9,129.1c3-0.9,9.5-6.5,8,0.6c-4.9-1.2-2.5,5.5-6.9,4.4c-9,3.2-4-2.8-1.9-4.8L30.9,129.1z"/>
</g>
<g id="_x23_37a8abff">
	<path class="st208" d="M111.2,126.1c5-1.9,4.1,3.2,3.7,6.9C108.6,137.2,108.2,128.3,111.2,126.1z"/>
</g>
<g id="_x23_915dd1ff">
	<path class="st209" d="M119,126h0.9c0,1.6,0,3.3,0.1,4.9c-2,5.6,3.5,6.6,5.8,10.3c6.2,1.9,14.2,1.8,20-1c0.6,3,4.9,1.5,7.1,2.5
		c-8.1,6.4-19.5,2-28.9,3.3c-6.9-1.2-16.9,3.6-20.9-4.2c-4.2,7-16.3,6.3-21.4,0.6c-6,5.4-16.5,5.4-23.8,1.8c-4.4,4-11.8,4.1-16-0.2
		c-2.1,1.6-3.4,4.6-7,3c-9.4-0.3-19.8,2.4-28-3.3c1.4-4.1-0.6-11.6,2-13.6c2.1,0.7,4.5,1.2,4,3.9c0.1,0.5,0.2,1.5,0.2,2.1
		c0.1,1.1,0.3,2.1,0.6,3.2c0.3,1.3,0.4,2.8,1.9,3.3c5.3,3.5,12.5-0.9,18.3,0.5c5.6,2.9,5.7-6.7,10.9-4c0.4,1,1,1.9,1.6,2.6
		c1.6,2.2,8.8,3.5,8.5-0.5c3.2,0,6.5,0,9.7,0.1l0.9,0.2c4.7,4.3,11.4-0.2,9-6.5c1.8,10.1,9.3-2.8,14.5-3.9c-0.1,1.4-0.1,2.7-0.2,4.1
		c-0.1,2.4-0.5,5.9,2.8,6.3c3.1-0.3,10.7,3.6,7.3-4.4c-0.5-4.7,7.2-1.6,10-1.1c0.4,1.9-1.2,5.3,1.7,5.5
		C121.8,146.4,119.2,132.1,119,126z"/>
</g>
<g id="_x23_38a6acff">
	<path class="st210" d="M141.5,126.4c5.8-3.8,4.4,1,4.4,3.4c-5.4-1.1-3.2,6.4-10,3.2C136.9,130.1,139.4,128.3,141.5,126.4z"/>
</g>
<g id="_x23_2d9199ff">
	<path class="st211" d="M158.4,126.9c3.9-2.8-0.2,7.7,1.7,8c1.7,0,5.2,0.1,6.9,0.2c1.5,5.5-0.5,7.6-6.2,6.2c-0.5-0.3-1.5-0.9-2-1.2
		C158.9,135.7,158.6,131.3,158.4,126.9z"/>
</g>
<g id="_x23_4fb5b3ff">
	<path class="st212" d="M181.2,126.1c2.4-1.2,3,2.4,5,2.2c3.6-0.2,7.2-0.3,10.8-0.3c0.7,0,2.1,0,2.9,0c2.2,0.1,4.9-0.2,6.4,1.9
		c-0.1,1.7-0.1,3.4-0.2,5.1l-0.9-0.2c-7.8-1.9-16,0-23.9-0.8C180.6,131.4,178.7,127.9,181.2,126.1z"/>
</g>
<g id="_x23_228187ff">
	<path class="st213" d="M97.2,127.1c5.5,0.1,15.6-3.2,11.8,6.8c-4.7-0.7-14.6-3.9-12.1,5.1c0.6,3.1-3.4,1.8-5.2,2.4
		c-3.3-0.4-2.9-3.9-2.8-6.3C95.2,136.6,97.6,133.2,97.2,127.1z"/>
</g>
<g id="_x23_4bb3afff">
	<path class="st214" d="M212.1,126.7c6.3,5.1,18.4,5.1,24,2.6c0.3,0,0.8,0.1,1.1,0.1v1c-0.1,1.9-0.2,3.7-0.2,5.6
		c-8.7-0.3-17.7,0.9-26.2-0.8c5.1-0.3,10.2-0.2,15.4-0.3C221.5,131.2,207.4,138.9,212.1,126.7z"/>
</g>
<g id="_x23_8f56cfff">
	<path class="st215" d="M237.2,129.4c1.9-0.3,4-0.5,4.7,1.8c0.2,3.9,1.4,7.7,1,11.6c-1.6,2.4-2.3,6.7-6.9,4.2
		c-20,0.2-39.9,0.3-59.9-1.1c-1.5-0.7-2.7-2-4.1-2.8c-4.8,4.2-14.6,5.6-18.4-0.2c1.7-0.9,3.4-1.8,5.2-2.7c0.5,0.3,1.5,0.9,2,1.2
		c3.3,1.5,9.7,2.3,8.3-3c3.9-0.4,6-4.1,8.8-6.4c0.9,3-1.7,7.9,1.8,9.5c8,3.6,17.8,0.8,26.3,1.6c2.6,0.7,2-2.5,2.7-4.1
		c0.4,1.6,1.8,2.6,3.2,3.3c8.6,0.6,17.3,1.9,25.9,1.7c1.9-3.1,3.3-11-0.5-13.5V129.4z"/>
</g>
<g id="_x23_6653a1ff">
	<path class="st216" d="M206.3,129.8c0.5,0,1.4,0.1,1.9,0.2c1.1,2.9,0.7,5.9,0.5,8.9c-0.6,1.6,0,4.8-2.7,4.1
		c-8.6-0.8-18.4,2.1-26.3-1.6c8.3-0.9,16.7-0.1,25.1-0.5c1.9-1.3,1.1-4,1.4-6C206.1,133.2,206.2,131.5,206.3,129.8z"/>
</g>
<g id="_x23_278893ff">
	<path class="st217" d="M120,130.9c1.6,0.1,3.1,0.1,4.7,0.2c-0.6,7.2,9.1,2.6,13.3,3.9c7.2,3.6,2.9-6.2,9-4.1
		c1.2,12.1-12.6,11.1-21.1,10.3C123.6,137.6,118,136.5,120,130.9z"/>
</g>
<g id="_x23_63429aff">
	<path class="st218" d="M237.2,130.4c3.9,2.4,2.4,10.4,0.5,13.5c-8.6,0.2-17.3-1.1-25.9-1.7c8-0.3,15.9,0,23.9-0.3
		c2-1.3,1-3.9,1.3-5.9C237.1,134.1,237.1,132.3,237.2,130.4z"/>
</g>
<g id="_x23_565194ff">
	<path class="st219" d="M97,139c-2.5-9,7.3-5.8,12.1-5.1l0,1l0,0.9c-2.8-0.5-10.5-3.6-10,1.1c3.4,7.9-4.2,4.1-7.3,4.4
		C93.6,140.8,97.6,142.1,97,139z"/>
</g>
<g id="_x23_2f95a4ff">
	<path class="st220" d="M13.8,139.1c7.8-0.1,15.6-0.1,23.4,0c-1.6,7.3-15.7,0.5-21.5,3.3C14.2,141.9,14,140.4,13.8,139.1z"/>
</g>
<g id="_x23_622a92ff">
	<path class="st221" d="M57.9,144.2c7.3,3.6,17.8,3.6,23.8-1.8c5.1,5.8,17.2,6.4,21.4-0.6c3.9,7.8,14,3,20.9,4.2
		c9.4-1.3,20.8,3.1,28.9-3.3l0.7,0.1c3.8,5.9,13.6,4.4,18.4,0.2c1.4,0.9,2.6,2.1,4.1,2.8c19.9,1.4,39.9,1.3,59.9,1.1
		c4.6,2.4,5.3-1.8,6.9-4.2c0.6,2.6-0.4,5.2-2.1,7.2c-5.3,0-10.5,0-15.8,0c-5.7,0-11.3,0-17,0c-1.9,0-3.8-0.1-5.7-0.3
		c-8.9-1.2-18-0.6-27-0.8c-1.9-3.8-4-2-6.4,0.1c-4.3,0-8.6,0-12.8,0c-2.6-2.8-4.5-2.9-7.2,0c-14.2,0-28.4,0.1-42.6-0.1
		c-1.8-3.3-4.8-3.3-6.6,0c-4.8,0-9.6,0.1-14.4,0c-2.2-4.2-5.8-2.6-8.4,0.1c-5.6,0-11.2,0-16.8,0c-3.7-4.6-5.2,4.1-10.1,1.1
		c-3.9,4.2-6.3-3.8-9.2-1.2c-1.3,1.2-3.1,1.3-4.8,1.2c-8-0.1-16,0-23.9-0.1c-2.6-0.9-3.8-4.1-5.1-6.4c8.2,5.8,18.5,3.1,28,3.3
		c3.6,1.6,4.9-1.3,7-3C46.1,148.3,53.6,148.2,57.9,144.2z"/>
</g>
<g id="_x23_a987c5ff">
	<path class="st222" d="M60.1,149c5.6,0.1,11.2,0,16.8,0C74.5,150,62.4,151.8,60.1,149z"/>
</g>
<g id="_x23_d0bddeff">
	<path class="st223" d="M85.3,148.9c4.8,0.1,9.6,0,14.4,0C99.3,150.8,85.8,150.7,85.3,148.9z"/>
</g>
<g id="_x23_ddd0e8ff">
	<path class="st224" d="M106.3,148.9c14.2,0.2,28.4,0.1,42.6,0.1c-12.2,2.2-29,0.6-43,0.9L106.3,148.9z"/>
</g>
<g id="_x23_cab6dbff">
	<path class="st225" d="M156.1,149c4.3,0,8.6,0,12.8,0C167.7,150.3,157.6,151.4,156.1,149z"/>
</g>
<g id="_x23_9c74bdff">
	<path class="st226" d="M175.3,148.9c9,0.2,18-0.4,27,0.8C194.2,149.2,180.9,151.8,175.3,148.9z"/>
</g>
<g id="_x23_b796d1ff">
	<path class="st227" d="M12.1,150c8,0.1,16,0,23.9,0.1C30.7,151,17.2,152.8,12.1,150z"/>
</g>
<g id="_x23_d5c2e4ff">
	<path class="st228" d="M208,150c5.7-0.1,11.3-0.1,17,0v1C220.3,149.8,211,153.2,208,150z"/>
</g>
<g id="_x23_a278c4ff">
	<path class="st229" d="M225,150c5.3,0,10.5,0,15.8,0c-2.3,2.6-11.4,0.2-15.8,1V150z"/>
</g>
</svg>
