<?xml version="1.0" encoding="UTF-8" ?>
<!DOCTYPE svg PUBLIC "-//W3C//DTD SVG 1.1//EN" "http://www.w3.org/Graphics/SVG/1.1/DTD/svg11.dtd">
<svg width="250pt" height="250pt" viewBox="0 0 250 250" version="1.1" xmlns="http://www.w3.org/2000/svg">
<g id="#ffffffff">
<path fill="#ffffff" opacity="1.00" d=" M 0.00 0.00 L 250.00 0.00 L 250.00 250.00 L 0.00 250.00 L 0.00 0.00 M 117.40 23.45 C 106.08 24.20 94.94 27.01 84.53 31.48 C 60.70 41.69 41.26 61.55 31.52 85.57 C 23.62 104.50 21.91 125.89 26.38 145.89 C 31.83 170.83 47.35 193.31 68.56 207.47 C 85.37 218.82 105.71 224.88 125.99 224.51 C 148.19 224.32 170.20 216.39 187.49 202.48 C 203.82 189.66 215.61 171.41 221.46 151.56 C 227.06 131.67 226.60 110.02 219.58 90.55 C 212.01 68.57 196.40 49.46 176.43 37.57 C 158.86 26.84 137.91 21.99 117.40 23.45 Z" />
</g>
<g id="#231f20ff">
<path fill="#231f20" opacity="1.00" d=" M 117.40 23.45 C 137.91 21.99 158.86 26.84 176.43 37.57 C 196.40 49.46 212.01 68.57 219.58 90.55 C 226.60 110.02 227.06 131.67 221.46 151.56 C 215.61 171.41 203.82 189.66 187.49 202.48 C 170.20 216.39 148.19 224.32 125.99 224.51 C 105.71 224.88 85.37 218.82 68.56 207.47 C 47.35 193.31 31.83 170.83 26.38 145.89 C 21.91 125.89 23.62 104.50 31.52 85.57 C 41.26 61.55 60.70 41.69 84.53 31.48 C 94.94 27.01 106.08 24.20 117.40 23.45 M 97.09 71.13 C 85.53 76.93 73.86 82.50 62.36 88.41 C 61.69 105.92 62.30 123.47 61.94 141.00 C 62.00 144.44 61.45 148.03 62.63 151.34 C 70.58 155.36 79.15 158.08 87.34 161.63 C 87.66 163.65 87.99 165.67 88.34 167.69 C 96.24 170.89 104.03 174.45 112.11 177.13 C 115.19 178.11 115.85 174.25 116.42 172.15 C 125.09 175.19 133.38 179.23 142.07 182.20 C 144.46 183.12 146.85 181.93 148.98 180.92 C 160.75 174.99 172.60 169.23 184.39 163.36 C 185.76 162.50 187.82 161.83 187.89 159.91 C 188.34 157.98 186.31 155.58 184.32 156.44 C 179.87 157.98 175.89 160.59 171.61 162.52 C 162.37 166.77 153.38 171.56 144.18 175.89 C 143.93 171.66 143.89 167.42 144.19 163.20 C 157.82 156.50 171.45 149.82 185.02 143.01 C 187.49 142.18 186.77 139.37 186.65 137.40 C 183.94 136.34 181.31 137.57 178.91 138.80 C 167.31 144.50 155.77 150.36 144.09 155.93 C 143.83 151.71 143.78 147.47 144.19 143.25 C 156.78 137.26 169.16 130.84 181.72 124.80 C 183.47 123.89 185.40 123.12 186.77 121.65 C 186.99 120.24 186.69 118.83 186.58 117.43 C 184.68 117.00 182.68 116.94 180.95 117.96 C 168.63 123.96 156.47 130.29 144.02 136.03 C 143.80 132.04 143.82 128.05 144.01 124.07 C 157.29 117.22 170.79 110.78 184.15 104.09 C 185.32 103.40 186.84 102.47 186.73 100.89 C 187.17 98.25 183.96 97.69 182.17 96.87 C 175.95 94.87 170.17 91.70 163.91 89.88 C 160.63 88.79 158.62 93.99 161.55 95.45 C 165.87 97.76 170.62 99.13 175.06 101.18 C 165.47 106.42 155.51 110.97 145.72 115.82 C 143.24 117.47 140.53 115.75 138.11 114.90 C 132.08 112.41 125.77 110.62 119.85 107.85 C 131.18 101.64 143.04 96.39 154.56 90.52 C 156.81 89.71 158.60 86.55 156.31 84.74 C 151.73 81.98 146.46 80.63 141.65 78.34 C 138.54 77.12 135.02 75.04 131.71 76.81 C 119.48 82.89 107.21 88.89 95.03 95.06 C 93.10 95.94 90.99 97.35 88.85 96.22 C 83.75 94.31 78.57 92.57 73.71 90.10 C 84.07 84.82 94.46 79.48 105.05 74.69 C 110.31 75.14 114.70 78.81 119.89 79.67 C 121.69 79.08 123.51 76.74 122.11 74.96 C 120.74 73.08 118.32 72.54 116.32 71.59 C 112.55 70.20 108.97 68.16 105.00 67.40 C 102.18 68.21 99.71 69.86 97.09 71.13 Z" />
<path fill="#231f20" opacity="1.00" d=" M 121.94 88.96 C 126.30 87.00 130.32 84.17 134.98 82.98 C 138.83 83.96 142.50 85.60 145.97 87.54 C 135.17 92.85 124.41 98.24 113.58 103.51 C 112.28 104.24 110.78 104.85 109.90 106.13 C 109.34 109.39 109.62 112.71 109.57 116.01 C 109.61 133.68 109.56 151.36 109.63 169.04 C 104.14 167.75 99.06 165.21 93.92 162.95 C 93.72 144.63 93.96 126.30 93.81 107.97 C 93.87 106.15 93.73 104.24 94.43 102.52 C 103.60 98.01 112.75 93.44 121.94 88.96 Z" />
</g>
<g id="#47bb94ff">
<path fill="#47bb94" opacity="1.00" d=" M 97.09 71.13 C 99.71 69.86 102.18 68.21 105.00 67.40 C 108.97 68.16 112.55 70.20 116.32 71.59 C 118.32 72.54 120.74 73.08 122.11 74.96 C 123.51 76.74 121.69 79.08 119.89 79.67 C 114.70 78.81 110.31 75.14 105.05 74.69 C 94.46 79.48 84.07 84.82 73.71 90.10 C 78.57 92.57 83.75 94.31 88.85 96.22 C 90.99 97.35 93.10 95.94 95.03 95.06 C 107.21 88.89 119.48 82.89 131.71 76.81 C 135.02 75.04 138.54 77.12 141.65 78.34 C 146.46 80.63 151.73 81.98 156.31 84.74 C 158.60 86.55 156.81 89.71 154.56 90.52 C 143.04 96.39 131.18 101.64 119.85 107.85 C 125.77 110.62 132.08 112.41 138.11 114.90 C 140.53 115.75 143.24 117.47 145.72 115.82 C 155.51 110.97 165.47 106.42 175.06 101.18 C 170.62 99.13 165.87 97.76 161.55 95.45 C 158.62 93.99 160.63 88.79 163.91 89.88 C 170.17 91.70 175.95 94.87 182.17 96.87 C 183.96 97.69 187.17 98.25 186.73 100.89 C 186.84 102.47 185.32 103.40 184.15 104.09 C 170.79 110.78 157.29 117.22 144.01 124.07 C 143.82 128.05 143.80 132.04 144.02 136.03 C 156.47 130.29 168.63 123.96 180.95 117.96 C 182.68 116.94 184.68 117.00 186.58 117.43 C 186.69 118.83 186.99 120.24 186.77 121.65 C 185.40 123.12 183.47 123.89 181.72 124.80 C 169.16 130.84 156.78 137.26 144.19 143.25 C 143.78 147.47 143.83 151.71 144.09 155.93 C 155.77 150.36 167.31 144.50 178.91 138.80 C 181.31 137.57 183.94 136.34 186.65 137.40 C 186.77 139.37 187.49 142.18 185.02 143.01 C 171.45 149.82 157.82 156.50 144.19 163.20 C 143.89 167.42 143.93 171.66 144.18 175.89 C 153.38 171.56 162.37 166.77 171.61 162.52 C 175.89 160.59 179.87 157.98 184.32 156.44 C 186.31 155.58 188.34 157.98 187.89 159.91 C 187.82 161.83 185.76 162.50 184.39 163.36 C 172.60 169.23 160.75 174.99 148.98 180.92 C 146.85 181.93 144.46 183.12 142.07 182.20 C 133.38 179.23 125.09 175.19 116.42 172.15 C 115.85 174.25 115.19 178.11 112.11 177.13 C 104.03 174.45 96.24 170.89 88.34 167.69 C 87.99 165.67 87.66 163.65 87.34 161.63 C 79.15 158.08 70.58 155.36 62.63 151.34 C 61.45 148.03 62.00 144.44 61.94 141.00 C 62.30 123.47 61.69 105.92 62.36 88.41 C 73.86 82.50 85.53 76.93 97.09 71.13 M 121.94 88.96 C 112.75 93.44 103.60 98.01 94.43 102.52 C 93.73 104.24 93.87 106.15 93.81 107.97 C 93.96 126.30 93.72 144.63 93.92 162.95 C 99.06 165.21 104.14 167.75 109.63 169.04 C 109.56 151.36 109.61 133.68 109.57 116.01 C 109.62 112.71 109.34 109.39 109.90 106.13 C 110.78 104.85 112.28 104.24 113.58 103.51 C 124.41 98.24 135.17 92.85 145.97 87.54 C 142.50 85.60 138.83 83.96 134.98 82.98 C 130.32 84.17 126.30 87.00 121.94 88.96 Z" />
</g>
</svg>
