<?xml version="1.0" encoding="utf-8"?>
<!-- Generator: Adobe Illustrator 26.0.3, SVG Export Plug-In . SVG Version: 6.00 Build 0)  -->
<svg version="1.1" id="Layer_1" xmlns="http://www.w3.org/2000/svg" xmlns:xlink="http://www.w3.org/1999/xlink" x="0px" y="0px"
	 viewBox="0 0 250 250" style="enable-background:new 0 0 250 250;" xml:space="preserve">
<style type="text/css">
	.st0{fill:#FE9DA8;}
	.st1{fill:#E93A3A;}
	.st2{fill:#991E24;}
	.st3{fill:#7E0B0F;}
	.st4{fill:#8F1520;}
	.st5{fill:#D32032;}
	.st6{fill:#901E28;}
	.st7{fill:#8B1017;}
	.st8{fill:#D42133;}
	.st9{fill:#8F1F2A;}
	.st10{fill:#971723;}
	.st11{fill:#A61727;}
	.st12{fill:#A91A28;}
	.st13{fill:#AE1E2D;}
	.st14{fill:#D32535;}
	.st15{fill:#AC1E2F;}
	.st16{fill:#881521;}
	.st17{fill:#E2323C;}
	.st18{fill:#A02930;}
	.st19{fill:#85080D;}
	.st20{fill:#F5EAEA;}
	.st21{fill:#F9E8E8;}
	.st22{fill:#B31B2C;}
	.st23{fill:#E4ADB7;}
	.st24{fill:#8D1820;}
	.st25{fill:#D17688;}
	.st26{fill:#C56A80;}
	.st27{fill:#A0192C;}
	.st28{fill:#E43439;}
	.st29{fill:#EB343A;}
	.st30{fill:#A6AED2;}
	.st31{fill:#9FA9CC;}
	.st32{fill:#D32033;}
	.st33{fill:#892235;}
	.st34{fill:#E6363A;}
	.st35{fill:#901825;}
	.st36{fill:#E13B3F;}
	.st37{fill:#CE857C;}
	.st38{fill:#E48C93;}
	.st39{fill:#E0898D;}
	.st40{fill:#AE6E60;}
	.st41{fill:#925246;}
	.st42{fill:#8D473E;}
	.st43{fill:#9C554E;}
	.st44{fill:#5C2310;}
	.st45{fill:#67301B;}
	.st46{fill:#672E1A;}
	.st47{fill:#5F2011;}
	.st48{fill:#652F18;}
	.st49{fill:#541C08;}
	.st50{fill:#521905;}
	.st51{fill:#501403;}
	.st52{fill:#E69A97;}
</style>
<circle class="st0" cx="125" cy="125.5" r="125"/>
<g id="_x23_e93a3aff">
	<path class="st1" d="M133,30.5c3.5,0.2,6.9-0.6,9.9-2.3c1.1,0.9,2.2,1.9,3.4,2.6c3.4,0.2,6.9-0.1,10.3,0.4
		c-0.1,10.6,0.1,21.2,0,31.8c0.5,3.1-2.9,4.3-4.9,5.8c-5.1,2.2-5.7,8.5-9.1,12.4c-1.1-0.6-2.2-1.1-3.4-1.7
		c1.9-5.5,3.1-11.3,5.8-16.5c1.4-2.8,3.2-5.8,3.1-9c0.2-4.5-2.7-8.8-6.7-10.7c-2-1.1-3.9,0.7-5.3,2c-3,2.8-2.7,7.3-4.2,10.9
		c-2.1,4.8-3.1,10-5.6,14.7c-2.2,3.9-2.9,9.6,1.6,12.2c3.7,1.7,7.8,2,11.9,2.4c0.3,2.3,0.5,4.6,0.7,6.9c-1.2,0.2-2.5,0.4-3.7,0.6
		c-3.8,0.7-7.9,0.7-11.3,2.8c-1.5,2.3-0.4,4.8,1,6.8c3.6-2.7,7.8-4.2,12.2-4.8c2.3,1.8,5.1,3.1,6.5,5.8c0.8,2.9-0.7,5.7-1.6,8.4
		c-2.1,5.1-1.6,10.7-2.8,16c-2.6,2.5-5.9,4-9.3,4.9c-4.7-0.3-9.6-2.7-14-0.2c-2.2-0.7-4.4-1.5-6.5-2.5c3.9,0.3,7.9-1.8,9.5-5.4
		c0.6-3.8,0.4-7.7,0-11.6c-0.2-0.2-0.5-0.6-0.7-0.8c-0.4-0.1-1.3-0.2-1.8-0.3c1.4-1.6,2.3-3.4,2.9-5.5c-7.3-0.3-14.2-2.5-21.4-3.7
		c0.4-2.8,0.5-5.7,2.1-8.1c1.8-3,4.6-5.7,3.8-9.5c-1.1,0.6-2.2,1.2-3.2,1.9c-0.1-2,0.1-4.1-0.4-6c-0.3-1.9-2.5-2.1-4-2.8l0.7-0.1
		c0.9-0.2,2.6-0.5,3.4-0.6c-1-3.6-2.4-7.1-3.1-10.8c-0.4-1.4-0.4-3-1.6-3.9c0.4-1.3,0.8-2.6,1.2-3.9c-1.2-0.5-2.5-0.9-3.7-1.4
		l-0.7-0.2c0-0.4,0.1-1.2,0.1-1.6l0.8-0.3c1.7-0.6,3.5-1.1,5-2.2c1.1-1.7,1.8-3.7,2.7-5.5c1-2.2,2.7-4.3,5-5.3c1.1,1.2,2,2.5,3,3.8
		c3.4,0.2,6.8,0.5,10.2,1.4h-0.8c-2.5,0.1-5,0.4-7.5,0.4c2.3,3.1,4.9,6,6.5,9.5c1.2,2.8,2.3,5.6,3.7,8.2c3.3-4.6,3.9-11.8-0.4-16
		c1-0.6,2.1-1.2,3.1-1.9c4.3-1.8,3.6-7.5,7.3-10c2.5-1.8,5.5-2.6,8.3-3.7c0.2-0.5,0.6-1.6,0.8-2.2c-2.5-0.2-5.1-0.4-7.6-0.5
		C134.1,31.3,133.3,30.8,133,30.5 M147.9,32.2c1.7,2.7,3.7,5.2,5.7,7.7c2.3-2,2.7-5,2.4-8C153.3,31.7,150.6,31.8,147.9,32.2
		 M155.6,40c0.4,3.9-1.8,6.9-3.3,10.1c-0.5,5.5-1.5,11.4,0.5,16.7c1.3-1.1,3.6-1.7,3.4-3.8C156.9,55.3,155.2,47.7,155.6,40
		 M106.4,55.3c-0.8,5.9-0.7,11.9-0.6,17.8c0.1,4.2,0.9,8.5,3.6,11.8c2.9,1.3,5.7-0.6,8.2-1.8c1.2-0.7,2.3-1.6,3.3-2.5
		c1.3-2.6-0.4-5.2-1.7-7.4c-0.7-6.6-7.3-11.3-7.4-18.2C110,55.1,108.2,55.2,106.4,55.3 M129.6,124.7c3.5-0.6,8.3,1.4,10.9-1.6
		c0.8-3.6-1.1-6.9-3.6-9.2c-2.2-0.8-4.6-0.5-6.8-0.2C127.9,116.8,128.3,121.2,129.6,124.7 M123.6,115.5c-0.8,3.3-1,7.2,1.3,10.1
		c1.4-2.3,3.5-4.6,3.4-7.5C127.3,116.6,125.6,114.3,123.6,115.5z"/>
</g>
<g id="_x23_991e24ff">
	<path class="st2" d="M125,41.2c2.3-3.9,6.2-6.5,9.4-9.6c2.5,0.2,5.1,0.3,7.6,0.5c-0.2,0.5-0.6,1.6-0.8,2.2c-2.8,1.1-5.8,2-8.3,3.7
		c-3.6,2.5-2.9,8.2-7.3,10C125,45.8,123.8,43.3,125,41.2z"/>
</g>
<g id="_x23_7e0b0fff">
	<path class="st3" d="M147.9,32.2c2.7-0.4,5.4-0.5,8.1-0.3c0.3,2.9,0,5.9-2.4,8C151.6,37.4,149.6,34.9,147.9,32.2z"/>
</g>
<g id="_x23_8f1520ff">
	<path class="st4" d="M155.6,40c-0.4,7.7,1.2,15.4,0.6,23c0.2,2.1-2.1,2.7-3.4,3.8c-2-5.3-1-11.2-0.5-16.7
		C153.8,46.8,156.1,43.8,155.6,40z"/>
	<path class="st4" d="M97.6,62.8c1.2,0.9,1.3,2.6,1.6,3.9c0.7,3.7,2.1,7.2,3.1,10.8c-0.8,0.2-2.6,0.4-3.4,0.6
		c-2.2-2.7-0.9-6.1-0.6-9.2C98.7,66.9,97.9,64.9,97.6,62.8z"/>
</g>
<g id="_x23_d32032ff">
	<path class="st5" d="M136.3,45.3c1.4-1.3,3.3-3.1,5.3-2c4,1.9,6.8,6.2,6.7,10.7c0.1,3.3-1.7,6.2-3.1,9c-2.7,5.2-4,11-5.8,16.5
		c1.1,0.6,2.2,1.1,3.4,1.7c-0.9,1.4-1.8,2.9-2.8,4.3c-4-0.3-8.1-0.7-11.9-2.4c2.2-3.5,2-7.5,1.3-11.4c-1-0.3-2-0.5-2.9-0.8
		c2.5-4.7,3.5-9.9,5.6-14.7C133.6,52.7,133.2,48.2,136.3,45.3z"/>
</g>
<g id="_x23_901e28ff">
	<path class="st6" d="M93.4,52.9c1.9-2.1,3.7-4.2,5.5-6.4c1,0.3,3,1,4,1.3c-0.9,1.9-1.5,3.8-2.7,5.5c-1.5,1-3.3,1.5-5,2.2
		C94.8,54.8,93.9,53.5,93.4,52.9z"/>
</g>
<g id="_x23_8b1017ff">
	<path class="st7" d="M112.9,48c2.5,0,5-0.3,7.5-0.4c0.5,0.6,1.6,1.7,2.2,2.2c4.3,4.1,3.7,11.4,0.4,16c-1.4-2.7-2.5-5.5-3.7-8.2
		C117.8,54,115.2,51.1,112.9,48z"/>
</g>
<g id="_x23_d42133ff">
	<path class="st8" d="M106.4,55.3c1.8-0.1,3.6-0.2,5.4-0.3c0.1,7,6.8,11.7,7.4,18.2c-1,1.4-2.2,2.6-3.1,4.1c-0.3,2,0.8,3.9,1.4,5.8
		c-2.5,1.2-5.3,3.1-8.2,1.8c-2.7-3.3-3.5-7.7-3.6-11.8C105.7,67.1,105.6,61.2,106.4,55.3z"/>
</g>
<g id="_x23_8f1f2aff">
	<path class="st9" d="M95.1,57.6c1.2,0.5,2.5,0.9,3.7,1.4c-0.4,1.3-0.8,2.6-1.2,3.9c-0.9,0-2.8-0.1-3.7-0.1
		C93.4,60.9,94,59.1,95.1,57.6z"/>
</g>
<g id="_x23_971723ff">
	<path class="st10" d="M142.7,81.2c3.3-3.9,4-10.2,9.1-12.4c0.5,2.3,1.2,4.8,0.7,7.2c-2.1,3-4.9,5.3-7.4,8c2.1,2.3,4.3,4.7,6.5,6.9
		c-0.2,2.7-0.5,5.4-0.7,8c-1.1,0-2.3-0.1-3.4-0.1c-0.2-2,0-4.1-0.7-6.1c-1.9-2.8-4.6-4.8-6.9-7.2C140.9,84.1,141.8,82.6,142.7,81.2z
		"/>
</g>
<g id="_x23_a61727ff">
	<path class="st11" d="M126.5,70.9c1,0.3,2,0.5,2.9,0.8c0.7,3.9,0.9,7.9-1.3,11.4C123.5,80.5,124.3,74.8,126.5,70.9z"/>
</g>
<g id="_x23_a91a28ff">
	<path class="st12" d="M116.1,77.3c0.8-1.5,2-2.7,3.1-4.1c1.2,2.2,2.9,4.9,1.7,7.4c-1,0.9-2.2,1.7-3.3,2.5
		C117,81.2,115.9,79.3,116.1,77.3z"/>
</g>
<g id="_x23_ae1e2dff">
	<path class="st13" d="M102.4,87.2c1-0.7,2.1-1.3,3.2-1.9c0.9,3.8-2,6.6-3.8,9.5c-1.6,2.4-1.7,5.4-2.1,8.1
		c7.1,1.2,14.1,3.4,21.4,3.7c-0.6,2-1.5,3.9-2.9,5.5c-6.5-0.8-12.7-2.8-19.1-4c-0.4,2.5-0.8,5.1-1.1,7.6c-0.9-0.6-1.9-1.1-2.8-1.7
		c-0.3,2-0.6,4.1-0.9,6.1c-1.3-4.3-0.5-8.8-0.6-13.2c0.1-3.9-0.5-7.8,0.2-11.7C96.1,92.1,99.5,89.7,102.4,87.2z"/>
</g>
<g id="_x23_d32535ff">
	<path class="st14" d="M139.9,85.5c2.3,2.4,5,4.5,6.9,7.2c0.7,1.9,0.5,4.1,0.7,6.1c1.1,0,2.2,0.1,3.4,0.1c0.2-2.7,0.4-5.4,0.7-8
		c1.1,3.6,2.6,7,4.5,10.2c0.5,5,1.3,10.5-0.7,15.2c0.1-5.1,0.4-10.2-0.5-15.3c-0.6,0.1-1.9,0.4-2.6,0.5c-1.7,4.9-0.3,10,0.3,15
		c0.7,0.2,2.1,0.5,2.8,0.6l0.5,0.1c-2.6,1.2-4.5,3.5-6.7,5.3c-2.5,1.8-5.3,3.1-7.7,5l-0.6,0.5c1.2-5.3,0.7-10.9,2.8-16
		c0.8-2.7,2.4-5.5,1.6-8.4c-1.4-2.6-4.3-4-6.5-5.8c1.3-0.6,2.6-1.3,3.9-2.1c-1.9-1-3.8-2-5.9-2.7c1.2-0.2,2.5-0.4,3.7-0.6
		C140.4,90.1,140.2,87.8,139.9,85.5z"/>
</g>
<g id="_x23_ac1e2fff">
	<path class="st15" d="M125.6,95.7c3.4-2,7.5-2.1,11.3-2.8c2.1,0.7,4,1.7,5.9,2.7c-1.3,0.7-2.6,1.4-3.9,2.1
		c-4.4,0.6-8.6,2.1-12.2,4.8C125.2,100.6,124.1,98,125.6,95.7z"/>
</g>
<g id="_x23_881521ff">
	<path class="st16" d="M152.3,101.4c0.6-0.1,1.9-0.4,2.6-0.5c0.9,5,0.6,10.2,0.5,15.3l0,0.8c-0.7-0.2-2.1-0.5-2.8-0.6
		C152,111.5,150.6,106.3,152.3,101.4z"/>
</g>
<g id="_x23_e2323cff">
	<path class="st17" d="M99.2,108.1c6.4,1.2,12.6,3.2,19.1,4c0.4,0.1,1.3,0.3,1.8,0.3c0.2,0.2,0.5,0.6,0.7,0.8
		c-3.4,0.1-7-0.6-10.3,0.3c-1.9,1.5-3.4,3.4-5,5.1c0.6,1.1,1.2,2.3,1.7,3.4c-1.5,0.9-3,1.9-4.5,2.8c-0.2-1.2-0.5-2.3-0.7-3.5
		c-0.8-2.2-2.1-4.1-3.9-5.6C98.4,113.2,98.8,110.6,99.2,108.1z"/>
</g>
<g id="_x23_a02930ff">
	<path class="st18" d="M110.4,113.5c3.3-0.9,6.9-0.2,10.3-0.3c0.3,3.8,0.6,7.7,0,11.6c-1.6,3.6-5.6,5.7-9.5,5.4
		c-1.4-0.7-2.8-1.4-4.3-2.2c-0.4,1.2-0.8,2.3-1.2,3.5c-2.3,2.5-4.8,4.7-7.3,6.9c0.5,2.4,1,4.9,1.5,7.3c-0.4,0-1.2,0.1-1.6,0.1
		c-1.8-0.1-3.7-0.8-4.8-2.2c-0.2-1.7-0.3-3.4,0.1-5c2.3-3,5.6-5.2,7.1-8.8c0.9-2.8-1.6-4.8-2.9-6.9c1.4-0.5,2.8-1,4.2-1.5
		c0.2,1.2,0.5,2.3,0.7,3.5c1.5-0.9,3-1.9,4.5-2.8c-0.6-1.1-1.2-2.3-1.7-3.4C107.1,116.9,108.5,115,110.4,113.5 M106.9,118.9
		c1.3,1.9,2.6,3.8,3.9,5.7c3-0.2,6.3,0.8,9.1-0.8c2-3.1,0.1-6.8,0.2-10.2c-2.4-0.2-4.9-0.5-7.3-0.3
		C110.2,114.4,108.3,116.6,106.9,118.9z"/>
</g>
<g id="_x23_85080dff">
	<path class="st19" d="M95.2,114c1,0.5,1.9,1.1,2.8,1.7c1.8,1.5,3.2,3.4,3.9,5.6c-1.4,0.5-2.8,1-4.2,1.5c-1.2-0.9-2.3-1.8-3.5-2.7
		C94.6,118.1,94.9,116.1,95.2,114z"/>
</g>
<g id="_x23_f5eaeaff">
	<path class="st20" d="M106.9,118.9c1.4-2.3,3.3-4.5,5.9-5.4c2.4-0.3,4.9,0,7.3,0.3c-0.1,3.4,1.8,7.1-0.2,10.2
		c-2.7,1.6-6.1,0.6-9.1,0.8C109.5,122.7,108.2,120.8,106.9,118.9 M112.4,119.1c1.3,1,2.6,3.2,4.4,1.6c1.4-1.8-0.6-2.9-1.6-4.2
		C114.2,117.4,113.3,118.3,112.4,119.1z"/>
</g>
<g id="_x23_f9e8e8ff">
	<path class="st21" d="M129.6,124.7c-1.3-3.5-1.7-7.9,0.5-11.1c2.2-0.3,4.6-0.6,6.8,0.2c2.5,2.4,4.4,5.7,3.6,9.2
		C137.9,126.1,133.1,124.1,129.6,124.7z"/>
</g>
<g id="_x23_b31b2cff">
	<path class="st22" d="M123.6,115.5c2-1.2,3.7,1.1,4.7,2.6c0.1,2.9-2,5.1-3.4,7.5C122.6,122.7,122.7,118.8,123.6,115.5z"/>
</g>
<g id="_x23_e4adb7ff">
	<path class="st23" d="M112.4,119.1c0.9-0.9,1.9-1.7,2.8-2.6c1,1.2,3,2.4,1.6,4.2C115,122.3,113.7,120.1,112.4,119.1z"/>
</g>
<g id="_x23_8d1820ff">
	<path class="st24" d="M141.6,127.4c2.4-1.9,5.2-3.2,7.7-5c-0.4,1.8-1.2,3.7-0.3,5.4c0.9,1.2,2.1,2.1,3.2,3.1c0.2,1.3,0.5,2.6,0.7,4
		c1.2,0.9,2.4,1.9,3.6,2.8c0.1,3.5,0.1,7.1,0,10.7c-3,0.1-5.9,0.3-8.9,0.6c-2.8,0.1-5.5-0.9-7.8-2.4c0.8-2.9,1.4-5.9,2-8.9
		c2.8,3.1,5.4,7,9.9,7.4c0-2.2,0.4-4.4-0.3-6.5c-1.6-2.8-4.2-4.9-6.3-7.3C143.9,130,142.7,128.7,141.6,127.4z"/>
</g>
<g id="_x23_d17688ff">
	<path class="st25" d="M105.8,131.4c0.4-1.2,0.8-2.3,1.2-3.5c1.4,0.8,2.8,1.5,4.3,2.2c2.1,1,4.3,1.8,6.5,2.5
		c-0.1,2.7-0.3,5.4-0.9,8.1c-1,1-2.1,2.1-3.2,3.1c-1.1,1-2.3,1.9-3.4,2.8c-0.8-2.6-1.5-5.3-2-8C107.9,136.1,106.9,133.6,105.8,131.4
		 M110.5,133.5c-0.6,3.6-0.9,7.2-0.3,10.8c3.4-2.4,6.7-6.6,5.9-11C114.2,133.3,112.4,133.4,110.5,133.5z"/>
</g>
<g id="_x23_c56a80ff">
	<path class="st26" d="M141,127.9l0.6-0.5c1.2,1.3,2.3,2.6,3.5,3.9c-1.6,1.9-2.9,3.9-3.3,6.4c-0.6,3-1.2,6-2,8.9
		c-1.2-0.7-2.3-1.4-3.5-2.1c-3.2-3.1-4.2-7.4-4.6-11.6C135.1,131.9,138.4,130.4,141,127.9 M134.1,133.2c-2.4,4.7,1.9,8.9,5.7,11
		c0.2-3.6,0.1-7.2-0.4-10.7C137.7,133.4,135.9,133.3,134.1,133.2z"/>
</g>
<g id="_x23_a0192cff">
	<path class="st27" d="M117.7,132.7c4.4-2.5,9.3-0.2,14,0.2c0.3,4.2,1.4,8.6,4.6,11.6c-3.9-1.8-6.9-5-10.7-7.1
		c-3.2-0.5-6.2,1.6-8.8,3.4C117.4,138.1,117.6,135.4,117.7,132.7z"/>
</g>
<g id="_x23_e43439ff">
	<path class="st28" d="M98.4,138.4c2.5-2.3,5-4.5,7.3-6.9c1.2,2.2,2.1,4.6,2.5,7.2c-2.1,1.3-4.1,2.5-6.1,3.8
		c0.6,0.9,1.1,1.8,1.7,2.7c-1.3,0.2-2.6,0.4-3.9,0.6C99.4,143.2,98.9,140.8,98.4,138.4z"/>
</g>
<g id="_x23_eb343aff">
	<path class="st29" d="M141.8,137.7c0.4-2.4,1.7-4.5,3.3-6.4c2.2,2.4,4.7,4.5,6.3,7.3c0.7,2.1,0.3,4.4,0.3,6.5
		C147.1,144.7,144.6,140.7,141.8,137.7z"/>
</g>
<g id="_x23_a6aed2ff">
	<path class="st30" d="M110.5,133.5c1.8-0.1,3.7-0.1,5.5-0.2c0.8,4.4-2.4,8.6-5.9,11C109.6,140.7,109.9,137,110.5,133.5z"/>
</g>
<g id="_x23_9fa9ccff">
	<path class="st31" d="M134.1,133.2c1.8,0.1,3.6,0.2,5.3,0.2c0.4,3.6,0.6,7.1,0.4,10.7C136,142.1,131.7,137.9,134.1,133.2z"/>
</g>
<g id="_x23_d32033ff">
	<path class="st32" d="M116.8,140.7c2.6-1.7,5.5-3.9,8.8-3.4c3.7,2.1,6.8,5.3,10.7,7.1c-2.6,4.4-5.8,9-10.6,11.2
		c-4,0.7-8.8,0.3-12-2.4c-0.7-3.1-0.1-6.4,0-9.5C114.8,142.8,115.8,141.8,116.8,140.7z"/>
</g>
<g id="_x23_892235ff">
	<path class="st33" d="M102.2,142.4c2-1.3,4.1-2.6,6.1-3.8c0.5,2.7,1.1,5.4,2,8c-2.5,2.1-5.2,4-8.1,5.5c0.8-1.9,1.7-3.7,2.6-5.5
		c-0.2-0.4-0.7-1.1-0.9-1.5C103.3,144.2,102.7,143.3,102.2,142.4z"/>
</g>
<g id="_x23_e6363aff">
	<path class="st34" d="M110.2,146.6c1.2-0.9,2.3-1.8,3.4-2.8c-0.2,3.1-0.7,6.4,0,9.5c3.2,2.7,8,3.1,12,2.4c4.8-2.2,8-6.8,10.6-11.2
		c1.1,0.7,2.3,1.4,3.5,2.1c2.4,1.4,5,2.4,7.8,2.4c1.3,1.9,3.1,3.4,5.1,4.6c0.1,3.1,0.1,6.1,0.2,9.2l-0.7-0.1c0.1-3,0.2-6,0.2-9.1
		c-1.3-0.1-2.5-0.3-3.8-0.3c-0.8,3.2-1.3,6.4-1.9,9.6c-3.8,0-7.4-0.8-10.7-2.7c-7.6,4.4-17.3,4.8-25.3,1.2c-0.3,0.8-0.5,1.6-0.8,2.3
		c1.6,2,3.5,3.9,4.6,6.3c-0.1,1.9-1,3.6-2.2,5c-3.1,1-6.5,0.5-9.7,0.4c-0.1-1-0.2-1.9-0.2-2.9c2.1-0.4,4.2-0.9,6.3-1.3
		c0.2-0.6,0.7-1.7,0.9-2.3c-3.2-4-6.2-8.2-8.7-12.8c-1.1,0.2-2.2,0.4-3.4,0.6c1.2-1.8,3-3.5,3.1-5.7c-0.5-1.8-1.4-3.5-2.3-5.2
		c0.4,0,1.2-0.1,1.6-0.1c1.3-0.2,2.6-0.4,3.9-0.6c0.2,0.4,0.7,1.1,0.9,1.5c-0.9,1.8-1.8,3.7-2.6,5.5
		C105,150.6,107.7,148.7,110.2,146.6z"/>
</g>
<g id="_x23_901825ff">
	<path class="st35" d="M148.6,153.3c1.3,0,2.5,0.2,3.8,0.3c-0.1,3-0.2,6-0.2,9.1c-1.1,0.9-2.2,1.9-3.3,2.8c1.2,1.6,2.7,3.1,3.4,5
		c0.4,3.1,0.2,6.1,0.2,9.2c-4.5,0-9,0.2-13.4,0c-1.5,0.1-2.5-1.2-3.5-2.1c-3-2.7-5.4-6-8.2-8.9c-1.6-0.4-3.2-0.4-4.8,0
		c-3.5,3-6,7-8.6,10.8c-5,0.3-10,0.6-15,0.1c-2.3-1.7-1.4-5-1.5-7.4c-0.1-2.6,2.4-4.1,3.6-6.2c-0.7-3.2-3.3-5.7-3.7-9
		c1.1-0.2,2.2-0.4,3.4-0.6c2.5,4.6,5.5,8.8,8.7,12.8c-0.2,0.6-0.7,1.7-0.9,2.3c-2.1,0.4-4.2,0.9-6.3,1.3c0.1,1,0.2,1.9,0.2,2.9
		c3.2,0.1,6.6,0.7,9.7-0.4c1.2-1.4,2.2-3.2,2.2-5c-1.1-2.4-3-4.3-4.6-6.3c0.3-0.8,0.5-1.6,0.8-2.3c8,3.6,17.7,3.2,25.3-1.2
		c3.3,1.8,7,2.7,10.7,2.7C147.3,159.7,147.7,156.4,148.6,153.3 M135,168.8c1,2.2,2,4.3,3,6.5c4.3,0.4,8.8,0.8,13-0.5
		c0.1-0.4,0.4-1.2,0.5-1.6c-2.7-2-5.5-3.9-8.7-4.9C140.2,167.4,137.6,168.3,135,168.8z"/>
</g>
<g id="_x23_e13b3fff">
	<path class="st36" d="M135,168.8c2.5-0.5,5.2-1.4,7.8-0.5c3.2,1.1,6,3,8.7,4.9c-0.1,0.4-0.4,1.2-0.5,1.6c-4.2,1.2-8.7,0.9-13,0.5
		C137,173.1,136,171,135,168.8z"/>
</g>
<g id="_x23_ce857cff">
	<path class="st37" d="M61,190.1c0.1-3.3,4-4.7,6.8-3.8c3.5,1.1,7.2,0.6,10.8,0.6c0.6,5,0.3,10.1,0.3,15.2
		c-1.6-4.4-1.1-9.1-1.2-13.7c-1.1,0-2.1,0-3.2,0c-0.2,6.2-0.5,12.4,0.4,18.6c3.8,0.2,7.5-0.2,11.2-0.9c1.2-0.1,2.5,0,3.7,0.1
		c6.1,1.1,12.3,0.1,18.4,1l-0.4,0.8c-9,0.8-18-0.7-26.9,0.3c-3.9,0.7-7.6-2.4-11.4-0.7c-2.7,1-5.6,0.8-8.4,0.4
		C61.6,202,60.2,196,61,190.1 M63.4,188.2c-0.2,6,0.7,12.1,0,18.1c2.2,0.2,4.3,0.1,6.5-0.1c0.5-5.3,0.9-10.7,0.2-16.1
		C69.7,186.8,65.7,187.7,63.4,188.2z"/>
</g>
<g id="_x23_e48c93ff">
	<path class="st38" d="M78.6,186.9c9.1-0.7,18.3-1.3,27.5-0.8c4.9,0.4,9.8-0.4,14.6,0.3c2.1,0.4,2,2.9,2.2,4.6
		c0.1,4.9,0.2,10-0.9,14.8c-0.1,1.9-2,2.4-3.5,2.9c-2.6,0.9-5-1.1-7.3-2.1c-1.1,0.5-2.2,0.9-3.2,1.4l0.4-0.8
		c1.6-4.6,1.6-9.5,1.9-14.3c-0.1-1.7,0.4-3.8-1.1-5.1c-3.5-1-7.3-0.4-10.9-0.5c-5.2-0.2-10.4-0.1-15.6,0.2
		c-1.1,5.5,1.3,11.9-2.7,16.5c-0.2-0.5-0.8-1.5-1-2C78.9,197,79.2,191.9,78.6,186.9 M112.2,188.1c0.9,6.1,0.1,12.4,1.4,18.4
		c2.1,1.6,4.7,0.5,7,0.1c0.8-5.9,1.5-12,0.7-18C119.2,185.9,115,186.8,112.2,188.1z"/>
</g>
<g id="_x23_e0898dff">
	<path class="st39" d="M152.3,187.2c2.2-0.3,4.4-0.7,6.6-1.1c1,0.7,2.1,1.4,3.1,2.1c3.1-2.5,7-2.5,10.8-1.9
		c0.7,4.1,0.8,8.3,0.5,12.5c3.3-3.5,4.7-8,6.8-12.2c-0.9,5.5-3.5,10.5-4.9,15.9c-1.2,0-2.4,0-3.6,0c0.4-5.1,0.8-10.2,0.3-15.3
		c-2.5,0-5,0-7.5,0c-0.6,4.8-0.2,9.7-0.7,14.5c-0.4,0.2-1.3,0.5-1.7,0.6c-2.2-4.4-1.2-9.5-1.7-14.2c-0.5-0.4-1.6-1.1-2.1-1.5
		c-0.5,0.4-1.6,1.1-2.1,1.5c-0.2,6.1-1.1,12.3,0.6,18.2c2.9,1.4,6.3,0.9,9.4,1c4.3-0.2,8.7,0.3,12.8-1.4c0.9-0.7,1.7-1.4,2.6-2.1
		c1.9,1,3.9,2,5.9,3c0.7-5.6,0.8-11.6-2.5-16.5c-0.6-1.3-1.2-2.6-1.7-3.8c2.5,2.4,5.3,4.9,6.1,8.4c0.8,4,0.3,8.1,0.2,12.1
		c-1.4,0.4-2.7,0.9-4.1,1c-1.2-0.7-2.2-1.6-3.3-2.4c-3.2,3.1-7.7,2.6-11.8,2.6c-4.1,0-8.3,0.4-12.4-0.2c-6.9-1.2-14.1,1.6-20.9-0.8
		l1.1-0.1c4.9-0.2,9.8-0.6,14.7-1.1C153,200,152.7,193.6,152.3,187.2z"/>
</g>
<g id="_x23_ae6e60ff">
	<path class="st40" d="M82.6,187.5c5.2-0.3,10.4-0.4,15.6-0.2c-2.8,0.5-6.6-0.1-8.6,2.4c-1.5,5.4,0,11.1,0.2,16.5
		c-1.2-0.1-2.5-0.2-3.7-0.1c0.2-5.6,0.2-11.1-0.1-16.7C84.9,188.7,83.7,188.1,82.6,187.5z"/>
</g>
<g id="_x23_925246ff">
	<path class="st41" d="M98.2,187.3c3.6,0.1,7.4-0.5,10.9,0.5c1.5,1.3,1,3.4,1.1,5.1c-0.3,4.8-0.3,9.7-1.9,14.3
		c-6.1-0.9-12.3,0.1-18.4-1c-0.2-5.5-1.7-11.1-0.2-16.5C91.6,187.2,95.4,187.8,98.2,187.3 M91,190.2c-0.9,5.2-0.2,10.4,0.4,15.6
		c2.2,0.5,4.4,0.5,6.4-0.5c-1.1-1.3-2.2-2.5-3.2-3.8c2.4-3.8,3.5-8.2,2.5-12.7C95,188.9,92.4,188.2,91,190.2 M102.1,188.9
		c-1.5,5.9,1.8,11,2.8,16.6c0.9,0.1,1.7,0.1,2.6,0.2c0.5-5.6,1.1-11.3,0.8-16.9C106.1,188.8,104.1,188.8,102.1,188.9z"/>
</g>
<g id="_x23_8d473eff">
	<path class="st42" d="M112.2,188.1c2.8-1.3,7-2.3,9.1,0.5c0.8,6,0.1,12.1-0.7,18c-2.3,0.3-5,1.5-7-0.1
		C112.2,200.5,113.1,194.2,112.2,188.1 M114.8,188.8c-0.2,5.4-0.6,10.9,0.2,16.3c0.5,0.1,1.6,0.3,2.1,0.4c2.6-5.2,2.7-11.2,2.2-16.9
		C117.8,188.7,116.3,188.7,114.8,188.8z"/>
</g>
<g id="_x23_9c554eff">
	<path class="st43" d="M155.9,188.3c0.5-0.4,1.6-1.1,2.1-1.5c0.5,0.4,1.6,1.1,2.1,1.5c0.5,4.7-0.5,9.8,1.7,14.2
		c0.4-0.1,1.3-0.5,1.7-0.6c0.5-4.8,0.2-9.7,0.7-14.5c2.5,0,5,0,7.5,0c0.5,5.1,0.2,10.2-0.3,15.3c1.2,0,2.4,0,3.6,0
		c1.5-5.4,4.1-10.4,4.9-15.9c0.7,0,2.2,0,2.9,0c0.6,1.3,1.1,2.6,1.7,3.8c-1.3-0.9-2.7-1.7-4-2.6c-0.8,3.9,1.1,7.4,3,10.6
		c-2-0.2-4.1-0.5-6.1-0.8c-0.3,2.6-0.7,5.2-1.1,7.8c0.6,0.2,1.7,0.4,2.3,0.6c-4,1.7-8.5,1.2-12.8,1.4c-3.1,0-6.5,0.4-9.4-1
		C154.8,200.6,155.7,194.3,155.9,188.3 M165.3,188.3c-0.7,4.9-0.2,9.9-0.5,14.8c-1.6-0.1-3.1-0.1-4.7-0.1c-1.2-4.9,0.2-10.3-2.1-15
		c-1.9,3.7-1.4,8-1.4,12c0.1,2.1,0,4.5,1.5,6.2c4.6,0,9.2-1,13.8-0.5c-0.9-1.6-1.8-3.2-2.6-4.9c1.2-4.1,1.8-8.3,1.3-12.5
		C168.8,188.4,167.1,188.3,165.3,188.3z"/>
</g>
<g id="_x23_5c2310ff">
	<path class="st44" d="M63.4,188.2c2.3-0.5,6.3-1.4,6.6,2c0.7,5.3,0.4,10.7-0.2,16.1c-2.2,0.2-4.3,0.2-6.5,0.1
		C64.1,200.3,63.1,194.2,63.4,188.2z"/>
</g>
<g id="_x23_67301bff">
	<path class="st45" d="M74.5,188.4c1.1,0,2.1,0,3.2,0c0.2,4.6-0.4,9.3,1.2,13.7c0.3,0.5,0.8,1.5,1,2c4-4.6,1.6-11,2.7-16.5
		c1.1,0.6,2.3,1.2,3.4,1.9c0.3,5.6,0.2,11.1,0.1,16.7c-3.7,0.7-7.4,1.1-11.2,0.9C74,200.8,74.3,194.6,74.5,188.4z"/>
</g>
<g id="_x23_672e1aff">
	<path class="st46" d="M137.2,187.6c4.6-0.1,9.2-0.5,13.8,0c0.3,0.4,0.9,1.1,1.2,1.5c0.7,5.7,0.1,11.5,0.2,17.3
		c-4.9,0.5-9.8,0.9-14.7,1.1c-0.8-2-1.9-4.1-1.2-6.3c1-1.7,2.2-3.3,3.1-5.1C139,193.1,137.7,190.5,137.2,187.6 M140.5,200.4
		c1.2,2.7,4.4,4.1,6.9,2c1.6-3.2,1.8-7.9-1.2-10.3C145.1,195.4,143.9,198.9,140.5,200.4z"/>
</g>
<g id="_x23_5f2011ff">
	<path class="st47" d="M165.3,188.3c1.8,0,3.6,0,5.3,0c0.5,4.2-0.1,8.5-1.3,12.5c0.9,1.6,1.7,3.2,2.6,4.9c-4.6-0.5-9.2,0.5-13.8,0.5
		c-1.5-1.7-1.3-4.1-1.5-6.2c0-4-0.5-8.2,1.4-12c2.2,4.7,0.8,10,2.1,15c1.6,0,3.1,0,4.7,0.1C165.1,198.2,164.6,193.2,165.3,188.3z"/>
</g>
<g id="_x23_652f18ff">
	<path class="st48" d="M180.6,188c1.4,0.8,2.7,1.7,4,2.6c3.3,4.9,3.2,10.9,2.5,16.5c-2-1-3.9-2-5.9-3c-0.9,0.7-1.7,1.4-2.6,2.1
		c-0.6-0.2-1.7-0.4-2.3-0.6c0.4-2.6,0.8-5.2,1.1-7.8c2,0.3,4,0.6,6.1,0.8C181.7,195.3,179.8,191.9,180.6,188z"/>
</g>
<g id="_x23_541c08ff">
	<path class="st49" d="M91,190.2c1.4-2,4-1.3,6-1.3c1,4.4-0.1,8.9-2.5,12.7c1.1,1.2,2.2,2.5,3.2,3.8c-2,1-4.2,0.9-6.4,0.5
		C90.8,200.6,90.1,195.3,91,190.2z"/>
</g>
<g id="_x23_521905ff">
	<path class="st50" d="M102.1,188.9c2-0.1,4.1-0.1,6.1-0.1c0.3,5.7-0.3,11.3-0.8,16.9c-0.9-0.1-1.8-0.1-2.6-0.2
		C103.8,199.9,100.6,194.7,102.1,188.9z"/>
</g>
<g id="_x23_501403ff">
	<path class="st51" d="M114.8,188.8c1.5-0.1,3-0.1,4.5-0.2c0.4,5.7,0.4,11.7-2.2,16.9c-0.5-0.1-1.6-0.3-2.1-0.4
		C114.2,199.7,114.6,194.2,114.8,188.8z"/>
</g>
<g id="_x23_e69a97ff">
	<path class="st52" d="M140.5,200.4c3.4-1.6,4.6-5,5.7-8.3c3.1,2.4,2.8,7.1,1.2,10.3C144.9,204.5,141.7,203.1,140.5,200.4z"/>
</g>
</svg>
