<?xml version="1.0" encoding="utf-8"?>
<!-- Generator: Adobe Illustrator 26.0.3, SVG Export Plug-In . SVG Version: 6.00 Build 0)  -->
<svg version="1.1" id="Layer_1" xmlns="http://www.w3.org/2000/svg" xmlns:xlink="http://www.w3.org/1999/xlink" x="0px" y="0px"
	 viewBox="0 0 250 250" style="enable-background:new 0 0 250 250;" xml:space="preserve">
<style type="text/css">
	.st0{fill:#7E00E9;}
	.st1{fill:#1CFF49;}
</style>
<g id="_x23_7e00e9ff">
	<path class="st0" d="M119.4,0h11.2C150,1.3,169.1,6.3,186,16c26.7,14.9,47.6,40,57.2,69c8.6,25.5,8.7,53.8,0.2,79.3
		c-9.2,28.2-29,52.6-54.3,67.8c-24.4,14.7-53.9,20.6-82,16.4c-24.8-3.4-48.4-14.7-66.8-31.7c-21-19.3-35.2-46-39-74.3
		c-0.6-4-1-7.9-1.3-11.9v-11.2c0.5-6.8,1.4-13.6,2.7-20.3c6.1-29.3,23.2-56.1,47.2-74C69.9,9.9,94.5,1.4,119.4,0 M88.1,53.3
		c-16.3,8.2-29.8,22-37.5,38.5c-5.4,11.3-7.8,23.8-7.9,36.2c0.4,8.5,1.7,17.3,6.6,24.4c4.3,6.3,11.2,10.8,18.7,12.4
		c2.8,0.4,4.4-2.7,3.4-5c-2.4-2.3-6.2-2.3-8.6-4.6c-2.9-2.4-2-7.3,0.6-9.7c6-6.1,14.6-8.6,22.6-10.9c17-4.2,34.6-4.9,52-3.9
		c9.7,0.8,19.5,2,28.8,4.8c6.6,2,13.3,4.4,18.5,9c2.6,2.3,4.3,6.2,2.6,9.5c-2.1,3.5-6.4,3.6-9.5,5.8c-0.5,1.5-0.1,3.1,0,4.6
		c4.9,1.4,9.4-1.6,13.5-3.9c10.5-6.5,14.9-19.5,14.6-31.4c0.8-17.4-4.6-35-14.5-49.2c-12.1-17.4-31.2-30-52.2-33.7
		C122.6,42.7,104,45.3,88.1,53.3 M111,140c-3.5,2.9-3.2,7.9-3.5,12c-0.5,11.1-5.7,21.2-10,31.2c-3.8,8.7-8.1,17.1-11.9,25.7
		c-1,2-1.3,4.3-1.3,6.5c4.8,1.2,9.3-1.1,13.8-2.3c13.9-4.2,28.5-6.4,41.9-12.3c3-1.5,6.4-3.3,7.6-6.7c0.9-4.8-0.8-9.4-1.8-14
		c-2.4-10.3-0.1-20.9-1.4-31.3c-0.5-3.5-2.1-7.1-5.3-8.8c-4.9-2.7-10.6-2.5-16-2.5C118.9,137.5,114.4,137.5,111,140z"/>
</g>
<g id="_x23_1cff49ff">
	<path class="st1" d="M88.1,53.3c15.9-8,34.5-10.7,52-7.3c21,3.7,40,16.3,52.2,33.7c10,14.3,15.3,31.8,14.5,49.2
		c0.3,11.9-4.1,24.9-14.6,31.4c-4.1,2.3-8.7,5.3-13.5,3.9c-0.1-1.5-0.5-3.1,0-4.6c3.1-2.1,7.4-2.3,9.5-5.8c1.7-3.3,0-7.2-2.6-9.5
		c-5.2-4.6-11.9-7.1-18.5-9c-9.4-2.8-19.1-4-28.8-4.8c-17.4-1-35-0.3-52,3.9c-8,2.3-16.6,4.7-22.6,10.9c-2.6,2.4-3.5,7.2-0.6,9.7
		c2.4,2.4,6.2,2.4,8.6,4.6c1,2.4-0.7,5.4-3.4,5c-7.4-1.6-14.4-6.1-18.7-12.4c-4.9-7.1-6.2-15.9-6.6-24.4c0.1-12.4,2.5-24.9,7.9-36.2
		C58.3,75.3,71.8,61.5,88.1,53.3z"/>
	<path class="st1" d="M111,140c3.5-2.5,7.9-2.5,12-2.5c5.4,0,11.2-0.2,16,2.5c3.2,1.8,4.8,5.3,5.3,8.8c1.3,10.4-1,21,1.4,31.3
		c1,4.6,2.8,9.2,1.8,14c-1.2,3.4-4.6,5.2-7.6,6.7c-13.4,5.9-28,8.1-41.9,12.3c-4.5,1.2-9,3.5-13.8,2.3c0-2.2,0.3-4.5,1.3-6.5
		c3.8-8.6,8.1-17,11.9-25.7c4.3-10,9.5-20.1,10-31.2C107.8,147.9,107.5,142.9,111,140z"/>
</g>
</svg>
