<?xml version="1.0" encoding="UTF-8" ?>
<!DOCTYPE svg PUBLIC "-//W3C//DTD SVG 1.1//EN" "http://www.w3.org/Graphics/SVG/1.1/DTD/svg11.dtd">
<svg width="250pt" height="250pt" viewBox="0 0 250 250" version="1.1" xmlns="http://www.w3.org/2000/svg">
<g id="#ffffffff">
<path fill="#ffffff" opacity="1.00" d=" M 0.00 0.00 L 250.00 0.00 L 250.00 250.00 L 0.00 250.00 L 0.00 0.00 M 109.38 1.41 C 85.44 4.21 62.48 14.56 44.15 30.16 C 23.58 47.68 8.79 72.02 3.34 98.54 C 0.18 112.04 0.46 126.06 1.35 139.81 C 3.45 155.33 7.68 170.74 15.44 184.42 C 31.69 214.51 60.83 237.55 94.12 245.68 C 108.72 249.51 123.94 249.77 138.92 248.72 C 161.54 246.26 183.54 237.54 201.41 223.40 C 224.52 205.51 241.38 179.29 246.80 150.47 C 249.79 137.90 249.43 124.84 248.78 112.02 C 246.17 84.08 233.43 57.25 213.60 37.40 C 198.75 22.27 179.96 11.02 159.55 5.27 C 143.38 0.13 126.13 0.26 109.38 1.41 Z" />
<path fill="#ffffff" opacity="1.00" d=" M 75.63 89.00 C 75.68 76.61 85.55 64.95 97.97 63.50 C 104.85 63.32 111.73 63.48 118.62 63.42 C 118.64 73.46 118.66 83.51 118.61 93.55 C 114.46 93.65 110.27 93.12 106.17 93.88 C 105.99 95.91 105.77 97.94 105.77 99.99 C 105.81 115.66 105.80 131.33 105.78 146.99 C 105.69 150.04 105.84 153.09 106.17 156.12 C 110.27 156.88 114.46 156.35 118.61 156.45 C 118.66 166.49 118.64 176.54 118.62 186.58 C 111.16 186.42 103.68 186.90 96.25 186.31 C 90.45 184.74 84.79 181.72 81.18 176.79 C 76.95 171.93 75.58 165.28 75.59 158.99 C 75.64 135.66 75.56 112.33 75.63 89.00 Z" />
<path fill="#ffffff" opacity="1.00" d=" M 130.81 63.70 C 133.86 63.43 136.94 63.41 140.00 63.46 C 145.94 63.57 152.11 62.80 157.74 65.17 C 165.63 67.61 171.03 74.78 173.43 82.40 C 174.96 88.14 174.27 94.17 174.39 100.04 C 174.54 102.09 173.73 103.97 172.63 105.64 C 164.44 105.93 156.24 105.80 148.05 105.75 C 146.30 105.94 144.33 104.70 144.35 102.81 C 144.18 99.83 144.11 96.84 143.82 93.87 C 139.65 93.14 135.40 93.64 131.19 93.56 C 130.16 83.67 130.87 73.64 130.81 63.70 Z" />
<path fill="#ffffff" opacity="1.00" d=" M 144.34 147.19 C 144.33 145.29 146.30 144.06 148.06 144.25 C 156.25 144.20 164.44 144.07 172.63 144.36 C 173.73 146.03 174.54 147.91 174.39 149.95 C 174.40 158.62 175.31 168.35 169.68 175.66 C 164.80 183.07 155.71 186.91 147.00 186.56 C 141.60 186.44 136.19 186.77 130.81 186.30 C 130.87 176.36 130.17 166.34 131.18 156.44 C 135.39 156.36 139.64 156.86 143.82 156.13 C 144.11 153.16 144.19 150.17 144.34 147.19 Z" />
</g>
<g id="#05bf68ff">
<path fill="#05bf68" opacity="1.00" d=" M 109.38 1.41 C 126.13 0.26 143.38 0.13 159.55 5.27 C 179.96 11.02 198.75 22.27 213.60 37.40 C 233.43 57.25 246.17 84.08 248.78 112.02 C 249.43 124.84 249.79 137.90 246.80 150.47 C 241.38 179.29 224.52 205.51 201.41 223.40 C 183.54 237.54 161.54 246.26 138.92 248.72 C 123.94 249.77 108.72 249.51 94.12 245.68 C 60.83 237.55 31.69 214.51 15.44 184.42 C 7.68 170.74 3.45 155.33 1.35 139.81 C 0.46 126.06 0.18 112.04 3.34 98.54 C 8.79 72.02 23.58 47.68 44.15 30.16 C 62.48 14.56 85.44 4.21 109.38 1.41 M 75.63 89.00 C 75.56 112.33 75.64 135.66 75.59 158.99 C 75.58 165.28 76.95 171.93 81.18 176.79 C 84.79 181.72 90.45 184.74 96.25 186.31 C 103.68 186.90 111.16 186.42 118.62 186.58 C 118.64 176.54 118.66 166.49 118.61 156.45 C 114.46 156.35 110.27 156.88 106.17 156.12 C 105.84 153.09 105.69 150.04 105.78 146.99 C 105.80 131.33 105.81 115.66 105.77 99.99 C 105.77 97.94 105.99 95.91 106.17 93.88 C 110.27 93.12 114.46 93.65 118.61 93.55 C 118.66 83.51 118.64 73.46 118.62 63.42 C 111.73 63.48 104.85 63.32 97.97 63.50 C 85.55 64.95 75.68 76.61 75.63 89.00 M 130.81 63.70 C 130.87 73.64 130.16 83.67 131.19 93.56 C 135.40 93.64 139.65 93.14 143.82 93.87 C 144.11 96.84 144.18 99.83 144.35 102.81 C 144.33 104.70 146.30 105.94 148.05 105.75 C 156.24 105.80 164.44 105.93 172.63 105.64 C 173.73 103.97 174.54 102.09 174.39 100.04 C 174.27 94.17 174.96 88.14 173.43 82.40 C 171.03 74.78 165.63 67.61 157.74 65.17 C 152.11 62.80 145.94 63.57 140.00 63.46 C 136.94 63.41 133.86 63.43 130.81 63.70 M 144.34 147.19 C 144.19 150.17 144.11 153.16 143.82 156.13 C 139.64 156.86 135.39 156.36 131.18 156.44 C 130.17 166.34 130.87 176.36 130.81 186.30 C 136.19 186.77 141.60 186.44 147.00 186.56 C 155.71 186.91 164.80 183.07 169.68 175.66 C 175.31 168.35 174.40 158.62 174.39 149.95 C 174.54 147.91 173.73 146.03 172.63 144.36 C 164.44 144.07 156.25 144.20 148.06 144.25 C 146.30 144.06 144.33 145.29 144.34 147.19 Z" />
</g>
</svg>
