<?xml version="1.0" encoding="UTF-8" ?>
<!DOCTYPE svg PUBLIC "-//W3C//DTD SVG 1.1//EN" "http://www.w3.org/Graphics/SVG/1.1/DTD/svg11.dtd">
<svg width="250pt" height="250pt" viewBox="0 0 250 250" version="1.1" xmlns="http://www.w3.org/2000/svg">
<g id="#ffffffff">
<path fill="#ffffff" opacity="1.00" d=" M 0.00 0.00 L 111.00 0.00 C 102.72 2.39 94.07 3.25 85.92 6.13 C 74.16 10.07 62.81 15.62 52.83 23.01 C 47.34 26.52 42.52 30.95 37.77 35.38 C 33.00 40.08 28.58 45.15 24.58 50.53 C 15.41 63.17 8.22 77.36 4.24 92.50 C 2.61 98.60 1.91 104.91 0.00 110.94 L 0.00 0.00 Z" />
<path fill="#ffffff" opacity="1.00" d=" M 139.16 0.00 L 250.00 0.00 L 250.00 113.75 C 248.59 105.79 247.37 97.75 245.08 89.97 C 237.69 64.71 222.10 41.83 201.19 25.84 C 192.36 18.86 182.43 13.41 172.08 9.04 C 161.63 4.27 150.16 2.93 139.16 0.00 Z" />
<path fill="#ffffff" opacity="1.00" d=" M 0.00 138.78 C 2.61 148.92 4.12 159.37 8.04 169.15 C 9.57 173.82 11.79 178.22 14.04 182.58 C 15.84 186.11 17.74 189.59 19.86 192.94 C 22.11 196.48 24.76 199.74 27.44 202.96 C 30.14 206.38 33.04 209.64 36.09 212.75 C 39.95 216.80 44.19 220.46 48.53 223.97 C 61.92 234.22 77.35 241.94 93.73 246.05 C 100.33 247.64 107.03 248.70 113.69 250.00 L 0.00 250.00 L 0.00 138.78 Z" />
<path fill="#ffffff" opacity="1.00" d=" M 247.20 151.20 C 247.90 147.10 248.76 143.03 250.00 139.06 L 250.00 250.00 L 138.84 250.00 C 145.17 247.99 151.81 247.28 158.20 245.50 C 169.35 242.64 179.88 237.81 189.78 231.99 C 194.12 229.41 198.32 226.57 202.19 223.31 C 203.55 222.15 204.86 220.93 206.20 219.74 C 210.60 216.15 214.77 212.26 218.35 207.83 C 221.58 204.42 224.59 200.79 227.19 196.87 C 230.59 192.19 233.66 187.27 236.18 182.06 C 238.32 178.15 240.02 174.02 241.59 169.86 C 244.03 163.83 246.12 157.63 247.20 151.20 Z" />
</g>
<g id="#583e90ff">
<path fill="#583e90" opacity="1.00" d=" M 111.00 0.00 L 139.16 0.00 C 150.16 2.93 161.63 4.27 172.08 9.04 C 170.97 10.36 169.87 11.68 168.77 13.01 C 174.37 16.83 180.39 20.05 185.66 24.34 C 196.51 33.12 206.50 43.21 213.76 55.21 C 218.90 63.43 223.90 71.84 226.78 81.16 C 232.62 96.17 236.24 111.99 237.98 127.99 C 238.86 135.73 238.91 143.52 239.51 151.28 C 240.02 157.49 238.93 163.99 241.59 169.86 C 240.02 174.02 238.32 178.15 236.18 182.06 C 234.86 183.43 233.45 184.71 232.05 186.00 C 231.94 177.64 233.24 169.35 233.13 161.00 C 233.31 130.64 228.44 99.66 214.74 72.31 C 210.09 62.45 203.88 53.43 197.04 44.98 C 190.11 36.51 181.45 29.66 172.44 23.53 C 166.07 19.20 159.16 15.63 151.84 13.21 C 148.34 11.97 144.53 10.97 141.88 8.19 C 141.27 7.43 140.72 6.63 140.14 5.85 C 139.89 5.95 139.39 6.15 139.14 6.25 C 136.71 7.43 134.03 8.13 131.32 7.71 C 117.42 5.98 103.15 7.48 89.85 11.82 C 83.81 13.75 78.24 16.83 72.35 19.12 C 67.36 20.85 64.98 25.92 61.27 29.27 C 54.69 35.56 48.88 42.73 44.94 50.97 C 32.46 74.62 27.65 101.51 26.86 128.02 C 26.43 138.29 25.30 148.58 26.30 158.86 C 27.24 169.21 26.51 179.67 28.07 189.98 C 28.77 194.30 28.90 198.76 27.44 202.96 C 24.76 199.74 22.11 196.48 19.86 192.94 C 20.57 189.05 21.14 185.11 20.83 181.15 C 19.55 168.47 20.32 155.72 20.12 143.00 C 19.85 131.63 21.19 120.31 22.09 108.99 C 24.43 86.29 29.99 63.47 41.75 43.70 C 46.21 36.14 52.20 29.67 57.98 23.11 C 56.26 23.08 54.54 23.04 52.83 23.01 C 62.81 15.62 74.16 10.07 85.92 6.13 C 94.07 3.25 102.72 2.39 111.00 0.00 Z" />
</g>
<g id="#ecebebff">
<path fill="#ecebeb" opacity="1.00" d=" M 139.14 6.25 C 139.39 6.15 139.89 5.95 140.14 5.85 C 140.72 6.63 141.27 7.43 141.88 8.19 C 141.08 8.21 140.28 8.23 139.48 8.25 C 139.39 7.75 139.22 6.75 139.14 6.25 Z" />
<path fill="#ecebeb" opacity="1.00" d=" M 155.81 141.74 C 159.08 141.18 162.42 141.68 165.35 143.25 C 166.27 144.39 167.10 145.61 167.95 146.80 C 167.80 149.60 167.67 152.41 167.62 155.21 C 163.63 155.49 159.71 156.30 155.80 157.06 C 155.30 155.90 154.80 154.74 154.31 153.59 C 156.45 149.98 155.84 145.72 155.81 141.74 Z" />
</g>
<g id="#6d4aaaff">
<path fill="#6d4aaa" opacity="1.00" d=" M 131.32 7.71 C 134.03 8.13 136.71 7.43 139.14 6.25 C 139.22 6.75 139.39 7.75 139.48 8.25 C 140.28 8.23 141.08 8.21 141.88 8.19 C 144.53 10.97 148.34 11.97 151.84 13.21 C 159.16 15.63 166.07 19.20 172.44 23.53 C 181.45 29.66 190.11 36.51 197.04 44.98 C 203.88 53.43 210.09 62.45 214.74 72.31 C 228.44 99.66 233.31 130.64 233.13 161.00 C 233.24 169.35 231.94 177.64 232.05 186.00 C 233.45 184.71 234.86 183.43 236.18 182.06 C 233.66 187.27 230.59 192.19 227.19 196.87 C 224.40 189.44 227.09 181.63 226.89 174.01 C 226.75 161.34 227.48 148.61 225.94 136.00 C 224.62 122.33 221.72 108.81 217.10 95.87 C 210.56 75.57 199.61 56.60 184.70 41.30 C 170.13 27.66 152.31 16.45 132.18 13.81 C 113.55 11.46 93.84 13.88 77.44 23.48 C 62.51 32.11 51.77 46.76 45.72 62.71 C 37.22 83.00 34.15 105.05 32.83 126.86 C 32.58 130.97 31.68 135.00 31.05 139.06 C 30.18 144.40 31.94 149.67 32.15 154.99 C 32.88 167.85 33.75 180.71 34.54 193.58 C 34.83 200.00 37.78 206.30 36.09 212.75 C 33.04 209.64 30.14 206.38 27.44 202.96 C 28.90 198.76 28.77 194.30 28.07 189.98 C 26.51 179.67 27.24 169.21 26.30 158.86 C 25.30 148.58 26.43 138.29 26.86 128.02 C 27.65 101.51 32.46 74.62 44.94 50.97 C 48.88 42.73 54.69 35.56 61.27 29.27 C 64.98 25.92 67.36 20.85 72.35 19.12 C 78.24 16.83 83.81 13.75 89.85 11.82 C 103.15 7.48 117.42 5.98 131.32 7.71 Z" />
</g>
<g id="#47337cff">
<path fill="#47337c" opacity="1.00" d=" M 172.08 9.04 C 182.43 13.41 192.36 18.86 201.19 25.84 C 200.88 28.63 200.76 31.77 203.17 33.74 C 212.82 43.74 219.79 55.84 227.00 67.61 C 224.58 68.22 225.97 71.98 228.22 70.97 C 236.30 92.11 242.19 114.30 243.17 137.01 C 243.32 141.91 243.67 146.80 244.24 151.67 C 245.23 151.51 246.21 151.35 247.20 151.20 C 246.12 157.63 244.03 163.83 241.59 169.86 C 238.93 163.99 240.02 157.49 239.51 151.28 C 238.91 143.52 238.86 135.73 237.98 127.99 C 236.24 111.99 232.62 96.17 226.78 81.16 C 223.90 71.84 218.90 63.43 213.76 55.21 C 206.50 43.21 196.51 33.12 185.66 24.34 C 180.39 20.05 174.37 16.83 168.77 13.01 C 169.87 11.68 170.97 10.36 172.08 9.04 Z" />
</g>
<g id="#8458c4ff">
<path fill="#8458c4" opacity="1.00" d=" M 77.44 23.48 C 93.84 13.88 113.55 11.46 132.18 13.81 C 152.31 16.45 170.13 27.66 184.70 41.30 C 199.61 56.60 210.56 75.57 217.10 95.87 C 221.72 108.81 224.62 122.33 225.94 136.00 C 227.48 148.61 226.75 161.34 226.89 174.01 C 227.09 181.63 224.40 189.44 227.19 196.87 C 224.59 200.79 221.58 204.42 218.35 207.83 C 216.67 201.96 218.56 195.96 218.79 190.04 C 219.03 184.03 219.43 178.03 220.14 172.06 C 220.71 167.33 219.72 162.63 219.25 157.95 C 217.79 127.75 209.91 97.55 194.57 71.37 C 188.90 61.19 181.14 52.39 173.13 44.01 C 173.28 46.76 173.42 49.52 173.72 52.27 C 171.85 48.12 170.85 43.66 170.53 39.13 C 169.71 40.52 168.87 41.90 168.02 43.27 C 167.38 40.97 166.79 38.65 166.22 36.34 C 165.70 36.26 164.68 36.11 164.16 36.03 C 163.06 38.27 162.01 40.54 160.96 42.80 C 160.34 42.36 159.72 41.91 159.10 41.47 C 159.93 40.30 160.77 39.14 161.63 37.99 C 155.03 32.39 146.95 28.99 138.91 26.05 C 129.96 22.83 120.35 22.47 110.95 22.70 C 108.20 22.77 105.51 23.43 102.96 24.42 C 100.83 26.57 99.27 29.17 97.73 31.75 C 98.62 29.14 99.25 26.46 99.87 23.78 C 88.87 25.84 77.98 31.07 70.84 39.89 C 72.59 39.61 74.33 39.33 76.07 38.98 C 72.64 41.01 69.87 44.19 69.32 48.25 C 69.22 46.08 69.02 43.92 68.82 41.75 C 60.62 49.13 56.50 59.63 52.66 69.69 C 49.47 78.20 47.60 87.12 45.76 95.99 C 45.14 98.47 45.67 100.99 46.28 103.41 C 46.52 106.33 46.76 109.26 46.69 112.19 C 45.69 111.28 44.71 110.33 43.75 109.37 C 41.31 116.97 42.35 124.99 41.61 132.80 C 41.25 137.14 36.40 138.48 33.29 140.48 C 33.28 141.80 33.30 143.13 33.28 144.45 C 36.11 146.14 40.37 147.29 40.65 151.20 C 41.98 160.73 41.95 170.41 43.17 179.97 C 44.12 186.91 43.12 194.04 44.93 200.88 C 46.66 207.16 46.68 214.18 50.79 219.56 C 49.97 220.99 49.25 222.48 48.53 223.97 C 44.19 220.46 39.95 216.80 36.09 212.75 C 37.78 206.30 34.83 200.00 34.54 193.58 C 33.75 180.71 32.88 167.85 32.15 154.99 C 31.94 149.67 30.18 144.40 31.05 139.06 C 31.68 135.00 32.58 130.97 32.83 126.86 C 34.15 105.05 37.22 83.00 45.72 62.71 C 51.77 46.76 62.51 32.11 77.44 23.48 M 38.34 195.25 C 38.14 195.96 37.72 197.39 37.51 198.11 C 38.46 198.03 40.37 197.87 41.32 197.79 C 40.48 196.73 40.14 194.53 38.34 195.25 Z" />
</g>
<g id="#47337dff">
<path fill="#47337d" opacity="1.00" d=" M 37.77 35.38 C 42.52 30.95 47.34 26.52 52.83 23.01 C 54.54 23.04 56.26 23.08 57.98 23.11 C 52.20 29.67 46.21 36.14 41.75 43.70 C 29.99 63.47 24.43 86.29 22.09 108.99 C 21.19 120.31 19.85 131.63 20.12 143.00 C 20.32 155.72 19.55 168.47 20.83 181.15 C 21.14 185.11 20.57 189.05 19.86 192.94 C 17.74 189.59 15.84 186.11 14.04 182.58 C 17.16 176.85 15.84 170.21 15.94 164.00 C 15.99 153.99 15.74 143.97 16.10 133.97 C 18.00 108.29 20.06 82.06 30.07 58.03 C 33.03 50.78 37.11 44.09 40.90 37.26 C 39.86 36.63 38.81 36.00 37.77 35.38 Z" />
</g>
<g id="#9b66dfff">
<path fill="#9b66df" opacity="1.00" d=" M 102.96 24.42 C 105.51 23.43 108.20 22.77 110.95 22.70 C 120.35 22.47 129.96 22.83 138.91 26.05 C 146.95 28.99 155.03 32.39 161.63 37.99 C 160.77 39.14 159.93 40.30 159.10 41.47 C 154.72 38.18 149.67 35.69 144.24 34.79 C 135.86 33.41 127.37 34.62 119.00 35.39 C 115.20 35.58 111.14 35.94 107.60 34.27 C 104.22 32.24 103.93 27.84 102.96 24.42 Z" />
</g>
<g id="#9864ddff">
<path fill="#9864dd" opacity="1.00" d=" M 70.84 39.89 C 77.98 31.07 88.87 25.84 99.87 23.78 C 99.25 26.46 98.62 29.14 97.73 31.75 C 96.63 33.58 95.26 35.65 92.88 35.74 C 87.23 36.59 81.57 37.42 76.07 38.98 C 74.33 39.33 72.59 39.61 70.84 39.89 Z" />
</g>
<g id="#614024ff">
<path fill="#614024" opacity="1.00" d=" M 97.73 31.75 C 99.27 29.17 100.83 26.57 102.96 24.42 C 103.93 27.84 104.22 32.24 107.60 34.27 C 111.14 35.94 115.20 35.58 119.00 35.39 C 127.37 34.62 135.86 33.41 144.24 34.79 C 149.67 35.69 154.72 38.18 159.10 41.47 C 159.72 41.91 160.34 42.36 160.96 42.80 C 162.01 40.54 163.06 38.27 164.16 36.03 C 164.68 36.11 165.70 36.26 166.22 36.34 C 166.79 38.65 167.38 40.97 168.02 43.27 C 168.87 41.90 169.71 40.52 170.53 39.13 C 170.85 43.66 171.85 48.12 173.72 52.27 C 174.40 54.74 175.50 57.25 175.16 59.87 C 174.33 62.69 172.07 64.78 169.85 66.57 C 163.99 69.56 157.84 72.78 151.07 72.68 C 144.48 73.08 137.91 71.89 131.84 69.33 C 133.21 69.30 134.59 69.25 135.97 69.19 C 132.02 64.18 127.71 59.21 121.77 56.54 C 122.08 59.18 122.35 61.82 122.59 64.47 C 120.31 63.21 118.06 61.91 115.80 60.62 C 113.60 61.15 111.39 61.84 109.11 61.83 C 106.09 61.27 103.44 59.56 100.70 58.26 C 101.36 63.17 103.70 67.56 105.14 72.22 C 104.76 77.11 100.26 80.88 100.24 85.91 C 100.97 90.75 104.49 94.48 107.55 98.06 C 108.07 96.09 108.58 94.11 109.09 92.14 C 110.29 99.29 105.92 105.71 103.02 111.90 C 104.85 114.15 106.65 116.44 108.61 118.59 C 106.86 121.45 104.85 124.52 105.24 128.04 C 105.19 131.35 106.66 134.87 105.18 138.04 C 101.81 145.09 96.64 151.08 93.07 157.99 C 91.41 160.20 94.00 162.08 95.51 163.45 C 108.35 173.05 123.94 177.64 138.96 182.58 C 138.72 181.34 138.49 180.10 138.25 178.86 C 139.85 179.68 141.48 180.43 143.15 181.11 C 151.69 184.75 161.08 185.39 170.26 185.24 C 163.96 185.65 157.50 185.89 151.34 184.25 C 147.61 183.26 143.96 182.02 140.19 181.17 C 140.88 185.16 142.03 189.06 143.29 192.91 C 141.76 192.65 140.23 192.38 138.70 192.12 C 139.49 197.53 139.42 203.00 139.31 208.45 C 151.45 213.78 163.14 220.06 174.96 226.04 C 178.40 227.92 182.51 229.80 186.28 227.60 C 187.04 227.28 187.79 226.95 188.53 226.62 C 188.93 228.41 189.34 230.20 189.78 231.99 C 179.88 237.81 169.35 242.64 158.20 245.50 C 151.81 247.28 145.17 247.99 138.84 250.00 L 113.69 250.00 C 107.03 248.70 100.33 247.64 93.73 246.05 C 77.35 241.94 61.92 234.22 48.53 223.97 C 49.25 222.48 49.97 220.99 50.79 219.56 C 53.92 215.47 57.28 211.57 60.37 207.45 C 62.98 204.08 65.59 200.70 68.23 197.35 C 71.07 193.46 75.24 190.05 75.86 184.99 C 77.41 174.70 78.42 164.33 79.96 154.04 C 80.99 147.20 81.68 140.32 81.99 133.42 C 80.66 133.86 79.34 134.30 78.01 134.73 C 78.65 132.33 79.31 129.93 79.96 127.53 C 76.97 127.83 73.99 128.46 70.97 128.34 C 68.42 127.86 66.31 126.20 64.12 124.91 C 60.73 121.83 57.53 118.55 54.14 115.47 C 51.83 114.21 49.16 114.29 46.62 114.27 C 46.64 113.75 46.68 112.71 46.69 112.19 C 46.76 109.26 46.52 106.33 46.28 103.41 C 50.53 94.93 53.04 84.63 61.20 78.91 C 64.37 78.46 67.45 80.09 70.54 80.64 C 70.69 79.48 70.80 78.31 70.87 77.14 C 68.94 74.26 66.18 72.05 63.96 69.40 C 66.45 68.18 68.98 67.03 71.58 66.05 C 70.68 64.73 69.77 63.41 68.87 62.08 C 69.86 61.52 70.87 60.99 71.80 60.35 C 68.86 59.89 65.93 59.34 63.02 58.75 C 66.02 55.87 69.12 52.68 69.32 48.25 C 69.87 44.19 72.64 41.01 76.07 38.98 C 81.57 37.42 87.23 36.59 92.88 35.74 C 95.26 35.65 96.63 33.58 97.73 31.75 M 126.36 40.95 C 123.47 41.16 120.76 38.34 117.96 39.91 C 113.56 41.97 114.03 47.62 112.15 51.45 C 113.63 52.95 115.27 54.25 117.06 55.36 C 117.45 54.17 117.72 52.94 117.92 51.70 C 119.13 52.29 120.35 52.88 121.58 53.45 C 123.19 50.27 124.99 47.20 126.93 44.22 C 130.75 45.77 134.85 47.12 137.76 50.21 C 139.14 51.23 140.56 53.53 142.55 52.56 C 145.38 51.19 146.59 48.14 146.90 45.18 C 151.70 44.39 155.98 46.75 160.04 48.95 C 158.83 45.72 157.00 42.79 154.77 40.17 C 150.95 40.29 147.13 40.52 143.36 41.15 C 142.57 40.30 141.78 39.46 141.00 38.62 C 136.65 41.57 131.29 40.46 126.36 40.95 M 105.17 50.52 C 103.17 50.91 100.27 52.26 101.09 54.78 C 102.62 57.57 106.04 58.50 108.68 59.97 C 108.20 58.39 107.71 56.82 107.21 55.25 C 108.43 54.55 109.65 53.87 110.87 53.19 C 109.04 52.20 107.30 50.73 105.17 50.52 M 85.56 56.27 C 85.17 57.93 84.89 59.64 84.23 61.23 C 82.72 63.25 80.31 64.28 78.23 65.58 C 78.77 69.78 79.19 74.64 83.10 77.16 C 83.72 75.17 84.01 73.01 85.11 71.20 C 87.43 70.03 90.12 69.70 92.35 68.35 C 94.11 66.37 94.11 63.52 94.74 61.07 C 91.99 58.93 88.90 57.28 85.56 56.27 M 61.49 84.15 C 58.30 90.01 55.26 96.01 53.41 102.43 C 52.52 105.00 54.04 107.52 55.33 109.65 C 59.27 115.65 65.14 120.06 71.17 123.79 C 74.24 125.89 78.06 124.35 81.15 123.10 C 83.90 121.74 87.64 120.51 87.99 116.95 C 88.57 113.55 90.92 110.95 92.42 107.96 C 91.80 102.15 89.25 96.67 86.34 91.67 C 84.41 88.17 80.24 87.24 76.62 86.60 C 71.57 85.81 66.58 84.62 61.49 84.15 Z" />
</g>
<g id="#372a69ff">
<path fill="#372a69" opacity="1.00" d=" M 201.19 25.84 C 222.10 41.83 237.69 64.71 245.08 89.97 C 247.37 97.75 248.59 105.79 250.00 113.75 L 250.00 139.06 C 248.76 143.03 247.90 147.10 247.20 151.20 C 246.21 151.35 245.23 151.51 244.24 151.67 C 243.67 146.80 243.32 141.91 243.17 137.01 C 242.19 114.30 236.30 92.11 228.22 70.97 C 228.21 69.70 227.80 68.58 227.00 67.61 C 219.79 55.84 212.82 43.74 203.17 33.74 C 200.76 31.77 200.88 28.63 201.19 25.84 Z" />
</g>
<g id="#3a2b6dff">
<path fill="#3a2b6d" opacity="1.00" d=" M 24.58 50.53 C 28.58 45.15 33.00 40.08 37.77 35.38 C 38.81 36.00 39.86 36.63 40.90 37.26 C 37.11 44.09 33.03 50.78 30.07 58.03 C 20.06 82.06 18.00 108.29 16.10 133.97 C 15.74 143.97 15.99 153.99 15.94 164.00 C 15.84 170.21 17.16 176.85 14.04 182.58 C 11.79 178.22 9.57 173.82 8.04 169.15 C 7.89 168.48 7.59 167.15 7.43 166.49 C 8.40 166.79 9.36 167.09 10.33 167.40 C 11.42 156.04 10.27 144.62 11.29 133.27 C 12.03 124.32 11.68 115.30 13.26 106.43 C 15.44 87.15 20.39 68.20 27.90 50.31 C 26.79 50.38 25.69 50.46 24.58 50.53 Z" />
</g>
<g id="#8f6848ff">
<path fill="#8f6848" opacity="1.00" d=" M 126.36 40.95 C 131.29 40.46 136.65 41.57 141.00 38.62 C 141.78 39.46 142.57 40.30 143.36 41.15 C 147.13 40.52 150.95 40.29 154.77 40.17 C 157.00 42.79 158.83 45.72 160.04 48.95 C 155.98 46.75 151.70 44.39 146.90 45.18 C 146.59 48.14 145.38 51.19 142.55 52.56 C 140.56 53.53 139.14 51.23 137.76 50.21 C 134.85 47.12 130.75 45.77 126.93 44.22 C 124.99 47.20 123.19 50.27 121.58 53.45 C 120.35 52.88 119.13 52.29 117.92 51.70 C 117.72 52.94 117.45 54.17 117.06 55.36 C 115.27 54.25 113.63 52.95 112.15 51.45 C 114.03 47.62 113.56 41.97 117.96 39.91 C 120.76 38.34 123.47 41.16 126.36 40.95 Z" />
</g>
<g id="#9965ddff">
<path fill="#9965dd" opacity="1.00" d=" M 52.66 69.69 C 56.50 59.63 60.62 49.13 68.82 41.75 C 69.02 43.92 69.22 46.08 69.32 48.25 C 69.12 52.68 66.02 55.87 63.02 58.75 C 65.93 59.34 68.86 59.89 71.80 60.35 C 70.87 60.99 69.86 61.52 68.87 62.08 C 69.77 63.41 70.68 64.73 71.58 66.05 C 68.98 67.03 66.45 68.18 63.96 69.40 C 66.18 72.05 68.94 74.26 70.87 77.14 C 70.80 78.31 70.69 79.48 70.54 80.64 C 67.45 80.09 64.37 78.46 61.20 78.91 C 53.04 84.63 50.53 94.93 46.28 103.41 C 45.67 100.99 45.14 98.47 45.76 95.99 C 47.60 87.12 49.47 78.20 52.66 69.69 Z" />
</g>
<g id="#9965deff">
<path fill="#9965de" opacity="1.00" d=" M 173.13 44.01 C 181.14 52.39 188.90 61.19 194.57 71.37 C 209.91 97.55 217.79 127.75 219.25 157.95 C 219.72 162.63 220.71 167.33 220.14 172.06 C 219.43 178.03 219.03 184.03 218.79 190.04 C 218.56 195.96 216.67 201.96 218.35 207.83 C 214.77 212.26 210.60 216.15 206.20 219.74 C 206.12 216.79 206.30 213.83 206.92 210.94 C 210.97 192.65 211.37 173.56 208.04 155.13 C 206.98 146.20 203.67 137.80 200.64 129.41 C 198.21 122.92 195.08 116.67 190.85 111.16 C 189.77 112.75 188.67 114.32 187.63 115.94 C 187.97 114.13 188.46 112.27 188.20 110.42 C 187.25 108.32 185.57 106.69 184.11 104.95 C 182.02 102.50 180.09 99.91 178.46 97.12 C 180.10 91.97 179.42 86.64 178.66 81.42 C 178.11 78.23 180.40 74.12 177.31 71.77 C 175.68 70.26 173.76 69.12 171.91 67.91 C 171.39 67.58 170.37 66.91 169.85 66.57 C 172.07 64.78 174.33 62.69 175.16 59.87 C 175.50 57.25 174.40 54.74 173.72 52.27 C 173.42 49.52 173.28 46.76 173.13 44.01 Z" />
</g>
<g id="#272057ff">
<path fill="#272057" opacity="1.00" d=" M 24.58 50.53 C 25.69 50.46 26.79 50.38 27.90 50.31 C 20.39 68.20 15.44 87.15 13.26 106.43 C 11.68 115.30 12.03 124.32 11.29 133.27 C 10.27 144.62 11.42 156.04 10.33 167.40 C 9.36 167.09 8.40 166.79 7.43 166.49 C 7.59 167.15 7.89 168.48 8.04 169.15 C 4.12 159.37 2.61 148.92 0.00 138.78 L 0.00 110.94 C 1.91 104.91 2.61 98.60 4.24 92.50 C 8.22 77.36 15.41 63.17 24.58 50.53 M 5.21 109.11 C 4.69 110.74 5.24 111.29 6.87 110.77 C 7.39 109.14 6.84 108.59 5.21 109.11 Z" />
</g>
<g id="#8f6747ff">
<path fill="#8f6747" opacity="1.00" d=" M 105.17 50.52 C 107.30 50.73 109.04 52.20 110.87 53.19 C 109.65 53.87 108.43 54.55 107.21 55.25 C 107.71 56.82 108.20 58.39 108.68 59.97 C 106.04 58.50 102.62 57.57 101.09 54.78 C 100.27 52.26 103.17 50.91 105.17 50.52 Z" />
</g>
<g id="#8e6646ff">
<path fill="#8e6646" opacity="1.00" d=" M 85.56 56.27 C 88.90 57.28 91.99 58.93 94.74 61.07 C 94.11 63.52 94.11 66.37 92.35 68.35 C 90.12 69.70 87.43 70.03 85.11 71.20 C 84.01 73.01 83.72 75.17 83.10 77.16 C 79.19 74.64 78.77 69.78 78.23 65.58 C 80.31 64.28 82.72 63.25 84.23 61.23 C 84.89 59.64 85.17 57.93 85.56 56.27 Z" />
<path fill="#8e6646" opacity="1.00" d=" M 135.83 129.09 C 136.59 128.20 137.35 127.31 138.11 126.41 C 146.98 128.56 154.04 134.55 161.48 139.47 C 155.96 140.40 152.30 135.41 148.03 132.89 C 144.55 130.16 140.21 128.98 135.83 129.09 Z" />
</g>
<g id="#4e331bff">
<path fill="#4e331b" opacity="1.00" d=" M 121.77 56.54 C 127.71 59.21 132.02 64.18 135.97 69.19 C 134.59 69.25 133.21 69.30 131.84 69.33 C 129.93 68.70 128.04 67.99 126.10 67.47 C 120.87 65.16 116.37 69.57 113.07 73.07 C 109.88 76.83 106.39 80.89 105.41 85.85 C 106.20 88.17 107.81 90.08 109.09 92.14 C 108.58 94.11 108.07 96.09 107.55 98.06 C 104.49 94.48 100.97 90.75 100.24 85.91 C 100.26 80.88 104.76 77.11 105.14 72.22 C 103.70 67.56 101.36 63.17 100.70 58.26 C 103.44 59.56 106.09 61.27 109.11 61.83 C 111.39 61.84 113.60 61.15 115.80 60.62 C 118.06 61.91 120.31 63.21 122.59 64.47 C 122.35 61.82 122.08 59.18 121.77 56.54 Z" />
<path fill="#4e331b" opacity="1.00" d=" M 105.24 128.04 C 104.85 124.52 106.86 121.45 108.61 118.59 C 110.91 121.01 113.66 122.93 116.58 124.53 C 115.52 129.26 112.10 132.93 110.37 137.38 C 108.43 141.65 107.65 146.71 109.95 151.01 C 115.82 163.18 126.62 172.36 138.25 178.86 C 138.49 180.10 138.72 181.34 138.96 182.58 C 123.94 177.64 108.35 173.05 95.51 163.45 C 94.00 162.08 91.41 160.20 93.07 157.99 C 96.64 151.08 101.81 145.09 105.18 138.04 C 106.66 134.87 105.19 131.35 105.24 128.04 Z" />
</g>
<g id="#ad8464ff">
<path fill="#ad8464" opacity="1.00" d=" M 113.07 73.07 C 116.37 69.57 120.87 65.16 126.10 67.47 C 123.32 67.85 120.12 68.08 118.16 70.35 C 117.85 73.17 119.15 76.89 122.30 77.40 C 124.53 77.89 126.83 78.00 129.10 78.16 C 127.11 78.78 125.07 79.29 123.22 80.27 C 121.87 83.31 121.79 86.71 121.21 89.95 C 121.16 90.27 121.05 90.92 120.99 91.24 C 120.59 93.34 120.11 95.43 119.64 97.52 C 117.77 98.76 115.94 100.05 114.07 101.29 C 116.15 107.67 118.85 113.82 121.22 120.09 C 119.57 121.46 118.05 122.97 116.58 124.53 C 113.66 122.93 110.91 121.01 108.61 118.59 C 106.65 116.44 104.85 114.15 103.02 111.90 C 105.92 105.71 110.29 99.29 109.09 92.14 C 107.81 90.08 106.20 88.17 105.41 85.85 C 106.39 80.89 109.88 76.83 113.07 73.07 Z" />
</g>
<g id="#d5a37cff">
<path fill="#d5a37c" opacity="1.00" d=" M 151.07 72.68 C 157.84 72.78 163.99 69.56 169.85 66.57 C 170.37 66.91 171.39 67.58 171.91 67.91 C 175.02 70.72 178.27 74.14 177.65 78.70 C 172.44 76.95 166.87 74.33 161.30 75.65 C 155.99 81.40 156.34 89.84 156.33 97.15 C 156.83 94.75 157.28 92.34 157.85 89.96 C 157.98 92.72 157.99 95.56 158.86 98.22 C 162.81 100.33 167.75 100.34 171.97 99.09 C 173.39 94.79 174.57 89.52 171.09 85.85 C 170.87 86.62 170.44 88.17 170.23 88.95 C 168.86 88.75 167.50 88.56 166.13 88.38 C 163.32 88.55 160.58 89.28 157.85 89.96 C 159.13 85.83 160.61 81.76 161.92 77.64 C 167.32 77.91 173.47 78.39 177.33 82.67 C 179.54 87.18 177.25 92.37 178.46 97.12 C 180.09 99.91 182.02 102.50 184.11 104.95 C 185.61 107.11 187.96 109.13 187.87 111.97 C 188.03 115.78 185.52 118.91 183.85 122.11 C 179.79 118.18 176.45 113.61 173.11 109.08 C 174.17 110.80 175.23 112.52 176.34 114.21 C 174.36 116.36 172.45 118.58 170.92 121.07 C 174.22 121.08 176.43 118.75 178.22 116.28 C 182.60 120.90 183.87 127.20 186.06 132.95 C 186.97 135.42 188.30 137.69 189.76 139.86 C 190.92 141.56 191.96 143.39 192.25 145.46 C 190.33 145.69 188.42 146.01 186.51 146.32 C 185.22 146.50 183.92 146.67 182.63 146.82 C 177.75 147.44 172.84 147.03 167.95 146.80 C 167.10 145.61 166.27 144.39 165.35 143.25 C 164.23 141.83 162.96 140.51 161.48 139.47 C 154.04 134.55 146.98 128.56 138.11 126.41 C 133.09 126.10 128.72 128.88 124.43 131.05 C 124.44 126.76 123.82 121.55 127.36 118.35 C 131.39 115.08 136.55 113.51 140.36 109.90 C 132.94 110.87 126.96 115.69 121.22 120.09 C 118.85 113.82 116.15 107.67 114.07 101.29 C 115.94 100.05 117.77 98.76 119.64 97.52 C 120.11 95.43 120.59 93.34 120.99 91.24 C 120.75 93.48 120.15 96.16 121.92 97.97 C 128.56 100.47 135.87 100.32 142.86 99.91 C 143.40 96.69 144.42 93.44 144.07 90.15 C 143.85 88.26 142.01 87.55 140.42 87.14 C 136.44 85.60 131.88 84.99 128.18 87.56 C 125.96 88.65 123.59 89.34 121.21 89.95 C 121.79 86.71 121.87 83.31 123.22 80.27 C 125.07 79.29 127.11 78.78 129.10 78.16 C 126.83 78.00 124.53 77.89 122.30 77.40 C 119.15 76.89 117.85 73.17 118.16 70.35 C 120.12 68.08 123.32 67.85 126.10 67.47 C 128.04 67.99 129.93 68.70 131.84 69.33 C 137.91 71.89 144.48 73.08 151.07 72.68 M 133.97 80.42 C 137.72 82.44 142.17 83.53 144.97 86.96 C 145.46 86.52 145.93 86.06 146.43 85.63 C 142.13 84.24 138.16 82.07 133.97 80.42 M 153.48 101.82 C 151.97 104.71 150.64 107.84 148.12 110.03 C 145.66 112.15 143.11 114.19 140.95 116.63 C 144.16 118.57 147.57 120.23 151.30 120.86 C 153.36 123.06 156.23 123.95 159.20 123.63 C 157.10 120.45 153.22 119.34 149.59 119.34 C 149.16 118.96 148.28 118.18 147.84 117.80 C 148.63 115.96 149.18 113.97 150.48 112.41 C 152.02 110.70 154.41 112.15 156.27 112.39 C 157.34 109.21 156.78 105.82 157.31 102.56 C 156.03 102.31 154.75 102.06 153.48 101.82 M 168.12 124.04 C 167.87 125.91 167.27 127.80 167.48 129.70 C 168.25 131.69 170.09 133.00 171.48 134.53 C 171.70 130.94 171.02 127.40 170.39 123.88 C 169.82 123.92 168.68 124.00 168.12 124.04 Z" />
<path fill="#d5a37c" opacity="1.00" d=" M 61.49 84.15 C 66.58 84.62 71.57 85.81 76.62 86.60 C 80.24 87.24 84.41 88.17 86.34 91.67 C 89.25 96.67 91.80 102.15 92.42 107.96 C 90.92 110.95 88.57 113.55 87.99 116.95 C 87.64 120.51 83.90 121.74 81.15 123.10 C 78.06 124.35 74.24 125.89 71.17 123.79 C 65.14 120.06 59.27 115.65 55.33 109.65 C 54.04 107.52 52.52 105.00 53.41 102.43 C 55.26 96.01 58.30 90.01 61.49 84.15 M 61.74 92.38 C 61.42 93.46 61.09 94.53 60.76 95.60 C 61.70 97.10 62.49 98.99 64.40 99.45 C 69.41 101.24 74.84 103.59 77.68 108.35 C 79.84 113.36 75.20 117.11 72.87 120.96 C 76.86 118.78 81.15 116.63 84.05 113.04 C 86.54 107.78 81.58 102.55 77.97 99.19 C 75.02 93.52 67.56 92.40 61.74 92.38 Z" />
</g>
<g id="#9c775aff">
<path fill="#9c775a" opacity="1.00" d=" M 171.91 67.91 C 173.76 69.12 175.68 70.26 177.31 71.77 C 180.40 74.12 178.11 78.23 178.66 81.42 C 179.42 86.64 180.10 91.97 178.46 97.12 C 177.25 92.37 179.54 87.18 177.33 82.67 C 173.47 78.39 167.32 77.91 161.92 77.64 C 160.61 81.76 159.13 85.83 157.85 89.96 C 157.28 92.34 156.83 94.75 156.33 97.15 C 156.34 89.84 155.99 81.40 161.30 75.65 C 166.87 74.33 172.44 76.95 177.65 78.70 C 178.27 74.14 175.02 70.72 171.91 67.91 Z" />
</g>
<g id="#776b9dff">
<path fill="#776b9d" opacity="1.00" d=" M 228.22 70.97 C 225.97 71.98 224.58 68.22 227.00 67.61 C 227.80 68.58 228.21 69.70 228.22 70.97 Z" />
</g>
<g id="#14100cff">
<path fill="#14100c" opacity="1.00" d=" M 133.97 80.42 C 138.16 82.07 142.13 84.24 146.43 85.63 C 145.93 86.06 145.46 86.52 144.97 86.96 C 142.17 83.53 137.72 82.44 133.97 80.42 Z" />
<path fill="#14100c" opacity="1.00" d=" M 184.11 104.95 C 185.57 106.69 187.25 108.32 188.20 110.42 C 188.46 112.27 187.97 114.13 187.63 115.94 C 186.25 118.31 184.72 120.61 183.58 123.11 C 183.68 126.51 185.21 129.69 186.06 132.95 C 183.87 127.20 182.60 120.90 178.22 116.28 C 176.43 118.75 174.22 121.08 170.92 121.07 C 172.45 118.58 174.36 116.36 176.34 114.21 C 175.23 112.52 174.17 110.80 173.11 109.08 C 176.45 113.61 179.79 118.18 183.85 122.11 C 185.52 118.91 188.03 115.78 187.87 111.97 C 187.96 109.13 185.61 107.11 184.11 104.95 Z" />
</g>
<g id="#a88568ff">
<path fill="#a88568" opacity="1.00" d=" M 128.18 87.56 C 131.88 84.99 136.44 85.60 140.42 87.14 C 136.34 87.40 132.26 87.60 128.18 87.56 Z" />
</g>
<g id="#fdfdfdff">
<path fill="#fdfdfd" opacity="1.00" d=" M 128.18 87.56 C 132.26 87.60 136.34 87.40 140.42 87.14 C 142.01 87.55 143.85 88.26 144.07 90.15 C 144.42 93.44 143.40 96.69 142.86 99.91 C 135.87 100.32 128.56 100.47 121.92 97.97 C 120.15 96.16 120.75 93.48 120.99 91.24 C 121.05 90.92 121.16 90.27 121.21 89.95 C 123.59 89.34 125.96 88.65 128.18 87.56 M 132.77 90.60 C 132.68 91.68 132.58 92.76 132.47 93.84 C 133.86 94.26 135.26 94.62 136.66 94.97 C 136.66 93.34 136.64 91.72 136.63 90.10 C 135.34 90.25 134.05 90.42 132.77 90.60 Z" />
<path fill="#fdfdfd" opacity="1.00" d=" M 170.23 88.95 C 170.44 88.17 170.87 86.62 171.09 85.85 C 174.57 89.52 173.39 94.79 171.97 99.09 C 167.75 100.34 162.81 100.33 158.86 98.22 C 157.99 95.56 157.98 92.72 157.85 89.96 C 160.58 89.28 163.32 88.55 166.13 88.38 C 165.86 89.39 165.32 91.42 165.05 92.43 C 166.36 92.84 167.68 93.22 169.01 93.57 C 169.47 92.04 169.81 90.48 170.23 88.95 Z" />
</g>
<g id="#686868ff">
<path fill="#686868" opacity="1.00" d=" M 166.13 88.38 C 167.50 88.56 168.86 88.75 170.23 88.95 C 169.81 90.48 169.47 92.04 169.01 93.57 C 167.68 93.22 166.36 92.84 165.05 92.43 C 165.32 91.42 165.86 89.39 166.13 88.38 Z" />
<path fill="#686868" opacity="1.00" d=" M 153.30 147.71 C 153.26 149.24 153.18 150.76 153.10 152.28 C 152.51 152.33 151.33 152.43 150.74 152.48 C 150.68 151.96 150.56 150.90 150.50 150.38 C 151.43 149.49 152.36 148.59 153.30 147.71 Z" />
</g>
<g id="#2a2a2aff">
<path fill="#2a2a2a" opacity="1.00" d=" M 132.77 90.60 C 134.05 90.42 135.34 90.25 136.63 90.10 C 136.64 91.72 136.66 93.34 136.66 94.97 C 135.26 94.62 133.86 94.26 132.47 93.84 C 132.58 92.76 132.68 91.68 132.77 90.60 Z" />
</g>
<g id="#927056ff">
<path fill="#927056" opacity="1.00" d=" M 61.74 92.38 C 67.56 92.40 75.02 93.52 77.97 99.19 C 72.51 97.01 66.78 94.40 60.76 95.60 C 61.09 94.53 61.42 93.46 61.74 92.38 Z" />
</g>
<g id="#af8565ff">
<path fill="#af8565" opacity="1.00" d=" M 60.76 95.60 C 66.78 94.40 72.51 97.01 77.97 99.19 C 81.58 102.55 86.54 107.78 84.05 113.04 C 81.15 116.63 76.86 118.78 72.87 120.96 C 75.20 117.11 79.84 113.36 77.68 108.35 C 74.84 103.59 69.41 101.24 64.40 99.45 C 62.49 98.99 61.70 97.10 60.76 95.60 Z" />
</g>
<g id="#9f7a5cff">
<path fill="#9f7a5c" opacity="1.00" d=" M 153.48 101.82 C 154.75 102.06 156.03 102.31 157.31 102.56 C 156.78 105.82 157.34 109.21 156.27 112.39 C 154.41 112.15 152.02 110.70 150.48 112.41 C 149.18 113.97 148.63 115.96 147.84 117.80 C 148.28 118.18 149.16 118.96 149.59 119.34 C 150.02 119.72 150.88 120.48 151.30 120.86 C 147.57 120.23 144.16 118.57 140.95 116.63 C 143.11 114.19 145.66 112.15 148.12 110.03 C 150.64 107.84 151.97 104.71 153.48 101.82 Z" />
</g>
<g id="#787495ff">
<path fill="#787495" opacity="1.00" d=" M 5.21 109.11 C 6.84 108.59 7.39 109.14 6.87 110.77 C 5.24 111.29 4.69 110.74 5.21 109.11 Z" />
</g>
<g id="#9663dbff">
<path fill="#9663db" opacity="1.00" d=" M 41.61 132.80 C 42.35 124.99 41.31 116.97 43.75 109.37 C 44.71 110.33 45.69 111.28 46.69 112.19 C 46.68 112.71 46.64 113.75 46.62 114.27 C 49.16 114.29 51.83 114.21 54.14 115.47 C 52.99 115.71 51.84 115.96 50.70 116.20 C 49.53 129.77 49.61 143.43 50.88 156.99 C 51.32 165.72 53.24 174.29 53.79 183.02 C 54.42 191.31 55.35 199.59 56.99 207.74 C 58.11 207.64 59.24 207.55 60.37 207.45 C 57.28 211.57 53.92 215.47 50.79 219.56 C 46.68 214.18 46.66 207.16 44.93 200.88 C 43.12 194.04 44.12 186.91 43.17 179.97 C 41.95 170.41 41.98 160.73 40.65 151.20 C 40.37 147.29 36.11 146.14 33.28 144.45 C 33.30 143.13 33.28 141.80 33.29 140.48 C 36.40 138.48 41.25 137.14 41.61 132.80 M 33.72 142.91 C 34.10 145.33 36.86 144.44 38.58 144.79 C 38.60 143.25 38.62 141.70 38.62 140.16 C 36.76 140.30 32.91 139.97 33.72 142.91 Z" />
</g>
<g id="#a37d5eff">
<path fill="#a37d5e" opacity="1.00" d=" M 121.22 120.09 C 126.96 115.69 132.94 110.87 140.36 109.90 C 136.55 113.51 131.39 115.08 127.36 118.35 C 123.82 121.55 124.44 126.76 124.43 131.05 C 124.45 132.28 124.48 133.50 124.50 134.73 C 123.83 136.77 123.23 138.82 122.77 140.92 C 122.30 139.88 121.83 138.84 121.36 137.81 C 118.97 140.14 115.34 142.89 117.20 146.64 C 118.49 152.44 124.01 155.36 128.45 158.54 C 131.17 160.32 132.56 163.34 134.01 166.13 C 136.63 171.38 140.26 176.02 143.15 181.11 C 141.48 180.43 139.85 179.68 138.25 178.86 C 126.62 172.36 115.82 163.18 109.95 151.01 C 107.65 146.71 108.43 141.65 110.37 137.38 C 112.10 132.93 115.52 129.26 116.58 124.53 C 118.05 122.97 119.57 121.46 121.22 120.09 Z" />
</g>
<g id="#a66ceeff">
<path fill="#a66cee" opacity="1.00" d=" M 190.85 111.16 C 195.08 116.67 198.21 122.92 200.64 129.41 C 203.67 137.80 206.98 146.20 208.04 155.13 C 211.37 173.56 210.97 192.65 206.92 210.94 C 206.30 213.83 206.12 216.79 206.20 219.74 C 204.86 220.93 203.55 222.15 202.19 223.31 C 200.99 223.37 199.78 223.42 198.59 223.48 C 200.05 218.02 202.31 212.77 203.33 207.19 C 205.57 196.08 205.38 184.66 204.61 173.42 C 203.61 160.13 199.74 147.04 193.04 135.51 C 191.94 136.95 190.84 138.40 189.76 139.86 C 188.30 137.69 186.97 135.42 186.06 132.95 C 185.21 129.69 183.68 126.51 183.58 123.11 C 184.72 120.61 186.25 118.31 187.63 115.94 C 188.67 114.32 189.77 112.75 190.85 111.16 Z" />
</g>
<g id="#a36aeaff">
<path fill="#a36aea" opacity="1.00" d=" M 50.70 116.20 C 51.84 115.96 52.99 115.71 54.14 115.47 C 57.53 118.55 60.73 121.83 64.12 124.91 C 62.80 124.33 61.46 123.82 60.12 123.31 C 58.92 130.95 58.55 138.74 59.61 146.42 C 60.05 150.83 61.31 155.44 59.76 159.78 C 58.97 162.67 57.43 165.45 57.53 168.51 C 58.29 171.63 60.79 173.88 62.34 176.61 C 63.75 178.84 63.77 181.57 64.03 184.12 C 64.34 188.64 64.80 193.16 65.32 197.66 C 66.29 197.56 67.26 197.45 68.23 197.35 C 65.59 200.70 62.98 204.08 60.37 207.45 C 59.24 207.55 58.11 207.64 56.99 207.74 C 55.35 199.59 54.42 191.31 53.79 183.02 C 53.24 174.29 51.32 165.72 50.88 156.99 C 49.61 143.43 49.53 129.77 50.70 116.20 Z" />
</g>
<g id="#242220ff">
<path fill="#242220" opacity="1.00" d=" M 149.59 119.34 C 153.22 119.34 157.10 120.45 159.20 123.63 C 156.23 123.95 153.36 123.06 151.30 120.86 C 150.88 120.48 150.02 119.72 149.59 119.34 Z" />
<path fill="#242220" opacity="1.00" d=" M 186.51 146.32 C 188.42 146.01 190.33 145.69 192.25 145.46 C 192.27 146.23 192.31 147.77 192.33 148.54 C 191.26 149.18 190.20 149.83 189.15 150.50 C 188.26 149.11 187.38 147.72 186.51 146.32 Z" />
</g>
<g id="#af73f7ff">
<path fill="#af73f7" opacity="1.00" d=" M 60.12 123.31 C 61.46 123.82 62.80 124.33 64.12 124.91 C 66.31 126.20 68.42 127.86 70.97 128.34 C 73.99 128.46 76.97 127.83 79.96 127.53 C 79.31 129.93 78.65 132.33 78.01 134.73 C 79.34 134.30 80.66 133.86 81.99 133.42 C 81.68 140.32 80.99 147.20 79.96 154.04 C 78.42 164.33 77.41 174.70 75.86 184.99 C 75.24 190.05 71.07 193.46 68.23 197.35 C 67.26 197.45 66.29 197.56 65.32 197.66 C 64.80 193.16 64.34 188.64 64.03 184.12 C 63.77 181.57 63.75 178.84 62.34 176.61 C 60.79 173.88 58.29 171.63 57.53 168.51 C 57.43 165.45 58.97 162.67 59.76 159.78 C 61.31 155.44 60.05 150.83 59.61 146.42 C 58.55 138.74 58.92 130.95 60.12 123.31 M 60.22 166.28 C 60.31 167.36 60.39 168.44 60.47 169.52 C 61.57 169.60 62.67 169.68 63.77 169.79 C 63.79 168.59 63.82 167.40 63.84 166.20 C 62.63 166.22 61.43 166.25 60.22 166.28 Z" />
</g>
<g id="#b88d6cff">
<path fill="#b88d6c" opacity="1.00" d=" M 168.12 124.04 C 168.68 124.00 169.82 123.92 170.39 123.88 C 171.02 127.40 171.70 130.94 171.48 134.53 C 170.09 133.00 168.25 131.69 167.48 129.70 C 167.27 127.80 167.87 125.91 168.12 124.04 Z" />
</g>
<g id="#d47366ff">
<path fill="#d47366" opacity="1.00" d=" M 124.43 131.05 C 128.72 128.88 133.09 126.10 138.11 126.41 C 137.35 127.31 136.59 128.20 135.83 129.09 C 140.21 128.98 144.55 130.16 148.03 132.89 C 152.30 135.41 155.96 140.40 161.48 139.47 C 162.96 140.51 164.23 141.83 165.35 143.25 C 162.42 141.68 159.08 141.18 155.81 141.74 C 155.01 141.82 154.20 141.90 153.40 141.99 C 151.45 140.75 149.61 138.62 147.08 139.04 C 142.90 139.52 138.78 138.64 134.67 138.02 C 134.05 137.92 132.80 137.72 132.18 137.62 C 129.52 136.93 127.00 135.82 124.50 134.73 C 124.48 133.50 124.45 132.28 124.43 131.05 Z" />
</g>
<g id="#eeeeeeff">
<path fill="#eeeeee" opacity="1.00" d=" M 122.77 140.92 C 123.23 138.82 123.83 136.77 124.50 134.73 C 127.00 135.82 129.52 136.93 132.18 137.62 C 132.35 139.21 132.54 140.81 132.63 142.42 C 132.56 143.22 132.42 144.83 132.34 145.64 C 131.78 147.56 131.16 149.47 130.58 151.40 C 130.10 151.46 129.15 151.59 128.67 151.66 C 126.31 148.31 124.34 144.70 122.77 140.92 Z" />
<path fill="#eeeeee" opacity="1.00" d=" M 134.67 138.02 C 138.78 138.64 142.90 139.52 147.08 139.04 C 149.61 138.62 151.45 140.75 153.40 141.99 C 153.37 143.90 153.35 145.80 153.30 147.71 C 152.36 148.59 151.43 149.49 150.50 150.38 C 150.56 150.90 150.68 151.96 150.74 152.48 C 150.89 154.05 151.04 155.62 151.19 157.19 C 148.53 157.14 145.88 157.07 143.23 156.97 C 142.83 154.89 142.44 152.82 142.06 150.74 C 143.72 150.65 145.38 150.56 147.04 150.46 C 145.36 147.99 143.69 145.52 142.05 143.03 C 141.45 145.14 140.82 147.23 140.19 149.32 C 137.54 146.01 135.73 142.13 134.67 138.02 Z" />
</g>
<g id="#ad72f6ff">
<path fill="#ad72f6" opacity="1.00" d=" M 189.76 139.86 C 190.84 138.40 191.94 136.95 193.04 135.51 C 199.74 147.04 203.61 160.13 204.61 173.42 C 205.38 184.66 205.57 196.08 203.33 207.19 C 202.31 212.77 200.05 218.02 198.59 223.48 C 199.78 223.42 200.99 223.37 202.19 223.31 C 198.32 226.57 194.12 229.41 189.78 231.99 C 189.34 230.20 188.93 228.41 188.53 226.62 C 187.79 226.95 187.04 227.28 186.28 227.60 C 188.30 223.71 190.53 219.83 193.82 216.86 C 195.97 214.62 199.18 212.43 198.89 208.92 C 198.41 204.57 196.30 200.46 196.73 196.00 C 197.38 186.43 197.05 176.30 192.12 167.78 C 189.67 170.18 187.12 172.47 184.68 174.88 C 186.81 171.00 189.28 167.29 191.06 163.23 C 193.07 158.60 192.47 153.44 192.33 148.54 C 192.31 147.77 192.27 146.23 192.25 145.46 C 191.96 143.39 190.92 141.56 189.76 139.86 Z" />
</g>
<g id="#151514ff">
<path fill="#151514" opacity="1.00" d=" M 117.20 146.64 C 115.34 142.89 118.97 140.14 121.36 137.81 C 121.83 138.84 122.30 139.88 122.77 140.92 C 124.34 144.70 126.31 148.31 128.67 151.66 C 129.04 152.21 129.77 153.31 130.14 153.87 C 125.39 152.30 121.42 149.20 117.20 146.64 Z" />
</g>
<g id="#b4b3b3ff">
<path fill="#b4b3b3" opacity="1.00" d=" M 132.18 137.62 C 132.80 137.72 134.05 137.92 134.67 138.02 C 135.73 142.13 137.54 146.01 140.19 149.32 C 140.82 147.23 141.45 145.14 142.05 143.03 C 143.69 145.52 145.36 147.99 147.04 150.46 C 145.38 150.56 143.72 150.65 142.06 150.74 C 142.44 152.82 142.83 154.89 143.23 156.97 C 145.88 157.07 148.53 157.14 151.19 157.19 C 151.04 155.62 150.89 154.05 150.74 152.48 C 151.33 152.43 152.51 152.33 153.10 152.28 C 153.18 150.76 153.26 149.24 153.30 147.71 C 153.35 145.80 153.37 143.90 153.40 141.99 C 154.20 141.90 155.01 141.82 155.81 141.74 C 155.84 145.72 156.45 149.98 154.31 153.59 C 154.80 154.74 155.30 155.90 155.80 157.06 C 149.42 158.25 142.68 158.44 136.52 156.18 C 136.94 154.66 137.69 153.15 137.58 151.54 C 136.77 150.16 135.35 149.28 134.19 148.22 C 134.03 150.54 133.90 152.87 133.82 155.20 C 132.59 154.75 131.36 154.31 130.14 153.87 C 129.77 153.31 129.04 152.21 128.67 151.66 C 129.15 151.59 130.10 151.46 130.58 151.40 C 131.16 149.47 131.78 147.56 132.34 145.64 C 132.28 146.35 132.14 147.79 132.08 148.51 C 133.63 148.11 135.18 147.70 136.73 147.32 C 135.43 145.63 134.10 143.97 132.63 142.42 C 132.54 140.81 132.35 139.21 132.18 137.62 Z" />
</g>
<g id="#fdfcfeff">
<path fill="#fdfcfe" opacity="1.00" d=" M 33.72 142.91 C 32.91 139.97 36.76 140.30 38.62 140.16 C 38.62 141.70 38.60 143.25 38.58 144.79 C 36.86 144.44 34.10 145.33 33.72 142.91 Z" />
</g>
<g id="#282828ff">
<path fill="#282828" opacity="1.00" d=" M 132.63 142.42 C 134.10 143.97 135.43 145.63 136.73 147.32 C 135.18 147.70 133.63 148.11 132.08 148.51 C 132.14 147.79 132.28 146.35 132.34 145.64 C 132.42 144.83 132.56 143.22 132.63 142.42 Z" />
</g>
<g id="#d6a47dff">
<path fill="#d6a47d" opacity="1.00" d=" M 128.45 158.54 C 124.01 155.36 118.49 152.44 117.20 146.64 C 121.42 149.20 125.39 152.30 130.14 153.87 C 131.36 154.31 132.59 154.75 133.82 155.20 C 134.49 155.45 135.84 155.93 136.52 156.18 C 142.68 158.44 149.42 158.25 155.80 157.06 C 159.71 156.30 163.63 155.49 167.62 155.21 C 168.14 155.17 169.19 155.09 169.71 155.05 C 173.34 154.83 176.99 154.78 180.59 154.23 C 182.08 153.97 183.55 153.62 185.00 153.18 C 186.40 152.32 187.77 151.40 189.15 150.50 C 190.20 149.83 191.26 149.18 192.33 148.54 C 192.47 153.44 193.07 158.60 191.06 163.23 C 189.28 167.29 186.81 171.00 184.68 174.88 C 183.00 177.48 181.76 180.42 179.57 182.65 C 176.95 184.69 173.44 184.90 170.26 185.24 C 161.08 185.39 151.69 184.75 143.15 181.11 C 140.26 176.02 136.63 171.38 134.01 166.13 C 132.56 163.34 131.17 160.32 128.45 158.54 M 159.59 161.20 C 164.36 163.51 169.73 163.67 174.91 164.07 C 174.94 163.31 174.99 161.79 175.02 161.03 C 169.92 160.43 164.53 159.04 159.59 161.20 Z" />
</g>
<g id="#b0b0b0ff">
<path fill="#b0b0b0" opacity="1.00" d=" M 167.95 146.80 C 172.84 147.03 177.75 147.44 182.63 146.82 C 181.65 148.74 181.48 150.87 181.66 153.00 C 182.50 153.04 184.16 153.13 185.00 153.18 C 183.55 153.62 182.08 153.97 180.59 154.23 C 179.09 150.62 175.49 149.24 172.04 148.20 C 171.48 150.55 170.70 152.84 169.71 155.05 C 169.19 155.09 168.14 155.17 167.62 155.21 C 167.67 152.41 167.80 149.60 167.95 146.80 Z" />
</g>
<g id="#efeff0ff">
<path fill="#efeff0" opacity="1.00" d=" M 182.63 146.82 C 183.92 146.67 185.22 146.50 186.51 146.32 C 187.38 147.72 188.26 149.11 189.15 150.50 C 187.77 151.40 186.40 152.32 185.00 153.18 C 184.16 153.13 182.50 153.04 181.66 153.00 C 181.48 150.87 181.65 148.74 182.63 146.82 Z" />
</g>
<g id="#f1f2f3ff">
<path fill="#f1f2f3" opacity="1.00" d=" M 172.04 148.20 C 175.49 149.24 179.09 150.62 180.59 154.23 C 176.99 154.78 173.34 154.83 169.71 155.05 C 170.70 152.84 171.48 150.55 172.04 148.20 Z" />
</g>
<g id="#edeeeeff">
<path fill="#edeeee" opacity="1.00" d=" M 134.19 148.22 C 135.35 149.28 136.77 150.16 137.58 151.54 C 137.69 153.15 136.94 154.66 136.52 156.18 C 135.84 155.93 134.49 155.45 133.82 155.20 C 133.90 152.87 134.03 150.54 134.19 148.22 Z" />
</g>
<g id="#b08766ff">
<path fill="#b08766" opacity="1.00" d=" M 159.59 161.20 C 164.53 159.04 169.92 160.43 175.02 161.03 C 174.99 161.79 174.94 163.31 174.91 164.07 C 169.73 163.67 164.36 163.51 159.59 161.20 Z" />
</g>
<g id="#fcf9ffff">
<path fill="#fcf9ff" opacity="1.00" d=" M 60.22 166.28 C 61.43 166.25 62.63 166.22 63.84 166.20 C 63.82 167.40 63.79 168.59 63.77 169.79 C 62.67 169.68 61.57 169.60 60.47 169.52 C 60.39 168.44 60.31 167.36 60.22 166.28 Z" />
</g>
<g id="#bb7affff">
<path fill="#bb7aff" opacity="1.00" d=" M 184.68 174.88 C 187.12 172.47 189.67 170.18 192.12 167.78 C 197.05 176.30 197.38 186.43 196.73 196.00 C 196.30 200.46 198.41 204.57 198.89 208.92 C 199.18 212.43 195.97 214.62 193.82 216.86 C 190.53 219.83 188.30 223.71 186.28 227.60 C 182.51 229.80 178.40 227.92 174.96 226.04 C 163.14 220.06 151.45 213.78 139.31 208.45 C 139.42 203.00 139.49 197.53 138.70 192.12 C 140.23 192.38 141.76 192.65 143.29 192.91 C 142.03 189.06 140.88 185.16 140.19 181.17 C 143.96 182.02 147.61 183.26 151.34 184.25 C 157.50 185.89 163.96 185.65 170.26 185.24 C 173.44 184.90 176.95 184.69 179.57 182.65 C 181.76 180.42 183.00 177.48 184.68 174.88 M 194.27 207.25 C 193.28 208.17 192.43 209.36 192.98 210.77 C 194.05 212.23 195.94 211.76 197.23 210.89 C 197.52 209.16 196.27 206.80 194.27 207.25 Z" />
</g>
<g id="#bba3dfff">
<path fill="#bba3df" opacity="1.00" d=" M 38.34 195.25 C 40.14 194.53 40.48 196.73 41.32 197.79 C 40.37 197.87 38.46 198.03 37.51 198.11 C 37.72 197.39 38.14 195.96 38.34 195.25 Z" />
</g>
<g id="#e5cefeff">
<path fill="#e5cefe" opacity="1.00" d=" M 194.27 207.25 C 196.27 206.80 197.52 209.16 197.23 210.89 C 195.94 211.76 194.05 212.23 192.98 210.77 C 192.43 209.36 193.28 208.17 194.27 207.25 Z" />
</g>
</svg>
