<?xml version="1.0" encoding="utf-8"?>
<!-- Generator: Adobe Illustrator 26.0.3, SVG Export Plug-In . SVG Version: 6.00 Build 0)  -->
<svg version="1.1" id="Layer_1" xmlns="http://www.w3.org/2000/svg" xmlns:xlink="http://www.w3.org/1999/xlink" x="0px" y="0px"
	 viewBox="0 0 250 250" style="enable-background:new 0 0 250 250;" xml:space="preserve">
<style type="text/css">
	.st0{fill:#F2CB69;}
	.st1{fill:#E9BF59;}
	.st2{fill:#EABF59;}
	.st3{fill:#E3B54D;}
	.st4{fill:#E1B24A;}
	.st5{fill:#A07A2C;}
	.st6{fill:#A5853A;}
	.st7{fill:#90722E;}
	.st8{fill:#735B26;}
	.st9{fill:#7B6129;}
	.st10{fill:#6C5624;}
	.st11{fill:#6F5928;}
	.st12{fill:#745C28;}
	.st13{fill:#745D29;}
	.st14{fill:#DBA83E;}
	.st15{fill:#785F29;}
	.st16{fill:#82682D;}
	.st17{fill:#D9A539;}
	.st18{fill:#785F27;}
	.st19{fill:#CEA147;}
	.st20{fill:#D4B253;}
	.st21{fill:#D8AE50;}
	.st22{fill:#D29B2D;}
	.st23{fill:#7F652B;}
	.st24{fill:#BD9331;}
	.st25{fill:#D7A236;}
	.st26{fill:#B57B11;}
	.st27{fill:#D6A943;}
	.st28{fill:#D0992B;}
	.st29{fill:#80662B;}
	.st30{fill:#B18A36;}
	.st31{fill:#362C14;}
	.st32{fill:#D8B256;}
	.st33{fill:#896C2D;}
	.st34{fill:#C89C3D;}
	.st35{fill:#CE9627;}
	.st36{fill:#CB9120;}
	.st37{fill:#83672A;}
	.st38{fill:#896D2F;}
	.st39{fill:#AE7510;}
	.st40{fill:#80652A;}
	.st41{fill:#836829;}
	.st42{fill:#816529;}
	.st43{fill:#C58815;}
	.st44{fill:#806528;}
	.st45{fill:#7E6428;}
	.st46{fill:#BE7D08;}
	.st47{fill:#BE7D07;}
	.st48{fill:#231A08;}
	.st49{fill:#C9A54F;}
	.st50{fill:#785F26;}
	.st51{fill:#E4BF61;}
	.st52{fill:#CE9525;}
	.st53{fill:#806428;}
	.st54{fill:#B67A0E;}
	.st55{fill:#84692C;}
	.st56{fill:#B08519;}
	.st57{fill:#C69430;}
	.st58{fill:#7A6026;}
	.st59{fill:#F3CC6A;}
	.st60{fill:#725821;}
	.st61{fill:#E8BC56;}
	.st62{fill:#6E5622;}
	.st63{fill:#C28411;}
	.st64{fill:#C78A17;}
	.st65{fill:#7A550F;}
	.st66{fill:#C8A856;}
	.st67{fill:#785E24;}
	.st68{fill:#755B24;}
	.st69{fill:#665020;}
	.st70{fill:#CDA84C;}
	.st71{fill:#C3922D;}
	.st72{fill:#B98D31;}
	.st73{fill:#DDAD43;}
	.st74{fill:#1E1607;}
	.st75{fill:#EDC35F;}
	.st76{fill:#8C743A;}
	.st77{fill:#947A3B;}
	.st78{fill:#735A22;}
	.st79{fill:#D0992C;}
	.st80{fill:#231B0A;}
	.st81{fill:#745A23;}
	.st82{fill:#C48714;}
	.st83{fill:#C3840F;}
	.st84{fill:#705722;}
	.st85{fill:#E8BF59;}
	.st86{fill:#6C541F;}
	.st87{fill:#3E2A05;}
	.st88{fill:#735922;}
	.st89{fill:#836729;}
	.st90{fill:#5C410E;}
	.st91{fill:#CBA24E;}
	.st92{fill:#7F6327;}
	.st93{fill:#261D0A;}
	.st94{fill:#211909;}
	.st95{fill:#0C0903;}
	.st96{fill:#29200D;}
	.st97{fill:#C58916;}
	.st98{fill:#795E25;}
	.st99{fill:#0E0B04;}
	.st100{fill:#241C0A;}
	.st101{fill:#684605;}
	.st102{fill:#271F0C;}
	.st103{fill:#775D25;}
	.st104{fill:#2B220E;}
	.st105{fill:#8B6E2D;}
	.st106{fill:#876A2A;}
	.st107{fill:#846729;}
	.st108{fill:#7E6227;}
	.st109{fill:#856829;}
	.st110{fill:#83692D;}
	.st111{fill:#876B2E;}
	.st112{fill:#886C2D;}
	.st113{fill:#7A6127;}
	.st114{fill:#DAB359;}
	.st115{fill:#E1B757;}
	.st116{fill:#E3BB5C;}
	.st117{fill:#816629;}
	.st118{fill:#29220F;}
	.st119{fill:#E5BF60;}
	.st120{fill:#DFAF46;}
	.st121{fill:#81672D;}
	.st122{fill:#6D5725;}
	.st123{fill:#E4B64E;}
	.st124{fill:#745C27;}
	.st125{fill:#E7BC57;}
	.st126{fill:#95752F;}
	.st127{fill:#EBC05B;}
	.st128{fill:#F1CA67;}
</style>
<g id="_x23_f2cb69ff">
	<path class="st0" d="M103.7,2.4c5.4-1.1,10.9-1.3,16.4-1.3c8.3,0.1,16.8-0.5,25,1.3c0.1,1.8,0.2,3.7,0.4,5.5
		c-1.2,0.2-2.5,0.5-3.8,0.7c-12.2-1.6-24.7-1.7-36.9,0.4C104.4,6.7,104.1,4.6,103.7,2.4z"/>
</g>
<g id="_x23_e9bf59ff">
	<path class="st1" d="M84.2,7.2c6.3-2.1,12.8-3.8,19.5-4.9c0.4,2.2,0.8,4.4,1.2,6.6c-5.7,1.1-11.3,2.4-16.8,4.2
		C86.8,11.1,85.5,9.2,84.2,7.2z"/>
</g>
<g id="_x23_eabf59ff">
	<path class="st2" d="M145.1,2.3c6.4,1.1,12.7,2.7,18.8,4.6l0,0.2c-0.2,2.2-0.5,4.5-0.8,6.7c-7-2.4-14.2-4.1-21.4-5.4
		c1.2-0.2,2.5-0.4,3.8-0.7C145.4,6,145.2,4.2,145.1,2.3z"/>
</g>
<g id="_x23_e3b54dff">
	<path class="st3" d="M68.2,14.1c5.2-2.6,10.6-4.8,16.1-6.9c1.3,2,2.6,3.9,3.8,5.9c-5.5,1.9-10.9,4-16.1,6.7
		C70.7,17.9,69.4,16,68.2,14.1z"/>
	<path class="st3" d="M149.4,37.3c1-2.8,0.1-8,4.1-8.2c-0.7,2.7-1.5,5.4-2.2,8.2C150.7,37.3,149.8,37.3,149.4,37.3z"/>
</g>
<g id="_x23_000000ff">
	<path d="M104.8,8.9c12.2-2.1,24.7-2,36.9-0.4c7.3,1.2,14.5,3,21.4,5.4c6.9,2.5,13.7,5.6,20,9.3c5.3,3.2,10.4,6.7,15.2,10.6
		c4.2,3.5,8.2,7.3,11.9,11.2c3.7,4,7.1,8.2,10.2,12.7c4.8,7,8.9,14.4,12.2,22.2c8.2,20.5,11.1,43.3,6.9,65.1
		c-1.4,7.9-3.7,15.7-6.6,23.2c-2.5,6.2-5.7,12.2-9.2,18c-3.8,6-8.1,11.7-12.9,17c-3.7,3.9-7.6,7.8-11.7,11.2
		c-3.9,3.2-8.1,6.2-12.4,9c-4.8,3.1-9.8,5.7-15,8c-4,1.7-8.1,3.3-12.3,4.7c-5.9,1.8-11.9,3.1-17.9,4.2c-13.7,1.9-27.6,1.6-41.1-1.2
		c-6.7-1.5-13.4-3.4-19.7-6c-5.5-2.3-10.8-4.8-15.9-7.9c-5-3-9.7-6.3-14.2-9.9c-8.5-7.1-16.2-15.2-22.5-24.3
		c-4.7-6.9-8.7-14.2-12-21.9C4.5,140.8,4.4,108.2,16,79.9c2.9-6.8,6.3-13.3,10.3-19.4c4-6.2,8.8-11.9,13.8-17.3
		c4.3-4.5,9.1-8.5,14-12.3c5.6-4.2,11.6-7.9,17.8-11.1c5.2-2.6,10.6-4.8,16.1-6.7C93.6,11.4,99.2,10,104.8,8.9 M124.7,15.4
		c0.3-2.2,0.3-4.5,0-6.7C123.2,10.6,123.1,13.4,124.7,15.4 M112,9.5c0,1.9-1.2,5.4,1.7,5.7C113.5,13.2,113.5,11.1,112,9.5
		 M115.9,9.3c0,2.1-1,4.9,1.5,5.9C117.3,13.2,117.9,10.7,115.9,9.3 M120.3,10.4c-0.8,1.2-0.7,3,0.1,4.1
		C121.8,14.2,121.7,10.6,120.3,10.4 M128.6,15.4c0.3-2,0.4-3.9,0.5-5.9C126.8,10.5,127,13.8,128.6,15.4 M131.4,15.3
		c2.1-1.2,1.4-3.8,1.7-5.8C130.6,10.4,131.7,13.3,131.4,15.3 M135.1,15.2c3.4,0.9,1.4-4,1.9-5.9C135,10.6,135.1,13.1,135.1,15.2
		 M103.9,10.4c0.2,2.3-0.7,5.8,2.3,6.4C106,14.6,105.8,12,103.9,10.4 M107.8,10.5c0.3,2-0.2,4.6,1.9,5.8
		C109.3,14.3,110.2,11.4,107.8,10.5 M139,16.5c2.6-1,1.8-4.2,2.2-6.3C138.2,10.8,139.2,14.2,139,16.5 M142.8,17
		c2.3-1.4,2.1-4.1,2.2-6.4C142.1,11.4,143.1,14.8,142.8,17 M99.9,11.2c0.2,2.3-0.3,5.3,2.3,6.6C102.1,15.5,102.4,12.5,99.9,11.2
		 M146.6,17.8c2.4-1.2,2.1-4.1,2.5-6.4C146.1,12.1,146.9,15.5,146.6,17.8 M96.2,12.6c0.2,1.8,0.3,3.6,0.8,5.4
		C99.9,17.5,97.8,13.6,96.2,12.6 M150.3,18.2c2.3-0.9,2.1-3.5,2.5-5.5C150.5,13.5,150.8,16.2,150.3,18.2 M92.1,13.6
		c0.5,1.9,0.1,5,2.7,5.5C94.3,17.1,94.3,14.6,92.1,13.6 M154.2,19.3c1.9-1.2,2.1-3.5,2.7-5.4C154.1,14.2,154.6,17.4,154.2,19.3
		 M88.2,14.8c0.5,2.1,0.7,4.6,2.8,5.7C90.5,18.5,90.7,15.6,88.2,14.8 M157.8,20.7c2.4-1.2,2.4-4,2.6-6.4
		C158.1,15.6,157.9,18.4,157.8,20.7 M85.2,16.5c-0.8,1.3-0.1,4.5,1.7,4.3C87.5,19.5,86.8,16.6,85.2,16.5 M114.6,16.9
		C91,19.1,67.9,29.1,51,45.8l-0.5,0.1c-24.2,22.7-37.1,57-33.2,90.1c2.2,20.8,10.7,40.7,23.9,56.9c8.2,9.4,17.4,18,28.2,24.3l0.4,0
		c10.1,6.3,21.5,10.5,33.2,12.9c37.5,8.2,79.1-6.3,103.2-36.1c13.5-14.9,21.6-34.3,24.8-54c3.5-21.2-0.5-43.2-9.6-62.5
		c-6.7-14.3-16.9-26.5-28.8-36.7l-0.5-0.1C170.8,22.9,142.2,14.3,114.6,16.9 M161.1,21c2.8-0.1,2.6-3.3,2.8-5.3
		C162.6,17.3,161.8,19.1,161.1,21 M81,17.6c0.4,2.1,0.6,4.7,2.9,5.5C83.4,21.1,83.1,18.7,81,17.6 M165.2,23.3
		c1.5-1.5,2.4-3.5,2.8-5.6C165.4,18.3,165.5,21.2,165.2,23.3 M77.2,18.8c0.3,2.2,0.8,4.6,3,5.6C79.7,22.3,79.2,20,77.2,18.8
		 M168.7,24.6c1.7-1.5,2.5-3.6,3.1-5.7C169.4,19.8,168.9,22.4,168.7,24.6 M73.7,20.5c0.2,2.2,0.8,4.9,3.3,5.6
		C76.4,24,75.4,22,73.7,20.5 M171.8,26.3c2.6-0.9,3.3-3.6,3.4-6C173,21.5,172.3,24,171.8,26.3 M69.9,22.7c0.6,1.8,1.3,3.6,2.4,5.2
		C73.8,26,72,23.4,69.9,22.7 M175.3,28c2-1,2.9-3.1,3.7-5.1C176.4,23.2,176,26,175.3,28 M67.1,25.4c-0.7,1.4,0.8,4.2,2.4,3.7
		C70.1,27.6,68.8,25,67.1,25.4 M179.1,30.1c1.5-1.6,2.6-3.4,3.2-5.5C179.9,25.5,179.2,27.8,179.1,30.1 M62.9,26.8
		c0.8,1.7,1.7,3.4,2.8,4.9C67.9,30.3,64.7,27.3,62.9,26.8 M182,31.3c2.1-0.6,3.1-2.6,3.9-4.5C183.6,27.3,182.8,29.4,182,31.3
		 M60.2,29.4c-0.7,1.4,0.9,4,2.5,3.6C63.4,31.5,61.9,28.9,60.2,29.4 M185.2,34.1c2-1.2,3.2-3.1,4-5.2
		C186.7,29.4,185.9,31.9,185.2,34.1 M56.1,31.5c1.1,1.8,2.4,3.5,4.1,4.8C59.6,34.3,58.9,31,56.1,31.5 M188.9,36.2
		c1.6-1.5,2.9-3.2,3.1-5.4C190.4,32.2,189.1,34,188.9,36.2 M53.1,33.1c0.7,2.2,1.9,4.3,4.1,5.2C56.7,36,55.1,34.3,53.1,33.1
		 M194.3,34.2c-1.3,0.4-2.6,2-2.1,3.4C193.6,38.2,196,34.9,194.3,34.2 M50,36c0.9,2,2.3,3.7,4,5.1C53.8,38.7,52.3,36.7,50,36
		 M195,41c1.5-1.4,3-3,3-5.3C196.5,37.2,195.1,38.8,195,41 M47.5,39.2c-0.3,1.5,1.6,3.7,3.2,3.4C51.3,41,49.2,38.8,47.5,39.2
		 M200.5,39.2c-1.3,0.4-2.8,1.9-2.3,3.3C199.6,43.1,202.2,39.9,200.5,39.2 M44.1,41c0.8,2,2.2,3.7,3.7,5.2
		C48.3,43.6,46.1,42.1,44.1,41 M200.1,46c2-0.9,3.7-2.3,4.2-4.6C202.3,42.4,200.9,44,200.1,46 M41,44.2c1.1,1.6,2.3,3,3.5,4.5
		c0.5-0.5,0.9-0.9,1.4-1.4C44.4,46,42.8,44.8,41,44.2 M206.4,44.5c-1.3,0.4-3.2,1.8-2.8,3.4C205.1,48.6,208.1,45.5,206.4,44.5
		 M39.2,47.5c-0.4,1.6,1.8,3.8,3.4,3.2C42.9,49.2,40.8,47.2,39.2,47.5 M205.7,51.2c2.2-0.6,3.7-2.2,4.6-4.2
		C208.2,47.8,206.5,49.2,205.7,51.2 M36,50c0.8,2.2,2.6,3.6,4.8,4.3C39.9,52.1,38,50.8,36,50 M207.8,54c2.4-0.2,4.2-1.9,5.3-4
		C210.8,50.6,209.1,52.2,207.8,54 M34.2,53.6c-0.5,1.6,1.9,3.6,3.4,3.1C37.9,55.1,35.7,53.3,34.2,53.6 M210.8,57.2
		c2-0.8,3.8-2.1,4.5-4.3C213.3,53.9,211.4,55,210.8,57.2 M31,56.2c0.8,2.3,2.8,4,5.3,3.5C34.7,58.3,32.9,57.1,31,56.2 M212.7,60.2
		c2.3-0.5,4.2-1.9,5.3-4C215.8,56.9,213.9,58.2,212.7,60.2 M29.4,60.2c-0.5,1.6,2.1,3.2,3.5,2.6C33.4,61.2,30.8,59.6,29.4,60.2
		 M214.8,63c2.2-0.1,4-1.4,5.4-3.1C218,60.2,216.3,61.5,214.8,63 M26.8,63c0.7,1.9,2.4,2.9,4,3.9c0.2-0.3,0.7-1.1,0.9-1.4
		C30.1,64.6,28.5,63.7,26.8,63 M217,66.9c2.1-0.8,4.4-1.7,5.3-3.9C220,63.5,217.9,64.6,217,66.9 M25.4,67.1c-0.3,1.6,2.2,3,3.6,2.4
		C29.5,67.9,26.7,66.3,25.4,67.1 M218.7,69.8c2.3-0.2,4.3-1.3,5.7-3.1C222.1,66.5,220.1,68,218.7,69.8 M22.8,69.9
		c0.6,2.5,3.1,3.1,5.4,2.9C26.6,71.5,24.8,70.6,22.8,69.9 M220.8,73c2.2-0.2,4.4-0.9,5.6-2.9C224.2,70.4,222.3,71.4,220.8,73
		 M222.8,77c2.1-0.7,4.4-1.5,5.2-3.8C226,74,223.5,74.6,222.8,77 M20.5,73.7c1.5,1.7,3.5,2.7,5.7,3.3C25.4,74.6,22.9,73.8,20.5,73.7
		 M18.8,77.2c1.4,1.8,3.5,2.5,5.6,2.8C23.2,78.2,21,77.5,18.8,77.2 M227.6,77.3c-1,0.2-2.8,1.1-2.3,2.4
		C226.9,81.3,231,77.1,227.6,77.3 M17.7,81c1.2,2,3.4,2.5,5.5,2.8C22,81.8,19.7,81.3,17.7,81 M225.8,83.9c2.1-0.4,4.2-1.1,5.5-2.9
		C229.2,81.2,226.6,81.5,225.8,83.9 M16.6,85.2c-0.2,1.6,3.6,2.9,4.3,1.2C20.1,85,17.9,84.3,16.6,85.2 M229.3,85.2
		c-3,1.5,1.1,2.9,2.2,1C232.9,84.8,230,84.4,229.3,85.2 M14.8,88.2c1,2.2,3.6,2.4,5.6,2.8C19.2,89.1,16.9,88.6,14.8,88.2
		 M228.6,90.9c2.1-0.3,4.4-0.6,5.6-2.6C232.1,88.6,229.7,88.9,228.6,90.9 M13.6,92.2c1.2,1.9,3.5,2.1,5.5,2.6
		C18.3,92.5,15.7,92.5,13.6,92.2 M229.9,94.9c1.9-0.6,4.2-0.8,5.4-2.7C233.4,92.6,230.2,92.2,229.9,94.9 M12.6,96.1
		c1.1,1.9,3.5,2,5.4,2.6C17.5,96.1,14.6,96.4,12.6,96.1 M233.2,96.2c-0.9,0-2.9,1.4-1.3,2c1.3,0.3,2.5,0,3.5-0.9
		C236.4,96,234,95.8,233.2,96.2 M11.2,99.9c1.4,2.3,4.1,2.3,6.5,2.2C16.5,99.6,13.6,100,11.2,99.9 M231.2,102.2c2.3,0,5,0,6.4-2.3
		C235.2,100,232.4,99.6,231.2,102.2 M10.5,104c1.6,1.8,4,2.1,6.3,2.2C15.8,103.4,12.9,103.9,10.5,104 M232.1,106.3
		c0.9-0.2,2.8-0.5,3.7-0.7c0.9,0,3.2-1.2,1.2-1.6C235.1,103.4,232.6,104,232.1,106.3 M10.4,107.7c1.1,2.2,3.7,1.8,5.8,2
		C15.1,107.5,12.4,108,10.4,107.7 M232.7,109.7c2.1-0.1,4.5,0.2,5.8-1.8C236.5,108,233.8,107.5,232.7,109.7 M9.9,112.2
		c1.2,1.6,3.5,1.2,5.3,1.5C14.8,111.1,11.7,111.6,9.9,112.2 M233.8,113.7c1.8-0.3,3.9-0.1,4.9-1.9C237,112,234.1,111.2,233.8,113.7
		 M9.5,115.8c1.2,2,3.7,1.6,5.6,1.7C14.3,115.1,11.5,115.9,9.5,115.8 M233.8,117.6c1.7-0.1,3.5-0.2,5.2-0.6
		C238.2,114.6,234.5,115.5,233.8,117.6 M10,119.5c0.2,2.9,3.6,1.4,5.3,1.2C13.6,119.9,11.8,119.6,10,119.5 M233.6,120.7
		c1.9,0.3,4.8,1.6,5.5-1.1C237.2,119.6,235.3,119.8,233.6,120.7 M9,124.7c2.1,0.3,4.2,0.2,6.3-0.2C13.3,123.5,10.9,123.1,9,124.7
		 M233.6,124.6c2,0.3,4,0.4,6,0.3C238.1,122.7,235.4,123.6,233.6,124.6 M9.5,129c2.1,0.2,4.3,0.3,5.8-1.4
		C13.3,127.7,10.6,126.7,9.5,129 M233.8,127.6c1.3,1.8,4.6,2.6,5.4-0.1C237.3,127.5,235.6,127.5,233.8,127.6 M9.8,131.5
		c0.8,2.7,4.1,1.7,5.5,0.1C13.5,131.5,11.7,131.5,9.8,131.5 M233.7,131.5c1,1.5,2.9,1.6,4.5,2.1c0.1-0.5,0.4-1.5,0.6-2.1
		C237.1,131.5,235.4,131.4,233.7,131.5 M9.5,137c2.1-0.2,5.8,1.1,6.2-2.1C13.5,135.1,10.8,134.9,9.5,137 M233.6,135.1
		c0.7,2.7,3.8,1.5,5.7,1.6C237.7,135.5,235.6,135.3,233.6,135.1 M10.2,141.2c2.2-0.2,4.9,0,6.2-2.2C14.2,139.1,11,138.4,10.2,141.2
		 M232.5,139c1,2.6,4.1,1.9,6.2,2.2C237.7,138.6,234.7,139,232.5,139 M10.6,144.9c2.4,0.2,5,0.2,6.4-2
		C14.7,142.8,11.9,142.6,10.6,144.9 M231.6,143.8c2.1,0.9,4.4,1.3,6.7,1.1C236.9,142.6,233.8,142.2,231.6,143.8 M11.6,149
		c2.2-0.2,4.9,0,6-2.4C15.4,146.8,12.3,146.3,11.6,149 M231.4,146.8c1.4,2,3.8,1.9,5.9,1.9C236,146.8,233.6,146.8,231.4,146.8
		 M12.8,152.8c2-0.4,4.4-0.4,5.3-2.5C16.2,150.8,13.7,150.7,12.8,152.8 M230.8,150.3c0.8,2.3,3.5,2.1,5.5,2.4
		C235,150.9,232.8,150.7,230.8,150.3 M13.9,156.8c1.9-0.6,4.1-0.9,5.4-2.7C17.4,154.5,14.4,154.2,13.9,156.8 M229.6,154.1
		c1.1,2.1,3.5,2.1,5.5,2.6C234.2,154.6,231.6,154.5,229.6,154.1 M17.4,158.1c-0.8,0.1-3,1.4-1.4,2.1c1.3,0.2,2.5-0.1,3.5-1
		C20.6,157.9,18.1,157.6,17.4,158.1 M229.3,158.2c-0.5,1.8,3.7,3,4.2,1.3C232.8,158.2,230.7,157.5,229.3,158.2 M15.7,163.8
		c2.1,0,5.4,0.2,5.3-2.8C19.1,161.8,17.4,162.6,15.7,163.8 M226.9,161.4c1.3,1.8,3.5,2.5,5.6,2.7C231.4,161.9,229,161.6,226.9,161.4
		 M17.8,168c2-0.5,3.9-1.4,5.5-2.8C21.1,165.4,18.5,165.5,17.8,168 M225.6,165.1c1.3,1.9,3.5,2.5,5.7,2.8
		C230.4,165.6,227.8,165.4,225.6,165.1 M18.9,171.8c2.1-0.5,4.4-1.2,5.6-3.2C22.3,168.8,20,169.6,18.9,171.8 M224.4,168.6
		c1.3,1.9,3.4,2.7,5.6,3C228.6,169.9,226.6,168.9,224.4,168.6 M20.4,175.3c2.5-0.1,4.9-1,6-3.4C24,172.1,21.7,173,20.4,175.3
		 M222.7,172c1,1.8,2.8,3,4.9,2.8C227.8,172.9,224.2,172.7,222.7,172 M22.9,179c2-0.8,4.1-1.7,5.1-3.7C26,176,23.5,176.5,22.9,179
		 M221.1,175.1c0.5,2.5,3,3.2,5.1,3.8C225.4,176.7,223.1,176,221.1,175.1 M27.5,179.2c-1,0.3-2.8,1.2-2.2,2.6
		C27,183.2,31,178.8,27.5,179.2 M218.7,178.8c1.2,2.2,3.4,3.4,5.9,3.6C223.5,180,221.2,179,218.7,178.8 M26.9,185.9
		c1.8-0.9,3.8-1.9,4.4-4C29.4,182.8,27.4,183.7,26.9,185.9 M216.9,182.1c1.2,1.8,3.1,3,5.1,3.8C221.4,183.5,219.1,182.6,216.9,182.1
		 M28.7,189.1c2.2-0.6,4.3-1.8,5.2-4C31.8,185.8,29.6,186.9,28.7,189.1 M215.1,185c0.6,2.5,2.9,3.6,5.1,4
		C219,187.1,217.1,185.9,215.1,185 M30.9,192.1c2.4-0.3,4.5-1.6,5.1-4C34,189.1,32.3,190.4,30.9,192.1 M213.4,189
		c-0.5,1.6,2,3.3,3.4,2.7C217.4,190.1,214.8,188.3,213.4,189 M36.5,192.1c-1,0.4-2.6,1.4-2.2,2.7C35.8,195.9,39.4,191.8,36.5,192.1
		 M211.4,192.2c-0.4,1.5,1.8,3.2,3.2,2.6C215,193.4,212.7,191.7,211.4,192.2 M35.9,198.2c2.1-0.3,3.8-1.7,5.1-3.2
		C38.8,195,37.1,196.4,35.9,198.2 M207.9,194.8c1.4,1.7,3,3.1,5,4.1C212.1,196.6,210.2,195.2,207.9,194.8 M41.5,198
		c-1.2,0.5-2.3,1.6-2.4,3C40.2,202.8,44.5,197.7,41.5,198 M206.4,198.2c-0.3,1.6,1.7,3.5,3.3,3.2
		C210.2,199.8,207.9,197.6,206.4,198.2 M41.5,204.3c2.2-0.5,3.7-2.2,4.5-4.3C44,200.9,42.4,202.3,41.5,204.3 M203,200
		c0.6,2.2,2.2,3.9,4.4,4.6C206.6,202.5,204.9,200.9,203,200 M47.5,203.4c-1.3,0.4-3.1,1.8-2.8,3.4C46.2,207.6,49.2,204.3,47.5,203.4
		 M201.1,203.5c-0.6,1.4,1.3,3.5,2.8,3.1C204.3,205.3,202.5,203.3,201.1,203.5 M46.9,210.2c2.2-0.7,3.8-2.4,4.3-4.7
		C49.2,206.5,47.8,208.2,46.9,210.2 M198.2,206.4c-0.5,1.4,1.3,3.5,2.8,3.2C201.6,208.1,199.7,206,198.2,206.4 M50.1,213.1
		c2-1.1,3.6-2.9,4-5.3C52.1,209,50.6,210.8,50.1,213.1 M194.8,207.8c0.4,2.3,1.8,4.4,4.2,5.1C198,210.9,196.6,209.2,194.8,207.8
		 M53,215.2c2.1-0.8,3.5-2.6,4.1-4.7C55.1,211.4,53.9,213.3,53,215.2 M192.3,211.3c-0.5,1.4,1.1,3.6,2.6,3.3
		C195.4,213.2,193.8,211,192.3,211.3 M56.2,217.9c2.2-1,3.5-3,4.2-5.2C58.1,213.7,57,215.8,56.2,217.9 M188.8,212.7
		c0.4,2.1,1.6,3.9,3.1,5.4C192,215.8,190.6,214,188.8,212.7 M59.6,220.4c2.3-1.1,3.7-3.2,3.8-5.8C61.2,215.8,59.9,217.9,59.6,220.4
		 M185.1,214.9c0.8,2.1,1.9,4.1,3.8,5.3C188.6,217.9,187.5,215.8,185.1,214.9 M63,222.2c2.3-0.9,3.1-3.2,3.9-5.3
		C64.6,217.8,63.6,220.1,63,222.2 M182.1,216.9c0.6,2.1,1.2,4.8,3.9,5.1C185.1,220,184,218.1,182.1,216.9 M67,224.1
		c1.9-1.1,2.5-3.4,3-5.4C68.3,220,66,221.9,67,224.1 M179.3,219.6c-0.6,1.4,0.7,4.2,2.4,4C182.3,222.1,181,219.5,179.3,219.6
		 M70.1,226.3c2.2-1.1,2.8-3.4,3-5.6C71.4,222.1,70.4,224.1,70.1,226.3 M175.2,221c0.8,2,1.5,4.3,3.7,5.2
		C178.2,224.2,177.6,221.6,175.2,221 M73.9,228.4c1.4-1.6,2.4-3.5,3.2-5.5C74.4,223.3,73.8,226.1,73.9,228.4 M172,222.7
		c0.5,2.1,1.3,4.1,3,5.6C174.8,226.1,174.3,223.6,172,222.7 M77,229.4c2.6-0.7,2.9-3.4,2.8-5.6C78.6,225.4,77.7,227.4,77,229.4
		 M168.5,224.3c0.5,2.2,1.1,4.5,3.2,5.7C171.3,227.8,170.6,225.5,168.5,224.3 M80.6,231.5c2.7-0.8,2.9-3.7,3.4-5.9
		C81.3,226.3,81.1,229.2,80.6,231.5 M165.2,225.6c0.3,2.1,0.4,4.8,2.8,5.7C167.6,229.2,167.1,226.9,165.2,225.6 M85.7,227.7
		c-0.4,1.7-0.7,3.5-1,5.2c1.8-1.4,2.3-3.5,3-5.5C87.2,227.5,86.2,227.7,85.7,227.7 M161.4,226.9c0.2,2.3,1,4.5,2.4,6.3
		C163.9,230.8,163.6,228.2,161.4,226.9 M88.3,234.2c2.4-1.2,2.5-4,2.4-6.4C89.3,229.7,88.5,231.9,88.3,234.2 M158.2,229.3
		c-0.7,1.4,0,3.4,1.3,4.3C161.2,233,160,228.9,158.2,229.3 M92.3,235.4c1.6-1.4,2.1-3.5,2.6-5.4C92,229.9,92.8,233.5,92.3,235.4
		 M154,229.6c0.6,1.9,0.3,4.8,2.7,5.5C156.2,233.2,156.3,230.5,154,229.6 M96.2,236.4c1.7-1.3,2.2-3.4,2-5.4
		C95.6,231,96.8,234.7,96.2,236.4 M150.2,230.9c0.6,1.9,0.4,4.5,2.6,5.4C152.3,234.4,152.8,231.3,150.2,230.9 M100.2,237.4
		c1.9-1.5,1.5-4,1.7-6.1C99.9,232.7,100.3,235.3,100.2,237.4 M104.2,238.3c1.4-1.9,1.6-4.3,1.5-6.6
		C103.6,233.2,104.3,236.1,104.2,238.3 M144.7,238.3c0.1-2.3-0.2-4.5-1-6.6C143.1,233.9,142.6,236.7,144.7,238.3 M146.6,231.1
		c0.4,2.1-0.5,5.7,2.5,6.2C148.7,235.1,149.2,232.2,146.6,231.1 M107.8,238.5c2.1-1.2,1.7-3.8,1.9-5.8
		C107.3,233.6,108.1,236.5,107.8,238.5 M112.9,239.3c0.4-2.1,0.6-4.3,0.6-6.5C111.4,234.3,111.2,237.4,112.9,239.3 M135.5,232.8
		c0,2.2-0.4,4.8,1.3,6.6C136.7,237.1,137.4,234.4,135.5,232.8 M139,232.3c0.2,2.2-0.7,5.6,2.2,6.5C141,236.4,141.4,233.6,139,232.3
		 M115.8,234c0,1.8,0,3.6,0.1,5.5c1.6-1.2,1.5-3.3,1.8-5.1C117.2,234.3,116.3,234.1,115.8,234 M120.3,234.5c-0.8,1.1-0.9,2.9,0,4.1
		C121.7,238.4,121.8,234.7,120.3,234.5 M125,239.8c0.1-2.1,0-4.3-0.2-6.4C123.1,235.2,123,238.2,125,239.8 M129.1,239.5
		c-0.1-2-0.2-4-0.4-6C127,235.1,126.8,238.4,129.1,239.5 M131.2,234c0,2-0.6,4.9,2,5.6c0-2,0-3.9-0.1-5.9
		C132.6,233.8,131.7,233.9,131.2,234z"/>
	<path d="M52.1,45.5c22.8-21.2,55.2-31.2,86-27.1c19.2,2.4,37.5,10.3,52.8,22.1c13.7,11.3,25.2,25.5,32,42
		c8.7,20.5,11.3,43.7,5.9,65.4c-3.4,16.6-11.6,31.8-21.9,45.1c-14.1,16.4-32.9,28.9-53.8,34.6c-10.5,2.8-21.3,4.4-32.1,4
		c-17.4-0.8-34.6-5.6-49.8-14.1c-11.6-6.8-21.9-15.8-30.5-26.1c-11.7-14.7-19.5-32.6-22.3-51.2c-3.5-23.4,1.1-48,12.9-68.5
		C36.8,61.7,44,53.1,52.1,45.5 M113.5,22.2c0.8,3.2,0.1,6.6,0.7,9.9c0.1,1.3,0.8,2,2.2,2.3c0.7-4.2-1.4-8.2-0.8-12.3
		C115,22.1,114,22.2,113.5,22.2 M128,23.9c-2.4,1.7-1.9,5-1.4,7.5c1.6,3,5.2,2.6,8,2.2c0.1-0.5,0.2-1.5,0.3-2
		c-2.1,0.3-4.3,0.2-6.4,0c-0.2-2-0.3-3.9-0.2-5.9c2.6-1.3,5.3-0.6,7.9,0C134.8,22.5,130.4,21.4,128,23.9 M107.2,23.1
		c0.2,3.9,0.7,7.7,1.3,11.5c0.5,0,1.5,0,2.1,0c-0.5-3.7-1.1-7.3-1.5-11C108.7,23.5,107.7,23.3,107.2,23.1 M152.1,26
		c-2.2,1.9,1.8,1.7,2.8,1.7C154.3,27,153,24.4,152.1,26 M141.5,34.9c0.5,0,1.6,0,2.1,0c4.9-0.2,3.8-8.2-0.8-8.3
		C137.9,25.9,136.2,34.6,141.5,34.9 M84.8,38.2c2.7,4,9.2,2.3,10.3-2.2c-2.1,0.6-4,1.8-6.2,2c-2.9,0.1-4.2-4.2-2-6
		c1.6-1,3.6-0.9,5.4-1.4c-0.3-0.5-0.9-1.3-1.2-1.8C86.2,27.3,81.1,34,84.8,38.2 M96.3,30.6c1.4-0.1,4.2-0.3,5.7-0.5
		c-1.3,1.2-2.9,2-4.6,2.8c0,0.9,0,2.6-0.1,3.5c2.6,0.6,5.1-0.2,7.5-1.1c-0.5-2.2-0.8-4.5-1.9-6.4C101,27.2,97.5,28.2,96.3,30.6
		 M149.4,37.3c0.5,0,1.4-0.1,1.8-0.1c0.8-2.7,1.6-5.4,2.2-8.2C149.5,29.3,150.4,34.5,149.4,37.3 M155.1,39.3
		c2.2-0.9,2.8-3.3,3.8-5.3c0.9,0.1,2.8,0.3,3.7,0.4c-0.7,2.2-1.4,4.5-2.2,6.7c0.5,0.1,1.5,0.3,1.9,0.4c0.9-2.4,1.6-4.8,2.3-7.2
		c-2-1.7-4.4-2.6-6.9-3.5C156.5,33.5,155.4,36.4,155.1,39.3 M104.6,37.9l-0.4,0.8l-0.7-0.8c-11.2,3.4-22.4,7.9-31.7,15.3
		c-13.1,9.1-23,22.5-29.3,37.1c-6.2,15.4-8.9,32.8-5.2,49.2l0,0.2c3,21.3,15.3,40.8,31.9,54.3c4.5,3.4,9.2,6.6,14.3,9.2l0,0.2
		c4.8,2.1,9.6,4.6,14.7,5.8v0.2c12.6,4.3,26.1,3.8,39.3,3.1c8.8-1.6,17.7-4.1,25.6-8.3c25.7-12,44.4-37.6,48.6-65.7
		c1.6-8.3,0.9-16.9,0.5-25.3c-3.1-23.5-15.9-45.9-35.2-59.7c-9.2-7.6-20.6-12.3-32-15.4c-8.6-1.8-17.3-2-26-1.7
		C114.2,36.4,109.3,36.4,104.6,37.9 M104.1,218.6c-1,2.7-0.7,5.5,1.1,7.7c2.2,1.1,4.6,1.2,7,1c0.1-0.5,0.4-1.4,0.5-1.9
		c-2,0-4.1,0-6.1,0c-0.2-1.8-0.6-3.7-0.9-5.5c0.6-0.5,1.7-1.4,2.3-1.8c2.1,0.2,4,0.8,5.9,1.6C112.8,215,106.7,215.7,104.1,218.6
		 M141.4,216.1c1.1,3.6,0,8.6,3.3,11.1c0.3-3.8-0.5-7.5-1.3-11.1C142.9,216.1,141.9,216.1,141.4,216.1 M120.8,217.5
		c-1.5,3.8-3.9,7.4-4.4,11.5c1-1.1,1.9-2.2,2.8-3.3c1.8,0.2,3.6,0.4,5.4,0.6c0.5,0.7,1.4,2.2,1.8,2.9c0.7-4.2-2.2-7.7-3.3-11.6
		C122.3,217.6,121.6,217.5,120.8,217.5 M130.6,217.3c0.4,3.7,0.8,7.4,1.1,11.1c2.8-0.1,5.6-0.4,8.3-1.5c-1.8-1.8-4.3-1.1-6.5-1.2
		c-0.1-2.7-0.3-5.4-0.4-8.1C132.3,217.6,131.4,217.4,130.6,217.3z"/>
	<path d="M141.3,34.2c-1-2-2-6.2,1.7-5.5c3.1,0.2,1.2,3.8,0.8,5.6C143.2,34.2,141.9,34.2,141.3,34.2z"/>
	<path d="M114.3,37.1c6.6-0.6,13.2-0.9,19.8,0c0.8,9.2,0.2,18.6,0.3,27.8c-0.8,1.5-2.4,3-2,4.9c0.6,1,1.4,1.9,2.2,2.8
		c0.7-0.3,2.1-1,2.8-1.4c0.3-0.6,0.8-1.7,1-2.3c-1.3-2.1-2.7-4.4-2.5-7c0-8.2,0-16.5,0-24.7c2.9,0.3,5.7,0.9,8.5,1.2
		c0,11.2,0.1,22.3,0,33.5c0.2,1.6-0.3,3.6,0.8,4.9c1.5,1.8,3.2,3.5,4.8,5.2c0.3,2.3,1.1,4.4,2.8,6c1.4-1.4,2.8-2.8,4.2-4.2
		c-2.8-3-7.1-3.7-10.1-6.5c-1.5-4-1.2-8.2-1.1-12.4c0.2-8.6-0.1-17.2,0-25.8c3.9,1,7.7,2.2,11.4,3.6c0,8.3,0.1,16.7-0.1,25
		c-1,1.9-3,4.2-1.4,6.4c1.8,1.9,4.8,1.2,5.6-1.3c-0.6-2.7-2.4-5.1-2.2-8c0-7.1,0-14.2,0.1-21.3c2.6,1.2,5.2,2.5,7.7,3.8
		c-0.6,7.2,1.4,14.9-1.9,21.6c-1,1.6,1.3,2.4,2.2,3.1c0.4,0,1.1-0.1,1.5-0.1c4-1.6,0.7-5.5,0.2-8.2c-0.5-5.1,0-10.2,0-15.3
		c2.4,1.4,4.8,2.8,7.3,4c-0.1,7.5,0.4,15-0.4,22.5c-1.3,1.2-2.6,2.5-3.9,3.8c-1.9,0.4-4.9-0.1-5.3,2.4c-0.8,2.5,2,4.9,4.4,3.8
		c1.1-1.3,1.3-3.2,1.8-4.8c1-1,1.9-2.1,2.9-3.1c0.5-0.5,1.4-1.4,1.9-1.8c0.2-6.9,0-13.8,0.2-20.8c3.7,2.4,6.8,5.5,9.9,8.6
		c0,14.5,0.3,29-0.2,43.5c-3,2.6-5.8,5.4-8.5,8.3c-1.5,0.6-4.2-0.3-4.6,1.8c-0.1,1.5,0,3,0,4.5c1.6-0.3,4,0.5,4.8-1.3
		c0.3-1.2,0.5-2.3,0.6-3.5c2.4-2.6,5-4.9,7.3-7.4c3.2-2.5,2.1-6.8,2.3-10.3c0-11.1-0.2-22.2,0.1-33.3c3.7,3.6,6.9,7.8,9.5,12.3
		c1.2,1.8,1.2,4,1.2,6.1c-0.1,13.8,0,27.6-0.1,41.4c-6.3-0.9-12.6-0.4-18.9-0.2c-1.4-1-3-2.8-4.9-1.9c-0.9,0.8-1.7,1.7-2.4,2.7
		c1.3,1.1,2.5,3.6,4.7,2.7c0.8-0.7,1.6-1.4,2.4-2.2c6.8,0,13.6,0,20.5,0c0.5-14.3-0.2-28.6,0.4-42.8c4.5,6.7,6.6,14.7,8.6,22.4
		c2.2,10.6,2.3,21.6,0.9,32.4c-5,0-10-0.1-14.9-0.1c-1.6-0.9-3.1-3-5.1-1.9c-2.6,1.1-2.1,5.3,0.6,6.1c2.5-0.4,4.3-2.9,7.1-2.4
		c4,0.2,8,0.2,11.9-0.2c-0.9,6.8-3.1,13.3-5.6,19.6c-6.3,0-12.7-0.9-19,0c-2.7,1.9-4.7,4.6-7.1,6.9c-2.4,0-4.6,0.8-6.1,2.7
		c0.8,1.1,1.5,2.4,2.4,3.4c1.2,0.2,2.4,0.2,3.6,0.2c0.2-5.3,4.3-8.6,8-11.7c5.9,0.1,11.7-0.1,17.6-0.2
		c-5.8,12.9-14.7,24.6-26.2,32.9c-0.1-3.5-0.1-7,0-10.4c1-1.8,2.9-3.8,1.6-5.9c-1.2-1.1-3.1-2-4.4-0.5c-2.5,1.8-0.2,4.6,1,6.4
		c0.1,4.1,0.1,8.1,0.1,12.2c-3.8,2.7-7.6,5.3-11.9,7c-0.1-6.8,0-13.5-0.1-20.3c0.1-2.3-0.2-4.9,1.2-6.9c2.4-3.8,5-7.5,7.4-11.4
		c1.6-0.9,4.6-1.1,4.3-3.7c0.5-2.6-2.6-3.4-4.5-3.6c-0.3,0.6-0.9,1.8-1.2,2.4c0.6,7.2-6.9,11.4-8.3,18.1c-0.4,8.8,0.2,17.6-0.2,26.3
		c-3.6,1.9-7.3,3.5-11.2,4.6c0.1-9-0.1-18,0-27c-0.2-2.7,1.6-4.8,3-6.8c2.1-3,4-6.1,6-9.2c1.3-0.6,2.8-1,4-1.9
		c1.2-1.8,0.3-5-2.1-4.9c-3.9-0.3-2.6,4.6-3.8,6.9c-2.4,4.2-5.5,8-7.8,12.2c-1.6,2.6-1.4,5.8-1.3,8.7c0.2,7.5,0,15,0.2,22.6
		c-2.8,0.8-5.6,1.5-8.3,2.2c0.1-8.4-0.2-16.9,0.1-25.3c1.8-1.9,1.9-4.5,1.7-7c-2.3-0.1-4.4,0.5-5.9,2.3c1.7-0.1,3.3-0.3,5-0.5
		c0,0.7-0.1,2-0.2,2.7c-1.5-0.3-3-0.7-4.5-1.1c0.8,1.1,1.6,2.2,2.4,3.3c0,8.7,0.1,17.5,0,26.2c-2.2,0.1-4.4,0.2-6.6,0.2
		c0.1-9.5-0.1-19.1,0.1-28.6c0-2.9,3-5.5,1.6-8.4c-1.4-2-4.9-0.7-4.9,1.6c0.4,2.7,2.4,5,2.1,7.8c0,9.2-0.1,18.5,0,27.8
		c-2.3,0.1-4.6,0.1-6.9,0.2c0.1-13.3-0.1-26.6,0.1-39.9c1.3-1.8,2-3.9,2-6.1c-0.7-0.3-2-0.9-2.7-1.2c-0.7,0.3-2.2,0.8-2.9,1.1
		c0.1,2.3,0.7,4.5,2,6.4c0.2,13.4,0.1,26.8,0.1,40.2c-2.6-0.1-5.2-0.3-7.8-0.5c0.1-10.4-0.1-20.8,0.1-31.2c1-1.8,3.3-4.3,1.1-6.1
		c-2-2.5-4.4,0.4-5.5,2.3c0.9,1.2,1.8,2.3,2.7,3.5c0,10.5-0.1,21,0,31.5c-2.2-0.2-4.3-0.5-6.5-0.8c0.1-8.7-0.2-17.3,0.2-26
		c1.5-1.7,3.2-4.6,0.7-6.2c-2.5-1.6-4.2,1.1-4.8,3.2c3.2,2.9,2.3,7.3,2.4,11.1c-0.1,5.9,0.1,11.9-0.2,17.8c-2.8-0.8-5.5-1.7-8.3-2.6
		c0.1-9.1,0.1-18.2,0.1-27.3c0.1-2.5-1.4-4.5-2.6-6.6c-2.2-3.6-4.6-7-7-10.5c-0.1-1.8-0.1-3.6-0.4-5.4c-1.5-0.7-3.2-0.7-4.6,0.2
		c-0.3,1.5-0.4,3-0.5,4.5c1.4,0.4,2.8,0.9,4.2,1.3c2.5,4.2,5,8.3,8.1,12.1c2.5,7.5,1.2,15.6,1.4,23.4c0.2,2.7-0.1,5.4-0.4,8.1
		c-3.8-1.5-7.5-3.1-11.2-4.7c-0.2-8.1,0-16.2-0.1-24.4c0.2-3.2-1.8-5.9-3.5-8.5c-2.2-3.6-5.4-6.9-5.4-11.5c0.3-2-2-3.2-3.6-2.1
		c-2,0.8-1.3,3.2-1.5,4.9c5.5,1.1,6.9,7.1,10.1,10.9c1.4,2.2,2.8,4.5,2.6,7.3c-0.1,7.5,0.4,15.1-0.6,22.5c-3.8-2.4-7.7-4.7-11.4-7.3
		c0-4.1,0-8.1,0.1-12.2c0.8-1.8,3-3.8,1.5-5.7c-1.2-2.3-4.9-1.8-5.4,0.8c-0.6,1.9,1.2,3.4,2,5c0.1,3.1,0.2,6.1,0.1,9.2
		c-0.2,0.3-0.7,0.9-0.9,1.2c-10.4-9.2-19.9-19.9-25.3-32.9c5.8,0.2,11.7-0.3,17.5,0.4c2.6,1.7,4.6,4.1,6.9,6.1c0,1.2,0,2.3,0,3.5
		c1.5-1.3,4.1-4,5-0.6c-1.6,0.6-3.1,1.2-4.6,2c2.1,0.5,5.7,1,5.6-2.2c0.7-3.1-2.8-3.8-5.1-3.5c-2.6-2.3-4.6-5.5-7.7-7.1
		c-6-0.7-12.1,0.1-18.2,0.1c-2.8-6.3-5-12.8-5.8-19.7c4.7,0.6,9.5,0.5,14.2,0.1c1.6,0.8,3.1,3.2,5.1,2.4c2.5-0.9,1.3-4,1.6-5.9
		c-2.5-0.4-4.8,0.5-6.6,2.1c-4.9-0.1-9.9-0.1-14.8,0C35,119.8,37,99.9,46.8,83.7c0.6,14.2,0.1,28.5,0.6,42.8c6.7,0,13.3,0.1,20,0
		c1.6,1.9,3.8,2.7,6.3,2.3c-0.1-2.2,0.5-4.8-2-5.9c1.1-1.1,2.3-2.2,3.4-3.4c2.3,2.9,5,5.5,8.2,7.3c-2.6-2.3-5.5-4.4-6.8-7.7
		c-2.5-6-4.6-12.3-5.4-18.8c3.1-0.3,6.2-0.7,9.2-1.1c6.2-0.9,12.6-0.2,18.3,2.3c3,3.2,5.5,6.9,8.8,9.9c-1-3.9-3.5-7.2-6.5-9.7
		c-1.1-1-2.2-2.1-3.3-3.2c-7.2-1.4-14.6-1.9-21.8-0.6c-2.4,0.1-4.8,0-7.1,0.8c0.1,6,2.1,11.8,4.6,17.1c-4.4-0.2-6.6-4.4-9.7-6.9
		c-1.2-1.4-2.7-2.9-2.6-5c-0.1-12,0.1-24-0.1-36c0.2-1.8-0.3-3.9,1.1-5.3c2.6-3,5.9-5.4,8.9-8c0.7,4.8,0.6,9.6,0.4,14.4
		c0.1,2.5-0.3,5.2,1.1,7.4c1.4,1.9,3.1,3.6,4.7,5.3c1.3-0.2,2.5-0.5,3.8-0.8c0,0.7-0.1,2.2-0.2,2.9c-1.6-0.6-3.2-1.2-4.8-1.8
		c0.9,2.5,4.6,5.1,6.2,1.7c1.9-3.3-2.1-5.1-4.8-4.8c-1.6-1.5-3.1-3-4.7-4.5c0.5-7.3,0.1-14.6,0.3-21.9c2.5-1.3,5-2.7,7.5-4.1
		c0,4.8,0.2,9.7,0,14.5c0,2.9-2.8,5.4-1.6,8.3c1.4,2,5.1,0.9,5.1-1.6c-0.4-2.3-2-4.4-2.1-6.8c-0.2-5.1,0.1-10.2-0.1-15.4
		c2.7-1.5,5.3-3,8-4.5c0.3,8.4,0.2,16.8,0.1,25.2c-1.1,1.5-3,3.6-1.6,5.5c1.3,2.2,5.2,1.4,5.4-1.1c0.4-1.8-1.2-3.1-2-4.5
		c-0.2-8.5,0-17-0.1-25.5c3.8-1.4,7.6-2.6,11.5-3.7c-0.3,5,0.5,10,0.3,14.9c-0.4,7.2-0.3,14.5-0.3,21.7c-1.6,1.6-3.3,3.2-4.9,4.8
		c-2,0.6-5.3,0.6-5.2,3.5c-0.4,1.6,1.3,2.6,2.3,3.4c1.5-0.2,2.6-1.2,3.8-1.9c-0.1-0.8-0.3-2.3-0.4-3.1c2.1-2,4.1-4.2,6-6.4
		c-0.1-12.4,0.1-24.8-0.1-37.3c2.7-0.8,5.6-1.3,8.4-1.7c0.2,9.4,0.2,18.8,0,28.2c-1.3,1.7-2,3.8-2.2,5.9c1.2,0.3,2.5,0.6,3.7,0.9
		c2.1-0.4,2.2-2.7,2.6-4.4c-0.8-0.7-1.6-1.4-2.4-2.1C114.3,56.2,114.3,46.6,114.3,37.1 M105.5,85.4c-2.7,2.7-2.3,6.7-1.9,10.2
		c0.4,2.6,2.9,3.9,5,5.1c-1.3,0.4-2.7,0.7-4,1.1l-0.1,0c-1.7-2.4-4.3-4.6-4.2-7.7c-0.4-3.3,1.5-6.2,2.6-9.2
		c-4.1,3.3-5.6,9.5-2.9,14.2c0.7,1,1.3,2.4,2.7,2.5c4,3.4,9.7,1.1,11.7-3.4c-1.2-0.3-2.5-0.5-3.8-0.8c-0.1-2.4-0.6-5,0.8-7.1
		c1.2-2.3,3.5-5.1,6.4-3.8c3.7,1.5,3.8,6.2,6,9.1c0.5-4.2-1.2-9-5.1-10.9c-4.3-1.3-7.9,2.8-9.6,6.3c-1.4,2.9-1.1,6.1-0.4,9.2
		c-1.3-1.3-3.1-2.3-3.8-4c-1.1-3-0.1-6.1,0.4-9c1.8-1.9,3.4-4.2,5.9-5.2c4.7-1.3,9.7,0.1,13.7,2.6c2.9,3,6.8,6.1,6.8,10.6
		c-0.1,2.8-2.1,6.8-5.5,5.8c-2.5-0.4-4.8,0.8-7,2c-1.4-1.5-3.2-2.6-5.2-2.6c-0.9,3.5-1.8,7.2-0.5,10.7c1.9-0.3,3.7-0.8,5.4-1.6
		l-0.2-1c1.7,0.2,3.4,0.4,5.1,0.6c2.5-0.8,5-1.5,7.7-1.4c2.4,1,4.8,2,7.1,3.4c4,3.6,10.1,6.2,10.6,12.3c-4.9-1.3-10-3.8-15.1-2
		c-2.8,0.7-4.6,3.3-4.9,6.1c1.6-2.5,3.4-5.7,6.9-5.5c8.2,0.6,15.8,4.8,21.7,10.4c0,0.8,0,1.6,0,2.3l-0.5,0.7
		c-3.5-5.8-10.2-8.6-16.6-9.7c0,0.2-0.1,0.5-0.2,0.7c6.4,1.1,11.6,5.5,16,10c0.4,0.9,0.8,1.8,1.2,2.7c-0.1,0.3-0.4,0.9-0.5,1.2
		c-1.4-4.2-6.1-6.2-10.1-7.1c3.5,2.4,7.1,4.8,9.7,8.2c-0.1,3.2-0.9,6.3-1.4,9.5c3.5-2.8,3.2-7.7,3.6-11.7c-0.1-3,1.6-6.6-1.1-9
		c-1.5-2.6-4.6-3.8-6.7-5.9c-0.3-7.2-6.9-13-13.5-14.6c-0.2-0.2-0.7-0.7-0.9-0.9c0.9-3.5,1.2-7.3-1.3-10.3c-1.4,0.2-2.8,0.4-4.1,0.5
		c0.9-1.9,1.8-3.8,1.6-6c0.2-4.5-3.5-7.7-6.2-10.8l-0.3,0.4C120.3,77.4,109,77.6,105.5,85.4 M165.4,88.5c-3.5,2.1-7.4,3.1-11.3,3.9
		c-1.9-1.4-4.2-0.7-6.2,0c0.2-0.7,0.6-2.1,0.9-2.7c-3.2,2.1-6.4,4.7-7.9,8.2c-0.9,3.5-1.3,7.1-2.2,10.6c5.6-4.5,11.6-10.4,19.5-9.2
		l-1.1-1.2c-5.5-1.6-10.7,1.4-14.7,5c1.4-2.7,2.5-5.9,5.4-7.4c3.5-2.2,7.6-2.6,11.6-3.2c4.3-0.7,8-3.2,12.1-4.4
		c1.5,5.2,1.4,10.6,1.4,15.9c0,3.9-0.5,8-2.5,11.4c-0.8,1.5-1.9,2.9-2.3,4.5c-1.1,0.4-2.1,2.3-3.4,1.8c-1.8-2.3-2.9-5.2-5.4-6.9
		c-3.6-2.4-8.2-2.7-12.4-2.4c3.9,1.2,8.4,1.4,11.8,4.1c2.5,1.9,3.9,4.8,4.8,7.8c-3.4-2.7-6-6.6-10.3-8c3.1,2.9,8.2,5.5,7.6,10.4
		c2.9,1.7,2.2,5.6,3.1,8.4c1.5-3.4,2.5-7,1.9-10.8c0.7-1,1.5-1.9,2-2.9c2.3-2.1,3.8-4.9,4.9-7.8c3.3-8.8,3.6-18.6,0.8-27.5
		C170.4,86.1,167.8,87,165.4,88.5 M168,92.9c0,4-3.4,6.1-6.4,7.9c0.8-0.2,2.5-0.5,3.3-0.7c-0.1,2.7-0.7,5.3-1.9,7.7
		c1.2-0.8,2.5-1.7,3.7-2.5c-1,2.9-2.2,5.8-2.8,8.9c1.8-1.7,3.4-3.7,3.8-6.2c1.1-5.6,3.4-11.2,2.4-17C169.5,91.7,168.7,92.3,168,92.9
		 M77.4,102.1c-0.3,4.9,1.1,9.6,3,14.1c1.2,1.7,2.5,3.4,4,4.9c0.4,1.5-1.4,5.1,1.7,4.4c-0.9,2.1-1.7,4.3-1.9,6.6
		c1.8-2.6,3.2-5.4,4.9-8.1c1.7-2.3,3.6-4.4,5.1-6.8c-3.7,1.9-5.6,5.6-8.7,8.2c0.7-3.9,1.7-7.9,4.6-10.8c0.9-0.7,1.9-1.4,2.8-2.1
		c-0.6-0.1-1.8-0.4-2.5-0.6c3.5-2.4,7.8-2.1,11.8-2.6c-4.3-2.2-9.7-1.2-13.4,1.7c-2.9,1.6-3.8,5.1-3.7,8.2c-1.1-1.4-2.2-2.7-3.3-4.1
		c-0.2-0.9-0.5-1.8-0.8-2.8c0.5-0.2,1.5-0.5,2-0.6c-0.7-0.8-1.3-1.5-2-2.3c0.9,0,2.6-0.1,3.5-0.2C81.7,107.4,79.1,105.1,77.4,102.1
		 M145.5,104.8c3.2-0.1,6.4,0,9.5,0.1c1.1,1,2.2,1.9,3.2,2.9c-5.2,0.3-10.9-2.3-15.6,1c4.3,0.3,8.7,0.6,13,0.7
		c1.2,0.7,2.4,1.4,3.6,2.2c1.2-0.1,2.3-0.1,3.5-0.2c-0.8-2.7-1.8-5.9-4.7-7C154.3,101.9,149.3,102.3,145.5,104.8 M101.4,120.3
		c-1.3,2.6-1.1,5.7-1.7,8.5c-1.8,2.6-5.2,4.5-4.9,8.1c0.1,3.6-4.4,5.5-3.3,9.4c1.2,0.8,2.4,1.7,3.6,2.5c2.6-2.9,4.4-6.5,6.1-10
		c-2.6,2.3-4.5,5.3-6.2,8.3c-2-1.3-1.6-3.6-1.6-5.6c4-3.4,8.2-6.8,11.7-10.8c-3.2,1.8-5.8,4.4-8.8,6.4c0.5-3.8,3.6-6.6,6.9-8.1
		c5-2.2,9.8-4.7,14.9-6.7c2.3,1,4.3,2.5,6,4.3c-4-4.1-3.3-10.1-3.7-15.4c-0.2,0-0.7,0-0.9-0.1c-0.2,3.4-0.1,6.8,0.2,10.1
		c-1.8,0.1-3.8,0.2-5.4,1.1c-0.6-0.6-1.2-1.1-1.8-1.7c0.8-2.2,1.1-4.5,1.2-6.8c-1.8,2.8-2.1,6.2-1.6,9.4c-2.2,0.7-4.4,1.5-6.6,2.3
		c1-4.2,2.6-8.1,4.6-11.9c-4.1,3.1-4.9,8.3-6.4,12.8c-0.5,0.3-1.5,0.8-2,1.1c-0.3-7.2,4.3-13.1,9.3-17.7
		C106.8,112.5,103.3,116,101.4,120.3 M131.3,109c1.8,3.1,3.9,6.1,5.7,9.2c0.4,0.1,1.2,0.3,1.6,0.4
		C136.5,115.2,135.4,110.6,131.3,109 M125.8,123.3c0.4,0.1,1.2,0.4,1.7,0.5c-0.1-3.4-0.6-6.9-2-10.1
		C125,116.9,125.4,120.1,125.8,123.3 M91.7,131.3c-2.2-2.4,1.5-5.3,1.8-7.9c-2.5,2-4.9,4.9-4.1,8.4c0.6,2.8,0.1,5.6-1,8.1
		c1.3-1.9,2.4-4.5,5.2-3.9c-0.3-0.8-0.9-2.4-1.2-3.2c2-6.2,5.2-12.1,9.3-17.2C96.7,119.6,93.8,125.5,91.7,131.3 M109.2,135.1
		c-0.5,2.1,1.4,3.3,2.8,4.4c-4.1,2.1-8.6,3.5-12.1,6.6c-2.1,1.7-3.2,4.2-4.7,6.4c-3.2-0.2-6.3-0.2-9.5-0.2c1.3-2.5,3.5-5.3,2.3-8.3
		c-0.5-2.4-2.8-3.4-4.7-4.6c-2.2-1.7-3.4-4.9-6.5-5.1c-3.8,0.1-8.1,1-9.9,4.7c-3.8,0.9-4,5.5-3.5,8.7c0.9,1.8,2.5,3.1,3.8,4.6
		c-3.3,0.1-6.7,0.1-10,0.1c0,0.3-0.1,1-0.1,1.3c6,0.1,12,0.2,18,0.1c3.5,0.2,7,0.1,10.6,0c2.9,0.1,5.8,0,8.7-0.1
		c0.4,1.9,0.7,3.8,1.2,5.6c1.9-3.2,1.3-7.2,3.5-10.2c2.2-3.3,6.1-4.8,9.5-6.3c4.5-1.9,8.8-4.1,13.4-5.6c1.4,1.3,2.7,2.6,4,3.9
		c0.2-0.6,0.7-1.7,0.9-2.3c5.6-0.8,11.1,1.8,16.1,4.1c4.5,2,7.7,5.8,11,9.2c0.9,4.5,1,10.3-3.2,13.2c-0.4-2.5-0.8-5-1.5-7.4
		c-3.5,0.2-5.4-3.4-8.2-4.9c2.6,3.7,6.2,6.8,7.9,11.1c0.4,1.9,1.2,6.3-2.2,4.7c-2.5-2.8-3.7-6.4-5.7-9.5c-0.3-0.5-0.8-0.7-1.3-0.8
		c1.3,2.4,2.2,4.9,2.7,7.6c-1.2-1.2-2.4-2.4-3.6-3.5c-0.8-3.7-3.6-6.9-7-8.5c-1.8-1.2-4.6-1.6-5.2-4.1c1.9-0.8,3.8-1.4,5.5-2.6
		c0.8-1.5-0.6-2.8-1.1-4.1c-0.9,1-1.8,2-2.7,3.1c-0.4-1.3,0.1-2.6,0.9-3.7c-3.9-0.3-12.2-0.5-10.9,5.6c2.1,0.6,4.2,1.3,6.3,1.9
		c-1.9,5.2-8,5.9-12.2,8.3c-1.5,0.5-2.5,2-3.8,2.9l-0.5-1.4c0.8-1.4,1.6-2.8,2.4-4.2c-2.7,1.8-4.1,4.8-5.5,7.6
		c-0.2-3.7,1.6-7,2.7-10.4c-4.2,4.2-5.3,10.7-4.2,16.3c0.9,2.1,3.3,2.1,5.2,1.6c-0.5-1-1-1.9-1.5-2.9c2.2-3.2,4.5-6.4,7.1-9.4
		c1.2,0.1,2.3,0.1,3.4,0.2c2.5-2.4,6-3.4,8.1-6.4c2.3,1.5,4.7,3,6.5,5.1c-3.3,0.6-6.6,1.4-9.9,2.1c0.9,0.8,1.8,1.6,2.8,2.4
		c2.1-2.9,5.8-2.8,8.9-3.6c1.4,2.1,2.7,4.3,4,6.5c0.3,2.7,3.4,3.7,5.7,4.1c1.5,0.8,2.9,2.2,4.7,1.9c1.7-1,1.9-3,2.4-4.7
		c3.9-2.6,4.8-7.4,5.1-11.8c6.7,0,13.4-0.3,20.1-0.5c5.1,0.7,10.2-0.2,15.3,0c0-0.3,0-0.9,0-1.2c-1.8-0.1-3.6-0.1-5.5-0.1
		c0.3-2.7,0.4-5.4,0.2-8.1c-1.9-1.6-3.2-3.7-4.4-5.8c-1.1-0.4-2.2-0.8-3.4-1.3c-3.2-3.2-7.6-0.5-10,2.2c-2.2,0.7-4.7,1.1-6,3.2
		c-2.3,2.6-2.2,6.2-2.1,9.5c-1.8,0.1-3.7,0.3-5.5,0c-3.4-5.6-9.1-9.2-14.8-12.2c0.5-1.7,1.4-3.3,1.3-5.1c-1.1-2.3-3.9-4.2-6.4-2.9
		c-1.8,0.9-1.9,3.1-2.5,4.8c-2.6-0.3-5.1,0-7.6,0.7c-2-0.6-4.1-0.9-6.3-0.8c0.4-3.2-1.9-5.3-4.7-6.2
		C112,131.3,109.1,132.3,109.2,135.1 M96.8,162.1c-0.2,3.2,2.5,5.4,4.8,7.1c0.7-3.3-3.5-5-3.1-8.1c0.8-3.1,2.3-5.9,3.2-8.9
		C99.4,155,97.4,158.3,96.8,162.1z"/>
	<path d="M49.3,78.5c2.7-4.7,6-9,9.9-12.8c0.4,13.1,0,26.2,0.2,39.3c-0.1,1.6,0.6,3,1.8,4c2.6,2.7,5.2,5.2,7.8,7.9
		c0.2,1.2,0.5,2.3,0.7,3.5c0.1,1.1,0.1,2.2,0.2,3.2c-1,0.5-1.9,1.1-2.8,1.6c-6.2-0.5-12.4-0.7-18.6,0.1c-0.1-13.8,0-27.5-0.1-41.3
		C48.6,82.2,48.3,80.1,49.3,78.5z"/>
	<path d="M80.1,68.5c1.6-0.6,2.2,0,1.7,1.6C80.1,70.7,79.5,70.2,80.1,68.5z"/>
	<path d="M112.4,68.2c1-1.6,3.4,0.3,2.3,1.7C113.6,71.5,111.2,69.6,112.4,68.2z"/>
	<path d="M134.1,68.2c1-1.5,3.5,0.2,2.4,1.6C135.4,71.3,132.8,69.7,134.1,68.2z"/>
	<path d="M166.4,68.4c0.6-0.1,1.8-0.2,2.4-0.3c0,0.8-0.1,2.5-0.1,3.3c-0.4,0-1.2,0.1-1.6,0.1C166.8,70.4,166.6,69.4,166.4,68.4z"/>
	<path d="M89.4,71.2c1-1.6,3.4,0.2,2.3,1.6C90.7,74.4,88.2,72.6,89.4,71.2z"/>
	<path d="M168.3,81.4c1.3-1.5,3.7,0.6,2.3,2C169.3,84.8,166.7,82.7,168.3,81.4z"/>
	<path d="M94.5,83.1c1.4-1.6,3.6,1,2,2.3C95.1,86.7,93.1,84.4,94.5,83.1z"/>
	<path d="M152.1,83.3c0.9-1.5,3.5,0,2.4,1.5C153.5,86.4,150.8,84.8,152.1,83.3z"/>
	<path d="M122.3,102.7c1.3,0,2.6,0,3.9-0.1c0.3,1,1,2.8,1.3,3.8c-1.4,0.3-2.8,0.8-4.2,1.2C123,105.9,122.7,104.3,122.3,102.7z"/>
	<path d="M70.2,118.8c-0.3-1.6,1.7-1.7,2.8-1.5l0.6,0.5C73.8,119.7,70.8,121,70.2,118.8z"/>
	<path d="M176.3,117.2c1.9-0.8,3.1,2.5,0.9,2.8C175.3,120.5,174.3,117.6,176.3,117.2z"/>
	<path d="M70.2,125.1c1.7-0.6,2.2,0,1.8,1.6C70.3,127.2,69.8,126.7,70.2,125.1z"/>
	<path d="M55.2,138.4c1.7-0.5,2.2,0,1.7,1.6C55.3,140.6,54.7,140.1,55.2,138.4z"/>
	<path d="M69.2,142c0.2-1.3-0.1-3.3,1.4-3.8c1.2,2.4,1.9,5,2.1,7.7C71.3,144.8,68.8,144.2,69.2,142z"/>
	<path d="M77.3,137.6c1.6,1.2,2.6,3,3.6,4.7c-1.5,1.2-3.3,2.1-5.2,2.2C75.6,142.1,76.2,139.8,77.3,137.6z"/>
	<path d="M173.5,139.2c2.2,1,1.6,4.3,1.9,6.3c-2.2,0.4-3.9-0.8-5.2-2.4C171.2,141.8,172.3,140.4,173.5,139.2z"/>
	<path d="M180.4,141.1c2.1,2.1,0.8,4.8-0.4,6.9c-0.7-0.2-2.1-0.5-2.8-0.7C178.3,145.2,179.4,143.1,180.4,141.1z"/>
	<path d="M164.9,149.3c-1.8-1.9-0.1-4.6,1.1-6.4c0.5,1.9,1.1,3.8,1.7,5.8C167,148.9,165.6,149.2,164.9,149.3z"/>
	<path d="M83.5,149.3c-2.7-1.1,0.2-4.9,2.1-5.5C85.5,145.7,86.7,150.3,83.5,149.3z"/>
	<path d="M69.7,148.9c2.6-1.3,5.7-2.3,8.5-1.1c1.7,0.8,2.3,2.8,3.2,4.3c-3.5,0.3-7,0.4-10.5,0.1c-0.4-0.2-1.2-0.5-1.6-0.7
		C69.4,150.9,69.6,149.6,69.7,148.9z"/>
	<path d="M182.8,149.1c0.8-0.4,1.7-0.8,2.6-1.1c-1,1.6-2.1,3.1-3.2,4.6c-0.2-0.6-0.7-1.9-1-2.5C181.6,149.8,182.4,149.3,182.8,149.1
		z"/>
	<path d="M167.4,152.2c1.6-1.6,3.1-3.8,5.6-3.7c2.3,0.4,4.3,1.7,6.3,2.8C175.5,152.9,171.3,152.3,167.4,152.2z"/>
	<path d="M73,159c1-1.4,3.7,0.1,2.5,1.6C74.5,161.8,71.8,160.5,73,159z"/>
	<path d="M85,160.3c0.9-1.5,3.6,0,2.4,1.5C86.5,163.4,83.8,161.8,85,160.3z"/>
	<path d="M114.3,175c1.3,0.4,2.6,1.1,3.7,1.9c-0.9,0.5-2.6,1.4-3.5,1.8C114.5,177.4,114.4,176.2,114.3,175z"/>
</g>
<g id="_x23_e1b24aff">
	<path class="st4" d="M163.2,13.9c0.3-2.2,0.6-4.5,0.8-6.7c7.4,2.3,14.5,5.5,21.2,9.4c-0.6,0.1-1.9,0.5-2.5,0.6c0.2,2,0.4,4,0.6,6
		C176.8,19.5,170.1,16.5,163.2,13.9z"/>
</g>
<g id="_x23_a07a2cff">
	<path class="st5" d="M124.7,15.4c-1.6-1.9-1.5-4.8,0-6.7C125.1,10.9,125.1,13.1,124.7,15.4z"/>
	<path class="st5" d="M115.9,9.3c1.9,1.4,1.4,3.9,1.5,5.9C115,14.2,115.9,11.4,115.9,9.3z"/>
	<path class="st5" d="M128.6,15.4c-1.6-1.6-1.8-4.8,0.5-5.9C129,11.4,128.8,13.4,128.6,15.4z"/>
	<path class="st5" d="M131.4,15.3c0.2-2-0.8-4.9,1.7-5.8C132.9,11.5,133.6,14.1,131.4,15.3z"/>
	<path class="st5" d="M144.4,38.5c0.2-0.2,0.5-0.5,0.6-0.7c11.5,3.1,22.8,7.7,32,15.4l-1-0.5c-2.5-1.2-4.9-2.6-7.3-4
		c0,5.1-0.5,10.2,0,15.3c0.5,2.7,3.9,6.6-0.2,8.2v-0.8c0-0.8,0.1-2.5,0.1-3.3c-0.6,0.1-1.8,0.2-2.4,0.3c0.2,1,0.4,2.1,0.7,3.1
		l0.1,0.8c-0.9-0.7-3.2-1.5-2.2-3.1c3.3-6.8,1.3-14.4,1.9-21.6c-2.5-1.4-5.1-2.7-7.7-3.8c-0.1,7.1-0.1,14.2-0.1,21.3
		c-0.2,2.8,1.6,5.2,2.2,8c-0.8,2.4-3.8,3.1-5.6,1.3c-1.5-2.2,0.4-4.4,1.4-6.4c0.2-8.3,0.1-16.7,0.1-25c-3.7-1.4-7.5-2.6-11.4-3.6
		c-0.1,8.6,0.1,17.2,0,25.8c-0.1,4.1-0.3,8.4,1.1,12.4l-1.8-0.5c-1.1-1.3-0.6-3.3-0.8-4.9C144.5,60.9,144.4,49.7,144.4,38.5
		 M157.1,71.2c-1.2,1.5,1.5,3,2.5,1.5C160.7,71.3,158.1,69.8,157.1,71.2z"/>
	<path class="st5" d="M207.8,54c1.3-1.9,3-3.5,5.3-4C212,52.2,210.2,53.8,207.8,54z"/>
	<path class="st5" d="M217,66.9c0.9-2.2,3-3.4,5.3-3.9C221.3,65.2,219.1,66.1,217,66.9z"/>
	<path class="st5" d="M218.7,69.8c1.4-1.8,3.3-3.3,5.7-3.1C223,68.5,221,69.6,218.7,69.8z"/>
	<path class="st5" d="M222.8,77c0.7-2.4,3.1-3,5.2-3.8C227.2,75.5,224.9,76.3,222.8,77z"/>
	<path class="st5" d="M20.5,73.7c2.3,0.1,4.8,0.9,5.7,3.3C24,76.4,22,75.4,20.5,73.7z"/>
	<path class="st5" d="M225.8,83.9c0.8-2.4,3.4-2.6,5.5-2.9C230.1,82.8,227.9,83.4,225.8,83.9z"/>
	<path class="st5" d="M103.5,95.6c-0.3-3.4-0.8-7.5,1.9-10.2c-0.1,0.4-0.2,1.2-0.3,1.5c-0.5,3-1.5,6.1-0.4,9c0.8,1.7,2.5,2.8,3.8,4
		c-0.7-3.1-1-6.3,0.4-9.2c-0.1,2.3-0.1,4.7-0.2,7.1c0.7,0.4,2.1,1.3,2.8,1.7c-1.9,2.1-4.3,3.5-7.1,2.2c1.3-0.4,2.7-0.8,4-1.1
		C106.5,99.5,103.9,98.2,103.5,95.6z"/>
	<path class="st5" d="M229.9,94.9c0.3-2.7,3.5-2.3,5.4-2.7C234.1,94,231.8,94.3,229.9,94.9z"/>
	<path class="st5" d="M12.6,96.1c2,0.3,4.9,0,5.4,2.6C16.1,98.2,13.7,98.1,12.6,96.1z"/>
	<path class="st5" d="M10.4,107.7c2,0.3,4.7-0.2,5.8,2C14.2,109.5,11.6,110,10.4,107.7z"/>
	<path class="st5" d="M88.8,111c3.7-2.9,9.2-4,13.4-1.7c-4,0.5-8.4,0.2-11.8,2.6c0.6,0.1,1.8,0.4,2.5,0.6c-0.9,0.7-1.9,1.4-2.8,2.1
		c-0.6-0.1-1.9-0.2-2.5-0.3c0.8-1.3,1.7-2.5,2.5-3.8L88.8,111z"/>
	<path class="st5" d="M232.7,109.7c1.1-2.2,3.8-1.7,5.8-1.8C237.2,109.8,234.8,109.5,232.7,109.7z"/>
	<path class="st5" d="M9.9,112.2c1.8-0.6,4.9-1.1,5.3,1.5C13.4,113.4,11.1,113.8,9.9,112.2z"/>
	<path class="st5" d="M233.8,113.7c0.3-2.5,3.2-1.7,4.9-1.9C237.7,113.7,235.6,113.4,233.8,113.7z"/>
	<path class="st5" d="M9.5,115.8c2,0.1,4.8-0.7,5.6,1.7C13.2,117.3,10.7,117.8,9.5,115.8z"/>
	<path class="st5" d="M233.8,117.6c0.7-2.1,4.4-3,5.2-0.6C237.3,117.3,235.5,117.4,233.8,117.6z"/>
	<path class="st5" d="M9.5,129c1.1-2.3,3.8-1.3,5.8-1.4C13.8,129.3,11.6,129.2,9.5,129z"/>
	<path class="st5" d="M233.8,127.6c1.8-0.1,3.6-0.1,5.4-0.1C238.4,130.2,235,129.4,233.8,127.6z"/>
	<path class="st5" d="M9.8,131.5c1.8,0,3.7,0,5.5,0.1C13.9,133.2,10.6,134.2,9.8,131.5z"/>
	<path class="st5" d="M233.7,131.5c1.7-0.1,3.4,0,5.1,0c-0.1,0.5-0.4,1.5-0.6,2.1C236.7,133.1,234.8,133,233.7,131.5z"/>
	<path class="st5" d="M233.6,135.1c2,0.1,4.1,0.3,5.7,1.6C237.4,136.7,234.3,137.8,233.6,135.1z"/>
	<path class="st5" d="M231.4,146.8c2.1-0.1,4.5-0.1,5.9,1.9C235.2,148.7,232.8,148.8,231.4,146.8z"/>
	<path class="st5" d="M15.7,163.8c1.6-1.1,3.4-2,5.3-2.8C21.1,164,17.8,163.8,15.7,163.8z"/>
	<path class="st5" d="M226.9,161.4c2.2,0.2,4.5,0.5,5.6,2.7C230.3,163.9,228.2,163.2,226.9,161.4z"/>
	<path class="st5" d="M225.6,165.1c2.2,0.2,4.7,0.5,5.7,2.8C229.2,167.6,226.9,167.1,225.6,165.1z"/>
	<path class="st5" d="M18.9,171.8c1-2.2,3.4-3,5.6-3.2C23.3,170.6,21.1,171.3,18.9,171.8z"/>
	<path class="st5" d="M221.1,175.1c2,0.9,4.3,1.6,5.1,3.8C224.1,178.3,221.6,177.6,221.1,175.1z"/>
	<path class="st5" d="M215.1,185c2.1,0.8,4,2.1,5.1,4C217.9,188.6,215.6,187.5,215.1,185z"/>
	<path class="st5" d="M115.8,234c0.5,0.1,1.4,0.3,1.8,0.4c-0.3,1.8-0.2,3.9-1.8,5.1C115.8,237.7,115.8,235.9,115.8,234z"/>
	<path class="st5" d="M125,239.8c-1.9-1.6-1.9-4.6-0.2-6.4C125,235.6,125,237.7,125,239.8z"/>
	<path class="st5" d="M129.1,239.5c-2.3-1.1-2.1-4.4-0.4-6C128.9,235.5,129,237.5,129.1,239.5z"/>
</g>
<g id="_x23_a5853aff">
	<path class="st6" d="M112,9.5c1.4,1.6,1.5,3.7,1.7,5.7C110.8,14.9,112.1,11.4,112,9.5z"/>
	<path class="st6" d="M107.8,10.5c2.5,0.9,1.6,3.8,1.9,5.8C107.5,15.1,108.1,12.5,107.8,10.5z"/>
	<path class="st6" d="M96.2,12.6c1.6,1.1,3.7,5,0.8,5.4C96.5,16.2,96.4,14.4,96.2,12.6z"/>
	<path class="st6" d="M150.3,18.2c0.4-2,0.2-4.7,2.5-5.5C152.4,14.6,152.6,17.3,150.3,18.2z"/>
	<path class="st6" d="M92.1,13.6c2.2,1,2.2,3.5,2.7,5.5C92.3,18.6,92.7,15.5,92.1,13.6z"/>
	<path class="st6" d="M154.2,19.3c0.4-1.9,0-5.1,2.7-5.4C156.3,15.9,156,18.1,154.2,19.3z"/>
	<path class="st6" d="M88.2,14.8c2.5,0.8,2.3,3.6,2.8,5.7C88.9,19.4,88.7,16.9,88.2,14.8z"/>
	<path class="st6" d="M114.6,16.9c27.6-2.5,56.2,6,77.5,23.9c-0.3-0.1-0.9-0.2-1.2-0.3c-15.3-11.8-33.6-19.8-52.8-22.1
		c-30.8-4.1-63.2,6-86,27.1c-0.3,0.1-0.8,0.2-1.1,0.3C67.9,29.1,91,19.1,114.6,16.9z"/>
	<path class="st6" d="M161.1,21c0.6-1.9,1.4-3.8,2.8-5.3C163.7,17.8,163.9,20.9,161.1,21z"/>
	<path class="st6" d="M81,17.6c2.1,1.1,2.4,3.5,2.9,5.5C81.5,22.3,81.4,19.7,81,17.6z"/>
	<path class="st6" d="M165.2,23.3c0.2-2.1,0.2-5,2.8-5.6C167.6,19.8,166.7,21.8,165.2,23.3z"/>
	<path class="st6" d="M77.2,18.8c2,1.2,2.5,3.5,3,5.6C78,23.4,77.5,21,77.2,18.8z"/>
	<path class="st6" d="M168.7,24.6c0.2-2.2,0.7-4.8,3.1-5.7C171.3,21.1,170.4,23.2,168.7,24.6z"/>
	<path class="st6" d="M73.7,20.5c1.7,1.4,2.6,3.5,3.3,5.6C74.5,25.5,73.9,22.8,73.7,20.5z"/>
	<path class="st6" d="M69.9,22.7c2.1,0.6,3.8,3.3,2.4,5.2C71.3,26.4,70.5,24.6,69.9,22.7z"/>
	<path class="st6" d="M175.3,28c0.8-2,1.1-4.8,3.7-5.1C178.2,24.9,177.3,27,175.3,28z"/>
	<path class="st6" d="M179.1,30.1c0-2.3,0.8-4.6,3.2-5.5C181.7,26.7,180.6,28.5,179.1,30.1z"/>
	<path class="st6" d="M62.9,26.8c1.8,0.4,5,3.5,2.8,4.9C64.6,30.2,63.7,28.6,62.9,26.8z"/>
	<path class="st6" d="M182,31.3c0.8-1.9,1.7-4,3.9-4.5C185.1,28.7,184.1,30.7,182,31.3z"/>
	<path class="st6" d="M185.2,34.1c0.7-2.2,1.5-4.6,4-5.2C188.4,31,187.2,32.9,185.2,34.1z"/>
	<path class="st6" d="M56.1,31.5c2.8-0.5,3.5,2.8,4.1,4.8C58.5,34.9,57.2,33.3,56.1,31.5z"/>
	<path class="st6" d="M53.1,33.1c2,1.2,3.7,2.9,4.1,5.2C54.9,37.4,53.8,35.3,53.1,33.1z"/>
	<path class="st6" d="M50,36c2.3,0.7,3.9,2.7,4,5.1C52.3,39.7,50.8,38,50,36z"/>
	<path class="st6" d="M44.1,41c2,1.1,4.3,2.6,3.7,5.2C46.2,44.7,44.9,43,44.1,41z"/>
	<path class="st6" d="M36,50c2.1,0.8,4,2.1,4.8,4.3C38.6,53.5,36.7,52.2,36,50z"/>
	<path class="st6" d="M212.7,60.2c1.2-2,3.1-3.3,5.3-4C216.9,58.3,215,59.7,212.7,60.2z"/>
	<path class="st6" d="M22.8,69.9c2,0.7,3.8,1.7,5.4,2.9C25.9,72.9,23.4,72.4,22.8,69.9z"/>
	<path class="st6" d="M146.7,112.5c4.2-0.3,8.8-0.1,12.4,2.4c2.5,1.7,3.6,4.6,5.4,6.9c1.3,0.4,2.3-1.5,3.4-1.8
		c-0.1,0.4-0.3,1.1-0.4,1.5c-0.5,1.1-1.3,2-2,2.9c0.6,3.7-0.4,7.4-1.9,10.8c-0.9-2.8-0.2-6.6-3.1-8.4c0.6-4.9-4.5-7.5-7.6-10.4
		c4.3,1.4,6.9,5.3,10.3,8c-0.8-3-2.3-5.9-4.8-7.8C155.1,113.9,150.6,113.7,146.7,112.5z"/>
	<path class="st6" d="M125.8,123.3c-0.4-3.2-0.8-6.4-0.3-9.6c1.4,3.2,1.9,6.6,2,10.1C127,123.7,126.2,123.4,125.8,123.3z"/>
	<path class="st6" d="M222.7,172c1.5,0.7,5.1,0.9,4.9,2.8C225.5,175,223.7,173.9,222.7,172z"/>
	<path class="st6" d="M28.7,189.1c0.9-2.2,3.1-3.2,5.2-4C33,187.3,31,188.5,28.7,189.1z"/>
	<path class="st6" d="M206.9,192.9c-0.2,0.3-0.5,0.9-0.7,1.2c-24.1,29.8-65.7,44.2-103.2,36.1c-11.7-2.4-23.1-6.6-33.2-12.9
		c0.3,0,1,0.1,1.3,0.1c15.2,8.5,32.4,13.3,49.8,14.1c10.8,0.4,21.7-1.2,32.1-4C174.1,221.8,192.8,209.2,206.9,192.9z"/>
	<path class="st6" d="M203,200c2,1,3.6,2.5,4.4,4.6C205.2,203.8,203.6,202.2,203,200z"/>
	<path class="st6" d="M50.1,213.1c0.5-2.3,2-4.1,4-5.3C53.7,210.2,52.2,212,50.1,213.1z"/>
	<path class="st6" d="M194.8,207.8c1.8,1.3,3.2,3.1,4.2,5.1C196.6,212.2,195.2,210.2,194.8,207.8z"/>
	<path class="st6" d="M185.1,214.9c2.3,0.8,3.5,3,3.8,5.3C187,219,185.9,217,185.1,214.9z"/>
	<path class="st6" d="M63,222.2c0.6-2.2,1.6-4.4,3.9-5.3C66.1,219,65.2,221.4,63,222.2z"/>
	<path class="st6" d="M182.1,216.9c1.8,1.2,3,3.1,3.9,5.1C183.4,221.7,182.7,219,182.1,216.9z"/>
	<path class="st6" d="M67,224.1c-0.9-2.2,1.4-4.2,3-5.4C69.5,220.8,68.9,223,67,224.1z"/>
	<path class="st6" d="M70.1,226.3c0.3-2.2,1.3-4.2,3-5.6C72.9,222.9,72.2,225.2,70.1,226.3z"/>
	<path class="st6" d="M175.2,221c2.4,0.6,3,3.1,3.7,5.2C176.7,225.3,176,223,175.2,221z"/>
	<path class="st6" d="M73.9,228.4c-0.1-2.3,0.5-5.1,3.2-5.5C76.3,224.9,75.2,226.8,73.9,228.4z"/>
	<path class="st6" d="M172,222.7c2.3,0.9,2.8,3.4,3,5.6C173.3,226.8,172.4,224.8,172,222.7z"/>
	<path class="st6" d="M77,229.4c0.6-2,1.6-3.9,2.8-5.6C79.9,226,79.6,228.7,77,229.4z"/>
	<path class="st6" d="M168.5,224.3c2.1,1.2,2.7,3.5,3.2,5.7C169.6,228.8,169,226.5,168.5,224.3z"/>
	<path class="st6" d="M165.2,225.6c1.9,1.3,2.4,3.6,2.8,5.7C165.6,230.4,165.5,227.8,165.2,225.6z"/>
	<path class="st6" d="M85.7,227.7c0.5-0.1,1.5-0.2,2-0.3c-0.7,2-1.3,4.1-3,5.5C85,231.2,85.3,229.5,85.7,227.7z"/>
	<path class="st6" d="M161.4,226.9c2.2,1.4,2.5,3.9,2.4,6.3C162.3,231.4,161.6,229.1,161.4,226.9z"/>
	<path class="st6" d="M88.3,234.2c0.2-2.3,1-4.5,2.4-6.4C90.8,230.1,90.7,233,88.3,234.2z"/>
	<path class="st6" d="M92.3,235.4c0.5-1.9-0.3-5.5,2.6-5.4C94.3,231.9,93.9,234.1,92.3,235.4z"/>
	<path class="st6" d="M154,229.6c2.2,0.9,2.2,3.5,2.7,5.5C154.3,234.5,154.6,231.6,154,229.6z"/>
	<path class="st6" d="M96.2,236.4c0.5-1.7-0.6-5.4,2-5.4C98.4,233,97.9,235.1,96.2,236.4z"/>
	<path class="st6" d="M150.2,230.9c2.6,0.4,2.1,3.5,2.6,5.4C150.7,235.4,150.8,232.8,150.2,230.9z"/>
	<path class="st6" d="M100.2,237.4c0-2.1-0.3-4.7,1.7-6.1C101.8,233.4,102.1,235.9,100.2,237.4z"/>
	<path class="st6" d="M104.2,238.3c0-2.2-0.7-5.1,1.5-6.6C105.8,234,105.7,236.4,104.2,238.3z"/>
	<path class="st6" d="M144.7,238.3c-2.1-1.6-1.6-4.4-1-6.6C144.5,233.8,144.7,236,144.7,238.3z"/>
	<path class="st6" d="M107.8,238.5c0.3-2-0.5-4.9,1.9-5.8C109.5,234.7,109.9,237.3,107.8,238.5z"/>
	<path class="st6" d="M112.9,239.3c-1.6-1.9-1.5-5,0.6-6.5C113.5,235,113.3,237.2,112.9,239.3z"/>
	<path class="st6" d="M135.5,232.8c2,1.6,1.3,4.4,1.3,6.6C135.1,237.5,135.4,235,135.5,232.8z"/>
</g>
<g id="_x23_90722eff">
	<path class="st7" d="M120.3,10.4c1.4,0.2,1.5,3.9,0.1,4.1C119.5,13.4,119.5,11.5,120.3,10.4z"/>
</g>
<g id="_x23_735b26ff">
	<path class="st8" d="M135.1,15.2c0-2.1-0.1-4.6,1.9-5.9C136.5,11.2,138.5,16.1,135.1,15.2z"/>
	<path class="st8" d="M80.6,231.5c0.5-2.3,0.7-5.2,3.4-5.9C83.5,227.8,83.3,230.7,80.6,231.5z"/>
</g>
<g id="_x23_7b6129ff">
	<path class="st9" d="M103.9,10.4c1.9,1.6,2.1,4.1,2.3,6.4C103.2,16.2,104.1,12.7,103.9,10.4z"/>
</g>
<g id="_x23_6c5624ff">
	<path class="st10" d="M139,16.5c0.2-2.2-0.8-5.7,2.2-6.3C140.8,12.3,141.6,15.4,139,16.5z"/>
</g>
<g id="_x23_6f5928ff">
	<path class="st11" d="M142.8,17c0.3-2.2-0.7-5.6,2.2-6.4C144.9,12.9,145.2,15.6,142.8,17z"/>
</g>
<g id="_x23_745c28ff">
	<path class="st12" d="M99.9,11.2c2.6,1.2,2.2,4.2,2.3,6.6C99.6,16.6,100.1,13.6,99.9,11.2z"/>
</g>
<g id="_x23_745d29ff">
	<path class="st13" d="M146.6,17.8c0.3-2.2-0.5-5.7,2.5-6.4C148.7,13.6,149.1,16.5,146.6,17.8z"/>
</g>
<g id="_x23_dba83eff">
	<path class="st14" d="M49.8,25.9c5.5-4.8,12-8.3,18.4-11.8c1.2,1.9,2.5,3.8,3.8,5.7c-6.2,3.2-12.2,6.8-17.8,11.1
		c-0.5-1.9-1-3.7-1.5-5.5C51.7,25.5,50.7,25.7,49.8,25.9z"/>
	<path class="st14" d="M101.4,120.3c1.9-4.4,5.4-7.9,9.5-10.3c-5,4.6-9.6,10.6-9.3,17.7c0.5-0.3,1.5-0.8,2-1.1
		c1.5-4.5,2.4-9.7,6.4-12.8c-2.1,3.7-3.7,7.7-4.6,11.9c2.2-0.8,4.4-1.6,6.6-2.3c-0.5-3.3-0.2-6.6,1.6-9.4c-0.1,2.3-0.4,4.6-1.2,6.8
		c0.6,0.6,1.2,1.2,1.8,1.7c1.7-0.9,3.6-0.9,5.4-1.1c-0.3-3.4-0.4-6.7-0.2-10.1c0.2,0,0.7,0,0.9,0.1c0.3,5.2-0.3,11.3,3.7,15.4
		c-1.7-1.8-3.7-3.3-6-4.3c-5.1,2-9.9,4.5-14.9,6.7c-3.3,1.5-6.4,4.2-6.9,8.1c3-2,5.6-4.6,8.8-6.4c-3.5,4-7.7,7.3-11.7,10.8
		c-0.1,2-0.4,4.3,1.6,5.6c1.7-3,3.6-6,6.2-8.3c-1.7,3.5-3.4,7.1-6.1,10c-1.3-0.7-2.4-1.6-3.6-2.5c-1.1-4,3.4-5.8,3.3-9.4
		c-0.2-3.6,3.1-5.5,4.9-8.1C100.2,126,100.1,123,101.4,120.3z"/>
</g>
<g id="_x23_785f29ff">
	<path class="st15" d="M157.8,20.7c0.1-2.3,0.3-5.1,2.6-6.4C160.2,16.7,160.2,19.5,157.8,20.7z"/>
</g>
<g id="_x23_82682dff">
	<path class="st16" d="M85.2,16.5c1.7,0,2.4,2.9,1.7,4.3C85.1,21,84.3,17.8,85.2,16.5z"/>
</g>
<g id="_x23_d9a539ff">
	<path class="st17" d="M182.6,17.2c0.6-0.2,1.9-0.5,2.5-0.6c5.4,3.2,10.7,6.5,15.5,10.4c-0.7,2.3-1.1,4.7-2.3,6.8
		c-4.8-3.9-9.9-7.4-15.2-10.6C183,21.2,182.8,19.2,182.6,17.2z"/>
	<path class="st17" d="M48.1,221.8c0.5-2.3,1.1-4.6,2.6-6.5c4.5,3.6,9.3,7,14.2,9.9c0,1.6-0.1,3.2-0.1,4.7c-0.4,0.5-1.4,1.5-1.8,1.9
		c-5.2-2.9-10.1-6.4-15-9.9L48.1,221.8z"/>
</g>
<g id="_x23_785f27ff">
	<path class="st18" d="M171.8,26.3c0.5-2.4,1.2-4.8,3.4-6C175.1,22.8,174.4,25.4,171.8,26.3z"/>
</g>
<g id="_x23_cea147ff">
	<path class="st19" d="M113.5,22.2c0.5,0,1.6-0.1,2.1-0.1c-0.6,4.1,1.4,8.2,0.8,12.3c-1.4-0.3-2.1-1.1-2.2-2.3
		C113.6,28.8,114.3,25.5,113.5,22.2z"/>
	<path class="st19" d="M155.1,39.3c0.3-3,1.4-5.8,2.7-8.5c2.4,0.9,4.9,1.8,6.9,3.5c-0.6,2.4-1.4,4.8-2.3,7.2
		c-0.5-0.1-1.4-0.3-1.9-0.4c0.8-2.2,1.5-4.4,2.2-6.7c-0.9-0.1-2.8-0.3-3.7-0.4C157.9,36,157.3,38.5,155.1,39.3z"/>
	<path class="st19" d="M131.3,109c4.1,1.6,5.2,6.2,7.3,9.6c-0.4-0.1-1.2-0.3-1.6-0.4C135.2,115.1,133.1,112.1,131.3,109z"/>
	<path class="st19" d="M140.4,125.5c6.4,1,13.1,3.9,16.6,9.7c-0.2,0.2-0.6,0.8-0.8,1c-4.4-4.5-9.6-8.8-16-10
		C140.3,126.1,140.4,125.7,140.4,125.5z"/>
	<path class="st19" d="M146.9,133.1c4,0.9,8.7,2.9,10.1,7.1c-0.1,0.3-0.4,0.8-0.5,1.1C153.9,137.8,150.4,135.4,146.9,133.1z"/>
</g>
<g id="_x23_d4b253ff">
	<path class="st20" d="M128,23.9c2.4-2.4,6.8-1.4,8.1,1.8c-2.6-0.6-5.4-1.4-7.9,0c0,2,0.1,3.9,0.2,5.9c2.1,0.3,4.3,0.3,6.4,0
		c-0.1,0.5-0.2,1.5-0.3,2c-2.8,0.4-6.4,0.8-8-2.2C126.1,28.9,125.6,25.5,128,23.9z"/>
</g>
<g id="_x23_d8ae50ff">
	<path class="st21" d="M107.2,23.1c0.5,0.1,1.5,0.4,1.9,0.6c0.4,3.7,1,7.3,1.5,11c-0.5,0-1.6,0-2.1,0
		C107.9,30.8,107.4,27,107.2,23.1z"/>
	<path class="st21" d="M108.9,90.8c1.7-3.5,5.3-7.6,9.6-6.3c3.9,2,5.6,6.8,5.1,10.9c-2.2-2.9-2.3-7.5-6-9.1
		c-2.9-1.3-5.2,1.5-6.4,3.8c-1.3,2.2-0.9,4.8-0.8,7.1c1.2,0.3,2.5,0.5,3.8,0.8c-2,4.4-7.7,6.8-11.7,3.4c0.5,0.1,1.4,0.2,1.8,0.2
		l0.1,0c2.8,1.2,5.2-0.1,7.1-2.2c-0.7-0.4-2.1-1.3-2.8-1.7C108.8,95.5,108.8,93.2,108.9,90.8z"/>
	<path class="st21" d="M75.6,98c7.3-1.2,14.6-0.8,21.8,0.6c1.1,1,2.2,2.1,3.3,3.2l-2.2-0.2c-5.8-2.6-12.1-3.3-18.3-2.3
		C78.6,98.8,77.1,98.4,75.6,98z"/>
</g>
<g id="_x23_d29b2dff">
	<path class="st22" d="M49.8,25.9c1-0.2,1.9-0.4,2.9-0.6c0.5,1.8,1,3.7,1.5,5.5c-4.9,3.8-9.7,7.8-14,12.3c-0.9,0.1-1.8,0.2-2.7,0.4
		c-0.4-1.9-0.9-3.7-1.3-5.6l0-0.2C40.4,33.5,44.7,29.1,49.8,25.9z"/>
</g>
<g id="_x23_7f652bff">
	<path class="st23" d="M67.1,25.4c1.7-0.4,3,2.3,2.4,3.7C67.9,29.5,66.4,26.7,67.1,25.4z"/>
</g>
<g id="_x23_bd9331ff">
	<path class="st24" d="M152.1,26c0.9-1.6,2.2,1,2.8,1.7C154,27.7,150,27.9,152.1,26z"/>
	<path class="st24" d="M130.6,217.3c0.8,0.1,1.7,0.2,2.5,0.4c0.1,2.7,0.2,5.4,0.4,8.1c2.2,0.1,4.7-0.5,6.5,1.2
		c-2.7,1-5.5,1.4-8.3,1.5C131.4,224.7,130.9,221,130.6,217.3z"/>
</g>
<g id="_x23_d7a236ff">
	<path class="st25" d="M141.5,34.9c-5.3-0.3-3.6-9.1,1.3-8.3c4.5,0,5.6,8.1,0.8,8.3l0.2-0.7c0.4-1.8,2.3-5.3-0.8-5.6
		c-3.6-0.6-2.7,3.6-1.7,5.5L141.5,34.9z"/>
	<path class="st25" d="M186.8,223.3c4.3-2.7,8.4-5.7,12.4-9c0.6,2.4,1.1,4.9,1.6,7.3l0,0.2c-3.7,2.7-7.4,5.4-11.3,7.8
		C188.4,227.6,187.6,225.5,186.8,223.3z"/>
</g>
<g id="_x23_b57b11ff">
	<path class="st26" d="M84.8,38.2c-3.7-4.1,1.3-10.9,6.4-9.3c0.3,0.5,0.9,1.3,1.2,1.8c-1.8,0.5-3.8,0.3-5.4,1.4
		c-2.2,1.8-0.9,6.1,2,6c2.2-0.1,4.1-1.4,6.2-2C94,40.4,87.5,42.2,84.8,38.2z"/>
	<path class="st26" d="M157.6,130.1c2.7,2.4,0.9,5.9,1.1,9c-0.4,4-0.2,8.9-3.6,11.7c0.6-3.1,1.4-6.3,1.4-9.5
		c0.1-0.3,0.4-0.8,0.5-1.1c0.1-0.3,0.4-0.9,0.5-1.2c-0.4-0.9-0.8-1.8-1.2-2.7c0.2-0.2,0.6-0.8,0.8-1l0.5-0.7c0-0.8,0-1.6,0-2.3
		C157.6,131.6,157.6,130.6,157.6,130.1z"/>
</g>
<g id="_x23_d6a943ff">
	<path class="st27" d="M96.3,30.6c1.2-2.4,4.7-3.4,6.7-1.7c1,2,1.3,4.3,1.9,6.4c-2.4,0.9-4.9,1.7-7.5,1.1c0-0.9,0.1-2.6,0.1-3.5
		c1.6-0.8,3.2-1.6,4.6-2.8C100.6,30.3,97.7,30.5,96.3,30.6 M99.4,33.4C98,35,101,36,101.9,34.7C103.3,33,100.3,32,99.4,33.4z"/>
	<path class="st27" d="M96.8,162.1c0.6-3.7,2.7-7.1,5-10c-0.9,3-2.4,5.8-3.2,8.9c-0.4,3.2,3.8,4.9,3.1,8.1
		C99.2,167.5,96.6,165.2,96.8,162.1z"/>
</g>
<g id="_x23_d0992bff">
	<path class="st28" d="M198.4,33.7c1.2-2.1,1.6-4.5,2.3-6.8c4.3,3.4,8.5,7.1,12.4,11.1c-0.7,2.4-1.5,4.8-2.8,7
		C206.5,41,202.6,37.2,198.4,33.7z"/>
	<path class="st28" d="M67.1,139c1.8-3.8,6.1-4.6,9.9-4.7c3.1,0.2,4.3,3.4,6.5,5.1c1.8,1.2,4.2,2.2,4.7,4.6c1.2,3-0.9,5.8-2.3,8.3
		c3.2,0,6.3,0,9.5,0.2c-3.1,0.8-6.3,1.1-9.5,1.3c-3.5,0-7.1,0.2-10.6,0c-1.4-0.4-2.9-1-4.2-1.5c3.5,0.3,7,0.2,10.5-0.1
		c-0.9-1.5-1.5-3.5-3.2-4.3c-2.8-1.2-5.9-0.2-8.5,1.1c-0.5-0.9-1-1.8-1.6-2.7c-0.9-1-1.9-1.9-2.8-2.8
		C65.8,141.9,66.4,140.4,67.1,139 M69.2,142c-0.4,2.2,2.1,2.8,3.5,3.9c-0.2-2.7-0.8-5.3-2.1-7.7C69.1,138.8,69.4,140.8,69.2,142
		 M77.3,137.6c-1.1,2.1-1.7,4.5-1.7,6.9c2,0,3.7-1,5.2-2.2C79.9,140.6,78.9,138.9,77.3,137.6 M83.5,149.3c3.2,0.9,2-3.7,2.1-5.5
		C83.7,144.5,80.8,148.2,83.5,149.3z"/>
	<path class="st28" d="M199.2,214.4c4.2-3.5,8-7.3,11.7-11.2c0.7,2.5,1.4,5.1,2,7.6c-3.5,4.1-7.9,7.4-12.1,10.9
		C200.3,219.2,199.7,216.8,199.2,214.4z"/>
</g>
<g id="_x23_80662bff">
	<path class="st29" d="M60.2,29.4c1.6-0.5,3.2,2.2,2.5,3.6C61.2,33.4,59.6,30.8,60.2,29.4z"/>
</g>
<g id="_x23_b18a36ff">
	<path class="st30" d="M188.9,36.2c0.1-2.2,1.4-4,3.1-5.4C191.8,33,190.5,34.7,188.9,36.2z"/>
	<path class="st30" d="M195,41c0-2.2,1.4-3.9,3-5.3C198,38,196.5,39.6,195,41z"/>
	<path class="st30" d="M200.1,46c0.8-2,2.2-3.6,4.2-4.6C203.8,43.7,202.1,45.1,200.1,46z"/>
	<path class="st30" d="M41,44.2c1.8,0.7,3.4,1.9,4.8,3.1c-0.5,0.5-0.9,0.9-1.4,1.4C43.3,47.2,42.1,45.7,41,44.2z"/>
	<path class="st30" d="M205.7,51.2c0.9-2,2.6-3.4,4.6-4.2C209.3,49,207.8,50.6,205.7,51.2z"/>
	<path class="st30" d="M210.8,57.2c0.6-2.2,2.6-3.3,4.5-4.3C214.5,55.1,212.7,56.4,210.8,57.2z"/>
	<path class="st30" d="M31,56.2c1.9,0.9,3.7,2.1,5.3,3.5C33.8,60.1,31.8,58.4,31,56.2z"/>
	<path class="st30" d="M214.8,63c1.4-1.6,3.2-2.9,5.4-3.1C218.9,61.7,217.1,62.9,214.8,63z"/>
	<path class="st30" d="M26.8,63c1.7,0.7,3.3,1.6,4.9,2.5c-0.2,0.3-0.7,1.1-0.9,1.4C29.2,65.8,27.5,64.8,26.8,63z"/>
	<path class="st30" d="M220.8,73c1.5-1.5,3.4-2.6,5.6-2.9C225.1,72.1,223,72.8,220.8,73z"/>
	<path class="st30" d="M18.8,77.2c2.2,0.2,4.3,0.9,5.6,2.8C22.3,79.8,20.2,79,18.8,77.2z"/>
	<path class="st30" d="M17.7,81c2.1,0.3,4.3,0.9,5.5,2.8C21,83.5,18.8,82.9,17.7,81z"/>
	<path class="st30" d="M14.8,88.2c2.1,0.4,4.4,0.8,5.6,2.8C18.3,90.6,15.8,90.4,14.8,88.2z"/>
	<path class="st30" d="M228.6,90.9c1.2-2,3.5-2.3,5.6-2.6C233,90.3,230.6,90.6,228.6,90.9z"/>
	<path class="st30" d="M13.6,92.2c2,0.3,4.7,0.3,5.5,2.6C17.1,94.3,14.9,94.1,13.6,92.2z"/>
	<path class="st30" d="M10,119.5c1.8,0.1,3.6,0.4,5.3,1.2C13.5,120.9,10.2,122.3,10,119.5z"/>
	<path class="st30" d="M233.6,120.7c1.7-0.8,3.6-1,5.5-1.1C238.4,122.2,235.6,121,233.6,120.7z"/>
	<path class="st30" d="M233.6,124.6c1.8-1,4.6-1.8,6,0.3C237.6,125,235.6,124.8,233.6,124.6z"/>
	<path class="st30" d="M12.8,152.8c0.9-2.1,3.4-2,5.3-2.5C17.2,152.4,14.8,152.4,12.8,152.8z"/>
	<path class="st30" d="M230.8,150.3c1.9,0.4,4.2,0.7,5.5,2.4C234.3,152.4,231.6,152.6,230.8,150.3z"/>
	<path class="st30" d="M13.9,156.8c0.4-2.6,3.4-2.3,5.4-2.7C18.1,155.9,15.9,156.3,13.9,156.8z"/>
	<path class="st30" d="M229.6,154.1c2,0.4,4.5,0.5,5.5,2.6C233.2,156.2,230.7,156.1,229.6,154.1z"/>
	<path class="st30" d="M17.8,168c0.7-2.5,3.4-2.6,5.5-2.8C21.7,166.6,19.8,167.5,17.8,168z"/>
	<path class="st30" d="M224.4,168.6c2.2,0.3,4.2,1.3,5.6,3C227.9,171.3,225.7,170.6,224.4,168.6z"/>
	<path class="st30" d="M22.9,179c0.5-2.4,3-3,5.1-3.7C27,177.3,24.9,178.2,22.9,179z"/>
	<path class="st30" d="M68.4,178.1c0.4-2.5,4.2-3.1,5.4-0.8c1.5,2-0.8,3.9-1.5,5.7c-0.1,4.1-0.1,8.1-0.1,12.2
		c3.7,2.6,7.6,4.8,11.4,7.3l-0.1,0.5c-5.1-2.5-9.8-5.7-14.3-9.2l0.4-0.4c0.2-0.3,0.7-0.9,0.9-1.2c0.1-3.1,0-6.1-0.1-9.2
		C69.6,181.5,67.9,180,68.4,178.1 M70.2,178.3c-1.2,1.4,1.3,3.1,2.3,1.6C73.7,178.5,71.2,176.8,70.2,178.3z"/>
	<path class="st30" d="M26.9,185.9c0.5-2.2,2.5-3.2,4.4-4C30.7,184.1,28.7,185.1,26.9,185.9z"/>
	<path class="st30" d="M216.9,182.1c2.2,0.5,4.5,1.4,5.1,3.8C220,185.1,218.1,183.9,216.9,182.1z"/>
	<path class="st30" d="M30.9,192.1c1.4-1.6,3.1-3,5.1-4C35.3,190.5,33.2,191.8,30.9,192.1z"/>
	<path class="st30" d="M213.4,189c1.4-0.7,3.9,1.2,3.4,2.7C215.4,192.2,213,190.6,213.4,189z"/>
	<path class="st30" d="M35.9,198.2c1.2-1.8,2.9-3.2,5.1-3.2C39.7,196.5,38,197.9,35.9,198.2z"/>
	<path class="st30" d="M207.9,194.8c2.4,0.3,4.3,1.8,5,4.1C210.9,198,209.2,196.5,207.9,194.8z"/>
	<path class="st30" d="M41.5,204.3c0.9-1.9,2.5-3.4,4.5-4.3C45.2,202.1,43.7,203.7,41.5,204.3z"/>
	<path class="st30" d="M46.9,210.2c0.9-1.9,2.3-3.7,4.3-4.7C50.7,207.8,49.1,209.4,46.9,210.2z"/>
	<path class="st30" d="M53,215.2c0.9-1.9,2-3.9,4.1-4.7C56.5,212.7,55.2,214.5,53,215.2z"/>
	<path class="st30" d="M56.2,217.9c0.9-2.1,1.9-4.2,4.2-5.2C59.6,215,58.3,217,56.2,217.9z"/>
	<path class="st30" d="M188.8,212.7c1.8,1.3,3.2,3.1,3.1,5.4C190.4,216.6,189.2,214.8,188.8,212.7z"/>
</g>
<g id="_x23_362c14ff">
	<path class="st31" d="M99.4,33.4c0.9-1.4,3.9-0.3,2.5,1.3C101,36,98,35,99.4,33.4z"/>
</g>
<g id="_x23_d8b256ff">
	<path class="st32" d="M141.3,34.2c0.6,0,1.9,0,2.5,0l-0.2,0.7c-0.5,0-1.6,0-2.1,0L141.3,34.2z"/>
</g>
<g id="_x23_896c2dff">
	<path class="st33" d="M194.3,34.2c1.6,0.7-0.7,4-2.1,3.4C191.7,36.2,193,34.6,194.3,34.2z"/>
</g>
<g id="_x23_c89c3dff">
	<path class="st34" d="M104.6,37.9c4.7-1.4,9.6-1.5,14.4-1.7c8.7-0.3,17.5-0.1,26,1.7c-0.2,0.2-0.5,0.5-0.6,0.7
		c-2.9-0.4-5.7-0.9-8.5-1.2c0,8.2-0.1,16.5,0,24.7c-0.2,2.6,1.2,4.9,2.5,7c-0.2,0.6-0.8,1.7-1,2.3c-0.7,0.4-2.1,1.1-2.8,1.4
		c-0.8-0.9-1.6-1.8-2.2-2.8c-0.4-1.9,1.2-3.3,2-4.9c-0.1-9.3,0.5-18.6-0.3-27.8c-6.6-0.9-13.2-0.6-19.8,0c0,9.5,0,19,0,28.5
		c0.8,0.7,1.6,1.4,2.4,2.1c-0.4,1.7-0.5,4-2.6,4.4c-1.2-0.2-2.5-0.6-3.7-0.9c0.2-2.2,0.9-4.2,2.2-5.9c0.2-9.4,0.2-18.8,0-28.2
		c-2.8,0.4-5.6,0.9-8.4,1.7l-0.1-0.1L104.6,37.9 M112.4,68.2c-1.2,1.4,1.2,3.3,2.3,1.7C115.8,68.5,113.4,66.6,112.4,68.2
		 M134.1,68.2c-1.2,1.4,1.4,3.1,2.4,1.6C137.6,68.4,135.1,66.8,134.1,68.2z"/>
	<path class="st34" d="M71.8,53.2c9.3-7.3,20.4-11.8,31.7-15.3c-0.2,0.3-0.5,0.9-0.7,1.2c-3.9,1.1-7.7,2.3-11.5,3.7
		c0.1,8.5-0.1,17,0.1,25.5c0.8,1.4,2.4,2.7,2,4.5c-0.2,2.5-4.1,3.3-5.4,1.1c-1.4-1.9,0.5-4,1.6-5.5c0.2-8.4,0.2-16.8-0.1-25.2
		c-2.7,1.5-5.4,3-8,4.5c0.2,5.1-0.1,10.2,0.1,15.4c0.1,2.4,1.7,4.5,2.1,6.8c0,2.5-3.7,3.6-5.1,1.6c-1.2-2.9,1.6-5.4,1.6-8.3
		c0.2-4.8,0-9.7,0-14.5c-2.5,1.4-5,2.8-7.5,4.1L71.8,53.2 M80.1,68.5c-0.5,1.6,0.1,2.2,1.7,1.6C82.3,68.5,81.7,68,80.1,68.5
		 M89.4,71.2c-1.1,1.4,1.3,3.2,2.3,1.6C92.8,71.4,90.4,69.6,89.4,71.2z"/>
	<path class="st34" d="M72.3,76.5c0-0.5,0.1-1.4,0.1-1.9c1.6,1.5,3.1,3,4.7,4.5c2.7-0.4,6.7,1.5,4.8,4.8c-1.6,3.3-5.3,0.8-6.2-1.7
		c1.6,0.6,3.2,1.2,4.8,1.8c0.1-0.7,0.1-2.2,0.2-2.9c-1.3,0.2-2.5,0.5-3.8,0.8C75.4,80,73.7,78.4,72.3,76.5z"/>
	<path class="st34" d="M171.9,79.1c1.3-1.2,2.6-2.5,3.9-3.8c0,0.5-0.1,1.6-0.1,2.1c-1,1-1.9,2.1-2.9,3.1c-0.5,1.6-0.6,3.4-1.8,4.8
		c-2.4,1.1-5.2-1.2-4.4-3.8C167,79,170,79.5,171.9,79.1 M168.3,81.4c-1.6,1.4,1,3.4,2.3,2C172,82,169.6,79.9,168.3,81.4z"/>
	<path class="st34" d="M145.2,77l1.8,0.5c3,2.8,7.3,3.5,10.1,6.5c-1.4,1.4-2.8,2.8-4.2,4.2c-1.7-1.6-2.6-3.7-2.8-6
		C148.4,80.4,146.7,78.8,145.2,77 M152.1,83.3c-1.2,1.5,1.5,3.1,2.4,1.5C155.6,83.3,153,81.8,152.1,83.3z"/>
	<path class="st34" d="M179,115.3c2.7-2.9,5.5-5.7,8.5-8.3c-0.1,0.6-0.2,1.8-0.3,2.3c-2.4,2.6-5,4.8-7.3,7.4
		c-0.1,1.2-0.3,2.4-0.6,3.5c-0.8,1.8-3.2,1-4.8,1.3c-0.1-1.5-0.2-3,0-4.5C174.8,115,177.6,115.8,179,115.3 M176.3,117.2
		c-2,0.4-0.9,3.3,0.9,2.8C179.4,119.7,178.2,116.4,176.3,117.2z"/>
	<path class="st34" d="M61.2,109l2.1,0c3.1,2.4,5.3,6.7,9.7,6.9c0.3,0.4,0.9,1.1,1.2,1.5l-1.3-0.1c-1-0.2-3.1-0.1-2.8,1.5
		c0.6,2.2,3.6,0.9,3.4-1c0.9,0.5,1.9,0.9,2.8,1.3c1.4,3.3,4.3,5.4,6.8,7.7c-3.2-1.8-5.9-4.4-8.2-7.3c-1.1,1.1-2.2,2.2-3.4,3.4
		c2.6,1,1.9,3.7,2,5.9c-2.5,0.4-4.7-0.4-6.3-2.3c-6.7,0.1-13.3,0-20,0c0.3-0.3,0.9-0.9,1.2-1.1c6.2-0.8,12.4-0.6,18.6-0.1
		c0.9-0.6,1.9-1.1,2.8-1.6c-0.1-1.1-0.1-2.2-0.2-3.2c-0.3-1.2-0.5-2.3-0.7-3.5C66.5,114.2,63.8,111.7,61.2,109 M70.2,125.1
		c-0.5,1.6,0.1,2.1,1.8,1.6C72.5,125.1,71.9,124.6,70.2,125.1z"/>
	<path class="st34" d="M137.4,109.6c6.6,1.7,13.2,7.4,13.5,14.6c2.1,2.1,5.2,3.3,6.7,5.9c0,0.5,0,1.5,0,2
		c-5.9-5.6-13.5-9.8-21.7-10.4c-3.5-0.2-5.3,3-6.9,5.5c0.3-2.8,2.1-5.4,4.9-6.1c5.1-1.7,10.2,0.8,15.1,2c-0.5-6.2-6.6-8.7-10.6-12.3
		L137.4,109.6z"/>
	<path class="st34" d="M103.7,169.1c-1.1-5.6,0-12.1,4.2-16.3c-1.1,3.4-2.8,6.8-2.7,10.4c1.4-2.8,2.8-5.8,5.5-7.6
		c-0.8,1.4-1.6,2.8-2.4,4.2c-1.3,2.4-2.3,5.3-1,8c0.5,1,1,1.9,1.5,2.9C107,171.2,104.6,171.3,103.7,169.1z"/>
	<path class="st34" d="M73,157c1.6-1.1,3.9,0.1,3.6,2.1c0,4.5,3.2,7.9,5.4,11.5c-0.1,0.6-0.3,1.7-0.3,2.2
		c-3.2-3.8-4.6-9.8-10.1-10.9C71.7,160.2,71,157.8,73,157 M73,159c-1.2,1.5,1.5,2.9,2.5,1.6C76.6,159,73.9,157.6,73,159z"/>
	<path class="st34" d="M83.8,158.8c1.4-0.9,3.1-0.9,4.6-0.2c0.3,1.8,0.3,3.6,0.4,5.4c2.4,3.5,4.8,6.9,7,10.5c0,0.5-0.1,1.6-0.1,2.2
		c-3.1-3.8-5.6-7.9-8.1-12.1c-1.4-0.4-2.8-0.9-4.2-1.3C83.4,161.8,83.5,160.3,83.8,158.8 M85,160.3c-1.2,1.5,1.5,3,2.4,1.5
		C88.6,160.3,86,158.9,85,160.3z"/>
	<path class="st34" d="M43.8,159.4c6.1,0,12.2-0.9,18.2-0.1c3.1,1.7,5.1,4.9,7.7,7.1c2.3-0.3,5.8,0.4,5.1,3.5c0,3.2-3.6,2.6-5.6,2.2
		c1.5-0.8,3-1.4,4.6-2c-0.9-3.4-3.5-0.7-5,0.6c0-1.2,0-2.3,0-3.5c-2.3-2-4.3-4.4-6.9-6.1c-5.8-0.7-11.7-0.2-17.5-0.4
		C44.2,160.3,43.9,159.7,43.8,159.4z"/>
</g>
<g id="_x23_ce9627ff">
	<path class="st35" d="M103.5,37.9l0.7,0.8l0.1,0.1c0.2,12.4,0,24.8,0.1,37.3c-1.9,2.2-3.9,4.3-6,6.4c0.1,0.8,0.3,2.3,0.4,3.1
		c-1.2,0.7-2.4,1.7-3.8,1.9c-1.1-0.8-2.7-1.8-2.3-3.4c-0.1-2.9,3.2-2.9,5.2-3.5c1.7-1.6,3.3-3.2,4.9-4.8c0-7.2-0.1-14.5,0.3-21.7
		c0.2-5-0.6-10-0.3-14.9C103,38.8,103.3,38.2,103.5,37.9 M94.5,83.1c-1.3,1.3,0.6,3.6,2,2.3C98,84.1,95.8,81.5,94.5,83.1z"/>
	<path class="st35" d="M28,197c0-2,0.1-4,0.1-6c6.3,9.1,14.1,17.2,22.5,24.3c-1.5,1.9-2.1,4.2-2.6,6.5c-8.3-6.5-15.8-13.9-22.1-22.3
		C26.7,198.6,27.3,197.8,28,197z"/>
</g>
<g id="_x23_cb9120ff">
	<path class="st36" d="M213.1,38c4.9,5.1,9.3,10.6,13.4,16.3c-1.1,0-2.1-0.1-3.1-0.1c-0.9,1.1-1.9,2.3-2.8,3.4
		c-3.1-4.5-6.5-8.7-10.2-12.7C211.5,42.8,212.4,40.4,213.1,38z"/>
	<path class="st36" d="M23.3,53c3.8-5.4,7.9-10.6,12.8-15.1c0.4,1.9,0.9,3.7,1.3,5.6c0.9-0.1,1.8-0.2,2.7-0.4
		c-5,5.4-9.8,11.1-13.8,17.3c-0.5,0-1.5,0.1-2,0.1C24.7,58,25.5,55.1,23.3,53z"/>
	<path class="st36" d="M210.9,203.1c4.8-5.3,9.1-11,12.9-17c0.8,3,1.5,5.9,2.2,8.9c-3.9,5.7-8.3,10.9-13.1,15.8
		C212.4,208.2,211.6,205.6,210.9,203.1z"/>
</g>
<g id="_x23_83672aff">
	<path class="st37" d="M47.5,39.2c1.6-0.5,3.7,1.8,3.2,3.4C49.2,42.9,47.3,40.8,47.5,39.2z"/>
</g>
<g id="_x23_896d2fff">
	<path class="st38" d="M200.5,39.2c1.7,0.7-0.9,3.9-2.3,3.3C197.7,41.1,199.2,39.6,200.5,39.2z"/>
</g>
<g id="_x23_ae7510ff">
	<path class="st39" d="M192.1,40.7l0.5,0.1c11.9,10.2,22.1,22.5,28.8,36.7c9.1,19.3,13.1,41.3,9.6,62.5c-3.1,19.8-11.2,39.1-24.8,54
		c0.2-0.3,0.5-0.9,0.7-1.2c10.4-13.2,18.5-28.5,21.9-45.1c5.3-21.7,2.7-44.9-5.9-65.4c-6.8-16.5-18.3-30.7-32-42
		C191.2,40.5,191.8,40.7,192.1,40.7z"/>
	<path class="st39" d="M50.5,45.9l0.5-0.1c0.3-0.1,0.8-0.2,1.1-0.3c-8.1,7.7-15.3,16.2-20.8,26C19.5,92,14.9,116.5,18.4,140
		c2.7,18.6,10.5,36.5,22.3,51.2c8.6,10.4,18.8,19.3,30.5,26.1c-0.3,0-1-0.1-1.3-0.1l-0.4,0c-10.8-6.3-20.1-14.9-28.2-24.3
		C28,176.7,19.5,156.7,17.3,136C13.4,102.9,26.3,68.7,50.5,45.9z"/>
	<path class="st39" d="M42.5,90.2c6.3-14.6,16.1-28,29.3-37.1l0.9-0.5c-0.2,7.3,0.3,14.6-0.3,21.9c0,0.5-0.1,1.4-0.1,1.9
		c-1.4-2.2-1-4.9-1.1-7.4c0.1-4.8,0.3-9.6-0.4-14.4c-3,2.7-6.3,5-8.9,8c-1.4,1.4-0.9,3.5-1.1,5.3c0.2,12,0,24,0.1,36
		c-0.2,2.1,1.3,3.6,2.6,5l-2.1,0c-1.2-1-2-2.4-1.8-4c-0.2-13.1,0.2-26.2-0.2-39.3c-3.9,3.8-7.2,8.1-9.9,12.8c-1,1.7-0.8,3.7-0.9,5.5
		c0.1,13.8,0,27.6,0.1,41.3c-0.3,0.3-0.9,0.8-1.2,1.1c-0.5-14.3,0-28.6-0.6-42.8C37,99.9,35,119.8,37.3,138.4c0,0.3,0,0.8,0,1.1
		C33.6,123.1,36.3,105.7,42.5,90.2z"/>
	<path class="st39" d="M176.1,52.8l1,0.5c19.4,13.8,32.2,36.2,35.2,59.7c0.3,8.4,1,17-0.5,25.3l-0.4,0c1.4-10.7,1.3-21.8-0.9-32.4
		c-2-7.7-4-15.7-8.6-22.4c-0.6,14.3,0.1,28.6-0.4,42.8c-0.3-0.2-1-0.7-1.3-1c0-13.8-0.1-27.6,0.1-41.4c0-2.1,0-4.2-1.2-6.1
		c-2.7-4.4-5.8-8.6-9.5-12.3c-0.3,11.1-0.1,22.2-0.1,33.3c-0.1,3.5,0.9,7.8-2.3,10.3c0.1-0.6,0.2-1.8,0.3-2.3
		c0.5-14.5,0.2-29,0.2-43.5c-3.1-3.1-6.2-6.3-9.9-8.6c-0.2,6.9,0,13.8-0.2,20.8c-0.5,0.5-1.4,1.4-1.9,1.8c0-0.5,0.1-1.6,0.1-2.1
		C176.5,67.8,176.1,60.3,176.1,52.8z"/>
	<path class="st39" d="M158.1,104.4c2.8,1.1,3.9,4.3,4.7,7c-1.2,0.1-2.3,0.1-3.5,0.2c-1.2-0.7-2.4-1.4-3.6-2.2
		c1.3-0.1,2.7-0.2,4.1-0.3c-0.4-0.3-1.1-1-1.4-1.3c-1.1-1-2.2-1.9-3.2-2.9C155.8,104.8,157.4,104.5,158.1,104.4z"/>
	<path class="st39" d="M37.3,139.6l0.6,0.1c0.8,6.8,3,13.4,5.8,19.7c0.1,0.3,0.4,0.9,0.5,1.2c5.4,13,14.9,23.7,25.3,32.9l-0.4,0.4
		C52.7,180.4,40.3,161,37.3,139.6z"/>
</g>
<g id="_x23_80652aff">
	<path class="st40" d="M206.4,44.5c1.7,1-1.3,4.1-2.8,3.4C203.2,46.3,205,44.9,206.4,44.5z"/>
</g>
<g id="_x23_836829ff">
	<path class="st41" d="M39.2,47.5c1.5-0.3,3.6,1.6,3.4,3.2C41,51.3,38.8,49.2,39.2,47.5z"/>
</g>
<g id="_x23_816529ff">
	<path class="st42" d="M34.2,53.6c1.5-0.4,3.8,1.5,3.4,3.1C36,57.3,33.7,55.3,34.2,53.6z"/>
	<path class="st42" d="M27.5,179.2c3.4-0.4-0.5,4-2.2,2.6C24.8,180.4,26.5,179.5,27.5,179.2z"/>
</g>
<g id="_x23_c58815ff">
	<path class="st43" d="M14.1,68.4c2.6-5.4,5.8-10.5,9.2-15.4c2.2,2.1,1.4,5,1,7.6c0.5,0,1.5-0.1,2-0.1c-4,6.2-7.5,12.7-10.3,19.4
		C15.1,76.1,14.6,72.2,14.1,68.4z"/>
	<path class="st43" d="M223.3,54.3c1,0,2.1,0.1,3.1,0.1c2.9,4.6,6.2,9.1,8.2,14.2c-0.2,3.8-0.7,7.7-2,11.3
		c-3.3-7.8-7.4-15.3-12.2-22.2C221.4,56.5,222.4,55.4,223.3,54.3z"/>
	<path class="st43" d="M233,168.1c0.9,4,1.5,8,1.7,12.1c-2,5.3-5.6,10-8.6,14.8c-0.7-3-1.4-5.9-2.2-8.9
		C227.3,180.4,230.4,174.4,233,168.1z"/>
</g>
<g id="_x23_806528ff">
	<path class="st44" d="M29.4,60.2c1.4-0.7,4,1,3.5,2.6C31.5,63.5,28.9,61.8,29.4,60.2z"/>
</g>
<g id="_x23_7e6428ff">
	<path class="st45" d="M25.4,67.1c1.4-0.9,4.1,0.8,3.6,2.4C27.6,70.2,25,68.8,25.4,67.1z"/>
</g>
<g id="_x23_be7d08ff">
	<path class="st46" d="M1.4,111c1.5-14.8,5.8-29.4,12.7-42.6c0.6,3.9,1.1,7.7,2,11.5c-11.6,28.3-11.5,60.9,0.1,89.2
		c-0.6,3.7-0.4,7.4-0.4,11.2c-0.5-0.3-1.7-0.9-2.2-1.2c-6.9-13.3-11-28.1-12.3-43C0.9,127.8,0.8,119.4,1.4,111z"/>
	<path class="st46" d="M104.1,218.6c0.4,0.3,1.2,1,1.6,1.3c0.3,1.8,0.7,3.7,0.9,5.5c-0.3,0.2-1,0.7-1.3,0.9
		C103.5,224.1,103.2,221.3,104.1,218.6z"/>
</g>
<g id="_x23_be7d07ff">
	<path class="st47" d="M234.7,68.6c18,34.3,18.1,77.4,0,111.6c-0.2-4.1-0.7-8.1-1.7-12.1c2.9-7.5,5.2-15.3,6.6-23.2
		c4.2-21.8,1.3-44.6-6.9-65.1C234,76.2,234.5,72.4,234.7,68.6z"/>
</g>
<g id="_x23_231a08ff">
	<path class="st48" d="M157.1,71.2c0.9-1.4,3.6,0,2.5,1.5C158.6,74.2,155.9,72.8,157.1,71.2z"/>
</g>
<g id="_x23_c9a54fff">
	<path class="st49" d="M167.1,71.5c0.4,0,1.2-0.1,1.6-0.1v0.8c-0.4,0-1.1,0.1-1.5,0.1L167.1,71.5z"/>
</g>
<g id="_x23_785f26ff">
	<path class="st50" d="M227.6,77.3c3.5-0.2-0.7,3.9-2.3,2.4C224.7,78.4,226.5,77.6,227.6,77.3z"/>
</g>
<g id="_x23_e4bf61ff">
	<path class="st51" d="M105.5,85.4c3.5-7.8,14.8-8,20.7-2.8c-0.4,0.4-1.1,1.3-1.4,1.8c-4-2.6-9-3.9-13.7-2.6c-2.5,1-4.1,3.3-5.9,5.2
		C105.2,86.6,105.4,85.8,105.5,85.4z"/>
</g>
<g id="_x23_ce9525ff">
	<path class="st52" d="M126.2,82.6l0.3-0.4c2.7,3.1,6.4,6.3,6.2,10.8c0.2,2.1-0.8,4.1-1.6,6c1.4-0.2,2.7-0.4,4.1-0.5
		c-1,0.6-2.1,1.2-3.1,1.8c-1.8,1.2-3.7,2.1-5.9,2.4c-1.3,0.1-2.6,0.1-3.9,0.1c0.4,1.6,0.7,3.2,1.1,4.8c0.1,0.3,0.2,1,0.3,1.3
		c-1.7-0.2-3.4-0.4-5.1-0.6c-0.5-1.9-0.8-3.9,0.5-5.6c2.1-1.1,4.5-2.3,7-2c3.5,1.1,5.4-3,5.5-5.8c-0.1-4.5-3.9-7.6-6.8-10.6
		C125.1,83.9,125.8,83,126.2,82.6z"/>
</g>
<g id="_x23_806428ff">
	<path class="st53" d="M16.6,85.2c1.4-0.8,3.6-0.2,4.3,1.2C20.2,88,16.4,86.8,16.6,85.2z"/>
</g>
<g id="_x23_b67a0eff">
	<path class="st54" d="M99.9,99c-2.6-4.7-1.2-10.9,2.9-14.2c-1.1,3-3.1,5.9-2.6,9.2c0,3.2,2.5,5.3,4.2,7.7c-0.5-0.1-1.4-0.2-1.8-0.2
		C101.2,101.5,100.5,100,99.9,99z"/>
	<path class="st54" d="M68.4,98.8c2.3-0.7,4.7-0.7,7.1-0.8c1.5,0.4,3,0.9,4.6,1.3c-3.1,0.4-6.1,0.8-9.2,1.1c0.8,6.5,3,12.8,5.4,18.8
		c-0.9-0.4-1.9-0.8-2.8-1.3l-0.6-0.5l1.3,0.1c-0.3-0.4-0.9-1.1-1.2-1.5C70.5,110.5,68.5,104.8,68.4,98.8z"/>
</g>
<g id="_x23_84692cff">
	<path class="st55" d="M229.3,85.2c0.8-0.8,3.6-0.4,2.2,1C230.4,88.1,226.3,86.7,229.3,85.2z"/>
</g>
<g id="_x23_b08519ff">
	<path class="st56" d="M165.4,88.5c2.4-1.4,5-2.4,7.8-2.3c2.8,8.9,2.5,18.7-0.8,27.5c-1.1,2.9-2.6,5.7-4.9,7.8
		c0.1-0.4,0.3-1.1,0.4-1.5c0.4-1.7,1.6-3,2.3-4.5c2-3.5,2.5-7.5,2.5-11.4c0-5.3,0.1-10.8-1.4-15.9c-4.1,1.2-7.8,3.7-12.1,4.4
		c-3.9,0.7-8.1,1-11.6,3.2c-2.9,1.5-3.9,4.7-5.4,7.4c4-3.6,9.2-6.6,14.7-5l1.1,1.2c-7.9-1.2-13.9,4.7-19.5,9.2
		c0.9-3.5,1.3-7.1,2.2-10.6c1.6-3.6,4.8-6.1,7.9-8.2c-0.2,0.7-0.6,2.1-0.9,2.7c2-0.7,4.3-1.4,6.2,0C158,91.5,161.9,90.5,165.4,88.5z
		"/>
</g>
<g id="_x23_c69430ff">
	<path class="st57" d="M168,92.9c0.7-0.6,1.4-1.2,2.2-1.9c1,5.8-1.3,11.4-2.4,17c-0.4,2.5-2,4.5-3.8,6.2c0.6-3.1,1.8-5.9,2.8-8.9
		c-1.2,0.8-2.5,1.6-3.7,2.5c1.2-2.4,1.8-5,1.9-7.7c-0.8,0.2-2.5,0.5-3.3,0.7C164.6,99,168,96.9,168,92.9z"/>
</g>
<g id="_x23_7a6026ff">
	<path class="st58" d="M233.2,96.2c0.7-0.4,3.2-0.2,2.2,1.1c-1,0.8-2.2,1.1-3.5,0.9C230.3,97.6,232.4,96.2,233.2,96.2z"/>
</g>
<g id="_x23_f3cc6aff">
	<path class="st59" d="M132.1,100.2c1-0.6,2-1.2,3.1-1.8c2.5,3,2.2,6.8,1.3,10.3c0.2,0.2,0.7,0.7,0.9,0.9l1.1,1.2
		c-2.3-1.3-4.7-2.4-7.1-3.4C131.6,105,131.9,102.6,132.1,100.2z"/>
</g>
<g id="_x23_725821ff">
	<path class="st60" d="M11.2,99.9c2.3,0.1,5.2-0.3,6.5,2.2C15.3,102.2,12.6,102.2,11.2,99.9z"/>
</g>
<g id="_x23_e8bc56ff">
	<path class="st61" d="M126.3,102.6c2.2-0.3,4.1-1.2,5.9-2.4c-0.3,2.4-0.5,4.8-0.8,7.2c-2.6-0.1-5.2,0.6-7.7,1.4
		c-0.1-0.3-0.2-1-0.3-1.3c1.4-0.4,2.8-0.8,4.2-1.2C127.2,105.4,126.6,103.6,126.3,102.6z"/>
</g>
<g id="_x23_6e5622ff">
	<path class="st62" d="M231.2,102.2c1.2-2.5,4-2.2,6.4-2.3C236.2,102.2,233.5,102.2,231.2,102.2z"/>
</g>
<g id="_x23_c28411ff">
	<path class="st63" d="M113.8,100.1c2.1,0.1,3.9,1.1,5.2,2.6c-1.3,1.7-1,3.7-0.5,5.6l0.2,1c-1.7,0.8-3.6,1.2-5.4,1.6
		C112,107.3,112.9,103.6,113.8,100.1z"/>
</g>
<g id="_x23_c78a17ff">
	<path class="st64" d="M77.4,102.1c1.7,3.1,4.3,5.3,7.3,7.1c-0.9,0.1-2.6,0.2-3.5,0.2c0.7,0.8,1.3,1.5,2,2.3c-0.5,0.2-1.5,0.5-2,0.6
		c0.2,0.9,0.5,1.8,0.8,2.8c-0.4,0.3-1.1,0.8-1.5,1.1C78.5,111.7,77.1,107,77.4,102.1z"/>
	<path class="st64" d="M81.9,170.5c1.7,2.6,3.7,5.2,3.5,8.5c0.1,8.1-0.1,16.2,0.1,24.4c3.7,1.6,7.4,3.2,11.2,4.7
		c0.4-2.7,0.6-5.4,0.4-8.1c-0.2-7.8,1.1-15.9-1.4-23.4c0-0.5,0.1-1.6,0.1-2.2c1.2,2,2.8,4.1,2.6,6.6c0,9.1,0,18.2-0.1,27.3l0,0.7
		c-5.2-1.1-9.9-3.6-14.7-5.8l0-0.2l0.1-0.5c1-7.5,0.5-15,0.6-22.5c0.2-2.7-1.3-5.1-2.6-7.3C81.7,172.2,81.9,171.1,81.9,170.5z"/>
</g>
<g id="_x23_7a550fff">
	<path class="st65" d="M98.5,101.6l2.2,0.2c3.1,2.5,5.5,5.8,6.5,9.7C104,108.5,101.5,104.8,98.5,101.6z"/>
</g>
<g id="_x23_c8a856ff">
	<path class="st66" d="M145.5,104.8c3.8-2.5,8.8-2.8,12.6-0.3c-0.8,0.1-2.3,0.3-3.1,0.4C151.9,104.8,148.7,104.7,145.5,104.8z"/>
</g>
<g id="_x23_785e24ff">
	<path class="st67" d="M10.5,104c2.4-0.1,5.3-0.6,6.3,2.2C14.6,106.1,12.1,105.8,10.5,104z"/>
</g>
<g id="_x23_755b24ff">
	<path class="st68" d="M232.1,106.3c0.4-2.3,2.9-2.9,4.9-2.3c2,0.4-0.3,1.6-1.2,1.6C234.9,105.8,233.1,106.1,232.1,106.3z"/>
	<path class="st68" d="M10.6,144.9c1.4-2.3,4.1-2.1,6.4-2C15.5,145.1,12.9,145.1,10.6,144.9z"/>
</g>
<g id="_x23_665020ff">
	<path class="st69" d="M142.7,108.8c4.8-3.3,10.4-0.7,15.6-1c0.4,0.3,1.1,1,1.4,1.3c-1.4,0.1-2.7,0.3-4.1,0.3
		C151.4,109.4,147,109.1,142.7,108.8z"/>
	<path class="st69" d="M131.2,234c0.5-0.1,1.4-0.2,1.8-0.3c0.2,2,0.2,3.9,0.1,5.9C130.6,238.9,131.2,236,131.2,234z"/>
</g>
<g id="_x23_cda84cff">
	<path class="st70" d="M85.2,119.2c-0.1-3.1,0.7-6.6,3.7-8.2l1.2-0.6c-0.8,1.3-1.7,2.5-2.5,3.8c0.6,0.1,1.9,0.2,2.5,0.3
		c-2.9,2.9-3.9,6.9-4.6,10.8c3-2.6,5-6.3,8.7-8.2c-1.5,2.4-3.4,4.5-5.1,6.8c-1.7,2.7-3,5.5-4.9,8.1c0.2-2.3,1-4.5,1.9-6.6
		c-3.1,0.7-1.3-2.9-1.7-4.4c-1.5-1.5-2.8-3.2-4-4.9c0.4-0.3,1.1-0.8,1.5-1.1C82.9,116.4,84,117.8,85.2,119.2z"/>
</g>
<g id="_x23_c3922dff">
	<path class="st71" d="M91.7,131.3c2.1-5.8,5-11.7,10-15.6c-4.1,5.1-7.3,11-9.3,17.2c0.3,0.8,0.9,2.4,1.2,3.2
		c-2.8-0.6-3.9,2-5.2,3.9c1.1-2.6,1.6-5.4,1-8.1c-0.8-3.4,1.7-6.4,4.1-8.4C93.2,126.1,89.5,128.9,91.7,131.3z"/>
</g>
<g id="_x23_b98d31ff">
	<path class="st72" d="M9,124.7c1.8-1.6,4.3-1.2,6.3-0.2C13.2,124.9,11.1,125,9,124.7z"/>
	<path class="st72" d="M52.1,138.4c1.9-1.6,4.2-2.4,6.6-2.1c-0.3,2,0.9,5.1-1.6,5.9c-2,0.8-3.5-1.5-5.1-2.4
		c-4.7,0.3-9.5,0.5-14.2-0.1l-0.6-0.1l0-0.2c0-0.3,0-0.8,0-1.1C42.2,138.3,47.2,138.3,52.1,138.4 M55.2,138.4
		c-0.5,1.6,0.1,2.1,1.7,1.6C57.4,138.4,56.8,137.9,55.2,138.4z"/>
	<path class="st72" d="M191.4,136.4c2-1.1,3.5,1.1,5.1,1.9c5,0,10,0.1,14.9,0.1l0.4,0c-4.2,28-22.9,53.6-48.6,65.7l0.1-0.7
		c0.5-8.8-0.2-17.6,0.2-26.3c1.4-6.7,8.9-10.9,8.3-18.1c0.3-0.6,0.9-1.8,1.2-2.4c2,0.2,5,0.9,4.5,3.6c0.3,2.6-2.6,2.7-4.3,3.7
		c-2.4,3.8-5,7.6-7.4,11.4c-1.5,2-1.2,4.6-1.2,6.9c0.1,6.8,0,13.5,0.1,20.3c4.3-1.7,8.2-4.3,11.9-7c0-4.1,0.1-8.1-0.1-12.2
		c-1.2-1.8-3.5-4.6-1-6.4c1.3-1.5,3.2-0.6,4.4,0.5c1.3,2.2-0.6,4.2-1.6,5.9c-0.1,3.5-0.1,7,0,10.4c11.5-8.3,20.4-20,26.2-32.9
		c-5.9,0.1-11.7,0.3-17.6,0.2c-3.7,3.1-7.9,6.4-8,11.7c-1.2-0.1-2.4,0-3.6-0.2c-0.9-1-1.6-2.2-2.4-3.4c1.5-1.9,3.7-2.7,6.1-2.7
		c2.4-2.3,4.4-5,7.1-6.9c6.3-0.9,12.7,0,19,0c2.5-6.3,4.8-12.8,5.6-19.6c-4,0.4-8,0.4-11.9,0.2c-2.7-0.5-4.6,2-7.1,2.4
		C189.2,141.6,188.8,137.5,191.4,136.4 M191.4,138.4c-1.1,1.5,1.5,3.1,2.4,1.6C194.9,138.5,192.3,136.9,191.4,138.4 M173.4,159
		c-1.2,1.4,1.4,3,2.4,1.6C176.9,159.2,174.4,157.5,173.4,159 M176.3,168.1c-1.9,0.4-1,3.4,0.8,2.8
		C179.2,170.6,178.2,167.3,176.3,168.1 M176.3,178.2c-1.4,1.3,0.9,3.4,2.2,2.1C180.1,179,177.6,176.7,176.3,178.2z"/>
</g>
<g id="_x23_ddad43ff">
	<path class="st73" d="M176.4,123.4c1.9-1,3.5,0.9,4.9,1.9c6.3-0.2,12.6-0.7,18.9,0.2c0.3,0.2,1,0.7,1.3,1c-6.8,0.1-13.6,0-20.5,0
		c-0.8,0.8-1.6,1.5-2.4,2.2c-2.1,1-3.4-1.5-4.7-2.7C174.8,125.1,175.6,124.2,176.4,123.4 M176.5,125.1c-1.2,1.4,1.3,3.2,2.3,1.7
		C180,125.3,177.5,123.6,176.5,125.1z"/>
	<path class="st73" d="M171.8,231.4c5.2-2.3,10.2-5,15-8c0.8,2.1,1.6,4.3,2.8,6.2c-4.4,2.8-9,5.3-13.8,7.3c-0.3-1.5-0.7-3-1.1-4.5
		C174,232.1,172.6,231.6,171.8,231.4z"/>
</g>
<g id="_x23_1e1607ff">
	<path class="st74" d="M176.5,125.1c1-1.5,3.5,0.2,2.3,1.7C177.8,128.3,175.3,126.5,176.5,125.1z"/>
</g>
<g id="_x23_edc35fff">
	<path class="st75" d="M109.2,135.1c-0.2-2.7,2.7-3.8,4.7-4.7c2.8,0.9,5.1,3,4.7,6.2c2.1-0.1,4.2,0.2,6.3,0.8c2.5-0.6,5-0.9,7.6-0.7
		c0.6-1.7,0.7-3.9,2.5-4.8c2.6-1.3,5.4,0.6,6.4,2.9c0.1,1.8-0.8,3.4-1.3,5.1c5.7,3,11.4,6.6,14.8,12.2l-0.9-0.2
		c-3.4-3.4-6.6-7.2-11-9.2c-5-2.3-10.5-4.8-16.1-4.1c-0.2,0.6-0.7,1.7-0.9,2.3c-1.3-1.3-2.7-2.6-4-3.9c-4.6,1.4-8.9,3.7-13.4,5.6
		c-3.5,1.6-7.3,3-9.5,6.3c-2.2,3-1.6,7-3.5,10.2c-0.5-1.9-0.8-3.8-1.2-5.6c-2.9,0.1-5.8,0.2-8.7,0.1c3.2-0.2,6.4-0.4,9.5-1.3
		c1.5-2.2,2.5-4.7,4.7-6.4c3.5-3.1,8-4.5,12.1-6.6C110.7,138.4,108.8,137.2,109.2,135.1 M112,133.1c-0.5,1.6,0.1,2.2,1.7,1.7
		C114.1,133.1,113.6,132.6,112,133.1 M135.2,133.3c-0.5,1.6,0,2.2,1.6,1.7C137.3,133.4,136.8,132.8,135.2,133.3z"/>
</g>
<g id="_x23_8c743aff">
	<path class="st76" d="M112,133.1c1.6-0.5,2.2,0,1.7,1.7C112,135.3,111.5,134.8,112,133.1z"/>
</g>
<g id="_x23_947a3bff">
	<path class="st77" d="M135.2,133.3c1.6-0.5,2.2,0.1,1.6,1.7C135.2,135.5,134.6,134.9,135.2,133.3z"/>
</g>
<g id="_x23_735a22ff">
	<path class="st78" d="M9.5,137c1.4-2.1,4-1.8,6.2-2.1C15.2,138,11.6,136.7,9.5,137z"/>
</g>
<g id="_x23_d0992cff">
	<path class="st79" d="M168.6,139.4c2.5-2.7,6.9-5.4,10-2.2c1.1,0.4,2.2,0.8,3.4,1.3c-0.3,0.5-0.9,1.5-1.2,2
		c-0.1,0.2-0.3,0.4-0.3,0.6c-1.1,2.1-2.1,4.1-3.2,6.2c0.7,0.2,2.1,0.5,2.8,0.7c0.7,0.3,2.1,0.8,2.8,1.1c-0.4,0.2-1.2,0.7-1.6,1
		c-0.5,0.3-1.4,0.9-1.9,1.2c-2.1-1-4-2.4-6.3-2.8c-2.5-0.1-4.1,2.1-5.6,3.7c3,0.4,6,1,9,1.5c-6.7,0.2-13.4,0.5-20.1,0.5
		c-0.3,4.4-1.2,9.2-5.1,11.8c-0.5,1.7-0.8,3.7-2.4,4.7c-1.8,0.3-3.2-1.1-4.7-1.9c-2.3-0.4-5.5-1.4-5.7-4.1c0.2-0.6,0.5-1.8,0.7-2.3
		c1.2,1.2,2.4,2.4,3.6,3.5c-0.5-2.7-1.4-5.2-2.7-7.6c0.5,0.1,1.1,0.3,1.3,0.8c2,3.1,3.3,6.7,5.7,9.5c3.4,1.7,2.6-2.7,2.2-4.7
		c-1.7-4.3-5.3-7.4-7.9-11.1c2.9,1.5,4.8,5.1,8.2,4.9c0.7,2.4,1.1,4.9,1.5,7.4c4.2-2.9,4.1-8.7,3.2-13.2l0.9,0.2
		c1.8,0.2,3.7,0.1,5.5,0c-0.2-3.3-0.2-6.9,2.1-9.5C163.9,140.6,166.4,140.1,168.6,139.4 M173.5,139.2c-1.2,1.2-2.2,2.6-3.3,3.9
		c1.3,1.7,2.9,2.9,5.2,2.4C175,143.5,175.6,140.3,173.5,139.2 M164.9,149.3c0.7-0.2,2.1-0.4,2.8-0.6c-0.6-1.9-1.2-3.8-1.7-5.8
		C164.8,144.7,163.1,147.4,164.9,149.3z"/>
</g>
<g id="_x23_231b0aff">
	<path class="st80" d="M191.4,138.4c1-1.5,3.6,0.1,2.4,1.6C192.8,141.4,190.2,139.9,191.4,138.4z"/>
</g>
<g id="_x23_745a23ff">
	<path class="st81" d="M10.2,141.2c0.8-2.9,4-2.1,6.2-2.2C15.1,141.2,12.4,141,10.2,141.2z"/>
</g>
<g id="_x23_c48714ff">
	<path class="st82" d="M63.6,147.6c-0.5-3.2-0.3-7.8,3.5-8.7c-0.7,1.4-1.3,2.9-1.8,4.4c-0.4,2.4,0,5.1,3,5.5c0-0.7-0.1-2-0.1-2.6
		c0.6,0.9,1.1,1.7,1.6,2.7c-0.1,0.6-0.3,1.9-0.4,2.6c0.4,0.2,1.2,0.5,1.6,0.7c1.4,0.6,2.8,1.1,4.2,1.5c-6,0.1-12,0-18-0.1
		c0-0.3,0.1-1,0.1-1.3c3.4,0,6.7,0,10-0.1C66.1,150.8,64.5,149.4,63.6,147.6z"/>
</g>
<g id="_x23_c3840fff">
	<path class="st83" d="M182,138.4c1.2,2.1,2.5,4.2,4.4,5.8c0.2,2.7,0.1,5.4-0.2,8.1c1.8,0,3.6,0.1,5.5,0.1c0,0.3,0,0.9,0,1.2
		c-5.1-0.2-10.2,0.7-15.3,0c-3-0.6-6-1.1-9-1.5c4,0.1,8.2,0.7,12-0.9c0.5-0.3,1.4-0.9,1.9-1.2c0.2,0.6,0.7,1.9,1,2.5
		c1.1-1.5,2.2-3,3.2-4.6c-0.9,0.4-1.7,0.7-2.6,1.1c-0.7-0.3-2.1-0.8-2.8-1.1c1.2-2.2,2.5-4.8,0.4-6.9c0.1-0.2,0.3-0.5,0.3-0.6
		C181.1,139.9,181.7,138.9,182,138.4z"/>
</g>
<g id="_x23_705722ff">
	<path class="st84" d="M232.5,139c2.2,0.1,5.2-0.4,6.2,2.2C236.6,140.9,233.5,141.6,232.5,139z"/>
</g>
<g id="_x23_e8bf59ff">
	<path class="st85" d="M118.5,148.2c-1.3-6.1,6.9-5.9,10.9-5.6c-0.8,1.1-1.2,2.3-0.9,3.7c0.9-1,1.8-2.1,2.7-3.1
		c0.4,1.3,1.8,2.6,1.1,4.1c-1.7,1.2-3.6,1.8-5.5,2.6c0.6,2.4,3.4,2.9,5.2,4.1c3.4,1.6,6.2,4.8,7,8.5c-0.2,0.6-0.6,1.8-0.7,2.3
		c-1.4-2.1-2.7-4.3-4-6.5c-3.1,0.8-6.8,0.7-8.9,3.6c-1-0.7-1.9-1.6-2.8-2.4c3.3-0.7,6.6-1.5,9.9-2.1c-1.8-2.1-4.2-3.6-6.5-5.1
		c-2.1,2.9-5.6,4-8.1,6.4c-1.2-0.1-2.3-0.1-3.4-0.2c-0.5,0-1.4-0.1-1.9-0.1c4.3-2.4,10.3-3.1,12.2-8.3
		C122.7,149.5,120.6,148.8,118.5,148.2z"/>
</g>
<g id="_x23_6c541fff">
	<path class="st86" d="M231.6,143.8c2.1-1.6,5.2-1.2,6.7,1.1C236,145,233.7,144.7,231.6,143.8z"/>
</g>
<g id="_x23_3e2a05ff">
	<path class="st87" d="M68.2,148.9c-2.9-0.4-3.3-3.1-3-5.5c1,0.9,1.9,1.8,2.8,2.8C68.2,146.9,68.2,148.2,68.2,148.9z"/>
</g>
<g id="_x23_735922ff">
	<path class="st88" d="M11.6,149c0.8-2.7,3.9-2.1,6-2.4C16.4,149,13.7,148.8,11.6,149z"/>
</g>
<g id="_x23_836729ff">
	<path class="st89" d="M17.4,158.1c0.7-0.5,3.2-0.2,2.1,1.1c-1,0.9-2.2,1.2-3.5,1C14.4,159.5,16.5,158.1,17.4,158.1z"/>
</g>
<g id="_x23_5c410eff">
	<path class="st90" d="M108.8,161.3c1.2-1,2.3-2.4,3.8-2.9c0.5,0,1.4,0.1,1.9,0.1c-2.6,3-4.9,6.2-7.1,9.4c-1.3-2.6-0.3-5.5,1-8
		L108.8,161.3z"/>
</g>
<g id="_x23_cba24eff">
	<path class="st91" d="M159.1,165c1.2-2.3-0.1-7.3,3.8-6.9c2.4-0.1,3.3,3.1,2.1,4.9c-1.2,0.9-2.6,1.3-4,1.9c-1.9,3.1-3.8,6.2-6,9.2
		c-1.4,2-3.2,4.1-3,6.8c-0.1,9,0.1,18,0,27c3.9-1.2,7.6-2.8,11.2-4.6l-0.1,0.7c-8,4.2-16.8,6.6-25.6,8.3
		c-13.1,0.7-26.6,1.2-39.3-3.1V209l0-0.7c2.8,0.9,5.6,1.7,8.3,2.6c0.3-5.9,0.1-11.9,0.2-17.8c-0.1-3.8,0.8-8.2-2.4-11.1
		c0.6-2.1,2.3-4.8,4.8-3.2c2.6,1.6,0.8,4.5-0.7,6.2c-0.3,8.6-0.1,17.3-0.2,26c2.2,0.3,4.3,0.6,6.5,0.8c-0.1-10.5,0-21,0-31.5
		c-0.9-1.1-1.8-2.3-2.7-3.5c1.1-1.8,3.5-4.8,5.5-2.3c2.2,1.8-0.1,4.3-1.1,6.1c-0.2,10.4,0,20.8-0.1,31.2c2.6,0.2,5.2,0.4,7.8,0.5
		c0-13.4,0.1-26.8-0.1-40.2c-1.3-1.9-1.9-4.1-2-6.4c0.7-0.3,2.1-0.8,2.9-1.1c0.7,0.3,2,0.9,2.7,1.2c0,2.2-0.7,4.3-2,6.1
		c-0.2,13.3,0,26.6-0.1,39.9c2.3-0.1,4.6-0.1,6.9-0.2c0-9.3,0-18.5,0-27.8c0.3-2.8-1.7-5.1-2.1-7.8c0.1-2.3,3.5-3.6,4.9-1.6
		c1.4,2.9-1.6,5.5-1.6,8.4c-0.2,9.5,0,19.1-0.1,28.6c2.2-0.1,4.4-0.1,6.6-0.2c0.1-8.7,0.1-17.5,0-26.2c-0.8-1.1-1.6-2.2-2.4-3.3
		c1.5,0.4,3,0.7,4.5,1.1c0-0.7,0.1-2,0.2-2.7c-1.7,0.2-3.3,0.3-5,0.5c1.4-1.9,3.6-2.4,5.9-2.3c0.3,2.5,0.2,5.1-1.7,7
		c-0.3,8.4-0.1,16.9-0.1,25.3c2.8-0.7,5.6-1.3,8.3-2.2l1.4-0.5c0.4-10.2,0.6-20.6-0.2-30.8C153.6,173,156.7,169.2,159.1,165
		 M161.4,160.2c-1.2,1.4,1.3,3.1,2.3,1.7C165,160.5,162.4,158.8,161.4,160.2 M124,167.1c-0.6,1.6,0,2.1,1.7,1.6
		C126.2,167.2,125.7,166.6,124,167.1 M114.3,175c0.1,1.2,0.2,2.5,0.2,3.7c0.9-0.4,2.6-1.3,3.5-1.8
		C116.9,176.1,115.7,175.4,114.3,175 M132.3,175.9c-0.6,1.6,0,2.1,1.7,1.6C134.5,176,134,175.4,132.3,175.9 M107.2,180.1
		c-2,0.4-1,3.5,0.9,2.8C110.2,182.5,109.1,179.4,107.2,180.1z"/>
</g>
<g id="_x23_7f6327ff">
	<path class="st92" d="M229.3,158.2c1.4-0.7,3.4,0,4.2,1.3C233,161.2,228.8,160,229.3,158.2z"/>
</g>
<g id="_x23_261d0aff">
	<path class="st93" d="M173.4,159c1-1.4,3.6,0.2,2.4,1.6C174.7,162,172.2,160.4,173.4,159z"/>
</g>
<g id="_x23_211909ff">
	<path class="st94" d="M161.4,160.2c1-1.5,3.5,0.2,2.3,1.7C162.8,163.4,160.2,161.7,161.4,160.2z"/>
</g>
<g id="_x23_0c0903ff">
	<path class="st95" d="M124,167.1c1.7-0.5,2.2,0,1.7,1.6C124,169.3,123.4,168.7,124,167.1z"/>
</g>
<g id="_x23_29200dff">
	<path class="st96" d="M176.3,168.1c1.9-0.7,2.9,2.5,0.8,2.8C175.3,171.5,174.4,168.5,176.3,168.1z"/>
</g>
<g id="_x23_c58916ff">
	<path class="st97" d="M15.7,180.3c0-3.7-0.2-7.5,0.4-11.2c3.3,7.7,7.3,15,12,21.9c-0.1,2-0.1,4-0.1,6c-0.7,0.8-1.3,1.6-2,2.5
		c-4.7-6.4-9.3-13.1-12.5-20.4C14.1,179.4,15.2,180,15.7,180.3z"/>
</g>
<g id="_x23_795e25ff">
	<path class="st98" d="M20.4,175.3c1.2-2.2,3.6-3.1,6-3.4C25.3,174.2,22.9,175.2,20.4,175.3z"/>
</g>
<g id="_x23_0e0b04ff">
	<path class="st99" d="M132.3,175.9c1.7-0.5,2.2,0,1.7,1.6C132.3,178.1,131.7,177.5,132.3,175.9z"/>
</g>
<g id="_x23_241c0aff">
	<path class="st100" d="M70.2,178.3c1-1.4,3.6,0.2,2.3,1.6C71.5,181.4,68.9,179.7,70.2,178.3z"/>
</g>
<g id="_x23_684605ff">
	<path class="st101" d="M149.9,186c0-2.9-0.2-6.1,1.3-8.7c0.8,10.2,0.6,20.5,0.2,30.8l-1.4,0.5C149.9,201,150.1,193.5,149.9,186z"/>
</g>
<g id="_x23_271f0cff">
	<path class="st102" d="M176.3,178.2c1.3-1.5,3.8,0.8,2.2,2.1C177.2,181.7,174.9,179.6,176.3,178.2z"/>
</g>
<g id="_x23_775d25ff">
	<path class="st103" d="M218.7,178.8c2.5,0.2,4.8,1.3,5.9,3.6C222.1,182.2,219.9,180.9,218.7,178.8z"/>
</g>
<g id="_x23_2b220eff">
	<path class="st104" d="M107.2,180.1c1.9-0.7,3,2.4,0.9,2.8C106.2,183.5,105.2,180.4,107.2,180.1z"/>
</g>
<g id="_x23_8b6e2dff">
	<path class="st105" d="M36.5,192.1c2.9-0.4-0.6,3.8-2.2,2.7C33.9,193.5,35.5,192.6,36.5,192.1z"/>
</g>
<g id="_x23_876a2aff">
	<path class="st106" d="M211.4,192.2c1.4-0.5,3.6,1.1,3.2,2.6C213.2,195.4,210.9,193.7,211.4,192.2z"/>
</g>
<g id="_x23_846729ff">
	<path class="st107" d="M41.5,198c3.1-0.4-1.2,4.8-2.4,3C39.2,199.6,40.3,198.6,41.5,198z"/>
</g>
<g id="_x23_7e6227ff">
	<path class="st108" d="M206.4,198.2c1.6-0.6,3.8,1.6,3.3,3.2C208.1,201.7,206.1,199.7,206.4,198.2z"/>
</g>
<g id="_x23_856829ff">
	<path class="st109" d="M47.5,203.4c1.8,0.9-1.3,4.2-2.8,3.4C44.4,205.2,46.1,203.8,47.5,203.4z"/>
</g>
<g id="_x23_83692dff">
	<path class="st110" d="M201.1,203.5c1.4-0.3,3.2,1.7,2.8,3.1C202.3,207.1,200.4,204.9,201.1,203.5z"/>
</g>
<g id="_x23_876b2eff">
	<path class="st111" d="M198.2,206.4c1.5-0.4,3.3,1.8,2.8,3.2C199.5,209.8,197.7,207.8,198.2,206.4z"/>
</g>
<g id="_x23_886c2dff">
	<path class="st112" d="M192.3,211.3c1.5-0.3,3.2,1.9,2.6,3.3C193.4,214.9,191.8,212.7,192.3,211.3z"/>
</g>
<g id="_x23_7a6127ff">
	<path class="st113" d="M59.6,220.4c0.3-2.5,1.6-4.6,3.8-5.8C63.4,217.1,61.9,219.3,59.6,220.4z"/>
</g>
<g id="_x23_dab359ff">
	<path class="st114" d="M104.1,218.6c2.6-3,8.7-3.6,9.8,1c-1.9-0.7-3.9-1.3-5.9-1.6c-0.6,0.5-1.7,1.4-2.3,1.8
		C105.3,219.6,104.5,219,104.1,218.6z"/>
</g>
<g id="_x23_e1b757ff">
	<path class="st115" d="M141.4,216.1c0.5,0,1.5,0,2,0c0.7,3.7,1.5,7.4,1.3,11.1C141.4,224.7,142.5,219.8,141.4,216.1z"/>
</g>
<g id="_x23_e3bb5cff">
	<path class="st116" d="M120.8,217.5c0.8,0,1.5,0.1,2.2,0.1c1.1,3.8,4,7.4,3.3,11.6c-0.5-0.7-1.4-2.2-1.8-2.9
		c-1.8-0.2-3.6-0.4-5.4-0.6c-0.9,1.1-1.8,2.2-2.8,3.3C116.9,224.9,119.3,221.3,120.8,217.5 M120.6,223.9c1.9,1.7,3.9-2.1,1.4-2.8
		C120.7,221,119.7,222.9,120.6,223.9z"/>
</g>
<g id="_x23_816629ff">
	<path class="st117" d="M179.3,219.6c1.6-0.1,3,2.6,2.4,4C180,223.8,178.7,221,179.3,219.6z"/>
</g>
<g id="_x23_29220fff">
	<path class="st118" d="M120.6,223.9c-0.9-1,0-2.9,1.4-2.8C124.5,221.8,122.6,225.6,120.6,223.9z"/>
</g>
<g id="_x23_e5bf60ff">
	<path class="st119" d="M105.3,226.4c0.3-0.2,1-0.7,1.3-0.9c2-0.1,4.1,0,6.1,0c-0.1,0.5-0.4,1.4-0.5,1.9
		C109.8,227.6,107.4,227.4,105.3,226.4z"/>
</g>
<g id="_x23_dfaf46ff">
	<path class="st120" d="M64.8,229.9c0-1.6,0.1-3.2,0.1-4.7c5.1,3,10.4,5.6,15.9,7.9c0.3,1.9,0.7,3.8,1,5.6c-0.7,0.2-2.2,0.6-3,0.8
		c-5.4-2.2-10.8-4.7-15.8-7.6C63.5,231.4,64.4,230.4,64.8,229.9z"/>
</g>
<g id="_x23_81672dff">
	<path class="st121" d="M158.2,229.3c1.8-0.4,2.9,3.7,1.3,4.3C158.2,232.7,157.6,230.7,158.2,229.3z"/>
</g>
<g id="_x23_6d5725ff">
	<path class="st122" d="M146.6,231.1c2.6,1,2.2,4,2.5,6.2C146.1,236.8,147,233.3,146.6,231.1z"/>
</g>
<g id="_x23_e4b64eff">
	<path class="st123" d="M159.5,236.1c4.2-1.4,8.3-2.9,12.3-4.7c0.7,0.3,2.2,0.8,2.9,1c0.4,1.5,0.8,3,1.1,4.5
		c-4.9,2.5-10.2,4.5-15.6,5.8C160,240.5,159.8,238.3,159.5,236.1z"/>
</g>
<g id="_x23_745c27ff">
	<path class="st124" d="M139,232.3c2.4,1.3,2,4.1,2.2,6.5C138.3,237.9,139.2,234.5,139,232.3z"/>
</g>
<g id="_x23_e7bc57ff">
	<path class="st125" d="M81.8,238.7c-0.3-1.9-0.7-3.8-1-5.6c6.4,2.6,13,4.5,19.7,6c-0.6,1.6-1.1,3.2-1.9,4.7
		c-1.6,0.4-3.2,0.5-4.8,0.7c-5.2-1.1-10.2-2.9-15-4.9C79.6,239.3,81.1,238.9,81.8,238.7z"/>
</g>
<g id="_x23_95752fff">
	<path class="st126" d="M120.3,234.5c1.4,0.2,1.4,3.9,0,4.1C119.4,237.4,119.5,235.6,120.3,234.5z"/>
</g>
<g id="_x23_ebc05bff">
	<path class="st127" d="M141.7,240.2c6-1.1,12-2.3,17.9-4.2c0.2,2.2,0.4,4.4,0.7,6.6l0,0.4c-3.7,0.7-7.2,2-11,2.4
		c-0.7-0.2-2.2-0.6-2.9-0.8c-0.3-1.1-0.6-2.2-0.8-3.3C144.3,241,143,240.6,141.7,240.2z"/>
</g>
<g id="_x23_f1ca67ff">
	<path class="st128" d="M98.7,243.7c0.8-1.5,1.3-3.1,1.9-4.7c13.5,2.9,27.4,3.1,41.1,1.2c1.3,0.4,2.6,0.8,3.9,1.2
		c0.3,1.1,0.6,2.2,0.8,3.3c0.7,0.2,2.2,0.6,2.9,0.8c-7.5,2.1-15.5,2.2-23.2,2.8c-10.8-0.2-21.7-1-32.2-4
		C95.5,244.2,97.1,244.1,98.7,243.7z"/>
</g>
</svg>
