<?xml version="1.0" encoding="UTF-8" ?>
<!DOCTYPE svg PUBLIC "-//W3C//DTD SVG 1.1//EN" "http://www.w3.org/Graphics/SVG/1.1/DTD/svg11.dtd">
<svg width="250pt" height="250pt" viewBox="0 0 250 250" version="1.1" xmlns="http://www.w3.org/2000/svg">
<g id="#000000ff">
<path fill="#000000" opacity="1.00" d=" M 0.00 0.00 L 250.00 0.00 L 250.00 250.00 L 143.98 250.00 C 145.82 244.72 153.54 244.42 154.88 239.01 C 155.18 239.60 155.77 240.78 156.07 241.37 C 158.40 238.12 159.07 234.13 160.36 230.44 C 160.75 231.41 161.55 233.35 161.94 234.32 C 163.88 230.23 166.37 226.08 165.65 221.36 C 165.81 221.25 166.13 221.03 166.28 220.91 C 166.56 221.60 166.83 222.28 167.11 222.97 C 167.50 225.30 167.84 227.64 168.28 229.98 C 165.09 228.43 164.07 232.66 162.97 234.68 C 165.13 233.54 167.27 232.37 169.41 231.20 C 169.86 226.90 174.48 223.22 172.20 218.85 C 171.88 217.95 171.53 217.06 171.19 216.17 C 171.38 216.43 171.75 216.94 171.94 217.20 C 174.14 220.44 177.14 223.65 181.33 223.83 C 181.84 221.94 182.58 220.08 182.72 218.12 C 181.72 216.45 180.36 215.03 179.19 213.49 C 179.77 213.76 180.91 214.30 181.49 214.56 C 179.91 209.71 176.75 205.56 175.11 200.71 C 176.49 201.76 177.87 202.81 179.26 203.87 C 180.79 203.76 182.32 203.66 183.86 203.57 C 182.71 201.16 181.61 198.71 181.00 196.10 C 180.87 194.98 180.74 193.86 180.63 192.74 C 180.24 192.47 179.46 191.93 179.07 191.66 C 179.34 190.54 179.85 189.18 178.70 188.35 C 176.27 186.20 173.09 185.20 170.26 183.71 C 169.94 181.23 169.47 178.47 171.23 176.39 C 175.27 170.83 181.21 166.90 184.85 160.98 C 188.73 156.24 189.31 149.66 193.78 145.32 C 191.96 145.70 188.98 145.36 189.05 148.04 C 187.91 154.75 183.87 160.43 179.60 165.54 C 175.64 170.28 169.80 173.36 166.90 178.97 C 165.30 181.75 166.95 184.84 167.87 187.53 L 166.27 187.41 C 166.09 187.05 165.73 186.34 165.54 185.98 C 165.53 188.97 164.73 192.31 161.83 193.79 C 156.36 196.48 150.00 195.70 144.11 195.40 C 138.23 194.61 132.88 198.10 127.02 197.77 C 121.75 198.27 116.67 196.93 111.66 195.53 C 104.18 194.80 96.23 197.22 89.09 193.93 C 85.99 192.43 85.09 188.99 84.64 185.88 C 83.48 189.39 81.47 192.58 80.42 196.13 C 80.67 200.28 81.32 204.52 82.58 208.48 C 85.27 212.43 89.53 215.74 94.43 216.13 C 93.98 216.33 93.08 216.74 92.63 216.95 C 90.21 215.80 87.79 214.68 85.34 213.61 C 86.03 217.77 87.77 222.13 92.18 223.48 L 93.44 224.04 C 95.69 224.67 97.99 225.11 100.26 225.67 C 97.52 225.51 94.80 225.18 92.08 224.85 C 92.23 225.57 92.53 227.01 92.68 227.72 C 91.90 225.11 90.42 222.99 87.70 222.03 C 88.18 224.07 88.42 226.38 90.00 227.93 C 94.04 232.54 99.13 236.16 102.79 241.11 C 104.80 243.78 105.89 246.96 107.19 250.00 L 105.28 250.00 C 102.32 240.60 94.28 234.57 87.47 228.04 C 88.17 232.90 89.54 239.34 94.90 241.02 C 96.73 241.79 98.82 242.25 100.25 243.73 C 101.82 245.56 102.61 247.88 103.69 250.00 L 0.00 250.00 L 0.00 0.00 M 43.72 35.74 C 38.31 42.53 38.18 51.73 38.32 60.00 C 38.23 70.27 41.27 80.30 45.74 89.45 C 46.88 91.57 47.40 93.91 47.20 96.31 C 48.80 96.53 50.41 96.69 52.02 96.82 C 46.60 87.29 41.09 77.29 40.50 66.07 C 40.20 56.46 39.39 45.65 45.61 37.56 C 47.81 34.62 51.87 35.13 55.04 35.68 C 64.59 37.57 73.75 40.94 82.94 44.06 C 87.78 46.68 92.96 48.58 97.79 51.23 C 99.57 51.79 101.51 51.51 103.34 51.94 C 102.96 52.07 102.20 52.34 101.82 52.47 L 100.49 52.28 C 100.90 53.52 101.31 54.77 101.73 56.01 C 98.44 53.97 95.72 50.79 91.73 50.16 C 87.15 47.92 82.84 45.02 77.87 43.65 C 68.98 41.01 60.08 38.22 50.91 36.71 C 48.37 36.29 46.79 38.74 45.59 40.56 C 41.41 47.50 42.30 55.97 42.33 63.72 C 42.47 75.89 47.78 87.32 54.62 97.14 C 56.38 99.60 60.54 99.69 61.07 103.11 C 57.35 99.73 52.25 99.40 47.70 97.83 C 48.98 101.36 50.94 104.92 54.30 106.86 C 57.19 108.67 60.68 108.45 63.93 108.78 C 61.27 109.49 58.51 109.22 55.80 109.06 C 55.68 109.96 55.45 111.76 55.34 112.66 C 58.40 113.13 61.46 112.71 64.21 111.26 C 61.93 113.93 59.41 117.55 61.00 121.20 C 63.32 122.20 65.69 120.40 68.04 120.24 C 66.80 120.90 65.54 121.50 64.27 122.10 C 62.94 125.11 61.12 127.84 59.20 130.51 C 64.06 131.04 66.62 126.37 70.87 125.14 C 67.69 127.01 64.98 129.61 62.68 132.48 C 60.28 136.71 60.00 142.34 55.46 145.13 C 58.24 144.71 61.43 144.69 63.57 142.57 C 66.68 140.05 68.32 136.09 71.76 133.95 C 69.05 137.27 66.36 140.62 63.79 144.04 C 62.06 148.79 64.75 153.52 64.67 158.33 C 65.88 160.68 67.64 162.69 69.09 164.90 C 69.68 164.16 70.27 163.42 70.89 162.70 C 71.94 164.91 73.44 166.96 75.71 168.05 L 75.11 169.67 C 73.60 168.10 72.09 166.39 69.93 165.74 C 72.94 169.51 76.94 172.39 79.70 176.36 C 81.30 178.52 81.81 181.80 79.94 183.96 C 77.64 186.24 73.77 186.12 71.77 188.79 C 70.54 190.40 71.30 191.44 73.32 191.62 C 73.36 190.84 73.45 189.29 73.50 188.51 C 76.39 188.23 79.87 189.43 82.27 187.29 C 83.66 185.54 84.95 183.35 84.47 181.03 C 83.54 175.68 77.31 173.47 76.18 168.36 C 75.55 166.18 75.17 163.94 75.31 161.67 C 77.32 165.65 78.42 170.16 81.57 173.48 C 84.18 176.20 86.06 179.46 86.92 183.14 C 87.65 179.44 86.70 175.74 85.62 172.22 C 88.55 174.52 91.31 177.03 94.50 178.98 C 94.18 177.44 93.84 175.91 93.48 174.38 C 98.06 177.15 103.74 177.69 107.82 181.36 C 112.07 185.05 117.60 186.57 123.01 187.58 C 127.78 188.29 132.37 186.45 136.85 185.10 C 138.11 184.78 139.04 183.85 139.95 182.98 C 143.10 181.60 145.54 178.96 148.86 177.91 C 151.64 176.95 154.45 175.99 156.89 174.32 C 156.69 175.86 156.52 177.41 156.37 178.97 C 159.62 176.92 162.26 174.04 165.62 172.14 C 163.61 175.41 162.87 179.35 163.96 183.08 C 164.72 180.38 165.43 177.56 167.43 175.49 C 170.85 171.71 173.57 167.27 174.69 162.25 C 174.97 162.30 175.52 162.39 175.79 162.44 C 175.27 164.77 174.66 167.08 174.09 169.40 C 176.83 166.96 179.30 164.20 181.34 161.14 C 183.64 157.53 183.61 153.08 183.87 148.95 C 185.61 150.85 184.58 153.74 185.07 156.04 C 187.23 152.85 187.83 148.69 187.26 144.92 C 184.77 141.19 181.90 137.67 179.15 134.11 C 181.66 135.41 182.88 138.08 184.68 140.12 C 186.95 143.22 190.56 145.01 194.40 145.12 C 190.70 141.61 190.26 136.36 187.91 132.10 C 186.13 130.45 184.28 128.87 182.82 126.90 C 181.90 126.34 180.98 125.77 180.08 125.17 C 184.16 126.30 186.40 130.79 191.01 130.61 C 188.88 126.73 187.28 122.07 182.93 120.15 C 185.26 120.52 188.81 123.32 190.14 119.99 C 190.76 116.94 188.68 114.30 187.06 111.96 C 189.42 112.49 191.80 112.82 194.20 113.10 C 193.51 113.52 192.11 114.35 191.41 114.77 C 191.95 117.83 191.72 121.04 189.20 123.21 C 189.42 125.61 190.13 128.19 192.56 129.28 C 191.06 124.25 191.82 118.25 195.44 114.28 C 195.39 113.62 195.29 112.31 195.24 111.65 C 196.44 111.67 197.30 111.19 197.81 110.20 C 199.48 107.27 202.44 105.23 203.49 101.93 C 200.93 104.86 197.07 106.92 195.67 110.65 C 194.92 109.94 194.16 109.23 193.40 108.53 C 191.32 109.29 189.09 109.53 186.94 108.92 C 190.42 108.26 194.24 108.32 197.31 106.33 C 200.22 104.16 201.57 100.64 203.51 97.69 C 203.24 97.41 202.70 96.84 202.43 96.56 C 202.44 95.64 202.46 93.80 202.47 92.87 C 203.33 91.36 204.21 89.87 205.09 88.37 C 208.82 89.64 211.77 92.94 215.92 92.95 C 219.94 93.52 224.18 91.58 225.87 87.79 L 225.81 87.61 C 226.02 87.23 226.44 86.48 226.65 86.11 C 228.73 80.97 226.35 75.12 221.93 72.08 C 219.33 70.50 218.92 67.44 218.23 64.76 C 217.44 61.29 214.60 58.91 212.99 55.87 C 211.51 51.73 211.47 47.22 209.94 43.08 C 208.47 38.73 205.72 34.28 201.09 32.83 C 193.88 30.66 186.49 33.36 179.57 35.33 C 170.30 37.90 161.67 42.24 152.78 45.82 C 148.81 47.56 144.33 46.86 140.27 48.15 C 135.94 50.39 131.64 52.78 126.99 54.34 C 121.15 55.15 115.77 51.90 110.92 49.06 C 108.20 47.42 104.87 47.98 101.87 47.39 C 94.28 46.11 87.66 41.90 80.50 39.32 C 72.17 36.32 63.80 33.16 54.99 31.96 C 50.94 31.46 46.30 32.28 43.72 35.74 M 46.05 97.66 C 45.42 103.82 51.26 107.35 53.71 112.31 L 54.07 112.01 C 54.21 111.20 54.51 109.59 54.66 108.79 C 50.27 106.45 47.99 102.01 46.05 97.66 M 203.10 100.36 C 201.53 103.38 206.43 100.43 203.10 100.36 M 54.97 113.14 C 54.64 115.59 57.17 117.33 57.31 119.78 C 58.48 123.12 57.42 126.59 57.15 129.91 C 59.84 129.59 60.85 126.29 61.49 124.05 C 59.55 121.29 58.57 118.12 59.38 114.75 C 57.93 114.19 56.57 113.14 54.97 113.14 M 57.34 130.95 C 57.78 135.42 56.69 139.71 54.61 143.65 C 59.39 142.17 59.50 135.90 60.72 131.81 C 60.00 131.48 58.54 130.81 57.82 130.47 L 57.34 130.95 M 191.03 137.07 C 191.83 139.42 192.45 142.32 195.01 143.40 C 193.33 139.13 191.87 134.74 192.35 130.09 C 189.01 131.04 190.47 134.71 191.03 137.07 M 57.47 145.60 C 60.17 148.39 61.67 151.94 63.04 155.50 C 62.71 152.31 62.04 149.18 61.47 146.03 C 60.14 145.88 58.80 145.73 57.47 145.60 M 88.22 177.10 C 88.78 179.77 89.65 182.36 90.71 184.88 C 90.65 185.36 90.53 186.32 90.46 186.80 C 89.96 186.20 89.43 185.63 88.89 185.07 C 86.62 184.89 87.31 187.50 87.17 188.96 C 86.97 191.79 90.07 193.20 92.43 193.50 C 96.97 193.84 101.54 194.49 106.09 193.93 C 112.60 193.04 118.46 197.25 124.98 196.53 C 131.89 197.35 138.14 193.16 145.02 193.86 C 147.16 193.85 149.40 194.59 151.46 193.76 C 154.81 194.66 158.41 194.06 161.54 192.67 C 164.62 190.93 164.50 186.41 162.23 184.04 C 161.65 184.50 160.49 185.42 159.91 185.88 C 160.86 182.96 161.85 180.05 162.42 177.04 C 160.09 177.80 158.25 179.47 156.23 180.78 C 155.45 179.77 155.61 177.53 153.98 177.54 C 153.39 177.75 152.19 178.17 151.60 178.37 C 149.18 179.18 146.67 179.98 144.80 181.80 C 140.12 185.65 134.19 186.93 128.50 188.47 C 128.34 189.05 128.04 190.20 127.89 190.78 C 126.93 190.17 125.97 189.56 125.02 188.96 C 124.32 189.58 123.62 190.20 122.92 190.82 C 122.73 187.88 119.50 187.72 117.30 187.11 C 109.98 186.11 105.26 179.29 97.89 178.33 L 98.31 177.54 C 96.00 176.97 95.15 179.12 94.07 180.62 C 92.28 179.20 90.43 177.79 88.22 177.10 M 74.41 189.32 C 75.66 190.79 77.72 190.75 79.41 191.35 C 76.83 191.66 74.25 191.94 71.69 192.34 C 73.30 194.50 76.00 193.35 78.21 193.16 C 76.60 194.17 74.70 194.88 73.52 196.42 C 72.24 198.98 71.46 201.95 69.03 203.72 C 70.05 200.62 71.51 197.68 72.77 194.67 C 71.98 193.90 71.20 193.13 70.42 192.37 C 70.23 196.27 68.81 199.89 67.10 203.35 C 67.85 203.66 69.36 204.27 70.11 204.58 C 71.98 203.40 73.80 202.16 75.59 200.88 C 73.80 205.96 70.43 210.27 68.61 215.31 C 69.25 215.04 70.53 214.51 71.17 214.24 C 70.09 215.61 67.98 216.73 68.43 218.76 C 68.81 220.54 68.93 223.21 71.00 223.81 C 74.78 222.46 77.03 218.87 79.89 216.28 C 78.34 219.31 75.77 221.61 73.66 224.23 C 77.33 224.46 81.28 223.87 83.68 220.79 C 83.54 224.00 83.45 227.22 83.38 230.44 C 89.09 227.49 86.01 220.73 84.95 216.04 C 84.51 212.14 80.79 209.67 80.41 205.78 C 80.10 202.80 79.37 199.90 78.78 196.97 C 79.11 194.41 80.44 192.13 81.55 189.84 C 79.17 189.67 76.79 189.42 74.41 189.32 M 67.84 205.50 C 67.79 207.82 67.75 210.14 67.82 212.46 C 69.69 210.53 70.89 208.11 71.73 205.58 C 70.76 205.56 68.81 205.52 67.84 205.50 M 179.29 205.56 C 179.89 207.82 181.03 209.88 181.92 212.04 C 182.65 213.40 182.53 215.43 184.29 216.03 C 183.59 212.52 183.18 208.95 182.31 205.49 C 181.56 205.50 180.04 205.54 179.29 205.56 M 66.58 213.00 C 66.08 214.64 66.62 215.18 68.22 214.60 C 68.73 212.92 68.18 212.38 66.58 213.00 M 74.07 226.52 C 77.29 226.20 80.12 227.39 82.05 229.98 C 81.70 228.34 81.28 226.73 80.79 225.13 C 78.53 225.49 76.29 225.97 74.07 226.52 M 84.58 231.20 C 83.95 232.31 85.69 233.89 86.72 233.07 C 87.37 231.93 85.61 230.36 84.58 231.20 M 160.26 235.20 C 159.04 235.42 158.00 238.10 159.74 238.24 C 161.01 238.05 162.00 235.32 160.26 235.20 Z" />
<path fill="#000000" opacity="1.00" d=" M 44.52 54.42 C 45.55 54.50 46.59 54.58 47.63 54.66 C 47.72 56.63 46.85 57.96 44.72 57.56 C 44.65 56.51 44.58 55.46 44.52 54.42 Z" />
<path fill="#000000" opacity="1.00" d=" M 203.37 54.47 C 203.98 54.45 205.20 54.41 205.81 54.39 C 205.76 55.47 205.71 56.55 205.67 57.63 C 205.11 57.61 204.01 57.57 203.46 57.55 C 203.42 56.52 203.39 55.49 203.37 54.47 Z" />
<path fill="#000000" opacity="1.00" d=" M 66.27 148.73 C 67.26 152.76 66.92 157.22 69.30 160.82 C 68.89 161.34 68.48 161.87 68.06 162.39 C 67.32 160.86 66.44 159.42 65.47 158.05 C 65.53 154.93 65.64 151.80 66.27 148.73 Z" />
<path fill="#000000" opacity="1.00" d=" M 69.47 218.20 C 70.79 217.15 72.22 216.24 73.62 215.30 C 73.05 217.78 72.51 220.36 70.85 222.39 C 70.77 220.85 70.08 219.55 69.47 218.20 Z" />
<path fill="#000000" opacity="1.00" d=" M 176.98 215.26 C 178.23 216.15 179.48 217.05 180.73 217.95 C 180.20 219.45 179.78 220.99 179.43 222.55 C 178.42 220.18 177.61 217.74 176.98 215.26 Z" />
</g>
<g id="#8e8f8fff">
<path fill="#8e8f8f" opacity="1.00" d=" M 43.72 35.74 C 46.30 32.28 50.94 31.46 54.99 31.96 C 63.80 33.16 72.17 36.32 80.50 39.32 C 87.66 41.90 94.28 46.11 101.87 47.39 C 104.87 47.98 108.20 47.42 110.92 49.06 C 115.77 51.90 121.15 55.15 126.99 54.34 C 131.64 52.78 135.94 50.39 140.27 48.15 C 144.33 46.86 148.81 47.56 152.78 45.82 C 161.67 42.24 170.30 37.90 179.57 35.33 C 186.49 33.36 193.88 30.66 201.09 32.83 C 205.72 34.28 208.47 38.73 209.94 43.08 C 211.47 47.22 211.51 51.73 212.99 55.87 C 214.60 58.91 217.44 61.29 218.23 64.76 C 218.92 67.44 219.33 70.50 221.93 72.08 C 226.35 75.12 228.73 80.97 226.65 86.11 C 226.73 83.59 226.83 80.95 225.60 78.66 C 224.30 75.00 220.62 73.56 217.31 72.26 C 217.05 69.44 217.14 66.53 216.26 63.81 C 215.32 60.98 212.84 59.14 210.68 57.27 C 210.09 51.26 209.84 44.86 206.49 39.61 C 204.70 36.79 201.56 34.06 197.97 34.96 C 187.66 36.85 177.67 40.21 167.83 43.78 C 160.69 47.32 153.44 50.69 145.60 52.36 C 144.61 51.39 143.76 49.77 142.12 50.30 C 140.02 50.14 139.55 52.48 138.68 53.87 C 136.80 54.26 134.92 54.60 133.04 54.93 C 132.33 56.06 131.63 57.20 130.93 58.34 C 127.30 58.50 123.67 58.55 120.04 58.45 C 119.35 57.36 118.66 56.26 117.97 55.17 C 115.54 54.44 113.07 53.61 111.09 51.96 C 109.26 49.64 106.48 50.18 104.62 52.12 C 104.30 52.07 103.66 51.98 103.34 51.94 C 101.51 51.51 99.57 51.79 97.79 51.23 C 92.96 48.58 87.78 46.68 82.94 44.06 C 73.75 40.94 64.59 37.57 55.04 35.68 C 51.87 35.13 47.81 34.62 45.61 37.56 C 39.39 45.65 40.20 56.46 40.50 66.07 C 41.09 77.29 46.60 87.29 52.02 96.82 C 50.41 96.69 48.80 96.53 47.20 96.31 C 47.40 93.91 46.88 91.57 45.74 89.45 C 41.27 80.30 38.23 70.27 38.32 60.00 C 38.18 51.73 38.31 42.53 43.72 35.74 Z" />
</g>
<g id="#1c2a23ff">
<path fill="#1c2a23" opacity="1.00" d=" M 167.83 43.78 C 177.67 40.21 187.66 36.85 197.97 34.96 C 201.56 34.06 204.70 36.79 206.49 39.61 C 209.84 44.86 210.09 51.26 210.68 57.27 C 212.84 59.14 215.32 60.98 216.26 63.81 C 217.14 66.53 217.05 69.44 217.31 72.26 C 220.62 73.56 224.30 75.00 225.60 78.66 C 222.83 77.08 220.41 74.30 216.94 74.53 C 211.05 74.26 207.03 81.14 209.34 86.37 C 209.57 86.78 210.03 87.60 210.25 88.01 C 209.85 87.87 209.03 87.58 208.63 87.44 C 207.81 86.72 207.01 85.98 206.23 85.23 C 206.39 84.18 206.56 83.12 206.72 82.07 C 205.14 87.33 201.40 91.51 199.11 96.45 C 200.21 96.47 201.32 96.48 202.43 96.56 C 202.70 96.84 203.24 97.41 203.51 97.69 C 198.62 99.30 193.48 100.32 189.11 103.18 C 190.93 99.62 195.27 98.63 197.24 95.21 C 201.28 88.88 204.85 82.08 206.68 74.76 C 205.98 71.96 203.78 69.61 202.80 66.84 C 204.50 67.78 206.18 68.78 207.87 69.76 C 208.13 61.78 208.99 53.62 207.15 45.75 C 206.10 42.38 204.58 38.33 201.05 36.93 C 195.89 36.98 190.94 38.79 185.95 39.93 C 178.68 42.19 171.06 43.70 164.38 47.48 C 159.37 50.32 153.63 51.90 149.44 56.05 C 149.37 55.11 149.23 53.23 149.16 52.29 C 146.81 54.57 144.73 57.09 142.60 59.57 C 143.50 56.56 144.52 53.25 142.21 50.55 C 139.95 53.62 140.10 57.40 140.66 60.95 C 139.54 59.62 138.41 58.28 137.11 57.11 C 137.63 56.03 138.15 54.95 138.68 53.87 C 139.55 52.48 140.02 50.14 142.12 50.30 C 143.76 49.77 144.61 51.39 145.60 52.36 C 153.44 50.69 160.69 47.32 167.83 43.78 M 211.04 70.86 C 210.49 71.08 209.41 71.51 208.86 71.73 C 208.10 71.47 206.58 70.95 205.82 70.69 C 207.25 72.90 209.80 73.94 212.34 73.37 C 212.78 73.48 213.67 73.71 214.11 73.83 C 213.94 73.19 213.59 71.91 213.42 71.28 C 216.48 69.53 215.12 65.54 214.60 62.80 C 214.31 64.92 214.16 67.06 213.91 69.19 C 213.46 69.15 212.55 69.07 212.09 69.03 C 213.61 66.15 212.75 63.09 210.87 60.62 C 209.74 63.99 210.47 67.47 211.04 70.86 Z" />
</g>
<g id="#899490ff">
<path fill="#899490" opacity="1.00" d=" M 45.59 40.56 C 46.79 38.74 48.37 36.29 50.91 36.71 C 60.08 38.22 68.98 41.01 77.87 43.65 C 82.84 45.02 87.15 47.92 91.73 50.16 C 95.72 50.79 98.44 53.97 101.73 56.01 C 101.31 54.77 100.90 53.52 100.49 52.28 L 101.82 52.47 C 104.03 54.59 105.80 57.11 107.64 59.54 C 107.68 58.84 107.77 57.43 107.81 56.72 C 108.56 57.67 109.30 58.63 110.06 59.58 C 110.17 59.93 110.38 60.63 110.49 60.98 C 111.11 59.96 111.72 58.94 112.32 57.92 C 114.00 57.23 115.67 56.54 117.35 55.87 C 116.79 56.99 116.21 58.09 115.61 59.17 C 113.76 60.56 111.85 61.87 110.04 63.30 C 114.98 62.23 119.95 60.99 125.04 61.06 C 130.34 60.98 135.53 62.21 140.67 63.39 C 138.35 61.51 135.92 59.76 133.67 57.80 C 133.74 57.34 133.88 56.41 133.94 55.95 C 135.00 56.33 136.05 56.71 137.11 57.11 C 138.41 58.28 139.54 59.62 140.66 60.95 C 140.10 57.40 139.95 53.62 142.21 50.55 C 144.52 53.25 143.50 56.56 142.60 59.57 C 144.73 57.09 146.81 54.57 149.16 52.29 C 149.23 53.23 149.37 55.11 149.44 56.05 C 153.63 51.90 159.37 50.32 164.38 47.48 C 171.06 43.70 178.68 42.19 185.95 39.93 C 190.94 38.79 195.89 36.98 201.05 36.93 C 204.58 38.33 206.10 42.38 207.15 45.75 C 208.99 53.62 208.13 61.78 207.87 69.76 C 206.18 68.78 204.50 67.78 202.80 66.84 C 203.78 69.61 205.98 71.96 206.68 74.76 C 204.85 82.08 201.28 88.88 197.24 95.21 C 195.27 98.63 190.93 99.62 189.11 103.18 C 193.48 100.32 198.62 99.30 203.51 97.69 C 201.57 100.64 200.22 104.16 197.31 106.33 C 194.24 108.32 190.42 108.26 186.94 108.92 C 189.09 109.53 191.32 109.29 193.40 108.53 C 194.16 109.23 194.92 109.94 195.67 110.65 C 197.07 106.92 200.93 104.86 203.49 101.93 C 202.44 105.23 199.48 107.27 197.81 110.20 C 197.30 111.19 196.44 111.67 195.24 111.65 C 195.29 112.31 195.39 113.62 195.44 114.28 C 191.82 118.25 191.06 124.25 192.56 129.28 C 190.13 128.19 189.42 125.61 189.20 123.21 C 191.72 121.04 191.95 117.83 191.41 114.77 C 192.11 114.35 193.51 113.52 194.20 113.10 C 191.80 112.82 189.42 112.49 187.06 111.96 C 188.68 114.30 190.76 116.94 190.14 119.99 C 188.81 123.32 185.26 120.52 182.93 120.15 C 187.28 122.07 188.88 126.73 191.01 130.61 C 186.40 130.79 184.16 126.30 180.08 125.17 C 180.98 125.77 181.90 126.34 182.82 126.90 C 184.28 128.87 186.13 130.45 187.91 132.10 C 190.26 136.36 190.70 141.61 194.40 145.12 C 190.56 145.01 186.95 143.22 184.68 140.12 C 182.88 138.08 181.66 135.41 179.15 134.11 C 181.90 137.67 184.77 141.19 187.26 144.92 C 187.83 148.69 187.23 152.85 185.07 156.04 C 184.58 153.74 185.61 150.85 183.87 148.95 C 183.61 153.08 183.64 157.53 181.34 161.14 C 179.30 164.20 176.83 166.96 174.09 169.40 C 174.66 167.08 175.27 164.77 175.79 162.44 C 175.52 162.39 174.97 162.30 174.69 162.25 C 173.57 167.27 170.85 171.71 167.43 175.49 C 165.43 177.56 164.72 180.38 163.96 183.08 C 162.87 179.35 163.61 175.41 165.62 172.14 C 162.26 174.04 159.62 176.92 156.37 178.97 C 156.52 177.41 156.69 175.86 156.89 174.32 C 154.45 175.99 151.64 176.95 148.86 177.91 C 145.54 178.96 143.10 181.60 139.95 182.98 C 139.04 183.85 138.11 184.78 136.85 185.10 C 132.37 186.45 127.78 188.29 123.01 187.58 C 117.60 186.57 112.07 185.05 107.82 181.36 C 103.74 177.69 98.06 177.15 93.48 174.38 C 93.84 175.91 94.18 177.44 94.50 178.98 C 91.31 177.03 88.55 174.52 85.62 172.22 C 86.70 175.74 87.65 179.44 86.92 183.14 C 86.06 179.46 84.18 176.20 81.57 173.48 C 78.42 170.16 77.32 165.65 75.31 161.67 C 75.17 163.94 75.55 166.18 76.18 168.36 L 75.71 168.05 C 73.44 166.96 71.94 164.91 70.89 162.70 C 70.27 163.42 69.68 164.16 69.09 164.90 C 67.64 162.69 65.88 160.68 64.67 158.33 C 64.75 153.52 62.06 148.79 63.79 144.04 C 66.36 140.62 69.05 137.27 71.76 133.95 C 68.32 136.09 66.68 140.05 63.57 142.57 C 61.43 144.69 58.24 144.71 55.46 145.13 C 60.00 142.34 60.28 136.71 62.68 132.48 C 64.98 129.61 67.69 127.01 70.87 125.14 C 66.62 126.37 64.06 131.04 59.20 130.51 C 61.12 127.84 62.94 125.11 64.27 122.10 C 65.54 121.50 66.80 120.90 68.04 120.24 C 65.69 120.40 63.32 122.20 61.00 121.20 C 59.41 117.55 61.93 113.93 64.21 111.26 C 61.46 112.71 58.40 113.13 55.34 112.66 C 55.45 111.76 55.68 109.96 55.80 109.06 C 58.51 109.22 61.27 109.49 63.93 108.78 C 60.68 108.45 57.19 108.67 54.30 106.86 C 50.94 104.92 48.98 101.36 47.70 97.83 C 52.25 99.40 57.35 99.73 61.07 103.11 C 60.54 99.69 56.38 99.60 54.62 97.14 C 47.78 87.32 42.47 75.89 42.33 63.72 C 42.30 55.97 41.41 47.50 45.59 40.56 M 63.49 52.39 C 63.46 52.59 63.39 52.99 63.36 53.19 C 69.35 54.87 74.37 58.52 79.05 62.48 C 78.10 63.38 77.14 64.28 76.20 65.19 C 77.47 67.30 79.67 68.34 81.91 69.13 C 81.54 70.11 81.17 71.08 80.80 72.05 C 87.28 74.48 94.76 73.83 101.13 71.42 C 94.65 71.60 87.67 74.14 81.56 71.12 C 84.45 69.25 87.74 68.21 91.04 67.30 C 87.76 67.52 84.31 68.37 81.12 67.08 C 79.86 66.70 77.13 65.75 78.82 64.03 C 80.46 63.50 82.14 63.13 83.83 62.79 C 80.45 62.78 78.34 59.95 75.85 58.12 C 72.29 55.17 67.81 53.77 63.49 52.39 M 177.37 56.34 C 174.04 58.21 171.62 61.38 168.07 62.88 C 169.70 63.56 173.26 63.33 172.25 66.03 C 168.42 68.18 164.03 67.80 159.86 67.30 C 161.73 67.89 163.63 68.38 165.47 69.07 C 166.55 69.71 169.58 70.22 168.26 72.03 C 162.13 73.21 155.94 71.99 149.83 71.40 C 152.89 73.12 156.54 73.08 159.94 73.46 C 163.37 73.84 166.83 73.36 169.99 71.98 C 169.62 70.99 169.26 70.01 168.89 69.04 C 170.50 68.34 172.34 67.90 173.57 66.57 C 174.12 64.80 173.46 63.12 171.51 62.72 C 174.17 60.64 176.52 58.10 179.54 56.51 C 182.27 55.03 185.22 53.98 187.92 52.42 C 184.18 53.01 180.63 54.45 177.37 56.34 M 44.52 54.42 C 44.58 55.46 44.65 56.51 44.72 57.56 C 46.85 57.96 47.72 56.63 47.63 54.66 C 46.59 54.58 45.55 54.50 44.52 54.42 M 203.37 54.47 C 203.39 55.49 203.42 56.52 203.46 57.55 C 204.01 57.57 205.11 57.61 205.67 57.63 C 205.71 56.55 205.76 55.47 205.81 54.39 C 205.20 54.41 203.98 54.45 203.37 54.47 M 56.22 58.21 C 56.44 61.54 59.18 56.61 56.22 58.21 M 193.19 58.03 C 192.64 59.41 193.09 59.90 194.52 59.49 C 195.07 58.11 194.62 57.63 193.19 58.03 M 45.41 60.42 C 45.38 61.00 45.33 62.15 45.30 62.73 C 45.87 62.72 46.99 62.70 47.55 62.69 C 47.56 62.13 47.57 61.01 47.57 60.45 C 47.03 60.44 45.95 60.43 45.41 60.42 M 203.24 60.27 C 203.23 60.91 203.21 62.20 203.19 62.85 C 203.77 62.78 204.91 62.66 205.48 62.60 C 205.46 62.08 205.40 61.03 205.37 60.51 C 204.84 60.45 203.77 60.33 203.24 60.27 M 56.44 62.15 C 55.66 63.30 57.59 64.71 58.56 63.83 C 59.35 62.68 57.40 61.28 56.44 62.15 M 193.15 62.07 C 191.77 62.79 191.72 63.47 192.98 64.09 C 194.36 63.36 194.42 62.69 193.15 62.07 M 55.56 67.91 C 57.00 69.76 59.02 70.97 60.92 72.27 C 61.68 76.76 67.38 77.28 71.08 77.69 C 68.11 76.32 65.05 75.13 62.10 73.70 C 62.91 73.43 64.51 72.90 65.31 72.64 C 62.46 71.22 59.68 69.63 57.04 67.84 C 58.41 67.26 59.78 66.69 61.15 66.10 C 59.27 66.55 56.24 65.42 55.56 67.91 M 189.80 66.20 C 190.93 66.61 192.07 67.01 193.22 67.39 C 191.47 70.26 187.92 71.05 185.09 72.46 C 186.18 72.91 187.28 73.36 188.37 73.81 C 185.49 75.09 182.48 76.14 179.86 77.92 C 183.28 77.55 186.46 76.17 189.48 74.60 C 189.53 73.98 189.62 72.74 189.66 72.12 C 191.66 70.96 194.69 69.87 194.86 67.17 C 193.55 65.86 191.45 66.42 189.80 66.20 M 58.42 92.54 C 60.23 94.18 60.74 96.77 62.58 98.36 C 62.58 97.64 62.58 96.20 62.58 95.48 L 63.72 95.32 C 63.88 97.85 64.59 100.29 66.42 102.10 C 66.45 100.34 66.46 98.58 66.43 96.83 C 65.03 95.06 63.74 93.20 62.59 91.26 C 62.54 91.87 62.43 93.09 62.37 93.70 C 55.71 88.77 50.23 81.90 48.27 73.73 C 48.24 81.29 53.36 87.47 58.42 92.54 M 189.13 93.24 C 186.44 92.83 185.36 95.14 184.24 97.07 C 184.26 98.77 184.26 100.47 184.28 102.18 C 186.03 100.02 186.74 97.36 187.30 94.70 C 187.75 95.92 188.19 97.14 188.64 98.36 C 189.73 96.00 190.90 93.62 192.91 91.89 C 197.92 87.12 201.73 80.90 202.64 73.95 C 200.10 81.54 195.50 88.34 189.13 93.24 M 79.38 78.67 C 78.88 80.17 78.40 81.68 77.95 83.20 C 76.32 82.84 74.69 82.50 73.06 82.20 C 72.61 85.48 75.10 87.42 78.01 88.10 C 76.86 86.62 73.09 85.51 74.66 83.25 C 76.49 84.13 78.17 85.27 79.84 86.40 C 79.62 84.58 79.44 82.75 79.31 80.91 C 81.08 81.87 81.10 84.36 83.00 85.15 C 82.20 82.80 81.34 80.32 79.38 78.67 M 167.89 85.32 C 169.23 84.11 169.82 82.38 170.56 80.78 C 171.69 82.46 171.04 84.53 171.03 86.39 C 172.75 84.98 174.60 83.63 176.91 83.46 C 175.92 85.29 174.43 86.76 172.98 88.23 C 175.10 87.24 178.51 85.50 177.49 82.64 C 176.04 81.80 174.39 83.14 172.91 83.33 C 172.34 81.82 171.80 80.29 171.08 78.84 C 168.88 80.09 168.70 83.13 167.89 85.32 M 107.32 86.39 C 104.83 87.59 102.41 90.29 103.65 93.21 C 105.04 97.22 109.45 101.88 114.01 99.90 C 119.73 95.50 114.21 84.44 107.32 86.39 M 136.39 99.63 C 138.13 101.29 140.47 100.08 142.30 99.29 C 142.23 99.90 142.09 101.10 142.02 101.71 C 139.56 104.03 138.07 107.14 137.70 110.51 L 137.05 110.09 C 137.11 110.48 137.22 111.25 137.28 111.64 C 136.70 114.62 136.19 117.62 135.65 120.61 C 135.94 125.03 136.01 130.17 139.39 133.48 C 146.17 135.84 153.35 133.59 159.93 131.65 C 165.44 130.11 169.27 125.64 173.49 122.08 C 174.44 123.54 175.23 125.09 175.84 126.72 C 176.13 126.72 176.71 126.73 177.00 126.73 C 175.84 124.87 174.68 123.02 173.47 121.19 C 174.38 112.21 170.90 100.31 161.03 97.97 C 154.44 96.11 148.25 99.65 142.53 102.41 C 142.75 101.01 143.00 99.62 143.27 98.24 C 145.66 96.60 147.35 93.88 147.30 90.93 C 146.58 87.85 143.29 85.30 140.08 86.34 C 134.96 87.90 132.12 95.81 136.39 99.63 M 73.35 88.46 C 71.99 90.27 76.27 92.41 76.75 90.33 C 76.12 89.27 74.67 87.83 73.35 88.46 M 176.47 88.24 C 175.43 88.60 173.77 89.59 174.27 90.90 C 175.93 92.45 179.55 88.12 176.47 88.24 M 84.44 100.39 C 78.60 105.47 76.46 113.75 77.18 121.24 C 76.87 121.60 76.27 122.32 75.96 122.68 C 75.35 124.22 74.44 125.62 73.36 126.88 C 73.78 126.78 74.63 126.57 75.05 126.47 C 75.47 124.84 76.19 123.33 77.54 122.28 C 81.70 126.35 86.23 130.47 91.99 132.04 C 98.34 133.94 105.54 135.95 111.91 133.10 C 113.24 131.01 114.26 128.63 114.55 126.15 C 115.16 123.00 115.08 119.77 114.28 116.66 C 114.10 115.26 113.92 113.86 113.74 112.47 L 113.36 112.24 C 112.92 108.36 111.40 104.74 109.15 101.59 C 106.11 102.45 103.75 100.02 101.09 99.05 C 95.79 96.90 89.08 96.58 84.44 100.39 M 116.99 140.48 C 122.43 138.91 128.19 138.94 133.63 140.48 C 133.48 140.08 133.17 139.28 133.02 138.88 C 127.91 137.84 120.96 136.06 116.99 140.48 M 80.80 141.75 C 80.80 142.48 80.80 143.94 80.80 144.67 C 80.20 145.01 78.99 145.68 78.39 146.02 C 78.69 146.58 79.29 147.71 79.59 148.27 C 79.51 148.76 79.34 149.72 79.25 150.21 C 80.62 149.71 81.99 149.22 83.37 148.73 C 83.90 147.26 84.45 145.79 84.99 144.33 C 83.60 143.46 82.20 142.60 80.80 141.75 M 166.12 144.32 C 165.76 145.63 166.66 146.61 167.43 147.54 C 167.47 147.82 167.55 148.40 167.58 148.68 C 168.65 149.11 169.72 149.54 170.79 149.98 C 171.22 148.61 171.66 147.25 172.11 145.89 C 171.61 145.65 170.61 145.17 170.11 144.93 C 170.02 144.16 169.85 142.63 169.77 141.86 C 168.52 142.64 167.27 143.41 166.12 144.32 M 102.62 153.02 C 103.13 152.79 104.15 152.34 104.66 152.11 C 104.21 157.36 108.62 160.82 110.97 164.98 C 113.11 168.51 113.36 172.73 114.50 176.61 C 115.50 180.20 119.53 181.89 123.00 181.68 C 127.00 181.60 131.78 182.35 134.81 179.06 C 137.01 176.14 136.76 172.21 138.00 168.88 C 139.51 162.98 145.28 159.28 146.19 153.14 C 146.70 153.28 147.71 153.56 148.22 153.70 C 147.26 151.36 146.17 147.83 142.95 148.28 C 143.63 148.94 144.32 149.60 145.03 150.24 C 144.99 153.89 144.23 157.78 141.24 160.19 C 136.98 164.56 130.27 163.27 125.18 161.27 C 120.84 162.91 115.68 164.33 111.41 161.74 C 107.57 159.61 105.65 155.30 105.44 151.06 C 106.02 149.95 106.58 148.83 107.11 147.71 C 104.66 148.50 103.57 150.85 102.62 153.02 M 117.82 148.73 C 115.62 150.90 118.45 153.40 120.13 154.81 C 122.08 156.31 124.65 159.18 127.24 157.23 C 130.15 155.27 134.38 152.83 133.44 148.69 C 128.32 147.76 122.86 147.05 117.82 148.73 M 66.27 148.73 C 65.64 151.80 65.53 154.93 65.47 158.05 C 66.44 159.42 67.32 160.86 68.06 162.39 C 68.48 161.87 68.89 161.34 69.30 160.82 C 66.92 157.22 67.26 152.76 66.27 148.73 M 79.30 151.26 C 78.12 152.71 80.76 153.71 81.58 152.48 C 82.85 151.03 80.11 149.98 79.30 151.26 M 169.33 151.10 C 168.57 152.31 170.68 153.46 171.61 152.67 C 172.37 151.45 170.25 150.27 169.33 151.10 M 80.22 154.06 C 80.06 157.37 83.35 152.80 80.22 154.06 M 169.16 154.05 C 169.08 157.38 172.24 152.70 169.16 154.05 Z" />
<path fill="#899490" opacity="1.00" d=" M 90.71 184.88 C 93.44 183.07 96.79 181.72 97.89 178.33 C 105.26 179.29 109.98 186.11 117.30 187.11 C 119.50 187.72 122.73 187.88 122.92 190.82 C 123.62 190.20 124.32 189.58 125.02 188.96 C 125.97 189.56 126.93 190.17 127.89 190.78 C 128.04 190.20 128.34 189.05 128.50 188.47 C 134.19 186.93 140.12 185.65 144.80 181.80 C 146.67 179.98 149.18 179.18 151.60 178.37 C 153.29 180.61 155.61 182.15 158.33 182.84 C 159.06 185.18 161.49 187.70 160.28 190.20 C 157.43 191.60 154.39 192.54 151.46 193.76 C 149.40 194.59 147.16 193.85 145.02 193.86 C 138.14 193.16 131.89 197.35 124.98 196.53 C 118.46 197.25 112.60 193.04 106.09 193.93 C 101.54 194.49 96.97 193.84 92.43 193.50 C 90.07 193.20 86.97 191.79 87.17 188.96 C 87.31 187.50 86.62 184.89 88.89 185.07 C 89.43 185.63 89.96 186.20 90.46 186.80 C 90.53 186.32 90.65 185.36 90.71 184.88 Z" />
<path fill="#899490" opacity="1.00" d=" M 74.41 189.32 C 76.79 189.42 79.17 189.67 81.55 189.84 C 80.44 192.13 79.11 194.41 78.78 196.97 C 79.37 199.90 80.10 202.80 80.41 205.78 C 80.79 209.67 84.51 212.14 84.95 216.04 C 86.01 220.73 89.09 227.49 83.38 230.44 C 83.45 227.22 83.54 224.00 83.68 220.79 C 81.28 223.87 77.33 224.46 73.66 224.23 C 75.77 221.61 78.34 219.31 79.89 216.28 C 77.03 218.87 74.78 222.46 71.00 223.81 C 68.93 223.21 68.81 220.54 68.43 218.76 C 67.98 216.73 70.09 215.61 71.17 214.24 C 70.53 214.51 69.25 215.04 68.61 215.31 C 70.43 210.27 73.80 205.96 75.59 200.88 C 73.80 202.16 71.98 203.40 70.11 204.58 C 69.36 204.27 67.85 203.66 67.10 203.35 C 68.81 199.89 70.23 196.27 70.42 192.37 C 71.20 193.13 71.98 193.90 72.77 194.67 C 71.51 197.68 70.05 200.62 69.03 203.72 C 71.46 201.95 72.24 198.98 73.52 196.42 C 74.70 194.88 76.60 194.17 78.21 193.16 C 76.00 193.35 73.30 194.50 71.69 192.34 C 74.25 191.94 76.83 191.66 79.41 191.35 C 77.72 190.75 75.66 190.79 74.41 189.32 M 69.47 218.20 C 70.08 219.55 70.77 220.85 70.85 222.39 C 72.51 220.36 73.05 217.78 73.62 215.30 C 72.22 216.24 70.79 217.15 69.47 218.20 Z" />
</g>
<g id="#222524ff">
<path fill="#222524" opacity="1.00" d=" M 104.62 52.12 C 106.48 50.18 109.26 49.64 111.09 51.96 C 111.84 53.84 112.71 55.84 112.32 57.92 C 111.72 58.94 111.11 59.96 110.49 60.98 C 110.38 60.63 110.17 59.93 110.06 59.58 C 110.33 56.44 110.95 52.39 107.30 50.88 C 107.35 52.46 107.43 54.04 107.52 55.62 C 107.60 55.89 107.74 56.44 107.81 56.72 C 107.77 57.43 107.68 58.84 107.64 59.54 C 105.80 57.11 104.03 54.59 101.82 52.47 C 102.20 52.34 102.96 52.07 103.34 51.94 C 103.66 51.98 104.30 52.07 104.62 52.12 Z" />
</g>
<g id="#0b1411ff">
<path fill="#0b1411" opacity="1.00" d=" M 63.49 52.39 C 67.81 53.77 72.29 55.17 75.85 58.12 C 78.34 59.95 80.45 62.78 83.83 62.79 C 82.14 63.13 80.46 63.50 78.82 64.03 C 77.13 65.75 79.86 66.70 81.12 67.08 C 84.31 68.37 87.76 67.52 91.04 67.30 C 87.74 68.21 84.45 69.25 81.56 71.12 C 87.67 74.14 94.65 71.60 101.13 71.42 C 94.76 73.83 87.28 74.48 80.80 72.05 C 81.17 71.08 81.54 70.11 81.91 69.13 C 79.67 68.34 77.47 67.30 76.20 65.19 C 77.14 64.28 78.10 63.38 79.05 62.48 C 74.37 58.52 69.35 54.87 63.36 53.19 C 63.39 52.99 63.46 52.59 63.49 52.39 Z" />
<path fill="#0b1411" opacity="1.00" d=" M 177.37 56.34 C 180.63 54.45 184.18 53.01 187.92 52.42 C 185.22 53.98 182.27 55.03 179.54 56.51 C 176.52 58.10 174.17 60.64 171.51 62.72 C 173.46 63.12 174.12 64.80 173.57 66.57 C 172.34 67.90 170.50 68.34 168.89 69.04 C 169.26 70.01 169.62 70.99 169.99 71.98 C 166.83 73.36 163.37 73.84 159.94 73.46 C 156.54 73.08 152.89 73.12 149.83 71.40 C 155.94 71.99 162.13 73.21 168.26 72.03 C 169.58 70.22 166.55 69.71 165.47 69.07 C 163.63 68.38 161.73 67.89 159.86 67.30 C 164.03 67.80 168.42 68.18 172.25 66.03 C 173.26 63.33 169.70 63.56 168.07 62.88 C 171.62 61.38 174.04 58.21 177.37 56.34 Z" />
<path fill="#0b1411" opacity="1.00" d=" M 55.56 67.91 C 56.24 65.42 59.27 66.55 61.15 66.10 C 59.78 66.69 58.41 67.26 57.04 67.84 C 59.68 69.63 62.46 71.22 65.31 72.64 C 64.51 72.90 62.91 73.43 62.10 73.70 C 65.05 75.13 68.11 76.32 71.08 77.69 C 67.38 77.28 61.68 76.76 60.92 72.27 C 59.02 70.97 57.00 69.76 55.56 67.91 Z" />
<path fill="#0b1411" opacity="1.00" d=" M 189.80 66.20 C 191.45 66.42 193.55 65.86 194.86 67.17 C 194.69 69.87 191.66 70.96 189.66 72.12 C 189.62 72.74 189.53 73.98 189.48 74.60 C 186.46 76.17 183.28 77.55 179.86 77.92 C 182.48 76.14 185.49 75.09 188.37 73.81 C 187.28 73.36 186.18 72.91 185.09 72.46 C 187.92 71.05 191.47 70.26 193.22 67.39 C 192.07 67.01 190.93 66.61 189.80 66.20 Z" />
<path fill="#0b1411" opacity="1.00" d=" M 189.13 93.24 C 195.50 88.34 200.10 81.54 202.64 73.95 C 201.73 80.90 197.92 87.12 192.91 91.89 C 190.90 93.62 189.73 96.00 188.64 98.36 C 188.19 97.14 187.75 95.92 187.30 94.70 C 186.74 97.36 186.03 100.02 184.28 102.18 C 184.26 100.47 184.26 98.77 184.24 97.07 C 185.36 95.14 186.44 92.83 189.13 93.24 Z" />
<path fill="#0b1411" opacity="1.00" d=" M 116.99 140.48 C 120.96 136.06 127.91 137.84 133.02 138.88 C 133.17 139.28 133.48 140.08 133.63 140.48 C 128.19 138.94 122.43 138.91 116.99 140.48 Z" />
<path fill="#0b1411" opacity="1.00" d=" M 117.82 148.73 C 122.86 147.05 128.32 147.76 133.44 148.69 C 134.38 152.83 130.15 155.27 127.24 157.23 C 124.65 159.18 122.08 156.31 120.13 154.81 C 118.45 153.40 115.62 150.90 117.82 148.73 M 118.45 151.02 C 119.96 153.70 122.84 155.10 125.14 157.00 C 127.61 155.48 130.15 153.94 132.08 151.73 C 131.98 151.35 131.79 150.57 131.69 150.18 C 129.20 149.42 126.56 149.55 123.99 149.56 C 122.08 149.70 119.81 149.31 118.45 151.02 Z" />
</g>
<g id="#959796ff">
<path fill="#959796" opacity="1.00" d=" M 107.30 50.88 C 110.95 52.39 110.33 56.44 110.06 59.58 C 109.30 58.63 108.56 57.67 107.81 56.72 C 107.74 56.44 107.60 55.89 107.52 55.62 C 107.43 54.04 107.35 52.46 107.30 50.88 Z" />
</g>
<g id="#474746ff">
<path fill="#474746" opacity="1.00" d=" M 111.09 51.96 C 113.07 53.61 115.54 54.44 117.97 55.17 C 118.66 56.26 119.35 57.36 120.04 58.45 C 123.67 58.55 127.30 58.50 130.93 58.34 C 131.63 57.20 132.33 56.06 133.04 54.93 C 134.92 54.60 136.80 54.26 138.68 53.87 C 138.15 54.95 137.63 56.03 137.11 57.11 C 136.05 56.71 135.00 56.33 133.94 55.95 C 133.88 56.41 133.74 57.34 133.67 57.80 C 133.58 58.37 133.38 59.52 133.29 60.09 C 127.39 59.94 121.35 60.92 115.61 59.17 C 116.21 58.09 116.79 56.99 117.35 55.87 C 115.67 56.54 114.00 57.23 112.32 57.92 C 112.71 55.84 111.84 53.84 111.09 51.96 Z" />
<path fill="#474746" opacity="1.00" d=" M 91.66 110.25 C 94.95 110.69 98.19 109.90 101.30 108.88 C 102.05 108.69 103.54 108.30 104.29 108.10 C 104.69 108.59 105.50 109.56 105.91 110.05 C 106.32 109.62 107.14 108.78 107.55 108.36 C 109.14 109.58 110.77 110.74 112.52 111.73 L 113.36 112.24 L 113.74 112.47 C 113.92 113.86 114.10 115.26 114.28 116.66 C 110.62 115.67 106.99 114.40 103.15 114.37 C 101.44 113.91 99.72 113.07 97.90 113.29 C 95.56 114.01 93.56 115.51 91.43 116.69 C 90.83 116.09 89.64 114.89 89.04 114.29 C 89.85 112.91 90.71 111.55 91.66 110.25 Z" />
</g>
<g id="#3f4a46ff">
<path fill="#3f4a46" opacity="1.00" d=" M 56.22 58.21 C 59.18 56.61 56.44 61.54 56.22 58.21 Z" />
</g>
<g id="#070908ff">
<path fill="#070908" opacity="1.00" d=" M 133.29 60.09 C 133.38 59.52 133.58 58.37 133.67 57.80 C 135.92 59.76 138.35 61.51 140.67 63.39 C 135.53 62.21 130.34 60.98 125.04 61.06 C 119.95 60.99 114.98 62.23 110.04 63.30 C 111.85 61.87 113.76 60.56 115.61 59.17 C 121.35 60.92 127.39 59.94 133.29 60.09 Z" />
<path fill="#070908" opacity="1.00" d=" M 107.32 86.39 C 114.21 84.44 119.73 95.50 114.01 99.90 C 109.45 101.88 105.04 97.22 103.65 93.21 C 102.41 90.29 104.83 87.59 107.32 86.39 M 108.22 87.07 C 104.14 88.91 104.72 94.63 107.86 97.08 C 109.37 98.63 112.64 100.21 114.13 97.85 C 116.28 93.63 113.43 86.60 108.22 87.07 Z" />
<path fill="#070908" opacity="1.00" d=" M 136.39 99.63 C 132.12 95.81 134.96 87.90 140.08 86.34 C 143.29 85.30 146.58 87.85 147.30 90.93 C 147.35 93.88 145.66 96.60 143.27 98.24 C 143.00 99.62 142.75 101.01 142.53 102.41 C 148.25 99.65 154.44 96.11 161.03 97.97 C 170.90 100.31 174.38 112.21 173.47 121.19 C 174.68 123.02 175.84 124.87 177.00 126.73 C 176.71 126.73 176.13 126.72 175.84 126.72 C 175.23 125.09 174.44 123.54 173.49 122.08 C 169.27 125.64 165.44 130.11 159.93 131.65 C 153.35 133.59 146.17 135.84 139.39 133.48 C 136.01 130.17 135.94 125.03 135.65 120.61 C 137.86 120.53 140.24 119.79 142.35 120.71 C 144.84 122.31 145.96 125.22 147.44 127.66 C 148.93 127.57 150.43 127.47 151.92 127.36 C 152.91 126.22 153.82 124.99 154.98 124.00 C 156.62 123.31 158.49 123.50 160.23 123.27 C 160.97 121.70 161.72 120.14 162.40 118.55 C 162.40 120.34 162.28 122.13 162.00 123.89 C 161.28 127.03 158.70 129.14 156.60 131.38 C 159.44 130.60 162.45 129.78 164.63 127.66 C 167.63 124.97 167.95 120.64 168.36 116.90 C 169.15 113.18 168.17 109.26 165.10 106.86 C 157.70 99.05 143.91 102.55 138.52 111.03 C 138.32 110.90 137.90 110.64 137.70 110.51 C 138.07 107.14 139.56 104.03 142.02 101.71 C 142.09 101.10 142.23 99.90 142.30 99.29 C 140.47 100.08 138.13 101.29 136.39 99.63 M 141.18 87.01 C 136.76 87.99 134.48 93.70 136.47 97.57 C 138.89 101.04 143.38 97.43 144.60 94.62 C 146.66 91.82 144.80 86.98 141.18 87.01 M 141.72 105.11 C 145.43 103.87 148.91 101.61 152.92 101.48 C 158.32 101.13 163.48 104.04 166.95 108.02 C 170.80 113.15 169.97 120.20 168.02 125.92 C 173.91 122.02 172.31 114.19 170.30 108.62 C 168.49 103.39 163.79 98.89 158.03 98.83 C 152.12 98.97 146.17 101.21 141.72 105.11 Z" />
</g>
<g id="#4c5854ff">
<path fill="#4c5854" opacity="1.00" d=" M 193.19 58.03 C 194.62 57.63 195.07 58.11 194.52 59.49 C 193.09 59.90 192.64 59.41 193.19 58.03 Z" />
</g>
<g id="#060707ff">
<path fill="#060707" opacity="1.00" d=" M 45.41 60.42 C 45.95 60.43 47.03 60.44 47.57 60.45 C 47.57 61.01 47.56 62.13 47.55 62.69 C 46.99 62.70 45.87 62.72 45.30 62.73 C 45.33 62.15 45.38 61.00 45.41 60.42 Z" />
<path fill="#060707" opacity="1.00" d=" M 203.24 60.27 C 203.77 60.33 204.84 60.45 205.37 60.51 C 205.40 61.03 205.46 62.08 205.48 62.60 C 204.91 62.66 203.77 62.78 203.19 62.85 C 203.21 62.20 203.23 60.91 203.24 60.27 Z" />
<path fill="#060707" opacity="1.00" d=" M 84.44 100.39 C 89.08 96.58 95.79 96.90 101.09 99.05 C 103.75 100.02 106.11 102.45 109.15 101.59 C 111.40 104.74 112.92 108.36 113.36 112.24 L 112.52 111.73 C 110.19 108.82 107.73 105.76 104.14 104.38 C 99.32 102.34 93.34 101.47 88.73 104.47 C 86.27 106.15 84.07 108.30 82.50 110.84 C 82.19 112.84 82.30 114.87 82.38 116.88 C 82.76 120.46 82.92 124.51 85.60 127.24 C 87.86 129.87 91.35 130.70 94.54 131.60 C 91.61 129.10 88.95 126.13 88.29 122.19 C 88.30 120.10 88.41 118.01 88.73 115.94 C 88.96 118.25 89.18 120.63 90.16 122.77 C 90.70 124.56 92.87 124.17 94.25 124.86 C 95.94 125.82 97.15 127.41 98.52 128.76 C 100.13 128.35 101.81 128.08 103.32 127.34 C 105.14 125.44 106.17 122.86 108.24 121.19 C 110.08 120.33 112.22 120.76 114.18 120.62 C 114.32 122.46 114.47 124.30 114.55 126.15 C 114.26 128.63 113.24 131.01 111.91 133.10 C 105.54 135.95 98.34 133.94 91.99 132.04 C 86.23 130.47 81.70 126.35 77.54 122.28 C 76.19 123.33 75.47 124.84 75.05 126.47 C 74.63 126.57 73.78 126.78 73.36 126.88 C 74.44 125.62 75.35 124.22 75.96 122.68 C 76.27 122.32 76.87 121.60 77.18 121.24 C 76.46 113.75 78.60 105.47 84.44 100.39 M 87.30 100.23 C 81.04 103.64 78.75 111.26 78.46 117.94 C 78.25 120.93 80.00 123.40 81.97 125.43 C 81.58 121.92 80.78 118.40 81.28 114.85 C 81.37 108.76 86.84 104.24 92.14 102.30 C 96.60 100.40 101.30 102.12 105.64 103.44 C 105.16 101.87 103.35 101.50 102.07 100.83 C 97.41 99.13 91.93 97.67 87.30 100.23 M 105.64 103.44 L 105.48 103.79 C 106.65 104.88 108.26 106.24 109.92 106.30 C 109.82 104.58 107.32 102.31 105.64 103.44 M 109.92 106.30 C 110.61 106.85 110.61 106.85 109.92 106.30 Z" />
<path fill="#060707" opacity="1.00" d=" M 102.62 153.02 C 103.57 150.85 104.66 148.50 107.11 147.71 C 106.58 148.83 106.02 149.95 105.44 151.06 C 105.65 155.30 107.57 159.61 111.41 161.74 C 115.68 164.33 120.84 162.91 125.18 161.27 C 130.27 163.27 136.98 164.56 141.24 160.19 C 144.23 157.78 144.99 153.89 145.03 150.24 C 144.32 149.60 143.63 148.94 142.95 148.28 C 146.17 147.83 147.26 151.36 148.22 153.70 C 147.71 153.56 146.70 153.28 146.19 153.14 C 145.28 159.28 139.51 162.98 138.00 168.88 C 136.76 172.21 137.01 176.14 134.81 179.06 C 131.78 182.35 127.00 181.60 123.00 181.68 C 119.53 181.89 115.50 180.20 114.50 176.61 C 113.36 172.73 113.11 168.51 110.97 164.98 C 108.62 160.82 104.21 157.36 104.66 152.11 C 104.15 152.34 103.13 152.79 102.62 153.02 M 111.95 163.86 C 112.88 165.76 113.78 167.68 114.91 169.47 C 121.79 166.58 129.70 166.32 136.63 169.17 C 136.93 167.61 137.23 166.06 137.54 164.51 C 133.35 164.91 129.23 164.05 125.09 163.76 C 120.74 164.52 116.29 164.97 111.95 163.86 M 115.14 171.07 C 115.28 172.49 115.45 173.91 115.64 175.34 L 116.20 175.16 C 116.23 175.80 116.30 177.08 116.34 177.72 C 120.44 181.80 126.72 181.24 131.87 179.96 C 131.15 179.50 130.42 179.04 129.69 178.60 C 126.09 179.51 122.38 179.08 118.79 178.41 C 118.11 177.25 117.46 176.07 116.63 175.03 C 116.99 174.82 117.72 174.42 118.08 174.22 C 118.50 175.52 118.28 177.64 120.09 177.88 C 124.22 179.10 128.51 178.22 132.63 177.47 C 132.58 176.64 132.50 174.97 132.45 174.14 C 133.28 174.66 134.11 175.20 134.93 175.74 C 135.23 174.14 135.55 172.56 135.88 170.97 C 133.39 169.80 130.86 168.26 128.02 168.33 C 125.49 169.04 123.93 171.33 121.94 172.87 C 122.63 171.17 123.80 169.75 124.93 168.34 C 121.46 168.22 118.35 170.02 115.14 171.07 M 133.19 176.33 C 131.65 178.09 135.22 178.89 134.02 176.56 L 133.19 176.33 Z" />
</g>
<g id="#454339ff">
<path fill="#454339" opacity="1.00" d=" M 211.04 70.86 C 210.47 67.47 209.74 63.99 210.87 60.62 C 212.75 63.09 213.61 66.15 212.09 69.03 C 212.55 69.07 213.46 69.15 213.91 69.19 L 213.77 70.22 C 212.38 71.38 210.71 72.27 208.86 71.73 C 209.41 71.51 210.49 71.08 211.04 70.86 Z" />
</g>
<g id="#47524eff">
<path fill="#47524e" opacity="1.00" d=" M 56.44 62.15 C 57.40 61.28 59.35 62.68 58.56 63.83 C 57.59 64.71 55.66 63.30 56.44 62.15 Z" />
</g>
<g id="#3b4642ff">
<path fill="#3b4642" opacity="1.00" d=" M 193.15 62.07 C 194.42 62.69 194.36 63.36 192.98 64.09 C 191.72 63.47 191.77 62.79 193.15 62.07 Z" />
</g>
<g id="#c1bdbeff">
<path fill="#c1bdbe" opacity="1.00" d=" M 213.91 69.19 C 214.16 67.06 214.31 64.92 214.60 62.80 C 215.12 65.54 216.48 69.53 213.42 71.28 C 213.59 71.91 213.94 73.19 214.11 73.83 C 213.67 73.71 212.78 73.48 212.34 73.37 C 209.80 73.94 207.25 72.90 205.82 70.69 C 206.58 70.95 208.10 71.47 208.86 71.73 C 210.71 72.27 212.38 71.38 213.77 70.22 L 213.91 69.19 Z" />
<path fill="#c1bdbe" opacity="1.00" d=" M 206.72 82.07 C 206.56 83.12 206.39 84.18 206.23 85.23 C 207.01 85.98 207.81 86.72 208.63 87.44 C 207.44 87.74 206.27 88.05 205.09 88.37 C 204.21 89.87 203.33 91.36 202.47 92.87 C 202.46 93.80 202.44 95.64 202.43 96.56 C 201.32 96.48 200.21 96.47 199.11 96.45 C 201.40 91.51 205.14 87.33 206.72 82.07 Z" />
<path fill="#c1bdbe" opacity="1.00" d=" M 115.14 171.07 C 118.35 170.02 121.46 168.22 124.93 168.34 C 123.80 169.75 122.63 171.17 121.94 172.87 C 123.93 171.33 125.49 169.04 128.02 168.33 C 130.86 168.26 133.39 169.80 135.88 170.97 C 135.55 172.56 135.23 174.14 134.93 175.74 C 134.11 175.20 133.28 174.66 132.45 174.14 C 132.50 174.97 132.58 176.64 132.63 177.47 C 128.51 178.22 124.22 179.10 120.09 177.88 C 118.28 177.64 118.50 175.52 118.08 174.22 C 117.72 174.42 116.99 174.82 116.63 175.03 L 116.20 175.16 L 115.64 175.34 C 115.45 173.91 115.28 172.49 115.14 171.07 Z" />
</g>
<g id="#141d1aff">
<path fill="#141d1a" opacity="1.00" d=" M 58.42 92.54 C 53.36 87.47 48.24 81.29 48.27 73.73 C 50.23 81.90 55.71 88.77 62.37 93.70 C 62.43 93.09 62.54 91.87 62.59 91.26 C 63.74 93.20 65.03 95.06 66.43 96.83 C 66.46 98.58 66.45 100.34 66.42 102.10 C 64.59 100.29 63.88 97.85 63.72 95.32 L 62.58 95.48 C 62.58 96.20 62.58 97.64 62.58 98.36 C 60.74 96.77 60.23 94.18 58.42 92.54 Z" />
<path fill="#141d1a" opacity="1.00" d=" M 79.38 78.67 C 81.34 80.32 82.20 82.80 83.00 85.15 C 81.10 84.36 81.08 81.87 79.31 80.91 C 79.44 82.75 79.62 84.58 79.84 86.40 C 78.17 85.27 76.49 84.13 74.66 83.25 C 73.09 85.51 76.86 86.62 78.01 88.10 C 75.10 87.42 72.61 85.48 73.06 82.20 C 74.69 82.50 76.32 82.84 77.95 83.20 C 78.40 81.68 78.88 80.17 79.38 78.67 Z" />
<path fill="#141d1a" opacity="1.00" d=" M 167.89 85.32 C 168.70 83.13 168.88 80.09 171.08 78.84 C 171.80 80.29 172.34 81.82 172.91 83.33 C 174.39 83.14 176.04 81.80 177.49 82.64 C 178.51 85.50 175.10 87.24 172.98 88.23 C 174.43 86.76 175.92 85.29 176.91 83.46 C 174.60 83.63 172.75 84.98 171.03 86.39 C 171.04 84.53 171.69 82.46 170.56 80.78 C 169.82 82.38 169.23 84.11 167.89 85.32 Z" />
<path fill="#141d1a" opacity="1.00" d=" M 176.47 88.24 C 179.55 88.12 175.93 92.45 174.27 90.90 C 173.77 89.59 175.43 88.60 176.47 88.24 Z" />
</g>
<g id="#44ba8dff">
<path fill="#44ba8d" opacity="1.00" d=" M 209.34 86.37 C 207.03 81.14 211.05 74.26 216.94 74.53 C 220.41 74.30 222.83 77.08 225.60 78.66 C 224.87 82.26 225.38 86.69 221.96 89.05 C 222.05 87.67 222.15 86.28 222.28 84.90 C 222.35 84.22 222.49 82.85 222.56 82.16 C 220.97 80.65 219.43 79.09 217.94 77.49 C 216.45 77.47 214.96 77.34 213.49 77.52 C 211.93 78.56 211.48 80.53 210.76 82.13 C 210.26 83.54 209.81 84.96 209.34 86.37 Z" />
</g>
<g id="#cffff3ff">
<path fill="#cffff3" opacity="1.00" d=" M 213.49 77.52 C 214.96 77.34 216.45 77.47 217.94 77.49 C 219.43 79.09 220.97 80.65 222.56 82.16 C 222.49 82.85 222.35 84.22 222.28 84.90 C 220.81 86.94 218.56 88.08 216.29 89.01 C 216.13 88.49 215.80 87.44 215.63 86.91 C 215.16 85.37 214.47 83.90 213.82 82.43 C 213.05 82.35 211.52 82.21 210.76 82.13 C 211.48 80.53 211.93 78.56 213.49 77.52 M 215.28 80.12 C 214.70 81.74 215.23 82.30 216.87 81.78 C 217.45 80.16 216.92 79.60 215.28 80.12 M 217.29 83.22 C 216.05 84.73 218.71 86.25 219.64 84.71 C 220.88 83.20 218.22 81.69 217.29 83.22 Z" />
</g>
<g id="#2d4b3fff">
<path fill="#2d4b3f" opacity="1.00" d=" M 225.60 78.66 C 226.83 80.95 226.73 83.59 226.65 86.11 C 226.44 86.48 226.02 87.23 225.81 87.61 C 225.78 87.67 225.71 87.78 225.68 87.84 L 225.87 87.79 C 224.18 91.58 219.94 93.52 215.92 92.95 C 211.77 92.94 208.82 89.64 205.09 88.37 C 206.27 88.05 207.44 87.74 208.63 87.44 C 209.03 87.58 209.85 87.87 210.25 88.01 C 211.50 88.73 212.74 89.47 214.00 90.17 C 216.71 91.07 219.49 90.24 221.96 89.05 C 225.38 86.69 224.87 82.26 225.60 78.66 Z" />
</g>
<g id="#89b3a7ff">
<path fill="#89b3a7" opacity="1.00" d=" M 215.28 80.12 C 216.92 79.60 217.45 80.16 216.87 81.78 C 215.23 82.30 214.70 81.74 215.28 80.12 Z" />
</g>
<g id="#38c292ff">
<path fill="#38c292" opacity="1.00" d=" M 209.34 86.37 C 209.81 84.96 210.26 83.54 210.76 82.13 C 211.52 82.21 213.05 82.35 213.82 82.43 C 214.47 83.90 215.16 85.37 215.63 86.91 C 215.12 88.01 214.55 89.09 214.00 90.17 C 212.74 89.47 211.50 88.73 210.25 88.01 C 210.03 87.60 209.57 86.78 209.34 86.37 Z" />
</g>
<g id="#9ec5baff">
<path fill="#9ec5ba" opacity="1.00" d=" M 217.29 83.22 C 218.22 81.69 220.88 83.20 219.64 84.71 C 218.71 86.25 216.05 84.73 217.29 83.22 Z" />
</g>
<g id="#80c4adff">
<path fill="#80c4ad" opacity="1.00" d=" M 216.29 89.01 C 218.56 88.08 220.81 86.94 222.28 84.90 C 222.15 86.28 222.05 87.67 221.96 89.05 C 219.49 90.24 216.71 91.07 214.00 90.17 C 214.55 89.09 215.12 88.01 215.63 86.91 C 215.80 87.44 216.13 88.49 216.29 89.01 Z" />
</g>
<g id="#747c79ff">
<path fill="#747c79" opacity="1.00" d=" M 108.22 87.07 C 113.43 86.60 116.28 93.63 114.13 97.85 C 112.64 100.21 109.37 98.63 107.86 97.08 C 104.72 94.63 104.14 88.91 108.22 87.07 Z" />
</g>
<g id="#757d7bff">
<path fill="#757d7b" opacity="1.00" d=" M 141.18 87.01 C 144.80 86.98 146.66 91.82 144.60 94.62 C 143.38 97.43 138.89 101.04 136.47 97.57 C 134.48 93.70 136.76 87.99 141.18 87.01 Z" />
</g>
<g id="#5d776cff">
<path fill="#5d776c" opacity="1.00" d=" M 225.68 87.84 C 225.71 87.78 225.78 87.67 225.81 87.61 L 225.87 87.79 L 225.68 87.84 Z" />
</g>
<g id="#444f4bff">
<path fill="#444f4b" opacity="1.00" d=" M 73.35 88.46 C 74.67 87.83 76.12 89.27 76.75 90.33 C 76.27 92.41 71.99 90.27 73.35 88.46 Z" />
<path fill="#444f4b" opacity="1.00" d=" M 166.12 144.32 C 167.27 143.41 168.52 142.64 169.77 141.86 C 169.85 142.63 170.02 144.16 170.11 144.93 C 170.61 145.17 171.61 145.65 172.11 145.89 C 171.66 147.25 171.22 148.61 170.79 149.98 C 169.72 149.54 168.65 149.11 167.58 148.68 C 167.55 148.40 167.47 147.82 167.43 147.54 C 166.66 146.61 165.76 145.63 166.12 144.32 Z" />
</g>
<g id="#8f9190ff">
<path fill="#8f9190" opacity="1.00" d=" M 46.05 97.66 C 47.99 102.01 50.27 106.45 54.66 108.79 C 54.51 109.59 54.21 111.20 54.07 112.01 L 53.71 112.31 C 51.26 107.35 45.42 103.82 46.05 97.66 Z" />
<path fill="#8f9190" opacity="1.00" d=" M 57.34 130.95 L 57.82 130.47 C 58.54 130.81 60.00 131.48 60.72 131.81 C 59.50 135.90 59.39 142.17 54.61 143.65 C 56.69 139.71 57.78 135.42 57.34 130.95 Z" />
<path fill="#8f9190" opacity="1.00" d=" M 191.03 137.07 C 190.47 134.71 189.01 131.04 192.35 130.09 C 191.87 134.74 193.33 139.13 195.01 143.40 C 192.45 142.32 191.83 139.42 191.03 137.07 Z" />
<path fill="#8f9190" opacity="1.00" d=" M 169.58 225.03 C 170.28 222.90 171.14 220.82 172.20 218.85 C 174.48 223.22 169.86 226.90 169.41 231.20 C 167.27 232.37 165.13 233.54 162.97 234.68 C 164.07 232.66 165.09 228.43 168.28 229.98 C 167.84 227.64 167.50 225.30 167.11 222.97 C 167.92 223.66 168.75 224.35 169.58 225.03 Z" />
</g>
<g id="#fbfffdff">
<path fill="#fbfffd" opacity="1.00" d=" M 87.30 100.23 C 91.93 97.67 97.41 99.13 102.07 100.83 C 103.35 101.50 105.16 101.87 105.64 103.44 C 101.30 102.12 96.60 100.40 92.14 102.30 C 86.84 104.24 81.37 108.76 81.28 114.85 C 80.78 118.40 81.58 121.92 81.97 125.43 C 80.00 123.40 78.25 120.93 78.46 117.94 C 78.75 111.26 81.04 103.64 87.30 100.23 Z" />
</g>
<g id="#f7f9f7ff">
<path fill="#f7f9f7" opacity="1.00" d=" M 141.72 105.11 C 146.17 101.21 152.12 98.97 158.03 98.83 C 163.79 98.89 168.49 103.39 170.30 108.62 C 172.31 114.19 173.91 122.02 168.02 125.92 C 169.97 120.20 170.80 113.15 166.95 108.02 C 163.48 104.04 158.32 101.13 152.92 101.48 C 148.91 101.61 145.43 103.87 141.72 105.11 Z" />
<path fill="#f7f9f7" opacity="1.00" d=" M 116.20 175.16 L 116.63 175.03 C 117.46 176.07 118.11 177.25 118.79 178.41 C 122.38 179.08 126.09 179.51 129.69 178.60 C 130.42 179.04 131.15 179.50 131.87 179.96 C 126.72 181.24 120.44 181.80 116.34 177.72 C 116.30 177.08 116.23 175.80 116.20 175.16 Z" />
</g>
<g id="#6a6c6bff">
<path fill="#6a6c6b" opacity="1.00" d=" M 203.10 100.36 C 206.43 100.43 201.53 103.38 203.10 100.36 Z" />
</g>
<g id="#a9cdbeff">
<path fill="#a9cdbe" opacity="1.00" d=" M 88.73 104.47 C 93.34 101.47 99.32 102.34 104.14 104.38 C 102.06 104.55 100.40 105.37 100.64 107.70 C 100.41 107.31 99.94 106.51 99.71 106.11 C 96.62 106.53 93.48 107.53 91.66 110.25 C 90.71 111.55 89.85 112.91 89.04 114.29 C 88.96 114.71 88.81 115.53 88.73 115.94 C 88.41 118.01 88.30 120.10 88.29 122.19 C 87.56 120.00 86.44 117.98 85.27 116.00 C 84.55 116.22 83.11 116.66 82.38 116.88 C 82.30 114.87 82.19 112.84 82.50 110.84 C 84.07 108.30 86.27 106.15 88.73 104.47 Z" />
</g>
<g id="#818985ff">
<path fill="#818985" opacity="1.00" d=" M 105.64 103.44 C 107.32 102.31 109.82 104.58 109.92 106.30 C 108.26 106.24 106.65 104.88 105.48 103.79 L 105.64 103.44 Z" />
</g>
<g id="#aaccbdff">
<path fill="#aaccbd" opacity="1.00" d=" M 138.52 111.03 C 143.91 102.55 157.70 99.05 165.10 106.86 C 168.17 109.26 169.15 113.18 168.36 116.90 C 167.13 116.45 165.90 116.00 164.67 115.56 C 163.41 118.21 162.67 121.05 162.00 123.89 C 162.28 122.13 162.40 120.34 162.40 118.55 C 162.33 117.43 162.11 116.33 161.87 115.24 C 161.12 112.92 159.58 110.96 157.38 109.89 C 155.98 109.35 154.56 108.90 153.14 108.45 C 152.45 107.69 151.76 106.93 151.07 106.17 C 147.52 106.67 143.87 107.52 141.28 110.19 C 140.69 110.66 140.11 111.12 139.52 111.58 C 139.27 111.44 138.77 111.16 138.52 111.03 M 153.35 106.32 C 152.06 108.56 156.47 108.93 156.66 106.82 C 156.48 105.29 154.16 105.35 153.35 106.32 Z" />
</g>
<g id="#e6f3ecff">
<path fill="#e6f3ec" opacity="1.00" d=" M 100.64 107.70 C 100.40 105.37 102.06 104.55 104.14 104.38 C 107.73 105.76 110.19 108.82 112.52 111.73 C 110.77 110.74 109.14 109.58 107.55 108.36 C 107.14 108.78 106.32 109.62 105.91 110.05 C 105.50 109.56 104.69 108.59 104.29 108.10 C 103.54 108.30 102.05 108.69 101.30 108.88 L 100.64 107.70 Z" />
</g>
<g id="#62756cff">
<path fill="#62756c" opacity="1.00" d=" M 91.66 110.25 C 93.48 107.53 96.62 106.53 99.71 106.11 C 99.94 106.51 100.41 107.31 100.64 107.70 L 101.30 108.88 C 98.19 109.90 94.95 110.69 91.66 110.25 Z" />
</g>
<g id="#6e7f77ff">
<path fill="#6e7f77" opacity="1.00" d=" M 109.92 106.30 C 110.61 106.85 110.61 106.85 109.92 106.30 Z" />
</g>
<g id="#e9f9f2ff">
<path fill="#e9f9f2" opacity="1.00" d=" M 153.35 106.32 C 154.16 105.35 156.48 105.29 156.66 106.82 C 156.47 108.93 152.06 108.56 153.35 106.32 Z" />
</g>
<g id="#666f6aff">
<path fill="#666f6a" opacity="1.00" d=" M 141.28 110.19 C 143.87 107.52 147.52 106.67 151.07 106.17 C 151.76 106.93 152.45 107.69 153.14 108.45 C 154.56 108.90 155.98 109.35 157.38 109.89 C 152.06 110.84 146.64 110.19 141.28 110.19 Z" />
</g>
<g id="#454746ff">
<path fill="#454746" opacity="1.00" d=" M 137.05 110.09 L 137.70 110.51 C 137.90 110.64 138.32 110.90 138.52 111.03 C 138.77 111.16 139.27 111.44 139.52 111.58 C 140.11 111.12 140.69 110.66 141.28 110.19 C 146.64 110.19 152.06 110.84 157.38 109.89 C 159.58 110.96 161.12 112.92 161.87 115.24 C 158.58 115.82 155.35 115.00 152.37 113.65 C 152.10 113.84 151.56 114.23 151.29 114.43 C 150.92 114.11 150.19 113.47 149.82 113.15 C 148.89 113.58 147.96 114.02 147.03 114.45 C 143.85 114.10 140.78 114.98 137.99 116.47 C 137.76 114.86 137.52 113.25 137.28 111.64 C 137.22 111.25 137.11 110.48 137.05 110.09 Z" />
</g>
<g id="#2e302fff">
<path fill="#2e302f" opacity="1.00" d=" M 137.28 111.64 C 137.52 113.25 137.76 114.86 137.99 116.47 C 140.78 114.98 143.85 114.10 147.03 114.45 C 147.96 114.02 148.89 113.58 149.82 113.15 C 150.19 113.47 150.92 114.11 151.29 114.43 C 151.56 114.23 152.10 113.84 152.37 113.65 C 155.35 115.00 158.58 115.82 161.87 115.24 C 162.11 116.33 162.33 117.43 162.40 118.55 C 161.72 120.14 160.97 121.70 160.23 123.27 C 158.49 123.50 156.62 123.31 154.98 124.00 C 153.82 124.99 152.91 126.22 151.92 127.36 C 150.43 127.47 148.93 127.57 147.44 127.66 C 145.96 125.22 144.84 122.31 142.35 120.71 C 140.24 119.79 137.86 120.53 135.65 120.61 C 136.19 117.62 136.70 114.62 137.28 111.64 Z" />
</g>
<g id="#7d7f7eff">
<path fill="#7d7f7e" opacity="1.00" d=" M 54.97 113.14 C 56.57 113.14 57.93 114.19 59.38 114.75 C 58.57 118.12 59.55 121.29 61.49 124.05 C 60.85 126.29 59.84 129.59 57.15 129.91 C 57.42 126.59 58.48 123.12 57.31 119.78 C 57.17 117.33 54.64 115.59 54.97 113.14 Z" />
<path fill="#7d7f7e" opacity="1.00" d=" M 57.47 145.60 C 58.80 145.73 60.14 145.88 61.47 146.03 C 62.04 149.18 62.71 152.31 63.04 155.50 C 61.67 151.94 60.17 148.39 57.47 145.60 Z" />
<path fill="#7d7f7e" opacity="1.00" d=" M 66.58 213.00 C 68.18 212.38 68.73 212.92 68.22 214.60 C 66.62 215.18 66.08 214.64 66.58 213.00 Z" />
</g>
<g id="#2e2e2eff">
<path fill="#2e2e2e" opacity="1.00" d=" M 91.43 116.69 C 93.56 115.51 95.56 114.01 97.90 113.29 C 99.72 113.07 101.44 113.91 103.15 114.37 C 106.99 114.40 110.62 115.67 114.28 116.66 C 115.08 119.77 115.16 123.00 114.55 126.15 C 114.47 124.30 114.32 122.46 114.18 120.62 C 112.22 120.76 110.08 120.33 108.24 121.19 C 106.17 122.86 105.14 125.44 103.32 127.34 C 101.81 128.08 100.13 128.35 98.52 128.76 C 97.15 127.41 95.94 125.82 94.25 124.86 C 92.87 124.17 90.70 124.56 90.16 122.77 C 89.18 120.63 88.96 118.25 88.73 115.94 C 88.81 115.53 88.96 114.71 89.04 114.29 C 89.64 114.89 90.83 116.09 91.43 116.69 Z" />
</g>
<g id="#6ca692ff">
<path fill="#6ca692" opacity="1.00" d=" M 82.38 116.88 C 83.11 116.66 84.55 116.22 85.27 116.00 C 86.44 117.98 87.56 120.00 88.29 122.19 C 88.95 126.13 91.61 129.10 94.54 131.60 C 91.35 130.70 87.86 129.87 85.60 127.24 C 82.92 124.51 82.76 120.46 82.38 116.88 Z" />
</g>
<g id="#65ab91ff">
<path fill="#65ab91" opacity="1.00" d=" M 162.00 123.89 C 162.67 121.05 163.41 118.21 164.67 115.56 C 165.90 116.00 167.13 116.45 168.36 116.90 C 167.95 120.64 167.63 124.97 164.63 127.66 C 162.45 129.78 159.44 130.60 156.60 131.38 C 158.70 129.14 161.28 127.03 162.00 123.89 Z" />
</g>
<g id="#5e6965ff">
<path fill="#5e6965" opacity="1.00" d=" M 80.80 141.75 C 82.20 142.60 83.60 143.46 84.99 144.33 C 84.45 145.79 83.90 147.26 83.37 148.73 C 81.99 149.22 80.62 149.71 79.25 150.21 C 79.34 149.72 79.51 148.76 79.59 148.27 C 79.29 147.71 78.69 146.58 78.39 146.02 C 78.99 145.68 80.20 145.01 80.80 144.67 C 80.80 143.94 80.80 142.48 80.80 141.75 Z" />
</g>
<g id="#888a89ff">
<path fill="#888a89" opacity="1.00" d=" M 189.05 148.04 C 188.98 145.36 191.96 145.70 193.78 145.32 C 189.31 149.66 188.73 156.24 184.85 160.98 C 181.21 166.90 175.27 170.83 171.23 176.39 C 169.47 178.47 169.94 181.23 170.26 183.71 C 173.09 185.20 176.27 186.20 178.70 188.35 C 179.85 189.18 179.34 190.54 179.07 191.66 C 178.13 190.60 177.30 189.46 176.48 188.32 C 173.62 187.93 170.75 187.68 167.87 187.53 C 166.95 184.84 165.30 181.75 166.90 178.97 C 169.80 173.36 175.64 170.28 179.60 165.54 C 183.87 160.43 187.91 154.75 189.05 148.04 Z" />
<path fill="#888a89" opacity="1.00" d=" M 179.29 205.56 C 180.04 205.54 181.56 205.50 182.31 205.49 C 183.18 208.95 183.59 212.52 184.29 216.03 C 182.53 215.43 182.65 213.40 181.92 212.04 C 181.03 209.88 179.89 207.82 179.29 205.56 Z" />
</g>
<g id="#545253ff">
<path fill="#545253" opacity="1.00" d=" M 118.45 151.02 C 119.81 149.31 122.08 149.70 123.99 149.56 C 126.56 149.55 129.20 149.42 131.69 150.18 C 131.79 150.57 131.98 151.35 132.08 151.73 C 130.15 153.94 127.61 155.48 125.14 157.00 C 122.84 155.10 119.96 153.70 118.45 151.02 Z" />
</g>
<g id="#57615dff">
<path fill="#57615d" opacity="1.00" d=" M 79.30 151.26 C 80.11 149.98 82.85 151.03 81.58 152.48 C 80.76 153.71 78.12 152.71 79.30 151.26 Z" />
</g>
<g id="#4e5955ff">
<path fill="#4e5955" opacity="1.00" d=" M 169.33 151.10 C 170.25 150.27 172.37 151.45 171.61 152.67 C 170.68 153.46 168.57 152.31 169.33 151.10 Z" />
</g>
<g id="#4c5753ff">
<path fill="#4c5753" opacity="1.00" d=" M 80.22 154.06 C 83.35 152.80 80.06 157.37 80.22 154.06 Z" />
</g>
<g id="#505b57ff">
<path fill="#505b57" opacity="1.00" d=" M 169.16 154.05 C 172.24 152.70 169.08 157.38 169.16 154.05 Z" />
</g>
<g id="#373837ff">
<path fill="#373837" opacity="1.00" d=" M 111.95 163.86 C 116.29 164.97 120.74 164.52 125.09 163.76 C 129.23 164.05 133.35 164.91 137.54 164.51 C 137.23 166.06 136.93 167.61 136.63 169.17 C 129.70 166.32 121.79 166.58 114.91 169.47 C 113.78 167.68 112.88 165.76 111.95 163.86 Z" />
</g>
<g id="#817c7cff">
<path fill="#817c7c" opacity="1.00" d=" M 69.93 165.74 C 72.09 166.39 73.60 168.10 75.11 169.67 L 75.71 168.05 L 76.18 168.36 C 77.31 173.47 83.54 175.68 84.47 181.03 C 84.95 183.35 83.66 185.54 82.27 187.29 C 79.87 189.43 76.39 188.23 73.50 188.51 C 73.45 189.29 73.36 190.84 73.32 191.62 C 71.30 191.44 70.54 190.40 71.77 188.79 C 73.77 186.12 77.64 186.24 79.94 183.96 C 81.81 181.80 81.30 178.52 79.70 176.36 C 76.94 172.39 72.94 169.51 69.93 165.74 Z" />
<path fill="#817c7c" opacity="1.00" d=" M 74.07 226.52 C 76.29 225.97 78.53 225.49 80.79 225.13 C 81.28 226.73 81.70 228.34 82.05 229.98 C 80.12 227.39 77.29 226.20 74.07 226.52 Z" />
</g>
<g id="#e0e1e0ff">
<path fill="#e0e1e0" opacity="1.00" d=" M 133.19 176.33 L 134.02 176.56 C 135.22 178.89 131.65 178.09 133.19 176.33 Z" />
</g>
<g id="#63736dff">
<path fill="#63736d" opacity="1.00" d=" M 88.22 177.10 C 90.43 177.79 92.28 179.20 94.07 180.62 C 95.15 179.12 96.00 176.97 98.31 177.54 L 97.89 178.33 C 96.79 181.72 93.44 183.07 90.71 184.88 C 89.65 182.36 88.78 179.77 88.22 177.10 Z" />
</g>
<g id="#67716cff">
<path fill="#67716c" opacity="1.00" d=" M 151.60 178.37 C 152.19 178.17 153.39 177.75 153.98 177.54 C 155.61 177.53 155.45 179.77 156.23 180.78 C 158.25 179.47 160.09 177.80 162.42 177.04 C 161.85 180.05 160.86 182.96 159.91 185.88 C 160.49 185.42 161.65 184.50 162.23 184.04 C 164.50 186.41 164.62 190.93 161.54 192.67 C 158.41 194.06 154.81 194.66 151.46 193.76 C 154.39 192.54 157.43 191.60 160.28 190.20 C 161.49 187.70 159.06 185.18 158.33 182.84 C 155.61 182.15 153.29 180.61 151.60 178.37 Z" />
</g>
<g id="#36b892ff">
<path fill="#36b892" opacity="1.00" d=" M 84.64 185.88 C 85.09 188.99 85.99 192.43 89.09 193.93 C 96.23 197.22 104.18 194.80 111.66 195.53 C 116.67 196.93 121.75 198.27 127.02 197.77 C 132.88 198.10 138.23 194.61 144.11 195.40 C 150.00 195.70 156.36 196.48 161.83 193.79 C 164.73 192.31 165.53 188.97 165.54 185.98 C 165.73 186.34 166.09 187.05 166.27 187.41 C 167.73 191.33 170.53 195.20 169.55 199.58 C 169.10 202.34 168.95 205.20 168.00 207.86 C 166.63 210.73 163.85 212.56 161.12 214.00 C 160.39 213.90 158.93 213.68 158.20 213.58 L 159.37 212.96 C 161.36 211.86 163.47 210.79 165.01 209.06 C 167.43 205.60 167.77 201.25 168.44 197.21 C 167.52 195.97 166.61 194.74 165.71 193.51 C 162.27 196.75 157.43 197.23 152.98 197.90 C 149.27 198.40 145.63 197.13 141.94 197.21 C 139.19 197.42 136.61 198.53 133.90 198.96 C 129.96 199.60 125.94 199.34 121.96 199.33 C 122.83 201.50 123.71 203.68 124.59 205.85 C 125.54 205.47 126.49 205.08 127.44 204.70 C 130.22 205.92 134.07 206.42 135.21 209.67 C 136.50 213.14 137.25 216.85 139.37 219.96 C 137.89 219.53 136.41 219.12 134.94 218.69 C 134.60 218.59 133.92 218.38 133.58 218.28 C 134.50 215.51 135.46 212.04 133.53 209.49 C 130.81 206.58 126.47 207.48 122.91 207.40 C 122.32 205.83 121.79 204.24 121.05 202.75 C 119.81 202.41 118.53 202.30 117.27 202.12 C 117.34 204.84 117.46 207.55 117.51 210.26 C 116.84 209.34 116.19 208.42 115.58 207.47 C 115.17 206.34 114.79 205.20 114.44 204.06 C 112.91 204.53 110.47 203.99 110.11 206.07 C 110.20 207.64 110.84 209.10 111.24 210.61 C 111.27 210.94 111.35 211.61 111.39 211.95 C 109.69 212.57 108.01 213.20 106.35 213.92 C 105.90 215.32 105.53 216.74 105.14 218.16 C 104.37 216.08 104.38 213.76 106.43 212.44 C 109.58 210.32 108.23 205.95 110.19 203.20 C 113.10 201.88 116.39 201.46 119.12 199.69 C 115.87 198.48 112.52 197.18 108.98 197.39 C 102.58 197.71 96.06 197.99 89.79 196.45 C 87.38 195.98 85.88 193.91 84.26 192.27 C 81.42 195.94 83.00 200.74 83.60 204.86 C 84.74 210.56 91.03 212.15 94.43 216.13 C 89.53 215.74 85.27 212.43 82.58 208.48 C 81.32 204.52 80.67 200.28 80.42 196.13 C 81.47 192.58 83.48 189.39 84.64 185.88 Z" />
</g>
<g id="#1e7251ff">
<path fill="#1e7251" opacity="1.00" d=" M 166.27 187.41 L 167.87 187.53 C 170.75 187.68 173.62 187.93 176.48 188.32 C 177.30 189.46 178.13 190.60 179.07 191.66 C 179.46 191.93 180.24 192.47 180.63 192.74 C 180.74 193.86 180.87 194.98 181.00 196.10 C 180.54 194.78 179.75 193.70 178.61 192.88 C 178.97 196.45 180.19 199.83 181.38 203.18 C 179.01 201.89 178.18 199.30 176.96 197.09 C 176.04 195.25 174.09 194.33 172.50 193.18 C 174.39 193.15 176.32 193.17 178.11 192.44 C 175.80 192.12 173.47 191.92 171.15 191.75 C 172.86 190.99 174.58 190.26 176.29 189.50 C 174.13 189.76 171.98 190.02 169.82 190.27 C 170.76 192.73 172.38 195.19 171.94 197.94 C 171.16 202.70 170.80 207.81 167.70 211.75 C 165.92 215.00 165.55 218.80 163.88 222.11 C 160.57 226.75 158.23 232.01 154.79 236.57 C 150.91 241.72 146.25 246.32 140.94 250.00 L 138.19 250.00 C 141.45 246.60 145.39 243.94 148.56 240.46 C 152.73 236.00 156.24 230.93 158.77 225.37 C 156.36 225.67 153.81 225.75 151.64 226.98 C 150.96 226.90 149.60 226.72 148.91 226.64 C 149.02 226.38 149.24 225.86 149.36 225.60 C 153.74 224.59 158.41 223.68 162.04 220.84 C 163.70 219.05 163.98 216.47 164.78 214.25 C 162.13 215.67 159.33 216.86 156.33 217.33 C 157.86 216.13 159.44 214.99 161.12 214.00 C 163.85 212.56 166.63 210.73 168.00 207.86 C 168.95 205.20 169.10 202.34 169.55 199.58 C 170.53 195.20 167.73 191.33 166.27 187.41 Z" />
</g>
<g id="#8b9291ff">
<path fill="#8b9291" opacity="1.00" d=" M 169.82 190.27 C 171.98 190.02 174.13 189.76 176.29 189.50 C 174.58 190.26 172.86 190.99 171.15 191.75 C 173.47 191.92 175.80 192.12 178.11 192.44 C 176.32 193.17 174.39 193.15 172.50 193.18 C 174.09 194.33 176.04 195.25 176.96 197.09 C 178.18 199.30 179.01 201.89 181.38 203.18 C 180.19 199.83 178.97 196.45 178.61 192.88 C 179.75 193.70 180.54 194.78 181.00 196.10 C 181.61 198.71 182.71 201.16 183.86 203.57 C 182.32 203.66 180.79 203.76 179.26 203.87 C 177.87 202.81 176.49 201.76 175.11 200.71 C 176.75 205.56 179.91 209.71 181.49 214.56 C 180.91 214.30 179.77 213.76 179.19 213.49 C 180.36 215.03 181.72 216.45 182.72 218.12 C 182.58 220.08 181.84 221.94 181.33 223.83 C 177.14 223.65 174.14 220.44 171.94 217.20 C 172.90 216.99 173.87 216.79 174.85 216.59 C 175.79 214.47 176.72 212.35 177.65 210.22 C 177.37 209.61 176.79 208.37 176.50 207.76 C 173.35 208.59 171.32 211.16 169.45 213.63 C 169.01 213.16 168.14 212.22 167.70 211.75 C 170.80 207.81 171.16 202.70 171.94 197.94 C 172.38 195.19 170.76 192.73 169.82 190.27 M 176.98 215.26 C 177.61 217.74 178.42 220.18 179.43 222.55 C 179.78 220.99 180.20 219.45 180.73 217.95 C 179.48 217.05 178.23 216.15 176.98 215.26 Z" />
</g>
<g id="#09d08eff">
<path fill="#09d08e" opacity="1.00" d=" M 83.60 204.86 C 83.00 200.74 81.42 195.94 84.26 192.27 C 85.88 193.91 87.38 195.98 89.79 196.45 C 96.06 197.99 102.58 197.71 108.98 197.39 C 112.52 197.18 115.87 198.48 119.12 199.69 C 116.39 201.46 113.10 201.88 110.19 203.20 C 108.23 205.95 109.58 210.32 106.43 212.44 C 104.38 213.76 104.37 216.08 105.14 218.16 C 109.06 220.09 112.68 222.70 114.29 226.94 C 114.16 227.48 113.90 228.57 113.78 229.11 C 112.66 229.55 110.99 229.24 110.31 230.35 C 110.01 232.35 110.65 234.36 110.83 236.36 C 107.15 235.12 104.48 231.01 100.19 232.57 C 99.64 231.45 99.09 230.34 98.55 229.22 C 99.70 229.02 100.85 228.81 102.00 228.61 C 101.52 226.91 101.10 225.19 100.40 223.57 C 98.53 222.65 96.42 222.45 94.38 222.31 C 91.85 221.32 89.75 219.59 87.75 217.82 C 88.73 217.83 89.71 217.83 90.69 217.81 C 91.18 217.60 92.15 217.16 92.63 216.95 C 93.08 216.74 93.98 216.33 94.43 216.13 C 91.03 212.15 84.74 210.56 83.60 204.86 Z" />
</g>
<g id="#0dd08eff">
<path fill="#0dd08e" opacity="1.00" d=" M 152.98 197.90 C 157.43 197.23 162.27 196.75 165.71 193.51 C 166.61 194.74 167.52 195.97 168.44 197.21 C 167.77 201.25 167.43 205.60 165.01 209.06 C 163.47 210.79 161.36 211.86 159.37 212.96 C 154.94 212.90 152.88 208.25 149.07 206.69 C 148.80 212.40 152.11 217.16 155.51 221.40 C 153.14 222.47 150.75 223.49 148.36 224.50 C 148.61 224.78 149.11 225.33 149.36 225.60 C 149.24 225.86 149.02 226.38 148.91 226.64 C 148.80 226.99 148.57 227.70 148.45 228.05 C 149.63 228.86 150.93 227.95 151.64 226.98 C 153.81 225.75 156.36 225.67 158.77 225.37 C 156.24 230.93 152.73 236.00 148.56 240.46 C 146.63 238.79 143.95 239.93 141.70 239.29 C 140.06 238.54 138.63 237.42 137.16 236.42 C 142.17 234.48 144.47 228.57 142.72 223.61 C 141.22 227.18 139.67 230.98 136.45 233.36 C 139.99 230.58 141.31 226.15 140.61 221.80 C 138.79 220.63 136.95 219.48 134.94 218.69 C 136.41 219.12 137.89 219.53 139.37 219.96 C 137.25 216.85 136.50 213.14 135.21 209.67 C 134.07 206.42 130.22 205.92 127.44 204.70 C 126.49 205.08 125.54 205.47 124.59 205.85 C 123.71 203.68 122.83 201.50 121.96 199.33 C 125.94 199.34 129.96 199.60 133.90 198.96 C 136.61 198.53 139.19 197.42 141.94 197.21 C 145.63 197.13 149.27 198.40 152.98 197.90 Z" />
</g>
<g id="#ebf8f8ff">
<path fill="#ebf8f8" opacity="1.00" d=" M 117.27 202.12 C 118.53 202.30 119.81 202.41 121.05 202.75 C 121.79 204.24 122.32 205.83 122.91 207.40 C 126.47 207.48 130.81 206.58 133.53 209.49 C 135.46 212.04 134.50 215.51 133.58 218.28 C 133.92 218.38 134.60 218.59 134.94 218.69 C 136.95 219.48 138.79 220.63 140.61 221.80 C 141.31 226.15 139.99 230.58 136.45 233.36 C 135.49 234.03 134.51 234.68 133.51 235.30 C 133.30 235.45 132.86 235.75 132.64 235.90 C 132.65 237.08 132.67 238.27 132.71 239.47 C 131.61 239.79 130.52 240.11 129.43 240.44 C 129.03 239.01 128.05 238.16 126.56 238.11 C 126.92 239.78 127.30 241.44 127.69 243.11 C 126.95 243.57 125.46 244.49 124.72 244.95 C 123.83 243.37 122.96 241.79 122.10 240.20 C 119.58 240.54 117.07 241.01 114.58 241.53 C 114.47 239.95 114.37 238.38 114.28 236.81 C 115.42 236.08 116.59 235.39 117.66 234.55 C 117.65 233.42 117.44 232.30 117.20 231.21 C 116.36 226.40 114.79 221.76 112.88 217.28 C 110.78 217.42 108.68 217.56 106.58 217.69 C 106.52 216.75 106.41 214.86 106.35 213.92 C 108.01 213.20 109.69 212.57 111.39 211.95 C 111.35 211.61 111.27 210.94 111.24 210.61 C 111.46 209.40 111.69 208.21 111.94 207.01 C 113.15 207.17 114.36 207.32 115.58 207.47 C 116.19 208.42 116.84 209.34 117.51 210.26 C 117.46 207.55 117.34 204.84 117.27 202.12 M 119.03 214.51 C 119.38 216.83 119.73 219.28 121.67 220.86 C 123.40 219.68 125.36 218.75 126.76 217.15 C 127.25 212.72 121.75 213.51 119.03 214.51 M 123.30 225.49 C 123.79 227.57 124.37 229.64 124.96 231.70 C 128.25 230.79 132.81 228.73 131.47 224.51 C 128.71 224.39 125.92 224.51 123.30 225.49 Z" />
</g>
<g id="#a8f6dfff">
<path fill="#a8f6df" opacity="1.00" d=" M 110.11 206.07 C 110.47 203.99 112.91 204.53 114.44 204.06 C 114.79 205.20 115.17 206.34 115.58 207.47 C 114.36 207.32 113.15 207.17 111.94 207.01 C 111.69 208.21 111.46 209.40 111.24 210.61 C 110.84 209.10 110.20 207.64 110.11 206.07 Z" />
</g>
<g id="#6e6f6eff">
<path fill="#6e6f6e" opacity="1.00" d=" M 67.84 205.50 C 68.81 205.52 70.76 205.56 71.73 205.58 C 70.89 208.11 69.69 210.53 67.82 212.46 C 67.75 210.14 67.79 207.82 67.84 205.50 Z" />
</g>
<g id="#0ab67bff">
<path fill="#0ab67b" opacity="1.00" d=" M 149.07 206.69 C 152.88 208.25 154.94 212.90 159.37 212.96 L 158.20 213.58 C 156.91 214.22 155.68 215.01 154.62 215.99 C 155.66 217.50 156.91 218.85 158.15 220.22 C 157.26 220.61 156.39 221.00 155.51 221.40 C 152.11 217.16 148.80 212.40 149.07 206.69 Z" />
</g>
<g id="#7a8380ff">
<path fill="#7a8380" opacity="1.00" d=" M 169.45 213.63 C 171.32 211.16 173.35 208.59 176.50 207.76 C 176.79 208.37 177.37 209.61 177.65 210.22 C 176.72 212.35 175.79 214.47 174.85 216.59 C 173.87 216.79 172.90 216.99 171.94 217.20 C 171.75 216.94 171.38 216.43 171.19 216.17 C 171.53 217.06 171.88 217.95 172.20 218.85 C 171.14 220.82 170.28 222.90 169.58 225.03 C 168.75 224.35 167.92 223.66 167.11 222.97 C 166.83 222.28 166.56 221.60 166.28 220.91 C 166.13 221.03 165.81 221.25 165.65 221.36 L 163.88 222.11 C 165.55 218.80 165.92 215.00 167.70 211.75 C 168.14 212.22 169.01 213.16 169.45 213.63 Z" />
</g>
<g id="#49bc8dff">
<path fill="#49bc8d" opacity="1.00" d=" M 85.34 213.61 C 87.79 214.68 90.21 215.80 92.63 216.95 C 92.15 217.16 91.18 217.60 90.69 217.81 C 89.71 217.83 88.73 217.83 87.75 217.82 C 89.75 219.59 91.85 221.32 94.38 222.31 C 93.83 222.61 92.73 223.19 92.18 223.48 C 87.77 222.13 86.03 217.77 85.34 213.61 Z" />
</g>
<g id="#37bf93ff">
<path fill="#37bf93" opacity="1.00" d=" M 105.14 218.16 C 105.53 216.74 105.90 215.32 106.35 213.92 C 106.41 214.86 106.52 216.75 106.58 217.69 C 108.68 217.56 110.78 217.42 112.88 217.28 C 114.79 221.76 116.36 226.40 117.20 231.21 C 116.21 229.79 115.18 228.41 114.29 226.94 C 112.68 222.70 109.06 220.09 105.14 218.16 Z" />
</g>
<g id="#2cc391ff">
<path fill="#2cc391" opacity="1.00" d=" M 119.03 214.51 C 121.75 213.51 127.25 212.72 126.76 217.15 C 125.36 218.75 123.40 219.68 121.67 220.86 C 119.73 219.28 119.38 216.83 119.03 214.51 Z" />
</g>
<g id="#2dad7dff">
<path fill="#2dad7d" opacity="1.00" d=" M 154.62 215.99 C 155.68 215.01 156.91 214.22 158.20 213.58 C 158.93 213.68 160.39 213.90 161.12 214.00 C 159.44 214.99 157.86 216.13 156.33 217.33 C 159.33 216.86 162.13 215.67 164.78 214.25 C 163.98 216.47 163.70 219.05 162.04 220.84 C 158.41 223.68 153.74 224.59 149.36 225.60 C 149.11 225.33 148.61 224.78 148.36 224.50 C 150.75 223.49 153.14 222.47 155.51 221.40 C 156.39 221.00 157.26 220.61 158.15 220.22 C 156.91 218.85 155.66 217.50 154.62 215.99 Z" />
</g>
<g id="#17ce8eff">
<path fill="#17ce8e" opacity="1.00" d=" M 94.38 222.31 C 96.42 222.45 98.53 222.65 100.40 223.57 C 101.10 225.19 101.52 226.91 102.00 228.61 C 100.85 228.81 99.70 229.02 98.55 229.22 C 99.09 230.34 99.64 231.45 100.19 232.57 C 104.48 231.01 107.15 235.12 110.83 236.36 C 110.65 234.36 110.01 232.35 110.31 230.35 C 110.99 229.24 112.66 229.55 113.78 229.11 C 113.90 228.57 114.16 227.48 114.29 226.94 C 115.18 228.41 116.21 229.79 117.20 231.21 C 117.44 232.30 117.65 233.42 117.66 234.55 C 116.59 235.39 115.42 236.08 114.28 236.81 C 114.37 238.38 114.47 239.95 114.58 241.53 C 117.07 241.01 119.58 240.54 122.10 240.20 C 122.96 241.79 123.83 243.37 124.72 244.95 C 125.46 244.49 126.95 243.57 127.69 243.11 C 127.30 241.44 126.92 239.78 126.56 238.11 C 128.05 238.16 129.03 239.01 129.43 240.44 C 129.66 240.93 130.12 241.93 130.36 242.43 C 131.85 242.17 133.33 241.84 134.82 241.52 C 134.38 239.44 133.94 237.37 133.51 235.30 C 134.51 234.68 135.49 234.03 136.45 233.36 C 139.67 230.98 141.22 227.18 142.72 223.61 C 144.47 228.57 142.17 234.48 137.16 236.42 C 138.63 237.42 140.06 238.54 141.70 239.29 C 143.95 239.93 146.63 238.79 148.56 240.46 C 145.39 243.94 141.45 246.60 138.19 250.00 L 108.55 250.00 C 107.70 246.39 106.42 242.82 104.10 239.86 C 100.89 235.26 95.72 232.46 92.68 227.72 C 92.53 227.01 92.23 225.57 92.08 224.85 C 94.80 225.18 97.52 225.51 100.26 225.67 C 97.99 225.11 95.69 224.67 93.44 224.04 L 92.18 223.48 C 92.73 223.19 93.83 222.61 94.38 222.31 Z" />
</g>
<g id="#848a88ff">
<path fill="#848a88" opacity="1.00" d=" M 154.79 236.57 C 158.23 232.01 160.57 226.75 163.88 222.11 L 165.65 221.36 C 166.37 226.08 163.88 230.23 161.94 234.32 C 161.55 233.35 160.75 231.41 160.36 230.44 C 159.07 234.13 158.40 238.12 156.07 241.37 C 155.77 240.78 155.18 239.60 154.88 239.01 C 153.54 244.42 145.82 244.72 143.98 250.00 L 140.94 250.00 C 146.25 246.32 150.91 241.72 154.79 236.57 Z" />
</g>
<g id="#4dbd93ff">
<path fill="#4dbd93" opacity="1.00" d=" M 87.70 222.03 C 90.42 222.99 91.90 225.11 92.68 227.72 C 95.72 232.46 100.89 235.26 104.10 239.86 C 106.42 242.82 107.70 246.39 108.55 250.00 L 107.19 250.00 C 105.89 246.96 104.80 243.78 102.79 241.11 C 99.13 236.16 94.04 232.54 90.00 227.93 C 88.42 226.38 88.18 224.07 87.70 222.03 Z" />
</g>
<g id="#39ba91ff">
<path fill="#39ba91" opacity="1.00" d=" M 123.30 225.49 C 125.92 224.51 128.71 224.39 131.47 224.51 C 132.81 228.73 128.25 230.79 124.96 231.70 C 124.37 229.64 123.79 227.57 123.30 225.49 Z" />
</g>
<g id="#3cd99eff">
<path fill="#3cd99e" opacity="1.00" d=" M 148.45 228.05 C 148.57 227.70 148.80 226.99 148.91 226.64 C 149.60 226.72 150.96 226.90 151.64 226.98 C 150.93 227.95 149.63 228.86 148.45 228.05 Z" />
</g>
<g id="#858e8bff">
<path fill="#858e8b" opacity="1.00" d=" M 87.47 228.04 C 94.28 234.57 102.32 240.60 105.28 250.00 L 103.69 250.00 C 102.61 247.88 101.82 245.56 100.25 243.73 C 98.82 242.25 96.73 241.79 94.90 241.02 C 89.54 239.34 88.17 232.90 87.47 228.04 Z" />
</g>
<g id="#69726fff">
<path fill="#69726f" opacity="1.00" d=" M 84.58 231.20 C 85.61 230.36 87.37 231.93 86.72 233.07 C 85.69 233.89 83.95 232.31 84.58 231.20 Z" />
</g>
<g id="#a8f1daff">
<path fill="#a8f1da" opacity="1.00" d=" M 132.64 235.90 C 132.86 235.75 133.30 235.45 133.51 235.30 C 133.94 237.37 134.38 239.44 134.82 241.52 C 133.33 241.84 131.85 242.17 130.36 242.43 C 130.12 241.93 129.66 240.93 129.43 240.44 C 130.52 240.11 131.61 239.79 132.71 239.47 C 132.67 238.27 132.65 237.08 132.64 235.90 Z" />
</g>
<g id="#717373ff">
<path fill="#717373" opacity="1.00" d=" M 160.26 235.20 C 162.00 235.32 161.01 238.05 159.74 238.24 C 158.00 238.10 159.04 235.42 160.26 235.20 Z" />
</g>
</svg>
