<?xml version="1.0" encoding="UTF-8" ?>
<!DOCTYPE svg PUBLIC "-//W3C//DTD SVG 1.1//EN" "http://www.w3.org/Graphics/SVG/1.1/DTD/svg11.dtd">
<svg width="250pt" height="250pt" viewBox="0 0 250 250" version="1.1" xmlns="http://www.w3.org/2000/svg">
<g id="#ffffffff">
<path fill="#ffffff" opacity="1.00" d=" M 0.00 0.00 L 250.00 0.00 L 250.00 250.00 L 0.00 250.00 L 0.00 0.00 M 30.59 46.84 C 23.40 55.47 17.76 65.24 13.10 75.44 C 9.53 83.50 7.05 92.00 5.33 100.64 C 3.47 106.93 3.35 113.49 3.04 119.99 C 2.58 123.22 2.42 126.54 3.13 129.75 C 2.95 138.91 4.56 147.95 6.84 156.80 C 8.86 163.01 10.53 169.38 13.56 175.21 C 15.56 180.22 18.12 184.97 20.89 189.59 C 23.92 194.42 27.21 199.09 30.88 203.46 C 34.59 207.91 38.42 212.29 42.87 216.03 C 46.26 219.42 49.99 222.43 53.93 225.14 C 58.64 228.42 63.23 232.22 68.77 233.99 C 76.51 239.21 85.56 241.91 94.42 244.55 C 108.42 248.77 123.23 249.34 137.73 248.40 C 162.22 246.09 186.01 236.40 205.06 220.82 C 202.49 217.11 199.58 213.65 196.54 210.33 C 192.09 204.39 187.20 198.81 182.53 193.05 C 176.71 196.73 171.25 201.04 164.96 203.94 C 153.40 209.28 140.81 212.82 127.99 212.64 C 123.88 212.83 119.70 211.94 115.64 212.70 C 106.90 210.42 98.07 208.35 89.73 204.76 C 83.80 201.88 78.35 198.15 72.82 194.60 C 67.68 190.05 62.83 185.20 58.24 180.11 C 55.18 176.00 52.42 171.68 49.68 167.35 C 45.95 160.58 43.54 153.24 41.24 145.89 C 40.90 141.91 39.58 138.07 39.42 134.06 C 39.14 128.96 39.33 123.83 38.86 118.73 C 39.04 117.34 39.21 115.95 39.37 114.57 C 40.45 106.10 43.14 97.98 45.92 89.95 C 49.99 81.98 54.55 74.25 60.29 67.35 C 64.66 63.38 68.52 58.82 73.31 55.32 C 77.79 52.04 82.48 49.00 87.45 46.50 C 91.97 44.20 96.88 42.80 101.43 40.57 C 105.17 40.16 108.86 39.17 112.37 37.82 C 121.07 37.60 129.83 36.66 138.47 38.08 C 154.45 40.12 169.52 47.01 182.17 56.88 C 189.94 47.77 197.65 38.57 204.96 29.07 C 199.57 25.01 194.28 20.69 188.16 17.77 C 168.97 6.30 146.33 0.61 123.99 1.21 C 88.15 1.68 53.07 18.95 30.59 46.84 M 101.22 87.66 C 101.23 95.58 101.42 103.50 101.18 111.41 C 97.63 111.86 94.03 111.63 90.47 111.97 C 90.46 114.84 90.46 117.70 90.45 120.56 C 93.86 120.57 97.28 120.47 100.70 120.56 C 101.12 123.55 101.28 126.58 101.12 129.60 C 97.59 129.63 94.06 129.63 90.54 129.68 C 90.48 132.60 90.47 135.53 90.49 138.45 C 94.01 138.51 97.54 138.51 101.06 138.49 C 101.57 146.45 101.10 154.42 101.45 162.38 C 111.63 162.40 121.80 162.39 131.98 162.40 C 142.26 162.40 152.78 158.91 160.14 151.53 C 164.02 148.10 166.30 143.39 168.94 139.04 C 171.78 137.78 175.36 138.81 178.48 138.46 C 178.49 135.53 178.48 132.60 178.42 129.67 C 176.06 129.64 173.69 129.64 171.33 129.64 C 171.23 128.43 171.13 127.21 171.03 126.00 C 171.22 124.22 171.23 122.42 171.30 120.63 C 173.71 120.58 176.12 120.54 178.54 120.52 C 178.50 117.67 178.49 114.83 178.50 111.99 C 175.42 111.69 172.33 111.66 169.24 111.66 C 168.24 109.76 167.21 107.86 166.04 106.05 C 160.03 94.43 146.71 88.11 134.02 87.62 C 123.09 87.58 112.15 87.53 101.22 87.66 Z" />
<path fill="#ffffff" opacity="1.00" d=" M 109.44 95.42 C 118.49 95.59 127.56 95.09 136.60 95.68 C 146.23 96.62 154.58 102.68 159.60 110.77 C 154.83 112.01 149.87 111.59 145.00 111.63 C 133.17 111.51 121.34 111.80 109.52 111.50 C 109.50 111.05 109.45 110.17 109.43 109.73 C 109.37 104.96 109.46 100.19 109.44 95.42 Z" />
<path fill="#ffffff" opacity="1.00" d=" M 109.49 120.47 C 127.07 120.49 144.65 120.52 162.23 120.46 C 162.34 123.45 162.37 126.44 162.38 129.44 C 144.67 129.68 126.94 129.57 109.22 129.48 C 109.40 126.48 109.45 123.47 109.49 120.47 Z" />
<path fill="#ffffff" opacity="1.00" d=" M 109.43 138.43 C 126.12 138.52 142.81 138.28 159.50 138.56 C 157.36 142.54 154.49 146.09 151.03 148.99 C 145.32 152.44 138.73 154.56 132.02 154.48 C 124.48 154.48 116.94 154.57 109.41 154.30 C 109.41 153.37 109.40 151.51 109.40 150.58 C 109.42 146.53 109.43 142.48 109.43 138.43 Z" />
</g>
<g id="#09cd9aff">
<path fill="#09cd9a" opacity="1.00" d=" M 30.59 46.84 C 53.07 18.95 88.15 1.68 123.99 1.21 C 146.33 0.61 168.97 6.30 188.16 17.77 C 189.41 19.70 190.54 21.71 191.69 23.71 C 180.69 25.19 169.76 27.12 158.79 28.77 C 147.07 31.48 135.27 33.86 123.29 35.08 C 119.53 35.40 115.81 36.24 112.37 37.82 C 108.86 39.17 105.17 40.16 101.43 40.57 C 90.58 40.83 80.02 43.41 69.39 45.29 C 62.23 46.62 54.88 46.86 47.87 48.96 C 42.51 50.60 36.96 51.44 31.40 51.93 C 31.13 50.23 30.86 48.53 30.59 46.84 Z" />
</g>
<g id="#18c2a3ff">
<path fill="#18c2a3" opacity="1.00" d=" M 188.16 17.77 C 194.28 20.69 199.57 25.01 204.96 29.07 C 197.65 38.57 189.94 47.77 182.17 56.88 C 169.52 47.01 154.45 40.12 138.47 38.08 C 129.83 36.66 121.07 37.60 112.37 37.82 C 115.81 36.24 119.53 35.40 123.29 35.08 C 135.27 33.86 147.07 31.48 158.79 28.77 C 169.76 27.12 180.69 25.19 191.69 23.71 C 190.54 21.71 189.41 19.70 188.16 17.77 Z" />
</g>
<g id="#19c2a4ff">
<path fill="#19c2a4" opacity="1.00" d=" M 69.39 45.29 C 80.02 43.41 90.58 40.83 101.43 40.57 C 96.88 42.80 91.97 44.20 87.45 46.50 C 82.48 49.00 77.79 52.04 73.31 55.32 C 68.52 58.82 64.66 63.38 60.29 67.35 C 53.62 72.45 44.84 72.33 36.94 73.82 C 30.75 74.55 24.83 76.64 18.70 77.70 C 16.48 78.31 14.80 76.52 13.10 75.44 C 17.76 65.24 23.40 55.47 30.59 46.84 C 30.86 48.53 31.13 50.23 31.40 51.93 C 36.96 51.44 42.51 50.60 47.87 48.96 C 54.88 46.86 62.23 46.62 69.39 45.29 Z" />
</g>
<g id="#28b7adff">
<path fill="#28b7ad" opacity="1.00" d=" M 36.94 73.82 C 44.84 72.33 53.62 72.45 60.29 67.35 C 54.55 74.25 49.99 81.98 45.92 89.95 C 43.19 92.93 39.50 94.92 35.47 95.44 C 25.39 96.93 15.30 98.48 5.33 100.64 C 7.05 92.00 9.53 83.50 13.10 75.44 C 14.80 76.52 16.48 78.31 18.70 77.70 C 24.83 76.64 30.75 74.55 36.94 73.82 Z" />
</g>
<g id="#334453ff">
<path fill="#334453" opacity="1.00" d=" M 101.22 87.66 C 112.15 87.53 123.09 87.58 134.02 87.62 C 146.71 88.11 160.03 94.43 166.04 106.05 C 166.26 107.19 166.44 108.35 166.63 109.51 C 164.27 109.87 161.93 110.27 159.60 110.77 C 154.58 102.68 146.23 96.62 136.60 95.68 C 127.56 95.09 118.49 95.59 109.44 95.42 C 109.46 100.19 109.37 104.96 109.43 109.73 C 106.69 110.31 103.95 110.95 101.18 111.41 C 101.42 103.50 101.23 95.58 101.22 87.66 Z" />
</g>
<g id="#36adb5ff">
<path fill="#36adb5" opacity="1.00" d=" M 35.47 95.44 C 39.50 94.92 43.19 92.93 45.92 89.95 C 43.14 97.98 40.45 106.10 39.37 114.57 C 35.19 114.66 31.01 115.03 26.90 115.84 C 18.98 117.43 10.96 118.43 3.04 119.99 C 3.35 113.49 3.47 106.93 5.33 100.64 C 15.30 98.48 25.39 96.93 35.47 95.44 Z" />
</g>
<g id="#425362ff">
<path fill="#425362" opacity="1.00" d=" M 166.04 106.05 C 167.21 107.86 168.24 109.76 169.24 111.66 C 172.33 111.66 175.42 111.69 178.50 111.99 C 178.49 114.83 178.50 117.67 178.54 120.52 C 176.12 120.54 173.71 120.58 171.30 120.63 C 171.23 122.42 171.22 124.22 171.03 126.00 C 169.29 127.93 167.05 129.29 164.75 130.44 C 164.40 128.27 164.07 126.11 163.74 123.95 C 163.29 125.78 162.84 127.60 162.38 129.44 C 162.37 126.44 162.34 123.45 162.23 120.46 C 144.65 120.52 127.07 120.49 109.49 120.47 C 109.45 123.47 109.40 126.48 109.22 129.48 C 106.92 129.49 104.62 129.57 102.32 129.67 C 102.26 126.66 102.22 123.64 102.01 120.64 C 101.68 120.62 101.03 120.58 100.70 120.56 C 97.28 120.47 93.86 120.57 90.45 120.56 C 90.46 117.70 90.46 114.84 90.47 111.97 C 94.03 111.63 97.63 111.86 101.18 111.41 C 103.95 110.95 106.69 110.31 109.43 109.73 C 109.45 110.17 109.50 111.05 109.52 111.50 C 121.34 111.80 133.17 111.51 145.00 111.63 C 149.87 111.59 154.83 112.01 159.60 110.77 C 161.93 110.27 164.27 109.87 166.63 109.51 C 166.44 108.35 166.26 107.19 166.04 106.05 Z" />
</g>
<g id="#43a4bcff">
<path fill="#43a4bc" opacity="1.00" d=" M 26.90 115.84 C 31.01 115.03 35.19 114.66 39.37 114.57 C 39.21 115.95 39.04 117.34 38.86 118.73 C 38.06 123.42 38.46 128.34 36.88 132.88 C 31.51 135.02 25.59 134.83 20.00 136.04 C 14.97 137.12 9.87 137.93 4.71 137.83 C 4.19 135.14 3.65 132.44 3.13 129.75 C 2.42 126.54 2.58 123.22 3.04 119.99 C 10.96 118.43 18.98 117.43 26.90 115.84 Z" />
</g>
<g id="#509bc4ff">
<path fill="#509bc4" opacity="1.00" d=" M 36.88 132.88 C 38.46 128.34 38.06 123.42 38.86 118.73 C 39.33 123.83 39.14 128.96 39.42 134.06 C 39.58 138.07 40.90 141.91 41.24 145.89 C 41.12 147.86 40.91 149.82 40.72 151.79 C 35.02 152.79 29.28 153.55 23.56 154.41 C 17.98 155.17 12.56 157.59 6.84 156.80 C 4.56 147.95 2.95 138.91 3.13 129.75 C 3.65 132.44 4.19 135.14 4.71 137.83 C 9.87 137.93 14.97 137.12 20.00 136.04 C 25.59 134.83 31.51 135.02 36.88 132.88 Z" />
</g>
<g id="#4e606eff">
<path fill="#4e606e" opacity="1.00" d=" M 100.70 120.56 C 101.03 120.58 101.68 120.62 102.01 120.64 C 102.22 123.64 102.26 126.66 102.32 129.67 C 104.62 129.57 106.92 129.49 109.22 129.48 C 126.94 129.57 144.67 129.68 162.38 129.44 C 162.84 127.60 163.29 125.78 163.74 123.95 C 164.07 126.11 164.40 128.27 164.75 130.44 C 167.05 129.29 169.29 127.93 171.03 126.00 C 171.13 127.21 171.23 128.43 171.33 129.64 C 173.69 129.64 176.06 129.64 178.42 129.67 C 178.48 132.60 178.49 135.53 178.48 138.46 C 175.36 138.81 171.78 137.78 168.94 139.04 C 166.30 143.39 164.02 148.10 160.14 151.53 C 156.99 151.13 153.94 150.22 151.03 148.99 C 154.49 146.09 157.36 142.54 159.50 138.56 C 142.81 138.28 126.12 138.52 109.43 138.43 C 109.43 142.48 109.42 146.53 109.40 150.58 C 107.47 150.90 105.51 151.15 103.63 151.73 C 101.78 154.94 102.02 158.83 101.45 162.38 C 101.10 154.42 101.57 146.45 101.06 138.49 C 97.54 138.51 94.01 138.51 90.49 138.45 C 90.47 135.53 90.48 132.60 90.54 129.68 C 94.06 129.63 97.59 129.63 101.12 129.60 C 101.28 126.58 101.12 123.55 100.70 120.56 Z" />
</g>
<g id="#5d92cbff">
<path fill="#5d92cb" opacity="1.00" d=" M 41.24 145.89 C 43.54 153.24 45.95 160.58 49.68 167.35 C 37.95 171.37 25.18 170.70 13.56 175.21 C 10.53 169.38 8.86 163.01 6.84 156.80 C 12.56 157.59 17.98 155.17 23.56 154.41 C 29.28 153.55 35.02 152.79 40.72 151.79 C 40.91 149.82 41.12 147.86 41.24 145.89 Z" />
</g>
<g id="#5e6f7eff">
<path fill="#5e6f7e" opacity="1.00" d=" M 132.02 154.48 C 138.73 154.56 145.32 152.44 151.03 148.99 C 153.94 150.22 156.99 151.13 160.14 151.53 C 152.78 158.91 142.26 162.40 131.98 162.40 C 121.80 162.39 111.63 162.40 101.45 162.38 C 102.02 158.83 101.78 154.94 103.63 151.73 C 105.51 151.15 107.47 150.90 109.40 150.58 C 109.40 151.51 109.41 153.37 109.41 154.30 C 116.94 154.57 124.48 154.48 132.02 154.48 Z" />
</g>
<g id="#688ad2ff">
<path fill="#688ad2" opacity="1.00" d=" M 49.68 167.35 C 52.42 171.68 55.18 176.00 58.24 180.11 C 58.00 181.29 57.76 182.48 57.53 183.66 C 45.41 186.17 33.14 187.93 20.89 189.59 C 18.12 184.97 15.56 180.22 13.56 175.21 C 25.18 170.70 37.95 171.37 49.68 167.35 Z" />
</g>
<g id="#7382d9ff">
<path fill="#7382d9" opacity="1.00" d=" M 58.24 180.11 C 62.83 185.20 67.68 190.05 72.82 194.60 C 66.22 198.74 58.14 198.02 50.85 199.98 C 44.31 201.70 37.70 203.45 30.88 203.46 C 27.21 199.09 23.92 194.42 20.89 189.59 C 33.14 187.93 45.41 186.17 57.53 183.66 C 57.76 182.48 58.00 181.29 58.24 180.11 Z" />
</g>
<g id="#8d6fe8ff">
<path fill="#8d6fe8" opacity="1.00" d=" M 164.96 203.94 C 171.25 201.04 176.71 196.73 182.53 193.05 C 187.20 198.81 192.09 204.39 196.54 210.33 C 187.36 213.47 177.57 213.94 168.16 216.09 C 158.53 217.19 149.25 220.07 139.71 221.59 C 115.88 224.65 92.54 230.56 68.77 233.99 C 63.23 232.22 58.64 228.42 53.93 225.14 C 60.21 223.90 66.51 222.79 72.83 221.81 C 81.31 220.55 89.54 217.95 98.07 216.99 C 104.09 216.32 110.05 215.07 115.64 212.70 C 119.70 211.94 123.88 212.83 127.99 212.64 C 140.81 212.82 153.40 209.28 164.96 203.94 Z" />
</g>
<g id="#7d7bdfff">
<path fill="#7d7bdf" opacity="1.00" d=" M 72.82 194.60 C 78.35 198.15 83.80 201.88 89.73 204.76 C 89.59 205.28 89.31 206.33 89.16 206.85 C 83.47 207.83 77.75 208.73 72.11 210.05 C 62.45 212.48 52.43 213.12 42.87 216.03 C 38.42 212.29 34.59 207.91 30.88 203.46 C 37.70 203.45 44.31 201.70 50.85 199.98 C 58.14 198.02 66.22 198.74 72.82 194.60 Z" />
</g>
<g id="#8675e3ff">
<path fill="#8675e3" opacity="1.00" d=" M 89.73 204.76 C 98.07 208.35 106.90 210.42 115.64 212.70 C 110.05 215.07 104.09 216.32 98.07 216.99 C 89.54 217.95 81.31 220.55 72.83 221.81 C 66.51 222.79 60.21 223.90 53.93 225.14 C 49.99 222.43 46.26 219.42 42.87 216.03 C 52.43 213.12 62.45 212.48 72.11 210.05 C 77.75 208.73 83.47 207.83 89.16 206.85 C 89.31 206.33 89.59 205.28 89.73 204.76 Z" />
</g>
<g id="#9669edff">
<path fill="#9669ed" opacity="1.00" d=" M 196.54 210.33 C 199.58 213.65 202.49 217.11 205.06 220.82 C 186.01 236.40 162.22 246.09 137.73 248.40 C 123.23 249.34 108.42 248.77 94.42 244.55 C 85.56 241.91 76.51 239.21 68.77 233.99 C 92.54 230.56 115.88 224.65 139.71 221.59 C 149.25 220.07 158.53 217.19 168.16 216.09 C 177.57 213.94 187.36 213.47 196.54 210.33 Z" />
</g>
</svg>
