<?xml version="1.0" encoding="utf-8"?>
<!-- Generator: Adobe Illustrator 26.0.3, SVG Export Plug-In . SVG Version: 6.00 Build 0)  -->
<svg version="1.1" id="Layer_1" xmlns="http://www.w3.org/2000/svg" xmlns:xlink="http://www.w3.org/1999/xlink" x="0px" y="0px"
	 viewBox="0 0 217 250" style="enable-background:new 0 0 217 250;" xml:space="preserve">
<style type="text/css">
	.st0{fill:#5C9FFD;}
	.st1{fill:#FEFFFE;}
	.st2{fill:#6795FD;}
	.st3{fill:#91C1F9;}
	.st4{fill:#0A85FC;}
	.st5{fill:#FEFEFD;}
	.st6{fill:#02B8FC;}
	.st7{fill:#708FFD;}
	.st8{fill:#05F0FD;}
	.st9{fill:#FFFFFE;}
	.st10{fill:#40AFFC;}
	.st11{fill:#758BFD;}
	.st12{fill:#7988FD;}
	.st13{fill:#02B6FD;}
	.st14{fill:#0D84FC;}
	.st15{fill:#04EEFD;}
	.st16{fill:#8ECEF8;}
	.st17{fill:#4EACFE;}
	.st18{fill:#887EFD;}
	.st19{fill:#857FFD;}
	.st20{fill:#8B7BFD;}
	.st21{fill:#9D6CFD;}
	.st22{fill:#9D6DFD;}
	.st23{fill:#B55BFD;}
	.st24{fill:#B05FFD;}
	.st25{fill:#9DD9FA;}
	.st26{fill:#0B94F7;}
	.st27{fill:#08E3FE;}
	.st28{fill:#A5CEF9;}
</style>
<g id="_x23_5c9ffdff">
	<path class="st0" d="M68,41c6.2-3.9,14.8-3,20.5,1.6c6.8,6.1,12.6,13.4,19.7,19.2c5,0,9.8-1.6,14.8-1.4c7.4,0.1,15.1-0.8,22.2,1.9
		c-6.7-0.6-13.4-1.1-20.1-1c-6.3,0-12.4,1.5-18.7,1.8c-0.6,0.4-1.1,0.9-1.7,1.3c-2.3,0.3-4.6,0.7-6.8,1.5l-0.7,0.3
		c-4.4-4.4-8.8-8.7-13.2-13.1c-1.9-1.8-4-4.1-6.9-4c-3.6,0-6.5,2.6-9.2,4.8C60.3,60.4,53,67.3,47.3,75.5c-2.1-0.5-4.2-0.9-6.3-1.2
		c0.2,2.1,0.8,4.1,1.3,6.1c-1.5-1-3.4-1.8-4.6-3.2c-0.7-1.7-0.2-3.6-0.2-5.4c4-6.5,8.7-12.7,14.4-17.8C56.7,48.9,62.2,44.7,68,41z"
		/>
</g>
<g id="_x23_fefffeff">
	<path class="st1" d="M67.8,53.8c2.7-2.1,5.5-4.7,9.2-4.8c2.9-0.2,5,2.1,6.9,4c4.3,4.4,8.8,8.7,13.2,13.1c-2.5,1.4-4.7,3.2-7,4.9
		c-0.4,0.3-1.3,0.9-1.7,1.2c-2.5,1.8-4.8,3.8-7.2,5.7c-1.3,1.1-2.6,2.3-3.8,3.5c-9.8,9.5-16.7,22-19,35.5
		c-3.1,12.9-1.9,26.6,2.3,39.1c5.6,14.6,15.2,28.5,29.1,36.1c2.6,1.7,5.3,3.3,8.1,4.8c-5,5-9.9,10.1-15,15.1
		c-2.6,2.7-7,3.4-10.2,1.2C62,206.6,53.5,197,46.3,186.8c-6.7-10.9-11.8-22.8-14.8-35.3c-2.1-13-2.5-26.3,0.2-39.2
		c2.7-13.2,8.2-25.7,15.7-36.8C53,67.3,60.3,60.4,67.8,53.8z"/>
</g>
<g id="_x23_6795fdff">
	<path class="st2" d="M106.3,63c6.3-0.3,12.4-1.8,18.7-1.8c6.7-0.1,13.4,0.4,20.1,1c4.7,0.6,9.3,2,13.4,4.3
		c5.8,3.3,12,6.3,16.6,11.2c2.9,2.7,3.9,7.2,2.4,10.9c-1.2,3.3-4.2,5.6-6.6,8c-2.2-1.2-6-1.5-6-4.7c0.3-2.5,2.1-4.6,3.3-6.8
		c-0.2-0.2-0.5-0.7-0.6-1c-14.1-11.1-33.2-16.7-50.9-12.6c6.5,6.8,13.3,13.4,19.9,20.1c-0.3,0.5-1,1.7-1.4,2.2
		c-0.9-0.6-1.9-1.2-2.8-1.7c0.8,1.6,1,3.4,1,5.2c-3.2-1-5.4-3.6-7-6.4c-3.2-1.6-6.5-3.1-9.5-5.1c-4.2-3.7-8.3-7.7-11.9-11.9
		c-2.4-2.8-4.8-5.5-7.3-8.1c2.2-0.8,4.5-1.1,6.8-1.5C105.2,63.9,105.7,63.4,106.3,63z"/>
</g>
<g id="_x23_91c1f9ff">
	<path class="st3" d="M97.1,66.1l0.7-0.3c2.5,2.7,4.9,5.4,7.3,8.1c-0.9,0.6-1.9,1.2-2.8,1.7c-1.2-2.8-2.8-6.3-6.2-6.7
		c-1.5,0.2-3,0.7-4.4,1.3c-0.4,0.2-1.1,0.6-1.5,0.8C92.4,69.3,94.6,67.6,97.1,66.1z"/>
</g>
<g id="_x23_0a85fcff">
	<path class="st4" d="M91.6,70.2c1.4-0.5,2.9-1,4.4-1.3c3.4,0.4,5,3.9,6.2,6.7c-1.3,0.7-2.6,1.4-3.9,2.1
		C96.4,75,94.2,72.4,91.6,70.2z"/>
</g>
<g id="_x23_fefefdff">
	<path class="st5" d="M116.7,71.6c17.7-4.1,36.8,1.5,50.9,12.6c-5.1,7.4-12.1,13.1-18.5,19.3c-4.4-3.8-8.5-7.7-12.5-11.8
		C130,84.9,123.2,78.4,116.7,71.6z"/>
	<path class="st5" d="M149.2,159.9c6.7,5.8,13.3,12,18.7,19c-1.4,1.3-2.9,2.6-4.4,3.8c-7,4.7-15,8.1-23.3,9.6
		c-7.5,0.3-15.1,0.3-22.6-0.5C127.9,180.9,138.7,170.5,149.2,159.9z"/>
</g>
<g id="_x23_02b8fcff">
	<path class="st6" d="M90.1,71c0.4-0.2,1.1-0.6,1.5-0.8c2.6,2.2,4.8,4.8,6.7,7.6c-1,0.5-1.9,1.1-2.9,1.6c-2.2-2.5-4.6-4.9-7-7.2
		C88.8,71.9,89.7,71.3,90.1,71z"/>
</g>
<g id="_x23_708ffdff">
	<path class="st7" d="M25.6,96.8c2.7-8.9,6.6-17.4,12.1-25c-0.1,1.8-0.5,3.7,0.2,5.4c1.2,1.4,3.1,2.2,4.6,3.2c-0.5-2-1.1-4-1.3-6.1
		c2.1,0.2,4.2,0.7,6.3,1.2c-7.5,11.1-13,23.6-15.7,36.8c-1.4-1.6-2.7-3.3-3.9-5.1c-1.9,1.8-3.9,3.5-6.1,5
		C22,106.8,23.7,101.8,25.6,96.8z"/>
</g>
<g id="_x23_05f0fdff">
	<path class="st8" d="M81.2,77.9c2.3-1.9,4.7-3.9,7.2-5.7c2.4,2.3,4.8,4.7,7,7.2c-2.9,1.8-5.6,3.8-8,6.2
		C85.1,83.3,83,80.7,81.2,77.9z"/>
</g>
<g id="_x23_fffffeff">
	<path class="st9" d="M102.2,75.7c0.9-0.6,1.9-1.1,2.8-1.7c3.7,4.3,7.7,8.2,11.9,11.9c3.3,3.5,6.6,7.2,10,10.7
		c-1.4,0.3-2.8,0.6-4.2,0.9c-0.5,0.1-1.4,0.3-1.9,0.5c-1.4,0.4-2.8,0.9-4.2,1.4c-2.4,1-4.8,2.1-7,3.4c-3.9,2.2-7.3,5.4-9.7,9.2
		c-6.7,9.8-8.4,23.1-3.1,33.9c4.4,9.9,13.6,17.5,24.1,19.9c1.7,0.5,3.5,0.9,5.2,1.4c-6.5,7.7-14,14.5-21.2,21.6
		c-15.5-6.3-28-19.3-34-34.9c-4.6-11.9-4.8-25.1-2.5-37.5c3.4-10.8,9.1-20.9,17.2-28.9c0.4-0.5,1.4-1.4,1.8-1.8
		c2.4-2.3,5.1-4.4,8-6.2c0.9-0.6,1.9-1.1,2.9-1.6C99.6,77.1,100.9,76.4,102.2,75.7z"/>
</g>
<g id="_x23_40affcff">
	<path class="st10" d="M77.5,81.4c1.2-1.2,2.5-2.4,3.8-3.5c1.8,2.8,3.8,5.4,6.2,7.7C87,86,86.1,87,85.7,87.4
		C82.6,85.9,79.8,83.9,77.5,81.4z"/>
</g>
<g id="_x23_758bfdff">
	<path class="st11" d="M58.5,116.9c2.2-13.5,9.1-26,19-35.5c2.3,2.5,5.1,4.5,8.2,6c-8,8.1-13.7,18.1-17.2,28.9
		c-0.3-1.5-0.7-3-1.1-4.5C64.1,112.7,61.2,114.7,58.5,116.9z"/>
</g>
<g id="_x23_7988fdff">
	<path class="st12" d="M167.6,84.2c0.2,0.2,0.5,0.7,0.6,1c-1.2,2.2-3,4.2-3.3,6.8c0,3.2,3.8,3.4,6,4.7c-5.6,5.5-10.7,11.5-16.8,16.4
		c-3.9,1.2-9.3,1.7-12.3-1.8c-1-1-1.9-2.1-2.8-3.1c-1.9-2.5-4-5.1-7.3-5.7c-2.7-2.2-5.3-4.8-9-4.9c1.4-0.3,2.8-0.6,4.2-0.9
		c-3.4-3.5-6.6-7.1-10-10.7c3,2,6.3,3.5,9.5,5.1c1.6,2.8,3.8,5.4,7,6.4c0-1.8-0.2-3.6-1-5.2c0.9,0.6,1.8,1.2,2.8,1.7
		c0.3-0.6,1-1.7,1.4-2.2c4,4.1,8.2,8.1,12.5,11.8C155.5,97.3,162.5,91.6,167.6,84.2z"/>
</g>
<g id="_x23_02b6fdff">
	<path class="st13" d="M116.7,99.4c1.4-0.5,2.8-1,4.2-1.4c2.6,3,5.4,6,8.2,8.8c-1.9,0-3.8,0-5.7,0.1
		C121.4,104.2,119.2,101.7,116.7,99.4z"/>
</g>
<g id="_x23_0d84fcff">
	<path class="st14" d="M120.9,97.9c0.5-0.1,1.4-0.3,1.9-0.5c3.6,0.2,6.3,2.8,9,4.9c1.1,1.5,2.1,3.1,3.2,4.6
		c-1.9-0.1-3.9-0.2-5.8-0.2C126.3,103.9,123.5,101,120.9,97.9z"/>
</g>
<g id="_x23_04eefdff">
	<path class="st15" d="M109.7,102.8c2.3-1.3,4.6-2.4,7-3.4c2.4,2.3,4.7,4.8,6.7,7.5c-2.2,1-4.3,2.1-6.5,3.1
		c-1.2,0.3-2.5,0.6-3.7,0.8c-1.6-1.7-3.2-3.3-4.9-4.9C108.8,104.8,109.2,103.8,109.7,102.8z"/>
</g>
<g id="_x23_8ecef8ff">
	<path class="st16" d="M131.7,102.4c3.3,0.6,5.4,3.2,7.3,5.7c-3.4,0.1-6.7-0.1-10.1-0.3c-4.1-0.2-8.1,1.3-12.1,2.1
		c2.2-1,4.3-2.1,6.5-3.1c1.9-0.1,3.8-0.1,5.7-0.1c1.9,0.1,3.9,0.2,5.8,0.2C133.9,105.5,132.8,103.9,131.7,102.4z"/>
</g>
<g id="_x23_4eacfeff">
	<path class="st17" d="M100,111.9c2.5-3.8,5.8-7,9.7-9.2c-0.5,1-0.9,2.1-1.4,3.1c1.7,1.6,3.3,3.2,4.9,4.9c1.2-0.3,2.5-0.5,3.7-0.8
		c-1.8,1.6-3.8,3.1-5.8,4.4c-2.1-2.1-4.2-4.2-6.4-6.2C103.1,109.4,101.5,110.6,100,111.9z"/>
</g>
<g id="_x23_887efdff">
	<path class="st18" d="M27.7,107.2c1.2,1.8,2.6,3.4,3.9,5.1c-2.6,12.9-2.2,26.3-0.2,39.2c-0.2,0.4-0.5,1.1-0.6,1.4
		c-1.1-2-2-4.1-2.6-6.4c-2.1,1.9-4.3,3.8-6.5,5.6c-2.7-13.2-3-26.8-0.2-40C23.8,110.7,25.8,109,27.7,107.2z"/>
</g>
<g id="_x23_857ffdff">
	<path class="st19" d="M100,111.9c1.5-1.3,3.1-2.5,4.7-3.8c2.1,2.1,4.3,4.1,6.4,6.2c-2.5,3.4-5.2,7-6.3,11.2
		c-1,5.8-0.6,11.9,1.3,17.5c-2.3-0.6-4.6-1.2-6.8-1.8c-0.8,1.5-1.5,3.1-2.3,4.6C91.6,135,93.3,121.7,100,111.9z"/>
</g>
<g id="_x23_8b7bfdff">
	<path class="st20" d="M58.5,116.9c2.6-2.2,5.5-4.1,8.9-5.1c0.4,1.5,0.8,3,1.1,4.5c-2.3,12.4-2.1,25.6,2.5,37.5
		c-2.2-0.4-4.5-0.8-6.8-0.8c-1.3,0.7-2.3,1.9-3.4,2.9C56.6,143.5,55.5,129.8,58.5,116.9z"/>
</g>
<g id="_x23_9d6cfdff">
	<path class="st21" d="M99.2,141.3c2.3,0.6,4.6,1.1,6.8,1.8l0.8,0.2c5,9,15.6,14.7,25.9,12.6c4.4-0.6,8.1-3.1,12-5.1
		c5-2.6,11.1,0,14.4,4.1c4.4,5.3,10.3,9,14.6,14.5c3.4,3.3,6.2,8.8,3.7,13.4c-4.8,0.2-9.5,0.9-14.1,2.1c0.1-0.6,0.2-1.7,0.2-2.3
		c1.5-1.2,3-2.5,4.4-3.8c-5.4-7-12-13.2-18.7-19c-10.5,10.6-21.3,21-31.6,31.9l-0.8,0c1.9-3.1,4.1-5.9,6.5-8.7
		c-3.6-0.1-7.4-0.2-10.5,1.7c-3,1.4-5.5,4.2-8.8,4.5c-5.9-1-10.2-5.7-15.9-7.2c-1.4,0.9-2.7,2.1-3.9,3.2c2,2.2,3.9,4.5,5.9,6.8
		c-13.9-7.7-23.5-21.5-29.1-36.1c1.1-1,2.1-2.1,3.4-2.9c2.3-0.1,4.5,0.4,6.8,0.8c6,15.6,18.5,28.6,34,34.9
		c7.2-7.1,14.7-13.9,21.2-21.6c-1.7-0.5-3.5-0.9-5.2-1.4c-10.5-2.4-19.8-10.1-24.1-19.9C97.7,144.3,98.4,142.8,99.2,141.3z"/>
</g>
<g id="_x23_9d6dfdff">
	<path class="st22" d="M21.8,152.2c2.2-1.8,4.4-3.7,6.5-5.6c0.6,2.2,1.4,4.4,2.6,6.4c0.2-0.4,0.5-1.1,0.6-1.4
		c3,12.5,8.1,24.4,14.8,35.3c-4.2-2.7-7.2-6.7-9.3-11.1c-0.9,2.1-2.2,4.2-2.5,6.5c0.2,2.8,1.3,5.4,2.4,8c-4-4.8-6.2-10.7-9-16.1
		C24.5,167.2,23.3,159.6,21.8,152.2z"/>
</g>
<g id="_x23_b55bfdff">
	<path class="st23" d="M34.6,182.2c0.3-2.3,1.6-4.4,2.5-6.5c2,4.4,5.1,8.5,9.3,11.1c7.2,10.2,15.7,19.8,26.5,26.3
		c3.2,2.2,7.6,1.5,10.2-1.2c5.1-4.9,10-10.1,15-15.1c-2.8-1.4-5.4-3.1-8.1-4.8c-1.9-2.3-3.8-4.6-5.9-6.8c1.3-1.1,2.5-2.3,3.9-3.2
		c5.7,1.5,10,6.2,15.9,7.2c3.3-0.4,5.9-3.1,8.8-4.5c3.2-1.9,7-1.8,10.5-1.7c-2.4,2.7-4.6,5.6-6.5,8.7c-0.3,0.5-0.9,1.5-1.2,2
		c-1.4,1.7-3.1,3.1-4.8,4.5c-1,0.9-1.9,1.7-2.9,2.6c-6.6,6.4-13,13.1-19.6,19.5c-5.3,5.3-14.4,5.9-20.6,1.8
		c-4.5-2.7-8.7-5.9-12.3-9.7c-6.8-6.9-14-13.8-18.5-22.4C35.9,187.6,34.8,185,34.6,182.2z"/>
</g>
<g id="_x23_b05ffdff">
	<path class="st24" d="M163.3,184.9c4.6-1.2,9.3-1.9,14.1-2.1c-4.2,6.7-11.4,10.8-18.4,14.1c-6.5,3.2-13.6,4.7-20.6,6.1
		c-3.6,0-7.2-0.2-10.8-0.3c2.7-3.3,6.3-5.7,9.7-8.3c1-0.8,2-1.5,3-2.2c8.3-1.6,16.3-4.9,23.3-9.6
		C163.5,183.2,163.4,184.3,163.3,184.9z"/>
</g>
<g id="_x23_9dd9faff">
	<path class="st25" d="M115.6,193.7c0.3-0.5,0.9-1.5,1.2-2l0.8,0c7.5,0.8,15.1,0.9,22.6,0.5c-1,0.7-2,1.5-3,2.2
		c-5.4-0.5-10.7-0.8-16.1-0.8C119.3,193.7,117.5,193.7,115.6,193.7z"/>
</g>
<g id="_x23_0b94f7ff">
	<path class="st26" d="M115.6,193.7c1.8,0,3.7,0,5.5,0c-2.3,2.6-4.3,5.4-6.3,8.1c-1.3-0.3-2.5-0.6-3.8-0.9c-0.1-0.7-0.2-2-0.2-2.7
		C112.5,196.8,114.2,195.4,115.6,193.7z"/>
</g>
<g id="_x23_08e3feff">
	<path class="st27" d="M121.2,193.7c5.4,0,10.8,0.3,16.1,0.8c-3.4,2.6-7,5-9.7,8.3c-4.2,0-8.5,0.1-12.7-0.9
		C116.9,199,118.9,196.2,121.2,193.7z"/>
</g>
<g id="_x23_a5cef9ff">
	<path class="st28" d="M108,200.9c1-0.9,1.9-1.8,2.9-2.6c0.1,0.7,0.2,2,0.2,2.7c1.2,0.3,2.5,0.6,3.8,0.9c4.2,1,8.5,0.9,12.7,0.9
		c3.6,0.1,7.2,0.3,10.8,0.3l1,0C129,204.5,117.8,205,108,200.9z"/>
</g>
</svg>
