<?xml version="1.0" encoding="UTF-8" ?>
<!DOCTYPE svg PUBLIC "-//W3C//DTD SVG 1.1//EN" "http://www.w3.org/Graphics/SVG/1.1/DTD/svg11.dtd">
<svg width="250pt" height="250pt" viewBox="0 0 250 250" version="1.1" xmlns="http://www.w3.org/2000/svg">
<g id="#eceaf4ff">
<path fill="#eceaf4" opacity="1.00" d=" M 0.00 0.00 L 79.59 0.00 C 79.99 7.35 86.73 8.98 92.55 9.02 C 43.81 22.75 6.32 68.89 4.78 119.77 C 3.96 123.57 4.11 127.44 4.67 131.27 C 4.83 132.82 5.04 134.36 5.24 135.91 C 4.62 137.61 4.47 139.61 5.70 141.10 C 8.52 161.75 16.67 181.64 29.32 198.22 C 24.61 201.09 23.12 194.25 20.46 191.63 C 18.00 190.97 15.03 191.62 13.03 189.78 C 11.08 186.04 14.35 184.80 16.14 182.84 C 14.45 179.15 10.74 181.67 9.12 184.00 C 7.56 181.68 7.45 176.09 3.51 177.79 C 4.22 175.36 1.56 176.05 0.00 175.83 L 0.00 0.00 Z" />
</g>
<g id="#f1e8e4ff">
<path fill="#f1e8e4" opacity="1.00" d=" M 79.59 0.00 L 250.00 0.00 L 250.00 66.80 C 244.09 66.65 238.89 75.49 233.89 71.16 C 233.85 71.91 233.75 73.43 233.71 74.19 C 216.42 36.97 179.18 9.84 138.23 5.83 C 135.41 5.51 132.61 5.18 129.78 5.16 C 126.21 5.03 122.65 5.00 119.08 5.06 C 116.18 3.84 113.79 4.12 111.91 5.88 C 110.64 5.96 109.37 6.05 108.10 6.13 C 106.68 5.59 104.98 5.58 103.89 6.79 C 100.12 7.60 96.39 8.64 92.55 9.02 C 86.73 8.98 79.99 7.35 79.59 0.00 Z" />
</g>
<g id="#817d7cff">
<path fill="#817d7c" opacity="1.00" d=" M 111.91 5.88 C 113.79 4.12 116.18 3.84 119.08 5.06 C 117.26 6.92 114.87 7.19 111.91 5.88 Z" />
</g>
<g id="#323236ff">
<path fill="#323236" opacity="1.00" d=" M 119.08 5.06 C 122.65 5.00 126.21 5.03 129.78 5.16 C 132.58 5.42 135.41 5.72 138.23 5.83 C 179.18 9.84 216.42 36.97 233.71 74.19 C 235.63 78.42 237.34 82.75 238.99 87.10 C 240.68 92.62 241.84 98.28 243.22 103.88 C 242.62 105.28 242.49 107.06 243.82 108.11 C 243.99 109.31 244.16 110.51 244.34 111.71 C 244.33 114.57 244.07 117.48 244.71 120.30 C 245.35 129.52 244.73 138.84 242.78 147.88 C 241.53 148.96 241.60 150.69 242.18 152.10 C 233.58 188.83 207.01 220.45 172.63 235.79 C 164.47 238.35 156.64 241.97 148.10 243.20 C 146.69 242.61 144.90 242.50 143.88 243.84 C 143.18 243.94 141.80 244.13 141.10 244.23 C 139.38 243.62 137.34 243.44 135.91 244.79 C 134.69 244.95 133.46 245.10 132.24 245.24 C 127.08 245.15 121.93 244.99 116.78 245.21 C 115.22 245.08 113.66 244.97 112.10 244.86 C 111.10 243.47 109.27 243.62 107.88 244.24 C 77.09 239.76 48.13 223.08 29.32 198.22 C 16.67 181.64 8.52 161.75 5.70 141.10 C 6.38 139.40 6.58 137.34 5.24 135.91 C 5.04 134.36 4.83 132.82 4.67 131.27 C 4.82 127.43 4.99 123.60 4.78 119.77 C 6.32 68.89 43.81 22.75 92.55 9.02 C 96.39 8.64 100.12 7.60 103.89 6.79 C 105.29 7.37 107.11 7.53 108.10 6.13 C 109.37 6.05 110.64 5.96 111.91 5.88 C 114.87 7.19 117.26 6.92 119.08 5.06 M 114.00 18.96 C 111.62 18.85 109.24 19.20 107.01 20.03 C 65.98 25.81 29.42 59.22 21.18 99.75 C 17.96 105.67 18.38 112.72 18.10 119.23 C 15.58 120.05 16.60 130.76 17.97 132.00 C 17.95 133.29 18.05 134.58 18.26 135.86 C 17.52 137.18 17.15 140.41 18.95 140.80 C 20.34 152.51 24.17 164.13 29.93 174.25 C 33.65 182.64 39.54 190.59 45.88 197.06 C 50.61 202.15 55.47 208.46 61.84 211.01 C 66.22 215.39 72.36 218.76 78.20 221.24 C 87.51 226.25 100.50 230.68 111.99 231.00 C 117.97 232.73 131.02 232.70 137.01 231.02 C 144.89 230.80 154.76 228.34 160.81 225.20 C 167.06 223.80 173.25 220.85 178.32 216.98 C 189.98 211.32 200.19 201.85 207.73 191.43 C 213.68 186.61 216.56 178.78 220.04 172.17 C 226.59 161.43 229.53 147.72 231.02 135.01 C 232.72 130.83 232.76 119.16 230.99 114.98 C 229.58 104.90 227.86 94.21 223.38 85.20 C 221.90 79.43 218.36 73.51 215.09 69.09 C 211.48 63.55 207.86 57.63 203.19 52.98 C 197.01 45.83 189.24 40.05 181.39 34.84 C 170.63 27.94 158.53 22.81 145.88 20.72 C 144.74 18.35 138.88 19.67 136.02 19.00 C 131.46 16.35 118.61 17.95 114.00 18.96 Z" />
</g>
<g id="#87827fff">
<path fill="#87827f" opacity="1.00" d=" M 129.78 5.16 C 132.61 5.18 135.41 5.51 138.23 5.83 C 135.41 5.72 132.58 5.42 129.78 5.16 Z" />
</g>
<g id="#938f8eff">
<path fill="#938f8e" opacity="1.00" d=" M 103.89 6.79 C 104.98 5.58 106.68 5.59 108.10 6.13 C 107.11 7.53 105.29 7.37 103.89 6.79 Z" />
<path fill="#938f8e" opacity="1.00" d=" M 243.22 103.88 C 244.45 104.98 244.39 106.70 243.82 108.11 C 242.49 107.06 242.62 105.28 243.22 103.88 Z" />
</g>
<g id="#5a798bff">
<path fill="#5a798b" opacity="1.00" d=" M 114.00 18.96 C 118.61 17.95 131.46 16.35 136.02 19.00 C 131.68 18.99 127.35 18.97 123.01 18.99 C 120.00 18.96 117.00 19.00 114.00 18.96 Z" />
</g>
<g id="#83cbf1ff">
<path fill="#83cbf1" opacity="1.00" d=" M 107.01 20.03 C 109.24 19.20 111.62 18.85 114.00 18.96 C 117.00 19.00 120.00 18.96 123.01 18.99 C 125.08 21.49 124.98 24.30 121.91 25.87 C 120.17 26.09 118.44 26.37 116.72 26.71 C 115.07 26.87 111.79 27.18 110.15 27.34 C 106.47 27.04 110.36 21.83 107.01 20.03 Z" />
</g>
<g id="#b9dff4ff">
<path fill="#b9dff4" opacity="1.00" d=" M 123.01 18.99 C 127.35 18.97 131.68 18.99 136.02 19.00 C 138.88 19.67 144.74 18.35 145.88 20.72 C 143.12 21.70 145.73 26.03 143.78 28.23 C 143.11 28.10 141.76 27.86 141.09 27.74 C 139.63 26.47 137.62 26.62 135.91 27.21 C 134.68 27.05 133.46 26.91 132.23 26.78 C 128.80 26.32 125.37 25.90 121.91 25.87 C 124.98 24.30 125.08 21.49 123.01 18.99 Z" />
</g>
<g id="#60bae9ff">
<path fill="#60bae9" opacity="1.00" d=" M 21.18 99.75 C 29.42 59.22 65.98 25.81 107.01 20.03 C 110.36 21.83 106.47 27.04 110.15 27.34 C 70.97 32.74 37.61 63.85 28.25 102.08 C 24.63 105.21 20.84 108.35 21.18 99.75 Z" />
</g>
<g id="#e1eed8ff">
<path fill="#e1eed8" opacity="1.00" d=" M 143.78 28.23 C 145.73 26.03 143.12 21.70 145.88 20.72 C 158.53 22.81 170.63 27.94 181.39 34.84 C 182.02 36.75 180.75 38.30 180.03 39.95 C 180.56 41.56 184.81 44.56 180.98 44.18 C 169.97 36.10 157.03 31.16 143.78 28.23 Z" />
</g>
<g id="#5e7e91ff">
<path fill="#5e7e91" opacity="1.00" d=" M 116.72 26.71 C 118.44 26.37 120.17 26.09 121.91 25.87 C 125.37 25.90 128.80 26.32 132.23 26.78 C 127.06 26.83 121.88 27.08 116.72 26.71 Z" />
</g>
<g id="#313031ff">
<path fill="#313031" opacity="1.00" d=" M 110.15 27.34 C 111.79 27.18 115.07 26.87 116.72 26.71 C 121.88 27.08 127.06 26.83 132.23 26.78 C 133.46 26.91 134.68 27.05 135.91 27.21 C 137.33 28.58 139.38 28.38 141.09 27.74 C 141.76 27.86 143.11 28.10 143.78 28.23 C 157.03 31.16 169.97 36.10 180.98 44.18 C 187.67 48.82 193.41 54.62 199.08 60.42 C 204.45 66.03 207.84 73.03 212.37 79.26 C 214.88 85.56 217.56 91.80 219.70 98.25 C 224.76 119.24 224.51 141.65 216.46 161.87 C 213.23 169.05 209.51 176.02 205.11 182.57 C 195.91 195.53 183.42 205.44 169.77 213.37 C 161.87 216.69 153.88 219.77 145.63 222.15 C 142.47 222.05 139.38 222.80 136.29 223.37 C 128.45 222.94 120.61 222.95 112.78 223.25 C 106.43 222.65 100.20 221.22 94.11 219.39 C 85.92 216.27 77.84 212.77 70.45 208.02 C 64.30 203.93 58.70 199.11 53.34 194.05 C 46.81 186.66 40.94 178.63 36.34 169.89 C 30.94 158.97 27.80 147.08 26.02 135.06 C 25.93 133.78 25.84 132.50 25.76 131.22 C 25.22 121.36 26.22 111.68 28.25 102.08 C 37.61 63.85 70.97 32.74 110.15 27.34 M 90.08 85.01 C 83.88 86.69 84.95 97.38 90.97 98.01 L 91.04 98.96 C 113.05 98.41 137.56 100.30 158.02 98.01 C 164.48 97.43 164.96 85.39 158.03 85.00 L 157.95 84.06 C 135.68 84.56 110.55 82.71 90.08 85.01 M 90.08 108.01 C 83.97 109.78 84.49 120.47 90.98 121.01 L 91.04 121.96 C 113.05 121.41 137.56 123.30 158.01 121.01 C 164.54 120.47 165.01 109.86 158.94 108.01 L 158.99 107.07 C 136.36 107.52 110.90 105.73 90.08 108.01 M 90.08 131.01 C 83.88 132.69 84.95 143.38 90.97 144.01 L 91.04 144.96 C 113.05 144.41 137.56 146.30 158.01 144.01 C 164.94 143.56 164.90 131.46 158.03 131.00 L 157.95 130.06 C 135.68 130.56 110.55 128.71 90.08 131.01 M 90.22 153.16 C 83.94 155.77 84.80 167.41 91.97 167.02 L 92.03 167.98 C 113.71 167.37 137.89 169.32 158.01 167.01 C 165.69 166.04 164.20 154.01 156.93 153.08 C 134.70 152.96 112.45 152.85 90.22 153.16 Z" />
</g>
<g id="#6d8088ff">
<path fill="#6d8088" opacity="1.00" d=" M 135.91 27.21 C 137.62 26.62 139.63 26.47 141.09 27.74 C 139.38 28.38 137.33 28.58 135.91 27.21 Z" />
</g>
<g id="#bcdbb1ff">
<path fill="#bcdbb1" opacity="1.00" d=" M 181.39 34.84 C 189.24 40.05 197.01 45.83 203.19 52.98 C 201.83 55.46 200.67 58.07 199.08 60.42 C 193.41 54.62 187.67 48.82 180.98 44.18 C 184.81 44.56 180.56 41.56 180.03 39.95 C 180.75 38.30 182.02 36.75 181.39 34.84 Z" />
</g>
<g id="#90b0c9ff">
<path fill="#90b0c9" opacity="1.00" d=" M 203.19 52.98 C 207.86 57.63 211.48 63.55 215.09 69.09 C 210.20 70.73 213.40 75.61 212.37 79.26 C 207.84 73.03 204.45 66.03 199.08 60.42 C 200.67 58.07 201.83 55.46 203.19 52.98 Z" />
</g>
<g id="#f5f2f2ff">
<path fill="#f5f2f2" opacity="1.00" d=" M 233.89 71.16 C 238.89 75.49 244.09 66.65 250.00 66.80 L 250.00 85.88 C 246.44 86.93 242.69 88.53 238.99 87.10 C 237.34 82.75 235.63 78.42 233.71 74.19 C 233.75 73.43 233.85 71.91 233.89 71.16 Z" />
</g>
<g id="#7391d9ff">
<path fill="#7391d9" opacity="1.00" d=" M 215.09 69.09 C 218.36 73.51 221.90 79.43 223.38 85.20 C 218.19 87.44 220.30 93.55 219.70 98.25 C 217.56 91.80 214.88 85.56 212.37 79.26 C 213.40 75.61 210.20 70.73 215.09 69.09 Z" />
</g>
<g id="#cbc9caff">
<path fill="#cbc9ca" opacity="1.00" d=" M 90.08 85.01 C 110.55 82.71 135.68 84.56 157.95 84.06 L 158.03 85.00 C 135.38 85.01 112.73 84.98 90.08 85.01 Z" />
</g>
<g id="#fdfdfdff">
<path fill="#fdfdfd" opacity="1.00" d=" M 90.97 98.01 C 84.95 97.38 83.88 86.69 90.08 85.01 C 112.73 84.98 135.38 85.01 158.03 85.00 C 164.96 85.39 164.48 97.43 158.02 98.01 C 135.67 97.99 113.32 98.00 90.97 98.01 Z" />
<path fill="#fdfdfd" opacity="1.00" d=" M 90.98 121.01 C 84.49 120.47 83.97 109.78 90.08 108.01 C 113.03 107.99 135.99 107.99 158.94 108.01 C 165.01 109.86 164.54 120.47 158.01 121.01 C 135.67 121.00 113.32 121.00 90.98 121.01 Z" />
</g>
<g id="#5d7ce5ff">
<path fill="#5d7ce5" opacity="1.00" d=" M 223.38 85.20 C 227.86 94.21 229.58 104.90 230.99 114.98 C 231.02 121.66 230.98 128.34 231.02 135.01 C 229.53 147.72 226.59 161.43 220.04 172.17 C 213.34 173.56 217.10 165.90 216.46 161.87 C 224.51 141.65 224.76 119.24 219.70 98.25 C 220.30 93.55 218.19 87.44 223.38 85.20 Z" />
</g>
<g id="#e7e5e7ff">
<path fill="#e7e5e7" opacity="1.00" d=" M 238.99 87.10 C 242.69 88.53 246.44 86.93 250.00 85.88 L 250.00 250.00 L 183.97 250.00 C 187.13 247.39 183.40 241.64 188.07 240.82 C 191.34 235.17 181.90 234.38 178.03 236.06 C 176.23 236.88 174.33 236.87 172.63 235.79 C 207.01 220.45 233.58 188.83 242.18 152.10 C 243.48 151.05 243.39 149.28 242.78 147.88 C 244.73 138.84 245.35 129.52 244.71 120.30 C 244.65 117.42 244.89 114.54 244.34 111.71 C 244.16 110.51 243.99 109.31 243.82 108.11 C 244.39 106.70 244.45 104.98 243.22 103.88 C 241.84 98.28 240.68 92.62 238.99 87.10 Z" />
</g>
<g id="#888888ff">
<path fill="#888888" opacity="1.00" d=" M 90.97 98.01 C 113.32 98.00 135.67 97.99 158.02 98.01 C 137.56 100.30 113.05 98.41 91.04 98.96 L 90.97 98.01 Z" />
</g>
<g id="#80c2e5ff">
<path fill="#80c2e5" opacity="1.00" d=" M 21.18 99.75 C 20.84 108.35 24.63 105.21 28.25 102.08 C 26.22 111.68 25.22 121.36 25.76 131.22 C 24.47 124.93 27.72 115.17 19.19 113.91 C 18.91 115.24 18.37 117.90 18.10 119.23 C 18.38 112.72 17.96 105.67 21.18 99.75 Z" />
</g>
<g id="#bcbcbcff">
<path fill="#bcbcbc" opacity="1.00" d=" M 90.08 108.01 C 110.90 105.73 136.36 107.52 158.99 107.07 L 158.94 108.01 C 135.99 107.99 113.03 107.99 90.08 108.01 Z" />
</g>
<g id="#7e7a7bff">
<path fill="#7e7a7b" opacity="1.00" d=" M 244.34 111.71 C 244.89 114.54 244.65 117.42 244.71 120.30 C 244.07 117.48 244.33 114.57 244.34 111.71 Z" />
</g>
<g id="#b1def8ff">
<path fill="#b1def8" opacity="1.00" d=" M 19.19 113.91 C 27.72 115.17 24.47 124.93 25.76 131.22 C 25.84 132.50 25.93 133.78 26.02 135.06 C 23.81 136.64 21.26 136.28 18.76 135.91 L 18.26 135.86 C 18.05 134.58 17.95 133.29 17.97 132.00 C 18.02 127.74 18.01 123.48 18.10 119.23 C 18.37 117.90 18.91 115.24 19.19 113.91 Z" />
</g>
<g id="#2e3a73ff">
<path fill="#2e3a73" opacity="1.00" d=" M 230.99 114.98 C 232.76 119.16 232.72 130.83 231.02 135.01 C 230.98 128.34 231.02 121.66 230.99 114.98 Z" />
</g>
<g id="#4c626dff">
<path fill="#4c626d" opacity="1.00" d=" M 17.97 132.00 C 16.60 130.76 15.58 120.05 18.10 119.23 C 18.01 123.48 18.02 127.74 17.97 132.00 Z" />
</g>
<g id="#b0aab6ff">
<path fill="#b0aab6" opacity="1.00" d=" M 4.67 131.27 C 4.11 127.44 3.96 123.57 4.78 119.77 C 4.99 123.60 4.82 127.43 4.67 131.27 Z" />
</g>
<g id="#6d6b6cff">
<path fill="#6d6b6c" opacity="1.00" d=" M 90.98 121.01 C 113.32 121.00 135.67 121.00 158.01 121.01 C 137.56 123.30 113.05 121.41 91.04 121.96 L 90.98 121.01 Z" />
</g>
<g id="#a4a4a4ff">
<path fill="#a4a4a4" opacity="1.00" d=" M 90.08 131.01 C 110.55 128.71 135.68 130.56 157.95 130.06 L 158.03 131.00 C 135.38 131.01 112.73 130.98 90.08 131.01 Z" />
</g>
<g id="#c0c0c0ff">
<path fill="#c0c0c0" opacity="1.00" d=" M 90.97 144.01 C 84.95 143.38 83.88 132.69 90.08 131.01 C 112.73 130.98 135.38 131.01 158.03 131.00 C 164.90 131.46 164.94 143.56 158.01 144.01 C 135.67 144.00 113.32 144.00 90.97 144.01 Z" />
</g>
<g id="#e1eee0ff">
<path fill="#e1eee0" opacity="1.00" d=" M 18.76 135.91 C 21.26 136.28 23.81 136.64 26.02 135.06 C 27.80 147.08 30.94 158.97 36.34 169.89 C 35.61 172.81 30.70 170.06 29.93 174.25 C 24.17 164.13 20.34 152.51 18.95 140.80 C 18.99 139.16 18.96 137.53 18.76 135.91 Z" />
</g>
<g id="#88838aff">
<path fill="#88838a" opacity="1.00" d=" M 5.24 135.91 C 6.58 137.34 6.38 139.40 5.70 141.10 C 4.47 139.61 4.62 137.61 5.24 135.91 Z" />
</g>
<g id="#7a848dff">
<path fill="#7a848d" opacity="1.00" d=" M 18.26 135.86 L 18.76 135.91 C 18.96 137.53 18.99 139.16 18.95 140.80 C 17.15 140.41 17.52 137.18 18.26 135.86 Z" />
</g>
<g id="#615e5fff">
<path fill="#615e5f" opacity="1.00" d=" M 90.97 144.01 C 113.32 144.00 135.67 144.00 158.01 144.01 C 137.56 146.30 113.05 144.41 91.04 144.96 L 90.97 144.01 Z" />
</g>
<g id="#9a989aff">
<path fill="#9a989a" opacity="1.00" d=" M 242.18 152.10 C 241.60 150.69 241.53 148.96 242.78 147.88 C 243.39 149.28 243.48 151.05 242.18 152.10 Z" />
</g>
<g id="#969696ff">
<path fill="#969696" opacity="1.00" d=" M 90.22 153.16 C 112.45 152.85 134.70 152.96 156.93 153.08 C 164.20 154.01 165.69 166.04 158.01 167.01 C 136.00 167.02 113.99 166.95 91.97 167.02 C 84.80 167.41 83.94 155.77 90.22 153.16 Z" />
</g>
<g id="#7795d8ff">
<path fill="#7795d8" opacity="1.00" d=" M 216.46 161.87 C 217.10 165.90 213.34 173.56 220.04 172.17 C 216.56 178.78 213.68 186.61 207.73 191.43 C 206.02 188.78 205.99 185.52 205.11 182.57 C 209.51 176.02 213.23 169.05 216.46 161.87 Z" />
</g>
<g id="#5c5c5cff">
<path fill="#5c5c5c" opacity="1.00" d=" M 91.97 167.02 C 113.99 166.95 136.00 167.02 158.01 167.01 C 137.89 169.32 113.71 167.37 92.03 167.98 L 91.97 167.02 Z" />
</g>
<g id="#c6e5b2ff">
<path fill="#c6e5b2" opacity="1.00" d=" M 36.34 169.89 C 40.94 178.63 46.81 186.66 53.34 194.05 C 50.89 195.15 48.38 196.10 45.88 197.06 C 39.54 190.59 33.65 182.64 29.93 174.25 C 30.70 170.06 35.61 172.81 36.34 169.89 Z" />
</g>
<g id="#e3e1f1ff">
<path fill="#e3e1f1" opacity="1.00" d=" M 0.00 175.83 C 1.56 176.05 4.22 175.36 3.51 177.79 C 7.45 176.09 7.56 181.68 9.12 184.00 C 10.74 181.67 14.45 179.15 16.14 182.84 C 14.35 184.80 11.08 186.04 13.03 189.78 C 15.03 191.62 18.00 190.97 20.46 191.63 C 23.12 194.25 24.61 201.09 29.32 198.22 C 48.13 223.08 77.09 239.76 107.88 244.24 C 108.99 245.42 110.68 245.40 112.10 244.86 C 113.66 244.97 115.22 245.08 116.78 245.21 C 121.88 246.07 127.12 246.19 132.24 245.24 C 133.46 245.10 134.69 244.95 135.91 244.79 C 137.63 245.37 139.66 245.54 141.10 244.23 C 141.80 244.13 143.18 243.94 143.88 243.84 C 145.29 244.40 147.01 244.44 148.10 243.20 C 156.64 241.97 164.47 238.35 172.63 235.79 C 174.33 236.87 176.23 236.88 178.03 236.06 C 181.90 234.38 191.34 235.17 188.07 240.82 C 183.40 241.64 187.13 247.39 183.97 250.00 L 0.00 250.00 L 0.00 175.83 Z" />
</g>
<g id="#96b6c7ff">
<path fill="#96b6c7" opacity="1.00" d=" M 169.77 213.37 C 183.42 205.44 195.91 195.53 205.11 182.57 C 205.99 185.52 206.02 188.78 207.73 191.43 C 200.19 201.85 189.98 211.32 178.32 216.98 C 178.56 212.25 172.86 214.41 169.77 213.37 Z" />
</g>
<g id="#97b7c7ff">
<path fill="#97b7c7" opacity="1.00" d=" M 53.34 194.05 C 58.70 199.11 64.30 203.93 70.45 208.02 C 67.58 209.04 64.69 209.97 61.84 211.01 C 55.47 208.46 50.61 202.15 45.88 197.06 C 48.38 196.10 50.89 195.15 53.34 194.05 Z" />
</g>
<g id="#7796d6ff">
<path fill="#7796d6" opacity="1.00" d=" M 70.45 208.02 C 77.84 212.77 85.92 216.27 94.11 219.39 C 89.29 222.11 79.90 214.23 78.20 221.24 C 72.36 218.76 66.22 215.39 61.84 211.01 C 64.69 209.97 67.58 209.04 70.45 208.02 Z" />
<path fill="#7796d6" opacity="1.00" d=" M 145.63 222.15 C 153.88 219.77 161.87 216.69 169.77 213.37 C 172.86 214.41 178.56 212.25 178.32 216.98 C 173.25 220.85 167.06 223.80 160.81 225.20 C 159.25 218.52 150.65 223.99 145.63 222.15 Z" />
</g>
<g id="#6180e6ff">
<path fill="#6180e6" opacity="1.00" d=" M 78.20 221.24 C 79.90 214.23 89.29 222.11 94.11 219.39 C 100.20 221.22 106.43 222.65 112.78 223.25 C 120.54 223.98 128.56 224.88 136.29 223.37 C 139.38 222.80 142.47 222.05 145.63 222.15 C 150.65 223.99 159.25 218.52 160.81 225.20 C 154.76 228.34 144.89 230.80 137.01 231.02 C 128.67 230.97 120.33 231.00 111.99 231.00 C 100.50 230.68 87.51 226.25 78.20 221.24 Z" />
</g>
<g id="#384676ff">
<path fill="#384676" opacity="1.00" d=" M 112.78 223.25 C 120.61 222.95 128.45 222.94 136.29 223.37 C 128.56 224.88 120.54 223.98 112.78 223.25 Z" />
</g>
<g id="#5367afff">
<path fill="#5367af" opacity="1.00" d=" M 111.99 231.00 C 120.33 231.00 128.67 230.97 137.01 231.02 C 131.02 232.70 117.97 232.73 111.99 231.00 Z" />
</g>
<g id="#8c8b90ff">
<path fill="#8c8b90" opacity="1.00" d=" M 143.88 243.84 C 144.90 242.50 146.69 242.61 148.10 243.20 C 147.01 244.44 145.29 244.40 143.88 243.84 Z" />
</g>
<g id="#8e8d92ff">
<path fill="#8e8d92" opacity="1.00" d=" M 107.88 244.24 C 109.27 243.62 111.10 243.47 112.10 244.86 C 110.68 245.40 108.99 245.42 107.88 244.24 Z" />
</g>
<g id="#7d7c82ff">
<path fill="#7d7c82" opacity="1.00" d=" M 135.91 244.79 C 137.34 243.44 139.38 243.62 141.10 244.23 C 139.66 245.54 137.63 245.37 135.91 244.79 Z" />
</g>
<g id="#aaa7b0ff">
<path fill="#aaa7b0" opacity="1.00" d=" M 116.78 245.21 C 121.93 244.99 127.08 245.15 132.24 245.24 C 127.12 246.19 121.88 246.07 116.78 245.21 Z" />
</g>
</svg>
