<?xml version="1.0" encoding="utf-8"?>
<!-- Generator: Adobe Illustrator 26.0.3, SVG Export Plug-In . SVG Version: 6.00 Build 0)  -->
<svg version="1.1" id="Layer_1" xmlns="http://www.w3.org/2000/svg" xmlns:xlink="http://www.w3.org/1999/xlink" x="0px" y="0px"
	 viewBox="0 0 250 250" style="enable-background:new 0 0 250 250;" xml:space="preserve">
<style type="text/css">
	.st0{fill:#A8A49F;}
	.st1{fill:#C2BDB9;}
	.st2{fill:#3D4449;}
	.st3{fill:#383D42;}
	.st4{fill:#938D88;}
	.st5{fill:#CAC1B6;}
	.st6{fill:#434B50;}
	.st7{fill:#D5CEC4;}
	.st8{fill:#D8D7CC;}
	.st9{fill:#B6B1A8;}
	.st10{fill:#98928C;}
	.st11{fill:#8F8983;}
	.st12{fill:#9D988D;}
	.st13{fill:#D4CFC8;}
	.st14{fill:#3D403E;}
	.st15{fill:#31363C;}
	.st16{fill:#B2B2AF;}
	.st17{fill:#B4B0A4;}
	.st18{fill:#272C30;}
	.st19{fill:#D2CBC8;}
	.st20{fill:#958D87;}
	.st21{fill:#D2CFC8;}
	.st22{fill:#928982;}
	.st23{fill:#A19A96;}
	.st24{fill:#47494F;}
	.st25{fill:#D6C8B7;}
	.st26{fill:#BEB09B;}
	.st27{fill:#95928E;}
	.st28{fill:#9E9283;}
	.st29{fill:#AEA190;}
	.st30{fill:#BFAF9C;}
	.st31{fill:#CDBFA9;}
	.st32{fill:#DACFC2;}
	.st33{fill:#C0B4AA;}
	.st34{fill:#AC9F96;}
	.st35{fill:#9B9186;}
	.st36{fill:#4C4438;}
	.st37{fill:#A29A8A;}
	.st38{fill:#454037;}
	.st39{fill:#B5A896;}
	.st40{fill:#AA9E99;}
	.st41{fill:#A49B8B;}
	.st42{fill:#BDB1A7;}
	.st43{fill:#494132;}
	.st44{fill:#3D382F;}
	.st45{fill:#B8A998;}
	.st46{fill:#BCB4AA;}
	.st47{fill:#463F33;}
	.st48{fill:#39382E;}
	.st49{fill:#BDB09E;}
	.st50{fill:#3E3D37;}
	.st51{fill:#32353B;}
	.st52{fill:#33373D;}
	.st53{fill:#D6C8B6;}
	.st54{fill:#44433E;}
	.st55{fill:#483F3B;}
	.st56{fill:#3C3728;}
	.st57{fill:#3F392F;}
	.st58{fill:#CAC6BB;}
	.st59{fill:#C7C2BA;}
	.st60{fill:#AFA7A0;}
	.st61{fill:#242B31;}
</style>
<g id="_x23_a8a49fff">
	<path class="st0" d="M97.1,24c6.8-2,13.7-3.3,20.8-3.5c-0.2,1.1-0.4,2.2-0.5,3.3c5-0.2,10,0,14.9,1c-19.5-0.6-39.4,3.2-56.4,13
		c-6.6,3.5-12.3,8.2-18,13c-0.5,0-1.4,0-1.8,0c4.1-4.9,8.9-9.1,13.2-13.9C77.3,30.7,87.3,27,97.1,24z"/>
</g>
<g id="_x23_c2bdb9ff">
	<path class="st1" d="M117.8,20.6c15.5-0.7,31.2,1,45.6,6.9c13.7,5.4,26.4,13.6,36.5,24.3c-1.1,1.1-2.2,2.2-3.3,3.3
		c-0.4-0.4-1.2-1.2-1.7-1.6c-10.5-10.2-23.1-18.1-36.9-23c-8.3-3.1-17.1-4.3-25.8-5.6c-4.9-1-9.9-1.3-14.9-1
		C117.5,22.7,117.7,21.6,117.8,20.6z"/>
</g>
<g id="_x23_3d4449ff">
	<path class="st2" d="M75.8,37.8c17.1-9.7,36.9-13.6,56.4-13c8.7,1.3,17.5,2.4,25.8,5.6c-2.8,2-5.5,4.2-7.8,6.7c-3.6,3.8-8,7-10,12
		c-0.6,0-1.3,0-1.9,0c-1.5,0-2.9,0-4.4,0c-0.2,5.6-0.2,11.2-0.2,16.9c0,2.6,0.2,5.1,0.3,7.7c1.5-0.1,3-0.2,4.6-0.3
		c2.8-5.9,0.5-12.5,1.9-18.7c0.3,2.6,0.5,5.3,1.1,7.9c0.5-4.5,0.3-9,0.4-13.4l0.9,0c-0.2,6.1-0.1,12.2,0.1,18.2
		c0,2.2,0.1,4.3,0.1,6.5c1.1-0.1,2.3-0.2,3.5-0.3c0.4-1.2,0.8-2.5,1.3-3.7c0,0.7,0,2.1,0,2.7c2.5-1.5,5-3,7.4-4.5
		c3.1,2.9,0.9,7,1.2,10.5c0.7,1.8,2,3.2,3.1,4.6c-1.4,0-2.8-0.1-4.1-0.1c0.2,4.3,0.2,8.7-1.1,12.8c-2.3-4-3.4-8.5-5.8-12.5
		c-1.4-2.7-6.3-1.4-6,1.8c-0.5,7.1,0,14.3-0.1,21.4c1.4,0,2.8,0,4.2,0c0-4-0.1-8,0.4-12c0.4,0.1,1.3,0.3,1.7,0.4
		c2.3,3.7,2.6,8.4,5.7,11.6c1.8,0,3.6-0.2,5.3-0.5c0,1.5-0.1,3.1-0.1,4.6c1-0.4,1.9-0.9,2.9-1.3c-1.3,7.4-12,6.7-13.8,13.8
		c-0.4,3.7,0.5,8-2.2,11.1c-6.5,8.1-13.8,15.6-20,23.9c-5.4-2.8-8.4-8.4-12.3-12.8c0-0.4,0.1-1.3,0.1-1.7c1.3,0.7,2.6,1.4,3.8,2.3
		c1,1.1,1.9,2.3,2.8,3.4c1.5,2,3.1,3.9,4.8,5.7c3.3-4.2,7.2-8,10.4-12.3c1.3-1.3,0.3-3.2-0.3-4.6c-1.4-3.3-3-6.5-3.9-10
		c1.7-0.8,3.5-1.6,5.2-2.2c1.6-0.5,3.3-0.9,4.9-1.3c-1.3-1.8-2.5-3.6-3.8-5.3c-5.5-2.2-11.5-0.6-17.3-1c-0.6-0.8-1.2-1.5-1.7-2.3
		c3-0.2,5.9-0.4,8.9-0.6c-0.7-3.2-2.1-6.3-2.7-9.6c2-1.8,3.2-4.2,3.4-6.8c1.3-2,2.8-3.7,4.4-5.5c0.1,4.1,0.2,8.2,0.2,12.2
		c1.4,0,2.8,0,4.3,0c0-8.2,0.1-16.3,0-24.4c-1.4-0.2-2.8-0.4-4.2-0.6c-3.3-2.5-6.9-4.6-10.3-7c-1.8-1.4-4.2-1.3-6.3-1.6
		c1.7-2.3,3.7-4.3,6.2-5.8c1,2.3,1.7,4.7,2.5,7c1.1,0.1,2.2,0.1,3.4,0.2c0.6-8.3,0.4-16.5,0.1-24.8c-1.4,0-2.8-0.1-4.1-0.1
		c-0.1,3.4-0.1,6.8-0.2,10.2c-2.8,0-5.6,0.1-8.4,0.1c-0.1-3.3-0.3-6.7-0.5-10c-1.3,0-2.6,0-3.9,0c-0.3,8.1-0.2,16.2-0.2,24.2
		c1.4,0,2.8,0,4.2,0.1l-0.1,1.2c-2.7,0-4.8-1.4-6.5-3.4c-0.4,0-0.9-0.1-1.4-0.1c-0.2-7.3,0.3-14.6-0.3-21.8l-0.9,0
		c-1.3,0-2.6-0.1-3.9-0.1c-0.2,3.4-0.3,6.9-0.4,10.3c-2.8,0-5.6,0.1-8.4,0.2c-0.2-3.3-0.3-6.6-0.4-9.9c-1.2,0-2.5,0-3.7,0
		c-0.4,7.5-0.4,14.9-0.3,22.4c0.1,0.4,0.4,1.2,0.5,1.6c1.2,0.5,2.4,0.7,3.6,0.7l0,1.2c-2.2-0.6-4.4-1.2-6.2-2.6
		c-1.2,0.4-2.4,0.9-3.6,1.3c0.6-2.4,1.1-4.7,1.5-7.1c-4.4,1.3-8.3,4.6-13.2,4c0-2.5-0.1-4.9-0.1-7.4c0-2.9,0.1-5.7,0.2-8.6
		c4.9-1.2,8.9,2.7,13.7,2c-0.9-2.4-1-6.2-4.2-6.5c-3.7-0.4-7.6-0.2-11,1.3c-2.3,1-2.5,3.8-2.6,6c-0.2,5.1-0.3,10.2,0.4,15.2
		c0.3,2.1,2.6,2,4.2,2.2c2.8,0.2,5.6,0.1,8.4,0c-2.5,1.4-4.8,2.9-7.3,4.3c-1.5-1-3-1.9-4.5-2.9c-6.1,7.1-4.9,17.3-6.9,25.9
		c1.9,2.5,3.5,5.2,4.8,7.9c4.1,1.6,7.4,4.5,11,6.9c5.9,1.7,13.1-1.7,18.1,3c-3.3,0.1-6.6,0.1-9.8,0.1c-6.8,0-13.5,0.1-20.3,0
		c-5.8,0-11.6,0.1-17.3,0.1c-5.8,0-11.6-0.1-17.3,0c4.8-0.9,9.7-0.9,14.6-1.2c-3.4-1-6.8-1.6-10.3-1.8c-0.4-2.4-0.6-4.8-0.8-7.2
		c1.6,0,3.3,0.1,4.9,0.1c-0.2-1.4-0.4-2.9-0.5-4.3c-3.1-1-7.2-1.8-8.4-5.2c0.3-1.9,1.5-3.4,2.4-5c-0.7-0.1-1.4-0.2-2.1-0.4
		c-0.9,1.1-1.7,2.3-2.5,3.5c4.4-18.6,15.3-35,29-48.1C63.5,46.1,69.2,41.3,75.8,37.8z"/>
</g>
<g id="_x23_383d42ff">
	<path class="st3" d="M150.2,37.2c2.4-2.5,5-4.8,7.8-6.7c13.8,4.9,26.4,12.8,36.9,23c-4.2,2.7-7.9,6.3-10.1,10.8
		c-0.8,0.3-1.6,0.5-2.4,0.8c0,2.6,0,5.2-0.1,7.9c1.3-0.6,2.7-1.2,4-1.8c1.9,1.8,2,4.3,1.5,6.8c1.8,1.9,4.1,3.7,4.9,6.3
		c0.9,5.7-0.8,11.3-2.2,16.7c-0.8,2.6-0.3,5.4-1,8.1c-1.1,1.9-2.8,3.3-4.2,4.9c2.2,1,4.3,2,6.5,3c-7.3,1.7-14.7,1.9-22.1,2.8
		c6.6,0.7,13.2-0.3,19.8,0.7l0.8,0.1c-3.5,0.3-6.9,0.4-10.4,0.4c-7,0-14-0.2-21-0.1c-3.6-0.1-7,1.5-10.3,2.7
		c1.8-7.1,12.5-6.3,13.8-13.8c-1,0.4-1.9,0.9-2.9,1.3c0.1-1.5,0.1-3.1,0.1-4.6c-0.1-7.7,0.1-15.4-0.2-23c-1.1-1.5-2.4-2.9-3.1-4.6
		c-0.3-3.6,1.9-7.6-1.2-10.5c-2.4,1.5-4.9,3.1-7.4,4.5c0-0.7,0-2.1,0-2.7c0.9-5.7,7.5-5.2,11.4-7.6c1.6-4.2,2-10.8-3.1-12.6
		c-4.4-0.3-8.8-0.6-13.3-0.6l-0.9,0c-0.1,4.5,0.1,9-0.4,13.4c-0.6-2.6-0.8-5.2-1.1-7.9c-1.4,6.2,0.9,12.8-1.9,18.7
		c-0.3-4.6-0.4-9.1-0.4-13.7c0.1-3.5,0.1-7,0.1-10.5c0.6,0,1.3,0,1.9,0C142.2,44.2,146.6,41,150.2,37.2 M164.2,55
		c-0.2,3.1-0.7,7.4,2.5,9.2c3.4,1,7,1.1,10.5,1.8c-0.6,2.2-1.6,4.9-4.3,4.9c-2.7,0.8-4.5-1.4-6-3.2c-0.7,0.1-2.1,0.3-2.8,0.4
		c0.2,1.4,0.3,2.8,0.7,4.2c1.7,3.2,5.8,2.9,8.9,3.2c2.6,0.2,6.4,0.5,7.3-2.7c0.8-3.7,1.2-9.1-2.9-11c-3.4-0.9-6.9-1.1-10.3-1.8
		c0.8-1.3,1.2-2.8,2.4-3.8c1.5-1.1,3.5-0.8,5.3-1.1c1.6,2.2,3.6,4.2,6.4,3.1c-0.7-2.4-1.1-5.4-3.6-6.5c-3.2-1-6.6-1.2-9.9-1.2
		C166,50.4,164.1,52.7,164.2,55z"/>
	<path class="st3" d="M31.4,95.5c0.7,0.1,1.4,0.2,2.1,0.4c-0.9,1.6-2.1,3.2-2.4,5c1.3,3.5,5.3,4.2,8.4,5.2c0.2,1.4,0.4,2.9,0.5,4.3
		c-1.6,0-3.3-0.1-4.9-0.1c0.1,2.4,0.4,4.8,0.8,7.2c3.5,0.2,7,0.8,10.3,1.8c-4.9,0.2-9.8,0.3-14.6,1.2c-0.5,0.1-1.5,0.2-2,0.3
		c3.2,3.9,6.7,7.8,11.2,10.4c1,0.6,2,1.2,3.1,1.7c-0.1,0.6-0.3,1.1-0.4,1.7c2.9,3.3,6.4,6,9.9,8.5c0.3,0.3,1,0.9,1.3,1.1
		c3,4.2,6.6,8.4,11.8,9.9c0.3,1.1,0.6,2.2,1,3.2c4.6,3.8,8.7,10,15.4,9.7c6.4,0.2,12.8-0.1,19.2-0.2c1.9,0.5,3.6,1.7,4.7,3.3
		c0,3.9-3.9,6.4-6.2,9.1c-0.1-0.7-0.5-2.1-0.6-2.8c-2.1,2.7-4.4,5.4-7.4,7.1c1.4,0.7,2.9,1.4,4.3,2.1c-5.3,1.2-10.7,2.2-16.2,1.9
		c-0.2-3.2-0.4-6.5-0.8-9.7c-3,2.5-5.7,5.6-9.5,7c-1.8-3.2-3.5-6.7-6.6-8.9c-2.1-1.5-4.3-4.2-7.2-3.3c-1.9,0.1-4.6,1.8-5.5-0.8
		c-1.6-3.2-3.3-6.6-6.8-8.1c-2.8,2.5-5.3,5.3-6.7,8.8c-12.3-22.2-15.8-49.4-8.8-73.9C29.6,97.8,30.5,96.6,31.4,95.5z"/>
</g>
<g id="_x23_938d88ff">
	<path class="st4" d="M64.4,39.4c1.5-1,3.1-1.7,4.8-2.4c-4.3,4.7-9,9-13.2,13.9c0.5,0,1.4,0,1.8,0c-13.7,13.1-24.6,29.5-29,48.1
		c-7.1,24.5-3.5,51.6,8.8,73.9c7.6,13.5,18.2,25.4,31.1,34.1c1.8,1.2,3.6,2.5,5.5,3.7c-1.1,1.1-2.3,2.2-3.4,3.3
		c-9.7-5-17.5-12.9-24.9-20.8c-9-10.7-16.1-23.1-20.5-36.3c-5.7-18.9-6.5-39.5-1.4-58.7C30.1,74.7,44.7,53.5,64.4,39.4z"/>
</g>
<g id="_x23_cac1b6ff">
	<path class="st5" d="M102.9,49.2c1.3,0,2.6,0,3.9,0.1c-0.1,8.2,0.7,16.4,0,24.6c-1.2,0-2.3-0.1-3.4-0.1c-0.9-2.6-1.5-5.6-3.5-7.6
		c-1.6-1.3-3.7-1.7-5.6-2.4c-0.2,3.6-0.4,7.2-0.4,10.8c-1.3,0-2.5-0.3-3.6-0.7c-0.1-0.4-0.4-1.2-0.5-1.6c-0.1-7.5-0.1-14.9,0.3-22.4
		c1.2,0,2.5,0,3.7,0c0.1,3.3,0.2,6.6,0.4,9.9c2.8-0.1,5.6-0.2,8.4-0.2C102.6,56.1,102.7,52.6,102.9,49.2z"/>
</g>
<g id="_x23_434b50ff">
	<path class="st6" d="M106.8,49.3l0.9,0c0.6,7.3,0.1,14.5,0.3,21.8c0.5,0,0.9,0.1,1.4,0.1c1.7,2,3.8,3.4,6.5,3.4l0.1-1.2
		c0.2-3.4,0.1-6.8,0.2-10.1c2.5,0.4,5,1.3,6.8,3.2c-2.4,1.5-4.5,3.5-6.2,5.8c2.1,0.3,4.5,0.1,6.3,1.6c3.4,2.4,7,4.5,10.3,7
		c-0.2,4.3-0.2,8.5-0.3,12.8c-1.6,1.7-3.1,3.5-4.4,5.5c0-5.1-0.2-10.2-0.3-15.3c-3.8-3.5-9.3-2.9-14-2.1c-3.9,1.3-3.1,6.1-3.2,9.2
		c0.4,4.9-1.3,10.7,2.5,14.6c3.9,0.4,7.8,0.3,11.7,0.4c0.6,3.3,2,6.3,2.7,9.6c-3,0.2-6,0.4-8.9,0.6c0.6,0.8,1.2,1.5,1.7,2.3
		c-1.1,0-2.3-0.1-3.4-0.1c0.1,0.3,0.3,1,0.5,1.3c1.7,3.6,0.2,7.5-1.1,11c-2,4.1-3.1,8.6-2.7,13.2c0,0.4-0.1,1.3-0.1,1.7
		c-3.3-3.6-6.8-7-9.7-11c-2.2-2.9-2.2-6.8-2.7-10.2c-1.8-1.2-3.5-2.5-5.3-3.8c-5-4.7-12.2-1.3-18.1-3c-3.6-2.4-6.9-5.3-11-6.9
		c-1.3-2.8-2.9-5.5-4.8-7.9c2-8.6,0.8-18.8,6.9-25.9c1.5,1,3,2,4.5,2.9c2.4-1.4,4.8-3,7.3-4.3c0.9-0.3,1.8-0.7,2.8-1
		c1.2-0.4,2.4-0.9,3.6-1.3c1.8,1.5,4,2.1,6.2,2.6l0-1.2c0-3.6,0.2-7.2,0.4-10.8c1.9,0.7,4,1.1,5.6,2.4c2,2.1,2.6,5,3.5,7.6
		c1.1,0,2.3,0.1,3.4,0.1C107.5,65.7,106.7,57.5,106.8,49.3 M90.3,86.2c-0.8,6.3-1.2,12.9,0.3,19.1c2.8,3.2,7.7,1.5,11.3,1.3
		c3.8,0,5.9-4.2,5.2-7.7c-1.9,0.3-3.8,0.5-5.1,2c-2,2.2-5.1,1.6-7.7,1.8c-0.1-5.3,0-10.6,0-15.8c1.9-0.2,3.8-0.5,5.6-0.3
		c2.3,1.2,4.5,2.7,7.2,2.5c0.4-2.9-0.7-7-4.3-6.8C98.7,82.4,92.1,81,90.3,86.2z"/>
</g>
<g id="_x23_d5cec4ff">
	<path class="st7" d="M111.9,49.2c1.3,0,2.6,0,3.9,0c0.2,3.3,0.3,6.6,0.5,10c2.8,0,5.6,0,8.4-0.1c0-3.4,0.1-6.8,0.2-10.2
		c1.4,0,2.7,0.1,4.1,0.1c0.3,8.3,0.5,16.6-0.1,24.8c-1.1-0.1-2.3-0.1-3.4-0.2c-0.8-2.4-1.5-4.8-2.5-7c-1.8-1.9-4.2-2.8-6.8-3.2
		c-0.1,3.4,0,6.8-0.2,10.1c-1.4,0-2.8,0-4.2-0.1C111.7,65.3,111.6,57.2,111.9,49.2z"/>
</g>
<g id="_x23_d8d7ccff">
	<path class="st8" d="M133.9,49.2c1.5,0,2.9,0,4.4,0c0,3.5,0.1,7-0.1,10.5c-0.6,2.7-1.2,5.4-1.8,8.1c-0.9-0.6-1.8-1.2-2.7-1.8
		C133.6,60.4,133.7,54.8,133.9,49.2z"/>
</g>
<g id="_x23_b6b1a8ff">
	<path class="st9" d="M142.9,49.2c4.4,0,8.9,0.3,13.3,0.6c0.1,0.6,0.3,1.9,0.4,2.5c-3.1,0.5-6.2,0.8-9.2,1.3l-0.3,0.7
		c0.1,1.6,0.4,3.2,0.6,4.8c0.2,1.8,1,3.8-0.3,5.4c-1.2,1.4-2.9,2.1-4.4,3C142.8,61.3,142.7,55.2,142.9,49.2z"/>
</g>
<g id="_x23_98928cff">
	<path class="st10" d="M156.2,49.7c5.2,1.8,4.8,8.4,3.1,12.6c-3.9,2.4-10.5,1.9-11.4,7.6c-0.4,1.2-0.9,2.5-1.3,3.7
		c-1.2,0.1-2.3,0.2-3.5,0.3c0-2.2-0.1-4.3-0.1-6.5c1.5-0.9,3.3-1.7,4.4-3c1.2-1.6,0.4-3.6,0.3-5.4c2.7,0.4,5.4,0.7,8.1,0.9
		c0-2,0.1-3.9,0.1-5.9c-2.9-0.1-5.9,0-8.8,0.1l0.3-0.7c3.1-0.5,6.2-0.8,9.2-1.3C156.5,51.6,156.3,50.3,156.2,49.7z"/>
</g>
<g id="_x23_8f8983ff">
	<path class="st11" d="M164.2,55c-0.1-2.3,1.8-4.6,4.2-4.5c3.3,0,6.7,0.2,9.9,1.2c2.5,1.1,3,4.1,3.6,6.5c-2.9,1.1-4.9-0.9-6.4-3.1
		c-1.8,0.2-3.8,0-5.3,1.1c-1.1,1-1.6,2.5-2.4,3.8c3.4,0.7,6.9,0.9,10.3,1.8c4.1,1.8,3.7,7.3,2.9,11c-0.9,3.3-4.7,2.9-7.3,2.7
		c-3.1-0.3-7.2-0.1-8.9-3.2c-0.4-1.4-0.5-2.8-0.7-4.2c0.7-0.1,2.1-0.3,2.8-0.4c1.5,1.8,3.3,4.1,6,3.2c2.7,0,3.8-2.7,4.3-4.9
		c-3.5-0.7-7.1-0.7-10.5-1.8C163.5,62.4,164.1,58.1,164.2,55z"/>
</g>
<g id="_x23_9d988dff">
	<path class="st12" d="M70.9,52c3.4-1.5,7.3-1.7,11-1.3c3.2,0.3,3.3,4.2,4.2,6.5c-4.8,0.7-8.8-3.1-13.7-2c-0.1,2.9-0.2,5.7-0.2,8.6
		c-0.7,0.2-2.1,0.5-2.8,0.7c-0.3,2.9-0.6,5.8-0.8,8.7c-0.8-5-0.6-10.2-0.4-15.2C68.4,55.8,68.6,53,70.9,52z"/>
</g>
<g id="_x23_d4cfc8ff">
	<path class="st13" d="M196.6,55.1c1.1-1.1,2.2-2.2,3.3-3.3c17.6,17.8,28.4,42.2,29.6,67.1c1.2,23.9-5.7,48.3-20.1,67.5
		c-14.2,19.4-35.2,33.7-58.6,39.4c-4.2,1-8.4,1.9-12.8,2c-1.7,0-3.4-0.1-5.1-0.2c1.4-1.2,2.7-2.5,4.1-3.8
		c21.9-2.5,42.8-12.8,58.4-28.4c14.2-14.2,24.2-32.7,27.7-52.5c4-21.5,0.8-44.2-9.2-63.7C209.5,70.4,203.6,62.2,196.6,55.1z"/>
</g>
<g id="_x23_3d403eff">
	<path class="st14" d="M147.1,54.2c2.9-0.2,5.9-0.2,8.8-0.1c0,2-0.1,3.9-0.1,5.9c-2.7-0.3-5.4-0.5-8.1-0.9
		C147.4,57.4,147.2,55.8,147.1,54.2z"/>
</g>
<g id="_x23_31363cff">
	<path class="st15" d="M184.9,64.2c2.2-4.5,5.9-8.1,10.1-10.8c0.4,0.4,1.2,1.2,1.7,1.6c7,7.1,12.8,15.4,17.4,24.3
		c-2.8,2-6.9,4.4-5.8,8.5c1.4,7.4,2.6,15,1.5,22.6c-1.2,0.7-2.4,1.4-3.6,2.2c-0.9,2.5-1.5,6-4.6,6.8c-3.9,0.8-8,0.5-12,0.8
		c-6.6-0.9-13.2,0-19.8-0.7c7.4-0.8,14.8-1,22.1-2.8c-2.2-1-4.3-2-6.5-3c1.5-1.6,3.1-3,4.2-4.9c0.7-2.6,0.3-5.4,1-8.1
		c1.4-5.4,3.2-11.1,2.2-16.7c-0.8-2.6-3.2-4.3-4.9-6.3c0.4-2.4,0.4-5-1.5-6.8c-1.3,0.6-2.7,1.2-4,1.8c0-2.6,0-5.2,0.1-7.9
		C183.3,64.8,184.1,64.5,184.9,64.2z"/>
</g>
<g id="_x23_b2b2afff">
	<path class="st16" d="M136.4,67.8c0.6-2.7,1.2-5.4,1.8-8.1c0,4.6,0.1,9.1,0.4,13.7c-1.5,0.1-3,0.2-4.6,0.3
		c-0.2-2.6-0.3-5.2-0.3-7.7C134.6,66.6,135.5,67.2,136.4,67.8z"/>
</g>
<g id="_x23_b4b0a4ff">
	<path class="st17" d="M69.5,64.6c0.7-0.2,2.1-0.5,2.8-0.7c0,2.5,0.1,4.9,0.1,7.4c4.9,0.6,8.7-2.7,13.2-4c-0.4,2.4-0.9,4.8-1.5,7.1
		c-0.9,0.3-1.8,0.7-2.8,1c-2.8,0.1-5.6,0.2-8.4,0c-1.6-0.2-3.9-0.1-4.2-2.2C68.9,70.3,69.2,67.4,69.5,64.6z"/>
</g>
<g id="_x23_272c30ff">
	<path class="st18" d="M208.2,87.8c-1.1-4.1,3-6.5,5.8-8.5c10,19.5,13.2,42.2,9.2,63.7c-3.6,19.8-13.5,38.3-27.7,52.5
		c-15.6,15.6-36.4,25.9-58.4,28.4c-21.7,2.3-44.2-2-62.9-13.3c-1.9-1.2-3.7-2.4-5.5-3.7c1.7-1.7,3.2-3.8,5.5-4.8
		c4.3,0.1,8.4,1.9,12.7,2c4.2,0.1,8.4,0.8,12.6,0.3c1.9-0.9,3.4-2.5,4.9-3.8c0.6,0.8,1.2,1.7,1.7,2.5c0.2-0.2,0.6-0.7,0.7-0.9
		c1.1-1.2,2.2-2.3,3.4-3.3c0.9-0.7,1.7-1.5,2.6-2.2c4.2,4.4,7.7,9.4,12.2,13.5c1.9-0.6,3-2.4,4.3-3.8c3.1-3.9,6.6-7.6,9.8-11.4
		c0.2,1.3,0.5,2.6,0.8,4c0.2,0.2,0.5,0.5,0.7,0.6c1,0.5,2,1,3.1,1.4c0.9-2.3,1-5.6,3.7-6.5c2.2-0.4,4.4,0.6,6.6,1.2
		c-0.4-1.7-0.7-3.4-1.1-5.1c4.4-5.8,12.2-7.5,16-13.7c2.9-3.7,6.7-6.8,11.1-8.5c0.4-2.3,0.1-4.6-0.9-6.8c1.8-1.7,3.3-3.6,4.5-5.7
		c1.1-0.6,2.2-1.3,3.2-2c2.6-2.1,5.1-4.3,7.6-6.6c0.9-1.3,1.6-2.7,2.4-4c4.5-2.4,8.2-5.9,11.5-9.7c-1.4-0.1-2.9-0.1-4.3-0.2
		c2.1-0.6,4.2-1.3,6.3-2.1c4.5-2.4,7.9-6.4,11.1-10.2c-6.5-0.5-12.9-0.3-19.4-0.3c-3.3,0-6.7,0-10-0.2c-0.4,0-1.1-0.1-1.4-0.1
		l-0.8-0.1c4-0.3,8,0,12-0.8c3.1-0.8,3.7-4.2,4.6-6.8c1.2-0.7,2.4-1.5,3.6-2.2C210.8,102.8,209.6,95.3,208.2,87.8z"/>
</g>
<g id="_x23_d2cbc8ff">
	<path class="st19" d="M114.5,81.7c4.7-0.7,10.2-1.4,14,2.1c-1.4,2.1-2.9,4.1-4.3,6.1c-2.2-2.5-5.1-4.1-8.3-4.5
		c-0.5,4.6-0.4,9.4,1.1,13.8c-1,2.1-2.1,4.2-3.2,6.2c-3.7-3.9-2.1-9.8-2.5-14.6C111.4,87.8,110.6,83,114.5,81.7z"/>
</g>
<g id="_x23_958d87ff">
	<path class="st20" d="M133.4,80.9c1.4,0.2,2.8,0.4,4.2,0.6c0.1,8.1,0,16.3,0,24.4c-1.4,0-2.9,0-4.3,0c-0.1-4.1-0.2-8.2-0.2-12.2
		C133.2,89.4,133.2,85.2,133.4,80.9z"/>
</g>
<g id="_x23_d2cfc8ff">
	<path class="st21" d="M90.3,86.2c1.7-5.2,8.3-3.8,12.6-3.9c3.6-0.1,4.7,3.9,4.3,6.8c-2.7,0.2-4.9-1.3-7.2-2.5
		c-1.9-0.2-3.8,0.1-5.6,0.3c0,5.3-0.1,10.6,0,15.8c2.6-0.2,5.7,0.3,7.7-1.8c1.3-1.5,3.3-1.7,5.1-2c0.8,3.4-1.3,7.6-5.2,7.7
		c-3.7,0.1-8.5,1.9-11.3-1.3C89.1,99.1,89.5,92.5,90.3,86.2z"/>
</g>
<g id="_x23_928982ff">
	<path class="st22" d="M142.5,85.3c-0.3-3.2,4.6-4.5,6-1.8c2.4,4,3.5,8.5,5.8,12.5c1.2-4.2,1.2-8.5,1.1-12.8c1.4,0,2.8,0.1,4.1,0.1
		c0.3,7.7,0.1,15.4,0.2,23c-1.8,0.2-3.5,0.5-5.3,0.5c-3.1-3.2-3.4-8-5.7-11.6c-0.4-0.1-1.3-0.3-1.7-0.4c-0.5,4-0.4,8-0.4,12
		c-1.4,0-2.8,0-4.2,0C142.5,99.6,142,92.4,142.5,85.3z"/>
</g>
<g id="_x23_a19a96ff">
	<path class="st23" d="M128.5,83.9c0.1,5.1,0.3,10.2,0.3,15.3c-0.2,2.7-1.4,5-3.4,6.8c-3.9-0.1-7.8,0.1-11.7-0.4
		c1.1-2.1,2.2-4.1,3.2-6.2c2.4,0.9,4.8,1.8,7.2,2.7c0.4-4,0.3-8.1,0.1-12.1C125.7,88,127.1,85.9,128.5,83.9z"/>
</g>
<g id="_x23_47494fff">
	<path class="st24" d="M115.8,85.5c3.3,0.4,6.2,2.1,8.3,4.5c0.3,4,0.3,8-0.1,12.1c-2.4-0.9-4.8-1.8-7.2-2.7
		C115.4,94.9,115.4,90.1,115.8,85.5z"/>
</g>
<g id="_x23_d6c8b7ff">
	<path class="st25" d="M117.5,118.3c1.1,0.1,2.2,0.1,3.4,0.1c5.7,0.4,11.8-1.2,17.3,1c-0.4,2.2-0.8,4.4-1.1,6.6
		c-1.8,0.7-3.5,1.5-5.2,2.2c0.9,3.5,2.5,6.7,3.9,10c0.5,1.4,1.5,3.3,0.3,4.6c-3.2,4.3-7.1,8-10.4,12.3c-1.7-1.8-3.3-3.7-4.8-5.7
		c1.3-3,2.4-6.1,2.4-9.4c0.1-6.9,0.2-13.8-0.5-20.7c-1.6,0.1-3.1,0.2-4.7,0.3C117.9,119.3,117.6,118.7,117.5,118.3z"/>
</g>
<g id="_x23_beb09bff">
	<path class="st26" d="M118,119.7c1.6-0.1,3.1-0.2,4.7-0.3c0.8,6.9,0.6,13.8,0.5,20.7c0,3.3-1.1,6.4-2.4,9.4
		c-0.9-1.2-1.8-2.3-2.8-3.4c0.4-5.2,0.4-10.4-1.1-15.4C118.2,127.2,119.7,123.3,118,119.7z"/>
</g>
<g id="_x23_95928eff">
	<path class="st27" d="M138.2,119.5c1.3,1.7,2.6,3.5,3.8,5.3c-1.7,0.4-3.3,0.9-4.9,1.3C137.4,123.9,137.8,121.7,138.2,119.5z"/>
</g>
<g id="_x23_9e9283ff">
	<path class="st28" d="M29.7,120.9c0.5-0.1,1.5-0.2,2-0.3c5.8-0.1,11.6,0.1,17.3,0c0.7,0.9,1.5,1.8,2.2,2.7
		c-1.1,3.3-3.2,6.2-6.2,8.1c-1.4,0-2.7-0.1-4.1-0.1C36.4,128.8,32.9,124.8,29.7,120.9z"/>
</g>
<g id="_x23_aea190ff">
	<path class="st29" d="M49,120.7c5.8,0,11.5,0,17.3-0.1c0.6,1.9,1.3,3.8,1.2,5.8c0,2.2-2.1,3.5-3.5,5c-6.4-0.1-12.8-0.1-19.1,0
		c3-1.9,5.1-4.8,6.2-8.1C50.5,122.5,49.7,121.6,49,120.7z"/>
</g>
<g id="_x23_bfaf9cff">
	<path class="st30" d="M66.3,120.6c6.8,0.1,13.5,0,20.3,0c-0.6,2.4-0.6,4.8-0.4,7.3c-2.8,1.1-5.7,2.3-8.5,3.4
		c-4.6,0.2-9.1,0.1-13.7,0.1c1.3-1.5,3.4-2.8,3.5-5C67.6,124.4,66.9,122.5,66.3,120.6z"/>
</g>
<g id="_x23_cdbfa9ff">
	<path class="st31" d="M86.6,120.6c3.3,0,6.6,0,9.8-0.1c1.7,1.3,3.5,2.5,5.3,3.8c0.5,3.5,0.5,7.3,2.7,10.2c2.8,4,6.4,7.3,9.7,11
		c3.9,4.4,6.9,10,12.3,12.8c1.1,0.6,2.3,1.1,3.4,1.8c-4.1-0.4-9.5-1.5-12,2.7c-2,2.4,1.7,3.8,3.6,4.2c-0.8,0.7-1.6,1.4-2.4,2.1
		c-1.1-1-2.3-1.9-3.5-2.9c0.1,2.7-1,5.9,1.2,8c1,1.1,2,2.2,3,3.3l0.2,0.7c-1.2,0-2.4,0.1-3.5,0.1c-2.6,3.6-5.4,7.1-8.3,10.5
		c-0.9-0.2-1.9-0.3-2.8-0.5c-1.9-2.8-4-5.6-4.6-8.9c2.3-2.7,6.2-5.2,6.2-9.1c-1.1-1.6-2.8-2.8-4.7-3.3c-7.2-1.8-14.8-0.7-22.1-1.2
		c1.3-1,2.6-2,3.9-3.1c-0.4-1.2-1.5-2.6-0.8-3.9c0.8-2,3.3-2.3,5-3c6.3,0,13.2-1.2,18.5,3c0.3-0.4,1-1.3,1.3-1.8
		c-0.1-0.6-0.4-1.9-0.5-2.5c-3.7-0.2-7.5-0.5-11.2-0.7c-5.6-0.5-11.3-0.9-16.8-2.1c-0.3-2.2-0.7-4.3-1.1-6.4c4.8,0.1,9.6-0.3,14.4,0
		c1.7,0.6,3.3,1.4,5,1.7c0.2-1.3,0.4-2.6,0.5-3.9c-0.5-0.1-1.6-0.2-2.2-0.2c-6-0.9-12-0.7-18.1-0.7c0.3-1.1,0.5-2.2,0.8-3.3
		c-1.3-1.6-2.5-3.2-3.7-4.8c2.9,0,5.7,0,8.6,0.2c1.7,0.6,3.4,1.2,5.1,1.7c-0.4-1.4,0-3.3-1.4-4.3c-3.2-0.5-6.5-0.4-9.8-0.4
		c2.8-1.1,5.6-2.3,8.5-3.4C86,125.5,86.1,123,86.6,120.6z"/>
</g>
<g id="_x23_dacfc2ff">
	<path class="st32" d="M148.6,123.3c3.3-1.3,6.7-2.8,10.3-2.7c7-0.1,14,0.1,21,0.1c-0.1,3-0.2,6-0.4,9c1.2,0.6,2.4,1.1,3.6,1.6
		c-7,0.1-14,0.1-20.9,0.3c0.1,1.5,0.3,3.1,0.4,4.6c1.5-0.8,2.9-1.6,4.5-2.3c4.9-0.4,9.8-0.2,14.7-0.1c-1.7,2.5-2.4,5.4-2.1,8.4
		c-8.3,0.4-16.6-0.7-24.8,0.7c-1.1,0.3-2.2,0.7-3.3,1.1c0.7,1,1.2,2.3,2.3,2.9c2.6-0.9,5.1-2.6,8-2.5c6.2-0.1,12.5,0.1,18.7,0
		c-0.7,2.7-0.9,5.4-0.5,8.2c-6.8,0.8-13.7,0.3-20.5,1.3c-5.7,0.5-11.6-0.8-17.1,1.1c0.3,1.3,0.7,2.6,1.1,3.9
		c2.8-1.6,5.7-3.6,9.1-3.3c10.2,0.1,20.4,0.1,30.6,0.2c-1.2,2.1-2.7,4-4.5,5.7c-2.7,2.2-5.2,5.4-9.1,5.6c-6.7,0.4-13.4-0.2-20.1,0.1
		c-2.6,0-5.5,1.2-6.5,3.7c1.8,3.7,4.8,6.7,7.2,10c-2.2,3-4.4,6.2-7.6,8.1c-3.2-3.7-6.1-7.6-9.3-11.3c-0.6-0.6-1.1-1.3-1.7-1.9
		c0.7-0.9,1.4-1.8,2.1-2.6c-1.7-0.1-3.4-0.2-5.1-0.2c-0.9-2.2-1.9-4.4-2.9-6.6c2.8-0.3,5.5-0.6,8.3-1c-1.5-1.8-2.9-3.7-4.5-5.4
		c-1.1-0.6-2.3-1.2-3.4-1.8c6.3-8.3,13.6-15.8,20-23.9C149.1,131.4,148.2,127.1,148.6,123.3z"/>
</g>
<g id="_x23_c0b4aaff">
	<path class="st33" d="M180,120.7c3.5,0,6.9-0.1,10.4-0.4c0.4,0,1.1,0.1,1.4,0.1c-2.3,3.4-1.6,7.5-0.1,11c-2.9,0-5.7,0-8.6-0.1
		c-1.2-0.5-2.4-1.1-3.6-1.6C179.8,126.7,179.9,123.7,180,120.7z"/>
</g>
<g id="_x23_ac9f96ff">
	<path class="st34" d="M191.8,120.4c3.3,0.3,6.7,0.2,10,0.2c0.1,2.6,0,5.2,0.8,7.7c1.2,1.5,3,2.2,4.6,3c-5.2,0.1-10.3,0.1-15.5,0.1
		C190.2,127.9,189.6,123.8,191.8,120.4z"/>
</g>
<g id="_x23_9b9186ff">
	<path class="st35" d="M201.8,120.7c6.5,0,12.9-0.2,19.4,0.3c-3.3,3.8-6.6,7.8-11.1,10.2c-0.7,0-2.2,0.1-2.9,0.2
		c-1.6-0.8-3.4-1.6-4.6-3C201.9,125.8,202,123.2,201.8,120.7z"/>
</g>
<g id="_x23_4c4438ff">
	<path class="st36" d="M40.9,131.4c1.4,0.1,2.7,0.1,4.1,0.1c6.4-0.1,12.8-0.1,19.1,0c4.6,0,9.1,0,13.7-0.1c3.3,0,6.6-0.1,9.8,0.4
		c1.3,0.9,1,2.9,1.4,4.3c-1.7-0.5-3.4-1.1-5.1-1.7c-5.1-1.8-10.5-0.7-15.8-0.9c-8-0.1-16.1,0.5-24.1-0.3
		C42.9,132.5,41.9,131.9,40.9,131.4z"/>
</g>
<g id="_x23_a29a8aff">
	<path class="st37" d="M114.2,143.8c-0.3-4.6,0.7-9,2.7-13.2c1.5,5,1.5,10.3,1.1,15.4C116.8,145.2,115.5,144.5,114.2,143.8z"/>
</g>
<g id="_x23_454037ff">
	<path class="st38" d="M162.2,131.7c7-0.2,14-0.2,20.9-0.3c2.9,0.1,5.7,0.1,8.6,0.1c5.2,0,10.3,0,15.5-0.1c0.7,0,2.1-0.1,2.9-0.2
		c-2.1,0.8-4.2,1.5-6.3,2.1c-9.9,0.2-19.9,0-29.8-0.1c-2.3,0-4.6,0.1-6.8,0.7c-1.5,0.7-3,1.5-4.5,2.3
		C162.5,134.7,162.3,133.2,162.2,131.7z"/>
</g>
<g id="_x23_b5a896ff">
	<path class="st39" d="M43.6,134.8c0.1-0.6,0.2-1.1,0.4-1.7c8,0.8,16,0.2,24.1,0.3c5.2,0.2,10.7-0.9,15.8,0.9
		c-2.8-0.2-5.7-0.2-8.6-0.2c1.2,1.6,2.5,3.2,3.7,4.8c-0.3,1.1-0.5,2.2-0.8,3.3c-7.8,0.1-15.5-0.5-23.3-0.2c1.1-2.6,1-5.3,0.2-7.9
		C51.2,133.9,47.3,134,43.6,134.8z"/>
</g>
<g id="_x23_aa9e99ff">
	<path class="st40" d="M167.1,133.9c2.2-0.6,4.5-0.7,6.8-0.7c9.9,0,19.9,0.3,29.8,0.1c1.4,0,2.9,0.1,4.3,0.2
		c-3.2,3.9-6.9,7.4-11.5,9.7c-13.9-0.8-27.9-0.1-41.8-0.2c8.2-1.4,16.6-0.3,24.8-0.7c4.1,0,8.1-0.1,12.2-0.4c0-2.6,0-5.1,0-7.7
		c-3.4-0.2-6.7-0.3-10.1-0.4C176.9,133.8,172,133.5,167.1,133.9z"/>
</g>
<g id="_x23_a49b8bff">
	<path class="st41" d="M43.6,134.8c3.8-0.7,7.6-0.8,11.5-0.6c0.8,2.6,0.8,5.4-0.2,7.9c7.8-0.4,15.5,0.3,23.3,0.2
		c6-0.1,12.1-0.2,18.1,0.7c-7.7-0.1-15.5,0-23.2-0.1c-6.5,0-13-0.4-19.5,0.4C49.9,140.8,46.5,138.1,43.6,134.8z"/>
</g>
<g id="_x23_bdb1a7ff">
	<path class="st42" d="M181.8,133.8c3.4,0.1,6.7,0.3,10.1,0.4c0,2.6,0,5.1,0,7.7c-4.1,0.2-8.1,0.4-12.2,0.4
		C179.5,139.2,180.2,136.3,181.8,133.8z"/>
</g>
<g id="_x23_494132ff">
	<path class="st43" d="M53.5,143.3c6.5-0.8,13-0.4,19.5-0.4c7.7,0.1,15.5-0.1,23.2,0.1c0.6,0.1,1.6,0.2,2.2,0.2
		c-0.1,1.3-0.3,2.6-0.5,3.9c-1.8-0.3-3.4-1.1-5-1.7c-4.1-1.5-8.6-0.8-12.8-0.9c-8.4,0-16.8,0.2-25.2,0
		C54.5,144.1,53.8,143.6,53.5,143.3z"/>
</g>
<g id="_x23_3d382fff">
	<path class="st44" d="M151.6,144.1c1.1-0.4,2.2-0.8,3.3-1.1c13.9,0.1,27.9-0.6,41.8,0.2c-0.8,1.4-1.5,2.7-2.4,4
		c0.1-0.6,0.4-1.9,0.6-2.5c-4.7-0.2-9.5-0.3-14.2-0.2c-6.2,0.1-12.5-0.2-18.7,0c-2.9-0.1-5.4,1.5-8,2.5
		C152.8,146.4,152.3,145.1,151.6,144.1z"/>
</g>
<g id="_x23_b8a998ff">
	<path class="st45" d="M54.8,144.4c8.4,0.2,16.8,0,25.2,0c4.3,0.1,8.7-0.7,12.8,0.9c-4.8-0.3-9.6,0-14.4,0c0.4,2.1,0.8,4.3,1.1,6.4
		c5.5,1.2,11.2,1.7,16.8,2.1c-9.9,0.7-19.8,0.2-29.7,0.5C61.4,152.8,57.9,148.6,54.8,144.4z"/>
</g>
<g id="_x23_bcb4aaff">
	<path class="st46" d="M180.7,144.5c4.7,0,9.5,0,14.2,0.2c-0.1,0.6-0.4,1.9-0.6,2.5c-2.4,2.3-5,4.5-7.6,6.6c-9,0.6-18,0.4-27,0.1
		c6.8-1,13.7-0.5,20.5-1.3C179.8,150,179.9,147.2,180.7,144.5z"/>
</g>
<g id="_x23_463f33ff">
	<path class="st47" d="M66.6,154.3c9.9-0.2,19.8,0.2,29.7-0.5c3.8,0.2,7.5,0.4,11.2,0.7c0.1,0.6,0.4,1.9,0.5,2.5
		c-0.3,0.4-1,1.3-1.3,1.8c-5.3-4.2-12.3-2.9-18.5-3c-5.7,0.1-11.5-0.4-17.2,0.1c-1.3,0-2.7,0.5-3.4,1.7
		C67.2,156.5,66.9,155.4,66.6,154.3z"/>
</g>
<g id="_x23_39382eff">
	<path class="st48" d="M142.7,155.1c5.5-1.8,11.4-0.5,17.1-1.1c9,0.3,18,0.4,27-0.1c-1,0.7-2.1,1.4-3.2,2
		c-10.2-0.1-20.4-0.1-30.6-0.2c-3.4-0.2-6.3,1.7-9.1,3.3C143.4,157.7,143,156.4,142.7,155.1z"/>
</g>
<g id="_x23_bdb09eff">
	<path class="st49" d="M67.6,157.6c0.7-1.2,2-1.7,3.4-1.7c5.7-0.4,11.5,0.1,17.2-0.1c-1.7,0.8-4.2,1.1-5,3c-0.7,1.4,0.4,2.7,0.8,3.9
		c-1.3,1-2.6,2.1-3.9,3.1c7.3,0.5,14.9-0.6,22.1,1.2c-6.4,0.1-12.8,0.4-19.2,0.2C76.3,167.6,72.2,161.4,67.6,157.6z"/>
</g>
<g id="_x23_3e3d37ff">
	<path class="st50" d="M117.8,162.8c2.6-4.2,7.9-3.1,12-2.7c1.6,1.7,3,3.6,4.5,5.4c-3.4-0.4-6.7-0.8-10.1-1.4
		c-0.9,1-1.9,1.9-2.9,2.9C119.4,166.6,115.8,165.2,117.8,162.8z"/>
</g>
<g id="_x23_32353bff">
	<path class="st51" d="M170,167.1c3.8-0.1,6.3-3.3,9.1-5.6c1,2.1,1.3,4.4,0.9,6.8c-4.4,1.7-8.2,4.8-11.1,8.5
		c-3.8,6.3-11.6,8-16,13.7c-1.6-0.8-3.1-1.8-4.8-2.4c-3.9,2.6-6.8,6.7-7.4,11.4c-0.2-0.2-0.5-0.5-0.7-0.6c-0.4-1.3-0.6-2.6-0.8-4
		c1.2-1.5,2-3.3,2.4-5.2c0.3-0.1,1.1-0.5,1.4-0.6c3.3-1.9,5.4-5.1,7.6-8.1c-2.3-3.4-5.3-6.3-7.2-10c1-2.5,3.9-3.7,6.5-3.7
		C156.7,167,163.4,167.6,170,167.1z"/>
</g>
<g id="_x23_33373dff">
	<path class="st52" d="M44.3,164c3.5,1.5,5.2,4.9,6.8,8.1c0.9,2.6,3.6,0.8,5.5,0.8c2.9-0.9,5.1,1.8,7.2,3.3c3.1,2.2,4.8,5.7,6.6,8.9
		c3.8-1.4,6.5-4.4,9.5-7c0.3,3.2,0.6,6.4,0.8,9.7c5.5,0.3,10.9-0.7,16.2-1.9c-1.4-0.7-2.9-1.4-4.3-2.1c3-1.7,5.3-4.4,7.4-7.1
		c0.2,0.7,0.5,2.1,0.6,2.8c0.6,3.4,2.7,6.1,4.6,8.9c-0.4,0-1.2,0-1.6,0c-3.5,0.6-6,3.2-7.9,5.9c2.5,0.2,5.1-0.1,7.6,0.4
		c2.7,1.3,2.9,4.8,3.6,7.5c-0.2,0.2-0.6,0.7-0.7,0.9c-0.6-0.8-1.2-1.7-1.7-2.5c-1.6,1.4-3,2.9-4.9,3.8c-4.2,0.5-8.4-0.2-12.6-0.3
		c-4.3-0.1-8.4-1.9-12.7-2c-2.3,1-3.8,3.1-5.5,4.8c-13-8.6-23.5-20.6-31.1-34.1C39,169.3,41.5,166.5,44.3,164z"/>
</g>
<g id="_x23_d6c8b6ff">
	<path class="st53" d="M124.2,164.1c3.3,0.6,6.7,1,10.1,1.4c-2.7,0.4-5.5,0.7-8.3,1c1,2.2,2,4.4,2.9,6.6c-3.1,0.8-5.3,3.3-7.3,5.7
		c3.7,0.2,7.7,0.1,10.4-2.8c0.6,0.6,1.1,1.3,1.7,1.9c-1,0.2-2,0.5-3,0.8c-0.1,0.5-0.4,1.6-0.5,2.1c5,1.3,8,5.6,11.4,9.1
		c-0.5,1.9-1.2,3.7-2.4,5.2c-3.2,3.9-6.7,7.5-9.8,11.4c-1.3,1.4-2.4,3.2-4.3,3.8c-4.4-4.1-8-9.1-12.2-13.5c-1.4-1.8-2.7-3.6-4-5.5
		c3-4.3,6-9,11.5-10.4c-0.1-0.6-0.4-1.9-0.5-2.6l-0.2-0.7c1.1-1.2,2.3-2.5,3.4-3.7c-1.4-1.6-2.7-3.2-4.2-4.7
		c0.8-0.7,1.6-1.4,2.4-2.1C122.3,166,123.3,165.1,124.2,164.1z"/>
</g>
<g id="_x23_44433eff">
	<path class="st54" d="M116.7,174.3c-2.2-2.1-1.1-5.4-1.2-8c1.2,0.9,2.3,1.9,3.5,2.9c1.5,1.5,2.8,3.1,4.2,4.7
		c-1.1,1.2-2.3,2.5-3.4,3.7C118.7,176.4,117.7,175.4,116.7,174.3z"/>
</g>
<g id="_x23_483f3bff">
	<path class="st55" d="M121.6,178.8c1.9-2.4,4.1-4.9,7.3-5.7c1.7,0,3.4,0.1,5.1,0.2c-0.7,0.9-1.4,1.8-2.1,2.6
		C129.4,178.9,125.3,178.9,121.6,178.8z"/>
</g>
<g id="_x23_3c3728ff">
	<path class="st56" d="M116.4,178.3c1.2,0,2.3-0.1,3.5-0.1c0.1,0.6,0.4,1.9,0.5,2.6c-5.4,1.3-8.5,6.1-11.5,10.4
		c1.3,1.9,2.6,3.7,4,5.5c-0.9,0.7-1.8,1.4-2.6,2.2c-1.2-4.1-3.8-7.5-6.7-10.5c0.4,0,1.2,0,1.6,0c0.9,0.1,1.9,0.3,2.8,0.5
		C111,185.4,113.8,182,116.4,178.3z"/>
</g>
<g id="_x23_3f392fff">
	<path class="st57" d="M130.7,178.6c1-0.3,2-0.5,3-0.8c3.2,3.7,6.2,7.6,9.3,11.3c-0.4,0.2-1.1,0.5-1.4,0.6
		c-3.4-3.5-6.4-7.7-11.4-9.1C130.3,180.2,130.6,179.1,130.7,178.6z"/>
</g>
<g id="_x23_cac6bbff">
	<path class="st58" d="M140.7,199.5c0.6-4.7,3.5-8.8,7.4-11.4c1.7,0.6,3.2,1.5,4.8,2.4c0.4,1.7,0.8,3.4,1.1,5.1
		c-2.2-0.5-4.3-1.6-6.6-1.2c-2.7,0.9-2.8,4.2-3.7,6.5C142.7,200.5,141.7,200,140.7,199.5z"/>
</g>
<g id="_x23_c7c2baff">
	<path class="st59" d="M95.7,194.2c2-2.8,4.4-5.4,7.9-5.9c2.8,3.1,5.5,6.4,6.7,10.5c-1.2,1.1-2.3,2.1-3.4,3.3
		c-0.6-2.6-0.8-6.1-3.6-7.5C100.9,194.2,98.3,194.4,95.7,194.2z"/>
</g>
<g id="_x23_afa7a0ff">
	<path class="st60" d="M70.8,213.9c1.1-1.1,2.3-2.2,3.4-3.3c18.8,11.3,41.2,15.6,62.9,13.3c-1.4,1.3-2.7,2.5-4.1,3.8
		c1.7,0.1,3.4,0.1,5.1,0.2c-1.9,0.8-4,1.2-6.1,1.3C110.7,230.5,88.9,225.2,70.8,213.9z"/>
</g>
<g id="_x23_242b31ff">
	<path class="st61" d="M0,249c83.3,0.1,166.7,0.1,250,0v1H0V249z"/>
</g>
</svg>
