<?xml version="1.0" encoding="utf-8"?>
<!-- Generator: Adobe Illustrator 26.0.3, SVG Export Plug-In . SVG Version: 6.00 Build 0)  -->
<svg version="1.1" id="Layer_1" xmlns="http://www.w3.org/2000/svg" xmlns:xlink="http://www.w3.org/1999/xlink" x="0px" y="0px"
	 viewBox="0 0 250 250" style="enable-background:new 0 0 250 250;" xml:space="preserve">
<style type="text/css">
	.st0{fill:#F5E272;}
	.st1{fill:#0F0000;}
	.st2{fill:#D7D6CE;}
	.st3{fill:#D6D7CA;}
	.st4{fill:#FBFAEF;}
	.st5{fill:#FCFBEF;}
	.st6{fill:#F89C9D;}
	.st7{fill:#EC6A72;}
	.st8{fill:#F89C9E;}
	.st9{fill:#EC6A71;}
	.st10{fill:#E9A77D;}
	.st11{fill:#F9A057;}
	.st12{fill:#E17326;}
	.st13{fill:#C67A46;}
	.st14{fill:#F3FCEC;}
	.st15{fill:#F3FDEA;}
	.st16{fill:#E0A8A7;}
	.st17{fill:#090403;}
	.st18{fill:#090401;}
	.st19{fill:#BE5E22;}
	.st20{fill:#BF5E21;}
	.st21{fill:#F8F9EF;}
	.st22{fill:#F5F9F3;}
	.st23{fill:#FCFEF4;}
	.st24{fill:#080402;}
	.st25{fill:#32312F;}
	.st26{fill:#FEFEF4;}
	.st27{fill:#FCFFF4;}
	.st28{fill:#672E08;}
	.st29{fill:#753206;}
	.st30{fill:#AD734A;}
	.st31{fill:#E5E1D6;}
	.st32{fill:#DB8284;}
	.st33{fill:#DFAEB1;}
</style>
<g id="_x23_f5e272ff">
	<path class="st0" d="M40.5,53.7c9.7-5.7,21.3-2.1,31.6-0.5c8.6,2.7,17.3,5.3,25.9,8.2c4,1.5,7.8,3.4,12.1,3.9
		c9.8-2.2,20.1-2,30-0.1c2.6,0.6,5-0.8,7.3-1.6c8.9-3.8,18.3-6.4,27.5-9.3c11-1.8,22.8-6,33.7-1.5c5.7,4.2,6.6,11.8,7.2,18.3
		c1,5.9,0.2,11.9-0.3,17.9l-1.3-0.1c0.1-9.7,1.3-19.7-2-29c-1.3-4-5.1-6.8-9.2-7.3c-8-1-16.1,0.5-23.9,2.3
		c-11.9,2.9-23.4,6.9-34.8,11.3c-2.3,1-4.8,0.3-7.2,0c-9.6-1.5-19.3-0.6-28.9,0.5c-16-5.6-32-12-49-14.1C53,52.1,45.6,51,40.6,55.6
		c-4.2,5.1-4.4,12.1-4.9,18.4c-0.3,14.4,1.8,28.7,4,42.9c0.6,2.8-1.2,5.2-2.2,7.7c-8.4,19.1-10.7,40.7-7.1,61.2l-0.7,1.2
		c-0.9-3.2-2-6.2-2.6-9.5c0.8-7.1,0-14.3,0.7-21.5c0.8-7.2,2-14.3,4.3-21.1c1.5-5.8,4.8-11.1,6.1-16.9c-0.1-5.8-1.5-11.5-2.6-17.1
		c-0.5-12.6-2.8-25.3-0.2-37.8C36.7,59.7,37.9,56.2,40.5,53.7z"/>
	<path class="st0" d="M210.5,116.9c1.5-9.3,2.8-18.6,3.6-28c1.6,2.1,0.7,4.7,0.6,7c-0.5,7.9-3.1,15.7-2.4,23.7
		c1.2,4.2,3.4,8,4.8,12.1c5.9,15.7,6.3,32.8,5,49.3c0.1,1.4-1.1,2.3-2,3.2c3.1-20.4,0.8-41.8-7.8-60.6
		C211.4,121.5,209.9,119.4,210.5,116.9z"/>
	<path class="st0" d="M185.2,189.4c10.1-3.4,20-7.9,27.9-15.2c2.8,3.9,5,8.3,5.9,13.1l0.2,0.7c-0.8-0.9-1.7-1.8-2.5-2.7
		c-0.8,0.1-1.6,0.1-2.4,0.2c0.5-1.5,1-2.9,1.6-4.4c-1-1.4-2-2.7-3-4.1c-6,3.6-11.8,7.8-18.3,10.6c-17.1,6.5-35.3,10.6-53.6,11.4
		c-11,0.9-22.1,1.1-33-0.3c-4.4-0.1-8.8-0.2-13.1-1c-14.4-2.2-29.2-4.9-42.1-12l1.3-0.4c20.7,9.1,43.4,12.3,65.8,13
		C142,198.5,164.2,196.3,185.2,189.4z"/>
</g>
<g id="_x23_0f0000ff">
	<path class="st1" d="M40.6,55.6c5-4.6,12.3-3.5,18.5-3.1c17,2.1,33,8.5,49,14.1c9.6-1.1,19.3-2,28.9-0.5c2.4,0.3,4.9,1.1,7.2,0
		c11.4-4.5,22.9-8.5,34.8-11.3c7.8-1.8,15.9-3.3,23.9-2.3c4.1,0.5,8,3.2,9.2,7.3c3.3,9.3,2.1,19.3,2,29l0,0.3
		c-0.9,9.4-2.1,18.7-3.6,28c-0.6,2.4,0.9,4.6,1.8,6.7c8.6,18.9,10.9,40.2,7.8,60.6c-0.2,1-0.6,2.1-1.1,3c-0.9-4.8-3.1-9.2-5.9-13.1
		c-7.9,7.3-17.9,11.8-27.9,15.2c-21,6.9-43.2,9.1-65.2,8.8c-22.4-0.7-45.1-3.9-65.8-13c-6.1-2.9-11.9-6.5-17-10.9
		c-3,3.8-4.8,8.2-6,12.8c-0.2-0.3-0.5-0.9-0.6-1.2c-3.6-20.5-1.3-42.1,7.1-61.2c1-2.5,2.8-4.9,2.2-7.7c-2.2-14.2-4.3-28.5-4-42.9
		C36.2,67.7,36.4,60.7,40.6,55.6 M47.4,55.5c12.9,4.4,23.2,13.8,33.7,22.1l0,0c0.3,0.4,0.9,1.1,1.2,1.5c-5.1,2.8-9.9,6.2-14.4,9.8
		l-0.1,0.3c-7.1,5.3-12.9,12.2-18,19.4c-1.7,2.7-3.7,5.2-4.8,8.2c-0.2,0.4-0.8,1.2-1,1.6c-4.4,7.8-7.8,16.4-9.4,25.3
		c-2.7,10.5-3.4,21.6-2.2,32.4c1.6-2.1,3.2-4.2,4.8-6.2c4.9,5.4,11.2,9.5,18,12c10.4,5.7,22.3,8.1,33.8,10.4l0.2,0.2
		c23.5,3.4,47.6,4.1,71.1-0.1c9.6-1.4,19-3.9,28.1-7.2c2.8-1,5.4-2.4,8-3.9c0.1-0.1,0.3-0.4,0.4-0.5c6.5-1.3,11.7-6.1,16.3-10.6
		c2,1.8,3.6,3.9,5.2,6.1c2-20.7-2.4-42.1-12.8-60.1c-5.2-8.9-11.4-17.4-19.3-23.9c-4.9-5.2-11.1-9.1-17.2-12.7
		c-0.1-0.3-0.5-1-0.6-1.3c10.9-8.3,21.2-18,34.2-22.8c-4.7-1.2-9.6-0.3-14.4,0.4c-14.2,2.6-28,7.2-41.4,12.5l-0.1-0.1
		c-1.7,0.6-3.4,1.7-5.2,1.3c-10-1.7-20.2-2-30.2-0.2c-1.8,0.4-3.6,0.1-5.3-0.1c-3.4-1.7-7-2.9-10.6-4.2c-12-4.1-24.1-8.3-36.7-9.6
		C54.7,54.6,51,54.9,47.4,55.5 M41.9,58.2c-3.8,7.7-3.2,16.5-3.2,24.8c0.5,7.6,0.9,15.2,2.4,22.7c0.2,2.8,0.6,5.7,1,8.5
		c2.6-2.3,4-5.6,5.9-8.4c5.3-7.2,11.4-13.9,18.3-19.7c3.7-2.3,7-5.3,10.9-7.3c-1.2-1.4-2.6-2.7-4.1-3.9
		c-7.7-6.2-15.7-12.1-24.7-16.1C46.3,58.1,44.1,58,41.9,58.2 M172.9,78.6c9.4,5.4,17.1,12.9,24.5,20.7l-0.1,0.2
		c4,4.5,6.8,9.9,10.6,14.6c1.6-10,3-20,3.4-30.2c0.4-8.6,0.7-17.7-3-25.7c-2-0.4-3.9-0.2-5.9,0.2C191.6,63.4,181.8,70.6,172.9,78.6z
		"/>
</g>
<g id="_x23_d7d6ceff">
	<path class="st2" d="M47.4,55.5c3.6-0.5,7.4-0.9,11,0c10.2,5.1,19.3,12.2,27.9,19.6c-1.7,0.8-3.4,1.6-5.1,2.5
		C70.6,69.2,60.3,59.8,47.4,55.5z"/>
</g>
<g id="_x23_d6d7caff">
	<path class="st3" d="M187.9,55.9c4.7-0.7,9.6-1.6,14.4-0.4c-13,4.8-23.3,14.5-34.2,22.8c-1.3-1.3-3-2.2-4.7-3.1
		c9.2-6.5,17.2-14.8,27.8-19.1C190.1,56,189,56,187.9,55.9z"/>
</g>
<g id="_x23_fbfaefff">
	<path class="st4" d="M58.3,55.4C71,56.8,83.1,61,95,65c3.6,1.3,7.2,2.5,10.6,4.2c-6.8,0.5-13.1,3.4-19.4,5.8
		C77.6,67.6,68.6,60.5,58.3,55.4z"/>
</g>
<g id="_x23_fcfbefff">
	<path class="st5" d="M146.5,68.4c13.4-5.3,27.2-9.9,41.4-12.5c1.1,0.1,2.2,0.1,3.3,0.2c-10.6,4.3-18.6,12.6-27.8,19.1
		c-2.3-1.1-4.6-2.2-7-3C153,71.1,149.6,70.1,146.5,68.4z"/>
</g>
<g id="_x23_f89c9dff">
	<path class="st6" d="M41.9,58.2c2.2-0.2,4.4-0.1,6.5,0.5c-2.2,13-0.4,26.4,3.7,38.9c5-3.6,8.4-9.1,14.2-11.5
		c-6.9,5.8-13,12.4-18.3,19.7c-1.5,1-3.1,1.9-4.6,2.9c-0.8-1-1.5-1.9-2.3-2.9c-1.5-7.5-1.8-15.1-2.4-22.7
		C38.7,74.7,38.1,65.9,41.9,58.2z"/>
</g>
<g id="_x23_ec6a72ff">
	<path class="st7" d="M172.9,78.6c8.9-8,18.7-15.2,29.5-20.2c0.8,13.8,0.2,28-5,40.9C190.1,91.6,182.3,84,172.9,78.6z"/>
</g>
<g id="_x23_f89c9eff">
	<path class="st8" d="M202.5,58.4c1.9-0.4,3.9-0.5,5.9-0.2c3.8,8,3.4,17.1,3,25.7c-0.3,10.1-1.8,20.2-3.4,30.2
		c-3.8-4.6-6.6-10.1-10.6-14.6l0.1-0.2C202.7,86.4,203.3,72.2,202.5,58.4z"/>
</g>
<g id="_x23_ec6a71ff">
	<path class="st9" d="M48.4,58.7c9,4,17,10,24.7,16.1c1.5,1.1,2.8,2.5,4.1,3.9c-3.9,2-7.1,5.1-10.9,7.3c-5.8,2.4-9.2,7.9-14.2,11.5
		C48,85.2,46.2,71.7,48.4,58.7z"/>
</g>
<g id="_x23_e9a77dff">
	<path class="st10" d="M110.9,69.3c10-1.7,20.2-1.5,30.2,0.2c1.9,0.4,3.5-0.6,5.2-1.3l0.1,0.1c3.1,1.8,6.6,2.7,9.9,3.9
		c-4.9,0.4-9.5-2.1-14.4-1.6c-7.4,0.4-14.7-1.4-22-0.5c-7.8,1-15.9,0.4-23.6,2.5c-5,1.8-10.1,4-13.8,8c-0.1-0.4-0.3-1.2-0.4-1.6
		c-0.3-0.4-0.9-1.1-1.2-1.5l0,0c1.7-0.9,3.4-1.8,5.1-2.5c6.3-2.4,12.6-5.4,19.4-5.8C107.4,69.4,109.2,69.8,110.9,69.3z"/>
	<path class="st10" d="M49.7,108.7c5.1-7.2,10.9-14.1,18-19.4c-0.1,0.5-0.4,1.7-0.6,2.2c-1.3,1.6-2.5,3.3-3.5,5.1
		c-7,6.9-13.4,14.4-18.6,22.8c0-0.6-0.1-1.9-0.1-2.5C46,113.9,48,111.3,49.7,108.7z"/>
	<path class="st10" d="M185.9,92.2c8,6.6,14.2,15,19.3,23.9c-0.1,1.1-0.2,2.3-0.4,3.4c-3.3-5.8-7-11.5-11.6-16.3
		C191.6,99,187,96.8,185.9,92.2z"/>
</g>
<g id="_x23_f9a057ff">
	<path class="st11" d="M96.4,72.7c7.7-2.2,15.8-1.6,23.6-2.5c7.3-0.9,14.6,0.9,22,0.5c4.9-0.5,9.5,2,14.4,1.6c2.4,0.8,4.8,1.9,7,3
		c1.7,0.8,3.3,1.7,4.7,3.1c0.2,0.3,0.5,1,0.6,1.3c6.1,3.6,12.4,7.5,17.2,12.7c1.1,4.5,5.7,6.7,7.4,11c-5.4-4.4-10.3-9.5-16.1-13.5
		c-14.5-9.8-31.7-16-49.3-16.1c-21.1-1-42.3,6.3-58.9,19.3c-1.7,1.3-3.6,2.4-5.4,3.6c1-1.8,2.3-3.5,3.5-5.1c0.1-0.6,0.4-1.7,0.6-2.2
		l0.1-0.3c4.5-3.7,9.3-7,14.4-9.8c0.1,0.4,0.3,1.2,0.4,1.6C86.3,76.7,91.4,74.4,96.4,72.7z"/>
</g>
<g id="_x23_e17326ff">
	<path class="st12" d="M69,92.9c16.5-13,37.8-20.3,58.9-19.3c17.6,0.1,34.8,6.3,49.3,16.1c5.8,4,10.7,9.1,16.1,13.5
		c4.6,4.9,8.4,10.5,11.6,16.3c2.2,7.6,2.8,15.5,3.3,23.4c0.3,2.6-0.6,5.2-1.7,7.6c-2.1-5.6-5.1-11.5-10.4-14.6
		c-3.1-2-7.1-1.9-10.7-1.3c-2.7,0.7-4.1,3.4-5.2,5.7c-4.3,6.1-11,10-18.3,11.3c-3.7-4.3-9.2-6.3-13-10.5c-3.3-3.1-5.1-7.6-8.5-10.6
		c-8.1-6.5-20.4-6.9-29-1.2c-4.6,3.1-6.7,8.6-10.8,12.2c-3.7,3.9-8.8,6-12.4,9.9c-6.2-1.3-12.3-3.8-16.4-8.9c2.3-1.4,5-1.5,7.7-1.3
		c0.5,0,1.5,0.1,2,0.2c3.8,3.5,8.2-0.2,11.2-2.8c4-3.2,4.2-8.8,3.9-13.4c0-6-5.6-9.9-10.5-12.2c4.1,0.2,8.8,0.8,12.5-1.3
		c4.5-4.7,0.3-14.2-6.2-13.6c-2.1-0.5-4.4-0.6-6.6-0.4c1.3-0.6,2.7-1.1,4-1.7c-7.2-1-15.9,5.1-14.1,13c1.9,1.8,4.5,2.6,6.9,3.5
		c-6,0.7-12.1,3.7-14.8,9.4c-2.4,3.6-0.8,7.9-0.1,11.8c-3.7-0.8-7.5-1.4-11.2-0.4c3.9,0.6,8.6-0.2,11.4,3.2c-3.3-2.8-7.9-3-11.9-1.7
		c-4.1,1.6-7,5.2-9.3,8.8c-0.6,0.2-1.7,0.6-2.3,0.8c-0.6,1.4-1.3,2.7-1.9,4.1c-1.2-10.1,1.4-20,1.2-30.1c0.2-0.4,0.8-1.2,1-1.6
		c0,0.6,0.1,1.9,0.1,2.5c5.2-8.4,11.6-15.9,18.6-22.8C65.4,95.4,67.3,94.2,69,92.9 M159.4,97.8c-4.7,1.2-8.9,6-8.5,11
		c1.6,1.7,3.8,2.9,6.2,2.9c5.2,0.2,11.1,0.2,15.3-3.4c0.8-1.3,0.5-3.1,0-4.5C169.7,99.5,164.4,96.6,159.4,97.8 M163.4,115.6
		c-3.9,1.3-6.8,4.7-7.9,8.5c-2.9,7.7,3.3,17,11.5,17.3c8.7,1.2,16.7-8.1,14.2-16.5C179.6,117.3,170.6,112.5,163.4,115.6z"/>
</g>
<g id="_x23_c67a46ff">
	<path class="st13" d="M75.8,109c-1.7-7.9,6.9-14,14.1-13c-1.3,0.6-2.7,1.1-4,1.7c-3.7,1.5-7.9,4-8.7,8.3c-0.4,2.2,1.9,3.3,3.6,4.1
		c5.5,2.2,11.9,2.2,17.5,0.3c2.4-5.1-1.8-9.7-5.9-12.3c6.5-0.6,10.7,9,6.2,13.6c-3.8,2.2-8.4,1.5-12.5,1.3
		c4.9,2.3,10.5,6.2,10.5,12.2c0.3,4.7,0,10.2-3.9,13.4c-3.1,2.6-7.5,6.3-11.2,2.8c8.5,0.3,15.9-8.3,13.5-16.6
		c-1.6-7.5-10.5-12.4-17.6-9.4c-7.5,2.4-11,12.2-7.1,19c1.8,3.6,5.5,5.7,9.2,6.9c-2.6-0.2-5.3-0.1-7.7,1.3c-0.7-0.9-1.4-1.9-2-2.8
		c-0.6-1.1-1.2-2.2-1.9-3.2c-2.8-3.4-7.5-2.6-11.4-3.2c3.7-1,7.5-0.4,11.2,0.4c-0.7-3.9-2.4-8.2,0.1-11.8c2.6-5.7,8.8-8.7,14.8-9.4
		C80.3,111.6,77.8,110.8,75.8,109z"/>
</g>
<g id="_x23_f3fcecff">
	<path class="st14" d="M159.4,97.8c5.1-1.1,10.3,1.8,13,6c0.5,1.4,0.8,3.2,0,4.5c-4.2,3.6-10.1,3.6-15.3,3.4c-2.4,0-4.6-1.2-6.2-2.9
		C150.5,103.8,154.7,99,159.4,97.8z"/>
</g>
<g id="_x23_f3fdeaff">
	<path class="st15" d="M77.3,106c0.8-4.2,4.9-6.8,8.7-8.3c2.2-0.3,4.4-0.1,6.6,0.4c4,2.5,8.2,7.2,5.9,12.3c-5.6,1.9-12,1.9-17.5-0.3
		C79.3,109.3,76.9,108.2,77.3,106z"/>
</g>
<g id="_x23_e0a8a7ff">
	<path class="st16" d="M41.1,105.7c0.7,1,1.5,1.9,2.3,2.9c1.6-0.9,3.1-1.8,4.6-2.9c-1.9,2.8-3.3,6.1-5.9,8.4
		C41.7,111.4,41.3,108.5,41.1,105.7z"/>
</g>
<g id="_x23_090403ff">
	<path class="st17" d="M77.4,115.6c7.2-3,16,1.9,17.6,9.4c2.4,8.3-5,16.9-13.5,16.6c-0.5,0-1.5-0.1-2-0.2c-3.8-1.1-7.4-3.2-9.2-6.9
		C66.4,127.8,69.9,117.9,77.4,115.6 M83,126.9c1.6,2.2,5.4,2.9,6.8,0.1c1.8-2.8-1.8-6.8-4.7-5.1C83,122.7,83,125.1,83,126.9z"/>
</g>
<g id="_x23_090401ff">
	<path class="st18" d="M163.4,115.6c7.2-3,16.2,1.7,17.8,9.3c2.5,8.4-5.5,17.7-14.2,16.5c-8.2-0.3-14.4-9.6-11.5-17.3
		C156.7,120.2,159.5,116.8,163.4,115.6 M161.3,122.5c-3.8,2.8,1.1,8.7,4.7,5.6C169.9,125.3,164.7,119,161.3,122.5z"/>
</g>
<g id="_x23_be5e22ff">
	<path class="st19" d="M205.3,116.2c10.4,18.1,14.8,39.4,12.8,60.1c-1.6-2.2-3.2-4.3-5.2-6.1c-4.6,4.5-9.8,9.3-16.3,10.6
		c4.4-5.4,8.6-11.3,9.8-18.4c0.6-3.9,0.5-7.9,0.1-11.9c1.1-2.4,2-4.9,1.7-7.6c-0.5-7.9-1.1-15.8-3.3-23.4
		C205.1,118.4,205.2,117.3,205.3,116.2z"/>
</g>
<g id="_x23_bf5e21ff">
	<path class="st20" d="M34.5,143.8c1.5-8.8,5-17.4,9.4-25.3c0.2,10.1-2.4,20-1.2,30.1c-0.6,6.1-0.4,12.3,0.8,18.2
		c1.2,3.2,3.3,6,4.2,9.4c-3.8-1.4-6.4-4.7-9.8-6.8c-1.6,0.2-3.2,0.8-4.7,1.2C31.9,161.6,35.1,152.8,34.5,143.8z"/>
</g>
<g id="_x23_f8f9efff">
	<path class="st21" d="M83,126.9c0-1.8,0-4.2,2.1-5c2.9-1.7,6.5,2.3,4.7,5.1C88.4,129.8,84.6,129.1,83,126.9z"/>
</g>
<g id="_x23_f5f9f3ff">
	<path class="st22" d="M161.3,122.5c3.4-3.5,8.6,2.8,4.7,5.6C162.4,131.3,157.5,125.3,161.3,122.5z"/>
</g>
<g id="_x23_fcfef4ff">
	<path class="st23" d="M111.4,129.4c8.6-5.7,20.9-5.3,29,1.2c3.4,3,5.2,7.4,8.5,10.6c3.8,4.2,9.3,6.2,13,10.5
		c0.1,0.1,0.4,0.4,0.6,0.5c2.1,4.7,3.1,10.7-0.1,15.2c-4.1,5.7-11.1,8.2-17.5,10.1c-13.9,3.6-28.9,3.3-42.7-0.9
		c-6-2.1-12.6-5-15.4-11.2c-1.2-4.5-1-9.7,1.5-13.8c3.6-3.9,8.7-6.1,12.4-9.9C104.7,137.9,106.8,132.5,111.4,129.4 M114.4,133.1
		c-2.1,1.7-2.9,4.6-1.8,7.1c2,4.2,6.5,6.7,10.9,7.7c0.5,1.7-0.4,3.9-2.3,4c-5.9,1.3-11.4-2.1-15.9-5.5c3.9,6,3,14,8.1,19.4
		c6.7,7.8,21.1,6.4,25.8-2.9c3.4-4.8,1.9-11.8,6.5-15.7c0-0.4,0-1.3,0-1.7c-4.4,4.5-10.8,8.1-17.3,6.3c-1.6-0.5-1.5-2.4-1.6-3.7
		c5.4-1.1,11.6-4.9,11.5-11c-1.3-4.6-6.2-6.5-10.4-7.3C123.2,128.9,118,130,114.4,133.1z"/>
</g>
<g id="_x23_080402ff">
	<path class="st24" d="M114.4,133.1c3.7-3.1,8.8-4.2,13.5-3.5c4.2,0.8,9.2,2.7,10.4,7.3c0.1,6.1-6.1,9.9-11.5,11
		c0.1,1.4-0.1,3.3,1.6,3.7c6.4,1.8,12.9-1.8,17.3-6.3c0,0.4,0,1.3,0,1.7c-4.6,4-3.2,11-6.5,15.7c-4.7,9.3-19,10.7-25.8,2.9
		c-5.1-5.3-4.2-13.4-8.1-19.4c4.6,3.3,10,6.8,15.9,5.5c2-0.1,2.9-2.3,2.3-4c-4.4-1-8.9-3.5-10.9-7.7
		C111.4,137.7,112.3,134.7,114.4,133.1 M119.5,133.4c-3,1.1-6.9,4.3-4.2,7.6c1.7-1.7,3.3-3.8,5.8-4.1c4.4-1.7,9-0.3,13.5-0.1
		C131.5,131.9,124.4,131.4,119.5,133.4 M116.2,161.8c0.1,3,3.9,3.8,6.2,4.6c4.2,0.7,10.3-0.1,11.8-4.7l-0.7,0.3
		C128.9,157.2,121.2,157.9,116.2,161.8z"/>
</g>
<g id="_x23_32312fff">
	<path class="st25" d="M119.5,133.4c4.9-2.1,12.1-1.5,15.1,3.4c-4.5-0.2-9.1-1.6-13.5,0.1c-2.5,0.4-4.2,2.4-5.8,4.1
		C112.5,137.7,116.5,134.5,119.5,133.4z"/>
</g>
<g id="_x23_fefef4ff">
	<path class="st26" d="M185.4,134.6c3.5-0.6,7.5-0.7,10.7,1.3c5.4,3.1,8.3,9,10.4,14.6c0.4,3.9,0.5,7.9-0.1,11.9
		c-0.2-2.7-0.6-5.4-0.9-8.2c-4.4-0.3-7.3,3.3-10.2,6.1c-3.7,3.8-8.3,6.8-13.3,8.7c0.7-4.1,1.2-8.4-0.1-12.4
		c-1.1-5.3-2-10.8-1.7-16.3C181.3,138,182.7,135.4,185.4,134.6z"/>
</g>
<g id="_x23_fcfff4ff">
	<path class="st27" d="M56.2,134.9c3.9-1.2,8.6-1.1,11.9,1.7c0.7,1,1.3,2.1,1.9,3.2c1.2,9.8-3.8,19.6-0.6,29.3
		c-8-1.7-13.4-8.2-19.1-13.4c-1.9-2.1-4.7-1.4-7.1-1c0.6-3.9,1.8-7.7,3.8-11.1C49.2,140.1,52.1,136.6,56.2,134.9z"/>
</g>
<g id="_x23_672e08ff">
	<path class="st28" d="M69.9,139.9c0.6,1,1.3,1.9,2,2.8c4.1,5,10.2,7.6,16.4,8.9c-2.5,4.1-2.7,9.2-1.5,13.8
		c2.8,6.1,9.4,9.1,15.4,11.2c13.8,4.2,28.7,4.6,42.7,0.9c6.5-1.8,13.5-4.3,17.5-10.1c3.2-4.5,2.2-10.5,0.1-15.2
		c1.3,0.8,3.6,0.7,3.4,2.8c0.3,4.2,1.8,9.1-1.2,12.7c-1.1,1.6-2.3,3-3.6,4.5c1.2,0.9,2.2,2.9,3.9,2.6c4.3-0.6,8.4-2.1,12.6-3
		c1.3-3.7,1.6-7.9,4.2-11c0.6,14-10.6,24.9-21.6,31.7c-23.5,4.2-47.6,3.5-71.1,0.1l-0.2-0.2c-7.9-6.4-16.5-13.1-19.6-23.2
		C66.1,159.5,71.1,149.7,69.9,139.9z"/>
</g>
<g id="_x23_753206ff">
	<path class="st29" d="M161.9,151.6c7.3-1.3,14-5.3,18.3-11.3c-0.3,5.5,0.6,10.9,1.7,16.3c0,1.4,0,2.8,0,4.1
		c-2.6,3.1-2.9,7.3-4.2,11c-4.2,1-8.3,2.5-12.6,3c-1.8,0.3-2.7-1.7-3.9-2.6c1.2-1.5,2.4-3,3.6-4.5c3-3.5,1.5-8.5,1.2-12.7
		c0.2-2.1-2.1-2-3.4-2.8C162.3,152,162.1,151.8,161.9,151.6z"/>
</g>
<g id="_x23_ad734aff">
	<path class="st30" d="M32.3,176.2c-1.2-10.8-0.5-21.9,2.2-32.4c0.6,9-2.5,17.8-1.3,26.8c1.6-0.5,3.1-1,4.7-1.2
		c3.4,2.1,6,5.4,9.8,6.8c-0.9-3.3-3-6.2-4.2-9.4c-1.2-6-1.4-12.2-0.8-18.2c0.6-1.4,1.2-2.7,1.9-4.1c0.6-0.2,1.7-0.6,2.3-0.8
		c-2,3.4-3.1,7.2-3.8,11.1c-0.2,10.3,4.8,20,12,27.2c-6.8-2.5-13.1-6.6-18-12C35.5,172,33.8,174.1,32.3,176.2z"/>
</g>
<g id="_x23_e5e1d6ff">
	<path class="st31" d="M43.1,154.8c2.4-0.4,5.2-1.1,7.1,1c5.8,5.2,11.2,11.6,19.1,13.4c3.2,10.1,11.8,16.8,19.6,23.2
		c-11.5-2.3-23.4-4.7-33.8-10.4C47.9,174.8,42.9,165.1,43.1,154.8z"/>
	<path class="st31" d="M195.3,160.3c2.8-2.8,5.8-6.4,10.2-6.1c0.3,2.7,0.7,5.4,0.9,8.2c-1.2,7.1-5.4,12.9-9.8,18.4
		c-0.1,0.1-0.3,0.4-0.4,0.5c-2.5,1.6-5.2,3-8,3.9c-9.1,3.3-18.5,5.8-28.1,7.2c11.1-6.8,22.3-17.7,21.6-31.7c0-1.4,0-2.8,0-4.1
		c1.3,4.1,0.9,8.3,0.1,12.4C187.1,167.2,191.6,164.2,195.3,160.3z"/>
</g>
<g id="_x23_db8284ff">
	<path class="st32" d="M116.2,161.8c4.9-3.9,12.7-4.6,17.4,0.1C128.2,164.6,121.8,163.8,116.2,161.8z"/>
</g>
<g id="_x23_dfaeb1ff">
	<path class="st33" d="M122.4,166.4c-2.3-0.8-6-1.6-6.2-4.6c5.5,2,11.9,2.8,17.4,0.1l0.7-0.3C132.7,166.3,126.6,167.1,122.4,166.4z"
		/>
</g>
</svg>
