<?xml version="1.0" encoding="UTF-8" ?>
<!DOCTYPE svg PUBLIC "-//W3C//DTD SVG 1.1//EN" "http://www.w3.org/Graphics/SVG/1.1/DTD/svg11.dtd">
<svg width="250pt" height="250pt" viewBox="0 0 250 250" version="1.1" xmlns="http://www.w3.org/2000/svg">
<g id="#fefffeff">
<path fill="#fefffe" opacity="1.00" d=" M 0.00 0.00 L 250.00 0.00 L 250.00 250.00 L 0.00 250.00 L 0.00 0.00 M 47.61 30.50 C 28.06 46.02 13.50 67.78 6.78 91.84 C 0.39 113.74 0.73 137.44 6.88 159.35 C 7.37 160.90 7.74 162.61 8.97 163.78 C 10.01 170.74 13.68 176.97 16.79 183.18 C 28.37 204.41 46.40 222.10 67.93 233.14 C 69.81 234.03 71.60 235.40 73.72 235.60 C 77.55 238.08 82.01 239.23 86.28 240.70 C 122.79 252.55 164.94 245.82 195.54 222.49 C 220.79 203.89 238.26 175.07 242.90 144.04 C 246.37 121.91 243.59 98.86 234.89 78.22 C 233.09 74.10 231.48 69.82 228.67 66.26 C 228.56 65.89 228.34 65.15 228.23 64.78 C 210.92 34.31 179.71 12.16 145.20 6.00 C 139.31 5.04 133.36 3.91 127.37 4.53 C 123.71 3.48 119.72 4.39 115.94 4.30 C 91.15 5.49 66.93 14.97 47.61 30.50 Z" />
<path fill="#fefffe" opacity="1.00" d=" M 74.04 46.96 C 90.19 36.66 109.79 32.84 128.75 34.23 C 153.93 36.77 177.93 50.21 192.56 70.97 C 185.45 77.29 178.35 83.65 170.98 89.67 C 165.26 81.89 158.34 74.81 149.85 70.08 C 139.02 63.98 126.28 61.83 113.97 62.79 C 97.88 64.39 82.20 72.32 72.34 85.31 C 62.19 98.03 57.92 114.98 59.88 131.05 C 61.90 147.22 70.79 162.40 83.91 172.07 C 96.43 181.50 112.77 185.91 128.30 183.54 C 140.29 182.08 151.73 176.76 160.73 168.73 C 174.16 156.81 187.77 145.10 201.27 133.24 C 203.92 130.95 206.52 128.61 209.36 126.55 C 208.85 145.28 202.07 163.79 190.41 178.44 C 179.24 192.84 163.46 203.52 146.07 208.88 C 131.19 213.27 115.18 213.86 100.06 210.35 C 77.46 205.15 57.21 190.75 44.88 171.12 C 38.41 161.29 34.66 150.01 31.92 138.64 C 31.25 130.79 30.81 122.89 31.36 115.01 C 33.84 87.30 49.99 61.09 74.04 46.96 Z" />
<path fill="#fefffe" opacity="1.00" d=" M 188.75 84.74 C 191.47 82.45 193.94 79.83 196.98 77.95 C 199.74 81.66 201.40 86.02 203.21 90.23 C 206.46 98.46 208.53 107.14 209.27 115.96 C 193.18 129.97 177.13 144.02 161.06 158.05 C 155.91 162.69 150.73 167.47 144.43 170.51 C 138.72 173.62 132.35 175.16 125.97 176.14 C 117.40 176.92 108.59 175.86 100.63 172.54 C 86.44 167.06 74.95 155.06 70.14 140.63 C 64.97 125.84 66.60 108.64 75.12 95.40 C 83.26 103.10 88.90 113.33 98.17 119.84 C 110.72 128.44 127.81 130.11 141.62 123.53 C 148.79 120.57 154.08 114.76 159.90 109.87 C 169.54 101.52 179.08 93.06 188.75 84.74 Z" />
</g>
<g id="#8a2a3aff">
<path fill="#8a2a3a" opacity="1.00" d=" M 47.61 30.50 C 66.93 14.97 91.15 5.49 115.94 4.30 C 119.72 4.39 123.71 3.48 127.37 4.53 C 127.73 4.72 128.46 5.08 128.82 5.27 C 134.49 6.71 140.56 5.94 146.11 8.05 C 150.45 9.73 154.86 11.23 159.31 12.59 C 154.56 16.50 151.91 22.46 146.52 25.63 C 146.17 26.98 145.84 28.34 145.51 29.69 C 139.89 31.09 134.15 32.07 128.75 34.23 C 109.79 32.84 90.19 36.66 74.04 46.96 C 49.99 61.09 33.84 87.30 31.36 115.01 C 30.81 122.89 31.25 130.79 31.92 138.64 C 30.62 143.35 32.13 148.12 32.27 152.86 C 32.35 155.67 33.57 158.23 34.34 160.88 C 32.51 163.21 29.69 164.63 28.24 167.28 C 25.84 171.49 23.60 175.86 20.15 179.33 C 17.64 176.68 15.04 174.00 13.47 170.65 C 12.29 168.16 10.97 165.71 8.97 163.78 C 7.74 162.61 7.37 160.90 6.88 159.35 C 0.73 137.44 0.39 113.74 6.78 91.84 C 13.50 67.78 28.06 46.02 47.61 30.50 Z" />
</g>
<g id="#622f44ff">
<path fill="#622f44" opacity="1.00" d=" M 127.37 4.53 C 133.36 3.91 139.31 5.04 145.20 6.00 C 179.71 12.16 210.92 34.31 228.23 64.78 C 228.34 65.15 228.56 65.89 228.67 66.26 C 228.28 67.29 227.86 68.30 227.44 69.32 C 226.50 69.41 225.55 69.50 224.61 69.59 C 222.59 72.77 221.00 76.56 217.53 78.44 C 212.03 81.48 208.72 87.18 203.21 90.23 C 201.40 86.02 199.74 81.66 196.98 77.95 C 193.94 79.83 191.47 82.45 188.75 84.74 C 179.08 93.06 169.54 101.52 159.90 109.87 C 154.08 114.76 148.79 120.57 141.62 123.53 C 127.81 130.11 110.72 128.44 98.17 119.84 C 88.90 113.33 83.26 103.10 75.12 95.40 C 66.60 108.64 64.97 125.84 70.14 140.63 C 74.95 155.06 86.44 167.06 100.63 172.54 C 108.59 175.86 117.40 176.92 125.97 176.14 C 123.32 177.99 121.11 180.36 118.95 182.73 C 122.06 183.03 125.18 183.36 128.30 183.54 C 112.77 185.91 96.43 181.50 83.91 172.07 C 70.79 162.40 61.90 147.22 59.88 131.05 C 57.92 114.98 62.19 98.03 72.34 85.31 C 82.20 72.32 97.88 64.39 113.97 62.79 C 126.28 61.83 139.02 63.98 149.85 70.08 C 158.34 74.81 165.26 81.89 170.98 89.67 C 178.35 83.65 185.45 77.29 192.56 70.97 C 177.93 50.21 153.93 36.77 128.75 34.23 C 134.15 32.07 139.89 31.09 145.51 29.69 C 145.84 28.34 146.17 26.98 146.52 25.63 C 151.91 22.46 154.56 16.50 159.31 12.59 C 154.86 11.23 150.45 9.73 146.11 8.05 C 140.56 5.94 134.49 6.71 128.82 5.27 C 128.46 5.08 127.73 4.72 127.37 4.53 Z" />
<path fill="#622f44" opacity="1.00" d=" M 32.27 152.86 C 32.13 148.12 30.62 143.35 31.92 138.64 C 34.66 150.01 38.41 161.29 44.88 171.12 C 57.21 190.75 77.46 205.15 100.06 210.35 C 98.86 211.01 97.11 211.43 96.76 212.97 C 96.18 215.01 98.40 216.31 99.40 217.80 C 98.59 218.13 97.79 218.45 96.98 218.79 C 94.03 225.38 86.36 228.45 84.39 235.65 C 80.84 235.43 77.28 235.45 73.72 235.60 C 71.60 235.40 69.81 234.03 67.93 233.14 C 46.40 222.10 28.37 204.41 16.79 183.18 C 13.68 176.97 10.01 170.74 8.97 163.78 C 10.97 165.71 12.29 168.16 13.47 170.65 C 15.04 174.00 17.64 176.68 20.15 179.33 C 23.60 175.86 25.84 171.49 28.24 167.28 C 29.69 164.63 32.51 163.21 34.34 160.88 C 33.57 158.23 32.35 155.67 32.27 152.86 Z" />
</g>
<g id="#2e3653ff">
<path fill="#2e3653" opacity="1.00" d=" M 227.44 69.32 C 227.86 68.30 228.28 67.29 228.67 66.26 C 231.48 69.82 233.09 74.10 234.89 78.22 C 243.59 98.86 246.37 121.91 242.90 144.04 C 238.26 175.07 220.79 203.89 195.54 222.49 C 164.94 245.82 122.79 252.55 86.28 240.70 C 82.01 239.23 77.55 238.08 73.72 235.60 C 77.28 235.45 80.84 235.43 84.39 235.65 C 86.36 228.45 94.03 225.38 96.98 218.79 C 97.79 218.45 98.59 218.13 99.40 217.80 C 98.40 216.31 96.18 215.01 96.76 212.97 C 97.11 211.43 98.86 211.01 100.06 210.35 C 115.18 213.86 131.19 213.27 146.07 208.88 C 163.46 203.52 179.24 192.84 190.41 178.44 C 202.07 163.79 208.85 145.28 209.36 126.55 C 206.52 128.61 203.92 130.95 201.27 133.24 C 187.77 145.10 174.16 156.81 160.73 168.73 C 151.73 176.76 140.29 182.08 128.30 183.54 C 125.18 183.36 122.06 183.03 118.95 182.73 C 121.11 180.36 123.32 177.99 125.97 176.14 C 132.35 175.16 138.72 173.62 144.43 170.51 C 150.73 167.47 155.91 162.69 161.06 158.05 C 177.13 144.02 193.18 129.97 209.27 115.96 C 208.53 107.14 206.46 98.46 203.21 90.23 C 208.72 87.18 212.03 81.48 217.53 78.44 C 221.00 76.56 222.59 72.77 224.61 69.59 C 225.55 69.50 226.50 69.41 227.44 69.32 Z" />
</g>
</svg>
