<?xml version="1.0" encoding="utf-8"?>
<!-- Generator: Adobe Illustrator 26.0.3, SVG Export Plug-In . SVG Version: 6.00 Build 0)  -->
<svg version="1.1" id="Layer_1" xmlns="http://www.w3.org/2000/svg" xmlns:xlink="http://www.w3.org/1999/xlink" x="0px" y="0px"
	 viewBox="0 0 250 250" style="enable-background:new 0 0 250 250;" xml:space="preserve">
<style type="text/css">
	.st0{fill:#3D3125;}
	.st1{fill:#7C4F22;}
	.st2{fill:#725A42;}
	.st3{fill:#7C5022;}
	.st4{fill:#FEFFFE;}
	.st5{fill:#222C38;}
	.st6{fill:#F69B85;}
	.st7{fill:#E6B2A7;}
	.st8{fill:#8F7D79;}
	.st9{fill:#F8F8F6;}
	.st10{fill:#E2AEA2;}
	.st11{fill:#FFF5F6;}
	.st12{fill:#0B0605;}
	.st13{fill:#0A0708;}
	.st14{fill:#D0BFB8;}
	.st15{fill:#050608;}
	.st16{fill:#050607;}
	.st17{fill:#F1DCDB;}
</style>
<g id="_x23_3d3125ff">
	<path class="st0" d="M171.8,53c1.6-1.9,2.7-4.6,5.4-5.3c2.9,10.5-0.1,22.1-7.1,30.2c5.9-2,11.6-4.7,18-4.9
		c10.7-1.3,22.2,1.1,30.4,8.5c2,3,3.1,6.9,1.4,10.3c-2.9,7.6-11.5,10.4-18.8,11.9c-9.4,1.8-19.1,1.8-28.5,0.4
		c-3.8-0.4-3.1-4.8-4.4-7.4C164.1,87.1,160,76,150,71.1c0.8,0.1,2.3,0.2,3.1,0.2c-8.9-8-21.1-12.3-33-11.6
		c-16,0.9-30.9,10.7-38.8,24.5l-0.6-0.1c-6.2-2.5-11.9-6.3-15.9-11.7c2.5-0.6,3.7,2.1,5.3,3.4c2.7,3,6.3,4.8,9.9,6.3
		c3.6-4.6,7.8-8.7,11.7-13.1c-10.5-1.9-20.7-5.8-29-12.6c-1-0.7-2-1.4-3-2.1c0.4,2.3,0.9,4.7,1.5,7c0.6,3.7,3.7,6.6,3.4,10.4
		c-4.2-5.6-6.4-12.8-6.1-19.8c2.2,0,3.7,1.8,5.3,3c8.5,7.1,19.2,11.6,30.3,12.3c2.6-0.3,4.4-2.5,6.8-3.5c16-8.8,36.9-6.4,51.1,4.9
		C159.7,65.1,166.5,59.6,171.8,53 M154,69.6c2,3.3,4.9,6,7.2,9.1c0.8,0.8,1.4,2.6,2.9,1.9c3.4-0.7,5.1-4,6.9-6.5
		c4.9-6.6,6.7-15.5,5-23.5C169.9,58.1,162.7,65,154,69.6 M188.4,74.1c-8.5,0.8-16.3,4.4-24,7.8c-0.9,1.6,1,3.1,1.4,4.6
		c0.4,0.2,1.2,0.7,1.6,0.9l-1,0.4c2.8,4.6,4.2,9.7,5.9,14.8l0.6,0.5c11.8,1.3,24.2,1.4,35.5-2.7c4.4-1.8,8.9-4.7,10.4-9.5
		c1.5-3.7-0.2-8-3.4-10.2C207.6,75.2,197.8,72.8,188.4,74.1z"/>
	<path class="st0" d="M33.6,90.6c5.5-5.2,13.2-7.3,20.5-7.7c8.7-0.8,17.2,1,25.8,1.9l0.5,0.3c-4.4,6.6-6.9,14.3-8,22.1
		c-0.4,1-0.8,2-1.1,3c-10.8,0.2-21.9,1.4-32.4-1.5c-3.5-1.2-7.7-2.7-9.1-6.5C28.2,98,30.8,93.6,33.6,90.6 M43.2,86.2
		c-1.9,0.8-4.2,1.3-5.5,3.1c-5,2.5-9.5,9.4-5.5,14.5c6.3,5.1,14.9,5.6,22.7,5.5c5.4-0.2,10.9,0.4,16.3-0.6c0-5.2,1.7-10.2,3.3-15.1
		c-0.5-0.1-1.6-0.4-2.1-0.5c-2.7-1.1-5.6-1.5-8.6-1.4c0.3-0.3,1-0.9,1.4-1.2c2.6,0.3,5.1,0.9,7.7,1.2c0.2-0.4,0.6-1.2,0.8-1.6
		c-0.1,0.6-0.2,1.9-0.3,2.5c3.1-0.4,3.3-4.3,4.6-6.6C66.6,83.8,54.5,82.3,43.2,86.2z"/>
	<path class="st0" d="M82.5,92.1c7.2-3.9,15.9-1.1,22.2,3.2c5.8,4.3,6.5,13.7,1.5,18.8c-3.2,3.7-8.5,4.5-13.1,3.9
		c-1.3-0.8-2.7-1.7-3.9-2.6c0.8,0.1,2.4,0.2,3.2,0.3c3.4,0.7,6.9,0.8,10.1-0.6c3.5-2.1,6.4-5.9,6-10.2c0-7.8-9.4-13.8-16.5-10.4
		c-4.1,1.6-6.9,5.9-6.9,10.3c-0.1,3.4,2.1,6.1,3.4,9.1c-5.9-3.8-6-13-1.2-17.7c2-2.5,5.5-2.9,8.1-4.6c-4.1-0.6-8.8-1.1-12.4,1.5
		L82.5,92.1z"/>
</g>
<g id="_x23_7c4f22ff">
	<path class="st1" d="M154,69.6c8.7-4.6,15.8-11.4,22.1-19c1.7,8-0.1,16.9-5,23.5c-1.9,2.5-3.6,5.8-6.9,6.5
		c-1.5,0.7-2.2-1.1-2.9-1.9C159,75.5,156,72.9,154,69.6z"/>
	<path class="st1" d="M165.8,86.5c9.6-4.2,20-7.6,30.7-6.8c3.9,0.6,8.5,1.1,10.9,4.6c-3.8-1.2-7.4-3-11.3-3.2
		c-10-0.7-19.6,2.6-28.7,6.3C167,87.2,166.2,86.7,165.8,86.5z"/>
	<path class="st1" d="M36.5,98.3c7.4-7.3,18.8-8.8,28.7-7.8c-0.3,0.3-1,0.9-1.4,1.2c-5.2-0.1-10.6,0.1-15.6,1.7
		C44.1,94.5,40.6,97.1,36.5,98.3z"/>
</g>
<g id="_x23_725a42ff">
	<path class="st2" d="M59.7,54.5c1,0.7,2,1.4,3,2.1c-0.5,1.6-1.1,3.3-1.5,4.9C60.6,59.1,60.2,56.8,59.7,54.5z"/>
</g>
<g id="_x23_7c5022ff">
	<path class="st3" d="M62.7,56.5c8.3,6.8,18.5,10.7,29,12.6c-3.9,4.3-8.1,8.4-11.7,13.1c-3.7-1.5-7.3-3.3-9.9-6.3
		c-1.6-1.3-2.9-4-5.3-3.4c0-0.1-0.1-0.4-0.2-0.5c0.3-3.8-2.8-6.8-3.4-10.4C61.7,59.8,62.2,58.2,62.7,56.5z"/>
</g>
<g id="_x23_fefffeff">
	<path class="st4" d="M81.2,84.2c7.9-13.8,22.8-23.6,38.8-24.5c12-0.7,24.1,3.6,33,11.6c-0.8-0.1-2.3-0.2-3.1-0.2
		c-6.5-0.4-13.3-0.4-19.5,2.1c-10.1,4-17.2,14.9-16.1,25.8c0.6,6.3,3.4,12,6.5,17.4c-11,0.5-22.1,3.2-31.3,9.3
		c-4.8,2.7-8.4,7.1-12.5,10.7c-3.9-9.2-5.5-19.3-4.5-29.2c1.1-7.8,3.6-15.5,8-22.1L80,84.8l-0.4-0.5l1-0.2L81.2,84.2 M82.5,92.1
		l-0.1-0.3c-3.7,2.7-6.1,7.4-5.2,12c1.5,7.6,8.4,13.1,15.8,14.2c4.6,0.6,9.9-0.2,13.1-3.9c5.1-5.1,4.3-14.5-1.5-18.8
		C98.4,91,89.7,88.2,82.5,92.1z"/>
</g>
<g id="_x23_222c38ff">
	<path class="st5" d="M130.5,73.3c6.1-2.5,12.9-2.6,19.5-2.1c10,4.9,14.1,16,18.2,25.6c1.2,2.6,0.6,7.1,4.4,7.4
		c2.2,11.1,2,22.9-1.3,33.8c-0.5,1.6-0.9,3.3-0.7,5.1c4.5,8.4,5.7,18.5,3.8,27.8c-1.7,8.3-8.1,15.5-16.3,17.7
		c-3.6,1.1-7.5,0.9-11.2,0.6c-3,4.5-7.2,8.7-12.6,10.1c-0.4,0-1.3,0-1.8,0c5.2-2.3,10.3-5.2,13.2-10.3c-3.8-1.2-7.6-2.6-10.9-4.7
		c0.4,0,1.3,0,1.7,0c6.5,3.2,14.1,5.6,21.3,3.4c7.7-2.2,13.7-8.8,15.5-16.5c2.2-11.7-0.2-24.4-7.3-34.1c-8.7-11.1-22.3-17.5-36.2-19
		c-13.2-1.7-26.9,1.1-38.5,7.6c-0.4,0-1.2,0-1.7,0c9.2-6.1,20.3-8.8,31.3-9.3c-3.1-5.4-6-11.1-6.5-17.4
		C113.3,88.2,120.4,77.2,130.5,73.3 M151.8,93.9c3.4,1.1,7.3,2,9.4,5.1c2.4,2.5,2.8,6,2.7,9.3c2.3-0.7,1.9-3.4,2-5.3
		c0.1-3.1-1.4-6.2-4.1-7.9C158.9,93,155.1,93.4,151.8,93.9 M145.4,96.7c-5.4,3.2-8,10.8-4.4,16.2c3.2,6.4,12.7,7.9,18,3.1
		c4.3-3.6,5.2-10.5,2.1-15.2C158.2,95.4,150.6,94.1,145.4,96.7z"/>
</g>
<g id="_x23_f69b85ff">
	<path class="st6" d="M188.4,74.1c9.4-1.3,19.2,1.1,27,6.6c3.1,2.3,4.9,6.5,3.4,10.2c-1.4,4.8-6,7.7-10.4,9.5
		c-11.3,4.1-23.7,4-35.5,2.7l-0.6-0.5c-1.6-5.1-3-10.2-5.9-14.8l1-0.4c9.1-3.8,18.7-7.1,28.7-6.3c4,0.2,7.6,2,11.3,3.2
		c-2.4-3.6-7.1-4.1-10.9-4.6c-10.6-0.7-21,2.7-30.7,6.8c-0.4-1.5-2.3-3-1.4-4.6C172.1,78.5,179.9,74.8,188.4,74.1z"/>
	<path class="st6" d="M43.2,86.2c11.2-3.9,23.4-2.4,34.8-0.2c-1.3,2.3-1.5,6.2-4.6,6.6c0.1-0.6,0.2-1.9,0.3-2.5
		c-0.2,0.4-0.6,1.2-0.8,1.6c-2.6-0.3-5.2-0.9-7.7-1.2c-9.9-1-21.3,0.5-28.7,7.8c4.1-1.2,7.6-3.8,11.8-4.9c5-1.6,10.4-1.8,15.6-1.7
		c2.9-0.1,5.8,0.4,8.6,1.4c-1,4.6-1.8,9.2-2.6,13.8c-11.5,1.6-24.2,3.1-34.7-2.9c-2.9-1.2-3.2-4.8-2.4-7.4c1.5-2.6,3.7-4.7,5-7.3
		C39,87.5,41.3,87,43.2,86.2z"/>
</g>
<g id="_x23_e6b2a7ff">
	<path class="st7" d="M32.3,103.8c-4-5.1,0.5-12,5.5-14.5c-1.3,2.7-3.6,4.7-5,7.3c-0.9,2.6-0.5,6.3,2.4,7.4
		c10.5,6,23.2,4.4,34.7,2.9c0.8-4.6,1.7-9.2,2.6-13.8c0.5,0.1,1.6,0.4,2.1,0.5c-1.6,4.9-3.2,9.9-3.3,15.1c-5.4,1-10.9,0.3-16.3,0.6
		C47.2,109.3,38.5,108.9,32.3,103.8z"/>
	<path class="st7" d="M145.4,96.7c5.2-2.7,12.8-1.3,15.7,4.1c3,4.7,2.1,11.6-2.1,15.2c-5.2,4.8-14.7,3.3-18-3.1
		C137.4,107.5,140,99.9,145.4,96.7 M147,99.8c-0.9,0.7-1.7,1.3-2.6,2c-1.5,2.1-2.6,4.6-2.2,7.3c0.1,5.1,6.1,8.8,10.8,6.8
		c5.3-1.8,8.4-9,4.7-13.7C155.5,98.6,150.6,98.1,147,99.8z"/>
</g>
<g id="_x23_8f7d79ff">
	<path class="st8" d="M82.4,91.8l0.1,0.3l0.4,1.2c-1.9,2.2-4.3,4.5-4,7.7c-0.6,5.9,4,10.8,8.7,13.7c0.2-0.2,0.7-0.5,0.9-0.6
		c0.5-0.5,1.5-1.4,1.9-1.8c1.2,0.8,2.5,1.6,3.8,2.3c-0.5,0.3-1.5,0.9-2,1.2c-0.8-0.1-2.4-0.3-3.2-0.3c1.3,0.9,2.6,1.8,3.9,2.6
		c-7.4-1.2-14.4-6.7-15.8-14.2C76.3,99.2,78.7,94.5,82.4,91.8z"/>
</g>
<g id="_x23_f8f8f6ff">
	<path class="st9" d="M83,93.3c3.6-2.5,8.3-2,12.4-1.5c-2.6,1.7-6,2.1-8.1,4.6c-4.9,4.7-4.7,13.9,1.2,17.7c-0.2,0.2-0.7,0.5-0.9,0.6
		c-4.7-2.9-9.3-7.8-8.7-13.7C78.6,97.8,81.1,95.5,83,93.3z"/>
</g>
<g id="_x23_e2aea2ff">
	<path class="st10" d="M92,94.7c7.1-3.4,16.5,2.5,16.5,10.4c0.4,4.3-2.5,8-6,10.2c-1.1-0.2-2.3-0.4-3.5-0.6c2.7-1.7,5.4-4.1,5.7-7.5
		c0.8-4.3-2-9.5-6.6-9.9c-5-0.9-10.2,3.7-9.9,8.8c-0.1,2.3,0.6,4.6,2.3,6.2c-0.5,0.5-1.5,1.4-1.9,1.8c-1.2-3-3.5-5.7-3.4-9.1
		C85,100.6,87.8,96.3,92,94.7z"/>
</g>
<g id="_x23_fff5f6ff">
	<path class="st11" d="M151.8,93.9c3.3-0.5,7.2-0.8,10.1,1.2c2.7,1.7,4.2,4.8,4.1,7.9c-0.1,1.9,0.2,4.6-2,5.3
		c0.1-3.3-0.4-6.8-2.7-9.3C159,95.8,155.2,94.9,151.8,93.9z"/>
	<path class="st11" d="M97.4,99.4c0.6,0.1,1.7,0.2,2.2,0.2c0,1.4-0.5,2.6-1.9,3c-0.3-0.4-0.9-1.2-1.2-1.7
		C96.7,100.6,97.1,99.8,97.4,99.4z"/>
	<path class="st11" d="M152.6,104.5c-0.6-1.4,0.5-2.3,1.4-3.2c0.9,0.8,1.5,1.8,1.6,3.1C154.6,104.6,153.6,104.6,152.6,104.5z"/>
	<path class="st11" d="M91.3,125.7c11.6-6.6,25.3-9.3,38.5-7.6c13.8,1.5,27.5,7.9,36.2,19c7.1,9.7,9.5,22.3,7.3,34.1
		c-1.9,7.7-7.9,14.3-15.5,16.5c-7.2,2.2-14.7-0.2-21.3-3.4c-5.6-3-11.8-6.4-18.4-5.4c-6.7,1.2-9.8,8.2-15.8,10.5
		c-6,2.3-12.7,1.2-18.4-1.1c-1.7-1.1-3.3-2-5-3c-3.3-2.8-6.5-5.9-8.1-10c-2.7-5.3-2.3-11.5-2-17.3C70.4,144.4,79.6,132.6,91.3,125.7
		 M145.1,138.1c-5.2,3.3-12.1,7.9-11.4,14.9c0.5,0.4,1.6,1.1,2.1,1.5c8.7,0.4,16.6-5.4,21.1-12.4c0.7-1.7,0.6-3.5,0.4-5.3
		C153.3,134.7,148.9,136.3,145.1,138.1 M86.4,139.7c-0.3,2.7,0.6,5.3,2.7,7.1c5.6,5,13.2,8.8,20.9,7.6c2.2,0,3.8-2.5,3.2-4.6
		c-2-4.8-6.7-7.6-11.2-9.8C97.2,138.1,91.1,136.3,86.4,139.7z"/>
</g>
<g id="_x23_0b0605ff">
	<path class="st12" d="M88.2,106c-0.3-5.1,4.9-9.7,9.9-8.8c4.6,0.4,7.4,5.6,6.6,9.9c-0.3,3.4-3,5.8-5.7,7.5c-1.6,0-3.1,0.1-4.7,0
		c-1.3-0.7-2.6-1.5-3.8-2.3C88.8,110.6,88,108.3,88.2,106 M97.4,99.4c-0.2,0.4-0.7,1.2-0.9,1.6c0.3,0.4,0.9,1.2,1.2,1.7
		c1.3-0.5,1.9-1.7,1.9-3C99,99.6,97.9,99.5,97.4,99.4z"/>
	<path class="st12" d="M71.4,110.2c0.3-1,0.7-2,1.1-3c-1,9.9,0.6,20,4.5,29.2c4.2-3.6,7.7-7.9,12.5-10.7c0.4,0,1.2,0,1.7,0
		c-11.6,6.9-20.9,18.7-22.7,32.3c-0.4,5.8-0.8,11.9,2,17.3c1.6,4.1,4.8,7.2,8.1,10c1.7,0.9,3.4,1.9,5,3c5.8,2.3,12.5,3.4,18.4,1.1
		c6.1-2.3,9.2-9.3,15.8-10.5c6.6-1,12.8,2.5,18.4,5.4c-0.4,0-1.3,0-1.7,0c-5.2-2.5-10.9-5.6-16.9-4.5c-5.7,1.6-9.1,6.9-13.8,10.1
		c3.4,3.4,6.5,7.6,11.3,9.2c5.4,2.3,11.6,1.6,17.1,0.2c0.4,0,1.3,0,1.8,0c-8.8,3.9-20.1,2.6-26.9-4.6c-1.4-1.5-2.7-3.1-3.9-4.7
		c-8,2.9-17,1.3-24-3.4c-7.7-4.7-12.3-13.7-12-22.7c-0.3-9.8,3.7-19.1,9.3-26.9c-0.5-1-1-2.1-1.5-3.1
		C72.2,126.4,70.9,118.2,71.4,110.2z"/>
</g>
<g id="_x23_0a0708ff">
	<path class="st13" d="M147,99.8c3.6-1.7,8.5-1.2,10.7,2.4c3.6,4.7,0.6,11.9-4.7,13.7c-4.7,2-10.7-1.7-10.8-6.8
		c-0.3-2.7,0.7-5.2,2.2-7.3C145.3,101.1,146.2,100.4,147,99.8 M152.6,104.5c1,0.1,2,0.1,2.9-0.1c0-1.2-0.7-2.2-1.6-3.1
		C153.1,102.2,152.1,103.1,152.6,104.5z"/>
</g>
<g id="_x23_d0bfb8ff">
	<path class="st14" d="M94.3,114.6c1.6,0,3.1,0,4.7,0c1.2,0.2,2.3,0.4,3.5,0.6c-3.2,1.4-6.8,1.3-10.1,0.6
		C92.8,115.5,93.8,114.9,94.3,114.6z"/>
</g>
<g id="_x23_050608ff">
	<path class="st15" d="M145.1,138.1c3.8-1.8,8.1-3.4,12.1-1.4c0.2,1.8,0.3,3.6-0.4,5.3c-4.5,7-12.4,12.9-21.1,12.4
		c-0.5-0.4-1.6-1.1-2.1-1.5C133.1,146,139.9,141.4,145.1,138.1z"/>
</g>
<g id="_x23_050607ff">
	<path class="st16" d="M86.4,139.7c4.6-3.4,10.7-1.6,15.6,0.4c4.5,2.2,9.2,5,11.2,9.8c0.7,2.1-1,4.5-3.2,4.6
		c-7.7,1.2-15.3-2.6-20.9-7.6C87,145.1,86.1,142.4,86.4,139.7z"/>
</g>
<g id="_x23_f1dcdbff">
	<path class="st17" d="M104,189.9c4.7-3.2,8.1-8.6,13.8-10.1c6-1.1,11.6,1.9,16.9,4.5c3.4,2.1,7.1,3.5,10.9,4.7
		c-2.8,5.1-8,8.1-13.2,10.3c-5.6,1.4-11.7,2.1-17.1-0.2C110.5,197.5,107.4,193.3,104,189.9z"/>
</g>
</svg>
