<?xml version="1.0" encoding="UTF-8" ?>
<!DOCTYPE svg PUBLIC "-//W3C//DTD SVG 1.1//EN" "http://www.w3.org/Graphics/SVG/1.1/DTD/svg11.dtd">
<svg width="250pt" height="250pt" viewBox="0 0 250 250" version="1.1" xmlns="http://www.w3.org/2000/svg">
<g id="#000001ff">
<path fill="#000001" opacity="1.00" d=" M 0.00 0.00 L 250.00 0.00 L 250.00 250.00 L 0.00 250.00 L 0.00 0.00 M 126.26 41.33 C 123.51 42.95 120.68 44.47 118.09 46.34 C 117.01 45.09 114.38 46.57 115.23 48.11 C 110.63 49.70 106.62 52.66 102.64 55.40 C 95.03 58.91 87.92 63.73 80.58 67.85 C 75.36 70.89 69.54 73.42 64.85 77.14 C 63.72 76.11 61.49 77.73 62.34 79.11 C 59.54 81.69 56.94 84.74 55.63 88.34 C 54.43 88.01 54.76 91.81 54.14 93.12 C 52.21 111.94 52.27 139.05 54.12 157.89 C 55.46 165.63 61.24 172.63 68.21 175.92 C 67.39 177.45 70.02 178.89 71.09 177.66 C 87.82 188.21 105.41 197.38 122.35 207.60 C 124.17 208.27 126.04 210.72 128.01 208.91 C 139.98 202.08 152.34 195.45 163.87 188.21 C 166.95 186.10 172.28 184.89 173.76 182.35 C 177.78 180.98 181.33 178.49 184.97 176.35 C 188.88 173.29 194.83 170.56 195.81 165.37 C 197.79 163.64 198.96 160.70 199.03 158.04 C 202.10 154.32 198.92 145.31 199.94 140.06 C 193.85 140.66 184.31 138.50 180.07 141.00 C 179.85 145.55 180.09 150.11 179.72 154.67 C 178.14 159.58 172.29 160.22 168.79 163.23 C 162.20 161.53 157.22 156.23 150.77 154.11 C 151.62 152.57 148.99 151.09 147.91 152.34 C 142.00 148.83 136.10 145.19 129.99 141.99 C 130.06 131.01 129.97 120.03 130.04 109.05 C 133.03 106.93 137.77 105.58 139.72 103.08 C 146.49 100.20 152.68 96.17 158.91 92.30 C 163.68 88.60 169.10 86.88 174.23 90.89 C 173.39 92.44 176.05 93.88 177.12 92.62 C 177.40 92.89 177.94 93.45 178.21 93.72 C 179.36 99.19 177.86 107.36 179.98 110.91 C 186.62 111.24 193.27 110.98 199.92 110.95 C 199.69 105.16 201.42 96.98 198.68 92.88 C 199.84 91.17 199.16 87.54 196.94 87.31 C 190.84 75.45 176.76 70.57 165.77 64.11 C 166.62 62.57 163.99 61.10 162.91 62.34 C 155.34 57.75 147.93 52.61 139.77 49.11 C 140.62 47.57 137.99 46.09 136.91 47.34 C 133.60 44.97 129.94 43.05 126.26 41.33 Z" />
</g>
<g id="#e7f1f9ff">
<path fill="#e7f1f9" opacity="1.00" d=" M 126.26 41.33 C 129.94 43.05 133.60 44.97 136.91 47.34 C 137.61 48.28 138.56 49.03 139.77 49.11 C 147.93 52.61 155.34 57.75 162.91 62.34 C 163.61 63.28 164.55 64.03 165.77 64.11 C 176.76 70.57 190.84 75.45 196.94 87.31 C 196.99 89.30 197.79 91.13 198.68 92.88 C 197.43 98.95 204.13 113.92 192.31 109.93 C 190.16 103.13 178.98 104.61 180.18 95.86 C 179.56 95.11 178.91 94.40 178.21 93.72 C 177.94 93.45 177.40 92.89 177.12 92.62 C 176.42 91.67 175.43 90.99 174.23 90.89 C 169.10 86.88 163.68 88.60 158.91 92.30 C 152.55 89.14 147.23 84.04 141.49 79.87 C 142.68 79.23 143.88 78.62 145.09 78.02 C 147.56 78.63 149.56 75.02 146.21 74.86 C 145.67 74.67 144.58 74.28 144.04 74.09 C 143.83 72.55 142.38 71.65 140.91 72.02 C 134.09 69.10 127.10 59.93 120.17 67.40 C 113.27 66.46 108.02 59.50 102.64 55.40 C 106.62 52.66 110.63 49.70 115.23 48.11 C 116.44 48.03 117.38 47.28 118.09 46.34 C 120.68 44.47 123.51 42.95 126.26 41.33 Z" />
</g>
<g id="#797e82ff">
<path fill="#797e82" opacity="1.00" d=" M 115.23 48.11 C 114.38 46.57 117.01 45.09 118.09 46.34 C 117.38 47.28 116.44 48.03 115.23 48.11 Z" />
</g>
<g id="#797979ff">
<path fill="#797979" opacity="1.00" d=" M 136.91 47.34 C 137.99 46.09 140.62 47.57 139.77 49.11 C 138.56 49.03 137.61 48.28 136.91 47.34 Z" />
</g>
<g id="#a4d1f5ff">
<path fill="#a4d1f5" opacity="1.00" d=" M 80.58 67.85 C 87.92 63.73 95.03 58.91 102.64 55.40 C 108.02 59.50 113.27 66.46 120.17 67.40 C 112.25 72.26 103.95 76.43 96.11 81.43 C 91.67 76.26 82.03 74.22 80.58 67.85 Z" />
</g>
<g id="#777777ff">
<path fill="#777777" opacity="1.00" d=" M 162.91 62.34 C 163.99 61.10 166.62 62.57 165.77 64.11 C 164.55 64.03 163.61 63.28 162.91 62.34 Z" />
</g>
<g id="#010203ff">
<path fill="#010203" opacity="1.00" d=" M 120.17 67.40 C 127.10 59.93 134.09 69.10 140.91 72.02 C 141.30 73.43 142.57 74.33 144.04 74.09 C 144.58 74.28 145.67 74.67 146.21 74.86 C 145.79 75.90 145.42 76.95 145.09 78.02 C 143.88 78.62 142.68 79.23 141.49 79.87 C 135.74 82.91 130.30 86.50 124.67 89.74 C 120.35 91.86 116.03 94.25 112.72 97.81 C 111.35 98.62 110.50 100.01 110.71 101.63 C 110.51 102.19 110.11 103.31 109.91 103.87 C 108.64 118.13 108.08 133.04 109.75 147.23 C 109.97 147.75 110.42 148.79 110.65 149.31 C 113.19 155.94 120.01 159.00 125.91 162.00 C 126.25 163.45 127.60 164.34 129.08 164.02 C 130.35 164.69 131.65 165.31 132.92 165.98 C 133.24 167.46 134.61 168.35 136.09 167.99 C 139.79 170.28 145.11 171.63 146.90 175.80 C 139.85 178.81 133.87 183.84 126.90 186.94 C 121.57 185.39 117.18 181.31 112.10 178.97 C 111.73 177.52 110.37 176.65 108.90 177.02 C 101.16 172.93 93.94 167.89 86.09 163.99 C 85.75 162.53 84.37 161.65 82.90 162.01 C 79.74 160.31 76.32 158.82 73.78 156.21 C 74.10 136.06 74.15 115.91 73.82 95.77 C 75.53 93.60 77.86 92.01 80.04 90.36 C 81.68 89.61 83.31 88.83 84.94 88.05 C 86.40 88.33 87.72 87.45 88.10 86.02 C 90.84 84.61 93.49 83.05 96.11 81.43 C 103.95 76.43 112.25 72.26 120.17 67.40 Z" />
</g>
<g id="#74bbf4ff">
<path fill="#74bbf4" opacity="1.00" d=" M 64.85 77.14 C 69.54 73.42 75.36 70.89 80.58 67.85 C 82.03 74.22 91.67 76.26 96.11 81.43 C 93.49 83.05 90.84 84.61 88.10 86.02 C 86.62 85.64 85.21 86.55 84.94 88.05 C 83.31 88.83 81.68 89.61 80.04 90.36 C 74.23 86.88 68.76 82.88 62.95 79.39 C 63.73 78.77 64.36 78.02 64.85 77.14 Z" />
</g>
<g id="#6b747bff">
<path fill="#6b747b" opacity="1.00" d=" M 140.91 72.02 C 142.38 71.65 143.83 72.55 144.04 74.09 C 142.57 74.33 141.30 73.43 140.91 72.02 Z" />
</g>
<g id="#747e86ff">
<path fill="#747e86" opacity="1.00" d=" M 146.21 74.86 C 149.56 75.02 147.56 78.63 145.09 78.02 C 145.42 76.95 145.79 75.90 146.21 74.86 Z" />
</g>
<g id="#335e81ff">
<path fill="#335e81" opacity="1.00" d=" M 62.34 79.11 C 61.49 77.73 63.72 76.11 64.85 77.14 C 64.36 78.02 63.73 78.77 62.95 79.39 L 62.34 79.11 Z" />
</g>
<g id="#51aaf4ff">
<path fill="#51aaf4" opacity="1.00" d=" M 62.34 79.11 L 62.95 79.39 C 68.76 82.88 74.23 86.88 80.04 90.36 C 77.86 92.01 75.53 93.60 73.82 95.77 C 73.57 96.27 73.07 97.28 72.81 97.78 C 72.42 98.84 72.10 99.92 71.84 101.03 C 66.99 96.12 59.67 93.99 55.63 88.34 C 56.94 84.74 59.54 81.69 62.34 79.11 Z" />
</g>
<g id="#add5f6ff">
<path fill="#add5f6" opacity="1.00" d=" M 124.67 89.74 C 130.30 86.50 135.74 82.91 141.49 79.87 C 147.23 84.04 152.55 89.14 158.91 92.30 C 152.68 96.17 146.49 100.20 139.72 103.08 C 135.57 98.55 123.68 97.22 124.67 89.74 Z" />
</g>
<g id="#355773ff">
<path fill="#355773" opacity="1.00" d=" M 84.94 88.05 C 85.21 86.55 86.62 85.64 88.10 86.02 C 87.72 87.45 86.40 88.33 84.94 88.05 Z" />
</g>
<g id="#89898aff">
<path fill="#89898a" opacity="1.00" d=" M 196.94 87.31 C 199.16 87.54 199.84 91.17 198.68 92.88 C 197.79 91.13 196.99 89.30 196.94 87.31 Z" />
</g>
<g id="#349ff6ff">
<path fill="#349ff6" opacity="1.00" d=" M 54.14 93.12 C 54.76 91.81 54.43 88.01 55.63 88.34 C 59.67 93.99 66.99 96.12 71.84 101.03 C 71.91 105.40 71.97 109.78 71.97 114.15 C 65.96 110.43 60.62 105.61 54.07 102.79 C 54.03 99.56 53.99 96.34 54.14 93.12 Z" />
</g>
<g id="#86c3f4ff">
<path fill="#86c3f4" opacity="1.00" d=" M 112.72 97.81 C 116.03 94.25 120.35 91.86 124.67 89.74 C 123.68 97.22 135.57 98.55 139.72 103.08 C 137.77 105.58 133.03 106.93 130.04 109.05 C 129.78 109.31 129.26 109.81 129.00 110.07 C 124.01 113.82 118.09 102.02 112.31 101.22 C 112.70 100.11 112.84 98.98 112.72 97.81 Z" />
</g>
<g id="#71797eff">
<path fill="#71797e" opacity="1.00" d=" M 174.23 90.89 C 175.43 90.99 176.42 91.67 177.12 92.62 C 176.05 93.88 173.39 92.44 174.23 90.89 Z" />
</g>
<g id="#053c69ff">
<path fill="#053c69" opacity="1.00" d=" M 54.12 157.89 C 52.27 139.05 52.21 111.94 54.14 93.12 C 53.99 96.34 54.03 99.56 54.07 102.79 C 54.04 107.11 54.00 111.42 54.08 115.74 C 53.97 129.79 53.90 143.84 54.12 157.89 Z" />
</g>
<g id="#828c94ff">
<path fill="#828c94" opacity="1.00" d=" M 198.68 92.88 C 201.42 96.98 199.69 105.16 199.92 110.95 C 193.27 110.98 186.62 111.24 179.98 110.91 L 180.02 109.97 C 184.11 109.97 188.21 109.96 192.31 109.93 C 204.13 113.92 197.43 98.95 198.68 92.88 Z" />
</g>
<g id="#2c3134ff">
<path fill="#2c3134" opacity="1.00" d=" M 178.21 93.72 C 178.91 94.40 179.56 95.11 180.18 95.86 C 180.14 100.56 180.03 105.27 180.02 109.97 L 179.98 110.91 C 177.86 107.36 179.36 99.19 178.21 93.72 Z" />
</g>
<g id="#09375cff">
<path fill="#09375c" opacity="1.00" d=" M 72.81 97.78 C 73.07 97.28 73.57 96.27 73.82 95.77 C 74.15 115.91 74.10 136.06 73.78 156.21 C 73.51 155.71 72.98 154.71 72.72 154.22 C 73.12 135.41 73.18 116.59 72.81 97.78 Z" />
</g>
<g id="#cbe2f3ff">
<path fill="#cbe2f3" opacity="1.00" d=" M 180.18 95.86 C 178.98 104.61 190.16 103.13 192.31 109.93 C 188.21 109.96 184.11 109.97 180.02 109.97 C 180.03 105.27 180.14 100.56 180.18 95.86 Z" />
</g>
<g id="#1378c6ff">
<path fill="#1378c6" opacity="1.00" d=" M 71.84 101.03 C 72.10 99.92 72.42 98.84 72.81 97.78 C 73.18 116.59 73.12 135.41 72.72 154.22 C 71.38 145.25 72.20 136.16 71.97 127.15 C 71.98 122.81 72.04 118.48 71.97 114.15 C 71.97 109.78 71.91 105.40 71.84 101.03 Z" />
</g>
<g id="#466f8fff">
<path fill="#466f8f" opacity="1.00" d=" M 110.71 101.63 C 110.50 100.01 111.35 98.62 112.72 97.81 C 112.84 98.98 112.70 100.11 112.31 101.22 C 111.91 101.32 111.11 101.53 110.71 101.63 Z" />
</g>
<g id="#6ab9f9ff">
<path fill="#6ab9f9" opacity="1.00" d=" M 112.31 101.22 C 118.09 102.02 124.01 113.82 129.00 110.07 C 128.95 111.74 128.86 115.09 128.81 116.77 C 128.49 119.49 128.23 122.25 127.85 124.98 C 122.16 121.76 117.10 117.47 111.10 114.79 C 110.98 110.40 110.88 106.02 110.71 101.63 C 111.11 101.53 111.91 101.32 112.31 101.22 Z" />
</g>
<g id="#3684c4ff">
<path fill="#3684c4" opacity="1.00" d=" M 109.91 103.87 C 110.11 103.31 110.51 102.19 110.71 101.63 C 110.88 106.02 110.98 110.40 111.10 114.79 C 111.07 119.43 110.98 124.09 111.09 128.73 C 111.06 133.06 111.04 137.40 111.08 141.74 C 110.97 143.63 110.75 147.41 110.65 149.31 C 110.42 148.79 109.97 147.75 109.75 147.23 C 110.19 132.78 109.96 118.32 109.91 103.87 Z" />
</g>
<g id="#1a93f7ff">
<path fill="#1a93f7" opacity="1.00" d=" M 54.07 102.79 C 60.62 105.61 65.96 110.43 71.97 114.15 C 72.04 118.48 71.98 122.81 71.97 127.15 C 65.85 123.60 60.48 118.78 54.08 115.74 C 54.00 111.42 54.04 107.11 54.07 102.79 Z" />
</g>
<g id="#0b1c2bff">
<path fill="#0b1c2b" opacity="1.00" d=" M 109.75 147.23 C 108.08 133.04 108.64 118.13 109.91 103.87 C 109.96 118.32 110.19 132.78 109.75 147.23 Z" />
</g>
<g id="#29506fff">
<path fill="#29506f" opacity="1.00" d=" M 129.00 110.07 C 129.26 109.81 129.78 109.31 130.04 109.05 C 129.97 120.03 130.06 131.01 129.99 141.99 C 129.74 140.47 129.23 137.45 128.98 135.94 C 129.02 129.54 128.96 123.15 128.81 116.77 C 128.86 115.09 128.95 111.74 129.00 110.07 Z" />
</g>
<g id="#4fabf7ff">
<path fill="#4fabf7" opacity="1.00" d=" M 111.10 114.79 C 117.10 117.47 122.16 121.76 127.85 124.98 C 128.23 122.25 128.49 119.49 128.81 116.77 C 128.96 123.15 129.02 129.54 128.98 135.94 C 124.02 141.50 117.18 128.95 111.09 128.73 C 110.98 124.09 111.07 119.43 111.10 114.79 Z" />
</g>
<g id="#0185f2ff">
<path fill="#0185f2" opacity="1.00" d=" M 54.08 115.74 C 60.48 118.78 65.85 123.60 71.97 127.15 C 72.20 136.16 71.38 145.25 72.72 154.22 C 72.98 154.71 73.51 155.71 73.78 156.21 C 76.32 158.82 79.74 160.31 82.90 162.01 C 83.26 163.46 84.62 164.34 86.09 163.99 C 93.94 167.89 101.16 172.93 108.90 177.02 C 109.26 178.47 110.63 179.35 112.10 178.97 C 117.18 181.31 121.57 185.39 126.90 186.94 C 133.87 183.84 139.85 178.81 146.90 175.80 C 149.61 182.46 158.24 184.42 163.87 188.21 C 152.34 195.45 139.98 202.08 128.01 208.91 C 126.04 210.72 124.17 208.27 122.35 207.60 C 105.41 197.38 87.82 188.21 71.09 177.66 C 70.39 176.71 69.44 175.96 68.21 175.92 C 61.24 172.63 55.46 165.63 54.12 157.89 C 53.90 143.84 53.97 129.79 54.08 115.74 Z" />
</g>
<g id="#339df4ff">
<path fill="#339df4" opacity="1.00" d=" M 111.09 128.73 C 117.18 128.95 124.02 141.50 128.98 135.94 C 129.23 137.45 129.74 140.47 129.99 141.99 C 136.10 145.19 142.00 148.83 147.91 152.34 C 148.61 153.28 149.55 154.03 150.77 154.11 C 157.22 156.23 162.20 161.53 168.79 163.23 C 169.93 169.19 179.79 172.02 184.97 176.35 C 181.33 178.49 177.78 180.98 173.76 182.35 C 152.14 170.01 132.71 154.08 111.08 141.74 C 111.04 137.40 111.06 133.06 111.09 128.73 Z" />
</g>
<g id="#50728dff">
<path fill="#50728d" opacity="1.00" d=" M 180.07 141.00 C 184.31 138.50 193.85 140.66 199.94 140.06 C 198.92 145.31 202.10 154.32 199.03 158.04 C 199.02 152.38 199.12 146.72 198.92 141.06 C 192.95 140.90 186.98 140.96 181.01 141.02 L 180.07 141.00 Z" />
</g>
<g id="#53aaf2ff">
<path fill="#53aaf2" opacity="1.00" d=" M 180.07 141.00 L 181.01 141.02 C 180.91 146.24 180.98 151.47 181.22 156.69 C 185.88 159.89 190.74 162.84 195.81 165.37 C 194.83 170.56 188.88 173.29 184.97 176.35 C 179.79 172.02 169.93 169.19 168.79 163.23 C 172.29 160.22 178.14 159.58 179.72 154.67 C 180.09 150.11 179.85 145.55 180.07 141.00 Z" />
</g>
<g id="#7bc0f7ff">
<path fill="#7bc0f7" opacity="1.00" d=" M 181.01 141.02 C 186.98 140.96 192.95 140.90 198.92 141.06 C 199.12 146.72 199.02 152.38 199.03 158.04 C 198.96 160.70 197.79 163.64 195.81 165.37 C 190.74 162.84 185.88 159.89 181.22 156.69 C 180.98 151.47 180.91 146.24 181.01 141.02 Z" />
</g>
<g id="#1a91f2ff">
<path fill="#1a91f2" opacity="1.00" d=" M 111.08 141.74 C 132.71 154.08 152.14 170.01 173.76 182.35 C 172.28 184.89 166.95 186.10 163.87 188.21 C 158.24 184.42 149.61 182.46 146.90 175.80 C 145.11 171.63 139.79 170.28 136.09 167.99 C 135.74 166.54 134.39 165.65 132.92 165.98 C 131.65 165.31 130.35 164.69 129.08 164.02 C 128.76 162.54 127.38 161.65 125.91 162.00 C 120.01 159.00 113.19 155.94 110.65 149.31 C 110.75 147.41 110.97 143.63 111.08 141.74 Z" />
</g>
<g id="#1f4f76ff">
<path fill="#1f4f76" opacity="1.00" d=" M 147.91 152.34 C 148.99 151.09 151.62 152.57 150.77 154.11 C 149.55 154.03 148.61 153.28 147.91 152.34 Z" />
</g>
<g id="#004279ff">
<path fill="#004279" opacity="1.00" d=" M 82.90 162.01 C 84.37 161.65 85.75 162.53 86.09 163.99 C 84.62 164.34 83.26 163.46 82.90 162.01 Z" />
</g>
<g id="#084a80ff">
<path fill="#084a80" opacity="1.00" d=" M 125.91 162.00 C 127.38 161.65 128.76 162.54 129.08 164.02 C 127.60 164.34 126.25 163.45 125.91 162.00 Z" />
</g>
<g id="#09487bff">
<path fill="#09487b" opacity="1.00" d=" M 132.92 165.98 C 134.39 165.65 135.74 166.54 136.09 167.99 C 134.61 168.35 133.24 167.46 132.92 165.98 Z" />
</g>
<g id="#003f72ff">
<path fill="#003f72" opacity="1.00" d=" M 68.21 175.92 C 69.44 175.96 70.39 176.71 71.09 177.66 C 70.02 178.89 67.39 177.45 68.21 175.92 Z" />
</g>
<g id="#004177ff">
<path fill="#004177" opacity="1.00" d=" M 108.90 177.02 C 110.37 176.65 111.73 177.52 112.10 178.97 C 110.63 179.35 109.26 178.47 108.90 177.02 Z" />
</g>
</svg>
