<?xml version="1.0" encoding="utf-8"?>
<!-- Generator: Adobe Illustrator 26.0.3, SVG Export Plug-In . SVG Version: 6.00 Build 0)  -->
<svg version="1.1" id="Layer_1" xmlns="http://www.w3.org/2000/svg" xmlns:xlink="http://www.w3.org/1999/xlink" x="0px" y="0px"
	 viewBox="0 0 250 250" style="enable-background:new 0 0 250 250;" xml:space="preserve">
<style type="text/css">
	.st0{fill:#FFFFFF;}
	.st1{fill:#1573E1;}
</style>
<circle class="st0" cx="125" cy="125.5" r="125"/>
<g id="_x23_ffffffff">
	<path class="st0" d="M63.3,120.1c3.8-0.8,8.4,1.2,9.6,5.1c2.5,5.2-2.2,12-7.9,11.6c-5,0.2-9.2-5.1-8.4-9.9
		C57.5,123.8,60,120.8,63.3,120.1z"/>
	<path class="st0" d="M125.3,120.4c3.8-1.1,8.5,0.1,10.3,3.9c2.9,4.7-0.4,11.5-5.8,12.3c-4.2,0.9-8.8-1.9-9.8-6.1
		C118.7,126.4,121.4,121.9,125.3,120.4z"/>
	<path class="st0" d="M158.5,120.6c2.8-0.7,6.4-0.8,8.6,1.4c4.9,3.8,3.3,13.2-3,14.6c-5.2,1.8-11.3-3-10.8-8.5
		C153.2,124.7,155.5,121.7,158.5,120.6z"/>
</g>
<g id="_x23_1573e1ff">
	<path class="st1" d="M40.3,104.9c2.1-0.1,4.1-0.1,6.2-0.1c0.1,12.8,0,25.7,0,38.5c-2.1,0-4.1,0-6.2,0
		C40.2,130.5,40.1,117.7,40.3,104.9z"/>
	<path class="st1" d="M136.8,104.9c2.2-0.3,4.4,0,6.5,0.5c-0.2,7.2,0,14.4-0.1,21.6c0,3.8-0.9,7.9-3.4,10.9
		c-4.1,5.2-11.8,6.8-17.7,4.2c-5.4-2.4-9.1-8.2-8.8-14.1c0-7.4,6.4-14.1,13.8-14.4c3.4-0.4,6.6,0.9,9.6,2.3
		C136.7,112.2,136.6,108.5,136.8,104.9 M125.3,120.4c-3.8,1.5-6.6,6-5.3,10.1c1,4.2,5.6,7,9.8,6.1c5.4-0.8,8.7-7.6,5.8-12.3
		C133.8,120.5,129.1,119.4,125.3,120.4z"/>
	<path class="st1" d="M146.6,105.3c2.2-0.6,4.5-0.5,6.7,0c-0.1,3.5-0.1,7,0,10.5c3-1.5,6.3-2.7,9.7-2.2c7.7,0.4,14.1,7.8,13.5,15.5
		c0,7.2-6.2,13.7-13.4,14.2c-7.8,1-15.7-5.2-16.3-13.1C146.6,121.8,146.9,113.5,146.6,105.3 M158.5,120.6c-3,1.2-5.3,4.2-5.2,7.4
		c-0.5,5.5,5.5,10.3,10.8,8.5c6.3-1.3,8-10.8,3-14.6C164.8,119.8,161.3,119.8,158.5,120.6z"/>
	<path class="st1" d="M202.5,105.2c2.3-0.5,4.6-0.4,6.9,0.1c-0.5,1.9,0.7,4.5-0.9,5.9c-1.9,0.1-3.9,0.1-5.8,0.1
		C202.6,109.3,202.6,107.3,202.5,105.2z"/>
	<path class="st1" d="M61.6,113.8c7-1.6,15,2.3,17.4,9.2c3.3,7.9-1.7,18.1-10.3,19.8c-8.7,2.6-18.8-4.7-18.4-13.8
		C49.4,121.9,54.9,115.3,61.6,113.8 M63.3,120.1c-3.3,0.7-5.8,3.7-6.7,6.8c-0.8,4.8,3.4,10.1,8.4,9.9c5.7,0.4,10.4-6.4,7.9-11.6
		C71.7,121.3,67.1,119.3,63.3,120.1z"/>
	<path class="st1" d="M83.6,113.5c2.2,0,4.4,0.1,6.7,0.1c0,5.9-0.2,11.7,0,17.6c-0.1,3.7,4,6.4,7.5,5.6c2.1-0.1,3.4-1.9,4.9-3.2
		c1.2-6.6,0.3-13.4,0.7-20.1c2.1,0,4.2,0,6.2,0c-0.1,5.9,0.1,11.7-0.1,17.6c0.1,7.7-8.1,13.8-15.5,12c-5.7-1-10.3-6.2-10.5-12
		C83.4,125.2,83.6,119.3,83.6,113.5z"/>
	<path class="st1" d="M181.7,121.6c3-6.7,10.8-8.9,17.6-8.1c0,2.1-0.1,4.2-0.1,6.2c-3.3,0.3-6.7,0.4-9.8,1.8c-1.2,2-2.8,4-2.8,6.4
		c-0.2,5.1,0,10.2-0.1,15.3c-2.1,0-4.2,0-6.3,0C180.6,136.1,178.9,128.4,181.7,121.6z"/>
	<path class="st1" d="M202.6,113.4c2.2,0,4.4,0,6.7,0c-0.1,9.9,0,19.9,0,29.8c-2.2,0-4.3,0.1-6.5-0.2
		C202.4,133.2,202.8,123.3,202.6,113.4z"/>
	<path class="st1" d="M213.6,122.8c2.7-5.4,8.1-9.7,14.4-9.2c4.7-0.4,8.6,2.7,11.8,5.7c-1.6,1.5-3.3,3.1-5.5,3.7
		c-2.9-3.2-8.1-4-11.6-1.3c-4.9,3.1-4.3,11.4,0.8,14c3.8,2.4,8.6,0.7,11.6-2.3c1.6,1.3,3.2,2.8,4.8,4.1c-3.9,4.5-10.2,7.2-16.1,5.3
		C215.2,140.8,210.6,130.8,213.6,122.8z"/>
	<path class="st1" d="M18.5,114.7c6.2-2.7,14.2-0.8,18,5.1c-1.6,1.3-3.3,2.5-5.2,3.4c-3-3.4-8.9-4.2-12.3-1.1
		c-4.5,3.5-3.6,12.1,2,14.1c3.6,1.7,7.8,0.4,10.4-2.5c1.6,0.9,3,2.1,4.5,3c-0.1,0.5-0.2,1.5-0.2,2.1c-4.6,4.7-12.2,6.1-18,2.9
		c-6.3-3-9.6-10.9-7.4-17.5C11.3,119.9,14.7,116.6,18.5,114.7z"/>
</g>
</svg>
