<svg id="Layer_1" data-name="Layer 1" xmlns="http://www.w3.org/2000/svg" viewBox="0 0 250 250"><defs><style>.cls-1{fill:#2fd2e5;}.cls-2{fill:#fff;}</style></defs><circle class="cls-1" cx="125" cy="125" r="125"/><path class="cls-2" d="M129.45,31.3A92.12,92.12,0,0,0,70.77,49.84,13.79,13.79,0,0,0,68,69.15,14,14,0,0,0,87.53,72a65.52,65.52,0,0,1,88.24,7.11,12.62,12.62,0,0,1,.32,17.21,12.4,12.4,0,0,1-17.53.61h0l-.6-.61a40.92,40.92,0,1,0-2.66,57.81c.93-.85,1.82-1.73,2.66-2.66a12.16,12.16,0,0,1,14.53-2.76A12.33,12.33,0,0,1,178,165.3a12.57,12.57,0,0,1-1.89,2.75,65.73,65.73,0,0,1-88.59,7.78,13.78,13.78,0,0,0-17.73.86,14,14,0,0,0-.87,19.71,14.59,14.59,0,0,0,2,1.82A92.59,92.59,0,1,0,129.45,31.31Zm-1.72,115.54a22.92,22.92,0,1,1,23-22.84,22.91,22.91,0,0,1-23,22.84Z"/></svg>