<?xml version="1.0" encoding="utf-8"?>
<!-- Generator: Adobe Illustrator 26.0.3, SVG Export Plug-In . SVG Version: 6.00 Build 0)  -->
<svg version="1.1" id="Layer_1" xmlns="http://www.w3.org/2000/svg" xmlns:xlink="http://www.w3.org/1999/xlink" x="0px" y="0px"
	 viewBox="0 0 250 250" style="enable-background:new 0 0 250 250;" xml:space="preserve">
<style type="text/css">
	.st0{fill:#FFFFFF;}
</style>
<g id="_x23_ffffffff">
	<path class="st0" d="M29.3,3.8C20,4.8,11.6,10.9,7.6,19.3C4.5,25,5.1,31.7,4.9,38c0.4,10.3,0.2,20.7,0.2,31
		c-0.7,10.7,0.4,21.3-0.2,32c0.3,6,0.3,12,0,18c-0.1,28.4,0.2,56.7,0.1,85c-0.2,5.9,0.1,11.8,0.3,17.7c1.3,11.1,10.5,20.7,21.4,22.8
		c6.7,1,13.6,0.5,20.3,0.6c13.7,0.2,27.3-0.5,41-0.1c6,0.4,12-0.4,18,0.1c16-0.7,32,0.4,48-0.2c8.7,0.4,17.3-0.3,26,0
		c12,0.7,24-0.6,36,0.2c7.6,0.4,15.5-1.7,21.1-7c5.8-5,9.1-12.5,9.2-20.1c0-62.7,0-125.4,0-188.1c-0.3-11.8-9.1-22.8-20.7-25.4
		c-3.1-0.9-6.4-0.9-9.6-0.8C153.8,3.8,91.5,3.5,29.3,3.8z"/>
	<path class="st0" d="M67.6,64.7c15.2-8.1,34.2-8.4,50-1.7c-2.2,3.6-4.9,6.9-6.3,10.9c-1.7,4.4-2,9.2-2.1,13.9
		c-5-1.2-9.8-3.6-15.1-3.2C78.8,84.1,64.4,97.6,65.1,113C64.3,128.1,78,141.8,93,141.6c11.4,0.7,21.1-6.4,29.3-13.3
		c6.6-5.8,14.1-11,22.8-13c4.6-1,9.2-1.7,13.9-1.7c15.2,0,30.4-0.1,45.6-0.1c0.1,9.7,0.1,19.3,0,28.9c-16.4,0.2-32.7,0-49.1,0.1
		c-0.2,15.9,0.1,31.7-0.1,47.6c-9.3,0.2-18.6,0.2-27.9,0.3c-0.2-10.8,0.1-21.5-0.1-32.2c-7.8,4.4-16.1,8.4-25.1,9.3
		C83.6,170.4,63.7,163,51,149c-7-7.8-12-17.6-13.5-28c-0.3-5.3-0.3-10.7,0-16C40.3,87.7,52,72.4,67.6,64.7z"/>
	<path class="st0" d="M141,63.4c5.1-2,10.6-2.3,15.9-2.6c16.6,0,33.3,0,49.9,0c3.6-0.1,7.2,2.7,7.4,6.4c0.1,5.2,0.1,10.5,0,15.7
		c-0.1,3.7-3.6,6.9-7.3,6.6c-16.7,0-33.4,0-50.1,0c-2.2-0.1-4.6,0.6-6,2.4c-1.7,2.4-1.4,5.5-1.5,8.3c-4.5,1.5-9.3,1.9-13.7,3.9
		c-5.1,1.6-9.3,5.2-14.2,7.3c0.1-10.4-1.2-21.2,2.5-31.1C126.6,72.4,133.2,66,141,63.4z"/>
</g>
<g id="_x23_000000ff">
	<path d="M29.3,3.8c62.2-0.3,124.5,0,186.7-0.1c3.2-0.1,6.5,0,9.6,0.8C237.2,7.1,246,18.1,246.3,30c0,62.7,0,125.4,0,188.1
		c-0.1,7.6-3.4,15.1-9.2,20.1c-5.6,5.3-13.5,7.3-21.1,7c-12-0.8-24,0.5-36-0.2c-8.7-0.3-17.3,0.4-26,0c-16,0.7-32-0.5-48,0.2
		c-6-0.5-12,0.3-18-0.1c-13.7-0.4-27.3,0.3-41,0.1c-6.8-0.1-13.6,0.3-20.3-0.6c-10.9-2.2-20.1-11.7-21.4-22.8
		C5.1,215.8,4.7,209.9,5,204c0.2-28.3-0.1-56.6-0.1-85c0.3-6,0.3-12,0-18c0.6-10.7-0.5-21.3,0.2-32c0-10.3,0.2-20.7-0.2-31
		c0.2-6.3-0.3-13,2.7-18.7C11.6,10.9,20,4.8,29.3,3.8 M67.6,64.7c-15.6,7.7-27.3,23-30,40.3c-0.4,5.3-0.3,10.7,0,16
		C39,131.4,44,141.2,51,149c12.7,14,32.6,21.4,51.3,18.5c9-0.9,17.3-4.9,25.1-9.3c0.2,10.7-0.1,21.5,0.1,32.2
		c9.3-0.1,18.6-0.1,27.9-0.3c0.2-15.9-0.1-31.7,0.1-47.6c16.4-0.1,32.7,0.1,49.1-0.1c0.1-9.6,0.1-19.3,0-28.9
		c-15.2-0.1-30.4,0-45.6,0.1c-4.7-0.1-9.3,0.7-13.9,1.7c-8.7,2-16.2,7.2-22.8,13c-8.3,6.9-18,14-29.3,13.3
		c-15,0.1-28.7-13.5-27.9-28.6C64.4,97.6,78.8,84.1,94,84.5c5.3-0.4,10.1,2,15.1,3.2c0.1-4.7,0.4-9.4,2.1-13.9
		c1.4-4,4.2-7.3,6.3-10.9C101.7,56.3,82.8,56.6,67.6,64.7 M141,63.4c-7.8,2.6-14.4,9-16.9,16.9c-3.7,10-2.4,20.7-2.5,31.1
		c4.9-2.1,9.1-5.7,14.2-7.3c4.4-1.9,9.2-2.4,13.7-3.9c0.1-2.8-0.2-5.9,1.5-8.3c1.4-1.9,3.8-2.5,6-2.4c16.7,0,33.4,0,50.1,0
		c3.7,0.3,7.3-2.9,7.3-6.6c0.1-5.2,0.1-10.5,0-15.7c-0.2-3.7-3.8-6.5-7.4-6.4c-16.6-0.1-33.3,0-49.9,0
		C151.6,61.1,146.1,61.3,141,63.4z"/>
</g>
</svg>
