<?xml version="1.0" encoding="utf-8"?>
<!-- Generator: Adobe Illustrator 26.0.3, SVG Export Plug-In . SVG Version: 6.00 Build 0)  -->
<svg version="1.1" id="Layer_1" xmlns="http://www.w3.org/2000/svg" xmlns:xlink="http://www.w3.org/1999/xlink" x="0px" y="0px"
	 viewBox="0 0 250 250" style="enable-background:new 0 0 250 250;" xml:space="preserve">
<style type="text/css">
	.st0{fill:#E6CF92;}
	.st1{fill:#D2A11E;}
	.st2{fill:#F3D34F;}
	.st3{fill:#D4BA82;}
	.st4{fill:#B38228;}
	.st5{fill:#C7951A;}
	.st6{fill:#D6BE95;}
	.st7{fill:#DEAD1F;}
	.st8{fill:#FAE568;}
	.st9{fill:#B88417;}
	.st10{fill:#F6E386;}
	.st11{fill:#FCF3AA;}
	.st12{fill:#F4E588;}
	.st13{fill:#F8EFB8;}
	.st14{fill:#BD8A19;}
	.st15{fill:#FDF9CD;}
	.st16{fill:#A77216;}
	.st17{fill:#C9981D;}
	.st18{fill:#FEFDF0;}
	.st19{fill:#E6BA2B;}
	.st20{fill:#E6B929;}
	.st21{fill:#FAEA85;}
	.st22{fill:#FCF2AE;}
	.st23{fill:#FAF3C6;}
	.st24{fill:#D7A61D;}
	.st25{fill:#F0C83A;}
	.st26{fill:#A77115;}
	.st27{fill:#D2A11C;}
	.st28{fill:#EAC23B;}
	.st29{fill:#F5D650;}
	.st30{fill:#BC8918;}
	.st31{fill:#F5DD60;}
	.st32{fill:#DCBA4A;}
	.st33{fill:#F9E464;}
	.st34{fill:#AB7A1C;}
	.st35{fill:#DBAB22;}
	.st36{fill:#F9E880;}
	.st37{fill:#F3DD7C;}
	.st38{fill:#E2C150;}
	.st39{fill:#C29C35;}
	.st40{fill:#E0B62F;}
	.st41{fill:#876119;}
	.st42{fill:#BD8E1F;}
	.st43{fill:#DAC48D;}
	.st44{fill:#A2741F;}
	.st45{fill:#AB7717;}
	.st46{fill:#E9C233;}
	.st47{fill:#F0D969;}
	.st48{fill:#F3D652;}
	.st49{fill:#FAF0B0;}
	.st50{fill:#D4A724;}
	.st51{fill:#9C6B19;}
	.st52{fill:#A97517;}
	.st53{fill:#AD8227;}
	.st54{fill:#5D3D12;}
	.st55{fill:#855F16;}
	.st56{fill:#D7CBB3;}
	.st57{fill:#CFA631;}
	.st58{fill:#FBF19B;}
	.st59{fill:#BDAB88;}
	.st60{fill:#D8B038;}
	.st61{fill:#E6BE39;}
	.st62{fill:#F2D45D;}
	.st63{fill:#735016;}
	.st64{fill:#DDB026;}
	.st65{fill:#F2DA71;}
	.st66{fill:#C19322;}
	.st67{fill:#DFB838;}
	.st68{fill:#C89C29;}
	.st69{fill:#E8BF32;}
	.st70{fill:#C39627;}
	.st71{fill:#B58B27;}
	.st72{fill:#725119;}
	.st73{fill:#BFB098;}
	.st74{fill:#9E7321;}
	.st75{fill:#FAF0B5;}
	.st76{fill:#D4AD3A;}
	.st77{fill:#906C22;}
	.st78{fill:#A9832B;}
	.st79{fill:#F7E372;}
	.st80{fill:#DECA9A;}
	.st81{fill:#EFCB40;}
	.st82{fill:#CEAC3F;}
	.st83{fill:#CCA435;}
	.st84{fill:#E4C859;}
	.st85{fill:#F1DD77;}
</style>
<g id="_x23_e6cf92ff">
	<path class="st0" d="M99.7,3.7c9.4-1.5,19.1-1,28.5,0.2C118.7,4,109.2,4.1,99.7,3.7z"/>
</g>
<g id="_x23_d2a11eff">
	<path class="st1" d="M88,5.9c4-0.5,7.8-1.5,11.8-2.3c9.5,0.5,19,0.3,28.5,0.2c1.5,0.3,3.1,0.8,4.6,1.2c4,1.5,8,3.2,11.4,5.8
		c-8.3-1.1-16.6-2.1-24.9-2.7c-4.3,2.1-2.4,8.5-4.6,12.4c-2.5,4.6,2.6,7.6,5.6,10.1c-8.5,0.1-17.1,0-25.5,1.4
		c-3.8-4.4-10.1-2.1-14.7-4.4c-0.3-5.1,3.6-9.1,5.2-13.7c-2.9-0.1-8.6-0.3-11.4-0.4c5.1-2.9,11.9-2.6,16.4-6.4
		c-0.5-0.1-1.5-0.3-2-0.4L88,5.9z"/>
</g>
<g id="_x23_f3d34fff">
	<path class="st2" d="M132.8,5.1c16.1,0.9,32.5,3.1,47.5,9.1c-5.3,5.1-16.9-4.3-19.8,4c-0.3-0.1-1-0.4-1.3-0.5
		c-4.6-3-10.1-4.3-15-6.7C140.8,8.3,136.8,6.6,132.8,5.1z"/>
</g>
<g id="_x23_d4ba82ff">
	<path class="st3" d="M80.8,7.8C83,6.8,85.4,6,88,5.9l0.2,1C85.7,7.3,83.2,7.7,80.8,7.8z"/>
</g>
<g id="_x23_b38228ff">
	<path class="st4" d="M80.8,7.8c2.5-0.1,4.9-0.5,7.4-0.9c0.5,0.1,1.5,0.3,2,0.4c-4.5,3.8-11.3,3.5-16.4,6.4
		C58.9,19.5,45.5,29,34.3,40.2c-1.6,1.3-5.7,7.4-6.6,2.7c11-12.5,24.3-23,39.4-30.1c1.9,0.6,3.9-0.2,5-1.9
		C74.9,9.9,77.8,8.9,80.8,7.8z"/>
</g>
<g id="_x23_c7951aff">
	<path class="st5" d="M119.3,8.3c8.3,0.5,16.6,1.6,24.9,2.7c4.9,2.5,10.4,3.8,15,6.7c-4.5,0.3-11.1-2.1-13.2,3.4
		c-1,5.4-1.3,11.4-0.1,16.9c-8.2-3.5-17-5.2-25.7-7.1c-3-2.5-8.1-5.5-5.6-10.1C116.9,16.8,115,10.4,119.3,8.3z"/>
</g>
<g id="_x23_d6be95ff">
	<path class="st6" d="M67,12.9c1.2-1.5,3.1-2.4,5-1.9C70.9,12.7,68.9,13.5,67,12.9z"/>
</g>
<g id="_x23_dead1fff">
	<path class="st7" d="M34.3,40.2C45.5,29,58.9,19.5,73.8,13.7c2.9,0.1,8.6,0.3,11.4,0.4c-1.6,4.6-5.5,8.6-5.2,13.7
		c4.6,2.3,11,0,14.7,4.4l0.5,0.6c-18.9,4.2-36.9,14.3-49.4,29.3c-1.3,1.5-2.6,3-4,4.4C36.4,60.1,31.3,51.2,36,43
		c-4.3,3.4-8.1,7.2-12.4,10.7c-1.5,0.9-3,0.2-2.9-1.6c2.3-3,4.5-6.1,6.9-9C28.5,47.7,32.7,41.6,34.3,40.2z"/>
</g>
<g id="_x23_fae568ff">
	<path class="st8" d="M180.3,14.2c6.9,3.5,13.7,7.4,20,11.9c-2.5,4.6-10.8,0.7-15.2,1.9c-6.8-2.2-13.1-10.5-20.6-7.9
		c-1.3-0.6-2.7-1.2-4-1.8C163.4,9.9,175,19.3,180.3,14.2z"/>
</g>
<g id="_x23_b88417ff">
	<path class="st9" d="M146,21.1c2.1-5.5,8.7-3.1,13.2-3.4c0.3,0.1,1,0.3,1.3,0.5c1.3,0.6,2.6,1.2,4,1.8
		c17.2,10.4,32.1,24.9,42.4,42.2c5.7,6.2,5,19,14,21.1c0.6,1.7,1.3,3.3,1.9,4.9c0.1,0.6,0.2,1.7,0.3,2.3c-1.3,0.9-3.9,1.3-3,3.4
		c1.6,9.1,2.6,18.2,3.5,27.4c1.4,17-2.8,33.9-8.4,49.9c0.9-9.6-12.1-8.1-15.9-14.3c3.1-21.3,5.1-43.7-3-64.2
		c-5.8-16-15.1-30.9-28-42c-2.5-2.1-1,2.9-1.4,4.3c-7.7-5.1-13-14.5-23.2-14.6c2.8,0,5.8-0.2,2.2-2.4C144.8,32.5,145,26.5,146,21.1z
		"/>
</g>
<g id="_x23_f6e386ff">
	<path class="st10" d="M164.5,20c7.6-2.6,13.9,5.8,20.6,7.9c4.3-1.2,12.7,2.8,15.2-1.9c1.7,1.3,3.2,2.8,4.9,4.2
		c-5,0.8-10.4-0.2-15.1,2c-1.2,6,5,9.4,9.1,12.5l0.6,0.4c4.5,5.7,9.4,11.2,12.2,18c-1.7-0.3-3.4-0.6-5.1-1
		C196.6,44.9,181.7,30.4,164.5,20z"/>
</g>
<g id="_x23_fcf3aaff">
	<path class="st11" d="M205.2,30.2c6.2,4.4,11.2,10.2,16.2,16c-8-1.5-13.2-15.1-23.5-10.4c-5.8,1-0.1,6.2,1.3,9
		c-4.1-3.2-10.3-6.5-9.1-12.5C194.8,30,200.2,31,205.2,30.2z"/>
</g>
<g id="_x23_f4e588ff">
	<path class="st12" d="M94.7,32.2c8.4-1.4,17-1.3,25.5-1.4c8.7,1.9,17.5,3.6,25.7,7.1c3.6,2.2,0.7,2.4-2.2,2.4
		c-6.9-1.5-13.4-4.2-20.5-4.7c-7.8-1-15.7-0.6-23.5,0.2c6.6-2.1-0.3-2.8-4.5-3L94.7,32.2z"/>
</g>
<g id="_x23_f8efb8ff">
	<path class="st13" d="M45.9,62.1c12.5-15,30.5-25,49.4-29.3c4.2,0.1,11.2,0.8,4.5,3c-2.5,0.6-4.8,1.4-7.2,2.2
		c-17.2,3.5-31.9,14.4-43.3,27.4C47,65.4,45.5,64.5,45.9,62.1z"/>
</g>
<g id="_x23_bd8a19ff">
	<path class="st14" d="M99.8,35.8c7.8-0.8,15.7-1.2,23.5-0.2c-1.2,0.3-6.7,0.5-3.1,1.2c39.6,7.3,69.5,43.1,74.7,82.2
		c-0.2,3.5,3.3,1.3,2.8-1.1c-1.5-23.9-12.9-47.1-30.7-63.1c0.4-1.4-1.1-6.4,1.4-4.3c12.9,11.1,22.2,26,28,42
		c8.1,20.5,6.1,42.9,3,64.2c3.8,6.2,16.7,4.7,15.9,14.3c-1.9,5.1-4.2,9.9-6.7,14.7c-0.8,1.1-1.6,2.2-2.4,3.4
		c0.4-4.5,1.8-8.8,2.8-13.1c-6.3-3-20.8-1-15.1-13.2c2.4-6.1,4.2-12.5,4.1-19.1c-4.2,6-4.7,14-7.9,20.6c-4-0.9-3.7-5.2-5.3-8.1
		c-5.3-5.5-14.2-6.7-21.4-5c-1.7,5.9-2.9,11.9-5.4,17.5c-0.5-0.1-1.6-0.4-2.2-0.5c-0.5-7-2.4-13.9-2.7-20.9
		c7.1-13.1,17.5-23.9,26.8-35.4c1.3-2.5,6.6-6.7,2.7-9.2l-0.7-0.6c0.5-0.3,1.6-0.9,2.1-1.2c-11.6-5.2-27.3-5-40.5-8
		c-2.8-0.7-5.4-1.9-7.5-3.9c-5.9-11.1-11.1-22.6-16.5-34c4.7-3,11.7-2.4,14.7-8c-10.3-12.4-28.2-4.5-41.6-9
		C94.9,37.2,97.3,36.4,99.8,35.8z"/>
</g>
<g id="_x23_fdf9cdff">
	<path class="st15" d="M197.9,35.8c10.4-4.6,15.5,9,23.5,10.4c0.6,0.7,1.1,1.5,1.6,2.2c1.3,8.8,8.9,15.6,9.9,24.3
		c-4.4,2.5-10.2,2.9-15.1,1.4c-1.5-3.4-3.1-6.7-4.8-9.9c4.8-0.1,13-1.8,9.7-8.9c-4.3-6.6-11.1-17.5-20.6-14.2
		c-2,0.3-2.2,2.5-2.4,4.1l-0.6-0.4C197.7,42,192,36.8,197.9,35.8z"/>
</g>
<g id="_x23_a77216ff">
	<path class="st16" d="M120.2,36.9c-3.6-0.8,1.9-0.9,3.1-1.2c7.1,0.4,13.7,3.2,20.5,4.7c10.2,0.1,15.5,9.6,23.2,14.6
		c17.8,16,29.2,39.1,30.7,63.1c0.5,2.3-3,4.6-2.8,1.1C189.7,79.9,159.8,44.2,120.2,36.9z"/>
</g>
<g id="_x23_c9981dff">
	<path class="st17" d="M49.2,65.4c11.4-13,26.1-23.9,43.3-27.4c13.4,4.5,31.4-3.4,41.6,9c-2.9,5.6-10,4.9-14.7,8
		c-0.9-1.8-1.9-3.5-2.9-5.3c-0.6-1.2-1.5-2.1-2.6-2.8c-1.8,0-0.8,2.7-1.3,3.8c-3.4,16.9-5.5,34.4-4.1,51.7
		c-1.5,6.3,2.8,12.1,8.1,14.9c0.6,4.7-1.1,13.3,5.2,14.9c-2.8-7.2-1.9-15-1.7-22.5c0.7,6.9,0.7,14,3.2,20.6l0.1,0.8
		c0.8,1.6,5,0.6,4.8,3.5c-0.7,12.8,8.7,22.2,12.6,33.6c-10.1-5.9-18.6-14.8-30.1-18.1c-15.1,1.4-31,9.8-37.8,24
		c0-9.2,8.2-15.5,15.5-19.6c8.9-7.1,21.9-12.8,32.8-6.7c-2.2-4.3-7.3-6.3-9.3-10.9c-2.3-5.5-4.7-10.9-7.4-16.2
		c-0.5,2.2-0.9,4.3-1.4,6.5c-3.2-6,5.5-23-4.4-23.3c-1,7,2.3,17.7,1.3,26.4l-1.1,0.1c-3.4-7-1.5-15-2.1-22.5
		c-1.7-3.5-2.9,2.3-2.1,4.8c-4,7.3-16.3,7.1-20.7,0.2c-3.2-10.9-17-9.6-25.4-13.8c11.7-0.3,22.6,4.7,34.1,5.8
		c2.4-5.2,6.6-12.7,1.6-17.4c2.5-6.5,8.1-11,11.3-17c2.9-7.1-5.2-10.1-8-15.4c-19-6-34.2,10.2-44.7,23.9c1-2.7,3.7-5.4,2.3-8.4
		C46.6,68.9,48,67.2,49.2,65.4 M104.8,60.9c-4.8,9.9-9.7,19.9-15.1,29.5c-4.7,8.5,10,5.8,11.7-0.1c2.8-10.7,7-21.5,7.4-32.6
		c0.7-1.6,1.2-3.2,1.2-4.9C106.9,54.4,106.3,58.1,104.8,60.9z"/>
	<path class="st17" d="M176.4,105.1c2-0.9,4.1-1.7,6.2-2.5c-10.5,10.5-23.3,18.7-32.6,30.4c-1.9,2-0.2,4.3,1,6.1
		c-5.9-0.1-6-7.5-9-11.1c-3.3-3-0.1-6.5,2.3-8.7c10.9-3,22.5-6.3,31.5-13.5L176.4,105.1z"/>
</g>
<g id="_x23_fefdf0ff">
	<path class="st18" d="M202.1,41c9.5-3.2,16.3,7.7,20.6,14.2c3.3,7.1-4.9,8.8-9.7,8.9c-0.3-0.3-0.8-0.8-1.1-1.1
		c-2.8-6.8-7.7-12.3-12.2-18C199.9,43.6,200.1,41.3,202.1,41z"/>
</g>
<g id="_x23_e6ba2bff">
	<path class="st19" d="M23.6,53.6c4.2-3.4,8.1-7.3,12.4-10.7c-4.8,8.3,0.4,17.1,5.9,23.5c-1.2,2.5-0.2,4.5,2.1,5.8
		c-1.3,2.9-4.1,2-6.7,2.1c-8.4,12.9-12.6,28.2-13.5,43.4c-2,6.7,2,12.4,4.1,18.4c-5.5-1.7-7.1-7.1-6.3-12.4
		c1-8.2-3.8-15.6-10.2-20.1c-2.6-1.4,2.2-4.8-0.7-6.2c-3.2-1.7-3-5.6-2.3-8.8c2-11.2,9.5-21,9.5-32.7c0.9-1.3,1.8-2.6,2.8-3.9
		C20.6,53.8,22.2,54.5,23.6,53.6z"/>
</g>
<g id="_x23_e6b929ff">
	<path class="st20" d="M112.7,50.7c0.5-1.2-0.4-3.8,1.3-3.8c0,1.3,0.1,2.6,0.2,3.9c0.2,13.7,1.5,27.5,4.2,40.9
		c3.6,4.9,7.6,9.9,12.7,13.3c14.6,5.8,30.5,3.3,45.4,0.1l-0.6,0.6c-15.4,8-32.8,7.4-49.7,8.3c-0.2-2.8,0.2-5.5-0.6-8.2
		c-0.9-1.2-2.2-2.1-3.8-1.8c-0.4,6.6,3.3,17.6,1.7,26.3c-2.5-6.6-2.4-13.7-3.2-20.6c-0.1-0.8-0.3-2.3-0.4-3.1
		C106.7,91.9,114.7,69,112.7,50.7z"/>
</g>
<g id="_x23_faea85ff">
	<path class="st21" d="M114,46.9c1.1,0.7,2.1,1.6,2.6,2.8c-1.5,5.3,2.1,10.2,3.5,15.2c4.1,9.4,6.8,19.7,13.1,27.9
		c3.7,1.3,4.1-0.8,2.7-3.8c2.1,2,4.7,3.2,7.5,3.9c-1.1,3.4-5.4,4.9-8.4,2.9c-9.6-5.3-10.7-17-15-26.1c-1.1-4.4-2.6-8.7-4-13
		c-0.6-2-1.3-4-2-6C114.1,49.5,114.1,48.2,114,46.9z"/>
</g>
<g id="_x23_fcf2aeff">
	<path class="st22" d="M233,72.8c-1.1-8.7-8.7-15.6-9.9-24.3c6.7,8.2,11.9,17.5,16.1,27.1c-6,3-12.6,3.9-19.2,3.6
		c-0.7-1.7-1.4-3.3-2.1-4.9C222.7,75.7,228.6,75.2,233,72.8z"/>
</g>
<g id="_x23_faf3c6ff">
	<path class="st23" d="M120.2,64.9c-1.4-5-5-9.9-3.5-15.2c1,1.7,1.9,3.5,2.9,5.3c5.4,11.4,10.6,22.9,16.5,34c1.4,3,1,5.2-2.7,3.8
		C127,84.6,124.3,74.3,120.2,64.9z"/>
</g>
<g id="_x23_d7a61dff">
	<path class="st24" d="M108.7,102.4c-1.4-17.2,0.7-34.8,4.1-51.7c2,18.3-6,41.1,7.1,55.9c-3.6,2.1-2.4,7.1-3.1,10.6
		C111.4,114.5,107.2,108.7,108.7,102.4z"/>
</g>
<g id="_x23_f0c83aff">
	<path class="st25" d="M114.2,50.8c0.6,2,1.3,4,2,6c1.2,16.3,3.1,35,17.1,45.9c16.1,3.2,32.6,3.2,48.5-0.6l0.7,0.6
		c-2.1,0.8-4.1,1.6-6.2,2.5c-14.9,3.1-30.8,5.7-45.4-0.1c-5.1-3.4-9.1-8.4-12.7-13.3C115.7,78.2,114.3,64.4,114.2,50.8z"/>
</g>
<g id="_x23_a77115ff">
	<path class="st26" d="M104.8,60.9c1.5-2.8,2.1-6.5,5.3-8.1c0,1.7-0.6,3.3-1.2,4.9c-4.2,9.5-6,19.8-11.1,28.9
		c-1.8,2.4-4.8,5.2-8,3.8C95.1,80.8,100,70.9,104.8,60.9z"/>
</g>
<g id="_x23_d2a11cff">
	<path class="st27" d="M43,79.1c10.5-13.6,25.8-29.9,44.7-23.9c2.8,5.2,11,8.3,8,15.4c-3.3,6-8.9,10.6-11.3,17
		c5,4.7,0.8,12.2-1.6,17.4c-11.5-1.1-22.4-6.1-34.1-5.8c-0.7-0.1-2.2-0.4-3-0.6c11.6-3.9,26.4,6.5,36.1-2.9
		c1.7-8.5-16.8,1.2-13.4-10c1.9-5.1,2.7-12.2-3.4-14.6c-7.3,4.4-17.2,5-21.9,13c-3.2,3.5-4.5,8.1-7.3,11.9
		C37.5,90.1,39.4,84.1,43,79.1z"/>
</g>
<g id="_x23_eac23bff">
	<path class="st28" d="M8.7,72.9c2.9-5.7,5.8-11.5,9.2-17c0,11.7-7.5,21.4-9.5,32.7c-0.7,3.1-0.9,7.1,2.3,8.8c2.9,1.4-2,4.9,0.7,6.2
		c6.5,4.5,11.2,11.9,10.2,20.1c-0.8,5.3,0.8,10.7,6.3,12.4c0.8,3.6,1.2,7.3,2,10.8c-7.2-3.8-2.6,7.3-1.7,11.1
		c-2.5-1.2-3-5.5-5.8-5.6c-3.8,8.9-14.4,16.6-9.6,26.9C5.2,165.9,3,150.3,0,135.4v-18C0.7,102.1,7.9,87.9,8.7,72.9z"/>
</g>
<g id="_x23_f5d650ff">
	<path class="st29" d="M116.2,56.8c1.4,4.3,2.9,8.6,4,13c0.4,11.6,5.8,23,15.2,29.9c16.2,0.9,32.4,4,48.7,1.2
		c-0.5,0.3-1.6,0.9-2.1,1.2c-15.9,3.8-32.5,3.8-48.5,0.6C119.3,91.8,117.4,73.1,116.2,56.8z"/>
</g>
<g id="_x23_bc8918ff">
	<path class="st30" d="M97.7,86.7c5.1-9.1,6.9-19.5,11.1-28.9c-0.4,11.2-4.6,21.9-7.4,32.6c-1.8,5.8-16.5,8.6-11.7,0.1
		C92.9,91.8,95.9,89.1,97.7,86.7z"/>
</g>
<g id="_x23_f5dd60ff">
	<path class="st31" d="M41.9,66.4c1.4-1.4,2.8-2.8,4-4.4c-0.4,2.4,1.1,3.3,3.3,3.4c-1.3,1.8-2.7,3.5-4,5.2c-0.3,0.4-0.9,1.1-1.2,1.5
		C41.7,70.9,40.6,68.9,41.9,66.4z"/>
</g>
<g id="_x23_dcba4aff">
	<path class="st32" d="M206.9,62.2c1.7,0.4,3.4,0.7,5.1,1c0.3,0.3,0.8,0.8,1.1,1.1c1.8,3.2,3.3,6.6,4.8,9.9c0.7,1.7,1.4,3.3,2.1,4.9
		c0.3,1.1,0.5,2.1,0.8,3.2l0.2,0.9C211.9,81.2,212.6,68.3,206.9,62.2z"/>
</g>
<g id="_x23_f9e464ff">
	<path class="st33" d="M120.2,69.8c4.2,9.1,5.4,20.8,15,26.1c3,2,7.3,0.5,8.4-2.9c13.2,3,28.8,2.8,40.5,8
		c-16.2,2.8-32.4-0.3-48.7-1.2C125.9,92.8,120.5,81.4,120.2,69.8z"/>
</g>
<g id="_x23_ab7a1cff">
	<path class="st34" d="M44,72.2c0.3-0.4,0.9-1.1,1.2-1.5c1.4,3.1-1.3,5.7-2.3,8.4c-3.6,5-5.5,11-7.2,16.8
		c-2.7,8.6-5.5,17.6-4.5,26.7c-4.1,6.6-2.2-6.2-7.4-4.9c0.9-15.2,5.2-30.5,13.5-43.4C39.9,74.2,42.7,75.1,44,72.2z"/>
</g>
<g id="_x23_dbab22ff">
	<path class="st35" d="M43.1,84.1c4.7-7.9,14.6-8.6,21.9-13c6.1,2.4,5.3,9.5,3.4,14.6c-3.3,11.2,15.2,1.5,13.4,10
		c-9.7,9.3-24.5-1-36.1,2.9c-0.6,1.1-1,2.2-1.1,3.5c-5.3-5.4,7.4-6.8,7.3-11.9c-6-2.8-11.7,4.4-13.3,9.5c-3.7,9.8-4.6,20.3-5.9,30.5
		c-0.5-2.5-0.9-5.1-1.5-7.6c-1-9.1,1.9-18.1,4.5-26.7C38.6,92.2,39.9,87.6,43.1,84.1z"/>
</g>
<g id="_x23_f9e880ff">
	<path class="st36" d="M0,97.5c3.2-8.1,4.3-17,8.7-24.6c-0.9,15-8.1,29.2-8.7,44.6V97.5z"/>
</g>
<g id="_x23_f3dd7cff">
	<path class="st37" d="M219.9,79.1c6.6,0.3,13.2-0.6,19.2-3.6c0.9,2,1.5,4.1,2,6.3c-6.8,0.5-13.7,2.2-20.5,0.5
		C220.5,81.3,220.2,80.2,219.9,79.1z"/>
</g>
<g id="_x23_e2c150ff">
	<path class="st38" d="M220.7,82.3c6.7,1.7,13.7,0,20.5-0.5c1.2,2.9,2.3,5.9,3.1,8.9c-6.4-3.7-14.5-0.2-21.4-2.5
		c-0.6-1.6-1.3-3.3-1.9-4.9L220.7,82.3z"/>
</g>
<g id="_x23_c29c35ff">
	<path class="st39" d="M222.9,88.2c6.9,2.3,15.1-1.2,21.4,2.5c0.9,3.7,2,7.3,3,11c0.1,3.4,0.2,6.8,0.6,10.2
		c-6.4-3.6-19.9,5.5-20.6-5.2c-0.9-5.5-2-11.1-4-16.3C223.1,89.9,222.9,88.8,222.9,88.2z"/>
</g>
<g id="_x23_e0b62fff">
	<path class="st40" d="M38.6,99.7c1.6-5.1,7.3-12.2,13.3-9.5c0,5.1-12.6,6.5-7.3,11.9c0.6,0.6,1.3,1.2,1.9,1.8
		c8.8,10.8,17.8,21.4,25.8,32.8c0.3,4.1,0.6,8.2-0.3,12.2c-8.3,4.1-14.5,11.9-23.7,14.6c-2.1,0.5-5.2,1.7-5.4-2.5
		c-4.9-6.5-5.9-14.8-8.9-22.1c-0.5-2.9-0.9-5.8-1.3-8.7C34,119.9,34.9,109.4,38.6,99.7z"/>
</g>
<g id="_x23_876119ff">
	<path class="st41" d="M220.2,93.9c-0.9-2.1,1.7-2.5,3-3.4c2,5.2,3.1,10.8,4,16.3c-0.1,0.5-0.2,1.5-0.3,2c-6,0-1.9,8.6-3.3,12.5
		C222.7,112.1,221.7,103,220.2,93.9z"/>
</g>
<g id="_x23_bd8e1fff">
	<path class="st42" d="M44.6,102.1c0.2-1.3,0.5-2.4,1.1-3.5c0.8,0.2,2.2,0.5,3,0.6c8.4,4.2,22.1,2.9,25.4,13.8
		c4.5,6.9,16.7,7.1,20.7-0.2c0.1,5.7,0,11.3,0.3,17c0.9,1.2,3.9,3.8,3.9,0.7l1.1-0.1c-0.5,3.9,3.5-1.4,3.1-3.1
		c0.5-2.2,0.9-4.3,1.4-6.5c2.7,5.3,5.1,10.7,7.4,16.2c2,4.6,7.1,6.5,9.3,10.9c-10.9-6-23.8-0.3-32.8,6.7
		c-7.3,4.1-15.5,10.3-15.5,19.6c-0.1,1.2-0.1,2.5-0.2,3.8c-0.3,1.1-0.6,2.2-0.9,3.2c-0.8,0-1.7,0-2.5-0.1c0.5-6.4,1.3-12.9,2.1-19.2
		c0.3,0.6,0.9,1.8,1.2,2.4c3.1-8.9,9.8-17.1,8.9-26.9c-0.5-3-3.1-3.3-5.6-2.7c-8.9-10.6-19-20.3-27.5-31.3c-0.5,0.1-1.6,0.4-2.1,0.6
		C45.9,103.3,45.2,102.7,44.6,102.1z"/>
</g>
<g id="_x23_dac48dff">
	<path class="st43" d="M247.3,101.7c1.5,5.1,2.1,10.3,1.6,15.6c-0.4-1.8-0.8-3.6-1-5.4C247.5,108.6,247.3,105.1,247.3,101.7z"/>
</g>
<g id="_x23_a2741fff">
	<path class="st44" d="M46.5,103.9c0.5-0.2,1.6-0.4,2.1-0.6c8.5,11,18.6,20.7,27.5,31.3c2.5-0.6,5-0.3,5.6,2.7
		c0.9,9.9-5.9,18-8.9,26.9c-0.3-0.6-0.9-1.8-1.2-2.4c-0.2-8.2,5.2-17.7,0.8-25.2C64.4,125.3,55.3,114.7,46.5,103.9z"/>
</g>
<g id="_x23_ab7717ff">
	<path class="st45" d="M182.6,102.6c4,2.5-1.4,6.7-2.7,9.2c-9.3,11.6-19.7,22.3-26.8,35.4c-0.3-2.1-0.7-4.2-1.2-6.3
		c-0.2-0.5-0.7-1.4-1-1.9c-1.2-1.8-3-4.1-1-6.1C159.3,121.3,172.1,113.1,182.6,102.6z"/>
</g>
<g id="_x23_e9c233ff">
	<path class="st46" d="M100.2,130.4c1-8.7-2.3-19.4-1.3-26.4C101.8,112.4,101.6,121.7,100.2,130.4z"/>
</g>
<g id="_x23_f0d969ff">
	<path class="st47" d="M98.8,104c10,0.3,1.3,17.3,4.4,23.3c0.3,1.8-3.6,7-3.1,3.1C101.6,121.7,101.8,112.4,98.8,104z"/>
</g>
<g id="_x23_f3d652ff">
	<path class="st48" d="M123.4,130.4c1.6-8.6-2.1-19.6-1.7-26.3c0.7,1.7,3.6,6.1,3.8,1.8c0.8,2.7,0.4,5.4,0.6,8.2
		c-1.8,5.1,3.2,14.1-2.6,17.1L123.4,130.4z"/>
</g>
<g id="_x23_faf0b0ff">
	<path class="st49" d="M121.7,104.1c1.6-0.3,2.9,0.6,3.8,1.8C125.3,110.1,122.4,105.8,121.7,104.1z"/>
</g>
<g id="_x23_d4a724ff">
	<path class="st50" d="M126.1,114.1c16.9-0.9,34.3-0.4,49.7-8.3c-8.9,7.2-20.6,10.5-31.5,13.5c-2.4,2.2-5.6,5.7-2.3,8.7
		c3,3.6,3.1,11,9,11.1c0.2,0.5,0.7,1.4,1,1.9c-0.5-0.2-1.6-0.5-2.1-0.7c-3.5-0.9-7-2.1-10.6-2.2c-5,4.2-2.9,11.9-0.3,16.9
		c4.2,7.4,7.6,15.4,13,22.1c1.8,2.8,3.4,5.8,3.9,9.2c-13.6-5.9-23.4-18.7-37.3-23.9c-16.4-5.1-26.4,10.2-37.4,18.8
		c3-4.3,7.4-7.9,9.3-12.9c1.2-2.4-0.2-6.5-3.4-5.4c-6.6,2.8-10,9.6-14.2,14.9c0.1-1.3,0.1-2.5,0.2-3.8c6.8-14.1,22.7-22.6,37.8-24
		c11.5,3.4,20,12.2,30.1,18.1c-3.9-11.4-13.3-20.8-12.6-33.6c0.2-2.9-3.9-1.8-4.8-3.5C129.3,128.1,124.3,119.2,126.1,114.1z"/>
</g>
<g id="_x23_9c6b19ff">
	<path class="st51" d="M94.8,112.8c-0.7-2.5,0.4-8.3,2.1-4.8c0.6,7.5-1.3,15.5,2.1,22.5c0,3.1-3,0.5-3.9-0.7
		C94.8,124.1,94.9,118.4,94.8,112.8z"/>
</g>
<g id="_x23_a97517ff">
	<path class="st52" d="M116.8,117.3c0.7-3.5-0.5-8.6,3.1-10.6c0.1,0.8,0.3,2.3,0.4,3.1c-0.2,7.5-1.1,15.3,1.7,22.5
		C115.6,130.6,117.3,122,116.8,117.3z"/>
</g>
<g id="_x23_ad8227ff">
	<path class="st53" d="M227.2,106.8c0.8,10.7,14.2,1.6,20.6,5.2c0.2,1.8,0.6,3.6,1,5.4c0.1,6.2,0.1,12.4,0.2,18.6l-1,0.1
		c0-5.3-0.1-10.7-0.2-16c-6.5-2.8-20.8,6.4-19.7-5.3c-0.4-2-0.9-4-1.2-6C227,108.3,227.2,107.2,227.2,106.8z"/>
</g>
<g id="_x23_5d3d12ff">
	<path class="st54" d="M223.7,121.3c1.4-3.9-2.7-12.5,3.3-12.5c0.3,2,0.8,4,1.2,6c-0.1,9.5,1.2,18.9-0.6,28.3
		c-0.4,2.9-1.4,5.7-1.3,8.6c3.1,5.2,9.7,2.4,14.5,2.5c2.3,1.6,3.1,4.4,3.7,7c-0.4,1.6-0.9,3.3-1.5,4.9l-0.6,0.2
		c-5.9,3.2-12.7,2.3-19.1,3c-4.8,5.4-5.7,13.7-11.9,18.1c-1.4,1.2-2.9,0.1-2.9-1.6c2.5-4.8,4.9-9.6,6.7-14.7
		C220.9,155.2,225,138.3,223.7,121.3z"/>
</g>
<g id="_x23_855f16ff">
	<path class="st55" d="M228.2,114.8c-1.1,11.7,13.2,2.5,19.7,5.3c0.1,5.3,0.2,10.7,0.2,16c-0.2,3-0.1,6.1-0.8,9
		c-6.5-1.5-13.4,0-19.7-2C229.4,133.7,228,124.2,228.2,114.8z"/>
</g>
<g id="_x23_d7cbb3ff">
	<path class="st56" d="M248.9,117.3l1.1-0.4V136l-0.9-0.1C249,129.8,249,123.6,248.9,117.3z"/>
</g>
<g id="_x23_cfa631ff">
	<path class="st57" d="M23.8,117.7c5.2-1.3,3.3,11.5,7.4,4.9c0.6,2.5,1,5,1.5,7.6c0.4,2.9,0.8,5.8,1.3,8.7
		c2,25.4,19.5,46.5,38.1,62.2C57,196.3,51.7,178.1,39,170.8c-0.2-0.3-0.7-0.9-1-1.1c-3.2-7.4-6.5-14.8-8.1-22.7
		c-0.8-3.6-1.2-7.2-2-10.8C25.8,130.1,21.9,124.4,23.8,117.7z"/>
	<path class="st57" d="M102.8,173.4c12.1-8.8,24.9,4.1,36.4,8.4c3.2,3.2,2.5,8,4.2,11.8c6.1,2.7,1.5,13.9,11.7,10.6
		c-0.7,0.5-1.4,1.1-2.2,1.6c-6.4,2.8-12.7,6.4-19.6,7.6c-5.1-0.7-10.3-1.4-15.5-1.6c0.7-2.4,2.3-4.3,3.9-6.1c2.8-2.5-1-6.1-1.4-9
		c-7.9-11.4-22.8-17-36.4-12.6l-0.1-0.7C90.2,180.2,96.6,177,102.8,173.4z"/>
</g>
<g id="_x23_fbf19bff">
	<path class="st58" d="M0,135.4c3,14.9,5.2,30.4,12.8,43.9c5.2,12.5,13.8,23.2,23.1,32.9c23.3,23.5,57.5,35.5,90.4,31.1
		c1.2-0.2,2.3-0.4,3.5-0.6c9.2-0.8,18.3,1.1,27.5,0.6c-27.3,5-56.8,8.7-83.1-2.4C36.3,227.4,9.8,192.6,0,154.5V135.4z"/>
</g>
<g id="_x23_bdab88ff">
	<path class="st59" d="M248.1,136l1-0.1c0.1,6.2-0.3,12.6-2.8,18.3c0.1-3.1,0.6-6.2,1-9.2C247.9,142.1,247.9,139,248.1,136z"/>
</g>
<g id="_x23_d8b038ff">
	<path class="st60" d="M72.4,136.6c4.4,7.5-1,17-0.8,25.2c-0.8,6.4-1.6,12.8-2.1,19.2c0.3,2.4-1.8,6.1,0.8,7.8
		c5,0.5,9.1-3.3,13.6-4.8c13.6-4.3,28.5,1.2,36.4,12.6c0.5,2.9,4.2,6.4,1.4,9c-1.6,1.8-3.2,3.7-3.9,6.1c5.2,0.1,10.3,0.9,15.5,1.6
		c-19.1,4.5-38.6,1.1-56.4-6.2c-2.5-1-4.9-2.1-7.4-3.1c-12.3-8.6-23.6-19.6-30.4-33.2c12.6,7.3,18,25.5,33.1,30.4
		C53.5,185.4,36,164.2,34,138.9c3.1,7.4,4.1,15.6,8.9,22.1c0.2,4.2,3.3,3,5.4,2.5c9.1-2.7,15.3-10.5,23.7-14.6
		C73,144.9,72.7,140.7,72.4,136.6z"/>
</g>
<g id="_x23_e6be39ff">
	<path class="st61" d="M139.3,138.1c3.7,0.1,7.1,1.3,10.6,2.2c1.5,5.6-1.9,4.3-5.7,2.8c-7.2,11.2,6.2,22.5,7.8,34
		c-5.4-6.7-8.8-14.7-13-22.1C136.4,150.1,134.3,142.3,139.3,138.1z"/>
</g>
<g id="_x23_f2d45dff">
	<path class="st62" d="M149.9,140.3c0.5,0.2,1.6,0.5,2.1,0.7c0.5,2.1,0.9,4.2,1.2,6.3c0.2,7.1,2.2,13.9,2.7,20.9
		c0.6,4.9,1.2,9.8,2.4,14.6c-0.2,1.9,0.5,5.6-2.3,3.5c-0.4-3.4-2.1-6.4-3.9-9.2c-1.6-11.5-15-22.8-7.8-34
		C148,144.6,151.4,145.9,149.9,140.3z"/>
</g>
<g id="_x23_735016ff">
	<path class="st63" d="M226.2,151.7c0-2.9,0.9-5.8,1.3-8.6c6.3,2,13.2,0.4,19.7,2c-0.5,3.1-0.9,6.1-1,9.2c-0.6,2.3-1.2,4.6-1.8,6.9
		c-0.6-2.6-1.4-5.3-3.7-7C235.9,154.1,229.3,156.9,226.2,151.7z"/>
</g>
<g id="_x23_ddb026ff">
	<path class="st64" d="M190,164.4c3.2-6.6,3.8-14.6,7.9-20.6c0.1,6.6-1.8,13-4.1,19.1c-8,18.6-21,36-39,45.9
		c-0.4,0.2-1.1,0.5-1.5,0.6c0.6-1.5,2.8-4.1-0.4-3.6c0.7-0.5,1.5-1,2.2-1.6c10.2-6.6,19.6-14.7,26.3-24.9
		C184.6,174.6,187.8,169.7,190,164.4z"/>
</g>
<g id="_x23_f2da71ff">
	<path class="st65" d="M28.2,158c-0.9-3.8-5.5-14.9,1.7-11.1c1.6,7.9,4.9,15.3,8.1,22.7c-1.5,0.1-3,0.2-4.4,0.5
		C31,166.4,30,162,28.2,158z"/>
</g>
<g id="_x23_c19322ff">
	<path class="st66" d="M163.3,151.3c7.2-1.7,16.1-0.6,21.4,5c1.6,2.9,1.3,7.2,5.3,8.1c-2.2,5.3-5.4,10.2-8.6,14.9
		c-4.6,4.4-9.9-1.4-15,2c-3.6,0-7.4,8.1-8.1,1.5c-1.2-4.8-1.8-9.7-2.4-14.6c0.5,0.1,1.6,0.4,2.2,0.5
		C160.5,163.2,161.7,157.1,163.3,151.3z"/>
</g>
<g id="_x23_dfb838ff">
	<path class="st67" d="M22.4,152.4c2.8,0.1,3.3,4.4,5.8,5.6c1.8,4,2.8,8.5,5.4,12.1c1.7,3.2,3.4,6.4,5.3,9.5c-3.1,5-3.1,11.4-4.4,17
		c-1.8,5.4,4.2,10.3,1.3,15.6c-9.2-9.7-17.8-20.5-23.1-32.9C8,169,18.6,161.2,22.4,152.4z"/>
</g>
<g id="_x23_c89c29ff">
	<path class="st68" d="M81.2,181.2c11-8.6,21-23.9,37.4-18.8c13.9,5.2,23.8,17.9,37.3,23.9c2.8,2.1,2.1-1.6,2.3-3.5
		c0.7,6.6,4.6-1.5,8.1-1.5c5.2-3.4,10.5,2.4,15-2c-6.7,10.2-16.1,18.3-26.3,24.9c-10.1,3.4-5.6-7.8-11.7-10.6
		c-1.7-3.9-0.9-8.6-4.2-11.8c3.5,1.9,7,3.9,11,4.3c-11.1-7.3-23.2-13.1-34.9-19.5c-12.9-6-24.8,8.5-31.5,16.7l0.1,0.7
		c-4.5,1.6-8.6,5.4-13.6,4.8c-2.5-1.7-0.5-5.4-0.8-7.8c0.8,0,1.7,0.1,2.5,0.1c-0.3,2-0.8,3.9-0.9,5.9
		C75.1,186.8,77.8,183.2,81.2,181.2z"/>
</g>
<g id="_x23_e8bf32ff">
	<path class="st69" d="M72.8,177.9c4.3-5.3,7.7-12.1,14.2-14.9c3.2-1.1,4.6,3,3.4,5.4c-1.9,5-6.3,8.6-9.3,12.9
		c-3.3,2-6,5.6-10.1,5.9c0.2-2,0.6-4,0.9-5.9C72.2,180.1,72.5,179,72.8,177.9z"/>
</g>
<g id="_x23_c39627ff">
	<path class="st70" d="M154.8,208.7c18.1-9.9,31-27.3,39-45.9c-5.6,12.3,8.8,10.2,15.1,13.2c-1,4.4-2.4,8.7-2.8,13.1
		c-0.7,1.7-1.6,3.4-2.5,4.9c-1.8,2.1-3.4,4.5-5,6.8c-1.3,1.7-5.5,4-2.3,6c7.8,0.4,16.1-2.8,23.5,0.2l0.3,0.7l-0.6,0.4
		c-7.5,6.2-18.5,4.1-26.4-0.2c-2.8,1.6-4.9,4.2-7.2,6.5c-0.4,0.4-1.3,1.1-1.7,1.5c-4.8,0.6-8,6.3-13.4,3.3
		c-5.2-2.6-13.8,2.3-16.6-4.4C152.3,213,154.2,210.7,154.8,208.7z"/>
</g>
<g id="_x23_b58b27ff">
	<path class="st71" d="M83.7,183.3c6.8-8.2,18.6-22.7,31.5-16.7c-3.6,0.2-13.4,1.5-12.4,6.8C96.6,177,90.2,180.2,83.7,183.3z"/>
</g>
<g id="_x23_725119ff">
	<path class="st72" d="M223.2,169.2c6.4-0.7,13.2,0.2,19.1-3c-0.9,1.8-1.5,3.7-1.2,5.7c-2.5,5.5-4.9,11.1-7.8,16.4
		c-7.7,1.7-17.4-2.2-23.5,4.4c-1.6,2.2-3.9,2.6-6.2,1.4c1-1.6,1.8-3.2,2.5-4.9c0.8-1.1,1.6-2.2,2.4-3.4c0,1.7,1.5,2.8,2.9,1.6
		C217.5,182.9,218.5,174.6,223.2,169.2z"/>
</g>
<g id="_x23_bfb098ff">
	<path class="st73" d="M242.4,166.3l0.6-0.2c0.7,2.2-0.1,4.4-1.8,5.9C240.9,169.9,241.5,168,242.4,166.3z"/>
</g>
<g id="_x23_9e7321ff">
	<path class="st74" d="M102.8,173.4c-1-5.2,8.8-6.6,12.4-6.8c11.7,6.4,23.8,12.1,34.9,19.5c-4-0.5-7.5-2.4-11-4.3
		C127.7,177.5,114.9,164.6,102.8,173.4z"/>
</g>
<g id="_x23_faf0b5ff">
	<path class="st75" d="M33.6,170.1c1.5-0.2,3-0.4,4.4-0.5c0.2,0.3,0.7,0.9,1,1.1c6.7,13.6,18,24.6,30.4,33.2c-0.4,1.4-0.7,3-2.4,3.4
		c-11.1-7.3-20.9-16.6-28.1-27.8C37,176.5,35.3,173.3,33.6,170.1z"/>
</g>
<g id="_x23_d4ad3aff">
	<path class="st76" d="M34.5,196.6c1.4-5.6,1.3-12,4.4-17c7.1,11.3,16.9,20.6,28.1,27.8c4.6,2.8,9.5,4.9,14.3,7.4
		c-4.6,2.2-9.7-2.8-13.6-2.1c-5.7,6.5,4.6,8.3,6.7,13.4c2.2,0.1,7.9,0.7,3.5,2.8c5.2-0.8,10.4,0.3,14.3,3.8
		c3.9,3.7,9.4,0.7,14.2,1.8c4.2,6.3,12.6,8.6,19.9,8.8c-32.9,4.4-67.1-7.6-90.4-31.1C38.7,207,32.7,202.1,34.5,196.6z"/>
</g>
<g id="_x23_906c22ff">
	<path class="st77" d="M209.8,192.8c6-6.6,15.7-2.8,23.5-4.4c-0.9,1.7-2,3.3-3,4.9c-7.2,5.6-18.3-1.1-24.4,5.6
		c-1.4,2.1-6.3,6.8-7.3,2c1.6-2.3,3.2-4.6,5-6.8C205.9,195.4,208.2,195,209.8,192.8z"/>
</g>
<g id="_x23_a9832bff">
	<path class="st78" d="M205.9,198.9c6.2-6.7,17.2-0.1,24.4-5.6c-2.3,3.7-4.7,7.3-7.1,10.9c-1.6,0.3-2.9,1.3-3.4,2.9
		c-7.4-3-15.8,0.2-23.5-0.2c-3.1-2,1-4.2,2.3-6C199.6,205.7,204.4,200.9,205.9,198.9z"/>
</g>
<g id="_x23_f7e372ff">
	<path class="st79" d="M69.4,204c2.5,1,4.9,2.1,7.4,3.1c3.5,3.3,14.8,3.9,13.3,10.3c-2.9-1-5.8-1.9-8.8-2.6
		c-4.7-2.5-9.7-4.6-14.3-7.4C68.7,207,69,205.4,69.4,204z"/>
</g>
<g id="_x23_deca9aff">
	<path class="st80" d="M219.8,207.1c0.5-1.6,1.9-2.5,3.4-2.9c-0.2,1.8-1.3,3.3-3.2,3.5L219.8,207.1z"/>
</g>
<g id="_x23_efcb40ff">
	<path class="st81" d="M133.2,213.3c7-1.2,13.2-4.8,19.6-7.6c3.2-0.5,1,2.1,0.4,3.6c-18.8,10.9-42.3,14-63.2,8
		c1.6-6.4-9.8-6.9-13.3-10.3C94.6,214.4,114.1,217.8,133.2,213.3z"/>
</g>
<g id="_x23_ceac3fff">
	<path class="st82" d="M185.8,214.5c2.3-2.2,4.4-4.9,7.2-6.5c7.9,4.3,18.9,6.4,26.4,0.2c-4.7,7-11.7,12-18.1,17.2
		c-5.8,1-11.6-0.2-17.4-0.5C183.5,220.5,193.3,216.6,185.8,214.5z"/>
</g>
<g id="_x23_cca435ff">
	<path class="st83" d="M153.3,209.4c0.4-0.2,1.1-0.5,1.5-0.6c-0.6,2-2.5,4.2-0.7,6.1c2.8,6.7,11.4,1.8,16.6,4.4
		c5.4,3,8.6-2.7,13.4-3.3c-5.2,5.7-11.8,9.7-18.3,13.7c-11,6.8-23.6,10.2-36,13c-1.2,0.2-2.3,0.4-3.5,0.6
		c-7.2-0.2-15.7-2.4-19.9-8.8c-4.7-1.1-10.2,1.8-14.2-1.8c-4-3.5-9.2-4.6-14.3-3.8c4.5-2.1-1.3-2.7-3.5-2.8
		c-2.1-5.1-12.5-6.9-6.7-13.4c3.8-0.7,8.9,4.3,13.6,2.1c3,0.7,5.9,1.5,8.8,2.6C111,223.4,134.5,220.3,153.3,209.4z"/>
</g>
<g id="_x23_e4c859ff">
	<path class="st84" d="M184.1,216c0.4-0.4,1.3-1.1,1.7-1.5c7.5,2.1-2.4,6-1.9,10.4c5.8,0.3,11.6,1.5,17.4,0.5
		c-6.2,4.7-12.5,9.6-20,12c-4.9-0.9-10.7,1.1-15.2-1.4c1-2.6,5.4-7.1-0.3-6.3C172.2,225.6,178.9,221.7,184.1,216z"/>
</g>
<g id="_x23_f1dd77ff">
	<path class="st85" d="M129.7,242.7c12.5-2.8,25.1-6.2,36-13c5.6-0.8,1.3,3.6,0.3,6.3c4.5,2.5,10.3,0.5,15.2,1.4
		c-7.8,2.7-16.1,3.8-24.1,6C148.1,243.8,138.9,241.9,129.7,242.7z"/>
</g>
</svg>
