<?xml version="1.0" encoding="utf-8"?>
<!-- Generator: Adobe Illustrator 26.0.3, SVG Export Plug-In . SVG Version: 6.00 Build 0)  -->
<svg version="1.1" id="Layer_1" xmlns="http://www.w3.org/2000/svg" xmlns:xlink="http://www.w3.org/1999/xlink" x="0px" y="0px"
	 viewBox="0 0 250 250" style="enable-background:new 0 0 250 250;" xml:space="preserve">
<style type="text/css">
	.st0{fill:#012453;}
	.st1{fill:#FEFEFD;}
</style>
<g id="_x23_012453ff">
	<path class="st0" d="M46.8,79.7c26.2-15.2,52.7-30.1,79-45.1l1.3,0.1c26.2,14.8,52.2,29.9,78.4,44.6c0,30.3,0.2,60.5-0.1,90.8
		c-21,11.7-41.8,23.8-62.7,35.7c-4.9,2.8-9.7,5.7-14.6,8.4c-0.9,0.6-2.1,0.3-3.2,0.3c-6.1-4.1-12.7-7.4-19.1-11.1
		c-19.7-11.3-39.4-22.4-59-33.6C47,139.7,46.9,109.7,46.8,79.7 M91.9,68.8c-2.2,11.5-5.3,22.9-7.6,34.4c26.6-0.1,53.1,0,79.7,0
		c1.6,0,3.2-0.2,4.7-0.3c-2.9-11.3-5.4-22.7-8.3-34.1C137.6,68.8,114.7,68.9,91.9,68.8 M104.1,108.5c2.4,4.9,4,10.1,6.1,15.1
		c0.6,1.7,1.6,3.4,1.3,5.3c-0.6,6.7-1.4,13.3-2.1,20c11.4,0,22.7,0,34.1,0c-0.9-5.1-1-10.3-1.7-15.4c-0.2-2.7-0.9-5.6,0.3-8.2
		c2.2-5.6,4.1-11.3,6.5-16.8C133.8,108.4,118.9,108.4,104.1,108.5 M82.7,115.7c-7.2,5.3-14.3,10.8-21.6,15.9
		c10.2,18.1,20.9,35.8,31.2,53.8c4,0.2,8,0.1,12,0.1c5.3-4.4,10.4-9.1,15.2-14c0.3-2.1,0.3-4.2,0-6.3c-4.8-5.2-10.2-9.7-15.1-14.8
		c-0.6-7.6-0.1-15.2-0.2-22.8c-6-4-12.2-7.6-18.2-11.6C85,115.5,83.7,114.8,82.7,115.7 M168.4,115c-6.6,4.3-13.3,8.5-19.9,12.8
		c0,7.7,0.2,15.4-0.2,23.2c-5.2,4.5-9.8,9.5-15,13.9c-0.1,2.4,0,4.8,0.1,7.2c4.9,4.3,9.9,8.7,14.6,13.2c4.1,0.1,8.3,0,12.4,0.1
		c10.5-17.8,20.6-35.7,31.2-53.5c-7.1-5.5-14.5-10.6-21.5-16.2C169.6,115.5,168.8,115.1,168.4,115z"/>
</g>
<g id="_x23_fefefdff">
	<path class="st1" d="M46.5,71.5c26.2-15,52.5-30,78.7-45c1-0.5,1.9-0.4,2.8,0.3C156.5,43,185,59,213.4,75.3c0.3,33,0.1,66,0.1,99.1
		c-28.5,16.3-57.1,32.4-85.6,48.7c-0.9,0.7-2.2,0.7-3.1-0.1c-28.4-16.2-56.8-32.5-85.2-48.7c0-32.9,0-65.7,0.1-98.6
		C41.7,73.9,44.3,72.9,46.5,71.5 M46.8,79.7c0.1,30,0.2,60.1,0,90.1c19.7,11.2,39.4,22.4,59,33.6c6.4,3.7,13,7.1,19.1,11.1
		c1.1-0.1,2.2,0.3,3.2-0.3c4.9-2.7,9.7-5.7,14.6-8.4c20.9-11.9,41.7-23.9,62.7-35.7c0.3-30.3,0.1-60.5,0.1-90.8
		c-26.2-14.8-52.2-29.8-78.4-44.6l-1.3-0.1C99.5,49.6,73,64.4,46.8,79.7z"/>
	<path class="st1" d="M91.9,68.8c22.8,0.1,45.7,0.1,68.5,0c2.9,11.3,5.4,22.8,8.3,34.1c-1.6,0.1-3.1,0.3-4.7,0.3
		c-26.6,0-53.1-0.1-79.7,0C86.6,91.6,89.7,80.3,91.9,68.8z"/>
	<path class="st1" d="M104.1,108.5c14.9-0.1,29.7-0.1,44.6,0c-2.4,5.5-4.4,11.2-6.5,16.8c-1.2,2.6-0.6,5.5-0.3,8.2
		c0.7,5.1,0.8,10.3,1.7,15.4c-11.4,0-22.8,0-34.1,0c0.7-6.7,1.5-13.3,2.1-20c0.3-1.9-0.8-3.6-1.3-5.3
		C108.1,118.6,106.5,113.4,104.1,108.5z"/>
	<path class="st1" d="M82.7,115.7c1-0.9,2.3-0.2,3.2,0.4c6,4,12.2,7.7,18.2,11.6c0.1,7.6-0.4,15.2,0.2,22.8
		c4.8,5.1,10.3,9.6,15.1,14.8c0.3,2.1,0.3,4.2,0,6.3c-4.8,4.9-9.9,9.6-15.2,14c-4-0.1-8,0-12-0.1c-10.3-18-21-35.8-31.2-53.8
		C68.3,126.4,75.5,121,82.7,115.7z"/>
	<path class="st1" d="M168.4,115c0.4,0.2,1.2,0.5,1.6,0.7c7,5.6,14.4,10.7,21.5,16.2c-10.6,17.7-20.7,35.7-31.2,53.5
		c-4.1-0.1-8.3,0-12.4-0.1c-4.7-4.6-9.6-8.9-14.6-13.2c-0.1-2.4-0.1-4.8-0.1-7.2c5.2-4.4,9.8-9.4,15-13.9c0.3-7.7,0.2-15.4,0.2-23.2
		C155.1,123.4,161.8,119.3,168.4,115z"/>
</g>
</svg>
