<?xml version="1.0" encoding="utf-8"?>
<!-- Generator: Adobe Illustrator 26.0.3, SVG Export Plug-In . SVG Version: 6.00 Build 0)  -->
<svg version="1.1" id="Layer_1" xmlns="http://www.w3.org/2000/svg" xmlns:xlink="http://www.w3.org/1999/xlink" x="0px" y="0px"
	 viewBox="0 0 241 250" style="enable-background:new 0 0 241 250;" xml:space="preserve">
<style type="text/css">
	.st0{fill:#F67696;}
	.st1{fill:#FB0238;}
	.st2{fill:#F77D99;}
	.st3{fill:#F590AB;}
	.st4{fill:#FC0248;}
	.st5{fill:#F06E87;}
	.st6{fill:#FB0429;}
	.st7{fill:#FB0257;}
	.st8{fill:#FC0367;}
	.st9{fill:#270521;}
	.st10{fill:#FB0377;}
	.st11{fill:#FC0388;}
	.st12{fill:#8B0645;}
	.st13{fill:#A27C7E;}
	.st14{fill:#1C1A1B;}
	.st15{fill:#944B60;}
	.st16{fill:#CAC8C9;}
	.st17{fill:#FC0297;}
	.st18{fill:#CA1832;}
	.st19{fill:#87064B;}
	.st20{fill:#6A6369;}
	.st21{fill:#518B8F;}
	.st22{fill:#B4848A;}
	.st23{fill:#F080C3;}
	.st24{fill:#260822;}
	.st25{fill:#F581C6;}
	.st26{fill:#890651;}
	.st27{fill:#B4AF14;}
	.st28{fill:#ABA016;}
	.st29{fill:#1B0F12;}
	.st30{fill:#A19716;}
	.st31{fill:#EDE10C;}
	.st32{fill:#726E11;}
	.st33{fill:#B2A916;}
	.st34{fill:#B2AB13;}
	.st35{fill:#B7B117;}
	.st36{fill:#82CB5F;}
	.st37{fill:#B5AE14;}
	.st38{fill:#F4E80A;}
	.st39{fill:#F0E40B;}
	.st40{fill:#F2E60A;}
	.st41{fill:#F5E809;}
	.st42{fill:#EEE50C;}
	.st43{fill:#F5E80A;}
	.st44{fill:#F47EC5;}
	.st45{fill:#827B15;}
	.st46{fill:#7B7411;}
	.st47{fill:#6C6110;}
	.st48{fill:#989217;}
	.st49{fill:#810525;}
	.st50{fill:#82800F;}
	.st51{fill:#7D7A0E;}
	.st52{fill:#91830E;}
	.st53{fill:#8E880F;}
	.st54{fill:#807C15;}
	.st55{fill:#837E10;}
	.st56{fill:#8D0554;}
	.st57{fill:#1B0B12;}
	.st58{fill:#29351C;}
	.st59{fill:#222415;}
	.st60{fill:#F586CD;}
	.st61{fill:#7F7110;}
	.st62{fill:#27767A;}
	.st63{fill:#968C18;}
	.st64{fill:#786B0D;}
	.st65{fill:#564F13;}
	.st66{fill:#7E7111;}
	.st67{fill:#857A0F;}
	.st68{fill:#62560F;}
	.st69{fill:#98336E;}
	.st70{fill:#82E971;}
	.st71{fill:#98931B;}
	.st72{fill:#88810F;}
	.st73{fill:#887D0F;}
	.st74{fill:#F65A6B;}
	.st75{fill:#787210;}
	.st76{fill:#8C7F15;}
	.st77{fill:#FC06A5;}
	.st78{fill:#696010;}
	.st79{fill:#C7C21D;}
	.st80{fill:#71690C;}
	.st81{fill:#6C670F;}
	.st82{fill:#665E0E;}
	.st83{fill:#696210;}
	.st84{fill:#2BAA8F;}
	.st85{fill:#625D0C;}
	.st86{fill:#665C0C;}
	.st87{fill:#5F5C0D;}
	.st88{fill:#555455;}
	.st89{fill:#3F323E;}
	.st90{fill:#71C2C3;}
	.st91{fill:#3E373E;}
	.st92{fill:#F7586D;}
	.st93{fill:#C1BDBE;}
	.st94{fill:#D1D1D1;}
	.st95{fill:#D3D2D3;}
	.st96{fill:#686867;}
	.st97{fill:#ECECEC;}
	.st98{fill:#717070;}
	.st99{fill:#C8C6C9;}
	.st100{fill:#5E5E5D;}
	.st101{fill:#E8EFEF;}
	.st102{fill:#EDEDED;}
	.st103{fill:#969592;}
	.st104{fill:#CECCCE;}
	.st105{fill:#E9EDEE;}
	.st106{fill:#F5F5F5;}
	.st107{fill:#F5F5F4;}
	.st108{fill:#F4F5F5;}
	.st109{fill:#F5F6F6;}
	.st110{fill:#7C0528;}
	.st111{fill:#2A2229;}
	.st112{fill:#9E9F9F;}
	.st113{fill:#A6A0A7;}
	.st114{fill:#858486;}
	.st115{fill:#F68DD3;}
	.st116{fill:#848383;}
	.st117{fill:#A2A1A2;}
	.st118{fill:#828281;}
	.st119{fill:#1A0B18;}
	.st120{fill:#878787;}
	.st121{fill:#1D1C22;}
	.st122{fill:#757473;}
	.st123{fill:#7A7A7A;}
	.st124{fill:#1B0E19;}
	.st125{fill:#A0A0A0;}
	.st126{fill:#6D706F;}
	.st127{fill:#8F8E92;}
	.st128{fill:#8B8A8A;}
	.st129{fill:#959297;}
	.st130{fill:#605D60;}
	.st131{fill:#969A99;}
	.st132{fill:#625960;}
	.st133{fill:#F47DCB;}
	.st134{fill:#5E6465;}
	.st135{fill:#FC023D;}
	.st136{fill:#656765;}
	.st137{fill:#545155;}
	.st138{fill:#BFBEC0;}
	.st139{fill:#676265;}
	.st140{fill:#10040F;}
	.st141{fill:#C6E5E7;}
	.st142{fill:#666C6C;}
	.st143{fill:#F480CF;}
	.st144{fill:#950B5D;}
	.st145{fill:#5F5F61;}
	.st146{fill:#5C5B5E;}
	.st147{fill:#5F615F;}
	.st148{fill:#5D5D5C;}
	.st149{fill:#B3A320;}
	.st150{fill:#A8971D;}
	.st151{fill:#A7961D;}
	.st152{fill:#B1A21F;}
	.st153{fill:#A2921C;}
	.st154{fill:#4C8993;}
	.st155{fill:#62919B;}
	.st156{fill:#5C808E;}
	.st157{fill:#55818E;}
	.st158{fill:#589099;}
	.st159{fill:#94075D;}
	.st160{fill:#749BA6;}
	.st161{fill:#9C073C;}
	.st162{fill:#FB0352;}
	.st163{fill:#8F0757;}
	.st164{fill:#FB0288;}
	.st165{fill:#930858;}
	.st166{fill:#8F0552;}
	.st167{fill:#FC0366;}
	.st168{fill:#A40855;}
	.st169{fill:#FD0277;}
	.st170{fill:#960749;}
	.st171{fill:#F589C2;}
	.st172{fill:#F770B8;}
	.st173{fill:#FA8DC2;}
</style>
<g id="_x23_f67696ff">
	<path class="st0" d="M106.2,12.9c1.1-1.9,4.8-1.1,6.7-0.5c-0.4,0.2-1.3,0.6-1.7,0.8C109.5,13.1,107.9,13,106.2,12.9z"/>
</g>
<g id="_x23_fb0238ff">
	<path class="st1" d="M112.9,12.4c2.7-0.6,5.5-0.6,8.2,0c2.2,0.6,4.5,0.8,6.7,0.6c0.5,0.1,1.6,0.3,2.2,0.4c1.5,0.6,3.2,0.7,4.8,0.5
		c4.4,0.4,9.4,0.9,13.3,3.2c-9.1,5.5,4.8,12.4,3.1,19.7c0.3,5,10,7.2,6,12.2c1.2,4.8,10.3,4,8.1,9.2c-16.1-12.1-36.7-16.6-56.5-15.5
		c4.7-0.7,9.5-0.6,14.3-0.9c-2-7.3-7.4-13.2-10.3-20.1c0.3-3.8-5.6-5-1.6-8.6C111.6,13,112.5,12.6,112.9,12.4z"/>
</g>
<g id="_x23_f77d99ff">
	<path class="st2" d="M121.1,12.4c1.8-1,6-1.7,6.7,0.6C125.6,13.2,123.3,13,121.1,12.4z"/>
</g>
<g id="_x23_f590abff">
	<path class="st3" d="M98.2,14c-0.2-1.9,3-1.7,3.8-0.6C100.8,14.1,99.5,14.2,98.2,14z"/>
</g>
<g id="_x23_fc0248ff">
	<path class="st4" d="M102,13.4c1.4-0.4,2.8-0.6,4.2-0.6c1.7,0.1,3.3,0.3,5,0.3c-3.9,3.6,2,4.8,1.6,8.6c2.9,6.9,8.3,12.8,10.3,20.1
		c-4.8,0.3-9.6,0.3-14.3,0.9c-5.3,0.7-10.4,2.1-15.6,3.3c2.8-6.1-3.6-10.7-5-16.1c0.4-6.1-7.5-6-6.3-11.9c5-2.5,10.8-3.2,16.3-4.1
		C99.5,14.2,100.8,14.1,102,13.4z"/>
</g>
<g id="_x23_f06e87ff">
	<path class="st5" d="M130,13.5c1.2-1,4.6-1.5,4.8,0.5C133.2,14.2,131.5,14.1,130,13.5z"/>
</g>
<g id="_x23_fb0429ff">
	<path class="st6" d="M148.1,17.2c44.3,11,78.6,53.4,80.9,99c-0.3,2.3-0.1,4.6,0.5,6.8c0.5,1.4,0.5,2.8,0.1,4.2
		c-0.6,2.2-0.8,4.4-0.6,6.7c-0.4,12.4-3.5,25.5-9,36.4c-9.8-2.6-6.2-19.4-18.1-19.3c3.3-4.6,0.6-7.9-4-9.9c0.1-0.4,0.2-1.3,0.2-1.7
		c0.6-3.5,1-7,0.7-10.5c0-2.5,0-5-0.1-7.5c0.5-5.2,0.5-10.6-1.6-15.5c-1.2-3.7-2.4-7.3-3.3-11.1l0-1c5.2-1.4,2.8,10.1,7.5,4.5
		c3.9-3.6-0.1-10.1,0.6-14.4c3.6-10.3-9.1-6.9-10-0.7c-0.2,0.3-0.6,1-0.8,1.4c-2.2-0.4-6,0.5-6.4-2.4c0.3-0.5,0.9-1.5,1.2-2.1
		c-5.7-8.3-12.8-15.6-20.8-21.7c2.1-5.2-6.9-4.4-8.1-9.2c4-5-5.7-7.2-6-12.2C152.9,29.6,139,22.7,148.1,17.2z"/>
</g>
<g id="_x23_fb0257ff">
	<path class="st7" d="M65.1,25.1c5.2-3.1,10.8-5.7,16.8-7c-1.3,5.8,6.6,5.8,6.3,11.9c1.4,5.4,7.9,10,5,16.1
		C84.7,48.8,77,53.3,69,57.2c-0.1-3.5,6.3-4.2,4.5-7.8c-4.2-5.1-4.2-13-10.1-16.8C63.7,30.1,64.4,27.6,65.1,25.1z"/>
</g>
<g id="_x23_fc0367ff">
	<path class="st8" d="M38.7,44c7.2-8.1,16.6-14.2,26.3-18.9c-0.6,2.5-1.4,5-1.7,7.6c5.9,3.7,5.9,11.6,10.1,16.8
		c1.8,3.6-4.6,4.2-4.5,7.8c-1.8,2.1-4,3.8-6.1,5.5c-3.2,2.1-6.5,4.5-8.2,8c-0.4,0.4-1.1,1.1-1.4,1.5c-0.8-3.6,1.6-10-3.5-11.2
		C44.8,56.3,44.9,47.8,38.7,44z"/>
</g>
<g id="_x23_270521ff">
	<path class="st9" d="M93.2,46.1c5.2-1.2,10.3-2.6,15.6-3.3c19.8-1,40.4,3.4,56.5,15.5c8,6.1,15.1,13.4,20.8,21.7
		c-0.3,0.5-0.9,1.5-1.2,2.1c-1.3,0.4-2.8,1-3.2,2.5c-0.8,0.9-0.7,1.6,0.3,2.1c1.4,1.3,3.6,1,5.1,0c0.2,0.5,0.6,1.6,0.8,2.2
		c-3.1,4-1.3,9.3-4.9,13.1c-0.4,0.1-1.2,0.2-1.5,0.3c-4.7-0.1-9.5-0.3-14.2-0.2c-0.5,0-1.5,0-1.9,0c-7.4,0-14.8-0.2-22.1-0.1
		c-1.9-0.1-4,0.1-5.2,1.9c-0.2-0.2-0.7-0.6-1-0.8c-5.7-1.7-12.2-1.5-18.1-0.4c-0.9-0.2-1.8-0.4-2.7-0.5c-5.1-1.7-6.8,2.5-7,7.1
		c-3.3-0.3-9.2,1.7-8.3-3.3c0.2-0.4,0.5-1.3,0.6-1.7c2.6-3.9-3.6-1.9-6.2-2c-1.5,0.9-2.8,2.1-4.1,3.2c-1-0.8-1.9-1.6-3-2.3
		c-4.8,0.7-18.4-5.2-18.1,2.4c-0.2-0.4-0.5-1.1-0.7-1.4c-5.6-4.2-15.8-1-23.2-1.8c0.1,0.5,0.4,1.4,0.5,1.9c-0.3,2-0.1,4.1,0.7,6.1
		c-1.9,0.5-1.7,2.7-1,4.1c-0.5,1.6-1,3.1-1.5,4.7c-0.6,1.8-1.2,3.6-1.8,5.4c-1.9,2.8,1.1,2.7,2.9,3.8c-3.6-0.1-7.3,0-10.9-0.1
		c0-4.4-0.1-8.8-0.1-13.2L35,114c1.5-1.2,1.4-3.2,1-4.9c1.1-2.6,1.9-5.2,2.1-8c0.8-3.5,2.1-6.8,3.9-9.9c1.4-1.9,2.4-4.1,2.9-6.3
		c2.5-4.4,5.6-8.3,8.4-12.5c0.3-0.4,1-1.1,1.4-1.5c3.1-2.2,6.1-4.7,8.2-8c2.1-1.8,4.3-3.5,6.1-5.5C77,53.3,84.7,48.8,93.2,46.1z"/>
</g>
<g id="_x23_fb0377ff">
	<path class="st10" d="M24,60.9c4-6.3,9-12.1,14.7-16.9c6.2,3.8,6.1,12.3,11.1,17.1c5,1.3,2.7,7.6,3.5,11.2
		c-2.8,4.2-5.9,8.1-8.4,12.5c-1.8,1.7-2.9,3.9-2.9,6.3c-1.8,3.1-3.1,6.5-3.9,9.9L37,101c1.3-4.8,3-9.9-1.3-13.8
		C32.6,78.1,26.6,70.3,24,60.9z"/>
</g>
<g id="_x23_fc0388ff">
	<path class="st11" d="M12,84c2.4-8.3,7.1-16,12-23.1c2.5,9.4,8.6,17.2,11.7,26.4c4.3,3.9,2.7,9,1.3,13.8c-0.5,2.7-0.9,5.4-1,8.1
		c-1.6,1.1-1.4,3.2-1,4.9l-0.1,0.8c-0.5,4-0.6,8.1-1.1,12.1c-2.6,0-5.3,0-7.9,0c2.4-0.6,5.5-1.5,3.8-4.5c-4.7-7-7.8-14.9-11.8-22.2
		C12.9,96.3,12.6,89.7,12,84z"/>
</g>
<g id="_x23_8b0645ff">
	<path class="st12" d="M54.7,70.8c1.7-3.6,5-5.9,8.2-8C60.9,66.1,57.9,68.6,54.7,70.8z"/>
</g>
<g id="_x23_a27c7eff">
	<path class="st13" d="M192,83.1c0.9-6.2,13.5-9.6,10,0.7c-1.3,1.4-2.5,2.9-3.8,4.3c-0.2-1-0.4-2.1-0.6-3.1c4.6-1,2.3-7.9-1.8-4.3
		c-2.6,1.5-0.4,2.6,1.2,3.7C195.2,84,193.6,83.6,192,83.1z"/>
</g>
<g id="_x23_1c1a1bff">
	<path class="st14" d="M195.7,80.7c4.1-3.6,6.5,3.3,1.8,4.3l-0.6-0.6C195.3,83.3,193.1,82.2,195.7,80.7z"/>
</g>
<g id="_x23_944b60ff">
	<path class="st15" d="M181.7,84.6c0.4-1.5,1.9-2.1,3.2-2.5c0.3,3,4.2,2.1,6.4,2.4C189.9,88.9,184.6,83.8,181.7,84.6z"/>
</g>
<g id="_x23_cac8c9ff">
	<path class="st16" d="M192,83.1c1.6,0.5,3.3,0.9,4.9,1.4l0.6,0.6c0.2,1,0.4,2.1,0.6,3.1c-0.3,0.4-0.9,1.3-1.3,1.8
		c-1,1.3-2,2.6-3,3.8c-3.2-1.3-4.5,2.3-6.9,3.5c0.7-2.8,2.5-5.6,0.8-8.4c-0.2-0.5-0.6-1.6-0.8-2.2c-1.3,0-3.8,0-5.1,0
		c-1-0.5-1.1-1.2-0.3-2.1c2.9-0.7,8.2,4.4,9.6-0.1C191.4,84.1,191.8,83.4,192,83.1z"/>
</g>
<g id="_x23_fc0297ff">
	<path class="st17" d="M8,95.2c1-3.7,1.8-8.3,4-11.2c0.6,5.8,0.9,12.3,5.8,16.2c4.1,7.2,7.1,15.2,11.8,22.2c1.7,3.1-1.4,4-3.8,4.5
		c-1.6,0.3-0.3,2.5-0.5,3.6c2.2,7.4-4.7,14.6-2.8,21.7c2.3,3.2,8.5,3.1,10.6-0.2c0.9-0.8,1.8-1.5,2.7-2.2c5.7,9.1,10.1,19,17,27.4
		c0,1.9,1.4,3.4,3.3,3.7c1.4,1.3,2.7,2.7,4,4c0.4,1.5,1.4,2.8,2.8,3.5c-0.4,5.1,5.2,7.5,6.4,12.1c2.8,10.9,13,20.1,12.8,31.6
		c-12-3-23.7-9.8-32.9-16.9c1-7.5-5.4-13.7-8.3-20.1c-8.7-17.4-16.3-35.2-25.8-52.1c-2.7-8.6-10.6-15.2-10.2-24.8
		c0-2.8,0.1-5.5,0.2-8.3l0.3-0.9c0.7-1.5,0.8-3.2,0.6-4.9l0.3-1c0.6-1.2,0.8-2.6,0.9-4C8,97.9,8.2,96.5,8,95.2z"/>
</g>
<g id="_x23_ca1832ff">
	<path class="st18" d="M198.2,88.1c1.2-1.4,2.5-2.9,3.8-4.3c-0.6,4.3,3.3,10.8-0.6,14.4c-1.4-2.8-2.8-5.6-4.5-8.3
		C197.2,89.4,197.9,88.6,198.2,88.1z"/>
</g>
<g id="_x23_87064bff">
	<path class="st19" d="M42,91.1c0-2.5,1.1-4.7,2.9-6.3C44.4,87.1,43.4,89.2,42,91.1z"/>
</g>
<g id="_x23_6a6369ff">
	<path class="st20" d="M181.9,86.7c1.3,0,3.8,0,5.1,0C185.5,87.6,183.3,88,181.9,86.7z"/>
</g>
<g id="_x23_518b8fff">
	<path class="st21" d="M182.9,101.9c3.6-3.8,1.8-9.1,4.9-13.1c1.7,2.8,0,5.6-0.8,8.4c2.4-1.2,3.7-4.8,6.9-3.5l0,1
		c-2.7,2.8-7,3.5-9,7.1C184.4,101.9,183.4,101.9,182.9,101.9z"/>
</g>
<g id="_x23_b4848aff">
	<path class="st22" d="M193.9,93.7c1.1-1.2,2-2.6,3-3.8c1.6,2.7,3.1,5.5,4.5,8.3C196.7,103.8,199.1,92.3,193.9,93.7z"/>
</g>
<g id="_x23_f080c3ff">
	<path class="st23" d="M7.3,99.1c-1-1-1.1-4.1,0.7-3.9C8.2,96.5,8,97.9,7.3,99.1z"/>
</g>
<g id="_x23_260822ff">
	<path class="st24" d="M184.9,101.8c2-3.6,6.2-4.3,9-7.1c0.9,3.8,2.1,7.4,3.3,11.1c0.4,5.2,0.3,10.4,1.6,15.5c0.1,2.5,0.1,5,0.1,7.5
		c-0.6,3.5-0.8,7-0.7,10.5c-0.1,0.4-0.2,1.3-0.2,1.7c-3.1,14.5-9.8,28.1-19.7,39.1c-2.3,1.8-4.4,3.8-6.1,6.2
		c-7.5,6.7-16.1,11.8-25.3,15.6c-4.5,1.6-9.1,3-13.7,4.3c-3.3-1.6-5.6-1.2-6.9,1.1c-8.6,0.3-17.1-1-25.7-1.3
		c-0.5-0.1-1.6-0.2-2.2-0.2c-2.7-1.1-5.5-2-8.2-2.9c-1.3-1.4-3.1-2.3-5.1-1.7c-1-0.4-2-0.9-2.9-1.3c-1-1.9-3-2.8-5.1-2.7
		c-4.7-2.6-9-5.8-13.3-9.1c0-1.9-1.7-3.1-3.5-3.2c-1.3-1.4-2.7-2.7-4-4c-0.1-1.9-1.5-3.3-3.3-3.7c-6.8-8.4-11.3-18.3-17-27.4
		c-1.2-3.4-3.7,0-2.7,2.2c-2.1,3.2-8.3,3.4-10.6,0.2c2.2-0.5,4.5-1.1,6.7-1.8c0.9-1.7,1.4-3.5,2-5.2c1.1-1.1,1.2-2.7,0.7-4.1
		c1.6-0.8,1.3-2.9,0.6-4.2l0.2-0.9c3-0.5,6.1-0.8,9.2-1c0.1,1.8-0.2,3.6-1,5.2c-1.5,0.2-4.4,0.7-5.9,0.9
		c4.3,14.2,14.9,27.2,28.7,33.3c2,0.9,4.2,1.5,6.4,1.7c-1-1.4-2.3-2.4-3.7-3.2c-7.2-4.8-12.8-11.6-17.5-18.8
		c17.5,1.9,35.2,0.7,52.7,0.8c1.4-1.4,2.4-3.2,3.6-4.7c5.5,8,16.5,4.9,24.9,4.2c-10.9,8.5-23.1,15.3-36.1,20
		c-1.4-0.6-3.3-0.8-4.1,0.8c-1.4-0.5-3.1-0.4-4.1,0.9c-0.4,0.1-1.2,0.3-1.6,0.4c-3.3,0.3-19-1.8-9.8,1.9c2,0.9,4.1,1.7,6.2,2.1
		c4.8,0.8,9.8,1.6,14.5,0.2c9.8-2.8,18.4-8.5,26.6-14.3c1.5,0.4,2.9-0.6,3-2.2c7-5,12.9-11.4,19.5-16.9c2.2-0.9,7.4-9.7,7.8-4.8
		c-0.6,2.6-1.4,5.3-1.1,8c2.2,2.2,4.2,2.2,5.8,0.1c2.1-4.8,2.1-10.3,4-15.2c2.5-0.6,6.9,1.3,8-1.1c0.1-0.5,0.3-1.4,0.4-1.8
		c0.9-1,1.6-4-0.5-3.9c-1.6-0.1-3.3-0.1-4.9-0.1l-0.9-0.3c0.9-1.1,1.8-2.1,2.7-3.2c5.4-0.9,13.9,2.7,18.2-0.7
		c0.4-1.3,0.9-2.5,1.3-3.8c1.1-1.2,1.2-2.8,0.6-4.2l0.3-0.8c1.3-1,1.3-2.7,0.8-4.1c1.4-0.8,1.4-2.5,1.1-4l0.2-0.8
		C189.9,102.9,188.6,101.2,184.9,101.8 M172.1,128c-0.1,0.5-0.2,1.5-0.2,2.1c-1.7,0.7-1.7,5.2,0.1,5.7c1.2,2.3,3,4.3,4.7,6.2
		c-2,2.3-9.1-1.2-8.6,2.1c-0.2,1.3-0.2,2.6-0.2,3.9c2.6-7.9-6.2-4.9-4.5-0.6c-0.6,8.9,9.5,8.6,15.6,7.6c3.1,1.6,7-0.9,7.1-4l-0.3-1
		c3.4-5.5-1.3-10-4.3-14.1c1.6-0.7,4.7,0,5.3-1.9c2.1-0.3,3.3-2.7,4.7-4.1l0.8,0.1c2.3,0.9,1.8-1.4,1.8-2.9
		C187.1,127.5,177.1,125.6,172.1,128 M65.2,158.3c-2.5,0.1-2.1,1.8-1,3.5C67.7,164,67.9,158.2,65.2,158.3 M75.2,158.1
		c-1.7,0.9-2.1,5.1,0.7,3.8C79.1,162.1,78.1,157,75.2,158.1 M85.2,158.1c-3,1.8,0.3,4.9,2.8,3.9C88.4,160.2,87.6,157.3,85.2,158.1
		 M96.1,158.1c-1.3,0.9-1.1,2.5-1.1,3.9C98.4,163.3,100.4,157.9,96.1,158.1 M106.2,158.1c-1.7,1-2.1,5,0.8,3.9
		C110.6,163.4,109.1,156.8,106.2,158.1z"/>
</g>
<g id="_x23_f581c6ff">
	<path class="st25" d="M6.4,103.1c-1.1-1-1-4.1,0.9-4C7.2,100.5,7,101.8,6.4,103.1z"/>
</g>
<g id="_x23_890651ff">
	<path class="st26" d="M37,101l1.1,0.1c-0.2,2.8-1,5.5-2.1,8C36.1,106.4,36.5,103.7,37,101z"/>
</g>
<g id="_x23_b4af14ff">
	<path class="st27" d="M46.1,102.1c7.4,0.7,17.6-2.4,23.2,1.8l-0.8-0.1c-7.2-0.7-14.8-1.7-21.8,0.2
		C46.5,103.5,46.3,102.5,46.1,102.1z"/>
</g>
<g id="_x23_aba016ff">
	<path class="st28" d="M70,105.3c-0.3-7.6,13.4-1.8,18.1-2.4C82.8,104.7,73.5,99.6,70,105.3z"/>
</g>
<g id="_x23_1b0f12ff">
	<path class="st29" d="M91.1,105.2c1.3-1.1,2.6-2.3,4.1-3.2l-0.3,0.8c-0.5,1.4-0.9,2.7-1.3,4.1c-1.6,2.5-1.6,4.6,0.1,6.2
		c1.1,1,2.2,2,3.4,3c0.8,1,1.6,2,2.4,2.9c-0.7,1.6-1.5,3.3-1.3,5.1c2.2,2.2,4.1,2.2,5.8,0c0.7-6.8,6.2-8.9,11.2-12.2
		c1.6-0.8,1.3-2.7,0.8-4.1c0.4-1.3,0.9-2.6,1.3-4c-1.4,11.4,16.6-1,15.3,9.3c-5.3,1-11.7-0.3-16.3,1.9l-0.5,0.7
		c-1,1.1-1,2.7-0.8,4.1c-5.3,6.3,5.9,7.5,6.3,3.2c0.2-4.9,8.2-0.3,10.8-2.3c4.2-1.7,6.8-5.3,7.7-9.7c0-1.3-0.1-3.9-0.1-5.2
		c-0.4-0.5-1.2-1.6-1.6-2.1c1.2-1.7,3.3-1.9,5.2-1.9l-0.2,0.9c-0.4,1.6-0.8,3.3-0.8,5c1.7,1.8,7.8-0.1,6.3,5.3
		c-1.8,0.5-1.7,2.5-1.3,3.9c-1.2,0.9-1.5,2.4-1.4,3.8c-2.8,4.9,3.7,5.8,6.4,3.3c0.5-1,0.9-2,1.3-3c1-1.2,1.1-2.7,0.6-4.1
		c1.6-0.8,1.4-2.8,0.8-4.1c0.4-1.3,0.9-2.5,1.3-3.8c2.5-0.9,7.8,1.7,8.2-2l0.2-0.9c0.3-1.4,0.5-2.8,0.7-4.2c0.5,0,1.4,0,1.9,0
		l-0.2,0.9c-2,7-3.6,14-4.8,21.2c-0.3,1-0.7,2-1,3c-0.9,0.4-1.8,0.8-2.6,1.2c-3.4-0.1-6.8-0.2-10.2-0.3c-0.5,0-1.4-0.1-1.9-0.2
		c-6.6,0.1-16.9-3.1-22.1,0.2L124,129c-0.5-0.2-1.5-0.6-1.9-0.8c-7.8-3.7-10,6.5-16,7.7c0.1-1.3,0.1-2.6-0.3-3.9
		c3.1-4.8-1.5-4.3-5.6-4c-0.5,0-1.4-0.1-1.9-0.2c-14.4-0.4-29.3-1.3-43.5-0.1c-0.4,1-0.8,2.1-1.2,3.2c-0.9,1.2-1,2.8-0.6,4.2
		c-1,3.9-2,7.9-3.3,11.8c-0.6,2.6-2.7,7.8,4.3,4.2c13.1-0.7,26.2,0.4,39.2-0.8c0.4,0,1.2,0.1,1.7,0.1c2.2-0.6,7.3,2.6,7.3-1.2
		c0.4-1.7,0.6-3.5,0.9-5.2c1.3-0.3,2.5-0.7,3.8-1c1.4,2.5,2.5,5.1,4.1,7.5c2.1,1.6,4.2,1.6,6.1-0.1c5.4,0.5,11,0.1,16.3,1.5
		c-1,0.8-2.1,1.7-3.2,2.5c-8.5,0.8-19.4,3.9-24.9-4.2c-1.2,1.6-2.2,3.3-3.6,4.7c-17.6,0-35.3,1.2-52.7-0.8
		c-1.4-3.4-6.9-7.6-2.9-10.9c2.9-4.3,4.5-10.5,0.3-14.4l-0.5-0.6c-1.8-1.1-4.8-1-2.9-3.8c7,1,14.1,1,21.1,0c0.5,0,1.4,0.1,1.8,0.1
		c3,2,5,1.9,6-0.3c1.6-5,2-10.4,4-15.2c2.7,0.7,8-1.6,8.5,2.3c-0.8,3.6-3.8,4.6-7.5,4.1c0.7,3,1.9,5.9,3.1,8.8
		c1.2,1.5,10.7,2.5,7.1-2c-2.3-2.5,1.1-4.3,2.3-6.4C90.8,112.3,90.7,108.6,91.1,105.2z"/>
</g>
<g id="_x23_a19716ff">
	<path class="st30" d="M95.2,102c2.5,0.1,8.7-1.8,6.2,2c-1.6-0.3-4.8-0.9-6.4-1.2L95.2,102z"/>
</g>
<g id="_x23_ede10cff">
	<path class="st31" d="M109,109.1c0.3-4.6,1.9-8.7,7-7.1c0.3,0.5,0.8,1.5,1.1,1.9c-0.4,1.3-0.8,2.6-1.3,4c-1.2,1-1.3,2.7-0.8,4.1
		c-4.9,3.3-10.5,5.4-11.2,12.2c-1.9-0.4-3.9-0.5-5.8,0c-0.2-1.8,0.6-3.5,1.3-5.1c1.8-1.9-0.2-3.9-2.4-2.9c-1.2-1-2.3-1.9-3.4-3
		c1-2,0.8-4.2-0.1-6.2c0.4-1.4,0.9-2.8,1.3-4.1c1.6,0.3,4.8,0.9,6.4,1.2c-0.1,0.4-0.4,1.3-0.6,1.7C96.9,111.6,106.4,111.1,109,109.1
		z"/>
</g>
<g id="_x23_726e11ff">
	<path class="st32" d="M116,102c0.9,0.2,1.8,0.3,2.7,0.5l0.1,1c-2.5,10.9,18.7-2.3,13.6,9.7c1.3-10.4-16.7,2.1-15.3-9.3
		C116.8,103.5,116.3,102.5,116,102z"/>
</g>
<g id="_x23_b2a916ff">
	<path class="st33" d="M118.7,102.6c5.9-1.1,12.5-1.2,18.1,0.4c-6-0.1-12.1-0.2-18,0.6L118.7,102.6z"/>
</g>
<g id="_x23_b2ab13ff">
	<path class="st34" d="M143,101.9c7.4-0.1,14.8,0.1,22.1,0.1c-0.2,1.4-0.4,2.8-0.7,4.2c-1.7-7.9-15.7-0.9-21.7-3.4L143,101.9z"/>
</g>
<g id="_x23_b7b117ff">
	<path class="st35" d="M167.1,102c4.7-0.1,9.5,0.1,14.2,0.2l-0.5,0.7c-4.7,0.1-9.3,0.1-14,0L167.1,102z"/>
</g>
<g id="_x23_82cb5fff">
	<path class="st36" d="M181.3,102.2c0.4-0.1,1.2-0.2,1.5-0.3c0.5,0,1.5-0.1,2-0.1c-1.7,2.2-3.5,4.5-5.2,6.7
		c-1.2,0.8-2.3,1.6-3.4,2.4c-0.3-1.8-2-1.9-3.4-2.2c3.3-1.1,6.3-2.5,7.9-5.8L181.3,102.2z"/>
</g>
<g id="_x23_b5ae14ff">
	<path class="st37" d="M184.9,101.8c3.7-0.7,5,1.1,3.4,4.4c0.3-7.1-5,1.6-7.2,3.8c-0.3-0.4-1-1.1-1.4-1.5
		C181.4,106.3,183.2,104.1,184.9,101.8z"/>
</g>
<g id="_x23_f4e80aff">
	<path class="st38" d="M46.7,103.9c7.1-2,14.7-0.9,21.8-0.2c-0.2,8.1-10.8,1.7-14.5,5.3c-0.6,1.6-1.1,3.1-1.5,4.8
		c-3.3,7.6,8,3.3,12.6,4.1c-0.7,2.1-1.1,4.2-1.1,6.4c-5.8-2.4-21.1,5.1-19.3-5.4c0.5-1.6,1-3.1,1.5-4.7c1-1.2,1.2-2.7,1-4.1
		C49.3,106.9,49.1,104.9,46.7,103.9z"/>
</g>
<g id="_x23_f0e40bff">
	<path class="st39" d="M70,105.3c3.5-5.6,12.8-0.6,18.1-2.4c1,0.7,2,1.5,3,2.3c-0.4,3.5-0.3,7.1-1.5,10.4c-1.2,2.1-4.7,3.9-2.3,6.4
		c-0.1,3.6-4.6,1.6-7.1,2c-1.2-2.9-2.4-5.8-3.1-8.8c3.6,0.5,6.7-0.4,7.5-4.1c3.1-5.3-6.3-3.8-8.5-2.3c-2.1,4.8-2.4,10.2-4,15.2
		c-2-0.8-4.1-0.5-6,0.3c0.4-2.1,0.8-4.3,1.1-6.4l0.2-0.8c1-1.1,1.2-2.6,1.1-4C69.1,110.6,69.8,108,70,105.3z"/>
</g>
<g id="_x23_f2e60aff">
	<path class="st40" d="M118.8,103.6c6-0.8,12-0.7,18-0.6c0.2,0.2,0.7,0.6,1,0.8c0.4,0.5,1.2,1.6,1.6,2.1c-1.3,1.5-1.1,3.8,0.1,5.2
		c-0.9,4.3-3.4,7.9-7.7,9.7c-2.6,2-10.6-2.6-10.8,2.3c-3.8,1.2-7.2,1.6-6.3-3.2c1.8-0.5,1.6-2.7,0.8-4.1l0.5-0.7
		c4.7-1.7,13.4,2.6,16.3-1.9C137.5,101.3,116.3,114.5,118.8,103.6z"/>
</g>
<g id="_x23_f5e809ff">
	<path class="st41" d="M142.8,102.9c6,2.5,20-4.5,21.7,3.4l-0.2,0.9c-2.7,0.7-6.6-0.2-8.2,2c-0.5,1.2-0.9,2.5-1.3,3.8
		c-1.1,1.1-1.2,2.7-0.8,4.1c-1.6,0.8-1.3,2.8-0.6,4.1c-0.4,1-0.9,2-1.3,3c-3.3,0.3-6.7,0.7-6.4-3.3c1.9-0.3,1.9-2.4,1.4-3.8
		c1.3-0.9,1.4-2.5,1.3-3.9c3.6-6.6-2.3-5.2-6.3-5.3C142,106.2,142.3,104.5,142.8,102.9z"/>
</g>
<g id="_x23_eee50cff">
	<path class="st42" d="M166.9,102.9c4.6,0.1,9.3,0.1,14,0c-1.6,3.3-4.6,4.7-7.9,5.8c-1.4,1.7-1.4,4.2-2,6.3c-2.6,3-5.2,6-8.1,8.7
		l-0.8,0.4C163.2,117,164.9,109.9,166.9,102.9z"/>
</g>
<g id="_x23_f5e80aff">
	<path class="st43" d="M181.1,110.1c2.2-2.2,7.6-10.9,7.2-3.8l-0.2,0.8c-1.5,0.7-1.6,2.6-1.1,4c-1.5,0.9-1.4,2.7-0.8,4.1l-0.3,0.8
		c-1.4,1-1.3,2.8-0.6,4.2c-0.4,1.3-0.8,2.5-1.3,3.8c-0.4,0-1.3-0.1-1.7-0.1c-3.8-0.3-7.5-0.7-11.3-0.9c0.6-4.5,6.1-2.8,8-4.9
		C179.8,115.3,180.4,112.7,181.1,110.1z"/>
</g>
<g id="_x23_f47ec5ff">
	<path class="st44" d="M5.4,108.9c-1-1.2-1.3-4.6,0.6-4.9C6.2,105.7,6.1,107.4,5.4,108.9z"/>
</g>
<g id="_x23_827b15ff">
	<path class="st45" d="M46.7,103.9c2.4,1,2.6,3,0.7,6.1C46.6,108.1,46.4,106,46.7,103.9z"/>
</g>
<g id="_x23_7b7411ff">
	<path class="st46" d="M68.5,103.7l0.8,0.1c0.2,0.4,0.5,1.1,0.7,1.4c-0.2,2.7-0.9,5.3-1.7,7.9c0.9-7.7-9.2-3.2-14.2-4.1
		C57.7,105.4,68.3,111.9,68.5,103.7z"/>
</g>
<g id="_x23_6c6110ff">
	<path class="st47" d="M109,109.1c-2.6,2-12.1,2.5-8.3-3.3C99.9,110.8,105.7,108.8,109,109.1z"/>
</g>
<g id="_x23_989217ff">
	<path class="st48" d="M139.4,105.9c0,1.3,0.1,3.9,0.1,5.2C138.3,109.7,138.2,107.4,139.4,105.9z"/>
</g>
<g id="_x23_810525ff">
	<path class="st49" d="M197.1,105.8c2.1,4.9,2.2,10.2,1.6,15.5C197.5,116.2,197.6,111,197.1,105.8z"/>
</g>
<g id="_x23_82800fff">
	<path class="st50" d="M93.6,113.1c-1.7-1.6-1.7-3.7-0.1-6.2C94.4,108.9,94.6,111.2,93.6,113.1z"/>
</g>
<g id="_x23_7d7a0eff">
	<path class="st51" d="M156.1,109.1c1.6-2.2,5.5-1.2,8.2-2C163.9,110.8,158.6,108.2,156.1,109.1z"/>
</g>
<g id="_x23_91830eff">
	<path class="st52" d="M187,111c-0.4-1.4-0.4-3.2,1.1-4C188.4,108.4,188.4,110.2,187,111z"/>
</g>
<g id="_x23_8e880fff">
	<path class="st53" d="M75.9,108.9c2.2-1.5,11.7-3,8.5,2.3C84,107.2,78.6,109.6,75.9,108.9z"/>
</g>
<g id="_x23_807c15ff">
	<path class="st54" d="M115,112c-0.5-1.4-0.4-3,0.8-4.1C116.3,109.2,116.6,111.2,115,112z"/>
</g>
<g id="_x23_837e10ff">
	<path class="st55" d="M142,107.8c4,0.1,9.8-1.3,6.3,5.3C149.8,107.7,143.7,109.7,142,107.8z"/>
</g>
<g id="_x23_8d0554ff">
	<path class="st56" d="M35,114c-0.4-1.7-0.6-3.8,1-4.9C36.4,110.8,36.5,112.8,35,114z"/>
</g>
<g id="_x23_1b0b12ff">
	<path class="st57" d="M54,109c5,0.9,15.2-3.6,14.2,4.1c-1.9,0.4-1.7,2.6-1.1,4l-0.2,0.8c-0.5,0-1.4-0.1-1.9-0.1
		c-3.8-1.8-12.8,2.2-12.6-4.1C52.9,112.2,53.5,110.6,54,109z"/>
</g>
<g id="_x23_29351cff">
	<path class="st58" d="M170.9,115c0.6-2.1,0.6-4.6,2-6.3c1.4,0.3,3.1,0.5,3.4,2.2C174.5,112.2,172.7,113.6,170.9,115z"/>
</g>
<g id="_x23_222415ff">
	<path class="st59" d="M176.3,110.9c1.1-0.8,2.3-1.6,3.4-2.4c0.3,0.4,1,1.1,1.4,1.5c-0.7,2.6-1.3,5.3-2.2,7.9
		c-1.8,0-5.3-0.1-7.1-0.1C173.3,115.5,174.8,113.2,176.3,110.9z"/>
</g>
<g id="_x23_f586cdff">
	<path class="st60" d="M4.1,117.9c0.3-2.5-1.3-6.9,1.1-8.1c-0.1,2.8-0.2,5.5-0.2,8.3L4.1,117.9z"/>
</g>
<g id="_x23_7f7110ff">
	<path class="st61" d="M46.3,114.1c-0.6-1.4-0.8-3.6,1-4.1C47.4,111.4,47.2,113,46.3,114.1z"/>
</g>
<g id="_x23_27767aff">
	<path class="st62" d="M170.9,115c1.8-1.4,3.6-2.7,5.4-4.1c-1.5,2.3-3,4.6-4.5,6.9L171,118C171,117.3,170.9,115.8,170.9,115z"/>
</g>
<g id="_x23_968c18ff">
	<path class="st63" d="M186.1,115.1c-0.5-1.4-0.6-3.2,0.8-4.1C187.4,112.4,187.4,114.1,186.1,115.1z"/>
</g>
<g id="_x23_786b0dff">
	<path class="st64" d="M67.2,117.1c-0.6-1.3-0.8-3.6,1.1-4C68.4,114.5,68.2,116,67.2,117.1z"/>
</g>
<g id="_x23_564f13ff">
	<path class="st65" d="M116.1,115.2c4.7-2.1,11-0.9,16.3-1.9C129.5,117.8,120.8,113.4,116.1,115.2z"/>
</g>
<g id="_x23_7e7111ff">
	<path class="st66" d="M147,117c-0.4-1.4-0.5-3.4,1.3-3.9C148.4,114.5,148.3,116.1,147,117z"/>
</g>
<g id="_x23_857a0fff">
	<path class="st67" d="M154,117c-0.4-1.4-0.3-3,0.8-4.1C155.4,114.2,155.6,116.2,154,117z"/>
</g>
<g id="_x23_62560fff">
	<path class="st68" d="M65.2,117.8c-4.6-0.8-15.9,3.5-12.6-4.1C52.4,120.1,61.4,116,65.2,117.8z"/>
</g>
<g id="_x23_98336eff">
	<path class="st69" d="M33.8,126.9c0.5-4,0.6-8.1,1.1-12.1c0,4.4,0.1,8.8,0.1,13.2c-2.3,0.7-8.8-1.9-7.5,2.1
		c1.6,6.2-9.9,21.7,1.8,20.3c-2.2,0.7-4.4,1.3-6.7,1.8c-1.9-7,4.9-14.2,2.8-21.7c0.3-1.1-1.1-3.3,0.5-3.6
		C28.5,126.9,31.1,126.9,33.8,126.9z"/>
</g>
<g id="_x23_82e971ff">
	<path class="st70" d="M162.8,123.7c2.9-2.7,5.5-5.7,8.1-8.7c0,0.8,0.1,2.3,0.1,3.1c-1.4,1.9-2.8,3.8-4,5.8h-0.7
		C165.2,123.8,164,123.7,162.8,123.7z"/>
</g>
<g id="_x23_98931bff">
	<path class="st71" d="M97,116.1c2.1-0.9,4.2,1.1,2.4,2.9C98.6,118.1,97.8,117.1,97,116.1z"/>
</g>
<g id="_x23_88810fff">
	<path class="st72" d="M114.8,119.9c-0.1-1.4-0.2-2.9,0.8-4.1C116.3,117.2,116.6,119.4,114.8,119.9z"/>
</g>
<g id="_x23_887d0fff">
	<path class="st73" d="M185.2,120.1c-0.6-1.4-0.8-3.2,0.6-4.2C186.4,117.3,186.4,119,185.2,120.1z"/>
</g>
<g id="_x23_f65a6bff">
	<path class="st74" d="M229,116.2c2.2,0.9,1.6,5,0.5,6.8C228.9,120.8,228.7,118.5,229,116.2z"/>
</g>
<g id="_x23_787210ff">
	<path class="st75" d="M145.6,120.8c-0.1-1.4,0.2-2.9,1.4-3.8C147.4,118.4,147.4,120.6,145.6,120.8z"/>
</g>
<g id="_x23_8c7f15ff">
	<path class="st76" d="M153.4,121.1c-0.7-1.3-1-3.3,0.6-4.1C154.4,118.4,154.3,120,153.4,121.1z"/>
</g>
<g id="_x23_fc06a5ff">
	<path class="st77" d="M4.1,117.9l0.9,0.2c-0.4,9.6,7.5,16.1,10.2,24.8c9.4,16.9,17.1,34.8,25.8,52.1c3,6.4,9.3,12.6,8.3,20.1
		C28.1,199.8,12.7,176.4,7,150.8c0.1-1.3,0-2.7-0.7-3.9l-0.3-1c0.1-1.7,0-3.4-0.6-5l-0.3-1c0.1-2.3-0.1-4.6-0.6-6.9
		C3.8,128.1,3.8,122.9,4.1,117.9z"/>
</g>
<g id="_x23_696010ff">
	<path class="st78" d="M65.2,117.8c0.5,0,1.4,0.1,1.9,0.1c-0.3,2.1-0.8,4.3-1.1,6.4c-0.5,0-1.4-0.1-1.8-0.1
		C64.1,122,64.5,119.9,65.2,117.8z"/>
</g>
<g id="_x23_c7c21dff">
	<path class="st79" d="M171,118l0.8-0.2c1.8,0,5.3,0.1,7.1,0.1c-1.9,2.2-7.4,0.4-8,4.9c3.8,0.3,7.5,0.6,11.3,0.9
		c-5.1,0-10.2,0.2-15.2,0C168.2,121.8,169.6,119.9,171,118z"/>
</g>
<g id="_x23_71690cff">
	<path class="st80" d="M43,124.2c0.6-1.8,1.2-3.6,1.8-5.4c-1.8,10.5,13.5,3,19.3,5.4C57.1,125.3,50,125.3,43,124.2z"/>
</g>
<g id="_x23_6c670fff">
	<path class="st81" d="M121.1,123.1c-0.4,4.3-11.6,3-6.3-3.2C113.8,124.7,117.3,124.3,121.1,123.1z"/>
</g>
<g id="_x23_665e0eff">
	<path class="st82" d="M152,124.1c-2.7,2.5-9.3,1.7-6.4-3.3C145.3,124.8,148.7,124.4,152,124.1z"/>
</g>
<g id="_x23_696210ff">
	<path class="st83" d="M87.2,122c3.7,4.6-5.9,3.5-7.1,2C82.6,123.6,87.1,125.6,87.2,122z"/>
</g>
<g id="_x23_2baa8fff">
	<path class="st84" d="M162.8,123.7c1.2,0,2.4,0,3.5,0.1l-0.5,0.7c-0.9,1.1-1.8,2.1-2.7,3.2c-0.5-0.2-1.6-0.5-2.1-0.7
		c0.4-1,0.7-2,1-3L162.8,123.7z"/>
</g>
<g id="_x23_625d0cff">
	<path class="st85" d="M65.9,124.3c1.9-0.8,4-1,6-0.3C70.9,126.2,68.9,126.3,65.9,124.3z"/>
</g>
<g id="_x23_665c0cff">
	<path class="st86" d="M98.1,124.1c1.9-0.5,3.9-0.4,5.8,0C102.2,126.4,100.3,126.3,98.1,124.1z"/>
</g>
<g id="_x23_5f5c0dff">
	<path class="st87" d="M166.3,123.8h0.7c5.1,0.2,10.1,0,15.2,0c0.4,0,1.3,0.1,1.7,0.1c-4.3,3.4-12.8-0.2-18.2,0.7L166.3,123.8z"/>
</g>
<g id="_x23_555455ff">
	<path class="st88" d="M54.8,127.7c14.2-1.2,29.1-0.3,43.5,0.1c-6.3,0.9-13.5-1.4-19.5,1c-2.7,6.5-3.9,14.1-4.9,21.1
		c6.4,0.2,12.8,0,19.3,0.3c-13,1.2-26.1,0.1-39.2,0.8c-7,3.5-5-1.6-4.3-4.2c1.4,7.7,15.4,1.1,21.1,3.1c2.8-5,3.1-11.2,4.5-16.7
		C78.8,122.5,60.6,130.5,54.8,127.7z"/>
</g>
<g id="_x23_3f323eff">
	<path class="st89" d="M124.1,128.1c5.2-3.3,15.5-0.1,22.1-0.2C138.9,128,131.5,128,124.1,128.1z"/>
</g>
<g id="_x23_71c2c3ff">
	<path class="st90" d="M158.3,128.3c0.9-0.4,1.8-0.8,2.6-1.2c0.5,0.2,1.6,0.5,2.1,0.7l0.9,0.3c-3.8,4.8-9.5,8.2-11.9,14.1
		c-0.4-4.8-5.6,3.9-7.8,4.8c-0.8-0.9-1.5-1.9-2.3-2.8c0.5-0.3,1.4-0.9,1.9-1.2c2.7-2.7,13.8-9.6,2.8-8.8
		C152.1,135.6,156,132.6,158.3,128.3z"/>
</g>
<g id="_x23_3e373eff">
	<path class="st91" d="M172.1,128c5-2.4,15-0.5,21.9-1c0,1.5,0.5,3.7-1.8,2.9c0.2-0.5,0.5-1.5,0.7-2C185.9,127.9,179,128,172.1,128z
		"/>
</g>
<g id="_x23_f7586dff">
	<path class="st92" d="M229,133.8c-0.3-2.2-0.1-4.5,0.6-6.7C230.5,128.9,231.3,133.1,229,133.8z"/>
</g>
<g id="_x23_c1bdbeff">
	<path class="st93" d="M27.5,130c-1.3-4,5.2-1.3,7.5-2.1c3.6,0.1,7.3,0,10.9,0.1l0.5,0.6C40.2,129.6,33.3,127.5,27.5,130z"/>
</g>
<g id="_x23_d1d1d1ff">
	<path class="st94" d="M53.6,130.9c0.3-1.1,0.7-2.1,1.2-3.2c5.8,2.8,24-5.2,20.5,5.5c-0.5-2.7,0.6-7.6-5.3-4.3
		C64.7,129.7,58.1,127.3,53.6,130.9z"/>
</g>
<g id="_x23_d3d2d3ff">
	<path class="st95" d="M78.8,128.8c6-2.4,13.2-0.1,19.5-1c-0.3,1.5-0.6,3-0.9,4.4C96.2,125,84.4,130.6,78.8,128.8z"/>
</g>
<g id="_x23_686867ff">
	<path class="st96" d="M98.3,127.8c0.5,0,1.4,0.1,1.9,0.2c-0.3,2.5-1,5-1.8,7.3c-0.3-0.3-0.8-0.9-1.1-1.2c0-0.5,0.1-1.4,0.1-1.8
		C97.7,130.8,98,129.3,98.3,127.8z"/>
</g>
<g id="_x23_ecececff">
	<path class="st97" d="M100.2,128c4.1-0.3,8.6-0.8,5.6,4c-1.1,0.9-1.9,4.1,0.3,3.9c6-1.2,8.1-11.4,16-7.7c0,0.4,0,1.3,0,1.7
		c-2.8,3.4-6.1,6.3-8.6,9.8c1.1,2.6,2.4,5,3.6,7.5c0,0.8,0.1,2.3,0.1,3.1c-2-0.8-4.2-0.8-6.1,0.1c-1.6-2.4-2.7-5-4.1-7.5
		c-0.8-2-4.2-1.2-3.8,1c-0.3,1.8-0.6,3.5-0.9,5.2c-2.4,0.4-4.8,0.8-7.3,1.2c0.6-2.1,1-4.2,1.4-6.4c0.3-0.9,0.7-1.9,1-2.8
		c1.2-1.1,1.2-2.8,0.7-4.2c0.1-0.4,0.4-1.2,0.5-1.6C99.2,132.9,99.9,130.5,100.2,128z"/>
</g>
<g id="_x23_717070ff">
	<path class="st98" d="M122,128.2c0.5,0.2,1.5,0.6,1.9,0.8c0.1,1.1-0.1,2.1-0.5,3.1c-0.3-0.6-1-1.6-1.4-2.2
		C122.1,129.5,122,128.6,122,128.2z"/>
</g>
<g id="_x23_c8c6c9ff">
	<path class="st99" d="M124.1,128.1c7.4,0,14.8-0.1,22.1-0.2c-0.3,1.1-0.6,2.3-0.8,3.4c-4-5.4-15.1-0.6-21.5-2.2L124.1,128.1z"/>
</g>
<g id="_x23_5e5e5dff">
	<path class="st100" d="M146.3,127.8c0.5,0,1.4,0.1,1.9,0.2c-0.4,2.1-0.9,4.1-1.4,6.2c-0.4-0.1-1.3-0.1-1.7-0.2
		c0.1-0.7,0.3-2.1,0.4-2.8C145.7,130.1,146,128.9,146.3,127.8z"/>
</g>
<g id="_x23_e8efefff">
	<path class="st101" d="M148.1,128c3.4,0.1,6.8,0.2,10.2,0.3c-2.3,4.3-6.3,7.3-11.6,5.9C147.2,132.1,147.7,130.1,148.1,128z"/>
</g>
<g id="_x23_edededff">
	<path class="st102" d="M164,128c1.6,0,3.3,0,4.9,0.1c-0.2,1.3,0,2.6,0.5,3.9c-0.1,0.4-0.3,1.3-0.4,1.8c-2.6,0.5-6.5-1-8,1.1
		c-1.9,4.9-2,10.3-4,15.2c-1.9-0.4-3.9-0.5-5.8-0.1c-0.4-2.7,0.4-5.4,1.1-8C154.5,136.3,160.3,132.9,164,128z"/>
</g>
<g id="_x23_969592ff">
	<path class="st103" d="M168.9,128.2c2.1-0.1,1.4,2.9,0.5,3.9C168.9,130.8,168.8,129.5,168.9,128.2z"/>
</g>
<g id="_x23_ceccceff">
	<path class="st104" d="M172.1,128c6.9,0,13.8-0.1,20.8-0.1c-0.2,0.5-0.5,1.5-0.7,2l-0.8-0.1c-6.4-0.5-13.4-2.4-19.6,0.3
		C171.9,129.6,172,128.6,172.1,128z"/>
</g>
<g id="_x23_e9edeeff">
	<path class="st105" d="M27.5,130c5.9-2.5,12.8-0.4,18.9-1.4c4.2,3.9,2.6,10.2-0.3,14.4c-3.9,3.3,1.5,7.6,2.9,10.9
		c4.7,7.2,10.3,14,17.5,18.8c-0.7,0.4-2,1.1-2.7,1.5C50,168.3,39.4,155.2,35.1,141c1.5-0.2,4.4-0.7,5.9-0.9c0.8-1.6,1.1-3.4,1-5.2
		c0.1-1.4-9.2-2.4-9.2,1l-0.2,0.9c-0.9,1.2-1,2.8-0.6,4.2c-1.6,0.8-1.4,2.8-0.7,4.1c-0.6,1.8-1.2,3.6-2,5.2
		C17.6,151.7,29.1,136.2,27.5,130z"/>
</g>
<g id="_x23_f5f5f5ff">
	<path class="st106" d="M53.6,130.9c4.5-3.5,11.1-1.2,16.4-1.9c6-3.3,4.8,1.6,5.3,4.3c-1.4,5.5-1.7,11.7-4.5,16.7
		c-5.8-2-19.8,4.6-21.1-3.1C51,142.9,52,139,53,135C54.6,134.2,54.4,132.2,53.6,130.9 M60.2,135c-1.3,1-1.4,2.6-1.3,4
		c-7.5,4.9,9,8.2,8.2,3c1.7-0.1,1.6-3,0.6-3.9C73.8,134.2,60.9,131.7,60.2,135z"/>
</g>
<g id="_x23_f5f5f4ff">
	<path class="st107" d="M73.9,149.9c1-7.1,2.1-14.6,4.9-21.1c5.7,1.8,17.5-3.8,18.6,3.5c0,0.5-0.1,1.4-0.1,1.8
		c-4.4,1.3-11.6-2.7-14.7,1.7c-1.1,1.2-0.9,2.9-0.6,4.3c0,0.7,0.1,2.1,0.1,2.8c1.8,2.7,8.4,0.2,11.9,1.2c-0.1,2.1-0.5,4.1-0.8,6.1
		C86.8,149.9,80.3,150.1,73.9,149.9z"/>
</g>
<g id="_x23_f4f5f5ff">
	<path class="st108" d="M124,129c6.4,1.7,17.5-3.1,21.5,2.2c-0.1,0.7-0.3,2.1-0.4,2.8c-1.9,2.5-3.7,5.1-5.8,7.4
		c-1.8-0.6-5.3,0.6-5.4-2.2c1.1-1.4,2.2-2.7,3.1-4.2c1.5-2.5-7.3-1.5-7.9,0.1c-0.6,1.9-1.1,3.8-1.5,5.8c-0.2,1-0.4,2.1-0.5,3.1
		c2.2,2.5,9,0.4,13.2,1.2c-2.8,4.8-8.8,3.4-13.5,4.6c-4.5,1.3-7.8,0.9-6.8-3.8c0.5-1.6,1-3.2,1.4-4.8c1.2-1.1,1.1-2.8,0.5-4.3
		c0.6-1.6,1.1-3.2,1.6-4.8C123.9,131.1,124,130,124,129z"/>
</g>
<g id="_x23_f5f6f6ff">
	<path class="st109" d="M171.8,130.1c6.1-2.7,13.2-0.7,19.6-0.3c-1.4,1.4-2.5,3.8-4.7,4.1c-2.1,0-7-0.9-5.3,1.9
		c3.1,4.1,7.7,8.6,4.3,14.1c-5.6,0-11.2,0-16.8,0.1l-0.4-0.8c-2.2-7.8,11.5-1.1,8.9-6.9l-0.8-0.4c-1.7-1.9-3.5-3.9-4.7-6.2
		C172.1,133.9,172,132,171.8,130.1z"/>
</g>
<g id="_x23_7c0528ff">
	<path class="st110" d="M198.1,139.2c-0.1-3.5,0.2-7,0.7-10.5C199.1,132.3,198.8,135.8,198.1,139.2z"/>
</g>
<g id="_x23_2a2229ff">
	<path class="st111" d="M122.1,129.9c0.4,0.5,1.1,1.6,1.4,2.2c-0.5,1.6-1.1,3.2-1.6,4.8c-1.3,1.1-1.2,2.9-0.5,4.3
		c-0.4,1.6-0.9,3.2-1.4,4.8c-0.6,1.3-1.5,2-2.9,1.3c-1.1-2.5-2.5-4.9-3.6-7.5C116,136.1,119.3,133.2,122.1,129.9z"/>
</g>
<g id="_x23_9e9f9fff">
	<path class="st112" d="M171.9,135.8c-1.8-0.5-1.8-4.9-0.1-5.7C172,132,172.1,133.9,171.9,135.8z"/>
</g>
<g id="_x23_a6a0a7ff">
	<path class="st113" d="M53,135c-0.4-1.4-0.4-3,0.6-4.2C54.4,132.2,54.6,134.2,53,135z"/>
</g>
<g id="_x23_858486ff">
	<path class="st114" d="M106.1,135.9c-2.1,0.2-1.4-3-0.3-3.9C106.1,133.2,106.2,134.5,106.1,135.9z"/>
</g>
<g id="_x23_f68dd3ff">
	<path class="st115" d="M4.5,133.1c0.5,2.2,0.7,4.5,0.6,6.9C2.8,139,3.5,134.9,4.5,133.1z"/>
</g>
<g id="_x23_848383ff">
	<path class="st116" d="M32.8,135.9c0-3.4,9.3-2.4,9.2-1C39,135.1,35.9,135.4,32.8,135.9z"/>
	<path class="st116" d="M31.3,145.1c-0.6-1.3-0.9-3.3,0.7-4.1C32.5,142.4,32.3,144,31.3,145.1z"/>
</g>
<g id="_x23_a2a1a2ff">
	<path class="st117" d="M60.2,135c0.7-3.3,13.5-0.8,7.5,3.1C69.5,133,63.3,135.4,60.2,135z"/>
</g>
<g id="_x23_828281ff">
	<path class="st118" d="M82.6,135.8c3.1-4.4,10.3-0.4,14.7-1.7C92.4,134.7,87.4,134.7,82.6,135.8z"/>
</g>
<g id="_x23_1a0b18ff">
	<path class="st119" d="M97.3,134.1c0.3,0.3,0.8,0.9,1.1,1.2c-0.1,0.4-0.4,1.2-0.5,1.6c-1.4,1-1.2,2.8-0.7,4.2
		c-0.3,0.9-0.7,1.9-1,2.8c-4.7-0.8-9.4-0.9-14.2-1c0-0.7,0-2.1-0.1-2.8c1.5-1,1.3-2.9,0.6-4.3C87.4,134.7,92.4,134.7,97.3,134.1z"/>
</g>
<g id="_x23_878787ff">
	<path class="st120" d="M129,135c0.6-1.6,9.4-2.6,7.9-0.1C134.3,135,131.7,135,129,135z"/>
</g>
<g id="_x23_1d1c22ff">
	<path class="st121" d="M145.1,134c0.4,0,1.3,0.1,1.7,0.2c11-0.9-0.1,6-2.8,8.8c-4.7-1.5-14,3.1-16.5-2.1c0.4-2,0.9-3.9,1.5-5.8
		c2.6,0,5.3,0,7.9-0.1c-0.9,1.5-2,2.8-3.1,4.2c-4.6,3.9,2.1,3.7,5.4,2.2C141.4,139.1,143.2,136.5,145.1,134z"/>
</g>
<g id="_x23_757473ff">
	<path class="st122" d="M160.9,135c1.5-2.1,5.5-0.6,8-1.1C167.8,136.3,163.4,134.4,160.9,135z"/>
</g>
<g id="_x23_7a7a7aff">
	<path class="st123" d="M181.5,135.9c-1.8-2.8,3.2-1.9,5.3-1.9C186.2,135.8,183.1,135.2,181.5,135.9z"/>
</g>
<g id="_x23_1b0e19ff">
	<path class="st124" d="M60.2,135c3.1,0.4,9.3-1.9,7.5,3.1c-0.8,1.1-0.9,2.6-0.6,3.9c-4,1.1-9.6,2.8-8.2-3
		C58.9,137.5,58.9,135.9,60.2,135z"/>
</g>
<g id="_x23_a0a0a0ff">
	<path class="st125" d="M82,140.1c-0.3-1.4-0.5-3.1,0.6-4.3C83.4,137.1,83.5,139.1,82,140.1z"/>
</g>
<g id="_x23_6d706fff">
	<path class="st126" d="M32,141c-0.4-1.4-0.3-3,0.6-4.2C33.3,138.1,33.6,140.2,32,141z"/>
</g>
<g id="_x23_8f8e92ff">
	<path class="st127" d="M97.2,141.1c-0.6-1.4-0.7-3.2,0.7-4.2C98.4,138.3,98.4,140,97.2,141.1z"/>
</g>
<g id="_x23_8b8a8aff">
	<path class="st128" d="M121.3,141.1c-0.7-1.4-0.8-3.2,0.5-4.3C122.4,138.3,122.5,140,121.3,141.1z"/>
</g>
<g id="_x23_959297ff">
	<path class="st129" d="M67.1,142c-0.3-1.3-0.2-2.8,0.6-3.9C68.7,139,68.8,141.9,67.1,142z"/>
</g>
<g id="_x23_605d60ff">
	<path class="st130" d="M67.1,142c0.8,5.2-15.7,1.9-8.2-3C57.5,144.8,63.1,143.1,67.1,142z"/>
</g>
<g id="_x23_969a99ff">
	<path class="st131" d="M139.3,141.4c-3.3,1.4-10,1.7-5.4-2.2C133.9,141.9,137.4,140.8,139.3,141.4z"/>
</g>
<g id="_x23_625960ff">
	<path class="st132" d="M35.1,141c1.5-0.2,4.4-0.7,5.9-0.9C39.5,140.3,36.5,140.8,35.1,141z"/>
</g>
<g id="_x23_f47dcbff">
	<path class="st133" d="M5.4,140.9c0.6,1.6,0.7,3.3,0.6,5C4.1,145.6,4.5,142.2,5.4,140.9z"/>
</g>
<g id="_x23_5e6465ff">
	<path class="st134" d="M127,143.9c0.1-1.1,0.2-2.1,0.5-3.1c2.4,5.3,11.8,0.6,16.5,2.1c-0.5,0.3-1.4,0.9-1.9,1.2
		C137,144.1,132,144,127,143.9z"/>
</g>
<g id="_x23_fc023dff">
	<path class="st135" d="M197.9,141c4.6,1.9,7.3,5.3,4,9.9c11.9-0.1,8.3,16.7,18.1,19.3c-5.2,13.3-14,25.1-24,35.2
		c-10.3-3.3-8.9-20.3-17.8-24.5l0-0.8C188.1,169,194.8,155.4,197.9,141z"/>
</g>
<g id="_x23_656765ff">
	<path class="st136" d="M103,143.9c-0.4-2.3,3-3,3.8-1C105.6,143.2,104.3,143.6,103,143.9z"/>
</g>
<g id="_x23_545155ff">
	<path class="st137" d="M176.7,142l0.8,0.4c-2,2.9-6.3,1.1-9.4,1.7C167.6,140.8,174.7,144.3,176.7,142z"/>
</g>
<g id="_x23_bfbec0ff">
	<path class="st138" d="M177.4,142.4c2.6,5.8-11.2-0.9-8.9,6.9c-0.2-0.3-0.5-0.9-0.6-1.2c0-1.3,0-2.6,0.2-3.9
		C171.1,143.5,175.4,145.2,177.4,142.4z"/>
</g>
<g id="_x23_676265ff">
	<path class="st139" d="M82.1,142.9c4.7,0.1,9.5,0.2,14.2,1c-0.4,2.1-0.8,4.3-1.4,6.4c-0.4,0-1.2-0.1-1.7-0.1c0.4-2,0.8-4.1,0.8-6.1
		C90.4,143.1,83.9,145.6,82.1,142.9z"/>
</g>
<g id="_x23_10040fff">
	<path class="st140" d="M163.4,147.4c-1.7-4.3,7.1-7.2,4.5,0.6c0.2,0.3,0.5,0.9,0.6,1.2l0.4,0.8c4.9,2.1,11.6,0.5,17.2,0.9
		c-0.2,3.1-4,5.6-7.1,4C172.9,156,162.8,156.3,163.4,147.4z"/>
</g>
<g id="_x23_c6e5e7ff">
	<path class="st141" d="M127,143.9c5,0.1,10,0.1,15,0.2c0.8,0.9,1.6,1.8,2.3,2.8c-6.6,5.5-12.5,11.8-19.5,16.9
		c-1.4-0.1-2.7,0.8-3,2.2c-8.2,5.9-16.9,11.5-26.6,14.3c-4.9-0.1-9.7-0.2-14.5-0.2c-2.2-0.3-4.2-1.2-6.2-2.1
		c3.3-0.6,6.6-1.1,9.8-1.9c0.4-0.1,1.2-0.3,1.6-0.4c1.4,0.5,3.3,0.6,4.1-0.9c1.4,0.4,3,0.3,4.1-0.8c13-4.7,25.2-11.4,36.1-20
		c1.1-0.8,2.1-1.6,3.2-2.5c5.1-3.1-4.2-1.5-6.7-2.1c4.6-1.2,10.7,0.2,13.5-4.6C136,144.4,129.2,146.4,127,143.9z"/>
</g>
<g id="_x23_666c6cff">
	<path class="st142" d="M117,147.2c1.4,0.7,2.3,0.1,2.9-1.3c-1,4.7,2.3,5.1,6.8,3.8c2.5,0.6,11.8-1,6.7,2.1
		c-5.3-1.4-10.9-1-16.3-1.5C117,149.5,117,148,117,147.2z"/>
</g>
<g id="_x23_f480cfff">
	<path class="st143" d="M6.4,146.9c0.7,1.2,0.8,2.6,0.7,3.9C5.2,150.9,5.3,147.8,6.4,146.9z"/>
</g>
<g id="_x23_950b5dff">
	<path class="st144" d="M33.2,151.9c-1-2.2,1.5-5.6,2.7-2.2C35,150.4,34.1,151.2,33.2,151.9z"/>
</g>
<g id="_x23_5f5f61ff">
	<path class="st145" d="M94.8,150.3c2.4-0.4,4.9-0.8,7.3-1.2C102.2,152.9,97,149.8,94.8,150.3z"/>
</g>
<g id="_x23_5c5b5eff">
	<path class="st146" d="M110.9,150.4c1.9-0.8,4.1-0.9,6.1-0.1C115.1,151.9,113.1,152,110.9,150.4z"/>
</g>
<g id="_x23_5f615fff">
	<path class="st147" d="M151.1,150.1c1.9-0.4,3.9-0.4,5.8,0.1C155.3,152.4,153.4,152.4,151.1,150.1z"/>
</g>
<g id="_x23_5d5d5cff">
	<path class="st148" d="M169,150.1c5.6,0,11.2-0.1,16.8-0.1l0.3,1C180.6,150.5,173.9,152.1,169,150.1z"/>
</g>
<g id="_x23_b3a320ff">
	<path class="st149" d="M65.2,158.3c2.7-0.1,2.4,5.7-1,3.5C63.2,160.2,62.7,158.5,65.2,158.3z"/>
</g>
<g id="_x23_a8971dff">
	<path class="st150" d="M75.2,158.1c2.9-1.1,3.9,4,0.7,3.8C73.1,163.2,73.5,159.1,75.2,158.1z"/>
</g>
<g id="_x23_a7961dff">
	<path class="st151" d="M85.2,158.1c2.4-0.8,3.2,2.1,2.8,3.9C85.5,163,82.2,159.9,85.2,158.1z"/>
</g>
<g id="_x23_b1a21fff">
	<path class="st152" d="M96.1,158.1c4.3-0.2,2.3,5.1-1.1,3.9C95,160.6,94.8,159,96.1,158.1z"/>
</g>
<g id="_x23_a2921cff">
	<path class="st153" d="M106.2,158.1c2.9-1.3,4.4,5.3,0.8,3.9C104.1,163.1,104.5,159.1,106.2,158.1z"/>
</g>
<g id="_x23_4c8993ff">
	<path class="st154" d="M121.9,166c0.3-1.4,1.5-2.4,3-2.2C124.8,165.4,123.4,166.4,121.9,166z"/>
</g>
<g id="_x23_62919bff">
	<path class="st155" d="M66.5,172.8c1.4,0.8,2.8,1.9,3.7,3.2c-2.2-0.2-4.4-0.8-6.4-1.7C64.5,174,65.8,173.2,66.5,172.8z"/>
</g>
<g id="_x23_5c808eff">
	<path class="st156" d="M90,175c0.8-1.6,2.8-1.4,4.1-0.8C93,175.3,91.4,175.4,90,175z"/>
</g>
<g id="_x23_55818eff">
	<path class="st157" d="M85.9,175.9c1-1.2,2.7-1.4,4.1-0.9C89.2,176.5,87.3,176.4,85.9,175.9z"/>
</g>
<g id="_x23_589099ff">
	<path class="st158" d="M74.5,178.1c-9.2-3.7,6.5-1.6,9.8-1.9C81.1,177.1,77.8,177.5,74.5,178.1z"/>
</g>
<g id="_x23_94075dff">
	<path class="st159" d="M52.9,177.1c1.8,0.3,3.2,1.8,3.3,3.7C54.3,180.6,52.9,179.1,52.9,177.1z"/>
</g>
<g id="_x23_749ba6ff">
	<path class="st160" d="M80.8,180.2c4.8-0.1,9.7,0,14.5,0.2C90.6,181.8,85.5,181,80.8,180.2z"/>
</g>
<g id="_x23_9c073cff">
	<path class="st161" d="M172.1,186.2c1.6-2.4,3.8-4.4,6.1-6.2l0,0.8C176.3,182.8,174.4,184.7,172.1,186.2z"/>
</g>
<g id="_x23_fb0352ff">
	<path class="st162" d="M178.2,180.9c9,4.1,7.6,21.2,17.8,24.5c-8.4,7.8-17.8,15.3-28.2,19.9c-5.9-7-8.1-16.6-13.8-23.9
		c-2.4,0-4.8,0.3-7.2,0.4c9.2-3.8,17.9-9,25.3-15.6C174.4,184.7,176.3,182.8,178.2,180.9z"/>
</g>
<g id="_x23_8f0757ff">
	<path class="st163" d="M60.2,184.9c1.8,0.1,3.5,1.3,3.5,3.2l-0.7,0.3C61.6,187.6,60.6,186.4,60.2,184.9z"/>
</g>
<g id="_x23_fb0288ff">
	<path class="st164" d="M63,188.3l0.7-0.3c4.2,3.3,8.6,6.4,13.3,9.1c0.9,2,3,2.9,5.1,2.7c1,0.4,1.9,0.8,2.9,1.3
		c1.1,1.7,3.1,2.4,5.1,1.7c2.7,0.9,5.5,1.9,8.2,2.9c2.3,11.2,10.7,20.2,13.6,31.3c-1.9-0.1-3.8,0-5.7,0.1c-1.5,0.1-2.9-0.1-4.2-0.6
		c-1.2-0.6-2.5-0.8-3.8-0.6c-5.4-0.6-10.9-1.8-15.9-3.9c0.1-11.5-10-20.8-12.8-31.6C68.2,195.9,62.6,193.4,63,188.3z"/>
</g>
<g id="_x23_930858ff">
	<path class="st165" d="M77,197.1c2.1-0.1,4.2,0.7,5.1,2.7C80,200.1,77.9,199.1,77,197.1z"/>
</g>
<g id="_x23_8f0552ff">
	<path class="st166" d="M85,201.1c1.9-0.5,3.8,0.3,5.1,1.7C88.1,203.5,86.2,202.7,85,201.1z"/>
</g>
<g id="_x23_fc0366ff">
	<path class="st167" d="M146.8,201.9c2.4-0.1,4.8-0.5,7.2-0.4c5.7,7.3,7.9,16.8,13.8,23.9c-7.9,4.1-18.7,9.5-28.3,9.4
		c-9.2-6-8.1-19.5-16.5-26.6c1.1-0.3,2.2-0.6,3.2-0.9c2.7,0.8,5,0.4,6.9-1.1C137.7,204.9,142.3,203.5,146.8,201.9z"/>
</g>
<g id="_x23_a40855ff">
	<path class="st168" d="M100.4,206c8.6,0.2,17.1,1.6,25.7,1.3c-1.1,0.3-2.2,0.6-3.2,0.9C115.4,208,107.6,208.6,100.4,206z"/>
</g>
<g id="_x23_fd0277ff">
	<path class="st169" d="M98.3,205.7c0.5,0.1,1.7,0.2,2.2,0.2c7.2,2.7,15,2,22.5,2.2c8.5,7.1,7.4,20.6,16.5,26.6
		c-2.2,2.5-7.3,1.6-10.6,2.2c-1.4,0.1-4.3,0.4-5.7,0.6c-3.6,0.2-7.5,1.1-11.1,0l-0.1-0.5C108.9,225.9,100.6,217,98.3,205.7z"/>
</g>
<g id="_x23_960749ff">
	<path class="st170" d="M126.2,207.2c1.3-2.3,3.7-2.6,6.9-1.1C131.2,207.7,128.9,208,126.2,207.2z"/>
</g>
<g id="_x23_f589c2ff">
	<path class="st171" d="M98.2,236c1.3-0.2,2.6-0.1,3.8,0.6C101.2,237.7,98,237.8,98.2,236z"/>
</g>
<g id="_x23_f770b8ff">
	<path class="st172" d="M106.2,237.1c1.9-0.1,3.8-0.2,5.7-0.1l0.1,0.5C110.5,238.5,107.1,238.8,106.2,237.1z"/>
</g>
<g id="_x23_fa8dc2ff">
	<path class="st173" d="M123.1,237.5c1.4-0.1,4.3-0.4,5.7-0.6C128.5,239.2,124.4,238.8,123.1,237.5z"/>
</g>
</svg>
