<?xml version="1.0" encoding="utf-8"?>
<!-- Generator: Adobe Illustrator 26.0.3, SVG Export Plug-In . SVG Version: 6.00 Build 0)  -->
<svg version="1.1" id="Layer_1" xmlns="http://www.w3.org/2000/svg" xmlns:xlink="http://www.w3.org/1999/xlink" x="0px" y="0px"
	 viewBox="0 0 250 250" style="enable-background:new 0 0 250 250;" xml:space="preserve">
<style type="text/css">
	.st0{fill:#808090;}
	.st1{fill:#0D0C2B;}
	.st2{fill:#F40658;}
	.st3{fill:#841E9E;}
	.st4{fill:#9F178F;}
	.st5{fill:#DA3753;}
	.st6{fill:#6E23AA;}
	.st7{fill:#C45850;}
	.st8{fill:#5A27B5;}
	.st9{fill:#CA0D76;}
	.st10{fill:#B1734D;}
	.st11{fill:#D43F52;}
	.st12{fill:#462CC1;}
	.st13{fill:#9E904B;}
	.st14{fill:#BF5F4F;}
	.st15{fill:#2C32D0;}
	.st16{fill:#AC1487;}
	.st17{fill:#807F90;}
	.st18{fill:#6125B0;}
	.st19{fill:#7D1FA1;}
	.st20{fill:#9C1890;}
	.st21{fill:#C20E7A;}
	.st22{fill:#FF9404;}
	.st23{fill:#EF0D57;}
	.st24{fill:#50D546;}
	.st25{fill:#7DDA39;}
	.st26{fill:#A1DF30;}
	.st27{fill:#D33F52;}
	.st28{fill:#69D83F;}
	.st29{fill:#FFAA09;}
	.st30{fill:#DCE620;}
	.st31{fill:#8CDC36;}
	.st32{fill:#FFC60F;}
	.st33{fill:#C0E327;}
</style>
<g id="_x23_808090ff">
	<path class="st0" d="M110.6,0h7c-3.4,1.7-7.2,1.7-10.9,1.4C108,0.9,109.3,0.4,110.6,0z"/>
</g>
<g id="_x23_0d0c2bff">
	<path class="st1" d="M117.6,0h13.9c12.2,1.1,24.4,3.1,35.8,7.5c34.9,12.3,63.4,41.1,75.5,76c2.7,7.2,4.4,14.7,5.8,22.2
		c-0.2,4-0.4,8.2,1.5,11.9v19.6c-2.2,10.1-3.6,20.4-7.5,30.1c-13.7,38.9-48.1,69.8-88.3,79.1c-6.1,2-12.6,2.2-18.9,3.6h-16.8
		c-25.2-1.8-50.2-10.5-70.1-26.4c-22.3-17.1-38.5-42-44.9-69.4c-1.7-5.6-1.9-11.4-3.5-17v-19.6c1.9-3.7,1.7-7.9,1.5-11.9
		c4.5-27.8,18.4-54,39.3-72.9C59,16,82.3,5,106.7,1.4C110.4,1.7,114.2,1.7,117.6,0 M139.9,40.9c-6.8,2.2-11.2,8.1-16,12.9
		c-3.2,3.4-6.8,6.5-9.6,10.3c-4.3,3.3-7.6,7.8-11.6,11.5c-2.8,3.2-6.4,5.7-8.4,9.4c-3.9,2.4-6.6,6.2-9.8,9.4c-2.5,2.9-5.4,5.2-7.9,8
		c-0.8,4.5-0.3,9-0.2,13.6c3.3-2.8,7.2-5.7,9-9.7c3.8-2.4,6.6-6,9.9-9c3.5-3.5,7.5-6.6,10.5-10.5c7.1-6.2,13.5-13.2,20.3-19.7
		c5.3-4.8,9.6-10.7,15.9-14.3c3.4-0.4,7,0,9.8,2.2c3.7,3,6.8,6.9,10.3,10.1c3.6,3.9,7.4,7.6,11.1,11.2c3.8,4,7.5,8,11.6,11.6
		c1.9,2.1,3.7,4.5,6.2,6c4.7,0.6,9.6,0.4,14.3,0.1c-1.7-3.4-4.8-5.7-7.4-8.2c-2.6-2.4-4.9-5-7.3-7.6c-3.7-4.2-7.6-8.1-11.5-12.2
		c-3.3-3.5-6.6-7-10.2-10.3c-4.6-4.6-8.5-10.4-14.6-13.1C150.2,40,144.7,39.5,139.9,40.9 M99.2,46.2c-1.7,1.9-4,3.4-5,5.8
		c-3.6,2.2-7,5.2-9.2,8.9c-3.7,1.9-6.2,5.2-9.2,8c-0.8,0.9-2,1.7-2.2,2.9c-3.4,2.2-6.1,5.2-9,8c-0.8,0.9-1.9,1.7-2.1,3
		c-3.5,2.1-6.1,5.2-9,7.9c-2.9,2.8-5.9,5.5-7.8,9.1c-3.2,5.3-3.8,12.5-0.7,17.9c1,2.2,2.4,4.1,4.1,5.8c1.5,1.7,3.1,3.2,4.8,4.7
		c1.8,2,3.7,3.9,5.7,5.7c2.5,2.7,5,5.2,7.9,7.5c1.2,1.5,2.8,2.7,4.3,4c7.2,7.4,14.6,14.6,22.2,21.5c4,4.1,7.9,8.2,12.3,11.8
		c4.2,0.4,8.5,0.1,12.7,0c-1-1.2-2-2.4-3.1-3.5c-5.8-5.4-10.9-11.6-16.8-16.9c-7-7.4-14.1-14.6-21.5-21.7c-2.1-2.6-4.5-4.8-7-7
		c-1.8-2.2-3.8-4.1-5.9-5.9c-1.5-1.8-3.2-3.5-5-5c-1.2-2.1-2.6-4.2-4.2-6c0.3-2.3,0.2-4.8,0.9-7.1c1.5-3.3,4.8-5.2,6.5-8.3
		c3.7-2.5,7-5.7,9.7-9.3c4.4-3,7.8-7.3,11.7-10.9l0-0.7c4.9-3.5,8.8-8.1,13-12.2l0-0.7c4.5-3.1,7.9-7.3,11.9-11
		c3-3.2,6.6-5.9,9.1-9.5c-4.4-0.5-8.8-0.3-13.1-0.2C102.6,42.2,101,44.6,99.2,46.2 M139.6,70.9c0.6,2,2.3,3.4,3.8,4.8
		c4.4,3.9,8.6,7.9,12.9,11.8c1.5,1.6,3,3.1,4.6,4.6c3.7,3.9,9.6,2,14.4,2c-0.8-1.5-1.9-2.9-3.3-4.1c-3.7-3.2-7-6.7-10.7-9.9
		c-3.5-3-6.4-6.8-10.4-9.2C147.1,70.3,143.3,70.6,139.6,70.9 M45.2,133c-0.2,4.2-0.9,8.5,0,12.7c2.2,3.1,5.1,5.6,7.6,8.4
		c6.6,6.6,12.7,13.6,19.5,19.9c6.5,7.3,13.6,14.1,20.3,21.3c1.6,1.8,3.3,3.4,5.3,4.8c4.7,7.3,14.8,11.8,23.1,8.2
		c2.4-1.1,5.3-1.9,6.8-4.2c3.3-1.6,5.4-4.7,7.9-7.1c5-5.4,10.3-10.5,15.1-16c5-4.7,9.7-9.8,14.2-14.9c3.6-3.4,7.6-6.7,10.1-11
		c-5.1-0.5-10.3-0.3-15.4,0l0.6,0.5c-5.5,4.8-10.8,9.9-15.5,15.5c-7.6,7-14.9,14.4-21.9,22c-3.7,3.6-9.7,5-14.1,1.9
		c-5.4-3.6-9.3-9-14.3-13.3c-4.8-5.2-10.1-10-15.1-15C68.2,155.4,56.9,144,45.2,133 M194.4,150.5c-3.6,4.2-7.7,7.9-11.4,12.1
		c-2.8,2.5-5.6,5-8,8c-4.1,3.8-8.3,7.6-11.9,11.9c-7.5,7.2-15.1,14.4-22.1,22c4.5,0.1,9,0.1,13.4,0c4.2-4.6,8.8-8.7,12.9-13.4
		c4.3-3.7,8.2-7.8,12-12c2.9-2.3,5.4-5,7.8-7.8c4.5-3.8,8.5-8.3,12.7-12.4c2.7-2.9,5.9-5.2,8.3-8.4
		C203.5,150.2,198.9,150.2,194.4,150.5z"/>
</g>
<g id="_x23_f40658ff">
	<path class="st2" d="M139.9,40.9c4.8-1.4,10.3-0.9,14.6,1.9c-1.1,3-2.3,5.9-3.8,8.7c-2.9,0.2-5.8,0.5-8.6,1.4
		c-6.3,3.6-10.7,9.5-15.9,14.3c-6.8,6.5-13.2,13.5-20.3,19.7c-1.2,0.4-2.4,0.7-3.6,1.1c3.9-8,7.8-16,12-23.8
		c2.8-3.8,6.4-6.9,9.6-10.3C128.7,49,133.1,43.1,139.9,40.9z"/>
</g>
<g id="_x23_841e9eff">
	<path class="st3" d="M99.2,46.2c1.8-1.6,3.4-4,6.2-3.5c-1.3,5.1-4,9.7-6.4,14.3c-1.1,1.9-1.5,4.2-1.5,6.4l0,0.7
		c-4.3,4.2-8.2,8.7-13,12.2c0.1-1.9,0.3-3.9,1.2-5.6c2.9-6.2,6.8-12,8.6-18.6C95.2,49.6,97.5,48.1,99.2,46.2z"/>
</g>
<g id="_x23_9f178fff">
	<path class="st4" d="M105.3,42.7c4.4-0.1,8.8-0.3,13.1,0.2c-2.5,3.7-6.1,6.3-9.1,9.5c-4,3.6-7.4,7.9-11.9,11
		c-0.1-2.2,0.3-4.4,1.5-6.4C101.3,52.3,104.1,47.8,105.3,42.7z"/>
</g>
<g id="_x23_da3753ff">
	<path class="st5" d="M154.5,42.8c6.1,2.7,10,8.5,14.6,13.1c-1.1,2.8-2.4,5.6-3.8,8.3c-1,0.3-2.1,0.7-3.1,1
		c-3.6-3.2-6.6-7.1-10.3-10.1c-2.7-2.2-6.4-2.6-9.8-2.2c2.8-0.9,5.7-1.1,8.6-1.4C152.2,48.7,153.4,45.8,154.5,42.8z"/>
</g>
<g id="_x23_6e23aaff">
	<path class="st6" d="M85,60.9c2.2-3.7,5.5-6.7,9.2-8.9c-1.8,6.7-5.7,12.5-8.6,18.6c-0.9,1.7-1.2,3.7-1.2,5.6l0,0.7
		c-3.9,3.7-7.3,7.9-11.7,10.9C75.9,78.4,81.7,70.2,85,60.9z"/>
</g>
<g id="_x23_c45850ff">
	<path class="st7" d="M169.1,55.9c3.5,3.3,6.8,6.8,10.2,10.3c-0.6,4.1-2.5,7.8-6,10.2c-3.8-3.7-7.6-7.4-11.1-11.2
		c1-0.3,2.1-0.7,3.1-1C166.7,61.5,168,58.7,169.1,55.9z"/>
</g>
<g id="_x23_5a27b5ff">
	<path class="st8" d="M75.8,68.9c3-2.7,5.5-6.1,9.2-8c-3.3,9.3-9.1,17.5-12.4,26.9c-2.7,3.5-6,6.8-9.7,9.3c2.4-6.6,6-12.8,9.1-19
		c1.1-1.9,1.4-4.1,1.6-6.3C73.9,70.5,75.1,69.8,75.8,68.9z"/>
</g>
<g id="_x23_ca0d76ff">
	<path class="st9" d="M102.7,75.7c4-3.7,7.2-8.2,11.6-11.5c-4.2,7.8-8.2,15.8-12,23.8c1.2-0.4,2.4-0.7,3.6-1.1c-3,4-7,7-10.5,10.5
		c-3.3,3-6.1,6.6-9.9,9c0.5-8,7.2-13.6,8.8-21.3C96.3,81.4,99.9,78.9,102.7,75.7z"/>
</g>
<g id="_x23_b1734dff">
	<path class="st10" d="M179.3,66.2c3.8,4.1,7.8,8,11.5,12.2c-2.5,2.9-4.3,6.3-5.8,9.7c-4.1-3.7-7.8-7.6-11.6-11.6
		C176.8,74.1,178.7,70.3,179.3,66.2z"/>
</g>
<g id="_x23_d43f52ff">
	<path class="st11" d="M139.6,70.9c3.8-0.2,7.6-0.6,11.3,0.1c3.9,2.5,6.9,6.2,10.4,9.2c-0.9,2.9-1.8,6.2-5,7.3
		c-4.3-3.9-8.6-7.9-12.9-11.8C141.9,74.3,140.2,72.9,139.6,70.9z"/>
</g>
<g id="_x23_462cc1ff">
	<path class="st12" d="M64.7,79.7c2.9-2.7,5.6-5.8,9-8c-0.3,2.2-0.6,4.3-1.6,6.3c-3.1,6.3-6.7,12.4-9.1,19c-1.6,3.1-5,5.1-6.5,8.3
		c-0.7,2.3-0.5,4.7-0.9,7.1c-2,3.8-4.2,7.4-6.5,10.9c-1.7-1.7-3.1-3.6-4.1-5.8c4.8-5.5,7.1-12.6,10.6-18.9c2.3-5.3,6.1-10.1,6.9-16
		C62.8,81.4,63.9,80.6,64.7,79.7z"/>
</g>
<g id="_x23_9e904bff">
	<path class="st13" d="M184.9,88.1c1.5-3.5,3.3-6.8,5.8-9.7c2.4,2.5,4.7,5.2,7.3,7.6c2.7,2.6,5.8,4.8,7.4,8.2
		c-4.8,0.3-9.6,0.6-14.3-0.1C188.6,92.6,186.8,90.2,184.9,88.1z"/>
</g>
<g id="_x23_bf5f4fff">
	<path class="st14" d="M161.2,80.2c3.7,3.1,7,6.7,10.7,9.9c1.4,1.1,2.4,2.5,3.3,4.1c-4.7,0-10.7,1.9-14.4-2c-1.6-1.5-3.1-3-4.6-4.6
		C159.5,86.4,160.4,83.1,161.2,80.2z"/>
</g>
<g id="_x23_2c32d0ff">
	<path class="st15" d="M53.6,90.6c2.9-2.7,5.5-5.9,9-7.9c-0.9,5.9-4.6,10.7-6.9,16c-3.5,6.3-5.8,13.4-10.6,18.9
		c-3.1-5.4-2.4-12.6,0.7-17.9C47.7,96.2,50.7,93.4,53.6,90.6z"/>
</g>
<g id="_x23_ac1487ff">
	<path class="st16" d="M84.5,94.5c3.2-3.2,5.8-7,9.8-9.4c-1.6,7.7-8.3,13.3-8.8,21.3c-1.8,4-5.7,6.9-9,9.7
		c-0.1-4.5-0.6-9.1,0.2-13.6C79.1,99.8,82.1,97.4,84.5,94.5z"/>
</g>
<g id="_x23_807f90ff">
	<path class="st17" d="M0,110.6c0.5-1.6,1-3.2,1.5-4.8c0.2,4,0.4,8.2-1.5,11.9V110.6z"/>
	<path class="st17" d="M248.5,105.7c0.4,1.7,1,3.3,1.5,4.9v7C248.2,113.9,248.3,109.8,248.5,105.7z"/>
</g>
<g id="_x23_6125b0ff">
	<path class="st18" d="M49.2,123.4c2.3-3.6,4.5-7.2,6.5-10.9c1.6,1.9,3,3.9,4.2,6c-2.1,3.1-4,6.3-5.9,9.6
		C52.3,126.7,50.7,125.1,49.2,123.4z"/>
</g>
<g id="_x23_7d1fa1ff">
	<path class="st19" d="M54,128.1c1.9-3.2,3.8-6.5,5.9-9.6c1.8,1.5,3.5,3.2,5,5c-2.8,2.8-4.6,6.3-5.2,10.2
		C57.7,132,55.8,130.1,54,128.1z"/>
</g>
<g id="_x23_9c1890ff">
	<path class="st20" d="M59.7,133.8c0.5-3.9,2.3-7.5,5.2-10.2c2.1,1.8,4.1,3.8,5.9,5.9c-3.8,2.6-6,7.7-3.2,11.8
		C64.7,139,62.2,136.4,59.7,133.8z"/>
</g>
<g id="_x23_c20e7aff">
	<path class="st21" d="M67.6,141.3c-2.9-4.1-0.6-9.2,3.2-11.8c2.4,2.2,4.9,4.5,7,7c-2.7,2.3-4.4,5.5-5.9,8.7
		C70.4,144,68.8,142.8,67.6,141.3z"/>
</g>
<g id="_x23_ff9404ff">
	<path class="st22" d="M45.2,133c11.7,11,22.9,22.4,34.4,33.6c-3,1.8-5.4,4.4-7.2,7.4c-6.8-6.4-13-13.3-19.5-19.9
		c-2.5-2.8-5.4-5.3-7.6-8.4C44.4,141.5,45,137.2,45.2,133z"/>
</g>
<g id="_x23_ef0d57ff">
	<path class="st23" d="M71.8,145.2c1.5-3.2,3.2-6.4,5.9-8.7c7.3,7,14.5,14.3,21.5,21.7c-0.6,3.4-1.5,7.2-5.1,8.5
		C86.4,159.8,79,152.6,71.8,145.2z"/>
</g>
<g id="_x23_50d546ff">
	<path class="st24" d="M194.4,150.5c4.6-0.3,9.1-0.3,13.7,0c-2.3,3.2-5.6,5.6-8.3,8.4c-4.2,4.1-8.2,8.6-12.7,12.4
		c-1.3-2.9-2.7-5.8-4.1-8.6C186.7,158.4,190.8,154.7,194.4,150.5z"/>
</g>
<g id="_x23_7dda39ff">
	<path class="st25" d="M159.9,154.9c5.1-0.3,10.3-0.5,15.4,0c-2.5,4.4-6.5,7.7-10.1,11c-0.4-3.9-0.9-8.3-4.7-10.5L159.9,154.9z"/>
</g>
<g id="_x23_a1df30ff">
	<path class="st26" d="M160.5,155.4c3.7,2.2,4.2,6.6,4.7,10.5c-4.5,5.2-9.3,10.2-14.2,14.9c2.9-3.8-0.4-7.8-2.8-10.8
		c-1,0.3-2.1,0.6-3.1,0.9C149.7,165.4,155,160.2,160.5,155.4z"/>
</g>
<g id="_x23_d33f52ff">
	<path class="st27" d="M99.2,158.2c5.9,5.3,11,11.5,16.8,16.9c1.1,1.1,2.1,2.3,3.1,3.5c-4.2,0.1-8.5,0.4-12.7,0
		c-4.4-3.6-8.3-7.7-12.3-11.8C97.7,165.3,98.6,161.6,99.2,158.2z"/>
</g>
<g id="_x23_69d83fff">
	<path class="st28" d="M175,170.6c2.4-3,5.2-5.5,8-8c1.4,2.8,2.8,5.7,4.1,8.6c-2.4,2.8-5,5.5-7.8,7.8
		C178,176.2,176.6,173.4,175,170.6z"/>
</g>
<g id="_x23_ffaa09ff">
	<path class="st29" d="M72.4,174c1.8-3,4.2-5.6,7.2-7.4c5,5,10.3,9.8,15.1,15c-1.5,0.8-3,1.5-4.6,2.3c2.5,5.4,5.5,10.6,7.9,16.1
		c-2-1.3-3.7-3-5.3-4.8C86,188.1,78.9,181.3,72.4,174z"/>
</g>
<g id="_x23_dce620ff">
	<path class="st30" d="M145.1,171c1-0.3,2-0.6,3.1-0.9c2.4,3,5.8,6.9,2.8,10.8c-4.9,5.5-10.2,10.6-15.1,16c-2.5,2.5-4.7,5.5-7.9,7.1
		c1.9-3.6,5.1-6.3,7.3-9.7c-3.8-1.8-8.1-3.1-12.1-1.2C130.2,185.4,137.5,178,145.1,171z"/>
</g>
<g id="_x23_8cdc36ff">
	<path class="st31" d="M163.1,182.5c3.6-4.3,7.8-8.1,11.9-11.9c1.5,2.8,3,5.6,4.3,8.5c-3.8,4.2-7.7,8.3-12,12
		C166.2,188.1,164.9,185.1,163.1,182.5z"/>
</g>
<g id="_x23_ffc60fff">
	<path class="st32" d="M90.2,183.9c1.5-0.8,3-1.5,4.6-2.3c4.9,4.2,8.9,9.6,14.3,13.3c4.5,3.1,10.4,1.7,14.1-1.9
		c4-1.8,8.3-0.5,12.1,1.2c-2.2,3.4-5.4,6.1-7.3,9.7c-1.5,2.3-4.4,3.1-6.8,4.2c-8.3,3.6-18.4-0.9-23.1-8.2
		C95.7,194.6,92.7,189.4,90.2,183.9z"/>
</g>
<g id="_x23_c0e327ff">
	<path class="st33" d="M141,204.5c7-7.6,14.6-14.8,22.1-22c1.8,2.7,3.1,5.6,4.2,8.6c-4.1,4.6-8.7,8.8-12.9,13.4
		C150,204.5,145.5,204.6,141,204.5z"/>
</g>
</svg>
