<?xml version="1.0" encoding="UTF-8" ?>
<!DOCTYPE svg PUBLIC "-//W3C//DTD SVG 1.1//EN" "http://www.w3.org/Graphics/SVG/1.1/DTD/svg11.dtd">
<svg width="228pt" height="250pt" viewBox="0 0 228 250" version="1.1" xmlns="http://www.w3.org/2000/svg">
<g id="#ffffffff">
<path fill="#ffffff" opacity="1.00" d=" M 0.00 0.00 L 110.42 0.00 C 103.63 0.62 97.03 2.87 91.17 6.35 C 67.79 19.91 44.35 33.38 20.98 46.97 C 9.14 53.97 1.35 66.91 0.00 80.52 L 0.00 0.00 Z" />
<path fill="#ffffff" opacity="1.00" d=" M 118.31 0.00 L 228.00 0.00 L 228.00 80.71 C 226.72 66.76 218.61 53.53 206.39 46.56 C 183.23 33.13 160.03 19.76 136.85 6.35 C 131.20 2.96 124.83 0.85 118.31 0.00 Z" />
<path fill="#ffffff" opacity="1.00" d=" M 0.00 169.31 C 1.27 183.03 9.13 196.07 21.06 203.09 C 44.65 216.80 68.29 230.42 91.91 244.07 C 97.34 247.24 103.45 249.15 109.67 250.00 L 0.00 250.00 L 0.00 169.31 Z" />
<path fill="#ffffff" opacity="1.00" d=" M 207.01 203.06 C 218.87 196.05 226.66 183.08 228.00 169.44 L 228.00 250.00 L 118.10 250.00 C 124.71 249.23 131.14 247.06 136.85 243.66 C 160.23 230.12 183.66 216.65 207.01 203.06 Z" />
</g>
<g id="#2e2e2eff">
<path fill="#2e2e2e" opacity="1.00" d=" M 110.42 0.00 L 118.31 0.00 C 124.83 0.85 131.20 2.96 136.85 6.35 C 160.03 19.76 183.23 33.13 206.39 46.56 C 218.61 53.53 226.72 66.76 228.00 80.71 L 228.00 169.44 C 226.66 183.08 218.87 196.05 207.01 203.06 C 183.66 216.65 160.23 230.12 136.85 243.66 C 131.14 247.06 124.71 249.23 118.10 250.00 L 109.67 250.00 C 103.45 249.15 97.34 247.24 91.91 244.07 C 68.29 230.42 44.65 216.80 21.06 203.09 C 9.13 196.07 1.27 183.03 0.00 169.31 L 0.00 80.52 C 1.35 66.91 9.14 53.97 20.98 46.97 C 44.35 33.38 67.79 19.91 91.17 6.35 C 97.03 2.87 103.63 0.62 110.42 0.00 M 108.41 5.64 C 103.31 6.42 98.43 8.28 93.98 10.87 C 70.74 24.34 47.46 37.75 24.21 51.23 C 12.80 57.85 5.24 70.73 5.32 83.96 C 5.29 111.31 5.30 138.66 5.31 166.00 C 5.25 179.25 12.78 192.14 24.21 198.78 C 47.65 212.36 71.11 225.92 94.57 239.46 C 103.92 244.96 115.62 246.31 125.91 242.85 C 130.23 241.55 134.06 239.13 137.93 236.89 C 157.75 225.42 177.60 213.98 197.41 202.49 C 201.79 199.94 206.36 197.60 210.10 194.13 C 218.19 186.81 222.97 175.94 222.69 165.01 C 222.68 138.00 222.71 110.99 222.68 83.98 C 222.75 70.74 215.20 57.87 203.79 51.23 C 180.35 37.64 156.88 24.09 133.42 10.54 C 125.93 6.13 117.01 4.41 108.41 5.64 Z" />
</g>
<g id="#070707ff">
<path fill="#070707" opacity="1.00" d=" M 108.41 5.64 C 117.01 4.41 125.93 6.13 133.42 10.54 C 156.88 24.09 180.35 37.64 203.79 51.23 C 215.20 57.87 222.75 70.74 222.68 83.98 C 222.71 110.99 222.68 138.00 222.69 165.01 C 222.97 175.94 218.19 186.81 210.10 194.13 C 206.36 197.60 201.79 199.94 197.41 202.49 C 177.60 213.98 157.75 225.42 137.93 236.89 C 134.06 239.13 130.23 241.55 125.91 242.85 C 115.62 246.31 103.92 244.96 94.57 239.46 C 71.11 225.92 47.65 212.36 24.21 198.78 C 12.78 192.14 5.25 179.25 5.31 166.00 C 5.30 138.66 5.29 111.31 5.32 83.96 C 5.24 70.73 12.80 57.85 24.21 51.23 C 47.46 37.75 70.74 24.34 93.98 10.87 C 98.43 8.28 103.31 6.42 108.41 5.64 M 107.34 15.40 C 99.49 16.70 92.83 21.27 86.04 25.09 C 69.16 34.86 52.35 44.73 35.37 54.31 C 21.78 60.94 12.60 75.85 13.78 91.07 C 13.86 114.38 13.79 137.69 13.81 161.00 C 13.60 169.37 16.36 177.83 21.69 184.32 C 26.69 191.58 34.96 195.32 42.34 199.64 C 56.66 208.03 71.09 216.21 85.44 224.55 C 92.25 228.36 98.86 232.99 106.68 234.44 C 113.38 235.62 120.48 235.32 126.88 232.88 C 131.80 231.13 136.14 228.17 140.66 225.64 C 157.64 216.01 174.42 206.04 191.37 196.36 C 197.01 193.28 202.68 189.71 206.33 184.28 C 211.62 177.80 214.41 169.36 214.25 161.02 C 214.19 136.67 214.22 112.31 214.22 87.96 C 214.31 77.95 209.61 68.40 202.69 61.36 C 194.98 54.62 185.40 50.68 176.84 45.21 C 164.72 38.35 152.79 31.20 140.66 24.37 C 135.68 21.61 130.91 18.32 125.42 16.64 C 119.62 14.69 113.35 14.49 107.34 15.40 Z" />
</g>
<g id="#131313ff">
<path fill="#131313" opacity="1.00" d=" M 107.34 15.40 C 113.35 14.49 119.62 14.69 125.42 16.64 C 130.91 18.32 135.68 21.61 140.66 24.37 C 152.79 31.20 164.72 38.35 176.84 45.21 C 185.40 50.68 194.98 54.62 202.69 61.36 C 209.61 68.40 214.31 77.95 214.22 87.96 C 214.22 112.31 214.19 136.67 214.25 161.02 C 214.41 169.36 211.62 177.80 206.33 184.28 C 202.68 189.71 197.01 193.28 191.37 196.36 C 174.42 206.04 157.64 216.01 140.66 225.64 C 136.14 228.17 131.80 231.13 126.88 232.88 C 120.48 235.32 113.38 235.62 106.68 234.44 C 98.86 232.99 92.25 228.36 85.44 224.55 C 71.09 216.21 56.66 208.03 42.34 199.64 C 34.96 195.32 26.69 191.58 21.69 184.32 C 16.36 177.83 13.60 169.37 13.81 161.00 C 13.79 137.69 13.86 114.38 13.78 91.07 C 12.60 75.85 21.78 60.94 35.37 54.31 C 52.35 44.73 69.16 34.86 86.04 25.09 C 92.83 21.27 99.49 16.70 107.34 15.40 M 41.80 75.51 C 39.45 84.05 37.12 92.61 34.66 101.12 C 33.89 103.94 33.74 107.15 35.25 109.76 C 43.77 125.86 52.29 141.97 60.90 158.02 C 62.22 160.59 63.92 163.06 66.38 164.66 C 71.29 167.99 76.61 170.81 80.96 174.92 C 84.13 177.80 86.37 181.52 89.41 184.54 C 92.18 187.29 94.79 190.96 99.04 191.30 C 105.35 191.75 111.68 191.32 118.00 191.50 C 122.98 191.41 128.14 192.05 132.89 190.19 C 139.35 183.86 144.76 176.45 152.03 170.95 C 155.64 167.72 160.22 165.94 164.06 163.06 C 169.63 154.78 173.68 145.54 178.59 136.86 C 182.65 129.14 186.76 121.46 190.72 113.70 C 192.43 110.42 194.91 106.84 193.82 102.97 C 191.35 92.66 188.45 82.46 185.52 72.28 C 184.94 69.72 182.93 67.00 179.96 67.77 C 174.51 69.18 169.29 71.32 163.97 73.13 C 157.07 75.61 150.06 77.83 143.19 80.37 C 141.50 80.44 139.75 80.63 138.14 79.98 C 125.01 75.53 110.59 74.89 97.10 78.00 C 93.33 78.57 89.85 80.69 85.99 80.52 C 72.81 76.81 60.16 71.28 46.94 67.66 C 43.37 68.55 42.57 72.44 41.80 75.51 Z" />
<path fill="#131313" opacity="1.00" d=" M 48.83 84.30 C 49.30 82.32 49.94 80.40 50.77 78.55 C 58.73 80.90 66.58 83.75 74.26 86.90 C 70.00 90.69 65.20 93.86 61.27 98.01 C 63.25 100.06 64.87 103.31 67.93 103.73 C 70.18 102.44 72.04 100.60 74.11 99.05 C 82.58 92.57 92.60 88.07 103.12 86.27 C 117.81 83.70 133.28 86.58 146.21 93.96 C 151.90 96.97 156.42 101.61 161.72 105.16 C 163.20 102.53 167.12 99.96 165.40 96.61 C 161.75 93.15 157.70 90.16 153.87 86.90 C 159.12 84.56 164.64 82.95 170.03 80.98 C 172.42 80.09 174.84 78.96 177.47 79.27 C 179.89 86.73 181.70 94.37 183.76 101.94 C 185.07 105.52 182.36 108.72 180.91 111.79 C 177.46 118.25 174.10 124.77 170.67 131.24 C 166.66 138.72 162.68 146.21 158.67 153.68 C 157.61 155.86 155.68 157.39 153.55 158.44 C 144.90 162.69 138.31 169.98 132.38 177.39 C 130.51 179.80 127.79 181.33 124.92 182.26 C 120.26 182.68 115.62 181.72 110.96 181.83 C 107.78 181.79 104.56 182.11 101.40 181.56 C 97.73 180.20 95.49 176.78 93.02 173.95 C 87.70 167.57 81.26 162.08 73.91 158.16 C 71.69 157.08 70.04 155.18 68.94 153.00 C 61.14 138.48 53.36 123.94 45.58 109.41 C 44.36 107.14 43.09 104.55 44.05 101.93 C 45.66 96.06 47.37 90.21 48.83 84.30 M 132.81 111.77 C 127.69 114.97 126.42 121.44 126.56 127.05 C 126.75 131.43 125.80 136.10 127.89 140.16 C 130.58 140.16 133.49 140.33 135.90 138.95 C 139.21 136.32 143.87 137.75 147.40 135.51 C 153.20 132.83 154.96 125.91 154.84 120.04 C 158.77 118.08 157.45 113.33 157.27 109.78 C 153.90 109.09 150.43 109.53 147.01 109.40 C 142.23 109.50 136.93 108.74 132.81 111.77 M 70.62 110.66 C 70.81 114.50 70.93 118.57 73.22 121.83 C 73.71 125.24 74.09 128.85 76.26 131.69 C 79.38 136.26 85.31 137.39 90.49 137.41 C 91.59 138.88 92.88 140.76 95.02 140.36 C 97.07 140.06 99.91 141.17 101.16 138.98 C 101.50 134.02 101.28 129.03 101.29 124.06 C 101.37 118.85 98.68 113.50 93.92 111.12 C 89.65 108.72 84.62 109.63 79.96 109.43 C 76.83 109.49 73.44 108.96 70.62 110.66 M 100.36 150.53 C 96.69 151.45 96.38 156.77 99.21 158.86 C 102.97 162.07 106.56 165.48 110.48 168.50 C 112.39 170.17 115.40 169.86 117.25 168.26 C 121.53 164.89 125.84 161.49 129.73 157.68 C 132.35 154.86 129.71 149.98 125.95 150.37 C 117.42 150.34 108.86 150.02 100.36 150.53 Z" />
<path fill="#131313" opacity="1.00" d=" M 83.94 126.06 C 82.63 123.90 81.67 119.77 84.80 118.74 C 87.17 118.51 90.26 119.06 91.24 121.56 C 91.80 123.44 91.72 125.45 91.41 127.37 C 88.91 127.94 85.81 128.18 83.94 126.06 Z" />
<path fill="#131313" opacity="1.00" d=" M 138.56 119.63 C 140.63 118.51 144.50 117.89 145.17 120.93 C 144.95 123.03 144.99 125.79 142.89 126.99 C 141.03 128.11 138.66 127.79 136.62 127.38 C 136.17 124.75 135.83 121.14 138.56 119.63 Z" />
</g>
<g id="#00bfffff">
<path fill="#00bfff" opacity="1.00" d=" M 41.80 75.51 C 42.57 72.44 43.37 68.55 46.94 67.66 C 60.16 71.28 72.81 76.81 85.99 80.52 C 89.85 80.69 93.33 78.57 97.10 78.00 C 99.33 80.59 101.33 83.36 103.12 86.27 C 92.60 88.07 82.58 92.57 74.11 99.05 C 72.04 100.60 70.18 102.44 67.93 103.73 C 64.87 103.31 63.25 100.06 61.27 98.01 C 65.20 93.86 70.00 90.69 74.26 86.90 C 66.58 83.75 58.73 80.90 50.77 78.55 C 49.94 80.40 49.30 82.32 48.83 84.30 C 46.85 81.09 44.49 78.14 41.80 75.51 Z" />
</g>
<g id="#0092ffff">
<path fill="#0092ff" opacity="1.00" d=" M 163.97 73.13 C 169.29 71.32 174.51 69.18 179.96 67.77 C 182.93 67.00 184.94 69.72 185.52 72.28 C 188.45 82.46 191.35 92.66 193.82 102.97 C 194.91 106.84 192.43 110.42 190.72 113.70 C 187.44 113.11 184.17 112.48 180.91 111.79 C 182.36 108.72 185.07 105.52 183.76 101.94 C 181.70 94.37 179.89 86.73 177.47 79.27 C 174.84 78.96 172.42 80.09 170.03 80.98 C 168.28 80.16 166.05 79.72 165.09 77.85 C 164.42 76.36 164.26 74.71 163.97 73.13 Z" />
</g>
<g id="#009effff">
<path fill="#009eff" opacity="1.00" d=" M 143.19 80.37 C 150.06 77.83 157.07 75.61 163.97 73.13 C 164.26 74.71 164.42 76.36 165.09 77.85 C 166.05 79.72 168.28 80.16 170.03 80.98 C 164.64 82.95 159.12 84.56 153.87 86.90 C 157.70 90.16 161.75 93.15 165.40 96.61 C 167.12 99.96 163.20 102.53 161.72 105.16 C 156.42 101.61 151.90 96.97 146.21 93.96 C 145.92 89.37 141.08 86.76 139.44 82.61 C 140.68 81.85 141.92 81.08 143.19 80.37 Z" />
</g>
<g id="#00d3ffff">
<path fill="#00d3ff" opacity="1.00" d=" M 41.80 75.51 C 44.49 78.14 46.85 81.09 48.83 84.30 C 47.37 90.21 45.66 96.06 44.05 101.93 C 43.09 104.55 44.36 107.14 45.58 109.41 C 53.36 123.94 61.14 138.48 68.94 153.00 C 70.04 155.18 71.69 157.08 73.91 158.16 C 81.26 162.08 87.70 167.57 93.02 173.95 C 95.49 176.78 97.73 180.20 101.40 181.56 C 104.56 182.11 107.78 181.79 110.96 181.83 C 115.62 181.72 120.26 182.68 124.92 182.26 C 127.08 185.36 129.09 188.90 132.89 190.19 C 128.14 192.05 122.98 191.41 118.00 191.50 C 111.68 191.32 105.35 191.75 99.04 191.30 C 94.79 190.96 92.18 187.29 89.41 184.54 C 86.37 181.52 84.13 177.80 80.96 174.92 C 76.61 170.81 71.29 167.99 66.38 164.66 C 63.92 163.06 62.22 160.59 60.90 158.02 C 52.29 141.97 43.77 125.86 35.25 109.76 C 33.74 107.15 33.89 103.94 34.66 101.12 C 37.12 92.61 39.45 84.05 41.80 75.51 Z" />
</g>
<g id="#00aaffff">
<path fill="#00aaff" opacity="1.00" d=" M 97.10 78.00 C 110.59 74.89 125.01 75.53 138.14 79.98 C 139.75 80.63 141.50 80.44 143.19 80.37 C 141.92 81.08 140.68 81.85 139.44 82.61 C 141.08 86.76 145.92 89.37 146.21 93.96 C 133.28 86.58 117.81 83.70 103.12 86.27 C 101.33 83.36 99.33 80.59 97.10 78.00 Z" />
</g>
<g id="#00adffff">
<path fill="#00adff" opacity="1.00" d=" M 132.81 111.77 C 136.93 108.74 142.23 109.50 147.01 109.40 C 150.43 109.53 153.90 109.09 157.27 109.78 C 157.45 113.33 158.77 118.08 154.84 120.04 C 154.96 125.91 153.20 132.83 147.40 135.51 C 143.87 137.75 139.21 136.32 135.90 138.95 C 133.49 140.33 130.58 140.16 127.89 140.16 C 125.80 136.10 126.75 131.43 126.56 127.05 C 126.42 121.44 127.69 114.97 132.81 111.77 M 138.56 119.63 C 135.83 121.14 136.17 124.75 136.62 127.38 C 138.66 127.79 141.03 128.11 142.89 126.99 C 144.99 125.79 144.95 123.03 145.17 120.93 C 144.50 117.89 140.63 118.51 138.56 119.63 Z" />
</g>
<g id="#00c4ffff">
<path fill="#00c4ff" opacity="1.00" d=" M 70.62 110.66 C 73.44 108.96 76.83 109.49 79.96 109.43 C 84.62 109.63 89.65 108.72 93.92 111.12 C 98.68 113.50 101.37 118.85 101.29 124.06 C 101.28 129.03 101.50 134.02 101.16 138.98 C 99.91 141.17 97.07 140.06 95.02 140.36 C 92.88 140.76 91.59 138.88 90.49 137.41 C 85.31 137.39 79.38 136.26 76.26 131.69 C 74.09 128.85 73.71 125.24 73.22 121.83 C 70.93 118.57 70.81 114.50 70.62 110.66 M 83.94 126.06 C 85.81 128.18 88.91 127.94 91.41 127.37 C 91.72 125.45 91.80 123.44 91.24 121.56 C 90.26 119.06 87.17 118.51 84.80 118.74 C 81.67 119.77 82.63 123.90 83.94 126.06 Z" />
</g>
<g id="#009dffff">
<path fill="#009dff" opacity="1.00" d=" M 170.67 131.24 C 174.10 124.77 177.46 118.25 180.91 111.79 C 184.17 112.48 187.44 113.11 190.72 113.70 C 186.76 121.46 182.65 129.14 178.59 136.86 C 177.32 133.42 173.75 132.45 170.67 131.24 Z" />
</g>
<g id="#00a9ffff">
<path fill="#00a9ff" opacity="1.00" d=" M 158.67 153.68 C 162.68 146.21 166.66 138.72 170.67 131.24 C 173.75 132.45 177.32 133.42 178.59 136.86 C 173.68 145.54 169.63 154.78 164.06 163.06 C 161.04 160.55 157.23 159.52 153.55 158.44 C 155.68 157.39 157.61 155.86 158.67 153.68 Z" />
</g>
<g id="#00c3ffff">
<path fill="#00c3ff" opacity="1.00" d=" M 100.36 150.53 C 108.86 150.02 117.42 150.34 125.95 150.37 C 129.71 149.98 132.35 154.86 129.73 157.68 C 125.84 161.49 121.53 164.89 117.25 168.26 C 115.40 169.86 112.39 170.17 110.48 168.50 C 106.56 165.48 102.97 162.07 99.21 158.86 C 96.38 156.77 96.69 151.45 100.36 150.53 Z" />
</g>
<g id="#00baffff">
<path fill="#00baff" opacity="1.00" d=" M 132.38 177.39 C 138.31 169.98 144.90 162.69 153.55 158.44 C 157.23 159.52 161.04 160.55 164.06 163.06 C 160.22 165.94 155.64 167.72 152.03 170.95 C 144.76 176.45 139.35 183.86 132.89 190.19 C 129.09 188.90 127.08 185.36 124.92 182.26 C 127.79 181.33 130.51 179.80 132.38 177.39 Z" />
</g>
</svg>
