<?xml version="1.0" encoding="UTF-8" ?>
<!DOCTYPE svg PUBLIC "-//W3C//DTD SVG 1.1//EN" "http://www.w3.org/Graphics/SVG/1.1/DTD/svg11.dtd">
<svg width="250pt" height="250pt" viewBox="0 0 250 250" version="1.1" xmlns="http://www.w3.org/2000/svg">
<g id="#fffffeff">
<path fill="#fffffe" opacity="1.00" d=" M 0.00 0.00 L 111.43 0.00 C 103.72 2.79 95.47 3.51 87.73 6.16 C 45.96 18.76 12.36 55.17 3.49 97.93 C 2.61 102.45 1.68 106.98 0.00 111.29 L 0.00 0.00 Z" />
<path fill="#fffffe" opacity="1.00" d=" M 138.81 0.00 L 250.00 0.00 L 250.00 111.49 C 248.33 107.11 247.41 102.51 246.52 97.92 C 237.67 55.44 204.46 19.20 163.04 6.39 C 155.14 3.58 146.67 2.93 138.81 0.00 Z" />
<path fill="#fffffe" opacity="1.00" d=" M 56.07 62.78 C 67.82 62.69 79.56 62.74 91.31 62.75 C 98.93 73.70 105.50 85.34 112.99 96.37 C 120.69 86.19 126.36 74.65 133.77 64.25 C 145.77 64.11 157.76 64.19 169.76 64.20 C 169.77 67.72 169.76 71.24 169.77 74.76 C 166.05 74.91 162.15 74.23 158.61 75.64 C 157.41 77.13 157.76 79.16 157.65 80.92 C 157.69 87.18 157.70 93.44 157.69 99.69 C 153.89 99.70 150.09 99.71 146.30 99.72 C 146.29 95.86 146.28 92.01 146.29 88.16 C 141.81 87.40 137.22 87.42 132.74 88.14 C 132.90 91.84 132.24 95.66 133.17 99.28 C 133.35 100.77 135.03 100.67 136.15 100.98 C 139.00 101.43 141.91 101.17 144.79 101.19 C 144.79 104.72 144.79 108.24 144.78 111.76 C 141.07 111.89 137.16 111.20 133.62 112.63 C 131.89 116.39 133.03 120.72 132.73 124.70 C 128.93 124.70 125.13 124.69 121.33 124.66 C 121.24 120.99 121.70 117.26 121.04 113.63 C 120.06 111.43 117.00 111.85 115.00 111.68 C 112.61 111.80 108.73 111.60 108.17 114.66 C 107.40 117.74 107.62 121.00 107.94 124.13 C 112.01 125.58 116.39 125.35 120.64 125.34 C 120.47 129.67 120.83 133.99 121.70 138.24 C 125.38 138.21 129.07 138.21 132.75 138.23 C 132.79 142.17 132.51 146.13 132.96 150.05 C 137.30 150.46 141.71 150.46 146.05 150.04 C 146.54 145.86 146.23 141.63 146.34 137.43 C 150.09 137.47 153.84 137.46 157.60 137.48 C 157.78 145.54 157.67 153.62 157.68 161.69 C 153.70 162.02 149.32 160.80 145.59 162.56 C 144.32 166.21 144.20 170.54 145.95 174.05 C 149.77 176.30 154.23 174.65 158.33 174.43 C 158.38 170.41 158.38 166.39 158.37 162.38 C 161.97 162.38 165.58 162.19 169.18 162.45 C 171.46 165.96 170.03 170.50 170.40 174.47 C 174.45 174.43 178.50 174.45 182.55 174.44 C 182.53 177.97 182.76 181.51 182.42 185.03 C 181.17 187.44 178.19 186.32 176.01 186.61 C 162.40 186.33 148.75 187.00 135.17 186.29 C 127.40 175.41 121.46 163.23 112.99 152.83 C 107.62 160.35 103.07 168.42 97.92 176.09 C 95.49 179.53 93.86 183.68 90.57 186.42 C 78.97 186.79 67.33 186.53 55.72 186.51 C 59.96 177.49 66.23 169.65 71.27 161.09 C 79.16 149.06 86.66 136.76 94.76 124.87 C 85.44 109.20 75.22 94.09 65.58 78.61 C 62.41 73.34 58.47 68.49 56.07 62.78 Z" />
<path fill="#fffffe" opacity="1.00" d=" M 183.23 63.82 C 187.06 63.30 190.96 63.31 194.79 63.85 C 194.73 67.42 194.73 71.00 194.72 74.57 C 190.97 75.20 187.19 75.51 183.40 75.70 C 183.33 71.74 183.32 67.78 183.23 63.82 Z" />
<path fill="#fffffe" opacity="1.00" d=" M 170.84 76.19 C 174.77 76.24 178.70 76.23 182.63 76.31 C 182.61 80.11 182.63 83.92 182.07 87.69 C 178.66 87.63 175.23 87.81 171.82 87.53 C 168.91 84.69 170.94 79.86 170.84 76.19 Z" />
<path fill="#fffffe" opacity="1.00" d=" M 158.36 100.42 C 162.11 100.44 165.86 100.43 169.61 100.37 C 170.20 104.30 171.48 108.83 169.14 112.43 C 165.56 112.70 161.97 112.51 158.38 112.56 C 158.38 108.51 158.36 104.47 158.36 100.42 Z" />
<path fill="#fffffe" opacity="1.00" d=" M 183.44 112.56 C 187.38 112.53 191.33 112.54 195.27 112.65 C 195.35 116.61 195.35 120.57 195.33 124.54 C 191.34 124.73 187.36 124.72 183.37 124.65 C 183.31 120.62 183.30 116.59 183.44 112.56 Z" />
<path fill="#fffffe" opacity="1.00" d=" M 146.29 113.24 C 150.09 113.21 153.89 113.22 157.69 113.26 C 157.69 117.06 157.69 120.85 157.64 124.65 C 153.87 124.71 150.10 124.70 146.33 124.67 C 146.29 120.86 146.28 117.05 146.29 113.24 Z" />
<path fill="#fffffe" opacity="1.00" d=" M 134.21 125.34 C 137.72 125.32 141.24 125.30 144.75 125.31 C 144.80 129.13 144.80 132.95 144.78 136.77 C 141.24 136.78 137.71 136.78 134.18 136.76 C 134.14 132.95 134.14 129.15 134.21 125.34 Z" />
<path fill="#fffffe" opacity="1.00" d=" M 171.96 137.57 C 174.97 137.29 178.02 137.29 181.03 137.59 C 183.40 138.88 182.40 141.83 182.65 144.01 C 182.60 146.01 182.99 149.59 180.10 149.56 C 176.98 149.20 172.71 150.93 170.51 148.13 C 170.27 145.04 170.28 141.94 170.52 138.86 C 170.88 138.54 171.60 137.89 171.96 137.57 Z" />
<path fill="#fffffe" opacity="1.00" d=" M 0.00 138.50 C 2.60 145.17 3.18 152.37 5.20 159.20 C 10.96 179.45 21.85 198.33 37.00 213.01 C 52.60 229.13 72.97 240.44 94.73 245.80 C 100.24 247.08 105.88 247.97 111.19 250.00 L 0.00 250.00 L 0.00 138.50 Z" />
<path fill="#fffffe" opacity="1.00" d=" M 246.00 154.48 C 247.15 149.18 247.99 143.77 250.00 138.70 L 250.00 250.00 L 138.57 250.00 C 145.24 247.52 152.38 246.80 159.18 244.77 C 179.22 239.12 197.93 228.42 212.51 213.50 C 229.06 197.61 240.67 176.76 246.00 154.48 Z" />
<path fill="#fffffe" opacity="1.00" d=" M 183.38 162.38 C 187.14 162.35 190.91 162.36 194.68 162.42 C 194.74 166.18 194.74 169.95 194.71 173.72 C 190.92 173.77 187.12 173.78 183.33 173.74 C 183.31 169.95 183.32 166.16 183.38 162.38 Z" />
</g>
<g id="#8fdb2fff">
<path fill="#8fdb2f" opacity="1.00" d=" M 111.43 0.00 L 138.81 0.00 C 146.67 2.93 155.14 3.58 163.04 6.39 C 204.46 19.20 237.67 55.44 246.52 97.92 C 247.41 102.51 248.33 107.11 250.00 111.49 L 250.00 138.70 C 247.99 143.77 247.15 149.18 246.00 154.48 C 240.67 176.76 229.06 197.61 212.51 213.50 C 197.93 228.42 179.22 239.12 159.18 244.77 C 152.38 246.80 145.24 247.52 138.57 250.00 L 111.19 250.00 C 105.88 247.97 100.24 247.08 94.73 245.80 C 72.97 240.44 52.60 229.13 37.00 213.01 C 21.85 198.33 10.96 179.45 5.20 159.20 C 3.18 152.37 2.60 145.17 0.00 138.50 L 0.00 111.29 C 1.68 106.98 2.61 102.45 3.49 97.93 C 12.36 55.17 45.96 18.76 87.73 6.16 C 95.47 3.51 103.72 2.79 111.43 0.00 M 56.07 62.78 C 58.47 68.49 62.41 73.34 65.58 78.61 C 75.22 94.09 85.44 109.20 94.76 124.87 C 86.66 136.76 79.16 149.06 71.27 161.09 C 66.23 169.65 59.96 177.49 55.72 186.51 C 67.33 186.53 78.97 186.79 90.57 186.42 C 93.86 183.68 95.49 179.53 97.92 176.09 C 103.07 168.42 107.62 160.35 112.99 152.83 C 121.46 163.23 127.40 175.41 135.17 186.29 C 148.75 187.00 162.40 186.33 176.01 186.61 C 178.19 186.32 181.17 187.44 182.42 185.03 C 182.76 181.51 182.53 177.97 182.55 174.44 C 178.50 174.45 174.45 174.43 170.40 174.47 C 170.03 170.50 171.46 165.96 169.18 162.45 C 165.58 162.19 161.97 162.38 158.37 162.38 C 158.38 166.39 158.38 170.41 158.33 174.43 C 154.23 174.65 149.77 176.30 145.95 174.05 C 144.20 170.54 144.32 166.21 145.59 162.56 C 149.32 160.80 153.70 162.02 157.68 161.69 C 157.67 153.62 157.78 145.54 157.60 137.48 C 153.84 137.46 150.09 137.47 146.34 137.43 C 146.23 141.63 146.54 145.86 146.05 150.04 C 141.71 150.46 137.30 150.46 132.96 150.05 C 132.51 146.13 132.79 142.17 132.75 138.23 C 129.07 138.21 125.38 138.21 121.70 138.24 C 120.83 133.99 120.47 129.67 120.64 125.34 C 116.39 125.35 112.01 125.58 107.94 124.13 C 107.62 121.00 107.40 117.74 108.17 114.66 C 108.73 111.60 112.61 111.80 115.00 111.68 C 117.00 111.85 120.06 111.43 121.04 113.63 C 121.70 117.26 121.24 120.99 121.33 124.66 C 125.13 124.69 128.93 124.70 132.73 124.70 C 133.03 120.72 131.89 116.39 133.62 112.63 C 137.16 111.20 141.07 111.89 144.78 111.76 C 144.79 108.24 144.79 104.72 144.79 101.19 C 141.91 101.17 139.00 101.43 136.15 100.98 C 135.03 100.67 133.35 100.77 133.17 99.28 C 132.24 95.66 132.90 91.84 132.74 88.14 C 137.22 87.42 141.81 87.40 146.29 88.16 C 146.28 92.01 146.29 95.86 146.30 99.72 C 150.09 99.71 153.89 99.70 157.69 99.69 C 157.70 93.44 157.69 87.18 157.65 80.92 C 157.76 79.16 157.41 77.13 158.61 75.64 C 162.15 74.23 166.05 74.91 169.77 74.76 C 169.76 71.24 169.77 67.72 169.76 64.20 C 157.76 64.19 145.77 64.11 133.77 64.25 C 126.36 74.65 120.69 86.19 112.99 96.37 C 105.50 85.34 98.93 73.70 91.31 62.75 C 79.56 62.74 67.82 62.69 56.07 62.78 M 183.23 63.82 C 183.32 67.78 183.33 71.74 183.40 75.70 C 187.19 75.51 190.97 75.20 194.72 74.57 C 194.73 71.00 194.73 67.42 194.79 63.85 C 190.96 63.31 187.06 63.30 183.23 63.82 M 170.84 76.19 C 170.94 79.86 168.91 84.69 171.82 87.53 C 175.23 87.81 178.66 87.63 182.07 87.69 C 182.63 83.92 182.61 80.11 182.63 76.31 C 178.70 76.23 174.77 76.24 170.84 76.19 M 158.36 100.42 C 158.36 104.47 158.38 108.51 158.38 112.56 C 161.97 112.51 165.56 112.70 169.14 112.43 C 171.48 108.83 170.20 104.30 169.61 100.37 C 165.86 100.43 162.11 100.44 158.36 100.42 M 183.44 112.56 C 183.30 116.59 183.31 120.62 183.37 124.65 C 187.36 124.72 191.34 124.73 195.33 124.54 C 195.35 120.57 195.35 116.61 195.27 112.65 C 191.33 112.54 187.38 112.53 183.44 112.56 M 146.29 113.24 C 146.28 117.05 146.29 120.86 146.33 124.67 C 150.10 124.70 153.87 124.71 157.64 124.65 C 157.69 120.85 157.69 117.06 157.69 113.26 C 153.89 113.22 150.09 113.21 146.29 113.24 M 134.21 125.34 C 134.14 129.15 134.14 132.95 134.18 136.76 C 137.71 136.78 141.24 136.78 144.78 136.77 C 144.80 132.95 144.80 129.13 144.75 125.31 C 141.24 125.30 137.72 125.32 134.21 125.34 M 171.96 137.57 C 171.60 137.89 170.88 138.54 170.52 138.86 C 170.28 141.94 170.27 145.04 170.51 148.13 C 172.71 150.93 176.98 149.20 180.10 149.56 C 182.99 149.59 182.60 146.01 182.65 144.01 C 182.40 141.83 183.40 138.88 181.03 137.59 C 178.02 137.29 174.97 137.29 171.96 137.57 M 183.38 162.38 C 183.32 166.16 183.31 169.95 183.33 173.74 C 187.12 173.78 190.92 173.77 194.71 173.72 C 194.74 169.95 194.74 166.18 194.68 162.42 C 190.91 162.36 187.14 162.35 183.38 162.38 Z" />
</g>
</svg>
