<?xml version="1.0" encoding="UTF-8" ?>
<!DOCTYPE svg PUBLIC "-//W3C//DTD SVG 1.1//EN" "http://www.w3.org/Graphics/SVG/1.1/DTD/svg11.dtd">
<svg width="250pt" height="174pt" viewBox="0 0 250 174" version="1.1" xmlns="http://www.w3.org/2000/svg">
<g id="#ffffffff">
<path fill="#ffffff" opacity="1.00" d=" M 0.00 0.00 L 250.00 0.00 L 250.00 174.00 L 0.00 174.00 L 0.00 0.00 M 57.32 79.08 C 54.60 84.21 50.95 88.90 49.07 94.43 C 53.35 94.46 57.64 94.57 61.91 94.45 C 63.46 94.68 64.02 93.04 64.77 92.05 C 67.64 87.19 70.30 82.21 73.19 77.36 C 73.97 75.54 77.00 75.71 77.58 77.64 C 80.88 83.23 83.98 88.94 87.39 94.47 C 92.23 94.45 97.06 94.54 101.89 94.39 C 93.56 78.80 84.17 63.78 75.57 48.33 C 68.87 58.19 63.48 68.88 57.32 79.08 M 119.45 48.86 C 112.56 50.83 106.52 55.84 103.78 62.53 C 101.78 66.65 102.21 71.37 102.44 75.81 C 104.03 85.08 111.98 92.54 121.08 94.38 C 125.23 94.63 129.60 94.90 133.45 93.05 C 142.33 89.68 148.45 80.48 148.33 71.00 C 148.12 62.31 142.72 54.03 134.80 50.41 C 130.12 47.89 124.55 48.14 119.45 48.86 M 25.44 48.39 C 25.37 63.80 25.28 79.20 25.49 94.61 C 36.07 94.72 45.97 86.43 47.98 76.08 C 51.36 62.54 39.41 47.72 25.44 48.39 M 93.16 48.83 C 89.35 51.01 89.24 57.20 92.98 59.48 C 96.10 59.96 100.57 60.42 101.70 56.59 C 104.21 51.60 97.90 46.36 93.16 48.83 M 149.05 48.50 C 149.63 51.53 151.46 54.07 152.96 56.70 C 158.61 66.43 164.29 76.14 169.89 85.90 C 171.41 88.70 173.05 91.44 175.02 93.94 C 182.28 82.65 188.56 70.74 195.46 59.22 C 197.40 55.70 199.89 52.42 201.02 48.52 C 196.32 48.39 191.61 48.45 186.91 48.47 C 183.27 54.47 179.88 60.62 176.42 66.72 C 176.03 67.72 174.70 67.36 173.89 67.67 C 170.55 61.22 166.85 54.94 163.07 48.74 C 158.45 48.05 153.72 48.59 149.05 48.50 M 202.45 66.03 C 202.37 70.98 201.43 76.37 203.91 80.91 C 207.50 88.76 215.84 94.87 224.72 93.81 C 224.70 78.66 224.80 63.50 224.67 48.34 C 214.33 47.82 204.62 56.10 202.45 66.03 M 151.28 82.99 C 147.29 84.88 146.92 91.62 150.97 93.59 C 153.82 95.69 158.10 94.06 159.55 91.04 C 159.73 89.36 159.73 87.65 159.55 85.97 C 158.27 82.81 154.23 81.45 151.28 82.99 M 25.54 115.15 C 25.28 119.62 25.44 124.09 25.42 128.56 C 28.80 128.18 33.15 129.74 35.56 126.57 C 38.68 123.48 37.54 118.37 34.40 115.78 C 31.54 114.92 28.48 115.43 25.54 115.15 M 69.34 115.21 C 67.75 119.65 64.65 123.93 65.45 128.87 C 66.51 127.74 67.47 126.50 68.63 125.46 C 69.90 125.35 71.19 125.37 72.47 125.35 C 73.71 126.64 75.01 127.88 76.42 129.00 C 76.85 124.15 73.47 120.05 72.27 115.51 C 71.29 115.41 70.31 115.31 69.34 115.21 M 108.34 115.36 C 103.95 116.56 103.38 122.41 105.06 125.94 C 106.97 129.06 110.98 128.99 114.12 128.22 C 118.08 126.54 118.48 121.45 116.95 118.04 C 115.21 114.84 111.49 114.99 108.34 115.36 M 174.05 115.22 C 175.24 120.29 177.31 125.16 179.99 129.63 C 183.60 125.68 184.32 120.16 186.86 115.60 C 186.18 115.52 184.84 115.36 184.17 115.28 C 182.93 118.37 181.71 121.48 180.06 124.38 C 178.78 121.43 177.50 118.49 176.44 115.45 C 175.84 115.40 174.64 115.28 174.05 115.22 M 216.54 115.67 C 213.36 117.76 212.78 121.95 213.95 125.31 C 215.93 129.36 221.90 129.70 224.98 126.80 C 222.70 126.30 220.33 126.71 218.08 126.17 C 215.64 124.13 215.77 119.96 217.81 117.69 C 220.05 117.21 222.35 117.48 224.62 117.56 C 224.57 117.04 224.46 116.00 224.41 115.48 C 221.80 115.37 219.09 114.92 216.54 115.67 Z" />
<path fill="#ffffff" opacity="1.00" d=" M 27.58 117.45 C 29.44 117.48 31.36 117.19 33.17 117.74 C 34.80 119.50 34.55 121.90 34.56 124.11 C 33.70 124.91 32.83 125.72 31.97 126.53 C 30.57 126.51 29.17 126.50 27.76 126.50 C 27.52 123.49 27.56 120.47 27.58 117.45 Z" />
<path fill="#ffffff" opacity="1.00" d=" M 108.24 117.96 C 110.16 116.85 113.82 116.81 114.70 119.41 C 116.80 122.45 113.82 127.58 110.05 126.49 C 106.46 125.72 105.13 120.33 108.24 117.96 Z" />
<path fill="#ffffff" opacity="1.00" d=" M 69.46 119.51 C 69.98 119.50 71.03 119.47 71.55 119.45 C 71.59 120.83 71.64 122.22 71.69 123.61 C 71.11 123.58 69.93 123.52 69.35 123.49 C 69.39 122.16 69.42 120.84 69.46 119.51 Z" />
</g>
<g id="#010101ff">
<path fill="#010101" opacity="1.00" d=" M 57.32 79.08 C 63.48 68.88 68.87 58.19 75.57 48.33 C 84.17 63.78 93.56 78.80 101.89 94.39 C 97.06 94.54 92.23 94.45 87.39 94.47 C 83.98 88.94 80.88 83.23 77.58 77.64 C 77.00 75.71 73.97 75.54 73.19 77.36 C 70.30 82.21 67.64 87.19 64.77 92.05 C 64.02 93.04 63.46 94.68 61.91 94.45 C 57.64 94.57 53.35 94.46 49.07 94.43 C 50.95 88.90 54.60 84.21 57.32 79.08 Z" />
<path fill="#010101" opacity="1.00" d=" M 119.45 48.86 C 124.55 48.14 130.12 47.89 134.80 50.41 C 142.72 54.03 148.12 62.31 148.33 71.00 C 148.45 80.48 142.33 89.68 133.45 93.05 C 129.60 94.90 125.23 94.63 121.08 94.38 C 111.98 92.54 104.03 85.08 102.44 75.81 C 102.21 71.37 101.78 66.65 103.78 62.53 C 106.52 55.84 112.56 50.83 119.45 48.86 Z" />
<path fill="#010101" opacity="1.00" d=" M 25.44 48.39 C 39.41 47.72 51.36 62.54 47.98 76.08 C 45.97 86.43 36.07 94.72 25.49 94.61 C 25.28 79.20 25.37 63.80 25.44 48.39 Z" />
<path fill="#010101" opacity="1.00" d=" M 93.16 48.83 C 97.90 46.36 104.21 51.60 101.70 56.59 C 100.57 60.42 96.10 59.96 92.98 59.48 C 89.24 57.20 89.35 51.01 93.16 48.83 Z" />
<path fill="#010101" opacity="1.00" d=" M 149.05 48.50 C 153.72 48.59 158.45 48.05 163.07 48.74 C 166.85 54.94 170.55 61.22 173.89 67.67 C 174.70 67.36 176.03 67.72 176.42 66.72 C 179.88 60.62 183.27 54.47 186.91 48.47 C 191.61 48.45 196.32 48.39 201.02 48.52 C 199.89 52.42 197.40 55.70 195.46 59.22 C 188.56 70.74 182.28 82.65 175.02 93.94 C 173.05 91.44 171.41 88.70 169.89 85.90 C 164.29 76.14 158.61 66.43 152.96 56.70 C 151.46 54.07 149.63 51.53 149.05 48.50 Z" />
<path fill="#010101" opacity="1.00" d=" M 202.45 66.03 C 204.62 56.10 214.33 47.82 224.67 48.34 C 224.80 63.50 224.70 78.66 224.72 93.81 C 215.84 94.87 207.50 88.76 203.91 80.91 C 201.43 76.37 202.37 70.98 202.45 66.03 Z" />
<path fill="#010101" opacity="1.00" d=" M 151.28 82.99 C 154.23 81.45 158.27 82.81 159.55 85.97 C 159.73 87.65 159.73 89.36 159.55 91.04 C 158.10 94.06 153.82 95.69 150.97 93.59 C 146.92 91.62 147.29 84.88 151.28 82.99 Z" />
<path fill="#010101" opacity="1.00" d=" M 25.54 115.15 C 28.48 115.43 31.54 114.92 34.40 115.78 C 37.54 118.37 38.68 123.48 35.56 126.57 C 33.15 129.74 28.80 128.18 25.42 128.56 C 25.44 124.09 25.28 119.62 25.54 115.15 M 27.58 117.45 C 27.56 120.47 27.52 123.49 27.76 126.50 C 29.17 126.50 30.57 126.51 31.97 126.53 C 32.83 125.72 33.70 124.91 34.56 124.11 C 34.55 121.90 34.80 119.50 33.17 117.74 C 31.36 117.19 29.44 117.48 27.58 117.45 Z" />
<path fill="#010101" opacity="1.00" d=" M 69.34 115.21 C 70.31 115.31 71.29 115.41 72.27 115.51 C 73.47 120.05 76.85 124.15 76.42 129.00 C 75.01 127.88 73.71 126.64 72.47 125.35 C 71.19 125.37 69.90 125.35 68.63 125.46 C 67.47 126.50 66.51 127.74 65.45 128.87 C 64.65 123.93 67.75 119.65 69.34 115.21 M 69.46 119.51 C 69.42 120.84 69.39 122.16 69.35 123.49 C 69.93 123.52 71.11 123.58 71.69 123.61 C 71.64 122.22 71.59 120.83 71.55 119.45 C 71.03 119.47 69.98 119.50 69.46 119.51 Z" />
<path fill="#010101" opacity="1.00" d=" M 108.34 115.36 C 111.49 114.99 115.21 114.84 116.95 118.04 C 118.48 121.45 118.08 126.54 114.12 128.22 C 110.98 128.99 106.97 129.06 105.06 125.94 C 103.38 122.41 103.95 116.56 108.34 115.36 M 108.24 117.96 C 105.13 120.33 106.46 125.72 110.05 126.49 C 113.82 127.58 116.80 122.45 114.70 119.41 C 113.82 116.81 110.16 116.85 108.24 117.96 Z" />
<path fill="#010101" opacity="1.00" d=" M 174.05 115.22 C 174.64 115.28 175.84 115.40 176.44 115.45 C 177.50 118.49 178.78 121.43 180.06 124.38 C 181.71 121.48 182.93 118.37 184.17 115.28 C 184.84 115.36 186.18 115.52 186.86 115.60 C 184.32 120.16 183.60 125.68 179.99 129.63 C 177.31 125.16 175.24 120.29 174.05 115.22 Z" />
<path fill="#010101" opacity="1.00" d=" M 216.54 115.67 C 219.09 114.92 221.80 115.37 224.41 115.48 C 224.46 116.00 224.57 117.04 224.62 117.56 C 222.35 117.48 220.05 117.21 217.81 117.69 C 215.77 119.96 215.64 124.13 218.08 126.17 C 220.33 126.71 222.70 126.30 224.98 126.80 C 221.90 129.70 215.93 129.36 213.95 125.31 C 212.78 121.95 213.36 117.76 216.54 115.67 Z" />
</g>
</svg>
