<?xml version="1.0" encoding="utf-8"?>
<!-- Generator: Adobe Illustrator 26.0.3, SVG Export Plug-In . SVG Version: 6.00 Build 0)  -->
<svg version="1.1" id="Layer_1" xmlns="http://www.w3.org/2000/svg" xmlns:xlink="http://www.w3.org/1999/xlink" x="0px" y="0px"
	 viewBox="0 0 250 250" style="enable-background:new 0 0 250 250;" xml:space="preserve">
<style type="text/css">
	.st0{fill:#FEFEFE;}
	.st1{fill:#D3D3D3;}
	.st2{fill:#717071;}
	.st3{fill:#005600;}
	.st4{fill:#298D2F;}
	.st5{fill:#007400;}
	.st6{fill:#030300;}
	.st7{fill:#FFF100;}
	.st8{fill:#E90000;}
</style>
<g id="_x23_fefefeff">
	<path class="st0" d="M107.1,18.3c18.5-2.1,38.1-0.6,55.1,7.6c3,1.1,2.2,4.6,2.6,7.1c-2-0.3-3.9-0.5-5.9-0.9
		c-17.7-6.9-37.4-8.7-56-4.6c-27.5,5.5-52,23.7-65.7,48.1c-2.4-1.3-4.9-2.6-7.3-3.8c3.8-8.3,9.6-15.5,15.9-22.1
		C61.9,32.8,83.8,21.2,107.1,18.3z"/>
</g>
<g id="_x23_d3d3d3ff">
	<path class="st1" d="M83.4,22.5c19.2-7.9,40.6-9.2,60.9-5.7c23,4.3,44.4,16.5,60.1,33.8c9.8,10.3,16.1,23.1,22.8,35.5
		c5.4,0.4,11.4,0.3,15.8,3.9c3.4,2.9,2.8,7.9,2.5,11.9c-0.6,4.4-1.8,8.7-4.2,12.5c-1.5,2.5-4.6,3-7.2,4c-0.9,7.9-0.8,16-2.5,23.9
		c-1.3,5.8-1.7,11.8-4.3,17.2c-3,6.3-5.5,12.8-9,18.8c-12.5,21.8-32.6,39.1-56.1,48c-22.5,8.7-47.9,9.4-70.9,2.4
		c-27.6-8.2-51.3-28-64.7-53.4c-2.5-4.9-6.5-9.1-7.4-14.6c-1.1-6.4-2.8-12.6-3.9-19c-1.2-6.3-0.6-12.8-2.2-19
		c-1.4-4.9-0.2-10,0.4-14.9c1,2.2,3.3,3.2,5.1,4.8c0.8,1.6,0.8,3.3,1.1,5c1.7,13.8,3.6,27.5,5.6,41.2c1.3-0.6,2.7-1.2,4-1.9
		c3.8,5.9,6.5,12.5,10.2,18.5c14.3,23.1,38.5,39.8,65.2,44.8c16.6,2.9,33.9,1.9,49.8-3.6c21.6-7.2,40.3-22.5,52.2-41.9
		c4.2-6.9,7.5-14.4,10.4-22c4.1-10.4,4.3-22,8.4-32.4c1.4-3.6,5-5.6,7.6-8.2c0.2-0.5,0.7-1.6,0.9-2.1c3-6,4-12.7,4.8-19.4
		c-5.9-1.2-11.8-2.7-17.8-3.5c-2.2-0.4-4.5-0.6-6.6-1.5c-2.7-2.9-4-6.8-6-10.2c-7-12.4-16.7-23.3-28.4-31.6
		c-6.6-4.8-13.8-8.4-21.2-11.8c1.9,0.4,3.9,0.6,5.9,0.9c-0.4-2.5,0.3-6-2.6-7.1c-17-8.3-36.5-9.8-55.1-7.6
		c-23.3,2.9-45.2,14.5-61.4,31.4c-6.3,6.6-12,13.8-15.9,22.1c2.4,1.2,4.9,2.5,7.3,3.8c-1.2,1.4-2.5,2.8-3.8,4
		c-7.3-5.8-16.9-6.8-25.9-6.1c5.2-3.1,11.7-1.6,17.5-1.7c3.2-3.5,6.6-6.8,9.4-10.6C46.1,43.7,63.8,30.4,83.4,22.5z"/>
</g>
<g id="_x23_717071ff">
	<path class="st2" d="M102.9,27.5c18.6-4.1,38.3-2.3,56,4.6c7.3,3.4,14.6,7.1,21.2,11.8c11.6,8.2,21.4,19.2,28.4,31.6
		c2,3.4,3.3,7.3,6,10.2c2.1,0.9,4.4,1.1,6.6,1.5c6,0.8,11.9,2.3,17.8,3.5c-0.7,6.6-1.8,13.3-4.8,19.4c0.9-6.4,2.5-12.7,3.5-19.1
		c-10.8-1.9-21.8-3-32.3-6.3c-9.7-21.7-28.9-38.7-51.2-46.7c-13.8-5-28.8-6.7-43.3-4.6c-24,2.8-46.5,16.2-60.9,35.6
		c-3.8,5-7.1,10.5-10,16.1c-2.1-1.9-4.2-3.8-6.6-5.4c1.4-1.3,2.7-2.6,3.8-4C50.8,51.2,75.3,33,102.9,27.5z"/>
	<path class="st2" d="M220.9,121.9c0.5-4,1.5-7.8,2.7-11.6c3.2,0.6,6.4,1.2,9.6,1.8c-2.7,2.6-6.2,4.6-7.6,8.2
		c-4.1,10.5-4.2,22-8.4,32.4c-2.9,7.6-6.1,15-10.4,22c-11.9,19.4-30.5,34.7-52.2,41.9c-15.9,5.5-33.3,6.4-49.8,3.6
		c-26.8-4.9-51-21.6-65.2-44.8c-3.8-6-6.4-12.6-10.2-18.5c2.1-1,4-2.2,6-3.5c3.8,5.5,6,11.9,9.5,17.6c10.8,17.8,27.8,31.6,47.4,38.6
		c18.9,6.8,40.1,7.1,59.2,0.7c27.8-8.9,50.5-32.1,58.9-60c1.7,0.2,3.5,0.3,5.2,0.4C217.7,141.2,219.8,131.7,220.9,121.9z"/>
</g>
<g id="_x23_005600ff">
	<path class="st3" d="M110.8,33.3c14.5-2.1,29.5-0.5,43.3,4.6c22.3,8,41.5,25.1,51.2,46.7c-1.7,0.8-3.3,1.6-5,2.4
		c-2.4-9.2-8.2-16.9-14.4-23.9c-12.2-13.8-29.8-21.9-47.8-25.1c-9.5-1.6-19.3-2.5-28.9-1c7.4,3.2,15.5,3.8,23,6.7
		c-2.7,0.1-5.4,0.4-8.1,0.6c0,3.9,0,7.7,0,11.6c4.8,0.3,9.6,0.3,14.4,0.1c0-3.3,0.1-6.7,0.1-10c0.4,0.2,1.1,0.5,1.5,0.7
		c0.5,3.1,0.8,6.2,1.1,9.2c4.4,0.8,8.9,1,13.4,1c0.2-0.7,0.5-2.2,0.7-2.9c2.7,1.6,5.3,3.3,8,5c-1.8,0.2-3.6,0.5-5.4,0.7
		c-0.1,4.1,0,8.2,0.2,12.3c4.2,0.3,8.4,0.5,12.6,0.6c0.5-2.3,1-4.6,1.5-6.8c6,5.4,11.5,11.3,16.9,17.3c-5.4,0.2-10.6,1.9-15.2,4.7
		c-6.6,3.9-14.3,4.5-21.6,6.3c-3.6,0.8-7,2.2-10.6,3.3c-4.7,1.3-9.7,1.4-14.5,1.7c2,12.3,5.4,25.6-0.2,37.5c-1.9-1-4.7-1.4-5.3-3.9
		c-2.2-6.4-0.9-13.3,0.4-19.7c-0.3,7.1-0.6,14.4,1.2,21.4c0.5-2.8,1-5.5,1.5-8.3c1.5-0.5,3-0.9,4.6-1.4c-0.2-0.9-0.4-1.7-0.7-2.6
		c-1.5-0.2-2.9-0.4-4.4-0.6c-0.3-4.5-0.5-9-0.6-13.5c-0.5,1.3-1,2.7-1.4,4c0.6-3.8,1-7.7,1.9-11.5c4.3-3.5,10.2-3.3,15.4-3.7
		c0-2.1,0-4.3,0-6.4c-5-0.5-10-0.6-15-0.3c-0.3,2.2-0.5,4.4-0.8,6.6c-0.5,0.1-1.5,0.4-2,0.5c0.1-2.4,0.1-4.7,0.2-7.1
		c-5.1-0.3-10.3-0.3-15.4,0.3c1,1.5,2,3,3.2,4.4c-1.6,1.7-3.2,3.4-4.8,5.1c-5-4.8-10.5-10.3-17.8-10.7c-4.9-0.6-9.2,2.3-13.8,3.1
		c-4-1.1-7.5-3.7-11.5-5.1c3,0.3,6.1,0.5,9.1,0.7c0.7-4.3,1.2-8.6,1.3-12.9c-4.3,0.2-8.6,0.7-12.9,1.3c0,3.6,0.1,7.1,0.5,10.7
		c-5.1-0.7-10.2,0.1-15.3,0.3c-1.8,0.2-3.2-1.1-4.5-2.2c2.9-5.6,6.2-11.1,10-16.1C64.3,49.5,86.7,36.1,110.8,33.3 M78.8,47.8
		c-2.8,2.1-3,5.9-3.8,9c4.6,0.4,9.3,0.3,13.9-0.8c0.5-4,0.7-8,0.3-12C85.6,45,81.8,45.6,78.8,47.8 M92.2,44.3
		c-0.7,3.8-1.1,7.7-1.2,11.6c4.6,0.3,9.3,0.3,13.9-0.1c0.6-3.9,0.9-7.8,1-11.7C101.4,43.9,96.8,44,92.2,44.3 M108.1,44.1
		c-0.3,3.9-0.3,7.8-0.1,11.7c4.7,0.2,9.3,0.2,14,0c0.2-3.9,0.2-7.8,0-11.7C117.3,43.9,112.7,43.8,108.1,44.1 M91.2,59
		c-0.7,4.2-1,8.4-0.9,12.7c4.9,0,9.8-0.3,14.6-0.7c0.3-4.2,0.3-8.5,0-12.8C100.3,57.8,95.7,58,91.2,59 M108.1,58.1
		c-0.5,4.2-0.7,8.4-0.8,12.6c4.8,0.7,9.7,0.7,14.6,0.2c0.3-4.2,0.2-8.4-0.2-12.6C117.2,57.9,112.6,57.8,108.1,58.1 M124.3,58.3
		c-0.3,4.2-0.4,8.4-0.2,12.6c4.9,0.4,9.8,0.5,14.8,0c0.1-4,0.1-8-0.2-11.9C134,58,129.2,57.8,124.3,58.3 M75.4,59.4
		c-0.6,4.2-0.7,8.5-0.4,12.7c4.3,0.2,8.6,0.2,12.9-0.2c0.6-4.2,0.9-8.5,1.1-12.8C84.4,58.7,79.9,58.9,75.4,59.4 M141.1,59
		c-0.2,4-0.1,8,0.1,12c4.8,1,9.7,1.3,14.6,0.9c-0.2-4.2-0.5-8.5-0.9-12.7C150.2,58.8,145.6,58.8,141.1,59 M61,63
		c-1.5,3.4-1,7.3-1,11c4-0.2,7.9-0.6,11.8-1.2c0.7-4.2,1.1-8.5,1.2-12.8C68.9,60.2,64,59.6,61,63 M74.2,75.2
		c-0.3,4.3-0.3,8.6-0.1,12.9c4.3,0.9,8.6,0.5,12.8-0.3c1-4.5,1.3-9.1,1.1-13.7C83.3,74.2,78.8,74.6,74.2,75.2 M90.2,74.1
		c-0.4,4.5-0.3,9,0.1,13.5c4.8,0.4,9.6,0.4,14.3,0c0.3-4.5,0.4-9.1,0.2-13.6C99.9,73.7,95.1,73.8,90.2,74.1 M107.2,74.1
		c-0.5,4.5-0.4,9.1,0.1,13.6c4.8,0.5,9.6,0.5,14.4,0c0.5-4.5,0.6-9.1,0.2-13.6C117,73.6,112.1,73.6,107.2,74.1 M124.2,74
		c-0.2,4.5-0.2,9.1,0.2,13.6c4.9,0.5,9.7,0.6,14.6,0.3c0.4-4.6,0.3-9.2-0.1-13.8C134,73.6,129.1,73.6,124.2,74 M141.2,74.1
		c-0.2,4.5,0,9,0.3,13.5c4.8,0.7,9.6,0.8,14.5,0.3c0.3-4.6,0.2-9.1-0.2-13.7C151,73.9,146.1,73.8,141.2,74.1 M158,75
		c0,4.3,0.4,8.7,1.1,12.9c4,0.6,8.2,1.6,12.3,0.5c1.6-4.3,0.7-8.9,0.5-13.3C167.3,74.7,162.7,74.6,158,75z"/>
	<path class="st3" d="M181.3,109.4c1.8-2.5,6.9-3.3,8.3,0c0,2.2-0.7,4.4-1.1,6.6c5.6,0.6,11.1,1.6,16.4,3.3
		c-0.6,2.9-1.2,5.9-1.8,8.8c-2.4-2.3-4.6-4.9-7.7-6.4c-4.3-2.3-9.4-3.5-13-7C180.9,113.3,181,111.2,181.3,109.4z"/>
	<path class="st3" d="M86.2,109.5c6,0.1,8.9,7.1,7.4,12.3c-0.5,3.7-3.9,8-8,6.5c-5.1-2.7-6.7-9.5-4.8-14.7
		C81.7,111.5,83.8,109.8,86.2,109.5z"/>
	<path class="st3" d="M169,122.4c5.3,4,11.8,5.8,17.5,9.2c1.3,1,3.5,2.1,3.1,4.1c-0.8,1-1.8,2.5-3.3,1.8c-3.7-0.7-3.5-5.8-6.7-7.2
		c-3.3-1.5-6.8-2.5-10.2-3.6C169.3,125.2,169.2,123.8,169,122.4z"/>
	<path class="st3" d="M145.7,132.1c0.8,6.7,1.4,13.4,2.2,20.1c6.8-1.1,13.3-3.4,19.9-5.4c5-1.7,9.6,1.8,14.4,2.9
		c4.8,1.4,9.6-0.3,14.2-1c4.7-0.8,9.2,1.1,13.8,1.8c-8.3,28-31.1,51.1-58.9,60c-19.1,6.4-40.3,6.1-59.2-0.7
		c-19.6-6.9-36.6-20.8-47.4-38.6c-3.5-5.7-5.7-12.1-9.5-17.6c1.9-1.2,3.9-2.6,6.3-2.3c6.5,0.6,12.9,2.4,19.4,1.8
		c4.3-0.4,7.8-3.3,11.3-5.6c4.9,2.7,10.1,5.9,15.9,5.9c4.8-0.3,9.3-2.3,13.7-4.1c1.5,0.9,2.9,1.8,4.4,2.6c1.4-1.9,2.8-3.8,4.2-5.7
		c6.1,4.8,14.1,9.6,22,6.3C140.9,149.3,143.6,139.9,145.7,132.1 M190.1,158.2c-0.9,4.3-1.3,8.6-1,13c3.4-0.4,6.6-1.2,9.8-2.4
		c0.9-3.8,1.5-7.6,1.8-11.6C197.1,157.4,193.6,157.7,190.1,158.2 M175.1,159.2c-0.7,4.3-1,8.6-1.1,12.9c3.9-0.1,8.3,0.9,11.9-1.2
		c2.2-3.8,1.1-8.5,1-12.7C183,158.4,179,158.7,175.1,159.2 M58.3,159.3c-0.1,3.9-1.1,8.5,1.5,11.8c3.8,1.8,8.1,0.8,12.1,0.8
		c-0.2-4.3-0.6-8.6-1.2-12.8C66.6,158.9,62.4,159,58.3,159.3 M73.9,159.1c-0.2,4.3-0.2,8.7,0.2,13c4.6,1,9.2,1.3,13.9,0.9
		c0-4.6-0.3-9.1-1.2-13.6C82.5,159.1,78.2,159,73.9,159.1 M159.1,159.3c-0.9,4.5-1.2,9.1-1,13.7c4.5,0.3,9.1,0.2,13.6-0.4
		c0.6-4.5,0.7-9.1,0.4-13.6C167.7,158.9,163.4,159,159.1,159.3 M90.1,160c-0.3,4.3-0.2,8.6,0.1,12.9c4.8,0.9,9.6,1.1,14.5,0.8
		c0.3-4.5,0.3-9.1,0.1-13.6C99.9,159.7,95,159.7,90.1,160 M107.1,160.1c-0.4,4.5-0.3,9.1,0.2,13.5c4.8,0.6,9.6,0.6,14.4,0.1
		c0.5-4.4,0.5-8.9,0-13.4C116.8,159.8,111.9,159.6,107.1,160.1 M124.3,160.4c-0.5,4.5-0.6,9-0.2,13.5c4.8,0.4,9.7,0.3,14.6-0.2
		c0.5-4.5,0.6-9,0.2-13.5C134.1,160,129.2,160.1,124.3,160.4 M141.4,160.3c-0.4,4.5-0.4,8.9,0,13.4c4.8,0.4,9.5,0.4,14.3-0.1
		c0.5-4.5,0.6-9.1,0.3-13.6C151.1,159.6,146.2,159.7,141.4,160.3 M174.2,175c-0.7,4.2-1,8.4-0.9,12.7c3.5-0.4,7.4,0.1,10.5-1.9
		c2.9-3.2,2-7.9,2.3-11.8C182.1,173.9,178.1,174.2,174.2,175 M74.3,175.1c0.3,3.9,0.6,7.9,1.1,11.8c4.4,1.1,8.9,1.4,13.4,0.9
		c0.1-4.2-0.2-8.4-1-12.5C83.3,175,78.8,174.9,74.3,175.1 M90.3,175.5c-0.1,4.4,0.3,8.8,1.1,13.1c4.5,0.4,9,0.5,13.5,0.3
		c0.2-4.2,0.2-8.5-0.1-12.7C100,175.8,95.2,175.6,90.3,175.5 M158,175.9c-0.4,4.3-0.5,8.7-0.1,13c4.3,0,8.6-0.3,12.9-1.1
		c0.4-4.2,0.5-8.5,0.3-12.8C166.7,174.9,162.3,175.1,158,175.9 M107.3,176.3c-0.5,4.2-0.3,8.5,0.6,12.6c4.5,0.3,9.1,0.6,13.7,0.6
		c0.5-4.4,0.5-8.8,0.1-13.1C116.9,175.9,112.1,175.9,107.3,176.3 M124.3,176.4c-0.5,4.4-0.5,8.9,0,13.3c4.8,0.4,9.5,0.4,14.3,0
		c0.4-4.4,0.4-8.8,0.1-13.2C133.9,176,129.1,176,124.3,176.4 M141.3,176.4c-0.5,4.4-0.6,8.9-0.2,13.4c4.6-0.2,9.2-0.5,13.8-0.9
		c0.4-4.2,0.6-8.4,0.6-12.6C150.8,175.8,146,175.8,141.3,176.4 M157.3,191.4c-0.5,3.8-0.6,7.7-0.2,11.6c4-0.9,8.5-1.3,11.6-4.3
		c1.9-2.3,1.6-5.6,2-8.4C166.2,190.4,161.7,190.8,157.3,191.4 M91.3,191.3c0.3,3,0.1,6.2,1.6,8.9c3.8,2.7,8.8,1.9,13.1,1.9
		c-0.3-3.6-0.7-7.1-1.3-10.6C100.2,190.7,95.7,190.6,91.3,191.3 M108,191.1c-0.3,3.8-0.2,7.7,0.3,11.5c4.5,0.6,9.1,0.7,13.6,0.3
		c0.1-3.6,0.1-7.2,0-10.9C117.3,191.3,112.6,191,108,191.1 M140.9,192.1c-0.9,3.8-1,7.7-0.6,11.6c4.5,0.3,8.9,0.2,13.4-0.2
		c1.3-4,1.5-8.1,1-12.2C150.1,191.2,145.5,191.5,140.9,192.1 M124.1,192c-0.3,3.9-0.2,7.8,0.2,11.6c4.5,0.3,9,0.3,13.4,0
		c0.5-3.8,0.7-7.8,0.3-11.6C133.4,191.7,128.7,191.6,124.1,192z"/>
</g>
<g id="_x23_298d2fff">
	<path class="st4" d="M109.3,37c9.6-1.6,19.3-0.7,28.9,1c17.9,3.2,35.5,11.3,47.8,25.1c6.2,7,12,14.7,14.4,23.9
		c-3.7-1.7-7.4-3.3-11.3-4c-5.4-6-10.9-11.9-16.9-17.3c-2.8-2.5-5.7-4.7-8.8-6.7c-2.6-1.7-5.3-3.3-8-5c-4.8-3-10-5.2-15.2-7.3
		c-0.4-0.2-1.1-0.5-1.5-0.7c-2.1-0.9-4.2-1.6-6.3-2.3C124.8,40.8,116.6,40.2,109.3,37z"/>
</g>
<g id="_x23_007400ff">
	<path class="st5" d="M78.8,47.8c3-2.2,6.8-2.8,10.3-3.8c0.4,4,0.2,8-0.3,12c-4.5,1.1-9.2,1.3-13.9,0.8C75.8,53.7,76,50,78.8,47.8z"
		/>
	<path class="st5" d="M92.2,44.3c4.6-0.3,9.2-0.4,13.8-0.2c0,3.9-0.4,7.9-1,11.7c-4.6,0.4-9.3,0.4-13.9,0.1
		C91.1,52,91.5,48.1,92.2,44.3z"/>
	<path class="st5" d="M108.1,44.1c4.6-0.2,9.3-0.2,13.9,0.1c0.2,3.9,0.2,7.8,0,11.7c-4.7,0.2-9.3,0.2-14,0
		C107.8,51.9,107.8,48,108.1,44.1z"/>
	<path class="st5" d="M124.1,44.3c2.7-0.2,5.4-0.5,8.1-0.6c2.1,0.7,4.2,1.4,6.3,2.3c-0.1,3.3-0.1,6.7-0.1,10
		c-4.8,0.2-9.6,0.2-14.4-0.1C124.1,52,124.1,48.2,124.1,44.3z"/>
	<path class="st5" d="M140.1,46.7c5.2,2.1,10.4,4.3,15.2,7.3c-0.2,0.7-0.6,2.2-0.7,2.9c-4.5,0.1-8.9-0.2-13.4-1
		C140.9,52.8,140.6,49.7,140.1,46.7z"/>
	<path class="st5" d="M91.2,59c4.5-1,9.1-1.2,13.7-0.8c0.2,4.2,0.2,8.5,0,12.8c-4.9,0.5-9.7,0.7-14.6,0.7
		C90.2,67.4,90.6,63.2,91.2,59z"/>
	<path class="st5" d="M108.1,58.1c4.5-0.4,9.1-0.3,13.6,0.2c0.4,4.2,0.6,8.4,0.2,12.6c-4.9,0.5-9.8,0.5-14.6-0.2
		C107.4,66.5,107.6,62.3,108.1,58.1z"/>
	<path class="st5" d="M124.3,58.3c4.8-0.5,9.7-0.4,14.4,0.7c0.2,4,0.3,8,0.2,11.9c-4.9,0.4-9.8,0.4-14.8,0
		C124,66.7,124.1,62.5,124.3,58.3z"/>
	<path class="st5" d="M75.4,59.4c4.5-0.5,9-0.6,13.6-0.3c-0.1,4.3-0.5,8.5-1.1,12.8c-4.3,0.4-8.6,0.5-12.9,0.2
		C74.7,67.8,74.8,63.6,75.4,59.4z"/>
	<path class="st5" d="M141.1,59c4.6-0.3,9.2-0.2,13.8,0.2c0.4,4.2,0.7,8.4,0.9,12.7c-4.9,0.4-9.8,0.1-14.6-0.9
		C140.9,67,140.9,63,141.1,59z"/>
	<path class="st5" d="M157.8,59.7c1.8-0.2,3.6-0.5,5.4-0.7c3.1,2,6.1,4.2,8.8,6.7c-0.5,2.3-1,4.6-1.5,6.8c-4.2-0.1-8.4-0.3-12.6-0.6
		C157.8,67.8,157.7,63.8,157.8,59.7z"/>
	<path class="st5" d="M61,63c2.9-3.4,7.9-2.8,11.9-3c-0.1,4.3-0.5,8.6-1.2,12.8c-3.9,0.6-7.9,1-11.8,1.2C60.1,70.3,59.5,66.4,61,63z
		"/>
	<path class="st5" d="M74.2,75.2c4.6-0.6,9.2-1,13.8-1.1c0.3,4.6-0.1,9.2-1.1,13.7c-4.2,0.9-8.6,1.2-12.8,0.3
		C73.8,83.8,73.9,79.5,74.2,75.2z"/>
	<path class="st5" d="M90.2,74.1c4.9-0.4,9.8-0.4,14.7-0.1c0.2,4.5,0.1,9.1-0.2,13.6c-4.8,0.4-9.6,0.4-14.3,0
		C89.9,83.1,89.8,78.6,90.2,74.1z"/>
	<path class="st5" d="M107.2,74.1c4.9-0.5,9.8-0.5,14.7,0c0.4,4.5,0.3,9.1-0.2,13.6c-4.8,0.5-9.6,0.5-14.4,0
		C106.8,83.1,106.7,78.6,107.2,74.1z"/>
	<path class="st5" d="M124.2,74c4.9-0.4,9.8-0.4,14.7,0.1c0.4,4.6,0.4,9.2,0.1,13.8c-4.9,0.3-9.8,0.2-14.6-0.3
		C124,83.1,123.9,78.6,124.2,74z"/>
	<path class="st5" d="M141.2,74.1c4.9-0.2,9.8-0.2,14.6,0.1c0.4,4.6,0.4,9.1,0.2,13.7c-4.8,0.5-9.7,0.4-14.5-0.3
		C141.2,83.1,141,78.6,141.2,74.1z"/>
	<path class="st5" d="M59.2,76.3c4.3-0.7,8.5-1.1,12.9-1.3c-0.1,4.3-0.5,8.7-1.3,12.9c-3-0.2-6.1-0.4-9.1-0.7
		c-0.5-0.1-1.5-0.2-2-0.2C59.3,83.4,59.2,79.9,59.2,76.3z"/>
	<path class="st5" d="M158,75c4.6-0.4,9.3-0.3,13.9,0.2c0.2,4.4,1.1,9-0.5,13.3c-4.1,1.1-8.2,0.1-12.3-0.5
		C158.4,83.6,158.1,79.3,158,75z"/>
	<path class="st5" d="M106.4,90.4c5.1-0.6,10.3-0.6,15.4-0.3c-0.1,2.3-0.1,4.7-0.2,7.1c0.5-0.1,1.5-0.4,2-0.5
		c0.3-2.2,0.6-4.4,0.8-6.6c5-0.3,10-0.2,15,0.3c0,2.1,0,4.3,0,6.4c-5.2,0.4-11.1,0.2-15.4,3.7c-4.7-2.1-9.6-3.9-14.5-5.7
		C108.4,93.4,107.4,91.9,106.4,90.4z"/>
	<path class="st5" d="M122.2,112c0.4-1.4,0.9-2.7,1.4-4c0.1,4.5,0.3,9,0.6,13.5c1.5,0.2,2.9,0.4,4.4,0.6c0.2,0.8,0.4,1.7,0.7,2.6
		c-1.5,0.5-3,0.9-4.6,1.4c-0.4,2.8-0.9,5.5-1.5,8.3c-1.8-7-1.5-14.2-1.2-21.4L122.2,112z"/>
	<path class="st5" d="M190.1,158.2c3.5-0.5,7-0.9,10.6-0.9c-0.3,3.9-1,7.8-1.8,11.6c-3.2,1.2-6.4,2-9.8,2.4
		C188.8,166.9,189.1,162.5,190.1,158.2z"/>
	<path class="st5" d="M175.1,159.2c3.9-0.5,7.9-0.8,11.8-1c0,4.2,1.2,8.9-1,12.7c-3.5,2.1-7.9,1.1-11.9,1.2
		C174.1,167.8,174.4,163.4,175.1,159.2z"/>
	<path class="st5" d="M58.3,159.3c4.1-0.3,8.3-0.4,12.5-0.2c0.5,4.3,0.9,8.5,1.2,12.8c-4,0-8.4,0.9-12.1-0.8
		C57.2,167.8,58.2,163.2,58.3,159.3z"/>
	<path class="st5" d="M73.9,159.1c4.3-0.1,8.6,0,12.9,0.2c0.8,4.5,1.2,9,1.2,13.6c-4.6,0.4-9.3,0.2-13.9-0.9
		C73.7,167.8,73.7,163.4,73.9,159.1z"/>
	<path class="st5" d="M159.1,159.3c4.3-0.3,8.6-0.4,13-0.3c0.3,4.5,0.2,9.1-0.4,13.6c-4.5,0.6-9.1,0.7-13.6,0.4
		C157.9,168.4,158.2,163.8,159.1,159.3z"/>
	<path class="st5" d="M90.1,160c4.9-0.3,9.8-0.3,14.7,0.1c0.2,4.5,0.2,9.1-0.1,13.6c-4.8,0.3-9.7,0.1-14.5-0.8
		C89.8,168.6,89.8,164.3,90.1,160z"/>
	<path class="st5" d="M107.1,160.1c4.9-0.4,9.8-0.3,14.6,0.2c0.5,4.4,0.5,8.9,0,13.4c-4.8,0.6-9.6,0.5-14.4-0.1
		C106.7,169.1,106.6,164.6,107.1,160.1z"/>
	<path class="st5" d="M124.3,160.4c4.9-0.3,9.7-0.4,14.6-0.2c0.4,4.5,0.3,9-0.2,13.5c-4.8,0.5-9.7,0.6-14.6,0.2
		C123.8,169.4,123.8,164.9,124.3,160.4z"/>
	<path class="st5" d="M141.4,160.3c4.8-0.6,9.7-0.7,14.5-0.3c0.3,4.5,0.2,9.1-0.3,13.6c-4.8,0.4-9.6,0.4-14.3,0.1
		C141,169.2,141,164.8,141.4,160.3z"/>
	<path class="st5" d="M174.2,175c3.9-0.8,7.9-1.2,11.9-1.1c-0.2,3.9,0.6,8.6-2.3,11.8c-3.1,2-7,1.5-10.5,1.9
		C173.2,183.4,173.5,179.2,174.2,175z"/>
	<path class="st5" d="M74.3,175.1c4.5-0.2,9-0.1,13.5,0.2c0.8,4.1,1,8.3,1,12.5c-4.5,0.5-9,0.2-13.4-0.9
		C74.9,182.9,74.6,179,74.3,175.1z"/>
	<path class="st5" d="M90.3,175.5c4.8,0.1,9.7,0.4,14.5,0.7c0.3,4.2,0.3,8.5,0.1,12.7c-4.5,0.2-9,0.1-13.5-0.3
		C90.6,184.3,90.2,179.9,90.3,175.5z"/>
	<path class="st5" d="M158,175.9c4.3-0.9,8.7-1.1,13.1-0.8c0.2,4.3,0.2,8.5-0.3,12.8c-4.3,0.8-8.6,1.1-12.9,1.1
		C157.6,184.6,157.6,180.3,158,175.9z"/>
	<path class="st5" d="M107.3,176.3c4.8-0.4,9.6-0.4,14.3,0.1c0.4,4.4,0.4,8.8-0.1,13.1c-4.6,0-9.1-0.3-13.7-0.6
		C107,184.8,106.8,180.5,107.3,176.3z"/>
	<path class="st5" d="M124.3,176.4c4.8-0.4,9.6-0.4,14.4,0c0.3,4.4,0.3,8.8-0.1,13.2c-4.8,0.4-9.5,0.4-14.3,0
		C123.8,185.2,123.8,180.8,124.3,176.4z"/>
	<path class="st5" d="M141.3,176.4c4.7-0.6,9.5-0.6,14.2-0.1c-0.1,4.2-0.3,8.4-0.6,12.6c-4.6,0.4-9.2,0.7-13.8,0.9
		C140.7,185.3,140.8,180.8,141.3,176.4z"/>
	<path class="st5" d="M157.3,191.4c4.4-0.6,8.9-1,13.4-1.1c-0.4,2.8-0.1,6.1-2,8.4c-3.1,2.9-7.6,3.4-11.6,4.3
		C156.7,199.2,156.8,195.3,157.3,191.4z"/>
	<path class="st5" d="M91.3,191.3c4.4-0.7,8.9-0.6,13.4,0.1c0.6,3.5,1.1,7.1,1.3,10.6c-4.4,0-9.3,0.8-13.1-1.9
		C91.3,197.5,91.6,194.2,91.3,191.3z"/>
	<path class="st5" d="M108,191.1c4.6-0.1,9.3,0.2,13.8,1c0.1,3.6,0.1,7.3,0,10.9c-4.5,0.4-9.1,0.2-13.6-0.3
		C107.8,198.8,107.6,194.9,108,191.1z"/>
	<path class="st5" d="M140.9,192.1c4.6-0.6,9.2-0.9,13.8-0.9c0.5,4.1,0.3,8.3-1,12.2c-4.4,0.4-8.9,0.5-13.4,0.2
		C139.9,199.8,140.1,195.9,140.9,192.1z"/>
	<path class="st5" d="M124.1,192c4.7-0.4,9.3-0.3,14,0c0.3,3.9,0.2,7.8-0.3,11.6c-4.5,0.3-9,0.3-13.4,0
		C123.9,199.8,123.8,195.9,124.1,192z"/>
</g>
<g id="_x23_030300ff">
	<path class="st6" d="M7.4,73.5c9-0.7,18.6,0.4,25.9,6.1c2.3,1.6,4.5,3.5,6.6,5.4c1.3,1.1,2.7,2.4,4.5,2.2c5.1-0.1,10.2-1,15.3-0.3
		c0.5,0.1,1.5,0.2,2,0.2c4,1.4,7.4,4,11.5,5.1c4.7-0.8,8.9-3.7,13.8-3.1c7.3,0.4,12.8,5.9,17.8,10.7c1.6-1.7,3.2-3.4,4.8-5.1
		c4.9,1.8,9.8,3.6,14.5,5.7c-0.9,3.8-1.3,7.6-1.9,11.5l-0.2,0.9c-1.3,6.4-2.7,13.3-0.4,19.7c0.6,2.5,3.4,2.9,5.3,3.9
		c5.6-11.9,2.2-25.2,0.2-37.5c4.9-0.3,9.8-0.3,14.5-1.7c3.5-1,7-2.4,10.6-3.3c7.3-1.8,15-2.4,21.6-6.3c4.6-2.8,9.8-4.5,15.2-4.7
		c3.9,0.8,7.6,2.4,11.3,4c1.7-0.8,3.3-1.6,5-2.4c10.5,3.3,21.5,4.4,32.3,6.3c-1,6.4-2.6,12.7-3.5,19.1c-0.2,0.5-0.7,1.6-0.9,2.1
		c-3.2-0.6-6.4-1.2-9.6-1.8c-1.2,3.8-2.2,7.7-2.7,11.6c-1.1,9.7-3.2,19.3-5.4,28.8c-1.7-0.1-3.5-0.2-5.2-0.4
		c-4.6-0.7-9.1-2.6-13.8-1.8c-4.7,0.7-9.5,2.5-14.2,1c-4.7-1.1-9.3-4.6-14.4-2.9c-6.6,2-13.1,4.3-19.9,5.4
		c-0.8-6.7-1.4-13.4-2.2-20.1c-2.1,7.9-4.8,17.3-13.2,20.4c-7.9,3.3-15.9-1.5-22-6.3c-1.4,1.9-2.8,3.8-4.2,5.7
		c-1.5-0.9-2.9-1.8-4.4-2.6c-4.4,1.8-8.9,3.8-13.7,4.1c-5.8,0-11-3.2-15.9-5.9c-3.5,2.3-6.9,5.2-11.3,5.6c-6.5,0.6-13-1.2-19.4-1.8
		c-2.4-0.3-4.4,1.1-6.3,2.3c-2,1.2-3.9,2.4-6,3.5c-1.3,0.6-2.6,1.3-4,1.9c-1.9-13.7-3.9-27.4-5.6-41.2c-0.3-1.7-0.3-3.4-1.1-5
		c-1.7-1.5-4.1-2.5-5.1-4.8C11.4,96.4,9.9,84.9,7.4,73.5 M12,76.4c0.7,10.3,3.7,20.4,4.7,30.7c1.7,1,4.5,1.1,5.4,3.1
		c1.8,14.6,3.9,29.1,5.7,43.7c14.6-6.5,23-23.3,21.2-38.9c-1-10.7-5.4-21.3-13.1-28.9C29.6,80,20.9,76,12,76.4 M179.4,87.3
		c-3.1,1.4-7.3,3.6-6.9,7.6c-0.5,8.7,2.6,17.5-0.1,26c5.6,5.2,14.1,5.9,19.3,11.5c1.6,1.6,1.3,4.4-0.4,5.8c-1.9,2.1-5.1,1.9-7.6,1.1
		c-3.2-1.5-3-6.4-6.6-7.3c-1.2-0.4-2.4-0.8-3.6-1.2c0.1,3.6-0.1,7.1,0.3,10.7c0.1,1.2,1.1,2,2,2.7c5.9,4,14.1,4.5,20.3,0.8
		c3.2-1.8,5.6-5.3,5.5-9.1c0.3-5.3-3.3-10.3-8.2-12.3c-5.2-2.4-11.5-4.1-14.6-9.3c-0.7-2.5-0.9-5.6,0.9-7.6c2.4-2.9,7-2.9,10.3-1.6
		c3.1,1.9,2.4,5.9,2.4,8.9c3.9,0.5,7.7,1.2,11.6,1.8c2.2-8.2,1.9-18-4.2-24.5C194.8,85.6,186.1,84.2,179.4,87.3 M203.1,88.3
		c0.9,5.2,3.9,9.8,4.7,15c1.4,0.4,2.7,0.8,4.1,1.2c-2.1,10.9-6.4,21.3-7.8,32.4c-0.4,3-1.8,5.8-3,8.6c4.1,1,8.2,1.9,12.3,2.2
		c1.4-8.5,3.1-17,4.9-25.5c1-5,1.5-10.1,3.3-14.9c3.1,0.7,6.3,1.3,9.4,1.7c1.8-5.3,3.3-10.8,4-16.4
		C224.3,91.7,213.9,88.3,203.1,88.3 M44.1,90.4c5.7,9.8,9.6,21.2,8.2,32.6c-0.8,6.2-2.2,12.4-5.7,17.7c-1.3,2.3-3.3,4.5-3.2,7.3
		c0.4,0.3,1.2,0.8,1.7,1.1c5.6,0.6,11.3,1.6,16.9,1.1c7-1.7,10.8-10.2,8.4-16.8c-0.8-3.5-3.3-6.1-5.8-8.5
		c5.2-4.4,10.5-9.9,10.8-17.1c0.5-4.4-1.1-9-4.4-12.1C64.3,88.7,53.2,88.2,44.1,90.4 M75.3,95.7c2.5,4.6,3.9,9.8,3,15.1
		c2.3-1.9,4.6-4.5,7.8-4.6c4.7-0.5,8.5,3.6,9.8,7.7c1.6,5.5,0.8,12.3-3.9,16.1c-3,2.5-7.6,1.7-10.3-0.7c-4.2-3.4-5.3-9.1-5.2-14.3
		c-2,3.6-4.6,6.9-7.4,9.9c1.6,2.4,3.3,4.8,4.2,7.5c1,3.7-0.1,7.6,0.6,11.4c7,8.1,20.6,8,27.9,0.4c1.3,0.9,2.7,1.9,4,2.8
		c1.8-3.2,3.5-6.4,5-9.7c-1.1-1.3-2.3-2.5-3.2-3.9c-0.2-3.2,0.9-6.3,0.8-9.5c-0.4-6.4-1.4-13-4.5-18.8c-3.6-7-10.6-13.2-18.8-12.8
		C81.4,92.3,78.3,94.1,75.3,95.7 M146.2,97.6c-0.9,5.4-1.3,10.9-1.6,16.4c2.8,2.2,3.6,5.6,3.7,9c0.3,8.7,1.2,17.4,1.7,26.1
		c7-1.8,14.1-3.6,20.7-6.4c1.4-3,0.1-6.6-0.1-9.8c-3.2,1.1-6.3,2.3-9.5,3.5c0.1-2,0.1-4,0.2-6c2.3-1.6,4.7-3.3,5.4-6.2
		c-2.1,0.2-4.1,0.4-6.2,0.7c-0.3-2.8-0.7-5.6-1.2-8.4c3.8,0,7.7,0,11.5,0c-0.3-7.8-0.5-15.6-1.3-23.3
		C161.7,94.3,154,96.2,146.2,97.6 M110,99c-0.6,3.3-2,6.6-1.1,9.9c1.7,6.9,3.1,14.1,1.9,21.2c-0.8,2.9,2.2,4.8,3.7,6.8
		c-0.8,1.7-1.5,3.5-2.2,5.2c2.6,2.9,5.4,6.1,9.4,7.1c3.2,0.8,6.6,0.9,9.7,0c5.8-2.6,8.5-9,10-14.8c1.2-5.9,2.5-12,1.2-18
		c-0.7-5.1,0-10.2,0.2-15.2c-3.9,0.1-7.8,0.2-11.7,0.2c1.7,9.6,2.1,19.4,1.2,29.1c-0.7,3.3-1.8,7.5-5.4,8.6
		c-4.6,0.9-8.4-3.4-9.2-7.5c-1.2-9.7,0.1-19.6,2.8-29C117.1,101.1,113.7,99.8,110,99 M181.3,109.4c-0.3,1.8-0.4,4,1.1,5.2
		c3.6,3.5,8.6,4.8,13,7c3,1.5,5.3,4,7.7,6.4c0.6-2.9,1.2-5.9,1.8-8.8c-5.3-1.7-10.9-2.7-16.4-3.3c0.5-2.2,1.1-4.4,1.1-6.6
		C188.2,106.1,183.1,106.9,181.3,109.4 M86.2,109.5c-2.4,0.2-4.5,1.9-5.4,4.1c-1.9,5.2-0.2,11.9,4.8,14.7c4.1,1.5,7.4-2.9,8-6.5
		C95.1,116.6,92.2,109.7,86.2,109.5 M169,122.4c0.1,1.4,0.3,2.8,0.4,4.2c3.4,1.2,6.9,2.1,10.2,3.6c3.2,1.4,3,6.5,6.7,7.2
		c1.5,0.7,2.5-0.8,3.3-1.8c0.4-2-1.8-3.1-3.1-4.1C180.9,128.2,174.4,126.4,169,122.4z"/>
	<path class="st6" d="M54.4,100.7c6.1,3.3,6.2,14.1-0.9,16.2C53.5,111.5,53.3,106,54.4,100.7z"/>
	<path class="st6" d="M29.3,108.3c3.7-0.1,7.7,1.2,9.6,4.7c2.9,5.7-0.8,13.3-7.2,14.1C30.9,120.9,29.9,114.6,29.3,108.3z"/>
	<path class="st6" d="M52.7,131c2.5,1.3,5.1,3.1,5.8,6.1c0.5,3.1-2.1,5.5-4.8,6.2C53,139.1,52.4,135.1,52.7,131z"/>
</g>
<g id="_x23_fff100ff">
	<path class="st7" d="M12,76.4C20.9,76,29.6,80,35.9,86C43.6,93.7,48,104.3,49,115c1.8,15.6-6.6,32.4-21.2,38.9
		c-1.8-14.6-3.9-29.1-5.7-43.7c-0.9-2-3.6-2.1-5.4-3.1C15.7,96.8,12.7,86.7,12,76.4 M29.3,108.3c0.5,6.3,1.5,12.5,2.3,18.8
		c6.5-0.8,10.2-8.4,7.2-14.1C37,109.6,33.1,108.2,29.3,108.3z"/>
	<path class="st7" d="M44.1,90.4c9.1-2.1,20.2-1.7,27.1,5.4c3.3,3.1,4.9,7.6,4.4,12.1c-0.4,7.2-5.7,12.7-10.8,17.1
		c2.4,2.4,5,5,5.8,8.5c2.4,6.6-1.4,15.1-8.4,16.8c-5.7,0.6-11.3-0.4-16.9-1.1c-0.4-0.3-1.2-0.8-1.7-1.1c-0.1-2.8,1.9-5,3.2-7.3
		c3.4-5.3,4.9-11.6,5.7-17.7C53.7,111.6,49.8,100.2,44.1,90.4 M54.4,100.7c-1,5.3-0.9,10.8-0.9,16.2C60.6,114.8,60.5,104,54.4,100.7
		 M52.7,131c-0.3,4.1,0.3,8.2,1,12.2c2.7-0.7,5.4-3.1,4.8-6.2C57.8,134.1,55.2,132.3,52.7,131z"/>
</g>
<g id="_x23_e90000ff">
	<path class="st8" d="M179.4,87.3c6.8-3.1,15.4-1.8,20.4,4c6.1,6.5,6.4,16.3,4.2,24.5c-3.9-0.6-7.7-1.2-11.6-1.8
		c0-3.1,0.7-7-2.4-8.9c-3.3-1.3-7.8-1.3-10.3,1.6c-1.8,2-1.6,5.1-0.9,7.6c3.2,5.2,9.4,6.9,14.6,9.3c4.8,2,8.5,7,8.2,12.3
		c0.1,3.8-2.3,7.3-5.5,9.1c-6.2,3.7-14.4,3.2-20.3-0.8c-0.9-0.7-1.9-1.5-2-2.7c-0.4-3.5-0.3-7.1-0.3-10.7c1.2,0.4,2.4,0.7,3.6,1.2
		c3.6,0.9,3.4,5.8,6.6,7.3c2.5,0.8,5.7,0.9,7.6-1.1c1.7-1.4,2-4.2,0.4-5.8c-5.3-5.6-13.8-6.3-19.3-11.5c2.7-8.5-0.4-17.3,0.1-26
		C172,90.9,176.2,88.7,179.4,87.3z"/>
	<path class="st8" d="M203.1,88.3c10.8,0,21.2,3.3,31.9,4.3c-0.7,5.6-2.2,11-4,16.4c-3.2-0.4-6.3-1-9.4-1.7
		c-1.8,4.8-2.2,9.9-3.3,14.9c-1.7,8.5-3.5,17-4.9,25.5c-4.2-0.3-8.3-1.2-12.3-2.2c1.2-2.8,2.5-5.6,3-8.6c1.4-11.1,5.8-21.4,7.8-32.4
		c-1.4-0.4-2.7-0.8-4.1-1.2C207,98.1,204,93.6,203.1,88.3z"/>
	<path class="st8" d="M75.3,95.7c3-1.6,6.2-3.4,9.7-3.2c8.3-0.4,15.3,5.8,18.8,12.8c3.1,5.8,4.1,12.3,4.5,18.8
		c0.2,3.2-1,6.3-0.8,9.5c0.9,1.4,2.1,2.6,3.2,3.9c-1.5,3.3-3.2,6.6-5,9.7c-1.4-0.9-2.7-1.9-4-2.8c-7.3,7.6-21,7.7-27.9-0.4
		c-0.7-3.8,0.4-7.7-0.6-11.4c-0.9-2.8-2.6-5.1-4.2-7.5c2.8-3,5.4-6.2,7.4-9.9c-0.1,5.2,1,10.9,5.2,14.3c2.8,2.4,7.4,3.3,10.3,0.7
		c4.7-3.8,5.5-10.6,3.9-16.1c-1.4-4.1-5.1-8.2-9.8-7.7c-3.2,0-5.5,2.6-7.8,4.6C79.2,105.5,77.8,100.3,75.3,95.7z"/>
	<path class="st8" d="M146.2,97.6c7.8-1.3,15.5-3.2,23.4-4.5c0.7,7.8,0.9,15.5,1.3,23.3c-3.8,0-7.7,0-11.5,0
		c0.4,2.8,0.8,5.6,1.2,8.4c2.1-0.2,4.1-0.5,6.2-0.7c-0.6,2.9-3.1,4.6-5.4,6.2c-0.1,2-0.1,4-0.2,6c3.1-1.2,6.3-2.4,9.5-3.5
		c0.1,3.2,1.4,6.8,0.1,9.8c-6.6,2.8-13.7,4.6-20.7,6.4c-0.6-8.7-1.4-17.4-1.7-26.1c-0.1-3.4-0.9-6.8-3.7-9
		C144.9,108.5,145.3,103,146.2,97.6z"/>
	<path class="st8" d="M110,99c3.6,0.9,7.1,2.1,10.5,3.7c-2.8,9.4-4,19.2-2.8,29c0.9,4.2,4.6,8.5,9.2,7.5c3.6-1.2,4.7-5.3,5.4-8.6
		c0.9-9.7,0.4-19.5-1.2-29.1c3.9,0,7.8-0.1,11.7-0.2c-0.2,5.1-0.9,10.2-0.2,15.2c1.3,6-0.1,12.1-1.2,18c-1.5,5.8-4.1,12.2-10,14.8
		c-3.2,0.9-6.6,0.7-9.7,0c-4-1-6.7-4.2-9.4-7.1c0.7-1.7,1.5-3.5,2.2-5.2c-1.5-2.1-4.4-3.9-3.7-6.8c1.2-7.1-0.2-14.3-1.9-21.2
		C108.1,105.6,109.4,102.2,110,99z"/>
</g>
</svg>
