<?xml version="1.0" encoding="utf-8"?>
<!-- Generator: Adobe Illustrator 26.0.3, SVG Export Plug-In . SVG Version: 6.00 Build 0)  -->
<svg version="1.1" id="Layer_1" xmlns="http://www.w3.org/2000/svg" xmlns:xlink="http://www.w3.org/1999/xlink" x="0px" y="0px"
	 viewBox="0 0 238 250" style="enable-background:new 0 0 238 250;" xml:space="preserve">
<style type="text/css">
	.st0{fill:#CED069;}
	.st1{fill:#886A2B;}
	.st2{fill:#775026;}
	.st3{fill:#DAA349;}
	.st4{fill:#9B8022;}
	.st5{fill:#EAA528;}
	.st6{fill:#D79F3D;}
	.st7{fill:#F6DA8F;}
	.st8{fill:#F6DE8C;}
	.st9{fill:#EFB71F;}
	.st10{fill:#B8BA66;}
	.st11{fill:#EFC35E;}
	.st12{fill:#C08C56;}
	.st13{fill:#E8D9B7;}
	.st14{fill:#C37149;}
	.st15{fill:#82621F;}
	.st16{fill:#B44037;}
	.st17{fill:#44463E;}
	.st18{fill:#3C4358;}
	.st19{fill:#F6CF0B;}
	.st20{fill:#357C71;}
	.st21{fill:#279595;}
	.st22{fill:#2F8780;}
	.st23{fill:#A4AA47;}
	.st24{fill:#A96B4A;}
	.st25{fill:#B45B19;}
	.st26{fill:#4D5478;}
	.st27{fill:#963B27;}
	.st28{fill:#392447;}
	.st29{fill:#E77C40;}
	.st30{fill:#EC5F2C;}
	.st31{fill:#EFB71D;}
	.st32{fill:#305F52;}
	.st33{fill:#F1363F;}
	.st34{fill:#4E2123;}
	.st35{fill:#4C2857;}
	.st36{fill:#7E3C73;}
	.st37{fill:#FA7086;}
	.st38{fill:#DB292E;}
	.st39{fill:#F6D190;}
	.st40{fill:#FBC1CB;}
	.st41{fill:#6F552A;}
	.st42{fill:#252037;}
	.st43{fill:#2E1C39;}
	.st44{fill:#E5BA6B;}
	.st45{fill:#F1E1BD;}
	.st46{fill:#AB7E26;}
	.st47{fill:#EC9F31;}
	.st48{fill:#7F4519;}
	.st49{fill:#AA296E;}
	.st50{fill:#C44A1E;}
	.st51{fill:#F4CC72;}
	.st52{fill:#F6E268;}
	.st53{fill:#491937;}
	.st54{fill:#E8B27C;}
	.st55{fill:#502416;}
	.st56{fill:#702659;}
	.st57{fill:#1E264B;}
	.st58{fill:#F4D464;}
	.st59{fill:#DD6A52;}
	.st60{fill:#463351;}
	.st61{fill:#BF9318;}
	.st62{fill:#EDB21D;}
	.st63{fill:#188978;}
	.st64{fill:#23475D;}
	.st65{fill:#F2C920;}
	.st66{fill:#F2C38D;}
	.st67{fill:#3D5E6D;}
	.st68{fill:#1C160D;}
	.st69{fill:#259A89;}
	.st70{fill:#692350;}
	.st71{fill:#3A2335;}
	.st72{fill:#AE9728;}
	.st73{fill:#47451D;}
	.st74{fill:#14100C;}
	.st75{fill:#134055;}
	.st76{fill:#158986;}
	.st77{fill:#168484;}
	.st78{fill:#157F7D;}
	.st79{fill:#192F4A;}
	.st80{fill:#6E511E;}
	.st81{fill:#64513E;}
	.st82{fill:#5A642A;}
	.st83{fill:#197378;}
	.st84{fill:#0E2634;}
	.st85{fill:#E19845;}
	.st86{fill:#9B721E;}
	.st87{fill:#1F6E74;}
	.st88{fill:#9C2664;}
	.st89{fill:#505A25;}
	.st90{fill:#5F2156;}
	.st91{fill:#42495C;}
	.st92{fill:#5D3B27;}
	.st93{fill:#292652;}
	.st94{fill:#F3D796;}
	.st95{fill:#896422;}
	.st96{fill:#E48857;}
	.st97{fill:#FAEA99;}
	.st98{fill:#D74B6B;}
	.st99{fill:#181D2C;}
	.st100{fill:#EBAF21;}
	.st101{fill:#67748F;}
	.st102{fill:#732758;}
	.st103{fill:#3F8E93;}
	.st104{fill:#19484A;}
	.st105{fill:#0F1D2C;}
	.st106{fill:#542C21;}
	.st107{fill:#9C5087;}
	.st108{fill:#B17EA3;}
	.st109{fill:#2E202D;}
	.st110{fill:#198D7F;}
	.st111{fill:#93275D;}
	.st112{fill:#E2C4D4;}
	.st113{fill:#D7A55B;}
	.st114{fill:#263D50;}
	.st115{fill:#B9FA4C;}
	.st116{fill:#ECFE6D;}
	.st117{fill:#AC2658;}
	.st118{fill:#7B6537;}
	.st119{fill:#7B6842;}
	.st120{fill:#6C334D;}
	.st121{fill:#C0FAC0;}
	.st122{fill:#5B4B73;}
	.st123{fill:#12766F;}
	.st124{fill:#936F23;}
	.st125{fill:#502154;}
	.st126{fill:#28DCA2;}
	.st127{fill:#10384C;}
	.st128{fill:#1B89A3;}
	.st129{fill:#B3FB4F;}
	.st130{fill:#1D7674;}
	.st131{fill:#1D6288;}
	.st132{fill:#1E8D88;}
	.st133{fill:#A98C48;}
	.st134{fill:#1B3240;}
	.st135{fill:#2E234E;}
	.st136{fill:#285393;}
	.st137{fill:#163C63;}
	.st138{fill:#22746F;}
	.st139{fill:#1B7273;}
	.st140{fill:#131514;}
	.st141{fill:#72521D;}
	.st142{fill:#15414D;}
	.st143{fill:#402A18;}
	.st144{fill:#F1D8BF;}
	.st145{fill:#9E216C;}
	.st146{fill:#616473;}
	.st147{fill:#1D7271;}
	.st148{fill:#471F3F;}
	.st149{fill:#267476;}
	.st150{fill:#5C2352;}
	.st151{fill:#E7A142;}
	.st152{fill:#1A1312;}
	.st153{fill:#A27D50;}
	.st154{fill:#CF3A7E;}
	.st155{fill:#927023;}
	.st156{fill:#36264F;}
	.st157{fill:#8B6C21;}
	.st158{fill:#EBA276;}
	.st159{fill:#CFAB46;}
	.st160{fill:#A78B42;}
	.st161{fill:#CAA113;}
	.st162{fill:#B0F94A;}
	.st163{fill:#194146;}
	.st164{fill:#1E7274;}
	.st165{fill:#805D15;}
	.st166{fill:#37365A;}
	.st167{fill:#602153;}
	.st168{fill:#26DAA1;}
	.st169{fill:#9C206A;}
	.st170{fill:#ECFE68;}
	.st171{fill:#185E70;}
	.st172{fill:#2088A4;}
	.st173{fill:#625533;}
	.st174{fill:#9B7D3D;}
	.st175{fill:#9A7B3A;}
	.st176{fill:#B7F2C9;}
	.st177{fill:#275094;}
	.st178{fill:#337B76;}
	.st179{fill:#103345;}
	.st180{fill:#8C7011;}
	.st181{fill:#2E1D3F;}
	.st182{fill:#091729;}
	.st183{fill:#B4FB4F;}
	.st184{fill:#124D52;}
	.st185{fill:#B92D77;}
	.st186{fill:#0D2030;}
	.st187{fill:#6C2053;}
	.st188{fill:#12444E;}
	.st189{fill:#0D7972;}
	.st190{fill:#2C271B;}
	.st191{fill:#175672;}
	.st192{fill:#CEAC1D;}
	.st193{fill:#105B64;}
	.st194{fill:#109890;}
	.st195{fill:#9D8831;}
	.st196{fill:#1B576E;}
	.st197{fill:#11B7A3;}
	.st198{fill:#0D8778;}
	.st199{fill:#9E7F19;}
	.st200{fill:#132642;}
	.st201{fill:#177082;}
	.st202{fill:#16777C;}
	.st203{fill:#CBA51A;}
	.st204{fill:#115861;}
	.st205{fill:#0EA395;}
	.st206{fill:#117174;}
	.st207{fill:#1A5863;}
	.st208{fill:#184055;}
	.st209{fill:#BEA11D;}
	.st210{fill:#109681;}
	.st211{fill:#136D6F;}
	.st212{fill:#C09916;}
	.st213{fill:#5C4A0E;}
	.st214{fill:#D4A717;}
	.st215{fill:#122947;}
	.st216{fill:#6D5E23;}
	.st217{fill:#114D58;}
	.st218{fill:#109E95;}
	.st219{fill:#6FBFA8;}
	.st220{fill:#F3FF60;}
	.st221{fill:#D3F5DB;}
	.st222{fill:#D5FD8F;}
</style>
<g id="_x23_ced069ff">
	<path class="st0" d="M102.2,8.6c-2.1-0.1-2-4.9-0.3-5.4C102,5,102.1,6.8,102.2,8.6z"/>
</g>
<g id="_x23_886a2bff">
	<path class="st1" d="M101.9,3.2c5.2,0.2,11,3.7,13.2,8.7c0.2,0.3,0.5,1,0.7,1.3c0.5,4.4,1.9,8.7,7.1,8.9c0.3,0.3,1,1,1.3,1.3
		c-6-0.7-11.3,0.5-14.9,5.8c-2.6,3.9-5.6-1.3-8.4-2.4c-1.7,2.3-3,4.9-4.6,7.3c-0.3-0.3-1-1-1.3-1.4c5.6-6.7,9.9-15.3,7.2-24.2
		C102.1,6.8,102,5,101.9,3.2 M104.1,5.8c1.5,6.8,0.9,13.7-1.9,20.1c3.1,3.4,3.9-0.5,7.4,0.7C119.3,20.8,112.9,8.3,104.1,5.8z"/>
</g>
<g id="_x23_775026ff">
	<path class="st2" d="M57.2,7.8c-0.4-1.5,1.7-1.9,2.8-1.9c-1.9,6.1,0.9,12.5,4.8,17.2c3.2,4,7.2,7.8,7.8,13.1c0.2,1.3,0.3,2.7,0.5,4
		c-0.1,0.4-0.3,1.3-0.4,1.8l-0.9,0.3c-1.9-3.3-1.8-7.2-3.4-10.6c-2.2-4.7-10.5,6.7-11.6-1.6l0.9-0.2c1.8-0.8,3.5,0,5.2,0.8
		c5.7-4.5-5.5-8.8-5.1-14.4C57.7,13.4,57.7,10.6,57.2,7.8z"/>
</g>
<g id="_x23_daa349ff">
	<path class="st3" d="M104.1,5.8c8.9,2.5,15.2,14.9,5.5,20.8c-3.5-1.2-4.3,2.7-7.4-0.7C104.9,19.6,105.6,12.6,104.1,5.8z"/>
</g>
<g id="_x23_9b8022ff">
	<path class="st4" d="M53,15c0.6-2.4,1.6-6.3,4.2-7.1c0.5,2.8,0.5,5.6,0.7,8.3c-0.4-10.3-2.6-2.4-3.4,1.3c-1.5,4.5,1,8.8,3.3,12.4
		l-0.9,0.2c-8-5.8,2.5,5.2,1.9,9.8c-0.2,0.3-0.6,1-0.8,1.3L57.1,41c0-6.1-3.7-11.3-8.9-14.3C47.9,24,53,26.2,53,23.9
		C53.1,20.9,53,17.9,53,15z"/>
</g>
<g id="_x23_eaa528ff">
	<path class="st5" d="M102.2,8.6c2.7,8.9-1.7,17.5-7.2,24.2c-1.4,0.2-2.8,0.5-4.2,0.8c-1.5,0.3-3,0.8-4.5,1.1
		C82.4,35.5,74,31,72.7,36.2c-0.7-5.3-4.6-9.1-7.8-13.1c5-4.9,11.9-7.4,18.3-10c5.5-1.3,14.9,2.1,18.9-1
		C102,11.2,102.1,9.5,102.2,8.6z"/>
</g>
<g id="_x23_d79f3dff">
	<path class="st6" d="M54.5,17.5c0.8-3.7,3-11.6,3.4-1.3c-0.4,5.7,10.7,10,5.1,14.4c-1.7-0.7-3.4-1.6-5.2-0.8
		C55.5,26.2,53,22,54.5,17.5z"/>
</g>
<g id="_x23_f6da8fff">
	<path class="st7" d="M83.1,13.1c4.1-2.3,12.7-0.8,18.9-1C98,15.2,88.6,11.8,83.1,13.1z"/>
</g>
<g id="_x23_f6de8cff">
	<path class="st8" d="M115.1,11.9c9.6,0.8,23.4-1.5,30.6,1.3c-10-0.2-19.9-0.4-29.9,0C115.6,12.9,115.3,12.2,115.1,11.9z"/>
</g>
<g id="_x23_efb71fff">
	<path class="st9" d="M115.8,13.2c10-0.5,19.9-0.3,29.9,0c11.1,5.1,23,10.6,30.4,20.8c-18.4,0.6-37-1.2-55.4,0.9l-1,0.1
		c-0.4-0.1-1.3-0.4-1.7-0.5c-1.1-0.3-2.2-0.6-3.2-1c2.1-2.7,5.8-3.2,8.6-4.9c1-0.2,2-0.5,3-0.7c2.8,1.3,4.4-0.5,5.4-3
		c-2.2-2.6-5.6-3.4-8.9-2.9C117.7,22,116.3,17.6,115.8,13.2z"/>
</g>
<g id="_x23_b8ba66ff">
	<path class="st10" d="M53,23.9c-1.7,0.8-1.8-8.6,0.1-8.9C53,17.9,53.1,20.9,53,23.9z"/>
</g>
<g id="_x23_efc35eff">
	<path class="st11" d="M122.8,22.1c3.3-0.5,6.7,0.3,8.9,2.9c-1,2.5-2.6,4.3-5.4,3l-0.7-0.5c4.9,0.4,3.6-4-0.4-3.9
		c-0.3-0.1-0.8-0.2-1-0.3C123.8,23.1,123.2,22.5,122.8,22.1z"/>
</g>
<g id="_x23_c08c56ff">
	<path class="st12" d="M109.2,29.3c3.6-5.3,8.9-6.5,14.9-5.8c0.3,0.1,0.8,0.2,1,0.3c-0.6,1.4-2,3.4,0.4,3.9l0.7,0.5
		c-1,0.2-2,0.5-3,0.7c-4.2-2-8.1,1.9-11.5,4.1c-1.9,1.5-3.5,3.3-5,5.1c-3.9,2.3-7.9-0.1-11.3-2c0.2-0.4,0.6-1.3,0.8-1.7
		c1.5-2.4,2.8-5,4.6-7.3C103.7,28,106.7,33.1,109.2,29.3z"/>
</g>
<g id="_x23_e8d9b7ff">
	<path class="st13" d="M125.2,23.7c4-0.2,5.3,4.2,0.4,3.9C123.2,27.1,124.6,25.1,125.2,23.7z"/>
</g>
<g id="_x23_c37149ff">
	<path class="st14" d="M58.8,39.8c0.6-4.5-9.9-15.5-1.9-9.8c1.1,8.3,9.4-3.1,11.6,1.6c1.1,6-3.4,10-6.8,14
		C58.7,46.7,59.5,41.6,58.8,39.8z"/>
</g>
<g id="_x23_82621fff">
	<path class="st15" d="M111.9,32.8c3.4-2.2,7.2-6,11.5-4.1c-2.9,1.6-6.5,2.2-8.6,4.9l-0.8-0.2C113.4,33.3,112.4,33,111.9,32.8z"/>
</g>
<g id="_x23_b44037ff">
	<path class="st16" d="M68.5,31.7c1.6,3.4,1.5,7.3,3.4,10.6c-0.2,0.4-0.8,1.2-1,1.5c-2.6,3.2-1.2,9.7-8,7.4c5,1.2,4.2,6,4,10.1
		l-0.6-0.5c-3.5-4.8,0.4,10.8-2.5,4.5c-1.3-1.6-3.2-10-3.8-5.3H59c0-6.3-0.8-12.5-1-18.8c0.2-0.3,0.6-1,0.8-1.3
		c0.7,1.8-0.1,6.9,2.9,5.9C65.1,41.7,69.6,37.7,68.5,31.7z"/>
</g>
<g id="_x23_44463eff">
	<path class="st17" d="M90.8,33.7c1.4-0.3,2.8-0.6,4.2-0.8c0.3,0.3,1,1,1.3,1.4c-0.2,0.4-0.6,1.3-0.8,1.7c-0.6,1.3-1.2,2.6-1.7,4
		c-0.8,1-1.6,2.2-2.9,1.1c-2.4-2.5-13.3,1.9-11.2-2.8l0.7-0.3c3.7-1.4,12.9,4.5,13.2-2.2C95,33.5,92.2,34,90.8,33.7z"/>
</g>
<g id="_x23_3c4358ff">
	<path class="st18" d="M106.9,37.9c1.5-1.8,3.1-3.6,5-5.1c0.5,0.2,1.6,0.5,2.1,0.6c-1.6,1.1-3.9,2-4.1,4.2c2.5,0.6,4.9,1.3,7.4,2.1
		c-0.9-2.2-2.1-4.2-3.3-6.3l0.8,0.2c1.1,0.3,2.2,0.6,3.2,1c-1.3,4.3,3.8,8.1,4.2,12.6c-5,0.4-7-9-12.2-5.3c-2.5,3.1-3.3,1-3.7-2.1
		C106.3,39.3,106.7,38.4,106.9,37.9z"/>
</g>
<g id="_x23_f6cf0bff">
	<path class="st19" d="M72.7,36.2c1.4-5.2,9.8-0.7,13.6-1.4c-1.9,1-3.8,2.1-5.8,3.1l-0.7,0.3c-2.2,0.9-4.3,1.7-6.7,2.1
		C73,38.8,72.8,37.5,72.7,36.2z"/>
</g>
<g id="_x23_357c71ff">
	<path class="st20" d="M86.3,34.8c1.5-0.4,3-0.8,4.5-1.1c1.4,0.3,4.2-0.2,2.9,2c-0.3,6.6-9.4,0.8-13.2,2.2
		C82.4,36.8,84.3,35.8,86.3,34.8z"/>
</g>
<g id="_x23_279595ff">
	<path class="st21" d="M109.9,37.7c0.2-2.2,2.4-3.2,4.1-4.2c1.2,2,2.4,4.1,3.3,6.3C114.8,39,112.3,38.2,109.9,37.7z"/>
</g>
<g id="_x23_2f8780ff">
	<path class="st22" d="M122.1,47.2c-0.4-4.5-5.4-8.3-4.2-12.6c0.4,0.1,1.3,0.4,1.7,0.5c2.7,1.5,5.5,2.9,8.4,4
		c0.9,0.6,2.6,0.6,2.9,1.9l0.3,0.7c0.8,3.5,3.1,6.7,2.4,10.4c-1.1-3.3-3.8-5.4-6.5-7.4c-1.6-2.3-3-5.4-6.1-5.9
		c0.8,3.4,2.3,6.8,1.8,10.4C122.7,48.7,122.3,47.7,122.1,47.2z"/>
</g>
<g id="_x23_a4aa47ff">
	<path class="st23" d="M119.6,35l1-0.1c2.6,0.5,6.2,1.7,7.4,4.2C125.1,37.9,122.3,36.6,119.6,35z"/>
</g>
<g id="_x23_a96b4aff">
	<path class="st24" d="M93.9,39.9c0.5-1.4,1-2.7,1.7-4c3.5,1.9,7.4,4.3,11.3,2c-0.2,0.5-0.5,1.4-0.7,1.8c-0.8,1.7-1.7,3.3-2.3,5
		c-0.2,0.6-0.7,1.8-0.9,2.4c-2.8,0.4-5.9,1.6-8.5-0.2C94.8,44.5,94.7,42.2,93.9,39.9z"/>
</g>
<g id="_x23_b45b19ff">
	<path class="st25" d="M73.2,40.2c2.3-0.4,4.5-1.2,6.7-2.1c-2.1,4.7,8.8,0.3,11.2,2.8c-6.1-0.1-12.2,0-18.3,1
		C72.8,41.5,73.1,40.6,73.2,40.2z"/>
</g>
<g id="_x23_4d5478ff">
	<path class="st26" d="M121,38.8c3.1,0.5,4.5,3.6,6.1,5.9c-7.8,0.6,2.2,11.1-2.6,15.4c-0.6-2.8-1.1-5.6-1.7-8.4
		c0-0.6,0.1-1.9,0.1-2.5C123.3,45.6,121.8,42.2,121,38.8z"/>
</g>
<g id="_x23_963b27ff">
	<path class="st27" d="M91,41c1.3,1.1,2.1-0.1,2.9-1.1c0.8,2.3,0.9,4.7,0.6,7c2.5,1.8,5.6,0.7,8.5,0.2c-1.5,7-4,13.8-8.1,19.7
		c-1.9,1.1-8.1,4.5-6.1,0c1.3-3.2-2.8,1.3-4.6-0.6c0.3-1.1,0.6-2.2,0.9-3.3c1.1-3.2,1.6-6.6,3.3-9.6c3.1-0.1,6.3-0.5,9-1.9
		c-2.9-0.4-5.9-0.2-8.7-1.1C89.1,47.1,89.9,44,91,41z"/>
</g>
<g id="_x23_392447ff">
	<path class="st28" d="M106.2,39.7c0.4,3.1,1.1,5.2,3.7,2.1c5.2-3.7,7.2,5.7,12.2,5.3c0.2,0.5,0.6,1.5,0.8,2c0,0.6-0.1,1.9-0.1,2.5
		c-2.2,3,0.2,13.1-4.5,9c-2.6-4.2-6.7-6.2-11.2-7.4c-1.4,4.5,0.5,10.4-3.1,13.8c-0.4-0.1-1.3-0.2-1.8-0.3c-1.1-0.9-2.3-1.9-3.2-2.9
		c2.4-6.2,6.1-12.1,5-19.1C104.5,43,105.4,41.4,106.2,39.7z"/>
</g>
<g id="_x23_e77c40ff">
	<path class="st29" d="M44.2,41.1c4.3-0.1,8.6-0.3,12.9-0.1l0.9,0.1c0.2,6.3,1,12.5,1,18.8c-8.1-0.2-16.5,1.2-24.4-1.7
		c0.4-0.6,1.1-1.9,1.5-2.5c1.1-1.1,1.5-2.8,2-4.2C40.2,48,42,44.4,44.2,41.1z"/>
</g>
<g id="_x23_ec5f2cff">
	<path class="st30" d="M72.8,42c6-1.1,12.2-1.1,18.3-1c-1.1,3-1.9,6.2-2.4,9.3c-0.3-0.1-1-0.3-1.3-0.4c-4.3-4.7-10.1-6.8-16.5-6.1
		c0.2-0.4,0.7-1.1,1-1.5L72.8,42z"/>
</g>
<g id="_x23_efb71dff">
	<path class="st31" d="M131,41c13.7,0,27.4,0.1,41,0c13.8-3.6,20.6,11.1,25.4,21.3c-10.2,1.5-20.5,0-30.7,1.5
		c-1.3-1.5-2.6-3.1-3.8-4.7c3.1-5.4-7.3-7.7-8.9-2.4c-2.2,1.7-4.8,3-7.6,3.5c-1.6-3.2-3.1-6.4-5.4-9.2c-2.9-3.4-6-6.8-9.8-9.2
		L131,41z"/>
</g>
<g id="_x23_305f52ff">
	<path class="st32" d="M131.2,41.7c3.9,2.4,6.9,5.8,9.8,9.2c0,0.5,0,1.6,0,2.1c-1.9-2.1-3.9-4.2-6-6.1c0.4,1.7,0.9,3.3,1.3,4.9
		c0.5,2.8-1.2,6.4-2.8,2.2c0-0.5,0-1.4,0.1-1.9C134.3,48.4,132.1,45.1,131.2,41.7z"/>
</g>
<g id="_x23_f1363fff">
	<path class="st33" d="M62.8,51.3c6.9,2.2,5.5-4.2,8-7.4c6.4-0.7,12.2,1.4,16.5,6.1c0.4,5.7-5.9,8.9-10.7,9.6
		c-3.8-1.9-5.9,1.5-8,3.7c-0.6-0.6-1.2-1.2-1.8-1.8C67,57.2,67.8,52.4,62.8,51.3 M77.4,49.4c-4.1,0.5-7.1,4.8-3.6,7.3
		C79.5,60.2,86.1,45.1,77.4,49.4z"/>
</g>
<g id="_x23_4e2123ff">
	<path class="st34" d="M103,47.1c0.2-0.6,0.7-1.8,0.9-2.4c1.1,7-2.6,12.9-5,19.1c1,1.1,2.1,2,3.2,2.9c-2.4-0.3-4.8-0.5-7.2,0
		C99.1,60.9,101.5,54.1,103,47.1z"/>
</g>
<g id="_x23_4c2857ff">
	<path class="st35" d="M124.5,60.2c4.8-4.3-5.2-14.8,2.6-15.4c2.7,1.9,5.4,4.1,6.5,7.4c0,0.5-0.1,1.4-0.1,1.9
		c-7.6,2.8-3.4,15.3-2.3,22.2c-1.5,4.4-4.4,1.2-6.5-1C124.8,70.2,125.3,65.2,124.5,60.2z"/>
</g>
<g id="_x23_7e3c73ff">
	<path class="st36" d="M135.1,46.8c2.1,2,4.1,4,6,6.1c1.7,3.2,4.9,6.5,3.4,10.3c-0.6,0.3-1.7,0.9-2.3,1.2c-6-0.3-3.6-8.5-5.8-12.7
		C135.9,50.1,135.4,48.5,135.1,46.8z"/>
</g>
<g id="_x23_fa7086ff">
	<path class="st37" d="M77.4,49.4c8.7-4.2,2.1,10.8-3.6,7.3C70.3,54.2,73.3,49.8,77.4,49.4 M76.3,51.3C74.1,51,72.7,55.1,75,55
		C78.9,57,81.1,49,76.3,51.3z"/>
</g>
<g id="_x23_db292eff">
	<path class="st38" d="M87.3,49.9c0.3,0.1,1,0.3,1.3,0.4c2.8,1,5.8,0.8,8.7,1.1c-2.8,1.5-6,1.8-9,1.9c-1.7,3-2.2,6.4-3.3,9.6
		c-4.1,1.5-7.9,3.5-11.7,5.6c-1.5-1.9-3.1-3.7-4.8-5.4c2.1-2.2,4.1-5.6,8-3.7C81.4,58.8,87.7,55.6,87.3,49.9z"/>
</g>
<g id="_x23_f6d190ff">
	<path class="st39" d="M36.1,55.7c-1.1-1.5-0.2-5,2-4.2C37.6,52.9,37.3,54.6,36.1,55.7z"/>
</g>
<g id="_x23_fbc1cbff">
	<path class="st40" d="M76.3,51.3C81.1,49,78.9,57,75,55C72.7,55.1,74.1,51,76.3,51.3z"/>
</g>
<g id="_x23_6f552aff">
	<path class="st41" d="M141.1,50.9c2.2,2.8,3.7,6,5.4,9.2c0.8,1.7-0.6,2.6-2,3.2c1.5-3.8-1.7-7.1-3.4-10.3
		C141.1,52.5,141.1,51.4,141.1,50.9z"/>
</g>
<g id="_x23_252037ff">
	<path class="st42" d="M118.3,60.7c4.7,4.2,2.3-6,4.5-9c0.6,2.8,1.2,5.6,1.7,8.4c0.8,5,0.3,10.1,0.3,15.1
		c-6.9-2.8-13.7-6.1-20.9-8.1c3.6-3.5,1.8-9.3,3.1-13.8C111.6,54.5,115.7,56.5,118.3,60.7z"/>
</g>
<g id="_x23_2e1c39ff">
	<path class="st43" d="M136.3,51.8c2.2,4.1-0.2,12.3,5.8,12.7c-4,3.6-7.6,7.6-10.9,11.8c-1.1-6.9-5.3-19.4,2.3-22.2
		C135.1,58.1,136.8,54.5,136.3,51.8z"/>
</g>
<g id="_x23_e5ba6bff">
	<path class="st44" d="M154,56.6c1.6-5.3,12-3,8.9,2.4c-1.6,0-4.8-0.1-6.3-0.1C155.7,58.1,154.9,57.3,154,56.6 M156.9,55
		c-0.7,2.9,3.5,4.2,4.9,1.8C161.9,54.5,158.5,55,156.9,55z"/>
</g>
<g id="_x23_f1e1bdff">
	<path class="st45" d="M156.9,55c1.6,0,5-0.5,4.9,1.8C160.4,59.2,156.3,57.9,156.9,55z"/>
</g>
<g id="_x23_ab7e26ff">
	<path class="st46" d="M146.4,60.1c2.8-0.5,5.3-1.8,7.6-3.5c0.9,0.7,1.7,1.5,2.5,2.3c-2.3,1.1-4.6,2.2-6.8,3.6
		c-3.1,1.8-6.4,3.4-8.9,6.1c-6.5,5.2-10.3,12.6-14.2,19.7l-0.9-0.6c3.2-4.5,1.3-8.1-3.7-10c-1.5-0.9-3.2-1.6-4.9-2.2
		c-5.2-2.2-10.4-4.6-16-5.8c-2.1-0.5-4.2-0.7-6.3-0.9c0-0.5,0-1.5,0-2c2.4-0.5,4.8-0.3,7.2,0c0.4,0.1,1.3,0.2,1.8,0.3
		c7.2,2.1,13.9,5.4,20.9,8.1c2.1,2.2,5,5.4,6.5,1c3.3-4.2,6.9-8.2,10.9-11.8c0.6-0.3,1.7-0.9,2.3-1.2
		C145.9,62.7,147.2,61.8,146.4,60.1z"/>
</g>
<g id="_x23_ec9f31ff">
	<path class="st47" d="M38.9,62.3c1.2-3.8-7.7-1.9-4.3-4c7.8,2.9,16.2,1.5,24.4,1.7h0.9c0.1,0.7,0.2,2.1,0.3,2.8
		C53.1,62.9,46,63.5,38.9,62.3z"/>
</g>
<g id="_x23_7f4519ff">
	<path class="st48" d="M59.9,59.9c0.6-4.7,2.4,3.8,3.8,5.3c2.9,6.3-1-9.2,2.5-4.5c0.2,2.5,0.3,5,0.5,7.5c-3.2-0.7-2.6,1.4-1.3,3.6
		c-1.3,0.8-2.7,1.6-4.1,2.4c-0.1-1.4-0.1-2.8-0.1-4.2c0.6-1.7,1.4-3.7,0.3-5.4c-0.3-0.5-0.9-1.5-1.2-2C60.1,62.1,60,60.6,59.9,59.9z
		"/>
</g>
<g id="_x23_aa296eff">
	<path class="st49" d="M156.5,58.9c1.6,0,4.8,0.1,6.3,0.1c1.2,1.6,2.5,3.2,3.8,4.7c0.2,0.3,0.7,0.8,0.9,1.1c1,1.3,1.9,2.7,2.4,4.3
		l0.3,0.9c-1.4,4.2-6.8,3.3-10.2,4.9c-3.2-4.4-6.2-8.9-10.4-12.5C151.9,61.1,154.2,60,156.5,58.9z"/>
</g>
<g id="_x23_c44a1eff">
	<path class="st50" d="M66.2,60.8l0.6,0.5c0.6,0.6,1.2,1.2,1.8,1.8c1.7,1.7,3.3,3.5,4.8,5.4c3.8-2.1,7.6-4.1,11.7-5.6
		c-0.3,1.1-0.6,2.2-0.9,3.3c-3.8,2.6-6.7,7.1-11.2,8.7c-2.8-1-4.5-4.2-6.3-6.6C66.5,65.8,66.3,63.3,66.2,60.8z"/>
</g>
<g id="_x23_f4cc72ff">
	<path class="st51" d="M38,63.9c0.2-0.4,0.6-1.3,0.9-1.7c7,1.2,14.2,0.7,21.3,0.5c0.3,0.5,0.9,1.5,1.2,2
		C53.6,63.5,45.8,64.2,38,63.9z"/>
</g>
<g id="_x23_f6e268ff">
	<path class="st52" d="M197.4,62.3c3.9,2.8-8.1,1.5-9.4,1.7c-6.8,0.1-13.7-0.5-20.4,0.8c-0.2-0.3-0.7-0.8-0.9-1.1
		C176.9,62.3,187.2,63.7,197.4,62.3z"/>
</g>
<g id="_x23_491937ff">
	<path class="st53" d="M140.9,68.6c2.5-2.7,5.8-4.3,8.9-6.1c4.1,3.5,7.1,8.1,10.4,12.5c-3.1,1.4-6,3.2-8.9,5.1
		C147.6,76.4,144.7,72,140.9,68.6z"/>
</g>
<g id="_x23_e8b27cff">
	<path class="st54" d="M61.4,64.7c1.2,1.7,0.3,3.6-0.3,5.4C50.8,70,40.5,70,30.2,70c5.5-2.4,17-0.3,24.8-1
		C59.5,71.7,61,67.7,61.4,64.7z"/>
</g>
<g id="_x23_502416ff">
	<path class="st55" d="M84.2,66.2c1.9,1.9,5.9-2.7,4.6,0.6c-2,4.5,4.2,1.1,6.1,0c0,0.5,0,1.5,0,2c-2.7,1.1-5.5,2.2-8.2,3.2
		c-2.3,0.6-4.8,1.3-6.8,2.7c-3.9,4.9-8.2,2.1-11.8-1.5c-0.9-0.5-1.8-0.9-2.8-1.3c-1.3-2.2-1.9-4.3,1.3-3.6c1.8,2.4,3.5,5.6,6.3,6.6
		C77.5,73.4,80.3,68.9,84.2,66.2z"/>
</g>
<g id="_x23_702659ff">
	<path class="st56" d="M86.7,72.1c2.8-1,5.5-2.1,8.2-3.2c2.1,0.2,4.2,0.4,6.3,0.9C103.5,77,88.3,80.1,86.7,72.1z"/>
</g>
<g id="_x23_1e264bff">
	<path class="st57" d="M126.7,88.3c3.9-7.2,7.7-14.5,14.2-19.7c3.8,3.4,6.7,7.8,10.4,11.5c-5.7,4.8-12,9.7-14.4,17
		C133.2,94.4,129.9,91.4,126.7,88.3z"/>
</g>
<g id="_x23_f4d464ff">
	<path class="st58" d="M170,69.1c8.1,0.9,22.1-2.2,27.7,0.9c-8.9-0.1-17.7-0.1-26.6,0l-0.8,0L170,69.1z"/>
</g>
<g id="_x23_dd6a52ff">
	<path class="st59" d="M30.2,70c10.3,0,20.6,0,30.8,0.1c0,1.4,0.1,2.8,0.1,4.2c-5.8,3-11.5,6.3-16.5,10.5c-1.4,0.5-2.7,1.3-3.8,2.4
		c-3.3-0.1-6.6-0.1-9.9-0.1c-6.4,0.4-1.7-8.9-1.6-12.8C29.7,72.9,29.9,71.4,30.2,70z"/>
</g>
<g id="_x23_463351ff">
	<path class="st60" d="M101.3,69.7c5.5,1.2,10.8,3.5,16,5.8c-5.2,0.7-8.5,5-12.5,7.9c1.9-3.3,4.1-6.4,6.2-9.6
		c-2.6-0.3-4.8,0.7-6.9,1.9c-3.3,1.9-6.6,3.8-9.3,6.4c-2.9-0.1-5.8-0.1-8.7-0.5c3.5-3.9-4.1-4.7-6-6.8c2-1.4,4.4-2,6.8-2.7
		C88.3,80.1,103.5,77,101.3,69.7z"/>
</g>
<g id="_x23_bf9318ff">
	<path class="st61" d="M170.3,70l0.8,0c0.3,2,1.4,4.2,0.2,6c-0.1-0.5-0.3-1.4-0.5-1.9c-13.9,3.1-25,12.4-34,22.9
		c2.4-7.3,8.7-12.3,14.4-17c2.9-1.9,5.8-3.7,8.9-5.1C163.5,73.4,169,74.3,170.3,70z"/>
</g>
<g id="_x23_edb21dff">
	<path class="st62" d="M171.1,70.1c8.9-0.1,17.7-0.1,26.6,0c0.5,0.9,1,1.9,1.4,2.8c-0.4,4.3,3.5,10.4,0.6,13.9
		c-12.3,0.4-24.6,0.1-36.8,0c3.2-3.2,6.4-6.6,8.4-10.8C172.6,74.2,171.5,72,171.1,70.1z"/>
</g>
<g id="_x23_188978ff">
	<path class="st63" d="M65.3,71.9c1,0.4,1.9,0.8,2.8,1.3c-5,3.7-13.7,4.8-15.6,11.6l-0.8,0.4c-2.5,1.1-4.8,2.8-6.8,4.6
		c-2.3,1.1-6.2,5.3-5,0.1c0.2-0.3,0.7-0.9,0.9-1.2c2.1-0.2,3.5-1.9,3.9-3.9c5-4.2,10.7-7.5,16.5-10.5C62.6,73.6,64,72.8,65.3,71.9z"
		/>
</g>
<g id="_x23_23475dff">
	<path class="st64" d="M68.1,73.2c3.6,3.5,7.9,6.3,11.8,1.5c1.9,2.2,9.5,3,6,6.8c-11.2-1.5-22.7,0-33.4,3.3
		C54.5,78.1,63.1,77,68.1,73.2z"/>
</g>
<g id="_x23_f2c920ff">
	<path class="st65" d="M199.1,72.9c7,2.2,4.1,12.5,5.9,18.1c-14.1,0.9-28.5-1.3-42.4,0.9c-0.7-0.9-1.3-1.8-2-2.8
		c0.7-0.8,1.5-1.5,2.2-2.2c12.3,0.1,24.6,0.4,36.8,0C202.6,83.2,198.7,77.2,199.1,72.9z"/>
</g>
<g id="_x23_f2c38dff">
	<path class="st66" d="M31,88c-7.6,2.4-4.1-12.2-1.6-13.7c0,3.9-4.8,13.2,1.6,12.8L31,88z"/>
</g>
<g id="_x23_3d5e6dff">
	<path class="st67" d="M103.9,75.7c2.1-1.2,4.4-2.2,6.9-1.9c-2,3.2-4.3,6.3-6.2,9.6c-0.5-0.1-1.5-0.3-2-0.4
		C103.7,80.8,108.5,76.4,103.9,75.7z"/>
</g>
<g id="_x23_1c160dff">
	<path class="st68" d="M136.8,97.1c9-10.5,20.1-19.8,34-22.9c0.1,0.5,0.4,1.4,0.5,1.9c-2,4.2-5.2,7.5-8.4,10.8
		c-0.8,0.7-1.5,1.5-2.2,2.2c-0.9-0.5-1.7-0.9-2.6-1.4c-7.7-0.9-15.5,5.7-20.5,11.6c-3.6-2.4-6.7-5.6-10.6-7.6
		c-1.2,6.4,3.4,13.9,9.7,15.7c1.4,0.5,3.5,0.7,3.3,2.7c-3.1-0.3-6.2-0.6-9.1-1.8c-3.4-3.9-6.8-8.2-7.6-13.5c0.4-2.5,1.4-4.9,2.4-7.2
		l0.9,0.6C129.9,91.4,133.2,94.4,136.8,97.1z"/>
</g>
<g id="_x23_259a89ff">
	<path class="st69" d="M94.6,82.1c2.8-2.6,6-4.5,9.3-6.4c4.6,0.7-0.2,5.2-1.2,7.3C100,82.8,97.3,82.7,94.6,82.1z"/>
</g>
<g id="_x23_692350ff">
	<path class="st70" d="M104.7,83.4c4-2.9,7.3-7.2,12.5-7.9c1.7,0.6,3.3,1.3,4.9,2.2c-1.3,3.1-3.7,5.3-6.3,7.2
		c-1.9,0-3.8-0.2-5.7-0.3C108.3,84.2,106.5,83.8,104.7,83.4z"/>
</g>
<g id="_x23_3a2335ff">
	<path class="st71" d="M115.8,84.9c2.6-1.9,5-4.1,6.3-7.2c4.9,1.9,6.9,5.4,3.7,10c-1,2.3-2,4.7-2.4,7.2c-1.6,1.7-2.7,3.8-2.5,6.2
		c-0.3-5.5-2.9-2.7-5.6-0.2c-0.5-1.6-1.6-2.7-3.2-3.2c1.2-1.8,2.3-3.8,2.9-5.9c1.6-2.1,7.7-1.5,6.1-4.7
		C128,86.6,119.1,84,115.8,84.9z"/>
</g>
<g id="_x23_ae9728ff">
	<path class="st72" d="M52.5,84.8c10.8-3.3,22.2-4.7,33.4-3.3c2.9,0.4,5.8,0.4,8.7,0.5c2.7,0.6,5.4,0.7,8.1,0.9
		c0.5,0.1,1.5,0.3,2,0.4c1.8,0.4,3.6,0.8,5.4,1.1c-1.6,0.2-3.2,0.4-4.8,0.5c-4.7-0.2-9.4-1-14.1-1.4c-8.8-1-17.8-1.2-26.6-0.1
		c-0.4,0.1-1.4,0.2-1.8,0.3c-3,0.5-5.9,1.4-8.7,2.4c-0.6-0.3-1.8-0.8-2.4-1.1L52.5,84.8z"/>
</g>
<g id="_x23_47451dff">
	<path class="st73" d="M64.7,83.6c8.8-1.1,17.8-0.9,26.6,0.1c-3.1,0.1-6.1,0.2-9.1,0.3c-0.8,0-2.2,0-3,0c-1.4,0-2.7,0-4.1,0l-1,0
		c-2.7,0-5.4-0.1-8.2-0.2L64.7,83.6z"/>
</g>
<g id="_x23_14100cff">
	<path class="st74" d="M54.2,86.3c2.8-1,5.7-1.9,8.7-2.4c-1.6,3,0.4,6.1,1.4,9c-0.2,2-0.4,4.1-1.1,6.1c-0.3,0.3-0.9,0.9-1.2,1.2
		c-1.7,0.1-3.3,0-4.9-0.1c-1.7-0.1-3.4-0.1-5.1-0.1c-3.2-0.9-6.5-1.7-9.7-2.7c-0.5-0.3-1.4-0.9-1.9-1.2l-0.3-0.9
		c1.8-1.6,3.6-3.4,5-5.4C48,88.7,51.1,87.6,54.2,86.3z"/>
</g>
<g id="_x23_134055ff">
	<path class="st75" d="M62.9,83.9c0.5-0.1,1.4-0.2,1.8-0.3c-0.1,1.9-2.3,6.3,1.3,5.4c0.1-1.8,0-3.5-0.1-5.2c2.7,0.1,5.4,0.2,8.2,0.2
		c-2,3.3-3.3,7.9-0.9,11.3c2.2-3.3,1.5-7.5,1.9-11.3c1.3,0,2.7,0,4.1,0c-1.6,3.8-3,8.2-1.3,12.2c-4.7-0.4-9.4-1.3-13.6-3.3
		C63.3,90,61.2,86.9,62.9,83.9z"/>
</g>
<g id="_x23_158986ff">
	<path class="st76" d="M64.7,83.6l1.2,0.2c0.1,1.8,0.2,3.5,0.1,5.2C62.4,89.9,64.6,85.5,64.7,83.6z"/>
</g>
<g id="_x23_168484ff">
	<path class="st77" d="M74,84l1,0c-0.4,3.8,0.3,8-1.9,11.3C70.8,91.9,72,87.3,74,84z"/>
</g>
<g id="_x23_157f7dff">
	<path class="st78" d="M79.1,84c0.7,0,2.2,0,3,0c-2.2,4.1-2.1,8.7-2.9,13.2c-0.3-0.2-1-0.7-1.3-1C76.1,92.2,77.5,87.8,79.1,84z"/>
</g>
<g id="_x23_192f4aff">
	<path class="st79" d="M82.1,84c3.1-0.1,6.1-0.2,9.1-0.3c4.7,0.4,9.4,1.1,14.1,1.4l-0.6,0.5c-4.4-0.8-4,7.2,0,6.3
		c2.3-1.5,1-4.4,0-6.3c0.8,0.1,2.5,0.3,3.3,0.4c2.6,7.9-8.1,7.7-13,10.1c4.6-7.8-10.6-11.7-10.1-3.2c4.9-2.7,5.9,3.1,10.1,3.2
		c-5.2,0.6-11.1,0.7-15.9,1C80,92.8,79.9,88.1,82.1,84z"/>
</g>
<g id="_x23_6e511eff">
	<path class="st80" d="M110.1,84.6c1.9,0.2,3.8,0.3,5.7,0.3c3.3-0.9,12.2,1.7,5.3,2.2c-4.4,0.2-8.7-0.3-13-1
		c-0.8-0.1-2.5-0.3-3.3-0.4l0.6-0.5C106.9,84.9,108.5,84.7,110.1,84.6z"/>
</g>
<g id="_x23_64513eff">
	<path class="st81" d="M40.9,87.2c1.1-1,2.4-1.9,3.8-2.4c-0.3,2-1.8,3.7-3.9,3.9C40.8,88.3,40.8,87.5,40.9,87.2z"/>
</g>
<g id="_x23_5a642aff">
	<path class="st82" d="M44.9,89.8c2-1.9,4.3-3.5,6.8-4.6c0.6,0.3,1.8,0.8,2.4,1.1C51.1,87.6,48,88.7,44.9,89.8z"/>
</g>
<g id="_x23_197378ff">
	<path class="st83" d="M104.8,91.9c-4,0.9-4.4-7,0-6.3C105.8,87.5,107.1,90.4,104.8,91.9z"/>
</g>
<g id="_x23_0e2634ff">
	<path class="st84" d="M108.1,86.1c4.3,0.8,8.6,1.2,13,1c1.6,3.1-4.5,2.6-6.1,4.7c-4.8,1.8-9.3,4.2-14.1,6
		c-3.5,1.4-7.1,2.4-10.7,3.5C81.1,101,71.8,102,63.1,99c0.7-2,1-4,1.1-6.1c4.3,2,8.9,2.9,13.6,3.3c0.3,0.2,1,0.7,1.3,1
		c4.8-0.3,10.7-0.4,15.9-1C99.9,93.8,110.7,94,108.1,86.1z"/>
</g>
<g id="_x23_e19845ff">
	<path class="st85" d="M31,87.1c3.3,0,6.6,0,9.9,0.1c0,0.4,0,1.1,0,1.5c-0.2,0.3-0.7,0.9-0.9,1.2c-1.5,1.5-0.7,3.7-0.9,5.6
		c-2.6-1.8,1.2-8.3-6-4.5c-2.4,0.7-2.1-1.3-2-3L31,87.1z"/>
</g>
<g id="_x23_9b721eff">
	<path class="st86" d="M137.6,99.3c5-5.8,12.7-12.5,20.5-11.6c-1.5,0.6-2.9,1.3-4.4,2c-2.6,1.3-5.2,2.4-7.6,4
		c-2.8,2-5.5,4.3-8.2,6.5L137.6,99.3z"/>
</g>
<g id="_x23_1f6e74ff">
	<path class="st87" d="M85,92.9c-0.5-8.5,14.7-4.5,10.1,3.2C90.9,96,89.8,90.2,85,92.9z"/>
</g>
<g id="_x23_9c2664ff">
	<path class="st88" d="M153.7,89.7c1.4-0.7,2.9-1.4,4.4-2c0.9,0.4,1.7,0.9,2.6,1.4c0.7,0.9,1.3,1.8,2,2.8c0.9,1.3,1.7,2.7,2.3,4.2
		l0.3,0.8c0.3,1,0.6,1.9,0.9,2.9c1.4,4.1,0.5,7.9-3.9,9.3l-0.9-0.1C159.7,102.8,149.8,96.6,153.7,89.7z"/>
</g>
<g id="_x23_505a25ff">
	<path class="st89" d="M39,95.5c0.1-1.8-0.6-4.1,0.9-5.6c-1.1,5.2,2.7,1,5-0.1c-1.4,2.1-3.2,3.8-5,5.4L39,95.5z"/>
</g>
<g id="_x23_5f2156ff">
	<path class="st90" d="M146.1,93.7c2.4-1.6,5.1-2.7,7.6-4c-3.9,6.9,6,13,7.6,19.3c-2.3,1-4.6,2.1-7,3
		C151,106.1,147.8,100.2,146.1,93.7z"/>
</g>
<g id="_x23_42495cff">
	<path class="st91" d="M100.9,97.7c4.8-1.8,9.3-4.2,14.1-6c-0.7,2.1-1.8,4.1-2.9,5.9c-3.2,1.1-6.3,2.2-9.6,2.7
		C102.8,98.8,102.9,97.4,100.9,97.7z"/>
</g>
<g id="_x23_5d3b27ff">
	<path class="st92" d="M127,91.7c3.9,1.9,7,5.1,10.6,7.6l0.3,0.9c0.3,1,0.6,1.9,1,2.9c0.9,2.4,1.5,5-2.1,4.3
		C130.5,105.7,125.9,98.1,127,91.7z"/>
</g>
<g id="_x23_292652ff">
	<path class="st93" d="M137.9,100.2c2.7-2.2,5.3-4.5,8.2-6.5c1.7,6.5,5,12.4,8.2,18.3c-2.7,1.1-5.2,2.5-7.4,4.3
		c-2.8-4.3-4.7-9.2-7.9-13.2C138.5,102.1,138.2,101.1,137.9,100.2z"/>
</g>
<g id="_x23_f3d796ff">
	<path class="st94" d="M39,95.5l0.9-0.2l0.3,0.9c-4.8,1.7-15.4-2.4-13.3,5.9C20.9,92.9,33.8,97.2,39,95.5z"/>
</g>
<g id="_x23_896422ff">
	<path class="st95" d="M120.8,101.1c-0.2-2.4,0.9-4.5,2.5-6.2c0.8,5.3,4.2,9.6,7.6,13.5c0.1,1.7-0.7,3.1-2.1,4.2
		c-2-2-3.8-4.2-5.5-6.5c-0.3-0.5-0.9-1.6-1.2-2.2C121.7,102.9,121.3,102,120.8,101.1z"/>
</g>
<g id="_x23_e48857ff">
	<path class="st96" d="M40.2,96.1c0.5,0.3,1.4,0.9,1.9,1.2c-4.7,0.4-9.5,0.4-14.2,0.9c1.6,5-2.9,17,5.4,17.4
		c7.1,0.7,14.3,0.5,21.5,0.4c-0.8,1.3-1.7,2.6-2.5,4c-6.3-1.3-12.7-0.9-19-1.1c-0.8-2.6-3.3-2.9-5.3-4.1c-0.7-4.2-1.2-8.5-1.2-12.8
		C24.8,93.7,35.4,97.8,40.2,96.1z"/>
</g>
<g id="_x23_faea99ff">
	<path class="st97" d="M164.9,96.1c12.3-0.1,24.7-0.1,37,0c0.1,1.6,0.2,3.2,0.2,4.8c-1.7-0.1-0.9-2.6-1.5-3.7
		c-11.8-0.4-23.6,0-35.4-0.2L164.9,96.1z"/>
</g>
<g id="_x23_d74b6bff">
	<path class="st98" d="M42.2,97.3c3.2,1,6.4,1.8,9.7,2.7c1.5,3.2,2.5,7,5.2,9.4c0.3,0.3,0.9,1,1.2,1.3c-0.5,0.9-0.9,1.8-1.3,2.7
		c-0.7,0.8-1.3,1.7-2,2.5c-7.2,0-14.4,0.3-21.5-0.4c-8.4-0.4-3.8-12.4-5.4-17.4C32.7,97.8,37.5,97.8,42.2,97.3z"/>
</g>
<g id="_x23_181d2cff">
	<path class="st99" d="M115.2,100.8c2.7-2.5,5.3-5.3,5.6,0.2c0.4,0.9,0.9,1.9,1.4,2.8c-1.9,1.3-4,2.3-6.1,3.3l-0.8-0.3
		c-1.2-0.7-2.3-0.9-2.4,0.8c-0.2,0.4-0.5,1.1-0.7,1.4c-3.2,0.2-6.3,0.6-9.4,0.9C107.2,107.5,111.2,104.1,115.2,100.8z"/>
</g>
<g id="_x23_ebaf21ff">
	<path class="st100" d="M165.2,96.9c11.8,0.3,23.6-0.2,35.4,0.2c0.7,1.1-0.1,3.6,1.5,3.7c5.2-0.8,2.4,6,2.9,9.2
		c-0.7,1.4-1.4,2.7-2,4.1c-6.2,1.9-12.8,2.2-19.2,3c-1.1-0.1-2.3-0.1-3.4-0.2c-1.7-5-3.9-10.1-8.2-13.4c-3.1,0.5-5.1-0.8-6.1-3.8
		C165.8,98.8,165.5,97.9,165.2,96.9z"/>
</g>
<g id="_x23_67748fff">
	<path class="st101" d="M90.2,101.2c3.6-1.1,7.2-2.1,10.7-3.5c2-0.3,1.9,1.2,1.5,2.6c-0.3,0.2-1,0.5-1.3,0.6c-2.3,0.7-4.7,1.5-7,2.3
		c-2.8,0.3-5.7-0.3-8.4,0.7c-7.2,0.3-14.4,0.4-21.5-0.7c-0.8,0.9-1.5,1.9-2.2,2.9c-0.1-1.4-0.1-2.9-0.1-4.3
		C71.2,101.5,81.2,105.4,90.2,101.2z"/>
</g>
<g id="_x23_732758ff">
	<path class="st102" d="M102.4,100.3c3.3-0.4,6.5-1.6,9.6-2.7c1.6,0.5,2.7,1.6,3.2,3.2c-4,3.2-8,6.6-12.6,9.1
		c-8.7,6.1-19.8,6.5-28.9,1.2c4.8-0.1,9.7-0.1,14.5-0.2c7.1,3,12.8-3.4,12.8-9.9C101.4,100.8,102.1,100.5,102.4,100.3z"/>
</g>
<g id="_x23_3f8e93ff">
	<path class="st103" d="M61.9,100.2c0.3-0.3,0.9-0.9,1.2-1.2c8.7,3,18,2,27.1,2.2c-9,4.2-18.9,0.3-28.2,0.6
		C61.9,101.4,61.9,100.6,61.9,100.2z"/>
</g>
<g id="_x23_19484aff">
	<path class="st104" d="M51.8,100.1c1.7,0,3.4,0,5.1,0.1c-1.9,3.2,1.9,6.2,0.1,9.4C54.3,107,53.4,103.3,51.8,100.1z"/>
</g>
<g id="_x23_0f1d2cff">
	<path class="st105" d="M57,100.1c1.6,0,3.3,0.2,4.9,0.1c0,0.4,0,1.2,0,1.6c0,1.4,0,2.9,0.1,4.3l0.1,0.8c0.2,0.5,0.6,1.5,0.9,2
		c1.1,4.2,6.8,8.5,8.1,2.2c0.7,0,2,0,2.7,0c9.1,5.3,20.1,4.9,28.9-1.2c-1.5,5.2,5.6,1.7,8.3,2c0.1,0.8,0.2,2.5,0.3,3.3
		c-0.4,1-0.9,2.1-1.3,3.1l-0.7-0.2c-0.1-0.5-0.3-1.5-0.4-2c-11.1,6.5-20.1,21.8-35,17.1c-3.8-1.2-0.1,1.8,0.8,3.1
		c-0.3,1-0.6,1.9-0.9,2.9c1.1,2.2,2.9,4.1,3.4,6.6c-2.2,1-3.8,5.7-0.1,5c0.2,0.6,0.5,1.7,0.7,2.3c-8.9-2.7-16.2,5.3-24.9,3.1
		c-3.5-2-7-4.1-10.2-6.5c5.5,0.1,9.9,4.9,15.5,5.3c0.1-2.8-2.8-2.9-4.8-3.5c-1.1-2.4-1.1-5.2-2.5-7.3c-2.6-1.5-6-2.2-7.2-5.3
		c2.5-4.2,8.2-8.6,5.2-13.9l0.8,0c1.1,1.2,2.1,2.3,3.4,3.4c2.7,1.4,5.5,2.9,8.7,2.6c3.1-6.5,1.5-15.2-3.5-20.2
		c-0.3-0.3-0.9-1-1.2-1.3C58.9,106.3,55.1,103.3,57,100.1 M72.3,114.1c-4.3,3.5-4.7,11-1.8,15.3c2.9,4.2,15.1,0,16.6-6.3
		c1.2-5,5.8-2.4,7.2,0.8c4,0.9,4.5-7.5,0.6-7.8c-5.8-0.4-11.9,1.6-15.4,6.6c-2.1,1.6-1.4-1.5-1.7-2.7
		C81.3,116.8,75.9,111.8,72.3,114.1z"/>
</g>
<g id="_x23_542c21ff">
	<path class="st106" d="M166.1,99.8c1,2.9,3.1,4.3,6.1,3.8c-2.1,1.9-4.2,3.8-6.3,5.6c-1.7,0.6-3.4,1.2-5,1.7c0.3-0.5,1-1.4,1.3-1.9
		C166.6,107.7,167.5,103.9,166.1,99.8z"/>
</g>
<g id="_x23_9c5087ff">
	<path class="st107" d="M94.1,103.2c2.3-0.8,4.6-1.6,7-2.3c0,6.5-5.7,12.9-12.8,9.9c-7.6-4.2-17.9-0.7-26.2-4l-0.1-0.8
		c0.7-1,1.4-2,2.2-2.9c7.1,1.1,14.3,1,21.5,0.7c-0.2,2.9,1.2,4.9,4,5.5C95.7,113,97.1,106.4,94.1,103.2z"/>
</g>
<g id="_x23_b17ea3ff">
	<path class="st108" d="M85.7,103.9c2.7-1,5.6-0.3,8.4-0.7c3,3.2,1.5,9.7-4.4,6.2c2.7,0.2,6-0.8,3.6-3.8c-2.6-2.2-5.6,1-3.6,3.8
		C86.9,108.8,85.5,106.8,85.7,103.9z"/>
</g>
<g id="_x23_2e202dff">
	<path class="st109" d="M138.9,103.1c3.3,4,5.1,8.9,7.9,13.2c3.5,1,8.1-3.4,12.2-4.4c-1,1.1-2.1,2.1-3.2,3c-1.9,0.7-3.9,1.5-5.7,2.4
		c-0.1,4,4.2,6.6,4.8,10.6c-2.8,0.1-5.5,0.6-8,1.7c-1.7,0.7-3.4,1.4-5.1,2.2l-0.8,0.3c0-5.4-0.1-10.9-0.6-16.3
		c0.2-1.9,0.3-3.8-0.3-5.7c0.2-2-1.9-2.2-3.3-2.7C140.4,108,139.7,105.5,138.9,103.1z"/>
</g>
<g id="_x23_198d7fff">
	<path class="st110" d="M116.1,107.1c2.1-0.9,4.2-2,6.1-3.3c0.3,0.5,0.9,1.6,1.2,2.2c-2.2,1.6-4.6,2.7-7.3,3.2
		C116.1,108.7,116.1,107.6,116.1,107.1z"/>
</g>
<g id="_x23_93275dff">
	<path class="st111" d="M165.9,109.2c2.1-1.9,4.2-3.8,6.3-5.6c4.3,3.3,6.6,8.3,8.2,13.4c-2.1,3.2-4.6,6.5-8.2,8.2
		C177.2,119.2,167,115.3,165.9,109.2z"/>
</g>
<g id="_x23_e2c4d4ff">
	<path class="st112" d="M89.7,109.4c-1.9-2.7,1-6,3.6-3.8C95.7,108.6,92.4,109.6,89.7,109.4z"/>
</g>
<g id="_x23_d7a55bff">
	<path class="st113" d="M112.8,107.6c0.1-1.8,1.2-1.5,2.4-0.8c-0.1,2.7-0.1,5.3-0.1,8c0,0.5-0.1,1.6-0.2,2.1c-1.4,1.2-3.1,2.8-5,1.4
		c0.5-1,0.9-2.1,1.3-3.1C112.4,112.9,113,110.3,112.8,107.6z"/>
</g>
<g id="_x23_263d50ff">
	<path class="st114" d="M123.4,106c1.7,2.3,3.5,4.5,5.5,6.5c1.9,2,4.7,2.5,7.3,3.2c-3.7,4.9-2.6,14-6.1,20.4
		c-0.5,2.6-5.3,7.9,0.1,7.2c-2.8,1.5-5.5,3.1-8.2,4.8c-1.3,0.7-2.5,1.5-3.8,2.2c5-7.6,11.7-15,12.9-24.4c3.3-9.5-8.3-15.3-15.4-10.5
		c0.2-2.1,0.4-4.1,0.5-6.2C118.8,108.7,121.2,107.5,123.4,106z"/>
</g>
<g id="_x23_b9fa4cff">
	<path class="st115" d="M205,110.1c9.1-0.7,18-3.9,27.1-3.9c-1.4,0.6-2.8,1.2-4.1,1.9c-1.1,0.6-2.2,1.1-3.2,1.7
		c-7.1,1-14.2,2.1-21,4.3l-0.9,0.2C203.7,112.8,204.4,111.4,205,110.1z"/>
</g>
<g id="_x23_ecfe6dff">
	<path class="st116" d="M232.2,106.1c6.5,1.1,5.1,9.8-1.1,10c0.5-1.3,0.9-2.6,1.3-3.9c2-3.2-1.4-4.9-4.3-4.2
		C229.4,107.3,230.8,106.7,232.2,106.1z"/>
</g>
<g id="_x23_ac2658ff">
	<path class="st117" d="M62.1,106.9c8.3,3.3,18.6-0.2,26.2,4c-4.8,0.1-9.7,0.2-14.5,0.2c-0.7,0-2,0-2.7,0c-2.8-0.5-5.5-1.3-8.1-2.2
		C62.8,108.4,62.3,107.4,62.1,106.9z"/>
</g>
<g id="_x23_7b6537ff">
	<path class="st118" d="M115.2,106.8l0.8,0.3c0,0.5,0,1.6,0.1,2.1c-0.1,2.1-0.3,4.1-0.5,6.2l-0.5-0.6
		C115.1,112.1,115.2,109.4,115.2,106.8z"/>
</g>
<g id="_x23_7b6842ff">
	<path class="st119" d="M112.1,109c0.2-0.3,0.5-1,0.7-1.4c0.2,2.6-0.3,5.2-1.5,7.6c-0.1-0.8-0.2-2.5-0.3-3.3
		C111.4,111,111.7,110,112.1,109z"/>
</g>
<g id="_x23_6c334dff">
	<path class="st120" d="M131,108.3c2.9,1.2,6,1.5,9.1,1.8c0.6,1.9,0.5,3.8,0.3,5.7c-0.8,0-2.4,0.1-3.3,0.1l-0.9-0.2
		c-2.5-0.7-5.4-1.2-7.3-3.2C130.2,111.4,131.1,110,131,108.3z"/>
</g>
<g id="_x23_c0fac0ff">
	<path class="st121" d="M228.1,108c2.9-0.7,6.3,1,4.3,4.2c-0.5,0.2-1.6,0.6-2.1,0.8c-1.4-1.8-3.1-3.3-5.5-3.3
		C225.9,109.1,227,108.5,228.1,108z"/>
</g>
<g id="_x23_5b4b73ff">
	<path class="st122" d="M63,108.9c2.7,0.9,5.4,1.7,8.1,2.2C69.8,117.5,64.1,113.1,63,108.9z"/>
</g>
<g id="_x23_12766fff">
	<path class="st123" d="M102.7,109.9c3.1-0.3,6.3-0.7,9.4-0.9c-0.4,1-0.8,2-1.1,2.9C108.3,111.6,101.2,115.1,102.7,109.9z"/>
</g>
<g id="_x23_936f23ff">
	<path class="st124" d="M154.2,112c2.4-0.8,4.7-1.9,7-3l0.9,0.1c-0.3,0.5-1,1.4-1.3,1.9c-0.5,0.2-1.4,0.7-1.9,0.9
		c-4,1-8.7,5.4-12.2,4.4C149.1,114.5,151.6,113.1,154.2,112z"/>
</g>
<g id="_x23_502154ff">
	<path class="st125" d="M160.9,111c1.7-0.5,3.4-1.1,5-1.7c1.1,6,11.3,9.9,6.4,16c-1.7,0.4-3.4,0.9-5.1,1.5
		c-5.6-1.9-8.6-6.9-11.3-11.9c1.1-1,2.1-2,3.2-3C159.4,111.6,160.4,111.2,160.9,111z"/>
</g>
<g id="_x23_28dca2ff">
	<path class="st126" d="M203.9,113.9c6.8-2.2,13.9-3.2,21-4.3c2.4,0,4.1,1.6,5.5,3.3c-36.3,40.8-71.7,82.5-108.2,123.2
		c-0.5-0.1-1.6-0.3-2.1-0.4c7-9.3,18.2-16.5,22.1-27.6c4.3-1.8,7.3-5.3,10-9c4.2-5.2,9.6-9.4,13.1-15.1c7-7,13.1-14.7,19.6-22.1
		c13.6-15.1,26.7-30.7,40.3-45.8c1.2-1.2,1.2-3.4-0.5-4c-7.1-0.6-13.7,3-20.7,2.9L203.9,113.9z"/>
</g>
<g id="_x23_10384cff">
	<path class="st127" d="M58.2,110.8c5.1,5,6.7,13.7,3.5,20.2c-3.2,0.4-6-1.1-8.7-2.6c4.3-3.5,10.2-10.4,3.8-14.9
		C57.4,112.6,57.8,111.7,58.2,110.8z"/>
</g>
<g id="_x23_1b89a3ff">
	<path class="st128" d="M204,115c7.1,0.1,13.6-3.5,20.7-2.9c1.7,0.6,1.7,2.9,0.5,4c-13.6,15.1-26.7,30.7-40.3,45.8l0.1-1.1
		c0.1-0.4,0.3-1.3,0.4-1.7c0.2-0.3,0.5-0.9,0.6-1.2c11.3-14,23.4-27.3,35-41c-3.6-4.5-11.7,0.2-17-1L204,115z"/>
</g>
<g id="_x23_b3fb4fff">
	<path class="st129" d="M230.3,113c0.5-0.2,1.6-0.6,2.1-0.8c-0.4,1.3-0.8,2.6-1.3,3.9C196.5,155.9,162,195.9,127,235.2
		c-1.3,1-2.5,2.1-3.8,3.1c-0.3-0.4-1.1-1.1-1.4-1.4l0.3-0.8C158.6,195.5,194,153.8,230.3,113z"/>
</g>
<g id="_x23_1d7674ff">
	<path class="st130" d="M54.9,116c0.7-0.8,1.3-1.7,2-2.5c6.4,4.4,0.5,11.4-3.8,14.9c-1.2-1-2.3-2.2-3.4-3.4l0.4-0.8
		c0.3-0.5,0.9-1.6,1.2-2.1c0.3-0.5,0.9-1.6,1.2-2.1C53.3,118.6,54.1,117.3,54.9,116z"/>
</g>
<g id="_x23_1d6288ff">
	<path class="st131" d="M72.3,114.1c3.6-2.4,9,2.7,5.6,5.8c-2.2,3.4-4.3,6.8-7.3,9.5C67.6,125.2,68,117.7,72.3,114.1z"/>
</g>
<g id="_x23_1e8d88ff">
	<path class="st132" d="M115.6,115.4c7.1-4.8,18.8,1,15.4,10.5c-3.4,5.7-1.1-3.4-2.7-6.1c-1.2-1.7-3-3.2-5.2-2.8
		c1.8,8.7-0.7,17.4-5.9,24.5c-0.3-0.6-1-1.9-1.3-2.5C120.5,132,124.9,120.2,115.6,115.4z"/>
</g>
<g id="_x23_a98c48ff">
	<path class="st133" d="M183.8,117.2c6.4-0.8,13-1.1,19.2-3l0.9-0.2l0.1,1.1l0.1,1c-0.4,1-0.7,2-1.1,2.9c-5.4,0-10.7,0.1-16.1,0.1
		C185.8,118.4,184.8,117.8,183.8,117.2z"/>
</g>
<g id="_x23_1b3240ff">
	<path class="st134" d="M115.1,114.8l0.5,0.6c9.3,4.9,4.9,16.6,0.2,23.6c-8.1,12.3-22.2,18.2-36.5,14.2c-0.1,0.4-0.3,1.4-0.4,1.8
		l-0.7,0.1c-0.1-0.5-0.3-1.5-0.4-2c-0.2-0.6-0.5-1.7-0.7-2.3l0-0.9c6.3,0.7,13.1,2.1,19.1,0.4c3.7-2.7-4.5-0.9-6.4-1.9
		c0.4-0.7,1.1-2,1.5-2.7c0.3,0,0.9,0.1,1.2,0.1c1.1,3.1,6.3,0.8,6.7,5c1,3,1.4-1.2,2-2.3c7.8-6.1,14.2-16.7,12.1-26.8
		c0.6-1.6,1.2-3.2,1.6-4.8C115,116.4,115.1,115.3,115.1,114.8z"/>
</g>
<g id="_x23_2e234eff">
	<path class="st135" d="M150.1,117.3c1.8-1,3.7-1.7,5.7-2.4c2.7,4.9,5.7,10,11.3,11.9c-2.7,2-5.5,3.9-8.4,5.6
		c-0.9-0.4-1.9-0.8-2.8-1.3c-0.4-1.1-0.7-2.1-1.1-3.2C154.4,123.9,150.1,121.3,150.1,117.3z"/>
</g>
<g id="_x23_285393ff">
	<path class="st136" d="M204.1,116c5.3,1.2,13.4-3.5,17,1c-11.6,13.7-23.8,27-35,41c0.1-3.4,0.2-6.9-0.8-10.2l0.1-0.8
		c9.9,1.2,11.3-11.9,14.7-18.8c-9.5,3.9,0.9-9.8-9.5-3.2c-0.9-1-1.8-1.9-2.6-2.9c0-0.5,0.1-1.5,0.1-2c4.5-1,11.3,1.6,14.9-1.2
		C203.3,118,203.7,117,204.1,116z"/>
</g>
<g id="_x23_163c63ff">
	<path class="st137" d="M79.5,122.6c3.5-5,9.6-6.9,15.4-6.6c3.9,0.3,3.3,8.7-0.6,7.8c-1.4-3.2-6-5.8-7.2-0.8
		c-1.5,6.4-13.7,10.6-16.6,6.3c3-2.7,5.2-6.2,7.3-9.5C78.2,121.1,77.5,124.2,79.5,122.6z"/>
</g>
<g id="_x23_22746fff">
	<path class="st138" d="M73.9,133.2c14.9,4.7,23.9-10.5,35-17.1c0.1,0.5,0.3,1.5,0.4,2c-1.2,1-2.5,1.8-3.8,2.7
		c-1.4,0.9-2.8,1.9-4,3.1c-2.9,2.8-5.8,5.6-8.3,8.8c-5.7,2.5-12.1,4.9-18.5,3.5C73.8,135,70.1,132,73.9,133.2z"/>
</g>
<g id="_x23_1b7273ff">
	<path class="st139" d="M130.1,136.1c3.5-6.4,2.4-15.6,6.1-20.4l0.9,0.2c0.6,9.7-2.1,19.2-7,27.4C124.7,144,129.6,138.8,130.1,136.1
		z"/>
</g>
<g id="_x23_131514ff">
	<path class="st140" d="M137.1,115.9c0.8,0,2.4-0.1,3.3-0.1c0.6,5.4,0.6,10.9,0.6,16.3c0,2.6,0,5.3,0,7.9c-3.7,1-7.2,2.2-10.9,3.3
		C135.1,135.1,137.7,125.6,137.1,115.9z"/>
</g>
<g id="_x23_72521dff">
	<path class="st141" d="M109.9,118.3c1.9,1.3,3.6-0.3,5-1.4c-0.4,1.7-1,3.2-1.6,4.8l-1,0.3c-2.3,0.4-6.3,2.5-6.9-1.2
		c1.3-0.9,2.6-1.8,3.8-2.7L109.9,118.3z"/>
</g>
<g id="_x23_15414dff">
	<path class="st142" d="M123.1,116.9c2.2-0.3,4,1.1,5.2,2.8c0.5,23.9-26.1,46.1-49.7,37.9c0.1-0.7,0.2-2,0.3-2.7
		c13.6,5.4,31-0.7,38.2-13.5C122.4,134.4,124.9,125.7,123.1,116.9z"/>
</g>
<g id="_x23_402a18ff">
	<path class="st143" d="M180.4,117c1.1,0.1,2.3,0.1,3.4,0.2c1,0.6,2,1.3,3,1.9c0.3,0.3,0.9,0.8,1.2,1.1c0,0.5-0.1,1.5-0.1,2
		c-2.2-3.2-6.2-4.2-8.2-0.2c-2,2-4.4,3.7-6.8,5.2c-2.6,1.7-5.4,3.1-7.7,5.1c-1.1,3.3,2.8,4.5,5,5.8c-1.3-0.1-2.6-0.2-3.9-0.3
		c-5.8,0.8-10-0.8-10.2-6.7c0.9,0.5,1.8,0.9,2.8,1.3c5.1,1.3,9.3-4.6,13.5-7.1C175.8,123.5,178.3,120.2,180.4,117z"/>
</g>
<g id="_x23_f1d8bfff">
	<path class="st144" d="M33.4,118.9c6.3,0.2,12.8-0.2,19,1.1c-0.3,0.5-0.9,1.6-1.2,2.1C49.3,116.3,34.9,123,33.4,118.9z"/>
</g>
<g id="_x23_9e216cff">
	<path class="st145" d="M179.6,121.9c2.1-4,6-3,8.2,0.2c0.9,1,1.7,1.9,2.6,2.9c0.9,1.7,1.9,3.3,2.8,4.9c-0.8,3-2.4,5.9-4.3,8.3
		C183.7,134.5,182,127.6,179.6,121.9z"/>
</g>
<g id="_x23_616473ff">
	<path class="st146" d="M186.8,119.1c5.4-0.1,10.7-0.1,16.1-0.1c-3.6,2.8-10.4,0.2-14.9,1.2C187.7,119.9,187.1,119.4,186.8,119.1z"
		/>
</g>
<g id="_x23_1d7271ff">
	<path class="st147" d="M128.3,119.8c1.7,2.7-0.7,11.8,2.7,6.1c-1.2,9.4-7.9,16.8-12.9,24.4c-0.8,0.5-1.6,1.1-2.3,1.6
		c-6.1,5.3-14.3,7.1-21,11.1c7.1-0.2,13.7-3.5,20.1-6.3c0.4,0.3,1.1,1,1.4,1.3c-9,8.5-30.3,11.7-37.7-0.4
		C102.2,165.9,128.8,143.7,128.3,119.8z"/>
</g>
<g id="_x23_471f3fff">
	<path class="st148" d="M101.5,123.9c1.2-1.2,2.5-2.2,4-3.1c0.6,3.6,4.6,1.5,6.9,1.2c-0.5,3.9-1.5,7.7-3.1,11.3
		C106.4,130.4,103.6,127.5,101.5,123.9z"/>
</g>
<g id="_x23_267476ff">
	<path class="st149" d="M112.4,122l1-0.3c2.1,10.1-4.3,20.7-12.1,26.8c-0.3-0.6-0.9-1.8-1.2-2.4c4.5-3.2,7.5-7.7,9.2-12.8
		C110.9,129.7,111.9,125.9,112.4,122z"/>
</g>
<g id="_x23_5c2352ff">
	<path class="st150" d="M172.8,127.1c2.4-1.5,4.8-3.2,6.8-5.2c2.3,5.7,4.1,12.6,9.4,16.3c2-2.4,3.5-5.2,4.3-8.3
		c2.2,6.5-5.6,11.5-8,17.1l-0.1,0.8c-0.1,0.8-0.2,2.5-0.3,3.4c-2.1-4.5-5.3-9-10.9-9.2c1.7-0.2,6,1.3,4.4-1.7
		C176.8,135.8,173.3,132,172.8,127.1z"/>
</g>
<g id="_x23_e7a142ff">
	<path class="st151" d="M32.7,125.7c-1.5-3.5,12.8-1.4,17.4-1.6l-0.4,0.8l-0.8,0C43.5,125,38,124.8,32.7,125.7z"/>
</g>
<g id="_x23_1a1312ff">
	<path class="st152" d="M93.2,132.8c2.5-3.2,5.4-6,8.3-8.8c2,3.5,4.9,6.4,7.8,9.3c-1.8,5.1-4.8,9.7-9.2,12.8c-2.3-1.4-5-0.8-7.5-0.3
		c-0.3,0-0.9-0.1-1.2-0.1c-2.7,0.1-7.3-2.2-8.5,0.9l-0.8,0c-0.5-3.3-2.8-2.1-4.9-0.8c-0.5-2.5-2.3-4.4-3.4-6.6
		c5.9,2.2,13-1.8,18.3,1.6C93.8,138.4,93.8,135.6,93.2,132.8z"/>
</g>
<g id="_x23_a27d50ff">
	<path class="st153" d="M190.5,125c10.5-6.6,0.1,7.1,9.5,3.2c-3.4,6.8-4.9,20-14.7,18.8c2.4-5.5,10.2-10.5,8-17.1
		C192.4,128.3,191.4,126.7,190.5,125z"/>
</g>
<g id="_x23_cf3a7eff">
	<path class="st154" d="M32.7,125.7c5.4-0.9,10.8-0.8,16.2-0.7c2.9,5.3-2.7,9.6-5.2,13.9c-0.7,0.9-1.2,2-1.7,3l-0.9,0
		c-0.6-0.9-1.2-1.8-1.8-2.7c-0.3-0.6-0.9-1.7-1.2-2.2c-1.2-2.8-2.1-5.7-4.1-8C33.1,128.1,32.7,127,32.7,125.7z"/>
</g>
<g id="_x23_927023ff">
	<path class="st155" d="M167.1,126.7c1.7-0.6,3.4-1.1,5.1-1.5c-4.2,2.5-8.4,8.4-13.5,7.1C161.7,130.7,164.4,128.7,167.1,126.7z"/>
</g>
<g id="_x23_36264fff">
	<path class="st156" d="M165.1,132.2c2.3-2,5.1-3.4,7.7-5.1c0.5,4.9,4,8.6,5.6,13.1c-2.8-0.8-5.6-1.4-8.4-2.2
		C167.9,136.7,164,135.5,165.1,132.2z"/>
</g>
<g id="_x23_8b6c21ff">
	<path class="st157" d="M146.9,129.6c2.5-1.1,5.3-1.7,8-1.7c0.4,1.1,0.7,2.1,1.1,3.2c0.2,5.9,4.5,7.5,10.2,6.7
		c-8.5-0.5-16.9,1-25.2,2.3c0-2.6,0-5.3,0-7.9l0.8-0.3c-3.9,11.1,6.2,5.6,11.2,4.2C151.6,133.3,150.3,129.8,146.9,129.6z"/>
</g>
<g id="_x23_eba276ff">
	<path class="st158" d="M34,129c2,2.3,3,5.2,4.1,8C35.4,135.8,34.3,131.9,34,129z"/>
</g>
<g id="_x23_cfab46ff">
	<path class="st159" d="M141.8,131.8c1.7-0.8,3.4-1.5,5.1-2.2c3.5,0.2,4.8,3.7,6.1,6.4C148,137.4,137.9,142.9,141.8,131.8z"/>
</g>
<g id="_x23_a78b42ff">
	<path class="st160" d="M74.7,136.3c6.3,1.4,12.7-1,18.5-3.5c0.7,2.8,0.7,5.6-1,8c-5.3-3.4-12.4,0.6-18.3-1.6
		C74.1,138.2,74.4,137.2,74.7,136.3z"/>
</g>
<g id="_x23_caa113ff">
	<path class="st161" d="M141,140c8.4-1.2,16.7-2.8,25.2-2.3c1.3,0.1,2.6,0.2,3.9,0.3c2.8,0.8,5.6,1.4,8.4,2.2c1.6,3-2.7,1.5-4.4,1.7
		c-1.4-0.3-4.4-0.9-5.8-1.2c-5.8-1-11.8-1.2-17.6-0.2c-3.6,0.6-7.3,1.3-10.9,2.1c-3.9,0.9-7.6,2.3-11.2,4.1
		c-1.8,0.8-3.6,1.7-5.5,2.5c-0.3-0.3-0.9-0.9-1.2-1.2c2.7-1.7,5.4-3.2,8.2-4.8C133.8,142.2,137.3,141,141,140z"/>
</g>
<g id="_x23_b0f94aff">
	<path class="st162" d="M39.3,139.2c0.6,0.9,1.2,1.8,1.8,2.7c-8.8,0.6-17.3,3.6-26.2,4.1c-0.8-0.1-2.5-0.3-3.3-0.5
		c2.1-1.1,4.3-1.7,6.5-2.5C25.1,141.2,32.4,141.1,39.3,139.2z"/>
</g>
<g id="_x23_194146ff">
	<path class="st163" d="M42,141.9c0.5-1,1-2.1,1.7-3c1.2,3.1,4.5,3.8,7.2,5.3c1.5,2.2,1.5,5,2.5,7.3c2,0.6,4.9,0.7,4.8,3.5
		c-5.6-0.4-10-5.3-15.5-5.3c-1.4-0.8-2.3-2.2-3-3.6c0.3-0.5,1-1.6,1.3-2.1C41.2,143.5,41.7,142.4,42,141.9z"/>
</g>
<g id="_x23_1e7274ff">
	<path class="st164" d="M79.3,153.2c14.4,4,28.5-1.8,36.5-14.2c0.3,0.6,1,1.9,1.3,2.5c-7.2,12.8-24.6,18.9-38.2,13.5
		C79,154.5,79.2,153.6,79.3,153.2z"/>
</g>
<g id="_x23_805d15ff">
	<path class="st165" d="M150.7,140.6c5.8-1.1,11.8-0.8,17.6,0.2c-4,0.1-8,0.2-12,0.4C154.4,141,152.5,140.8,150.7,140.6z"/>
</g>
<g id="_x23_37365aff">
	<path class="st166" d="M139.8,142.7c3.6-0.8,7.2-1.5,10.9-2.1c1.9,0.2,3.7,0.4,5.6,0.6c-6.6,1.5-1.3,9.6,1.7,12.6
		c-0.8,0.1-2.4,0.3-3.1,0.5c-1.9,0.3-3.7,0.6-5.6,0.9C148.4,149.7,146.9,141.3,139.8,142.7z"/>
</g>
<g id="_x23_602153ff">
	<path class="st167" d="M156.2,141.1c4-0.2,8-0.3,12-0.4c1.4,0.3,4.4,0.9,5.8,1.2c-4,0-8.1,0-12.1,0.1c2.4,3.9,5.2,7.5,8.2,10.9
		c-4.1,0.1-8.1,0.4-12.2,0.8C154.9,150.8,149.6,142.6,156.2,141.1z"/>
</g>
<g id="_x23_26daa1ff">
	<path class="st168" d="M15,146c8.8-0.6,17.3-3.6,26.2-4.1l0.9,0c-0.2,0.5-0.8,1.6-1,2.1c-8,0.9-16,2.3-23.9,4.2
		c-2.3,0.3-2.4,3-2.9,4.8c8.6,7.8,17.3,15.6,26.6,22.6c6.8,2.8,9.6,10.4,15.9,13.9c2.4,1.9,4.8,3.8,7.3,5.7c0-3.4-0.1-6.8-0.1-10.2
		c0.5-1.7,1.1-3.4,1.7-5.1c0.7,1.7,1.5,3.4,2.3,5c-4.7,4.4-2.6,12.7,2.3,16c6.9,5.8,13.6,11.9,20.8,17.4c6.5,6,13.1,11.8,20.1,17.1
		c-0.6,0.2-1.7,0.8-2.3,1c-32.8-28.7-66.5-56.3-99.3-85C13.5,152,14.5,149.3,15,146z"/>
</g>
<g id="_x23_9c206aff">
	<path class="st169" d="M161.9,142c4.1-0.1,8.1-0.1,12.1-0.1c5.6,0.2,8.8,4.7,10.9,9.2c-1.4,4.5-10.2,1-14.8,1.8
		C167.1,149.5,164.3,145.9,161.9,142z"/>
</g>
<g id="_x23_ecfe68ff">
	<path class="st170" d="M7.9,153.7c-11.2-5.7,3.2-13.5,10.3-10.6c-2.2,0.7-4.5,1.4-6.5,2.5c-2.7,0.7-4.4,2.5-3.1,5.2
		C8.4,151.8,8.1,152.7,7.9,153.7z"/>
</g>
<g id="_x23_185e70ff">
	<path class="st171" d="M128.6,146.8c3.5-1.8,7.3-3.1,11.2-4.1c7.1-1.4,8.6,7,9.5,12.4c-5.3,1.3-10.5,3.7-15.9,3.8
		C131.4,155,130,150.9,128.6,146.8z"/>
</g>
<g id="_x23_2088a4ff">
	<path class="st172" d="M17.1,148.1C25,146.3,33,144.8,41,144c-0.3,0.5-1,1.6-1.3,2.1c-7.2,0.6-14.6,1.8-21.4,4.2
		c-2.4,0.5-0.3,2.8,0.6,3.8c7.5,6.6,15.2,12.9,23,19.1c0,0.5-0.1,1.4-0.1,1.9l-0.9,0.4c-9.2-7-17.9-14.8-26.6-22.6
		C14.7,151.1,14.8,148.4,17.1,148.1z"/>
</g>
<g id="_x23_625533ff">
	<path class="st173" d="M77.2,145.8c2.1-1.2,4.4-2.5,4.9,0.8c-2,0.2-5.7,0.2-5,3.3l0,0.9C73.4,151.5,75,146.8,77.2,145.8z"/>
</g>
<g id="_x23_9b7d3dff">
	<path class="st174" d="M82.9,146.7c1.2-3.1,5.8-0.8,8.5-0.9c-0.4,0.7-1.1,2-1.5,2.7C87.5,147.8,85.2,147.1,82.9,146.7z"/>
</g>
<g id="_x23_9a7b3aff">
	<path class="st175" d="M92.6,145.8c2.5-0.5,5.2-1.1,7.5,0.3c0.3,0.6,0.9,1.8,1.2,2.4c-0.6,1.1-1,5.3-2,2.3
		C98.8,146.6,93.7,148.9,92.6,145.8z"/>
</g>
<g id="_x23_b7f2c9ff">
	<path class="st176" d="M8.6,150.8c-1.3-2.8,0.4-4.5,3.1-5.2c0.8,0.1,2.5,0.3,3.3,0.5c-0.5,3.2-1.5,6-5.4,5.2L8.6,150.8z"/>
</g>
<g id="_x23_275094ff">
	<path class="st177" d="M18.3,150.3c6.8-2.4,14.2-3.6,21.4-4.2c0.7,1.4,1.6,2.8,3,3.6c3.2,2.4,6.7,4.5,10.2,6.5
		c1.5,1.6,2.9,3.1,4.3,4.7c-6.2,2.3-12.4,6.2-15.4,12.3c-7.8-6.1-15.5-12.5-23-19.1C18,153.1,15.9,150.8,18.3,150.3z"/>
</g>
<g id="_x23_337b76ff">
	<path class="st178" d="M77.1,149.9c-0.7-3,3-3,5-3.3l0.8,0c2.4,0.4,4.7,1.1,7,1.7c1.9,1.1,10.1-0.7,6.4,1.9
		C90.2,152,83.4,150.6,77.1,149.9z"/>
</g>
<g id="_x23_103345ff">
	<path class="st179" d="M123.1,149.3c1.8-0.8,3.6-1.7,5.5-2.5c1.4,4.1,2.9,8.2,4.7,12.1c5.4-0.1,10.6-2.5,15.9-3.8
		c1.9-0.3,3.7-0.6,5.6-0.9c1.9,7.3,6.8,13.1,10.8,19.2c1.6,2.7,4.5,0.4,6.7-0.1c-3.9,4.2-7.2,10.4-13.2,11.7
		c-2.3-3.9-1.1-9.5-4.4-13c-3.7-0.3-7.3,0.5-10.9,1c-1.1,0.1-2.1,0.3-3.1,0.6c-12.4,2-5.9,14.7-5.4,23c1.8,3.1,6.9,1,9.9,0.6
		c2-0.1,6.2-1.5,3.8,1.7c-1.8,0-5.3-0.1-7.1-0.1l-1,0c-11.3,0.5-5.4,15.4-10.9,22.2c-1.3,1.7-2.7,3.3-4,5c0.9-8.6,0.9-17.4,4.2-25.5
		c-6-6.5-4.6-17.9-0.6-25.3c-6.2-1.7-1.7-9.6,0.2-13.1c-4.2-2.2-6.3-7.5-7.2-12.3L123.1,149.3 M139.9,159.8c-3.9-0.1-7.4,3.2-7,7.2
		c-3.6,8.7,7.8,5.4,10.1,4.1l1-0.1c4.4-1.2,14.3-0.5,10-8C153.8,155.6,144,157.8,139.9,159.8z"/>
</g>
<g id="_x23_8c7011ff">
	<path class="st180" d="M118.2,150.2c1.2-0.7,2.5-1.4,3.8-2.2c0.3,0.3,0.9,0.9,1.2,1.2l-0.5,0.7c-6.2,2.1-6.5,7.8-1.1,11.2
		c-2.3,0.8-3.5-2-5.2-3.1c-0.3-0.3-1.1-1-1.4-1.3c0.2-1.6,0.5-3.3,0.9-4.9C116.6,151.3,117.4,150.8,118.2,150.2z"/>
</g>
<g id="_x23_2e1d3fff">
	<path class="st181" d="M185.2,147.8c1.1,3.3,0.9,6.8,0.8,10.2c-0.2,0.3-0.5,0.9-0.6,1.2c-0.3-3.1-2.1-6.5-6.4-4.2
		c-5.3,0.4-12.4-2.1-15.9,3.3c3,5,8.3,7.3,13.2,9.9c-1.2,1.8-2.5,3.5-3.9,5.2c-2.1,0.6-5.1,2.8-6.7,0.1c-4-6.2-8.9-12-10.8-19.2
		c0.8-0.1,2.3-0.3,3.1-0.5c4-0.4,8.1-0.7,12.2-0.8c4.6-0.7,13.4,2.7,14.8-1.8C185,150.3,185.2,148.6,185.2,147.8z"/>
</g>
<g id="_x23_091729ff">
	<path class="st182" d="M121.5,161.2c-5.4-3.5-5-9.1,1.1-11.2c0.9,4.8,3,10.1,7.2,12.3c-1.9,3.5-6.4,11.4-0.2,13.1
		c-4.1,7.4-5.4,18.8,0.6,25.3c-3.3,8.1-3.3,17-4.2,25.5c-2.5,3.7-5.8,8-10.8,7.6c-4.7-2.3-11.4-4.6-12.7-10.4
		c0.1-7.7,1.4-15.6-0.7-23.1c4.4-0.2,8.9-0.1,13.4-0.7c1.2-0.1,2.5-0.3,3.8-0.5c1-0.2,2-0.4,3.1-0.6c5.2,1,4.8-7.6,0-4.1
		c-0.5,0.2-1.5,0.6-2,0.8c-0.7,0.1-2.2,0.2-2.9,0.3c-0.8-0.1-2.4-0.2-3.2-0.3c6.3-5.4-1-15.3-1-22.3c3.2-2.4,7.9-3.8,9.3-7.7
		C123.1,163.7,122.9,162.1,121.5,161.2z"/>
</g>
<g id="_x23_b4fb4fff">
	<path class="st183" d="M7.9,153.7c0.2-0.9,0.5-1.9,0.7-2.9l1,0.4c32.8,28.6,66.6,56.2,99.3,85c0.2,0.5,0.7,1.5,1,2l-1.1,0
		c-0.6-0.1-1.9-0.3-2.5-0.4C73.7,209.5,40.4,182.1,7.9,153.7z"/>
</g>
<g id="_x23_124d52ff">
	<path class="st184" d="M94.8,163c6.7-4,14.9-5.8,21-11.1c-0.4,1.6-0.7,3.2-0.9,4.9C108.5,159.5,101.9,162.8,94.8,163z"/>
</g>
<g id="_x23_b92d77ff">
	<path class="st185" d="M52.9,156.2c8.8,2.2,16-5.8,24.9-3.1c0.1,0.5,0.3,1.5,0.4,2c-3.5,0.7-6.9,1.5-10.3,2.7
		c-3.5,0.4-6.7,1.8-9.9,3.2l-0.9-0.1C55.8,159.3,54.3,157.7,52.9,156.2z"/>
</g>
<g id="_x23_0d2030ff">
	<path class="st186" d="M78.3,155.1l0.7-0.1c-0.1,0.7-0.2,2-0.3,2.7c-0.4,0.3-1.1,0.8-1.5,1.1c-0.9,0.9-1.7,2-2.4,3.1
		c-3.4,5.6-7.2,11.4-7.1,18.3c-0.8-1.4-1.8-3.3-2.1-0.4c-0.6,1.7-1.2,3.4-1.7,5.1c0.3,12-7.8,0.5-10.7-3.1
		c-1.5-11,12.3-13.6,16.7-21.9c4.9-1.8,1.6-2-2-2C71.3,156.6,74.8,155.8,78.3,155.1z"/>
</g>
<g id="_x23_6c2053ff">
	<path class="st187" d="M163.1,158.3c3.5-5.4,10.6-3,15.9-3.3c4.4-2.3,6.1,1.2,6.4,4.2c-0.1,0.4-0.3,1.3-0.4,1.7
		c-3.4,1.8-6.1,4.6-8.8,7.2C171.4,165.6,166.1,163.3,163.1,158.3z"/>
</g>
<g id="_x23_12444eff">
	<path class="st188" d="M58.1,161c3.2-1.4,6.4-2.8,9.9-3.2c-3.3,2.6-8.8,2.7-10.3,7.1c4.1-1.6,8-3.9,12.3-5.1
		c-4.4,8.3-18.2,10.9-16.7,21.9c2.9,3.6,10.9,15.1,10.7,3.1c0,3.4,0.1,6.8,0.1,10.2c-2.5-1.9-4.9-3.8-7.3-5.7
		c-2.5-3.6-5.6-6.8-7.5-10.7c-1.5-5.9,4-9.5,6.7-13.8c-5.5,1.8-8.3,7.6-13.4,10C46.3,168.7,52.6,165.2,58.1,161z"/>
</g>
<g id="_x23_0d7972ff">
	<path class="st189" d="M68,157.8c3.6,0,6.8,0.2,2,2c-4.3,1.3-8.1,3.6-12.3,5.1C59.1,160.5,64.7,160.4,68,157.8z"/>
</g>
<g id="_x23_2c271bff">
	<path class="st190" d="M77.1,158.8c0.4-0.3,1.1-0.8,1.5-1.1c7.4,12.1,28.7,8.9,37.7,0.4c1.7,1.1,2.9,3.9,5.2,3.1
		c1.4,0.9,1.6,2.5,0.7,3.9c-5.2,3.4-10.7,6.4-16.5,8.7c-7,2.5-14.2,1.8-21.5,1.4c-0.2,0.5-0.5,1.4-0.6,1.9l-0.7-0.2
		c-0.3-0.2-0.8-0.5-1.1-0.6c1.8-2.4-1.3-3.9-2.5-5.7C77.2,167.1,78.2,162.6,77.1,158.8z"/>
</g>
<g id="_x23_175672ff">
	<path class="st191" d="M139.9,159.8c4.1-2,13.9-4.2,14.1,3.2c4.3,7.5-5.6,6.8-10,8C143.4,167.4,146.3,159.3,139.9,159.8z"/>
</g>
<g id="_x23_ceac1dff">
	<path class="st192" d="M74.8,161.9c0.7-1.1,1.4-2.2,2.4-3.1c1.1,3.8,0.1,8.3,2.3,11.8c1.2,1.8,4.3,3.2,2.5,5.7
		c-1.3-0.7-2.6-1.5-3.8-2.2C75.2,170.7,75,166.1,74.8,161.9z"/>
</g>
<g id="_x23_105b64ff">
	<path class="st193" d="M132.9,167c-0.4-4,3.1-7.2,7-7.2c1.6,3.2-3.1,12.3,3.1,11.3C140.8,172.4,129.3,175.7,132.9,167z"/>
</g>
<g id="_x23_109890ff">
	<path class="st194" d="M139.9,159.8c6.4-0.5,3.5,7.7,4.1,11.2l-1,0.1C136.8,172.1,141.5,162.9,139.9,159.8z"/>
</g>
<g id="_x23_9d8831ff">
	<path class="st195" d="M41.8,173.2c3-6.1,9.2-10,15.4-12.3l0.9,0.1c-5.5,4.3-11.8,7.7-15.5,13.8l-0.9,0.4
		C41.8,174.6,41.8,173.7,41.8,173.2z"/>
</g>
<g id="_x23_1b576eff">
	<path class="st196" d="M176.2,168.2c2.7-2.7,5.4-5.4,8.8-7.2l-0.1,1.1c-6.5,7.4-12.6,15.2-19.6,22.1c-4.1,2.1-7.1,7.7-12.1,6.9
		c-2.1-6.6-0.7-15.9-9.4-17.9c3.6-0.5,7.2-1.3,10.9-1c3.3,3.5,2.1,9,4.4,13c6-1.3,9.3-7.5,13.2-11.7
		C173.8,171.7,175,169.9,176.2,168.2z"/>
</g>
<g id="_x23_11b7a3ff">
	<path class="st197" d="M67.7,180.2c-0.2-6.9,3.7-12.7,7.1-18.3c0.2,4.2,0.4,8.8,3.3,12.2c-2.7,3-4.1,10.3-9.3,8.3
		C68.5,181.9,67.9,180.7,67.7,180.2z"/>
</g>
<g id="_x23_0d8778ff">
	<path class="st198" d="M42.6,174.8c5.1-2.4,7.9-8.2,13.4-10c-2.8,4.3-8.2,8-6.7,13.8c1.9,3.9,5,7.1,7.5,10.7
		c-6.3-3.5-9.2-11.1-15.9-13.9l0.9-0.4L42.6,174.8z"/>
</g>
<g id="_x23_9e7f19ff">
	<path class="st199" d="M105.8,173.8c5.8-2.4,11.2-5.3,16.5-8.7c-1.4,3.9-6.1,5.3-9.3,7.7c-1.9,0.8-3.8,1.6-5.7,2.2
		C106.9,174.7,106.1,174.1,105.8,173.8z"/>
</g>
<g id="_x23_132642ff">
	<path class="st200" d="M107.2,175c1.9-0.7,3.8-1.5,5.7-2.2c0,7,7.3,16.9,1,22.3c0.8,0.1,2.4,0.2,3.2,0.3c-3,0.3-6.1,0.8-9.2,0.8
		l-0.1-0.8c0.1-6.6-2.2-12.9-4-19.1C105.1,175.8,106.2,175.4,107.2,175z"/>
</g>
<g id="_x23_177082ff">
	<path class="st201" d="M140.7,173.7c1-0.3,2-0.5,3.1-0.6c8.7,2,7.3,11.3,9.4,17.9c5.1,0.8,8-4.7,12.1-6.9
		c-3.5,5.7-8.9,9.9-13.1,15.1c-0.8,0-2.4-0.1-3.2-0.1c2.4-3.2-1.8-1.8-3.8-1.7l-1.1-0.1c-2.9-6.1,4.9-20.8-3.2-22.6L140.7,173.7z"/>
</g>
<g id="_x23_16777cff">
	<path class="st202" d="M78.1,174.1c1.3,0.8,2.5,1.5,3.8,2.2c0.3,0.2,0.8,0.5,1.1,0.6c3.4,5.6-3.6,12.2-9.3,10.5c-2-1.2-4-2.8-4.9-5
		C73.9,184.4,75.4,177,78.1,174.1z"/>
</g>
<g id="_x23_cba51aff">
	<path class="st203" d="M84.3,175.2c7.2,0.3,14.5,1,21.5-1.4c0.4,0.3,1.1,0.9,1.5,1.2c-1.1,0.4-2.2,0.8-3.2,1.2
		c-0.6,0.2-1.7,0.6-2.3,0.7c-1.3,0.3-2.6,0.6-3.9,1c-4.7-0.2-9.6,0.9-14.2-0.8C83.8,176.7,84.2,175.7,84.3,175.2z"/>
</g>
<g id="_x23_115861ff">
	<path class="st204" d="M135.3,196.7c-0.5-8.3-7-21.1,5.4-23l0.2,1c0.1,7.4-0.1,14.8,0.1,22.2c0.8,0.1,2.3,0.3,3.1,0.4l1.1,0.1
		C142.2,197.7,137.1,199.8,135.3,196.7z"/>
</g>
<g id="_x23_0ea395ff">
	<path class="st205" d="M140.9,174.6c8.1,1.8,0.3,16.5,3.2,22.6c-0.8-0.1-2.3-0.3-3.1-0.4C140.8,189.4,141,182,140.9,174.6z"/>
</g>
<g id="_x23_117174ff">
	<path class="st206" d="M101.7,176.9c0.6-0.2,1.7-0.6,2.3-0.7c1.8,6.2,4,12.5,4,19.1C104.8,190.3,105.3,182.5,101.7,176.9z"/>
</g>
<g id="_x23_1a5863ff">
	<path class="st207" d="M83,176.9l0.7,0.2c4.5,1.6,9.5,0.6,14.2,0.8c1.7,8.7-5.3,16.8-14.1,14.4c-3.6-1.1-7-2.7-10-4.8
		C79.4,189.1,86.4,182.5,83,176.9z"/>
</g>
<g id="_x23_184055ff">
	<path class="st208" d="M97.8,177.9c1.3-0.4,2.6-0.7,3.9-1c3.5,5.6,3.1,13.3,6.2,18.4l0.1,0.8c-5.7-0.1-11.4-0.7-17.1-1.1
		c-0.9,3.1,2,3.2,4.2,3.6c-4,5.2-2.7,17.9,4.4,22.3c0.3-0.5,1-1.6,1.3-2.1c-0.1,1.5,0.1,3-1.1,4.2c-8.9-5.8-14.7-15.3-13.7-26.1
		c7.5,1,1.9-4.7-2.4-4.6C92.5,194.7,99.5,186.6,97.8,177.9z"/>
</g>
<g id="_x23_bea11dff">
	<path class="st209" d="M65.6,179.7c0.3-2.8,1.3-1,2.1,0.4c0.3,0.6,0.8,1.7,1.1,2.2c1,2.2,2.9,3.8,4.9,5c3.1,2.1,6.5,3.7,10,4.8
		c4.3,0,9.9,5.7,2.4,4.6c-2.9-1.5-6-2.8-9-4.2c-3.1-2.7-6.1-5.3-9.2-8C67.1,183.1,66.3,181.4,65.6,179.7z"/>
</g>
<g id="_x23_109681ff">
	<path class="st210" d="M70.3,200.7c-5-3.3-7.1-11.6-2.3-16c3,2.7,6.1,5.3,9.2,8c-5.6,11.8,10.5,16.2,14,25.4
		C83.9,212.6,77.2,206.5,70.3,200.7z"/>
</g>
<g id="_x23_136d6fff">
	<path class="st211" d="M77.1,192.7c3,1.4,6.1,2.7,9,4.2c-0.9,10.9,4.8,20.3,13.7,26.1c1.1-1.1,1-2.7,1.1-4.2
		c0.3-1.7-0.4-3.8,0.8-5.2c0.3,3.2,0,6.5,0.9,9.7c1.3,5.8,7.9,8,12.7,10.4c5,0.4,8.3-3.9,10.8-7.6c1.3-1.7,2.7-3.3,4-5
		c7.8-5.4,8.4-14.1,10.9-22.2l1,0c0.1,3.1,0.1,6.2,0.2,9.2c-3.9,11.1-15.1,18.3-22.1,27.6c-3-0.3-5.9-0.6-8.9-0.6
		c-7-5.3-13.6-11.1-20.1-17.1C87.6,208.9,71.4,204.6,77.1,192.7z"/>
</g>
<g id="_x23_c09916ff">
	<path class="st212" d="M122.1,194.1c4.8-3.5,5.2,5.1,0,4.1C122.1,196.9,122.1,195.5,122.1,194.1z"/>
</g>
<g id="_x23_5c4a0eff">
	<path class="st213" d="M120.1,195c0.5-0.2,1.5-0.6,2-0.8c0,1.4,0,2.7,0,4.1c-1,0.2-2,0.5-3.1,0.6
		C119.4,197.6,119.8,196.3,120.1,195z"/>
</g>
<g id="_x23_d4a717ff">
	<path class="st214" d="M91,195.1c5.7,0.3,11.4,1,17.1,1.1c3.1,0,6.1-0.5,9.2-0.8c0.7-0.1,2.2-0.2,2.9-0.3c-0.3,1.3-0.7,2.6-1.1,3.9
		c-1.2,0.2-2.5,0.4-3.8,0.5c-5.2-0.3-10.4-0.4-15.5-0.2c-1.5-0.2-3.1-0.4-4.6-0.6C92.9,198.2,90.1,198.1,91,195.1z"/>
</g>
<g id="_x23_122947ff">
	<path class="st215" d="M99.6,221c-7.2-4.4-8.5-17.1-4.4-22.3c1.5,0.2,3.1,0.4,4.6,0.6c0.6,0.2,1.6,0.7,2.2,1
		c2.1,7.5,0.8,15.4,0.7,23.1c-0.9-3.1-0.6-6.5-0.9-9.7c-1.2,1.4-0.5,3.5-0.8,5.2C100.6,219.4,99.9,220.4,99.6,221z"/>
</g>
<g id="_x23_6d5e23ff">
	<path class="st216" d="M99.8,199.2c5.2-0.2,10.4,0,15.5,0.2c-4.4,0.7-8.9,0.6-13.4,0.7C101.4,199.9,100.3,199.4,99.8,199.2z"/>
</g>
<g id="_x23_114d58ff">
	<path class="st217" d="M130.1,221.1c5.4-6.8-0.4-21.6,10.9-22.2C138.5,207,137.9,215.8,130.1,221.1z"/>
</g>
<g id="_x23_109e95ff">
	<path class="st218" d="M141.9,198.9c1.8,0,5.3,0.1,7.1,0.1c0.8,0,2.4,0.1,3.2,0.1c-2.7,3.7-5.7,7.2-10,9
		C142.1,205.1,142,202,141.9,198.9z"/>
</g>
<g id="_x23_6fbfa8ff">
	<path class="st219" d="M111.2,235.2c3,0,5.9,0.3,8.9,0.6c0.5,0.1,1.6,0.3,2.1,0.4l-0.3,0.8c-0.2,0.3-0.4,0.9-0.6,1.2
		c-3.1-0.7-6.4-0.6-9.6,0c-0.4,0-1.3,0-1.8,0c-0.2-0.5-0.7-1.5-1-2C109.5,235.9,110.6,235.4,111.2,235.2z"/>
</g>
<g id="_x23_f3ff60ff">
	<path class="st220" d="M123.2,238.3c1.3-1.1,2.5-2.1,3.8-3.1c-2,4.9,12.9,4.3,0.1,4.9c-3.6,0.4-2.8,4.2-2.1,6.8
		c-5.6-1-12.4,0.5-16.3-4.6c-1.4-2.4-7.4-2.3-2.5-4.5c0.6,0.1,1.9,0.3,2.5,0.4C111.7,243.6,121.6,245.8,123.2,238.3z"/>
</g>
<g id="_x23_d3f5dbff">
	<path class="st221" d="M111.6,238.1c3.1-0.6,6.4-0.7,9.6,0C120.2,243.8,113.6,242.4,111.6,238.1z"/>
</g>
<g id="_x23_d5fd8fff">
	<path class="st222" d="M121.2,238.1c0.1-0.3,0.4-0.9,0.6-1.2c0.3,0.4,1.1,1.1,1.4,1.4c-1.6,7.5-11.5,5.3-14.4-0.2l1.1,0
		c0.4,0,1.3,0,1.8,0C113.6,242.4,120.2,243.8,121.2,238.1z"/>
</g>
</svg>
