<?xml version="1.0" encoding="UTF-8" ?>
<!DOCTYPE svg PUBLIC "-//W3C//DTD SVG 1.1//EN" "http://www.w3.org/Graphics/SVG/1.1/DTD/svg11.dtd">
<svg width="250pt" height="215pt" viewBox="0 0 250 215" version="1.1" xmlns="http://www.w3.org/2000/svg">
<g id="#feffffff">
<path fill="#feffff" opacity="1.00" d=" M 0.00 0.00 L 250.00 0.00 L 250.00 215.00 L 0.00 215.00 L 0.00 0.00 M 75.70 9.82 C 72.65 11.73 70.21 15.19 70.51 18.93 C 70.62 32.30 70.52 45.67 70.56 59.03 C 70.35 63.01 73.76 67.13 77.96 66.56 C 127.99 66.56 178.02 66.63 228.05 66.53 C 230.92 66.84 232.63 64.24 234.45 62.49 C 234.61 47.65 234.48 32.81 234.55 17.97 C 234.96 13.51 230.56 9.05 226.09 9.50 C 179.39 9.55 132.69 9.51 85.99 9.52 C 82.56 9.59 79.09 9.22 75.70 9.82 M 12.20 80.71 C 7.54 85.97 8.91 93.57 8.70 100.02 C 9.07 111.20 7.74 122.52 9.89 133.57 C 11.26 135.94 14.45 136.49 17.00 136.45 C 29.98 136.44 42.97 136.40 55.95 136.47 C 58.65 136.39 61.86 136.37 63.85 134.25 C 65.44 131.80 65.35 128.75 65.41 125.94 C 65.33 113.96 65.37 101.98 65.40 90.00 C 65.58 87.07 64.21 84.42 63.06 81.82 C 59.19 80.40 55.12 79.51 50.98 79.67 C 38.04 79.96 25.06 79.00 12.20 80.71 M 76.76 80.13 C 73.76 81.97 71.20 85.27 71.56 88.96 C 71.65 102.66 71.55 116.36 71.60 130.06 C 71.31 133.82 75.36 136.78 78.90 136.45 C 110.60 136.41 142.30 136.44 174.00 136.43 C 177.48 136.37 181.01 136.74 184.46 136.15 C 186.38 135.41 187.81 133.86 189.36 132.57 C 189.49 118.04 189.33 103.51 189.44 88.98 C 189.93 83.98 184.87 79.60 180.08 79.70 C 148.72 79.71 117.35 79.72 85.99 79.69 C 82.93 79.79 79.74 79.29 76.76 80.13 M 76.69 154.51 C 76.39 154.77 75.79 155.30 75.49 155.56 C 74.91 169.37 75.47 183.22 75.23 197.04 C 75.41 199.29 74.63 203.28 77.82 203.58 C 89.52 203.90 101.24 203.55 112.95 203.72 C 116.63 203.65 120.83 204.47 123.70 201.57 C 123.72 186.08 123.76 170.60 123.69 155.12 C 121.19 154.44 118.61 154.13 116.03 154.27 C 102.92 154.53 89.78 153.98 76.69 154.51 Z" />
</g>
<g id="#aeecf4ff">
<path fill="#aeecf4" opacity="1.00" d=" M 75.70 9.82 C 79.09 9.22 82.56 9.59 85.99 9.52 C 132.69 9.51 179.39 9.55 226.09 9.50 C 230.56 9.05 234.96 13.51 234.55 17.97 C 234.48 32.81 234.61 47.65 234.45 62.49 C 232.63 64.24 230.92 66.84 228.05 66.53 C 178.02 66.63 127.99 66.56 77.96 66.56 C 73.76 67.13 70.35 63.01 70.56 59.03 C 70.52 45.67 70.62 32.30 70.51 18.93 C 70.21 15.19 72.65 11.73 75.70 9.82 M 77.34 12.58 C 75.69 14.40 73.34 16.19 73.65 18.96 C 73.66 31.66 73.62 44.37 73.67 57.08 C 73.68 60.16 75.19 64.61 78.92 64.45 C 127.98 64.51 177.04 64.49 226.09 64.46 C 229.50 64.76 231.51 61.03 231.41 58.04 C 231.53 45.02 231.41 31.99 231.47 18.97 C 231.95 16.09 229.40 14.38 227.65 12.59 C 177.55 12.60 127.45 12.63 77.34 12.58 Z" />
<path fill="#aeecf4" opacity="1.00" d=" M 12.20 80.71 C 25.06 79.00 38.04 79.96 50.98 79.67 C 55.12 79.51 59.19 80.40 63.06 81.82 C 64.21 84.42 65.58 87.07 65.40 90.00 C 65.37 101.98 65.33 113.96 65.41 125.94 C 65.35 128.75 65.44 131.80 63.85 134.25 C 61.86 136.37 58.65 136.39 55.95 136.47 C 42.97 136.40 29.98 136.44 17.00 136.45 C 14.45 136.49 11.26 135.94 9.89 133.57 C 7.74 122.52 9.07 111.20 8.70 100.02 C 8.91 93.57 7.54 85.97 12.20 80.71 M 15.64 85.37 C 14.88 86.12 14.12 86.87 13.35 87.62 C 13.60 100.77 13.32 113.93 13.48 127.07 C 13.34 129.37 15.20 130.98 16.44 132.69 C 30.44 132.45 44.45 132.57 58.46 132.63 C 59.50 130.58 60.75 128.49 60.55 126.09 C 60.53 114.39 60.44 102.69 60.58 90.99 C 60.44 89.51 60.82 87.76 59.79 86.53 C 58.67 85.02 56.64 85.47 55.03 85.33 C 41.90 85.46 28.77 85.37 15.64 85.37 Z" />
<path fill="#aeecf4" opacity="1.00" d=" M 76.76 80.13 C 79.74 79.29 82.93 79.79 85.99 79.69 C 117.35 79.72 148.72 79.71 180.08 79.70 C 184.87 79.60 189.93 83.98 189.44 88.98 C 189.33 103.51 189.49 118.04 189.36 132.57 C 187.81 133.86 186.38 135.41 184.46 136.15 C 181.01 136.74 177.48 136.37 174.00 136.43 C 142.30 136.44 110.60 136.41 78.90 136.45 C 75.36 136.78 71.31 133.82 71.60 130.06 C 71.55 116.36 71.65 102.66 71.56 88.96 C 71.20 85.27 73.76 81.97 76.76 80.13 M 75.83 84.82 C 75.24 99.21 75.70 113.63 75.57 128.04 C 75.19 130.63 76.97 133.78 79.92 133.32 C 114.18 133.36 148.44 133.24 182.71 133.38 C 184.06 131.13 185.43 128.72 185.28 125.98 C 185.31 113.99 185.24 101.99 185.31 90.00 C 185.64 87.75 183.91 86.18 182.67 84.57 C 147.06 84.84 111.44 84.35 75.83 84.82 Z" />
<path fill="#aeecf4" opacity="1.00" d=" M 76.69 154.51 C 89.78 153.98 102.92 154.53 116.03 154.27 C 118.61 154.13 121.19 154.44 123.69 155.12 C 123.76 170.60 123.72 186.08 123.70 201.57 C 120.83 204.47 116.63 203.65 112.95 203.72 C 101.24 203.55 89.52 203.90 77.82 203.58 C 74.63 203.28 75.41 199.29 75.23 197.04 C 75.47 183.22 74.91 169.37 75.49 155.56 C 75.79 155.30 76.39 154.77 76.69 154.51 Z" />
</g>
<g id="#5fcadeff">
<path fill="#5fcade" opacity="1.00" d=" M 77.34 12.58 C 127.45 12.63 177.55 12.60 227.65 12.59 C 229.40 14.38 231.95 16.09 231.47 18.97 C 231.41 31.99 231.53 45.02 231.41 58.04 C 231.51 61.03 229.50 64.76 226.09 64.46 C 177.04 64.49 127.98 64.51 78.92 64.45 C 75.19 64.61 73.68 60.16 73.67 57.08 C 73.62 44.37 73.66 31.66 73.65 18.96 C 73.34 16.19 75.69 14.40 77.34 12.58 M 76.47 16.43 C 76.39 29.30 76.53 42.16 76.39 55.03 C 76.36 56.95 76.75 58.84 77.19 60.71 C 127.43 60.63 177.68 60.55 227.92 60.74 C 228.40 58.52 228.71 56.26 228.65 53.98 C 228.49 41.49 228.68 28.99 228.55 16.49 C 225.35 16.33 222.15 16.25 218.95 16.27 C 171.45 16.42 123.96 16.10 76.47 16.43 Z" />
<path fill="#5fcade" opacity="1.00" d=" M 75.83 84.82 C 111.44 84.35 147.06 84.84 182.67 84.57 C 183.91 86.18 185.64 87.75 185.31 90.00 C 185.24 101.99 185.31 113.99 185.28 125.98 C 185.43 128.72 184.06 131.13 182.71 133.38 C 148.44 133.24 114.18 133.36 79.92 133.32 C 76.97 133.78 75.19 130.63 75.57 128.04 C 75.70 113.63 75.24 99.21 75.83 84.82 Z" />
<path fill="#5fcade" opacity="1.00" d=" M 15.64 85.37 C 28.77 85.37 41.90 85.46 55.03 85.33 C 56.64 85.47 58.67 85.02 59.79 86.53 C 60.82 87.76 60.44 89.51 60.58 90.99 C 60.44 102.69 60.53 114.39 60.55 126.09 C 60.75 128.49 59.50 130.58 58.46 132.63 C 44.45 132.57 30.44 132.45 16.44 132.69 C 15.20 130.98 13.34 129.37 13.48 127.07 C 13.32 113.93 13.60 100.77 13.35 87.62 C 14.12 86.87 14.88 86.12 15.64 85.37 Z" />
</g>
<g id="#02a5c2ff">
<path fill="#02a5c2" opacity="1.00" d=" M 76.47 16.43 C 123.96 16.10 171.45 16.42 218.95 16.27 C 222.15 16.25 225.35 16.33 228.55 16.49 C 228.68 28.99 228.49 41.49 228.65 53.98 C 228.71 56.26 228.40 58.52 227.92 60.74 C 177.68 60.55 127.43 60.63 77.19 60.71 C 76.75 58.84 76.36 56.95 76.39 55.03 C 76.53 42.16 76.39 29.30 76.47 16.43 Z" />
</g>
</svg>
