<?xml version="1.0" encoding="utf-8"?>
<!-- Generator: Adobe Illustrator 26.0.3, SVG Export Plug-In . SVG Version: 6.00 Build 0)  -->
<svg version="1.1" id="Layer_1" xmlns="http://www.w3.org/2000/svg" xmlns:xlink="http://www.w3.org/1999/xlink" x="0px" y="0px"
	 viewBox="0 0 250 250" style="enable-background:new 0 0 250 250;" xml:space="preserve">
<style type="text/css">
	.st0{fill:#212121;}
	.st1{fill:#B99EA5;}
	.st2{fill:#A38F78;}
	.st3{fill:#83625C;}
	.st4{fill:#936D75;}
	.st5{fill:#805A5B;}
	.st6{fill:#946C75;}
	.st7{fill:#DFB9BF;}
	.st8{fill:#6D3954;}
	.st9{fill:#6B3854;}
	.st10{fill:#854D74;}
	.st11{fill:#A95694;}
	.st12{fill:#844C73;}
	.st13{fill:#C283B5;}
	.st14{fill:#F4DEF0;}
	.st15{fill:#BD6FA9;}
	.st16{fill:#F5E1F1;}
	.st17{fill:#CF8DC2;}
	.st18{fill:#CD7DBE;}
	.st19{fill:#B058AD;}
	.st20{fill:#6F4273;}
	.st21{fill:#59345E;}
	.st22{fill:#212123;}
	.st23{fill:#6E4172;}
	.st24{fill:#57365E;}
	.st25{fill:#4A4C4D;}
	.st26{fill:#595B5C;}
	.st27{fill:#DD97DD;}
	.st28{fill:#CC65CC;}
	.st29{fill:#CC67CC;}
	.st30{fill:#646668;}
	.st31{fill:#915F8A;}
	.st32{fill:#925F8A;}
	.st33{fill:#B457B9;}
	.st34{fill:#DD98DD;}
	.st35{fill:#FBFBFB;}
	.st36{fill:#2F385F;}
	.st37{fill:#8C68B4;}
	.st38{fill:#403D65;}
	.st39{fill:#BFC1C3;}
	.st40{fill:#673594;}
	.st41{fill:#403F65;}
	.st42{fill:#382C49;}
	.st43{fill:#A8AAAD;}
	.st44{fill:#2D2C49;}
	.st45{fill:#37393B;}
	.st46{fill:#343638;}
	.st47{fill:#202020;}
	.st48{fill:#4A2F90;}
	.st49{fill:#755BAC;}
	.st50{fill:#8D9092;}
	.st51{fill:#76787B;}
	.st52{fill:#66686B;}
	.st53{fill:#77797C;}
	.st54{fill:#686A6D;}
	.st55{fill:#262846;}
	.st56{fill:#5753A5;}
	.st57{fill:#2A298D;}
	.st58{fill:#6667B1;}
	.st59{fill:#34499B;}
	.st60{fill:#6B7BBC;}
	.st61{fill:#2F3A95;}
	.st62{fill:#909395;}
	.st63{fill:#737679;}
	.st64{fill:#6C5CBB;}
	.st65{fill:#414D76;}
	.st66{fill:#5B59A8;}
	.st67{fill:#8374C5;}
	.st68{fill:#8E8CC9;}
	.st69{fill:#8082BA;}
	.st70{fill:#476399;}
	.st71{fill:#446298;}
	.st72{fill:#A0A8CC;}
	.st73{fill:#527AA7;}
	.st74{fill:#5773A8;}
	.st75{fill:#4D7DA4;}
	.st76{fill:#618AB6;}
	.st77{fill:#6172AD;}
	.st78{fill:#5A94B3;}
	.st79{fill:#8A9EC7;}
	.st80{fill:#699FC0;}
	.st81{fill:#5697AF;}
	.st82{fill:#63B0C0;}
	.st83{fill:#72BACE;}
	.st84{fill:#60B2BC;}
	.st85{fill:#7BD3D9;}
</style>
<g id="_x23_212121ff">
	<path class="st0" d="M123.7,9.6c1.1-0.8,2.5-1,3.7-0.1c33.7,19.5,67.4,39,101.1,58.4c0,39.6,0.1,79.3-0.1,118.9
		c-31.5,17.9-62.8,36.2-94.2,54.3c-2.8,1.5-5.4,3.4-8.3,4.6c-2.7-0.4-4.8-2.4-7.1-3.5c-32-18.4-63.9-37.1-96-55.4
		c-0.1-39.6,0-79.3-0.1-118.9C56.3,48.5,90,29,123.7,9.6 M112.7,19.5l-0.6-0.2c-6.5,4.1-13.5,7.3-19.6,12c-5.3,1.5-9.9,5.1-14.3,8.4
		c-1.4-0.3-2.7,0.9-3.9,1.4c-11.4,6.9-23,13.2-34.4,20c-5,2.8-10.1,5.5-14.7,8.9c0.2,2.9,0.2,5.7,0.2,8.6c-0.5,24.8,0,49.6-0.2,74.3
		c0.3,10.7-0.8,21.4,0.3,32.1c4.2,2.5,8.5,5,12.8,7.4c3.6,2.1,7.1,4.4,10.9,6.1c3.9,2.2,7.6,5.6,12,6.6c7,5.2,15,9.1,22.5,13.6
		c12.3,7.2,24.7,14.3,37,21.5c1.9,0.8,4,3.2,6.2,1.8c14-8,27.9-16.1,41.8-24.2c4-2.3,8.1-4.5,11.8-7.2l0.7,0.1
		c5.4-3.1,10.8-6.3,16.2-9.4c4.8-2.7,9.5-5.4,14.2-8.3c4.7-2.6,9.6-5,13.8-8.5c0-6.9,0.2-13.7-0.1-20.6c0.1-20.9,0.2-41.8,0-62.8
		c0.3-9.8,0.2-19.5,0-29.2c0-0.5,0.1-1.4,0.1-1.9c-4.1-3.8-9.5-5.9-14.3-8.9c-11.2-6.7-22.6-12.9-33.7-19.6c-1.6-0.8-3.1-2-4.9-2.1
		c-3.8-3-8-5.4-12.3-7.8c-0.8-0.3-1.6-1-2.6-0.8c-5.8-4.5-12.5-7.6-18.6-11.4l-0.6,0.1c-4-2.7-7.9-5.6-12.5-7.4
		C120.9,13.2,116.9,16.8,112.7,19.5z"/>
</g>
<g id="_x23_b99ea5ff">
	<path class="st1" d="M112.7,19.5c4.2-2.7,8.3-6.3,13.2-7.4c4.5,1.8,8.5,4.7,12.5,7.4c-3.2,0.7-6.4,1-9.7,1.1
		c-1-2.1-1.9-4.3-2.9-6.4c-1.3,2.1-2.3,4.5-4.3,6.2C118.5,21.1,115.5,20.2,112.7,19.5z"/>
</g>
<g id="_x23_a38f78ff">
	<path class="st2" d="M121.4,20.5c1.9-1.6,3-4,4.3-6.2c1,2.1,1.9,4.3,2.9,6.4c3.2-0.1,6.5-0.5,9.7-1.1l0.6-0.1
		c6.2,3.8,12.9,6.9,18.6,11.4c-3.4,0.6-6.8,1.4-10.2,0.6c-5.5-0.9-10.6-4-16.2-4.3c-0.8,3.1-0.6,6.4-0.4,9.7
		c-1.8-0.9-3.6-2.1-5.6-2.2c-1.9,0.3-3.6,1.3-5.3,2.2c0-3.4-0.1-6.8-0.1-10.2c-2.6,1-5.2,2-7.8,3.1c-6.4,1.7-13,2.1-19.5,1.5
		c6-4.7,13.1-7.9,19.6-12l0.6,0.2C115.5,20.2,118.5,21.1,121.4,20.5z"/>
</g>
<g id="_x23_83625cff">
	<path class="st3" d="M112,29.9c2.6-1.1,5.1-2.1,7.8-3.1c0.1,3.4,0.1,6.8,0.1,10.2c-2.7,1.5-5.2,3.3-7.9,4.9c-2.6,1.6-5.3,3-7.9,4.5
		c1.2-3.5,2.5-6.9,3.8-10.4c-4,0.7-8,1.6-11.6,3.4c-0.9-0.1-2.6-0.4-3.4-0.6C99.5,36.5,106.1,33.9,112,29.9z"/>
</g>
<g id="_x23_936d75ff">
	<path class="st4" d="M131.2,27.2c5.6,0.3,10.7,3.4,16.2,4.3c3.4,0.8,6.9,0,10.2-0.6c0.9-0.2,1.8,0.5,2.6,0.8
		c4.2,2.4,8.5,4.8,12.3,7.8c-4.9,0.3-9.9,0.5-14.8-0.3c-4.9-2.1-9.9-3.8-14.6-6.3c-3.5-1.8-7.1-3.7-11.2-4c1.5,3.9,4.1,7.3,5.1,11.4
		c-2.1-1.2-4.2-2.3-6.2-3.4C130.6,33.7,130.4,30.4,131.2,27.2z"/>
</g>
<g id="_x23_805a5bff">
	<path class="st5" d="M131.9,28.9c4,0.2,7.7,2.1,11.2,4c4.7,2.5,9.8,4.1,14.6,6.3c0.1,0.5,0.3,1.5,0.4,2c-4.1-2-8.6-3.2-13-4.2
		c1.4,3.4,2.8,6.9,3.9,10.5c-0.9-0.5-1.9-1-2.9-1.5c-3-1.8-6-3.8-9.1-5.6C136,36.2,133.4,32.8,131.9,28.9z"/>
</g>
<g id="_x23_946c75ff">
	<path class="st6" d="M92.5,31.4c6.5,0.7,13.2,0.2,19.5-1.5c-5.9,3.9-12.5,6.5-19.2,8.8c-4.8,1.4-9.8,2.4-14.7,1
		C82.5,36.5,87.2,32.9,92.5,31.4z"/>
</g>
<g id="_x23_dfb9bfff">
	<path class="st7" d="M119.9,36.9c1.7-0.9,3.4-1.9,5.3-2.2c2,0.1,3.8,1.3,5.6,2.2c2.1,1.1,4.2,2.3,6.2,3.4c3.1,1.8,6,3.8,9.1,5.6
		c-0.5,0-1.4-0.1-1.9-0.1c0.8,1.8,1.6,3.6,2.6,5.4c-3.1-1.8-6.2-3.5-9.3-5.3c-3.8-2.1-7.5-4.5-11.4-6.6c-0.3,0.2-0.9,0.5-1.2,0.6
		c-4.4,2.2-8.7,4.5-13,6.9l-0.7,0.4c0.7-1.3,1.4-2.6,2.1-3.9c-0.3-0.4-1-1.2-1.4-1.5C114.7,40.2,117.2,38.5,119.9,36.9z"/>
</g>
<g id="_x23_6d3954ff">
	<path class="st8" d="M96.3,39.3c3.7-1.8,7.6-2.7,11.6-3.4c-1.3,3.4-2.6,6.9-3.8,10.4c-10.4,5.9-20.8,12-31.2,17.9
		c0.2-2.8,0.4-5.6,0.7-8.3c-2.9,0.6-5.8,1.2-8.6,2.2c0.2-0.5,0.7-1.7,0.9-2.2C76.1,50.4,86.2,44.9,96.3,39.3z"/>
</g>
<g id="_x23_6b3854ff">
	<path class="st9" d="M145.1,36.9c4.5,1,8.9,2.2,13,4.2c8.8,5.2,17.9,9.8,26.8,14.9c1.7,1.3,3.4,2.8,5.1,4.1c-2.5-0.7-5-1.3-7.4-1.9
		c-0.9,2.3-1.8,4.7-2.7,7c-10.3-6-20.6-11.9-30.9-17.8C147.9,43.8,146.5,40.4,145.1,36.9z"/>
</g>
<g id="_x23_854d74ff">
	<path class="st10" d="M74.3,41.2c1.2-0.6,2.5-1.7,3.9-1.4c4.9,1.4,9.9,0.4,14.7-1c0.9,0.1,2.6,0.4,3.4,0.6
		c-10.1,5.6-20.2,11-30.4,16.5c-8.4,3.7-16.5,8.4-25.3,11.1c-0.2-1.9-0.5-3.8-0.7-5.7C51.2,54.4,62.9,48,74.3,41.2z"/>
</g>
<g id="_x23_a95694ff">
	<path class="st11" d="M124.9,39.9c0.3-0.1,0.9-0.4,1.2-0.6c3.9,2.1,7.5,4.5,11.4,6.6c0.4,2.7,0.6,5.4,0.9,8.2
		c0.3,5.9,5.2,9.8,8.5,14.2c-7.3-3.9-14.3-8.2-21.5-12.2C125.3,50.7,125,45.3,124.9,39.9z"/>
</g>
<g id="_x23_844c73ff">
	<path class="st12" d="M157.7,39.2c4.9,0.8,9.8,0.6,14.8,0.3c1.8,0.1,3.4,1.3,4.9,2.1c11.1,6.8,22.6,12.9,33.7,19.6
		c-0.2,1.9-0.5,3.8-0.7,5.7c-9.2-2-16.6-8.2-25.5-10.9c-8.9-5.1-18-9.7-26.8-14.9C158,40.7,157.8,39.7,157.7,39.2z"/>
</g>
<g id="_x23_c283b5ff">
	<path class="st13" d="M111.9,46.8c4.3-2.4,8.6-4.7,13-6.9c0.1,5.4,0.4,10.8,0.4,16.2c-9.3,5.5-18.7,10.8-28,16.2
		c-1.8-0.2-3.6-0.4-5.3-0.6c0.3-1.3,0.6-2.6,1-3.9c8.9-3,16.8-8.7,23.1-15.6c-3.1,0.5-6.2,1-9.4,1.3C108.3,51.3,110,49,111.9,46.8z"
		/>
</g>
<g id="_x23_f4def0ff">
	<path class="st14" d="M104.1,46.3c2.7-1.5,5.3-2.9,7.9-4.5c0.3,0.4,1,1.1,1.4,1.5c-0.7,1.3-1.4,2.6-2.1,3.9
		c-8.1,4-15.3,9.5-23.2,13.8c-5.1,2.8-10.2,5.7-15.1,8.8c-3.3,1.7-6.6,3.5-9.9,5.4c-2.5,0.1-5-0.2-7.5-0.7
		c5.8-3.4,11.6-6.9,17.4-10.2C83.3,58.2,93.6,52.2,104.1,46.3z"/>
</g>
<g id="_x23_bd6fa9ff">
	<path class="st15" d="M137.5,45.9c3.1,1.8,6.2,3.5,9.3,5.3c0.8,0.5,1.6,1,2.4,1.6c3,4.3,6,8.6,8.6,13.2c0.4,1,0.8,2.1,1.2,3.1
		c-7.5-4-14.6-9-20.7-15C138.1,51.4,137.9,48.6,137.5,45.9z"/>
</g>
<g id="_x23_f5e1f1ff">
	<path class="st16" d="M144.2,45.8c0.5,0,1.4,0.1,1.9,0.1c0.9,0.5,1.9,1,2.9,1.5c10.3,5.9,20.6,11.9,30.9,17.8
		c5.6,3.2,11.1,6.6,16.7,9.8c-3.5,0.4-7,0.1-10.1-1.5c-6.5-3.2-12.7-6.7-19.2-9.9c-5.8-3.9-11.9-7.4-17.9-10.9
		c-0.8-0.5-1.6-1.1-2.4-1.6C145.9,49.4,145.1,47.6,144.2,45.8z"/>
</g>
<g id="_x23_cf8dc2ff">
	<path class="st17" d="M88,61c7.9-4.3,15.2-9.7,23.2-13.8l0.7-0.4c-1.9,2.2-3.6,4.5-5.2,6.8c3.1-0.4,6.2-0.8,9.4-1.3
		c-6.3,6.9-14.2,12.6-23.1,15.6c-6.7,0.4-13.4,0.5-20,1.9C77.8,66.7,82.9,63.7,88,61z"/>
</g>
<g id="_x23_cd7dbeff">
	<path class="st18" d="M149.2,52.8c6,3.5,12.1,7,17.9,10.9c3.4,2.7,6.6,5.6,10.1,8.1c-6.7-1.3-13.1-3.4-19.5-5.8
		C155.3,61.4,152.3,57.1,149.2,52.8z"/>
</g>
<g id="_x23_b058adff">
	<path class="st19" d="M138.4,54.1c6.1,6.1,13.1,11,20.7,15c7.7,5.2,14.6,11.4,20.8,18.2c-11.2-6.1-22.1-12.5-33-19.1
		C143.6,63.9,138.7,60,138.4,54.1z"/>
</g>
<g id="_x23_6f4273ff">
	<path class="st20" d="M40.6,66.9c8.8-2.7,16.9-7.4,25.3-11.1c-0.2,0.6-0.7,1.7-0.9,2.2c-6.4,3.1-12.5,6.8-18.7,10.2
		c-4.6,2.5-8.8,6.5-14.2,7c-3.2,0.2-4.9-3.2-6.8-5.2c4.6-3.4,9.7-6,14.7-8.9C40.1,63.1,40.4,65,40.6,66.9 M26.9,70
		c1.9,1.5,3.8,3.4,6.2,3.9c1.5-0.3,2.9-1.1,4.3-1.7C34.1,70.8,30.5,70.1,26.9,70z"/>
</g>
<g id="_x23_59345eff">
	<path class="st21" d="M65,58c2.8-1,5.7-1.6,8.6-2.2c-0.2,2.8-0.5,5.6-0.7,8.3c-5.8,3.4-11.6,6.8-17.4,10.2
		c-3.4,1.9-6.9,3.7-10.2,5.7C44.3,87,45,94,44.8,101c0,4.4-0.2,8.8-0.2,13.1l0-0.2c-0.1-0.5-0.2-1.4-0.3-1.8
		c-0.3-7.4,0.3-14.8-0.1-22.1c0-4.4-4.5-6.6-7.7-8.5c-0.9-0.2-1.9-0.3-2.8-0.5c-0.9,5.9-1.2,11.9-3.1,17.6c-0.6,2.2-2.9,2.9-4.6,3.9
		c-0.1-8-0.2-15.9-0.5-23.8c-0.1-2.9-0.1-5.7-0.2-8.6c1.9,2,3.6,5.4,6.8,5.2c5.5-0.5,9.6-4.5,14.2-7C52.5,64.8,58.6,61.2,65,58z"/>
</g>
<g id="_x23_212123ff">
	<path class="st22" d="M125.3,56.1c7.2,4,14.3,8.3,21.5,12.2c10.9,6.5,21.8,13,33,19.1c2.2,1.4,4.4,2.7,6.7,4c0.2,2.5,0.4,5,0.6,7.5
		c0.1,4.8-0.1,9.6-0.1,14.4c0.2,13.6,0,27.3,0.1,40.9c0,2.7,0,5.3-0.1,8l-0.5,0.6c-0.8,0.8-1.6,1.6-2.5,2.3
		c-3.3,1.6-6.5,3.2-9.7,5.1c-1.2-0.4-2.3-0.9-3.5-1.3c4-2.3,8-4.8,11.9-7.3c-0.4-0.4-1.1-1.2-1.5-1.6c-1.4-14.1-1.2-28.3-2.6-42.5
		c-1.1-6.4-1.1-13-0.7-19.5c1.2-1.1,2.3-2.3,3-3.8c-1.7-1.7-3.8-3.1-5.8-4.4c-14.9-8.8-29.9-17.5-44.8-26.3c-2.3-1.4-5.2-2.7-7.7-1
		c-9.4,5.2-18.5,10.9-27.9,16.2c-8.5,5.1-17.3,9.7-25.4,15.5c1.2,1.2,2.5,2.5,3.8,3.7c-0.7,7.1-1.6,14.2-3.1,21.2
		c-1.1,4.8,0.1,9.6,0.7,14.4c0.6,4.2-1.6,8.2-1.8,12.4c-0.2,4.7,0.5,9.5,0.1,14.2c0,0.5-0.1,1.4-0.2,1.8c5.4,3.3,10.9,6.4,16.3,9.6
		c-0.8,0.8-1.5,1.5-2.3,2.2c-3-1.7-5.9-3.4-8.9-5.1c-3.5-2-6.9-4.1-10.4-6.1c0.1-4.9,0-9.7,0-14.6c0-9.1,0-18.2,0-27.2
		c0-3.2,0-6.5,0-9.8c0-6.6,0-13.2,0.1-19.8c11.5-5.8,22.3-12.8,33.5-19.1C106.7,67,116.1,61.6,125.3,56.1z"/>
</g>
<g id="_x23_6e4172ff">
	<path class="st23" d="M184.9,56c8.9,2.7,16.3,8.9,25.5,10.9c0.2-1.9,0.5-3.8,0.7-5.7c4.7,3,10.1,5,14.3,8.9c0,0.5-0.1,1.4-0.1,1.9
		c-2.7,1.7-5.7,3.7-9,2.9c-3.2-0.8-5.8-2.8-8.5-4.6c-5.7-3.9-11.9-6.8-17.8-10.2C188.2,58.8,186.6,57.4,184.9,56 M213.6,72.2
		c1.4,0.6,2.8,1.6,4.3,1.7c2.4-0.2,3.8-2.3,5.4-3.8C220,70.2,216.6,70.8,213.6,72.2z"/>
</g>
<g id="_x23_57365eff">
	<path class="st24" d="M182.6,58.2c2.5,0.6,5,1.1,7.4,1.9c5.9,3.4,12.1,6.3,17.8,10.2c2.7,1.7,5.3,3.8,8.5,4.6
		c3.3,0.8,6.4-1.3,9-2.9c0.2,9.8,0.2,19.5,0,29.2c-1.9-0.6-3.8-1.2-5.8-1.9c-1.3-6.1-1.7-12.2-2.1-18.4c-0.4,0.1-1.3,0.4-1.8,0.6
		c-0.2,0.1-0.7,0.3-1,0.3c-2.8,1.3-5.4,2.8-8,4.2c0-1.8-0.1-3.6-0.3-5.4c-3.1-2.1-6.5-3.8-9.8-5.6c-5.6-3.2-11.1-6.6-16.7-9.8
		C180.8,62.9,181.7,60.6,182.6,58.2z"/>
</g>
<g id="_x23_4a4c4dff">
	<path class="st25" d="M122.7,62.6c2.5-1.8,5.4-0.5,7.7,1c14.9,8.8,29.9,17.5,44.8,26.3c2.1,1.3,4.1,2.6,5.8,4.4
		c-0.7,1.5-1.8,2.7-3,3.8c-1.4,0.7-2.9,1.4-4.4,2.1c-1.7-3.4-3.9-6.5-7.1-8.6c-9.5-6.5-18.6-13.6-28.4-19.8c-4.3-2.6-8-7.1-13.3-7.5
		c-5.1,1.6-9.3,5.1-13.6,8.1C100.3,81.2,86.8,87,77.7,98c1.4,1.5,2.8,3,4.3,4.4c-3-1.2-6.1-2.5-8.8-4.5c-1.3-1.2-2.5-2.5-3.8-3.7
		c8.1-5.8,16.9-10.4,25.4-15.5C104.1,73.5,113.3,67.7,122.7,62.6z"/>
</g>
<g id="_x23_595b5cff">
	<path class="st26" d="M111.2,72.3c4.3-3,8.6-6.5,13.6-8.1c5.3,0.4,9,4.9,13.3,7.5c9.8,6.1,18.8,13.3,28.4,19.8
		c3.2,2.1,5.4,5.2,7.1,8.6c-1.7,0.8-3.3,1.6-5,2.4l-0.6-0.4c-9.8-5.6-19.5-11.2-29.2-16.8c0.3-2.1,0.6-4.1,0.8-6.2
		c-2-0.5-4.3-0.6-6.1-1.8c-2.4-2.4-3.6-5.8-6-8.1c-1.8-1.1-4.3-0.9-5.8,0.6c-3,2.7-5.8,5.6-8.4,8.6c-1.7,1.9-1.1,4.6-1.4,7
		c-9.8,5.8-19.8,11.2-29.4,17.3l-0.6-0.3c-1.5-1.4-2.9-2.9-4.3-4.4C86.8,87,100.3,81.2,111.2,72.3z"/>
</g>
<g id="_x23_dd97ddff">
	<path class="st27" d="M167.2,63.7c6.5,3.1,12.7,6.7,19.2,9.9c3.1,1.6,6.7,1.9,10.1,1.5c3.3,1.8,6.7,3.5,9.8,5.6
		c-1.7,0.9-3.4,1.8-5.1,2.8c-7.6-4.7-15.4-9-23.9-11.7C173.8,69.3,170.6,66.4,167.2,63.7z"/>
</g>
<g id="_x23_cc65ccff">
	<path class="st28" d="M157.8,66c6.3,2.4,12.8,4.5,19.5,5.8c8.5,2.7,16.3,7.1,23.9,11.7c-4.7,2.9-9.5,5.8-14.7,7.8
		c-2.2-1.3-4.5-2.6-6.7-4c-6.2-6.8-13.2-13-20.8-18.2C158.6,68.1,158.2,67,157.8,66z"/>
</g>
<g id="_x23_cc67ccff">
	<path class="st29" d="M72.9,69.7c6.6-1.4,13.3-1.5,20-1.9c-0.3,1.3-0.6,2.6-1,3.9c-5,0.2-10,2-13.6,5.5c-4.9,4.6-9.7,9.3-14.5,14.1
		c-4.9-2.4-9.7-5-14.1-8.1c4.5-2.6,8.9-5.4,13.4-8.1C66.3,73.3,69.6,71.5,72.9,69.7z"/>
</g>
<g id="_x23_646668ff">
	<path class="st30" d="M121.9,69.8c1.5-1.5,4-1.7,5.8-0.6c2.5,2.3,3.7,5.7,6,8.1c1.8,1.2,4,1.3,6.1,1.8c-0.3,2.1-0.6,4.1-0.8,6.2
		c-4.4-2.3-8.4-5.3-13-7.1c-5.1,1.4-9.2,4.9-13.9,7.2c0.3-2.3-0.2-5.1,1.4-7C116.1,75.4,118.9,72.5,121.9,69.8z"/>
</g>
<g id="_x23_915f8aff">
	<path class="st31" d="M26.9,70c3.6,0,7.2,0.7,10.5,2.2c-1.4,0.6-2.8,1.4-4.3,1.7C30.6,73.4,28.8,71.6,26.9,70z"/>
</g>
<g id="_x23_925f8aff">
	<path class="st32" d="M213.6,72.2c3.1-1.4,6.4-2,9.8-2.1c-1.6,1.5-3.1,3.6-5.4,3.8C216.3,73.8,215,72.8,213.6,72.2z"/>
</g>
<g id="_x23_b457b9ff">
	<path class="st33" d="M78.3,77.3c3.7-3.5,8.6-5.4,13.6-5.5c1.8,0.1,3.6,0.3,5.3,0.6c-11.2,6.3-22,13.3-33.5,19.1
		C68.6,86.6,73.4,81.9,78.3,77.3z"/>
</g>
<g id="_x23_dd98ddff">
	<path class="st34" d="M45.3,80.1c3.3-2.1,6.8-3.8,10.2-5.7c2.5,0.5,5,0.8,7.5,0.7c-4.5,2.7-8.8,5.6-13.4,8.1
		C48.2,82.2,46.7,81.2,45.3,80.1z"/>
</g>
<g id="_x23_fbfbfbff">
	<path class="st35" d="M112,85.4c4.7-2.3,8.8-5.9,13.9-7.2c4.6,1.8,8.6,4.8,13,7.1c9.7,5.7,19.4,11.3,29.2,16.8
		c0.5,13.6,0,27.3,0.3,40.9c-0.1,3.1,0.3,6.4-0.8,9.5c-1.7,1.7-3.9,2.8-6,4.1c-6.4,3.6-12.6,7.7-19.3,10.5c-0.1-0.7-0.3-2.1-0.4-2.7
		c1.7-1,3.4-2,5.1-3c6.3-3.6,12.5-7.3,18.9-10.7c0.2-15.3,0-30.6,0.2-45.9c-10.7-6.2-21.3-12.4-31.8-18.9c-2.7-1.6-5.3-3.5-8.3-4.3
		c-3.1,0.5-5.6,2.5-8.3,4c-10.6,6.7-21.5,12.9-32.4,19.2c0.2,15.3,0.1,30.6,0.2,45.9c6.6,3.6,13,7.4,19.5,11
		c1.5,0.9,3.1,1.8,4.7,2.7c0,0.8-0.2,2.3-0.2,3.1c-9.2-4.3-17.6-10.1-26.5-14.8c-0.2-16.6,0.1-33.2-0.1-49.8
		C92.2,96.6,102.2,91.2,112,85.4z"/>
	<path class="st35" d="M231.9,178c1-2.2,3.7-2.2,5.7-1.7c1.8,1.2,1.5,3.6,1.8,5.4c-2.3-0.4-5.5,0-5.5-3.2c1.4,0,2.8,0,4.1,0.1
		c-0.3-0.5-1-1.6-1.3-2.1c-1.3,0.4-2.8,0.6-3.9,1.6c0,1.9,0.4,3.8,0.5,5.7C232.4,182.1,230.4,180.1,231.9,178z"/>
</g>
<g id="_x23_2f385fff">
	<path class="st36" d="M25.5,78.7c0.3,7.9,0.4,15.9,0.5,23.8c0,16.5-0.1,33.1,0.4,49.6c2.7-3,5.1-6.5,5.3-10.6
		c0.7-8.6,0.3-17.3,2.1-25.8c1,12.2-0.2,24.4,0.4,36.5c-1.6,7.3-0.8,14.8,0.6,22c4.3-1.4,9.2-4.1,9.5-9.2c0.6-17-1-34.1,0.4-51.2
		l0,0.2c0.2,10.8,0,21.6,0.1,32.5c0,9.1,0.2,18.1,0.2,27.2c-3.9,2.4-7.9,4.5-11.9,6.8c-2.5,1.5-5,3.1-7.5,4.6
		c-1.1-10.7,0-21.4-0.3-32.1C25.5,128.2,25,103.4,25.5,78.7z"/>
</g>
<g id="_x23_8c68b4ff">
	<path class="st37" d="M44.8,101C45,94,44.3,87,45.3,80.1c1.5,1.1,2.9,2.1,4.4,3.1c4.5,3.1,9.3,5.7,14.1,8.1
		c-0.1,6.6-0.1,13.2-0.1,19.8c-2.7,0.2-5.4,0.5-8.1,0.6c-0.9-3.9-1.7-7.9-3.1-11.7c-2.1,0.8-3.9,2.3-5.6,3.7
		C46.2,102.9,45.5,101.9,44.8,101z"/>
</g>
<g id="_x23_403d65ff">
	<path class="st38" d="M33.7,81c0.9,0.2,1.9,0.3,2.8,0.5c-1.4,3-2,6.2-1.8,9.5c0.3,8.2-0.6,16.5-1,24.7c-1.8,8.5-1.4,17.2-2.1,25.8
		c-0.2,4.1-2.6,7.6-5.3,10.6c-0.5-16.5-0.4-33.1-0.4-49.6c1.7-1.1,4-1.8,4.6-3.9C32.5,92.9,32.8,86.9,33.7,81z"/>
</g>
<g id="_x23_bfc1c3ff">
	<path class="st39" d="M117.6,85.4c2.6-1.5,5.2-3.5,8.3-4c3,0.9,5.6,2.8,8.3,4.3c10.5,6.5,21.1,12.7,31.8,18.9
		c-0.4,0.2-1.3,0.7-1.7,0.9c-2.4,1.3-4.7,2.6-7.1,3.9c-3.9-0.5-8.1-0.8-11.3-3.4c-3.9-3.1-7.6-6.4-11.5-9.5
		c-4.6-3.8-6.7-9.6-8.9-14.9c-1.9,4-3.3,8.3-5.6,12.2c-2.2,3.8-6.5,5.7-10,8.2c-2.7,1.8-4.9,4.3-7.6,6c-2.6,1.3-5.6,1.2-8.5,1.3
		c-2.7-1.4-5.3-2.8-7.9-4.3l-0.7-0.4C96,98.3,106.9,92.2,117.6,85.4z"/>
</g>
<g id="_x23_673594ff">
	<path class="st40" d="M201.2,83.5c1.7-1,3.4-1.9,5.1-2.8c0.2,1.8,0.3,3.6,0.3,5.4c-0.7,8.3-0.2,16.7-0.5,25.1c-1.3-3.3-2.5-7.3-6-9
		c-2.2,1.1-4,2.7-6.2,3.7c-3.9,0.3-5.5-4-6.7-7c-0.2-2.5-0.4-5-0.6-7.5C191.7,89.3,196.4,86.4,201.2,83.5z"/>
</g>
<g id="_x23_403f65ff">
	<path class="st41" d="M214.6,81.9c0.2-0.1,0.7-0.3,1-0.3c0.4-0.2,1.3-0.4,1.8-0.6c0.4,6.1,0.8,12.3,2.1,18.4
		c1.9,0.6,3.8,1.2,5.8,1.9c0.3,20.9,0.2,41.8,0,62.8c-1.6,0.3-3.2,0.5-4.8,0.8c-0.9,3-2.4,6-2.2,9.3c0.7,3.4,2.8,6.3,4.7,9.1
		c-2.1-1.1-4.4-2.2-6.5-3.3c-3.2-1.8-6.4-3.8-9.6-5.7c-1.6-17.5-0.3-35.2-1.2-52.7c0.1-3.4,0.4-6.8,0.4-10.2
		c0.3-8.3-0.1-16.7,0.5-25.1c0.8,8.3,0.2,16.6,0.2,24.9c-0.3,18.9,0,37.9,0.4,56.8c2.6,1.4,5.1,2.8,7.7,4.2c0.6-6,1.1-11.9,1.2-17.9
		c0.2-17,0.3-34,0.1-51C215.9,95.9,217.1,88.7,214.6,81.9z"/>
</g>
<g id="_x23_382c49ff">
	<path class="st42" d="M34.7,91c-0.2-3.3,0.4-6.5,1.8-9.5c3.3,1.9,7.7,4.1,7.7,8.5c0.5,7.4-0.1,14.7,0.1,22.1c-1,1.3-2.1,2.7-3.2,4
		c-1.3-0.6-2.5-1.3-3.8-1.9c-2.7,12.5-0.4,25.6-3.3,38.1c-0.5-12.2,0.6-24.4-0.4-36.5C34.1,107.5,35,99.2,34.7,91z"/>
</g>
<g id="_x23_a8aaadff">
	<path class="st43" d="M119.8,93.8c2.3-3.9,3.7-8.2,5.6-12.2c2.3,5.3,4.4,11.1,8.9,14.9c3.9,3.1,7.6,6.4,11.5,9.5
		c3.2,2.6,7.4,2.8,11.3,3.4c-2.2,1.2-4.4,2.4-6.7,3.6c-7.1-3.7-13.9-7.8-20.7-11.9c-1.8-0.9-3.9-2.7-6-1.2
		c-7.9,4.2-15.3,9.1-23.3,13.3c-2.3-1.3-4.5-2.6-6.8-3.8c2.8-0.1,5.9,0,8.5-1.3c2.8-1.7,4.9-4.2,7.6-6
		C113.4,99.5,117.6,97.7,119.8,93.8z"/>
</g>
<g id="_x23_2d2c49ff">
	<path class="st44" d="M206.6,86.1c2.7-1.5,5.3-3,8-4.2c2.4,6.8,1.3,14.1,1.5,21.1c0.3,17,0.1,34-0.1,51c-0.1,6-0.6,12-1.2,17.9
		c-2.6-1.4-5.1-2.8-7.7-4.2c-0.4-18.9-0.7-37.9-0.4-56.8C206.9,102.7,207.4,94.4,206.6,86.1z"/>
</g>
<g id="_x23_37393bff">
	<path class="st45" d="M73.2,97.9c2.7,2,5.7,3.2,8.8,4.5l0.6,0.3c0.2,16.6-0.1,33.2,0.1,49.8c-2.7,1.6-5.4,3.2-8.1,4.8
		c-1.8,1-3.7,1.9-5.5,2.9c0.4-4.7-0.3-9.5-0.1-14.2c0.2-4.2,2.4-8.2,1.8-12.4c-0.6-4.8-1.8-9.6-0.7-14.4
		C71.7,112.2,72.6,105.1,73.2,97.9z"/>
</g>
<g id="_x23_343638ff">
	<path class="st46" d="M173.7,100.1c1.5-0.7,2.9-1.4,4.4-2.1c-0.4,6.5-0.4,13,0.7,19.5c1.4,14.1,1.2,28.3,2.6,42.5
		c-1.6-1-3.2-1.8-4.8-2.7c-2.5-1.4-5.1-2.9-7.6-4.4c-0.7-16.8-0.1-33.5-0.2-50.3C170.3,101.7,172,100.8,173.7,100.1z"/>
</g>
<g id="_x23_202020ff">
	<path class="st47" d="M123.9,99.9c2-1.4,4.1,0.3,6,1.2c6.8,4.1,13.6,8.2,20.7,11.9c0.8,9.8,0.2,19.7,0.2,29.6
		c-3.7,2.1-7.3,4.3-10.9,6.5c0.5,5.1,1.2,10.1,2,15.2c0.1,0.7,0.3,2.1,0.4,2.7c0.5,3.5,0.9,7,1.5,10.5c0.3,2,0.7,4,1.1,6.1
		c8.8-4.7,17.5-9.8,26.1-14.8c1.2,0.4,2.3,0.9,3.5,1.3c-14.7,8.8-29.7,17.1-44.4,25.9c-1.6,0.7-3.3,1.5-4.9,2.2
		c-9.5-5.6-19.1-11.1-28.8-16.4c-4.4-2.7-8.8-5.4-13.3-7.9c0.8-0.8,1.5-1.5,2.3-2.2c7.2,4.1,14.2,8.4,21.6,12.2
		c0.5-2.9,1-5.8,1.4-8.7c0.3-2.3,0.6-4.6,1-6.9c1-6.4,1.8-12.8,2.5-19.2c-3.7-2.2-7.4-4.4-11.2-6.5c0-9.8-0.3-19.6,0.2-29.4
		C108.5,109,116,104.1,123.9,99.9z"/>
</g>
<g id="_x23_4a2f90ff">
	<path class="st48" d="M187.1,98.9c1.2,2.9,2.9,7.2,6.7,7c2.2-1,4.1-2.6,6.2-3.7c3.5,1.7,4.8,5.7,6,9c0,3.4-0.3,6.8-0.4,10.2
		l-0.2-0.9c-0.6-2.1-1.2-4.6-3.2-6c-4-1-8.3,2.4-12.1,0.3c-1.1-0.5-2.1-1.1-3.1-1.7C187.1,108.4,187.2,103.6,187.1,98.9z"/>
</g>
<g id="_x23_755bacff">
	<path class="st49" d="M46.9,103.8c1.8-1.4,3.5-2.9,5.6-3.7c1.4,3.8,2.2,7.7,3.1,11.7c2.7-0.2,5.4-0.4,8.1-0.6c0,3.2,0,6.5,0,9.8
		c-2.9,0-5.8,0.1-8.7,0.2c-0.7-2.5-1.6-5-2.5-7.4c-2.6,0.3-5.2,0.6-7.8,0.4c0-4.4,0.2-8.8,0.2-13.1
		C45.5,101.9,46.2,102.9,46.9,103.8z"/>
</g>
<g id="_x23_8d9092ff">
	<path class="st50" d="M168.1,102.1l0.6,0.4c0.1,16.8-0.5,33.5,0.2,50.3c2.5,1.5,5,2.9,7.6,4.4c-4.8,3.9-8.5,9.1-13.5,12.6
		c-6.5,2.4-12.4,6.4-19.3,7.8c-0.6-3.5-1-7-1.5-10.5c6.8-2.9,12.9-7,19.3-10.5c2.1-1.2,4.3-2.3,6-4.1c1.1-3,0.8-6.3,0.8-9.5
		C168.1,129.4,168.6,115.7,168.1,102.1z"/>
</g>
<g id="_x23_76787bff">
	<path class="st51" d="M85.2,104.6l0.7,0.4c0.2,2.5,0,5,0.7,7.4c1.9,2.7,5,4.3,6.6,7.2c0.2,2-0.1,4-0.2,5.9c1.9,5,3.2,10.7,1.6,16
		c-2.3,3.2-5.8,5.3-8.8,7.8c5.2-0.7,11.7-3.7,16.2,0.6c3.3,2.8,3.1,7.5,2.9,11.4c-6.5-3.7-12.9-7.5-19.5-11
		C85.2,135.2,85.4,119.9,85.2,104.6z"/>
	<path class="st51" d="M69.1,160.2c1.8-0.9,3.7-1.9,5.5-2.9c7.5,7.4,16.3,13.4,25.7,18.2c2.6,0.5,5.2-0.1,7.8-0.3
		c-0.4,2.9-0.9,5.8-1.4,8.7c-7.3-3.8-14.4-8.1-21.6-12.2c-5.4-3.2-10.9-6.3-16.3-9.6C69,161.5,69.1,160.6,69.1,160.2z"/>
</g>
<g id="_x23_66686bff">
	<path class="st52" d="M85.8,105.1c2.6,1.5,5.3,2.9,7.9,4.3c2.3,1.2,4.6,2.5,6.8,3.8c-0.5,9.8-0.2,19.6-0.2,29.4
		c3.8,2.1,7.5,4.3,11.2,6.5c-0.7,6.4-1.5,12.8-2.5,19.2l0.1-0.9c0.1-0.8,0.2-2.3,0.2-3.1c-1.6-0.9-3.1-1.8-4.7-2.7
		c0.2-3.9,0.5-8.6-2.9-11.4c-4.4-4.2-10.9-1.3-16.2-0.6c3-2.5,6.5-4.6,8.8-7.8c1.6-5.3,0.2-11-1.6-16c0.2-2,0.5-4,0.2-5.9
		c-1.6-2.9-4.7-4.5-6.6-7.2C85.9,110.1,86,107.5,85.8,105.1z"/>
	<path class="st52" d="M234.4,174.5c3.8-0.9,7.5,3.4,6.1,7.1c-1.1,3.8-6.5,5-9.1,2C228.4,180.7,230.3,175,234.4,174.5 M231.9,178
		c-1.4,2.1,0.5,4.1,1.5,5.8c-0.2-1.9-0.5-3.8-0.5-5.7c1.1-0.9,2.6-1.2,3.9-1.6c0.3,0.5,1,1.6,1.3,2.1c-1.4,0-2.8-0.1-4.1-0.1
		c0,3.2,3.2,2.8,5.5,3.2c-0.3-1.9-0.1-4.2-1.8-5.4C235.6,175.8,232.8,175.9,231.9,178z"/>
</g>
<g id="_x23_77797cff">
	<path class="st53" d="M164.2,105.6c0.4-0.2,1.3-0.7,1.7-0.9c-0.1,15.3,0,30.6-0.2,45.9c-6.4,3.4-12.6,7.2-18.9,10.7
		c0.3-3.6,0-7.8,2.8-10.5c3-2.4,7.1-2.9,10.1-5.2c1-2.8-0.4-5.8-0.5-8.7c-1.3-6.3,3.3-12.8-0.1-18.8c2-0.8,3.9-1.6,5.9-2.3
		C165,112.3,164.8,108.9,164.2,105.6z"/>
</g>
<g id="_x23_686a6dff">
	<path class="st54" d="M157.2,109.5c2.3-1.3,4.7-2.6,7.1-3.9c0.5,3.4,0.8,6.8,0.8,10.2c-2,0.7-4,1.5-5.9,2.3
		c3.4,6.1-1.2,12.5,0.1,18.8c0.1,2.9,1.5,5.9,0.5,8.7c-3,2.4-7.1,2.8-10.1,5.2c-2.8,2.7-2.5,6.9-2.8,10.5c-1.7,1-3.4,2-5.1,3
		c-0.8-5.1-1.5-10.1-2-15.2c3.6-2.2,7.2-4.4,10.9-6.5c-0.1-9.9,0.6-19.7-0.2-29.6C152.8,111.9,155,110.7,157.2,109.5z"/>
</g>
<g id="_x23_262846ff">
	<path class="st55" d="M41.2,116c1.1-1.3,2.1-2.6,3.2-4c0.1,0.5,0.2,1.4,0.3,1.8c-1.4,17,0.2,34.1-0.4,51.2
		c-0.3,5.1-5.2,7.8-9.5,9.2c-1.4-7.2-2.2-14.7-0.6-22c2.9-12.5,0.6-25.5,3.3-38.1C38.7,114.8,39.9,115.4,41.2,116z"/>
</g>
<g id="_x23_5753a5ff">
	<path class="st56" d="M44.6,114.1c2.6,0.1,5.2-0.1,7.8-0.4c0.9,2.4,1.8,4.9,2.5,7.4c0.2,8.1-1,16.2-2.3,24.2
		c-2.7,0.3-5.3,0.6-8,1.2C44.7,135.7,44.8,124.9,44.6,114.1z"/>
</g>
<g id="_x23_2a298dff">
	<path class="st57" d="M187.1,113.2c1,0.6,2.1,1.2,3.1,1.7c3.9,2.1,8.1-1.4,12.1-0.3c1.9,1.3,2.5,3.8,3.2,6
		c-0.9,8.8-0.7,17.7-0.6,26.5c-1.9,1.5-3.8,2.9-5.7,4.4c-1.6-2.5-3.1-5-4.7-7.5c-3.7,2.4-6.6,5.9-7.4,10.3
		C187,140.5,187.2,126.8,187.1,113.2z"/>
</g>
<g id="_x23_6667b1ff">
	<path class="st58" d="M55,121.1c2.9-0.1,5.8-0.1,8.7-0.2c0,9.1,0,18.2,0,27.2c-2.5-1.4-4.9-3.3-7.9-3.6c-1.9,7.7-2.1,15.8-1.6,23.7
		c3.2-1.7,6.4-3.5,9.5-5.5c3.5,2,6.9,4,10.4,6.1c-8.1,0.3-16.2,1.4-24.2,2.6c-1.4,0.9-2.8,1.9-4.1,3c-0.2-0.2-0.6-0.5-0.8-0.6
		c0-9.1-0.2-18.1-0.2-27.2c2.6-0.6,5.3-1,8-1.2C53.9,137.3,55.2,129.2,55,121.1z"/>
</g>
<g id="_x23_34499bff">
	<path class="st59" d="M205.5,120.5l0.2,0.9c0.9,17.6-0.3,35.2,1.2,52.7c-0.3-0.2-1.1-0.6-1.4-0.8c-1.2-0.6-2.3-1.3-3.5-1.9
		c-5.2-2.8-10.3-5.8-15.5-8.7l0.5-0.6c2.2-2.8,4.6-5.3,7.1-7.7c1.8,3.3,3.4,6.7,4.9,10.1c1.8-2.6,4-5.1,4.9-8.2
		c0.9-3,0.8-6.2,0.9-9.2C204.8,138.2,204.6,129.3,205.5,120.5z"/>
</g>
<g id="_x23_6b7bbcff">
	<path class="st60" d="M55.8,144.6c3,0.3,5.4,2.2,7.9,3.6c0,4.9,0.1,9.7,0,14.6c-3.1,2-6.2,3.8-9.5,5.5
		C53.6,160.3,53.8,152.3,55.8,144.6z"/>
</g>
<g id="_x23_2f3a95ff">
	<path class="st61" d="M187.1,154.1c0.8-4.4,3.7-7.9,7.4-10.3c1.6,2.5,3.1,5,4.7,7.5c1.9-1.5,3.8-2.9,5.7-4.4c0,3.1,0,6.2-0.9,9.2
		c-1,3.1-3.1,5.6-4.9,8.2c-1.5-3.4-3.1-6.8-4.9-10.1c-2.6,2.4-5,4.9-7.1,7.7C187.2,159.4,187.1,156.8,187.1,154.1z"/>
</g>
<g id="_x23_909395ff">
	<path class="st62" d="M74.6,157.3c2.7-1.5,5.4-3.2,8.1-4.8c8.9,4.8,17.4,10.5,26.5,14.8l-0.1,0.9c-0.3,2.3-0.6,4.6-1,6.9
		c-2.6,0.2-5.2,0.8-7.8,0.3C90.9,170.7,82.1,164.7,74.6,157.3z"/>
</g>
<g id="_x23_737679ff">
	<path class="st63" d="M176.5,157.1c1.6,0.9,3.2,1.8,4.8,2.7c0.4,0.4,1.1,1.2,1.5,1.6c-3.9,2.5-7.9,5-11.9,7.3
		c-8.6,5-17.3,10.1-26.1,14.8c-0.4-2-0.8-4-1.1-6.1c6.9-1.4,12.8-5.4,19.3-7.8C168,166.2,171.7,161,176.5,157.1z"/>
</g>
<g id="_x23_6c5cbbff">
	<path class="st64" d="M184.1,165c0.8-0.8,1.7-1.5,2.5-2.3c5.2,2.9,10.3,5.9,15.5,8.7c-9.4,4.9-18.5,10.3-28.2,14.6
		c-0.2-1-0.3-2-0.5-2.9c-5.1,2.3-10.2,4.7-15,7.4c-0.7-0.4-2.1-1.3-2.8-1.8c6.7-4.2,12.1-10,18.4-14.8
		C177.6,171.3,180.9,168.2,184.1,165z"/>
</g>
<g id="_x23_414d76ff">
	<path class="st65" d="M220.5,164.7c1.6-0.2,3.2-0.5,4.8-0.8c0.3,6.9,0.1,13.7,0.1,20.6c-0.6-0.4-1.8-1.1-2.4-1.5
		c-1.9-2.8-4-5.7-4.7-9.1C218.2,170.7,219.6,167.7,220.5,164.7z"/>
</g>
<g id="_x23_5b59a8ff">
	<path class="st66" d="M174.4,170.1c3.1-1.9,6.4-3.4,9.7-5.1c-3.2,3.2-6.5,6.3-10.1,9c-6.3,4.7-11.7,10.6-18.4,14.8
		c-8.2,3.4-17,5.1-25.5,7.3C144.7,187.2,159.7,178.9,174.4,170.1z"/>
</g>
<g id="_x23_8374c5ff">
	<path class="st67" d="M49.8,171.4c8-1.2,16.1-2.2,24.2-2.6c3,1.6,6,3.4,8.9,5.1c4.5,2.5,8.9,5.2,13.3,7.9
		c-3.7-1.1-7.4-2.4-10.9-4.1c-5.2-2.7-11.3-3.1-17.1-2.9c-3.4,0.1-6.7,1.4-10.1,1.1C55,175.1,52.5,173.1,49.8,171.4z"/>
</g>
<g id="_x23_8e8cc9ff">
	<path class="st68" d="M45.7,174.3c1.3-1,2.6-2.1,4.1-3c2.7,1.7,5.2,3.7,8.4,4.4c3.4,0.3,6.7-0.9,10.1-1.1
		c5.8-0.3,11.9,0.1,17.1,2.9c3.5,1.8,7.2,3,10.9,4.1c9.7,5.3,19.2,10.9,28.8,16.4l0.1,0.7l0,0.8c-6.6-0.8-13.6-0.4-19.8-3.1
		c-5.9-2.5-11.6-5.4-17.5-7.8c-0.2,1-0.3,1.9-0.4,2.9c-9.6-3.2-18.3-8.4-27.2-13c-0.9,0.8-1.8,1.5-2.7,2.3
		C53.6,178.9,49.4,176.9,45.7,174.3z"/>
</g>
<g id="_x23_8082baff">
	<path class="st69" d="M173.8,186c9.7-4.3,18.8-9.7,28.2-14.6c1.2,0.6,2.3,1.3,3.5,1.9c-4,4.3-9.6,6.6-14.6,9.6
		c-3.5,2.1-7.1,4.2-10.7,6.1c-3.3,1.7-6.5,3.4-9.8,5.1c0-0.5,0.1-1.6,0.1-2.2c-4.5,1.5-9,3.2-13.2,5.4c-10.4,5.3-21,10.1-30.9,16.3
		c-0.4-1.7-0.7-3.3-1-5c-0.2-3-0.1-6-0.2-8.9l0-0.8c0.4,3,0.8,5.9,1.1,8.9c11-5.2,21.5-11.3,32-17.3c4.9-2.8,9.9-5.2,15-7.4
		C173.5,184,173.6,185,173.8,186z"/>
</g>
<g id="_x23_476399ff">
	<path class="st70" d="M205.5,173.3c0.4,0.2,1.1,0.6,1.4,0.8c3.2,1.8,6.3,3.8,9.6,5.7c-6.2,3.9-13,6.9-19.5,10.3
		c-3.4,1.6-6.9,3.8-10.8,3.7c-2.9,0-4.4-2.8-6-4.8c3.6-1.9,7.1-4,10.7-6.1C195.9,179.9,201.5,177.6,205.5,173.3z"/>
</g>
<g id="_x23_446298ff">
	<path class="st71" d="M33,180.5c4-2.3,8-4.4,11.9-6.8c0.2,0.2,0.6,0.5,0.8,0.6c3.7,2.6,7.8,4.6,11.8,6.8c2.8,1.6,5.6,3.2,8.4,4.9
		c1.7,1.5,3.4,3,5,4.6c-1.4,1.1-2.7,2.3-4.3,3.1c-3.6,0.6-7.2-0.6-10.6-1.6C49.1,186.9,41.2,183.2,33,180.5z"/>
</g>
<g id="_x23_a0a8ccff">
	<path class="st72" d="M57.5,181.1c0.9-0.8,1.8-1.5,2.7-2.3c8.9,4.6,17.6,9.8,27.2,13c0.1-1,0.3-1.9,0.4-2.9
		c5.9,2.4,11.6,5.3,17.5,7.8c6.2,2.7,13.2,2.3,19.8,3.1c0.1,3,0,6,0.2,8.9c0.1,3.7-0.1,7.3-0.9,10.9c-5.9-4.2-12.2-7.8-18.5-11.4
		c-6.8-3.9-13.6-7.9-20.6-11.5c-6.5-3.6-12.8-7.6-19.4-10.7C63.1,184.3,60.3,182.7,57.5,181.1z"/>
</g>
<g id="_x23_527aa7ff">
	<path class="st73" d="M216.5,179.7c2.1,1.1,4.4,2.2,6.5,3.3c0.6,0.4,1.8,1.1,2.4,1.5c-4.2,3.5-9,5.9-13.8,8.5
		c-0.7-1.2-1.4-2.4-2.2-3.6c-5,0.9-10,1.7-14.7,3.5c-6.9,2.6-12.9,6.9-19.9,9.1c-2.5,0.9-5.6,0.9-7.6-1.1c-1.5-1.4,0-3.4,0.1-5.1
		c1-0.5,2-1,3.1-1.6c3.3-1.7,6.5-3.4,9.8-5.1c1.6,1.9,3.1,4.7,6,4.8c3.9,0.1,7.4-2.1,10.8-3.7C203.5,186.7,210.3,183.7,216.5,179.7z
		"/>
</g>
<g id="_x23_5773a8ff">
	<path class="st74" d="M25.5,185.1c2.5-1.6,5-3.1,7.5-4.6c8.2,2.7,16.1,6.4,23.1,11.5c-4.9-1.2-9.7-3.1-14.7-3.6
		c-1.2,1.2-2.1,2.7-3.1,4.1C34,190.1,29.8,187.6,25.5,185.1z"/>
</g>
<g id="_x23_4d7da4ff">
	<path class="st75" d="M65.9,186c6.7,3.2,13,7.1,19.4,10.7c0.2,1.2,0.5,2.4,0.7,3.6c-4.1,2.4-8.9,2.7-13.3,1
		c-1.6-0.8-3.2-1.6-4.8-2.3c-4.1-2.1-7.8-4.8-11.9-6.9c3.4,1.1,7,2.2,10.6,1.6c1.6-0.8,2.9-2,4.3-3.1C69.3,189,67.6,187.5,65.9,186z
		"/>
</g>
<g id="_x23_618ab6ff">
	<path class="st76" d="M41.4,188.4c5,0.6,9.8,2.5,14.7,3.6c4.1,2.2,7.8,4.8,11.9,6.9c-6.2-0.5-13-4-18.8-0.4
		c-3.8-1.7-7.3-4-10.9-6.1C39.3,191.1,40.2,189.6,41.4,188.4z"/>
</g>
<g id="_x23_6172adff">
	<path class="st77" d="M130,196c8.6-2.2,17.3-3.9,25.5-7.3c0.7,0.4,2.1,1.3,2.8,1.8c-10.5,6-21.1,12.1-32,17.3
		c-0.4-3-0.7-5.9-1.1-8.9l-0.1-0.7C126.7,197.5,128.4,196.8,130,196z"/>
</g>
<g id="_x23_5a94b3ff">
	<path class="st78" d="M194.8,192.8c4.7-1.8,9.8-2.6,14.7-3.5c0.7,1.2,1.4,2.4,2.2,3.6c-4.7,2.9-9.4,5.6-14.2,8.3c0-0.6,0-1.9,0-2.5
		c-9.1,0.2-18.1,2.4-26.2,6.6c-5.5,2.5-10.5,6.3-16.5,7.4c-4.7-0.8-9.1-3.8-14.1-2.2c8.8-5.1,17.5-10.4,26.6-14.9
		c-0.1,1.7-1.6,3.7-0.1,5.1c2,2,5.1,2,7.6,1.1C181.9,199.7,187.9,195.4,194.8,192.8z"/>
</g>
<g id="_x23_8a9ec7ff">
	<path class="st79" d="M157.3,197.3c4.2-2.2,8.7-3.9,13.2-5.4c0,0.5-0.1,1.6-0.1,2.2c-1,0.5-2,1-3.1,1.6
		c-9.1,4.5-17.8,9.8-26.6,14.9c-4,2-7.6,4.6-11.3,7.1c-1.6,0.8-3.3,1.4-5,1.9c0.8-3.6,1.1-7.3,0.9-10.9c0.3,1.7,0.6,3.3,1,5
		C136.3,207.5,147,202.7,157.3,197.3z"/>
</g>
<g id="_x23_699fc0ff">
	<path class="st80" d="M49.2,198.6C55,195,61.8,198.5,68,199c1.6,0.8,3.2,1.6,4.8,2.3c3.2,1.8,6,4,9.1,5.9c-6.8-0.9-13.7-3.9-20.6-2
		C56.8,204.2,53.2,200.8,49.2,198.6z"/>
</g>
<g id="_x23_5697afff">
	<path class="st81" d="M85.3,196.7c7,3.6,13.8,7.6,20.6,11.5c-2.7,1.5-5.2,3.3-8.2,4.1c-3.2,0.4-6.3-0.7-9.3-1.7
		c-2.2-1.1-4.4-2.3-6.5-3.4c-3.1-1.9-5.9-4.1-9.1-5.9c4.4,1.7,9.2,1.4,13.3-1C85.8,199.1,85.6,197.9,85.3,196.7z"/>
</g>
<g id="_x23_63b0c0ff">
	<path class="st82" d="M171.3,205.3c8.1-4.2,17.1-6.3,26.2-6.6c0,0.6,0,1.9,0,2.5c-5.4,3.1-10.8,6.3-16.2,9.4l-0.7-0.1
		c-2.9-0.7-6-0.8-8.9,0.1c-7.1,1.9-14.4,3.6-21,7c-6.5,3.3-12.8,6.9-19.4,10.2c-0.4-3.4-0.9-6.8-1.8-10.1c3.7-2.5,7.3-5.1,11.3-7.1
		c4.9-1.6,9.4,1.3,14.1,2.2C160.8,211.6,165.9,207.8,171.3,205.3z"/>
</g>
<g id="_x23_72baceff">
	<path class="st83" d="M61.2,205.2c6.9-1.9,13.8,1.1,20.6,2c2.2,1.1,4.4,2.3,6.5,3.4c4.3,2.3,8.3,5.1,12.5,7.5
		c-4.5-1.1-9.1-1.8-13.7-2.8c-1.2,1.1-2.3,2.3-3.5,3.4C76.2,214.3,68.3,210.4,61.2,205.2z"/>
</g>
<g id="_x23_60b2bcff">
	<path class="st84" d="M105.9,208.2c6.3,3.6,12.6,7.1,18.5,11.4c-1.4-0.1-2.8-0.1-4.2-0.2c-0.1,2.8-0.2,5.7-0.3,8.5
		c-6.5-2.9-12.8-6.3-19.1-9.7c-4.2-2.4-8.2-5.2-12.5-7.5c3,0.9,6.1,2.1,9.3,1.7C100.7,211.5,103.3,209.7,105.9,208.2z"/>
</g>
<g id="_x23_7bd3d9ff">
	<path class="st85" d="M171.7,210.6c2.9-0.9,6-0.8,8.9-0.1c-3.7,2.7-7.8,4.9-11.8,7.2C154.9,225.9,141,234,127,242
		c-2.2,1.5-4.3-0.9-6.2-1.8c-12.3-7.2-24.7-14.2-37-21.5c1.2-1.1,2.3-2.3,3.5-3.4c4.6,0.9,9.2,1.7,13.7,2.8
		c6.3,3.4,12.6,6.8,19.1,9.7c0.1-2.8,0.2-5.7,0.3-8.5c1.4,0.1,2.8,0.2,4.2,0.2c1.7-0.4,3.4-1.1,5-1.9c0.9,3.3,1.4,6.7,1.8,10.1
		c6.6-3.2,12.9-6.8,19.4-10.2C157.2,214.2,164.5,212.5,171.7,210.6z"/>
</g>
</svg>
