<?xml version="1.0" encoding="utf-8"?>
<!-- Generator: Adobe Illustrator 26.0.3, SVG Export Plug-In . SVG Version: 6.00 Build 0)  -->
<svg version="1.1" id="Layer_1" xmlns="http://www.w3.org/2000/svg" xmlns:xlink="http://www.w3.org/1999/xlink" x="0px" y="0px"
	 viewBox="0 0 250 250" style="enable-background:new 0 0 250 250;" xml:space="preserve">
<style type="text/css">
	.st0{fill:#F2994A;}
</style>
<g id="_x23_f2994aff">
	<path class="st0" d="M104.6,19.6c2.8-1.8,5.7-3.5,8.9-4.6c1.1,6.3,0.6,12.7,0.7,19c0.1,2.6-0.3,5.2-1,7.7
		c-7.6-3.5-14.5-8.3-21.8-12.3c0-0.5-0.1-1.6-0.1-2.1C95.7,24.6,100.3,22.4,104.6,19.6z"/>
	<path class="st0" d="M136.5,15c5.2,1.9,9.6,5.3,14.4,7.9c7.1,3.9,14.1,8.1,21.2,12c1.9,1.2,4.6,2.3,4.2,5c0.1,13.4,0.1,26.8,0,40.1
		c0.4,3-2.8,4.2-4.8,5.5c-10,5.5-19.8,11.5-29.8,17.2c-1.7,0.9-3.4,1.7-5.2,2.3c-0.3-2.7-0.7-5.4-0.7-8.1c0-24.7,0-49.4,0-74
		C135.8,20.3,136.1,17.6,136.5,15z"/>
	<path class="st0" d="M69.7,39.7c1.7-0.9,3.4-2,5.3-2.3c4.6,1.7,8.5,4.6,12.8,6.9c8.5,5.3,17.4,9.8,25.9,15.1
		c1.2,8.5,0.3,17.1,0.6,25.7c-0.1,6.7,0.4,13.4-0.7,20.1c-2.3-0.8-4.5-1.8-6.6-3.1C89.6,91.7,72,81.7,54.4,71.6
		c-6-3.7-12.5-6.6-18.1-10.9c0-0.3,0-1,0-1.4c3.2-2.7,7.2-4.3,10.8-6.5C54.6,48.5,62.2,44.1,69.7,39.7z"/>
	<path class="st0" d="M191.4,46.9c4.7,1.4,8.6,4.4,12.8,6.7c3.2,1.8,6.7,3.3,9.5,5.7c0,0.3,0,1,0.1,1.4c-2.7,2.4-6.1,3.9-9.2,5.8
		c-4.3,2.4-8.4,5.4-13.2,6.6C190.4,64.4,190.4,55.6,191.4,46.9z"/>
	<path class="st0" d="M24,79.9c7.9,3.8,15.7,8,22.8,13.1c-3.7,3.8-8.8,5.7-13.2,8.6c-3.2,1.8-6.3,4.4-10.1,4.5
		C23.8,97.4,22.9,88.6,24,79.9z"/>
	<path class="st0" d="M218.1,83.9c2.5-1.5,5.1-2.9,7.9-4c0.5,2.7,0.6,5.3,0.6,8.1c-0.2,12.5,0.1,25-0.1,37.5
		c-11.9,7.5-24.4,14-36.5,21.3c-2.7,2-5.6-0.3-8-1.6c-7.4-4.4-14.7-8.8-22.2-12.9c-4-2.3-8.1-4.3-11.6-7.4c3.8-3.4,8.6-5.4,12.9-8
		C180,105.9,199,94.9,218.1,83.9z"/>
	<path class="st0" d="M60.1,103.2c2.4-1.9,5.2-0.1,7.4,1.2c9.9,6,19.9,11.6,30,17.3c1.6,0.9,3,2.1,4.4,3.3c-3.7,3.5-8.5,5.4-12.8,8
		c-15.2,8.9-30.5,17.5-45.7,26.4c-6.5,3.5-12.6,7.7-19.4,10.6c-0.9-5-0.4-10.1-0.5-15.1c0.1-10.2-0.1-20.3,0.1-30.5
		C35.5,117,48,110.5,60.1,103.2z"/>
	<path class="st0" d="M216.3,148.4c3.2-1.8,6.3-4.4,10.1-4.5c-0.2,8.7,0.6,17.5-0.5,26.2c-7.9-3.8-15.7-8-22.8-13.1
		C206.8,153.1,211.9,151.2,216.3,148.4z"/>
	<path class="st0" d="M108.3,147.3c1.7-0.9,3.4-1.7,5.2-2.4c1,6.3,0.6,12.7,0.7,19.1c0,21,0,42,0,63c0,2.7-0.3,5.4-0.7,8
		c-5-1.7-9.2-5-13.8-7.5c-8.1-4.6-16.3-9.2-24.2-14c-2.4-1.3-1.7-4.3-1.9-6.5c0.1-12.4-0.1-24.7,0.1-37.1c-0.4-3,2.8-4.2,4.8-5.5
		C88.6,159,98.3,152.9,108.3,147.3z"/>
	<path class="st0" d="M136.4,144.9c3,1,5.7,2.5,8.4,4.2c20.9,12.2,41.8,24.3,62.8,36.2c2.1,1.2,4.2,2.4,6,4c0.5,1.9-1.8,2.5-3,3.5
		c-11.3,6.2-22.3,13.1-33.6,19.3c-2.8,1.7-5.4-1.1-7.9-2.2c-10.8-6.7-22-12.6-32.9-19.2c-1.2-9.5-0.3-19.1-0.6-28.7
		C135.8,156.3,135.5,150.6,136.4,144.9z"/>
	<path class="st0" d="M45.6,183.6c4.3-2.3,8.2-5.4,13.1-6.6c1,8.7,1,17.5,0,26.1c-4.7-1.3-8.6-4.4-12.8-6.7
		c-3.2-1.9-6.7-3.3-9.5-5.7c0-0.3,0-1,0-1.4C39,186.9,42.4,185.4,45.6,183.6z"/>
	<path class="st0" d="M135.8,216c-0.1-2.6,0.3-5.2,1-7.7c7.6,3.5,14.5,8.3,21.8,12.3c0,0.5,0.1,1.6,0.1,2.1c-4.3,2.7-9,5-13.3,7.7
		c-2.8,1.8-5.8,3.5-8.9,4.6C135.4,228.7,135.8,222.3,135.8,216z"/>
</g>
</svg>
