<?xml version="1.0" encoding="utf-8"?>
<!-- Generator: Adobe Illustrator 26.0.3, SVG Export Plug-In . SVG Version: 6.00 Build 0)  -->
<svg version="1.1" id="Layer_1" xmlns="http://www.w3.org/2000/svg" xmlns:xlink="http://www.w3.org/1999/xlink" x="0px" y="0px"
	 viewBox="0 0 245 250" style="enable-background:new 0 0 245 250;" xml:space="preserve">
<style type="text/css">
	.st0{fill:#C2DDCF;}
	.st1{fill:#D0E8D4;}
	.st2{fill:#CDDFC5;}
	.st3{fill:#E2F5D7;}
	.st4{fill:#A7B3A5;}
	.st5{fill:#DAECCC;}
	.st6{fill:#9F939A;}
	.st7{fill:#F4FCD7;}
	.st8{fill:#7EA375;}
	.st9{fill:#E0B27A;}
	.st10{fill:#C4C8B7;}
	.st11{fill:#BFA584;}
	.st12{fill:#EEF8C7;}
	.st13{fill:#949A93;}
	.st14{fill:#E8ECBE;}
	.st15{fill:#7B8A87;}
	.st16{fill:#C5BDBD;}
	.st17{fill:#BCC3B1;}
	.st18{fill:#666B77;}
	.st19{fill:#CDDACF;}
	.st20{fill:#BCC198;}
	.st21{fill:#D6E1A2;}
	.st22{fill:#A8D793;}
	.st23{fill:#9FA662;}
	.st24{fill:#818993;}
	.st25{fill:#A5ADB2;}
	.st26{fill:#C5CCBF;}
	.st27{fill:#131312;}
	.st28{fill:#4C494A;}
	.st29{fill:#5C7294;}
	.st30{fill:#797059;}
	.st31{fill:#846C6B;}
	.st32{fill:#AA8E8B;}
	.st33{fill:#7F7572;}
	.st34{fill:#B0A19C;}
	.st35{fill:#AFB6BA;}
	.st36{fill:#8595A2;}
	.st37{fill:#8A8283;}
	.st38{fill:#5C5E6E;}
	.st39{fill:#E6EBC5;}
	.st40{fill:#66686D;}
	.st41{fill:#E8CDA2;}
	.st42{fill:#0C0909;}
	.st43{fill:#546476;}
	.st44{fill:#EDC4A4;}
	.st45{fill:#B8BFAD;}
	.st46{fill:#D4D6B7;}
	.st47{fill:#A59F9B;}
	.st48{fill:#6E7C92;}
	.st49{fill:#B48672;}
	.st50{fill:#070505;}
	.st51{fill:#5F5443;}
	.st52{fill:#B9C7BF;}
	.st53{fill:#CD863F;}
	.st54{fill:#D79577;}
	.st55{fill:#685352;}
	.st56{fill:#8F523A;}
	.st57{fill:#DA9B7A;}
	.st58{fill:#7B6D73;}
	.st59{fill:#9A5B4B;}
	.st60{fill:#93533E;}
	.st61{fill:#985941;}
	.st62{fill:#6E614D;}
	.st63{fill:#F8B497;}
	.st64{fill:#AB8378;}
	.st65{fill:#A46E5C;}
	.st66{fill:#7E635C;}
	.st67{fill:#DE937A;}
	.st68{fill:#955326;}
	.st69{fill:#4E586A;}
	.st70{fill:#6B3E28;}
	.st71{fill:#754436;}
	.st72{fill:#643E34;}
	.st73{fill:#714537;}
	.st74{fill:#362018;}
	.st75{fill:#915C38;}
	.st76{fill:#C9846F;}
	.st77{fill:#574447;}
	.st78{fill:#E4AFA1;}
	.st79{fill:#472B19;}
	.st80{fill:#D18873;}
	.st81{fill:#160E09;}
	.st82{fill:#F9CFB1;}
	.st83{fill:#D6B1B5;}
	.st84{fill:#22130E;}
	.st85{fill:#795C5A;}
	.st86{fill:#5F4E49;}
	.st87{fill:#F2D0AE;}
	.st88{fill:#876764;}
	.st89{fill:#4A2820;}
	.st90{fill:#9A6760;}
	.st91{fill:#9B3532;}
	.st92{fill:#342627;}
	.st93{fill:#867A79;}
	.st94{fill:#CD3D46;}
	.st95{fill:#E08F8D;}
	.st96{fill:#F7C0B0;}
	.st97{fill:#5E1D19;}
	.st98{fill:#F9E3EB;}
	.st99{fill:#BD9766;}
	.st100{fill:#DFB09A;}
	.st101{fill:#342D28;}
	.st102{fill:#BD916C;}
	.st103{fill:#E4D7D8;}
	.st104{fill:#E0816F;}
	.st105{fill:#F3D1B5;}
	.st106{fill:#BFACA7;}
	.st107{fill:#A2886F;}
	.st108{fill:#F6E4F3;}
	.st109{fill:#050404;}
	.st110{fill:#DD45A3;}
	.st111{fill:#7F2F22;}
	.st112{fill:#4D3631;}
	.st113{fill:#C2816C;}
	.st114{fill:#AC8159;}
	.st115{fill:#210D08;}
	.st116{fill:#4C3E2F;}
	.st117{fill:#33130B;}
	.st118{fill:#AB5441;}
	.st119{fill:#78452B;}
	.st120{fill:#462617;}
	.st121{fill:#B27A4E;}
	.st122{fill:#CBBFBE;}
	.st123{fill:#8C795D;}
	.st124{fill:#647DAE;}
	.st125{fill:#302520;}
	.st126{fill:#A36C55;}
	.st127{fill:#663F2C;}
	.st128{fill:#381A0E;}
	.st129{fill:#4C5162;}
	.st130{fill:#222222;}
	.st131{fill:#EB924D;}
	.st132{fill:#5F0805;}
	.st133{fill:#E8BCA3;}
	.st134{fill:#603520;}
	.st135{fill:#4C6284;}
	.st136{fill:#2C1114;}
	.st137{fill:#C0C8CA;}
	.st138{fill:#6D5B4E;}
	.st139{fill:#E5AE9A;}
	.st140{fill:#3B3D4F;}
	.st141{fill:#734736;}
	.st142{fill:#3D3A32;}
	.st143{fill:#404041;}
	.st144{fill:#858D98;}
	.st145{fill:#D1996E;}
	.st146{fill:#592110;}
	.st147{fill:#060304;}
	.st148{fill:#744D4C;}
	.st149{fill:#40190F;}
	.st150{fill:#728497;}
	.st151{fill:#F2DCCC;}
	.st152{fill:#A74738;}
	.st153{fill:#8F5737;}
	.st154{fill:#98BDD5;}
	.st155{fill:#94797C;}
	.st156{fill:#A36658;}
	.st157{fill:#73664D;}
	.st158{fill:#3D4F6D;}
	.st159{fill:#BED3BB;}
	.st160{fill:#322121;}
	.st161{fill:#667F99;}
	.st162{fill:#CC6B50;}
	.st163{fill:#EAC6B9;}
	.st164{fill:#BC9F86;}
	.st165{fill:#E5B89E;}
	.st166{fill:#86A5C6;}
	.st167{fill:#DE9659;}
	.st168{fill:#364560;}
	.st169{fill:#6D7A92;}
	.st170{fill:#8B452E;}
	.st171{fill:#DBC2CD;}
	.st172{fill:#B0391B;}
	.st173{fill:#677F98;}
	.st174{fill:#728390;}
	.st175{fill:#536684;}
	.st176{fill:#575152;}
	.st177{fill:#340B05;}
	.st178{fill:#F3D6BF;}
	.st179{fill:#834D3F;}
	.st180{fill:#D52225;}
	.st181{fill:#F2D9BF;}
	.st182{fill:#222C46;}
	.st183{fill:#613717;}
	.st184{fill:#A1ADB6;}
	.st185{fill:#D2D67F;}
	.st186{fill:#E5B498;}
	.st187{fill:#3F322D;}
	.st188{fill:#CCBFBF;}
	.st189{fill:#350D09;}
	.st190{fill:#2C3955;}
	.st191{fill:#D77334;}
	.st192{fill:#AF9272;}
	.st193{fill:#73303F;}
	.st194{fill:#100A09;}
	.st195{fill:#B4806B;}
	.st196{fill:#BA5F4E;}
	.st197{fill:#160C06;}
	.st198{fill:#293643;}
	.st199{fill:#B7806F;}
	.st200{fill:#EFA35B;}
	.st201{fill:#C47F41;}
	.st202{fill:#291A18;}
	.st203{fill:#E8D1C3;}
	.st204{fill:#6F8093;}
	.st205{fill:#9A7A56;}
	.st206{fill:#6C4421;}
	.st207{fill:#9E6434;}
	.st208{fill:#684026;}
	.st209{fill:#232421;}
	.st210{fill:#4F301A;}
	.st211{fill:#62432F;}
	.st212{fill:#614935;}
	.st213{fill:#382214;}
	.st214{fill:#B58D5F;}
	.st215{fill:#90533E;}
	.st216{fill:#060303;}
	.st217{fill:#3D4460;}
	.st218{fill:#0D0806;}
	.st219{fill:#C8C4BD;}
	.st220{fill:#312A35;}
	.st221{fill:#1C1920;}
	.st222{fill:#625754;}
	.st223{fill:#110B09;}
	.st224{fill:#6E7990;}
	.st225{fill:#694127;}
	.st226{fill:#E0B6A3;}
	.st227{fill:#301F1E;}
	.st228{fill:#C27D47;}
	.st229{fill:#1D110A;}
	.st230{fill:#A88173;}
	.st231{fill:#5E342D;}
	.st232{fill:#433C35;}
	.st233{fill:#453D3A;}
	.st234{fill:#635847;}
	.st235{fill:#928462;}
	.st236{fill:#AFA7A8;}
	.st237{fill:#D2CDC1;}
	.st238{fill:#CC9868;}
	.st239{fill:#E09F5B;}
	.st240{fill:#8D6B43;}
	.st241{fill:#EAECE8;}
	.st242{fill:#7D6D60;}
	.st243{fill:#C69569;}
	.st244{fill:#948062;}
	.st245{fill:#C29663;}
	.st246{fill:#6E4622;}
	.st247{fill:#6C5836;}
	.st248{fill:#A28365;}
	.st249{fill:#572923;}
	.st250{fill:#231B18;}
	.st251{fill:#A77F50;}
	.st252{fill:#AE794D;}
	.st253{fill:#97693D;}
	.st254{fill:#2D130E;}
	.st255{fill:#8B604B;}
	.st256{fill:#794A23;}
	.st257{fill:#705521;}
	.st258{fill:#F4C056;}
	.st259{fill:#F1CC58;}
	.st260{fill:#5B4430;}
	.st261{fill:#966A3E;}
	.st262{fill:#7D6119;}
	.st263{fill:#F2C654;}
	.st264{fill:#6E4832;}
	.st265{fill:#A2887E;}
	.st266{fill:#814D2A;}
	.st267{fill:#471312;}
	.st268{fill:#F6D05F;}
	.st269{fill:#B8B5B1;}
	.st270{fill:#D06C12;}
	.st271{fill:#8A4B17;}
	.st272{fill:#402916;}
	.st273{fill:#F6DCD3;}
	.st274{fill:#8A776B;}
	.st275{fill:#382C12;}
	.st276{fill:#DE7D16;}
	.st277{fill:#331B06;}
	.st278{fill:#1F1914;}
	.st279{fill:#804E1D;}
	.st280{fill:#512B02;}
	.st281{fill:#9C4A37;}
	.st282{fill:#F7DED7;}
	.st283{fill:#763821;}
	.st284{fill:#BBB1AC;}
	.st285{fill:#382E1D;}
	.st286{fill:#28281A;}
	.st287{fill:#615A49;}
	.st288{fill:#B58B5A;}
	.st289{fill:#A16F46;}
	.st290{fill:#6C321D;}
	.st291{fill:#AAA581;}
	.st292{fill:#21180B;}
	.st293{fill:#84A486;}
	.st294{fill:#619C82;}
	.st295{fill:#649E85;}
	.st296{fill:#303A2B;}
</style>
<g id="_x23_c2ddcfff">
	<path class="st0" d="M92.8,19.9c27.4-8.2,58.1-5.2,83.2,8.7c-4.3-0.4-8.1,2-12,3.2c-2.5-0.8-4.5-2.9-7.1-3.4
		c-3.9,0.3-7.6,1.9-11.3,3c-2.9-0.9-5.9-1.6-9-2c-15.2-1.7-30.2-4.9-45.4-6.2C91.7,22.1,92.3,21,92.8,19.9z"/>
</g>
<g id="_x23_d0e8d4ff">
	<path class="st1" d="M71.4,28.9c6.8-3.8,14-6.9,21.4-9c-0.5,1.1-1.1,2.2-1.6,3.2c15.2,1.3,30.2,4.5,45.4,6.2c3.1,0.4,6.1,1.1,9,2
		c1.9,2.1,4.2,3.5,6.8,4.6c-6.8,0.1-13.5,0.4-20.3-0.2c-4.5-0.4-9.1-0.8-13.6-0.7c-0.2,1.3-0.3,2.6-0.5,4c-2.1-3.3-6-2.8-9.3-2.5
		c-0.4,1.8-0.9,3.6-1.4,5.5l-0.4,0.7c-1.7-2.7-2.3-7-6-7.6c-9.4-1.8-18.9-2.7-28.5-3.4C72.2,31,71.7,29.6,71.4,28.9z"/>
</g>
<g id="_x23_cddfc5ff">
	<path class="st2" d="M145.6,31.4c3.7-1,7.4-2.7,11.3-3c2.6,0.5,4.6,2.6,7.1,3.4c4-1.2,7.7-3.7,12-3.2c6.5,3.4,12.9,7.3,18.1,12.5
		l-0.7-0.2c-2.3-0.7-4.6-1.3-6.9-1.9c-0.2,2-0.3,3.9-0.5,5.9c-1.6-0.6-3.1-1.1-4.6-1.6c-1.2,1.9-2.4,3.8-3.5,5.8
		c0.1-0.5,0.3-1.6,0.4-2.2c-1.3,0.2-2.5,0.4-3.8,0.6c-0.5-1.2-1.1-2.3-1.6-3.5c-1.7-0.2-3.4-0.5-5.1-0.6c-1.2-3.1-2.2-6.2-3-9.4
		c-1,3.4-2.7,6.6-5.2,9.2c-1.8,1.7-1.1,4.2-0.9,6.3c-2.2-0.8-4.4-1.5-6.6-2.3c-0.3,2.7-0.7,5.4-1,8c0-2.7,0-5.5,0-8.2
		c2.2-2.3,5.5-4.9,4.6-8.5c-0.8-1.2-2.1-1.8-3.3-2.4C149.8,34.8,147.4,33.4,145.6,31.4z"/>
</g>
<g id="_x23_e2f5d7ff">
	<path class="st3" d="M57.4,37.8c4.5-3.2,8.8-6.8,14-8.9c0.3,0.7,0.8,2.1,1.1,2.8c9.5,0.7,19.1,1.6,28.5,3.4c3.7,0.6,4.3,4.9,6,7.6
		c-2.9,4.7-5.2,9.7-7.1,14.8c-2.1-0.2-4.2-1-6.1-1.9c-0.4-4.4-1.6-8.6-3.3-12.7c-0.9,0.9-1.8,1.8-2.8,2.7c-1.4-1.5-2.8-3.2-4.9-3.5
		c-8.3-1.8-17,0.1-25.3-2C57.5,39.6,57.4,38.4,57.4,37.8z"/>
</g>
<g id="_x23_a7b3a5ff">
	<path class="st4" d="M159.6,43.1c2.5-2.5,4.2-5.7,5.2-9.2c0.8,3.2,1.9,6.3,3,9.4C165.1,43.1,162.4,43.1,159.6,43.1z"/>
</g>
<g id="_x23_daecccff">
	<path class="st5" d="M118.5,35c4.5-0.1,9.1,0.2,13.6,0.7c6.7,0.6,13.5,0.3,20.3,0.2c1.2,0.6,2.6,1.2,3.3,2.4
		c0.9,3.6-2.4,6.2-4.6,8.5c-6.4-3.1-13.5-2.9-20.3-3.6c-3.4-0.3-6.8-0.3-10.3-0.1c0,2.1,0,4.2,0,6.3c-3.6-2.4-3-6.9-2.5-10.6
		C118.2,37.7,118.3,36.3,118.5,35z"/>
</g>
<g id="_x23_9f939aff">
	<path class="st6" d="M108.7,36.5c3.3-0.3,7.2-0.8,9.3,2.5c-0.5,3.7-1.1,8.2,2.5,10.6c0,1.2-0.1,2.4-0.2,3.6
		c-0.2-0.4-0.5-1.3-0.7-1.8c-1.2-0.1-2.3-0.2-3.5-0.3c-0.3-2.5-0.7-5-1.2-7.5c-1.9,2.3-3.5,4.7-5.1,7.2c-1.5-0.1-3-0.4-4.5-0.6
		c0.8-2.8,1.5-5.5,2-8.3C107.8,40.1,108.3,38.3,108.7,36.5z"/>
	<path class="st6" d="M79.1,108c1.6-0.2,3.2-0.5,4.8-0.6c0.2,0.9,0.3,1.8,0.5,2.8c-1.6,0-3.1,0-4.6,0
		C79.6,109.6,79.3,108.5,79.1,108z"/>
</g>
<g id="_x23_f4fcd7ff">
	<path class="st7" d="M50.7,43.2c2.1-2,4.4-3.8,6.7-5.5c0,0.6,0.1,1.8,0.1,2.4c8.3,2,17,0.1,25.3,2c2.2,0.3,3.5,2,4.9,3.5
		c-0.9,3.1-1.5,6.3-2.8,9.2c-1.1,2.7-4.6,2.1-6.9,2.7c-0.3-2.3-0.7-4.5-1.1-6.8c-1.9,0-3.8,0-5.6,0.3c-1.2,1.9-1.8,4-2.5,6.1
		c-5.4-0.3-11.6,1.8-16.2-2.1C52.7,51,52.3,47,50.7,43.2z"/>
</g>
<g id="_x23_7ea375ff">
	<path class="st8" d="M186.5,38.9c2.3,0.6,4.6,1.2,6.9,1.9c-1.3,2.4-2.8,4.7-4.8,6.6c-0.9-0.9-1.8-1.7-2.6-2.6
		C186.2,42.8,186.4,40.9,186.5,38.9z"/>
</g>
<g id="_x23_e0b27aff">
	<path class="st9" d="M193.4,40.8l0.7,0.2c2.9,1.4,5,3.9,7.3,6.1c-0.3,0.6-0.9,1.7-1.2,2.2c-0.5,0.2-1.7,0.6-2.2,0.8
		c-2-0.8-4-1.5-6-2.2c0,0.5,0.1,1.4,0.1,1.9c0,2.5-0.1,4.9-0.2,7.3c-0.5-0.1-1.6-0.3-2.1-0.4c-0.3-3-1.7-5.7-3.8-7.9
		c-0.2,2.1-0.4,4.2-0.5,6.2c-0.5-3.5-0.4-7,0.5-10.4c0.9,0.9,1.8,1.7,2.6,2.6C190.6,45.5,192.2,43.2,193.4,40.8z"/>
</g>
<g id="_x23_c4c8b7ff">
	<path class="st10" d="M107,42.6l0.4-0.7c-0.5,2.8-1.2,5.6-2,8.3c-0.2,2.1,0,4.3,0.2,6.5c-1.9,0.3-3.8,0.5-5.7,0.7
		C101.7,52.3,104.1,47.3,107,42.6z"/>
</g>
<g id="_x23_bfa584ff">
	<path class="st11" d="M87.7,45.6c0.9-0.9,1.8-1.8,2.8-2.7c1.7,4,2.8,8.3,3.3,12.7c-1.7,0.7-3.4,1.6-5,2.4
		c-3.6-0.1-7.2-0.2-10.8-0.5c2.4-0.5,5.8,0.1,6.9-2.7C86.3,51.9,86.8,48.7,87.7,45.6z"/>
</g>
<g id="_x23_eef8c7ff">
	<path class="st12" d="M120.5,43.3c3.4-0.2,6.8-0.3,10.3,0.1c6.9,0.7,14,0.5,20.3,3.6c0,2.7,0.1,5.5,0,8.2c0,0.4-0.1,1.2-0.1,1.6
		c-6.8,0.2-14.6,2.1-20.1-3c-1.9,1.2-3.4,3.6-5.9,3.3c-1.7,0-3.4-0.2-5-0.4c0.1-0.8,0.3-2.5,0.3-3.4c0.1-1.2,0.1-2.4,0.2-3.6
		C120.5,47.5,120.5,45.4,120.5,43.3z"/>
</g>
<g id="_x23_949a93ff">
	<path class="st13" d="M158.7,49.4c-0.2-2.1-0.9-4.7,0.9-6.3c2.7,0,5.5,0,8.2,0.2c1.7,0.2,3.4,0.4,5.1,0.6c-0.4,3.5-0.8,6.9-1,10.4
		c2.3,0.4,4.6,0.9,6.7,1.8c0.3,0.4,0.9,1,1.2,1.4c-2.9-0.3-5.8-0.7-8.4-2.1c-1.1-3.4-0.5-7-0.5-10.5c-3.4,0.2-7.8-0.4-10.2,2.7
		c-0.8,2.5-0.9,5.1-1.2,7.7C159.3,53.3,159,51.4,158.7,49.4z"/>
</g>
<g id="_x23_e8ecbeff">
	<path class="st14" d="M181.4,43.2c1.6,0.6,3.1,1.1,4.6,1.6c-0.9,3.4-1,6.9-0.5,10.4c0,0.4,0.1,1.3,0.1,1.7c-2,0.2-3.9,0.4-5.9,0.7
		c-0.3-0.3-0.9-1-1.2-1.4c-1.7-2.1-1.3-4.8-0.7-7.2C179,47,180.2,45.1,181.4,43.2z"/>
</g>
<g id="_x23_7b8a87ff">
	<path class="st15" d="M47.2,46.1c1.2-1,2.3-1.9,3.5-2.9c1.6,3.7,2,7.8,1.9,11.8c-1.8,1-3.5,2-5.4,2.8c-0.3-0.2-0.8-0.6-1.1-0.8
		c1.6,0,2.2-0.8,1.7-2.1c-1.3-0.8-2.4-0.4-3,1.1c-1.5-0.9-3-1.7-4.5-2.5c0.9-1.2,1.8-2.4,2.7-3.6c1.3,1.3,2.7,2.6,4.1,3.7
		C48.1,51.3,47.4,48.6,47.2,46.1z"/>
</g>
<g id="_x23_c5bdbdff">
	<path class="st16" d="M109.9,50.8c1.6-2.5,3.2-4.9,5.1-7.2c0.5,2.5,0.9,5,1.2,7.5C114.1,51,112,51,109.9,50.8z"/>
</g>
<g id="_x23_bcc3b1ff">
	<path class="st17" d="M172.9,43.9c0.5,1.2,1.1,2.3,1.6,3.5c1.3-0.2,2.5-0.4,3.8-0.6c-0.1,0.5-0.3,1.6-0.4,2.2
		c-0.6,2.4-1,5.1,0.7,7.2c-2.1-0.9-4.4-1.4-6.7-1.8C172.1,50.8,172.5,47.4,172.9,43.9z"/>
</g>
<g id="_x23_666b77ff">
	<path class="st18" d="M160.7,47.6c2.4-3.1,6.8-2.4,10.2-2.7c0,3.5-0.6,7.1,0.5,10.5c2.6,1.4,5.5,1.8,8.4,2.1
		c10.1,0.3,20.7,2.3,30.5-0.9c0.6,0.9,1.1,1.7,1.7,2.6c-35,0.4-70-0.1-105,0.2c-23.7-0.1-47.3,0.2-71-0.1c1.2-2.1,2.7-4,4.3-5.8
		c1.5,0.8,3,1.6,4.5,2.5c0.3,0.3,1,0.8,1.3,1.1c0.3,0.2,0.8,0.6,1.1,0.8c1.8-0.9,3.6-1.9,5.4-2.8c4.5,3.8,10.8,1.8,16.2,2.1
		c3.1,0,6.2,0.1,9.2,0.4c3.6,0.3,7.2,0.4,10.8,0.5c8.3,0,17,1,25.1-1.9c2,0.8,3.9,1.5,6,1.7C127.9,58,136,58,144,58.2
		c5.4,0.3,10.1-3.2,15.5-2.9C159.9,52.7,159.9,50.1,160.7,47.6z"/>
</g>
<g id="_x23_cddacfff">
	<path class="st19" d="M43,50c1.3-1.3,2.7-2.6,4.2-3.9c0.2,2.5,0.9,5.1,0,7.6C45.7,52.6,44.3,51.3,43,50z"/>
</g>
<g id="_x23_bcc198ff">
	<path class="st20" d="M152.1,47.1c2.2,0.8,4.4,1.6,6.6,2.3c0.3,1.9,0.6,3.9,0.8,5.8c-5.4-0.2-10.1,3.3-15.5,2.9
		c-8.1-0.2-16.1-0.1-24.2-0.4l0.2-1.2c1.7,0.2,3.3,0.4,5,0.4c2.5,0.3,4-2.1,5.9-3.3c5.5,5.1,13.3,3.2,20.1,3c0-0.4,0.1-1.2,0.1-1.6
		C151.4,52.5,151.8,49.8,152.1,47.1z"/>
</g>
<g id="_x23_d6e1a2ff">
	<path class="st21" d="M201.5,47.1c2.8,2.8,5.8,5.6,7.6,9.2c-3,0.3-6,0.8-9,1.1c1.6-1.4,3.2-2.7,4.7-4.1c-2.2-1.1-4.4-2.2-6.6-3.1
		c0.5-0.2,1.7-0.6,2.2-0.8C200.6,48.8,201.2,47.7,201.5,47.1z"/>
</g>
<g id="_x23_a8d793ff">
	<path class="st22" d="M192,47.9c2,0.7,4,1.4,6,2.2c2.2,0.9,4.4,2,6.6,3.1c-1.6,1.4-3.1,2.8-4.7,4.1c-3.1-2-5.8-4.6-7.9-7.6
		C192.1,49.3,192.1,48.4,192,47.9z"/>
</g>
<g id="_x23_9fa662ff">
	<path class="st23" d="M186.1,48.9c2.1,2.2,3.5,4.8,3.8,7.9c0.5,0.1,1.6,0.3,2.1,0.4c0.1-2.4,0.2-4.9,0.2-7.3c2.1,3,4.8,5.6,7.9,7.6
		c3-0.2,6-0.8,9-1.1c0.3,0.1,1,0.2,1.3,0.3c-9.9,3.2-20.4,1.2-30.5,0.9c2-0.2,3.9-0.4,5.9-0.7c0-0.4-0.1-1.3-0.1-1.7
		C185.6,53.1,185.8,51,186.1,48.9z"/>
</g>
<g id="_x23_818993ff">
	<path class="st24" d="M105.3,50.3c1.5,0.2,3,0.4,4.5,0.6c2.1,0.2,4.2,0.2,6.3,0.3c1.2,0.1,2.3,0.2,3.5,0.3c0.2,0.4,0.5,1.3,0.7,1.8
		c-0.1,0.8-0.3,2.5-0.3,3.4l-0.2,1.2c-2.1-0.3-4.1-1-6-1.7c-8,2.9-16.7,1.9-25.1,1.9c1.7-0.9,3.3-1.7,5-2.4c1.9,0.9,4,1.6,6.1,1.9
		c1.9-0.2,3.8-0.4,5.7-0.7C105.3,54.6,105.1,52.4,105.3,50.3z"/>
</g>
<g id="_x23_a5adb2ff">
	<path class="st25" d="M71.3,51c1.9-0.3,3.7-0.3,5.6-0.3c0.4,2.3,0.7,4.5,1.1,6.8c-3.1-0.3-6.2-0.4-9.2-0.4
		C69.5,55,70.1,52.9,71.3,51z"/>
</g>
<g id="_x23_c5ccbfff">
	<path class="st26" d="M44.8,56.1c0.7-1.5,1.7-1.8,3-1.1c0.5,1.4-0.1,2.1-1.7,2.1C45.8,56.9,45.1,56.4,44.8,56.1z"/>
</g>
<g id="_x23_131312ff">
	<path class="st27" d="M32.3,63.7c1.2-1.4,1.9-3.7,3.7-4.4c23.6,0.3,47.3,0,71,0.1c35-0.3,70,0.2,105-0.2c1.2,1.5,2.4,3.1,3.7,4.6
		c-3.5,1.7-7.4,1.3-11.2,1.5c-6.2,0.1-12.3-0.5-18.4-1c-7.8-0.2-15.7-0.1-23.5,0.3c-4,0.3-7.9,0.6-11.9,0.7
		c-2.1-0.3-4.2-0.5-6.4-0.6c-2.5-0.1-4.9-0.1-7.4-0.1c-2.2,0-4.4,0.1-6.6,0.2c-4.1,0.3-8.3,0.6-12.4,0.2c-4.8-0.6-9.7-0.6-14.5-0.3
		c-7.4,0.4-14.8-0.5-22.1-0.6c-11.7,0-23.4,0-35.1,0.1C41.4,64.5,36.8,64.9,32.3,63.7z"/>
</g>
<g id="_x23_4c494aff">
	<path class="st28" d="M31.2,64.8c0.4-0.4,0.7-0.7,1.1-1.1c4.5,1.2,9.1,0.7,13.6,0.6c11.7,0,23.4-0.1,35.1-0.1
		c7.4,0,14.8,0.9,22.1,0.6c-0.3,0.3-0.9,0.9-1.2,1.2c-3.9,0.2-7.8-0.1-11.7-0.3c-2.8-0.2-5.6-0.3-8.4-0.3
		c-7.1,0.3-14.1-0.1-21.2-0.4c-0.4,0-1.3,0-1.8,0c-3.8,0.2-7.5,0.3-11.2,0.3c-0.6,0-1.8,0-2.5,0.1c-4.1,0.1-8.2,0.4-12.2,0.8
		c0.3,5,0.2,10-0.5,15l-0.1,0.9c0.1-5.6,0-11.2-1.1-16.6L31.2,64.8z"/>
</g>
<g id="_x23_5c7294ff">
	<path class="st29" d="M215.7,63.8c1.1,1.8,2.7,3.5,3,5.6c0,2.2,0,4.4,0.1,6.6c-0.2-0.6-0.7-1.7-1-2.3c-0.4-0.9-1.1-1.4-2.2-1.3
		c-2.8-0.2-5.5-0.1-8.3,0c0.1-2,0.2-4.1,0.4-6.1l-0.8-0.1c-0.9-0.2-2.5-0.5-3.4-0.7l0.8-0.2C208.2,65.1,212.2,65.5,215.7,63.8z"/>
</g>
<g id="_x23_797059ff">
	<path class="st30" d="M162.5,64.7c7.8-0.4,15.7-0.5,23.5-0.3c6.1,0.5,12.3,1.1,18.4,1l-0.8,0.2c-2.3,0.8-4.6,1.6-6.9,2.5
		c-0.2,0.3-0.6,0.8-0.9,1.1c-0.7-0.6-1.5-1.2-2.2-1.7c-2.6-1.7-5.6-2.6-8.6-2.3c-7.5,0.3-15,0.5-22.6,0.5L162.5,64.7z"/>
</g>
<g id="_x23_846c6bff">
	<path class="st31" d="M33.1,66.2c4-0.4,8.1-0.7,12.2-0.8c-3.6,0.9-7.3,1.4-10.9,2.4C34.3,68.1,34,68.7,34,69c1,1.2,2.5,1.6,3.8,2.4
		c-1.2,1.2-2.4,2.3-3.5,3.5c0.9,1,1.8,2.1,2.7,3.1c-1.1,1-2.3,1.9-3.4,2.9l-0.9,0.3C33.3,76.2,33.4,71.2,33.1,66.2z"/>
</g>
<g id="_x23_aa8e8bff">
	<path class="st32" d="M45.3,65.4c0.6,0,1.8-0.1,2.5-0.1c2.8,1.3,5.5,2.8,8.1,4.3c0.3-0.4,0.8-1.3,1.1-1.7c-0.3,2.7-0.4,5.4-0.7,8
		c-1.4,0.1-2.7,0.2-4.1,0.3c-0.3,1.9-0.5,3.8-0.8,5.8c-0.1,0.6-0.2,1.7-0.2,2.2c0-2.4-0.1-4.7-0.1-7.1c-1.9,0.3-3.8,0.7-5.7,1
		c0.6,0.9,1.2,1.9,1.8,2.8c-4.6,0.2-9.1,0.2-13.7-0.1c1.2-0.9,2.3-1.9,3.4-2.9c-0.9-1-1.8-2.1-2.7-3.1c1.2-1.2,2.4-2.3,3.5-3.5
		C36.5,70.6,35,70.1,34,69c0.1-0.3,0.3-0.9,0.4-1.2C38,66.8,41.7,66.2,45.3,65.4z"/>
</g>
<g id="_x23_7f7572ff">
	<path class="st33" d="M47.8,65.3c3.8,0,7.5-0.1,11.2-0.3c-0.7,1-1.4,1.9-2,2.9c-0.3,0.4-0.8,1.3-1.1,1.7
		C53.2,68.1,50.5,66.6,47.8,65.3z"/>
</g>
<g id="_x23_b0a19cff">
	<path class="st34" d="M59,65c0.4,0,1.3,0,1.8,0c1.4,1.8,2.7,3.8,4,5.7c0.2,1.6,0.5,3.3,0.7,4.9c-0.1,0.5-0.3,1.5-0.4,2l-0.3,0.6
		c-2.5-1.6-5.5-2.6-8.5-2.2c0.2-2.7,0.4-5.3,0.7-8C57.6,66.9,58.3,65.9,59,65z"/>
</g>
<g id="_x23_afb6baff">
	<path class="st35" d="M60.8,64.9c7.1,0.3,14.1,0.7,21.2,0.4c2,0.4,3.9,0.8,5.8,1.3c-0.1,2.5,0.6,5.7-1.7,7.5
		c-1.3,0.7-2.9,0.5-4.3,0.7c-0.1-1.5-0.2-2.9-0.3-4.4c-5.6,0.4-11.1,0.4-16.7,0.2C63.5,68.7,62.2,66.8,60.8,64.9z"/>
	<path class="st35" d="M177.8,132.2c-1.8-1.8-3.8-3.6-5.2-5.8c0.4,0.2,1.4,0.6,1.8,0.8c6.9,2,8.7,9.4,10.9,15.2
		c-2,0.1-3.9,0.3-5.9,0.5c-0.6,0.1-1.7,0.2-2.3,0.3c1.8-0.5,3.6-0.9,5.4-1.3c-0.3-0.9-0.7-1.7-1-2.5
		C180.6,136.9,179.9,134.1,177.8,132.2z"/>
</g>
<g id="_x23_8595a2ff">
	<path class="st36" d="M81.9,65.3c2.8,0,5.6,0.1,8.4,0.3c-0.8,3.5-1.7,7-2.7,10.5c-7.4,0.4-14.8,0.1-22.1-0.6
		c-0.2-1.6-0.5-3.3-0.7-4.9c5.6,0.2,11.1,0.2,16.7-0.2c0.1,1.5,0.2,2.9,0.3,4.4c1.4-0.2,3,0,4.3-0.7c2.2-1.9,1.6-5,1.7-7.5
		C85.8,66.2,83.9,65.7,81.9,65.3z"/>
</g>
<g id="_x23_8a8283ff">
	<path class="st37" d="M103.2,64.8c4.8-0.3,9.7-0.3,14.5,0.3c2.9,3.5,7.3,4.5,11.6,3.7c0.3-1.3,0.6-2.6,0.8-4
		c2.2-0.2,4.4-0.2,6.6-0.2c0,1-0.1,2-0.1,3c2.1-0.1,4.3-0.1,6.4-0.1c0.3-0.7,0.8-2,1.1-2.7c2.1,0.1,4.2,0.4,6.4,0.6l0.6,0.5
		c-1.3-0.1-4.1-0.9-4.5,0.9c1.4,1.3,3.5,0.3,5-0.5c2.8,3.3,7.8,3,10.8,0.2c-0.1,2.5,0,4.9,0.2,7.4c-0.4,0-1.1-0.1-1.5-0.2
		c-6.7-0.8-13.4-0.4-20.2-0.4c-7.7,0.1-15.4-0.3-23.1,0.4c-0.2-2.5-0.3-5.1-0.4-7.6c-4.5-0.8-9.1-0.8-13.6-0.4
		c-0.2,2.7-0.3,5.5-0.8,8.2c-0.3,1-0.6,2.1-1,3.1c-0.8,0-2.4,0-3.2,0c0.3-3.3,0.8-6.6,1.8-9.8c0.3-0.3,0.9-1,1.2-1.3
		C102.3,65.7,102.9,65.1,103.2,64.8z"/>
</g>
<g id="_x23_5c5e6eff">
	<path class="st38" d="M117.7,65.1c4.1,0.3,8.3,0.1,12.4-0.2c-0.3,1.3-0.6,2.6-0.8,4C125,69.7,120.6,68.7,117.7,65.1z"/>
</g>
<g id="_x23_e6ebc5ff">
	<path class="st39" d="M136.8,64.6c2.5,0,5,0,7.4,0.1c-0.3,0.7-0.8,2-1.1,2.7c-2.1,0-4.3,0.1-6.4,0.1
		C136.7,66.6,136.8,65.6,136.8,64.6z"/>
</g>
<g id="_x23_66686dff">
	<path class="st40" d="M150.6,65.4c4-0.1,8-0.4,11.9-0.7l0,0.9l0,0.9c-3,2.8-8.1,3.1-10.8-0.2l-0.5-0.4L150.6,65.4z"/>
</g>
<g id="_x23_e8cda2ff">
	<path class="st41" d="M162.5,65.6c7.5,0,15.1-0.2,22.6-0.5c3.1-0.3,6.1,0.7,8.6,2.3c0,1.1,0,2.2-0.1,3.3
		c-5.5-0.1-11.1-0.1-16.6,0.2c0,0.7,0,2.1,0,2.8c-4.8-0.1-9.6-0.1-14.5,0.1c-0.1-2.5-0.2-5-0.2-7.4L162.5,65.6z"/>
	<path class="st41" d="M39.2,150.1c-1.8-3.1,0.8-5.6,2.4-8c0.3,1.9,0.7,3.9,0.8,5.8C41.6,148.9,40.3,149.4,39.2,150.1z"/>
</g>
<g id="_x23_0c0909ff">
	<path class="st42" d="M31.4,65.5c1.1,5.5,1.2,11.1,1.1,16.6c-0.3,3.9-0.3,7.8,0,11.6c-0.7,3.2-1.6,6.4-2.7,9.5
		c0.4,0.2,1.2,0.6,1.6,0.8c2.7-3.3,6.9-3.8,10.8-3.3c2.1,0.3,4.2,0.7,6.2,1.3c2.9,1.5,5.6,3.4,8.3,5.2c-0.2,0.3-0.6,1-0.9,1.3
		c-0.6,1.4-1,2.8-1.5,4.2c-1.1,3-4.5,3.8-7.1,5c0-2.2,2-5.1,0-6.8c-2.3-0.3-4.2,1.6-6.2,2.4c-0.1-0.4-0.3-1.2-0.5-1.7
		c-0.3-1-0.5-2.1-0.8-3.1c-3.3,1.9-5.6,4.9-7.5,8.2c-2.2-3.6-3.9-7.6-6.2-11.1c-2.3-3.4-6.2-5-9.9-6.4
		C19.2,87.4,24.2,75.6,31.4,65.5z"/>
</g>
<g id="_x23_546476ff">
	<path class="st43" d="M90.3,65.7c3.9,0.2,7.8,0.5,11.7,0.3c-0.3,0.3-0.9,1-1.2,1.3c-2.4-0.3-4.8-0.3-7.2-0.2
		c-0.1,2.9-0.2,5.9-0.2,8.8c1.9,0.4,3.7,0.9,5.6,1.3c-0.3,0.4-0.9,1.2-1.2,1.6c-2.2,0.1-4.4,0.1-6.6,0.1c-1.2-0.9-2.3-1.8-3.5-2.8
		C88.6,72.7,89.5,69.2,90.3,65.7z"/>
</g>
<g id="_x23_edc4a4ff">
	<path class="st44" d="M103.9,65.8c4.5-0.4,9.1-0.3,13.6,0.4c0.1,2.5,0.2,5.1,0.4,7.6c-4.9,0.2-9.8,0.3-14.8,0.2
		C103.5,71.3,103.7,68.6,103.9,65.8z"/>
</g>
<g id="_x23_b8bfadff">
	<path class="st45" d="M146.7,66.8c0.4-1.8,3.2-1,4.5-0.9l0.5,0.4C150.2,67,148.2,68,146.7,66.8z"/>
</g>
<g id="_x23_d4d6b7ff">
	<path class="st46" d="M196.8,68.1c2.2-0.9,4.5-1.8,6.9-2.5c0.8,0.2,2.5,0.5,3.4,0.7c-2.9,2.4-6.1,4.5-9.6,5.8
		C197.2,70.8,197.1,69.4,196.8,68.1z"/>
</g>
<g id="_x23_a59f9bff">
	<path class="st47" d="M207.1,66.2l0.8,0.1c-0.2,2-0.3,4.1-0.4,6.1c2.8-0.1,5.5-0.3,8.3,0c1-0.1,1.7,0.4,2.2,1.3
		c-0.2,0.3-0.5,1-0.6,1.4c-2.3,0.4-4.6,0.8-6.9,1.1c-5.1,0.1-10.1,0.2-15.2,0.5c0.2-2.5,0.4-5.1,0.9-7.6c0.2-0.3,0.7-0.8,0.9-1.1
		c0.2,1.3,0.4,2.6,0.6,4C201,70.8,204.2,68.7,207.1,66.2 M200.3,74.1c1.8,0.8,3.8,1.1,5.8,1.2c-0.1-0.9-0.2-2.8-0.2-3.7
		C203.7,71.8,201.7,72.5,200.3,74.1z"/>
</g>
<g id="_x23_6e7c92ff">
	<path class="st48" d="M93.6,67.1c2.4-0.1,4.8-0.1,7.2,0.2c-1,3.2-1.5,6.5-1.8,9.8c-1.9-0.4-3.7-0.8-5.6-1.3
		C93.4,73,93.5,70.1,93.6,67.1z"/>
</g>
<g id="_x23_b48672ff">
	<path class="st49" d="M193.7,67.4c0.8,0.6,1.5,1.1,2.2,1.7c-0.4,2.5-0.6,5.1-0.9,7.6c5.1-0.3,10.1-0.4,15.2-0.5
		c1.6,1.1,3.4,2.1,5.1,3.1c0.6-1.4,1.2-2.8,1.8-4.2c0.1-0.3,0.4-1,0.6-1.4c0.2,0.6,0.7,1.7,1,2.3c0.2,2.2,0.4,4.5,0.4,6.7
		c-0.4,2.9-1.1,5.7-2.4,8.3c-0.5-3.3-0.9-6.7-1.1-10.1c-10.2-0.5-20.5,0.4-30.7-0.2c-2.9-0.2-5.8,0.3-8.2,1.8c0.3-3,0.4-5.9,0.4-8.9
		c0-0.7,0-2.1,0-2.8c5.5-0.4,11-0.3,16.6-0.2C193.7,69.7,193.7,68.5,193.7,67.4 M178,72c0.4,2.4,0.8,4.7,1.3,7.1
		c2.5,0.1,4.5-1.2,5.5-3.5c0.3,0,0.9,0,1.2,0c1.5,3.2,4.9,2.7,7.8,2.1c-0.1-2-0.3-4-0.6-5.9C188.2,71.6,183.1,71.3,178,72z"/>
</g>
<g id="_x23_070505ff">
	<path class="st50" d="M218.8,76.1c-0.1-2.2-0.1-4.4-0.1-6.6c11,16.8,16,37.1,16.2,57.1c-2.1-2.1-4-4.4-5.7-6.8
		c-1.9-3.5-5.2-5.8-8.9-7.1c0.4-3.2,1.1-6.3,1.6-9.5c-0.8-0.6-1.6-1.1-2.4-1.7c-0.6-6.2-0.4-12.4-0.4-18.5
		C219.3,80.5,219.1,78.3,218.8,76.1z"/>
</g>
<g id="_x23_5f5443ff">
	<path class="st51" d="M178,72c5.1-0.6,10.2-0.4,15.2-0.2c0.3,2,0.5,3.9,0.6,5.9c-2.9,0.5-6.3,1.1-7.8-2.1c-0.3,0-0.9,0-1.2,0
		c-1,2.3-3,3.6-5.5,3.5C178.9,76.7,178.4,74.3,178,72z"/>
</g>
<g id="_x23_b9c7bfff">
	<path class="st52" d="M200.3,74.1c1.4-1.6,3.4-2.3,5.5-2.5c0.1,0.9,0.2,2.8,0.2,3.7C204,75.3,202.1,74.9,200.3,74.1z"/>
</g>
<g id="_x23_cd863fff">
	<path class="st53" d="M117.9,73.8c7.7-0.8,15.4-0.4,23.1-0.4c6.7,0,13.5-0.4,20.2,0.4c-2.2,1.7-4.7,3-7.5,3.7
		c-0.1-1.2-0.3-2.4-0.4-3.6c-2.6,2-5.2,3.9-7.4,6.2l-0.5,0.5c-0.9-1-1.8-2-2.7-3c-3.6,1-7.1,2.4-10.6,3.6c-3.1,1.2-6.6,0.4-9.7,1.3
		c-4.4,1.2-8.8,2.2-13.2,3.4c0.8-2.2,1.4-4.5,1.9-6.7c0.9,0.6,1.8,1.1,2.8,1.7c0.5-0.9,1.1-1.7,1.6-2.6c0.5,0.2,1.4,0.5,1.9,0.6
		C117.5,77.2,117.7,75.5,117.9,73.8z"/>
</g>
<g id="_x23_d79577ff">
	<path class="st54" d="M103.1,74c4.9,0.1,9.9,0,14.8-0.2c-0.2,1.7-0.3,3.3-0.5,5c-0.5-0.2-1.4-0.5-1.9-0.6c-0.2-0.7-0.6-2.2-0.8-2.9
		c-0.9,0.1-1.8,0.2-2.8,0.3c-0.2,1.2-0.5,2.3-0.8,3.5c-0.5,2.3-1.1,4.5-1.9,6.7c-0.6,1.7-1.4,3.3-2.1,4.9c-4.9-2.7-4.3-8.9-5-13.6
		C102.4,76.1,102.8,75.1,103.1,74 M104.9,75c0,1.9,0,3.8,0,5.7c0.8,0,2.3,0,3.1,0c0.1-1.6,0.2-3.1,0.3-4.7
		C107.1,75.7,106,75.3,104.9,75z"/>
</g>
<g id="_x23_685352ff">
	<path class="st55" d="M145.9,80.1c2.2-2.3,4.9-4.2,7.4-6.2c0.1,1.2,0.3,2.4,0.4,3.6c2.7-0.7,5.3-1.9,7.5-3.7
		c0.4,3.8-0.4,8.4,2.4,11.3l0.6,0.6c-1.7,1.5-3.4,2.9-5.1,4.3c0.2-3.5-0.1-7-0.5-10.5c-3.2-0.1-6.4,0-9.5,0.4
		c0.4,1.2,0.8,2.4,1.2,3.6l-1,0.3C148.1,82.6,147,81.3,145.9,80.1z"/>
</g>
<g id="_x23_8f523aff">
	<path class="st56" d="M161.2,73.8c0.4,0,1.1,0.1,1.5,0.2c-0.2,0.9-0.4,1.8-0.6,2.7c1.7-0.6,3.3-1.1,5-1.6c0.2,1.6,0.4,3.2,0.5,4.8
		c-1.7,0.7-3.4,1.4-5,2.2c0.7,0.8,1.5,1.7,2.2,2.5c-0.3,0.2-0.9,0.4-1.2,0.6C160.7,82.2,161.6,77.5,161.2,73.8z"/>
</g>
<g id="_x23_da9b7aff">
	<path class="st57" d="M162.7,73.9c4.8-0.2,9.6-0.3,14.5-0.1c0.1,3-0.1,6-0.4,8.9c-3.7,0.2-7.6-0.4-11,1.3l-1,0.5
		c-0.8-0.8-1.5-1.7-2.2-2.5c1.6-0.8,3.3-1.5,5-2.2c-0.2-1.6-0.3-3.2-0.5-4.8c-1.7,0.5-3.4,1.1-5,1.6
		C162.2,75.7,162.5,74.8,162.7,73.9 M170.5,75.4c-0.1,1.4-0.2,2.9-0.3,4.3c0.8,0.2,2.4,0.7,3.2,0.9c0.2-1.9,0.4-3.8,0.6-5.6
		C172.8,75.2,171.7,75.3,170.5,75.4z"/>
</g>
<g id="_x23_7b6d73ff">
	<path class="st58" d="M65.5,75.6c7.4,0.7,14.8,1,22.1,0.6c1.2,0.9,2.3,1.8,3.5,2.8c-8.3-0.5-16.6-0.2-24.9,0.1
		C66,78.2,65.7,76.5,65.5,75.6z"/>
</g>
<g id="_x23_9a5b4bff">
	<path class="st59" d="M104.9,75c1.1,0.3,2.2,0.7,3.4,1c-0.1,1.6-0.2,3.1-0.3,4.7c-0.8,0-2.3,0-3.1,0
		C104.9,78.8,104.9,76.9,104.9,75z"/>
</g>
<g id="_x23_93533eff">
	<path class="st60" d="M111.8,75.6c0.9-0.1,1.8-0.2,2.8-0.3c0.2,0.7,0.6,2.2,0.8,2.9c-0.5,0.9-1.1,1.7-1.6,2.6
		c-0.9-0.6-1.8-1.1-2.8-1.7C111.3,77.9,111.6,76.8,111.8,75.6z"/>
</g>
<g id="_x23_985941ff">
	<path class="st61" d="M170.5,75.4c1.1-0.1,2.3-0.3,3.4-0.4c-0.2,1.9-0.3,3.8-0.6,5.6c-0.8-0.2-2.4-0.7-3.2-0.9
		C170.3,78.3,170.4,76.9,170.5,75.4z"/>
</g>
<g id="_x23_6e614dff">
	<path class="st62" d="M210.3,76.2c2.3-0.3,4.6-0.7,6.9-1.1c-0.6,1.4-1.2,2.8-1.8,4.2C213.7,78.4,211.9,77.3,210.3,76.2z"/>
</g>
<g id="_x23_f8b497ff">
	<path class="st63" d="M52.2,76.3c1.4-0.1,2.7-0.2,4.1-0.3c3-0.3,6,0.6,8.5,2.2c-0.8,1.5-1.6,2.9-2.5,4.4c-3.6,0.3-7.3,0.2-10.9-0.6
		C51.7,80.1,52,78.2,52.2,76.3z"/>
</g>
<g id="_x23_ab8378ff">
	<path class="st64" d="M65.1,77.6c0.1-0.5,0.3-1.5,0.4-2c0.2,0.9,0.5,2.6,0.7,3.4c8.3-0.3,16.6-0.6,24.9-0.1c2.2,0,4.4,0,6.6-0.1
		c0.8,0.8,1.5,1.6,2.3,2.4c-11.5,0.2-23,0.4-34.5,0C65.4,80,65.2,78.8,65.1,77.6z"/>
</g>
<g id="_x23_a46e5cff">
	<path class="st65" d="M45.4,78.2c1.9-0.3,3.8-0.7,5.7-1c0.1,2.4,0.1,4.7,0.1,7.1c0,2.1,0,4.3,0,6.4c4.1,0.3,9,1.9,12.6-0.7
		c1.3-2.7,1.6-5.8,1.6-8.8c0.3,0.6,0.8,1.7,1.1,2.3c2-0.2,4-0.4,6.1-0.6c-0.2,0.5-0.5,1.5-0.6,2c-3.3,1.9-6.4,4.3-9,7.2
		c-3.9-0.1-7.8-0.3-11.7-0.5c-0.7-1.1-1.4-2.1-2.1-3.2c-0.8,2.6-0.9,5.9-3.1,7.9c-1.5,1.2-3,0.2-4.2-1c1.3-1,2.6-1.9,3.9-2.9
		c-0.4-2.3-0.9-4.6-1.4-6.9c-1.5-0.2-2.9-0.5-4.4-0.7c3.4-0.9,6.9-0.4,10.3-0.2c-0.4-1.8-1.2-3.4-3.2-3.6
		C46.6,80.1,46,79.1,45.4,78.2z"/>
</g>
<g id="_x23_7e635cff">
	<path class="st66" d="M98.9,77.2c0.8,0,2.4,0,3.2,0c0.7,4.7,0.1,10.9,5,13.6c1.7-0.6,3.3-1.3,4.9-2c0,0.6-0.2,1.7-0.2,2.2
		c-1.3,4.3,3.2,6.5,5.8,9c-0.4,0.6-1.2,1.8-1.7,2.3c-1.4-0.5-2.8-1.1-4.1-1.9c-1.7-1.2-3.6-2.1-5.7-2.7c1.2,2.5,2.5,4.9,3.5,7.4
		c-2.5-2.1-4.9-4.3-6.9-6.9c0.9-3.7,1.3-7.8-1.3-11c-0.9,2-1.7,4-2.5,6.1c-2.3-3.1-4.8-6.1-7.4-9c3.4-0.7,6.8-0.5,10.2-0.5
		c-0.6-0.9-1.2-1.7-1.8-2.6c-0.7-0.8-1.5-1.6-2.3-2.4C98,78.4,98.6,77.6,98.9,77.2z"/>
</g>
<g id="_x23_de937aff">
	<path class="st67" d="M64.8,78.2l0.3-0.6c0.1,1.2,0.2,2.4,0.3,3.6c0,3-0.2,6.1-1.6,8.8c-3.7,2.6-8.5,1.1-12.6,0.7
		c0-2.2,0-4.3,0-6.4c0.1-0.6,0.2-1.7,0.2-2.2c3.6,0.7,7.2,0.8,10.9,0.6C63.2,81.1,64,79.7,64.8,78.2z"/>
</g>
<g id="_x23_955326ff">
	<path class="st68" d="M132.1,81.2c3.5-1.3,7-2.6,10.6-3.6c0.9,1,1.8,2,2.7,3c-4.8,6.6-13.9,2.4-20.5,5.2c-1.9,1.4-3.7,2.9-5.5,4.4
		c-1.5-1.2-2.9-2.5-4.5-3.6c-1.3,1.2-2.3,2.8-3.1,4.4c0.1-0.6,0.2-1.7,0.2-2.2c-1.6,0.7-3.3,1.4-4.9,2c0.7-1.6,1.5-3.2,2.1-4.9
		c4.4-1.2,8.8-2.2,13.2-3.4C125.5,81.5,129,82.4,132.1,81.2z"/>
</g>
<g id="_x23_4e586aff">
	<path class="st69" d="M149.1,79.9c3.2-0.4,6.3-0.5,9.5-0.4c0.4,3.5,0.8,7,0.5,10.5c-0.8,3.3-1.9,6.6-2.4,10c-0.7,0.2-2,0.5-2.7,0.7
		c-1.5-1.8-3.7-3.4-4.3-5.7c-0.1-3.5,1-6.9,0.8-10.3c-0.1-0.3-0.2-0.8-0.3-1.1C149.9,82.3,149.5,81.1,149.1,79.9z"/>
</g>
<g id="_x23_6b3e28ff">
	<path class="st70" d="M145.4,80.5l0.5-0.5c1.1,1.3,2.2,2.6,3.4,3.8c-1.9,2.3-1.9,5.4-1.9,8.2c0.2,5.9-2.1,12,0.4,17.7
		c0.6,1.6,1.2,3.1,1.8,4.7c-0.3,0.4-0.9,1.2-1.3,1.6c-1.4-0.7-2.8-1.4-4.1-2.1c-0.2-2.1-0.5-4.1-0.7-6.2c-0.2-3.7-0.6-7.4-1.3-11.1
		c-0.3-1.6-0.7-3.2-1.1-4.8c-0.5-3.8-3.8-6.5-7.6-6.3c-2.9,0-5.7,0.1-8.6,0.2C131.5,82.9,140.6,87.1,145.4,80.5z"/>
</g>
<g id="_x23_754436ff">
	<path class="st71" d="M32.6,81.2l0.9-0.3c4.6,0.3,9.1,0.4,13.7,0.1c2.1,0.1,2.8,1.8,3.2,3.6c-3.4-0.2-6.9-0.7-10.3,0.2
		c-2.2,0.7-4.4,1.4-6.7,2.1c-0.3,2.1-0.6,4.3-0.8,6.4l-0.1,1.1l-0.1-0.7c-0.3-3.9-0.3-7.8,0-11.6L32.6,81.2z"/>
</g>
<g id="_x23_643e34ff">
	<path class="st72" d="M65.5,81.2c11.5,0.5,23,0.2,34.5,0c0.6,0.8,1.2,1.7,1.8,2.6c-3.4,0.1-6.9-0.2-10.2,0.5
		c-0.8,0.2-2.3,0.5-3,0.6c-5.2-2.2-11.5-3.6-16.5,0c0.2-0.5,0.5-1.5,0.6-2c-2,0.2-4,0.4-6.1,0.6C66.3,82.9,65.8,81.8,65.5,81.2z"/>
</g>
<g id="_x23_714537ff">
	<path class="st73" d="M176.8,82.7c2.5-1.5,5.3-2,8.2-1.8c10.2,0.6,20.5-0.3,30.7,0.2c0.3,3.4,0.6,6.7,1.1,10.1
		c-1.1,1.4-2.4,2.7-3.6,4l0-0.9c0-3.8-0.2-7.5-0.6-11.3c-3.3-0.2-6,1.8-8.8,3.2c-2.7,0-5-1.7-7.4-2.7c-1.7,0.8-3.4,2-5.3,2.3
		c-2.3-0.3-4.4-1.1-6.6-1.8c-0.3,1-0.7,2.1-1,3.1c2,1.1,4.2,2,5.6,3.9c0.7,4.3,1.2,8.7,1.4,13c-0.1,2-0.4,3.9-0.8,5.8
		c0.6,0.1,1.7,0.2,2.2,0.2c-2,0.6-4.1,0.5-6.1,0.8c0.5-1.7,0.8-3.5,1.1-5.3c-1.2-0.1-2.4-0.2-3.6-0.3c-0.4-0.5-1.1-1.6-1.4-2.1
		c2-0.9,4-1.8,6-2.7c-0.5-3.2-1.3-6.3-2.3-9.4c-3.6-0.6-7.2-0.6-10.9-0.4c-0.2,3-0.4,6-0.4,9c1.6,0.4,3.2,0.9,4.7,1.3
		c0.5,3.4,1.3,6.8,0.9,10.2c-1.9,2.2-5.1,1.9-7.8,2.1c-0.1-0.9-0.2-1.8-0.2-2.7c-1.4-0.8-2.9-1.7-4.3-2.5c0.5-1.3,1.1-2.6,1.5-3.9
		c1.7-4.8,2.1-9.9,2.1-14.9c2-0.8,4.1-1.5,6.1-2.3c-1.8-0.7-3.6-1.3-5.5-2C173.6,84.4,175.2,83.5,176.8,82.7z"/>
</g>
<g id="_x23_362018ff">
	<path class="st74" d="M72,84.9c5-3.6,11.2-2.1,16.5,0c1,5.7,5.1,10.2,6,15.9c-1.7-0.9-3.4-1.8-5.1-2.8c2.1,5.6,2,11.5,0.9,17.3
		c-1.9-2.7-2.5-7.5-6.4-8c-1.6,0.1-3.2,0.4-4.8,0.6c-0.5,0.1-1.4,0.2-1.8,0.3c-0.1-0.5-0.3-1.6-0.4-2.1c1.1-0.2,2.3-0.5,3.4-0.8
		c0.4-0.1,1.2-0.3,1.6-0.4c2.3-0.4,4.7-0.7,7.1-1c-0.8-2.7-1.6-5.3-2.7-7.9c-5.5-3.8-12.6-3.3-18.7-1.5l-0.9,0.2
		c-3.6,2.1-2.9,7-0.1,9.5c0.6,0.3,1.7,0.8,2.3,1.1c-1,0.8-2.1,1.6-3.1,2.4c0.3,1.4,0.6,2.8,0.9,4.2c0.3,1.5,0.7,2.9,1.2,4.4
		c1.2,3.6,1.8,7.4,2.3,11.2c1,0.5,1.9,1,2.8,1.5c-0.3,0.3-1,0.8-1.3,1c-0.3,0.3-1,0.8-1.3,1c-0.5-0.1-1.6-0.2-2.2-0.3
		c-2.4-3.3-4.5-6.9-7-10.1c0.4-2.5,0.5-5.1,0.6-7.6c-2-1.5-4-3.1-6-4.7c0.2-0.3,0.7-0.9,0.9-1.3c2.1-2.7,3.7-5.8,4.5-9.2
		c0.6-2,1.1-4.1,1.9-6C65.6,89.2,68.7,86.8,72,84.9z"/>
</g>
<g id="_x23_915c38ff">
	<path class="st75" d="M165.8,84c3.4-1.7,7.3-1.2,11-1.3c-1.6,0.8-3.1,1.7-4.7,2.6c1.8,0.7,3.6,1.3,5.5,2c-2,0.8-4.1,1.5-6.1,2.3
		C169.6,87.6,167.7,85.8,165.8,84z"/>
</g>
<g id="_x23_c9846fff">
	<path class="st76" d="M196.4,83.5c2.4,1,4.8,2.6,7.4,2.7c2.8-1.4,5.5-3.4,8.8-3.2c0.4,3.8,0.7,7.5,0.6,11.3
		c-1.4,0.7-2.7,1.4-4.2,1.8c-2.4-0.7-4.6-2.1-7-2.9c-2.2,0.9-3.9,2.7-6.1,3.7c-3.3-0.2-4.8-3.7-6.8-5.8c-1.4-1.9-3.6-2.8-5.6-3.9
		c0.3-1,0.7-2.1,1-3.1c2.2,0.7,4.3,1.5,6.6,1.8C193,85.6,194.6,84.4,196.4,83.5z"/>
</g>
<g id="_x23_574447ff">
	<path class="st77" d="M216.8,91.1c1.3-2.6,2-5.5,2.4-8.3c0,6.2-0.2,12.4,0.4,18.5c-0.3-0.2-0.9-0.6-1.2-0.8l-0.7-0.5
		c0.1-1.4,0.2-2.7,0.3-4.1c-0.7,1.1-1.5,2.2-2.2,3.2c-0.7,0-2.1-0.1-2.8-0.1c0.1-1.3,0.1-2.7,0.2-4
		C214.4,93.8,215.6,92.5,216.8,91.1z"/>
</g>
<g id="_x23_e4afa1ff">
	<path class="st78" d="M149.3,83.8l1-0.3c0.1,0.3,0.2,0.8,0.3,1.1c0.1,3.5-0.9,6.9-0.8,10.3c0.6,2.4,2.8,3.9,4.3,5.7
		c-0.5,2.4-0.9,4.9-2.2,7.1c-1.3,0.8-2.7,1.4-4.1,2c-2.6-5.7-0.3-11.8-0.4-17.7C147.4,89.2,147.4,86.1,149.3,83.8z"/>
</g>
<g id="_x23_472b19ff">
	<path class="st79" d="M164.8,84.5l1-0.5c2,1.8,3.8,3.6,5.7,5.5c0,5-0.4,10.1-2.1,14.9c-1.2,0.5-2.4,1.1-3.6,1.6
		c0-4.9,1.4-9.7,2.4-14.5c0.7-2.8-2.4-4.2-3.9-5.9l-0.6-0.6C163.9,85,164.5,84.7,164.8,84.5z"/>
</g>
<g id="_x23_d18873ff">
	<path class="st80" d="M40.1,84.8c1.5,0.2,2.9,0.5,4.4,0.7c0.5,2.3,1,4.6,1.4,6.9c-1.3,1-2.6,1.9-3.9,2.9c-0.4-0.5-1.3-1.4-1.7-1.9
		c-2.6-0.1-5.1-0.2-7.7-0.2c0.2-2.1,0.5-4.3,0.8-6.4C35.7,86.2,37.9,85.5,40.1,84.8z"/>
</g>
<g id="_x23_160e09ff">
	<path class="st81" d="M88.5,84.9c0.8-0.2,2.3-0.5,3-0.6c2.6,2.9,5.1,5.9,7.4,9c1.2,1.7,2.5,3.3,3.8,4.9c2,2.6,4.4,4.8,6.9,6.9
		c0.2,3.6-2.7,6-5.2,8.1c0.8,3.1,1.5,6.3,2,9.5c-0.7,0.9-1.4,1.8-2.2,2.7c-2.1,0-4.2,0-6.4-0.1c-0.7-4.2-1.3-8.4-2.2-12.6
		c-0.1,3.4,0,6.7,0.1,10.1c-0.5,2.8-1.3,5.5-2.1,8.2c-1.6-1.1-3.1-2.3-4.6-3.6c2.1-1.3,3.7-3.2,4.4-5.5c-1.3-0.4-2.6-0.9-3.9-1.3
		c0.3-1.8,0.6-3.5,0.8-5.3c1.1-5.8,1.2-11.7-0.9-17.3c1.7,0.9,3.4,1.9,5.1,2.8C93.6,95.1,89.5,90.6,88.5,84.9z"/>
</g>
<g id="_x23_f9cfb1ff">
	<path class="st82" d="M119.4,90.2c1.8-1.5,3.6-3,5.5-4.4c2.9-0.1,5.7-0.2,8.6-0.2c-1,2.9-2.2,5.7-3.5,8.4c-1.4,1.4-2.7,2.7-4,4.1
		c-2.7,1-5.6,1.5-8.4,1.9c-2.5-2.5-7-4.7-5.8-9c0.8-1.6,1.8-3.1,3.1-4.4C116.5,87.7,117.9,88.9,119.4,90.2z"/>
</g>
<g id="_x23_d6b1b5ff">
	<path class="st83" d="M133.5,85.6c3.8-0.2,7.2,2.5,7.6,6.3c-0.9,0.9-1.8,1.8-2.7,2.7c-1.2-1-2.5-2.1-3.7-3.1
		c-1.6,0.8-3.2,1.6-4.7,2.5C131.3,91.3,132.5,88.4,133.5,85.6z"/>
</g>
<g id="_x23_22130eff">
	<path class="st84" d="M159.1,90c1.7-1.4,3.4-2.8,5.1-4.3c1.5,1.7,4.7,3.1,3.9,5.9c-1,4.8-2.4,9.5-2.4,14.5
		c-0.1,1.9-0.2,3.8-0.3,5.6c-1.4-0.5-2.9-1-4.3-1.5c-3.2-2.4-3.5-6.6-4.4-10.2C157.3,96.6,158.3,93.3,159.1,90z"/>
</g>
<g id="_x23_795c5aff">
	<path class="st85" d="M49.3,88.4c0.7,1.1,1.4,2.1,2.1,3.2c3.9,0.2,7.8,0.4,11.7,0.5c-0.7,2-1.3,4-1.9,6c-0.2-1.2-0.4-2.4-0.7-3.6
		c-3.2-0.2-6.6-0.8-9.7,0.2c-1.2,2.3-1.7,4.9-2.3,7.3c-2-0.6-4.1-1-6.2-1.3c-3-0.4-6-0.8-9.1-1.1c-0.2-1.7-0.5-3.4-0.7-5.2l0.1-1.1
		c2.6,0,5.1,0,7.7,0.2c0.4,0.5,1.3,1.4,1.7,1.9c1.2,1.1,2.7,2.2,4.2,1C48.4,94.3,48.4,91.1,49.3,88.4z"/>
</g>
<g id="_x23_5f4e49ff">
	<path class="st86" d="M98.9,93.3c0.8-2,1.6-4.1,2.5-6.1c2.6,3.2,2.2,7.3,1.3,11C101.4,96.7,100.2,95,98.9,93.3z"/>
</g>
<g id="_x23_f2d0aeff">
	<path class="st87" d="M174.9,90.8c3.6-0.3,7.3-0.2,10.9,0.4c1,3.1,1.7,6.2,2.3,9.4c-2,0.9-4,1.8-6,2.7c0.1,2.2,1.6,3.6,3.4,4.7
		c-0.2,1.1-0.5,2.2-0.7,3.2c-4.1-1.4-3.8-6-4.4-9.5c-0.3-0.1-0.8-0.3-1.1-0.5c-1.6-0.5-3.2-0.9-4.7-1.3
		C174.5,96.8,174.7,93.8,174.9,90.8z"/>
</g>
<g id="_x23_876764ff">
	<path class="st88" d="M189.1,91.1c2,2.1,3.6,5.7,6.8,5.8c2.2-1,3.9-2.8,6.1-3.7c2.4,0.8,4.6,2.2,7,2.9c1.5-0.4,2.9-1.2,4.2-1.8
		l0,0.9c-0.1,1.3-0.1,2.6-0.2,4c0.7,0,2.1,0.1,2.8,0.1c0.7-1.1,1.5-2.2,2.2-3.2c-0.1,1.4-0.2,2.7-0.3,4.1c-6.1,0-12.2,0-18.3,0.8
		c-3.1,0.6-6.6,0.7-8.9,3.2C190.2,99.7,189.8,95.4,189.1,91.1z"/>
</g>
<g id="_x23_4a2820ff">
	<path class="st89" d="M130,94c1.5-0.9,3.1-1.7,4.7-2.5c1.2,1,2.5,2.1,3.7,3.1c-1.5,2.1-2.6,4.4-3.8,6.6c-3.8,0.6-7.7,1.2-11.6,1
		c0.9-1.4,1.9-2.8,2.9-4.1C127.3,96.7,128.6,95.4,130,94z"/>
</g>
<g id="_x23_9a6760ff">
	<path class="st90" d="M138.4,94.6c0.9-0.9,1.8-1.8,2.7-2.7c0.4,1.6,0.7,3.2,1.1,4.8c-1.2-0.2-2.4-0.3-3.7-0.5
		c0,0.4-0.1,1.3-0.1,1.7c-0.3,1.8-0.6,3.7-0.9,5.5c-2.9,0.2-5.8,0.6-8.7,0.9c0.7,2,0.5,5,2.8,5.9c1.8,0.1,3.5-0.3,5.3-0.5
		c1.9,2,3.8,4,5.9,5.8c-1.7,0.6-3.5,1.4-5.4,1.2c-1.9-1.5-3.2-3.7-5.3-5c-2.6-1.2-5.6-1.6-8.4-1.9c-3.2,1.1-6.3,2.2-9.4,3.6l0.3-0.8
		c2.8-2.8,5.2-6,5.3-10.2c-1.3,0-2.7-0.1-4-0.2c0.4-0.6,1.2-1.8,1.7-2.3c2.8-0.4,5.7-0.9,8.4-1.9c-1,1.3-2,2.7-2.9,4.1
		c3.9,0.2,7.7-0.3,11.6-1C135.8,99,136.9,96.7,138.4,94.6z"/>
</g>
<g id="_x23_9b3532ff">
	<path class="st91" d="M67.6,94.6c6.1-1.8,13.2-2.4,18.7,1.5c-0.6,0.9-1.1,1.8-1.7,2.7c-1.2,0-2.5-0.1-3.7-0.1
		c1,1.1,2.1,2.3,3.1,3.4c-0.7,1-1.4,2-2.1,3c-0.4,0.1-1.2,0.3-1.6,0.4c0.6-1.4,1.1-2.8,1.7-4.1c-5.2-0.3-10.3-0.1-15.4,0.7
		c0,0.6,0.1,1.8,0.1,2.3c-2.8-2.5-3.5-7.4,0.1-9.5l0.2,0.9c0.2,0.7,0.5,2.2,0.7,3c0.4,0.1,1.2,0.3,1.6,0.4c2.6,0.1,5.1,0,7.7-0.1
		c0.4-1.3,0.8-2.6,1.2-4c-0.9,0-2.7-0.1-3.6-0.1C72.2,94.8,69.9,94.7,67.6,94.6z"/>
</g>
<g id="_x23_342627ff">
	<path class="st92" d="M32.5,93.7l0.1,0.7c0.2,1.7,0.4,3.5,0.7,5.2c3,0.4,6,0.7,9.1,1.1c-4-0.5-8.2,0-10.8,3.3
		c-0.4-0.2-1.2-0.6-1.6-0.8C30.8,100.1,31.8,96.9,32.5,93.7z"/>
</g>
<g id="_x23_867a79ff">
	<path class="st93" d="M50.8,94.7c3.2-0.9,6.5-0.4,9.7-0.2c0.2,1.2,0.5,2.4,0.7,3.6c-0.7,3.4-2.3,6.5-4.5,9.2
		c-2.7-1.9-5.4-3.7-8.3-5.2C49.1,99.6,49.6,97,50.8,94.7z"/>
</g>
<g id="_x23_cd3d46ff">
	<path class="st94" d="M66.7,94.8l0.9-0.2c2.3,0.1,4.6,0.3,6.9,0.4c0.8,1.4,1.6,2.7,2.4,4.1c-2.6,0.1-5.1,0.2-7.7,0.1
		c0.1-0.9,0.2-1.7,0.2-2.6c-0.6-0.2-1.9-0.6-2.5-0.8L66.7,94.8z"/>
</g>
<g id="_x23_e08f8dff">
	<path class="st95" d="M74.5,95c0.9,0,2.7,0.1,3.6,0.1c-0.4,1.3-0.8,2.6-1.2,4C76.1,97.7,75.3,96.3,74.5,95z"/>
</g>
<g id="_x23_f7c0b0ff">
	<path class="st96" d="M66.9,95.7c0.6,0.2,1.9,0.6,2.5,0.8c-0.1,0.9-0.2,1.7-0.2,2.6c-0.4-0.1-1.2-0.3-1.6-0.4
		C67.5,98,67.1,96.5,66.9,95.7z"/>
	<path class="st96" d="M179.5,143c2-0.2,3.9-0.3,5.9-0.5c0.8,0.9,1.6,1.9,2.4,2.8c0.5,0.6,1.1,1.2,1.6,1.8c3.9,3.7,6.2,8.7,8.1,13.7
		c-0.7,1.5-1.4,2.9-2,4.4c-2.3-2.1-5.1-3.6-7.8-4.9C185.4,154.3,182,148.8,179.5,143z"/>
</g>
<g id="_x23_5e1d19ff">
	<path class="st97" d="M86.3,96.1c1.1,2.6,1.9,5.2,2.7,7.9c-2.4,0.3-4.7,0.6-7.1,1c0.7-1,1.4-2,2.1-3c-1-1.1-2.1-2.3-3.1-3.4
		c1.2,0.1,2.5,0.1,3.7,0.1C85.2,97.9,85.8,97,86.3,96.1z"/>
</g>
<g id="_x23_f9e3ebff">
	<path class="st98" d="M138.5,96.2c1.2,0.2,2.5,0.3,3.7,0.5c0.7,3.7,1.1,7.4,1.3,11.1c-0.1,2.2-0.4,4.3-0.7,6.4
		c-1.6-1.9-3.9-3.6-4.1-6.3c-0.4-3.3-0.3-6.7-0.3-10C138.4,97.5,138.5,96.6,138.5,96.2z"/>
</g>
<g id="_x23_bd9766ff">
	<path class="st99" d="M106.1,97.8c2,0.5,3.9,1.4,5.7,2.7c-2.1,3.7-1.5,8.1-0.9,12.1c1.2,0,2.5,0.1,3.7,0.1l-0.3,0.8
		c-0.2,0.4-0.4,1.3-0.6,1.8c2.3,0,4.6,0,6.8,0c3.4,0,6.8,0.3,10.2,0.6c-0.5,1.5-1,3.1-1.4,4.6c-0.3-1.3-0.7-2.6-1-3.9
		c-5-0.4-9.9-0.4-14.9,0c-0.2,0.8-0.6,2.4-0.8,3.1c-0.2-0.3-0.7-0.9-1-1.2c-0.3-0.4-0.9-1.1-1.2-1.5c-1.4,1.9-2.8,3.8-4.2,5.8
		c-0.4-3.2-1.1-6.4-2-9.5c2.5-2.1,5.4-4.4,5.2-8.1C108.6,102.6,107.3,100.2,106.1,97.8z"/>
</g>
<g id="_x23_dfb09aff">
	<path class="st100" d="M138.4,97.9c0,3.3,0,6.7,0.3,10c0.2,2.7,2.5,4.4,4.1,6.3c0.3-2.1,0.5-4.3,0.7-6.4c0.2,2.1,0.5,4.1,0.7,6.2
		c-0.3,0.4-1,1.2-1.4,1.6c-2.1-1.8-4.1-3.7-5.9-5.8c-1.8,0.2-3.5,0.6-5.3,0.5c-2.3-0.9-2.1-3.9-2.8-5.9c2.9-0.3,5.8-0.6,8.7-0.9
		C137.8,101.6,138.1,99.8,138.4,97.9z"/>
</g>
<g id="_x23_342d28ff">
	<path class="st101" d="M15.7,99.2l0.5,0.2c3.7,1.5,7.6,3,9.9,6.4c2.3,3.6,4,7.5,6.2,11.1c1.8-3.3,4.1-6.4,7.5-8.2
		c0.3,1,0.6,2.1,0.8,3.1c-0.3,1.1-0.8,2.1-1.1,3.1c-4,2-8.2,3.6-12.6,4.7c0.5,3.5,3.8,4.6,6.7,5.7c-0.4,0.2-1.1,0.8-1.5,1
		c-0.6,1.7-1.1,3.3-1.7,5c-2-4-4.1-8.2-3.9-12.7c-0.1-2.6,0.5-5.5-1.3-7.8c-2.6-3.6-6.1-6.5-9.5-9.3C15.7,101,15.7,99.8,15.7,99.2z"
		/>
</g>
<g id="_x23_bd916cff">
	<path class="st102" d="M154,100.7c0.7-0.2,2-0.5,2.7-0.7c0.9,3.6,1.2,7.8,4.4,10.2c3.1,2.8,4.2,7,4,11.1l-0.7-0.5
		c-4.1-2.5-8.1-5.4-10.3-9.9c-0.5,0.4-1.4,1.1-1.9,1.5c-0.7,0.5-1.4,1-2.1,1.6l-0.5,0.4c-0.6-1.5-1.2-3.1-1.8-4.7
		c1.4-0.6,2.8-1.2,4.1-2C153.2,105.6,153.5,103.1,154,100.7z"/>
</g>
<g id="_x23_e4d7d8ff">
	<path class="st103" d="M199.4,100.9c6.1-0.8,12.2-0.8,18.3-0.8l0.7,0.5c-1.3,0.2-2.6,0.5-3.9,0.8c-3.2,0.8-6.1,2.5-8.8,4.2
		c1.3,1.4,2.7,2.8,4.2,4c0.1,0.7,0.3,2.2,0.4,2.9c-1.7-0.1-3.3-0.1-4.9-0.3C202.4,109,200,105.2,199.4,100.9z"/>
</g>
<g id="_x23_e0816fff">
	<path class="st104" d="M66.6,102c5.1-0.8,10.2-1,15.4-0.7c-0.6,1.4-1.1,2.8-1.7,4.1c-1.2,0.3-2.3,0.5-3.4,0.8
		c-2.7,0.5-5.4,0.2-7.9-0.7c-0.6-0.3-1.7-0.8-2.3-1.1C66.6,103.7,66.6,102.6,66.6,102z"/>
</g>
<g id="_x23_f3d1b5ff">
	<path class="st105" d="M110.9,112.5c-0.6-4-1.2-8.4,0.9-12.1c1.3,0.8,2.7,1.5,4.1,1.9c1.3,0.1,2.7,0.1,4,0.2
		c0,4.2-2.4,7.4-5.3,10.2C113.4,112.6,112.1,112.6,110.9,112.5z"/>
</g>
<g id="_x23_bfaca7ff">
	<path class="st106" d="M179.2,101.2c0.3,0.1,0.8,0.3,1.1,0.5c0.6,3.5,0.3,8.1,4.4,9.5c0.2-1.1,0.5-2.2,0.7-3.2
		c-1.8-1-3.3-2.5-3.4-4.7c0.4,0.5,1.1,1.6,1.4,2.1c1.2,0.1,2.4,0.2,3.6,0.3c-0.3,1.8-0.6,3.6-1.1,5.3c-0.3,0.6-1,1.8-1.3,2.4
		c-0.9,2.6-1.2,5.4-1.7,8.2c-3.1,0-6.1-0.4-9.1-1.1c-0.6-2.3-1.2-4.5-1.5-6.9c2.6-0.2,5.8,0.1,7.8-2.1
		C180.5,108,179.7,104.6,179.2,101.2z"/>
</g>
<g id="_x23_a2886fff">
	<path class="st107" d="M190.5,104.1c2.3-2.5,5.9-2.6,8.9-3.2c0.6,4.3,3,8.1,5.9,11.2c1.6,0.3,3.3,0.3,4.9,0.3
		c-0.1-0.7-0.3-2.2-0.4-2.9c0.8,0.7,1.6,1.3,2.5,2c0.8-0.1,1.7-0.3,2.5-0.4c0.3,0.5,0.9,1.5,1.2,2c-4.8-0.2-9.6,0.2-14.3,0.6
		c-1.2,0.1-2.3,0.2-3.5,0.3c-1.5-1.4-2.9-2.9-4.2-4.5c-0.5,0.2-1.5,0.5-2,0.6c-0.6-0.1-1.7-0.2-2.2-0.2
		C190.1,108,190.3,106.1,190.5,104.1 M201.1,109.1c-0.5,1.6,0,2.2,1.7,1.7C203.3,109.2,202.7,108.6,201.1,109.1z"/>
</g>
<g id="_x23_f6e4f3ff">
	<path class="st108" d="M214.5,101.3c1.3-0.3,2.6-0.6,3.9-0.8c0.3,0.2,0.9,0.6,1.2,0.8c0.8,0.5,1.6,1.1,2.4,1.7
		c-0.5,3.2-1.2,6.3-1.6,9.5l-0.1,0.8c-1.4-0.1-2.8-0.1-4.2-0.2c-0.3-0.5-0.9-1.5-1.2-2c1.3-1.4,2.8-2.8,3.9-4.3
		C217.6,104.8,215.9,103.1,214.5,101.3z"/>
</g>
<g id="_x23_050404ff">
	<path class="st109" d="M15.7,101.6c3.4,2.8,6.9,5.7,9.5,9.3c1.7,2.2,1.2,5.1,1.3,7.8c-0.2,4.6,1.9,8.8,3.9,12.7l0.4,0.7
		c0.6,1.2,1.2,2.5,1.5,3.8c0.1,3.8-0.3,7.6-0.7,11.4c-2.2,0.1-4.3,0.2-6.5,0.5c-3.9,0.3-6.4,3.1-7.9,6.4c-0.3,0-0.8,0.1-1.1,0.1
		C11.9,137.1,11.6,118.9,15.7,101.6 M17.1,126.9c0.5,0,1.4,0,1.8,0c0.8-4,0.5-8.2-0.2-12.2C15.9,118,16.5,122.8,17.1,126.9z"/>
</g>
<g id="_x23_dd45a3ff">
	<path class="st110" d="M205.6,105.6c2.8-1.8,5.6-3.5,8.8-4.2c1.5,1.8,3.2,3.4,4.3,5.5c-1.2,1.6-2.6,2.9-3.9,4.3
		c-0.8,0.1-1.7,0.3-2.5,0.4c-0.8-0.7-1.7-1.3-2.5-2C208.3,108.3,206.9,107,205.6,105.6z"/>
</g>
<g id="_x23_7f2f22ff">
	<path class="st111" d="M68.9,105.4c2.5,0.9,5.3,1.2,7.9,0.7c0.1,0.5,0.3,1.6,0.4,2.1c0.5-0.1,1.4-0.2,1.8-0.3
		c0.2,0.5,0.5,1.6,0.7,2.1c0.6,2.1,1.1,4.2,1.6,6.2c1.4-0.9,2.9-1.9,4.3-2.9c-0.4-1.1-0.9-2.2-1.2-3.3c-0.2-0.9-0.4-1.8-0.5-2.8
		c3.9,0.4,4.5,5.3,6.4,8c-0.2,1.8-0.5,3.5-0.8,5.3c-0.4,1.3-0.7,2.5-1.1,3.8c-0.4-2.5-0.7-4.9-1-7.4c-3.1,1.5-6.4,3.2-7.6,6.6
		l-0.6-0.2c-2.1-1-4.3-2.1-5.8-4c-0.6-3-0.2-6,0-9c-2-0.8-3.9-2.9-6.2-2.2c-0.4,1.2-0.6,2.5-0.4,3.8c-0.3-1.4-0.6-2.8-0.9-4.2
		C66.9,107,67.9,106.2,68.9,105.4 M74.9,115c-0.3,1.6-0.5,3.1-0.7,4.7c1.3-0.2,2.8,0.3,4-0.5c0.3-0.9,0.6-1.9,0.9-2.8
		C77.7,115.9,76.3,115.4,74.9,115z"/>
</g>
<g id="_x23_4d3631ff">
	<path class="st112" d="M165.7,106.1c1.2-0.5,2.4-1.1,3.6-1.6c-0.5,1.3-1,2.6-1.5,3.9c1.4,0.8,2.9,1.7,4.3,2.5
		c0.1,0.9,0.1,1.8,0.2,2.7c0.3,2.3,1,4.6,1.5,6.9c0.6,2.2,0.6,4.6,0.6,6.9c-0.5-0.2-1.4-0.6-1.8-0.8c-2.7-1.4-5.1-3.3-7.5-5.1
		c0.2-4.1-0.9-8.3-4-11.1c1.4,0.5,2.9,1,4.3,1.5C165.5,109.8,165.6,107.9,165.7,106.1z"/>
</g>
<g id="_x23_c2816cff">
	<path class="st113" d="M67.2,108.3c2.3-0.7,4.2,1.4,6.2,2.2c-0.6,2.1-1.2,4.1-1.9,6.2c-1.2-0.1-2.4-0.2-3.6-0.2
		c-0.4-1.5-0.8-2.9-1.2-4.4C66.7,110.8,66.8,109.5,67.2,108.3z"/>
</g>
<g id="_x23_ac8159ff">
	<path class="st114" d="M54.4,112.8c0.5-1.4,0.9-2.8,1.5-4.2c2,1.6,4,3.1,6,4.7c-0.1,2.5-0.2,5.1-0.6,7.6c-0.3,2.4-1.5,5-0.5,7.3
		c1.9,1.2,4.1,2,6.3,2.8c-3.6,0.5-8,0.5-10.7-2.3c-2.3-2.9-0.6-6.6-0.1-9.8C56.8,116.6,55.2,114.7,54.4,112.8z"/>
</g>
<g id="_x23_210d08ff">
	<path class="st115" d="M192,110.2c0.5-0.2,1.5-0.5,2-0.6c1.4,1.5,2.7,3.1,4.2,4.5c1.4,1.1,3,2.2,4.5,3.2c-1.5,3-2.9,6-4.7,8.8
		c-2.7-0.4-5.5-0.7-8.2-1c-0.1-4.5-2.4-8.4-5.2-11.8c0.3-0.6,1-1.8,1.3-2.4C187.9,110.7,190,110.7,192,110.2z"/>
</g>
<g id="_x23_4c3e2fff">
	<path class="st116" d="M201.1,109.1c1.6-0.5,2.2,0.1,1.7,1.7C201.1,111.3,200.6,110.7,201.1,109.1z"/>
</g>
<g id="_x23_33130bff">
	<path class="st117" d="M41.1,113.5c2-0.8,4-2.8,6.2-2.4c2,1.7,0,4.6,0,6.8c2.6-1.3,5.9-2,7.1-5c0.8,1.9,2.4,3.8,1.9,6
		c-0.5,3.2-2.2,6.8,0.1,9.8c2.7,2.8,7.1,2.9,10.7,2.3c0.3,0,0.9,0,1.2,0.1c0.5,0.1,1.6,0.2,2.2,0.3c-3.4,2.7-6.7,5.4-10,8.1
		c-1.6-1.6-3.7-2.8-5.7-3.9c-0.5,1.3-1,2.6-1.4,3.9c-2.1,0-4.3,0-6.5,0c1-3,2.2-6,2.3-9.2c-1.7-2-3.8-3.6-5.7-5.2
		c-0.5-0.4-1.5-1.3-2-1.8c-0.5-0.4-1.3-1.2-1.8-1.6c0-2.2-0.1-4.4-0.2-6.7c0.4-1,0.8-2.1,1.1-3.1C40.8,112.2,41,113.1,41.1,113.5z"
		/>
</g>
<g id="_x23_ab5441ff">
	<path class="st118" d="M79.8,110.1c1.5,0,3.1,0,4.6,0c0.4,1.1,0.8,2.2,1.2,3.3c-1.4,1-2.9,1.9-4.3,2.9
		C80.9,114.2,80.4,112.1,79.8,110.1z"/>
</g>
<g id="_x23_78452bff">
	<path class="st119" d="M114.3,113.4c3.1-1.3,6.2-2.5,9.4-3.6c-1.2,1.7-2.2,3.5-3.2,5.4c-2.3,0-4.6,0-6.8,0
		C113.9,114.8,114.2,113.9,114.3,113.4z"/>
</g>
<g id="_x23_462617ff">
	<path class="st120" d="M123.7,109.8c2.8,0.3,5.8,0.7,8.4,1.9c2.1,1.3,3.4,3.4,5.3,5c1.9,0.3,3.7-0.5,5.4-1.2c0.3-0.4,1-1.2,1.4-1.6
		c1.4,0.7,2.8,1.4,4.1,2.1c-2.9,5.1-9.5,5.1-14.1,7.9c-0.4,0.2-1.2,0.5-1.6,0.7c-0.4,0.2-1.1,0.5-1.5,0.6c-0.3-0.1-0.9-0.3-1.2-0.4
		c0.5-3,0.9-6,0.8-9.1c-3.4-0.3-6.8-0.5-10.2-0.6C121.5,113.4,122.6,111.6,123.7,109.8z"/>
</g>
<g id="_x23_b27a4eff">
	<path class="st121" d="M73.4,110.5c-0.2,3-0.6,6,0,9c1.4,1.9,3.7,3,5.8,4c-0.4,0.6-1.2,1.7-1.7,2.2c0.1-0.4,0.3-1.2,0.3-1.6
		c-1.5,1.7-3,3.5-4.7,5c-1-0.5-1.9-1-2.8-1.5c-0.5-3.8-1.1-7.6-2.3-11.2c1.2,0.1,2.4,0.1,3.6,0.2C72.2,114.6,72.8,112.5,73.4,110.5z
		"/>
</g>
<g id="_x23_cbbfbeff">
	<path class="st122" d="M152.2,112.5c0.5-0.4,1.4-1.1,1.9-1.5c2.2,4.4,6.2,7.4,10.3,9.9c-3.1-0.8-6.6-1-9.4-2.8
		C153.4,116.7,153.1,114.3,152.2,112.5z"/>
</g>
<g id="_x23_8c795dff">
	<path class="st123" d="M95.5,112.8c1,4.2,1.5,8.4,2.2,12.6c2.1,0,4.2,0.1,6.4,0.1c-3,1.9-6.3,3.5-9.3,5.3c0.7-2.6,0.9-5.2,0.8-7.9
		C95.5,119.5,95.4,116.1,95.5,112.8z"/>
</g>
<g id="_x23_647daeff">
	<path class="st124" d="M150.1,114c0.7-0.5,1.4-1,2.1-1.6c0.9,1.9,1.3,4.2,2.9,5.6c2.8,1.8,6.2,1.9,9.4,2.8l0.7,0.5
		c2.4,1.8,4.8,3.7,7.5,5.1c1.4,2.2,3.4,4,5.2,5.8c2.1,1.9,2.7,4.7,3.7,7.2c-1.9,0.1-3.8,0.2-5.6,0.5l0.2-0.8c0.3-1.3,0.5-2.7,0.7-4
		c-1.8,0.3-3.6,0.6-5.4,1c-2.2-2.9-5.8-4.4-9.4-3.3c0.5-0.7,0.9-1.3,1.4-2c-4.7-4.5-9.6-9-13.1-14.6c0.4-0.6,1.1-1.8,1.4-2.3
		C151.3,113.8,150.5,114,150.1,114z"/>
</g>
<g id="_x23_302520ff">
	<path class="st125" d="M182.9,121.5c0.5-2.7,0.7-5.5,1.7-8.2c2.8,3.4,5.1,7.2,5.2,11.8c2.8,0.3,5.5,0.7,8.2,1
		c-2.9,2-6.3,3.5-8.2,6.5c-1.5,4.1-1.2,8.5-2,12.7c-0.8-0.9-1.6-1.9-2.4-2.8c-2.3-5.8-4.1-13.3-10.9-15.2c0-2.3-0.1-4.6-0.6-6.9
		C176.8,121.1,179.9,121.5,182.9,121.5 M186.5,118.4c-1.1,0.9-0.7,3.1,0.8,3.3C189.4,121.5,188.5,117.2,186.5,118.4z"/>
</g>
<g id="_x23_a36c55ff">
	<path class="st126" d="M201.7,113.7c4.8-0.4,9.5-0.7,14.3-0.6c1.4,0.1,2.8,0.1,4.2,0.2c-0.7,2.6-2.2,5.3-5.2,5.7
		c-2.1-0.7-1.4-3.4-1.9-5.1C209.3,113.6,205.5,113.5,201.7,113.7z"/>
</g>
<g id="_x23_663f2cff">
	<path class="st127" d="M220.2,113.4l0.1-0.8c0.3,2.1,0.7,4.3,1,6.4c-1.4,1.4-2.8,2.8-4.2,4.2c1.2,0.5,2.4,1,3.7,1.5
		c-1.8,9.6-1.3,19.5-1,29.3c-0.5-1.1-1-2.1-1.5-3.2l0-0.9c0-5.1-0.2-10.3,0.1-15.5c0.1-1.5,0.3-2.9,0.4-4.4
		c-1.8-0.3-3.6-0.6-5.5-0.9c0.3-2.1,0.7-4.1,1.1-6.2c-2.9-2.2-6.1-4.1-9.4-5.7c-0.9,1.3-1.8,2.6-2.7,3.9c2.1,0.1,4.2,0.2,6.3,0.3
		c-1.3,2.7-2.7,5.4-4.3,7.9c-0.6-0.4-1.8-1.3-2.4-1.7c-0.2-0.6-0.7-1.7-0.9-2.2c-1.6,1.9-3,4-4.2,6.1c-2.4,0.2-4.8,0.6-7.1,1.1
		c1.9-3.1,5.3-4.6,8.2-6.5c1.8-2.8,3.2-5.8,4.7-8.8c-1.5-1.1-3-2.1-4.5-3.2c1.1-0.1,2.3-0.2,3.5-0.3c3.8-0.2,7.6-0.1,11.4,0.2
		c0.6,1.7-0.1,4.4,1.9,5.1C218,118.7,219.6,116,220.2,113.4z"/>
</g>
<g id="_x23_381a0eff">
	<path class="st128" d="M220.4,112.5c3.7,1.3,7,3.6,8.9,7.1c-1.1-0.1-2.1-0.2-3.1-0.4c3.1,6.1,5.8,12.5,8.1,19
		c-0.3,5.2-1.2,10.5-2.9,15.5c-2.8-10.4-4.5-21.1-6.9-31.7c-1.2,0.9-2.4,1.7-3.6,2.6c-1.2-0.5-2.4-1-3.7-1.5
		c1.4-1.4,2.8-2.8,4.2-4.2C221,116.8,220.7,114.7,220.4,112.5z"/>
</g>
<g id="_x23_4c5162ff">
	<path class="st129" d="M149.6,114.4l0.5-0.4c0.4-0.1,1.2-0.2,1.6-0.2c-0.4,0.6-1.1,1.8-1.4,2.3c-1,1.5-2.1,3-3.1,4.6
		c-0.5,1.1-1,2.2-1.5,3.3c1.1,0.2,2.2,0.4,3.3,0.5c1.2,0.1,2.3,0.2,3.5,0.3c-1.1,4.1-1.9,8.2-1.8,12.4c-0.4-3.2-0.8-6.4-1.3-9.6
		c-2.7,1.5-5.3,3.2-7.6,5.2c0.9-2.4,1.6-4.9,2.4-7.3c-3-1.9-6.6-2.5-10.1-1.6c4.6-2.8,11.2-2.8,14.1-7.9
		C148.6,115.7,149.3,114.8,149.6,114.4z"/>
</g>
<g id="_x23_222222ff">
	<path class="st130" d="M17.1,126.9c-0.6-4-1.3-8.8,1.6-12.2c0.7,4,1,8.2,0.2,12.2C18.5,126.9,17.6,126.9,17.1,126.9z"/>
</g>
<g id="_x23_eb924dff">
	<path class="st131" d="M26.9,119.6c4.4-1.1,8.6-2.7,12.6-4.7c0,2.2,0.1,4.5,0.2,6.7c-1.3,1.1-2.6,2.3-3.9,3.5
		c-1.1,3.2-1.1,6.5-1.2,9.8c-1.3-1-2.5-1.9-3.8-2.9l-0.4-0.7c0.5-1.7,1.1-3.4,1.7-5c0.4-0.2,1.1-0.8,1.5-1
		C30.7,124.2,27.4,123.1,26.9,119.6z"/>
</g>
<g id="_x23_5f0805ff">
	<path class="st132" d="M74.9,115c1.4,0.5,2.8,0.9,4.2,1.4c-0.2,0.9-0.5,1.9-0.9,2.8c-1.2,0.8-2.7,0.3-4,0.5
		C74.4,118.1,74.6,116.5,74.9,115z"/>
</g>
<g id="_x23_e8bca3ff">
	<path class="st133" d="M113.4,116.5c4.9-0.4,9.9-0.5,14.9,0c0.3,1.3,0.7,2.6,1,3.9c-1.3,0.2-2.6,0.4-4,0.4
		c-1.9-0.9-3.3-2.7-5.4-3.3c-2,0.4-3.5,1.8-5.1,2.9c-0.5,0-1.4,0-1.9,0l-0.2-0.8C112.9,118.8,113.2,117.3,113.4,116.5z"/>
</g>
<g id="_x23_603520ff">
	<path class="st134" d="M130.7,115.8c0,3.1-0.4,6.1-0.8,9.1c0.3,0.1,0.9,0.3,1.2,0.4c-0.4,0.1-1.1,0.4-1.5,0.5
		c-4.8,1.4-9.9,1.9-14.8,3c-0.5-2.9-1.1-5.7-1.9-8.5c0.5,0,1.5,0,1.9,0c1.6-1.1,3.2-2.5,5.1-2.9c2.1,0.6,3.5,2.3,5.4,3.3
		c1.3,0,2.6-0.2,4-0.4C129.8,118.9,130.2,117.3,130.7,115.8z"/>
</g>
<g id="_x23_4c6284ff">
	<path class="st135" d="M147.2,120.7c1-1.6,2.1-3,3.1-4.6c3.4,5.6,8.3,10.2,13.1,14.6c-0.5,0.7-0.9,1.3-1.4,2
		c-0.2,0.4-0.7,1.1-1,1.4c-1.6,2.7-3.6,5.5-3.9,8.7c0.9,2.7,2.3,5.3,2.3,8.3c-0.1-0.7-0.4-2.2-0.5-2.9c-1.3,0.8-2.6,1.6-3.9,2.5
		c-1-1.9-2.1-3.9-3-5.8c-0.5-2.5-0.9-5.1-1.2-7.6c-0.2-4.2,0.7-8.4,1.8-12.4c-1.2-0.1-2.3-0.2-3.5-0.3c0.2-0.8,0.4-1.6,0.6-2.4
		C148.9,121.7,148,121.2,147.2,120.7 M152.9,128.8c-1.7,4-1.1,8.3,0,12.3c2.2-2.7,3.8-5.8,5.1-9C156.3,131,154.6,129.9,152.9,128.8z
		"/>
</g>
<g id="_x23_2c1114ff">
	<path class="st136" d="M79.8,123.7c1.2-3.5,4.5-5.2,7.6-6.6c0.3,2.5,0.6,4.9,1,7.4c0.1,0.8,0.4,2.3,0.6,3l-0.7-0.6
		c-0.6-0.6-1.2-1.1-1.8-1.6C84.3,124.7,82,124.2,79.8,123.7z"/>
</g>
<g id="_x23_c0c8caff">
	<path class="st137" d="M106.3,122.7c1.4-1.9,2.7-3.9,4.2-5.8c0.3,0.4,0.9,1.1,1.2,1.5c-2.2,6.9-8.8,10.7-12.8,16.5
		c-3.1,3.7-4.7,8.5-4.5,13.4c-0.9-2.6-1.9-5.1-2.9-7.6c0.6-1.8,1.1-3.7,1.6-5.5c0.5-1.4,1.1-2.9,1.6-4.3c3.1-1.8,6.3-3.4,9.3-5.3
		C104.9,124.6,105.6,123.7,106.3,122.7z"/>
</g>
<g id="_x23_6d5b4eff">
	<path class="st138" d="M186.5,118.4c2-1.2,2.9,3.1,0.8,3.3C185.8,121.4,185.4,119.2,186.5,118.4z"/>
</g>
<g id="_x23_e5ae9aff">
	<path class="st139" d="M202.4,121.1c0.9-1.3,1.8-2.6,2.7-3.9c3.3,1.5,6.5,3.5,9.4,5.7c-0.4,2.1-0.8,4.1-1.1,6.2
		c1.8,0.3,3.7,0.6,5.5,0.9c-0.1,1.5-0.3,2.9-0.4,4.4c-5-0.2-10-0.4-14.9-0.9c1.1-4.7,6.5-7,6.2-12.1l-1.1,0
		C206.6,121.4,204.5,121.3,202.4,121.1z"/>
</g>
<g id="_x23_3b3d4fff">
	<path class="st140" d="M111.7,118.4c0.2,0.3,0.7,0.9,1,1.2l0.2,0.8c0.8,2.8,1.5,5.6,1.9,8.5c0.3,1.6,0.6,3.3,0.9,4.9
		c-1.6,0.7-3.2,1.3-4.8,1.8c-2.8,0.8-5.7,1.1-8.3,2.1c-2.3,1.2-3.5,3.6-4.7,5.8c-0.4,2.1-0.7,4.2-0.9,6.4c-0.5-0.2-1.6-0.5-2.2-0.7
		l-0.3-0.9c-0.2-4.8,1.4-9.6,4.5-13.4C102.8,129.1,109.5,125.3,111.7,118.4z"/>
</g>
<g id="_x23_734736ff">
	<path class="st141" d="M226.1,119.3c1,0.1,2.1,0.2,3.1,0.4c1.6,2.5,3.6,4.8,5.7,6.8c-0.2,3.9-0.2,7.9-0.7,11.8
		C231.9,131.8,229.3,125.4,226.1,119.3z"/>
</g>
<g id="_x23_3d3a32ff">
	<path class="st142" d="M60.8,128.1c-1-2.4,0.2-4.9,0.5-7.3c2.6,3.2,4.6,6.8,7,10.1c-0.3,0-0.9-0.1-1.2-0.1
		C64.9,130.1,62.7,129.4,60.8,128.1z"/>
</g>
<g id="_x23_404041ff">
	<path class="st143" d="M88.3,124.4c0.4-1.3,0.8-2.5,1.1-3.8c1.3,0.4,2.6,0.9,3.9,1.3c-0.7,2.4-2.3,4.2-4.4,5.5
		C88.8,126.7,88.5,125.2,88.3,124.4z"/>
</g>
<g id="_x23_858d98ff">
	<path class="st144" d="M145.7,124c0.5-1.1,0.9-2.2,1.5-3.3c0.8,0.5,1.7,1,2.5,1.4c-0.2,0.8-0.4,1.6-0.6,2.4
		C147.9,124.3,146.8,124.2,145.7,124z"/>
</g>
<g id="_x23_d1996eff">
	<path class="st145" d="M208.7,121.4l1.1,0c0.3,5.1-5.2,7.4-6.2,12.1c5,0.4,10,0.7,14.9,0.9c-0.3,5.2-0.1,10.3-0.1,15.5
		c-0.4,0-1.1,0-1.5,0c-2.3-0.5-4.6-1-7-1.4c2.6-0.2,5.2-0.5,7.7-0.8c-0.9-1-1.6-2.3-2.8-3.1c-2.2-0.5-4.1,0.9-5.9,1.9
		c0-0.4-0.1-1.1-0.1-1.4c1.3-3.1,3.2-5.9,5.3-8.5c-2.9-1.3-6.2-1.5-9.3-1.3c-1.4-2.3-2.8-4.6-4.3-6.9c0.4-0.2,1.3-0.6,1.7-0.8
		c0.6,0.4,1.8,1.3,2.4,1.7C206,126.8,207.3,124.1,208.7,121.4z"/>
</g>
<g id="_x23_592110ff">
	<path class="st146" d="M35.8,125.1c1.3-1.2,2.6-2.3,3.9-3.5c0.5,0.4,1.3,1.2,1.8,1.6c-0.9,0.9-1.7,1.8-2.5,2.7
		c1.5-0.3,3.1-0.6,4.6-0.9c2,1.7,4.1,3.2,5.7,5.2c-0.1,3.2-1.3,6.2-2.3,9.2c2.2,0,4.3,0,6.5,0c0.5-1.3,1-2.6,1.4-3.9
		c0.2,2.2,0.2,4.6,1.1,6.6c2.4,2,5.4,3.1,7.7,5.3c-2.6-0.9-5.2-1.7-7.8-2.5c-0.2,1.7-0.4,3.4-0.6,5.1c-2,1.7-4.5,3-5.8,5.4
		c-0.8,1.7,0.6,3.2,1.6,4.5c-4.2-0.1-8.2-1.3-12-2.8c-1.8,1.3-3.5,2.6-5.3,3.9c-0.9,2.9-1,6-0.8,9.1c-0.5-1.9-0.9-3.7-1.4-5.6
		c-4.4-0.6-8.7-1.4-13-2.6c2.3-3.7,6.3-5.5,9.7-8c-1-2.1-2.1-4.1-3.2-6.2c2.2-0.3,4.3-0.4,6.5-0.5c0.4-3.8,0.8-7.6,0.7-11.4
		c0.5,3.6,0.6,7.3,0.7,11c-0.9,1.5-1.9,2.8-2.6,4.4c-0.1,2,0.4,3.9,0.8,5.8c0.9-1.4,1.8-2.9,2.5-4.4c2.7-0.8,5.4-1.4,8.3-1.3
		c4.2,0.1,9.9,1.5,12.4-2.9c0.8-3.7-2.3-6.5-4.9-8.5c-1.9,2.1-3.9,4.2-5.7,6.4c0.5-3.1,0.9-6.3,1.2-9.5c0.1-1.8,0.1-3.7,0.1-5.5
		c-3,1-6.1,1.7-9.2,2.2C35.8,130.7,35.8,127.9,35.8,125.1z"/>
</g>
<g id="_x23_060304ff">
	<path class="st147" d="M220.8,124.7c1.2-0.9,2.4-1.7,3.6-2.6c2.4,10.5,4.1,21.2,6.9,31.7c0.1,2.2-0.9,4.4-1.3,6.5
		c-1.9,1.1-4.5,1.7-6.3,0.2c-1.6-2-2.8-4.3-3.9-6.5C219.5,144.2,219,134.3,220.8,124.7z"/>
</g>
<g id="_x23_744d4cff">
	<path class="st148" d="M41.5,123.2c0.5,0.4,1.5,1.3,2,1.8c-1.5,0.3-3.1,0.6-4.6,0.9C39.7,125,40.6,124.1,41.5,123.2z"/>
</g>
<g id="_x23_40190fff">
	<path class="st149" d="M95.6,122.8c0.1,2.7-0.1,5.3-0.8,7.9c-0.5,1.5-1.1,2.9-1.6,4.3c-0.5,1-1,2-1.6,3c-1.4-1.1-3-2-4.1-3.5
		c-0.4-2.3,0-4.6,0.3-6.9l0.4-0.9l0.7,0.6c1.4,1.3,3,2.4,4.6,3.6C94.3,128.3,95,125.6,95.6,122.8z"/>
</g>
<g id="_x23_728497ff">
	<path class="st150" d="M134.2,123.9c3.5-0.9,7.1-0.3,10.1,1.6c-0.8,2.5-1.5,4.9-2.4,7.3c-0.3,0.3-0.8,0.8-1.1,1.1
		c-0.6,0.6-1.2,1.3-1.8,1.9c-1.4,1.5-2.9,3.1-4.3,4.7c-0.2-3.4-1-6.7-1.7-9.9c1.3,0.5,2.6,1,3.9,1.6c0.3-0.6,0.9-1.7,1.2-2.3
		c-0.2-0.6-0.8-1.9-1-2.6c-0.2-0.5-0.5-1.4-0.7-1.9c-1.3-0.3-2.5-0.5-3.8-0.8C133,124.5,133.8,124.1,134.2,123.9z"/>
</g>
<g id="_x23_f2dcccff">
	<path class="st151" d="M73.1,129.1c1.7-1.5,3.2-3.3,4.7-5c-0.1,0.4-0.3,1.2-0.3,1.6c-0.4,1.9-0.8,3.8-1,5.7c4.1-0.5,8.2-2.2,10-6.2
		c0.6,0.5,1.2,1,1.8,1.6l-0.4,0.9c-0.5,1.2-1.1,2.5-1.6,3.8c-3.9,3.8-9.5,3.7-14.5,3.3c-0.1-1.5-0.1-3.1,0-4.6
		C72.1,129.9,72.8,129.4,73.1,129.1z"/>
</g>
<g id="_x23_a74738ff">
	<path class="st152" d="M79.2,123.5l0.6,0.2c2.2,0.6,4.5,1,6.7,1.6c-1.8,4-5.9,5.6-10,6.2c0.3-1.9,0.6-3.8,1-5.7
		C77.9,125.2,78.8,124.1,79.2,123.5z"/>
</g>
<g id="_x23_8f5737ff">
	<path class="st153" d="M34.5,134.9c0.1-3.3,0.2-6.7,1.2-9.8c0,2.8,0,5.6,0,8.4c3.1-0.4,6.2-1.1,9.2-2.2c0,1.8,0,3.7-0.1,5.5
		c-0.3-0.2-1-0.7-1.4-1c-2-1.6-4.6-1.7-7-1.8c-0.8,4.3-1.3,8.9-3.6,12.8c-0.1-3.7-0.2-7.4-0.7-11c-0.3-1.3-0.9-2.6-1.5-3.8
		C32,133,33.3,133.9,34.5,134.9z"/>
</g>
<g id="_x23_98bdd5ff">
	<path class="st154" d="M131.1,125.3c0.4-0.2,1.1-0.5,1.5-0.6c1.2,0.3,2.5,0.5,3.8,0.8c0.2,0.5,0.6,1.4,0.7,1.9
		c-1.4,1.1-2.8,2.2-4.1,3.3c0.8,3.3,1.5,6.6,1.7,9.9c0,1.5-0.1,3-0.2,4.5c-1.8-0.7-3.5-1.4-5.2-2.2c-2.6-2.3-5.4-4.5-8.4-6.2
		c3.1-1.6,6-3.5,9.1-5.2c-0.3-1.3-0.6-2.5-0.9-3.8c0.1-0.5,0.4-1.5,0.6-2C130,125.7,130.7,125.4,131.1,125.3z"/>
</g>
<g id="_x23_94797cff">
	<path class="st155" d="M114.8,128.8c4.9-1.1,10-1.6,14.8-3c-0.1,0.5-0.4,1.5-0.6,2c-1.9,1.2-3.7,2.4-5.5,3.7
		c-2.4-1.2-4.9-1.8-7.6-2.1c-0.1,1.7-0.2,3.3-0.2,5l-0.2-0.7C115.4,132.1,115.1,130.5,114.8,128.8z"/>
</g>
<g id="_x23_a36658ff">
	<path class="st156" d="M196.9,131.5c1.2-2.2,2.6-4.2,4.2-6.1c0.2,0.6,0.7,1.7,0.9,2.2c-0.4,0.2-1.3,0.6-1.7,0.8
		c1.4,2.3,2.8,4.6,4.3,6.9c3.2-0.2,6.4,0,9.3,1.3c-2.1,2.6-4,5.4-5.3,8.5c-0.4-2-0.9-4-1.5-6c-2.8-0.6-5.5-1.3-8.1-2.2
		C198.4,135.1,197.6,133.3,196.9,131.5z"/>
</g>
<g id="_x23_73664dff">
	<path class="st157" d="M86.3,131.5c0.5-1.2,1.1-2.5,1.6-3.8c-0.3,2.3-0.7,4.6-0.3,6.9c1.1,1.4,2.6,2.4,4.1,3.5c0.5-1,1-2,1.6-3
		c-0.5,1.9-1,3.7-1.6,5.5c-0.9,1.2-1.8,2.3-2.7,3.5c0.4,1.6,0.7,3.3,1.1,4.9c-2.1-1.8-2.9-4.5-3.7-7c-1.4,0.4-2.8,0.8-4.2,1.2
		C83.8,139.4,85.1,135.5,86.3,131.5z"/>
</g>
<g id="_x23_3d4f6dff">
	<path class="st158" d="M123.6,131.6c1.7-1.4,3.6-2.5,5.5-3.7c0.3,1.2,0.6,2.5,0.9,3.8c-3.1,1.7-6,3.5-9.1,5.2
		c-0.4-0.2-1.1-0.6-1.4-0.8C120.8,134.6,122.2,133,123.6,131.6z"/>
</g>
<g id="_x23_bed3bbff">
	<path class="st159" d="M133,130.7c1.4-1.1,2.7-2.2,4.1-3.3c0.2,0.7,0.8,2,1,2.6c-0.3,0.6-0.9,1.7-1.2,2.3
		C135.6,131.7,134.3,131.2,133,130.7z"/>
</g>
<g id="_x23_322121ff">
	<path class="st160" d="M141.9,132.9c2.3-2,5-3.6,7.6-5.2c0.5,3.2,0.9,6.4,1.3,9.6c0.3,2.6,0.7,5.1,1.2,7.6c0.4,5.4,3.4,10,7.6,13.1
		c-0.2,1-0.4,2.1-0.6,3.1c-1.7,0.7-3.4,1.3-5.2,1.9l-0.7-0.3c-3.2-1.6-6.7-3.3-8.2-6.7c-2.2-4.8-3-10-3.6-15.2
		c-0.2-2.3-0.4-4.6-0.6-6.9C141.1,133.7,141.6,133.1,141.9,132.9z"/>
</g>
<g id="_x23_667f99ff">
	<path class="st161" d="M152.9,128.8c1.7,1.1,3.4,2.2,5.1,3.3c-1.2,3.2-2.9,6.3-5.1,9C151.9,137.1,151.2,132.8,152.9,128.8z"/>
</g>
<g id="_x23_cc6b50ff">
	<path class="st162" d="M70.5,131.2c0.3-0.3,1-0.8,1.3-1c-0.1,1.5-0.1,3.1,0,4.6l0.1,0.6c-3.7,0.7-7.4,4.3-5.6,8.3
		c0.4,2.7,3,3.6,5.1,4.5c0.1,1.3,0.2,2.6,0.3,4c-6-1.7-8.8-7.6-11.2-12.8C63.8,136.6,67.1,133.9,70.5,131.2z"/>
</g>
<g id="_x23_eac6b9ff">
	<path class="st163" d="M116.1,129.5c2.6,0.3,5.2,0.9,7.6,2.1c-1.4,1.4-2.8,3-4.2,4.4c-0.7,0.7-1.5,1.4-2.3,2.1
		c-0.2-0.5-0.7-1.6-0.9-2.2c-0.1-0.4-0.3-1.1-0.3-1.5C115.9,132.8,115.9,131.1,116.1,129.5z"/>
</g>
<g id="_x23_bc9f86ff">
	<path class="st164" d="M71.8,134.8c5,0.4,10.6,0.5,14.5-3.3c-1.2,4-2.6,7.9-4.3,11.8c-3.1-0.1-6.1-0.4-9.2-0.9
		c2.9-0.1,5.8-0.3,8.7-0.6c-2.2-2.6-5.8-2.4-9-2.7c-0.2-1.2-0.4-2.4-0.7-3.6L71.8,134.8z"/>
</g>
<g id="_x23_e5b89eff">
	<path class="st165" d="M189.8,132.6c2.4-0.5,4.7-0.9,7.1-1.1c0.7,1.8,1.4,3.6,2.1,5.4c-0.7,0.6-1.4,1.1-2.2,1.7
		c-3,2.3-5.4,5.3-7.5,8.4c-0.5-0.6-1.1-1.2-1.6-1.8C188.6,141.1,188.2,136.7,189.8,132.6z"/>
</g>
<g id="_x23_86a5c6ff">
	<path class="st166" d="M162,132.8c3.6-1.1,7.1,0.4,9.4,3.3c0.4,0.6,1.1,1.8,1.5,2.4c1.1,0.2,2.2,0.4,3.3,0.6l-0.2,0.8
		c-3.7,0.5-7.4,2.2-11.2,1.5c-2-1.9-2.7-4.6-3.7-7.1C161.2,133.9,161.7,133.1,162,132.8z"/>
</g>
<g id="_x23_de9659ff">
	<path class="st167" d="M36.5,134.1c2.4,0.1,5,0.2,7,1.8c-2.2,2.3-4.8,4.4-6.5,7.2c-1.6,3-2.2,6.4-3.4,9.6c-0.8,1.5-1.6,3-2.5,4.4
		c-0.3-1.9-0.9-3.8-0.8-5.8c0.7-1.6,1.7-2.9,2.6-4.4C35.3,143,35.8,138.4,36.5,134.1z"/>
</g>
<g id="_x23_364560ff">
	<path class="st168" d="M110.9,135.6c1.6-0.5,3.2-1.1,4.8-1.8l0.2,0.7c0.1,0.4,0.3,1.1,0.3,1.5c1.5,4.7,0.3,9.6-0.3,14.3
		c0,0.7-0.1,2-0.1,2.6c5.2,0.9,10.4,2.2,15.7,1.5c4-0.6,5.6-4.8,6.8-8.2c1.3-3.3,1.1-6.9,0.5-10.4c0.6-0.6,1.2-1.3,1.8-1.9
		c0.2,2.3,0.4,4.6,0.6,6.9c0.1,4-0.4,8.3-3.1,11.5c-1.8,2.6-4.9,3.4-7.7,4.2c4.7,4.5,3.4,11.4,5.8,16.9c0.3,1.8,1.3,4.1-0.2,5.7
		c-1.8,1-3.8,1.6-5.8,2.2c-0.4,0.1-1.1,0.2-1.4,0.2l-0.6,0.1c-0.6-0.3-1.7-1-2.3-1.3c1.3-1.1,2.8-2.2,3.9-3.6
		c0.6-3.6,0.2-7.2-0.2-10.8c-0.3-2-0.4-4.3-2.3-5.5c-3.7-2.7-8.2-3.9-12.4-5.4c-0.2,7.1-0.1,14.2,0.2,21.4c-2-2-3.9-4.1-5.7-6.1
		c1.2-2.3,3-4.5,3.2-7.1c-1.4-4.4-6.2-6-10-7.9c-0.4,0.2-1.3,0.5-1.8,0.7c3,2.8,4,6.6,3.9,10.6l-0.3,0.7c-0.8-4.4-2.4-8.7-6.5-11
		c0.5-0.9,0.9-1.8,1.4-2.6c3.3-0.3,6.6-0.3,9.8-1.4c3.3-1.6,2.4-5.8,2.4-8.8c1.3-1,2.6-2,4-3C114.5,138.4,112.8,136.8,110.9,135.6
		 M111.3,160.1c1.1-0.8,3.5-1.1,2.9-2.9c-0.6-1.6-1.9-3-3.4-3.9C107.6,154,110.7,158.1,111.3,160.1z"/>
</g>
<g id="_x23_6d7a92ff">
	<path class="st169" d="M157.1,142.9c0.4-3.2,2.3-6,3.9-8.7c1,2.5,1.7,5.3,3.7,7.1c3.8,0.7,7.5-1,11.2-1.5c1.9-0.2,3.8-0.3,5.6-0.5
		c0.3,0.8,0.6,1.7,1,2.5c-1.8,0.4-3.6,0.8-5.4,1.3c-7.3,2.4-15.6,7.9-15.4,16.5c-0.7-0.9-1.4-1.7-2-2.6c-0.1-2-0.2-4-0.4-6
		C159.4,148.2,157.9,145.6,157.1,142.9z"/>
</g>
<g id="_x23_8b452eff">
	<path class="st170" d="M66.2,143.6c-1.8-4,1.9-7.6,5.6-8.3c0.2,1.2,0.4,2.4,0.7,3.6c0.1,0.9,0.2,2.6,0.3,3.4c3,0.5,6.1,0.8,9.2,0.9
		c-1.2,0.3-2.4,0.7-3.6,1c1.4,2.6,2.6,5.4,3.5,8.2c-2.9,0.2-5.1-1.8-7.2-3.5c0.1,0.7,0.2,1.5,0.3,2.2c-1.4,1.6-2.8,3.3-4.2,4.9
		c-0.9,0.4-1.8,0.7-2.7,1c0.1-1.2,0.2-2.5,0.2-3.7c-0.4-0.3-1.1-0.8-1.5-1c-1-1.7-1.9-3.5-3.3-4.9c-2.3-2.2-5.3-3.3-7.7-5.3
		c-0.9-2.1-0.8-4.4-1.1-6.6c2,1.1,4,2.2,5.7,3.9c2.4,5.2,5.2,11.1,11.2,12.8c-0.1-1.3-0.2-2.7-0.3-4
		C69.2,147.3,66.6,146.3,66.2,143.6 M68.9,141.1c0,1.5,0.3,3.1,0.4,4.6c1.2,0.4,2.5,0.7,3.8,1.1c-0.3-2.7-0.7-5.3-1.2-8
		C70.9,139.6,69.2,139.8,68.9,141.1z"/>
</g>
<g id="_x23_dbc2cdff">
	<path class="st171" d="M171.4,136.1c1.8-0.4,3.6-0.7,5.4-1c-0.2,1.3-0.4,2.7-0.7,4c-1.1-0.2-2.2-0.4-3.3-0.6
		C172.5,137.9,171.7,136.7,171.4,136.1z"/>
</g>
<g id="_x23_b0391bff">
	<path class="st172" d="M43.5,135.9c0.4,0.2,1,0.7,1.4,1c-0.3,3.2-0.7,6.3-1.2,9.5c-0.6,1.7-1.2,3.4-1.8,5.1
		c-2.8-0.1-5.6,0.4-8.3,1.3c1.2-3.2,1.8-6.6,3.4-9.6C38.7,140.3,41.3,138.2,43.5,135.9 M39.2,150.1c1.1-0.7,2.4-1.2,3.2-2.2
		c-0.1-1.9-0.5-3.9-0.8-5.8C40,144.5,37.4,147,39.2,150.1z"/>
</g>
<g id="_x23_677f98ff">
	<path class="st173" d="M102.6,137.7c2.7-1.1,5.6-1.4,8.3-2.1c1.9,1.2,3.6,2.9,4.7,4.9c-1.3,1-2.7,2-4,3c0,3,1,7.2-2.4,8.8
		c-3.1,1.1-6.5,1.1-9.8,1.4c-0.5,0.9-0.9,1.8-1.4,2.6c-0.3-0.2-0.9-0.6-1.2-0.8c0.6-0.9,1.1-1.8,1.7-2.7c1.9-0.3,3.9-0.7,5.9-1
		c0.3-2,0.8-4.1,0.7-6.2c-1.2-2.9-4.8-1.8-7.2-2C99.1,141.3,100.3,138.9,102.6,137.7z"/>
</g>
<g id="_x23_728390ff">
	<path class="st174" d="M116.2,136c0.2,0.5,0.7,1.6,0.9,2.2c0.8-0.7,1.5-1.4,2.3-2.1c0.4,0.2,1.1,0.6,1.4,0.8
		c3.1,1.7,5.8,3.9,8.4,6.2c-2.6,0.2-5.2,0.4-7.8,0.6c-0.1,0.6-0.2,1.8-0.3,2.4c4.2,1.3,8.5,1.8,12.9,2.1c-0.2,1.2-0.4,2.4-0.6,3.6
		c-5.9,0.8-12,0.8-17.6-1.4C116.5,145.5,117.7,140.7,116.2,136z"/>
</g>
<g id="_x23_536684ff">
	<path class="st175" d="M134.7,140.6c1.4-1.6,2.8-3.2,4.3-4.7c0.5,3.4,0.8,7.1-0.5,10.4c-1.2,3.3-2.9,7.6-6.8,8.2
		c-5.3,0.7-10.6-0.7-15.7-1.5c0-0.7,0.1-2,0.1-2.6c5.6,2.2,11.7,2.2,17.6,1.4c0.2-1.2,0.4-2.4,0.6-3.6c0.1-1,0.3-2,0.4-2.9
		C134.6,143.6,134.7,142.1,134.7,140.6z"/>
</g>
<g id="_x23_575152ff">
	<path class="st176" d="M196.9,138.6c0.7-0.6,1.4-1.2,2.2-1.7c2.7,0.9,5.4,1.6,8.1,2.2c0.5,2,1.1,4,1.5,6c0,0.4,0.1,1.1,0.1,1.4
		c-4.1,3.7-4.1,9.7-2.9,14.7c1.2-2,2.3-4.1,3.6-6.1c0.4,0,1.2-0.1,1.6-0.1c1.6,2,3,4.2,4.3,6.4c-0.6,0.3-1.8,0.9-2.4,1.3
		c-3.2,1.2-4.7,4.4-6,7.4c2,0.1,4.1,0.2,6.1,0.1c-0.9,0.2-1.8,0.4-2.6,0.6c-1.6,0.3-3.2,0.5-4.8,0.8c1.6,1.6,3.2,3.2,4.9,4.7
		c-2.5,0.8-5,1.8-7.4,2.7c-0.3-1.8-0.8-3.5-1.2-5.2c-0.5,0-1.6,0.1-2.1,0.2c0.5-1.2,1-2.5,1.4-3.8c-1-0.3-1.9-0.6-2.9-0.8
		c-0.9-1.4-1.9-2.8-2.9-4.1c0.7-1.5,1.4-2.9,2-4.4c1.6-3,2.7-6.3,3-9.7c0.4,0.5,1.2,1.5,1.7,2c0.1-2.9-0.1-5.8-0.4-8.7
		c-1.6-0.2-3.2-0.3-4.8-0.5C197.1,142.1,197,140.3,196.9,138.6 M199.1,167.1c1.9,1.4,3.8,2.7,5.8,3.9c-0.4-1.6-0.8-3.2-1.2-4.9
		C202.1,166.5,200.6,166.8,199.1,167.1z"/>
</g>
<g id="_x23_340b05ff">
	<path class="st177" d="M68.9,141.1c0.4-1.3,2-1.6,3-2.4c0.5,2.6,0.9,5.3,1.2,8c-1.2-0.4-2.5-0.7-3.8-1.1
		C69.1,144.2,68.9,142.7,68.9,141.1z"/>
</g>
<g id="_x23_f3d6bfff">
	<path class="st178" d="M72.5,139c3.1,0.3,6.7,0.1,9,2.7c-2.9,0.3-5.8,0.5-8.7,0.6C72.8,141.5,72.6,139.8,72.5,139z"/>
</g>
<g id="_x23_834d3fff">
	<path class="st179" d="M189.4,147.1c2.1-3.1,4.5-6.1,7.5-8.4c0.1,1.7,0.2,3.4,0.1,5.2c-0.1,0.6-0.3,1.7-0.4,2.3
		c1.2,1.7,2.6,3.3,3.9,4.9c-0.3,3.4-1.4,6.7-3,9.7C195.6,155.7,193.3,150.8,189.4,147.1z"/>
</g>
<g id="_x23_d52225ff">
	<path class="st180" d="M49.4,140c2.6,2,5.8,4.8,4.9,8.5c-2.5,4.4-8.2,3.1-12.4,2.9c0.6-1.7,1.2-3.4,1.8-5.1
		C45.6,144.2,47.5,142.1,49.4,140z"/>
</g>
<g id="_x23_f2d9bfff">
	<path class="st181" d="M88.8,144.1c0.9-1.2,1.9-2.3,2.7-3.5c1,2.5,1.9,5.1,2.9,7.6l0.3,0.9c0.5,1.3,1.1,2.6,1.7,3.9
		c-0.4,0.1-1.3,0.4-1.8,0.5c-1.6-1.5-3.2-3-4.7-4.5C89.6,147.4,89.2,145.8,88.8,144.1z"/>
</g>
<g id="_x23_222c46ff">
	<path class="st182" d="M141.4,140.8c0.6,5.2,1.4,10.4,3.6,15.2c1.5,3.4,5,5.1,8.2,6.7c-5.3-1.5-8.2,4.1-11.4,7.3
		c-1.1,0.1-2.2,0.3-3.2,0.4c-0.7,1-1.4,2-2.2,3.1c-2.4-5.6-1.1-12.4-5.8-16.9c2.8-0.8,6-1.6,7.7-4.2
		C141,149.1,141.5,144.8,141.4,140.8z"/>
</g>
<g id="_x23_613717ff">
	<path class="st183" d="M82,143.2c1.4-0.4,2.8-0.8,4.2-1.2c0.8,2.6,1.6,5.2,3.7,7c1.6,1.5,3.1,3,4.7,4.5l-0.7,0.2
		c-1.9-0.1-3.8-0.3-5.7-0.4c-0.7,1.8-1.3,3.7-2,5.5l-0.4,0.8c-1.2-1.9-2.5-3.9-3.5-5.9c-0.1-0.3-0.3-0.8-0.4-1.1
		c-0.9-2.9-2.1-5.6-3.5-8.2C79.6,143.9,80.8,143.6,82,143.2z"/>
</g>
<g id="_x23_a1adb6ff">
	<path class="st184" d="M97.9,143.4c2.4,0.2,6.1-0.8,7.2,2c0.2,2.1-0.4,4.1-0.7,6.2c-2,0.3-3.9,0.7-5.9,1c-0.6,0.9-1.1,1.8-1.7,2.7
		c-1-0.6-2-1.1-3-1.7l0.7-0.2c0.4-0.1,1.3-0.4,1.8-0.5c-0.6-1.3-1.1-2.6-1.7-3.9c0.5,0.2,1.6,0.5,2.2,0.7
		C97.2,147.7,97.5,145.6,97.9,143.4z"/>
</g>
<g id="_x23_d2d67fff">
	<path class="st185" d="M121.5,143.6c2.6-0.2,5.2-0.4,7.8-0.6c1.7,0.7,3.5,1.5,5.2,2.2c-0.1,1-0.2,2-0.4,2.9
		c-4.4-0.2-8.7-0.7-12.9-2.1C121.3,145.4,121.4,144.2,121.5,143.6z"/>
</g>
<g id="_x23_e5b498ff">
	<path class="st186" d="M161.7,159.8c-0.2-8.6,8.1-14.1,15.4-16.5c0.6-0.1,1.8-0.2,2.3-0.3c2.5,5.9,5.9,11.3,8.2,17.2
		c-0.4-0.2-1.1-0.6-1.5-0.8c-0.8-0.6-1.5-1.1-2.2-1.8c-1-1.7-1.9-3.4-2.8-5.1c-2.4,2.1-4.7,4.4-7.1,6.4c-3,1.5-6.1,2.9-9.1,4.3
		C163.9,162.1,162.8,161,161.7,159.8z"/>
</g>
<g id="_x23_3f322dff">
	<path class="st187" d="M196.6,146.1c0.1-0.6,0.3-1.7,0.4-2.3c1.6,0.2,3.2,0.3,4.8,0.5c0.3,2.9,0.5,5.8,0.4,8.7
		c-0.4-0.5-1.2-1.5-1.7-2C199.2,149.4,197.9,147.8,196.6,146.1z"/>
</g>
<g id="_x23_ccbfbfff">
	<path class="st188" d="M208.8,146.5c1.8-1,3.8-2.4,5.9-1.9c1.2,0.7,1.9,2,2.8,3.1c-2.6,0.3-5.1,0.6-7.7,0.8c0.1,1,0.4,2.9,0.6,3.9
		c2.2-0.6,4.3-1.5,6.4-2.5c0.4,0,1.1,0,1.5,0l0,0.9c-0.1,1.3-0.2,2.6-0.4,3.9c-2.3,0.1-4.6,0.2-6.9,0.3c-0.4,0-1.2,0.1-1.6,0.1
		c-1.2,2-2.4,4.1-3.6,6.1C204.6,156.2,204.7,150.2,208.8,146.5z"/>
</g>
<g id="_x23_350d09ff">
	<path class="st189" d="M55.8,145c2.6,0.8,5.2,1.5,7.8,2.5c1.3,1.5,2.3,3.2,3.3,4.9c-0.4,0.3-1.1,0.9-1.5,1.3
		c-1-1.2-1.9-2.4-2.9-3.5c-2.6,3.4-5.5,6.6-8.8,9.4c-0.4,0.1-1.3,0.4-1.8,0.5L51,160c-1-1.3-2.3-2.8-1.6-4.5
		c1.3-2.4,3.8-3.7,5.8-5.4C55.4,148.4,55.6,146.7,55.8,145z"/>
</g>
<g id="_x23_2c3955ff">
	<path class="st190" d="M152,144.9c0.9,2,1.9,3.9,3,5.8c1.3-0.8,2.6-1.6,3.9-2.5c0.1,0.7,0.4,2.2,0.5,2.9c0.2,2,0.3,4,0.4,6
		l-0.1,0.8C155.4,154.8,152.4,150.2,152,144.9z"/>
</g>
<g id="_x23_d77334ff">
	<path class="st191" d="M17.2,154.2c1.5-3.3,4-6.2,7.9-6.4c1.1,2.1,2.1,4.1,3.2,6.2c-3.4,2.5-7.4,4.3-9.7,8l0.1,0.9
		c-1-2.8-1.7-5.7-2.6-8.6C16.4,154.3,16.9,154.2,17.2,154.2z"/>
</g>
<g id="_x23_af9272ff">
	<path class="st192" d="M74.7,149c2.1,1.7,4.3,3.7,7.2,3.5c0.1,0.3,0.3,0.8,0.4,1.1c-3.9,3-6.4,7.3-8.8,11.4c-0.3-1.9-1.9-3-3.4-4.1
		c1.1,0,2.2-0.3,3.1-0.8c0.5-1.6,0.2-3.4,0.2-5.1c-0.7,0.3-2,0.8-2.7,1.1c1.4-1.6,2.8-3.3,4.2-4.9C74.9,150.5,74.8,149.7,74.7,149z"
		/>
</g>
<g id="_x23_73303fff">
	<path class="st193" d="M209.8,148.5c2.3,0.4,4.7,0.9,7,1.4c-2.1,1-4.2,1.8-6.4,2.5C210.2,151.4,209.9,149.5,209.8,148.5z"/>
</g>
<g id="_x23_100a09ff">
	<path class="st194" d="M62.5,150.1c1,1.2,1.9,2.4,2.9,3.5c-0.2,0.4-0.6,1.2-0.8,1.5c-3,7.2-5.5,14.8-5.2,22.7l0,0.6
		c-1.4,0.1-2.9,0.3-4.3,0.4c-0.2-0.6-0.7-1.6-0.9-2.2c-1.1-3.7-1.3-7.6-1.7-11.4c1.7-1.5,3.4-3,5-4.5c-1.3-0.4-2.5-0.9-3.8-1.3
		C56.9,156.7,59.8,153.5,62.5,150.1z"/>
</g>
<g id="_x23_b4806bff">
	<path class="st195" d="M218.3,150.8c0.5,1.1,1,2.1,1.5,3.2c1.2,2.2,2.3,4.6,3.9,6.5c1.8,1.5,4.4,0.8,6.3-0.2
		c-0.8,2.5-1.7,5-2.6,7.5c-1.9-1.6-3.8-3.1-5.6-4.6c-1-0.9-1.9-1.8-2.9-2.7c-0.6,2.9-1.1,5.8-1.6,8.7c-0.4-1.7-0.8-3.5-1.2-5.2
		c-1.1-0.4-2.1-0.9-3.2-1.3c0.6-0.3,1.8-1,2.4-1.3c-1.3-2.2-2.7-4.4-4.3-6.4c2.3-0.1,4.6-0.2,6.9-0.3
		C218.1,153.4,218.2,152.1,218.3,150.8z"/>
</g>
<g id="_x23_ba5f4eff">
	<path class="st196" d="M66.8,152.4c0.4,0.2,1.1,0.8,1.5,1c-0.1,1.2-0.2,2.5-0.2,3.7c-1.2,0-2.3-0.1-3.5-0.1
		c1.6,1.2,3.2,2.4,4.8,3.5c-0.6,2.7-1.4,5.4-2.5,8c-1.4-1.4-2.7-2.8-3.7-4.4c0.2-3,0.6-5.9,1.3-8.9c0.2-0.4,0.6-1.1,0.8-1.5
		C65.7,153.3,66.5,152.7,66.8,152.4z"/>
</g>
<g id="_x23_160c06ff">
	<path class="st197" d="M88.2,153.3c1.9,0.2,3.8,0.3,5.7,0.4c1,0.5,2,1.1,3,1.7c0.3,0.2,0.9,0.6,1.2,0.8c4.1,2.2,5.8,6.6,6.5,11
		c-0.3,0.5-0.8,1.5-1.1,2l-1.2-0.1c-5.6-0.6-10.3-4-14-8c-0.8-0.8-1.5-1.6-2.2-2.3C86.9,157,87.5,155.1,88.2,153.3z"/>
</g>
<g id="_x23_293643ff">
	<path class="st198" d="M111.3,160.1c-0.6-2-3.7-6.1-0.4-6.9c1.5,1,2.7,2.3,3.4,3.9C114.7,159,112.4,159.3,111.3,160.1z"/>
</g>
<g id="_x23_b7806fff">
	<path class="st199" d="M174.1,159c2.4-2.1,4.8-4.3,7.1-6.4c0.9,1.7,1.8,3.4,2.8,5.1C180.7,157.8,177.3,158.2,174.1,159z"/>
</g>
<g id="_x23_efa35bff">
	<path class="st200" d="M73.4,165c2.5-4.2,4.9-8.4,8.8-11.4c0.4,4-0.6,8-2,11.7c-1.5,0.9-3,1.8-4.5,2.7C75,167,74.2,166,73.4,165z"
		/>
</g>
<g id="_x23_c47f41ff">
	<path class="st201" d="M82.3,153.6c1,2.1,2.2,4,3.5,5.9c-1.3,2.4-3.2,4.3-5.5,5.8C81.7,161.6,82.7,157.6,82.3,153.6z"/>
</g>
<g id="_x23_291a18ff">
	<path class="st202" d="M59.4,177.9c-0.3-7.9,2.2-15.5,5.2-22.7c-0.7,2.9-1.1,5.9-1.3,8.9c0,1.2,0,2.4,0.1,3.5
		c2.4,1.1,5.1,1.4,7.7,2c-0.2,1.9-0.3,3.9-0.8,5.7c-1.2,0.8-2.4,1.4-3.7,1.9c-1.4-2.2-3.4-3.8-6.1-3.4
		C60.1,175.1,59.8,176.5,59.4,177.9z"/>
</g>
<g id="_x23_e8d1c3ff">
	<path class="st203" d="M70.8,156.1c0.7-0.3,2-0.8,2.7-1.1c0,1.7,0.3,3.5-0.2,5.1c-1,0.5-2,0.8-3.1,0.8l-0.7-0.5
		c-1.6-1.2-3.2-2.4-4.8-3.5c1.2,0.1,2.3,0.1,3.5,0.1C69,156.8,69.9,156.5,70.8,156.1z"/>
</g>
<g id="_x23_6f8093ff">
	<path class="st204" d="M101.1,155.9c0.5-0.2,1.3-0.5,1.8-0.7c3.7,1.9,8.6,3.5,10,7.9c-0.3,2.6-2,4.8-3.2,7.1
		c1.8,2.1,3.8,4.1,5.7,6.1c-0.3-7.1-0.4-14.2-0.2-21.4c4.2,1.5,8.7,2.7,12.4,5.4c1.9,1.2,2,3.5,2.3,5.5c0.4,3.6,0.8,7.3,0.2,10.8
		c-1.1,1.4-2.6,2.4-3.9,3.6c0.6,0.3,1.7,1,2.3,1.3c-1.8,0.3-3.7,0.6-5.5,0.8c0.2-1.5,0.4-3,0.7-4.5c-5-0.5-11.1-3.4-15.2,0.8
		c-0.2-0.4-0.5-1.4-0.6-1.8c-1.4-3.4-2.4-6.9-2.7-10.6C105.1,162.5,104,158.6,101.1,155.9z"/>
</g>
<g id="_x23_9a7a56ff">
	<path class="st205" d="M33.7,161.1c1.7-1.3,3.5-2.6,5.3-3.9c3.8,1.5,7.9,2.7,12,2.8l0.9,0.1c0.2,0.6,0.7,1.9,1,2.5
		c-4.2,0.4-8.5,0.3-12.8,0.3c-1.7,2.4-3.6,4.7-5.5,6.9C34.1,166.9,33.8,164,33.7,161.1z"/>
</g>
<g id="_x23_6c4421ff">
	<path class="st206" d="M159.7,157.2c0.6,0.9,1.3,1.8,2,2.6c1,1.2,2.1,2.4,3.2,3.5c3-1.4,6.1-2.8,9.1-4.3c3.3-0.8,6.6-1.2,10-1.3
		c0.7,0.6,1.4,1.2,2.2,1.8c-3.3,1.9-6.6,4.3-10.6,4.4c-4.4,0.3-8.9,0.6-13.2,1.8c-1.1-1.5-2.2-3-3.4-4.6c0.2-1,0.4-2.1,0.6-3.1
		L159.7,157.2z"/>
</g>
<g id="_x23_9e6434ff">
	<path class="st207" d="M85.8,159.6l0.4-0.8c0.1,1.8,0.4,3.5,0.1,5.3c-2.4,2.4-5.2,4.5-8.3,5.8c-3,0.4-4.6-2.1-4.5-4.8
		c0.8,1,1.5,2,2.3,3c1.5-0.9,3-1.8,4.5-2.7C82.5,163.9,84.5,161.9,85.8,159.6z"/>
</g>
<g id="_x23_684026ff">
	<path class="st208" d="M86.2,158.8c0.7,0.8,1.5,1.6,2.2,2.3c-0.3,2-0.2,4.2-1.3,6c-1.8,2.4-4.6,3.7-7.2,5.1
		c0.2,0.5,0.4,1.1,0.7,1.6c2.8,5.4,8.8,10.9,15.3,8.9c0.6,2.4,1.1,4.7,1.7,7.1c-4.4,0.7-9,1.5-13.3,0c-3.5-1.1-7.1-2.1-10.2-4
		c0.2-0.5,0.5-1.4,0.6-1.8c1.1-3.7,2.6-7.2,4.5-10.5c-1.4-0.4-3-1.8-4.5-0.9c-1.4,1.2-2.5,2.7-3.6,4.2c-0.8,1.2-1.6,2.4-2.4,3.6
		c-0.6-1.1-1.3-2.1-2-3.1c1.2-0.6,2.5-1.2,3.7-1.9c0.5-1.9,0.6-3.8,0.8-5.7c-2.6-0.5-5.3-0.9-7.7-2c-0.2-1.2-0.2-2.3-0.1-3.5
		c1,1.6,2.4,3.1,3.7,4.4c1-2.6,1.8-5.3,2.5-8l0.7,0.5c1.4,1.1,3,2.2,3.4,4.1c-0.1,2.7,1.5,5.2,4.5,4.8c3.1-1.3,6-3.4,8.3-5.8
		C86.6,162.3,86.3,160.5,86.2,158.8z"/>
</g>
<g id="_x23_232421ff">
	<path class="st209" d="M51.9,160.1c0.4-0.1,1.3-0.4,1.8-0.5c1.3,0.4,2.6,0.8,3.8,1.3c-1.7,1.5-3.3,3-5,4.5
		c0.4,3.8,0.6,7.7,1.7,11.4c-3.4-0.8-6.9-1.6-10.5-1.2c-0.3,0.2-1,0.6-1.3,0.8c0,1.8,0.1,3.5,0.1,5.3c-3-0.3-6-0.7-9-1
		c-0.3-1.5-0.5-2.9-0.8-4.4c-3.2-0.4-6.3-0.8-9.5-1.3l0.6-0.1c3.2-0.6,6.5-1.1,9.8-1.6c-0.3-1-0.6-2-0.8-3c2.2-0.1,4.4-0.2,6.7-0.3
		c0.2-2.3,0.4-4.7,0.6-7c4.3,0.1,8.5,0.1,12.8-0.3C52.6,161.9,52.2,160.7,51.9,160.1z"/>
</g>
<g id="_x23_4f301aff">
	<path class="st210" d="M175.6,163.9c3.9-0.2,7.3-2.5,10.6-4.4c3.6,4.8,6.9,9.8,10.1,14.8c-0.5,1.7-0.8,3.5-1.1,5.3
		c-1.7-1.3-3.4-2.5-5.3-3.6c-2.3-1.1-4.8-2-7.2-2.9c-0.2,1.4-0.4,2.9-0.7,4.3c1.2,0.6,2.5,1.2,3.7,1.8c1.2,0.6,2.3,1.2,3.5,1.9
		c-2.1,2.1-4.6,3.8-7.3,5.2c-3.9-5.1-3.2-12.2-7.4-17c-2.6-0.2-4.8,1.4-6.9,2.5c1.6,3.2,5.1,6.6,3.4,10.4c-1.8,3.9-5,8.8-9.9,8
		c-2.6-0.8-5.2-1.8-7.9-2.3c-0.2-1.9-0.3-3.8-0.4-5.7c0.6,0.2,1.8,0.5,2.3,0.7c0.3-0.9,0.6-1.7,0.9-2.5c-0.7-0.9-1.5-1.7-2.2-2.6
		c3.8,0.6,7-1.7,9.9-3.8c-0.1-0.6-0.4-1.7-0.5-2.3c-3.8-1-7.6-2.2-11.2-3.7c2.8,0.6,5.6,1.2,8.4,1.8c0.6-1.4,1.2-2.7,1.8-4.1
		C166.7,164.5,171.2,164.1,175.6,163.9z"/>
</g>
<g id="_x23_62432fff">
	<path class="st211" d="M186.2,159.4c0.4,0.2,1.1,0.6,1.5,0.8c2.8,1.4,5.5,2.9,7.8,4.9c1,1.3,1.9,2.7,2.9,4.1c-0.7,1.7-1.4,3.3-2,5
		C193.1,169.2,189.8,164.2,186.2,159.4z"/>
</g>
<g id="_x23_614935ff">
	<path class="st212" d="M32.9,170.2c-0.1-3-0.1-6.2,0.8-9.1c0.1,2.9,0.4,5.8,0.9,8.6c2-2.2,3.8-4.5,5.5-6.9c-0.2,2.3-0.4,4.7-0.6,7
		C37.3,170,35.1,170.1,32.9,170.2z"/>
</g>
<g id="_x23_382214ff">
	<path class="st213" d="M88.4,161.1c3.7,4,8.4,7.4,14,8c-3.6,1.8-5.4,5.5-7.4,8.7c-3.7-3.9-9.2-5.3-14.3-4c-0.2-0.5-0.5-1.1-0.7-1.6
		c2.6-1.4,5.3-2.8,7.2-5.1C88.2,165.3,88.1,163.1,88.4,161.1z"/>
</g>
<g id="_x23_b58d5fff">
	<path class="st214" d="M159.1,161.1c1.1,1.5,2.2,3,3.4,4.6c-0.6,1.4-1.2,2.7-1.8,4.1c-2.8-0.6-5.6-1.2-8.4-1.8
		c0.5-1.6,1.1-3.3,1.7-4.9C155.6,162.4,157.3,161.8,159.1,161.1z"/>
</g>
<g id="_x23_90533eff">
	<path class="st215" d="M217.3,169.1c0.5-2.9,1.1-5.8,1.6-8.7c1,0.9,1.9,1.8,2.9,2.7c-0.9-0.4-1.7-0.7-2.6-1.1
		c-0.6,4.4-1.1,8.9-1.3,13.4c1.8,0.3,3.6,0.7,5.4,1.1c-0.3,0.4-1,1.1-1.4,1.5c-1.7,0.2-3.4,0.2-5.1,0.4c0.4,2.3,0.8,4.5,1.2,6.8
		c-0.1,1.7-1.6,3-2.4,4.4c-0.9-1.3-1.7-2.5-2.5-3.8c-0.4-3.3-1.2-6.6-2.6-9.7c0-1.8-0.1-3.6-0.2-5.4c0.9-0.2,1.8-0.4,2.6-0.6
		C214.5,169.8,215.9,169.5,217.3,169.1z"/>
</g>
<g id="_x23_060303ff">
	<path class="st216" d="M18.5,162c4.3,1.1,8.6,2,13,2.6c0.5,1.9,0.9,3.7,1.4,5.6c0.3,1,0.5,2,0.8,3c-3.3,0.4-6.5,0.9-9.8,1.6
		c-2.3-3.7-3.8-7.8-5.2-11.8L18.5,162z"/>
</g>
<g id="_x23_3d4460ff">
	<path class="st217" d="M141.8,170c3.2-3.1,6-8.7,11.4-7.3l0.7,0.3c-0.6,1.6-1.1,3.2-1.7,4.9c-0.9,0.9-1.8,1.8-2.7,2.7l-0.3-0.5
		c-0.9-1.4-1.7-1.4-2.6,0c0,1.4,0.8,2,2.2,1.8c-1.3,2.1-3.8,2.5-6.1,3C142.4,173.2,142.1,171.6,141.8,170z"/>
</g>
<g id="_x23_0d0806ff">
	<path class="st218" d="M219.3,162.1c0.9,0.3,1.7,0.7,2.6,1.1c1.9,1.6,3.8,3.1,5.6,4.6c-1.4,2.9-2.9,5.8-4.1,8.8
		c-1.8-0.4-3.6-0.7-5.4-1.1C218.2,171,218.7,166.5,219.3,162.1z"/>
</g>
<g id="_x23_c8c4bdff">
	<path class="st219" d="M206.9,170.1c1.3-3,2.7-6.2,6-7.4c1.1,0.4,2.1,0.8,3.2,1.3c0.4,1.7,0.8,3.5,1.2,5.2c-1.4,0.4-2.9,0.7-4.3,1
		C211,170.2,208.9,170.1,206.9,170.1z"/>
</g>
<g id="_x23_312a35ff">
	<path class="st220" d="M199.1,167.1c1.5-0.3,3.1-0.7,4.6-1c0.4,1.6,0.8,3.2,1.2,4.9C202.9,169.8,200.9,168.5,199.1,167.1z"/>
	<path class="st220" d="M138.6,170.4c1.1-0.1,2.1-0.3,3.2-0.4c0.3,1.6,0.6,3.2,1,4.9c2.2-0.5,4.8-0.9,6.1-3c0.1-0.4,0.3-1.3,0.4-1.8
		l0.3,0.5c1,2.6,2.4,5.1,4.5,7.1c-0.4,1.5-0.8,2.9-1.1,4.4c0,1.9,0.2,3.8,0.4,5.7c-1.5,0.4-2.9,0.9-4.4,1.4
		c-1.5-0.6-3.1-1.1-4.6-1.5c-0.9-1.7-1.7-3.4-3.1-4.8c-3-0.8-6.1-0.9-9.2-1.4c-0.4,0-1.2-0.1-1.5-0.2c1.9-0.6,3.9-1.2,5.8-2.2
		c1.4-1.6,0.4-3.8,0.2-5.7C137.1,172.4,137.9,171.4,138.6,170.4z"/>
</g>
<g id="_x23_1c1920ff">
	<path class="st221" d="M104.7,167.2l0.3-0.7c0,3-0.1,6.1-0.3,9.1c-1.9,0.1-3.8,0.2-5.7,0.2c1.6-2.1,3.2-4.2,4.5-6.6
		C103.8,168.7,104.4,167.7,104.7,167.2z"/>
</g>
<g id="_x23_625754ff">
	<path class="st222" d="M105,166.4c0.3,3.7,1.3,7.2,2.7,10.6c-3.2,0.1-6.5,0.3-9.4,2c-0.3,0.2-1,0.5-1.3,0.7c-0.7-0.6-1.4-1.2-2-1.8
		c2-3.2,3.9-6.9,7.4-8.7l1.2,0.1c-1.3,2.3-2.9,4.5-4.5,6.6c1.9-0.1,3.8-0.2,5.7-0.2C104.9,172.5,105,169.5,105,166.4z"/>
</g>
<g id="_x23_110b09ff">
	<path class="st223" d="M149.5,170.6c0.9-0.9,1.8-1.8,2.7-2.7c3.6,1.6,7.4,2.8,11.2,3.7c0.1,0.6,0.4,1.7,0.5,2.3
		c-2.9,2.1-6.1,4.3-9.9,3.8C151.9,175.7,150.5,173.2,149.5,170.6z"/>
</g>
<g id="_x23_6e7990ff">
	<path class="st224" d="M146.6,170c0.9-1.3,1.8-1.3,2.6,0c-0.1,0.4-0.3,1.3-0.4,1.8C147.4,172.1,146.6,171.5,146.6,170z"/>
</g>
<g id="_x23_694127ff">
	<path class="st225" d="M167.7,171.7c2.2-1.1,4.4-2.7,6.9-2.5c4.2,4.8,3.5,11.9,7.4,17c2.7-1.4,5.1-3.1,7.3-5.2
		c2.2,1.3,4.6,2.6,6.5,4.3c0.1,2.3-0.2,4.6-0.4,6.9c-4.9,0.8-9.9,1.8-14.7,3.1c-3.1-1.6-6.1-3.5-9.5-4.3c-3.3-0.6-6.7-0.4-9.9-1
		c5,0.8,8.2-4.1,9.9-8C172.8,178.2,169.4,174.9,167.7,171.7z"/>
</g>
<g id="_x23_e0b6a3ff">
	<path class="st226" d="M198.4,169.2c1,0.2,1.9,0.5,2.9,0.8c-0.4,1.3-0.9,2.5-1.4,3.8c-3.1,5.6-1.3,12-1.7,18
		c-0.2,0.5-0.6,1.4-0.8,1.9c-0.5-0.1-1.5-0.3-2.1-0.4c0-0.3,0-0.8,0-1.1c0.2-2.3,0.5-4.6,0.4-6.9c-1.9-1.8-4.2-3-6.5-4.3
		c-1.2-0.6-2.3-1.3-3.5-1.9c0.2-0.6,0.6-1.9,0.9-2.6c1.1-0.2,2.2-0.4,3.3-0.6c1.8,1.1,3.6,2.3,5.3,3.6c0.2-1.8,0.5-3.6,1.1-5.3
		C197,172.5,197.7,170.9,198.4,169.2z"/>
</g>
<g id="_x23_301f1eff">
	<path class="st227" d="M205.6,171.5c1.6-0.2,3.2-0.5,4.8-0.8c0.1,1.8,0.1,3.6,0.2,5.4C208.8,174.6,207.2,173.1,205.6,171.5z"/>
</g>
<g id="_x23_c27d47ff">
	<path class="st228" d="M74.6,172.5c1.5-0.9,3.1,0.5,4.5,0.9c-1.9,3.3-3.4,6.9-4.5,10.5c-0.9-2.6-2.2-4.9-3.6-7.2
		C72.1,175.2,73.2,173.7,74.6,172.5z"/>
</g>
<g id="_x23_1d110aff">
	<path class="st229" d="M80.6,173.8c5.2-1.3,10.7,0.1,14.3,4c0.7,0.6,1.4,1.2,2,1.8c-0.3,0.8-0.8,2.3-1.1,3.1
		C89.4,184.8,83.4,179.2,80.6,173.8z"/>
</g>
<g id="_x23_a88173ff">
	<path class="st230" d="M182.8,173.1c2.4,0.9,4.9,1.7,7.2,2.9c-1.1,0.2-2.2,0.4-3.3,0.6c-0.2,0.6-0.6,1.9-0.9,2.6
		c-1.2-0.6-2.5-1.2-3.7-1.8C182.3,175.9,182.5,174.5,182.8,173.1z"/>
</g>
<g id="_x23_5e342dff">
	<path class="st231" d="M199.9,173.8c0.5,0,1.6-0.1,2.1-0.2c0.4,1.7,0.8,3.5,1.2,5.2c-0.1,2-0.3,3.9-0.5,5.9c-0.3,2.5-0.7,5-0.8,7.6
		c0,0.4,0,1.2,0,1.6c-1.2-0.7-2.4-1.4-3.6-2.1C198.6,185.8,196.8,179.4,199.9,173.8z"/>
</g>
<g id="_x23_433c35ff">
	<path class="st232" d="M60.5,173.7c2.7-0.4,4.7,1.3,6.1,3.4c0.7,1,1.4,2.1,2,3.1c0.4,0.9,0.8,1.9,1.2,2.8c-1.8,0.1-3.6,0.2-5.4,0.4
		c-1.5-1.1-3.2-1.9-5.1-1.8c0-0.8,0-2.5,0-3.4l0-0.6C59.8,176.5,60.1,175.1,60.5,173.7 M60.3,180.5c1.6,0.1,3-0.4,4.1-1.6
		c-0.1-1.3-0.6-2.6-1.3-3.8C61.3,176.4,60.4,178.2,60.3,180.5z"/>
</g>
<g id="_x23_453d3aff">
	<path class="st233" d="M23.3,174.8c3.1,0.5,6.3,0.9,9.5,1.3c0.3,1.5,0.5,2.9,0.8,4.4c3,0.3,6,0.7,9,1c4.3,0.6,8.7,0.1,13-0.6
		c-0.1-0.5-0.3-1.6-0.4-2.1c1.4-0.1,2.8-0.2,4.3-0.4c0,0.8,0,2.5,0,3.4c-3.9,1.9-8,3.2-12.3,3.1c-6-0.1-12.2,2.5-18-0.1l-0.8-0.3
		c1.4-0.9,2.8-1.8,4.2-2.8c-0.1-0.7-0.4-2.1-0.5-2.8c-2-0.1-4-0.2-5.9-0.3l-0.7,0C24.7,177.3,24,176.1,23.3,174.8z"/>
</g>
<g id="_x23_635847ff">
	<path class="st234" d="M43.7,175.5c3.6-0.4,7.1,0.3,10.5,1.2c0.2,0.6,0.7,1.6,0.9,2.2c-3.1-0.3-6.3-0.5-9.4-0.5
		C45,177.4,44.3,176.4,43.7,175.5z"/>
</g>
<g id="_x23_928462ff">
	<path class="st235" d="M42.4,176.3c0.3-0.2,1-0.6,1.3-0.8c0.7,0.9,1.3,1.9,2,2.8c3.1,0.1,6.3,0.2,9.4,0.5c0.1,0.5,0.3,1.6,0.4,2.1
		c-4.3,0.7-8.6,1.2-13,0.6C42.4,179.8,42.3,178.1,42.4,176.3z"/>
</g>
<g id="_x23_afa7a8ff">
	<path class="st236" d="M60.3,180.5c0-2.2,1-4.1,2.9-5.4c0.7,1.2,1.1,2.5,1.3,3.8C63.4,180.1,62,180.6,60.3,180.5z"/>
</g>
<g id="_x23_d2cdc1ff">
	<path class="st237" d="M108.3,178.8c4.1-4.2,10.2-1.3,15.2-0.8c-0.2,1.5-0.5,3-0.7,4.5c-0.2,1.8-0.4,3.6-0.6,5.4c-4,0.8-8,1-12,0.9
		C109.7,185.4,109.3,182.1,108.3,178.8 M115.1,179.2c-1.5,1.3-2.7,3.9-0.9,5.6c1.4,2.1,4.2,1.9,6.4,2.3c0.1-3.2,0.2-6.3,0.2-9.5
		C119,177.9,116.5,177.5,115.1,179.2z"/>
</g>
<g id="_x23_cc9868ff">
	<path class="st238" d="M203.1,178.8c2.5-1,4.9-1.9,7.4-2.7c1.4,3.1,2.2,6.4,2.6,9.7c-0.1,0.8-0.2,2.3-0.3,3c-3.2,0-6.4,0-9.6,0
		c-0.2-1.4-0.4-2.7-0.6-4.1C202.8,182.8,203,180.8,203.1,178.8z"/>
</g>
<g id="_x23_e09f5bff">
	<path class="st239" d="M68.6,180.3c0.8-1.2,1.6-2.4,2.4-3.6c1.4,2.3,2.7,4.7,3.6,7.2c-0.1,0.5-0.4,1.4-0.6,1.8c-1-0.6-2-1.2-3-1.9
		c-0.3-0.2-0.9-0.6-1.2-0.7C69.4,182.2,69,181.3,68.6,180.3z"/>
</g>
<g id="_x23_8d6b43ff">
	<path class="st240" d="M98.3,178.9c2.8-1.6,6.2-1.8,9.4-2c0.2,0.4,0.5,1.4,0.6,1.8c1,3.3,1.4,6.7,2,10c4,0.1,8.1-0.1,12-0.9
		c0.2-1.8,0.4-3.6,0.6-5.4c1.9-0.2,3.7-0.5,5.5-0.8l0.6-0.1c-0.4,2.4-0.1,4.7,1.2,6.8c-1.2,0.8-2.4,1.6-3.6,2.4
		c-2.1,0.3-4.2,0.5-6.3,0.7c-4.4-3-9.8-0.8-14.5,0.3c-1.8,0.5-3.6,1-5.4,1.6c-3.4-1.3-7-0.2-10.2,1.2c-1.6-0.1-3.3-0.2-4.9-0.2
		c-0.4-1.5-0.7-3-1.1-4.5c4.3,1.5,8.9,0.7,13.3,0c2.8,0.5,5.6,0.4,8.4,0.2c-0.1-0.6-0.3-1.9-0.4-2.6c0.6,0,1.8,0,2.4,0.1
		c0-2.6,0.1-5.1,0.1-7.7c-1.4-0.3-2.8-0.7-4.3-0.9C102,178.8,100.2,178.8,98.3,178.9z"/>
</g>
<g id="_x23_eaece8ff">
	<path class="st241" d="M115.1,179.2c1.4-1.7,3.8-1.2,5.8-1.6c-0.1,3.2-0.1,6.3-0.2,9.5c-2.2-0.3-5-0.1-6.4-2.3
		C112.4,183.1,113.6,180.5,115.1,179.2z"/>
</g>
<g id="_x23_7d6d60ff">
	<path class="st242" d="M152.9,182.1c0.3-1.5,0.7-3,1.1-4.4c0.7,0.9,1.5,1.7,2.2,2.6c-0.3,0.8-0.6,1.7-0.9,2.5
		C154.7,182.6,153.5,182.3,152.9,182.1z"/>
</g>
<g id="_x23_c69569ff">
	<path class="st243" d="M216.9,178.4c1.7-0.1,3.4-0.2,5.1-0.4c-0.8,2.6-2.1,5.1-3.9,7.2C217.7,183,217.3,180.7,216.9,178.4z"/>
</g>
<g id="_x23_948062ff">
	<path class="st244" d="M26,178.6c2,0.1,4,0.2,5.9,0.3c0.1,0.7,0.4,2.1,0.5,2.8c-1.4,0.9-2.8,1.8-4.2,2.8
		C27.5,182.6,26.8,180.6,26,178.6z"/>
</g>
<g id="_x23_c29663ff">
	<path class="st245" d="M98.3,178.9c1.8-0.1,3.7-0.1,5.5,0c0.6,2.8,1.3,5.7,1.8,8.5c0.1,0.6,0.3,1.9,0.4,2.6
		c-2.8,0.2-5.7,0.3-8.4-0.2c-0.5-2.4-1.1-4.7-1.7-7.1c0.3-0.8,0.8-2.3,1.1-3.1C97.3,179.5,98,179.1,98.3,178.9z"/>
</g>
<g id="_x23_6e4622ff">
	<path class="st246" d="M103.8,178.9c1.4,0.3,2.9,0.6,4.3,0.9c0,2.6-0.1,5.1-0.1,7.7c-0.6,0-1.8,0-2.4-0.1
		C105.1,184.6,104.4,181.8,103.8,178.9z"/>
</g>
<g id="_x23_6c5836ff">
	<path class="st247" d="M129.1,181.5c0.4-0.1,1.1-0.2,1.4-0.2c0.4,0,1.1,0.1,1.5,0.2c-0.2,1.7-0.4,3.3-0.7,5c4.3,0.8,8.6,1.1,13,1.2
		c1.6,0.4,3.1,0.9,4.6,1.5c0.2,0.4,0.6,1.1,0.8,1.5c-1.6,2-3.3,3.9-5,5.8c-2.3-2.1-4.6-4.3-6.9-6.5c-0.8,2.1-1.6,4.1-2.3,6.2
		c-0.8-0.3-1.6-0.7-2.4-1.1l-0.7-0.4c-2-1.3-4-2.6-6-4c1.2-0.8,2.4-1.6,3.6-2.4C129,186.3,128.6,183.9,129.1,181.5z"/>
</g>
<g id="_x23_a28365ff">
	<path class="st248" d="M59.3,181.8c1.9-0.1,3.6,0.7,5.1,1.8c-2.3,0.7-4.5,1.5-6.8,2.3c-4.8,2.1-10.2,1.6-15.3,1.4
		c-2.2-0.1-4.5,0-6.7-0.1c-0.1,2-0.3,4.1-0.4,6.1c-2.7-2.4-4.4-5.5-6.2-8.6c5.8,2.6,12-0.1,18,0.1C51.3,185,55.5,183.7,59.3,181.8z"
		/>
</g>
<g id="_x23_572923ff">
	<path class="st249" d="M132,181.4c3.1,0.4,6.2,0.6,9.2,1.4c1.3,1.4,2.2,3.2,3.1,4.8c-4.3-0.1-8.7-0.4-13-1.2
		C131.6,184.8,131.8,183.1,132,181.4z"/>
</g>
<g id="_x23_231b18ff">
	<path class="st250" d="M64.5,183.6c1.8-0.2,3.6-0.4,5.4-0.4c0.3,0.2,0.9,0.6,1.2,0.7c-1,4.3-2.1,8.9-0.6,13.2
		c0.1,0.4,0.3,1.2,0.4,1.6c-0.9,1.9-1.8,3.8-2.8,5.6c-5.1-0.5-10.3-0.1-15.5-0.6c2.3-3.2,6.1-4.8,9-7.4c2.1-2.5-0.3-5.1-2-7
		c-0.6-1.2-1.2-2.3-1.8-3.5C59.9,185.1,62.2,184.3,64.5,183.6z"/>
</g>
<g id="_x23_a77f50ff">
	<path class="st251" d="M71,183.9c1,0.6,2,1.3,3,1.9c3.2,1.9,6.7,3,10.2,4c0.4,1.5,0.7,3,1.1,4.5c-2.2,0.4-4.3,0.9-6.4,1.4
		c-2-2-4.5-3.5-7.3-4c-0.4,1.8-0.8,3.6-1.2,5.4C68.9,192.8,70,188.2,71,183.9z"/>
</g>
<g id="_x23_ae794dff">
	<path class="st252" d="M201.8,192.3c0.1-2.5,0.5-5.1,0.8-7.6c0.2,1.4,0.4,2.7,0.6,4.1c3.2,0,6.4,0,9.6,0c0.1-0.8,0.2-2.3,0.3-3
		c0.8,1.3,1.7,2.6,2.5,3.8c-1.7,2.4-3.5,4.8-5.3,7.2c-0.2-0.5-0.6-1.5-0.8-2C206.8,194.3,204.2,193.6,201.8,192.3z"/>
</g>
<g id="_x23_97693dff">
	<path class="st253" d="M42.4,187.3c5.1,0.1,10.5,0.7,15.3-1.4c0.6,1.2,1.2,2.3,1.8,3.5c0.1,1.1,0.2,2.2,0.3,3.4
		c-5,0-10,0.1-14.8,1.8C43.2,192.6,41.5,190.2,42.4,187.3z"/>
</g>
<g id="_x23_2d130eff">
	<path class="st254" d="M35.7,187.3c2.2,0,4.5,0,6.7,0.1c-1,2.9,0.8,5.2,2.6,7.2c-2.5,0.8-4.9,1.8-7.3,2.7c-0.8-1.3-2.2-2.4-2.5-3.9
		C35.4,191.3,35.6,189.3,35.7,187.3z"/>
</g>
<g id="_x23_8b604bff">
	<path class="st255" d="M153.3,187.8c2.7,0.5,5.3,1.5,7.9,2.3c3.3,0.6,6.7,0.4,9.9,1c3.4,0.8,6.4,2.7,9.5,4.3
		c1.1,0.6,2.2,1.2,3.3,1.8c-0.4,0.8-0.8,1.6-1.2,2.4c-4.8-1.6-8.4-5.3-12.7-7.8c1,2.3,2.2,4.5,4.1,6.3c-2-0.8-3.9-1.5-5.9-2.2
		c-1.9-0.7-3.9-1.5-5.8-2.3c-3.3-1.6-7-2.1-10.6-2.4c0,0.8,0,2.2,0,3c-0.6-1.2-1.3-2.4-1.9-3.5c-0.2-0.4-0.6-1.1-0.8-1.5
		C150.4,188.7,151.9,188.2,153.3,187.8z"/>
</g>
<g id="_x23_794a23ff">
	<path class="st256" d="M59.5,189.4c1.7,1.8,4.1,4.5,2,7c-2.8,2.6-6.6,4.2-9,7.4c5.1,0.5,10.3,0,15.5,0.6c1-1.9,1.9-3.7,2.8-5.6
		c1.1-0.6,2.2-1.1,3.3-1.7c-0.5,3.5-0.1,7.6-2.8,10.3c-3.6,0.8-7.3-0.2-10.9-0.9c-5.4-1.2-10.9-2.1-16.4-2.7
		c-2.5-1.6-4.3-4.3-6.3-6.5c2.4-0.9,4.8-1.9,7.3-2.7c4.7-1.7,9.8-1.8,14.8-1.8C59.7,191.7,59.6,190.5,59.5,189.4z"/>
</g>
<g id="_x23_705521ff">
	<path class="st257" d="M105.8,191.7c4.7-1.1,10.1-3.3,14.5-0.3c-2.1,1.5-4,3.2-5.9,5c-0.2-0.2-0.7-0.5-1-0.6
		C111.1,194.2,108.5,192.8,105.8,191.7z"/>
</g>
<g id="_x23_f4c056ff">
	<path class="st258" d="M138,190c2.2,2.2,4.5,4.4,6.9,6.5c1.7-1.9,3.4-3.8,5-5.8c0.7,1.2,1.3,2.3,1.9,3.5c0.6,1.5,1.1,2.9,1.7,4.4
		c0.2,0.7,0.8,2,1,2.6c-1.6-1.4-3.1-3.3-5.4-3.2c-4.5-0.3-9.1-0.2-13.6-0.9l0.2-0.8C136.4,194.1,137.2,192.1,138,190z"/>
</g>
<g id="_x23_f1cc58ff">
	<path class="st259" d="M120.3,191.4c2.1-0.2,4.2-0.4,6.3-0.7c2,1.3,4,2.7,6,4c-0.3,0.8-0.9,2.3-1.2,3.1c-1.4-0.3-2.8-0.6-4.2-0.9
		c-2.9-0.9-5.9-0.8-8,1.6c-1.7-0.5-3.3-1.1-4.8-2C116.3,194.6,118.2,192.9,120.3,191.4z"/>
</g>
<g id="_x23_5b4430ff">
	<path class="st260" d="M151.7,191.2c3.6,0.3,7.3,0.9,10.6,2.4c-3.1,1.4-6.1,3.1-8.9,5c-0.6-1.5-1.2-2.9-1.7-4.4
		C151.7,193.4,151.7,191.9,151.7,191.2z"/>
</g>
<g id="_x23_966a3eff">
	<path class="st261" d="M71.6,191.7c2.8,0.5,5.3,2,7.3,4c-0.5,1.3-0.9,2.5-1.4,3.8c-0.5,1.3-1,2.7-1.6,4c-1.2,3.1-2.2,6.4-2.8,9.7
		c0-0.4,0-1.1-0.1-1.4c-8.5,0.9-17.1-0.7-25-3.9c-1.7-1-2.9-2.6-4-4.2c5.5,0.6,11,1.6,16.4,2.7c3.6,0.6,7.2,1.6,10.9,0.9
		c2.7-2.7,2.4-6.8,2.8-10.3c-1.1,0.6-2.2,1.1-3.3,1.7c-0.1-0.4-0.3-1.2-0.4-1.6C70.8,195.3,71.2,193.5,71.6,191.7z"/>
</g>
<g id="_x23_7d6119ff">
	<path class="st262" d="M90.2,194.5c3.2-1.4,6.7-2.5,10.2-1.2c-1.7,1.6-3.3,3.3-4.9,5c-0.6-0.3-1.3-0.7-1.9-1
		C92.4,196.4,91.3,195.5,90.2,194.5z"/>
</g>
<g id="_x23_f2c654ff">
	<path class="st263" d="M100.4,193.3c1.8-0.6,3.6-1.1,5.4-1.6c2.7,1.1,5.3,2.5,7.7,4.2c-0.7,1-1.3,1.9-2,2.9c-1.3-0.3-2.7-0.7-4-0.9
		c-1.6-0.1-3.3-0.1-4.9,0c-1.5,0.6-2.9,1.2-4.3,1.9c-0.9-0.4-1.8-0.9-2.8-1.3C97.1,196.6,98.7,194.9,100.4,193.3z"/>
</g>
<g id="_x23_6e4832ff">
	<path class="st264" d="M170,191.8c4.3,2.5,7.9,6.1,12.7,7.8c0.4-0.8,0.8-1.6,1.2-2.4c1.5-0.2,2.9-0.4,4.4-0.6
		c-0.4,0.2-1.1,0.5-1.5,0.7c-0.2,4.3-0.5,8.6-1.4,12.9c2.2,0,4.4,0,6.5,0l0,0.6c-2.6,0.4-5.2,0.5-7.8,0.7c0.2,2.6,0.5,5.2,0.7,7.9
		l0.1,0.8c-0.8,0.3-1.5,0.7-2.2,1.1c-0.9-2.1-1.9-4.1-2.8-6.2c1.2-4.4,1-9.3-1.7-13.2c-0.3,0.6-1,1.7-1.4,2.2c-0.5-0.3-1.5-1-2-1.4
		c0.3-1.3,0.7-2.5,1-3.8c-0.5-0.2-1.4-0.6-1.9-0.8C172.2,196.3,171,194.1,170,191.8z"/>
</g>
<g id="_x23_a2887eff">
	<path class="st265" d="M180.7,195.4c4.8-1.4,9.8-2.3,14.7-3.1c0,0.3,0,0.8,0,1.1c0.5,0.1,1.5,0.3,2.1,0.4c-2.3,1.2-4.8,2-7.3,2.5
		c-0.4,0.1-1.3,0.2-1.8,0.3c-1.5,0.2-2.9,0.4-4.4,0.6C182.8,196.5,181.8,195.9,180.7,195.4z"/>
</g>
<g id="_x23_814d2aff">
	<path class="st266" d="M197.4,193.7c0.2-0.5,0.6-1.4,0.8-1.9c-0.4,2.7-0.7,5.4-1,8.1c1.6-0.3,3.2-0.6,4.9-0.9
		c-0.1-1.7-0.2-3.4-0.2-5.1c0-0.4,0-1.2,0-1.6c2.4,1.2,5.1,2,7.7,2.5c0.2,0.5,0.6,1.5,0.8,2c-3.8,4.3-7.3,9-12.2,12.2
		c-2,0.6-4.1,1.2-6.2,1.6l0-0.6c-0.5-4.6,0.3-9.6-1.9-13.9C192.6,195.7,195.1,194.9,197.4,193.7z"/>
</g>
<g id="_x23_471312ff">
	<path class="st267" d="M198.2,191.8c1.2,0.7,2.4,1.4,3.6,2.1c0.1,1.7,0.2,3.4,0.2,5.1c-1.6,0.3-3.2,0.6-4.9,0.9
		C197.5,197.2,197.9,194.5,198.2,191.8z"/>
</g>
<g id="_x23_f6d05fff">
	<path class="st268" d="M78.9,195.7c2.1-0.5,4.2-1,6.4-1.4c1.6,0,3.3,0.1,4.9,0.2c1.1,1,2.2,1.9,3.3,2.8c-1.7,1-3.4,1.8-5.2,2.4
		c-1.5,0.5-2.9,1-4.4,1.4c-1.7,0.6-3.5,1.1-5.2,1.5c-0.3-0.8-0.9-2.4-1.2-3.3C78,198.2,78.5,196.9,78.9,195.7z"/>
</g>
<g id="_x23_b8b5b1ff">
	<path class="st269" d="M153.4,198.6c2.8-1.9,5.8-3.5,8.9-5c1.9,0.8,3.9,1.6,5.8,2.3c-1.5,0.5-2.9,0.9-4.4,1.3
		c-1.2,0.2-2.4,0.3-3.6,0.6c-1.8,0.9-3.6,1.9-5.3,2.9l-0.3,0.5C154.2,200.5,153.7,199.2,153.4,198.6z"/>
</g>
<g id="_x23_d06c12ff">
	<path class="st270" d="M132.6,194.7l0.7,0.4c0.2,4.5-2.1,9.1-6.5,10.8c-4.7,2.3-9.3-1.3-13.3-3.6c-0.6,0.7-1.1,1.3-1.6,2
		c-1.7,1.8-3.3,4.3-6,4.4c-4,0.7-7.6-1.4-10.9-3.5c-1.9,1.8-3.8,3.6-6,5c-2.4,0.2-4.8,0.6-7.2-0.1c-1.7-2.2-2.2-4.9-3.2-7.4
		c1.8-0.4,3.5-0.9,5.2-1.5c0.5,1.2,0.9,2.4,1.4,3.5c1.1-0.1,2.2-0.2,3.3-0.2c-0.1-1.6-0.2-3.2-0.3-4.7c1.8-0.6,3.6-1.5,5.2-2.4
		c0.6,0.3,1.3,0.7,1.9,1c0.9,0.4,1.8,0.9,2.8,1.3c1.4-0.7,2.9-1.3,4.3-1.9c-0.5,1.7-1,3.4-1.4,5.1c2.2,0,4.4,0,6.5,0
		c-0.1-1.7-0.1-3.4-0.2-5.1c1.4,0.3,2.7,0.6,4,0.9c0.7-1,1.3-1.9,2-2.9c0.2,0.2,0.7,0.5,1,0.6c1.5,0.9,3.1,1.5,4.8,2
		c0.8,1.1,1.5,2.2,2.2,3.3c1.6-0.1,3.2-0.2,4.8-0.3c0.3-1.5,0.6-3,1-4.6c1.4,0.3,2.8,0.6,4.2,0.9
		C131.7,197.1,132.3,195.5,132.6,194.7z"/>
</g>
<g id="_x23_8a4b17ff">
	<path class="st271" d="M133.3,195.1c0.8,0.4,1.6,0.7,2.4,1.1l-0.2,0.8c-0.6,2.6-0.9,5.3-1.1,7.9c4.5-1.5,9.1-3.4,13.9-2.4
		c0.4,1.1,0.8,2.2,1.2,3.3c-3-0.8-6.5-3.1-9.4-0.9c-2.6,2.2-5.5,0-8-1.1c-2.9,1.9-6.1,4.5-9.8,3.7c-3.5-0.8-6.8-2.6-10.3-3.3
		c0.5-0.7,1.1-1.3,1.6-2c4,2.2,8.5,5.9,13.3,3.6C131.2,204.2,133.5,199.7,133.3,195.1z"/>
</g>
<g id="_x23_402916ff">
	<path class="st272" d="M119.2,198.5c2.1-2.4,5.1-2.5,8-1.6c-0.3,1.5-0.6,3-1,4.6c-1.6,0.1-3.2,0.2-4.8,0.3
		C120.7,200.7,120,199.6,119.2,198.5z"/>
</g>
<g id="_x23_f6dcd3ff">
	<path class="st273" d="M163.7,197.2c1.5-0.4,2.9-0.8,4.4-1.3c0.6,1.2,1.1,2.5,1.6,3.7c-1.2,0.3-2.4,0.5-3.6,0.7
		C165.3,199.3,164.5,198.2,163.7,197.2z"/>
</g>
<g id="_x23_8a776bff">
	<path class="st274" d="M168.1,195.9c2,0.7,4,1.4,5.9,2.2c0.5,0.2,1.4,0.6,1.9,0.8c-0.3,1.3-0.6,2.5-1,3.8c-0.1,0.4-0.3,1.1-0.4,1.4
		c-3-1.3-7.2-3.9-10.1-1c0.8,4.1,5.6,3.3,8.8,3.7c0,0.6,0,1.9,0,2.5l0,0.8c-0.4,0.4-1.3,1.3-1.7,1.7c-1.5-0.3-3-0.7-4.5-1
		c-1.7-0.4-3.3-0.9-4.9-1.5c1.1-0.8,2.2-1.7,3.3-2.5c-1.6-2-3.3-3.8-5.3-5.3c0.9-1.2,1.9-2.4,2.8-3.6c-0.7,0-2.1-0.1-2.8-0.2
		c1.2-0.2,2.4-0.4,3.6-0.6c0.8,1.1,1.6,2.1,2.5,3.1c1.2-0.2,2.4-0.4,3.6-0.7C169.2,198.3,168.7,197.1,168.1,195.9z"/>
</g>
<g id="_x23_382c12ff">
	<path class="st275" d="M102.6,197.8c1.6-0.2,3.3-0.2,4.9,0c0.1,1.7,0.2,3.4,0.2,5.1c-2.2,0-4.4,0.1-6.5,0
		C101.6,201.2,102.1,199.5,102.6,197.8z"/>
</g>
<g id="_x23_de7d16ff">
	<path class="st276" d="M134.4,205c0.2-2.7,0.4-5.3,1.1-7.9c4.5,0.8,9.1,0.7,13.6,0.9c2.3-0.1,3.8,1.8,5.4,3.2
		c-0.4,1.2-0.7,2.4-1.1,3.6c-1.3,0.4-2.7,0.8-4,1.2c-0.4-1.1-0.8-2.2-1.2-3.3C143.4,201.6,138.8,203.5,134.4,205z"/>
</g>
<g id="_x23_331b06ff">
	<path class="st277" d="M186.9,197.2c0.4-0.2,1.1-0.5,1.5-0.7c0.4-0.1,1.3-0.2,1.8-0.3c2.2,4.3,1.4,9.2,1.9,13.9c-2.2,0-4.3,0-6.5,0
		C186.4,205.8,186.6,201.5,186.9,197.2z"/>
</g>
<g id="_x23_1f1914ff">
	<path class="st278" d="M154.8,200.7c1.7-1.1,3.5-2.1,5.3-2.9c0.7,0.1,2.1,0.2,2.8,0.2c-0.9,1.2-1.8,2.4-2.8,3.6
		c-0.3,0.4-1,1.2-1.3,1.6c-1.1,0.8-2.2,1.4-3.3,2.1C155.2,203.7,155,202.2,154.8,200.7z"/>
</g>
<g id="_x23_804e1dff">
	<path class="st279" d="M76,203.5c0.5-1.3,1-2.7,1.6-4c0.3,0.8,0.9,2.4,1.2,3.3c0.9,2.5,1.5,5.2,3.2,7.4c2.3,0.7,4.8,0.3,7.2,0.1
		c-2.1,0.9-4.4,1.7-6.8,1.5c-2.5-0.1-2.7-3.2-3.8-4.9c-0.4,0-1.1,0.1-1.5,0.1C76.7,205.8,76.3,204.6,76,203.5z"/>
</g>
<g id="_x23_512b02ff">
	<path class="st280" d="M83.9,201.2c1.5-0.5,2.9-1,4.4-1.4c0.1,1.6,0.2,3.2,0.3,4.7c-1.1,0.1-2.2,0.1-3.3,0.2
		C84.9,203.6,84.4,202.4,83.9,201.2z"/>
</g>
<g id="_x23_9c4a37ff">
	<path class="st281" d="M154.5,201.2l0.3-0.5c0.2,1.5,0.4,3.1,0.6,4.6c1.1-0.7,2.2-1.4,3.3-2.1c0.1,2.5,1.5,4.6,3.3,6.2
		c1.6,0.6,3.3,1.1,4.9,1.5c-2,0.2-3.9,0.8-5.7,1.5c-2,0.2-4,0.3-6.1,0.5c0-2-0.1-4.1-0.1-6.1c-1.9-0.2-3.9-0.4-5.7-0.9
		c1.3-0.4,2.7-0.8,4-1.2C153.7,203.5,154.1,202.4,154.5,201.2z"/>
</g>
<g id="_x23_f7ded7ff">
	<path class="st282" d="M158.7,203.1c0.3-0.4,1-1.2,1.3-1.6c2,1.5,3.8,3.3,5.3,5.3c-1.1,0.9-2.2,1.7-3.3,2.5
		C160.2,207.8,158.8,205.7,158.7,203.1z"/>
</g>
<g id="_x23_763821ff">
	<path class="st283" d="M164.5,203.1c2.9-3,7.1-0.4,10.1,1c-0.5,1.7-1,3.5-1.4,5.2c0-0.6,0-1.9,0-2.5
		C170.1,206.4,165.3,207.2,164.5,203.1z"/>
</g>
<g id="_x23_bbb1acff">
	<path class="st284" d="M176.9,204c0.3-0.6,1-1.7,1.4-2.2c2.7,3.9,2.9,8.7,1.7,13.2C178.6,211.4,177.8,207.6,176.9,204z"/>
</g>
<g id="_x23_382e1dff">
	<path class="st285" d="M132,204c2.5,1.1,5.4,3.3,8,1.1c2.9-2.3,6.4,0,9.4,0.9c1.9,0.4,3.8,0.6,5.7,0.9c0.1,2,0.1,4.1,0.1,6.1
		c-2.5,0.7-4.9,1.8-7.2,3c-2.2-1.8-4.4-4.2-7.4-4.4c-9.9-0.9-19.9,0.6-29.7,1.6c-0.2,2-0.3,4.1-0.4,6.1c-0.6-1.9-1.2-3.8-2.1-5.6
		c-2.3-0.8-4.8-0.2-7.2-0.1c0,3.2,0.1,6.5,0.5,9.7c0.1,0.7,0.3,2.2,0.4,2.9c-1-2.6-2.2-5.2-3.5-7.7c-4.1,0.2-8.3,0.4-12.4-0.6
		c-3.6-1-7.2,0.8-10.6,1.8c1.9,4.1,5.6,6.7,10,7.2c-0.7,1.3-1.5,2.6-2.4,3.8c-3.1-1.2-6.1-2.5-9.1-3.9c1.6-6.4,1.8-13,2.6-19.5
		c0.4,0,1.1,0,1.5-0.1c1.1,1.7,1.3,4.8,3.8,4.9c2.4,0.2,4.6-0.7,6.8-1.5c2.2-1.4,4.1-3.2,6-5c3.2,2,6.8,4.2,10.9,3.5
		c2.7-0.1,4.4-2.6,6-4.4c3.6,0.8,6.8,2.5,10.3,3.3C126,208.4,129.1,205.9,132,204z"/>
</g>
<g id="_x23_28281aff">
	<path class="st286" d="M174.6,204c0.1-0.4,0.3-1.1,0.4-1.4c0.5,0.3,1.5,1,2,1.4c0.9,3.7,1.7,7.4,3.1,10.9c0.8,2.1,1.8,4.1,2.8,6.2
		c-5.7,3.8-11.8,6.8-18.2,9.2c2.2-3.1,3.2-6.8,3.8-10.5c0.1-0.3,0.2-1,0.3-1.3c2.3,0,4.5,0.1,6.8-0.2c0.5-2.9-1.6-5.5-2.3-8.2l0-0.8
		C173.6,207.5,174.1,205.8,174.6,204z"/>
</g>
<g id="_x23_615a49ff">
	<path class="st287" d="M73.1,213.2c0.6-3.3,1.6-6.6,2.8-9.7c0.4,1.1,0.7,2.3,1,3.4c-0.8,6.5-1,13.1-2.6,19.5
		c-0.6-0.4-1.8-1.1-2.4-1.4C72.4,221,72.7,217.1,73.1,213.2z"/>
</g>
<g id="_x23_b58b5aff">
	<path class="st288" d="M48.1,207.9c7.9,3.2,16.5,4.7,25,3.9c0,0.4,0,1.1,0.1,1.4c-0.4,3.9-0.8,7.8-1.1,11.7
		C63.2,220.6,54.9,214.9,48.1,207.9z"/>
</g>
<g id="_x23_a16f46ff">
	<path class="st289" d="M192,210.6c2.1-0.4,4.1-1,6.2-1.6c-3.6,4.3-8.3,7.7-13.3,10.2c-0.2-2.6-0.5-5.2-0.7-7.9
		C186.8,211.2,189.4,211,192,210.6z"/>
</g>
<g id="_x23_6c321dff">
	<path class="st290" d="M171.5,211.8c0.4-0.4,1.3-1.3,1.7-1.7c0.7,2.7,2.8,5.3,2.3,8.2c-2.2,0.3-4.5,0.2-6.8,0.2
		c-0.1,0.3-0.2,1-0.3,1.3l-0.2,0.6c-1.4-3.3-3.9-6-6.8-8.1c1.8-0.7,3.7-1.3,5.7-1.5C168.5,211.2,170,211.5,171.5,211.8z"/>
</g>
<g id="_x23_aaa581ff">
	<path class="st291" d="M110.9,213c9.9-1,19.8-2.5,29.7-1.6c3,0.3,5.2,2.6,7.4,4.4c2.3-1.1,4.7-2.3,7.2-3c2-0.2,4-0.3,6.1-0.5
		c2.9,2.1,5.4,4.7,6.8,8.1c-0.4,0.9-0.8,1.8-1.2,2.7c-3.3-1-6.6-0.1-9.6,1.6c-1.2-1.1-2.1-2.6-3.6-3.3c-1.8-0.2-3.6,0.1-5.4,0.3
		c-2.7,0.3-4.9-1.5-7.4-2.2c-3.2-0.9-6.5-0.6-9.8-0.2c-5.4,0.8-10.8-0.7-16.2,0c-4.6,0.3-9.1,1.9-13.2,3.8c-0.4-3.2-0.5-6.4-0.5-9.7
		c2.4-0.1,4.9-0.6,7.2,0.1c0.9,1.8,1.4,3.7,2.1,5.6C110.6,217.1,110.8,215,110.9,213z"/>
</g>
<g id="_x23_21180bff">
	<path class="st292" d="M75.8,219.3c3.4-1,6.9-2.8,10.6-1.8c4.1,1,8.2,0.9,12.4,0.6c1.3,2.5,2.5,5.1,3.5,7.7c0,1.8-0.1,3.5-0.2,5.2
		c-3.3-0.6-6.8-0.9-10-2.3c-2.4-0.9-3.4-3.5-4.8-5.5c-0.3,0.8-1.1,2.3-1.4,3.1C81.4,226.1,77.7,223.4,75.8,219.3z"/>
</g>
<g id="_x23_84a486ff">
	<path class="st293" d="M115,219.2c5.4-0.7,10.8,0.8,16.2,0c3.2-0.4,6.6-0.7,9.8,0.2c2.5,0.7,4.7,2.5,7.4,2.2
		c-0.1,2.3-0.2,4.6-0.3,6.9c-2.3,1-4.7,2-7.3,1.7c1.3-1.6,2.6-3.2,4-4.8c-2-2.3-4.3-5-7.7-4.5c-2.9-0.1-4,3-5.6,4.9
		c-4-1.3-7.9-3.8-12.2-3.3c-4,0.3-7.7,2.7-11.8,2.2c-2.2-0.5-3.6,1.4-5.1,2.7c-0.1-0.4-0.2-1.1-0.3-1.4c-0.1-0.7-0.3-2.2-0.4-2.9
		C105.9,221.1,110.4,219.5,115,219.2z"/>
</g>
<g id="_x23_619c82ff">
	<path class="st294" d="M168.1,220.4l0.2-0.6c-0.6,3.7-1.6,7.4-3.8,10.5c-1.8,1.4-4.1,1.8-6.2,2.6c0-0.3,0.1-1,0.2-1.3
		c-3.7-0.1-7.3-1.2-10.4-3.2c0.1-2.3,0.2-4.6,0.3-6.9c1.8-0.1,3.6-0.4,5.4-0.3c1.5,0.7,2.4,2.2,3.6,3.3c2.9-1.7,6.2-2.6,9.6-1.6
		C167.3,222.2,167.7,221.3,168.1,220.4z"/>
</g>
<g id="_x23_649e85ff">
	<path class="st295" d="M131.5,225.7c1.5-1.9,2.6-5,5.6-4.9c3.4-0.5,5.7,2.3,7.7,4.5c-1.4,1.6-2.7,3.2-4,4.8
		c-9.1-0.5-18.2,1.2-27.4,0.5c-3.4-0.2-6.7,0.6-10.1,1.2c-0.3-1.5-0.6-3-0.9-4.5c1.5-1.2,2.9-3.1,5.1-2.7c4.1,0.4,7.7-1.9,11.8-2.2
		C123.6,221.9,127.5,224.5,131.5,225.7z"/>
</g>
<g id="_x23_303a2bff">
	<path class="st296" d="M85.8,226.5c0.3-0.8,1.1-2.3,1.4-3.1c1.4,2,2.4,4.6,4.8,5.5c3.2,1.3,6.6,1.7,10,2.3c0.1-1.8,0.2-3.5,0.2-5.2
		c0.1,0.4,0.2,1.1,0.3,1.4c0.3,1.5,0.6,3,0.9,4.5c3.3-0.6,6.7-1.4,10.1-1.2c9.1,0.7,18.2-1,27.4-0.5c2.6,0.4,5-0.7,7.3-1.7
		c3.1,2,6.7,3.1,10.4,3.2c0,0.3-0.1,1-0.2,1.3c-8.6,2.1-17.3,4.4-26.3,4.8c-16.5,1.4-33.1-1.8-48.6-7.4
		C84.3,229.1,85.1,227.8,85.8,226.5z"/>
</g>
</svg>
