<?xml version="1.0" encoding="utf-8"?>
<!-- Generator: Adobe Illustrator 26.0.3, SVG Export Plug-In . SVG Version: 6.00 Build 0)  -->
<svg version="1.1" id="Layer_1" xmlns="http://www.w3.org/2000/svg" xmlns:xlink="http://www.w3.org/1999/xlink" x="0px" y="0px"
	 viewBox="0 0 250 250" style="enable-background:new 0 0 250 250;" xml:space="preserve">
<style type="text/css">
	.st0{fill:#FDFDFD;}
	.st1{fill:#FFE400;}
	.st2{fill:#010101;}
	.st3{fill:#F4BC00;}
	.st4{fill:#7B5D40;}
</style>
<g id="_x23_fdfdfdff">
	<path class="st0" d="M35.3,53c-0.2-8.5,1-17,3.4-25.1c-0.9,5.4-2.3,10.7-2.6,16.2c-1.3,12.4,0.1,24.9,2.6,37C36,72,35,62.5,35.3,53
		z"/>
	<path class="st0" d="M211.3,27.9c5.4,19,4.3,39.5-1.4,58.3c-1.1,3.9-3.1,7.6-4,11.6c2,7.7,4.6,15.3,5,23.3
		c-1.7-6.7-2.4-13.6-4.6-20.2c-1.5-3.8,0.5-7.6,1.8-11.2C215.3,70.1,216.2,48.3,211.3,27.9z"/>
	<path class="st0" d="M80.7,110.7c1.6-2,4.8-3.3,7-1.5c3.3,2,2.4,7-0.1,9.4c-1.8-0.1-3.5-0.1-5.2,0
		C80.4,116.5,79.6,113.4,80.7,110.7z"/>
	<path class="st0" d="M162.3,109.2c2.8-2.2,7.8,0.2,7.5,3.9c0.3,2.1-0.9,3.9-2.1,5.5c-1.8-0.1-3.5-0.1-5.3,0
		C159.9,116.2,158.9,111.2,162.3,109.2z"/>
	<path class="st0" d="M93.4,114.4c1.1-0.1,2.2-0.1,3.3-0.2c0,1.2,0,2.3,0,3.5c-1.2,0-2.3,0-3.5,0C93.3,116.6,93.4,115.5,93.4,114.4z
		"/>
	<path class="st0" d="M153.3,114.2c1.1,0.1,2.2,0.1,3.3,0.2c0.1,1.1,0.1,2.2,0.2,3.3c-1.2,0-2.3,0-3.5,0
		C153.3,116.6,153.3,115.4,153.3,114.2z"/>
	<path class="st0" d="M37.6,154c9-7,19.6-13.6,31.4-13.6c7.5-0.3,14.1,3.7,20.3,7.4c5.2,3.4,10.7,6.7,15.3,11
		c-3.3,5.3-2.7,12.3,0.2,17.6c4.6,7.4,13.6,11.8,22.2,11.2c7.7-1.1,15.4-5.3,18.9-12.5c2.2-5,2.6-11.3-0.4-16.1
		c3.1-2.8,6.4-5.3,9.7-7.9c6.1-3.3,11.8-7.4,18.4-9.5c6.8-2.2,14-0.6,20.6,1.5c6.8,2.2,12.3,7.1,18.1,11.1
		c-0.8,10.5-2.2,21.2-6.5,31c-5.7,11.4-15.6,20-26.3,26.7c-15.9,9.6-33.7,15.7-51.7,19.9c-6.1,1-11.8-1.7-17.7-3.1
		c-14.9-4.2-29.4-10.1-42.4-18.4c-10.2-6.8-19.8-15.6-24.6-27.1C39.8,173.7,38.2,163.8,37.6,154 M81.3,165c4.6,14,10.1,28,19,39.8
		c6.2,8.2,16.1,14.4,26.7,13.7c9.1-1.1,17.2-6.5,22.7-13.7c8.9-11.8,14.3-25.9,19-39.8c-7.5,14.2-14.3,29.3-26.2,40.5
		c-4.1,3.4-8.7,7.3-14.4,7.1c-4.1-0.2-8.5,0.7-12.3-1.4c-7.7-3.9-13.5-10.6-18.3-17.6C91,184.6,86.4,174.6,81.3,165 M73.4,168.2
		c1.5,0.6,4.5,1.5,6.3,0.6C79,166.8,75.2,167.6,73.4,168.2 M170.3,168.8c1.9,1.1,4.2-0.4,6.2-0.3
		C175.5,167.3,170.9,166.9,170.3,168.8 M67.7,175.9c-4.1,1.2-8.5,1.8-11.8,4.8c8.9-2.4,18-4.4,27.3-4.5c-0.1-0.6-0.4-1.7-0.5-2.2
		C77.7,173.1,72.5,174.7,67.7,175.9 M167,174.3c0.2,1.1,0.9,1.7,2,1.8c4.2,0.4,8.4,0.3,12.5,1.2c3.9,0.5,7.6,2.1,11.5,2.3
		C184.6,176.8,176,173.7,167,174.3 M69.1,184.9c3.2-1.6,6.4-3.2,9.9-4.1c1.9-0.8,4.9-0.6,5.2-3.2C78.6,178.2,73.7,181.8,69.1,184.9
		 M165.8,177.6c0.2,0.5,0.6,1.4,0.8,1.9c4.9,1.5,9.8,3,14.3,5.5C176.3,181.8,171.5,178.2,165.8,177.6 M103,190.4
		c0.3,0.5,1,1.5,1.3,2c5.3,3,10.1,7.1,15.9,9.1c3.2,0.5,6.4,0.5,9.6,0c5-1.7,9.2-5,13.7-7.7c1.3-0.9,3.1-1.5,3.5-3.3
		c-4-0.1-8.1-0.1-12,0.8c-6.3,0.7-12.7,0.6-19,0.1C111.7,190.5,107.3,190.2,103,190.4z"/>
</g>
<g id="_x23_ffe400ff">
	<path class="st1" d="M115.6,0h24.6c15.8,3.5,32.1,7.1,45.9,16c-3.8,2.6-7.6,5.4-11.3,8.1c-10.6-3.4-20.8-8.1-31.9-9.7
		c-8.3-1.4-16.8-1.6-25.2-1.2c-14.4,0.7-28.3,5.5-41.1,11.9c-4.4-3.7-9.2-7-14.2-9.9c5.5-1.2,10.2-4.5,15.5-6.4
		c4.4-1.6,8.9-3.2,13.4-4.6C99.2,1.9,107.4,1.3,115.6,0z"/>
	<path class="st1" d="M42.8,16.8c2.2-3.1,6.7-3.1,9.6-1.2C64.5,22.2,76,30.3,84.9,41c1.9,2.5,3.9,5.1,5,8c-0.3,1.9-1.9,3.3-2.8,5
		c-0.6,0.2-1.7,0.6-2.3,0.8C79.3,42,68,32.7,56.3,25.7c-2.3-1.2-5.4-3.4-7.9-1.3c-1.4,1.6-1.7,3.9-2.3,5.9
		c-1.7,8.5-3.3,17.1-2.9,25.9c0.4,9.6,1.7,19.2,4.4,28.4c1.1,3.9,2.4,7.9,4.6,11.4c2.1-0.7,2.7-3.1,3.8-4.8
		c2.8-5.8,6.6-11.2,11.3-15.6c1.8,1,3.6,2,5.5,2.8c-0.9-0.8-1.8-1.6-2.8-2.4c2.9-5.9,10.7-4,15.2-7.6c-2.1-0.8-4.2-1.6-6.3-2.6
		c6.8-2.9,13.9-4.7,21.1-6.2c-2.3-2.2-5.7-2.6-8.3-4.4c5.8-3,12.4-1.3,18.5-0.3c0.5-1.9,1.2-3.8,2.4-5.3c4.2,0.9,8.1,2.9,12.2,4.3
		c4.1-1.3,8-3.3,12.2-4.3c1.3,1.5,1.9,3.4,2.4,5.3c6-0.9,12.5-2.9,18.1,0.3c-2.6,1.6-5.7,2.3-8,4.3c7.2,1.6,14.3,3.4,21.1,6.3
		c-2,1-4.2,1.7-6.2,2.6c4.7,3.2,12.3,1.9,15.2,7.6c-0.9,0.8-1.9,1.6-2.8,2.4c1.9-0.8,3.7-1.8,5.5-2.8c2,2.3,4.2,4.4,6.1,6.9
		c3.3,4.4,5.4,9.6,8.3,14.2c3.7-4.5,5-10.4,6.5-15.9c4.5-17.8,4.5-36.8-0.8-54.4c-0.6-2.9-4.1-3.4-6.4-1.9
		c-13,6.9-24.9,17-31.1,30.6c-0.6-0.2-1.8-0.6-2.3-0.9c-0.9-2-3.7-4-2.2-6.3c7.5-12.9,19.9-21.9,32.4-29.6c3.6-1.9,7.6-5,11.8-3.3
		c4.5,2.7,5.3,8.4,6.5,13.1c4.8,20.4,4,42.2-3.3,62c-1.3,3.6-3.4,7.3-1.8,11.2c2.2,6.6,2.9,13.5,4.6,20.2c0.7,2.2,1.2,4.4,1.4,6.8
		c0.4,8.7,0.7,17.4,0.2,26.1c-5.8-4-11.3-8.9-18.1-11.1c-6.6-2.1-13.9-3.7-20.6-1.5c-6.7,2.1-12.4,6.2-18.4,9.5
		c-3.9,1.6-7.6,3.9-11.1,6.2c-10.6-10.6-30-10.2-39.6,1.6c-4.6-4.3-10-7.6-15.3-11c-6.1-3.8-12.8-7.7-20.3-7.4
		c-11.8,0-22.4,6.6-31.4,13.6c-0.6-12-0.5-24.1,1.6-36c0.8-6.9,3.4-13.4,4.6-20.1c-0.9-5.8-4.6-10.8-5.1-16.8
		c-2.5-12.1-3.9-24.6-2.6-37c0.3-5.5,1.7-10.8,2.6-16.2C39.5,24.1,40.5,20.1,42.8,16.8 M82.3,102c-4.8,1.7-6.2,7.4-6.7,11.9
		c-0.4,3.4,0,7.4,3.2,9.3c5.2,3.3,12.1,4.7,17.9,2.4c4.3-2.1,8.4-6.6,7.9-11.7c0.1-5.1-5.3-7.3-9.1-9.3
		C91.2,103.2,86.7,101.1,82.3,102 M162.4,102.2c-5.2,1.2-10.4,3.2-14.5,6.6c-4.8,4.4-1.8,12.2,3,15.3c4.5,3.5,10.7,3.1,15.8,1.5
		c3.2-1.1,6.9-3,7.7-6.6c0.6-4.9-0.2-10.2-2.9-14.4C169.3,101.8,165.5,101.1,162.4,102.2z"/>
	<path class="st1" d="M19.1,58c3.1-5,6.5-9.9,10.8-14.1c-0.5,8.5-0.5,17,0.6,25.5c-4,5.5-6.5,11.9-8.8,18.3
		c-5.1,15.6-7.6,32.2-5.2,48.5c1.1,8.4,2.2,16.9,5.7,24.8c3.9,9.1,7.4,18.5,13.6,26.3c3.3,4,6.5,8.1,10.3,11.6
		c16.6,18.8,40.4,29,64.1,35.6c6.4,1.6,13,4.1,19.6,2.5c12.7-2.8,25-6.9,36.9-12.2c15.4-6.8,29.9-16.3,40.1-29.9
		c11.9-12.1,18.4-28.3,23.6-44.2c2.2-8,3.7-16.2,4.2-24.4c0.2,0,0.7,0,0.9,0c0.1,4.7-0.3,9.5,0.1,14.2c3-4.3,1.6-10.1,3.7-14.8
		c0.1,6,0.1,12-0.2,17.9c-0.8,4.9-1.1,9.9-0.7,14.8c1.1-0.4,2.3-0.7,3.4-1.1c-2.1,10.4-6.6,20.1-10.8,29.7
		c-13.9,27.1-39.2,48-68.2,57.1c-7.1,2.7-14.6,3.5-21.8,5.8h-31.3c-2.6-0.8-5.3-1.5-8-2c-28.4-5.1-54.7-20.6-73-42.8
		c-9.9-11.3-17-24.8-22.1-38.8C3,156.5,1.8,145.9,0,135.5v-25.6C1.8,104,2.4,98,4.1,92.2C7.3,80.1,12.6,68.7,19.1,58z"/>
	<path class="st1" d="M220.1,43.9C231.4,56,239,71.1,244.3,86.6c2.6,7.3,3.5,15,5.7,22.3v17.6c-0.9-6.2-2.2-12.4-2.8-18.6
		c-1.1-9.8-3.8-19.4-7.8-28.4c-2.9-6.2-5.8-12.5-10.3-17.7c2.7,6.5,6.5,12.5,8.8,19.2c5.4,14.3,9,29.7,7.3,45.1
		c-2.4-5.1-1.2-10.8-1.8-16.2c-1.4-13.3-5.7-26.3-12.3-38c-2.9-4.9-5.9-10-10.6-13.5C220.4,53.7,220.5,48.8,220.1,43.9z"/>
</g>
<g id="_x23_010101ff">
	<path class="st2" d="M36,17.4c1.7-5,6.6-8.7,11.9-8.7c5.4,0.4,9.9,3.9,14.4,6.6c5,2.9,9.7,6.2,14.2,9.9c6.2,5.2,12,10.9,16.2,17.9
		c1,1.5,1.8,3.2,3.1,4.5c4.6-0.4,9.6-0.2,13.6-3c5.2-3,10.5,1.1,15.6,2.2c3.7-0.8,7-3,10.9-3.3c3.1-0.3,5.6,1.9,8.3,3
		c3.2,0.7,6.6,0.9,9.8,1.1c1.2-1.1,1.9-2.6,2.8-3.9c4.5-7.7,11-14,17.9-19.6c3.7-2.8,7.5-5.5,11.3-8.1c4-2.3,7.9-4.8,12.2-6.5
		c4.9-1.9,10.8,0.2,13.9,4.4c2.4,3.5,3.3,7.8,4.5,11.8c1.8,6,2.9,12.1,3.5,18.2c0.3,4.9,0.2,9.7,0.3,14.6
		c-0.5,10.8-2.5,21.6-5.9,31.8c-1,3.1-2.9,6.1-2.2,9.5c6.5,23.1,8.4,47.8,3.5,71.4c-1.3,8.4-4.5,16.4-9,23.7
		c-10.2,13.6-24.7,23.1-40.1,29.9c-11.9,5.3-24.2,9.4-36.9,12.2c-6.6,1.6-13.3-0.9-19.6-2.5c-23.7-6.6-47.5-16.8-64.1-35.6
		c-4.3-5.7-8-12-10-19c-6.4-24-6-49.6-0.2-73.7c1-3.7,2.8-7.8,1.2-11.6c-3.2-8.1-5.3-16.7-6.6-25.3c-1.1-8.4-1.1-17-0.6-25.5
		C30.8,34.8,32.9,25.9,36,17.4 M42.8,16.8c-2.3,3.3-3.3,7.2-4.1,11.1C36.3,36,35,44.5,35.3,53C35,62.5,36,72,38.7,81.1
		c0.5,6,4.3,11,5.1,16.8c-1.2,6.8-3.9,13.2-4.6,20.1c-2.1,11.9-2.2,24-1.6,36c0.7,9.8,2.2,19.7,5.6,28.9
		c4.8,11.5,14.4,20.3,24.6,27.1c13,8.4,27.6,14.2,42.4,18.4c5.8,1.3,11.6,4,17.7,3.1c18-4.1,35.8-10.3,51.7-19.9
		c10.7-6.6,20.6-15.3,26.3-26.7c4.3-9.7,5.8-20.4,6.5-31c0.5-8.7,0.2-17.4-0.2-26.1c-0.1-2.3-0.7-4.6-1.4-6.8c-0.3-8-3-15.6-5-23.3
		c0.9-4,2.9-7.7,4-11.6c5.8-18.8,6.9-39.3,1.4-58.3c-1.2-4.6-2-10.4-6.5-13.1c-4.2-1.8-8.2,1.3-11.8,3.3
		c-12.4,7.7-24.9,16.7-32.4,29.6c-1.5,2.3,1.3,4.3,2.2,6.3c-0.2,1.3,0,2.5,0.4,3.7c3.9,2.2,9,2.7,11.9,6.5c1.1,1.4-0.1,3.1-0.5,4.6
		c3.5,1,6.1,3.6,7.9,6.7c-1.8,1-3.6,2-5.5,2.8c0.9-0.8,1.8-1.6,2.8-2.4c-3-5.7-10.5-4.4-15.2-7.6c2.1-0.8,4.2-1.6,6.2-2.6
		c-6.8-2.8-13.9-4.7-21.1-6.3c2.3-2,5.4-2.7,8-4.3c-5.6-3.2-12.2-1.2-18.1-0.3c-0.5-1.9-1.1-3.8-2.4-5.3c-4.2,0.9-8.1,2.9-12.2,4.3
		c-4.1-1.4-8-3.3-12.2-4.3c-1.3,1.5-2,3.4-2.4,5.3c-6.1-1-12.7-2.7-18.5,0.3c2.6,1.7,6,2.1,8.3,4.4C93,61,85.8,62.8,79.1,65.7
		c2,1,4.2,1.7,6.3,2.6C80.8,71.8,73,70,70.1,75.9c0.9,0.8,1.9,1.6,2.8,2.4c-1.9-0.8-3.7-1.8-5.5-2.8c1.8-3.1,4.4-5.5,7.9-6.7
		c-0.3-1.4-1.6-3.2-0.5-4.5c2.7-3.6,7.4-4.2,11.2-6.1c1.7-0.6,1.1-2.8,1.2-4.1c0.9-1.7,2.4-3.1,2.8-5c-1.1-3-3.1-5.5-5-8
		C76,30.3,64.5,22.2,52.4,15.6C49.4,13.7,44.9,13.8,42.8,16.8z"/>
	<path class="st2" d="M104.6,158.8c9.6-11.7,29-12.2,39.6-1.6c0.5,0.6,0.9,1.1,1.4,1.7c3,4.8,2.6,11.1,0.4,16.1
		c-3.5,7.2-11.2,11.4-18.9,12.5c-8.6,0.6-17.6-3.8-22.2-11.2C101.8,171.1,101.2,164.1,104.6,158.8z"/>
	<path class="st2" d="M81.3,165c5.1,9.7,9.7,19.7,16.1,28.6c4.8,7,10.6,13.7,18.3,17.6c3.8,2.1,8.2,1.2,12.3,1.4
		c5.7,0.2,10.3-3.7,14.4-7.1c11.9-11.1,18.8-26.2,26.2-40.5c-4.7,13.9-10.1,28-19,39.8c-5.5,7.2-13.6,12.7-22.7,13.7
		c-10.6,0.7-20.5-5.5-26.7-13.7C91.4,192.9,86,178.9,81.3,165z"/>
	<path class="st2" d="M73.4,168.2c1.7-0.6,5.5-1.4,6.3,0.6C77.9,169.7,75,168.8,73.4,168.2z"/>
	<path class="st2" d="M170.3,168.8c0.6-1.9,5.2-1.5,6.2-0.3C174.5,168.4,172.1,169.9,170.3,168.8z"/>
	<path class="st2" d="M167,174.3c9-0.6,17.6,2.6,26.1,5.3c-3.9-0.1-7.6-1.8-11.5-2.3c-4.1-0.9-8.4-0.8-12.5-1.2
		C167.9,176,167.2,175.4,167,174.3z"/>
	<path class="st2" d="M69.1,184.9c4.6-3.1,9.4-6.7,15.1-7.3c-0.3,2.7-3.3,2.5-5.2,3.2C75.5,181.7,72.3,183.3,69.1,184.9z"/>
	<path class="st2" d="M165.8,177.6c5.7,0.7,10.5,4.2,15.1,7.4c-4.5-2.5-9.4-4-14.3-5.5C166.4,179,166,178,165.8,177.6z"/>
	<path class="st2" d="M103,190.4c4.4-0.2,8.7,0.1,13,0.9c6.3,0.5,12.7,0.6,19-0.1c3.9-0.9,8-0.9,12-0.8c-0.4,1.8-2.2,2.4-3.5,3.3
		c-4.5,2.7-8.7,6-13.7,7.7c-3.2,0.5-6.4,0.5-9.6,0c-5.8-2-10.6-6-15.9-9.1C104,191.9,103.3,190.9,103,190.4z"/>
</g>
<g id="_x23_f4bc00ff">
	<path class="st3" d="M48.4,24.3c2.5-2.1,5.6,0.2,7.9,1.3C68,32.7,79.3,42,84.9,54.8c0.6-0.2,1.7-0.6,2.3-0.8
		c-0.1,1.3,0.5,3.5-1.2,4.1c-3.8,1.9-8.5,2.5-11.2,6.1c-1.1,1.4,0.1,3.1,0.5,4.5c-3.4,1.2-6.1,3.6-7.9,6.7
		c-4.7,4.4-8.5,9.8-11.3,15.6c-1.1,1.7-1.7,4.2-3.8,4.8c-2.2-3.5-3.5-7.5-4.6-11.4c-2.7-9.2-4-18.8-4.4-28.4
		c-0.4-8.7,1.2-17.4,2.9-25.9C46.7,28.2,47,26,48.4,24.3z"/>
	<path class="st3" d="M196.3,24.3c2.2-1.5,5.7-1,6.4,1.9c5.3,17.6,5.3,36.6,0.8,54.4c-1.5,5.5-2.8,11.3-6.5,15.9
		c-3-4.6-5-9.8-8.3-14.2c-1.8-2.5-4.1-4.6-6.1-6.9c-1.8-3.1-4.4-5.6-7.9-6.7c0.4-1.5,1.6-3.2,0.5-4.6c-2.9-3.8-8-4.3-11.9-6.5
		c-0.5-1.2-0.6-2.4-0.4-3.7c0.6,0.2,1.8,0.6,2.3,0.9C171.4,41.3,183.4,31.1,196.3,24.3z"/>
	<path class="st3" d="M144.1,157.2c3.6-2.3,7.2-4.6,11.1-6.2c-3.3,2.6-6.6,5.1-9.7,7.9C145.1,158.3,144.6,157.8,144.1,157.2z"/>
</g>
<g id="_x23_7b5d40ff">
	<path class="st4" d="M82.3,102c4.4-0.9,8.9,1.2,13.1,2.7c3.8,1.9,9.3,4.2,9.1,9.3c0.6,5.2-3.5,9.6-7.9,11.7
		c-5.8,2.3-12.7,1-17.9-2.4c-3.2-2-3.6-6-3.2-9.3C76,109.4,77.4,103.7,82.3,102 M80.7,110.7c-1.1,2.7-0.3,5.8,1.7,7.8
		c1.8-0.1,3.5-0.1,5.2,0c2.5-2.4,3.4-7.4,0.1-9.4C85.5,107.5,82.3,108.7,80.7,110.7 M93.4,114.4c-0.1,1.1-0.1,2.2-0.2,3.3
		c1.2,0,2.3,0,3.5,0c0-1.2,0-2.3,0-3.5C95.6,114.3,94.5,114.4,93.4,114.4z"/>
	<path class="st4" d="M162.4,102.2c3.2-1.1,7-0.4,9,2.4c2.8,4.2,3.6,9.5,2.9,14.4c-0.8,3.6-4.5,5.5-7.7,6.6
		c-5.1,1.7-11.3,2-15.8-1.5c-4.8-3.2-7.8-11-3-15.3C152,105.4,157.1,103.4,162.4,102.2 M162.3,109.2c-3.3,2-2.4,7,0.1,9.4
		c1.8-0.1,3.5-0.1,5.3,0c1.3-1.5,2.4-3.4,2.1-5.5C170.1,109.5,165.1,107.1,162.3,109.2 M153.3,114.2c0,1.2,0,2.3,0,3.5
		c1.2,0,2.3,0,3.5,0c-0.1-1.1-0.1-2.2-0.2-3.3C155.5,114.4,154.4,114.3,153.3,114.2z"/>
	<path class="st4" d="M67.7,175.9c4.8-1.1,10-2.8,15-1.9c0.1,0.5,0.4,1.6,0.5,2.2c-9.3,0.1-18.4,2.1-27.3,4.5
		C59.2,177.7,63.6,177.1,67.7,175.9z"/>
</g>
</svg>
