<?xml version="1.0" encoding="utf-8"?>
<!-- Generator: Adobe Illustrator 26.0.3, SVG Export Plug-In . SVG Version: 6.00 Build 0)  -->
<svg version="1.1" id="Layer_1" xmlns="http://www.w3.org/2000/svg" xmlns:xlink="http://www.w3.org/1999/xlink" x="0px" y="0px"
	 viewBox="0 0 250 250" style="enable-background:new 0 0 250 250;" xml:space="preserve">
<style type="text/css">
	.st0{fill:#CCA758;}
	.st1{fill:#D0B36F;}
	.st2{fill:#BE9543;}
	.st3{fill:#DBBF7F;}
	.st4{fill:#DECDA6;}
	.st5{fill:#E6D8B6;}
	.st6{fill:#D8CFB4;}
	.st7{fill:#AFA075;}
	.st8{fill:#282416;}
	.st9{fill:#736745;}
	.st10{fill:#A0A29C;}
	.st11{fill:#534F3F;}
	.st12{fill:#A5A898;}
	.st13{fill:#DBB76F;}
	.st14{fill:#87774F;}
	.st15{fill:#AFAEA0;}
	.st16{fill:#E8D9AD;}
	.st17{fill:#9E844A;}
	.st18{fill:#352D1B;}
	.st19{fill:#232318;}
	.st20{fill:#B18F4B;}
	.st21{fill:#C8AA60;}
	.st22{fill:#DBC083;}
	.st23{fill:#6F6952;}
	.st24{fill:#CBB578;}
	.st25{fill:#CDBF8A;}
	.st26{fill:#BDA76B;}
	.st27{fill:#D2C89B;}
	.st28{fill:#E6D6A1;}
	.st29{fill:#BDB082;}
	.st30{fill:#83816B;}
	.st31{fill:#F0E5C5;}
	.st32{fill:#605F50;}
	.st33{fill:#20221A;}
	.st34{fill:#0F100C;}
	.st35{fill:#8D886F;}
	.st36{fill:#343428;}
	.st37{fill:#C7B886;}
	.st38{fill:#B1B0A1;}
	.st39{fill:#CED0CC;}
	.st40{fill:#4D4A3C;}
	.st41{fill:#77745F;}
	.st42{fill:#C4BB94;}
	.st43{fill:#B3A372;}
	.st44{fill:#655F4B;}
	.st45{fill:#CBC19B;}
	.st46{fill:#11110A;}
	.st47{fill:#8F8E86;}
	.st48{fill:#DBCFB1;}
	.st49{fill:#C1AE76;}
	.st50{fill:#E2DDC7;}
	.st51{fill:#B9A465;}
</style>
<g id="_x23_cca758ff">
	<path class="st0" d="M98.8,21.8c4.6-4.6,9.2-10.1,15-12.9c1.5,8.5,4.8,16.7,6.1,25.3c-1.7-2.5-2-12.7-6.3-7.5
		c-3.4,6.7-4.6,14.6-6.1,22c-1.4,7.1-9.2,11.5-8.7,19.3c1.1-0.2,2.1-0.4,3.2-0.7c-1.3,2.9-2.3,6-4.2,8.6c-8.3-0.7-10.8,11.7-19,7.8
		l0.2-0.7c0.3-0.4,0.8-1.3,1.1-1.7c2-2.1,3.1-4.7,3.2-7.6l0.3,0.7c0.1,2.1,2.5,1.9,3.9,1.4c8.8-8.4,14.8-19.5,16.9-31.4
		c-2.5-5.6-0.6-13-5.4-17.5C96.4,25.5,97.8,23.5,98.8,21.8z"/>
</g>
<g id="_x23_d0b36fff">
	<path class="st1" d="M90.7,28.8c2.6-2.4,4.7-5.9,8.2-7c-1,1.7-2.4,3.7,0.3,5c4.8,4.5,3,11.9,5.4,17.5c-2.2,11.9-8.1,23-16.9,31.4
		c-1.4,0.6-3.8,0.7-3.9-1.4c2.6-4.3,0.1-15.9-5.8-10.3c-1.1-3.1,2.6-7.7,5.1-4.2c3.7,2.2,2.6,6.6,3.2,10.3
		c8.6-6.1,17.3-17.2,11.9-28.3C97.5,36.3,87.6,35.1,90.7,28.8z"/>
</g>
<g id="_x23_be9543ff">
	<path class="st2" d="M113.7,26.7c4.3-5.2,4.6,4.9,6.3,7.5c1.3,3.5,2.3,7.1,2.9,10.8c0.5,3.4,0.6,7.1,2.1,10.2
		c0.9,1.5,1.3,3.1,1.1,4.8c-6.8,0.6-15-1.2-21.1,1c-1.2,2-1.5,4.5-2.8,6.3c-1.1,0.3-2.1,0.5-3.2,0.7c-0.6-7.8,7.2-12.2,8.7-19.3
		C109.1,41.3,110.3,33.4,113.7,26.7z"/>
</g>
<g id="_x23_dbbf7fff">
	<path class="st3" d="M58.9,56.8c10.5-9.4,20.9-19.3,31.8-28c-3.1,6.3,6.8,7.5,7.4,13.1c5.4,11-3.3,22.2-11.9,28.3
		c-0.6-3.7,0.5-8.1-3.2-10.3c-2.5-3.6-6.2,1.1-5.1,4.2c-1.2,1.3-3.3,0.8-4.9,1.1c0.3-0.5,1-1.6,1.3-2.1C78.8,54.2,52,65.8,58.9,56.8
		z"/>
</g>
<g id="_x23_decda6ff">
	<path class="st4" d="M122.8,44.9c2.8,2,1.7,6.9,2.1,10.2C123.4,52,123.4,48.4,122.8,44.9z"/>
</g>
<g id="_x23_e6d8b6ff">
	<path class="st5" d="M54.9,60.9c-0.1-2.2,2-3.8,4-4.1c-6.9,8.9,19.9-2.7,15.4,6.2C70.5,58.3,61.1,62.2,54.9,60.9z"/>
</g>
<g id="_x23_d8cfb4ff">
	<path class="st6" d="M104.9,61c6.1-2.2,14.3-0.4,21.1-1C121.1,62.5,111.5,60.3,104.9,61z"/>
</g>
<g id="_x23_afa075ff">
	<path class="st7" d="M77.9,64c5.9-5.6,8.4,6,5.8,10.3l-0.3-0.7c-1.4-3.6-4.9-6.6-8.5-7.7c-1,0.2-2,0.6-3,0.9
		c0.3-0.4,0.8-1.3,1.1-1.7C74.7,64.8,76.7,65.4,77.9,64z"/>
</g>
<g id="_x23_282416ff">
	<path class="st8" d="M71.9,66.9c1-0.4,2-0.7,3-0.9c4,4.3,7.5,9.3,5.2,15.3c-0.3,0.4-0.8,1.3-1.1,1.7c-3.2,3.3-7.4,5.7-12.2,5.2
		c-0.2-1.6-0.6-4.8-0.8-6.4c1.1,4.1,4.4,4.9,8,3c-4.3-3.4,0.1-9.8-2.9-12.2c0-1.1-0.1-2.2-0.2-3.3C71.2,68.7,71.7,67.5,71.9,66.9
		 M75,73C73.5,80.2,82.2,71.5,75,73z"/>
</g>
<g id="_x23_736745ff">
	<path class="st9" d="M74.9,65.9c3.6,1.1,7.1,4.1,8.5,7.7c-0.1,2.9-1.2,5.5-3.2,7.6C82.4,75.2,79,70.2,74.9,65.9z"/>
</g>
<g id="_x23_a0a29cff">
	<path class="st10" d="M70.5,72.8c-1.2-0.7-1.2-3.6,0.4-3.5c0.1,1.1,0.2,2.2,0.2,3.3L70.5,72.8z"/>
</g>
<g id="_x23_534f3fff">
	<path class="st11" d="M70.5,72.8l0.7-0.2c3,2.3-1.4,8.8,2.9,12.2c-3.6,1.9-6.9,1-8-3c0.2,1.6,0.6,4.8,0.8,6.4
		c-1.4,0-2.7-0.5-3.4-1.8C65.5,81.7,66.7,76.4,70.5,72.8z"/>
</g>
<g id="_x23_a5a898ff">
	<path class="st12" d="M75,73C82.2,71.5,73.5,80.2,75,73z"/>
</g>
<g id="_x23_dbb76fff">
	<path class="st13" d="M78.9,83.7c8.2,3.9,10.7-8.5,19-7.8c-1.5,6-4.7,11.8-8,17c-5,4.2-10.9,8.2-18,7.1c-5.1-2.3,8.6-10.4,0-10.1
		C74.8,88.5,77.2,86.3,78.9,83.7z"/>
</g>
<g id="_x23_87774fff">
	<path class="st14" d="M66.9,88.2c4.8,0.5,9-2,12.2-5.2l-0.2,0.7c-1.7,2.7-4.1,4.8-6.9,6.3c-3.7,2.7-10.5,3.3-9.2-3.1
		c0.2-0.1,0.5-0.3,0.7-0.4C64.1,87.7,65.5,88.2,66.9,88.2z"/>
</g>
<g id="_x23_afaea0ff">
	<path class="st15" d="M132.3,84.1c5.6-2.5,17.9-0.5,25.9-0.9l-0.4,0.9c-3.1,1.2-16.1-3.2-10.7,2.9c-2.9,1.3-6.9-0.8-7.2,4
		c-1.7,2.2-2.1,6.7-5.6,6.1c-1.4-1.3-1.2-3.3-1.5-5.1c0.7-4.6,12.4-10.1,0.6-7.8L132.3,84.1z"/>
</g>
<g id="_x23_e8d9adff">
	<path class="st16" d="M158.2,83.1c22.6-0.3,45.2-0.1,67.8-0.1c1.8-1.2,1.2,4.7,0.3,2.4C209.2,82.1,190,85,172.1,84
		c-4.8,0-9.6,0-14.4,0L158.2,83.1z"/>
</g>
<g id="_x23_9e844aff">
	<path class="st17" d="M117.1,100.9c3.1-7.3,4.6-20.1,15.2-16.8l1.1,0.1c-3.2,2.9-8.1,4.1-10.1,8.1c0.1,5.3,3.6,9.6,8.7,10.8
		c-3,0-5.8-1-8.7-1.9c-1.2,2.3-2.7,5.4-5.9,4.8C117.2,104.3,117.2,102.6,117.1,100.9z"/>
</g>
<g id="_x23_352d1bff">
	<path class="st18" d="M133.3,84.2c11.8-2.3,0.1,3.2-0.6,7.8c-2.4,5.2,3,8.2,5.3,11.9c-2-0.3-4-0.6-6-0.8c-5.1-1.2-8.6-5.5-8.7-10.8
		C125.2,88.3,130.2,87.1,133.3,84.2z"/>
</g>
<g id="_x23_232318ff">
	<path class="st19" d="M147.1,86.9c-5.4-6.1,7.6-1.6,10.7-2.9c2.2,2.6,5.3,4.6,6.6,7.9c-1.6,2.1-3.6,4.8-6.1,2.4
		c-3.4,6.1-9.9,9.1-16.8,7.4c-2.3-3.2-2.6-7.1-1.6-10.8C140.2,86.1,144.1,88.2,147.1,86.9z"/>
</g>
<g id="_x23_b18f4bff">
	<path class="st20" d="M157.8,84c4.8,0,9.6-0.1,14.4,0c0.1,3.9-0.9,12-7,9.9c-0.2-0.5-0.6-1.5-0.8-2C163,88.7,160,86.6,157.8,84z"/>
</g>
<g id="_x23_c8aa60ff">
	<path class="st21" d="M172.1,84c17.9,1,37.1-1.9,54.1,1.4c-3,3.4-3.3,8.2-6.2,11.6c-4.1,6.2-10.7-0.1-16.1-0.5
		c-4.6-0.1-9.8,1.5-13.6-2c-9.6,1-19.1,2.2-28.6,2.3c1.1-1,2.2-2,3.3-3C171.2,95.9,172.2,87.8,172.1,84z"/>
</g>
<g id="_x23_dbc083ff">
	<path class="st22" d="M55.8,102.9c2.5-5.3,4.4-10.9,7-16.1c-1.3,6.4,5.5,5.8,9.2,3.1c8.6-0.3-5,7.8,0,10.1c7,1.1,12.9-2.9,18-7.1
		c-1.4,5.7-4.6,10.8-6.7,16.2c-0.1-3.5-4.2-1.4-6.3-1.1c-5.1,2-10.5,1.3-15.9,1c0.2-1.5,0.6-4.6,0.8-6.1
		C59.9,102.6,55.7,106.5,55.8,102.9z"/>
</g>
<g id="_x23_6f6952ff">
	<path class="st23" d="M134.2,97c3.6,0.6,3.9-3.9,5.6-6.1c-1.1,3.8-0.7,7.6,1.6,10.8c7,1.7,13.4-1.3,16.8-7.4
		c2.5,2.3,4.5-0.3,6.1-2.4c0.2,0.5,0.6,1.5,0.8,2c-1.2,0.9-2.3,1.9-3.3,3c-3.2,3-6.2,6.2-10.4,7.6c-6.3,2-13.7,2.6-19.4-1.4
		c2,0.2,4,0.5,6,0.8c-2.3-3.8-7.7-6.7-5.3-11.9C133,93.7,132.8,95.7,134.2,97z"/>
</g>
<g id="_x23_cbb578ff">
	<path class="st24" d="M161.8,96.8c9.6-0.1,19.1-1.2,28.6-2.3c3.8,3.5,8.9,1.8,13.6,2c5.4,0.4,12,6.7,16.1,0.5
		c-0.5,1.8-1.2,3.5-2.1,5.2c-12.1,1.3-24.5,0.5-36.2-3.1c-9.2-2.3-12.5,7.1-18,11.8c-7,0.1-14,0.1-21,0c4.6,0.5,7-3,8.6-6.5
		C155.6,103,158.7,99.8,161.8,96.8z"/>
</g>
<g id="_x23_cdbf8aff">
	<path class="st25" d="M163.8,111c5.5-4.7,8.9-14.2,18-11.8c11.6,3.5,24.1,4.4,36.2,3.1c-1.9,5.9-5.1,11.5-8.1,16.8
		c-7.3,0.3-16.4,0.9-21.6-5c1.7-2.8,3.9-5.5,4.8-8.7c-5.9,1.8-9.4-5.3-14.9-4.2c-3.2,3.1-5.4,7.3-9.4,9.8
		C167.2,111,165.5,111,163.8,111z"/>
</g>
<g id="_x23_bda76bff">
	<path class="st26" d="M111.9,111c1.6-3.4,2.4-7.5,5.2-10.1c0.1,1.7,0.2,3.4,0.3,5.1c3.2,0.5,4.7-2.5,5.9-4.8
		c2.8,0.9,5.7,1.9,8.7,1.9c5.7,3.9,13.1,3.4,19.4,1.4c-1.6,3.5-4,6.9-8.6,6.5C132.5,111.1,122.2,111,111.9,111z"/>
</g>
<g id="_x23_d2c89bff">
	<path class="st27" d="M178.3,101.2c5.5-1.1,8.9,6,14.9,4.2c-0.9,3.2-3.1,5.9-4.8,8.7c5.2,5.9,14.3,5.3,21.6,5
		c-0.9,4.6-5.1,10.9-5.6,13.5c-0.6-1.3-2-3.8-3.2-1.5c-2.8,5.1-10.1,3.1-12.6,8.5c-3.8,6.3-16.3-1.6-15.8,7.1
		c-1.8,0.7-3.7,1.1-5.6,1.6c4.4-11.8,10.8-22.8,15.7-34.3c1.8-5.1-4.8-2.4-7.9-2.9c-2,0-4.1,0-6.1-0.1
		C172.9,108.4,175,104.3,178.3,101.2z"/>
</g>
<g id="_x23_e6d6a1ff">
	<path class="st28" d="M53,111.1c0-2.9,1.4-5.6,2.7-8.2c0,3.6,4.1-0.4,6.2-0.1c-0.2,1.5-0.6,4.6-0.8,6.1c-1.1,0.2-2.2,0.5-3.3,0.8
		C56.2,110.2,54.6,110.7,53,111.1z"/>
</g>
<g id="_x23_bdb082ff">
	<path class="st29" d="M77,108c2.1-0.3,6.2-2.5,6.3,1.1c-1.2,3-2.5,6.1-4,9c0.1-3.4-3.4-4.5-6-5.5c-4.9-1.9-10.4-1.9-15.5-2.8
		c1.1-0.3,2.2-0.6,3.3-0.8C66.4,109.3,71.9,110,77,108z"/>
</g>
<g id="_x23_83816bff">
	<path class="st30" d="M53,111.1c1.6-0.4,3.2-0.9,4.8-1.3c5.2,0.8,10.6,0.9,15.5,2.8c-2.5-0.1-5.6-1.1-7.3,1.5
		c-4.4,3.6-10.8,0.2-16,1.9C51,114.4,51.3,111.8,53,111.1z"/>
</g>
<g id="_x23_f0e5c5ff">
	<path class="st31" d="M111.9,111c10.3,0.1,20.6,0.1,31-0.1c7,0.1,14,0.1,21,0c1.7,0,3.4,0,5,0c2,0,4.1,0,6.1,0.1
		c-19.1,2.3-42.3,0.5-62.9,0.9L111.9,111z"/>
</g>
<g id="_x23_605f50ff">
	<path class="st32" d="M66,114.1c1.7-2.5,4.7-1.6,7.3-1.5c2.6,1,6.1,2.1,6,5.5c-0.3,0.4-0.9,1.3-1.2,1.8c0.8-5.3-5.5-1.4-8.5-1.3
		c-6.8-0.1-13.9-3.4-20.6-0.7c0.3-0.5,0.8-1.5,1-1.9C55.2,114.3,61.6,117.6,66,114.1z"/>
</g>
<g id="_x23_20221aff">
	<path class="st33" d="M49,117.9c6.7-2.7,13.8,0.5,20.6,0.7c2.9-0.1,9.2-4,8.5,1.3c-1,2.8-2.1,5.6-3.7,8.2
		c-0.1-5.9-9.7-10.1-12.8-4.4c-3.4,6.8,5.3,8.7,9.9,10.1l0.6,0.1c3.1,0.6,8.5,0.3,6.6,4.7c-2.7,1.3-5.4,2.5-7.8,4.2
		c-4.7,1.4-8.6,5-13.7,4.9c-6-5.3-5.5-13.8-3.1-20.7c-2,1.3-4,2.7-6.3,3.3c-2-1.5-2-4.1-1.9-6.4C46.9,121.9,47.9,119.9,49,117.9z"/>
</g>
<g id="_x23_0f100cff">
	<path class="st34" d="M61.6,123.7c3-5.7,12.7-1.4,12.8,4.4c-0.5,1.4-1.2,2.8-1.8,4.1c-0.2,0.4-0.7,1.2-1,1.6
		C66.9,132.4,58.2,130.5,61.6,123.7z"/>
</g>
<g id="_x23_8d886fff">
	<path class="st35" d="M43,131.9c1.1-2.5,1.3-6.2,3-7.8c0,2.3-0.1,4.8,1.9,6.4c0.3,0.4,0.8,1.1,1.1,1.4c-6.9-3.2-5.1,2.4-4,5.1
		c1.4,6.6-6.2,16.7,1.1,21c-0.5,1-0.9,2.1-1.4,3.1c-0.5-3.3-4.5-2.6-5.5-5.4c-1.4-4-0.1-8.4-1.1-12.4
		C44.4,143.1,42.9,136.3,43,131.9z"/>
</g>
<g id="_x23_343428ff">
	<path class="st36" d="M47.9,130.4c2.3-0.6,4.3-2,6.3-3.3c-2.4,6.9-2.9,15.4,3.1,20.7c5.1,0,9-3.5,13.7-4.9c1,3.3,0.5,6.8-0.1,10.2
		c-3.1,0.9-4.8-1.6-6.3-3.7c-2.8-1.1-5,1.4-7.4,2.4c-3.1-4.2-6.2-8.6-10.1-12.1c-0.7-0.9-1.3-1.8-2-2.6c-1.1-2.7-2.9-8.3,4-5.1
		C48.7,131.5,48.2,130.8,47.9,130.4z"/>
</g>
<g id="_x23_c7b886ff">
	<path class="st37" d="M201.1,131.1c1.2-2.3,2.6,0.2,3.2,1.5c-7.8,16.3-14.7,33.1-22.7,49.4c-0.8,2.4-2.8,6.6,4.3,3
		c4.7,0.2,9.6-0.4,14.3,0.6c-11.7,10.1-23,20.6-34.9,30.4c-0.2-5.8-5.1-3.9-4.8,0.9c-4.7,0.1-9.7-3.3-14.1-0.5
		c-3.3,2.4-8.2-5-2.8-4.9c0.1-3.1-0.6-6.2-0.7-9.2c8.6,2.7,2.7-5.2,7.2-6.9c5.7-1.2,12.6-1.6,14.6-8.1c-5.4-1.3-5-13.6-12-7.4
		c4.3-10.6,9.1-21.4,14.3-31.6c1.9-0.5,3.8-1,5.6-1.6c-0.5-8.7,12-0.8,15.8-7.1C191,134.1,198.3,136.2,201.1,131.1z"/>
</g>
<g id="_x23_b1b0a1ff">
	<path class="st38" d="M38.1,143.2c0.6-4,2.2-8.5,4.9-11.4C42.9,136.3,44.4,143.1,38.1,143.2z"/>
</g>
<g id="_x23_ced0ccff">
	<path class="st39" d="M71.5,133.7c0.2-0.4,0.7-1.2,1-1.6c3,1.7,11.5-1,12.3,1.9c-1.7,0.1-3.3,0.1-5,0.2c-2.5-0.1-5.1-0.2-7.6-0.4
		L71.5,133.7z"/>
</g>
<g id="_x23_4d4a3cff">
	<path class="st40" d="M72.2,133.9c2.5,0.2,5.1,0.3,7.6,0.4c2,0.6,5.3,0.5,4.1,3.5c-5.1,2.4-5.5,8.3-9.6,11.9
		c5.6,0.1,4.8,7.3,5.9,11.4c-2.7,0-5.3-0.1-7.9-0.1c-6.8-2-12.9-7.6-20.3-4c-3.2-0.4-1.7,3.4,0.2,4.1c-1.8,0-5.5,0-7.3,0.1
		c0.4-1,0.9-2.1,1.4-3.1c1.8-5.1,8,0.1,10.7-3.2c0.9-3.4-4.9-2-5.9-4.7c-1.4-3.4-4-6.7-3.9-10.5c3.9,3.5,7,7.9,10.1,12.1
		c2.4-1,4.7-3.5,7.4-2.4c1.5,2.2,3.2,4.7,6.3,3.7c0.6-3.4,1.1-6.8,0.1-10.2c2.4-1.8,5.1-3,7.8-4.2C80.6,134.2,75.2,134.4,72.2,133.9
		z"/>
</g>
<g id="_x23_77745fff">
	<path class="st41" d="M79.8,134.2c1.7-0.1,3.3-0.1,5-0.2c0.3,0.2,0.9,0.7,1.2,0.9c1.2,5.6-5.3,8.3-4.6,13.6c6.6-0.2-3.4,9.3,3.3,7
		c4.4-1.8,1.3,3.5,0.4,5.4c-1.3,0-2.6,0-3.9,0l-1,0c-1-4-0.3-11.2-5.9-11.4c4-3.6,4.5-9.5,9.6-11.9C85,134.8,81.8,134.8,79.8,134.2z
		"/>
</g>
<g id="_x23_c4bb94ff">
	<path class="st42" d="M84.8,134c19.4,0,38.8-0.1,58.2,0.1c-1.4,8.8-7.3,16.8-10.7,25c0.4-4.3-4.4-4.5-7.1-6.3
		c-4.1-4.4-6.3-11-3.3-16.6c-3.5,0.2-7.4-1.7-10.8,0c-2.2,1.3-6.5-1.4-5.1,2.7c2.9-0.4,9.1-0.9,7.8,3.9c-3,5.5-8.9,3.8-13.8,3.6
		c-5.3,0.3-9.8,5.9-15,1.6c1.9-3.7,4.7-10,0.9-13C85.6,134.7,85.1,134.2,84.8,134z"/>
</g>
<g id="_x23_b3a372ff">
	<path class="st43" d="M85.9,134.9c3.8,3,1.1,9.4-0.9,13c5.2,4.3,9.7-1.3,15-1.6c4.9,0.2,10.9,1.9,13.8-3.6c1.3-4.8-4.9-4.3-7.8-3.9
		c-1.4-4.2,3-1.5,5.1-2.7c3.4-1.7,7.3,0.2,10.8,0c-3.1,5.6-0.8,12.2,3.3,16.6c2.6,1.9,7.5,2.1,7.1,6.3c-0.3,0.5-1,1.4-1.3,1.9
		c-15.3,0-30.7,0-46,0c0.9-2,4-7.2-0.4-5.4c-6.7,2.3,3.2-7.2-3.3-7C80.7,143.2,87.1,140.5,85.9,134.9z"/>
</g>
<g id="_x23_655f4bff">
	<path class="st44" d="M45,137c0.7,0.9,1.3,1.8,2,2.6c-0.2,3.8,2.5,7.1,3.9,10.5c1,2.7,6.9,1.3,5.9,4.7c-2.7,3.3-8.9-1.9-10.7,3.2
		C38.8,153.7,46.4,143.6,45,137z"/>
</g>
<g id="_x23_cbc19bff">
	<path class="st45" d="M28.8,161.9c3.6-5.8,5.2-14.1,9.3-18.7c1.1,4.1-0.3,8.4,1.1,12.4c1,2.8,5,2.1,5.5,5.4l0.4,0.8
		C39.7,162.1,34.3,162.1,28.8,161.9z"/>
</g>
<g id="_x23_11110aff">
	<path class="st46" d="M51.9,156.9c7.4-3.7,13.5,2,20.3,4c-6.7,0.1-13.4,0.2-20.1,0.2C50.2,160.2,48.7,156.4,51.9,156.9z"/>
</g>
<g id="_x23_8f8e86ff">
	<path class="st47" d="M44.8,161.1c1.8,0,5.5,0,7.3-0.1c6.7,0.1,13.4-0.1,20.1-0.2c2.7,0.1,5.3,0.1,7.9,0.1l1,0l-0.2,0.9
		c-11.9,0-23.9,0.3-35.8-0.1L44.8,161.1z"/>
</g>
<g id="_x23_dbcfb1ff">
	<path class="st48" d="M81.1,161c1.3,0,2.6,0,3.9,0c15.3,0,30.7,0,46,0c-14.8,2.2-33.6,0.6-50.1,0.9L81.1,161z"/>
</g>
<g id="_x23_c1ae76ff">
	<path class="st49" d="M152.9,179.9c7.1-6.2,6.6,6.1,12,7.4c-1.9,6.6-8.9,6.9-14.6,8.1c-4.6,1.7,1.4,9.6-7.2,6.9
		c0,3.1,0.7,6.1,0.7,9.2c-5.5-0.1-0.5,7.3,2.8,4.9c4.4-2.8,9.4,0.5,14.1,0.5c-0.3-4.9,4.6-6.7,4.8-0.9c-2,3-5.4,4.7-8.1,7
		c0.6-4.8-5.5-1.5-8.2-3.9c-3.5,2.6-6.6,0.4-9.9-1.2c-0.1,1.8-0.2,3.5-0.2,5.3c-4.4-12.1-6.6-25.5-10-38.1
		C136.7,183,149.6,190,152.9,179.9z"/>
</g>
<g id="_x23_e2ddc7ff">
	<path class="st50" d="M186,184.9c-7,3.6-5.1-0.7-4.3-3c1.8,5.7,19.9-1,18.6,3.6C195.6,184.5,190.7,185.2,186,184.9z"/>
</g>
<g id="_x23_b9a465ff">
	<path class="st51" d="M139.1,217.9c3.3,1.6,6.4,3.8,9.9,1.2c2.7,2.4,8.8-0.9,8.2,3.9c-5,4.2-9.5,11.5-15.9,13
		c-0.8-4.3-2.5-8.4-2.4-12.8C138.9,221.4,139,219.6,139.1,217.9z"/>
</g>
</svg>
