<?xml version="1.0" encoding="UTF-8" ?>
<!DOCTYPE svg PUBLIC "-//W3C//DTD SVG 1.1//EN" "http://www.w3.org/Graphics/SVG/1.1/DTD/svg11.dtd">
<svg width="250pt" height="200pt" viewBox="0 0 250 200" version="1.1" xmlns="http://www.w3.org/2000/svg">
<g id="#feffffff">
<path fill="#feffff" opacity="1.00" d=" M 0.00 0.00 L 250.00 0.00 L 250.00 200.00 L 0.00 200.00 L 0.00 0.00 M 75.67 9.51 C 71.46 15.55 72.72 23.09 72.62 29.99 C 72.73 38.68 72.42 47.38 72.69 56.06 C 72.65 60.07 75.61 64.58 79.97 64.46 C 125.30 64.53 170.63 64.41 215.96 64.52 C 220.13 64.37 224.92 65.30 228.45 62.49 C 231.43 60.32 231.35 56.26 231.44 52.95 C 231.38 42.64 231.35 32.33 231.45 22.02 C 231.35 18.29 231.43 14.11 229.04 11.00 C 227.23 9.19 224.37 9.53 222.02 9.35 C 173.24 9.52 124.45 9.21 75.67 9.51 M 15.04 79.08 C 12.42 81.62 12.67 85.61 12.59 88.97 C 12.78 99.65 12.51 110.32 12.69 120.99 C 13.01 123.98 13.10 127.76 15.73 129.72 C 19.88 131.63 24.61 131.25 29.07 131.35 C 40.76 131.07 52.50 131.97 64.12 130.31 C 67.37 125.84 66.42 120.14 66.49 114.96 C 66.44 103.41 66.52 91.85 66.43 80.29 C 63.63 78.42 60.55 76.71 57.09 76.74 C 47.07 76.50 37.05 76.84 27.03 76.62 C 22.98 76.66 18.41 76.42 15.04 79.08 M 77.44 77.51 C 76.12 78.90 74.80 80.29 73.49 81.68 C 73.58 92.11 73.54 102.55 73.54 112.98 C 73.62 118.93 72.41 125.56 76.49 130.56 C 112.48 130.48 148.48 130.76 184.47 130.42 C 186.21 126.87 187.46 123.04 187.35 119.05 C 187.34 109.02 187.23 98.99 187.37 88.97 C 187.33 85.84 187.62 82.21 185.12 79.86 C 183.72 77.93 181.34 77.37 179.08 77.47 C 145.20 77.56 111.32 77.50 77.44 77.51 M 76.50 147.29 C 76.15 163.09 76.14 178.91 76.51 194.71 C 92.19 194.59 107.87 194.77 123.55 194.61 C 123.83 178.83 123.84 163.05 123.55 147.28 C 107.86 147.32 92.18 147.30 76.50 147.29 Z" />
</g>
<g id="#afecf4ff">
<path fill="#afecf4" opacity="1.00" d=" M 75.67 9.51 C 124.45 9.21 173.24 9.52 222.02 9.35 C 224.37 9.53 227.23 9.19 229.04 11.00 C 231.43 14.11 231.35 18.29 231.45 22.02 C 231.35 32.33 231.38 42.64 231.44 52.95 C 231.35 56.26 231.43 60.32 228.45 62.49 C 224.92 65.30 220.13 64.37 215.96 64.52 C 170.63 64.41 125.30 64.53 79.97 64.46 C 75.61 64.58 72.65 60.07 72.69 56.06 C 72.42 47.38 72.73 38.68 72.62 29.99 C 72.72 23.09 71.46 15.55 75.67 9.51 M 79.33 12.38 C 76.66 12.85 75.08 15.39 75.31 17.99 C 75.19 29.99 75.37 42.00 75.24 54.01 C 75.36 56.26 75.01 59.39 77.60 60.41 C 81.85 62.01 86.53 61.28 90.97 61.41 C 132.31 61.40 173.64 61.34 214.98 61.44 C 219.43 61.36 224.86 62.10 228.21 58.50 C 229.09 49.06 228.29 39.52 228.56 30.04 C 228.40 25.34 229.10 20.53 228.15 15.89 C 226.56 12.56 222.43 11.57 219.04 11.62 C 210.03 11.68 201.01 11.47 192.01 12.04 C 180.00 11.63 167.98 12.20 155.97 11.62 C 148.97 11.27 142.00 12.51 135.01 11.97 C 122.38 10.90 109.71 12.75 97.07 11.80 C 91.17 11.63 85.14 11.12 79.33 12.38 Z" />
<path fill="#afecf4" opacity="1.00" d=" M 15.04 79.08 C 18.41 76.42 22.98 76.66 27.03 76.62 C 37.05 76.84 47.07 76.50 57.09 76.74 C 60.55 76.71 63.63 78.42 66.43 80.29 C 66.52 91.85 66.44 103.41 66.49 114.96 C 66.42 120.14 67.37 125.84 64.12 130.31 C 52.50 131.97 40.76 131.07 29.07 131.35 C 24.61 131.25 19.88 131.63 15.73 129.72 C 13.10 127.76 13.01 123.98 12.69 120.99 C 12.51 110.32 12.78 99.65 12.59 88.97 C 12.67 85.61 12.42 81.62 15.04 79.08 M 16.75 81.50 C 15.03 90.90 16.02 100.47 15.73 109.96 C 15.56 115.83 15.72 121.88 18.23 127.31 C 30.14 127.44 42.06 127.28 53.97 127.43 C 57.34 127.68 60.48 126.39 63.35 124.78 C 63.41 110.60 63.40 96.43 63.36 82.26 C 56.22 79.47 48.47 80.99 41.02 80.65 C 32.93 80.97 24.73 79.80 16.75 81.50 Z" />
<path fill="#afecf4" opacity="1.00" d=" M 77.44 77.51 C 111.32 77.50 145.20 77.56 179.08 77.47 C 181.34 77.37 183.72 77.93 185.12 79.86 C 187.62 82.21 187.33 85.84 187.37 88.97 C 187.23 98.99 187.34 109.02 187.35 119.05 C 187.46 123.04 186.21 126.87 184.47 130.42 C 148.48 130.76 112.48 130.48 76.49 130.56 C 72.41 125.56 73.62 118.93 73.54 112.98 C 73.54 102.55 73.58 92.11 73.49 81.68 C 74.80 80.29 76.12 78.90 77.44 77.51 M 77.48 81.60 C 75.18 91.64 77.87 101.89 76.68 112.01 C 76.49 115.66 76.22 119.39 76.98 123.00 C 77.33 124.41 78.25 126.00 79.80 126.27 C 84.17 126.92 88.61 126.47 93.00 126.53 C 122.50 126.57 151.99 126.46 181.49 126.59 C 182.52 124.54 183.63 122.41 183.51 120.03 C 183.49 107.47 183.38 94.91 183.53 82.35 C 177.48 80.67 171.18 81.53 165.00 81.39 C 157.34 81.61 149.68 80.92 142.02 81.29 C 134.69 81.70 127.36 80.82 120.02 81.26 C 109.02 80.73 98.01 82.04 87.03 81.05 C 83.83 80.71 80.64 81.12 77.48 81.60 Z" />
<path fill="#afecf4" opacity="1.00" d=" M 76.50 147.29 C 92.18 147.30 107.86 147.32 123.55 147.28 C 123.84 163.05 123.83 178.83 123.55 194.61 C 107.87 194.77 92.19 194.59 76.51 194.71 C 76.14 178.91 76.15 163.09 76.50 147.29 Z" />
</g>
<g id="#60cadeff">
<path fill="#60cade" opacity="1.00" d=" M 79.33 12.38 C 85.14 11.12 91.17 11.63 97.07 11.80 C 109.71 12.75 122.38 10.90 135.01 11.97 C 142.00 12.51 148.97 11.27 155.97 11.62 C 167.98 12.20 180.00 11.63 192.01 12.04 C 201.01 11.47 210.03 11.68 219.04 11.62 C 222.43 11.57 226.56 12.56 228.15 15.89 C 229.10 20.53 228.40 25.34 228.56 30.04 C 228.29 39.52 229.09 49.06 228.21 58.50 C 224.86 62.10 219.43 61.36 214.98 61.44 C 173.64 61.34 132.31 61.40 90.97 61.41 C 86.53 61.28 81.85 62.01 77.60 60.41 C 75.01 59.39 75.36 56.26 75.24 54.01 C 75.37 42.00 75.19 29.99 75.31 17.99 C 75.08 15.39 76.66 12.85 79.33 12.38 M 77.51 16.73 C 77.58 30.34 77.57 43.95 77.53 57.56 C 82.24 58.92 87.18 58.64 92.02 58.57 C 135.87 58.53 179.71 58.61 223.56 58.53 C 224.18 57.88 224.80 57.23 225.42 56.58 C 225.46 43.35 225.34 30.13 225.49 16.90 C 223.15 15.74 220.69 14.61 218.01 14.69 C 175.02 14.74 132.02 14.74 89.02 14.69 C 85.09 14.67 81.23 15.53 77.51 16.73 Z" />
<path fill="#60cade" opacity="1.00" d=" M 16.75 81.50 C 24.73 79.80 32.93 80.97 41.02 80.65 C 48.47 80.99 56.22 79.47 63.36 82.26 C 63.40 96.43 63.41 110.60 63.35 124.78 C 60.48 126.39 57.34 127.68 53.97 127.43 C 42.06 127.28 30.14 127.44 18.23 127.31 C 15.72 121.88 15.56 115.83 15.73 109.96 C 16.02 100.47 15.03 90.90 16.75 81.50 Z" />
<path fill="#60cade" opacity="1.00" d=" M 77.48 81.60 C 80.64 81.12 83.83 80.71 87.03 81.05 C 98.01 82.04 109.02 80.73 120.02 81.26 C 127.36 80.82 134.69 81.70 142.02 81.29 C 149.68 80.92 157.34 81.61 165.00 81.39 C 171.18 81.53 177.48 80.67 183.53 82.35 C 183.38 94.91 183.49 107.47 183.51 120.03 C 183.63 122.41 182.52 124.54 181.49 126.59 C 151.99 126.46 122.50 126.57 93.00 126.53 C 88.61 126.47 84.17 126.92 79.80 126.27 C 78.25 126.00 77.33 124.41 76.98 123.00 C 76.22 119.39 76.49 115.66 76.68 112.01 C 77.87 101.89 75.18 91.64 77.48 81.60 Z" />
</g>
<g id="#02a5c2ff">
<path fill="#02a5c2" opacity="1.00" d=" M 77.51 16.73 C 81.23 15.53 85.09 14.67 89.02 14.69 C 132.02 14.74 175.02 14.74 218.01 14.69 C 220.69 14.61 223.15 15.74 225.49 16.90 C 225.34 30.13 225.46 43.35 225.42 56.58 C 224.80 57.23 224.18 57.88 223.56 58.53 C 179.71 58.61 135.87 58.53 92.02 58.57 C 87.18 58.64 82.24 58.92 77.53 57.56 C 77.57 43.95 77.58 30.34 77.51 16.73 Z" />
</g>
</svg>
