<?xml version="1.0" encoding="utf-8"?>
<!-- Generator: Adobe Illustrator 26.0.3, SVG Export Plug-In . SVG Version: 6.00 Build 0)  -->
<svg version="1.1" id="Layer_1" xmlns="http://www.w3.org/2000/svg" xmlns:xlink="http://www.w3.org/1999/xlink" x="0px" y="0px"
	 viewBox="0 0 250 200" style="enable-background:new 0 0 250 200;" xml:space="preserve">
<style type="text/css">
	.st0{fill:#AFECF4;}
	.st1{fill:#60CADE;}
	.st2{fill:#02A5C2;}
</style>
<g id="_x23_afecf4ff">
	<path class="st0" d="M78.3,9.5c47.9-0.2,95.8,0,143.7-0.1c2.5,0.2,5.7-0.1,7.4,2.1c2.5,4,2,9,2,13.5c-0.3,10.7,0.3,21.4-0.2,32.1
		c-0.1,4.6-4.8,7.7-9.1,7.4c-47,0-94.1-0.1-141.1,0c-2,0-4.2-0.3-5.6-2c-2.9-2.7-2.8-6.9-2.8-10.6c0.2-11.4-0.1-22.7,0.1-34
		C72.9,14.6,74,9.4,78.3,9.5 M77.9,12.9c-2.8,1.2-2.6,4.5-2.7,7c0.1,11.4,0.1,22.7,0,34c0.1,2.2-0.2,5.4,2.3,6.4
		c3.9,1.5,8.3,0.9,12.4,1c43.3,0,86.7,0,130,0c3,0,5.7-1.2,8.4-2.3c0.4-13.4,0.1-26.8,0.2-40.2c0.4-3.8-3.1-6.6-6.5-7
		c-9-1-18,0.7-27,0c-9-0.2-18,0.3-27-0.2c-6.7-0.3-13.4,0.2-20,0.5c-6.7-0.4-13.3-0.9-20-0.4c-11.7,0.8-23.3-0.7-34.9,0.1
		C88,12.4,82.7,10.7,77.9,12.9z"/>
	<path class="st0" d="M15,79c2.7-2.4,6.6-2.3,10.1-2.4c10.7,0.2,21.4-0.1,32.1,0.1c3.5-0.1,6.6,1.7,9.3,3.6
		c-0.1,15.2,0.3,30.5-0.2,45.8c-0.2,4.7-5.7,4.9-9.3,5.2c-10.4,0.3-20.7-0.1-31.1,0.1c-3.7-0.2-8,0.1-11.2-2.2
		c-2-2.9-2-6.7-2.1-10.1c0-10.4,0.1-20.8,0-31.2C12.6,84.9,12.6,81.3,15,79 M15.7,88c0.1,9.7,0.1,19.4,0,29.1
		c-0.1,3.6,1,7.1,2.4,10.3c12.6,0,25.3,0,37.9,0.1c2.7,0.2,5.1-1.2,7.3-2.4c0.1-14.3,0-28.7,0-43c-2.7-0.8-5.5-1.4-8.4-1.3
		c-12.4,0.1-24.7,0.1-37.1,0C16.6,82.8,15.6,85.3,15.7,88z"/>
	<path class="st0" d="M75.4,79.4c1.3-1.7,3.6-2,5.6-1.9c33,0.1,66,0,99,0c4.3-0.1,7.8,4.3,7.3,8.5c0,11.3-0.1,22.7,0,34
		c0.2,3.7-1,7.2-2.6,10.4c-34.3,0.3-68.5,0-102.8,0.2c-2.1-0.2-4.7,0.4-6.2-1.4c-2.1-2.2-2.2-5.4-2.3-8.2c0.1-11.3,0.1-22.7,0-34
		C73.5,84.4,73.2,81.3,75.4,79.4 M77.9,82c-1.5,1.6-1.2,4-1.4,6c0,7.7,0.1,15.3,0,23c0.1,4.2-0.6,8.6,0.6,12.7
		c0.7,2.5,3.6,2.9,5.8,2.8c28.3-0.1,56.6,0,85,0c4.3-0.1,8.7,0.4,13-0.4c2.2-1.2,2.6-3.9,2.6-6.2c-0.1-10-0.1-20,0-30
		c0.1-2.9-0.4-5.8-0.9-8.6c-26.9,0.1-53.7-0.5-80.6,0C94,81.9,85.7,79.1,77.9,82z"/>
	<path class="st0" d="M76.3,148c7.8-1.4,15.8-0.4,23.7-0.7c7.9,0.2,15.9-0.6,23.7,0.6c0.1,15.4-0.1,30.8,0.1,46.1
		c-7.9,1.3-15.9,0.4-23.8,0.6c-7.9-0.2-15.9,0.6-23.7-0.6C76.3,178.7,76.2,163.4,76.3,148z"/>
</g>
<g id="_x23_60cadeff">
	<path class="st1" d="M77.9,12.9c4.7-2.2,10.1-0.6,15.1-1c11.7-0.9,23.3,0.7,34.9-0.1c6.7-0.5,13.3,0,20,0.4
		c6.7-0.3,13.3-0.8,20-0.5c9,0.5,18,0,27,0.2c9,0.6,18-1.1,27,0c3.4,0.5,7,3.3,6.5,7c-0.1,13.4,0.2,26.8-0.2,40.2
		c-2.7,1.1-5.4,2.3-8.4,2.3c-43.3,0-86.7,0-130,0c-4.1-0.1-8.5,0.5-12.4-1c-2.6-1-2.2-4.1-2.3-6.4c0.1-11.4,0.1-22.7,0-34
		C75.3,17.5,75.1,14.1,77.9,12.9 M77.5,16.8c0.1,13.3,0,26.6,0.1,39.8c0.7,0.6,1.3,1.2,2,1.8c48,0.2,96,0.1,144.1,0
		c0.6-0.6,1.2-1.3,1.8-1.9c0.1-13.2-0.1-26.4,0.1-39.6c-4.2-3.2-9.6-2.2-14.5-2.3c-38.3,0-76.6,0-114.9,0
		C89.8,14.8,83.2,13.9,77.5,16.8z"/>
	<path class="st1" d="M15.7,88c-0.2-2.7,0.8-5.1,2.2-7.3c12.4,0.1,24.7,0.1,37.1,0c2.8,0,5.6,0.6,8.4,1.3c0,14.3,0,28.7,0,43
		c-2.3,1.3-4.6,2.6-7.3,2.4c-12.6-0.1-25.3,0-37.9-0.1c-1.4-3.3-2.5-6.7-2.4-10.3C15.8,107.3,15.8,97.7,15.7,88z"/>
	<path class="st1" d="M77.9,82c7.8-2.9,16.1-0.1,24.1-0.6c26.9-0.5,53.7,0.1,80.6,0c0.5,2.8,1,5.7,0.9,8.6c-0.2,10-0.1,20,0,30
		c0.1,2.3-0.3,5-2.6,6.2c-4.3,0.8-8.7,0.3-13,0.4c-28.3,0-56.7-0.1-85,0c-2.2,0.1-5.1-0.3-5.8-2.8c-1.2-4.1-0.5-8.5-0.6-12.7
		c0.1-7.7,0-15.3,0-23C76.7,86,76.4,83.6,77.9,82z"/>
</g>
<g id="_x23_02a5c2ff">
	<path class="st2" d="M77.5,16.8c5.7-3,12.3-2,18.6-2.1c38.3,0,76.6,0,114.9,0c4.9,0.1,10.3-1,14.5,2.3c-0.2,13.2,0,26.4-0.1,39.6
		c-0.6,0.6-1.2,1.3-1.8,1.9c-48,0-96,0.1-144.1,0c-0.7-0.6-1.3-1.2-2-1.8C77.5,43.4,77.6,30.1,77.5,16.8z"/>
</g>
</svg>
