<?xml version="1.0" encoding="utf-8"?>
<!-- Generator: Adobe Illustrator 26.0.3, SVG Export Plug-In . SVG Version: 6.00 Build 0)  -->
<svg version="1.1" id="Layer_1" xmlns="http://www.w3.org/2000/svg" xmlns:xlink="http://www.w3.org/1999/xlink" x="0px" y="0px"
	 viewBox="0 0 250 250" style="enable-background:new 0 0 250 250;" xml:space="preserve">
<style type="text/css">
	.st0{fill:#ADADAF;}
	.st1{fill:#ABABA9;}
	.st2{fill:#545456;}
	.st3{fill:#1E1D24;}
	.st4{fill:#19181D;}
	.st5{fill:#9C9C9C;}
	.st6{fill:#878787;}
	.st7{fill:#28262D;}
	.st8{fill:#121314;}
	.st9{fill:#909090;}
	.st10{fill:#8F8F91;}
	.st11{fill:#898989;}
	.st12{fill:#929194;}
	.st13{fill:#8D8D8D;}
	.st14{fill:#868686;}
	.st15{fill:#3C332F;}
	.st16{fill:#0B0B0B;}
	.st17{fill:#61544B;}
	.st18{fill:#3F3635;}
	.st19{fill:#A79588;}
	.st20{fill:#A1A0A6;}
	.st21{fill:#5D524C;}
	.st22{fill:#757575;}
	.st23{fill:#EEE3DC;}
	.st24{fill:#9A9081;}
	.st25{fill:#B2B1B5;}
	.st26{fill:#E4DDD2;}
	.st27{fill:#9B9B9B;}
	.st28{fill:#9F9FA3;}
	.st29{fill:#818181;}
	.st30{fill:#807F84;}
	.st31{fill:#A9B1C2;}
	.st32{fill:#9198AC;}
	.st33{fill:#D3D9E6;}
	.st34{fill:#7B858C;}
	.st35{fill:#47403A;}
	.st36{fill:#A5A4A8;}
	.st37{fill:#687B9A;}
	.st38{fill:#C1BBB1;}
	.st39{fill:#9B9A9F;}
	.st40{fill:#8898B2;}
	.st41{fill:#CFD4E0;}
	.st42{fill:#B3C4DC;}
	.st43{fill:#6D6F77;}
	.st44{fill:#434F5E;}
	.st45{fill:#A6B1CA;}
	.st46{fill:#D0DEF3;}
	.st47{fill:#040303;}
	.st48{fill:#919196;}
	.st49{fill:#D6DBE5;}
	.st50{fill:#86888E;}
	.st51{fill:#788DAC;}
	.st52{fill:#A2B2C0;}
	.st53{fill:#B7C0D0;}
	.st54{fill:#435261;}
	.st55{fill:#828C97;}
	.st56{fill:#7E8184;}
	.st57{fill:#3D4150;}
	.st58{fill:#5F5F61;}
	.st59{fill:#787D8E;}
	.st60{fill:#535B62;}
	.st61{fill:#A7A7A9;}
	.st62{fill:#F4F4F4;}
	.st63{fill:#999999;}
	.st64{fill:#8B8B89;}
	.st65{fill:#949497;}
	.st66{fill:#6D6D6D;}
	.st67{fill:#8C8A86;}
	.st68{fill:#7D7D7A;}
	.st69{fill:#A9ABA7;}
	.st70{fill:#707171;}
	.st71{fill:#474A4C;}
	.st72{fill:#5C4D3D;}
	.st73{fill:#BDBDBF;}
	.st74{fill:#1B1815;}
	.st75{fill:#352920;}
	.st76{fill:#8C6E48;}
	.st77{fill:#6D6D6E;}
	.st78{fill:#B4B2B0;}
	.st79{fill:#7D7471;}
	.st80{fill:#412914;}
	.st81{fill:#111111;}
	.st82{fill:#84827D;}
	.st83{fill:#787878;}
	.st84{fill:#888889;}
	.st85{fill:#9D8A6A;}
	.st86{fill:#ABAAA9;}
	.st87{fill:#0C0C0A;}
	.st88{fill:#7D7D7D;}
	.st89{fill:#B3AA9A;}
	.st90{fill:#7B735F;}
	.st91{fill:#3A2E19;}
	.st92{fill:#4D4D4D;}
	.st93{fill:#5B5B56;}
	.st94{fill:#D8D8D8;}
	.st95{fill:#686762;}
	.st96{fill:#5C523B;}
	.st97{fill:#302B1A;}
	.st98{fill:#ADA79F;}
	.st99{fill:#BCB29F;}
	.st100{fill:#C1C1C1;}
	.st101{fill:#525252;}
	.st102{fill:#E7E5DD;}
	.st103{fill:#5B5B55;}
	.st104{fill:#9E927C;}
	.st105{fill:#2D2B20;}
	.st106{fill:#A99D7F;}
	.st107{fill:#635A43;}
	.st108{fill:#9D835F;}
	.st109{fill:#070707;}
	.st110{fill:#4D4740;}
	.st111{fill:#8B6C41;}
	.st112{fill:#5A5249;}
	.st113{fill:#EBEBEB;}
	.st114{fill:#40362A;}
	.st115{fill:#767774;}
	.st116{fill:#77746E;}
	.st117{fill:#6B6856;}
	.st118{fill:#CCC4AC;}
	.st119{fill:#AAA9A9;}
	.st120{fill:#484037;}
	.st121{fill:#AEA79A;}
	.st122{fill:#5B5948;}
	.st123{fill:#717171;}
	.st124{fill:#CEC6BB;}
	.st125{fill:#8A8376;}
	.st126{fill:#706E6A;}
	.st127{fill:#6B6B6B;}
	.st128{fill:#4F423A;}
	.st129{fill:#8D8D8C;}
	.st130{fill:#C3C3C3;}
	.st131{fill:#747474;}
	.st132{fill:#8B8486;}
	.st133{fill:#333232;}
	.st134{fill:#929292;}
	.st135{fill:#DDDDDD;}
	.st136{fill:#403933;}
	.st137{fill:#858585;}
	.st138{fill:#848484;}
	.st139{fill:#EEEDED;}
	.st140{fill:#C5C3C0;}
	.st141{fill:#A4A3A3;}
	.st142{fill:#E0E0DE;}
	.st143{fill:#ABA9AA;}
	.st144{fill:#818282;}
	.st145{fill:#685C4E;}
	.st146{fill:#EEEFEF;}
	.st147{fill:#A88861;}
	.st148{fill:#72716F;}
	.st149{fill:#929193;}
	.st150{fill:#E7E7E6;}
	.st151{fill:#828282;}
	.st152{fill:#BABABA;}
	.st153{fill:#ECE9E9;}
	.st154{fill:#AC6E3F;}
	.st155{fill:#958285;}
	.st156{fill:#464847;}
	.st157{fill:#5A282C;}
	.st158{fill:#9A8C90;}
	.st159{fill:#5A5A5A;}
	.st160{fill:#8E8F8B;}
	.st161{fill:#535353;}
	.st162{fill:#868683;}
	.st163{fill:#080808;}
	.st164{fill:#635858;}
	.st165{fill:#0D0B0C;}
	.st166{fill:#A39C9E;}
	.st167{fill:#5B545C;}
	.st168{fill:#5A5C60;}
	.st169{fill:#454042;}
	.st170{fill:#5D5B5B;}
	.st171{fill:#512D30;}
	.st172{fill:#0A0A0A;}
	.st173{fill:#747071;}
	.st174{fill:#4F4F4F;}
	.st175{fill:#3A3838;}
	.st176{fill:#B4B3B4;}
	.st177{fill:#55494C;}
	.st178{fill:#737373;}
	.st179{fill:#656163;}
	.st180{fill:#533437;}
	.st181{fill:#AAA7A8;}
	.st182{fill:#706D6B;}
	.st183{fill:#E0DDDE;}
	.st184{fill:#A4A2A1;}
	.st185{fill:#AEACAB;}
	.st186{fill:#5A5959;}
	.st187{fill:#787375;}
	.st188{fill:#616161;}
	.st189{fill:#42403E;}
	.st190{fill:#8F8181;}
	.st191{fill:#B6B6B6;}
	.st192{fill:#6C6C6C;}
	.st193{fill:#8A8B8B;}
	.st194{fill:#B1B1B1;}
	.st195{fill:#808080;}
	.st196{fill:#545454;}
	.st197{fill:#757474;}
	.st198{fill:#5A5C5B;}
	.st199{fill:#8F8F8F;}
	.st200{fill:#A7A7A7;}
	.st201{fill:#DDDDDC;}
	.st202{fill:#ADADAD;}
	.st203{fill:#0B0C0A;}
	.st204{fill:#6C6D6A;}
	.st205{fill:#181916;}
	.st206{fill:#454641;}
	.st207{fill:#727171;}
	.st208{fill:#2D2D2D;}
	.st209{fill:#3C3D38;}
	.st210{fill:#343434;}
	.st211{fill:#8A8A8A;}
	.st212{fill:#6C6D68;}
	.st213{fill:#C6C6C6;}
	.st214{fill:#C9C9C7;}
</style>
<g id="_x23_adadafff">
	<path class="st0" d="M116.7,2.7C126,1.2,136,1.2,145,3.9c-2.9-0.1-5.9,0-8.8-0.2c-3.3-0.4-6.6-0.8-10-0.5
		C123.1,3.1,119.9,2.9,116.7,2.7z"/>
</g>
<g id="_x23_ababa9ff">
	<path class="st1" d="M104.9,4.9c3.4-1.6,7.2-2.2,10.9-2.1L116,4C112.3,4.4,108.6,4.8,104.9,4.9z"/>
</g>
<g id="_x23_545456ff">
	<path class="st2" d="M115.8,2.9l0.9-0.2c3.2,0.2,6.3,0.4,9.5,0.5C122.8,3.7,119.4,4,116,4L115.8,2.9z"/>
</g>
<g id="_x23_1e1d24ff">
	<path class="st3" d="M126.2,3.2c3.3-0.3,6.7,0.1,10,0.5c-3.9,0.3-9.4-1.2-11.4,3.4c3.5-0.2,7.2-3.4,9.3,1.8
		c2.7,4.9,10.5,3.5,12,9.2C140,12.7,130,18.7,132,27c1.8,7.3,14.4,7.7,16.4,0.2c1.2-2.8-0.4-5.5-1.3-8.1c5.3,3.6,3.6,12.5-2,15
		c-4.8,4.5-12.8,0.6-15.4-4.6c-2-3.1,2.9-9.8-2.7-10.4c-2.6,2-5.4,4.2-6.6,7.4c-0.1,2.4,1.1,5.7-1.9,6.7c1,10.5-13,16.9-21.4,13
		c-4,2.8-4,7.6-4.2,12c-4.4-1.7-10.1-2.8-13.4,1.3c-3.3,3.9-9.3,0.4-12.2,4.8c-5.3,1.6-11.4-1.1-16.8,1.2
		c-5.3,5-10.1,10.6-15.8,15.2c-4.3,1-10.5-0.8-13.2,3.7c-1.3,4.8-0.4,11.1-6,13.1c-3.6,2.2-4-3.7-6.5-5c0.7-2.4,1.5-4.8,2.3-7.2
		c1.7-2.5,2.6-5.4,2.8-8.4C16.1,73,18,68.9,20,65c2.1-0.8,3-2.9,2.9-4.9c1.6-0.2,2.6-1.8,1.9-3.3l1,0c2.2-0.4,1.6,1.5,1.5,3
		c3.9-0.9,10.2,1,11.4-4.1c3-3.7-3.9-7.1,0.1-9.8c3.4-5.4,10.2-5.5,16-5.6c6.9-5.5,16.3-5.7,24.7-6c10.5-3-1,4.5,4.1,4.9
		c5-0.2,9.5,2,14.4,2.8c6.1-2,11.8-4.6,11.6-12.4c5.1-5.5-8.4-7.8-1.2-11.5c0.8-4.9-9,0.1-9.7-5.7c-2-3.2,1.5-5.9,4.5-6
		c0.5-0.4,1.4-1.1,1.8-1.4c3.7-0.1,7.4-0.6,11.1-1C119.4,4,122.8,3.7,126.2,3.2 M57.1,43c-0.5,3.5-3.7,4.2-6,6.2
		C50.1,55.8,61.8,60.5,63,53C65.3,47.3,59.7,46.3,57.1,43z"/>
</g>
<g id="_x23_19181dff">
	<path class="st4" d="M124.8,7.1c2-4.5,7.5-3.1,11.4-3.4c2.9,0.1,5.9,0.1,8.8,0.2c2.1,0.6,4.1,1.2,6.2,1.8c-2.9,1.5-6.5,2.4-8.4,5.2
		c6.8,5.5,13.2,14.7,6.4,23.2c-7,8.1-18.9-1.7-26.2,5.9c-2.6,2.7-2.2,7.9-6.4,9.5c-7.7,2-16.6,5.4-17.8,14.5c-5.6,0.9-9.6,4.8-13,9
		c1.7-0.3,3.4-0.7,5.1-0.9l-0.1,1c-1.2,0.3-2.5,0.7-3.7,1.1c-4.9,0.3-9.8,2.4-13.3,6c-1.9,0.2-3.8,0.6-5.7,1
		c-4.1-1.9-11.8,1.3-12.3,6c-0.1,0.7-0.3,2.1-0.4,2.7c-0.2,1-0.5,2-0.6,3c-1.2,5.3-0.9,10.8-1,16.3c-2.2-4.3-0.1-11.1-1-16.2
		c-6-0.7-7.6,5-10.9,8.4c-1.6-1.6-2.8-3.5-4.3-5.2c-4.6,3.9-8.9,8.2-13.2,12.4c-6.9-1.5-10.2,6.7-17.4,3.9
		c-3.7,6.3-1.5,14.7-2.3,21.7l-0.6,0C4,126,3.8,117.9,4.9,109.9c0.3-1.5,0.8-4.4,1.1-5.9c1-3,1.9-6.1,1.8-9.3c0.2-0.6,0.7-1.7,1-2.3
		c2.5,1.3,2.9,7.2,6.5,5c5.6-2,4.7-8.3,6-13.1c2.7-4.6,9-2.7,13.2-3.7c5.6-4.7,10.5-10.2,15.8-15.2c5.4-2.3,11.5,0.4,16.8-1.2
		c3-4.4,8.9-0.9,12.2-4.8c3.3-4.1,9.1-3,13.4-1.3C93,53.6,93,48.8,97,46c8.3,3.8,22.3-2.5,21.4-13c3.1-1,1.9-4.3,1.9-6.7
		c1.2-3.1,4-5.4,6.6-7.4c5.6,0.6,0.7,7.4,2.7,10.4c2.6,5.2,10.6,9.2,15.4,4.6c5.6-2.5,7.3-11.4,2-15c-0.2-0.2-0.7-0.7-0.9-0.9
		c-1.4-5.8-9.3-4.3-12-9.2C132,3.7,128.4,6.9,124.8,7.1z"/>
</g>
<g id="_x23_9c9c9cff">
	<path class="st5" d="M145,3.9c3.8,0.3,7.6,0.5,11.1,1.9c-1.7,0-3.3-0.1-4.9-0.2C149.1,5.1,147.1,4.5,145,3.9z"/>
	<path class="st5" d="M138.1,121.6c1.8-0.6,2.7,1.2,3.8,2.2c6.6,1.4,13.4,2.7,20.1,4.2c0.1,5.7,0,11.5,0,17.2
		c-7.5-0.6-14.9-4.8-22.5-2.8c-0.4,0.1-1.2,0.3-1.6,0.4c2.7-5.4,9.1-3.8,14.2-4.1c-0.1-3.3-5.6-2.7-5.4-6.7
		c-1.4-4.6-6.2-3.1-6.8,1.1c-1.7-1.4-3.2-3.1-3.2-5.5C137.2,125.8,137.7,123.7,138.1,121.6z"/>
</g>
<g id="_x23_878787ff">
	<path class="st6" d="M99.9,5.6c1.5-1,3.3-1,5-0.7c-0.5,0.3-1.4,1-1.8,1.4C102.3,6.2,100.7,5.8,99.9,5.6z"/>
</g>
<g id="_x23_28262dff">
	<path class="st7" d="M96,7.1c1.3-0.5,2.6-1,3.9-1.5c0.8,0.2,2.4,0.6,3.1,0.7c-3,0.2-6.5,2.8-4.5,6c0.8,5.8,10.5,0.8,9.7,5.7
		c-7.2,3.7,6.4,5.9,1.2,11.5C109.8,37.3,104.1,40,98,42c-4.8-0.8-9.4-3-14.4-2.8c-5.2-0.4,6.4-7.9-4.1-4.9c-8.4,0.3-17.8,0.5-24.7,6
		c-5.7,0.1-12.6,0.1-16,5.6c-4,2.7,2.9,6.1-0.1,9.8c-1.3,5.1-7.6,3.3-11.4,4.1c0.1-1.4,0.8-3.3-1.5-3c2.1-1.8,3.5-4.2,4.4-6.8
		c0.7-0.6,1.3-1.3,2-1.9c1.6-0.7,2.9-2.1,3-3.9c1.8-1.6,3.4-3.3,5-5c2.2-0.2,4-1.8,3.8-4.1c2.4-1.3,4.2-3.2,6.1-5.1
		c0.3-0.2,0.8-0.7,1.1-0.9c1.9-0.1,3.3-1.4,3.9-3.1c1.1-0.6,2.1-1.3,3.2-1.9c2-0.2,3.9-1.1,4.9-3c1.6-1,3.2-2.1,4.8-3.2
		c2.4-0.1,4.7-1.1,6.3-3c0.4-0.3,1.3-0.8,1.7-1.1c3.7-0.5,7.1-2,10.4-3.8c1.9-0.8,3.8-1.6,5.6-2.4C93.2,8.4,95.1,8.5,96,7.1
		 M94.3,19.3c-3,2.2-7.1,3.9-8.3,7.8c0.5,5.9,5.1,11.1,11,12c3.5,0.7,3-5.9,7.7-3.3c1.5-4.6,2.6-12.7-3.7-13.7
		C97,22.8,101,14.4,94.3,19.3z"/>
</g>
<g id="_x23_121314ff">
	<path class="st8" d="M142.8,10.9c1.9-2.8,5.5-3.8,8.4-5.2c1.6,0.1,3.3,0.1,4.9,0.2c0.6,1.6,2.5,1.6,3.9,1.2
		c1.7,1.4,3.7,2.2,5.9,1.8c2,0.7,4.1,1.4,6.1,2.1c1.1,1.7,3.1,2.5,5,1.8c1.6,1.1,3.3,2.1,4.9,3.2c-3.9-2-6.7,0.8-9.3,3.4
		c-5.8-0.4-10.6,5-11.8,10.4c-0.7,4.6-7.1,4.6-7.8,9.1c-0.7,3.9-4.9,5.1-7.7,7.4c-6.2,4-10.1,11-16.9,14.2
		c-4.3,1.7-0.7,9.1-5.7,10.2c-3.2-0.7-9.2-0.7-4.7,3.3c-2.9-0.9-5.8-1.8-8.8-2.2c-5.4-1-11.1-1.1-16.5-0.1c-0.4,0.1-1.3,0.2-1.7,0.3
		c-1.7,0.3-3.4,0.7-5.1,0.9c3.3-4.2,7.4-8.2,13-9c1.1-9,10-12.5,17.8-14.5c4.2-1.6,3.7-6.7,6.4-9.5c7.3-7.6,19.1,2.2,26.2-5.9
		C156,25.6,149.6,16.4,142.8,10.9z"/>
</g>
<g id="_x23_909090ff">
	<path class="st9" d="M156.1,5.8c1.4-0.3,3.1-0.2,3.9,1.2C158.6,7.4,156.7,7.5,156.1,5.8z"/>
</g>
<g id="_x23_8f8f91ff">
	<path class="st10" d="M91.9,7.8C93,6.6,94.6,6.6,96,7.1C95.1,8.5,93.2,8.4,91.9,7.8z"/>
</g>
<g id="_x23_898989ff">
	<path class="st11" d="M160,7.1c2.2-0.7,4.5-0.1,5.9,1.8C163.8,9.3,161.7,8.5,160,7.1z"/>
</g>
<g id="_x23_929194ff">
	<path class="st12" d="M75.9,14c3-2.3,6.6-3.7,10.4-3.8C83,11.9,79.6,13.5,75.9,14z"/>
</g>
<g id="_x23_8d8d8dff">
	<path class="st13" d="M172,11c1.9-0.5,3.7,0.3,5,1.8C175.1,13.5,173.1,12.7,172,11z"/>
	<path class="st13" d="M5.2,143.9c0.2,1.6,0.6,4.6,0.8,6.2C5.8,148.5,5.4,145.4,5.2,143.9z"/>
</g>
<g id="_x23_868686ff">
	<path class="st14" d="M67.9,18c1.9-1.4,4-2.4,6.3-3C72.6,16.9,70.3,17.9,67.9,18z"/>
</g>
<g id="_x23_3c332fff">
	<path class="st15" d="M132,27c-2-8.3,8.1-14.2,14.1-8.9c0.2,0.2,0.7,0.7,0.9,0.9c0.9,2.6,2.5,5.4,1.3,8.1
		C146.4,34.7,133.8,34.3,132,27 M136.8,20.8c-1.1,0.2-2,0.6-2.8,1.4c-3.8,9.9,15.7,10.2,11.8,0.1C143.2,19.4,138.6,14.4,136.8,20.8z
		"/>
</g>
<g id="_x23_0b0b0bff">
	<path class="st16" d="M172.6,19.5c2.6-2.6,5.5-5.4,9.3-3.4c3.4,1.5,6.9,2.9,10.2,4.6c-0.2,1.6,1.3,2.7,2.9,2.4c1.6,1,3.2,2.1,4.9,3
		c0.6,1.7,2,3,3.9,3.1c0.8,0.6,1.5,1.2,2.3,1.7c0.4,1.8,1.8,3.2,3.7,3.3c2.3,1.9,4.7,3.7,6.7,5.9c-2.9,1.1-5.6-1-8.4-1.2
		c-3.9-0.3-7.7,0.4-11.2,1.9c-3.2,0.8-5.7,3-7.3,5.8c-1,1.4-2,2.8-2.8,4.3c-0.3,0.5-0.8,1.4-1,1.9c-2.2,3.4-2.2,7.8-1,11.5l0.2,0.8
		c-0.3,1.9,0.5,3.7,2,4.9c0,0.8,0.1,2.3,0.1,3.1c-2.2-1.6-4.6-3.2-5.6-5.8c-11,10.4-21.2,21.7-32.3,32c0-2.4,1.2-5.1,0.1-7.4
		c-0.5-0.8-1.2-1.5-2.1-2c-2.8-1.7-6.1-1.6-9.2-1.7c-1.5-4-4.7-7.3-8.9-8.2c-2.3-2-5-3.3-8-3.8c-1-0.7-2-1.4-2.9-2.1
		c-4.5-4,1.5-4,4.7-3.3c5-1.1,1.4-8.4,5.7-10.2c6.8-3.2,10.7-10.2,16.9-14.2c2.7-2.2,7-3.4,7.7-7.4c0.7-4.5,7.2-4.5,7.8-9.1
		C162,24.5,166.8,19.1,172.6,19.5z"/>
</g>
<g id="_x23_61544bff">
	<path class="st17" d="M136.8,20.8c1.8-6.4,6.4-1.4,9,1.5c3.9,10.1-15.6,9.8-11.8-0.1C134.8,21.4,135.8,21,136.8,20.8
		c-1.9,3.6,0.3,8.7,4.9,7C146.8,25.4,141.1,17.7,136.8,20.8z"/>
</g>
<g id="_x23_3f3635ff">
	<path class="st18" d="M94.3,19.3c6.7-4.8,2.7,3.5,6.7,2.7c6.3,1,5.2,9,3.7,13.7c-4.7-2.6-4.2,4-7.7,3.3c-5.9-0.9-10.5-6.1-11-12
		C87.2,23.2,91.3,21.5,94.3,19.3 M97.2,21.6c-5.1,0.7-8.9,5.3-6.2,10.4c2.4,5,11.8,5.4,11.5-1.6C104.9,26,99.4,23.6,97.2,21.6z"/>
</g>
<g id="_x23_a79588ff">
	<path class="st19" d="M136.8,20.8c4.2-3.1,10,4.6,4.9,7C137.1,29.5,134.9,24.4,136.8,20.8 M139.2,22.1c-3,1.8,0.3,4.9,2.8,3.9
		C142.4,24.2,141.6,21.3,139.2,22.1z"/>
</g>
<g id="_x23_a1a0a6ff">
	<path class="st20" d="M58.2,24.1c0.5-2.3,2.7-3.2,4.9-3C62.1,23,60.2,23.9,58.2,24.1z"/>
</g>
<g id="_x23_5d524cff">
	<path class="st21" d="M97.2,21.6c2.1,2,7.6,4.5,5.3,8.8c0.3,7-9.1,6.6-11.5,1.6C88.3,26.9,92.1,22.2,97.2,21.6 M95.1,25.6
		c-7.8-0.5-0.6,11.2,3.7,6.2C103.4,29.4,95.4,21,95.1,25.6z"/>
</g>
<g id="_x23_757575ff">
	<path class="st22" d="M192.2,20.7c1.4,0.1,2.5,1,2.9,2.4C193.5,23.4,192,22.3,192.2,20.7z"/>
	<path class="st22" d="M121,76.1c3,0.5,5.7,1.9,8,3.8C126.2,78.8,123.5,77.6,121,76.1z"/>
	<path class="st22" d="M249.2,150.8c-0.9-1.6-0.7-3.7,0.8-4.8v4.6L249.2,150.8z"/>
</g>
<g id="_x23_eee3dcff">
	<path class="st23" d="M139.2,22.1c2.4-0.8,3.2,2.1,2.8,3.9C139.5,27,136.2,23.9,139.2,22.1z"/>
</g>
<g id="_x23_9a9081ff">
	<path class="st24" d="M95.1,25.6c0.3-4.6,8.3,3.8,3.7,6.2C94.5,36.8,87.3,25.1,95.1,25.6c-1.9,2.4-1,6.6,2.7,5.3
		C100.9,28.8,97.1,26.6,95.1,25.6z"/>
</g>
<g id="_x23_b2b1b5ff">
	<path class="st25" d="M51.2,29.1c0.3-1.9,1.9-3.4,3.9-3.1C54.4,27.8,53,29.1,51.2,29.1z"/>
</g>
<g id="_x23_e4ddd2ff">
	<path class="st26" d="M95.1,25.6c2,1,5.9,3.2,2.7,5.3C94.1,32.2,93.2,28,95.1,25.6z"/>
</g>
<g id="_x23_9b9b9bff">
	<path class="st27" d="M200,26.1c2-0.3,3.6,1.1,3.9,3.1C202,29.1,200.6,27.8,200,26.1z"/>
</g>
<g id="_x23_9f9fa3ff">
	<path class="st28" d="M44,35.1c1.9-1.9,3.6-4,6.1-5.1C48.2,31.9,46.3,33.8,44,35.1z"/>
</g>
<g id="_x23_818181ff">
	<path class="st29" d="M206.1,30.9c1.9,0,3.4,1.4,3.7,3.3C207.9,34.1,206.5,32.7,206.1,30.9z"/>
	<path class="st29" d="M225.1,203.1c-0.4-1.5,0.4-2.9,1.9-3.2C227.4,201.4,226.4,202.7,225.1,203.1z"/>
</g>
<g id="_x23_807f84ff">
	<path class="st30" d="M40.2,39.2c0.5-2,1.9-3.4,3.8-4.1C44.2,37.3,42.4,39,40.2,39.2z"/>
</g>
<g id="_x23_a9b1c2ff">
	<path class="st31" d="M196.9,40.8c3.6-1.5,7.4-2.2,11.2-1.9l-0.6,0.7c-1,4.1-8.1,3.4-5.8,7.7c-3.3,2.2-2.4-1.1-2-3.5
		c-1.8,3-3.6,6.2-6.8,7.8c-3.4-3.9-5.9,6.9-6.1-0.7c0.9-1.5,1.8-2.9,2.8-4.3c2.6,0.6,7.7,4.2,4.4-3.6
		C196.1,46.3,196.3,43,196.9,40.8z"/>
</g>
<g id="_x23_9198acff">
	<path class="st32" d="M208.1,38.9c2.8,0.2,5.5,2.2,8.4,1.2c3.3,3.4,6.2,7.2,9.3,10.8c-0.2,0.3-0.6,0.9-0.8,1.2
		c-3.9-4.8-9,0.7-9.6,5.1c-1.1-1.2-2-2.4-3.3-3.3c-2.5-1.2-3.4-2.8-1-4.8c3.1,7.3,2.7-4.5,7.9-4.6c-3.9-1.5-8.1-2.2-11.5-4.7
		L208.1,38.9z"/>
</g>
<g id="_x23_d3d9e6ff">
	<path class="st33" d="M201.8,47.3c-2.3-4.3,4.8-3.6,5.8-7.7c3.4,2.5,7.6,3.2,11.5,4.7c-5.2,0.1-4.8,11.9-7.9,4.6
		c-2.4-4.7-1.3,2.3-4.9,1C206.6,46.2,204.9,45.3,201.8,47.3z"/>
</g>
<g id="_x23_7b858cff">
	<path class="st34" d="M189.6,46.6c1.6-2.8,4.1-5,7.3-5.8c-0.6,2.2-0.8,5.5-2.9,2.2C197.3,50.8,192.2,47.2,189.6,46.6z"/>
</g>
<g id="_x23_47403aff">
	<path class="st35" d="M57.1,43c2.6,3.2,8.2,4.3,5.9,10c-1.3,7.5-13,2.8-11.9-3.8C53.4,47.2,56.6,46.5,57.1,43 M56.2,48.1
		c-2.3,1.4-1.6,6.7,1.7,5.9C61.7,53.6,60.3,46.2,56.2,48.1z"/>
</g>
<g id="_x23_a5a4a8ff">
	<path class="st36" d="M32.1,48.1c-0.4-2,1.1-3.7,3-3.9C35,46,33.8,47.4,32.1,48.1z"/>
</g>
<g id="_x23_687b9aff">
	<path class="st37" d="M192.9,51.6c3.3-1.6,5.1-4.8,6.8-7.8c-0.4,2.4-1.3,5.7,2,3.5c3.1-2,4.8-1.1,4.5,2.7c3.6,1.4,2.5-5.6,4.9-1
		c-2.5,2-1.5,3.6,1,4.8c-0.5,0.4-1.4,1.2-1.8,1.6c-0.4-0.3-1.3-0.9-1.8-1.3c-1.8-1.7-4-3.1-6.5-3.4C198.9,50,195.9,51.3,192.9,51.6z
		"/>
</g>
<g id="_x23_c1bbb1ff">
	<path class="st38" d="M56.2,48.1c4-1.9,5.5,5.5,1.7,5.9C54.6,54.8,53.9,49.5,56.2,48.1z"/>
</g>
<g id="_x23_9b9a9fff">
	<path class="st39" d="M24.8,56.8c1.4-2.5,3.1-4.9,5.4-6.8c-0.9,2.6-2.3,5-4.4,6.8L24.8,56.8z"/>
</g>
<g id="_x23_8898b2ff">
	<path class="st40" d="M186.8,50.9c0.2,7.6,2.7-3.2,6.1,0.7c3-0.3,6-1.6,9.1-0.9c0.1,3.1,4,4.2,6.5,3.4c0.4,0.3,1.3,0.9,1.8,1.3
		c-3.6,2.2-6.5,5.4-11,4.2c-2.5-1.4-1.8,0.8-1.4,2.5c-4.9,0.6-7-4.7-11.8-3.9c-0.8,5.1,6.1,4.1,9.2,5.9c-1.7,1.4-3.4,2.6-5.2,4
		c1.8,2.2,4.1,4.4,1.9,7.2c-1.8-1.6-3.5-3.4-5-5.3c0.6-1.9-0.2-3.9-2-4.9l-0.2-0.8c0.2-3.9,0.6-7.7,1-11.5
		C186,52.3,186.5,51.4,186.8,50.9 M194.2,55.2C194.1,60.5,200,53.2,194.2,55.2z"/>
</g>
<g id="_x23_cfd4e0ff">
	<path class="st41" d="M215.4,57.1c0.6-4.4,5.7-9.8,9.6-5.1c0.6,4.1,1,8.2,1.2,12.3c-1.9,0.7-2.5-1-3.3-2.3
		c-1.4-1.1-3.1-1.6-4.8-1.8C215.8,60.4,214.7,59.4,215.4,57.1z"/>
</g>
<g id="_x23_b3c4dcff">
	<path class="st42" d="M202,50.7c2.5,0.2,4.7,1.6,6.5,3.4C206,54.9,202.1,53.8,202,50.7z"/>
</g>
<g id="_x23_6d6f77ff">
	<path class="st43" d="M225.1,52c0.2-0.3,0.6-0.9,0.8-1.2c1.2,1.5,2.4,3.1,3.5,4.8c-5.2-2.4-1.1,7.5-3.1,9.6l0-0.9
		C226.1,60.2,225.6,56.1,225.1,52z"/>
</g>
<g id="_x23_434f5eff">
	<path class="st44" d="M184.7,64.3c-1.2-3.8-1.2-8.2,1-11.5C185.3,56.6,184.9,60.4,184.7,64.3z"/>
</g>
<g id="_x23_a6b1caff">
	<path class="st45" d="M210.3,55.3c0.5-0.4,1.4-1.2,1.8-1.6c1.3,0.9,2.3,2.2,3.3,3.3c-0.8,2.3,0.3,3.3,2.7,3.1
		c-3.4,2.5-7.4,2.8-11.4,1.8c2.9,2.9,6.8,5.1,11,5.2c1.7,4-6.1-0.2-6.1,3.7c-5.6-0.3-5.1-6.8-10.4-7.1c-2.7,0.1-1.9-2.6-2-4.4
		C203.8,60.8,206.7,57.5,210.3,55.3z"/>
</g>
<g id="_x23_d0def3ff">
	<path class="st46" d="M194.2,55.2C200,53.2,194.1,60.5,194.2,55.2z"/>
</g>
<g id="_x23_040303ff">
	<path class="st47" d="M226.3,65.2c2-2.1-2.2-12,3.1-9.6c2.3,3.7,4.6,7.5,6.8,11.2c1,2.9,2.2,5.7,3.9,8.2c0.3,0.5,0.8,1.3,1.1,1.8
		c0.3,3,1.1,5.9,3,8.2c1.1,2.9,2,5.8,3,8.7c0.2,4.7,1.3,9.3,2.9,13.7v38.4c-1.5,1.1-1.8,3.2-0.8,4.8c-2.2,3.4-2,7.7-3,11.5
		c-0.4,1.2-0.9,2.4-1.3,3.6c-1.6,2.5-2.5,5.4-2.8,8.4c-0.7,1.2-1.4,2.5-2.1,3.8c-1.9,0.5-2.5,2.4-1.8,4.1c-1.3,2.4-2.5,4.8-4,7
		c-2.1,1.9-3,4.5-4,7c-1.9,0.4-3.3,1.8-3.1,3.8c-1.5,0.2-2.4,1.7-1.9,3.2c-0.2,0.3-0.7,0.8-0.9,1.1c-6.1,7.8-16.2,3.2-24.5,5.6
		c-0.5-0.2-1.4-0.5-1.9-0.6c0.2-4.3-0.6-8.6-2.8-12.3c-0.2-1.3-0.2-2.7-0.9-3.8c-1.1-2.2-2.4-4.3-3.9-6.2c-0.8-1.2-1.5-2.4-2.3-3.5
		c-0.1-2.8-1-5.5-2.6-7.8c-0.4-1.8-0.9-3.5-1.4-5.2c1.2-6.5-6.5-17.6,4.6-17.9c1-0.6,1.8-1.4,2.7-2.1c3.9-1.5,7.5-4.3,8.9-8.3
		c1-2,2-4,3.2-6c1.6-2.4,1.7-4.8,0.4-7c0.1-0.4,0.3-1.1,0.5-1.4c1.8-3.8-0.5-8.8-4.1-10.7c-0.6-1.1-1.2-2.1-1.8-3.2
		c-0.9-4.1-5.3-3.6-8.5-3.5c-0.4-0.3-1.1-0.9-1.4-1.2c-0.7-0.7-1.4-1.4-2.1-2.1c-0.7-5.4-10.1-8.5-11-1.8
		c-7.4-1.6-13.3,4.7-18.9,9.1c-0.3,3.7,6.1,8-1.4,7c-0.6-0.1-1.9-0.3-2.6-0.4c-6.8,0.8-9.8-1.3-6-6.7c1.1-1.1,1.3-2.7,0.8-4.1
		c0.2-1.5,0.7-4.5,1-6.1l0.2-0.8c0.3-1.3,0.6-2.7,0.9-4c11.2-10.3,21.3-21.6,32.3-32c1,2.7,3.4,4.2,5.6,5.8c2.8,2.4,5.4,5.2,9,6.1
		c1.9,0.8,3.8,1.6,5.7,2.1c3.8,1.1,8.1,1.5,11.4-1c1.7-0.9,3.5-1.7,4.9-3c0.3-0.2,0.8-0.8,1.1-1c0.9-0.8,1.8-1.5,2.6-2.2
		c1.5-0.1,2.5-1.4,2.3-2.9C224.9,69.1,225.9,67.3,226.3,65.2z"/>
</g>
<g id="_x23_919196ff">
	<path class="st48" d="M22.9,60c-0.2-1.4,0.6-2.7,1.9-3.3C25.5,58.3,24.5,59.8,22.9,60z"/>
</g>
<g id="_x23_d6dbe5ff">
	<path class="st49" d="M186,58.2c4.8-0.8,6.9,4.5,11.8,3.9c-0.3-1.7-1-3.9,1.4-2.5c0.1,1.8-0.6,4.5,2,4.4c5.3,0.3,4.8,6.7,10.4,7.1
		c1.8,2.7,3.6,5.9,7.4,4.2l0.2,1c-0.3,0.2-0.8,0.8-1.1,1c-2.8,0.9-6.4,1.6-6.9-2.2c-1.8-2.5-5.1-3.6-6.9-6.2c-0.9-1.6-4.6-3.1-4.2,0
		c-0.2,0.6-0.6,1.8-0.8,2.4l-1.1-0.1c-1.3-2.2-1.7-4.8-3-7C192.1,62.2,185.2,63.2,186,58.2z"/>
</g>
<g id="_x23_86888eff">
	<path class="st50" d="M20,65c0-2.1,0.8-4.2,2.9-4.9C23,62.1,22.1,64.2,20,65z"/>
</g>
<g id="_x23_788dacff">
	<path class="st51" d="M218.2,60.2c1.7,0.2,3.4,0.7,4.8,1.8c-1.6,4.3-2.4,8.8-3.9,13.1c-3.8,1.7-5.6-1.5-7.4-4.2
		c0-3.9,7.8,0.3,6.1-3.7c-4.3-0.1-8.1-2.3-11-5.2C210.8,63,214.7,62.7,218.2,60.2z"/>
</g>
<g id="_x23_a2b2c0ff">
	<path class="st52" d="M222.9,62c0.8,1.3,1.4,3.1,3.3,2.3l0,0.9c-0.3,2-1.3,3.9-2.1,5.7c-1.5,0.2-2.5,1.5-2.3,2.9
		c-0.9,0.7-1.8,1.5-2.6,2.2l-0.2-1C220.6,70.8,221.4,66.3,222.9,62z"/>
</g>
<g id="_x23_b7c0d0ff">
	<path class="st53" d="M195.1,64.1c1.3,2.2,1.7,4.8,3,7c-4.6-0.8,0.5,2.9,1.9,4c-0.2-1.3-0.5-2.6-0.8-4c0.2-0.6,0.6-1.8,0.8-2.4
		c-3.6,7.4,10.2,13.1,11.1,6.2c0.5,3.8,4.2,3.1,6.9,2.2c-1.4,1.3-3.2,2.2-4.9,3c-3.8,0.3-7.6,0.8-11.4,1c-2-0.5-3.9-1.4-5.7-2.1
		c-1.4-1.3-2.8-2.5-4.1-3.8c2.1-2.8-0.2-5.1-1.9-7.2C191.7,66.7,193.5,65.4,195.1,64.1z"/>
</g>
<g id="_x23_435261ff">
	<path class="st54" d="M184.9,65.1c1.8,0.9,2.6,2.9,2,4.9C185.4,68.8,184.6,67,184.9,65.1z"/>
</g>
<g id="_x23_828c97ff">
	<path class="st55" d="M200,68.8c-0.4-3.1,3.2-1.6,4.2,0c1.9,2.6,5.1,3.6,6.9,6.2C210.2,81.8,196.4,76.1,200,68.8z"/>
</g>
<g id="_x23_7e8184ff">
	<path class="st56" d="M236.1,66.8c1.9,2.4,3.3,5.2,3.9,8.2C238.3,72.5,237.1,69.7,236.1,66.8z"/>
</g>
<g id="_x23_3d4150ff">
	<path class="st57" d="M186.9,70c1.5,1.9,3.2,3.7,5,5.3c1.4,1.3,2.8,2.5,4.1,3.8c-3.7-0.9-6.3-3.7-9-6.1
		C187,72.3,186.9,70.7,186.9,70z"/>
</g>
<g id="_x23_5f5f61ff">
	<path class="st58" d="M92.7,71.7c5.5-1,11.1-0.9,16.5,0.1c-1.5,0.1-3,0.2-4.5,0.3c-1.8,0-3.7,0.1-5.5,0.3
		C97.1,72.1,94.9,71.8,92.7,71.7z"/>
</g>
<g id="_x23_787d8eff">
	<path class="st59" d="M200,75.1c-1.4-1.2-6.4-4.8-1.9-4l1.1,0.1C199.6,72.5,199.8,73.8,200,75.1z"/>
</g>
<g id="_x23_535b62ff">
	<path class="st60" d="M221.8,73.9c-0.2-1.5,0.8-2.8,2.3-2.9C224.4,72.5,223.3,73.8,221.8,73.9z"/>
</g>
<g id="_x23_a7a7a9ff">
	<path class="st61" d="M91,72c0.4-0.1,1.3-0.2,1.7-0.3c2.2,0.2,4.4,0.5,6.6,0.7c-2.8,0.4-5.6,0.5-8.4,0.6L91,72z"/>
</g>
<g id="_x23_f4f4f4ff">
	<path class="st62" d="M99.3,72.3c1.8-0.2,3.7-0.2,5.5-0.3c5.5,1,10.8,2.8,16.2,4c2.5,1.5,5.2,2.8,8,3.8c2.8,2.9,5.9,5.6,8.9,8.2
		c2.4,2.4,6.2,1.1,9.2,1.7c0.8,0.5,1.5,1.1,2.1,2c-0.6,2-1.1,4-1.4,6.1c-3.9,4-15.2,3.6-16-1.9c2.3-1.4,4.3-3.3,5.1-5.9
		c-3.4-2.2-4.7,2.7-7.8,3.1c-12.3-13-32.6-18.7-49.3-11.3c-7.1,2.9-13.1,9.5-21.4,6.2c-0.2,3.2-2.9,7.4-2.9,1.6
		c0.1-0.7,0.3-2.1,0.4-2.7c3.2-3.2,7.7-5.5,12.3-6c2.1,1.9,5.5,2.1,5.7-1c4.5-1.8,9-3.8,13.3-6c1.2-0.3,2.5-0.7,3.7-1.1
		C93.7,72.8,96.5,72.8,99.3,72.3z"/>
</g>
<g id="_x23_999999ff">
	<path class="st63" d="M104.8,72.1c1.5-0.1,3-0.2,4.5-0.3c3,0.4,5.9,1.4,8.8,2.2c1,0.7,2,1.4,2.9,2.1
		C115.5,74.9,110.3,73.1,104.8,72.1z"/>
</g>
<g id="_x23_8b8b89ff">
	<path class="st64" d="M73.9,80c3.5-3.5,8.4-5.6,13.3-6C82.8,76.2,78.4,78.2,73.9,80z"/>
</g>
<g id="_x23_949497ff">
	<path class="st65" d="M11.1,85.2c0.2-3,1-6,2.8-8.4C13.7,79.8,12.8,82.7,11.1,85.2z"/>
</g>
<g id="_x23_6d6d6dff">
	<path class="st66" d="M241,76.9c1.8,2.4,2.6,5.3,3,8.2C242.1,82.8,241.3,79.8,241,76.9z"/>
	<path class="st66" d="M149.2,91.8c1.1,2.3-0.1,5-0.1,7.4c-0.3,1.3-0.6,2.7-0.9,4c-0.1-1.8-0.2-3.5-0.3-5.3
		C148.2,95.8,148.7,93.8,149.2,91.8z"/>
</g>
<g id="_x23_8c8a86ff">
	<path class="st67" d="M79.8,81.9c16.7-7.4,37-1.8,49.3,11.3c0.9,0.9,1.8,1.9,2.7,2.8c-0.4,1.1-0.7,2.2-1,3.3
		c-8.2-5-12.7-17.1-23.8-16.4c-8-4.2-17.3-1.7-24.9,1.9C80.5,84.3,78.5,83.9,79.8,81.9z"/>
</g>
<g id="_x23_7d7d7aff">
	<path class="st68" d="M55.9,87c0.4-4.8,8.1-7.9,12.3-6C63.6,81.5,59.2,83.8,55.9,87z"/>
</g>
<g id="_x23_a9aba7ff">
	<path class="st69" d="M68.2,81c1.9-0.4,3.8-0.8,5.7-1C73.7,83.1,70.3,82.9,68.2,81z"/>
</g>
<g id="_x23_707171ff">
	<path class="st70" d="M129,79.9c4.2,1,7.4,4.2,8.9,8.2C134.9,85.5,131.8,82.8,129,79.9z"/>
</g>
<g id="_x23_474a4cff">
	<path class="st71" d="M201.8,81.2c3.8-0.2,7.6-0.7,11.4-1C209.9,82.7,205.6,82.3,201.8,81.2z"/>
</g>
<g id="_x23_5c4d3dff">
	<path class="st72" d="M82.1,84.8c7.7-3.6,17-6.1,24.9-1.9c-5.7,0.3-14.6-4.3-16.9,2.9c4.3,5.5,12.5,2.1,18.2,4.8
		c2.9,1.4,6,0.3,8.7-0.9c-2.3-3.5-6.6-4.8-10-6.9c11.1-0.7,15.7,11.4,23.8,16.4c0,3.7-0.5,7.4-0.9,11c-3.2-1-3.4-3.9-3.1-7
		c-2.8,1-4.5-0.8-5.8-3c4.1-2.3,5.1-6,0.4-8.3c-1.2,2.2-2.3,4.3-3.3,6.5c-5.8-8.2-17.2-2.5-25.2-6.4c-3.8-0.6-8-7.5-9.8-1.1
		c0.1-2.7,0.5-6.1-3.3-5.4C80.4,85.4,81.5,85,82.1,84.8z"/>
</g>
<g id="_x23_bdbdbfff">
	<path class="st73" d="M58.4,88.1c8.3,3.2,14.3-3.3,21.4-6.2c-1.3,2,0.7,2.4,2.3,2.9c-0.6,0.2-1.7,0.7-2.3,0.9
		c-2.3,0.9-4.2,2.5-5.8,4.4c-2,2.1-3.7,4.4-5,7c-0.8,1.1-1.5,2.1-2.3,3.2c-1.6,2.8-2.7,6.4-5.6,2.5c-0.1,1.6-0.3,4.7-0.4,6.2
		c-9.9,2.3-4.8-10.5-5.9-16.2c0.2-1,0.4-2,0.6-3C55.5,95.5,58.2,91.3,58.4,88.1z"/>
</g>
<g id="_x23_1b1815ff">
	<path class="st74" d="M90.2,85.8c2.3-7.3,11.2-2.6,16.9-2.9c3.4,2.1,7.7,3.4,10,6.9c-2.7,1.2-5.8,2.3-8.7,0.9
		C102.7,87.9,94.4,91.3,90.2,85.8z"/>
</g>
<g id="_x23_352920ff">
	<path class="st75" d="M74.1,90c1.6-1.8,3.5-3.5,5.8-4.4c3.7-0.7,3.3,2.7,3.3,5.4c-1.9,2.4-4.9,3.7-7.3,5.7c-2.6,1.5-5.3,3-7.2,5.4
		c-0.6-0.6-1.2-1.2-1.7-1.9c0.7-1.1,1.5-2.1,2.3-3.2C70.8,94.8,72.4,92.4,74.1,90z"/>
</g>
<g id="_x23_8c6e48ff">
	<path class="st76" d="M83.1,91.1c1.7-6.3,5.9,0.5,9.8,1.1c8.1,3.9,19.4-1.7,25.2,6.4c0.9,0.6,1.9,1.2,2.9,1.7c1.3,2.2,3.1,4,5.8,3
		c-0.3,3.1,0,6,3.1,7c-0.2,3.2-0.7,6.3-0.9,9.5c2.4,1.6,5.5,1.2,8.2,1.8c-4.8-1.3-8.1,0.5-10.2,4.3c1.4-5.8-4-10.7-4.7-16.4
		c-9.1,0.8-14.2-11.2-23.5-8.8c-5.9,1.1-6.3,10.3-13.2,8.9c-3.5-2.8,3.4-10.6-1.9-13.4c-2.7-0.1-5.3,0.3-8,0.5
		C78.2,94.8,81.1,93.5,83.1,91.1z"/>
</g>
<g id="_x23_6d6d6eff">
	<path class="st77" d="M137.9,88.1c3.1,0.2,6.5,0,9.2,1.7C144.2,89.2,140.3,90.5,137.9,88.1z"/>
</g>
<g id="_x23_b4b2b0ff">
	<path class="st78" d="M129.2,93.2c3.1-0.4,4.4-5.3,7.8-3.1c-0.9,2.6-2.8,4.5-5.1,5.9C130.9,95.1,130,94.1,129.2,93.2z"/>
</g>
<g id="_x23_7d7471ff">
	<path class="st79" d="M69.1,97.1c1.3-2.6,3-4.9,5-7C72.4,92.4,70.8,94.8,69.1,97.1z"/>
</g>
<g id="_x23_412914ff">
	<path class="st80" d="M121.4,92.1c4.7,2.2,3.7,6-0.4,8.3c-1-0.6-1.9-1.1-2.9-1.7C119.1,96.4,120.2,94.2,121.4,92.1z"/>
</g>
<g id="_x23_111111ff">
	<path class="st81" d="M42,101.3c3.3-3.4,4.9-9.1,10.9-8.4c0.9,5.1-1.2,11.8,1,16.2c1.9,0.9,4.1,1,6.2,1.3c0,2.9-0.1,5.7-0.1,8.6
		c-6.1-6.5-13.9,1.6-21.1,1.9c-6.1,0.9-0.6,9.8-5.2,12.9c-6.5,0.1-14.5-3.2-19.6,2.3c-3.4,2.9,1.4,9.7-3,11.8
		c-1.4-1-2.8-2.1-4.2-3.1c0.3,3,0.9,6,0.9,9.1l-1.1,0.1c0.7-1.3,0.8-3.4-0.9-4.1c-0.2-1.6-0.6-4.6-0.8-6.2c-0.1-1.3-0.3-2.5-0.5-3.8
		c0.4-2,0.5-4,0.1-6c0.9-7-1.3-15.4,2.3-21.7c7.2,2.8,10.5-5.3,17.4-3.9c4.3-4.2,8.7-8.4,13.2-12.4C39.2,97.8,40.4,99.7,42,101.3z"
		/>
</g>
<g id="_x23_84827dff">
	<path class="st82" d="M53.9,109.1c0.1-5.4-0.2-10.9,1-16.3c1.2,5.7-4,18.5,5.9,16.2c0.1-1.6,0.3-4.7,0.4-6.2c2.9,3.9,4,0.3,5.6-2.5
		c0.6,0.7,1.1,1.3,1.7,1.9c-0.5,1.7-1.1,3.3-1.5,5c-1.6,6.5-0.6,13.3-0.2,19.9c-3-6.6-2.1-14.3-1-21.3c-2.5,0.6-3.9,3-5.8,4.6
		C58,110.1,55.8,110,53.9,109.1z"/>
</g>
<g id="_x23_787878ff">
	<path class="st83" d="M247.1,93.9c1.3,2.7,2.1,5.6,2.9,8.5v5.1C248.3,103.2,247.3,98.5,247.1,93.9z"/>
	<path class="st83" d="M25.8,197.1c1.6-0.1,2.7,1.5,2.1,3C26.6,199.7,25.7,198.6,25.8,197.1z"/>
</g>
<g id="_x23_888889ff">
	<path class="st84" d="M6,104.1c0.1-3.2,0.3-6.4,1.8-9.3C7.9,98,7.1,101.1,6,104.1z"/>
</g>
<g id="_x23_9d8a6aff">
	<path class="st85" d="M75.8,96.8c2.7-0.2,5.3-0.5,8-0.5c5.3,2.8-1.6,10.6,1.9,13.4c6.9,1.5,7.3-7.8,13.2-8.9
		c9.3-2.4,14.4,9.6,23.5,8.8c0.7,5.7,6.1,10.5,4.7,16.4c-2.2,1.9-4.5,3.7-7,5.1c2-4.3,0.4-6.6-4-7.2c1.6-3.8-0.4-7-4.6-5.3
		c-3.7,1.6-10.5,6.6-11.5-0.3c4.6-0.1-2.6-3.5-0.7-5.9c0.5-2.8,3.8-3,6.1-2.7c-1.6,1-3.9,1.8-3.3,4.1c2.1,3.6,5.6,5.4,9.2,2.6
		c2.6-2.3-1.8-5.4-3.3-7.3c-4.3-4.8-14.3,1.3-12.2,7.2c-4-2.7-8.6-1.2-12.8-0.1c-2.8-1.3-2.6-3.5-1.2-5.9c1.9-4.3,1.4-6.4-1.6-6.3
		c-2.6-0.3-3.7,2.1-5,3.9c-0.6-3.9-6.7-4.4-7.9-0.6c0.4-1.7,0.9-3.4,1.5-5C70.5,99.8,73.2,98.3,75.8,96.8z"/>
</g>
<g id="_x23_abaaa9ff">
	<path class="st86" d="M130.9,99.3c0.3-1.1,0.6-2.2,1-3.3c0.9,5.5,12.1,5.8,16,1.9c0.1,1.8,0.2,3.5,0.3,5.3L148,104
		c-0.2,1.5-0.7,4.5-1,6.1c-1.7,0.7-1.4,2.7-0.8,4.1c-3.8,5.4-0.8,7.5,6,6.7c-2.6,1.5-11.2-2.5-10.2,3c-1.1-1-2-2.8-3.8-2.2h-0.9
		c-2.7-0.6-5.8-0.2-8.2-1.8c0.2-3.2,0.7-6.3,0.9-9.5C130.3,106.7,130.9,103,130.9,99.3 M135,105.9c-0.7,2.7,1.3,4.8,4.1,4.1
		C139.1,107.9,137.1,105.8,135,105.9z"/>
</g>
<g id="_x23_0c0c0aff">
	<path class="st87" d="M175.1,105.1c0.9-6.8,10.3-3.6,11,1.8c-5.7,0.5-11.1-0.2-16.9,1.4c-2.7,1.9-5.7,3.5-9,4.1
		c-2,9,9.2,10.8,15.8,11.5c1.4,1.9,3.1,3.6,4.9,5.1l0.2,0.8c0,3.4-0.1,6.9,0,10.4c-0.6,2.2-2.1,4.1-3.3,6c-3,0-5.8,1.1-8.7,1.6
		c-2.3-0.9-6.6,0.6-7.2-2.5c-0.8-6.8,7.1-24.6-5.1-23.3c-0.5-0.2-1.6-0.6-2.1-0.8c7.6,1,1.2-3.3,1.4-7
		C161.8,109.9,167.7,103.6,175.1,105.1z"/>
</g>
<g id="_x23_7d7d7dff">
	<path class="st88" d="M4.9,109.9c0.3-1.5,0.8-4.4,1.1-5.9C5.8,105.5,5.2,108.5,4.9,109.9z"/>
	<path class="st88" d="M5.9,150.1c1.6,0.7,1.5,2.7,0.9,4.1C5.7,153,5.6,151.5,5.9,150.1z"/>
</g>
<g id="_x23_b3aa9aff">
	<path class="st89" d="M67.1,107.2c1.3-3.8,7.3-3.3,7.9,0.6c-2.9,2.8,6.5,4.8,0.1,6.1c-2.3,1.1-3.7,3.2-3,5.8
		c-2.9,14.6,17.2,12.2,25.1,8.3c0.2-4.5,6.6-3.2,6.1,0.7c-0.8,4.5,5.9,0.4,7.3,3.6c-1.8,1.2-1.7,3.2-1,5.1l0.2,1.1
		c-10.2,2-22.9-3.9-31.2,3.6c-1.8-0.6-4-4.4-5.7-2.2c-0.3,0.3-0.8,0.9-1.1,1.2c-4.4-3.2-7.3-7.7-9.1-12.8c-0.1-1.5-0.3-3.1-0.3-4.6
		c4.2,3.4,3.1,11.9,9.5,13.6c-1.5-3.4-3.4-6.7-5-10.2C66.5,120.5,65.5,113.7,67.1,107.2z"/>
</g>
<g id="_x23_7b735fff">
	<path class="st90" d="M75,107.8c1.3-1.8,2.4-4.2,5-3.9c-3.6,1.9-1.5,5.4,1.6,6.3c-1.3,2.4-1.6,4.6,1.2,5.9
		c-1.2,3.8,0.6,7.4,0.1,11.2c-2.1-0.2-4.7-0.1-4-2.9c4.3-4.3,2.7-10.8-3.9-10.4C81.5,112.6,72.1,110.5,75,107.8z"/>
</g>
<g id="_x23_3a2e19ff">
	<path class="st91" d="M80,103.9c3-0.1,3.6,2,1.6,6.3C78.5,109.3,76.4,105.8,80,103.9z"/>
</g>
<g id="_x23_4d4d4dff">
	<path class="st92" d="M147,110c0.2-1.5,0.7-4.5,1-6.1C147.8,105.5,147.3,108.5,147,110z"/>
</g>
<g id="_x23_5b5b56ff">
	<path class="st93" d="M60.1,110.4c1.9-1.5,3.3-3.9,5.8-4.6c-1.1,7-2.1,14.6,1,21.3c1.6,3.4,3.5,6.7,5,10.2
		c-6.4-1.7-5.3-10.2-9.5-13.6c0.1,1.5,0.2,3.1,0.3,4.6c-1.4-2.9-1.8-6.2-2.7-9.2C60,116.1,60,113.2,60.1,110.4z"/>
</g>
<g id="_x23_d8d8d8ff">
	<path class="st94" d="M135,105.9c2.2-0.1,4.2,1.9,4.1,4.1C136.3,110.8,134.2,108.7,135,105.9z"/>
</g>
<g id="_x23_686762ff">
	<path class="st95" d="M169.3,108.3c5.8-1.6,11.2-0.9,16.9-1.4c0.7,0.7,1.4,1.4,2.1,2.1c-3,1-6.2,0.2-9.3,0.8l-0.8-0.1
		c-2.9-0.2-6.5-2-8.7,0.7c-3.1,1.4-7.2,2.3-7.3,6.5c2.9,5.4,10.1,3.1,13.9,7.1c-6.6-0.8-17.8-2.6-15.8-11.5
		C163.6,111.8,166.5,110.2,169.3,108.3z"/>
</g>
<g id="_x23_5c523bff">
	<path class="st96" d="M95.8,116.2c-2.2-5.9,7.8-11.9,12.2-7.2c-0.9,0.2-1.7,0.4-2.6,0.6c-2.3-0.3-5.5-0.1-6.1,2.7
		c-1.9,2.4,5.3,5.8,0.7,5.9C98.6,117.6,97.2,116.9,95.8,116.2z"/>
</g>
<g id="_x23_302b1aff">
	<path class="st97" d="M105.3,109.6c0.9-0.2,1.7-0.4,2.6-0.6c1.5,1.9,5.9,5,3.3,7.3c-3-0.9-6-2.1-9.2-2.6
		C101.4,111.4,103.7,110.6,105.3,109.6z"/>
</g>
<g id="_x23_ada79fff">
	<path class="st98" d="M169.5,110.5c2.2-2.7,5.8-0.9,8.7-0.7C175.2,109.9,172.4,110.2,169.5,110.5z"/>
</g>
<g id="_x23_bcb29fff">
	<path class="st99" d="M178.9,109.8c3.1-0.6,6.3,0.1,9.3-0.8c0.4,0.3,1.1,0.9,1.4,1.2c1.7,1.8,4.4,2.2,5.5,4.7
		c2.2,4.2,1.6,6.4-3.2,4.2c-3.9-6-17.5-6.5-13,3c-1.2-2-2.6-3.9-3.7-5.9c0.9-3.5,5-1.7,7.8-2.4C183.2,111.4,180.4,111,178.9,109.8z"
		/>
</g>
<g id="_x23_c1c1c1ff">
	<path class="st100" d="M3.7,138.2c-1.8-9.2-1.2-19.2,1.2-28.3c-1.1,8-0.9,16.1-0.7,24.2C3.9,135.4,3.8,136.8,3.7,138.2z"/>
</g>
<g id="_x23_525252ff">
	<path class="st101" d="M146.2,114.1c-0.5-1.3-0.9-3.4,0.8-4.1C147.5,111.4,147.3,113,146.2,114.1z"/>
</g>
<g id="_x23_e7e5ddff">
	<path class="st102" d="M169.5,110.5c2.9-0.3,5.8-0.5,8.7-0.7l0.8,0.1c1.5,1.2,4.3,1.6,4.1,4c-2.7,0.6-6.9-1.1-7.8,2.4
		c1.1,2,2.6,3.9,3.7,5.9c0.3,0.5,0.9,1.6,1.2,2.1c-0.3,0.2-0.8,0.7-1.1,0.9c-1-0.4-2-0.7-3-1.1c-3.7-4-10.9-1.7-13.9-7.1
		C162.2,112.8,166.4,111.8,169.5,110.5z"/>
</g>
<g id="_x23_5b5b55ff">
	<path class="st103" d="M189.7,110.2c3.2-0.1,7.6-0.6,8.5,3.5c-1.3-0.5-2.4-0.1-3,1.2C194.1,112.5,191.4,112,189.7,110.2z"/>
</g>
<g id="_x23_9e927cff">
	<path class="st104" d="M195.2,114.9c0.6-1.3,1.7-1.7,3-1.2c0.6,1.1,1.2,2.1,1.8,3.2c1.6,3.5,2.8,7.1,4.1,10.7
		c-0.1,0.4-0.3,1.1-0.5,1.4c-1.6,2.5-1.7,4.8-0.4,7c-1.2,1.9-2.2,3.9-3.2,6c-2.1,1.8-4.2,3.6-6.2,5.4c-2.1-3.1,1.9-5.1,2.9-7.8
		c1.7-7.4-2.1-14-4.8-20.5C196.8,121.3,197.4,119.1,195.2,114.9z"/>
</g>
<g id="_x23_2d2b20ff">
	<path class="st105" d="M75.1,113.9c6.7-0.3,8.3,6.2,3.9,10.4c-4.2,0.9-6.5-0.8-6.9-4.6C71.4,117.1,72.8,115.1,75.1,113.9z"/>
</g>
<g id="_x23_a99d7fff">
	<path class="st106" d="M82.9,116.1c4.3-1.1,8.8-2.6,12.8,0.1c1.4,0.7,2.8,1.4,4.2,2c0.9,6.9,7.8,1.9,11.5,0.3
		c4.2-1.7,6.2,1.5,4.6,5.3c4.4,0.6,6,3,4,7.2c-3.4,2.8-10.8,0.5-10.5,6.4c-0.7-1.9-0.7-3.8,1-5.1c-1.4-3.2-8.1,0.9-7.3-3.6
		c0.4-3.9-5.9-5.2-6.1-0.7c-1.9-4.4-9.7,2.2-14.2-0.8C83.5,123.5,81.7,119.9,82.9,116.1z"/>
</g>
<g id="_x23_635a43ff">
	<path class="st107" d="M102,113.7c3.2,0.5,6.1,1.7,9.2,2.6C107.5,119.2,104.1,117.3,102,113.7z"/>
</g>
<g id="_x23_9d835fff">
	<path class="st108" d="M179,122.1c-4.6-9.5,9.1-9,13-3c2.7,6.5,6.5,13.1,4.8,20.5c-1,2.7-5,4.7-2.9,7.8c-0.9,1-1.8,1.9-2.7,2.9
		c-0.5,0.1-1.5,0.3-1.9,0.4c-5.8-2.2,2.9-5.9,4.2-9.2c3.5-7.5-0.8-17.9-7.8-22.1c-3-1.7-3.8,2.4-4.9,4.4l-0.6,0.5
		C179.9,123.7,179.3,122.6,179,122.1z"/>
</g>
<g id="_x23_070707ff">
	<path class="st109" d="M39,120.9c7.1-0.3,15-8.5,21.1-1.9c0.9,3.1,1.3,6.3,2.7,9.2c1.8,5.1,4.7,9.6,9.1,12.8
		c-0.3,1.2-0.6,2.4-0.9,3.6c-0.2,0.3-0.7,1-0.9,1.3c-4.1,5.2-1,12.8-2.2,19c-1.4,9-0.9,18.1,0.2,27.1c0,4.7,0.3,9.3,0.8,14
		c-12,0.2-24,0-36,0.2c-0.2-0.2-0.7-0.8-0.9-1c0.5-1.5-0.5-3-2.1-3.1c-0.6-0.6-1.3-1.3-1.9-1.9c0.5-1.5-0.5-3.1-2.1-3
		c-0.2-0.3-0.6-0.8-0.8-1.1c-1-3.1-2.4-6.1-5-8.2c-2.6-4.8-4.8-9.8-7-14.7c-0.3-3-1.2-5.9-2.8-8.4c-0.4-0.9-0.8-1.8-1.2-2.6
		c-0.2-2.7-0.7-5.4-1-8.2c-0.1-3.1-0.7-6.1-0.9-9.1c1.5,1,2.8,2.1,4.2,3.1c4.4-2.2-0.4-8.9,3-11.8c5-5.5,13.1-2.1,19.6-2.3
		C38.4,130.7,32.8,121.8,39,120.9z"/>
</g>
<g id="_x23_4d4740ff">
	<path class="st110" d="M200,116.9c3.6,1.8,5.9,6.9,4.1,10.7C202.8,124,201.5,120.4,200,116.9z"/>
</g>
<g id="_x23_8b6c41ff">
	<path class="st111" d="M180.8,123.7c1.1-2,1.8-6.1,4.9-4.4c7,4.2,11.4,14.6,7.8,22.1c-1.3,3.3-10,7-4.2,9.2
		c-2.5,0.8-4.9,1.5-7.4,2.3c-0.8-1.9-1.6-3.9-2.1-6C186.6,141.2,184.8,130.8,180.8,123.7z"/>
</g>
<g id="_x23_5a5249ff">
	<path class="st112" d="M72.1,119.8c0.5,3.8,2.7,5.5,6.9,4.6c-0.7,2.8,1.9,2.7,4,2.9c4.5,3,12.3-3.6,14.2,0.8
		C89.3,131.9,69.2,134.4,72.1,119.8z"/>
</g>
<g id="_x23_ebebebff">
	<path class="st113" d="M142,123.9c-1-5.5,7.6-1.6,10.2-3c0.6,0.1,1.9,0.3,2.6,0.4c0.5,0.2,1.6,0.6,2.1,0.8c2.9,1.1,6.2,2.2,5.2,6.1
		C155.4,126.6,148.6,125.3,142,123.9z"/>
</g>
<g id="_x23_40362aff">
	<path class="st114" d="M127.1,125.9c2.1-3.8,5.4-5.6,10.2-4.3h0.9c-0.4,2.1-0.9,4.2-1.4,6.2c-0.4,2.1-1.3,3.7-3.7,3.2
		c0.7-2.4,1.8-4.7,2.1-7.3c-2.8,1.4-4.4,4.4-7.1,6c-3.6,4-9.6,4.2-13,8.2c-1.7-0.8-3.7-0.7-5.1,0.6l-0.2-1.1
		c-0.4-5.9,7.1-3.6,10.5-6.4C122.6,129.7,124.9,127.9,127.1,125.9z"/>
</g>
<g id="_x23_767774ff">
	<path class="st115" d="M156.9,122c12.3-1.3,4.3,16.5,5.1,23.3c0.1-5.8,0.1-11.5,0-17.2C163.1,124.3,159.7,123.2,156.9,122z"/>
</g>
<g id="_x23_77746eff">
	<path class="st116" d="M127.9,129.8c2.7-1.6,4.3-4.6,7.1-6c-0.3,2.5-1.4,4.8-2.1,7.3c2.4,0.5,3.3-1.2,3.7-3.2c0,2.4,1.6,4,3.2,5.5
		c-4.4-1.3-12.6,0.7-10.5,7.3c-4.3-0.3-7.6,3-11.4,4.5c3.6-5.1,11-8.4,11.8-14.9C129.4,130.1,128.4,129.9,127.9,129.8z"/>
</g>
<g id="_x23_6b6856ff">
	<path class="st117" d="M176.1,124c1,0.4,2,0.7,3,1.1c0.7,1.3,1.5,2.6,1.9,4C179.1,127.6,177.5,125.9,176.1,124z"/>
</g>
<g id="_x23_ccc4acff">
	<path class="st118" d="M180.2,124.2l0.6-0.5c4,7.1,5.9,17.5-1,23.3l-0.7,0.3c-0.3-0.3-0.9-0.8-1.2-1.1c1.2-1.9,2.7-3.8,3.3-6
		c1-3.4,1-6.9,0-10.4l-0.2-0.8c-0.4-1.4-1.2-2.7-1.9-4C179.4,124.8,179.9,124.4,180.2,124.2z"/>
</g>
<g id="_x23_aaa9a9ff">
	<path class="st119" d="M139.9,133.3c0.6-4.2,5.4-5.7,6.8-1.1c-0.2,4,5.2,3.4,5.4,6.7c-5.1,0.4-11.5-1.3-14.2,4.1
		c-1.8,0.7-3.6,1.7-5.6,1.4c-5.4-1.2-8.8,5.6-14.3,3.8c-1,5.5,6.8,0.6,9.4-0.8c2.8-2.4,4.6,2.4,7.5,2.6c4.7,1.5-1.5,6,0.6,9.3
		c2,3.5-5.9,10.2-3.7,1.3c-5,1.2-15.1-5.6-16.1,1.1c-2.7,0.6-5.4,1.5-7.7,3.1c-3.3-2.1-4.4-5.8,0.9-5.2c0.2-3.5-4.3-3.3-6-1.2
		c-1.7,0-5.1,0.1-6.8,0.1c-4.2-0.8-9.7-1.7-12.3,2.7c-0.7-0.1-2.2-0.2-2.9-0.3c-0.2-2.1-4-7.6,0.2-6.4c0-4.4-6.7-4.3-7.1-8.6
		c0.2-2.3-1.7-1.6-3.2-1.3c0.3-1.2,0.7-2.4,0.9-3.6c0.3-0.3,0.8-0.9,1.1-1.2c2.2,1,7.6,8.9,8.3,4c3.3,0.6,3.9,7.9,6.8,3.2
		c5.2-2.5,12.2,0.6,18.1,0.1c-3.2,1.9-12.2-2.1-12.3,2.8c8.2,0.5,16.9-0.7,24.1-4.9c3.8-1.5,7.1-4.8,11.4-4.5
		C127.4,134,135.6,132,139.9,133.3z"/>
</g>
<g id="_x23_484037ff">
	<path class="st120" d="M203.3,136c-1.3-2.2-1.2-4.5,0.4-7C205,131.2,204.9,133.6,203.3,136z"/>
</g>
<g id="_x23_aea79aff">
	<path class="st121" d="M114.9,137.9c3.4-4,9.4-4.2,13-8.2c0.5,0.1,1.5,0.3,2,0.4c-0.8,6.6-8.2,9.9-11.8,14.9
		c-0.8-0.1-2.4-0.2-3.2-0.2C118.5,143.8,119.7,138.1,114.9,137.9z"/>
</g>
<g id="_x23_5b5948ff">
	<path class="st122" d="M181.2,129.9c0.9,3.4,0.9,6.9,0,10.4C181.2,136.8,181.2,133.3,181.2,129.9z"/>
</g>
<g id="_x23_717171ff">
	<path class="st123" d="M4.2,134.1l0.6,0c0.4,2,0.3,4-0.1,6c-0.3-0.4-0.8-1.4-1-1.8C3.8,136.8,3.9,135.4,4.2,134.1z"/>
</g>
<g id="_x23_cec6bbff">
	<path class="st124" d="M78.7,142.1c8.3-7.5,21-1.5,31.2-3.6c1.3-0.1,3.8-0.4,5.1-0.6c4.7,0.2,3.5,5.9-0.1,7c-2.8,0.9-5.7,2-8.6,2.3
		c-5.9,0.5-12.9-2.6-18.1-0.1c-2.9,4.7-3.6-2.6-6.8-3.2C80.4,143.3,79.5,142.7,78.7,142.1z"/>
</g>
<g id="_x23_8a8376ff">
	<path class="st125" d="M109.8,138.5c1.4-1.3,3.5-1.4,5.1-0.6C113.7,138.1,111.1,138.4,109.8,138.5z"/>
</g>
<g id="_x23_706e6aff">
	<path class="st126" d="M72.9,139.9c1.7-2.1,3.9,1.6,5.7,2.2c0.9,0.6,1.7,1.2,2.6,1.8C80.6,148.8,75.2,140.9,72.9,139.9z"/>
</g>
<g id="_x23_6b6b6bff">
	<path class="st127" d="M139.5,142.6c7.6-2.1,15,2.1,22.5,2.8c0.6,3,4.9,1.6,7.2,2.5c-7-0.5-9.2,0.5-3.3,2.3l0.7,0.2
		c5.3,3.6,8-0.9,12.5-3l0.7-0.3c0.5,2.1,1.3,4,2.1,6c-3.3,5.2,0.8,11.7,2,17.2c0.5,1.7,1,3.5,1.4,5.2c-3.2-0.2-6.4,3.9-9.2,1.5
		c1.4-2.5,5.3-3.3,5.5-6.6c-3.1-3.5-5.2-8.2-10.2-9.3c-5.1-1.7-13.6-0.6-13-8.5C152.2,149,138.1,153,139.5,142.6z"/>
	<path class="st127" d="M230.1,196.1c1-2.5,2-5.2,4-7C232.9,191.5,231.6,193.8,230.1,196.1z"/>
</g>
<g id="_x23_4f423aff">
	<path class="st128" d="M193.9,147.4c2.1-1.8,4.1-3.6,6.2-5.4c-1.4,4-5,6.8-8.9,8.3C192.1,149.3,193,148.4,193.9,147.4z"/>
</g>
<g id="_x23_8d8d8cff">
	<path class="st129" d="M132.3,144.4c2,0.2,3.8-0.7,5.6-1.4c0.4-0.1,1.2-0.3,1.6-0.4c-1.4,10.5,12.7,6.4,18.9,9.9
		c-0.6,7.9,7.9,6.8,13,8.5c-0.8,2.7-4.7,5.2-2.5,8.1c-2.2-0.2-3.7-1.6-5.2-2.9c-3.4-0.4-8.7,2.5-9.5-2.3c-0.2-2.7-2.3-7.2-4.8-3.5
		c-2.1,5.3-7.1-1.8-10.4-2.4c0.6,3.3,1.6,17.8-0.4,8c-5.7-0.7-4.1,6.3-5.5,10c-0.1-4-1.6-7.8-5.1-10c-1.4-5.3-8.2-3.4-12.4-4.3
		c0.9-6.6,11,0.1,16.1-1.1c-2.2,8.9,5.6,2.2,3.7-1.3c-2-3.3,4.2-7.8-0.6-9.3c-2.9-0.3-4.7-5-7.5-2.6c-2.6,1.4-10.4,6.2-9.4,0.8
		C123.6,150,126.9,143.2,132.3,144.4z"/>
</g>
<g id="_x23_c3c3c3ff">
	<path class="st130" d="M70.9,144.6c1.5-0.3,3.4-1,3.2,1.3c0.4,4.4,7.1,4.2,7.1,8.6c-4.2-1.2-0.4,4.3-0.2,6.4
		c-3.7-0.8-6.8-3.2-9.9-5.1c-0.1,3-0.2,6.2-0.1,9.2c-1.2-1.4-0.8-3.4-1-5.1C70.2,154.9,70.8,149.8,70.9,144.6z"/>
	<path class="st130" d="M45.8,220.1c2.7,0.8,4.3,3,6.1,5.1C49.6,223.8,47.7,221.9,45.8,220.1z"/>
</g>
<g id="_x23_747474ff">
	<path class="st131" d="M70,145.9c0.2-0.3,0.7-1,0.9-1.3c-0.1,5.1-0.7,10.2-1,15.4l-0.9,0C68.8,155.3,69.6,150.6,70,145.9z"/>
	<path class="st131" d="M10.1,164.8c1.6,2.5,2.5,5.4,2.8,8.4C11.1,170.7,10.2,167.8,10.1,164.8z"/>
</g>
<g id="_x23_8b8486ff">
	<path class="st132" d="M106.2,147.2c3-0.3,5.8-1.4,8.6-2.3c0.8,0.1,2.4,0.2,3.2,0.2c-7.2,4.2-15.9,5.3-24.1,4.9
		C94,145.1,103.1,149.2,106.2,147.2z"/>
</g>
<g id="_x23_333232ff">
	<path class="st133" d="M67.8,164.9c1.2-6.1-1.9-13.7,2.2-19c-0.4,4.7-1.2,9.4-1,14.1c-0.1,1.7-0.1,3.3-0.3,5L67.8,164.9z"/>
</g>
<g id="_x23_929292ff">
	<path class="st134" d="M169.2,147.8c2.9-0.5,5.7-1.6,8.7-1.6c0.3,0.3,0.9,0.8,1.2,1.1c-4.5,2.1-7.1,6.6-12.5,3
		c11.6,1.3,3.3-4.1-0.7-0.2C160,148.3,162.2,147.3,169.2,147.8z"/>
</g>
<g id="_x23_ddddddff">
	<path class="st135" d="M165.9,150.1c4-3.9,12.3,1.6,0.7,0.2L165.9,150.1z"/>
</g>
<g id="_x23_403933ff">
	<path class="st136" d="M189.3,150.7c0.5-0.1,1.5-0.3,1.9-0.4c-0.9,0.7-1.7,1.5-2.7,2.1c-11.2,0.3-3.5,11.4-4.6,17.9
		c-1.1-5.6-5.3-12-2-17.2C184.3,152.2,186.8,151.5,189.3,150.7z"/>
</g>
<g id="_x23_858585ff">
	<path class="st137" d="M246.2,162.2c1-3.8,0.8-8.1,3-11.5C248.6,154.7,247.8,158.6,246.2,162.2z"/>
</g>
<g id="_x23_848484ff">
	<path class="st138" d="M6.8,154.1l1.1-0.1c0.3,2.7,0.8,5.4,1,8.2C7.5,159.7,6.9,156.9,6.8,154.1z"/>
</g>
<g id="_x23_eeededff">
	<path class="st139" d="M71.1,155.8c3.1,2,6.2,4.3,9.9,5.1c0.7,0.1,2.2,0.2,2.9,0.3c0,0.5,0.2,1.4,0.2,1.9c-3.2-0.2-6.3-1.3-8.8,2.2
		c-1.5,1.9-3.2,1.9-4.4-0.3C70.9,162,71,158.9,71.1,155.8z"/>
</g>
<g id="_x23_c5c3c0ff">
	<path class="st140" d="M103,158.5c1.7-2.1,6.2-2.3,6,1.2c-5.3-0.6-4.2,3-0.9,5.2c1.4,5.9,3.6,11.5,5.7,17.2l0.3,0.7
		c-0.1,1.4-0.1,2.9-0.2,4.3c-4.1,0.3,1.8-7.4-6-3.3c1.8-2.4,2-5.4,1.4-8.2c-4.2-1.3-4.3-6-5.7-9.5c-3.7-1.4-4.6,2-5,4.9
		c-2.9-2.2-5.7-6.5-9.7-4c0.7-1,1.4-2,2.1-3c2.2-4.6-4.9-2.2-7.1-0.9c-0.1-0.5-0.2-1.4-0.2-1.9c2.6-4.4,8-3.4,12.3-2.7
		c-5.2,0.5-4,3,0.1,4C97.8,167.8,103.8,161.2,103,158.5z"/>
</g>
<g id="_x23_a4a3a3ff">
	<path class="st141" d="M139,158c3.3,0.6,8.3,7.7,10.4,2.4c2.5-3.7,4.6,0.7,4.8,3.5c0.9,4.8,6.1,2,9.5,2.3c1.6,1.3,3.1,2.8,5.2,2.9
		c2.7,2-3.1,2.2-3.1,4.5c1.7,0.7,7.1,0.7,3.6,3c-5.1,5.5,7.7,6.9,10.6,2.9c0.1,3.4-3.6,7.2-0.9,10.2c1.5,2.1,3.3,4.1,5,6.1
		c-1.4-0.2-2.8-0.4-4.2-0.6c-1.3-1.9-2.9-3.4-4.9-4.4c-1-0.7-2-1.4-3-2c-2.9-1.7-6.2-2.1-9.3-3.3c5.4,0.3,1.7-3-0.6-4.7
		c-0.1-3.3,1.7-7.7-2-9.8c-4-0.4-7.5-2.1-11-3.9c-1.8,4.5-1,9.5,2.7,12.9c-3.5,2.8-7.6,4.3-12.1,4.8c-1,0.4-1.9,0.9-2.9,1.4
		c-3.7-1.7-5.9-1.4-6.8,1c0,0.4-0.1,1.2-0.1,1.7c3.3,8.8-5.1,5.9-9.9,6.2c-3.4,0.3-10-0.6-6-4.6c1.3-1.3,1.9-2.6-0.3-3.2
		c0.1-1.4,0.1-2.9,0.2-4.3c2,2.5,3.3,5.2,6.9,5.7c-1.3,2.1-5.5,0.6-5.1,3.6c-0.7,3.3,5.7,0.5,7.8,0.8c2.7-2.5,2.7-6.7,5.1-9.5
		c2.4,0.9,3.5,0.3,2.6-2.3c0.4-1.3,1.3-3.8,1.7-5c1.4-3.6-0.2-10.6,5.5-10C140.6,175.9,139.6,161.3,139,158z"/>
</g>
<g id="_x23_e0e0deff">
	<path class="st142" d="M96.3,162.6c-4.1-1.1-5.3-3.5-0.1-4c1.7,0,5.1-0.1,6.8-0.1C103.8,161.2,97.8,167.8,96.3,162.6z"/>
</g>
<g id="_x23_aba9aaff">
	<path class="st143" d="M69,160l0.9,0c0.2,1.7-0.2,3.7,1,5.1c1.2,2.2,2.8,2.1,4.4,0.3c2.5-3.5,5.7-2.4,8.8-2.2
		c2.2-1.3,9.3-3.7,7.1,0.9c-4.8,1.4-10.4,0.3-14.6,2.9c1.8,3.1,5.9,2.9,9,3.2c2.6,4.1,6.7,8.4,4.5,13.6c3.5-1.1,6.6,1.5,10.2,0.9
		c-1.2,1.3-2.3,3.1-4.3,3.3c-1-1.4-2.8-1.3-4.2-1l-0.9-0.4c-1.2-0.6-2.5-1.1-3.8-1.6c-4.4-3-3.3-9.4-8-12.1c-1.2,1.5-2.4,3-3.9,4.1
		c-1.1,0.7-2.2,1.4-3.3,2.1l-0.8,0.2c1.7-2.2,3-4.7,3.8-7.4c-1.9-1.7-4.3-2.7-6.5-4c0.1-1,0.2-1.9,0.3-2.9
		C68.9,163.3,68.9,161.7,69,160z"/>
</g>
<g id="_x23_818282ff">
	<path class="st144" d="M171.5,161c4.9,1.1,7.1,5.8,10.2,9.3c-0.2,3.3-4.1,4.1-5.5,6.6c2.8,2.4,6-1.7,9.2-1.5
		c0.4,2.7,0.5,5.8,2.6,7.8c0.8,1.2,1.5,2.4,2.3,3.5c0.2,1.4,0.5,2.8,0.7,4.2c-3.2,1-8.7,1.9-9.8-2c0.4-2.5,4-13-0.9-9.5
		c-2.9,3.9-15.7,2.6-10.6-2.9c3.5-2.2-1.9-2.2-3.6-3c0-2.3,5.7-2.5,3.1-4.5C166.8,166.2,170.6,163.7,171.5,161z"/>
</g>
<g id="_x23_685c4eff">
	<path class="st145" d="M108.1,164.9c2.3-1.6,4.9-2.5,7.7-3.1c4.2,0.9,10.9-1,12.4,4.3c-5.7-1-11.4-3-17.2-0.9c0.2,2.8,1,5.5,2.1,8
		c0.1,0.3,0.4,0.9,0.6,1.1c0.3,8.6,9.8,5.1,15.9,6.3c0.4-3.2,2.1-2.5,1.9,0.4c0.9,2.6-0.2,3.2-2.6,2.3c-4.9-1.1-10-1.1-15-1.3
		C111.8,176.4,109.6,170.7,108.1,164.9z"/>
</g>
<g id="_x23_eeefefff">
	<path class="st146" d="M76.6,167c4.2-2.6,9.7-1.6,14.6-2.9c-0.7,1-1.4,2-2.1,3c-1.1,1.1-2.3,2.1-3.4,3.1
		C82.6,169.8,78.5,170.1,76.6,167z"/>
</g>
<g id="_x23_a88861ff">
	<path class="st147" d="M110.9,165.1c5.8-2.1,11.5-0.1,17.2,0.9c3.5,2.2,5,6,5.1,10c-0.4,1.3-1.3,3.8-1.7,5c0.1-3-1.5-3.6-1.9-0.4
		c-6.1-1.2-15.7,2.3-15.9-6.3c5.1-0.6,16.2,3.8,15.4-4.3c-4.7,2.1-13.9-2.7-16,3.1C112,170.6,111.2,167.9,110.9,165.1z"/>
</g>
<g id="_x23_72716fff">
	<path class="st148" d="M67.8,164.9l0.9,0.1c-0.1,1-0.2,1.9-0.3,2.9c-1.2,8.1,0.3,16.1,0.6,24.2l-1-0.1
		C66.9,183,66.4,173.8,67.8,164.9z"/>
</g>
<g id="_x23_929193ff">
	<path class="st149" d="M89.1,167.1c4-2.6,6.8,1.8,9.7,4c2.2,4.2,4.3,8.5,6.1,12.9c-1.5,0.2-3,0.4-4.5,0.8
		c-3.6,0.6-6.6-2.1-10.2-0.9c2.1-5.2-1.9-9.4-4.5-13.6C86.8,169.2,88,168.1,89.1,167.1z"/>
</g>
<g id="_x23_e7e7e6ff">
	<path class="st150" d="M98.8,171c0.4-2.9,1.3-6.3,5-4.9c1.4,3.5,1.5,8.2,5.7,9.5c0.5,2.8,0.3,5.8-1.4,8.2c7.8-4.2,1.9,3.6,6,3.3
		c2.3,0.6,1.6,1.9,0.3,3.2c-4,4,2.6,4.9,6,4.6c-2.9,0.9-5.9,1.7-8.6,3.1c-3,3.5,5.5,4.1,4.8,7.4c-2,5.7-0.3,8.2,5.7,6.4l0.8,0.2
		c2.8,3.9-4.1,1.5-6.4,2.7c-5.2,2.1-12.7,4.7-12.2,11.5c-2.4-1.1-0.2-4.3-0.4-6.3c0.3-0.6,1-1.7,1.3-2.2c0.7-0.9,1.3-1.8,2-2.8
		c4.2-1.2,8.1-5.1,3.8-8.9c-0.3-0.4-1-1.4-1.3-1.8c-0.5-2.5-1.2-4.9-1.8-7.3c0.9-2.8,0.5-5.6-0.9-8.1c-0.8-1.7-1.5-3.3-2.3-4.9
		C103.1,179.5,101,175.2,98.8,171z"/>
</g>
<g id="_x23_828282ff">
	<path class="st151" d="M242.1,174.2c0.2-3,1.2-5.9,2.8-8.4C244.7,168.8,243.9,171.7,242.1,174.2z"/>
	<path class="st151" d="M20,187.9c2.6,2.1,4,5.1,5,8.2C22.9,193.6,21.1,190.9,20,187.9z"/>
</g>
<g id="_x23_bababaff">
	<path class="st152" d="M149.2,167c3.5,1.8,7,3.5,11,3.9c3.7,2.1,1.9,6.5,2,9.8c2.3,1.7,6,5,0.6,4.7c-3.8-1.4-7.4-3.4-10.9-5.5
		C148.3,176.5,147.4,171.5,149.2,167z"/>
</g>
<g id="_x23_ece9e9ff">
	<path class="st153" d="M68.4,167.9c2.2,1.2,4.6,2.3,6.5,4c-0.8,2.7-2.1,5.2-3.8,7.4c-1.9,8.4,2.2,16.5,1.1,24.8
		c-0.5,0-1.5-0.1-2-0.1c-0.7-4-1.1-8-1.2-12C68.7,184,67.2,176,68.4,167.9z"/>
</g>
<g id="_x23_ac6e3fff">
	<path class="st154" d="M113.1,173.1c2.1-5.8,11.3-1.1,16-3.1c0.7,8.1-10.3,3.7-15.4,4.3C113.5,174,113.2,173.4,113.1,173.1z"/>
</g>
<g id="_x23_958285ff">
	<path class="st155" d="M75.2,177c1.5-1.1,2.7-2.6,3.9-4.1c4.7,2.8,3.6,9.1,8,12.1l-0.9,0.1C82.6,182.4,79.9,178.1,75.2,177z"/>
</g>
<g id="_x23_464847ff">
	<path class="st156" d="M185.2,175.5c1.7,2.2,2.5,5,2.6,7.8C185.7,181.2,185.6,178.2,185.2,175.5z"/>
</g>
<g id="_x23_5a282cff">
	<path class="st157" d="M75.2,177c4.6,1.2,7.4,5.4,11,8.2c-1.6,0.3-4.8,0.8-6.5,1.1c-0.4-0.1-1.3-0.3-1.7-0.4
		c-5.3,0.5-7.5-1.7-6.2-6.9C73,178.4,74.2,177.7,75.2,177z"/>
</g>
<g id="_x23_9a8c90ff">
	<path class="st158" d="M180.2,179.5c4.9-3.5,1.3,7,0.9,9.5c1.2,3.9,6.6,2.9,9.8,2c1.1,0.7,2.1,1.4,3.2,2.1c0.7,1.2,0.7,2.5,0.9,3.8
		c-4.7,3-10.2,3.2-15.6,3.3c0.8-3.8,5.8,0.3,7.7-2.9c2.6-1.5-1.8-1.1-2.9-1.5c-1.7-2-3.4-4-5-6.1
		C176.5,186.7,180.2,182.9,180.2,179.5z"/>
</g>
<g id="_x23_5a5a5aff">
	<path class="st159" d="M238.1,182.1c-0.7-1.7,0-3.6,1.8-4.1C240.2,179.6,239.4,181.1,238.1,182.1z"/>
</g>
<g id="_x23_8e8f8bff">
	<path class="st160" d="M71.1,179.3l0.8-0.2c-1.3,5.2,0.9,7.4,6.2,6.9c-4.7,1.7,0.7,11.4,3.1,14.9c-2.6,4.3,4.9,4.4,5.3,8.3
		c-0.3,5.5-6.6-0.3-9.5-1.2c0.5,1.8,2.9,4.2-0.1,4.9c-3.3-2.6-14.6,4.8-9.1,7.3c-0.8,2.3-1.7,4.6-2.5,6.9c3.5,1.2,7.3,0.7,11,0.8
		c4.4-0.2,8.4,1.6,12.6,2.3c1.5-1.8,6-5,1.7-6.1c0.7-0.7,1.3-1.4,2-2.1c4.3,1.2,10.1,4.1,11.5-1.9c0.2,2-2,5.2,0.4,6.3
		c-1.1,5.7,7.8,3.4,10.7,1.4l0.8-0.3c3.2,0.7,6.4,1.9,9.6,2.4c0.2-2.6,2.4-3,4.7-3.1c9.3-0.5,19.4,2.5,28.2-1.4
		c-5.9-0.3-11.8-0.1-17.7-0.4c3.2-1.6,7-1.5,10.3-3c7.1,0.2,14.1,1.2,21.2,1.1c2.5,0.9,4.9,3,7.7,2.3c5.6,0.4,11.1,1.6,15.1,5
		c-14.7,9.7-31.1,16.3-48.4,19.7h-36c-0.6-0.3-1.8-0.8-2.5-1.1c-4-1.4-8.3-2.1-12.5-2.7c-1.2-0.4-2.3-0.9-3.5-1.4
		c-3.2-1.7-6.8-2.1-10.4-2.8c-10.1-5.4-20.3-10.7-29.9-16.9c-1.8-2-3.4-4.3-6.1-5.1c-1-0.9-2-1.9-3-2.9c-3.9-4.2,1.6-7.8,5.1-4.1
		c5,4.3,11.2-2.2,16.9-1.4c4.6,0.7,7.2-3.5,7.4-7.6C73.3,195.8,69.2,187.7,71.1,179.3z"/>
</g>
<g id="_x23_535353ff">
	<path class="st161" d="M139.9,184.7c4.4-0.5,8.6-2,12.1-4.8c3.4,2.2,7.1,4.1,10.9,5.5c3,1.3,6.4,1.7,9.3,3.3
		c-1.4,0.2-2.8,0.4-4.2,0.8c-3,2.8-3.1,8.2-6.2,11.4c-1.6-1.3-2.9-2.8-4.2-4.3c-0.5-1.1-1-2.3-2-3.1
		C150.8,189.7,145.1,187.4,139.9,184.7z"/>
</g>
<g id="_x23_868683ff">
	<path class="st162" d="M113.9,182c5,0.2,10.1,0.1,15,1.3c-2.4,2.8-2.4,7-5.1,9.5c-2.1-0.3-8.4,2.5-7.8-0.8c-0.4-3,3.8-1.6,5.1-3.6
		c-3.6-0.5-5-3.2-6.9-5.7L113.9,182z"/>
</g>
<g id="_x23_080808ff">
	<path class="st163" d="M100.4,184.7c1.5-0.3,3-0.6,4.5-0.8c0.8,1.6,1.5,3.3,2.3,4.9c0.2,2.7,0.7,5.4,0.9,8.1
		c-1.9,2.5,0.2,5.3,1.8,7.3c0.3,0.4,1,1.4,1.3,1.8c0,0.5-0.1,1.5-0.2,1.9c-7.3-0.1-14.5-1.1-21.8-0.9c0-1.9,0-3.9,0.1-5.8
		c0.8-4.8-0.2-10,1.8-14.6l0.9,0.4c1,1.3,2.8,1.7,4.2,1C98.1,187.8,99.1,186,100.4,184.7z"/>
</g>
<g id="_x23_635858ff">
	<path class="st164" d="M86.3,185.1l0.9-0.1c1.3,0.5,2.6,1,3.8,1.6c-2,4.6-1,9.8-1.8,14.6c0-4-0.1-8.1-0.3-12.1
		c-2.8-1.5-6.1-1.9-9.1-2.9C81.4,186,84.7,185.4,86.3,185.1z"/>
</g>
<g id="_x23_0d0b0cff">
	<path class="st165" d="M137,186.1c0.9-0.5,1.9-1,2.9-1.4c5.2,2.8,11,5,15.6,8.8c-1.4,1.5-2.8,2.9-4.1,4.5c-0.8,1-1.6,2.1-2.4,3.1
		c-1.3,0.9-1.5,2.7-0.8,4.1c-2.8-1.3-5.2-1-7.2,0.7c-1,0.7-2,1.4-2.9,2.2c-5.4,3.3-3.8-3.4-4.5-7.1c-0.1-1-0.2-2-0.3-2.9
		c-0.3-3.2-2-6.1-3-9.1c0-0.4,0.1-1.2,0.1-1.7C132.8,187.9,135.1,187.6,137,186.1z"/>
</g>
<g id="_x23_a39c9eff">
	<path class="st166" d="M81.2,200.8c-2.4-3.5-7.7-13.2-3.1-14.9c0.4,0.1,1.3,0.3,1.7,0.4c3,1,6.3,1.4,9.1,2.9c0.2,4,0.3,8,0.3,12.1
		c-0.1,1.9-0.1,3.9-0.1,5.8l0,1c-0.9,0.4-1.8,0.7-2.7,1C86.1,205.2,78.6,205.1,81.2,200.8z"/>
</g>
<g id="_x23_5b545cff">
	<path class="st167" d="M130.2,187.1c0.8-2.4,3.1-2.7,6.8-1C135.1,187.6,132.8,187.9,130.2,187.1z"/>
</g>
<g id="_x23_5a5c60ff">
	<path class="st168" d="M91.9,187c1.5-0.3,3.3-0.4,4.2,1C94.6,188.7,92.9,188.2,91.9,187z"/>
</g>
<g id="_x23_454042ff">
	<path class="st169" d="M190.2,186.8c1.5,1.9,2.9,4,3.9,6.2c-1.1-0.7-2.1-1.4-3.2-2.1C190.7,189.6,190.4,188.2,190.2,186.8z"/>
</g>
<g id="_x23_5d5b5bff">
	<path class="st170" d="M107.1,188.9c1.4,2.5,1.8,5.2,0.9,8.1C107.8,194.2,107.3,191.5,107.1,188.9z"/>
</g>
<g id="_x23_512d30ff">
	<path class="st171" d="M130.2,188.7c1,3,2.7,5.9,3,9.1c-6.2,0.1-12.4,0.1-18.3,1.8c-1.5,0.2-3.1,0.4-3.2-1.6
		c2.7-1.4,5.7-2.2,8.6-3.1C125.1,194.6,133.4,197.6,130.2,188.7z"/>
</g>
<g id="_x23_0a0a0aff">
	<path class="st172" d="M167.9,189.5c1.4-0.4,2.8-0.6,4.2-0.8c1,0.6,2.1,1.3,3,2c1,2.1,2.6,3.8,4.9,4.4c-0.4,1.6-0.9,3.3-0.6,5.1
		c0.3,3.1,0.5,6.3,1.4,9.3c-0.9,0.8-1.8,1.7-2.7,2.5c-1.6,0.6-3.3,1-5,1l-0.9-0.1c-2.9-1.9-15.2,2-10.9-3.9c0.9-1.3,1.8-2.5,2.6-3.9
		C163.6,199.4,173.4,194.2,167.9,189.5z"/>
</g>
<g id="_x23_747071ff">
	<path class="st173" d="M161.6,200.9c3.2-3.2,3.3-8.6,6.2-11.4c5.5,4.8-4.3,9.9-4,15.7c-3.1,0.3-12.2-5-8.8,0.9
		c2,2.2-0.7,2.2-2.5,2.4c-5.4-0.5-8.9,3.8-13.5,5.6l-0.1-0.9c0.9-8.2,13-1.4,14-9.1c-0.3-3.1,5.8-1,3.1-4.2c0.4-1.1,0.9-2.2,1.3-3.2
		C158.8,198,160.1,199.6,161.6,200.9z"/>
</g>
<g id="_x23_4f4f4fff">
	<path class="st174" d="M175.1,190.7c2,1,3.7,2.6,4.9,4.4C177.7,194.5,176.1,192.8,175.1,190.7z"/>
</g>
<g id="_x23_3a3838ff">
	<path class="st175" d="M68,191.9l1,0.1c0.2,4,0.6,8,1.2,12c-0.1,1.2-0.4,2.3-1,3.3c-11.8-0.4-23.7-0.6-35.5-0.1
		c-0.2-0.3-0.7-0.8-1-1.1c12-0.3,24,0,36-0.2C68.3,201.3,68,196.6,68,191.9z"/>
</g>
<g id="_x23_b4b3b4ff">
	<path class="st176" d="M151.3,198c1.3-1.6,2.7-3,4.1-4.5c1,0.8,1.5,2,2,3.1c-0.5,1.1-0.9,2.1-1.3,3.2
		C154.5,199.2,152.9,198.5,151.3,198z"/>
</g>
<g id="_x23_55494cff">
	<path class="st177" d="M180.1,195.1c1.4,0.2,2.8,0.4,4.2,0.6c1.1,0.4,5.5,0,2.9,1.5c-1.9,3.2-6.9-0.9-7.7,2.9
		C179.1,198.5,179.6,196.8,180.1,195.1z"/>
</g>
<g id="_x23_737373ff">
	<path class="st178" d="M227,199.9c-0.2-2,1.2-3.5,3.1-3.8C230.1,198,228.8,199.5,227,199.9z"/>
</g>
<g id="_x23_656163ff">
	<path class="st179" d="M109.8,204.2c-1.5-2.1-3.7-4.9-1.8-7.3C108.6,199.4,109.3,201.8,109.8,204.2z"/>
</g>
<g id="_x23_533437ff">
	<path class="st180" d="M179.4,200.2c5.4-0.1,10.9-0.4,15.6-3.3c2.2,3.7,3,8,2.8,12.3c-1.4-2.8-1.3-6-1.9-8.9
		c-1.8,0.9-3.6,1.9-5.4,2.8c-4.8,0.4-11.6-0.4-9.7,6.5C180,206.4,179.7,203.3,179.4,200.2z"/>
</g>
<g id="_x23_aaa7a8ff">
	<path class="st181" d="M116.5,205.4c0.6-3.3-7.8-3.9-4.8-7.4c0.1,1.9,1.7,1.8,3.2,1.6c7.8,1.7-1.8,14.3,7.4,12.2
		C116.2,213.6,114.5,211.1,116.5,205.4z"/>
</g>
<g id="_x23_706d6bff">
	<path class="st182" d="M114.8,199.6c6-1.7,12.2-1.7,18.3-1.8c0.1,1,0.3,2,0.3,2.9c-1.4-0.9-2.8-1.9-4.5-1.9
		c0.9,5.6,4.7,11.7,1.4,17.1c0.6,1.1,1.7,0.2,2.6,0c0,1.3,0,2.6,0,4c-5.5-4.2-11.6,6.4-16.7,0.3c-1.5,2.9-7,5.9-1.1,7.3
		c-2.9,2-11.8,4.3-10.7-1.4c-0.4-6.8,7-9.4,12.2-11.5c3.5,0.1,6.9,0.4,10.4,0.3c0.4-2.4-2.4-2.4-4-3l-0.8-0.2
		C113,213.9,122.6,201.3,114.8,199.6z"/>
</g>
<g id="_x23_e0dddeff">
	<path class="st183" d="M151.3,198c1.6,0.5,3.2,1.2,4.7,1.8c2.7,3.2-3.3,1.2-3.1,4.2c-1,7.7-13.2,0.9-14,9.1c-2.8,1.7-3.3-0.1-3-2.8
		c0.7-0.8,1.4-1.6,2-2.4c1-0.7,2-1.5,2.9-2.2c2.9,1.4,5.4,1.1,7.2-0.7c1.3-0.9,1.2-2.7,0.8-4.1C149.7,200,150.5,199,151.3,198z"/>
</g>
<g id="_x23_a4a2a1ff">
	<path class="st184" d="M129,198.9c1.7,0,3.2,1,4.5,1.9c0.6,3-2.9,9.9,2.4,9.5c-0.3,2.7,0.3,4.5,3,2.8l0.1,0.9c-2,0.6-4.1,1.3-6.1,2
		c-0.9,0.2-1.9,1.1-2.6,0C133.6,210.6,129.8,204.5,129,198.9z"/>
</g>
<g id="_x23_aeacabff">
	<path class="st185" d="M190.5,203c1.8-0.9,3.6-1.9,5.4-2.8c0.6,2.9,0.6,6.2,1.9,8.9c0.5,0.2,1.4,0.5,1.9,0.6
		c6.5,0.2,13,0.3,19.5,0.4c-3.8,3.5-7.5,7.1-11.2,10.7c0-0.5-0.1-1.4-0.2-1.9c-0.6-3.2-6.8-0.8-9.1-0.1
		C193.9,215.4,197.2,205.8,190.5,203z"/>
</g>
<g id="_x23_5a5959ff">
	<path class="st186" d="M133.5,200.8c0.6,3.7-0.9,10.4,4.5,7.1c-0.7,0.8-1.4,1.6-2,2.4C130.6,210.7,134.1,203.8,133.5,200.8z"/>
</g>
<g id="_x23_787375ff">
	<path class="st187" d="M148.1,205.1c-0.7-1.4-0.5-3.1,0.8-4.1C149.4,202.4,149.5,204.2,148.1,205.1z"/>
</g>
<g id="_x23_616161ff">
	<path class="st188" d="M29.8,202.1c1.6,0,2.6,1.6,2.1,3.1C30.6,204.7,29.7,203.5,29.8,202.1z"/>
</g>
<g id="_x23_42403eff">
	<path class="st189" d="M155,206c-3.4-5.9,5.8-0.5,8.8-0.9c-0.8,1.3-1.7,2.6-2.6,3.9c-2.5-5.5-6.8,5-4.3,7.9
		c-7.3-2.6-15.1-1.5-22.6-0.7c0.3,3.8-1.7,6.8-3.4,9.9c8.5,2.7,11.1-6.8,20-4.2c-3.2,1.5-7.1,1.4-10.3,3c5.9,0.3,11.8,0.1,17.7,0.4
		c-8.8,3.9-18.9,0.9-28.2,1.4c-4.7-2.3-9.8-1.6-14.3,0.7l-0.8,0.3c-5.9-1.4-0.4-4.4,1.1-7.3c5.1,6.1,11.2-4.5,16.7-0.3
		c0-1.3,0-2.6,0-4c2-0.7,4-1.4,6.1-2c4.6-1.8,8.1-6.1,13.5-5.6C154.3,208.2,157.1,208.2,155,206z"/>
</g>
<g id="_x23_8f8181ff">
	<path class="st190" d="M180.8,209.5c-1.9-6.9,4.9-6,9.7-6.5c6.7,2.8,3.4,12.4,8.3,16c0.2,2.7-1.5,3.1-5.2,1c-0.9-3.1-0.1-6,1.4-8.8
		C190.8,208.3,185.5,209.5,180.8,209.5z"/>
</g>
<g id="_x23_b6b6b6ff">
	<path class="st191" d="M70.2,204c0.5,0,1.5,0.1,2,0.1c-0.2,4.1-2.8,8.3-7.4,7.6c-5.6-0.8-11.9,5.7-16.9,1.4
		c-3.5-3.7-8.9-0.1-5.1,4.1c-2.9-3.1-5.8-6.2-8.6-9.3c11.6-0.5,23.6,1.6,35-0.5C69.8,206.3,70.2,205.2,70.2,204z"/>
</g>
<g id="_x23_6c6c6cff">
	<path class="st192" d="M199.7,209.8c8.3-2.4,18.4,2.2,24.5-5.6c-1.5,2.1-3.1,4.2-5,6C212.7,210,206.2,209.9,199.7,209.8z"/>
</g>
<g id="_x23_8a8b8bff">
	<path class="st193" d="M140.9,205.8c2-1.7,4.4-1.9,7.2-0.7C146.3,206.9,143.9,207.1,140.9,205.8z"/>
</g>
<g id="_x23_b1b1b1ff">
	<path class="st194" d="M111.1,206.1c4.3,3.8,0.4,7.7-3.8,8.9c-1.8-4.1-2.6-2.7-2.5,1.2c-2-5.2-9.8-2.1-14.6-4.1
		c-0.8,3-2.8,4.5-6,3.9c-1.6-2.7-4.4-3.4-7.4-3.2c3-0.6,0.5-3.1,0.1-4.9c2.9,0.9,9.2,6.7,9.5,1.2c0.9-0.3,1.8-0.7,2.7-1
		c6.4-2.1,16.8,2.9,21.8-0.1C111,207.5,111.1,206.6,111.1,206.1z"/>
</g>
<g id="_x23_808080ff">
	<path class="st195" d="M33.7,207.2c11.8-0.5,23.7-0.3,35.5,0.1c-11.4,2.1-23.4,0-35,0.5L33.7,207.2z"/>
</g>
<g id="_x23_545454ff">
	<path class="st196" d="M89.1,207.1c7.3-0.2,14.5,0.8,21.8,0.9c-5,3-15.4-2-21.8,0.1L89.1,207.1z"/>
</g>
<g id="_x23_757474ff">
	<path class="st197" d="M156.9,216.9c-2.5-2.9,1.8-13.4,4.3-7.9c-4.3,5.9,8,2,10.9,3.9c-3.8,1.5-13.5-3.2-14.2,2.9
		c4.9,0.9,9.8,1.6,14.8,1c1.6-1.2,2.9-2.9,0.3-3.9c1.7,0,3.4-0.4,5-1c5.7,1,0.4,11.5-4.1,8.2c-2.5-3.5-7.5-1.8-11.2-1.9
		C160.8,217.9,158.9,217.4,156.9,216.9z"/>
</g>
<g id="_x23_5a5c5bff">
	<path class="st198" d="M180.8,209.5c4.8,0.1,10-1.2,14.2,1.6c-1.5,2.8-2.3,5.7-1.4,8.8c-6.2,2.5-2.2,7.9,3.9,7.1
		c-0.9,1.1-1.7,2.2-2.5,3.3c-4.1-3.5-9.5-4.6-15.1-5c2.4-1.6,9.4,0.5,8.2-4.2c-3,0.8-11-0.8-8.2,4.2c-2.8,0.7-5.2-1.4-7.7-2.3
		l-0.1-1c0.9-5.4-6.2-2-9.3-3.7c3.7,0.1,8.7-1.6,11.2,1.9c4.5,3.2,9.8-7.3,4.1-8.2C179,211.1,179.9,210.3,180.8,209.5z"/>
</g>
<g id="_x23_8f8f8fff">
	<path class="st199" d="M90.3,212.1c4.7,2,12.6-1.1,14.6,4.1c-0.1-3.9,0.8-5.3,2.5-1.2c-0.7,0.9-1.4,1.8-2,2.8
		c-0.5-0.1-1.6-0.3-2.1-0.4c-8-0.6-15.7,1-23.5-1.1c1.5-0.1,3-0.1,4.6-0.2C87.4,216.6,89.4,215.1,90.3,212.1z"/>
</g>
<g id="_x23_a7a7a7ff">
	<path class="st200" d="M123.1,212c1.6,0.5,4.4,0.6,4,3c-3.5,0.2-6.9-0.2-10.4-0.3C119,213.5,125.9,215.8,123.1,212z"/>
</g>
<g id="_x23_dddddcff">
	<path class="st201" d="M67.8,220.1c-5.5-2.5,5.8-9.8,9.1-7.3c3-0.2,5.8,0.5,7.4,3.2c-1.5,0.1-3,0.1-4.6,0.2
		C75.4,215.6,71.2,217.5,67.8,220.1z"/>
</g>
<g id="_x23_adadadff">
	<path class="st202" d="M158,215.8c0.7-6.1,10.4-1.4,14.2-2.9l0.9,0.1c2.6,0.9,1.4,2.6-0.3,3.9C167.9,217.4,162.9,216.7,158,215.8z"
		/>
</g>
<g id="_x23_0b0c0aff">
	<path class="st203" d="M134.4,216.2c7.5-0.9,15.3-1.9,22.6,0.7c1.9,0.4,3.8,0.9,5.8,1.4c3.1,1.7,10.2-1.6,9.3,3.7
		c-7,0.8-14.3-2.4-21.1-0.2c-8.9-2.6-11.5,6.9-20,4.2C132.6,223,134.7,220,134.4,216.2z"/>
</g>
<g id="_x23_6c6d6aff">
	<path class="st204" d="M67.8,220.1c3.4-2.6,7.6-4.4,11.9-3.9c7.8,2.2,15.5,0.5,23.5,1.1c-2.4,1.6-12.6-0.9-10.6,4.6
		c-0.7,0.7-1.4,1.4-2,2.1c-3.1-1-3.8-4.4-6.3-6.2c2.3,7.9-5.3,4.1-8.9,3.4c-0.9,3.8-6,6,0.9,6.5c-3.7-0.1-7.4,0.4-11-0.8
		C66.1,224.7,66.9,222.4,67.8,220.1z"/>
</g>
<g id="_x23_181916ff">
	<path class="st205" d="M103.2,217.3c0.5,0.1,1.6,0.3,2.1,0.4c-0.3,0.6-0.9,1.7-1.3,2.2c-1.4,6-7.1,3.1-11.5,1.9
		C90.6,216.4,100.7,218.9,103.2,217.3z"/>
</g>
<g id="_x23_454641ff">
	<path class="st206" d="M84.3,217.8c2.4,1.8,3.1,5.1,6.3,6.2c4.3,1.2-0.2,4.3-1.7,6.1c-4.2-0.8-8.2-2.5-12.6-2.3
		c-6.8-0.5-1.7-2.7-0.9-6.5C79,221.9,86.7,225.7,84.3,217.8z"/>
</g>
<g id="_x23_727171ff">
	<path class="st207" d="M198.8,219c2.4-0.8,8.5-3.1,9.1,0.1C204.9,219,201.8,218.9,198.8,219z"/>
</g>
<g id="_x23_2d2d2dff">
	<path class="st208" d="M198.8,219c3.1,0,6.1,0,9.1,0.1c0,0.5,0.1,1.4,0.2,1.9c-1.5,1.3-3.1,2.4-4.8,3.4c-3.9-1.7-3.3,1.4-5.9,2.7
		c-6.1,0.8-10.1-4.6-3.9-7.1C197.2,222,199,221.7,198.8,219z"/>
</g>
<g id="_x23_3c3d38ff">
	<path class="st209" d="M151,221.9c6.8-2.2,14.1,0.9,21.1,0.2l0.1,1C165.1,223,158.1,222,151,221.9z"/>
</g>
<g id="_x23_343434ff">
	<path class="st210" d="M179.8,225.3c-2.9-5,5.1-3.4,8.2-4.2C189.2,225.8,182.2,223.7,179.8,225.3z"/>
</g>
<g id="_x23_8a8a8aff">
	<path class="st211" d="M197.5,227c2.6-1.2,2-4.4,5.9-2.7c-2.7,2.1-5.5,4.1-8.4,6C195.8,229.2,196.6,228.1,197.5,227z"/>
</g>
<g id="_x23_6c6d68ff">
	<path class="st212" d="M115.9,227.3c4.5-2.3,9.5-3,14.3-0.7c-2.2,0.1-4.4,0.5-4.7,3.1C122.3,229.2,119.1,228,115.9,227.3z"/>
</g>
<g id="_x23_c6c6c6ff">
	<path class="st213" d="M81.8,242.1c3.5,0.7,7.2,1.1,10.4,2.8C88.6,244.6,84.5,244.8,81.8,242.1z"/>
</g>
<g id="_x23_c9c9c7ff">
	<path class="st214" d="M95.7,246.3c4.2,0.6,8.4,1.2,12.5,2.7C104,248.4,99.2,248.9,95.7,246.3z"/>
</g>
</svg>
