<?xml version="1.0" encoding="UTF-8" ?>
<!DOCTYPE svg PUBLIC "-//W3C//DTD SVG 1.1//EN" "http://www.w3.org/Graphics/SVG/1.1/DTD/svg11.dtd">
<svg width="250pt" height="250pt" viewBox="0 0 250 250" version="1.1" xmlns="http://www.w3.org/2000/svg">
<g id="#ffffffff">
<path fill="#ffffff" opacity="1.00" d=" M 0.00 0.00 L 117.63 0.00 C 104.14 1.23 90.67 3.84 78.11 9.06 C 47.99 21.17 23.04 45.50 10.22 75.34 C 4.12 89.28 0.85 104.37 0.00 119.54 L 0.00 0.00 Z" />
<path fill="#ffffff" opacity="1.00" d=" M 130.46 0.00 L 250.00 0.00 L 250.00 117.64 C 249.47 112.96 249.01 108.28 248.18 103.64 C 243.45 75.36 228.40 48.99 206.64 30.34 C 185.65 11.96 158.29 1.32 130.46 0.00 Z" />
<path fill="#ffffff" opacity="1.00" d=" M 220.57 205.58 C 238.42 184.74 248.70 157.82 250.00 130.46 L 250.00 250.00 L 132.37 250.00 C 137.55 249.42 142.74 248.90 147.85 247.91 C 176.04 242.85 202.19 227.50 220.57 205.58 Z" />
<path fill="#ffffff" opacity="1.00" d=" M 0.00 132.37 C 0.55 137.29 1.05 142.23 1.95 147.11 C 6.88 175.57 22.30 202.03 44.42 220.56 C 65.26 238.42 92.18 248.69 119.54 250.00 L 0.00 250.00 L 0.00 132.37 Z" />
</g>
<g id="#000000ff">
<path fill="#000000" opacity="1.00" d=" M 117.63 0.00 L 130.46 0.00 C 158.29 1.32 185.65 11.96 206.64 30.34 C 228.40 48.99 243.45 75.36 248.18 103.64 C 249.01 108.28 249.47 112.96 250.00 117.64 L 250.00 130.46 C 248.70 157.82 238.42 184.74 220.57 205.58 C 202.19 227.50 176.04 242.85 147.85 247.91 C 142.74 248.90 137.55 249.42 132.37 250.00 L 119.54 250.00 C 92.18 248.69 65.26 238.42 44.42 220.56 C 22.30 202.03 6.88 175.57 1.95 147.11 C 1.05 142.23 0.55 137.29 0.00 132.37 L 0.00 119.54 C 0.85 104.37 4.12 89.28 10.22 75.34 C 23.04 45.50 47.99 21.17 78.11 9.06 C 90.67 3.84 104.14 1.23 117.63 0.00 M 57.54 91.54 C 55.29 93.87 52.25 96.42 52.61 100.01 C 52.79 103.22 55.52 105.60 58.52 106.26 C 66.30 108.35 74.18 110.06 81.94 112.23 C 77.31 120.84 72.00 129.85 72.40 139.98 C 72.45 146.31 76.23 152.98 81.87 155.71 C 86.34 161.81 95.21 162.15 99.67 168.35 C 107.92 179.22 115.90 191.19 128.28 197.76 C 137.60 203.08 149.61 203.10 158.99 197.94 C 166.75 193.84 174.40 187.84 177.13 179.15 C 179.72 171.08 177.17 162.47 173.54 155.16 C 168.75 144.58 161.71 134.09 162.19 122.02 C 162.19 117.12 166.49 113.91 170.93 113.10 C 178.48 110.72 186.05 108.37 193.41 105.47 C 196.61 104.40 198.53 100.34 196.76 97.32 C 194.84 94.01 191.74 91.61 189.16 88.84 C 176.61 75.75 163.74 62.97 150.93 50.13 C 152.83 54.06 155.34 57.65 157.67 61.33 C 163.74 70.92 169.80 80.51 175.91 90.07 C 177.41 92.46 179.23 94.71 179.98 97.48 C 173.86 99.50 167.59 101.13 161.62 103.59 C 154.09 106.81 150.00 115.05 149.83 122.96 C 149.91 133.64 154.50 143.52 159.01 152.97 C 159.62 153.94 159.85 155.30 160.94 155.88 C 162.69 161.88 166.78 167.45 165.88 174.00 C 164.94 179.71 159.80 183.35 155.22 186.21 C 149.39 189.96 141.57 191.00 135.30 187.73 C 125.99 183.20 119.54 174.64 113.54 166.49 C 110.47 162.49 107.79 157.77 103.26 155.27 C 97.10 150.89 88.76 148.86 84.80 141.91 C 83.35 134.66 87.45 127.85 90.70 121.67 C 92.69 117.81 95.94 114.64 97.47 110.56 C 98.33 107.09 96.07 103.31 92.62 102.40 C 85.15 100.22 77.52 98.63 70.00 96.60 C 79.57 80.80 90.03 65.54 99.63 49.76 C 85.33 63.40 71.68 77.72 57.54 91.54 M 105.12 123.76 C 103.06 128.41 101.10 134.19 104.07 138.89 C 107.90 144.15 114.69 145.61 120.74 146.61 C 120.58 140.31 116.29 135.15 112.45 130.55 C 110.13 128.17 108.20 125.22 105.12 123.76 Z" />
</g>
<g id="#1fd3ffff">
<path fill="#1fd3ff" opacity="1.00" d=" M 57.54 91.54 C 71.68 77.72 85.33 63.40 99.63 49.76 C 90.03 65.54 79.57 80.80 70.00 96.60 C 77.52 98.63 85.15 100.22 92.62 102.40 C 96.07 103.31 98.33 107.09 97.47 110.56 C 95.94 114.64 92.69 117.81 90.70 121.67 C 87.45 127.85 83.35 134.66 84.80 141.91 C 88.76 148.86 97.10 150.89 103.26 155.27 C 96.18 156.73 89.01 155.54 81.87 155.71 C 76.23 152.98 72.45 146.31 72.40 139.98 C 72.00 129.85 77.31 120.84 81.94 112.23 C 74.18 110.06 66.30 108.35 58.52 106.26 C 55.52 105.60 52.79 103.22 52.61 100.01 C 52.25 96.42 55.29 93.87 57.54 91.54 Z" />
<path fill="#1fd3ff" opacity="1.00" d=" M 150.93 50.13 C 163.74 62.97 176.61 75.75 189.16 88.84 C 191.74 91.61 194.84 94.01 196.76 97.32 C 198.53 100.34 196.61 104.40 193.41 105.47 C 186.05 108.37 178.48 110.72 170.93 113.10 C 166.49 113.91 162.19 117.12 162.19 122.02 C 161.71 134.09 168.75 144.58 173.54 155.16 C 169.35 155.52 165.15 155.81 160.94 155.88 C 159.85 155.30 159.62 153.94 159.01 152.97 C 154.50 143.52 149.91 133.64 149.83 122.96 C 150.00 115.05 154.09 106.81 161.62 103.59 C 167.59 101.13 173.86 99.50 179.98 97.48 C 179.23 94.71 177.41 92.46 175.91 90.07 C 169.80 80.51 163.74 70.92 157.67 61.33 C 155.34 57.65 152.83 54.06 150.93 50.13 Z" />
<path fill="#1fd3ff" opacity="1.00" d=" M 105.12 123.76 C 108.20 125.22 110.13 128.17 112.45 130.55 C 116.29 135.15 120.58 140.31 120.74 146.61 C 114.69 145.61 107.90 144.15 104.07 138.89 C 101.10 134.19 103.06 128.41 105.12 123.76 Z" />
</g>
<g id="#0a64ffff">
<path fill="#0a64ff" opacity="1.00" d=" M 103.26 155.27 C 107.79 157.77 110.47 162.49 113.54 166.49 C 119.54 174.64 125.99 183.20 135.30 187.73 C 141.57 191.00 149.39 189.96 155.22 186.21 C 159.80 183.35 164.94 179.71 165.88 174.00 C 166.78 167.45 162.69 161.88 160.94 155.88 C 165.15 155.81 169.35 155.52 173.54 155.16 C 177.17 162.47 179.72 171.08 177.13 179.15 C 174.40 187.84 166.75 193.84 158.99 197.94 C 149.61 203.10 137.60 203.08 128.28 197.76 C 115.90 191.19 107.92 179.22 99.67 168.35 C 95.21 162.15 86.34 161.81 81.87 155.71 C 89.01 155.54 96.18 156.73 103.26 155.27 Z" />
</g>
</svg>
