<?xml version="1.0" encoding="utf-8"?>
<!-- Generator: Adobe Illustrator 26.0.3, SVG Export Plug-In . SVG Version: 6.00 Build 0)  -->
<svg version="1.1" id="Layer_1" xmlns="http://www.w3.org/2000/svg" xmlns:xlink="http://www.w3.org/1999/xlink" x="0px" y="0px"
	 viewBox="0 0 250 250" style="enable-background:new 0 0 250 250;" xml:space="preserve">
<style type="text/css">
	.st0{fill:#ADADAD;}
	.st1{fill:#234383;}
	.st2{fill:#132657;}
</style>
<g id="_x23_adadadff">
	<path class="st0" d="M81.9,23.1c20.6-9.1,43.9-10.6,66-6.8c12.5,2.8,24.9,7,35.6,14.2c5.1,3.5,10.6,6.5,15,11
		c5.4,5.3,11.1,10.3,15.5,16.5c5.7,9.1,12.5,17.6,16,27.9c4.8,12.2,6.7,25.2,7.5,38.2c0.2,6.5-1,12.9-1.5,19.3
		c-0.5,2.5-0.2,5.7-2.1,7.6c-3.2,1.1-6.6,0.5-9.9,0.6c-4.7-0.2-9.5,0.5-14.2-0.4c-1.5-1.2-1-3.4-1.2-5c0-4.5-1.2-9.1-3.8-12.8
		c-1.9-2.7-4.5-4.7-6.5-7.3c2.4-2.9,5.7-4.8,7.7-7.9c7.8-13.3,2-32.6-12.1-39.1c-6.8-3.3-14.5-2.3-21.9-2.4c-48.7,0-97.4,0.1-146,0
		C30,67.8,35.7,60,41.6,52.6c5.1-5.2,10-10.8,16-14.9C65.3,32.1,73,26.5,81.9,23.1z"/>
	<path class="st0" d="M143.8,102.5c0.4-2.4,3.4-1.9,5.2-2c10.4,0.1,20.7,0,31.1,0c3.8-0.2,6.9,3.3,7.6,6.8c1.1,4.5-3,9.4-7.6,9.2
		c-12,0-24-0.1-35.9,0C143.5,111.9,143.1,107.2,143.8,102.5z"/>
</g>
<g id="_x23_234383ff">
	<path class="st1" d="M16.7,101.6c34.5-0.4,69,0,103.4-0.2c1.9-0.3,2.6,2.1,2.4,3.6c-0.1,15,0.1,30.1-0.1,45.1
		c-1.3,0.8-2.8,1.4-4.4,1.3c-14,0-28,0-42,0c-2.6,0.1-5.1-0.3-7.7-0.7c0-4.8,0-9.5,0-14.3c12.9-0.1,25.8,0,38.7,0
		c1.6,0,3.3,0.1,4.3-1.3c0.2-6.2,0.1-12.4,0-18.7c-12.1,0-24.2,0-36.4,0c-2.2,0-4.3-0.3-6.5-0.7c-0.3-2.4,0.5-5.2-1.4-7
		c-6.4-0.2-12.8-0.2-19.1,0c-0.3,0.3-1,0.9-1.4,1.3c-0.1,21.8,0.1,43.7,0,65.5c-0.4-0.2-1.1-0.5-1.5-0.7c-0.4-2.2-0.6-4.5-0.9-6.7
		c-1.7,2.3-2.9,5.9-6.2,6.3c-4.5,0.8-8.3-2-11.8-4.3c-0.1,1.4-0.1,2.8-0.1,4.2c-4.3-6.2-6-13.7-8.2-20.8
		C13.3,136.6,13.9,118.7,16.7,101.6z"/>
	<path class="st1" d="M144.4,136.3c11.9-0.1,23.8,0,35.7,0c5.6-1,9.7,6.8,6.4,11.2c-1.2,1.8-3,3.6-5.4,3.2c-12.2,0-24.5,0-36.8,0
		C144.3,145.9,144.3,141.1,144.4,136.3z"/>
</g>
<g id="_x23_132657ff">
	<path class="st2" d="M38,174.3c3.3-0.4,4.5-3.9,6.2-6.3c0.2,2.2,0.5,4.5,0.9,6.7c0.4,0.2,1.1,0.5,1.5,0.7c2.8,0.5,5.6,0.2,8.5,0.3
		c52.7,0,105.3,0,158,0c4,0,8-0.4,11.9,1c-14,27-39.2,48.4-68.8,56.2c0.6,0.1,1.1,0.3,1.7,0.4c-4.7,0.2-9.3,1.6-13.9,2.4
		c-6.2,1.3-12.6,0.9-18.9,1.1c-30.3,0.8-60.3-12.8-80.6-35.1c-7.5-8-14.2-17.1-18.3-27.3c0-1.4,0.1-2.8,0.1-4.2
		C29.7,172.3,33.5,175.1,38,174.3z"/>
</g>
</svg>
