<?xml version="1.0" encoding="UTF-8" ?>
<!DOCTYPE svg PUBLIC "-//W3C//DTD SVG 1.1//EN" "http://www.w3.org/Graphics/SVG/1.1/DTD/svg11.dtd">
<svg width="250pt" height="250pt" viewBox="0 0 250 250" version="1.1" xmlns="http://www.w3.org/2000/svg">
<g id="#ffffffff">
<path fill="#ffffff" opacity="1.00" d=" M 0.00 0.00 L 250.00 0.00 L 250.00 250.00 L 0.00 250.00 L 0.00 0.00 M 96.92 4.99 C 78.91 8.65 61.94 17.06 47.70 28.64 C 45.46 30.44 42.75 31.84 41.30 34.44 C 37.25 37.28 34.40 41.42 30.99 44.93 C 28.11 47.84 25.75 51.19 23.55 54.61 C 7.80 76.59 0.53 104.15 1.65 131.03 C 2.78 141.02 3.77 151.16 7.10 160.72 C 12.07 178.11 21.75 193.82 33.53 207.41 C 43.32 217.45 54.32 226.50 66.82 232.94 C 76.91 239.21 88.52 242.36 99.97 245.08 C 114.11 247.87 128.87 248.58 143.08 245.97 C 160.62 243.69 177.54 237.04 192.30 227.31 C 195.89 224.54 200.00 222.31 202.98 218.82 C 205.71 217.42 207.83 215.11 210.06 213.05 C 220.66 202.60 229.38 190.33 235.90 176.95 C 245.87 155.68 249.71 131.54 246.47 108.25 C 243.65 86.45 234.63 65.64 221.20 48.29 C 211.06 36.19 199.29 25.01 185.08 17.87 C 183.06 16.02 180.52 14.97 178.06 13.84 C 169.55 9.62 160.42 6.54 151.13 4.63 C 142.93 2.49 134.43 2.11 126.00 2.24 C 116.30 2.38 106.21 1.74 96.92 4.99 Z" />
<path fill="#ffffff" opacity="1.00" d=" M 103.22 11.42 C 118.95 8.70 135.24 8.84 150.83 12.43 C 159.33 14.61 167.62 17.53 175.56 21.29 C 191.81 29.69 206.45 41.46 217.23 56.32 C 243.64 91.40 247.13 142.09 225.29 180.25 C 218.54 193.43 208.25 204.31 197.32 214.12 C 186.08 222.19 174.21 229.82 160.85 233.84 C 152.35 236.44 143.66 238.56 134.78 239.34 C 124.21 239.66 113.52 239.89 103.11 237.71 C 91.61 235.29 80.39 231.39 69.96 225.95 C 46.45 213.65 28.03 192.45 17.98 168.00 C 9.28 146.52 7.15 122.44 12.11 99.78 C 14.48 91.24 16.92 82.65 20.74 74.62 C 28.50 58.50 40.24 44.47 54.19 33.33 C 58.67 30.46 62.89 27.19 67.52 24.55 C 78.57 18.20 90.73 13.89 103.22 11.42 M 121.08 43.88 C 120.48 51.90 120.95 59.96 120.81 68.00 C 121.00 73.79 120.20 79.68 121.60 85.37 C 123.91 86.17 126.33 86.42 128.73 85.86 C 128.71 72.92 128.81 59.97 128.68 47.04 C 128.86 43.15 123.75 43.28 121.08 43.88 M 107.46 68.19 C 107.02 74.08 107.33 80.01 107.30 85.91 C 110.63 86.76 114.86 84.78 114.91 80.98 C 115.39 75.03 115.35 69.00 114.73 63.05 C 111.60 63.13 108.29 65.07 107.46 68.19 M 135.37 63.12 C 135.43 69.35 135.22 75.60 135.46 81.82 C 135.79 85.07 141.10 87.90 143.32 84.96 C 143.59 80.30 143.44 75.62 143.41 70.95 C 143.53 66.67 139.75 62.72 135.37 63.12 M 94.28 77.01 C 94.18 79.77 94.19 82.54 94.66 85.27 C 96.98 85.95 99.37 86.49 101.77 85.88 C 101.72 83.73 101.89 81.55 101.50 79.43 C 100.16 76.91 96.84 76.27 94.28 77.01 M 150.55 77.53 C 147.78 79.52 148.32 83.27 148.70 86.20 C 150.89 86.19 153.30 86.53 155.21 85.19 C 156.87 83.20 156.34 80.38 156.22 77.99 C 155.40 75.57 152.21 76.79 150.55 77.53 M 84.86 97.62 C 82.12 98.85 79.47 100.82 78.47 103.77 C 77.61 105.31 77.33 107.00 77.90 108.70 C 105.60 108.69 133.30 108.64 161.00 108.71 C 162.05 108.86 162.78 108.44 163.17 107.46 C 168.03 106.58 171.80 101.64 171.41 96.67 C 168.39 96.52 165.31 96.20 162.32 96.81 C 157.23 96.23 152.11 96.60 147.00 96.51 C 139.89 96.67 132.75 96.18 125.65 96.80 C 116.16 96.10 106.54 96.72 97.00 96.51 C 92.96 96.73 88.62 95.72 84.86 97.62 M 84.84 119.67 C 80.62 121.02 77.54 125.78 77.92 130.02 C 83.19 131.01 88.68 130.17 94.05 130.44 C 98.64 130.36 103.25 130.65 107.84 130.32 C 113.60 130.55 119.37 130.44 125.14 130.43 C 129.21 130.33 133.54 131.09 137.34 129.26 C 141.11 127.28 144.22 123.19 143.45 118.75 C 134.87 118.67 126.25 118.37 117.68 118.93 C 111.15 118.27 104.56 118.83 98.00 118.64 C 93.61 118.83 89.02 117.96 84.84 119.67 M 77.62 141.70 C 78.22 146.17 80.72 150.40 85.05 152.13 C 86.45 153.25 88.18 153.74 89.97 153.63 C 110.98 153.60 131.99 153.60 152.99 153.62 C 156.73 153.55 160.74 154.23 164.14 152.29 C 167.93 150.01 171.52 146.33 171.54 141.61 C 167.73 140.88 163.84 141.32 160.00 141.24 C 149.24 141.31 138.48 141.09 127.73 141.38 C 113.16 141.03 98.57 141.38 83.98 141.20 C 81.85 141.16 79.69 141.08 77.62 141.70 M 148.38 162.36 C 148.38 164.77 148.17 167.21 148.54 169.60 C 149.79 172.51 153.45 171.39 155.92 171.70 C 156.94 168.41 156.21 164.86 153.64 162.50 C 151.88 162.48 150.13 162.43 148.38 162.36 M 95.79 163.79 C 93.36 165.65 94.51 169.06 94.28 171.67 C 96.59 171.36 99.60 172.35 101.30 170.31 C 102.14 168.06 101.74 165.51 101.67 163.15 C 100.18 161.77 97.19 162.39 95.79 163.79 M 107.29 163.14 C 106.22 167.33 106.94 171.72 106.74 176.00 C 106.95 178.95 106.50 182.80 109.23 184.75 C 110.76 185.98 112.87 185.54 114.69 185.79 C 114.68 179.67 115.17 173.50 114.43 167.42 C 113.23 165.02 110.03 161.74 107.29 163.14 M 121.23 163.21 C 120.30 172.77 121.05 182.41 120.81 192.00 C 121.05 196.50 119.89 201.44 122.31 205.54 C 124.43 205.53 126.55 205.56 128.68 205.61 C 128.75 192.46 128.84 179.31 128.64 166.16 C 128.28 162.51 123.80 163.33 121.23 163.21 M 135.78 168.07 C 135.20 173.83 135.58 179.66 135.63 185.45 C 138.86 186.19 143.23 184.95 143.37 181.05 C 143.38 175.02 143.96 168.86 143.05 162.91 C 139.94 162.05 136.99 165.42 135.78 168.07 Z" />
</g>
<g id="#832b5bff">
<path fill="#832b5b" opacity="1.00" d=" M 96.92 4.99 C 106.21 1.74 116.30 2.38 126.00 2.24 C 134.43 2.11 142.93 2.49 151.13 4.63 C 150.66 4.73 149.73 4.93 149.27 5.04 C 151.63 6.88 153.96 8.77 156.15 10.81 C 154.38 11.38 152.62 11.95 150.83 12.43 C 135.24 8.84 118.95 8.70 103.22 11.42 C 102.65 9.43 102.10 7.43 101.55 5.43 C 100.01 5.28 98.47 5.11 96.92 4.99 Z" />
</g>
<g id="#9d2545ff">
<path fill="#9d2545" opacity="1.00" d=" M 47.70 28.64 C 61.94 17.06 78.91 8.65 96.92 4.99 C 98.47 5.11 100.01 5.28 101.55 5.43 C 102.10 7.43 102.65 9.43 103.22 11.42 C 90.73 13.89 78.57 18.20 67.52 24.55 C 62.89 27.19 58.67 30.46 54.19 33.33 C 55.12 31.95 55.99 30.53 56.87 29.12 C 54.20 29.15 51.31 28.62 48.84 29.92 C 46.24 31.26 43.80 32.91 41.30 34.44 C 42.75 31.84 45.46 30.44 47.70 28.64 Z" />
</g>
<g id="#6a2e69ff">
<path fill="#6a2e69" opacity="1.00" d=" M 149.27 5.04 C 149.73 4.93 150.66 4.73 151.13 4.63 C 160.42 6.54 169.55 9.62 178.06 13.84 C 180.52 14.97 183.06 16.02 185.08 17.87 C 183.42 17.38 181.75 16.94 180.08 16.47 C 178.54 18.04 177.00 19.63 175.56 21.29 C 167.62 17.53 159.33 14.61 150.83 12.43 C 152.62 11.95 154.38 11.38 156.15 10.81 C 153.96 8.77 151.63 6.88 149.27 5.04 Z" />
</g>
<g id="#542f76ff">
<path fill="#542f76" opacity="1.00" d=" M 180.08 16.47 C 181.75 16.94 183.42 17.38 185.08 17.87 C 199.29 25.01 211.06 36.19 221.20 48.29 C 219.35 50.67 217.37 53.17 217.23 56.32 C 206.45 41.46 191.81 29.69 175.56 21.29 C 177.00 19.63 178.54 18.04 180.08 16.47 Z" />
</g>
<g id="#b81b2bff">
<path fill="#b81b2b" opacity="1.00" d=" M 48.84 29.92 C 51.31 28.62 54.20 29.15 56.87 29.12 C 55.99 30.53 55.12 31.95 54.19 33.33 C 40.24 44.47 28.50 58.50 20.74 74.62 C 16.92 82.65 14.48 91.24 12.11 99.78 C 7.15 122.44 9.28 146.52 17.98 168.00 C 28.03 192.45 46.45 213.65 69.96 225.95 C 71.02 227.35 72.02 228.79 73.04 230.22 C 71.64 232.32 69.18 232.83 66.82 232.94 C 54.32 226.50 43.32 217.45 33.53 207.41 C 21.75 193.82 12.07 178.11 7.10 160.72 C 3.77 151.16 2.78 141.02 1.65 131.03 C 0.53 104.15 7.80 76.59 23.55 54.61 C 25.75 51.19 28.11 47.84 30.99 44.93 C 34.40 41.42 37.25 37.28 41.30 34.44 C 43.80 32.91 46.24 31.26 48.84 29.92 Z" />
</g>
<g id="#832b59ff">
<path fill="#832b59" opacity="1.00" d=" M 121.08 43.88 C 123.75 43.28 128.86 43.15 128.68 47.04 C 128.81 59.97 128.71 72.92 128.73 85.86 C 126.33 86.42 123.91 86.17 121.60 85.37 C 120.20 79.68 121.00 73.79 120.81 68.00 C 120.95 59.96 120.48 51.90 121.08 43.88 Z" />
<path fill="#832b59" opacity="1.00" d=" M 121.23 163.21 C 123.80 163.33 128.28 162.51 128.64 166.16 C 128.84 179.31 128.75 192.46 128.68 205.61 C 126.55 205.56 124.43 205.53 122.31 205.54 C 119.89 201.44 121.05 196.50 120.81 192.00 C 121.05 182.41 120.30 172.77 121.23 163.21 Z" />
</g>
<g id="#382f81ff">
<path fill="#382f81" opacity="1.00" d=" M 221.20 48.29 C 234.63 65.64 243.65 86.45 246.47 108.25 C 249.71 131.54 245.87 155.68 235.90 176.95 C 229.38 190.33 220.66 202.60 210.06 213.05 C 207.83 215.11 205.71 217.42 202.98 218.82 C 200.29 219.98 197.63 221.20 195.03 222.55 C 194.16 219.45 195.55 216.59 197.32 214.12 C 208.25 204.31 218.54 193.43 225.29 180.25 C 247.13 142.09 243.64 91.40 217.23 56.32 C 217.37 53.17 219.35 50.67 221.20 48.29 Z" />
</g>
<g id="#97264aff">
<path fill="#97264a" opacity="1.00" d=" M 107.46 68.19 C 108.29 65.07 111.60 63.13 114.73 63.05 C 115.35 69.00 115.39 75.03 114.91 80.98 C 114.86 84.78 110.63 86.76 107.30 85.91 C 107.33 80.01 107.02 74.08 107.46 68.19 Z" />
</g>
<g id="#6d2f6aff">
<path fill="#6d2f6a" opacity="1.00" d=" M 135.37 63.12 C 139.75 62.72 143.53 66.67 143.41 70.95 C 143.44 75.62 143.59 80.30 143.32 84.96 C 141.10 87.90 135.79 85.07 135.46 81.82 C 135.22 75.60 135.43 69.35 135.37 63.12 Z" />
</g>
<g id="#ab233eff">
<path fill="#ab233e" opacity="1.00" d=" M 94.28 77.01 C 96.84 76.27 100.16 76.91 101.50 79.43 C 101.89 81.55 101.72 83.73 101.77 85.88 C 99.37 86.49 96.98 85.95 94.66 85.27 C 94.19 82.54 94.18 79.77 94.28 77.01 Z" />
</g>
<g id="#583177ff">
<path fill="#583177" opacity="1.00" d=" M 150.55 77.53 C 152.21 76.79 155.40 75.57 156.22 77.99 C 156.34 80.38 156.87 83.20 155.21 85.19 C 153.30 86.53 150.89 86.19 148.70 86.20 C 148.32 83.27 147.78 79.52 150.55 77.53 Z" />
</g>
<g id="#8b2852ff">
<path fill="#8b2852" opacity="1.00" d=" M 84.86 97.62 C 88.62 95.72 92.96 96.73 97.00 96.51 C 106.54 96.72 116.16 96.10 125.65 96.80 C 126.06 97.03 126.87 97.49 127.28 97.72 C 127.06 100.91 126.98 104.11 126.94 107.30 C 121.98 107.37 117.02 107.37 112.06 107.31 C 112.07 104.28 111.98 101.26 111.83 98.24 C 107.17 97.74 102.49 97.62 97.82 97.67 C 93.50 97.70 89.18 97.61 84.86 97.62 Z" />
</g>
<g id="#5b2e70ff">
<path fill="#5b2e70" opacity="1.00" d=" M 125.65 96.80 C 132.75 96.18 139.89 96.67 147.00 96.51 C 152.11 96.60 157.23 96.23 162.32 96.81 C 159.97 97.39 157.62 97.99 155.25 98.46 C 155.05 101.41 154.94 104.37 154.93 107.33 C 150.34 107.35 145.76 107.40 141.17 107.39 C 141.91 104.38 142.15 101.28 141.94 98.19 C 137.08 97.44 132.17 97.79 127.28 97.72 C 126.87 97.49 126.06 97.03 125.65 96.80 Z" />
</g>
<g id="#412f7cff">
<path fill="#412f7c" opacity="1.00" d=" M 162.32 96.81 C 165.31 96.20 168.39 96.52 171.41 96.67 C 171.80 101.64 168.03 106.58 163.17 107.46 C 160.42 107.44 157.68 107.32 154.93 107.33 C 154.94 104.37 155.05 101.41 155.25 98.46 C 157.62 97.99 159.97 97.39 162.32 96.81 Z" />
</g>
<g id="#b21c2fff">
<path fill="#b21c2f" opacity="1.00" d=" M 78.47 103.77 C 79.47 100.82 82.12 98.85 84.86 97.62 C 89.18 97.61 93.50 97.70 97.82 97.67 C 97.14 100.85 96.88 104.08 96.90 107.32 C 90.87 107.34 84.85 107.66 78.83 107.21 C 78.74 106.35 78.56 104.63 78.47 103.77 Z" />
</g>
<g id="#9e2342ff">
<path fill="#9e2342" opacity="1.00" d=" M 97.82 97.67 C 102.49 97.62 107.17 97.74 111.83 98.24 C 111.98 101.26 112.07 104.28 112.06 107.31 C 107.00 107.37 101.95 107.40 96.90 107.32 C 96.88 104.08 97.14 100.85 97.82 97.67 Z" />
</g>
<g id="#732c62ff">
<path fill="#732c62" opacity="1.00" d=" M 127.28 97.72 C 132.17 97.79 137.08 97.44 141.94 98.19 C 142.15 101.28 141.91 104.38 141.17 107.39 C 136.43 107.41 131.68 107.33 126.94 107.30 C 126.98 104.11 127.06 100.91 127.28 97.72 Z" />
</g>
<g id="#a8788dff">
<path fill="#a8788d" opacity="1.00" d=" M 77.90 108.70 C 77.33 107.00 77.61 105.31 78.47 103.77 C 78.56 104.63 78.74 106.35 78.83 107.21 C 84.85 107.66 90.87 107.34 96.90 107.32 C 101.95 107.40 107.00 107.37 112.06 107.31 C 117.02 107.37 121.98 107.37 126.94 107.30 C 131.68 107.33 136.43 107.41 141.17 107.39 C 145.76 107.40 150.34 107.35 154.93 107.33 C 157.68 107.32 160.42 107.44 163.17 107.46 C 162.78 108.44 162.05 108.86 161.00 108.71 C 133.30 108.64 105.60 108.69 77.90 108.70 Z" />
</g>
<g id="#8b2853ff">
<path fill="#8b2853" opacity="1.00" d=" M 84.84 119.67 C 89.02 117.96 93.61 118.83 98.00 118.64 C 104.56 118.83 111.15 118.27 117.68 118.93 C 120.65 119.53 123.63 120.12 126.63 120.56 C 127.53 123.96 126.91 127.41 125.14 130.43 C 119.37 130.44 113.60 130.55 107.84 130.32 C 109.54 129.23 111.51 128.30 112.66 126.56 C 113.24 124.58 112.77 122.49 112.65 120.48 C 107.82 119.80 102.94 119.75 98.08 119.85 C 93.66 119.81 89.25 119.59 84.84 119.67 Z" />
</g>
<g id="#742d63ff">
<path fill="#742d63" opacity="1.00" d=" M 117.68 118.93 C 126.25 118.37 134.87 118.67 143.45 118.75 C 144.22 123.19 141.11 127.28 137.34 129.26 C 133.54 131.09 129.21 130.33 125.14 130.43 C 126.91 127.41 127.53 123.96 126.63 120.56 C 123.63 120.12 120.65 119.53 117.68 118.93 Z" />
</g>
<g id="#b31d30ff">
<path fill="#b31d30" opacity="1.00" d=" M 77.92 130.02 C 77.54 125.78 80.62 121.02 84.84 119.67 C 89.25 119.59 93.66 119.81 98.08 119.85 C 97.56 123.64 97.07 127.72 94.05 130.44 C 88.68 130.17 83.19 131.01 77.92 130.02 Z" />
</g>
<g id="#9f2442ff">
<path fill="#9f2442" opacity="1.00" d=" M 98.08 119.85 C 102.94 119.75 107.82 119.80 112.65 120.48 C 112.77 122.49 113.24 124.58 112.66 126.56 C 111.51 128.30 109.54 129.23 107.84 130.32 C 103.25 130.65 98.64 130.36 94.05 130.44 C 97.07 127.72 97.56 123.64 98.08 119.85 Z" />
</g>
<g id="#7b2b5dff">
<path fill="#7b2b5d" opacity="1.00" d=" M 77.62 141.70 C 79.69 141.08 81.85 141.16 83.98 141.20 C 98.57 141.38 113.16 141.03 127.73 141.38 C 131.10 141.67 134.47 142.04 137.84 142.34 C 138.03 145.66 138.10 148.99 138.03 152.31 C 132.09 152.36 126.15 152.39 120.21 152.37 C 120.93 149.13 121.06 145.79 120.38 142.54 C 113.70 141.48 106.93 141.37 100.19 141.63 C 92.67 141.74 85.15 141.59 77.62 141.70 Z" />
</g>
<g id="#602e6eff">
<path fill="#602e6e" opacity="1.00" d=" M 127.73 141.38 C 138.48 141.09 149.24 141.31 160.00 141.24 C 163.84 141.32 167.73 140.88 171.54 141.61 C 165.75 141.73 159.94 141.53 154.18 142.26 C 153.98 145.61 153.89 148.97 153.93 152.34 C 148.63 152.38 143.33 152.37 138.03 152.31 C 138.10 148.99 138.03 145.66 137.84 142.34 C 134.47 142.04 131.10 141.67 127.73 141.38 Z" />
</g>
<g id="#b01d32ff">
<path fill="#b01d32" opacity="1.00" d=" M 77.62 141.70 C 85.15 141.59 92.67 141.74 100.19 141.63 C 100.89 145.15 101.13 148.74 101.07 152.32 C 95.73 152.36 90.38 152.55 85.05 152.13 C 80.72 150.40 78.22 146.17 77.62 141.70 Z" />
</g>
<g id="#972649ff">
<path fill="#972649" opacity="1.00" d=" M 100.19 141.63 C 106.93 141.37 113.70 141.48 120.38 142.54 C 121.06 145.79 120.93 149.13 120.21 152.37 C 113.83 152.40 107.45 152.37 101.07 152.32 C 101.13 148.74 100.89 145.15 100.19 141.63 Z" />
</g>
<g id="#432f7bff">
<path fill="#432f7b" opacity="1.00" d=" M 154.18 142.26 C 159.94 141.53 165.75 141.73 171.54 141.61 C 171.52 146.33 167.93 150.01 164.14 152.29 C 160.74 152.41 157.33 152.34 153.93 152.34 C 153.89 148.97 153.98 145.61 154.18 142.26 Z" />
</g>
<g id="#c4a6b6ff">
<path fill="#c4a6b6" opacity="1.00" d=" M 85.05 152.13 C 90.38 152.55 95.73 152.36 101.07 152.32 C 107.45 152.37 113.83 152.40 120.21 152.37 C 126.15 152.39 132.09 152.36 138.03 152.31 C 143.33 152.37 148.63 152.38 153.93 152.34 C 157.33 152.34 160.74 152.41 164.14 152.29 C 160.74 154.23 156.73 153.55 152.99 153.62 C 131.99 153.60 110.98 153.60 89.97 153.63 C 88.18 153.74 86.45 153.25 85.05 152.13 Z" />
</g>
<g id="#583176ff">
<path fill="#583176" opacity="1.00" d=" M 148.38 162.36 C 150.13 162.43 151.88 162.48 153.64 162.50 C 156.21 164.86 156.94 168.41 155.92 171.70 C 153.45 171.39 149.79 172.51 148.54 169.60 C 148.17 167.21 148.38 164.77 148.38 162.36 Z" />
</g>
<g id="#a9243dff">
<path fill="#a9243d" opacity="1.00" d=" M 95.79 163.79 C 97.19 162.39 100.18 161.77 101.67 163.15 C 101.74 165.51 102.14 168.06 101.30 170.31 C 99.60 172.35 96.59 171.36 94.28 171.67 C 94.51 169.06 93.36 165.65 95.79 163.79 Z" />
</g>
<g id="#97274bff">
<path fill="#97274b" opacity="1.00" d=" M 107.29 163.14 C 110.03 161.74 113.23 165.02 114.43 167.42 C 115.17 173.50 114.68 179.67 114.69 185.79 C 112.87 185.54 110.76 185.98 109.23 184.75 C 106.50 182.80 106.95 178.95 106.74 176.00 C 106.94 171.72 106.22 167.33 107.29 163.14 Z" />
</g>
<g id="#6c2e68ff">
<path fill="#6c2e68" opacity="1.00" d=" M 135.78 168.07 C 136.99 165.42 139.94 162.05 143.05 162.91 C 143.96 168.86 143.38 175.02 143.37 181.05 C 143.23 184.95 138.86 186.19 135.63 185.45 C 135.58 179.66 135.20 173.83 135.78 168.07 Z" />
</g>
<g id="#682e6aff">
<path fill="#682e6a" opacity="1.00" d=" M 160.85 233.84 C 174.21 229.82 186.08 222.19 197.32 214.12 C 195.55 216.59 194.16 219.45 195.03 222.55 C 197.63 221.20 200.29 219.98 202.98 218.82 C 200.00 222.31 195.89 224.54 192.30 227.31 C 177.54 237.04 160.62 243.69 143.08 245.97 C 141.89 245.90 140.72 245.82 139.54 245.73 C 139.47 244.13 139.86 242.41 139.18 240.91 C 137.83 240.11 136.29 239.72 134.78 239.34 C 143.66 238.56 152.35 236.44 160.85 233.84 Z" />
</g>
<g id="#8e2952ff">
<path fill="#8e2952" opacity="1.00" d=" M 69.96 225.95 C 80.39 231.39 91.61 235.29 103.11 237.71 C 113.52 239.89 124.21 239.66 134.78 239.34 C 136.29 239.72 137.83 240.11 139.18 240.91 C 139.86 242.41 139.47 244.13 139.54 245.73 C 140.72 245.82 141.89 245.90 143.08 245.97 C 128.87 248.58 114.11 247.87 99.97 245.08 C 88.52 242.36 76.91 239.21 66.82 232.94 C 69.18 232.83 71.64 232.32 73.04 230.22 C 72.02 228.79 71.02 227.35 69.96 225.95 Z" />
</g>
</svg>
