<?xml version="1.0" encoding="utf-8"?>
<!-- Generator: Adobe Illustrator 26.0.3, SVG Export Plug-In . SVG Version: 6.00 Build 0)  -->
<svg version="1.1" id="Layer_1" xmlns="http://www.w3.org/2000/svg" xmlns:xlink="http://www.w3.org/1999/xlink" x="0px" y="0px"
	 viewBox="0 0 250 250" style="enable-background:new 0 0 250 250;" xml:space="preserve">
<style type="text/css">
	.st0{fill:#A5A19D;}
	.st1{fill:#4E4B4B;}
	.st2{fill:#191613;}
	.st3{fill:#494645;}
	.st4{fill:#9B9794;}
	.st5{fill:#4B4847;}
	.st6{fill:#060504;}
	.st7{fill:#9E9996;}
	.st8{fill:#4B4644;}
	.st9{fill:#2B2521;}
	.st10{fill:#D0CCCA;}
	.st11{fill:#A39E9A;}
	.st12{fill:#938A84;}
	.st13{fill:#38210C;}
	.st14{fill:#412E1C;}
	.st15{fill:#AFA399;}
	.st16{fill:#50341E;}
	.st17{fill:#292420;}
	.st18{fill:#B8A49E;}
	.st19{fill:#60391A;}
	.st20{fill:#4F3218;}
	.st21{fill:#E69A97;}
	.st22{fill:#E1250F;}
	.st23{fill:#96200B;}
	.st24{fill:#71411C;}
	.st25{fill:#E2190A;}
	.st26{fill:#9F2911;}
	.st27{fill:#E1180C;}
	.st28{fill:#D5260B;}
	.st29{fill:#862710;}
	.st30{fill:#98928E;}
	.st31{fill:#F47B11;}
	.st32{fill:#F4833A;}
	.st33{fill:#D24427;}
	.st34{fill:#F4760C;}
	.st35{fill:#372415;}
	.st36{fill:#ED8840;}
	.st37{fill:#F9C259;}
	.st38{fill:#3B210B;}
	.st39{fill:#F4A55F;}
	.st40{fill:#F8C066;}
	.st41{fill:#DC3314;}
	.st42{fill:#C31508;}
	.st43{fill:#B8180A;}
	.st44{fill:#F69D54;}
	.st45{fill:#FADDB0;}
	.st46{fill:#F9D99D;}
	.st47{fill:#9F4B19;}
	.st48{fill:#934713;}
	.st49{fill:#A6280E;}
	.st50{fill:#F9E2AA;}
	.st51{fill:#F9E2A2;}
	.st52{fill:#F21F11;}
	.st53{fill:#ED7B18;}
	.st54{fill:#F82B0A;}
	.st55{fill:#C21909;}
	.st56{fill:#E7160A;}
	.st57{fill:#EB1C08;}
	.st58{fill:#832D0D;}
	.st59{fill:#DF0A05;}
	.st60{fill:#9A240D;}
	.st61{fill:#1C1713;}
	.st62{fill:#C90762;}
	.st63{fill:#E23788;}
	.st64{fill:#4D4844;}
	.st65{fill:#E14C4E;}
	.st66{fill:#F69838;}
	.st67{fill:#21150B;}
	.st68{fill:#D01B20;}
	.st69{fill:#FACE60;}
	.st70{fill:#F7C760;}
	.st71{fill:#F56F24;}
	.st72{fill:#482D13;}
	.st73{fill:#653D1C;}
	.st74{fill:#EF190A;}
	.st75{fill:#663110;}
	.st76{fill:#9F5008;}
	.st77{fill:#F4240F;}
	.st78{fill:#972759;}
	.st79{fill:#060404;}
	.st80{fill:#676463;}
	.st81{fill:#6D3831;}
	.st82{fill:#63605F;}
	.st83{fill:#070503;}
	.st84{fill:#B5702C;}
	.st85{fill:#613713;}
	.st86{fill:#A4A09D;}
	.st87{fill:#F6A755;}
	.st88{fill:#4C4948;}
	.st89{fill:#B25477;}
	.st90{fill:#F49D40;}
	.st91{fill:#979492;}
	.st92{fill:#EA65A8;}
	.st93{fill:#E82117;}
	.st94{fill:#860741;}
	.st95{fill:#524E4D;}
	.st96{fill:#B15474;}
	.st97{fill:#5A2E0D;}
	.st98{fill:#D2D0CF;}
	.st99{fill:#4A4746;}
	.st100{fill:#221408;}
	.st101{fill:#56300F;}
	.st102{fill:#434140;}
	.st103{fill:#562C1D;}
	.st104{fill:#8B5C2F;}
	.st105{fill:#592B17;}
	.st106{fill:#E4398F;}
	.st107{fill:#532F0E;}
	.st108{fill:#F0B46F;}
	.st109{fill:#762C37;}
	.st110{fill:#7B7876;}
	.st111{fill:#5BB5C7;}
	.st112{fill:#708123;}
	.st113{fill:#92C433;}
	.st114{fill:#ACED3C;}
	.st115{fill:#376F78;}
	.st116{fill:#36342A;}
	.st117{fill:#34ADCB;}
	.st118{fill:#7AAA29;}
	.st119{fill:#456B6B;}
	.st120{fill:#87827D;}
	.st121{fill:#C0BDBA;}
	.st122{fill:#CAC8C7;}
	.st123{fill:#534B15;}
	.st124{fill:#503510;}
	.st125{fill:#065264;}
	.st126{fill:#3E2009;}
	.st127{fill:#898380;}
	.st128{fill:#ACED39;}
	.st129{fill:#524412;}
	.st130{fill:#5E9305;}
	.st131{fill:#37291E;}
	.st132{fill:#522B0E;}
	.st133{fill:#077B98;}
	.st134{fill:#4E696A;}
	.st135{fill:#842C0E;}
	.st136{fill:#1C6170;}
	.st137{fill:#B22111;}
	.st138{fill:#EE932D;}
	.st139{fill:#DE1909;}
	.st140{fill:#8A8785;}
	.st141{fill:#3F3122;}
	.st142{fill:#E01309;}
	.st143{fill:#532F10;}
	.st144{fill:#CDCAC9;}
	.st145{fill:#C3C0BF;}
	.st146{fill:#8F2D0F;}
	.st147{fill:#807D64;}
	.st148{fill:#F19A28;}
	.st149{fill:#8CE206;}
	.st150{fill:#3B90A1;}
	.st151{fill:#F46D15;}
	.st152{fill:#8D8784;}
	.st153{fill:#D61507;}
	.st154{fill:#F3640D;}
	.st155{fill:#34AECB;}
	.st156{fill:#E8190A;}
	.st157{fill:#F7CE63;}
	.st158{fill:#F6D267;}
	.st159{fill:#D18E21;}
	.st160{fill:#8A7A68;}
	.st161{fill:#CEC8C5;}
	.st162{fill:#98260B;}
	.st163{fill:#85260D;}
	.st164{fill:#EB200A;}
	.st165{fill:#D91609;}
	.st166{fill:#EB8B35;}
	.st167{fill:#93250D;}
	.st168{fill:#291605;}
	.st169{fill:#D60B05;}
	.st170{fill:#F76C16;}
	.st171{fill:#F5CC5C;}
	.st172{fill:#E17714;}
	.st173{fill:#ACC69A;}
	.st174{fill:#DA0B05;}
	.st175{fill:#E4A118;}
	.st176{fill:#A3230A;}
	.st177{fill:#E67A23;}
	.st178{fill:#EB1508;}
	.st179{fill:#E74F12;}
	.st180{fill:#CE5526;}
	.st181{fill:#F7DE94;}
	.st182{fill:#F2DAA6;}
	.st183{fill:#FAD165;}
	.st184{fill:#E69C54;}
	.st185{fill:#F1A320;}
	.st186{fill:#662F0E;}
	.st187{fill:#F89844;}
	.st188{fill:#65300F;}
	.st189{fill:#D13214;}
	.st190{fill:#F1863B;}
	.st191{fill:#F7BF85;}
	.st192{fill:#E3451A;}
	.st193{fill:#F9CDA9;}
	.st194{fill:#160C04;}
	.st195{fill:#A5260F;}
	.st196{fill:#A11E0A;}
	.st197{fill:#9E230E;}
	.st198{fill:#F75A59;}
	.st199{fill:#573C22;}
	.st200{fill:#5E2F14;}
	.st201{fill:#C79891;}
	.st202{fill:#F9B7B5;}
	.st203{fill:#040201;}
	.st204{fill:#553619;}
	.st205{fill:#F9D1D0;}
	.st206{fill:#3A230E;}
	.st207{fill:#B2A296;}
	.st208{fill:#413122;}
	.st209{fill:#543E2A;}
	.st210{fill:#282421;}
	.st211{fill:#B2AAA4;}
	.st212{fill:#1A1716;}
	.st213{fill:#090706;}
	.st214{fill:#8D8987;}
	.st215{fill:#706A68;}
	.st216{fill:#BAB6B4;}
	.st217{fill:#6E6A69;}
	.st218{fill:#797674;}
	.st219{fill:#C4C1C0;}
	.st220{fill:#423F3F;}
	.st221{fill:#53504E;}
	.st222{fill:#84807E;}
	.st223{fill:#C0BCBA;}
</style>
<g id="_x23_a5a19dff">
	<path class="st0" d="M105.6,0h3.8c-1.5,9.7-16.9-0.2-19.5,7.9c-3.3,0.7-6.7,0.8-10,1.8l-0.9,0.3c0.5-4.3,7-0.4,9.3-3.7
		C92.6,0.4,103,7.9,105.6,0z"/>
</g>
<g id="_x23_4e4b4bff">
	<path class="st1" d="M109.4,0h1.9c-0.1,11.6-15.4,2-21.4,7.9C92.5-0.2,107.9,9.7,109.4,0z"/>
</g>
<g id="_x23_191613ff">
	<path class="st2" d="M111.3,0h28.5c-1.3,10.6,13.8,4.4,20.1,6.1c2.4,4.3,8,1.5,11.3,3.9c1.6,6.7-7.3,7-9.3,11.6
		c7-0.4,8.1,7.4,14.3,9.3c3.1,3.7,0.9,5.4-3,3c-8.3-4.7-19.1-2.3-26.7-8.4c-20.3,1.1-42.8-4.6-60.7,6.4c-1.2,0-2.4-0.1-3.5-0.2
		c-6.4,1.3-13.6,0.1-19.1-3.9c0.5-3.2,2.4-6.3,0.8-9.7c2.5-0.5,6.3,1,7.8-1.1c0.8-5,9.8-0.8,8.1-7.1c2.3-1.4,9.9,2.6,10-1.8
		C95.9,2,111.2,11.6,111.3,0 M104.4,8.4c-4.8,2.6-9.5,5.3-15.1,3.9c-4,5.2-12.2,1.7-15.1,7.8c-1.6,2.1-6.3,1-5.1,4.7
		c5.8,0.3,10.4,4.5,15.9,5.2c4.6-4.9,12.2-1.4,17.2-5.9c21.8,0.5,44.8-3,64.8,5.8c2.3-1.6,0.2-4.5-2-4.8c-5.6,2-7-5.4-11.9-5.2
		c-4.6,0-10.2-1-12.5-5.5C130.8,5.8,116.3,10,104.4,8.4z"/>
</g>
<g id="_x23_494645ff">
	<path class="st3" d="M139.8,0h1.8c1.4,8.5,13.5,1.9,18.2,6.1C153.6,4.4,138.5,10.6,139.8,0z"/>
</g>
<g id="_x23_9b9794ff">
	<path class="st4" d="M141.6,0h3.8c2.8,7.8,13,0.9,18,6.4C166.1,9,171,6.5,173,10c1.7,3.1,6.4,0.9,8.1,4.1c0,0.5,0,1.4,0,1.8
		c-2.5-3.6-8-1.6-9.9-5.9c-3.3-2.3-8.9,0.4-11.3-3.9C155.1,1.9,143,8.5,141.6,0z"/>
</g>
<g id="_x23_4b4847ff">
	<path class="st5" d="M79.9,9.8c3.2-1.1,6.7-1.2,10-1.8C89.8,12.4,82.3,8.4,79.9,9.8z"/>
</g>
<g id="_x23_060504ff">
	<path class="st6" d="M104.4,8.4c12,1.6,26.4-2.6,36.2,6c2.4,4.5,7.9,5.5,12.5,5.5c4.9-0.2,6.3,7.2,11.9,5.2c2.1,0.3,4.3,3.2,2,4.8
		c-20-8.9-43-5.4-64.8-5.8c-5,4.5-12.6,1-17.2,5.9c-5.5-0.7-10.1-4.9-15.9-5.2c-1.1-3.7,3.6-2.6,5.1-4.7c2.9-6.1,11.1-2.6,15.1-7.8
		C94.9,13.7,99.6,11,104.4,8.4z"/>
</g>
<g id="_x23_9e9996ff">
	<path class="st7" d="M70.9,13.9c1-3.3,5.8-1.7,8.2-3.8C78.6,14,73.8,12.8,70.9,13.9z"/>
</g>
<g id="_x23_4b4644ff">
	<path class="st8" d="M79.1,10.1l0.9-0.3c1.7,6.4-7.3,2.2-8.1,7.1c-1.6,2.2-5.4,0.6-7.8,1.1c2.5,0,4.5-0.8,5.9-2.2
		c0.2-0.5,0.7-1.5,1-2C73.8,12.8,78.6,14,79.1,10.1z"/>
</g>
<g id="_x23_2b2521ff">
	<path class="st9" d="M171.2,10c1.9,4.3,7.4,2.3,9.9,5.9c3.9,0,6.7,1.9,8.4,5.1c-2.2,4.4-8.9,0.4-12.5,3c-3.4,1-1.1,4.6-0.8,7
		c-6.2-1.9-7.3-9.7-14.3-9.3C163.9,17,172.8,16.7,171.2,10z"/>
</g>
<g id="_x23_d0cccaff">
	<path class="st10" d="M181.1,14.1c3.4,1.4,8.7-0.2,9.4,4.5c-2.6-2.3-6.1-2.4-9.4-2.7C181.1,15.4,181.1,14.5,181.1,14.1z"/>
</g>
<g id="_x23_a39e9aff">
	<path class="st11" d="M52.9,23.8c3.8-5.5,10.6-8.9,17-7.9c-1.4,1.5-3.4,2.2-5.9,2.2c-2.2,3.6-7.5,1.7-9.3,5.7
		C54.2,23.8,53.4,23.8,52.9,23.8z"/>
</g>
<g id="_x23_938a84ff">
	<path class="st12" d="M181.1,15.9c3.3,0.3,6.8,0.4,9.4,2.7c9.7,2.7,14.1,13.4,21.4,19.7l-0.1,0.9c-8.3-5.1-12.1-17.3-22.4-18.2
		C187.7,17.8,184.9,15.9,181.1,15.9z"/>
</g>
<g id="_x23_38210cff">
	<path class="st13" d="M54.7,23.8c1.8-3.9,7.1-2.1,9.3-5.7c1.6,3.4-0.3,6.5-0.8,9.7c5.5,3.9,12.6,5.1,19.1,3.9c-1.5,1-3,2-4.4,3.1
		c-8.4,6.8-19.8,8-30.2,6.7c-0.3-0.4-0.9-1.2-1.2-1.6c1-4.1,6.2-5.7,6.7-10C53.4,27.7,53.7,25.6,54.7,23.8z"/>
</g>
<g id="_x23_412e1cff">
	<path class="st14" d="M189.5,21c10.2,0.9,14.1,13.1,22.4,18.2l0.5,0.6c4.6,2.9-7.8,10.1-3.6,0.6c-6.2-4.1-15.1-11.6-23.7-8.3
		c2,3.2,4.5,6.1,5.1,9.9c-5.7,0.2-11.3-2.9-16.9-2.5c-5.4,3.6-11.7,5.3-17.1,8.7c-8-1.7-10.3,8.7-15.2,12.9
		c-6.3,9.3-20.2,7.2-28.1,1c-4-4.5-5.5-12.1-11.6-14.4C93,44.1,88,33.5,77.8,34.7c1.4-1.1,2.9-2.1,4.4-3.1c1.2,0.1,2.4,0.2,3.5,0.2
		c3.7,0.3,7.6-3.8,10.8-0.4c6.3,8.9,14.5,18.2,25.8,20.1c20.6,7,30.6-22.8,50.8-17.7c3.9,2.4,6,0.7,3-3c-0.3-2.3-2.6-6,0.8-7
		C180.6,21.3,187.2,25.3,189.5,21z"/>
</g>
<g id="_x23_afa399ff">
	<path class="st15" d="M47,30.9c1.7-2.5,3.1-5.6,6-7.1C51.6,26.7,49.5,29,47,30.9z"/>
</g>
<g id="_x23_50341eff">
	<path class="st16" d="M52.9,23.8c0.4,0,1.3,0,1.7,0c-1,1.9-1.3,4-1.4,6c-0.5,4.4-5.7,5.9-6.7,10c-5.2-0.8-4.9,4.7-3.7,8.3
		c-3.9,0.1-6.2-3.8-6.1-7.4c4-2.6,7.8-5.7,10.3-9.9C49.5,29,51.6,26.7,52.9,23.8z"/>
</g>
<g id="_x23_292420ff">
	<path class="st17" d="M85.8,31.8c17.9-11,40.4-5.2,60.7-6.4c7.6,6.1,18.4,3.7,26.7,8.4C153,28.8,143,58.5,122.4,51.5
		c-11.3-2-19.5-11.2-25.8-20.1C93.4,28.1,89.4,32.2,85.8,31.8z"/>
</g>
<g id="_x23_b8a49eff">
	<path class="st18" d="M33.1,39.2c6.2,0.5,8.9-6,13.8-8.3c-2.5,4.2-6.3,7.2-10.3,9.9l-0.8-0.2c-4.5-2.3-3.7,4.2-4.6,7.2
		c-6.3,3.5-8.7,10.1-12.3,15.9l-0.8,0.4c-4,2.5,0.6,9.5-5.2,12c-0.6,1.2-1.7,3.6-2.2,4.7c-0.5-6.2,6-10,4.7-16.4
		c5.7-4.3,6.3-12.5,12.8-16.2C32.1,46.7,29.1,39.9,33.1,39.2z"/>
</g>
<g id="_x23_60391aff">
	<path class="st19" d="M185.1,32c8.6-3.3,17.5,4.2,23.7,8.3c-4.3,9.5,8.1,2.3,3.6-0.6c0.7,0.1,2.2,0.2,2.9,0.3c0,4.5-9.8,12.2-7.3,2
		c0.9-3.4-4.6-2.5-4.9,0.2c-8,2.3-18.2-2.2-24.6,4.2c-0.9,2-6.7-1.1-6.5,2.3l-0.2,0.8c-1.8,1.5-4.1,2.8-4,5.5
		c-1.6,4.9-7.9,1.7-10.5,5.2c-0.3,0.5-1,1.4-1.3,1.9c-3.3-0.4-6.2,0.2-8.1,2.9c-4-6.3,5.2-4.4,4.1-9.8c5.7,4.3,8.5-6.1,1.1-4.1
		c1-1,2.1-1.9,3.1-2.9c5.4-3.4,11.7-5.1,17.1-8.7c5.6-0.4,11.2,2.7,16.9,2.5C189.6,38.1,187.1,35.2,185.1,32z"/>
</g>
<g id="_x23_4f3218ff">
	<path class="st20" d="M47.7,41.4c10.4,1.3,21.8,0.1,30.2-6.7c10.2-1.2,15.2,9.4,23.5,13c6.2,2.3,7.6,9.8,11.6,14.4
		c7.9,6.2,21.8,8.3,28.1-1c4.9-4.2,7.2-14.6,15.2-12.9c-1,1-2.1,2-3.1,2.9c-1.1,1.1-1,2.7-1.1,4.1c1.1,5.4-8.1,3.5-4.1,9.8
		c-1.5,1.5-3,3.1-4.2,4.8c-3.6,3-5.7,7.4-9.5,10.2c-2.3,4.3-0.1,10-3.4,13.9c-3.7,5.7-0.5,13-1.9,19.3c-1.3-0.3-3,0.1-4-1
		c7.8,1.8,2.6-22.9-1.8-12c0.8-9-5.4-16.8-9.9-24.1c-1.2-1.2-2.5-2.3-3.6-3.6c1.3-4.5-0.3-7.5-5.9-7.2c0.2-5.2-7.5-4.9-4.8-10.2
		c0.2-1.5-0.2-2.9-1-4.1c-6.4-4.2-13.7-6.5-20.1-10.7c-3.7,1-8.5-1.2-11,2.4C61.1,41,52.1,46.9,47.7,41.4z"/>
</g>
<g id="_x23_e69a97ff">
	<path class="st21" d="M211.9,38.2c5,1,11.5-0.3,7.9,8l-0.7-0.5l-0.1-0.9c0.5-2.6-0.7-5.3-3.8-4.7c-0.7-0.1-2.2-0.2-2.9-0.3
		l-0.5-0.6L211.9,38.2z"/>
</g>
<g id="_x23_e1250fff">
	<path class="st22" d="M31.2,47.8c0.9-3,0.2-9.5,4.6-7.2c-2.5,5.2,3.5,9,8,9.7c-2,7.6,11.8,6.9,7.5,15c-2.5-5.4-8-6.5-12.7-9
		C36.2,53.3,33.9,50.3,31.2,47.8z"/>
</g>
<g id="_x23_96200bff">
	<path class="st23" d="M42.8,48.2c-1.2-3.6-1.5-9.2,3.7-8.3c0.3,0.4,0.9,1.2,1.2,1.6c4.4,5.5,13.4-0.4,19.2,1.2
		c1.6,1.3,3.1,2.9,4.2,4.7c-4.8-4.6-11.8-3.7-17.1-0.4c-4.1-2-11.9-7.3-10,0.9c0,0.6-0.1,1.8-0.1,2.4c-4.5-0.6-10.5-4.4-8-9.7
		l0.8,0.2C36.5,44.3,38.9,48.3,42.8,48.2z"/>
</g>
<g id="_x23_71411cff">
	<path class="st24" d="M66.8,42.6c2.6-3.7,7.3-1.4,11-2.4c6.4,4.2,13.8,6.5,20.1,10.7c-6.8-1.4-3,9.7,1,4.1c-2.7,5.3,5.1,5,4.8,10.2
		c5.6-0.3,7.1,2.7,5.9,7.2l-0.6-0.6c-1.3-3.1-3.9-4.8-6.8-6.1c-1.1-4.2-7.3-1.4-8.3-5.8c-2.8-3.9-8.3-2-10.8-5
		c-1.4-3.4-4.9-9.1-9.3-7.3c-0.6,0.1-1.7,0.4-2.2,0.6L71,47.3C69.9,45.5,68.5,44,66.8,42.6z"/>
</g>
<g id="_x23_e2190aff">
	<path class="st25" d="M203.1,42.2c0.2-2.7,5.7-3.6,4.9-0.2c-2.5,10.3,7.3,2.5,7.3-2c3.1-0.6,4.3,2.1,3.8,4.7c-5-0.3-3.4,5.7-4.3,9
		c-3,2.1-6.8,3.1-9.2,6.1c-1.9,1.4-3.7,2.9-5.5,4.3c0-1.7,0-3.3-0.1-5c3.9-2.4,7.8-9.5-0.1-8c-6-7-15.2-3.6-22.8-1
		c-0.1-0.5-0.2-1.6-0.3-2.1c5,0.3,7.7-6,13.1-4C193.8,43.2,200.6,46.6,203.1,42.2z"/>
</g>
<g id="_x23_9f2911ff">
	<path class="st26" d="M178.5,46.4c6.4-6.4,16.6-1.9,24.6-4.2c-2.5,4.4-9.4,0.9-13.2,1.8c-5.4-2-8.1,4.3-13.1,4
		c-1.6,0.1-3.3,0.3-4.9,0.6C171.9,45.3,177.6,48.5,178.5,46.4z"/>
</g>
<g id="_x23_e1180cff">
	<path class="st27" d="M44,47.8c-1.9-8.2,5.9-2.9,10-0.9c-1.1,1.4-2.2,2.7-3.3,4.1c-1.1-0.3-2.2-0.7-3.3-1.1
		C46.8,48.4,45.3,48.2,44,47.8z"/>
</g>
<g id="_x23_d5260bff">
	<path class="st28" d="M53.9,46.9c5.3-3.3,12.2-4.2,17.1,0.4l0.5,0.8c-0.5,1.8-2.5,2.5-3.9,1.2c-3.7-2.8-8.4-2.3-12.8-2.4L53.9,46.9
		z"/>
</g>
<g id="_x23_862710ff">
	<path class="st29" d="M214.7,53.8c0.9-3.3-0.6-9.3,4.3-9l0.1,0.9c-0.1,0.5-0.2,1.3-0.3,1.8c-1.9,6.4-6.2,11.7-13.3,12.4
		C207.9,56.8,211.7,55.9,214.7,53.8z"/>
</g>
<g id="_x23_98928eff">
	<path class="st30" d="M219.1,45.7l0.7,0.5c8.8,3.6,10.4,13,16,18.9c-0.3,6.4,4.3,11.1,6.2,17c-3-0.5-3.3-3.6-4.1-6.1
		c-5.1-2.4-2.7-8.4-5-12.3c-5.1-5.1-6.1-13.8-14.1-16.3C218.9,47,219.1,46.1,219.1,45.7z"/>
</g>
<g id="_x23_f47b11ff">
	<path class="st31" d="M53.9,46.9l0.9,0c-1,5.4,5.5,4.9,8.3,7.9c2.3,2.5,7.5,2.6,7.8,6.3c-3.1-3.3-8.1-1.5-12.1-2
		c-0.6,2.7,1.6,4.4,3.9,5.2c0,0.7,0.1,2.1,0.1,2.8c-2.7,0-5.4,0-8,0.1c0.5,3.8,4,8.6,8.3,7.8c2,1.9,3.1,4.4,3.7,7
		c-2.2-0.1-3.3,1.6-4.2,3.4c1.1-6-5.6-7.4-10.2-7.6c-0.3-2.5-0.6-5.1-1.4-7.5c0.1-1.6,0.2-3.3,0.3-4.9c4.4-8.1-9.5-7.4-7.5-15
		c0-0.6,0.1-1.8,0.1-2.4c1.3,0.3,2.8,0.6,3.4,2.1c-4-2.3-2,2.3-0.8,4.2c0.3,0.3,1,0.9,1.3,1.2c2.5,1.8,4.8,4.5,8.2,3.8
		c0.2-3.7-3.9-5.1-5.4-8C51.7,49.6,52.8,48.3,53.9,46.9z"/>
</g>
<g id="_x23_f4833aff">
	<path class="st32" d="M54.8,46.9c4.4,0.2,9.1-0.3,12.8,2.4c1.4,1.3,3.4,0.5,3.9-1.2c0.6-0.1,1.7-0.4,2.2-0.6
		c1.9,2.3,3.7,4.8,5.4,7.3c-3.2,0.5-3.9-4.7-7-3.6c-3.8,1.7-12.3-4.5-9,3.5C60.3,51.8,53.9,52.3,54.8,46.9z"/>
</g>
<g id="_x23_d24427ff">
	<path class="st33" d="M73.8,47.5c4.4-1.8,8,3.9,9.3,7.3c0,1.3,0,2.5,0,3.8l-1-0.1c-0.1-0.7-0.2-2-0.3-2.6c-0.4-0.9-1.3-1.2-2.6-1.1
		C77.5,52.3,75.7,49.9,73.8,47.5z"/>
</g>
<g id="_x23_f4760cff">
	<path class="st34" d="M177.2,50.2c7.5-2.6,16.8-6,22.8,1l-0.1,0.8c-1.3,2.5-5.5,3.6-4.8,6.8c1,2.1,3.3,0.8,4.9,0.5
		c0,1.7,0,3.3,0.1,5c-0.1,1.7-0.1,3.3-0.2,5l-0.1,0.8c-0.4,3-0.6,6-1,9c-4.6-1.2-12.1-0.4-9.6,6.3c-0.3,0.2-0.8,0.5-1,0.7
		c-2.6-4.9-2-8.3,3.6-10.8c1.3-1.9,2.8-3.6,4.5-5.1c1.5-1.6-0.2-4.1-0.5-5.9c-3.4,1.2-6.7,2.2-10.4,1.3
		c-5.9,6.7-13.1,12.2-18.4,19.5c-0.4,0.1-1.1,0.2-1.5,0.2c-3.4-4.2-9.5-1.6-12.9-6.6c-4.3,1.3-13.1,0.9-10-5.7
		c3.3-0.9,6.6-2.2,7.7-5.7c3.8,0.6,7.8,5.5,11,0.2c4.7-0.3,3.3-6.4,6.6-8.6c1.4,2.2-1.7,7.9,1,8.3c4.2-1.2,10.9-2.1,11.6-7.6
		c1.9-2.7,7.6-2,7.7-6.3c0.4-4.1,8.5,0.2,6.8-5.2c-4.4-1.1-8.4,0.8-12.2,2.8C181.4,50.6,178.6,50.3,177.2,50.2 M182.2,59.1
		c-5.4,5.6,5.6,6.8,8.7,3.7C191.2,58.6,185,58.1,182.2,59.1z"/>
</g>
<g id="_x23_372415ff">
	<path class="st35" d="M18.9,63.6c3.5-5.8,5.9-12.4,12.3-15.9c2.7,2.6,5.1,5.6,7.5,8.5c1,5.1,10,2.1,8.4,7.8
		c-0.1,2.4-3.4-0.7-4.8-1.1c-3-0.8-5.7-2.2-8.3-4c-5.5,2-2.7,10.7,3,9c5.5,4-4.5,6.8-2,12c-0.4,3.1-3.3,6.2,0.4,8.7
		c7.3,5.5,10.9,14.5,17.8,20.2c8.6,1.9,12.6,10,18.3,15.8c1.1,4.5-2.7,8.3-4.4,12.4c-6.9,6.1-19.2,10.3-18.3,21.7
		c-3.1,2.8-5.8,6.4-7.9,10.2c-0.7,5.1-7.8,2.7-8.7,7.2c-1.2,6.5-3.2,13.3-0.7,19.8c-1.1,1.6-3,2.6-4.7,3.6
		c-5.1-6.2-10-13.1-10.2-21.1c-3.4-2-3.8-5.8-4.7-9.3c4-0.9,0.8,5.1,3.5,6.6c3.2,1.9,5.1,7.2,9.4,6.3c3.1-4.6,3-10.6,5.5-15.5
		c7.5,1.2,5-7.6,9.6-10.5c4.8-9.2,13.7-17,14.1-28c0.1-6.3-4.2-11.5-7.3-16.6c-4.6-2.6-9.9-3.9-14.5-6.6c-6.7-9.5,2.6-19-0.8-29.2
		c-1.5-4.1-0.2-9-2.6-12.6C24.5,62.9,21.8,70.2,18.9,63.6z"/>
</g>
<g id="_x23_ed8840ff">
	<path class="st36" d="M172,48.7c1.6-0.3,3.2-0.5,4.9-0.6c0.1,0.5,0.2,1.6,0.3,2.1c1.4,0.2,4.2,0.4,5.7,0.6
		c-4.7-0.4-6.4,3.8-9.9,5.5c-3.7-1.1-4.7,0.4-2.9,3.6c-0.3,2.4-0.8,4.7-1.1,7.1c-2.7-0.4,0.3-6-1-8.3c0-1.3-0.1-2.5-0.1-3.8
		c6.3,3.3,8.2-2.7,4-5.5L172,48.7z"/>
</g>
<g id="_x23_f9c259ff">
	<path class="st37" d="M182.8,50.8c3.8-1.9,7.8-3.8,12.2-2.8c1.7,5.3-6.3,1.1-6.8,5.2c-0.1,4.3-5.7,3.6-7.7,6.3
		c-0.6,5.4-7.3,6.4-11.6,7.6c0.2-2.4,0.7-4.7,1.1-7.1c2.3,2.1,4.9,4.2,7.9,1.9c0-2.8-3.3-3.8-5-5.5
		C176.4,54.5,178.1,50.4,182.8,50.8z"/>
</g>
<g id="_x23_3b210bff">
	<path class="st38" d="M205.6,59.9c7.1-0.7,11.4-6,13.3-12.4c8,2.5,9,11.2,14.1,16.3c-3.1,2.4-6.5,1.8-9.7,0
		c0.3,3.8,1.8,8.8-2.1,11.3c-11,12.5-17,29.4-31.4,38.6c-3.6,3.5-6.6,7.7-8.7,12.2c3.2,11.8,15.5,15,21.6,24.3
		c2.2,6.8,7.5,11.9,11.1,18c2.9,2.6,5.4-1.9,8.1-2.3c1.9,7.4-2.5,15.2-0.7,22.8c4,3.6,7.2-7.6,11.9-1.6c-3.7,5.6-6.4,12.2-12.8,15.8
		c-2-1.7-4.4-3.3-5.2-5.9c-1.1-2.7-5.3-3.4-4.9-6.9c1.7-2.4,4.4-0.3,6.2,0.7c0.9,0.6,1.9,1.1,2.8,0.2c3-3.3,1-8.3-3.3-8.3
		c1.2-2.4,4-4.6,3.1-7.6c-1.9-2.9-5.5,1.7-7.9-0.2c-5.4-4.5-10.3-10.8-10.6-18.2c-0.7-3.7-5.7-1.1-8.3-1.9
		c3.4-8.1-7.5-12.7-14.2-12.8c-1-1.2-1.7-2.5-2.3-3.9c-1.9-7.3-9-6.2-15-6.7c-6.1-6.6-17.5,0.1-23-5.3c6.5-8.2,17.4,0.1,25.1-5.5
		c4.3-3.1,9.8-4.7,13.5-8.4c0.2-0.3,0.7-0.9,0.9-1.2c9.6-1.6,15.8-9.5,21.9-16.2c0.8-1.2,0.8-2.7,1.1-4c2.6-8.1,13.8-13.2,9.9-22.7
		c3.7-0.4,7.8-1,9.9-4.5c4.4-5.6-4.1-6.2-4.7-2.5C212,60.8,205.4,65.2,205.6,59.9z"/>
</g>
<g id="_x23_f4a55fff">
	<path class="st39" d="M46.6,54.1c-1.2-1.9-3.2-6.5,0.8-4.2c1.1,0.4,2.2,0.8,3.3,1.1c1.5,3,5.6,4.4,5.4,8c-3.4,0.7-5.7-2-8.2-3.8
		C54.8,55.8,48.2,48.2,46.6,54.1z"/>
</g>
<g id="_x23_f8c066ff">
	<path class="st40" d="M63.2,54.8c-3.2-8,5.2-1.8,9-3.5c3.1-1.1,3.8,4,7,3.6c1.4-0.1,2.2,0.2,2.6,1.1c-3.7,0.4-9.7,2.4-8.9,7
		c4.7,2,5.9-2.8,9.2-4.4c-3.3,2.8-0.2,5.6,1.2,8.5c-4.7,1.7-7.1-4.9-12.1-4.2c0-0.5-0.1-1.4-0.2-1.9C70.6,57.4,65.4,57.2,63.2,54.8z
		"/>
</g>
<g id="_x23_dc3314ff">
	<path class="st41" d="M167.8,54.9c-0.1-2.6,2.1-4,4-5.5C176,52.3,174.1,58.2,167.8,54.9z"/>
</g>
<g id="_x23_c31508ff">
	<path class="st42" d="M99,55c-4,5.5-7.8-5.5-1-4.1C98.8,52,99.2,53.5,99,55z"/>
</g>
<g id="_x23_b8180aff">
	<path class="st43" d="M153.1,51c7.4-2,4.5,8.4-1.1,4.1C152.1,53.7,152,52.1,153.1,51z"/>
</g>
<g id="_x23_f69d54ff">
	<path class="st44" d="M199.9,51.2c7.9-1.5,4,5.6,0.1,8c-1.6,0.4-3.9,1.6-4.9-0.5c-0.8-3.3,3.4-4.4,4.8-6.8c-1.1,3.6,3,4.2,4.3,1.3
		C202.8,52.4,201.3,51.8,199.9,51.2z"/>
</g>
<g id="_x23_faddb0ff">
	<path class="st45" d="M46.6,54.1c1.7-5.9,8.3,1.7,1.3,1.2C47.5,55,46.9,54.4,46.6,54.1z"/>
</g>
<g id="_x23_f9d99dff">
	<path class="st46" d="M199.9,51.2c1.4,0.7,2.9,1.2,4.2,2c-1.3,2.9-5.4,2.3-4.3-1.3L199.9,51.2z"/>
</g>
<g id="_x23_9f4b19ff">
	<path class="st47" d="M83.1,54.9c2.5,3,7.9,1.2,10.8,5c-4.9-1.2-4.2,3.2-3.9,6.9c-1.3,0-2.6,0.1-3.8,0.1c-0.1-3-1.4-5.8-3-8.2
		C83.1,57.4,83.1,56.1,83.1,54.9z"/>
</g>
<g id="_x23_934713ff">
	<path class="st48" d="M157.3,60.1c2.6-3.4,8.9-0.3,10.5-5.2c0,1.3,0.1,2.5,0.1,3.8c-3.3,2.2-1.9,8.3-6.6,8.6
		C161.7,63.3,162.2,58.7,157.3,60.1z"/>
</g>
<g id="_x23_a6280eff">
	<path class="st49" d="M38.6,56.2c4.7,2.5,10.2,3.6,12.7,9c-0.1,1.6-0.2,3.2-0.3,4.9c-1.9-0.8-9.1-4.2-6.1,0c4.5,2.1,1.8,7.6,4,11.1
		c3.3,4.5,8.5,5.3,13.8,5.1l0.5,0.7c0.9,3,5.7,3.9,4.5,7.5c-2.4,4,0.2,6.4,3.2,7.9c0,0.5,0,1.4,0,1.9c-4.2-1.6-4.9-6.4-8.1-9
		c-3.9,0.7-12,1.4-11.7-4.1c3.5-1.3,7.3-0.8,10.9-1.3c1.5-6.4-8.9-0.1-11-4.7c-6.4-3.9-3.1-13.5-9.7-17.1c-1.4,0-2.9,0-4.3,0.1
		c-5.8,1.7-8.6-7-3-9c2.6,1.7,5.3,3.2,8.3,4c-3.2-0.3-6.2-0.9-9.2-1.9c-4.5,8,13.9,8.8,9.2,1.9c1.4,0.4,4.7,3.5,4.8,1.1
		C48.6,58.3,39.6,61.3,38.6,56.2z"/>
</g>
<g id="_x23_f9e2aaff">
	<path class="st50" d="M72.9,63c-0.9-4.6,5.1-6.6,8.9-7c0.1,0.7,0.2,2,0.3,2.6C78.9,60.1,77.6,64.9,72.9,63z"/>
</g>
<g id="_x23_f9e2a2ff">
	<path class="st51" d="M170,59.9c-1.9-3.2-0.8-4.7,2.9-3.6c1.7,1.7,5.1,2.7,5,5.5C175,64.1,172.3,62,170,59.9z"/>
</g>
<g id="_x23_f21f11ff">
	<path class="st52" d="M58.9,59c3.9,0.5,9-1.2,12.1,2c0,0.5,0.1,1.4,0.2,1.9L70.3,63c-1.6,0.2-4.9,0.7-6.5,1l-0.9,0.2
		C60.5,63.4,58.3,61.7,58.9,59z"/>
</g>
<g id="_x23_ed7b18ff">
	<path class="st53" d="M82.1,58.6l1,0.1c1.7,2.5,3,5.2,3,8.2c-0.7,0-2.2,0.1-2.9,0.1C81.8,64.2,78.8,61.4,82.1,58.6z"/>
</g>
<g id="_x23_f82b0aff">
	<path class="st54" d="M182.2,59.1c2.8-1,9-0.5,8.7,3.7C187.8,65.9,176.9,64.7,182.2,59.1z"/>
</g>
<g id="_x23_c21909ff">
	<path class="st55" d="M215.1,61.1c0.6-3.6,9.1-3,4.7,2.5c-2.1,3.4-6.2,4.1-9.9,4.5c-8.3,1.7-2.6,14-10.5,16.4
		c-2.6,4.1-11.5-0.5-10.4,5.2c3.7,0.3,7.3,0.6,11,1c-0.2,1.4-0.3,2.9-1.1,4c-7.6-1.5-13.5,1-17.5,7.5c-0.3-0.4-1-1.2-1.3-1.5
		c-0.7-3.2,0.4-5.9,3-7.7c-0.7-4.1,2.3-5.7,5-7.3c0.2-0.2,0.8-0.5,1-0.7c8.1,3.3,20.2-9.3,10.6-15.3l0.1-0.8
		c3.2-0.1,5.5-2.5,7.7-4.5C209.7,62.4,214.2,64.3,215.1,61.1z"/>
</g>
<g id="_x23_e7160aff">
	<path class="st56" d="M90,66.8c-0.2-3.7-1-8.2,3.9-6.9c1,4.5,7.2,1.7,8.3,5.8l0.1,0.9c-3.4-0.3-5.3,2.7-8.2,3.6
		C92.7,69.1,91.4,67.9,90,66.8z"/>
</g>
<g id="_x23_eb1c08ff">
	<path class="st57" d="M157.3,60.1c4.9-1.4,4.4,3.2,4,7.3c-3.2,5.3-7.2,0.4-11-0.2c-1.1,3.5-4.4,4.8-7.7,5.7c0.3-1,0.6-2.1,1-3.1
		c4.3-2.4,8.3-5.3,12.3-7.7C156.3,61.5,157,60.6,157.3,60.1z"/>
</g>
<g id="_x23_832d0dff">
	<path class="st58" d="M200.1,64.2c1.8-1.4,3.6-2.9,5.5-4.3c-0.2,5.4,6.4,1,9.6,1.3c-1,3.2-5.5,1.3-7.5,3.5c-2.2,2-4.5,4.4-7.7,4.5
		C200,67.5,200,65.8,200.1,64.2z"/>
</g>
<g id="_x23_df0a05ff">
	<path class="st59" d="M32.9,61.1c3,1,6.1,1.6,9.2,1.9C46.8,69.8,28.5,69.1,32.9,61.1z"/>
</g>
<g id="_x23_9a240dff">
	<path class="st60" d="M147.9,64.9c1.9-2.7,4.8-3.3,8.1-2.9c-4.1,2.4-8.1,5.3-12.3,7.7C144.9,68,146.4,66.4,147.9,64.9z"/>
</g>
<g id="_x23_1c1713ff">
	<path class="st61" d="M18.9,63.6c2.9,6.6,5.6-0.7,9.8-0.6c2.5,3.6,1.1,8.5,2.6,12.6c3.4,10.2-5.9,19.7,0.8,29.2
		c4.6,2.7,9.8,4,14.5,6.6c3.1,5.1,7.5,10.2,7.3,16.6c-0.4,10.9-9.3,18.8-14.1,28c-4.6,2.9-2.1,11.7-9.6,10.5
		c-2.6,4.9-2.4,10.9-5.5,15.5c-4.3,0.9-6.3-4.4-9.4-6.3c-2.7-1.5,0.6-7.5-3.5-6.6l-1.1,0c-1.6-3.7,1.3-10.2-2.6-12.3
		c-0.9-0.5-1.7-1-2.6-1.4C6.2,135.5,5.1,115.8,6,96c0.2-0.2,0.7-0.8,1-1c5.8-0.7,1.8-8.1,3.1-11.9c3.5-0.7,3.4-3.9,2.9-7.1
		c6.6-0.4,4.8-7.2,5.2-12L18.9,63.6 M22.3,73.2c-1.1,2.8-2.5,5.7-6,4.9c2.7,5.8-1.6,10.4-3.9,15.2c1.9,6.5-2.6,11.9-4.2,17.8
		c0,13.8-2.4,28.5,4.8,41c-4,7.8,6.9,11.8,4.2,19.9c2.7,0.1,6.2,1.1,6.6-2.3c1.1-12.5-2.4-25.2,0.1-37.8c1.9-9.8-3-21.4,3.1-30
		c2.2-4.6-1.5-10.4,3.1-14C28.5,83,26,75.6,22.3,73.2z"/>
</g>
<g id="_x23_c90762ff">
	<path class="st62" d="M63.7,64c1.6-0.2,4.9-0.7,6.5-1c-1.7,0.6-4.1,1.3-3,3.6c6.9,5,11.5,12.5,18.4,17.5c-0.3,0.8-0.5,1.6-0.8,2.3
		c-1.1,0.9-3.2,1.4-2.3,3.1c1.7,4-2.1,6.8-4,9.8c-1.6,3.4,3,9-1.4,10.7c-1.2-0.9-2.2-2-3.2-3c-1-1-2-2-3-3c0-0.5,0-1.4,0-1.9
		c2.3-5.5,0.7-11.4-3.9-14.9C71.4,78.7,61.7,72.8,63.7,64z"/>
</g>
<g id="_x23_e23788ff">
	<path class="st63" d="M70.3,63l0.9-0.1c5-0.7,7.4,5.8,12.1,4.2c0.7,0,2.2-0.1,2.9-0.1c1.3,0,2.6-0.1,3.8-0.1
		c1.4,1.1,2.7,2.3,4.1,3.4c2.3,1.5,5.5,0.3,8.1,0.7c2.8-0.3,4.9,1.4,7,2.9c3.3,8.1-9.5,2.8-13.1,7.2c-2.8,3.9-8.4-1.3-10.5,3
		c-6.9-5.1-11.5-12.5-18.4-17.5C66.1,64.3,68.5,63.7,70.3,63z"/>
</g>
<g id="_x23_4d4844ff">
	<path class="st64" d="M13,76.1c5.8-2.5,1.2-9.4,5.2-12C17.8,68.8,19.6,75.7,13,76.1z"/>
</g>
<g id="_x23_e14c4eff">
	<path class="st65" d="M62.8,64.2l0.9-0.2c-2,8.8,7.7,14.7,3.2,23.4c-1.3-0.2-2.6-0.4-3.8-0.5l-0.5-0.7c3.4,0.5,5.5-0.7,4.2-4.3
		c-0.6-2.6-1.7-5.1-3.7-7c-0.1-2.6-0.1-5.3-0.2-7.9C62.9,66.3,62.9,64.9,62.8,64.2z"/>
</g>
<g id="_x23_f69838ff">
	<path class="st66" d="M185.4,65.3c3.7,0.9,7-0.1,10.4-1.3c0.2,1.9,2,4.3,0.5,5.9c0-7.1-11.7-2.5-8.6,3.2c-0.1,2.4,2.5,1.7,4.1,1.9
		c-5.6,2.5-6.2,5.9-3.6,10.8c-2.7,1.6-5.8,3.2-5,7.3c-2.6,1.8-3.7,4.6-3,7.7c0.7,4.4-2.9,7.2-6.2,9.3c-5-2.9,0.6-10.8-3.3-14.8
		c-2.6-2.9-2.8-6.9-3.7-10.5C172.2,77.5,179.5,72,185.4,65.3z"/>
</g>
<g id="_x23_21150bff">
	<path class="st67" d="M223.2,63.8c3.3,1.8,6.6,2.4,9.7,0c2.3,3.9-0.1,9.8,5,12.3c-3,5.9,4.6,6.3,4,11.1c-1.5,3.3-0.6,7.1,2.9,8.2
		c0.9,1.3,1,2.9,1,4.5c-3.2,11.6,2.5,23.1-0.2,34.7c-0.7,5.6-1.1,11.3,0.1,16.9c1.4,6.4-7.3,8.6-4.1,16.2c-4.2,2.2-2.2,7.7-6.1,10
		c-3.2,2.1,0,7.2-2.5,9.7c-4.7-5.9-7.9,5.3-11.9,1.6c-1.7-7.6,2.7-15.4,0.7-22.8c-2.8,0.4-5.3,4.9-8.1,2.3
		c-3.6-6.1-8.9-11.2-11.1-18c-6.1-9.3-18.4-12.6-21.6-24.3c2.1-4.5,5.1-8.8,8.7-12.2c14.4-9.2,20.4-26.2,31.4-38.6
		C225,72.6,223.5,67.5,223.2,63.8 M228.5,79.3c-8.9,9.7-14.1,22.3-23.8,31.4c-10.1,10.2-6.5,26.8,4,35.5c5.5,3,5.5,14,13.1,12.7
		c0.9-5.3,2.7-10.5,7-13.9c3.1,4,0,9.2-1.8,13.1c0.9,3.4,0.9,6.8-1.1,9.9c-2.4,3.2,2.2,12.1,5.4,6.3c11.8,2.5-1-5,4.3-9.7
		c3.5-4,3.7-9.2,3.7-14.3c7.6-10.9,1.9-25.2,3.7-37.4c2.2-6.6-6.1-10.3-4.1-17c2.4-5.8-5.2-8.1-4.3-13.3
		C236.4,78.1,232.5,78.3,228.5,79.3z"/>
</g>
<g id="_x23_d01b20ff">
	<path class="st68" d="M102.3,65.7c2.9,1.3,5.6,3,6.8,6.1c0,0.5,0.1,1.6,0.2,2.1c-2.1-1.5-4.3-3.2-7-2.9c0.3-1.4,0.3-2.9,0.1-4.3
		L102.3,65.7z"/>
</g>
<g id="_x23_face60ff">
	<path class="st69" d="M187.7,73.1c-3.2-5.6,8.6-10.3,8.6-3.2c-1.8,1.5-3.2,3.2-4.5,5.1C190.2,74.8,187.6,75.6,187.7,73.1z"/>
</g>
<g id="_x23_f7c760ff">
	<path class="st70" d="M54.9,67.1c2.7-0.1,5.4-0.2,8-0.1c0.1,2.6,0.2,5.3,0.2,7.9C58.9,75.7,55.4,70.9,54.9,67.1z"/>
</g>
<g id="_x23_f56f24ff">
	<path class="st71" d="M94.1,70.3c2.9-1,4.8-3.9,8.2-3.6c0.2,1.4,0.2,2.9-0.1,4.3C99.6,70.6,96.4,71.8,94.1,70.3z"/>
</g>
<g id="_x23_482d13ff">
	<path class="st72" d="M36.9,68c1.4-0.1,2.9-0.1,4.3-0.1c1.3,4-3.7,6.5-4.2,10c2.3,6.6,10.8,8.9,12,16c7.2,6.5,13.7,16.7,24.8,16.1
		c1.2,4,4.3,4.5,8.1,3c-0.4,1.3-0.5,3.2,1,3.8c6.4,3.7,13.5,6.7,21,5.3c5.2-2.2,7.9,3.1,12.3,4.2c-5.8,6.9-18.6-1-26,5.8
		c-11.4-2.8-15.9,7.8-20.5,15.6c-4.2,0.9-5.8,5.1-8.2,8.1c-2.9,1.4-6.8-1.5-9.5,0.3c-1.9,3.1-2.8,6.6-3,10.2
		c-4.6,4.5-1.3,12.7-7.7,16.1c-5.3-1.4-14.7,4.5-9.6,9.5c2.5,0.6,3.7-1.5,5.1-3.1c3,0,6.2-1,9.2,0.1c-2.4,3.6-6.3,5.6-10.3,6.8
		c-1.3,2.7-2.4,5.6-4.7,7.5c-1.4-1.3-2.9-2.6-4.3-3.9c1.7-0.9,3.5-1.9,4.7-3.6c-2.6-6.5-0.6-13.3,0.7-19.8c1-4.5,8-2.1,8.7-7.2
		c2.1-3.8,4.8-7.4,7.9-10.2C47.8,147.4,60.1,143.1,67,137c1.7-4.1,5.5-7.8,4.4-12.4c-5.7-5.8-9.7-13.8-18.3-15.8
		c-6.8-5.7-10.5-14.7-17.8-20.2c-3.7-2.4-0.8-5.6-0.4-8.7C32.4,74.8,42.4,72,36.9,68z"/>
</g>
<g id="_x23_653d1cff">
	<path class="st73" d="M41.2,67.9c6.6,3.6,3.3,13.3,9.7,17.1c2.1,4.7,12.5-1.7,11,4.7c-3.6,0.5-7.4,0.1-10.9,1.3
		c-0.2,5.4,7.8,4.7,11.7,4.1c3.2,2.7,3.9,7.4,8.1,9c1,1,2,2,3,3c0,0.7,0.1,2.2,0.1,2.9C62.7,110.7,56.2,100.5,49,94
		c-1.2-7.2-9.7-9.4-12-16C37.6,74.4,42.5,72,41.2,67.9z"/>
</g>
<g id="_x23_ef190aff">
	<path class="st74" d="M44.9,70.1c-3-4.2,4.2-0.8,6.1,0c0.8,2.5,1,5,1.4,7.5c4.6,0.2,11.4,1.6,10.2,7.6v1
		c-5.3,0.2-10.4-0.6-13.8-5.1C46.8,77.7,49.5,72.2,44.9,70.1z"/>
</g>
<g id="_x23_663110ff">
	<path class="st75" d="M199.4,84.6c7.9-2.4,2.2-14.7,10.5-16.4c3.9,9.5-7.3,14.7-9.9,22.7c-3.7-0.4-7.3-0.7-11-1
		C188,84.1,196.9,88.7,199.4,84.6z"/>
</g>
<g id="_x23_9f5008ff">
	<path class="st76" d="M134.2,79.9c3.8-2.8,5.9-7.2,9.5-10.2c-0.3,1-0.7,2.1-1,3.1c-3.1,6.6,5.6,7,10,5.7c3.4,5,9.5,2.4,12.9,6.6
		c-4,7.3-11.5,12.1-16.3,18.8c0.6,1.8,3,4.3,0,5.1c-2.4-2.5-3.1-9.7-7.2-8.2c0-2.2-1.4-4-2.8-5.7c5.4-1.1,1.8-8.3,2.6-12
		c0.4-2.9-4.3-4.8-4-1.1C137,80.7,135.7,80.1,134.2,79.9z"/>
</g>
<g id="_x23_f4240fff">
	<path class="st77" d="M198.8,78.9c0.4-3,0.6-6,1-9c9.6,6-2.5,18.6-10.6,15.3C186.7,78.5,194.1,77.7,198.8,78.9z"/>
</g>
<g id="_x23_972759ff">
	<path class="st78" d="M109.1,71.8l0.6,0.6c1.1,1.3,2.4,2.4,3.6,3.6c-4.2,7-5.3,15.2-3.1,23.1c-0.1,3.9-0.1,7.7-0.1,11.6
		c-3.3,0.1-7.6-1.9-9.9,1.3c-3.8,4.6-10.6,1.2-15.3,3c8.4,10,24.1,0.9,32.9,10.2l0.7,0.6c-0.5,0.1-1.6,0.4-2.1,0.5
		c-4.4-1-7.1-6.4-12.3-4.2c-7.5,1.4-14.6-1.7-21-5.3c0.2-1.3,0.1-2.5-0.3-3.7c4.8-0.2,9.6,0.2,14.4-0.3c1.1-1.8,2.6-3.3,4.5-4.3
		c6.7,5.5,10.7-4.5,5.6-6.3C97,103.8,94.4,87.9,84.8,86.5c0.3-0.8,0.6-1.6,0.8-2.3c2.2-4.3,7.7,0.9,10.5-3
		c3.7-4.4,16.4,0.9,13.1-7.2C109.2,73.4,109.2,72.3,109.1,71.8z"/>
</g>
<g id="_x23_060404ff">
	<path class="st79" d="M22.3,73.2C26,75.6,28.5,83,30,87.9c-4.6,3.6-1,9.3-3.1,14c-6.1,8.7-1.2,20.2-3.1,30
		c-2.5,12.6,1.1,25.3-0.1,37.8c-0.4,3.4-3.8,2.4-6.6,2.3c2.6-8.1-8.3-12.1-4.2-19.9c-7.1-12.6-4.7-27.2-4.8-41
		c1.7-5.9,6.1-11.3,4.2-17.8c2.3-4.8,6.6-9.5,3.9-15.2C19.8,78.9,21.3,76,22.3,73.2z"/>
</g>
<g id="_x23_676463ff">
	<path class="st80" d="M10.8,80.8c0.6-1.2,1.7-3.6,2.2-4.7c0.4,3.2,0.6,6.4-2.9,7.1C10.2,82.6,10.6,81.4,10.8,80.8z"/>
</g>
<g id="_x23_6d3831ff">
	<path class="st81" d="M113.3,76.1c4.5,7.3,10.7,15.1,9.9,24.1c0.1,3.9-1.3,8.8,1.8,12c1,1.1,2.7,0.6,4,1c0,1.7-1.7,2.2-2.8,3.2
		c-8.7-7,0.9-20.8-8.1-27.5L118,88c-0.6-1.7,0-5.8-2.8-4.9c-4.5,4.8,2.2,13.3-5,16.1C108,91.2,109.1,83.1,113.3,76.1z"/>
</g>
<g id="_x23_63605fff">
	<path class="st82" d="M237.9,76c0.8,2.5,1.1,5.6,4.1,6.1c0.3,0.2,1,0.7,1.4,0.9c-0.4,1.4-0.9,2.7-1.4,4.1
		C242.6,82.3,234.9,81.9,237.9,76z"/>
</g>
<g id="_x23_070503ff">
	<path class="st83" d="M228.5,79.3c3.9-1.1,7.9-1.2,6.1,3.3c-0.9,5.2,6.7,7.6,4.3,13.3c-2,6.6,6.3,10.3,4.1,17
		c-1.7,12.2,3.9,26.5-3.7,37.4c0,5.1-0.2,10.3-3.7,14.3c-5.3,4.7,7.5,12.2-4.3,9.7c-3.2,5.7-7.8-3.1-5.4-6.3c2-3.1,2-6.5,1.1-9.9
		c1.9-3.9,5-9.1,1.8-13.1c-4.3,3.5-6.2,8.7-7,13.9c-7.6,1.3-7.6-9.7-13.1-12.7c-10.5-8.7-14-25.3-4-35.5
		C214.5,101.6,219.6,89.1,228.5,79.3z"/>
</g>
<g id="_x23_b5702cff">
	<path class="st84" d="M134.2,79.9c1.5,0.2,2.9,0.8,3.7,2.1c1,4.1-1.6,9.5,1.4,13.1c1.3,1.7,2.7,3.4,2.8,5.7
		c-2.4,7.2,0.7,9.8,7.2,8.2c3-0.8,0.6-3.3,0-5.1c4.9-6.7,12.3-11.5,16.3-18.8c0.4-0.1,1.1-0.2,1.5-0.2c0.9,3.6,1.1,7.6,3.7,10.5
		c3.9,4-1.8,11.9,3.3,14.8c3.3-2.1,6.9-4.9,6.2-9.3c0.3,0.4,1,1.2,1.3,1.5c0,3.5-2.2,6.1-4.3,8.7c-0.2,0.3-0.7,0.9-0.9,1.2
		c-5,3.1-6.8-5.9-12.2-3.2c-3-0.1-5.9-0.2-8.9,0.3l-0.4,0.6c-0.7,1-1.3,2.1-1.9,3.2c-3-2.5-7.1-1.9-10.8-1.7
		c-4.7-3.7,0.7-11.9-4.8-15.5c-3.6-3.8,3.2-11.6-3-13c0,5.3-0.4,10.6-3.4,15.2c-3,6,4.2,18.8-5.1,20.4c0.1-0.5,0.3-1.5,0.4-2
		c1.1-0.9,2.8-1.4,2.8-3.2c1.4-6.4-1.8-13.6,1.9-19.3C134.1,89.8,131.9,84.2,134.2,79.9z"/>
</g>
<g id="_x23_613713ff">
	<path class="st85" d="M137.9,82c-0.2-3.7,4.5-1.8,4,1.1c-0.9,3.7,2.8,10.9-2.6,12C136.3,91.6,138.9,86.2,137.9,82z"/>
</g>
<g id="_x23_a4a09dff">
	<path class="st86" d="M5.8,93.8c4.3-3.4-2-11.4,5-13c-0.2,0.6-0.5,1.8-0.7,2.4C8.8,87,9.7,91.7,7,95c-0.2,0.2-0.7,0.8-1,1
		c-1.8,6.2-0.3,13.4-2,19.9c-1.2,1.4-2.5,2.7-4,3.7v-5.2C7.9,112.1,0.5,98.9,5.8,93.8z"/>
</g>
<g id="_x23_f6a755ff">
	<path class="st87" d="M62.6,85.2c0.9-1.8,2-3.4,4.2-3.4c1.3,3.6-0.8,4.8-4.2,4.3V85.2z"/>
</g>
<g id="_x23_4c4948ff">
	<path class="st88" d="M7,95c2.7-3.3,1.9-8,3.1-11.9C8.8,86.9,12.8,94.3,7,95z"/>
	<path class="st88" d="M8.2,156.8c3.9,2.1,1.1,8.6,2.6,12.3l-1,0.1c-0.2-0.3-0.7-0.8-0.9-1.1C9,164.2,8.7,160.5,8.2,156.8z"/>
</g>
<g id="_x23_b25477ff">
	<path class="st89" d="M115.2,83.1c2.8-0.8,2.2,3.2,2.8,4.9c-5.5-8.1-1,6.6-3.8,10.2c-4.6,2.6-2.7,8.3-3.2,12.7l-1-0.1
		c0-3.9,0.1-7.7,0.1-11.6C117.4,96.3,110.7,87.8,115.2,83.1z"/>
</g>
<g id="_x23_f49d40ff">
	<path class="st90" d="M134.2,82.8c6.2,1.4-0.6,9.2,3,13c5.6,3.6,0.1,11.8,4.8,15.5c-3.9,4.8-9.1,8-13.5,12.3
		c-3.4,2.1-2.5-2.4-2.8-4.6l0-0.7c9.3-1.6,2-14.4,5.1-20.4C133.8,93.3,134.3,88.1,134.2,82.8z"/>
</g>
<g id="_x23_979492ff">
	<path class="st91" d="M243.4,83c1.3,4.1,0.1,8.9,3.7,11.9c0.4,5.3-0.9,11.1,0.8,16.2c0.7,0.8,1.4,1.6,2.1,2.4v5
		c-6.4-3.4-2.7-13-4.2-18.8c0.1-1.6,0-3.2-1-4.5c-1.4-2.5-2.7-5.2-2.9-8.2C242.5,85.7,243,84.4,243.4,83z"/>
</g>
<g id="_x23_ea65a8ff">
	<path class="st92" d="M114.2,98.2c2.8-3.6-1.7-18.3,3.8-10.2l0.1,0.8c0.8,4.9,3.9,9.4,2.5,14.7c-2.6,6,1.1,10.9,5.2,14.8l0,0.7
		c0.5,4.1-0.7,6.8-4.6,6.1c0.3-6.6-6.3-9.9-10.2-14.2C111.5,106.5,109.6,100.8,114.2,98.2z"/>
</g>
<g id="_x23_e82117ff">
	<path class="st93" d="M63.1,86.9c1.3,0.2,2.6,0.3,3.8,0.5c4.6,3.5,6.1,9.4,3.9,14.9c-3-1.5-5.6-3.9-3.2-7.9
		C68.7,90.8,64,89.9,63.1,86.9z"/>
</g>
<g id="_x23_860741ff">
	<path class="st94" d="M82.5,89.6c-0.9-1.8,1.3-2.3,2.3-3.1c9.6,1.4,12.2,17.3,22.4,15.7c-1.7,2.3-3.7,4.3-5.6,6.3
		c-1.9,1-3.3,2.5-4.5,4.3c-1.4-5.3-13.3-5-15.1,0.3c-3.8,1.5-6.9,0.9-8.1-3c0-0.7-0.1-2.2-0.1-2.9c1.1,1,2.1,2.1,3.2,3
		c4.4-1.8-0.2-7.3,1.4-10.7C80.3,96.4,84.2,93.6,82.5,89.6z"/>
</g>
<g id="_x23_524e4dff">
	<path class="st95" d="M244.9,95.3c-3.5-1.1-4.4-4.9-2.9-8.2C242.2,90,243.5,92.7,244.9,95.3z"/>
</g>
<g id="_x23_b15474ff">
	<path class="st96" d="M118.1,88.8c8.9,6.7-0.7,20.4,8.1,27.5c-0.1,0.5-0.3,1.5-0.4,2c-4.1-3.9-7.8-8.8-5.2-14.8
		C122.1,98.2,118.9,93.7,118.1,88.8z"/>
</g>
<g id="_x23_5a2e0dff">
	<path class="st97" d="M181.4,102.4c4-6.5,9.9-9,17.5-7.5c-6.1,6.7-12.2,14.6-21.9,16.2C179.2,108.5,181.4,105.9,181.4,102.4z"/>
</g>
<g id="_x23_d2d0cfff">
	<path class="st98" d="M247.1,94.9c1.8,5.1,0.4,10.9,0.8,16.2C246.2,106,247.5,100.2,247.1,94.9z"/>
</g>
<g id="_x23_4a4746ff">
	<path class="st99" d="M4,115.9c1.6-6.5,0.1-13.6,2-19.9c-0.9,19.8,0.2,39.5-0.3,59.3l-0.9-0.1C6,142,3.5,129,4,115.9z"/>
</g>
<g id="_x23_221408ff">
	<path class="st100" d="M123.1,100.2c4.4-11,9.6,13.8,1.8,12C121.9,109,123.2,104.1,123.1,100.2z"/>
</g>
<g id="_x23_56300fff">
	<path class="st101" d="M142.1,100.8c4.1-1.5,4.8,5.6,7.2,8.2C142.8,110.6,139.6,108,142.1,100.8z"/>
</g>
<g id="_x23_434140ff">
	<path class="st102" d="M245.6,134.4c2.7-11.5-3-23.1,0.2-34.7c1.5,5.8-2.2,15.4,4.2,18.8v13.9c-3.1,0.9-3.2,3.8-3.2,6.6
		c-0.5,4.1-0.9,8.2-1.1,12.2C244.4,145.8,244.9,140,245.6,134.4z"/>
</g>
<g id="_x23_562c1dff">
	<path class="st103" d="M107.2,102.2c5.1,1.9,1.1,11.8-5.6,6.3C103.5,106.6,105.5,104.6,107.2,102.2z"/>
</g>
<g id="_x23_8b5c2fff">
	<path class="st104" d="M155.1,109.3c2.9-0.5,5.9-0.3,8.9-0.3c5.4-2.6,7.2,6.4,12.2,3.2c-3.7,3.7-9.2,5.3-13.5,8.4
		c-7.7,5.6-18.6-2.7-25.1,5.5c-0.4-0.1-1.4-0.2-1.8-0.2l-0.9-0.2c5.8-8.7,17.9-1.4,25.5-6.4c1.9-2,6.8-1,6.6-4.3
		c-4.6-1.5-9.9,0.9-14.1-2.1c0.6-1.1,1.2-2.1,1.9-3.2c0.1,6.5,9.7,2.4,14.4,3.1C168.2,106.6,159.1,111.9,155.1,109.3z"/>
</g>
<g id="_x23_592b17ff">
	<path class="st105" d="M82,113.1c1.8-5.3,13.7-5.6,15.1-0.3c-4.8,0.5-9.6,0.1-14.4,0.3L82,113.1z"/>
</g>
<g id="_x23_e4398fff">
	<path class="st106" d="M100.1,112.1c2.4-3.2,6.6-1.2,9.9-1.3l1,0.1c3.9,4.3,10.5,7.6,10.2,14.2c-0.9,0.1-2.6,0.1-3.5,0.2
		c-8.8-9.2-24.4-0.1-32.9-10.2C89.5,113.3,96.3,116.7,100.1,112.1z"/>
</g>
<g id="_x23_532f0eff">
	<path class="st107" d="M155.1,109.3c3.9,2.7,13.1-2.7,14,3.6c-4.7-0.7-14.3,3.5-14.4-3.1L155.1,109.3z"/>
</g>
<g id="_x23_f0b46fff">
	<path class="st108" d="M142.1,111.2c3.6-0.2,7.8-0.8,10.8,1.7c4.2,3,9.6,0.7,14.1,2.1c0.2,3.3-4.8,2.3-6.6,4.3
		c-7.5,5-19.7-2.4-25.5,6.4l-0.7-0.1c-3.3-1.1-6.6-1-9.2,1.3c-1.3-0.3-2.5-0.6-3.8-0.7c-0.5-0.1-1.3-0.2-1.8-0.2l-1-0.1l-0.7-0.6
		c0.9-0.1,2.6-0.1,3.5-0.2c4,0.7,5.1-1.9,4.6-6.1c0.2,2.1-0.7,6.6,2.8,4.6C132.9,119.3,138.1,116,142.1,111.2z"/>
</g>
<g id="_x23_762c37ff">
	<path class="st109" d="M82,113.1l0.8,0c0.4,1.2,0.5,2.5,0.3,3.7C81.5,116.3,81.6,114.4,82,113.1z"/>
</g>
<g id="_x23_7b7876ff">
	<path class="st110" d="M0,119.6c1.5-1.1,2.9-2.3,4-3.7C3.5,129,6,142,4.8,155.2c-0.7-4.3-0.7-8.7-0.8-13c1.1-3.9,0.2-7.4-3.9-7.6
		V119.6z"/>
</g>
<g id="_x23_5bb5c7ff">
	<path class="st111" d="M124.9,127c2.6-2.3,5.8-2.4,9.2-1.3c-0.4,0.3-1.2,0.9-1.5,1.2c-1.9,0.1-6.3-0.2-5.3,2.8
		c4.7,3.7,10.1,6.7,12.9,12.2c-0.9,3.8,2.6,9.3-0.9,12.3c-4.2,4-1.4,10.6-2.4,15.9c-5.5-0.6-1.2-8.5-4-11.9
		c-6.4-7.6,1.8-20.5-7.8-26.4l0-1C125,129.6,125,128.3,124.9,127z"/>
</g>
<g id="_x23_708123ff">
	<path class="st112" d="M116.3,126.4c0.5-0.1,1.6-0.4,2.1-0.5l1,0.1c-6.7,8.8-20.4,0.1-28.6,8c-3.3,0.1-6.6-0.1-9.9,0.2
		c0.8,5.9,9.2,1.5,13.1,3l0,0.9c-4.3,1.3-11.4-2.7-14.2,1.9c4.3,2,9.4,0.8,14.1,1.1c-4.2,2.3-12,2.5-16.4-1.5
		c-2.2-1.8-2.2,2.2-2.7,3.5c-1.5,2.4-2.9,4.9-3.6,7.6l-1,0.3c-0.1-0.8-0.3-2.4-0.4-3.2c4.6-7.8,9.1-18.4,20.5-15.6
		C97.7,125.3,110.5,133.2,116.3,126.4z"/>
</g>
<g id="_x23_92c433ff">
	<path class="st113" d="M119.4,126c0.4,0.1,1.3,0.2,1.8,0.2c-3.9,8.9-15.5,2.6-22.7,5.3c-2.3,1.4-4.8,2.8-7.6,2.4
		C99,126.1,112.7,134.8,119.4,126z"/>
</g>
<g id="_x23_aced3cff">
	<path class="st114" d="M121.2,126.2c1.3,0.2,2.5,0.5,3.8,0.7c0,1.3,0,2.6,0,3.9c-4.7,2.4-8.6,6-12.3,9.7
		c-6.5,0.4-13.5,1.2-18.6-3.5c-3.9-1.5-12.4,2.9-13.1-3c3.3-0.2,6.6-0.1,9.9-0.2c2.8,0.4,5.3-1,7.6-2.4
		C105.6,128.8,117.2,135.1,121.2,126.2z"/>
</g>
<g id="_x23_376f78ff">
	<path class="st115" d="M132.6,126.9c0.4-0.3,1.2-0.9,1.5-1.2l0.7,0.1l0.9,0.2c2.2,7.9,15.3-0.4,21.4,5c3.8,4.6,15.3-1.9,14.8,5.8
		c-4.2,3.5-11.6-1.4-15.4,3.2c-0.8,0.4-1.7,0.8-2.5,1.2c1.2-8.7,13.3-0.4,17.2-6.1c-5.2-2.6-12.3,1.2-16.9-3.4
		C148.6,126.4,136.4,135.4,132.6,126.9z"/>
</g>
<g id="_x23_36342aff">
	<path class="st116" d="M135.7,125.9c0.5,0.1,1.4,0.2,1.8,0.2c5.4,5.4,16.9-1.3,23,5.3c6.1,0.5,13.1-0.6,15,6.7
		c-4.5,4.1-15.2,7.1-19,1.8c3.8-4.6,11.2,0.3,15.4-3.2c0.5-7.7-11-1.3-14.8-5.8C151,125.4,137.9,133.8,135.7,125.9z"/>
</g>
<g id="_x23_34adcbff">
	<path class="st117" d="M127.2,129.7c-1-3,3.4-2.8,5.3-2.8c3.8,8.5,16-0.5,21.7,4.9c4.5,4.5,11.7,0.8,16.9,3.4
		c-3.9,5.7-16-2.7-17.2,6.1c-4.6-0.1-9.8-2.1-13.9,0.8C137.3,136.4,131.9,133.4,127.2,129.7z"/>
</g>
<g id="_x23_7aaa29ff">
	<path class="st118" d="M112.6,140.5c3.8-3.6,7.6-7.3,12.3-9.7l0,1c0,1.6,0,3.2,0,4.8c-7.7,5.7-1.3,16.5-5.5,24
		c-1.7,2.2-1.1,7.4-4.3,7.3c-3.5-4.1,1.5-11.5-3.1-15.1c-0.7-3.6-1-7.4-1.9-11c-3.5-1.5-7.5-0.3-11.1,0.4c-1.3,3.9,3.6,3.2,6,4.1
		c-3.2,9.2-14.5,13.1-18.4,21.6l-0.8-0.2c-4.2-8.1-7.2-16.1-7.1-25.5c-1.4-2.2-2.8-0.6-4,0.8c0.5-1.3,0.5-5.2,2.7-3.5
		c4.4,4,12.2,3.8,16.4,1.5c0-0.8,0.1-2.2,0.1-3l0-0.9C99.2,141.7,106.2,140.9,112.6,140.5z"/>
</g>
<g id="_x23_456b6bff">
	<path class="st119" d="M125,131.8c9.7,5.9,1.4,18.8,7.8,26.4c2.8,3.4-1.5,11.4,4,11.9c1-5.2-1.8-11.9,2.4-15.9
		c3.5-3-0.1-8.5,0.9-12.3c4.1-2.8,9.3-0.9,13.9-0.8c-0.5,0.2-1.4,0.6-1.8,0.9c-3.4,0-6.8-0.2-10.2,0.1c-0.3,3.4-0.1,6.7,0.7,10
		c-0.9,1.4-1.5,2.9-1.9,4.5c-6.7,0.9-1.2,11.6-1.9,15.9c-0.3,0.4-1,1.3-1.3,1.7c-6.4-2.3-3.2-9.8-6.6-14.3
		c-4.5-6.1-0.2-14.6-2.9-21.4c-0.3-1.6-2-1.5-3.2-2C125,135,125,133.4,125,131.8z"/>
</g>
<g id="_x23_87827dff">
	<path class="st120" d="M246.8,139c-0.1-2.8,0-5.7,3.2-6.6v3.3C249,136.9,247.9,138,246.8,139z"/>
</g>
<g id="_x23_c0bdbaff">
	<path class="st121" d="M0,134.6c4.1,0.2,5,3.8,3.9,7.6c-0.7-2.1-2-3.7-3.9-4.8V134.6z"/>
</g>
<g id="_x23_cac8c7ff">
	<path class="st122" d="M246.8,139c1.1-1,2.2-2.1,3.2-3.2v2.6c-4.9,4.8,0.8,13.5-3.1,18.5C247.1,150.9,246.9,145,246.8,139z"/>
</g>
<g id="_x23_534b15ff">
	<path class="st123" d="M119.5,160.6c4.2-7.5-2.2-18.3,5.5-24c1.2,0.4,2.9,0.4,3.2,2c-9,2.1-5.5,11.7-5.3,18.4
		c-2.8,6-4.6,12.7-8.9,17.9c-5.2-5.7-8.9-16.6-2-22.1c4.6,3.6-0.4,11,3.1,15.1C118.4,167.9,117.8,162.7,119.5,160.6z"/>
</g>
<g id="_x23_503510ff">
	<path class="st124" d="M79.8,139.9c2.8-4.6,9.9-0.6,14.2-1.9c0,0.8-0.1,2.2-0.1,3C89.3,140.7,84.1,141.9,79.8,139.9z"/>
</g>
<g id="_x23_065264ff">
	<path class="st125" d="M156.5,139.9c3.8,5.3,14.4,2.2,19-1.8c0.7,1.4,1.3,2.8,2.3,3.9c0.9,1.2,1.9,2.4,2.4,3.8l-0.1,1
		c-1.6-1.4-3.3-2.9-5.2-4c-5.6,2.5,0.3,9.7-4,13c-3.3,2.9-0.5,8.4-3.9,11.4c-9.4-1.8-11.2-15.1-20.8-17.3c-3-6.5,9.4-1.5,5.9-7.9
		c0.5-0.2,1.4-0.6,1.8-0.9C154.9,140.8,155.7,140.4,156.5,139.9z"/>
</g>
<g id="_x23_3e2009ff">
	<path class="st126" d="M123,157c-0.3-6.7-3.7-16.4,5.3-18.4c2.7,6.8-1.7,15.3,2.9,21.4c3.4,4.6,0.1,12,6.6,14.3
		c0.9,1.7,1.8,3.4,2.9,5c0.3,0.5,0.9,1.5,1.2,2c0.8,4.1,6.6,2.9,8.4,6.7c11.6-0.7-4.8,11.7,5.9,13.4c2,3.5,5.6,2.1,8.8,2
		c4.3,1.6,8.7,2.5,13.3,1.6c7.1,6.1-5.7,9.1-3.4,15.4c-1.2-0.5-2.5-1-3.7-1.5c0.4-1.5,0.9-3.1,1.1-4.7
		c-12.2-6.8-26.4-12.8-33.4-25.8c-4.2-2.3-8.8-4.7-13.5-5.3c-3.6,2-7.5,3.5-11.4,4.8c-8.3,12.3-21.8,19.6-34.6,26.4
		c-0.1,1.2-0.2,2.5-0.2,3.7c-2.2-1.8-4-3.8-6-5.8c-1.2-1.1-2.9-1.4-4.2-2.2c4.6-1.9,9.4-3.6,13.5-6.4c5.5-0.1,11-0.5,15.8-3.2
		c3.2-2.3-3.1-9.6,1.9-11.2c3.4-3.7,11.8-2.5,10.9-9.2c0.8-1.8,1.9-3.4,3.1-4.9C118.4,169.7,120.2,163,123,157z"/>
</g>
<g id="_x23_898380ff">
	<path class="st127" d="M245.7,151.3c0.3-4.1,0.7-8.2,1.1-12.2c0.1,6,0.2,11.9,0.1,17.8c-1,1-2.1,1.9-3,3c-0.9,2.9-0.7,6-1.1,9
		c-7.3,11.9-8.9,27.3-22,35.2l-0.8-0.3l0.2-0.8c6.4-3.6,9.1-10.3,12.8-15.8c2.5-2.5-0.7-7.6,2.5-9.7c3.8-2.3,1.9-7.8,6.1-10
		C238.4,159.8,247.1,157.6,245.7,151.3z"/>
</g>
<g id="_x23_aced39ff">
	<path class="st128" d="M74.8,143c1.2-1.4,2.6-3,4-0.8c-0.1,9.3,3,17.4,7.1,25.5c-6.9,6.3-14,12.5-19.1,20.4
		c-2.3,0.3-3.1-1.4-3.6-3.3l-0.2-1c0-2.6,0-5.2,0-7.8c7.4-1.5,1.3-11.5,7-14.9c3.6-2,2.1-7.1,1.2-10.4
		C71.9,147.9,73.4,145.4,74.8,143z"/>
</g>
<g id="_x23_524412ff">
	<path class="st129" d="M99.1,142.2c3.6-0.7,7.6-1.9,11.1-0.4c-0.6,2.7,1.6,9.3-3.1,9.2c-1-1.4-0.6-4-2.1-4.7
		C102.7,145.5,97.8,146.1,99.1,142.2z"/>
</g>
<g id="_x23_5e9305ff">
	<path class="st130" d="M110.2,141.8c0.9,3.6,1.1,7.3,1.9,11c-6.9,5.5-3.3,16.4,2,22.1c-1.2,1.6-2.3,3.1-3.1,4.9
		c-0.4,0.1-1.2,0.3-1.6,0.4l0.1-0.8c1.8-4.1-3.6-6-6.6-7.1c-6.2,2.4-10.2-4-16.2-4.4c3.8-8.5,15.2-12.3,18.4-21.6
		c1.5,0.7,1.1,3.3,2.1,4.7C111.8,151.1,109.6,144.5,110.2,141.8z"/>
</g>
<g id="_x23_37291eff">
	<path class="st131" d="M142,142.1c3.4-0.3,6.8-0.1,10.2-0.1c3.6,6.4-8.9,1.4-5.9,7.9c-1.1,0.9-2.2,1.7-3.6,2.2
		C141.9,148.9,141.7,145.5,142,142.1z"/>
</g>
<g id="_x23_522b0eff">
	<path class="st132" d="M177.9,142.1c6.8,0.1,17.6,4.7,14.2,12.8c2.7,0.9,7.6-1.8,8.3,1.9l-1-0.1c-2.5-0.3-7.5-0.9-10-1.2
		c-2.8-1.4-4.8-7-8.4-4.7c-0.1-1.7,0-3.5-0.7-5C179.8,144.4,178.7,143.3,177.9,142.1z"/>
</g>
<g id="_x23_077b98ff">
	<path class="st133" d="M170.9,155.9c4.3-3.3-1.6-10.4,4-13c1.9,1.1,3.5,2.5,5.2,4c-0.3,4.4-3,9.7,0.8,13.2c3.7,3.3,0.3,9.2,3,13
		c4.1,3.2,6.7,14.8,0,15.1l-0.8,0c0.2-0.5,0.6-1.6,0.8-2.1c-6.3-5.4-11-12.7-17.9-17.4l0.4-0.5c0.2-0.2,0.5-0.6,0.7-0.9
		C170.4,164.3,167.6,158.8,170.9,155.9z"/>
</g>
<g id="_x23_4e696aff">
	<path class="st134" d="M180.3,145.9c0.8,1.6,0.7,3.3,0.7,5c-3.7,5.5,3.6,8,3.1,13.2c-0.1,3-0.2,6-0.2,9c-2.7-3.8,0.7-9.8-3-13
		c-3.8-3.5-1.1-8.8-0.8-13.2L180.3,145.9z"/>
</g>
<g id="_x23_842c0eff">
	<path class="st135" d="M61.7,155.9c2.4-3.1,3.9-7.2,8.2-8.1c0.1,0.8,0.3,2.4,0.4,3.2l-0.1,1c-5.1-0.6-3.4,5.2-3.2,8.2
		c-4.4-1.7-14.9-7.4-15,0.8c2.8,0.1,8.3,0.2,11.1,0.3c1.4,5.9-7.5,1.7-8.6,6.8c-0.9,0.4-1.7,0.8-2.6,1.2c-0.4,0.1-1.3,0.4-1.7,0.5
		c-4.9,1.9-1.5,11.3-7.2,14.4c-5.4-1.5-12.6,1.7-11,8.1c-5.1-5,4.3-11,9.6-9.5c6.4-3.3,3.1-11.6,7.7-16.1c0.1-3.6,1.1-7.1,3-10.2
		C54.8,154.3,58.8,157.3,61.7,155.9z"/>
</g>
<g id="_x23_1c6170ff">
	<path class="st136" d="M146.3,149.9c9.6,2.2,11.3,15.6,20.8,17.3c-0.2,0.2-0.6,0.6-0.7,0.9c-6.5-2.3-10,5.3-16.3,3.9
		c-5.1-1.6-8.3,3.2-9.5,7.3c-1-1.6-2-3.3-2.9-5c0.3-0.4,1-1.3,1.3-1.7c5.8-2.4,3.5-11,1.9-15.9c0.4-1.6,1-3.1,1.9-4.5
		C144.1,151.6,145.2,150.8,146.3,149.9z"/>
</g>
<g id="_x23_b22111ff">
	<path class="st137" d="M181,150.9c3.6-2.3,5.6,3.3,8.4,4.7c2.5,0.3,7.5,0.9,10,1.2c-5.4-0.4-15.1-0.9-14.5,7l-0.7,0.4
		C184.6,158.9,177.4,156.3,181,150.9z"/>
</g>
<g id="_x23_ee932dff">
	<path class="st138" d="M70.2,150.9l1-0.3c0.9,3.3,2.4,8.4-1.2,10.4c-5.8,3.4,0.4,13.4-7,14.9c-5.4-0.6-12,12.2-3.9,10.2
		c-3.1,3.5-4.2,8.1-6.7,11.9c-0.6-3.8-5.7-2-6,1.2c-0.7-1.7,0-3.3,1.5-4.3c8.9-1.1,2.1-14.5,9.8-18.2c5.7-6-7.4-1-5.8-7.6
		c0.9-0.4,1.7-0.8,2.6-1.2c9.5,4.4,16.1-8.4,15.7-16.1L70.2,150.9z"/>
</g>
<g id="_x23_de1909ff">
	<path class="st139" d="M66.9,160.1c-0.2-3.1-2-8.8,3.2-8.2c0.4,7.7-6.2,20.5-15.7,16.1c1.1-5.1,10-0.9,8.6-6.8
		c-2.8-0.1-8.3-0.2-11.1-0.3C52,152.7,62.6,158.4,66.9,160.1z"/>
</g>
<g id="_x23_8a8785ff">
	<path class="st140" d="M4.8,155.2l0.9,0.1c0.9,0.5,1.7,1,2.6,1.4C8.7,160.5,9,164.2,9,168c-1.3-2.8-0.3-6.4-2-9.1
		C6.3,157.6,5.4,156.4,4.8,155.2z"/>
</g>
<g id="_x23_3f3122ff">
	<path class="st141" d="M139,172.5c0.7-4.3-4.8-15,1.9-15.9C142.4,161.5,144.8,170.1,139,172.5z"/>
</g>
<g id="_x23_e01309ff">
	<path class="st142" d="M184.9,163.7c-0.6-7.9,9.1-7.3,14.5-7l1,0.1c-0.4,1.4-0.7,2.9-1.3,4.3c-2.7,1.2-11-2.6-11.1,2.8
		c3.1,1.6,7.9,0.3,9.5,4.2c-2.4,0.3-4.8,0.6-7.2,0.8c-1.4-1.9-2.8-3.9-5.3-4.3L184.9,163.7z"/>
</g>
<g id="_x23_532f10ff">
	<path class="st143" d="M200.4,156.8c0.3,7.4,5.2,13.7,10.6,18.2c2.4,2,6-2.6,7.9,0.2c0.9,3-1.8,5.1-3.1,7.6
		c-3.9,1.2-6.8-0.7-9.7-2.8c-1.1-3.8-0.2-8.2-2.4-11.6c-3.7-1.5-13-6.1-4.5-7.4C199.7,159.7,200.1,158.2,200.4,156.8z"/>
</g>
<g id="_x23_cdcac9ff">
	<path class="st144" d="M7,158.9c1.7,2.7,0.7,6.3,2,9.1c0.2,0.3,0.6,0.8,0.9,1.1c2,1.8,2.1,4.4,2.2,6.9C8.7,170.9,5.3,165.5,7,158.9
		z"/>
	<path class="st144" d="M90.7,247.1c4,0.4,8.9-1.1,12.3,0.8C98.9,247.8,94.7,248.2,90.7,247.1z"/>
</g>
<g id="_x23_c3c0bfff">
	<path class="st145" d="M242.8,168.8c0.4-3,0.2-6.1,1.1-9C243.6,162.7,244.6,166.4,242.8,168.8z"/>
</g>
<g id="_x23_8f2d0fff">
	<path class="st146" d="M188,163.8c0.1-5.4,8.4-1.6,11.1-2.8c-8.5,1.3,0.9,5.9,4.5,7.4c2.2,3.4,1.4,7.8,2.4,11.6
		c-4.1-1.1-0.5-7.6-3.8-10.2c-1.6-0.7-3.2-1.1-4.8-1.7C195.9,164.2,191.1,165.4,188,163.8z"/>
</g>
<g id="_x23_807d64ff">
	<path class="st147" d="M184.1,164.1l0.7-0.4l0.1,1c-1.5,5,1.4,8.6,4.3,12c-0.1,1.8-0.1,5.3-0.2,7.1c0,1.4-0.2,3,0.9,4.1
		c5.6,4.9-5.5,5.6-6.1,0.2c6.7-0.3,4.2-11.8,0-15.1C183.9,170.1,184,167.1,184.1,164.1z"/>
</g>
<g id="_x23_f19a28ff">
	<path class="st148" d="M184.9,164.7c2.5,0.3,3.9,2.4,5.3,4.3c1.4,4.8,3.7,9,7.4,12.5c2.5,4.5-4.5,10.4-5.6,3.6
		c7.9,0,1.3-7.5-2.8-8.3C186.3,173.3,183.5,169.6,184.9,164.7z"/>
</g>
<g id="_x23_8ce206ff">
	<path class="st149" d="M66.8,188.1c5.1-7.9,12.3-14.1,19.1-20.4l0.8,0.2c6.1,0.3,10,6.8,16.2,4.4c3,1.1,8.4,3,6.6,7.1
		c-8.4-2.3-14.1,3.1-21.2,4.7c-2.1-0.1-4.2-0.2-6.3-0.1c-2.9,2.3-5.6,5.1-9.8,4.1C70.4,188.1,68.6,188,66.8,188.1z"/>
</g>
<g id="_x23_3b90a1ff">
	<path class="st150" d="M150,172c6.3,1.4,9.8-6.2,16.3-3.9l-0.4,0.5c-4.8-0.8-7.5,3-11,5.3c-5-0.6-10.5-1.6-13.1,4
		c4.4,3.3,13.2-2.3,15.4,4c-5-3.1-11.3-1-16.8-2.6C141.7,175.2,144.9,170.4,150,172z"/>
</g>
<g id="_x23_f46d15ff">
	<path class="st151" d="M197.5,168.1c1.6,0.6,3.3,1,4.8,1.7c-4.5,7-5.5,19.8,1.7,25.3c-3-0.3-5.1-3.2-8.1-3.2
		c0.1,3.2,2.6,5.6,4.1,8.2c1.5-0.2,3.4,0.2,4.5-1c0.3-1,0.5-2.1,0.7-3.1c6.2,6.1-6.5,3.6-9.2,7.8c0-0.4-0.1-1.3-0.1-1.7
		c0.6-5.2-5.1-1.6-7.2-3.2c0.6-1.9,1.7-3.8,2.6-5.6c2.2-2.1,2.1-5.2-1.4-5.5c-1.1-1.1-0.9-2.7-0.9-4.1c1,0.4,2,0.8,3,1.2
		c1.1,6.7,8.1,0.8,5.6-3.6c-3.7-3.4-5.9-7.7-7.4-12.5C192.7,168.7,195.1,168.4,197.5,168.1z"/>
</g>
<g id="_x23_8d8784ff">
	<path class="st152" d="M9.9,169.1l1-0.1l1.1,0c0.9,3.5,1.3,7.3,4.7,9.3c0.2,8,5.1,15,10.2,21.1c1.4,1.3,2.8,2.6,4.3,3.9l0,0.8
		c-8.5-2.2-8.7-12.3-15-16.3c-0.3-2.7,0.8-5.8-1-8c-0.9-1.3-2.1-2.5-3-3.8C12,173.5,11.9,170.9,9.9,169.1z"/>
</g>
<g id="_x23_d61507ff">
	<path class="st153" d="M42.9,184c5.7-3.1,2.3-12.5,7.2-14.4c1.6,4.3,1.3,8.9,0.9,13.3C48.3,183.5,45.6,183.9,42.9,184z"/>
</g>
<g id="_x23_f3640dff">
	<path class="st154" d="M50.1,169.6c0.4-0.1,1.3-0.4,1.7-0.5c-1.6,6.6,11.4,1.5,5.8,7.6c-7.8,3.8-0.9,17.2-9.8,18.2
		c2.2-1.8,3.7-4.2,3.1-7.1c0.1-1.6,0.1-3.2,0.1-4.8C51.4,178.5,51.7,173.9,50.1,169.6z"/>
</g>
<g id="_x23_34aecbff">
	<path class="st155" d="M154.9,173.9c3.5-2.3,6.2-6,11-5.3c6.9,4.7,11.7,11.9,17.9,17.4c-0.2,0.5-0.6,1.6-0.8,2.1c-0.7,0-2.2,0-3,0
		c-5.8,2.6-7.2-2.5-11-4.2c-3.8-1.6-8.5,1-11.8-2c-2.2-6.3-11-0.7-15.4-4C144.4,172.2,149.9,173.3,154.9,173.9z"/>
</g>
<g id="_x23_e8190aff">
	<path class="st156" d="M202.3,169.8c3.2,2.6-0.4,9.1,3.8,10.2c2.5,3.3-1.8,3.9-4,5.3c0.5,6.4,7.6,9.7,12.9,11.8
		c0.9,2.6,3.3,4.1,5.2,5.9l-0.2,0.8c-0.4,3-0.7,8.2-5,7.2c0-0.7-0.1-2.1-0.1-2.9c2.7-8.6-11.4-6.6-9,1.8c-7.8-7.2-21.4,1.9-28-7.4
		c5.8-0.2,12,2.7,18.1,1.3c2.7-4.2,15.4-1.8,9.2-7.8c-0.3-0.2-0.9-0.7-1.2-0.9C196.8,189.6,197.8,176.8,202.3,169.8z"/>
</g>
<g id="_x23_f7ce63ff">
	<path class="st157" d="M59.1,186.1c-8.1,2-1.5-10.8,3.9-10.2c0,2.6,0,5.2,0,7.8C61.3,183.9,59.8,184.6,59.1,186.1z"/>
</g>
<g id="_x23_f6d267ff">
	<path class="st158" d="M189.2,176.7c4.1,0.8,10.8,8.3,2.8,8.3c-1-0.4-2-0.8-3-1.2C189.1,182,189.2,178.5,189.2,176.7z"/>
</g>
<g id="_x23_d18e21ff">
	<path class="st159" d="M88.3,184.1c7.2-1.6,12.9-7,21.2-4.7l-0.1,0.8l-0.3,0.8c-4.7-2.3-6.7,4.5-10.7,2.4c-2.6-1.5-4.9,1.2-7.4,1.8
		c-0.8-0.2-2.5-0.5-3.4-0.6L88.3,184.1z"/>
</g>
<g id="_x23_8a7a68ff">
	<path class="st160" d="M140.5,179.2c5.5,1.6,11.8-0.4,16.8,2.6c3.3,3,8,0.4,11.8,2l-0.3,1c-1.3,0-2.6,0.1-3.9,0.1
		c-1.6,0-3.2,0-4.8-0.1c-1.3-0.3-2.6-0.7-3.9-1.1c-2.4-2.1-5.2-3.5-8.5-2.9c-2,0-4.1,0.1-6.1,0.2
		C141.4,180.7,140.8,179.8,140.5,179.2z"/>
</g>
<g id="_x23_cec8c5ff">
	<path class="st161" d="M15.1,179.9c1.8,2.2,0.8,5.3,1,8C13.8,186.1,15.4,182.5,15.1,179.9z"/>
</g>
<g id="_x23_98260bff">
	<path class="st162" d="M109.4,180.2c0.4-0.1,1.2-0.3,1.6-0.4c0.9,6.7-7.5,5.5-10.9,9.2c-5.1,1.6,1.3,8.9-1.9,11.2
		c-5.2,1.2-4.7-3.8-4.2-7.3c-4.1,1.8-6,3.3-9.7-0.1c1.8-2.5,0.7-6.5,3.4-8.2c0.8,0.2,2.6,0.5,3.4,0.6c-3.2,11.2,6.1,2.3,10,1.7
		c2-3.3,7.6-1.7,8.1-5.9L109.4,180.2z"/>
</g>
<g id="_x23_85260dff">
	<path class="st163" d="M206.1,180c2.9,2.1,5.8,4,9.7,2.8c4.3,0,6.4,5,3.3,8.3c2.9-8.5-6.1-7.2-11.2-7c-1.5,5.9,7.5,1.7,8.3,6.8
		c-1.9-0.9-4.6-3.1-6.2-0.7c-0.4,3.5,3.8,4.2,4.9,6.9c-5.3-2.1-12.4-5.4-12.9-11.8C204.3,183.9,208.6,183.3,206.1,180z"/>
</g>
<g id="_x23_eb200aff">
	<path class="st164" d="M98.4,183.4c4,2.1,6-4.7,10.7-2.4c-0.5,4.2-6.1,2.6-8.1,5.9c-3.9,0.7-13.2,9.5-10-1.7
		C93.5,184.6,95.8,181.9,98.4,183.4z"/>
</g>
<g id="_x23_d91609ff">
	<path class="st165" d="M141.6,181.2c2-0.1,4.1-0.2,6.1-0.2c0.8,4.2,5.1,2.8,8.5,2.9c1.3,0.4,2.6,0.7,3.9,1.1
		c0.2,1.5,0.6,4.6,0.8,6.1c-4.3,0.6-6-5.2-10.9-3.2C148.3,184.1,142.5,185.3,141.6,181.2z"/>
</g>
<g id="_x23_eb8b35ff">
	<path class="st166" d="M147.7,181c3.2-0.6,6.1,0.8,8.5,2.9C152.9,183.8,148.5,185.3,147.7,181z"/>
</g>
<g id="_x23_93250dff">
	<path class="st167" d="M42.9,184c2.7-0.1,5.4-0.5,8.1-1c0,1.6,0,3.2-0.1,4.8c-4.8,2.5-7.5,8.5-13.5,8.8c-2.9,1.2-0.6,7.2-4.5,7.8
		c-0.5,0-1.4-0.1-1.9-0.1l0-0.8c2.4-2,3.4-4.9,4.7-7.5c4-1.2,7.9-3.2,10.3-6.8c-2.9-1.1-6.1-0.1-9.2-0.1
		C41.2,189.2,43.9,188,42.9,184z"/>
</g>
<g id="_x23_291605ff">
	<path class="st168" d="M113.8,187.9c3.9-1.3,7.8-2.8,11.4-4.8c4.7,0.6,9.3,3,13.5,5.3c7,12.9,21.2,18.9,33.4,25.8
		c-0.1,1.6-0.6,3.1-1.1,4.7c-3.1-0.4-5.7,1.2-8,3c1.3-3,1-6.3-2.6-7.1C149,211,141.7,197.8,129,198c-15.4-3.2-25.1,11.6-37.9,17.1
		c-4.2,1-3.7,5.6-1.1,7.9c-2-0.4-3.2-2.1-5-3c-2.1-0.6-4.4-0.4-6.1-2c0-1.2,0.1-2.5,0.2-3.7C92,207.4,105.4,200.1,113.8,187.9z"/>
</g>
<g id="_x23_d60b05ff">
	<path class="st169" d="M31.9,192c-1.6-6.3,5.6-9.6,11-8.1c1,4-1.7,5.3-5.9,4.9C35.6,190.5,34.4,192.6,31.9,192z"/>
</g>
<g id="_x23_f76c16ff">
	<path class="st170" d="M59.1,186.1c0.8-1.6,2.3-2.2,3.9-2.4l0.2,1c0.3,3.9-3.2,6.4-4,10c1.4,1,3.1,1.7,4.2,3.2
		c-1.9,4-9.5-1.3-7.2,4.9c3.9,1.9,11.1,1.5,14.1-2.6c1,0.3,3.4-1,3.5,0.6c-3.7,2-6.9,5.5-11.8,4.3c-6.1,3.3-6.7-4-11-5.1
		c0.3-0.5,1-1.5,1.4-1.9C54.9,194.2,55.9,189.6,59.1,186.1z"/>
</g>
<g id="_x23_f5cc5cff">
	<path class="st171" d="M72.2,188.1c4.2,1,6.9-1.7,9.8-4.1c0,1.9,0.1,3.9,0.2,5.8c0,0.6-0.1,1.7-0.1,2.2c-2.4-1.8-4.7-4.4-8.3-3
		c0.4,3,3.2,4.3,5.4,5.8c-4.3-0.7-5.3,4.2-9,5.3c-3,4.2-10.2,4.6-14.1,2.6c-2.3-6.2,5.3-0.9,7.2-4.9c1.9-3.1,7.6-1.3,8-5.4
		C71.8,191,72,189.6,72.2,188.1z"/>
</g>
<g id="_x23_e17714ff">
	<path class="st172" d="M82,184c2.1-0.1,4.2,0,6.3,0.1l-0.7,0.5c-2.7,1.7-1.6,5.7-3.4,8.2l-0.9,0.2c-0.3-1.1-0.7-2.1-1-3.2
		C82.1,187.9,82,186,82,184z"/>
</g>
<g id="_x23_acc69aff">
	<path class="st173" d="M169.1,183.9c3.8,1.8,5.3,6.8,11,4.2l-0.5,0.8c-0.4,0-1.1,0.1-1.5,0.1c-2,0.1-3.9,0.1-5.9,0.3
		c-1.6-1.1-2.8-2.6-3.5-4.5L169.1,183.9z"/>
</g>
<g id="_x23_da0b05ff">
	<path class="st174" d="M208,184.1c5.1-0.2,14.1-1.4,11.2,7c-0.9,0.9-1.9,0.4-2.8-0.2C215.4,185.8,206.4,190,208,184.1z"/>
</g>
<g id="_x23_e4a118ff">
	<path class="st175" d="M63.2,184.8c0.5,1.9,1.3,3.6,3.6,3.3c-3.9,3.7,0.9,5.8,4.6,4.4c-0.4,4.2-6.1,2.3-8,5.4
		c-1-1.5-2.8-2.2-4.2-3.2C60,191.1,63.5,188.7,63.2,184.8z"/>
</g>
<g id="_x23_a3230aff">
	<path class="st176" d="M160.1,185c1.6,0,3.2,0,4.8,0.1c-0.3,2.8,0.7,5.2,2.6,7.1c-1.4,1.1-2.5,2.5-3.8,3.8
		c-2.8,0.6-3.6-3.7-6.6-3.1c-0.7,2.7,2.8,7.9-1.2,8.5c-10.7-1.8,5.7-14.1-5.9-13.4c4.9-2,6.7,3.7,10.9,3.2
		C160.7,189.6,160.3,186.5,160.1,185z"/>
</g>
<g id="_x23_e67a23ff">
	<path class="st177" d="M164.9,185c1.3,0,2.6-0.1,3.9-0.1c0.6,1.9,1.9,3.3,3.5,4.5c-1.2,1.4-2.6,2.5-4.1,3.6l-0.6-0.8
		C165.6,190.2,164.6,187.8,164.9,185z"/>
</g>
<g id="_x23_eb1508ff">
	<path class="st178" d="M37.5,196.6c6-0.3,8.7-6.2,13.5-8.8c0.6,3-1,5.3-3.1,7.1c-1.4,1-2.2,2.6-1.5,4.3c1.4,0.9,3.1,0.6,4.7,0.7
		c4.3,1.1,4.8,8.3,11,5.1c4.8,1.1,8-2.4,11.8-4.3c0.1,0.4,0.3,1.3,0.4,1.8c-6.5,8.2-19,1-26.1,6.4c-4.6,5.1-3-2.8-5.2-5.9
		c-5-0.6-7.7,3.5-7,8.2c-0.5-0.1-1.4-0.2-1.9-0.2c-0.4-2.2-0.7-4.4-0.9-6.6C36.8,203.7,34.6,197.8,37.5,196.6z"/>
</g>
<g id="_x23_e74f12ff">
	<path class="st179" d="M66.8,188.1c1.8,0,3.6,0,5.4,0c-0.2,1.5-0.4,2.9-0.8,4.4C67.7,193.8,62.9,191.8,66.8,188.1z"/>
</g>
<g id="_x23_ce5526ff">
	<path class="st180" d="M180.1,188.1c0.7,0,2.2,0,3,0l0.8,0c0.6,5.4,11.7,4.7,6.1-0.2c3.5,0.2,3.6,3.3,1.4,5.5
		c-4.2,0.1-9.1,0.1-11.9-3.6l0.1-0.9L180.1,188.1z"/>
</g>
<g id="_x23_f7de94ff">
	<path class="st181" d="M73.8,189.1c3.6-1.4,5.9,1.2,8.3,3c0.4,2.3-0.6,3.4-2.9,2.8C76.9,193.4,74.2,192,73.8,189.1z"/>
</g>
<g id="_x23_f2daa6ff">
	<path class="st182" d="M172.2,189.4c1.9-0.2,3.9-0.3,5.9-0.3c-1.7,1.9-3.3,3.8-5,5.6c-1,0.5-2.1,1-3.1,1.5
		c-0.5-0.3-1.4-0.9-1.9-1.2c0-0.5,0-1.6,0.1-2.1C169.6,191.9,171,190.8,172.2,189.4z"/>
</g>
<g id="_x23_fad165ff">
	<path class="st183" d="M178.1,189.1c0.4,0,1.1-0.1,1.5-0.1l-0.1,0.9c-0.9,5,7.5,4.8,9.3,9.1c2.2,1.6,7.9-2,7.2,3.2
		c-8.4,2.1-17.5-1.2-22.9-7.5C174.8,192.8,176.4,190.9,178.1,189.1z"/>
</g>
<g id="_x23_e69c54ff">
	<path class="st184" d="M82.2,189.8c0.3,1.1,0.7,2.1,1,3.2c-0.1,0.8-0.2,2.2-0.2,3c-8.1-3-8.4,2.4-3.6,5.3c-0.9,1.6-2.2,2.8-4.2,3
		c-0.3-0.4-0.9-1.4-1.2-1.8c-0.1-0.4-0.3-1.3-0.4-1.8c-0.1-1.5-2.5-0.3-3.5-0.6c3.7-1.1,4.7-6,9-5.3c2.3,0.6,3.3-0.5,2.9-2.8
		C82.1,191.5,82.2,190.4,82.2,189.8z"/>
</g>
<g id="_x23_f1a320ff">
	<path class="st185" d="M188.7,199c-1.8-4.4-10.2-4.1-9.3-9.1c2.8,3.7,7.7,3.6,11.9,3.6C190.4,195.2,189.4,197,188.7,199z"/>
</g>
<g id="_x23_662f0eff">
	<path class="st186" d="M163.8,196c1.2-1.3,2.3-2.7,3.8-3.8l0.6,0.8c0,0.5,0,1.5-0.1,2.1c-0.5,2.9,2.2,4.6,3.7,6.6
		c0.8,1.7,2.1,2.6,4,2.1c0.6,0.3,1.7,0.9,2.2,1.2c-4.6,1-9,0.1-13.3-1.6c-3.2,0-6.8,1.4-8.8-2c4-0.6,0.6-5.8,1.2-8.5
		C160.2,192.3,160.9,196.6,163.8,196z"/>
</g>
<g id="_x23_f89844ff">
	<path class="st187" d="M195.9,191.9c3.1,0,5.1,2.9,8.1,3.2c0.3,0.2,0.9,0.7,1.2,0.9c-0.2,1.1-0.4,2.1-0.7,3.1
		c-0.9-4.5-6.2-3.9-4.5,1C198.5,197.5,196.1,195.1,195.9,191.9z"/>
</g>
<g id="_x23_65300fff">
	<path class="st188" d="M83.3,193l0.9-0.2c3.6,3.4,5.6,1.9,9.7,0.1c-0.5,3.5-1,8.6,4.2,7.3c-4.9,2.7-10.4,3.2-15.8,3.2
		c-4.1,2.8-8.9,4.5-13.5,6.4c-0.5-0.2-1.5-0.7-2-0.9c3.2-0.9,5.9-2.8,8.6-4.7c1.9-0.2,3.2-1.4,4.2-3c1.8-1.4,4-2.7,3.6-5.3
		C83.1,195.2,83.2,193.7,83.3,193z"/>
</g>
<g id="_x23_d13214ff">
	<path class="st189" d="M168,195c0.5,0.3,1.5,0.9,1.9,1.2c3.7,0,5.5,3.2,1.8,5.4C170.2,199.6,167.6,197.9,168,195z"/>
</g>
<g id="_x23_f1863bff">
	<path class="st190" d="M170,196.2c1-0.5,2.1-1,3.1-1.5c5.4,6.3,14.5,9.6,22.9,7.5c0,0.4,0,1.3,0.1,1.7c-6.1,1.4-12.3-1.5-18.1-1.3
		c-0.6,0.3-1.7,0.8-2.2,1.1c-1.9,0.5-3.2-0.5-4-2.1C175.4,199.4,173.7,196.3,170,196.2z"/>
</g>
<g id="_x23_f7bf85ff">
	<path class="st191" d="M46.3,199.2c0.3-3.2,5.5-5,6-1.2c-0.3,0.5-1,1.4-1.4,1.9C49.5,199.8,47.7,200.1,46.3,199.2z"/>
</g>
<g id="_x23_e3451aff">
	<path class="st192" d="M79.5,201.3c-4.9-2.9-4.5-8.3,3.6-5.3C83.5,198.6,81.3,199.9,79.5,201.3z"/>
</g>
<g id="_x23_f9cda9ff">
	<path class="st193" d="M200,200.1c-1.7-4.9,3.6-5.5,4.5-1C203.4,200.4,201.5,200,200,200.1z"/>
</g>
<g id="_x23_160c04ff">
	<path class="st194" d="M91.1,215.1c12.8-5.5,22.5-20.3,37.9-17.1c12.7-0.2,20,13,31.3,16.8c3.7,0.8,3.9,4.1,2.6,7.1
		c-23,7.9-49.6,9.3-72.9,1.1C87.4,220.7,86.9,216.1,91.1,215.1 M121.4,205.5c-9.5,1.4-16.4,8.8-24.1,13.8c0.4,2.4,3.7,4.1,5,6.5
		c15.8,1.8,31.7,1,47.5,0c1.4-2,2.6-4.1,4.2-5.9C145.2,211.8,134.1,203.4,121.4,205.5z"/>
</g>
<g id="_x23_a5260fff">
	<path class="st195" d="M35.8,211.2c-0.7-4.7,2-8.8,7-8.2c2.2,3.2,0.6,11,5.2,5.9c-1,2.4-1.4,6.2-6,3.1c-0.1-2.7,1.7-5.7-0.1-8.1
		c-3,0.9-4.3,3.9-5.3,6.6L35.8,211.2z"/>
</g>
<g id="_x23_a11e0aff">
	<path class="st196" d="M48,208.9c7.2-5.4,19.6,1.8,26.1-6.4c0.3,0.4,0.9,1.4,1.2,1.8c-2.7,1.9-5.4,3.7-8.6,4.7
		C60.5,209,54.2,209,48,208.9z"/>
</g>
<g id="_x23_9e230eff">
	<path class="st197" d="M175.8,203.7c0.6-0.3,1.7-0.9,2.2-1.1c6.6,9.3,20.2,0.1,28,7.4c-2.4-8.4,11.7-10.4,9-1.8
		c-0.8-2.4-2.9-4.8-5.8-4.1c-3.1,2.6,2.2,4.7,3.3,7.1c-1,1.6-2.3,3-3.7,4.2c-0.8-1.4-1.9-2.7-3.2-3.7c-3.1-3.6-8.2-2.5-12.4-2.6
		c-5.6,1-11-0.5-15.2-4.2C177.4,204.6,176.3,204,175.8,203.7z"/>
</g>
<g id="_x23_f75a59ff">
	<path class="st198" d="M31.1,204.2c0.5,0,1.4,0.1,1.9,0.1c0.3,2.2,0.6,4.4,0.9,6.6c-3.2,0.4-1.9-3.8-2.7-6L31.1,204.2z"/>
</g>
<g id="_x23_573c22ff">
	<path class="st199" d="M36.7,210.6c1-2.7,2.3-5.7,5.3-6.6c1.8,2.4-0.1,5.4,0.1,8.1c4.7,3.1,5-0.7,6-3.1c6.2,0,12.5,0,18.7,0
		c0.5,0.2,1.5,0.7,2,0.9c1.4,0.8,3.1,1.1,4.2,2.2c4.2,7.7-6.6,9.5-12,9.9c-2.7,1.2-11.9-5.4-10.5,1.3c-1.2-1-2.5-2.1-3.7-3.2
		C43.5,216.9,40.8,212.8,36.7,210.6z"/>
</g>
<g id="_x23_5e2f14ff">
	<path class="st200" d="M209.2,204.1c2.8-0.7,4.9,1.7,5.8,4.1c0,0.7,0.1,2.1,0.1,2.9c-0.6,0-1.9,0.1-2.6,0.1
		C211.4,208.8,206.1,206.6,209.2,204.1z"/>
</g>
<g id="_x23_c79891ff">
	<path class="st201" d="M215.1,211c4.3,0.9,4.6-4.2,5-7.2l0.8,0.3c-0.3,1.2-0.5,2.5-0.6,3.8c0.8,4.4-2.7,4.6-6.3,4.9
		c-6.2,5.6-12.1,11.3-17.8,17.4c0-0.5,0-1.5,0-2c0.6-0.7,1.2-1.4,1.8-2.1c3.6-3.5,7.4-6.9,10.9-10.6c1.4-1.2,2.7-2.6,3.7-4.2
		C213.1,211.1,214.4,211.1,215.1,211z"/>
</g>
<g id="_x23_f9b7b5ff">
	<path class="st202" d="M31.2,204.9c0.7,2.2-0.6,6.4,2.7,6c0.5,0.1,1.4,0.2,1.9,0.2c0.7,0.5,1.4,1.1,2.1,1.7c-3.1,0.4-6.2,0.9-9.1,2
		C30.2,211.7,31.5,208.5,31.2,204.9z"/>
</g>
<g id="_x23_040201ff">
	<path class="st203" d="M121.4,205.5c12.7-2.1,23.8,6.3,32.6,14.5c-1.7,1.8-2.9,3.9-4.2,5.9c-15.9,0.9-31.7,1.7-47.5,0
		c-1.3-2.4-4.6-4.1-5-6.5C105,214.2,111.9,206.9,121.4,205.5z"/>
</g>
<g id="_x23_553619ff">
	<path class="st204" d="M178,204.9c4.2,3.7,9.6,5.1,15.2,4.2c-4.2,6.7-12.4,7.3-18.6,11.2C172.3,214,185.1,211.1,178,204.9z"/>
</g>
<g id="_x23_f9d1d0ff">
	<path class="st205" d="M220.2,207.8c0.9,2.4,2.3,4.7,2.9,7.2c-3.1-0.7-6.1-1.7-9.2-2.3C217.5,212.4,221,212.2,220.2,207.8z"/>
</g>
<g id="_x23_3a230eff">
	<path class="st206" d="M193.2,209.1c4.2,0,9.3-1.1,12.4,2.6c-0.8,5.9-9.5,7.3-7.7,14.3c-0.6,0.7-1.2,1.4-1.8,2.1
		c-2.1,3-5.8,3.5-9,4.8c-1.8-3.4-0.5-6.4,2-8.9c-2-4.3-9.1-1.1-12.6-2.8c-0.5-0.2-1.4-0.6-1.8-0.8
		C180.8,216.4,189,215.8,193.2,209.1z"/>
</g>
<g id="_x23_b2a296ff">
	<path class="st207" d="M35.8,211.2l0.9-0.6c4.2,2.2,6.9,6.3,10.2,9.6l-1.1,0.1c-3-2-5.2-4.9-7.9-7.4
		C37.2,212.3,36.5,211.7,35.8,211.2z"/>
</g>
<g id="_x23_413122ff">
	<path class="st208" d="M73,212.1c1.9,2,3.8,4.1,6,5.8c1.7,1.6,4.1,1.4,6.1,2c3.8,7.5-5.2,2.6-9.1,6c-4.4,2.6-17.1,0-11.1,8.1
		l-0.8-0.1c-5-3-10.1-5.5-13.5-10.6c-1.4-6.7,7.8-0.1,10.5-1.3C66.4,221.6,77.2,219.8,73,212.1z"/>
</g>
<g id="_x23_543e2aff">
	<path class="st209" d="M205.6,211.7c1.3,1,2.4,2.3,3.2,3.7c-3.5,3.6-7.3,7-10.9,10.6C196.1,218.9,204.8,217.6,205.6,211.7z"/>
</g>
<g id="_x23_282421ff">
	<path class="st210" d="M162.9,221.9c2.4-1.8,4.9-3.4,8-3c1.2,0.5,2.4,1,3.7,1.5c0.5,0.2,1.4,0.6,1.8,0.8c-3.1,2.1-7.7,1.8-9.6,5.8
		c-5.5-0.5-9.5,4.1-14.9,3.9c-6.4-1.3-10.7,4.6-16.7,4.5c-10-0.5-20.6,1.2-29.7-3.9c-7.7,2-16.3-5-23.2-0.2c-2.4,2.5-2,6.6-2.6,9.8
		c-0.6-0.8-1.2-1.5-1.8-2.2c-1.5-0.2-4.4-0.6-5.9-0.8c-0.2-0.5-0.7-1.6-1-2.1c-0.9-2.3-3-3-6.2-2c-6-8.1,6.7-5.5,11.1-8.1
		c3.9-3.4,12.9,1.6,9.1-6c1.7,0.9,3,2.6,5,3C113.3,231.2,139.9,229.8,162.9,221.9z"/>
</g>
<g id="_x23_b2aaa4ff">
	<path class="st211" d="M45.8,220.2l1.1-0.1c1.2,1.1,2.4,2.1,3.7,3.2c3.5,5.1,8.5,7.6,13.5,10.6c2,0.8,4,1.4,6.1,1.9
		C59.8,236.4,52,227.9,45.8,220.2z"/>
</g>
<g id="_x23_1a1716ff">
	<path class="st212" d="M176.4,221.1c3.5,1.7,10.6-1.5,12.6,2.8c-2.5,2.5-3.9,5.6-2,8.9c-7.8,2-13.4,8-21.1,9.1
		c-4.9-1.1-5.6,6.1-10.8,3.9c-4.2-0.9-13.1-2.2-13.6,4.2h-31.1c-1.8-7.1-11.2-5.1-16.7-4.4c-0.6,0.1-1.8,0.4-2.4,0.6
		c-0.9-6.1-8-2.7-11.5-5.1c0.6-3.2,0.2-7.3,2.6-9.8c7-4.8,15.6,2.2,23.2,0.2c9.1,5.1,19.6,3.4,29.7,3.9c-10.9,1.3-22,0.9-32.9-0.2
		c-0.8,3.9,2.6,8.7,7.2,6.3c13.1,0.4,26.2,3,39.3,1.4c9.4-5.4,22.4-3.7,29.6-12.2c2.9-0.7,5.9-1.8,4.4-5.4c-5.1-1.8-11.3-1.1-16,1.8
		C168.8,222.9,173.4,223.3,176.4,221.1z"/>
</g>
<g id="_x23_090706ff">
	<path class="st213" d="M166.9,227c4.7-2.8,10.9-3.6,16-1.8c1.5,3.6-1.6,4.6-4.4,5.4c-7.2,8.5-20.2,6.7-29.6,12.2
		c-13.1,1.7-26.2-1-39.3-1.4c-4.6,2.4-8-2.4-7.2-6.3c10.9,1.1,22,1.5,32.9,0.2c6.1,0.1,10.3-5.8,16.7-4.5
		C157.4,231.1,161.3,226.5,166.9,227z"/>
</g>
<g id="_x23_8d8987ff">
	<path class="st214" d="M187,232.9c3.2-1.3,6.9-1.8,9-4.8c0,0.5,0,1.5,0,2c-4.2,2.4-8.6,6.7-13.8,5.3c-1.5,3.7-4.1,5.5-8,3.9
		c-1.4,7.8-10.3,1.6-14.1,7.8c-4.1-0.1-8.2-0.2-12.3-0.4c2.4-0.4,4.9-0.8,7.4-1c5.2,2.3,5.9-4.9,10.8-3.9
		C173.6,240.8,179.2,234.9,187,232.9z"/>
</g>
<g id="_x23_706a68ff">
	<path class="st215" d="M64.1,233.9l0.8,0.1c3.2-1,5.3-0.3,6.2,2l-1-0.2C68.1,235.3,66.1,234.7,64.1,233.9z"/>
</g>
<g id="_x23_bab6b4ff">
	<path class="st216" d="M70.2,235.8l1,0.2c0.2,0.5,0.7,1.6,1,2.1c1.5,0.2,4.4,0.6,5.9,0.8c0,0.5-0.1,1.5-0.1,2
		C74.6,239.9,68.7,240.7,70.2,235.8z"/>
</g>
<g id="_x23_6e6a69ff">
	<path class="st217" d="M72.1,238.1c1.5,0.2,4.4,0.6,5.9,0.8C76.5,238.7,73.6,238.3,72.1,238.1z"/>
</g>
<g id="_x23_797674ff">
	<path class="st218" d="M78,238.9c0.6,0.8,1.2,1.5,1.8,2.2c3.6,2.3,10.6-1,11.5,5.1c-3.1-3.6-7.9-3-12.2-3.3c-0.3-0.5-0.9-1.5-1.2-2
		C77.9,240.4,78,239.4,78,238.9z"/>
</g>
<g id="_x23_c4c1c0ff">
	<path class="st219" d="M79.1,242.9c4.3,0.3,9.1-0.3,12.2,3.3l-0.6,0.9C87.3,244.5,83,243.5,79.1,242.9z"/>
</g>
<g id="_x23_423f3fff">
	<path class="st220" d="M93.7,245.6c5.5-0.8,14.9-2.7,16.7,4.4h-1.9C106,244.4,98.7,246.6,93.7,245.6z"/>
</g>
<g id="_x23_53504eff">
	<path class="st221" d="M141.6,250c0.5-6.4,9.4-5.1,13.6-4.2c-2.5,0.2-4.9,0.6-7.4,1c-1.4,0.8-2.4,2.1-3.4,3.2H141.6z"/>
</g>
<g id="_x23_84807eff">
	<path class="st222" d="M91.3,246.2c0.6-0.1,1.8-0.4,2.4-0.6c5,1,12.3-1.2,14.8,4.4h-3.9c-0.4-0.5-1.2-1.6-1.6-2.1
		c-3.4-1.9-8.3-0.4-12.3-0.8L91.3,246.2z"/>
</g>
<g id="_x23_c0bcbaff">
	<path class="st223" d="M144.4,250c1-1.2,2.1-2.4,3.4-3.2c4.1,0.1,8.2,0.2,12.3,0.4c-3.6,2.9-10.2-1.5-12.7,2.9H144.4z"/>
</g>
</svg>
