<?xml version="1.0" encoding="utf-8"?>
<!-- Generator: Adobe Illustrator 26.0.3, SVG Export Plug-In . SVG Version: 6.00 Build 0)  -->
<svg version="1.1" id="Layer_1" xmlns="http://www.w3.org/2000/svg" xmlns:xlink="http://www.w3.org/1999/xlink" x="0px" y="0px"
	 viewBox="0 0 250 250" style="enable-background:new 0 0 250 250;" xml:space="preserve">
<style type="text/css">
	.st0{fill:#FFFFFF;}
	.st1{fill:#7E7E7E;}
	.st2{fill:#E78200;}
</style>
<g id="_x23_ffffffff">
	<path class="st0" d="M118.4,27.4c9.4-3.9,20.8,4.6,20.4,14.6c0.4,8.7-8.1,16.4-16.7,15.5c-6.6-0.7-12.9-6-13.7-12.8
		C106.9,37.4,111.4,29.9,118.4,27.4z"/>
	<path class="st0" d="M193.3,69.1c10.5-2.9,21.5,8.2,18.3,18.6c-1.7,8.1-10.6,13.6-18.6,11.5c-8.2-2-13.7-11-11.4-19.2
		C183.3,74.7,187.8,70.2,193.3,69.1z"/>
	<path class="st0" d="M46.4,71.3c4.8-1.8,10.3-1,14.4,2c3.7,2.4,5.6,6.7,6.5,10.9c0.8,7.6-4.8,15.5-12.5,16.8
		c-8.7,2.1-17.9-5.1-18.4-13.9C35.6,80.3,40.2,73.7,46.4,71.3z"/>
	<path class="st0" d="M193.4,149.3c9.5-3.6,20.8,4.6,20.3,14.7c0.4,9.5-9.7,17.1-18.7,15c-8.6-1.8-14.8-12-11.2-20.3
		C185.3,154.4,188.9,150.7,193.4,149.3z"/>
	<path class="st0" d="M49.4,152.2c8.8-2.8,19.2,4.6,19.4,13.8c1.1,8.7-7.1,17.1-15.7,16.6c-8.1,0-15.5-7.4-14.7-15.6
		C37.8,160.1,43,154.1,49.4,152.2z"/>
	<path class="st0" d="M122.4,193.2c7.7-2.6,16.7,2.6,18.9,10.2c3.7,9.6-5.3,20.8-15.3,20.1c-8.6-0.3-16-8.8-14.7-17.4
		C112,200.2,116.6,194.9,122.4,193.2z"/>
</g>
<g id="_x23_7e7e7eff">
	<path class="st1" d="M117.5,13.8c6.2-0.9,12.8-0.6,18.6,2.2c11.8,5.7,19,19.9,15.6,32.6C149,60.5,138.2,70,126,70.9
		c-15.9,2-31.5-11.8-31.5-27.9C93.6,29.4,104.1,16.2,117.5,13.8 M118.4,27.4c-7,2.4-11.5,10-10,17.3c0.8,6.8,7.1,12.1,13.7,12.8
		c8.6,0.9,17.1-6.8,16.7-15.5C139.2,32,127.8,23.5,118.4,27.4z"/>
	<path class="st1" d="M188.4,56.4c12.8-3.7,27.7,2.5,34,14.3c5.2,9.7,4.2,22.4-2.6,31.1c-9.4,13.2-30.6,15-42.4,3.9
		c-5.8-4.9-9.1-12.2-9.8-19.7C166.8,72.9,175.7,59.9,188.4,56.4 M193.3,69.1c-5.5,1.1-10,5.6-11.6,11c-2.4,8.2,3.2,17.2,11.4,19.2
		c8,2.1,16.9-3.5,18.6-11.5C214.8,77.3,203.8,66.1,193.3,69.1z"/>
	<path class="st1" d="M45.5,57.8c6-0.9,12.5-1,18.1,1.5c10.7,4.5,17.8,16.1,17,27.6c0,14.6-13.1,27.5-27.6,27.8
		c-9.4,0.6-18.8-4-24.4-11.5c-3.4-4.4-5.1-9.9-5.9-15.4C21.6,74,31.9,60.5,45.5,57.8 M46.4,71.3c-6.2,2.4-10.8,9-10,15.8
		c0.5,8.8,9.7,16,18.4,13.9c7.6-1.3,13.3-9.2,12.5-16.8c-0.9-4.2-2.8-8.4-6.5-10.9C56.7,70.2,51.1,69.5,46.4,71.3z"/>
	<path class="st1" d="M192.4,135.8c5.8-1,12-0.9,17.4,1.6c8.1,3.5,14.4,10.8,16.5,19.4c4,13.1-3.6,28.2-16,33.6
		c-8.8,3.9-19.5,3.3-27.6-1.9c-12.6-7.7-17.1-25.6-9.7-38.4C176.9,142.6,184.4,137.6,192.4,135.8 M193.4,149.3
		c-4.4,1.4-8.1,5.1-9.6,9.5c-3.6,8.3,2.7,18.5,11.2,20.3c9,2,19.1-5.6,18.7-15C214.2,153.9,202.9,145.6,193.4,149.3z"/>
	<path class="st1" d="M45.4,139.4c14.3-4,31.3,4.2,35.6,18.8c5.6,15-4.4,33.2-19.9,36.9c-15.5,4.8-33.3-6.3-36.1-22.2
		C21.8,158.6,31.2,143,45.4,139.4 M49.4,152.2c-6.3,1.9-11.6,7.9-11.1,14.8c-0.7,8.2,6.7,15.5,14.7,15.6c8.7,0.5,16.8-7.9,15.7-16.6
		C68.6,156.7,58.2,149.4,49.4,152.2z"/>
	<path class="st1" d="M121.4,179.6c6.4-0.8,13.3-0.4,19,2.9c9.1,4.9,15.5,15,15.2,25.4c0.4,10.4-5.9,20.6-15,25.5
		c-6.1,3.5-13.4,3.8-20.1,2.8c-15.2-2.8-26.1-19.7-22-34.6C100.8,190.6,110.3,181.4,121.4,179.6 M122.4,193.2
		c-5.8,1.6-10.4,6.9-11.1,12.9c-1.3,8.6,6,17.1,14.7,17.4c10,0.7,19-10.6,15.3-20.1C139.1,195.8,130.1,190.6,122.4,193.2z"/>
</g>
<g id="_x23_e78200ff">
	<path class="st2" d="M133.5,88.6c3.2-0.6,6.8-0.5,9.4,1.6c4.4,3.4,4.9,10.7,1,14.8c-4.3,4.6-12.8,3.7-15.9-2
		C124.3,97.9,127.8,90.3,133.5,88.6z"/>
	<path class="st2" d="M104.6,89.7c4-1,8.7,0,11.2,3.5c4,4.9,1.6,13-4.2,15.2c-6.6,3.4-14.7-3.4-13.8-10.4
		C98.5,94.4,100.8,90.8,104.6,89.7z"/>
	<path class="st2" d="M147.6,113.6c6.2-3.6,14.6,2.4,14,9.4c0.2,6.5-7.4,11.5-13.3,9.1c-4.2-1.7-7.2-6.3-6.6-10.8
		C142.5,118,144.5,114.9,147.6,113.6z"/>
	<path class="st2" d="M91.4,114.5c7.5-3.2,16,6,12.4,13.3c-2.4,6.1-11.3,8.3-15.9,3.4C82.1,126.6,84.4,116.4,91.4,114.5z"/>
	<path class="st2" d="M134.4,138.3c6.1-3.1,14.3,1.9,14.2,8.7c0.7,7.5-9.2,13.5-15.3,8.7C126.7,152.1,127.4,141.1,134.4,138.3z"/>
	<path class="st2" d="M106.3,139.1c5.9-2.5,13.4,2.4,13.3,8.9c0.7,7.4-8.6,13.6-14.9,9.1C97.5,153.5,98.5,141.4,106.3,139.1z"/>
</g>
</svg>
