<?xml version="1.0" encoding="utf-8"?>
<!-- Generator: Adobe Illustrator 26.0.3, SVG Export Plug-In . SVG Version: 6.00 Build 0)  -->
<svg version="1.1" id="Layer_1" xmlns="http://www.w3.org/2000/svg" xmlns:xlink="http://www.w3.org/1999/xlink" x="0px" y="0px"
	 viewBox="0 0 250 250" style="enable-background:new 0 0 250 250;" xml:space="preserve">
<style type="text/css">
	.st0{fill:#D6D5D5;}
	.st1{fill:#ABA8A5;}
	.st2{fill:#8C8B8A;}
	.st3{fill:#D7D7D7;}
	.st4{fill:#6B635B;}
	.st5{fill:#B2B0AF;}
	.st6{fill:#83817E;}
	.st7{fill:#564D45;}
	.st8{fill:#423933;}
	.st9{fill:#62564D;}
	.st10{fill:#7C7975;}
	.st11{fill:#3E3631;}
	.st12{fill:#B18B62;}
	.st13{fill:#A6825C;}
	.st14{fill:#F8B66B;}
	.st15{fill:#282320;}
	.st16{fill:#DCA361;}
	.st17{fill:#F7C68B;}
	.st18{fill:#7C7976;}
	.st19{fill:#B7AEA4;}
	.st20{fill:#F5E3CC;}
	.st21{fill:#CEC4B9;}
	.st22{fill:#6A5F53;}
	.st23{fill:#FBCD98;}
	.st24{fill:#8F8C89;}
	.st25{fill:#FAF8F6;}
	.st26{fill:#CF9657;}
	.st27{fill:#8E8B88;}
	.st28{fill:#F8E2C8;}
	.st29{fill:#7C6145;}
	.st30{fill:#B18657;}
	.st31{fill:#F9F4EE;}
	.st32{fill:#DEA565;}
	.st33{fill:#997043;}
	.st34{fill:#7C7974;}
	.st35{fill:#D8A264;}
	.st36{fill:#FBBE76;}
	.st37{fill:#5F4F3B;}
	.st38{fill:#39342C;}
	.st39{fill:#978F87;}
	.st40{fill:#614E3B;}
	.st41{fill:#38302B;}
	.st42{fill:#9D7449;}
	.st43{fill:#1E1A19;}
	.st44{fill:#63615F;}
	.st45{fill:#FCC681;}
	.st46{fill:#CD965A;}
	.st47{fill:#26201D;}
	.st48{fill:#3F311D;}
	.st49{fill:#AAA2A3;}
	.st50{fill:#FBCE8F;}
	.st51{fill:#FBD79C;}
	.st52{fill:#FBDFAC;}
	.st53{fill:#FDECD1;}
	.st54{fill:#FEFAF4;}
	.st55{fill:#FCEACF;}
	.st56{fill:#AEACA9;}
	.st57{fill:#C4A273;}
	.st58{fill:#FBE9BA;}
	.st59{fill:#C4A371;}
	.st60{fill:#8C7554;}
	.st61{fill:#4F4333;}
	.st62{fill:#F6CB92;}
	.st63{fill:#9A8977;}
	.st64{fill:#110F0C;}
	.st65{fill:#120F0C;}
	.st66{fill:#EBCAB4;}
	.st67{fill:#8D6B70;}
	.st68{fill:#ECD7C0;}
	.st69{fill:#FBEFDA;}
	.st70{fill:#F9CD8F;}
	.st71{fill:#E6E5E5;}
	.st72{fill:#D39199;}
	.st73{fill:#FAF9F9;}
	.st74{fill:#E0717F;}
	.st75{fill:#A9A8A8;}
	.st76{fill:#5D5348;}
	.st77{fill:#6F2C4A;}
	.st78{fill:#E64660;}
	.st79{fill:#D02951;}
	.st80{fill:#A1264E;}
	.st81{fill:#CFCCCD;}
	.st82{fill:#A8A8A8;}
	.st83{fill:#F1F1F1;}
	.st84{fill:#7C7C7C;}
	.st85{fill:#414141;}
	.st86{fill:#ECA9B7;}
	.st87{fill:#C33E62;}
	.st88{fill:#0F0F0F;}
	.st89{fill:#C05676;}
	.st90{fill:#B4708A;}
	.st91{fill:#7B627F;}
	.st92{fill:#4D244C;}
	.st93{fill:#A190A4;}
	.st94{fill:#A44D6D;}
	.st95{fill:#8E3E61;}
	.st96{fill:#AAAAAA;}
	.st97{fill:#786682;}
	.st98{fill:#71375B;}
	.st99{fill:#1F1A43;}
	.st100{fill:#61234B;}
	.st101{fill:#461E47;}
	.st102{fill:#4A4264;}
	.st103{fill:#9F9F9F;}
	.st104{fill:#AD254D;}
	.st105{fill:#D2D1D1;}
	.st106{fill:#444365;}
	.st107{fill:#8A284F;}
	.st108{fill:#74728C;}
	.st109{fill:#7D5170;}
	.st110{fill:#8C5C79;}
	.st111{fill:#A8A7B7;}
	.st112{fill:#D5D5DC;}
	.st113{fill:#68264D;}
	.st114{fill:#D5CED2;}
	.st115{fill:#7B7A93;}
	.st116{fill:#B096AA;}
	.st117{fill:#44234B;}
	.st118{fill:#A9A8B8;}
	.st119{fill:#7F7F7F;}
</style>
<g id="_x23_d6d5d5ff">
	<path class="st0" d="M88.3,0h1c-1.1,7-5.1,13.1-6.4,20.1c-3.1-1.4-4.8-5.3-9-4.1c-3.5-0.4-3.5,5.2-6.8,5c-1.7-1-2.8-2.7-4.3-4
		c-5.7,2.3-3.1,10.9-8.6,13.1c-6.4,0.8-14.4,3-16.1,10.1C32.5,47.4,38.7,60,29,64.1C22.5,67.2,6,59.8,9,73c2.3,9.7,13.6,6.9,20,11.2
		c1.5,5.9-6.8,8.4-3.7,14.7c3.9,11.4,1,22.8-1.2,34.1c-2.7,2.8-6.2,6.1-6.9,9.9c4.4,6.1,3.7,14.6-1.5,19.9c-5.7,4.6,0.3,10,4,13.6
		c14.2,23.8,37.6,40.5,61.8,53c6.5,0.5,10.2,7.1,17.2,6c6.6,5.8,18.8,5,21.7,14.6h-1.8c-4.6-7.8-14.5-8.6-21.9-12.5
		c-21.9-7.8-42.3-20-59.5-35.7c-10.4-8.6-15.8-21.3-25.4-30.6c-5.5-6.4,6.7-10.4,6.6-16.8c1.8-4.6-2.7-7.6-4.4-11.4
		c1.9-4.4,6-7.5,8.6-11.4c3.8-13,0.1-26.8,2-40c0.4-1.9,4.1-5.2,1.1-6.1c-5.6-3.2-14.1-2.5-17-9.1c-2.5-4.6-3.1-12.3,3.5-13.3
		c6.8,0.4,16.3,2.8,20.6-4.4c0.2-11.1,2.1-25.5,14.4-29.6c8.7,2.1,9.6-7.8,13.2-12.9c2.7-3.9,6.7,2.8,9.6-0.4
		c3.8-3.4,8.7-0.9,12.9,0.2C83,10.2,85.8,5.1,88.3,0z"/>
</g>
<g id="_x23_aba8a5ff">
	<path class="st1" d="M89.3,0H92c-1.1,1.5-1.8,3.2-2.2,5c-1.4,4.2-4.2,8.2-3.9,12.9c-1.7,4.4-4.9,4.2-7.8,1c-6-4.5-6.6,4.5-11,5.2
		c-1.8-1.6-3-4.7-6-4.1c-2.7,4.5-2.1,10.6-6.5,14.1c-4.5,0.8-9.2,0.4-13.5,2.1c-1.5,7.7-5.7,14.7-5.3,22.7l-0.1,0.9
		c-3.8,7.6-13.7,7.8-21.1,6.5c-5.7-1.6-6.8,7.8-2.1,10c3.9,6.9,18.8-0.1,18,9.3C23,100.6,34.3,118.4,24,133
		c2.1-11.3,5-22.7,1.2-34.1c-3-6.2,5.3-8.8,3.7-14.7C22.5,79.9,11.3,82.7,9,73C6,59.8,22.5,67.2,29,64.1c9.7-4.1,3.4-16.7,9.1-23.8
		c1.7-7.2,9.7-9.3,16.1-10.1c5.5-2.1,2.9-10.7,8.6-13.1c1.5,1.2,2.6,3,4.3,4c3.3,0.2,3.3-5.5,6.8-5c4.2-1.2,5.9,2.8,9,4.1
		C84.2,13.1,88.2,7,89.3,0z"/>
</g>
<g id="_x23_8c8b8aff">
	<path class="st2" d="M92,0h2.8c0.6,5,2.4,9.6,6.1,13.1c2.2,3,9.4,5,9.9-0.2c0.6-4.7,6.1-2.9,9.4-2.3l-1,0.1c-2,0.4-7.2-0.3-6,3.1
		c0.8,2,3.3,5.7-0.4,6.2c-8.4-1.2-16.6-6.5-19-15c-0.5-3.1-2.5-1-4.1,0C90.2,3.2,90.9,1.5,92,0z"/>
</g>
<g id="_x23_d7d7d7ff">
	<path class="st3" d="M94.9,0h6.4c-6.4,3.5-0.1,13.1,5.5,12.9c0.4-3.9,2.4-10.4,7.4-7.1c14.5,6.7,31.9-0.1,46.9,5.8
		c3.8-1.8,8.7-4.4,12.6-1.3c7.5,3.7,15.7,7.3,19.8,15.2c2.4,5.6,8.5,4.1,13.2,3.8c7.4,2.3,10.9,9.8,16.2,14.9
		c0.3,6.5-1.4,12.9-1.5,19.4c1.8,4,6.3,5.7,8.9,9.1c4.7,5.2-2.3,13.8,3.9,18.1c2.8,8.4,0.5,17.1-2.2,25c3.3,3.9,9.8,11.8,3.1,15.1
		c-5.5,2.1-1,8.5-2.4,12.6c2.3,6.7,3.5,14,8.2,19.5c3.6,4.2-2.4,11.2,2.2,14.8c3,2.3,3.4,6.7,6.9,8.6v4c-6.3-6.8-13.6-15.5-9.3-25
		c-7.9-8.4-10.6-21-9.6-32.3c5.4-3.6,5.8-9.4,1.6-13.9c-7.1-8.5,5.8-22.5-3.6-29.6c-3.2-4,4.3-7.1,1.9-11.6c-2-4.3-5.7-8.2-10.2-10
		c-0.9-7.3-1.1-14.9,0.9-21.8c-4.9-4.8-7.3-12.2-14.5-14.6c-3.9-2.1-10.4,4.1-13-1c-4.3-11-15.1-17.5-26.1-20.3
		c-2.4,1-4.4,3.5-7.1,3.5c-16.3-4.4-33.5-1.5-49.9-5.8c-1,5.5-5.1,7.2-10.2,5C97.3,9.6,95.5,5,94.9,0z"/>
</g>
<g id="_x23_6b635bff">
	<path class="st4" d="M89.8,5c1.6-1.1,3.6-3.1,4.1,0c2.4,8.5,10.6,13.8,19,15c3.7-0.5,1.2-4.2,0.4-6.2c-1.2-3.4,4-2.7,6-3.1l-0.4,1
		c-4.3-0.6-2.5,3.7-1.7,6.2c-1.7,5.4-8.8,3.4-12.4,6.8c-2.8,2.8-6.9,2.5-10.6,2.2c-2.2-3.3-5.2-16.3-8-6.8c-0.1-0.6-0.2-1.7-0.2-2.3
		C85.7,13.3,88.4,9.3,89.8,5z"/>
</g>
<g id="_x23_b2b0afff">
	<path class="st5" d="M111.2,8c16.4,4.3,33.6,1.4,49.9,5.8c2.7,0,4.7-2.5,7.1-3.5c11,2.8,21.7,9.3,26.1,20.3c2.6,5.1,9.1-1,13,1
		c7.2,2.3,9.6,9.7,14.5,14.6c-2,6.9-1.8,14.5-0.9,21.8c-5.6-3.6-0.8-12.5-1.5-17.8c0.7-2,1.1-4.5-1.4-5.5c-4.8-2.2-3.4-10.2-10-9.8
		c-3.9-1.2-8-0.3-11.9-0.1c-7.5-9.6-14.3-21.5-28-22.6c-5.2,3.9-12,2.6-18,1.7c-9.9-1.4-20.1-0.1-29.7-3.4c-3.4-0.7-8.8-2.4-9.4,2.3
		c-0.5,5.1-7.7,3.1-9.9,0.2C106.1,15.2,110.2,13.5,111.2,8z"/>
</g>
<g id="_x23_83817eff">
	<path class="st6" d="M119.3,10.7l1-0.1c9.6,3.3,19.8,2,29.7,3.4c6,0.9,12.8,2.1,18-1.7c13.7,1.1,20.6,13,28,22.6
		c-0.2,0.3-0.7,1-0.9,1.4c-4.8-1.7-6.2-6.5-7.5-10.9c-4.4-4.4-9.2-9.8-15.9-10c-17.3,2.7-36,1.4-52.8-3.6L119.3,10.7z"/>
</g>
<g id="_x23_564d45ff">
	<path class="st7" d="M117.2,17.9c-0.8-2.5-2.6-6.8,1.7-6.2c16.8,4.9,35.5,6.3,52.8,3.6c6.7,0.3,11.5,5.6,15.9,10
		c1.3,4.4,2.8,9.3,7.5,10.9c-0.4,3.9-5.6,5.1-5.3,9.5c-3,6.2-7.5,11.5-11,17.5l-1-0.3c2.8-6.7,7.7-12.2,10.6-18.8
		c8-9.4-10.2-14.6-13.6-5.1c-7.9-4-13-14.1-23.1-14.9c-7.1-8-19.1-6.7-28.7-9.3c-2.6-1.1-7.1,0.7-4,4.9c11.6,2.3,26.4,0.3,35.1,10.1
		c6.7,4.3,11.8,10.7,14.8,18.1c-8.6,5.2-14.7-6.3-23.4-4.3c-12.2,4.5-23.1-5.1-31.1-13.2c-1.9-2.8-7.8,0.6-4.2,4.2
		c3.7,6.8,10,11.3,15.4,16.7c4.8,2.4,10.5,1.2,15.7,2.4c-10.2,6.6-22.9-0.9-32.8,4.8c-4.1,0.4-8.3,0.1-12.4,0.6
		c-2.8,1.3-4.8,5.9-8.4,3.9c2.1-1.8,3.7-4,5.6-5.9c5.7-1.1,16.9,4.2,17.4-5c-9-6-18.2-14.1-21-25c-1.2-6.5-13.1-0.5-9.8,4.9
		c-1.6,6.2,2.7,11.3,3.1,17.1c-10.3-5.6-8.1-21.4-21.1-23.2c0.8,4.5,2.8,9.2,0.9,13.7c-4.8,6.8,3.4,3.1,4.7,5.8
		c-0.4,4.4,5.3,11.3,0.2,14.4c-4.6,0.5-7.6-7.5-12.2-4.6c-0.4-6.9,5.2-2.1,7.5,1.1c6.9-3.8-2.5-9.5-3.7-14.5c-0.7-1.6-2.1-2.7-3.3-4
		c3.8-4.5,5.2-10,5.2-15.8c3.9-0.9,4.2,5.9,8.5,3.9c1.6-3.2,5.3-8.5,9-4.6c2.1,3.1,5.7,3.4,7.5-0.1c1.2-0.3,3.1-1.9,3.3,0.2
		c2.7,7.7,7.8,18,16.8,17c-0.1-4.3-0.2-11.6,5.7-12.3c6.6,3.3,11.1,11.3,19.1,11.8c9.1-1,18.4-0.6,27.2,2.3
		c-1.9-6.4-8.8-9.7-13.8-13.4c-8.1-2.5-16.8-1.7-25-4.1C117.9,21.5,117.9,19.5,117.2,17.9z"/>
</g>
<g id="_x23_423933ff">
	<path class="st8" d="M119.1,19.8c-3.1-4.3,1.4-6,4-4.9c9.6,2.6,21.6,1.2,28.7,9.3c10.1,0.8,15.2,10.9,23.1,14.9
		c3.3-9.5,21.6-4.3,13.6,5.1c-1-2.8-2.4-6.6-6.2-5c-4.6,3.7-2.4,11.3-7.3,14.9c-2.7,2-6.1-0.2-9.1,0c-0.6,2.5,1.3,3.9,3.3,4.9
		c-4.4,0.9-7.1-2.8-10.6-4.6c-5.8-0.4-11.5-0.3-17.3-0.6c-5.1-1.2-10.9,0-15.7-2.4c-5.4-5.3-11.7-9.9-15.4-16.7
		c-3.5-3.7,2.3-7.1,4.2-4.2c8,8.1,18.8,17.7,31.1,13.2c8.7-2,14.8,9.5,23.4,4.3c-3-7.3-8.1-13.7-14.8-18.1
		C145.4,20.1,130.6,22.1,119.1,19.8z"/>
</g>
<g id="_x23_62564dff">
	<path class="st9" d="M86.1,20.2c2.8-9.6,5.8,3.4,8,6.8c3.7,0.2,7.8,0.5,10.6-2.2c3.6-3.5,10.8-1.5,12.4-6.8
		c0.7,1.6,0.8,3.7,2.2,4.8c8.1,2.4,16.9,1.5,25,4.1c5.1,3.6,11.9,6.9,13.8,13.4c-8.7-2.9-18.1-3.2-27.2-2.3
		c-8-0.5-12.4-8.5-19.1-11.8c-5.8,0.8-5.8,8-5.7,12.3c-9,1-14.1-9.3-16.8-17c-0.2-2.1-2.1-0.5-3.3-0.2L86.1,20.2z"/>
</g>
<g id="_x23_7c7975ff">
	<path class="st10" d="M67.1,24c4.3-0.7,4.9-9.7,11-5.2c2.9,3.2,6.1,3.4,7.8-1c0.1,0.6,0.2,1.7,0.2,2.3l0.1,0.9
		c-1.8,3.5-5.4,3.2-7.5,0.1c-3.7-3.9-7.4,1.4-9,4.6c-4.3,2-4.5-4.8-8.5-3.9c-0.1,5.8-1.5,11.3-5.2,15.8c-1.1-0.9-0.9-2.5-1.3-3.7
		c4.3-3.5,3.8-9.6,6.5-14.1C64.1,19.3,65.3,22.5,67.1,24z"/>
</g>
<g id="_x23_3e3631ff">
	<path class="st11" d="M79.9,32c-3.2-5.4,8.6-11.3,9.8-4.9c2.8,10.9,12.1,19,21,25c-0.5,9.3-11.7,3.9-17.4,5
		c-1.9,1.9-3.5,4.2-5.6,5.9c-7.6-0.2-14.1,5.9-21.9,3c-4.8-2.2-10.4-4.8-10.4-10.9c4.6-2.9,7.6,5.1,12.2,4.6
		c5.1-3.1-0.6-10-0.2-14.4c-1.3-2.6-9.5,1.1-4.7-5.8c1.9-4.5,0-9.2-0.9-13.7c13,1.8,10.8,17.7,21.1,23.2
		C82.6,43.3,78.3,38.2,79.9,32z"/>
</g>
<g id="_x23_b18b62ff">
	<path class="st12" d="M41.3,36.2c4.2-1.8,9-1.3,13.5-2.1c0.4,1.2,0.2,2.8,1.3,3.7c1.2,1.2,2.6,2.3,3.3,4c-0.1,0.9-0.2,2.6-0.2,3.4
		c-0.5-0.3-1.5-0.9-2-1.2c-2.2-3-5.3-6.3-9.6-4.7c-3,3.2-4.8,7.3-5.6,11.6c-4.1-3-1.4,4.4-2,6.9c-1.3,0.3-2.6,0.7-4,1.1
		C35.5,50.9,39.8,43.9,41.3,36.2z"/>
</g>
<g id="_x23_a6825cff">
	<path class="st13" d="M196.1,34.9c4-0.2,8-1.1,11.9,0.1c6.6-0.3,5.3,7.6,10,9.8c-5.6-1-5.4,3.6-2.2,6.6c1.4,5.7-0.6,11.8,1.2,17.4
		c-3.9,1.7-8,2.2-12.2,2.1c0.8-0.6,1.7-1.1,2.6-1.7c3.3-0.6,9.6-0.2,6.7-6.3c-1.1-7.6-2.5-15.5-5.3-22.7c-5.4-3.1-13.8-1.2-17,4.4
		c-0.2,0.3-0.6,1-0.8,1.3l-1-0.2c-0.3-4.4,4.9-5.6,5.3-9.5C195.4,35.9,195.8,35.2,196.1,34.9z"/>
</g>
<g id="_x23_f8b66bff">
	<path class="st14" d="M47.5,39.3c4.3-1.5,7.4,1.7,9.6,4.7c-2.1,0.6-4.2,1.1-6.2,1.8c-5.3,0.7-7.5,6.3-6.8,11.1
		c0.8,9.8-2.8,21.8,3.6,30.3c5.5,5.4,9.7-5.3,13.5-8.1c2.1-3.4,10.6-2.9,8-8.2c5.6,0.5,10.9,0,15.2-3.7c5.6,0.9,10.7,0.3,14.8-4.1
		c7.7,3.7,14.3-1.8,21.8-2.3c11.7,4.8,22.4-2.8,34-2c8.1,1.9,15.3,10.1,23.7,9.4c1.7,1.5,3.7,2.5,6,2.9c0.1,0.4,0.2,1.3,0.3,1.7
		c0.4,2.8,1.7,5.3,3.2,7.7c1.2,3.4,2.8,6.9,2,10.7c-0.6,9,13.2,12.5,10,21.5c3.4,4.1,8.5,6.1,12.6,9.4c1.3,8.9-1.2,17.7-1.7,26.4
		c3.1,5.7,10.2,3.1,11.1-2.8c2.7,4.7,4.5,10.2,6.6,15.2c-6.3-10.8-20-5.8-29.8-9.3c-0.1-6.5,2.1-12.9,1.4-19.4
		c-0.7-4.1-2.5-8.7,0.3-12.4c-3.4-2.3-4.1-5.8-4.1-9.8c-5.8-7.9-10.3-16.5-11.8-26.2c-1,1-2,2-3,3c-8.8-6.7-16.3-15.8-27.6-18.2
		c2.1-3.8,1-5.9-3.5-5.6c-11.1,1.2-22.2,2.2-33.4,1.4c-6.6,3.4-14.8,0.2-20.9,4.9c-2.7,1.8-6.1,0.9-9,2c-6.7,9.9-18.9,15-23.9,26.2
		c-10,16.9-14.7,38.4-7.5,57.1c-5.7-1.2-11.6-2.9-17.4-1.3c-4.8,0.9-9.4,2.9-12.8,6.4c-0.6-5.4,3.3-8.5,8.8-7.4
		c7.8-6.1,3.9-18.1,6-26.7c-2.8-10.8,7.2-19.2,4.9-29.6c-6.4-14.2-4.3-30.3-3.7-45.4C42.7,46.7,44.5,42.5,47.5,39.3z"/>
</g>
<g id="_x23_282320ff">
	<path class="st15" d="M182.3,39.2c3.7-1.6,5.2,2.2,6.2,5c-2.9,6.6-7.8,12.2-10.6,18.8c-3.1-0.8-5.7-2.9-8.6-4.1
		c-1.9-1.1-3.9-2.4-3.3-4.9c3-0.2,6.4,2.1,9.1,0C179.8,50.5,177.7,42.8,182.3,39.2z"/>
</g>
<g id="_x23_dca361ff">
	<path class="st16" d="M191.7,44.7c3.2-5.6,11.5-7.5,17-4.4c2.8,7.2,4.3,15,5.3,22.7c3,6.1-3.4,5.7-6.7,6.3l-0.4-0.7
		c7.4-4,1.1-15.5,0.7-22.2c-1.1-6.8-11.2-6-15-1.6L191.7,44.7z"/>
</g>
<g id="_x23_f7c68bff">
	<path class="st17" d="M192.7,44.7c3.8-4.4,13.9-5.2,15,1.6c0.4,6.7,6.8,18.2-0.7,22.2c-0.2-0.3-0.6-0.9-0.8-1.2
		c3.1-8.4,0.3-26.2-12.3-22.5L192.7,44.7z"/>
</g>
<g id="_x23_7c7976ff">
	<path class="st18" d="M59.3,41.8c1.2,5,10.7,10.7,3.7,14.5c-2.3-3.2-7.9-8-7.5-1.1c0,6.1,5.6,8.7,10.4,10.9c1.4,1,2.8,2,4.2,3
		c-0.6,0-1.8,0.1-2.4,0.2c-8.2-1.9-16.2-9.7-13.4-18.8c2-1.4,5.3-2.1,4.7-5.3C59.1,44.3,59.2,42.6,59.3,41.8z"/>
</g>
<g id="_x23_b7aea4ff">
	<path class="st19" d="M50.9,45.9c2-0.7,4.1-1.2,6.2-1.8c0.5,0.3,1.5,0.9,2,1.2c0.6,3.1-2.7,3.8-4.7,5.3
		c-2.9,9.1,5.2,16.9,13.4,18.8c0.3,0.2,1,0.6,1.3,0.8l0.1,0.9c-0.7,0-2.2,0-2.9,0c-1.4-0.4-2.7-0.9-4.1-1.3C58.7,66.6,54.1,64,53,59
		c-1.1-2.8-2.2-5.6-3.3-8.3C50,49,50.4,47.5,50.9,45.9z"/>
</g>
<g id="_x23_f5e3ccff">
	<path class="st20" d="M193.8,44.7c12.6-3.7,15.4,14.2,12.3,22.5c-4.5,0.3-9,0.5-13.4,0.4c3.3-1.5,7.5-0.7,10.5-2.5
		c5.5-7.1-1.8-24.3-11.3-16.2C192.6,47.5,193.2,46.2,193.8,44.7z"/>
</g>
<g id="_x23_cec4b9ff">
	<path class="st21" d="M190.9,46c0.2-0.3,0.6-1,0.8-1.3l1,0l1.2,0c-0.6,1.4-1.3,2.8-1.9,4.2c-2.8,6.8-9.8,11.3-10.9,18.9
		c3.2,2.7,8,0,11.7-0.1c4.5,0.1,9-0.1,13.4-0.4c0.2,0.3,0.6,0.9,0.8,1.2l0.4,0.7c-7.6-0.6-15.4-0.6-22.6,2c-2.2-0.4-4.3-1.4-6-2.9
		c0.1-0.5,0.2-1.6,0.3-2.1C182.5,59.2,188.4,53.5,190.9,46z"/>
</g>
<g id="_x23_6a5f53ff">
	<path class="st22" d="M215.8,51.4c-3.2-3-3.3-7.6,2.2-6.6c2.4,1,2.1,3.4,1.4,5.5C218.2,50.6,217,51,215.8,51.4z"/>
</g>
<g id="_x23_fbcd98ff">
	<path class="st23" d="M44.1,57c-0.7-4.9,1.5-10.4,6.8-11.1c-0.5,1.6-0.8,3.2-1.2,4.8c-2.4,1.7-6,3.2-3.7,7.3
		c0.1,8.4-1,17.5,2.8,25.2c1.5,3,5.6,2,6.7-0.8c2.6-4.8,9.8-5.9,10.8-11.4c0.7,0,2.2,0,2.9,0c2.6,5.3-5.9,4.8-8,8.2
		c-3.8,2.8-8.1,13.5-13.5,8.1C41.2,78.8,44.9,66.8,44.1,57z"/>
</g>
<g id="_x23_8f8c89ff">
	<path class="st24" d="M178.9,63.3c3.4-6,8-11.2,11-17.5l1,0.2c-2.5,7.5-8.4,13.2-11.9,20.2l-0.8,0.1l-0.5-0.8
		C178.1,65,178.6,63.8,178.9,63.3z"/>
</g>
<g id="_x23_faf8f6ff">
	<path class="st25" d="M191.9,49c9.6-8,16.8,9.1,11.3,16.2c-3,1.8-7.2,1-10.5,2.5c-3.7,0.1-8.5,2.8-11.7,0.1
		C182.1,60.3,189.2,55.8,191.9,49z"/>
</g>
<g id="_x23_cf9657ff">
	<path class="st26" d="M39.9,57.8c0.6-2.5-2.1-9.9,2-6.9c-0.5,15-2.7,31.2,3.7,45.4c2.2,10.4-7.7,18.9-4.9,29.6
		c-2.1,8.6,1.8,20.6-6,26.7c-5.5-1.1-9.4,2-8.8,7.4c-0.4,1.1-0.8,2.2-1.2,3.3c0-5.8-1.8-13.2,2.3-17.7c2.1,2,5.8,6.9,8.3,2.6
		c2.2-13.3,3-27.3,6.6-40.5c2.8-4.2,2.5-9.4,0.2-13.8C39.7,82.1,40.1,69.9,39.9,57.8z"/>
</g>
<g id="_x23_8e8b88ff">
	<path class="st27" d="M215.8,51.4c1.2-0.4,2.4-0.8,3.6-1.1c0.7,5.3-4.1,14.2,1.5,17.8c4.5,1.8,8.2,5.6,10.2,10
		c2.4,4.6-5.1,7.7-1.9,11.6c6.6,9.5-3.2,19.1,0.8,28.5c-1.3-2.9-5.5-5.9-2.9-9.1c3.9-5.1,4.9-13.4,0.2-18.3
		c-4.4-4.1,6.4-12.2-0.1-14.8c-1.6-1.1-2.8-2.6-4.2-3.9c-1.6-1.6-3.8-2.4-5.9-3.2C215.2,63.2,217.2,57.1,215.8,51.4z"/>
</g>
<g id="_x23_f8e2c8ff">
	<path class="st28" d="M46,58c-2.3-4.1,1.3-5.7,3.7-7.3c1.1,2.8,2.2,5.5,3.3,8.3c-1.5-1.2-3.4-3.1-4.9-0.8C48,66,47.1,74.9,51.2,82
		c4.1-1.7,14.9-6.9,11-12.3c1.3,0.4,2.7,0.9,4.1,1.3c-1.1,5.5-8.2,6.6-10.8,11.4c-1.1,2.8-5.2,3.8-6.7,0.8
		C44.9,75.5,46.1,66.4,46,58z"/>
</g>
<g id="_x23_7c6145ff">
	<path class="st29" d="M108.6,58.6c9.9-5.7,22.6,1.8,32.8-4.8c5.8,0.3,11.5,0.2,17.3,0.6c3.5,1.8,6.2,5.5,10.6,4.6
		c2.9,1.2,5.5,3.3,8.6,4.1l1,0.3c-0.3,0.6-0.8,1.7-1.1,2.3c-11.8-5.6-23.8-12.6-37.4-9c-9.2,4.7-20,0.9-29.7,3.2
		c-6,2.8-14-2.9-17.7,4.3c-8.4-1.1-14.9,4.8-22.9,5.1c-1.4-1-2.8-2-4.2-3c7.8,2.9,14.3-3.2,21.9-3c3.5,1.9,5.6-2.6,8.4-3.9
		C100.3,58.7,104.4,59,108.6,58.6z"/>
</g>
<g id="_x23_b18657ff">
	<path class="st30" d="M140.4,56.5c13.6-3.6,25.6,3.5,37.4,9l0.5,0.8c-6.9-2-14.7-4.5-20.8-8.9c-12.7-3.4-23.8,6.1-36.5,3.5
		c-5.9-2.8-11.2,3.2-17,1.1c-2.7-0.8-6.1-1.9-7.9,1.1c-3.5,5.8-11.7,0.2-16,5c-3,2.8-7.3,1.6-11,2c-0.3-0.2-1-0.6-1.3-0.8
		c0.6,0,1.8-0.1,2.4-0.2C78.1,68.8,84.6,63,93,64c3.6-7.2,11.7-1.5,17.7-4.3C120.4,57.4,131.1,61.2,140.4,56.5z"/>
</g>
<g id="_x23_f9f4eeff">
	<path class="st31" d="M48.1,58.2c1.4-2.4,3.4-0.4,4.9,0.8c1.1,5,5.7,7.6,9.3,10.7c3.9,5.4-6.9,10.6-11,12.3
		C47.1,74.9,48,66,48.1,58.2z"/>
</g>
<g id="_x23_dea565ff">
	<path class="st32" d="M121,60.9c12.7,2.7,23.8-6.9,36.5-3.5c6.1,4.5,13.9,6.9,20.8,8.9l0.8-0.1c-0.1,0.5-0.2,1.6-0.3,2.1
		c-8.5,0.7-15.6-7.5-23.7-9.4C143.4,58.2,132.7,65.7,121,60.9z"/>
</g>
<g id="_x23_997043ff">
	<path class="st33" d="M36,58.9c1.3-0.4,2.6-0.8,4-1.1C40.1,69.9,39.7,82.1,42,94c2.3,4.3,2.5,9.6-0.2,13.8
		c-3.6,13.2-4.4,27.2-6.6,40.5c-2.5,4.2-6.1-0.6-8.3-2.6c-0.6-0.6-1.2-1.2-1.8-1.8c-0.1-0.7-0.3-2.1-0.4-2.8c5.2-1.3,4.5,6.6,9,6.1
		c1.9-15.1,3.5-30.4,7.8-45.1c-3.8-11.9-1.4-25.5-6.2-37c0.2-1.7,0.4-3.3,0.5-5L36,58.9z"/>
</g>
<g id="_x23_7c7974ff">
	<path class="st34" d="M14.8,66.3c7.4,1.4,17.3,1.1,21.1-6.5c-0.1,1.7-0.3,3.3-0.5,5c-7.3,3.6-15.4,5-23.4,3.3
		c0,0.4-0.1,1.2-0.2,1.7c-0.2,2,0.1,4.1,1.9,5.4c4.4,7.4,18.2-0.5,20.1,7.7c-9,14.9,0.8,32.9-6.8,48.2c-0.5,0.9-1,1.9-1.4,2.8
		c-1.1,2.2-1.9,4.7-0.8,7c0.1,0.7,0.3,2.1,0.4,2.8c-1.1,0.5-2.2,1.1-3.3,1.6c-5.6-3.1,1.5-8.3,2.2-12.4c10.3-14.6-1.1-32.4,6.7-47.3
		c0.8-9.5-14.1-2.4-18-9.3C8.1,74.1,9.1,64.7,14.8,66.3z"/>
</g>
<g id="_x23_d8a264ff">
	<path class="st35" d="M104,62c5.7,2.1,11.1-3.9,17-1.1c-7.6,0.5-14.2,5.9-21.8,2.3c-4,4.4-9.1,5-14.8,4.1
		c-4.3,3.8-9.6,4.3-15.2,3.7l-0.1-0.9c3.7-0.4,8,0.8,11-2c4.3-4.8,12.5,0.8,16-5C97.9,60.1,101.3,61.2,104,62z"/>
</g>
<g id="_x23_fbbe76ff">
	<path class="st36" d="M117.4,64.6c11.2,0.8,22.3-0.2,33.4-1.4c4.5-0.3,5.5,1.8,3.5,5.6c11.3,2.4,18.8,11.5,27.6,18.2
		c1-1,1.9-2.1,3-3c1.4,9.8,6,18.3,11.8,26.2c0,3.9,0.7,7.5,4.1,9.8c-2.8,3.7-0.9,8.3-0.3,12.4c0.7,6.5-1.5,12.9-1.4,19.4
		c9.8,3.6,23.5-1.5,29.8,9.3c0.1,0.5,0.1,1.4,0.2,1.8l-0.8,0.5c-4.6-7.9-20.7-14-25.6-3.8c-1.7,0.8-3.3,1.5-5,2.2
		c-8.4,2.2-16.5,5.9-22.6,12.2c-1.9-4.7,8.6-10.9,1.6-12c6.2-1.8,14.4-6.8,12.5-14.3c-1.5-4.3-5.5-6.9-9.4-8.8c3.2-1,10.1,0.4,7-6
		c-3.3-15.5-10.5-30.8-23.6-40.3c-13.6-8.6-31-15.9-47.1-10.7c-14.5,1-27.2,9.9-36.6,20.5c-7.7,6.4-5.2,19.3-16.4,22.7
		c-3.9,9.8,4.2,16.5,13,12.6c0.5,0.2,1.6,0.6,2.1,0.7C71.5,139.5,62,143.8,64,152c2.2,6.7,9.4,9.8,16,10.1
		c-2.3,6.9-9.5,5.1-14.8,1.8c-8.3-4.6-16.9-8.9-26.4-10.2c5.8-1.6,11.7,0.1,17.4,1.3c-7.2-18.8-2.5-40.2,7.5-57.1
		c5-11.2,17.3-16.3,23.9-26.2c2.9-1.2,6.3-0.2,9-2C102.6,64.9,110.8,68,117.4,64.6z"/>
</g>
<g id="_x23_5f4f3bff">
	<path class="st37" d="M12.1,68.1c8,1.7,16.1,0.3,23.4-3.3c4.8,11.6,2.5,25.1,6.2,37c-4.4,14.8-5.9,30-7.8,45.1
		c-4.5,0.5-3.8-7.4-9-6.1c-1.1-2.4-0.3-4.8,0.8-7c1.1,3.3,3.5,7.7,7.2,8c3.1-8,0.5-17.4,3.6-25.6c3.6-8.5,5.1-20-1.2-27.6
		c-10,12.4,2.7,30.3-8.2,42.3c7.6-15.3-2.2-33.3,6.8-48.2c-1.8-8.2-15.7-0.3-20.1-7.7c5.8,3.2,18.7,5.2,18.2-4
		c-6.7,0.3-13.4-2.2-20.1-1.4C11.9,69.4,12,68.6,12.1,68.1z"/>
</g>
<g id="_x23_39342cff">
	<path class="st38" d="M11.9,69.8c6.7-0.8,13.4,1.7,20.1,1.4c0.5,9.2-12.4,7.1-18.2,4C12,73.9,11.7,71.8,11.9,69.8z"/>
</g>
<g id="_x23_978f87ff">
	<path class="st39" d="M184.7,71.2c7.3-2.6,15-2.6,22.6-2c-0.9,0.6-1.7,1.1-2.6,1.7c-5.3,0.3-10.8-0.5-16,1c-1.3,0.3-2.6,0.6-3.8,1
		C184.9,72.5,184.8,71.7,184.7,71.2z"/>
</g>
<g id="_x23_614e3bff">
	<path class="st40" d="M204.8,70.9c4.2,0.1,8.4-0.4,12.2-2.1c2.1,0.8,4.3,1.6,5.9,3.2c-0.7-0.1-2.2-0.2-2.9-0.3
		c-5.7-0.4-14.2-0.4-15.9,6.5c-3.3,5-9.1-0.7-9.4-5.1c-7,0.2-2.2,8.7,1.1,11.1c4.9,3.1-0.8,7.9,0.6,12c0.7,2,2.8,2.9,4.4,4.1
		c2.6,2,5.9,3.3,7.8,6.1c-3.3,7.3,5.9,7.8,8.1,13.1c1,7.6-0.6,15.2-0.7,22.8c3.7-0.3,3.4-5.5,5.3-8c2.9-1.2,4.7,4.4,7.2,1.8
		c0.7,2.2-0.2,4.3-2.3,5.3c-0.9-3.4-6.7-7.8-6.2-0.3c1.4,3.8-2.9,6.8-5,3.7c-0.7-7.6,0.9-15.1,0.8-22.6c-0.4-6.4-12.6-5.6-10.3-12.5
		c2.1-7.3-10.3-7.6-10.7-14.6c-1.5-3,2.6-6.3,0.1-8.9c-3.4-3.8-7.6-8.8-6.2-14.2C194,70.4,199.5,71.2,204.8,70.9z"/>
</g>
<g id="_x23_38302bff">
	<path class="st41" d="M204.1,78.2c1.8-6.9,10.3-6.9,15.9-6.5c-5.6-1.1-12.9,9.5-6.8,11.9c4.5-0.7,8.8-2.5,12.8-4.7
		c-1.2-3-3.7-5-6-7.2c0.7,0.1,2.2,0.2,2.9,0.3c1.4,1.3,2.6,2.8,4.2,3.9c4,6.3-5.8,8.4-2.5,14.4c3,3.9,6.4,9.6,3.1,14.3
		c-2.3-0.2-9.3-1-8.7,3.3c2.5,5.2,9.4,7.6,10.4,13.7c1.5,4.9-1.8,9.4-0.8,14.3c-2.5,2.6-4.4-3-7.2-1.8c-1.9,2.5-1.6,7.7-5.3,8
		c0.1-7.6,1.7-15.2,0.7-22.8c-2.2-5.2-11.4-5.8-8.1-13.1c-1.9-2.8-5.2-4.1-7.8-6.1c9.4,4.5,11.7-8.4,7-14.2
		c-5.4-0.5-10.1,5.2-11.4,10.2c-1.4-4.1,4.2-8.9-0.6-12c-3.3-2.4-8.2-10.9-1.1-11.1C194.9,77.5,200.8,83.2,204.1,78.2z"/>
</g>
<g id="_x23_9d7449ff">
	<path class="st42" d="M185,72.9c1.2-0.4,2.5-0.8,3.8-1c-1.5,5.3,2.8,10.4,6.2,14.2c2.5,2.7-1.6,5.9-0.1,8.9
		c0.4,7.1,12.8,7.4,10.7,14.6c-2.2,6.9,10,6,10.3,12.5c0.1,7.5-1.6,15.1-0.8,22.6c2.1,3.1,6.4,0.1,5-3.7c-0.5-7.6,5.3-3.2,6.2,0.3
		c0.6,0.9,1.6,1.4,2.5,2c0.2,1.8,0.3,3.7,0.5,5.5c-5.5,4.3-3.2-12.2-7.9-7.5c-0.9,3.1-2.5,12-6.7,7c-1.8-8.6,0.1-18.1-0.9-27.1
		c-3.9-3.9-13.1-5.9-10.1-13.2c-2.8-5.8-13.4-9-10.1-17.5c1.6-4.4-3-6.9-5.4-9.8C186.8,78.3,185.4,75.7,185,72.9z"/>
</g>
<g id="_x23_1e1a19ff">
	<path class="st43" d="M213.2,83.6c-6.1-2.4,1.2-13,6.8-11.9c2.3,2.1,4.8,4.2,6,7.2C222,81.1,217.7,82.9,213.2,83.6z"/>
</g>
<g id="_x23_63615fff">
	<path class="st44" d="M227.2,75.9c6.5,2.7-4.3,10.7,0.1,14.8c4.7,4.9,3.7,13.2-0.2,18.3c-2.7,3.2,1.6,6.3,2.9,9.1
		c5.8,7.8-0.9,16.4-1.1,25.1c-0.9-0.6-1.9-1.1-2.5-2c2.1-1,2.9-3.2,2.3-5.3c-1-4.9,2.3-9.4,0.8-14.3c-1-6.1-7.9-8.6-10.4-13.7
		c-0.6-4.3,6.4-3.5,8.7-3.3c3.3-4.8,0-10.4-3.1-14.3C221.3,84.3,231.2,82.2,227.2,75.9z"/>
</g>
<g id="_x23_fcc681ff">
	<path class="st45" d="M116.1,82c16.1-5.2,33.6,2.1,47.1,10.7c13.1,9.6,20.3,24.8,23.6,40.3c3.1,6.3-3.8,4.9-7,6
		c-3.4-0.1-6.7-0.2-10-0.2c3-1.2,7-1,9.4-3.6c-2.2-2.1-8.2-1.9-7.1-6c2.9-2.9,9.1-4.1,6.5-9.8c-2.7-9.8-16.6-5.1-22.4-11.6
		c-1.9-5.2-7.9-5.7-12.3-7.8c-11.5-3.7-25.3-5.9-36.2,0.6c-7.6,2.1-15.5,7.3-18.1,15.1c-5.8,1.6-12,2.2-17.1,5.8
		c-3.6,2.2-9.5,4.5-7.3,10.1c1.2,4.6,7.1,4.6,10.8,6.3c-8.9,3.9-16.9-2.8-13-12.6c11.2-3.4,8.7-16.3,16.4-22.7
		C88.9,91.9,101.6,83.1,116.1,82z"/>
</g>
<g id="_x23_cd965aff">
	<path class="st46" d="M188.2,80.7c2.4,2.9,7,5.4,5.4,9.8c-3.3,8.5,7.3,11.7,10.1,17.5c-3,7.2,6.2,9.3,10.1,13.2
		c0.9,8.9-0.9,18.5,0.9,27.1c4.2,5,5.8-3.8,6.7-7c4.7-4.7,2.4,11.8,7.9,7.5c0.6,2,1.2,4,2,5.9c-0.7,3.8-0.7,7.8-1.9,11.5
		c-0.1-0.8-0.2-2.4-0.2-3.2c-0.1-0.5-0.1-1.4-0.2-1.8c-2.1-5-3.9-10.6-6.6-15.2c-0.9,5.9-7.9,8.5-11.1,2.8
		c0.4-8.7,2.9-17.5,1.7-26.4c-4.1-3.3-9.1-5.3-12.6-9.4c3.1-9-10.6-12.5-10-21.5C191,87.5,189.4,84.1,188.2,80.7z"/>
</g>
<g id="_x23_26201dff">
	<path class="st47" d="M196.4,96.2c1.3-4.9,6-10.6,11.4-10.2c4.7,5.8,2.5,18.7-7,14.2C199.2,99.1,197.1,98.2,196.4,96.2z"/>
</g>
<g id="_x23_3f311dff">
	<path class="st48" d="M35.2,88.8c6.3,7.6,4.8,19.1,1.2,27.6c-3.1,8.2-0.5,17.6-3.6,25.6c-3.6-0.3-6.1-4.8-7.2-8
		c0.4-1,0.9-1.9,1.4-2.8C37.9,119.1,25.1,101.2,35.2,88.8z"/>
</g>
<g id="_x23_aaa2a3ff">
	<path class="st49" d="M229.1,89.7c9.4,7.1-3.5,21.1,3.6,29.6c4.2,4.5,3.7,10.3-1.6,13.9c-1,11.2,1.7,23.8,9.6,32.3
		c-4.2,9.6,3,18.2,9.3,25v2c-3.1-0.8-4.7-3.1-5.5-6c-2.1-4.9-6.3-8.5-8.6-13.4c1.3-2.3,6.2-5.1,2.8-7.7c-4.1-2.4-4.2-7.5-7.5-10.5
		c-0.7-2-1.3-4-2-5.9c-0.2-1.8-0.3-3.7-0.5-5.5c0.3-8.8,6.9-17.3,1.1-25.1C225.9,108.8,235.7,99.2,229.1,89.7z"/>
</g>
<g id="_x23_fbce8fff">
	<path class="st50" d="M107.8,100.6c10.9-6.5,24.7-4.3,36.2-0.6c4.3,2.1,10.4,2.6,12.3,7.8c5.8,6.5,19.7,1.8,22.4,11.6
		c2.6,5.7-3.6,7-6.5,9.8c-1.1,4.1,4.9,3.9,7.1,6c-2.4,2.6-6.4,2.4-9.4,3.6c-8.3,2.3-23.2,5.1-19.2,17.2c-6.1-8.9,4-14.8,10-19.5
		c4.1-5.7,9.5-10,15.3-13.8c0.5-5.8-5.8-8.6-10.7-9c-8.1-2.1-16,0.3-24,1c-12.6-6.2-27.7-3.6-38.4,5.2c-7.3-0.6-14.9-3.3-22.1-0.1
		c-4.4,2.6-11,3.6-13.5,8.4c1.4,7.1,10,8,15.8,9.9c0.3,0.2,0.9,0.7,1.2,0.9c-2-0.1-4-0.1-6-0.3c-0.5-0.2-1.6-0.6-2.1-0.7
		c-3.7-1.7-9.6-1.6-10.8-6.3c-2.3-5.7,3.6-7.9,7.3-10.1c5.1-3.6,11.3-4.2,17.1-5.8C92.2,108,100.1,102.7,107.8,100.6z"/>
</g>
<g id="_x23_fbd79cff">
	<path class="st51" d="M102.9,119.9c10.7-8.8,25.8-11.3,38.4-5.2c8-0.7,15.9-3.1,24-1c-10.8-0.5-24.3,2.6-29.1,13.5
		c-1,2-2.8-0.9-4-1.3c-9.1-3.9-18.8,2.2-23.7,7.8c-2.7-12.2-17.1-14.8-27.7-13.9C88,116.6,95.5,119.3,102.9,119.9z"/>
</g>
<g id="_x23_fbdfacff">
	<path class="st52" d="M136.1,127.2c4.8-10.8,18.4-14,29.1-13.5c4.9,0.4,11.2,3.2,10.7,9c-5.8,3.8-11.1,8.2-15.3,13.8
		c-6,4.7-16,10.6-10,19.5c4.8,7.9,10.3,17.1,20.9,17.4c0.2,0.4,0.7,1.2,0.9,1.6c-0.7,1-1.4,2-2,3c-0.8-1-0.9-2.9-2.4-3.2
		c-8.5-1.9-15.5-7.6-21.9-13.2c-5.6-4.1,4.7-13.8-4.8-14.4c-6.9-15.2-34.3-6.8-30.7,9.3c-7.4,10.2-19.6,19.4-33,17.6
		c-2.3-0.9-4.5-2.1-6.8-3.2l0-1c7.7,1.2,16.1,5.8,22.7-1.3c2.7-4.9,8.4-7.6,9.7-13.4c1.9-4.6,0.3-13.5-6.3-12.5
		c-3.7-1.2-7.4-2.5-11.2-3.6c1.4-0.1,2.9-0.2,4.3-0.2l0.8,0.3c6,4.7,13-1.7,12.8-8c-2.6-8.1-13.4-11.4-21-9.7
		c-4,2.5-12.8,2.1-12.5,8.2c4,3.2,9.2,4.7,12.9,8.3c-5.8-1.9-14.4-2.8-15.8-9.9c2.5-4.8,9-5.8,13.5-8.4c10.6-0.9,25,1.7,27.7,13.9
		c4.9-5.6,14.6-11.7,23.7-7.8C133.3,126.3,135.1,129.2,136.1,127.2 M157.4,115.5c-8.7,1.5-21,7.8-16.2,18.4
		c12,9.8,21.7-5.2,30.8-10.9C174.6,116,162,114.6,157.4,115.5z"/>
</g>
<g id="_x23_fdecd1ff">
	<path class="st53" d="M157.4,115.5c4.6-0.9,17.3,0.6,14.6,7.5c-9.1,5.7-18.8,20.7-30.8,10.9C136.4,123.3,148.7,116.9,157.4,115.5
		 M156.2,118.3c-6.9,0.8-16.4,6.3-10.9,14.4c9.2,5.5,16.3-5.7,23.5-10C169.3,117.1,159.7,117.8,156.2,118.3z"/>
</g>
<g id="_x23_fefaf4ff">
	<path class="st54" d="M156.2,118.3c3.6-0.5,13.2-1.2,12.7,4.5c-7.2,4.3-14.4,15.5-23.5,10C139.8,124.6,149.3,119,156.2,118.3z"/>
	<path class="st54" d="M75.3,126.4c7.4-3,16.3-3.4,23.3,0.9c4.5,5.6-1.4,12.8-7.8,12l-0.8-0.3c-5.7-2.3-10.5-6.4-15.9-9.3
		C73.9,128.4,73.6,126.7,75.3,126.4z"/>
</g>
<g id="_x23_fceacfff">
	<path class="st55" d="M82.6,121.6c7.6-1.7,18.4,1.6,21,9.7c0.2,6.3-6.8,12.7-12.8,8c6.4,0.8,12.3-6.4,7.8-12
		c-7-4.4-15.9-3.9-23.3-0.9c-1.8,0.3-1.4,2-1.1,3.3c5.4,2.9,10.2,7,15.9,9.3c-1.4,0.1-2.9,0.1-4.3,0.2c-0.4-0.1-1.2-0.2-1.6-0.3
		c-0.3-0.2-0.9-0.7-1.2-0.9c-3.8-3.6-9-5-12.9-8.3C69.8,123.7,78.6,124.1,82.6,121.6z"/>
</g>
<g id="_x23_aeaca9ff">
	<path class="st56" d="M17.2,142.9c0.7-3.8,4.2-7.1,6.9-9.9c-0.7,4.1-7.8,9.3-2.2,12.4c2.7,5.3-0.4,15.1-6.2,17.4
		C20.9,157.5,21.6,148.9,17.2,142.9z"/>
</g>
<g id="_x23_c4a273ff">
	<path class="st57" d="M64,152c-2-8.2,7.5-12.5,14.3-13.4c2,0.2,4,0.2,6,0.3c0.4,0.1,1.2,0.2,1.6,0.3c3.8,1.1,7.5,2.4,11.2,3.6
		c1.2,0.9,2.4,1.8,3.3,2.9c-9.4-3.5-20.3-7.2-29.9-2.4c-4.9,1.5-6,7.5-3,11.3c7.4,7.7,20.6,8.1,29.6,3.4c5.9-1.9,3.3-7.8,3.2-12.3
		c3.1,3.2,2.6,9.9-1,12.6c-5.1,4.9-12.9,3.3-19.3,3.8C73.3,161.8,66.2,158.7,64,152z"/>
</g>
<g id="_x23_fbe9baff">
	<path class="st58" d="M110.7,156.7c-3.5-16.1,23.8-24.6,30.7-9.3c9.5,0.5-0.8,10.2,4.8,14.4c6.4,5.6,13.4,11.3,21.9,13.2
		c-14.9-0.3-24-16.1-38.6-18.5c-19.7-2.4-31.3,24.4-51.8,17.8C91.2,176.1,103.3,166.9,110.7,156.7z"/>
</g>
<g id="_x23_c4a371ff">
	<path class="st59" d="M150.7,156.1c-4-12.1,10.9-14.9,19.2-17.2c3.3,0.1,6.7,0.1,10,0.2c3.9,1.9,7.9,4.5,9.4,8.8
		c1.9,7.5-6.3,12.5-12.5,14.3C167.4,162.6,157.4,163.2,150.7,156.1 M174.2,140.4c-7,3.4-18.3,0.7-21.9,8.9c-1.1,4.3,2.4,8.5,6,10.4
		c9.6,1.8,23,3,28.7-6.8C189.9,144.8,180.6,140.6,174.2,140.4z"/>
</g>
<g id="_x23_8c7554ff">
	<path class="st60" d="M174.2,140.4c6.4,0.2,15.7,4.4,12.7,12.5c-5.6,9.8-19.1,8.6-28.7,6.8c-3.6-1.9-7.1-6.1-6-10.4
		C155.9,141.1,167.2,143.8,174.2,140.4 M173.3,142.3c-3.4,0.1-5.1,5-8.6,3.1c-5.5-2.6-12.6,2-10.6,8.4c7.2,9.1,22.8,7.1,30.6-0.1
		C189.7,146.8,179.2,141.4,173.3,142.3z"/>
	<path class="st60" d="M70.4,143.4c9.6-4.9,20.6-1.1,29.9,2.4c0.1,4.4,2.6,10.4-3.2,12.3c-9,4.7-22.2,4.4-29.6-3.4
		C64.4,150.9,65.5,144.9,70.4,143.4 M80.4,143.3c-2,3-4.7,2.7-7.4,0.8c-8.1,1.9-5.1,13.3,2.7,14.3c7.7,1.2,19.9,2.8,24.4-5.4
		C99.9,143.7,87.3,142.5,80.4,143.3z"/>
</g>
<g id="_x23_4f4333ff">
	<path class="st61" d="M173.3,142.3c5.9-0.9,16.4,4.5,11.4,11.4c-7.8,7.2-23.4,9.1-30.6,0.1c-2.1-6.4,5.1-10.9,10.6-8.4
		C168.2,147.3,169.9,142.4,173.3,142.3 M172.4,145.2c-3.6,6.8-9.7,1.1-15.1,1.9c-5.7,9.4,9.5,12.5,16.1,10.3
		c4.8-2,13.7-2.6,10.6-10.2C180.7,144.8,176.2,144.6,172.4,145.2z"/>
	<path class="st61" d="M80.4,143.3c6.9-0.7,19.5,0.5,19.6,9.7c-4.5,8.3-16.7,6.7-24.4,5.4c-7.8-0.9-10.8-12.3-2.7-14.3
		C75.7,146,78.4,146.3,80.4,143.3 M82.3,145.2c-2.3,2.9-4.8,6.3-8.1,2.6c-4-3.3-5.7,4.8-2.2,6.3c7.8,5.1,18.4,5.3,25.8-0.5
		C100.1,145.1,87.8,145.7,82.3,145.2z"/>
</g>
<g id="_x23_f6cb92ff">
	<path class="st62" d="M97,142.8c6.6-1,8.2,7.8,6.3,12.5c-1.2,5.8-6.9,8.5-9.7,13.4c-6.5,7.2-14.9,2.6-22.7,1.3
		c-9.8-3.4-17.2-11.3-27.4-13.6c-6.9-2.3-12.9,2.3-18,6.2l-0.9,0.6c0.4-1.1,0.8-2.2,1.2-3.3c3.5-3.5,8-5.5,12.8-6.4
		c9.5,1.4,18.1,5.6,26.4,10.2c5.3,3.4,12.6,5.2,14.8-1.8c6.5-0.5,14.2,1.2,19.3-3.8c3.6-2.6,4.1-9.4,1-12.6
		C99.3,144.6,98.2,143.7,97,142.8z"/>
</g>
<g id="_x23_9a8977ff">
	<path class="st63" d="M21.9,145.4c1.1-0.5,2.2-1.1,3.3-1.6c0.6,0.6,1.2,1.2,1.8,1.8c-4.1,4.6-2.3,11.9-2.3,17.7
		c0,4.5,3.3,16.3-5,13.1c-3.7-3.6-9.7-9-4-13.6C21.5,160.5,24.6,150.7,21.9,145.4 M17.3,164.2c-6,4,1,9.4,5.6,9.9
		C22.8,169.8,25.1,161.2,17.3,164.2z"/>
</g>
<g id="_x23_110f0cff">
	<path class="st64" d="M82.3,145.2c5.5,0.5,17.8-0.1,15.5,8.4c-7.4,5.8-18,5.6-25.8,0.5c-3.4-1.5-1.7-9.6,2.2-6.3
		C77.4,151.4,79.9,148.1,82.3,145.2z"/>
</g>
<g id="_x23_120f0cff">
	<path class="st65" d="M172.4,145.2c3.9-0.7,8.3-0.4,11.6,2c3.1,7.6-5.9,8.2-10.6,10.2c-6.6,2.2-21.8-1-16.1-10.3
		C162.7,146.3,168.7,152,172.4,145.2z"/>
</g>
<g id="_x23_ebcab4ff">
	<path class="st66" d="M202.7,159.7c5-10.2,21-4.1,25.6,3.8C220.4,166.9,211.3,159.3,202.7,159.7z"/>
</g>
<g id="_x23_8d6b70ff">
	<path class="st67" d="M231.2,154.7c3.4,3,3.4,8.2,7.5,10.5c3.4,2.6-1.5,5.4-2.8,7.7c2.3,4.8,6.5,8.5,8.6,13.4
		c0.8,2.9,2.4,5.3,5.5,6v3c-4.7-0.3-5.5-5-6.9-8.5c-1.7-5.6-13.7-11.7-6.5-17.3c3.9-2.8-1.3-6.1-4.3-5.6c-1.2,2-2,4.2-3.3,6.2
		c-3.8-0.2-6.8-2.6-10-4.3l1.2-0.2c3,0.4,7.1,4.2,9.2,0.5C230.5,162.5,230.6,158.6,231.2,154.7z"/>
</g>
<g id="_x23_ecd7c0ff">
	<path class="st68" d="M25.5,162.7c5.1-3.9,11.1-8.6,18-6.2c10.2,2.2,17.7,10.2,27.4,13.6l0,1c-2.7-0.5-5.3-1.2-7.8-2.2
		c-9.2-5.1-20.3-13.1-31.1-7.8c-7.2,2.9-5.5,11.4-3.3,17.3C23.8,174.9,26.8,167.8,25.5,162.7z"/>
</g>
<g id="_x23_fbefdaff">
	<path class="st69" d="M77.8,174.3c20.5,6.6,32.1-20.3,51.8-17.8c14.6,2.4,23.6,18.2,38.6,18.5c1.4,0.3,1.6,2.2,2.4,3.2
		c-2.1,3.4-4.2,6.7-6.3,10.1c-2.1-4.2,7.4-8.9,1.8-11.1c-12.3-1.7-20.7-12.3-32.3-15.7c-18.4-5.2-30.5,13.4-47.3,16.1
		c-7.8-0.6-15.3-3-22.2-6.6c-0.2-0.5-0.7-1.6-0.9-2.1c2.5,1,5.1,1.8,7.8,2.2C73.2,172.1,75.4,173.4,77.8,174.3z"/>
</g>
<g id="_x23_f9cd8fff">
	<path class="st70" d="M150.7,156.1c6.7,7.1,16.7,6.6,26.1,6.1c7,1-3.5,7.2-1.6,12c-0.9,0.3-1.8,0.7-2.6,1c-0.2-0.4-0.7-1.2-0.9-1.6
		C161,173.2,155.5,164,150.7,156.1z"/>
</g>
<g id="_x23_e6e5e5ff">
	<path class="st71" d="M32,161.1c10.8-5.3,21.9,2.7,31.1,7.8c0.2,0.5,0.7,1.6,0.9,2.1c-12.5,0-2.7,22.5-14.5,24.2
		c4.6,6.3,11.7,13.7,19.2,18.3l0.6,0.5c-0.8,0-2.5,0.1-3.3,0.2c-14.2-9.6-27-21.8-37.3-35.7C26.6,172.4,24.8,163.9,32,161.1z"/>
</g>
<g id="_x23_d39199ff">
	<path class="st72" d="M197.7,161.9c1.7-0.7,3.3-1.5,5-2.2c8.6-0.4,17.7,7.2,25.6,3.8l0.8-0.5c0,0.8,0.2,2.4,0.2,3.2
		c-2.1,3.7-6.2-0.1-9.2-0.5C212.9,163,204.8,165.3,197.7,161.9z"/>
</g>
<g id="_x23_faf9f9ff">
	<path class="st73" d="M86.3,177.4c16.8-2.6,28.9-21.2,47.3-16.1c11.6,3.5,20,14.1,32.3,15.7c5.7,2.2-3.9,6.8-1.8,11.1
		c-0.7,3.3-2,6.5-3.1,9.7c-6.5,5-14.9-4-22-4c-4.9-1.7,1.3-5.2,2.7-7.4c6.5-18-20.4-22.9-29.4-11.4c-6.4,5.5,1.9,12.2,3.7,17.7
		c-4.4,5.5-21.3,1.9-18.4,12.6c2.1,9.6,13.7-0.4,19.6,4.4c11,5.2,21.5-2.7,32.4-0.6c4.1,2.9,5.7-2.7,9.3-2.2c1.1,4,0.7,8.5,3.5,11.9
		c3.5,9.9-11.5,9-17.1,13.2c-8.1,1.8-14.7,12.4-23.3,7.2c-16.6-10.3-36.7-13.4-52.6-25.4l-0.6-0.5c-0.7-4-4.4-6-5.8-9.5
		c2.2,0.3,4,1.4,6,2.2c-0.3-9.3,1.2-18.6,0.2-27.9C74.5,175.5,80.7,178.5,86.3,177.4z"/>
</g>
<g id="_x23_e0717fff">
	<path class="st74" d="M175.1,174.1c6-6.4,14.2-10.1,22.6-12.2c7.1,3.4,15.2,1.1,22.4,3.9l-1.2,0.2c-1.6-0.1-3.2-0.1-4.8-0.3
		c-4.3-0.5-8.6-0.7-12.9-0.5c-18-2.3-32.4,16.1-35.2,32.1c-0.4,5.3-1.4,10.7-0.4,16c0.4,2.6,1,5.1,1.6,7.7c-0.3,1.1-0.7,2.2-1.1,3.4
		c-0.2-0.6-0.5-1.8-0.7-2.4c-4.3-13.7-3.2-29.8,6-41.4C173,178.5,174.3,176.4,175.1,174.1z"/>
</g>
<g id="_x23_a9a8a8ff">
	<path class="st75" d="M24.7,163.3l0.9-0.6c1.2,5.1-1.8,12.2,3.2,15.7C39,192.2,51.7,204.4,66,214c16.8,12.9,38,16.3,55.8,27.3
		c8.7,7.2,15.3-7.4,24.5-7.1c5.2-5.4,15.1-2,18-10c0.3-0.6,0.9-1.7,1.2-2.3c0.2,0.6,0.5,1.8,0.7,2.4c-2.9,5,5.1,5.4,6,9.6
		c-5.9-6.8-12.4,2.8-19.1,2.5c-6.4,4.3-18.1,4.7-19.4,13.7h-2.3c0.1-6.6-9.9-6.6-9.7,0h-1.3c-2.8-9.6-15.1-8.8-21.7-14.6
		c-7,1.2-10.8-5.5-17.2-6c-24.2-12.5-47.6-29.2-61.8-53C27.9,179.7,24.7,167.8,24.7,163.3z"/>
</g>
<g id="_x23_5d5348ff">
	<path class="st76" d="M17.3,164.2c7.8-3,5.6,5.6,5.6,9.9C18.2,173.6,11.3,168.2,17.3,164.2z"/>
</g>
<g id="_x23_6f2c4aff">
	<path class="st77" d="M232.3,164c3.1-0.6,8.2,2.8,4.3,5.6c-7.2,5.6,4.8,11.7,6.5,17.3c-2.9-1.8-5.7-6.1-9.4-4.4
		c-3.8,0.7-0.9,5.9-0.7,8.5c-2.6-3.7-5.7-6.9-9.2-9.8c-4.8-5.3,1.7-8.1,5.2-11.1C230.2,168.2,231.1,166,232.3,164z"/>
</g>
<g id="_x23_e64660ff">
	<path class="st78" d="M166,197.2c2.8-15.9,17.3-34.4,35.2-32.1C184.7,168.6,171.4,181.4,166,197.2z"/>
</g>
<g id="_x23_d02951ff">
	<path class="st79" d="M201.2,165.1c4.3-0.1,8.6,0.1,12.9,0.5c-4.4,0.2-11.5,2.6-10.4,8.1c-14.5,2.2-25.8,14.4-30.1,28
		c-6.1-0.6-7.7,6.6-8.1,11.4c-1-5.3,0-10.7,0.4-16C171.4,181.4,184.7,168.6,201.2,165.1z"/>
</g>
<g id="_x23_a1264eff">
	<path class="st80" d="M203.8,173.8c-1.1-5.5,6-7.9,10.4-8.1c1.6,0.1,3.2,0.2,4.8,0.3c3.2,1.7,6.2,4.1,10,4.3
		c-3.6,3-10,5.8-5.2,11.1c-0.4-0.1-1.2-0.4-1.6-0.5c-0.5-0.2-1.4-0.7-1.9-0.9c-2-1-4-2-6.1-3C210.9,175.2,207.3,174.5,203.8,173.8z"
		/>
</g>
<g id="_x23_cfcccdff">
	<path class="st81" d="M112.2,175.2c9-11.5,35.9-6.6,29.4,11.4c-1.3,2.2-7.6,5.7-2.7,7.4c7.1-0.1,15.5,8.9,22,4
		c-1.2,7-0.7,14.3,2.2,20.8l-0.9,0.1c-2.8-3.4-2.4-7.9-3.5-11.9c-3.6-0.5-5.2,5-9.3,2.2c-10.9-2.1-21.4,5.8-32.4,0.6
		c-5.8-4.7-17.4,5.2-19.6-4.4c-2.9-10.7,14-7.1,18.4-12.6C114.1,187.3,105.9,180.7,112.2,175.2 M119.9,172.9
		c-5.8,0.3-10.7,7.7-6,12.2c0.9,2.3,2.8,4,4.4,5.8c0.1,6.4-9.1,5.5-12.4,8.2c-3.3,0-9.3,2-6,6.1c0.8,5.3,8.3,0,11.1,1.8
		c9.2,1.6,19,3.8,28.1,0.2c4.5-2.4,12.2,3.6,14.8-1.2c1.6-1.7,1.8-5.4-0.9-6c-5.9-2.2-13.2-1.6-17.9-6.2c0.1-5.8,8.3-10.2,4.8-16.7
		C137.1,170.6,126.2,168.4,119.9,172.9z"/>
</g>
<g id="_x23_a8a8a8ff">
	<path class="st82" d="M119.9,172.9c6.3-4.5,17.2-2.2,20,4.2c-4.4-2.9-9.2-5.7-14.7-5c-0.6,2.6-2.4,9.4-5.4,5c-6.5-4.8-5.7,4.1-6,8
		C109.2,180.6,114.1,173.2,119.9,172.9z"/>
</g>
<g id="_x23_f1f1f1ff">
	<path class="st83" d="M49.5,195.1c11.8-1.7,2-24.2,14.5-24.2c6.9,3.6,14.4,5.9,22.2,6.6c-5.6,1.1-11.7-2-17.1,0.7
		c1,9.3-0.5,18.6-0.2,27.9c-2-0.8-3.9-1.9-6-2.2c1.4,3.4,5.1,5.4,5.8,9.5C61.2,208.8,54.1,201.4,49.5,195.1z"/>
</g>
<g id="_x23_7c7c7cff">
	<path class="st84" d="M125.2,172.1c5.5-0.7,10.3,2.1,14.7,5c3.5,6.6-4.7,10.9-4.8,16.7c4.7,4.6,12.1,4,17.9,6.2
		c2.7,0.7,2.5,4.3,0.9,6c-7.2,0-14.4,0.3-21.6-0.2c-1.8-1.5-2.5-5.1-5.3-4.7c-4.3,0.5-4.6,7.5-10.1,5c-5.7-0.1-11.5,0.6-17.1-0.8
		c-3.2-4.1,2.8-6.1,6-6.1c4.8-0.2,15.7-1.3,12.4-8.2c-1.7-1.8-3.5-3.5-4.4-5.8c0.2-3.8-0.5-12.7,6-8
		C122.9,181.4,124.7,174.6,125.2,172.1 M126.3,174.1c-0.5,4.9-4.4,8-8.4,4c-6.8,1.9,0.2,11.1,3,14.1c-0.4,8.8-12.8,7.7-18.9,9
		c-1.8,8.5,12,2,16.6,3.6c2.8-5.2,10.8-7.2,14.9-2.4c3.1,4.8,9.8,1.9,14.4,2.7c6.3,3.5,4.9-1.3,4.9-3.9c-6.7-1.6-15.2-0.1-19.7-6.4
		c-1.8-6.5,8.7-9.5,5.7-16.5C135.8,174.9,130.8,173.6,126.3,174.1z"/>
</g>
<g id="_x23_414141ff">
	<path class="st85" d="M126.3,174.1c4.5-0.5,9.5,0.8,12.6,4.2c3,6.9-7.5,10-5.7,16.5c4.6,6.2,13.1,4.8,19.7,6.4
		c0,2.7,1.3,7.4-4.9,3.9c-4.6-0.8-11.3,2.2-14.4-2.7c-4.1-4.8-12.1-2.8-14.9,2.4c-4.6-1.6-18.4,4.8-16.6-3.6
		c6.1-1.3,18.5-0.2,18.9-9c-2.8-3-9.8-12.2-3-14.1C121.9,182.1,125.8,179,126.3,174.1 M127.4,176.2c-1.3,5.3-5.7,6.9-10.4,4.8
		c-1.5,5.5,5.8,8,5.8,12.9c-3.5,6.6,11.9,5.8,7.6-0.9c0.9-5.5,9.2-8.1,6.6-14.7C134.4,176,130.8,175.1,127.4,176.2z"/>
</g>
<g id="_x23_eca9b7ff">
	<path class="st86" d="M172.5,175.1c0.9-0.3,1.8-0.6,2.6-1c-0.9,2.3-2.2,4.4-3.7,6.3c-9.2,11.6-10.3,27.6-6,41.4
		c-0.3,0.6-0.9,1.7-1.2,2.3c-0.2-1.8-0.4-3.7-1.1-5.3c-2.9-6.5-3.4-13.8-2.2-20.8c1.1-3.2,2.4-6.4,3.1-9.7c2.1-3.4,4.2-6.7,6.3-10.1
		C171.1,177.1,171.8,176.1,172.5,175.1z"/>
</g>
<g id="_x23_c33e62ff">
	<path class="st87" d="M173.8,201.8c4.2-13.6,15.6-25.9,30.1-28c3.5,0.7,7.1,1.4,10.3,3.1c-18.6-4.4-37.6,11.8-37.2,31
		c-0.3,1.4-0.8,2.9-1.1,4.3C174.8,208.8,174,205.4,173.8,201.8z"/>
</g>
<g id="_x23_0f0f0fff">
	<path class="st88" d="M127.4,176.2c3.4-1,6.9-0.2,9.5,2c2.6,6.6-5.8,9.3-6.6,14.7c4.4,6.7-11.1,7.5-7.6,0.9
		c0.1-4.9-7.2-7.5-5.8-12.9C121.8,183.1,126.1,181.4,127.4,176.2z"/>
</g>
<g id="_x23_c05676ff">
	<path class="st89" d="M176.9,207.9c-0.4-19.2,18.6-35.4,37.2-31c2.1,1,4.1,2,6.1,3c-6.6-1-13.7-1.7-19.3,2.8c2.7,1.1,5.5,2,8.3,2.9
		c-13.1,1.5-21.8,12.4-27.3,23.4C180.7,211.5,177.9,209.5,176.9,207.9z"/>
</g>
<g id="_x23_b4708aff">
	<path class="st90" d="M200.9,182.7c5.6-4.5,12.7-3.8,19.3-2.8c0.5,0.2,1.5,0.7,1.9,0.9c0.9,1.4,1.9,2.8,3,4.1
		c-2.4-0.4-4.7-0.7-7.1-0.9c0.4,4.1,4.5,5.7,6.2,9.1c-0.5-0.3-1.5-0.9-2-1.2c-3.9-2.8-8.1-5.6-12.9-6.3
		C206.4,184.7,203.6,183.8,200.9,182.7z"/>
</g>
<g id="_x23_7b627fff">
	<path class="st91" d="M222.1,180.8c0.4,0.1,1.2,0.4,1.6,0.5c3.4,2.9,6.6,6.1,9.2,9.8c1.5,2.5,2.9,5,3.2,7.9
		c-0.3,8.2,0.9,18.2-6.2,24.1c5.6-11.8,7.5-29.9-4.9-38.3C224,183.5,223.1,182.2,222.1,180.8z"/>
</g>
<g id="_x23_4d244cff">
	<path class="st92" d="M233.6,182.6c3.8-1.8,6.6,2.6,9.4,4.4c1.4,3.5,2.2,8.3,6.9,8.5v3.9c-5.6,1.3-6-6.7-10.8-6.3
		c-1.5,1.6-2,3.8-2.2,5.8l-0.8,0.1c-0.4-2.9-1.8-5.5-3.2-7.9C232.8,188.4,229.8,183.3,233.6,182.6z"/>
</g>
<g id="_x23_a190a4ff">
	<path class="st93" d="M218,183.9c2.4,0.2,4.7,0.6,7.1,0.9c12.4,8.4,10.5,26.4,4.9,38.3c-1.8,2.1-4,3.9-6,5.9
		c-2.4,0.1-7.4,2.3-7-1.9c5.3-6.4,15.7-11.1,14.1-21.1c0.1-5.2-3.9-9.1-6.9-13C222.5,189.7,218.4,188,218,183.9z"/>
</g>
<g id="_x23_a44d6dff">
	<path class="st94" d="M181.9,209c5.5-11,14.1-21.9,27.3-23.4c4.9,0.7,9,3.5,12.9,6.3l-0.1,1l-0.8-0.3
		c-15.9-8.9-33.5,10.5-31.1,26.5c0.3,4.5-3.2,6.8-7.3,5.2c-2.1-2.4-3.9-5.1-5.8-7.6c-0.5-1.5-0.9-2.9-1.3-4.4
		c0.4-1.4,0.8-2.9,1.1-4.3C177.9,209.5,180.7,211.5,181.9,209z"/>
</g>
<g id="_x23_8e3e61ff">
	<path class="st95" d="M190.1,219c-2.4-16,15.3-35.4,31.1-26.5c-13.8,0-22.8,14-23.6,26.6C195.1,219.1,192.6,219,190.1,219z"/>
</g>
<g id="_x23_aaaaaaff">
	<path class="st96" d="M118.3,190.9c3.3,6.9-7.6,8-12.4,8.2C109.2,196.4,118.4,197.3,118.3,190.9z"/>
</g>
<g id="_x23_786682ff">
	<path class="st97" d="M222.1,191.8c0.5,0.3,1.5,0.9,2,1.2c3,3.8,6.9,7.7,6.9,13c1.6,10-8.8,14.7-14.1,21.1c-0.3,4.2,4.7,2,7,1.9
		c-4.4,3.6-10,6.3-15.8,6c-3.4-1.4-10.7-0.7-11.2-5.8c7-1.9,14.9-1.9,21-6.2c1.1-0.8,2.2-1.7,3.2-2.7c5.1-4.7,10.8-10.8,7.1-18.5
		c-0.6-1-1.2-2-1.9-3c-1.3-2.1-2.9-4-4.3-6L222.1,191.8z"/>
</g>
<g id="_x23_71375bff">
	<path class="st98" d="M197.6,219.1c0.8-12.6,9.8-26.6,23.6-26.6l0.8,0.3c1.4,2,3,3.9,4.3,6c-6.6-7.4-18.4-1.5-20.5,7.1
		c-2.6,7.4,3.9,17.5,12.4,14.5c0.8,0,2.2-0.1,3-0.1c-1,1-2.1,1.9-3.2,2.7C210.9,224.5,203,224.8,197.6,219.1z"/>
</g>
<g id="_x23_1f1a43ff">
	<path class="st99" d="M239.2,193c4.8-0.4,5.2,7.6,10.8,6.3v14.3c-5.4,1.1-6.2,6.5-7.4,11.1c-3.8,7.4-10,13.6-17.3,17.7
		c-4.2,2-11.3,1.7-11.8,7.7h-13.2c-0.1-3.7-2.8-6.4-3.5-9.9c5.1-1.4,10.5-1.9,15.4-3.9c17.2-2.4,28.4-20.7,24.7-37.4
		C237.2,196.8,237.7,194.6,239.2,193z"/>
</g>
<g id="_x23_61234bff">
	<path class="st100" d="M205.8,205.9c2.2-8.5,14-14.4,20.5-7.1c0.7,0.9,1.4,1.9,1.9,3c-3.1-0.2-7.6-5-9.4,0.2
		c-2.9,4.5-10.1,8-7.3,14.4c0.9,2.9,3.8,4.1,6.6,4C209.7,223.4,203.2,213.2,205.8,205.9z"/>
</g>
<g id="_x23_461e47ff">
	<path class="st101" d="M218.9,201.9c1.7-5.1,6.2-0.3,9.4-0.2c3.7,7.7-2,13.7-7.1,18.5c-0.8,0-2.2,0.1-3,0.1c-2.8,0.1-5.7-1.2-6.6-4
		C208.8,210,216,206.4,218.9,201.9z"/>
</g>
<g id="_x23_4a4264ff">
	<path class="st102" d="M236.1,199l0.8-0.1c3.7,16.7-7.5,35-24.7,37.4c-5.8,0.7-11.6,0.5-17.2-1.3l-0.2-0.9
		c4.4,0.3,8.9,0.9,13.3,0.9c5.9,0.4,11.4-2.4,15.8-6c2-1.9,4.2-3.8,6-5.9C237,217.2,235.9,207.2,236.1,199z"/>
</g>
<g id="_x23_9f9f9fff">
	<path class="st103" d="M117,206c5.5,2.5,5.8-4.4,10.1-5c2.8-0.4,3.5,3.2,5.3,4.7c7.2,0.5,14.4,0.2,21.6,0.2
		c-2.6,4.8-10.4-1.2-14.8,1.2c-9.1,3.6-18.9,1.4-28.1-0.2c-2.8-1.8-10.3,3.5-11.1-1.8C105.4,206.7,111.3,205.9,117,206z"/>
</g>
<g id="_x23_ad254dff">
	<path class="st104" d="M165.6,213.2c0.4-4.7,2.1-12,8.1-11.4c0.2,3.5,1,7,2,10.4c0.4,1.5,0.8,2.9,1.3,4.4c-4.6,0.2-6.2,4.5-8.4,7.7
		c-0.5-1.2-0.9-2.3-1.4-3.5C166.6,218.4,166,215.8,165.6,213.2z"/>
</g>
<g id="_x23_d2d1d1ff">
	<path class="st105" d="M66,214c0.8,0,2.5-0.1,3.3-0.2c15.9,12,36,15.1,52.6,25.4c8.6,5.2,15.2-5.4,23.3-7.2
		c5.6-4.2,20.6-3.3,17.1-13.2l0.9-0.1c0.7,1.7,0.9,3.5,1.1,5.3c-2.9,8-12.8,4.7-18,10c-9.1-0.2-15.8,14.3-24.5,7.1
		C103.9,230.3,82.8,227,66,214z"/>
</g>
<g id="_x23_444365ff">
	<path class="st106" d="M242.6,224.6c1.2-4.5,2-10,7.4-11.1v4c-6.1,2.4-6.7,10.4-9.9,15.6c-5.3,4.1-9.7,9.9-16.5,11.5
		c-3,0.4-4.5,3.1-6,5.4h-4.1c0.5-6,7.5-5.7,11.8-7.7C232.6,238.2,238.8,232.1,242.6,224.6z"/>
</g>
<g id="_x23_8a284fff">
	<path class="st107" d="M168.6,224.3c2.2-3.2,3.9-7.5,8.4-7.7c1.9,2.5,3.7,5.2,5.8,7.6c0.8,1.2,1.5,2.5,2.3,3.7
		c-7.1-3.9-8.4,3.7-6.3,9.2C175.6,232.8,170.6,229.5,168.6,224.3z"/>
</g>
<g id="_x23_74728cff">
	<path class="st108" d="M240.1,233.1c3.2-5.1,3.7-13.2,9.9-15.6v2.9C244.9,222.9,244.2,229.5,240.1,233.1z"/>
</g>
<g id="_x23_7d5170ff">
	<path class="st109" d="M190.1,219c2.5,0,5,0.1,7.5,0.1c5.4,5.7,13.3,5.4,20.3,3.8c-6.1,4.4-14,4.3-21,6.2c0.5,5.1,7.9,4.4,11.2,5.8
		c-4.4,0-8.9-0.6-13.3-0.9c-3.3-1.9-6.6-4-9.8-6.1c-0.8-1.2-1.5-2.5-2.3-3.7C186.9,225.8,190.4,223.6,190.1,219z"/>
</g>
<g id="_x23_8c5c79ff">
	<path class="st110" d="M167.2,220.9c0.4,1.2,0.9,2.3,1.4,3.5c2,5.2,6.9,8.5,10.2,12.8c2.7,2.3,5.7,4.5,8.9,6.1
		c3.9,0.9,7.8,2.4,8.7,6.8h-4c-1.3-5.7-8.2-5-11.6-8.8c-3.6-1.6-5.1-5.7-8.6-7.4c-0.9-4.2-9-4.5-6-9.6
		C166.6,223.1,166.9,222,167.2,220.9z"/>
</g>
<g id="_x23_a8a7b7ff">
	<path class="st111" d="M240.1,233.1c4.1-3.6,4.8-10.2,9.9-12.7v3c-6.6,4.4-7.8,14.9-16.1,17.6C236.1,238.5,238.7,236.2,240.1,233.1
		z"/>
</g>
<g id="_x23_d5d5dcff">
	<path class="st112" d="M233.9,241.1c8.3-2.8,9.4-13.2,16.1-17.6v2c-5.7,10.7-14.6,18.1-24.5,24.6h-2c1.3-3.8,5.7-3.9,7.9-6.7
		C232.2,242.5,233.1,241.8,233.9,241.1z"/>
</g>
<g id="_x23_68264dff">
	<path class="st113" d="M178.8,237.1c-2.2-5.5-0.9-13.1,6.3-9.2c3.2,2.1,6.5,4.2,9.8,6.1l0.2,0.9c-7.9-3.2-11.6,2.5-7.4,8.2
		C184.5,241.6,181.6,239.4,178.8,237.1z"/>
</g>
<g id="_x23_d5ced2ff">
	<path class="st114" d="M153.1,236.3c6.8,0.3,13.2-9.2,19.1-2.5c3.1,8,12.8,9.7,17.4,16.2h-2.9c-6.5-5.6-13.1-11.3-19.6-16.9
		c-10.8,5.4-24.7,6.7-32.4,16.9h-0.9C135,240.9,146.7,240.5,153.1,236.3z"/>
</g>
<g id="_x23_7b7a93ff">
	<path class="st115" d="M223.6,244.6c6.8-1.6,11.2-7.4,16.5-11.5c-1.4,3.1-4,5.4-6.2,7.9c-0.9,0.7-1.8,1.4-2.6,2.2
		c-4.1,1.4-8.9,2.4-10.7,6.7h-2.9C219.1,247.7,220.7,245.1,223.6,244.6z"/>
</g>
<g id="_x23_b096aaff">
	<path class="st116" d="M172.2,233.8c3.5,1.7,5,5.8,8.6,7.4c3.4,3.8,10.3,3.1,11.6,8.8h-2.9C185,243.4,175.3,241.8,172.2,233.8z"/>
</g>
<g id="_x23_44234bff">
	<path class="st117" d="M187.8,243.2c-4.3-5.8-0.6-11.5,7.4-8.2c5.6,1.8,11.4,2.1,17.2,1.3c-5,1.9-10.3,2.5-15.4,3.9
		c0.7,3.5,3.4,6.2,3.5,9.9h-3.9C195.5,245.6,191.6,244.1,187.8,243.2z"/>
</g>
<g id="_x23_a9a8b8ff">
	<path class="st118" d="M220.6,250c1.9-4.4,6.7-5.4,10.7-6.7c-2.2,2.9-6.7,3-7.9,6.7H220.6z"/>
</g>
<g id="_x23_7f7f7fff">
	<path class="st119" d="M121.7,250c-0.2-6.6,9.8-6.6,9.7,0H121.7z"/>
</g>
</svg>
