<?xml version="1.0" encoding="utf-8"?>
<!-- Generator: Adobe Illustrator 26.0.3, SVG Export Plug-In . SVG Version: 6.00 Build 0)  -->
<svg version="1.1" id="Layer_1" xmlns="http://www.w3.org/2000/svg" xmlns:xlink="http://www.w3.org/1999/xlink" x="0px" y="0px"
	 viewBox="0 0 250 250" style="enable-background:new 0 0 250 250;" xml:space="preserve">
<style type="text/css">
	.st0{fill:#F4C672;}
	.st1{fill:#F4AF29;}
	.st2{fill:#F7D28F;}
	.st3{fill:#F6A900;}
	.st4{fill:#F4B73F;}
	.st5{fill:#FAB512;}
	.st6{fill:#E7C57F;}
	.st7{fill:#EDB744;}
	.st8{fill:#F5C350;}
	.st9{fill:#F5C461;}
	.st10{fill:#865A09;}
	.st11{fill:#82570A;}
	.st12{fill:#7B550D;}
	.st13{fill:#F6C04F;}
	.st14{fill:#956913;}
	.st15{fill:#87621C;}
	.st16{fill:#F6BE3D;}
	.st17{fill:#F3BF53;}
	.st18{fill:#805811;}
	.st19{fill:#7E570E;}
	.st20{fill:#F9DBA7;}
	.st21{fill:#FFC524;}
	.st22{fill:#F8E6A4;}
	.st23{fill:#7D5301;}
	.st24{fill:#EDAC19;}
	.st25{fill:#4C2F09;}
	.st26{fill:#F5BE1F;}
	.st27{fill:#E89E13;}
	.st28{fill:#F7B821;}
	.st29{fill:#F7CD3E;}
	.st30{fill:#7C530A;}
	.st31{fill:#DB8005;}
	.st32{fill:#DC8106;}
	.st33{fill:#DA7E04;}
	.st34{fill:#F3D671;}
	.st35{fill:#81601D;}
	.st36{fill:#F7DF69;}
	.st37{fill:#DC8105;}
	.st38{fill:#F7CF43;}
	.st39{fill:#734B04;}
	.st40{fill:#C08D24;}
	.st41{fill:#F7CE3F;}
	.st42{fill:#D58B17;}
	.st43{fill:#7B5A26;}
	.st44{fill:#DE8E16;}
	.st45{fill:#DB8105;}
	.st46{fill:#BE7E19;}
	.st47{fill:#C3811D;}
	.st48{fill:#E69518;}
	.st49{fill:#F7DD63;}
	.st50{fill:#725117;}
	.st51{fill:#78510B;}
	.st52{fill:#E9C57D;}
	.st53{fill:#F9E687;}
	.st54{fill:#F9B822;}
	.st55{fill:#684C01;}
	.st56{fill:#EEC105;}
	.st57{fill:#EFCD5E;}
	.st58{fill:#684C1E;}
	.st59{fill:#744F0C;}
	.st60{fill:#F9E599;}
	.st61{fill:#EA981D;}
	.st62{fill:#DB8205;}
	.st63{fill:#674902;}
	.st64{fill:#6C4B1F;}
	.st65{fill:#F2C82D;}
	.st66{fill:#F6D99C;}
	.st67{fill:#FBBB21;}
	.st68{fill:#F7AA18;}
	.st69{fill:#FDC032;}
	.st70{fill:#7C5003;}
	.st71{fill:#856204;}
	.st72{fill:#614115;}
	.st73{fill:#FAC559;}
	.st74{fill:#FCDB78;}
	.st75{fill:#F4D305;}
	.st76{fill:#F7E16C;}
	.st77{fill:#FCD256;}
	.st78{fill:#E7971D;}
	.st79{fill:#6C4B1A;}
	.st80{fill:#E9A620;}
	.st81{fill:#D28B22;}
	.st82{fill:#F9E506;}
	.st83{fill:#FFB71E;}
	.st84{fill:#A5710E;}
	.st85{fill:#F8D085;}
	.st86{fill:#FED23D;}
	.st87{fill:#F6B42F;}
	.st88{fill:#F4A119;}
	.st89{fill:#FDD65D;}
	.st90{fill:#F6A41A;}
	.st91{fill:#F6A419;}
	.st92{fill:#533409;}
	.st93{fill:#E29218;}
	.st94{fill:#F2DD51;}
	.st95{fill:#452804;}
	.st96{fill:#ED9A1B;}
	.st97{fill:#846602;}
	.st98{fill:#F6BF1F;}
	.st99{fill:#82600F;}
	.st100{fill:#DB9107;}
	.st101{fill:#E1921D;}
	.st102{fill:#BF8015;}
	.st103{fill:#E79517;}
	.st104{fill:#BB8007;}
	.st105{fill:#684615;}
	.st106{fill:#F59D01;}
	.st107{fill:#D88C19;}
	.st108{fill:#76510C;}
	.st109{fill:#F8B62C;}
	.st110{fill:#755011;}
	.st111{fill:#EBB907;}
	.st112{fill:#DA7F04;}
	.st113{fill:#FFB311;}
	.st114{fill:#DEA93E;}
	.st115{fill:#F8E7A7;}
	.st116{fill:#835607;}
	.st117{fill:#F7D147;}
	.st118{fill:#F6B93E;}
	.st119{fill:#DB7F04;}
	.st120{fill:#FAB71D;}
	.st121{fill:#FAC048;}
	.st122{fill:#865F04;}
	.st123{fill:#E8961B;}
	.st124{fill:#714C0B;}
	.st125{fill:#73500B;}
	.st126{fill:#E8C144;}
	.st127{fill:#F2A21B;}
	.st128{fill:#DA7D03;}
	.st129{fill:#F7C64E;}
	.st130{fill:#865B08;}
	.st131{fill:#FED34C;}
	.st132{fill:#F8AD0F;}
	.st133{fill:#E9C14D;}
	.st134{fill:#FCDA6E;}
	.st135{fill:#875A0B;}
	.st136{fill:#F8E7A5;}
	.st137{fill:#FECA2C;}
	.st138{fill:#D5961B;}
	.st139{fill:#DA7D04;}
	.st140{fill:#FFAA03;}
	.st141{fill:#F8CF40;}
	.st142{fill:#FCDD7F;}
	.st143{fill:#F0CE64;}
	.st144{fill:#583A0A;}
	.st145{fill:#F4C253;}
	.st146{fill:#5F4004;}
	.st147{fill:#946C1F;}
	.st148{fill:#876833;}
	.st149{fill:#845B13;}
	.st150{fill:#8E6A26;}
	.st151{fill:#775316;}
	.st152{fill:#F5D58C;}
	.st153{fill:#E8BF5E;}
	.st154{fill:#D3A33C;}
</style>
<g id="_x23_f4c672ff">
	<path class="st0" d="M112.7,0h23.6c7.3,1.3,14.8,2.5,21.9,4.6c0.1,0.6,0.2,1.7,0.3,2.3c1.3,0.7,2.5,1.5,3.8,2.2
		c-5.4,0-10.5-2-15.7-3.1c-4.1-1-8.3-1.2-12.5-1.7c-4.6-0.6-9.4-0.1-13.9-1.1c-0.7,0.5-1.4,0.9-2.1,1.3c-0.7-0.8-1.4-1.7-2.1-2.5
		c-0.7,1-1.3,1.9-2,2.9c-1-1.1-2-2.2-3.1-3.3c-0.4,1.3-0.7,2.6-1.1,3.9c-1-1.2-2-2.3-3.1-3.4c-0.7,1.2-1.3,2.4-1.9,3.7
		c-0.7-1-1.4-2-2-3c-0.5,0-1.6,0-2.2-0.1c0.1,1.3,0.2,2.6,0.3,3.9c-1.8-1.4-3.7-2.8-5.9-3.2C100.8,2.1,106.8,1.1,112.7,0z"/>
	<path class="st0" d="M113,16.3c1.5,0.3,3.3,0,4.3,1.4c2,2,1.2,5.1,1.2,7.6c-0.2-0.3-0.7-0.8-0.9-1.1
		C116.2,21.5,114.9,18.7,113,16.3z"/>
	<path class="st0" d="M228.9,116.9c2.4,0.3,4.1,1.8,5.1,3.9c-0.9,0.5-1.9,1-2.8,1.5c-0.6-1.3-1.2-2.6-1.8-3.9
		C229.3,118,229,117.3,228.9,116.9z"/>
</g>
<g id="_x23_f4af29ff">
	<path class="st1" d="M104.8,5.9c0.6-1.2,1.1-2.5,1.9-3.7c1.1,1.1,2.1,2.3,3.1,3.4c0.4-1.3,0.7-2.6,1.1-3.9c1,1.1,2,2.2,3.1,3.3
		c0.7-1,1.3-2,2-2.9c0.7,0.9,1.4,1.7,2.1,2.5c0.7-0.4,1.4-0.9,2.1-1.3c4.6,1,9.3,0.5,13.9,1.1c4.2,0.5,8.4,0.7,12.5,1.7
		c5.2,1.1,10.3,3.1,15.7,3.1c3.4,2,6.9,4,10.6,5.5c4.1,1.8,8.4,2.8,12.2,5c3.2,1.9,6.2,3.9,9.4,5.7c-0.1,0.3-0.2,1-0.3,1.4
		c6.3,3,11.1,8.2,16.2,12.8c5.7,6.3,11.3,12.7,16.5,19.4c7.1,10.2,11.6,22,15.2,33.9c-0.3,0.5-0.8,1.4-1.1,1.9
		c-1.6-0.2-3.2-0.4-4.9-0.6c-3.1-7.1-5.7-14.4-9.4-21.1c-1.7-3.1-3.4-6.3-4.5-9.6c-0.6-1.9-1-3.9-2.1-5.6
		c-13.1-19-31.9-34.5-53.9-42c-5.3-1.8-10.8-4-16.6-3.1c-10.2-0.3-20.3-2.8-30.6-2.4c-5.6-0.1-12.5,2.2-16.5-3.1
		c-0.2,1.1-0.5,2.2-0.8,3.3c-1.1-0.6-2.3-1.2-3.4-1.8c-0.6,1.1-1.2,2.1-1.7,3.2c-0.8-1.2-1.7-2.4-2.5-3.6c-0.5,1.6-1,3.1-1.5,4.7
		c-1.2-1.2-2.3-2.5-3.5-3.7c-0.1,1.6-0.3,3.2-0.4,4.9c-1.2-0.9-2.4-1.8-3.6-2.8c-0.2,1.3-0.5,2.6-0.7,3.8c-2-1.9-3.7-4.2-5-6.6
		c5.1-2,10.2-3.6,15.5-5.1c2.3,0.4,4.2,1.8,5.9,3.2c-0.1-1.3-0.2-2.6-0.3-3.9c0.6,0,1.7,0,2.2,0.1C103.4,3.9,104.1,4.9,104.8,5.9z"
		/>
</g>
<g id="_x23_f7d28fff">
	<path class="st2" d="M158.2,4.6c13.3,3.3,25.6,9.6,37,17.1c-0.2,1.2-0.5,2.4-0.7,3.6c-3.2-1.8-6.3-3.8-9.4-5.7
		c-3.8-2.3-8.2-3.3-12.2-5c-3.7-1.6-7.1-3.5-10.6-5.5c-1.3-0.8-2.5-1.5-3.8-2.2C158.4,6.3,158.3,5.2,158.2,4.6z"/>
</g>
<g id="_x23_f6a900ff">
	<path class="st3" d="M101.8,10.6c0.3-1.1,0.5-2.2,0.8-3.3c4,5.3,10.9,3,16.5,3.1c10.3-0.4,20.4,2,30.6,2.4
		c17.6,4.4,34.4,12.6,48.4,24.1c9.4,7.6,17.3,16.8,24.1,26.6c1.2,3.4,2.8,6.5,4.5,9.6c3.8,6.8,6.4,14.1,9.4,21.1
		c1.6,0.2,3.2,0.4,4.9,0.6c-0.2,0.4-0.7,1.3-1,1.8c0.7,0.6,1.5,1.2,2.2,1.8c-0.5,0.7-0.9,1.5-1.4,2.2c1.6,4.3,3.6,8.9,2.1,13.5
		c0.6,0.6,1.2,1.2,1.8,1.8c-0.6,0.7-1.2,1.3-1.8,2c0.6,2.3,1.2,4.7,1.6,7c-0.8,3-0.8,6.1-0.2,9.2c-0.4,0.1-1.1,0.4-1.5,0.5
		c-0.3,0.1-0.8,0.3-1,0.3c-1.7,10.6-5.6,20.6-9.6,30.4c-4.3,9.6-8.5,19.6-15.3,27.8c-0.4-3.6-0.8-7.3-2.2-10.8
		c1.5-0.9,3-1.7,4.4-2.6c3.9-3.9-1-10-5.7-8.7c-1.4,1-2.9,2.1-4.1,3.4c-1.4,1.2-0.6,3.3-0.7,4.9c-0.7,0.2-1.3,0.5-2,0.7
		c-1.8,1.6-3.4,3.6-4.4,5.8c1.7-4.5,1.5-9.3,1.6-14.1c2.1-6.3,5.6-12.2,7.3-18.6c3.9-9.8,4.4-20.5,4-31
		c0.2-39.2-29.9-75.9-67.9-84.6c-12.2-3-25.2-4.9-37.6-1.9c-4,0.6-7.9,1.4-11.8,2.3c-3.2,0-6.9,0-9-2.9c-4.1-4.9-6.1-11.7-12.6-14.2
		c2.6-2,5.3-4,8.2-5.7c0.2-1.3,0.5-2.6,0.7-3.8c1.2,0.9,2.4,1.8,3.6,2.8c0.2-1.6,0.3-3.2,0.4-4.9c1.2,1.2,2.3,2.5,3.5,3.7
		c0.5-1.6,1-3.1,1.5-4.7c0.8,1.2,1.7,2.4,2.5,3.6c0.6-1.1,1.1-2.1,1.7-3.2C99.6,9.4,100.7,10,101.8,10.6 M125,15.9
		c-1.6,1.5-3.9,2.8-4.2,5.1c-0.3,2.6,0.6,6,3.6,6.5c2.7,0.8,4.4-1.7,6.1-3.3l0.6,0c0.6,5.3,6.9,3.8,9.7,1.2c0.1-0.3,0.3-0.9,0.4-1.2
		c-0.3,1.5-0.3,3.1-0.1,4.7c1.5,0.9,2.5,0.5,3-1.1l1.1,0.1c0,0.6-0.1,1.7-0.2,2.2c1.6-1.1,2.8-2.6,3.9-4.2c0.4,1.6,0.8,3.1,1.3,4.7
		c0.7,0.1,2.1,0.3,2.8,0.3c3.6-2.4,3.1-7.3,4.1-11c-4.4-0.6-8.6-2-12.8-3.3l0.1,0.8c-0.3,0.4-0.9,1.2-1.2,1.6
		c-1.6-1.8-3.6-3.2-5.8-4.2c-0.3,0.4-0.8,1.2-1.1,1.6c-1.3,0.4-2.6,0.8-3.8,1.2c-0.6-0.8-1.3-1.6-2-2.4
		C128.7,15.2,126.8,15.7,125,15.9 M113,16.3c-1.8,0.8-3.6,1.5-5.3,2.4c-1.3,3.4-0.5,7.8,2.6,10c3.1,0.1,5.2-2.6,7.3-4.5
		c0.2,0.3,0.7,0.8,0.9,1.1c0-2.5,0.8-5.6-1.2-7.6C116.3,16.3,114.5,16.6,113,16.3 M101.2,19c-0.1,1.6-0.2,3.2-0.3,4.8
		c-1.1-2.4-2.9-4.2-5.7-3.9c0.2,3.4,1,6.8,2.6,9.9c2.8-1,5.8-1.8,8.8-1.5c-0.2-3.4-1-6.7-2.2-9.9C103.5,18.5,101.9,18.9,101.2,19
		 M86,23.4c0.5,3.3,1.3,6.4,2.3,9.6c2.9-0.4,6.2-0.7,7.9-3.4c-2.2,0-4.4,0-6.6,0c1.2-0.9,2.5-1.7,3.8-2.5c0.1-0.4,0.4-1.2,0.5-1.6
		c-1.7,0.1-3.4,0.2-5.1,0.3c1.6-1.1,3.2-2.3,4.8-3.4C91.1,22.1,88.5,22.6,86,23.4 M174.6,31.5l0.4,0.7c-1.5,0.2-3,0.3-4.6,0.5
		c0,1.3,0,2.5,0.2,3.8c0.8,1.3,2.6,1,3.9,1.4c0.5-0.7,1.5-2,2-2.7c0.2,0.2,0.8,0.8,1,1c0-1.5,0-3-0.1-4.6
		C176.8,31.6,175.3,31.5,174.6,31.5 M192.6,38.6c0.2,0.5,0.5,1.5,0.6,2c-3,2.7-6.5,5-8.2,8.8c2.4,1.1,4.9,4.6,7.7,2.5
		c0.3,0.3,0.8,0.9,1.1,1.2c-0.2,0.6-0.7,1.7-0.9,2.2c1.6-0.7,3.2-1.5,4.8-2.3c-1,1.7-1.8,3.5-2.6,5.3c1.9-0.7,3.8-1.4,5.7-2.2
		c-1.1,1.6-2.1,3.2-3,4.9c2.8-1.5,5.3-3.4,7.8-5.3l0.1,0.5c1.1,0.6,2.2,1.2,3.3,1.8c-4.6-2.2-10.1,4.5-6.4,8.5
		c2.9,3.4,7.3-0.1,9.7-2.4l0.3,1.1c0.9-0.9,2.1-1.8,1.9-3.2c0.5-3.2-2.8-4.8-4.5-6.8C204.7,49.2,200.1,41.8,192.6,38.6 M215.8,68.5
		c-2.4,1.8-7.2,2.6-6.7,6.5c-0.3,3.4,3.4,5.2,6.2,3.7c0.4,0,1.2,0,1.5-0.1c-1.1,1.2-2.2,2.3-3.1,3.6c-1.1,2.5,1,5.2,3.2,6.2
		c3.1,0.3,5.4-2,7.6-3.7c1.1,2.2,2.6,4.3,2.9,6.8c-3.3,1.2-7.5,1.2-9.9,4.1c2.1-0.1,4.1-0.3,6.1-0.5c-1.8,1.8-3.5,3.8-4.5,6.2
		c3.4-0.8,8.5,0,10.2-3.8c-1.6,0-3.1,0-4.7,0.1c1.1-1.3,2.2-2.6,3.3-3.9c0.5,0.2,1.6,0.5,2.1,0.7c-0.2-1.9-0.4-3.8-1.3-5.5
		c-2.4-4.4-2.7-10-7.2-13.1c-0.4-2.3,0.2-5.2-1.9-6.7C218.8,68,217.2,68.5,215.8,68.5 M216,91.3c0.5,0.2,1.5,0.6,2,0.8
		c2.7-0.6,6.3-0.8,8.1-3.1c-0.1-0.4-0.4-1.1-0.6-1.5C222.2,88.3,219,89.6,216,91.3 M228.9,116.9c0.1,0.4,0.4,1.1,0.6,1.4
		c-2.7,0.7-4.2,2.9-2.8,5.5c1.5-0.5,3-1,4.6-1.6c0.9-0.5,1.9-1,2.8-1.5C233,118.7,231.2,117.3,228.9,116.9 M221,138.1
		c-1.8,6.6-3.2,13.4-5,20c-0.7,2.8-3.1,5.6-1.8,8.5c1.1,3.4,5.5,5,8.5,2.9c1-0.9,1.9-1.8,2.9-2.7c2.4-1.4,2.7-5.1,0.2-6.6
		c0.6-0.4,1.8-1.2,2.4-1.6c0.2,0.3,0.7,1,1,1.3c0.4-1.7,0.8-3.3,1.2-5c-0.7-0.3-2.1-0.9-2.8-1.2c0.5,0,1.4,0,1.9,0
		c0.1-1.1,0.1-2.2,0.2-3.3c-2.7-0.8-5.4-1.7-8.2-2.7c0.1-0.3,0.4-0.9,0.6-1.2c0.9-1.6,1.7-3.3,2.6-4.9c0.3,1.9,0.6,3.8,0.8,5.7
		c1-1.5,2-3,3-4.6c0.1,1.9,0.3,3.9,0.6,5.8c2.2-2.1,2.4-5.1,2-8c-2.6-0.4-5.1-0.8-7.6-1.4C222.7,138.8,221.8,138.5,221,138.1z"/>
</g>
<g id="_x23_f4b73fff">
	<path class="st4" d="M66.7,14.5c4.1-2.2,8.4-4.3,12.8-5.9c0.4,2.8,0.7,5.5,0.9,8.3c-1.4-1.4-2.8-2.8-4.2-4.2
		c0.1,1.9,0.2,3.8,0.3,5.6c-1.5-1.1-3-2.2-4.5-3.3c0.1,1.9,0.2,3.7,0.4,5.6C70.4,18.6,68.6,16.5,66.7,14.5z"/>
</g>
<g id="_x23_fab512ff">
	<path class="st5" d="M79.4,8.6c1.3,2.5,3,4.7,5,6.6c-2.8,1.7-5.6,3.6-8.2,5.7c6.4,2.5,8.5,9.3,12.6,14.2c2.1,2.8,5.8,2.9,9,2.9
		c-2.3,0.9-4.5,1.9-6.8,2.9c-1,0.4-2,0.8-3,1.3c-2.2,0.4-4.4,0.9-6.7,0.4c-2.5-1.9-4-4.8-5.9-7.2c-2.1-2.9-4.9-5.3-7.6-7.6
		C57.2,31.4,48.6,39.3,41,47.5c-3.6,3.9-6.9,7.9-10,12.1c-5.8,7.6-9.6,16.5-13.3,25.2c-3,6.7-4.3,13.9-6,21
		c-1.2,4.7-1.1,9.7-2.6,14.3c-1.6,0.9-3.4,1.4-5.1,2c0-0.8,0-2.3,0-3c1.4,0.1,2.7,0.2,4.1,0.3c0.2-0.6,0.5-1.7,0.7-2.3
		c-1.6,0-3.1-0.1-4.7-0.1c1.6-23.3,9.4-46.6,23.7-65.2c1.4,0.7,2.8,1.3,4.2,1.9c-1.3-2-2.6-3.9-4-5.9c2.3,0.9,4.5,1.9,6.8,2.8
		c-1.3-2.2-2.6-4.4-3.9-6.7c2.2,1.2,4.4,2.5,6.6,3.7c-1.1-2.3-2.3-4.5-3.5-6.8c2.2,1.1,4.3,2.1,6.5,3.2c-1.1-2.3-2.2-4.5-3.3-6.8
		c2.2,1.3,4.3,2.6,6.5,3.9c-1.2-2.3-2.3-4.6-3.5-6.9c2.2,1.2,4.3,2.5,6.4,3.7c-0.8-2.4-1.6-4.7-2.5-7c2.2,1.4,4.4,2.7,6.6,4
		c-1.2-2.2-2.4-4.4-3.5-6.6c2.2,1.1,4.5,2.3,6.7,3.6c-0.8-2-1.7-4.1-2.5-6.1c0.3-0.1,0.9-0.3,1.2-0.4c1.6,1.5,3.1,3.1,4.7,4.6
		c-0.6-2.6-1.2-5.3-1.8-7.9c1.7,1.7,3.5,3.3,5.2,5c-0.5-2.4-0.9-4.9-1.4-7.3c1.8,1.7,3.6,3.4,5.4,5.2c-0.8-2.5-1.5-5.1-2.2-7.6
		c1.7,1.7,3.4,3.4,5,5.2c0.3-0.2,0.8-0.5,1.1-0.6c-0.9-2.4-1.7-4.7-2.6-7l0.7-0.3c1.9,2,3.7,4.1,5.6,6.1c-0.1-1.9-0.2-3.7-0.4-5.6
		c1.5,1.1,3,2.2,4.5,3.3c-0.1-1.9-0.2-3.7-0.3-5.6c1.4,1.4,2.8,2.8,4.2,4.2C80.2,14.2,79.9,11.4,79.4,8.6z"/>
</g>
<g id="_x23_e7c57fff">
	<path class="st6" d="M149.7,12.8c5.7-0.9,11.2,1.3,16.6,3.1c22,7.5,40.8,22.9,53.9,42c1.1,1.7,1.5,3.7,2.1,5.6
		c-6.9-9.8-14.8-19.1-24.1-26.6C184.1,25.3,167.3,17.2,149.7,12.8z"/>
	<path class="st6" d="M18.6,172.5c-0.6-1.9-0.7-3.9-0.9-5.9c9.9,23.3,26.8,43.9,48.7,56.8c5,3.3,10.4,6,15.9,8.4c-2.1,0-4.2-0.1-6-1
		C50.6,219.6,29.1,198.6,18.6,172.5z"/>
	<path class="st6" d="M141.2,214.3c5.1-1.1,10.2-2.3,15.2-4c2.3,3.7,6.3,6.1,8.5,10c2,3.3,4.1,6.6,5.9,9.9c-6,2.8-12.4,4.6-18.7,6.4
		c-1.6-1.3-3.2-2.6-4.7-3.9c0.6-1.9,1.3-3.8,1.9-5.7c0.8,1.4,1.7,2.8,2.5,4.2c4.3-2.7,1.7-8.5-1-11.6c0,1.3,0,2.6,0,3.8
		c-2.2-1.8-5-1.9-7.6-1.2c0.5,3.2,1,6.4,1.3,9.6c-0.5-0.1-1.5-0.4-2-0.6c-0.2-2.2-0.1-4.5-1-6.6c-1.3-1.1-2.8-1.8-4.3-2.7
		c0.7-1.3,1.4-2.6,2.1-3.8c-1.1-1-2.1-2.1-3.2-3.1C137.8,214.8,139.5,214.6,141.2,214.3 M153.5,220.5c2,0.1,3.9,0.1,5.9,0.1
		c-1.4,1.3-2.8,2.6-4.1,3.8c1.9,0,3.8-0.1,5.7-0.2c-1.9,1.2-4.1,2.4-4.7,4.7c2.5-0.7,4.9-1.7,7.2-2.8c-1-3.1-2.2-6.2-3.6-9.2
		C157.6,217.8,155.2,218.6,153.5,220.5z"/>
</g>
<g id="_x23_edb744ff">
	<path class="st7" d="M24.9,50.4c10.8-14.7,25-26.9,41.1-35.5c0.9,2.3,1.8,4.7,2.6,7c-0.3,0.2-0.8,0.5-1.1,0.6
		c-1.6-1.8-3.3-3.5-5-5.2c0.7,2.5,1.4,5.1,2.2,7.6c-1.8-1.8-3.6-3.5-5.4-5.2c0.4,2.4,0.9,4.9,1.4,7.3c-1.7-1.7-3.5-3.3-5.2-5
		c0.6,2.6,1.2,5.3,1.8,7.9c-1.6-1.5-3.2-3.1-4.7-4.6c-0.3,0.1-0.9,0.3-1.2,0.4c0.8,2,1.7,4.1,2.5,6.1c-2.2-1.2-4.4-2.4-6.7-3.6
		c1.2,2.2,2.3,4.4,3.5,6.6c-2.2-1.3-4.4-2.6-6.6-4c0.9,2.3,1.7,4.7,2.5,7c-2.1-1.2-4.3-2.5-6.4-3.7c1.1,2.3,2.3,4.6,3.5,6.9
		c-2.2-1.3-4.3-2.6-6.5-3.9c1,2.3,2.2,4.6,3.3,6.8c-2.2-1.1-4.3-2.1-6.5-3.2c1.2,2.2,2.4,4.5,3.5,6.8c-2.2-1.2-4.4-2.4-6.6-3.7
		c1.3,2.2,2.6,4.4,3.9,6.7c-2.3-1-4.5-1.9-6.8-2.8c1.3,2,2.7,3.9,4,5.9c-1.4-0.6-2.8-1.2-4.2-1.9C26.9,51.4,25.9,50.9,24.9,50.4z"/>
</g>
<g id="_x23_f5c350ff">
	<path class="st8" d="M125,15.9c1.8-0.2,3.6-0.7,5.5-0.5c0.7,0.7,1.4,1.6,2,2.4c-0.6,2.1-1.1,4.3-1.4,6.5l-0.6,0
		c-1.9-0.1-3.9,0-5.8,0.1c-0.2-1.6-0.4-3.1-0.6-4.7c2.3,0.4,4.6,0.7,6.9,0.8C129.6,18.3,127.4,16.9,125,15.9z"/>
</g>
<g id="_x23_f5c461ff">
	<path class="st9" d="M137.4,15c2.2,0.9,4.2,2.4,5.8,4.2c-0.8,1.7-1.4,3.4-1.9,5.2c-0.1,0.3-0.3,0.9-0.4,1.2
		c-0.2-1.9-0.2-3.9-0.7-5.8c-1-1.3-2.5-2.2-3.8-3.2C136.6,16.2,137.1,15.4,137.4,15z"/>
	<path class="st9" d="M220.9,159c0.6,0,1.8-0.1,2.3-0.1c0.9,0.4,1.8,0.9,2.6,1.4c2.5,1.4,2.3,5.2-0.2,6.6
		C225.3,163.6,223.8,160.7,220.9,159z"/>
	<path class="st9" d="M108.3,205.7c6.3-1.8,12.3,3.5,18.7,1.3c-3.7,0.8-7.5,1.4-11.4,1.8c2.6,2.3,5.1,5.1,8.6,5.9
		c3.9,0.9,7.9,0.7,11.8,0.4c1.1,1,2.1,2.1,3.2,3.1c-0.7,1.3-1.4,2.6-2.1,3.8c-1.6,0.8-3.2,1.5-4.6,2.6c-0.7,1.4-1.1,2.9-1.6,4.4
		c-0.5,1.4-1.4,2.7-3.1,2.3c-0.3-2.9,0-7.4-4-7.7c-2.7-0.8-3.6,2.2-4.5,4.1c1.6-0.6,3.3-1.2,4.9-1.8c0.3,1.7,0.7,3.5,1,5.2
		c-2.2,0-4.4,0-6.6,0.1l-0.7,0.2c-0.1-2.1-0.3-4.1-0.4-6.2c2.8-1.8,5.4-3.8,7.7-6.2c-3.6-2.1-7.4-3.6-11-5.5
		C111.4,211.9,109.9,208.6,108.3,205.7z"/>
</g>
<g id="_x23_865a09ff">
	<path class="st10" d="M107.7,18.7c1.7-1,3.5-1.6,5.3-2.4c1.9,2.4,3.2,5.2,4.6,7.9c-2.1,1.9-4.2,4.5-7.3,4.5
		C107.2,26.5,106.4,22.1,107.7,18.7 M109.8,20.1c-0.7,2.4-0.5,4.9,2.4,5.6c0.8-1.6,0.6-3.5,0.5-5.2C112,20.4,110.5,20.2,109.8,20.1z
		"/>
</g>
<g id="_x23_82570aff">
	<path class="st11" d="M120.8,21c0.3-2.4,2.6-3.6,4.2-5.1c2.4,1,4.6,2.4,6,4.6c-2.3-0.1-4.6-0.5-6.9-0.8c0.2,1.6,0.4,3.1,0.6,4.7
		c1.9-0.1,3.9-0.2,5.8-0.1c-1.7,1.5-3.5,4.1-6.1,3.3C121.4,27.1,120.5,23.6,120.8,21z"/>
</g>
<g id="_x23_7b550dff">
	<path class="st12" d="M132.5,17.8c1.3-0.4,2.6-0.8,3.8-1.2c1.3,1,2.8,1.9,3.8,3.2c0.5,1.9,0.5,3.8,0.7,5.8c-2.8,2.5-9.2,4-9.7-1.2
		C131.4,22.1,131.9,20,132.5,17.8 M135.4,19.4c-1.9,1.3-1.5,3.6-1.5,5.6c1.3,0,2.6-0.1,4-0.1C137.4,23.1,138.2,19,135.4,19.4z"/>
</g>
<g id="_x23_f6c04fff">
	<path class="st13" d="M144.4,16.8c4.2,1.3,8.4,2.6,12.8,3.3c-1,3.7-0.5,8.6-4.1,11c0.5-3.6,1.2-7.2,1.5-10.8
		c-1.3,1.4-2.4,2.8-3.6,4.4c-1.1-1.7-1.2-5.4-3.8-4.8c-1.1,2.6-1.6,5.4-1.9,8.1l-1.1-0.1c0.8-3.4,0.8-6.9,0.3-10.3L144.4,16.8z"/>
	<path class="st13" d="M215.8,68.5c1.4,0,3-0.5,4.1,0.6c2.1,1.6,1.5,4.5,1.9,6.7c4.4,3.1,4.8,8.7,7.2,13.1c0.8,1.7,1,3.6,1.3,5.5
		c-0.5-0.2-1.6-0.5-2.1-0.7c-0.1-0.5-0.4-1.6-0.6-2.1c-0.2-2.6-1.7-4.6-2.9-6.8c-0.8-1.7-1.3-3.6-2.4-5.2c-1.5-1.2-3.5-0.9-5.3-1
		c-0.4,0-1.1,0-1.5,0.1c-1.3-1.4-2.7-2.8-4-4.2c1.2-0.8,2.5-1.6,3.7-2.4c1.1,1.7,1.6,4.3,3.9,4.9C220.8,73.6,218,70.8,215.8,68.5z"
		/>
	<path class="st13" d="M131,229c1.2,1.5,2.2,3.1,3.7,4.4c2.8,0.9,5.4-1.1,7.8-2.1c0.5,0.1,1.5,0.4,2,0.6c0.9,0.3,1.9,0.5,2.8,0.8
		c1.6,1.3,3.1,2.6,4.7,3.9c-5.7,1.6-11.5,2.6-17.4,2.7c-3.7-0.4-7.1-2.2-9.6-4.9c0.9-1,1.9-2,2.8-3C129.6,231.7,130.5,230.4,131,229
		z"/>
</g>
<g id="_x23_956913ff">
	<path class="st14" d="M143.2,19.2c0.3-0.4,0.9-1.2,1.2-1.6c0.5,3.4,0.4,6.9-0.3,10.3c-0.5,1.6-1.5,2-3,1.1
		c-0.2-1.5-0.2-3.1,0.1-4.7C141.8,22.5,142.4,20.8,143.2,19.2z"/>
</g>
<g id="_x23_87621cff">
	<path class="st15" d="M101.2,19c0.8-0.2,2.4-0.5,3.2-0.6c1.3,3.2,2,6.5,2.2,9.9c-3-0.3-6,0.5-8.8,1.5c-1.6-3.1-2.4-6.4-2.6-9.9
		c2.8-0.3,4.6,1.5,5.7,3.9C100.9,22.2,101,20.6,101.2,19z"/>
</g>
<g id="_x23_f6be3dff">
	<path class="st16" d="M135.4,19.4c2.9-0.4,2,3.7,2.5,5.5c-1.3,0-2.6,0.1-4,0.1C133.9,23,133.4,20.6,135.4,19.4z"/>
</g>
<g id="_x23_f3bf53ff">
	<path class="st17" d="M109.8,20.1c0.7,0.1,2.2,0.3,2.9,0.4c0,1.8,0.3,3.6-0.5,5.2C109.3,25.1,109.1,22.5,109.8,20.1z"/>
</g>
<g id="_x23_805811ff">
	<path class="st18" d="M147.2,19.9c2.7-0.6,2.7,3.1,3.8,4.8c1.1-1.5,2.3-3,3.6-4.4c-0.2,3.6-1,7.2-1.5,10.8
		c-0.7-0.1-2.1-0.2-2.8-0.3c-0.4-1.6-0.9-3.1-1.3-4.7c-1.1,1.6-2.3,3.1-3.9,4.2c0-0.5,0.1-1.7,0.2-2.2
		C145.6,25.2,146.1,22.5,147.2,19.9z"/>
</g>
<g id="_x23_7e570eff">
	<path class="st19" d="M86,23.4c2.5-0.7,5.1-1.2,7.7-1c-1.6,1.2-3.2,2.3-4.8,3.4c1.7-0.1,3.4-0.2,5.1-0.3c-0.1,0.4-0.4,1.2-0.5,1.6
		c-1.3,0.8-2.5,1.7-3.8,2.5c2.2,0,4.4,0,6.6,0c-1.8,2.7-5,3-7.9,3.4C87.3,29.8,86.5,26.6,86,23.4z"/>
</g>
<g id="_x23_f9dba7ff">
	<path class="st20" d="M195.2,21.8c17.9,12,32.4,28.9,41.9,48.2c6.9,13.3,10.3,28,12.9,42.7v25.7l-0.6,1.2c-1-3.6-1.2-7.3-1.1-10.9
		c0.2-4.6-0.7-9.1-1.6-13.6c-1.1-7.4-2-14.9-4.5-22c-3.7-11.9-8.1-23.7-15.2-33.9c-5.2-6.7-10.8-13.2-16.5-19.4
		c-5.1-4.7-9.9-9.8-16.2-12.8c0.1-0.4,0.2-1,0.3-1.4C194.7,24.2,195,23,195.2,21.8z"/>
</g>
<g id="_x23_ffc524ff">
	<path class="st21" d="M41,47.5c7.6-8.1,16.1-16.1,26.9-19.7c2.7,2.3,5.5,4.7,7.6,7.6c1.9,2.4,3.4,5.3,5.9,7.2
		c2.2,0.5,4.5,0,6.7-0.4c-3.5,1.6-6.9,3.5-10.1,5.5c-8,5.2-15.8,10.7-22.1,17.9c-1.5-3.4-1.1-7.2-0.4-10.7c0.6-0.5,1.3-1,1.9-1.5
		c0.5-0.4,1.5-1.2,2-1.6c-2.1-2.5-4.4-5-7.2-6.8c-0.4,0.2-1.3,0.5-1.7,0.7c-0.6,0.2-1.8,0.7-2.4,1c1.2,1.4,2.5,2.8,3.8,4.1
		c-2.4,0-4.9-0.1-7.3,0.1C43.3,49.7,42.2,48.6,41,47.5 M67.8,36.7c-0.2,1.3-0.3,2.6-0.4,3.8c1.3-0.1,2.6-0.1,3.9-0.3
		c1.2-0.9,1-2.5,1.3-3.8C71.1,36.5,69.3,36.1,67.8,36.7z"/>
</g>
<g id="_x23_f8e6a4ff">
	<path class="st22" d="M174.6,31.5c0.7,0,2.1,0.1,2.9,0.2c0,1.5,0.1,3.1,0.1,4.6c-0.2-0.2-0.8-0.8-1-1c-0.6-1-1.1-2-1.6-3
		L174.6,31.5z"/>
	<path class="st22" d="M52.1,71c1.3-0.2,2.6-0.5,3.9-0.7c1.3,2,2.9,4.1,2,6.6c-0.2,0.4-0.5,1.1-0.6,1.4c-0.9,2-1.6,3.9-2.5,5.9
		c-2.5,3.3-5,6.8-5.7,11c-0.6,3.8-2.4,7.1-4.2,10.4c-3.1-3.1-5.4-7.1-5.3-11.6c2.2-6.1,4.9-12,8.5-17.4C49.5,74.7,50.8,72.8,52.1,71
		z"/>
</g>
<g id="_x23_7d5301ff">
	<path class="st23" d="M170.4,32.7c1.5-0.2,3-0.3,4.6-0.5c0.5,1,1,2,1.6,3c-0.5,0.7-1.5,2-2,2.7c-1.3-0.4-3.2-0.1-3.9-1.4
		C170.4,35.2,170.4,34,170.4,32.7z"/>
</g>
<g id="_x23_edac19ff">
	<path class="st24" d="M109.7,35.7c12.4-3,25.4-1.2,37.6,1.9c2.2,2.1,4.2,4.5,6.2,6.9c-2.7,0.7-5.4,1.2-8.2,0.5
		c-4.6-1-9.8-3.3-14.1-0.1c4.1,3,9.1,3.3,14,3.4c1.1,0.1,2.1,0.2,3.2,0.4c2.3,1.4,4.5,3.1,6.9,4.2c3.4,1.7,7.2,3.1,9.8,6
		c6,6.4,11.8,12.9,17.7,19.4c1.7,1.4,1.7,3.7,1.3,5.7c-0.6,4.8-2.7,9.3-6.9,11.9c2.7-6.1,2.9-12.9,1.3-19.3c-0.9,4-1,8.1-1.7,12.1
		c-0.1,1.4-1.4,2-2.4,2.6l0-0.8c0.4-3.9,0-7.8-1.2-11.4c-0.7,1-1.4,2.1-2.1,3.1c-0.7,0-2.2-0.1-2.9-0.1c-0.2-5.1-0.6-10.2-1.4-15.3
		c-0.2,3.3-0.4,6.7-0.5,10c-0.8,0-2.4,0-3.2,0c-0.1-4.2-0.2-8.4,0-12.6c-0.4-0.3-1.3-0.9-1.8-1.2c-5.5-3.8-11.9-5.9-18.3-7.5
		c-5.5-1.4-11.1-1.9-16.8-1.5c0.3,3.1,0.5,6.1,0.6,9.2c-2.2-3.2-3.2-7-5.3-10.3c5.7-0.8,11.4-0.8,17.1-1.5
		c-4.1-2.4-8.6-4.9-13.6-4.3c1.2-1.1,2.4-2.2,3.6-3.4c-4.1-1-8.3-1.3-12.6-1.1c3.4-0.8,7.7-0.2,10.4-2.7
		C122.5,34.8,115.2,36.3,109.7,35.7z"/>
</g>
<g id="_x23_4c2f09ff">
	<path class="st25" d="M67.8,36.7c1.6-0.6,3.3-0.2,4.9-0.2c-0.3,1.3-0.1,2.9-1.3,3.8c-1.3,0.2-2.6,0.2-3.9,0.3
		C67.5,39.3,67.6,38,67.8,36.7z"/>
</g>
<g id="_x23_f5be1fff">
	<path class="st26" d="M97.8,38c3.9-0.9,7.8-1.7,11.8-2.3c5.5,0.6,12.8-0.9,16.6,4.2c-2.7,2.6-7,1.9-10.4,2.7
		c-0.6,1.2-1.3,2.4-1.9,3.5c3.6,0.7,7.3,1,10.9,0.9c5-0.6,9.4,1.9,13.6,4.3c-5.7,0.7-11.4,0.7-17.1,1.5c-4.5,0.9-9.1,1.5-13.6,2.3
		c-0.2-3.6-3.8-4.3-6.7-4.9c4.3-0.2,8.4-1.9,11.2-5.2c-3.9-0.5-7.9-0.4-11.5,1c-1.2-1.7-1.5-4.6-3.9-4.9c-1.9-0.4-3.8-0.4-5.7-0.3
		C93.3,39.9,95.5,38.9,97.8,38z"/>
</g>
<g id="_x23_e89e13ff">
	<path class="st27" d="M147.2,37.6c38,8.7,68.1,45.4,67.9,84.6c-1.2-2.2-2.7-4.3-4.1-6.4c-1,2-2,4.1-3.2,6c0-3.4,0.3-6.8-0.7-10.1
		c-0.3-1.1-1-1.8-2.1-2c-2.7,2.8-1.3,7-1.1,10.4c-2.2-4.6-0.6-10.2-3.4-14.6c-3.1-5.2-6.7-10-10-15c-1.4-2.1-2.8-4.5-5.1-5.9
		c-0.4-0.1-1.1-0.4-1.5-0.5c0.4-2,0.4-4.2-1.3-5.7c-5.9-6.5-11.7-13-17.7-19.4c-2.6-2.9-6.4-4.4-9.8-6c2.4,0.4,4.9,0.3,7.3,0.1
		c-3-4.4-9.3-7.8-14.2-4.4c-1.1-0.2-2.1-0.3-3.2-0.4c0-0.8,0.1-2.5,0.2-3.3c2.7,0.6,5.5,0.2,8.2-0.5
		C151.4,42.1,149.5,39.7,147.2,37.6 M164.8,53.9c1.1,5.3,6.9,8.8,12.1,8.8C176.1,57.2,169.9,54.3,164.8,53.9 M178.9,63.9
		c0.3,5.4,5.1,10,10.2,11.3C189,69.6,184.5,64.4,178.9,63.9 M190,76.8c0.4,5.4,3.4,10.7,8.1,13.4c0.3-1.8,1.1-3.8,0.1-5.6
		C196.6,81.2,194.2,77.3,190,76.8 M199.1,91.8c-1.5,5.3,1.2,10.8,4.9,14.6C205.8,101.4,204.2,94.2,199.1,91.8z"/>
</g>
<g id="_x23_f7b821ff">
	<path class="st28" d="M192.6,38.6c7.5,3.2,12.1,10.6,17.2,16.6c1.8,2.1,5,3.6,4.5,6.8c0.2,1.4-1.1,2.3-1.9,3.2l-0.3-1.1
		c-0.8-2.1-1-4.9-3.3-6c-1.1-0.7-2.2-1.2-3.3-1.8l-0.1-0.5c-0.2-1.1-0.5-2.3-0.7-3.4c-1.6,0.4-3.2,0.9-4.8,1.4
		c0.6-1.4,1.1-2.9,1.7-4.3c-0.5-0.4-1.4-1.2-1.9-1.6c-2.1,1.7-4.2,3.5-6.1,5.5c-0.3-0.3-0.8-0.9-1.1-1.2c-1.2-1.5-2.2-3.1-3.2-4.7
		c1.8,0.6,3.7,1.2,5.5,1.9c-1-1.6-1.9-3.2-2.9-4.8c2,0.8,4,1.5,6,2.2c-1.6-2-3.4-3.8-4.8-5.9C193.1,40.1,192.8,39.1,192.6,38.6z"/>
</g>
<g id="_x23_f7cd3eff">
	<path class="st29" d="M88.1,42.2c1-0.4,2-0.8,3-1.3c1.9,0,3.8,0,5.7,0.3c2.4,0.2,2.7,3.2,3.9,4.9c-4.2,3-9.2,4.5-14.3,5.7
		c-1.1-1.3-2.1-2.7-3.4-3.8c-1.6-0.7-3.4-0.4-5-0.4C81.2,45.6,84.6,43.7,88.1,42.2z"/>
</g>
<g id="_x23_7c530aff">
	<path class="st30" d="M185,49.4c1.8-3.7,5.3-6.1,8.2-8.8c1.5,2.1,3.2,4,4.8,5.9c-2-0.7-4-1.5-6-2.2c1,1.6,1.9,3.2,2.9,4.8
		c-1.8-0.6-3.7-1.3-5.5-1.9c1,1.6,2,3.2,3.2,4.7C189.9,54,187.4,50.5,185,49.4z"/>
</g>
<g id="_x23_db8005ff">
	<path class="st31" d="M115.8,42.7c4.2-0.2,8.5,0.1,12.6,1.1c-1.2,1.1-2.4,2.2-3.6,3.4c-3.7,0.1-7.3-0.3-10.9-0.9
		C114.6,45,115.2,43.8,115.8,42.7z"/>
	<path class="st31" d="M203.3,143.2c0.6,1.6,1.2,3.2,1.8,4.8c-0.6,4.1-2.7,7.8-6.1,10.2C198.1,152.8,200.3,147.6,203.3,143.2z"/>
</g>
<g id="_x23_dc8106ff">
	<path class="st32" d="M131.1,44.9c4.3-3.2,9.5-0.9,14.1,0.1c0,0.8-0.1,2.5-0.2,3.3C140.2,48.2,135.1,47.9,131.1,44.9z"/>
	<path class="st32" d="M199.1,91.8c5.1,2.4,6.7,9.6,4.9,14.6C200.4,102.6,197.7,97.1,199.1,91.8z"/>
</g>
<g id="_x23_da7e04ff">
	<path class="st33" d="M100.7,46.1c3.7-1.4,7.7-1.5,11.5-1c-2.8,3.2-7,5-11.2,5.2c-5.5-0.8-8.9,3.9-13,6.5c-2.3,0.6-4.9,0.9-6.9,2.2
		c-2.3,2-3.9,4.7-6.3,6.6c-2.8,2.4-7.3,3.3-8.2,7.5c-1.9,4-4.8,7.8-9.1,9.3c0-1.4,0-2.9,0.1-4.3c0.2-0.3,0.5-1.1,0.6-1.4
		c3.6-3.7,7.9-6.7,10.9-11c1.9-2.8,4.5-4.8,7.4-6.4c3.8-2,6.7-5.1,10.1-7.6C91.4,50.6,96.4,49.2,100.7,46.1z"/>
	<path class="st33" d="M49.2,95.2c0.6-4.2,3.1-7.7,5.7-11c2.8,4.7-1,9.4-3.5,13.2c-2.5,3.1-1.3,7.3-2.2,11
		c-0.5,3.6-3.4,6.9-2.3,10.7c0.7,3.5,0.4,7.2-0.1,10.7c-1.3,5.4,2.4,10.1,3.7,15.1c-0.6,1.6-1.3,3.2-2,4.8c-3.2-3.1-4.1-7.7-4.1-12
		c0.5-5.9-1.9-11.6-1-17.4c2-4.7,0.9-9.8,1.6-14.7C46.8,102.3,48.7,98.9,49.2,95.2z"/>
	<path class="st33" d="M81.7,192.6c0.9-0.2,2.6-0.6,3.5-0.8c3.7,1.7,7.2,4.1,9.8,7.4c-0.4,0.3-1.3,0.9-1.7,1.2
		C88.8,198.9,83.7,197.4,81.7,192.6z"/>
</g>
<g id="_x23_f3d671ff">
	<path class="st34" d="M50.3,45.7c0.4-0.2,1.3-0.5,1.7-0.7c2.8,1.8,5.1,4.3,7.2,6.8c-0.5,0.4-1.5,1.2-2,1.6
		C55,50.8,52.6,48.3,50.3,45.7z"/>
</g>
<g id="_x23_81601dff">
	<path class="st35" d="M47.9,46.6c0.6-0.2,1.8-0.7,2.4-1c2.3,2.6,4.6,5.1,7,7.7c-0.6,0.5-1.3,1-1.9,1.5c-1.4-0.4-2.8-0.8-4.3-1.2
		c0.5,1.6,1,3.2,1.5,4.8c-3.2-2.1-5.8-4.7-8.2-7.6c2.4-0.1,4.9-0.1,7.3-0.1C50.4,49.4,49.2,48,47.9,46.6z"/>
</g>
<g id="_x23_f7df69ff">
	<path class="st36" d="M77.9,47.7c1.7,0,3.5-0.3,5,0.4c1.3,1,2.3,2.4,3.4,3.8c-3.4,2.5-6.3,5.6-10.1,7.6c-2.9,1.5-5.5,3.6-7.4,6.4
		c-2.9,4.3-7.3,7.3-10.9,11c0.9-2.5-0.7-4.6-2-6.6c-1.3,0.2-2.6,0.5-3.9,0.7c1.2-1.8,2.4-3.7,3.7-5.4C62.1,58.4,70,52.8,77.9,47.7z"
		/>
</g>
<g id="_x23_dc8105ff">
	<path class="st37" d="M148.2,48.8c4.9-3.4,11.2,0,14.2,4.4c-2.4,0.2-4.9,0.2-7.3-0.1C152.7,51.8,150.5,50.2,148.2,48.8z"/>
</g>
<g id="_x23_f7cf43ff">
	<path class="st38" d="M31,59.6c3.1-4.3,6.4-8.3,10-12.1c1.1,1.1,2.3,2.2,3.3,3.4c2.4,2.9,5.1,5.5,8.2,7.6c-0.5-1.6-1-3.2-1.5-4.8
		c1.4,0.4,2.8,0.8,4.3,1.2c-0.7,3.6-1,7.3,0.4,10.7c-1.3,1.8-2.5,3.6-3.7,5.4c-1.3,1.9-2.6,3.7-3.9,5.6c-0.9-0.1-1.8-0.2-2.7-0.3
		c-1.1-2.6-2.1-5.2-3.2-7.7c1.7-1.7,4.9-3.2,4.3-6.2c-0.7-3-4.2-5.8-7.2-4.2c-2.3,0.8-2.8,3.5-3.7,5.5C34.1,62.3,32.6,61,31,59.6
		 M41.7,53.5c2,3.3,5,6,8.5,7.6C49.4,57.2,45.7,54,41.7,53.5z"/>
</g>
<g id="_x23_734b04ff">
	<path class="st39" d="M193.8,53.1c1.8-2,3.9-3.8,6.1-5.5c0.5,0.4,1.4,1.2,1.9,1.6c-0.6,1.4-1.1,2.9-1.7,4.3
		c1.6-0.5,3.2-0.9,4.8-1.4c0.2,1.1,0.5,2.3,0.7,3.4c-2.5,1.9-5,3.8-7.8,5.3c0.9-1.7,1.9-3.3,3-4.9c-1.9,0.8-3.8,1.6-5.7,2.2
		c0.8-1.8,1.7-3.5,2.6-5.3c-1.6,0.8-3.1,1.6-4.8,2.3C193.1,54.8,193.5,53.7,193.8,53.1z"/>
</g>
<g id="_x23_c08d24ff">
	<path class="st40" d="M24.9,50.4c1,0.5,2,1,3,1.5C13.6,70.5,5.9,93.8,4.3,117.1c0,0.5-0.1,1.6-0.1,2.1c0,0.8,0,2.3,0,3
		c0,8.5,0.7,17,2.3,25.4c3.3,21.6,13.9,41.6,28.1,57.9c21,23.8,51.7,39.1,83.5,40.6c-0.4,1.3-0.9,2.6-1.3,3.9
		c-8.2-1-16.4-2.1-24.3-4.3C61,237.4,33.4,216,17,188c-9.8-16.6-15.2-35.5-17-54.6v-15.8C1,108.3,2.4,99,5.1,90
		C9.2,75.7,16.1,62.3,24.9,50.4z"/>
</g>
<g id="_x23_f7ce3fff">
	<path class="st41" d="M87.9,56.8c4.1-2.6,7.6-7.3,13-6.5c2.9,0.6,6.5,1.2,6.7,4.9c-5.7,1.3-11,3.6-16.2,6.1c0-1.3,0-2.6,0-3.8
		C90.3,57.2,89.1,57,87.9,56.8z"/>
</g>
<g id="_x23_d58b17ff">
	<path class="st42" d="M107.7,55.2c4.5-0.8,9.1-1.4,13.6-2.3c2.1,3.3,3.1,7.1,5.3,10.3c-0.2,0.2-0.6,0.5-0.8,0.7
		c-4,2.5-3.6,7.4-3.8,11.5c-3.4,1.3-7.1,1.7-10.7,1.4c-0.2-4.9,0.3-9.9,0.1-14.9c0-3-2.9-4.6-4.8-6.5c2.8,4.7,5.3,11.7,1.2,16.3
		c-3.5,0.3-6-2.3-8.2-4.5c0.5,2.7,1,5.4,1.5,8c-2.2,0.6-4.5,1.7-6.9,1.4c-2.9-1.1-4.8-3.6-6.9-5.8c0.9,2.5,1.8,5.1,2.1,7.8
		c0.1,7.1,0.2,14.2-0.1,21.3c-3.9,0.3-8.1-0.3-11.7,1.4c-3.8,2.3-2.9,8.9,1.6,10c3.2,1.5,6.8,3,10.2,1.4c0,8.6,0.4,17.2-0.2,25.7
		c-4.9,0.4-10.9-0.4-14,4.2c-0.2-6.9-0.3-13.9-1.2-20.8c-1,1.7-2,3.3-3,5c-3.2,0.1-6.8,0.3-9,2.9c-3.5,2.8-4.1,7.4-4.6,11.5
		c-0.6,0.2-1.8,0.6-2.4,0.8c-1.8-8.1-2.3-16.3-2.2-24.6c2.1-13.5,7-27,15.8-37.7c6.4-7.6,14.1-14.2,22.9-18.8
		C96.7,58.7,102,56.5,107.7,55.2 M58.1,102.8c1.2,5.5,3,10.8,5.1,15.9c0.4,1.4,1.8,1.8,2.9,2.5C64.8,114.7,61.9,108.3,58.1,102.8z"
		/>
</g>
<g id="_x23_7b5a26ff">
	<path class="st43" d="M41.7,53.5c4,0.4,7.7,3.7,8.5,7.6C46.7,59.5,43.7,56.9,41.7,53.5z"/>
	<path class="st43" d="M20.4,91c0.3-0.7,1-2.1,1.4-2.8c3.1,0.8,6.1,1.6,9.2,2.6c-0.6,1.7-1.1,3.3-1.6,5c-0.4,0.1-1.3,0.4-1.7,0.6
		c0.5,1.2,0.9,2.3,1.4,3.5c-3.4-0.4-6.8-1.5-9.9-2.8c0.1-0.6,0.4-1.9,0.5-2.5c1.8-0.3,3.6-0.7,5.5-1C23.5,92.8,22,91.9,20.4,91z"/>
	<path class="st43" d="M153.5,220.5c1.7-1.8,4.1-2.7,6.4-3.5c1.4,3,2.6,6.1,3.6,9.2c-2.3,1.1-4.7,2-7.2,2.8c0.6-2.4,2.8-3.5,4.7-4.7
		c-1.9,0.1-3.8,0.2-5.7,0.2c1.4-1.3,2.8-2.6,4.1-3.8C157.5,220.5,155.5,220.6,153.5,220.5z"/>
</g>
<g id="_x23_de8e16ff">
	<path class="st44" d="M126,54c5.6-0.3,11.3,0.1,16.8,1.5c-0.9,1.7-1.9,3.5-1.8,5.4c0,5,0.2,10-0.1,15c-2.1,0.3-4.2,0.5-6.3,0.8
		c-0.3-5.4,2.7-10.1,3.3-15.3c-3.4-3.3-8.2-0.5-11.3,1.8C126.5,60.1,126.3,57,126,54z"/>
</g>
<g id="_x23_db8105ff">
	<path class="st45" d="M164.8,53.9c5,0.4,11.3,3.3,12.1,8.8C171.7,62.7,165.9,59.2,164.8,53.9z"/>
	<path class="st45" d="M178.9,63.9c5.6,0.5,10.1,5.7,10.2,11.3C184,73.9,179.2,69.3,178.9,63.9z"/>
	<path class="st45" d="M203.9,120.1c-0.2-3.4-1.6-7.6,1.1-10.4c1.1,0.2,1.8,0.9,2.1,2c1,3.3,0.8,6.7,0.7,10.1
		c-0.5,0.5-1.6,1.4-2.2,1.9C205.1,122.5,204.5,121.3,203.9,120.1z"/>
	<path class="st45" d="M204.1,142.1c-0.8-5.1-1.5-11.7,2.8-15.4C209.6,131.6,208.7,138.7,204.1,142.1z"/>
</g>
<g id="_x23_be7e19ff">
	<path class="st46" d="M106.6,55.5c1.9,1.9,4.8,3.5,4.8,6.5c0.2,4.9-0.3,9.9-0.1,14.9c3.6,0.3,7.3-0.1,10.7-1.4
		c0.7,1.1,1.4,2.2,2.2,3.3c-0.5,0.1-1.6,0.3-2.1,0.3c-9.7-0.5-19.5-1-29.2,0.3c-0.3,0-0.9-0.1-1.2-0.2c-0.8-0.1-1.5-0.2-2.3-0.4
		c-0.3-2.7-1.2-5.3-2.1-7.8c2.1,2.1,4,4.7,6.9,5.8c2.4,0.2,4.6-0.8,6.9-1.4c-0.5-2.7-1-5.4-1.5-8c2.3,2.2,4.8,4.8,8.2,4.5
		C111.9,67.2,109.4,60.2,106.6,55.5z"/>
</g>
<g id="_x23_c3811dff">
	<path class="st47" d="M141,60.9c-0.1-2,0.9-3.8,1.8-5.4c0,6.9-0.4,13.8,0.2,20.7c1.3,0,2.6,0,3.9,0c1.2-1.6,2.4-3.2,3.6-4.9
		c1.1,1.7,1.8,3.8,3.4,5c2.1,1,4.4,0.8,6.6,0.2c1.7-4.3,0.7-9,0.6-13.5c0.4,0.3,1.3,0.9,1.8,1.2c-0.2,4.2-0.1,8.4,0,12.6
		c0.8,0,2.4,0,3.2,0c0.2-3.3,0.3-6.7,0.5-10c0.9,5.1,1.2,10.2,1.4,15.3c0.7,0,2.2,0.1,2.9,0.1c0.7-1,1.4-2.1,2.1-3.1
		c1.2,3.7,1.7,7.6,1.2,11.4c-0.1-0.4-0.2-1.2-0.2-1.5c-0.5-1.4-1-2.8-1.9-4c-1.9-0.8-3.9-1.2-5.8-1.7c-0.4-1.5-0.7-3-1.1-4.4
		c-10.6-0.4-21.2,0-31.8-0.4c-0.3-3.9-0.2-7.8-1.2-11.6c-0.5-1.9-2.8-1.6-4.3-2.1c-0.5-0.1-1.6-0.3-2.1-0.4l0.1-0.6
		c0.2-0.2,0.6-0.5,0.8-0.7c3.1-2.2,7.9-5.1,11.3-1.8c-0.6,5.2-3.6,9.9-3.3,15.3c2.1-0.3,4.2-0.5,6.3-0.8
		C141.2,70.9,141,65.9,141,60.9z"/>
</g>
<g id="_x23_e69518ff">
	<path class="st48" d="M142.8,55.5c6.4,1.6,12.9,3.7,18.3,7.5c0.1,4.5,1.1,9.2-0.6,13.5c-2.1,0.5-4.5,0.8-6.6-0.2
		c-1.6-1.3-2.4-3.3-3.4-5c-1.2,1.6-2.4,3.2-3.6,4.9c-1.3,0-2.6,0-3.9,0C142.4,69.3,142.8,62.4,142.8,55.5z"/>
</g>
<g id="_x23_f7dd63ff">
	<path class="st49" d="M81,59c2.1-1.3,4.6-1.6,6.9-2.2c1.2,0.2,2.3,0.4,3.5,0.7c0,1.3,0,2.6,0,3.8c-8.8,4.6-16.5,11.2-22.9,18.8
		c-0.3-2.4-1-4.8-2.1-6.9c0.9-4.2,5.4-5.1,8.2-7.5C77.1,63.8,78.7,61,81,59z"/>
</g>
<g id="_x23_725117ff">
	<path class="st50" d="M39.4,58.2c3-1.5,6.5,1.3,7.2,4.2c0.7,2.9-2.6,4.4-4.3,6.2c-2.3-1.5-4.6-3.1-6.7-4.9
		C36.6,61.7,37.1,59,39.4,58.2 M39.3,60.1c-0.1,1.2-0.1,2.4,0,3.5c1,1.7,3,1.5,4.8,1.5C43.9,62.4,42.3,60,39.3,60.1z"/>
</g>
<g id="_x23_78510bff">
	<path class="st51" d="M202.4,66.5c-3.6-4,1.9-10.7,6.4-8.5c2.3,1.1,2.5,3.9,3.3,6C209.7,66.4,205.3,69.9,202.4,66.5 M204.7,60.7
		c-0.7,1.3-0.6,2.9-0.8,4.3c1.2-0.1,2.5-0.2,3.7-0.4c1.5-0.9,0.8-3,1.1-4.4C207.4,60.3,206,60.4,204.7,60.7z"/>
</g>
<g id="_x23_e9c57dff">
	<path class="st52" d="M17.8,84.8c3.7-8.8,7.5-17.6,13.3-25.2c1.5,1.4,3,2.7,4.6,4.1c2.1,1.8,4.4,3.4,6.7,4.9
		c1.1,2.6,2.1,5.2,3.2,7.7c0.9,0.1,1.8,0.2,2.7,0.3c-3.6,5.4-6.3,11.3-8.5,17.4c-1.1,3-2.3,6-3.2,9.2c-0.9-1.9-2.1-3.8-3.3-5.6
		c-2.3,3.9-4,8.1-5.3,12.4c-4-0.6-7.9-1.3-11.8-2.3c0.3-4.5,1.4-8.9,2.5-13.3C19.5,91.2,18.5,87.9,17.8,84.8 M33.1,66.3
		c-0.9,1.2-1.8,2.5-2.6,3.8c0.2,2.3,1.3,6.1,4.4,5.7c2.9,0.6,6.2-1.4,5.8-4.7c0.2-1.9-2-2-3.3-1.6c0.2,1.4,0.4,2.8,0.6,4.1
		c-2.3,0.1-4-1.2-5.1-3.1c1.1-1.3,2.2-2.7,3.3-4.1C35.5,66.4,33.9,66.3,33.1,66.3 M26.4,79.4c-1.2,0.7-2.3,1.8-2.9,3.1
		c-1,3.4,2.9,5.5,5.7,6.1c2.8,0.8,5-2.1,5.4-4.6C34.4,80.3,29.7,77.4,26.4,79.4 M20.4,91c1.5,0.9,3,1.7,4.5,2.6
		c-1.8,0.4-3.6,0.7-5.5,1c-0.1,0.6-0.3,1.9-0.5,2.5c3.2,1.3,6.5,2.3,9.9,2.8c-0.5-1.2-0.9-2.3-1.4-3.5c0.4-0.1,1.3-0.4,1.7-0.6
		c0.5-1.7,1-3.4,1.6-5c-3-1-6.1-1.8-9.2-2.6C21.5,88.9,20.8,90.3,20.4,91 M17.1,106.9c3.3,0.9,6.7,1.5,10.1,1.7
		c0.4-2.6,0.8-5.2,1-7.8c-2.3,0.9-2.5,3.6-3.6,5.5c-0.5-2-0.9-3.9-1.4-5.9c-0.9,1.6-1.7,3.2-2.5,4.8c-0.4-2.2-0.8-4.3-1.6-6.3
		C17.8,101.4,17.2,104.1,17.1,106.9z"/>
</g>
<g id="_x23_f9e687ff">
	<path class="st53" d="M39.3,60.1c3-0.1,4.6,2.3,4.8,5c-1.7,0-3.7,0.2-4.8-1.5C39.3,62.5,39.3,61.3,39.3,60.1z"/>
</g>
<g id="_x23_f9b822ff">
	<path class="st54" d="M204.7,60.7c1.3-0.3,2.7-0.4,4-0.5c-0.3,1.5,0.4,3.5-1.1,4.4c-1.2,0.2-2.5,0.3-3.7,0.4
		C204.1,63.6,204,62,204.7,60.7z"/>
</g>
<g id="_x23_684c01ff">
	<path class="st55" d="M122,75.4c0.2-4.1-0.2-9,3.8-11.5l-0.1,0.6c-0.9,4.7-1.1,9.5-1.5,14.3C123.5,77.6,122.8,76.5,122,75.4z"/>
	<path class="st55" d="M89.4,110.9c0.6,0.1,1.7,0.3,2.3,0.4c0,9.4,0.1,18.9-0.1,28.3c-3.8,0-7.8-0.4-11.5,0.5
		c-3.6,2.1-1.9,8.4,1.9,9.1c3,0.5,6.1,0.2,9.2,0.1c1.1,6.8-0.2,13.6,1,20.4c0.5,2.1,3,1.5,4.7,1.7c9,0.1,18-0.1,27,0
		c0.4,3.1,0.6,6.3,1.2,9.5c0.4,2.2,2.5,3.4,3.8,5c0,0.3,0.1,1,0.1,1.3c-2.1-0.6-4.9-0.8-5.9-3.2c-1.1-3.4-0.8-7.1-1.2-10.7
		c-10.7,0-21.4,0.3-32-0.1c-0.3-7.4-0.2-14.9-0.2-22.3c-4.8-0.2-9.6-0.7-14.1-2.3c-0.1-1.6-0.2-3.1-0.3-4.6l-0.1-1
		c3.2-4.6,9.2-3.8,14-4.2c0.6-8.6,0.2-17.1,0.2-25.7C89.4,112.5,89.4,111.5,89.4,110.9z"/>
</g>
<g id="_x23_eec105ff">
	<path class="st56" d="M125.7,64.4c0.5,0.1,1.6,0.3,2.1,0.4c4.6,3.4,3.3,9.7,3.8,14.6c9.8,0.5,19.6-0.3,29.4,0.2
		c2.7-0.1,3.2,3.1,4.5,4.8c2.9,1.3,5.8,2.8,8.5,4.5c-2.3,0.7-4.7,1.3-7.1,1.9c-0.7,1.5-1.3,3-2,4.5c-16.7-0.8-33.5,0.2-50.2-0.3
		c-4.3-0.8-8.8-0.8-12.9,1.2c3.5,1,7,1.9,10.5,3.1c-5.9,0.7-11.8,0.9-17.5,2.1c3,1.2,6.1,2.2,9.2,3.2c-4.2,1-8.4,2.1-12.5,3.3
		c2.8,1,5.7,1.9,8.6,2.9c-2.3,0.6-4.5,1.2-6.8,1.8c-0.1,0.6-0.3,1.7-0.3,2.2c1.3,0.6,2.6,1.3,3.9,1.9c-1.5,1.2-2.9,2.4-4.3,3.6
		c0.9,0.7,1.9,1.3,2.8,2c-0.8,0.9-1.6,1.8-2.4,2.7c0.7,0.8,1.4,1.6,2,2.5c-0.8,1.5-1.6,3.1-2.3,4.6c1.8,0.5,3.5,1,5.3,1.5
		c-1.6,0.3-3.1,0.6-4.7,0.9c0,0.6,0,1.8,0.1,2.4c3.2,0.5,6.5,1.1,9.7,1.6c-4,0.7-7.9,1.7-11.3,4c5.1,1,10.2,1.5,15.4,1.9
		c-3.9,0.7-7.7,1.7-11.4,3.1c5.5,0.7,11,1.1,16.4,1.9c-3.9,0.9-7.8,1.7-11.7,2.7c4.2,1,8.4,1.8,12.6,2.2c0.5,0,1.4,0.1,1.9,0.2
		c16.3,0.9,32.8-0.3,49.1,0.8c0.1,1.2,0.2,2.4,0.3,3.6c-7.1-1.1-14.3,0.4-21.4,0.7c5.4,1.1,10.9,1.7,16.3,3
		c-8.7,1.2-17.4,1.7-26.2,1.6c-13.2-0.2-26.6,0.6-39.7-1.3c-0.1-4.5-0.1-8.9-0.4-13.4c-0.4,0-1.2,0-1.6,0c-3.1,0-6.2,0.3-9.2-0.1
		c-3.9-0.7-5.5-7-1.9-9.1c3.8-0.9,7.7-0.5,11.5-0.5c0.2-9.4,0.1-18.9,0.1-28.3c-0.6-0.1-1.7-0.3-2.3-0.4c-3.3-0.5-6.7-0.9-10-1.4
		c-0.9-2.4-2.4-5.9,0.2-7.8c3.9-0.8,8-0.4,12-0.7c0.2-7.2,0.9-14.5,0.1-21.7c0.3,0,0.9,0.1,1.2,0.2c9.7,0.9,19.6,1.4,29.2-0.3
		c0.5-0.1,1.6-0.3,2.1-0.3C124.6,74,124.8,69.2,125.7,64.4z"/>
</g>
<g id="_x23_efcd5eff">
	<path class="st57" d="M127.8,64.9c1.5,0.5,3.8,0.2,4.3,2.1c1,3.8,0.9,7.7,1.2,11.6c10.6,0.4,21.2,0,31.8,0.4c0.4,1.5,0.7,3,1.1,4.4
		c2,0.5,4,0.9,5.8,1.7c0.9,1.2,1.4,2.6,1.9,4c-2.7-1.8-5.5-3.3-8.5-4.5c-1.4-1.7-1.9-4.9-4.5-4.8c-9.8-0.5-19.6,0.3-29.4-0.2
		C131.1,74.5,132.4,68.3,127.8,64.9z"/>
	<path class="st57" d="M156.4,210.3c1.7-0.7,3.4-1.4,5.1-2.1c3.9,7.2,10.1,12.8,14.9,19.3c-1.9,0.9-3.7,1.8-5.6,2.7
		c-1.8-3.4-3.9-6.7-5.9-9.9C162.7,216.4,158.7,214,156.4,210.3z"/>
</g>
<g id="_x23_684c1eff">
	<path class="st58" d="M33.1,66.3c0.8,0.1,2.3,0.2,3.1,0.2c-1.1,1.4-2.2,2.7-3.3,4.1c1.1,1.9,2.8,3.1,5.1,3.1
		c-0.2-1.4-0.4-2.8-0.6-4.1c1.3-0.4,3.5-0.3,3.3,1.6c0.5,3.2-2.9,5.3-5.8,4.7c-3,0.5-4.2-3.3-4.4-5.7C31.3,68.8,32.2,67.5,33.1,66.3
		z"/>
</g>
<g id="_x23_744f0cff">
	<path class="st59" d="M209.1,74.9c-0.5-3.9,4.3-4.6,6.7-6.5c2.2,2.3,5,5.1,3.1,8.5c-2.2-0.6-2.7-3.2-3.9-4.9
		c-1.2,0.8-2.5,1.6-3.7,2.4c1.3,1.4,2.7,2.8,4,4.2C212.6,80.2,208.8,78.3,209.1,74.9z"/>
</g>
<g id="_x23_f9e599ff">
	<path class="st60" d="M57.3,82.5c4.3-1.6,7.2-5.3,9.1-9.3c1.1,2.2,1.9,4.5,2.1,6.9c-8.8,10.7-13.6,24.1-15.8,37.7
		c-0.8,4.1-1.2,8.2-1.4,12.4c-2-3.5-3.5-7.2-4.5-11.1c-1.1-3.8,1.8-7.1,2.3-10.7c0.9-3.6-0.4-7.8,2.2-11c2.5-3.9,6.3-8.5,3.5-13.2
		c0.9-1.9,1.7-3.9,2.5-5.9C57.3,79.7,57.3,81.1,57.3,82.5z"/>
	<path class="st60" d="M30,149.6c1.2,2.1,2.2,4.2,2.8,6.6c-0.3,0.2-1,0.8-1.4,1c-0.2-0.4-0.8-1.3-1-1.7c-0.3-1.2-0.5-2.3-0.6-3.4
		C29.8,151.4,29.9,150.2,30,149.6z"/>
</g>
<g id="_x23_ea981dff">
	<path class="st61" d="M176.6,88.8c0.7-4,0.8-8.1,1.7-12.1c1.7,6.4,1.4,13.2-1.3,19.3c4.2-2.6,6.4-7.1,6.9-11.9
		c0.4,0.1,1.1,0.4,1.5,0.5c-0.3,3.4,0,7.5-2.8,10.1c-5,4.8-10.2,9.5-14.4,15.1c1.5,0,3-0.1,4.5-0.2c0.5,1.2,1.1,2.5,1.6,3.7
		c-2.9-3-7.3-0.5-10.6-2.5c-0.1,1.4-0.1,2.7-0.2,4.1c-1.1,0-2.1,0.1-3.2,0.2c-0.3-2.4-0.7-4.9-1.1-7.3c-3.4,5-1.6,11.1-2.2,16.7
		c-5.7-5.9-2.9-14.5-1.3-21.5c-1.2,0.5-2.4,0.9-3.5,1.4c0.1,2.8,0.6,5.6,0.1,8.3c-0.7,1.3-1.8,2.5-2.8,3.6
		c-0.6-3.9-1.2-7.8-2.1-11.6c-1.3,3.4-1.6,7-1.5,10.6c-5.7-0.2-11.3,0.2-17,0c-0.2-2.4-0.3-4.9-0.5-7.4c-0.3,2.3-0.6,4.7-0.8,7
		c-3.6-0.4-7.1-0.4-10.7,0.2c-0.4-5.7-0.4-11.4,0-17.2c16.1-0.7,32.2,0,48.3-0.5c1.8-3.5,5.2-5.3,9-6
		C175.2,90.8,176.6,90.2,176.6,88.8z"/>
</g>
<g id="_x23_db8205ff">
	<path class="st62" d="M190,76.8c4.2,0.5,6.6,4.4,8.2,7.9c0.9,1.8,0.2,3.7-0.1,5.6C193.4,87.5,190.4,82.3,190,76.8z"/>
</g>
<g id="_x23_674902ff">
	<path class="st63" d="M89.4,78.9c0.8,0.1,1.5,0.3,2.3,0.4c0.9,7.2,0.2,14.5-0.1,21.7c-4,0.2-8.1-0.1-12,0.7
		c-2.6,1.9-1.1,5.4-0.2,7.8c1.1,1,2.2,1.9,3.3,2.8c-1.2-0.2-2.4-0.5-3.6-0.7c-4.4-1-5.4-7.6-1.6-10c3.6-1.7,7.8-1.1,11.7-1.4
		C89.6,93.1,89.6,86,89.4,78.9z"/>
	<path class="st63" d="M216.9,78.6c1.8,0.1,3.9-0.2,5.3,1c1.1,1.6,1.6,3.4,2.4,5.2c-2.2,1.7-4.5,4-7.6,3.7c-2.2-1-4.3-3.7-3.2-6.2
		C214.7,80.9,215.8,79.8,216.9,78.6 M216.2,81.9c0.1,1.3,0.2,2.6,0.3,3.9c1.8-0.2,3.5-0.5,5.3-0.9c-0.1-1.2-0.3-2.4-0.4-3.7
		C219.6,81.5,217.9,81.7,216.2,81.9z"/>
	<path class="st63" d="M23.2,165.8c-0.8-3.3,3-4.8,5.1-6.5l1-0.2c1.7,1.9,4.9,3.5,4.2,6.5c-0.7,2.2-3,3.3-4.5,4.9
		C26.9,169.3,23.4,168.8,23.2,165.8 M25.4,164.3c-0.8,2.2,2.5,4,4.2,2.5c2.2-0.8,0.6-3.4,0.4-4.9C28.5,162.5,26.5,162.9,25.4,164.3z
		"/>
	<path class="st63" d="M216.2,161.3c1.4-1.1,3.1-1.6,4.7-2.2c2.9,1.7,4.4,4.6,4.8,7.8c-1,0.9-2,1.8-2.9,2.7
		c-1.9-0.4-3.9-0.7-5.8-1.5C214.8,166.6,214.2,163.1,216.2,161.3 M217.2,162.2c0.3,1.4-0.1,3.4,1.5,4.1c1.4,0.7,3-0.1,4.5-0.2
		C222.1,163.6,220.1,162,217.2,162.2z"/>
	<path class="st63" d="M34.6,186c0.8-3.5,4.5-4.6,7.3-5.8c2,2.1,3.2,4.8,3.9,7.6c-2.2,1.1-4.3,2.6-6.8,3.3
		C36.8,190.4,35.1,188.3,34.6,186 M36.7,187c1.5,0.7,3.6,2.8,5,0.8c1.8-1.2,0.4-3.4,0.3-5C39.7,183.3,37.8,184.8,36.7,187z"/>
	<path class="st63" d="M199.7,188.1c3.5,0.6,6.2,3,8.4,5.6c-0.3,0.3-0.8,0.9-1.1,1.2C204.3,193.1,201.9,190.7,199.7,188.1z"/>
	<path class="st63" d="M57.1,201.9c-0.8-2.1-1.5-4.2-2.4-6.3c1.9,1.7,3.8,3.5,5.6,5.3c-1.2,1.6-2.5,3.1-3.8,4.7
		c-0.3,0.2-0.9,0.6-1.2,0.8c-0.8,0.5-1.5,1-2.2,1.5c-1.8-1.4-3.6-2.8-5.4-4.2c0.7-0.4,1.4-0.8,2.2-1.1c1.5,0.7,3.1,1.5,4.6,2.2
		c-0.8-1.6-1.5-3.2-2.3-4.8C53.8,200.6,55.5,201.3,57.1,201.9z"/>
</g>
<g id="_x23_6c4b1fff">
	<path class="st64" d="M26.4,79.4c3.2-2,8,0.9,8.2,4.6c-0.4,2.5-2.5,5.4-5.4,4.6c-2.8-0.6-6.6-2.7-5.7-6.1
		C24.1,81.2,25.2,80.2,26.4,79.4 M28,81c-0.7,1-1.4,2-2.1,3c1.6,1.3,3.6,1.9,5.7,1.9c0-0.7,0.1-2.2,0.2-2.9
		C30.5,82.4,29.2,81.7,28,81z"/>
</g>
<g id="_x23_f2c82dff">
	<path class="st65" d="M92.9,79.4c9.7-1.4,19.5-0.8,29.2-0.3C112.5,80.8,102.6,80.3,92.9,79.4z"/>
</g>
<g id="_x23_f6d99cff">
	<path class="st66" d="M28,81c1.2,0.7,2.5,1.4,3.7,2c0,0.7-0.1,2.2-0.2,2.9c-2.1,0-4-0.6-5.7-1.9C26.6,83,27.3,82,28,81z"/>
</g>
<g id="_x23_fbbb21ff">
	<path class="st67" d="M216.2,81.9c1.7-0.2,3.5-0.5,5.2-0.6c0.1,1.2,0.3,2.4,0.4,3.7c-1.8,0.3-3.5,0.7-5.3,0.9
		C216.4,84.5,216.3,83.2,216.2,81.9z"/>
</g>
<g id="_x23_f7aa18ff">
	<path class="st68" d="M185.5,84.6c2.2,1.4,3.6,3.8,5.1,5.9c3.3,5.1,6.9,9.8,10,15c2.8,4.4,1.2,10,3.4,14.6c0.5,1.2,1.2,2.4,1.8,3.6
		c0.5-0.5,1.6-1.4,2.2-1.9c1.2-1.9,2.2-4,3.2-6c1.4,2.1,2.8,4.2,4.1,6.4c0.4,10.5-0.1,21.1-4,31c0.7-4.6,1.2-9.5-1.1-13.7
		c-3.2,1.8-4.3,5.2-4.9,8.6c-0.6-1.6-1.2-3.2-1.8-4.8c-1-3.8-1.3-7.8-1.8-11.7c-1.8,0.6-4.3,0.7-4.7,3.1c-1.8,7.3-3,14.9-6.7,21.7
		c-0.5,1-1.1,2-1.7,3c0.1-12.5-0.6-25-0.4-37.5c-0.3-5.4,6.5-7,7.3-12.2c-4.5,2.1-9.5,5.7-9.5,11.1c-0.3,7.7,0.3,15.4-0.2,23.1
		c0.1,2.1-1.3,3.8-2.5,5.4c-1.5-6.7-0.9-13.6-1-20.5c0.1-3.5-0.3-7,0.7-10.4c2.6-5.5,9.9-7.6,10.9-14c-5,3.9-10.3,8.1-13.6,13.7
		c-1.3,7.9,1.4,16.3-1.8,24c-1.8-6.8-1.2-13.8-0.8-20.7c0.3-3.4,0.6-7.2,3.2-9.7c4-4.1,8.5-7.8,11.6-12.8
		c-6.5,4.3-11.5,10.4-17.5,15.2l-0.5-1c-0.6-1.2-1.1-2.4-1.6-3.7c-1.5,0.1-3,0.1-4.5,0.2c4.2-5.6,9.4-10.2,14.4-15.1
		C185.5,92.1,185.1,88.1,185.5,84.6 M204.1,142.1c4.6-3.5,5.5-10.6,2.8-15.4C202.6,130.5,203.3,137,204.1,142.1z"/>
</g>
<g id="_x23_fdc032ff">
	<path class="st69" d="M11.7,105.8c1.7-7.1,3-14.3,6-21c0.7,3.1,1.8,6.4,0.9,9.6c-1.1,4.4-2.1,8.8-2.5,13.3c3.9,1,7.8,1.8,11.8,2.3
		c1.5,1.9,3,3.9,4.1,6c1.5,7.9,1.9,16.1,4.1,23.9c1.7,6.2,5.2,11.7,9.8,16.2c0.9,1,2.2,1.1,3.5,1.2c1.3,3.4,3.4,6.3,6,8.8
		c0.5-1,1-2.1,1.6-3.1c0.8,1.7,1.8,3.4,2.9,5c-0.7,0.2-2.2,0.5-3,0.6c1.3,4.8,4.2,9.2,9,11c0-1.5,0-2.9,0.1-4.4
		c1,1.6,1.9,3.4,2.7,5.1c-0.8,4.7,3.2,8.1,6.9,10c1.5,0.9,2.8-0.6,4.2-1.1c1.3,0.7,2.7,1.3,4.1,1.9c0.3,0.2,1,0.5,1.4,0.6
		c-0.9,0.2-2.6,0.6-3.5,0.8c2,4.7,7.2,6.3,11.6,7.7c-0.8,0.6-1.5,1.2-2.3,1.8c2.2,3.3,4.6,6.7,8.2,8.5c5.6,3.5,12.9,3.8,17.9,8.5
		c-1.7,0.7-3.4,1.3-5.1,2c0.7,0.4,1.3,0.9,2,1.3c-1.8,0.9-3.6,1.8-5.4,2.6l-0.1-0.9c-1.6-1.8-3.9-2.5-6.1-3.2
		c-0.5,1.3-0.9,2.6-1.4,4c-1.2-1.9-2.4-3.8-3.7-5.7c-0.1-0.2-0.4-0.8-0.5-1c0.2-1.3,1-2.9-0.2-4c-3.5-3.8-8.5-5.5-12.7-8.3
		c-12.5-7.5-22.5-18.3-31.4-29.7c-6.7-8.5-12.2-18-15.7-28.3c-2.4-7.2-5.7-15.6-13.6-18.3c0.1-1.3,1.3-2.9,0.3-4.1
		c-1-0.8-2.4-0.6-3.5-1C17.1,118.4,11.1,113.3,11.7,105.8z"/>
</g>
<g id="_x23_7c5003ff">
	<path class="st70" d="M216,91.3c3-1.7,6.2-3,9.5-3.8c0.1,0.4,0.4,1.1,0.6,1.5c-1.8,2.3-5.4,2.5-8.1,3.1
		C217.5,91.9,216.5,91.5,216,91.3z"/>
</g>
<g id="_x23_856204ff">
	<path class="st71" d="M174,89.1c0.1,0.4,0.2,1.2,0.2,1.5l0,0.8c-3.8,0.7-7.2,2.5-9,6c-16.1,0.5-32.2-0.2-48.3,0.5
		c-0.4,5.7-0.4,11.4,0,17.2c3.5-0.5,7.1-0.5,10.7-0.2c0.3-2.3,0.5-4.7,0.8-7c0.2,2.5,0.3,4.9,0.5,7.4c5.7,0.2,11.4-0.2,17,0
		c0.6,0,1.7,0.1,2.3,0.1c-0.5,0.2-1.5,0.5-2,0.7c-10.3,0.7-20.7,0.3-31.1,0.1c-0.4-7-0.3-14.1-0.3-21.1c16.7,0.6,33.5-0.5,50.2,0.3
		c0.7-1.5,1.3-3,2-4.5C169.3,90.3,171.6,89.7,174,89.1z"/>
</g>
<g id="_x23_614115ff">
	<path class="st72" d="M217.6,95.7c2.4-2.9,6.6-2.9,9.9-4.1c0.2,0.5,0.4,1.6,0.6,2.1c-1.1,1.3-2.2,2.6-3.3,3.9
		c1.6,0,3.1-0.1,4.7-0.1c-1.6,3.9-6.8,3.1-10.2,3.8c1-2.4,2.6-4.4,4.5-6.2C221.7,95.4,219.7,95.6,217.6,95.7z"/>
</g>
<g id="_x23_fac559ff">
	<path class="st73" d="M242.2,92.9c2.5,7.1,3.4,14.6,4.5,22c-0.1,3.2-0.3,6.3-0.2,9.5c0.3,8.1-0.9,16.2-2,24.2
		c-0.7,6.1-3.3,11.9-3.6,18.1c-0.6,0.3-1.1,0.6-1.7,0.9c-0.4,2.4-0.9,4.9-1.3,7.3c-0.8,0.7-1.5,1.5-2.3,2.2c0.6,1,1.1,2.1,1.7,3.1
		c-16.7,34.7-50.4,60.4-88.2,67.5c-0.6-2.6-1.2-5.3-1.8-7.9c0.5,0.2,1.5,0.6,2,0.8c0.8,2.2,1.6,4.3,2.5,6.4c0.8-2.7,0.9-5.5,0.9-8.3
		c1.3,2.4,2.6,4.7,3.9,7c0-2.6,0-5.2,0-7.7c0.5,0.1,1.4,0.4,1.9,0.5c0.6,1.8,1.3,3.7,1.9,5.6c0.3-0.3,1-0.8,1.4-1.1
		c-0.4-1.9-0.8-3.9-1.2-5.8c0.3-0.2,0.8-0.7,1.1-0.9c1.3,2.2,2.5,4.4,3.9,6.6c-0.1-2.8-0.4-5.5-0.7-8.2c1.6,2,3.3,4.1,4.9,6.1
		c-0.3-2.2-0.7-4.4-1.1-6.6c0.3-0.2,0.8-0.6,1-0.8c1.2,1.9,2.4,3.8,3.6,5.8c0.2-0.2,0.7-0.6,0.9-0.9c-0.4-2.4-0.6-4.9-0.8-7.3
		c1.3,2,2.6,4.1,3.8,6.2c0.3-0.2,1-0.7,1.4-1c-0.8-2-1.5-3.9-2.3-5.9c0.7-0.2,1.4-0.4,2.2-0.7c0.9,1.9,1.8,3.8,2.7,5.7
		c0.3-0.3,0.8-0.9,1.1-1.2c-0.4-2.1-0.7-4.2-1.1-6.3c1.7,1.8,3.4,3.6,5.2,5.4c-0.5-2.6-1.1-5.2-1.6-7.8c1.9,1.8,3.8,3.6,5.7,5.3
		c-0.8-2.1-1.5-4.3-2.3-6.4c0.3-0.2,1-0.5,1.3-0.7c1.3,1.7,2.6,3.3,4,5c-0.3-2.5-0.7-5-1.1-7.4c1.8,1.5,3.6,2.9,5.4,4.4
		c-0.8-2.1-1.6-4.3-2.5-6.4c0.3-0.1,1-0.2,1.3-0.3c1.6,1.2,3.2,2.5,4.9,3.7c-0.8-2.4-1.6-4.8-2.4-7.3c1.8,1.4,3.6,2.9,5.3,4.4
		c0.3,0,0.9-0.1,1.2-0.1c-1.2-2.3-2.4-4.5-3.5-6.9c2.3,1,4.5,2.2,6.6,3.5c-1-2.3-1.9-4.6-2.8-6.9c2,1.2,4.1,2.4,6,3.7
		c-1-2.2-2-4.4-2.9-6.6c2,1.2,4,2.4,6,3.6c-1.1-2.2-2.1-4.4-3.1-6.6c2,0.9,3.9,1.8,5.9,2.7c-1-1.9-2-3.7-2.9-5.6
		c1.9,0.6,3.8,1.2,5.6,1.8c-1-1.8-2-3.6-2.9-5.4c1.7,0.5,3.3,0.9,5,1.4c-0.9-1.5-1.7-3-2.6-4.5c1.6,0.1,3.1,0.2,4.7,0.3
		c-0.5-1.5-1.1-2.9-1.6-4.4c1.6,0.4,3.2,0.9,4.8,1.4c-0.9-1.5-1.8-3.1-2.7-4.6c1.5,0.2,3.1,0.4,4.6,0.6c-0.6-1.4-1.3-2.8-1.9-4.2
		c1.2,0.1,2.5,0.1,3.7,0.2c-0.5-1.3-1-2.7-1.5-4c1.2,0,2.4-0.1,3.6-0.1c-0.5-1.2-1.1-2.4-1.6-3.6c1-0.4,2.1-0.8,3.1-1.2
		c-0.3-1.1-0.6-2.2-0.9-3.3c1.1-0.3,2.1-0.5,3.2-0.8c-0.7-1.1-1.4-2.2-2.1-3.3c1.1-0.4,2.2-0.8,3.2-1.1c-0.5-0.8-0.9-1.5-1.3-2.3
		c0.7-0.7,1.5-1.4,2.2-2.1c-0.5-1-0.9-1.9-1.3-2.9c1.1-0.4,2.2-0.9,3.3-1.3c-0.7-0.9-1.5-1.8-2.2-2.8c1-0.7,2.1-1.3,3.1-2
		c-0.7-0.9-1.4-1.8-2.1-2.6c1-0.5,2.1-0.9,3.1-1.4c-0.5-0.8-1-1.7-1.4-2.5c0.4-1.5,0.8-2.9,1.2-4.4c0.2-0.7,0.5-1.5,0.7-2.2
		c-0.3-1.4-0.6-2.7-0.9-4.1c0.4-0.1,1.1-0.3,1.5-0.5c-0.6-3-0.6-6.2,0.2-9.2c-0.4-2.4-1-4.7-1.6-7c0.6-0.7,1.2-1.3,1.8-2
		c-0.6-0.6-1.2-1.2-1.8-1.8c1.6-4.6-0.5-9.3-2.1-13.5c0.5-0.7,0.9-1.5,1.4-2.2c-0.7-0.6-1.5-1.2-2.2-1.8c0.2-0.4,0.7-1.3,1-1.8
		C241.4,94.4,241.9,93.4,242.2,92.9z"/>
</g>
<g id="_x23_fcdb78ff">
	<path class="st74" d="M36.5,103.1c0.9-3.1,2.1-6.1,3.2-9.2c-0.1,4.5,2.2,8.5,5.3,11.6c-0.7,4.9,0.4,10-1.6,14.7
		c-0.6,1.5-1.2,2.9-1.8,4.3c-1.5-2.8-3.3-5.6-4.6-8.6C35.2,112,36.1,107.4,36.5,103.1z"/>
	<path class="st74" d="M213.6,171.1c4.8-1.3,9.6,4.8,5.7,8.7C219.2,175.9,216.7,173.1,213.6,171.1z"/>
</g>
<g id="_x23_f4d305ff">
	<path class="st75" d="M101.8,96.3c4.1-1.9,8.6-2,12.9-1.2c-1,3.1-1.8,6.3-2.1,9.6c-0.3,2.6-0.7,5.2-1.1,7.8c-2.3,0.5-4.7,1-7,1.6
		c2.6,1.1,5.3,2.2,7.9,3.2c-3.2,0.8-6.3,1.6-9.5,2.4c2.6,1,5.3,2.1,7.9,3c-2.7,0.8-5.4,1.7-8,2.7c2.7,0.8,5.5,1.6,8.3,2.4
		c-2.7,1-5.5,2-8.2,3.1c4.3,1.3,8.7,2.4,13.2,2.6c-0.3,0.3-0.9,1-1.3,1.3c-1,1.2-1.6,2.7-1.6,4.2c-0.2,5.1,0.1,10.2-0.2,15.3
		c-4.3-0.4-8.5-1.2-12.6-2.2c3.9-1,7.8-1.8,11.7-2.7c-5.4-0.9-10.9-1.2-16.4-1.9c3.7-1.4,7.5-2.3,11.4-3.1c-5.2-0.5-10.3-1-15.4-1.9
		c3.4-2.3,7.3-3.3,11.3-4c-3.2-0.5-6.5-1-9.7-1.6c0-0.6,0-1.8-0.1-2.4c1.6-0.3,3.1-0.6,4.7-0.9c-1.8-0.5-3.5-1-5.3-1.5
		c0.8-1.5,1.5-3.1,2.3-4.6c-0.7-0.8-1.4-1.6-2-2.5c0.8-0.9,1.6-1.8,2.4-2.7c-0.9-0.7-1.9-1.3-2.8-2c1.4-1.2,2.9-2.4,4.3-3.6
		c-1.3-0.6-2.6-1.3-3.9-1.9c0.1-0.6,0.3-1.7,0.3-2.2c2.3-0.6,4.5-1.2,6.8-1.8c-2.9-0.9-5.7-1.9-8.6-2.9c4.2-1.2,8.3-2.2,12.5-3.3
		c-3.1-0.9-6.2-2-9.2-3.2c5.8-1.3,11.7-1.5,17.5-2.1C108.8,98.2,105.3,97.2,101.8,96.3z"/>
</g>
<g id="_x23_f7e16cff">
	<path class="st76" d="M112.6,104.7c0.3-3.3,1.1-6.5,2.1-9.6c0,7-0.1,14.1,0.3,21.1c10.4,0.1,20.8,0.5,31.1-0.1
		c0.3,1.7,0.5,3.5,0.7,5.2c-1-1.5-2-3-3-4.6c-10.1-0.5-20.2,0.1-30.3-0.3C113.2,112.6,112.8,108.7,112.6,104.7z"/>
	<path class="st76" d="M113.2,139c0-1.6,0.6-3,1.6-4.2c-0.2,6.6-0.1,13.1,0.1,19.7c-0.5,0-1.4-0.1-1.9-0.2
		C113.3,149.1,113,144,113.2,139z"/>
	<path class="st76" d="M180.3,171.7c1.6,1.2,3.3,2.5,4.9,3.8c-2.2,2.7-4.3,5.4-6.5,8.1c-2.5,3.4-6.8,4.5-10.1,6.9
		c-2.1,1.4-3.3,3.5-4.6,5.6c2.4-0.5,5-0.7,7.2-2c3.4-2.2,5.7-5.7,9.1-8c2.9-2,5.7-4.1,8.3-6.4c1.1,1.4,2.2,2.7,3,4.3
		c-0.2,1.4-0.7,2.7-1.2,4c-0.9,1-1.9,1.9-2.9,2.8c-4.5,3.9-8.9,8-14,11.1c-2.5,1.5-5,2.9-7.6,4.2c-0.2-2.9-1.7-5.1-4.2-6.6
		c0-1.1,0-2.2,0-3.3c-1,0-2.1-0.1-3.1-0.1c-0.2-1.6-0.3-3.2-0.5-4.8c-2,0.2-4,0.4-5.9,0.8C162.6,187.2,172.9,180.9,180.3,171.7z"/>
</g>
<g id="_x23_fcd256ff">
	<path class="st77" d="M33.2,97.5c1.2,1.8,2.4,3.6,3.3,5.6c-0.4,4.3-1.3,8.9,0.5,12.9c1.3,2.9,3.1,5.7,4.6,8.6
		c0.6-1.4,1.2-2.9,1.8-4.3c-0.9,5.9,1.5,11.6,1,17.4c-3.4-2.6-6.8-5.6-8.4-9.7c-1.5-3.9-2-8.2-4-12c-1.1-2.2-2.7-4.1-4.1-6
		C29.3,105.7,31,101.4,33.2,97.5z"/>
</g>
<g id="_x23_e7971dff">
	<path class="st78" d="M174.8,114.3c6-4.9,11.1-10.9,17.5-15.2c-3,5-7.5,8.7-11.6,12.8c-2.7,2.5-3,6.3-3.2,9.7
		c-0.4,6.9-1,13.9,0.8,20.7c3.2-7.7,0.5-16.1,1.8-24c3.3-5.5,8.6-9.7,13.6-13.7c-1,6.4-8.3,8.5-10.9,14c-1,3.4-0.6,7-0.7,10.4
		c0.2,6.8-0.4,13.7,1,20.5c1.2-1.6,2.6-3.3,2.5-5.4c0.4-7.7-0.2-15.4,0.2-23.1c0-5.5,5-9.1,9.5-11.1c-0.8,5.1-7.6,6.7-7.3,12.2
		c-0.2,12.5,0.5,25,0.4,37.5c-2.4,4.3-5.2,8.4-8.2,12.3c-7.4,9.2-17.7,15.5-28.3,20.4c-3.4,1.1-6.7,2.1-10.2,2.9
		c6-7.2,13.8-12.8,18.5-21.1c5.5,0.5,8.4-4.8,12.8-7.1c0.4-0.2,1.3-0.6,1.7-0.8c0.3,1.3,0.6,2.7,0.8,4c0.3-5.1,0.3-10.2-0.5-15.3
		c-1.3-12,0.3-24.2-0.3-36.3c-0.6,0-1.8,0-2.3,0C173.2,117,174,115.6,174.8,114.3z"/>
</g>
<g id="_x23_6c4b1aff">
	<path class="st79" d="M17.1,106.9c0.2-2.8,0.7-5.5,2-8c0.8,2,1.2,4.2,1.6,6.3c0.8-1.6,1.6-3.2,2.5-4.8c0.5,2,0.9,3.9,1.4,5.9
		c1.1-1.9,1.4-4.6,3.6-5.5c-0.2,2.6-0.6,5.2-1,7.8C23.7,108.4,20.4,107.8,17.1,106.9z"/>
</g>
<g id="_x23_e9a620ff">
	<path class="st80" d="M58.1,102.8c3.9,5.5,6.7,11.9,8.1,18.5c-1.1-0.7-2.5-1.2-2.9-2.5C61,113.6,59.2,108.3,58.1,102.8z"/>
</g>
<g id="_x23_d28b22ff">
	<path class="st81" d="M152.2,104.2c1.2-0.5,2.3-0.9,3.5-1.4c-1.6,7-4.3,15.6,1.3,21.5c0.7-5.6-1.1-11.7,2.2-16.7
		c0.4,2.4,0.8,4.9,1.1,7.3c1.1-0.1,2.1-0.1,3.2-0.2c0.1-1.4,0.1-2.7,0.2-4.1c3.3,2,7.6-0.5,10.6,2.5l0.5,1c-0.9,1.3-1.6,2.8-2.3,4.2
		c-4.2,12.5-0.6,25.9-2.6,38.7l-0.8,0.1c-1.2-12.6,0.4-25.3-0.4-38c-1.1-0.4-2.3-0.8-3.4-1.3c-0.2,11.3,0,22.6-0.3,33.9l-1,0.2
		c-1.3-9-0.7-18.1-0.3-27.2c0.1-2.9,0.3-6.1-1.8-8.4c-2.6,0.3-2.4,3.4-2.6,5.4c0.1,10.2,0.1,20.4-0.4,30.6c-0.4,0-1.2,0-1.6,0
		c0.2-8.5,0.6-16.9,0.2-25.4c-0.8,0.5-1.5,0.9-2.3,1.4c-0.3,0-0.9,0-1.2,0l0.2-1c0.2-1.4,1-2.8,0.5-4.2c-0.9-0.5-1.9-0.9-2.9-1.3
		c-1.7-0.3-3.3-0.5-5-0.8c-0.2-1.8-0.5-3.5-0.7-5.2c0.5-0.2,1.5-0.5,2-0.7c-0.6,0-1.7-0.1-2.3-0.1c0-3.6,0.2-7.2,1.5-10.6
		c0.9,3.8,1.4,7.7,2.1,11.6c1-1.2,2-2.3,2.8-3.6C152.8,109.8,152.3,107,152.2,104.2z"/>
</g>
<g id="_x23_f9e506ff">
	<path class="st82" d="M111.5,112.5c0.4-2.6,0.8-5.2,1.1-7.8c0.2,4,0.6,7.9,0.9,11.8c10.1,0.4,20.2-0.2,30.3,0.3c1,1.5,2,3,3,4.6
		c1.7,0.2,3.4,0.5,5,0.8c0.8,1.8,1.6,3.6,2.4,5.5l-0.2,1c-2.5-0.1-4.9,0-7.4,0.3c0.1,1.6,0.2,3.2,0.3,4.8
		c-10.3-0.5-20.6,0.1-30.9-0.3c-4.5-0.2-8.9-1.3-13.2-2.6c2.7-1.1,5.5-2.1,8.2-3.1c-2.8-0.8-5.5-1.6-8.3-2.4c2.7-0.9,5.3-1.8,8-2.7
		c-2.7-1-5.3-2-7.9-3c3.2-0.8,6.3-1.6,9.5-2.4c-2.7-1-5.3-2.1-7.9-3.2C106.8,113.5,109.2,113,111.5,112.5z"/>
</g>
<g id="_x23_ffb71eff">
	<path class="st83" d="M9.2,120.2c1.4-4.7,1.3-9.6,2.6-14.3c-0.6,7.5,5.4,12.6,8.5,18.8l0.4,0.8c-1.2,0.5-2.4,0.9-3.6,1.4
		c0.2,0.9,0.5,1.8,0.8,2.7c1.6,0.2,3.3,0,4.9-0.2l0.7,0.4c7.9,2.7,11.2,11.1,13.6,18.3c3.5,10.3,9,19.8,15.7,28.3
		c8.8,11.4,18.9,22.2,31.4,29.7c4.2,2.7,9.2,4.5,12.7,8.3c1.2,1.1,0.4,2.7,0.2,4c-1.1,1.9-2.2,3.8-3.4,5.6
		c-4.8-5.4-9.7-10.7-14.1-16.3c-6-7-13.8-12.2-20-19c-5-5.4-9.5-11.3-13.5-17.5c-3.8-5.8-6.6-12.4-11.8-17.2c0,1.6,0,3.1,0.1,4.7
		c-1.7,0.2-3.3,0.4-5,0.6l-1,0.2c0.3-0.2,0.9-0.6,1.2-0.8c0.5-0.3,1.4-1,1.9-1.3c0.4-0.2,1-0.8,1.4-1c-0.5-2.3-1.6-4.5-2.8-6.6
		c0,0.6-0.2,1.8-0.2,2.4c-1.6,0.1-3.1,0.3-4.7,0.4c1-1.5,2.1-2.9,3.1-4.4c-0.3-0.4-0.8-1.3-1-1.7c-1.7,0.4-3.4,0.8-5.1,1.3
		c-3.8-0.9-6.1-4-8.6-6.7c-0.2,3.8-0.4,7.6,0.4,11.4c-1.3-3.1-4.2-4.5-7.4-4.6c-1.6-8.4-2.3-16.9-2.3-25.4
		C5.8,121.6,7.6,121,9.2,120.2z"/>
</g>
<g id="_x23_a5710eff">
	<path class="st84" d="M79.4,109.5c3.3,0.5,6.7,0.9,10,1.4c0,0.5,0,1.6,0,2.1c-3.4,1.5-7,0-10.2-1.4c1.2,0.2,2.4,0.5,3.6,0.7
		C81.6,111.4,80.5,110.5,79.4,109.5z"/>
</g>
<g id="_x23_f8d085ff">
	<path class="st85" d="M246.7,114.9c0.9,4.5,1.8,9,1.6,13.6c-0.1,3.7,0.1,7.4,1.1,10.9c-2,14-5.3,28.1-12.1,40.6
		c-0.6-1-1.1-2.1-1.7-3.1c0.8-0.7,1.5-1.5,2.3-2.2c0.4-2.4,0.8-4.9,1.3-7.3c0.6-0.3,1.1-0.6,1.7-0.9c0.3-6.2,2.9-11.9,3.6-18.1
		c1.1-8,2.2-16.1,2-24.2C246.4,121.2,246.6,118.1,246.7,114.9z"/>
	<path class="st85" d="M20.2,124.6c1.1,0.3,2.5,0.2,3.5,1c1,1.2-0.2,2.8-0.3,4.1l-0.7-0.4c-0.7-1.3-1.4-2.6-2.1-3.9L20.2,124.6z"/>
</g>
<g id="_x23_fed23dff">
	<path class="st86" d="M32.1,116c2,3.8,2.5,8,4,12c1.6,4.1,5,7.1,8.4,9.7c0,4.3,0.9,8.9,4.1,12c0.7-1.6,1.3-3.2,2-4.8
		c1.2,3.8,3.6,7.1,6.2,10.1c0.4-0.5,1.2-1.5,1.7-2.1c4.2,9.8,10.8,18.4,18.5,25.7c1,0.9,1.9,1.9,2.9,2.8c0.8,3.5,2.4,6.7,4.1,9.7
		c-1.4-0.6-2.7-1.2-4.1-1.9c-3.3-3.5-6.8-6.8-11.1-8.9c-0.9-1.7-1.7-3.5-2.7-5.1c-1.9-2.5-4.1-4.8-6.1-7.3c-1.1-1.6-2.1-3.2-2.9-5
		c-1.8-4.7-4.2-9.3-7.8-13c0.1,2.4,0.1,4.8,0.2,7.3c-1.2,0-2.6-0.1-3.5-1.2c-4.5-4.5-8.1-10-9.8-16.2C34,132.1,33.6,123.9,32.1,116z
		"/>
</g>
<g id="_x23_f6b42fff">
	<path class="st87" d="M4.3,117.1c1.6,0,3.1,0.1,4.7,0.1c-0.2,0.6-0.5,1.7-0.7,2.3c-1.4-0.1-2.7-0.2-4.1-0.3
		C4.2,118.7,4.2,117.6,4.3,117.1z"/>
</g>
<g id="_x23_f4a119ff">
	<path class="st88" d="M159.4,122c0.2-2,0-5,2.6-5.4c2,2.3,1.8,5.5,1.8,8.4c-0.4,9-1,18.2,0.3,27.2c-1.7,0.2-3.3,0.3-5,0.4
		C159.5,142.4,159.5,132.2,159.4,122z"/>
</g>
<g id="_x23_fdd65dff">
	<path class="st89" d="M51.4,130.1c0.2-4.1,0.6-8.3,1.4-12.4c-0.2,8.2,0.4,16.5,2.2,24.6c0.7,3,1.6,6,2.7,9c0.2,0.4,0.5,1.2,0.7,1.7
		c-0.4,0.5-1.2,1.5-1.7,2.1c-2.6-3-5-6.3-6.2-10.1c-1.3-5-5-9.7-3.7-15.1c0.6-3.5,0.8-7.2,0.1-10.7
		C47.8,122.9,49.4,126.7,51.4,130.1z"/>
</g>
<g id="_x23_f6a41aff">
	<path class="st90" d="M165.3,118.1c1.1,0.4,2.3,0.9,3.4,1.3c0.8,12.7-0.8,25.3,0.4,38c-0.3,0-0.9,0.1-1.2,0.2
		c-1.1-1.8-2.1-3.6-3-5.5C165.3,140.7,165.1,129.4,165.3,118.1z"/>
</g>
<g id="_x23_f6a419ff">
	<path class="st91" d="M172.5,118.5c0.6,0,1.7,0,2.3,0c0.6,12.1-1,24.2,0.3,36.3c0,2.1-0.1,4.2-0.2,6.3c-1.7-1.3-3.3-2.6-5-3.9
		C171.9,144.4,168.3,131,172.5,118.5z"/>
</g>
<g id="_x23_533409ff">
	<path class="st92" d="M226.6,123.9c-1.4-2.6,0.1-4.9,2.8-5.5c0.6,1.3,1.1,2.6,1.8,3.9C229.7,122.8,228.2,123.3,226.6,123.9z"/>
</g>
<g id="_x23_e29218ff">
	<path class="st93" d="M71,127.1c1-1.7,2-3.3,3-5c0.9,6.9,1,13.9,1.2,20.8l0.1,1c-1.4-0.9-2.7-1.8-4.1-2.7c-3.4,1.6-7,2.8-10.2,4.7
		c-1.9,1.1-2.3,3.5-3.2,5.4c-1.1-2.9-2-5.9-2.7-9c0.6-0.2,1.8-0.6,2.4-0.8c0.5-4.1,1-8.8,4.6-11.5C64.2,127.4,67.8,127.2,71,127.1z"
		/>
</g>
<g id="_x23_f2dd51ff">
	<path class="st94" d="M151.9,122.1c1,0.3,2,0.8,2.9,1.3c0.5,1.4-0.4,2.8-0.5,4.2C153.5,125.8,152.7,123.9,151.9,122.1z"/>
</g>
<g id="_x23_452804ff">
	<path class="st95" d="M17.1,126.8c1.2-0.5,2.4-0.9,3.6-1.4c0.7,1.3,1.4,2.6,2.1,3.9c-1.6,0.1-3.2,0.4-4.9,0.2
		C17.5,128.6,17.3,127.7,17.1,126.8z"/>
</g>
<g id="_x23_ed9a1bff">
	<path class="st96" d="M155.3,128.6c0.8-0.5,1.5-0.9,2.3-1.4c0.4,8.5,0,17-0.2,25.4c-0.6,0-1.8,0-2.4,0c-0.7-0.5-1.4-0.9-2.2-1.4
		c-3.7,1.4-7.6,1.6-11.5,1.3c-0.2-5.6-0.2-11.2-0.2-16.8c2,0.1,4.1,0.3,6.1,0.6c-0.1-0.9-0.2-1.8-0.2-2.6c-0.1-1.6-0.2-3.2-0.3-4.8
		c1.8,0.6,3.8,2.6,5.7,1.3C153.4,129.7,154.3,129.2,155.3,128.6z"/>
</g>
<g id="_x23_846602ff">
	<path class="st97" d="M146.6,128.9c2.5-0.3,4.9-0.4,7.4-0.3c0.3,0,0.9,0,1.2,0c-0.9,0.6-1.9,1.2-2.9,1.7
		C150.4,131.5,148.5,129.5,146.6,128.9z"/>
</g>
<g id="_x23_f6bf1fff">
	<path class="st98" d="M196.9,134.7c0.3-2.4,2.9-2.5,4.7-3.1c0.5,3.9,0.8,7.9,1.8,11.7c-3,4.4-5.3,9.6-4.3,15
		c3.4-2.3,5.5-6.1,6.1-10.2c0.6-3.4,1.7-6.8,4.9-8.6c2.4,4.2,1.8,9.1,1.1,13.7c-1.7,6.5-5.2,12.3-7.3,18.6
		c-0.1,4.7,0.1,9.5-1.6,14.1l-0.2,0.8c-1.1,0.4-2.1,0.8-3.2,1.2c0.2,0.1,0.7,0.2,0.9,0.3c2.2,2.5,4.5,4.9,7.4,6.8
		c0.3-0.3,0.8-0.9,1.1-1.2c0.5-0.6,1-1.2,1.5-1.9c1.5-2.3,4.6-4.5,3.5-7.6c-0.9-2.7-4.1-3.2-6.4-4.2c0.7-0.3,1.3-0.5,2-0.7
		c0.6-0.2,1.8-0.6,2.4-0.7c0.2-1.3,0.4-2.7,0.7-4c1.6,0.9,3.2,1.9,4.8,2.9c-1,0.9-2.1,1.8-3.1,2.7c0.4,0.7,0.9,1.4,1.3,2.1
		c1.3,3.4,1.7,7.1,2.2,10.8c-4.4,5.7-9.2,11.1-14.5,15.9c-5.4-5.8-12-10.8-15.3-18.3c1-0.9,2-1.8,2.9-2.8c4-4,7.6-8.5,10.3-13.5
		c1-1.9,1.8-4.1,1.4-6.3c-0.2-1.9-2.4-2.2-3.8-3c0.4-1.6,0.6-3.2,0.9-4.8c-1.1,0-2.3,0.1-3.4,0.2c-1.7-1.5-3.5-2.9-5.4-4.3
		C193.8,149.6,195.1,142,196.9,134.7 M196.9,190.5c0.9,1.5,1.9,3,2.9,4.4c-2.4-0.2-4.8-0.6-7.2-0.2c-0.1,0.3-0.2,1-0.2,1.3
		c2,3.1,5,5.3,7.6,7.9c0.4-0.9,0.8-1.8,1.1-2.7c-0.7-1.3-1.5-2.6-2.2-3.8c2.1,0.5,4.2,1,6.4,1.5
		C204.4,194.7,201.1,191.1,196.9,190.5z"/>
</g>
<g id="_x23_82600fff">
	<path class="st99" d="M114.8,134.7c0.3-0.3,1-1,1.3-1.3c10.3,0.5,20.6-0.1,30.9,0.3c0.1,0.9,0.2,1.8,0.2,2.6
		c-2-0.2-4.1-0.4-6.1-0.6l-1,0c-1.7,0-3.4,0-5.1,0l-1.1,0c-5.7,0.1-11.4-0.1-17.1,0c-0.5,5.4-0.6,10.9-1.5,16.3
		c-0.1,0.6-0.4,1.7-0.5,2.3C114.7,147.8,114.6,141.3,114.8,134.7z"/>
	<path class="st99" d="M196.9,190.5c4.2,0.6,7.4,4.2,8.3,8.3c-2.1-0.4-4.3-0.9-6.4-1.5c0.7,1.3,1.5,2.6,2.2,3.8
		c-0.4,0.9-0.8,1.8-1.1,2.7c-2.6-2.6-5.6-4.8-7.6-7.9c0.1-0.3,0.2-1,0.2-1.3c2.4-0.3,4.8,0,7.2,0.2
		C198.8,193.4,197.9,192,196.9,190.5z"/>
</g>
<g id="_x23_db9107ff">
	<path class="st100" d="M242,135c0.3-0.1,0.8-0.3,1-0.3c0.3,1.4,0.6,2.7,0.9,4.1c-0.2,0.7-0.5,1.5-0.7,2.2c-0.4,1.5-0.8,3-1.2,4.4
		c0.5,0.8,1,1.7,1.4,2.5c-1,0.4-2.1,0.9-3.1,1.4c0.7,0.9,1.4,1.8,2.1,2.6c-1,0.7-2.1,1.3-3.1,2c0.7,0.9,1.5,1.8,2.2,2.8
		c-1.1,0.4-2.2,0.9-3.3,1.3c0.4,1,0.9,1.9,1.3,2.9c-0.7,0.7-1.5,1.4-2.2,2.1c0.4,0.8,0.9,1.5,1.3,2.3c-1.1,0.4-2.2,0.8-3.2,1.1
		c0.7,1.1,1.4,2.2,2.1,3.3c-1.1,0.3-2.1,0.5-3.2,0.8c0.3,1.1,0.6,2.2,0.9,3.3c-1,0.4-2.1,0.8-3.1,1.2c0.5,1.2,1.1,2.4,1.6,3.6
		c-1.2,0-2.4,0-3.6,0.1c0.5,1.3,1,2.7,1.5,4c-1.2-0.1-2.5-0.1-3.7-0.2c0.6,1.4,1.2,2.8,1.9,4.2c-1.6-0.2-3.1-0.4-4.6-0.6
		c0.9,1.5,1.8,3.1,2.7,4.6c-1.6-0.5-3.2-0.9-4.8-1.4c0.5,1.5,1.1,2.9,1.6,4.4c-1.6-0.1-3.1-0.2-4.7-0.3c0.9,1.5,1.7,3,2.6,4.5
		c-1.7-0.5-3.3-0.9-5-1.4c1,1.8,1.9,3.6,2.9,5.4c-1.9-0.6-3.8-1.2-5.6-1.8c1,1.9,1.9,3.7,2.9,5.6c-2-0.9-3.9-1.8-5.9-2.7
		c1,2.2,2.1,4.4,3.1,6.6c-2-1.2-4-2.4-6-3.6c0.9,2.2,1.9,4.4,2.9,6.6c-2-1.3-4-2.5-6-3.7c0.9,2.3,1.8,4.6,2.8,6.9
		c-2.1-1.3-4.3-2.6-6.6-3.5c1.1,2.3,2.3,4.6,3.5,6.9c-0.3,0-0.9,0-1.2,0.1c-1.8-1.5-3.5-2.9-5.3-4.4c0.8,2.4,1.6,4.9,2.4,7.3
		c-1.6-1.2-3.2-2.5-4.9-3.7c-0.3,0.1-1,0.2-1.3,0.3c0.8,2.1,1.7,4.3,2.5,6.4c-1.8-1.4-3.6-2.9-5.4-4.4c0.4,2.5,0.8,4.9,1.1,7.4
		c-1.4-1.7-2.7-3.3-4-5c-0.3,0.2-1,0.6-1.3,0.7c0.8,2.1,1.5,4.3,2.3,6.4c-1.9-1.7-3.8-3.5-5.7-5.3c0.6,2.6,1.1,5.2,1.6,7.8
		c-1.8-1.8-3.5-3.6-5.2-5.4c0.3,2.1,0.7,4.2,1.1,6.3c-0.3,0.3-0.8,0.9-1.1,1.2c-0.9-1.9-1.8-3.8-2.7-5.7c-0.7,0.2-1.4,0.4-2.2,0.7
		c0.8,2,1.5,3.9,2.3,5.9c-0.3,0.2-1,0.7-1.4,1c-1.2-2.1-2.5-4.1-3.8-6.2c0.1,2.4,0.4,4.9,0.8,7.3c-0.2,0.2-0.7,0.6-0.9,0.9
		c-1.2-1.9-2.4-3.8-3.6-5.8c-0.3,0.2-0.8,0.6-1,0.8c0.4,2.2,0.7,4.4,1.1,6.6c-1.7-2-3.3-4-4.9-6.1c0.3,2.7,0.6,5.5,0.7,8.2
		c-1.3-2.2-2.6-4.4-3.9-6.6c-0.3,0.2-0.8,0.7-1.1,0.9c0.4,1.9,0.8,3.9,1.2,5.8c-0.3,0.3-1,0.8-1.4,1.1c-0.6-1.9-1.3-3.7-1.9-5.6
		c-0.5-0.1-1.4-0.4-1.9-0.5c0,2.6,0.1,5.2,0,7.7c-1.3-2.3-2.6-4.7-3.9-7c0,2.8-0.1,5.6-0.9,8.3c-0.9-2.1-1.7-4.2-2.5-6.4
		c-0.5-0.2-1.5-0.6-2-0.8c0.6,2.6,1.2,5.3,1.8,7.9l-0.8,0.1c-1.5-2.3-2.8-4.6-4.1-6.9c-0.4,2.2-0.8,4.4-1.1,6.5
		c-1.1-2.3-2.3-4.6-3.6-6.8c-0.4,2.6-0.8,5.3-1.1,7.9c-0.3-0.8-0.7-1.7-1-2.5c-0.3-1.2-0.5-2.4-0.7-3.7c-0.7-1-1.3-2-2-3
		c5.9,0,11.7-1.1,17.4-2.7c6.3-1.8,12.7-3.6,18.7-6.4c1.9-0.9,3.8-1.8,5.6-2.7c3.9-1.9,7.6-4.1,11.2-6.5c5.4-3.4,10.4-7.4,15-11.8
		c5.3-4.8,10.1-10.2,14.5-15.9c6.8-8.2,10.9-18.1,15.3-27.8C236.4,155.6,240.2,145.5,242,135z"/>
</g>
<g id="_x23_e1921dff">
	<path class="st101" d="M116.9,135.8c5.7-0.1,11.4,0.1,17.1,0c-0.4,5.8-0.4,11.5-0.8,17.3c-5.9-0.1-11.9,0.1-17.7-0.9
		C116.3,146.7,116.3,141.2,116.9,135.8z"/>
</g>
<g id="_x23_bf8015ff">
	<path class="st102" d="M133.9,135.8l1.1,0c0,5.4,0.1,10.9,0.3,16.3c1.4-0.1,2.9-0.3,4.3-0.4c0.4-5.3,0.5-10.6,0.5-15.9l1,0
		c0,5.6,0.1,11.2,0.2,16.8c3.9,0.3,7.8,0.1,11.5-1.3c0.7,0.4,1.4,0.9,2.2,1.4c0.6,0,1.8,0,2.4,0c0.4,0,1.2,0,1.6,0
		c1.7-0.1,3.3-0.2,5-0.4l1-0.2c0.9,1.9,1.9,3.7,3,5.5c0.3,0,0.9-0.1,1.2-0.2l0.8-0.1c1.7,1.3,3.3,2.6,5,3.9c0.1-2.1,0.2-4.2,0.2-6.3
		c0.8,5.1,0.8,10.2,0.5,15.3c-0.3-1.3-0.6-2.7-0.8-4c-0.4,0.2-1.3,0.6-1.7,0.8l0.4-0.9l-0.1-0.9c-0.1-1.1-0.1-2.2-0.4-3.3
		c-2-1.4-4.6-1.6-6.9-2.2c-0.3-1.3-0.6-2.7-0.9-4c-0.3-0.1-0.9-0.3-1.3-0.4c-16.3-1.1-32.8,0.1-49.1-0.8c0.1-0.6,0.4-1.7,0.5-2.3
		c5.9,1,11.8,0.8,17.7,0.9C133.5,147.3,133.6,141.5,133.9,135.8z"/>
</g>
<g id="_x23_e79517ff">
	<path class="st103" d="M135,135.8c1.7,0,3.4-0.1,5.1,0c0,5.3-0.2,10.6-0.5,15.9c-1.4,0.1-2.9,0.3-4.3,0.4
		C135.1,146.6,135,141.2,135,135.8z"/>
</g>
<g id="_x23_bb8007ff">
	<path class="st104" d="M221,138.1c0.8,0.4,1.7,0.8,2.5,1.1c-0.9,1.2-1.9,2.4-2.5,3.8c0.2,1.2,0.7,2.4,1.1,3.6
		c-0.1,0.3-0.4,0.9-0.6,1.2c-0.3,0.6-0.5,1.1-0.8,1.7c0.7,0.5,1.4,1,2.2,1.5c-1.3,0.6-2.6,1.2-3.9,1.9c1.3,1,2.6,2,3.9,2.9
		c-1.8-0.1-3.5-0.1-5.3-0.2c1.8,1.2,3.7,2.3,5.7,3.3c-0.6,0-1.7,0.1-2.3,0.1c-1.6,0.6-3.3,1.2-4.7,2.2c-2,1.8-1.4,5.3,0.8,6.7
		c1.8,0.8,3.8,1.1,5.8,1.5c-2.9,2.1-7.3,0.5-8.5-2.9c-1.3-3,1.1-5.7,1.8-8.5C217.8,151.4,219.2,144.7,221,138.1z"/>
</g>
<g id="_x23_684615ff">
	<path class="st105" d="M221,143c0.5-1.4,1.6-2.6,2.5-3.8c2.5,0.6,5.1,1.1,7.6,1.4c0.4,2.8,0.2,5.9-2,8c-0.3-1.9-0.4-3.9-0.6-5.8
		c-1,1.6-2,3.1-3,4.6c-0.3-1.9-0.6-3.8-0.8-5.7c-0.9,1.6-1.7,3.3-2.6,4.9C221.7,145.5,221.2,144.3,221,143z"/>
</g>
<g id="_x23_f59d01ff">
	<path class="st106" d="M13.9,152.2c-0.8-3.8-0.7-7.6-0.4-11.4c2.5,2.7,4.8,5.9,8.6,6.7c-1.5,0.7-2.9,1.6-4.3,2.4
		c2,0.1,3.9,0.2,5.9,0.2c-1.5,1.9-2.9,3.8-4.2,5.8c3.8-0.4,8-0.6,10.4-4c0.1,1.1,0.3,2.3,0.6,3.4c-3.7,0.7-7.8,1.3-10.1,4.6
		c3.1-0.3,6.2-0.8,9.2-1.5c-0.3,0.2-0.9,0.6-1.2,0.8c-2.1,1.7-5.8,3.2-5.1,6.5c0.2,3,3.7,3.5,5.8,4.7c0.1,0.3,0.3,1,0.4,1.3
		c-0.9,0.6-1.7,1.1-2.6,1.7c1.1,2,1.8,5,4.5,5.2c1.9,0,3.7-1.1,5.3-2c1.4,1.3,2.9,2.4,4.6,3.1l0.7,0.4c-2.8,1.2-6.5,2.3-7.3,5.8
		c0.5,2.3,2.2,4.4,4.5,5.1c2.4-0.7,4.5-2.2,6.8-3.3c0.3,0,1,0,1.4,0c-2.5,2.5-5,5-7.1,7.9c2.6,0.4,5.2-0.3,7.5-1.5
		c-1.4,2.2-2.5,4.5-2.6,7.1c0.9,0.8,1.9,1.6,2.8,2.4c1.8,1.4,3.6,2.8,5.4,4.2c0.8-0.5,1.5-1,2.2-1.5c2.2,6.7,8.9,10.5,11,17.1
		c-21.9-12.9-38.8-33.5-48.7-56.8C16.9,161.7,15.3,157,13.9,152.2z"/>
</g>
<g id="_x23_d88c19ff">
	<path class="st107" d="M60.9,145.9c3.3-1.8,6.8-3.1,10.2-4.7c1.4,0.9,2.7,1.8,4.1,2.7c0.1,1.6,0.2,3.1,0.3,4.6
		c4.5,1.6,9.4,2.1,14.1,2.3c0,7.4-0.2,14.9,0.2,22.3c-0.7-1.9-1.3-3.8-2.1-5.7c-2.4,1.8-4.1,4.3-5.4,7c-0.9,2.4-3.6,3-5.6,4.1
		c-7.7-7.3-14.3-15.9-18.5-25.7c-0.2-0.4-0.5-1.2-0.7-1.7C58.6,149.5,58.9,147,60.9,145.9z"/>
</g>
<g id="_x23_76510cff">
	<path class="st108" d="M22,147.5c1.7-0.4,3.4-0.8,5.1-1.3c0.3,0.4,0.8,1.3,1,1.7c-1,1.5-2,2.9-3.1,4.4c1.6-0.1,3.1-0.3,4.7-0.4
		c-2.4,3.4-6.6,3.6-10.4,4c1.3-2,2.8-3.9,4.2-5.8c-2,0-4-0.1-5.9-0.2C19.1,149.1,20.5,148.2,22,147.5z"/>
</g>
<g id="_x23_f8b62cff">
	<path class="st109" d="M34.5,205.5c-14.2-16.3-24.9-36.3-28.1-57.9c3.2,0.1,6.1,1.6,7.4,4.6c1.4,4.8,3,9.5,3.8,14.4
		c0.2,2,0.3,3.9,0.9,5.9c10.5,26.1,32,47.1,57.7,58.3c1.9,0.9,4,1,6,1c1.2,0.2,2.3,0.4,3.4,0.7c8,2.4,16.2,5.4,24.8,4.5
		c-1.9-1.5-4-2.9-6.3-3.6c2.7-2.3,3.5-5.9,4.3-9.1l0.1,0.9c0.2,2.4,0.2,4.9,1,7.2c2.4,2.9,5.9,0,8.5-1.1l0.7-0.2
		c0.6,0.8,1.2,1.5,1.8,2.3c1.5,0.3,3,0.6,4.5,0.9c2.5,2.8,5.9,4.5,9.6,4.9c0.7,1,1.3,2,2,3c0.2,1.2,0.4,2.4,0.7,3.7
		c-6.4,0.2-12.9,0.3-19.3,0.2C86.3,244.6,55.5,229.2,34.5,205.5z"/>
</g>
<g id="_x23_755011ff">
	<path class="st110" d="M220.7,149.5c0.3-0.6,0.5-1.1,0.8-1.7c2.7,0.9,5.4,1.8,8.2,2.7c-0.1,1.1-0.2,2.2-0.2,3.3c-0.5,0-1.4,0-1.9,0
		c-1.1,0-2.1-0.1-3.2-0.1c1.3,1.6,2.6,3.3,3.9,5c-0.6,0.4-1.8,1.2-2.4,1.6c-0.9-0.5-1.7-0.9-2.6-1.4c-1.9-1-3.8-2.1-5.7-3.3
		c1.8,0.1,3.5,0.1,5.3,0.2c-1.3-1-2.6-2-3.9-2.9c1.3-0.6,2.6-1.2,3.9-1.9C222.1,150.5,221.4,150,220.7,149.5z"/>
</g>
<g id="_x23_ebb907ff">
	<path class="st111" d="M91.3,149.3c0.4,0,1.2,0,1.6,0c0.3,4.5,0.3,8.9,0.4,13.4c13.2,1.9,26.5,1.2,39.7,1.3
		c8.8,0.1,17.5-0.4,26.2-1.6c-5.4-1.3-10.9-1.9-16.3-3c7.1-0.3,14.3-1.8,21.4-0.7c3.5,1.4,6.9,3.2,9.2,6.3l0.1,0.9
		c-2,0.2-3.9,0.3-5.9,0.8c-1.2,1.4-2,3.1-2.8,4.7c-8.3-0.6-16.6-0.7-24.9-0.3c-2.4,0.1-4.9,0.4-7.2,1.1c-2.7,3.3-1.8,7.6-0.7,11.3
		c-1,0.8-2.1,1.6-3.1,2.4c-1.3-1.6-3.4-2.8-3.8-5c-0.6-3.1-0.8-6.3-1.2-9.5c-9-0.1-18,0.1-27,0c-1.6-0.3-4.2,0.4-4.7-1.7
		C91.1,162.9,92.4,156.1,91.3,149.3z"/>
</g>
<g id="_x23_da7f04ff">
	<path class="st112" d="M49.1,150c3.6,3.6,6,8.2,7.8,13c-0.5,1-1,2.1-1.6,3.1c-2.6-2.5-4.7-5.4-6-8.8
		C49.3,154.8,49.2,152.4,49.1,150z"/>
	<path class="st112" d="M56.8,168.6c0.7-0.2,2.2-0.5,3-0.6c2,2.5,4.2,4.8,6.1,7.3c0,1.5,0,2.9-0.1,4.4
		C61,177.8,58.2,173.4,56.8,168.6z"/>
</g>
<g id="_x23_ffb311ff">
	<path class="st113" d="M34.2,153.8c5.2,4.8,8,11.4,11.8,17.2c3.9,6.2,8.5,12.1,13.5,17.5c6.2,6.8,14,12,20,19
		c4.4,5.7,9.3,11,14.1,16.3c1.1-1.9,2.3-3.7,3.4-5.6c0.1,0.3,0.4,0.8,0.5,1c-1.9,3.5-3.1,7.4-3.4,11.4c0.6,0,1.8,0,2.4,0
		c0.6-1.9,1.2-3.9,1.8-5.8c0.5,2.4,1.1,4.8,1.6,7.2c1.5,0.4,3,0.9,4.4,1.4c2.3,0.7,4.4,2.1,6.3,3.6c-8.5,0.9-16.7-2.2-24.8-4.5
		c1.1-0.5,2.3-1,3.4-1.5c-3.7-4.4-7.6-8.6-12.3-11.9l0.7-0.3c0.6-1.3,2.3-2.9,0.8-4.2c-0.8-1.6-2.7-0.7-4.1-0.7l-0.6,0.4
		c-2.5-4.6-5.7-8.7-9.5-12.3c-2.5,1.2-5.2,2.3-7.7,3.4c1.3-1.5,2.5-3.1,3.8-4.7c0.7-0.1,2.1-0.4,2.8-0.6c-3.5-4.3-7.7-7.9-11.5-11.9
		c-2.5-2.5-4.1-5.7-6.7-8.1c-1.2-0.3-2.5-0.4-3.7-0.5c-1.7-0.7-3.2-1.9-4.6-3.1c0.4-0.3,1.3-0.9,1.8-1.2c0.7-1.1,2-2.1,1.8-3.5
		c-1-2.4-3.1-4.3-4.2-6.7c-0.9-2.2-1.4-4.5-1.8-6.8C34.2,157,34.2,155.4,34.2,153.8z"/>
</g>
<g id="_x23_dea93eff">
	<path class="st114" d="M224.3,153.8c1.1,0,2.1,0,3.2,0.1c0.7,0.3,2.1,0.9,2.8,1.2c-0.4,1.7-0.8,3.3-1.2,5c-0.2-0.3-0.7-1-1-1.3
		C226.9,157.1,225.6,155.4,224.3,153.8z"/>
</g>
<g id="_x23_f8e7a7ff">
	<path class="st115" d="M164,155.2c0.3,0.1,1,0.3,1.3,0.4c0.3,1.3,0.6,2.7,0.9,4c2.3,0.7,4.9,0.8,6.9,2.2c0.2,1.1,0.3,2.2,0.4,3.3
		c-2.3-3.1-5.7-5-9.2-6.3C164.2,157.5,164.1,156.4,164,155.2z"/>
	<path class="st115" d="M151,202.9c3.7-0.6,7.2-1.8,10.6-3.4c2.4,1.5,4,3.7,4.2,6.6c-1.4,0.7-2.8,1.3-4.2,2
		c-1.7,0.8-3.4,1.5-5.1,2.1c-4.9,1.7-10,3-15.2,4c-3-1.5-5.8-3.4-8.2-5.6c1.7-0.6,3.4-1.2,5.1-1.7
		C142.4,205.8,146.5,203.6,151,202.9z"/>
</g>
<g id="_x23_835607ff">
	<path class="st116" d="M20.2,160c2.3-3.3,6.5-3.9,10.1-4.6c0.2,0.4,0.8,1.3,1,1.7c-0.5,0.3-1.4,1-1.9,1.3
		C26.4,159.2,23.3,159.7,20.2,160z"/>
</g>
<g id="_x23_f7d147ff">
	<path class="st117" d="M190.2,156.4c1.8,1.4,3.6,2.8,5.4,4.3c-2.8,4-5.2,8.4-5.7,13.4c3.5-2.2,6.5-5.1,8.2-8.8c1.4,0.8,3.6,1,3.8,3
		c0.5,2.2-0.4,4.4-1.4,6.3c-2.6,5-6.3,9.5-10.3,13.5c0.5-1.3,1.1-2.6,1.2-4c-0.8-1.6-1.9-2.9-3-4.3c0.1-1.5,0.2-2.9,0.4-4.4
		c-1.2,0.1-2.4,0.1-3.7,0.2c-1.6-1.3-3.2-2.5-4.9-3.8c3-3.9,5.8-8,8.2-12.3C189.1,158.4,189.6,157.4,190.2,156.4z"/>
</g>
<g id="_x23_f6b93eff">
	<path class="st118" d="M29.3,159.1c1.6-0.2,3.3-0.4,5-0.6c0.4,2.3,0.9,4.6,1.8,6.8c1,2.4,3.2,4.3,4.2,6.7c0.1,1.4-1.2,2.4-1.8,3.5
		c-0.7-1.9-1.2-3.9-2.4-5.6c-1.2-0.5-2.6-0.5-3.9-0.7c0.9,1.8,2,3.6,2.7,5.5c-1.4,0.6-2.8,1.1-4.2,1.6c-0.4-1.5-0.9-3-1.3-4.5
		c-0.1-0.3-0.3-1-0.4-1.3c1.6-1.5,3.8-2.7,4.5-4.9C34.2,162.6,31,161,29.3,159.1z"/>
</g>
<g id="_x23_db7f04ff">
	<path class="st119" d="M195.5,160.6c1.1,0,2.3-0.1,3.4-0.2c-0.3,1.6-0.5,3.2-0.9,4.8c-1.7,3.8-4.7,6.7-8.2,8.8
		C190.4,169.1,192.7,164.7,195.5,160.6z"/>
	<path class="st119" d="M75.6,190.3c-3.8-1.9-7.7-5.3-6.9-10c4.3,2.1,7.8,5.4,11.1,8.9C78.4,189.8,77.1,191.2,75.6,190.3z"/>
</g>
<g id="_x23_fab71dff">
	<path class="st120" d="M25.4,164.3c1.1-1.4,3.1-1.8,4.7-2.4c0.1,1.6,1.7,4.1-0.4,4.9C27.9,168.3,24.6,166.5,25.4,164.3z"/>
</g>
<g id="_x23_fac048ff">
	<path class="st121" d="M217.2,162.2c2.8-0.3,4.8,1.4,5.9,3.9c-1.5,0.1-3.1,0.9-4.5,0.2C217.1,165.6,217.6,163.6,217.2,162.2z"/>
</g>
<g id="_x23_865f04ff">
	<path class="st122" d="M167.6,166.7c1.9-0.5,3.9-0.6,5.9-0.8l-0.4,0.9c-4.3,2.3-7.3,7.6-12.8,7.1c-8.7-0.3-17.3-0.6-26-0.1
		c0,4.6,0.9,11.1-4.6,12.9l-0.8,0.3c0-0.3-0.1-1-0.1-1.3c1-0.8,2.1-1.6,3.1-2.4c2.3-3.4,1.4-7.6,0.7-11.3c2.3-0.7,4.8-1,7.2-1.1
		c8.3-0.3,16.6-0.2,24.9,0.3C165.7,169.8,166.4,168.1,167.6,166.7z"/>
</g>
<g id="_x23_e8961bff">
	<path class="st123" d="M82.4,174.6c1.3-2.7,3-5.2,5.4-7c0.7,1.9,1.4,3.8,2.1,5.7c10.7,0.3,21.3,0.1,32,0.1
		c0.4,3.5,0.2,7.2,1.2,10.7c0.9,2.3,3.8,2.6,5.9,3.2l0.8-0.3c-4.3,1.7-7.3,5.1-9.1,9.3c-1.6,0.2-3.3,0.3-4.9,0.4
		c-5.4-0.5-10.6-1.9-15.7-3.6c-7.1-3.1-14-6.9-20.3-11.5c-1-0.9-2-1.9-2.9-2.8C78.9,177.6,81.5,176.9,82.4,174.6z"/>
</g>
<g id="_x23_714c0bff">
	<path class="st124" d="M32.2,169.2c1.3,0.2,2.6,0.2,3.9,0.7c1.2,1.7,1.7,3.7,2.4,5.6c-0.4,0.3-1.3,0.9-1.8,1.2
		c-1.7,0.9-3.4,1.9-5.3,2c-2.7-0.2-3.4-3.2-4.5-5.2c0.9-0.6,1.7-1.1,2.6-1.7c0.5,1.5,0.9,3,1.3,4.5c1.4-0.5,2.8-1,4.2-1.6
		C34.2,172.8,33.2,171,32.2,169.2z"/>
</g>
<g id="_x23_73500bff">
	<path class="st125" d="M209.4,174.5c1.2-1.3,2.7-2.3,4.1-3.4c3.1,2,5.6,4.8,5.7,8.7c-1.5,0.9-3,1.7-4.4,2.6
		c-0.4-0.7-0.9-1.4-1.3-2.1c1-0.9,2-1.8,3.1-2.7c-1.6-1-3.2-2-4.8-2.9c-0.2,1.3-0.4,2.6-0.7,4c-0.6,0.2-1.8,0.6-2.4,0.7
		C208.9,177.7,208,175.7,209.4,174.5z"/>
</g>
<g id="_x23_e8c144ff">
	<path class="st126" d="M132,183.5c-1.1-3.7-2-8,0.7-11.3C133.4,175.9,134.4,180.2,132,183.5z"/>
</g>
<g id="_x23_f2a21bff">
	<path class="st127" d="M134.4,173.9c8.6-0.6,17.3-0.2,26,0.1c-4.6,8.3-12.5,13.9-18.5,21.1c-3.2,0.8-6.5,1.5-9.7,2.1
		c-5.4,0.4-10.9,0.1-16.3-0.6c1.7-0.1,3.3-0.3,4.9-0.4c1.8-4.1,4.8-7.6,9.1-9.3C135.3,185,134.3,178.5,134.4,173.9z"/>
</g>
<g id="_x23_da7d03ff">
	<path class="st128" d="M185.1,175.5c1.2-0.1,2.4-0.1,3.7-0.2c-0.1,1.5-0.3,2.9-0.4,4.4c-2.6,2.3-5.4,4.4-8.3,6.4
		c-3.3,2.3-5.6,5.8-9.1,8c-2.2,1.3-4.8,1.6-7.2,2c1.3-2,2.6-4.2,4.6-5.6c3.3-2.4,7.7-3.5,10.1-6.9
		C180.8,180.9,182.9,178.1,185.1,175.5z"/>
</g>
<g id="_x23_f7c64eff">
	<path class="st129" d="M41.2,179.8c1.2,0.2,2.5,0.2,3.7,0.5c2.6,2.4,4.2,5.6,6.7,8.1c3.8,3.9,8,7.6,11.5,11.9
		c-0.7,0.1-2.1,0.4-2.8,0.6c-1.8-1.8-3.7-3.6-5.6-5.3c-0.2-0.2-0.7-0.6-0.9-0.8c-1-0.3-2-0.6-2.9-0.8c-0.7-2.3-1.8-4.6-3.7-6.2
		c-0.3,0-1,0-1.4,0c-0.7-2.8-1.9-5.5-3.9-7.6L41.2,179.8z"/>
</g>
<g id="_x23_865b08ff">
	<path class="st130" d="M202.3,185.8c1.1-2.2,2.6-4.1,4.4-5.8c2.3,1,5.5,1.5,6.4,4.2c1.2,3-2,5.3-3.5,7.6c-2.6-1.7-5.2-3.4-7.7-5.2
		L202.3,185.8 M206.1,183.7c-1.4,1.1-0.8,2.8,0.5,3.7c1.2,1.7,2.9,0.3,4.3-0.1C209.5,185.9,208.5,183.1,206.1,183.7z"/>
</g>
<g id="_x23_fed34cff">
	<path class="st131" d="M83.8,191.2c-1.7-3.1-3.3-6.3-4.1-9.7c6.3,4.6,13.1,8.4,20.3,11.5c-1.3,0-2.6,0-4,0.1
		c1.6,2.1,3.2,4.1,4.8,6.1c-1.7,0.3-3.3,0.8-5,1.2c3.4,3.1,7.8,4.6,12.3,5.3c1.6,2.9,3.1,6.2,6.2,7.8c3.6,2,7.4,3.4,11,5.5
		c-2.3,2.3-4.9,4.4-7.7,6.2c-1.2-0.9-2.5-1.8-3.8-2.6c-0.7-0.4-1.3-0.9-2-1.3c1.7-0.7,3.4-1.3,5.1-2c-4.9-4.7-12.2-5-17.9-8.5
		c-3.6-1.8-6.1-5.2-8.2-8.5c0.8-0.6,1.5-1.2,2.3-1.8c0.4-0.3,1.3-0.9,1.7-1.2c-2.6-3.3-6.1-5.6-9.8-7.4
		C84.9,191.7,84.2,191.4,83.8,191.2z"/>
</g>
<g id="_x23_f8ad0fff">
	<path class="st132" d="M36.7,187c1.1-2.1,2.9-3.6,5.3-4.2c0.1,1.6,1.5,3.8-0.3,5C40.4,189.8,38.2,187.7,36.7,187z"/>
</g>
<g id="_x23_e9c14dff">
	<path class="st133" d="M206.1,183.7c2.4-0.7,3.4,2.2,4.9,3.5c-1.5,0.4-3.2,1.8-4.3,0.1C205.4,186.6,204.7,184.8,206.1,183.7z"/>
</g>
<g id="_x23_fcda6eff">
	<path class="st134" d="M198.8,187.8c1.1-0.4,2.2-0.8,3.2-1.2c2.5,1.8,5,3.6,7.7,5.2c-0.5,0.6-1,1.2-1.5,1.9c-2.3-2.6-4.9-5-8.4-5.6
		C199.5,188.1,199,187.9,198.8,187.8z"/>
	<path class="st134" d="M96.1,193c1.3,0,2.6-0.1,4-0.1c5.1,1.6,10.4,3.1,15.7,3.6c5.4,0.6,10.9,1,16.3,0.6c-4.9,0.9-10,1.2-15,1.2
		c0.5,0.9,0.9,1.8,1.4,2.7c2.5,0.7,4.9,1.5,7.3,2.3c-4.5-0.5-9.1,0.6-13.6,0.1c-3.8-1.3-7.4-3.4-11.4-4.3
		C99.3,197.1,97.7,195.1,96.1,193z"/>
</g>
<g id="_x23_875a0bff">
	<path class="st135" d="M47.2,187.8c1.9,1.6,3,3.8,3.7,6.2c1,0.3,2,0.5,2.9,0.8c-2.6,2.6-5.6,4.9-8.9,6.5c0.1-2.6,1.3-5,2.6-7.1
		c-2.3,1.2-4.9,1.9-7.5,1.5C42.2,192.8,44.7,190.3,47.2,187.8z"/>
</g>
<g id="_x23_f8e7a5ff">
	<path class="st136" d="M152,192.1c2-0.3,4-0.5,5.9-0.8c0.2,1.6,0.3,3.2,0.5,4.8c-4.2,1.2-7.7,4-11.6,5.8c-4.7,0.5-9.6-0.2-14,1.9
		c-2.3,1.2-4.7,0.4-6.9-0.4c-2.4-0.8-4.8-1.6-7.3-2.3c-0.5-0.9-0.9-1.8-1.4-2.7c5-0.1,10-0.3,15-1.2c3.3-0.5,6.5-1.3,9.7-2.1
		C145.3,194.2,148.7,193.2,152,192.1z"/>
</g>
<g id="_x23_feca2cff">
	<path class="st137" d="M173.3,201.9c5.1-3.2,9.5-7.2,14-11.1c3.2,7.5,9.9,12.5,15.3,18.3c-4.6,4.4-9.6,8.4-15,11.8
		c-1.6-2-3.4-3.9-5.6-5.2c0.8-0.5,1.7-1.1,2.5-1.6c2.1-1.2,2.3-3.6,1.1-5.5c-1.4-0.4-2.7,0.2-3.9,0.7c-1.1,0.6-2.3,1.2-3.4,1.8
		C176.8,207.9,175,205,173.3,201.9z"/>
</g>
<g id="_x23_d5961bff">
	<path class="st138" d="M44.9,201.3c3.4-1.6,6.3-3.9,8.9-6.5c0.2,0.2,0.7,0.6,0.9,0.8c0.9,2.1,1.6,4.2,2.4,6.3
		c-1.7-0.6-3.3-1.2-5-1.9c0.8,1.6,1.6,3.2,2.3,4.8c-1.5-0.7-3.1-1.5-4.6-2.2c-0.7,0.4-1.4,0.8-2.2,1.1
		C46.8,202.9,45.8,202.1,44.9,201.3z"/>
</g>
<g id="_x23_da7d04ff">
	<path class="st139" d="M146.8,201.9c4-1.7,7.4-4.6,11.6-5.8c1,0,2.1,0,3.1,0.1c0,1.1,0,2.2,0,3.3c-3.4,1.5-6.9,2.7-10.6,3.4
		c-4.5,0.7-8.5,2.9-12.9,4c-3.7-0.5-7.4-1-11.1,0c-6.4,2.2-12.4-3.1-18.7-1.3c-4.5-0.7-8.9-2.2-12.3-5.3c1.7-0.4,3.3-0.9,5-1.2
		c4,0.8,7.6,3,11.4,4.3c4.5,0.5,9-0.5,13.6-0.1c2.2,0.8,4.7,1.7,6.9,0.4C137.2,201.8,142.1,202.4,146.8,201.9z"/>
</g>
<g id="_x23_ffaa03ff">
	<path class="st140" d="M56.6,205.6c2.5-1.2,5.2-2.3,7.7-3.4c3.8,3.6,7,7.7,9.5,12.3c-2.1,1.5-2.3,4-2.3,6.3c1.8-0.5,3.7-1,5.5-1.6
		c4.7,3.3,8.6,7.5,12.3,11.9c-1.2,0.5-2.3,1-3.4,1.5c-1.1-0.3-2.3-0.5-3.4-0.7c-5.5-2.4-10.9-5-15.9-8.4c-2.1-6.6-8.8-10.4-11-17.1
		C55.7,206.1,56.3,205.8,56.6,205.6z"/>
</g>
<g id="_x23_f8cf40ff">
	<path class="st141" d="M165.7,206.1c2.6-1.3,5.1-2.7,7.6-4.2c1.7,3.1,3.5,6,4.9,9.2c0.3,1,0.6,2,0.9,3c0.9,0.5,1.9,1,2.8,1.6
		c2.2,1.3,4,3.2,5.6,5.2c-3.6,2.4-7.3,4.6-11.2,6.5c-4.8-6.6-11-12.1-14.9-19.3C162.9,207.5,164.3,206.8,165.7,206.1z"/>
</g>
<g id="_x23_fcdd7fff">
	<path class="st142" d="M127,207c3.6-1,7.4-0.5,11.1,0c-1.7,0.5-3.4,1.1-5.1,1.7c2.5,2.3,5.2,4.1,8.2,5.6c-1.7,0.3-3.5,0.6-5.2,0.8
		c-3.9,0.3-7.9,0.5-11.8-0.4c-3.5-0.8-6-3.6-8.6-5.9C119.4,208.3,123.2,207.8,127,207z"/>
</g>
<g id="_x23_f0ce64ff">
	<path class="st143" d="M181.6,209.3c1.2-0.5,2.5-1.2,3.9-0.7c1.2,1.9,1,4.3-1.1,5.5C183.5,212.4,182.6,210.9,181.6,209.3z"/>
</g>
<g id="_x23_583a0aff">
	<path class="st144" d="M178.2,211.1c1.1-0.6,2.2-1.2,3.4-1.8c0.9,1.6,1.9,3.2,2.8,4.8c-0.8,0.6-1.7,1.1-2.5,1.6
		c-0.9-0.6-1.9-1.1-2.8-1.6C178.8,213.1,178.5,212.1,178.2,211.1z"/>
</g>
<g id="_x23_f4c253ff">
	<path class="st145" d="M74.3,214c1.4,0,3.2-0.9,4.1,0.7c1.5,1.3-0.2,2.9-0.8,4.2C76.5,217.2,75.4,215.6,74.3,214z"/>
</g>
<g id="_x23_5f4004ff">
	<path class="st146" d="M71.4,220.7c0-2.4,0.3-4.8,2.3-6.3l0.6-0.4c1.1,1.6,2.2,3.2,3.2,4.9l-0.7,0.3
		C75.1,219.8,73.3,220.2,71.4,220.7z"/>
</g>
<g id="_x23_946c1fff">
	<path class="st147" d="M94,230.7c0.3-4,1.5-7.8,3.4-11.4c1.2,1.9,2.4,3.8,3.7,5.7c0.4-1.3,0.9-2.6,1.4-4c2.2,0.8,4.5,1.4,6.1,3.2
		c-0.9,3.3-1.7,6.8-4.3,9.1c-1.5-0.5-2.9-0.9-4.4-1.4c-0.5-2.4-1-4.8-1.6-7.2c-0.6,1.9-1.2,3.9-1.8,5.8
		C95.8,230.6,94.6,230.7,94,230.7z"/>
</g>
<g id="_x23_876833ff">
	<path class="st148" d="M150.8,219.6c2.7,3,5.3,8.8,1,11.6c-0.8-1.4-1.7-2.8-2.5-4.2c-0.6,1.9-1.3,3.8-1.9,5.7
		c-0.9-0.3-1.9-0.6-2.8-0.8c-0.4-3.2-0.8-6.4-1.3-9.6c2.7-0.7,5.5-0.6,7.6,1.2C150.8,222.1,150.8,220.9,150.8,219.6z"/>
</g>
<g id="_x23_845b13ff">
	<path class="st149" d="M108.6,225.2c1.8-0.9,3.6-1.8,5.4-2.6c1.3,0.8,2.5,1.7,3.8,2.6c0.1,2.1,0.2,4.1,0.4,6.2
		c-2.6,1.1-6.1,4-8.5,1.1C108.9,230.1,108.8,227.6,108.6,225.2 M111.3,226.3c-0.2,1.2-0.3,2.3-0.3,3.5c1.1,0.7,2.2,1.2,3.3,1.8
		c0.1-2.1,0.1-4.2,0.1-6.2C113.6,225.5,112.1,226,111.3,226.3z"/>
</g>
<g id="_x23_8e6a26ff">
	<path class="st150" d="M132.6,224.6c1.4-1.1,3-1.8,4.6-2.6c1.5,0.8,3,1.6,4.3,2.7c0.9,2.1,0.8,4.4,1,6.6c-2.4,1.1-5,3.1-7.8,2.1
		c-1.4-1.3-2.5-2.9-3.7-4.4C131.5,227.5,131.9,226,132.6,224.6 M135.3,227.9c-0.1,2.5,2.6,3.1,4.5,2.2c-0.4-1.7-0.9-3.4-1.3-5.1
		C137.1,225.5,134.6,225.8,135.3,227.9z"/>
</g>
<g id="_x23_775316ff">
	<path class="st151" d="M119.4,227.7c0.9-1.9,1.8-4.9,4.5-4.1c4,0.3,3.7,4.8,4,7.7c-1,1-1.9,2-2.8,3c-1.5-0.3-3-0.6-4.5-0.9
		c-0.6-0.8-1.2-1.5-1.8-2.3c2.2-0.1,4.4-0.1,6.6-0.1c-0.3-1.8-0.7-3.5-1-5.2C122.7,226.4,121.1,227.1,119.4,227.7z"/>
</g>
<g id="_x23_f5d58cff">
	<path class="st152" d="M135.3,227.9c-0.7-2.1,1.8-2.4,3.2-2.8c0.4,1.7,0.9,3.4,1.3,5.1C137.9,231,135.2,230.4,135.3,227.9z"/>
</g>
<g id="_x23_e8bf5eff">
	<path class="st153" d="M111.3,226.3c0.8-0.2,2.3-0.8,3.1-1c0,2.1,0,4.2-0.1,6.2c-1.2-0.5-2.3-1.1-3.3-1.8
		C111,228.6,111.1,227.4,111.3,226.3z"/>
</g>
<g id="_x23_d3a33cff">
	<path class="st154" d="M139.5,240.5c1.3,2.2,2.5,4.5,3.6,6.8c0.3-2.2,0.7-4.4,1.1-6.5c1.3,2.3,2.6,4.7,4.1,6.9
		c-5.6,1-11.2,1.9-16.8,2.2h-13.7l-1-0.1c0.4-1.3,0.9-2.6,1.3-3.9c6.4,0.1,12.9,0,19.3-0.2c0.3,0.8,0.6,1.7,1,2.5
		C138.7,245.8,139.1,243.1,139.5,240.5z"/>
</g>
</svg>
