<?xml version="1.0" encoding="UTF-8" ?>
<!DOCTYPE svg PUBLIC "-//W3C//DTD SVG 1.1//EN" "http://www.w3.org/Graphics/SVG/1.1/DTD/svg11.dtd">
<svg width="250pt" height="250pt" viewBox="0 0 250 250" version="1.1" xmlns="http://www.w3.org/2000/svg">
<g id="#ffffffff">
<path fill="#ffffff" opacity="1.00" d=" M 0.00 0.00 L 250.00 0.00 L 250.00 250.00 L 0.00 250.00 L 0.00 0.00 M 105.90 19.19 C 77.58 24.22 51.43 41.16 35.74 65.32 L 35.45 65.38 C 29.26 75.23 24.04 85.79 21.15 97.11 C 13.95 123.18 17.42 151.77 30.04 175.64 C 45.90 205.86 77.09 227.32 110.95 231.47 C 136.23 234.97 162.66 228.89 183.97 214.87 C 207.54 199.52 224.63 174.51 230.33 146.95 C 235.45 122.46 231.61 96.40 219.91 74.30 L 219.79 74.33 C 215.93 66.70 210.75 59.84 205.23 53.35 C 180.88 25.92 141.99 12.37 105.90 19.19 Z" />
<path fill="#ffffff" opacity="1.00" d=" M 41.40 65.77 C 60.46 38.39 93.64 21.60 127.01 22.55 C 153.66 23.08 179.83 34.55 198.31 53.76 C 204.63 60.35 209.99 67.81 214.39 75.80 C 226.10 97.25 229.67 122.96 224.36 146.80 C 222.02 156.31 218.59 165.55 213.94 174.18 C 211.77 171.64 209.64 168.83 206.50 167.45 C 200.50 164.68 192.71 166.43 188.76 171.80 C 186.16 174.95 185.84 179.15 185.44 183.04 C 181.57 181.83 177.50 180.98 173.47 181.83 C 173.45 176.96 173.38 172.09 173.42 167.22 C 173.43 150.81 173.36 134.40 173.47 117.99 C 173.25 115.72 173.76 112.79 171.78 111.17 C 166.45 108.76 158.36 113.38 154.81 107.30 C 150.86 99.51 144.42 92.82 136.15 89.71 C 123.86 84.70 108.82 88.04 99.79 97.75 C 96.11 101.43 94.29 107.01 89.31 109.29 C 85.25 111.59 80.46 109.92 76.14 110.93 C 73.79 112.48 74.30 115.61 74.14 118.03 C 74.40 136.19 73.99 154.36 74.31 172.52 C 74.27 175.53 74.25 178.55 74.21 181.56 C 70.61 181.36 67.05 182.08 63.60 183.02 C 63.22 179.36 62.95 175.44 60.65 172.39 C 56.82 166.63 48.63 164.38 42.40 167.40 C 39.46 168.77 37.56 171.50 35.56 173.92 C 35.30 173.43 34.78 172.46 34.52 171.98 C 22.17 148.88 19.54 120.92 26.94 95.83 C 30.17 85.15 34.92 74.88 41.40 65.77 M 164.56 55.26 C 163.83 56.72 163.08 58.17 162.32 59.62 C 163.74 60.33 165.15 61.05 166.55 61.78 C 167.30 60.39 168.05 59.00 168.82 57.62 C 167.39 56.84 165.97 56.06 164.56 55.26 M 78.96 62.05 C 78.82 64.94 79.09 68.03 77.68 70.68 C 76.36 73.48 73.77 75.33 71.37 77.15 C 77.42 76.39 83.12 79.63 86.03 84.88 C 85.39 78.82 88.42 72.70 94.14 70.28 C 91.18 70.16 88.04 70.15 85.37 68.66 C 82.53 67.27 80.75 64.54 78.96 62.05 M 45.02 122.07 C 44.38 123.47 43.74 124.87 43.09 126.26 C 44.43 126.99 45.77 127.71 47.11 128.45 C 47.76 127.05 48.42 125.66 49.08 124.26 C 47.73 123.53 46.37 122.80 45.02 122.07 M 195.98 126.04 C 196.36 130.85 193.95 135.28 189.81 137.66 C 194.72 137.32 199.15 139.91 201.57 144.12 C 201.05 139.31 203.46 134.75 207.64 132.38 C 202.83 132.46 198.56 130.06 195.98 126.04 Z" />
<path fill="#ffffff" opacity="1.00" d=" M 112.86 97.92 C 114.36 95.72 117.46 96.48 119.72 95.99 C 119.75 118.58 119.75 141.18 119.72 163.78 C 117.28 163.78 114.84 163.77 112.39 163.77 C 112.34 143.51 112.41 123.26 112.36 103.00 C 112.43 101.31 112.29 99.54 112.86 97.92 Z" />
<path fill="#ffffff" opacity="1.00" d=" M 127.99 96.00 C 130.13 96.41 132.76 95.91 134.49 97.51 C 135.60 99.45 135.24 101.81 135.37 103.95 C 135.22 123.91 135.52 143.87 135.21 163.82 C 132.84 163.81 130.48 163.81 128.11 163.81 C 127.86 160.20 127.78 156.59 127.83 152.98 C 127.95 133.99 127.65 114.99 127.99 96.00 Z" />
<path fill="#ffffff" opacity="1.00" d=" M 143.36 103.85 C 147.62 108.12 150.38 113.91 150.39 120.00 C 150.61 133.00 150.43 146.01 150.48 159.01 C 150.23 160.48 150.93 162.41 149.88 163.60 C 147.69 163.84 145.49 163.73 143.30 163.71 C 143.30 143.76 143.17 123.80 143.36 103.85 Z" />
<path fill="#ffffff" opacity="1.00" d=" M 97.18 121.97 C 97.02 115.33 99.56 108.62 104.24 103.88 C 104.53 123.85 104.39 143.84 104.31 163.81 C 101.94 163.81 99.56 163.80 97.19 163.80 C 97.17 149.86 97.19 135.92 97.18 121.97 Z" />
<path fill="#ffffff" opacity="1.00" d=" M 81.80 118.36 C 84.23 118.36 86.67 118.37 89.11 118.38 C 89.40 137.06 89.13 155.75 89.19 174.44 C 89.35 182.08 89.06 189.73 89.17 197.37 C 88.10 197.71 87.04 198.06 85.99 198.42 C 85.80 193.82 84.81 189.11 81.73 185.52 C 81.64 181.14 81.66 176.75 81.61 172.36 C 81.90 154.36 81.51 136.36 81.80 118.36 Z" />
<path fill="#ffffff" opacity="1.00" d=" M 158.39 118.38 C 160.82 118.38 163.26 118.38 165.69 118.38 C 165.75 134.82 165.66 151.26 165.72 167.70 C 165.70 174.23 165.88 180.76 165.66 187.28 C 163.82 190.82 163.02 194.75 162.99 198.72 C 161.45 198.10 159.93 197.45 158.37 196.89 C 158.51 187.42 158.31 177.94 158.38 168.47 C 158.41 151.77 158.34 135.07 158.39 118.38 Z" />
<path fill="#ffffff" opacity="1.00" d=" M 97.30 172.26 C 99.64 172.28 101.97 172.31 104.31 172.33 C 104.33 172.92 104.36 174.11 104.37 174.70 C 104.50 183.55 104.29 192.40 104.35 201.26 C 102.36 199.23 99.86 197.80 97.24 196.76 C 97.27 190.07 97.20 183.39 97.24 176.70 C 97.26 175.22 97.28 173.74 97.30 172.26 Z" />
<path fill="#ffffff" opacity="1.00" d=" M 112.77 172.40 C 115.06 172.25 117.36 172.17 119.66 172.12 C 119.67 172.71 119.68 173.90 119.69 174.50 C 119.79 180.65 119.68 186.81 119.72 192.97 C 117.27 193.87 114.92 195.05 112.71 196.44 C 112.79 188.43 112.39 180.41 112.77 172.40 Z" />
<path fill="#ffffff" opacity="1.00" d=" M 128.21 172.30 C 130.38 172.19 132.56 172.10 134.71 171.80 C 134.91 179.84 134.70 187.88 134.81 195.92 C 132.67 194.70 130.43 193.68 128.13 192.83 C 128.18 187.93 128.14 183.03 127.90 178.13 C 127.96 176.19 128.09 174.25 128.21 172.30 Z" />
<path fill="#ffffff" opacity="1.00" d=" M 143.27 171.79 C 145.69 171.82 148.11 171.85 150.54 171.87 C 150.49 180.18 150.62 188.50 150.39 196.81 C 147.78 197.97 145.30 199.48 143.35 201.59 C 143.24 191.66 143.30 181.73 143.27 171.79 Z" />
<path fill="#ffffff" opacity="1.00" d=" M 45.35 173.41 C 48.42 172.00 52.49 172.72 54.56 175.48 C 56.52 177.88 56.42 181.16 56.98 184.05 C 57.32 186.67 59.26 189.35 62.02 189.69 C 65.84 190.37 69.30 187.48 73.14 188.28 C 76.86 188.63 79.03 192.52 79.12 195.95 C 79.30 199.01 79.83 202.61 82.78 204.26 C 87.59 206.41 92.38 201.58 97.14 203.84 C 100.58 205.83 102.55 210.45 107.05 210.44 C 110.86 210.31 112.70 206.44 114.80 203.84 C 118.24 198.81 125.83 197.73 130.74 201.17 C 134.45 203.56 135.55 208.78 139.90 210.32 C 143.90 211.18 146.45 207.40 149.05 205.10 C 151.75 202.19 156.18 202.92 159.48 204.28 C 162.19 205.52 166.04 205.55 167.94 202.91 C 169.88 200.53 169.42 197.31 169.87 194.47 C 170.37 190.65 174.20 187.68 178.04 188.12 C 181.67 188.53 185.40 190.83 189.00 188.95 C 192.00 186.98 192.30 183.16 192.49 179.91 C 192.62 175.32 197.64 171.79 202.03 172.93 C 206.39 173.67 209.26 178.39 208.54 182.60 C 196.74 200.26 178.90 213.69 158.94 220.82 C 135.48 229.24 108.90 228.61 85.90 218.99 C 68.33 211.78 52.94 199.47 41.91 184.03 C 38.55 180.67 41.88 175.26 45.35 173.41 Z" />
</g>
<g id="#ae57f2ff">
<path fill="#ae57f2" opacity="1.00" d=" M 105.90 19.19 C 141.99 12.37 180.88 25.92 205.23 53.35 C 202.92 53.48 200.62 53.61 198.31 53.76 C 179.83 34.55 153.66 23.08 127.01 22.55 C 93.64 21.60 60.46 38.39 41.40 65.77 C 41.08 65.44 40.44 64.77 40.13 64.43 C 38.66 64.73 37.20 65.02 35.74 65.32 C 51.43 41.16 77.58 24.22 105.90 19.19 Z" />
</g>
<g id="#677eecff">
<path fill="#677eec" opacity="1.00" d=" M 198.31 53.76 C 200.62 53.61 202.92 53.48 205.23 53.35 C 210.75 59.84 215.93 66.70 219.79 74.33 C 217.99 74.82 216.19 75.30 214.39 75.80 C 209.99 67.81 204.63 60.35 198.31 53.76 Z" />
<path fill="#677eec" opacity="1.00" d=" M 40.13 64.43 C 40.44 64.77 41.08 65.44 41.40 65.77 C 34.92 74.88 30.17 85.15 26.94 95.83 C 24.88 95.57 22.80 95.75 21.15 97.11 C 24.04 85.79 29.26 75.23 35.45 65.38 L 35.74 65.32 C 37.20 65.02 38.66 64.73 40.13 64.43 Z" />
</g>
<g id="#7eebb1ff">
<path fill="#7eebb1" opacity="1.00" d=" M 164.56 55.26 C 165.97 56.06 167.39 56.84 168.82 57.62 C 168.05 59.00 167.30 60.39 166.55 61.78 C 165.15 61.05 163.74 60.33 162.32 59.62 C 163.08 58.17 163.83 56.72 164.56 55.26 Z" />
<path fill="#7eebb1" opacity="1.00" d=" M 78.96 62.05 C 80.75 64.54 82.53 67.27 85.37 68.66 C 88.04 70.15 91.18 70.16 94.14 70.28 C 88.42 72.70 85.39 78.82 86.03 84.88 C 83.12 79.63 77.42 76.39 71.37 77.15 C 73.77 75.33 76.36 73.48 77.68 70.68 C 79.09 68.03 78.82 64.94 78.96 62.05 Z" />
</g>
<g id="#2fc3e6ff">
<path fill="#2fc3e6" opacity="1.00" d=" M 214.39 75.80 C 216.19 75.30 217.99 74.82 219.79 74.33 L 219.91 74.30 C 231.61 96.40 235.45 122.46 230.33 146.95 C 229.07 148.38 227.48 149.43 225.87 150.42 C 225.49 149.51 224.74 147.71 224.36 146.80 C 229.67 122.96 226.10 97.25 214.39 75.80 Z" />
<path fill="#2fc3e6" opacity="1.00" d=" M 21.15 97.11 C 22.80 95.75 24.88 95.57 26.94 95.83 C 19.54 120.92 22.17 148.88 34.52 171.98 C 34.21 172.58 33.58 173.77 33.26 174.37 C 32.19 174.79 31.11 175.21 30.04 175.64 C 17.42 151.77 13.95 123.18 21.15 97.11 Z" />
</g>
<g id="#fff282ff">
<path fill="#fff282" opacity="1.00" d=" M 99.79 97.75 C 108.82 88.04 123.86 84.70 136.15 89.71 C 144.42 92.82 150.86 99.51 154.81 107.30 C 158.36 113.38 166.45 108.76 171.78 111.17 C 173.76 112.79 173.25 115.72 173.47 117.99 C 173.36 134.40 173.43 150.81 173.42 167.22 C 170.85 167.38 168.28 167.54 165.72 167.70 C 165.66 151.26 165.75 134.82 165.69 118.38 C 163.26 118.38 160.82 118.38 158.39 118.38 C 158.34 135.07 158.41 151.77 158.38 168.47 C 150.50 169.70 142.25 168.78 134.71 171.80 C 132.56 172.10 130.38 172.19 128.21 172.30 C 128.09 174.25 127.96 176.19 127.90 178.13 C 127.48 176.39 126.98 174.68 126.50 172.96 C 124.23 173.46 121.96 173.98 119.69 174.50 C 119.68 173.90 119.67 172.71 119.66 172.12 C 117.36 172.17 115.06 172.25 112.77 172.40 C 110.75 175.03 107.28 174.44 104.37 174.70 C 104.36 174.11 104.33 172.92 104.31 172.33 C 101.97 172.31 99.64 172.28 97.30 172.26 C 97.28 173.74 97.26 175.22 97.24 176.70 C 94.55 175.98 91.86 175.24 89.19 174.44 C 89.13 155.75 89.40 137.06 89.11 118.38 C 86.67 118.37 84.23 118.36 81.80 118.36 C 81.51 136.36 81.90 154.36 81.61 172.36 C 81.13 171.14 80.61 169.93 80.10 168.73 C 78.71 168.72 77.32 168.71 75.94 168.71 C 75.38 169.97 74.82 171.24 74.31 172.52 C 73.99 154.36 74.40 136.19 74.14 118.03 C 74.30 115.61 73.79 112.48 76.14 110.93 C 80.46 109.92 85.25 111.59 89.31 109.29 C 94.29 107.01 96.11 101.43 99.79 97.75 M 112.86 97.92 C 112.29 99.54 112.43 101.31 112.36 103.00 C 112.41 123.26 112.34 143.51 112.39 163.77 C 114.84 163.77 117.28 163.78 119.72 163.78 C 119.75 141.18 119.75 118.58 119.72 95.99 C 117.46 96.48 114.36 95.72 112.86 97.92 M 127.99 96.00 C 127.65 114.99 127.95 133.99 127.83 152.98 C 127.78 156.59 127.86 160.20 128.11 163.81 C 130.48 163.81 132.84 163.81 135.21 163.82 C 135.52 143.87 135.22 123.91 135.37 103.95 C 135.24 101.81 135.60 99.45 134.49 97.51 C 132.76 95.91 130.13 96.41 127.99 96.00 M 143.36 103.85 C 143.17 123.80 143.30 143.76 143.30 163.71 C 145.49 163.73 147.69 163.84 149.88 163.60 C 150.93 162.41 150.23 160.48 150.48 159.01 C 150.43 146.01 150.61 133.00 150.39 120.00 C 150.38 113.91 147.62 108.12 143.36 103.85 M 97.18 121.97 C 97.19 135.92 97.17 149.86 97.19 163.80 C 99.56 163.80 101.94 163.81 104.31 163.81 C 104.39 143.84 104.53 123.85 104.24 103.88 C 99.56 108.62 97.02 115.33 97.18 121.97 Z" />
</g>
<g id="#95f8a3ff">
<path fill="#95f8a3" opacity="1.00" d=" M 45.02 122.07 C 46.37 122.80 47.73 123.53 49.08 124.26 C 48.42 125.66 47.76 127.05 47.11 128.45 C 45.77 127.71 44.43 126.99 43.09 126.26 C 43.74 124.87 44.38 123.47 45.02 122.07 Z" />
<path fill="#95f8a3" opacity="1.00" d=" M 195.98 126.04 C 198.56 130.06 202.83 132.46 207.64 132.38 C 203.46 134.75 201.05 139.31 201.57 144.12 C 199.15 139.91 194.72 137.32 189.81 137.66 C 193.95 135.28 196.36 130.85 195.98 126.04 Z" />
</g>
<g id="#52e8e8ff">
<path fill="#52e8e8" opacity="1.00" d=" M 213.94 174.18 C 218.59 165.55 222.02 156.31 224.36 146.80 C 224.74 147.71 225.49 149.51 225.87 150.42 C 227.48 149.43 229.07 148.38 230.33 146.95 C 224.63 174.51 207.54 199.52 183.97 214.87 C 162.66 228.89 136.23 234.97 110.95 231.47 C 77.09 227.32 45.90 205.86 30.04 175.64 C 31.11 175.21 32.19 174.79 33.26 174.37 C 33.58 173.77 34.21 172.58 34.52 171.98 C 34.78 172.46 35.30 173.43 35.56 173.92 C 37.56 171.50 39.46 168.77 42.40 167.40 C 48.63 164.38 56.82 166.63 60.65 172.39 C 62.95 175.44 63.22 179.36 63.60 183.02 C 67.05 182.08 70.61 181.36 74.21 181.56 C 76.95 182.38 79.57 183.63 81.73 185.52 C 84.81 189.11 85.80 193.82 85.99 198.42 C 87.04 198.06 88.10 197.71 89.17 197.37 C 91.79 196.62 94.54 196.52 97.24 196.76 C 99.86 197.80 102.36 199.23 104.35 201.26 C 105.18 202.10 106.00 202.96 106.82 203.82 C 108.63 201.25 110.46 198.66 112.71 196.44 C 114.92 195.05 117.27 193.87 119.72 192.97 C 122.51 192.62 125.33 192.57 128.13 192.83 C 130.43 193.68 132.67 194.70 134.81 195.92 C 137.42 198.17 139.46 200.97 141.46 203.75 C 141.94 203.21 142.88 202.13 143.35 201.59 C 145.30 199.48 147.78 197.97 150.39 196.81 C 153.04 196.48 155.73 196.46 158.37 196.89 C 159.93 197.45 161.45 198.10 162.99 198.72 C 163.02 194.75 163.82 190.82 165.66 187.28 C 167.91 185.01 170.55 183.14 173.47 181.83 C 177.50 180.98 181.57 181.83 185.44 183.04 C 185.84 179.15 186.16 174.95 188.76 171.80 C 192.71 166.43 200.50 164.68 206.50 167.45 C 209.64 168.83 211.77 171.64 213.94 174.18 M 45.35 173.41 C 41.88 175.26 38.55 180.67 41.91 184.03 C 52.94 199.47 68.33 211.78 85.90 218.99 C 108.90 228.61 135.48 229.24 158.94 220.82 C 178.90 213.69 196.74 200.26 208.54 182.60 C 209.26 178.39 206.39 173.67 202.03 172.93 C 197.64 171.79 192.62 175.32 192.49 179.91 C 192.30 183.16 192.00 186.98 189.00 188.95 C 185.40 190.83 181.67 188.53 178.04 188.12 C 174.20 187.68 170.37 190.65 169.87 194.47 C 169.42 197.31 169.88 200.53 167.94 202.91 C 166.04 205.55 162.19 205.52 159.48 204.28 C 156.18 202.92 151.75 202.19 149.05 205.10 C 146.45 207.40 143.90 211.18 139.90 210.32 C 135.55 208.78 134.45 203.56 130.74 201.17 C 125.83 197.73 118.24 198.81 114.80 203.84 C 112.70 206.44 110.86 210.31 107.05 210.44 C 102.55 210.45 100.58 205.83 97.14 203.84 C 92.38 201.58 87.59 206.41 82.78 204.26 C 79.83 202.61 79.30 199.01 79.12 195.95 C 79.03 192.52 76.86 188.63 73.14 188.28 C 69.30 187.48 65.84 190.37 62.02 189.69 C 59.26 189.35 57.32 186.67 56.98 184.05 C 56.42 181.16 56.52 177.88 54.56 175.48 C 52.49 172.72 48.42 172.00 45.35 173.41 Z" />
</g>
<g id="#f7bc61ff">
<path fill="#f7bc61" opacity="1.00" d=" M 165.72 167.70 C 168.28 167.54 170.85 167.38 173.42 167.22 C 173.38 172.09 173.45 176.96 173.47 181.83 C 170.55 183.14 167.91 185.01 165.66 187.28 C 165.88 180.76 165.70 174.23 165.72 167.70 Z" />
<path fill="#f7bc61" opacity="1.00" d=" M 75.94 168.71 C 77.32 168.71 78.71 168.72 80.10 168.73 C 80.61 169.93 81.13 171.14 81.61 172.36 C 81.66 176.75 81.64 181.14 81.73 185.52 C 79.57 183.63 76.95 182.38 74.21 181.56 C 74.25 178.55 74.27 175.53 74.31 172.52 C 74.82 171.24 75.38 169.97 75.94 168.71 Z" />
<path fill="#f7bc61" opacity="1.00" d=" M 134.71 171.80 C 142.25 168.78 150.50 169.70 158.38 168.47 C 158.31 177.94 158.51 187.42 158.37 196.89 C 155.73 196.46 153.04 196.48 150.39 196.81 C 150.62 188.50 150.49 180.18 150.54 171.87 C 148.11 171.85 145.69 171.82 143.27 171.79 C 143.30 181.73 143.24 191.66 143.35 201.59 C 142.88 202.13 141.94 203.21 141.46 203.75 C 139.46 200.97 137.42 198.17 134.81 195.92 C 134.70 187.88 134.91 179.84 134.71 171.80 Z" />
<path fill="#f7bc61" opacity="1.00" d=" M 104.37 174.70 C 107.28 174.44 110.75 175.03 112.77 172.40 C 112.39 180.41 112.79 188.43 112.71 196.44 C 110.46 198.66 108.63 201.25 106.82 203.82 C 106.00 202.96 105.18 202.10 104.35 201.26 C 104.29 192.40 104.50 183.55 104.37 174.70 Z" />
<path fill="#f7bc61" opacity="1.00" d=" M 89.19 174.44 C 91.86 175.24 94.55 175.98 97.24 176.70 C 97.20 183.39 97.27 190.07 97.24 196.76 C 94.54 196.52 91.79 196.62 89.17 197.37 C 89.06 189.73 89.35 182.08 89.19 174.44 Z" />
<path fill="#f7bc61" opacity="1.00" d=" M 119.69 174.50 C 121.96 173.98 124.23 173.46 126.50 172.96 C 126.98 174.68 127.48 176.39 127.90 178.13 C 128.14 183.03 128.18 187.93 128.13 192.83 C 125.33 192.57 122.51 192.62 119.72 192.97 C 119.68 186.81 119.79 180.65 119.69 174.50 Z" />
</g>
</svg>
