<?xml version="1.0" encoding="UTF-8" ?>
<!DOCTYPE svg PUBLIC "-//W3C//DTD SVG 1.1//EN" "http://www.w3.org/Graphics/SVG/1.1/DTD/svg11.dtd">
<svg width="250pt" height="250pt" viewBox="0 0 250 250" version="1.1" xmlns="http://www.w3.org/2000/svg">
<g id="#ffffffff">
<path fill="#ffffff" opacity="1.00" d=" M 0.00 0.00 L 250.00 0.00 L 250.00 250.00 L 0.00 250.00 L 0.00 0.00 M 122.63 19.72 C 93.03 37.06 63.51 54.53 33.88 71.81 C 32.54 72.29 31.99 73.54 32.18 74.89 C 32.18 109.79 32.18 144.68 32.18 179.58 C 33.19 180.26 34.19 180.96 35.22 181.60 C 64.87 198.66 94.71 215.40 124.20 232.69 C 127.66 233.22 130.40 230.90 133.19 229.28 C 160.89 213.29 188.53 197.20 216.24 181.23 C 217.38 180.35 219.50 179.87 219.24 178.04 C 219.32 143.67 219.22 109.31 219.24 74.94 C 219.16 73.54 219.45 71.80 218.04 70.94 C 187.73 53.66 157.66 35.92 127.34 18.66 C 125.73 18.82 124.00 18.72 122.63 19.72 Z" />
<path fill="#ffffff" opacity="1.00" d=" M 39.16 73.90 C 67.99 56.62 97.18 39.94 126.01 22.65 C 154.83 39.70 184.00 56.14 212.94 72.99 C 199.25 80.99 185.41 88.77 171.83 96.96 C 156.38 88.56 141.35 79.15 126.00 70.45 C 110.53 79.18 95.30 88.36 79.88 97.14 C 66.31 89.40 52.72 81.67 39.16 73.90 M 123.49 36.54 C 121.13 39.05 123.55 43.68 126.99 42.85 C 128.03 42.03 128.92 41.04 129.88 40.13 C 130.05 36.70 126.33 34.64 123.49 36.54 M 122.88 55.40 C 122.00 58.21 123.28 60.65 126.09 61.49 C 127.45 60.51 129.40 59.84 129.68 57.93 C 129.92 55.74 127.71 54.74 126.19 53.76 C 125.09 54.32 123.98 54.86 122.88 55.40 Z" />
<path fill="#ffffff" opacity="1.00" d=" M 173.54 100.78 C 187.39 92.86 201.23 84.92 214.92 76.73 C 214.83 110.11 214.92 143.49 214.93 176.87 C 186.05 193.76 157.06 210.45 128.10 227.18 C 127.98 211.32 128.07 195.46 128.06 179.60 C 139.55 172.91 151.10 166.32 162.59 159.63 C 166.16 157.53 169.97 155.77 173.25 153.20 C 173.87 135.76 173.42 118.24 173.54 100.78 M 183.35 156.17 C 181.73 158.29 181.86 160.80 183.46 162.89 C 186.61 164.17 190.63 160.68 188.32 157.63 C 187.57 155.41 185.10 156.22 183.35 156.17 M 197.16 169.11 C 198.59 170.40 200.28 173.08 202.47 171.46 C 205.21 170.36 205.25 165.21 201.96 164.95 C 199.22 164.13 197.22 166.57 197.16 169.11 Z" />
<path fill="#ffffff" opacity="1.00" d=" M 36.66 77.54 C 50.53 85.32 64.25 93.35 78.16 101.06 C 78.30 118.31 77.99 135.56 78.30 152.79 C 82.44 156.17 87.42 158.31 91.96 161.10 C 102.50 167.36 113.28 173.21 123.75 179.60 C 123.74 195.45 123.73 211.30 123.67 227.15 C 94.64 210.65 65.70 193.97 36.68 177.46 C 36.69 144.16 36.73 110.85 36.66 77.54 M 65.60 156.45 C 64.13 157.51 62.35 159.34 63.65 161.25 C 64.67 164.07 69.75 164.02 70.16 160.89 C 71.26 158.24 68.18 155.28 65.60 156.45 M 48.19 167.07 C 47.49 168.80 48.56 170.39 49.20 171.93 C 50.55 171.99 51.90 172.04 53.26 172.08 C 53.92 170.60 55.50 169.13 54.59 167.41 C 53.96 164.42 49.18 164.32 48.19 167.07 Z" />
</g>
<g id="#000000ff">
<path fill="#000000" opacity="1.00" d=" M 122.63 19.72 C 124.00 18.72 125.73 18.82 127.34 18.66 C 157.66 35.92 187.73 53.66 218.04 70.94 C 219.45 71.80 219.16 73.54 219.24 74.94 C 219.22 109.31 219.32 143.67 219.24 178.04 C 219.50 179.87 217.38 180.35 216.24 181.23 C 188.53 197.20 160.89 213.29 133.19 229.28 C 130.40 230.90 127.66 233.22 124.20 232.69 C 94.71 215.40 64.87 198.66 35.22 181.60 C 34.19 180.96 33.19 180.26 32.18 179.58 C 32.18 144.68 32.18 109.79 32.18 74.89 C 31.99 73.54 32.54 72.29 33.88 71.81 C 63.51 54.53 93.03 37.06 122.63 19.72 M 39.16 73.90 C 52.72 81.67 66.31 89.40 79.88 97.14 C 95.30 88.36 110.53 79.18 126.00 70.45 C 141.35 79.15 156.38 88.56 171.83 96.96 C 185.41 88.77 199.25 80.99 212.94 72.99 C 184.00 56.14 154.83 39.70 126.01 22.65 C 97.18 39.94 67.99 56.62 39.16 73.90 M 84.32 99.69 C 98.07 107.85 112.05 115.66 126.02 123.45 C 137.01 117.41 147.75 110.90 158.63 104.65 C 161.57 103.13 164.45 101.45 166.99 99.31 C 153.15 91.71 139.75 83.34 126.00 75.58 C 112.01 83.43 98.25 91.72 84.32 99.69 M 173.54 100.78 C 173.42 118.24 173.87 135.76 173.25 153.20 C 169.97 155.77 166.16 157.53 162.59 159.63 C 151.10 166.32 139.55 172.91 128.06 179.60 C 128.07 195.46 127.98 211.32 128.10 227.18 C 157.06 210.45 186.05 193.76 214.93 176.87 C 214.92 143.49 214.83 110.11 214.92 76.73 C 201.23 84.92 187.39 92.86 173.54 100.78 M 36.66 77.54 C 36.73 110.85 36.69 144.16 36.68 177.46 C 65.70 193.97 94.64 210.65 123.67 227.15 C 123.73 211.30 123.74 195.45 123.75 179.60 C 113.28 173.21 102.50 167.36 91.96 161.10 C 87.42 158.31 82.44 156.17 78.30 152.79 C 77.99 135.56 78.30 118.31 78.16 101.06 C 64.25 93.35 50.53 85.32 36.66 77.54 M 82.44 103.64 C 82.39 119.26 82.45 134.88 82.41 150.51 C 96.31 158.31 109.96 166.57 123.92 174.29 C 123.83 158.52 123.90 142.76 123.92 126.99 C 110.03 119.32 96.42 111.14 82.44 103.64 M 128.03 126.87 C 128.13 142.71 127.87 158.56 128.04 174.40 C 142.08 166.64 155.72 158.17 169.84 150.56 C 169.78 134.75 169.89 118.94 169.78 103.13 C 155.59 110.54 142.16 119.35 128.03 126.87 Z" />
<path fill="#000000" opacity="1.00" d=" M 123.49 36.54 C 126.33 34.64 130.05 36.70 129.88 40.13 C 128.92 41.04 128.03 42.03 126.99 42.85 C 123.55 43.68 121.13 39.05 123.49 36.54 Z" />
<path fill="#000000" opacity="1.00" d=" M 122.88 55.40 C 123.98 54.86 125.09 54.32 126.19 53.76 C 127.71 54.74 129.92 55.74 129.68 57.93 C 129.40 59.84 127.45 60.51 126.09 61.49 C 123.28 60.65 122.00 58.21 122.88 55.40 Z" />
<path fill="#000000" opacity="1.00" d=" M 65.60 156.45 C 68.18 155.28 71.26 158.24 70.16 160.89 C 69.75 164.02 64.67 164.07 63.65 161.25 C 62.35 159.34 64.13 157.51 65.60 156.45 Z" />
<path fill="#000000" opacity="1.00" d=" M 183.35 156.17 C 185.10 156.22 187.57 155.41 188.32 157.63 C 190.63 160.68 186.61 164.17 183.46 162.89 C 181.86 160.80 181.73 158.29 183.35 156.17 Z" />
<path fill="#000000" opacity="1.00" d=" M 48.19 167.07 C 49.18 164.32 53.96 164.42 54.59 167.41 C 55.50 169.13 53.92 170.60 53.26 172.08 C 51.90 172.04 50.55 171.99 49.20 171.93 C 48.56 170.39 47.49 168.80 48.19 167.07 Z" />
<path fill="#000000" opacity="1.00" d=" M 197.16 169.11 C 197.22 166.57 199.22 164.13 201.96 164.95 C 205.25 165.21 205.21 170.36 202.47 171.46 C 200.28 173.08 198.59 170.40 197.16 169.11 Z" />
</g>
<g id="#e82e9dff">
<path fill="#e82e9d" opacity="1.00" d=" M 84.32 99.69 C 98.25 91.72 112.01 83.43 126.00 75.58 C 139.75 83.34 153.15 91.71 166.99 99.31 C 164.45 101.45 161.57 103.13 158.63 104.65 C 147.75 110.90 137.01 117.41 126.02 123.45 C 112.05 115.66 98.07 107.85 84.32 99.69 Z" />
</g>
<g id="#065198ff">
<path fill="#065198" opacity="1.00" d=" M 82.44 103.64 C 96.42 111.14 110.03 119.32 123.92 126.99 C 123.90 142.76 123.83 158.52 123.92 174.29 C 109.96 166.57 96.31 158.31 82.41 150.51 C 82.45 134.88 82.39 119.26 82.44 103.64 Z" />
</g>
<g id="#20b1f9ff">
<path fill="#20b1f9" opacity="1.00" d=" M 128.03 126.87 C 142.16 119.35 155.59 110.54 169.78 103.13 C 169.89 118.94 169.78 134.75 169.84 150.56 C 155.72 158.17 142.08 166.64 128.04 174.40 C 127.87 158.56 128.13 142.71 128.03 126.87 Z" />
</g>
</svg>
