<?xml version="1.0" encoding="utf-8"?>
<!-- Generator: Adobe Illustrator 26.0.3, SVG Export Plug-In . SVG Version: 6.00 Build 0)  -->
<svg version="1.1" id="Layer_1" xmlns="http://www.w3.org/2000/svg" xmlns:xlink="http://www.w3.org/1999/xlink" x="0px" y="0px"
	 viewBox="0 0 250 250" style="enable-background:new 0 0 250 250;" xml:space="preserve">
<style type="text/css">
	.st0{fill:#FFFFFF;}
	.st1{fill:#F3717F;}
	.st2{fill:#E24A66;}
	.st3{fill:#D991AE;}
	.st4{fill:#BF2255;}
	.st5{fill:#C9214F;}
	.st6{fill:#D22048;}
	.st7{fill:#DB1F41;}
	.st8{fill:#E41E3C;}
	.st9{fill:#ED1D35;}
	.st10{fill:#B7235C;}
	.st11{fill:#AF2462;}
	.st12{fill:#A72567;}
	.st13{fill:#D3ADC7;}
	.st14{fill:#8C287A;}
	.st15{fill:#E97D92;}
	.st16{fill:#DFA6BA;}
	.st17{fill:#E11E3D;}
	.st18{fill:#BC1B41;}
	.st19{fill:#9E266D;}
	.st20{fill:#AC2461;}
	.st21{fill:#BF2256;}
	.st22{fill:#D0204A;}
	.st23{fill:#E37A93;}
	.st24{fill:#952774;}
	.st25{fill:#D81F44;}
	.st26{fill:#D02049;}
	.st27{fill:#C52251;}
	.st28{fill:#A62566;}
	.st29{fill:#B02460;}
	.st30{fill:#B8235A;}
	.st31{fill:#DCA8BE;}
	.st32{fill:#B2567D;}
	.st33{fill:#B7235B;}
	.st34{fill:#9C266E;}
	.st35{fill:#A52568;}
	.st36{fill:#AE2462;}
	.st37{fill:#782568;}
	.st38{fill:#B77397;}
	.st39{fill:#9E214D;}
	.st40{fill:#8C2359;}
</style>
<g id="_x23_ffffffff">
	<path class="st0" d="M56.7,69.7C64.6,61,76.1,55.2,88,55.5c32.3,0.1,64.7,0,97,0.1c6.6,0.1,13.2-0.6,19.7,0.9l0.8,0.4
		c-0.7,0.5-1.5,1.1-2.2,1.7c-6.9,6.2-15.1,10.8-24.1,13.2c-22.7,0.2-45.5,0-68.2,0.1c-6.2,0.1-12.5-0.3-18.6,0.7
		C78.1,75.5,64.7,83,54.7,93.7c-4.4,4.7-7.3,10.3-11.2,15.3C42.2,94.9,46.6,79.9,56.7,69.7z"/>
	<path class="st0" d="M64,114.5c6.2-10.3,16.7-17.5,27.9-21.3c8.7-0.9,17.4-0.6,26.1-0.7c26,0,52,0,78,0c2.8,0,5.6,0.1,8.4,0.3
		c-2.2,2.9-4.6,5.8-7.8,7.8c-2.3,1.6-5.4,2.6-6.7,5.3c-2.8,1.1-5.6,1.8-8.5,2.4c0.4,0.4,0.8,0.7,1.2,1.1c-4.9,0-9.7,1-14.5,1
		c-21.7,0-43.4-0.1-65.1,0.1c-3.9-0.1-7.6,1.5-11,3.3c-7.5,3.7-13.6,10.9-15.3,19.2c-0.7,7.7-1.2,16.2,3.5,22.9
		c3,5.1,7.9,8.5,12.8,11.4c2.4,1.6,5,3.5,8.1,3.4c26.1,0.2,52.2-0.2,78.2,0.2c0.4,5.4,0.4,10.9,0,16.3c-16.7,0.4-33.5,0.1-50.2,0.2
		c-12.2-0.1-24.5,0.4-36.7-0.6c-12.2-3.3-23-11.6-29.2-22.6c-3.3-5.8-5.8-12.3-5.6-19.1c0-5.9-0.3-11.9,0.6-17.8
		C59.8,122.9,61.6,118.6,64,114.5z"/>
</g>
<g id="_x23_f3717fff">
	<path class="st1" d="M49.1,10.3c4.5-1.4,9.1-2.9,13.8-2.8c41.7,0.1,83.4,0,125.1,0c14.3,1.1,28.1,8.1,37.4,19
		c7.7,9.3,12.9,21.3,12.3,33.5c0,40.3,0,80.7,0,121c-0.1,6,0.1,11.9-0.3,17.9c-0.1,2.6-1.4,4.8-2.7,7c1.1-4.7,1.9-9.5,1.7-14.4
		c0-2.4-0.1-4.8-0.2-7.2c0.2-8.7,0.2-17.5,0.1-26.2c0-11.3,0.1-22.5-0.1-33.8c0.3-19.8,0-39.5,0.2-59.3c0.1-3.8-0.3-7.5-1.1-11.2
		c-1-5.2-1.6-10.5-4-15.2c-3.7-7.2-8.7-13.9-15.2-18.7c-5.3-4.2-11.7-6.7-18.1-8.8c-3.2-1.1-6.6-1.7-10-1.7
		c-37.7,0.1-75.4,0-113.1,0.1c-7.5,0-15.1-0.4-22.5,0.8C51.6,10.2,50,10.2,49.1,10.3z"/>
</g>
<g id="_x23_e24a66ff">
	<path class="st2" d="M52.5,10.1C59.9,9,67.5,9.4,75,9.3c37.7,0,75.4,0.1,113.1-0.1c3.4,0,6.8,0.6,10,1.7
		c-15.1-0.7-30.2-0.3-45.3-0.2c-6.8-0.1-13.6-0.1-20.3,0c-7.5-0.1-15,0-22.5,0c-8.1-0.1-16.1-0.1-24.2,0.1c-8-0.2-16.1-0.2-24.1,0.1
		c-3.4,0-6.7-0.2-10.1-0.3L52.5,10.1z"/>
</g>
<g id="_x23_d991aeff">
	<path class="st3" d="M19,34c6.6-11.3,17.5-20.2,30.1-23.7c0.8-0.1,2.5-0.1,3.3-0.2l-0.8,0.4c-1.3,0.7-2.6,1.3-3.9,2
		c-6.5,1.8-12.4,5.4-17.3,10c-5.2,4.6-9.3,10.3-12.3,16.6c-0.8,1.9-1.4,3.8-2.1,5.7l-1.1,0.4l0.1-1.1C15.3,40.4,17.3,37.2,19,34z"/>
</g>
<g id="_x23_bf2255ff">
	<path class="st4" d="M47.7,12.5c1.3-0.7,2.6-1.3,3.9-2c3.4,0.1,6.7,0.4,10.1,0.3c0.5,1.9,0.8,4,1.9,5.7
		c6.8,8.2,12.3,17.5,19.7,25.3c3.4,3.4,5.6,8,9.9,10.5c-5-0.1-9.9,1-14.7,2.3c-2.7-0.2-5.8,0.3-8.2-1c-7.8-9.3-13.9-19.8-22.1-28.7
		c-1.9-2.1-4.2-4-5.3-6.7C44.1,15.9,45.9,14.2,47.7,12.5z"/>
</g>
<g id="_x23_c9214fff">
	<path class="st5" d="M61.7,10.8c8-0.3,16.1-0.2,24.1-0.1c2.3,4.4,5.2,8.3,8.4,12c7.8,10.5,14.7,22.3,25.9,29.5c-9,0-18,0.2-27-0.1
		c-4.3-2.5-6.5-7-9.9-10.5c-7.4-7.8-12.9-17-19.7-25.3C62.4,14.8,62.2,12.8,61.7,10.8z"/>
</g>
<g id="_x23_d22048ff">
	<path class="st6" d="M85.8,10.8c8.1-0.1,16.1-0.2,24.2-0.1c3.5,4.9,7.2,9.6,11,14.2c3.8,5.8,7.8,11.5,12.4,16.7
		c2,2.2,3.7,4.8,4.8,7.6c2.3,1.1,4.6,2.2,7,3c-8.4,0.1-16.7,0.2-25.1,0.1c-11.2-7.2-18.1-19.1-25.9-29.5
		C91,19.1,88.1,15.1,85.8,10.8z"/>
</g>
<g id="_x23_db1f41ff">
	<path class="st7" d="M110,10.7c7.5-0.1,15-0.1,22.5,0c0.3,2.5,1.3,4.9,3.3,6.5c9.1,8.9,15.2,20.1,23.3,29.8c2.2,2.9,5.9,4,9.2,5.2
		c-7.7,0.1-15.3,0.3-23,0c-2.4-0.9-4.7-1.9-7-3c-1.1-2.8-2.8-5.3-4.8-7.6c-4.6-5.2-8.6-10.9-12.4-16.7
		C117.2,20.3,113.4,15.6,110,10.7z"/>
</g>
<g id="_x23_e41e3cff">
	<path class="st8" d="M132.5,10.7c6.8-0.1,13.6-0.1,20.3,0c7.6,8.6,13.2,18.9,21.4,27c2.8,2.5,4,6.2,5.7,9.4
		c1.5,3.2,5.4,3.8,8.3,5.1c-6.7,0.1-13.3,0.3-20,0c-3.3-1.2-7-2.3-9.2-5.2c-8.1-9.7-14.2-20.9-23.3-29.8
		C133.8,15.6,132.8,13.2,132.5,10.7z"/>
</g>
<g id="_x23_ed1d35ff">
	<path class="st9" d="M152.8,10.7c15.1,0,30.2-0.4,45.3,0.2c6.4,2.1,12.8,4.6,18.1,8.8c6.6,4.8,11.6,11.5,15.2,18.7
		c2.4,4.7,3,10.1,4,15.2c0.7,3.7,1.1,7.5,1.1,11.2c-0.2,19.8,0.1,39.5-0.2,59.3c-5.5-4.4-9.2-10.6-13.4-16.2
		c-4.8-7.4-11.2-13.7-15.9-21.2c-3.2-4.8-7.2-9.1-10-14.1c3.3-4,7.5-7.2,10.6-11.3c1.6-1.8,0.2-4-0.1-6c-0.2-1-0.3-2-0.4-3
		c-6.3-0.2-12.6-0.1-18.9-0.2c-2.9-1.2-6.8-1.9-8.3-5.1c-1.7-3.3-2.9-6.9-5.7-9.4C166,29.7,160.4,19.4,152.8,10.7z"/>
</g>
<g id="_x23_b7235cff">
	<path class="st10" d="M30.3,22.5c5-4.6,10.8-8.2,17.3-10c-1.8,1.6-3.6,3.4-4.8,5.6c1.1,2.7,3.4,4.6,5.3,6.7
		c8.2,8.9,14.3,19.5,22.1,28.7c2.4,1.4,5.5,0.8,8.2,1l-0.8,0.2c-5.4,1.9-10.5,4.5-15.3,7.5c-2,0.7-3.9,1.2-5.9,1.7
		c-6-6.6-10.4-14.4-16.1-21.2c-2.8-4.2-6.8-7.3-9.8-11.3C28.5,28.8,29.8,25.4,30.3,22.5z"/>
</g>
<g id="_x23_af2462ff">
	<path class="st11" d="M18.1,39.1c3-6.3,7.1-12,12.3-16.6c-0.5,2.9-1.8,6.3,0.1,8.9c3,4,7,7.1,9.8,11.3C46,49.6,50.4,57.4,56.4,64
		c2-0.5,4-1,5.9-1.7c-5.4,4.1-9.9,9.3-13.5,15.1c-2.8-0.8-6-1.8-7.3-4.7c-4.3-8.1-11.1-14.3-16.1-22C22.9,46.9,20.1,43.2,18.1,39.1z
		"/>
</g>
<g id="_x23_a72567ff">
	<path class="st12" d="M18.1,39.1c2.1,4.1,4.8,7.7,7.3,11.5c5,7.6,11.8,13.9,16.1,22c1.3,2.9,4.5,3.9,7.3,4.7
		c-3.2,5.5-5.2,11.6-6.4,17.8c-0.9,0.6-1.8,1.2-2.7,1.8c-3.4-3.9-5.5-8.8-8.8-12.7c-2.8-3.5-5.5-7.1-8.6-10.4
		c-3.1-3.2-5.1-7.2-8.4-10.2c-0.3-6.3,1.3-12.5,2.1-18.8C16.6,42.9,17.3,41,18.1,39.1z"/>
</g>
<g id="_x23_d3adc7ff">
	<path class="st13" d="M11.4,60c0.2-5.4,0.5-11.2,3.5-15.9l-0.1,1.1C14.2,51.2,12.9,57,12.9,63c-0.3,37.7,0.3,75.3,0.2,113
		c0.2,10.1-1.1,20.5,2.7,30.1c5.3,15.3,18.1,27.6,33.5,32.6c2.1,0.6,4.2,1.1,6.3,1.4c4.1,0.8,8.2,1.3,12.3,1.3c29-0.1,58,0,87,0
		c13.7-0.1,27.4,0.4,41.1-0.7c-3.5,2.5-8,2-12.1,2.1c-39.3,0-78.7,0-118,0c-6.7,0.1-13.3-1.4-19.6-3.4c-9.3-4.3-18.2-10.2-24.4-18.5
		c-6.5-9.3-11-20.5-10.6-32C11.5,146,11.4,103,11.4,60z"/>
</g>
<g id="_x23_8c287aff">
	<path class="st14" d="M14.9,45.2l1.1-0.4c-0.9,6.2-2.4,12.4-2.1,18.8c-0.2,10-0.1,20,0.3,30c-0.2,8.2-0.1,16.3-0.1,24.5
		c0.1,3.5,0.1,7.5,2.8,10.2c5.9,5.9,11,12.5,15.7,19.2c4.8,7.5,11.1,13.8,15.9,21.3c4.4,6.7,9.8,12.7,15,18.8c4.8,8.4,12,15,17,23.2
		c2.7,4.2,6.1,7.9,9,11.9c2,2.6,3.8,5.4,6.6,7.3c2.8,1.7,6.1,2.2,9.2,2.9c-13.1,0.7-26.2,0-39.3,0.3c-15.4,0.4-30.7-6.6-40.7-18.4
		c-3.7-4.1-6.3-9.1-9.1-13.8c-0.1,1.8-0.3,3.5-0.4,5.2c-3.8-9.6-2.5-20-2.7-30.1c0.2-37.7-0.5-75.3-0.2-113
		C12.9,57,14.2,51.2,14.9,45.2z"/>
</g>
<g id="_x23_e97d92ff">
	<path class="st15" d="M78.4,54.6c4.8-1.3,9.7-2.4,14.7-2.3c9,0.3,18,0.1,27,0.1c8.4,0.2,16.7,0.1,25.1-0.1c7.7,0.3,15.3,0.1,23,0
		c6.7,0.3,13.3,0.1,20,0c6.3,0.2,12.6,0.1,18.9,0.2c0.1,1,0.2,2,0.4,3c-0.5,0.3-1.5,1-2,1.3l-0.8-0.4c-3.4-2.5-7.7-1.9-11.7-1.9
		c-38.5,0.3-76.9-0.3-115.4,0.3L78.4,54.6z"/>
</g>
<g id="_x23_dfa6baff">
	<path class="st16" d="M62.3,62.3c4.9-3,10-5.6,15.3-7.5c38.5-0.6,76.9,0,115.4-0.3c3.9,0,8.3-0.6,11.7,1.9
		c-6.5-1.4-13.1-0.8-19.7-0.9c-32.3,0-64.7,0-97-0.1C76.1,55.2,64.6,61,56.7,69.7c-10.1,10.2-14.5,25.2-13.2,39.3
		c3.9-5,6.9-10.7,11.2-15.3c10-10.7,23.3-18.2,37.7-21.1c6.1-1.1,12.4-0.7,18.6-0.7c22.7,0,45.5,0.2,68.2-0.1c-4.6,1.4-9.5,1-14.2,1
		c-19.7-0.1-39.3,0.1-59,0c-4.5-0.1-8.9,0.7-13.3,1.6C81.8,76,71.4,81,63,88.1c-5.3,4-9.8,8.9-13.4,14.5c-1.8,2.7-3.3,5.7-5.8,7.8
		c-0.3,0-0.9,0-1.2,0c-0.6-5.1-0.5-10.2-0.2-15.3c1.2-6.2,3.2-12.3,6.4-17.8C52.4,71.6,56.9,66.4,62.3,62.3z"/>
</g>
<g id="_x23_e11e3dff">
	<path class="st17" d="M205.5,56.9c0.5-0.3,1.5-1,2-1.3c0.2,2,1.7,4.2,0.1,6c-3.2,4.1-7.3,7.3-10.6,11.3c2.9,5,6.9,9.3,10,14.1
		c4.7,7.5,11.1,13.7,15.9,21.2c4.2,5.5,7.9,11.7,13.4,16.2c0.2,11.3,0.1,22.5,0.1,33.8c-3.8-3.5-7.1-7.4-9.8-11.7
		c-4.3-6.6-9.8-12.3-14-19c-3.4-5.5-8.8-9.4-12-15c-0.6-1.1-1.8-2.4-0.8-3.7c2-3.5,5.5-5.9,7.4-9.4c1.1-1.8,0.2-3.9,0-5.8
		c-0.2-1-0.4-2-0.7-3c-6.4,0-12.8,0.1-19.2-0.3c-5.6-1.3-11.4-1-17-2.4c-3.7-0.9-5-4.8-6.5-7.8c4.3-1.9,8.9-2.8,13.5-3.6
		c9.1-1.2,16.8-6.6,23.6-12.5c1.6-1.3,2.1-3.3,2.4-5.2C204,58,204.8,57.4,205.5,56.9z"/>
</g>
<g id="_x23_bc1b41ff">
	<path class="st18" d="M179.2,71.8c9-2.3,17.2-7,24.1-13.2c-0.3,1.9-0.8,4-2.4,5.2c-6.8,5.8-14.5,11.3-23.6,12.5
		c-5.6-0.3-11.2-0.5-16.8,0c-11.1,1-22.2,0.6-33.3,1.1c-9.1-0.5-18.2-1.2-27.4-1.8c0.3-0.4,0.8-1.1,1.1-1.4c-2.7,0-5.5,0-8.2,0.2
		c4.4-1,8.8-1.7,13.3-1.6c19.7,0.1,39.3,0,59,0C169.8,72.8,174.6,73.2,179.2,71.8z"/>
</g>
<g id="_x23_9e266dff">
	<path class="st19" d="M13.8,63.5c3.3,3,5.4,7,8.4,10.2c3.1,3.2,5.8,6.9,8.6,10.4c3.3,4,5.4,8.8,8.8,12.7c0.9-0.6,1.8-1.2,2.7-1.8
		c-0.2,5.1-0.4,10.2,0.2,15.3c0.3,0,0.9,0,1.2,0c2.5-2.1,3.9-5.2,5.8-7.8C53.2,97,57.8,92.1,63,88.1c-0.1,7-8.2,11.3-6.9,18.6
		c1.8,3.2,5.2,5.2,7.9,7.8c-2.3,4.1-4.2,8.4-6,12.7c-1.9,5.2-2.2,10.8-3.6,16.1c-4.1-2.4-6.4-6.8-9.6-10.1
		c-5.7-6.1-10.2-13.1-15.1-19.9C24.2,107,19.5,100,14.1,93.6C13.7,83.6,13.6,73.6,13.8,63.5z"/>
</g>
<g id="_x23_ac2461ff">
	<path class="st20" d="M92.7,74.4c2.7-0.2,5.5-0.2,8.2-0.2c-0.3,0.4-0.9,1.1-1.1,1.4c-7.5,1.4-14.7,4.7-20,10.2
		c1.6,2.1,2.9,4.5,5.1,6.1c2.4,1,5.1,0.4,7.6,0.4l-0.5,0.9C80.6,97,70.1,104.2,64,114.5c-2.7-2.5-6-4.5-7.9-7.8
		C54.8,99.5,63,95.1,63,88.1C71.4,81,81.8,76,92.7,74.4z"/>
</g>
<g id="_x23_bf2256ff">
	<path class="st21" d="M79.8,85.8c5.4-5.5,12.5-8.8,20-10.2c9.1,0.6,18.2,1.2,27.4,1.8c-1.7,0.8-3.4,1.7-5.1,2.5
		c1.6,2.4,3,4.9,5.1,6.9c2.3,1.8,5.3,2.5,8.1,3.3c-14.3,0.9-28.8-1.4-42.8,2.2c-2.5,0-5.2,0.5-7.6-0.4
		C82.7,90.3,81.3,87.9,79.8,85.8z"/>
</g>
<g id="_x23_d0204aff">
	<path class="st22" d="M127.2,77.4c11.1-0.5,22.3-0.1,33.3-1.1c5.6-0.6,11.2-0.3,16.8,0c-4.6,0.8-9.2,1.7-13.5,3.6
		c1.5,3,2.8,6.9,6.5,7.8c5.6,1.4,11.4,1.1,17,2.4c-17.3,0.5-34.7,0.4-52.1,0.1c-2.8-0.9-5.7-1.5-8.1-3.3c-2.1-2-3.5-4.6-5.1-6.9
		C123.8,79.1,125.4,78.2,127.2,77.4z"/>
</g>
<g id="_x23_e37a93ff">
	<path class="st23" d="M92.4,92.4c14-3.6,28.6-1.3,42.8-2.2c17.4,0.3,34.7,0.4,52.1-0.1c6.4,0.5,12.8,0.3,19.2,0.3
		c0.2,1,0.5,2,0.7,3c-0.3,0.6-0.8,1.8-1,2.4c-3.4,1.9-6.5,4.2-9.2,7c-2.3,1.2-4.7,2.2-7.1,3.1c1.3-2.7,4.4-3.7,6.7-5.3
		c3.2-1.9,5.6-4.8,7.8-7.8c-2.8-0.2-5.6-0.3-8.4-0.3c-26,0.1-52,0-78,0c-8.7,0-17.4-0.3-26.1,0.7L92.4,92.4z"/>
</g>
<g id="_x23_952774ff">
	<path class="st24" d="M14.1,93.6c5.4,6.4,10.1,13.4,15.6,19.7c4.8,6.8,9.3,13.8,15.1,19.9c3.3,3.3,5.5,7.7,9.6,10.1
		c1.4-5.4,1.7-10.9,3.6-16.1c-0.9,5.9-0.6,11.9-0.6,17.8c-0.2,6.8,2.4,13.2,5.6,19.1c6.3,11,17,19.3,29.2,22.6
		c1.1,0.5,2.3,1.1,3.4,1.6l0.7,0.3c-3.5,0.2-7,0.6-10.5,1.2c4,7.5,10.2,13.3,14.9,20.3c3.3,5.3,7.4,10,11.1,15.1
		c2.3,3.2,5.5,5.5,8.5,7.9c-1.3,0.3-2.5,0.6-3.8,0.9c-3.8-0.4-7.6-0.9-11.4-1.2c-3.2-0.7-6.4-1.2-9.2-2.9c-2.7-1.9-4.5-4.8-6.6-7.3
		c-3-4-6.4-7.7-9-11.9c-5.1-8.2-12.2-14.8-17-23.2c-5.2-6.1-10.6-12.1-15-18.8c-4.8-7.5-11.1-13.8-15.9-21.3
		c-4.8-6.8-9.8-13.4-15.7-19.2c-2.7-2.7-2.7-6.6-2.8-10.2C14,109.9,13.9,101.7,14.1,93.6z"/>
</g>
<g id="_x23_d81f44ff">
	<path class="st25" d="M206.2,95.9c0.3-0.6,0.8-1.8,1-2.4c0.2,1.9,1.1,4,0,5.8c-2,3.5-5.4,5.9-7.4,9.4c-1,1.2,0.2,2.6,0.8,3.7
		c3.2,5.6,8.6,9.5,12,15c4.2,6.7,9.7,12.4,14,19c2.7,4.3,6.1,8.2,9.8,11.7c0.1,8.8,0.1,17.5-0.1,26.2c-5.9-4.2-9.7-10.7-14.2-16.2
		c-5.6-9-13.2-16.5-18.7-25.6c-7.1-8.5-14.8-16.7-20.1-26.5c6.4-3.6,12.8-7.4,18.2-12.5C203.8,101.4,205,98.7,206.2,95.9z"/>
</g>
<g id="_x23_d02049ff">
	<path class="st26" d="M197,102.9c2.7-2.8,5.8-5.2,9.2-7c-1.1,2.8-2.4,5.6-4.7,7.6c-5.4,5.1-11.8,8.8-18.2,12.5
		c5.3,9.8,13,18,20.1,26.5c5.4,9.1,13.1,16.6,18.7,25.6c4.6,5.6,8.3,12,14.2,16.2c0,2.4,0.2,4.8,0.2,7.2c-1.7,3.5-3.2,7.2-5.9,10.2
		c-2,1-3.6-1.2-4.8-2.4c-4.4-5.6-9-11.2-12.8-17.3c-5-6.7-10.7-12.8-15-20c-6.2-6.9-12.1-14.1-17.1-21.9c-5.7-7.6-11.9-14.7-17-22.8
		c7.3-2.6,15.3-2.6,22.4-6C190.6,109.5,194,106.4,197,102.9z"/>
</g>
<g id="_x23_c52251ff">
	<path class="st27" d="M189.9,106c2.4-0.9,4.8-1.9,7.1-3.1c-2.9,3.5-6.4,6.6-10.7,8.3c-7.1,3.4-15.1,3.5-22.4,6
		c5,8,11.3,15.2,17,22.8c5.1,7.8,10.9,15,17.1,21.9c4.2,7.2,10,13.3,15,20c3.8,6.1,8.3,11.7,12.8,17.3c1.3,1.2,2.8,3.4,4.8,2.4
		c2.6-2.9,4.1-6.7,5.9-10.2c0.2,4.8-0.6,9.6-1.7,14.4l-0.2,0.7c-0.8,1.2-1.6,2.4-2.3,3.7c0-0.5-0.1-1.6-0.1-2.1
		c-5.9,6.1-11.4,12.9-19,16.9c-3.2,0.6-8,2.5-9.8-1.3c-3.4-5.5-7.5-10.6-11.6-15.5c-3.8-4.2-6-9.7-10.3-13.4
		c1.3-1.1,2.5-2.1,3.8-3.1c-0.2-5.1-1-10.1-1.8-15.1c-0.3-2.4-0.8-4.9-1.7-7.2c-0.4-0.1-1.2-0.3-1.6-0.4c-3.9-1-7.8-1.3-11.8-1.2
		c-4.1-1-9.3-1.3-11.7-5.4c-4.7-8-11-15-17.1-22c-5.3-8-11.1-15.6-17.6-22.6c10.5-4.7,22.4-2.9,33.4-5.5c-8.2-1.4-16.6-0.8-24.9-0.4
		c-7-0.4-14-0.6-21-0.1c-5.8,0.1-11.6,0.9-17.4,1.9c3.4-1.8,7.1-3.4,11-3.3c21.7-0.1,43.4,0,65.1-0.1c4.9,0,9.7-0.9,14.5-1
		c-0.4-0.4-0.8-0.7-1.2-1.1C184.2,107.8,187.1,107.1,189.9,106z"/>
</g>
<g id="_x23_a62566ff">
	<path class="st28" d="M91.9,113.7c5.7-1,11.5-1.7,17.4-1.9c-6.1,2-12.9,3-17.6,7.8c-2.2,2.2-5.6,5.1-4,8.5
		c2.3,6.8,8.8,10.7,12.3,16.7c2.2,3.7,5,7,7.7,10.3c3.3,3.9,5.8,8.6,9.9,11.8c-6.6,0.1-13.2,0.6-19.9,0.4c-1.6-0.1-3.2-0.2-4.8-0.3
		c-4.9-3-9.8-6.4-12.8-11.4c-4.7-6.6-4.3-15.2-3.5-22.9C78.3,124.6,84.4,117.5,91.9,113.7z"/>
</g>
<g id="_x23_b02460ff">
	<path class="st29" d="M109.3,111.9c7-0.5,14-0.2,21,0.1c-9.2,2.9-19.2,1.8-28.3,5.1c3.2,5.6,7.6,10.3,11.3,15.4
		c4.3,7.5,11,13.2,15.9,20.3c4.2,4.9,6.5,13,13.8,14.1c8.4,0.1,16.8,1.6,25.3,1.1c4-0.1,7.9,0.2,11.8,1.2c-23,0.5-46,0-69.1,0.2
		c-4.5,0.2-8.9-0.8-13.2-1.8c6.6,0.2,13.2-0.3,19.9-0.4c-4.1-3.2-6.6-7.9-9.9-11.8c-2.7-3.3-5.5-6.6-7.7-10.3
		c-3.5-6-10-9.9-12.3-16.7c-1.6-3.4,1.8-6.3,4-8.5C96.4,114.9,103.2,113.8,109.3,111.9z"/>
</g>
<g id="_x23_b8235aff">
	<path class="st30" d="M130.3,112c8.3-0.4,16.7-1,24.9,0.4c-11,2.6-22.9,0.8-33.4,5.5c6.6,7,12.4,14.6,17.6,22.6
		c6.1,7,12.3,14,17.1,22c2.4,4,7.6,4.4,11.7,5.4c-8.4,0.5-16.8-1-25.3-1.1c-7.2-1.1-9.5-9.2-13.8-14.1c-4.9-7.1-11.6-12.8-15.9-20.3
		c-3.8-5.2-8.2-9.8-11.3-15.4C111.2,113.8,121.1,114.9,130.3,112z"/>
</g>
<g id="_x23_dca8beff">
	<path class="st31" d="M92.9,167.2c1.6,0.1,3.2,0.2,4.8,0.3c4.3,1.1,8.8,2,13.2,1.8c23-0.2,46,0.3,69.1-0.2c0.4,0.1,1.2,0.3,1.6,0.4
		c-0.5,5.8,0.3,11.6-0.6,17.3c-0.3,2.4-3.2,1.8-4.9,2.1c-19.7,0-39.4,0-59,0c-7.1,0.1-14.2-0.3-21.3-0.6c-1.1-0.5-2.3-1.1-3.4-1.6
		c12.2,1.1,24.5,0.5,36.7,0.6c16.7-0.1,33.5,0.2,50.2-0.2c0.4-5.4,0.4-10.9,0-16.3c-26.1-0.5-52.2,0-78.2-0.2
		C97.9,170.7,95.3,168.8,92.9,167.2z"/>
</g>
<g id="_x23_b2567dff">
	<path class="st32" d="M181.6,169.5c0.9,2.3,1.4,4.7,1.7,7.2c-0.2,3.6-0.3,7.2-1.1,10.7c-0.5,2.7-3.6,3.2-5.8,3.7
		c-9.3-0.7-18.7-0.7-28.1-0.2c-8.3-0.3-16.7-0.5-25,0c-9-0.6-18.3,0.8-26.9-2.3l-0.7-0.3c7.1,0.4,14.2,0.8,21.3,0.6
		c19.7,0,39.4,0,59,0c1.7-0.3,4.6,0.3,4.9-2.1C181.9,181.1,181.1,175.3,181.6,169.5z"/>
</g>
<g id="_x23_b7235bff">
	<path class="st33" d="M183.3,176.7c0.8,5,1.6,10,1.8,15.1c-1.3,1-2.5,2.1-3.8,3.1c4.4,3.7,6.6,9.2,10.3,13.4
		c4.2,4.9,8.2,10,11.6,15.5c1.9,3.8,6.7,1.9,9.8,1.3c-6.2,4.1-13.5,6.4-20.8,7.4c-4-0.7-8-2-11.1-4.7c-4.3-3.5-6.4-8.9-9.9-13.1
		c-4.9-6.6-10.9-12.6-14.3-20.2c6.4-1.7,13-1.9,19.4-3.4c2.2-0.5,5.4-1,5.8-3.7C183,183.9,183.1,180.3,183.3,176.7z"/>
</g>
<g id="_x23_9c266eff">
	<path class="st34" d="M85.9,189.8c3.5-0.6,7-1,10.5-1.2c8.6,3.1,17.9,1.7,26.9,2.3c-4.3,1.3-8.7,2.2-12.9,3.7
		c-0.1,0.3-0.2,1-0.3,1.3c4.7,6.2,10.2,11.9,14.4,18.5c2.8,4.5,6.2,8.5,9.4,12.7c2.8,4,7.9,4.6,12.3,5.8c-8.6,0.5-17.2-0.1-25.9,0.2
		c-3-2.4-6.2-4.8-8.5-7.9c-3.7-5.1-7.8-9.8-11.1-15.1C96.1,203.1,89.8,197.2,85.9,189.8z"/>
</g>
<g id="_x23_a52568ff">
	<path class="st35" d="M123.3,190.9c8.3-0.5,16.7-0.3,25,0c-5.5,1.4-11.1,2.3-16.5,4c1.8,2,3.6,3.9,5.5,5.8
		c4.8,4.4,7.2,10.6,11.5,15.4c4,4.5,7.2,9.6,10.9,14.3c3.7,1.3,7.7,1.6,11.6,2.3c-3.4,0.2-6.9,0.7-10.3,0.9
		c-4.9-0.3-9.8-0.5-14.7-0.7c-4.3-1.2-9.5-1.8-12.3-5.8c-3.2-4.2-6.6-8.3-9.4-12.7c-4.2-6.6-9.8-12.2-14.4-18.5
		c0.1-0.3,0.2-1,0.3-1.3C114.6,193.1,119,192.2,123.3,190.9z"/>
</g>
<g id="_x23_ae2462ff">
	<path class="st36" d="M148.3,190.9c9.4-0.5,18.7-0.5,28.1,0.2c-6.4,1.5-13,1.7-19.4,3.4c3.4,7.6,9.4,13.6,14.3,20.2
		c3.5,4.2,5.5,9.6,9.9,13.1c3.1,2.7,7.1,4,11.1,4.7c-7,1-14,0.6-21,0.1c-3.9-0.6-7.9-1-11.6-2.3c-3.6-4.7-6.9-9.8-10.9-14.3
		c-4.3-4.8-6.8-11-11.5-15.4c-1.9-1.9-3.7-3.8-5.5-5.8C137.2,193.2,142.8,192.3,148.3,190.9z"/>
</g>
<g id="_x23_782568ff">
	<path class="st37" d="M16.2,200.9c2.8,4.8,5.4,9.7,9.1,13.8c9.9,11.8,25.3,18.8,40.7,18.4c13.1-0.2,26.2,0.4,39.3-0.3
		c3.8,0.3,7.6,0.7,11.4,1.2c4.1,0.8,8.1,1.9,11.8,3.9c-6.7,1.8-13.6,1-20.4,1.2c-14.7,0.3-29.3,0.2-44,0.2c-4.9,0-9.8,0.1-14.6-0.7
		c-15.4-5-28.2-17.2-33.5-32.6C15.9,204.3,16.1,202.6,16.2,200.9z"/>
</g>
<g id="_x23_b77397ff">
	<path class="st38" d="M232.2,210.3c0.7-1.2,1.5-2.5,2.3-3.7c-0.4,5.4-3.9,9.9-6.8,14.2c-7.8,10-19,17.9-31.6,19.9
		c-13.7,1.1-27.4,0.5-41.1,0.7c-29,0-58-0.1-87,0c-4.2,0-8.3-0.6-12.3-1.3c37.8,0.4,75.5,0.1,113.3,0.2c9.6,0,19.2,0.2,28.7-0.9
		C212.8,235.4,225.9,224.6,232.2,210.3z"/>
</g>
<g id="_x23_9e214dff">
	<path class="st39" d="M213.1,225.2c7.6-4.1,13.1-10.9,19-16.9c0,0.5,0.1,1.6,0.1,2.1c-6.4,14.3-19.4,25.1-34.5,29
		c-0.3-0.1-0.8-0.4-1.1-0.5c0-0.8,0.2-1.6,0.4-2.5c-12-1.4-24.1-1.5-36.1-2.9c3.4-0.2,6.9-0.7,10.3-0.9c7,0.5,14,0.9,21-0.1
		C199.6,231.6,206.9,229.3,213.1,225.2z"/>
</g>
<g id="_x23_8c2359ff">
	<path class="st40" d="M116.6,234c1.2-0.3,2.5-0.6,3.8-0.9c8.6-0.3,17.2,0.3,25.9-0.2c4.9,0.1,9.8,0.4,14.7,0.7
		c12,1.3,24.1,1.4,36.1,2.9c-0.2,0.8-0.4,1.6-0.4,2.5c0.3,0.1,0.8,0.4,1.1,0.5c-9.5,1.1-19.1,0.9-28.7,0.9
		c-37.8-0.1-75.6,0.2-113.3-0.2c-2.1-0.4-4.2-0.8-6.3-1.4c4.8,0.8,9.8,0.7,14.6,0.7c14.7,0,29.3,0.1,44-0.2
		c6.8-0.2,13.8,0.5,20.4-1.2C124.8,235.9,120.7,234.8,116.6,234z"/>
</g>
</svg>
