<svg id="Layer_1" data-name="Layer 1" xmlns="http://www.w3.org/2000/svg" xmlns:xlink="http://www.w3.org/1999/xlink" viewBox="0 0 224.52 250"><defs><style>.cls-1{fill:url(#linear-gradient);}.cls-2{fill:#a0a8d4;}.cls-3{fill:url(#linear-gradient-2);}.cls-4{fill:url(#linear-gradient-3);}</style><linearGradient id="linear-gradient" x1="311.12" y1="-535.57" x2="220.32" y2="-634" gradientTransform="matrix(1, 0, 0, -1, -187, -532.64)" gradientUnits="userSpaceOnUse"><stop offset="0.58" stop-color="#a0a8d4"/><stop offset="0.73" stop-color="#8791c7"/><stop offset="0.91" stop-color="#6470b4"/></linearGradient><linearGradient id="linear-gradient-2" x1="313.03" y1="-779.92" x2="403.79" y2="-681.56" xlink:href="#linear-gradient"/><linearGradient id="linear-gradient-3" x1="311.99" y1="-531.4" x2="311.99" y2="-783.57" gradientTransform="matrix(1, 0, 0, -1, -187, -532.64)" gradientUnits="userSpaceOnUse"><stop offset="0" stop-color="#513eff"/><stop offset="0.18" stop-color="#5157ff"/><stop offset="0.57" stop-color="#5298ff"/><stop offset="1" stop-color="#52e5ff"/></linearGradient></defs><g id="Layer_1-2" data-name="Layer 1"><path class="cls-1" d="M41.52,101.36c2.48,5.25,8.66,15.76,8.66,15.76L120.94,0,52,48.21A33.19,33.19,0,0,0,42.14,59,50.66,50.66,0,0,0,41.52,101.36Z" transform="translate(-12.74)"/><path class="cls-2" d="M13.71,139.68a78.93,78.93,0,0,0,30.9,57.17L120.94,250S73,181.09,32.87,112.48a68.06,68.06,0,0,1-8-23.48,33.53,33.53,0,0,1,0-11.13c-.93,1.86-3.09,5.88-3.09,5.88a98.61,98.61,0,0,0-8.35,26.57A133.86,133.86,0,0,0,13.71,139.68Z" transform="translate(-12.74)"/><path class="cls-3" d="M208.4,149c-2.48-5.25-8.66-15.76-8.66-15.76L129,250l69.22-47.9a33.19,33.19,0,0,0,9.89-10.81A50.66,50.66,0,0,0,208.4,149Z" transform="translate(-12.74)"/><path class="cls-2" d="M236.52,110.32a78.93,78.93,0,0,0-30.9-57.17L129.29,0s47.9,68.91,88.07,137.52a68.06,68.06,0,0,1,8,23.48,33.53,33.53,0,0,1,0,11.13c.93-1.86,3.09-5.88,3.09-5.88A100.05,100.05,0,0,0,236.83,140,189.23,189.23,0,0,0,236.52,110.32Z" transform="translate(-12.74)"/><path class="cls-4" d="M42.14,59A30.12,30.12,0,0,1,52,48.21L120.94,0,50.18,116.81S44,106.3,41.52,101.05A50,50,0,0,1,42.14,59ZM13.71,139.68a78.93,78.93,0,0,0,30.9,57.17L120.94,250S73,181.09,32.87,112.48a68.06,68.06,0,0,1-8-23.48,33.53,33.53,0,0,1,0-11.13c-.93,1.86-3.09,5.88-3.09,5.88a98.61,98.61,0,0,0-8.35,26.57A133.86,133.86,0,0,0,13.71,139.68ZM208.4,149c-2.48-5.25-8.66-15.76-8.66-15.76L129,250l69.22-47.9a33.19,33.19,0,0,0,9.89-10.81A50.66,50.66,0,0,0,208.4,149Zm27.81-38.32a78.93,78.93,0,0,0-30.9-57.17L129.29,0s47.9,68.91,88.07,137.52a68.06,68.06,0,0,1,8,23.48,33.53,33.53,0,0,1,0,11.13c.93-1.86,3.09-5.88,3.09-5.88A100.05,100.05,0,0,0,236.83,140a153.82,153.82,0,0,0-.62-29.36Z" transform="translate(-12.74)"/></g></svg>