<?xml version="1.0" encoding="UTF-8" ?>
<!DOCTYPE svg PUBLIC "-//W3C//DTD SVG 1.1//EN" "http://www.w3.org/Graphics/SVG/1.1/DTD/svg11.dtd">
<svg width="250pt" height="214pt" viewBox="0 0 250 214" version="1.1" xmlns="http://www.w3.org/2000/svg">
<g id="#ffffffff">
<path fill="#ffffff" opacity="1.00" d=" M 0.00 0.00 L 250.00 0.00 L 250.00 214.00 L 0.00 214.00 L 0.00 0.00 M 75.48 11.68 C 72.73 11.70 73.00 15.00 72.80 16.92 C 72.69 29.28 72.95 41.64 72.74 54.00 C 72.77 57.16 72.57 60.39 73.38 63.48 C 75.42 65.26 78.48 64.50 80.97 64.73 C 129.67 64.52 178.38 64.64 227.08 64.68 C 228.77 64.44 231.05 64.86 232.11 63.18 C 232.84 60.53 232.64 57.73 232.68 55.01 C 232.47 42.32 232.65 29.63 232.65 16.94 C 232.42 15.15 232.91 12.14 230.49 11.74 C 225.37 10.98 220.16 11.56 215.00 11.46 C 169.65 11.41 124.29 11.55 78.94 11.39 C 77.78 11.40 76.62 11.50 75.48 11.68 M 11.52 83.01 C 11.51 99.67 11.49 116.34 11.53 133.01 C 13.67 133.28 15.81 133.56 17.96 133.56 C 30.65 133.48 43.34 133.48 56.04 133.57 C 58.21 133.56 60.38 133.30 62.53 133.04 C 62.55 116.37 62.55 99.69 62.54 83.02 C 54.73 82.08 46.84 82.80 39.00 82.59 C 29.84 82.84 20.64 82.05 11.52 83.01 M 74.02 83.02 C 73.26 88.66 73.66 94.34 73.61 100.00 C 73.83 111.04 73.13 122.11 73.96 133.13 C 75.96 133.30 77.97 133.50 79.98 133.55 C 113.67 133.48 147.36 133.49 181.05 133.55 C 182.90 133.50 184.73 133.30 186.57 133.12 C 186.59 116.42 186.63 99.71 186.55 83.01 C 181.39 82.32 176.19 82.61 171.00 82.60 C 144.00 82.58 117.00 82.60 90.00 82.59 C 84.67 82.61 79.32 82.27 74.02 83.02 M 74.20 152.43 C 73.67 154.91 73.28 157.42 73.36 159.95 C 73.54 172.66 73.43 185.36 73.39 198.06 C 73.62 199.76 73.16 202.01 74.79 203.14 C 79.78 204.18 84.94 203.54 90.00 203.65 C 101.45 203.41 112.93 204.12 124.37 203.35 C 125.04 197.92 124.76 192.45 124.73 187.00 C 124.47 175.55 125.27 164.06 124.40 152.63 C 116.95 151.97 109.47 152.54 102.00 152.39 C 92.73 152.49 83.46 152.18 74.20 152.43 Z" />
</g>
<g id="#abebf4ff">
<path fill="#abebf4" opacity="1.00" d=" M 75.48 11.68 C 76.62 11.50 77.78 11.40 78.94 11.39 C 124.29 11.55 169.65 11.41 215.00 11.46 C 220.16 11.56 225.37 10.98 230.49 11.74 C 232.91 12.14 232.42 15.15 232.65 16.94 C 232.65 29.63 232.47 42.32 232.68 55.01 C 232.64 57.73 232.84 60.53 232.11 63.18 C 231.05 64.86 228.77 64.44 227.08 64.68 C 178.38 64.64 129.67 64.52 80.97 64.73 C 78.48 64.50 75.42 65.26 73.38 63.48 C 72.57 60.39 72.77 57.16 72.74 54.00 C 72.95 41.64 72.69 29.28 72.80 16.92 C 73.00 15.00 72.73 11.70 75.48 11.68 M 74.51 13.66 C 74.33 30.15 74.15 46.67 74.61 63.15 C 124.07 63.55 173.54 63.13 223.01 63.36 C 225.54 63.39 228.06 63.18 230.58 62.96 C 230.67 46.59 230.59 30.21 230.62 13.84 C 228.09 13.63 225.55 13.42 223.01 13.46 C 173.51 13.68 124.00 13.27 74.51 13.66 Z" />
<path fill="#abebf4" opacity="1.00" d=" M 74.20 152.43 C 83.46 152.18 92.73 152.49 102.00 152.39 C 109.47 152.54 116.95 151.97 124.40 152.63 C 125.27 164.06 124.47 175.55 124.73 187.00 C 124.76 192.45 125.04 197.92 124.37 203.35 C 112.93 204.12 101.45 203.41 90.00 203.65 C 84.94 203.54 79.78 204.18 74.79 203.14 C 73.16 202.01 73.62 199.76 73.39 198.06 C 73.43 185.36 73.54 172.66 73.36 159.95 C 73.28 157.42 73.67 154.91 74.20 152.43 Z" />
</g>
<g id="#02a5c2ff">
<path fill="#02a5c2" opacity="1.00" d=" M 74.51 13.66 C 124.00 13.27 173.51 13.68 223.01 13.46 C 225.55 13.42 228.09 13.63 230.62 13.84 C 230.59 30.21 230.67 46.59 230.58 62.96 C 228.06 63.18 225.54 63.39 223.01 63.36 C 173.54 63.13 124.07 63.55 74.61 63.15 C 74.15 46.67 74.33 30.15 74.51 13.66 Z" />
</g>
<g id="#5fcadeff">
<path fill="#5fcade" opacity="1.00" d=" M 11.52 83.01 C 20.64 82.05 29.84 82.84 39.00 82.59 C 46.84 82.80 54.73 82.08 62.54 83.02 C 62.55 99.69 62.55 116.37 62.53 133.04 C 60.38 133.30 58.21 133.56 56.04 133.57 C 43.34 133.48 30.65 133.48 17.96 133.56 C 15.81 133.56 13.67 133.28 11.53 133.01 C 11.49 116.34 11.51 99.67 11.52 83.01 Z" />
<path fill="#5fcade" opacity="1.00" d=" M 74.02 83.02 C 79.32 82.27 84.67 82.61 90.00 82.59 C 117.00 82.60 144.00 82.58 171.00 82.60 C 176.19 82.61 181.39 82.32 186.55 83.01 C 186.63 99.71 186.59 116.42 186.57 133.12 C 184.73 133.30 182.90 133.50 181.05 133.55 C 147.36 133.49 113.67 133.48 79.98 133.55 C 77.97 133.50 75.96 133.30 73.96 133.13 C 73.13 122.11 73.83 111.04 73.61 100.00 C 73.66 94.34 73.26 88.66 74.02 83.02 Z" />
</g>
</svg>
