<?xml version="1.0" encoding="utf-8"?>
<!-- Generator: Adobe Illustrator 26.0.3, SVG Export Plug-In . SVG Version: 6.00 Build 0)  -->
<svg version="1.1" id="Layer_1" xmlns="http://www.w3.org/2000/svg" xmlns:xlink="http://www.w3.org/1999/xlink" x="0px" y="0px"
	 viewBox="0 0 250 250" style="enable-background:new 0 0 250 250;" xml:space="preserve">
<style type="text/css">
	.st0{fill:#FFFFFF;}
	.st1{fill:#703D0F;}
	.st2{fill:#FCF571;}
	.st3{fill:#FCF6A6;}
	.st4{fill:#F8E94B;}
	.st5{fill:#EF6A73;}
	.st6{fill:#EBAA4B;}
	.st7{fill:#FCEB82;}
	.st8{fill:#F6A3BE;}
	.st9{fill:#A65D16;}
	.st10{fill:#A55E16;}
	.st11{fill:#FBF3A4;}
	.st12{fill:#AE0A1A;}
	.st13{fill:#B26C4A;}
	.st14{fill:#823E25;}
	.st15{fill:#A15D3E;}
	.st16{fill:#FFA91F;}
	.st17{fill:#FFAA1C;}
	.st18{fill:#F5E246;}
	.st19{fill:#98908C;}
	.st20{fill:#7B8F97;}
	.st21{fill:#D9E1E4;}
	.st22{fill:#F2DB43;}
	.st23{fill:#FFDC70;}
	.st24{fill:#FFDC6F;}
	.st25{fill:#F4DF96;}
	.st26{fill:#E8BF2D;}
	.st27{fill:#A86016;}
	.st28{fill:#B00E1B;}
	.st29{fill:#90A7B1;}
	.st30{fill:#92A4A6;}
	.st31{fill:#E6BA2C;}
	.st32{fill:#842D0E;}
	.st33{fill:#661E08;}
	.st34{fill:#9C583A;}
	.st35{fill:#B5BFC4;}
	.st36{fill:#8B310C;}
	.st37{fill:#AF4319;}
	.st38{fill:#AE0C1A;}
	.st39{fill:#FFAE19;}
	.st40{fill:#AE4216;}
	.st41{fill:#FFDA68;}
	.st42{fill:#FFDB6C;}
	.st43{fill:#ECAD3D;}
	.st44{fill:#EDAF3F;}
	.st45{fill:#EBA94F;}
	.st46{fill:#F9D358;}
	.st47{fill:#D9740F;}
	.st48{fill:#F9D75F;}
	.st49{fill:#D67411;}
	.st50{fill:#C61F21;}
	.st51{fill:#F0B43A;}
	.st52{fill:#E2AF29;}
	.st53{fill:#B0441A;}
	.st54{fill:#FFE072;}
	.st55{fill:#FF9617;}
	.st56{fill:#FFB72E;}
	.st57{fill:#FEA01E;}
	.st58{fill:#F6BF1E;}
	.st59{fill:#EFC12D;}
	.st60{fill:#FFBA30;}
	.st61{fill:#FFDB51;}
	.st62{fill:#F6AABB;}
	.st63{fill:#ED4A77;}
	.st64{fill:#F6AAB9;}
	.st65{fill:#EE537B;}
	.st66{fill:#F0B33B;}
	.st67{fill:#F9BADA;}
	.st68{fill:#ED4D71;}
	.st69{fill:#FFE272;}
	.st70{fill:#FF9814;}
	.st71{fill:#FE9913;}
	.st72{fill:#FFDD60;}
	.st73{fill:#FFDD72;}
	.st74{fill:#E1AC29;}
	.st75{fill:#FFDE75;}
	.st76{fill:#87B2CE;}
	.st77{fill:#68A2C3;}
	.st78{fill:#5B1C0A;}
	.st79{fill:#FFE087;}
	.st80{fill:#6BA2C4;}
	.st81{fill:#D0D095;}
	.st82{fill:#ED9C19;}
	.st83{fill:#F4918B;}
	.st84{fill:#FFB22D;}
	.st85{fill:#E2EAF6;}
	.st86{fill:#CE5E0D;}
	.st87{fill:#CE600D;}
	.st88{fill:#FFD94E;}
	.st89{fill:#FF8E11;}
	.st90{fill:#FF8C10;}
	.st91{fill:#FFDC67;}
	.st92{fill:#E5A139;}
	.st93{fill:#FFB93C;}
	.st94{fill:#F49795;}
	.st95{fill:#E39C37;}
	.st96{fill:#FF9416;}
	.st97{fill:#FED674;}
	.st98{fill:#FFE684;}
	.st99{fill:#FFE07D;}
	.st100{fill:#C34504;}
	.st101{fill:#F48F90;}
	.st102{fill:#FFDA66;}
	.st103{fill:#FFDA65;}
	.st104{fill:#FFA11D;}
	.st105{fill:#FFA01C;}
	.st106{fill:#B06518;}
	.st107{fill:#E3770A;}
	.st108{fill:#FF9316;}
	.st109{fill:#F59597;}
	.st110{fill:#DB9D25;}
	.st111{fill:#FEAF29;}
	.st112{fill:#FFE380;}
	.st113{fill:#FFD56D;}
	.st114{fill:#FFE481;}
	.st115{fill:#FBE65E;}
	.st116{fill:#F38E8A;}
	.st117{fill:#E9A43B;}
	.st118{fill:#D03C26;}
	.st119{fill:#B92B1F;}
	.st120{fill:#CB4B07;}
	.st121{fill:#CC4806;}
	.st122{fill:#FEEF63;}
	.st123{fill:#FCD56B;}
	.st124{fill:#FFE77E;}
	.st125{fill:#F2AE33;}
	.st126{fill:#6BA1C4;}
	.st127{fill:#FDA310;}
	.st128{fill:#FED45D;}
	.st129{fill:#FFE48F;}
	.st130{fill:#FFE38B;}
	.st131{fill:#FED660;}
	.st132{fill:#DB6B0D;}
	.st133{fill:#FC9B17;}
	.st134{fill:#A48E36;}
	.st135{fill:#1D0402;}
	.st136{fill:#FFE922;}
	.st137{fill:#A36D33;}
	.st138{fill:#FFDC14;}
	.st139{fill:#783710;}
	.st140{fill:#C3BD80;}
	.st141{fill:#A35231;}
	.st142{fill:#C9BA60;}
	.st143{fill:#77380F;}
	.st144{fill:#6D4016;}
	.st145{fill:#FFD426;}
	.st146{fill:#FFEC21;}
	.st147{fill:#FFD418;}
	.st148{fill:#FFCF2A;}
	.st149{fill:#FECF2C;}
	.st150{fill:#9A6621;}
	.st151{fill:#5D493E;}
	.st152{fill:#814E17;}
	.st153{fill:#AD6F10;}
	.st154{fill:#FED12C;}
	.st155{fill:#995E24;}
	.st156{fill:#D58E22;}
	.st157{fill:#9C5E27;}
	.st158{fill:#E0E9F7;}
	.st159{fill:#763410;}
	.st160{fill:#773209;}
	.st161{fill:#BE8B31;}
	.st162{fill:#FDBB26;}
	.st163{fill:#87B1CD;}
	.st164{fill:#FEC211;}
	.st165{fill:#F49229;}
	.st166{fill:#77390B;}
	.st167{fill:#3B0B03;}
	.st168{fill:#E68328;}
	.st169{fill:#E37C24;}
	.st170{fill:#E98A29;}
	.st171{fill:#E37E28;}
	.st172{fill:#E47E21;}
	.st173{fill:#FFB506;}
	.st174{fill:#110302;}
	.st175{fill:#FFC625;}
	.st176{fill:#FFBD12;}
	.st177{fill:#FFC51C;}
	.st178{fill:#FEC514;}
	.st179{fill:#FEAD01;}
	.st180{fill:#400A01;}
	.st181{fill:#C3AD6D;}
	.st182{fill:#370A05;}
	.st183{fill:#390A03;}
	.st184{fill:#D38820;}
	.st185{fill:#DA582A;}
	.st186{fill:#380C06;}
	.st187{fill:#E0692C;}
	.st188{fill:#FFEF63;}
	.st189{fill:#D6B288;}
	.st190{fill:#E9D070;}
	.st191{fill:#EBD179;}
	.st192{fill:#F6D406;}
	.st193{fill:#E7CA66;}
	.st194{fill:#F5D203;}
	.st195{fill:#F7D302;}
	.st196{fill:#F5D102;}
	.st197{fill:#F6D401;}
	.st198{fill:#CE7C1D;}
	.st199{fill:#B88F5A;}
	.st200{fill:#E16A2D;}
	.st201{fill:#77410E;}
	.st202{fill:#FFFEFE;}
</style>
<g id="_x23_ffffffff">
	<path class="st0" d="M59.2,160.3c0.2-0.2,0.6-0.7,0.7-1c-0.2,1.1-0.3,2.3-0.5,3.4c-0.4,2.3-0.8,4.5-1.3,6.8
		c-0.2,1.1-0.5,2.2-0.7,3.3c-0.1,0.6-0.3,1.9-0.3,2.5c-3.8,0-7.6,0.1-11.4-0.4c3.4-0.2,6.8-0.3,10.2-0.3c0.6-2.1,1.3-4.3,1.8-6.5
		C58.2,165.6,58.6,163,59.2,160.3z"/>
</g>
<g id="_x23_703d0fff">
	<path class="st1" d="M109.4,9.7c29.8-4.1,61.1,2.9,85.9,19.9c19.8,13.3,35.1,33,43.7,55.3c11.2,29.2,9.8,63.1-4.1,91.1
		c-16.8,34.9-51.6,60.1-89.9,65.6c-5.3,1.2-10.8,0.8-16.1,1.6c-3,0.4-6.1,0-9.1-0.4c-23.1-0.8-45.8-8.8-64.6-22.2
		c-19.2-13.6-34.2-32.9-42.4-54.9C-0.1,131.4,5.1,91.1,26,61C44.9,33.1,76.1,14,109.4,9.7 M32.9,55.8c-11,13.6-18.4,30-22.1,47
		c-0.5,2.4-0.7,4.8-0.8,7.3c-0.8,1.8-1.2,3.8-1.3,5.8c-0.4,10.6-0.4,21.2,1.5,31.7l0.6,0.3c2.1,12.4,7,24.1,13.2,34.9
		c14.6,25,39,44,66.7,52.5c23.6,7.4,49.6,7.2,73.2-0.4c16.6-5.3,32-14.3,44.8-26.2c17-15.8,29.2-36.8,33.9-59.6
		c1.5-3.9,2.4-9.8-1.6-12.5c-2,0.3-4,1.1-5.9,1.7c-0.4-0.2-1.3-0.6-1.7-0.7c3.7-2.7,8.1-4.7,11.3-8c1.2-3.5,0.5-7.3,0.2-10.9
		c-0.1-4-0.5-8-1.4-11.9c-1.1-6.4-2.5-12.9-5.3-18.8c-3.8-11.6-10-22.3-17.5-31.9C197.6,25.9,158.9,8.8,121,11
		C87,12.2,54,29.1,32.9,55.8z"/>
</g>
<g id="_x23_fcf571ff">
	<path class="st2" d="M32.9,55.8C54,29.1,87,12.2,121,11c37.8-2.2,76.5,14.9,99.7,45.1c-1.2,0.7-2.5,1.3-3.7,2
		c-5.7-5-10.6-10.9-16.7-15.4c-18.3-13.6-40.3-22.4-63.1-24.2c-5.4-0.5-11-1.2-16.4-0.1c-0.2,0.4-0.5,1.2-0.7,1.6
		c-3.8-1.1-7.7-2.1-11.6-1.6c-7.4,0.8-15.4,1.7-20.9,7.3c-6.5,0-12.2,3.7-17.6,6.9c2.2,0.3,4.3,0.5,6.5,0.9
		C64.6,34.1,54.3,41,45.6,48.6c-3.6,3.2-6.8,6.9-9.8,10.6c-0.5,0.6-1,1.2-1.5,1.8C33.8,59.3,33.4,57.6,32.9,55.8z"/>
</g>
<g id="_x23_fcf6a6ff">
	<path class="st3" d="M108.4,18.4c4-0.4,7.9,0.5,11.6,1.6c-0.7,1.8-1.5,3.8-3.4,4.7c-7.1,4-15.2,7.7-23.6,6.2
		c-2.9-0.3-4.2-3.1-5.6-5.2C93,20.1,101.1,19.2,108.4,18.4z"/>
</g>
<g id="_x23_f8e94bff">
	<path class="st4" d="M120.7,18.4c5.4-1.1,11-0.4,16.4,0.1c22.8,1.8,44.8,10.5,63.1,24.2c6.1,4.5,11,10.4,16.7,15.4
		c1.2-0.7,2.5-1.3,3.7-2c7.5,9.6,13.7,20.3,17.5,31.9c-0.1,0.8-0.2,2.3-0.3,3c-6-11.2-11.6-22.9-20.9-31.9c-5.1,2.4-10.1,5-15.2,7.4
		c-1.9-2.3-4.1-4.4-6-6.7c-0.9-3.1-1.9-6.1-3.1-9c-1.1,1.2-2.2,2.4-3.2,3.6c-13.5-11.5-30.4-18.2-47.6-21.7c-4.5-0.6-9-1.3-12.9-3.8
		c-2-1.2-4.2-0.9-6.1,0.3c-2,1.2-3.9,2.6-5.7,4l-0.8-0.1c-19.6,0.7-38.4,9.7-53.3,22c-1-1.6-2-3-3.1-4.5c4.7-4.8,11-7.2,16-11.6
		c1.9-1.4,1.9-3.9,0.4-5.5c-2.2-0.3-4.3-0.6-6.5-0.9c5.4-3.2,11.1-7,17.6-6.9c1.4,2.1,2.7,4.9,5.6,5.2c8.3,1.5,16.5-2.1,23.6-6.2
		c1.9-0.9,2.7-2.9,3.4-4.7C120.2,19.6,120.6,18.8,120.7,18.4z"/>
</g>
<g id="_x23_ef6a73ff">
	<path class="st5" d="M122.9,29.2c1.9-1.2,4.1-1.6,6.1-0.3c-0.3,2.2-0.6,4.4-0.9,6.6c-1.5-0.4-3-0.7-4.5-0.8
		c0.8-0.3,2.4-0.8,3.2-1.1c0.9-1.6-0.8-2.3-1.9-3.1C124.5,30.2,123.4,29.6,122.9,29.2z"/>
</g>
<g id="_x23_ebaa4bff">
	<path class="st6" d="M129,28.9c3.9,2.5,8.4,3.2,12.9,3.8c-2,0-4,0-5.9,0.1c-1.3,2-2.6,3.9-3.8,5.9c-0.3,0.6-0.8,1.7-1.1,2.2
		c-1.3,0-2.6-0.1-3.9-0.1c-2.3-0.1-4.6-0.4-6.9-0.7c-0.2-0.6-0.8-1.7-1-2.3c-0.8-1.6-1.8-3.2-2.7-4.8l0.8,0.1
		c1.4,0.2,2.8,0.7,4.2,0.4c1.5-0.8,1-3,1.5-4.4c0.5,0.3,1.6,1,2.1,1.3c-0.5,1.4-0.9,2.7-1.3,4.1c1.5,0.2,3,0.5,4.5,0.8
		C128.4,33.3,128.7,31.1,129,28.9z"/>
</g>
<g id="_x23_fceb82ff">
	<path class="st7" d="M117.2,33.2c1.9-1.4,3.7-2.8,5.7-4c-0.5,1.4,0,3.5-1.5,4.4C120,33.9,118.6,33.3,117.2,33.2z"/>
</g>
<g id="_x23_f6a3beff">
	<path class="st8" d="M123.7,34.7c0.4-1.4,0.9-2.8,1.3-4.1c1.1,0.8,2.8,1.4,1.9,3.1C126.1,33.9,124.5,34.4,123.7,34.7z"/>
</g>
<g id="_x23_a65d16ff">
	<path class="st9" d="M63.1,55.1c14.9-12.4,33.7-21.4,53.3-22c0.9,1.6,1.9,3.1,2.7,4.8c-7.8,0.7-15.6,1.2-23.2,3.3
		c-11.5,3.2-22.6,8.2-32.4,15.3C63.5,56,63.2,55.4,63.1,55.1z"/>
</g>
<g id="_x23_a55e16ff">
	<path class="st10" d="M132.1,38.7c1.2-2,2.5-4,3.8-5.9c2,0,4-0.1,5.9-0.1c17.2,3.5,34.1,10.2,47.6,21.7c-1.5,2.6-2.6,5.4-3.9,8
		C171,49,151.8,40.6,132.1,38.7z"/>
</g>
<g id="_x23_fbf3a4ff">
	<path class="st11" d="M45.6,48.6c8.7-7.5,19-14.5,30.8-15.1c1.5,1.7,1.6,4.1-0.4,5.5c-5,4.3-11.4,6.8-16,11.6
		c-0.3,0.3-0.9,0.9-1.2,1.2c-4.3,4.2-8.8,8.2-12.8,12.7c-3.9-0.8-7.5-2.5-10.3-5.3C38.8,55.4,42,51.8,45.6,48.6z"/>
</g>
<g id="_x23_ae0a1aff">
	<path class="st12" d="M96,41.1c7.5-2.1,15.4-2.6,23.2-3.3c0.3,0.6,0.8,1.7,1,2.3c0.4,2,0.7,4,0.8,6c0,1.2,0,2.5,0,3.7
		c0,1.3,0,2.5,0,3.8c-0.4,0.2-1.1,0.7-1.4,1c-9.9,6.5-20.3,12.1-31,17.2c-3.8,1.8-7.8,3.2-11.7,4.7c-4.4-5.1-8.2-10.7-11.6-16.6
		c-0.5-1.2-1-2.4-1.5-3.6C73.3,49.3,84.4,44.3,96,41.1z"/>
	<path class="st12" d="M132.1,38.7c19.7,1.9,38.9,10.3,53.5,23.7c-0.2,0.4-0.6,1.2-0.8,1.6c-3,4.3-6,8.7-9.4,12.7
		c-7.3-3.1-14.6-6.2-21.6-9.9c-7.7-4.1-15.1-8.8-22.7-13.1c0.1-4.2-0.3-8.5-0.2-12.7C131.3,40.4,131.8,39.2,132.1,38.7z"/>
</g>
<g id="_x23_b26c4aff">
	<path class="st13" d="M120.2,40.1c2.3,0.3,4.6,0.6,6.9,0.7c0.2,1.6,0.4,3.1,0.6,4.7c-2.2,0.2-4.4,0.5-6.7,0.7
		C120.8,44.2,120.6,42.1,120.2,40.1z"/>
</g>
<g id="_x23_823e25ff">
	<path class="st14" d="M127.1,40.8c1.3,0,2.6,0.1,3.9,0.1c-0.1,4.2,0.2,8.5,0.2,12.7c-0.1,3.1-0.1,6.2,0.2,9.3
		c0.4,0.5,1.3,1.4,1.8,1.8c-1.2,0.4-2.4,0.7-3.7,1.1c-1.9-1.1-4-1.9-6.2-2.5c1.7-0.8,3.4-1.7,5.1-2.5c-2.3-0.6-4.6-1.2-6.8-1.7
		c1.6-0.4,3.2-0.8,4.9-1.2c0.4-3,0.8-6,0.9-9.1c-2.1,0.3-4.3,0.6-6.4,0.9c0-1.2,0-2.5,0-3.7c2.2-0.2,4.4-0.4,6.7-0.7
		C127.5,44,127.3,42.4,127.1,40.8z"/>
</g>
<g id="_x23_a15d3eff">
	<path class="st15" d="M121,49.9c2.1-0.3,4.3-0.6,6.4-0.9c-0.1,3-0.5,6.1-0.9,9.1c-1.6,0.4-3.2,0.8-4.9,1.2c2.3,0.5,4.6,1.1,6.8,1.7
		c-1.7,0.9-3.4,1.7-5.1,2.5c2.2,0.6,4.3,1.4,6.2,2.5c-3.7,1.4-7.9,2.3-11.6,0.3c4.1-3,3.1-8.2,3-12.5C120.9,52.4,121,51.2,121,49.9z
		"/>
</g>
<g id="_x23_ffa91fff">
	<path class="st16" d="M58.8,51.7c0.3-0.3,0.9-0.9,1.2-1.2c1.1,1.5,2.1,3,3.1,4.5c0.1,0.3,0.4,1,0.5,1.3c0.5,1.2,1,2.4,1.5,3.6
		c-1.2-1-2.4-2-3.6-3c0.3,4.8,1.1,9.7,3.1,14.2c2.3,5.7,7.1,9.8,10.3,15L74.8,87c-0.6,2.3-1.4,4.6-2.1,6.8c-2-2.2-4.1-4.4-6-6.6
		c-5.3-7.9-9.4-16.8-9.6-26.4C57.3,57.7,58,54.7,58.8,51.7z"/>
</g>
<g id="_x23_ffaa1cff">
	<path class="st17" d="M189.5,54.4c1-1.3,2.1-2.5,3.2-3.6c1.2,3,2.2,6,3.1,9c-0.5,3.6-1,7.3-1.8,10.9c-2.3,7.4-6.7,13.9-10.8,20.5
		c0.4-0.1,1.2-0.3,1.5-0.3c-1.8,3.2-1.7,6.9,0,10.2c4.5-2.7,8.9-6,11.7-10.5c3-4.1,3.9-9.2,4.6-14.2c-2.1,1.5-4.3,3-6.3,4.7
		c1.2-1.7,2.3-3.5,3.5-5.2c1.3-1.5,2.9-2.8,4.5-4c2.3,4.4,3,9.4,1.9,14.2c-3.1,7.6-8.2,14.3-14.6,19.3c-1.7,1.3-3.6,2.4-5.4,3.6
		c0.1-2.9-0.4-5.9-2.3-8.2c-3.1-4-3.8-9.2-5.1-13.9c2.7-4.7,6.6-8.6,9.4-13.2c2.9-5,3.6-10.9,4.2-16.5c-2,2.3-4,4.6-6,6.9
		c0.2-0.4,0.6-1.2,0.8-1.6C186.9,59.7,188,57,189.5,54.4z"/>
</g>
<g id="_x23_f5e246ff">
	<path class="st18" d="M46.1,64.5c3.9-4.6,8.4-8.6,12.8-12.7c-0.9,3-1.5,6-1.8,9.1c-2,2.1-4.1,4.2-5.9,6.5c-1.8-0.8-3.7-1.6-5.5-2.3
		L46.1,64.5z"/>
</g>
<g id="_x23_98908cff">
	<path class="st19" d="M119.5,54.7c0.4-0.2,1.1-0.7,1.4-1c0.1,4.3,1.1,9.6-3,12.5c-11.4,6.6-23.2,12.5-35.3,17.9
		c-0.2-0.3-0.6-0.8-0.8-1.1c4.5-1.9,9-4,13.4-6.2c7.7-4.1,15.6-7.8,22.8-12.7C121.6,62.1,119.8,57.8,119.5,54.7z"/>
</g>
<g id="_x23_7b8f97ff">
	<path class="st20" d="M131.4,63c-0.4-3.1-0.3-6.2-0.2-9.3c7.6,4.3,15,9,22.7,13.1c-1.7,1.1-3.4,2.5-5.5,2.9
		c-5-3.2-9.9-6.4-15.5-8.4C132.6,61.7,131.8,62.6,131.4,63z"/>
</g>
<g id="_x23_d9e1e4ff">
	<path class="st21" d="M88.5,71.8c10.7-5.1,21.1-10.7,31-17.2c0.3,3.2,2.1,7.5-1.5,9.4c-7.2,4.9-15.1,8.7-22.8,12.7
		c-1.5-0.1-2.9-0.2-4.4-0.3c3.2-2.2,6.5-4.3,9.5-6.7c-3.3,0.8-6.5,2.1-9.5,3.8C90.1,73,89.3,72.4,88.5,71.8 M105.5,65.2
		c0.7,1.3,1.5,3,3.4,2.8c1.8-1.3,0.3-3.1-0.5-4.4C107.6,64,106.2,64.8,105.5,65.2z"/>
	<path class="st21" d="M98,158.1c3.1-0.6,6.2-1.5,9.3-2.3c0.2,0.1,0.7,0.2,0.9,0.2c-6.8,2.1-14,6.4-15.4,13.9
		c-0.1,0.5-0.4,1.4-0.5,1.8c-0.2,1.2-0.5,2.4-0.6,3.6c-0.2-1.8-0.2-3.5-0.2-5.3c0-0.5,0-1.4,0-1.8C93.4,164.6,96.4,161.8,98,158.1z"
		/>
	<path class="st21" d="M199.8,161.1c2.3-1.7,4.8-3,7.4-4l0.9,0.2c-5.4,2.3-10.1,6.4-11.8,12.2c-0.3,1.1-0.6,2.3-0.8,3.5
		c-0.1,0.6-0.2,1.7-0.3,2.2c-0.2-0.4-0.6-1.2-0.8-1.6C195,169,196.4,164.4,199.8,161.1z"/>
</g>
<g id="_x23_f2db43ff">
	<path class="st22" d="M10.8,102.9c3.7-17,11.1-33.4,22.1-47c0.4,1.7,0.9,3.4,1.3,5.2c-8.6,11.2-14.9,24.2-17.8,38.1
		c-0.3-0.5-1-1.4-1.4-1.9c-1.5,4.4-3.2,8.7-5.1,13C10.1,107.7,10.3,105.3,10.8,102.9z"/>
</g>
<g id="_x23_ffdc70ff">
	<path class="st23" d="M61.6,57c1.2,1,2.4,1.9,3.6,3c3.4,5.8,7.3,11.4,11.6,16.6c1.5,1.8,2.9,3.5,4.3,5.4c-1,1.4-2,2.8-2.9,4.2
		c-1.1,0-2.1,0.1-3.1,0.1c-3.2-5.1-8-9.3-10.3-15C62.7,66.8,61.9,61.9,61.6,57z"/>
</g>
<g id="_x23_ffdc6fff">
	<path class="st24" d="M184.8,64c1.9-2.4,4-4.6,6-6.9c-0.6,5.6-1.2,11.5-4.2,16.5c-2.7,4.7-6.7,8.5-9.4,13.2c-1.5-0.5-3-1-4.5-1.6
		c-0.2-1.4-0.4-2.9-0.6-4.3c1.1-1.4,2.1-2.8,3.3-4.2C178.9,72.7,181.9,68.3,184.8,64z"/>
</g>
<g id="_x23_f4df96ff">
	<path class="st25" d="M34.2,61c0.5-0.6,1-1.2,1.5-1.8c2.8,2.8,6.5,4.5,10.3,5.3L45.6,65c-6.7,8-13.8,16-18,25.7
		c-2.7,6.2-5.1,12.5-8.5,18.5c-0.6,0.3-1.8,0.8-2.4,1.1c-0.5-3.7-0.9-7.4-0.4-11.1C19.4,85.2,25.6,72.2,34.2,61z"/>
	<path class="st25" d="M172.1,160.4c0.4-0.6,0.8-1.1,1.2-1.7c0.1,0.9,0.3,2.5,0.5,3.4c-0.5,2.6-1.3,5.1-1.8,7.7
		c-0.1,1.1-0.1,2.2-0.2,3.3c-2.8,3.9-8.1,2.8-12,1.6c3.2,0.2,6.5,0,9.7-0.2C170.7,169.9,171.2,165.1,172.1,160.4z"/>
</g>
<g id="_x23_e8bf2dff">
	<path class="st26" d="M201.7,66.5c5.1-2.4,10.1-5,15.2-7.4c9.2,9,14.9,20.7,20.9,31.9c0.1-0.8,0.2-2.3,0.3-3
		c2.8,5.9,4.1,12.4,5.3,18.8c-0.2,2.1-0.4,4.3-0.7,6.4c-2.1-5.9-2.6-13-7.6-17.3c-3.8-1.7-8.2-0.5-12.2-0.9c-4.5,0.2-5.8-5-8-8
		C211.1,79.8,207,72.8,201.7,66.5z"/>
</g>
<g id="_x23_a86016ff">
	<path class="st27" d="M194,70.7c0.8-3.6,1.3-7.2,1.8-10.9c1.9,2.3,4,4.5,6,6.7c5.2,6.2,9.4,13.2,13.3,20.4
		c3.9,10,7.2,20.3,7.8,31.1c0.3,6-0.8,11.9-1.5,17.8c-0.6,7-3.3,13.6-5.1,20.3c-2.1,0-4.2,0-6.3,0c1.5-0.6,3-1.3,4.5-1.9
		c1.8-7.2,2.8-14.6,2.8-22c-0.5-16-3.3-32.8-12.6-46.2c1-4.8,0.4-9.8-1.9-14.2c-1.6,1.2-3.2,2.5-4.5,4C196.8,74,195.4,72.3,194,70.7
		z"/>
</g>
<g id="_x23_b00e1bff">
	<path class="st28" d="M51.2,67.3c1.9-2.3,3.9-4.4,5.9-6.5c0.2,9.6,4.3,18.5,9.6,26.4c0.1,0.4,0.4,1.3,0.5,1.7
		c-1.9-1.1-3.8-2.3-5.5-3.6c-3.5-4.8-7.3-9.5-11.5-13.7c-3,4.4-3.7,10.1-1.9,15.2c2.5,6.9,7.4,12.6,12.9,17.3
		c-0.5,0.2-1.6,0.7-2.1,0.9c-2-1.6-4-3.3-5.9-5c-2.4-2.3-4.9-4.6-7.5-6.7c-1.2,7.9,2.5,15.7,7.5,21.6c3.9,4.7,8.8,8.5,14.1,11.6
		c-2.1-0.1-4.2-0.2-6.2-0.5c-5.8-2.4-11.8-4.7-17-8.3c-1.3-0.9-2.7-1.8-4.1-2.6c1.8,7.3,7.1,13,12.5,17.9c-0.2,0.6-0.6,1.9-0.9,2.5
		c-6.3,1.3-13.5,0-18.7,4.5c-0.7-3.4-1.4-6.8-1.9-10.2c-0.6-8.3-0.4-16.6,1.6-24.7C35.8,91.3,42.3,78.3,51.2,67.3z"/>
</g>
<g id="_x23_90a7b1ff">
	<path class="st29" d="M131.4,63c0.4-0.4,1.1-1.3,1.5-1.8c5.6,2,10.5,5.2,15.5,8.4c2.1-0.4,3.8-1.8,5.5-2.9c7,3.7,14.3,6.9,21.6,9.9
		c-1.1,1.4-2.2,2.8-3.3,4.2c-0.7,1-1.4,2-2.2,3c-9.7-4.4-19.3-8.9-28.4-14.3c-1.8-1-3.6-2-5.4-2.9c-1-0.6-2-1.1-2.9-1.8
		C132.8,64.4,131.9,63.5,131.4,63z"/>
</g>
<g id="_x23_92a4a6ff">
	<path class="st30" d="M105.5,65.2c0.7-0.4,2.1-1.3,2.8-1.7c0.8,1.3,2.3,3.1,0.5,4.4C107,68.3,106.2,66.6,105.5,65.2z"/>
</g>
<g id="_x23_e6ba2cff">
	<path class="st31" d="M27.7,90.7C31.9,81,39,73,45.6,65c1.8,0.8,3.7,1.5,5.5,2.3c-8.9,11-15.4,24-18.7,37.8
		c-2.4-0.5-4.8-1.3-7.3-1.1c-2.4,1.1-4,3.5-5.9,5.2C22.5,103.2,25,96.9,27.7,90.7z"/>
</g>
<g id="_x23_842d0eff">
	<path class="st32" d="M129.6,65.9c1.2-0.4,2.4-0.7,3.7-1.1c1,0.6,1.9,1.2,2.9,1.8c0.5,3.5,1.2,6.9,1.9,10.4
		c-0.9-0.8-1.8-1.6-2.6-2.4c-0.8,1.8-1.6,3.6-2.3,5.5c-2.6-0.3-5.2-0.8-7.8-1.4c0.3-1.1,0.6-2.3,1-3.4c-2.3-0.4-4.6-0.8-6.9-1.2
		c3.8-1.1,7.5-2.4,11-4c-3.7-1-9.2-3.3-11.9,0.6c-2,5.5,0.3,11.6-0.9,17.3c-0.2,0.4-0.6,1.3-0.8,1.8c-3.7-6-0.4-13.8-4.8-19.4
		c-0.9,3.1-1.4,6.2-1.5,9.4c-0.8-1.5-1.7-2.9-2.6-4.3c-2,0.8-4.1,1.5-5.9,2.8c-1.1,3.1-0.9,6.4-1.4,9.6c-0.4,0.2-1.2,0.5-1.7,0.6
		c-3.4-1.2-6.7-2.9-10.1-4.4c0.3,1.6,0.6,3.1,0.9,4.7c-0.1,0.6-0.5,1.8-0.6,2.4c-2.1-2.1-4.2-4.2-6.1-6.4l-0.5-0.6
		c12.1-5.4,23.9-11.3,35.3-17.9C121.7,68.3,125.8,67.4,129.6,65.9z"/>
</g>
<g id="_x23_661e08ff">
	<path class="st33" d="M136.2,66.6c1.8,1,3.6,1.9,5.4,2.9c-2.6,7-0.2,14.6,0.5,21.8l-0.9,0.1c-0.8-0.1-2.3-0.1-3.1-0.2
		c0.7-4.7,1.1-9.5,0.1-14.2C137.4,73.6,136.7,70.1,136.2,66.6z"/>
</g>
<g id="_x23_9c583aff">
	<path class="st34" d="M118.6,70.7c2.7-4,8.2-1.6,11.9-0.6c-3.6,1.6-7.3,3-11,4c2.3,0.4,4.6,0.8,6.9,1.2c-0.3,1.1-0.6,2.3-1,3.4
		c2.6,0.6,5.2,1.1,7.8,1.4c0,1.7,0.2,3.4,0.4,5c-0.2-0.6-0.7-1.8-0.9-2.3c-4.4-0.3-8.9-0.6-13.2,0.2l-0.3,0.8
		c-0.5,1.4-1,2.8-1.5,4.2C118.9,82.3,116.6,76.3,118.6,70.7z"/>
</g>
<g id="_x23_b5bfc4ff">
	<path class="st35" d="M90.9,73.6c2.9-1.7,6.1-3,9.5-3.8c-3.1,2.4-6.3,4.5-9.5,6.7c1.5,0.1,2.9,0.3,4.4,0.3
		c-4.4,2.2-8.8,4.3-13.4,6.2c-0.2-0.3-0.6-0.8-0.8-1.1c-1.4-1.8-2.8-3.6-4.3-5.4c3.9-1.5,7.9-3,11.7-4.7
		C89.3,72.4,90.1,73,90.9,73.6z"/>
	<path class="st35" d="M38.1,156.9c10.6-1.3,21.4-0.2,32-0.7c2.3,0.1,4.6,0.1,6.9,0.4h-0.1c-12.2,0.2-24.5-0.3-36.7,0.3
		c-0.2,0.8-0.5,2.3-0.6,3.1c-0.7,3.3-1.1,6.6-1.9,9.8c-0.7,2.5-1.6,5-2.6,7.4c0.5-4.7,1.5-9.3,2.5-13.9c0.2-1.1,0.4-2.3,0.6-3.4
		C38.2,159.2,38.2,157.6,38.1,156.9z"/>
</g>
<g id="_x23_8b310cff">
	<path class="st36" d="M142,91.3c-0.7-7.1-3.1-14.8-0.5-21.8c9.1,5.4,18.8,9.9,28.4,14.3c-0.4,0.5-1.3,1.6-1.8,2.1
		c-1.2,1.4-2.5,2.6-3.8,4c-1,1.2-1.9,2.4-2.7,3.6c-2.3,3.4-4.8,6.6-7.9,9.2c-4.2,3.4-7.1,8-10.8,11.9c-0.4,0.4-1.3,1.3-1.7,1.8
		c-0.4-5.4-0.2-10.8,0.4-16.2c5.1,1.6,10-1,14.3-3.4c3.7-2.1,4.9-6.4,6.1-10.1c0.1-0.5,0.5-1.5,0.6-2C156,87.6,149.2,90.4,142,91.3z
		"/>
</g>
<g id="_x23_af4319ff">
	<path class="st37" d="M112.1,70.4c4.5,5.6,1.2,13.5,4.8,19.4c-1.3,0.8-2.7,1.9-4.3,1.7c-4.7-0.3-9.2-1.5-13.6-3
		c0.4-0.2,1.2-0.5,1.7-0.6c0.5-3.2,0.4-6.5,1.4-9.6c1.8-1.3,3.9-2,5.9-2.8c0.9,1.4,1.8,2.9,2.6,4.3
		C110.7,76.7,111.2,73.5,112.1,70.4z"/>
</g>
<g id="_x23_ae0c1aff">
	<path class="st38" d="M194,70.7c1.4,1.7,2.8,3.4,4.2,5.1c-1.2,1.7-2.3,3.4-3.5,5.2c-3.3,3.3-6.4,6.8-9.9,9.9
		c-0.4,0.1-1.1,0.2-1.5,0.3C187.3,84.6,191.7,78.1,194,70.7z"/>
</g>
<g id="_x23_ffae19ff">
	<path class="st39" d="M50.1,71.6c4.2,4.2,8,8.9,11.5,13.7l0.5,0.6c-3.5-2.9-6.9-6-10.2-9c-0.1,10.1,6.4,19.4,15.4,23.6
		c0.9-2.3,1.5-4.8,1.9-7.3c1,1,2.1,2,3.1,3c-1.3,2.6-3,5-4.9,7.2c0.1,1.8,0.3,3.6,0.4,5.4c-2.3-1.5-4.6-3-6.8-4.7
		c-5.5-4.7-10.4-10.4-12.9-17.3C46.4,81.8,47.1,76.1,50.1,71.6z"/>
</g>
<g id="_x23_ae4216ff">
	<path class="st40" d="M133.2,80.2c0.7-1.9,1.5-3.7,2.3-5.5c0.9,0.8,1.7,1.6,2.6,2.4c1,4.7,0.6,9.5-0.1,14.2
		c0.8,0.1,2.3,0.1,3.1,0.2c-1.8,0.1-3.5,0-5.3-0.4c-0.8-1.9-1.5-3.9-2.2-5.8C133.4,83.5,133.3,81.8,133.2,80.2z"/>
</g>
<g id="_x23_ffda68ff">
	<path class="st41" d="M194.7,80.9c2.1-1.6,4.2-3.1,6.3-4.7c-0.7,4.9-1.6,10-4.6,14.2c-2.8,4.5-7.2,7.8-11.7,10.5
		c-1.6-3.3-1.7-6.9,0-10.2C188.2,87.7,191.4,84.2,194.7,80.9z"/>
</g>
<g id="_x23_ffdb6cff">
	<path class="st42" d="M52,76.9c3.3,3.1,6.7,6.1,10.2,9c2.2,2.6,4.5,5,7.1,7.3c-0.4,2.5-1,4.9-1.9,7.3C58.3,96.3,51.8,87,52,76.9z"
		/>
</g>
<g id="_x23_ecad3dff">
	<path class="st43" d="M172.2,80.9c0.2,1.4,0.4,2.9,0.6,4.3c1.5,0.5,3,1,4.5,1.6c-1.1,1.2-2.3,2.4-3.5,3.6c-2.4-0.7-4.5-2.1-5.6-4.4
		c0.4-0.5,1.3-1.6,1.8-2.1C170.7,82.9,171.4,81.9,172.2,80.9z"/>
</g>
<g id="_x23_edaf3fff">
	<path class="st44" d="M78.1,86.1c1-1.4,2-2.8,2.9-4.2c0.2,0.3,0.6,0.8,0.8,1.1c0.2,0.3,0.6,0.8,0.8,1.1l0.5,0.6
		c0.3,1.2,0.5,2.3,0.8,3.5c-1.6,0.6-3.1,1.3-4.7,1.6c-1.6-0.6-3-1.7-4.4-2.8l0.2-0.8C76,86.2,77.1,86.2,78.1,86.1z"/>
</g>
<g id="_x23_eba94fff">
	<path class="st45" d="M119.5,83.1c4.4-0.8,8.8-0.5,13.2-0.2c0.2,0.6,0.7,1.8,0.9,2.3c0.7,2,1.4,3.9,2.2,5.8c-2.5-0.7-5-1.3-7.5-1.9
		c0.2,0.8,0.4,1.7,0.6,2.5l0.3,0.8c-0.6,0.1-1.7,0.2-2.2,0.3c-1.2,0.2-2.5,0.4-3.7,0.6c1.2-0.8,2.4-1.5,3.6-2.3
		c-0.3-0.1-0.8-0.3-1.1-0.4c-1.6-0.8-3.1-1.6-4.6-2.5c2.1-0.5,4.2-1.1,6.4-1.6c0.5-0.9,1-1.9,1.5-2.8c-3.3,0-6.5,0-9.8,0.1
		L119.5,83.1z"/>
</g>
<g id="_x23_f9d358ff">
	<path class="st46" d="M88.9,84.1c3.3,1.5,6.6,3.2,10.1,4.4c4.4,1.5,9,2.7,13.6,3c1.6,0.2,3-0.8,4.3-1.7c0.2-0.4,0.6-1.3,0.8-1.8
		c0.5-1.4,1-2.8,1.5-4.2c3.3-0.1,6.5-0.1,9.8-0.1c-0.5,0.9-1,1.9-1.5,2.8c-2.1,0.5-4.2,1-6.4,1.6c1.5,0.8,3,1.7,4.6,2.5
		c-3.8,0.3-7.3,1.6-10.5,3.6c0,1.1,0.1,2.3,0.1,3.4c0.4,0.2,1.3,0.7,1.8,0.9c1.2-0.6,2.3-1.1,3.5-1.7c0.2,0.2,0.5,0.7,0.7,1
		c-0.4,1-0.8,1.9-1.2,2.9l-0.8-0.1l-1,0c-1-0.1-2-0.1-3-0.2c-1.8-2-3.6-3.9-5.5-5.8c-1.4,0.8-2.8,1.6-4.2,2.4
		c-0.3-1.4-0.6-2.8-0.9-4.1c-1.2-0.2-2.4-0.4-3.6-0.7c-1.6-0.5-2.8,0.9-3.8,1.9c-0.8,0.8-1.6,1.5-2.4,2.3c-2-2.3-3.8-4.9-5.2-7.6
		C89.5,87.2,89.2,85.7,88.9,84.1z"/>
</g>
<g id="_x23_d9740fff">
	<path class="st47" d="M61.7,85.3c1.8,1.3,3.6,2.5,5.5,3.6c-0.1-0.4-0.4-1.3-0.5-1.7c2,2.2,4,4.4,6,6.6c0.7-2.3,1.4-4.5,2.1-6.8
		c1.4,1.1,2.8,2.2,4.4,2.8c1.6-0.3,3.2-1,4.7-1.6c-0.2-1.2-0.5-2.3-0.8-3.5c1.9,2.3,4,4.3,6.1,6.4c-0.7-0.2-2-0.7-2.6-1l0,0.8
		c-0.2,3.4-0.7,6.9-0.9,10.3c-2.6-2.6-4.7-5.6-6.8-8.5c-0.8-0.8-1.7-1.4-2.6-2.1c-1.7,4.7-0.2,9.5,0.3,14.2c-1.5,4-2.8,8.3-1.7,12.7
		c-3.4,0.2-6.8,0.7-10.2,1.2c2.9,3.7,6.1,8,11.1,8.7c0.7,2.7,2.1,5.1,3.4,7.5c-2.5,0.4-4.9,0.9-7.4,1.4c2.4,2.4,4.6,5.2,7.7,6.7
		c1.3,0.7,2.5-0.3,3.7-0.7c2,3.6,4.8,6.6,8.3,8.7c2.4,1.6,5,3.1,6.1,5.9c-1.3-0.3-2.7-0.5-4-0.7c-3.3-0.3-6.6-0.2-9.8-0.1
		c1-0.7,2.1-1.3,3.1-2c0-0.7,0.1-1.5,0.1-2.2c-0.4-1.7-0.9-3.8-2.8-4.4c-4.7-1.3-9.7-0.9-14.6-1.5c2.1-0.1,4.2-0.3,6.3-0.4
		c-1.1-0.5-2.2-0.9-3.2-1.4c0.5-0.4,1.5-1.1,2.1-1.4c-1.6-2.4-3.2-4.9-4.5-7.6c0.5-1.3,2-3,0.4-4.1c-2.9-2.4-6.5-3.6-9.9-5.2
		c2.1,0.3,4.1,0.4,6.2,0.5c0.5,0,1.6,0,2.1,0c-2.5-3-5.2-6.1-6.3-9.9c2.7-0.1,4.9-1.5,6.6-3.5c-1.4-1.1-2.7-2.2-4.1-3.2
		c-2.1-1.6-4.3-3.2-6.4-4.9c0.5-0.2,1.6-0.7,2.1-0.9c2.2,1.7,4.5,3.2,6.8,4.7c-0.1-1.8-0.3-3.6-0.4-5.4c1.9-2.2,3.6-4.6,4.9-7.2
		c-1-1-2.1-2-3.1-3c-2.5-2.3-4.9-4.7-7.1-7.3L61.7,85.3z"/>
</g>
<g id="_x23_f9d75fff">
	<path class="st48" d="M142,91.3c7.2-1,13.9-3.7,20.6-6.6c-0.2,0.5-0.5,1.5-0.6,2c-2,2.5-4,5.9-7.7,5.6c-0.7,0-2.1,0-2.9,0
		c-0.7,0-2.2,0-2.9,0c-0.2,1.2-0.5,2.4-0.7,3.6c-1.3-0.3-2.6-1.1-4-0.9c-2.9,0.7-4.5,3.4-6.2,5.6c-0.8-0.1-1.6-0.2-2.4-0.3
		c0.6-1.9,2.4-3.8,1.5-5.9c-1.8-2.6-5-2.8-7.8-2.8c-0.2-0.8-0.4-1.7-0.6-2.5c2.5,0.5,5,1.2,7.5,1.9c1.7,0.4,3.5,0.5,5.3,0.4
		L142,91.3z"/>
</g>
<g id="_x23_d67411ff">
	<path class="st49" d="M164.4,90c1.2-1.4,2.5-2.6,3.8-4c1.1,2.3,3.2,3.7,5.6,4.4c1.1-1.2,2.3-2.4,3.5-3.6c1.3,4.8,2,9.9,5.1,13.9
		c1.9,2.3,2.3,5.3,2.3,8.2c1.8-1.2,3.6-2.3,5.4-3.6c0.5,0.2,1.5,0.5,2,0.7c-1.8,1.4-3.7,2.7-5.5,4.1c-1.4,1.2-2.6,2.5-3.9,3.8
		c2,1.6,4.3,2.6,6.9,2.6c-0.4,0.9-0.8,1.8-1.2,2.7c-3.6-0.3-7.1-1.4-10.2-3.1c0.4-5-3-9.6-1.9-14.6c0.8-3.6,0.6-7.3-0.5-10.8
		c-1.9,1.8-3.5,3.8-5.1,5.9c-1.2,1.7-2.5,3.3-3.9,4.8c-0.3-3.4-0.5-6.8-0.7-10.3C165.7,90.8,164.9,90.3,164.4,90z"/>
</g>
<g id="_x23_c61f21ff">
	<path class="st50" d="M204.6,85.9c9.4,13.4,12.2,30.2,12.6,46.2c-4.9,3.8-11.2,3.8-17,4.2c-0.5-0.8-0.9-1.5-1.4-2.3
		c4.7-3.8,9.1-8.4,11.4-14c0.5-1.1,0.9-2.1,1.4-3.2c-6.9,3-13.4,6.6-20.4,9.3c-2.2,0.3-4.4,0.4-6.6,0.5c12.5-6.5,23.5-19,22.7-33.9
		c-1,0.9-2,1.9-2.9,2.8c-3.8,3.7-8,7.1-12.3,10.3c-0.5-0.2-1.5-0.5-2-0.7C196.4,100.2,201.5,93.5,204.6,85.9z"/>
</g>
<g id="_x23_f0b43aff">
	<path class="st51" d="M154.3,92.3c3.6,0.3,5.7-3.2,7.7-5.6c-1.1,3.8-2.4,8-6.1,10.1c-4.3,2.4-9.2,5-14.3,3.4
		c-1.1-0.2-3.4-0.1-3.1,1.7c-0.2,5.5-0.3,11,0.8,16.4c-0.3,0.3-1,0.9-1.3,1.3c0.7-6.3,0.4-12.7-0.4-18.9c1.7-2.2,3.3-4.8,6.2-5.6
		c1.4-0.2,2.7,0.6,4,0.9l0.9,0.3c1.6,0.4,3.3,1.6,4.9,0.4C153.9,95.2,154.1,93.8,154.3,92.3z"/>
</g>
<g id="_x23_e2af29ff">
	<path class="st52" d="M215,86.9c2.2,3,3.5,8.2,8,8c4,0.5,8.4-0.7,12.2,0.9c5,4.4,5.5,11.5,7.6,17.3c0.2-2.1,0.5-4.3,0.7-6.4
		c0.9,3.9,1.3,7.9,1.4,11.9c-1.6,1.8-3.2,3.6-4.7,5.4c-2.4,2.3-4.8,4.7-7.8,6.2c-2.5,0.8-5.1,0.4-7.7,0.4c-0.2,2.2-0.6,4.5-1.2,6.6
		c-0.1-0.3-0.4-1-0.5-1.4c-0.4,0-1.3-0.1-1.7-0.2c0.7-5.9,1.8-11.8,1.5-17.8C222.2,107.2,218.9,96.9,215,86.9z"/>
</g>
<g id="_x23_b0441aff">
	<path class="st53" d="M89.8,88.8c1.5,2.7,3.2,5.2,5.2,7.6c2.7,1.6,5.6,3,8.5,4.1c3.4,0.8,6.9-0.4,10.3-0.2c-0.1,6-0.2,12.1,0,18.1
		c-1.4-1-2.7-2-4.1-3.1c-1.8-1.9-3.4-3.9-4.9-6c-1.4-2.2-3.4-4-5.4-5.6c-4.1-3.6-7.9-7.6-10.2-12.5C89.4,90.6,89.7,89.4,89.8,88.8z"
		/>
	<path class="st53" d="M130.5,191.5c0.3,0.1,1,0.3,1.3,0.4l0.7,0.3c-0.6,2.5-1.2,5.1-1.7,7.6c-1.2-0.6-2.4-1.2-3.7-1.8
		C128.9,196.2,130.1,194,130.5,191.5z"/>
</g>
<g id="_x23_ffe072ff">
	<path class="st54" d="M86.6,90.2c0.7,0.2,2,0.7,2.6,1c2.3,4.9,6.2,8.9,10.2,12.5c-0.9,0.9-1.9,1.8-2.8,2.7c-5-3.8-8.7-9.2-10-15.4
		L86.6,90.2z"/>
</g>
<g id="_x23_ff9617ff">
	<path class="st55" d="M164.4,90c0.4,0.3,1.2,0.8,1.6,1.1c0.2,3.4,0.3,6.9,0.7,10.3c-3.3,3.6-7.3,6.6-11.6,8.9
		c-0.1-0.7-0.4-2-0.5-2.6c0.3-0.3,0.9-0.9,1.3-1.3c3.9-3.6,7.9-7.5,8.8-13c-0.8,0.1-2.3,0.2-3,0.2C162.6,92.4,163.5,91.2,164.4,90z"
		/>
</g>
<g id="_x23_ffb72eff">
	<path class="st56" d="M76.3,90.8c0.9,0.7,1.8,1.3,2.6,2.1c-0.5-0.1-1.5-0.3-2-0.4c1.1,3.1,2.2,6.2,3.7,9.1c1.2,2.2,2.5,4.3,4.1,6.2
		c-1,1.1-2.1,2.1-3.1,3.2c-1.8-1.2-3.6-2.2-5.5-3.1c1.2,2.4,2.4,4.8,3.5,7.1c0.5,1,1,1.9,1.5,2.8c-0.7,1.4-1.4,2.8-2.1,4.2
		c-1-0.7-2-1.4-3-2.1c-0.2-0.6-0.8-1.8-1-2.4c-1.1-4.4,0.1-8.6,1.7-12.7C76.1,100.2,74.6,95.5,76.3,90.8z"/>
</g>
<g id="_x23_fea01eff">
	<path class="st57" d="M85.8,101.3c0.2-3.4,0.6-6.9,0.9-10.3c1.3,6.2,5,11.6,10,15.4c0.9-0.9,1.9-1.8,2.8-2.7c2,1.6,4,3.4,5.4,5.6
		c-1,3.8,1.3,7.2,3.1,10.4c-3-1-6.3-1.9-9.4-0.8c2.6-4,3-8.7,2.1-13.3c-1.4,1.2-2.7,2.5-4,3.8C92.1,108.2,88.8,104.7,85.8,101.3z"/>
</g>
<g id="_x23_f6bf1eff">
	<path class="st58" d="M115.2,94.2c3.2-2,6.8-3.3,10.5-3.6c0.3,0.1,0.8,0.3,1.1,0.4c-1.2,0.7-2.4,1.5-3.6,2.3
		c-0.9,1.1-1.7,2.3-2.5,3.5c-1.2,0.6-2.3,1.1-3.5,1.7c-0.5-0.2-1.3-0.7-1.8-0.9C115.3,96.5,115.3,95.4,115.2,94.2z"/>
</g>
<g id="_x23_efc12dff">
	<path class="st59" d="M128.9,91.6c2.8,0,6.1,0.2,7.8,2.8c0.9,2.1-0.9,4-1.5,5.9c-1.3,0.4-2.6,0.8-3.9,1.1c-0.1,0.6-0.3,1.7-0.4,2.3
		c-1.1,9.8,0.7,19.8-0.9,29.6c-1.4,5-1.2,10.2-1.5,15.3c-0.1,2.5-3,1.9-4.7,2l-0.3-0.9c0.4-4.5,1-9.1,0-13.6
		c-2.9-11.5-0.3-23.4-1.7-35c-0.4-0.1-1.2-0.4-1.6-0.5c0.4-1,0.8-1.9,1.2-2.9c0.3,0.3,0.9,0.9,1.2,1.2c2.4,1.4,6.2,2.1,7.9-0.7
		c1.5-2-0.4-4-1.3-5.8L128.9,91.6 M122.9,103.1c-0.2,7,0.1,13.9-0.2,20.9c0.1,2.7-0.4,5.7,1.2,8.1c0.3,0.6,0.9,1.8,1.2,2.4
		c2.1-0.8,3.7-2.1,3.2-4.5c-1.5,0.3-3,0.7-4.4,1.1c0-1.7,0.1-3.3,0.2-4.9c1.7,0.8,4.2,1.3,4.6-1.3c-1.3-1.3-3.8-1.9-4.5,0.2
		c0.1-2.1,0.1-4.2,0-6.3c0.8,2.3,4.4,1.3,4.5-0.9c-1.2-1.4-3-1.2-4.6-1.2c0-1.7,0.1-3.3,0-5c0.5,0.5,1.5,1.6,2,2.1
		c0.6-0.5,1.8-1.5,2.4-1.9c0.1-2.6-2.8-1.7-4.4-2.1c0-1.2,0-2.4,0-3.6c1.6,0,3.5,0.4,4.6-1.1c-0.5-2.5-3.2-3.1-4.5-0.9l0.1-1
		L122.9,103.1z"/>
</g>
<g id="_x23_ffba30ff">
	<path class="st60" d="M170.7,96.6c1.5-2.1,3.2-4.1,5.1-5.9c1.1,3.5,1.3,7.2,0.5,10.8c-1.1,5,2.3,9.6,1.9,14.6
		c-0.9,2.3-2.1,4.5-3.1,6.7c-1.4-1.2-2.8-2.5-4.2-3.8c2-3,3.1-6.5,4.2-9.9c-1.6,1-3.1,2-4.6,3.1c-0.7-1.5-1.5-2.9-2.2-4.4
		c2.9-3.1,4.2-7.2,5.1-11.2C172.7,96.5,171.4,96.5,170.7,96.6z"/>
</g>
<g id="_x23_ffdb51ff">
	<path class="st61" d="M76.9,92.5c0.5,0.1,1.5,0.3,2,0.4c2.2,2.9,4.3,5.9,6.8,8.5c3.1,3.4,6.3,6.8,10.9,8.1c0.2,1.4,0.4,2.9,0.7,4.3
		c-0.5,0.2-1.4,0.7-1.8,0.9c-2.7-4.3-6.8-7.3-10.4-10.8c-1.2-1.2-2.9-1.7-4.5-2.2C79,98.7,77.9,95.6,76.9,92.5z"/>
</g>
<g id="_x23_f6aabbff">
	<path class="st62" d="M97.4,94.1c1-1,2.2-2.4,3.8-1.9C102.1,94.5,98.9,95.7,97.4,94.1z"/>
</g>
<g id="_x23_ed4a77ff">
	<path class="st63" d="M101.2,92.2c1.2,0.2,2.4,0.4,3.6,0.7c-0.9,1.5-1,3.9-3,4.5c-2.3,0.7-3.1-2-4.4-3.2
		C98.9,95.7,102.1,94.5,101.2,92.2z"/>
</g>
<g id="_x23_f6aab9ff">
	<path class="st64" d="M148.5,92.3c0.7,0,2.2,0,2.9,0c-0.3,1.2-0.5,2.4-0.8,3.5c-0.5,0.1-1.5,0.3-1.9,0.4l-0.9-0.3
		C148,94.7,148.3,93.5,148.5,92.3z"/>
</g>
<g id="_x23_ee537bff">
	<path class="st65" d="M151.4,92.3c0.7,0,2.2,0,2.9,0c-0.2,1.4-0.4,2.9-0.8,4.3c-1.5,1.2-3.3-0.1-4.9-0.4c0.5-0.1,1.5-0.3,1.9-0.4
		C150.9,94.7,151.2,93.5,151.4,92.3z"/>
</g>
<g id="_x23_f0b33bff">
	<path class="st66" d="M104.8,92.8c0.3,1.4,0.6,2.8,0.9,4.1c1.4-0.8,2.8-1.6,4.2-2.4c1.9,1.9,3.7,3.8,5.5,5.8
		c-0.4,0-1.1-0.1-1.5-0.1c-3.4-0.2-6.9,1-10.3,0.2c-3-1.1-5.8-2.5-8.5-4.1c0.8-0.8,1.6-1.5,2.4-2.3c1.3,1.3,2.1,4,4.4,3.2
		C103.8,96.8,104,94.4,104.8,92.8z"/>
</g>
<g id="_x23_f9badaff">
	<path class="st67" d="M123.2,93.4c1.2-0.2,2.5-0.4,3.7-0.6c0.7,1.4,1.3,2.8,2,4.2c-2.1,0.6-4.3,1.3-6.4,2c-0.3-0.3-0.9-0.9-1.2-1.2
		c-0.2-0.2-0.5-0.7-0.7-1C121.5,95.7,122.3,94.5,123.2,93.4z"/>
</g>
<g id="_x23_ed4d71ff">
	<path class="st68" d="M126.9,92.8c0.6-0.1,1.7-0.2,2.2-0.3c0.8,1.8,2.8,3.8,1.3,5.8c-1.7,2.9-5.5,2.2-7.9,0.7
		c2.1-0.7,4.2-1.4,6.4-2C128.2,95.6,127.6,94.2,126.9,92.8z"/>
</g>
<g id="_x23_ffe272ff">
	<path class="st69" d="M161.7,93.6c0.8-0.1,2.2-0.2,3-0.2c-0.9,5.5-4.9,9.4-8.8,13c-0.7-1.2-1.4-2.4-2.1-3.6
		C156.9,100.1,159.4,96.9,161.7,93.6z"/>
</g>
<g id="_x23_ff9814ff">
	<path class="st70" d="M204.3,95.7c1-0.9,1.9-1.9,2.9-2.8c0.8,14.9-10.2,27.4-22.7,33.9c1-2.4,2.2-4.8,3.5-7l0.4-0.6
		c0.4-0.9,0.8-1.8,1.2-2.7l0.3-0.8C195.4,109.7,203.2,104.4,204.3,95.7z"/>
</g>
<g id="_x23_fe9913ff">
	<path class="st71" d="M53.1,114.9c-5-6-8.7-13.7-7.5-21.6c2.7,2.1,5.1,4.4,7.5,6.7c-1.7-0.8-3.4-1.4-5.1-2.1
		c3.1,7.3,9.1,12.7,15,17.7l-0.2,1c1.1,3.9,3.8,6.9,6.3,9.9c-0.5,0-1.6,0-2.1,0C61.9,123.4,57,119.7,53.1,114.9z"/>
</g>
<g id="_x23_ffdd60ff">
	<path class="st72" d="M170.7,96.6c0.7,0,2-0.1,2.7-0.1c-0.9,4-2.3,8.1-5.1,11.2c-3.2,2.9-6.8,5.3-10.4,7.7c-0.6-0.2-1.9-0.7-2.5-1
		c-0.1-1.4-0.1-2.8-0.2-4.2c4.3-2.3,8.3-5.3,11.6-8.9C168.1,99.8,169.4,98.2,170.7,96.6z"/>
</g>
<g id="_x23_ffdd72ff">
	<path class="st73" d="M192,106c4.2-3.3,8.4-6.6,12.3-10.3c-1,8.8-8.8,14-14.4,20c-1.1-1.9-2.2-3.7-3.4-5.5
		C188.3,108.7,190.2,107.4,192,106z"/>
</g>
<g id="_x23_e1ac29ff">
	<path class="st74" d="M15.1,97.2c0.3,0.5,1,1.4,1.4,1.9c-0.5,3.7-0.2,7.5,0.4,11.1c0.6-0.3,1.8-0.8,2.4-1.1c2-1.7,3.5-4.1,5.9-5.2
		c2.5-0.2,4.9,0.6,7.3,1.1c-2,8.1-2.1,16.4-1.6,24.7c-0.2,3.2-0.4,6.4-0.2,9.6c-0.9-2.8-2-5.4-3.1-8.2c-5.2-0.4-10.4-0.3-15.7-0.1
		c-1.1,6,0.6,12,1.1,18c-0.6-0.3-1.6-0.9-2.2-1.1l-0.6-0.3c-1.9-10.5-1.9-21.1-1.5-31.7c0.1-2,0.5-4,1.3-5.8
		C11.9,105.9,13.6,101.6,15.1,97.2z"/>
</g>
<g id="_x23_ffde75ff">
	<path class="st75" d="M48,98c1.7,0.7,3.4,1.3,5.1,2.1c2,1.7,3.9,3.4,5.9,5c2.1,1.7,4.2,3.3,6.4,4.9c-0.8,1.9-1.6,3.8-2.3,5.7
		C57.1,110.7,51.2,105.3,48,98z"/>
</g>
<g id="_x23_87b2ceff">
	<path class="st76" d="M113.9,100.3c0.4,0,1.1,0,1.5,0.1c1,0.1,2,0.1,3,0.2c-0.8,0.2-2.3,0.5-3.1,0.7c-0.1,10.2,0.4,20.3,1.1,30.4
		c1.6-0.2,3.2-0.4,4.8-0.6c1.7,5.8,1.7,11.8,2.2,17.8c-0.6-1.2-1.2-2.4-1.8-3.7c-1.5,0.8-3.1,1.6-4.5,2.7c-1,2.4-1.4,5.1-2.2,7.6
		l-0.7,0.3l0-0.6c0.1-2.3,0.1-4.5,0.2-6.8c0-0.8,0-2.5,0-3.3c0-8.9,0.3-17.8-0.3-26.6C113.7,112.4,113.8,106.3,113.9,100.3z"/>
</g>
<g id="_x23_68a2c3ff">
	<path class="st77" d="M131.3,101.4c1.3-0.4,2.6-0.8,3.9-1.1c0.8,0.1,1.6,0.2,2.4,0.3c0.8,6.3,1.1,12.6,0.4,18.9
		c-0.6-5.2-0.7-10.5-0.7-15.7c-2.1,0-4.2-0.1-6.3-0.1C131.1,103.2,131.2,102,131.3,101.4z"/>
</g>
<g id="_x23_5b1c0aff">
	<path class="st78" d="M138.5,101.9c-0.3-1.7,2-1.8,3.1-1.7c-0.5,5.4-0.8,10.8-0.4,16.2c-0.5,0.5-1.4,1.4-1.9,1.9
		C138.2,112.9,138.3,107.4,138.5,101.9z"/>
</g>
<g id="_x23_ffe087ff">
	<path class="st79" d="M80.6,101.6c1.6,0.5,3.3,1,4.5,2.2c3.6,3.4,7.7,6.5,10.4,10.8l-0.8,0.4c-3.7-1.8-6.9-4.3-10-7.1
		C83.1,106,81.8,103.8,80.6,101.6z"/>
</g>
<g id="_x23_6ba2c4ff">
	<path class="st80" d="M115.2,101.3c0.8-0.2,2.3-0.5,3.1-0.7l1,0c0.8,1.7,1.6,3.5,1.7,5.4c0.3,8.4-0.3,16.7,0.1,25.1
		c-1.6,0.2-3.2,0.4-4.8,0.6C115.6,121.6,115.1,111.4,115.2,101.3z"/>
</g>
<g id="_x23_d0d095ff">
	<path class="st81" d="M119.3,100.6l0.8,0.1c0.4,0.1,1.2,0.4,1.6,0.5c1.5,11.6-1.2,23.5,1.7,35c1,4.5,0.4,9.1,0,13.6l-0.3-0.9
		c-0.5-6-0.5-12-2.2-17.8c-0.4-8.4,0.2-16.8-0.1-25.1C121,104,120.1,102.3,119.3,100.6z"/>
</g>
<g id="_x23_ed9c19ff">
	<path class="st82" d="M122.9,103.1l1.2,0.1l-0.1,1c0,0.5-0.1,1.5-0.1,2c0,1.2,0,2.4,0,3.6c0,0.5,0,1.5,0,2c0,1.7-0.1,3.3,0,5
		c0,0.5,0.1,1.5,0.1,2.1c0.1,2.1,0.2,4.2,0,6.3l-0.1,1c-0.1,1.6-0.2,3.3-0.2,4.9l0,1c-1.6-2.4-1.1-5.4-1.2-8.1
		C122.9,117,122.7,110.1,122.9,103.1z"/>
</g>
<g id="_x23_f4918bff">
	<path class="st83" d="M124,104.2c1.3-2.2,4.1-1.6,4.5,0.9c-1.1,1.6-3,1.1-4.6,1.1C124,105.7,124,104.7,124,104.2z"/>
</g>
<g id="_x23_ffb22dff">
	<path class="st84" d="M143,114.6c3.7-3.9,6.6-8.5,10.8-11.9c0.7,1.2,1.4,2.4,2.1,3.6c-0.3,0.3-0.9,1-1.3,1.3
		c-0.3-0.7-0.9-2.1-1.1-2.8c-2.8,2.9-2.6,6.9-2.2,10.5c2.8,2.2,2.6,5.7,2.2,8.9c0.9,0.1,1.8,0.2,2.7,0.3c-0.1,1.7-0.2,3.4-0.2,5.2
		c1.7,2.3,2.5,5.1,2.7,7.9c5.8,0.3,12.9-3.5,12.8-10c1.4-1.2,2.9-2.2,4.5-3.1l0.4,0.9c-0.2,2.8-1.1,5.5-2.5,7.9
		c-1.7,2.8-3.3,5.7-4.7,8.7c-0.9,1.1-1.9,2.1-2.8,3.1c-1.5,1.6-2.9,3.2-4.3,4.8c-3,2.8-6.7,4.6-10.8,5.1c0.8-1.4,1.6-2.7,2.5-4.1
		c-2.5,1.8-5.1,3.5-7.9,4.6c-1.5,0.1-3,0.3-4.5,0.4c-0.2,1.4-0.3,2.7-0.5,4.1c-0.5,0.1-1.4,0.5-1.9,0.6c-0.2-0.4-0.6-1.2-0.8-1.7
		c0.7-1.8,0.8-4.3,2.7-5.3c4.1-2.5,8.9-4.4,11.6-8.6c-4.4,1.5-8.8,3.1-13.4,4c-0.1-1.4-0.2-2.8-0.3-4.2c6.9-1.3,14.6-4.5,16.8-11.9
		c-4.9,3-9.5,7.3-15.7,7c2.9-1.8,6.1-3.3,8.8-5.4c2.2-1.5,2.8-4.3,3.7-6.6c-3.1,1.6-6,3.3-9,5c-0.4-0.5-1.3-1.6-1.7-2.1
		c4.6-2.2,7.5-6.6,9.2-11.2c-3.8,2.2-7.6,4.5-11.5,6.6c2.3-3.6,4.4-7.4,6.3-11.2C145,115.1,143.7,114.8,143,114.6 M154.2,141.5
		c0.6,0.1,1.9,0.3,2.6,0.4c-0.1,1.8-0.1,3.7,0.1,5.5c-0.8,1.1-1.5,2.3-2.2,3.5c4.8-1.4,9.5-4,11.6-8.7c-2.8,1.2-5.7,2.5-8.4,3.9
		c1.2-2,1.4-4.5,1.9-6.8c-0.9-0.4-1.9-0.8-2.8-1.2C156.1,139.3,155.1,140.4,154.2,141.5z"/>
</g>
<g id="_x23_e2eaf6ff">
	<path class="st85" d="M131,103.8c2.1,0,4.2,0.1,6.3,0.1c0,5.2,0.1,10.5,0.7,15.7c0.7,8.1-0.7,16.3-0.1,24.5c0.1,4,1.1,8.5-1.4,12
		l-0.7-0.2c-2.7-0.7-5.6-0.5-8.2-1.4c-1.4-1-2.6-2.4-3.7-3.8c1.7-0.1,4.6,0.5,4.7-2c0.3-5.1,0.1-10.3,1.5-15.3
		C131.6,123.6,129.8,113.6,131,103.8z"/>
</g>
<g id="_x23_ce5e0dff">
	<path class="st86" d="M151.3,115.3c-0.4-3.7-0.6-7.7,2.2-10.5c0.3,0.7,0.8,2.1,1.1,2.8c0.1,0.7,0.4,2,0.5,2.6
		c0.1,1.4,0.1,2.8,0.2,4.2c0.6,0.2,1.9,0.7,2.5,1c0.1,2.5,0.2,5.1,0.6,7.6c0.3,1.1,0.6,2.1,1,3.1c1,2.7,1.7,5.5,2.2,8.4
		c-1.1,1-2.1,2.1-3,3.2c-0.1-2.9-1-5.6-2.7-7.9c0.1-1.7,0.1-3.5,0.2-5.2c-0.9-0.1-1.8-0.2-2.7-0.3
		C153.8,121.1,154.1,117.6,151.3,115.3z"/>
</g>
<g id="_x23_ce600dff">
	<path class="st87" d="M96.7,109.4c1.3-1.3,2.7-2.6,4-3.8c0.9,4.6,0.4,9.3-2.1,13.3c0,1.8,0.1,3.7,0.1,5.5c-0.8,0.1-1.5,0.3-2.3,0.4
		c0.3,3.6-1.5,6.8-1.9,10.3c0.8,2,1.7,4,2.6,6c-1.2,1.8-1.9,3.9-1.6,6.1c-0.8-0.6-1.6-1.2-2.5-1.7c0.3-3.1,0.6-6.1,0.8-9.2
		c-1.1-0.6-2.1-1.2-3.2-1.8c0.3-3,1.3-5.9,2.8-8.6c0.1-0.4,0.4-1.3,0.5-1.7c0.5-3,0.6-6.1,0.8-9.1l0.8-0.4c0.5-0.2,1.4-0.7,1.8-0.9
		C97.1,112.3,96.9,110.8,96.7,109.4z"/>
</g>
<g id="_x23_ffd94eff">
	<path class="st88" d="M76.1,107.9c1.9,1,3.8,1.9,5.5,3.1c3.4,4.4,8.2,7.4,11.4,11.9c-4.4-2.8-8.8-5.5-13.4-7.9
		C78.4,112.7,77.3,110.3,76.1,107.9z"/>
</g>
<g id="_x23_ff8e11ff">
	<path class="st89" d="M81.6,111.1c1-1.1,2-2.1,3.1-3.2c3,2.8,6.3,5.3,10,7.1c-0.2,3-0.3,6.1-0.8,9.1c-0.2-0.3-0.6-0.9-0.8-1.2
		C89.8,118.4,85,115.4,81.6,111.1z"/>
</g>
<g id="_x23_ff8c10ff">
	<path class="st90" d="M157.8,115.4c3.6-2.4,7.2-4.8,10.4-7.7c0.7,1.5,1.5,2.9,2.2,4.4c-3.9,3.8-7.9,7.3-12,10.9
		C158,120.4,157.9,117.9,157.8,115.4z"/>
</g>
<g id="_x23_ffdc67ff">
	<path class="st91" d="M170.4,112.1c1.5-1.1,3-2.1,4.6-3.1c-1,3.5-2.2,6.9-4.2,9.9c-3.4,3.1-7.4,5.2-11.4,7.1c-0.4-1-0.7-2.1-1-3.1
		C162.5,119.4,166.6,115.9,170.4,112.1z"/>
</g>
<g id="_x23_e5a139ff">
	<path class="st92" d="M65.4,109.9c1.4,1.1,2.8,2.1,4.1,3.2c-1.7,1.9-3.9,3.4-6.6,3.5l0.2-1C63.8,113.7,64.6,111.8,65.4,109.9z"/>
</g>
<g id="_x23_ffb93cff">
	<path class="st93" d="M108,119.7c-1.8-3.2-4.1-6.5-3.1-10.4c1.5,2.1,3.1,4.2,4.9,6c-2.9,3.6,1.4,7.6,2.9,10.9
		c-3.3-1.8-6.6-3.6-10-5.2c0.7,6.7,8.3,8.5,10.7,14.1c-5-0.8-9-4-13.4-6.3c2.6,5.9,8.6,8.4,13.9,11.4c-6.1,2.4-11.1-2.9-15.7-6
		c-0.1,0.7-0.2,2-0.3,2.7c-1.1-0.7-2.3-1.3-3.4-1.9c0.4-3.5,2.2-6.7,1.9-10.3c0.8-0.1,1.5-0.3,2.3-0.4c-0.1-1.8-0.2-3.7-0.1-5.5
		C101.7,117.8,104.9,118.7,108,119.7z"/>
</g>
<g id="_x23_f49795ff">
	<path class="st94" d="M123.9,109.8c1.7,0.4,4.5-0.4,4.4,2.1c-0.6,0.5-1.8,1.5-2.4,1.9c-0.5-0.5-1.5-1.6-2-2.1
		C124,111.3,123.9,110.3,123.9,109.8z"/>
</g>
<g id="_x23_e39c37ff">
	<path class="st95" d="M182.6,113.9c1.2-1.3,2.5-2.6,3.9-3.8c1.1,1.8,2.3,3.7,3.4,5.5l-0.3,0.8C187,116.5,184.6,115.5,182.6,113.9z"
		/>
</g>
<g id="_x23_ff9416ff">
	<path class="st96" d="M39.8,115.1c1.4,0.9,2.8,1.7,4.1,2.6c-0.5,0.4-1.5,1.1-2,1.5c4.3,4.9,9.9,8.5,15.8,11.2c4.2,1.8,8.6,3,12.8,5
		c1.3,2.6,2.9,5.1,4.5,7.6c-0.5,0.4-1.5,1.1-2.1,1.4c-7.3-2.9-14.4-6.4-20.5-11.4C46.9,128.1,41.7,122.4,39.8,115.1z"/>
</g>
<g id="_x23_fed674ff">
	<path class="st97" d="M79.6,115.1c4.6,2.3,9,5.1,13.4,7.9c0.2,0.3,0.6,0.9,0.8,1.2c-0.1,0.4-0.4,1.3-0.5,1.7
		c-4.7-1.5-9-4.1-12.2-7.9C80.6,116.9,80.1,116,79.6,115.1z"/>
</g>
<g id="_x23_ffe684ff">
	<path class="st98" d="M141.2,116.4c0.4-0.4,1.3-1.3,1.7-1.8c0.7,0.1,2,0.4,2.7,0.6c-1.9,3.8-4.1,7.6-6.3,11.2
		c3.9-2.1,7.7-4.4,11.5-6.6c-1.7,4.6-4.6,9-9.2,11.2c-0.9,0.4-1.8,0.9-2.7,1.3c-0.3,4.2-0.5,8.4-0.2,12.6c0.1,1.4,0.2,2.8,0.3,4.2
		c4.6-0.9,9-2.5,13.4-4c-2.7,4.3-7.5,6.1-11.6,8.6c-1.9,1-2,3.5-2.7,5.3c-0.5-1-1.1-2.1-1.7-3.1c2.5-3.6,1.5-8,1.4-12
		c-0.5-8.2,0.8-16.3,0.1-24.5c0.3-0.3,1-1,1.3-1.3C139.8,117.8,140.8,116.9,141.2,116.4z"/>
	<path class="st98" d="M216.6,166.8c0.6,1,1.2,2,1.8,3c-1.5,1.7-2.9,3.6-4.9,4.8c-1.9,0.5-3.8-0.3-5.7-0.6c1-2.1,2.1-4.1,4.1-5.5
		c-0.2,1.8-0.3,3.6-0.5,5.5c2.3-1,4.7-2.4,5.1-5.2C216.5,168.2,216.6,167.2,216.6,166.8z"/>
</g>
<g id="_x23_ffe07dff">
	<path class="st99" d="M112.7,126.3c-1.4-3.3-5.7-7.3-2.9-10.9c1.3,1,2.7,2.1,4.1,3.1c0.6,8.9,0.3,17.8,0.3,26.6
		c-6.2-1-11.6-4.1-16.3-8.1c0.1-0.7,0.2-2,0.3-2.7c4.6,3.1,9.7,8.4,15.7,6c-5.3-3-11.3-5.5-13.9-11.4c4.4,2.2,8.4,5.5,13.4,6.3
		c-2.4-5.6-10-7.4-10.7-14.1C106.1,122.7,109.4,124.4,112.7,126.3z"/>
	<path class="st99" d="M85.5,141.6c2.5,1.2,5,2.4,7.4,3.8c0.8,0.6,1.7,1.1,2.5,1.7c0.8,1.3,1.5,2.7,2.3,4
		C92.7,149.4,87.9,146.5,85.5,141.6z"/>
</g>
<g id="_x23_c34504ff">
	<path class="st100" d="M178.2,116c3.1,1.8,6.6,2.8,10.2,3.1l-0.4,0.6c-3,3.3-6.8,5.8-10.5,8.3c-0.3-0.6-0.9-1.9-1.2-2.5l-0.4-0.9
		c-0.3-0.6-0.6-1.3-0.9-1.9C176.1,120.5,177.2,118.3,178.2,116z"/>
	<path class="st100" d="M64.9,118.8c3.4-0.5,6.8-0.9,10.2-1.2c0.3,0.6,0.8,1.8,1,2.4c0.2,1.6,0.3,3.2,0.2,4.8
		c-0.1,0.7-0.2,2-0.3,2.7C70.9,126.8,67.8,122.5,64.9,118.8z"/>
	<path class="st100" d="M154.2,141.5c0.9-1.1,1.9-2.2,2.8-3.4c0.9,0.4,1.9,0.8,2.8,1.2c-0.5,2.3-0.7,4.8-1.9,6.8
		c-0.2,0.3-0.7,1-1,1.3c-0.1-1.8-0.1-3.7-0.1-5.5C156.2,141.9,154.9,141.6,154.2,141.5z"/>
</g>
<g id="_x23_f48f90ff">
	<path class="st101" d="M124,116.8c1.6,0,3.4-0.2,4.6,1.2c-0.1,2.3-3.7,3.2-4.5,0.9C124,118.3,124,117.3,124,116.8z"/>
</g>
<g id="_x23_ffda66ff">
	<path class="st102" d="M191.1,126.2c7-2.6,13.6-6.3,20.4-9.3c-0.4,1.1-0.9,2.1-1.4,3.2c-7.3,7.1-16.7,11.5-26.4,14.3
		c-0.8-1.4-1.1-2.9-1.3-4.5C185.3,128.7,188.2,127.5,191.1,126.2z"/>
</g>
<g id="_x23_ffda65ff">
	<path class="st103" d="M41.9,119.3c0.5-0.4,1.5-1.1,2-1.5c5.2,3.6,11.2,5.9,17,8.3c3.4,1.6,7,2.7,9.9,5.2c1.6,1.1,0.1,2.9-0.4,4.1
		c-4.1-1.9-8.5-3.2-12.8-5C51.8,127.8,46.2,124.2,41.9,119.3z"/>
</g>
<g id="_x23_ffa11dff">
	<path class="st104" d="M79,122.1c0.7-1.4,1.4-2.8,2.1-4.2c3.2,3.8,7.5,6.4,12.2,7.9c-1.5,2.6-2.5,5.5-2.8,8.6c-3.5-1.9-7-4-9.8-6.9
		c-1.2-1.3-2.9-2.1-4.5-2.7c0.1-1.6,0-3.2-0.2-4.8C77,120.8,78,121.4,79,122.1z"/>
</g>
<g id="_x23_ffa01cff">
	<path class="st105" d="M159.4,126.1c4.1-1.9,8.1-4.1,11.4-7.1c1.4,1.3,2.8,2.5,4.2,3.8c0.3,0.6,0.6,1.3,0.9,1.9
		c-1.6,0.9-3.2,1.8-4.5,3.1c-2.8,2.9-6.2,5-9.8,6.7C161,131.6,160.4,128.8,159.4,126.1z"/>
</g>
<g id="_x23_b06518ff">
	<path class="st106" d="M240.2,124.1c1.5-1.8,3.1-3.6,4.7-5.4c0.3,3.6,0.9,7.4-0.2,10.9c-3.2,3.3-7.6,5.2-11.3,8
		c0.4,0.2,1.3,0.5,1.7,0.7c-2.4,0.8-4.8,1.3-7.3,1.9C232.6,135.4,237.3,130.4,240.2,124.1z"/>
</g>
<g id="_x23_e3770aff">
	<path class="st107" d="M177.5,128.1c3.7-2.5,7.4-5,10.5-8.3c-1.3,2.3-2.5,4.6-3.5,7c2.2-0.1,4.4-0.3,6.6-0.5
		c-2.9,1.3-5.8,2.5-8.7,3.7c-2,0.9-3.2,2.8-4,4.8c1.5,0.2,3,0.4,4.6,0.6c-1.6,2.2-3.2,4.4-4.8,6.6c0.2,0.6,0.6,1.8,0.8,2.4
		c-1,0.4-2.1,0.9-3.1,1.3c2.8,0.3,5.6,0.5,8.3,0.6c-4.1,0.5-8.1,0.8-12.2,1.1c-2-0.3-3.9-1.2-5.7-2.2c0.9-1,1.9-2.1,2.8-3.1
		c0,0.7-0.1,2.1-0.1,2.8c4.4-1.5,8.4-4,10.9-8c-2-1.2-4.1-2.4-6.1-3.5c1.4-2.4,2.2-5.1,2.5-7.9C176.6,126.2,177.2,127.5,177.5,128.1
		z"/>
</g>
<g id="_x23_ff9316ff">
	<path class="st108" d="M183.7,134.4c9.7-2.9,19.1-7.2,26.4-14.3c-2.3,5.7-6.7,10.2-11.4,14c-6,4.4-12.8,7.6-19.8,10.3
		c-0.2-0.6-0.6-1.8-0.8-2.4c1.6-2.2,3.2-4.4,4.8-6.6C183.2,135.1,183.6,134.7,183.7,134.4z"/>
</g>
<g id="_x23_f59597ff">
	<path class="st109" d="M124.1,125.2c0.7-2.2,3.3-1.6,4.5-0.2c-0.4,2.5-2.9,2-4.6,1.3L124.1,125.2z"/>
</g>
<g id="_x23_db9d25ff">
	<path class="st110" d="M232.4,130.3c3-1.6,5.4-4,7.8-6.2c-2.9,6.3-7.6,11.3-12.4,16.1c2.4-0.6,4.9-1.1,7.3-1.9
		c1.9-0.6,3.9-1.3,5.9-1.7c4,2.7,3.1,8.6,1.6,12.5c-0.3-1.1-0.6-2.2-0.9-3.3c-2.7,11.7-6.8,23.2-13.6,33.1c0-0.5,0.1-1.5,0.1-2
		l0.1-0.9c0.8-3.2,2.4-6.5,1.3-9.7c-1.3-4.7-4.7-9.9-10.1-10l-1,0.1c1.4-6.5,3.3-12.8,5-19.1c0.6-2.2,0.9-4.4,1.2-6.6
		C227.2,130.7,229.9,131.1,232.4,130.3z"/>
	<path class="st110" d="M11.9,131.1c5.2-0.2,10.4-0.3,15.7,0.1c1.1,2.7,2.2,5.4,3.1,8.2c1.5,7.1,3.3,14.2,5.7,21.1
		c0.5-0.1,1.5-0.4,2-0.5c-0.2,1.1-0.4,2.3-0.6,3.4c-5.7,1.3-11.6,1.6-17.4,2.2c0.8,2.9,1.5,5.8,2.4,8.7c-4.5-7.8-8.3-16.2-9.7-25.2
		C12.5,143.1,10.8,137.1,11.9,131.1z"/>
</g>
<g id="_x23_feaf29ff">
	<path class="st111" d="M76.3,124.8c1.6,0.6,3.3,1.4,4.5,2.7c-0.4,6.2,6.1,9,11,10.8c0.5-0.5,1.5-1.6,2-2.2
		c-0.3,3.1-0.5,6.1-0.8,9.2c-2.4-1.4-4.9-2.6-7.4-3.8c2.4,4.9,7.2,7.8,12.2,9.6c-0.8-1.4-1.5-2.7-2.3-4c-0.3-2.2,0.4-4.3,1.6-6.1
		c-0.8-2-1.7-4-2.6-6c1.2,0.6,2.3,1.2,3.4,1.9c4.7,4,10.1,7.1,16.3,8.1c0,0.8,0,2.5,0,3.3c-5.6,0.8-10.4-2.3-15.3-4.3
		c3.2,5.4,9.2,7.8,14.5,10.7c-2.1-0.3-4.1,0.3-6.1,1c-3.1,0.9-6.1,1.7-9.3,2.3l-0.1-1c-1-2.8-3.7-4.3-6.1-5.9
		c-3.5-2.1-6.4-5.1-8.3-8.7c-1.4-2.5-2.7-5-4-7.5c-1.3-2.4-2.7-4.9-3.4-7.5C76.1,126.8,76.2,125.5,76.3,124.8z"/>
</g>
<g id="_x23_ffe380ff">
	<path class="st112" d="M91.7,138.4c-4.8-1.9-11.3-4.6-11-10.8c2.8,2.9,6.2,5,9.8,6.9c1.1,0.6,2.2,1.2,3.2,1.8
		C93.2,136.7,92.2,137.8,91.7,138.4z"/>
</g>
<g id="_x23_ffd56dff">
	<path class="st113" d="M143.4,133.1c3-1.7,5.9-3.4,9-5c-0.9,2.3-1.6,5.1-3.7,6.6c-2.8,2.1-5.9,3.6-8.8,5.4c6.2,0.3,10.8-4,15.7-7
		c-2.2,7.3-9.9,10.5-16.8,11.9c-0.3-4.2-0.1-8.4,0.2-12.6c0.9-0.4,1.8-0.9,2.7-1.3C142.1,131.6,143,132.6,143.4,133.1z"/>
</g>
<g id="_x23_ffe481ff">
	<path class="st114" d="M171.4,127.7c0.1,6.5-7,10.3-12.8,10c1-1.1,1.9-2.2,3-3.2C165.2,132.7,168.6,130.6,171.4,127.7z"/>
</g>
<g id="_x23_fbe65eff">
	<path class="st115" d="M30.6,139.4c-0.2-3.2,0-6.4,0.2-9.6c0.5,3.4,1.2,6.8,1.9,10.2c1.2,5.8,3.2,11.4,5.3,16.9
		c0,0.8,0.1,2.3,0.2,3.1c-0.5,0.1-1.5,0.4-2,0.5C34,153.5,32.2,146.5,30.6,139.4z"/>
</g>
<g id="_x23_f38e8aff">
	<path class="st116" d="M123.8,131.1c1.5-0.4,2.9-0.8,4.4-1.1c0.5,2.4-1.1,3.8-3.2,4.5c-0.3-0.6-0.9-1.8-1.2-2.4L123.8,131.1z"/>
</g>
<g id="_x23_e9a43bff">
	<path class="st117" d="M178.4,134.7c0.8-2,1.9-3.9,4-4.8c0.2,1.5,0.6,3.1,1.3,4.5c-0.2,0.2-0.5,0.7-0.7,0.9
		C181.5,135.2,180,135,178.4,134.7z"/>
</g>
<g id="_x23_d03c26ff">
	<path class="st118" d="M200.2,136.4c5.8-0.5,12.2-0.5,17-4.2c0,7.4-1,14.8-2.8,22c-1.5,0.6-3,1.3-4.5,1.9c-0.7,0.2-2,0.8-2.6,1
		c-2.7,1-5.2,2.3-7.4,4c-2.6-2.3-5.2-5.1-9-4.9c-2.7-0.3-5.5-0.4-8.2-0.5l0.8-0.3c4.8-2.3,9.1-5.9,11.7-10.5c-2.1,0.3-4.3,0.7-6.4,1
		c-1.5,0.2-3,0.4-4.5,0.5c-2.8-0.1-5.6-0.3-8.3-0.6c1-0.4,2-0.9,3.1-1.3c7-2.6,13.7-5.9,19.8-10.3
		C199.2,134.9,199.7,135.7,200.2,136.4z"/>
</g>
<g id="_x23_b92b1fff">
	<path class="st119" d="M52.3,133c6.1,5,13.2,8.6,20.5,11.4c1.1,0.5,2.2,0.9,3.2,1.4c-2.1,0.2-4.2,0.4-6.3,0.4
		c-4.1-0.4-8.1-1-12.2-1.2c1,1.4,2,2.7,3.2,4c2.5,3.1,5.9,5.4,9.5,7.1c-10.7,0.5-21.4-0.6-32,0.7c-2.1-5.5-4.1-11.1-5.3-16.9
		c5.2-4.5,12.4-3.2,18.7-4.5C51.7,134.9,52.1,133.6,52.3,133z"/>
</g>
<g id="_x23_cb4b07ff">
	<path class="st120" d="M173.8,133.4c2,1.2,4.1,2.4,6.1,3.5c-2.5,4-6.5,6.4-10.9,8c0-0.7,0.1-2.1,0.1-2.8
		C170.6,139.1,172.2,136.2,173.8,133.4z"/>
</g>
<g id="_x23_cc4806ff">
	<path class="st121" d="M72,136.4c2.5-0.5,4.9-1,7.4-1.4c1.4,2.5,2.7,5,4,7.5c-1.2,0.4-2.4,1.4-3.7,0.7
		C76.6,141.7,74.4,138.9,72,136.4z"/>
</g>
<g id="_x23_feef63ff">
	<path class="st122" d="M221.3,135.8c0.4,0,1.3,0.1,1.7,0.2c0.1,0.4,0.4,1.1,0.5,1.4c-1.7,6.4-3.6,12.7-5,19.1
		c-3.4,0.5-6.9,1-10.4,0.8l-0.9-0.2c0.6-0.3,2-0.8,2.6-1c2.1-0.1,4.2,0,6.3,0C218,149.3,220.7,142.8,221.3,135.8z"/>
	<path class="st122" d="M241.7,145.9c0.3,1.1,0.6,2.2,0.9,3.3c-4.7,22.7-16.9,43.8-33.9,59.6c-12.8,11.9-28.1,20.9-44.8,26.2
		c-23.6,7.6-49.5,7.8-73.2,0.4c-27.7-8.5-52.1-27.4-66.7-52.5c-6.2-10.8-11.1-22.6-13.2-34.9c0.5,0.3,1.6,0.9,2.2,1.1
		c1.4,9,5.1,17.4,9.7,25.2c4.5,9.1,10.7,17.3,17.8,24.6c15.1,15.8,34.7,27.3,55.9,32.8c36.5,9.6,77.8,1.1,106.5-23.7
		c10.1-8,18.8-17.8,25.2-29C234.9,169.1,239,157.6,241.7,145.9z"/>
	<path class="st122" d="M53.5,185.6c1.5,0,3,0,4.4,0.1c4.1,4.5,8.8,8.3,13.9,11.6c12.8,8.8,27.8,14.7,43.3,15.9
		c0.7,1.4,1.5,2.8,2.4,4.1c0.5,0.8,1.1,1.7,1.7,2.5c-12.8-1.1-25.3-4.4-36.8-10.1c-5.6-2.8-10.8-6.4-16.1-9.8
		C61.8,195.2,56,191.7,53.5,185.6z"/>
</g>
<g id="_x23_fcd56bff">
	<path class="st123" d="M157.9,146.2c2.7-1.4,5.6-2.7,8.4-3.9c-2.1,4.7-6.9,7.3-11.6,8.7c0.7-1.2,1.4-2.4,2.2-3.5
		C157.1,147.1,157.6,146.5,157.9,146.2z"/>
</g>
<g id="_x23_ffe77eff">
	<path class="st124" d="M98.8,144.1c4.9,1.9,9.8,5.1,15.3,4.3c0,2.3-0.1,4.5-0.2,6.8l-0.7-0.4C108.1,151.9,102.1,149.5,98.8,144.1z"
		/>
</g>
<g id="_x23_f2ae33ff">
	<path class="st125" d="M57.5,145c4.1,0.2,8.2,0.9,12.2,1.2c4.8,0.6,9.9,0.2,14.6,1.5c1.9,0.6,2.4,2.7,2.8,4.4
		c-0.4,0-1.2-0.1-1.6-0.1c-1.5-1.4-2.4-4-4.7-4c-1.3-0.1-2.6-0.2-3.9-0.2c-4.8,0-9.6-0.2-14.3-0.8c0,0.6-0.2,1.8-0.2,2.4
		c-0.4-0.1-1.3-0.4-1.7-0.5C59.5,147.8,58.5,146.4,57.5,145z"/>
</g>
<g id="_x23_6ba1c4ff">
	<path class="st126" d="M117,147.9c1.4-1.1,3-1.9,4.5-2.7c0.6,1.2,1.2,2.4,1.8,3.7l0.3,0.9l0.3,0.9c1.1,1.4,2.2,2.7,3.7,3.8
		c2.7,1,5.5,0.7,8.2,1.4l-0.6,0.1c-3.3-0.2-6.7-0.3-10,0c-1.7,6.3-3.1,12.6-4.7,18.9c-1.7-1.8-3.4-3.4-5.4-4.7
		c2.1-2.9,4.6-5.7,5.5-9.2c-0.4-3-3.7-4.1-5.9-5.6C115.5,152.9,115.9,150.3,117,147.9z"/>
	<path class="st126" d="M122.7,201.1c1.2-0.2,2.3-0.3,3.4-0.5c0.1,8.7,0.1,17.3-0.1,26c-2.5-2.1-4.9-4.3-6.9-6.9
		c-0.6-0.8-1.1-1.6-1.7-2.5C122.5,213.9,125.1,206.7,122.7,201.1z"/>
</g>
<g id="_x23_fda310ff">
	<path class="st127" d="M162,150c1.4-1.6,2.8-3.2,4.3-4.8c1.8,1,3.7,1.9,5.7,2.2c-2.8,0.2-4.8,2.1-6.3,4.4c5,1,10.2,1.4,15.3,0.4
		c3.3-0.7,6.3-2.3,9.2-4c1-0.6,1.9-1.2,2.9-1.8c-1.5-0.2-2.9-0.4-4.4-0.6c2.2-0.3,4.3-0.7,6.4-1c-2.7,4.7-6.9,8.2-11.7,10.5
		c-6.2-0.7-12.5-0.8-18.8-0.5c0.4-2.2,0.8-4.5,1.1-6.7C164.4,148.8,163.2,149.4,162,150z"/>
</g>
<g id="_x23_fed45dff">
	<path class="st128" d="M184.3,146.4c1.5-0.1,3-0.3,4.5-0.5c1.5,0.2,2.9,0.4,4.4,0.6c-1,0.6-1.9,1.2-2.9,1.8c-5-0.5-10-0.3-15,0.4
		c-1.8,0-2.5,2-3.6,3.1c3.1,0.4,6.3,0.6,9.4,0.5c-5.1,1-10.3,0.6-15.3-0.4c1.4-2.3,3.4-4.2,6.3-4.4
		C176.1,147.2,180.2,146.9,184.3,146.4z"/>
</g>
<g id="_x23_ffe48fff">
	<path class="st129" d="M62.6,147.1c4.8,0.6,9.6,0.8,14.3,0.8c1,1.4,1.9,2.8,2.9,4.2c-3,0.1-6,0.2-8.9,0c-2.9-0.8-5.6-1.9-8.5-2.6
		C62.5,148.9,62.6,147.7,62.6,147.1z"/>
</g>
<g id="_x23_ffe38bff">
	<path class="st130" d="M175.2,148.6c5-0.6,10-0.9,15-0.4c-2.9,1.7-5.9,3.3-9.2,4c-3.2,0.1-6.3-0.1-9.4-0.5
		C172.7,150.6,173.4,148.7,175.2,148.6z"/>
</g>
<g id="_x23_fed660ff">
	<path class="st131" d="M77,147.9c1.3,0,2.6,0.1,3.9,0.2c2.4-0.1,3.3,2.6,4.7,4c-4.9,0.5-9.9,1.2-14.7,0.1c3,0.2,6,0.1,8.9,0
		C78.9,150.7,77.9,149.3,77,147.9z"/>
</g>
<g id="_x23_db6b0dff">
	<path class="st132" d="M162,150c1.2-0.7,2.5-1.3,3.7-1.9c-0.3,2.2-0.7,4.5-1.1,6.7c6.3-0.3,12.6-0.1,18.8,0.5l-0.8,0.3
		c-12.3-0.1-24.6,0.4-36.8,0c2.8-1.2,5.4-2.9,7.9-4.6c-0.8,1.4-1.7,2.7-2.5,4.1C155.3,154.7,159,152.8,162,150z"/>
</g>
<g id="_x23_fc9b17ff">
	<path class="st133" d="M60.7,149c0.4,0.1,1.3,0.3,1.7,0.5c2.9,0.7,5.6,1.8,8.5,2.6c4.8,1.2,9.8,0.4,14.7-0.1c0.4,0,1.2,0.1,1.6,0.1
		c0,0.7,0,1.5-0.1,2.2c-1.1,0.6-2.1,1.3-3.1,2c-0.2,1.5-0.4,2.9-0.6,4.4c-1.5-2.2-3.5-4.4-6.4-4.2c-2.3-0.3-4.6-0.3-6.9-0.4
		C66.6,154.4,63.2,152.1,60.7,149z"/>
</g>
<g id="_x23_a48e36ff">
	<path class="st134" d="M107.3,155.8c1.9-0.7,4-1.3,6.1-1l0.7,0.4l0,0.6c-1.8,0.9-3.9,0.3-5.8,0.3
		C107.9,155.9,107.5,155.8,107.3,155.8z"/>
</g>
<g id="_x23_1d0402ff">
	<path class="st135" d="M77,156.5c2.9-0.2,4.9,2.1,6.4,4.2c-0.3,0.1-1,0.4-1.4,0.5C80.6,159.5,79.2,157.5,77,156.5L77,156.5z"/>
	<path class="st135" d="M225.3,171c0.6,0.2,1.7,0.5,2.3,0.6c0.2,1.5,0.5,3,0.7,4.5l-0.1,0.9c-4,3.2-7.7,7.2-12.8,8.3
		c-4.6,0.9-9.6,1-13.8-1.1c-0.7-0.4-2.1-1.2-2.8-1.5c-0.6,0.6-1.2,1.2-1.8,1.9c-0.5-1.4-1-2.8-1.5-4.2c-0.8-2.2-1.6-4.5-1-6.8
		c0.2,0.4,0.6,1.2,0.8,1.6C202.2,185.7,221,182.5,225.3,171z"/>
</g>
<g id="_x23_ffe922ff">
	<path class="st136" d="M84,156.3c3.3-0.1,6.6-0.2,9.8,0.1c-0.6,1.5-1.3,3-1.9,4.4c-2.2,2.1-4.4,4.3-7.2,5.7
		c-4.8,0.8-8.1-4.2-12.8-4.3c-4.2-0.1-8.4,0.5-12.6,0.6c0.2-1.1,0.3-2.3,0.5-3.4c-0.2,0.2-0.6,0.7-0.7,1c-3.8,2.2-8.3,2.4-12.6,2.8
		c-2.8,0.4-5-1.5-7-3.2c0.2-0.8,0.5-2.3,0.6-3.1c12.2-0.6,24.5-0.2,36.7-0.3c2.2,1,3.7,2.9,5.1,4.8c0.3-0.1,1-0.4,1.4-0.5
		C83.6,159.3,83.8,157.8,84,156.3z"/>
</g>
<g id="_x23_a36d33ff">
	<path class="st137" d="M93.9,156.4c1.3,0.2,2.7,0.4,4,0.7l0.1,1c-1.6,3.7-4.7,6.5-6.6,10.1c0.1-2.4,0.2-4.9,0.5-7.3
		C92.6,159.4,93.2,157.9,93.9,156.4z"/>
</g>
<g id="_x23_ffdc14ff">
	<path class="st138" d="M108.2,156c1.9,0,4,0.6,5.8-0.3l0.7-0.3c0.7,1.2,1.5,2.4,2.2,3.6c-1,1.6-2.1,3.1-3.1,4.7
		c-2.6,0-5.2-0.3-7.8,0.1c-2.9,0.5-4.2,3.6-5.6,5.8c-2.6,0.1-5.2,0.1-7.7,0.2C94.2,162.4,101.4,158.1,108.2,156z"/>
</g>
<g id="_x23_783710ff">
	<path class="st139" d="M114.7,155.4c2.2,1.5,5.5,2.5,5.9,5.6c-0.9,3.5-3.5,6.3-5.5,9.2c-2.5-1.6-5.5-1.6-8.4-1.6
		c0.5,1.5,0.9,2.9,1.4,4.4c-2,0.1-4,0.3-6,0.3c-0.5-1.2-1.1-2.4-1.6-3.6c1.5-2.2,2.7-5.2,5.6-5.8c2.6-0.5,5.2-0.2,7.8-0.1
		c1-1.6,2.1-3.2,3.1-4.7C116.2,157.8,115.5,156.6,114.7,155.4z"/>
</g>
<g id="_x23_c3bd80ff">
	<path class="st140" d="M125.2,156c3.3-0.2,6.7-0.2,10,0l-0.3,0.3c-2.9,0.4-5.9,0.6-8.8,0.7c-1.2,4.2-2.1,8.5-2.8,12.9
		c-0.1,0.6-0.4,1.9-0.5,2.5c-0.7,3-1.7,5.9-2.7,8.7h-0.8c0.3-2.1,0.8-4.2,1.3-6.2C122.1,168.6,123.5,162.2,125.2,156z"/>
</g>
<g id="_x23_a35231ff">
	<path class="st141" d="M135.2,156l0.6-0.1l0.7,0.2c0.6,1,1.1,2,1.7,3.1c0.2,0.4,0.6,1.2,0.8,1.7c0.5-0.1,1.4-0.5,1.9-0.6
		c-0.2,1.4-0.3,2.7-0.5,4.1c-2.3,0.3-4.6,0.7-6.8,1.1c-0.2-3.1,0.5-6.1,1.4-9L135.2,156 M136.3,160.5c-1,0.9-0.8,3.2,0.7,3.4
		C139.1,163.7,138.3,159.4,136.3,160.5z"/>
</g>
<g id="_x23_c9ba60ff">
	<path class="st142" d="M141.3,156.1c1.5-0.1,3-0.3,4.5-0.4c12.3,0.4,24.6,0,36.8,0c2.7,0.1,5.5,0.2,8.2,0.5l0.8,0.4
		c-12.5,0.6-25-0.4-37.4,0.5c-0.4,2-0.8,3.9-1.2,5.9c-0.4,2.3-0.8,4.5-1.3,6.8c-0.1,0.6-0.4,1.7-0.6,2.2c-0.7,1.7-1.6,3.4-2.3,5.1
		c0.7-5.4,1.8-10.8,2.2-16.3c0.1-1.3,0.2-2.7,0.4-4c-2.6,0.1-5.3,0.1-7.9,0.2c-0.7,2.9-1.4,5.7-2,8.6c-2.6,0.1-5.2,0-7.8-0.2
		c2.3-0.4,4.6-0.8,6.8-1.1c0.2-1.4,0.3-2.7,0.5-4.1C141,158.8,141.2,157.5,141.3,156.1z"/>
</g>
<g id="_x23_77380fff">
	<path class="st143" d="M190.9,156.2c3.8-0.1,6.4,2.6,9,4.9c-3.5,3.2-4.8,7.9-5.4,12.4c-0.5,2.3,0.2,4.6,1,6.8
		c-3.6,1.3-7.5,1.8-11.4,1.7c-0.4,0.5-1.1,1.5-1.5,2c-0.4-0.3-1.2-0.8-1.6-1.1c0.2-1.7,0.3-3.4,0.2-5.2c0.4,1,0.8,1.9,1.2,2.9
		c3.5,0,7,0,10.5,0c-1.3-2.6-2.7-5.3-4.1-7.9c0-0.6,0.1-1.9,0.1-2.6c5.3-1,9.1-8.2,4.5-12.2c-0.5-0.3-1.4-1-1.9-1.4L190.9,156.2z"/>
</g>
<g id="_x23_6d4016ff">
	<path class="st144" d="M219.5,156.4c5.4,0.1,8.8,5.3,10.1,10c1.1,3.3-0.5,6.6-1.3,9.7c-0.2-1.5-0.5-3-0.7-4.5
		c-0.6-0.2-1.7-0.5-2.3-0.6l0.3-0.9c0.5-2.2,1.1-4.6,0.2-6.8C224.8,160.3,222,158.3,219.5,156.4z"/>
</g>
<g id="_x23_ffd426ff">
	<path class="st145" d="M126.1,157.1c3-0.1,5.9-0.3,8.8-0.7c-0.9,2.9-1.6,5.9-1.4,9c2.6,0.2,5.2,0.3,7.8,0.2c0.7-2.9,1.3-5.7,2-8.6
		c2.6-0.1,5.2-0.1,7.9-0.2c-0.1,1.3-0.2,2.7-0.4,4c-0.8,3.1-1.9,6.2-2.6,9.4c-8.3,0.1-16.7-0.2-25-0.2
		C124,165.6,124.9,161.3,126.1,157.1z"/>
</g>
<g id="_x23_ffec21ff">
	<path class="st146" d="M154.2,157.1c12.5-0.9,25,0.1,37.4-0.5c0.5,0.3,1.4,1,1.9,1.4c-0.7,1.4-1.3,2.9-2,4.3c-1.8,0-3.5,0-5.3,0
		c-1.5,0-3.1,0-4.6,0c-2.6,0-5.2-0.1-7.9-0.2c-0.1-0.8-0.3-2.5-0.5-3.4c-0.4,0.6-0.8,1.1-1.2,1.7c-3.1,2.6-7.3,2.1-11.1,2.1
		c-2.7,0-5.4,0.2-8.1,0.5C153.3,161.1,153.7,159.1,154.2,157.1z"/>
</g>
<g id="_x23_ffd418ff">
	<path class="st147" d="M208.1,157.3c3.5,0.1,7-0.4,10.4-0.8l1-0.1c2.4,1.9,5.2,3.9,6.3,7c0.9,2.2,0.2,4.6-0.2,6.8
		c-2.4-0.2-4.8-0.3-7.2-0.4c-0.6-1-1.2-2-1.8-3c-0.9-1.9-2.3-3.6-4.6-3.2c-4.1-0.5-6.3,3.4-8.1,6.4c-2.5-0.1-5.1-0.2-7.6-0.4
		C198,163.7,202.8,159.6,208.1,157.3z"/>
</g>
<g id="_x23_ffcf2aff">
	<path class="st148" d="M193.5,158c4.5,4.1,0.8,11.2-4.5,12.2c-5.7,0.1-11.4-0.2-17-0.4c0.5-2.6,1.3-5.1,1.8-7.7
		c2.6,0.1,5.2,0.2,7.9,0.2c-0.2,2.2-0.2,4.4-0.2,6.6c1.7-0.4,3.7-0.3,5-1.4c1.3-0.8,0.4-2.4,0.2-3.5c-0.1-0.4-0.4-1.2-0.5-1.6
		c1.8,0,3.5,0,5.3,0C192.2,160.9,192.8,159.4,193.5,158z"/>
</g>
<g id="_x23_fecf2cff">
	<path class="st149" d="M39.6,160c2,1.7,4.2,3.6,7,3.2c0.3,0.5,0.8,1.6,1,2.2c2.2,0.2,4.5,0.5,6.7,0.7c-0.1,0.7-0.2,2.2-0.2,2.9
		c-0.2,0.4-0.6,1.1-0.9,1.4c-5.2-0.3-10.4-0.4-15.6-0.6C38.4,166.5,38.9,163.2,39.6,160z"/>
	<path class="st149" d="M84.8,166.5c2.7-1.4,4.9-3.6,7.2-5.7c-0.3,2.4-0.4,4.9-0.5,7.3c0,0.4,0,1.3,0,1.8l-0.9-0.1
		c-3.4-0.3-6.8-0.5-10.2-0.1l-0.8,0.1c-7.1,0.1-14.2-0.2-21.2-0.3c0.5-2.2,0.9-4.5,1.3-6.8c4.2-0.1,8.4-0.6,12.6-0.6
		C76.7,162.3,80,167.3,84.8,166.5 M69.1,168.9c1.3-0.3,2.7-0.5,4-0.8c0.3-1,0.4-2.1,0.7-3.1c-0.9-1.9-3.1-1.9-4.9-2.5
		C67.9,164.4,65.7,168,69.1,168.9z"/>
</g>
<g id="_x23_9a6621ff">
	<path class="st150" d="M46.6,163.2c4.3-0.4,8.8-0.7,12.6-2.8c-0.6,2.6-1,5.3-1.6,7.9c-0.2-0.6-0.5-1.7-0.7-2.3
		c-1,1-1.9,1.9-2.8,2.9c0.1-0.7,0.2-2.2,0.2-2.9c-2.2-0.2-4.5-0.5-6.7-0.7C47.4,164.8,46.8,163.7,46.6,163.2z"/>
</g>
<g id="_x23_5d493eff">
	<path class="st151" d="M136.3,160.5c2-1.1,2.8,3.2,0.7,3.4C135.6,163.7,135.3,161.4,136.3,160.5z"/>
</g>
<g id="_x23_814e17ff">
	<path class="st152" d="M172.1,160.4c-0.9,4.7-1.4,9.5-2.6,14.2c-3.2,0.2-6.5,0.3-9.7,0.2l-0.8-0.2c0.2-0.9,0.3-1.8,0.5-2.7
		c2.6-0.5,5.2-1,7.9-1.5c0.3-1.5,0.6-3,0.8-4.5c-2.2-0.2-4.4-0.3-6.6-0.4c-0.2-1-0.4-1.9-0.5-2.9C164.8,162.6,168.9,163,172.1,160.4
		z"/>
</g>
<g id="_x23_ad6f10ff">
	<path class="st153" d="M148.2,170.1c0.8-3.1,1.8-6.2,2.6-9.4c-0.4,5.5-1.5,10.9-2.2,16.3c-0.3,1.1-0.6,2.3-0.9,3.4
		c6.7-0.7,14.4,1.8,20.2-2.8c1.7,2.6,4.9,3.3,7.8,2.4c1.5-1.1,2.5-2.8,3.5-4.3c-0.5,1.9-1,3.9-1.4,5.8c-13.7-0.4-27.5,0.3-41.2-0.3
		c0.3-0.2,1-0.7,1.4-0.9c2.5-0.3,5.2,0.1,7.6-0.7c1-2.2,1.4-4.5,2-6.8C147.8,172,148,171.1,148.2,170.1z"/>
</g>
<g id="_x23_fed12cff">
	<path class="st154" d="M152.9,163c2.7-0.2,5.4-0.5,8.1-0.5c0.2,1,0.4,1.9,0.5,2.9c2.2,0.1,4.4,0.2,6.6,0.4c-0.3,1.5-0.6,3-0.8,4.5
		c-5.2-0.4-10.5-0.5-15.7-0.6C152.1,167.5,152.5,165.3,152.9,163z"/>
	<path class="st154" d="M194.5,205.6c2-1.6,4.1-3.1,6-4.9c-0.2,1-0.5,2.1-0.7,3.1c-4.6,3.7-8.6,8.1-13.8,11
		c-4.3,2.6-9.1,4.2-13.9,5.2c1-0.7,1.9-1.5,2.9-2.1C182,214.7,188.7,210.8,194.5,205.6z"/>
</g>
<g id="_x23_995e24ff">
	<path class="st155" d="M181.6,162.3c1.5,0,3.1,0,4.6,0c0.1,0.4,0.4,1.2,0.5,1.6c-0.4,1.1-0.7,2.2-1.1,3.3c-1.4,0.5-2.8,1-4.1,1.6
		C181.4,166.7,181.4,164.5,181.6,162.3z"/>
</g>
<g id="_x23_d58e22ff">
	<path class="st156" d="M20.3,165.6c5.8-0.7,11.7-0.9,17.4-2.2c-1,4.6-2,9.2-2.5,13.9c-0.3,1.3-0.6,2.6-0.8,3.9
		c-0.1,1.4-0.2,2.8,0.2,4.1c6.3,0.8,12.6,0.1,19,0.3c2.5,6.1,8.4,9.6,12.8,14.2c-3.8-1.9-7.2-4.6-11.3-5.6
		c-3.7-0.5-7.6-0.7-11.1,0.6c-1.3,1.2-2.3,2.7-3.3,4.1c-7.1-7.3-13.3-15.5-17.8-24.6C21.8,171.4,21.1,168.5,20.3,165.6z"/>
</g>
<g id="_x23_9c5e27ff">
	<path class="st157" d="M69.1,168.9c-3.4-0.9-1.1-4.5-0.2-6.5c1.8,0.6,4,0.6,4.9,2.5C72.4,166.5,70.8,167.8,69.1,168.9z"/>
</g>
<g id="_x23_e0e9f7ff">
	<path class="st158" d="M186.7,164c0.1,1.1,1.1,2.7-0.2,3.5c-1.4,1.1-3.4,1-5,1.4c1.4-0.5,2.7-1.1,4.1-1.6
		C186,166.2,186.4,165.1,186.7,164z"/>
	<path class="st158" d="M69.1,168.9c1.8-1.1,3.3-2.4,4.6-4c-0.2,1.1-0.4,2.1-0.7,3.1C71.8,168.4,70.4,168.6,69.1,168.9z"/>
	<path class="st158" d="M133.8,177.6c0.6-0.1,1.9-0.4,2.6-0.5c-0.2,1.4-0.4,2.9-0.5,4.3c0.6,1.6,1.2,3.2,1.9,4.9l0.2,0.8
		c-0.9,3-3.1,5.9-2.2,9.2c1.1,5.1,2,10.4,1.4,15.7c-0.2,0.6-0.7,1.7-0.9,2.2c0-0.4,0.1-1.2,0.2-1.6c-2.5,0.9-4.9,1.9-7.3,2.9
		c-0.6-2.2-1.2-4.4-1.8-6.6c-0.8,5.5-0.8,11,0.4,16.4c-0.4,0.3-1.2,0.9-1.6,1.3c0.2-8.7,0.1-17.4,0.1-26c1.5,0,3.1,0,4.6,0l0.2-0.8
		c0.5-2.6,1-5.1,1.7-7.6l-0.7-0.3c-2.1-0.9-4-2.1-5.9-3.3c1.9-1.6,4.2-2.6,6.6-3.4C133,182.7,133.4,180.2,133.8,177.6z"/>
</g>
<g id="_x23_763410ff">
	<path class="st159" d="M203.9,169.9c1.7-3,4-6.8,8.1-6.4c2.3-0.4,3.7,1.4,4.6,3.2c0,0.5-0.1,1.4-0.1,1.9c-1.5-0.1-3.1-0.2-4.6-0.3
		c-1.9,1.4-3.1,3.4-4.1,5.5c-1-0.3-1.9-0.5-2.9-0.8C204.5,172,204.2,171,203.9,169.9z"/>
</g>
<g id="_x23_773209ff">
	<path class="st160" d="M54.1,168.9c0.9-1,1.9-2,2.8-2.9c0.2,0.6,0.5,1.7,0.7,2.3c-0.4,2.2-1.1,4.3-1.8,6.5c-3.4,0-6.8,0-10.2,0.3
		c-0.2-1.1-0.4-2.2-0.6-3.4c2.7-0.4,5.4-0.9,8.1-1.3C53.5,170,53.9,169.3,54.1,168.9z"/>
</g>
<g id="_x23_be8b31ff">
	<path class="st161" d="M211.9,168.4c1.5,0,3.1,0.2,4.6,0.3c-0.4,2.8-2.8,4.1-5.1,5.2C211.5,172,211.7,170.2,211.9,168.4z"/>
</g>
<g id="_x23_fdbb26ff">
	<path class="st162" d="M80.2,169.8c3.4-0.4,6.8-0.2,10.2,0.1c-0.5,3.8-1.4,7.5-2.5,11.1c-3.1,0.2-6.3,0.3-9.4,0.1
		c0.1-0.8,0.4-2.3,0.5-3.1C79.5,175.3,79.9,172.5,80.2,169.8z"/>
</g>
<g id="_x23_87b1cdff">
	<path class="st163" d="M106.7,168.5c2.9,0,5.9,0.1,8.4,1.6c2,1.4,3.8,3,5.4,4.7c-0.5,2.1-1,4.1-1.3,6.2c0.2,1.4,0.4,2.8,0.7,4.3
		c3.7,0.1,7.3,0.3,11-0.2c1.8-2.1,2.1-5.1,3-7.6c-0.4,2.6-0.8,5.1-1.3,7.7c-2.3,0.8-4.7,1.8-6.6,3.4c-1.7,1.3-3.6,2.5-5.5,3.6
		c0.1,0.9,0.1,1.9,0.2,2.8c0.1,2.2,0.5,4.4,2,6c2.4,5.6-0.2,12.8-5.2,16.1c-0.8-1.3-1.6-2.7-2.4-4.1c-0.8-3.6-1-7.3-0.9-11
		c0.4-2.3,1-4.5,1.6-6.8c0.3-0.9,0.5-1.8,0.8-2.8c-0.6-0.2-1.8-0.6-2.5-0.8c0-2.2-0.1-4.5,0.1-6.7c1.6-4.7,0.7-9.8-1.7-14
		c-0.3,0.4-1,1.1-1.3,1.5l-0.5,0.6c-0.7-0.1-2-0.2-2.7-0.3C107.6,171.4,107.2,170,106.7,168.5z"/>
</g>
<g id="_x23_fec211ff">
	<path class="st164" d="M37.7,169.8c5.2,0.1,10.4,0.3,15.6,0.6c-2.7,0.4-5.4,0.8-8.1,1.3c0.2,1.1,0.3,2.2,0.6,3.4
		c3.8,0.5,7.6,0.3,11.4,0.4c0.1-0.6,0.3-1.9,0.3-2.5c3-0.4,6-0.4,8.9,0.4c-0.5,1.9-1,3.8-1.6,5.8c-2.3,4.1-7.4,1.6-11.1,1.7
		c-6.5,0.3-13,1-19.5,0.5c0.2-1.3,0.6-2.6,0.8-3.9C36,174.8,37,172.3,37.7,169.8z"/>
</g>
<g id="_x23_f49229ff">
	<path class="st165" d="M57.5,172.9c0.2-1.1,0.4-2.2,0.7-3.3c7.1,0.1,14.1,0.4,21.2,0.3c-1.6,1.2-3,2.7-4.8,3.5
		c-2.7,0.9-5.5,0.3-8.2-0.1C63.5,172.5,60.5,172.5,57.5,172.9z"/>
</g>
<g id="_x23_77390bff">
	<path class="st166" d="M79.4,169.9l0.8-0.1c-0.3,2.8-0.7,5.5-1.2,8.2c-0.8,0-2.3,0.1-3,0.2c0.8-0.8,1.6-1.6,2.4-2.4
		c-3.7-0.4-7.3-0.5-11-0.5c-0.9,1.2-1.7,2.5-2.6,3.7c0.5-1.9,1-3.8,1.6-5.8c2.7,0.5,5.5,1,8.2,0.1C76.4,172.5,77.8,171.1,79.4,169.9
		z"/>
</g>
<g id="_x23_3b0b03ff">
	<path class="st167" d="M90.4,169.9l0.9,0.1c0,1.8,0,3.5,0.2,5.3c0.2,0.4,0.6,1,0.8,1.4c4.2,5.2,11.4,5.5,17.4,4.2
		c-4.4,2.4-9.5,0.8-14.2,1.6c-1-0.8-1.9-1.6-2.9-2.4c-0.8,1.8-1.6,3.7-2.4,5.5c-3.8,0.1-7.7,0.2-11.5,0.2c-0.2-1.5-0.3-3.1-0.4-4.6
		c3.2,0.2,6.3,0.2,9.4-0.1C89,177.4,89.9,173.7,90.4,169.9z"/>
</g>
<g id="_x23_e68328ff">
	<path class="st168" d="M92.7,169.9c2.6-0.1,5.2-0.2,7.7-0.2c0.5,1.2,1.1,2.4,1.6,3.6c-3.3-0.4-6.6-1-9.8-1.5
		C92.3,171.3,92.6,170.4,92.7,169.9z"/>
</g>
<g id="_x23_e37c24ff">
	<path class="st169" d="M123.2,169.9c8.3,0.1,16.7,0.3,25,0.2c-0.2,0.9-0.4,1.9-0.6,2.8c-2.8-0.5-5.8-0.8-8.6,0.1
		c-0.4,0.1-1.2,0.3-1.6,0.4c-1.6-0.3-3.1-0.6-4.7-0.9c-0.7,1.2-1.5,2.3-2.1,3.5c-0.5-1.1-1.1-2.1-1.7-3.1c-2-0.6-4.1-0.5-6.2-0.6
		C122.8,171.8,123.1,170.6,123.2,169.9z"/>
</g>
<g id="_x23_e98a29ff">
	<path class="st170" d="M151.1,172c0.1-0.6,0.4-1.7,0.6-2.2c5.2,0.1,10.5,0.1,15.7,0.6c-2.6,0.5-5.2,1-7.9,1.5
		c-0.2,0.9-0.3,1.8-0.5,2.7C156.4,173.4,153.8,172.5,151.1,172z"/>
</g>
<g id="_x23_e37e28ff">
	<path class="st171" d="M171.8,173.1c0-1.1,0.1-2.2,0.2-3.3c5.7,0.2,11.3,0.5,17,0.4c0,0.6-0.1,1.9-0.1,2.6
		C183.2,172.3,177.4,172,171.8,173.1z"/>
</g>
<g id="_x23_e47e21ff">
	<path class="st172" d="M195.5,172.9c0.2-1.2,0.5-2.3,0.8-3.5c2.5,0.2,5,0.3,7.6,0.4c0.3,1.1,0.6,2.2,0.9,3.2
		C201.8,172.5,198.6,172.7,195.5,172.9z"/>
</g>
<g id="_x23_ffb506ff">
	<path class="st173" d="M218.4,169.7c2.4,0.1,4.8,0.2,7.2,0.4l-0.3,0.9c-4.3,11.5-23.1,14.7-30.1,4.2c0.1-0.6,0.2-1.7,0.3-2.2
		c3.1-0.2,6.3-0.5,9.4,0.2c1,0.2,1.9,0.5,2.9,0.8c1.8,0.4,3.8,1.2,5.7,0.6C215.5,173.4,216.8,171.4,218.4,169.7z"/>
</g>
<g id="_x23_110302ff">
	<path class="st174" d="M111.3,172.6c0.3-0.4,1-1.1,1.3-1.5c2.4,4.3,3.3,9.3,1.7,14c-6.3,0.3-13.7,2.4-18.7-2.7
		c4.7-0.7,9.9,0.9,14.2-1.6c1-0.5,2-1.1,2.9-1.7C112.3,177,111.8,174.8,111.3,172.6z"/>
</g>
<g id="_x23_ffc625ff">
	<path class="st175" d="M92.2,171.7c3.3,0.5,6.5,1.2,9.8,1.5c2-0.1,4-0.3,6-0.3c0.7,0.1,2,0.2,2.7,0.3c-5.1,3.8-12.2,5.8-18.3,3.5
		c-0.2-0.3-0.6-1-0.8-1.4C91.8,174.1,92,172.9,92.2,171.7z"/>
</g>
<g id="_x23_ffbd12ff">
	<path class="st176" d="M122.7,172.4c2.1,0.1,4.2-0.1,6.2,0.6c0.6,1,1.2,2,1.7,3.1c-0.6,1.5-1,3.1-1.5,4.6c-3,0.4-6.1,0.6-9.2,0.5
		C121.1,178.3,122,175.4,122.7,172.4z"/>
</g>
<g id="_x23_ffc51cff">
	<path class="st177" d="M139.1,173c2.8-0.9,5.7-0.6,8.6-0.1c-0.5,2.3-1,4.7-2,6.8c-2.4,0.8-5.1,0.4-7.6,0.7
		C138.4,178,138.7,175.5,139.1,173z"/>
</g>
<g id="_x23_fec514ff">
	<path class="st178" d="M151.1,172c2.7,0.5,5.3,1.4,7.9,2.5l0.8,0.2c3.9,1.1,9.2,2.2,12-1.6c5.6-1.1,11.4-0.8,17.1-0.3
		c1.4,2.6,2.7,5.2,4.1,7.9c-3.5,0-7,0-10.5,0c-0.4-1-0.8-1.9-1.2-2.9c-0.5-1.2-0.9-2.5-1.4-3.7c-0.1,0.4-0.4,1.3-0.5,1.8
		c-1,1.5-2,3.2-3.5,4.3c-2.9,0.9-6.1,0.2-7.8-2.4c-5.8,4.5-13.5,2.1-20.2,2.8c0.3-1.1,0.6-2.3,0.9-3.4
		C149.5,175.4,150.4,173.7,151.1,172z"/>
</g>
<g id="_x23_fead01ff">
	<path class="st179" d="M110.8,173.2l0.5-0.6c0.5,2.2,1,4.4,1.5,6.6c-0.9,0.6-1.9,1.2-2.9,1.7c-6.1,1.3-13.2,1-17.4-4.2
		C98.6,179,105.7,176.9,110.8,173.2z"/>
</g>
<g id="_x23_400a01ff">
	<path class="st180" d="M130.7,176.1c0.7-1.2,1.4-2.4,2.1-3.5c1.6,0.3,3.1,0.6,4.7,0.9c-0.4,1.2-0.8,2.4-1.1,3.6
		c-0.6,0.1-1.9,0.4-2.6,0.5c-0.9,2.5-1.1,5.5-3,7.6c-3.6,0.5-7.3,0.3-11,0.2c-0.3-1.4-0.5-2.9-0.7-4.3h0.8c3.1,0.2,6.1,0,9.2-0.5
		C129.6,179.1,130.1,177.6,130.7,176.1z"/>
</g>
<g id="_x23_c3ad6dff">
	<path class="st181" d="M137.5,173.5c0.4-0.1,1.2-0.3,1.6-0.4c-0.3,2.5-0.7,4.9-1.1,7.4c-0.3,0.2-1,0.7-1.4,0.9l-0.8,0
		c0.1-1.4,0.3-2.9,0.5-4.3C136.7,175.9,137.1,174.7,137.5,173.5z"/>
</g>
<g id="_x23_370a05ff">
	<path class="st182" d="M179.8,174.1c0.5,1.2,0.9,2.5,1.4,3.7c0,1.7-0.1,3.4-0.2,5.2c-0.1,0.6-0.3,1.9-0.4,2.6
		c-14.3,0.6-28.6-0.6-42.8,0.7c-0.6-1.6-1.3-3.2-1.9-4.9l0.8,0c13.7,0.6,27.5-0.1,41.2,0.3c0.5-1.9,0.9-3.9,1.4-5.8
		C179.4,175.4,179.7,174.5,179.8,174.1z"/>
</g>
<g id="_x23_390a03ff">
	<path class="st183" d="M67.4,175.3c3.7,0,7.3,0.1,11,0.5c-0.8,0.8-1.6,1.6-2.4,2.4c-2.4,0.2-4.8,0.3-7.1,0.4
		c-0.7,2.4-1.4,4.7-2.2,7.1c-2.9,0-5.8,0-8.7,0c-1.5,0-3-0.1-4.4-0.1c-6.3-0.2-12.7,0.5-19-0.3c-0.4-1.3-0.4-2.7-0.2-4.1
		c6.5,0.5,13-0.2,19.5-0.5c3.6-0.1,8.8,2.4,11.1-1.7C65.7,177.8,66.6,176.5,67.4,175.3z"/>
</g>
<g id="_x23_d38820ff">
	<path class="st184" d="M215.4,185.3c5.2-1.1,8.9-5.1,12.8-8.3c0,0.5-0.1,1.5-0.1,2c-6.4,11.2-15.1,21-25.2,29
		c2.4-3.1,4.7-6.4,6.3-10c-3.3,1.7-6.5,3.6-9.4,5.9c0.2-1,0.4-2.1,0.7-3.1c0.4-1.3,0.7-2.7,1.1-4c-7.3,0-13.3,4.4-19.9,7.1
		c6.9-6.2,15.4-11.2,19.8-19.7C205.8,186.3,210.8,186.2,215.4,185.3z"/>
</g>
<g id="_x23_da582aff">
	<path class="st185" d="M68.8,178.6c2.4-0.2,4.8-0.3,7.1-0.4c0.8,0,2.3-0.1,3-0.2c-0.1,0.8-0.4,2.3-0.5,3.1c0,1.6,0.2,3.1,0.4,4.6
		c3.8,0,7.7-0.1,11.5-0.2c0.8-1.8,1.6-3.7,2.4-5.5c1,0.8,1.9,1.6,2.9,2.4c5,5.1,12.5,3,18.7,2.7c-0.2,2.2-0.1,4.4-0.1,6.7
		c-0.5-0.1-1.5-0.4-2-0.5c0.3-2.9-3.3-2.4-3.9-0.2c-1.3,0.6-2.6,1.3-3.9,1.9c0.9,2.3,1.8,4.6,2.7,6.9c2.9-1.5,5.8-3,8.8-4.5
		c-0.6,2.2-1.2,4.5-1.6,6.8c-2.6-0.3-5.3-0.5-7.9-0.7c-1.2-1.5-2.3-3-3.5-4.5c-1.1,1.5-2.3,3-3.4,4.6c-3.1,0.1-6.1,0.2-9.2,0.3
		c0.1-1,0.1-1.9,0.2-2.9c2.4,0.1,4.7,0.3,7.1,0.4c0.5-2,1.2-3.9,1.3-5.9c-0.5-1.3-1.4-2.4-2.2-3.5c-1.1-1.8-3.2,0-4.2,1
		c-0.9,0.6-1.8,1.2-2.7,1.7c0.2,1.3,0.5,2.6,0.7,4c-5.6,3.7-12.6,2.1-18.6,0.6c-5.1-3.2-9.8-7.1-13.9-11.6c2.9,0.1,5.8,0,8.7,0
		C67.4,183.4,68.1,181,68.8,178.6z"/>
</g>
<g id="_x23_380c06ff">
	<path class="st186" d="M184.1,182.1c3.9,0,7.7-0.4,11.4-1.7c0.5,1.4,1,2.8,1.5,4.2c-0.4,0.4-1.2,1.2-1.7,1.6c-4.2-0.6-9,0.5-12.7-2
		C182.9,183.6,183.7,182.6,184.1,182.1z"/>
</g>
<g id="_x23_e0692cff">
	<path class="st187" d="M181,183c0.4,0.3,1.2,0.8,1.6,1.1c3.7,2.6,8.5,1.4,12.7,2c-12.7,12.7-29.2,21.5-46.7,25.6
		c-3.5,0.9-7.1,1.5-10.6,0.9c1-4.5,0.7-9-0.2-13.4c2.7-0.8,5.9-1.3,7.4-4c1.4-1.9-0.8-3.6-1.8-5.1c-0.3-0.2-0.9-0.6-1.1-0.8
		c-1.1,0.4-2.2,0.8-3.3,1.3c-0.3-1.2-0.6-2.3-1-3.5l-0.2-0.8c14.2-1.3,28.6-0.1,42.8-0.7C180.7,184.9,180.9,183.6,181,183
		 M156.4,189.3c-0.7,1-1.3,1.9-2,2.9c-1,0.1-2,0.3-3.1,0.4c0.8,2.1,1.6,4.2,2.3,6.4c3.7-0.2,6.4-2.7,8.3-5.8c-1.1-0.7-2.1-1.4-3.2-2
		c0.1-0.5,0.3-1.4,0.4-1.9C158.4,189.3,157.1,189.3,156.4,189.3z"/>
</g>
<g id="_x23_ffef63ff">
	<path class="st188" d="M197,184.5c0.6-0.6,1.2-1.2,1.8-1.9c0.7,0.4,2.1,1.2,2.8,1.5c-4.5,8.4-12.9,13.5-19.8,19.7
		c-7.5,3.9-14.8,8.3-23,10.9c-8.3,2.9-16.9,4.3-25.6,5.2c1.2-1.8,2.2-3.8,3.1-5.8c0.2-0.6,0.7-1.7,0.9-2.2l0.8,0.6
		c3.6,0.6,7.2,0,10.6-0.9c17.5-4,34-12.8,46.7-25.6C195.7,185.7,196.5,184.9,197,184.5z"/>
</g>
<g id="_x23_d6b288ff">
	<path class="st189" d="M138,187c0.3,1.2,0.6,2.3,1,3.5c1.1-0.4,2.2-0.9,3.3-1.3c0.3,0.2,0.9,0.6,1.1,0.8c-2.1,1.1-4.2,2.2-6.4,3.2
		c0.2,1.9,0.5,3.9,0.8,5.9c0.9,4.4,1.2,9,0.2,13.4l-0.8-0.6c0.6-5.3-0.3-10.5-1.4-15.7C134.8,193,137,190,138,187z"/>
</g>
<g id="_x23_e9d070ff">
	<path class="st190" d="M92.4,190.9c1-1,3.1-2.8,4.2-1C96.2,191.9,93.6,192.4,92.4,190.9z"/>
</g>
<g id="_x23_ebd179ff">
	<path class="st191" d="M108.4,191.1c0.6-2.2,4.1-2.8,3.9,0.2C110.9,191.3,109.7,191.2,108.4,191.1z"/>
</g>
<g id="_x23_f6d406ff">
	<path class="st192" d="M120.5,192.3c1.9-1.1,3.8-2.2,5.5-3.6c1.9,1.2,3.8,2.4,5.9,3.3c-0.3-0.1-1-0.3-1.3-0.4
		c-0.4,2.5-1.7,4.6-3.3,6.5c-1.6,0.2-3.2,0.4-4.8,0.6c-0.6-1.2-1.2-2.4-1.8-3.6C120.6,194.1,120.5,193.2,120.5,192.3z"/>
</g>
<g id="_x23_e7ca66ff">
	<path class="st193" d="M156.4,189.3c0.7,0,2,0,2.6,0c-0.1,0.5-0.3,1.4-0.4,1.9c-1.4,0.4-2.8,0.8-4.3,1
		C155.1,191.2,155.8,190.2,156.4,189.3z"/>
</g>
<g id="_x23_f5d203ff">
	<path class="st194" d="M96.6,189.9c0.8,1.1,1.7,2.2,2.2,3.5c0,2-0.8,4-1.3,5.9c-2.4-0.2-4.7-0.3-7.1-0.4c0-0.6,0-1.7,0.1-2.3
		c-0.2-1.3-0.5-2.6-0.7-4c0.9-0.6,1.8-1.1,2.7-1.7C93.6,192.4,96.2,191.9,96.6,189.9z"/>
</g>
<g id="_x23_f7d302ff">
	<path class="st195" d="M143.3,190.1c1,1.4,3.2,3.2,1.8,5.1c-1.5,2.7-4.8,3.2-7.4,4c-0.3-2-0.6-3.9-0.8-5.9
		C139.1,192.2,141.2,191.1,143.3,190.1z"/>
</g>
<g id="_x23_f5d102ff">
	<path class="st196" d="M104.5,193c1.3-0.6,2.6-1.3,3.9-1.9c1.3,0.2,2.6,0.3,3.9,0.2c0.5,0.1,1.5,0.4,2,0.5c0.6,0.2,1.8,0.6,2.5,0.8
		c-0.3,0.9-0.5,1.8-0.8,2.8c-2.9,1.5-5.8,3.1-8.8,4.5C106.3,197.5,105.4,195.2,104.5,193z"/>
</g>
<g id="_x23_f6d401ff">
	<path class="st197" d="M154.4,192.2c1.4-0.2,2.9-0.6,4.3-1c1.1,0.7,2.2,1.4,3.2,2c-1.8,3.1-4.5,5.6-8.3,5.8
		c-0.7-2.2-1.5-4.3-2.3-6.4C152.4,192.4,153.4,192.3,154.4,192.2z"/>
</g>
<g id="_x23_ce7c1dff">
	<path class="st198" d="M43.8,194.8c3.5-1.3,7.5-1.1,11.1-0.6c4.1,1.1,7.6,3.7,11.3,5.6c5.3,3.4,10.5,6.9,16.1,9.8
		c11.4,5.8,24,9.1,36.8,10.1c2,2.6,4.5,4.8,6.9,6.9c0.4-0.3,1.2-0.9,1.6-1.3c2-1.6,3.9-3.4,5.5-5.4c8.7-0.9,17.3-2.4,25.6-5.2
		c8.1-2.5,15.4-7,23-10.9c6.5-2.6,12.5-7.1,19.9-7.1c-0.4,1.3-0.7,2.7-1.1,4c-1.9,1.7-4,3.3-6,4.9c-2.2,0.1-4.4,0.4-6.2,1.6
		c-5.6,3.2-11.4,6.3-16.3,10.7c0.7,0,2.2,0.1,3,0.1c-1,0.7-1.9,1.4-2.9,2.1c4.9-1,9.7-2.6,13.9-5.2c5.2-2.9,9.2-7.3,13.8-11
		c2.9-2.3,6.1-4.2,9.4-5.9c-1.6,3.6-3.9,6.9-6.3,10c-28.7,24.8-70,33.2-106.5,23.7c-21.2-5.5-40.8-17-55.9-32.8
		C41.5,197.5,42.5,196,43.8,194.8z"/>
</g>
<g id="_x23_b88f5aff">
	<path class="st199" d="M120.7,195.1c0.6,1.2,1.2,2.4,1.8,3.6c1.6-0.2,3.2-0.4,4.8-0.6c1.2,0.6,2.5,1.2,3.7,1.8l-0.2,0.8
		c-1.5,0-3.1-0.1-4.6,0c-1.2,0.1-2.3,0.3-3.4,0.5C121.2,199.4,120.8,197.2,120.7,195.1z"/>
</g>
<g id="_x23_e16a2dff">
	<path class="st200" d="M71.8,197.2c6.1,1.5,13,3.1,18.6-0.6c0,0.6,0,1.7-0.1,2.3c-0.1,1-0.1,1.9-0.2,2.9c3.1-0.1,6.2-0.2,9.2-0.3
		c1.1-1.5,2.3-3.1,3.4-4.6c1.2,1.5,2.3,3,3.5,4.5c2.7,0.2,5.3,0.4,7.9,0.7c-0.2,3.7,0.1,7.4,0.9,11
		C99.6,211.9,84.6,206.1,71.8,197.2z"/>
</g>
<g id="_x23_77410eff">
	<path class="st201" d="M188.3,207.2c1.9-1.2,4.1-1.5,6.2-1.6c-5.8,5.1-12.5,9.1-19.5,12.3c-0.7,0-2.2-0.1-3-0.1
		C176.9,213.5,182.6,210.4,188.3,207.2z"/>
</g>
<g id="_x23_fffefeff">
	<path class="st202" d="M127.7,225.4c-1.3-5.4-1.2-10.9-0.4-16.4c0.6,2.2,1.2,4.4,1.8,6.6c2.4-1,4.9-2,7.3-2.9
		c0,0.4-0.1,1.2-0.2,1.6c-0.8,2-1.9,3.9-3.1,5.8C131.5,221.9,129.7,223.8,127.7,225.4z"/>
</g>
</svg>
