<?xml version="1.0" encoding="UTF-8" ?>
<!DOCTYPE svg PUBLIC "-//W3C//DTD SVG 1.1//EN" "http://www.w3.org/Graphics/SVG/1.1/DTD/svg11.dtd">
<svg width="250pt" height="250pt" viewBox="0 0 250 250" version="1.1" xmlns="http://www.w3.org/2000/svg">
<g id="#fefefeff">
<path fill="#fefefe" opacity="1.00" d=" M 0.00 0.00 L 90.66 0.00 C 87.94 4.37 82.33 3.63 77.99 5.01 C 62.53 13.06 45.51 20.15 34.58 34.61 C 19.82 45.00 13.84 62.39 5.17 77.03 C 3.91 81.29 4.29 86.96 0.00 89.66 L 0.00 0.00 Z" />
<path fill="#fefefe" opacity="1.00" d=" M 239.81 182.76 C 248.11 178.46 242.92 166.67 250.00 162.41 L 250.00 250.00 L 164.42 250.00 C 167.35 243.02 177.88 247.83 181.55 241.58 C 184.01 237.00 190.05 238.40 194.00 235.96 C 211.71 220.64 231.72 205.15 239.81 182.76 Z" />
</g>
<g id="#e3e2e3ff">
<path fill="#e3e2e3" opacity="1.00" d=" M 90.66 0.00 L 95.59 0.00 C 92.11 7.12 82.62 3.95 77.05 8.07 C 54.49 18.63 32.51 33.55 19.80 55.86 C 13.59 61.29 13.24 69.97 8.14 76.10 C 4.05 81.34 7.22 90.71 0.00 93.57 L 0.00 89.66 C 4.29 86.96 3.91 81.29 5.17 77.03 C 13.84 62.39 19.82 45.00 34.58 34.61 C 45.51 20.15 62.53 13.06 77.99 5.01 C 82.33 3.63 87.94 4.37 90.66 0.00 Z" />
</g>
<g id="#bdbabdff">
<path fill="#bdbabd" opacity="1.00" d=" M 95.59 0.00 L 99.45 0.00 C 98.41 7.61 88.57 5.51 83.34 7.41 C 67.67 13.56 53.47 22.92 40.09 33.08 C 39.69 34.05 39.34 35.04 39.06 36.06 C 29.34 40.97 25.57 52.08 19.13 60.12 C 13.42 64.08 14.43 72.04 9.88 76.87 C 4.63 82.91 9.22 95.01 0.00 97.43 L 0.00 93.57 C 7.22 90.71 4.05 81.34 8.14 76.10 C 13.24 69.97 13.59 61.29 19.80 55.86 C 32.51 33.55 54.49 18.63 77.05 8.07 C 82.62 3.95 92.11 7.12 95.59 0.00 Z" />
<path fill="#bdbabd" opacity="1.00" d=" M 242.73 169.84 C 244.61 164.21 242.37 155.12 250.00 153.57 L 250.00 157.43 C 246.20 159.01 244.62 162.87 244.71 166.89 C 244.56 175.09 237.33 180.17 235.84 187.90 C 222.81 209.47 204.23 228.59 180.82 238.87 C 175.25 246.33 162.74 241.37 158.64 250.00 L 154.67 250.00 C 159.73 240.03 174.60 245.37 180.99 235.96 C 188.20 235.97 192.59 229.22 199.03 227.05 C 202.35 225.82 204.00 222.56 206.06 219.94 C 210.22 218.07 212.28 213.63 215.93 211.04 C 229.00 200.65 234.99 184.24 242.73 169.84 Z" />
</g>
<g id="#958f94ff">
<path fill="#958f94" opacity="1.00" d=" M 99.45 0.00 L 103.46 0.00 C 100.62 11.17 85.58 4.68 78.64 11.64 C 64.16 17.34 51.25 26.16 39.06 36.06 C 39.34 35.04 39.69 34.05 40.09 33.08 C 53.47 22.92 67.67 13.56 83.34 7.41 C 88.57 5.51 98.41 7.61 99.45 0.00 Z" />
</g>
<g id="#6b6469ff">
<path fill="#6b6469" opacity="1.00" d=" M 103.46 0.00 L 108.43 0.00 C 105.02 11.54 90.38 5.95 82.43 11.47 C 77.53 15.47 71.32 16.70 65.38 18.32 C 56.86 27.35 44.24 31.49 36.58 41.53 C 30.54 47.02 26.85 54.66 21.87 60.93 C 24.51 50.83 33.29 44.19 39.06 36.06 C 51.25 26.16 64.16 17.34 78.64 11.64 C 85.58 4.68 100.62 11.17 103.46 0.00 Z" />
</g>
<g id="#423f40ff">
<path fill="#423f40" opacity="1.00" d=" M 108.43 0.00 L 114.41 0.00 C 112.46 12.36 96.24 7.94 87.87 10.85 C 81.72 13.59 76.36 18.25 69.21 18.38 C 57.81 27.21 44.84 34.28 35.26 45.25 C 29.68 52.09 25.98 60.48 19.29 66.38 C 18.25 73.10 15.84 79.19 11.37 84.34 C 8.26 92.32 12.49 108.83 0.00 109.30 L 0.00 105.42 C 11.51 102.43 6.61 87.63 12.04 80.06 C 17.02 75.00 15.43 66.65 20.90 61.83 C 21.14 61.60 21.63 61.15 21.87 60.93 C 26.85 54.66 30.54 47.02 36.58 41.53 C 44.24 31.49 56.86 27.35 65.38 18.32 C 71.32 16.70 77.53 15.47 82.43 11.47 C 90.38 5.95 105.02 11.54 108.43 0.00 Z" />
</g>
<g id="#1c281bff">
<path fill="#1c281b" opacity="1.00" d=" M 114.41 0.00 L 136.18 0.00 C 137.12 6.91 132.60 12.03 126.91 14.90 C 126.25 14.93 124.95 14.99 124.29 15.02 C 123.90 12.47 123.76 8.89 120.63 8.27 C 111.74 6.79 103.53 11.75 94.85 12.58 C 85.15 13.09 77.48 19.81 68.39 22.47 C 54.90 29.63 44.56 41.25 34.11 52.10 C 17.59 69.10 12.52 92.82 6.93 114.99 C 5.06 113.17 2.49 112.88 0.00 112.79 L 0.00 109.30 C 12.49 108.83 8.26 92.32 11.37 84.34 C 15.84 79.19 18.25 73.10 19.29 66.38 C 25.98 60.48 29.68 52.09 35.26 45.25 C 44.84 34.28 57.81 27.21 69.21 18.38 C 76.36 18.25 81.72 13.59 87.87 10.85 C 96.24 7.94 112.46 12.36 114.41 0.00 Z" />
</g>
<g id="#484c4aff">
<path fill="#484c4a" opacity="1.00" d=" M 136.18 0.00 L 141.78 0.00 C 141.85 3.23 142.41 6.84 145.31 8.79 C 152.48 9.20 160.11 8.35 166.94 11.20 C 168.32 17.28 159.65 14.66 156.41 14.57 C 147.08 11.84 136.15 10.35 128.17 17.21 C 124.21 26.20 117.53 34.15 116.27 44.11 C 116.02 50.03 112.09 54.63 109.63 59.74 L 108.98 60.26 L 108.95 59.25 C 110.32 43.01 120.38 29.37 126.91 14.90 C 132.60 12.03 137.12 6.91 136.18 0.00 Z" />
</g>
<g id="#64676aff">
<path fill="#64676a" opacity="1.00" d=" M 141.78 0.00 L 145.64 0.00 C 146.70 10.26 159.53 7.00 166.68 9.35 C 171.27 12.56 175.97 16.87 182.07 15.96 L 182.04 16.83 C 179.06 16.76 175.92 15.82 173.11 17.16 C 171.13 23.37 179.83 21.90 182.72 25.31 C 189.31 31.99 196.93 38.27 201.38 46.67 C 204.90 54.09 196.75 58.68 195.22 65.16 C 192.15 76.40 180.16 83.15 179.18 95.16 C 178.85 95.66 178.20 96.66 177.87 97.17 C 176.68 97.13 175.62 96.79 174.71 96.14 C 177.13 90.15 177.93 82.69 183.98 79.08 C 188.44 73.65 193.04 67.96 195.10 61.11 C 196.47 55.91 202.28 51.00 198.28 45.67 C 192.35 38.28 186.45 29.38 178.04 24.73 C 172.06 22.88 167.99 16.95 161.56 16.52 C 150.71 16.53 138.22 10.34 129.18 19.19 C 126.05 28.77 116.14 37.46 118.97 48.09 C 119.03 54.71 111.99 59.01 112.63 66.16 C 110.93 64.42 110.46 61.94 109.63 59.74 C 112.09 54.63 116.02 50.03 116.27 44.11 C 117.53 34.15 124.21 26.20 128.17 17.21 C 136.15 10.35 147.08 11.84 156.41 14.57 C 159.65 14.66 168.32 17.28 166.94 11.20 C 160.11 8.35 152.48 9.20 145.31 8.79 C 142.41 6.84 141.85 3.23 141.78 0.00 Z" />
</g>
<g id="#898888ff">
<path fill="#898888" opacity="1.00" d=" M 145.64 0.00 L 148.78 0.00 C 151.85 10.16 164.83 4.83 171.55 10.47 C 175.07 13.59 179.63 14.85 184.11 15.93 C 183.60 15.93 182.58 15.95 182.07 15.96 C 175.97 16.87 171.27 12.56 166.68 9.35 C 159.53 7.00 146.70 10.26 145.64 0.00 Z" />
</g>
<g id="#aaa8aaff">
<path fill="#aaa8aa" opacity="1.00" d=" M 148.78 0.00 L 153.57 0.00 C 154.76 5.94 161.81 5.48 166.38 6.59 C 187.13 14.76 206.62 26.53 221.07 43.95 C 230.96 53.54 235.76 66.63 242.62 78.36 C 244.98 84.15 242.87 92.69 250.00 95.34 L 250.00 100.45 C 243.82 98.84 243.46 91.25 242.78 86.13 C 242.50 77.68 233.80 73.03 233.63 64.33 C 222.57 47.13 208.94 30.05 190.06 20.95 C 187.93 19.45 186.70 16.78 184.11 15.93 C 179.63 14.85 175.07 13.59 171.55 10.47 C 164.83 4.83 151.85 10.16 148.78 0.00 Z" />
</g>
<g id="#d8d7d7ff">
<path fill="#d8d7d7" opacity="1.00" d=" M 153.57 0.00 L 158.55 0.00 C 162.09 5.67 169.27 4.03 174.64 6.39 C 183.39 12.75 193.78 16.06 202.53 22.54 C 213.04 33.30 226.00 42.42 232.82 56.14 C 237.45 60.45 237.22 67.65 242.10 71.86 C 246.58 77.25 243.64 86.09 250.00 90.50 L 250.00 95.34 C 242.87 92.69 244.98 84.15 242.62 78.36 C 235.76 66.63 230.96 53.54 221.07 43.95 C 206.62 26.53 187.13 14.76 166.38 6.59 C 161.81 5.48 154.76 5.94 153.57 0.00 Z" />
</g>
<g id="#fdfdfdff">
<path fill="#fdfdfd" opacity="1.00" d=" M 158.55 0.00 L 250.00 0.00 L 250.00 90.50 C 243.64 86.09 246.58 77.25 242.10 71.86 C 237.22 67.65 237.45 60.45 232.82 56.14 C 226.00 42.42 213.04 33.30 202.53 22.54 C 193.78 16.06 183.39 12.75 174.64 6.39 C 169.27 4.03 162.09 5.67 158.55 0.00 Z" />
<path fill="#fdfdfd" opacity="1.00" d=" M 0.00 160.50 C 4.51 163.97 4.75 169.97 6.03 175.01 C 8.90 179.98 13.42 184.13 13.81 190.28 C 27.65 210.84 45.40 230.51 68.62 240.39 C 73.73 246.26 83.50 243.17 87.63 250.00 L 0.00 250.00 L 0.00 160.50 Z" />
</g>
<g id="#074206ff">
<path fill="#074206" opacity="1.00" d=" M 94.85 12.58 C 103.53 11.75 111.74 6.79 120.63 8.27 C 123.76 8.89 123.90 12.47 124.29 15.02 C 122.94 17.06 121.55 19.07 120.16 21.08 C 121.01 15.87 116.98 9.92 110.91 12.26 C 99.82 15.08 87.25 14.23 77.95 21.82 C 63.57 25.80 53.18 36.83 42.41 46.42 C 21.89 66.85 11.89 95.49 9.92 123.98 C 9.59 130.70 9.77 137.50 12.16 143.88 C 15.42 152.26 13.67 162.22 19.36 169.69 C 22.23 173.12 22.76 177.62 24.46 181.59 C 26.69 186.26 31.55 188.75 35.95 190.98 C 36.72 191.75 37.48 192.52 38.23 193.30 L 38.04 194.03 C 31.29 197.09 27.16 187.90 22.30 184.72 C 21.51 174.89 12.49 168.19 12.78 158.13 C 12.05 150.45 7.50 143.73 6.93 136.05 C 6.98 129.03 7.08 122.01 6.93 114.99 C 12.52 92.82 17.59 69.10 34.11 52.10 C 44.56 41.25 54.90 29.63 68.39 22.47 C 77.48 19.81 85.15 13.09 94.85 12.58 Z" />
</g>
<g id="#037804ff">
<path fill="#037804" opacity="1.00" d=" M 110.91 12.26 C 116.98 9.92 121.01 15.87 120.16 21.08 C 115.30 33.16 105.33 43.91 106.98 57.84 C 106.82 58.45 106.51 59.68 106.35 60.29 C 105.08 56.74 101.41 52.77 103.99 48.99 C 108.72 41.32 110.19 32.10 115.89 24.95 C 119.55 21.13 117.05 14.90 112.03 14.27 C 102.37 15.84 91.92 15.68 83.66 21.63 C 65.85 27.38 50.95 39.82 38.51 53.55 C 15.16 81.00 8.77 119.24 16.03 154.00 C 16.39 162.36 22.98 168.38 24.58 176.39 C 25.92 181.62 30.28 185.71 35.01 188.08 C 38.30 186.68 39.20 182.86 39.83 179.72 C 41.60 175.09 45.35 171.49 46.68 166.65 C 48.93 157.58 57.98 153.09 64.91 147.91 C 60.58 154.56 52.49 157.67 49.13 165.06 C 45.18 173.88 41.71 183.17 35.95 190.98 C 31.55 188.75 26.69 186.26 24.46 181.59 C 22.76 177.62 22.23 173.12 19.36 169.69 C 13.67 162.22 15.42 152.26 12.16 143.88 C 9.77 137.50 9.59 130.70 9.92 123.98 C 11.89 95.49 21.89 66.85 42.41 46.42 C 53.18 36.83 63.57 25.80 77.95 21.82 C 87.25 14.23 99.82 15.08 110.91 12.26 Z" />
</g>
<g id="#01ac02ff">
<path fill="#01ac02" opacity="1.00" d=" M 83.66 21.63 C 91.92 15.68 102.37 15.84 112.03 14.27 C 117.05 14.90 119.55 21.13 115.89 24.95 C 110.19 32.10 108.72 41.32 103.99 48.99 C 101.41 52.77 105.08 56.74 106.35 60.29 L 106.18 61.15 C 104.83 61.09 103.49 61.03 102.15 60.97 C 98.14 46.78 108.09 34.37 114.68 22.61 C 117.87 15.04 107.05 15.80 103.13 17.08 C 68.39 24.55 35.65 49.54 23.68 83.70 C 14.83 96.34 17.23 112.48 15.93 127.00 C 16.73 139.37 14.81 153.16 21.94 164.02 C 25.45 169.88 25.19 177.52 30.66 182.28 C 31.93 184.07 35.29 186.67 36.70 183.71 C 40.87 169.00 48.51 155.09 61.79 146.78 C 62.69 146.89 64.47 147.12 65.36 147.23 L 64.91 147.91 C 57.98 153.09 48.93 157.58 46.68 166.65 C 45.35 171.49 41.60 175.09 39.83 179.72 C 39.20 182.86 38.30 186.68 35.01 188.08 C 30.28 185.71 25.92 181.62 24.58 176.39 C 22.98 168.38 16.39 162.36 16.03 154.00 C 8.77 119.24 15.16 81.00 38.51 53.55 C 50.95 39.82 65.85 27.38 83.66 21.63 Z" />
</g>
<g id="#81898dff">
<path fill="#81898d" opacity="1.00" d=" M 129.18 19.19 C 138.22 10.34 150.71 16.53 161.56 16.52 C 167.99 16.95 172.06 22.88 178.04 24.73 C 176.77 24.85 175.51 24.97 174.24 25.10 C 164.09 16.20 150.12 16.26 137.42 16.36 C 127.80 19.13 126.76 30.87 122.22 38.20 C 120.11 40.89 120.02 47.44 124.66 45.64 C 133.85 41.84 142.54 48.36 150.06 52.86 C 162.13 57.09 174.86 63.15 181.24 74.87 C 185.58 76.42 187.10 70.81 189.39 68.37 C 192.63 61.82 197.13 54.93 196.71 47.40 C 192.31 38.54 183.69 32.72 178.04 24.73 C 186.45 29.38 192.35 38.28 198.28 45.67 C 202.28 51.00 196.47 55.91 195.10 61.11 C 193.04 67.96 188.44 73.65 183.98 79.08 C 173.25 80.90 174.57 60.96 161.79 65.13 C 155.15 61.99 147.60 60.12 142.16 54.94 C 139.41 49.58 132.07 47.78 126.63 49.65 C 123.84 51.33 121.23 49.90 118.97 48.09 C 116.14 37.46 126.05 28.77 129.18 19.19 Z" />
</g>
<g id="#235324ff">
<path fill="#235324" opacity="1.00" d=" M 124.29 15.02 C 124.95 14.99 126.25 14.93 126.91 14.90 C 120.38 29.37 110.32 43.01 108.95 59.25 C 108.46 58.90 107.47 58.19 106.98 57.84 C 105.33 43.91 115.30 33.16 120.16 21.08 C 121.55 19.07 122.94 17.06 124.29 15.02 Z" />
</g>
<g id="#01de04ff">
<path fill="#01de04" opacity="1.00" d=" M 103.13 17.08 C 107.05 15.80 117.87 15.04 114.68 22.61 C 108.09 34.37 98.14 46.78 102.15 60.97 C 101.84 68.89 98.33 76.27 93.40 82.34 C 92.83 91.43 83.98 96.56 83.45 105.59 C 74.24 118.32 70.65 133.86 61.79 146.78 C 48.51 155.09 40.87 169.00 36.70 183.71 C 35.29 186.67 31.93 184.07 30.66 182.28 C 25.19 177.52 25.45 169.88 21.94 164.02 C 14.81 153.16 16.73 139.37 15.93 127.00 C 17.23 112.48 14.83 96.34 23.68 83.70 C 35.65 49.54 68.39 24.55 103.13 17.08 M 103.37 19.40 C 95.58 19.99 90.05 26.85 82.03 27.14 C 57.82 37.04 38.19 57.82 27.08 81.00 C 27.00 89.40 18.98 94.56 19.03 102.98 C 19.81 112.80 16.71 122.54 18.68 132.30 C 20.01 141.15 16.85 151.47 23.00 159.00 C 28.88 165.06 24.17 178.61 34.83 180.04 C 35.95 171.00 43.18 165.03 45.30 156.29 C 55.42 147.87 68.02 139.95 69.31 125.36 C 75.46 120.63 74.54 112.01 79.63 106.67 C 83.83 102.11 82.69 94.85 87.63 90.68 C 92.00 86.32 90.14 78.94 94.76 74.75 C 105.49 64.63 91.72 45.85 104.75 36.72 C 103.39 28.85 112.19 25.76 112.01 19.04 C 109.13 18.82 106.22 19.11 103.37 19.40 Z" />
</g>
<g id="#99a3a7ff">
<path fill="#99a3a7" opacity="1.00" d=" M 137.42 16.36 C 150.12 16.26 164.09 16.20 174.24 25.10 C 166.87 24.75 161.73 17.70 154.06 18.79 C 147.65 18.83 140.16 15.87 134.34 19.37 C 130.18 24.67 124.99 31.70 127.16 38.90 C 134.14 41.48 132.56 32.18 136.76 29.76 C 139.86 26.36 145.95 24.62 148.84 29.28 C 150.99 35.80 139.19 36.44 140.15 42.72 C 152.43 53.83 172.23 54.91 181.35 69.69 C 185.01 72.98 186.94 66.45 189.31 64.27 C 193.37 58.60 197.96 48.15 190.69 43.20 C 184.38 41.69 188.98 51.95 184.29 54.34 C 178.12 57.44 173.21 49.71 174.15 44.25 C 176.81 40.97 181.65 41.19 184.96 38.82 C 185.62 33.47 180.54 28.90 176.01 26.89 C 175.47 26.67 174.40 26.24 173.87 26.03 L 174.24 25.10 C 175.51 24.97 176.77 24.85 178.04 24.73 C 183.69 32.72 192.31 38.54 196.71 47.40 C 197.13 54.93 192.63 61.82 189.39 68.37 C 187.10 70.81 185.58 76.42 181.24 74.87 C 174.86 63.15 162.13 57.09 150.06 52.86 C 142.54 48.36 133.85 41.84 124.66 45.64 C 120.02 47.44 120.11 40.89 122.22 38.20 C 126.76 30.87 127.80 19.13 137.42 16.36 Z" />
</g>
<g id="#464a48ff">
<path fill="#464a48" opacity="1.00" d=" M 173.11 17.16 C 175.92 15.82 179.06 16.76 182.04 16.83 C 185.99 19.17 188.76 23.09 193.20 24.72 C 190.92 25.04 187.82 24.33 186.79 26.99 C 192.76 34.54 201.95 40.28 204.26 50.15 C 203.13 55.16 201.39 60.05 198.11 64.07 C 193.93 75.14 188.00 85.65 180.93 95.06 C 180.50 95.08 179.62 95.13 179.18 95.16 C 180.16 83.15 192.15 76.40 195.22 65.16 C 196.75 58.68 204.90 54.09 201.38 46.67 C 196.93 38.27 189.31 31.99 182.72 25.31 C 179.83 21.90 171.13 23.37 173.11 17.16 Z" />
</g>
<g id="#767275ff">
<path fill="#767275" opacity="1.00" d=" M 182.07 15.96 C 182.58 15.95 183.60 15.93 184.11 15.93 C 186.70 16.78 187.93 19.45 190.06 20.95 C 208.94 30.05 222.57 47.13 233.63 64.33 C 233.80 73.03 242.50 77.68 242.78 86.13 C 243.46 91.25 243.82 98.84 250.00 100.45 L 250.00 105.42 C 237.78 101.96 245.05 85.77 237.62 78.40 C 233.74 74.90 234.75 69.11 231.88 65.09 C 226.07 58.37 222.58 50.06 216.27 43.69 C 209.29 36.63 201.42 30.28 193.20 24.72 C 188.76 23.09 185.99 19.17 182.04 16.83 L 182.07 15.96 Z" />
</g>
<g id="#a8b6baff">
<path fill="#a8b6ba" opacity="1.00" d=" M 134.34 19.37 C 140.16 15.87 147.65 18.83 154.06 18.79 C 161.73 17.70 166.87 24.75 174.24 25.10 L 173.87 26.03 C 166.05 25.95 158.79 17.86 150.96 22.05 C 155.91 31.73 167.52 37.04 177.89 37.94 C 184.63 36.76 177.74 30.09 176.01 26.89 C 180.54 28.90 185.62 33.47 184.96 38.82 C 181.65 41.19 176.81 40.97 174.15 44.25 C 173.21 49.71 178.12 57.44 184.29 54.34 C 188.98 51.95 184.38 41.69 190.69 43.20 C 197.96 48.15 193.37 58.60 189.31 64.27 C 186.94 66.45 185.01 72.98 181.35 69.69 C 172.23 54.91 152.43 53.83 140.15 42.72 C 139.19 36.44 150.99 35.80 148.84 29.28 C 145.95 24.62 139.86 26.36 136.76 29.76 C 132.56 32.18 134.14 41.48 127.16 38.90 C 124.99 31.70 130.18 24.67 134.34 19.37 M 150.39 38.38 C 148.05 38.89 141.40 40.91 145.32 43.66 C 153.57 47.17 161.53 55.90 170.90 53.80 C 171.53 43.90 159.46 36.26 150.39 38.38 Z" />
<path fill="#a8b6ba" opacity="1.00" d=" M 66.36 165.34 C 79.47 165.03 95.18 163.54 104.92 174.19 C 96.32 171.77 86.79 162.27 78.04 169.68 C 85.90 176.02 94.75 183.68 105.15 184.31 C 111.93 184.18 108.24 176.63 104.92 174.19 C 110.09 174.14 112.22 180.13 113.58 184.23 C 113.43 190.03 103.19 186.47 102.12 191.98 C 103.33 196.72 106.68 202.70 112.73 200.86 C 116.20 198.40 115.61 193.56 117.14 190.02 C 121.43 188.68 123.86 193.30 123.85 196.91 C 123.04 204.51 118.29 210.90 113.80 216.81 C 111.70 219.91 109.13 215.69 108.11 213.92 C 105.96 208.64 100.24 206.89 95.68 204.35 C 86.66 200.19 77.62 195.72 69.12 190.80 C 68.29 185.21 73.11 180.68 77.91 178.80 C 79.71 170.35 64.26 172.04 63.87 178.90 C 63.85 183.01 58.53 187.79 55.12 184.78 C 56.31 177.43 57.92 167.67 66.36 165.34 M 82.27 184.36 C 78.62 184.51 72.34 185.90 74.01 190.92 C 83.10 193.31 90.04 202.57 100.02 201.01 C 100.95 191.16 90.73 185.29 82.27 184.36 Z" />
</g>
<g id="#00fd00ff">
<path fill="#00fd00" opacity="1.00" d=" M 103.37 19.40 C 106.22 19.11 109.13 18.82 112.01 19.04 C 112.19 25.76 103.39 28.85 104.75 36.72 C 91.72 45.85 105.49 64.63 94.76 74.75 C 90.14 78.94 92.00 86.32 87.63 90.68 C 82.69 94.85 83.83 102.11 79.63 106.67 C 74.54 112.01 75.46 120.63 69.31 125.36 C 68.02 139.95 55.42 147.87 45.30 156.29 C 43.18 165.03 35.95 171.00 34.83 180.04 C 24.17 178.61 28.88 165.06 23.00 159.00 C 16.85 151.47 20.01 141.15 18.68 132.30 C 16.71 122.54 19.81 112.80 19.03 102.98 C 18.98 94.56 27.00 89.40 27.08 81.00 C 38.19 57.82 57.82 37.04 82.03 27.14 C 90.05 26.85 95.58 19.99 103.37 19.40 Z" />
</g>
<g id="#b8c4c9ff">
<path fill="#b8c4c9" opacity="1.00" d=" M 150.96 22.05 C 158.79 17.86 166.05 25.95 173.87 26.03 C 174.40 26.24 175.47 26.67 176.01 26.89 C 177.74 30.09 184.63 36.76 177.89 37.94 C 167.52 37.04 155.91 31.73 150.96 22.05 Z" />
</g>
<g id="#343535ff">
<path fill="#343535" opacity="1.00" d=" M 186.79 26.99 C 187.82 24.33 190.92 25.04 193.20 24.72 C 201.42 30.28 209.29 36.63 216.27 43.69 C 216.44 45.19 216.63 46.69 216.83 48.19 C 210.91 42.74 205.72 33.25 196.93 32.98 C 198.03 39.14 205.54 42.39 205.14 49.69 L 204.26 50.15 C 201.95 40.28 192.76 34.54 186.79 26.99 Z" />
</g>
<g id="#142514ff">
<path fill="#142514" opacity="1.00" d=" M 196.93 32.98 C 205.72 33.25 210.91 42.74 216.83 48.19 C 222.25 53.94 225.40 61.44 231.26 66.71 C 231.98 72.99 234.53 78.54 238.62 83.34 C 240.92 89.93 239.95 97.20 240.92 104.04 C 233.74 95.76 238.16 82.85 229.50 75.56 C 227.99 67.44 222.15 61.54 218.59 54.38 C 214.86 52.05 210.27 52.13 206.12 51.02 C 205.88 50.69 205.39 50.03 205.14 49.69 C 205.54 42.39 198.03 39.14 196.93 32.98 Z" />
</g>
<g id="#948f93ff">
<path fill="#948f93" opacity="1.00" d=" M 19.13 60.12 C 25.57 52.08 29.34 40.97 39.06 36.06 C 33.29 44.19 24.51 50.83 21.87 60.93 C 21.63 61.15 21.14 61.60 20.90 61.83 C 16.96 63.09 15.12 67.00 14.76 70.92 C 14.40 75.97 9.25 78.71 8.69 83.67 C 7.05 89.97 8.16 99.62 0.00 101.43 L 0.00 97.43 C 9.22 95.01 4.63 82.91 9.88 76.87 C 14.43 72.04 13.42 64.08 19.13 60.12 Z" />
</g>
<g id="#b6c2c6ff">
<path fill="#b6c2c6" opacity="1.00" d=" M 150.39 38.38 C 159.46 36.26 171.53 43.90 170.90 53.80 C 161.53 55.90 153.57 47.17 145.32 43.66 C 141.40 40.91 148.05 38.89 150.39 38.38 Z" />
</g>
<g id="#474545ff">
<path fill="#474545" opacity="1.00" d=" M 216.27 43.69 C 222.58 50.06 226.07 58.37 231.88 65.09 C 234.75 69.11 233.74 74.90 237.62 78.40 C 245.05 85.77 237.78 101.96 250.00 105.42 L 250.00 111.32 C 245.25 111.57 242.40 108.11 240.92 104.04 C 239.95 97.20 240.92 89.93 238.62 83.34 C 234.53 78.54 231.98 72.99 231.26 66.71 C 225.40 61.44 222.25 53.94 216.83 48.19 C 216.63 46.69 216.44 45.19 216.27 43.69 Z" />
</g>
<g id="#6a7d86ff">
<path fill="#6a7d86" opacity="1.00" d=" M 118.97 48.09 C 121.23 49.90 123.84 51.33 126.63 49.65 C 132.07 47.78 139.41 49.58 142.16 54.94 C 135.47 54.63 128.37 52.71 121.96 54.94 C 117.36 57.27 117.39 63.02 115.02 67.00 C 114.42 66.79 113.23 66.37 112.63 66.16 C 111.99 59.01 119.03 54.71 118.97 48.09 Z" />
</g>
<g id="#215523ff">
<path fill="#215523" opacity="1.00" d=" M 204.26 50.15 L 205.14 49.69 C 205.39 50.03 205.88 50.69 206.12 51.02 C 206.08 52.32 206.04 53.62 205.99 54.92 C 199.02 69.11 195.37 86.35 182.05 96.01 L 181.19 96.09 L 180.93 95.06 C 188.00 85.65 193.93 75.14 198.11 64.07 C 201.39 60.05 203.13 55.16 204.26 50.15 Z" />
</g>
<g id="#074e06ff">
<path fill="#074e06" opacity="1.00" d=" M 206.12 51.02 C 210.27 52.13 214.86 52.05 218.59 54.38 C 222.15 61.54 227.99 67.44 229.50 75.56 C 238.16 82.85 233.74 95.76 240.92 104.04 C 242.99 116.95 243.87 130.11 242.11 143.12 C 241.71 144.03 241.30 144.94 240.89 145.84 C 237.60 150.60 235.84 156.09 235.76 161.89 C 236.30 169.64 228.73 173.55 227.59 180.63 C 226.69 186.55 220.74 189.31 218.42 194.54 C 204.19 212.37 185.88 228.47 164.40 235.35 C 158.46 235.58 152.81 237.74 147.85 240.89 C 146.29 241.72 144.69 242.49 143.05 243.16 C 135.16 241.84 118.14 248.35 116.69 235.94 L 117.09 235.17 C 118.54 232.66 120.17 230.25 122.08 228.06 C 121.74 231.55 119.73 235.64 122.36 238.63 C 128.40 242.96 136.30 240.37 142.85 238.77 C 153.19 234.77 165.09 235.39 174.27 228.40 C 201.88 216.28 222.52 191.25 233.56 163.60 C 236.11 146.00 243.83 128.24 238.58 110.37 C 234.39 99.67 235.71 87.19 228.39 77.74 C 225.97 70.34 220.61 64.49 217.58 57.38 C 215.54 53.03 209.80 55.63 205.99 54.92 C 206.04 53.62 206.08 52.32 206.12 51.02 Z" />
</g>
<g id="#588f9dff">
<path fill="#588f9d" opacity="1.00" d=" M 121.96 54.94 C 128.37 52.71 135.47 54.63 142.16 54.94 C 147.60 60.12 155.15 61.99 161.79 65.13 C 170.75 71.02 179.01 82.03 172.02 92.41 C 171.50 92.05 170.45 91.32 169.92 90.96 C 172.97 81.69 170.19 70.79 159.41 68.77 C 154.49 63.43 147.00 62.19 140.47 59.70 C 132.59 52.62 119.57 56.84 116.85 67.18 C 116.39 67.14 115.47 67.05 115.02 67.00 C 117.39 63.02 117.36 57.27 121.96 54.94 Z" />
</g>
<g id="#037f04ff">
<path fill="#037f04" opacity="1.00" d=" M 205.99 54.92 C 209.80 55.63 215.54 53.03 217.58 57.38 C 220.61 64.49 225.97 70.34 228.39 77.74 C 235.71 87.19 234.39 99.67 238.58 110.37 C 243.83 128.24 236.11 146.00 233.56 163.60 C 222.52 191.25 201.88 216.28 174.27 228.40 C 165.09 235.39 153.19 234.77 142.85 238.77 C 136.30 240.37 128.40 242.96 122.36 238.63 C 119.73 235.64 121.74 231.55 122.08 228.06 C 129.96 214.40 138.47 199.76 135.04 183.22 L 135.78 182.87 C 136.08 183.47 136.70 184.65 137.01 185.25 C 143.38 197.05 134.83 206.68 131.08 217.17 C 127.04 222.43 120.19 232.19 127.31 237.88 C 162.29 237.11 196.34 219.44 216.77 190.83 C 242.62 153.98 244.03 100.93 218.77 63.29 C 217.92 56.49 208.94 54.94 205.88 60.92 C 203.57 70.41 197.29 77.95 194.01 87.01 C 192.35 92.40 186.46 94.40 181.99 97.02 L 182.05 96.01 C 195.37 86.35 199.02 69.11 205.99 54.92 Z" />
</g>
<g id="#3696abff">
<path fill="#3696ab" opacity="1.00" d=" M 116.85 67.18 C 119.57 56.84 132.59 52.62 140.47 59.70 C 139.88 60.89 139.28 62.07 138.67 63.24 C 134.26 61.17 128.27 59.40 124.83 63.93 C 122.08 65.39 119.40 67.00 117.07 69.06 C 117.01 68.59 116.90 67.65 116.85 67.18 Z" />
</g>
<g id="#01b201ff">
<path fill="#01b201" opacity="1.00" d=" M 205.88 60.92 C 208.94 54.94 217.92 56.49 218.77 63.29 C 244.03 100.93 242.62 153.98 216.77 190.83 C 196.34 219.44 162.29 237.11 127.31 237.88 C 120.19 232.19 127.04 222.43 131.08 217.17 C 134.83 206.68 143.38 197.05 137.01 185.25 L 137.94 184.82 C 138.98 185.86 139.97 186.96 140.91 188.10 C 145.60 200.77 134.96 210.20 131.34 221.32 C 128.41 224.90 123.96 231.47 129.34 234.85 C 137.24 234.87 144.97 232.86 152.88 232.78 C 161.30 232.48 167.06 225.21 175.29 224.21 C 198.39 211.09 219.62 191.27 227.41 165.37 C 232.95 158.45 232.70 149.40 233.20 141.04 C 234.77 125.72 234.12 110.21 231.97 94.98 C 226.29 83.15 222.25 70.31 213.70 60.17 C 207.05 59.50 204.46 67.78 203.87 72.94 C 197.01 82.30 194.93 94.98 183.26 100.23 C 182.75 100.22 181.73 100.19 181.22 100.18 C 181.49 99.13 181.75 98.07 181.99 97.02 C 186.46 94.40 192.35 92.40 194.01 87.01 C 197.29 77.95 203.57 70.41 205.88 60.92 Z" />
</g>
<g id="#27a34aff">
<path fill="#27a34a" opacity="1.00" d=" M 106.98 57.84 C 107.47 58.19 108.46 58.90 108.95 59.25 L 108.98 60.26 C 109.99 68.94 99.56 73.73 102.00 83.06 C 101.73 83.24 101.18 83.59 100.90 83.77 C 95.38 85.91 93.81 91.56 93.97 97.05 C 93.38 101.99 84.74 102.49 86.72 108.85 C 85.68 117.08 76.22 120.92 77.49 130.58 C 70.81 133.78 70.63 140.49 70.96 146.78 C 69.52 147.03 68.09 147.31 66.66 147.62 C 66.22 147.69 65.35 147.83 64.91 147.91 L 65.36 147.23 C 78.62 118.36 94.70 90.88 106.18 61.15 L 106.35 60.29 C 106.51 59.68 106.82 58.45 106.98 57.84 Z" />
</g>
<g id="#3d906fff">
<path fill="#3d906f" opacity="1.00" d=" M 108.98 60.26 L 109.63 59.74 C 110.46 61.94 110.93 64.42 112.63 66.16 C 113.23 66.37 114.42 66.79 115.02 67.00 C 115.47 67.05 116.39 67.14 116.85 67.18 C 116.90 67.65 117.01 68.59 117.07 69.06 C 116.77 69.32 116.18 69.83 115.88 70.09 C 107.63 70.48 110.22 82.98 102.00 83.06 C 99.56 73.73 109.99 68.94 108.98 60.26 Z" />
</g>
<g id="#51acc6ff">
<path fill="#51acc6" opacity="1.00" d=" M 140.47 59.70 C 147.00 62.19 154.49 63.43 159.41 68.77 C 158.95 69.83 158.48 70.88 158.00 71.93 C 150.95 74.49 142.90 68.63 138.67 63.24 C 139.28 62.07 139.88 60.89 140.47 59.70 Z" />
</g>
<g id="#01e102ff">
<path fill="#01e102" opacity="1.00" d=" M 203.87 72.94 C 204.46 67.78 207.05 59.50 213.70 60.17 C 222.25 70.31 226.29 83.15 231.97 94.98 C 234.12 110.21 234.77 125.72 233.20 141.04 C 232.70 149.40 232.95 158.45 227.41 165.37 C 219.62 191.27 198.39 211.09 175.29 224.21 C 167.06 225.21 161.30 232.48 152.88 232.78 C 144.97 232.86 137.24 234.87 129.34 234.85 C 123.96 231.47 128.41 224.90 131.34 221.32 C 134.96 210.20 145.60 200.77 140.91 188.10 C 141.06 181.47 143.51 174.88 147.87 169.87 C 155.62 152.77 163.89 136.24 172.57 119.63 C 173.56 111.81 179.17 106.46 183.26 100.23 C 194.93 94.98 197.01 82.30 203.87 72.94 M 211.28 64.27 C 204.64 66.90 208.33 76.97 202.76 80.77 C 198.50 83.62 199.82 89.56 197.26 93.29 C 187.53 101.16 175.18 109.04 173.61 122.64 C 166.43 128.33 168.41 138.71 161.32 144.29 C 158.65 153.86 152.20 161.27 149.91 170.94 C 136.31 181.56 150.84 201.28 138.33 212.30 C 134.79 215.95 136.55 221.97 132.37 225.33 C 130.50 226.81 128.33 231.47 132.07 232.00 C 141.24 229.56 152.08 233.43 160.00 227.00 C 164.86 221.55 174.23 225.50 178.07 219.06 C 185.10 213.06 194.67 209.83 200.55 202.45 C 210.08 195.54 213.14 183.21 221.70 175.72 C 223.90 170.74 222.46 164.52 226.37 160.33 C 231.30 154.83 231.14 146.88 231.03 140.00 C 230.71 126.80 231.60 113.56 230.53 100.39 C 230.14 93.76 223.49 89.60 223.28 82.88 C 224.78 75.51 216.65 73.67 215.29 67.69 C 214.59 66.19 213.33 63.37 211.28 64.27 Z" />
</g>
<g id="#0fc429ff">
<path fill="#0fc429" opacity="1.00" d=" M 102.15 60.97 C 103.49 61.03 104.83 61.09 106.18 61.15 C 94.70 90.88 78.62 118.36 65.36 147.23 C 64.47 147.12 62.69 146.89 61.79 146.78 C 70.65 133.86 74.24 118.32 83.45 105.59 C 83.98 96.56 92.83 91.43 93.40 82.34 C 98.33 76.27 101.84 68.89 102.15 60.97 Z" />
</g>
<g id="#23abcbff">
<path fill="#23abcb" opacity="1.00" d=" M 124.83 63.93 C 128.27 59.40 134.26 61.17 138.67 63.24 C 142.90 68.63 150.95 74.49 158.00 71.93 C 162.29 75.01 170.88 79.64 165.06 85.40 C 164.34 84.56 163.65 83.70 162.96 82.84 C 161.75 79.36 158.53 76.23 154.94 79.11 C 147.65 76.47 142.94 69.04 134.23 69.62 C 131.88 67.80 129.44 65.83 126.30 65.85 C 125.93 65.37 125.19 64.41 124.83 63.93 Z" />
</g>
<g id="#6a6268ff">
<path fill="#6a6268" opacity="1.00" d=" M 14.76 70.92 C 15.12 67.00 16.96 63.09 20.90 61.83 C 15.43 66.65 17.02 75.00 12.04 80.06 C 6.61 87.63 11.51 102.43 0.00 105.42 L 0.00 101.43 C 8.16 99.62 7.05 89.97 8.69 83.67 C 9.25 78.71 14.40 75.97 14.76 70.92 Z" />
</g>
<g id="#0b989eff">
<path fill="#0b989e" opacity="1.00" d=" M 117.07 69.06 C 119.40 67.00 122.08 65.39 124.83 63.93 C 125.19 64.41 125.93 65.37 126.30 65.85 C 125.66 70.03 124.49 74.09 123.24 78.12 C 121.90 78.08 120.57 78.03 119.23 77.99 C 118.56 77.25 117.89 76.51 117.23 75.77 L 116.79 74.97 C 116.39 73.37 116.10 71.73 115.88 70.09 C 116.18 69.83 116.77 69.32 117.07 69.06 Z" />
</g>
<g id="#00fe00ff">
<path fill="#00fe00" opacity="1.00" d=" M 211.28 64.27 C 213.33 63.37 214.59 66.19 215.29 67.69 C 216.65 73.67 224.78 75.51 223.28 82.88 C 223.49 89.60 230.14 93.76 230.53 100.39 C 231.60 113.56 230.71 126.80 231.03 140.00 C 231.14 146.88 231.30 154.83 226.37 160.33 C 222.46 164.52 223.90 170.74 221.70 175.72 C 213.14 183.21 210.08 195.54 200.55 202.45 C 194.67 209.83 185.10 213.06 178.07 219.06 C 174.23 225.50 164.86 221.55 160.00 227.00 C 152.08 233.43 141.24 229.56 132.07 232.00 C 128.33 231.47 130.50 226.81 132.37 225.33 C 136.55 221.97 134.79 215.95 138.33 212.30 C 150.84 201.28 136.31 181.56 149.91 170.94 C 152.20 161.27 158.65 153.86 161.32 144.29 C 168.41 138.71 166.43 128.33 173.61 122.64 C 175.18 109.04 187.53 101.16 197.26 93.29 C 199.82 89.56 198.50 83.62 202.76 80.77 C 208.33 76.97 204.64 66.90 211.28 64.27 Z" />
</g>
<g id="#687e85ff">
<path fill="#687e85" opacity="1.00" d=" M 161.79 65.13 C 174.57 60.96 173.25 80.90 183.98 79.08 C 177.93 82.69 177.13 90.15 174.71 96.14 C 173.65 95.02 172.85 93.70 172.02 92.41 C 179.01 82.03 170.75 71.02 161.79 65.13 Z" />
</g>
<g id="#01afcbff">
<path fill="#01afcb" opacity="1.00" d=" M 126.30 65.85 C 129.44 65.83 131.88 67.80 134.23 69.62 C 127.90 72.31 127.93 80.23 124.23 85.26 C 116.72 100.78 108.65 116.05 101.85 131.93 C 99.08 137.01 91.52 143.97 97.19 149.87 C 103.71 153.54 111.59 154.33 117.20 159.81 C 123.20 161.88 122.73 153.74 124.22 150.13 C 131.23 136.97 137.03 123.22 144.16 110.15 C 147.45 99.62 156.38 90.89 154.94 79.11 C 158.53 76.23 161.75 79.36 162.96 82.84 C 159.24 85.23 155.75 88.77 156.79 93.78 C 142.46 115.98 133.80 141.29 120.79 164.21 C 113.10 162.22 107.92 155.39 100.06 153.86 C 96.46 153.29 93.57 151.14 90.91 148.85 C 99.99 124.52 114.78 102.62 123.24 78.12 C 124.49 74.09 125.66 70.03 126.30 65.85 Z" />
</g>
<g id="#3798adff">
<path fill="#3798ad" opacity="1.00" d=" M 159.41 68.77 C 170.19 70.79 172.97 81.69 169.92 90.96 C 168.78 90.22 167.63 89.49 166.47 88.79 C 166.00 87.65 165.55 86.52 165.06 85.40 C 170.88 79.64 162.29 75.01 158.00 71.93 C 158.48 70.88 158.95 69.83 159.41 68.77 Z" />
</g>
<g id="#22b276ff">
<path fill="#22b276" opacity="1.00" d=" M 102.00 83.06 C 110.22 82.98 107.63 70.48 115.88 70.09 C 116.10 71.73 116.39 73.37 116.79 74.97 C 115.06 75.31 112.29 74.21 112.13 77.12 C 109.44 83.29 103.98 88.05 102.88 94.89 C 102.04 99.98 97.33 103.16 95.99 107.99 C 94.49 117.04 85.94 122.73 85.12 132.15 C 79.56 136.16 75.26 149.41 85.99 148.07 L 87.00 148.12 C 86.65 148.67 85.94 149.77 85.58 150.31 C 82.66 149.68 79.80 148.80 76.94 147.92 C 77.79 142.35 76.91 134.80 82.04 131.03 C 88.56 127.50 83.12 117.08 90.30 114.28 C 96.27 111.08 90.80 101.61 96.79 98.79 C 101.91 96.15 103.17 88.67 100.90 83.77 C 101.18 83.59 101.73 83.24 102.00 83.06 Z" />
</g>
<g id="#00b4e1ff">
<path fill="#00b4e1" opacity="1.00" d=" M 124.23 85.26 C 127.93 80.23 127.90 72.31 134.23 69.62 C 142.94 69.04 147.65 76.47 154.94 79.11 C 156.38 90.89 147.45 99.62 144.16 110.15 C 137.03 123.22 131.23 136.97 124.22 150.13 C 122.73 153.74 123.20 161.88 117.20 159.81 C 111.59 154.33 103.71 153.54 97.19 149.87 C 91.52 143.97 99.08 137.01 101.85 131.93 C 108.65 116.05 116.72 100.78 124.23 85.26 Z" />
</g>
<g id="#07d77dff">
<path fill="#07d77d" opacity="1.00" d=" M 112.13 77.12 C 112.29 74.21 115.06 75.31 116.79 74.97 L 117.23 75.77 C 116.90 84.82 110.32 91.45 107.46 99.63 C 101.51 112.47 94.77 124.95 88.66 137.62 C 85.09 140.20 84.86 144.04 85.99 148.07 C 75.26 149.41 79.56 136.16 85.12 132.15 C 85.94 122.73 94.49 117.04 95.99 107.99 C 97.33 103.16 102.04 99.98 102.88 94.89 C 103.98 88.05 109.44 83.29 112.13 77.12 Z" />
<path fill="#07d77d" opacity="1.00" d=" M 144.36 129.34 C 150.55 118.98 153.50 106.15 162.19 97.55 L 162.91 98.06 C 166.69 110.48 153.43 117.01 152.52 128.52 C 146.69 134.88 146.59 144.18 140.45 150.41 C 139.56 158.29 134.51 164.15 130.47 170.55 C 128.29 173.46 125.54 169.71 123.67 168.30 C 133.09 156.85 137.40 142.25 144.36 129.34 Z" />
</g>
<g id="#00d397ff">
<path fill="#00d397" opacity="1.00" d=" M 117.23 75.77 C 117.89 76.51 118.56 77.25 119.23 77.99 C 116.93 92.93 106.97 105.45 101.28 119.30 C 97.16 128.95 91.21 137.86 87.83 147.79 L 87.00 148.12 L 85.99 148.07 C 84.86 144.04 85.09 140.20 88.66 137.62 C 94.77 124.95 101.51 112.47 107.46 99.63 C 110.32 91.45 116.90 84.82 117.23 75.77 Z" />
</g>
<g id="#00c1b4ff">
<path fill="#00c1b4" opacity="1.00" d=" M 119.23 77.99 C 120.57 78.03 121.90 78.08 123.24 78.12 C 114.78 102.62 99.99 124.52 90.91 148.85 C 89.89 148.48 88.86 148.13 87.83 147.79 C 91.21 137.86 97.16 128.95 101.28 119.30 C 106.97 105.45 116.93 92.93 119.23 77.99 Z" />
</g>
<g id="#0897b1ff">
<path fill="#0897b1" opacity="1.00" d=" M 156.79 93.78 C 155.75 88.77 159.24 85.23 162.96 82.84 C 163.65 83.70 164.34 84.56 165.06 85.40 C 165.55 86.52 166.00 87.65 166.47 88.79 C 164.14 90.84 161.71 92.77 159.56 95.01 C 158.63 94.60 157.71 94.19 156.79 93.78 Z" />
</g>
<g id="#42986bff">
<path fill="#42986b" opacity="1.00" d=" M 93.97 97.05 C 93.81 91.56 95.38 85.91 100.90 83.77 C 103.17 88.67 101.91 96.15 96.79 98.79 C 90.80 101.61 96.27 111.08 90.30 114.28 C 83.12 117.08 88.56 127.50 82.04 131.03 C 76.91 134.80 77.79 142.35 76.94 147.92 C 74.96 147.46 72.97 147.07 70.96 146.78 C 70.63 140.49 70.81 133.78 77.49 130.58 C 76.22 120.92 85.68 117.08 86.72 108.85 C 84.74 102.49 93.38 101.99 93.97 97.05 Z" />
</g>
<g id="#119688ff">
<path fill="#119688" opacity="1.00" d=" M 166.47 88.79 C 167.63 89.49 168.78 90.22 169.92 90.96 C 171.21 94.61 171.51 98.81 168.04 101.38 C 166.26 100.38 164.59 99.21 162.91 98.06 L 162.19 97.55 C 161.43 96.92 160.68 96.28 159.93 95.64 L 159.56 95.01 C 161.71 92.77 164.14 90.84 166.47 88.79 Z" />
</g>
<g id="#43966dff">
<path fill="#43966d" opacity="1.00" d=" M 169.92 90.96 C 170.45 91.32 171.50 92.05 172.02 92.41 C 172.85 93.70 173.65 95.02 174.71 96.14 C 175.62 96.79 176.68 97.13 177.87 97.17 C 174.38 100.94 169.85 103.75 170.59 109.66 C 170.54 114.99 163.61 116.23 163.53 121.44 C 162.52 125.00 163.08 130.01 159.04 132.01 C 153.18 135.49 157.46 144.73 151.08 148.02 C 145.16 151.54 150.08 161.09 143.10 164.04 C 137.30 167.01 142.49 178.24 134.33 179.07 C 133.16 177.75 131.95 176.48 130.71 175.24 C 133.04 171.16 135.78 167.38 139.55 164.54 C 140.93 159.63 139.75 153.02 144.91 149.98 C 150.01 146.51 146.57 137.77 152.43 134.45 C 158.37 131.27 154.00 122.22 159.63 118.64 C 166.27 115.38 162.42 105.84 168.04 101.38 C 171.51 98.81 171.21 94.61 169.92 90.96 Z" />
</g>
<g id="#00c0b2ff">
<path fill="#00c0b2" opacity="1.00" d=" M 120.79 164.21 C 133.80 141.29 142.46 115.98 156.79 93.78 C 157.71 94.19 158.63 94.60 159.56 95.01 L 159.93 95.64 C 144.24 117.20 136.14 143.19 122.84 166.21 C 122.16 165.54 121.48 164.87 120.79 164.21 Z" />
</g>
<g id="#339f4fff">
<path fill="#339f4f" opacity="1.00" d=" M 179.18 95.16 C 179.62 95.13 180.50 95.08 180.93 95.06 L 181.19 96.09 C 178.25 102.65 170.37 105.73 171.05 114.09 C 164.99 119.54 166.00 128.63 160.22 134.20 C 155.81 137.90 157.73 144.73 153.55 148.59 C 148.31 152.57 149.85 160.06 145.61 164.66 C 140.42 169.72 141.54 178.25 135.78 182.87 L 135.04 183.22 C 134.81 181.83 134.59 180.45 134.33 179.07 C 142.49 178.24 137.30 167.01 143.10 164.04 C 150.08 161.09 145.16 151.54 151.08 148.02 C 157.46 144.73 153.18 135.49 159.04 132.01 C 163.08 130.01 162.52 125.00 163.53 121.44 C 163.61 116.23 170.54 114.99 170.59 109.66 C 169.85 103.75 174.38 100.94 177.87 97.17 C 178.20 96.66 178.85 95.66 179.18 95.16 Z" />
</g>
<g id="#00d296ff">
<path fill="#00d296" opacity="1.00" d=" M 122.84 166.21 C 136.14 143.19 144.24 117.20 159.93 95.64 C 160.68 96.28 161.43 96.92 162.19 97.55 C 153.50 106.15 150.55 118.98 144.36 129.34 C 137.40 142.25 133.09 156.85 123.67 168.30 L 122.94 167.92 C 122.91 167.49 122.87 166.63 122.84 166.21 Z" />
</g>
<g id="#1db635ff">
<path fill="#1db635" opacity="1.00" d=" M 181.19 96.09 L 182.05 96.01 L 181.99 97.02 C 181.75 98.07 181.49 99.13 181.22 100.18 C 173.36 105.25 173.37 115.17 168.27 122.19 C 157.94 143.07 147.98 163.78 137.94 184.82 L 137.01 185.25 C 136.70 184.65 136.08 183.47 135.78 182.87 C 141.54 178.25 140.42 169.72 145.61 164.66 C 149.85 160.06 148.31 152.57 153.55 148.59 C 157.73 144.73 155.81 137.90 160.22 134.20 C 166.00 128.63 164.99 119.54 171.05 114.09 C 170.37 105.73 178.25 102.65 181.19 96.09 Z" />
</g>
<g id="#22b376ff">
<path fill="#22b376" opacity="1.00" d=" M 162.91 98.06 C 164.59 99.21 166.26 100.38 168.04 101.38 C 162.42 105.84 166.27 115.38 159.63 118.64 C 154.00 122.22 158.37 131.27 152.43 134.45 C 146.57 137.77 150.01 146.51 144.91 149.98 C 139.75 153.02 140.93 159.63 139.55 164.54 C 135.78 167.38 133.04 171.16 130.71 175.24 C 127.76 174.07 125.35 172.02 123.00 169.96 C 122.99 169.45 122.95 168.43 122.94 167.92 L 123.67 168.30 C 125.54 169.71 128.29 173.46 130.47 170.55 C 134.51 164.15 139.56 158.29 140.45 150.41 C 146.59 144.18 146.69 134.88 152.52 128.52 C 153.43 117.01 166.69 110.48 162.91 98.06 Z" />
</g>
<g id="#0cd21dff">
<path fill="#0cd21d" opacity="1.00" d=" M 181.22 100.18 C 181.73 100.19 182.75 100.22 183.26 100.23 C 179.17 106.46 173.56 111.81 172.57 119.63 C 163.89 136.24 155.62 152.77 147.87 169.87 C 143.51 174.88 141.06 181.47 140.91 188.10 C 139.97 186.96 138.98 185.86 137.94 184.82 C 147.98 163.78 157.94 143.07 168.27 122.19 C 173.37 115.17 173.36 105.25 181.22 100.18 Z" />
</g>
<g id="#1b2419ff">
<path fill="#1b2419" opacity="1.00" d=" M 240.92 104.04 C 242.40 108.11 245.25 111.57 250.00 111.32 L 250.00 138.98 C 247.08 139.78 244.19 140.81 242.11 143.12 C 243.87 130.11 242.99 116.95 240.92 104.04 Z" />
</g>
<g id="#091309ff">
<path fill="#091309" opacity="1.00" d=" M 0.00 112.79 C 2.49 112.88 5.06 113.17 6.93 114.99 C 7.08 122.01 6.98 129.03 6.93 136.05 C 4.78 137.25 2.43 137.98 0.00 138.32 L 0.00 112.79 Z" />
</g>
<g id="#1b261aff">
<path fill="#1b261a" opacity="1.00" d=" M 0.00 138.32 C 2.43 137.98 4.78 137.25 6.93 136.05 C 7.50 143.73 12.05 150.45 12.78 158.13 C 12.49 168.19 21.51 174.89 22.30 184.72 C 27.16 187.90 31.29 197.09 38.04 194.03 C 38.62 198.37 39.71 202.66 40.01 207.03 C 37.72 207.43 35.67 206.40 33.88 205.08 C 29.98 199.71 25.34 194.99 23.62 188.40 C 17.95 185.27 16.45 179.33 15.79 173.17 C 7.27 166.37 11.74 154.62 7.05 145.96 C 5.86 143.25 2.50 143.19 0.00 142.70 L 0.00 138.32 Z" />
</g>
<g id="#41413fff">
<path fill="#41413f" opacity="1.00" d=" M 242.11 143.12 C 244.19 140.81 247.08 139.78 250.00 138.98 L 250.00 145.70 C 237.88 146.93 244.34 163.65 238.89 170.89 C 233.42 175.70 234.30 183.52 230.16 189.12 C 226.35 189.53 226.39 194.80 224.44 197.39 C 211.76 215.73 192.77 228.87 172.71 237.69 C 166.18 244.35 148.81 237.88 147.71 250.00 L 141.74 250.00 C 142.01 247.69 142.38 245.39 143.05 243.16 C 144.69 242.49 146.29 241.72 147.85 240.89 C 154.48 240.66 161.48 240.96 167.83 238.80 C 173.30 231.84 184.14 234.62 188.46 226.49 C 211.22 216.53 226.12 194.21 234.66 172.63 C 242.21 165.69 239.77 154.94 240.89 145.84 C 241.30 144.94 241.71 144.03 242.11 143.12 Z" />
</g>
<g id="#474a4aff">
<path fill="#474a4a" opacity="1.00" d=" M 0.00 142.70 C 2.50 143.19 5.86 143.25 7.05 145.96 C 11.74 154.62 7.27 166.37 15.79 173.17 C 16.45 179.33 17.95 185.27 23.62 188.40 C 25.34 194.99 29.98 199.71 33.88 205.08 C 39.83 209.16 43.20 219.01 52.13 217.02 C 48.21 210.08 39.19 205.02 40.12 196.13 C 42.21 189.69 46.09 183.85 47.10 177.04 C 47.37 176.60 47.91 175.73 48.18 175.29 C 53.43 169.37 55.13 160.47 62.62 156.60 C 66.71 154.02 71.79 155.15 76.28 155.74 C 87.28 156.07 98.37 158.02 107.65 164.25 C 108.84 168.52 112.96 170.32 116.16 172.84 C 120.54 179.44 127.93 183.09 131.88 190.17 C 132.28 194.04 133.65 198.10 131.73 201.81 C 126.81 211.18 122.99 221.15 116.94 229.90 C 109.27 239.33 96.87 236.34 86.55 234.56 C 82.29 230.42 78.53 238.04 82.95 239.05 C 91.22 241.65 106.78 237.13 107.31 250.00 L 103.43 250.00 C 100.41 237.73 84.70 245.12 77.80 237.22 C 73.38 232.59 65.18 235.20 61.64 229.31 C 53.07 223.34 43.79 217.99 36.87 210.15 C 28.09 203.56 24.35 192.77 17.38 184.63 C 15.42 179.98 15.56 174.18 11.15 170.84 C 6.06 164.33 11.46 148.53 0.00 147.71 L 0.00 142.70 M 67.35 157.32 C 51.51 164.50 46.62 183.58 41.99 198.91 C 49.02 214.29 64.94 223.46 79.90 229.14 C 87.60 235.16 98.56 233.76 107.68 233.75 C 119.92 226.48 123.15 211.42 129.91 199.91 C 131.56 192.13 126.16 185.14 120.27 180.69 C 112.99 171.61 102.59 164.04 90.92 162.07 C 83.60 158.65 75.53 155.97 67.35 157.32 M 65.23 226.14 C 60.96 230.44 69.15 233.51 72.70 232.71 C 80.45 230.17 68.95 225.06 65.23 226.14 Z" />
</g>
<g id="#122b12ff">
<path fill="#122b12" opacity="1.00" d=" M 235.76 161.89 C 235.84 156.09 237.60 150.60 240.89 145.84 C 239.77 154.94 242.21 165.69 234.66 172.63 C 226.12 194.21 211.22 216.53 188.46 226.49 C 184.14 234.62 173.30 231.84 167.83 238.80 C 161.48 240.96 154.48 240.66 147.85 240.89 C 152.81 237.74 158.46 235.58 164.40 235.35 C 185.88 228.47 204.19 212.37 218.42 194.54 C 220.74 189.31 226.69 186.55 227.59 180.63 C 228.73 173.55 236.30 169.64 235.76 161.89 Z" />
</g>
<g id="#6c666bff">
<path fill="#6c666b" opacity="1.00" d=" M 238.89 170.89 C 244.34 163.65 237.88 146.93 250.00 145.70 L 250.00 149.56 C 238.84 152.08 245.52 167.22 238.83 173.83 C 234.26 178.02 236.19 186.60 230.16 189.12 C 234.30 183.52 233.42 175.70 238.89 170.89 Z" />
</g>
<g id="#166354ff">
<path fill="#166354" opacity="1.00" d=" M 66.66 147.62 C 68.09 147.31 69.52 147.03 70.96 146.78 C 72.97 147.07 74.96 147.46 76.94 147.92 C 79.80 148.80 82.66 149.68 85.58 150.31 C 97.64 157.39 111.77 160.92 123.00 169.96 C 125.35 172.02 127.76 174.07 130.71 175.24 C 131.95 176.48 133.16 177.75 134.33 179.07 C 134.59 180.45 134.81 181.83 135.04 183.22 C 134.04 182.47 133.03 181.73 131.99 181.04 C 122.94 176.73 118.13 165.38 107.65 164.25 C 98.37 158.02 87.28 156.07 76.28 155.74 C 75.93 151.98 72.50 150.05 69.25 149.09 C 68.60 148.72 67.31 147.98 66.66 147.62 Z" />
</g>
<g id="#777576ff">
<path fill="#777576" opacity="1.00" d=" M 0.00 147.71 C 11.46 148.53 6.06 164.33 11.15 170.84 C 15.56 174.18 15.42 179.98 17.38 184.63 C 24.35 192.77 28.09 203.56 36.87 210.15 C 43.79 217.99 53.07 223.34 61.64 229.31 C 65.18 235.20 73.38 232.59 77.80 237.22 C 84.70 245.12 100.41 237.73 103.43 250.00 L 98.43 250.00 C 97.11 243.55 89.78 243.27 84.56 242.46 C 77.59 242.52 73.73 235.69 67.07 234.79 C 42.71 222.09 21.90 200.98 11.91 175.07 C 4.69 168.84 10.51 154.39 0.00 151.56 L 0.00 147.71 Z" />
</g>
<g id="#1b5a1dff">
<path fill="#1b5a1d" opacity="1.00" d=" M 64.91 147.91 C 65.35 147.83 66.22 147.69 66.66 147.62 C 67.31 147.98 68.60 148.72 69.25 149.09 C 60.53 155.95 49.15 163.12 48.18 175.29 C 47.91 175.73 47.37 176.60 47.10 177.04 C 43.07 181.81 41.21 187.89 38.23 193.30 C 37.48 192.52 36.72 191.75 35.95 190.98 C 41.71 183.17 45.18 173.88 49.13 165.06 C 52.49 157.67 60.58 154.56 64.91 147.91 Z" />
</g>
<g id="#078295ff">
<path fill="#078295" opacity="1.00" d=" M 87.00 148.12 L 87.83 147.79 C 88.86 148.13 89.89 148.48 90.91 148.85 C 93.57 151.14 96.46 153.29 100.06 153.86 C 107.92 155.39 113.10 162.22 120.79 164.21 C 121.48 164.87 122.16 165.54 122.84 166.21 C 122.87 166.63 122.91 167.49 122.94 167.92 C 122.95 168.43 122.99 169.45 123.00 169.96 C 111.77 160.92 97.64 157.39 85.58 150.31 C 85.94 149.77 86.65 148.67 87.00 148.12 Z" />
</g>
<g id="#2b4835ff">
<path fill="#2b4835" opacity="1.00" d=" M 69.25 149.09 C 72.50 150.05 75.93 151.98 76.28 155.74 C 71.79 155.15 66.71 154.02 62.62 156.60 C 55.13 160.47 53.43 169.37 48.18 175.29 C 49.15 163.12 60.53 155.95 69.25 149.09 Z" />
</g>
<g id="#969195ff">
<path fill="#969195" opacity="1.00" d=" M 238.83 173.83 C 245.52 167.22 238.84 152.08 250.00 149.56 L 250.00 153.57 C 242.37 155.12 244.61 164.21 242.73 169.84 C 234.99 184.24 229.00 200.65 215.93 211.04 C 220.85 203.68 226.90 197.51 230.16 189.12 C 236.19 186.60 234.26 178.02 238.83 173.83 Z" />
</g>
<g id="#a8a6a7ff">
<path fill="#a8a6a7" opacity="1.00" d=" M 0.00 151.56 C 10.51 154.39 4.69 168.84 11.91 175.07 C 21.90 200.98 42.71 222.09 67.07 234.79 C 73.73 235.69 77.59 242.52 84.56 242.46 C 89.78 243.27 97.11 243.55 98.43 250.00 L 93.56 250.00 C 89.58 241.08 77.09 245.91 71.26 238.77 C 48.61 229.32 30.21 211.26 17.23 190.80 C 13.40 186.14 13.36 179.42 9.20 174.84 C 4.35 169.09 8.11 158.67 0.00 155.45 L 0.00 151.56 Z" />
</g>
<g id="#d6d5d6ff">
<path fill="#d6d5d6" opacity="1.00" d=" M 0.00 155.45 C 8.11 158.67 4.35 169.09 9.20 174.84 C 13.36 179.42 13.40 186.14 17.23 190.80 C 30.21 211.26 48.61 229.32 71.26 238.77 C 77.09 245.91 89.58 241.08 93.56 250.00 L 87.63 250.00 C 83.50 243.17 73.73 246.26 68.62 240.39 C 45.40 230.51 27.65 210.84 13.81 190.28 C 13.42 184.13 8.90 179.98 6.03 175.01 C 4.75 169.97 4.51 163.97 0.00 160.50 L 0.00 155.45 Z" />
</g>
<g id="#63666bff">
<path fill="#63666b" opacity="1.00" d=" M 67.35 157.32 C 75.53 155.97 83.60 158.65 90.92 162.07 C 102.59 164.04 112.99 171.61 120.27 180.69 C 126.16 185.14 131.56 192.13 129.91 199.91 C 123.15 211.42 119.92 226.48 107.68 233.75 C 98.56 233.76 87.60 235.16 79.90 229.14 C 64.94 223.46 49.02 214.29 41.99 198.91 C 46.62 183.58 51.51 164.50 67.35 157.32 M 54.31 173.32 C 47.83 182.49 43.34 195.32 48.98 205.99 C 57.46 215.51 70.51 223.90 83.99 226.02 C 88.93 230.60 95.41 232.92 102.23 231.84 C 104.14 232.40 106.12 231.84 107.64 230.62 C 118.15 222.72 123.55 209.99 127.90 197.89 C 128.01 188.34 118.90 183.10 113.73 176.26 C 102.90 164.89 86.90 162.03 72.00 160.00 C 64.26 160.19 55.59 165.15 54.31 173.32 Z" />
</g>
<g id="#e3e2e2ff">
<path fill="#e3e2e2" opacity="1.00" d=" M 244.71 166.89 C 244.62 162.87 246.20 159.01 250.00 157.43 L 250.00 162.41 C 242.92 166.67 248.11 178.46 239.81 182.76 C 231.72 205.15 211.71 220.64 194.00 235.96 C 190.05 238.40 184.01 237.00 181.55 241.58 C 177.88 247.83 167.35 243.02 164.42 250.00 L 158.64 250.00 C 162.74 241.37 175.25 246.33 180.82 238.87 C 204.23 228.59 222.81 209.47 235.84 187.90 C 237.33 180.17 244.56 175.09 244.71 166.89 Z" />
</g>
<g id="#7d878fff">
<path fill="#7d878f" opacity="1.00" d=" M 54.31 173.32 C 55.59 165.15 64.26 160.19 72.00 160.00 C 86.90 162.03 102.90 164.89 113.73 176.26 C 118.90 183.10 128.01 188.34 127.90 197.89 C 123.55 209.99 118.15 222.72 107.64 230.62 C 106.12 231.84 104.14 232.40 102.23 231.84 C 99.77 231.15 97.30 230.58 94.89 229.76 C 103.99 227.40 106.04 214.39 97.08 210.87 C 90.12 205.45 78.42 209.37 73.80 201.15 C 70.00 193.86 54.31 193.47 55.32 204.33 C 55.40 208.61 51.30 208.71 48.98 205.99 C 43.34 195.32 47.83 182.49 54.31 173.32 M 65.37 163.36 C 62.10 165.33 57.97 166.80 57.10 171.02 C 55.03 178.67 46.80 184.88 50.71 193.30 C 53.24 197.28 56.55 190.35 59.90 191.10 C 67.91 193.92 75.82 197.24 82.67 202.34 C 90.20 204.65 98.09 207.50 103.79 213.19 C 106.75 216.55 107.31 224.52 113.81 221.95 C 118.73 212.70 127.00 203.65 124.67 192.37 C 122.60 186.30 116.13 183.46 113.04 177.97 C 100.95 165.47 82.43 161.43 65.37 163.36 Z" />
</g>
<g id="#98a3a7ff">
<path fill="#98a3a7" opacity="1.00" d=" M 65.37 163.36 C 82.43 161.43 100.95 165.47 113.04 177.97 C 116.13 183.46 122.60 186.30 124.67 192.37 C 127.00 203.65 118.73 212.70 113.81 221.95 C 107.31 224.52 106.75 216.55 103.79 213.19 C 98.09 207.50 90.20 204.65 82.67 202.34 C 75.82 197.24 67.91 193.92 59.90 191.10 C 56.55 190.35 53.24 197.28 50.71 193.30 C 46.80 184.88 55.03 178.67 57.10 171.02 C 57.97 166.80 62.10 165.33 65.37 163.36 M 66.36 165.34 C 57.92 167.67 56.31 177.43 55.12 184.78 C 58.53 187.79 63.85 183.01 63.87 178.90 C 64.26 172.04 79.71 170.35 77.91 178.80 C 73.11 180.68 68.29 185.21 69.12 190.80 C 77.62 195.72 86.66 200.19 95.68 204.35 C 100.24 206.89 105.96 208.64 108.11 213.92 C 109.13 215.69 111.70 219.91 113.80 216.81 C 118.29 210.90 123.04 204.51 123.85 196.91 C 123.86 193.30 121.43 188.68 117.14 190.02 C 115.61 193.56 116.20 198.40 112.73 200.86 C 106.68 202.70 103.33 196.72 102.12 191.98 C 103.19 186.47 113.43 190.03 113.58 184.23 C 112.22 180.13 110.09 174.14 104.92 174.19 C 95.18 163.54 79.47 165.03 66.36 165.34 Z" />
</g>
<g id="#26403cff">
<path fill="#26403c" opacity="1.00" d=" M 107.65 164.25 C 118.13 165.38 122.94 176.73 131.99 181.04 C 131.96 184.07 131.90 187.13 131.88 190.17 C 127.93 183.09 120.54 179.44 116.16 172.84 C 112.96 170.32 108.84 168.52 107.65 164.25 Z" />
</g>
<g id="#b8c5c9ff">
<path fill="#b8c5c9" opacity="1.00" d=" M 78.04 169.68 C 86.79 162.27 96.32 171.77 104.92 174.19 C 108.24 176.63 111.93 184.18 105.15 184.31 C 94.75 183.68 85.90 176.02 78.04 169.68 Z" />
</g>
<g id="#333b34ff">
<path fill="#333b34" opacity="1.00" d=" M 38.23 193.30 C 41.21 187.89 43.07 181.81 47.10 177.04 C 46.09 183.85 42.21 189.69 40.12 196.13 C 39.19 205.02 48.21 210.08 52.13 217.02 C 43.20 219.01 39.83 209.16 33.88 205.08 C 35.67 206.40 37.72 207.43 40.01 207.03 C 39.71 202.66 38.62 198.37 38.04 194.03 L 38.23 193.30 Z" />
</g>
<g id="#205823ff">
<path fill="#205823" opacity="1.00" d=" M 131.99 181.04 C 133.03 181.73 134.04 182.47 135.04 183.22 C 138.47 199.76 129.96 214.40 122.08 228.06 C 120.17 230.25 118.54 232.66 117.09 235.17 C 117.05 233.41 116.98 231.66 116.94 229.90 C 122.99 221.15 126.81 211.18 131.73 201.81 C 133.65 198.10 132.28 194.04 131.88 190.17 C 131.90 187.13 131.96 184.07 131.99 181.04 Z" />
</g>
<g id="#b7c2c6ff">
<path fill="#b7c2c6" opacity="1.00" d=" M 82.27 184.36 C 90.73 185.29 100.95 191.16 100.02 201.01 C 90.04 202.57 83.10 193.31 74.01 190.92 C 72.34 185.90 78.62 184.51 82.27 184.36 Z" />
</g>
<g id="#706b6fff">
<path fill="#706b6f" opacity="1.00" d=" M 224.44 197.39 C 226.39 194.80 226.35 189.53 230.16 189.12 C 226.90 197.51 220.85 203.68 215.93 211.04 C 212.28 213.63 210.22 218.07 206.06 219.94 C 198.04 225.63 189.80 231.31 180.99 235.96 C 174.82 236.54 171.08 243.22 164.42 242.43 C 159.46 242.69 152.28 243.82 151.58 250.00 L 147.71 250.00 C 148.81 237.88 166.18 244.35 172.71 237.69 C 192.77 228.87 211.76 215.73 224.44 197.39 Z" />
</g>
<g id="#637a8aff">
<path fill="#637a8a" opacity="1.00" d=" M 55.32 204.33 C 54.31 193.47 70.00 193.86 73.80 201.15 C 78.42 209.37 90.12 205.45 97.08 210.87 C 106.04 214.39 103.99 227.40 94.89 229.76 C 97.30 230.58 99.77 231.15 102.23 231.84 C 95.41 232.92 88.93 230.60 83.99 226.02 C 70.51 223.90 57.46 215.51 48.98 205.99 C 51.30 208.71 55.40 208.61 55.32 204.33 M 63.32 199.26 C 53.34 206.28 67.92 218.16 76.12 218.70 C 83.16 216.14 81.91 225.45 87.30 225.65 C 92.80 226.43 102.33 221.86 98.05 214.98 C 93.08 210.18 85.20 211.25 78.98 210.02 C 70.67 210.19 72.76 195.92 63.32 199.26 Z" />
</g>
<g id="#4a6f8cff">
<path fill="#4a6f8c" opacity="1.00" d=" M 63.32 199.26 C 72.76 195.92 70.67 210.19 78.98 210.02 C 85.20 211.25 93.08 210.18 98.05 214.98 C 102.33 221.86 92.80 226.43 87.30 225.65 C 81.91 225.45 83.16 216.14 76.12 218.70 C 67.92 218.16 53.34 206.28 63.32 199.26 Z" />
</g>
<g id="#999598ff">
<path fill="#999598" opacity="1.00" d=" M 180.99 235.96 C 189.80 231.31 198.04 225.63 206.06 219.94 C 204.00 222.56 202.35 225.82 199.03 227.05 C 192.59 229.22 188.20 235.97 180.99 235.96 Z" />
</g>
<g id="#333332ff">
<path fill="#333332" opacity="1.00" d=" M 65.23 226.14 C 68.95 225.06 80.45 230.17 72.70 232.71 C 69.15 233.51 60.96 230.44 65.23 226.14 Z" />
</g>
<g id="#313030ff">
<path fill="#313030" opacity="1.00" d=" M 86.55 234.56 C 96.87 236.34 109.27 239.33 116.94 229.90 C 116.98 231.66 117.05 233.41 117.09 235.17 L 116.69 235.94 C 108.53 236.26 110.09 244.20 111.17 250.00 L 107.31 250.00 C 106.78 237.13 91.22 241.65 82.95 239.05 C 78.53 238.04 82.29 230.42 86.55 234.56 Z" />
</g>
<g id="#131c12ff">
<path fill="#131c12" opacity="1.00" d=" M 111.17 250.00 C 110.09 244.20 108.53 236.26 116.69 235.94 C 118.14 248.35 135.16 241.84 143.05 243.16 C 142.38 245.39 142.01 247.69 141.74 250.00 L 111.17 250.00 Z" />
</g>
<g id="#979296ff">
<path fill="#979296" opacity="1.00" d=" M 164.42 242.43 C 171.08 243.22 174.82 236.54 180.99 235.96 C 174.60 245.37 159.73 240.03 154.67 250.00 L 151.58 250.00 C 152.28 243.82 159.46 242.69 164.42 242.43 Z" />
</g>
</svg>
