<?xml version="1.0" encoding="UTF-8" ?>
<!DOCTYPE svg PUBLIC "-//W3C//DTD SVG 1.1//EN" "http://www.w3.org/Graphics/SVG/1.1/DTD/svg11.dtd">
<svg width="250pt" height="200pt" viewBox="0 0 250 200" version="1.1" xmlns="http://www.w3.org/2000/svg">
<g id="#feffffff">
<path fill="#feffff" opacity="1.00" d=" M 0.00 0.00 L 250.00 0.00 L 250.00 200.00 L 0.00 200.00 L 0.00 0.00 M 74.92 10.95 C 72.77 13.80 72.56 17.54 72.57 20.97 C 72.71 32.68 72.53 44.38 72.64 56.09 C 72.54 60.05 75.69 64.61 79.95 64.48 C 125.64 64.49 171.35 64.45 217.04 64.50 C 220.89 64.40 225.29 65.24 228.45 62.45 C 231.20 60.62 231.34 56.98 231.42 54.01 C 231.38 42.68 231.38 31.36 231.42 20.03 C 231.57 16.74 230.48 13.62 229.22 10.64 C 227.21 9.99 225.16 9.34 223.02 9.38 C 175.35 9.40 127.68 9.40 80.01 9.38 C 78.24 9.47 76.07 9.29 74.92 10.95 M 14.94 78.97 C 13.12 80.77 12.60 83.47 12.63 85.94 C 12.64 96.29 12.71 106.64 12.62 116.99 C 12.60 120.80 12.68 124.75 14.25 128.30 C 14.70 129.45 15.87 130.05 17.02 130.29 C 23.20 131.87 29.63 131.19 35.93 131.30 C 45.44 131.15 55.03 131.94 64.44 130.15 C 65.78 128.00 66.69 125.59 66.49 123.01 C 66.42 108.83 66.56 94.64 66.39 80.46 C 63.56 77.88 59.80 76.54 55.96 76.66 C 44.97 76.68 33.98 76.72 22.99 76.64 C 20.16 76.58 17.21 77.20 14.94 78.97 M 77.66 77.72 C 75.42 78.93 73.27 81.21 73.53 83.95 C 73.55 96.97 73.54 109.99 73.54 123.01 C 73.32 125.90 75.00 128.31 76.64 130.50 C 112.60 130.53 148.56 130.76 184.52 130.39 C 188.45 124.64 187.13 117.47 187.30 110.95 C 187.17 101.64 187.57 92.32 187.15 83.04 C 186.00 80.22 183.37 77.16 180.02 77.50 C 149.02 77.53 118.02 77.51 87.02 77.51 C 83.90 77.56 80.76 77.25 77.66 77.72 M 79.84 147.32 C 77.78 147.04 75.86 148.54 76.36 150.74 C 76.14 165.12 76.38 179.51 76.26 193.90 C 78.12 194.38 80.03 194.76 81.96 194.71 C 93.99 194.66 106.01 194.65 118.04 194.71 C 119.73 194.65 121.47 194.77 123.10 194.24 C 124.09 192.73 123.57 190.75 123.76 189.05 C 123.68 175.37 123.74 161.69 123.72 148.00 C 121.85 147.56 119.95 147.19 118.02 147.25 C 105.29 147.39 92.56 147.21 79.84 147.32 Z" />
</g>
<g id="#afecf4ff">
<path fill="#afecf4" opacity="1.00" d=" M 74.92 10.95 C 76.07 9.29 78.24 9.47 80.01 9.38 C 127.68 9.40 175.35 9.40 223.02 9.38 C 225.16 9.34 227.21 9.99 229.22 10.64 C 230.48 13.62 231.57 16.74 231.42 20.03 C 231.38 31.36 231.38 42.68 231.42 54.01 C 231.34 56.98 231.20 60.62 228.45 62.45 C 225.29 65.24 220.89 64.40 217.04 64.50 C 171.35 64.45 125.64 64.49 79.95 64.48 C 75.69 64.61 72.54 60.05 72.64 56.09 C 72.53 44.38 72.71 32.68 72.57 20.97 C 72.56 17.54 72.77 13.80 74.92 10.95 M 79.33 12.38 C 76.70 12.87 75.02 15.40 75.29 18.01 C 75.31 30.99 75.18 43.99 75.36 56.97 C 75.33 60.73 80.00 61.44 82.90 61.41 C 126.60 61.38 170.31 61.39 214.01 61.40 C 218.83 61.37 224.45 62.24 228.29 58.59 C 228.94 50.44 228.37 42.22 228.56 34.05 C 228.38 28.18 228.92 22.28 228.35 16.43 C 226.89 12.86 222.54 11.37 218.92 11.61 C 210.94 11.88 202.92 11.17 194.97 12.15 C 190.65 12.56 186.36 11.43 182.03 11.59 C 177.34 11.33 172.70 12.54 168.03 12.08 C 161.04 11.24 154.00 11.85 146.98 11.62 C 142.30 11.44 137.67 12.61 132.99 12.31 C 123.04 11.08 113.00 11.92 103.00 11.63 C 97.96 11.29 92.95 12.76 87.93 11.90 C 85.06 11.50 82.12 11.57 79.33 12.38 Z" />
<path fill="#afecf4" opacity="1.00" d=" M 14.94 78.97 C 17.21 77.20 20.16 76.58 22.99 76.64 C 33.98 76.72 44.97 76.68 55.96 76.66 C 59.80 76.54 63.56 77.88 66.39 80.46 C 66.56 94.64 66.42 108.83 66.49 123.01 C 66.69 125.59 65.78 128.00 64.44 130.15 C 55.03 131.94 45.44 131.15 35.93 131.30 C 29.63 131.19 23.20 131.87 17.02 130.29 C 15.87 130.05 14.70 129.45 14.25 128.30 C 12.68 124.75 12.60 120.80 12.62 116.99 C 12.71 106.64 12.64 96.29 12.63 85.94 C 12.60 83.47 13.12 80.77 14.94 78.97 M 15.78 86.97 C 15.72 97.30 15.79 107.64 15.75 117.97 C 15.64 121.27 16.71 124.43 18.28 127.28 C 31.21 127.44 44.14 127.33 57.07 127.36 C 59.46 127.51 61.40 125.98 63.34 124.82 C 63.42 110.56 63.42 96.29 63.34 82.03 C 60.98 81.21 58.55 80.51 56.03 80.60 C 43.39 80.69 30.74 80.62 18.10 80.65 C 16.78 82.51 15.63 84.60 15.78 86.97 Z" />
<path fill="#afecf4" opacity="1.00" d=" M 77.66 77.72 C 80.76 77.25 83.90 77.56 87.02 77.51 C 118.02 77.51 149.02 77.53 180.02 77.50 C 183.37 77.16 186.00 80.22 187.15 83.04 C 187.57 92.32 187.17 101.64 187.30 110.95 C 187.13 117.47 188.45 124.64 184.52 130.39 C 148.56 130.76 112.60 130.53 76.64 130.50 C 75.00 128.31 73.32 125.90 73.54 123.01 C 73.54 109.99 73.55 96.97 73.53 83.95 C 73.27 81.21 75.42 78.93 77.66 77.72 M 77.63 81.74 C 77.09 83.44 76.49 85.15 76.56 86.96 C 76.62 97.97 76.61 108.99 76.57 120.01 C 76.32 123.15 78.19 127.29 81.97 126.55 C 111.30 126.53 140.62 126.54 169.95 126.54 C 173.64 126.48 177.37 126.86 181.03 126.22 C 183.09 124.84 183.78 122.38 183.52 120.02 C 183.21 107.67 183.86 95.28 183.21 82.96 C 179.09 79.00 173.00 81.65 167.99 81.42 C 154.98 81.11 141.94 81.88 128.95 80.95 C 116.67 81.82 104.34 81.20 92.04 81.37 C 87.22 80.79 82.38 80.51 77.63 81.74 Z" />
<path fill="#afecf4" opacity="1.00" d=" M 79.84 147.32 C 92.56 147.21 105.29 147.39 118.02 147.25 C 119.95 147.19 121.85 147.56 123.72 148.00 C 123.74 161.69 123.68 175.37 123.76 189.05 C 123.57 190.75 124.09 192.73 123.10 194.24 C 121.47 194.77 119.73 194.65 118.04 194.71 C 106.01 194.65 93.99 194.66 81.96 194.71 C 80.03 194.76 78.12 194.38 76.26 193.90 C 76.38 179.51 76.14 165.12 76.36 150.74 C 75.86 148.54 77.78 147.04 79.84 147.32 Z" />
</g>
<g id="#60cadeff">
<path fill="#60cade" opacity="1.00" d=" M 79.33 12.38 C 82.12 11.57 85.06 11.50 87.93 11.90 C 92.95 12.76 97.96 11.29 103.00 11.63 C 113.00 11.92 123.04 11.08 132.99 12.31 C 137.67 12.61 142.30 11.44 146.98 11.62 C 154.00 11.85 161.04 11.24 168.03 12.08 C 172.70 12.54 177.34 11.33 182.03 11.59 C 186.36 11.43 190.65 12.56 194.97 12.15 C 202.92 11.17 210.94 11.88 218.92 11.61 C 222.54 11.37 226.89 12.86 228.35 16.43 C 228.92 22.28 228.38 28.18 228.56 34.05 C 228.37 42.22 228.94 50.44 228.29 58.59 C 224.45 62.24 218.83 61.37 214.01 61.40 C 170.31 61.39 126.60 61.38 82.90 61.41 C 80.00 61.44 75.33 60.73 75.36 56.97 C 75.18 43.99 75.31 30.99 75.29 18.01 C 75.02 15.40 76.70 12.87 79.33 12.38 M 77.53 16.88 C 77.58 30.16 77.53 43.43 77.57 56.71 C 78.23 57.30 78.89 57.88 79.56 58.47 C 127.57 58.65 175.58 58.57 223.58 58.51 C 224.19 57.87 224.80 57.23 225.41 56.59 C 225.45 43.45 225.37 30.30 225.46 17.15 C 223.79 16.06 222.13 14.60 219.99 14.72 C 175.33 14.71 130.65 14.73 85.99 14.71 C 83.02 14.66 80.17 15.61 77.53 16.88 Z" />
<path fill="#60cade" opacity="1.00" d=" M 15.78 86.97 C 15.63 84.60 16.78 82.51 18.10 80.65 C 30.74 80.62 43.39 80.69 56.03 80.60 C 58.55 80.51 60.98 81.21 63.34 82.03 C 63.42 96.29 63.42 110.56 63.34 124.82 C 61.40 125.98 59.46 127.51 57.07 127.36 C 44.14 127.33 31.21 127.44 18.28 127.28 C 16.71 124.43 15.64 121.27 15.75 117.97 C 15.79 107.64 15.72 97.30 15.78 86.97 Z" />
<path fill="#60cade" opacity="1.00" d=" M 77.63 81.74 C 82.38 80.51 87.22 80.79 92.04 81.37 C 104.34 81.20 116.67 81.82 128.95 80.95 C 141.94 81.88 154.98 81.11 167.99 81.42 C 173.00 81.65 179.09 79.00 183.21 82.96 C 183.86 95.28 183.21 107.67 183.52 120.02 C 183.78 122.38 183.09 124.84 181.03 126.22 C 177.37 126.86 173.64 126.48 169.95 126.54 C 140.62 126.54 111.30 126.53 81.97 126.55 C 78.19 127.29 76.32 123.15 76.57 120.01 C 76.61 108.99 76.62 97.97 76.56 86.96 C 76.49 85.15 77.09 83.44 77.63 81.74 Z" />
</g>
<g id="#02a5c2ff">
<path fill="#02a5c2" opacity="1.00" d=" M 77.53 16.88 C 80.17 15.61 83.02 14.66 85.99 14.71 C 130.65 14.73 175.33 14.71 219.99 14.72 C 222.13 14.60 223.79 16.06 225.46 17.15 C 225.37 30.30 225.45 43.45 225.41 56.59 C 224.80 57.23 224.19 57.87 223.58 58.51 C 175.58 58.57 127.57 58.65 79.56 58.47 C 78.89 57.88 78.23 57.30 77.57 56.71 C 77.53 43.43 77.58 30.16 77.53 16.88 Z" />
</g>
</svg>
