<?xml version="1.0" encoding="UTF-8" ?>
<!DOCTYPE svg PUBLIC "-//W3C//DTD SVG 1.1//EN" "http://www.w3.org/Graphics/SVG/1.1/DTD/svg11.dtd">
<svg width="250pt" height="250pt" viewBox="0 0 250 250" version="1.1" xmlns="http://www.w3.org/2000/svg">
<g id="#ffffffff">
<path fill="#ffffff" opacity="1.00" d=" M 0.00 0.00 L 117.51 0.00 C 93.70 1.74 70.23 9.68 50.99 23.98 C 20.40 46.00 1.09 82.59 0.00 120.26 L 0.00 0.00 Z" />
<path fill="#ffffff" opacity="1.00" d=" M 130.60 0.00 L 250.00 0.00 L 250.00 116.93 C 248.29 103.49 245.79 89.99 240.23 77.54 C 226.59 44.66 198.26 18.14 164.54 6.70 C 153.62 2.84 142.10 1.02 130.60 0.00 Z" />
<path fill="#ffffff" opacity="1.00" d=" M 0.00 131.57 C 1.33 147.02 4.73 162.41 11.37 176.49 C 24.53 204.62 48.18 228.09 76.97 239.96 C 78.40 241.12 80.14 241.76 81.97 241.95 L 82.46 242.12 C 93.29 246.69 105.02 248.39 116.58 250.00 L 0.00 250.00 L 0.00 131.57 Z" />
<path fill="#ffffff" opacity="1.00" d=" M 246.45 155.08 C 248.19 148.56 248.71 141.81 250.00 135.20 L 250.00 250.00 L 134.96 250.00 C 140.47 249.03 146.05 248.47 151.53 247.30 C 167.67 243.90 183.09 237.16 196.63 227.75 C 221.33 210.65 239.49 184.33 246.45 155.08 Z" />
<path fill="#ffffff" opacity="1.00" d=" M 99.40 142.14 C 99.58 142.29 99.93 142.58 100.11 142.73 C 99.89 143.27 99.45 144.34 99.23 144.88 C 98.87 145.08 98.13 145.47 97.77 145.67 C 96.28 145.89 97.70 143.64 97.98 143.09 C 98.33 142.86 99.05 142.38 99.40 142.14 Z" />
</g>
<g id="#fef013ff">
<path fill="#fef013" opacity="1.00" d=" M 117.51 0.00 L 130.60 0.00 C 142.10 1.02 153.62 2.84 164.54 6.70 C 198.26 18.14 226.59 44.66 240.23 77.54 C 241.36 83.52 244.00 89.07 245.16 95.04 C 251.00 118.51 249.61 143.67 241.46 166.42 C 232.18 192.63 213.68 215.39 190.07 230.04 C 164.45 246.09 132.82 252.23 103.05 246.90 C 96.05 245.91 89.41 243.35 82.46 242.12 L 81.97 241.95 C 81.30 239.82 78.93 238.90 76.97 239.96 C 48.18 228.09 24.53 204.62 11.37 176.49 C 4.73 162.41 1.33 147.02 0.00 131.57 L 0.00 120.26 C 1.09 82.59 20.40 46.00 50.99 23.98 C 70.23 9.68 93.70 1.74 117.51 0.00 M 55.29 42.27 C 36.07 58.26 22.83 81.31 18.96 106.03 C 15.42 127.54 18.71 150.07 28.28 169.67 L 28.76 169.64 C 30.27 174.34 32.82 178.75 36.17 182.39 C 38.25 187.00 42.36 190.46 45.53 194.36 L 45.53 194.77 C 46.46 195.74 47.40 196.71 48.33 197.69 L 48.65 197.69 C 50.03 199.06 51.45 200.39 52.90 201.69 C 54.95 203.92 57.24 206.01 60.03 207.28 C 60.30 207.58 60.84 208.18 61.11 208.47 C 67.04 213.33 74.00 216.76 80.90 220.01 C 82.24 220.46 83.57 220.93 84.90 221.39 L 85.24 222.45 L 85.83 221.88 C 119.57 234.81 159.93 228.86 188.16 206.18 C 207.75 191.00 221.56 168.67 226.45 144.38 C 230.77 122.87 228.48 99.97 219.42 79.94 C 218.08 77.17 217.01 74.23 215.21 71.71 C 214.62 70.76 214.04 69.82 213.46 68.86 C 209.80 61.97 204.66 56.02 199.56 50.16 C 199.17 49.85 198.40 49.22 198.02 48.90 C 191.37 41.92 183.48 36.18 175.23 31.23 C 173.77 30.50 172.30 29.78 170.83 29.07 C 166.63 26.87 162.36 24.40 157.61 23.69 C 148.30 19.72 138.07 18.37 128.03 17.71 C 101.84 16.42 75.26 25.22 55.29 42.27 Z" />
</g>
<g id="#f2981bff">
<path fill="#f2981b" opacity="1.00" d=" M 55.29 42.27 C 75.26 25.22 101.84 16.42 128.03 17.71 C 138.07 18.37 148.30 19.72 157.61 23.69 C 150.67 23.47 144.10 20.57 137.16 20.43 C 133.68 21.21 130.32 22.96 127.68 25.35 C 127.11 28.93 127.09 32.68 127.81 36.24 C 130.25 36.29 132.68 36.05 135.11 35.87 C 135.24 31.90 135.31 27.93 135.48 23.96 C 135.87 27.67 136.02 31.41 135.99 35.14 C 138.66 35.07 141.34 34.96 144.02 34.83 C 144.25 30.86 144.39 26.88 144.55 22.90 C 144.88 26.54 145.03 30.19 145.04 33.84 C 147.33 33.83 149.61 33.82 151.90 33.81 L 151.92 34.56 C 149.54 35.07 147.18 35.63 144.84 36.27 C 141.94 36.16 139.03 36.29 136.18 36.89 C 136.12 42.59 135.74 48.32 136.61 53.99 C 140.62 51.28 144.31 48.14 148.39 45.55 C 149.91 44.45 151.73 43.56 152.71 41.90 C 153.23 36.27 152.89 30.58 153.67 24.96 C 153.89 27.62 154.08 30.29 154.27 32.96 C 156.80 32.76 159.34 32.48 161.85 32.04 C 162.15 30.58 162.46 29.12 162.77 27.67 C 163.37 29.17 163.89 30.70 164.49 32.20 C 166.92 31.89 169.05 30.73 170.83 29.07 C 172.30 29.78 173.77 30.50 175.23 31.23 C 174.19 31.64 173.15 32.05 172.11 32.45 C 171.49 38.46 172.81 44.71 170.84 50.52 C 170.84 44.38 171.52 38.24 171.12 32.09 C 166.66 34.96 162.69 38.52 158.14 41.26 C 156.87 42.17 155.36 42.93 154.52 44.30 C 153.69 47.12 154.01 50.11 153.98 53.01 C 156.49 52.84 159.01 52.68 161.52 52.51 C 161.86 48.21 162.01 43.90 162.59 39.62 C 162.85 43.76 162.85 47.90 162.83 52.04 C 174.58 51.28 186.25 49.49 198.02 48.90 C 198.40 49.22 199.17 49.85 199.56 50.16 C 198.52 53.47 195.04 54.64 192.65 56.74 C 187.30 61.46 181.75 65.95 176.95 71.25 C 183.28 71.51 189.54 70.07 195.88 70.54 C 196.14 68.26 196.41 65.98 196.67 63.69 C 196.84 65.74 196.96 67.80 197.31 69.83 C 199.83 70.32 202.40 70.02 204.94 69.89 C 205.11 67.89 205.29 65.90 205.47 63.90 C 205.72 65.86 205.97 67.82 206.23 69.78 C 208.64 69.52 211.05 69.20 213.46 68.86 C 214.04 69.82 214.62 70.76 215.21 71.71 C 212.23 71.01 209.15 71.03 206.11 71.08 C 205.18 77.74 204.92 84.48 204.09 91.16 C 206.48 90.96 209.85 91.90 211.21 89.26 C 213.39 83.99 212.96 78.14 213.58 72.58 C 214.17 77.08 213.72 81.62 213.28 86.12 C 215.48 84.22 217.53 82.16 219.42 79.94 C 228.48 99.97 230.77 122.87 226.45 144.38 C 221.56 168.67 207.75 191.00 188.16 206.18 C 159.93 228.86 119.57 234.81 85.83 221.88 C 89.35 218.32 92.99 214.87 96.35 211.15 C 94.64 210.75 92.93 210.37 91.21 209.98 C 90.73 212.09 90.25 214.19 89.70 216.28 C 89.47 213.92 89.54 211.47 88.68 209.22 C 86.89 208.47 84.96 208.18 83.07 207.81 C 82.94 212.41 83.26 217.05 84.90 221.39 C 83.57 220.93 82.24 220.46 80.90 220.01 C 81.28 219.70 82.04 219.08 82.42 218.77 C 82.18 214.88 81.97 210.98 81.85 207.08 C 79.35 206.42 76.74 206.33 74.33 207.35 C 74.22 206.79 74.02 205.69 73.92 205.13 C 72.19 204.84 70.45 204.54 68.72 204.25 C 68.60 206.02 68.31 207.78 67.90 209.51 C 67.49 207.49 67.16 205.46 66.86 203.43 C 64.99 202.99 63.12 202.56 61.25 202.13 C 61.20 204.24 61.10 206.36 61.11 208.47 C 60.84 208.18 60.30 207.58 60.03 207.28 C 59.79 205.21 59.80 203.12 59.68 201.04 C 57.42 201.23 55.16 201.44 52.90 201.69 C 51.45 200.39 50.03 199.06 48.65 197.69 C 49.81 197.67 50.98 197.66 52.14 197.66 C 51.84 193.87 51.56 190.09 51.46 186.30 C 49.74 185.86 48.03 185.36 46.26 185.19 C 44.51 187.81 45.87 191.36 45.53 194.36 C 42.36 190.46 38.25 187.00 36.17 182.39 C 35.92 179.46 35.74 176.51 35.71 173.56 C 36.98 176.16 37.36 179.04 37.62 181.88 C 39.35 182.20 41.07 182.54 42.80 182.86 C 43.10 181.48 43.40 180.10 43.70 178.72 C 44.30 179.82 44.91 180.92 45.51 182.02 C 47.73 180.19 51.97 178.44 50.51 174.87 C 50.14 171.56 46.37 171.66 43.92 170.87 C 44.05 173.10 44.16 175.33 44.19 177.56 C 43.40 175.31 42.86 172.98 42.44 170.63 C 37.89 170.13 33.35 169.17 28.76 169.64 L 28.28 169.67 C 18.71 150.07 15.42 127.54 18.96 106.03 C 22.83 81.31 36.07 58.26 55.29 42.27 M 92.39 25.67 C 92.20 26.07 91.82 26.87 91.63 27.27 C 86.42 27.04 82.08 30.55 77.46 32.47 C 72.93 34.23 75.08 39.82 75.00 43.48 C 77.32 43.15 79.65 42.89 81.99 42.68 C 82.23 38.87 82.21 35.05 82.20 31.23 C 82.51 31.23 83.11 31.23 83.41 31.23 C 82.90 34.74 82.79 38.29 83.01 41.84 C 87.96 42.20 92.85 41.12 97.73 40.45 C 100.33 40.18 100.18 36.95 100.03 35.02 C 100.03 31.66 98.14 27.80 100.47 24.85 C 100.73 29.23 100.67 33.63 101.07 38.01 C 105.34 36.56 108.56 33.24 112.69 31.52 C 114.38 30.73 116.02 29.84 117.63 28.91 C 117.51 28.01 117.39 27.11 117.28 26.21 C 117.94 26.70 118.60 27.19 119.26 27.69 C 122.35 26.00 125.59 24.34 127.66 21.37 C 127.83 21.70 128.17 22.36 128.33 22.69 C 129.48 21.89 130.63 21.10 131.78 20.31 C 118.47 19.22 105.09 21.80 92.39 25.67 M 114.76 32.88 C 112.55 33.88 110.54 35.25 108.76 36.89 C 109.12 37.39 109.82 38.38 110.18 38.87 C 115.36 37.72 120.64 37.26 125.94 36.97 C 126.24 33.38 126.22 29.78 125.89 26.19 C 122.05 28.21 118.70 31.04 114.76 32.88 M 154.38 34.44 C 154.27 36.62 154.18 38.80 154.13 40.98 C 157.63 39.46 160.67 37.10 163.12 34.19 C 160.21 34.09 157.29 34.20 154.38 34.44 M 66.22 39.17 C 66.24 41.03 66.25 42.89 66.26 44.74 C 68.85 44.29 71.45 43.91 74.05 43.56 C 73.83 40.72 73.45 37.88 72.96 35.07 C 70.66 36.34 68.42 37.72 66.22 39.17 M 127.48 38.28 C 127.32 44.08 127.19 49.88 127.24 55.68 C 129.80 55.46 132.35 55.24 134.90 55.01 C 134.90 49.02 135.10 43.03 135.00 37.04 C 132.49 37.41 129.98 37.83 127.48 38.28 M 118.52 39.70 C 118.72 45.22 118.51 50.74 118.79 56.25 C 121.21 56.18 123.63 56.03 126.04 55.83 C 126.22 49.90 126.16 43.96 125.96 38.03 C 123.42 38.31 120.94 38.90 118.52 39.70 M 109.97 40.29 C 109.86 46.06 109.70 51.86 110.39 57.61 C 112.65 57.31 114.91 57.01 117.18 56.71 C 117.44 50.93 117.61 45.13 117.11 39.35 C 114.73 39.68 112.35 39.99 109.97 40.29 M 58.81 45.01 C 60.84 45.01 62.88 44.97 64.92 44.92 C 64.92 43.31 64.93 41.69 64.92 40.08 C 62.77 41.59 60.72 43.22 58.81 45.01 M 101.19 41.25 C 101.08 46.76 101.10 52.27 101.19 57.78 C 103.73 57.82 106.26 57.82 108.80 57.78 C 108.80 52.41 108.80 47.02 108.36 41.67 C 106.35 40.13 103.52 41.34 101.19 41.25 M 92.59 46.29 C 92.27 50.52 92.85 54.76 93.11 58.99 C 95.37 58.93 97.64 58.87 99.90 58.81 C 100.07 53.24 99.87 47.68 99.87 42.11 C 97.41 43.38 94.47 44.16 92.59 46.29 M 83.19 43.93 C 83.48 45.57 83.77 47.21 84.07 48.85 C 86.64 47.15 89.58 45.81 91.46 43.26 C 88.68 43.07 85.89 43.21 83.19 43.93 M 75.07 45.07 C 74.99 47.86 74.94 50.65 75.00 53.44 C 77.93 52.59 80.38 50.76 82.73 48.88 C 82.44 47.21 82.14 45.54 81.85 43.87 C 79.58 44.20 77.31 44.58 75.07 45.07 M 66.24 46.23 C 66.57 50.27 66.78 54.32 67.08 58.36 C 69.41 57.36 71.67 56.20 73.84 54.90 C 73.94 51.65 73.95 48.40 73.84 45.15 C 71.30 45.41 68.77 45.79 66.24 46.23 M 144.89 50.97 C 144.94 51.65 145.05 53.02 145.11 53.70 C 147.59 53.69 150.07 53.66 152.56 53.59 C 152.74 50.77 152.83 47.95 152.84 45.13 C 150.08 46.92 147.43 48.89 144.89 50.97 M 56.33 47.56 C 53.82 48.80 51.73 50.83 50.01 53.01 C 49.79 56.34 50.21 59.68 50.28 63.02 C 52.49 63.01 54.74 63.18 56.91 62.68 C 57.88 61.83 57.34 60.25 57.61 59.11 C 58.36 60.24 59.10 61.38 59.87 62.50 C 61.76 61.56 64.12 61.17 65.64 59.66 C 65.88 55.14 65.19 50.62 64.92 46.11 C 62.05 46.53 59.12 46.73 56.33 47.56 M 84.11 52.08 C 83.79 54.64 84.07 57.22 84.19 59.78 C 86.65 59.78 89.10 59.75 91.56 59.67 C 91.69 55.43 91.44 51.19 90.94 46.98 C 88.52 48.44 85.70 49.64 84.11 52.08 M 181.08 52.33 C 179.69 56.19 180.18 60.39 180.08 64.41 C 182.89 62.52 185.65 60.45 187.79 57.80 C 188.42 55.67 187.98 53.41 187.92 51.23 C 185.61 51.38 183.28 51.57 181.08 52.33 M 189.29 51.09 C 189.34 52.82 189.51 54.54 189.77 56.25 C 192.05 54.61 194.20 52.80 196.17 50.81 C 193.87 50.80 191.57 50.91 189.29 51.09 M 75.34 57.26 C 72.41 57.88 69.49 59.10 67.67 61.60 C 70.33 61.46 73.04 61.15 75.42 59.86 C 77.79 61.22 80.51 60.34 83.01 59.93 C 82.98 57.31 82.91 54.70 82.77 52.09 C 79.97 53.31 77.35 54.93 75.34 57.26 M 172.65 52.56 C 172.17 53.28 171.69 54.00 171.22 54.72 C 168.98 52.87 165.82 53.00 163.28 54.11 C 161.53 59.97 162.34 66.22 162.11 72.25 C 164.75 72.33 167.38 72.14 169.99 71.72 C 170.38 66.40 169.47 60.98 170.69 55.74 C 171.39 61.25 170.49 66.80 171.04 72.32 C 173.67 70.56 176.11 68.53 178.52 66.48 C 178.81 61.71 179.16 56.95 179.04 52.17 C 176.91 52.28 174.78 52.40 172.65 52.56 M 154.22 54.20 C 153.43 60.37 153.26 66.60 153.17 72.82 C 155.69 72.82 158.22 72.80 160.75 72.77 C 161.25 66.61 160.63 60.39 161.65 54.27 C 159.17 54.23 156.69 54.21 154.22 54.20 M 41.72 63.81 C 44.09 63.79 46.46 63.73 48.82 63.68 C 48.92 60.78 48.93 57.89 48.80 54.99 C 45.79 57.35 43.04 60.15 41.72 63.81 M 145.12 55.85 C 144.97 61.61 145.13 67.40 144.41 73.13 C 146.91 73.32 149.43 73.32 151.93 73.10 C 152.13 67.12 152.25 61.13 152.60 55.15 C 150.08 55.11 147.57 55.28 145.12 55.85 M 129.45 62.00 C 128.95 61.80 127.93 61.40 127.42 61.20 C 129.04 59.82 130.64 58.42 132.17 56.94 C 130.44 57.10 128.75 57.53 127.23 58.37 C 126.71 58.03 126.19 57.70 125.68 57.37 C 123.48 57.53 121.29 57.73 119.09 57.93 C 119.03 59.28 118.96 60.62 118.89 61.97 L 118.04 62.43 C 117.81 61.06 117.58 59.69 117.35 58.33 C 114.89 58.51 112.44 58.82 110.00 59.17 C 109.78 63.56 110.08 67.96 109.64 72.34 C 108.74 67.94 109.54 63.43 109.02 58.99 C 106.36 59.08 103.72 59.36 101.13 59.97 C 101.58 65.39 101.70 70.83 102.05 76.26 C 105.68 76.70 108.60 74.61 111.23 72.42 C 111.24 74.39 111.34 76.37 111.69 78.32 L 110.86 77.05 C 109.06 80.80 110.15 84.99 110.44 88.93 C 110.16 89.17 109.60 89.65 109.32 89.89 C 109.23 85.61 109.26 81.32 108.93 77.05 C 106.69 78.35 104.30 79.50 102.41 81.31 C 101.75 85.46 102.22 89.68 102.18 93.86 C 104.53 94.01 106.89 94.15 109.24 94.29 C 108.69 95.12 108.14 95.96 107.60 96.79 C 105.96 95.70 104.11 95.20 102.19 95.82 C 102.12 98.49 101.85 101.25 102.90 103.79 C 102.36 104.59 101.84 105.40 101.30 106.20 C 101.09 102.77 100.90 99.34 100.78 95.91 C 98.56 95.86 96.34 95.87 94.13 95.92 C 94.00 100.04 94.10 104.17 94.52 108.28 C 93.68 107.75 92.83 107.24 91.97 106.76 L 92.28 106.51 C 93.38 103.16 93.01 99.61 92.95 96.15 C 90.62 96.14 88.29 96.13 85.95 96.13 C 85.86 98.10 85.77 100.08 85.68 102.06 C 85.44 101.88 84.94 101.51 84.70 101.33 C 85.57 97.69 85.83 93.66 83.85 90.31 C 84.08 86.58 84.03 82.84 83.79 79.11 C 81.52 79.14 79.25 79.17 76.98 79.21 C 76.82 80.85 76.67 82.48 76.48 84.11 C 75.69 82.60 75.17 80.98 74.76 79.33 C 72.61 79.64 70.47 79.94 68.33 80.25 C 68.39 80.67 68.51 81.52 68.57 81.95 C 66.29 79.70 63.08 80.05 60.15 80.18 C 60.08 85.46 60.31 90.82 61.88 95.90 L 62.50 94.63 C 62.52 95.18 62.56 96.27 62.59 96.82 C 62.27 96.91 61.64 97.09 61.32 97.17 C 61.34 100.58 61.85 103.95 62.13 107.34 C 63.52 106.63 64.90 105.89 66.26 105.13 C 66.62 105.34 67.33 105.77 67.69 105.99 C 65.73 108.14 61.05 109.30 62.66 112.94 C 59.43 112.47 56.48 113.70 54.33 116.11 C 54.11 116.02 53.65 115.85 53.42 115.76 C 53.63 113.26 53.57 110.67 52.48 108.35 C 52.33 104.70 52.77 100.88 51.85 97.35 C 49.61 97.13 47.35 97.25 45.11 97.29 C 45.50 99.27 44.43 102.26 46.15 103.59 C 44.71 103.51 43.28 103.57 41.86 103.75 C 44.88 103.11 43.57 99.54 43.86 97.32 C 41.63 97.36 39.39 97.37 37.15 97.31 C 37.02 100.04 37.08 102.83 38.08 105.42 C 37.78 105.66 37.19 106.13 36.89 106.37 C 36.13 103.60 35.84 100.73 35.81 97.86 C 33.53 97.80 31.24 97.89 28.96 98.08 C 29.39 102.40 30.24 106.68 30.27 111.03 C 31.60 111.04 32.94 111.06 34.28 111.07 L 34.15 112.25 C 30.57 113.37 26.83 112.95 23.18 112.40 C 22.82 116.90 23.33 121.40 24.23 125.81 C 26.69 125.86 29.28 126.13 31.50 124.83 C 33.35 126.89 36.09 126.00 38.38 125.38 C 38.15 124.85 37.71 123.80 37.49 123.27 C 38.42 123.33 39.34 123.39 40.27 123.45 C 40.07 123.08 39.65 122.35 39.44 121.99 C 40.06 122.12 41.29 122.40 41.91 122.54 C 42.33 124.30 42.72 126.07 43.03 127.86 C 42.28 127.89 40.78 127.95 40.03 127.99 C 39.91 132.36 40.50 136.70 41.29 140.98 C 42.62 141.04 43.95 141.09 45.28 141.15 L 45.44 142.06 C 44.00 142.44 42.56 142.83 41.12 143.22 C 41.80 147.26 41.44 151.49 42.61 155.42 C 44.35 155.88 46.16 155.95 47.94 156.11 L 48.17 157.36 C 46.49 157.31 44.80 157.25 43.11 157.19 C 42.96 161.37 42.73 165.64 43.97 169.71 C 45.96 169.98 47.96 170.26 49.97 170.42 C 49.78 172.55 51.99 173.02 53.62 173.23 C 55.16 173.77 56.73 174.22 58.22 174.88 C 59.88 178.53 59.49 182.69 60.07 186.58 C 62.08 186.98 64.10 187.40 66.11 187.81 C 66.20 183.85 65.91 179.87 66.41 175.93 C 66.80 179.37 66.76 182.86 67.43 186.27 C 67.74 188.91 71.08 188.47 72.98 189.05 C 73.06 184.58 73.53 180.00 72.40 175.62 C 69.59 174.95 66.68 174.89 63.84 174.46 C 66.20 173.85 68.65 173.88 71.07 174.12 C 76.81 174.62 82.56 174.36 88.31 174.49 C 89.02 175.46 89.24 177.20 90.65 177.40 C 94.66 178.20 98.74 178.59 102.80 179.09 C 102.86 177.10 102.92 175.12 102.98 173.14 L 103.96 173.14 C 104.04 175.31 104.13 177.48 104.20 179.66 C 106.42 179.91 108.64 180.11 110.88 180.21 C 110.71 178.53 110.55 176.86 110.38 175.19 C 110.68 175.18 111.27 175.15 111.57 175.13 C 111.82 176.89 111.15 179.02 112.21 180.53 C 114.04 181.14 115.94 181.47 117.83 181.85 C 118.04 179.79 118.27 177.73 118.59 175.68 C 118.81 177.67 118.94 179.68 119.32 181.66 C 121.41 183.59 123.82 182.15 125.66 180.72 C 125.74 178.18 125.84 175.65 125.94 173.11 L 126.84 173.11 C 126.94 174.80 127.05 176.48 127.18 178.17 C 129.08 176.69 130.83 175.02 132.35 173.15 C 133.09 173.15 134.56 173.16 135.30 173.17 C 132.88 176.98 127.59 178.79 126.94 183.63 C 128.65 183.84 130.37 184.05 132.09 184.26 C 132.91 183.59 133.73 182.92 134.55 182.25 C 134.71 182.83 135.04 183.98 135.20 184.56 C 136.29 185.05 137.38 185.56 138.46 186.08 C 135.95 186.36 133.50 185.78 131.05 185.31 C 129.08 184.91 126.73 186.10 125.15 184.38 C 120.51 188.09 116.77 192.78 112.65 197.04 C 113.84 197.65 115.05 198.24 116.24 198.86 C 113.82 199.31 110.64 198.55 109.01 200.87 C 105.46 205.32 100.92 208.85 97.53 213.43 C 95.26 216.49 90.70 218.31 90.85 222.68 C 92.87 223.05 94.88 223.42 96.89 223.81 C 96.96 221.18 97.14 218.56 97.47 215.95 C 97.62 218.60 97.59 221.27 98.05 223.89 C 99.81 225.01 102.01 224.77 104.00 225.08 C 104.09 221.76 104.11 218.45 104.05 215.14 L 104.87 215.13 C 105.00 218.54 104.28 222.16 105.58 225.41 C 127.23 228.56 149.61 223.82 168.92 213.81 C 170.13 213.07 170.53 211.56 171.32 210.44 C 173.19 209.72 175.15 208.90 176.13 207.03 C 178.80 202.60 182.65 199.01 185.00 194.39 C 183.51 194.04 182.00 193.73 180.59 193.14 C 182.74 192.93 184.91 192.83 187.08 192.80 C 187.19 189.77 187.29 186.75 187.53 183.74 C 187.91 185.87 188.10 188.02 188.22 190.18 C 191.76 186.10 196.98 181.90 196.10 175.89 C 192.99 175.43 189.83 175.19 186.79 174.36 C 189.55 174.08 192.31 174.04 195.08 174.03 L 195.12 173.18 C 195.77 173.17 197.08 173.14 197.73 173.13 C 197.54 173.50 197.15 174.25 196.96 174.63 C 197.74 174.72 199.29 174.91 200.07 175.01 C 201.69 173.10 203.85 171.41 204.59 168.93 C 205.12 164.73 205.21 160.47 205.88 156.28 C 204.15 156.21 202.42 156.14 200.70 156.07 C 200.96 154.66 201.25 153.26 201.48 151.84 C 201.55 152.58 201.70 154.05 201.77 154.79 C 203.11 154.74 204.44 154.70 205.77 154.66 C 206.69 148.22 206.92 141.72 207.65 135.27 C 206.86 135.15 205.27 134.93 204.48 134.82 L 204.63 134.02 C 205.66 133.66 206.68 133.29 207.71 132.93 C 207.96 129.72 208.62 126.53 208.53 123.30 C 208.10 123.09 207.24 122.68 206.81 122.47 C 207.87 122.18 208.92 121.85 209.96 121.48 C 209.94 125.62 209.31 129.71 209.04 133.83 C 211.39 133.84 213.73 133.86 216.09 133.88 C 216.22 131.86 216.36 129.84 216.60 127.83 C 217.84 129.61 217.14 131.79 217.22 133.79 C 219.39 134.66 221.74 134.22 224.00 134.14 C 224.73 131.48 225.44 128.79 225.64 126.03 C 226.50 115.30 226.28 104.31 223.18 93.92 C 222.96 92.91 222.35 92.24 221.36 91.91 C 221.57 98.81 219.23 105.55 220.15 112.48 C 221.85 112.79 223.56 113.12 225.25 113.56 C 223.20 113.86 221.15 114.06 219.10 114.22 C 218.87 116.20 218.64 118.19 218.39 120.17 C 218.19 118.08 218.03 115.99 217.87 113.90 C 216.75 114.36 214.97 114.02 214.41 115.34 C 214.48 113.82 214.44 112.30 214.29 110.78 C 214.53 111.32 215.01 112.38 215.25 112.91 C 216.46 112.65 217.67 112.39 218.89 112.13 C 218.28 105.41 220.00 98.82 220.01 92.12 C 216.07 92.64 211.17 91.84 208.32 95.25 C 206.10 97.56 202.99 99.75 203.57 103.40 C 197.70 104.47 194.39 110.41 195.14 116.09 C 191.52 117.26 187.85 118.23 184.14 119.03 C 184.10 117.28 184.05 115.53 184.01 113.78 C 181.59 113.74 179.17 113.75 176.75 113.80 C 176.76 113.38 176.77 112.55 176.78 112.14 C 179.25 112.22 181.72 112.22 184.19 112.15 C 184.74 108.97 185.28 105.69 184.38 102.52 C 184.96 101.60 185.41 100.60 185.84 99.60 C 186.28 103.69 185.61 107.83 186.11 111.90 C 188.59 114.16 191.24 110.36 192.69 108.57 C 194.52 103.65 193.78 98.19 193.96 93.03 C 191.37 93.41 187.48 92.02 185.80 94.30 C 185.69 93.82 185.49 92.85 185.39 92.37 C 186.25 85.68 186.91 78.91 186.77 72.15 C 184.23 72.46 181.70 72.82 179.17 73.21 C 179.08 77.44 178.94 81.67 178.88 85.90 C 178.54 85.80 177.86 85.61 177.52 85.52 C 177.66 81.30 177.90 77.09 177.88 72.87 C 176.25 73.14 174.45 73.04 173.05 74.06 C 169.19 76.29 170.61 81.45 170.04 85.14 C 170.59 85.17 171.70 85.24 172.26 85.28 C 171.17 85.60 170.12 86.00 169.11 86.50 C 169.02 83.60 168.93 80.71 168.84 77.81 C 164.21 81.17 160.14 85.19 155.82 88.92 C 154.53 90.00 153.52 91.35 152.64 92.78 C 156.26 92.67 159.92 92.38 163.52 92.98 L 163.30 93.71 C 160.16 94.19 161.06 97.86 160.36 100.13 C 160.19 98.16 160.03 96.18 159.88 94.20 C 156.35 94.11 152.82 94.16 149.29 94.37 C 147.38 96.47 144.12 98.07 143.83 101.12 C 143.63 100.80 143.23 100.17 143.04 99.85 C 141.53 97.67 140.12 95.44 138.66 93.24 C 143.22 92.75 148.54 93.87 151.80 89.81 C 151.68 84.83 151.86 79.85 151.98 74.87 C 149.34 74.82 146.69 74.88 144.06 75.06 C 143.74 80.74 144.24 86.45 143.52 92.11 C 142.62 86.58 143.68 80.97 143.05 75.42 C 141.41 75.41 139.77 75.38 138.13 75.35 C 137.89 75.84 137.42 76.82 137.19 77.31 C 137.35 75.49 137.40 73.65 137.27 71.83 C 137.44 72.33 137.77 73.32 137.94 73.82 C 139.58 73.84 141.23 73.86 142.88 73.88 C 143.90 67.95 143.75 61.90 143.89 55.91 C 141.68 56.01 139.36 55.71 137.24 56.43 C 134.45 57.99 131.98 60.06 129.45 62.00 M 93.09 60.19 C 92.96 65.77 93.16 71.36 93.27 76.94 C 95.73 76.91 98.19 76.62 100.57 75.95 C 100.35 70.65 100.37 65.35 100.01 60.05 C 97.71 60.09 95.40 60.14 93.09 60.19 M 67.36 63.23 C 67.77 68.38 67.78 73.56 68.04 78.72 C 70.91 78.57 73.89 78.18 76.21 76.31 C 76.49 76.67 77.04 77.38 77.32 77.73 C 79.43 77.71 81.54 77.68 83.65 77.65 C 83.78 72.23 83.38 66.81 82.79 61.43 C 77.70 62.44 72.50 62.56 67.36 63.23 M 84.26 61.22 C 84.60 66.66 84.71 72.11 85.23 77.54 C 87.48 77.26 89.73 77.00 91.99 76.75 C 92.13 71.50 91.92 66.25 91.78 61.00 C 89.27 61.01 86.76 61.09 84.26 61.22 M 59.52 66.30 C 58.84 70.46 59.63 74.69 59.98 78.84 C 62.30 78.79 64.63 78.74 66.95 78.72 C 67.29 73.41 66.17 68.16 66.03 62.87 C 63.64 63.43 60.97 64.13 59.52 66.30 M 48.07 65.31 C 45.87 65.21 43.67 65.43 41.59 66.17 C 40.86 66.21 40.12 66.27 39.39 66.36 C 36.55 69.31 34.24 73.21 34.78 77.47 C 42.95 73.91 50.10 68.33 58.00 64.19 C 54.65 64.25 51.42 65.42 48.07 65.31 M 51.28 71.26 C 50.82 74.17 51.50 77.08 52.05 79.93 C 54.31 79.61 56.56 79.23 58.80 78.78 C 58.39 74.96 59.38 70.42 57.23 67.16 C 55.09 68.22 52.73 69.29 51.28 71.26 M 196.90 72.01 C 196.70 78.65 195.56 85.25 195.93 91.90 C 198.23 91.68 200.53 91.41 202.82 91.09 C 204.13 84.50 203.78 77.75 204.65 71.11 C 202.06 71.34 199.47 71.62 196.90 72.01 M 42.94 79.76 C 45.31 79.79 47.67 79.83 50.04 79.86 C 50.16 77.17 50.13 74.47 49.94 71.78 C 46.71 73.52 41.69 75.07 42.94 79.76 M 188.28 72.29 C 188.24 78.77 186.85 85.19 187.38 91.67 C 189.57 91.76 191.77 91.83 193.97 91.91 C 195.08 85.38 195.39 78.70 195.25 72.09 C 192.92 72.15 190.60 72.22 188.28 72.29 M 162.06 74.11 C 161.89 75.79 161.68 77.47 161.46 79.15 C 160.81 77.58 160.58 75.89 160.72 74.20 C 158.21 74.31 155.72 74.39 153.22 74.40 C 152.95 78.95 152.93 83.51 153.16 88.07 C 156.07 86.07 158.65 83.66 161.20 81.23 C 163.91 78.63 167.37 76.75 169.38 73.48 C 166.94 73.63 164.50 73.87 162.06 74.11 M 85.10 79.16 C 85.19 82.86 85.20 86.56 85.25 90.26 C 89.12 89.20 91.58 85.84 94.92 83.87 C 97.30 82.26 100.31 80.98 101.22 77.99 C 98.56 77.92 95.89 78.04 93.24 78.26 C 93.29 79.26 93.33 80.27 93.38 81.28 C 92.76 80.24 92.13 79.20 91.50 78.17 C 89.35 78.40 87.21 78.72 85.10 79.16 M 51.86 81.12 C 51.72 86.04 52.63 90.89 53.05 95.78 C 55.29 95.71 57.54 95.65 59.79 95.62 C 59.62 90.53 58.91 85.48 58.77 80.38 C 56.47 80.64 54.16 80.89 51.86 81.12 M 30.78 82.70 C 26.27 86.05 27.98 92.05 29.18 96.61 C 31.19 96.38 33.20 96.16 35.22 95.93 C 35.25 92.88 35.29 89.84 35.37 86.79 C 35.93 89.87 36.43 92.96 36.92 96.06 C 39.24 96.04 41.56 95.99 43.89 95.90 C 43.03 91.16 43.76 86.16 42.33 81.56 C 38.47 81.47 34.55 81.94 30.78 82.70 M 43.88 81.44 C 43.34 86.28 44.35 91.07 45.12 95.82 C 47.14 95.82 49.17 95.82 51.19 95.82 C 51.56 90.94 51.31 86.06 50.97 81.19 C 48.61 81.29 46.24 81.39 43.88 81.44 M 93.77 87.77 C 93.33 89.69 93.54 91.68 93.50 93.63 C 95.92 94.34 98.44 94.45 100.95 94.21 C 101.01 90.39 100.98 86.57 100.76 82.76 C 98.30 84.24 95.75 85.67 93.77 87.77 M 212.77 90.97 C 215.37 90.96 217.98 90.80 220.57 90.50 C 220.63 88.22 220.46 85.94 220.07 83.69 C 217.26 85.71 214.94 88.30 212.77 90.97 M 85.64 93.99 C 87.57 95.06 89.93 94.57 92.05 94.76 C 92.11 92.81 92.15 90.85 92.16 88.89 C 89.82 90.34 87.26 91.67 85.64 93.99 M 195.28 93.27 C 195.03 97.57 194.89 101.88 195.07 106.19 C 199.34 101.75 203.15 96.85 208.02 93.03 C 206.72 92.95 205.42 92.87 204.12 92.79 C 203.89 93.95 203.66 95.12 203.44 96.28 C 203.26 95.46 202.90 93.81 202.72 92.99 C 200.24 93.05 197.76 93.14 195.28 93.27 M 52.97 97.19 C 52.84 102.20 53.59 107.17 54.92 111.99 C 56.93 111.08 59.17 110.39 60.68 108.69 C 60.87 104.83 60.20 101.01 59.86 97.18 C 57.56 97.18 55.27 97.18 52.97 97.19 M 24.09 97.98 C 22.70 102.07 21.84 106.34 22.04 110.68 C 24.33 110.95 26.62 111.15 28.92 111.24 C 29.00 106.78 28.10 102.39 27.64 97.97 C 26.46 97.97 25.28 97.98 24.09 97.98 M 20.23 125.84 C 21.11 125.61 21.99 125.40 22.88 125.19 C 22.02 121.11 22.05 116.92 21.69 112.78 C 19.44 116.67 19.41 121.55 20.23 125.84 M 19.70 128.93 C 19.66 131.68 19.94 134.43 20.11 137.18 C 21.38 136.78 22.62 136.29 23.89 135.88 C 23.64 132.86 23.23 129.86 22.71 126.87 C 21.64 127.31 19.21 127.05 19.70 128.93 M 24.11 127.21 C 24.37 129.51 24.77 131.79 25.24 134.06 C 27.35 132.71 29.44 131.30 31.51 129.88 C 30.92 126.17 26.77 127.40 24.11 127.21 M 32.27 132.10 C 32.74 135.00 33.08 137.92 33.37 140.85 C 35.52 140.88 37.67 140.90 39.82 140.90 C 39.23 136.52 38.87 132.11 38.69 127.69 C 36.30 128.77 34.18 130.32 32.27 132.10 M 24.80 139.77 C 27.21 139.81 29.63 139.84 32.04 139.86 C 31.93 137.46 31.64 135.07 30.94 132.77 C 28.29 134.47 25.00 136.21 24.80 139.77 M 209.20 135.27 C 208.00 141.75 207.84 148.36 207.14 154.90 C 209.99 155.08 212.84 155.04 215.68 154.77 C 217.78 151.85 220.12 149.10 222.17 146.13 C 224.38 143.22 223.89 139.36 224.12 135.93 C 221.76 135.89 219.41 135.88 217.06 135.92 C 216.40 141.32 215.59 146.71 215.46 152.16 C 214.14 146.62 216.09 141.07 215.74 135.50 C 213.56 135.44 211.38 135.36 209.20 135.27 M 20.94 140.71 C 21.44 145.23 22.36 149.69 23.36 154.12 C 24.32 153.62 25.90 153.44 25.68 151.97 C 25.48 148.50 25.12 145.00 24.35 141.60 C 23.23 141.24 22.09 140.94 20.94 140.71 M 26.28 141.34 C 25.98 145.52 26.65 149.67 27.29 153.79 C 29.67 153.46 33.35 155.19 34.50 152.27 C 34.78 153.12 35.06 153.96 35.34 154.81 C 37.08 154.95 38.81 155.13 40.54 155.35 C 38.93 156.52 36.91 156.09 35.07 156.17 C 35.20 160.23 35.13 164.53 36.75 168.31 C 38.28 169.14 40.21 168.68 41.90 168.90 C 42.18 159.90 40.54 150.98 39.72 142.03 C 36.93 142.09 34.00 142.83 31.30 141.77 C 29.69 141.18 27.96 141.34 26.28 141.34 M 27.41 155.14 C 27.83 159.35 27.59 163.72 29.20 167.71 C 31.11 167.68 33.03 167.70 34.94 167.74 C 34.40 163.79 33.91 159.83 33.68 155.86 C 31.60 155.54 29.50 155.32 27.41 155.14 M 207.27 156.38 C 206.52 159.88 206.06 163.44 206.17 167.03 C 209.06 163.94 211.59 160.51 213.59 156.78 C 211.49 156.57 209.38 156.46 207.27 156.38 M 212.19 163.11 C 209.17 166.87 204.95 170.47 204.95 175.70 C 206.59 175.74 208.22 175.78 209.86 175.83 C 212.65 172.12 212.88 167.45 213.43 163.03 C 213.70 164.69 213.96 166.35 214.23 168.02 C 215.51 164.23 219.33 160.77 218.07 156.51 C 215.11 157.68 214.22 160.95 212.19 163.11 M 51.96 182.04 C 51.70 185.80 56.39 185.50 58.92 185.99 C 58.24 182.46 58.95 178.65 57.32 175.36 C 55.19 177.22 51.13 178.48 51.96 182.04 M 74.19 175.89 C 74.00 180.41 74.41 184.93 74.57 189.45 C 76.68 189.89 78.78 190.33 80.89 190.75 C 80.99 186.23 80.36 181.74 80.62 177.23 C 78.53 176.55 76.37 176.13 74.19 175.89 M 194.42 186.43 C 192.43 188.65 190.53 190.95 188.95 193.48 C 190.54 193.84 192.13 194.20 193.73 194.56 C 198.06 191.54 202.07 187.77 203.82 182.64 C 204.41 182.56 205.00 182.48 205.60 182.41 C 206.60 180.75 207.49 179.03 208.24 177.24 C 206.90 177.34 205.58 177.45 204.25 177.56 C 203.83 177.21 202.97 176.49 202.55 176.13 C 198.82 178.68 197.37 183.18 194.42 186.43 M 82.05 177.32 C 81.88 181.81 81.65 186.35 82.29 190.81 C 84.01 191.89 86.12 191.81 88.05 192.16 C 88.08 187.53 88.08 182.90 87.83 178.28 C 85.90 177.96 83.98 177.64 82.05 177.32 M 89.10 178.74 C 89.25 183.06 88.92 187.41 89.43 191.71 C 90.82 193.67 93.87 193.26 95.98 193.94 C 96.06 190.04 96.08 186.14 96.10 182.23 L 96.74 182.25 C 96.67 186.18 96.74 190.11 97.02 194.03 C 99.17 194.67 101.40 194.87 103.64 194.78 C 105.88 195.84 108.24 196.65 110.71 196.97 C 111.22 192.57 110.86 188.12 111.50 183.74 C 111.74 187.43 111.76 191.14 112.08 194.83 C 114.24 192.43 116.40 190.03 118.62 187.69 C 118.49 186.94 118.36 186.19 118.23 185.45 C 119.04 185.55 119.85 185.65 120.67 185.75 C 120.99 185.37 121.62 184.62 121.94 184.25 C 116.04 182.83 110.02 181.92 104.01 181.16 C 103.94 185.19 104.11 189.23 103.70 193.26 C 102.68 189.32 103.88 185.13 102.66 181.27 C 98.51 179.37 93.58 179.62 89.10 178.74 M 52.98 186.86 C 53.04 190.69 52.73 194.60 53.64 198.36 C 55.40 199.69 57.67 199.67 59.76 199.91 C 59.24 195.82 59.36 191.63 58.36 187.62 C 56.64 186.99 54.78 187.04 52.98 186.86 M 60.09 188.03 C 60.29 192.31 60.70 196.57 61.20 200.83 C 63.10 201.26 65.00 201.68 66.91 202.10 C 67.02 197.79 67.05 193.44 65.99 189.23 C 64.02 188.83 62.06 188.42 60.09 188.03 M 67.92 189.95 C 68.01 193.53 67.86 197.14 68.39 200.70 C 68.57 203.50 72.00 203.10 73.96 203.89 C 74.00 199.98 74.20 196.02 73.55 192.14 C 72.86 189.69 69.85 190.25 67.92 189.95 M 75.05 191.17 C 74.83 195.66 75.11 200.18 76.02 204.59 C 77.76 204.94 79.50 205.30 81.24 205.67 C 82.19 201.33 81.61 196.69 80.73 192.41 C 78.87 191.84 76.95 191.52 75.05 191.17 M 83.00 193.14 C 81.73 196.57 82.65 200.40 82.77 203.97 C 82.91 206.97 86.72 206.89 88.84 207.87 C 89.01 203.22 88.55 198.57 88.55 193.92 C 86.74 193.47 84.89 192.97 83.00 193.14 M 90.14 194.18 C 89.85 198.70 89.91 203.23 90.18 207.76 C 92.08 208.29 94.00 208.80 95.92 209.28 C 96.20 204.64 96.08 199.99 95.78 195.36 C 93.90 194.96 92.02 194.57 90.14 194.18 M 187.65 194.97 C 187.60 196.81 187.82 198.64 188.13 200.46 C 189.65 199.13 192.55 197.91 191.95 195.45 C 190.52 195.24 189.09 195.08 187.65 194.97 M 97.08 195.77 C 97.14 200.58 97.13 205.39 97.38 210.20 C 101.00 206.22 105.00 202.53 108.27 198.25 C 104.57 197.30 100.85 196.38 97.08 195.77 M 178.84 207.17 C 181.81 205.95 184.56 204.14 186.69 201.73 C 187.14 200.10 186.37 198.53 185.98 196.98 C 183.57 200.36 180.62 203.39 178.84 207.17 Z" />
</g>
<g id="#ffb002ff">
<path fill="#ffb002" opacity="1.00" d=" M 92.39 25.67 C 105.09 21.80 118.47 19.22 131.78 20.31 C 130.63 21.10 129.48 21.89 128.33 22.69 C 128.17 22.36 127.83 21.70 127.66 21.37 C 125.59 24.34 122.35 26.00 119.26 27.69 C 118.60 27.19 117.94 26.70 117.28 26.21 C 117.39 27.11 117.51 28.01 117.63 28.91 C 116.02 29.84 114.38 30.73 112.69 31.52 C 108.56 33.24 105.34 36.56 101.07 38.01 C 100.67 33.63 100.73 29.23 100.47 24.85 C 98.14 27.80 100.03 31.66 100.03 35.02 C 100.18 36.95 100.33 40.18 97.73 40.45 C 92.85 41.12 87.96 42.20 83.01 41.84 C 82.79 38.29 82.90 34.74 83.41 31.23 C 83.11 31.23 82.51 31.23 82.20 31.23 C 82.21 35.05 82.23 38.87 81.99 42.68 C 79.65 42.89 77.32 43.15 75.00 43.48 C 75.08 39.82 72.93 34.23 77.46 32.47 C 82.08 30.55 86.42 27.04 91.63 27.27 C 91.82 26.87 92.20 26.07 92.39 25.67 Z" />
<path fill="#ffb002" opacity="1.00" d=" M 114.76 32.88 C 118.70 31.04 122.05 28.21 125.89 26.19 C 126.22 29.78 126.24 33.38 125.94 36.97 C 120.64 37.26 115.36 37.72 110.18 38.87 C 109.82 38.38 109.12 37.39 108.76 36.89 C 110.54 35.25 112.55 33.88 114.76 32.88 Z" />
<path fill="#ffb002" opacity="1.00" d=" M 66.22 39.17 C 68.42 37.72 70.66 36.34 72.96 35.07 C 73.45 37.88 73.83 40.72 74.05 43.56 C 71.45 43.91 68.85 44.29 66.26 44.74 C 66.25 42.89 66.24 41.03 66.22 39.17 Z" />
<path fill="#ffb002" opacity="1.00" d=" M 118.52 39.70 C 120.94 38.90 123.42 38.31 125.96 38.03 C 126.16 43.96 126.22 49.90 126.04 55.83 C 123.63 56.03 121.21 56.18 118.79 56.25 C 118.51 50.74 118.72 45.22 118.52 39.70 Z" />
<path fill="#ffb002" opacity="1.00" d=" M 56.33 47.56 C 59.12 46.73 62.05 46.53 64.92 46.11 C 65.19 50.62 65.88 55.14 65.64 59.66 C 64.12 61.17 61.76 61.56 59.87 62.50 C 59.10 61.38 58.36 60.24 57.61 59.11 C 57.34 60.25 57.88 61.83 56.91 62.68 C 54.74 63.18 52.49 63.01 50.28 63.02 C 50.21 59.68 49.79 56.34 50.01 53.01 C 51.73 50.83 53.82 48.80 56.33 47.56 Z" />
<path fill="#ffb002" opacity="1.00" d=" M 84.11 52.08 C 85.70 49.64 88.52 48.44 90.94 46.98 C 91.44 51.19 91.69 55.43 91.56 59.67 C 89.10 59.75 86.65 59.78 84.19 59.78 C 84.07 57.22 83.79 54.64 84.11 52.08 Z" />
<path fill="#ffb002" opacity="1.00" d=" M 199.56 50.16 C 204.66 56.02 209.80 61.97 213.46 68.86 C 211.05 69.20 208.64 69.52 206.23 69.78 C 205.97 67.82 205.72 65.86 205.47 63.90 C 205.29 65.90 205.11 67.89 204.94 69.89 C 202.40 70.02 199.83 70.32 197.31 69.83 C 196.96 67.80 196.84 65.74 196.67 63.69 C 196.41 65.98 196.14 68.26 195.88 70.54 C 189.54 70.07 183.28 71.51 176.95 71.25 C 181.75 65.95 187.30 61.46 192.65 56.74 C 195.04 54.64 198.52 53.47 199.56 50.16 Z" />
<path fill="#ffb002" opacity="1.00" d=" M 129.45 62.00 C 131.98 60.06 134.45 57.99 137.24 56.43 C 139.36 55.71 141.68 56.01 143.89 55.91 C 143.75 61.90 143.90 67.95 142.88 73.88 C 141.23 73.86 139.58 73.84 137.94 73.82 C 137.77 73.32 137.44 72.33 137.27 71.83 C 136.35 67.48 133.44 63.92 129.45 62.00 Z" />
<path fill="#ffb002" opacity="1.00" d=" M 110.00 59.17 C 112.44 58.82 114.89 58.51 117.35 58.33 C 117.58 59.69 117.81 61.06 118.04 62.43 C 114.57 64.75 112.02 68.29 111.23 72.42 C 108.60 74.61 105.68 76.70 102.05 76.26 C 101.70 70.83 101.58 65.39 101.13 59.97 C 103.72 59.36 106.36 59.08 109.02 58.99 C 109.54 63.43 108.74 67.94 109.64 72.34 C 110.08 67.96 109.78 63.56 110.00 59.17 Z" />
<path fill="#ffb002" opacity="1.00" d=" M 84.26 61.22 C 86.76 61.09 89.27 61.01 91.78 61.00 C 91.92 66.25 92.13 71.50 91.99 76.75 C 89.73 77.00 87.48 77.26 85.23 77.54 C 84.71 72.11 84.60 66.66 84.26 61.22 Z" />
<path fill="#ffb002" opacity="1.00" d=" M 48.07 65.31 C 51.42 65.42 54.65 64.25 58.00 64.19 C 50.10 68.33 42.95 73.91 34.78 77.47 C 34.24 73.21 36.55 69.31 39.39 66.36 C 40.12 66.27 40.86 66.21 41.59 66.17 C 43.67 65.43 45.87 65.21 48.07 65.31 Z" />
<path fill="#ffb002" opacity="1.00" d=" M 68.33 80.25 C 70.47 79.94 72.61 79.64 74.76 79.33 C 75.17 80.98 75.69 82.60 76.48 84.11 C 76.67 82.48 76.82 80.85 76.98 79.21 C 79.25 79.17 81.52 79.14 83.79 79.11 C 84.03 82.84 84.08 86.58 83.85 90.31 C 80.69 86.15 74.96 83.84 69.96 85.99 C 66.03 87.27 64.10 91.14 62.50 94.63 L 61.88 95.90 C 60.31 90.82 60.08 85.46 60.15 80.18 C 63.08 80.05 66.29 79.70 68.57 81.95 C 68.51 81.52 68.39 80.67 68.33 80.25 Z" />
<path fill="#ffb002" opacity="1.00" d=" M 208.32 95.25 C 211.17 91.84 216.07 92.64 220.01 92.12 C 220.00 98.82 218.28 105.41 218.89 112.13 C 217.67 112.39 216.46 112.65 215.25 112.91 C 215.01 112.38 214.53 111.32 214.29 110.78 C 212.86 106.16 208.40 103.10 203.57 103.40 C 202.99 99.75 206.10 97.56 208.32 95.25 Z" />
<path fill="#ffb002" opacity="1.00" d=" M 149.29 94.37 C 152.82 94.16 156.35 94.11 159.88 94.20 C 160.03 96.18 160.19 98.16 160.36 100.13 C 161.06 97.86 160.16 94.19 163.30 93.71 C 163.30 96.39 163.55 99.06 163.86 101.72 C 159.37 104.71 154.87 107.69 150.45 110.80 C 148.17 107.62 145.87 104.45 143.83 101.12 C 144.12 98.07 147.38 96.47 149.29 94.37 Z" />
<path fill="#ffb002" opacity="1.00" d=" M 23.18 112.40 C 26.83 112.95 30.57 113.37 34.15 112.25 C 34.14 116.24 36.39 119.61 39.44 121.99 C 39.65 122.35 40.07 123.08 40.27 123.45 C 39.34 123.39 38.42 123.33 37.49 123.27 C 37.71 123.80 38.15 124.85 38.38 125.38 C 36.09 126.00 33.35 126.89 31.50 124.83 C 29.28 126.13 26.69 125.86 24.23 125.81 C 23.33 121.40 22.82 116.90 23.18 112.40 Z" />
<path fill="#ffb002" opacity="1.00" d=" M 32.27 132.10 C 34.18 130.32 36.30 128.77 38.69 127.69 C 38.87 132.11 39.23 136.52 39.82 140.90 C 37.67 140.90 35.52 140.88 33.37 140.85 C 33.08 137.92 32.74 135.00 32.27 132.10 Z" />
<path fill="#ffb002" opacity="1.00" d=" M 26.28 141.34 C 27.96 141.34 29.69 141.18 31.30 141.77 C 34.00 142.83 36.93 142.09 39.72 142.03 C 40.54 150.98 42.18 159.90 41.90 168.90 C 40.21 168.68 38.28 169.14 36.75 168.31 C 35.13 164.53 35.20 160.23 35.07 156.17 C 36.91 156.09 38.93 156.52 40.54 155.35 C 38.81 155.13 37.08 154.95 35.34 154.81 C 35.06 153.96 34.78 153.12 34.50 152.27 C 33.35 155.19 29.67 153.46 27.29 153.79 C 26.65 149.67 25.98 145.52 26.28 141.34 Z" />
<path fill="#ffb002" opacity="1.00" d=" M 212.19 163.11 C 214.22 160.95 215.11 157.68 218.07 156.51 C 219.33 160.77 215.51 164.23 214.23 168.02 C 213.96 166.35 213.70 164.69 213.43 163.03 C 212.88 167.45 212.65 172.12 209.86 175.83 C 208.22 175.78 206.59 175.74 204.95 175.70 C 204.95 170.47 209.17 166.87 212.19 163.11 Z" />
<path fill="#ffb002" opacity="1.00" d=" M 60.09 188.03 C 62.06 188.42 64.02 188.83 65.99 189.23 C 67.05 193.44 67.02 197.79 66.91 202.10 C 65.00 201.68 63.10 201.26 61.20 200.83 C 60.70 196.57 60.29 192.31 60.09 188.03 Z" />
<path fill="#ffb002" opacity="1.00" d=" M 90.14 194.18 C 92.02 194.57 93.90 194.96 95.78 195.36 C 96.08 199.99 96.20 204.64 95.92 209.28 C 94.00 208.80 92.08 208.29 90.18 207.76 C 89.91 203.23 89.85 198.70 90.14 194.18 Z" />
<path fill="#ffb002" opacity="1.00" d=" M 61.25 202.13 C 63.12 202.56 64.99 202.99 66.86 203.43 C 67.16 205.46 67.49 207.49 67.90 209.51 C 68.31 207.78 68.60 206.02 68.72 204.25 C 70.45 204.54 72.19 204.84 73.92 205.13 C 74.02 205.69 74.22 206.79 74.33 207.35 C 76.74 206.33 79.35 206.42 81.85 207.08 C 81.97 210.98 82.18 214.88 82.42 218.77 C 82.04 219.08 81.28 219.70 80.90 220.01 C 74.00 216.76 67.04 213.33 61.11 208.47 C 61.10 206.36 61.20 204.24 61.25 202.13 Z" />
</g>
<g id="#ffb001ff">
<path fill="#ffb001" opacity="1.00" d=" M 127.68 25.35 C 130.32 22.96 133.68 21.21 137.16 20.43 C 144.10 20.57 150.67 23.47 157.61 23.69 C 162.36 24.40 166.63 26.87 170.83 29.07 C 169.05 30.73 166.92 31.89 164.49 32.20 C 163.89 30.70 163.37 29.17 162.77 27.67 C 162.46 29.12 162.15 30.58 161.85 32.04 C 159.34 32.48 156.80 32.76 154.27 32.96 C 154.08 30.29 153.89 27.62 153.67 24.96 C 152.89 30.58 153.23 36.27 152.71 41.90 C 151.73 43.56 149.91 44.45 148.39 45.55 C 144.31 48.14 140.62 51.28 136.61 53.99 C 135.74 48.32 136.12 42.59 136.18 36.89 C 139.03 36.29 141.94 36.16 144.84 36.27 C 147.18 35.63 149.54 35.07 151.92 34.56 L 151.90 33.81 C 149.61 33.82 147.33 33.83 145.04 33.84 C 145.03 30.19 144.88 26.54 144.55 22.90 C 144.39 26.88 144.25 30.86 144.02 34.83 C 141.34 34.96 138.66 35.07 135.99 35.14 C 136.02 31.41 135.87 27.67 135.48 23.96 C 135.31 27.93 135.24 31.90 135.11 35.87 C 132.68 36.05 130.25 36.29 127.81 36.24 C 127.09 32.68 127.11 28.93 127.68 25.35 Z" />
<path fill="#ffb001" opacity="1.00" d=" M 175.23 31.23 C 183.48 36.18 191.37 41.92 198.02 48.90 C 186.25 49.49 174.58 51.28 162.83 52.04 C 162.85 47.90 162.85 43.76 162.59 39.62 C 162.01 43.90 161.86 48.21 161.52 52.51 C 159.01 52.68 156.49 52.84 153.98 53.01 C 154.01 50.11 153.69 47.12 154.52 44.30 C 155.36 42.93 156.87 42.17 158.14 41.26 C 162.69 38.52 166.66 34.96 171.12 32.09 C 171.52 38.24 170.84 44.38 170.84 50.52 C 172.81 44.71 171.49 38.46 172.11 32.45 C 173.15 32.05 174.19 31.64 175.23 31.23 Z" />
<path fill="#ffb001" opacity="1.00" d=" M 92.59 46.29 C 94.47 44.16 97.41 43.38 99.87 42.11 C 99.87 47.68 100.07 53.24 99.90 58.81 C 97.64 58.87 95.37 58.93 93.11 58.99 C 92.85 54.76 92.27 50.52 92.59 46.29 Z" />
<path fill="#ffb001" opacity="1.00" d=" M 93.09 60.19 C 95.40 60.14 97.71 60.09 100.01 60.05 C 100.37 65.35 100.35 70.65 100.57 75.95 C 98.19 76.62 95.73 76.91 93.27 76.94 C 93.16 71.36 92.96 65.77 93.09 60.19 Z" />
<path fill="#ffb001" opacity="1.00" d=" M 67.36 63.23 C 72.50 62.56 77.70 62.44 82.79 61.43 C 83.38 66.81 83.78 72.23 83.65 77.65 C 81.54 77.68 79.43 77.71 77.32 77.73 C 77.04 77.38 76.49 76.67 76.21 76.31 C 73.89 78.18 70.91 78.57 68.04 78.72 C 67.78 73.56 67.77 68.38 67.36 63.23 Z" />
<path fill="#ffb001" opacity="1.00" d=" M 59.52 66.30 C 60.97 64.13 63.64 63.43 66.03 62.87 C 66.17 68.16 67.29 73.41 66.95 78.72 C 64.63 78.74 62.30 78.79 59.98 78.84 C 59.63 74.69 58.84 70.46 59.52 66.30 Z" />
<path fill="#ffb001" opacity="1.00" d=" M 51.28 71.26 C 52.73 69.29 55.09 68.22 57.23 67.16 C 59.38 70.42 58.39 74.96 58.80 78.78 C 56.56 79.23 54.31 79.61 52.05 79.93 C 51.50 77.08 50.82 74.17 51.28 71.26 Z" />
<path fill="#ffb001" opacity="1.00" d=" M 206.11 71.08 C 209.15 71.03 212.23 71.01 215.21 71.71 C 217.01 74.23 218.08 77.17 219.42 79.94 C 217.53 82.16 215.48 84.22 213.28 86.12 C 213.72 81.62 214.17 77.08 213.58 72.58 C 212.96 78.14 213.39 83.99 211.21 89.26 C 209.85 91.90 206.48 90.96 204.09 91.16 C 204.92 84.48 205.18 77.74 206.11 71.08 Z" />
<path fill="#ffb001" opacity="1.00" d=" M 85.10 79.16 C 87.21 78.72 89.35 78.40 91.50 78.17 C 92.13 79.20 92.76 80.24 93.38 81.28 C 93.33 80.27 93.29 79.26 93.24 78.26 C 95.89 78.04 98.56 77.92 101.22 77.99 C 100.31 80.98 97.30 82.26 94.92 83.87 C 91.58 85.84 89.12 89.20 85.25 90.26 C 85.20 86.56 85.19 82.86 85.10 79.16 Z" />
<path fill="#ffb001" opacity="1.00" d=" M 51.86 81.12 C 54.16 80.89 56.47 80.64 58.77 80.38 C 58.91 85.48 59.62 90.53 59.79 95.62 C 57.54 95.65 55.29 95.71 53.05 95.78 C 52.63 90.89 51.72 86.04 51.86 81.12 Z" />
<path fill="#ffb001" opacity="1.00" d=" M 30.78 82.70 C 34.55 81.94 38.47 81.47 42.33 81.56 C 43.76 86.16 43.03 91.16 43.89 95.90 C 41.56 95.99 39.24 96.04 36.92 96.06 C 36.43 92.96 35.93 89.87 35.37 86.79 C 35.29 89.84 35.25 92.88 35.22 95.93 C 33.20 96.16 31.19 96.38 29.18 96.61 C 27.98 92.05 26.27 86.05 30.78 82.70 Z" />
<path fill="#ffb001" opacity="1.00" d=" M 43.88 81.44 C 46.24 81.39 48.61 81.29 50.97 81.19 C 51.31 86.06 51.56 90.94 51.19 95.82 C 49.17 95.82 47.14 95.82 45.12 95.82 C 44.35 91.07 43.34 86.28 43.88 81.44 Z" />
<path fill="#ffb001" opacity="1.00" d=" M 221.36 91.91 C 222.35 92.24 222.96 92.91 223.18 93.92 C 226.28 104.31 226.50 115.30 225.64 126.03 C 225.44 128.79 224.73 131.48 224.00 134.14 C 221.74 134.22 219.39 134.66 217.22 133.79 C 217.14 131.79 217.84 129.61 216.60 127.83 C 216.36 129.84 216.22 131.86 216.09 133.88 C 213.73 133.86 211.39 133.84 209.04 133.83 C 209.31 129.71 209.94 125.62 209.96 121.48 C 211.92 119.82 213.27 117.61 214.41 115.34 C 214.97 114.02 216.75 114.36 217.87 113.90 C 218.03 115.99 218.19 118.08 218.39 120.17 C 218.64 118.19 218.87 116.20 219.10 114.22 C 221.15 114.06 223.20 113.86 225.25 113.56 C 223.56 113.12 221.85 112.79 220.15 112.48 C 219.23 105.55 221.57 98.81 221.36 91.91 Z" />
<path fill="#ffb001" opacity="1.00" d=" M 195.28 93.27 C 197.76 93.14 200.24 93.05 202.72 92.99 C 202.90 93.81 203.26 95.46 203.44 96.28 C 203.66 95.12 203.89 93.95 204.12 92.79 C 205.42 92.87 206.72 92.95 208.02 93.03 C 203.15 96.85 199.34 101.75 195.07 106.19 C 194.89 101.88 195.03 97.57 195.28 93.27 Z" />
<path fill="#ffb001" opacity="1.00" d=" M 85.95 96.13 C 88.29 96.13 90.62 96.14 92.95 96.15 C 93.01 99.61 93.38 103.16 92.28 106.51 C 90.02 105.11 87.81 103.65 85.68 102.06 C 85.77 100.08 85.86 98.10 85.95 96.13 Z" />
<path fill="#ffb001" opacity="1.00" d=" M 37.15 97.31 C 39.39 97.37 41.63 97.36 43.86 97.32 C 43.57 99.54 44.88 103.11 41.86 103.75 C 40.59 104.28 39.32 104.82 38.08 105.42 C 37.08 102.83 37.02 100.04 37.15 97.31 Z" />
<path fill="#ffb001" opacity="1.00" d=" M 53.62 173.23 C 70.06 173.61 86.52 173.01 102.98 173.14 C 102.92 175.12 102.86 177.10 102.80 179.09 C 98.74 178.59 94.66 178.20 90.65 177.40 C 89.24 177.20 89.02 175.46 88.31 174.49 C 82.56 174.36 76.81 174.62 71.07 174.12 C 68.65 173.88 66.20 173.85 63.84 174.46 C 66.68 174.89 69.59 174.95 72.40 175.62 C 73.53 180.00 73.06 184.58 72.98 189.05 C 71.08 188.47 67.74 188.91 67.43 186.27 C 66.76 182.86 66.80 179.37 66.41 175.93 C 65.91 179.87 66.20 183.85 66.11 187.81 C 64.10 187.40 62.08 186.98 60.07 186.58 C 59.49 182.69 59.88 178.53 58.22 174.88 C 56.73 174.22 55.16 173.77 53.62 173.23 Z" />
<path fill="#ffb001" opacity="1.00" d=" M 51.96 182.04 C 51.13 178.48 55.19 177.22 57.32 175.36 C 58.95 178.65 58.24 182.46 58.92 185.99 C 56.39 185.50 51.70 185.80 51.96 182.04 Z" />
<path fill="#ffb001" opacity="1.00" d=" M 89.10 178.74 C 93.58 179.62 98.51 179.37 102.66 181.27 C 103.88 185.13 102.68 189.32 103.70 193.26 C 104.11 189.23 103.94 185.19 104.01 181.16 C 110.02 181.92 116.04 182.83 121.94 184.25 C 121.62 184.62 120.99 185.37 120.67 185.75 C 119.85 185.65 119.04 185.55 118.23 185.45 C 118.36 186.19 118.49 186.94 118.62 187.69 C 116.40 190.03 114.24 192.43 112.08 194.83 C 111.76 191.14 111.74 187.43 111.50 183.74 C 110.86 188.12 111.22 192.57 110.71 196.97 C 108.24 196.65 105.88 195.84 103.64 194.78 C 101.40 194.87 99.17 194.67 97.02 194.03 C 96.74 190.11 96.67 186.18 96.74 182.25 L 96.10 182.23 C 96.08 186.14 96.06 190.04 95.98 193.94 C 93.87 193.26 90.82 193.67 89.43 191.71 C 88.92 187.41 89.25 183.06 89.10 178.74 Z" />
<path fill="#ffb001" opacity="1.00" d=" M 75.05 191.17 C 76.95 191.52 78.87 191.84 80.73 192.41 C 81.61 196.69 82.19 201.33 81.24 205.67 C 79.50 205.30 77.76 204.94 76.02 204.59 C 75.11 200.18 74.83 195.66 75.05 191.17 Z" />
<path fill="#ffb001" opacity="1.00" d=" M 83.00 193.14 C 84.89 192.97 86.74 193.47 88.55 193.92 C 88.55 198.57 89.01 203.22 88.84 207.87 C 86.72 206.89 82.91 206.97 82.77 203.97 C 82.65 200.40 81.73 196.57 83.00 193.14 Z" />
<path fill="#ffb001" opacity="1.00" d=" M 97.08 195.77 C 100.85 196.38 104.57 197.30 108.27 198.25 C 105.00 202.53 101.00 206.22 97.38 210.20 C 97.13 205.39 97.14 200.58 97.08 195.77 Z" />
<path fill="#ffb001" opacity="1.00" d=" M 83.07 207.81 C 84.96 208.18 86.89 208.47 88.68 209.22 C 89.54 211.47 89.47 213.92 89.70 216.28 C 90.25 214.19 90.73 212.09 91.21 209.98 C 92.93 210.37 94.64 210.75 96.35 211.15 C 92.99 214.87 89.35 218.32 85.83 221.88 L 85.24 222.45 L 84.90 221.39 C 83.26 217.05 82.94 212.41 83.07 207.81 Z" />
</g>
<g id="#ffb101ff">
<path fill="#ffb101" opacity="1.00" d=" M 154.38 34.44 C 157.29 34.20 160.21 34.09 163.12 34.19 C 160.67 37.10 157.63 39.46 154.13 40.98 C 154.18 38.80 154.27 36.62 154.38 34.44 Z" />
<path fill="#ffb101" opacity="1.00" d=" M 41.72 63.81 C 43.04 60.15 45.79 57.35 48.80 54.99 C 48.93 57.89 48.92 60.78 48.82 63.68 C 46.46 63.73 44.09 63.79 41.72 63.81 Z" />
<path fill="#ffb101" opacity="1.00" d=" M 145.12 55.85 C 147.57 55.28 150.08 55.11 152.60 55.15 C 152.25 61.13 152.13 67.12 151.93 73.10 C 149.43 73.32 146.91 73.32 144.41 73.13 C 145.13 67.40 144.97 61.61 145.12 55.85 Z" />
<path fill="#ffb101" opacity="1.00" d=" M 196.90 72.01 C 199.47 71.62 202.06 71.34 204.65 71.11 C 203.78 77.75 204.13 84.50 202.82 91.09 C 200.53 91.41 198.23 91.68 195.93 91.90 C 195.56 85.25 196.70 78.65 196.90 72.01 Z" />
<path fill="#ffb101" opacity="1.00" d=" M 179.17 73.21 C 181.70 72.82 184.23 72.46 186.77 72.15 C 186.91 78.91 186.25 85.68 185.39 92.37 C 183.83 89.67 181.64 87.37 178.88 85.90 C 178.94 81.67 179.08 77.44 179.17 73.21 Z" />
<path fill="#ffb101" opacity="1.00" d=" M 162.06 74.11 C 164.50 73.87 166.94 73.63 169.38 73.48 C 167.37 76.75 163.91 78.63 161.20 81.23 C 158.65 83.66 156.07 86.07 153.16 88.07 C 152.93 83.51 152.95 78.95 153.22 74.40 C 155.72 74.39 158.21 74.31 160.72 74.20 C 160.58 75.89 160.81 77.58 161.46 79.15 C 161.68 77.47 161.89 75.79 162.06 74.11 Z" />
<path fill="#ffb101" opacity="1.00" d=" M 45.11 97.29 C 47.35 97.25 49.61 97.13 51.85 97.35 C 52.77 100.88 52.33 104.70 52.48 108.35 C 50.83 106.22 48.58 104.69 46.15 103.59 C 44.43 102.26 45.50 99.27 45.11 97.29 Z" />
<path fill="#ffb101" opacity="1.00" d=" M 52.97 97.19 C 55.27 97.18 57.56 97.18 59.86 97.18 C 60.20 101.01 60.87 104.83 60.68 108.69 C 59.17 110.39 56.93 111.08 54.92 111.99 C 53.59 107.17 52.84 102.20 52.97 97.19 Z" />
<path fill="#ffb101" opacity="1.00" d=" M 24.80 139.77 C 25.00 136.21 28.29 134.47 30.94 132.77 C 31.64 135.07 31.93 137.46 32.04 139.86 C 29.63 139.84 27.21 139.81 24.80 139.77 Z" />
<path fill="#ffb101" opacity="1.00" d=" M 43.11 157.19 C 44.80 157.25 46.49 157.31 48.17 157.36 C 49.07 161.67 49.66 166.03 49.97 170.42 C 47.96 170.26 45.96 169.98 43.97 169.71 C 42.73 165.64 42.96 161.37 43.11 157.19 Z" />
<path fill="#ffb101" opacity="1.00" d=" M 103.96 173.14 C 111.29 173.14 118.61 173.17 125.94 173.11 C 125.84 175.65 125.74 178.18 125.66 180.72 C 123.82 182.15 121.41 183.59 119.32 181.66 C 118.94 179.68 118.81 177.67 118.59 175.68 C 118.27 177.73 118.04 179.79 117.83 181.85 C 115.94 181.47 114.04 181.14 112.21 180.53 C 111.15 179.02 111.82 176.89 111.57 175.13 C 111.27 175.15 110.68 175.18 110.38 175.19 C 110.55 176.86 110.71 178.53 110.88 180.21 C 108.64 180.11 106.42 179.91 104.20 179.66 C 104.13 177.48 104.04 175.31 103.96 173.14 Z" />
<path fill="#ffb101" opacity="1.00" d=" M 74.19 175.89 C 76.37 176.13 78.53 176.55 80.62 177.23 C 80.36 181.74 80.99 186.23 80.89 190.75 C 78.78 190.33 76.68 189.89 74.57 189.45 C 74.41 184.93 74.00 180.41 74.19 175.89 Z" />
</g>
<g id="#ffb100ff">
<path fill="#ffb100" opacity="1.00" d=" M 127.48 38.28 C 129.98 37.83 132.49 37.41 135.00 37.04 C 135.10 43.03 134.90 49.02 134.90 55.01 C 132.35 55.24 129.80 55.46 127.24 55.68 C 127.19 49.88 127.32 44.08 127.48 38.28 Z" />
<path fill="#ffb100" opacity="1.00" d=" M 101.19 41.25 C 103.52 41.34 106.35 40.13 108.36 41.67 C 108.80 47.02 108.80 52.41 108.80 57.78 C 106.26 57.82 103.73 57.82 101.19 57.78 C 101.10 52.27 101.08 46.76 101.19 41.25 Z" />
<path fill="#ffb100" opacity="1.00" d=" M 172.65 52.56 C 174.78 52.40 176.91 52.28 179.04 52.17 C 179.16 56.95 178.81 61.71 178.52 66.48 C 176.11 68.53 173.67 70.56 171.04 72.32 C 170.49 66.80 171.39 61.25 170.69 55.74 C 169.47 60.98 170.38 66.40 169.99 71.72 C 167.38 72.14 164.75 72.33 162.11 72.25 C 162.34 66.22 161.53 59.97 163.28 54.11 C 165.82 53.00 168.98 52.87 171.22 54.72 C 171.69 54.00 172.17 53.28 172.65 52.56 Z" />
<path fill="#ffb100" opacity="1.00" d=" M 173.05 74.06 C 174.45 73.04 176.25 73.14 177.88 72.87 C 177.90 77.09 177.66 81.30 177.52 85.52 C 175.77 85.38 174.01 85.32 172.26 85.28 C 171.70 85.24 170.59 85.17 170.04 85.14 C 170.61 81.45 169.19 76.29 173.05 74.06 Z" />
<path fill="#ffb100" opacity="1.00" d=" M 94.13 95.92 C 96.34 95.87 98.56 95.86 100.78 95.91 C 100.90 99.34 101.09 102.77 101.30 106.20 C 100.29 107.71 99.25 109.21 98.21 110.71 C 96.98 109.89 95.76 109.06 94.52 108.28 C 94.10 104.17 94.00 100.04 94.13 95.92 Z" />
<path fill="#ffb100" opacity="1.00" d=" M 24.09 97.98 C 25.28 97.98 26.46 97.97 27.64 97.97 C 28.10 102.39 29.00 106.78 28.92 111.24 C 26.62 111.15 24.33 110.95 22.04 110.68 C 21.84 106.34 22.70 102.07 24.09 97.98 Z" />
<path fill="#ffb100" opacity="1.00" d=" M 20.94 140.71 C 22.09 140.94 23.23 141.24 24.35 141.60 C 25.12 145.00 25.48 148.50 25.68 151.97 C 25.90 153.44 24.32 153.62 23.36 154.12 C 22.36 149.69 21.44 145.23 20.94 140.71 Z" />
<path fill="#ffb100" opacity="1.00" d=" M 67.92 189.95 C 69.85 190.25 72.86 189.69 73.55 192.14 C 74.20 196.02 74.00 199.98 73.96 203.89 C 72.00 203.10 68.57 203.50 68.39 200.70 C 67.86 197.14 68.01 193.53 67.92 189.95 Z" />
</g>
<g id="#ffb003ff">
<path fill="#ffb003" opacity="1.00" d=" M 109.97 40.29 C 112.35 39.99 114.73 39.68 117.11 39.35 C 117.61 45.13 117.44 50.93 117.18 56.71 C 114.91 57.01 112.65 57.31 110.39 57.61 C 109.70 51.86 109.86 46.06 109.97 40.29 Z" />
<path fill="#ffb003" opacity="1.00" d=" M 66.24 46.23 C 68.77 45.79 71.30 45.41 73.84 45.15 C 73.95 48.40 73.94 51.65 73.84 54.90 C 71.67 56.20 69.41 57.36 67.08 58.36 C 66.78 54.32 66.57 50.27 66.24 46.23 Z" />
<path fill="#ffb003" opacity="1.00" d=" M 28.76 169.64 C 33.35 169.17 37.89 170.13 42.44 170.63 C 42.86 172.98 43.40 175.31 44.19 177.56 C 44.16 175.33 44.05 173.10 43.92 170.87 C 46.37 171.66 50.14 171.56 50.51 174.87 C 51.97 178.44 47.73 180.19 45.51 182.02 C 44.91 180.92 44.30 179.82 43.70 178.72 C 43.40 180.10 43.10 181.48 42.80 182.86 C 41.07 182.54 39.35 182.20 37.62 181.88 C 37.36 179.04 36.98 176.16 35.71 173.56 C 35.74 176.51 35.92 179.46 36.17 182.39 C 32.82 178.75 30.27 174.34 28.76 169.64 Z" />
<path fill="#ffb003" opacity="1.00" d=" M 135.30 173.17 C 140.02 173.23 144.73 173.12 149.43 172.78 C 154.62 173.16 159.83 173.20 165.03 173.19 C 175.06 173.14 185.09 173.71 195.12 173.18 L 195.08 174.03 C 192.31 174.04 189.55 174.08 186.79 174.36 C 189.83 175.19 192.99 175.43 196.10 175.89 C 196.98 181.90 191.76 186.10 188.22 190.18 C 188.10 188.02 187.91 185.87 187.53 183.74 C 187.29 186.75 187.19 189.77 187.08 192.80 C 184.91 192.83 182.74 192.93 180.59 193.14 C 182.00 193.73 183.51 194.04 185.00 194.39 C 182.65 199.01 178.80 202.60 176.13 207.03 C 175.15 208.90 173.19 209.72 171.32 210.44 C 170.53 211.56 170.13 213.07 168.92 213.81 C 149.61 223.82 127.23 228.56 105.58 225.41 C 104.28 222.16 105.00 218.54 104.87 215.13 L 104.05 215.14 C 104.11 218.45 104.09 221.76 104.00 225.08 C 102.01 224.77 99.81 225.01 98.05 223.89 C 97.59 221.27 97.62 218.60 97.47 215.95 C 97.14 218.56 96.96 221.18 96.89 223.81 C 94.88 223.42 92.87 223.05 90.85 222.68 C 90.70 218.31 95.26 216.49 97.53 213.43 C 100.92 208.85 105.46 205.32 109.01 200.87 C 110.64 198.55 113.82 199.31 116.24 198.86 C 115.05 198.24 113.84 197.65 112.65 197.04 C 116.77 192.78 120.51 188.09 125.15 184.38 C 126.73 186.10 129.08 184.91 131.05 185.31 C 133.50 185.78 135.95 186.36 138.46 186.08 C 137.38 185.56 136.29 185.05 135.20 184.56 C 135.04 183.98 134.71 182.83 134.55 182.25 C 133.73 182.92 132.91 183.59 132.09 184.26 C 130.37 184.05 128.65 183.84 126.94 183.63 C 127.59 178.79 132.88 176.98 135.30 173.17 Z" />
</g>
<g id="#fcad05ff">
<path fill="#fcad05" opacity="1.00" d=" M 58.81 45.01 C 60.72 43.22 62.77 41.59 64.92 40.08 C 64.93 41.69 64.92 43.31 64.92 44.92 C 62.88 44.97 60.84 45.01 58.81 45.01 Z" />
</g>
<g id="#ffb000ff">
<path fill="#ffb000" opacity="1.00" d=" M 83.19 43.93 C 85.89 43.21 88.68 43.07 91.46 43.26 C 89.58 45.81 86.64 47.15 84.07 48.85 C 83.77 47.21 83.48 45.57 83.19 43.93 Z" />
<path fill="#ffb000" opacity="1.00" d=" M 42.94 79.76 C 41.69 75.07 46.71 73.52 49.94 71.78 C 50.13 74.47 50.16 77.17 50.04 79.86 C 47.67 79.83 45.31 79.79 42.94 79.76 Z" />
<path fill="#ffb000" opacity="1.00" d=" M 188.28 72.29 C 190.60 72.22 192.92 72.15 195.25 72.09 C 195.39 78.70 195.08 85.38 193.97 91.91 C 191.77 91.83 189.57 91.76 187.38 91.67 C 186.85 85.19 188.24 78.77 188.28 72.29 Z" />
<path fill="#ffb000" opacity="1.00" d=" M 138.13 75.35 C 139.77 75.38 141.41 75.41 143.05 75.42 C 143.68 80.97 142.62 86.58 143.52 92.11 C 144.24 86.45 143.74 80.74 144.06 75.06 C 146.69 74.88 149.34 74.82 151.98 74.87 C 151.86 79.85 151.68 84.83 151.80 89.81 C 148.54 93.87 143.22 92.75 138.66 93.24 C 136.67 90.31 134.72 87.37 132.90 84.33 C 134.54 82.13 136.08 79.83 137.19 77.31 C 137.42 76.82 137.89 75.84 138.13 75.35 Z" />
<path fill="#ffb000" opacity="1.00" d=" M 102.41 81.31 C 104.30 79.50 106.69 78.35 108.93 77.05 C 109.26 81.32 109.23 85.61 109.32 89.89 C 109.60 89.65 110.16 89.17 110.44 88.93 C 110.15 84.99 109.06 80.80 110.86 77.05 L 111.69 78.32 C 112.97 80.38 114.37 82.37 115.78 84.36 C 113.70 87.73 111.45 90.99 109.24 94.29 C 106.89 94.15 104.53 94.01 102.18 93.86 C 102.22 89.68 101.75 85.46 102.41 81.31 Z" />
<path fill="#ffb000" opacity="1.00" d=" M 212.77 90.97 C 214.94 88.30 217.26 85.71 220.07 83.69 C 220.46 85.94 220.63 88.22 220.57 90.50 C 217.98 90.80 215.37 90.96 212.77 90.97 Z" />
<path fill="#ffb000" opacity="1.00" d=" M 185.80 94.30 C 187.48 92.02 191.37 93.41 193.96 93.03 C 193.78 98.19 194.52 103.65 192.69 108.57 C 191.24 110.36 188.59 114.16 186.11 111.90 C 185.61 107.83 186.28 103.69 185.84 99.60 C 185.83 97.83 185.81 96.07 185.80 94.30 Z" />
<path fill="#ffb000" opacity="1.00" d=" M 28.96 98.08 C 31.24 97.89 33.53 97.80 35.81 97.86 C 35.84 100.73 36.13 103.60 36.89 106.37 C 35.92 107.88 35.05 109.45 34.28 111.07 C 32.94 111.06 31.60 111.04 30.27 111.03 C 30.24 106.68 29.39 102.40 28.96 98.08 Z" />
<path fill="#ffb000" opacity="1.00" d=" M 27.41 155.14 C 29.50 155.32 31.60 155.54 33.68 155.86 C 33.91 159.83 34.40 163.79 34.94 167.74 C 33.03 167.70 31.11 167.68 29.20 167.71 C 27.59 163.72 27.83 159.35 27.41 155.14 Z" />
</g>
<g id="#ffb004ff">
<path fill="#ffb004" opacity="1.00" d=" M 75.07 45.07 C 77.31 44.58 79.58 44.20 81.85 43.87 C 82.14 45.54 82.44 47.21 82.73 48.88 C 80.38 50.76 77.93 52.59 75.00 53.44 C 74.94 50.65 74.99 47.86 75.07 45.07 Z" />
<path fill="#ffb004" opacity="1.00" d=" M 194.42 186.43 C 197.37 183.18 198.82 178.68 202.55 176.13 C 202.97 176.49 203.83 177.21 204.25 177.56 C 205.58 177.45 206.90 177.34 208.24 177.24 C 207.49 179.03 206.60 180.75 205.60 182.41 C 205.00 182.48 204.41 182.56 203.82 182.64 C 202.07 187.77 198.06 191.54 193.73 194.56 C 192.13 194.20 190.54 193.84 188.95 193.48 C 190.53 190.95 192.43 188.65 194.42 186.43 Z" />
</g>
<g id="#ffb200ff">
<path fill="#ffb200" opacity="1.00" d=" M 144.89 50.97 C 147.43 48.89 150.08 46.92 152.84 45.13 C 152.83 47.95 152.74 50.77 152.56 53.59 C 150.07 53.66 147.59 53.69 145.11 53.70 C 145.05 53.02 144.94 51.65 144.89 50.97 Z" />
</g>
<g id="#ffb102ff">
<path fill="#ffb102" opacity="1.00" d=" M 181.08 52.33 C 183.28 51.57 185.61 51.38 187.92 51.23 C 187.98 53.41 188.42 55.67 187.79 57.80 C 185.65 60.45 182.89 62.52 180.08 64.41 C 180.18 60.39 179.69 56.19 181.08 52.33 Z" />
<path fill="#ffb102" opacity="1.00" d=" M 75.34 57.26 C 77.35 54.93 79.97 53.31 82.77 52.09 C 82.91 54.70 82.98 57.31 83.01 59.93 C 80.51 60.34 77.79 61.22 75.42 59.86 C 73.04 61.15 70.33 61.46 67.67 61.60 C 69.49 59.10 72.41 57.88 75.34 57.26 Z" />
<path fill="#ffb102" opacity="1.00" d=" M 154.22 54.20 C 156.69 54.21 159.17 54.23 161.65 54.27 C 160.63 60.39 161.25 66.61 160.75 72.77 C 158.22 72.80 155.69 72.82 153.17 72.82 C 153.26 66.60 153.43 60.37 154.22 54.20 Z" />
<path fill="#ffb102" opacity="1.00" d=" M 93.77 87.77 C 95.75 85.67 98.30 84.24 100.76 82.76 C 100.98 86.57 101.01 90.39 100.95 94.21 C 98.44 94.45 95.92 94.34 93.50 93.63 C 93.54 91.68 93.33 89.69 93.77 87.77 Z" />
<path fill="#ffb102" opacity="1.00" d=" M 209.20 135.27 C 211.38 135.36 213.56 135.44 215.74 135.50 C 216.09 141.07 214.14 146.62 215.46 152.16 C 215.59 146.71 216.40 141.32 217.06 135.92 C 219.41 135.88 221.76 135.89 224.12 135.93 C 223.89 139.36 224.38 143.22 222.17 146.13 C 220.12 149.10 217.78 151.85 215.68 154.77 C 212.84 155.04 209.99 155.08 207.14 154.90 C 207.84 148.36 208.00 141.75 209.20 135.27 Z" />
<path fill="#ffb102" opacity="1.00" d=" M 52.98 186.86 C 54.78 187.04 56.64 186.99 58.36 187.62 C 59.36 191.63 59.24 195.82 59.76 199.91 C 57.67 199.67 55.40 199.69 53.64 198.36 C 52.73 194.60 53.04 190.69 52.98 186.86 Z" />
</g>
<g id="#fdae05ff">
<path fill="#fdae05" opacity="1.00" d=" M 189.29 51.09 C 191.57 50.91 193.87 50.80 196.17 50.81 C 194.20 52.80 192.05 54.61 189.77 56.25 C 189.51 54.54 189.34 52.82 189.29 51.09 Z" />
</g>
<g id="#ffad05ff">
<path fill="#ffad05" opacity="1.00" d=" M 119.09 57.93 C 121.29 57.73 123.48 57.53 125.68 57.37 C 126.19 57.70 126.71 58.03 127.23 58.37 C 128.75 57.53 130.44 57.10 132.17 56.94 C 130.64 58.42 129.04 59.82 127.42 61.20 C 124.56 61.08 121.68 61.32 118.89 61.97 C 118.96 60.62 119.03 59.28 119.09 57.93 Z" />
</g>
<g id="#d43f03ff">
<path fill="#d43f03" opacity="1.00" d=" M 118.89 61.97 C 121.68 61.32 124.56 61.08 127.42 61.20 C 127.93 61.40 128.95 61.80 129.45 62.00 C 133.44 63.92 136.35 67.48 137.27 71.83 C 137.40 73.65 137.35 75.49 137.19 77.31 C 136.08 79.83 134.54 82.13 132.90 84.33 C 134.72 87.37 136.67 90.31 138.66 93.24 C 140.12 95.44 141.53 97.67 143.04 99.85 C 142.38 100.27 141.08 101.12 140.42 101.55 C 136.84 96.36 133.50 91.01 129.89 85.84 C 129.37 85.09 128.85 84.35 128.34 83.60 C 131.09 81.49 133.55 78.86 134.42 75.40 C 134.13 72.79 133.84 69.98 132.03 67.92 C 128.75 63.55 121.66 62.93 117.71 66.73 C 114.82 69.13 114.06 73.12 114.48 76.69 C 115.54 79.56 117.83 81.62 120.13 83.50 C 119.85 83.96 119.58 84.42 119.30 84.88 C 112.59 94.96 105.86 105.02 99.10 115.07 C 95.99 112.84 92.79 110.74 89.62 108.60 C 90.21 108.14 91.38 107.22 91.97 106.76 C 92.83 107.24 93.68 107.75 94.52 108.28 C 95.76 109.06 96.98 109.89 98.21 110.71 C 99.25 109.21 100.29 107.71 101.30 106.20 C 101.84 105.40 102.36 104.59 102.90 103.79 C 104.48 101.47 106.07 99.15 107.60 96.79 C 108.14 95.96 108.69 95.12 109.24 94.29 C 111.45 90.99 113.70 87.73 115.78 84.36 C 114.37 82.37 112.97 80.38 111.69 78.32 C 111.34 76.37 111.24 74.39 111.23 72.42 C 112.02 68.29 114.57 64.75 118.04 62.43 L 118.89 61.97 Z" />
</g>
<g id="#fffefdff">
<path fill="#fffefd" opacity="1.00" d=" M 117.71 66.73 C 121.66 62.93 128.75 63.55 132.03 67.92 C 133.84 69.98 134.13 72.79 134.42 75.40 C 132.60 71.96 130.29 68.01 125.96 67.64 C 120.19 66.25 115.12 71.21 114.48 76.69 C 114.06 73.12 114.82 69.13 117.71 66.73 Z" />
</g>
<g id="#fce901ff">
<path fill="#fce901" opacity="1.00" d=" M 114.48 76.69 C 115.12 71.21 120.19 66.25 125.96 67.64 C 130.29 68.01 132.60 71.96 134.42 75.40 C 133.55 78.86 131.09 81.49 128.34 83.60 C 128.85 84.35 129.37 85.09 129.89 85.84 C 129.38 85.83 128.35 85.82 127.83 85.81 C 134.79 96.81 142.32 107.44 149.35 118.40 C 155.80 114.26 162.08 109.86 168.49 105.66 C 168.24 104.76 167.99 103.86 167.74 102.96 C 167.43 101.22 166.91 99.53 166.40 97.83 C 167.98 94.10 171.61 90.72 175.97 91.74 C 179.50 92.11 181.37 95.38 182.98 98.12 C 181.75 102.34 177.94 104.73 173.74 105.19 C 173.76 110.36 173.58 115.54 173.51 120.71 C 173.52 121.28 173.53 122.43 173.54 123.00 C 172.68 123.03 170.97 123.11 170.11 123.15 C 170.58 123.55 171.05 123.96 171.52 124.37 C 170.66 124.97 169.81 125.59 168.96 126.22 C 164.28 124.10 158.95 124.72 153.97 124.99 C 152.25 125.03 151.79 127.19 150.74 128.23 C 141.77 119.20 132.70 110.26 123.75 101.20 C 117.16 107.78 110.59 114.37 104.00 120.94 C 101.52 123.44 98.73 125.69 96.89 128.74 C 95.40 128.32 93.91 127.95 92.41 127.57 C 92.41 128.18 92.40 129.38 92.40 129.98 C 86.81 126.98 80.38 127.92 74.32 127.38 C 74.88 125.16 75.29 122.90 75.23 120.61 C 75.20 115.45 74.84 110.30 75.04 105.15 C 73.20 104.67 71.25 104.42 69.57 103.48 C 67.50 102.18 66.56 99.79 65.61 97.64 C 67.73 94.92 70.03 91.34 73.98 91.57 C 78.00 91.40 80.93 94.48 82.29 97.96 C 81.84 99.31 81.35 100.65 80.95 102.02 L 80.76 102.99 C 80.61 103.91 80.47 104.83 80.33 105.75 C 86.60 109.94 92.94 114.04 99.12 118.38 C 105.44 109.21 111.45 99.83 117.77 90.66 C 118.78 88.91 120.74 87.01 119.30 84.88 C 119.58 84.42 119.85 83.96 120.13 83.50 C 117.83 81.62 115.54 79.56 114.48 76.69 Z" />
</g>
<g id="#ffaf03ff">
<path fill="#ffaf03" opacity="1.00" d=" M 155.82 88.92 C 160.14 85.19 164.21 81.17 168.84 77.81 C 168.93 80.71 169.02 83.60 169.11 86.50 C 166.73 88.15 164.87 90.43 163.52 92.98 C 159.92 92.38 156.26 92.67 152.64 92.78 C 153.52 91.35 154.53 90.00 155.82 88.92 Z" />
<path fill="#ffaf03" opacity="1.00" d=" M 207.27 156.38 C 209.38 156.46 211.49 156.57 213.59 156.78 C 211.59 160.51 209.06 163.94 206.17 167.03 C 206.06 163.44 206.52 159.88 207.27 156.38 Z" />
</g>
<g id="#e88c1aff">
<path fill="#e88c1a" opacity="1.00" d=" M 240.23 77.54 C 245.79 89.99 248.29 103.49 250.00 116.93 L 250.00 135.20 C 248.71 141.81 248.19 148.56 246.45 155.08 C 239.49 184.33 221.33 210.65 196.63 227.75 C 183.09 237.16 167.67 243.90 151.53 247.30 C 146.05 248.47 140.47 249.03 134.96 250.00 L 116.58 250.00 C 105.02 248.39 93.29 246.69 82.46 242.12 C 89.41 243.35 96.05 245.91 103.05 246.90 C 132.82 252.23 164.45 246.09 190.07 230.04 C 213.68 215.39 232.18 192.63 241.46 166.42 C 249.61 143.67 251.00 118.51 245.16 95.04 C 244.00 89.07 241.36 83.52 240.23 77.54 Z" />
<path fill="#e88c1a" opacity="1.00" d=" M 196.42 146.19 C 197.02 147.96 197.63 149.72 198.18 151.51 C 197.42 157.72 195.76 163.80 195.49 170.08 C 190.01 170.37 184.52 170.13 179.03 169.95 C 164.71 169.70 150.39 169.92 136.07 169.80 C 108.43 169.53 80.78 169.88 53.14 170.18 C 52.72 165.11 51.84 160.11 50.90 155.12 C 70.37 157.69 90.24 158.05 109.68 154.98 C 114.35 159.59 119.02 164.19 123.50 168.99 C 131.25 162.00 138.29 154.23 145.78 146.96 C 147.11 148.22 148.44 149.48 149.77 150.75 C 150.32 150.07 150.87 149.40 151.42 148.73 C 160.01 149.19 168.68 149.57 177.23 148.43 C 182.42 147.89 187.83 147.44 192.85 149.21 C 193.16 148.41 193.47 147.62 193.79 146.83 C 194.21 147.31 195.06 148.26 195.48 148.74 C 195.79 147.89 196.10 147.04 196.42 146.19 Z" />
</g>
<g id="#d44e01ff">
<path fill="#d44e01" opacity="1.00" d=" M 69.96 85.99 C 74.96 83.84 80.69 86.15 83.85 90.31 C 85.83 93.66 85.57 97.69 84.70 101.33 C 84.94 101.51 85.44 101.88 85.68 102.06 C 87.81 103.65 90.02 105.11 92.28 106.51 L 91.97 106.76 C 91.38 107.22 90.21 108.14 89.62 108.60 C 86.74 106.61 83.81 104.69 80.76 102.99 L 80.95 102.02 C 81.35 100.65 81.84 99.31 82.29 97.96 C 82.68 94.93 81.55 91.71 78.99 89.93 C 75.57 87.25 70.18 88.10 67.61 91.55 C 66.21 93.26 65.96 95.54 65.61 97.64 C 66.56 99.79 67.50 102.18 69.57 103.48 C 71.25 104.42 73.20 104.67 75.04 105.15 C 74.84 110.30 75.20 115.45 75.23 120.61 C 74.97 121.45 74.44 123.13 74.18 123.96 C 65.77 122.97 57.64 120.60 49.57 118.15 C 49.78 116.91 50.05 115.69 50.31 114.46 C 51.44 109.86 46.57 105.33 42.07 106.91 C 38.61 107.91 37.09 111.55 37.20 114.89 C 38.57 117.95 41.53 119.44 44.62 120.23 C 46.15 128.44 47.55 136.67 49.16 144.87 C 49.70 148.29 50.28 151.71 50.90 155.12 C 51.84 160.11 52.72 165.11 53.14 170.18 C 80.78 169.88 108.43 169.53 136.07 169.80 C 135.37 170.52 134.68 171.23 133.99 171.95 C 139.14 172.11 144.31 172.05 149.43 172.78 C 144.73 173.12 140.02 173.23 135.30 173.17 C 134.56 173.16 133.09 173.15 132.35 173.15 C 130.51 173.13 128.67 173.11 126.84 173.11 L 125.94 173.11 C 118.61 173.17 111.29 173.14 103.96 173.14 L 102.98 173.14 C 86.52 173.01 70.06 173.61 53.62 173.23 C 51.99 173.02 49.78 172.55 49.97 170.42 C 49.66 166.03 49.07 161.67 48.17 157.36 L 47.94 156.11 C 47.13 151.43 46.33 146.74 45.44 142.06 L 45.28 141.15 C 44.51 136.72 43.79 132.28 43.03 127.86 C 42.72 126.07 42.33 124.30 41.91 122.54 C 41.29 122.40 40.06 122.12 39.44 121.99 C 36.39 119.61 34.14 116.24 34.15 112.25 L 34.28 111.07 C 35.05 109.45 35.92 107.88 36.89 106.37 C 37.19 106.13 37.78 105.66 38.08 105.42 C 39.32 104.82 40.59 104.28 41.86 103.75 C 43.28 103.57 44.71 103.51 46.15 103.59 C 48.58 104.69 50.83 106.22 52.48 108.35 C 53.57 110.67 53.63 113.26 53.42 115.76 C 53.65 115.85 54.11 116.02 54.33 116.11 C 60.02 118.41 66.08 119.53 72.11 120.47 C 71.96 116.33 71.86 112.19 71.82 108.05 C 70.43 107.38 69.04 106.72 67.69 105.99 C 67.33 105.77 66.62 105.34 66.26 105.13 C 64.31 102.73 63.25 99.80 62.59 96.82 C 62.56 96.27 62.52 95.18 62.50 94.63 C 64.10 91.14 66.03 87.27 69.96 85.99 Z" />
</g>
<g id="#d32b01ff">
<path fill="#d32b01" opacity="1.00" d=" M 172.26 85.28 C 174.01 85.32 175.77 85.38 177.52 85.52 C 177.86 85.61 178.54 85.80 178.88 85.90 C 181.64 87.37 183.83 89.67 185.39 92.37 C 185.49 92.85 185.69 93.82 185.80 94.30 C 185.81 96.07 185.83 97.83 185.84 99.60 C 185.41 100.60 184.96 101.60 184.38 102.52 C 182.50 105.13 179.68 106.72 176.88 108.13 C 176.84 109.46 176.81 110.80 176.78 112.14 C 176.77 112.55 176.76 113.38 176.75 113.80 C 176.70 116.05 176.67 118.29 176.63 120.54 C 179.14 120.07 181.64 119.59 184.14 119.03 C 187.85 118.23 191.52 117.26 195.14 116.09 C 194.39 110.41 197.70 104.47 203.57 103.40 C 208.40 103.10 212.86 106.16 214.29 110.78 C 214.44 112.30 214.48 113.82 214.41 115.34 C 213.27 117.61 211.92 119.82 209.96 121.48 C 208.92 121.85 207.87 122.18 206.81 122.47 C 205.95 126.29 205.30 130.16 204.63 134.02 L 204.48 134.82 C 203.43 140.48 202.36 146.15 201.48 151.84 C 201.25 153.26 200.96 154.66 200.70 156.07 C 199.64 161.17 198.91 166.34 198.49 171.53 C 198.30 171.93 197.92 172.73 197.73 173.13 C 197.08 173.14 195.77 173.17 195.12 173.18 C 185.09 173.71 175.06 173.14 165.03 173.19 C 159.83 173.20 154.62 173.16 149.43 172.78 C 144.31 172.05 139.14 172.11 133.99 171.95 C 134.68 171.23 135.37 170.52 136.07 169.80 C 150.39 169.92 164.71 169.70 179.03 169.95 C 184.52 170.13 190.01 170.37 195.49 170.08 C 195.76 163.80 197.42 157.72 198.18 151.51 C 199.16 146.23 200.26 140.97 201.15 135.67 C 201.79 132.00 202.47 128.34 203.01 124.66 C 203.28 123.12 203.60 121.60 203.92 120.07 C 207.26 119.49 210.21 117.67 211.53 114.44 C 211.28 111.43 210.17 107.94 206.93 107.02 C 202.54 105.29 197.61 109.43 198.33 114.03 C 198.55 115.05 198.77 116.07 199.00 117.09 L 199.21 118.16 C 191.15 120.55 183.05 122.83 174.71 124.02 C 174.30 122.92 173.90 121.81 173.51 120.71 C 173.58 115.54 173.76 110.36 173.74 105.19 C 177.94 104.73 181.75 102.34 182.98 98.12 C 183.19 93.74 180.54 88.99 175.87 88.42 C 170.54 87.35 165.47 92.54 166.40 97.83 C 166.91 99.53 167.43 101.22 167.74 102.96 C 161.51 106.79 155.58 111.08 149.43 115.03 C 146.42 110.54 143.44 106.03 140.42 101.55 C 141.08 101.12 142.38 100.27 143.04 99.85 C 143.23 100.17 143.63 100.80 143.83 101.12 C 145.87 104.45 148.17 107.62 150.45 110.80 C 154.87 107.69 159.37 104.71 163.86 101.72 C 163.55 99.06 163.30 96.39 163.30 93.71 L 163.52 92.98 C 164.87 90.43 166.73 88.15 169.11 86.50 C 170.12 86.00 171.17 85.60 172.26 85.28 Z" />
<path fill="#d32b01" opacity="1.00" d=" M 76.97 239.96 C 78.93 238.90 81.30 239.82 81.97 241.95 C 80.14 241.76 78.40 241.12 76.97 239.96 Z" />
</g>
<g id="#fbfef7ff">
<path fill="#fbfef7" opacity="1.00" d=" M 99.10 115.07 C 105.86 105.02 112.59 94.96 119.30 84.88 C 120.74 87.01 118.78 88.91 117.77 90.66 C 111.45 99.83 105.44 109.21 99.12 118.38 C 92.94 114.04 86.60 109.94 80.33 105.75 C 80.47 104.83 80.61 103.91 80.76 102.99 C 83.81 104.69 86.74 106.61 89.62 108.60 C 92.79 110.74 95.99 112.84 99.10 115.07 Z" />
</g>
<g id="#f4f8fbff">
<path fill="#f4f8fb" opacity="1.00" d=" M 127.83 85.81 C 128.35 85.82 129.38 85.83 129.89 85.84 C 133.50 91.01 136.84 96.36 140.42 101.55 C 143.44 106.03 146.42 110.54 149.43 115.03 C 155.58 111.08 161.51 106.79 167.74 102.96 C 167.99 103.86 168.24 104.76 168.49 105.66 C 162.08 109.86 155.80 114.26 149.35 118.40 C 142.32 107.44 134.79 96.81 127.83 85.81 Z" />
</g>
<g id="#f8fffeff">
<path fill="#f8fffe" opacity="1.00" d=" M 67.61 91.55 C 70.18 88.10 75.57 87.25 78.99 89.93 C 81.55 91.71 82.68 94.93 82.29 97.96 C 80.93 94.48 78.00 91.40 73.98 91.57 C 70.03 91.34 67.73 94.92 65.61 97.64 C 65.96 95.54 66.21 93.26 67.61 91.55 Z" />
</g>
<g id="#fffbffff">
<path fill="#fffbff" opacity="1.00" d=" M 166.40 97.83 C 165.47 92.54 170.54 87.35 175.87 88.42 C 180.54 88.99 183.19 93.74 182.98 98.12 C 181.37 95.38 179.50 92.11 175.97 91.74 C 171.61 90.72 167.98 94.10 166.40 97.83 Z" />
</g>
<g id="#feb007ff">
<path fill="#feb007" opacity="1.00" d=" M 85.64 93.99 C 87.26 91.67 89.82 90.34 92.16 88.89 C 92.15 90.85 92.11 92.81 92.05 94.76 C 89.93 94.57 87.57 95.06 85.64 93.99 Z" />
</g>
<g id="#ffb204ff">
<path fill="#ffb204" opacity="1.00" d=" M 102.19 95.82 C 104.11 95.20 105.96 95.70 107.60 96.79 C 106.07 99.15 104.48 101.47 102.90 103.79 C 101.85 101.25 102.12 98.49 102.19 95.82 Z" />
</g>
<g id="#fcac04ff">
<path fill="#fcac04" opacity="1.00" d=" M 61.32 97.17 C 61.64 97.09 62.27 96.91 62.59 96.82 C 63.25 99.80 64.31 102.73 66.26 105.13 C 64.90 105.89 63.52 106.63 62.13 107.34 C 61.85 103.95 61.34 100.58 61.32 97.17 Z" />
</g>
<g id="#b22915ff">
<path fill="#b22915" opacity="1.00" d=" M 104.00 120.94 C 110.59 114.37 117.16 107.78 123.75 101.20 C 132.70 110.26 141.77 119.20 150.74 128.23 C 153.04 130.55 155.36 132.84 157.67 135.14 C 154.56 138.28 151.44 141.40 148.32 144.52 C 147.47 145.33 146.62 146.13 145.78 146.96 C 138.29 154.23 131.25 162.00 123.50 168.99 C 119.02 164.19 114.35 159.59 109.68 154.98 C 106.23 151.57 103.00 147.94 99.23 144.88 C 99.45 144.34 99.89 143.27 100.11 142.73 C 100.73 143.26 101.97 144.31 102.59 144.83 C 102.72 145.02 102.97 145.39 103.10 145.58 C 103.83 146.61 104.72 147.51 105.61 148.40 C 108.67 151.19 111.55 154.18 114.51 157.08 C 117.16 159.64 119.78 162.22 122.27 164.92 C 122.83 165.54 123.39 166.16 123.95 166.79 C 124.55 166.12 125.15 165.45 125.75 164.78 C 130.50 159.54 135.87 154.90 140.43 149.49 C 144.45 145.81 148.11 141.76 152.18 138.14 C 153.22 137.18 154.31 136.25 155.32 135.25 C 155.18 135.09 154.91 134.77 154.77 134.61 C 151.81 131.39 148.66 128.34 145.44 125.38 C 138.42 117.96 131.05 110.88 123.94 103.54 C 119.49 107.87 115.12 112.26 110.76 116.67 C 106.40 121.16 101.82 125.43 97.55 130.01 L 97.10 130.11 C 97.04 129.77 96.94 129.08 96.89 128.74 C 98.73 125.69 101.52 123.44 104.00 120.94 Z" />
</g>
<g id="#fdaf00ff">
<path fill="#fdaf00" opacity="1.00" d=" M 184.38 102.52 C 185.28 105.69 184.74 108.97 184.19 112.15 C 181.72 112.22 179.25 112.22 176.78 112.14 C 176.81 110.80 176.84 109.46 176.88 108.13 C 179.68 106.72 182.50 105.13 184.38 102.52 Z" />
</g>
<g id="#8b24e7ff">
<path fill="#8b24e7" opacity="1.00" d=" M 110.76 116.67 C 115.12 112.26 119.49 107.87 123.94 103.54 C 131.05 110.88 138.42 117.96 145.44 125.38 L 143.66 124.80 C 137.20 118.91 131.13 112.61 124.66 106.73 C 124.71 109.56 124.80 112.39 124.82 115.22 C 123.78 112.21 123.76 108.99 123.43 105.85 C 122.83 109.59 124.37 114.33 121.20 117.17 C 115.37 123.06 109.38 128.79 103.58 134.71 C 103.44 134.33 103.16 133.58 103.02 133.20 C 106.53 129.49 110.25 125.98 113.70 122.21 C 113.14 121.15 112.58 120.10 112.03 119.04 C 112.45 118.65 113.31 117.88 113.74 117.49 C 112.75 117.21 111.75 116.94 110.76 116.67 Z" />
</g>
<g id="#fcae05ff">
<path fill="#fcae05" opacity="1.00" d=" M 67.69 105.99 C 69.04 106.72 70.43 107.38 71.82 108.05 C 71.86 112.19 71.96 116.33 72.11 120.47 C 66.08 119.53 60.02 118.41 54.33 116.11 C 56.48 113.70 59.43 112.47 62.66 112.94 C 61.05 109.30 65.73 108.14 67.69 105.99 Z" />
</g>
<g id="#fdfefbff">
<path fill="#fdfefb" opacity="1.00" d=" M 123.43 105.85 C 123.76 108.99 123.78 112.21 124.82 115.22 C 130.06 120.49 135.02 126.01 140.20 131.32 L 140.91 132.16 C 138.42 129.94 135.87 127.78 133.51 125.42 C 132.11 124.07 130.72 122.71 129.33 121.36 C 128.66 120.70 128.00 120.05 127.34 119.39 C 126.19 118.25 125.04 117.11 123.89 115.96 C 119.17 120.81 114.24 125.45 109.54 130.32 C 107.98 131.93 106.48 133.60 105.04 135.32 C 105.24 135.78 105.66 136.70 105.87 137.16 C 106.25 137.29 107.01 137.54 107.39 137.66 C 108.21 138.82 109.06 139.95 109.95 141.05 C 112.37 143.66 115.07 146.03 117.07 148.99 C 112.68 146.05 109.70 141.33 105.02 138.86 C 104.79 140.28 105.81 141.42 106.42 142.60 C 107.20 143.88 107.99 145.15 108.79 146.42 L 108.41 146.66 C 106.91 144.57 105.23 142.62 103.41 140.81 C 103.26 142.40 103.16 143.99 103.10 145.58 C 102.97 145.39 102.72 145.02 102.59 144.83 C 102.02 141.74 100.09 139.28 97.28 137.92 C 98.62 137.27 99.95 136.60 101.27 135.90 C 98.85 135.52 96.41 135.58 93.98 135.75 C 93.58 135.58 92.79 135.24 92.40 135.08 L 94.49 134.50 C 95.59 134.60 96.65 134.46 97.66 134.06 C 97.58 132.87 97.29 131.72 96.81 130.62 L 97.10 130.11 L 97.55 130.01 C 98.83 131.70 99.96 133.51 101.16 135.27 C 101.51 134.43 102.20 132.77 102.55 131.94 C 102.67 132.25 102.90 132.89 103.02 133.20 C 103.16 133.58 103.44 134.33 103.58 134.71 C 109.38 128.79 115.37 123.06 121.20 117.17 C 124.37 114.33 122.83 109.59 123.43 105.85 Z" />
</g>
<g id="#fffcf9ff">
<path fill="#fffcf9" opacity="1.00" d=" M 37.20 114.89 C 37.09 111.55 38.61 107.91 42.07 106.91 C 46.57 105.33 51.44 109.86 50.31 114.46 C 48.84 112.23 47.00 109.67 43.97 109.88 C 40.70 109.65 38.80 112.52 37.20 114.89 Z" />
</g>
<g id="#ed2ef9ff">
<path fill="#ed2ef9" opacity="1.00" d=" M 124.66 106.73 C 131.13 112.61 137.20 118.91 143.66 124.80 C 146.19 127.92 148.70 131.06 151.14 134.26 C 147.27 134.33 143.54 133.23 140.20 131.32 C 135.02 126.01 130.06 120.49 124.82 115.22 C 124.80 112.39 124.71 109.56 124.66 106.73 Z" />
</g>
<g id="#f9feffff">
<path fill="#f9feff" opacity="1.00" d=" M 198.33 114.03 C 197.61 109.43 202.54 105.29 206.93 107.02 C 210.17 107.94 211.28 111.43 211.53 114.44 C 209.71 112.47 207.98 109.76 204.94 109.84 C 201.98 109.61 200.10 112.09 198.33 114.03 Z" />
</g>
<g id="#f9df09ff">
<path fill="#f9df09" opacity="1.00" d=" M 37.20 114.89 C 38.80 112.52 40.70 109.65 43.97 109.88 C 47.00 109.67 48.84 112.23 50.31 114.46 C 50.05 115.69 49.78 116.91 49.57 118.15 C 49.38 119.14 49.19 120.13 48.99 121.12 C 57.23 123.94 65.71 126.06 74.32 127.38 C 80.38 127.92 86.81 126.98 92.40 129.98 C 92.40 129.38 92.41 128.18 92.41 127.57 C 93.91 127.95 95.40 128.32 96.89 128.74 C 96.94 129.08 97.04 129.77 97.10 130.11 L 96.81 130.62 L 96.41 130.83 C 96.32 130.54 96.14 129.97 96.05 129.68 C 93.79 131.14 91.83 132.98 89.80 134.73 C 84.18 137.10 77.94 135.80 72.03 136.11 C 66.28 136.49 60.12 134.91 54.75 137.62 C 54.01 136.99 53.28 136.36 52.55 135.73 C 51.41 138.78 50.98 142.12 49.16 144.87 C 47.55 136.67 46.15 128.44 44.62 120.23 C 41.53 119.44 38.57 117.95 37.20 114.89 Z" />
</g>
<g id="#f6c701ff">
<path fill="#f6c701" opacity="1.00" d=" M 198.33 114.03 C 200.10 112.09 201.98 109.61 204.94 109.84 C 207.98 109.76 209.71 112.47 211.53 114.44 C 210.21 117.67 207.26 119.49 203.92 120.07 C 203.60 121.60 203.28 123.12 203.01 124.66 C 202.66 123.27 202.27 121.91 201.88 120.54 C 201.34 120.71 200.79 120.88 200.24 121.04 L 199.72 121.20 C 199.56 120.18 199.39 119.17 199.21 118.16 L 199.00 117.09 C 198.77 116.07 198.55 115.05 198.33 114.03 Z" />
</g>
<g id="#fdae06ff">
<path fill="#fdae06" opacity="1.00" d=" M 20.23 125.84 C 19.41 121.55 19.44 116.67 21.69 112.78 C 22.05 116.92 22.02 121.11 22.88 125.19 C 21.99 125.40 21.11 125.61 20.23 125.84 Z" />
</g>
<g id="#fdb100ff">
<path fill="#fdb100" opacity="1.00" d=" M 176.75 113.80 C 179.17 113.75 181.59 113.74 184.01 113.78 C 184.05 115.53 184.10 117.28 184.14 119.03 C 181.64 119.59 179.14 120.07 176.63 120.54 C 176.67 118.29 176.70 116.05 176.75 113.80 Z" />
</g>
<g id="#9e27f8ff">
<path fill="#9e27f8" opacity="1.00" d=" M 97.55 130.01 C 101.82 125.43 106.40 121.16 110.76 116.67 C 111.75 116.94 112.75 117.21 113.74 117.49 C 113.31 117.88 112.45 118.65 112.03 119.04 C 112.58 120.10 113.14 121.15 113.70 122.21 C 110.25 125.98 106.53 129.49 103.02 133.20 C 102.90 132.89 102.67 132.25 102.55 131.94 C 102.20 132.77 101.51 134.43 101.16 135.27 C 99.96 133.51 98.83 131.70 97.55 130.01 Z" />
</g>
<g id="#ba26e6ff">
<path fill="#ba26e6" opacity="1.00" d=" M 109.54 130.32 C 114.24 125.45 119.17 120.81 123.89 115.96 C 125.04 117.11 126.19 118.25 127.34 119.39 C 123.83 124.96 120.26 130.49 117.12 136.28 C 114.88 138.09 112.45 139.64 109.95 141.05 C 109.06 139.95 108.21 138.82 107.39 137.66 L 108.56 138.04 C 108.12 137.47 107.68 136.91 107.25 136.34 C 108.29 134.45 109.23 132.47 109.54 130.32 Z" />
</g>
<g id="#fffffbff">
<path fill="#fffffb" opacity="1.00" d=" M 49.57 118.15 C 57.64 120.60 65.77 122.97 74.18 123.96 C 74.44 123.13 74.97 121.45 75.23 120.61 C 75.29 122.90 74.88 125.16 74.32 127.38 C 65.71 126.06 57.23 123.94 48.99 121.12 C 49.19 120.13 49.38 119.14 49.57 118.15 Z" />
</g>
<g id="#fefeffff">
<path fill="#fefeff" opacity="1.00" d=" M 174.71 124.02 C 183.05 122.83 191.15 120.55 199.21 118.16 C 199.39 119.17 199.56 120.18 199.72 121.20 C 192.73 123.27 185.73 125.35 178.56 126.67 C 177.10 126.79 175.64 126.89 174.18 126.97 C 173.95 125.65 173.70 124.33 173.54 123.00 C 173.53 122.43 173.52 121.28 173.51 120.71 C 173.90 121.81 174.30 122.92 174.71 124.02 Z" />
</g>
<g id="#8817c4ff">
<path fill="#8817c4" opacity="1.00" d=" M 127.34 119.39 C 128.00 120.05 128.66 120.70 129.33 121.36 C 127.72 125.56 126.83 129.96 125.76 134.32 C 125.62 134.79 125.35 135.74 125.21 136.21 C 125.13 135.43 124.95 133.87 124.87 133.08 C 122.26 134.08 119.63 135.05 117.12 136.28 C 120.26 130.49 123.83 124.96 127.34 119.39 Z" />
</g>
<g id="#f1b10aff">
<path fill="#f1b10a" opacity="1.00" d=" M 200.24 121.04 C 200.79 120.88 201.34 120.71 201.88 120.54 C 202.27 121.91 202.66 123.27 203.01 124.66 C 202.47 128.34 201.79 132.00 201.15 135.67 C 197.29 132.56 192.43 135.03 188.02 134.84 C 184.68 134.72 181.33 134.86 178.05 135.58 C 177.44 135.25 176.85 134.92 176.25 134.58 C 175.70 135.10 175.15 135.62 174.60 136.15 C 174.55 135.67 174.46 134.72 174.41 134.25 C 172.12 134.80 169.82 135.30 167.54 135.90 C 171.53 133.24 175.59 130.51 178.56 126.67 C 185.73 125.35 192.73 123.27 199.72 121.20 L 200.24 121.04 Z" />
</g>
<g id="#c221e0ff">
<path fill="#c221e0" opacity="1.00" d=" M 129.33 121.36 C 130.72 122.71 132.11 124.07 133.51 125.42 C 133.39 127.66 133.27 129.89 133.13 132.13 C 130.69 132.91 128.23 133.65 125.76 134.32 C 126.83 129.96 127.72 125.56 129.33 121.36 Z" />
</g>
<g id="#f9dc0eff">
<path fill="#f9dc0e" opacity="1.00" d=" M 170.11 123.15 C 170.97 123.11 172.68 123.03 173.54 123.00 C 173.70 124.33 173.95 125.65 174.18 126.97 C 175.64 126.89 177.10 126.79 178.56 126.67 C 175.59 130.51 171.53 133.24 167.54 135.90 C 161.22 138.91 155.42 143.54 148.32 144.52 C 151.44 141.40 154.56 138.28 157.67 135.14 C 155.36 132.84 153.04 130.55 150.74 128.23 C 151.79 127.19 152.25 125.03 153.97 124.99 C 158.95 124.72 164.28 124.10 168.96 126.22 C 169.81 125.59 170.66 124.97 171.52 124.37 C 171.05 123.96 170.58 123.55 170.11 123.15 Z" />
</g>
<g id="#ffb806ff">
<path fill="#ffb806" opacity="1.00" d=" M 204.63 134.02 C 205.30 130.16 205.95 126.29 206.81 122.47 C 207.24 122.68 208.10 123.09 208.53 123.30 C 208.62 126.53 207.96 129.72 207.71 132.93 C 206.68 133.29 205.66 133.66 204.63 134.02 Z" />
</g>
<g id="#bf1bd2ff">
<path fill="#bf1bd2" opacity="1.00" d=" M 143.66 124.80 L 145.44 125.38 C 148.66 128.34 151.81 131.39 154.77 134.61 C 150.97 135.07 147.15 135.24 143.32 135.18 C 142.53 134.16 141.75 133.13 140.91 132.16 L 140.20 131.32 C 143.54 133.23 147.27 134.33 151.14 134.26 C 148.70 131.06 146.19 127.92 143.66 124.80 Z" />
</g>
<g id="#8412a6ff">
<path fill="#8412a6" opacity="1.00" d=" M 133.51 125.42 C 135.87 127.78 138.42 129.94 140.91 132.16 C 141.75 133.13 142.53 134.16 143.32 135.18 C 140.09 138.73 136.76 142.18 133.26 145.47 C 132.84 141.04 132.80 136.57 133.13 132.13 C 133.27 129.89 133.39 127.66 133.51 125.42 Z" />
</g>
<g id="#ffae03ff">
<path fill="#ffae03" opacity="1.00" d=" M 19.70 128.93 C 19.21 127.05 21.64 127.31 22.71 126.87 C 23.23 129.86 23.64 132.86 23.89 135.88 C 22.62 136.29 21.38 136.78 20.11 137.18 C 19.94 134.43 19.66 131.68 19.70 128.93 Z" />
</g>
<g id="#ffb104ff">
<path fill="#ffb104" opacity="1.00" d=" M 24.11 127.21 C 26.77 127.40 30.92 126.17 31.51 129.88 C 29.44 131.30 27.35 132.71 25.24 134.06 C 24.77 131.79 24.37 129.51 24.11 127.21 Z" />
</g>
<g id="#ffb103ff">
<path fill="#ffb103" opacity="1.00" d=" M 40.03 127.99 C 40.78 127.95 42.28 127.89 43.03 127.86 C 43.79 132.28 44.51 136.72 45.28 141.15 C 43.95 141.09 42.62 141.04 41.29 140.98 C 40.50 136.70 39.91 132.36 40.03 127.99 Z" />
<path fill="#ffb103" opacity="1.00" d=" M 204.48 134.82 C 205.27 134.93 206.86 135.15 207.65 135.27 C 206.92 141.72 206.69 148.22 205.77 154.66 C 204.44 154.70 203.11 154.74 201.77 154.79 C 201.70 154.05 201.55 152.58 201.48 151.84 C 202.36 146.15 203.43 140.48 204.48 134.82 Z" />
<path fill="#ffb103" opacity="1.00" d=" M 82.05 177.32 C 83.98 177.64 85.90 177.96 87.83 178.28 C 88.08 182.90 88.08 187.53 88.05 192.16 C 86.12 191.81 84.01 191.89 82.29 190.81 C 81.65 186.35 81.88 181.81 82.05 177.32 Z" />
</g>
<g id="#b13418ff">
<path fill="#b13418" opacity="1.00" d=" M 89.80 134.73 C 91.83 132.98 93.79 131.14 96.05 129.68 C 96.14 129.97 96.32 130.54 96.41 130.83 C 95.82 132.08 95.05 133.23 94.49 134.50 L 92.40 135.08 C 92.79 135.24 93.58 135.58 93.98 135.75 C 95.28 138.26 97.22 140.36 99.40 142.14 C 99.05 142.38 98.33 142.86 97.98 143.09 C 95.05 140.51 92.31 137.72 89.80 134.73 Z" />
</g>
<g id="#961bebff">
<path fill="#961beb" opacity="1.00" d=" M 96.41 130.83 L 96.81 130.62 C 97.29 131.72 97.58 132.87 97.66 134.06 C 96.65 134.46 95.59 134.60 94.49 134.50 C 95.05 133.23 95.82 132.08 96.41 130.83 Z" />
</g>
<g id="#7312a9ff">
<path fill="#7312a9" opacity="1.00" d=" M 109.54 130.32 C 109.23 132.47 108.29 134.45 107.25 136.34 C 107.68 136.91 108.12 137.47 108.56 138.04 L 107.39 137.66 C 107.01 137.54 106.25 137.29 105.87 137.16 C 105.66 136.70 105.24 135.78 105.04 135.32 C 106.48 133.60 107.98 131.93 109.54 130.32 Z" />
<path fill="#7312a9" opacity="1.00" d=" M 117.12 136.28 C 119.63 135.05 122.26 134.08 124.87 133.08 C 124.95 133.87 125.13 135.43 125.21 136.21 C 123.40 141.56 122.70 147.18 121.09 152.57 C 121.02 150.94 119.47 149.69 117.87 150.10 C 117.67 149.82 117.27 149.27 117.07 148.99 C 115.07 146.03 112.37 143.66 109.95 141.05 C 112.45 139.64 114.88 138.09 117.12 136.28 Z" />
</g>
<g id="#b618cfff">
<path fill="#b618cf" opacity="1.00" d=" M 125.76 134.32 C 128.23 133.65 130.69 132.91 133.13 132.13 C 132.80 136.57 132.84 141.04 133.26 145.47 C 130.13 148.69 127.07 151.98 123.84 155.09 C 122.86 154.46 121.88 153.84 120.89 153.23 L 121.09 152.57 C 122.70 147.18 123.40 141.56 125.21 136.21 C 125.35 135.74 125.62 134.79 125.76 134.32 Z" />
</g>
<g id="#f7d41aff">
<path fill="#f7d41a" opacity="1.00" d=" M 72.03 136.11 C 77.94 135.80 84.18 137.10 89.80 134.73 C 92.31 137.72 95.05 140.51 97.98 143.09 C 97.70 143.64 96.28 145.89 97.77 145.67 C 98.13 145.47 98.87 145.08 99.23 144.88 C 103.00 147.94 106.23 151.57 109.68 154.98 C 90.24 158.05 70.37 157.69 50.90 155.12 C 50.28 151.71 49.70 148.29 49.16 144.87 C 50.98 142.12 51.41 138.78 52.55 135.73 C 53.28 136.36 54.01 136.99 54.75 137.62 C 60.12 134.91 66.28 136.49 72.03 136.11 Z" />
</g>
<g id="#641072ff">
<path fill="#641072" opacity="1.00" d=" M 154.77 134.61 C 154.91 134.77 155.18 135.09 155.32 135.25 C 154.31 136.25 153.22 137.18 152.18 138.14 C 152.20 137.66 152.23 136.70 152.25 136.22 C 148.81 136.70 144.61 136.19 142.11 139.08 C 137.18 144.17 132.34 149.36 127.26 154.31 C 124.25 156.88 123.72 161.45 125.75 164.78 C 125.15 165.45 124.55 166.12 123.95 166.79 C 123.39 166.16 122.83 165.54 122.27 164.92 C 122.89 160.56 122.26 155.66 118.63 152.72 C 114.70 149.19 111.39 144.74 106.42 142.60 C 105.81 141.42 104.79 140.28 105.02 138.86 C 109.70 141.33 112.68 146.05 117.07 148.99 C 117.27 149.27 117.67 149.82 117.87 150.10 C 118.53 151.43 119.49 152.61 120.89 153.23 C 121.88 153.84 122.86 154.46 123.84 155.09 C 127.07 151.98 130.13 148.69 133.26 145.47 C 136.76 142.18 140.09 138.73 143.32 135.18 C 147.15 135.24 150.97 135.07 154.77 134.61 Z" />
</g>
<g id="#ee9e12ff">
<path fill="#ee9e12" opacity="1.00" d=" M 167.54 135.90 C 169.82 135.30 172.12 134.80 174.41 134.25 C 174.46 134.72 174.55 135.67 174.60 136.15 C 175.15 135.62 175.70 135.10 176.25 134.58 C 176.85 134.92 177.44 135.25 178.05 135.58 C 181.33 134.86 184.68 134.72 188.02 134.84 C 192.43 135.03 197.29 132.56 201.15 135.67 C 200.26 140.97 199.16 146.23 198.18 151.51 C 197.63 149.72 197.02 147.96 196.42 146.19 C 196.10 147.04 195.79 147.89 195.48 148.74 C 195.06 148.26 194.21 147.31 193.79 146.83 C 193.47 147.62 193.16 148.41 192.85 149.21 C 187.83 147.44 182.42 147.89 177.23 148.43 C 168.68 149.57 160.01 149.19 151.42 148.73 C 150.87 149.40 150.32 150.07 149.77 150.75 C 148.44 149.48 147.11 148.22 145.78 146.96 C 146.62 146.13 147.47 145.33 148.32 144.52 C 155.42 143.54 161.22 138.91 167.54 135.90 Z" />
</g>
<g id="#5d2fb3ff">
<path fill="#5d2fb3" opacity="1.00" d=" M 93.98 135.75 C 96.41 135.58 98.85 135.52 101.27 135.90 C 99.95 136.60 98.62 137.27 97.28 137.92 C 100.09 139.28 102.02 141.74 102.59 144.83 C 101.97 144.31 100.73 143.26 100.11 142.73 C 99.93 142.58 99.58 142.29 99.40 142.14 C 97.22 140.36 95.28 138.26 93.98 135.75 Z" />
</g>
<g id="#a713c9ff">
<path fill="#a713c9" opacity="1.00" d=" M 142.11 139.08 C 144.61 136.19 148.81 136.70 152.25 136.22 C 152.23 136.70 152.20 137.66 152.18 138.14 C 148.11 141.76 144.45 145.81 140.43 149.49 C 138.06 150.69 135.91 152.26 133.98 154.09 C 132.29 156.05 129.16 155.84 127.26 154.31 C 132.34 149.36 137.18 144.17 142.11 139.08 Z" />
</g>
<g id="#fdb003ff">
<path fill="#fdb003" opacity="1.00" d=" M 41.12 143.22 C 42.56 142.83 44.00 142.44 45.44 142.06 C 46.33 146.74 47.13 151.43 47.94 156.11 C 46.16 155.95 44.35 155.88 42.61 155.42 C 41.44 151.49 41.80 147.26 41.12 143.22 Z" />
</g>
<g id="#6b17c5ff">
<path fill="#6b17c5" opacity="1.00" d=" M 103.41 140.81 C 105.23 142.62 106.91 144.57 108.41 146.66 C 107.71 147.09 106.31 147.96 105.61 148.40 C 104.72 147.51 103.83 146.61 103.10 145.58 C 103.16 143.99 103.26 142.40 103.41 140.81 Z" />
</g>
<g id="#9515dcff">
<path fill="#9515dc" opacity="1.00" d=" M 106.42 142.60 C 111.39 144.74 114.70 149.19 118.63 152.72 C 117.25 154.17 115.88 155.62 114.51 157.08 C 111.55 154.18 108.67 151.19 105.61 148.40 C 106.31 147.96 107.71 147.09 108.41 146.66 L 108.79 146.42 C 107.99 145.15 107.20 143.88 106.42 142.60 Z" />
</g>
<g id="#9f5ab6ff">
<path fill="#9f5ab6" opacity="1.00" d=" M 117.87 150.10 C 119.47 149.69 121.02 150.94 121.09 152.57 L 120.89 153.23 C 119.49 152.61 118.53 151.43 117.87 150.10 Z" />
</g>
<g id="#9010aaff">
<path fill="#9010aa" opacity="1.00" d=" M 133.98 154.09 C 135.91 152.26 138.06 150.69 140.43 149.49 C 135.87 154.90 130.50 159.54 125.75 164.78 C 123.72 161.45 124.25 156.88 127.26 154.31 C 129.16 155.84 132.29 156.05 133.98 154.09 Z" />
</g>
<g id="#c719f1ff">
<path fill="#c719f1" opacity="1.00" d=" M 118.63 152.72 C 122.26 155.66 122.89 160.56 122.27 164.92 C 119.78 162.22 117.16 159.64 114.51 157.08 C 115.88 155.62 117.25 154.17 118.63 152.72 Z" />
</g>
<g id="#feb101ff">
<path fill="#feb101" opacity="1.00" d=" M 200.70 156.07 C 202.42 156.14 204.15 156.21 205.88 156.28 C 205.21 160.47 205.12 164.73 204.59 168.93 C 203.85 171.41 201.69 173.10 200.07 175.01 C 199.29 174.91 197.74 174.72 196.96 174.63 C 197.15 174.25 197.54 173.50 197.73 173.13 C 197.92 172.73 198.30 171.93 198.49 171.53 C 198.91 166.34 199.64 161.17 200.70 156.07 Z" />
</g>
<g id="#fcab05ff">
<path fill="#fcab05" opacity="1.00" d=" M 126.84 173.11 C 128.67 173.11 130.51 173.13 132.35 173.15 C 130.83 175.02 129.08 176.69 127.18 178.17 C 127.05 176.48 126.94 174.80 126.84 173.11 Z" />
</g>
<g id="#ffaf02ff">
<path fill="#ffaf02" opacity="1.00" d=" M 46.26 185.19 C 48.03 185.36 49.74 185.86 51.46 186.30 C 51.56 190.09 51.84 193.87 52.14 197.66 C 50.98 197.66 49.81 197.67 48.65 197.69 L 48.33 197.69 C 47.40 196.71 46.46 195.74 45.53 194.77 L 45.53 194.36 C 45.87 191.36 44.51 187.81 46.26 185.19 Z" />
</g>
<g id="#fdae03ff">
<path fill="#fdae03" opacity="1.00" d=" M 187.65 194.97 C 189.09 195.08 190.52 195.24 191.95 195.45 C 192.55 197.91 189.65 199.13 188.13 200.46 C 187.82 198.64 187.60 196.81 187.65 194.97 Z" />
</g>
<g id="#fcac08ff">
<path fill="#fcac08" opacity="1.00" d=" M 178.84 207.17 C 180.62 203.39 183.57 200.36 185.98 196.98 C 186.37 198.53 187.14 200.10 186.69 201.73 C 184.56 204.14 181.81 205.95 178.84 207.17 Z" />
</g>
<g id="#feb002ff">
<path fill="#feb002" opacity="1.00" d=" M 52.90 201.69 C 55.16 201.44 57.42 201.23 59.68 201.04 C 59.80 203.12 59.79 205.21 60.03 207.28 C 57.24 206.01 54.95 203.92 52.90 201.69 Z" />
</g>
</svg>
