<?xml version="1.0" encoding="utf-8"?>
<!-- Generator: Adobe Illustrator 26.0.3, SVG Export Plug-In . SVG Version: 6.00 Build 0)  -->
<svg version="1.1" id="Layer_1" xmlns="http://www.w3.org/2000/svg" xmlns:xlink="http://www.w3.org/1999/xlink" x="0px" y="0px"
	 viewBox="0 0 250 250" style="enable-background:new 0 0 250 250;" xml:space="preserve">
<style type="text/css">
	.st0{fill:#25AEE6;}
	.st1{fill:#123961;}
</style>
<g id="_x23_25aee6ff">
	<path class="st0" d="M120.1,13c1.1-1.8,2.2-3.6,4-4.8c5.4,9.6,11.4,18.8,17.2,28.2c6.5,12.4,14.6,23.8,21.6,35.9
		c18.2,29.1,35.9,58.5,54.3,87.5c3.8,6.8,8.9,12.8,12.4,19.8c-4.8,3.7-10.1,6.6-15.4,9.5c-12.6,7.5-25.2,15.2-38.1,22.1
		c-10.9,6.7-22.4,12.6-32.9,19.9c-5.5,3.3-11.6,5.5-16.7,9.5c-1.4,0.8-3.1,2.9-4.8,1.5C87,221.3,52.1,201,17.2,180.4
		c1.4-4,4.2-7.3,6.4-10.9C45.3,134,67.4,98.6,89.2,63.2c7.1-10.9,13.1-22.5,20.9-33c-9,16.2-19.3,31.5-28.7,47.3
		C70.4,94.8,60,112.6,48.9,129.9c-7.8,12.9-15.7,25.7-23.6,38.5c-2.4,3.7-4.9,7.4-6.8,11.5c19.5,12.2,39.7,23.4,59.5,35.2
		c10.5,6.1,21,12.3,31.4,18.5c4.6,2.7,8.9,5.6,13.8,7.7c0.5-6.1,0.3-12.2,0.3-18.4c0-64.3,0-128.7,0-193c0-6.2,0.3-12.4-0.4-18.5
		c-4.6,4.5-7,10.5-10.9,15.5C114.2,22,117.4,17.6,120.1,13z"/>
</g>
<g id="_x23_123961ff">
	<path class="st1" d="M112.1,27c3.9-5,6.4-11,10.9-15.5c0.7,6.2,0.4,12.4,0.4,18.5c0,64.3,0,128.7,0,193c0,6.1,0.2,12.2-0.3,18.4
		c-4.9-2-9.3-5-13.8-7.7c-10.5-6.2-20.9-12.4-31.4-18.5c-19.7-11.9-39.9-23-59.5-35.2c1.9-4,4.4-7.8,6.8-11.5
		c7.9-12.8,15.8-25.6,23.6-38.5C60,112.6,70.4,94.8,81.4,77.5c9.4-15.9,19.8-31.2,28.7-47.3C110.8,29.1,111.4,28,112.1,27z"/>
</g>
</svg>
