<?xml version="1.0" encoding="utf-8"?>
<!-- Generator: Adobe Illustrator 26.0.3, SVG Export Plug-In . SVG Version: 6.00 Build 0)  -->
<svg version="1.1" id="Layer_1" xmlns="http://www.w3.org/2000/svg" xmlns:xlink="http://www.w3.org/1999/xlink" x="0px" y="0px"
	 viewBox="0 0 250 250" style="enable-background:new 0 0 250 250;" xml:space="preserve">
<style type="text/css">
	.st0{fill:#E8DEC2;}
	.st1{fill:#C7AA6B;}
	.st2{fill:#E6CB8A;}
	.st3{fill:#C0984E;}
	.st4{fill:#5F390F;}
	.st5{fill:#DFB74F;}
	.st6{fill:#E4B950;}
	.st7{fill:#E7C158;}
	.st8{fill:#8D5F26;}
	.st9{fill:#8F6933;}
	.st10{fill:#4E2C0A;}
	.st11{fill:#C5B68E;}
	.st12{fill:#966F2F;}
	.st13{fill:#E7BC56;}
	.st14{fill:#E2C061;}
	.st15{fill:#824F18;}
	.st16{fill:#7E572F;}
	.st17{fill:#F2CA68;}
	.st18{fill:#795633;}
	.st19{fill:#E5C871;}
	.st20{fill:#55300C;}
	.st21{fill:#CFB276;}
	.st22{fill:#A67332;}
	.st23{fill:#806036;}
	.st24{fill:#6F5134;}
	.st25{fill:#96602A;}
	.st26{fill:#745332;}
	.st27{fill:#735232;}
	.st28{fill:#7E4B17;}
	.st29{fill:#F1CF7B;}
	.st30{fill:#9F672F;}
	.st31{fill:#E6CE86;}
	.st32{fill:#86663B;}
	.st33{fill:#D4C49B;}
	.st34{fill:#865F36;}
	.st35{fill:#735335;}
	.st36{fill:#AA7637;}
	.st37{fill:#95612A;}
	.st38{fill:#6E4C2C;}
	.st39{fill:#704E2C;}
	.st40{fill:#4D2B0D;}
	.st41{fill:#A56D35;}
	.st42{fill:#9F682E;}
	.st43{fill:#F1D992;}
	.st44{fill:#EDDBA4;}
	.st45{fill:#804B13;}
	.st46{fill:#703D0D;}
	.st47{fill:#7D5A36;}
	.st48{fill:#F2E6B6;}
	.st49{fill:#966128;}
	.st50{fill:#AB8348;}
	.st51{fill:#C3A26F;}
	.st52{fill:#E8D199;}
	.st53{fill:#866641;}
	.st54{fill:#A3733B;}
	.st55{fill:#A76E37;}
	.st56{fill:#CEAF86;}
	.st57{fill:#B88D52;}
	.st58{fill:#C1A364;}
	.st59{fill:#DBC7A5;}
	.st60{fill:#CA9A5D;}
	.st61{fill:#F6E7B5;}
	.st62{fill:#EBE1BA;}
	.st63{fill:#DCCBAA;}
	.st64{fill:#826140;}
	.st65{fill:#D8A86B;}
	.st66{fill:#834810;}
	.st67{fill:#B48D59;}
	.st68{fill:#D0BA8F;}
	.st69{fill:#E1B57B;}
	.st70{fill:#EAD199;}
	.st71{fill:#ECD399;}
	.st72{fill:#DFC284;}
	.st73{fill:#C4A364;}
	.st74{fill:#EDD9AF;}
	.st75{fill:#835E29;}
	.st76{fill:#E1C084;}
	.st77{fill:#765028;}
	.st78{fill:#947B57;}
	.st79{fill:#D0AF65;}
	.st80{fill:#845424;}
	.st81{fill:#D3AA68;}
	.st82{fill:#BC9D65;}
	.st83{fill:#E3BF80;}
	.st84{fill:#66411C;}
	.st85{fill:#E1C891;}
	.st86{fill:#76522D;}
	.st87{fill:#E7C06E;}
	.st88{fill:#A17837;}
	.st89{fill:#795531;}
	.st90{fill:#7F5B35;}
	.st91{fill:#DCB972;}
	.st92{fill:#D0A556;}
	.st93{fill:#753F0D;}
	.st94{fill:#C18F36;}
	.st95{fill:#C39037;}
	.st96{fill:#D0A34D;}
	.st97{fill:#D3AB5F;}
	.st98{fill:#E7C77A;}
	.st99{fill:#E8E4CB;}
	.st100{fill:#B3AF91;}
	.st101{fill:#57330E;}
	.st102{fill:#7F460C;}
	.st103{fill:#A07533;}
	.st104{fill:#967847;}
	.st105{fill:#A2925F;}
	.st106{fill:#8E6C3B;}
	.st107{fill:#CEAD71;}
	.st108{fill:#D6AF67;}
	.st109{fill:#B29153;}
	.st110{fill:#EAD593;}
	.st111{fill:#CAB083;}
	.st112{fill:#9E7333;}
	.st113{fill:#DDB666;}
	.st114{fill:#A6804A;}
	.st115{fill:#825F32;}
	.st116{fill:#865621;}
	.st117{fill:#6E3F0E;}
	.st118{fill:#502C0A;}
	.st119{fill:#5E340D;}
	.st120{fill:#BB9448;}
	.st121{fill:#8C5E30;}
	.st122{fill:#704C24;}
	.st123{fill:#C99F54;}
	.st124{fill:#B68B42;}
	.st125{fill:#BB8F44;}
	.st126{fill:#7B582F;}
	.st127{fill:#AA7F43;}
	.st128{fill:#AFA078;}
	.st129{fill:#8A5620;}
	.st130{fill:#C8BA90;}
	.st131{fill:#7F5F3E;}
	.st132{fill:#D9AA53;}
	.st133{fill:#432408;}
	.st134{fill:#9A865C;}
	.st135{fill:#E3D1B3;}
	.st136{fill:#A16B31;}
	.st137{fill:#854E14;}
	.st138{fill:#BD9651;}
	.st139{fill:#C69950;}
	.st140{fill:#E0B363;}
	.st141{fill:#EFDBA1;}
	.st142{fill:#C8A86D;}
	.st143{fill:#9B652F;}
	.st144{fill:#A26D32;}
	.st145{fill:#D9C49C;}
	.st146{fill:#755634;}
	.st147{fill:#94622A;}
	.st148{fill:#CCB47E;}
	.st149{fill:#EDCA7D;}
	.st150{fill:#A16830;}
	.st151{fill:#A27233;}
	.st152{fill:#A0682D;}
	.st153{fill:#DBBC8E;}
	.st154{fill:#A26931;}
	.st155{fill:#C8A767;}
	.st156{fill:#D7A963;}
	.st157{fill:#724416;}
	.st158{fill:#714B28;}
	.st159{fill:#F3D796;}
	.st160{fill:#895015;}
	.st161{fill:#9F7137;}
	.st162{fill:#725333;}
	.st163{fill:#DDB680;}
	.st164{fill:#805D38;}
	.st165{fill:#EDD39D;}
	.st166{fill:#966227;}
	.st167{fill:#C89A5F;}
	.st168{fill:#7C5734;}
	.st169{fill:#EBCB91;}
	.st170{fill:#D5BD86;}
	.st171{fill:#BE8C4B;}
	.st172{fill:#DFB973;}
	.st173{fill:#E5BA72;}
	.st174{fill:#DABE80;}
	.st175{fill:#E1BC76;}
	.st176{fill:#E5B879;}
	.st177{fill:#B8823B;}
	.st178{fill:#E0BB78;}
	.st179{fill:#89581F;}
	.st180{fill:#D8A667;}
	.st181{fill:#9C8A61;}
	.st182{fill:#825933;}
	.st183{fill:#AE7E3E;}
	.st184{fill:#A3692F;}
	.st185{fill:#E4C791;}
	.st186{fill:#AB7337;}
	.st187{fill:#A1672D;}
	.st188{fill:#ECC988;}
	.st189{fill:#734311;}
	.st190{fill:#EED892;}
	.st191{fill:#A2672D;}
	.st192{fill:#AA7A3E;}
	.st193{fill:#8D6941;}
	.st194{fill:#884D13;}
	.st195{fill:#A0682C;}
	.st196{fill:#CBA762;}
	.st197{fill:#A3692E;}
	.st198{fill:#EAD7A2;}
	.st199{fill:#F3DB9E;}
	.st200{fill:#CFA854;}
	.st201{fill:#A66B2F;}
	.st202{fill:#B08147;}
	.st203{fill:#C09342;}
	.st204{fill:#EACC85;}
	.st205{fill:#D6B573;}
	.st206{fill:#F0DFA7;}
	.st207{fill:#B78E59;}
	.st208{fill:#AE7E48;}
	.st209{fill:#F0D18E;}
	.st210{fill:#C49754;}
	.st211{fill:#D7B367;}
	.st212{fill:#966822;}
	.st213{fill:#C9BDA1;}
</style>
<g id="_x23_e8dec2ff">
	<path class="st0" d="M102,5.1c9.8-3.3,26.5-3.1,36.3-0.8C126.2,4.2,114,3,102,5.1z"/>
</g>
<g id="_x23_c7aa6bff">
	<path class="st1" d="M102,5.1c12-2,24.2-0.9,36.3-0.8c-7.4,1-14.9,0.6-22.4,0.8c0.7,7.7,11.5,2.3,16.4,4.7c-10,0.6-20.2-0.8-30,1.7
		c-2.2-5.5-7.5-4.3-12.2-3.1C92.1,5.6,98.2,6.3,102,5.1z"/>
</g>
<g id="_x23_e6cb8aff">
	<path class="st2" d="M138.3,4.3C151.2,5.7,165.1,9,175.9,16c15.1,10.6,32.1,21.4,42.6,37.6c13.1,16.8,19.4,37.5,22.8,58.2
		c-0.3,8,0,16.1-0.4,24.1c-0.1,0.5-0.3,1.5-0.4,2c-2,16.7-8.1,32.5-16.4,47c-20,32.7-56.2,55.4-94.8,56.5c-3.5-0.2-7-0.2-10.5-0.5
		c1.2-2.3,4.6-2.2,5.3-4.7c0-2.1-0.1-4.2-0.2-6.3c0-0.5,0-1.4-0.1-1.9c1.3-2.6,3.2-2,4.8,0c2.3,2.5-3.1,3-1.7,5.9
		c1.5,6.1,9.6,1.5,14.2,1.6c35.8-5.8,68.6-29.5,83.9-62.5c6.2-12.1,9.7-25.2,11.1-38.7c0.8-7.8,1.7-15.8,0.1-23.5
		c-5.2-52.8-51.3-97.3-104.1-101c-4.9-2.4-15.6,3.1-16.4-4.7C123.4,4.8,130.9,5.2,138.3,4.3z"/>
</g>
<g id="_x23_c0984eff">
	<path class="st3" d="M90.1,8.2c4.6-1.1,10-2.4,12.2,3.1c-9.2,1.9-18.2,4.7-26.7,8.7c-8.5,3.6-16.2,8.8-23.6,14.1
		c-0.3-2.5-0.4-5-0.4-7.5C63.4,18.7,76,11.2,90.1,8.2z"/>
</g>
<g id="_x23_5f390fff">
	<path class="st4" d="M102.3,11.4c9.8-2.5,20-1,30-1.7c52.9,3.7,98.9,48.2,104.1,101c-0.4,7.8-0.4,15.7-0.1,23.5
		c-1.4,13.4-4.9,26.6-11.1,38.7c-1.8,1.8-4.9,6.6-4.3,1.1c0.7-1.7,1.6-3.4,2.4-5c0.1-3.9-0.5-8.8,3.8-10.9c2.8-2.8,3.2-11.2-2.6-8.8
		c-0.2,2.9-4.1,7.1-0.4,9c-1.6,2.8-3.1,5.8-5.7,7.9c-0.8,1-1.4,2.1-2.2,3.1c-1.2,0.2-2.3,0.4-3.5,0.6c1.3-2.9,2.4-5.9,3.9-8.7
		c1.6-2.7,2.2-5.8,2.8-8.9c1.1-4.2,1.8-8.4,3.6-12.4c0.7,0,2.2,0,3,0c6.8,5,10.6-9.8,3-9.3c0.3-0.4,0.9-1.2,1.2-1.6
		c0.6-2.5,1.2-5,2.7-7.2c0.4-3,1.8-8.8-2.8-9l-1-0.2c-1.1-3.1,1.2-7.6-3-8.6c7.5,3.2,6.1-10.8,0-9.2c-0.5-2.2-1.1-4.3-1.8-6.4
		c0.9-0.6,1.5-1.3,1.7-2.3c0.6-3.8-0.9-9.3-5.8-8.3c-1.6-2.5-3.2-5.1-5.8-6.8c6.8,0.3,4-6.3,0.6-9c-3.1-1.5-5.4-4-6.8-7.2
		c-0.6-3.2-2.7-6.7-5.8-7.8c-4-0.7-5.8-4.5-7.1-7.9c-2-1.8-4-4.1-6.9-4.1c-3.8-0.6-7.2-3.1-8.1-7c-3.1-2.6-9.6-4.6-9.1,1.6
		c-1.8-2.5-4.2-4.4-7-5.5c2.4-7.1-14.6-9.4-8.1-0.1c-2.8-2.4-5.6-6.3-9.9-4.4c2.5-5.8-7.3-6.9-9.4-3.8c-2.5-0.4-4.9-0.7-7.4-1
		c-4.9-4.1-11.4-0.6-16.5,0.7c1.6,0.3,4.8,1.1,6.4,1.4c0.1,0.4,0.2,1.3,0.2,1.7c-3-1.6-6.7-2.4-9.2,0.3c1.8-6.5-4.7-5.5-8.9-3.8
		c-2.6,2.2-5.9,3.4-9.3,3c-1.9,0-3.9,0.3-5.8,0.6c-2.7-0.4-4.1,1.6-4.6,3.9c-2.2,0.2-5-0.5-5.9-2.7C84.1,16.1,93.1,13.3,102.3,11.4z
		"/>
</g>
<g id="_x23_dfb74fff">
	<path class="st5" d="M112.7,15.6c5.1-1.3,11.7-4.8,16.5-0.7l-0.3,0.8c-0.2,0.6-0.8,1.8-1,2.4c-3,0-6.1,0.4-8.8-1.1
		C117.5,16.6,114.3,15.9,112.7,15.6z"/>
</g>
<g id="_x23_e4b950ff">
	<path class="st6" d="M101.2,15.3c4.2-1.7,10.7-2.8,8.9,3.8c-2.6,0.4-7.5,3.2-9.5-0.1C100.8,17.7,101,16.5,101.2,15.3z"/>
</g>
<g id="_x23_e7c158ff">
	<path class="st7" d="M136.6,15.9c2.1-3.1,11.9-2,9.4,3.8c-1.6,0.3-3.2,0.4-4.8,0.4C139.2,19.2,137.2,18.1,136.6,15.9z"/>
</g>
<g id="_x23_8d5f26ff">
	<path class="st8" d="M91.9,18.3c3.5,0.4,6.7-0.8,9.3-3c-0.2,1.2-0.4,2.4-0.6,3.7c-3,0.4-5.8,1.4-7.6,3.9
		C92.8,21.3,92.3,19.8,91.9,18.3z"/>
</g>
<g id="_x23_8f6933ff">
	<path class="st9" d="M129.2,14.9c2.4,0.3,4.9,0.6,7.4,1c0.6,2.3,2.6,3.3,4.6,4.2c-5,0.8-6.9-5.8-12.2-4.4L129.2,14.9z"/>
</g>
<g id="_x23_4e2c0aff">
	<path class="st10" d="M127.9,18c0.2-0.6,0.8-1.8,1-2.4c5.4-1.4,7.2,5.2,12.2,4.4c1.6,0,3.2-0.1,4.8-0.4c4.3-1.9,7.2,2,9.9,4.4
		c2.7,0.6,5.5,1.2,8.1,0.1c2.9,1.1,5.3,3,7,5.5c2.6,1.4,5.1,2.9,8.1,3.4c2.7,0.5,5,2.1,6.9,4c0,3,2.9,4.5,4.9,6.1c3.3,1,6.7,2.3,9,5
		c-1.5,3.8,3.1,7.9,6.8,7.9c1.5,2.1,3.1,4.2,4.3,6.5c-1.5,3.1,1.7,5.8,3.2,8.3c2.5,1.7,4.2,4.3,5.8,6.8c-1.7,2.8,0.2,5.8,1,8.5
		c0.1,1.6,1.8,1.9,3.1,2.1c0.7,2.1,1.3,4.2,1.8,6.4c-0.4,3.1-0.6,6.2,0,9.2c4.3,1,1.9,5.5,3,8.6c-3.8,0.8-2.5,7-1.1,9.5
		c2.1,1.7,2,4.4,2.2,7c-0.3,0.4-0.9,1.2-1.2,1.6c-2.6,2.3-2.2,6.1-3,9.3c-0.7,0-2.2,0-3,0c1-13.8,3.3-28.9-2.9-41.9
		c-5.9-29.5-28.3-56.1-56.2-67.2c6.8,6.5,17,9.4,23.8,16.5c15.9,13.2,25.2,32,32.4,50.7c1.5,16.6,4,33.8-1.3,50l-1-0.4
		c2.6-17.9,5.3-37.7-2.8-54.6c-5.2-21.6-20.8-41.1-39.9-52.1c-6.6-5.5-14.7-9.2-23.1-10.9c-16.3-6.3-34.7-6-51.7-2.8L99.9,26
		c16.6-4.6,33.7-2.3,50.5-0.2c-21.1-6.7-44-5.5-64.5,2.7c-0.9-1.3,0.4-2.3,1.1-3.2c2-0.7,4.2-1.3,6-2.4c1.8-2.5,4.7-3.5,7.6-3.9
		c2,3.3,6.9,0.5,9.5,0.1c2.5-2.8,6.2-2,9.2-0.3C121.7,19,126.2,20.1,127.9,18z"/>
</g>
<g id="_x23_c5b68eff">
	<path class="st11" d="M175.9,16c43.3,18.8,69.9,67.4,67.2,114c-1.1,3.7,1.2,11.8-2.1,14c-0.1-1.5-0.4-4.6-0.5-6.1
		c0.1-0.5,0.3-1.5,0.4-2c1.4-7.8,2.4-16.3,0.4-24.1c-3.4-20.7-9.7-41.4-22.8-58.2C207.9,37.4,190.9,26.6,175.9,16z"/>
</g>
<g id="_x23_966f2fff">
	<path class="st12" d="M119.1,17c2.7,1.4,5.8,1.1,8.8,1.1c-1.8,2.1-6.2,1-8.6,0.6C119.2,18.2,119.1,17.4,119.1,17z"/>
</g>
<g id="_x23_e7bc56ff">
	<path class="st13" d="M86.1,18.9c1.9-0.3,3.9-0.6,5.8-0.6c0.4,1.5,0.8,3,1.1,4.5c-1.8,1.2-4,1.7-6,2.4C82,25.8,82.1,20.3,86.1,18.9
		z"/>
</g>
<g id="_x23_e2c061ff">
	<path class="st14" d="M155.9,24.1c-6.5-9.3,10.6-6.9,8.1,0.1C161.4,25.3,158.6,24.7,155.9,24.1z"/>
</g>
<g id="_x23_824f18ff">
	<path class="st15" d="M81.5,22.8c0.5-2.4,1.9-4.3,4.6-3.9c-4,1.4-4.1,6.9,0.9,6.3c-0.7,1-2,1.9-1.1,3.2c-2.8,2.7-9.1,1.8-9.9,5.7
		c8.2-2,15.5-7.2,24-8.2l0.4,1.2c-1.1,1.3-6.8,1.6-4.4,3.2c13.8,0.6,29.1-4.9,42.2-0.3c-15.5-0.5-31.2-0.9-46,4.6
		c-7.5-1-13.3,6.1-20.4,7.4c4.8-5.4,14.6-6,18.2-11.1c-17,5-31.6,16.9-43.1,30.1c-3.3,3.2-4.1,9.6-8.9,10.9
		c8.1-15.8,22.5-26.6,36.2-37C50.8,45.6,34.4,68.4,26.4,92.3c-0.4,1.2-1.1,5.4,0.9,2.9c3.3-7.8,5.1-16.7,10.7-23.3
		C34.2,84,27.1,96.3,25.8,109.7c-4.6,11.5-0.9,26.7,0,39.7c-4.3-12-3.8-24.9-3.8-37.4c-1.4-0.2-2,0.5-2.1,1.9
		c-6.6-1.7-5.3,5.3-4.1,9.6c-4-1.5-0.3-11.6-6-8.6c0.6-4.9,0.2-10.2,2.2-14.8c1.5-1.2,1.3-3.3,0.9-5c3.6-12.7,8.9-25,16.4-36
		c2.6-4.2,6.2-7.7,8.8-11.9c4.6-4.4,9-8.9,13.9-12.9c7.5-5.4,15.1-10.5,23.6-14.1C76.5,22.3,79.3,23,81.5,22.8 M67.9,28
		c-2.6,1.3-3.7,7.5-8.9,7.1c-2.1,0.8-8.4,2.5-6.7,5.9c-1.9,2.7-3.7,6.3-7.4,6.4c-2.5,0.7-8.3,5.5-4.7,8.6c-2.7,0.8-4.1,3.8-5.2,6.3
		c-3.8-1.1-6.3,4.8-5.7,7.9c-0.5,2.5,5.3,2.9,4.5,0.2c1-1.9,3.6-3.9,2.8-6.1c0.3-2.8,2.2-4.8,3.8-6.9c1.7,0,4.8,1.8,3.3-1.4
		c1.7-2,5.1-3.8,4.1-6.9c1.8-2.5,4-4.5,7.1-5.2c2.5-0.7,4.4-2.8,6.5-4.2c0.3-0.4,2.4-7.3,6.3-6.1c0.8-0.1,4.5,1.5,2.9-0.3
		c1.9-1.7,6.7-2.4,5.1-5.8C75,22.7,70.3,27.2,67.9,28 M24.2,78.1c-2.6,2.8-5.3,9.7,0.7,9.9C27.9,86,31.2,77,24.2,78.1 M18.2,95.1
		c-2.8,3.4-3.7,11.1,2.6,9.9C23.6,101.6,24.5,93.8,18.2,95.1z"/>
</g>
<g id="_x23_7e572fff">
	<path class="st16" d="M85.9,28.5c20.5-8.2,43.4-9.4,64.5-2.7c-16.8-2.1-33.8-4.3-50.5,0.2c-8.5,1-15.8,6.2-24,8.2
		C76.8,30.3,83.1,31.2,85.9,28.5z"/>
</g>
<g id="_x23_f2ca68ff">
	<path class="st17" d="M67.9,28c2.4-0.8,7.1-5.3,7.8-0.7c1.6,3.4-3.2,4.1-5.1,5.8C67.7,32.7,66.1,30.7,67.9,28z"/>
</g>
<g id="_x23_795633ff">
	<path class="st18" d="M100.3,27.1c17-3.2,35.4-3.5,51.7,2.8c-8.5,0.2-16.5-3.6-25-3.9c-10.6-1-20.8,2.1-31,4.3
		C93.5,28.8,99.2,28.4,100.3,27.1z"/>
</g>
<g id="_x23_e5c871ff">
	<path class="st19" d="M171.1,29.7c-0.5-6.3,6-4.3,9.1-1.6c-0.2,1.7-0.6,3.4-1,5C176.2,32.6,173.6,31.1,171.1,29.7z"/>
</g>
<g id="_x23_55300cff">
	<path class="st20" d="M95.9,30.3c10.2-2.2,20.5-5.3,31-4.3c8.5,0.3,16.5,4.1,25,3.9c7.4,4.2,15.2,7.8,23.1,10.9
		c0.6,1.1,1.2,2.2,1.8,3.2c-10.8-4.8-21.1-12.5-33.3-13c7.9,4.2,17.7,5.4,25.3,10.9c4.9,3.9,12.7,6.1,15.1,12.1
		c-2.8-1.1-5.3-2.9-8-4.2c-4.6-4.8-10.8-8.5-17.4-9.9c5.6,3.5,11.1,7.6,17.4,9.9c1.7,2.3,3.9,4.4,5.1,7c-3-2.1-5.5-5.4-9.4-6.1
		c13.6,11.5,25.5,25.5,31.9,42.3c1.8,4,1.4-0.7,0.7-2.6c-3.7-9.8-9.6-18.7-16.5-26.4c0.8-0.1,2.3-0.2,3-0.3
		c4.6,7.5,9.4,14.9,14.1,22.4c-1.6-8.7-7.6-16.6-14.1-22.4c-0.1-0.7-0.2-2.2-0.3-2.9c0.3-0.1,0.9-0.4,1.3-0.6
		c8.3,7.8,11.8,18.8,18.2,27.8c-0.6-6.4-5.6-11.2-7.1-17.4c5.7,6.4,7.6,15,12,22.2c3.8,19.6,7.4,42.1-2.1,60.2
		c4.6-20.4,7.6-43.1-1.9-62.5c3.3,16.3,7.6,33.5,2.8,50.1c-1.7,5.5-1.7,12.3-5.9,16.4c2.2-10.7,5.7-21.1,5.9-32.1
		c-4.6-0.1-9.3-0.1-13.9-0.2c-0.1-0.5-0.3-1.5-0.4-2l0.4-0.8c3.7-2,11.5,2.7,10.1-3.9c0-0.6,0-1.7,0-2.2c0.3-3.8-4.8-0.9-7-0.9
		c-0.6-1.6-1.1-3.2-1.6-4.9c0.1-5.8,11.8,1.7,10.3-4.1c-0.6-3.5-1.4-7-2.5-10.5c0.1,2.5,0.4,7.6,0.5,10.1c-3.2,0.7-6.6,1-9.9,1.4
		c-1.6-1.5-3.1-3-4.8-4.3c-2.6-2-6.6-1.5-8.1-4.8c-2.5-2.1-3.6-0.6-2.9,2.3c-3.6,0.4-7.2,0.6-10.8,0.6c-1.4-7.5-11.4-3.5-16.5-6.7
		c-11.1-5-23.8-5.2-34.3-11.7c-5.6-7.7-16.4-10.1-19-20.2c3.3-0.4,7.5-6,1.7-5.2c-3.3,0.5-5.2-2.4-6.5-5c1.6-0.9,4.8-0.6,4.4-3.2
		c-5.3,0-9.9,4.9-15.2,3.5c5.6-4,13.2-4.1,18.4-8.3c-4.2,0.8-8.4,1.9-12.6,2.7c4.1-3.9,10.6-3,15.3-5.8c2.8,0,8.3,0,11.1,0
		c-1.2-2.6-8.2-0.7-11.1,0c-8.3-0.7-15.4,3.9-23,6.3c10.9-11.7,32.5-8.7,46-12.3c-10.5-0.7-20.9,0.8-31.4,1.8
		c13.8-4.8,29.1-2.9,43.5-1.7c-12.6-4.9-28.6-4.3-42.2-1.2c-5,1.3-9.8,4.1-15,3.6c1.8-0.9,3.6-1.9,5.4-2.9c14.8-5.5,30.4-5.1,46-4.6
		C125,25.4,109.7,30.9,95.9,30.3 M136.8,41c2.6,4,8.7,1.6,12.3,3.8c2.9,0.1,10.4,7,10.7,2.4C152.1,45.2,145.1,40.1,136.8,41 M121,44
		c-1.1,5.2,10-3.5,9.9,1.9c-10.8-1.2-1.3,3.4,2.2,2.9c19.3,1.6,40.4,14.6,48.7,29.8c0.4,0.4,1.1,1.1,1.4,1.5c1.7,1.9,1.9,5.9,4.9,6
		c3,4.3,2.9,10.5,6.8,14.1c0.1-4.5-0.1-3.9,3.2-2.1c-1.8-5.3-4.4-12.4-8-15.6c-0.9-1.5-1.7-3-2.7-4.4c-0.8-1.1-1.8-2.2-2.7-3.3
		C171.1,54.5,145.3,43,121,44 M168.9,53.9c10.7,10.4,23,20.4,28.1,35.1c1.1,4,5.2,7.7,3.2,12.1c1.6,0.1,3.6,0.2,2.8-2.1
		C197.3,80.8,186,63.3,168.9,53.9 M114.2,55.2c-2.5,1.4-1.6,8,3.5,3.7C121.1,56.8,116.8,53.7,114.2,55.2 M124,55.1
		c-1.4,4.2,3.4,2.8,6,2.9C131.4,53.7,126.6,55.1,124,55.1 M135,56c-0.4,2,0.6,4.5,3,4C143.5,60.7,140,51.8,135,56 M146,59
		c-1.6,2.9,4.5,7.1,5,3C151.7,59.2,147.9,59.1,146,59 M154.9,64c-0.4,2.6,5.5,7.1,6,2.9C161.5,63.9,157,64,154.9,64 M165.2,70.1
		c-3.4,2.6,2,6.1,4.8,4.9C170.6,72.3,168.1,69.2,165.2,70.1 M173.9,82.2c2.4,1.7,4.3,4.9,5,7.7c2.4,6.2,7.8,0.5,2.8-3.1
		c-2.5,0.3-3.6-5.7-4.7-6.5C176.3,75.1,168.7,80,173.9,82.2 M206.1,99l-0.3,4.8c-1.5,0.1-4.4,0.2-5.9,0.2
		C202.6,108.5,214.4,102.3,206.1,99z"/>
</g>
<g id="_x23_cfb276ff">
	<path class="st21" d="M36.7,40.2c4.4-5,9.3-9.8,14.9-13.4c0,2.5,0.1,5,0.4,7.5c-4.9,4-9.3,8.5-13.9,12.9
		C37.6,44.8,40.8,39.7,36.7,40.2z"/>
</g>
<g id="_x23_a67332ff">
	<path class="st22" d="M59,35.1c5.2,0.4,6.2-5.8,8.9-7.1c-1.8,2.7-0.2,4.7,2.7,5.1c1.6,1.8-2.1,0.2-2.9,0.3c-3.9-1.2-6,5.7-6.3,6.1
		C60.7,38,60,36.5,59,35.1z"/>
</g>
<g id="_x23_806036ff">
	<path class="st23" d="M180.1,28.1c0.9,3.9,4.2,6.4,8.1,7c-0.7,0.7-1.4,1.4-2.2,2.1c-1.9-2-4.2-3.5-6.9-4
		C179.6,31.4,179.9,29.8,180.1,28.1z"/>
</g>
<g id="_x23_6f5134ff">
	<path class="st24" d="M152,29.9c8.4,1.7,16.6,5.4,23.1,10.9C167.3,37.7,159.4,34.1,152,29.9z"/>
</g>
<g id="_x23_96602aff">
	<path class="st25" d="M46.9,61C58.5,47.8,73.1,35.9,90,30.9C86.4,36,76.6,36.6,71.8,42c7.1-1.3,13-8.4,20.4-7.4
		c-1.8,1-3.5,2-5.4,2.9C55.5,49,34.5,80.4,30,112.8c-1.4,7,2.3,17.7-0.9,23.3c-0.5-13.9-0.5-27.8,2.9-41.3c-4.5,6.4-3,15.6-5.1,23.2
		c-1.9,7.1,1.9,14.3,0.1,21.4c-1.9-9.8-2.3-19.8-1.1-29.7C27.1,96.3,34.2,84,38,71.9C42.8,70.6,43.6,64.2,46.9,61z"/>
</g>
<g id="_x23_745332ff">
	<path class="st26" d="M143.6,31.1c12.2,0.5,22.5,8.2,33.3,13c4.3,3.7,8,8.6,13.1,11c-3.4-4.7-7.8-8.7-13.1-11
		c-0.6-1.1-1.2-2.2-1.8-3.2c19.1,11,34.7,30.6,39.9,52.1c-4.4-7.2-6.4-15.7-12-22.2c1.5,6.1,6.5,10.9,7.1,17.4
		c-6.4-9-9.9-20-18.2-27.8c-0.3,0.1-1,0.4-1.3,0.6c-0.8-0.9-1.5-1.9-2.2-2.8c-1.8-5-9.9-3.4-4.6,1.2c1.4,1.6,2.6,3.2,4.1,4.8
		c6.9,7.8,12.8,16.7,16.5,26.4c0.7,1.9,1.1,6.6-0.7,2.6c-6.4-16.9-18.3-30.8-31.9-42.3c3.9,0.7,6.3,4,9.4,6.1
		c-1.2-2.7-3.3-4.8-5.1-7c2.7,1.3,5.1,3.1,8,4.2c-2.4-6-10.2-8.3-15.1-12.1C161.4,36.5,151.5,35.3,143.6,31.1z"/>
</g>
<g id="_x23_735232ff">
	<path class="st27" d="M163.9,30.9C191.8,42,214.2,68.6,220.1,98c-7.2-18.7-16.4-37.5-32.4-50.7C180.9,40.3,170.7,37.4,163.9,30.9z"
		/>
</g>
<g id="_x23_7e4b17ff">
	<path class="st28" d="M101.9,33.9c13.6-3.1,29.6-3.7,42.2,1.2c-14.4-1.2-29.6-3.2-43.5,1.7c10.4-1,20.8-2.5,31.4-1.8
		c-13.5,3.5-35.1,0.6-46,12.3c-22.8,12.3-42.1,34.6-45,60.9c-1.3,3.1-2.9,6.5-6.9,6.2c-1.6,3.1,2.1,3.8,4,5.2
		c-1.5,0.4-3.1,0.8-4.6,1.3l-0.9,0.2c-1-3,2.3-10.3-2.7-8.3C34.5,80.4,55.5,49,86.9,37.5C92.1,38,96.9,35.2,101.9,33.9 M75.3,45.3
		c-22,13.5-39.5,37.4-41.4,63.7C38.8,87,51.1,63.6,71,50.1C71.7,49.3,80.4,44,75.3,45.3 M67,56c6.5-2,11.5-8,17.1-11.1
		C77.6,46.3,71.4,51.5,67,56 M57.3,64.3c-7.3,9.8-16,20.2-17.4,32.8c1.8-1.8,2.7-4.8,4-7.2C48.1,76.6,58.8,66.6,67,56
		C62.7,56.6,60.6,61.8,57.3,64.3z"/>
</g>
<g id="_x23_f1cf7bff">
	<path class="st29" d="M52.3,41c-1.7-3.4,4.7-5.1,6.7-5.9c0.9,1.4,1.7,2.8,2.3,4.4c-2,1.5-4,3.6-6.5,4.2C54,42.9,53.1,42,52.3,41z"
		/>
</g>
<g id="_x23_9f672fff">
	<path class="st30" d="M26.4,92.3c8.1-24,24.5-46.8,47.8-57.4C60.5,45.3,46.1,56.1,38,71.9c-5.6,6.7-7.4,15.6-10.7,23.3
		C25.3,97.8,26,93.5,26.4,92.3z"/>
</g>
<g id="_x23_e6ce86ff">
	<path class="st31" d="M188.2,35c2.9,0,4.9,2.3,6.9,4.1c0.5,2.7-1.6,4.4-4.1,4.1c-2.1-1.6-5-3.1-4.9-6.1
		C186.8,36.4,187.5,35.7,188.2,35z"/>
</g>
<g id="_x23_86663bff">
	<path class="st32" d="M195.1,39.1c1.4,3.4,3.2,7.2,7.1,7.9c-0.6,0.3-1.7,0.9-2.2,1.2c-2.4-2.7-5.7-4-9-5
		C193.5,43.5,195.6,41.8,195.1,39.1z"/>
</g>
<g id="_x23_d4c49bff">
	<path class="st33" d="M5,105.9c1.7-24.7,14.6-48.5,31.6-65.8c4.2-0.5,1,4.6,1.4,7c-2.6,4.2-6.2,7.7-8.8,11.9
		c-0.9-1.4-0.7-4.7-3-3.9C14.5,70.6,9.1,89.4,5,108C5,107.5,5,106.5,5,105.9z"/>
</g>
<g id="_x23_865f36ff">
	<path class="st34" d="M109,41c2.8-0.8,9.8-2.6,11.1,0C117.3,40.9,111.7,41,109,41z"/>
</g>
<g id="_x23_735335ff">
	<path class="st35" d="M158.8,40.1c6.5,1.4,12.8,5.1,17.4,9.9C169.9,47.7,164.4,43.6,158.8,40.1z"/>
</g>
<g id="_x23_aa7637ff">
	<path class="st36" d="M52.3,41c0.8,0.9,1.7,1.8,2.6,2.7c-3.1,0.7-5.2,2.8-7.1,5.2c-1-0.5-2-1-3-1.5C48.6,47.3,50.4,43.7,52.3,41z"
		/>
</g>
<g id="_x23_95612aff">
	<path class="st37" d="M86,47.2c7.6-2.4,14.7-7,23-6.3c-4.8,2.9-11.2,1.9-15.3,5.8c4.2-0.8,8.4-1.9,12.6-2.7
		c-5.3,4.2-12.9,4.3-18.4,8.3c-11.7,4.5-20.4,13.9-28.9,22.7c0.9-2.2,2.3-4.1,3.2-6.2c-4.7,3.6-8.1,8.8-10.2,14.2
		c1.6-1.2,2.9-2.7,4.4-4.2c-2,6.9-6.5,12.7-8.6,19.6c-1.8,3.5-1.5-1.1-1.9-2.8c-1,2.8-2.5,6-0.7,8.8c-1.3,1.2-2.6,2.5-4,3.7
		C43.9,81.8,63.2,59.5,86,47.2z"/>
</g>
<g id="_x23_6e4c2cff">
	<path class="st38" d="M136.8,41c8.3-0.9,15.4,4.2,23.1,6.3c-0.4,4.6-7.8-2.3-10.7-2.4C145.4,42.6,139.3,45,136.8,41z"/>
</g>
<g id="_x23_704e2cff">
	<path class="st39" d="M121,44c24.3-1,50.1,10.5,63.6,30.7c-1.7,0.7-2.9,2-2.9,3.8c-8.3-15.2-29.4-28.1-48.7-29.8
		c-3.5,0.5-13-4.1-2.2-2.9C131,40.5,120,49.2,121,44z"/>
</g>
<g id="_x23_4d2b0dff">
	<path class="st40" d="M176.9,44.1c5.4,2.3,9.7,6.3,13.1,11C184.9,52.7,181.2,47.8,176.9,44.1z"/>
</g>
<g id="_x23_a56d35ff">
	<path class="st41" d="M75.3,45.3c5.1-1.4-3.6,4-4.3,4.7c-20,13.5-32.2,36.9-37.1,59C35.9,82.8,53.3,58.9,75.3,45.3z"/>
</g>
<g id="_x23_9f682eff">
	<path class="st42" d="M67,56c4.4-4.6,10.7-9.8,17.1-11.1C78.5,48,73.4,54.1,67,56z"/>
</g>
<g id="_x23_f1d992ff">
	<path class="st43" d="M40.2,56c-3.6-3.1,2.2-7.9,4.7-8.6c1,0.5,2,1,3,1.5c1,3.2-2.4,4.9-4.1,6.9C42.5,55.9,41.4,56,40.2,56z"/>
</g>
<g id="_x23_eddba4ff">
	<path class="st44" d="M202.2,47c3.2,1.1,5.3,4.6,5.8,7.8c-0.3,0.3-1,1-1.3,1.4c-3.6-0.1-8.2-4.2-6.8-7.9
		C200.5,47.9,201.7,47.3,202.2,47z"/>
</g>
<g id="_x23_804b13ff">
	<path class="st45" d="M87.8,52.4c5.3,1.3,9.9-3.5,15.2-3.5c0.4,2.6-2.8,2.3-4.4,3.2c-3.2,1.1-6.3,2.5-9.7,2.9
		c-18.3,6-30.4,24.3-37.8,41.2c-1.9,4,2.9,0.7,3.2,3.7c-3.3,1.2-6.4,2.7-9.3,4.7c-1.8-2.8-0.3-6,0.7-8.8c0.4,1.8,0.1,6.4,1.9,2.8
		c2.1-6.9,6.7-12.7,8.6-19.6c-1.4,1.4-2.8,2.9-4.4,4.2c2.2-5.5,5.5-10.6,10.2-14.2c-0.9,2.1-2.3,4-3.2,6.2
		C67.4,66.3,76.2,56.9,87.8,52.4z"/>
</g>
<g id="_x23_703d0dff">
	<path class="st46" d="M89,55c3.4-0.4,6.5-1.8,9.7-2.9c1.2,2.6,3.2,5.5,6.5,5c-2.5,1.1-3.9,3-1.7,5.2c2.6,10.1,13.3,12.5,19,20.2
		c10.5,6.5,23.2,6.6,34.3,11.7c5.1,3.2,15.1-0.8,16.5,6.7c-4.6-0.5-8.3-0.2-11.2,1.1c-5,17.2,20.7,1.3,25.5,10.6
		c1.6,3.6,3.2-1.2,3.5-3.1c3.1,1.7,4.8,7,1.7,9.2c-5,1.5-10.4,0.6-15.6,1.2c-5.1,0-10.1-0.3-15.1,0c-3.1,0.6-0.1,6.7-1.2,9.2
		c-3.3-5.4-4.4-11.4-5.5-17.5c-1.6-10.2-13.9-10.8-22.2-9.8c-5.2,0.2-11-0.7-15.2,2.9c-4.2,1-7.4,0.8-7.2-3.6
		C98.2,103.6,97,86.9,87.4,83.2c0.1-5.9-5.9-2.9-9.8-3.8c0.9-1.3,1.8-2.7,2.7-4.1c1.6-0.9,3.2-1.9,4.6-2.9c1.9-1.2,3.5-3,3.1-5.4
		c-2.4,0-4.4,1.2-6.4,2.3c-1.3,0.1-2.6,0.2-3.9,0.2c4-3.9,10.3-5.5,12.7-10.8C92.3,56.1,86.1,57.9,89,55 M95.3,61.3
		c-2.2,0.7-4,2.2-3.3,4.8C95.6,67.4,101.1,61.1,95.3,61.3z"/>
</g>
<g id="_x23_7d5a36ff">
	<path class="st47" d="M168.9,53.9C186,63.3,197.3,80.8,203,99c0.8,2.3-1.1,2.2-2.8,2.1c2-4.4-2.1-8.1-3.2-12.1
		C191.9,74.3,179.6,64.3,168.9,53.9z"/>
</g>
<g id="_x23_f2e6b6ff">
	<path class="st48" d="M26.2,55.2c2.4-0.8,2.2,2.5,3,3.9c-7.5,11-12.7,23.2-16.4,36c-1.5,1.3-1.3,3.3-0.9,5c-2,4.7-1.6,9.9-2.2,14.8
		l-0.1,0.9c-0.9,5.1-0.8,10.4-0.1,15.5c-0.1,5,1.1,9.9,2.5,14.7c-0.6,1.7-0.9,3.8,0.7,5c4.2,15.5,10.9,30.6,21.3,43
		c-1.3,1.4-2.9,4.7-4.6,1.3c-11.1-14.6-19.9-31.6-22.9-49.9c1.5-1.3-1.9-8.2-2.1-3.6c-0.9,0-1.1-0.9-0.6-2.6
		C5.7,128.9,4.7,118.4,5,108C9.1,89.4,14.5,70.6,26.2,55.2z"/>
</g>
<g id="_x23_966128ff">
	<path class="st49" d="M51.1,96.2C58.6,79.3,70.7,61,89,55c-2.8,2.9,3.4,1.1,1.5,3.6c-2.5,5.3-8.7,7-12.7,10.8
		c-9,7.8-17.6,17.7-19.8,29.7c4.5-2.4,4-10.7,8.8-14c0.5,1.6,1.6,2.7,3.2,3.2c-1.4,1.6-1.9,3.7-2.8,5.7c-0.9-6-8.6,4.5-2.6,5.4
		l0.7,0.5c-2,0.1-4.1,0.2-6.1,0.2c-1.6-0.1-3.2-0.1-4.8-0.2C54,96.8,49.2,100.2,51.1,96.2z"/>
</g>
<g id="_x23_ab8348ff">
	<path class="st50" d="M114.2,55.2c2.6-1.5,6.9,1.6,3.5,3.7C112.6,63.2,111.7,56.6,114.2,55.2z"/>
</g>
<g id="_x23_c3a26fff">
	<path class="st51" d="M124,55.1c2.6,0,7.4-1.4,6,2.9C127.4,57.9,122.6,59.3,124,55.1z"/>
</g>
<g id="_x23_e8d199ff">
	<path class="st52" d="M183.8,59.4c-5.3-4.6,2.8-6.2,4.6-1.2C186.9,58.6,185.3,59,183.8,59.4z"/>
</g>
<g id="_x23_866641ff">
	<path class="st53" d="M206.7,56.2c0.3-0.3,1-1,1.3-1.4c1.4,3.2,3.7,5.7,6.8,7.2c-1.3,0.2-2.6,0.4-3.8,0.7
		C209.9,60.3,208.3,58.3,206.7,56.2z"/>
</g>
<g id="_x23_a3733bff">
	<path class="st54" d="M35,62.3c1.1-2.4,2.5-5.4,5.2-6.3c1.2,0,2.4-0.1,3.6-0.1c1.5,3.1-1.6,1.4-3.3,1.4c-1.6,2.1-3.5,4.2-3.8,6.9
		C36.1,63.5,35.6,62.9,35,62.3z"/>
</g>
<g id="_x23_a76e37ff">
	<path class="st55" d="M57.3,64.3c3.2-2.5,5.3-7.7,9.7-8.3c-8.2,10.5-18.9,20.5-23.1,33.9c-1.3,2.3-2.1,5.3-4,7.2
		C41.4,84.5,50,74.1,57.3,64.3z"/>
</g>
<g id="_x23_ceaf86ff">
	<path class="st56" d="M135,56c5-4.2,8.5,4.7,3,4C135.5,60.5,134.5,58,135,56z"/>
</g>
<g id="_x23_b88d52ff">
	<path class="st57" d="M105.1,57.1c5.7-0.8,1.6,4.9-1.7,5.2C101.2,60,102.6,58.1,105.1,57.1z"/>
</g>
<g id="_x23_c1a364ff">
	<path class="st58" d="M188.4,58.1c0.8,0.9,1.5,1.9,2.2,2.8c0.1,0.7,0.2,2.2,0.3,2.9c-0.8,0.1-2.3,0.2-3,0.3
		c-1.4-1.5-2.7-3.2-4.1-4.8C185.3,59,186.9,58.6,188.4,58.1z"/>
</g>
<g id="_x23_dbc7a5ff">
	<path class="st59" d="M146,59c1.9,0.2,5.7,0.2,5,3C150.5,66,144.4,61.9,146,59z"/>
</g>
<g id="_x23_ca9a5dff">
	<path class="st60" d="M95.3,61.3c5.8-0.2,0.3,6.1-3.3,4.8C91.2,63.5,93.1,62,95.3,61.3z"/>
</g>
<g id="_x23_f6e7b5ff">
	<path class="st61" d="M29.3,70.2c-0.5-3.1,2-9,5.7-7.9c0.6,0.6,1.1,1.3,1.6,1.9c0.7,2.2-1.8,4.3-2.8,6.1
		C32.3,70.6,30.8,70.4,29.3,70.2z"/>
</g>
<g id="_x23_ebe1baff">
	<path class="st62" d="M211,62.7c1.3-0.3,2.5-0.5,3.8-0.7c3.4,2.7,6.2,9.3-0.6,9C212.7,68.5,209.6,65.8,211,62.7z"/>
</g>
<g id="_x23_dccbaaff">
	<path class="st63" d="M154.9,64c2.1,0,6.6-0.1,6,2.9C160.4,71.1,154.5,66.6,154.9,64z"/>
</g>
<g id="_x23_826140ff">
	<path class="st64" d="M190.9,63.9c6.5,5.8,12.5,13.7,14.1,22.4C200.3,78.8,195.5,71.3,190.9,63.9z"/>
</g>
<g id="_x23_d8a86bff">
	<path class="st65" d="M81.6,69.2c2-1.1,4.1-2.3,6.4-2.3c0.4,2.4-1.2,4.2-3.1,5.4C83.4,71.9,82.3,70.7,81.6,69.2z"/>
</g>
<g id="_x23_834810ff">
	<path class="st66" d="M57.9,99.1c2.1-12,10.7-21.9,19.8-29.7c1.3,0,2.6-0.1,3.9-0.2c0.7,1.5,1.8,2.6,3.4,3.2
		c-1.5,1.1-3.1,2-4.6,2.9c-3.5-6.1-10.3,5.4-2.7,4.1c3.8,0.9,9.8-2.1,9.8,3.8c9.6,3.7,10.8,20.4,23.2,18.1c-0.2,4.4,3.1,4.6,7.2,3.6
		c-5.9,9.6-7.7,31.6,8,32.1c9.1-1.4,21.8,4.3,27.9-5.2c2.2-6.4,1-13.3,1.6-20c1.1,6.1,2.3,12.1,5.5,17.5c1.1-2.5-1.8-8.6,1.2-9.2
		c2.2,4.9-5.4,19.9,5,17c7.7,2.1-2.3-13.7,8-9.1c3.4,0,6.8-0.1,10.2-0.2c0.8,0.6,1.5,1.2,2.1,2c-2,3.6-0.9,7.8,3.7,5.2
		c0.3,0.5,0.9,1.4,1.2,1.9l-0.1,0.8l-0.3,0.7c-1.2,2.3-1.9,4.7-2.6,7.2c-8.7,22.8-29.2,42.1-53.9,45.6c-8.4-1.5-15.5,2.5-20.1,9.1
		c-0.6,9.3-0.2,18.6-0.3,27.9c-4.8-7.7-0.4-20.9-2.5-30.6c1.8-4,6.6-7.4,11.4-7c11.9-0.7,24.8-2.7,34.1-10.5
		c0.6-0.3,1.6-0.9,2.2-1.1c3-1.3,5.4-3.8,7.8-6c0.8-0.8,1.6-1.5,2.4-2.3c1.7-1.6,3.6-3.3,4.8-5.3c1.2-1.7,2.3-3.5,3-5.5
		c-2.1-0.4-4.2,0.1-5.3,2c-0.5,3.2-2.4,5.2-5.6,5.8c-0.8,0.7-1.6,1.5-2.3,2.3c-1.4,1.6-0.7,6.8-3.7,5c-1.8-1.3-3.7-0.1-5.2,1.1
		c-1.4,1.5-2.8,3.1-4.6,4.1c-1.9,0-4-0.6-5.5,0.8c-1.5,1-2.9,2.2-4.4,3.3c-2.5-2-7.8-1-6.4,3c-3.7,2.9-3.9,0.3-5-2.2
		c-1.7-0.2-3.5-0.3-5.3-0.2c-2.2-0.2-1.7,2.3-2.3,3.7c-5,2.3-11.3,4.5-12.8,10.5c-4.2-4.7,4.6-7,2.6-10.3c-1.6-1.1-3.3-2.1-5.1-2.8
		c0.5-1.3,0.5-2.8-0.1-4.1c2,0.3,3.9,0.8,5.9,1.1c-4.2-10,2.4-21.8-3.5-31.5c-4.5-13-12.2-26.3-9.5-40.5c-6,3.8,1.3,19.9-3,26
		c0-9-0.2-18,0.1-26.9c4.3-0.2,8.6,0.1,12.9-0.2c0.1-2.6,0.1-5.2-0.1-7.8c-11.3-0.1-22.7-0.2-34-0.1c-2.7-0.5-3.6,2.3-5,3.9
		c2.7-4.9-1.6-5.9-5.8-6.1l-0.7-0.5c0.9-1.8,1.8-3.5,2.6-5.4c0.9-1.9,1.4-4,2.8-5.7c1.3-1.8,4.2-4,1.8-6.2c-2.2-0.7-3.4,1.9-5,2.9
		C61.9,88.4,62.4,96.6,57.9,99.1 M185.2,140.1c-1.5,1.9-2.4,4.7-1,6.8C187.8,147.8,190.4,138,185.2,140.1 M181.2,150.1
		c-1.4,1.8-3.5,4.9-1,6.7C182.5,156.1,186.7,148.4,181.2,150.1 M113,184c-0.7,3.2,2.4,6.2,6.1,4C119.7,184.8,116.7,181.7,113,184z"
		/>
</g>
<g id="_x23_b48d59ff">
	<path class="st67" d="M29.3,70.2c1.5,0.2,3,0.5,4.5,0.2C34.6,73.1,28.8,72.7,29.3,70.2z"/>
</g>
<g id="_x23_d0ba8fff">
	<path class="st68" d="M165.2,70.1c2.9-0.9,5.4,2.1,4.8,4.9C167.2,76.3,161.8,72.7,165.2,70.1z"/>
</g>
<g id="_x23_e1b57bff">
	<path class="st69" d="M77.7,79.4c-7.6,1.4-0.8-10.2,2.7-4.1C79.5,76.7,78.6,78.1,77.7,79.4z"/>
</g>
<g id="_x23_ead199ff">
	<path class="st70" d="M181.8,78.6c0.1-1.9,1.2-3.2,2.9-3.8c0.9,1.1,1.9,2.1,2.7,3.3c-0.1,2.4-2.5,1.8-4.2,2.1
		C182.8,79.7,182.1,78.9,181.8,78.6z"/>
</g>
<g id="_x23_ecd399ff">
	<path class="st71" d="M24.2,78.1c7-1,3.7,7.9,0.7,9.9C18.9,87.7,21.6,80.9,24.2,78.1z"/>
</g>
<g id="_x23_dfc284ff">
	<path class="st72" d="M173.9,82.2c-5.2-2.2,2.4-7.1,3.1-1.9C177.6,83.2,176,83.2,173.9,82.2z"/>
</g>
<g id="_x23_c4a364ff">
	<path class="st73" d="M187.4,78c1,1.4,1.8,2.9,2.7,4.4c-0.3,1.4-1,2.7-2,3.6c-3,0-3.1-4.1-4.9-6C184.8,79.9,187.3,80.4,187.4,78z"
		/>
</g>
<g id="_x23_edd9afff">
	<path class="st74" d="M220,77.8c4.9-1.1,6.5,4.4,5.8,8.3c-1.6,0.2-3.2,0.5-4.8,0.2C220.2,83.6,218.3,80.6,220,77.8z"/>
</g>
<g id="_x23_835e29ff">
	<path class="st75" d="M177,80.4c1.1,0.8,2.2,6.8,4.7,6.5c-2.1-0.2-3,1-2.8,3.1c-0.7-2.8-2.6-5.9-5-7.7
		C176,83.2,177.6,83.2,177,80.4z"/>
</g>
<g id="_x23_e1c084ff">
	<path class="st76" d="M66.7,85.1c1.6-1.1,2.8-3.6,5-2.9c2.3,2.2-0.5,4.3-1.8,6.2C68.3,87.8,67.2,86.7,66.7,85.1z"/>
</g>
<g id="_x23_765028ff">
	<path class="st77" d="M190.1,82.4c3.6,3.3,6.2,10.3,8,15.6c-3.4-1.8-3.2-2.4-3.2,2.1c-3.9-3.6-3.8-9.8-6.8-14.1
		C189.1,85.1,189.8,83.8,190.1,82.4z"/>
</g>
<g id="_x23_947b57ff">
	<path class="st78" d="M221,86.3c1.6,0.2,3.2,0,4.8-0.2c-0.2,1-0.8,1.7-1.7,2.3C222.8,88.2,221.2,87.9,221,86.3z"/>
</g>
<g id="_x23_d0af65ff">
	<path class="st79" d="M178.8,89.9c-0.1-2,0.7-3.2,2.8-3.1C186.6,90.4,181.2,96.1,178.8,89.9z"/>
</g>
<g id="_x23_845424ff">
	<path class="st80" d="M211.1,90.7c9.5,19.4,6.5,42.1,1.9,62.5c9.5-18.1,5.9-40.6,2.1-60.2c8.1,16.9,5.4,36.7,2.8,54.6
		c-3.5,5.6-3.9,12.6-7.3,18.4c-0.3-0.2-1-0.5-1.3-0.7c-8.4,15.9-20.5,30.5-36.4,39.4c-1.7,1.3-4.4,1.8-4.9,4.2
		c-6.4,0.9-11.8,5.1-18.1,6.1c2.5-3.1,7.2-3.2,10.2-6c16-6.5,31.8-17.8,40.1-33.3c-3.8,2.6-5.6,7.3-9.8,9.4
		c0.6-4.3,6.1-5.9,5.8-10.4c-2.9,2.6-4.9,6.2-8.2,8.3c2.9-7.8,11.2-12.6,12.1-21.4c3.9-10.2,7.1-20.9,8.9-31.5
		c-1.5-2.9-7.4,0.5-9-2.3c2.6,0,7.6,0.1,10.2,0.1c0.7,7.6-2.7,14.6-3,22c3.8-5.6,3.4-14.5,4.7-21.4c0.9-6.2-10.5,0.4-11.7-3.8
		c4.6,0.1,9.2,0,13.9,0.2c-0.3,11-3.8,21.4-5.9,32.1c4.3-4.1,4.2-10.9,5.9-16.4C218.7,124.2,214.3,107,211.1,90.7z"/>
</g>
<g id="_x23_d3aa68ff">
	<path class="st81" d="M64.5,99.3c-6-0.8,1.7-11.3,2.6-5.4C66.3,95.8,65.3,97.5,64.5,99.3z"/>
</g>
<g id="_x23_bc9d65ff">
	<path class="st82" d="M12.1,100c-0.4-1.7-0.6-3.7,0.9-5C13.4,96.7,13.6,98.8,12.1,100z"/>
</g>
<g id="_x23_e3bf80ff">
	<path class="st83" d="M18.2,95.1c6.3-1.2,5.4,6.5,2.6,9.9C14.5,106.2,15.4,98.4,18.2,95.1z"/>
</g>
<g id="_x23_66411cff">
	<path class="st84" d="M26.8,118c2.1-7.6,0.6-16.8,5.1-23.2c-3.3,13.5-3.3,27.5-2.9,41.3c3.2-5.6-0.4-16.3,0.9-23.3
		c5-2,1.7,5.3,2.7,8.3c-0.6,4.4,2.1,5.9,6.3,5.9c0,0.4,0.1,1.2,0.1,1.6c-3.8,12.1,4.2,23,7.1,34.2c1.1,6.9,7.2,11.3,9.9,17.5
		c-8.7-4-10.1-15.4-16.3-22.1c-4.5-4.4-2.7-12-6.7-16.5c0,9.8,5.1,18.5,8.8,27.3l-1.1,0.3c-3.8-4.2-4.3-10.5-7.9-14.4
		c1.8,8.9,7,16.7,12,24.1c-0.3,0.3-0.9,0.9-1.2,1.2c-9.2-11.9-14.1-26.3-16.8-40.8C28.7,132.2,25,125.1,26.8,118z"/>
</g>
<g id="_x23_e1c891ff">
	<path class="st85" d="M225.9,94.8c6.1-1.5,7.5,12.5,0,9.2C225.3,100.9,225.6,97.8,225.9,94.8z"/>
</g>
<g id="_x23_76522dff">
	<path class="st86" d="M209.3,95.6c1.1,3.4,1.9,6.9,2.5,10.5c1.5,5.7-10.2-1.7-10.3,4.1c-0.5-1-1-2-1.6-3c3.3-0.4,6.6-0.7,9.9-1.4
		C209.7,103.2,209.4,98.2,209.3,95.6z"/>
</g>
<g id="_x23_e7c06eff">
	<path class="st87" d="M184.1,100.4c-0.6-2.9,0.5-4.4,2.9-2.3C187.6,100.7,186.3,101.3,184.1,100.4z"/>
</g>
<g id="_x23_a17837ff">
	<path class="st88" d="M187,98.1c1.5,3.3,5.5,2.8,8.1,4.8c-7.7-0.5-15.4-0.8-23-0.9c-3.4,0-6.7,0-10.1,0c2.9-1.3,6.7-1.6,11.2-1.1
		c3.6,0,7.2-0.2,10.8-0.6C186.3,101.3,187.6,100.7,187,98.1z"/>
</g>
<g id="_x23_795531ff">
	<path class="st89" d="M220.1,98c6.1,13,3.9,28.1,2.9,41.9c-1.8,3.9-2.5,8.2-3.6,12.4c-0.2-1.4-0.4-2.9-0.5-4.3
		C224,131.8,221.6,114.6,220.1,98z"/>
</g>
<g id="_x23_7f5b35ff">
	<path class="st90" d="M206.1,99c8.2,3.2-3.5,9.4-6.1,5.1c1.5-0.1,4.4-0.2,5.9-0.2L206.1,99z"/>
</g>
<g id="_x23_dcb972ff">
	<path class="st91" d="M45,104.5c2.9-1.9,6-3.5,9.3-4.7c1.6,0.1,3.2,0.2,4.8,0.2c-1.7,2.2-1.8,4.7,0,6.8c-2.5,1.3-5.1,2.5-7.4,4.2
		c-3.8,8.6,19.3-3.5,16.2,6.9c-5.9,1.1-13.1-1.9-18.4,1.1c-1.1,7,20.5-4.2,18.4,5.9c-4,2.3-18.8-4.4-16.5,3.2
		c1.3,1.2,2.9,2.1,4.5,2.9c3.8,0.6,6.2,8.6,1.4,8.2c-4-0.3-7.7-1.8-11.4-3.2c-0.5-0.4-1.5-1.2-2-1.6c-1.2-1.3-2.5-2.5-3.8-3.8
		c-0.2-0.6-0.8-1.7-1-2.3c0-0.4-0.1-1.2-0.1-1.6c0-3.6-6.7-0.9-5.4-6.1c1.5-0.5,3.1-0.8,4.6-1.3c-1.9-1.4-5.5-2.1-4-5.2
		c3.9,0.3,5.5-3.2,6.9-6.2C42.3,107,43.7,105.8,45,104.5z"/>
</g>
<g id="_x23_d0a556ff">
	<path class="st92" d="M59.1,100.1c2-0.1,4.1-0.2,6.1-0.2c4.2,0.2,8.5,1.2,5.8,6.1c-2.1,4.4-8.4-0.1-11.8,0.9
		C57.3,104.7,57.4,102.3,59.1,100.1z"/>
</g>
<g id="_x23_753f0dff">
	<path class="st93" d="M70.9,105.9c1.4-1.7,2.2-4.5,5-3.9c-4,11.1,6.5,7.4,13,8.1c0.3,8.9-0.3,17.8,0.2,26.7
		c1.7,2.7,5.3,0.5,7.9,0.2c4.3-6.1-3-22.2,3-26c-2.8,14.2,5,27.5,9.5,40.5c5.8,9.7-0.7,21.5,3.5,31.5c-2-0.3-3.9-0.8-5.9-1.1
		c-6.4-3-6.3,5.3,0.1,4.1c1.8,0.7,3.6,1.6,5.1,2.8c-3,2.7-5.8,5.8-6,10c-0.1,2.6-0.9,2.1-1.8,0.1c-2.3-4.7-7-7.5-9.7-11.8
		c0.4-1.6,1.2-3.2,0.3-4.8c2.7-0.7,3.2-2.3,1.4-4.3c-1.2-6.9-2.8-13.7-3-20.7c-4.5-10.1-8.2-22.9-18.7-28.3c-6.2-1.8,0,7.6-2.8,8.9
		c1.2-10.1-9.7-5.6-16.2-6.8c-1.6-0.8-3.2-1.7-4.5-2.9c1.2-4.4,9.5-3.2,7.7,1.7c0.5-4.6,5.4-3.9,9.8-4.1c2.9-12-13.1-2.5-19.4-6.8
		c5.9-2.4,22.6,5.7,19.4-6c-4.8-2-14.8,3.3-17.2-2c2.3-1.7,4.9-2.9,7.4-4.2C62.6,105.8,68.8,110.3,70.9,105.9z"/>
</g>
<g id="_x23_c18f36ff">
	<path class="st94" d="M75.9,102c11.3-0.1,22.7,0,34,0.1c0.2,2.6,0.2,5.2,0.1,7.8c-4.3,0.3-8.6,0-12.9,0.2c-0.2,9,0,18-0.1,26.9
		c-2.5,0.3-6.2,2.4-7.9-0.2c-0.5-8.9,0.2-17.8-0.2-26.7C82.4,109.4,72,113.1,75.9,102z"/>
</g>
<g id="_x23_c39037ff">
	<path class="st95" d="M117.8,104.9c4.2-3.7,10-2.8,15.2-2.9c-4,3.1-0.9,7.2,3.1,7.9c-4.6,1.1-16.1-3.4-13.2,6.2
		c1.1,3.8-2.2,9.9,1.4,12.8c7,0.3,13.9,0.3,20.9,0.5c-3.7,3.2-20.4-3.9-15.7,4c1.5,2.3-2.4,2.5-3.8,3.6
		C110.1,136.5,111.9,114.5,117.8,104.9z"/>
</g>
<g id="_x23_d0a34dff">
	<path class="st96" d="M133.1,101.9c8.3-1,20.6-0.4,22.2,9.8c-0.6,6.6,0.6,13.6-1.6,20c-6.1,9.6-18.8,3.8-27.9,5.2
		c1.3-1.1,5.2-1.3,3.8-3.6c-4.7-8,12-0.9,15.7-4c4.4-3.8,0.6-11.2,1.7-16.2c-1.1-4.6-7.1-2.7-10.8-3.3
		C132.1,109.1,129.1,105.1,133.1,101.9z"/>
</g>
<g id="_x23_d3ab5fff">
	<path class="st97" d="M162,102c3.4,0,6.7-0.1,10.1,0c-2.9,2.7-5.1,6.4-9.5,6.8c9.3,1.1,19.4-1.2,28.4,0.7c-0.3,1.8-1.9,6.7-3.5,3.1
		C182.7,103.3,157,119.2,162,102z"/>
</g>
<g id="_x23_e7c77aff">
	<path class="st98" d="M172.1,102c7.7,0.1,15.4,0.4,23,0.9c1.7,1.3,3.2,2.9,4.8,4.3c0.6,1,1.1,2,1.6,3c0.5,1.7,1,3.3,1.6,4.9
		c1.1,2.8-3,4.2-3.1,7l-0.4,0.8c-1.5,1.4-3.2,2.7-4.7,4.1c2.1,3.5,5.1,6.4,7,10c-3.3,0-6.5,0-9.8-0.1c-0.3-0.5-0.9-1.4-1.2-1.9
		c-1.1-1.8-2.3-3.7-3.7-5.2c-0.6-0.8-1.3-1.4-2.1-2c-4.3-1.2-8.8-0.6-13.2-0.9c2.1-2,3.9-4.3,5.2-6.9c5.1-0.6,10.6,0.3,15.6-1.2
		c3.1-2.2,1.4-7.5-1.7-9.2c-9-2-19.1,0.4-28.4-0.7C167,108.4,169.1,104.7,172.1,102z"/>
</g>
<g id="_x23_e8e4cbff">
	<path class="st99" d="M3.1,107.2c0.5-0.3,1.4-0.9,1.9-1.2c0,0.5,0,1.6,0,2.1c-1.8,9.9-1,20.1-0.9,30.2
		C1.5,129.6,3.6,117.2,3.1,107.2z"/>
</g>
<g id="_x23_b3af91ff">
	<path class="st100" d="M4.2,138.2C4,128.1,3.2,118,5,108c-0.3,10.4,0.7,20.9-0.8,31.2L4.2,138.2z"/>
</g>
<g id="_x23_57330eff">
	<path class="st101" d="M25.8,149.4c-0.9-13-4.5-28.2,0-39.7c-1.3,9.9-0.8,19.9,1.1,29.7c2.8,14.5,7.7,28.9,16.8,40.8
		c7.6,11.5,19,19.3,29.3,27.9c-11.6-4.2-18.9-14.6-28.2-22.1c4.9,7.5,11.9,14,19.3,19.2c-0.2,0.2-0.7,0.7-0.9,1
		c-3.8,2.1-6.4-1.4-8.2-4.3c-1.6-2.2-4.6-9.1-7.7-5.6c-4.9,2.4,2.1,8.1,5.6,7.7c3.8,1.2,5.7,4.6,7.2,7.8c1.8,1.1,3.5,2.3,5.1,3.6
		c-0.2,1.6-0.9,3.1-2.2,4.1c-2.8-2-5.8-3.8-8.7-5.7c-3.3-3-6.8-5.9-10.1-9c-3.4-3.5-6.8-7-9.9-10.8c-10.4-12.4-17.1-27.5-21.3-43
		c0.4-1.7,0.5-3.7-0.7-5c-1.4-4.8-2.6-9.7-2.5-14.7c0.2-5.2,0.4-10.4,0.1-15.5l0.1-0.9c5.7-3,1.9,7.2,6,8.6c0.2,2.9,1.6,6.2-0.6,8.7
		c-0.5,2.9,0.3,5.9,1,8.8c3.3,1.3,5.7-1.4,4.8-4.7c0.8-5.5-4.6-7.1-3-13c4.4-0.4,1.2-6.4,1.9-9.3c0-1.4,0.7-2.1,2.1-1.9
		C22,124.5,21.4,137.4,25.8,149.4 M20.3,149.3c-5,1.1,1.3,14.9,5.4,7.6C24,154,25.3,147.1,20.3,149.3 M28.2,175.1
		c2.7,1.3,5.9,4.9,6,8.9c0.7,2.6,3.5,8.7,6.9,6.1c4-2.6-1.5-5.7-2.5-8.4c-1.6,0.1-6.1-3.5-6.6-7.4c2.7-1.3-1.8-5.9-2.1-8.1
		C23.1,163.9,24.5,173.1,28.2,175.1 M35,170.9c1.2,5.3,4.8,10.8,9.1,14.2C42.4,179.8,37.9,175.3,35,170.9z"/>
</g>
<g id="_x23_7f460cff">
	<path class="st102" d="M123,116c-2.9-9.5,8.6-5.1,13.2-6.2c3.7,0.5,9.6-1.4,10.8,3.3c-1.2,5,2.7,12.5-1.7,16.2
		c-7-0.2-13.9-0.2-20.9-0.5C120.8,126,124,119.8,123,116z"/>
</g>
<g id="_x23_a07533ff">
	<path class="st103" d="M68,117.9c3.1-10.3-20,1.7-16.2-6.9c2.4,5.3,12.5,0,17.2,2c3.2,11.7-13.5,3.6-19.4,6
		C54.9,116,62.1,119.1,68,117.9z"/>
</g>
<g id="_x23_967847ff">
	<path class="st104" d="M236.4,110.7c1.6,7.7,0.6,15.8-0.1,23.5C235.9,126.4,235.9,118.5,236.4,110.7z"/>
</g>
<g id="_x23_a2925fff">
	<path class="st105" d="M241.2,111.8c2,7.8,1,16.3-0.4,24.1C241.2,127.8,240.9,119.8,241.2,111.8z"/>
</g>
<g id="_x23_8e6c3bff">
	<path class="st106" d="M227.9,122c-1.4-2.4-2.7-8.7,1.1-9.5l1,0.2C227.1,115,228.3,118.9,227.9,122z"/>
</g>
<g id="_x23_cead71ff">
	<path class="st107" d="M230,112.8c4.6,0.2,3.2,6,2.8,9c-1.6,0.1-3.3,0.2-4.9,0.2C228.3,118.9,227.1,115,230,112.8z"/>
</g>
<g id="_x23_d6af67ff">
	<path class="st108" d="M15.8,123.4c-1.3-4.3-2.5-11.3,4.1-9.6c-0.7,2.9,2.5,9-1.9,9.3C17.4,123.3,16.3,123.4,15.8,123.4z"/>
</g>
<g id="_x23_b29153ff">
	<path class="st109" d="M203.1,115.1c2.2,0,7.3-3,7,0.9c-4.9-3.2-5,4.7,0,2.2c1.4,6.6-6.4,2-10.1,3.9
		C200.1,119.2,204.2,117.8,203.1,115.1z"/>
</g>
<g id="_x23_ead593ff">
	<path class="st110" d="M210.2,118.1c-5,2.5-4.9-5.4,0-2.2C210.1,116.5,210.1,117.6,210.2,118.1z"/>
</g>
<g id="_x23_cab083ff">
	<path class="st111" d="M9.7,131.2c-0.8-5.2-0.9-10.4,0.1-15.5C10.1,120.9,9.8,126.1,9.7,131.2z"/>
</g>
<g id="_x23_9e7333ff">
	<path class="st112" d="M68,124.9c2.1-10-19.5,1.2-18.4-5.9c6.4,4.3,22.4-5.2,19.4,6.8c-4.4,0.2-9.4-0.5-9.8,4.1
		c1.8-4.9-6.5-6.1-7.7-1.7C49.2,120.6,64,127.2,68,124.9z"/>
</g>
<g id="_x23_ddb666ff">
	<path class="st113" d="M162,120.1c5-0.3,10.1,0,15.1,0c-1.3,2.6-3.1,4.9-5.2,6.9c4.4,0.3,9-0.3,13.2,0.9c-3.4,0.1-6.8,0.2-10.2,0.2
		c-10.3-4.7-0.3,11.1-8,9.1C156.7,139.9,164.2,125,162,120.1z"/>
</g>
<g id="_x23_a6804aff">
	<path class="st114" d="M32.7,121.1l0.9-0.2c-1.3,5.2,5.4,2.5,5.4,6.1C34.7,127,32,125.5,32.7,121.1z"/>
</g>
<g id="_x23_825f32ff">
	<path class="st115" d="M227.9,122c1.6,0,3.3-0.1,4.9-0.2c-1.5,2.2-2.1,4.7-2.7,7.2C229.9,126.5,230.1,123.7,227.9,122z"/>
</g>
<g id="_x23_865621ff">
	<path class="st116" d="M15.8,123.4c0.5-0.1,1.6-0.2,2.2-0.2c-1.6,6,3.8,7.6,3,13c-0.3-3.5-2.3-5-5.7-4.1
		C17.4,129.7,16,126.3,15.8,123.4z"/>
</g>
<g id="_x23_6e3f0eff">
	<path class="st117" d="M195,127c1.5-1.4,3.2-2.7,4.7-4.1c0.1,0.5,0.3,1.5,0.4,2c1.2,4.2,12.6-2.4,11.7,3.8
		c-1.3,6.9-0.9,15.8-4.7,21.4c0.3-7.4,3.8-14.5,3-22c-2.6,0-7.6-0.1-10.2-0.1c1.6,2.8,7.5-0.6,9,2.3c-1.8,10.7-4.9,21.3-8.9,31.5
		c-3.3,3.6-5.5,8.1-8.1,12.3c-0.5-0.3-1.6-0.8-2.1-1c4.5-6.4,9.2-13.1,10.3-21.1c5.3-5.8,4.5-14.6,5-21.9c-10.7-1.7-3.2,0.6-1.1,2.2
		c0.2,6.8-3.9,12.8-3.9,19.6c-5,5.1-5.7,13.2-11,18.4c-0.3-0.6-0.9-1.8-1.2-2.4c2.6-4.3,5.4-8.4,7.7-12.9c2.4-4.9,3.7-10.3,4.5-15.7
		c-3.8-1.1-5.5,1.4-5.7,5c-0.6-1.5-1.9-4.4-2.6-5.8l0.3-0.7c2.1-1,9.1,1.8,9.8-0.8C200,133.4,197,130.5,195,127z"/>
</g>
<g id="_x23_502c0aff">
	<path class="st118" d="M46.2,162.8c-2.9-11.2-10.9-22.1-7.1-34.2c0.2,0.6,0.8,1.7,1,2.3c0,6.8,1.4,13.6,5,19.5
		c0.2-5.2-3.5-10.6-1.1-15.7c0.5,0.4,1.5,1.2,2,1.6c5.2,6.5,5.1,16.2,9.8,23.4c-0.8,4.1,3.2,9.8,7.4,10.6
		c5.5,8.2,13.5,13.9,21.7,19.2c2.7,1.9,0.2,5.5-0.1,8l-0.6-0.6c-10.4-9.2-21.9-17.3-30.2-28.9c4.6,13.3,18.3,20.2,28,29.3
		c0.4,0.4,1,1.2,1.4,1.6c-3.1,2.3-6,4.9-9.3,6.7c-11.5-6.5-21.4-15.7-29-26.5c-5-7.4-10.2-15.2-12-24.1c3.7,3.9,4.2,10.2,7.9,14.4
		c5.1,10.8,13.8,19.4,22.6,27.3c2,1.6,3.9,3.8,6.8,3.5c-3.3-3.1-7.8-5.2-10.3-9.1c4.7-0.2,6.8,5.4,11.3,6.2c-0.7-4.1-6.2-5-7.5-8.9
		c1.5,0.6,2.9,1.3,4.4,1.9C59.7,181.9,52.3,172.8,46.2,162.8z"/>
</g>
<g id="_x23_5e340dff">
	<path class="st119" d="M72.1,137.9c2.8-1.3-3.4-10.8,2.8-8.9c10.5,5.5,14.2,18.2,18.7,28.3c0.2,7,1.7,13.8,3,20.7
		c-5.3-3.3-5.8,2.2-1.4,4.3c0.8,1.6,0.1,3.2-0.3,4.8c-1.8-1.1-3.7-1.9-5.7-2.4c-9-7-19-13.5-24.9-23.6c1.5-3.3-0.7-6.4-1.8-9.4
		c-4-1.5-9.8-8.4-5.8-12c0.9,0.1,2.6,0.2,3.5,0.3c1.5,2.9,1.8,6.1,2.5,9.2c3.1,4.2,6.1,0.4,3.2-3.2c-0.9-1.9-4.6-3.7-2.9-6
		C66,139.5,69.1,138.9,72.1,137.9 M68,155c-0.7,2.5,0.7,6.3,3.8,5.9C74.5,159,70.9,154.1,68,155 M75.2,164.2
		c-2.8,1.3,1.2,4.2,2.8,4.8C82.3,168.4,78.2,162.5,75.2,164.2 M84.1,171.1c-3.2,2.9,0.8,5.5,3.9,5C88.8,173.2,86.1,172.2,84.1,171.1
		z"/>
</g>
<g id="_x23_bb9448ff">
	<path class="st120" d="M187.3,129.8c1.4,1.6,2.6,3.4,3.7,5.2C186.4,137.6,185.3,133.4,187.3,129.8z"/>
</g>
<g id="_x23_8c5e30ff">
	<path class="st121" d="M203.9,132.3c-2.1-1.6-9.6-4,1.1-2.2c-0.4,7.2,0.4,16.1-5,21.9C200.1,145.1,204.2,139.1,203.9,132.3z"/>
</g>
<g id="_x23_704c24ff">
	<path class="st122" d="M40.1,130.8c1.3,1.2,2.6,2.5,3.8,3.8c-2.4,5.1,1.3,10.5,1.1,15.7C41.5,144.4,40,137.5,40.1,130.8z"/>
</g>
<g id="_x23_c99f54ff">
	<path class="st123" d="M55.9,131.1c6.5,1.2,17.4-3.2,16.2,6.8c-3,1-6.1,1.6-9.2,2.1c-0.7,0-2.2,0-2.9-0.1c-0.9-0.1-2.6-0.2-3.5-0.3
		l0.7-0.4C62.1,139.7,59.7,131.7,55.9,131.1z"/>
</g>
<g id="_x23_b68b42ff">
	<path class="st124" d="M225.9,139.9c0.8-3.1,0.4-7,3-9.3C236.5,130.2,232.7,145,225.9,139.9z"/>
</g>
<g id="_x23_bb8f44ff">
	<path class="st125" d="M15.2,132.1c3.4-0.9,5.5,0.6,5.7,4.1c0.9,3.2-1.4,6-4.8,4.7C15.5,138.1,14.8,135,15.2,132.1z"/>
</g>
<g id="_x23_7b582fff">
	<path class="st126" d="M45.9,136.1c3.7,1.4,7.4,2.9,11.4,3.2l-0.7,0.4c-4,3.6,1.8,10.5,5.8,12c-3.4-1.8-7,0.4-3.5,3.6
		c1.5,2.2,2.3,5.4,5.3,5.8c5.9,10.1,15.9,16.6,24.9,23.6c-1.9,1-4,1.5-5.8,0c-7.4-4.7-13.4-11.2-19.4-17.5c-2.6-2.7-3.3-8.7-8.3-7.7
		C51,152.3,51.1,142.6,45.9,136.1z"/>
</g>
<g id="_x23_aa7f43ff">
	<path class="st127" d="M192.2,137c3.3,0.1,6.5,0,9.8,0.1c-0.7,2.5-7.7-0.2-9.8,0.8L192.2,137z"/>
</g>
<g id="_x23_afa078ff">
	<path class="st128" d="M240.4,137.9c0.1,1.5,0.4,4.6,0.5,6.1c-2.1,14.7-7.8,30.2-15.8,41.9c-0.3-0.2-0.8-0.7-1.1-1
		C232.3,170.4,238.4,154.5,240.4,137.9z"/>
</g>
<g id="_x23_8a5620ff">
	<path class="st129" d="M189.2,145.7c0.7-2.5,1.4-5,2.6-7.2c0.6,1.5,1.9,4.4,2.6,5.8c0.1-3.5,1.9-6.1,5.7-5
		c-0.8,5.4-2.2,10.8-4.5,15.7c-0.3-0.1-0.9-0.4-1.3-0.6c-6.4,10.9-13,22.1-23.4,29.7c1.8-5.4,8.7-7.7,10.3-13.2
		c-4.9,2.7-7.3,10.1-13.4,10c7.6-5.9,13.8-13.4,18.4-21.8c2-2.9,4.4-6.1,3-9.7C192.6,150.7,190.6,147,189.2,145.7z"/>
</g>
<g id="_x23_c8ba90ff">
	<path class="st130" d="M4.8,141.8c0.1-4.7,3.5,2.3,2.1,3.6c3,18.3,11.7,35.2,22.9,49.9c1.7,3.4,3.3,0.1,4.6-1.3
		c3,3.8,6.5,7.3,9.9,10.8c-0.9,1.4-1.8,2.8-2.6,4.3c-2.4-1.1-7.4-9.9-8.6-6.5C18.2,186.4,7.5,164.2,4.8,141.8z"/>
</g>
<g id="_x23_7f5f3eff">
	<path class="st131" d="M60.1,140c0.7,0,2.2,0,2.9,0.1c-1.7,2.3,1.9,4.1,2.9,6c-2.4-0.5-3.2,0.9-3.2,3.2
		C61.8,146.1,61.5,142.9,60.1,140z"/>
</g>
<g id="_x23_d9aa53ff">
	<path class="st132" d="M185.2,140.1c5.2-2.1,2.6,7.7-1,6.8C182.7,144.7,183.7,141.9,185.2,140.1z"/>
</g>
<g id="_x23_432408ff">
	<path class="st133" d="M33.1,141.6c4,4.5,2.2,12.1,6.7,16.5c1.5,10.1,11.8,16.5,13.2,26c-4.2-4.8-7.3-10.2-11.1-15.3
		C38.2,160.1,33.1,151.5,33.1,141.6z"/>
</g>
<g id="_x23_9a865cff">
	<path class="st134" d="M12.2,145.9c1.3,1.4,1.2,3.3,0.7,5C11.3,149.8,11.6,147.6,12.2,145.9z"/>
</g>
<g id="_x23_e3d1b3ff">
	<path class="st135" d="M62.6,149.2c0-2.2,0.8-3.7,3.2-3.2C68.7,149.6,65.7,153.4,62.6,149.2z"/>
</g>
<g id="_x23_a16b31ff">
	<path class="st136" d="M189.2,145.7c1.4,1.3,3.4,5,0,3.6c1.5,3.7-1,6.9-3,9.7c-4.6,8.4-10.9,15.9-18.4,21.8c-2.9,1.8-5.4,3.9-8,6.1
		c-10.8,4.2-21.7,10.2-33.7,7c-6.9,2.5-12.6,10.2-10.1,18c1.5,4-2.7,12.6,2.2,14.3c-1,0.6-2.1,1.3-3.1,2c0.1-9.3-0.3-18.6,0.3-27.9
		c4.6-6.6,11.7-10.6,20.1-9.1C160,187.8,180.4,168.5,189.2,145.7z"/>
</g>
<g id="_x23_854e14ff">
	<path class="st137" d="M210.5,166c3.3-5.8,3.8-12.8,7.3-18.4l1,0.4c0.2,1.4,0.4,2.9,0.5,4.3c-0.6,3-1.2,6.2-2.8,8.9
		c-0.3-0.2-1-0.6-1.3-0.9c-12.5,29.9-39.3,53.2-71.1,59.9c-1.7,0.6-5.9,0.5-3,2.6c30.3-5.9,57.1-25.7,71.5-53
		c1.2-0.2,2.3-0.4,3.5-0.6c-3.1,3.7,0.8,7.9,4.6,4.8c-0.6,5.5,2.4,0.7,4.3-1.1c-15.3,33-48.1,56.7-83.9,62.5
		c-3.8,0.2-3.8-2.9-3.4-6.2c5.4-0.7,13.9,2.6,17.4-3.2c2.5-1.7,5.5-2.8,8.5-3c2.9,1.9,5.8-1,8.4-2.2c1-1.6,1.9-3.2,2.9-4.8
		c2-0.4,4-0.8,6.1-1.1c2.4-0.1,4.3-1.6,6.2-2.8c3-2.3,3.3-7.7,7.9-8.2c3.4-0.2,9.5-4.5,5.7-7.8c-2.8-3.5-5.9,2.6-7.5,4.8
		c-1.4,4-5.6,4.7-9.1,6c-1.5,0.9-2.9,1.9-4.3,2.9c-2.3,1.4-2.1,5-4.8,6.3c-1.4,0.1-2.7,0.1-4.1,0.1c-2.9-0.3-5.5,1.3-7.8,2.9
		c-1.6,2.9-5,3.6-7.8,4.8c-3.1-0.6-6.2-0.6-9.2,0c-3.5,0.1-3.9,4.6-8.2,3.2c-2.3-7,2.7-11.8,7.4-15.8c4.9-2.6,10.9-2.5,15.1-6.2
		c8.7-1.9,14.6-9.8,22.7-12.2c-5.9,7.7-17,10.1-23.2,16.2c-4.1,0.6-12.2,1.1-11.1,6.9c6.8-0.3,13.8-2.4,19-7
		C186.6,200.4,201.4,184.3,210.5,166 M209.4,181.3c-2.2,2.6-6.8,7.6-1.2,9.3C212.1,189.8,217,180.1,209.4,181.3z"/>
</g>
<g id="_x23_bd9651ff">
	<path class="st138" d="M20.3,149.3c5-2.2,3.7,4.7,5.4,7.6C21.6,164.2,15.3,150.4,20.3,149.3z"/>
</g>
<g id="_x23_c69950ff">
	<path class="st139" d="M224.4,149.2c5.8-2.4,5.4,6,2.6,8.8c-0.8,0.1-2.3,0.2-3,0.2C220.3,156.4,224.2,152.2,224.4,149.2z"/>
</g>
<g id="_x23_e0b363ff">
	<path class="st140" d="M181.2,150.1c5.6-1.7,1.3,6-1,6.7C177.6,155,179.8,151.9,181.2,150.1z"/>
</g>
<g id="_x23_efdba1ff">
	<path class="st141" d="M58.8,155.3c-3.5-3.2,0.1-5.4,3.5-3.6C62.5,154.2,61.3,155.5,58.8,155.3z"/>
</g>
<g id="_x23_c8a86dff">
	<path class="st142" d="M62.4,151.7c1.1,3,3.3,6.1,1.8,9.4c-3-0.4-3.9-3.7-5.3-5.8C61.3,155.5,62.5,154.2,62.4,151.7z"/>
</g>
<g id="_x23_9b652fff">
	<path class="st143" d="M189,170.4c5.3-5.2,6-13.3,11-18.4c-1.1,8-5.8,14.6-10.3,21.1c-1.3,1.1-2.6,2.1-3.9,3
		C186.6,174,187.8,172.2,189,170.4z"/>
</g>
<g id="_x23_a26d32ff">
	<path class="st144" d="M194.2,154.4c0.3,0.1,1,0.4,1.3,0.6c-2.3,4.5-5.1,8.7-7.7,12.9c-2.8,4.8-7.4,8.3-10,13.2
		c2.7-0.9,4.9-2.7,7.4-4.1c-1.5,2.8-3.5,5.2-5.3,7.8c0.3-7.7-11.4,1.8-8,6.2c-5.7,2.7-10.5,7.5-17,8c2.7-5.3,14.7-4.2,15.3-12
		c-2,1.1-4,2.2-6,3.2c-0.9-5.2,10.3-4.8,3.5-9.4c6,0.1,8.5-7.3,13.4-10c-1.6,5.5-8.5,7.7-10.3,13.2
		C181.3,176.6,187.9,165.3,194.2,154.4z"/>
</g>
<g id="_x23_d9c49cff">
	<path class="st145" d="M68,155c2.8-0.8,6.5,4,3.8,5.9C68.7,161.3,67.3,157.5,68,155z"/>
</g>
<g id="_x23_755634ff">
	<path class="st146" d="M39.8,158.2c6.2,6.7,7.6,18.1,16.3,22.1c-2.7-6.2-8.8-10.6-9.9-17.5c6.2,10,13.5,19.1,21.9,27.3
		c-1.5-0.6-3-1.2-4.4-1.9c1.3,3.9,6.8,4.8,7.5,8.9c-4.4-0.8-6.5-6.4-11.3-6.2c2.6,3.9,7,6,10.3,9.1c-2.8,0.3-4.8-1.8-6.8-3.5
		c-8.8-7.9-17.5-16.5-22.6-27.3l1.1-0.3c3.8,5,6.9,10.5,11.1,15.3C51.5,174.7,41.2,168.3,39.8,158.2 M54,181c0.4,4,5,8.7,9.1,9
		C62.6,185.8,59,179.7,54,181z"/>
</g>
<g id="_x23_94622aff">
	<path class="st147" d="M224,158.2c0.8-0.1,2.3-0.2,3-0.2c-4.3,2.2-3.7,7-3.8,10.9c-1.2-1.6-2.6-3.3-4.9-2.9
		C220.9,164,222.4,161.1,224,158.2z"/>
</g>
<g id="_x23_ccb47eff">
	<path class="st148" d="M55.7,159.5c4.9-1,5.6,5,8.3,7.7c-0.3,1-0.6,1.9-0.9,2.9C58.8,169.4,54.9,163.6,55.7,159.5z"/>
</g>
<g id="_x23_edca7dff">
	<path class="st149" d="M172.8,162c1.1-2,3.2-2.4,5.3-2c-0.7,2-1.8,3.8-3,5.5C173.3,165.2,173,163.6,172.8,162z"/>
</g>
<g id="_x23_a16830ff">
	<path class="st150" d="M215.3,160.3c0.3,0.2,1,0.6,1.3,0.9c-1.4,2.8-2.6,5.8-3.9,8.7c-14.5,27.3-41.2,47.1-71.5,53
		c-2.9-2.2,1.3-2.1,3-2.6C175.9,213.4,202.7,190.1,215.3,160.3z"/>
</g>
<g id="_x23_a27233ff">
	<path class="st151" d="M167.2,167.8c3.2-0.6,5.1-2.6,5.6-5.8c0.2,1.6,0.5,3.2,2.3,3.5c-1.3,2.1-3.1,3.7-4.8,5.3
		C169.8,169.3,168.8,168.2,167.2,167.8z"/>
</g>
<g id="_x23_a0682dff">
	<path class="st152" d="M191.9,174.1c2.6-4.2,4.7-8.7,8.1-12.3c-0.9,8.7-9.2,13.6-12.1,21.4c3.3-2.2,5.3-5.7,8.2-8.3
		c0.3,4.5-5.1,6.2-5.8,10.4c-4.7-3.7-9.1,2.7-10.5,6.7c4.5,0.6,7.7-3.8,10.5-6.7c4.2-2.1,6.1-6.8,9.8-9.4
		c-8.3,15.5-24.1,26.7-40.1,33.3c6.2-6.1,17.3-8.6,23.2-16.2c-8.1,2.4-14.1,10.3-22.7,12.2c-0.4-3.3-4.3-0.9-6.4-1.1
		C168.4,196.7,182.3,187.4,191.9,174.1z"/>
</g>
<g id="_x23_dbbc8eff">
	<path class="st153" d="M75.2,164.2c2.9-1.7,7.1,4.2,2.8,4.8C76.5,168.4,72.5,165.4,75.2,164.2z"/>
</g>
<g id="_x23_a26931ff">
	<path class="st154" d="M209.2,165.4c0.3,0.2,1,0.5,1.3,0.7c-9.1,18.2-23.9,34.4-42.6,43c0.4-2.4,3.2-2.9,4.9-4.2
		C188.7,195.9,200.8,181.3,209.2,165.4z"/>
</g>
<g id="_x23_c8a767ff">
	<path class="st155" d="M28.2,175.1c-3.6-2-5-11.2,1.6-9c0.3,2.2,4.8,6.8,2.1,8.1C30.7,174.6,29.4,174.8,28.2,175.1z"/>
</g>
<g id="_x23_d7a963ff">
	<path class="st156" d="M218.4,166.1c2.3-0.5,3.6,1.3,4.9,2.9c-0.8,1.7-1.7,3.3-2.4,5c-3.9,3.1-7.7-1-4.6-4.8
		C216.9,168.2,217.6,167.1,218.4,166.1z"/>
</g>
<g id="_x23_724416ff">
	<path class="st157" d="M63.9,167.2c6,6.4,12,12.8,19.4,17.5c1.8,1.5,3.9,1,5.8,0c-3.1,5.7,8.8,7.9,7.2,14.3c-0.7,3-1.4,5.9-1.4,9
		c0,2,0,3.9,0,5.9c-0.1,1.4-0.1,2.8-0.2,4.2c-0.2,3.2,0.7,7.9-3.9,5c-2.7-7.8,2.4-19.8-6.2-25.8c0.2-2.5,2.8-6.2,0.1-8
		c-8.2-5.2-16.2-11-21.7-19.2C63.4,169.1,63.7,168.2,63.9,167.2z"/>
</g>
<g id="_x23_714b28ff">
	<path class="st158" d="M53.9,167.8c8.2,11.6,19.7,19.6,30.2,28.9c-0.5,0.1-1.6,0.3-2.2,0.4C72.2,188,58.5,181.1,53.9,167.8z"/>
</g>
<g id="_x23_f3d796ff">
	<path class="st159" d="M167.2,167.8c1.6,0.4,2.6,1.5,3.1,3.1c-0.8,0.8-1.6,1.5-2.4,2.3c-2.3,0.3-3.3-0.8-3-3.1
		C165.6,169.3,166.4,168.5,167.2,167.8z"/>
</g>
<g id="_x23_895015ff">
	<path class="st160" d="M177.9,181.1c2.6-4.9,7.1-8.4,10-13.2c0.3,0.6,0.9,1.8,1.2,2.4c-1.2,1.8-2.4,3.7-3.2,5.7
		c1.4-0.9,2.6-2,3.9-3c0.5,0.3,1.6,0.8,2.1,1c-9.6,13.3-23.5,22.6-37.8,30c-9.2,0.1-17.5,5.2-22,13.1c-2.3,2.7,4.1,12.1-1.9,10.8
		c-1.4-8.8-0.4-16.7,6-23c-9.5,4.2-6.9,14.6-7.4,23c-1.6-2-3.4-2.6-4.8,0c-2.2,1.7-3.6,0.6-4.1-2c0.2-7.3,0-14.6,0.3-21.9
		c2.5-4.9,7.1-7.7,12.3-9c-17.4-0.9-13.4,19.6-13.4,31.1l-0.9,0.2c-4.9-1.7-0.7-10.4-2.2-14.3c-2.5-7.8,3.2-15.5,10.1-18
		c12.1,3.2,22.9-2.9,33.7-7c0.4,1.1,0.8,2.3,1.3,3.4c-4.6,4.8-13.6,4.2-17,8.8c-7.3-0.7-15.8,1.8-18.7,9.2
		c-0.4,5.5-0.5,11.1-0.3,16.7c4.4-1.3,0.4-8.2,2-11.1c-1.3-9.5,9.2-14.3,17-14.8c7.3-1.3,14.4-4.3,20.2-8.9c2-1.1,4-2.2,6-3.2
		c-0.6,7.8-12.6,6.8-15.3,12c6.5-0.5,11.3-5.4,17-8c3.1-1.4,5.7-3.8,8-6.2c1.8-2.6,3.9-5,5.3-7.8
		C182.8,178.4,180.6,180.2,177.9,181.1 M141.4,195.5c-5.3,1.7-12.4,0.8-16.3,5.7c-0.8,1.3-4.8,3.2-2,4.6c2.8-0.6,3.8-4.9,6-6.6
		c4.7-0.5,9.5-1.3,13.9-2.9C145.9,196.5,149.6,192.2,141.4,195.5z"/>
</g>
<g id="_x23_9f7137ff">
	<path class="st161" d="M161.1,175.1c3,1.8,2.3-3.4,3.7-5c-0.3,2.2,0.8,3.3,3,3.1c-2.4,2.2-4.8,4.7-7.8,6
		C160.5,177.8,160.8,176.4,161.1,175.1z"/>
</g>
<g id="_x23_725333ff">
	<path class="st162" d="M35,170.9c3,4.4,7.5,8.9,9.1,14.2C39.8,181.7,36.1,176.2,35,170.9z"/>
</g>
<g id="_x23_ddb680ff">
	<path class="st163" d="M84.1,171.1c2,1.1,4.7,2.1,3.9,5C84.9,176.6,80.9,174,84.1,171.1z"/>
</g>
<g id="_x23_805d38ff">
	<path class="st164" d="M28.2,175.1c1.2-0.2,2.5-0.5,3.8-0.8c0.5,3.9,5,7.5,6.6,7.4c-1.5,0.6-3,1.4-4.4,2.3
		C34.1,180,30.9,176.4,28.2,175.1z"/>
</g>
<g id="_x23_edd39dff">
	<path class="st165" d="M155.9,176.2c1.5-1.2,3.4-2.4,5.2-1.1c-0.3,1.4-0.6,2.7-1.1,4.1c-0.5,0.3-1.6,0.9-2.2,1.1
		C156.6,179.2,156,177.8,155.9,176.2z"/>
</g>
<g id="_x23_966227ff">
	<path class="st166" d="M151.4,180.2c1.8-1,3.1-2.6,4.6-4.1c0,1.6,0.7,3.1,2,4.1c-9.3,7.7-22.2,9.8-34.1,10.5
		c-4.8-0.5-9.5,2.9-11.4,7c2.2,9.6-2.3,22.8,2.5,30.6c0.2,2.8,2.6,6.7-0.2,8.5c-5-0.3-9.8-1.5-14.8-2c-4-1.2-8.1-2.3-12-3.8
		c-0.4-2.5,1.5-6.9-1.9-7.2c-0.1-1.6-0.2-3.2-0.3-4.8c1.6,1.9,4.1,7.9,2.2-2c0-6.5,1.8-14.3-4.8-18.3c-0.3-0.4-1-1.2-1.4-1.6
		c0.6-0.1,1.6-0.3,2.2-0.4l0.6,0.6c8.7,6,3.6,18,6.2,25.8c4.6,3,3.6-1.7,3.9-5c5.1-0.1,18.8,5.1,17.2-4.2c0-2,0-3.9,0-5.9
		c-1.2-2.3,2.2-9.5-2.2-8.9c1.5-6,7.7-8.2,12.8-10.5c0.6-1.4,0.1-3.9,2.3-3.7c-2.5,4.1,5.6,4.4,5.3,0.2c1.1,2.5,1.3,5.2,5,2.2
		c2.4-0.3,4.8-1,6.4-3c1.4-1.1,2.8-2.3,4.4-3.3C144.9,186,151.9,184.4,151.4,180.2z"/>
</g>
<g id="_x23_c89a5fff">
	<path class="st167" d="M95.2,182.4c-4.4-2.1-3.9-7.6,1.4-4.3C98.4,180.1,97.9,181.7,95.2,182.4z"/>
</g>
<g id="_x23_7c5734ff">
	<path class="st168" d="M43.7,180.1c0.3-0.3,0.9-0.9,1.2-1.2c7.7,10.8,17.5,19.9,29,26.5c2.1,1.4,4.3,2.9,6.3,4.6
		c-2.5-0.2-4.8-1.1-7.2-2C62.7,199.4,51.3,191.6,43.7,180.1z"/>
</g>
<g id="_x23_ebcb91ff">
	<path class="st169" d="M145.9,181.1c1.5-1.4,3.6-0.8,5.5-0.8C151.9,184.4,144.9,186,145.9,181.1z"/>
</g>
<g id="_x23_d5bd86ff">
	<path class="st170" d="M54,181c5.1-1.3,8.6,4.7,9.1,9C59,189.7,54.3,185,54,181z"/>
</g>
<g id="_x23_be8c4bff">
	<path class="st171" d="M107.2,186c-6.4,1.2-6.5-7.1-0.1-4.1C107.7,183.3,107.7,184.7,107.2,186z"/>
</g>
<g id="_x23_dfb973ff">
	<path class="st172" d="M159.7,187c2.6-2.2,5.2-4.3,8-6.1c6.7,4.6-4.5,4.2-3.5,9.4c-0.8,0-2.4,0.1-3.2,0.1
		C160.6,189.3,160.1,188.1,159.7,187z"/>
</g>
<g id="_x23_e5ba72ff">
	<path class="st173" d="M209.4,181.3c7.6-1.2,2.6,8.5-1.2,9.3C202.6,188.9,207.2,183.9,209.4,181.3z"/>
</g>
<g id="_x23_dabe80ff">
	<path class="st174" d="M34.1,184c1.4-0.9,2.8-1.7,4.4-2.3c1.1,2.8,6.5,5.8,2.5,8.4C37.6,192.7,34.9,186.6,34.1,184z"/>
</g>
<g id="_x23_e1bc76ff">
	<path class="st175" d="M171.9,191.1c-3.4-4.4,8.3-13.9,8-6.2C177.6,187.3,175,189.6,171.9,191.1z"/>
</g>
<g id="_x23_e5b879ff">
	<path class="st176" d="M135.2,187.4c-1.4-4,3.9-5,6.4-3C140,186.4,137.6,187.1,135.2,187.4z"/>
</g>
<g id="_x23_b8823bff">
	<path class="st177" d="M113,184c3.7-2.3,6.8,0.8,6.1,4C115.3,190.2,112.3,187.2,113,184z"/>
</g>
<g id="_x23_e0bb78ff">
	<path class="st178" d="M179.9,192c1.4-4,5.7-10.4,10.5-6.7C187.6,188.2,184.3,192.6,179.9,192z"/>
</g>
<g id="_x23_89581fff">
	<path class="st179" d="M89.1,184.7c2,0.5,3.9,1.3,5.7,2.4c2.7,4.4,7.4,7.1,9.7,11.8c-3.7,5.5-3-1.3-8.2,0.1
		C98,192.6,86.1,190.4,89.1,184.7z"/>
</g>
<g id="_x23_d8a667ff">
	<path class="st180" d="M124.9,184.9c1.8-0.1,3.5,0,5.3,0.2C130.5,189.3,122.3,188.9,124.9,184.9z"/>
</g>
<g id="_x23_9c8a61ff">
	<path class="st181" d="M224.1,184.9c0.3,0.2,0.8,0.8,1.1,1c-20.5,36.4-62.4,58.8-103.9,57.9c-3.1-0.4-6.2-0.8-9.3-0.8
		c-30.4-1.8-58.8-17.9-79-40.4c1.2-3.3,6.2,5.5,8.6,6.5c4.7,4.5,10.1,8.3,15.5,11.9c12.2,9.2,26.8,14.9,41.7,18.1
		c10,1.9,20.4,2.9,30.6,2.3C167.9,240.3,204.1,217.6,224.1,184.9z"/>
</g>
<g id="_x23_825933ff">
	<path class="st182" d="M44.8,185.9c9.2,7.5,16.6,17.9,28.2,22.1c2.7,4.6,9.1,4.1,12.2,8.1c-7.8-1.6-14.7-6.4-21.1-10.9
		C56.7,199.9,49.7,193.4,44.8,185.9z"/>
</g>
<g id="_x23_ae7e3eff">
	<path class="st183" d="M112.3,188.8c2,3.4-6.8,5.7-2.6,10.3c1.2,4.7-2,2-3.4-0.3C106.6,194.6,109.4,191.5,112.3,188.8z"/>
</g>
<g id="_x23_a3692fff">
	<path class="st184" d="M161,190.4c0.8,0,2.4,0,3.2-0.1c-5.8,4.6-12.9,7.6-20.2,8.9C147.4,194.6,156.5,195.2,161,190.4z"/>
</g>
<g id="_x23_e4c791ff">
	<path class="st185" d="M47.2,196.2c3.1-3.5,6.1,3.4,7.7,5.6c-0.7,0.7-1.4,1.4-2.1,2.1C49.3,204.2,42.3,198.6,47.2,196.2z"/>
</g>
<g id="_x23_ab7337ff">
	<path class="st186" d="M118.9,226.1c0.1-11.5-4-31.9,13.4-31.1c-5.1,1.3-9.8,4.2-12.3,9c-0.3,7.3-0.1,14.6-0.3,21.9L118.9,226.1z"
		/>
</g>
<g id="_x23_a1672dff">
	<path class="st187" d="M141.4,195.5c8.2-3.2,4.4,1,1.7,0.8c-4.5,1.6-9.2,2.4-13.9,2.9c-2.3,1.6-3.2,6-6,6.6c-2.8-1.4,1.2-3.3,2-4.6
		C129,196.3,136.1,197.2,141.4,195.5z"/>
</g>
<g id="_x23_ecc988ff">
	<path class="st188" d="M193.3,201c1.6-2.2,4.7-8.3,7.5-4.8c3.8,3.4-2.3,7.6-5.7,7.8C194.5,203,193.9,202,193.3,201z"/>
</g>
<g id="_x23_734311ff">
	<path class="st189" d="M73.9,205.4c3.4-1.9,6.3-4.4,9.3-6.7c6.6,4,4.8,11.8,4.8,18.3c1.9,9.9-0.6,3.9-2.2,2
		c-3.1-2.4-11.5-5.2-10.7,1.5c3.8,0.6,7.1,5.8,11,3.4c3.4,0.3,1.4,4.6,1.9,7.2c-8.9-2.6-17.5-6.4-25.1-11.6c1.3-1.1,2-2.5,2.2-4.1
		c7.2,0.3,1.8-7.7-2.5-8.7l0.5-0.5c0.2-0.2,0.7-0.7,0.9-1c6.4,4.5,13.3,9.4,21.1,10.9c-3.1-4-9.5-3.5-12.2-8.1
		c2.3,0.8,4.7,1.7,7.2,2C78.2,208.4,76.1,206.9,73.9,205.4z"/>
</g>
<g id="_x23_eed892ff">
	<path class="st190" d="M96.3,199c5.2-1.4,4.4,5.4,8.2-0.1c0.9,1.9,1.7,2.5,1.8-0.1c1.4,2.3,4.6,5,3.4,0.3c4.5-0.6,1.1,6.5,2.2,8.9
		c-5.7,0-11.4,0-17,0C94.9,204.9,95.7,202,96.3,199z"/>
</g>
<g id="_x23_a2672dff">
	<path class="st191" d="M125.3,208.4c2.9-7.4,11.4-9.9,18.7-9.2c-7.8,0.5-18.3,5.3-17,14.8c-1.6,2.9,2.4,9.8-2,11.1
		C124.8,219.5,124.9,213.9,125.3,208.4z"/>
</g>
<g id="_x23_aa7a3eff">
	<path class="st192" d="M193.3,201c0.6,1,1.2,2,1.8,3c-4.6,0.5-4.9,5.9-7.9,8.2c1.6-3,0.2-5.1-3.1-5.2
		C187.7,205.7,191.9,205,193.3,201z"/>
</g>
<g id="_x23_8d6941ff">
	<path class="st193" d="M52.9,203.9c0.7-0.7,1.4-1.4,2.1-2.1c1.8,2.9,4.4,6.4,8.2,4.3l-0.5,0.5c-1.9,1.1-3.1,2.8-2.6,5.1
		C58.6,208.4,56.6,205.1,52.9,203.9z"/>
</g>
<g id="_x23_884d13ff">
	<path class="st194" d="M154,204c2.1,0.2,6-2.3,6.4,1.1c-11.6,1-26.9,8.5-24.9,22.4c-3.5-2.2-0.8-8-1.4-11.2
		C138.9,208.8,147.4,208.3,154,204z"/>
</g>
<g id="_x23_a0682cff">
	<path class="st195" d="M132,217.1c4.5-7.9,12.8-13.1,22-13.1c-6.6,4.3-15.1,4.8-19.9,12.2c0.7,3.2-2.1,9,1.4,11.2
		c0.7,0.6,1.5,1.2,2.2,1.8c-0.4,3.3-0.4,6.4,3.4,6.2c-4.6-0.1-12.7,4.5-14.2-1.6c-1.5-2.9,3.9-3.4,1.7-5.9c0.5-8.4-2.1-18.8,7.4-23
		c-6.4,6.3-7.4,14.2-6,23C136.1,229.3,129.7,219.8,132,217.1z"/>
</g>
<g id="_x23_cba762ff">
	<path class="st196" d="M44.2,204.8c3.3,3.1,6.8,5.9,10.1,9c1,2.4,1.8,4.9,2.8,7.3c-5.4-3.6-10.8-7.4-15.5-11.9
		C42.4,207.6,43.3,206.2,44.2,204.8z"/>
</g>
<g id="_x23_a3692eff">
	<path class="st197" d="M135.6,227.5c-2-13.9,13.2-21.4,24.9-22.4c-4.3,3.7-10.3,3.6-15.1,6.2c-4.7,4-9.7,8.8-7.4,15.8
		C137.3,227.2,136.2,227.4,135.6,227.5z"/>
</g>
<g id="_x23_ead7a2ff">
	<path class="st198" d="M60.1,211.7c-0.5-2.3,0.7-4,2.6-5.1c4.3,1,9.7,8.9,2.5,8.7C63.5,214,61.8,212.8,60.1,211.7z"/>
</g>
<g id="_x23_f3db9eff">
	<path class="st199" d="M184.1,206.9c3.3,0.2,4.7,2.2,3.1,5.2c-1.9,1.3-3.8,2.8-6.2,2.8c-1.2-1.5-2.6-3.3-1.2-5.2
		C181.3,208.9,182.7,207.9,184.1,206.9z"/>
</g>
<g id="_x23_cfa854ff">
	<path class="st200" d="M95,208c5.7,0,11.4,0,17,0c0,2,0,3.9,0,5.9c-5.7,1.1-11.3,0.5-17,0C95,211.9,94.9,210,95,208z"/>
</g>
<g id="_x23_a66b2fff">
	<path class="st201" d="M149,216c-1.1-5.8,6.9-6.3,11.1-6.9c-3,2.8-7.7,2.9-10.2,6c6.4-1,11.8-5.1,18.1-6.1
		C162.8,213.6,155.8,215.7,149,216z"/>
</g>
<g id="_x23_b08147ff">
	<path class="st202" d="M175,216.1c2.7-1.3,2.5-4.8,4.8-6.3c-1.3,1.9,0,3.7,1.2,5.2C179,215.3,177,215.7,175,216.1z"/>
</g>
<g id="_x23_c09342ff">
	<path class="st203" d="M54.3,213.7c2.9,1.9,5.9,3.6,8.7,5.7c7.6,5.2,16.2,9,25.1,11.6c3.9,1.5,8,2.6,12,3.8
		c-0.5,1.4-0.9,2.8-1.3,4.3c-14.9-3.2-29.4-8.9-41.7-18.1C56.1,218.6,55.3,216.1,54.3,213.7z"/>
</g>
<g id="_x23_eacc85ff">
	<path class="st204" d="M95,213.9c5.7,0.5,11.4,1.1,17,0c1.6,9.3-12.1,4.1-17.2,4.2C94.9,216.7,95,215.3,95,213.9z"/>
</g>
<g id="_x23_d6b573ff">
	<path class="st205" d="M75.2,220.5c-0.9-6.7,7.5-3.9,10.7-1.5c0.1,1.6,0.2,3.2,0.3,4.8C82.3,226.3,79,221.1,75.2,220.5z"/>
</g>
<g id="_x23_f0dfa7ff">
	<path class="st206" d="M163.1,219.1c2.2-1.6,4.9-3.2,7.8-2.9c0.4,1.5,0.9,3.1,1.2,4.7c-2.5,1.2-5.5,4.1-8.4,2.2
		C163.5,221.8,163.3,220.5,163.1,219.1z"/>
</g>
<g id="_x23_b78e59ff">
	<path class="st207" d="M170.9,216.2c1.3,0,2.7,0,4.1-0.1c-1,1.6-1.9,3.2-2.9,4.8C171.8,219.3,171.4,217.8,170.9,216.2z"/>
</g>
<g id="_x23_ae7e48ff">
	<path class="st208" d="M155.3,223.9c2.8-1.2,6.2-1.9,7.8-4.8c0.2,1.3,0.4,2.6,0.6,4c-3.1,0.2-6,1.3-8.5,3
		C155.2,225.6,155.3,224.4,155.3,223.9z"/>
</g>
<g id="_x23_f0d18eff">
	<path class="st209" d="M146.1,223.9c3.1-0.7,6.1-0.6,9.2,0c0,0.6-0.1,1.7-0.1,2.2C153.2,225.1,139.5,228.2,146.1,223.9z"/>
</g>
<g id="_x23_c49754ff">
	<path class="st210" d="M137.9,227.1c4.3,1.3,4.7-3.1,8.2-3.2c-6.6,4.3,7.1,1.1,9.1,2.2c-3.5,5.8-12,2.5-17.4,3.2
		c-0.8-0.6-1.5-1.2-2.2-1.8C136.2,227.4,137.3,227.2,137.9,227.1z"/>
</g>
<g id="_x23_d7b367ff">
	<path class="st211" d="M118.1,226.3l0.9-0.2l0.9-0.1c0.5,2.5,1.9,3.7,4.1,2c0,0.5,0,1.4,0.1,1.9c-6.3-2.3-5.3,10,0.2,6.3
		c-0.7,2.5-4.1,2.4-5.3,4.7c3.5,0.3,7,0.4,10.5,0.5c-10.2,0.6-20.5-0.3-30.6-2.3c0.4-1.4,0.8-2.9,1.3-4.3c4.9,0.5,9.8,1.7,14.8,2
		c2.8-1.9,0.4-5.7,0.2-8.5C116,227.6,117,226.9,118.1,226.3z"/>
</g>
<g id="_x23_966822ff">
	<path class="st212" d="M124.1,236.1c-5.5,3.8-6.5-8.6-0.2-6.3C124,231.9,124.2,234,124.1,236.1z"/>
</g>
<g id="_x23_c9bda1ff">
	<path class="st213" d="M112,242.9c3.1,0.1,6.2,0.4,9.3,0.8C118.8,243,113,245.6,112,242.9z"/>
</g>
</svg>
