<?xml version="1.0" encoding="utf-8"?>
<!-- Generator: Adobe Illustrator 26.0.3, SVG Export Plug-In . SVG Version: 6.00 Build 0)  -->
<svg version="1.1" id="Layer_1" xmlns="http://www.w3.org/2000/svg" xmlns:xlink="http://www.w3.org/1999/xlink" x="0px" y="0px"
	 viewBox="0 0 250 250" style="enable-background:new 0 0 250 250;" xml:space="preserve">
<style type="text/css">
	.st0{fill:#FBF3C8;}
	.st1{fill:#D9C373;}
	.st2{fill:#A47820;}
	.st3{fill:#E7D59A;}
	.st4{fill:#BA942B;}
	.st5{fill:#EDD561;}
	.st6{fill:#C8A346;}
	.st7{fill:#CCB165;}
	.st8{fill:#F2E1BC;}
	.st9{fill:#95814E;}
	.st10{fill:#D9C587;}
	.st11{fill:#DBC155;}
	.st12{fill:#E9D5A2;}
	.st13{fill:#F2E5BE;}
	.st14{fill:#F0DDAE;}
	.st15{fill:#8F7A49;}
	.st16{fill:#E1D2A4;}
	.st17{fill:#9D8144;}
	.st18{fill:#A58C4E;}
	.st19{fill:#F6E9C3;}
	.st20{fill:#DDBD69;}
	.st21{fill:#F5E4BB;}
	.st22{fill:#998857;}
	.st23{fill:#F3EACC;}
	.st24{fill:#F9F5D0;}
	.st25{fill:#CFA731;}
	.st26{fill:#E9DCAD;}
	.st27{fill:#F3E4B8;}
	.st28{fill:#8E8165;}
	.st29{fill:#EBDBA7;}
	.st30{fill:#93793F;}
	.st31{fill:#9E8953;}
	.st32{fill:#9A8E75;}
	.st33{fill:#9B978D;}
	.st34{fill:#F6EAB2;}
	.st35{fill:#F0E2BA;}
	.st36{fill:#E4C965;}
	.st37{fill:#EAD182;}
	.st38{fill:#E0C77E;}
	.st39{fill:#D8B963;}
	.st40{fill:#F4E9B1;}
	.st41{fill:#CBA953;}
	.st42{fill:#E6CA7D;}
	.st43{fill:#C59D41;}
	.st44{fill:#FBF6E6;}
	.st45{fill:#F9F6E2;}
	.st46{fill:#B09552;}
	.st47{fill:#AB8A42;}
	.st48{fill:#BF932D;}
	.st49{fill:#AEA178;}
	.st50{fill:#D6C59A;}
	.st51{fill:#DBBB6B;}
	.st52{fill:#F3E6BF;}
	.st53{fill:#75633B;}
	.st54{fill:#4A3B19;}
	.st55{fill:#F5ECD3;}
	.st56{fill:#211000;}
	.st57{fill:#ABA179;}
	.st58{fill:#C8901D;}
	.st59{fill:#BAA05E;}
	.st60{fill:#D8C587;}
	.st61{fill:#EFDDAD;}
	.st62{fill:#C4AC71;}
	.st63{fill:#2E1A00;}
	.st64{fill:#6F5A2F;}
	.st65{fill:#9C8A61;}
	.st66{fill:#A69D8C;}
	.st67{fill:#F8EECC;}
	.st68{fill:#3F2B02;}
	.st69{fill:#ABA199;}
	.st70{fill:#221402;}
	.st71{fill:#816933;}
	.st72{fill:#AE975E;}
	.st73{fill:#CBA956;}
	.st74{fill:#FBF9F0;}
	.st75{fill:#EDD98A;}
	.st76{fill:#A59D7D;}
	.st77{fill:#DDD2A7;}
	.st78{fill:#C2A356;}
	.st79{fill:#EFD657;}
	.st80{fill:#DFBB60;}
	.st81{fill:#F1E4B6;}
	.st82{fill:#E0CC9A;}
	.st83{fill:#EDDAAA;}
	.st84{fill:#E2CA96;}
	.st85{fill:#F4E5BE;}
	.st86{fill:#EFDFB4;}
	.st87{fill:#8E8C5D;}
	.st88{fill:#C3B273;}
	.st89{fill:#DCA823;}
	.st90{fill:#CCB06A;}
	.st91{fill:#EAD6A3;}
	.st92{fill:#9F9065;}
	.st93{fill:#DCC180;}
	.st94{fill:#ECDDB3;}
	.st95{fill:#9B9066;}
	.st96{fill:#C3AC7B;}
	.st97{fill:#9E8249;}
	.st98{fill:#E1C787;}
	.st99{fill:#83724F;}
	.st100{fill:#362307;}
	.st101{fill:#EAC777;}
	.st102{fill:#DFB13E;}
	.st103{fill:#D6BA72;}
	.st104{fill:#F8EFD7;}
	.st105{fill:#F2E6BD;}
	.st106{fill:#D3C8B0;}
	.st107{fill:#998D65;}
	.st108{fill:#F2E2B5;}
	.st109{fill:#F5E8BD;}
	.st110{fill:#E1C16C;}
	.st111{fill:#F2E4BB;}
	.st112{fill:#BA9036;}
	.st113{fill:#F5E1BA;}
	.st114{fill:#F6EED5;}
	.st115{fill:#A69671;}
	.st116{fill:#281503;}
	.st117{fill:#7D6A45;}
	.st118{fill:#F2E7C9;}
	.st119{fill:#E9C77F;}
	.st120{fill:#D3B87E;}
	.st121{fill:#CDB68F;}
	.st122{fill:#8C7B51;}
	.st123{fill:#F4D297;}
	.st124{fill:#957B45;}
	.st125{fill:#C59D43;}
	.st126{fill:#A29871;}
	.st127{fill:#FAE9C0;}
	.st128{fill:#E7D4A7;}
	.st129{fill:#A68C57;}
	.st130{fill:#F2E8CD;}
	.st131{fill:#F0DEAC;}
	.st132{fill:#BD9227;}
	.st133{fill:#D3BD89;}
	.st134{fill:#DAB65E;}
	.st135{fill:#E6CF97;}
	.st136{fill:#F4E1B3;}
	.st137{fill:#DEC383;}
	.st138{fill:#E5C97B;}
	.st139{fill:#AA9E78;}
	.st140{fill:#4E3208;}
	.st141{fill:#F4E5B8;}
	.st142{fill:#F5EACD;}
	.st143{fill:#F6E3BA;}
	.st144{fill:#F7E5C1;}
	.st145{fill:#E0C47C;}
	.st146{fill:#CDA344;}
	.st147{fill:#9E8A53;}
	.st148{fill:#F2E4B8;}
	.st149{fill:#938B69;}
	.st150{fill:#F8EDBD;}
	.st151{fill:#BD9F56;}
	.st152{fill:#ECD698;}
	.st153{fill:#EDD384;}
	.st154{fill:#F7E9C7;}
	.st155{fill:#BA8E2C;}
	.st156{fill:#A18E61;}
	.st157{fill:#E5CD8A;}
	.st158{fill:#A49E88;}
	.st159{fill:#898571;}
	.st160{fill:#CCA448;}
	.st161{fill:#5A431B;}
	.st162{fill:#D0B482;}
	.st163{fill:#452906;}
	.st164{fill:#ECD7A0;}
	.st165{fill:#9B7A33;}
	.st166{fill:#CEA42D;}
	.st167{fill:#C08A19;}
	.st168{fill:#FBF7E0;}
	.st169{fill:#E0BF69;}
	.st170{fill:#F9F6E3;}
	.st171{fill:#B3A374;}
	.st172{fill:#F0DCA5;}
	.st173{fill:#F0E5C4;}
	.st174{fill:#B7B28E;}
	.st175{fill:#ACA47C;}
	.st176{fill:#D8A42E;}
	.st177{fill:#E3CF97;}
	.st178{fill:#BE9F58;}
	.st179{fill:#EFE0B4;}
	.st180{fill:#A29475;}
	.st181{fill:#D9BF7B;}
	.st182{fill:#AFAB9C;}
	.st183{fill:#B89240;}
	.st184{fill:#AAA59A;}
	.st185{fill:#F5E4B2;}
	.st186{fill:#BEA35D;}
	.st187{fill:#EDD9A3;}
	.st188{fill:#EED799;}
	.st189{fill:#E8D49C;}
	.st190{fill:#F6DFAE;}
	.st191{fill:#EFE1C0;}
	.st192{fill:#F5E5BD;}
	.st193{fill:#D6AE4E;}
	.st194{fill:#ECD289;}
	.st195{fill:#E7D496;}
	.st196{fill:#E4D29A;}
	.st197{fill:#E0CC86;}
	.st198{fill:#D7AB3F;}
	.st199{fill:#E3CD8E;}
</style>
<g id="_x23_fbf3c8ff">
	<path class="st0" d="M103.5,0h15c-5.6,3.2-12.5,1.8-18.7,2.9C101.1,2,102.3,1,103.5,0z"/>
</g>
<g id="_x23_d9c373ff">
	<path class="st1" d="M118.5,0h15c22.9,3,45,10.3,64,23.5c3.3,3.8,7,6.4,11.1,9.8c1.2,4.3,5.8,6.6,7.5,10.7
		c-7.1-6.2-13.4-13.4-21.7-18.2c-13.1-8.8-27.9-15.4-43.3-18.8c-19.9-4.4-40.4-3.6-60.1,1.4c0.2-1.1,0.5-2.3,0.8-3.4
		c2.7-0.5,5.3-1.2,7.9-2C106,1.8,112.9,3.2,118.5,0z"/>
</g>
<g id="_x23_a47820ff">
	<path class="st2" d="M91.1,8.3c19.6-5,40.2-5.7,60.1-1.4c-1.7,2.9-3.9,5.9-7.4,6.4c-15.1-2.4-31-2.6-45.7,1.7
		c-14.2,2.4-26.8,9.7-38.9,17.1c0.2,1.3,0.5,2.5,0.8,3.8c-3.1,2.4-6.2,4.9-9.1,7.5c-5.8,5.3-11,11.2-15.6,17.5
		c-2.5-2.3-4.1,0.8-5.7,2.5C23,73.5,17.8,84.4,14.8,95.9c-4.4,14.1-4.1,29-3.7,43.7c-0.4,3.8-0.5,9.8-6.1,8.5
		C-1.6,116.7,5.7,83.7,23,57c9-14.4,21.9-25.9,36.2-35c2.3-1.3,4.5-2.7,6.7-4.1C74.2,14.6,82.3,10.4,91.1,8.3z"/>
</g>
<g id="_x23_e7d59aff">
	<path class="st3" d="M65.8,17.9c6.7-7.4,16.7-10.6,26.1-13c-0.3,1.1-0.5,2.2-0.8,3.4C82.3,10.4,74.2,14.6,65.8,17.9z"/>
</g>
<g id="_x23_ba942bff">
	<path class="st4" d="M151.2,7c15.4,3.3,30.2,10,43.3,18.8c-0.1,5.9-4.9,5-8.8,3.5c-5.5-2.8-10.5-6.9-16.6-8.3
		c-8.1-3.5-16.6-6-25.3-7.5C147.4,12.9,149.6,9.8,151.2,7z"/>
</g>
<g id="_x23_edd561ff">
	<path class="st5" d="M98.1,15.1c14.8-4.3,30.7-4.1,45.7-1.7c8.7,1.5,17.2,4,25.3,7.5c-0.1,0.8-0.2,2.5-0.3,3.3
		c-2.3-0.7-4.4-1.8-6.7-2.6c-6-1.1-12.1-0.5-18.2,0c-2.9-8.2-12.6-4.7-19.1-6.6c-8.7-0.4-17.2,1.9-25.8,2.9
		C96.5,17.5,95.3,16.5,98.1,15.1z"/>
</g>
<g id="_x23_c8a346ff">
	<path class="st6" d="M59.2,32.2c12.1-7.4,24.7-14.7,38.9-17.1c-2.8,1.4-1.6,2.5,1,2.8c8.6-1,17.1-3.3,25.8-2.9
		c2.9,0.9,1.5,5.6-0.8,6.4c-0.3,0.1-1,0.3-1.3,0.5c-6.5-2.8,3.5,7,1.3,9.9c0.3-0.1,1-0.4,1.3-0.5c0.3-0.1,1-0.2,1.3-0.2
		c0.3,2.9,2.6,4.9,4.4,6.9c-8.9-0.2-17.8,0.9-26.5,2.9c-2.1,0.6-4.9,0.6-5.9,2.8c-2.4,4.6-8.4,4-12,7c-2.1,1-4.1,2.2-6.2,3.3
		c-1.2-0.5-2.3-0.9-3.5-1.3c1.9-2.2,3.8-4.7,4.2-7.7c2-1.7,5.3-2.7,5.2-5.9c-2,4.3-11.1-4.1-4.3-3.8c0.6-1.9-1.1-2.2-2.5-2.5
		c0.9-2.5,2.8-4.3,5.3-5.2c-6.3-5.3-16.1,3.6-21.9,7.1c-1,0.5-1.9,0.9-2.9,1.3C59.7,34.8,59.4,33.5,59.2,32.2 M108.9,24.1
		c-1.3-1.1-3.1-0.8-4.6-1c0.7,4.2-3,1.2-5.4,1.9c-0.4,0.1-1.2,0.4-1.6,0.5c-4,2.3,0.2,8.8,1.9,12.4c4.8-0.9,9-4.3,14.2-3.6
		c-0.7,3.2,8.2-2.5,4.8-2.3l-0.2-0.9c-2.2-2.2-0.2-7.4-1.8-8c-0.5-0.6-3.9-2.4-3-0.6c-1.8-0.1-2.7,0.7-2.5,2.6
		C110.7,23.1,108.4,20.2,108.9,24.1 M84.1,30.8c-1.3,1.7,4.2,7.8,7.5,8.7c3.7,2.8,1.4-8.2,0.3-3.2C89.5,34.9,84.6,25.8,84.1,30.8z"
		/>
</g>
<g id="_x23_ccb165ff">
	<path class="st7" d="M124.9,15c6.5,1.9,16.2-1.7,19.1,6.6c-1.7,2.5-1.3,4.9,2,4c-0.6,2.5-0.9,5-0.9,7.6c1.2,4,8.8,2.6,10-1.2
		c1.6-1.5-0.8-4.5,1.5-5.2c0.9,3.8,0.5,8.4-3.6,9.7c-4,0.8-7.5-0.7-11-2.4c-3.5,1.8-6.6,6.3-10.8,3.8c-1.8-2-4.1-4-4.4-6.9
		c-1.2-3.3,0.9-6.1,2.5-8.8c-2,1.6-3.8,1.2-5.2-0.8C126.4,20.6,127.8,16,124.9,15 M134.1,25.2c-0.3-0.4-1-1.1-1.3-1.4
		c0.6-2.1-1.5,0.7-2.1,1c-3.5,5.5,6.6,14,10.5,7.3c-2.7,0.8-6.4,1.9-8.2-1c0.2-0.2,0.7-0.7,1-1c1.9-2.2,1.2-8.4,6.3-5.3
		C140,20.5,135,22.3,134.1,25.2z"/>
</g>
<g id="_x23_f2e1bcff">
	<path class="st8" d="M124.1,31.8c2.2-3-7.8-12.7-1.3-9.9c1.6,2.9,2.3,6.1,2.6,9.4C125.1,31.4,124.4,31.6,124.1,31.8z"/>
</g>
<g id="_x23_95814eff">
	<path class="st9" d="M122.8,21.8c0.3-0.1,1-0.4,1.3-0.5c1.4,2.1,3.2,2.4,5.2,0.8c-1.6,2.7-3.7,5.5-2.5,8.8c-0.3,0.1-1,0.2-1.3,0.2
		C125.1,28,124.3,24.8,122.8,21.8z"/>
</g>
<g id="_x23_d9c587ff">
	<path class="st10" d="M144,21.6c6-0.5,12.2-1.1,18.2,0c-2.3,1-6.2,2-5.6,5.2c-2.3,0.7,0.1,3.8-1.5,5.2c-1.2,3.7-8.8,5.1-10,1.2
		c0.2-0.3,0.7-0.8,0.9-1.1c2-2.4,3.4-5.3,6-7.2c-1.8,0.2-3.5,0.5-5.2,0.8l-0.9,0C142.6,26.4,142.3,24.1,144,21.6z"/>
</g>
<g id="_x23_dbc155ff">
	<path class="st11" d="M169.1,20.9c6.1,1.5,11.1,5.5,16.6,8.3c19.6,13.8,36.6,32.2,45.4,54.7c-3.6-2.5-2.3,2.2-2.1,5.1
		c-1.6-2.9-3.7-5.7-6.6-7.4c-0.3-4.6-4-7.7-7-10.8c-3.7-14.6-13.7-26.9-26.3-35c-3.2-2.2-6.6-4.1-10-6.1c-2.6-2.3-5.7-4-8.9-5
		c-0.4-0.1-1-0.4-1.4-0.5C168.9,23.3,169,21.7,169.1,20.9z"/>
</g>
<g id="_x23_e9d5a2ff">
	<path class="st12" d="M20.8,55.8c9.9-14,21.7-28.6,38.3-33.8C44.9,31.1,32,42.6,23,57C22.4,56.7,21.4,56.1,20.8,55.8z"/>
</g>
<g id="_x23_f2e5beff">
	<path class="st13" d="M108.9,24.1c-0.5-3.9,1.9-1,1.8,1.1c0.3,2.7,0.7,5.3,1,8C108.1,32.4,109.9,26.9,108.9,24.1z"/>
</g>
<g id="_x23_f0ddaeff">
	<path class="st14" d="M113.2,22.7c-0.9-1.9,2.4,0,3,0.6C116.7,27.5,113.3,25.7,113.2,22.7z"/>
</g>
<g id="_x23_8f7a49ff">
	<path class="st15" d="M134.1,25.2c0.9-2.9,5.9-4.7,6.1-0.4c-5-3.1-4.4,3.1-6.3,5.3C134,28.4,134.1,26.8,134.1,25.2z"/>
</g>
<g id="_x23_e1d2a4ff">
	<path class="st16" d="M156.6,26.8c-0.6-3.3,3.3-4.2,5.6-5.2c2.3,0.8,4.4,1.9,6.7,2.6c0.3,0.1,1,0.4,1.4,0.5
		c-8.2,1.2,0.7,3.9,1.5,8.1c-1.2,4.1,0.2,8.3-0.6,12.5c-3.9,0.3-3.3-4.3-2.8-7c4.8-14.6-7.6,5-1.5,0.7c-1.4,3.9,0.6,7.5,2.3,11
		c-6.7-2.7-13.8-5.9-16.2-13.4C157.1,35.2,157.5,30.6,156.6,26.8 M163.2,29.2c-1.8,2-4.2,7.8-2.5,8.5
		C160.7,35,166.6,28.6,163.2,29.2z"/>
</g>
<g id="_x23_9d8144ff">
	<path class="st17" d="M104.2,23.2c1.5,0.2,3.3-0.1,4.6,1c1.1,2.8-0.8,8.2,2.8,9.2c-0.3-2.7-0.7-5.4-1-8c-0.1-1.8,0.7-2.7,2.5-2.6
		c0.2,3,3.5,4.8,3,0.6c1.6,0.5-0.4,5.8,1.8,8c-1.6-1.5-3.3-3-5.1-4.3c0.5,2.7,1.9,5.9,5.3,5.2c3.4-0.2-5.5,5.5-4.8,2.3
		c-5.2-0.8-9.4,2.6-14.2,3.6c-1.7-3.6-5.8-10.1-1.9-12.4c1.8,3-0.5,10.1,4.5,9.5c-0.9-3.4-2-6.7-2.9-10.1
		C101.2,24.4,104.9,27.4,104.2,23.2z"/>
</g>
<g id="_x23_a58c4eff">
	<path class="st18" d="M130.7,24.7c0.6-0.3,2.7-3.1,2.1-1c-0.1,2.4-1.4,5.1,0.1,7.3c1.8,2.9,5.5,1.8,8.2,1
		C137.3,38.7,127.2,30.2,130.7,24.7z"/>
</g>
<g id="_x23_f6e9c3ff">
	<path class="st19" d="M132.8,23.8c0.3,0.4,1,1.1,1.3,1.4c-0.1,1.6-0.1,3.3-0.2,4.9c-0.2,0.2-0.7,0.7-1,1
		C131.4,28.9,132.7,26.2,132.8,23.8z"/>
</g>
<g id="_x23_ddbd69ff">
	<path class="st20" d="M62.9,34.7c5.9-3.5,15.7-12.4,21.9-7.1c-2.5,0.9-4.3,2.7-5.3,5.2c-1.3,0.3-2.5,0.7-3.8,1.1
		c-1,0.1-1.7,0.6-2,1.6C74,38.8,76,48.3,81.1,45c-0.4,3-2.3,5.4-4.2,7.7c-3.8,2.5-7.4,5.5-11,8.2c1.8-8.1,2.5-16.5,0.8-24.7
		C66,34.9,64.2,35,62.9,34.7z"/>
</g>
<g id="_x23_f5e4bbff">
	<path class="st21" d="M97.3,25.6c0.4-0.1,1.2-0.4,1.6-0.5c0.9,3.4,2,6.7,2.9,10.1C96.8,35.7,99.2,28.6,97.3,25.6z"/>
</g>
<g id="_x23_998857ff">
	<path class="st22" d="M146.8,25.6c1.7-0.3,3.5-0.6,5.2-0.8c-2.6,1.9-4,4.8-6,7.2C146.2,29.9,146.5,27.8,146.8,25.6z"/>
</g>
<g id="_x23_f3eaccff">
	<path class="st23" d="M171.7,32.8c-0.9-4.2-9.7-6.9-1.5-8.1c3.3,1.1,6.4,2.7,8.9,5c3.4,8.2,2.8,17.2,2.2,25.9
		c-1.5,0.4-3.1-0.2-4.6-0.4c-2.7-1.5-5.4-3.2-7.6-5.3c-1.6-3.5-3.7-7.1-2.3-11c0-1.9,0.5-2.2,1.5-0.7c-0.5,2.7-1.2,7.3,2.8,7
		c2.2-3.5,4.6-6.9,7-10.3C173.7,35.8,170.4,44.8,171.7,32.8z"/>
</g>
<g id="_x23_f9f5d0ff">
	<path class="st24" d="M145.1,33.2c0-2.6,0.3-5.1,0.9-7.6l0.9,0c-0.3,2.1-0.6,4.3-0.8,6.5C145.8,32.4,145.3,32.9,145.1,33.2z"/>
</g>
<g id="_x23_cfa731ff">
	<path class="st25" d="M194.5,25.7c8.3,4.8,14.6,12,21.7,18.2c9.3,10.3,16.7,22.1,21.8,34.9c10.5,27.8,11.8,58.9,3,87.3
		c-2.3,8.8-7.3,16.6-11.2,24.8c-0.6,1-1.2,1.9-1.8,2.9c-11.7,15.2-24.8,29.7-41.4,39.6c-2.8,0.4-4.4,2.4-5.6,4.8
		c-1.7-1.8-4.9-1.7-4.1,1.5c-0.4,0.3-1.3,0.8-1.7,1.1c-2.6-1.7-4.7,0.1-6,2.4c-2.6-1.8-4.8-0.6-6,2.1c-1.2-0.5-2.4-1-3.6-1.6
		c-1-1.4-5.9-5.5-1.6-4.8c3.2,2.5,12.6,2.2,7.4-2.7c5.2-3,12.5,2.4,16.6-3.5c4.4-5,12.9-4.9,15.5-11.6c4.4-7.5,22.4-9,15.6-20.3
		c2.9,0.9,6.8,3.8,8-0.9c4.5-4.3-1.9-4-3.8-6.8c1.4-2.1,3.4-6.2-1-5.2c2.2-3.5,4.3-7,6-10.7c4.4-7.4,4.8-16.7,9.6-23.9
		c1.4,0.2,3.3,1.3,4-0.6c5.5-22.7,4.5-47.1-4.6-68.8c-8.8-22.5-25.9-41-45.4-54.7C189.6,30.7,194.4,31.6,194.5,25.7z"/>
</g>
<g id="_x23_e9dcadff">
	<path class="st26" d="M112.9,26.9c1.8,1.3,3.5,2.8,5.1,4.3l0.2,0.9C114.8,32.8,113.4,29.6,112.9,26.9z"/>
</g>
<g id="_x23_f3e4b8ff">
	<path class="st27" d="M84.1,30.8c0.5-5,5.4,4.1,7.8,5.5C90.9,41,86.2,32,84.1,30.8z"/>
</g>
<g id="_x23_8e8165ff">
	<path class="st28" d="M163.2,29.2c3.3-0.6-2.5,5.8-2.5,8.5C159,37,161.5,31.1,163.2,29.2z"/>
</g>
<g id="_x23_ebdba7ff">
	<path class="st29" d="M179.1,29.7c3.4,1.9,6.8,3.8,10,6.1c2.9,5.8,8.6,12,10.2,17.2c-2.6-0.8-4.9-2.1-7-3.7
		c0.6,3.1-6.7,5.2-2.1,6.5c2.3,0.4,0.5,3.3,2.2,4.4c1.5,1.2,3.8-0.2,5.6,0c-0.3,4.3-3.7,8.2-8.3,7.1c-4.1-4.2-8.7-8-13-12
		c1.5,0.2,3,0.7,4.6,0.4C182,46.9,182.6,37.9,179.1,29.7z"/>
</g>
<g id="_x23_93793fff">
	<path class="st30" d="M91.6,39.5c-3.3-0.9-8.8-7-7.5-8.7C86.2,32,90.9,41,92,36.3C93.1,31.3,95.3,42.2,91.6,39.5z"/>
</g>
<g id="_x23_9e8953ff">
	<path class="st31" d="M75.7,33.9c1.2-0.4,2.5-0.7,3.8-1.1c1.4,0.3,3.1,0.6,2.5,2.5c-6.8-0.3,2.2,8,4.3,3.8c0.2,3.2-3.1,4.2-5.2,5.9
		c-5.1,3.2-7.1-6.2-7.3-9.5c3.5,1.7,2.7,9.9,7.1,7.4C78.9,40.1,77.1,37.1,75.7,33.9z"/>
</g>
<g id="_x23_9a8e75ff">
	<path class="st32" d="M166.9,38.9c-6.1,4.3,6.3-15.3,1.5-0.7C167.4,36.7,166.9,37,166.9,38.9z"/>
</g>
<g id="_x23_9b978dff">
	<path class="st33" d="M171.2,45.2c0.8-4.1-0.6-8.3,0.6-12.5c-1.4,12.1,2,3.1,6.4,2.2C175.8,38.3,173.4,41.7,171.2,45.2z"/>
</g>
<g id="_x23_f6eab2ff">
	<path class="st34" d="M208.7,33.2c16.4,13.1,27.1,32.6,34.4,51.9c-2.7-1.1-2.8-4.6-5.1-6.3c-5.1-12.8-12.5-24.7-21.8-34.9
		C214.4,39.8,209.9,37.6,208.7,33.2z"/>
</g>
<g id="_x23_f0e2baff">
	<path class="st35" d="M73.8,35.5c0.3-1,0.9-1.5,2-1.6c1.4,3.2,3.2,6.2,5.1,9C76.5,45.4,77.2,37.2,73.8,35.5z"/>
</g>
<g id="_x23_e4c965ff">
	<path class="st36" d="M131.1,38c4.2,2.5,7.3-2,10.8-3.8c3.5,1.7,7,3.2,11,2.4c2.4,7.4,9.5,10.7,16.2,13.4c2.3,2.1,5,3.7,7.6,5.3
		c4.4,4,8.9,7.8,13,12c5.8,6.4,11.2,13.2,15.1,20.8c5.2,2.4,3,8.9,7.3,12.1c0.6,3.1,2.1,6.1,2.1,9.3c-1.9,6.6,1.2,13,1.4,19.6
		c-1.5,7.7-1.7,15.6-2.5,23.5c-4.6,2.6-5.6,8.1-9.3,11.4c1.1-3.3,3-7,0.5-10.2c0-1.2,0-2.4,0-3.6c6.6-8.5-4.9-8.5-8.1-13.6
		c-1.7-2.7,1.7-0.6,3-0.4c3.8,0.4,5.4,4.3,8.5,6c6.8-33.7-9.3-70.2-38.7-87.7c-7.9-5.3-16.7-8.8-25.9-11c-10-2.4-20.6-3.4-30.7-1.1
		c-3.1,1.8-5.7,0.2-7.9-1.5C113.3,38.8,122.2,37.8,131.1,38z"/>
</g>
<g id="_x23_ead182ff">
	<path class="st37" d="M60,36c1-0.4,1.9-0.9,2.9-1.3c1.4,0.3,3.1,0.2,3.9,1.6c1.7,8.2,1,16.6-0.8,24.7c-5.7,4.4-9.3,10.7-13.9,16.1
		c0.4-5.3,1-11,5-14.8c-1.2-4,7.8-6.8,4.2-7.5c-4.2,0.5-6-1.2-5.3-4.9c0.6-3.3-2.6-5.1-5.1-6.3C53.8,40.9,56.8,38.4,60,36z"/>
</g>
<g id="_x23_e0c77eff">
	<path class="st38" d="M189.1,35.8c12.5,8.1,22.5,20.4,26.3,35c0.4,5-7.3,3.9-7.5,8.3l-0.2,0.9c-4.8-5.9,1.1,9.6,4.2,7.2
		c2.5-3.2,0,3.2,0,4.7c0.6,0.7,1.2,1.4,1.9,2.1c-0.6,2-1.1,4-1.6,6c-4.3-3.2-2.1-9.7-7.3-12.1c-3.9-7.6-9.3-14.5-15.1-20.8
		c4.6,1.1,8-2.8,8.3-7.1c-1.8-0.2-4.1,1.2-5.6,0c1.4-2.8,4.2-1.4,6.6-1.2c-1.2-2.2-3-4.6,0.3-6C197.8,47.8,192.1,41.6,189.1,35.8z"
		/>
</g>
<g id="_x23_d8b963ff">
	<path class="st39" d="M98.7,43.7c1.1-2.2,3.9-2.2,5.9-2.8c2.2,1.7,4.8,3.3,7.9,1.5c10.1-2.3,20.7-1.3,30.7,1.1
		c-6.4,0.9-12.5,5.8-11.9,12.8c-1.4,4.2-3.4-1.1-3.6-3.2c-3.6-8.5-17.7-7.6-20.1,1.5c-1.9,1.3-2.5,3.4-1.8,6.1
		c-5.9,6-19.4-0.5-21.1,9.2c-3,0.7-7.8-0.8-6.6-4.7c4.4-6.6,13-4.1,19.5-6.6c1.6-3,3.9-6.1,4.3-9.5c-5.1-3.7-9.9,2.9-15.3,1.5
		C90.3,47.7,96.3,48.2,98.7,43.7z"/>
</g>
<g id="_x23_f4e9b1ff">
	<path class="st40" d="M35.3,61.1c4.6-6.3,9.8-12.2,15.6-17.5c2.5,1.2,5.6,3,5.1,6.3c-1.8,2.2-4.2,3.1-7,2.2c2,3,1.6,5.6-0.5,8.1
		c-1.4,3.9,3.7-0.3,5.6-0.5c1.1,0.8,2,1.7,3,2.5c-4.1,3.8-4.7,9.5-5,14.8c-5.7,9.2-10.3,19.1-12.4,29.8c-4.9,20.5-1.3,42.4,8.3,61.1
		c2.3,7.2,6,14.2,8.9,21c-2.1,1-4.3,1.8-6.5,2.4c0.6,2.4,0.4,4.7-1.2,6.7c-3.6,3.6,5.4,1.6,5.1-1.2c1,1.4,1.8,2.9,2.5,4.4l0,0.9
		c-2.8,1.6-6,1.9-9,2.8c-6.1-5.9-11.4-12.7-16-19.9c-0.9-6.3-1-12.8,1.1-18.9c2.2-2.3,5.7-4,6.2-7.4c-2.5,2-4.9,4.2-7.3,6.4
		c-1.5-2.7,10.9-8.9-0.9-6.3c-4.4,0.1,0.1-1.6,2.1-1.2c-1.9-0.6-3-2-3.2-3.9c6.7,1.3,8-5.4,4.2-9.2c2.5,6.5-1.9,8.1-8.3,8.5
		c-3.2-3.9,10.8-0.9,5.9-4.6c3.2-2.5-2.8-3.5-0.5-6.3c3.8,0.7,4.1-5.2,0.2-4.6c0.6-1.4,2.5-3.1,0.9-4.6c-1.1-4.4,0.6-9.2-1.3-14
		c1.5-2.4,4.5-5.5,2-8.3c-0.6-1-1.4-1.8-2.2-2.7c3.1-2.1,6.2-5.2,5.1-9.3c-0.7-1.8-1.8-3.3-2.8-4.9c1.6,0,3.5,1.2,4.9,0.3
		c1.8-0.8,1.4-3.7-0.8-3.3c-1.7-1.4-4.3-2.5-4.2-5.1c3.2,1,8.5,5.8,8.3-0.8c-3,3.8-5.5-1.4-2.2-3c1.7-0.6,5.7,1.1,5-1.9
		c-4.7,0.4-9.4,0.9-14,2c4.5-3.4,0.6-9.5,0.9-14.3C32.3,65.5,33.8,63.3,35.3,61.1 M38.7,175.2C34,174.4,38.3,179.6,38.7,175.2
		c2.4-0.1,5.4-0.8,6.5-3.2C42.6,171.8,40,172.9,38.7,175.2z"/>
</g>
<g id="_x23_cba953ff">
	<path class="st41" d="M131.4,56.4c-0.6-7,5.5-11.9,11.9-12.8c9.2,2.1,18.1,5.7,25.9,11c-3.6,2.3-5.5,7.8-10.9,5.4
		c-3.5-2.9-3-8.8-8.1-10.1c-3.5-3.3-11.9-3-11.2,3.2c0,0.5-0.1,1.4-0.1,1.9c-1.4,0-2.7,0-4,0.1c-2.6,0.1-3.2,2.1-1.8,6
		c-6.6,6.4-8-5.9-12.5-8.4c-2.7-2.9-7.7-1.3-8.7,2.3c-1.4,0-2.7-0.1-4.1-0.2c2.4-9.1,16.5-10,20.1-1.5
		C127.9,55.2,130,60.6,131.4,56.4z"/>
</g>
<g id="_x23_e6ca7dff">
	<path class="st42" d="M86.7,50.7c5.4,1.5,10.2-5.2,15.3-1.5c-0.4,3.4-2.6,6.5-4.3,9.5c-6.5,2.5-15.1,0-19.5,6.6
		c-1.2,3.9,3.6,5.4,6.6,4.7c4.5,0.2,9.1-0.5,13.5,0.7C91.2,71,84.1,70.9,77,71.1c0,1.4-0.2,2.9,0.6,4.2L78,76c2.2,2.3,6.9,0.4,10,1
		c-0.6,7.7-1.2,15.3,0,22.9c-2.7,3.7-5.5-0.6-5.1-3.7c7.1-5.9-3.7-5-8.3-6.8c-8.4-0.3-20.5-2.2-23.7,7.6c3.7,0.2,6.8-3.2,10.4-2.4
		c3.9,4.2-0.6,9.1-2.8,12.8c0.9,2.9-2.3,12,3.4,10.1c1.2,2.4,1.9,5,3.2,7.4c-5,0.1-6.2-6.8-10.9-7c-3.3,5.9,1.5,14-6.4,16.6
		c-5.5-2.3-7.7-9.7-7-15.7c0.3-3.6,0.9-7.1,1.4-10.7c4.4-22.4,19.2-42,38.4-54C82.5,53,84.6,51.8,86.7,50.7z"/>
</g>
<g id="_x23_c59d41ff">
	<path class="st43" d="M139,53c-0.7-6.1,7.7-6.5,11.2-3.2c5.1,1.3,4.6,7.2,8.1,10.1c5.4,2.4,7.3-3.1,10.9-5.4
		c29.4,17.6,45.4,54.1,38.7,87.7c-3.1-1.7-4.7-5.6-8.5-6c-1.4-0.2-4.7-2.4-3,0.4c3.2,5.1,14.7,5.1,8.1,13.6c-1.5-3.8-3.1-10.4-4.9-3
		c-2.2-0.9-1.8-7.5-4.6-3.2c-3.3,0.7-5.9,3.1-8.8,4.9c-1.9,0.9-3.4,2.2-4,4.3c-1.3-4.7-2.1-9.4-2.9-14.2c4.7,0.3-0.6-7.7,0.2-11.2
		c5.1,4.3,2.6-2.9,2.6-6.3c2,0,3.9-0.1,5.8-0.5c1-4.3-3.4-7-4-11c1.5,0.3,2.7,1.2,3.9,2.2c4,8.2,9.6-6.5,3.3-7.1
		c1.5,3.1,1.1,11.3-3.1,6.1c1-4,1.7-10.6-3.7-11.6c-0.2-3.4,5.8-1.3,7.4-4.7c-1.5,4.2,2.1,5.7,4.6,7.3c-0.1-2.5-4.2-6.4,0.4-6.4
		c-0.6-2.1,0.3-3.1,2.5-3c-5.5-3.3-12-1.4-17.9-2.9c-1.3-0.3-3.8-0.9-5.1-1.3c1.2-7.6,0.3-17.2-6-22.5c-4.8-3.5-12.8,0.4-16.1-4.9
		C151.7,55.2,145.5,47.5,139,53 M187.4,131.3c-1.7,1.6-5.2,4.5-2.1,6.6C189.6,140.1,189.5,130,187.4,131.3z"/>
</g>
<g id="_x23_fbf6e6ff">
	<path class="st44" d="M192.4,49.3c2.1,1.6,4.4,2.9,7,3.7c-3.3,1.3-1.5,3.7-0.3,6c-2.4-0.2-5.2-1.6-6.6,1.2c-1.7-1.1,0.1-4-2.2-4.4
		C185.7,54.5,193,52.4,192.4,49.3z"/>
	<path class="st44" d="M134.9,55c1.3-0.1,2.7-0.1,4-0.1c2.5,0.1,4.9,0.4,7.3,0.8c-0.1,4.9-0.2,9.7-0.1,14.6l-0.1,0.8
		c-2.1,1.1-3.6,2.7-2.4,5.1c-0.6-0.1-1.8-0.2-2.4-0.2l-1-0.1c-8-1.3-16.1-0.9-24.1-0.8c0.7-1.3,1.4-2.7,2-4c5.2,0,10.4,0,15.6-0.2
		C134,65.6,134,60.2,134.9,55z"/>
</g>
<g id="_x23_f9f6e2ff">
	<path class="st45" d="M49,52.1c2.8,0.9,5.1,0,7-2.2c-0.6,3.7,1.2,5.4,5.3,4.9c-3.9,0.7-5.7,3.1-4.2,7.5c-1-0.9-2-1.8-3-2.5
		c-1.6-1.5-3.8,0.2-5.6,0.5C50.6,57.7,51,55.1,49,52.1z"/>
</g>
<g id="_x23_b09552ff">
	<path class="st46" d="M111.7,54.8c1-3.7,6-5.2,8.7-2.3c4.6,2.5,5.9,14.9,12.5,8.4c3.7,10.5-4.5,9.9-12,9.1
		c-1.4-4.1,2.6-12.1-1.7-14.4C116.8,55.2,114.3,55,111.7,54.8z"/>
</g>
<g id="_x23_ab8a42ff">
	<path class="st47" d="M139,53c6.5-5.5,12.7,2.2,15,8c3.4,5.4,11.4,1.4,16.1,4.9c6.3,5.3,7.2,14.9,6,22.5c-2-0.2-4-0.4-6.1-0.5
		c-0.8-5,1.3-11.8-1-15.9l-0.8-0.4c-7.2-1.3-14.8-0.5-22.1-0.6l0.1-0.8c2.9-2.2,3.8-12.5,0.1-14.6c-2.4-0.4-4.9-0.7-7.3-0.8
		C138.9,54.4,139,53.5,139,53z"/>
</g>
<g id="_x23_bf932dff">
	<path class="st48" d="M66,61c3.6-2.8,7.2-5.7,11-8.2c1.2,0.4,2.3,0.8,3.5,1.3c-19.2,12-34,31.6-38.4,54c-1.5,0.9-2.7,0.9-2.4-1.2
		c2.1-10.7,6.7-20.6,12.4-29.8C56.6,71.6,60.3,65.4,66,61z"/>
</g>
<g id="_x23_aea178ff">
	<path class="st49" d="M57.1,62.2c-1.4-4.4,0.3-6.8,4.2-7.5C65,55.4,55.9,58.2,57.1,62.2z"/>
</g>
<g id="_x23_d6c59aff">
	<path class="st50" d="M105.9,60.8c-0.7-2.8-0.1-4.8,1.8-6.1c1.4,0.1,2.7,0.2,4.1,0.2c2.6,0.1,5.1,0.4,7.6,0.8l0.1,0.9
		c1,3.5-2.7,11.5,0.6,13.4l1,0c7.5,0.8,15.7,1.4,12-9.1c-1.4-3.8-0.7-5.8,1.8-6c-0.9,5.3-0.8,10.6-1,15.9
		c-5.2,0.1-10.4,0.2-15.6,0.2c-0.1-4.8,0-9.5-0.3-14.3c-1.7-0.9-15.1-4-10.9,4.2c-0.3,2.5-0.8,7.5-1,10
		C106,67.6,106,64.2,105.9,60.8z"/>
</g>
<g id="_x23_dbbb6bff">
	<path class="st51" d="M0,110.5C3.3,91,10.1,72.4,20.8,55.8c0.5,0.3,1.6,1,2.1,1.3C5.7,83.7-1.6,116.7,5,148.1
		c0.9,8.1,3.5,16,6.2,23.7c-0.8,0-2.3,0.1-3.1,0.1c-2.8-9.5-6-18.8-8.1-28.4V110.5z"/>
</g>
<g id="_x23_f3e6bfff">
	<path class="st52" d="M107,61c-4.2-8.2,9.1-5.1,10.9-4.2c-4.6,3-0.7,8.2-3.3,11.7c-8.4,3.8-8.2,15.2-15.7,20.3
		c-5.8,4.5-5.5,12.8-10.7,17.4c0-2.1-0.1-4.2-0.1-6.3c-1.1-7.6-0.6-15.3,0-22.9l0-1c-1.1-2.9-7.4-0.2-10.4-0.8
		c-0.8-1.2-0.7-2.8-0.6-4.2c7.1-0.2,14.2-0.1,21.3-0.4c2.6,0.2,5.1,0.3,7.7,0.3C106.2,68.5,106.8,63.5,107,61z"/>
</g>
<g id="_x23_75633bff">
	<path class="st53" d="M119.3,55.7c4.3,2.3,0.3,10.3,1.7,14.4l-1,0c-0.1-4.5,0.2-9-0.6-13.4L119.3,55.7z"/>
</g>
<g id="_x23_4a3b19ff">
	<path class="st54" d="M146.2,55.7c3.7,2.1,2.9,12.4-0.1,14.6C146,65.4,146.1,60.6,146.2,55.7z"/>
</g>
<g id="_x23_f5ecd3ff">
	<path class="st55" d="M114.6,68.5c2.7-3.4-1.2-8.6,3.3-11.7c0.3,4.8,0.2,9.5,0.3,14.3c-0.6,1.4-1.3,2.7-2,4l-0.4,0.8
		c-0.3,0.5-0.8,1.5-1,2c-7.6,14.3-18.5,26.5-26.6,40.4c-0.1-3.5-0.1-7-0.3-10.5c0.1-0.4,0.2-1.1,0.3-1.5c5.1-4.7,4.9-13,10.7-17.4
		C106.3,83.7,106.2,72.3,114.6,68.5z"/>
</g>
<g id="_x23_211000ff">
	<path class="st56" d="M119.4,56.6c0.8,4.4,0.5,8.9,0.6,13.4C116.7,68.1,120.5,60.1,119.4,56.6z"/>
</g>
<g id="_x23_aba179ff">
	<path class="st57" d="M48.5,60.2c1.8-0.2,3.9-1.9,5.6-0.5C52.2,59.9,47.1,64.1,48.5,60.2z"/>
</g>
<g id="_x23_c8901dff">
	<path class="st58" d="M29.6,63.6c1.6-1.7,3.2-4.8,5.7-2.5c-1.5,2.2-3,4.3-4.3,6.6c-3.1,5.1-5.7,10.4-8,15.9
		c-1.6,3.3-2.9,6.7-4,10.1c-1.4,0.7-2.8,1.4-4.1,2.2C17.8,84.4,23,73.5,29.6,63.6z"/>
</g>
<g id="_x23_baa05eff">
	<path class="st59" d="M84.8,70c1.7-9.7,15.2-3.2,21.1-9.2c0.1,3.4,0.1,6.8,0.1,10.2c-2.6,0-5.1-0.1-7.7-0.3
		C93.9,69.5,89.3,70.2,84.8,70z"/>
</g>
<g id="_x23_d8c587ff">
	<path class="st60" d="M22.9,83.7c2.3-5.5,5-10.8,8-15.9c-0.3,4.9,3.5,10.9-0.9,14.3c0.1,0.5,0.4,1.5,0.5,2
		c-0.8,1.9-0.7,4.4-3.5,4.3c4,1.9-0.1,3.1,3,5.5c3.1,2.8-4.7-0.1-5,3c-0.6,1.2-1.1,2.6-1.5,3.9c-1.1,2.5,1.9,4,3.4,5.4
		c1.2,0.8,2.6,1.3,3.9,1.9c0.8,0.8,1.6,1.7,2.2,2.7c-0.6,2.3-0.8,4.9-2.7,6.5c-3.7,0.2-6.7-1.2-9.5-3.3c0.6,2.8,3.2,3.9,5.5,4.9
		c-3.9,2.3,2.7,0.4,4.7,0.2c1.9,4.8,0.2,9.6,1.3,14c-1.1,2.8-3.9,4.1-5.6,6.5c-1.2,0.9-5.4,0.5-4,2.7c1,3.2,5.7,0.1,8.5,0
		c-2.3,2.8,3.8,3.8,0.5,6.3c4.9,3.7-9.1,0.7-5.9,4.6c-1.9,3.1,2.5,0.6,4.1,0.6c0.2,1.9,1.3,3.3,3.2,3.9c-1.9-0.4-6.4,1.3-2.1,1.2
		c11.8-2.7-0.6,3.6,0.9,6.3c0.3,0.2,0.8,0.7,1,1c-2.1,6-2.1,12.6-1.1,18.9c-2.1-3.2-4.1-6.6-5.8-10c-3.9-12.6-4.4-25.7-5.5-38.5
		c-3.5-5.8-0.5-11.7,0.3-17.7c-0.8-3.9-4.2-8.6,0.5-11.2C18.9,100.1,24.7,91.6,22.9,83.7 M29.3,125.3c-2,0.5-4.5,0.5-5.5,2.6
		C26.6,128.1,34.5,125.7,29.3,125.3 M23.4,129.1c-0.9,0.6-2.4,1.4-2,2.6C23,133,26.5,128.5,23.4,129.1z"/>
</g>
<g id="_x23_efddadff">
	<path class="st61" d="M146.1,71.1c7.4,0,14.9-0.7,22.1,0.6c-0.2,9.2-0.2,18.3-0.5,27.5c-1.3,0-2.6,0-3.8,0l-0.6-0.4
		c-1.1-5.2-5.4-8.7-8.2-13c-1.3-2.3-2.5-5-4.8-6.4c-2.1-1.4-4.3-2.3-6.6-3.2C142.4,73.7,144,72.2,146.1,71.1z"/>
</g>
<g id="_x23_c4ac71ff">
	<path class="st62" d="M215.4,70.8c3,3.1,6.7,6.2,7,10.8c-0.1,0.5-0.2,1.6-0.3,2.2c-3.1,2.8-6.3,5.5-9.4,8.3L212,92
		c0-1.6,2.5-7.9,0-4.7c-3.2,2.4-9-13.1-4.2-7.2c2.9,0.6,7.2-2.6,9.5-5.2c-3.3,0.9-6.3,2.6-9.3,4.3C208.1,74.7,215.8,75.8,215.4,70.8
		z"/>
</g>
<g id="_x23_2e1a00ff">
	<path class="st63" d="M168.2,71.7L169,72c-0.1,9.3,0,18.6,0,27.9c-0.3-0.2-1-0.6-1.3-0.8C168,90,168,80.8,168.2,71.7z"/>
</g>
<g id="_x23_6f5a2fff">
	<path class="st64" d="M169,72c2.3,4.1,0.2,10.9,1,15.9c-0.8,5.1,3.3,15.2-5.2,13.3c-0.2-0.5-0.7-1.6-0.9-2.1c1.3,0,2.6,0,3.8,0
		c0.3,0.2,1,0.6,1.3,0.8C169.1,90.6,169,81.3,169,72z"/>
</g>
<g id="_x23_9c8a61ff">
	<path class="st65" d="M77.6,75.2c3,0.5,9.3-2.2,10.4,0.8c-3.3,0-6.7,0-10,0L77.6,75.2z"/>
</g>
<g id="_x23_a69d8cff">
	<path class="st66" d="M116.2,75.1c8.1-0.2,16.2-0.5,24.1,0.8c-8.2,0.1-16.4,0.3-24.5,0L116.2,75.1z"/>
</g>
<g id="_x23_f8eeccff">
	<path class="st67" d="M207.9,79.2c3-1.7,6-3.4,9.3-4.3c-2.3,2.6-6.5,5.8-9.5,5.2L207.9,79.2z"/>
</g>
<g id="_x23_3f2b02ff">
	<path class="st68" d="M78,76c3.3,0,6.7,0,10,0l0,1C84.9,76.4,80.2,78.3,78,76z"/>
</g>
<g id="_x23_aba199ff">
	<path class="st69" d="M114.8,77.8c0.2-0.5,0.8-1.5,1-2c0.5,15,0,30.1,0.3,45.1c-0.3-0.5-1-1.5-1.3-2c0.1-3,0.2-6,0.2-9
		C115.1,99.2,115,88.5,114.8,77.8z"/>
</g>
<g id="_x23_221402ff">
	<path class="st70" d="M115.8,75.8c8.2,0.3,16.3,0.1,24.5,0l1,0.1c-0.4,0.3-1.1,0.9-1.5,1.2c-5.2-0.1-10.4-0.3-15.6-0.2
		c-1.8,0-5.3,0.1-7.1,0.1c-0.2,14.6,0,29.3,0,43.9l-0.9-0.1C115.8,105.9,116.2,90.9,115.8,75.8z"/>
</g>
<g id="_x23_816933ff">
	<path class="st71" d="M141.3,75.9c0.6,0.1,1.8,0.2,2.4,0.2c2.3,0.9,4.6,1.8,6.6,3.2c-3.6,0.3-7-1.4-10.5-2.2
		C140.1,76.9,140.9,76.3,141.3,75.9z"/>
</g>
<g id="_x23_ae975eff">
	<path class="st72" d="M117.1,77.1c1.8,0,5.3-0.1,7.1-0.1c-2.6,4.4-4.1,9.6-2.7,14.6c1.5,3.2-2.4,5.5-0.3,8.6
		c1.6,4.7-4.4,4.3-3.1,8.7c3.4,1.1,5.3-2.2,7.7-3.8c3.7,3.3,5.5-0.1,8,4.9c-0.4-6.5,3.9,0.4,1.3,2.9c-2.1,0.2-5,1.8-6.2-0.8
		c-2.1-3.8-7.3-1.5-10.7-0.9c-0.2,3.2-0.2,6.5-0.2,9.7l-1,0C117.1,106.4,116.9,91.7,117.1,77.1z"/>
</g>
<g id="_x23_cba956ff">
	<path class="st73" d="M124.2,77c5.2-0.1,10.4,0.1,15.6,0.2c3.5,0.7,6.9,2.5,10.5,2.2c2.3,1.5,3.6,4.1,4.8,6.4
		c-2.2,0.7-3.8,1.9-2.1,4.1c-3.9-4.5-8.6-1-12.9,0.9c-4.7-5.9-14.1-3.3-14.8,3.7c5.4,1.9-1.6,5.2-4.2,5.8c-2.1-3.1,1.9-5.4,0.3-8.6
		C120.1,86.6,121.6,81.4,124.2,77z"/>
</g>
<g id="_x23_fbf9f0ff">
	<path class="st74" d="M88.1,118.2c8.2-13.9,19-26.1,26.6-40.4c0.3,10.7,0.3,21.4,0.3,32.1c-1.2-0.3-3.3-1.7-4,0
		c-3.9,7.5-9.2,14-14.6,20.5c-2,3.7-3,10-8.5,9.6c0-2,0-4.1,0-6.1c0-1.6,0.1-3.2,0-4.9C88,125.4,88,121.8,88.1,118.2z"/>
</g>
<g id="_x23_edd98aff">
	<path class="st75" d="M238,78.8c2.2,1.7,2.4,5.3,5.1,6.3c4.2,8.2,4,17.7,6.9,26.2v32.1c-2.9,6.9-3.6,14.5-5.9,21.6
		c-1.1,0.4-2.1,0.7-3.1,1.1C249.9,137.7,248.5,106.6,238,78.8z"/>
</g>
<g id="_x23_a59d7dff">
	<path class="st76" d="M30,82.1c4.6-1,9.3-1.6,14-2c0.7,3-3.2,1.4-5,1.9c-2.9,0.2-5.8,1.1-8.6,2C30.4,83.6,30.1,82.6,30,82.1z"/>
</g>
<g id="_x23_ddd2a7ff">
	<path class="st77" d="M30.5,84.1c2.8-0.9,5.6-1.8,8.6-2c-3.4,1.6-0.8,6.8,2.2,3c0.2,6.6-5.1,1.7-8.3,0.8c-0.1,2.6,2.5,3.7,4.2,5.1
		c-0.3,1.3,0,2.4,0.8,3.3c-1.4,0.9-3.3-0.3-4.9-0.3c0.9,1.6,2.1,3.1,2.8,4.9c-1.3,4.2-3.9,8.5-9,7.4c-1.5-1.4-4.5-2.9-3.4-5.4
		c1.6,1.8,3.1,3.2,1.9-0.2c-1-4.2,4.6-2.1,6.8-1.8c-1.6-2.5-4.6-1.9-7.3-2c0.4-3.1,8.2-0.2,5-3c-3-2.5,1.1-3.6-3-5.5
		C29.8,88.4,29.7,86,30.5,84.1z"/>
</g>
<g id="_x23_c2a356ff">
	<path class="st78" d="M222.4,81.7c2.9,1.7,4.9,4.5,6.6,7.4c6.7,20.5,9,43.6,2.8,64.3c-4.8,7.2-5.2,16.4-9.6,23.9
		c-1.3-4.8,3.6-8.5,2-13.2c0.4-2.4-1.3-2.9-3.2-3.2c0.9-0.7,2-1.3,2-2.6c-4.6-1.4-10.3-4.2-8-10.5c0.4,1.2,1.3,3.6,1.7,4.8
		c1.3,3.8,7.5,5.2,9.5,1.5c-1.5,0-3.1,0.1-4.6-0.1c6.3-1.4,1.4-7.2-2.9-7c2.9,0.2,5.9,0.4,8.7,1.6c-0.7-1.6-2.2-2.6-3.5-3.7
		c1.3-4.5,9.7-2.3,5.5-9.2c-0.7-1-1.5-1.9-2.3-2.8c3.3-4.3-3-6.9-6.6-5.4c-3.2,1.5-3.7-6.8-0.7-3.4c1.6,4,9.6,0.2,10.3-3.2
		c-3.1,1.3-5.9,3.5-9.4,3.2c5.7-0.7,6-5.3,0.2-6.3c1.4-4.6,7.3,0.2,8.3-3.2c-3.1,0.2-5.9-2.6-8.4,0.6c-0.4-0.9-0.7-1.9-1-2.8
		c2.5-0.2,13.5-2,7.4-3c-0.2-1-0.4-2-0.6-2.9c-5.5,1.8-4.4-5.2-9-4.3c2.2-2.4,9.5-0.1,9.6-4.2c0.2-6.4-8.9-3.1-13.2-3.7
		c-0.7-0.7-1.3-1.4-1.9-2.1l0.7,0.1c4,0.5,9.1-4.1,9.4-8.3C222.2,83.3,222.3,82.2,222.4,81.7z"/>
</g>
<g id="_x23_efd657ff">
	<path class="st79" d="M229,89.1c-0.2-2.9-1.5-7.7,2.1-5.1c9.1,21.7,10.1,46.1,4.6,68.8c-0.6,2-2.5,0.9-4,0.6
		C238,132.6,235.7,109.5,229,89.1z"/>
</g>
<g id="_x23_dfbb60ff">
	<path class="st80" d="M18.9,93.8c1.1-3.5,2.5-6.8,4-10.1c1.8,7.9-4,16.5-1.7,24c-4.8,2.7-1.3,7.4-0.5,11.2
		c-0.8,6-3.8,11.9-0.3,17.7c1.2,12.9,1.6,25.9,5.5,38.5C13.6,150.1,12.6,120.6,18.9,93.8z"/>
</g>
<g id="_x23_f1e4b6ff">
	<path class="st81" d="M212.7,92.1c3.1-2.8,6.3-5.5,9.4-8.3C221.8,88,216.7,92.7,212.7,92.1z"/>
</g>
<g id="_x23_e0cc9aff">
	<path class="st82" d="M153,89.9c-1.7-2.2-0.1-3.4,2.1-4.1c2.8,4.3,7.1,7.8,8.2,13c-2.4-2.2-4.8-1-7.3,0.3c-3.7-1.7-12.1-4.7-10.8,2
		l0,0.8l-1-0.1c-11.6,3.6-4-13.2,2.7-9.7C148.2,92.5,159.1,92.5,153,89.9z"/>
</g>
<g id="_x23_eddaaaff">
	<path class="st83" d="M125.3,94.5c0.6-7,10.1-9.6,14.8-3.7c4.2-1.9,9-5.4,12.9-0.9c6.1,2.6-4.8,2.6-6,2.2
		c-6.8-3.5-14.3,13.2-2.7,9.7c-0.6,15.1-0.1,30.1-0.3,45.2c-2.9,0-5.4,0.2-1.9,2.3c-0.2,0.3-0.7,0.8-0.9,1.1
		c-4.9-1.2-13.2-3-11.5,4.9c-0.9-4-1.7-8.1-0.8-12.2c3.4-4.4,6.9,2.7,9.9-0.1c-0.9-4.9-2.6-10.4-6.7-13.5c-1.1-0.8-2.1-1.5-3.2-2.4
		c-1.4-2.1-3.7-3.5-4.6-6c4.1-1.8,8.5-3.8,10.5-8c2.6-2.5-1.7-9.4-1.3-2.9c-2.5-5-4.4-1.6-8-4.9c-2.5,1.6-4.3,4.8-7.7,3.8
		c-1.3-4.4,4.7-4,3.1-8.7C123.8,99.7,130.7,96.4,125.3,94.5 M131.1,92.2c-1.3,1.7-1.3,4-1.9,6C133.2,97.9,135.7,93.9,131.1,92.2z"/>
</g>
<g id="_x23_e2ca96ff">
	<path class="st84" d="M170.1,87.9c2,0.1,4,0.3,6.1,0.5c1.3,0.3,3.8,1,5.1,1.3c-4.3-0.7-3.7,4.5-4.4,7.3c-2.2,8.9-3.2,18.1-1.8,27.1
		c-2.8-8.3-8.5-0.2-8.4,4.9c-3.9-0.4-3.7-5.2-4.8-8.1c-0.2-3.4,4-3.5,5-6.3c1.1-4.6-0.5-9.1-1.9-13.4
		C173.4,103.2,169.3,93.1,170.1,87.9z"/>
</g>
<g id="_x23_f4e5beff">
	<path class="st85" d="M50.9,97.1c3.2-9.9,15.3-7.9,23.7-7.6c4.6,1.8,15.4,0.9,8.3,6.8c-7.2-0.6-14.8,1.1-21.7-1.5
		C57.7,93.8,54.6,97.3,50.9,97.1z"/>
</g>
<g id="_x23_efdfb4ff">
	<path class="st86" d="M176.8,96.9c0.7-2.8,0.1-8,4.4-7.3c5.9,1.5,12.5-0.4,17.9,2.9c-2.2,0-3.1,1-2.5,3c-4.6,0-0.5,3.9-0.4,6.4
		c-2.5-1.6-6-3.1-4.6-7.3c-1.6,3.4-7.5,1.3-7.4,4.7c5.4,0.9,4.7,7.5,3.7,11.6l-0.2,1c-1.1-1-2.4-1.9-3.9-2.2c0.6,4,5.1,6.7,4,11
		c-1.9,0.4-3.9,0.5-5.8,0.5c0,3.4,2.6,10.6-2.6,6.3c-1-1.2-1.7,0.8-2.5,1.3c-0.6-1.7-1.3-3.3-2-4.9
		C173.6,115,174.6,105.8,176.8,96.9z"/>
</g>
<g id="_x23_8e8c5dff">
	<path class="st87" d="M37.1,90.9c2.2-0.4,2.6,2.5,0.8,3.3C37.1,93.3,36.8,92.2,37.1,90.9z"/>
</g>
<g id="_x23_c3b273ff">
	<path class="st88" d="M131.1,92.2c4.7,1.7,2.1,5.7-1.9,6C129.8,96.2,129.8,93.9,131.1,92.2z"/>
</g>
<g id="_x23_dca823ff">
	<path class="st89" d="M14.8,95.9c1.4-0.7,2.7-1.5,4.1-2.2c-6.3,26.8-5.3,56.3,7.1,81.3c1.8,3.4,3.7,6.8,5.8,10
		c4.6,7.2,9.9,13.9,16,19.9c4.5,4.9,10,8.4,15.3,12.4c5.8,3.8,12,7.8,19,8.6c2.9,0.8,5.7,2.1,8.7,2.5c7.1,0.8,12.8,7.3,20.2,4.7
		c1.6-0.1,3.3,0.2,4.9,0.5c9.4,1.3,19.2,4,28.4,0.7c4.1-0.8,8.1-1.8,12.1-2.9c2.8-0.6,5.5-1.5,8.2-2.2c1.5,1.9,3.4,2.4,5.9,1.5
		c18-8.9,35-20.9,46.5-37.5c1.9,2.8,8.3,2.5,3.8,6.8c-1.2,4.8-5.1,1.9-8,0.9c6.8,11.4-11.2,12.8-15.6,20.3
		c-2.6,6.7-11.1,6.6-15.5,11.6c-4.1,5.9-11.4,0.5-16.6,3.5c5.2,4.9-4.2,5.2-7.4,2.7c-4.3-0.7,0.7,3.4,1.6,4.8
		c-11.5,0.6-22.8,3.9-34.4,3.7c-5.2,1.1-10.3-3-15.1,0.6c-0.5,0-1.4-0.1-1.9-0.1c-4.2-0.9-3.8-6.9-8-7.4
		c-30.5-9.1-58.6-28.6-74.1-56.8c-7.7-13.7-12.2-28.8-15-44.2C10.7,125,10.3,110.1,14.8,95.9z"/>
</g>
<g id="_x23_ccb06aff">
	<path class="st90" d="M213.9,94.1c4.3,0.7,13.4-2.7,13.2,3.7c-3.6,0.7-7.3,1.4-10.9,2.1c-2.5-1.9-0.4,6.4,1.2,7.8
		c5.6,1.6-1.8-2.4-0.7-5.5l0.8-0.2c4.7-0.9,3.5,6.1,9,4.3c0.2,1,0.4,2,0.6,2.9c-1.6,1.4-10-1.3-7.4,3c0.3,0.9,0.7,1.9,1,2.8
		c-1.4,1.1-2.2,2.2,0.1,2.6c5.8,1,5.5,5.6-0.2,6.3l-0.9,0.1c-3-3.4-2.5,4.9,0.7,3.4c3.6-1.4,9.9,1.1,6.6,5.4
		c-2.7-0.7-9.1,0.2-7.6,4.3c0.5,4.4,2.5-3.2,5.2-1c3.2,1.8,5.1,5.8,4.7-0.4c4.2,6.9-4.2,4.8-5.5,9.2c-1.7-0.4-7.2,0.1-5.2,2.1
		c4.3-0.2,9.2,5.7,2.9,7c-1.7-0.4-3.3-1.1-4.9-1.4c-0.4-1.2-1.3-3.6-1.7-4.8c-2.3,6.3,3.3,9.1,8,10.5c0,1.3-1.1,1.9-2,2.6
		c-2.5-0.8-4.9-1.7-7.4-2.6c2.5,3.3,7.1,3.9,10.6,5.8c1.6,4.6-3.3,8.4-2,13.2c-1.8,3.7-3.8,7.3-6,10.7c-0.9,1.4-1.9,2.9-3,4.2
		c-0.5-6,3.3-14.8-3.5-18.1c3.3-1.7,8.4,0.6,10.4-3.1c2.9-4.7-9.9,0.6-12.2-0.9c1.6-1.3,3.9-1.3,5.4-2.7c-7.8-1.4,1.3-10.1,0-14.9
		c0.8-7.8,1-15.7,2.5-23.5c-0.2-6.6-3.3-13-1.4-19.6c0-3.2-1.5-6.2-2.1-9.3C212.8,98.1,213.3,96.1,213.9,94.1z"/>
</g>
<g id="_x23_ead6a3ff">
	<path class="st91" d="M61.3,94.7c6.9,2.6,14.5,0.9,21.7,1.5c-0.4,3.2,2.4,7.5,5.1,3.7c0.1,2.1,0.1,4.2,0.1,6.3
		c-0.1,0.4-0.2,1.1-0.3,1.5c-1.3,0.8-2.6,1.7-3.8,2.6c-4-0.5-2.6-5.1-3.3-8.1c-3.1-1.7-7-1.6-10.4-1c-6.2,2.3-1,10.5-1.8,15
		c0,2.2-1,7.8,2.8,6.1c2-0.9,1.2,1.1,1.2,2.2c1.8,0.6,3.5,1.4,3.7,3.5l-1.1,0.2c-3.3-1.4-6.3-3.6-10.1-3.3c-1.2-2.4-2-4.9-3.2-7.4
		c-5.6,1.8-2.4-7.2-3.4-10.1C60.6,103.8,65.1,98.8,61.3,94.7z"/>
</g>
<g id="_x23_9f9065ff">
	<path class="st92" d="M25,96.9c2.7,0.1,5.7-0.6,7.3,2c-2.2-0.3-7.8-2.3-6.8,1.8c1.1,3.3-0.3,2-1.9,0.2C23.8,99.5,24.3,98.1,25,96.9
		z"/>
</g>
<g id="_x23_dcc180ff">
	<path class="st93" d="M145.2,101.1c-1.3-6.7,7.1-3.7,10.8-2c2.5-1.3,4.9-2.5,7.3-0.3l0.6,0.4c0.2,0.5,0.7,1.6,0.9,2.1
		c1.4,4.3,3,8.8,1.9,13.4c-0.9,2.8-5.2,2.9-5,6.3c-1.8-1-3.7-1.8-5.7-2.5c-6.9-1-2.1-8.6-4.4-13.2
		C151.1,102.5,148.1,97.1,145.2,101.1z"/>
</g>
<g id="_x23_ecddb3ff">
	<path class="st94" d="M216.1,99.9c3.6-0.7,7.3-1.4,10.9-2.1c-0.2,4.1-7.4,1.8-9.6,4.2l-0.8,0.2C216.5,101.7,216.2,100.5,216.1,99.9
		z"/>
</g>
<g id="_x23_9b9066ff">
	<path class="st95" d="M26.9,106.2c5.1,1.1,7.7-3.2,9-7.4c1.1,4.1-2,7.2-5.1,9.3C29.4,107.6,28.1,107,26.9,106.2z"/>
</g>
<g id="_x23_c3ac7bff">
	<path class="st96" d="M145.2,101.1c2.8-3.9,5.9,1.4,6.5,4.3c2.3,4.6-2.6,12.2,4.4,13.2c-3.8,2.1-5.7,6.7-10.1,7.8
		c-0.6-8.1,1.2-16.5-0.8-24.4L145.2,101.1z"/>
</g>
<g id="_x23_9e8249ff">
	<path class="st97" d="M217.3,107.8c-1.6-1.5-3.7-9.7-1.2-7.8c0.1,0.6,0.3,1.8,0.5,2.4C215.5,105.3,222.9,109.4,217.3,107.8z"/>
</g>
<g id="_x23_e1c787ff">
	<path class="st98" d="M70.3,101.3c3.4-0.6,7.3-0.8,10.4,1c0.7,3-0.8,7.6,3.3,8.1c-2,2.8-4.1,5.7-5.9,8.6c-2.6-5-11.5-2.1-6.9,3.3
		c-3.8,1.8-2.7-3.8-2.8-6.1C69.3,111.8,64.1,103.6,70.3,101.3z"/>
</g>
<g id="_x23_83724fff">
	<path class="st99" d="M144.3,101.7l1,0.1c-0.6,15,0.1,30-0.4,45l-0.9,0.1C144.1,131.9,143.7,116.8,144.3,101.7z"/>
</g>
<g id="_x23_362307ff">
	<path class="st100" d="M145.2,101.8c2,7.9,0.2,16.3,0.8,24.4c0,0.4,0,1.3,0,1.7c0,2.7,0,5.4,0,8.2c0,3,0,5.9,0.1,8.9
		c-0.3,1.4-0.6,2.9-1.1,4.2c-0.8,0-2.2-0.1-3-0.1c-3.5-2.1-1.1-2.3,1.9-2.3l0.9-0.1C145.4,131.8,144.6,116.8,145.2,101.8z"/>
</g>
<g id="_x23_eac777ff">
	<path class="st101" d="M191,105c6.4,0.6,0.7,15.3-3.3,7.1l0.2-1C192.1,116.3,192.5,108,191,105z"/>
</g>
<g id="_x23_dfb13eff">
	<path class="st102" d="M47.9,167.9c-9.5-18.6-13.2-40.6-8.3-61.1c-0.2,2.2,1,2.1,2.4,1.2c-0.5,3.6-1,7.1-1.4,10.7
		c-2.2,15.2,1.3,30.7,8.1,44.3c5.1,12.5,16.4,19.6,26.1,28.2c4.5,3.2,9.5,5.7,14.3,8.6c-2.4,0.5-7-2.4-8,0.8c4,3,8,6,11.8,9.2
		c-0.6,0.1-1.7,0.2-2.3,0.3c-3.2-1.9-6.4-3.9-9.7-5.7c-6.4-4.5-10.9-10.9-17.1-15.6C57.5,182.9,53,175.1,47.9,167.9z"/>
</g>
<g id="_x23_d6ba72ff">
	<path class="st103" d="M84,110.3c1.2-0.9,2.5-1.8,3.8-2.6c0.1,3.5,0.2,7,0.3,10.5C88,121.8,88,125.4,88,129c-3.9-1-7.8-1.9-11.8-1
		c-0.2-2.1-2-2.9-3.7-3.5c0-1.2,0.8-3.2-1.2-2.2c-4.7-5.5,4.2-8.4,6.9-3.3C79.9,116,82,113.2,84,110.3z"/>
</g>
<g id="_x23_f8efd7ff">
	<path class="st104" d="M111,109.9c0.7-1.7,2.8-0.3,4,0c0,3-0.2,6-0.2,9c-4.2-0.9-5.7,3.5-7.7,6.2c-6.6,7.7-10.2,18.6-19,24.1
		c0-3.1-0.1-6.1-0.1-9.2c5.5,0.5,6.5-5.9,8.5-9.6C101.8,124,107.2,117.4,111,109.9z"/>
</g>
<g id="_x23_f2e6bdff">
	<path class="st105" d="M227.1,109.3c6.1,1-4.9,2.8-7.4,3C217,108.1,225.4,110.8,227.1,109.3z"/>
</g>
<g id="_x23_d3c8b0ff">
	<path class="st106" d="M118.2,111.3c3.4-0.6,8.6-2.9,10.7,0.9c1.2,2.7,4.1,1,6.2,0.8c-2,4.2-6.5,6.3-10.5,8c-1.6,0-4.9,0-6.5,0
		C118,117.8,118,114.5,118.2,111.3z"/>
</g>
<g id="_x23_998d65ff">
	<path class="st107" d="M30.2,117.4c1.9-1.6,2.1-4.2,2.7-6.5c2.5,2.8-0.5,5.9-2,8.3c-2,0.2-8.6,2.1-4.7-0.2
		C27.7,118.9,29.2,118.6,30.2,117.4z"/>
</g>
<g id="_x23_f2e2b5ff">
	<path class="st108" d="M220.8,115.2c2.5-3.2,5.3-0.5,8.4-0.6c-1,3.3-6.9-1.4-8.3,3.2C218.5,117.4,219.4,116.3,220.8,115.2z"/>
</g>
<g id="_x23_f5e8bdff">
	<path class="st109" d="M20.7,114c2.8,2.1,5.8,3.5,9.5,3.3c-1,1.2-2.5,1.5-4,1.6C23.9,117.9,21.3,116.8,20.7,114z"/>
</g>
<g id="_x23_e1c16cff">
	<path class="st110" d="M54.1,117.9c4.7,0.3,5.9,7.2,10.9,7c3.8-0.3,6.8,1.9,10.1,3.3c1,2.6,0.9,5.2-0.1,7.8
		c-2.3,4.3,2.5,7.4,5,10.2c3.8,2.1,5.6,6.6,2.9,10.4c-1.4-6.4-5.3-12.2-11-15.5c-7.5-0.1-2.5,10.8-8.5,13.4
		c-4.5,2.8-4.9,8.3-7.8,12.3c-2.8,0.6-4.1-3.3-6.8-3.7c-6.8-13.6-10.3-29.1-8.1-44.3c-0.7,6,1.5,13.4,7,15.7
		C55.6,131.9,50.8,123.8,54.1,117.9z"/>
</g>
<g id="_x23_f2e4bbff">
	<path class="st111" d="M107.1,125.1c2-2.7,3.6-7,7.7-6.2c0.3,0.5,1,1.5,1.3,2l0.9,0.1l1,0c1.6,0,4.9,0,6.5,0c0.8,2.5,3.1,3.9,4.6,6
		c-2-0.3-3.9-0.8-5.9-0.9c-1.8,0-5.4-0.1-7.2-0.1c-2.4,8.3-0.3,20.3-1.2,30.2c-0.9-5.6-0.7-11.3-0.8-16.9
		c-9.2,2.3-9.9,13.7-16.8,18.9c-4.8,2.4-0.7,7.8-4.4,10.8c-4,1.2-4.6-3.9-5-6.7c0.1-4.4,0.2-8.7,0.3-13.1
		C96.8,143.6,100.5,132.8,107.1,125.1z"/>
</g>
<g id="_x23_ba9036ff">
	<path class="st112" d="M146,126.3c4.4-1.1,6.3-5.7,10.1-7.8c1.9,0.7,3.8,1.5,5.7,2.5c1.1,2.8,0.9,7.7,4.8,8.1
		c-0.1-5.1,5.6-13.2,8.4-4.9c0.7,1.6,1.4,3.2,2,4.9c1.5,3.2,3.1,6.4-1.3,3.1c1.3,2.2,2.9,4.3,3.6,6.8c0.8,4.8,1.5,9.6,2.9,14.2
		c-0.1,0.4-0.4,1.2-0.5,1.6c-4,9,0.4,22.5-8,30c-5.5,3-12.4,2.7-17.5,6.5c-2.4,4.3-2.9,9.8-7.3,12.8c-7.7,2.7-15.8,4.4-23.9,5.8
		c-5.4-1.1-10.3-4-15.9-4.8c0.6-3.6-2.6-4.5-4.9-6.3c-1.4-4-0.5-9.8-4.7-12.3c-2.7-2-14.4,1.7-10.7-4.4c5.7,0,11.3,0,17,0
		c1.7,3.1-3,11.6,1.8,12.3c4,0.7,8.1,1,12.1,0.7c-0.2-4.5,3.4-8.7,8-10.9c3.7,3.2,7.2,6.1,5-2.1c0-0.5,0-1.5,0-2
		c0.4,0.6,1.2,1.7,1.6,2.2c0.8,3.4-2.6,9.6,0.2,12.1c4.3,1,8.8,0.9,13.1,0.6c0.2-4.3-0.1-8.6,0.2-12.9c7.9-1.1,16.8,1.6,24.2-0.8
		c1.2-9.4,0.4-19.6,1.8-29.3c-1.7-1.4,2-7.3-1.8-7.4c-1.2-0.1-3.8-0.5-5-0.6c-3.1,10.1-7.1,20.9-16.2,27c-6.6,3.2-14,4-21.3,4.1
		c-3.3-0.1-6.6-0.3-10-0.3c8.1-1.3-6-7.8-1.8-12.9c1.4-9.5-3.1-20.7,2.3-29.4c3.9,10.4,1.8,22.1,2.9,33c2.9,6,11.7,2.3,16.2-0.2
		c1.5-5.1,7.1-7.8,7.8-13c0.6-3.4,5.5-10.9-1.1-7.5c-0.1-3-0.1-6-0.1-8.9c2.9-2.7,6.3-7.8,0-8.2C146,127.6,146,126.7,146,126.3z"/>
</g>
<g id="_x23_f5e1baff">
	<path class="st113" d="M220.7,124c3.5,0.4,6.3-1.8,9.4-3.2c-0.8,3.5-8.8,7.2-10.3,3.2L220.7,124z"/>
</g>
<g id="_x23_f6eed5ff">
	<path class="st114" d="M29.3,125.3c5.2,0.4-2.7,2.8-5.5,2.6C24.9,125.8,27.3,125.9,29.3,125.3z"/>
</g>
<g id="_x23_a69671ff">
	<path class="st115" d="M114.8,156.2c0.9-9.9-1.2-21.9,1.2-30.2c0,16.3,0,32.7,0,49l-1,0C115,168.7,115.1,162.5,114.8,156.2z"/>
</g>
<g id="_x23_281503ff">
	<path class="st116" d="M116,126c1.8,0,5.4,0.1,7.2,0.1c-3.2-0.5-5.2,0.2-6.2,1.8c-0.1,1.3-0.1,2.6-0.1,4c0,14.3,0.1,28.7,0,43.1
		l-1,0C116,158.7,116,142.3,116,126z"/>
</g>
<g id="_x23_7d6a45ff">
	<path class="st117" d="M123.2,126.1c2,0.1,3.9,0.6,5.9,0.9c1,0.8,2.1,1.6,3.2,2.4c-5.1-0.3-10.1-1.7-15.2-1.4
		C118,126.3,120.1,125.7,123.2,126.1z"/>
</g>
<g id="_x23_f2e7c9ff">
	<path class="st118" d="M76.2,128c4-0.9,7.9,0,11.8,1c0,1.6,0,3.2,0,4.9C84,136.8,79,141,75,136c0.9-2.5,1.1-5.2,0.1-7.8L76.2,128z"
		/>
</g>
<g id="_x23_e9c77fff">
	<path class="st119" d="M177,129c0.8-0.5,1.5-2.5,2.5-1.3c-0.8,3.5,4.5,11.5-0.2,11.2c-0.8-2.5-2.4-4.6-3.6-6.8
		C180.1,135.4,178.5,132.2,177,129z"/>
</g>
<g id="_x23_d3b87eff">
	<path class="st120" d="M117.1,128c5.1-0.3,10.1,1.1,15.2,1.4c4.1,3.1,5.7,8.6,6.7,13.5c-3.1,2.8-6.5-4.2-9.9,0.1
		c-1.8-4.8-0.4-14.1-9-11c-0.8,0-2.3,0-3,0C116.9,130.6,117,129.3,117.1,128z"/>
</g>
<g id="_x23_cdb68fff">
	<path class="st121" d="M146,128c6.3,0.4,2.9,5.5,0,8.2C146,133.4,146,130.7,146,128z"/>
</g>
<g id="_x23_8c7b51ff">
	<path class="st122" d="M23.4,129.1c3.1-0.6-0.4,3.9-2,2.6C21,130.6,22.5,129.7,23.4,129.1z"/>
</g>
<g id="_x23_f4d297ff">
	<path class="st123" d="M187.4,131.3c2.2-1.3,2.2,8.8-2.1,6.6C182.1,135.8,185.7,133,187.4,131.3z"/>
</g>
<g id="_x23_957b45ff">
	<path class="st124" d="M117,131.9c0.8,0,2.3,0,3,0l0.3,0.7c-5.4,8.6-0.9,19.8-2.3,29.4c-4.2,5,9.9,11.6,1.8,12.9
		c-0.7,0-2.1,0.1-2.8,0.1C117,160.6,117,146.3,117,131.9z"/>
</g>
<g id="_x23_c59d43ff">
	<path class="st125" d="M120,132c8.5-3.1,7.2,6.3,9,11c-1,4.1-0.1,8.2,0.8,12.2c2,8.7,12,1.4,11.5-4.9c0.2-0.3,0.7-0.8,0.9-1.1
		c0.7,0,2.2,0.1,3,0.1c0,1.6,0.4,2.9,2.1,3.2c-0.7,5.2-6.3,7.9-7.8,13c-4.5,2.5-13.3,6.2-16.2,0.2c-1.1-10.9,1-22.6-2.9-33L120,132z
		"/>
</g>
<g id="_x23_a29871ff">
	<path class="st126" d="M32.2,133.2c1.6,1.5-0.3,3.2-0.9,4.6c3.9-0.7,3.7,5.3-0.2,4.6c-2.8,0.1-7.4,3.2-8.5,0
		c2.9-1.4,9.6,0.9,9.4-3.3c-1.8,0.1-3.6,0.4-5.4,0.6C28.3,137.3,31.1,136,32.2,133.2z"/>
</g>
<g id="_x23_fae9c0ff">
	<path class="st127" d="M219.5,137.2c-1.6-4.1,4.9-5,7.6-4.3c0.8,0.9,1.6,1.8,2.3,2.8C226,133.9,221.5,132.9,219.5,137.2z"/>
</g>
<g id="_x23_e7d4a7ff">
	<path class="st128" d="M75,136c4,5,9,0.8,12.9-2.1c0,2,0,4.1,0,6.1c-2.9,1.7-5.4,4-7.9,6.2C77.5,143.3,72.7,140.2,75,136z"/>
</g>
<g id="_x23_a68c57ff">
	<path class="st129" d="M219.5,137.2c2-4.3,6.5-3.4,9.9-1.4c0.4,6.3-1.5,2.3-4.7,0.4C222,134.1,219.9,141.6,219.5,137.2z"/>
</g>
<g id="_x23_f2e8cdff">
	<path class="st130" d="M26.6,139.7c1.8-0.2,3.6-0.5,5.4-0.6c0.2,4.2-6.5,1.9-9.4,3.3C21.2,140.1,25.4,140.5,26.6,139.7z"/>
</g>
<g id="_x23_f0deacff">
	<path class="st131" d="M97.2,158.1c7-5.1,7.7-16.5,16.8-18.9c0.1,5.7-0.2,11.3,0.8,16.9c0.3,6.3,0.2,12.5,0.2,18.8
		c-3.9-1.2-0.3-6.6-1.1-9.2c-1,6.1-12.4,7.6-7,14.2l-1,0c-10.1,0-20.2-0.1-30.3,0.1l-0.8-0.4c0.4-1.8-0.8-5.3,2.2-4.8
		c2.8,0,8.2,0,11,0c1.1-3.7-1.6-6.2-3.2-9c-0.4-2-0.7-3.9-1-5.9c1.3,0.8,2.6,1.5,3.9,2.2c0.4,2.8,1,7.9,5,6.7
		C96.5,165.9,92.4,160.5,97.2,158.1z"/>
</g>
<g id="_x23_bd9227ff">
	<path class="st132" d="M11.1,139.6c2.8,15.4,7.3,30.5,15,44.2c2.1,4.8,0,8.3-5.4,6.4c-4.5-5.4-6.8-12.1-9.5-18.5
		c-2.7-7.7-5.4-15.5-6.2-23.7C10.6,149.4,10.7,143.5,11.1,139.6z"/>
</g>
<g id="_x23_d3bd89ff">
	<path class="st133" d="M80,146.1c2.6-2.2,5-4.5,7.9-6.2c0.1,3.1,0.1,6.1,0.1,9.2c-0.1,4.4-0.2,8.7-0.3,13.1
		c-1.3-0.7-2.6-1.5-3.9-2.2c-0.3-1.2-0.6-2.3-0.9-3.4C85.6,152.7,83.8,148.3,80,146.1z"/>
</g>
<g id="_x23_dab65eff">
	<path class="st134" d="M63.4,154.5c6-2.7,1-13.6,8.5-13.4c5.6,3.4,9.5,9.1,11,15.5c0.3,1.1,0.6,2.3,0.9,3.4c0.3,2,0.6,4,1,5.9
		c-1.6,4.1-13.4,4.7-7.8,8.9c-3-0.5-1.8,3-2.2,4.8c-3.3-1.7-4.1,5.5-1.1,6.5c1.3,1.3,5.3,5,1.1,5.1c-9.7-8.6-21.1-15.7-26.1-28.2
		c2.8,0.5,4,4.3,6.8,3.7C58.5,162.8,59,157.3,63.4,154.5z"/>
</g>
<g id="_x23_e6cf97ff">
	<path class="st135" d="M195,144c2.8-4.3,2.4,2.3,4.6,3.2c-0.2,5.6-4.4,9.3-5.8,14.4c-3.4-1.5-0.9-6.5-5.6-3.5c-0.4-3.1,1-7.2-2-9.3
		C189.1,147,191.8,144.7,195,144z"/>
</g>
<g id="_x23_f4e1b3ff">
	<path class="st136" d="M199.6,147.2c1.7-7.4,3.4-0.8,4.9,3c0,1.2,0,2.4,0,3.6c-3.1,3.4-5,9.5-10.6,7.8
		C195.2,156.5,199.4,152.8,199.6,147.2z"/>
</g>
<g id="_x23_dec383ff">
	<path class="st137" d="M146.1,145.1c6.6-3.5,1.6,4,1.1,7.5c-1.8-0.3-2.2-1.6-2.1-3.2C145.6,147.9,145.9,146.5,146.1,145.1z"/>
</g>
<g id="_x23_e5c97bff">
	<path class="st138" d="M167.3,144c1.2,0.2,3.7,0.5,5,0.6c-0.2,4.4-0.3,8.8-0.4,13.1c-0.8,4.4-0.8,9-0.6,13.5
		c-0.1,2.9-0.1,5.8-0.4,8.7c-8.2,0.2-16.5-0.1-24.8,0.1c-0.2,4.6,0.1,9.2-0.2,13.8c-2.8,0.1-8.3,0.3-11.1,0.4
		c-2.9-2.6,0.6-8.7-0.2-12.1c1.5-3.7-2.2-5.5-4.8-7c7.2-0.2,14.7-0.9,21.3-4.1C160.1,164.9,164.1,154.1,167.3,144z"/>
</g>
<g id="_x23_aa9e78ff">
	<path class="st139" d="M34,144.7c3.9,3.8,2.5,10.5-4.2,9.2c-1.6-0.1-6,2.5-4.1-0.6C32.1,152.9,36.5,151.2,34,144.7z"/>
</g>
<g id="_x23_4e3208ff">
	<path class="st140" d="M172.3,144.6c3.8,0.1,0.1,6,1.8,7.4c-1.3,9.7-0.6,19.9-1.8,29.3c-7.4,2.3-16.4-0.3-24.2,0.8
		c-0.3,4.3,0,8.6-0.2,12.9c-4.4,0.3-8.9,0.4-13.1-0.6c2.8-0.1,8.3-0.3,11.1-0.4c0.4-4.6,0-9.2,0.2-13.8c8.2-0.2,16.5,0.1,24.8-0.1
		c0.3-2.9,0.2-5.8,0.4-8.7c0.7-4.5,0.7-9,0.6-13.5C172,153.4,172.1,149,172.3,144.6z"/>
</g>
<g id="_x23_f4e5b8ff">
	<path class="st141" d="M218.7,147.1c-2-1.9,3.5-2.5,5.2-2.1c1.3,1.1,2.8,2.1,3.5,3.7C224.6,147.5,221.6,147.3,218.7,147.1z"/>
</g>
<g id="_x23_f5eacdff">
	<path class="st142" d="M129.7,155.2c-1.8-7.9,6.5-6.1,11.5-4.9C141.7,156.6,131.8,163.9,129.7,155.2z"/>
</g>
<g id="_x23_f6e3baff">
	<path class="st143" d="M186.2,148.8c3,2.1,1.6,6.2,2,9.3c-4,2.9-7.7,2.2-6.5-3.4c0.1-0.4,0.4-1.2,0.5-1.6
		C182.8,151.1,184.3,149.7,186.2,148.8z"/>
</g>
<g id="_x23_f7e5c1ff">
	<path class="st144" d="M216.7,152.7c1.7,0.4,3.3,1,4.9,1.4c1.5,0.2,3,0,4.6,0.1C224.1,157.9,217.9,156.5,216.7,152.7z"/>
</g>
<g id="_x23_e0c47cff">
	<path class="st145" d="M203.9,164c3.7-3.4,4.7-8.9,9.3-11.4c1.2,4.8-7.8,13.5,0,14.9c-1.5,1.4-3.8,1.4-5.4,2.7l-0.4,0.9
		c-1.2,1.9,0.8,2.5,2.3,3.1c6.8,3.3,3,12.1,3.5,18.1c-5,6.6-11,12.4-17.1,18c-1.9-4.6,5.9-7.7,2.3-11.5c6.3,1.5-3.6-4.2,1.7-6.5
		c1.7-2.4-3.1-4.6-2.6-7.6c0-2.9-1.6-4.2-4.5-3.8c2.4-3,4.2-6.5,6.2-9.8C200.9,168.7,202.3,166.3,203.9,164z"/>
</g>
<g id="_x23_cda344ff">
	<path class="st146" d="M204.5,153.8c2.4,3.2,0.6,6.9-0.5,10.2c-1.6,2.4-3.1,4.8-4.7,7.1c-12.6,11.5-23.4,27.3-40.9,33
		c-3.1-0.6-6.4-1.4-9.4-0.1c4.4-3,4.9-8.5,7.3-12.8c5.1-3.8,12-3.5,17.5-6.5c8.4-7.5,4-21,8-30c-1.2,5.6,2.6,6.3,6.5,3.4
		c4.7-3,2.2,2,5.6,3.5C199.5,163.3,201.4,157.2,204.5,153.8z"/>
</g>
<g id="_x23_9e8a53ff">
	<path class="st147" d="M171.2,171.2c-0.2-4.5-0.2-9,0.6-13.5C171.9,162.3,171.9,166.8,171.2,171.2z"/>
</g>
<g id="_x23_f2e4b8ff">
	<path class="st148" d="M213.6,158.3c2.4,0.9,4.9,1.8,7.4,2.6c2,0.2,3.6,0.8,3.2,3.2C220.6,162.3,216.1,161.6,213.6,158.3z"/>
</g>
<g id="_x23_938b69ff">
	<path class="st149" d="M31.9,165.3c2.4-2.1,4.8-4.3,7.3-6.4c-0.6,3.4-4.1,5-6.2,7.4C32.6,166,32.1,165.5,31.9,165.3z"/>
</g>
<g id="_x23_f8edbdff">
	<path class="st150" d="M241,166.1c1-0.4,2.1-0.7,3.1-1.1c-3.3,9.3-7.1,18.8-14.3,25.9C233.7,182.7,238.7,175,241,166.1z"/>
</g>
<g id="_x23_bd9f56ff">
	<path class="st151" d="M77.1,174.9c-5.6-4.3,6.1-4.9,7.8-8.9c1.6,2.8,4.3,5.3,3.2,9C85.3,174.9,79.8,174.9,77.1,174.9z"/>
</g>
<g id="_x23_ecd698ff">
	<path class="st152" d="M107,180c-5.4-6.6,6-8.1,7-14.2c0.8,2.6-2.8,8,1.1,9.2l1,0l1,0c0.7,0,2.1-0.1,2.8-0.1c3.3,0,6.6,0.1,10,0.3
		c2.6,1.5,6.3,3.3,4.8,7c-0.4-0.6-1.2-1.7-1.6-2.2c-4.7-0.1-9.3-0.2-13.9,0.1c-2.5,2.5-0.3,8.8-1.2,12.9c-2.7,0-8.1,0-10.8,0
		C106.9,188.6,107.2,184.3,107,180z"/>
</g>
<g id="_x23_edd384ff">
	<path class="st153" d="M47.9,167.9c5.1,7.2,9.6,14.9,16.1,21c2.8,9.1,4.6,20-0.9,28.5c-5.2-3.9-10.8-7.5-15.3-12.4
		c3-0.9,6.2-1.2,9-2.8c3.4,3-0.8-5.7,2.9-5.5c1.5-0.4,6.7-2.7,2.6-2.9c-4.1,0.4-5.8-1.2-5.5-4.8C53.9,182.1,50.2,175.1,47.9,167.9z"
		/>
</g>
<g id="_x23_f7e9c7ff">
	<path class="st154" d="M207.8,170.2c2.4,1.4,15.1-3.9,12.2,0.9c-4.1-0.2-8.7,1.8-12.6,0L207.8,170.2z"/>
</g>
<g id="_x23_ba8e2cff">
	<path class="st155" d="M158.4,204.1c17.4-5.7,28.2-21.6,40.9-33c-2,3.3-3.8,6.8-6.2,9.8c-4.1,5.3-9.1,9.7-14.2,13.9
		c-4.2,2.9-8.4,5.6-12.7,8.3c-3.3,1.6-6.8,3-10.2,4.3C154.2,205.6,157.3,205.1,158.4,204.1z"/>
</g>
<g id="_x23_a18e61ff">
	<path class="st156" d="M209.7,174.1c-1.4-0.6-3.5-1.2-2.3-3.1c4,1.8,8.5-0.2,12.6,0C218.1,174.7,212.9,172.4,209.7,174.1z"/>
</g>
<g id="_x23_e5cd8aff">
	<path class="st157" d="M8.1,171.9c0.8,0,2.3-0.1,3.1-0.1c2.7,6.4,5,13.1,9.5,18.5c4.9,9.4,12.4,16.9,19.5,24.7
		c-1,0.2-2.6,1.6-3.4,0.3C24.8,202.7,14.3,188.3,8.1,171.9z"/>
</g>
<g id="_x23_a49e88ff">
	<path class="st158" d="M38.7,175.2c1.3-2.2,3.9-3.4,6.5-3.2C44,174.4,41.1,175.1,38.7,175.2z"/>
</g>
<g id="_x23_898571ff">
	<path class="st159" d="M38.7,175.2C38.3,179.6,34,174.4,38.7,175.2z"/>
</g>
<g id="_x23_cca448ff">
	<path class="st160" d="M73.8,186.2c-3-1-2.2-8.2,1.1-6.5l0.8,0.4c2.3,4.1,9,1.1,13.2,1.9c-3.7,6,8,2.3,10.7,4.4
		c4.2,2.5,3.3,8.3,4.7,12.3c2.3,1.8,5.5,2.7,4.9,6.3c-6.8-0.8-13.7-2.2-20-5.1c-4.7-2.9-9.8-5.3-14.3-8.6
		C79.1,191.2,75.2,187.5,73.8,186.2z"/>
</g>
<g id="_x23_5a431bff">
	<path class="st161" d="M75.7,180.1c10.1-0.2,20.2-0.1,30.3-0.1c0,0.5,0,1.5-0.1,2c-5.7,0-11.4-0.1-17,0
		C84.7,181.2,78,184.2,75.7,180.1z"/>
</g>
<g id="_x23_d0b482ff">
	<path class="st162" d="M106,180l1,0c0.2,4.3-0.1,8.6,0.1,13c2.7,0,8.1,0,10.8,0c0.8-4.1-1.4-10.5,1.2-12.9
		c-0.1,4.6,0.2,9.3-0.2,13.9c-2.8,0.1-8.3,0.3-11.1,0.4c-4.8-0.8-0.1-9.2-1.8-12.3C106,181.5,106,180.5,106,180z"/>
</g>
<g id="_x23_452906ff">
	<path class="st163" d="M119,180c4.6-0.3,9.3-0.1,13.9-0.1c0,0.5,0,1.5,0,2c-4.3,0-8.6-0.2-12.9,0.1c-0.1,4.3-0.1,8.6-0.2,12.9
		c-4.1,0.3-8.1,0-12.1-0.7c2.8-0.1,8.3-0.3,11.1-0.4C119.2,189.3,118.9,184.7,119,180z"/>
</g>
<g id="_x23_ecd7a0ff">
	<path class="st164" d="M178.8,194.8c5.1-4.3,10.1-8.6,14.2-13.9c2.9-0.4,4.5,0.9,4.5,3.8c-0.5,3,4.3,5.2,2.6,7.6
		c-2.8,0.1-5.4-0.9-7.7-2.3c0.2,2.8,2.6,7.5-4.6,4.3c3,1.3,5.9,3.2,5.8,6.9c-1.9,5.9,3.3-0.1,3.4-2.9c0.3,0.1,1,0.4,1.3,0.5
		c3.6,3.8-4.2,6.8-2.3,11.5c-5,4.2-10.2,8.1-15.9,11.1c1.5-3.1,3.9-5.6,5.6-8.6c-0.8-5.5-2.2-11-0.8-16.5
		C183.4,194.4,180.9,195.1,178.8,194.8z"/>
</g>
<g id="_x23_9b7a33ff">
	<path class="st165" d="M120.1,182.1c4.3-0.3,8.6-0.1,12.9-0.1c2.1,8.2-1.3,5.3-5,2.1c-4.7,2.2-8.2,6.4-8,10.9
		C120,190.7,119.9,186.4,120.1,182.1z"/>
</g>
<g id="_x23_cea42dff">
	<path class="st166" d="M26.1,183.9c15.5,28.2,43.6,47.7,74.1,56.8c4.2,0.5,3.8,6.5,8,7.4c-13.9-2.5-27.4-7.7-40.4-13
		c-2.2-1.4-4.4-2.8-6.6-4.1c-7-5.3-14.2-10.3-21-16c-7-7.8-14.6-15.3-19.5-24.7C26.1,192.1,28.2,188.7,26.1,183.9z"/>
</g>
<g id="_x23_c08a19ff">
	<path class="st167" d="M216.2,188c4.4-1.1,2.4,3.1,1,5.2c-11.5,16.6-28.5,28.7-46.5,37.5c-2.5,0.9-4.5,0.4-5.9-1.5
		c1.5-0.6,2.9-1.2,4.4-1.9c3.8-1.8,7.5-3.7,11.1-5.9c5.7-3.1,10.9-7,15.9-11.1c6.1-5.5,12.1-11.4,17.1-18
		C214.2,190.9,215.2,189.4,216.2,188z"/>
</g>
<g id="_x23_fbf7e0ff">
	<path class="st168" d="M50.3,191.4c2.2-0.7,4.4-1.4,6.5-2.4c-0.3,3.6,1.4,5.3,5.5,4.8c-4,0.7-6.4,3.3-5.5,7.5
		c-0.8-1.5-1.6-3-2.5-4.4c-1.8,0.2-3.4,0.7-5.1,1.2C50.7,196.1,50.9,193.8,50.3,191.4z"/>
</g>
<g id="_x23_e0bf69ff">
	<path class="st169" d="M64,188.9c6.2,4.7,10.7,11.1,17.1,15.6c-0.3,0.3-1,1-1.3,1.3c-0.6,0.6-1.1,1.2-1.6,2
		c-1.3,2.8-3.4,5.6-3.3,8.9c4.1-0.3,7.3,5.5,7.2,9.3c-7-0.8-13.3-4.7-19-8.6C68.6,208.9,66.9,198,64,188.9z"/>
</g>
<g id="_x23_f9f6e3ff">
	<path class="st170" d="M192.3,189.9c2.4,1.4,4.9,2.5,7.7,2.3c-5.3,2.3,4.5,8-1.7,6.5c-0.3-0.1-1-0.4-1.3-0.5
		c-2-0.6-2.5,1.6-3.4,2.9c0.1-3.7-2.8-5.6-5.8-6.9C195,197.4,192.6,192.6,192.3,189.9z"/>
</g>
<g id="_x23_b3a374ff">
	<path class="st171" d="M56.8,201.3c-0.9-4.2,1.5-6.8,5.5-7.5c4,0.2-1.1,2.6-2.6,2.9c-3.6-0.2,0.5,8.5-2.9,5.5L56.8,201.3z"/>
</g>
<g id="_x23_f0dca5ff">
	<path class="st172" d="M186.6,233.4c16.6-9.9,29.8-24.4,41.4-39.6c-9.1,20.1-28.1,34.2-47,44.4
		C182.1,235.9,183.8,233.8,186.6,233.4z"/>
</g>
<g id="_x23_f0e5c4ff">
	<path class="st173" d="M166.2,203.1c4.2-2.7,8.5-5.5,12.7-8.3c2,0.4,4.6-0.4,6.1,1.5c-1.4,5.5,0,11,0.8,16.5
		c-1.7,3-4.1,5.5-5.6,8.6c-3.6,2.2-7.3,4.1-11.1,5.9c-5.9,0.1-6-5.9-1-7.3C162.3,215,162.7,209.1,166.2,203.1 M168.3,207.2
		c-1.8,1-2.6,2.8-2.3,4.9C166.9,210.7,172,206.1,168.3,207.2 M172.9,207.9c0.4,2.5,2,4.6,2.9,6.8c-1.8,0.9-4.1,1.3-4.9,3.3
		c2.4-0.7,4.7-1.7,7.1-2.4C177.2,212.7,175.2,209.7,172.9,207.9 M171.3,211.1c-1.2,0.6-1.9,2.3-1.2,3.5
		C171.7,214.6,174.6,210.6,171.3,211.1z"/>
</g>
<g id="_x23_b7b28eff">
	<path class="st174" d="M49.1,198.1c1.7-0.5,3.4-1,5.1-1.2C54.5,199.7,45.6,201.7,49.1,198.1z"/>
</g>
<g id="_x23_aca47cff">
	<path class="st175" d="M193.6,201.1c0.9-1.2,1.4-3.5,3.4-2.9C196.9,201,191.7,206.9,193.6,201.1z"/>
</g>
<g id="_x23_d8a42eff">
	<path class="st176" d="M81.2,200.7c0.9-3.2,5.6-0.3,8-0.8c6.3,2.9,13.2,4.3,20,5.1c5.5,0.8,10.5,3.8,15.9,4.8
		c8-1.4,16.1-3.1,23.9-5.8c3.1-1.3,6.3-0.5,9.4,0.1c-1,1-4.2,1.6-2.4,3.3c-0.2,0.2-0.6,0.6-0.8,0.8c-5.9,2.2-12.1,3.3-18.3,4.8
		c-5.9,1.4-11.9,3.6-18,3.6c-8.1-3.8-17.5-3.3-25.9-6.8C89.2,206.7,85.2,203.7,81.2,200.7z"/>
</g>
<g id="_x23_e3cf97ff">
	<path class="st177" d="M156,207.4c3.4-1.3,6.9-2.7,10.2-4.3c-3.4,6-3.8,11.9,1.9,16.8c-5,1.4-4.9,7.4,1,7.3
		c-1.4,0.7-2.9,1.3-4.4,1.9c-2.7,0.8-5.5,1.6-8.2,2.2c-2.9-1.9-4.8-4.9-0.7-6.8c-0.9-5.7-5.3-11.2-0.5-16.4
		C155.4,208,155.8,207.6,156,207.4z"/>
</g>
<g id="_x23_be9f58ff">
	<path class="st178" d="M79.8,205.9c0.3-0.3,1-1,1.3-1.3c3.3,1.8,6.5,3.8,9.7,5.7c0.3,0.4,1,1.1,1.4,1.4c-3.6,1.9-3.6,7.1-5.2,10.5
		c3.8-1.4,3.3-7.4,6.1-10.4c2,0,3.8,0.8,5.2,2.1c-3.1,2.7-5.8,6.2-3.1,10.2c-0.6,2.2-2.2,3.7-4.3,4.4c-3-0.5-5.8-1.7-8.7-2.5
		c0.1-3.8-3.1-9.6-7.2-9.3c-0.2-3.3,2-6,3.3-8.9c1.7,3.2-1.7,11.1,3.7,11.3C81.5,214.7,80.5,210.3,79.8,205.9z"/>
</g>
<g id="_x23_efe0b4ff">
	<path class="st179" d="M78.2,207.8c0.4-0.7,0.9-1.4,1.6-2c0.7,4.4,1.7,8.8,2.1,13.3C76.6,218.9,80,211,78.2,207.8z"/>
</g>
<g id="_x23_a29475ff">
	<path class="st180" d="M168.3,207.2c3.8-1.1-1.4,3.5-2.3,4.9C165.6,210.1,166.5,208.3,168.3,207.2z"/>
</g>
<g id="_x23_d9bf7bff">
	<path class="st181" d="M136.9,213c6.1-1.5,12.3-2.6,18.3-4.8c-4.8,5.2-0.3,10.6,0.5,16.4c-4.1,1.9-2.2,4.9,0.7,6.8
		c-4,1.2-8,2.2-12.1,2.9c-4.1-1.8-8.4-3.2-12.4-5.3c2.6-3.9,3.5-8.4,0.1-12.2c6.6,0.7,5.6,8.1,3.2,12.3c2.9,0.7,10.2,0.5,7.7-4
		c-1.5-2.6,1.1-10.6-3.1-8.1c-0.3,0.5-0.9,1.6-1.2,2.1C137.6,217.2,135.1,215.2,136.9,213z"/>
</g>
<g id="_x23_afab9cff">
	<path class="st182" d="M172.9,207.9c2.3,1.8,4.2,4.8,5,7.8c-2.4,0.7-4.7,1.7-7.1,2.4c0.8-2.1,3.2-2.4,4.9-3.3
		C174.9,212.4,173.3,210.4,172.9,207.9z"/>
</g>
<g id="_x23_b89240ff">
	<path class="st183" d="M90.8,210.2c0.6-0.1,1.7-0.2,2.3-0.3c8.3,3.5,17.8,2.9,25.9,6.8c-0.1,3.4,2.1,6.9-0.5,10.1
		c-1.3,2.1-2.1,4.4-2.5,6.8c-1.6-0.2-3.2-0.6-4.9-0.5c-7.4,2.6-13.2-3.9-20.2-4.7c2.1-0.7,3.8-2.2,4.3-4.4c5.2,2.7-0.6-2.2,1.1-4.8
		c0.8-2.6,3.1-4.6,5.9-4.8c3.8,4.2,0.7,9.1-3.2,11.7c6.9,0.8,9.5-9.2,3.2-11.7c-1.3-0.3-2.6-0.5-3.9-0.6c-1.5-1.3-3.2-2.1-5.2-2.1
		l-0.9-0.1C91.8,211.3,91.1,210.6,90.8,210.2 M112.9,217c4.3,1.7,3.9,7.1,1.1,10.2C120.3,226.9,119.3,215.6,112.9,217z"/>
</g>
<g id="_x23_aaa59aff">
	<path class="st184" d="M171.3,211.1c3.3-0.5,0.4,3.5-1.2,3.5C169.4,213.4,170.1,211.7,171.3,211.1z"/>
</g>
<g id="_x23_f5e4b2ff">
	<path class="st185" d="M86.9,222.1c1.7-3.4,1.6-8.6,5.2-10.5l0.9,0.1C90.2,214.7,90.8,220.7,86.9,222.1z"/>
</g>
<g id="_x23_bea35dff">
	<path class="st186" d="M119,216.7c6.1-0.1,12-2.2,18-3.6c-1.8,2.2,0.7,4.2,1.7,6.1c0.8,2.8-1.5,8.9,3.2,8c-0.7-3.4-1.6-6.7-2-10.1
		c4.2-2.5,1.7,5.5,3.1,8.1c2.5,4.5-4.8,4.7-7.7,4c2.3-4.2,3.4-11.6-3.2-12.3c3.4,3.8,2.6,8.3-0.1,12.2c-4.2,2-11.1,2.8-13.5-2.2
		C121,223.6,118.8,220,119,216.7 M125,218.1c-0.7,3.6,0.5,9.6,5,10.1c-1.4-2.4-3.1-4.6-4-7.2C126.2,219.4,127.8,216.9,125,218.1z"/>
</g>
<g id="_x23_edd9a3ff">
	<path class="st187" d="M98.3,213.9c1.3,0.2,2.6,0.3,3.9,0.6c-2.8,0.2-5.1,2.2-5.9,4.8c-1.7,2.6,4.1,7.5-1.1,4.8
		C92.5,220.1,95.2,216.6,98.3,213.9z"/>
</g>
<g id="_x23_eed799ff">
	<path class="st188" d="M40.2,215c6.7,5.7,14,10.7,21,16c-6.2-0.9-10.5-5.6-15.7-8.4C43,220.2,38.7,219.1,40.2,215z"/>
</g>
<g id="_x23_e8d49cff">
	<path class="st189" d="M102.2,214.5c6.3,2.4,3.7,12.5-3.2,11.7C102.9,223.6,105.9,218.7,102.2,214.5z"/>
</g>
<g id="_x23_f6dfaeff">
	<path class="st190" d="M112.9,217c6.4-1.4,7.4,9.9,1.1,10.2C116.7,224,117.2,218.7,112.9,217z"/>
</g>
<g id="_x23_efe1c0ff">
	<path class="st191" d="M138.6,219.1c0.3-0.5,0.9-1.6,1.2-2.1c0.4,3.4,1.3,6.8,2,10.1C137.1,228.1,139.4,221.9,138.6,219.1z"/>
</g>
<g id="_x23_f5e5bdff">
	<path class="st192" d="M125,218.1c2.7-1.1,1.2,1.4,1,2.9c0.9,2.6,2.6,4.8,4,7.2C125.6,227.6,124.3,221.7,125,218.1z"/>
</g>
<g id="_x23_d6ae4eff">
	<path class="st193" d="M115.9,233.6c0.4-2.4,1.2-4.7,2.5-6.8c2.4,5,9.3,4.2,13.5,2.2c4,2.1,8.2,3.5,12.4,5.3
		C135.1,237.6,125.3,234.9,115.9,233.6z"/>
</g>
<g id="_x23_ecd289ff">
	<path class="st194" d="M67.8,235.1c13.1,5.3,26.5,10.5,40.4,13c0.5,0,1.4,0.1,1.9,0.1c0,0.5-0.1,1.4-0.1,1.8h-6.4
		C91.5,245.7,76.8,244.8,67.8,235.1z"/>
</g>
<g id="_x23_e7d496ff">
	<path class="st195" d="M176.8,239.8c-0.7-3.2,2.4-3.3,4.1-1.5C179.7,239.1,178.3,239.5,176.8,239.8z"/>
</g>
<g id="_x23_e4d29aff">
	<path class="st196" d="M169.1,243.3c1.3-2.4,3.4-4.1,6-2.4C173.3,242.2,171.2,242.7,169.1,243.3z"/>
</g>
<g id="_x23_e0cc86ff">
	<path class="st197" d="M163.1,245.4c1.2-2.7,3.4-3.9,6-2.1C167.1,244,165.1,244.7,163.1,245.4z"/>
</g>
<g id="_x23_d7ab3fff">
	<path class="st198" d="M125.1,247.5c11.6,0.2,22.9-3.1,34.4-3.7c-0.8,1.1-1.6,2.1-2.5,3.1c-3.9-1.1-6.8,2.3-10.4,3.1h-36.6
		c0-0.5,0.1-1.4,0.1-1.8C114.8,244.5,120,248.6,125.1,247.5z"/>
</g>
<g id="_x23_e3cd8eff">
	<path class="st199" d="M159.5,243.8c1.2,0.5,2.4,1.1,3.6,1.6c-2,0.7-4,1.6-6.1,1.5C157.9,245.9,158.7,244.9,159.5,243.8z"/>
</g>
</svg>
