<?xml version="1.0" encoding="UTF-8" ?>
<!DOCTYPE svg PUBLIC "-//W3C//DTD SVG 1.1//EN" "http://www.w3.org/Graphics/SVG/1.1/DTD/svg11.dtd">
<svg width="250pt" height="218pt" viewBox="0 0 250 218" version="1.1" xmlns="http://www.w3.org/2000/svg">
<g id="#ffffffff">
<path fill="#ffffff" opacity="1.00" d=" M 0.00 0.00 L 250.00 0.00 L 250.00 218.00 L 0.00 218.00 L 0.00 0.00 M 76.65 20.61 C 76.52 36.53 76.46 52.46 76.68 68.38 C 78.11 68.53 79.55 68.64 80.99 68.70 C 129.78 68.76 178.57 68.60 227.35 68.78 C 228.07 67.29 228.58 65.69 228.47 64.02 C 228.42 51.01 228.41 37.99 228.47 24.98 C 228.61 23.33 228.09 21.76 227.33 20.32 C 183.22 20.51 139.11 20.35 95.00 20.40 C 88.88 20.46 82.76 20.20 76.65 20.61 M 17.22 87.16 L 17.26 87.77 C 16.53 89.40 16.11 91.16 16.17 92.96 C 16.25 105.65 16.29 118.35 16.16 131.04 C 16.28 132.78 16.00 134.68 16.83 136.28 C 18.67 138.12 21.61 137.46 23.96 137.69 C 37.24 137.44 50.54 137.85 63.81 137.52 C 66.24 137.61 66.82 134.96 66.71 133.05 C 66.70 119.01 66.58 104.98 66.76 90.94 C 66.86 89.66 66.58 88.36 65.46 87.59 C 49.39 87.05 33.28 87.91 17.22 87.16 M 76.84 87.85 C 76.36 93.56 76.66 99.28 76.61 105.00 C 76.82 115.36 76.17 125.74 76.93 136.08 C 78.61 136.26 80.29 136.43 81.98 136.49 C 114.65 136.45 147.33 136.46 180.01 136.48 C 181.72 136.43 183.44 136.33 185.16 136.21 C 185.54 120.09 185.51 103.92 185.17 87.80 C 180.79 87.44 176.39 87.49 172.00 87.55 C 144.67 87.54 117.33 87.55 90.00 87.55 C 85.61 87.48 81.21 87.39 76.84 87.85 M 76.53 155.45 C 76.11 170.62 76.47 185.81 76.35 200.98 C 75.99 203.82 79.53 204.21 81.58 204.38 C 90.38 204.89 99.19 204.47 108.00 204.59 C 113.87 204.44 119.85 205.24 125.61 203.74 C 125.77 187.61 125.89 171.47 125.55 155.34 C 123.39 154.98 121.22 154.66 119.02 154.65 C 107.35 154.74 95.67 154.76 83.99 154.65 C 81.48 154.58 78.99 154.94 76.53 155.45 Z" />
</g>
<g id="#02a5c2ff">
<path fill="#02a5c2" opacity="1.00" d=" M 76.65 20.61 C 82.76 20.20 88.88 20.46 95.00 20.40 C 139.11 20.35 183.22 20.51 227.33 20.32 C 228.09 21.76 228.61 23.33 228.47 24.98 C 228.41 37.99 228.42 51.01 228.47 64.02 C 228.58 65.69 228.07 67.29 227.35 68.78 C 178.57 68.60 129.78 68.76 80.99 68.70 C 79.55 68.64 78.11 68.53 76.68 68.38 C 76.46 52.46 76.52 36.53 76.65 20.61 Z" />
</g>
<g id="#5fcadeff">
<path fill="#5fcade" opacity="1.00" d=" M 17.22 87.16 C 33.28 87.91 49.39 87.05 65.46 87.59 C 64.89 103.45 65.68 119.34 65.07 135.20 C 57.39 135.76 49.69 135.35 42.00 135.44 C 33.94 135.34 25.87 135.75 17.82 135.21 C 17.07 119.41 18.20 103.57 17.26 87.77 L 17.22 87.16 Z" />
<path fill="#5fcade" opacity="1.00" d=" M 76.84 87.85 C 81.21 87.39 85.61 87.48 90.00 87.55 C 117.33 87.55 144.67 87.54 172.00 87.55 C 176.39 87.49 180.79 87.44 185.17 87.80 C 185.51 103.92 185.54 120.09 185.16 136.21 C 183.44 136.33 181.72 136.43 180.01 136.48 C 147.33 136.46 114.65 136.45 81.98 136.49 C 80.29 136.43 78.61 136.26 76.93 136.08 C 76.17 125.74 76.82 115.36 76.61 105.00 C 76.66 99.28 76.36 93.56 76.84 87.85 Z" />
</g>
<g id="#abebf4ff">
<path fill="#abebf4" opacity="1.00" d=" M 16.17 92.96 C 16.11 91.16 16.53 89.40 17.26 87.77 C 18.20 103.57 17.07 119.41 17.82 135.21 C 25.87 135.75 33.94 135.34 42.00 135.44 C 49.69 135.35 57.39 135.76 65.07 135.20 C 65.68 119.34 64.89 103.45 65.46 87.59 C 66.58 88.36 66.86 89.66 66.76 90.94 C 66.58 104.98 66.70 119.01 66.71 133.05 C 66.82 134.96 66.24 137.61 63.81 137.52 C 50.54 137.85 37.24 137.44 23.96 137.69 C 21.61 137.46 18.67 138.12 16.83 136.28 C 16.00 134.68 16.28 132.78 16.16 131.04 C 16.29 118.35 16.25 105.65 16.17 92.96 Z" />
<path fill="#abebf4" opacity="1.00" d=" M 76.53 155.45 C 78.99 154.94 81.48 154.58 83.99 154.65 C 95.67 154.76 107.35 154.74 119.02 154.65 C 121.22 154.66 123.39 154.98 125.55 155.34 C 125.89 171.47 125.77 187.61 125.61 203.74 C 119.85 205.24 113.87 204.44 108.00 204.59 C 99.19 204.47 90.38 204.89 81.58 204.38 C 79.53 204.21 75.99 203.82 76.35 200.98 C 76.47 185.81 76.11 170.62 76.53 155.45 Z" />
</g>
</svg>
