<?xml version="1.0" encoding="UTF-8" ?>
<!DOCTYPE svg PUBLIC "-//W3C//DTD SVG 1.1//EN" "http://www.w3.org/Graphics/SVG/1.1/DTD/svg11.dtd">
<svg width="250pt" height="215pt" viewBox="0 0 250 215" version="1.1" xmlns="http://www.w3.org/2000/svg">
<g id="#feffffff">
<path fill="#feffff" opacity="1.00" d=" M 0.00 0.00 L 250.00 0.00 L 250.00 215.00 L 0.00 215.00 L 0.00 0.00 M 76.40 9.73 C 72.66 10.92 70.34 15.10 70.52 18.92 C 70.54 31.28 70.63 43.64 70.49 56.00 C 70.46 59.09 70.50 62.68 73.00 64.92 C 74.52 66.57 76.89 66.52 78.95 66.60 C 128.32 66.55 177.69 66.60 227.05 66.57 C 230.78 66.99 234.66 63.92 234.49 60.05 C 234.61 46.03 234.49 32.00 234.55 17.98 C 234.98 13.39 230.55 9.13 226.01 9.50 C 180.01 9.53 134.01 9.51 88.01 9.51 C 84.14 9.56 80.25 9.23 76.40 9.73 M 11.97 80.70 C 7.44 86.49 8.93 94.26 8.69 101.08 C 9.02 111.38 7.90 121.77 9.55 131.99 C 9.74 135.62 14.10 136.44 17.01 136.45 C 29.98 136.47 42.96 136.39 55.93 136.48 C 58.85 136.59 61.61 135.62 64.27 134.58 C 65.99 127.84 65.27 120.87 65.37 114.00 C 65.36 106.34 65.38 98.68 65.42 91.02 C 65.36 87.80 65.16 83.96 62.55 81.69 C 58.42 79.49 53.54 79.72 49.00 79.65 C 36.65 79.89 24.26 79.10 11.97 80.70 M 76.79 80.14 C 73.63 81.86 71.21 85.26 71.56 88.98 C 71.56 101.67 71.66 114.36 71.53 127.04 C 71.64 129.58 71.27 132.67 73.47 134.48 C 75.15 136.25 77.71 136.46 80.00 136.47 C 113.68 136.41 147.37 136.42 181.05 136.46 C 184.83 136.79 189.71 134.39 189.39 130.04 C 189.53 117.35 189.27 104.66 189.48 91.97 C 189.41 89.61 189.66 87.13 188.77 84.89 C 187.17 81.72 183.66 79.56 180.09 79.69 C 149.04 79.68 117.99 79.73 86.94 79.68 C 83.57 79.75 80.09 79.27 76.79 80.14 M 75.51 154.42 C 75.00 165.27 75.39 176.14 75.27 186.99 C 75.38 192.03 74.86 197.12 75.64 202.13 C 77.17 204.07 79.84 203.58 82.01 203.75 C 94.01 203.59 106.03 203.76 118.03 203.69 C 120.18 203.82 122.00 202.60 123.77 201.57 C 123.57 186.97 123.87 172.37 123.65 157.77 C 124.27 154.50 120.30 154.30 118.00 154.29 C 103.84 154.40 89.67 154.18 75.51 154.42 Z" />
</g>
<g id="#aeecf4ff">
<path fill="#aeecf4" opacity="1.00" d=" M 76.40 9.73 C 80.25 9.23 84.14 9.56 88.01 9.51 C 134.01 9.51 180.01 9.53 226.01 9.50 C 230.55 9.13 234.98 13.39 234.55 17.98 C 234.49 32.00 234.61 46.03 234.49 60.05 C 234.66 63.92 230.78 66.99 227.05 66.57 C 177.69 66.60 128.32 66.55 78.95 66.60 C 76.89 66.52 74.52 66.57 73.00 64.92 C 70.50 62.68 70.46 59.09 70.49 56.00 C 70.63 43.64 70.54 31.28 70.52 18.92 C 70.34 15.10 72.66 10.92 76.40 9.73 M 77.56 12.90 C 74.85 14.06 73.39 17.08 73.61 19.95 C 73.61 31.32 73.71 42.68 73.59 54.05 C 73.63 57.20 73.55 60.83 75.87 63.29 C 77.18 64.68 79.26 64.38 80.98 64.53 C 128.98 64.44 176.99 64.50 224.99 64.50 C 226.46 64.39 228.16 64.46 229.29 63.32 C 231.64 61.24 231.42 57.85 231.51 55.00 C 231.38 42.99 231.53 30.97 231.46 18.96 C 231.70 15.51 228.48 12.25 225.01 12.59 C 177.02 12.57 129.03 12.64 81.04 12.55 C 79.87 12.54 78.71 12.66 77.56 12.90 Z" />
<path fill="#aeecf4" opacity="1.00" d=" M 11.97 80.70 C 24.26 79.10 36.65 79.89 49.00 79.65 C 53.54 79.72 58.42 79.49 62.55 81.69 C 65.16 83.96 65.36 87.80 65.42 91.02 C 65.38 98.68 65.36 106.34 65.37 114.00 C 65.27 120.87 65.99 127.84 64.27 134.58 C 61.61 135.62 58.85 136.59 55.93 136.48 C 42.96 136.39 29.98 136.47 17.01 136.45 C 14.10 136.44 9.74 135.62 9.55 131.99 C 7.90 121.77 9.02 111.38 8.69 101.08 C 8.93 94.26 7.44 86.49 11.97 80.70 M 15.75 85.36 C 14.95 86.12 14.16 86.89 13.37 87.65 C 13.57 100.44 13.41 113.24 13.42 126.03 C 13.09 129.20 15.33 133.05 18.92 132.58 C 32.14 132.62 45.37 132.43 58.59 132.66 C 59.62 130.24 60.69 127.75 60.56 125.06 C 60.51 114.03 60.43 103.00 60.58 91.96 C 60.41 89.90 60.91 87.37 59.15 85.84 C 56.17 85.06 53.05 85.37 50.01 85.36 C 38.59 85.46 27.17 85.39 15.75 85.36 Z" />
<path fill="#aeecf4" opacity="1.00" d=" M 76.79 80.14 C 80.09 79.27 83.57 79.75 86.94 79.68 C 117.99 79.73 149.04 79.68 180.09 79.69 C 183.66 79.56 187.17 81.72 188.77 84.89 C 189.66 87.13 189.41 89.61 189.48 91.97 C 189.27 104.66 189.53 117.35 189.39 130.04 C 189.71 134.39 184.83 136.79 181.05 136.46 C 147.37 136.42 113.68 136.41 80.00 136.47 C 77.71 136.46 75.15 136.25 73.47 134.48 C 71.27 132.67 71.64 129.58 71.53 127.04 C 71.66 114.36 71.56 101.67 71.56 88.98 C 71.21 85.26 73.63 81.86 76.79 80.14 M 75.48 91.96 C 75.68 104.00 75.44 116.03 75.58 128.06 C 75.34 130.63 76.90 133.81 79.91 133.32 C 112.93 133.39 145.95 133.25 178.96 133.39 C 180.58 133.25 182.76 133.62 183.73 131.93 C 185.66 129.00 185.24 125.30 185.35 121.96 C 185.17 111.29 185.41 100.61 185.28 89.93 C 185.50 87.01 183.12 84.08 180.02 84.60 C 145.58 84.63 111.14 84.66 76.71 84.59 C 75.97 86.98 75.32 89.43 75.48 91.96 Z" />
<path fill="#aeecf4" opacity="1.00" d=" M 75.51 154.42 C 89.67 154.18 103.84 154.40 118.00 154.29 C 120.30 154.30 124.27 154.50 123.65 157.77 C 123.87 172.37 123.57 186.97 123.77 201.57 C 122.00 202.60 120.18 203.82 118.03 203.69 C 106.03 203.76 94.01 203.59 82.01 203.75 C 79.84 203.58 77.17 204.07 75.64 202.13 C 74.86 197.12 75.38 192.03 75.27 186.99 C 75.39 176.14 75.00 165.27 75.51 154.42 Z" />
</g>
<g id="#5fcadeff">
<path fill="#5fcade" opacity="1.00" d=" M 77.56 12.90 C 78.71 12.66 79.87 12.54 81.04 12.55 C 129.03 12.64 177.02 12.57 225.01 12.59 C 228.48 12.25 231.70 15.51 231.46 18.96 C 231.53 30.97 231.38 42.99 231.51 55.00 C 231.42 57.85 231.64 61.24 229.29 63.32 C 228.16 64.46 226.46 64.39 224.99 64.50 C 176.99 64.50 128.98 64.44 80.98 64.53 C 79.26 64.38 77.18 64.68 75.87 63.29 C 73.55 60.83 73.63 57.20 73.59 54.05 C 73.71 42.68 73.61 31.32 73.61 19.95 C 73.39 17.08 74.85 14.06 77.56 12.90 M 76.50 16.43 C 76.41 29.65 76.49 42.87 76.43 56.09 C 76.71 57.49 76.07 59.50 77.51 60.41 C 81.66 60.94 85.85 60.59 90.01 60.64 C 130.68 60.63 171.35 60.64 212.02 60.63 C 217.50 60.67 222.98 60.72 228.46 60.45 C 228.70 45.78 228.57 31.11 228.53 16.45 C 216.03 16.14 203.52 16.39 191.01 16.31 C 152.84 16.39 114.66 16.14 76.50 16.43 Z" />
<path fill="#5fcade" opacity="1.00" d=" M 75.48 91.96 C 75.32 89.43 75.97 86.98 76.71 84.59 C 111.14 84.66 145.58 84.63 180.02 84.60 C 183.12 84.08 185.50 87.01 185.28 89.93 C 185.41 100.61 185.17 111.29 185.35 121.96 C 185.24 125.30 185.66 129.00 183.73 131.93 C 182.76 133.62 180.58 133.25 178.96 133.39 C 145.95 133.25 112.93 133.39 79.91 133.32 C 76.90 133.81 75.34 130.63 75.58 128.06 C 75.44 116.03 75.68 104.00 75.48 91.96 Z" />
<path fill="#5fcade" opacity="1.00" d=" M 15.75 85.36 C 27.17 85.39 38.59 85.46 50.01 85.36 C 53.05 85.37 56.17 85.06 59.15 85.84 C 60.91 87.37 60.41 89.90 60.58 91.96 C 60.43 103.00 60.51 114.03 60.56 125.06 C 60.69 127.75 59.62 130.24 58.59 132.66 C 45.37 132.43 32.14 132.62 18.92 132.58 C 15.33 133.05 13.09 129.20 13.42 126.03 C 13.41 113.24 13.57 100.44 13.37 87.65 C 14.16 86.89 14.95 86.12 15.75 85.36 Z" />
</g>
<g id="#02a5c2ff">
<path fill="#02a5c2" opacity="1.00" d=" M 76.50 16.43 C 114.66 16.14 152.84 16.39 191.01 16.31 C 203.52 16.39 216.03 16.14 228.53 16.45 C 228.57 31.11 228.70 45.78 228.46 60.45 C 222.98 60.72 217.50 60.67 212.02 60.63 C 171.35 60.64 130.68 60.63 90.01 60.64 C 85.85 60.59 81.66 60.94 77.51 60.41 C 76.07 59.50 76.71 57.49 76.43 56.09 C 76.49 42.87 76.41 29.65 76.50 16.43 Z" />
</g>
</svg>
