<?xml version="1.0" encoding="UTF-8" ?>
<!DOCTYPE svg PUBLIC "-//W3C//DTD SVG 1.1//EN" "http://www.w3.org/Graphics/SVG/1.1/DTD/svg11.dtd">
<svg width="250pt" height="250pt" viewBox="0 0 250 250" version="1.1" xmlns="http://www.w3.org/2000/svg">
<g id="#ffffffff">
<path fill="#ffffff" opacity="1.00" d=" M 0.00 0.00 L 250.00 0.00 L 250.00 250.00 L 0.00 250.00 L 0.00 0.00 M 114.37 15.39 C 92.28 16.92 71.03 26.07 53.78 39.79 C 52.93 40.64 51.65 41.40 51.63 42.74 C 47.04 44.40 44.29 48.68 41.11 52.09 C 24.72 70.64 14.10 94.69 13.48 119.58 C 12.26 126.06 13.91 132.54 13.95 139.04 C 16.68 164.06 28.91 187.66 46.77 205.24 C 57.29 214.89 69.28 223.10 82.58 228.41 C 91.97 231.56 101.44 234.95 111.41 235.60 C 117.91 235.98 124.44 236.48 130.94 235.76 C 154.90 234.90 178.01 224.58 196.11 209.09 C 215.49 192.16 228.73 168.40 233.00 143.04 C 233.81 134.39 234.92 125.68 233.84 117.00 C 232.61 95.85 224.19 75.42 211.40 58.64 C 205.93 51.82 200.32 44.97 193.15 39.85 C 185.45 34.36 177.86 28.30 168.93 24.93 C 162.58 21.65 155.81 19.23 148.77 18.00 C 143.05 15.67 136.82 16.07 130.83 15.18 C 125.36 14.47 119.81 14.53 114.37 15.39 Z" />
</g>
<g id="#e7e8e9ff">
<path fill="#e7e8e9" opacity="1.00" d=" M 114.37 15.39 C 119.81 14.53 125.36 14.47 130.83 15.18 C 136.82 16.07 143.05 15.67 148.77 18.00 C 155.81 19.23 162.58 21.65 168.93 24.93 C 167.64 25.03 166.36 25.19 165.08 25.39 C 166.06 28.54 170.52 28.38 173.01 30.01 C 187.37 37.45 200.57 47.72 209.88 61.08 C 220.85 75.24 227.67 92.47 229.96 110.20 C 231.83 120.25 231.71 130.69 229.90 140.74 C 226.69 168.76 211.08 194.74 188.82 211.84 C 172.55 223.37 153.35 231.39 133.28 232.44 C 124.00 233.98 114.63 232.66 105.38 231.55 C 98.47 230.31 91.56 228.84 85.07 226.08 C 73.77 222.43 63.87 215.61 54.47 208.53 C 43.37 199.82 34.79 188.23 28.11 175.90 C 24.78 167.88 21.05 159.90 19.41 151.32 C 18.20 146.71 16.59 142.08 17.31 137.24 C 17.99 131.97 14.95 126.83 16.68 121.63 C 17.94 117.60 17.15 113.39 17.29 109.27 C 21.32 85.57 32.31 62.52 50.37 46.33 C 51.46 45.45 51.41 43.99 51.63 42.74 C 51.65 41.40 52.93 40.64 53.78 39.79 C 71.03 26.07 92.28 16.92 114.37 15.39 M 114.39 26.31 C 99.02 27.56 84.02 32.71 71.02 41.00 C 64.11 44.80 58.14 50.03 52.71 55.71 C 28.12 80.00 17.85 118.00 27.53 151.25 C 30.35 164.10 36.96 175.81 44.50 186.46 C 47.92 191.33 52.65 195.00 56.62 199.38 C 61.47 204.76 68.00 208.09 73.93 212.11 C 83.92 217.73 94.79 221.88 106.10 223.89 C 121.90 226.36 138.32 225.48 153.60 220.66 C 160.97 218.68 167.55 214.71 174.32 211.33 C 183.19 206.26 191.69 200.10 197.97 191.93 C 204.41 185.06 209.30 176.92 213.56 168.58 C 217.25 159.97 220.87 151.14 221.83 141.75 C 224.67 127.42 223.12 112.62 219.59 98.56 C 217.01 88.72 212.33 79.55 207.14 70.85 C 201.78 63.65 196.69 56.02 189.33 50.67 C 183.33 44.19 175.26 40.51 167.69 36.26 C 151.38 27.90 132.61 24.42 114.39 26.31 Z" />
</g>
<g id="#dfe0e0ff">
<path fill="#dfe0e0" opacity="1.00" d=" M 165.08 25.39 C 166.36 25.19 167.64 25.03 168.93 24.93 C 177.86 28.30 185.45 34.36 193.15 39.85 C 200.32 44.97 205.93 51.82 211.40 58.64 C 224.19 75.42 232.61 95.85 233.84 117.00 C 234.92 125.68 233.81 134.39 233.00 143.04 C 228.73 168.40 215.49 192.16 196.11 209.09 C 178.01 224.58 154.90 234.90 130.94 235.76 C 124.44 236.48 117.91 235.98 111.41 235.60 C 101.44 234.95 91.97 231.56 82.58 228.41 C 69.28 223.10 57.29 214.89 46.77 205.24 C 28.91 187.66 16.68 164.06 13.95 139.04 C 13.91 132.54 12.26 126.06 13.48 119.58 C 14.10 94.69 24.72 70.64 41.11 52.09 C 44.29 48.68 47.04 44.40 51.63 42.74 C 51.41 43.99 51.46 45.45 50.37 46.33 C 32.31 62.52 21.32 85.57 17.29 109.27 C 17.15 113.39 17.94 117.60 16.68 121.63 C 14.95 126.83 17.99 131.97 17.31 137.24 C 16.59 142.08 18.20 146.71 19.41 151.32 C 21.05 159.90 24.78 167.88 28.11 175.90 C 34.79 188.23 43.37 199.82 54.47 208.53 C 63.87 215.61 73.77 222.43 85.07 226.08 C 91.56 228.84 98.47 230.31 105.38 231.55 C 114.63 232.66 124.00 233.98 133.28 232.44 C 153.35 231.39 172.55 223.37 188.82 211.84 C 211.08 194.74 226.69 168.76 229.90 140.74 C 231.71 130.69 231.83 120.25 229.96 110.20 C 227.67 92.47 220.85 75.24 209.88 61.08 C 200.57 47.72 187.37 37.45 173.01 30.01 C 170.52 28.38 166.06 28.54 165.08 25.39 Z" />
</g>
<g id="#f1f2f2ff">
<path fill="#f1f2f2" opacity="1.00" d=" M 114.39 26.31 C 132.61 24.42 151.38 27.90 167.69 36.26 C 175.26 40.51 183.33 44.19 189.33 50.67 C 196.69 56.02 201.78 63.65 207.14 70.85 C 212.33 79.55 217.01 88.72 219.59 98.56 C 223.12 112.62 224.67 127.42 221.83 141.75 C 220.87 151.14 217.25 159.97 213.56 168.58 C 209.30 176.92 204.41 185.06 197.97 191.93 C 191.69 200.10 183.19 206.26 174.32 211.33 C 167.55 214.71 160.97 218.68 153.60 220.66 C 138.32 225.48 121.90 226.36 106.10 223.89 C 94.79 221.88 83.92 217.73 73.93 212.11 C 68.00 208.09 61.47 204.76 56.62 199.38 C 52.65 195.00 47.92 191.33 44.50 186.46 C 36.96 175.81 30.35 164.10 27.53 151.25 C 17.85 118.00 28.12 80.00 52.71 55.71 C 58.14 50.03 64.11 44.80 71.02 41.00 C 84.02 32.71 99.02 27.56 114.39 26.31 M 115.57 56.44 C 115.36 60.70 114.71 64.92 114.00 69.12 C 112.26 74.50 108.43 79.13 107.59 84.80 C 105.00 87.55 102.71 90.60 100.99 93.98 C 95.62 97.97 91.47 103.47 85.61 106.90 L 86.23 107.34 C 82.78 107.97 80.06 110.45 76.87 111.77 C 69.73 114.51 62.53 117.71 54.71 117.57 C 53.55 121.26 53.53 125.19 53.65 129.01 C 53.60 130.35 54.04 131.51 54.96 132.49 C 59.71 132.88 64.31 131.30 68.96 130.64 C 73.26 130.12 76.91 127.68 80.78 125.97 C 86.35 123.63 92.01 121.10 96.65 117.17 C 102.37 112.92 108.53 108.42 111.97 102.05 C 115.31 99.03 117.76 95.16 119.88 91.23 L 120.09 91.95 C 120.75 89.22 121.85 85.72 125.40 86.49 C 129.31 98.00 138.05 107.06 147.08 114.85 C 148.80 116.06 150.60 118.05 152.93 117.44 C 156.46 116.36 159.61 114.34 163.12 113.18 C 164.33 112.60 166.12 112.45 166.58 110.94 C 166.18 109.86 165.47 109.07 164.46 108.56 C 156.64 104.84 151.00 98.02 145.20 91.84 C 142.68 88.03 140.53 83.99 138.03 80.18 C 136.93 77.35 135.30 74.77 134.28 71.91 C 132.59 67.27 132.35 62.29 131.30 57.50 C 130.82 56.15 129.10 56.38 127.97 56.21 C 123.84 56.11 119.69 56.01 115.57 56.44 M 119.46 113.43 C 116.33 116.06 113.44 119.01 110.77 122.11 C 112.05 125.74 115.74 127.93 118.22 130.78 C 121.11 133.32 123.34 137.00 126.96 138.48 C 130.29 135.53 133.49 132.37 136.33 128.93 C 134.26 124.34 129.44 121.59 126.27 117.73 C 124.24 116.12 122.52 112.41 119.46 113.43 M 171.15 123.05 C 167.27 124.43 163.12 125.46 159.96 128.26 C 153.89 131.52 147.64 135.05 143.16 140.49 C 139.61 142.78 137.11 146.27 134.42 149.44 C 131.88 152.70 129.19 155.94 127.54 159.76 L 128.38 160.20 C 127.92 160.29 127.01 160.49 126.55 160.59 C 125.99 161.91 125.55 163.29 125.00 164.62 C 124.29 164.53 122.87 164.35 122.16 164.26 C 120.37 161.34 119.14 158.11 117.15 155.32 C 111.41 146.92 104.43 139.27 95.98 133.54 C 93.93 133.11 92.35 134.72 90.65 135.54 C 87.55 137.43 83.96 138.15 80.44 138.84 C 80.38 139.68 80.42 140.53 80.55 141.37 C 88.03 145.57 95.03 150.81 100.31 157.63 C 101.40 159.06 102.41 160.60 103.84 161.72 C 109.79 171.78 115.31 182.62 115.65 194.56 C 118.22 195.89 121.22 195.33 124.00 195.47 C 126.42 195.28 129.13 195.95 131.28 194.53 C 131.94 190.25 132.44 185.91 133.89 181.81 C 135.04 178.19 136.87 174.80 137.66 171.07 C 139.70 168.82 140.77 165.94 142.43 163.44 C 146.36 156.98 152.50 152.40 157.24 146.64 C 159.57 146.40 161.32 144.36 163.33 143.27 C 168.73 139.43 175.24 137.76 181.07 134.82 C 184.81 134.42 188.94 134.41 192.32 132.84 C 192.86 128.46 192.70 124.01 192.32 119.62 C 187.26 118.93 182.21 120.07 177.20 120.64 C 174.98 120.84 173.21 122.34 171.15 123.05 Z" />
</g>
<g id="#f1518dff">
<path fill="#f1518d" opacity="1.00" d=" M 115.57 56.44 C 119.69 56.01 123.84 56.11 127.97 56.21 C 129.10 56.38 130.82 56.15 131.30 57.50 C 132.35 62.29 132.59 67.27 134.28 71.91 C 135.30 74.77 136.93 77.35 138.03 80.18 C 137.90 80.63 137.66 81.55 137.53 82.00 C 136.07 80.35 135.03 78.40 133.81 76.57 C 132.75 77.23 131.76 77.99 130.68 78.63 C 126.86 77.35 123.23 75.35 119.90 73.09 C 118.55 70.46 118.03 67.50 117.16 64.70 C 116.37 66.83 115.63 68.99 114.53 70.99 C 114.40 70.52 114.13 69.59 114.00 69.12 C 114.71 64.92 115.36 60.70 115.57 56.44 Z" />
</g>
<g id="#e1447dff">
<path fill="#e1447d" opacity="1.00" d=" M 114.53 70.99 C 115.63 68.99 116.37 66.83 117.16 64.70 C 118.03 67.50 118.55 70.46 119.90 73.09 C 123.23 75.35 126.86 77.35 130.68 78.63 C 131.76 77.99 132.75 77.23 133.81 76.57 C 135.03 78.40 136.07 80.35 137.53 82.00 C 137.66 81.55 137.90 80.63 138.03 80.18 C 140.53 83.99 142.68 88.03 145.20 91.84 C 151.00 98.02 156.64 104.84 164.46 108.56 C 165.47 109.07 166.18 109.86 166.58 110.94 C 166.12 112.45 164.33 112.60 163.12 113.18 C 159.61 114.34 156.46 116.36 152.93 117.44 C 150.60 118.05 148.80 116.06 147.08 114.85 C 138.05 107.06 129.31 98.00 125.40 86.49 C 121.85 85.72 120.75 89.22 120.09 91.95 L 119.88 91.23 C 119.75 89.46 119.69 87.68 119.39 85.93 C 117.85 85.62 116.29 85.43 114.76 85.05 C 113.24 83.47 113.09 81.04 112.27 79.07 C 110.77 81.03 109.30 83.02 107.59 84.80 C 108.43 79.13 112.26 74.50 114.00 69.12 C 114.13 69.59 114.40 70.52 114.53 70.99 Z" />
</g>
<g id="#d83c74ff">
<path fill="#d83c74" opacity="1.00" d=" M 107.59 84.80 C 109.30 83.02 110.77 81.03 112.27 79.07 C 113.09 81.04 113.24 83.47 114.76 85.05 C 116.29 85.43 117.85 85.62 119.39 85.93 C 119.69 87.68 119.75 89.46 119.88 91.23 C 117.76 95.16 115.31 99.03 111.97 102.05 C 112.60 100.06 113.23 98.07 113.72 96.05 C 111.49 97.20 109.38 98.60 107.07 99.58 C 103.97 98.09 104.25 94.76 105.43 92.07 C 103.93 92.65 102.45 93.30 100.99 93.98 C 102.71 90.60 105.00 87.55 107.59 84.80 Z" />
</g>
<g id="#c72e62ff">
<path fill="#c72e62" opacity="1.00" d=" M 100.99 93.98 C 102.45 93.30 103.93 92.65 105.43 92.07 C 104.25 94.76 103.97 98.09 107.07 99.58 C 109.38 98.60 111.49 97.20 113.72 96.05 C 113.23 98.07 112.60 100.06 111.97 102.05 C 108.53 108.42 102.37 112.92 96.65 117.17 C 96.13 116.27 95.62 115.37 95.01 114.54 C 92.14 114.20 88.39 115.98 86.46 113.02 C 87.01 111.43 87.82 109.95 88.38 108.36 C 87.84 108.11 86.77 107.60 86.23 107.34 L 85.61 106.90 C 91.47 103.47 95.62 97.97 100.99 93.98 Z" />
</g>
<g id="#b01b4cff">
<path fill="#b01b4c" opacity="1.00" d=" M 76.87 111.77 C 80.06 110.45 82.78 107.97 86.23 107.34 C 86.77 107.60 87.84 108.11 88.38 108.36 C 87.82 109.95 87.01 111.43 86.46 113.02 C 88.39 115.98 92.14 114.20 95.01 114.54 C 95.62 115.37 96.13 116.27 96.65 117.17 C 92.01 121.10 86.35 123.63 80.78 125.97 C 76.91 127.68 73.26 130.12 68.96 130.64 C 64.31 131.30 59.71 132.88 54.96 132.49 C 54.04 131.51 53.60 130.35 53.65 129.01 C 53.53 125.19 53.55 121.26 54.71 117.57 C 62.53 117.71 69.73 114.51 76.87 111.77 Z" />
</g>
<g id="#c22a5eff">
<path fill="#c22a5e" opacity="1.00" d=" M 119.46 113.43 C 122.52 112.41 124.24 116.12 126.27 117.73 C 129.44 121.59 134.26 124.34 136.33 128.93 C 133.49 132.37 130.29 135.53 126.96 138.48 C 123.34 137.00 121.11 133.32 118.22 130.78 C 115.74 127.93 112.05 125.74 110.77 122.11 C 113.44 119.01 116.33 116.06 119.46 113.43 Z" />
</g>
<g id="#db3e76ff">
<path fill="#db3e76" opacity="1.00" d=" M 171.15 123.05 C 173.21 122.34 174.98 120.84 177.20 120.64 C 182.21 120.07 187.26 118.93 192.32 119.62 C 192.70 124.01 192.86 128.46 192.32 132.84 C 188.94 134.41 184.81 134.42 181.07 134.82 C 179.56 134.06 178.09 133.19 176.48 132.68 C 173.06 132.18 169.19 133.53 166.25 131.10 C 167.10 129.85 168.05 128.67 168.93 127.44 C 165.92 127.43 162.93 127.79 159.96 128.26 C 163.12 125.46 167.27 124.43 171.15 123.05 Z" />
</g>
<g id="#ca3065ff">
<path fill="#ca3065" opacity="1.00" d=" M 159.96 128.26 C 162.93 127.79 165.92 127.43 168.93 127.44 C 168.05 128.67 167.10 129.85 166.25 131.10 C 169.19 133.53 173.06 132.18 176.48 132.68 C 178.09 133.19 179.56 134.06 181.07 134.82 C 175.24 137.76 168.73 139.43 163.33 143.27 C 161.32 144.36 159.57 146.40 157.24 146.64 C 154.72 145.81 152.06 145.65 149.44 145.33 C 147.08 144.13 145.31 142.02 143.16 140.49 C 147.64 135.05 153.89 131.52 159.96 128.26 Z" />
</g>
<g id="#a81544ff">
<path fill="#a81544" opacity="1.00" d=" M 90.65 135.54 C 92.35 134.72 93.93 133.11 95.98 133.54 C 104.43 139.27 111.41 146.92 117.15 155.32 C 116.30 155.88 115.44 156.43 114.64 157.06 C 114.12 158.58 113.98 160.20 113.64 161.77 C 111.02 160.74 108.66 159.13 106.05 158.08 C 104.27 158.33 104.41 160.43 103.84 161.72 C 102.41 160.60 101.40 159.06 100.31 157.63 C 95.03 150.81 88.03 145.57 80.55 141.37 C 80.42 140.53 80.38 139.68 80.44 138.84 C 83.96 138.15 87.55 137.43 90.65 135.54 Z" />
</g>
<g id="#b51f51ff">
<path fill="#b51f51" opacity="1.00" d=" M 134.42 149.44 C 137.11 146.27 139.61 142.78 143.16 140.49 C 145.31 142.02 147.08 144.13 149.44 145.33 C 152.06 145.65 154.72 145.81 157.24 146.64 C 152.50 152.40 146.36 156.98 142.43 163.44 C 140.77 165.94 139.70 168.82 137.66 171.07 C 138.13 168.38 138.89 165.77 139.70 163.18 C 137.88 163.89 136.15 164.88 134.22 165.25 C 130.74 165.63 131.87 160.37 128.38 160.20 L 127.54 159.76 C 129.19 155.94 131.88 152.70 134.42 149.44 Z" />
</g>
<g id="#9d0d39ff">
<path fill="#9d0d39" opacity="1.00" d=" M 117.15 155.32 C 119.14 158.11 120.37 161.34 122.16 164.26 C 122.87 164.35 124.29 164.53 125.00 164.62 C 125.55 163.29 125.99 161.91 126.55 160.59 C 127.01 160.49 127.92 160.29 128.38 160.20 C 131.87 160.37 130.74 165.63 134.22 165.25 C 136.15 164.88 137.88 163.89 139.70 163.18 C 138.89 165.77 138.13 168.38 137.66 171.07 C 136.87 174.80 135.04 178.19 133.89 181.81 C 132.44 185.91 131.94 190.25 131.28 194.53 C 129.13 195.95 126.42 195.28 124.00 195.47 C 121.22 195.33 118.22 195.89 115.65 194.56 C 115.31 182.62 109.79 171.78 103.84 161.72 C 104.41 160.43 104.27 158.33 106.05 158.08 C 108.66 159.13 111.02 160.74 113.64 161.77 C 113.98 160.20 114.12 158.58 114.64 157.06 C 115.44 156.43 116.30 155.88 117.15 155.32 Z" />
</g>
</svg>
