<?xml version="1.0" encoding="utf-8"?>
<!-- Generator: Adobe Illustrator 26.0.3, SVG Export Plug-In . SVG Version: 6.00 Build 0)  -->
<svg version="1.1" id="Layer_1" xmlns="http://www.w3.org/2000/svg" xmlns:xlink="http://www.w3.org/1999/xlink" x="0px" y="0px"
	 viewBox="0 0 250 250" style="enable-background:new 0 0 250 250;" xml:space="preserve">
<style type="text/css">
	.st0{fill:#FF671C;}
</style>
<g id="_x23_ff671cff">
	<path class="st0" d="M221.9,20.9c4.4-1.1,8.7-2.6,13.2-3.1c4.6,0.3,9.7,2.6,11.1,7.3c3,6.2,1,13.4-1.7,19.3
		C240.9,51.6,233.5,56,226,58c-33.6,9.2-67.1,18.8-100.8,27.9c4-12.1,8.9-24,16.2-34.5c4-5.6,9.3-10.9,16.3-12.6
		C179.1,32.7,200.5,26.8,221.9,20.9z"/>
	<path class="st0" d="M75.8,100.1c16.3-4.6,32.5-9.2,48.9-13.6c-3.2,13.8-7.9,27.9-17.3,38.8c-4.1,4.9-10.4,6.9-16.5,8.4
		c-9,2.3-17.9,5.3-27,7.3c-4.4,0.9-9.6,0.3-12.8-3.1c-3.1-4.2-3.9-9.9-2.8-15c0.9-6.1,4.1-11.9,9.2-15.6
		C62.7,103.2,69.4,101.8,75.8,100.1z"/>
	<path class="st0" d="M171.9,112.2c6.3-1.5,12.6-4.2,19.2-3.8c4.2,0,8.4,2.6,9.8,6.7c4,10.3-0.6,23-10,28.7c-6,4-13.4,4.9-20.1,7
		c-15.2,4.6-30.7,8.3-45.9,13.1c-2.6,11.1-6.3,22-12.1,31.8c-3.8,6-8.8,12.1-15.9,13.9c-25.2,7.1-50.3,14.2-75.5,21.3
		c-5,0.9-11.2,1.7-15.1-2.2c-2.6-3-3.7-7-4.4-10.8c1.2-6.8,3.2-14,8.5-18.8c6.7-6.4,16.2-7.8,24.8-10.2c29.9-8.5,60-16.5,89.8-25.3
		c3-11.2,6.4-22.5,12.5-32.5c3.4-5.4,7.7-10.8,13.9-13C158,115.8,165.1,114.4,171.9,112.2z"/>
</g>
</svg>
