<?xml version="1.0" encoding="utf-8"?>
<!-- Generator: Adobe Illustrator 26.0.3, SVG Export Plug-In . SVG Version: 6.00 Build 0)  -->
<svg version="1.1" id="Layer_1" xmlns="http://www.w3.org/2000/svg" xmlns:xlink="http://www.w3.org/1999/xlink" x="0px" y="0px"
	 viewBox="0 0 250 250" style="enable-background:new 0 0 250 250;" xml:space="preserve">
<style type="text/css">
	.st0{fill:#FFFFFF;}
	.st1{fill:#030303;}
</style>
<g id="_x23_ffffffff">
	<path class="st0" d="M25.5,55.6c21.6-31.9,59.6-51.3,97.9-52c0,37.1,0,74.2,0,111.4c-8.3,4.5-16.4,9.2-24.6,13.8
		c-5.2,3-7,9.6-6.7,15.3c-0.1,4.4,1.4,8.6,2.8,12.8c-22.4,13.7-44.4,27.9-67,41.3c-13.8-18.9-22.4-41.6-24-64.9
		C2,105.8,10,78.1,25.5,55.6 M84.5,81.3c-0.2,1.6-0.1,3.1-0.2,4.7c-1.6,0.9-3.2,1.8-4.8,2.6c0,1.5,0,3.1,0.1,4.6
		c1.6-0.8,3.2-1.6,4.9-2.4c0,6.2-0.1,12.5,0,18.7c-1.6,0.9-3.2,1.7-4.8,2.5c-0.1,1.7-0.1,3.3-0.1,5c4.7-2.6,9.7-4.9,14.2-7.8
		c0-1.2,0.1-3.5,0.1-4.7c-1.5,0.8-3,1.6-4.5,2.4c0.1-9.5,0-19.1,0-28.6C87.7,79.3,86,80.2,84.5,81.3 M46.5,101.8c0,4.7,0,9.5,0,14.2
		c6.3-3.4,12.5-7,18.9-10.1c0.1,4.2,0.1,8.4-0.1,12.6c0.2,0.2,0.6,0.5,0.8,0.7c1.6-0.2,2.9-1.2,4.3-1.9c-0.1-4.8,0-9.5-0.1-14.3
		c-1.6,0.9-3.2,1.9-4.8,2.8c0-1.6,0-3.2,0-4.9c-4.7,2.5-9.5,4.9-14,7.7c0-1.6,0-3.2,0-4.8c6.4-3.4,12.8-6.7,19-10.3
		c0-1.2-0.1-3.5-0.1-4.6C62.3,93.2,54.3,97.4,46.5,101.8 M46.4,120.6c0.1,3.2,0.1,6.4,0,9.6c1.6-0.8,3.2-1.6,4.8-2.4
		c0,1.5,0,3.1,0,4.6c4.4-2.4,8.8-4.7,13.2-7.2c1.8-0.6,1.2-2.9,0.4-4.1c-0.3-0.1-1-0.3-1.3-0.4c-4,2.4-8.3,4.5-12.2,7
		c0-3.2,0-6.5,0-9.7C49.7,118.8,48.1,119.8,46.4,120.6z"/>
	<path class="st0" d="M126.7,3.6c26.1,0.6,52.1,9.6,72.8,25.6c24.2,18.5,40.3,46.7,45.2,76.7c5.6,32.3-3.7,66.2-22.9,92.5
		c-24.5-14.6-48.5-30-72.7-45.1c6.2-5.1,6.5-14,4.9-21.2c-2.4-8.6-7.2-17.8-16.1-21c-3.8-1.6-7.9-0.3-11.2,1.6
		C126.8,76.3,126.7,40,126.7,3.6 M152.5,77.1c0,4.8,0.1,9.6,0,14.3c4.9,2.9,10.2,5.4,15.1,8.3c1.1,0.6,2.1,1.3,3.4,1.3
		c2-0.4,0.4-2.8,0.7-4.1c-4.8-2.5-9.5-5.1-14.3-7.6c0-1.6,0-3.1,0-4.6c6.4,3.4,12.8,6.8,19.1,10.3c0-1.6,0-3.3,0-4.9
		C168.5,85.8,160.5,81.4,152.5,77.1 M152.5,96.2c0,3.3,0,6.6,0,9.8c1.6,0.5,2.9,1.8,4.6,1.7c0.4-2.9,0.1-5.9,0.2-8.9
		C155.8,97.9,154.1,97.1,152.5,96.2 M190.5,97.7c0,1.5-0.1,2.9-0.1,4.4c-1.6-0.7-3.2-1.4-4.8-2.2c0,7.8,0.1,15.6-0.1,23.4
		c1.6,1,3.2,1.9,4.8,2.8c0,1.6,0.1,3.2,0.2,4.8c4.8,2.5,9.5,5,14.2,7.7c0-1.5,0-3.1,0.1-4.6c1.6,0.7,3.2,1.5,4.8,2.2
		c-0.1-7.9,0-15.9,0-23.8c-1.4-0.6-2.9-2.7-4.4-1.2c-0.1,0.8-0.4,2.3-0.6,3.1c-1.6-0.8-3.3-1.3-5.1-1.5c0.4,1.6,0.9,3.1,1.5,4.7
		c1.2,0.6,2.4,1.1,3.5,1.8c0.4,4.7,0,9.5,0.2,14.2c-4.8-2.5-9.5-5.1-14.3-7.6c0-1.6,0-3.1,0-4.7c1.6,0.9,3.2,1.8,4.8,2.6
		c0-1.6,0-3.2,0-4.9c1.6,0.9,3.2,1.8,4.9,2.7c1.3-3.9-1.9-6.1-4.8-7.7c-0.1,1.6-0.2,3.3-0.2,4.9c-1.6-0.8-3.1-1.7-4.7-2.6
		c0.1-4.8,0.1-9.5,0-14.3c4.6,2.6,9.3,5.6,14.2,7.5c0.6-2.4,0.3-5.3-2.5-6C198.3,101.8,194.5,99.6,190.5,97.7 M172.2,103.3
		c-1.2,3.9-0.8,8.5-0.2,12.6c1.4,1.1,2.9,2,4.4,3c0.1-4.9,0.1-9.9,0-14.8C175,103.6,173.6,101.9,172.2,103.3 M157.3,113
		c4.9,2.5,9.7,5.2,14.5,7.8c0.1-1.6-0.2-3.2-0.8-4.7c-4.1-3.3-9-5.1-13.5-7.8C156.9,109.8,157.5,111.5,157.3,113z"/>
	<path class="st0" d="M128.8,115.6c3.2-2.2,7.9-2,11,0.4c7.2,5.2,11.4,14.1,11.6,22.9c0,4.3-1,9.1-4.9,11.6c-7.1,4.6-14.8,8.5-22,13
		c2.9-8.4,0.3-17.6-3.9-25.1c-2.8-4.9-7.2-9-12.6-10.9C114.8,123.4,121.9,119.7,128.8,115.6z"/>
	<path class="st0" d="M100.9,131.7c3.6-2.1,8.2-0.4,11.1,2.2c7.6,6.4,11.8,17.2,9.5,27.1c-0.7,3.4-3.1,6.5-6.5,7.5
		c-3.4,0.6-6.9-0.8-9.5-3.1c-7.3-6.2-10.8-16.1-9.9-25.5C96.7,136.8,97.8,133.3,100.9,131.7z"/>
	<path class="st0" d="M140.6,158.2c1.5-1,2.9-1.9,4.4-2.9c2.3,0.9,5.3,1.4,4.6,4.7c0.3-0.5,0.8-1.3,1.1-1.8c0.8,0.5,2.4,1.4,3.2,1.8
		c-0.9,0.6-1.7,1.2-2.6,1.8c1.6,1.5,2.7-0.8,3.9-1.5l-0.2,2c1.2,0.1,2.4,0.3,3.6,0.5c0,1.3-0.5,2.7,0.4,3.9c0.1-0.8,0.2-2.4,0.3-3.2
		c1.3,2.2,5.2,2.3,5.1,5.2c1,0,3.1,0,4.1,0.1c-1.4,1.4-2,2.9,0.1,4.2c0-0.8,0-2.4,0-3.1c1.6,1.4,3.7,2.2,5.6,3.2
		c-0.2,0.6-0.7,1.7-0.9,2.2c0.8-0.4,1.7-0.8,2.5-1.3c2.5,1.9,4.8,4.2,8,4.9c-0.2,0.6-0.7,1.7-0.9,2.2l1.2-0.1l0-1.7
		c1.7,1.4,4.1,2.1,5,4.3c0.8,0.1,2.3,0.2,3.1,0.3c0.4,1.2,0.3,2.5-0.1,3.8c0.3,0,0.8-0.1,1.1-0.2c0-0.8,0.1-2.4,0.1-3.2
		c1.4,1.6,2.8,4.2,1.6,6.3c0.7-0.2,1.4-0.4,2.2-0.6l-1.6-0.5c0.4-0.8,0.9-1.7,1.3-2.5l1.6,1.3c-0.1,0.7-0.2,2.1-0.3,2.8
		c0.4-0.5,1.2-1.5,1.6-2c1.8,1.1,3.9,2.1,4.8,4.2c1.7,0,3.2,0.5,4.5,1.5l-2.4,0.8c0.5,0.5,1,1,1.5,1.5l0.4-2.1
		c1.9,1.3,5.4,1.5,5.1,4.5c2.3-0.8,4.2,0.8,6.1,1.8c-0.8,0.4-1.5,0.8-2.3,1.1c-0.3,1.2-0.7,3.7-2.4,2.4l-0.5-0.3
		c-0.5,0.1-1,0.3-1.5,0.7c0.4,0.3,1.1,0.8,1.5,1.1c-2.3,3.8-6,6.4-9.1,9.6c-0.1-0.7-0.4-2-0.5-2.7c-0.4,0.4-0.9,0.8-1.3,1.2
		c3.3,1.1,0.3,2.6-0.9,3.7c-0.5-0.5-1.5-1.4-2.1-1.9c0.5,1,1,2.1,1.4,3.1c-1.3,0.3-2.7,0.7-4,1.2c-0.4,0.7-1.1,2-1.4,2.6
		c-0.5-0.8-1.1-1.5-1.6-2.3l1.8-1c-4.1-0.9-0.1,5.1-3.7,6c-0.3-1.9-0.7-3.7-1-5.5l1.8-0.1c-0.6-0.1-1.9-0.3-2.5-0.4
		c0.3,1.3,0.6,2.7,0.8,4c0.8,2.7-1.6,3.2-3.7,2.7c0.1,0.4,0.4,1.3,0.5,1.7c-1.7,0.6-3.7,1.1-4.7,2.9c-0.4-0.7-1.2-2-1.6-2.7
		c0.1,0.8,0.3,2.2,0.4,3c-1.7,0.6-3.6,1-4.9,2.4l-1.2-0.1c0.2-4.5,0.2-9.1,0.1-13.6c-0.4,0.1-1.2,0.4-1.7,0.5c0.4,1,0.9,2,1.3,3
		l-0.4-0.2c-0.8,3.8,0.2,7.6-0.3,11.4c-1.8,0.7-3.6,1.4-5.3,2.3l0.4-1.9c-0.3,0-1,0.1-1.4,0.1c0.1,0.5,0.4,1.6,0.5,2.2
		c-1.4,0.5-2.9,1-4.3,1.6c-0.4-0.1-1.3-0.4-1.8-0.6c-0.6,0.7-1.8,2.1-2.5,2.8c0-0.8,0.1-2.4,0.1-3.2l-1.3,0.2
		c0.2,0.6,0.6,1.9,0.8,2.6c-2.7,0.8-5.9,0.5-8.3,2.3c-0.3-0.6-0.9-1.8-1.2-2.4c0,0.7-0.1,2.1-0.1,2.8l-2.4,0.3
		c0.1-0.6,0.4-1.7,0.5-2.3c-4.6-0.1-9.3-0.1-13.9,0.1c0.2,0.7,0.4,1.4,0.6,2.1l0.4-1.7c3.7,1.3,8.1,1.3,11.9,0l0.4,2.3
		c-3.3,0.3-6.7,0.6-10.1,0.4c-0.2,0.4-0.5,1.1-0.7,1.5c-0.7-0.7-1.4-1.4-2.1-2.1c-0.1,0.5-0.4,1.5-0.5,2l-1.7-0.3
		c-0.1-0.5-0.4-1.6-0.5-2.1c-0.4,1.5-1.2,2.6-2.6,3.3c0-0.9-0.1-2.6-0.2-3.5c-0.5,0.9-0.9,2-1.1,3l-2.1,0.2c0.1-0.7,0.4-1.9,0.6-2.6
		c-0.4,0-1.1,0-1.5,0c0.1,0.6,0.4,1.9,0.5,2.5l-2.7,0.1c0.2-0.6,0.5-1.9,0.7-2.6c-0.4,0-1.2,0-1.6,0c0.2,0.6,0.5,1.9,0.7,2.6l-2.4,0
		c0.3-1.4-0.1-2.4-1.2-3c0.1,0.8,0.3,2.3,0.4,3.1l-2-0.2c-0.2-1.1-0.6-2.1-1.1-3c-0.1,0.9-0.2,2.7-0.3,3.6c-1.3-0.8-2-2.2-3-3.3v2.5
		c-1.2-0.1-2.1-0.9-2.6-2c-0.5,0.6-1,1.1-1.5,1.7c-0.3-0.3-0.9-0.8-1.2-1.1c-4.1-0.2-8.3-0.5-12.3-1.5c-0.1-0.7-0.1-2.1-0.2-2.8
		c-0.3,0.6-0.9,1.9-1.2,2.6c-2.2-2.1-5.5-1.5-8.3-2.4c0.2-0.6,0.6-1.9,0.8-2.5l-1.1-0.4c0,0.8-0.1,2.4-0.1,3.2
		c-0.6-0.6-1.6-1.9-2.2-2.5c-2.1,0.5-4-0.4-5.9-1c-0.1-0.9-0.3-2.6-0.4-3.5c-0.2,0.7-0.6,2.1-0.8,2.9c-1.8-1.3-3.9-1.7-5.9-2.6
		c0.4-0.4,1.2-1.3,1.6-1.7l-1.5-0.3c0.4-0.5,0.8-1.1,1.2-1.6c-0.3-2.4-0.5-4.9-0.9-7.3l1.8-0.3c-0.6-0.1-1.8-0.2-2.4-0.2
		c-0.3,3.4,1.4,7.4-0.8,10.3c-1.7-0.4-3.3-1.1-5-1.9c0.1-0.8,0.4-2.4,0.5-3.3c-0.4,0.7-1.2,2.2-1.6,3c-1.1-1.9-3.1-2.3-5-3
		c0.3-0.4,1-1.2,1.4-1.7c-3.2,1.3-5.4-1.5-7.6-3.2c-1.6-0.5-3-1.2-2.4-3.1c-1.5,0.5-2.8-0.3-4.1-0.8c0.6-1,1-2,1.2-3.1
		c-0.5,0.5-1.4,1.6-1.8,2.1c-0.8-1.2-4.7-3.1-0.9-3.8c-0.4-0.4-0.9-0.9-1.3-1.3c-0.1,0.7-0.4,2-0.6,2.6c-3.4-3.2-6.7-6.4-9.8-9.9
		c0.7-0.1,2-0.4,2.6-0.5c-0.4-0.5-0.9-0.9-1.3-1.4c-0.9,3.8-2.8,0-4-1c0.6-0.3,1.8-0.9,2.4-1.2c-1.2-0.5-2.3-0.1-3.2,0.8l-0.8-1.7
		c1.7-0.9,3.4-1.9,5-3l0.7,2.6c0.5-1.2,0.4-2.4,0.4-3.7c0.9-0.2,1.9-0.3,2.8-0.5c1.3-1.8,3.1-2.9,5-4c0.4,0.4,1.2,1.3,1.6,1.8
		c0-0.8-0.1-2.4-0.1-3.2c0.7-0.1,2.2-0.3,3-0.4c0.3-0.4,0.8-1.3,1.1-1.7c1.6-0.9,3.4-1.6,5.1-2.2c1.6-1.9,4.6-4.6,6.6-1.7
		c-0.2-0.7-0.7-2.1-1-2.8c1.3-0.5,2.5-0.9,3.8-1.4c1.6-1.6,3.4-3.6,5.9-2.9c0.4-2.2,2.8-2.8,4.3-4.1c0.9,0.7,1.9,1.3,2.8,1.9
		c-0.6-0.7-1.7-2-2.3-2.6c1.4-0.5,2.8-1,4.3-1.4c1-1.7,2.8-2.5,4.4-3.5c0.8,0.4,1.5,0.9,2.3,1.3c-0.1-0.8-0.3-2.4-0.4-3.2
		c0.7-0.1,2.2-0.4,2.9-0.5c1.6-1.8,3.5-3.7,6.1-3.2c0.1-0.4,0.3-1.2,0.4-1.7c0.4-0.2,1.1-0.7,1.5-1c1.4,5.1,7,7.5,9.8,11.7
		c2.2,0.1,4.4,0.4,6.7,0.6c-0.3,0.8-0.9,2.4-1.2,3.1c0.6-0.1,1.9-0.1,2.6-0.2l-1.8-0.6c0.5-0.8,1-1.6,1.5-2.3
		c1.7-0.3,3.3-0.5,5.1-0.6c1.2-1.5,2.7-2.5,4.3-3.5c0.8,0.3,1.7,0.7,2.5,1c-0.1-0.6-0.3-1.7-0.5-2.2c1.8-0.8,3.8-1.5,5-3.2
		c0.3,0.8,0.9,2.2,1.2,3c-0.1-0.9-0.2-2.8-0.2-3.7c2.4-0.6,4.9-0.4,7.3-0.8c-0.9-0.7-1.7-1.4-2.6-2.2c3.9-1.1,8-0.3,12-0.6
		c-0.8-0.9-1.9-1-3.1-0.8C143.5,158.4,142.1,158.4,140.6,158.2 M90.8,164.3C89.4,167.3,94.2,164.3,90.8,164.3 M88.2,169.4
		c1.5-0.8,1.5-1.7,0-2.5C86.8,167.6,86.8,168.5,88.2,169.4 M126.9,168.1c0.8,1.5,1.7,1.5,2.5,0C128.5,166.7,127.7,166.7,126.9,168.1
		 M131.1,169.4c1.6-0.7,1.6-1.5,0.1-2.4C129.8,167.7,129.7,168.5,131.1,169.4 M158.9,169.4c1.3-0.9,1.3-1.7,0-2.6
		C157.4,167.6,157.4,168.5,158.9,169.4 M161.9,169.4c1.4-0.9,1.3-1.7-0.2-2.3C160.2,167.9,160.3,168.7,161.9,169.4 M80.7,171.2
		c0.8,1.5,1.6,1.5,2.5,0C82.3,169.8,81.5,169.8,80.7,171.2 M83.8,171.2c0.9,1.4,1.7,1.4,2.5-0.1C85.5,169.8,84.6,169.8,83.8,171.2
		 M88.2,172.4c1.6-0.7,1.6-1.5,0.1-2.3C86.8,170.8,86.7,171.5,88.2,172.4 M122,170.2c-1.3,0.7-1.3,1.4-0.1,2.1
		C123.2,171.6,123.2,170.9,122,170.2 M123.7,171.2c0.9,1.4,1.7,1.4,2.6,0C125.4,169.8,124.6,169.8,123.7,171.2 M127,171.3
		c0.8,1.5,1.6,1.4,2.4-0.1C128.5,169.7,127.7,169.8,127,171.3 M160.6,171.2c0.8,1.5,1.6,1.5,2.4,0
		C162.2,169.8,161.4,169.7,160.6,171.2 M163.8,171.2c0.9,1.4,1.7,1.4,2.6,0C165.4,169.8,164.6,169.8,163.8,171.2 M80.7,174.3
		c0.8,1.5,1.6,1.5,2.4,0.1C82.3,172.9,81.5,172.9,80.7,174.3 M83.8,174.3c0.3,0.3,0.9,0.8,1.2,1.1C88.2,175.1,84.4,171.5,83.8,174.3
		 M109.2,173.5C107.4,176.2,112.6,173.8,109.2,173.5 M123.7,174.3c0.3,0.3,1,0.8,1.3,1.1c0.3-0.3,0.9-0.8,1.2-1.1
		C125.4,172.9,124.6,172.9,123.7,174.3 M163.8,174.3c0.3,0.3,0.9,0.8,1.2,1.1c0.3-0.3,1-0.8,1.3-1.1
		C165.5,172.9,164.6,172.9,163.8,174.3 M72.2,176.9C72.1,180.3,75.1,175.5,72.2,176.9 M94.2,177.2C94.8,177.8,94.8,177.8,94.2,177.2
		 M112.4,176.9C112.9,177.7,112.9,177.7,112.4,176.9 M133.4,177C133.6,180.4,136.3,175.4,133.4,177 M136.5,177
		C136.7,180.4,139.3,175.4,136.5,177 M149.1,177C149.4,180.4,151.9,175.2,149.1,177 M152.2,176.9
		C152.1,180.3,155.1,175.5,152.2,176.9 M155.2,176.9C155.1,180.3,158.2,175.5,155.2,176.9 M173.5,176.9
		C173.5,180.4,176.4,175.5,173.5,176.9 M176.5,176.9C176.4,180.3,179.5,175.6,176.5,176.9 M66.1,180C66.1,183.4,69.1,178.6,66.1,180
		 M112.2,180C111.9,183.4,115.2,178.8,112.2,180 M136.5,180.1C137,183.6,139.1,178.2,136.5,180.1 M149.1,180.1
		C149.6,183.5,151.7,178.2,149.1,180.1 M180.2,180.2C180.8,180.9,180.8,180.9,180.2,180.2 M63.2,183.2
		C63.9,183.8,63.9,183.8,63.2,183.2 M66.1,183.1C66.3,186.6,68.9,181.4,66.1,183.1 M180,182.9c-0.6,1.2-1,4.4,0.7,4.6
		C180.7,186.2,181.4,183.4,180,182.9 M183.4,183.4C184,184.1,184,184.1,183.4,183.4 M186.2,183.2
		C186.9,183.8,186.9,183.8,186.2,183.2 M63.2,186.1C61.3,188.8,66.6,186.4,63.2,186.1 M183,186.1C181.6,189.1,186.5,186.1,183,186.1
		 M186.2,186.1C184.2,188.8,189.6,186.5,186.2,186.1 M188.9,185.9c-0.5,1.4,0,1.9,1.4,1.5C190.8,185.9,190.3,185.4,188.9,185.9
		 M54.1,189.1C52.2,191.9,57.5,189.5,54.1,189.1 M69.3,189.1C67.2,191.7,72.7,189.7,69.3,189.1 M80.7,189.7c0.7,2.9,4.1-0.9,1.1-1.2
		C81.5,188.8,80.9,189.4,80.7,189.7 M85.1,190.8c1.6-0.7,1.6-1.5,0.1-2.3C83.7,189.2,83.7,190,85.1,190.8 M109.1,189.2
		C107.7,192.1,112.6,189.1,109.1,189.2 M123.7,189.7c0.7,2.9,4.2-0.9,1.1-1.2C124.6,188.8,124,189.4,123.7,189.7 M165.1,190.8
		c1.5-0.8,1.5-1.6-0.1-2.3C163.5,189.3,163.6,190.1,165.1,190.8 M168.2,190.8c1.5-0.8,1.5-1.6-0.1-2.3
		C166.7,189.3,166.7,190.1,168.2,190.8 M180,189.2C178.5,192.1,183.4,189.2,180,189.2 M192.3,189.1
		C190.1,191.6,195.7,189.8,192.3,189.1 M54.1,192.1C52.3,194.9,57.5,192.4,54.1,192.1 M69.3,192.1C67.1,194.6,72.7,192.8,69.3,192.1
		 M80.7,192.7c0.8,1.4,1.7,1.4,2.5,0c-0.3-0.3-0.9-0.8-1.2-1.1C81.7,191.9,81,192.4,80.7,192.7 M97,192.2
		C95.5,195.1,100.5,192.2,97,192.2 M109.1,192.2C107.6,195.1,112.6,192.2,109.1,192.2 M123.8,192.7c0.8,1.4,1.7,1.4,2.5,0
		c-0.3-0.3-0.9-0.8-1.2-1.1C124.7,191.9,124.1,192.4,123.8,192.7 M136.9,192.2C135.5,195.1,140.3,192.1,136.9,192.2 M166.3,192.7
		c-0.3-0.3-0.9-0.9-1.2-1.2C162.1,191.9,165.7,195.6,166.3,192.7 M180.1,192.1C178.3,194.9,183.5,192.4,180.1,192.1 M192.2,192.2
		C190.6,195,195.6,192.3,192.2,192.2 M40.7,195.7c0.9,1.4,1.7,1.4,2.5,0c-0.3-0.3-1-0.8-1.3-1.1C41.6,194.9,41,195.4,40.7,195.7
		 M80.7,195.7c0.8,1.4,1.7,1.4,2.5,0.1c-0.3-0.3-0.9-0.9-1.2-1.1C81.7,194.9,81,195.4,80.7,195.7 M86.4,195.8
		c-0.3-0.3-0.9-0.9-1.2-1.2C82.2,195,85.9,198.6,86.4,195.8 M123.7,195.8c0.8,1.4,1.7,1.4,2.5,0c-0.3-0.3-0.9-0.8-1.3-1.1
		C124.7,194.9,124,195.5,123.7,195.8 M163.8,195.7c0.8,1.4,1.7,1.4,2.5,0c-0.3-0.3-0.9-0.8-1.3-1.1
		C164.7,194.9,164.1,195.5,163.8,195.7 M167,195.7c0.8,1.5,1.6,1.5,2.4,0C168.6,194.2,167.8,194.2,167,195.7 M203.6,195.8
		c0.9,1.4,1.7,1.4,2.4-0.1C205.2,194.2,204.4,194.2,203.6,195.8 M37.6,198.9c0.9,1.4,1.7,1.4,2.4-0.1
		C39.1,197.3,38.3,197.3,37.6,198.9 M40.7,198.9c0.9,1.3,1.8,1.3,2.6-0.1C42.4,197.4,41.5,197.4,40.7,198.9 M44,198.8
		c0.7,1.5,1.5,1.5,2.4,0C45.6,197.3,44.8,197.3,44,198.8 M80.7,198.8c0.9,1.4,1.7,1.4,2.6,0C82.4,197.4,81.5,197.4,80.7,198.8
		 M84,198.8c0.8,1.4,1.6,1.4,2.4,0C85.6,197.3,84.8,197.3,84,198.8 M120.6,198.7c0.4,2.9,4.2-0.5,1.2-1.1
		C121.5,197.9,120.9,198.5,120.6,198.7 M123.7,198.9c0.9,1.3,1.8,1.3,2.6-0.1C125.4,197.4,124.5,197.4,123.7,198.9 M127.1,198.8
		c0.7,1.5,1.5,1.5,2.3,0C128.6,197.3,127.8,197.3,127.1,198.8 M160.6,198.8c0.4,2.9,4.2-0.6,1.2-1.1
		C161.5,197.9,160.9,198.5,160.6,198.8 M163.8,198.9c0.9,1.3,1.7,1.3,2.6,0C165.4,197.4,164.6,197.4,163.8,198.9 M167,198.8
		c0.7,1.5,1.5,1.5,2.4,0.1C168.7,197.3,167.9,197.3,167,198.8 M203.6,198.8c0.8,1.4,1.6,1.4,2.4,0
		C205.2,197.3,204.4,197.3,203.6,198.8 M206.7,198.9c0.9,1.3,1.7,1.4,2.7,0.1C208.5,197.5,207.6,197.4,206.7,198.9 M210.1,198.8
		c0.7,1.5,1.5,1.5,2.4,0.1C211.6,197.3,210.9,197.3,210.1,198.8 M35.8,202.9c1.5-0.8,1.5-1.6,0-2.3
		C34.3,201.4,34.3,202.2,35.8,202.9 M37.6,201.8c0.9,1.5,1.6,1.4,2.4-0.1C39.2,200.3,38.4,200.3,37.6,201.8 M40.7,201.8
		c0.8,1.4,1.7,1.4,2.6,0C42.5,200.4,41.6,200.4,40.7,201.8 M44,201.8c0.7,1.5,1.5,1.5,2.3,0C45.6,200.3,44.8,200.3,44,201.8
		 M48.2,202.9c1.5-0.8,1.5-1.6,0-2.3C46.7,201.4,46.8,202.2,48.2,202.9 M78.8,202.9c1.5-0.7,1.5-1.5,0-2.3
		C77.3,201.4,77.3,202.2,78.8,202.9 M80.7,201.9c0.9,1.4,1.7,1.4,2.5-0.1C82.4,200.4,81.5,200.4,80.7,201.9 M84,201.7
		c0.7,1.5,1.4,1.6,2.3,0.2C85.7,200.3,84.9,200.3,84,201.7 M88.3,202.9c1.5-0.8,1.4-1.6-0.1-2.3C86.7,201.5,86.8,202.2,88.3,202.9
		 M117.6,201.8c0.5,2.9,4.1-0.7,1.2-1.2C118.5,200.9,117.9,201.5,117.6,201.8 M120.6,201.8c0.8,1.5,1.6,1.4,2.3-0.1
		C122.2,200.3,121.4,200.3,120.6,201.8 M123.7,201.9c0.9,1.4,1.7,1.4,2.6,0C125.4,200.4,124.6,200.4,123.7,201.9 M127.1,201.8
		c0.8,1.5,1.6,1.4,2.3-0.1C128.6,200.3,127.8,200.3,127.1,201.8 M131.2,202.9c1.5-0.8,1.5-1.6,0-2.3
		C129.7,201.4,129.8,202.2,131.2,202.9 M158.7,202.9c1.5-0.7,1.5-1.5,0.1-2.3C157.3,201.3,157.3,202.1,158.7,202.9 M160.6,201.8
		c0.9,1.5,1.6,1.4,2.3-0.1C162.1,200.3,161.4,200.3,160.6,201.8 M163.8,201.8c0.9,1.4,1.7,1.4,2.5,0c-0.3-0.3-1-0.8-1.3-1.1
		C164.7,201,164.1,201.6,163.8,201.8 M168.2,202.9c1.5-0.8,1.5-1.6-0.1-2.3C166.7,201.5,166.7,202.2,168.2,202.9 M171.3,202.9
		c1.5-0.8,1.4-1.6-0.1-2.3C169.7,201.5,169.8,202.2,171.3,202.9 M201.8,203c1.4-0.8,1.4-1.6,0-2.4
		C200.4,201.4,200.3,202.2,201.8,203 M203.6,201.8c0.8,1.5,1.6,1.5,2.3,0C205.2,200.3,204.4,200.3,203.6,201.8 M207,201.8
		c0.8,1.4,1.6,1.4,2.4,0C208.6,200.3,207.8,200.3,207,201.8 M211.2,202.9c1.5-0.8,1.5-1.6,0-2.3
		C209.7,201.4,209.7,202.2,211.2,202.9 M37.7,204.9c0.6,3,4-0.8,1.1-1.2C38.5,204,37.9,204.6,37.7,204.9 M40.8,204.9
		c0.8,1.4,1.7,1.4,2.5,0c-0.3-0.3-1-0.8-1.3-1.1C41.7,204,41.1,204.6,40.8,204.9 M45.2,206.2c0.3-0.3,0.8-1,1.1-1.3
		c-0.3-0.3-0.9-0.9-1.2-1.2C43.7,204.6,43.8,205.4,45.2,206.2 M48.2,206c1.5-0.8,1.5-1.6,0-2.4C46.8,204.5,46.8,205.3,48.2,206
		 M75.8,206.3c1.3-0.9,1.3-1.8,0-2.6C74.3,204.6,74.4,205.4,75.8,206.3 M78.8,206.2c1.4-0.8,1.4-1.7,0-2.5
		C77.4,204.5,77.4,205.4,78.8,206.2 M80.7,204.9c0.6,3,4-0.7,1.1-1.2C81.5,203.9,81,204.6,80.7,204.9 M85.3,206
		c1.5-0.9,1.4-1.6-0.2-2.3C83.7,204.6,83.7,205.4,85.3,206 M88.2,206.2c1.5-0.8,1.5-1.7,0-2.6C86.8,204.5,86.8,205.4,88.2,206.2
		 M118.8,206.2c1.4-0.9,1.4-1.7,0-2.6C117.4,204.5,117.4,205.4,118.8,206.2 M120.6,204.8c0.5,3,4.1-0.6,1.2-1.2
		C121.5,203.9,120.9,204.5,120.6,204.8 M124.3,204c-0.5,1.8,0,2.4,1.4,1.9C126.3,204.2,125.8,203.5,124.3,204 M128.2,206.2
		c0.3-0.3,0.8-0.9,1.1-1.2C128.9,201.9,125.4,205.6,128.2,206.2 M131.2,206.1c1.5-0.8,1.5-1.6,0-2.4
		C129.8,204.4,129.8,205.2,131.2,206.1 M158.9,206.3c1.3-0.9,1.3-1.8,0-2.7C157.5,204.5,157.5,205.4,158.9,206.3 M161.8,206.2
		c1.4-0.8,1.4-1.7,0-2.6C160.4,204.5,160.4,205.4,161.8,206.2 M163.7,204.9c0.9,1.4,1.7,1.4,2.6,0c-0.3-0.3-1-0.8-1.3-1.1
		C164.7,204.1,164.1,204.6,163.7,204.9 M168.1,206.2c0.3-0.3,0.9-0.9,1.2-1.2C168.9,201.9,165.4,205.5,168.1,206.2 M171.2,206.3
		c1.4-0.9,1.4-1.8,0-2.6C169.8,204.6,169.8,205.4,171.2,206.3 M201.8,206.3c1.4-0.9,1.4-1.7,0-2.5
		C200.4,204.6,200.4,205.4,201.8,206.3 M203.6,204.8c0.5,2.9,4.2-0.6,1.2-1.1C204.6,204,204,204.6,203.6,204.8 M209.4,204.8
		c-0.3-0.3-1-0.8-1.3-1.1C205.2,204.4,209.1,207.7,209.4,204.8 M211.2,206.2c0.3-0.3,0.9-0.9,1.2-1.2
		C212,201.9,208.4,205.5,211.2,206.2 M38.2,207.3c-0.4,1.4,0,1.9,1.5,1.4C40.1,207.4,39.6,206.9,38.2,207.3 M40.7,208.1
		c0.9,1.4,1.7,1.4,2.6,0C42.4,206.7,41.6,206.8,40.7,208.1 M45.2,209.4c1.5-0.8,1.6-1.5,0-2.3C43.7,207.8,43.7,208.5,45.2,209.4
		 M48.1,209.4c1.4-0.8,1.5-1.7,0-2.6C46.8,207.6,46.8,208.5,48.1,209.4 M75.7,209.4c1.5-0.8,1.5-1.6,0-2.4
		C74.3,207.8,74.2,208.6,75.7,209.4 M78.8,209.4c1.4-0.9,1.4-1.7-0.1-2.4C77.3,207.9,77.3,208.6,78.8,209.4 M80.7,208.1
		c0.3,0.3,0.9,0.8,1.3,1.1c0.3-0.3,0.9-0.8,1.3-1.1C82.4,206.7,81.6,206.7,80.7,208.1 M85.2,209.4c1.5-0.8,1.5-1.5,0-2.3
		C83.7,207.8,83.7,208.5,85.2,209.4 M88.2,209.4c1.5-0.8,1.5-1.6,0-2.4C86.8,207.8,86.8,208.6,88.2,209.4 M118.8,209.4
		c1.4-0.9,1.4-1.7-0.1-2.4C117.2,207.9,117.3,208.6,118.8,209.4 M120.6,208.2c0.3,0.3,0.9,0.9,1.2,1.2
		C124.7,208.9,121.2,205.2,120.6,208.2 M123.7,208.1c0.9,1.5,1.7,1.4,2.5,0C125.4,206.7,124.6,206.8,123.7,208.1 M128.2,209.4
		c1.5-0.8,1.5-1.6,0-2.4C126.7,207.8,126.7,208.6,128.2,209.4 M131.2,209.4c1.5-0.8,1.5-1.6-0.1-2.4
		C129.7,207.8,129.8,208.6,131.2,209.4 M158.8,209.4c1.5-0.8,1.5-1.6,0-2.4C157.3,207.8,157.3,208.6,158.8,209.4 M161.8,209.4
		c1.5-0.8,1.4-1.6-0.1-2.3C160.3,207.8,160.3,208.6,161.8,209.4 M165.1,209.4c0.3-0.3,0.9-0.9,1.2-1.2
		C165.8,205.3,162.1,208.8,165.1,209.4 M168.2,209.4c1.6-0.8,1.6-1.5,0.1-2.3C166.7,207.7,166.7,208.5,168.2,209.4 M171.2,209.4
		c1.5-0.8,1.5-1.6,0-2.4C169.8,207.8,169.7,208.6,171.2,209.4 M201.8,209.4c1.4-0.9,1.4-1.6-0.1-2.4
		C200.3,207.9,200.3,208.6,201.8,209.4 M203.6,208.2c0.3,0.3,0.9,0.9,1.2,1.2C207.8,208.9,204.2,205.2,203.6,208.2 M208.1,209.4
		c0.3-0.3,0.9-0.9,1.2-1.2C208.8,205.3,205.2,208.8,208.1,209.4 M210.4,207.3c-0.5,1.4,0,1.8,1.4,1.4
		C212.4,207.4,211.9,206.9,210.4,207.3 M41.3,210.4c-0.4,1.4,0,1.9,1.4,1.5C43.2,210.5,42.7,210,41.3,210.4 M44,211.3
		c0.8,1.5,1.6,1.4,2.4-0.1C45.5,209.8,44.7,209.8,44,211.3 M78.8,212.4c1.5-0.8,1.4-1.6-0.1-2.3C77.2,210.9,77.3,211.7,78.8,212.4
		 M80.7,211.2c0.8,1.5,1.7,1.5,2.5,0C82.4,209.8,81.5,209.8,80.7,211.2 M84,211.3c0.9,1.4,1.7,1.4,2.4-0.1
		C85.5,209.7,84.7,209.8,84,211.3 M87.1,211.3c0.8,1.5,1.6,1.5,2.3-0.1C88.6,209.7,87.8,209.8,87.1,211.3 M118.8,212.4
		c1.5-0.8,1.4-1.6-0.1-2.3C117.2,210.9,117.3,211.7,118.8,212.4 M120.6,211.2c0.8,1.5,1.6,1.5,2.4,0.1
		C122.2,209.8,121.4,209.8,120.6,211.2 M123.7,211.2c1,1.4,1.8,1.4,2.6-0.1C125.3,209.8,124.5,209.8,123.7,211.2 M127,211.3
		c0.8,1.5,1.6,1.5,2.4-0.1C128.6,209.8,127.8,209.8,127,211.3 M131.2,212.4c1.6-0.7,1.6-1.5,0.1-2.3
		C129.7,210.8,129.7,211.6,131.2,212.4 M158.8,212.4c1.5-0.8,1.4-1.6-0.1-2.3C157.3,210.9,157.3,211.7,158.8,212.4 M160.6,211.3
		c0.9,1.5,1.6,1.4,2.3-0.1C162.1,209.7,161.3,209.8,160.6,211.3 M163.7,211.2c0.9,1.4,1.7,1.4,2.5,0
		C165.4,209.8,164.6,209.8,163.7,211.2 M167,211.2c0.8,1.5,1.6,1.5,2.4,0C168.6,209.8,167.8,209.8,167,211.2 M170.1,211.2
		c0.8,1.5,1.5,1.5,2.3,0C171.6,209.8,170.8,209.8,170.1,211.2 M200.6,211.2c0.8,1.5,1.5,1.6,2.3,0.1
		C202.2,209.8,201.4,209.8,200.6,211.2 M203.6,211.3c0.3,0.3,0.9,0.8,1.2,1.1C208,211.9,204.2,208.4,203.6,211.3 M207.3,210.5
		c-0.4,1.5,0.1,1.9,1.4,1.4C209.1,210.4,208.6,210,207.3,210.5 M80.7,214.2c0.8,1.5,1.6,1.5,2.5,0.1
		C82.4,212.9,81.6,212.9,80.7,214.2 M84,214.2c0.7,1.5,1.5,1.6,2.4,0.1C85.6,212.9,84.8,212.8,84,214.2 M120.6,214.2
		c0.7,1.6,1.5,1.6,2.4,0.2C122.3,212.9,121.6,212.8,120.6,214.2 M123.7,214.3c0.8,1.5,1.7,1.5,2.5,0
		C125.3,212.9,124.5,212.9,123.7,214.3 M127,214.3c0.8,1.5,1.6,1.5,2.4-0.1C128.6,212.8,127.8,212.8,127,214.3 M163.8,214.2
		c0.3,0.3,0.9,0.9,1.2,1.2c0.3-0.3,1-0.8,1.3-1C165.5,212.9,164.7,212.9,163.8,214.2 M167,214.3c0.8,1.5,1.6,1.5,2.4,0
		C168.6,212.8,167.8,212.8,167,214.3 M54.2,220.2C54.8,220.8,54.8,220.8,54.2,220.2 M57.3,220C57.9,220.6,57.9,220.6,57.3,220
		 M60,220.2C60.6,220.9,60.6,220.9,60,220.2 M63.2,220.2C63.9,220.8,63.9,220.8,63.2,220.2 M66.3,220.4
		C66.8,221.1,66.8,221.1,66.3,220.4 M69.4,220C70,220.7,70,220.7,69.4,220 M72.2,220C72.2,223.5,75.1,218.5,72.2,220 M97.2,220.2
		C97.9,220.9,97.9,220.9,97.2,220.2 M100.2,220.2C100.9,220.8,100.9,220.8,100.2,220.2 M103,220.1
		C103.7,220.7,103.7,220.7,103,220.1 M106.2,220.2C106.9,220.8,106.9,220.8,106.2,220.2 M109.1,220C109.1,223.5,112,218.5,109.1,220
		 M112.1,220.1C112.3,223.5,114.9,218.4,112.1,220.1 M149.1,220.2C149.6,223.6,151.7,218.2,149.1,220.2 M155.2,220.1
		C155.3,223.5,158,218.4,155.2,220.1 M179.5,220.1C179.7,223.5,182.3,218.4,179.5,220.1 M183.2,220.2
		C183.9,220.8,183.9,220.8,183.2,220.2 M186.4,220.1C187.1,220.7,187.1,220.7,186.4,220.1 M189.1,220
		C189.1,223.5,192,218.5,189.1,220 M57,223C57.6,223.7,57.6,223.7,57,223 M60.4,223.4C61,224.1,61,224.1,60.4,223.4 M63.4,223
		C64.1,223.6,64.1,223.6,63.4,223 M66.2,223.2C66.8,223.8,66.8,223.8,66.2,223.2 M69.1,223.1C69.3,226.6,71.9,221.4,69.1,223.1
		 M97.2,223.2C97.8,223.8,97.8,223.8,97.2,223.2 M100.4,223.3C101.1,223.9,101.1,223.9,100.4,223.3 M103.4,223.4
		C104,224.1,104,224.1,103.4,223.4 M106.4,223.2C107.1,223.7,107.1,223.7,106.4,223.2 M109.1,223.1
		C109.1,226.6,112,221.6,109.1,223.1 M179.6,223.1C179.7,226.6,182.4,221.5,179.6,223.1 M183.2,223.2
		C183.8,223.9,183.8,223.9,183.2,223.2 M186,223.4C186.7,224,186.7,224,186,223.4 M189.2,223.2C189.8,223.8,189.8,223.8,189.2,223.2
		 M63.4,226.1C64.1,226.6,64.1,226.6,63.4,226.1 M66.2,226.2C66.9,226.9,66.9,226.9,66.2,226.2 M69.1,226.2
		C69.2,229.6,71.9,224.5,69.1,226.2 M97,226.5C97.7,227,97.7,227,97,226.5 M100.2,226.2C100.9,226.9,100.9,226.9,100.2,226.2
		 M103,226.1C103.6,226.8,103.6,226.8,103,226.1 M106.2,226.2C104.4,229.1,109.6,226.4,106.2,226.2 M109.1,226.1
		C109.1,229.6,112,224.6,109.1,226.1 M179.6,226.1C179.6,229.6,182.4,224.6,179.6,226.1 M183.2,226.2
		C183.9,226.9,183.9,226.9,183.2,226.2 M186,226.5C186.7,227.1,186.7,227.1,186,226.5 M69.4,229.5C70.1,230,70.1,230,69.4,229.5
		 M97.3,229.4C97.8,230.1,97.8,230.1,97.3,229.4 M100.2,229.2C100.9,229.9,100.9,229.9,100.2,229.2 M103.5,229.4
		C104,230.2,104,230.2,103.5,229.4 M106.2,229.2C106.9,229.8,106.9,229.8,106.2,229.2 M109.1,229.2
		C109.3,232.7,111.9,227.5,109.1,229.2 M97,232.1C95.4,235,100.5,232.2,97,232.1 M100.1,232.1C98.4,234.9,103.6,232.2,100.1,232.1
		 M103.2,232.2C103.9,232.9,103.9,232.9,103.2,232.2 M106.4,232.5C107.1,233,107.1,233,106.4,232.5 M81.3,234.9
		c-0.5,1.4-0.1,1.9,1.3,1.6C83.1,235.1,82.7,234.5,81.3,234.9 M109.1,235.2C107.7,238.1,112.6,235.1,109.1,235.2 M123.9,235.6
		c0.7,1.5,1.5,1.5,2.4,0.1C125.6,234.2,124.8,234.2,123.9,235.6 M163.8,235.7c0.9,1.4,1.7,1.4,2.5-0.1c-0.3-0.3-1-0.8-1.3-1.1
		C164.7,234.8,164.1,235.4,163.8,235.7 M167.4,234.9c-0.5,1.4-0.1,1.9,1.3,1.6C169.2,235,168.8,234.5,167.4,234.9 M123.7,238.7
		c0.8,1.4,1.6,1.4,2.5,0.1c-0.3-0.3-0.9-0.9-1.2-1.1C124.7,237.9,124,238.4,123.7,238.7 M129.4,238.7c-0.3-0.3-0.9-0.9-1.2-1.2
		C125.2,238.1,128.9,241.6,129.4,238.7 M100,241.5C100.7,242.1,100.7,242.1,100,241.5 M120.6,241.9c0.9,1.4,1.7,1.4,2.3-0.1
		C122.1,240.3,121.3,240.3,120.6,241.9 M123.7,241.9c0.9,1.4,1.7,1.4,2.6,0C125.4,240.4,124.5,240.4,123.7,241.9 M127.1,241.8
		c0.8,1.5,1.6,1.5,2.3,0C128.6,240.3,127.8,240.3,127.1,241.8z"/>
</g>
<g id="_x23_030303ff">
	<path class="st1" d="M115.1,1c27.1-2.3,54.9,4.4,77.7,19.2c10.6,6.4,19.2,15.4,27.6,24.3c15.6,18.5,25.5,41.6,28.3,65.6
		c1.4,15.7,0.9,31.7-3.2,47c-5.6,20.6-16,40.2-31.4,55c-22.7,24.2-56,37.6-89,37.3c-33,0.4-66.4-13.1-89-37.3
		c-17.9-17.2-29.2-40.7-33.6-65c-3.2-21.2-2.2-43.3,5.1-63.5c5-14.5,12.7-28,22.6-39.6c4.9-5.1,9.8-10.1,15-14.9
		C64.7,12.9,89.6,2.5,115.1,1 M25.5,55.6C10,78.1,2,105.8,3.9,133.1c1.7,23.4,10.3,46,24,64.9c22.6-13.3,44.6-27.6,67-41.3
		c-1.4-4.1-3-8.3-2.8-12.8c-0.3-5.7,1.5-12.2,6.7-15.3c8.2-4.6,16.3-9.3,24.6-13.8c0-37.1,0-74.2,0-111.4
		C85.1,4.3,47.2,23.7,25.5,55.6 M126.7,3.6c0,36.4,0.1,72.7-0.1,109.1c3.4-1.9,7.5-3.2,11.2-1.6c8.9,3.3,13.8,12.4,16.1,21
		c1.6,7.2,1.3,16.1-4.9,21.2c24.2,15.1,48.2,30.5,72.7,45.1c19.2-26.3,28.6-60.2,22.9-92.5c-4.9-29.9-21-58.2-45.2-76.7
		C178.8,13.2,152.9,4.2,126.7,3.6 M128.8,115.6c-6.9,4-14,7.8-20.8,11.9c5.4,1.9,9.8,6,12.6,10.9c4.2,7.5,6.8,16.7,3.9,25.1
		c7.2-4.5,14.8-8.4,22-13c3.8-2.5,4.9-7.3,4.9-11.6c-0.1-8.8-4.3-17.7-11.6-22.9C136.7,113.7,132.1,113.5,128.8,115.6 M100.9,131.7
		c-3.1,1.6-4.2,5.1-5.2,8.2c-0.9,9.4,2.6,19.3,9.9,25.5c2.6,2.2,6,3.7,9.5,3.1c3.4-1,5.8-4.1,6.5-7.5c2.2-9.8-1.9-20.6-9.5-27.1
		C109.1,131.3,104.5,129.6,100.9,131.7 M140.6,158.2c1.5,0.1,2.9,0.2,4.4,0.3c1.1-0.2,2.3-0.2,3.1,0.8c-4,0.3-8.1-0.5-12,0.6
		c0.9,0.7,1.7,1.4,2.6,2.2c-2.4,0.4-4.9,0.2-7.3,0.8c0,0.9,0.1,2.8,0.2,3.7c-0.3-0.7-0.9-2.2-1.2-3c-1.2,1.7-3.1,2.4-5,3.2
		c0.1,0.6,0.3,1.7,0.5,2.2c-0.8-0.4-1.7-0.7-2.5-1c-1.6,0.9-3.2,2-4.3,3.5c-1.7,0.1-3.4,0.3-5.1,0.6c-0.5,0.8-1,1.6-1.5,2.3l1.8,0.6
		c-0.6,0.1-1.9,0.1-2.6,0.2c0.3-0.8,0.9-2.4,1.2-3.1c-2.2-0.2-4.4-0.5-6.7-0.6c-2.7-4.2-8.4-6.6-9.8-11.7c-0.4,0.2-1.1,0.7-1.5,1
		c-0.1,0.4-0.3,1.2-0.4,1.7c-2.6-0.5-4.5,1.4-6.1,3.2c-0.7,0.1-2.2,0.3-2.9,0.5c0.1,0.8,0.3,2.4,0.4,3.2c-0.8-0.4-1.5-0.9-2.3-1.3
		c-1.6,1-3.4,1.8-4.4,3.5c-1.5,0.3-2.9,0.8-4.3,1.4c0.6,0.7,1.7,2,2.3,2.6c-1-0.6-1.9-1.2-2.8-1.9c-1.5,1.3-3.9,1.9-4.3,4.1
		c-2.5-0.7-4.3,1.3-5.9,2.9c-1.3,0.5-2.5,0.9-3.8,1.4c0.2,0.7,0.7,2.1,1,2.8c-2-2.9-5-0.2-6.6,1.7c-1.8,0.6-3.5,1.3-5.1,2.2
		c-0.3,0.4-0.8,1.3-1.1,1.7c-0.7,0.1-2.2,0.3-3,0.4c0,0.8,0.1,2.4,0.1,3.2c-0.4-0.5-1.2-1.3-1.6-1.8c-1.9,1-3.7,2.2-5,4
		c-0.9,0.2-1.9,0.3-2.8,0.5c0.1,1.2,0.2,2.5-0.4,3.7l-0.7-2.6c-1.6,1.1-3.3,2.1-5,3l0.8,1.7c0.9-0.9,2-1.3,3.2-0.8
		c-0.6,0.3-1.8,0.9-2.4,1.2c1.2,1,3.1,4.8,4,1c0.4,0.5,0.9,0.9,1.3,1.4c-0.7,0.1-2,0.4-2.6,0.5c3.1,3.4,6.4,6.7,9.8,9.9
		c0.1-0.7,0.4-2,0.6-2.6c0.4,0.4,0.9,0.9,1.3,1.3c-3.8,0.7,0.1,2.7,0.9,3.8c0.5-0.5,1.4-1.6,1.8-2.1c-0.3,1.1-0.7,2.1-1.2,3.1
		c1.3,0.5,2.6,1.3,4.1,0.8c-0.5,1.9,0.8,2.6,2.4,3.1c2.2,1.8,4.4,4.5,7.6,3.2c-0.3,0.4-1,1.3-1.4,1.7c1.8,0.7,3.9,1.1,5,3
		c0.4-0.7,1.2-2.2,1.6-3c-0.1,0.8-0.4,2.4-0.5,3.3c1.6,0.7,3.2,1.4,5,1.9c2.3-2.9,0.5-7,0.8-10.3c0.6,0.1,1.8,0.2,2.4,0.2l-1.8,0.3
		c0.4,2.4,0.6,4.9,0.9,7.3c-0.4,0.5-0.8,1.1-1.2,1.6l1.5,0.3c-0.4,0.4-1.2,1.3-1.6,1.7c2,0.8,4.2,1.2,5.9,2.6
		c0.2-0.7,0.6-2.1,0.8-2.9c0.1,0.9,0.3,2.6,0.4,3.5c1.9,0.6,3.9,1.4,5.9,1c0.6,0.6,1.6,1.9,2.2,2.5c0-0.8,0.1-2.4,0.1-3.2l1.1,0.4
		c-0.2,0.6-0.6,1.9-0.8,2.5c2.7,1,6.1,0.3,8.3,2.4c0.3-0.6,0.9-1.9,1.2-2.6c0,0.7,0.1,2.1,0.2,2.8c4,1,8.2,1.3,12.3,1.5
		c0.3,0.3,0.9,0.8,1.2,1.1c0.5-0.6,1-1.2,1.5-1.7c0.5,1.1,1.3,1.8,2.6,2v-2.5c1,1.1,1.7,2.5,3,3.3c0.1-0.9,0.2-2.7,0.3-3.6
		c0.5,1,0.9,2,1.1,3l2,0.2c-0.1-0.8-0.3-2.3-0.4-3.1c1.1,0.7,1.5,1.7,1.2,3l2.4,0c-0.2-0.6-0.5-1.9-0.7-2.6c0.4,0,1.2,0,1.6,0
		c-0.2,0.6-0.5,1.9-0.7,2.6l2.7-0.1c-0.1-0.6-0.4-1.9-0.5-2.5c0.4,0,1.1,0,1.5,0c-0.2,0.7-0.5,1.9-0.6,2.6l2.1-0.2
		c0.2-1.1,0.6-2.1,1.1-3c0,0.9,0.1,2.6,0.2,3.5c1.4-0.7,2.2-1.8,2.6-3.3c0.1,0.5,0.4,1.6,0.5,2.1l1.7,0.3c0.1-0.5,0.4-1.5,0.5-2
		c0.7,0.7,1.4,1.4,2.1,2.1c0.2-0.4,0.5-1.1,0.7-1.5c3.4,0.2,6.7-0.2,10.1-0.4l-0.4-2.3c-3.7,1.3-8.2,1.3-11.9,0l-0.4,1.7
		c-0.2-0.7-0.4-1.4-0.6-2.1c4.6-0.1,9.3-0.1,13.9-0.1c-0.1,0.6-0.4,1.7-0.5,2.3l2.4-0.3c0-0.7,0.1-2.1,0.1-2.8
		c0.3,0.6,0.9,1.8,1.2,2.4c2.4-1.8,5.5-1.5,8.3-2.3c-0.2-0.7-0.6-2-0.8-2.6l1.3-0.2c0,0.8-0.1,2.4-0.1,3.2c0.6-0.7,1.9-2.1,2.5-2.8
		c0.4,0.1,1.3,0.4,1.8,0.6c1.4-0.5,2.9-1,4.3-1.6c-0.1-0.5-0.4-1.6-0.5-2.2c0.3,0,1-0.1,1.4-0.1l-0.4,1.9c1.7-0.9,3.5-1.6,5.3-2.3
		c0.5-3.8-0.5-7.6,0.3-11.4l0.4,0.2c-0.4-1-0.9-2-1.3-3c0.4-0.1,1.2-0.4,1.7-0.5c0.1,4.6,0,9.1-0.1,13.6l1.2,0.1
		c1.3-1.3,3.2-1.7,4.9-2.4c-0.1-0.8-0.3-2.2-0.4-3c0.4,0.7,1.2,2,1.6,2.7c0.9-1.8,2.9-2.3,4.7-2.9c-0.1-0.4-0.4-1.3-0.5-1.7
		c2.1,0.6,4.5,0,3.7-2.7c-0.3-1.3-0.6-2.7-0.8-4c0.6,0.1,1.9,0.3,2.5,0.4l-1.8,0.1c0.3,1.9,0.6,3.7,1,5.5c3.6-0.9-0.4-6.9,3.7-6
		l-1.8,1c0.5,0.8,1.1,1.5,1.6,2.3c0.3-0.7,1.1-2,1.4-2.6c1.3-0.5,2.6-0.9,4-1.2c-0.5-1.1-1-2.1-1.4-3.1c0.5,0.5,1.6,1.4,2.1,1.9
		c1.3-1.1,4.3-2.6,0.9-3.7c0.4-0.4,0.8-0.8,1.3-1.2c0.1,0.7,0.4,2,0.5,2.7c3.1-3.1,6.8-5.8,9.1-9.6c-0.4-0.3-1.1-0.8-1.5-1.1
		c0.4-0.3,0.9-0.6,1.5-0.7l0.5,0.3c1.7,1.4,2.1-1.2,2.4-2.4c0.8-0.4,1.5-0.8,2.3-1.1c-1.9-1.1-3.8-2.6-6.1-1.8
		c0.3-3-3.2-3.2-5.1-4.5l-0.4,2.1c-0.5-0.5-1-1-1.5-1.5l2.4-0.8c-1.3-1-2.8-1.5-4.5-1.5c-0.9-2.1-3-3.1-4.8-4.2
		c-0.4,0.5-1.2,1.5-1.6,2c0.1-0.7,0.2-2.1,0.3-2.8l-1.6-1.3c-0.4,0.8-0.9,1.6-1.3,2.5l1.6,0.5c-0.7,0.2-1.4,0.4-2.2,0.6
		c1.2-2.2-0.2-4.7-1.6-6.3c0,0.8-0.1,2.4-0.1,3.2c-0.3,0-0.8,0.1-1.1,0.2c0.4-1.3,0.5-2.5,0.1-3.8c-0.8-0.1-2.3-0.2-3.1-0.3
		c-0.9-2.2-3.3-3-5-4.3l0,1.7L183,181c0.2-0.5,0.7-1.6,0.9-2.2c-3.2-0.7-5.5-3-8-4.9c-0.8,0.4-1.7,0.8-2.5,1.3
		c0.2-0.5,0.7-1.7,0.9-2.2c-1.9-1-3.9-1.8-5.6-3.2c0,0.8,0,2.4,0,3.1c-2.1-1.3-1.5-2.9-0.1-4.2c-1,0-3.1-0.1-4.1-0.1
		c0.1-2.9-3.8-3-5.1-5.2c-0.1,0.8-0.2,2.4-0.3,3.2c-1-1.1-0.4-2.6-0.4-3.9c-1.2-0.2-2.4-0.3-3.6-0.5l0.2-2c-1.2,0.8-2.3,3.1-3.9,1.5
		c0.9-0.6,1.7-1.2,2.6-1.8c-0.8-0.5-2.4-1.4-3.2-1.8c-0.3,0.4-0.8,1.3-1.1,1.8c0.7-3.3-2.3-3.8-4.6-4.7
		C143.5,156.3,142.1,157.3,140.6,158.2z"/>
	<path class="st1" d="M152.5,77.1c8,4.3,16,8.7,24,12.9c0,1.6,0,3.3,0,4.9c-6.4-3.4-12.7-6.9-19.1-10.3c0,1.5,0,3.1,0,4.6
		c4.8,2.5,9.5,5.2,14.3,7.6c-0.3,1.3,1.3,3.8-0.7,4.1c-1.2-0.1-2.3-0.8-3.4-1.3c-5-2.9-10.2-5.3-15.1-8.3
		C152.5,86.7,152.5,81.9,152.5,77.1z"/>
	<path class="st1" d="M84.5,81.3c1.5-1.2,3.2-2,4.8-3c0,9.5,0,19.1,0,28.6c1.5-0.8,3-1.6,4.5-2.4c0,1.2,0,3.5-0.1,4.7
		c-4.6,2.9-9.5,5.2-14.2,7.8c0-1.7,0.1-3.3,0.1-5c1.6-0.8,3.2-1.6,4.8-2.5c-0.1-6.2,0-12.5,0-18.7c-1.6,0.8-3.2,1.6-4.9,2.4
		c0-1.5,0-3.1-0.1-4.6c1.6-0.9,3.2-1.8,4.8-2.6C84.4,84.4,84.3,82.9,84.5,81.3z"/>
	<path class="st1" d="M46.5,101.8c7.9-4.3,15.8-8.6,23.8-12.9c0,1.1,0.1,3.4,0.1,4.6c-6.2,3.6-12.6,7-19,10.3c0,1.6,0,3.2,0,4.8
		c4.5-2.8,9.3-5.2,14-7.7c0,1.6,0,3.2,0,4.9c1.6-0.9,3.2-1.9,4.8-2.8c0.1,4.8-0.1,9.5,0.1,14.3c-1.4,0.7-2.7,1.7-4.3,1.9
		c-0.2-0.2-0.6-0.5-0.8-0.7c0.2-4.2,0.2-8.4,0.1-12.6c-6.4,3.1-12.6,6.7-18.9,10.1C46.5,111.2,46.5,106.5,46.5,101.8z"/>
	<path class="st1" d="M152.5,96.2c1.6,0.9,3.3,1.8,4.9,2.7c-0.1,3,0.2,6-0.2,8.9c-1.7,0-3.1-1.2-4.6-1.7
		C152.5,102.7,152.5,99.4,152.5,96.2z"/>
	<path class="st1" d="M190.5,97.7c4,1.9,7.8,4.1,11.7,6c2.8,0.8,3.1,3.6,2.5,6c-4.9-1.9-9.6-4.9-14.2-7.5c0.1,4.8,0.1,9.5,0,14.3
		c1.6,0.9,3.1,1.8,4.7,2.6c0.1-1.6,0.2-3.3,0.2-4.9c2.9,1.6,6.1,3.8,4.8,7.7c-1.6-0.9-3.2-1.8-4.9-2.7c0,1.6,0,3.2,0,4.9
		c-1.6-0.9-3.2-1.8-4.8-2.6c0,1.6,0,3.1,0,4.7c4.7,2.6,9.5,5.2,14.3,7.6c-0.2-4.7,0.2-9.5-0.2-14.2c-1.1-0.7-2.3-1.2-3.5-1.8
		c-0.6-1.6-1.1-3.1-1.5-4.7c1.8,0.2,3.5,0.7,5.1,1.5c0.1-0.8,0.4-2.3,0.6-3.1c1.5-1.5,3,0.6,4.4,1.2c0,7.9-0.1,15.9,0,23.8
		c-1.6-0.8-3.2-1.5-4.8-2.2c0,1.5,0,3.1-0.1,4.6c-4.7-2.7-9.4-5.2-14.2-7.7c-0.1-1.6-0.1-3.2-0.2-4.8c-1.6-0.9-3.2-1.8-4.8-2.8
		c0.1-7.8,0-15.6,0.1-23.4c1.6,0.7,3.2,1.5,4.8,2.2C190.4,100.6,190.5,99.2,190.5,97.7z"/>
	<path class="st1" d="M172.2,103.3c1.4-1.4,2.8,0.3,4.2,0.7c0.1,4.9,0.1,9.9,0,14.8c-1.5-1-3-1.9-4.4-3
		C171.5,111.8,171,107.2,172.2,103.3z"/>
	<path class="st1" d="M157.3,113c0.2-1.5-0.4-3.3,0.3-4.7c4.4,2.7,9.4,4.5,13.5,7.8c0.6,1.5,0.9,3.1,0.8,4.7
		C167,118.2,162.2,115.6,157.3,113z"/>
	<path class="st1" d="M46.4,120.6c1.7-0.9,3.3-1.8,5-2.7c0,3.2,0,6.5,0,9.7c4-2.5,8.2-4.6,12.2-7c0.3,0.1,1,0.3,1.3,0.4
		c0.8,1.3,1.4,3.5-0.4,4.1c-4.3,2.5-8.8,4.8-13.2,7.2c0-1.5,0-3,0-4.6c-1.6,0.8-3.2,1.6-4.8,2.4C46.5,127,46.5,123.8,46.4,120.6z"/>
	<path class="st1" d="M90.8,164.3C94.2,164.3,89.4,167.3,90.8,164.3z"/>
	<path class="st1" d="M88.2,169.4c-1.4-0.9-1.4-1.7,0-2.5C89.7,167.7,89.6,168.5,88.2,169.4z"/>
	<path class="st1" d="M126.9,168.1c0.8-1.4,1.7-1.4,2.5,0C128.5,169.6,127.7,169.6,126.9,168.1z"/>
	<path class="st1" d="M131.1,169.4c-1.4-0.9-1.4-1.7,0.1-2.4C132.7,167.9,132.7,168.7,131.1,169.4z"/>
	<path class="st1" d="M158.9,169.4c-1.4-0.9-1.5-1.7,0-2.6C160.2,167.6,160.2,168.5,158.9,169.4z"/>
	<path class="st1" d="M161.9,169.4c-1.6-0.7-1.6-1.5-0.2-2.3C163.2,167.7,163.3,168.4,161.9,169.4z"/>
	<path class="st1" d="M80.7,171.2c0.8-1.4,1.7-1.4,2.5,0C82.3,172.7,81.5,172.7,80.7,171.2z"/>
	<path class="st1" d="M83.8,171.2c0.8-1.4,1.6-1.4,2.5-0.1C85.6,172.6,84.7,172.7,83.8,171.2z"/>
	<path class="st1" d="M88.2,172.4c-1.5-0.9-1.4-1.6,0.1-2.3C89.8,170.9,89.7,171.7,88.2,172.4z"/>
	<path class="st1" d="M122,170.2c1.2,0.7,1.2,1.4-0.1,2.1C120.7,171.5,120.7,170.8,122,170.2z"/>
	<path class="st1" d="M123.7,171.2c0.8-1.4,1.7-1.4,2.6,0C125.5,172.6,124.6,172.6,123.7,171.2z"/>
	<path class="st1" d="M127,171.3c0.7-1.5,1.5-1.5,2.4-0.1C128.6,172.7,127.9,172.7,127,171.3z"/>
	<path class="st1" d="M160.6,171.2c0.8-1.5,1.6-1.4,2.4,0C162.2,172.7,161.4,172.7,160.6,171.2z"/>
	<path class="st1" d="M163.8,171.2c0.8-1.4,1.7-1.4,2.6,0C165.5,172.6,164.6,172.7,163.8,171.2z"/>
	<path class="st1" d="M80.7,174.3c0.9-1.4,1.7-1.4,2.4,0.1C82.2,175.8,81.4,175.8,80.7,174.3z"/>
	<path class="st1" d="M83.8,174.3c0.6-2.8,4.4,0.7,1.2,1.1C84.7,175.1,84.1,174.6,83.8,174.3z"/>
	<path class="st1" d="M109.2,173.5C112.6,173.8,107.4,176.2,109.2,173.5z"/>
	<path class="st1" d="M123.7,174.3c0.8-1.4,1.7-1.4,2.5,0c-0.3,0.3-0.9,0.8-1.2,1.1C124.7,175.1,124.1,174.6,123.7,174.3z"/>
	<path class="st1" d="M163.8,174.3c0.9-1.4,1.7-1.4,2.5,0c-0.3,0.3-1,0.8-1.3,1.1C164.7,175.1,164.1,174.6,163.8,174.3z"/>
	<path class="st1" d="M72.2,176.9C75.1,175.5,72.1,180.3,72.2,176.9z"/>
	<path class="st1" d="M94.2,177.2C94.8,177.8,94.8,177.8,94.2,177.2z"/>
	<path class="st1" d="M112.4,176.9C112.9,177.7,112.9,177.7,112.4,176.9z"/>
	<path class="st1" d="M133.4,177C136.3,175.4,133.6,180.4,133.4,177z"/>
	<path class="st1" d="M136.5,177C139.3,175.4,136.7,180.4,136.5,177z"/>
	<path class="st1" d="M149.1,177C151.9,175.2,149.4,180.4,149.1,177z"/>
	<path class="st1" d="M152.2,176.9C155.1,175.5,152.1,180.3,152.2,176.9z"/>
	<path class="st1" d="M155.2,176.9C158.2,175.5,155.1,180.3,155.2,176.9z"/>
	<path class="st1" d="M173.5,176.9C176.4,175.5,173.5,180.4,173.5,176.9z"/>
	<path class="st1" d="M176.5,176.9C179.5,175.6,176.4,180.3,176.5,176.9z"/>
	<path class="st1" d="M66.1,180C69.1,178.6,66.1,183.4,66.1,180z"/>
	<path class="st1" d="M112.2,180C115.2,178.8,111.9,183.4,112.2,180z"/>
	<path class="st1" d="M136.5,180.1C139.1,178.2,137,183.6,136.5,180.1z"/>
	<path class="st1" d="M149.1,180.1C151.7,178.2,149.6,183.5,149.1,180.1z"/>
	<path class="st1" d="M180.2,180.2C180.8,180.9,180.8,180.9,180.2,180.2z"/>
	<path class="st1" d="M63.2,183.2C63.9,183.8,63.9,183.8,63.2,183.2z"/>
	<path class="st1" d="M66.1,183.1C68.9,181.4,66.3,186.6,66.1,183.1z"/>
	<path class="st1" d="M180,182.9c1.4,0.5,0.7,3.3,0.7,4.6C179,187.3,179.4,184.1,180,182.9z"/>
	<path class="st1" d="M183.4,183.4C184,184.1,184,184.1,183.4,183.4z"/>
	<path class="st1" d="M186.2,183.2C186.9,183.8,186.9,183.8,186.2,183.2z"/>
	<path class="st1" d="M63.2,186.1C66.6,186.4,61.3,188.8,63.2,186.1z"/>
	<path class="st1" d="M183,186.1C186.5,186.1,181.6,189.1,183,186.1z"/>
	<path class="st1" d="M186.2,186.1C189.6,186.5,184.2,188.8,186.2,186.1z"/>
	<path class="st1" d="M188.9,185.9c1.4-0.4,1.9,0.1,1.4,1.5C188.9,187.7,188.4,187.2,188.9,185.9z"/>
	<path class="st1" d="M54.1,189.1C57.5,189.5,52.2,191.9,54.1,189.1z"/>
	<path class="st1" d="M69.3,189.1C72.7,189.7,67.2,191.7,69.3,189.1z"/>
	<path class="st1" d="M80.7,189.7c0.3-0.3,0.8-0.9,1.1-1.2C84.8,188.8,81.3,192.6,80.7,189.7z"/>
	<path class="st1" d="M85.1,190.8c-1.5-0.8-1.4-1.6,0.1-2.3C86.7,189.3,86.7,190.1,85.1,190.8z"/>
	<path class="st1" d="M109.1,189.2C112.6,189.1,107.7,192.1,109.1,189.2z"/>
	<path class="st1" d="M123.7,189.7c0.3-0.3,0.8-0.9,1.1-1.2C127.9,188.8,124.4,192.6,123.7,189.7z"/>
	<path class="st1" d="M165.1,190.8c-1.6-0.7-1.6-1.4-0.1-2.3C166.6,189.2,166.6,190,165.1,190.8z"/>
	<path class="st1" d="M168.2,190.8c-1.5-0.7-1.5-1.5-0.1-2.3C169.7,189.2,169.7,190,168.2,190.8z"/>
	<path class="st1" d="M180,189.2C183.4,189.2,178.5,192.1,180,189.2z"/>
	<path class="st1" d="M192.3,189.1C195.7,189.8,190.1,191.6,192.3,189.1z"/>
	<path class="st1" d="M54.1,192.1C57.5,192.4,52.3,194.9,54.1,192.1z"/>
	<path class="st1" d="M69.3,192.1C72.7,192.8,67.1,194.6,69.3,192.1z"/>
	<path class="st1" d="M80.7,192.7c0.3-0.3,0.9-0.8,1.2-1.1c0.3,0.3,0.9,0.8,1.2,1.1C82.4,194.1,81.6,194.1,80.7,192.7z"/>
	<path class="st1" d="M97,192.2C100.5,192.2,95.5,195.1,97,192.2z"/>
	<path class="st1" d="M109.1,192.2C112.6,192.2,107.6,195.1,109.1,192.2z"/>
	<path class="st1" d="M123.8,192.7c0.3-0.3,0.9-0.8,1.2-1.1c0.3,0.3,0.9,0.8,1.2,1.1C125.4,194.1,124.6,194.1,123.8,192.7z"/>
	<path class="st1" d="M136.9,192.2C140.3,192.1,135.5,195.1,136.9,192.2z"/>
	<path class="st1" d="M166.3,192.7c-0.6,2.8-4.2-0.8-1.2-1.2C165.4,191.8,166,192.4,166.3,192.7z"/>
	<path class="st1" d="M180.1,192.1C183.5,192.4,178.3,194.9,180.1,192.1z"/>
	<path class="st1" d="M192.2,192.2C195.6,192.3,190.6,195,192.2,192.2z"/>
	<path class="st1" d="M40.7,195.7c0.3-0.3,0.9-0.8,1.2-1.1c0.3,0.3,1,0.8,1.3,1.1C42.4,197.1,41.6,197.1,40.7,195.7z"/>
	<path class="st1" d="M80.7,195.7c0.3-0.3,1-0.8,1.3-1.1c0.3,0.3,0.9,0.9,1.2,1.1C82.3,197.1,81.5,197.1,80.7,195.7z"/>
	<path class="st1" d="M86.4,195.8c-0.5,2.9-4.2-0.7-1.2-1.2C85.5,194.9,86.1,195.5,86.4,195.8z"/>
	<path class="st1" d="M123.7,195.8c0.3-0.3,0.9-0.8,1.3-1.1c0.3,0.3,1,0.8,1.3,1.1C125.4,197.1,124.6,197.1,123.7,195.8z"/>
	<path class="st1" d="M163.8,195.7c0.3-0.3,0.9-0.8,1.2-1.1c0.3,0.3,0.9,0.8,1.3,1.1C165.4,197.1,164.6,197.1,163.8,195.7z"/>
	<path class="st1" d="M167,195.7c0.8-1.5,1.6-1.5,2.4,0C168.6,197.2,167.8,197.2,167,195.7z"/>
	<path class="st1" d="M203.6,195.8c0.8-1.5,1.6-1.6,2.4-0.1C205.3,197.2,204.5,197.2,203.6,195.8z"/>
	<path class="st1" d="M37.6,198.9c0.7-1.5,1.5-1.6,2.4-0.1C39.3,200.2,38.5,200.3,37.6,198.9z"/>
	<path class="st1" d="M40.7,198.9c0.8-1.5,1.7-1.5,2.6-0.1C42.5,200.2,41.6,200.2,40.7,198.9z"/>
	<path class="st1" d="M44,198.8c0.8-1.5,1.6-1.5,2.4,0C45.6,200.3,44.8,200.2,44,198.8z"/>
	<path class="st1" d="M80.7,198.8c0.8-1.5,1.7-1.5,2.6,0C82.4,200.2,81.6,200.2,80.7,198.8z"/>
	<path class="st1" d="M84,198.8c0.8-1.5,1.5-1.5,2.4,0C85.6,200.3,84.8,200.3,84,198.8z"/>
	<path class="st1" d="M120.6,198.7c0.3-0.3,0.9-0.8,1.2-1.1C124.8,198.2,121,201.7,120.6,198.7z"/>
	<path class="st1" d="M123.7,198.9c0.8-1.5,1.7-1.5,2.6-0.1C125.5,200.2,124.6,200.2,123.7,198.9z"/>
	<path class="st1" d="M127.1,198.8c0.8-1.5,1.6-1.5,2.3,0C128.6,200.3,127.8,200.2,127.1,198.8z"/>
	<path class="st1" d="M160.6,198.8c0.3-0.3,0.9-0.9,1.2-1.1C164.8,198.2,161,201.7,160.6,198.8z"/>
	<path class="st1" d="M163.8,198.9c0.8-1.5,1.7-1.5,2.6,0C165.5,200.2,164.6,200.2,163.8,198.9z"/>
	<path class="st1" d="M167,198.8c0.8-1.5,1.6-1.4,2.4,0.1C168.5,200.3,167.8,200.2,167,198.8z"/>
	<path class="st1" d="M203.6,198.8c0.8-1.5,1.6-1.5,2.4,0C205.2,200.2,204.4,200.2,203.6,198.8z"/>
	<path class="st1" d="M206.7,198.9c0.9-1.4,1.8-1.4,2.7,0.1C208.4,200.2,207.6,200.2,206.7,198.9z"/>
	<path class="st1" d="M210.1,198.8c0.8-1.5,1.6-1.5,2.4,0.1C211.6,200.3,210.8,200.3,210.1,198.8z"/>
	<path class="st1" d="M35.8,202.9c-1.5-0.8-1.5-1.6,0-2.3C37.3,201.4,37.2,202.2,35.8,202.9z"/>
	<path class="st1" d="M37.6,201.8c0.8-1.5,1.5-1.6,2.4-0.1C39.3,203.3,38.5,203.3,37.6,201.8z"/>
	<path class="st1" d="M40.7,201.8c0.9-1.4,1.7-1.4,2.6,0C42.4,203.2,41.5,203.2,40.7,201.8z"/>
	<path class="st1" d="M44,201.8c0.8-1.5,1.6-1.5,2.3,0C45.6,203.3,44.8,203.3,44,201.8z"/>
	<path class="st1" d="M48.2,202.9c-1.5-0.7-1.5-1.5,0-2.3C49.7,201.4,49.7,202.2,48.2,202.9z"/>
	<path class="st1" d="M78.8,202.9c-1.5-0.8-1.5-1.5,0-2.3C80.3,201.4,80.3,202.2,78.8,202.9z"/>
	<path class="st1" d="M80.7,201.9c0.8-1.5,1.7-1.5,2.5-0.1C82.4,203.2,81.6,203.2,80.7,201.9z"/>
	<path class="st1" d="M84,201.7c0.9-1.5,1.7-1.4,2.3,0.2C85.5,203.3,84.7,203.2,84,201.7z"/>
	<path class="st1" d="M88.3,202.9c-1.5-0.7-1.5-1.5-0.1-2.3C89.7,201.3,89.8,202.1,88.3,202.9z"/>
	<path class="st1" d="M117.6,201.8c0.3-0.3,0.9-0.9,1.2-1.2C121.7,201.1,118.1,204.7,117.6,201.8z"/>
	<path class="st1" d="M120.6,201.8c0.8-1.5,1.5-1.6,2.3-0.1C122.2,203.3,121.4,203.3,120.6,201.8z"/>
	<path class="st1" d="M123.7,201.9c0.8-1.5,1.7-1.5,2.6,0C125.4,203.2,124.6,203.2,123.7,201.9z"/>
	<path class="st1" d="M127.1,201.8c0.7-1.5,1.5-1.6,2.3-0.1C128.6,203.3,127.8,203.3,127.1,201.8z"/>
	<path class="st1" d="M131.2,202.9c-1.5-0.8-1.5-1.5,0-2.3C132.7,201.4,132.7,202.2,131.2,202.9z"/>
	<path class="st1" d="M158.7,202.9c-1.5-0.8-1.5-1.6,0.1-2.3C160.3,201.5,160.2,202.2,158.7,202.9z"/>
	<path class="st1" d="M160.6,201.8c0.7-1.6,1.5-1.6,2.3-0.1C162.2,203.3,161.5,203.3,160.6,201.8z"/>
	<path class="st1" d="M163.8,201.8c0.3-0.3,0.9-0.8,1.3-1.1c0.3,0.3,1,0.8,1.3,1.1C165.4,203.2,164.6,203.2,163.8,201.8z"/>
	<path class="st1" d="M168.2,202.9c-1.5-0.7-1.5-1.5-0.1-2.3C169.7,201.4,169.7,202.1,168.2,202.9z"/>
	<path class="st1" d="M171.3,202.9c-1.5-0.7-1.6-1.5-0.1-2.3C172.7,201.3,172.8,202.1,171.3,202.9z"/>
	<path class="st1" d="M201.8,203c-1.5-0.8-1.5-1.6,0-2.4C203.3,201.4,203.3,202.2,201.8,203z"/>
	<path class="st1" d="M203.6,201.8c0.8-1.5,1.6-1.5,2.3,0C205.2,203.3,204.4,203.3,203.6,201.8z"/>
	<path class="st1" d="M207,201.8c0.8-1.5,1.6-1.5,2.4,0C208.5,203.2,207.7,203.2,207,201.8z"/>
	<path class="st1" d="M211.2,202.9c-1.5-0.8-1.5-1.5,0-2.3C212.7,201.4,212.7,202.2,211.2,202.9z"/>
	<path class="st1" d="M37.7,204.9c0.3-0.3,0.8-0.9,1.1-1.2C41.7,204.1,38.2,207.9,37.7,204.9z"/>
	<path class="st1" d="M40.8,204.9c0.3-0.3,0.9-0.9,1.2-1.1c0.3,0.3,1,0.8,1.3,1.1C42.4,206.3,41.6,206.3,40.8,204.9z"/>
	<path class="st1" d="M45.2,206.2c-1.4-0.8-1.4-1.7,0-2.5c0.3,0.3,0.9,0.9,1.2,1.2C46,205.2,45.4,205.9,45.2,206.2z"/>
	<path class="st1" d="M48.2,206c-1.5-0.8-1.5-1.6,0-2.4C49.7,204.4,49.7,205.2,48.2,206z"/>
	<path class="st1" d="M75.8,206.3c-1.5-0.8-1.5-1.7,0-2.6C77.2,204.5,77.2,205.4,75.8,206.3z"/>
	<path class="st1" d="M78.8,206.2c-1.4-0.9-1.4-1.7,0-2.5C80.2,204.6,80.2,205.4,78.8,206.2z"/>
	<path class="st1" d="M80.7,204.9c0.3-0.3,0.8-0.9,1.1-1.2C84.7,204.1,81.3,207.8,80.7,204.9z"/>
	<path class="st1" d="M85.3,206c-1.5-0.6-1.6-1.4-0.2-2.3C86.7,204.4,86.7,205.1,85.3,206z"/>
	<path class="st1" d="M88.2,206.2c-1.4-0.9-1.3-1.7,0-2.6C89.6,204.6,89.6,205.4,88.2,206.2z"/>
	<path class="st1" d="M118.8,206.2c-1.4-0.9-1.4-1.7,0-2.6C120.2,204.5,120.2,205.4,118.8,206.2z"/>
	<path class="st1" d="M120.6,204.8c0.3-0.3,0.9-0.9,1.2-1.2C124.7,204.3,121.1,207.8,120.6,204.8z"/>
	<path class="st1" d="M124.3,204c1.5-0.5,2,0.1,1.4,1.9C124.2,206.4,123.8,205.8,124.3,204z"/>
	<path class="st1" d="M128.2,206.2c-2.8-0.6,0.7-4.4,1.1-1.2C129,205.3,128.4,205.9,128.2,206.2z"/>
	<path class="st1" d="M131.2,206.1c-1.4-0.8-1.4-1.6,0-2.4C132.7,204.5,132.7,205.3,131.2,206.1z"/>
	<path class="st1" d="M158.9,206.3c-1.4-0.9-1.4-1.8,0-2.7C160.2,204.5,160.2,205.4,158.9,206.3z"/>
	<path class="st1" d="M161.8,206.2c-1.5-0.9-1.4-1.7,0-2.6C163.2,204.6,163.2,205.4,161.8,206.2z"/>
	<path class="st1" d="M163.7,204.9c0.3-0.3,0.9-0.8,1.3-1.1c0.3,0.3,1,0.8,1.3,1.1C165.4,206.3,164.6,206.3,163.7,204.9z"/>
	<path class="st1" d="M168.1,206.2c-2.8-0.7,0.8-4.3,1.2-1.2C169,205.3,168.4,205.9,168.1,206.2z"/>
	<path class="st1" d="M171.2,206.3c-1.4-0.9-1.4-1.7,0-2.6C172.6,204.5,172.6,205.4,171.2,206.3z"/>
	<path class="st1" d="M201.8,206.3c-1.5-0.8-1.5-1.7,0-2.5C203.2,204.6,203.2,205.4,201.8,206.3z"/>
	<path class="st1" d="M203.6,204.8c0.3-0.3,0.9-0.9,1.2-1.1C207.9,204.2,204.2,207.7,203.6,204.8z"/>
	<path class="st1" d="M209.4,204.8c-0.3,2.9-4.2-0.3-1.3-1.1C208.4,203.9,209,204.5,209.4,204.8z"/>
	<path class="st1" d="M211.2,206.2c-2.8-0.7,0.8-4.3,1.2-1.2C212,205.3,211.4,205.9,211.2,206.2z"/>
	<path class="st1" d="M38.2,207.3c1.4-0.4,1.9,0,1.5,1.4C38.3,209.2,37.8,208.7,38.2,207.3z"/>
	<path class="st1" d="M40.7,208.1c0.8-1.4,1.7-1.4,2.6,0C42.5,209.6,41.6,209.6,40.7,208.1z"/>
	<path class="st1" d="M45.2,209.4c-1.5-0.8-1.5-1.6,0-2.3C46.7,207.8,46.7,208.6,45.2,209.4z"/>
	<path class="st1" d="M48.1,209.4c-1.3-0.9-1.3-1.8,0-2.6C49.6,207.7,49.6,208.5,48.1,209.4z"/>
	<path class="st1" d="M75.7,209.4c-1.5-0.8-1.5-1.6,0-2.4C77.2,207.8,77.2,208.6,75.7,209.4z"/>
	<path class="st1" d="M78.8,209.4c-1.5-0.7-1.6-1.5-0.1-2.4C80.2,207.7,80.3,208.5,78.8,209.4z"/>
	<path class="st1" d="M80.7,208.1c0.8-1.4,1.7-1.4,2.5,0c-0.3,0.3-0.9,0.8-1.3,1.1C81.7,209,81,208.4,80.7,208.1z"/>
	<path class="st1" d="M85.2,209.4c-1.5-0.8-1.5-1.6,0-2.3C86.7,207.8,86.7,208.6,85.2,209.4z"/>
	<path class="st1" d="M88.2,209.4c-1.5-0.8-1.4-1.6,0-2.4C89.7,207.8,89.7,208.6,88.2,209.4z"/>
	<path class="st1" d="M118.8,209.4c-1.5-0.8-1.6-1.5-0.1-2.4C120.2,207.7,120.3,208.5,118.8,209.4z"/>
	<path class="st1" d="M120.6,208.2c0.6-2.9,4.1,0.8,1.2,1.2C121.5,209.1,120.9,208.5,120.6,208.2z"/>
	<path class="st1" d="M123.7,208.1c0.8-1.4,1.7-1.4,2.5,0C125.4,209.6,124.6,209.6,123.7,208.1z"/>
	<path class="st1" d="M128.2,209.4c-1.5-0.8-1.5-1.6,0-2.4C129.7,207.8,129.7,208.6,128.2,209.4z"/>
	<path class="st1" d="M131.2,209.4c-1.5-0.8-1.5-1.6-0.1-2.4C132.7,207.8,132.7,208.6,131.2,209.4z"/>
	<path class="st1" d="M158.8,209.4c-1.5-0.8-1.5-1.6,0-2.4C160.3,207.8,160.3,208.6,158.8,209.4z"/>
	<path class="st1" d="M161.8,209.4c-1.5-0.8-1.6-1.5-0.1-2.3C163.3,207.8,163.3,208.5,161.8,209.4z"/>
	<path class="st1" d="M165.1,209.4c-3-0.5,0.6-4.1,1.2-1.2C166,208.5,165.4,209.1,165.1,209.4z"/>
	<path class="st1" d="M168.2,209.4c-1.5-0.9-1.4-1.6,0.1-2.3C169.7,207.8,169.7,208.6,168.2,209.4z"/>
	<path class="st1" d="M171.2,209.4c-1.5-0.8-1.5-1.6,0-2.4C172.7,207.8,172.7,208.6,171.2,209.4z"/>
	<path class="st1" d="M201.8,209.4c-1.5-0.8-1.6-1.5-0.1-2.4C203.3,207.8,203.3,208.5,201.8,209.4z"/>
	<path class="st1" d="M203.6,208.2c0.6-2.9,4.1,0.7,1.2,1.2C204.5,209.1,203.9,208.5,203.6,208.2z"/>
	<path class="st1" d="M208.1,209.4c-3-0.5,0.7-4.1,1.2-1.2C209.1,208.5,208.4,209.1,208.1,209.4z"/>
	<path class="st1" d="M210.4,207.3c1.4-0.4,1.9,0.1,1.4,1.4C210.4,209.1,209.9,208.7,210.4,207.3z"/>
	<path class="st1" d="M41.3,210.4c1.4-0.4,1.8,0.1,1.4,1.5C41.3,212.4,40.9,211.9,41.3,210.4z"/>
	<path class="st1" d="M44,211.3c0.7-1.5,1.5-1.5,2.4-0.1C45.6,212.7,44.8,212.8,44,211.3z"/>
	<path class="st1" d="M78.8,212.4c-1.6-0.8-1.6-1.5-0.1-2.3C80.3,210.8,80.3,211.6,78.8,212.4z"/>
	<path class="st1" d="M80.7,211.2c0.8-1.4,1.7-1.4,2.5,0C82.4,212.7,81.5,212.7,80.7,211.2z"/>
	<path class="st1" d="M84,211.3c0.7-1.5,1.5-1.6,2.4-0.1C85.7,212.7,84.9,212.8,84,211.3z"/>
	<path class="st1" d="M87.1,211.3c0.7-1.5,1.5-1.5,2.3-0.1C88.7,212.7,87.9,212.8,87.1,211.3z"/>
	<path class="st1" d="M118.8,212.4c-1.6-0.8-1.6-1.5-0.1-2.3C120.3,210.8,120.3,211.6,118.8,212.4z"/>
	<path class="st1" d="M120.6,211.2c0.8-1.5,1.6-1.4,2.4,0.1C122.2,212.8,121.4,212.7,120.6,211.2z"/>
	<path class="st1" d="M123.7,211.2c0.8-1.4,1.6-1.4,2.6-0.1C125.5,212.6,124.7,212.6,123.7,211.2z"/>
	<path class="st1" d="M127,211.3c0.7-1.5,1.5-1.5,2.4-0.1C128.6,212.7,127.8,212.8,127,211.3z"/>
	<path class="st1" d="M131.2,212.4c-1.5-0.8-1.4-1.6,0.1-2.3C132.8,210.9,132.7,211.7,131.2,212.4z"/>
	<path class="st1" d="M158.8,212.4c-1.6-0.8-1.6-1.5-0.1-2.3C160.3,210.8,160.3,211.6,158.8,212.4z"/>
	<path class="st1" d="M160.6,211.3c0.7-1.5,1.5-1.5,2.3-0.1C162.2,212.7,161.5,212.8,160.6,211.3z"/>
	<path class="st1" d="M163.7,211.2c0.8-1.4,1.7-1.4,2.5,0C165.4,212.7,164.6,212.7,163.7,211.2z"/>
	<path class="st1" d="M167,211.2c0.8-1.5,1.5-1.5,2.4,0C168.6,212.7,167.8,212.8,167,211.2z"/>
	<path class="st1" d="M170.1,211.2c0.8-1.5,1.5-1.5,2.3,0C171.6,212.8,170.8,212.8,170.1,211.2z"/>
	<path class="st1" d="M200.6,211.2c0.8-1.4,1.6-1.4,2.3,0.1C202.1,212.8,201.4,212.7,200.6,211.2z"/>
	<path class="st1" d="M203.6,211.3c0.5-2.8,4.3,0.6,1.2,1.1C204.6,212.1,204,211.5,203.6,211.3z"/>
	<path class="st1" d="M207.3,210.5c1.3-0.5,1.8,0,1.4,1.4C207.4,212.4,206.9,211.9,207.3,210.5z"/>
	<path class="st1" d="M80.7,214.2c0.9-1.4,1.8-1.3,2.5,0.1C82.3,215.8,81.5,215.7,80.7,214.2z"/>
	<path class="st1" d="M84,214.2c0.8-1.4,1.6-1.4,2.4,0.1C85.5,215.8,84.7,215.8,84,214.2z"/>
	<path class="st1" d="M120.6,214.2c0.9-1.4,1.7-1.3,2.4,0.2C122.1,215.8,121.3,215.8,120.6,214.2z"/>
	<path class="st1" d="M123.7,214.3c0.8-1.4,1.7-1.4,2.5,0C125.3,215.8,124.5,215.8,123.7,214.3z"/>
	<path class="st1" d="M127,214.3c0.7-1.5,1.5-1.5,2.4-0.1C128.6,215.8,127.8,215.8,127,214.3z"/>
	<path class="st1" d="M163.8,214.2c0.9-1.3,1.8-1.3,2.5,0.1c-0.3,0.3-1,0.8-1.3,1C164.6,215.1,164.1,214.5,163.8,214.2z"/>
	<path class="st1" d="M167,214.3c0.8-1.5,1.6-1.5,2.4,0C168.6,215.8,167.8,215.8,167,214.3z"/>
	<path class="st1" d="M54.2,220.2C54.8,220.8,54.8,220.8,54.2,220.2z"/>
	<path class="st1" d="M57.3,220C57.9,220.6,57.9,220.6,57.3,220z"/>
	<path class="st1" d="M60,220.2C60.6,220.9,60.6,220.9,60,220.2z"/>
	<path class="st1" d="M63.2,220.2C63.9,220.8,63.9,220.8,63.2,220.2z"/>
	<path class="st1" d="M66.3,220.4C66.8,221.1,66.8,221.1,66.3,220.4z"/>
	<path class="st1" d="M69.4,220C70,220.7,70,220.7,69.4,220z"/>
	<path class="st1" d="M72.2,220C75.1,218.5,72.2,223.5,72.2,220z"/>
	<path class="st1" d="M97.2,220.2C97.9,220.9,97.9,220.9,97.2,220.2z"/>
	<path class="st1" d="M100.2,220.2C100.9,220.8,100.9,220.8,100.2,220.2z"/>
	<path class="st1" d="M103,220.1C103.7,220.7,103.7,220.7,103,220.1z"/>
	<path class="st1" d="M106.2,220.2C106.9,220.8,106.9,220.8,106.2,220.2z"/>
	<path class="st1" d="M109.1,220C112,218.5,109.1,223.5,109.1,220z"/>
	<path class="st1" d="M112.1,220.1C114.9,218.4,112.3,223.5,112.1,220.1z"/>
	<path class="st1" d="M149.1,220.2C151.7,218.2,149.6,223.6,149.1,220.2z"/>
	<path class="st1" d="M155.2,220.1C158,218.4,155.3,223.5,155.2,220.1z"/>
	<path class="st1" d="M179.5,220.1C182.3,218.4,179.7,223.5,179.5,220.1z"/>
	<path class="st1" d="M183.2,220.2C183.9,220.8,183.9,220.8,183.2,220.2z"/>
	<path class="st1" d="M186.4,220.1C187.1,220.7,187.1,220.7,186.4,220.1z"/>
	<path class="st1" d="M189.1,220C192,218.5,189.1,223.5,189.1,220z"/>
	<path class="st1" d="M57,223C57.6,223.7,57.6,223.7,57,223z"/>
	<path class="st1" d="M60.4,223.4C61,224.1,61,224.1,60.4,223.4z"/>
	<path class="st1" d="M63.4,223C64.1,223.6,64.1,223.6,63.4,223z"/>
	<path class="st1" d="M66.2,223.2C66.8,223.8,66.8,223.8,66.2,223.2z"/>
	<path class="st1" d="M69.1,223.1C71.9,221.4,69.3,226.6,69.1,223.1z"/>
	<path class="st1" d="M97.2,223.2C97.8,223.8,97.8,223.8,97.2,223.2z"/>
	<path class="st1" d="M100.4,223.3C101.1,223.9,101.1,223.9,100.4,223.3z"/>
	<path class="st1" d="M103.4,223.4C104,224.1,104,224.1,103.4,223.4z"/>
	<path class="st1" d="M106.4,223.2C107.1,223.7,107.1,223.7,106.4,223.2z"/>
	<path class="st1" d="M109.1,223.1C112,221.6,109.1,226.6,109.1,223.1z"/>
	<path class="st1" d="M179.6,223.1C182.4,221.5,179.7,226.6,179.6,223.1z"/>
	<path class="st1" d="M183.2,223.2C183.8,223.9,183.8,223.9,183.2,223.2z"/>
	<path class="st1" d="M186,223.4C186.7,224,186.7,224,186,223.4z"/>
	<path class="st1" d="M189.2,223.2C189.8,223.8,189.8,223.8,189.2,223.2z"/>
	<path class="st1" d="M63.4,226.1C64.1,226.6,64.1,226.6,63.4,226.1z"/>
	<path class="st1" d="M66.2,226.2C66.9,226.9,66.9,226.9,66.2,226.2z"/>
	<path class="st1" d="M69.1,226.2C71.9,224.5,69.2,229.6,69.1,226.2z"/>
	<path class="st1" d="M97,226.5C97.7,227,97.7,227,97,226.5z"/>
	<path class="st1" d="M100.2,226.2C100.9,226.9,100.9,226.9,100.2,226.2z"/>
	<path class="st1" d="M103,226.1C103.6,226.8,103.6,226.8,103,226.1z"/>
	<path class="st1" d="M106.2,226.2C109.6,226.4,104.4,229.1,106.2,226.2z"/>
	<path class="st1" d="M109.1,226.1C112,224.6,109.1,229.6,109.1,226.1z"/>
	<path class="st1" d="M179.6,226.1C182.4,224.6,179.6,229.6,179.6,226.1z"/>
	<path class="st1" d="M183.2,226.2C183.9,226.9,183.9,226.9,183.2,226.2z"/>
	<path class="st1" d="M186,226.5C186.7,227.1,186.7,227.1,186,226.5z"/>
	<path class="st1" d="M69.4,229.5C70.1,230,70.1,230,69.4,229.5z"/>
	<path class="st1" d="M97.3,229.4C97.8,230.1,97.8,230.1,97.3,229.4z"/>
	<path class="st1" d="M100.2,229.2C100.9,229.9,100.9,229.9,100.2,229.2z"/>
	<path class="st1" d="M103.5,229.4C104,230.2,104,230.2,103.5,229.4z"/>
	<path class="st1" d="M106.2,229.2C106.9,229.8,106.9,229.8,106.2,229.2z"/>
	<path class="st1" d="M109.1,229.2C111.9,227.5,109.3,232.7,109.1,229.2z"/>
	<path class="st1" d="M97,232.1C100.5,232.2,95.4,235,97,232.1z"/>
	<path class="st1" d="M100.1,232.1C103.6,232.2,98.4,234.9,100.1,232.1z"/>
	<path class="st1" d="M103.2,232.2C103.9,232.9,103.9,232.9,103.2,232.2z"/>
	<path class="st1" d="M106.4,232.5C107.1,233,107.1,233,106.4,232.5z"/>
	<path class="st1" d="M81.3,234.9c1.4-0.4,1.8,0.2,1.3,1.6C81.3,236.8,80.8,236.3,81.3,234.9z"/>
	<path class="st1" d="M109.1,235.2C112.6,235.1,107.7,238.1,109.1,235.2z"/>
	<path class="st1" d="M123.9,235.6c0.9-1.4,1.7-1.4,2.4,0.1C125.4,237.1,124.6,237.1,123.9,235.6z"/>
	<path class="st1" d="M163.8,235.7c0.3-0.3,0.9-0.9,1.2-1.1c0.3,0.3,1,0.8,1.3,1.1C165.5,237.1,164.6,237.1,163.8,235.7z"/>
	<path class="st1" d="M167.4,234.9c1.4-0.4,1.8,0.1,1.3,1.6C167.3,236.9,166.9,236.3,167.4,234.9z"/>
	<path class="st1" d="M123.7,238.7c0.3-0.3,1-0.8,1.3-1.1c0.3,0.3,0.9,0.9,1.2,1.1C125.3,240.1,124.5,240.1,123.7,238.7z"/>
	<path class="st1" d="M129.4,238.7c-0.5,2.9-4.2-0.7-1.2-1.2C128.5,237.9,129.1,238.4,129.4,238.7z"/>
	<path class="st1" d="M100,241.5C100.7,242.1,100.7,242.1,100,241.5z"/>
	<path class="st1" d="M120.6,241.9c0.7-1.6,1.5-1.6,2.3-0.1C122.2,243.3,121.5,243.3,120.6,241.9z"/>
	<path class="st1" d="M123.7,241.9c0.8-1.5,1.7-1.5,2.6,0C125.4,243.2,124.6,243.2,123.7,241.9z"/>
	<path class="st1" d="M127.1,241.8c0.8-1.5,1.5-1.5,2.3,0C128.6,243.3,127.8,243.3,127.1,241.8z"/>
</g>
</svg>
