<?xml version="1.0" encoding="UTF-8" ?>
<!DOCTYPE svg PUBLIC "-//W3C//DTD SVG 1.1//EN" "http://www.w3.org/Graphics/SVG/1.1/DTD/svg11.dtd">
<svg width="250pt" height="250pt" viewBox="0 0 250 250" version="1.1" xmlns="http://www.w3.org/2000/svg">
<g id="#ffffffff">
<path fill="#ffffff" opacity="1.00" d=" M 0.00 0.00 L 250.00 0.00 L 250.00 250.00 L 0.00 250.00 L 0.00 0.00 M 114.94 33.09 C 108.76 33.32 102.42 34.18 96.76 36.76 C 91.52 38.04 86.67 40.50 81.82 42.80 C 80.03 43.61 78.37 44.70 77.14 46.26 C 71.93 48.71 67.36 52.31 62.92 55.92 C 59.57 58.94 55.93 61.88 53.91 66.01 C 53.66 66.27 53.16 66.80 52.91 67.06 C 46.59 74.20 41.55 82.80 38.86 91.94 C 38.60 92.14 38.08 92.54 37.83 92.75 C 35.71 98.61 34.37 104.79 33.65 110.99 C 33.24 117.76 31.87 124.53 32.82 131.32 C 32.21 134.85 32.57 138.44 32.53 142.00 C 32.53 154.34 32.57 166.68 32.51 179.01 C 32.41 180.77 32.71 182.54 33.90 183.91 C 36.32 180.91 37.85 177.29 40.47 174.45 C 45.41 169.03 50.94 164.18 56.80 159.77 C 62.64 156.24 68.97 153.65 74.90 150.29 C 79.90 147.46 85.78 146.72 90.67 143.68 C 93.45 142.15 96.76 142.01 99.53 140.45 C 102.20 138.90 105.65 138.90 107.94 136.72 C 110.21 136.48 112.44 136.00 114.68 135.60 C 114.25 135.24 113.81 134.88 113.38 134.51 C 119.51 133.80 125.24 131.27 130.73 128.56 C 135.20 126.37 139.24 123.31 142.49 119.53 C 144.37 117.63 143.40 114.70 143.58 112.33 C 138.60 107.69 131.75 106.57 125.67 104.06 C 121.57 101.74 116.74 98.90 115.61 93.98 C 115.87 89.76 119.62 86.89 121.18 83.14 C 123.57 81.25 125.80 79.16 128.18 77.26 C 133.22 73.10 139.24 70.38 144.31 66.25 C 148.52 62.88 152.61 59.21 155.68 54.74 C 158.84 50.03 158.93 42.51 153.86 39.07 C 152.73 37.95 151.73 36.53 150.12 36.06 C 144.62 34.30 138.94 33.22 133.17 32.91 C 127.14 31.78 120.97 31.99 114.94 33.09 M 173.60 48.46 C 176.55 57.56 178.88 66.89 179.99 76.36 C 179.11 84.93 180.57 93.78 177.63 102.07 C 177.66 102.48 177.72 103.28 177.75 103.69 C 174.89 106.99 173.63 111.31 170.90 114.70 C 168.53 118.13 165.12 120.62 162.59 123.89 C 157.83 127.15 153.21 130.66 147.97 133.12 C 143.92 135.29 139.40 136.75 135.90 139.84 C 130.09 141.76 124.73 144.87 118.98 147.00 C 112.80 149.18 107.07 152.38 101.05 154.95 C 91.26 160.41 81.89 167.44 76.27 177.37 C 72.06 182.38 70.42 188.80 69.56 195.14 C 69.21 194.39 68.82 193.66 68.40 192.95 C 68.40 195.86 68.42 198.80 67.86 201.67 C 66.83 206.67 68.33 211.71 69.23 216.61 C 88.17 216.61 107.11 216.54 126.04 216.65 C 129.15 216.71 132.16 215.89 135.19 215.31 C 144.47 213.95 153.96 211.81 162.05 206.91 C 165.91 205.68 169.27 203.36 172.73 201.33 C 176.65 198.41 180.65 195.55 184.04 192.00 C 188.85 189.11 192.07 184.40 195.59 180.16 C 201.09 173.45 205.67 165.91 208.80 157.80 C 210.99 155.93 211.41 152.97 212.20 150.37 C 213.08 146.94 214.25 143.56 214.66 140.02 C 215.16 134.31 217.16 128.78 216.74 122.99 C 217.26 116.96 214.65 111.37 214.29 105.42 C 212.85 100.49 212.39 94.95 209.03 90.85 C 205.23 80.58 198.99 71.34 192.06 62.92 C 188.02 57.92 182.67 54.29 177.69 50.32 C 176.53 49.30 175.15 48.64 173.60 48.46 Z" />
</g>
<g id="#8dfec2ff">
<path fill="#8dfec2" opacity="1.00" d=" M 114.94 33.09 C 120.97 31.99 127.14 31.78 133.17 32.91 C 138.94 33.22 144.62 34.30 150.12 36.06 C 151.73 36.53 152.73 37.95 153.86 39.07 C 147.73 35.93 140.86 34.82 134.09 34.04 C 135.98 35.77 138.07 37.36 139.51 39.51 C 140.09 41.56 139.23 43.68 138.67 45.65 C 137.91 46.50 137.13 47.34 136.36 48.17 C 131.54 51.07 127.62 55.86 121.91 56.96 C 119.10 57.55 117.48 54.86 116.09 52.94 C 113.29 48.79 109.86 45.10 106.98 41.01 C 105.67 39.39 104.53 37.40 102.56 36.52 C 100.63 36.28 98.68 36.55 96.76 36.76 C 102.42 34.18 108.76 33.32 114.94 33.09 Z" />
</g>
<g id="#2cdbabff">
<path fill="#2cdbab" opacity="1.00" d=" M 134.09 34.04 C 140.86 34.82 147.73 35.93 153.86 39.07 C 158.93 42.51 158.84 50.03 155.68 54.74 C 152.61 59.21 148.52 62.88 144.31 66.25 C 139.24 70.38 133.22 73.10 128.18 77.26 C 125.80 79.16 123.57 81.25 121.18 83.14 C 121.59 81.60 121.95 80.04 122.30 78.49 C 120.43 76.73 118.60 74.91 116.81 73.07 C 121.62 68.79 126.16 64.21 131.12 60.10 C 134.75 57.00 138.21 53.32 139.69 48.68 C 140.09 47.57 139.00 46.64 138.67 45.65 C 139.23 43.68 140.09 41.56 139.51 39.51 C 138.07 37.36 135.98 35.77 134.09 34.04 Z" />
</g>
<g id="#7efbc0ff">
<path fill="#7efbc0" opacity="1.00" d=" M 96.76 36.76 C 98.68 36.55 100.63 36.28 102.56 36.52 C 104.53 37.40 105.67 39.39 106.98 41.01 C 109.86 45.10 113.29 48.79 116.09 52.94 C 117.48 54.86 119.10 57.55 121.91 56.96 C 127.62 55.86 131.54 51.07 136.36 48.17 C 136.22 48.57 135.95 49.38 135.81 49.78 C 130.03 54.77 123.94 59.47 117.22 63.15 C 114.04 63.77 110.87 65.40 107.61 65.19 C 104.65 62.91 102.95 59.33 99.80 57.23 C 94.28 53.47 91.49 47.15 86.93 42.45 C 83.72 43.86 80.42 45.03 77.14 46.26 C 78.37 44.70 80.03 43.61 81.82 42.80 C 86.67 40.50 91.52 38.04 96.76 36.76 Z" />
</g>
<g id="#70f6beff">
<path fill="#70f6be" opacity="1.00" d=" M 77.14 46.26 C 80.42 45.03 83.72 43.86 86.93 42.45 C 91.49 47.15 94.28 53.47 99.80 57.23 C 102.95 59.33 104.65 62.91 107.61 65.19 C 110.87 65.40 114.04 63.77 117.22 63.15 C 111.40 67.41 105.06 70.92 98.49 73.90 C 96.40 74.10 94.30 74.25 92.20 74.49 C 84.26 67.80 79.92 57.61 70.96 51.95 C 64.75 55.98 59.48 61.19 53.91 66.01 C 55.93 61.88 59.57 58.94 62.92 55.92 C 67.36 52.31 71.93 48.71 77.14 46.26 Z" />
</g>
<g id="#2dd2b2ff">
<path fill="#2dd2b2" opacity="1.00" d=" M 138.67 45.65 C 139.00 46.64 140.09 47.57 139.69 48.68 C 138.21 53.32 134.75 57.00 131.12 60.10 C 126.16 64.21 121.62 68.79 116.81 73.07 C 118.60 74.91 120.43 76.73 122.30 78.49 C 121.95 80.04 121.59 81.60 121.18 83.14 C 119.62 86.89 115.87 89.76 115.61 93.98 C 116.74 98.90 121.57 101.74 125.67 104.06 C 131.75 106.57 138.60 107.69 143.58 112.33 C 143.40 114.70 144.37 117.63 142.49 119.53 C 139.24 123.31 135.20 126.37 130.73 128.56 C 125.24 131.27 119.51 133.80 113.38 134.51 C 113.81 134.88 114.25 135.24 114.68 135.60 C 112.44 136.00 110.21 136.48 107.94 136.72 C 105.30 136.76 102.54 137.41 99.95 136.67 C 97.75 134.95 96.34 132.46 94.74 130.23 C 91.48 125.24 87.75 120.60 84.27 115.77 C 80.99 111.00 76.16 107.37 73.98 101.87 C 75.80 99.73 77.68 97.62 79.94 95.93 C 89.79 88.32 100.19 81.48 110.54 74.60 C 112.97 73.01 115.00 70.95 117.00 68.88 C 122.47 64.40 128.44 60.47 133.28 55.27 C 134.76 53.79 135.21 51.70 135.81 49.78 C 135.95 49.38 136.22 48.57 136.36 48.17 C 137.13 47.34 137.91 46.50 138.67 45.65 Z" />
</g>
<g id="#1fc7f4ff">
<path fill="#1fc7f4" opacity="1.00" d=" M 173.60 48.46 C 175.15 48.64 176.53 49.30 177.69 50.32 C 182.67 54.29 188.02 57.92 192.06 62.92 C 198.99 71.34 205.23 80.58 209.03 90.85 C 209.59 92.77 210.14 94.69 210.70 96.61 C 209.98 99.48 209.12 102.31 208.27 105.14 C 201.44 97.52 193.80 90.67 186.86 83.15 C 185.47 81.72 183.97 80.40 182.46 79.10 C 182.13 80.39 181.80 81.67 181.49 82.96 C 181.29 80.70 180.79 78.48 179.99 76.36 C 178.88 66.89 176.55 57.56 173.60 48.46 Z" />
</g>
<g id="#38b9c6ff">
<path fill="#38b9c6" opacity="1.00" d=" M 117.22 63.15 C 123.94 59.47 130.03 54.77 135.81 49.78 C 135.21 51.70 134.76 53.79 133.28 55.27 C 128.44 60.47 122.47 64.40 117.00 68.88 C 113.97 70.49 110.95 72.14 108.15 74.13 C 96.32 82.30 83.96 89.72 72.75 98.75 C 65.41 104.67 58.07 111.18 53.77 119.74 C 49.85 128.11 47.82 137.76 50.09 146.89 C 51.30 151.56 52.02 157.33 56.80 159.77 C 50.94 164.18 45.41 169.03 40.47 174.45 C 37.85 177.29 36.32 180.91 33.90 183.91 C 32.71 182.54 32.41 180.77 32.51 179.01 C 32.57 166.68 32.53 154.34 32.53 142.00 C 32.57 138.44 32.21 134.85 32.82 131.32 C 34.01 125.86 35.22 120.21 38.73 115.69 C 44.76 106.55 53.93 100.42 62.37 93.75 C 70.38 89.30 78.62 85.21 86.36 80.29 C 90.65 78.66 94.64 76.38 98.49 73.90 C 105.06 70.92 111.40 67.41 117.22 63.15 Z" />
</g>
<g id="#63f0bdff">
<path fill="#63f0bd" opacity="1.00" d=" M 53.91 66.01 C 59.48 61.19 64.75 55.98 70.96 51.95 C 79.92 57.61 84.26 67.80 92.20 74.49 C 94.30 74.25 96.40 74.10 98.49 73.90 C 94.64 76.38 90.65 78.66 86.36 80.29 C 83.31 81.16 80.31 82.21 77.29 83.16 C 73.66 84.58 70.37 81.35 68.37 78.68 C 65.21 74.05 61.98 69.28 57.04 66.37 C 55.72 67.11 54.38 67.82 53.05 68.55 C 53.02 68.18 52.94 67.43 52.91 67.06 C 53.16 66.80 53.66 66.27 53.91 66.01 Z" />
</g>
<g id="#55e7bcff">
<path fill="#55e7bc" opacity="1.00" d=" M 53.05 68.55 C 54.38 67.82 55.72 67.11 57.04 66.37 C 61.98 69.28 65.21 74.05 68.37 78.68 C 70.37 81.35 73.66 84.58 77.29 83.16 C 80.31 82.21 83.31 81.16 86.36 80.29 C 78.62 85.21 70.38 89.30 62.37 93.75 C 59.89 94.46 57.40 95.14 54.95 95.95 C 51.31 92.45 48.39 88.31 44.86 84.70 C 42.06 87.22 40.46 90.64 38.95 94.02 C 38.93 93.50 38.88 92.46 38.86 91.94 C 41.55 82.80 46.59 74.20 52.91 67.06 C 52.94 67.43 53.02 68.18 53.05 68.55 Z" />
</g>
<g id="#2eccb6ff">
<path fill="#2eccb6" opacity="1.00" d=" M 108.15 74.13 C 110.95 72.14 113.97 70.49 117.00 68.88 C 115.00 70.95 112.97 73.01 110.54 74.60 C 100.19 81.48 89.79 88.32 79.94 95.93 C 77.68 97.62 75.80 99.73 73.98 101.87 C 76.16 107.37 80.99 111.00 84.27 115.77 C 87.75 120.60 91.48 125.24 94.74 130.23 C 96.34 132.46 97.75 134.95 99.95 136.67 C 102.54 137.41 105.30 136.76 107.94 136.72 C 105.65 138.90 102.20 138.90 99.53 140.45 C 96.76 142.01 93.45 142.15 90.67 143.68 C 85.78 146.72 79.90 147.46 74.90 150.29 C 68.97 153.65 62.64 156.24 56.80 159.77 C 52.02 157.33 51.30 151.56 50.09 146.89 C 47.82 137.76 49.85 128.11 53.77 119.74 C 58.07 111.18 65.41 104.67 72.75 98.75 C 83.96 89.72 96.32 82.30 108.15 74.13 Z" />
</g>
<g id="#24bdf1ff">
<path fill="#24bdf1" opacity="1.00" d=" M 179.99 76.36 C 180.79 78.48 181.29 80.70 181.49 82.96 C 181.80 81.67 182.13 80.39 182.46 79.10 C 183.97 80.40 185.47 81.72 186.86 83.15 C 193.80 90.67 201.44 97.52 208.27 105.14 C 209.12 102.31 209.98 99.48 210.70 96.61 C 211.41 98.79 212.04 101.01 212.48 103.27 C 212.32 103.68 211.99 104.51 211.83 104.93 C 208.98 110.43 208.88 117.06 205.13 122.13 C 203.62 124.42 201.45 126.13 199.31 127.79 C 195.86 124.52 192.51 121.11 189.83 117.17 C 186.43 112.13 181.43 108.49 177.75 103.69 C 177.72 103.28 177.66 102.48 177.63 102.07 C 180.57 93.78 179.11 84.93 179.99 76.36 Z" />
</g>
<g id="#47dcbcff">
<path fill="#47dcbc" opacity="1.00" d=" M 38.95 94.02 C 40.46 90.64 42.06 87.22 44.86 84.70 C 48.39 88.31 51.31 92.45 54.95 95.95 C 57.40 95.14 59.89 94.46 62.37 93.75 C 53.93 100.42 44.76 106.55 38.73 115.69 C 35.22 120.21 34.01 125.86 32.82 131.32 C 31.87 124.53 33.24 117.76 33.65 110.99 C 34.37 104.79 35.71 98.61 37.83 92.75 C 38.08 92.54 38.60 92.14 38.86 91.94 C 38.88 92.46 38.93 93.50 38.95 94.02 Z" />
</g>
<g id="#90e8f7ff">
<path fill="#90e8f7" opacity="1.00" d=" M 209.03 90.85 C 212.39 94.95 212.85 100.49 214.29 105.42 C 214.65 111.37 217.26 116.96 216.74 122.99 C 217.16 128.78 215.16 134.31 214.66 140.02 C 214.25 143.56 213.08 146.94 212.20 150.37 C 211.41 152.97 210.99 155.93 208.80 157.80 C 211.19 149.93 214.21 142.05 214.18 133.72 C 216.06 123.64 214.98 113.14 212.48 103.27 C 212.04 101.01 211.41 98.79 210.70 96.61 C 210.14 94.69 209.59 92.77 209.03 90.85 Z" />
</g>
<g id="#2ab4edff">
<path fill="#2ab4ed" opacity="1.00" d=" M 177.75 103.69 C 181.43 108.49 186.43 112.13 189.83 117.17 C 192.51 121.11 195.86 124.52 199.31 127.79 C 201.45 126.13 203.62 124.42 205.13 122.13 C 208.88 117.06 208.98 110.43 211.83 104.93 C 211.71 113.24 208.31 120.91 204.04 127.88 C 197.63 134.10 189.87 139.43 180.94 141.00 C 177.36 141.71 174.96 138.48 172.71 136.29 C 169.15 132.36 164.34 129.12 162.59 123.89 C 165.12 120.62 168.53 118.13 170.90 114.70 C 173.63 111.31 174.89 106.99 177.75 103.69 Z" />
</g>
<g id="#36a7deff">
<path fill="#36a7de" opacity="1.00" d=" M 211.83 104.93 C 211.99 104.51 212.32 103.68 212.48 103.27 C 214.98 113.14 216.06 123.64 214.18 133.72 C 211.57 137.83 209.33 142.37 205.46 145.47 C 201.66 148.55 197.19 150.61 192.87 152.83 C 185.38 154.47 177.80 155.75 170.22 156.88 C 164.47 156.78 158.71 156.44 152.97 156.88 C 147.63 157.40 142.36 158.43 137.03 158.96 C 133.66 159.40 130.34 160.09 127.06 160.98 C 121.47 161.93 115.96 163.34 110.80 165.73 C 103.11 167.87 96.14 172.03 89.72 176.69 C 83.38 181.28 77.64 187.12 74.50 194.40 C 73.27 197.24 71.82 200.02 69.79 202.39 C 69.77 199.97 69.67 197.55 69.56 195.14 C 70.42 188.80 72.06 182.38 76.27 177.37 C 81.89 167.44 91.26 160.41 101.05 154.95 C 107.07 152.38 112.80 149.18 118.98 147.00 C 124.73 144.87 130.09 141.76 135.90 139.84 C 136.35 139.84 137.25 139.84 137.70 139.84 C 135.68 141.55 133.69 143.28 131.75 145.07 C 132.92 146.30 133.93 147.75 135.42 148.62 C 138.07 149.43 140.89 148.89 143.59 148.63 C 152.02 147.45 160.51 146.75 168.98 145.96 C 179.45 145.13 189.67 141.30 198.21 135.22 C 200.89 133.45 202.68 130.73 204.04 127.88 C 208.31 120.91 211.71 113.24 211.83 104.93 Z" />
</g>
<g id="#2fabe6ff">
<path fill="#2fabe6" opacity="1.00" d=" M 162.59 123.89 C 164.34 129.12 169.15 132.36 172.71 136.29 C 174.96 138.48 177.36 141.71 180.94 141.00 C 189.87 139.43 197.63 134.10 204.04 127.88 C 202.68 130.73 200.89 133.45 198.21 135.22 C 189.67 141.30 179.45 145.13 168.98 145.96 C 160.51 146.75 152.02 147.45 143.59 148.63 C 140.89 148.89 138.07 149.43 135.42 148.62 C 133.93 147.75 132.92 146.30 131.75 145.07 C 133.69 143.28 135.68 141.55 137.70 139.84 C 137.25 139.84 136.35 139.84 135.90 139.84 C 139.40 136.75 143.92 135.29 147.97 133.12 C 153.21 130.66 157.83 127.15 162.59 123.89 Z" />
</g>
<g id="#03f1feff">
<path fill="#03f1fe" opacity="1.00" d=" M 205.46 145.47 C 209.33 142.37 211.57 137.83 214.18 133.72 C 214.21 142.05 211.19 149.93 208.80 157.80 C 205.67 165.91 201.09 173.45 195.59 180.16 C 194.46 172.02 189.55 165.29 186.18 158.00 C 188.41 156.28 190.58 154.48 192.87 152.83 C 197.19 150.61 201.66 148.55 205.46 145.47 Z" />
</g>
<g id="#06e4fcff">
<path fill="#06e4fc" opacity="1.00" d=" M 170.22 156.88 C 177.80 155.75 185.38 154.47 192.87 152.83 C 190.58 154.48 188.41 156.28 186.18 158.00 C 189.55 165.29 194.46 172.02 195.59 180.16 C 192.07 184.40 188.85 189.11 184.04 192.00 C 181.76 189.82 179.78 187.32 178.58 184.38 C 174.82 175.68 169.96 167.52 166.00 158.92 C 167.40 158.23 168.79 157.52 170.22 156.88 Z" />
</g>
<g id="#0ccffaff">
<path fill="#0ccffa" opacity="1.00" d=" M 137.03 158.96 C 142.36 158.43 147.63 157.40 152.97 156.88 C 151.97 158.32 150.95 159.75 149.90 161.16 C 152.09 167.26 155.97 172.54 158.42 178.52 C 161.28 185.42 164.62 192.13 168.53 198.50 C 169.39 200.08 171.22 200.58 172.73 201.33 C 169.27 203.36 165.91 205.68 162.05 206.91 C 160.16 207.45 158.26 207.93 156.40 208.54 C 149.57 195.29 143.01 181.91 136.40 168.55 C 135.59 166.84 134.64 165.14 134.36 163.24 C 135.06 161.70 136.08 160.35 137.03 158.96 Z" />
</g>
<g id="#09d9fbff">
<path fill="#09d9fb" opacity="1.00" d=" M 152.97 156.88 C 158.71 156.44 164.47 156.78 170.22 156.88 C 168.79 157.52 167.40 158.23 166.00 158.92 C 169.96 167.52 174.82 175.68 178.58 184.38 C 179.78 187.32 181.76 189.82 184.04 192.00 C 180.65 195.55 176.65 198.41 172.73 201.33 C 171.22 200.58 169.39 200.08 168.53 198.50 C 164.62 192.13 161.28 185.42 158.42 178.52 C 155.97 172.54 152.09 167.26 149.90 161.16 C 150.95 159.75 151.97 158.32 152.97 156.88 Z" />
</g>
<g id="#0ec5f9ff">
<path fill="#0ec5f9" opacity="1.00" d=" M 127.06 160.98 C 130.34 160.09 133.66 159.40 137.03 158.96 C 136.08 160.35 135.06 161.70 134.36 163.24 C 134.64 165.14 135.59 166.84 136.40 168.55 C 143.01 181.91 149.57 195.29 156.40 208.54 C 151.02 210.73 145.43 212.33 139.74 213.46 C 139.69 211.20 139.38 208.89 138.06 206.98 C 134.42 201.27 132.38 194.76 129.20 188.82 C 125.60 182.00 122.06 175.15 118.80 168.17 C 117.98 167.01 118.55 165.51 119.69 164.83 C 121.99 163.27 124.55 162.15 127.06 160.98 Z" />
</g>
<g id="#11bbf8ff">
<path fill="#11bbf8" opacity="1.00" d=" M 110.80 165.73 C 115.96 163.34 121.47 161.93 127.06 160.98 C 124.55 162.15 121.99 163.27 119.69 164.83 C 118.55 165.51 117.98 167.01 118.80 168.17 C 122.06 175.15 125.60 182.00 129.20 188.82 C 132.38 194.76 134.42 201.27 138.06 206.98 C 139.38 208.89 139.69 211.20 139.74 213.46 C 133.85 214.80 127.78 214.41 121.80 214.38 C 119.93 205.60 114.52 198.22 110.79 190.19 C 107.86 184.03 105.33 177.67 101.88 171.77 C 104.65 169.47 107.72 167.57 110.80 165.73 Z" />
</g>
<g id="#15aff6ff">
<path fill="#15aff6" opacity="1.00" d=" M 89.72 176.69 C 96.14 172.03 103.11 167.87 110.80 165.73 C 107.72 167.57 104.65 169.47 101.88 171.77 C 105.33 177.67 107.86 184.03 110.79 190.19 C 114.52 198.22 119.93 205.60 121.80 214.38 C 114.34 214.40 106.88 214.43 99.42 214.37 C 99.22 209.40 95.76 205.55 93.89 201.16 C 91.79 196.04 89.25 191.12 86.82 186.16 C 84.72 182.72 87.88 179.42 89.72 176.69 Z" />
</g>
<g id="#18a2f5ff">
<path fill="#18a2f5" opacity="1.00" d=" M 74.50 194.40 C 77.64 187.12 83.38 181.28 89.72 176.69 C 87.88 179.42 84.72 182.72 86.82 186.16 C 89.25 191.12 91.79 196.04 93.89 201.16 C 95.76 205.55 99.22 209.40 99.42 214.37 C 89.57 214.29 79.71 214.71 69.86 214.18 C 69.57 210.25 69.58 206.32 69.79 202.39 C 71.82 200.02 73.27 197.24 74.50 194.40 Z" />
</g>
<g id="#8cd3faff">
<path fill="#8cd3fa" opacity="1.00" d=" M 68.40 192.95 C 68.82 193.66 69.21 194.39 69.56 195.14 C 69.67 197.55 69.77 199.97 69.79 202.39 C 69.58 206.32 69.57 210.25 69.86 214.18 C 79.71 214.71 89.57 214.29 99.42 214.37 C 106.88 214.43 114.34 214.40 121.80 214.38 C 127.78 214.41 133.85 214.80 139.74 213.46 C 145.43 212.33 151.02 210.73 156.40 208.54 C 158.26 207.93 160.16 207.45 162.05 206.91 C 153.96 211.81 144.47 213.95 135.19 215.31 C 132.16 215.89 129.15 216.71 126.04 216.65 C 107.11 216.54 88.17 216.61 69.23 216.61 C 68.33 211.71 66.83 206.67 67.86 201.67 C 68.42 198.80 68.40 195.86 68.40 192.95 Z" />
</g>
</svg>
