<svg id="Layer_1" data-name="Layer 1" xmlns="http://www.w3.org/2000/svg" viewBox="0 0 250 250"><defs><style>.cls-1{fill:#2b61d1;}.cls-2{fill:#fff;}</style></defs><g id="Layer_2" data-name="Layer 2"><g id="Flux_white-blue" data-name="Flux white-blue"><path id="Path_81" data-name="Path 81" class="cls-1" d="M125.81,0A125.41,125.41,0,1,1,125,0Z" transform="translate(0 0)"/><g id="Group_179" data-name="Group 179"><path id="Path_73" data-name="Path 73" class="cls-2" d="M140.71,197.51l-14.33,8.14L95.62,187.91l14-8.14h.57Z" transform="translate(0 0)"/><path id="Path_74" data-name="Path 74" class="cls-2" d="M195.72,85.7v16.68l-30.27-17.5-8.14-4.72-8.14,4.72-38.57,22.3-8.14,4.72v10.17L87.4,113.12l-8.14-4.72-8.13,4.72L57,121.18V85.7l69.33-40Z" transform="translate(0 0)"/><path id="Path_75" data-name="Path 75" class="cls-2" d="M195.72,121.34v44.52l-38.49,22.21h0l-38.5-22.21V121.34l38.58-22.22Z" transform="translate(0 0)"/><path id="Path_76" data-name="Path 76" class="cls-2" d="M101.4,140.14v25.63L79.18,178.55,57,165.77V140.14L79.1,127.36Z" transform="translate(0 0)"/></g></g></g></svg>