<?xml version="1.0" encoding="UTF-8" ?>
<!DOCTYPE svg PUBLIC "-//W3C//DTD SVG 1.1//EN" "http://www.w3.org/Graphics/SVG/1.1/DTD/svg11.dtd">
<svg width="250pt" height="250pt" viewBox="0 0 250 250" version="1.1" xmlns="http://www.w3.org/2000/svg">
<g id="#fefffeff">
<path fill="#fefffe" opacity="1.00" d=" M 0.00 0.00 L 250.00 0.00 L 250.00 250.00 L 0.00 250.00 L 0.00 0.00 M 60.80 18.78 C 46.42 28.00 33.44 39.70 23.86 53.92 C 18.43 61.09 13.46 68.76 10.53 77.33 C 15.48 70.65 19.39 63.20 24.88 56.91 C 31.58 49.93 38.52 43.03 46.73 37.82 C 70.79 21.91 98.83 13.02 127.14 8.50 C 136.38 6.42 145.89 6.33 155.22 4.94 C 153.29 3.50 150.87 3.14 148.56 2.77 C 118.67 -2.11 86.66 2.47 60.80 18.78 M 107.08 20.24 C 85.74 26.11 64.89 34.80 47.08 48.12 C 33.05 58.25 21.19 71.15 11.39 85.37 C 8.97 88.97 6.22 92.42 4.58 96.47 C 3.08 100.85 2.53 105.50 2.25 110.11 C 4.05 108.60 5.38 106.65 6.76 104.77 C 12.89 96.61 20.63 89.87 28.45 83.40 C 41.07 73.63 55.75 66.76 70.85 61.76 C 90.26 55.09 110.64 52.02 130.98 49.85 C 149.98 48.89 168.93 45.62 188.00 47.02 C 196.00 47.69 204.08 47.01 212.06 48.14 C 215.30 48.57 218.59 48.59 221.86 48.43 C 220.56 45.49 218.46 43.04 216.26 40.76 C 206.63 30.42 195.32 21.62 182.77 15.11 C 178.77 13.12 174.84 10.26 170.20 10.23 C 148.83 10.89 127.81 15.27 107.08 20.24 M 194.47 50.68 C 186.68 51.59 178.82 51.21 171.05 52.16 C 135.72 53.85 99.97 58.56 66.99 71.99 C 54.03 77.66 41.19 84.08 30.21 93.10 C 19.31 100.66 10.04 110.40 1.99 120.87 C 0.50 125.71 1.69 131.04 1.52 136.06 C 5.40 134.29 7.22 130.13 10.63 127.74 C 34.46 109.08 64.39 100.50 93.87 95.86 C 104.54 93.81 115.48 94.02 126.13 91.88 C 141.97 89.68 158.01 89.24 173.99 89.69 C 186.04 90.46 198.09 91.08 210.15 91.73 C 210.30 92.17 210.61 93.04 210.76 93.47 C 201.17 93.30 191.57 93.33 181.99 93.76 C 172.69 94.80 163.30 94.19 153.99 95.22 C 134.41 95.67 114.94 98.28 95.71 101.90 C 77.18 106.02 58.67 111.01 41.66 119.61 C 28.54 125.79 16.39 133.93 5.47 143.46 C 4.46 144.46 3.09 145.48 3.38 147.10 C 3.54 152.17 5.37 156.99 6.53 161.88 C 12.25 160.35 16.91 156.47 22.36 154.29 C 43.78 144.91 66.88 140.07 89.98 137.10 C 108.79 133.79 127.90 132.18 147.00 132.51 C 154.55 132.52 162.13 132.36 169.64 133.28 C 175.14 133.90 180.93 132.77 186.15 135.00 C 179.64 137.33 172.57 136.20 165.79 136.63 C 151.27 137.50 136.70 137.36 122.23 139.02 C 102.96 140.82 83.75 143.62 64.95 148.24 C 45.78 153.40 26.99 160.61 10.21 171.33 C 12.04 176.68 14.83 181.63 17.45 186.62 C 18.46 188.20 19.28 190.19 21.07 191.03 C 27.23 189.93 33.06 187.49 39.16 186.11 C 51.77 183.18 64.46 180.55 77.25 178.52 C 87.66 176.25 98.34 175.45 108.99 175.48 C 127.33 175.08 145.70 174.99 164.01 176.38 C 170.58 176.17 177.06 177.36 183.59 177.74 C 183.58 177.89 183.56 178.19 183.54 178.34 C 177.00 178.19 170.54 179.56 164.00 179.37 C 152.00 179.52 139.96 179.06 128.00 180.25 C 102.48 180.83 77.08 184.43 52.24 190.27 C 43.16 192.17 34.21 194.88 25.88 198.99 C 29.65 204.79 34.49 209.78 39.40 214.61 C 42.42 217.41 45.37 220.45 49.12 222.28 C 66.33 220.28 83.63 218.16 101.01 218.39 C 123.92 218.16 146.87 218.31 169.69 220.54 C 169.68 220.80 169.67 221.32 169.66 221.58 C 154.11 221.72 138.53 221.14 123.01 222.31 C 101.19 222.42 79.51 225.35 57.93 228.28 C 58.99 229.84 60.52 230.97 62.16 231.86 C 80.86 242.62 102.34 249.14 124.00 248.80 C 154.24 249.70 184.42 237.96 207.01 218.01 C 229.80 198.11 244.68 169.56 248.36 139.56 C 249.10 130.10 249.06 120.58 248.45 111.12 C 246.09 89.19 237.21 68.32 224.48 50.43 C 214.48 50.26 204.46 50.38 194.47 50.68 Z" />
</g>
<g id="#4bb0eaff">
<path fill="#4bb0ea" opacity="1.00" d=" M 60.80 18.78 C 86.66 2.47 118.67 -2.11 148.56 2.77 C 150.87 3.14 153.29 3.50 155.22 4.94 C 145.89 6.33 136.38 6.42 127.14 8.50 C 98.83 13.02 70.79 21.91 46.73 37.82 C 38.52 43.03 31.58 49.93 24.88 56.91 C 19.39 63.20 15.48 70.65 10.53 77.33 C 13.46 68.76 18.43 61.09 23.86 53.92 C 33.44 39.70 46.42 28.00 60.80 18.78 Z" />
<path fill="#4bb0ea" opacity="1.00" d=" M 107.08 20.24 C 127.81 15.27 148.83 10.89 170.20 10.23 C 174.84 10.26 178.77 13.12 182.77 15.11 C 195.32 21.62 206.63 30.42 216.26 40.76 C 218.46 43.04 220.56 45.49 221.86 48.43 C 218.59 48.59 215.30 48.57 212.06 48.14 C 204.08 47.01 196.00 47.69 188.00 47.02 C 168.93 45.62 149.98 48.89 130.98 49.85 C 110.64 52.02 90.26 55.09 70.85 61.76 C 55.75 66.76 41.07 73.63 28.45 83.40 C 20.63 89.87 12.89 96.61 6.76 104.77 C 5.38 106.65 4.05 108.60 2.25 110.11 C 2.53 105.50 3.08 100.85 4.58 96.47 C 6.22 92.42 8.97 88.97 11.39 85.37 C 21.19 71.15 33.05 58.25 47.08 48.12 C 64.89 34.80 85.74 26.11 107.08 20.24 Z" />
<path fill="#4bb0ea" opacity="1.00" d=" M 194.47 50.68 C 204.46 50.38 214.48 50.26 224.48 50.43 C 237.21 68.32 246.09 89.19 248.45 111.12 C 249.06 120.58 249.10 130.10 248.36 139.56 C 244.68 169.56 229.80 198.11 207.01 218.01 C 184.42 237.96 154.24 249.70 124.00 248.80 C 102.34 249.14 80.86 242.62 62.16 231.86 C 60.52 230.97 58.99 229.84 57.93 228.28 C 79.51 225.35 101.19 222.42 123.01 222.31 C 138.53 221.14 154.11 221.72 169.66 221.58 C 169.67 221.32 169.68 220.80 169.69 220.54 C 146.87 218.31 123.92 218.16 101.01 218.39 C 83.63 218.16 66.33 220.28 49.12 222.28 C 45.37 220.45 42.42 217.41 39.40 214.61 C 34.49 209.78 29.65 204.79 25.88 198.99 C 34.21 194.88 43.16 192.17 52.24 190.27 C 77.08 184.43 102.48 180.83 128.00 180.25 C 139.96 179.06 152.00 179.52 164.00 179.37 C 170.54 179.56 177.00 178.19 183.54 178.34 C 183.56 178.19 183.58 177.89 183.59 177.74 C 177.06 177.36 170.58 176.17 164.01 176.38 C 145.70 174.99 127.33 175.08 108.99 175.48 C 98.34 175.45 87.66 176.25 77.25 178.52 C 64.46 180.55 51.77 183.18 39.16 186.11 C 33.06 187.49 27.23 189.93 21.07 191.03 C 19.28 190.19 18.46 188.20 17.45 186.62 C 14.83 181.63 12.04 176.68 10.21 171.33 C 26.99 160.61 45.78 153.40 64.95 148.24 C 83.75 143.62 102.96 140.82 122.23 139.02 C 136.70 137.36 151.27 137.50 165.79 136.63 C 172.57 136.20 179.64 137.33 186.15 135.00 C 180.93 132.77 175.14 133.90 169.64 133.28 C 162.13 132.36 154.55 132.52 147.00 132.51 C 127.90 132.18 108.79 133.79 89.98 137.10 C 66.88 140.07 43.78 144.91 22.36 154.29 C 16.91 156.47 12.25 160.35 6.53 161.88 C 5.37 156.99 3.54 152.17 3.38 147.10 C 3.09 145.48 4.46 144.46 5.47 143.46 C 16.39 133.93 28.54 125.79 41.66 119.61 C 58.67 111.01 77.18 106.02 95.71 101.90 C 114.94 98.28 134.41 95.67 153.99 95.22 C 163.30 94.19 172.69 94.80 181.99 93.76 C 191.57 93.33 201.17 93.30 210.76 93.47 C 210.61 93.04 210.30 92.17 210.15 91.73 C 198.09 91.08 186.04 90.46 173.99 89.69 C 158.01 89.24 141.97 89.68 126.13 91.88 C 115.48 94.02 104.54 93.81 93.87 95.86 C 64.39 100.50 34.46 109.08 10.63 127.74 C 7.22 130.13 5.40 134.29 1.52 136.06 C 1.69 131.04 0.50 125.71 1.99 120.87 C 10.04 110.40 19.31 100.66 30.21 93.10 C 41.19 84.08 54.03 77.66 66.99 71.99 C 99.97 58.56 135.72 53.85 171.05 52.16 C 178.82 51.21 186.68 51.59 194.47 50.68 Z" />
</g>
</svg>
