<?xml version="1.0" encoding="UTF-8" ?>
<!DOCTYPE svg PUBLIC "-//W3C//DTD SVG 1.1//EN" "http://www.w3.org/Graphics/SVG/1.1/DTD/svg11.dtd">
<svg width="250pt" height="250pt" viewBox="0 0 250 250" version="1.1" xmlns="http://www.w3.org/2000/svg">
<g id="#fffefeff">
<path fill="#fffefe" opacity="1.00" d=" M 0.00 0.00 L 250.00 0.00 L 250.00 250.00 L 0.00 250.00 L 0.00 0.00 M 40.16 40.98 C 25.97 52.66 17.12 69.89 10.82 86.89 C -5.54 133.79 11.22 191.32 52.00 220.12 C 55.52 223.81 60.06 226.85 64.69 228.88 C 102.69 251.81 155.59 250.83 191.41 224.64 C 195.98 222.62 200.91 219.28 203.86 214.99 C 224.07 200.03 236.07 175.81 242.78 151.90 C 252.15 107.96 236.34 57.04 198.88 30.99 C 154.68 -7.32 79.31 -3.07 40.16 40.98 Z" />
</g>
<g id="#fabc3cff">
<path fill="#fabc3c" opacity="1.00" d=" M 40.16 40.98 C 79.31 -3.07 154.68 -7.32 198.88 30.99 C 204.29 38.04 212.70 42.85 217.21 50.86 C 210.40 45.20 204.36 37.86 195.33 35.69 C 188.83 34.94 183.78 30.59 178.02 27.99 C 156.30 16.73 131.20 12.43 106.95 15.92 C 91.25 19.44 76.20 25.42 62.02 32.99 C 51.39 36.32 41.98 42.39 33.98 50.06 C 35.77 46.84 38.68 44.38 40.16 40.98 Z" />
</g>
<g id="#fadd4aff">
<path fill="#fadd4a" opacity="1.00" d=" M 106.95 15.92 C 131.20 12.43 156.30 16.73 178.02 27.99 C 183.78 30.59 188.83 34.94 195.33 35.69 C 204.36 37.86 210.40 45.20 217.21 50.86 C 218.27 52.53 219.16 54.30 220.14 56.01 C 216.80 54.79 212.34 50.63 209.78 55.19 C 204.35 50.67 200.30 43.98 193.92 40.89 C 222.75 66.53 238.51 106.34 231.20 144.70 C 230.44 147.91 229.58 151.10 228.77 154.30 C 228.28 152.51 227.95 150.69 227.78 148.84 C 232.81 127.92 232.01 104.13 222.08 84.92 C 221.78 82.33 220.63 79.98 219.02 77.96 C 217.90 75.50 216.73 73.05 215.10 70.87 C 214.81 70.42 214.23 69.52 213.93 69.07 C 190.39 26.43 133.45 8.48 88.64 25.63 C 71.64 31.42 56.62 42.11 44.75 55.46 C 44.54 49.62 52.46 46.91 55.10 41.84 C 46.45 47.01 40.14 55.73 34.16 63.81 C 33.37 59.11 29.04 60.13 25.92 61.92 C 28.36 57.80 30.96 53.77 33.98 50.06 C 41.98 42.39 51.39 36.32 62.02 32.99 C 76.20 25.42 91.25 19.44 106.95 15.92 Z" />
</g>
<g id="#af7c26ff">
<path fill="#af7c26" opacity="1.00" d=" M 88.64 25.63 C 133.45 8.48 190.39 26.43 213.93 69.07 C 201.55 52.10 185.84 36.85 166.01 29.06 C 157.59 25.07 148.39 23.02 139.22 21.66 C 132.51 20.72 125.72 20.95 118.97 21.00 C 104.76 21.59 90.52 25.35 77.86 31.95 C 70.92 35.26 64.13 39.20 58.70 44.72 C 53.68 48.29 49.56 52.92 45.26 57.28 C 45.13 56.83 44.88 55.92 44.75 55.46 C 56.62 42.11 71.64 31.42 88.64 25.63 Z" />
</g>
<g id="#346ea8ff">
<path fill="#346ea8" opacity="1.00" d=" M 77.86 31.95 C 90.52 25.35 104.76 21.59 118.97 21.00 L 119.08 22.04 C 99.71 25.50 85.87 43.45 77.19 60.26 C 77.19 50.72 87.03 44.11 87.42 34.60 C 87.20 29.01 81.31 32.21 77.86 31.95 Z" />
</g>
<g id="#7456bdff">
<path fill="#7456bd" opacity="1.00" d=" M 118.97 21.00 C 125.72 20.95 132.51 20.72 139.22 21.66 C 141.71 26.80 141.21 34.25 147.10 36.87 C 156.16 41.64 165.52 47.34 169.83 57.11 C 170.05 71.22 186.63 73.90 190.91 86.18 L 191.07 87.03 C 191.29 88.40 191.56 89.75 191.75 91.12 C 191.29 91.16 190.37 91.24 189.91 91.27 C 187.21 81.55 179.74 74.83 171.77 69.24 C 168.16 57.24 161.72 45.20 149.01 40.97 C 138.06 37.93 140.24 18.85 126.30 22.05 C 123.89 21.91 121.49 22.21 119.23 23.07 L 119.08 22.04 L 118.97 21.00 Z" />
</g>
<g id="#5071c4ff">
<path fill="#5071c4" opacity="1.00" d=" M 77.19 60.26 C 85.87 43.45 99.71 25.50 119.08 22.04 L 119.23 23.07 C 106.58 28.38 94.69 36.43 87.00 48.00 C 82.24 53.75 80.41 61.17 76.06 67.14 C 71.56 68.97 67.83 72.16 63.82 74.84 C 66.16 69.88 71.34 67.74 75.17 64.24 C 76.11 63.07 76.59 61.61 77.19 60.26 Z" />
</g>
<g id="#7e6de4ff">
<path fill="#7e6de4" opacity="1.00" d=" M 119.23 23.07 C 121.49 22.21 123.89 21.91 126.30 22.05 C 105.91 28.92 87.18 43.93 80.08 65.05 C 78.95 66.26 77.72 67.37 76.32 68.26 L 76.06 67.14 C 80.41 61.17 82.24 53.75 87.00 48.00 C 94.69 36.43 106.58 28.38 119.23 23.07 Z" />
</g>
<g id="#ae61f4ff">
<path fill="#ae61f4" opacity="1.00" d=" M 126.30 22.05 C 140.24 18.85 138.06 37.93 149.01 40.97 C 161.72 45.20 168.16 57.24 171.77 69.24 C 179.74 74.83 187.21 81.55 189.91 91.27 C 190.35 98.00 188.14 104.45 186.12 110.76 L 185.45 111.23 C 183.65 112.18 181.89 113.20 180.12 114.21 C 184.25 108.81 186.39 102.32 187.55 95.68 C 187.28 84.18 178.07 76.03 169.77 69.26 C 166.67 62.08 165.25 52.38 157.20 48.79 C 150.91 42.27 139.84 40.79 137.21 30.97 C 136.01 29.32 131.50 30.77 133.74 27.70 C 134.93 25.69 135.02 24.35 132.27 25.09 C 107.75 24.37 89.36 46.40 80.15 67.11 C 80.13 66.60 80.09 65.57 80.08 65.05 C 87.18 43.93 105.91 28.92 126.30 22.05 Z" />
</g>
<g id="#44578eff">
<path fill="#44578e" opacity="1.00" d=" M 139.22 21.66 C 148.39 23.02 157.59 25.07 166.01 29.06 C 168.48 33.03 164.41 35.90 162.96 39.04 C 165.13 44.18 169.26 48.71 173.67 52.26 C 170.91 61.55 176.51 68.89 184.84 72.17 C 187.90 76.30 190.70 80.89 190.91 86.18 C 186.63 73.90 170.05 71.22 169.83 57.11 C 165.52 47.34 156.16 41.64 147.10 36.87 C 141.21 34.25 141.71 26.80 139.22 21.66 Z" />
</g>
<g id="#e978f1ff">
<path fill="#e978f1" opacity="1.00" d=" M 80.15 67.11 C 89.36 46.40 107.75 24.37 132.27 25.09 C 110.23 30.95 86.66 46.39 83.78 70.76 C 78.59 73.47 72.27 74.49 68.82 79.81 C 68.12 79.87 66.74 79.98 66.04 80.03 C 69.29 74.17 76.35 72.38 80.15 67.11 Z" />
</g>
<g id="#dcb35bff">
<path fill="#dcb35b" opacity="1.00" d=" M 132.27 25.09 C 135.02 24.35 134.93 25.69 133.74 27.70 C 131.50 30.77 136.01 29.32 137.21 30.97 C 133.09 36.11 136.96 41.32 142.82 43.03 C 148.50 43.21 151.25 50.66 157.20 48.79 C 160.44 54.09 165.32 58.94 165.33 65.62 C 165.86 68.34 165.25 72.31 168.41 73.54 C 176.78 76.81 185.73 84.04 185.03 94.03 C 186.05 104.11 179.02 113.96 169.99 117.97 C 162.85 119.96 166.32 129.12 161.27 133.23 L 160.22 133.13 C 162.10 128.71 164.92 124.38 163.71 119.30 C 175.37 116.00 183.54 104.90 184.01 92.98 C 181.93 86.02 177.45 78.20 170.04 76.03 C 168.64 76.01 167.24 76.02 165.83 76.06 L 165.00 76.05 L 165.22 75.27 C 165.36 66.60 162.15 56.65 155.24 50.92 C 155.32 57.79 151.03 48.16 148.21 46.90 C 145.59 45.82 142.86 45.09 140.26 43.95 C 135.25 41.30 132.90 37.31 134.70 31.88 C 134.75 29.69 128.42 34.22 130.30 30.15 C 131.71 27.05 128.88 28.45 127.03 28.89 C 125.99 29.08 124.95 29.30 123.92 29.56 C 108.87 34.33 95.78 45.45 88.77 59.60 C 85.74 63.46 85.06 68.39 84.75 73.15 C 73.22 74.15 64.29 85.75 64.99 96.98 C 67.33 105.53 73.55 112.88 81.78 116.34 C 83.79 117.34 85.83 118.32 87.95 119.08 C 88.32 120.68 88.68 122.29 89.07 123.89 C 89.75 126.93 91.52 129.53 93.03 132.20 C 93.28 132.67 93.78 133.60 94.03 134.07 C 87.70 132.55 88.81 124.02 85.02 119.97 C 79.80 116.85 73.88 114.81 70.05 109.77 C 62.13 101.78 62.11 88.63 68.82 79.81 C 72.27 74.49 78.59 73.47 83.78 70.76 C 86.66 46.39 110.23 30.95 132.27 25.09 Z" />
</g>
<g id="#262217ff">
<path fill="#262217" opacity="1.00" d=" M 127.03 28.89 C 128.88 28.45 131.71 27.05 130.30 30.15 C 128.42 34.22 134.75 29.69 134.70 31.88 C 132.90 37.31 135.25 41.30 140.26 43.95 C 136.48 46.56 133.24 41.93 130.49 39.92 C 134.26 33.18 130.45 33.86 126.00 35.00 C 126.22 32.94 126.67 30.92 127.03 28.89 Z" />
</g>
<g id="#483f47ff">
<path fill="#483f47" opacity="1.00" d=" M 123.92 29.56 C 124.95 29.30 125.99 29.08 127.03 28.89 C 126.67 30.92 126.22 32.94 126.00 35.00 C 130.45 33.86 134.26 33.18 130.49 39.92 C 130.15 36.53 127.49 35.34 124.39 35.76 C 121.37 35.51 118.56 36.17 115.94 37.72 C 112.33 39.56 109.02 41.91 105.73 44.24 C 108.28 37.80 115.71 35.37 121.55 32.46 C 122.63 31.64 125.93 31.23 123.92 29.56 Z" />
</g>
<g id="#3a4d79ff">
<path fill="#3a4d79" opacity="1.00" d=" M 166.01 29.06 C 185.84 36.85 201.55 52.10 213.93 69.07 C 214.23 69.52 214.81 70.42 215.10 70.87 C 216.08 73.41 217.03 76.02 219.02 77.96 C 219.30 79.64 219.62 81.31 220.02 82.96 C 218.20 81.36 216.93 78.74 214.17 78.80 C 204.17 77.69 194.54 74.70 184.84 72.17 C 176.51 68.89 170.91 61.55 173.67 52.26 C 169.26 48.71 165.13 44.18 162.96 39.04 C 164.41 35.90 168.48 33.03 166.01 29.06 Z" />
</g>
<g id="#27221aff">
<path fill="#27221a" opacity="1.00" d=" M 88.77 59.60 C 95.78 45.45 108.87 34.33 123.92 29.56 C 125.93 31.23 122.63 31.64 121.55 32.46 C 115.71 35.37 108.28 37.80 105.73 44.24 C 102.33 47.85 98.43 50.96 95.43 54.94 C 92.49 53.02 92.02 59.48 90.15 61.15 C 89.81 60.76 89.11 59.99 88.77 59.60 Z" />
</g>
<g id="#237cb2ff">
<path fill="#237cb2" opacity="1.00" d=" M 77.86 31.95 C 81.31 32.21 87.20 29.01 87.42 34.60 C 87.03 44.11 77.19 50.72 77.19 60.26 C 76.59 61.61 76.11 63.07 75.17 64.24 C 66.65 67.25 66.51 54.31 61.68 50.32 C 63.25 46.67 64.01 42.39 58.70 44.72 C 64.13 39.20 70.92 35.26 77.86 31.95 Z" />
</g>
<g id="#ef67ecff">
<path fill="#ef67ec" opacity="1.00" d=" M 137.21 30.97 C 139.84 40.79 150.91 42.27 157.20 48.79 C 151.25 50.66 148.50 43.21 142.82 43.03 C 136.96 41.32 133.09 36.11 137.21 30.97 Z" />
</g>
<g id="#e1a841ff">
<path fill="#e1a841" opacity="1.00" d=" M 198.88 30.99 C 236.34 57.04 252.15 107.96 242.78 151.90 C 236.07 175.81 224.07 200.03 203.86 214.99 C 213.06 205.06 222.55 194.71 228.26 182.11 C 231.05 177.30 233.09 172.12 235.01 166.91 C 248.07 135.94 245.67 99.13 229.16 69.88 C 226.46 65.07 223.45 60.43 220.14 56.01 C 219.16 54.30 218.27 52.53 217.21 50.86 C 212.70 42.85 204.29 38.04 198.88 30.99 Z" />
</g>
<g id="#241f25ff">
<path fill="#241f25" opacity="1.00" d=" M 115.94 37.72 C 118.56 36.17 121.37 35.51 124.39 35.76 C 123.47 37.45 124.03 41.35 121.30 40.93 C 121.62 35.95 118.39 40.34 116.16 41.31 C 116.67 39.82 119.13 37.27 115.94 37.72 Z" />
</g>
<g id="#060605ff">
<path fill="#060605" opacity="1.00" d=" M 124.39 35.76 C 127.49 35.34 130.15 36.53 130.49 39.92 C 133.24 41.93 136.48 46.56 140.26 43.95 C 142.86 45.09 145.59 45.82 148.21 46.90 C 144.68 57.94 164.65 58.51 161.43 70.34 C 160.83 70.03 159.63 69.42 159.03 69.11 C 158.30 67.78 158.17 65.97 156.91 65.02 C 156.46 64.70 155.56 64.06 155.11 63.73 C 154.05 62.66 152.50 62.60 151.10 62.84 C 148.32 62.31 145.49 61.61 142.80 62.73 C 141.43 62.57 139.95 62.71 138.96 63.78 C 137.00 64.94 135.00 66.03 133.02 67.15 C 130.93 67.09 128.91 67.73 126.99 68.48 C 124.55 67.13 122.20 65.62 119.89 64.07 C 119.14 62.68 117.51 62.52 116.12 62.77 C 111.48 62.55 105.71 60.20 101.84 63.87 C 101.46 64.40 98.90 65.81 100.95 65.90 C 100.71 66.40 100.24 67.41 100.00 67.91 C 98.39 68.79 96.75 69.68 95.50 71.05 C 94.58 71.85 95.69 73.25 95.64 74.27 C 93.50 74.45 91.37 74.77 89.23 74.82 C 87.73 74.28 86.23 73.74 84.75 73.15 C 85.06 68.39 85.74 63.46 88.77 59.60 C 89.11 59.99 89.81 60.76 90.15 61.15 C 88.65 65.77 87.14 75.71 93.62 69.80 C 90.14 64.44 95.36 60.36 95.43 54.94 C 98.43 50.96 102.33 47.85 105.73 44.24 C 109.02 41.91 112.33 39.56 115.94 37.72 C 119.13 37.27 116.67 39.82 116.16 41.31 C 118.39 40.34 121.62 35.95 121.30 40.93 C 124.03 41.35 123.47 37.45 124.39 35.76 Z" />
</g>
<g id="#e2a83eff">
<path fill="#e2a83e" opacity="1.00" d=" M 10.82 86.89 C 17.12 69.89 25.97 52.66 40.16 40.98 C 38.68 44.38 35.77 46.84 33.98 50.06 C 30.96 53.77 28.36 57.80 25.92 61.92 C 4.26 93.48 0.40 136.57 16.75 171.25 C 18.69 175.56 20.37 180.01 22.80 184.09 C 29.22 198.51 41.41 208.98 52.00 220.12 C 11.22 191.32 -5.54 133.79 10.82 86.89 Z" />
</g>
<g id="#dfa924ff">
<path fill="#dfa924" opacity="1.00" d=" M 193.92 40.89 C 200.30 43.98 204.35 50.67 209.78 55.19 C 213.57 60.56 217.32 65.95 220.94 71.44 C 233.96 94.82 238.23 123.05 232.29 149.16 C 231.98 147.66 231.60 146.17 231.20 144.70 C 238.51 106.34 222.75 66.53 193.92 40.89 Z" />
</g>
<g id="#dfa823ff">
<path fill="#dfa823" opacity="1.00" d=" M 34.16 63.81 C 40.14 55.73 46.45 47.01 55.10 41.84 C 52.46 46.91 44.54 49.62 44.75 55.46 C 44.88 55.92 45.13 56.83 45.26 57.28 C 43.34 60.02 41.39 62.75 39.15 65.24 C 36.81 65.59 35.96 67.90 36.12 70.01 C 34.12 73.72 31.89 77.30 29.84 80.98 C 28.26 82.21 27.49 84.15 28.24 86.09 C 27.22 89.05 26.06 91.96 25.09 94.94 C 24.27 97.55 23.60 100.19 22.78 102.80 C 22.47 103.81 22.17 104.83 21.88 105.86 L 20.93 106.08 C 20.60 102.64 24.66 93.58 21.79 94.83 C 6.41 141.08 29.31 195.78 72.01 218.96 C 109.33 240.75 159.59 236.68 192.86 208.94 C 193.16 209.25 193.76 209.88 194.06 210.19 C 185.38 217.29 175.74 223.20 165.15 226.87 C 139.85 237.12 110.26 237.54 84.93 227.02 C 64.38 219.56 47.38 204.46 34.38 187.12 C 29.86 180.48 26.22 173.29 23.11 165.91 C 9.64 132.87 13.26 93.00 34.16 63.81 Z" />
</g>
<g id="#298fc2ff">
<path fill="#298fc2" opacity="1.00" d=" M 58.70 44.72 C 64.01 42.39 63.25 46.67 61.68 50.32 C 66.51 54.31 66.65 67.25 75.17 64.24 C 71.34 67.74 66.16 69.88 63.82 74.84 C 63.63 75.12 63.24 75.66 63.04 75.94 C 62.07 76.31 61.09 76.69 60.13 77.08 C 54.78 74.27 48.77 73.39 42.75 74.13 C 46.28 76.94 54.41 77.68 52.95 83.81 C 45.93 87.11 38.00 88.83 31.72 93.75 C 29.50 94.10 27.29 94.49 25.09 94.94 C 26.06 91.96 27.22 89.05 28.24 86.09 C 29.67 84.77 30.46 82.91 29.84 80.98 C 31.89 77.30 34.12 73.72 36.12 70.01 C 38.05 69.16 38.82 67.18 39.15 65.24 C 41.39 62.75 43.34 60.02 45.26 57.28 C 49.56 52.92 53.68 48.29 58.70 44.72 Z" />
</g>
<g id="#332e2aff">
<path fill="#332e2a" opacity="1.00" d=" M 148.21 46.90 C 151.03 48.16 155.32 57.79 155.24 50.92 C 162.15 56.65 165.36 66.60 165.22 75.27 C 162.21 74.88 159.25 74.31 156.23 74.20 C 152.74 74.06 149.27 73.88 145.79 73.84 C 150.43 72.14 157.24 74.40 160.96 71.98 C 161.08 71.57 161.32 70.75 161.43 70.34 C 164.65 58.51 144.68 57.94 148.21 46.90 Z" />
</g>
<g id="#ea5aefff">
<path fill="#ea5aef" opacity="1.00" d=" M 157.20 48.79 C 165.25 52.38 166.67 62.08 169.77 69.26 C 178.07 76.03 187.28 84.18 187.55 95.68 C 186.39 102.32 184.25 108.81 180.12 114.21 C 170.74 120.41 163.01 130.14 162.93 141.86 C 160.29 141.89 157.65 141.93 155.01 141.99 C 156.16 138.34 158.12 135.39 161.27 133.23 C 166.32 129.12 162.85 119.96 169.99 117.97 C 179.02 113.96 186.05 104.11 185.03 94.03 C 185.73 84.04 176.78 76.81 168.41 73.54 C 165.25 72.31 165.86 68.34 165.33 65.62 C 165.32 58.94 160.44 54.09 157.20 48.79 Z" />
</g>
<g id="#fdf05aff">
<path fill="#fdf05a" opacity="1.00" d=" M 209.78 55.19 C 212.34 50.63 216.80 54.79 220.14 56.01 C 223.45 60.43 226.46 65.07 229.16 69.88 C 226.40 66.52 220.22 65.50 220.94 71.44 C 217.32 65.95 213.57 60.56 209.78 55.19 Z" />
</g>
<g id="#473e4aff">
<path fill="#473e4a" opacity="1.00" d=" M 90.15 61.15 C 92.02 59.48 92.49 53.02 95.43 54.94 C 95.36 60.36 90.14 64.44 93.62 69.80 C 87.14 75.71 88.65 65.77 90.15 61.15 Z" />
</g>
<g id="#fbfb73ff">
<path fill="#fbfb73" opacity="1.00" d=" M 25.92 61.92 C 29.04 60.13 33.37 59.11 34.16 63.81 C 13.26 93.00 9.64 132.87 23.11 165.91 C 25.93 173.19 20.94 172.25 16.75 171.25 C 0.40 136.57 4.26 93.48 25.92 61.92 Z" />
</g>
<g id="#646464ff">
<path fill="#646464" opacity="1.00" d=" M 101.84 63.87 C 105.71 60.20 111.48 62.55 116.12 62.77 C 115.63 62.80 114.64 62.85 114.15 62.88 C 110.02 62.91 105.91 63.14 101.84 63.87 Z" />
</g>
<g id="#5e5e5eff">
<path fill="#5e5e5e" opacity="1.00" d=" M 142.80 62.73 C 145.49 61.61 148.32 62.31 151.10 62.84 C 148.33 62.79 145.56 62.76 142.80 62.73 Z" />
<path fill="#5e5e5e" opacity="1.00" d=" M 138.96 63.78 C 139.95 62.71 141.43 62.57 142.80 62.73 C 142.28 63.15 141.24 63.98 140.72 64.40 C 140.28 64.24 139.40 63.94 138.96 63.78 Z" />
<path fill="#5e5e5e" opacity="1.00" d=" M 156.91 65.02 C 158.17 65.97 158.30 67.78 159.03 69.11 C 156.20 68.74 153.57 67.17 156.91 65.02 Z" />
</g>
<g id="#c8c8c8ff">
<path fill="#c8c8c8" opacity="1.00" d=" M 101.84 63.87 C 105.91 63.14 110.02 62.91 114.15 62.88 C 111.93 65.56 110.24 68.62 108.85 71.80 C 104.46 71.47 99.64 73.11 95.50 71.05 C 96.75 69.68 98.39 68.79 100.00 67.91 C 102.63 69.42 104.54 65.61 100.95 65.90 C 98.90 65.81 101.46 64.40 101.84 63.87 Z" />
</g>
<g id="#f6f6f6ff">
<path fill="#f6f6f6" opacity="1.00" d=" M 114.15 62.88 C 114.64 62.85 115.63 62.80 116.12 62.77 C 116.56 64.47 118.53 64.44 119.89 64.07 C 122.20 65.62 124.55 67.13 126.99 68.48 C 129.18 70.12 132.34 69.80 133.02 67.15 C 135.00 66.03 137.00 64.94 138.96 63.78 C 139.40 63.94 140.28 64.24 140.72 64.40 C 144.28 65.16 147.76 67.85 147.12 71.88 C 144.16 72.01 141.29 72.85 138.67 74.21 C 137.41 74.75 136.05 75.38 135.95 76.95 L 135.66 77.75 C 134.19 78.24 132.73 78.77 131.25 79.25 C 128.09 79.23 124.96 79.20 121.81 79.13 C 120.57 78.75 119.39 78.21 118.18 77.75 C 111.05 74.98 103.03 75.94 95.64 74.27 C 101.50 74.10 107.36 74.06 113.23 73.88 C 112.27 72.29 110.59 71.88 108.85 71.80 C 110.24 68.62 111.93 65.56 114.15 62.88 Z" />
</g>
<g id="#5e5f5eff">
<path fill="#5e5f5e" opacity="1.00" d=" M 116.12 62.77 C 117.51 62.52 119.14 62.68 119.89 64.07 C 118.53 64.44 116.56 64.47 116.12 62.77 Z" />
</g>
<g id="#cacacaff">
<path fill="#cacaca" opacity="1.00" d=" M 142.80 62.73 C 145.56 62.76 148.33 62.79 151.10 62.84 C 151.64 64.63 153.78 64.37 155.11 63.73 C 155.56 64.06 156.46 64.70 156.91 65.02 C 153.57 67.17 156.20 68.74 159.03 69.11 C 159.63 69.42 160.83 70.03 161.43 70.34 C 161.32 70.75 161.08 71.57 160.96 71.98 C 156.34 72.00 151.73 72.00 147.12 71.88 C 147.76 67.85 144.28 65.16 140.72 64.40 C 141.24 63.98 142.28 63.15 142.80 62.73 Z" />
</g>
<g id="#595959ff">
<path fill="#595959" opacity="1.00" d=" M 151.10 62.84 C 152.50 62.60 154.05 62.66 155.11 63.73 C 153.78 64.37 151.64 64.63 151.10 62.84 Z" />
</g>
<g id="#8a7d48ff">
<path fill="#8a7d48" opacity="1.00" d=" M 36.12 70.01 C 35.96 67.90 36.81 65.59 39.15 65.24 C 38.82 67.18 38.05 69.16 36.12 70.01 Z" />
</g>
<g id="#a791fdff">
<path fill="#a791fd" opacity="1.00" d=" M 76.32 68.26 C 77.72 67.37 78.95 66.26 80.08 65.05 C 80.09 65.57 80.13 66.60 80.15 67.11 C 76.35 72.38 69.29 74.17 66.04 80.03 C 57.51 88.86 59.56 102.60 67.61 111.09 C 71.23 115.27 75.78 118.45 80.12 121.81 C 79.59 121.86 78.52 121.97 77.99 122.03 L 77.09 121.92 C 68.10 117.00 62.82 108.40 58.34 99.58 C 56.50 86.44 65.47 74.61 76.32 68.26 Z" />
</g>
<g id="#5f5f5fff">
<path fill="#5f5f5f" opacity="1.00" d=" M 100.95 65.90 C 104.54 65.61 102.63 69.42 100.00 67.91 C 100.24 67.41 100.71 66.40 100.95 65.90 Z" />
</g>
<g id="#6f91ecff">
<path fill="#6f91ec" opacity="1.00" d=" M 63.82 74.84 C 67.83 72.16 71.56 68.97 76.06 67.14 L 76.32 68.26 C 65.47 74.61 56.50 86.44 58.34 99.58 C 62.82 108.40 68.10 117.00 77.09 121.92 C 76.60 121.89 75.60 121.82 75.10 121.79 C 73.89 121.12 72.66 120.48 71.41 119.87 C 63.49 115.81 60.50 107.68 56.08 100.69 C 56.19 91.81 58.97 83.68 63.04 75.94 C 63.24 75.66 63.63 75.12 63.82 74.84 Z" />
</g>
<g id="#585858ff">
<path fill="#585858" opacity="1.00" d=" M 126.99 68.48 C 128.91 67.73 130.93 67.09 133.02 67.15 C 132.34 69.80 129.18 70.12 126.99 68.48 Z" />
</g>
<g id="#fbfc7aff">
<path fill="#fbfc7a" opacity="1.00" d=" M 220.94 71.44 C 220.22 65.50 226.40 66.52 229.16 69.88 C 245.67 99.13 248.07 135.94 235.01 166.91 C 232.79 169.79 227.42 172.07 226.58 166.88 C 229.29 161.26 230.18 155.00 232.29 149.16 C 238.23 123.05 233.96 94.82 220.94 71.44 Z" />
</g>
<g id="#5c5c5cff">
<path fill="#5c5c5c" opacity="1.00" d=" M 95.64 74.27 C 95.69 73.25 94.58 71.85 95.50 71.05 C 99.64 73.11 104.46 71.47 108.85 71.80 C 110.59 71.88 112.27 72.29 113.23 73.88 C 107.36 74.06 101.50 74.10 95.64 74.27 Z" />
</g>
<g id="#9f712dff">
<path fill="#9f712d" opacity="1.00" d=" M 215.10 70.87 C 216.73 73.05 217.90 75.50 219.02 77.96 C 217.03 76.02 216.08 73.41 215.10 70.87 Z" />
</g>
<g id="#6b6b6bff">
<path fill="#6b6b6b" opacity="1.00" d=" M 138.67 74.21 C 141.29 72.85 144.16 72.01 147.12 71.88 C 151.73 72.00 156.34 72.00 160.96 71.98 C 157.24 74.40 150.43 72.14 145.79 73.84 C 143.43 74.28 141.00 75.40 138.67 74.21 Z" />
</g>
<g id="#385293ff">
<path fill="#385293" opacity="1.00" d=" M 184.84 72.17 C 194.54 74.70 204.17 77.69 214.17 78.80 C 216.93 78.74 218.20 81.36 220.02 82.96 C 220.69 83.63 221.38 84.28 222.08 84.92 C 223.64 91.57 225.76 98.10 227.26 104.78 C 229.57 111.38 224.73 116.65 225.93 122.93 C 218.75 125.84 210.92 125.29 203.55 123.56 C 196.10 123.68 193.66 115.73 187.76 112.81 L 188.20 112.03 L 188.90 111.82 C 196.56 116.06 205.73 120.22 213.90 114.68 C 213.75 111.27 210.08 107.14 213.29 104.28 C 216.05 100.86 219.47 92.85 213.13 91.87 C 206.06 89.32 197.46 91.12 191.07 87.03 L 190.91 86.18 C 190.70 80.89 187.90 76.30 184.84 72.17 Z" />
</g>
<g id="#1a180fff">
<path fill="#1a180f" opacity="1.00" d=" M 64.99 96.98 C 64.29 85.75 73.22 74.15 84.75 73.15 C 86.23 73.74 87.73 74.28 89.23 74.82 C 85.87 74.41 83.31 75.45 82.95 79.04 C 77.10 81.29 70.83 83.98 67.86 89.89 C 66.69 92.47 66.48 95.63 67.80 98.17 C 69.80 104.71 75.45 108.74 81.14 111.96 C 83.78 113.23 87.07 117.06 81.78 116.34 C 73.55 112.88 67.33 105.53 64.99 96.98 Z" />
</g>
<g id="#24a7d4ff">
<path fill="#24a7d4" opacity="1.00" d=" M 42.75 74.13 C 48.77 73.39 54.78 74.27 60.13 77.08 C 54.63 83.46 57.05 92.44 52.73 98.95 C 45.10 100.06 39.31 94.16 31.72 93.75 C 38.00 88.83 45.93 87.11 52.95 83.81 C 54.41 77.68 46.28 76.94 42.75 74.13 Z" />
</g>
<g id="#67596eff">
<path fill="#67596e" opacity="1.00" d=" M 89.23 74.82 C 91.37 74.77 93.50 74.45 95.64 74.27 C 103.03 75.94 111.05 74.98 118.18 77.75 C 117.10 77.97 116.01 78.19 114.93 78.43 C 113.63 78.28 112.32 78.13 111.02 78.07 C 109.26 78.05 105.76 78.02 104.00 78.00 C 102.29 77.96 100.58 77.91 98.87 77.85 L 97.81 77.80 C 100.09 76.71 106.34 74.44 96.05 75.98 C 92.38 76.07 86.89 75.11 84.42 78.82 C 84.05 78.87 83.32 78.99 82.95 79.04 C 83.31 75.45 85.87 74.41 89.23 74.82 Z" />
</g>
<g id="#d4d3d4ff">
<path fill="#d4d3d4" opacity="1.00" d=" M 135.95 76.95 C 136.05 75.38 137.41 74.75 138.67 74.21 C 141.00 75.40 143.43 74.28 145.79 73.84 C 149.27 73.88 152.74 74.06 156.23 74.20 C 152.74 74.70 149.25 75.21 145.77 75.72 C 142.48 76.05 139.22 76.45 135.95 76.95 Z" />
</g>
<g id="#7a7a79ff">
<path fill="#7a7a79" opacity="1.00" d=" M 156.23 74.20 C 159.25 74.31 162.21 74.88 165.22 75.27 L 165.00 76.05 C 160.91 76.10 156.82 76.17 152.74 76.24 C 150.99 76.11 147.51 75.85 145.77 75.72 C 149.25 75.21 152.74 74.70 156.23 74.20 Z" />
</g>
<g id="#47acdcff">
<path fill="#47acdc" opacity="1.00" d=" M 60.13 77.08 C 61.09 76.69 62.07 76.31 63.04 75.94 C 58.97 83.68 56.19 91.81 56.08 100.69 C 45.91 103.85 35.60 106.67 25.01 107.95 C 21.77 109.05 23.30 104.62 22.78 102.80 C 23.60 100.19 24.27 97.55 25.09 94.94 C 27.29 94.49 29.50 94.10 31.72 93.75 C 39.31 94.16 45.10 100.06 52.73 98.95 C 57.05 92.44 54.63 83.46 60.13 77.08 Z" />
</g>
<g id="#0f1218ff">
<path fill="#0f1218" opacity="1.00" d=" M 84.42 78.82 C 86.89 75.11 92.38 76.07 96.05 75.98 C 106.34 74.44 100.09 76.71 97.81 77.80 C 97.12 77.89 95.75 78.07 95.06 78.16 C 92.63 78.69 90.47 80.33 89.69 82.76 C 89.16 83.91 88.68 85.07 88.18 86.24 C 86.80 83.83 85.35 81.45 84.42 78.82 Z" />
</g>
<g id="#60590cff">
<path fill="#60590c" opacity="1.00" d=" M 135.95 76.95 C 139.22 76.45 142.48 76.05 145.77 75.72 C 147.51 75.85 150.99 76.11 152.74 76.24 C 154.14 76.86 155.54 77.47 156.99 78.00 C 157.00 85.70 157.00 93.39 157.09 101.09 C 156.86 101.41 156.40 102.04 156.17 102.36 C 151.89 103.15 147.51 102.95 143.18 103.08 C 136.69 101.72 133.22 95.98 131.29 90.08 C 131.66 87.64 131.70 85.11 132.67 82.82 C 132.92 88.77 133.59 95.80 138.99 99.48 C 140.82 101.28 143.50 101.88 145.99 102.04 C 147.47 102.03 150.43 102.00 151.91 101.99 C 151.98 94.03 152.36 86.05 151.89 78.11 C 150.21 77.91 148.53 77.86 146.85 77.88 C 144.19 77.95 141.55 78.04 138.93 78.42 C 138.48 78.48 137.59 78.59 137.14 78.65 C 136.77 78.43 136.03 77.98 135.66 77.75 L 135.95 76.95 Z" />
</g>
<g id="#161612ff">
<path fill="#161612" opacity="1.00" d=" M 152.74 76.24 C 156.82 76.17 160.91 76.10 165.00 76.05 L 165.83 76.06 C 168.27 76.55 169.36 78.20 169.02 80.66 C 165.57 82.87 165.03 87.14 164.79 90.91 C 168.55 87.26 173.58 90.63 176.32 93.86 C 175.99 94.47 175.34 95.71 175.02 96.33 C 173.81 93.73 174.08 104.91 170.91 107.21 C 170.49 105.02 169.95 102.87 169.28 100.76 C 167.45 98.72 164.77 97.25 164.59 94.02 C 163.64 95.61 162.79 97.26 161.91 98.89 C 160.22 100.39 158.50 102.02 156.17 102.36 C 156.40 102.04 156.86 101.41 157.09 101.09 C 164.18 96.53 167.37 79.98 156.99 78.00 C 155.54 77.47 154.14 76.86 152.74 76.24 Z" />
</g>
<g id="#767674ff">
<path fill="#767674" opacity="1.00" d=" M 165.83 76.06 C 167.24 76.02 168.64 76.01 170.04 76.03 C 169.96 77.72 169.87 79.41 169.79 81.11 L 169.02 80.66 C 169.36 78.20 168.27 76.55 165.83 76.06 Z" />
</g>
<g id="#242217ff">
<path fill="#242217" opacity="1.00" d=" M 170.04 76.03 C 177.45 78.20 181.93 86.02 184.01 92.98 C 183.54 104.90 175.37 116.00 163.71 119.30 C 163.14 117.26 161.88 114.33 165.21 115.58 C 165.45 112.61 165.03 109.69 164.10 106.90 C 164.44 106.36 165.13 105.29 165.48 104.75 C 165.63 105.27 165.93 106.30 166.08 106.82 C 164.61 111.22 166.04 114.79 170.13 112.35 C 176.08 108.65 181.43 102.40 181.02 95.00 C 182.45 87.63 175.08 84.05 169.79 81.11 C 169.87 79.41 169.96 77.72 170.04 76.03 Z" />
</g>
<g id="#0e6cc3ff">
<path fill="#0e6cc3" opacity="1.00" d=" M 89.69 82.76 C 90.47 80.33 92.63 78.69 95.06 78.16 C 94.44 85.12 96.38 92.48 94.00 99.22 C 89.31 95.05 89.78 88.50 89.69 82.76 Z" />
</g>
<g id="#3f61bfff">
<path fill="#3f61bf" opacity="1.00" d=" M 95.06 78.16 C 95.75 78.07 97.12 77.89 97.81 77.80 L 98.87 77.85 C 99.05 85.86 98.88 93.88 99.13 101.88 C 97.33 101.24 95.41 100.57 94.00 99.22 C 96.38 92.48 94.44 85.12 95.06 78.16 Z" />
</g>
<g id="#6852b4ff">
<path fill="#6852b4" opacity="1.00" d=" M 98.87 77.85 C 100.58 77.91 102.29 77.96 104.00 78.00 C 103.99 86.01 104.00 94.02 104.01 102.03 C 103.30 102.13 101.88 102.33 101.18 102.43 C 100.66 102.29 99.64 102.02 99.13 101.88 C 98.88 93.88 99.05 85.86 98.87 77.85 Z" />
</g>
<g id="#953da7ff">
<path fill="#953da7" opacity="1.00" d=" M 104.00 78.00 C 105.76 78.02 109.26 78.05 111.02 78.07 C 110.98 85.76 110.99 93.45 111.10 101.14 C 108.77 101.66 106.40 101.96 104.01 102.03 C 104.00 94.02 103.99 86.01 104.00 78.00 Z" />
</g>
<g id="#bc1f92ff">
<path fill="#bc1f92" opacity="1.00" d=" M 111.02 78.07 C 112.32 78.13 113.63 78.28 114.93 78.43 C 120.30 79.85 122.19 86.11 119.80 90.81 C 118.12 94.97 115.68 99.80 111.10 101.14 C 110.99 93.45 110.98 85.76 111.02 78.07 Z" />
</g>
<g id="#1b1415ff">
<path fill="#1b1415" opacity="1.00" d=" M 114.93 78.43 C 116.01 78.19 117.10 77.97 118.18 77.75 C 119.39 78.21 120.57 78.75 121.81 79.13 C 124.88 80.03 128.23 80.55 131.25 79.25 C 132.73 78.77 134.19 78.24 135.66 77.75 C 136.03 77.98 136.77 78.43 137.14 78.65 C 135.58 79.96 133.99 81.26 132.67 82.82 C 131.70 85.11 131.66 87.64 131.29 90.08 C 130.35 87.82 129.54 84.90 127.02 83.96 C 122.64 84.85 122.06 89.67 120.66 93.12 C 120.44 92.54 120.02 91.39 119.80 90.81 C 122.19 86.11 120.30 79.85 114.93 78.43 Z" />
</g>
<g id="#a19500ff">
<path fill="#a19500" opacity="1.00" d=" M 138.93 78.42 C 141.55 78.04 144.19 77.95 146.85 77.88 C 145.48 85.86 146.06 93.99 145.99 102.04 C 143.50 101.88 140.82 101.28 138.99 99.48 C 142.05 93.07 142.42 84.74 138.93 78.42 Z" />
</g>
<g id="#857900ff">
<path fill="#857900" opacity="1.00" d=" M 146.85 77.88 C 148.53 77.86 150.21 77.91 151.89 78.11 C 152.36 86.05 151.98 94.03 151.91 101.99 C 150.43 102.00 147.47 102.03 145.99 102.04 C 146.06 93.99 145.48 85.86 146.85 77.88 Z" />
</g>
<g id="#454302ff">
<path fill="#454302" opacity="1.00" d=" M 156.99 78.00 C 167.37 79.98 164.18 96.53 157.09 101.09 C 157.00 93.39 157.00 85.70 156.99 78.00 Z" />
</g>
<g id="#9d6f2fff">
<path fill="#9d6f2f" opacity="1.00" d=" M 219.02 77.96 C 220.63 79.98 221.78 82.33 222.08 84.92 C 221.38 84.28 220.69 83.63 220.02 82.96 C 219.62 81.31 219.30 79.64 219.02 77.96 Z" />
</g>
<g id="#aba3aaff">
<path fill="#aba3aa" opacity="1.00" d=" M 67.86 89.89 C 70.83 83.98 77.10 81.29 82.95 79.04 C 83.32 78.99 84.05 78.87 84.42 78.82 C 85.35 81.45 86.80 83.83 88.18 86.24 C 88.21 87.88 88.26 91.16 88.29 92.80 C 87.07 94.71 85.81 96.65 85.92 99.02 C 85.87 99.45 85.78 100.32 85.73 100.75 C 83.50 104.30 86.68 112.64 81.14 111.96 C 75.45 108.74 69.80 104.71 67.80 98.17 C 67.79 95.41 67.81 92.65 67.86 89.89 M 72.88 91.37 C 69.64 91.46 74.09 103.28 73.68 95.20 C 74.25 95.18 75.38 95.14 75.94 95.12 C 76.08 98.94 75.13 103.90 78.95 106.16 C 78.96 104.36 78.99 100.75 79.00 98.95 C 82.22 98.51 85.17 95.76 83.73 92.29 C 82.57 86.93 75.02 86.58 72.88 91.37 Z" />
</g>
<g id="#929292ff">
<path fill="#929292" opacity="1.00" d=" M 121.81 79.13 C 124.96 79.20 128.09 79.23 131.25 79.25 C 128.23 80.55 124.88 80.03 121.81 79.13 Z" />
</g>
<g id="#bfb101ff">
<path fill="#bfb101" opacity="1.00" d=" M 132.67 82.82 C 133.99 81.26 135.58 79.96 137.14 78.65 C 137.59 78.59 138.48 78.48 138.93 78.42 C 142.42 84.74 142.05 93.07 138.99 99.48 C 133.59 95.80 132.92 88.77 132.67 82.82 Z" />
</g>
<g id="#ecabedff">
<path fill="#ecabed" opacity="1.00" d=" M 66.04 80.03 C 66.74 79.98 68.12 79.87 68.82 79.81 C 62.11 88.63 62.13 101.78 70.05 109.77 C 69.44 110.10 68.22 110.76 67.61 111.09 C 59.56 102.60 57.51 88.86 66.04 80.03 Z" />
</g>
<g id="#887749ff">
<path fill="#887749" opacity="1.00" d=" M 28.24 86.09 C 27.49 84.15 28.26 82.21 29.84 80.98 C 30.46 82.91 29.67 84.77 28.24 86.09 Z" />
</g>
<g id="#afa7aeff">
<path fill="#afa7ae" opacity="1.00" d=" M 164.79 90.91 C 165.03 87.14 165.57 82.87 169.02 80.66 L 169.79 81.11 C 175.08 84.05 182.45 87.63 181.02 95.00 C 181.43 102.40 176.08 108.65 170.13 112.35 C 166.81 112.56 166.32 109.76 166.08 106.82 C 165.93 106.30 165.63 105.27 165.48 104.75 C 165.07 103.39 164.59 102.04 163.82 100.85 C 163.20 100.17 162.57 99.52 161.91 98.89 C 162.79 97.26 163.64 95.61 164.59 94.02 C 164.77 97.25 167.45 98.72 169.28 100.76 C 169.16 103.07 167.67 110.23 170.91 107.21 C 174.08 104.91 173.81 93.73 175.02 96.33 C 176.74 101.88 179.66 96.82 176.32 93.86 C 173.58 90.63 168.55 87.26 164.79 90.91 Z" />
</g>
<g id="#1d3551ff">
<path fill="#1d3551" opacity="1.00" d=" M 88.18 86.24 C 88.68 85.07 89.16 83.91 89.69 82.76 C 89.78 88.50 89.31 95.05 94.00 99.22 C 95.41 100.57 97.33 101.24 99.13 101.88 C 99.64 102.02 100.66 102.29 101.18 102.43 C 100.18 102.68 99.19 102.94 98.20 103.20 C 93.23 101.67 89.89 97.62 88.29 92.80 C 88.26 91.16 88.21 87.88 88.18 86.24 Z" />
</g>
<g id="#a9a1a8ff">
<path fill="#a9a1a8" opacity="1.00" d=" M 120.66 93.12 C 122.06 89.67 122.64 84.85 127.02 83.96 C 129.54 84.90 130.35 87.82 131.29 90.08 C 133.22 95.98 136.69 101.72 143.18 103.08 L 142.89 103.83 C 142.62 104.08 142.08 104.58 141.81 104.83 C 139.98 106.39 138.37 108.20 136.91 110.10 L 136.13 110.23 C 130.99 110.15 125.87 109.94 120.74 110.25 C 118.06 109.90 115.45 109.15 112.93 108.17 C 112.15 107.16 111.41 106.12 110.70 105.06 C 113.64 103.74 118.26 102.50 118.39 98.75 C 119.12 96.87 119.99 95.03 120.66 93.12 M 121.21 96.10 C 117.70 99.07 122.09 100.99 125.04 101.00 C 125.48 98.72 123.76 95.73 121.21 96.10 M 131.18 96.21 C 128.87 97.26 127.57 102.56 131.36 100.47 C 135.32 100.94 133.83 96.49 131.18 96.21 Z" />
</g>
<g id="#a67733ff">
<path fill="#a67733" opacity="1.00" d=" M 222.08 84.92 C 232.01 104.13 232.81 127.92 227.78 148.84 C 227.21 150.28 226.63 151.70 226.03 153.13 C 226.17 151.43 226.29 149.73 226.50 148.04 C 226.79 147.09 227.06 146.15 227.31 145.20 C 228.44 141.49 228.82 137.65 228.87 133.80 C 228.63 124.15 230.53 114.11 227.26 104.78 C 225.76 98.10 223.64 91.57 222.08 84.92 Z" />
</g>
<g id="#2f63a9ff">
<path fill="#2f63a9" opacity="1.00" d=" M 191.07 87.03 C 197.46 91.12 206.06 89.32 213.13 91.87 C 219.47 92.85 216.05 100.86 213.29 104.28 C 210.08 107.14 213.75 111.27 213.90 114.68 C 205.73 120.22 196.56 116.06 188.90 111.82 C 195.84 108.93 189.48 97.00 191.75 91.12 C 191.56 89.75 191.29 88.40 191.07 87.03 Z" />
</g>
<g id="#0f0e0fff">
<path fill="#0f0e0f" opacity="1.00" d=" M 72.88 91.37 C 75.02 86.58 82.57 86.93 83.73 92.29 C 85.17 95.76 82.22 98.51 79.00 98.95 C 75.64 105.96 78.81 96.07 75.94 95.12 C 75.38 95.14 74.25 95.18 73.68 95.20 C 73.37 93.93 73.12 92.65 72.88 91.37 Z" />
</g>
<g id="#545054ff">
<path fill="#545054" opacity="1.00" d=" M 67.80 98.17 C 66.48 95.63 66.69 92.47 67.86 89.89 C 67.81 92.65 67.79 95.41 67.80 98.17 Z" />
</g>
<g id="#555155ff">
<path fill="#555155" opacity="1.00" d=" M 73.68 95.20 C 74.09 103.28 69.64 91.46 72.88 91.37 C 73.12 92.65 73.37 93.93 73.68 95.20 Z" />
</g>
<g id="#583657ff">
<path fill="#583657" opacity="1.00" d=" M 111.10 101.14 C 115.68 99.80 118.12 94.97 119.80 90.81 C 120.02 91.39 120.44 92.54 120.66 93.12 C 119.99 95.03 119.12 96.87 118.39 98.75 C 112.58 103.64 105.42 104.80 98.02 104.03 L 98.20 103.20 C 99.19 102.94 100.18 102.68 101.18 102.43 C 101.88 102.33 103.30 102.13 104.01 102.03 C 106.40 101.96 108.77 101.66 111.10 101.14 Z" />
</g>
<g id="#5f71d5ff">
<path fill="#5f71d5" opacity="1.00" d=" M 189.91 91.27 C 190.37 91.24 191.29 91.16 191.75 91.12 C 189.48 97.00 195.84 108.93 188.90 111.82 L 188.20 112.03 C 187.68 111.72 186.64 111.08 186.12 110.76 C 188.14 104.45 190.35 98.00 189.91 91.27 Z" />
</g>
<g id="#838383ff">
<path fill="#838383" opacity="1.00" d=" M 88.29 92.80 C 89.89 97.62 93.23 101.67 98.20 103.20 L 98.02 104.03 C 97.73 104.19 97.17 104.52 96.88 104.68 C 91.12 105.86 89.94 94.01 85.92 99.02 C 85.81 96.65 87.07 94.71 88.29 92.80 Z" />
</g>
<g id="#f4d845ff">
<path fill="#f4d845" opacity="1.00" d=" M 21.79 94.83 C 24.66 93.58 20.60 102.64 20.93 106.08 C 19.17 121.56 17.20 138.53 23.96 153.13 C 23.70 154.39 23.78 155.62 24.21 156.82 C 27.81 166.67 31.35 177.54 39.00 185.02 C 69.65 236.16 147.73 245.75 192.16 207.02 C 192.67 207.21 193.69 207.60 194.20 207.79 C 193.87 208.08 193.19 208.65 192.86 208.94 C 159.59 236.68 109.33 240.75 72.01 218.96 C 29.31 195.78 6.41 141.08 21.79 94.83 Z" />
</g>
<g id="#595458ff">
<path fill="#595458" opacity="1.00" d=" M 176.32 93.86 C 179.66 96.82 176.74 101.88 175.02 96.33 C 175.34 95.71 175.99 94.47 176.32 93.86 Z" />
</g>
<g id="#4c484bff">
<path fill="#4c484b" opacity="1.00" d=" M 75.94 95.12 C 78.81 96.07 75.64 105.96 79.00 98.95 C 78.99 100.75 78.96 104.36 78.95 106.16 C 75.13 103.90 76.08 98.94 75.94 95.12 Z" />
</g>
<g id="#292829ff">
<path fill="#292829" opacity="1.00" d=" M 121.21 96.10 C 123.76 95.73 125.48 98.72 125.04 101.00 C 122.09 100.99 117.70 99.07 121.21 96.10 Z" />
</g>
<g id="#2b2a2bff">
<path fill="#2b2a2b" opacity="1.00" d=" M 131.18 96.21 C 133.83 96.49 135.32 100.94 131.36 100.47 C 127.57 102.56 128.87 97.26 131.18 96.21 Z" />
</g>
<g id="#0d0c0fff">
<path fill="#0d0c0f" opacity="1.00" d=" M 85.92 99.02 C 89.94 94.01 91.12 105.86 96.88 104.68 C 97.64 104.76 99.16 104.93 99.92 105.01 C 100.25 105.66 102.04 106.16 101.19 107.04 C 94.87 115.17 98.30 127.03 105.69 133.10 C 105.72 126.18 110.09 135.18 112.00 136.98 C 107.51 140.26 103.59 136.06 100.09 133.79 C 98.42 132.00 96.93 130.06 95.89 127.85 C 95.51 125.26 93.46 125.44 91.37 125.74 C 91.12 124.15 90.84 122.53 89.07 123.89 C 88.68 122.29 88.32 120.68 87.95 119.08 C 87.29 116.77 88.62 111.75 84.87 112.40 C 84.99 108.50 85.92 104.66 85.73 100.75 C 85.78 100.32 85.87 99.45 85.92 99.02 Z" />
</g>
<g id="#c4c3c4ff">
<path fill="#c4c3c4" opacity="1.00" d=" M 98.02 104.03 C 105.42 104.80 112.58 103.64 118.39 98.75 C 118.26 102.50 113.64 103.74 110.70 105.06 C 109.39 105.21 108.08 105.40 106.77 105.61 L 105.88 105.72 C 104.92 105.58 103.95 105.45 102.98 105.33 C 102.21 105.25 100.69 105.09 99.92 105.01 C 99.16 104.93 97.64 104.76 96.88 104.68 C 97.17 104.52 97.73 104.19 98.02 104.03 Z" />
</g>
<g id="#7b7a72ff">
<path fill="#7b7a72" opacity="1.00" d=" M 156.17 102.36 C 158.50 102.02 160.22 100.39 161.91 98.89 C 162.57 99.52 163.20 100.17 163.82 100.85 C 161.33 102.25 159.03 104.15 156.14 104.66 C 151.72 104.29 147.31 104.00 142.89 103.83 L 143.18 103.08 C 147.51 102.95 151.89 103.15 156.17 102.36 Z" />
</g>
<g id="#4086beff">
<path fill="#4086be" opacity="1.00" d=" M 25.01 107.95 C 35.60 106.67 45.91 103.85 56.08 100.69 C 60.50 107.68 63.49 115.81 71.41 119.87 C 61.35 129.41 45.47 123.94 33.10 128.40 C 30.18 127.05 29.48 120.64 35.80 123.57 C 41.59 121.52 49.31 122.61 53.75 117.75 C 54.02 112.55 40.51 118.99 43.62 110.09 C 36.60 106.52 29.14 109.74 21.87 109.96 C 21.88 108.59 21.89 107.23 21.88 105.86 C 22.17 104.83 22.47 103.81 22.78 102.80 C 23.30 104.62 21.77 109.05 25.01 107.95 Z" />
</g>
<g id="#463f3cff">
<path fill="#463f3c" opacity="1.00" d=" M 81.14 111.96 C 86.68 112.64 83.50 104.30 85.73 100.75 C 85.92 104.66 84.99 108.50 84.87 112.40 C 88.62 111.75 87.29 116.77 87.95 119.08 C 85.83 118.32 83.79 117.34 81.78 116.34 C 87.07 117.06 83.78 113.23 81.14 111.96 Z" />
</g>
<g id="#0e0b10ff">
<path fill="#0e0b10" opacity="1.00" d=" M 156.14 104.66 C 159.03 104.15 161.33 102.25 163.82 100.85 C 164.59 102.04 165.07 103.39 165.48 104.75 C 165.13 105.29 164.44 106.36 164.10 106.90 C 162.69 108.22 163.70 110.09 163.72 111.72 C 153.88 110.52 166.24 130.59 156.33 127.34 C 155.52 128.70 154.84 130.13 154.17 131.56 C 153.08 133.08 152.02 134.62 151.09 136.24 C 148.79 136.10 146.57 135.47 144.68 134.12 C 147.08 131.55 150.76 123.00 150.22 131.20 C 155.38 126.14 157.79 117.12 154.58 110.38 C 153.93 108.43 150.68 105.84 154.24 105.12 C 154.71 105.00 155.66 104.77 156.14 104.66 Z" />
</g>
<g id="#736c72ff">
<path fill="#736c72" opacity="1.00" d=" M 169.28 100.76 C 169.95 102.87 170.49 105.02 170.91 107.21 C 167.67 110.23 169.16 103.07 169.28 100.76 Z" />
</g>
<g id="#d5d4d2ff">
<path fill="#d5d4d2" opacity="1.00" d=" M 141.81 104.83 C 142.08 104.58 142.62 104.08 142.89 103.83 C 147.31 104.00 151.72 104.29 156.14 104.66 C 155.66 104.77 154.71 105.00 154.24 105.12 C 150.09 105.04 145.95 104.94 141.81 104.83 Z" />
</g>
<g id="#523f5aff">
<path fill="#523f5a" opacity="1.00" d=" M 99.92 105.01 C 100.69 105.09 102.21 105.25 102.98 105.33 C 102.70 110.79 101.75 116.22 102.03 121.71 C 106.19 120.27 105.48 125.96 107.74 128.05 C 111.47 133.32 115.79 138.60 122.32 140.29 C 118.53 142.24 114.21 142.66 110.06 143.32 C 109.48 143.50 108.31 143.86 107.73 144.04 C 106.39 142.93 105.12 141.42 103.25 141.37 C 103.53 139.62 102.30 136.45 100.09 133.79 C 103.59 136.06 107.51 140.26 112.00 136.98 C 110.09 135.18 105.72 126.18 105.69 133.10 C 98.30 127.03 94.87 115.17 101.19 107.04 C 102.04 106.16 100.25 105.66 99.92 105.01 Z" />
</g>
<g id="#9c939bff">
<path fill="#9c939b" opacity="1.00" d=" M 102.98 105.33 C 103.95 105.45 104.92 105.58 105.88 105.72 C 109.67 109.89 109.34 115.68 109.00 120.97 C 108.79 122.73 106.19 124.93 108.97 125.75 C 108.66 126.33 108.05 127.48 107.74 128.05 C 105.48 125.96 106.19 120.27 102.03 121.71 C 101.75 116.22 102.70 110.79 102.98 105.33 Z" />
</g>
<g id="#4e4b4fff">
<path fill="#4e4b4f" opacity="1.00" d=" M 106.77 105.61 C 108.08 105.40 109.39 105.21 110.70 105.06 C 111.41 106.12 112.15 107.16 112.93 108.17 C 110.83 107.42 108.86 106.37 106.77 105.61 Z" />
</g>
<g id="#564c5aff">
<path fill="#564c5a" opacity="1.00" d=" M 136.91 110.10 C 138.37 108.20 139.98 106.39 141.81 104.83 C 145.95 104.94 150.09 105.04 154.24 105.12 C 150.68 105.84 153.93 108.43 154.58 110.38 C 157.79 117.12 155.38 126.14 150.22 131.20 C 150.76 123.00 147.08 131.55 144.68 134.12 C 141.92 135.76 139.24 137.92 135.86 137.98 C 138.44 135.40 141.82 133.45 143.55 130.13 C 144.48 128.47 145.78 126.82 145.51 124.79 C 146.08 119.00 152.06 110.55 145.86 106.21 C 143.22 108.21 140.31 109.93 136.91 110.10 Z" />
</g>
<g id="#474682ff">
<path fill="#474682" opacity="1.00" d=" M 227.26 104.78 C 230.53 114.11 228.63 124.15 228.87 133.80 C 228.60 135.13 228.05 137.79 227.78 139.12 C 221.79 137.01 215.79 134.79 209.32 134.90 C 208.86 124.22 195.09 129.70 188.39 125.55 C 184.73 122.89 180.15 123.11 175.88 123.85 C 176.56 122.84 177.22 121.81 177.88 120.78 C 181.23 118.20 184.74 115.79 187.76 112.81 C 193.66 115.73 196.10 123.68 203.55 123.56 C 210.92 125.29 218.75 125.84 225.93 122.93 C 224.73 116.65 229.57 111.38 227.26 104.78 Z" />
</g>
<g id="#aa833dff">
<path fill="#aa833d" opacity="1.00" d=" M 20.93 106.08 L 21.88 105.86 C 21.89 107.23 21.88 108.59 21.87 109.96 C 20.94 115.18 20.82 120.50 21.16 125.78 C 21.34 130.84 20.39 136.09 21.94 141.02 C 22.48 143.34 23.04 145.64 23.60 147.97 C 23.76 149.69 23.85 151.41 23.96 153.13 C 17.20 138.53 19.17 121.56 20.93 106.08 Z" />
</g>
<g id="#0f0b0fff">
<path fill="#0f0b0f" opacity="1.00" d=" M 105.88 105.72 L 106.77 105.61 C 108.86 106.37 110.83 107.42 112.93 108.17 C 115.45 109.15 118.06 109.90 120.74 110.25 C 125.81 111.25 131.06 111.28 136.13 110.23 L 136.91 110.10 C 140.31 109.93 143.22 108.21 145.86 106.21 C 152.06 110.55 146.08 119.00 145.51 124.79 C 144.09 125.58 142.68 126.36 141.25 127.10 L 141.33 126.17 C 142.68 120.26 134.49 120.38 131.04 122.67 C 127.23 119.32 121.69 122.65 121.04 127.21 C 118.14 128.51 114.92 126.90 111.88 127.04 C 110.90 126.61 109.93 126.18 108.97 125.75 C 106.19 124.93 108.79 122.73 109.00 120.97 C 109.34 115.68 109.67 109.89 105.88 105.72 M 113.86 112.67 C 115.37 114.21 117.28 115.23 119.37 115.76 C 118.88 117.61 122.04 117.83 122.96 116.77 C 123.16 118.88 132.61 118.86 132.03 116.72 C 132.93 117.74 136.02 117.75 135.79 115.95 C 137.48 115.61 138.87 114.47 140.32 113.59 C 143.77 111.88 133.23 110.72 134.26 113.12 C 131.38 112.99 128.50 113.02 125.62 113.23 L 124.70 113.13 C 124.13 110.80 119.90 111.51 118.17 112.38 C 117.17 111.62 116.08 111.06 114.89 110.70 C 113.18 107.54 110.21 113.09 113.86 112.67 Z" />
</g>
<g id="#44393fff">
<path fill="#44393f" opacity="1.00" d=" M 163.72 111.72 C 163.70 110.09 162.69 108.22 164.10 106.90 C 165.03 109.69 165.45 112.61 165.21 115.58 C 161.88 114.33 163.14 117.26 163.71 119.30 C 164.92 124.38 162.10 128.71 160.22 133.13 C 157.32 133.42 155.34 135.00 154.99 137.98 C 150.32 140.60 155.81 133.90 154.17 131.56 C 154.84 130.13 155.52 128.70 156.33 127.34 C 166.24 130.59 153.88 110.52 163.72 111.72 Z" />
</g>
<g id="#6f6a6fff">
<path fill="#6f6a6f" opacity="1.00" d=" M 166.08 106.82 C 166.32 109.76 166.81 112.56 170.13 112.35 C 166.04 114.79 164.61 111.22 166.08 106.82 Z" />
</g>
<g id="#3375b0ff">
<path fill="#3375b0" opacity="1.00" d=" M 21.87 109.96 C 29.14 109.74 36.60 106.52 43.62 110.09 C 40.51 118.99 54.02 112.55 53.75 117.75 C 49.31 122.61 41.59 121.52 35.80 123.57 C 29.48 120.64 30.18 127.05 33.10 128.40 C 29.80 131.37 26.59 134.83 22.23 136.19 C 21.96 133.58 21.43 128.38 21.16 125.78 C 20.82 120.50 20.94 115.18 21.87 109.96 Z" />
</g>
<g id="#ed6cefff">
<path fill="#ed6cef" opacity="1.00" d=" M 67.61 111.09 C 68.22 110.76 69.44 110.10 70.05 109.77 C 73.88 114.81 79.80 116.85 85.02 119.97 C 88.81 124.02 87.70 132.55 94.03 134.07 C 94.29 134.29 94.79 134.74 95.04 134.96 C 97.43 140.11 100.43 144.66 106.40 145.53 C 103.09 145.57 99.58 145.79 96.83 147.80 C 95.60 148.52 94.36 149.24 93.12 149.95 C 90.45 150.46 88.70 152.50 87.76 154.95 C 86.79 155.91 85.80 156.87 84.84 157.84 C 83.90 158.60 82.95 159.34 81.99 160.06 C 78.70 159.76 71.96 162.54 71.11 160.15 C 74.78 159.17 79.10 159.28 82.19 157.09 C 83.69 154.07 82.74 150.21 83.16 146.88 C 87.78 150.24 95.33 146.60 92.65 140.38 C 89.05 133.93 85.97 126.60 80.12 121.81 C 75.78 118.45 71.23 115.27 67.61 111.09 Z" />
</g>
<g id="#5f5e60ff">
<path fill="#5f5e60" opacity="1.00" d=" M 113.86 112.67 C 110.21 113.09 113.18 107.54 114.89 110.70 C 114.63 111.19 114.12 112.18 113.86 112.67 Z" />
</g>
<g id="#5f5d61ff">
<path fill="#5f5d61" opacity="1.00" d=" M 120.74 110.25 C 125.87 109.94 130.99 110.15 136.13 110.23 C 131.06 111.28 125.81 111.25 120.74 110.25 Z" />
<path fill="#5f5d61" opacity="1.00" d=" M 122.96 116.77 C 125.99 116.92 129.00 116.80 132.03 116.72 C 132.61 118.86 123.16 118.88 122.96 116.77 Z" />
</g>
<g id="#ebe8eaff">
<path fill="#ebe8ea" opacity="1.00" d=" M 113.86 112.67 C 114.12 112.18 114.63 111.19 114.89 110.70 C 116.08 111.06 117.17 111.62 118.17 112.38 C 120.27 113.02 122.44 113.27 124.70 113.13 L 125.62 113.23 C 128.83 113.83 132.21 114.54 135.32 113.19 C 136.99 113.12 138.68 113.19 140.32 113.59 C 138.87 114.47 137.48 115.61 135.79 115.95 C 134.48 115.81 133.13 115.94 132.03 116.72 C 129.00 116.80 125.99 116.92 122.96 116.77 C 121.93 115.98 120.64 115.77 119.37 115.76 C 117.28 115.23 115.37 114.21 113.86 112.67 Z" />
</g>
<g id="#a34bc8ff">
<path fill="#a34bc8" opacity="1.00" d=" M 180.12 114.21 C 181.89 113.20 183.65 112.18 185.45 111.23 C 178.04 119.12 163.33 127.03 167.11 139.86 C 176.42 147.27 190.16 143.79 200.94 147.91 C 203.31 149.59 205.73 151.22 208.14 152.86 C 206.69 152.94 205.24 153.02 203.79 153.11 C 203.34 153.08 202.42 153.02 201.96 152.98 C 199.30 151.11 196.37 149.59 193.21 148.75 C 186.54 146.00 175.74 152.03 171.89 143.97 C 169.12 142.57 165.96 142.27 162.93 141.86 C 163.01 130.14 170.74 120.41 180.12 114.21 Z" />
</g>
<g id="#754b9fff">
<path fill="#754b9f" opacity="1.00" d=" M 185.45 111.23 L 186.12 110.76 C 186.64 111.08 187.68 111.72 188.20 112.03 L 187.76 112.81 C 184.74 115.79 181.23 118.20 177.88 120.78 C 172.50 123.80 165.92 131.36 169.26 137.71 C 176.05 143.34 185.60 141.41 193.70 142.34 C 202.34 144.27 213.04 148.90 220.35 141.42 C 223.57 137.86 228.35 140.73 227.31 145.20 C 227.06 146.15 226.79 147.09 226.50 148.04 C 223.34 145.93 219.19 147.87 216.07 149.12 C 211.47 152.91 205.99 148.27 200.94 147.91 C 190.16 143.79 176.42 147.27 167.11 139.86 C 163.33 127.03 178.04 119.12 185.45 111.23 Z" />
</g>
<g id="#8f8d8fff">
<path fill="#8f8d8f" opacity="1.00" d=" M 118.17 112.38 C 119.90 111.51 124.13 110.80 124.70 113.13 C 122.44 113.27 120.27 113.02 118.17 112.38 Z" />
</g>
<g id="#757376ff">
<path fill="#757376" opacity="1.00" d=" M 134.26 113.12 C 133.23 110.72 143.77 111.88 140.32 113.59 C 138.68 113.19 136.99 113.12 135.32 113.19 L 134.26 113.12 Z" />
</g>
<g id="#a7a5a7ff">
<path fill="#a7a5a7" opacity="1.00" d=" M 125.62 113.23 C 128.50 113.02 131.38 112.99 134.26 113.12 L 135.32 113.19 C 132.21 114.54 128.83 113.83 125.62 113.23 Z" />
</g>
<g id="#666467ff">
<path fill="#666467" opacity="1.00" d=" M 119.37 115.76 C 120.64 115.77 121.93 115.98 122.96 116.77 C 122.04 117.83 118.88 117.61 119.37 115.76 Z" />
</g>
<g id="#747274ff">
<path fill="#747274" opacity="1.00" d=" M 132.03 116.72 C 133.13 115.94 134.48 115.81 135.79 115.95 C 136.02 117.75 132.93 117.74 132.03 116.72 Z" />
</g>
<g id="#5374aeff">
<path fill="#5374ae" opacity="1.00" d=" M 71.41 119.87 C 72.66 120.48 73.89 121.12 75.10 121.79 C 75.77 122.77 76.46 123.75 77.19 124.69 C 69.43 125.82 58.06 124.63 53.58 132.64 C 51.68 136.19 55.46 140.14 59.20 139.33 C 57.35 140.00 55.53 140.74 53.69 141.45 C 49.68 141.14 46.91 138.16 43.63 136.25 C 36.05 135.28 28.66 137.74 21.94 141.02 C 20.39 136.09 21.34 130.84 21.16 125.78 C 21.43 128.38 21.96 133.58 22.23 136.19 C 26.59 134.83 29.80 131.37 33.10 128.40 C 45.47 123.94 61.35 129.41 71.41 119.87 Z" />
</g>
<g id="#cf040cff">
<path fill="#cf040c" opacity="1.00" d=" M 121.04 127.21 C 121.69 122.65 127.23 119.32 131.04 122.67 C 134.49 120.38 142.68 120.26 141.33 126.17 C 134.58 126.78 127.81 126.98 121.04 127.21 Z" />
</g>
<g id="#614482ff">
<path fill="#614482" opacity="1.00" d=" M 169.26 137.71 C 165.92 131.36 172.50 123.80 177.88 120.78 C 177.22 121.81 176.56 122.84 175.88 123.85 C 172.23 126.27 169.86 131.18 171.65 135.29 C 180.36 141.59 192.07 137.69 202.06 139.93 C 205.54 140.64 207.96 137.68 209.32 134.90 C 215.79 134.79 221.79 137.01 227.78 139.12 C 228.05 137.79 228.60 135.13 228.87 133.80 C 228.82 137.65 228.44 141.49 227.31 145.20 C 228.35 140.73 223.57 137.86 220.35 141.42 C 213.04 148.90 202.34 144.27 193.70 142.34 C 185.60 141.41 176.05 143.34 169.26 137.71 Z" />
</g>
<g id="#7b5fb0ff">
<path fill="#7b5fb0" opacity="1.00" d=" M 75.10 121.79 C 75.60 121.82 76.60 121.89 77.09 121.92 L 77.99 122.03 C 83.28 125.83 86.00 131.68 88.57 137.44 C 92.37 143.86 84.09 142.29 81.24 143.27 C 73.31 141.38 65.09 141.85 57.14 143.37 C 55.97 142.76 54.83 142.10 53.69 141.45 C 55.53 140.74 57.35 140.00 59.20 139.33 C 67.08 138.01 75.01 137.10 83.00 136.82 C 84.43 131.86 81.83 126.61 77.19 124.69 C 76.46 123.75 75.77 122.77 75.10 121.79 Z" />
</g>
<g id="#b163d6ff">
<path fill="#b163d6" opacity="1.00" d=" M 77.99 122.03 C 78.52 121.97 79.59 121.86 80.12 121.81 C 85.97 126.60 89.05 133.93 92.65 140.38 C 95.33 146.60 87.78 150.24 83.16 146.88 C 82.66 146.70 81.66 146.34 81.16 146.16 C 75.03 145.86 68.91 146.24 62.82 146.87 C 63.15 146.37 63.79 145.37 64.12 144.87 C 69.80 144.13 75.54 143.95 81.24 143.27 C 84.09 142.29 92.37 143.86 88.57 137.44 C 86.00 131.68 83.28 125.83 77.99 122.03 Z" />
</g>
<g id="#3d3636ff">
<path fill="#3d3636" opacity="1.00" d=" M 89.07 123.89 C 90.84 122.53 91.12 124.15 91.37 125.74 C 93.46 125.44 95.51 125.26 95.89 127.85 C 94.94 129.30 93.99 130.76 93.03 132.20 C 91.52 129.53 89.75 126.93 89.07 123.89 Z" />
</g>
<g id="#493566ff">
<path fill="#493566" opacity="1.00" d=" M 175.88 123.85 C 180.15 123.11 184.73 122.89 188.39 125.55 C 195.09 129.70 208.86 124.22 209.32 134.90 C 207.96 137.68 205.54 140.64 202.06 139.93 C 192.07 137.69 180.36 141.59 171.65 135.29 C 169.86 131.18 172.23 126.27 175.88 123.85 Z" />
</g>
<g id="#535795ff">
<path fill="#535795" opacity="1.00" d=" M 53.58 132.64 C 58.06 124.63 69.43 125.82 77.19 124.69 C 81.83 126.61 84.43 131.86 83.00 136.82 C 75.01 137.10 67.08 138.01 59.20 139.33 C 55.46 140.14 51.68 136.19 53.58 132.64 Z" />
</g>
<g id="#8b838dff">
<path fill="#8b838d" opacity="1.00" d=" M 141.25 127.10 C 142.68 126.36 144.09 125.58 145.51 124.79 C 145.78 126.82 144.48 128.47 143.55 130.13 C 143.00 129.10 142.21 128.33 141.16 127.84 L 141.25 127.10 Z" />
</g>
<g id="#c4afc2ff">
<path fill="#c4afc2" opacity="1.00" d=" M 107.74 128.05 C 108.05 127.48 108.66 126.33 108.97 125.75 C 109.93 126.18 110.90 126.61 111.88 127.04 C 114.36 128.18 117.02 128.97 119.75 129.28 C 125.49 129.82 131.63 131.01 137.30 129.34 C 138.62 128.94 139.90 128.40 141.16 127.84 C 142.21 128.33 143.00 129.10 143.55 130.13 C 141.82 133.45 138.44 135.40 135.86 137.98 C 135.27 138.25 134.08 138.81 133.49 139.08 C 129.78 139.62 126.05 139.97 122.32 140.29 C 115.79 138.60 111.47 133.32 107.74 128.05 Z" />
</g>
<g id="#3b1c20ff">
<path fill="#3b1c20" opacity="1.00" d=" M 121.04 127.21 C 127.81 126.98 134.58 126.78 141.33 126.17 L 141.25 127.10 L 141.16 127.84 C 139.90 128.40 138.62 128.94 137.30 129.34 C 131.45 129.09 125.59 129.08 119.75 129.28 C 117.02 128.97 114.36 128.18 111.88 127.04 C 114.92 126.90 118.14 128.51 121.04 127.21 Z" />
</g>
<g id="#6d5c69ff">
<path fill="#6d5c69" opacity="1.00" d=" M 93.03 132.20 C 93.99 130.76 94.94 129.30 95.89 127.85 C 96.93 130.06 98.42 132.00 100.09 133.79 C 102.30 136.45 103.53 139.62 103.25 141.37 C 99.60 142.16 98.05 136.55 95.04 134.96 C 94.79 134.74 94.29 134.29 94.03 134.07 C 93.78 133.60 93.28 132.67 93.03 132.20 Z" />
</g>
<g id="#767277ff">
<path fill="#767277" opacity="1.00" d=" M 119.75 129.28 C 125.59 129.08 131.45 129.09 137.30 129.34 C 131.63 131.01 125.49 129.82 119.75 129.28 Z" />
</g>
<g id="#6e377aff">
<path fill="#6e377a" opacity="1.00" d=" M 151.09 136.24 C 152.02 134.62 153.08 133.08 154.17 131.56 C 155.81 133.90 150.32 140.60 154.99 137.98 C 154.60 139.41 153.80 140.65 152.94 141.83 C 151.30 142.43 150.00 143.60 148.86 144.89 C 144.18 147.78 145.37 143.25 140.90 144.26 C 140.74 143.91 140.41 143.22 140.24 142.87 L 139.90 142.12 C 144.19 141.73 149.76 141.23 151.09 136.24 Z" />
</g>
<g id="#e9b39cff">
<path fill="#e9b39c" opacity="1.00" d=" M 154.99 137.98 C 155.34 135.00 157.32 133.42 160.22 133.13 L 161.27 133.23 C 158.12 135.39 156.16 138.34 155.01 141.99 C 154.50 141.95 153.46 141.87 152.94 141.83 C 153.80 140.65 154.60 139.41 154.99 137.98 Z" />
</g>
<g id="#441f4fff">
<path fill="#441f4f" opacity="1.00" d=" M 135.86 137.98 C 139.24 137.92 141.92 135.76 144.68 134.12 C 146.57 135.47 148.79 136.10 151.09 136.24 C 149.76 141.23 144.19 141.73 139.90 142.12 C 139.48 142.04 138.64 141.89 138.22 141.81 C 136.50 141.16 134.35 140.94 133.49 139.08 C 134.08 138.81 135.27 138.25 135.86 137.98 Z" />
</g>
<g id="#f3c3b3ff">
<path fill="#f3c3b3" opacity="1.00" d=" M 95.04 134.96 C 98.05 136.55 99.60 142.16 103.25 141.37 C 105.12 141.42 106.39 142.93 107.73 144.04 C 109.20 146.25 111.45 147.29 114.09 147.27 C 115.44 148.84 116.81 150.41 118.20 151.95 C 111.53 148.54 104.40 147.18 96.83 147.80 C 99.58 145.79 103.09 145.57 106.40 145.53 C 100.43 144.66 97.43 140.11 95.04 134.96 Z" />
</g>
<g id="#717cbbff">
<path fill="#717cbb" opacity="1.00" d=" M 21.94 141.02 C 28.66 137.74 36.05 135.28 43.63 136.25 C 46.91 138.16 49.68 141.14 53.69 141.45 C 54.83 142.10 55.97 142.76 57.14 143.37 C 46.30 147.38 34.32 144.84 23.60 147.97 C 23.04 145.64 22.48 143.34 21.94 141.02 Z" />
</g>
<g id="#722f80ff">
<path fill="#722f80" opacity="1.00" d=" M 122.32 140.29 C 126.05 139.97 129.78 139.62 133.49 139.08 C 134.35 140.94 136.50 141.16 138.22 141.81 C 128.91 139.08 121.76 143.84 114.09 147.27 C 113.04 145.68 111.70 144.30 110.06 143.32 C 114.21 142.66 118.53 142.24 122.32 140.29 Z" />
</g>
<g id="#8a7cccff">
<path fill="#8a7ccc" opacity="1.00" d=" M 57.14 143.37 C 65.09 141.85 73.31 141.38 81.24 143.27 C 75.54 143.95 69.80 144.13 64.12 144.87 C 54.23 145.40 45.47 150.27 37.10 155.10 C 34.04 157.72 29.02 155.49 26.66 159.04 C 26.11 158.30 25.54 157.56 24.98 156.84 C 25.53 155.52 25.34 153.84 23.96 153.13 C 23.85 151.41 23.76 149.69 23.60 147.97 C 34.32 144.84 46.30 147.38 57.14 143.37 Z" />
</g>
<g id="#c354cdff">
<path fill="#c354cd" opacity="1.00" d=" M 114.09 147.27 C 121.76 143.84 128.91 139.08 138.22 141.81 C 138.64 141.89 139.48 142.04 139.90 142.12 L 140.24 142.87 C 135.23 143.50 129.63 141.68 124.90 143.81 C 124.60 144.01 124.00 144.40 123.70 144.60 L 123.04 145.08 C 121.20 148.44 122.20 153.22 121.51 157.18 C 120.69 155.27 119.77 153.35 118.20 151.95 C 116.81 150.41 115.44 148.84 114.09 147.27 Z" />
</g>
<g id="#e459ebff">
<path fill="#e459eb" opacity="1.00" d=" M 148.86 144.89 C 150.00 143.60 151.30 142.43 152.94 141.83 C 153.46 141.87 154.50 141.95 155.01 141.99 C 154.73 142.46 154.16 143.39 153.87 143.86 C 150.75 148.52 148.10 153.47 145.14 158.23 C 144.99 157.80 144.68 156.95 144.53 156.53 C 143.24 153.27 144.92 150.56 146.50 147.84 C 147.27 146.84 148.07 145.87 148.86 144.89 Z" />
</g>
<g id="#f9c6afff">
<path fill="#f9c6af" opacity="1.00" d=" M 155.01 141.99 C 157.65 141.93 160.29 141.89 162.93 141.86 C 165.96 142.27 169.12 142.57 171.89 143.97 C 171.35 146.05 170.82 148.13 170.30 150.22 C 171.82 141.07 159.65 143.59 153.75 144.73 L 153.87 143.86 C 154.16 143.39 154.73 142.46 155.01 141.99 Z" />
</g>
<g id="#a95cb9ff">
<path fill="#a95cb9" opacity="1.00" d=" M 107.73 144.04 C 108.31 143.86 109.48 143.50 110.06 143.32 C 111.70 144.30 113.04 145.68 114.09 147.27 C 111.45 147.29 109.20 146.25 107.73 144.04 Z" />
</g>
<g id="#f7c3c2ff">
<path fill="#f7c3c2" opacity="1.00" d=" M 124.90 143.81 C 129.63 141.68 135.23 143.50 140.24 142.87 C 140.41 143.22 140.74 143.91 140.90 144.26 C 141.78 147.71 142.90 151.89 146.50 147.84 C 144.92 150.56 143.24 153.27 144.53 156.53 C 139.51 154.04 142.88 143.73 136.24 144.14 C 132.45 144.08 128.68 143.98 124.90 143.81 Z" />
</g>
<g id="#facf66ff">
<path fill="#facf66" opacity="1.00" d=" M 123.70 144.60 C 124.00 144.40 124.60 144.01 124.90 143.81 C 128.68 143.98 132.45 144.08 136.24 144.14 C 133.71 144.42 128.65 144.98 126.12 145.26 C 125.87 153.17 125.97 161.08 125.99 168.99 C 126.31 171.57 124.33 176.30 128.03 176.09 L 127.89 176.89 C 126.61 177.35 125.34 177.83 124.08 178.33 C 123.94 167.08 124.20 155.83 123.70 144.60 Z" />
</g>
<g id="#ffe73aff">
<path fill="#ffe73a" opacity="1.00" d=" M 136.24 144.14 C 142.88 143.73 139.51 154.04 144.53 156.53 C 144.68 156.95 144.99 157.80 145.14 158.23 C 149.40 159.38 151.39 148.59 153.75 144.73 C 159.65 143.59 171.82 141.07 170.30 150.22 C 169.71 153.06 169.10 155.89 168.61 158.75 C 167.72 161.69 166.96 164.70 167.04 167.80 C 166.92 168.35 166.68 169.45 166.56 170.00 C 161.63 169.48 150.38 165.26 153.83 175.11 L 152.89 174.97 C 153.05 170.52 153.39 166.08 153.76 161.65 C 152.14 163.40 151.07 165.56 150.37 167.82 C 149.37 170.63 148.22 173.39 147.10 176.16 C 145.78 176.11 144.46 176.04 143.14 175.95 C 141.43 172.40 142.27 163.35 138.59 163.70 C 136.12 164.17 137.32 167.23 136.92 169.00 C 133.29 168.60 129.53 167.70 125.99 168.99 C 125.97 161.08 125.87 153.17 126.12 145.26 C 128.65 144.98 133.71 144.42 136.24 144.14 Z" />
</g>
<g id="#b04cbfff">
<path fill="#b04cbf" opacity="1.00" d=" M 140.90 144.26 C 145.37 143.25 144.18 147.78 148.86 144.89 C 148.07 145.87 147.27 146.84 146.50 147.84 C 142.90 151.89 141.78 147.71 140.90 144.26 Z" />
</g>
<g id="#f09283ff">
<path fill="#f09283" opacity="1.00" d=" M 145.14 158.23 C 148.10 153.47 150.75 148.52 153.87 143.86 L 153.75 144.73 C 151.39 148.59 149.40 159.38 145.14 158.23 Z" />
</g>
<g id="#ea6be7ff">
<path fill="#ea6be7" opacity="1.00" d=" M 171.89 143.97 C 175.74 152.03 186.54 146.00 193.21 148.75 C 189.72 148.94 186.08 148.47 182.72 149.65 C 178.47 151.36 174.56 154.09 171.93 157.89 C 171.13 158.97 170.39 160.09 169.67 161.22 C 169.40 160.61 168.87 159.37 168.61 158.75 C 169.10 155.89 169.71 153.06 170.30 150.22 C 170.82 148.13 171.35 146.05 171.89 143.97 Z" />
</g>
<g id="#9e83e2ff">
<path fill="#9e83e2" opacity="1.00" d=" M 37.10 155.10 C 45.47 150.27 54.23 145.40 64.12 144.87 C 63.79 145.37 63.15 146.37 62.82 146.87 C 57.10 149.01 50.81 150.85 46.78 155.75 C 45.82 156.47 44.80 157.13 43.89 157.92 C 40.39 163.10 36.74 167.42 29.58 166.91 C 28.51 164.32 27.69 161.64 26.66 159.04 C 29.02 155.49 34.04 157.72 37.10 155.10 Z" />
</g>
<g id="#eb5f7cff">
<path fill="#eb5f7c" opacity="1.00" d=" M 121.51 157.18 C 122.20 153.22 121.20 148.44 123.04 145.08 C 122.59 149.80 124.00 154.91 121.85 159.35 C 121.77 158.81 121.60 157.72 121.51 157.18 Z" />
</g>
<g id="#fc7c20ff">
<path fill="#fc7c20" opacity="1.00" d=" M 123.04 145.08 L 123.70 144.60 C 124.20 155.83 123.94 167.08 124.08 178.33 L 123.19 177.96 C 122.76 173.48 123.63 168.79 122.16 164.47 C 122.03 162.76 121.94 161.06 121.85 159.35 C 124.00 154.91 122.59 149.80 123.04 145.08 Z" />
</g>
<g id="#c78c1bff">
<path fill="#c78c1b" opacity="1.00" d=" M 231.20 144.70 C 231.60 146.17 231.98 147.66 232.29 149.16 C 230.18 155.00 229.29 161.26 226.58 166.88 C 223.70 173.10 221.09 179.51 216.82 184.95 C 210.58 194.49 202.43 202.54 194.06 210.19 C 193.76 209.88 193.16 209.25 192.86 208.94 C 193.19 208.65 193.87 208.08 194.20 207.79 C 210.89 194.15 223.20 175.12 228.77 154.30 C 229.58 151.10 230.44 147.91 231.20 144.70 Z" />
</g>
<g id="#d368e7ff">
<path fill="#d368e7" opacity="1.00" d=" M 62.82 146.87 C 68.91 146.24 75.03 145.86 81.16 146.16 C 77.63 146.79 74.15 147.64 70.74 148.73 C 65.48 150.21 59.75 150.38 54.87 152.99 C 54.44 153.30 53.59 153.91 53.16 154.21 C 54.69 165.93 57.18 177.50 60.01 188.97 C 59.80 189.37 59.38 190.16 59.17 190.56 C 53.76 179.91 54.95 167.26 50.74 156.15 C 50.28 156.12 49.36 156.05 48.90 156.02 C 48.67 157.48 48.21 160.41 47.98 161.87 L 46.99 161.88 C 46.97 159.83 46.88 157.79 46.78 155.75 C 50.81 150.85 57.10 149.01 62.82 146.87 Z" />
</g>
<g id="#f8b2beff">
<path fill="#f8b2be" opacity="1.00" d=" M 81.16 146.16 C 81.66 146.34 82.66 146.70 83.16 146.88 C 82.74 150.21 83.69 154.07 82.19 157.09 L 82.15 155.99 C 85.02 147.38 79.84 147.60 74.21 149.17 C 73.34 149.06 71.61 148.84 70.74 148.73 C 74.15 147.64 77.63 146.79 81.16 146.16 Z" />
</g>
<g id="#7d64b1ff">
<path fill="#7d64b1" opacity="1.00" d=" M 216.07 149.12 C 219.19 147.87 223.34 145.93 226.50 148.04 C 226.29 149.73 226.17 151.43 226.03 153.13 C 225.13 155.72 224.43 158.40 223.30 160.92 C 218.69 157.52 212.79 156.32 208.14 152.86 C 205.73 151.22 203.31 149.59 200.94 147.91 C 205.99 148.27 211.47 152.91 216.07 149.12 Z" />
</g>
<g id="#fee436ff">
<path fill="#fee436" opacity="1.00" d=" M 74.21 149.17 C 79.84 147.60 85.02 147.38 82.15 155.99 C 78.61 157.23 72.99 156.59 71.11 160.15 C 71.96 162.54 78.70 159.76 81.99 160.06 C 82.04 162.77 82.11 165.48 82.22 168.20 C 80.87 168.20 79.52 168.22 78.18 168.26 C 72.01 166.62 65.25 164.53 59.01 166.85 C 58.29 162.31 57.42 157.78 57.09 153.18 C 62.69 151.44 68.56 150.74 74.21 149.17 Z" />
</g>
<g id="#fee639ff">
<path fill="#fee639" opacity="1.00" d=" M 93.12 149.95 C 94.36 149.24 95.60 148.52 96.83 147.80 C 104.40 147.18 111.53 148.54 118.20 151.95 C 119.77 153.35 120.69 155.27 121.51 157.18 C 121.60 157.72 121.77 158.81 121.85 159.35 C 121.94 161.06 122.03 162.76 122.16 164.47 C 122.04 164.83 121.79 165.56 121.67 165.93 C 121.25 167.05 120.76 168.14 120.21 169.21 C 115.93 168.05 111.44 167.98 107.04 168.01 L 107.24 167.19 C 107.70 166.87 108.62 166.22 109.08 165.89 C 111.71 163.77 110.19 156.03 105.83 157.42 C 103.33 157.77 100.54 157.62 98.78 159.64 C 98.48 159.93 97.89 160.52 97.59 160.81 C 96.62 163.45 97.14 166.35 98.03 168.93 C 95.12 166.75 89.91 163.99 87.49 168.15 C 86.64 163.77 86.97 159.29 87.76 154.95 C 89.89 153.67 91.64 151.91 93.12 149.95 Z" />
</g>
<g id="#fbd281ff">
<path fill="#fbd281" opacity="1.00" d=" M 54.87 152.99 C 59.75 150.38 65.48 150.21 70.74 148.73 C 71.61 148.84 73.34 149.06 74.21 149.17 C 68.56 150.74 62.69 151.44 57.09 153.18 C 57.42 157.78 58.29 162.31 59.01 166.85 C 59.85 173.35 61.54 179.67 63.17 186.00 C 62.70 185.96 61.76 185.89 61.29 185.86 C 59.70 174.79 55.99 164.11 54.87 152.99 Z" />
</g>
<g id="#f8d4afff">
<path fill="#f8d4af" opacity="1.00" d=" M 182.72 149.65 C 186.08 148.47 189.72 148.94 193.21 148.75 C 196.37 149.59 199.30 151.11 201.96 152.98 C 203.77 155.22 205.34 157.63 206.90 160.05 C 207.80 163.81 208.36 167.75 206.29 171.25 C 208.94 157.78 195.66 147.28 182.72 149.65 Z" />
</g>
<g id="#e5ab25ff">
<path fill="#e5ab25" opacity="1.00" d=" M 226.03 153.13 C 226.63 151.70 227.21 150.28 227.78 148.84 C 227.95 150.69 228.28 152.51 228.77 154.30 C 223.20 175.12 210.89 194.15 194.20 207.79 C 193.69 207.60 192.67 207.21 192.16 207.02 C 199.12 199.80 208.20 193.48 211.95 183.84 C 213.02 181.57 214.19 179.34 215.17 177.03 C 216.25 175.42 217.28 173.79 218.25 172.13 C 220.45 168.63 221.57 164.63 223.30 160.92 C 224.43 158.40 225.13 155.72 226.03 153.13 Z" />
</g>
<g id="#fcc095ff">
<path fill="#fcc095" opacity="1.00" d=" M 87.76 154.95 C 88.70 152.50 90.45 150.46 93.12 149.95 C 91.64 151.91 89.89 153.67 87.76 154.95 Z" />
</g>
<g id="#ffe73dff">
<path fill="#ffe73d" opacity="1.00" d=" M 171.93 157.89 C 174.56 154.09 178.47 151.36 182.72 149.65 C 195.66 147.28 208.94 157.78 206.29 171.25 C 206.05 172.13 205.82 173.02 205.60 173.91 C 205.28 174.45 204.65 175.52 204.33 176.06 C 202.86 170.85 194.96 172.86 190.67 172.70 L 191.04 172.06 C 191.32 171.81 191.87 171.31 192.14 171.06 C 192.90 170.44 193.64 169.81 194.37 169.15 C 196.74 165.71 194.79 158.52 189.84 160.41 C 187.76 160.88 185.10 160.67 183.96 162.86 C 183.62 163.36 182.94 164.38 182.59 164.88 C 179.23 170.46 184.50 173.96 189.23 173.39 C 183.71 176.99 178.93 167.96 172.67 171.21 C 170.07 167.26 171.11 162.24 171.93 157.89 Z" />
</g>
<g id="#b4742eff">
<path fill="#b4742e" opacity="1.00" d=" M 23.96 153.13 C 25.34 153.84 25.53 155.52 24.98 156.84 L 24.21 156.82 C 23.78 155.62 23.70 154.39 23.96 153.13 Z" />
</g>
<g id="#f76f3cff">
<path fill="#f76f3c" opacity="1.00" d=" M 53.16 154.21 C 53.59 153.91 54.44 153.30 54.87 152.99 C 55.99 164.11 59.70 174.79 61.29 185.86 C 61.76 185.89 62.70 185.96 63.17 186.00 C 67.43 185.59 76.09 186.00 73.36 179.85 L 74.27 179.65 C 74.80 181.39 75.20 183.19 75.16 185.03 C 70.03 186.05 64.99 187.40 60.01 188.97 C 57.18 177.50 54.69 165.93 53.16 154.21 Z" />
</g>
<g id="#be7ee3ff">
<path fill="#be7ee3" opacity="1.00" d=" M 201.96 152.98 C 202.42 153.02 203.34 153.08 203.79 153.11 C 209.44 158.40 218.66 163.13 218.25 172.13 C 217.28 173.79 216.25 175.42 215.17 177.03 C 205.67 188.90 192.52 198.03 176.91 198.92 C 178.08 197.68 179.58 196.87 181.18 196.31 C 195.38 194.55 210.86 184.42 211.95 168.89 C 212.49 165.14 208.99 162.65 206.90 160.05 C 205.34 157.63 203.77 155.22 201.96 152.98 Z" />
</g>
<g id="#9576cdff">
<path fill="#9576cd" opacity="1.00" d=" M 203.79 153.11 C 205.24 153.02 206.69 152.94 208.14 152.86 C 212.79 156.32 218.69 157.52 223.30 160.92 C 221.57 164.63 220.45 168.63 218.25 172.13 C 218.66 163.13 209.44 158.40 203.79 153.11 Z" />
</g>
<g id="#f9d17fff">
<path fill="#f9d17f" opacity="1.00" d=" M 84.84 157.84 C 85.80 156.87 86.79 155.91 87.76 154.95 C 86.97 159.29 86.64 163.77 87.49 168.15 C 88.83 172.29 92.39 175.01 96.16 176.83 C 95.17 177.11 94.19 177.41 93.21 177.71 C 87.38 173.25 83.65 167.43 84.68 159.71 C 84.72 159.25 84.80 158.31 84.84 157.84 Z" />
</g>
<g id="#c693f5ff">
<path fill="#c693f5" opacity="1.00" d=" M 43.89 157.92 C 44.80 157.13 45.82 156.47 46.78 155.75 C 46.88 157.79 46.97 159.83 46.99 161.88 C 43.11 171.64 45.55 182.72 50.25 191.73 C 55.47 197.48 63.86 197.28 70.92 196.16 C 77.46 199.51 76.51 209.03 82.80 213.23 C 83.03 211.73 83.22 210.23 83.38 208.73 C 83.77 210.45 83.98 212.20 84.18 213.96 C 84.91 218.40 79.16 213.23 79.11 211.89 C 75.37 207.76 72.84 198.95 65.44 201.66 C 60.71 202.28 56.41 199.65 51.78 199.13 C 48.44 196.15 45.36 192.89 42.88 189.15 C 42.47 178.73 40.87 168.11 43.89 157.92 Z" />
</g>
<g id="#cc38e0ff">
<path fill="#cc38e0" opacity="1.00" d=" M 47.98 161.87 C 48.21 160.41 48.67 157.48 48.90 156.02 C 50.18 167.60 53.20 178.95 55.68 190.33 C 55.42 192.61 58.94 192.55 59.17 190.56 C 59.38 190.16 59.80 189.37 60.01 188.97 C 64.99 187.40 70.03 186.05 75.16 185.03 C 73.90 193.82 61.75 192.09 55.19 193.95 C 52.56 183.31 50.58 172.52 47.98 161.87 Z" />
</g>
<g id="#8229a4ff">
<path fill="#8229a4" opacity="1.00" d=" M 48.90 156.02 C 49.36 156.05 50.28 156.12 50.74 156.15 C 54.95 167.26 53.76 179.91 59.17 190.56 C 58.94 192.55 55.42 192.61 55.68 190.33 C 53.20 178.95 50.18 167.60 48.90 156.02 Z" />
</g>
<g id="#f4774aff">
<path fill="#f4774a" opacity="1.00" d=" M 71.11 160.15 C 72.99 156.59 78.61 157.23 82.15 155.99 L 82.19 157.09 C 79.10 159.28 74.78 159.17 71.11 160.15 Z" />
</g>
<g id="#bf8b4eff">
<path fill="#bf8b4e" opacity="1.00" d=" M 24.21 156.82 L 24.98 156.84 C 25.54 157.56 26.11 158.30 26.66 159.04 C 27.69 161.64 28.51 164.32 29.58 166.91 C 31.72 173.47 36.71 178.58 39.00 185.02 C 31.35 177.54 27.81 166.67 24.21 156.82 Z" />
</g>
<g id="#f9e08dff">
<path fill="#f9e08d" opacity="1.00" d=" M 105.83 157.42 C 110.19 156.03 111.71 163.77 109.08 165.89 C 109.81 162.31 108.70 159.37 105.83 157.42 Z" />
</g>
<g id="#aa96f3ff">
<path fill="#aa96f3" opacity="1.00" d=" M 29.58 166.91 C 36.74 167.42 40.39 163.10 43.89 157.92 C 40.87 168.11 42.47 178.73 42.88 189.15 C 41.63 187.74 40.34 186.35 39.00 185.02 C 36.71 178.58 31.72 173.47 29.58 166.91 Z" />
</g>
<g id="#e46397ff">
<path fill="#e46397" opacity="1.00" d=" M 81.99 160.06 C 82.95 159.34 83.90 158.60 84.84 157.84 C 84.80 158.31 84.72 159.25 84.68 159.71 C 84.36 162.46 84.06 165.23 83.78 167.98 C 83.39 168.04 82.61 168.15 82.22 168.20 C 82.11 165.48 82.04 162.77 81.99 160.06 Z" />
</g>
<g id="#f46f46ff">
<path fill="#f46f46" opacity="1.00" d=" M 98.78 159.64 C 100.54 157.62 103.33 157.77 105.83 157.42 C 108.70 159.37 109.81 162.31 109.08 165.89 C 108.62 166.22 107.70 166.87 107.24 167.19 C 108.03 162.23 104.48 157.89 98.78 159.64 Z" />
</g>
<g id="#ecce8fff">
<path fill="#ecce8f" opacity="1.00" d=" M 169.67 161.22 C 170.39 160.09 171.13 158.97 171.93 157.89 C 171.11 162.24 170.07 167.26 172.67 171.21 C 174.07 174.04 175.44 177.08 178.08 178.99 C 176.37 178.87 174.65 178.86 172.98 178.47 C 173.16 173.36 168.41 167.42 169.67 161.22 Z" />
</g>
<g id="#f37949ff">
<path fill="#f37949" opacity="1.00" d=" M 167.04 167.80 C 166.96 164.70 167.72 161.69 168.61 158.75 C 168.87 159.37 169.40 160.61 169.67 161.22 C 168.41 167.42 173.16 173.36 172.98 178.47 L 172.05 178.26 C 169.96 174.99 168.68 171.29 167.04 167.80 Z" />
</g>
<g id="#fa6e21ff">
<path fill="#fa6e21" opacity="1.00" d=" M 83.78 167.98 C 84.06 165.23 84.36 162.46 84.68 159.71 C 83.65 167.43 87.38 173.25 93.21 177.71 C 92.72 177.88 91.73 178.22 91.24 178.39 C 87.95 175.60 84.04 172.67 83.78 167.98 Z" />
</g>
<g id="#d95ce4ff">
<path fill="#d95ce4" opacity="1.00" d=" M 97.59 160.81 C 97.89 160.52 98.48 159.93 98.78 159.64 C 104.48 157.89 108.03 162.23 107.24 167.19 L 107.04 168.01 C 106.09 168.51 105.11 168.99 104.12 169.43 C 99.69 169.14 97.24 164.93 97.59 160.81 M 100.22 161.12 C 96.99 163.67 102.86 166.24 104.95 167.15 C 107.94 162.78 103.20 160.65 100.22 161.12 Z" />
</g>
<g id="#f9e69fff">
<path fill="#f9e69f" opacity="1.00" d=" M 189.84 160.41 C 194.79 158.52 196.74 165.71 194.37 169.15 C 195.11 165.18 193.63 161.62 189.84 160.41 Z" />
</g>
<g id="#e686f8ff">
<path fill="#e686f8" opacity="1.00" d=" M 206.90 160.05 C 208.99 162.65 212.49 165.14 211.95 168.89 C 210.86 184.42 195.38 194.55 181.18 196.31 C 177.96 196.85 177.66 194.30 177.65 191.74 C 178.11 190.66 178.61 189.59 179.36 188.67 C 180.73 193.40 187.44 190.30 191.04 190.03 C 197.50 187.62 205.57 181.37 205.60 173.91 C 205.82 173.02 206.05 172.13 206.29 171.25 C 208.36 167.75 207.80 163.81 206.90 160.05 Z" />
</g>
<g id="#fbc59dff">
<path fill="#fbc59d" opacity="1.00" d=" M 98.03 168.93 C 97.14 166.35 96.62 163.45 97.59 160.81 C 97.24 164.93 99.69 169.14 104.12 169.43 C 101.86 170.24 99.83 170.07 98.03 168.93 Z" />
</g>
<g id="#8928acff">
<path fill="#8928ac" opacity="1.00" d=" M 100.22 161.12 C 103.20 160.65 107.94 162.78 104.95 167.15 C 102.86 166.24 96.99 163.67 100.22 161.12 Z" />
</g>
<g id="#f57246ff">
<path fill="#f57246" opacity="1.00" d=" M 183.96 162.86 C 185.10 160.67 187.76 160.88 189.84 160.41 C 193.63 161.62 195.11 165.18 194.37 169.15 C 193.64 169.81 192.90 170.44 192.14 171.06 C 193.90 165.51 189.52 161.10 183.96 162.86 Z" />
</g>
<g id="#ec96feff">
<path fill="#ec96fe" opacity="1.00" d=" M 46.99 161.88 L 47.98 161.87 C 50.58 172.52 52.56 183.31 55.19 193.95 C 61.75 192.09 73.90 193.82 75.16 185.03 C 75.20 183.19 74.80 181.39 74.27 179.65 C 74.10 178.07 73.98 176.48 73.96 174.90 C 79.53 173.31 80.56 179.67 84.87 181.36 L 84.89 182.08 L 84.86 182.86 C 83.10 183.17 81.41 183.80 79.98 184.90 C 77.82 192.45 82.10 200.84 83.38 208.73 C 83.22 210.23 83.03 211.73 82.80 213.23 C 76.51 209.03 77.46 199.51 70.92 196.16 C 63.86 197.28 55.47 197.48 50.25 191.73 C 45.55 182.72 43.11 171.64 46.99 161.88 Z" />
</g>
<g id="#f7894aff">
<path fill="#f7894a" opacity="1.00" d=" M 150.37 167.82 C 151.07 165.56 152.14 163.40 153.76 161.65 C 153.39 166.08 153.05 170.52 152.89 174.97 C 152.41 174.91 151.45 174.79 150.96 174.73 C 150.78 172.42 150.58 170.12 150.37 167.82 Z" />
</g>
<g id="#f9db88ff">
<path fill="#f9db88" opacity="1.00" d=" M 138.59 163.70 C 142.27 163.35 141.43 172.40 143.14 175.95 C 138.35 175.51 140.50 167.26 138.59 163.70 Z" />
</g>
<g id="#d656edff">
<path fill="#d656ed" opacity="1.00" d=" M 183.96 162.86 C 189.52 161.10 193.90 165.51 192.14 171.06 C 191.87 171.31 191.32 171.81 191.04 172.06 C 185.11 174.53 182.84 169.34 182.59 164.88 C 182.94 164.38 183.62 163.36 183.96 162.86 M 183.88 165.02 C 184.28 167.64 187.73 168.08 188.38 170.80 C 192.55 169.37 188.64 161.01 183.88 165.02 Z" />
</g>
<g id="#fa8829ff">
<path fill="#fa8829" opacity="1.00" d=" M 136.92 169.00 C 137.32 167.23 136.12 164.17 138.59 163.70 C 140.50 167.26 138.35 175.51 143.14 175.95 C 144.46 176.04 145.78 176.11 147.10 176.16 L 146.98 177.07 L 146.33 177.45 C 143.48 178.32 139.75 178.51 139.47 174.65 C 139.00 173.03 139.28 170.05 137.03 171.98 C 137.00 171.24 136.95 169.75 136.92 169.00 Z" />
</g>
<g id="#e9597bff">
<path fill="#e9597b" opacity="1.00" d=" M 121.67 165.93 C 121.79 165.56 122.04 164.83 122.16 164.47 C 123.63 168.79 122.76 173.48 123.19 177.96 C 120.76 175.24 122.35 169.76 121.67 165.93 Z" />
</g>
<g id="#f8b6b8ff">
<path fill="#f8b6b8" opacity="1.00" d=" M 189.23 173.39 C 184.50 173.96 179.23 170.46 182.59 164.88 C 182.84 169.34 185.11 174.53 191.04 172.06 L 190.67 172.70 C 190.31 172.87 189.59 173.21 189.23 173.39 Z" />
</g>
<g id="#8524a7ff">
<path fill="#8524a7" opacity="1.00" d=" M 183.88 165.02 C 188.64 161.01 192.55 169.37 188.38 170.80 C 187.73 168.08 184.28 167.64 183.88 165.02 Z" />
</g>
<g id="#fee351ff">
<path fill="#fee351" opacity="1.00" d=" M 23.11 165.91 C 26.22 173.29 29.86 180.48 34.38 187.12 C 30.38 189.29 26.41 185.59 22.80 184.09 C 20.37 180.01 18.69 175.56 16.75 171.25 C 20.94 172.25 25.93 173.19 23.11 165.91 Z" />
</g>
<g id="#ffc00aff">
<path fill="#ffc00a" opacity="1.00" d=" M 59.01 166.85 C 65.25 164.53 72.01 166.62 78.18 168.26 C 71.51 168.16 72.60 175.10 73.36 179.85 C 76.09 186.00 67.43 185.59 63.17 186.00 C 61.54 179.67 59.85 173.35 59.01 166.85 Z" />
</g>
<g id="#fdcf0fff">
<path fill="#fdcf0f" opacity="1.00" d=" M 87.49 168.15 C 89.91 163.99 95.12 166.75 98.03 168.93 C 99.83 170.07 101.86 170.24 104.12 169.43 C 105.11 168.99 106.09 168.51 107.04 168.01 C 111.44 167.98 115.93 168.05 120.21 169.21 C 118.04 173.28 114.34 176.24 110.81 179.09 L 110.13 178.75 C 106.03 176.05 100.78 177.39 96.16 176.83 C 92.39 175.01 88.83 172.29 87.49 168.15 Z" />
</g>
<g id="#d757d8ff">
<path fill="#d757d8" opacity="1.00" d=" M 121.67 165.93 C 122.35 169.76 120.76 175.24 123.19 177.96 L 124.08 178.33 C 122.71 178.91 121.36 179.52 120.05 180.21 C 123.56 167.19 113.74 178.06 120.05 180.21 C 119.82 180.56 119.37 181.27 119.14 181.62 C 117.20 178.24 115.32 178.35 112.02 180.28 C 111.71 179.98 111.11 179.39 110.81 179.09 C 114.34 176.24 118.04 173.28 120.21 169.21 C 120.76 168.14 121.25 167.05 121.67 165.93 Z" />
</g>
<g id="#fee551ff">
<path fill="#fee551" opacity="1.00" d=" M 216.82 184.95 C 221.09 179.51 223.70 173.10 226.58 166.88 C 227.42 172.07 232.79 169.79 235.01 166.91 C 233.09 172.12 231.05 177.30 228.26 182.11 C 225.47 184.89 216.93 192.13 216.82 184.95 Z" />
</g>
<g id="#f17d63ff">
<path fill="#f17d63" opacity="1.00" d=" M 78.18 168.26 C 79.52 168.22 80.87 168.20 82.22 168.20 C 79.20 170.75 72.45 169.32 73.96 174.90 C 73.98 176.48 74.10 178.07 74.27 179.65 L 73.36 179.85 C 72.60 175.10 71.51 168.16 78.18 168.26 Z" />
</g>
<g id="#c941d9ff">
<path fill="#c941d9" opacity="1.00" d=" M 82.22 168.20 C 82.61 168.15 83.39 168.04 83.78 167.98 C 84.04 172.67 87.95 175.60 91.24 178.39 C 90.21 178.75 89.18 179.11 88.13 179.44 C 85.89 176.73 83.96 173.80 81.75 171.08 C 77.73 173.15 83.00 178.15 84.86 180.48 L 84.87 181.36 C 80.56 179.67 79.53 173.31 73.96 174.90 C 72.45 169.32 79.20 170.75 82.22 168.20 Z" />
</g>
<g id="#ffd710ff">
<path fill="#ffd710" opacity="1.00" d=" M 125.99 168.99 C 129.53 167.70 133.29 168.60 136.92 169.00 C 136.95 169.75 137.00 171.24 137.03 171.98 C 138.63 178.00 131.84 175.64 128.03 176.09 C 124.33 176.30 126.31 171.57 125.99 168.99 Z" />
</g>
<g id="#d35cd4ff">
<path fill="#d35cd4" opacity="1.00" d=" M 150.37 167.82 C 150.58 170.12 150.78 172.42 150.96 174.73 C 149.88 175.33 148.82 175.97 147.78 176.64 L 146.98 177.07 L 147.10 176.16 C 148.22 173.39 149.37 170.63 150.37 167.82 Z" />
</g>
<g id="#c567bdff">
<path fill="#c567bd" opacity="1.00" d=" M 167.04 167.80 C 168.68 171.29 169.96 174.99 172.05 178.26 C 168.45 177.41 164.76 177.14 161.08 176.92 L 160.91 176.07 C 165.11 176.69 167.91 175.41 166.56 170.00 C 166.68 169.45 166.92 168.35 167.04 167.80 Z" />
</g>
<g id="#fcda1eff">
<path fill="#fcda1e" opacity="1.00" d=" M 153.83 175.11 C 150.38 165.26 161.63 169.48 166.56 170.00 C 167.91 175.41 165.11 176.69 160.91 176.07 C 158.54 175.80 156.18 175.48 153.83 175.11 Z" />
</g>
<g id="#78299cff">
<path fill="#78299c" opacity="1.00" d=" M 84.86 180.48 C 83.00 178.15 77.73 173.15 81.75 171.08 C 83.96 173.80 85.89 176.73 88.13 179.44 C 87.05 179.80 85.95 180.15 84.86 180.48 Z" />
</g>
<g id="#c87995ff">
<path fill="#c87995" opacity="1.00" d=" M 137.03 171.98 C 139.28 170.05 139.00 173.03 139.47 174.65 C 139.75 178.51 143.48 178.32 146.33 177.45 C 145.56 178.40 144.78 179.35 143.98 180.28 C 142.40 179.39 140.79 178.53 139.12 177.81 C 135.41 177.15 131.66 176.85 127.89 176.89 L 128.03 176.09 C 131.84 175.64 138.63 178.00 137.03 171.98 Z" />
</g>
<g id="#fdd113ff">
<path fill="#fdd113" opacity="1.00" d=" M 172.67 171.21 C 178.93 167.96 183.71 176.99 189.23 173.39 C 189.59 173.21 190.31 172.87 190.67 172.70 C 194.96 172.86 202.86 170.85 204.33 176.06 C 202.46 178.25 200.36 180.23 198.24 182.17 C 193.06 183.44 186.24 186.17 182.05 181.76 C 181.40 181.17 180.73 180.64 180.03 180.14 C 179.54 179.86 178.56 179.28 178.08 178.99 C 175.44 177.08 174.07 174.04 172.67 171.21 Z" />
</g>
<g id="#9527b7ff">
<path fill="#9527b7" opacity="1.00" d=" M 120.05 180.21 C 123.56 167.19 113.74 178.06 120.05 180.21 Z" />
</g>
<g id="#e94be4ff">
<path fill="#e94be4" opacity="1.00" d=" M 205.60 173.91 C 205.57 181.37 197.50 187.62 191.04 190.03 C 195.05 183.98 183.39 188.26 180.74 186.74 C 180.85 186.31 181.06 185.45 181.17 185.02 C 186.93 186.00 193.74 186.65 198.24 182.17 C 200.36 180.23 202.46 178.25 204.33 176.06 C 204.65 175.52 205.28 174.45 205.60 173.91 Z" />
</g>
<g id="#6b9af0ff">
<path fill="#6b9af0" opacity="1.00" d=" M 147.78 176.64 C 148.82 175.97 149.88 175.33 150.96 174.73 C 151.45 174.79 152.41 174.91 152.89 174.97 L 153.83 175.11 C 156.18 175.48 158.54 175.80 160.91 176.07 L 161.08 176.92 C 156.55 175.75 148.48 177.06 150.98 183.98 C 149.96 188.22 156.18 184.95 158.53 186.59 C 163.27 189.32 168.90 186.51 173.99 187.05 C 179.70 189.38 180.93 184.10 180.03 180.14 C 180.73 180.64 181.40 181.17 182.05 181.76 C 181.73 182.83 181.43 183.92 181.17 185.02 C 181.06 185.45 180.85 186.31 180.74 186.74 C 180.39 187.22 179.70 188.19 179.36 188.67 C 178.61 189.59 178.11 190.66 177.65 191.74 C 177.49 192.02 177.19 192.56 177.04 192.84 C 174.91 192.84 172.79 192.88 170.67 192.95 L 170.15 192.63 C 168.89 184.50 151.19 186.73 156.03 197.18 C 155.59 200.69 154.74 204.21 155.08 207.76 C 158.13 209.07 166.26 207.01 163.20 212.18 C 158.92 211.21 149.12 213.27 151.26 206.31 C 150.45 201.45 158.63 188.96 150.00 189.93 C 145.89 189.40 141.77 188.83 137.71 187.98 C 142.77 189.65 152.09 188.26 146.06 182.31 C 148.23 181.13 147.91 178.74 147.78 176.64 Z" />
</g>
<g id="#8cabc0ff">
<path fill="#8cabc0" opacity="1.00" d=" M 93.21 177.71 C 94.19 177.41 95.17 177.11 96.16 176.83 C 100.78 177.39 106.03 176.05 110.13 178.75 C 101.45 177.39 92.72 177.54 84.89 182.08 L 84.87 181.36 L 84.86 180.48 C 85.95 180.15 87.05 179.80 88.13 179.44 C 89.18 179.11 90.21 178.75 91.24 178.39 C 91.73 178.22 92.72 177.88 93.21 177.71 Z" />
</g>
<g id="#67a4f5ff">
<path fill="#67a4f5" opacity="1.00" d=" M 124.08 178.33 C 125.34 177.83 126.61 177.35 127.89 176.89 C 131.66 176.85 135.41 177.15 139.12 177.81 C 131.71 176.72 119.36 178.41 118.87 187.98 C 124.61 190.80 132.21 184.01 136.85 187.79 C 136.62 190.30 136.55 192.82 136.34 195.34 C 136.04 195.59 135.44 196.09 135.14 196.34 C 134.85 196.05 134.28 195.47 133.99 195.19 C 134.92 191.42 132.44 188.66 128.88 190.89 L 128.18 190.97 C 124.09 190.94 119.58 188.37 115.72 188.91 C 115.33 189.23 114.56 189.86 114.17 190.17 C 111.16 189.57 106.13 191.77 105.15 187.78 C 108.03 186.78 115.16 190.45 115.48 185.35 C 116.97 184.40 118.33 183.22 119.14 181.62 C 119.37 181.27 119.82 180.56 120.05 180.21 C 121.36 179.52 122.71 178.91 124.08 178.33 Z" />
</g>
<g id="#4a62acff">
<path fill="#4a62ac" opacity="1.00" d=" M 146.33 177.45 L 146.98 177.07 L 147.78 176.64 C 147.91 178.74 148.23 181.13 146.06 182.31 C 145.37 181.63 144.67 180.96 143.98 180.28 C 144.78 179.35 145.56 178.40 146.33 177.45 Z" />
</g>
<g id="#0bc2faff">
<path fill="#0bc2fa" opacity="1.00" d=" M 150.98 183.98 C 148.48 177.06 156.55 175.75 161.08 176.92 C 164.76 177.14 168.45 177.41 172.05 178.26 L 172.98 178.47 C 174.65 178.86 176.37 178.87 178.08 178.99 C 178.56 179.28 179.54 179.86 180.03 180.14 C 180.93 184.10 179.70 189.38 173.99 187.05 C 168.90 186.51 163.27 189.32 158.53 186.59 C 156.18 184.95 149.96 188.22 150.98 183.98 Z" />
</g>
<g id="#b162bdff">
<path fill="#b162bd" opacity="1.00" d=" M 176.91 198.92 C 192.52 198.03 205.67 188.90 215.17 177.03 C 214.19 179.34 213.02 181.57 211.95 183.84 C 208.10 187.68 205.23 192.40 201.23 196.09 C 188.23 198.16 174.78 201.60 166.65 212.88 L 165.63 212.64 C 166.97 206.53 171.62 201.93 176.91 198.92 Z" />
</g>
<g id="#0ac1fbff">
<path fill="#0ac1fb" opacity="1.00" d=" M 84.89 182.08 C 92.72 177.54 101.45 177.39 110.13 178.75 L 110.81 179.09 C 111.11 179.39 111.71 179.98 112.02 180.28 C 113.25 181.91 114.37 183.63 115.48 185.35 C 115.16 190.45 108.03 186.78 105.15 187.78 L 104.71 186.90 C 99.34 184.53 92.85 189.21 86.84 188.92 C 86.51 188.65 85.86 188.11 85.54 187.84 C 85.28 186.18 85.06 184.52 84.86 182.86 L 84.89 182.08 Z" />
</g>
<g id="#e38efeff">
<path fill="#e38efe" opacity="1.00" d=" M 112.02 180.28 C 115.32 178.35 117.20 178.24 119.14 181.62 C 118.33 183.22 116.97 184.40 115.48 185.35 C 114.37 183.63 113.25 181.91 112.02 180.28 Z" />
</g>
<g id="#08c0fbff">
<path fill="#08c0fb" opacity="1.00" d=" M 118.87 187.98 C 119.36 178.41 131.71 176.72 139.12 177.81 C 140.79 178.53 142.40 179.39 143.98 180.28 C 144.67 180.96 145.37 181.63 146.06 182.31 C 152.09 188.26 142.77 189.65 137.71 187.98 L 136.85 187.79 C 132.21 184.01 124.61 190.80 118.87 187.98 Z" />
</g>
<g id="#f2693bff">
<path fill="#f2693b" opacity="1.00" d=" M 182.05 181.76 C 186.24 186.17 193.06 183.44 198.24 182.17 C 193.74 186.65 186.93 186.00 181.17 185.02 C 181.43 183.92 181.73 182.83 182.05 181.76 Z" />
</g>
<g id="#fcc740ff">
<path fill="#fcc740" opacity="1.00" d=" M 216.82 184.95 C 216.93 192.13 225.47 184.89 228.26 182.11 C 222.55 194.71 213.06 205.06 203.86 214.99 C 200.91 219.28 195.98 222.62 191.41 224.64 C 183.44 225.74 176.30 230.98 168.11 231.95 C 167.00 230.31 167.44 227.38 165.15 226.87 C 175.74 223.20 185.38 217.29 194.06 210.19 C 202.43 202.54 210.58 194.49 216.82 184.95 Z" />
</g>
<g id="#6f8fecff">
<path fill="#6f8fec" opacity="1.00" d=" M 79.98 184.90 C 81.41 183.80 83.10 183.17 84.86 182.86 C 85.06 184.52 85.28 186.18 85.54 187.84 C 85.22 193.06 85.89 198.37 87.84 203.24 C 88.91 205.58 88.01 211.36 91.29 210.36 C 92.43 210.10 93.59 209.85 94.74 209.62 C 101.32 208.89 98.44 213.56 93.92 214.00 C 90.80 214.27 86.06 215.27 85.93 211.03 C 84.45 202.21 82.26 193.54 79.98 184.90 Z" />
</g>
<g id="#fdc73fff">
<path fill="#fdc73f" opacity="1.00" d=" M 22.80 184.09 C 26.41 185.59 30.38 189.29 34.38 187.12 C 47.38 204.46 64.38 219.56 84.93 227.02 C 80.06 225.74 84.35 229.51 84.10 232.02 C 77.58 231.59 71.31 229.42 65.27 227.05 C 65.13 227.51 64.84 228.42 64.69 228.88 C 60.06 226.85 55.52 223.81 52.00 220.12 C 41.41 208.98 29.22 198.51 22.80 184.09 Z" />
</g>
<g id="#be7828ff">
<path fill="#be7828" opacity="1.00" d=" M 201.23 196.09 C 205.23 192.40 208.10 187.68 211.95 183.84 C 208.20 193.48 199.12 199.80 192.16 207.02 C 147.73 245.75 69.65 236.16 39.00 185.02 C 40.34 186.35 41.63 187.74 42.88 189.15 C 45.36 192.89 48.44 196.15 51.78 199.13 C 54.26 201.69 56.73 204.32 59.78 206.21 C 68.31 212.99 77.68 219.44 88.40 222.06 C 92.92 225.80 99.30 225.76 104.78 227.35 C 123.05 230.79 142.62 229.88 160.11 223.23 C 162.48 222.23 164.93 221.43 167.28 220.37 C 176.78 216.49 185.40 210.75 193.13 204.05 C 196.01 201.59 198.68 198.89 201.23 196.09 Z" />
</g>
<g id="#7a45c5ff">
<path fill="#7a45c5" opacity="1.00" d=" M 83.38 208.73 C 82.10 200.84 77.82 192.45 79.98 184.90 C 82.26 193.54 84.45 202.21 85.93 211.03 C 86.06 215.27 90.80 214.27 93.92 214.00 C 91.00 214.58 86.05 218.16 84.18 213.96 C 83.98 212.20 83.77 210.45 83.38 208.73 Z" />
</g>
<g id="#599af1ff">
<path fill="#599af1" opacity="1.00" d=" M 86.84 188.92 C 92.85 189.21 99.34 184.53 104.71 186.90 C 101.85 187.17 105.68 191.92 101.67 191.71 C 96.93 191.35 91.44 190.26 86.84 188.92 Z" />
</g>
<g id="#a899fbff">
<path fill="#a899fb" opacity="1.00" d=" M 101.67 191.71 C 105.68 191.92 101.85 187.17 104.71 186.90 L 105.15 187.78 C 106.13 191.77 111.16 189.57 114.17 190.17 C 114.11 191.34 113.77 192.37 113.15 193.29 C 104.87 192.36 96.54 192.65 88.25 193.18 C 86.26 196.24 88.13 199.89 87.84 203.24 C 85.89 198.37 85.22 193.06 85.54 187.84 C 85.86 188.11 86.51 188.65 86.84 188.92 C 91.44 190.26 96.93 191.35 101.67 191.71 Z" />
</g>
<g id="#a72fccff">
<path fill="#a72fcc" opacity="1.00" d=" M 179.36 188.67 C 179.70 188.19 180.39 187.22 180.74 186.74 C 183.39 188.26 195.05 183.98 191.04 190.03 C 187.44 190.30 180.73 193.40 179.36 188.67 Z" />
</g>
<g id="#aa9ff9ff">
<path fill="#aa9ff9" opacity="1.00" d=" M 115.72 188.91 C 119.58 188.37 124.09 190.94 128.18 190.97 C 123.54 191.85 116.10 190.25 117.72 197.17 C 116.03 194.75 115.94 191.76 115.72 188.91 Z" />
</g>
<g id="#a49cfaff">
<path fill="#a49cfa" opacity="1.00" d=" M 136.34 195.34 C 136.55 192.82 136.62 190.30 136.85 187.79 L 137.71 187.98 C 141.77 188.83 145.89 189.40 150.00 189.93 L 149.94 190.87 C 145.94 191.89 140.75 190.46 137.93 193.93 C 137.53 194.29 136.74 194.99 136.34 195.34 Z" />
</g>
<g id="#aa97faff">
<path fill="#aa97fa" opacity="1.00" d=" M 156.03 197.18 C 151.19 186.73 168.89 184.50 170.15 192.63 C 164.69 191.66 157.49 190.35 156.03 197.18 Z" />
</g>
<g id="#7385efff">
<path fill="#7385ef" opacity="1.00" d=" M 114.17 190.17 C 114.56 189.86 115.33 189.23 115.72 188.91 C 115.94 191.76 116.03 194.75 117.72 197.17 C 118.88 199.35 120.50 201.33 122.82 202.34 C 128.49 205.88 135.62 205.43 141.91 203.93 C 141.29 204.91 140.68 205.91 140.10 206.92 C 138.11 207.65 136.19 208.56 134.18 209.24 C 124.00 211.12 117.90 202.21 111.78 196.95 C 107.68 198.74 104.82 202.93 99.91 203.20 C 99.23 201.50 98.73 199.70 100.93 199.04 C 105.58 198.64 109.63 196.21 113.15 193.29 C 113.77 192.37 114.11 191.34 114.17 190.17 Z" />
</g>
<g id="#6d53c5ff">
<path fill="#6d53c5" opacity="1.00" d=" M 128.88 190.89 C 132.44 188.66 134.92 191.42 133.99 195.19 C 132.30 193.74 130.59 192.31 128.88 190.89 Z" />
</g>
<g id="#834ecfff">
<path fill="#834ecf" opacity="1.00" d=" M 150.00 189.93 C 158.63 188.96 150.45 201.45 151.26 206.31 C 149.12 213.27 158.92 211.21 163.20 212.18 C 163.06 215.83 158.57 213.45 156.10 213.74 C 152.69 213.90 149.34 212.52 149.70 208.83 C 149.35 202.90 154.26 195.53 149.94 190.87 L 150.00 189.93 Z" />
</g>
<g id="#d876fbff">
<path fill="#d876fb" opacity="1.00" d=" M 117.72 197.17 C 116.10 190.25 123.54 191.85 128.18 190.97 L 128.88 190.89 C 130.59 192.31 132.30 193.74 133.99 195.19 C 134.28 195.47 134.85 196.05 135.14 196.34 C 129.91 197.09 124.28 193.94 118.78 195.02 C 119.62 197.71 121.32 199.99 122.82 202.34 C 120.50 201.33 118.88 199.35 117.72 197.17 Z" />
</g>
<g id="#e186faff">
<path fill="#e186fa" opacity="1.00" d=" M 137.93 193.93 C 140.75 190.46 145.94 191.89 149.94 190.87 C 154.26 195.53 149.35 202.90 149.70 208.83 C 149.22 214.48 142.68 209.81 139.11 212.12 C 129.97 216.20 120.18 212.94 111.36 209.58 C 107.43 206.97 99.42 215.71 99.93 208.88 C 99.95 206.99 99.96 205.09 99.91 203.20 C 104.82 202.93 107.68 198.74 111.78 196.95 C 112.42 203.89 118.30 207.44 123.89 210.17 C 128.67 211.10 137.50 212.56 140.10 206.92 C 140.68 205.91 141.29 204.91 141.91 203.93 C 144.32 201.11 147.80 198.26 147.03 194.09 C 143.98 193.98 140.97 193.95 137.93 193.93 Z" />
</g>
<g id="#d061f9ff">
<path fill="#d061f9" opacity="1.00" d=" M 88.25 193.18 C 96.54 192.65 104.87 192.36 113.15 193.29 C 109.63 196.21 105.58 198.64 100.93 199.04 C 107.56 193.79 93.89 196.14 90.24 196.17 C 87.02 200.05 90.59 205.92 91.29 210.36 C 88.01 211.36 88.91 205.58 87.84 203.24 C 88.13 199.89 86.26 196.24 88.25 193.18 Z" />
</g>
<g id="#dc6bf1ff">
<path fill="#dc6bf1" opacity="1.00" d=" M 156.03 197.18 C 157.49 190.35 164.69 191.66 170.15 192.63 L 170.67 192.95 C 172.55 194.62 176.16 196.44 177.04 192.84 C 177.19 192.56 177.49 192.02 177.65 191.74 C 177.66 194.30 177.96 196.85 181.18 196.31 C 179.58 196.87 178.08 197.68 176.91 198.92 C 171.62 201.93 166.97 206.53 165.63 212.64 C 164.66 215.94 162.64 217.75 159.17 216.30 C 158.05 215.54 153.58 215.45 156.10 213.74 C 158.57 213.45 163.06 215.83 163.20 212.18 C 166.26 207.01 158.13 209.07 155.08 207.76 C 154.74 204.21 155.59 200.69 156.03 197.18 M 158.26 195.11 C 157.09 198.93 156.35 202.88 155.99 206.86 C 158.88 207.09 161.80 208.20 164.74 207.90 C 166.04 203.65 166.98 199.30 167.94 194.97 C 165.52 195.01 160.68 195.07 158.26 195.11 Z" />
</g>
<g id="#734dc9ff">
<path fill="#734dc9" opacity="1.00" d=" M 170.67 192.95 C 172.79 192.88 174.91 192.84 177.04 192.84 C 176.16 196.44 172.55 194.62 170.67 192.95 Z" />
</g>
<g id="#e823f8ff">
<path fill="#e823f8" opacity="1.00" d=" M 137.93 193.93 C 140.97 193.95 143.98 193.98 147.03 194.09 C 147.80 198.26 144.32 201.11 141.91 203.93 C 135.62 205.43 128.49 205.88 122.82 202.34 C 121.32 199.99 119.62 197.71 118.78 195.02 C 124.28 193.94 129.91 197.09 135.14 196.34 C 135.44 196.09 136.04 195.59 136.34 195.34 C 136.74 194.99 137.53 194.29 137.93 193.93 Z" />
</g>
<g id="#ee1bf8ff">
<path fill="#ee1bf8" opacity="1.00" d=" M 158.26 195.11 C 160.68 195.07 165.52 195.01 167.94 194.97 C 166.98 199.30 166.04 203.65 164.74 207.90 C 161.80 208.20 158.88 207.09 155.99 206.86 C 156.35 202.88 157.09 198.93 158.26 195.11 Z" />
</g>
<g id="#eb1df8ff">
<path fill="#eb1df8" opacity="1.00" d=" M 90.24 196.17 C 93.89 196.14 107.56 193.79 100.93 199.04 C 98.73 199.70 99.23 201.50 99.91 203.20 C 99.96 205.09 99.95 206.99 99.93 208.88 C 98.19 209.05 96.45 209.24 94.74 209.62 C 93.59 209.85 92.43 210.10 91.29 210.36 C 90.59 205.92 87.02 200.05 90.24 196.17 Z" />
</g>
<g id="#9553a0ff">
<path fill="#9553a0" opacity="1.00" d=" M 166.65 212.88 C 174.78 201.60 188.23 198.16 201.23 196.09 C 198.68 198.89 196.01 201.59 193.13 204.05 C 182.25 202.26 172.85 209.70 167.15 218.22 C 167.01 216.43 166.84 214.65 166.65 212.88 Z" />
</g>
<g id="#6546b7ff">
<path fill="#6546b7" opacity="1.00" d=" M 111.78 196.95 C 117.90 202.21 124.00 211.12 134.18 209.24 C 130.77 209.82 127.34 210.13 123.89 210.17 C 118.30 207.44 112.42 203.89 111.78 196.95 Z" />
</g>
<g id="#b475d7ff">
<path fill="#b475d7" opacity="1.00" d=" M 51.78 199.13 C 56.41 199.65 60.71 202.28 65.44 201.66 C 72.84 198.95 75.37 207.76 79.11 211.89 C 79.16 213.23 84.91 218.40 84.18 213.96 C 86.05 218.16 91.00 214.58 93.92 214.00 C 98.44 213.56 101.32 208.89 94.74 209.62 C 96.45 209.24 98.19 209.05 99.93 208.88 C 99.42 215.71 107.43 206.97 111.36 209.58 C 120.18 212.94 129.97 216.20 139.11 212.12 C 142.68 209.81 149.22 214.48 149.70 208.83 C 149.34 212.52 152.69 213.90 156.10 213.74 C 153.58 215.45 158.05 215.54 159.17 216.30 C 158.66 216.53 157.64 216.99 157.13 217.22 C 150.57 217.30 144.48 211.92 137.88 214.85 C 128.95 217.53 119.62 215.68 110.91 213.19 C 102.13 214.40 94.64 220.53 85.32 218.64 C 75.48 216.42 71.39 202.29 59.78 206.21 C 56.73 204.32 54.26 201.69 51.78 199.13 Z" />
</g>
<g id="#814782ff">
<path fill="#814782" opacity="1.00" d=" M 167.15 218.22 C 172.85 209.70 182.25 202.26 193.13 204.05 C 185.40 210.75 176.78 216.49 167.28 220.37 C 167.25 219.83 167.18 218.76 167.15 218.22 Z" />
</g>
<g id="#9c6ab6ff">
<path fill="#9c6ab6" opacity="1.00" d=" M 59.78 206.21 C 71.39 202.29 75.48 216.42 85.32 218.64 C 94.64 220.53 102.13 214.40 110.91 213.19 C 119.62 215.68 128.95 217.53 137.88 214.85 C 144.48 211.92 150.57 217.30 157.13 217.22 C 156.78 217.69 156.08 218.62 155.73 219.09 C 142.96 214.45 130.47 221.27 117.53 219.61 C 107.61 217.33 98.15 221.76 88.40 222.06 C 77.68 219.44 68.31 212.99 59.78 206.21 Z" />
</g>
<g id="#ae54ecff">
<path fill="#ae54ec" opacity="1.00" d=" M 134.18 209.24 C 136.19 208.56 138.11 207.65 140.10 206.92 C 137.50 212.56 128.67 211.10 123.89 210.17 C 127.34 210.13 130.77 209.82 134.18 209.24 Z" />
</g>
<g id="#bc489bff">
<path fill="#bc489b" opacity="1.00" d=" M 159.17 216.30 C 162.64 217.75 164.66 215.94 165.63 212.64 L 166.65 212.88 C 166.84 214.65 167.01 216.43 167.15 218.22 C 167.18 218.76 167.25 219.83 167.28 220.37 C 164.93 221.43 162.48 222.23 160.11 223.23 C 159.36 222.51 158.60 221.78 157.85 221.06 C 157.15 220.38 156.45 219.73 155.73 219.09 C 156.08 218.62 156.78 217.69 157.13 217.22 C 157.64 216.99 158.66 216.53 159.17 216.30 Z" />
</g>
<g id="#855b98ff">
<path fill="#855b98" opacity="1.00" d=" M 117.53 219.61 C 130.47 221.27 142.96 214.45 155.73 219.09 C 156.45 219.73 157.15 220.38 157.85 221.06 C 150.52 223.32 142.59 219.05 135.69 222.70 C 128.95 226.01 121.30 226.21 114.05 227.56 C 111.14 225.70 107.89 226.57 104.78 227.35 C 99.30 225.76 92.92 225.80 88.40 222.06 C 98.15 221.76 107.61 217.33 117.53 219.61 Z" />
</g>
<g id="#7a4e7eff">
<path fill="#7a4e7e" opacity="1.00" d=" M 135.69 222.70 C 142.59 219.05 150.52 223.32 157.85 221.06 C 158.60 221.78 159.36 222.51 160.11 223.23 C 142.62 229.88 123.05 230.79 104.78 227.35 C 107.89 226.57 111.14 225.70 114.05 227.56 C 121.30 226.21 128.95 226.01 135.69 222.70 Z" />
</g>
<g id="#feda53ff">
<path fill="#feda53" opacity="1.00" d=" M 168.11 231.95 C 176.30 230.98 183.44 225.74 191.41 224.64 C 155.59 250.83 102.69 251.81 64.69 228.88 C 64.84 228.42 65.13 227.51 65.27 227.05 C 71.31 229.42 77.58 231.59 84.10 232.02 C 84.35 229.51 80.06 225.74 84.93 227.02 C 110.26 237.54 139.85 237.12 165.15 226.87 C 167.44 227.38 167.00 230.31 168.11 231.95 Z" />
</g>
</svg>
