<?xml version="1.0" encoding="utf-8"?>
<!-- Generator: Adobe Illustrator 26.0.3, SVG Export Plug-In . SVG Version: 6.00 Build 0)  -->
<svg version="1.1" id="Layer_1" xmlns="http://www.w3.org/2000/svg" xmlns:xlink="http://www.w3.org/1999/xlink" x="0px" y="0px"
	 viewBox="0 0 250 250" style="enable-background:new 0 0 250 250;" xml:space="preserve">
<style type="text/css">
	.st0{fill:#FABC3C;}
	.st1{fill:#FADD4A;}
	.st2{fill:#AF7C26;}
	.st3{fill:#346EA8;}
	.st4{fill:#7456BD;}
	.st5{fill:#5071C4;}
	.st6{fill:#7E6DE4;}
	.st7{fill:#AE61F4;}
	.st8{fill:#44578E;}
	.st9{fill:#E978F1;}
	.st10{fill:#DCB35B;}
	.st11{fill:#262217;}
	.st12{fill:#483F47;}
	.st13{fill:#3A4D79;}
	.st14{fill:#27221A;}
	.st15{fill:#237CB2;}
	.st16{fill:#EF67EC;}
	.st17{fill:#E1A841;}
	.st18{fill:#241F25;}
	.st19{fill:#060605;}
	.st20{fill:#E2A83E;}
	.st21{fill:#DFA924;}
	.st22{fill:#DFA823;}
	.st23{fill:#298FC2;}
	.st24{fill:#332E2A;}
	.st25{fill:#EA5AEF;}
	.st26{fill:#FDF05A;}
	.st27{fill:#473E4A;}
	.st28{fill:#FBFB73;}
	.st29{fill:#646464;}
	.st30{fill:#5E5E5E;}
	.st31{fill:#C8C8C8;}
	.st32{fill:#F6F6F6;}
	.st33{fill:#5E5F5E;}
	.st34{fill:#CACACA;}
	.st35{fill:#595959;}
	.st36{fill:#8A7D48;}
	.st37{fill:#A791FD;}
	.st38{fill:#5F5F5F;}
	.st39{fill:#6F91EC;}
	.st40{fill:#585858;}
	.st41{fill:#FBFC7A;}
	.st42{fill:#5C5C5C;}
	.st43{fill:#9F712D;}
	.st44{fill:#6B6B6B;}
	.st45{fill:#385293;}
	.st46{fill:#1A180F;}
	.st47{fill:#24A7D4;}
	.st48{fill:#67596E;}
	.st49{fill:#D4D3D4;}
	.st50{fill:#7A7A79;}
	.st51{fill:#47ACDC;}
	.st52{fill:#0F1218;}
	.st53{fill:#60590C;}
	.st54{fill:#161612;}
	.st55{fill:#767674;}
	.st56{fill:#242217;}
	.st57{fill:#0E6CC3;}
	.st58{fill:#3F61BF;}
	.st59{fill:#6852B4;}
	.st60{fill:#953DA7;}
	.st61{fill:#BC1F92;}
	.st62{fill:#1B1415;}
	.st63{fill:#A19500;}
	.st64{fill:#857900;}
	.st65{fill:#454302;}
	.st66{fill:#9D6F2F;}
	.st67{fill:#ABA3AA;}
	.st68{fill:#929292;}
	.st69{fill:#BFB101;}
	.st70{fill:#ECABED;}
	.st71{fill:#887749;}
	.st72{fill:#AFA7AE;}
	.st73{fill:#1D3551;}
	.st74{fill:#A9A1A8;}
	.st75{fill:#A67733;}
	.st76{fill:#2F63A9;}
	.st77{fill:#0F0E0F;}
	.st78{fill:#545054;}
	.st79{fill:#555155;}
	.st80{fill:#583657;}
	.st81{fill:#5F71D5;}
	.st82{fill:#838383;}
	.st83{fill:#F4D845;}
	.st84{fill:#595458;}
	.st85{fill:#4C484B;}
	.st86{fill:#292829;}
	.st87{fill:#2B2A2B;}
	.st88{fill:#0D0C0F;}
	.st89{fill:#C4C3C4;}
	.st90{fill:#7B7A72;}
	.st91{fill:#4086BE;}
	.st92{fill:#463F3C;}
	.st93{fill:#0E0B10;}
	.st94{fill:#736C72;}
	.st95{fill:#D5D4D2;}
	.st96{fill:#523F5A;}
	.st97{fill:#9C939B;}
	.st98{fill:#4E4B4F;}
	.st99{fill:#564C5A;}
	.st100{fill:#474682;}
	.st101{fill:#AA833D;}
	.st102{fill:#0F0B0F;}
	.st103{fill:#44393F;}
	.st104{fill:#6F6A6F;}
	.st105{fill:#3375B0;}
	.st106{fill:#ED6CEF;}
	.st107{fill:#5F5E60;}
	.st108{fill:#5F5D61;}
	.st109{fill:#EBE8EA;}
	.st110{fill:#A34BC8;}
	.st111{fill:#754B9F;}
	.st112{fill:#8F8D8F;}
	.st113{fill:#757376;}
	.st114{fill:#A7A5A7;}
	.st115{fill:#666467;}
	.st116{fill:#747274;}
	.st117{fill:#5374AE;}
	.st118{fill:#CF040C;}
	.st119{fill:#614482;}
	.st120{fill:#7B5FB0;}
	.st121{fill:#B163D6;}
	.st122{fill:#3D3636;}
	.st123{fill:#493566;}
	.st124{fill:#535795;}
	.st125{fill:#8B838D;}
	.st126{fill:#C4AFC2;}
	.st127{fill:#3B1C20;}
	.st128{fill:#6D5C69;}
	.st129{fill:#767277;}
	.st130{fill:#6E377A;}
	.st131{fill:#E9B39C;}
	.st132{fill:#441F4F;}
	.st133{fill:#F3C3B3;}
	.st134{fill:#717CBB;}
	.st135{fill:#722F80;}
	.st136{fill:#8A7CCC;}
	.st137{fill:#C354CD;}
	.st138{fill:#E459EB;}
	.st139{fill:#F9C6AF;}
	.st140{fill:#A95CB9;}
	.st141{fill:#F7C3C2;}
	.st142{fill:#FACF66;}
	.st143{fill:#FFE73A;}
	.st144{fill:#B04CBF;}
	.st145{fill:#F09283;}
	.st146{fill:#EA6BE7;}
	.st147{fill:#9E83E2;}
	.st148{fill:#EB5F7C;}
	.st149{fill:#FC7C20;}
	.st150{fill:#C78C1B;}
	.st151{fill:#D368E7;}
	.st152{fill:#F8B2BE;}
	.st153{fill:#7D64B1;}
	.st154{fill:#FEE436;}
	.st155{fill:#FEE639;}
	.st156{fill:#FBD281;}
	.st157{fill:#F8D4AF;}
	.st158{fill:#E5AB25;}
	.st159{fill:#FCC095;}
	.st160{fill:#FFE73D;}
	.st161{fill:#B4742E;}
	.st162{fill:#F76F3C;}
	.st163{fill:#BE7EE3;}
	.st164{fill:#9576CD;}
	.st165{fill:#F9D17F;}
	.st166{fill:#C693F5;}
	.st167{fill:#CC38E0;}
	.st168{fill:#8229A4;}
	.st169{fill:#F4774A;}
	.st170{fill:#BF8B4E;}
	.st171{fill:#F9E08D;}
	.st172{fill:#AA96F3;}
	.st173{fill:#E46397;}
	.st174{fill:#F46F46;}
	.st175{fill:#ECCE8F;}
	.st176{fill:#F37949;}
	.st177{fill:#FA6E21;}
	.st178{fill:#D95CE4;}
	.st179{fill:#F9E69F;}
	.st180{fill:#E686F8;}
	.st181{fill:#FBC59D;}
	.st182{fill:#8928AC;}
	.st183{fill:#F57246;}
	.st184{fill:#EC96FE;}
	.st185{fill:#F7894A;}
	.st186{fill:#F9DB88;}
	.st187{fill:#D656ED;}
	.st188{fill:#FA8829;}
	.st189{fill:#E9597B;}
	.st190{fill:#F8B6B8;}
	.st191{fill:#8524A7;}
	.st192{fill:#FEE351;}
	.st193{fill:#FFC00A;}
	.st194{fill:#FDCF0F;}
	.st195{fill:#D757D8;}
	.st196{fill:#FEE551;}
	.st197{fill:#F17D63;}
	.st198{fill:#C941D9;}
	.st199{fill:#FFD710;}
	.st200{fill:#D35CD4;}
	.st201{fill:#C567BD;}
	.st202{fill:#FCDA1E;}
	.st203{fill:#78299C;}
	.st204{fill:#C87995;}
	.st205{fill:#FDD113;}
	.st206{fill:#9527B7;}
	.st207{fill:#E94BE4;}
	.st208{fill:#6B9AF0;}
	.st209{fill:#8CABC0;}
	.st210{fill:#67A4F5;}
	.st211{fill:#4A62AC;}
	.st212{fill:#0BC2FA;}
	.st213{fill:#B162BD;}
	.st214{fill:#0AC1FB;}
	.st215{fill:#E38EFE;}
	.st216{fill:#08C0FB;}
	.st217{fill:#F2693B;}
	.st218{fill:#FCC740;}
	.st219{fill:#6F8FEC;}
	.st220{fill:#FDC73F;}
	.st221{fill:#BE7828;}
	.st222{fill:#7A45C5;}
	.st223{fill:#599AF1;}
	.st224{fill:#A899FB;}
	.st225{fill:#A72FCC;}
	.st226{fill:#AA9FF9;}
	.st227{fill:#A49CFA;}
	.st228{fill:#AA97FA;}
	.st229{fill:#7385EF;}
	.st230{fill:#6D53C5;}
	.st231{fill:#834ECF;}
	.st232{fill:#D876FB;}
	.st233{fill:#E186FA;}
	.st234{fill:#D061F9;}
	.st235{fill:#DC6BF1;}
	.st236{fill:#734DC9;}
	.st237{fill:#E823F8;}
	.st238{fill:#EE1BF8;}
	.st239{fill:#EB1DF8;}
	.st240{fill:#9553A0;}
	.st241{fill:#6546B7;}
	.st242{fill:#B475D7;}
	.st243{fill:#814782;}
	.st244{fill:#9C6AB6;}
	.st245{fill:#AE54EC;}
	.st246{fill:#BC489B;}
	.st247{fill:#855B98;}
	.st248{fill:#7A4E7E;}
	.st249{fill:#FEDA53;}
</style>
<g id="_x23_fabc3cff">
	<path class="st0" d="M40.2,41c39.1-44,114.5-48.3,158.7-10c5.4,7.1,13.8,11.9,18.3,19.9c-6.8-5.7-12.9-13-21.9-15.2
		c-6.5-0.8-11.6-5.1-17.3-7.7c-21.7-11.3-46.8-15.6-71.1-12.1C91.2,19.4,76.2,25.4,62,33c-10.6,3.3-20,9.4-28,17.1
		C35.8,46.8,38.7,44.4,40.2,41z"/>
</g>
<g id="_x23_fadd4aff">
	<path class="st1" d="M106.9,15.9c24.2-3.5,49.4,0.8,71.1,12.1c5.8,2.6,10.8,6.9,17.3,7.7c9,2.2,15.1,9.5,21.9,15.2
		c1.1,1.7,1.9,3.4,2.9,5.1c-3.3-1.2-7.8-5.4-10.4-0.8c-5.4-4.5-9.5-11.2-15.9-14.3c28.8,25.6,44.6,65.4,37.3,103.8
		c-0.8,3.2-1.6,6.4-2.4,9.6c-0.5-1.8-0.8-3.6-1-5.5c5-20.9,4.2-44.7-5.7-63.9c-0.3-2.6-1.4-4.9-3.1-7c-1.1-2.5-2.3-4.9-3.9-7.1
		c-0.3-0.5-0.9-1.4-1.2-1.8C190.4,26.4,133.4,8.5,88.6,25.6c-17,5.8-32,16.5-43.9,29.8c-0.2-5.8,7.7-8.5,10.3-13.6
		c-8.6,5.2-15,13.9-20.9,22c-0.8-4.7-5.1-3.7-8.2-1.9c2.4-4.1,5-8.1,8.1-11.9c8-7.7,17.4-13.7,28-17.1
		C76.2,25.4,91.2,19.4,106.9,15.9z"/>
</g>
<g id="_x23_af7c26ff">
	<path class="st2" d="M88.6,25.6c44.8-17.1,101.8,0.8,125.3,43.4c-12.4-17-28.1-32.2-47.9-40c-8.4-4-17.6-6-26.8-7.4
		c-6.7-0.9-13.5-0.7-20.2-0.7c-14.2,0.6-28.5,4.4-41.1,11c-6.9,3.3-13.7,7.2-19.2,12.8c-5,3.6-9.1,8.2-13.4,12.6
		c-0.1-0.4-0.4-1.4-0.5-1.8C56.6,42.1,71.6,31.4,88.6,25.6z"/>
</g>
<g id="_x23_346ea8ff">
	<path class="st3" d="M77.9,32c12.7-6.6,26.9-10.4,41.1-11l0.1,1c-19.4,3.5-33.2,21.4-41.9,38.2c0-9.5,9.8-16.1,10.2-25.7
		C87.2,29,81.3,32.2,77.9,32z"/>
</g>
<g id="_x23_7456bdff">
	<path class="st4" d="M119,21c6.8,0,13.5-0.3,20.2,0.7c2.5,5.1,2,12.6,7.9,15.2c9.1,4.8,18.4,10.5,22.7,20.2
		c0.2,14.1,16.8,16.8,21.1,29.1l0.2,0.8c0.2,1.4,0.5,2.7,0.7,4.1c-0.5,0-1.4,0.1-1.8,0.1c-2.7-9.7-10.2-16.4-18.1-22
		c-3.6-12-10.1-24-22.8-28.3c-10.9-3-8.8-22.1-22.7-18.9c-2.4-0.1-4.8,0.2-7.1,1l-0.2-1L119,21z"/>
</g>
<g id="_x23_5071c4ff">
	<path class="st5" d="M77.2,60.3c8.7-16.8,22.5-34.8,41.9-38.2l0.2,1C106.6,28.4,94.7,36.4,87,48c-4.8,5.8-6.6,13.2-10.9,19.1
		c-4.5,1.8-8.2,5-12.2,7.7c2.3-5,7.5-7.1,11.3-10.6C76.1,63.1,76.6,61.6,77.2,60.3z"/>
</g>
<g id="_x23_7e6de4ff">
	<path class="st6" d="M119.2,23.1c2.3-0.9,4.7-1.2,7.1-1c-20.4,6.9-39.1,21.9-46.2,43c-1.1,1.2-2.4,2.3-3.8,3.2l-0.3-1.1
		c4.4-6,6.2-13.4,10.9-19.1C94.7,36.4,106.6,28.4,119.2,23.1z"/>
</g>
<g id="_x23_ae61f4ff">
	<path class="st7" d="M126.3,22c13.9-3.2,11.8,15.9,22.7,18.9c12.7,4.2,19.2,16.3,22.8,28.3c8,5.6,15.4,12.3,18.1,22
		c0.4,6.7-1.8,13.2-3.8,19.5l-0.7,0.5c-1.8,0.9-3.6,2-5.3,3c4.1-5.4,6.3-11.9,7.4-18.5c-0.3-11.5-9.5-19.7-17.8-26.4
		c-3.1-7.2-4.5-16.9-12.6-20.5c-6.3-6.5-17.4-8-20-17.8c-1.2-1.6-5.7-0.2-3.5-3.3c1.2-2,1.3-3.4-1.5-2.6
		c-24.5-0.7-42.9,21.3-52.1,42c0-0.5-0.1-1.5-0.1-2.1C87.2,43.9,105.9,28.9,126.3,22z"/>
</g>
<g id="_x23_44578eff">
	<path class="st8" d="M139.2,21.7c9.2,1.4,18.4,3.4,26.8,7.4c2.5,4-1.6,6.8-3,10c2.2,5.1,6.3,9.7,10.7,13.2
		c-2.8,9.3,2.8,16.6,11.2,19.9c3.1,4.1,5.9,8.7,6.1,14c-4.3-12.3-20.9-15-21.1-29.1c-4.3-9.8-13.7-15.5-22.7-20.2
		C141.2,34.2,141.7,26.8,139.2,21.7z"/>
</g>
<g id="_x23_e978f1ff">
	<path class="st9" d="M80.2,67.1c9.2-20.7,27.6-42.7,52.1-42c-22,5.9-45.6,21.3-48.5,45.7c-5.2,2.7-11.5,3.7-15,9
		C68.1,79.9,66.7,80,66,80C69.3,74.2,76.3,72.4,80.2,67.1z"/>
</g>
<g id="_x23_dcb35bff">
	<path class="st10" d="M132.3,25.1c2.8-0.7,2.7,0.6,1.5,2.6c-2.2,3.1,2.3,1.6,3.5,3.3c-4.1,5.1-0.2,10.4,5.6,12.1
		c5.7,0.2,8.4,7.6,14.4,5.8c3.2,5.3,8.1,10.1,8.1,16.8c0.5,2.7-0.1,6.7,3.1,7.9C176.8,76.8,185.7,84,185,94c1,10.1-6,19.9-15,23.9
		c-7.1,2-3.7,11.1-8.7,15.3l-1.1-0.1c1.9-4.4,4.7-8.8,3.5-13.8c11.7-3.3,19.8-14.4,20.3-26.3c-2.1-7-6.6-14.8-14-17
		c-1.4,0-2.8,0-4.2,0l-0.8,0l0.2-0.8c0.1-8.7-3.1-18.6-10-24.3c0.1,6.9-4.2-2.8-7-4c-2.6-1.1-5.4-1.8-8-3c-5-2.7-7.4-6.6-5.6-12.1
		c0.1-2.2-6.3,2.3-4.4-1.7c1.4-3.1-1.4-1.7-3.3-1.3c-1,0.2-2.1,0.4-3.1,0.7c-15,4.8-28.1,15.9-35.2,30c-3,3.9-3.7,8.8-4,13.6
		C73.2,74.2,64.3,85.8,65,97c2.3,8.5,8.6,15.9,16.8,19.4c2,1,4.1,2,6.2,2.7c0.4,1.6,0.7,3.2,1.1,4.8c0.7,3,2.4,5.6,4,8.3
		c0.2,0.5,0.8,1.4,1,1.9c-6.3-1.5-5.2-10.1-9-14.1c-5.2-3.1-11.1-5.2-15-10.2c-7.9-8-7.9-21.1-1.2-30c3.4-5.3,9.8-6.3,15-9
		C86.7,46.4,110.2,31,132.3,25.1z"/>
</g>
<g id="_x23_262217ff">
	<path class="st11" d="M127,28.9c1.9-0.4,4.7-1.8,3.3,1.3c-1.9,4.1,4.4-0.5,4.4,1.7c-1.8,5.4,0.6,9.4,5.6,12.1c-3.8,2.6-7-2-9.8-4
		c3.8-6.7,0-6.1-4.5-4.9C126.2,32.9,126.7,30.9,127,28.9z"/>
</g>
<g id="_x23_483f47ff">
	<path class="st12" d="M123.9,29.6c1-0.3,2.1-0.5,3.1-0.7c-0.4,2-0.8,4-1,6.1c4.4-1.1,8.3-1.8,4.5,4.9c-0.3-3.4-3-4.6-6.1-4.2
		c-3-0.2-5.8,0.4-8.4,2c-3.6,1.8-6.9,4.2-10.2,6.5c2.5-6.4,10-8.9,15.8-11.8C122.6,31.6,125.9,31.2,123.9,29.6z"/>
</g>
<g id="_x23_3a4d79ff">
	<path class="st13" d="M166,29.1c19.8,7.8,35.5,23,47.9,40c0.3,0.4,0.9,1.3,1.2,1.8c1,2.5,1.9,5.1,3.9,7.1c0.3,1.7,0.6,3.3,1,5
		c-1.8-1.6-3.1-4.2-5.9-4.2c-10-1.1-19.6-4.1-29.3-6.6c-8.3-3.3-13.9-10.6-11.2-19.9c-4.4-3.5-8.5-8.1-10.7-13.2
		C164.4,35.9,168.5,33,166,29.1z"/>
</g>
<g id="_x23_27221aff">
	<path class="st14" d="M88.8,59.6c7-14.1,20.1-25.3,35.2-30c2,1.7-1.3,2.1-2.4,2.9c-5.8,2.9-13.3,5.3-15.8,11.8
		c-3.4,3.6-7.3,6.7-10.3,10.7c-2.9-1.9-3.4,4.5-5.3,6.2C89.8,60.8,89.1,60,88.8,59.6z"/>
</g>
<g id="_x23_237cb2ff">
	<path class="st15" d="M77.9,32c3.4,0.3,9.3-2.9,9.6,2.6C87,44.1,77.2,50.7,77.2,60.3c-0.6,1.4-1.1,2.8-2,4
		c-8.5,3-8.7-9.9-13.5-13.9c1.6-3.7,2.3-7.9-3-5.6C64.1,39.2,70.9,35.3,77.9,32z"/>
</g>
<g id="_x23_ef67ecff">
	<path class="st16" d="M137.2,31c2.6,9.8,13.7,11.3,20,17.8c-5.9,1.9-8.7-5.6-14.4-5.8C137,41.3,133.1,36.1,137.2,31z"/>
</g>
<g id="_x23_e1a841ff">
	<path class="st17" d="M198.9,31c37.5,26.1,53.3,77,43.9,120.9c-6.7,23.9-18.7,48.1-38.9,63.1c9.2-9.9,18.7-20.3,24.4-32.9
		c2.8-4.8,4.8-10,6.8-15.2c13.1-31,10.7-67.8-5.8-97c-2.7-4.8-5.7-9.4-9-13.9c-1-1.7-1.9-3.5-2.9-5.1C212.7,42.8,204.3,38,198.9,31z
		"/>
</g>
<g id="_x23_241f25ff">
	<path class="st18" d="M115.9,37.7c2.6-1.6,5.4-2.2,8.4-2c-0.9,1.7-0.4,5.6-3.1,5.2c0.3-5-2.9-0.6-5.1,0.4
		C116.7,39.8,119.1,37.3,115.9,37.7z"/>
</g>
<g id="_x23_060605ff">
	<path class="st19" d="M124.4,35.8c3.1-0.4,5.8,0.8,6.1,4.2c2.8,2,6,6.6,9.8,4c2.6,1.1,5.3,1.9,8,3c-3.5,11,16.4,11.6,13.2,23.4
		c-0.6-0.3-1.8-0.9-2.4-1.2c-0.7-1.3-0.9-3.1-2.1-4.1c-0.4-0.3-1.4-1-1.8-1.3c-1.1-1.1-2.6-1.1-4-0.9c-2.8-0.5-5.6-1.2-8.3-0.1
		c-1.4-0.2-2.9,0-3.8,1c-2,1.2-4,2.2-5.9,3.4c-2.1-0.1-4.1,0.6-6,1.3c-2.4-1.4-4.8-2.9-7.1-4.4c-0.8-1.4-2.4-1.5-3.8-1.3
		c-4.6-0.2-10.4-2.6-14.3,1.1c-0.4,0.5-2.9,1.9-0.9,2c-0.2,0.5-0.7,1.5-0.9,2c-1.6,0.9-3.2,1.8-4.5,3.1c-0.9,0.8,0.2,2.2,0.1,3.2
		c-2.1,0.2-4.3,0.5-6.4,0.6c-1.5-0.5-3-1.1-4.5-1.7c0.3-4.8,1-9.7,4-13.6c0.3,0.4,1,1.2,1.4,1.6c-1.5,4.6-3,14.6,3.5,8.7
		c-3.5-5.4,1.7-9.4,1.8-14.9c3-4,6.9-7.1,10.3-10.7c3.3-2.3,6.6-4.7,10.2-6.5c3.2-0.5,0.7,2.1,0.2,3.6c2.2-1,5.5-5.4,5.1-0.4
		C124,41.3,123.5,37.5,124.4,35.8z"/>
</g>
<g id="_x23_e2a83eff">
	<path class="st20" d="M10.8,86.9C17.1,69.9,26,52.7,40.2,41c-1.5,3.4-4.4,5.9-6.2,9.1c-3,3.7-5.6,7.7-8.1,11.9
		C4.3,93.5,0.4,136.6,16.8,171.2c1.9,4.3,3.6,8.8,6,12.8c6.4,14.4,18.6,24.9,29.2,36C11.2,191.3-5.5,133.8,10.8,86.9z"/>
</g>
<g id="_x23_dfa924ff">
	<path class="st21" d="M193.9,40.9c6.4,3.1,10.4,9.8,15.9,14.3c3.8,5.4,7.5,10.8,11.2,16.3c13,23.4,17.3,51.6,11.3,77.7
		c-0.3-1.5-0.7-3-1.1-4.5C238.5,106.3,222.8,66.5,193.9,40.9z"/>
</g>
<g id="_x23_dfa823ff">
	<path class="st22" d="M34.2,63.8c6-8.1,12.3-16.8,20.9-22c-2.6,5.1-10.6,7.8-10.3,13.6c0.1,0.5,0.4,1.4,0.5,1.8
		c-1.9,2.7-3.9,5.5-6.1,8c-2.3,0.3-3.2,2.7-3,4.8c-2,3.7-4.2,7.3-6.3,11c-1.6,1.2-2.4,3.2-1.6,5.1c-1,3-2.2,5.9-3.1,8.9
		c-0.8,2.6-1.5,5.2-2.3,7.9c-0.3,1-0.6,2-0.9,3.1l-0.9,0.2c-0.3-3.4,3.7-12.5,0.9-11.2C6.4,141.1,29.3,195.8,72,219
		c37.3,21.8,87.6,17.7,120.8-10c0.3,0.3,0.9,0.9,1.2,1.2c-8.7,7.1-18.3,13-28.9,16.7c-25.3,10.2-54.9,10.7-80.2,0.2
		c-20.6-7.5-37.5-22.6-50.5-39.9c-4.5-6.6-8.2-13.8-11.3-21.2C9.6,132.9,13.3,93,34.2,63.8z"/>
</g>
<g id="_x23_298fc2ff">
	<path class="st23" d="M58.7,44.7c5.3-2.3,4.5,1.9,3,5.6c4.8,4,5,16.9,13.5,13.9c-3.8,3.5-9,5.6-11.3,10.6c-0.2,0.3-0.6,0.8-0.8,1.1
		c-1,0.4-2,0.8-2.9,1.1c-5.4-2.8-11.4-3.7-17.4-3c3.5,2.8,11.7,3.6,10.2,9.7c-7,3.3-15,5-21.2,9.9c-2.2,0.3-4.4,0.7-6.6,1.2
		c1-3,2.1-5.9,3.1-8.9c1.4-1.3,2.2-3.2,1.6-5.1c2-3.7,4.3-7.3,6.3-11c1.9-0.8,2.7-2.8,3-4.8c2.2-2.5,4.2-5.2,6.1-8
		C49.6,52.9,53.7,48.3,58.7,44.7z"/>
</g>
<g id="_x23_332e2aff">
	<path class="st24" d="M148.2,46.9c2.8,1.3,7.1,10.9,7,4c6.9,5.7,10.1,15.7,10,24.3c-3-0.4-6-1-9-1.1c-3.5-0.1-7-0.3-10.4-0.4
		c4.6-1.7,11.5,0.6,15.2-1.9c0.1-0.4,0.4-1.2,0.5-1.6C164.6,58.5,144.7,57.9,148.2,46.9z"/>
</g>
<g id="_x23_ea5aefff">
	<path class="st25" d="M157.2,48.8c8.1,3.6,9.5,13.3,12.6,20.5c8.3,6.8,17.5,14.9,17.8,26.4c-1.2,6.6-3.3,13.1-7.4,18.5
		c-9.4,6.2-17.1,15.9-17.2,27.7c-2.6,0-5.3,0.1-7.9,0.1c1.2-3.7,3.1-6.6,6.3-8.8c5.1-4.1,1.6-13.3,8.7-15.3c9-4,16.1-13.9,15-23.9
		c0.7-10-8.2-17.2-16.6-20.5c-3.2-1.2-2.6-5.2-3.1-7.9C165.3,58.9,160.4,54.1,157.2,48.8z"/>
</g>
<g id="_x23_fdf05aff">
	<path class="st26" d="M209.8,55.2c2.6-4.6,7-0.4,10.4,0.8c3.3,4.4,6.3,9.1,9,13.9c-2.8-3.4-8.9-4.4-8.2,1.6
		C217.3,65.9,213.6,60.6,209.8,55.2z"/>
</g>
<g id="_x23_473e4aff">
	<path class="st27" d="M90.2,61.2c1.9-1.7,2.3-8.1,5.3-6.2c-0.1,5.4-5.3,9.5-1.8,14.9C87.1,75.7,88.7,65.8,90.2,61.2z"/>
</g>
<g id="_x23_fbfb73ff">
	<path class="st28" d="M25.9,61.9c3.1-1.8,7.4-2.8,8.2,1.9C13.3,93,9.6,132.9,23.1,165.9c2.8,7.3-2.2,6.3-6.4,5.3
		C0.4,136.6,4.3,93.5,25.9,61.9z"/>
</g>
<g id="_x23_646464ff">
	<path class="st29" d="M101.8,63.9c3.9-3.7,9.6-1.3,14.3-1.1c-0.5,0-1.5,0.1-2,0.1C110,62.9,105.9,63.1,101.8,63.9z"/>
</g>
<g id="_x23_5e5e5eff">
	<path class="st30" d="M142.8,62.7c2.7-1.1,5.5-0.4,8.3,0.1C148.3,62.8,145.6,62.8,142.8,62.7z"/>
	<path class="st30" d="M139,63.8c1-1.1,2.5-1.2,3.8-1c-0.5,0.4-1.6,1.2-2.1,1.7C140.3,64.2,139.4,63.9,139,63.8z"/>
	<path class="st30" d="M156.9,65c1.3,1,1.4,2.8,2.1,4.1C156.2,68.7,153.6,67.2,156.9,65z"/>
</g>
<g id="_x23_c8c8c8ff">
	<path class="st31" d="M101.8,63.9c4.1-0.7,8.2-1,12.3-1c-2.2,2.7-3.9,5.7-5.3,8.9c-4.4-0.3-9.2,1.3-13.3-0.8
		c1.2-1.4,2.9-2.3,4.5-3.1c2.6,1.5,4.5-2.3,0.9-2C98.9,65.8,101.5,64.4,101.8,63.9z"/>
</g>
<g id="_x23_f6f6f6ff">
	<path class="st32" d="M114.2,62.9c0.5,0,1.5-0.1,2-0.1c0.4,1.7,2.4,1.7,3.8,1.3c2.3,1.6,4.7,3.1,7.1,4.4c2.2,1.6,5.3,1.3,6-1.3
		c2-1.1,4-2.2,5.9-3.4c0.4,0.2,1.3,0.5,1.8,0.6c3.6,0.8,7,3.4,6.4,7.5c-3,0.1-5.8,1-8.4,2.3c-1.3,0.5-2.6,1.2-2.7,2.7l-0.3,0.8
		c-1.5,0.5-2.9,1-4.4,1.5c-3.2,0-6.3-0.1-9.4-0.1c-1.2-0.4-2.4-0.9-3.6-1.4c-7.1-2.8-15.2-1.8-22.5-3.5c5.9-0.2,11.7-0.2,17.6-0.4
		c-1-1.6-2.6-2-4.4-2.1C110.2,68.6,111.9,65.6,114.2,62.9z"/>
</g>
<g id="_x23_5e5f5eff">
	<path class="st33" d="M116.1,62.8c1.4-0.2,3-0.1,3.8,1.3C118.5,64.4,116.6,64.5,116.1,62.8z"/>
</g>
<g id="_x23_cacacaff">
	<path class="st34" d="M142.8,62.7c2.8,0,5.5,0.1,8.3,0.1c0.5,1.8,2.7,1.5,4,0.9c0.4,0.3,1.4,1,1.8,1.3c-3.3,2.2-0.7,3.7,2.1,4.1
		c0.6,0.3,1.8,0.9,2.4,1.2c-0.1,0.4-0.3,1.2-0.5,1.6c-4.6,0-9.2,0-13.8-0.1c0.6-4-2.8-6.7-6.4-7.5C141.2,64,142.3,63.2,142.8,62.7z"
		/>
</g>
<g id="_x23_595959ff">
	<path class="st35" d="M151.1,62.8c1.4-0.2,2.9-0.2,4,0.9C153.8,64.4,151.6,64.6,151.1,62.8z"/>
</g>
<g id="_x23_8a7d48ff">
	<path class="st36" d="M36.1,70c-0.2-2.1,0.7-4.4,3-4.8C38.8,67.2,38,69.2,36.1,70z"/>
</g>
<g id="_x23_a791fdff">
	<path class="st37" d="M76.3,68.3c1.4-0.9,2.6-2,3.8-3.2c0,0.5,0,1.5,0.1,2.1C76.3,72.4,69.3,74.2,66,80c-8.5,8.8-6.5,22.6,1.6,31.1
		c3.6,4.2,8.2,7.4,12.5,10.7c-0.5,0.1-1.6,0.2-2.1,0.2l-0.9-0.1c-9-4.9-14.3-13.5-18.7-22.3C56.5,86.4,65.5,74.6,76.3,68.3z"/>
</g>
<g id="_x23_5f5f5fff">
	<path class="st38" d="M100.9,65.9c3.6-0.3,1.7,3.5-0.9,2C100.2,67.4,100.7,66.4,100.9,65.9z"/>
</g>
<g id="_x23_6f91ecff">
	<path class="st39" d="M63.8,74.8c4-2.7,7.7-5.9,12.2-7.7l0.3,1.1c-10.8,6.3-19.8,18.2-18,31.3c4.5,8.8,9.8,17.4,18.7,22.3
		c-0.5,0-1.5-0.1-2-0.1c-1.2-0.7-2.4-1.3-3.7-1.9c-7.9-4.1-10.9-12.2-15.3-19.2c0.1-8.9,2.9-17,7-24.8
		C63.2,75.7,63.6,75.1,63.8,74.8z"/>
</g>
<g id="_x23_585858ff">
	<path class="st40" d="M127,68.5c1.9-0.8,3.9-1.4,6-1.3C132.3,69.8,129.2,70.1,127,68.5z"/>
</g>
<g id="_x23_fbfc7aff">
	<path class="st41" d="M220.9,71.4c-0.7-5.9,5.5-4.9,8.2-1.6c16.5,29.2,18.9,66.1,5.8,97c-2.2,2.9-7.6,5.2-8.4,0
		c2.7-5.6,3.6-11.9,5.7-17.7C238.2,123.1,234,94.8,220.9,71.4z"/>
</g>
<g id="_x23_5c5c5cff">
	<path class="st42" d="M95.6,74.3c0.1-1-1.1-2.4-0.1-3.2c4.1,2.1,9,0.4,13.3,0.8c1.7,0.1,3.4,0.5,4.4,2.1
		C107.4,74.1,101.5,74.1,95.6,74.3z"/>
</g>
<g id="_x23_9f712dff">
	<path class="st43" d="M215.1,70.9c1.6,2.2,2.8,4.6,3.9,7.1C217,76,216.1,73.4,215.1,70.9z"/>
</g>
<g id="_x23_6b6b6bff">
	<path class="st44" d="M138.7,74.2c2.6-1.4,5.5-2.2,8.4-2.3c4.6,0.1,9.2,0.1,13.8,0.1c-3.7,2.4-10.5,0.2-15.2,1.9
		C143.4,74.3,141,75.4,138.7,74.2z"/>
</g>
<g id="_x23_385293ff">
	<path class="st45" d="M184.8,72.2c9.7,2.5,19.3,5.5,29.3,6.6c2.8-0.1,4,2.6,5.9,4.2c0.7,0.7,1.4,1.3,2.1,2
		c1.6,6.7,3.7,13.2,5.2,19.9c2.3,6.6-2.5,11.9-1.3,18.2c-7.2,2.9-15,2.4-22.4,0.6c-7.4,0.1-9.9-7.8-15.8-10.8l0.4-0.8l0.7-0.2
		c7.7,4.2,16.8,8.4,25,2.9c-0.1-3.4-3.8-7.5-0.6-10.4c2.8-3.4,6.2-11.4-0.2-12.4c-7.1-2.6-15.7-0.8-22.1-4.8l-0.2-0.8
		C190.7,80.9,187.9,76.3,184.8,72.2z"/>
</g>
<g id="_x23_1a180fff">
	<path class="st46" d="M65,97c-0.7-11.2,8.2-22.8,19.8-23.8c1.5,0.6,3,1.1,4.5,1.7c-3.4-0.4-5.9,0.6-6.3,4.2
		c-5.8,2.2-12.1,4.9-15.1,10.8c-1.2,2.6-1.4,5.7-0.1,8.3c2,6.5,7.6,10.6,13.3,13.8c2.6,1.3,5.9,5.1,0.6,4.4
		C73.6,112.9,67.3,105.5,65,97z"/>
</g>
<g id="_x23_24a7d4ff">
	<path class="st47" d="M42.8,74.1c6-0.7,12,0.1,17.4,3c-5.5,6.4-3.1,15.4-7.4,21.9c-7.6,1.1-13.4-4.8-21-5.2
		c6.3-4.9,14.2-6.6,21.2-9.9C54.4,77.7,46.3,76.9,42.8,74.1z"/>
</g>
<g id="_x23_67596eff">
	<path class="st48" d="M89.2,74.8c2.1-0.1,4.3-0.4,6.4-0.6c7.4,1.7,15.4,0.7,22.5,3.5c-1.1,0.2-2.2,0.4-3.2,0.7
		c-1.3-0.2-2.6-0.3-3.9-0.4c-1.8,0-5.3-0.1-7-0.1c-1.7,0-3.4-0.1-5.1-0.2l-1.1,0c2.3-1.1,8.5-3.4-1.8-1.8c-3.7,0.1-9.2-0.9-11.6,2.8
		c-0.4,0.1-1.1,0.2-1.5,0.2C83.3,75.4,85.9,74.4,89.2,74.8z"/>
</g>
<g id="_x23_d4d3d4ff">
	<path class="st49" d="M135.9,76.9c0.1-1.6,1.5-2.2,2.7-2.7c2.3,1.2,4.8,0.1,7.1-0.4c3.5,0,7,0.2,10.4,0.4c-3.5,0.5-7,1-10.5,1.5
		C142.5,76.1,139.2,76.4,135.9,76.9z"/>
</g>
<g id="_x23_7a7a79ff">
	<path class="st50" d="M156.2,74.2c3,0.1,6,0.7,9,1.1l-0.2,0.8c-4.1,0-8.2,0.1-12.3,0.2c-1.8-0.1-5.2-0.4-7-0.5
		C149.2,75.2,152.7,74.7,156.2,74.2z"/>
</g>
<g id="_x23_47acdcff">
	<path class="st51" d="M60.1,77.1c1-0.4,1.9-0.8,2.9-1.1c-4.1,7.7-6.9,15.9-7,24.8c-10.2,3.2-20.5,6-31.1,7.3
		c-3.2,1.1-1.7-3.3-2.2-5.1c0.8-2.6,1.5-5.2,2.3-7.9c2.2-0.5,4.4-0.8,6.6-1.2c7.6,0.4,13.4,6.3,21,5.2C57,92.4,54.6,83.5,60.1,77.1z
		"/>
</g>
<g id="_x23_0f1218ff">
	<path class="st52" d="M84.4,78.8c2.5-3.7,8-2.8,11.6-2.8c10.3-1.5,4,0.7,1.8,1.8c-0.7,0.1-2.1,0.3-2.8,0.4
		c-2.4,0.5-4.6,2.2-5.4,4.6c-0.5,1.2-1,2.3-1.5,3.5C86.8,83.8,85.3,81.4,84.4,78.8z"/>
</g>
<g id="_x23_60590cff">
	<path class="st53" d="M135.9,76.9c3.3-0.5,6.5-0.9,9.8-1.2c1.7,0.1,5.2,0.4,7,0.5c1.4,0.6,2.8,1.2,4.2,1.8c0,7.7,0,15.4,0.1,23.1
		c-0.2,0.3-0.7,1-0.9,1.3c-4.3,0.8-8.7,0.6-13,0.7c-6.5-1.4-10-7.1-11.9-13c0.4-2.4,0.4-5,1.4-7.3c0.2,5.9,0.9,13,6.3,16.7
		c1.8,1.8,4.5,2.4,7,2.6c1.5,0,4.4,0,5.9-0.1c0.1-8,0.4-15.9,0-23.9c-1.7-0.2-3.4-0.2-5-0.2c-2.7,0.1-5.3,0.2-7.9,0.5
		c-0.4,0.1-1.3,0.2-1.8,0.2c-0.4-0.2-1.1-0.7-1.5-0.9L135.9,76.9z"/>
</g>
<g id="_x23_161612ff">
	<path class="st54" d="M152.7,76.2c4.1-0.1,8.2-0.1,12.3-0.2l0.8,0c2.4,0.5,3.5,2.1,3.2,4.6c-3.4,2.2-4,6.5-4.2,10.2
		c3.8-3.7,8.8-0.3,11.5,2.9c-0.3,0.6-1,1.8-1.3,2.5c-1.2-2.6-0.9,8.6-4.1,10.9c-0.4-2.2-1-4.3-1.6-6.4c-1.8-2-4.5-3.5-4.7-6.7
		c-0.9,1.6-1.8,3.2-2.7,4.9c-1.7,1.5-3.4,3.1-5.7,3.5c0.2-0.3,0.7-0.9,0.9-1.3c7.1-4.6,10.3-21.1-0.1-23.1
		C155.5,77.5,154.1,76.9,152.7,76.2z"/>
</g>
<g id="_x23_767674ff">
	<path class="st55" d="M165.8,76.1c1.4,0,2.8,0,4.2,0c-0.1,1.7-0.2,3.4-0.2,5.1l-0.8-0.4C169.4,78.2,168.3,76.6,165.8,76.1z"/>
</g>
<g id="_x23_242217ff">
	<path class="st56" d="M170,76c7.4,2.2,11.9,10,14,17c-0.5,11.9-8.6,23-20.3,26.3c-0.6-2-1.8-5,1.5-3.7c0.2-3-0.2-5.9-1.1-8.7
		c0.3-0.5,1-1.6,1.4-2.2c0.2,0.5,0.4,1.6,0.6,2.1c-1.5,4.4,0,8,4.1,5.5c5.9-3.7,11.3-9.9,10.9-17.3c1.4-7.4-5.9-10.9-11.2-13.9
		C169.9,79.4,170,77.7,170,76z"/>
</g>
<g id="_x23_0e6cc3ff">
	<path class="st57" d="M89.7,82.8c0.8-2.4,2.9-4.1,5.4-4.6c-0.6,7,1.3,14.3-1.1,21.1C89.3,95.1,89.8,88.5,89.7,82.8z"/>
</g>
<g id="_x23_3f61bfff">
	<path class="st58" d="M95.1,78.2c0.7-0.1,2.1-0.3,2.8-0.4l1.1,0c0.2,8,0,16,0.3,24c-1.8-0.6-3.7-1.3-5.1-2.7
		C96.4,92.5,94.4,85.1,95.1,78.2z"/>
</g>
<g id="_x23_6852b4ff">
	<path class="st59" d="M98.9,77.8c1.7,0.1,3.4,0.1,5.1,0.2c0,8,0,16,0,24c-0.7,0.1-2.1,0.3-2.8,0.4c-0.5-0.1-1.5-0.4-2.1-0.6
		C98.9,93.9,99.1,85.9,98.9,77.8z"/>
</g>
<g id="_x23_953da7ff">
	<path class="st60" d="M104,78c1.8,0,5.3,0.1,7,0.1c0,7.7,0,15.4,0.1,23.1c-2.3,0.5-4.7,0.8-7.1,0.9C104,94,104,86,104,78z"/>
</g>
<g id="_x23_bc1f92ff">
	<path class="st61" d="M111,78.1c1.3,0.1,2.6,0.2,3.9,0.4c5.4,1.4,7.3,7.7,4.9,12.4c-1.7,4.2-4.1,9-8.7,10.3
		C111,93.4,111,85.8,111,78.1z"/>
</g>
<g id="_x23_1b1415ff">
	<path class="st62" d="M114.9,78.4c1.1-0.2,2.2-0.5,3.2-0.7c1.2,0.5,2.4,1,3.6,1.4c3.1,0.9,6.4,1.4,9.4,0.1c1.5-0.5,2.9-1,4.4-1.5
		c0.4,0.2,1.1,0.7,1.5,0.9c-1.6,1.3-3.1,2.6-4.5,4.2c-1,2.3-1,4.8-1.4,7.3c-0.9-2.3-1.8-5.2-4.3-6.1c-4.4,0.9-5,5.7-6.4,9.2
		c-0.2-0.6-0.6-1.7-0.9-2.3C122.2,86.1,120.3,79.8,114.9,78.4z"/>
</g>
<g id="_x23_a19500ff">
	<path class="st63" d="M138.9,78.4c2.6-0.4,5.3-0.5,7.9-0.5c-1.4,8-0.8,16.1-0.9,24.2c-2.5-0.2-5.2-0.8-7-2.6
		C142.1,93.1,142.4,84.7,138.9,78.4z"/>
</g>
<g id="_x23_857900ff">
	<path class="st64" d="M146.9,77.9c1.7,0,3.4,0,5,0.2c0.5,7.9,0.1,15.9,0,23.9c-1.5,0-4.4,0-5.9,0.1C146.1,94,145.5,85.9,146.9,77.9
		z"/>
</g>
<g id="_x23_454302ff">
	<path class="st65" d="M157,78c10.4,2,7.2,18.5,0.1,23.1C157,93.4,157,85.7,157,78z"/>
</g>
<g id="_x23_9d6f2fff">
	<path class="st66" d="M219,78c1.6,2,2.8,4.4,3.1,7c-0.7-0.6-1.4-1.3-2.1-2C219.6,81.3,219.3,79.6,219,78z"/>
</g>
<g id="_x23_aba3aaff">
	<path class="st67" d="M67.9,89.9c3-5.9,9.2-8.6,15.1-10.8c0.4-0.1,1.1-0.2,1.5-0.2c0.9,2.6,2.4,5,3.8,7.4c0,1.6,0.1,4.9,0.1,6.6
		c-1.2,1.9-2.5,3.8-2.4,6.2c0,0.4-0.1,1.3-0.2,1.7c-2.2,3.6,0.9,11.9-4.6,11.2c-5.7-3.2-11.3-7.2-13.3-13.8
		C67.8,95.4,67.8,92.7,67.9,89.9 M72.9,91.4c-3.2,0.1,1.2,11.9,0.8,3.8c0.6,0,1.7-0.1,2.3-0.1c0.1,3.8-0.8,8.8,3,11
		c0-1.8,0-5.4,0.1-7.2c3.2-0.4,6.2-3.2,4.7-6.7C82.6,86.9,75,86.6,72.9,91.4z"/>
</g>
<g id="_x23_929292ff">
	<path class="st68" d="M121.8,79.1c3.2,0.1,6.3,0.1,9.4,0.1C128.2,80.6,124.9,80,121.8,79.1z"/>
</g>
<g id="_x23_bfb101ff">
	<path class="st69" d="M132.7,82.8c1.3-1.6,2.9-2.9,4.5-4.2c0.4-0.1,1.3-0.2,1.8-0.2c3.5,6.3,3.1,14.7,0.1,21.1
		C133.6,95.8,132.9,88.8,132.7,82.8z"/>
</g>
<g id="_x23_ecabedff">
	<path class="st70" d="M66,80c0.7,0,2.1-0.2,2.8-0.2c-6.7,8.8-6.7,22,1.2,30c-0.6,0.3-1.8,1-2.4,1.3C59.6,102.6,57.5,88.9,66,80z"/>
</g>
<g id="_x23_887749ff">
	<path class="st71" d="M28.2,86.1c-0.8-1.9,0-3.9,1.6-5.1C30.5,82.9,29.7,84.8,28.2,86.1z"/>
</g>
<g id="_x23_afa7aeff">
	<path class="st72" d="M164.8,90.9c0.2-3.8,0.8-8,4.2-10.2l0.8,0.4c5.3,2.9,12.7,6.5,11.2,13.9c0.4,7.4-4.9,13.7-10.9,17.3
		c-3.3,0.2-3.8-2.6-4.1-5.5c-0.2-0.5-0.4-1.6-0.6-2.1c-0.4-1.4-0.9-2.7-1.7-3.9c-0.6-0.7-1.2-1.3-1.9-2c0.9-1.6,1.7-3.3,2.7-4.9
		c0.2,3.2,2.9,4.7,4.7,6.7c-0.1,2.3-1.6,9.5,1.6,6.4c3.2-2.3,2.9-13.5,4.1-10.9c1.7,5.5,4.6,0.5,1.3-2.5
		C173.6,90.6,168.6,87.3,164.8,90.9z"/>
</g>
<g id="_x23_1d3551ff">
	<path class="st73" d="M88.2,86.2c0.5-1.2,1-2.3,1.5-3.5c0.1,5.7-0.4,12.3,4.3,16.5c1.4,1.3,3.3,2,5.1,2.7c0.5,0.1,1.5,0.4,2.1,0.6
		c-1,0.2-2,0.5-3,0.8c-5-1.5-8.3-5.6-9.9-10.4C88.3,91.2,88.2,87.9,88.2,86.2z"/>
</g>
<g id="_x23_a9a1a8ff">
	<path class="st74" d="M120.7,93.1c1.4-3.5,2-8.3,6.4-9.2c2.5,0.9,3.3,3.9,4.3,6.1c1.9,5.9,5.4,11.6,11.9,13l-0.3,0.8
		c-0.3,0.2-0.8,0.8-1.1,1c-1.8,1.6-3.4,3.4-4.9,5.3l-0.8,0.1c-5.1-0.1-10.3-0.3-15.4,0c-2.7-0.3-5.3-1.1-7.8-2.1
		c-0.8-1-1.5-2-2.2-3.1c2.9-1.3,7.6-2.6,7.7-6.3C119.1,96.9,120,95,120.7,93.1 M121.2,96.1c-3.5,3,0.9,4.9,3.8,4.9
		C125.5,98.7,123.8,95.7,121.2,96.1 M131.2,96.2c-2.3,1.1-3.6,6.3,0.2,4.3C135.3,100.9,133.8,96.5,131.2,96.2z"/>
</g>
<g id="_x23_a67733ff">
	<path class="st75" d="M222.1,84.9c9.9,19.2,10.7,43,5.7,63.9c-0.6,1.4-1.1,2.9-1.8,4.3c0.1-1.7,0.3-3.4,0.5-5.1
		c0.3-0.9,0.6-1.9,0.8-2.8c1.1-3.7,1.5-7.6,1.6-11.4c-0.2-9.7,1.7-19.7-1.6-29C225.8,98.1,223.6,91.6,222.1,84.9z"/>
</g>
<g id="_x23_2f63a9ff">
	<path class="st76" d="M191.1,87c6.4,4.1,15,2.3,22.1,4.8c6.3,1,2.9,9,0.2,12.4c-3.2,2.9,0.5,7,0.6,10.4c-8.2,5.5-17.3,1.4-25-2.9
		c6.9-2.9,0.6-14.8,2.9-20.7C191.6,89.8,191.3,88.4,191.1,87z"/>
</g>
<g id="_x23_0f0e0fff">
	<path class="st77" d="M72.9,91.4c2.1-4.8,9.7-4.4,10.9,0.9c1.4,3.5-1.5,6.2-4.7,6.7c-3.4,7-0.2-2.9-3.1-3.8c-0.6,0-1.7,0.1-2.3,0.1
		C73.4,93.9,73.1,92.7,72.9,91.4z"/>
</g>
<g id="_x23_545054ff">
	<path class="st78" d="M67.8,98.2c-1.3-2.5-1.1-5.7,0.1-8.3C67.8,92.7,67.8,95.4,67.8,98.2z"/>
</g>
<g id="_x23_555155ff">
	<path class="st79" d="M73.7,95.2c0.4,8.1-4-3.7-0.8-3.8C73.1,92.7,73.4,93.9,73.7,95.2z"/>
</g>
<g id="_x23_583657ff">
	<path class="st80" d="M111.1,101.1c4.6-1.3,7-6.2,8.7-10.3c0.2,0.6,0.6,1.7,0.9,2.3c-0.7,1.9-1.5,3.8-2.3,5.6
		c-5.8,4.9-13,6.1-20.4,5.3l0.2-0.8c1-0.3,2-0.5,3-0.8c0.7-0.1,2.1-0.3,2.8-0.4C106.4,102,108.8,101.7,111.1,101.1z"/>
</g>
<g id="_x23_5f71d5ff">
	<path class="st81" d="M189.9,91.3c0.5,0,1.4-0.1,1.8-0.1c-2.3,5.9,4.1,17.8-2.9,20.7l-0.7,0.2c-0.5-0.3-1.6-0.9-2.1-1.3
		C188.1,104.4,190.4,98,189.9,91.3z"/>
</g>
<g id="_x23_838383ff">
	<path class="st82" d="M88.3,92.8c1.6,4.8,4.9,8.9,9.9,10.4L98,104c-0.3,0.2-0.8,0.5-1.1,0.7c-5.8,1.2-6.9-10.7-11-5.7
		C85.8,96.7,87.1,94.7,88.3,92.8z"/>
</g>
<g id="_x23_f4d845ff">
	<path class="st83" d="M21.8,94.8c2.9-1.2-1.2,7.8-0.9,11.2c-1.8,15.5-3.7,32.4,3,47.1c-0.3,1.3-0.2,2.5,0.2,3.7
		c3.6,9.8,7.1,20.7,14.8,28.2c30.7,51.1,108.7,60.7,153.2,22c0.5,0.2,1.5,0.6,2,0.8c-0.3,0.3-1,0.9-1.3,1.2
		c-33.3,27.7-83.5,31.8-120.8,10C29.3,195.8,6.4,141.1,21.8,94.8z"/>
</g>
<g id="_x23_595458ff">
	<path class="st84" d="M176.3,93.9c3.3,3,0.4,8-1.3,2.5C175.3,95.7,176,94.5,176.3,93.9z"/>
</g>
<g id="_x23_4c484bff">
	<path class="st85" d="M75.9,95.1c2.9,0.9-0.3,10.8,3.1,3.8c0,1.8,0,5.4-0.1,7.2C75.1,103.9,76.1,98.9,75.9,95.1z"/>
</g>
<g id="_x23_292829ff">
	<path class="st86" d="M121.2,96.1c2.6-0.4,4.3,2.6,3.8,4.9C122.1,101,117.7,99.1,121.2,96.1z"/>
</g>
<g id="_x23_2b2a2bff">
	<path class="st87" d="M131.2,96.2c2.7,0.3,4.1,4.7,0.2,4.3C127.6,102.6,128.9,97.3,131.2,96.2z"/>
</g>
<g id="_x23_0d0c0fff">
	<path class="st88" d="M85.9,99c4-5,5.2,6.8,11,5.7c0.8,0.1,2.3,0.2,3,0.3c0.3,0.7,2.1,1.2,1.3,2c-6.3,8.1-2.9,20,4.5,26.1
		c0-6.9,4.4,2.1,6.3,3.9c-4.5,3.3-8.4-0.9-11.9-3.2c-1.7-1.8-3.2-3.7-4.2-5.9c-0.4-2.6-2.4-2.4-4.5-2.1c-0.2-1.6-0.5-3.2-2.3-1.8
		c-0.4-1.6-0.8-3.2-1.1-4.8c-0.7-2.3,0.7-7.3-3.1-6.7c0.1-3.9,1-7.7,0.9-11.7C85.8,100.3,85.9,99.4,85.9,99z"/>
</g>
<g id="_x23_c4c3c4ff">
	<path class="st89" d="M98,104c7.4,0.8,14.6-0.4,20.4-5.3c-0.1,3.8-4.8,5-7.7,6.3c-1.3,0.2-2.6,0.3-3.9,0.6l-0.9,0.1
		c-1-0.1-1.9-0.3-2.9-0.4c-0.8-0.1-2.3-0.2-3.1-0.3c-0.8-0.1-2.3-0.2-3-0.3C97.2,104.5,97.7,104.2,98,104z"/>
</g>
<g id="_x23_7b7a72ff">
	<path class="st90" d="M156.2,102.4c2.3-0.3,4.1-2,5.7-3.5c0.7,0.6,1.3,1.3,1.9,2c-2.5,1.4-4.8,3.3-7.7,3.8
		c-4.4-0.4-8.8-0.7-13.2-0.8l0.3-0.8C147.5,102.9,151.9,103.2,156.2,102.4z"/>
</g>
<g id="_x23_4086beff">
	<path class="st91" d="M25,107.9c10.6-1.3,20.9-4.1,31.1-7.3c4.4,7,7.4,15.1,15.3,19.2c-10.1,9.5-25.9,4.1-38.3,8.5
		c-2.9-1.3-3.6-7.8,2.7-4.8c5.8-2.1,13.5-1,18-5.8c0.3-5.2-13.2,1.2-10.1-7.7c-7-3.6-14.5-0.3-21.7-0.1c0-1.4,0-2.7,0-4.1
		c0.3-1,0.6-2.1,0.9-3.1C23.3,104.6,21.8,109.1,25,107.9z"/>
</g>
<g id="_x23_463f3cff">
	<path class="st92" d="M81.1,112c5.5,0.7,2.4-7.7,4.6-11.2c0.2,3.9-0.7,7.8-0.9,11.7c3.8-0.7,2.4,4.4,3.1,6.7
		c-2.1-0.8-4.2-1.7-6.2-2.7C87.1,117.1,83.8,113.2,81.1,112z"/>
</g>
<g id="_x23_0e0b10ff">
	<path class="st93" d="M156.1,104.7c2.9-0.5,5.2-2.4,7.7-3.8c0.8,1.2,1.2,2.5,1.7,3.9c-0.3,0.5-1,1.6-1.4,2.2
		c-1.4,1.3-0.4,3.2-0.4,4.8c-9.8-1.2,2.5,18.9-7.4,15.6c-0.8,1.4-1.5,2.8-2.2,4.2c-1.1,1.5-2.1,3.1-3.1,4.7
		c-2.3-0.1-4.5-0.8-6.4-2.1c2.4-2.6,6.1-11.1,5.5-2.9c5.2-5.1,7.6-14.1,4.4-20.8c-0.7-1.9-3.9-4.5-0.3-5.3
		C154.7,105,155.7,104.8,156.1,104.7z"/>
</g>
<g id="_x23_736c72ff">
	<path class="st94" d="M169.3,100.8c0.7,2.1,1.2,4.3,1.6,6.4C167.7,110.2,169.2,103.1,169.3,100.8z"/>
</g>
<g id="_x23_d5d4d2ff">
	<path class="st95" d="M141.8,104.8c0.3-0.2,0.8-0.8,1.1-1c4.4,0.2,8.8,0.5,13.2,0.8c-0.5,0.1-1.4,0.3-1.9,0.5
		C150.1,105,145.9,104.9,141.8,104.8z"/>
</g>
<g id="_x23_523f5aff">
	<path class="st96" d="M99.9,105c0.8,0.1,2.3,0.2,3.1,0.3c-0.3,5.5-1.2,10.9-1,16.4c4.2-1.4,3.5,4.2,5.7,6.3
		c3.7,5.3,8.1,10.6,14.6,12.2c-3.8,2-8.1,2.4-12.3,3c-0.6,0.2-1.8,0.5-2.3,0.7c-1.3-1.1-2.6-2.6-4.5-2.7c0.3-1.8-0.9-4.9-3.2-7.6
		c3.5,2.3,7.4,6.5,11.9,3.2c-1.9-1.8-6.3-10.8-6.3-3.9c-7.4-6.1-10.8-17.9-4.5-26.1C102,106.2,100.2,105.7,99.9,105z"/>
</g>
<g id="_x23_9c939bff">
	<path class="st97" d="M103,105.3c1,0.1,1.9,0.2,2.9,0.4c3.8,4.2,3.5,10,3.1,15.2c-0.2,1.8-2.8,4,0,4.8c-0.3,0.6-0.9,1.7-1.2,2.3
		c-2.3-2.1-1.5-7.8-5.7-6.3C101.8,116.2,102.7,110.8,103,105.3z"/>
</g>
<g id="_x23_4e4b4fff">
	<path class="st98" d="M106.8,105.6c1.3-0.2,2.6-0.4,3.9-0.6c0.7,1.1,1.5,2.1,2.2,3.1C110.8,107.4,108.9,106.4,106.8,105.6z"/>
</g>
<g id="_x23_564c5aff">
	<path class="st99" d="M136.9,110.1c1.5-1.9,3.1-3.7,4.9-5.3c4.1,0.1,8.3,0.2,12.4,0.3c-3.6,0.7-0.3,3.3,0.3,5.3
		c3.2,6.7,0.8,15.8-4.4,20.8c0.5-8.2-3.1,0.4-5.5,2.9c-2.8,1.6-5.4,3.8-8.8,3.9c2.6-2.6,6-4.5,7.7-7.8c0.9-1.7,2.2-3.3,2-5.3
		c0.6-5.8,6.6-14.2,0.4-18.6C143.2,108.2,140.3,109.9,136.9,110.1z"/>
</g>
<g id="_x23_474682ff">
	<path class="st100" d="M227.3,104.8c3.3,9.3,1.4,19.4,1.6,29c-0.3,1.3-0.8,4-1.1,5.3c-6-2.1-12-4.3-18.5-4.2
		c-0.5-10.7-14.2-5.2-20.9-9.3c-3.7-2.7-8.2-2.4-12.5-1.7c0.7-1,1.3-2,2-3.1c3.3-2.6,6.9-5,9.9-8c5.9,2.9,8.3,10.9,15.8,10.8
		c7.4,1.7,15.2,2.3,22.4-0.6C224.7,116.7,229.6,111.4,227.3,104.8z"/>
</g>
<g id="_x23_aa833dff">
	<path class="st101" d="M20.9,106.1l0.9-0.2c0,1.4,0,2.7,0,4.1c-0.9,5.2-1.1,10.5-0.7,15.8c0.2,5.1-0.8,10.3,0.8,15.2
		c0.5,2.3,1.1,4.6,1.7,6.9c0.2,1.7,0.2,3.4,0.4,5.2C17.2,138.5,19.2,121.6,20.9,106.1z"/>
</g>
<g id="_x23_0f0b0fff">
	<path class="st102" d="M105.9,105.7l0.9-0.1c2.1,0.8,4.1,1.8,6.2,2.6c2.5,1,5.1,1.7,7.8,2.1c5.1,1,10.3,1,15.4,0l0.8-0.1
		c3.4-0.2,6.3-1.9,8.9-3.9c6.2,4.3,0.2,12.8-0.4,18.6c-1.4,0.8-2.8,1.6-4.3,2.3l0.1-0.9c1.3-5.9-6.8-5.8-10.3-3.5
		c-3.8-3.3-9.3,0-10,4.5c-2.9,1.3-6.1-0.3-9.2-0.2c-1-0.4-1.9-0.9-2.9-1.3c-2.8-0.8-0.2-3,0-4.8
		C109.3,115.7,109.7,109.9,105.9,105.7 M113.9,112.7c1.5,1.5,3.4,2.6,5.5,3.1c-0.5,1.8,2.7,2.1,3.6,1c0.2,2.1,9.7,2.1,9.1,0
		c0.9,1,4,1,3.8-0.8c1.7-0.3,3.1-1.5,4.5-2.4c3.4-1.7-7.1-2.9-6.1-0.5c-2.9-0.1-5.8-0.1-8.6,0.1l-0.9-0.1c-0.6-2.3-4.8-1.6-6.5-0.8
		c-1-0.8-2.1-1.3-3.3-1.7C113.2,107.5,110.2,113.1,113.9,112.7z"/>
</g>
<g id="_x23_44393fff">
	<path class="st103" d="M163.7,111.7c0-1.6-1-3.5,0.4-4.8c0.9,2.8,1.3,5.7,1.1,8.7c-3.3-1.2-2.1,1.7-1.5,3.7
		c1.2,5.1-1.6,9.4-3.5,13.8c-2.9,0.3-4.9,1.9-5.2,4.8c-4.7,2.6,0.8-4.1-0.8-6.4c0.7-1.4,1.4-2.9,2.2-4.2
		C166.2,130.6,153.9,110.5,163.7,111.7z"/>
</g>
<g id="_x23_6f6a6fff">
	<path class="st104" d="M166.1,106.8c0.2,2.9,0.7,5.7,4.1,5.5C166,114.8,164.6,111.2,166.1,106.8z"/>
</g>
<g id="_x23_3375b0ff">
	<path class="st105" d="M21.9,110c7.3-0.2,14.7-3.4,21.7,0.1c-3.1,8.9,10.4,2.5,10.1,7.7c-4.4,4.9-12.2,3.8-18,5.8
		c-6.3-2.9-5.6,3.5-2.7,4.8c-3.3,3-6.5,6.4-10.9,7.8c-0.3-2.6-0.8-7.8-1.1-10.4C20.8,120.5,20.9,115.2,21.9,110z"/>
</g>
<g id="_x23_ed6cefff">
	<path class="st106" d="M67.6,111.1c0.6-0.3,1.8-1,2.4-1.3c3.8,5,9.8,7.1,15,10.2c3.8,4,2.7,12.6,9,14.1c0.3,0.2,0.8,0.7,1,0.9
		c2.4,5.1,5.4,9.7,11.4,10.6c-3.3,0-6.8,0.3-9.6,2.3c-1.2,0.7-2.5,1.4-3.7,2.1c-2.7,0.5-4.4,2.6-5.4,5c-1,1-2,1.9-2.9,2.9
		c-0.9,0.8-1.9,1.5-2.8,2.2c-3.3-0.3-10,2.5-10.9,0.1c3.7-1,8-0.9,11.1-3.1c1.5-3,0.5-6.9,1-10.2c4.6,3.4,12.2-0.3,9.5-6.5
		c-3.6-6.5-6.7-13.8-12.5-18.6C75.8,118.4,71.2,115.3,67.6,111.1z"/>
</g>
<g id="_x23_5f5e60ff">
	<path class="st107" d="M113.9,112.7c-3.7,0.4-0.7-5.1,1-2C114.6,111.2,114.1,112.2,113.9,112.7z"/>
</g>
<g id="_x23_5f5d61ff">
	<path class="st108" d="M120.7,110.2c5.1-0.3,10.3-0.1,15.4,0C131.1,111.3,125.8,111.2,120.7,110.2z"/>
	<path class="st108" d="M123,116.8c3,0.2,6,0,9.1,0C132.6,118.9,123.2,118.9,123,116.8z"/>
</g>
<g id="_x23_ebe8eaff">
	<path class="st109" d="M113.9,112.7c0.3-0.5,0.8-1.5,1-2c1.2,0.4,2.3,0.9,3.3,1.7c2.1,0.6,4.3,0.9,6.5,0.8l0.9,0.1
		c3.2,0.6,6.6,1.3,9.7,0c1.7-0.1,3.4,0,5,0.4c-1.5,0.9-2.8,2-4.5,2.4c-1.3-0.1-2.7,0-3.8,0.8c-3,0.1-6,0.2-9.1,0c-1-0.8-2.3-1-3.6-1
		C117.3,115.2,115.4,114.2,113.9,112.7z"/>
</g>
<g id="_x23_a34bc8ff">
	<path class="st110" d="M180.1,114.2c1.8-1,3.5-2,5.3-3c-7.4,7.9-22.1,15.8-18.3,28.6c9.3,7.4,23.1,3.9,33.8,8.1
		c2.4,1.7,4.8,3.3,7.2,4.9c-1.4,0.1-2.9,0.2-4.4,0.2c-0.4,0-1.4-0.1-1.8-0.1c-2.7-1.9-5.6-3.4-8.8-4.2c-6.7-2.8-17.5,3.3-21.3-4.8
		c-2.8-1.4-5.9-1.7-9-2.1C163,130.1,170.7,120.4,180.1,114.2z"/>
</g>
<g id="_x23_754b9fff">
	<path class="st111" d="M185.4,111.2l0.7-0.5c0.5,0.3,1.6,1,2.1,1.3l-0.4,0.8c-3,3-6.5,5.4-9.9,8c-5.4,3-12,10.6-8.6,16.9
		c6.8,5.6,16.3,3.7,24.4,4.6c8.6,1.9,19.3,6.6,26.7-0.9c3.2-3.6,8-0.7,7,3.8c-0.2,0.9-0.5,1.9-0.8,2.8c-3.2-2.1-7.3-0.2-10.4,1.1
		c-4.6,3.8-10.1-0.8-15.1-1.2c-10.8-4.1-24.5-0.6-33.8-8.1C163.3,127,178,119.1,185.4,111.2z"/>
</g>
<g id="_x23_8f8d8fff">
	<path class="st112" d="M118.2,112.4c1.7-0.9,6-1.6,6.5,0.8C122.4,113.3,120.3,113,118.2,112.4z"/>
</g>
<g id="_x23_757376ff">
	<path class="st113" d="M134.3,113.1c-1-2.4,9.5-1.2,6.1,0.5c-1.6-0.4-3.3-0.5-5-0.4L134.3,113.1z"/>
</g>
<g id="_x23_a7a5a7ff">
	<path class="st114" d="M125.6,113.2c2.9-0.2,5.8-0.2,8.6-0.1l1.1,0.1C132.2,114.5,128.8,113.8,125.6,113.2z"/>
</g>
<g id="_x23_666467ff">
	<path class="st115" d="M119.4,115.8c1.3,0,2.6,0.2,3.6,1C122,117.8,118.9,117.6,119.4,115.8z"/>
</g>
<g id="_x23_747274ff">
	<path class="st116" d="M132,116.7c1.1-0.8,2.4-0.9,3.8-0.8C136,117.8,132.9,117.7,132,116.7z"/>
</g>
<g id="_x23_5374aeff">
	<path class="st117" d="M71.4,119.9c1.2,0.6,2.5,1.2,3.7,1.9c0.7,1,1.4,2,2.1,2.9c-7.8,1.1-19.1-0.1-23.6,7.9
		c-1.9,3.6,1.9,7.5,5.6,6.7c-1.9,0.7-3.7,1.4-5.5,2.1c-4-0.3-6.8-3.3-10.1-5.2c-7.6-1-15,1.5-21.7,4.8c-1.6-4.9-0.6-10.2-0.8-15.2
		c0.3,2.6,0.8,7.8,1.1,10.4c4.4-1.4,7.6-4.8,10.9-7.8C45.5,123.9,61.3,129.4,71.4,119.9z"/>
</g>
<g id="_x23_cf040cff">
	<path class="st118" d="M121,127.2c0.7-4.6,6.2-7.9,10-4.5c3.5-2.3,11.6-2.4,10.3,3.5C134.6,126.8,127.8,127,121,127.2z"/>
</g>
<g id="_x23_614482ff">
	<path class="st119" d="M169.3,137.7c-3.3-6.4,3.2-13.9,8.6-16.9c-0.7,1-1.3,2.1-2,3.1c-3.7,2.4-6,7.3-4.2,11.4
		c8.7,6.3,20.4,2.4,30.4,4.6c3.5,0.7,5.9-2.2,7.3-5c6.5-0.1,12.5,2.1,18.5,4.2c0.3-1.3,0.8-4,1.1-5.3c0,3.8-0.4,7.7-1.6,11.4
		c1-4.5-3.7-7.3-7-3.8c-7.3,7.5-18,2.9-26.7,0.9C185.6,141.4,176.1,143.3,169.3,137.7z"/>
</g>
<g id="_x23_7b5fb0ff">
	<path class="st120" d="M75.1,121.8c0.5,0,1.5,0.1,2,0.1L78,122c5.3,3.8,8,9.6,10.6,15.4c3.8,6.4-4.5,4.8-7.3,5.8
		c-7.9-1.9-16.2-1.4-24.1,0.1c-1.2-0.6-2.3-1.3-3.5-1.9c1.8-0.7,3.7-1.4,5.5-2.1c7.9-1.3,15.8-2.2,23.8-2.5c1.4-5-1.2-10.2-5.8-12.1
		C76.5,123.8,75.8,122.8,75.1,121.8z"/>
</g>
<g id="_x23_b163d6ff">
	<path class="st121" d="M78,122c0.5-0.1,1.6-0.2,2.1-0.2c5.8,4.8,8.9,12.1,12.5,18.6c2.7,6.2-4.9,9.9-9.5,6.5
		c-0.5-0.2-1.5-0.5-2-0.7c-6.1-0.3-12.2,0.1-18.3,0.7c0.3-0.5,1-1.5,1.3-2c5.7-0.7,11.4-0.9,17.1-1.6c2.8-1,11.1,0.6,7.3-5.8
		C86,131.7,83.3,125.8,78,122z"/>
</g>
<g id="_x23_3d3636ff">
	<path class="st122" d="M89.1,123.9c1.8-1.4,2.1,0.3,2.3,1.8c2.1-0.3,4.1-0.5,4.5,2.1c-0.9,1.5-1.9,2.9-2.9,4.3
		C91.5,129.5,89.8,126.9,89.1,123.9z"/>
</g>
<g id="_x23_493566ff">
	<path class="st123" d="M175.9,123.8c4.3-0.7,8.8-1,12.5,1.7c6.7,4.1,20.5-1.3,20.9,9.3c-1.4,2.8-3.8,5.7-7.3,5
		c-10-2.2-21.7,1.7-30.4-4.6C169.9,131.2,172.2,126.3,175.9,123.8z"/>
</g>
<g id="_x23_535795ff">
	<path class="st124" d="M53.6,132.6c4.5-8,15.8-6.8,23.6-7.9c4.6,1.9,7.2,7.2,5.8,12.1c-8,0.3-15.9,1.2-23.8,2.5
		C55.5,140.1,51.7,136.2,53.6,132.6z"/>
</g>
<g id="_x23_8b838dff">
	<path class="st125" d="M141.2,127.1c1.4-0.7,2.8-1.5,4.3-2.3c0.3,2-1,3.7-2,5.3c-0.6-1-1.3-1.8-2.4-2.3L141.2,127.1z"/>
</g>
<g id="_x23_c4afc2ff">
	<path class="st126" d="M107.7,128.1c0.3-0.6,0.9-1.7,1.2-2.3c1,0.4,1.9,0.9,2.9,1.3c2.5,1.1,5.1,1.9,7.9,2.2
		c5.7,0.5,11.9,1.7,17.6,0.1c1.3-0.4,2.6-0.9,3.9-1.5c1.1,0.5,1.8,1.3,2.4,2.3c-1.7,3.3-5.1,5.3-7.7,7.8c-0.6,0.3-1.8,0.8-2.4,1.1
		c-3.7,0.5-7.4,0.9-11.2,1.2C115.8,138.6,111.5,133.3,107.7,128.1z"/>
</g>
<g id="_x23_3b1c20ff">
	<path class="st127" d="M121,127.2c6.8-0.2,13.5-0.4,20.3-1l-0.1,0.9l-0.1,0.7c-1.3,0.6-2.5,1.1-3.9,1.5c-5.9-0.2-11.7-0.3-17.6-0.1
		c-2.7-0.3-5.4-1.1-7.9-2.2C114.9,126.9,118.1,128.5,121,127.2z"/>
</g>
<g id="_x23_6d5c69ff">
	<path class="st128" d="M93,132.2c1-1.4,1.9-2.9,2.9-4.3c1,2.2,2.5,4.2,4.2,5.9c2.2,2.7,3.4,5.8,3.2,7.6c-3.7,0.8-5.2-4.8-8.2-6.4
		c-0.2-0.2-0.8-0.7-1-0.9C93.8,133.6,93.3,132.7,93,132.2z"/>
</g>
<g id="_x23_767277ff">
	<path class="st129" d="M119.8,129.3c5.8-0.2,11.7-0.2,17.6,0.1C131.6,131,125.5,129.8,119.8,129.3z"/>
</g>
<g id="_x23_6e377aff">
	<path class="st130" d="M151.1,136.2c0.9-1.6,2-3.2,3.1-4.7c1.6,2.3-3.8,9,0.8,6.4c-0.4,1.4-1.2,2.7-2.1,3.9
		c-1.6,0.6-2.9,1.8-4.1,3.1c-4.7,2.9-3.5-1.6-8-0.6c-0.2-0.3-0.5-1-0.7-1.4l-0.3-0.8C144.2,141.7,149.8,141.2,151.1,136.2z"/>
</g>
<g id="_x23_e9b39cff">
	<path class="st131" d="M155,138c0.3-3,2.3-4.6,5.2-4.8l1.1,0.1c-3.2,2.2-5.1,5.1-6.3,8.8c-0.5,0-1.5-0.1-2.1-0.2
		C153.8,140.6,154.6,139.4,155,138z"/>
</g>
<g id="_x23_441f4fff">
	<path class="st132" d="M135.9,138c3.4-0.1,6.1-2.2,8.8-3.9c1.9,1.4,4.1,2,6.4,2.1c-1.3,5-6.9,5.5-11.2,5.9
		c-0.4-0.1-1.3-0.2-1.7-0.3c-1.7-0.6-3.9-0.9-4.7-2.7C134.1,138.8,135.3,138.2,135.9,138z"/>
</g>
<g id="_x23_f3c3b3ff">
	<path class="st133" d="M95,135c3,1.6,4.6,7.2,8.2,6.4c1.9,0.1,3.1,1.6,4.5,2.7c1.5,2.2,3.7,3.2,6.4,3.2c1.4,1.6,2.7,3.1,4.1,4.7
		c-6.7-3.4-13.8-4.8-21.4-4.1c2.8-2,6.3-2.2,9.6-2.3C100.4,144.7,97.4,140.1,95,135z"/>
</g>
<g id="_x23_717cbbff">
	<path class="st134" d="M21.9,141c6.7-3.3,14.1-5.7,21.7-4.8c3.3,1.9,6,4.9,10.1,5.2c1.1,0.7,2.3,1.3,3.5,1.9
		c-10.8,4-22.8,1.5-33.5,4.6C23,145.6,22.5,143.3,21.9,141z"/>
</g>
<g id="_x23_722f80ff">
	<path class="st135" d="M122.3,140.3c3.7-0.3,7.5-0.7,11.2-1.2c0.9,1.9,3,2.1,4.7,2.7c-9.3-2.7-16.5,2-24.1,5.5c-1-1.6-2.4-3-4-3.9
		C114.2,142.7,118.5,142.2,122.3,140.3z"/>
</g>
<g id="_x23_8a7cccff">
	<path class="st136" d="M57.1,143.4c7.9-1.5,16.2-2,24.1-0.1c-5.7,0.7-11.4,0.9-17.1,1.6c-9.9,0.5-18.7,5.4-27,10.2
		c-3.1,2.6-8.1,0.4-10.4,3.9c-0.5-0.7-1.1-1.5-1.7-2.2c0.6-1.3,0.4-3-1-3.7c-0.1-1.7-0.2-3.4-0.4-5.2
		C34.3,144.8,46.3,147.4,57.1,143.4z"/>
</g>
<g id="_x23_c354cdff">
	<path class="st137" d="M114.1,147.3c7.7-3.4,14.8-8.2,24.1-5.5c0.4,0.1,1.3,0.2,1.7,0.3l0.3,0.8c-5,0.6-10.6-1.2-15.3,0.9
		c-0.3,0.2-0.9,0.6-1.2,0.8l-0.7,0.5c-1.8,3.4-0.8,8.1-1.5,12.1c-0.8-1.9-1.7-3.8-3.3-5.2C116.8,150.4,115.4,148.8,114.1,147.3z"/>
</g>
<g id="_x23_e459ebff">
	<path class="st138" d="M148.9,144.9c1.1-1.3,2.4-2.5,4.1-3.1c0.5,0,1.6,0.1,2.1,0.2c-0.3,0.5-0.8,1.4-1.1,1.9
		c-3.1,4.7-5.8,9.6-8.7,14.4c-0.1-0.4-0.5-1.3-0.6-1.7c-1.3-3.3,0.4-6,2-8.7C147.3,146.8,148.1,145.9,148.9,144.9z"/>
</g>
<g id="_x23_f9c6afff">
	<path class="st139" d="M155,142c2.6-0.1,5.3-0.1,7.9-0.1c3,0.4,6.2,0.7,9,2.1c-0.5,2.1-1.1,4.2-1.6,6.2c1.5-9.1-10.7-6.6-16.6-5.5
		l0.1-0.9C154.2,143.4,154.7,142.5,155,142z"/>
</g>
<g id="_x23_a95cb9ff">
	<path class="st140" d="M107.7,144c0.6-0.2,1.8-0.5,2.3-0.7c1.6,1,3,2.4,4,3.9C111.4,147.3,109.2,146.2,107.7,144z"/>
</g>
<g id="_x23_f7c3c2ff">
	<path class="st141" d="M124.9,143.8c4.7-2.1,10.3-0.3,15.3-0.9c0.2,0.4,0.5,1,0.7,1.4c0.9,3.5,2,7.6,5.6,3.6
		c-1.6,2.7-3.3,5.4-2,8.7c-5-2.5-1.6-12.8-8.3-12.4C132.4,144.1,128.7,144,124.9,143.8z"/>
</g>
<g id="_x23_facf66ff">
	<path class="st142" d="M123.7,144.6c0.3-0.2,0.9-0.6,1.2-0.8c3.8,0.2,7.5,0.3,11.3,0.3c-2.5,0.3-7.6,0.8-10.1,1.1
		c-0.2,7.9-0.2,15.8-0.1,23.7c0.3,2.6-1.7,7.3,2,7.1l-0.1,0.8c-1.3,0.5-2.6,0.9-3.8,1.4C123.9,167.1,124.2,155.8,123.7,144.6z"/>
</g>
<g id="_x23_ffe73aff">
	<path class="st143" d="M136.2,144.1c6.6-0.4,3.3,9.9,8.3,12.4c0.1,0.4,0.5,1.3,0.6,1.7c4.3,1.2,6.2-9.6,8.6-13.5
		c5.9-1.1,18.1-3.7,16.6,5.5c-0.6,2.8-1.2,5.7-1.7,8.5c-0.9,2.9-1.6,5.9-1.6,9.1c-0.1,0.6-0.4,1.6-0.5,2.2
		c-4.9-0.5-16.2-4.7-12.7,5.1l-0.9-0.1c0.2-4.4,0.5-8.9,0.9-13.3c-1.6,1.8-2.7,3.9-3.4,6.2c-1,2.8-2.1,5.6-3.3,8.3
		c-1.3-0.1-2.6-0.1-4-0.2c-1.7-3.6-0.9-12.6-4.6-12.2c-2.5,0.5-1.3,3.5-1.7,5.3c-3.6-0.4-7.4-1.3-10.9,0c0-7.9-0.1-15.8,0.1-23.7
		C128.6,145,133.7,144.4,136.2,144.1z"/>
</g>
<g id="_x23_b04cbfff">
	<path class="st144" d="M140.9,144.3c4.5-1,3.3,3.5,8,0.6c-0.8,1-1.6,1.9-2.4,2.9C142.9,151.9,141.8,147.7,140.9,144.3z"/>
</g>
<g id="_x23_f09283ff">
	<path class="st145" d="M145.1,158.2c3-4.8,5.6-9.7,8.7-14.4l-0.1,0.9C151.4,148.6,149.4,159.4,145.1,158.2z"/>
</g>
<g id="_x23_ea6be7ff">
	<path class="st146" d="M171.9,144c3.9,8.1,14.6,2,21.3,4.8c-3.5,0.2-7.1-0.3-10.5,0.9c-4.2,1.7-8.2,4.4-10.8,8.2
		c-0.8,1.1-1.5,2.2-2.3,3.3c-0.3-0.6-0.8-1.9-1.1-2.5c0.5-2.9,1.1-5.7,1.7-8.5C170.8,148.1,171.4,146.1,171.9,144z"/>
</g>
<g id="_x23_9e83e2ff">
	<path class="st147" d="M37.1,155.1c8.4-4.8,17.1-9.7,27-10.2c-0.3,0.5-1,1.5-1.3,2c-5.7,2.1-12,4-16,8.9c-1,0.7-2,1.4-2.9,2.2
		c-3.5,5.2-7.1,9.5-14.3,9c-1.1-2.6-1.9-5.3-2.9-7.9C29,155.5,34,157.7,37.1,155.1z"/>
</g>
<g id="_x23_eb5f7cff">
	<path class="st148" d="M121.5,157.2c0.7-4-0.3-8.7,1.5-12.1c-0.5,4.7,1,9.8-1.2,14.3C121.8,158.8,121.6,157.7,121.5,157.2z"/>
</g>
<g id="_x23_fc7c20ff">
	<path class="st149" d="M123,145.1l0.7-0.5c0.5,11.2,0.2,22.5,0.4,33.7l-0.9-0.4c-0.4-4.5,0.4-9.2-1-13.5c-0.1-1.7-0.2-3.4-0.3-5.1
		C124,154.9,122.6,149.8,123,145.1z"/>
</g>
<g id="_x23_c78c1bff">
	<path class="st150" d="M231.2,144.7c0.4,1.5,0.8,3,1.1,4.5c-2.1,5.8-3,12.1-5.7,17.7c-2.9,6.2-5.5,12.6-9.8,18.1
		c-6.2,9.5-14.4,17.6-22.8,25.2c-0.3-0.3-0.9-0.9-1.2-1.2c0.3-0.3,1-0.9,1.3-1.2c16.7-13.6,29-32.7,34.6-53.5
		C229.6,151.1,230.4,147.9,231.2,144.7z"/>
</g>
<g id="_x23_d368e7ff">
	<path class="st151" d="M62.8,146.9c6.1-0.6,12.2-1,18.3-0.7c-3.5,0.6-7,1.5-10.4,2.6c-5.3,1.5-11,1.7-15.9,4.3
		c-0.4,0.3-1.3,0.9-1.7,1.2c1.5,11.7,4,23.3,6.8,34.8c-0.2,0.4-0.6,1.2-0.8,1.6c-5.4-10.6-4.2-23.3-8.4-34.4c-0.5,0-1.4-0.1-1.8-0.1
		c-0.2,1.5-0.7,4.4-0.9,5.8l-1,0c0-2.1-0.1-4.1-0.2-6.1C50.8,150.9,57.1,149,62.8,146.9z"/>
</g>
<g id="_x23_f8b2beff">
	<path class="st152" d="M81.2,146.2c0.5,0.2,1.5,0.5,2,0.7c-0.4,3.3,0.5,7.2-1,10.2l0-1.1c2.9-8.6-2.3-8.4-7.9-6.8
		c-0.9-0.1-2.6-0.3-3.5-0.4C74.2,147.6,77.6,146.8,81.2,146.2z"/>
</g>
<g id="_x23_7d64b1ff">
	<path class="st153" d="M216.1,149.1c3.1-1.2,7.3-3.2,10.4-1.1c-0.2,1.7-0.3,3.4-0.5,5.1c-0.9,2.6-1.6,5.3-2.7,7.8
		c-4.6-3.4-10.5-4.6-15.2-8.1c-2.4-1.6-4.8-3.3-7.2-4.9C206,148.3,211.5,152.9,216.1,149.1z"/>
</g>
<g id="_x23_fee436ff">
	<path class="st154" d="M74.2,149.2c5.6-1.6,10.8-1.8,7.9,6.8c-3.5,1.2-9.2,0.6-11,4.2c0.8,2.4,7.6-0.4,10.9-0.1
		c0.1,2.7,0.1,5.4,0.2,8.1c-1.3,0-2.7,0-4,0.1c-6.2-1.6-12.9-3.7-19.2-1.4c-0.7-4.5-1.6-9.1-1.9-13.7
		C62.7,151.4,68.6,150.7,74.2,149.2z"/>
</g>
<g id="_x23_fee639ff">
	<path class="st155" d="M93.1,149.9c1.2-0.7,2.5-1.4,3.7-2.1c7.6-0.6,14.7,0.7,21.4,4.1c1.6,1.4,2.5,3.3,3.3,5.2
		c0.1,0.5,0.3,1.6,0.3,2.2c0.1,1.7,0.2,3.4,0.3,5.1c-0.1,0.4-0.4,1.1-0.5,1.5c-0.4,1.1-0.9,2.2-1.5,3.3c-4.3-1.2-8.8-1.2-13.2-1.2
		l0.2-0.8c0.5-0.3,1.4-1,1.8-1.3c2.6-2.1,1.1-9.9-3.2-8.5c-2.5,0.4-5.3,0.2-7.1,2.2c-0.3,0.3-0.9,0.9-1.2,1.2
		c-1,2.6-0.4,5.5,0.4,8.1c-2.9-2.2-8.1-4.9-10.5-0.8c-0.8-4.4-0.5-8.9,0.3-13.2C89.9,153.7,91.6,151.9,93.1,149.9z"/>
</g>
<g id="_x23_fbd281ff">
	<path class="st156" d="M54.9,153c4.9-2.6,10.6-2.8,15.9-4.3c0.9,0.1,2.6,0.3,3.5,0.4c-5.7,1.6-11.5,2.3-17.1,4
		c0.3,4.6,1.2,9.1,1.9,13.7c0.8,6.5,2.5,12.8,4.2,19.1c-0.5,0-1.4-0.1-1.9-0.1C59.7,174.8,56,164.1,54.9,153z"/>
</g>
<g id="_x23_f8d4afff">
	<path class="st157" d="M182.7,149.6c3.4-1.2,7-0.7,10.5-0.9c3.2,0.8,6.1,2.4,8.8,4.2c1.8,2.2,3.4,4.7,4.9,7.1
		c0.9,3.8,1.5,7.7-0.6,11.2C208.9,157.8,195.7,147.3,182.7,149.6z"/>
</g>
<g id="_x23_e5ab25ff">
	<path class="st158" d="M226,153.1c0.6-1.4,1.2-2.9,1.8-4.3c0.2,1.9,0.5,3.7,1,5.5c-5.6,20.8-17.9,39.8-34.6,53.5
		c-0.5-0.2-1.5-0.6-2-0.8c7-7.2,16-13.5,19.8-23.2c1.1-2.3,2.2-4.5,3.2-6.8c1.1-1.6,2.1-3.2,3.1-4.9c2.2-3.5,3.3-7.5,5.1-11.2
		C224.4,158.4,225.1,155.7,226,153.1z"/>
</g>
<g id="_x23_fcc095ff">
	<path class="st159" d="M87.8,154.9c0.9-2.4,2.7-4.5,5.4-5C91.6,151.9,89.9,153.7,87.8,154.9z"/>
</g>
<g id="_x23_ffe73dff">
	<path class="st160" d="M171.9,157.9c2.6-3.8,6.5-6.5,10.8-8.2c12.9-2.4,26.2,8.1,23.6,21.6c-0.2,0.9-0.5,1.8-0.7,2.7
		c-0.3,0.5-1,1.6-1.3,2.1c-1.5-5.2-9.4-3.2-13.7-3.4l0.4-0.6c0.3-0.2,0.8-0.8,1.1-1c0.8-0.6,1.5-1.2,2.2-1.9
		c2.4-3.4,0.4-10.6-4.5-8.7c-2.1,0.5-4.7,0.3-5.9,2.4c-0.3,0.5-1,1.5-1.4,2c-3.4,5.6,1.9,9.1,6.6,8.5c-5.5,3.6-10.3-5.4-16.6-2.2
		C170.1,167.3,171.1,162.2,171.9,157.9z"/>
</g>
<g id="_x23_b4742eff">
	<path class="st161" d="M24,153.1c1.4,0.7,1.6,2.4,1,3.7l-0.8,0C23.8,155.6,23.7,154.4,24,153.1z"/>
</g>
<g id="_x23_f76f3cff">
	<path class="st162" d="M53.2,154.2c0.4-0.3,1.3-0.9,1.7-1.2c1.1,11.1,4.8,21.8,6.4,32.9c0.5,0,1.4,0.1,1.9,0.1
		c4.3-0.4,12.9,0,10.2-6.1l0.9-0.2c0.5,1.7,0.9,3.5,0.9,5.4c-5.1,1-10.2,2.4-15.2,3.9C57.2,177.5,54.7,165.9,53.2,154.2z"/>
</g>
<g id="_x23_be7ee3ff">
	<path class="st163" d="M202,153c0.5,0,1.4,0.1,1.8,0.1c5.7,5.3,14.9,10,14.5,19c-1,1.7-2,3.3-3.1,4.9c-9.5,11.9-22.6,21-38.3,21.9
		c1.2-1.2,2.7-2.1,4.3-2.6c14.2-1.8,29.7-11.9,30.8-27.4c0.5-3.8-3-6.2-5.1-8.8C205.3,157.6,203.8,155.2,202,153z"/>
</g>
<g id="_x23_9576cdff">
	<path class="st164" d="M203.8,153.1c1.5-0.1,2.9-0.2,4.4-0.2c4.6,3.5,10.6,4.7,15.2,8.1c-1.7,3.7-2.9,7.7-5.1,11.2
		C218.7,163.1,209.4,158.4,203.8,153.1z"/>
</g>
<g id="_x23_f9d17fff">
	<path class="st165" d="M84.8,157.8c1-1,2-1.9,2.9-2.9c-0.8,4.3-1.1,8.8-0.3,13.2c1.3,4.1,4.9,6.9,8.7,8.7c-1,0.3-2,0.6-3,0.9
		c-5.8-4.5-9.6-10.3-8.5-18C84.7,159.2,84.8,158.3,84.8,157.8z"/>
</g>
<g id="_x23_c693f5ff">
	<path class="st166" d="M43.9,157.9c0.9-0.8,1.9-1.4,2.9-2.2c0.1,2,0.2,4.1,0.2,6.1c-3.9,9.8-1.4,20.8,3.3,29.8
		c5.2,5.8,13.6,5.6,20.7,4.4c6.5,3.3,5.6,12.9,11.9,17.1c0.2-1.5,0.4-3,0.6-4.5c0.4,1.7,0.6,3.5,0.8,5.2c0.7,4.4-5-0.7-5.1-2.1
		c-3.7-4.1-6.3-12.9-13.7-10.2c-4.7,0.6-9-2-13.7-2.5c-3.3-3-6.4-6.2-8.9-10C42.5,178.7,40.9,168.1,43.9,157.9z"/>
</g>
<g id="_x23_cc38e0ff">
	<path class="st167" d="M48,161.9c0.2-1.5,0.7-4.4,0.9-5.8c1.3,11.6,4.3,22.9,6.8,34.3c-0.3,2.3,3.3,2.2,3.5,0.2
		c0.2-0.4,0.6-1.2,0.8-1.6c5-1.6,10-2.9,15.2-3.9c-1.3,8.8-13.4,7.1-20,8.9C52.6,183.3,50.6,172.5,48,161.9z"/>
</g>
<g id="_x23_8229a4ff">
	<path class="st168" d="M48.9,156c0.5,0,1.4,0.1,1.8,0.1c4.2,11.1,3,23.8,8.4,34.4c-0.2,2-3.8,2.1-3.5-0.2
		C53.2,178.9,50.2,167.6,48.9,156z"/>
</g>
<g id="_x23_f4774aff">
	<path class="st169" d="M71.1,160.1c1.9-3.6,7.5-2.9,11-4.2l0,1.1C79.1,159.3,74.8,159.2,71.1,160.1z"/>
</g>
<g id="_x23_bf8b4eff">
	<path class="st170" d="M24.2,156.8l0.8,0c0.6,0.7,1.1,1.5,1.7,2.2c1,2.6,1.9,5.3,2.9,7.9c2.1,6.6,7.1,11.7,9.4,18.1
		C31.4,177.5,27.8,166.7,24.2,156.8z"/>
</g>
<g id="_x23_f9e08dff">
	<path class="st171" d="M105.8,157.4c4.4-1.4,5.9,6.4,3.2,8.5C109.8,162.3,108.7,159.4,105.8,157.4z"/>
</g>
<g id="_x23_aa96f3ff">
	<path class="st172" d="M29.6,166.9c7.2,0.5,10.8-3.8,14.3-9c-3,10.2-1.4,20.8-1,31.2c-1.2-1.4-2.5-2.8-3.9-4.1
		C36.7,178.6,31.7,173.5,29.6,166.9z"/>
</g>
<g id="_x23_e46397ff">
	<path class="st173" d="M82,160.1c1-0.7,1.9-1.5,2.8-2.2c0,0.5-0.1,1.4-0.2,1.9c-0.3,2.8-0.6,5.5-0.9,8.3c-0.4,0.1-1.2,0.2-1.6,0.2
		C82.1,165.5,82,162.8,82,160.1z"/>
</g>
<g id="_x23_f46f46ff">
	<path class="st174" d="M98.8,159.6c1.8-2,4.6-1.9,7.1-2.2c2.9,1.9,4,4.9,3.2,8.5c-0.5,0.3-1.4,1-1.8,1.3
		C108,162.2,104.5,157.9,98.8,159.6z"/>
</g>
<g id="_x23_ecce8fff">
	<path class="st175" d="M169.7,161.2c0.7-1.1,1.5-2.2,2.3-3.3c-0.8,4.4-1.9,9.4,0.7,13.3c1.4,2.8,2.8,5.9,5.4,7.8
		c-1.7-0.1-3.4-0.1-5.1-0.5C173.2,173.4,168.4,167.4,169.7,161.2z"/>
</g>
<g id="_x23_f37949ff">
	<path class="st176" d="M167,167.8c-0.1-3.1,0.7-6.1,1.6-9.1c0.3,0.6,0.8,1.9,1.1,2.5c-1.3,6.2,3.5,12.1,3.3,17.2l-0.9-0.2
		C170,175,168.7,171.3,167,167.8z"/>
</g>
<g id="_x23_fa6e21ff">
	<path class="st177" d="M83.8,168c0.3-2.8,0.6-5.5,0.9-8.3c-1,7.7,2.7,13.5,8.5,18c-0.5,0.2-1.5,0.5-2,0.7
		C87.9,175.6,84,172.7,83.8,168z"/>
</g>
<g id="_x23_d95ce4ff">
	<path class="st178" d="M97.6,160.8c0.3-0.3,0.9-0.9,1.2-1.2c5.7-1.8,9.2,2.6,8.5,7.6L107,168c-1,0.5-1.9,1-2.9,1.4
		C99.7,169.1,97.2,164.9,97.6,160.8 M100.2,161.1c-3.2,2.6,2.6,5.1,4.7,6C107.9,162.8,103.2,160.6,100.2,161.1z"/>
</g>
<g id="_x23_f9e69fff">
	<path class="st179" d="M189.8,160.4c4.9-1.9,6.9,5.3,4.5,8.7C195.1,165.2,193.6,161.6,189.8,160.4z"/>
</g>
<g id="_x23_e686f8ff">
	<path class="st180" d="M206.9,160.1c2.1,2.6,5.6,5.1,5.1,8.8c-1.1,15.5-16.6,25.7-30.8,27.4c-3.2,0.5-3.5-2-3.5-4.6
		c0.5-1.1,1-2.2,1.7-3.1c1.4,4.7,8.1,1.6,11.7,1.4c6.5-2.4,14.5-8.7,14.6-16.1c0.2-0.9,0.4-1.8,0.7-2.7
		C208.4,167.8,207.8,163.8,206.9,160.1z"/>
</g>
<g id="_x23_fbc59dff">
	<path class="st181" d="M98,168.9c-0.9-2.6-1.4-5.5-0.4-8.1c-0.3,4.1,2.1,8.3,6.5,8.6C101.9,170.2,99.8,170.1,98,168.9z"/>
</g>
<g id="_x23_8928acff">
	<path class="st182" d="M100.2,161.1c3-0.5,7.7,1.7,4.7,6C102.9,166.2,97,163.7,100.2,161.1z"/>
</g>
<g id="_x23_f57246ff">
	<path class="st183" d="M184,162.9c1.1-2.2,3.8-2,5.9-2.4c3.8,1.2,5.3,4.8,4.5,8.7c-0.7,0.7-1.5,1.3-2.2,1.9
		C193.9,165.5,189.5,161.1,184,162.9z"/>
</g>
<g id="_x23_ec96feff">
	<path class="st184" d="M47,161.9l1,0c2.6,10.7,4.6,21.4,7.2,32.1c6.6-1.9,18.7-0.1,20-8.9c0-1.8-0.4-3.6-0.9-5.4
		c-0.2-1.6-0.3-3.2-0.3-4.8c5.6-1.6,6.6,4.8,10.9,6.5l0,0.7l0,0.8c-1.8,0.3-3.4,0.9-4.9,2c-2.2,7.6,2.1,15.9,3.4,23.8
		c-0.2,1.5-0.3,3-0.6,4.5c-6.3-4.2-5.3-13.7-11.9-17.1c-7.1,1.1-15.4,1.3-20.7-4.4C45.5,182.7,43.1,171.6,47,161.9z"/>
</g>
<g id="_x23_f7894aff">
	<path class="st185" d="M150.4,167.8c0.7-2.3,1.8-4.4,3.4-6.2c-0.4,4.4-0.7,8.9-0.9,13.3c-0.5-0.1-1.4-0.2-1.9-0.2
		C150.8,172.4,150.6,170.1,150.4,167.8z"/>
</g>
<g id="_x23_f9db88ff">
	<path class="st186" d="M138.6,163.7c3.7-0.3,2.8,8.7,4.6,12.2C138.4,175.5,140.5,167.3,138.6,163.7z"/>
</g>
<g id="_x23_d656edff">
	<path class="st187" d="M184,162.9c5.6-1.8,9.9,2.6,8.2,8.2c-0.3,0.2-0.8,0.8-1.1,1c-5.9,2.5-8.2-2.7-8.4-7.2
		C182.9,164.4,183.6,163.4,184,162.9 M183.9,165c0.4,2.6,3.8,3.1,4.5,5.8C192.6,169.4,188.6,161,183.9,165z"/>
</g>
<g id="_x23_fa8829ff">
	<path class="st188" d="M136.9,169c0.4-1.8-0.8-4.8,1.7-5.3c1.9,3.6-0.2,11.8,4.6,12.2c1.3,0.1,2.6,0.2,4,0.2l-0.1,0.9l-0.6,0.4
		c-2.9,0.9-6.6,1.1-6.9-2.8c-0.5-1.6-0.2-4.6-2.4-2.7C137,171.2,136.9,169.8,136.9,169z"/>
</g>
<g id="_x23_e9597bff">
	<path class="st189" d="M121.7,165.9c0.1-0.4,0.4-1.1,0.5-1.5c1.5,4.3,0.6,9,1,13.5C120.8,175.2,122.3,169.8,121.7,165.9z"/>
</g>
<g id="_x23_f8b6b8ff">
	<path class="st190" d="M189.2,173.4c-4.7,0.6-10-2.9-6.6-8.5c0.2,4.5,2.5,9.6,8.4,7.2l-0.4,0.6
		C190.3,172.9,189.6,173.2,189.2,173.4z"/>
</g>
<g id="_x23_8524a7ff">
	<path class="st191" d="M183.9,165c4.8-4,8.7,4.3,4.5,5.8C187.7,168.1,184.3,167.6,183.9,165z"/>
</g>
<g id="_x23_fee351ff">
	<path class="st192" d="M23.1,165.9c3.1,7.4,6.8,14.6,11.3,21.2c-4,2.2-8-1.5-11.6-3c-2.4-4.1-4.1-8.5-6-12.8
		C20.9,172.2,25.9,173.2,23.1,165.9z"/>
</g>
<g id="_x23_ffc00aff">
	<path class="st193" d="M59,166.9c6.2-2.3,13-0.2,19.2,1.4c-6.7-0.1-5.6,6.8-4.8,11.6c2.7,6.1-5.9,5.7-10.2,6.1
		C61.5,179.7,59.8,173.4,59,166.9z"/>
</g>
<g id="_x23_fdcf0fff">
	<path class="st194" d="M87.5,168.1c2.4-4.2,7.6-1.4,10.5,0.8c1.8,1.1,3.8,1.3,6.1,0.5c1-0.4,2-0.9,2.9-1.4c4.4,0,8.9,0,13.2,1.2
		c-2.2,4.1-5.9,7-9.4,9.9l-0.7-0.3c-4.1-2.7-9.3-1.4-14-1.9C92.4,175,88.8,172.3,87.5,168.1z"/>
</g>
<g id="_x23_d757d8ff">
	<path class="st195" d="M121.7,165.9c0.7,3.8-0.9,9.3,1.5,12l0.9,0.4c-1.4,0.6-2.7,1.2-4,1.9c3.5-13-6.3-2.2,0,0
		c-0.2,0.3-0.7,1.1-0.9,1.4c-1.9-3.4-3.8-3.3-7.1-1.3c-0.3-0.3-0.9-0.9-1.2-1.2c3.5-2.8,7.2-5.8,9.4-9.9
		C120.8,168.1,121.2,167.1,121.7,165.9z"/>
</g>
<g id="_x23_fee551ff">
	<path class="st196" d="M216.8,184.9c4.3-5.4,6.9-11.8,9.8-18.1c0.8,5.2,6.2,2.9,8.4,0c-1.9,5.2-4,10.4-6.8,15.2
		C225.5,184.9,216.9,192.1,216.8,184.9z"/>
</g>
<g id="_x23_f17d63ff">
	<path class="st197" d="M78.2,168.3c1.3,0,2.7-0.1,4-0.1c-3,2.6-9.8,1.1-8.3,6.7c0,1.6,0.1,3.2,0.3,4.8l-0.9,0.2
		C72.6,175.1,71.5,168.2,78.2,168.3z"/>
</g>
<g id="_x23_c941d9ff">
	<path class="st198" d="M82.2,168.2c0.4-0.1,1.2-0.2,1.6-0.2c0.3,4.7,4.2,7.6,7.5,10.4c-1,0.4-2.1,0.7-3.1,1.1
		c-2.2-2.7-4.2-5.6-6.4-8.4c-4,2.1,1.2,7.1,3.1,9.4l0,0.9c-4.3-1.7-5.3-8.1-10.9-6.5C72.4,169.3,79.2,170.8,82.2,168.2z"/>
</g>
<g id="_x23_ffd710ff">
	<path class="st199" d="M126,169c3.5-1.3,7.3-0.4,10.9,0c0,0.8,0.1,2.2,0.1,3c1.6,6-5.2,3.7-9,4.1C124.3,176.3,126.3,171.6,126,169z
		"/>
</g>
<g id="_x23_d35cd4ff">
	<path class="st200" d="M150.4,167.8c0.2,2.3,0.4,4.6,0.6,6.9c-1.1,0.6-2.1,1.2-3.2,1.9l-0.8,0.4l0.1-0.9
		C148.2,173.4,149.4,170.6,150.4,167.8z"/>
</g>
<g id="_x23_c567bdff">
	<path class="st201" d="M167,167.8c1.6,3.5,2.9,7.2,5,10.5c-3.6-0.8-7.3-1.1-11-1.3l-0.2-0.8c4.2,0.6,7-0.7,5.6-6.1
		C166.7,169.4,166.9,168.4,167,167.8z"/>
</g>
<g id="_x23_fcda1eff">
	<path class="st202" d="M153.8,175.1c-3.4-9.9,7.8-5.6,12.7-5.1c1.4,5.4-1.4,6.7-5.6,6.1C158.5,175.8,156.2,175.5,153.8,175.1z"/>
</g>
<g id="_x23_78299cff">
	<path class="st203" d="M84.9,180.5c-1.9-2.3-7.1-7.3-3.1-9.4c2.2,2.7,4.1,5.6,6.4,8.4C87.1,179.8,85.9,180.1,84.9,180.5z"/>
</g>
<g id="_x23_c87995ff">
	<path class="st204" d="M137,172c2.2-1.9,2,1.1,2.4,2.7c0.3,3.9,4,3.7,6.9,2.8c-0.8,0.9-1.6,1.9-2.4,2.8c-1.6-0.9-3.2-1.8-4.9-2.5
		c-3.7-0.7-7.5-1-11.2-0.9l0.1-0.8C131.8,175.6,138.6,178,137,172z"/>
</g>
<g id="_x23_fdd113ff">
	<path class="st205" d="M172.7,171.2c6.3-3.2,11,5.8,16.6,2.2c0.4-0.2,1.1-0.5,1.4-0.7c4.3,0.2,12.2-1.8,13.7,3.4
		c-1.9,2.2-4,4.2-6.1,6.1c-5.2,1.3-12,4-16.2-0.4c-0.7-0.6-1.3-1.1-2-1.6c-0.5-0.3-1.5-0.9-1.9-1.1
		C175.4,177.1,174.1,174,172.7,171.2z"/>
</g>
<g id="_x23_9527b7ff">
	<path class="st206" d="M120.1,180.2C123.6,167.2,113.7,178.1,120.1,180.2z"/>
</g>
<g id="_x23_e94be4ff">
	<path class="st207" d="M205.6,173.9c0,7.5-8.1,13.7-14.6,16.1c4-6.1-7.6-1.8-10.3-3.3c0.1-0.4,0.3-1.3,0.4-1.7
		c5.8,1,12.6,1.6,17.1-2.9c2.1-1.9,4.2-3.9,6.1-6.1C204.6,175.5,205.3,174.4,205.6,173.9z"/>
</g>
<g id="_x23_6b9af0ff">
	<path class="st208" d="M147.8,176.6c1-0.7,2.1-1.3,3.2-1.9c0.5,0.1,1.4,0.2,1.9,0.2l0.9,0.1c2.3,0.4,4.7,0.7,7.1,1l0.2,0.8
		c-4.5-1.2-12.6,0.1-10.1,7.1c-1,4.2,5.2,1,7.6,2.6c4.7,2.7,10.4-0.1,15.5,0.5c5.7,2.3,6.9-2.9,6-6.9c0.7,0.5,1.4,1,2,1.6
		c-0.3,1.1-0.6,2.2-0.9,3.3c-0.1,0.4-0.3,1.3-0.4,1.7c-0.4,0.5-1,1.4-1.4,1.9c-0.8,0.9-1.2,2-1.7,3.1c-0.2,0.3-0.5,0.8-0.6,1.1
		c-2.1,0-4.2,0-6.4,0.1l-0.5-0.3c-1.3-8.1-19-5.9-14.1,4.5c-0.4,3.5-1.3,7-0.9,10.6c3.1,1.3,11.2-0.8,8.1,4.4
		c-4.3-1-14.1,1.1-11.9-5.9c-0.8-4.9,7.4-17.3-1.3-16.4c-4.1-0.5-8.2-1.1-12.3-1.9c5.1,1.7,14.4,0.3,8.3-5.7
		C148.2,181.1,147.9,178.7,147.8,176.6z"/>
</g>
<g id="_x23_8cabc0ff">
	<path class="st209" d="M93.2,177.7c1-0.3,2-0.6,3-0.9c4.6,0.6,9.9-0.8,14,1.9c-8.7-1.4-17.4-1.2-25.2,3.3l0-0.7l0-0.9
		c1.1-0.3,2.2-0.7,3.3-1c1.1-0.3,2.1-0.7,3.1-1.1C91.7,178.2,92.7,177.9,93.2,177.7z"/>
</g>
<g id="_x23_67a4f5ff">
	<path class="st210" d="M124.1,178.3c1.3-0.5,2.5-1,3.8-1.4c3.8,0,7.5,0.3,11.2,0.9c-7.4-1.1-19.8,0.6-20.2,10.2
		c5.7,2.8,13.3-4,18-0.2c-0.2,2.5-0.3,5-0.5,7.6c-0.3,0.2-0.9,0.8-1.2,1c-0.3-0.3-0.9-0.9-1.1-1.1c0.9-3.8-1.6-6.5-5.1-4.3l-0.7,0.1
		c-4.1,0-8.6-2.6-12.5-2.1c-0.4,0.3-1.2,0.9-1.6,1.3c-3-0.6-8,1.6-9-2.4c2.9-1,10,2.7,10.3-2.4c1.5-1,2.8-2.1,3.7-3.7
		c0.2-0.3,0.7-1.1,0.9-1.4C121.4,179.5,122.7,178.9,124.1,178.3z"/>
</g>
<g id="_x23_4a62acff">
	<path class="st211" d="M146.3,177.4l0.6-0.4l0.8-0.4c0.1,2.1,0.4,4.5-1.7,5.7c-0.7-0.7-1.4-1.3-2.1-2
		C144.8,179.4,145.6,178.4,146.3,177.4z"/>
</g>
<g id="_x23_0bc2faff">
	<path class="st212" d="M151,184c-2.5-6.9,5.6-8.2,10.1-7.1c3.7,0.2,7.4,0.5,11,1.3l0.9,0.2c1.7,0.4,3.4,0.4,5.1,0.5
		c0.5,0.3,1.5,0.9,1.9,1.1c0.9,4-0.3,9.2-6,6.9c-5.1-0.5-10.7,2.3-15.5-0.5C156.2,184.9,150,188.2,151,184z"/>
</g>
<g id="_x23_b162bdff">
	<path class="st213" d="M176.9,198.9c15.6-0.9,28.8-10,38.3-21.9c-1,2.3-2.1,4.5-3.2,6.8c-3.8,3.8-6.7,8.6-10.7,12.2
		c-13,2.1-26.4,5.5-34.6,16.8l-1-0.2C167,206.5,171.6,201.9,176.9,198.9z"/>
</g>
<g id="_x23_0ac1fbff">
	<path class="st214" d="M84.9,182.1c7.8-4.5,16.6-4.7,25.2-3.3l0.7,0.3c0.3,0.3,0.9,0.9,1.2,1.2c1.2,1.6,2.4,3.4,3.5,5.1
		c-0.3,5.1-7.5,1.4-10.3,2.4l-0.4-0.9c-5.4-2.4-11.9,2.3-17.9,2c-0.3-0.3-1-0.8-1.3-1.1c-0.3-1.7-0.5-3.3-0.7-5L84.9,182.1z"/>
</g>
<g id="_x23_e38efeff">
	<path class="st215" d="M112,180.3c3.3-1.9,5.2-2,7.1,1.3c-0.8,1.6-2.2,2.8-3.7,3.7C114.4,183.6,113.2,181.9,112,180.3z"/>
</g>
<g id="_x23_08c0fbff">
	<path class="st216" d="M118.9,188c0.5-9.6,12.8-11.3,20.2-10.2c1.7,0.7,3.3,1.6,4.9,2.5c0.7,0.7,1.4,1.4,2.1,2
		c6,5.9-3.3,7.3-8.3,5.7l-0.9-0.2C132.2,184,124.6,190.8,118.9,188z"/>
</g>
<g id="_x23_f2693bff">
	<path class="st217" d="M182.1,181.8c4.2,4.4,11,1.7,16.2,0.4c-4.5,4.5-11.3,3.8-17.1,2.9C181.4,183.9,181.7,182.8,182.1,181.8z"/>
</g>
<g id="_x23_fcc740ff">
	<path class="st218" d="M216.8,184.9c0.1,7.2,8.6-0.1,11.4-2.8c-5.7,12.6-15.2,22.9-24.4,32.9c-2.9,4.3-7.9,7.6-12.4,9.6
		c-8,1.1-15.1,6.3-23.3,7.3c-1.1-1.6-0.7-4.6-3-5.1c10.6-3.7,20.2-9.6,28.9-16.7C202.4,202.5,210.6,194.5,216.8,184.9z"/>
</g>
<g id="_x23_6f8fecff">
	<path class="st219" d="M80,184.9c1.4-1.1,3.1-1.7,4.9-2c0.2,1.7,0.4,3.3,0.7,5c-0.3,5.2,0.3,10.5,2.3,15.4c1.1,2.3,0.2,8.1,3.5,7.1
		c1.1-0.3,2.3-0.5,3.4-0.7c6.6-0.7,3.7,3.9-0.8,4.4c-3.1,0.3-7.9,1.3-8-3C84.4,202.2,82.3,193.5,80,184.9z"/>
</g>
<g id="_x23_fdc73fff">
	<path class="st220" d="M22.8,184.1c3.6,1.5,7.6,5.2,11.6,3c13,17.3,30,32.4,50.5,39.9c-4.9-1.3-0.6,2.5-0.8,5
		c-6.5-0.4-12.8-2.6-18.8-5c-0.1,0.5-0.4,1.4-0.6,1.8c-4.6-2-9.2-5.1-12.7-8.8C41.4,209,29.2,198.5,22.8,184.1z"/>
</g>
<g id="_x23_be7828ff">
	<path class="st221" d="M201.2,196.1c4-3.7,6.9-8.4,10.7-12.2c-3.8,9.6-12.8,16-19.8,23.2C147.7,245.8,69.7,236.2,39,185
		c1.3,1.3,2.6,2.7,3.9,4.1c2.5,3.7,5.6,7,8.9,10c2.5,2.6,5,5.2,8,7.1c8.5,6.8,17.9,13.2,28.6,15.8c4.5,3.7,10.9,3.7,16.4,5.3
		c18.3,3.4,37.8,2.5,55.3-4.1c2.4-1,4.8-1.8,7.2-2.9c9.5-3.9,18.1-9.6,25.9-16.3C196,201.6,198.7,198.9,201.2,196.1z"/>
</g>
<g id="_x23_7a45c5ff">
	<path class="st222" d="M83.4,208.7c-1.3-7.9-5.6-16.3-3.4-23.8c2.3,8.6,4.5,17.3,5.9,26.1c0.1,4.2,4.9,3.2,8,3
		c-2.9,0.6-7.9,4.2-9.7,0C84,212.2,83.8,210.4,83.4,208.7z"/>
</g>
<g id="_x23_599af1ff">
	<path class="st223" d="M86.8,188.9c6,0.3,12.5-4.4,17.9-2c-2.9,0.3,1,5-3,4.8C96.9,191.4,91.4,190.3,86.8,188.9z"/>
</g>
<g id="_x23_a899fbff">
	<path class="st224" d="M101.7,191.7c4,0.2,0.2-4.5,3-4.8l0.4,0.9c1,4,6,1.8,9,2.4c-0.1,1.2-0.4,2.2-1,3.1
		c-8.3-0.9-16.6-0.6-24.9-0.1c-2,3.1-0.1,6.7-0.4,10.1c-1.9-4.9-2.6-10.2-2.3-15.4c0.3,0.3,1,0.8,1.3,1.1
		C91.4,190.3,96.9,191.4,101.7,191.7z"/>
</g>
<g id="_x23_a72fccff">
	<path class="st225" d="M179.4,188.7c0.3-0.5,1-1.4,1.4-1.9c2.6,1.5,14.3-2.8,10.3,3.3C187.4,190.3,180.7,193.4,179.4,188.7z"/>
</g>
<g id="_x23_aa9ff9ff">
	<path class="st226" d="M115.7,188.9c3.9-0.5,8.4,2,12.5,2.1c-4.6,0.9-12.1-0.7-10.5,6.2C116,194.8,115.9,191.8,115.7,188.9z"/>
</g>
<g id="_x23_a49cfaff">
	<path class="st227" d="M136.3,195.3c0.2-2.5,0.3-5,0.5-7.6l0.9,0.2c4.1,0.9,8.2,1.4,12.3,1.9l-0.1,0.9c-4,1-9.2-0.4-12,3.1
		C137.5,194.3,136.7,195,136.3,195.3z"/>
</g>
<g id="_x23_aa97faff">
	<path class="st228" d="M156,197.2c-4.8-10.4,12.9-12.7,14.1-4.5C164.7,191.7,157.5,190.4,156,197.2z"/>
</g>
<g id="_x23_7385efff">
	<path class="st229" d="M114.2,190.2c0.4-0.3,1.2-0.9,1.6-1.3c0.2,2.8,0.3,5.8,2,8.3c1.2,2.2,2.8,4.2,5.1,5.2
		c5.7,3.5,12.8,3.1,19.1,1.6c-0.6,1-1.2,2-1.8,3c-2,0.7-3.9,1.6-5.9,2.3c-10.2,1.9-16.3-7-22.4-12.3c-4.1,1.8-7,6-11.9,6.2
		c-0.7-1.7-1.2-3.5,1-4.2c4.7-0.4,8.7-2.8,12.2-5.8C113.8,192.4,114.1,191.3,114.2,190.2z"/>
</g>
<g id="_x23_6d53c5ff">
	<path class="st230" d="M128.9,190.9c3.6-2.2,6,0.5,5.1,4.3C132.3,193.7,130.6,192.3,128.9,190.9z"/>
</g>
<g id="_x23_834ecfff">
	<path class="st231" d="M150,189.9c8.6-1,0.4,11.5,1.3,16.4c-2.1,7,7.7,4.9,11.9,5.9c-0.1,3.7-4.6,1.3-7.1,1.6
		c-3.4,0.2-6.8-1.2-6.4-4.9c-0.3-5.9,4.6-13.3,0.2-18L150,189.9z"/>
</g>
<g id="_x23_d876fbff">
	<path class="st232" d="M117.7,197.2c-1.6-6.9,5.8-5.3,10.5-6.2l0.7-0.1c1.7,1.4,3.4,2.9,5.1,4.3c0.3,0.3,0.9,0.9,1.1,1.1
		c-5.2,0.8-10.9-2.4-16.4-1.3c0.8,2.7,2.5,5,4,7.3C120.5,201.3,118.9,199.4,117.7,197.2z"/>
</g>
<g id="_x23_e186faff">
	<path class="st233" d="M137.9,193.9c2.8-3.5,8-2,12-3.1c4.3,4.7-0.6,12-0.2,18c-0.5,5.6-7,1-10.6,3.3c-9.1,4.1-18.9,0.8-27.8-2.5
		c-3.9-2.6-11.9,6.1-11.4-0.7c0-1.9,0-3.8,0-5.7c4.9-0.3,7.8-4.5,11.9-6.2c0.6,6.9,6.5,10.5,12.1,13.2c4.8,0.9,13.6,2.4,16.2-3.2
		c0.6-1,1.2-2,1.8-3c2.4-2.8,5.9-5.7,5.1-9.8C144,194,141,193.9,137.9,193.9z"/>
</g>
<g id="_x23_d061f9ff">
	<path class="st234" d="M88.2,193.2c8.3-0.5,16.6-0.8,24.9,0.1c-3.5,2.9-7.6,5.4-12.2,5.8c6.6-5.2-7-2.9-10.7-2.9
		c-3.2,3.9,0.3,9.8,1.1,14.2c-3.3,1-2.4-4.8-3.5-7.1C88.1,199.9,86.3,196.2,88.2,193.2z"/>
</g>
<g id="_x23_dc6bf1ff">
	<path class="st235" d="M156,197.2c1.5-6.8,8.7-5.5,14.1-4.5l0.5,0.3c1.9,1.7,5.5,3.5,6.4-0.1c0.2-0.3,0.5-0.8,0.6-1.1
		c0,2.6,0.3,5.1,3.5,4.6c-1.6,0.6-3.1,1.4-4.3,2.6c-5.3,3-9.9,7.6-11.3,13.7c-1,3.3-3,5.1-6.5,3.7c-1.1-0.8-5.6-0.9-3.1-2.6
		c2.5-0.3,7,2.1,7.1-1.6c3.1-5.2-5.1-3.1-8.1-4.4C154.7,204.2,155.6,200.7,156,197.2 M158.3,195.1c-1.2,3.8-1.9,7.8-2.3,11.8
		c2.9,0.2,5.8,1.3,8.8,1c1.3-4.2,2.2-8.6,3.2-12.9C165.5,195,160.7,195.1,158.3,195.1z"/>
</g>
<g id="_x23_734dc9ff">
	<path class="st236" d="M170.7,192.9c2.1-0.1,4.2-0.1,6.4-0.1C176.2,196.4,172.6,194.6,170.7,192.9z"/>
</g>
<g id="_x23_e823f8ff">
	<path class="st237" d="M137.9,193.9c3,0,6.1,0.1,9.1,0.2c0.8,4.2-2.7,7-5.1,9.8c-6.3,1.5-13.4,2-19.1-1.6c-1.5-2.3-3.2-4.6-4-7.3
		c5.5-1.1,11.1,2.1,16.4,1.3c0.3-0.2,0.9-0.8,1.2-1C136.7,195,137.5,194.3,137.9,193.9z"/>
</g>
<g id="_x23_ee1bf8ff">
	<path class="st238" d="M158.3,195.1c2.4,0,7.3-0.1,9.7-0.1c-1,4.3-1.9,8.7-3.2,12.9c-2.9,0.3-5.9-0.8-8.8-1
		C156.4,202.9,157.1,198.9,158.3,195.1z"/>
</g>
<g id="_x23_eb1df8ff">
	<path class="st239" d="M90.2,196.2c3.7,0,17.3-2.4,10.7,2.9c-2.2,0.7-1.7,2.5-1,4.2c0,1.9,0,3.8,0,5.7c-1.7,0.2-3.5,0.4-5.2,0.7
		c-1.2,0.2-2.3,0.5-3.4,0.7C90.6,205.9,87,200.1,90.2,196.2z"/>
</g>
<g id="_x23_9553a0ff">
	<path class="st240" d="M166.6,212.9c8.1-11.3,21.6-14.7,34.6-16.8c-2.6,2.8-5.2,5.5-8.1,8c-10.9-1.8-20.3,5.6-26,14.2
		C167,216.4,166.8,214.6,166.6,212.9z"/>
</g>
<g id="_x23_6546b7ff">
	<path class="st241" d="M111.8,196.9c6.1,5.3,12.2,14.2,22.4,12.3c-3.4,0.6-6.8,0.9-10.3,0.9C118.3,207.4,112.4,203.9,111.8,196.9z"
		/>
</g>
<g id="_x23_b475d7ff">
	<path class="st242" d="M51.8,199.1c4.6,0.5,8.9,3.1,13.7,2.5c7.4-2.7,9.9,6.1,13.7,10.2c0.1,1.3,5.8,6.5,5.1,2.1
		c1.9,4.2,6.8,0.6,9.7,0c4.5-0.4,7.4-5.1,0.8-4.4c1.7-0.4,3.5-0.6,5.2-0.7c-0.5,6.8,7.5-1.9,11.4,0.7c8.8,3.4,18.6,6.6,27.8,2.5
		c3.6-2.3,10.1,2.4,10.6-3.3c-0.4,3.7,3,5.1,6.4,4.9c-2.5,1.7,1.9,1.8,3.1,2.6c-0.5,0.2-1.5,0.7-2,0.9c-6.6,0.1-12.7-5.3-19.2-2.4
		c-8.9,2.7-18.3,0.8-27-1.7c-8.8,1.2-16.3,7.3-25.6,5.4c-9.8-2.2-13.9-16.4-25.5-12.4C56.7,204.3,54.3,201.7,51.8,199.1z"/>
</g>
<g id="_x23_814782ff">
	<path class="st243" d="M167.1,218.2c5.7-8.5,15.1-16,26-14.2c-7.7,6.7-16.4,12.4-25.9,16.3C167.2,219.8,167.2,218.8,167.1,218.2z"
		/>
</g>
<g id="_x23_9c6ab6ff">
	<path class="st244" d="M59.8,206.2c11.6-3.9,15.7,10.2,25.5,12.4c9.3,1.9,16.8-4.2,25.6-5.4c8.7,2.5,18,4.3,27,1.7
		c6.6-2.9,12.7,2.4,19.2,2.4c-0.4,0.5-1.1,1.4-1.4,1.9c-12.8-4.6-25.3,2.2-38.2,0.5c-9.9-2.3-19.4,2.1-29.1,2.4
		C77.7,219.4,68.3,213,59.8,206.2z"/>
</g>
<g id="_x23_ae54ecff">
	<path class="st245" d="M134.2,209.2c2-0.7,3.9-1.6,5.9-2.3c-2.6,5.6-11.4,4.2-16.2,3.2C127.3,210.1,130.8,209.8,134.2,209.2z"/>
</g>
<g id="_x23_bc489bff">
	<path class="st246" d="M159.2,216.3c3.5,1.4,5.5-0.4,6.5-3.7l1,0.2c0.2,1.8,0.4,3.5,0.5,5.3c0,0.5,0.1,1.6,0.1,2.1
		c-2.4,1.1-4.8,1.9-7.2,2.9c-0.8-0.7-1.5-1.4-2.3-2.2c-0.7-0.7-1.4-1.3-2.1-2c0.4-0.5,1.1-1.4,1.4-1.9
		C157.6,217,158.7,216.5,159.2,216.3z"/>
</g>
<g id="_x23_855b98ff">
	<path class="st247" d="M117.5,219.6c12.9,1.7,25.4-5.2,38.2-0.5c0.7,0.6,1.4,1.3,2.1,2c-7.3,2.3-15.3-2-22.2,1.6
		c-6.7,3.3-14.4,3.5-21.6,4.9c-2.9-1.9-6.2-1-9.3-0.2c-5.5-1.6-11.9-1.6-16.4-5.3C98.2,221.8,107.6,217.3,117.5,219.6z"/>
</g>
<g id="_x23_7a4e7eff">
	<path class="st248" d="M135.7,222.7c6.9-3.6,14.8,0.6,22.2-1.6c0.8,0.7,1.5,1.4,2.3,2.2c-17.5,6.7-37.1,7.6-55.3,4.1
		c3.1-0.8,6.4-1.7,9.3,0.2C121.3,226.2,128.9,226,135.7,222.7z"/>
</g>
<g id="_x23_feda53ff">
	<path class="st249" d="M168.1,231.9c8.2-1,15.3-6.2,23.3-7.3c-35.8,26.2-88.7,27.2-126.7,4.2c0.1-0.5,0.4-1.4,0.6-1.8
		c6,2.4,12.3,4.5,18.8,5c0.2-2.5-4-6.3,0.8-5c25.3,10.5,54.9,10.1,80.2-0.2C167.4,227.4,167,230.3,168.1,231.9z"/>
</g>
</svg>
