<?xml version="1.0" encoding="utf-8"?>
<!-- Generator: Adobe Illustrator 26.0.3, SVG Export Plug-In . SVG Version: 6.00 Build 0)  -->
<svg version="1.1" id="Layer_1" xmlns="http://www.w3.org/2000/svg" xmlns:xlink="http://www.w3.org/1999/xlink" x="0px" y="0px"
	 viewBox="0 0 250 250" style="enable-background:new 0 0 250 250;" xml:space="preserve">
<style type="text/css">
	.st0{fill:#FFFFFF;}
	.st1{fill:#293EF6;}
</style>
<g id="_x23_ffffffff">
	<path class="st0" d="M185.5,62.7c1-0.2,2.1-0.4,3.1-0.6c0.1,1.6,0.1,3.3,0.2,4.9c3.2,1.4,6.6,2.5,9.5,4.6c1.3,0.6-0.4,2.2-1.3,2.1
		c-2.9-0.7-5.3-2.4-8.1-3.5c-0.1,2.9,0,5.7-0.3,8.6c-1.3,1.1-2.2,0.9-2.9-0.8C185.2,72.9,185.6,67.8,185.5,62.7z"/>
	<path class="st0" d="M57.6,62.8c5.7-0.5,11.4-0.4,17.1-0.1c-0.1,21.8,0,43.6-0.1,65.3c-0.2,8.2,1.4,17.1,6.8,23.6
		c1.9,2.4,4.6,3.8,7.3,4.8c1.5-14.3-1.1-28.8,1.8-43c2-8.3,6.1-16.5,13-21.8c4.1-3.1,9-4.9,13.8-6.4c0.2-7.6,0-15.2,0.1-22.7
		c5.6-0.1,11.2-0.2,16.7,0c0.1,7.3,0,14.7,0,22c10.7,1.3,20.9,7.4,25.5,17.4c5.5,10.1,5.1,21.8,5.3,33c-0.2,19.4,0.3,38.9-0.3,58.4
		c-5.4,0.2-10.8,0.1-16.2,0c-0.2-22.5,0-45-0.1-67.4c-0.1-7.5-1.8-15.3-6.4-21.4c-1.9-2.7-4.9-4.2-7.9-5.6
		c-0.4,13.7,0.7,27.6-1.3,41.2c-1.7,7.8-4.9,15.5-10.6,21.3c-4.6,4.6-10.8,7-16.9,9c0,7.7,0.2,15.3-0.1,23
		c-5.4,0.1-10.8,0.1-16.2-0.1c-0.2-7.4,0.4-14.9-0.5-22.3c-8-1.5-16.2-4.6-21.4-11.2c-6.8-8.7-8.9-20-9.6-30.8
		C57.6,107,57.8,84.9,57.6,62.8 M105.6,127c0.1,9.4-0.2,18.8,0.2,28.3c8.5-4.3,11-14.5,11.7-23.2c0.1-10.7,0.2-21.4-0.1-32.1
		C108.3,105.5,105.5,116.9,105.6,127z"/>
	<path class="st0" d="M144.7,63.5c5-0.1,10.1-0.1,15.1,0c-0.2,4.7-1.2,10.1-5.5,12.8c-2.6,2-5.9,2.5-9.2,2.6c0-0.6,0.1-1.8,0.1-2.4
		c2.9-0.9,6.2-1.5,8.5-3.8c1.7-1.7,2-4.2,2.7-6.4c-4,0-8.1,0.1-12.1-0.4C144.4,65.3,144.6,64.1,144.7,63.5z"/>
	<path class="st0" d="M170.4,67.4c0.8-0.9,1.6-1.8,2.6-2.5c1.7,1.3,3.2,2.8,4.9,4.2c-1.1,0.5-2.3,1-3.4,1.5c0,3.2,0.7,6.8-1.5,9.5
		c-1.5-2-1.6-4.6-1.7-7c-2.6,2.2-5.4,5.6-9.3,4.4c2.6-2.4,5.4-4.7,8-7.1c-2.4-0.4-4.9-0.7-7.3-1.3C165,67.2,167.8,67.6,170.4,67.4z"
		/>
</g>
<g id="_x23_293ef6ff">
	<path class="st1" d="M116.6,0h16.7c26.5,2.2,52.5,12.4,72.7,29.9c25.6,21.5,41.3,53.6,43.9,86.8v15.8c-1.9,26.4-11.9,52.3-29,72.6
		c-17.8,21.4-42.9,36.7-70.2,42.2c-6.7,1.4-13.5,2.3-20.3,2.7h-13.9c-26.3-2.2-52.1-12.2-72.2-29.4c-21.6-18.1-36.8-43.8-42.2-71.5
		c-1-5.2-1.7-10.4-2.3-15.7v-16.7c0.8-8,2-15.9,4.2-23.7C10.8,67.6,25.7,44.6,46,28C65.9,11.7,91,2.1,116.6,0 M185.5,62.7
		c0.1,5.1-0.3,10.2,0.2,15.3c0.6,1.6,1.6,1.9,2.9,0.8c0.3-2.8,0.2-5.7,0.3-8.6c2.7,1.1,5.2,2.8,8.1,3.5c0.9,0.2,2.6-1.4,1.3-2.1
		c-2.8-2.2-6.2-3.2-9.5-4.6c-0.1-1.6-0.1-3.3-0.2-4.9C187.6,62.3,186.5,62.5,185.5,62.7 M57.6,62.8c0.2,22.1,0,44.2,0.1,66.2
		c0.7,10.8,2.8,22,9.6,30.8c5.2,6.6,13.4,9.8,21.4,11.2c0.9,7.4,0.3,14.8,0.5,22.3c5.4,0.2,10.8,0.1,16.2,0.1
		c0.3-7.6,0.1-15.3,0.1-23c6.1-1.9,12.3-4.4,16.9-9c5.7-5.8,8.9-13.5,10.6-21.3c2-13.6,1-27.4,1.3-41.2c2.9,1.4,5.9,2.9,7.9,5.6
		c4.6,6.1,6.3,13.9,6.4,21.4c0.1,22.5-0.1,45,0.1,67.4c5.4,0.1,10.8,0.1,16.2,0c0.6-19.4,0.1-38.9,0.3-58.4
		c-0.3-11.1,0.1-22.9-5.3-33c-4.6-9.9-14.9-16.1-25.5-17.4c0-7.3,0.1-14.7,0-22c-5.6-0.2-11.1-0.1-16.7,0
		c-0.1,7.6,0.1,15.2-0.1,22.7c-4.9,1.5-9.8,3.2-13.8,6.4c-6.9,5.3-11,13.4-13,21.8c-2.9,14.1-0.4,28.7-1.8,43
		c-2.8-1.1-5.5-2.5-7.3-4.8c-5.4-6.5-7-15.3-6.8-23.6c0-21.8-0.1-43.6,0.1-65.3C69,62.4,63.3,62.3,57.6,62.8 M144.7,63.5
		c-0.1,0.6-0.3,1.8-0.4,2.4c4,0.5,8.1,0.3,12.1,0.4c-0.7,2.2-1,4.7-2.7,6.4c-2.2,2.3-5.5,2.9-8.5,3.8c0,0.6-0.1,1.8-0.1,2.4
		c3.2-0.1,6.5-0.6,9.2-2.6c4.3-2.7,5.4-8.1,5.5-12.8C154.8,63.5,149.7,63.5,144.7,63.5 M170.4,67.4c-2.6,0.1-5.5-0.2-7.6,1.6
		c2.4,0.6,4.8,0.9,7.3,1.3c-2.6,2.4-5.4,4.7-8,7.1c3.8,1.2,6.6-2.2,9.3-4.4c0.1,2.4,0.2,5,1.7,7c2.2-2.7,1.5-6.3,1.5-9.5
		c1.1-0.5,2.3-1,3.4-1.5c-1.6-1.4-3.2-2.9-4.9-4.2C172.1,65.7,171.3,66.6,170.4,67.4z"/>
	<path class="st1" d="M105.6,127c-0.1-10.1,2.7-21.5,11.8-27.1c0.2,10.7,0.1,21.4,0.1,32.1c-0.7,8.7-3.2,18.9-11.7,23.2
		C105.4,145.8,105.7,136.4,105.6,127z"/>
</g>
</svg>
