<?xml version="1.0" encoding="UTF-8" ?>
<!DOCTYPE svg PUBLIC "-//W3C//DTD SVG 1.1//EN" "http://www.w3.org/Graphics/SVG/1.1/DTD/svg11.dtd">
<svg width="250pt" height="250pt" viewBox="0 0 250 250" version="1.1" xmlns="http://www.w3.org/2000/svg">
<g id="#ffffffff">
<path fill="#ffffff" opacity="1.00" d=" M 0.00 0.00 L 250.00 0.00 L 250.00 250.00 L 0.00 250.00 L 0.00 0.00 M 25.75 63.05 C 32.10 67.14 38.86 70.53 45.24 74.57 C 72.10 59.45 98.82 44.02 125.34 28.31 C 125.21 20.80 125.36 13.28 125.25 5.77 C 91.91 24.55 58.95 44.02 25.75 63.05 M 130.46 5.87 C 130.37 13.44 130.40 21.01 130.44 28.59 C 156.89 44.03 183.43 59.33 210.01 74.55 C 216.62 70.79 223.31 67.17 229.71 63.06 C 196.64 43.97 163.71 24.62 130.46 5.87 M 23.77 68.90 C 23.66 106.87 23.76 144.84 23.72 182.80 C 25.17 182.42 26.59 181.89 27.86 181.08 C 33.09 177.94 38.42 174.97 43.67 171.86 C 43.70 141.06 43.73 110.26 43.66 79.47 C 40.01 77.37 36.37 75.27 32.73 73.17 C 29.84 71.55 27.13 69.44 23.77 68.90 M 210.88 79.71 C 210.93 107.80 210.90 135.88 210.89 163.96 C 210.96 166.58 210.60 169.27 211.25 171.84 C 217.54 175.79 224.08 179.36 230.53 183.06 C 230.68 144.77 230.66 106.47 230.54 68.18 C 224.04 72.12 217.35 75.74 210.88 79.71 M 173.26 84.01 C 173.17 111.79 173.15 139.57 173.27 167.36 C 179.76 163.57 186.32 159.86 192.73 155.93 C 192.68 135.69 192.75 115.45 192.69 95.21 C 186.22 91.46 179.74 87.74 173.26 84.01 M 145.45 99.84 C 145.35 117.15 145.27 134.47 145.48 151.78 C 149.79 149.16 154.18 146.67 158.54 144.13 C 158.60 131.86 158.78 119.57 158.47 107.31 C 154.35 104.48 149.86 102.18 145.45 99.84 M 127.72 112.55 C 127.64 121.33 127.66 130.10 127.71 138.88 C 130.38 137.35 133.05 135.82 135.72 134.30 C 135.45 128.60 137.01 122.78 135.58 117.19 C 133.16 115.32 130.35 114.08 127.72 112.55 M 43.82 177.75 C 37.78 181.17 31.80 184.72 25.75 188.11 C 58.74 207.59 92.01 226.61 125.24 245.68 C 125.34 238.09 125.27 230.50 125.28 222.92 C 100.19 208.20 74.95 193.73 49.75 179.19 C 47.93 178.31 45.87 176.21 43.82 177.75 M 130.66 222.78 C 130.06 230.26 130.54 237.81 130.47 245.32 C 141.76 239.56 152.49 232.72 163.59 226.59 C 185.39 213.99 207.23 201.42 228.96 188.70 C 228.86 188.40 228.68 187.80 228.58 187.51 C 222.49 183.84 216.29 180.30 210.03 176.91 C 183.45 191.97 156.95 207.23 130.66 222.78 Z" />
</g>
<g id="#b3b3b3ff">
<path fill="#b3b3b3" opacity="1.00" d=" M 25.75 63.05 C 58.95 44.02 91.91 24.55 125.25 5.77 C 125.36 13.28 125.21 20.80 125.34 28.31 C 98.82 44.02 72.10 59.45 45.24 74.57 C 38.86 70.53 32.10 67.14 25.75 63.05 Z" />
<path fill="#b3b3b3" opacity="1.00" d=" M 43.82 177.75 C 45.87 176.21 47.93 178.31 49.75 179.19 C 74.95 193.73 100.19 208.20 125.28 222.92 C 125.27 230.50 125.34 238.09 125.24 245.68 C 92.01 226.61 58.74 207.59 25.75 188.11 C 31.80 184.72 37.78 181.17 43.82 177.75 Z" />
</g>
<g id="#ccccccff">
<path fill="#cccccc" opacity="1.00" d=" M 130.46 5.87 C 163.71 24.62 196.64 43.97 229.71 63.06 C 223.31 67.17 216.62 70.79 210.01 74.55 C 183.43 59.33 156.89 44.03 130.44 28.59 C 130.40 21.01 130.37 13.44 130.46 5.87 Z" />
<path fill="#cccccc" opacity="1.00" d=" M 130.66 222.78 C 156.95 207.23 183.45 191.97 210.03 176.91 C 216.29 180.30 222.49 183.84 228.58 187.51 C 228.68 187.80 228.86 188.40 228.96 188.70 C 207.23 201.42 185.39 213.99 163.59 226.59 C 152.49 232.72 141.76 239.56 130.47 245.32 C 130.54 237.81 130.06 230.26 130.66 222.78 Z" />
</g>
<g id="#999999ff">
<path fill="#999999" opacity="1.00" d=" M 23.77 68.90 C 27.13 69.44 29.84 71.55 32.73 73.17 C 36.37 75.27 40.01 77.37 43.66 79.47 C 43.73 110.26 43.70 141.06 43.67 171.86 C 38.42 174.97 33.09 177.94 27.86 181.08 C 26.59 181.89 25.17 182.42 23.72 182.80 C 23.76 144.84 23.66 106.87 23.77 68.90 Z" />
</g>
<g id="#76beddff">
<path fill="#76bedd" opacity="1.00" d=" M 210.88 79.71 C 217.35 75.74 224.04 72.12 230.54 68.18 C 230.66 106.47 230.68 144.77 230.53 183.06 C 224.08 179.36 217.54 175.79 211.25 171.84 C 210.60 169.27 210.96 166.58 210.89 163.96 C 210.90 135.88 210.93 107.80 210.88 79.71 Z" />
<path fill="#76bedd" opacity="1.00" d=" M 173.26 84.01 C 179.74 87.74 186.22 91.46 192.69 95.21 C 192.75 115.45 192.68 135.69 192.73 155.93 C 186.32 159.86 179.76 163.57 173.27 167.36 C 173.15 139.57 173.17 111.79 173.26 84.01 Z" />
<path fill="#76bedd" opacity="1.00" d=" M 145.45 99.84 C 149.86 102.18 154.35 104.48 158.47 107.31 C 158.78 119.57 158.60 131.86 158.54 144.13 C 154.18 146.67 149.79 149.16 145.48 151.78 C 145.27 134.47 145.35 117.15 145.45 99.84 Z" />
<path fill="#76bedd" opacity="1.00" d=" M 127.72 112.55 C 130.35 114.08 133.16 115.32 135.58 117.19 C 137.01 122.78 135.45 128.60 135.72 134.30 C 133.05 135.82 130.38 137.35 127.71 138.88 C 127.66 130.10 127.64 121.33 127.72 112.55 Z" />
</g>
</svg>
