<?xml version="1.0" encoding="UTF-8" ?>
<!DOCTYPE svg PUBLIC "-//W3C//DTD SVG 1.1//EN" "http://www.w3.org/Graphics/SVG/1.1/DTD/svg11.dtd">
<svg width="250pt" height="250pt" viewBox="0 0 250 250" version="1.1" xmlns="http://www.w3.org/2000/svg">
<g id="#ffffffff">
<path fill="#ffffff" opacity="1.00" d=" M 0.00 0.00 L 250.00 0.00 L 250.00 250.00 L 0.00 250.00 L 0.00 0.00 M 123.44 2.62 C 112.46 6.52 108.64 19.13 99.45 25.45 C 96.64 26.65 93.30 26.07 90.63 27.70 C 88.14 29.20 85.44 30.25 82.67 31.07 C 77.99 32.49 74.25 35.83 69.79 37.71 C 65.36 39.34 62.41 43.31 58.14 45.23 C 53.23 47.32 50.20 51.89 46.48 55.47 C 42.29 59.86 36.86 63.37 34.42 69.16 C 32.66 73.77 28.01 76.41 26.25 81.02 C 24.12 85.52 21.95 90.02 19.49 94.36 C 18.52 96.07 18.58 98.11 18.21 99.98 C 18.00 102.81 15.80 104.85 14.79 107.38 C 14.29 109.55 14.47 111.79 14.44 113.99 C 14.68 130.67 14.32 147.35 14.58 164.02 C 16.51 170.21 20.92 175.47 22.54 181.85 C 23.82 187.17 27.74 191.21 29.94 196.11 C 33.05 202.92 40.27 206.40 44.34 212.50 C 45.57 214.41 46.32 216.59 47.64 218.45 C 49.70 220.44 52.42 221.55 54.76 223.17 C 58.58 225.55 61.04 229.71 65.27 231.48 C 72.25 234.68 78.80 238.91 86.37 240.66 C 91.18 243.62 97.17 242.80 101.97 245.73 C 105.66 247.67 109.97 247.30 114.00 247.32 C 122.68 247.16 131.37 247.33 140.05 247.33 C 145.44 247.56 149.83 243.72 155.12 243.39 C 159.01 243.13 162.38 241.08 166.03 239.95 C 172.47 238.31 177.96 234.35 184.10 231.92 C 187.35 230.85 189.53 228.18 191.89 225.88 C 194.82 222.97 199.07 221.94 202.00 219.05 C 203.87 216.79 204.78 213.91 206.57 211.59 C 210.88 205.95 217.04 201.94 220.83 195.88 C 225.53 188.47 229.24 180.46 232.03 172.16 C 232.94 169.35 235.63 167.21 235.52 164.09 C 235.49 145.71 235.47 127.32 235.53 108.94 C 235.64 106.35 234.25 104.11 233.24 101.83 C 231.93 99.03 231.36 95.92 229.81 93.22 C 226.67 87.62 225.00 81.18 220.82 76.16 C 217.27 71.93 215.43 66.47 211.26 62.72 C 205.67 57.66 201.15 51.50 195.14 46.90 C 187.14 41.44 178.79 36.56 170.33 31.86 C 166.98 30.37 163.18 30.02 160.09 27.92 C 157.20 25.97 153.55 26.61 150.34 25.71 C 148.59 24.84 147.46 23.17 146.16 21.77 C 141.85 16.46 136.37 12.27 131.90 7.11 C 129.72 4.70 127.13 1.52 123.44 2.62 Z" />
</g>
<g id="#96b3c7ff">
<path fill="#96b3c7" opacity="1.00" d=" M 123.44 2.62 C 127.13 1.52 129.72 4.70 131.90 7.11 C 136.37 12.27 141.85 16.46 146.16 21.77 C 147.46 23.17 148.59 24.84 150.34 25.71 C 153.55 26.61 157.20 25.97 160.09 27.92 C 163.18 30.02 166.98 30.37 170.33 31.86 C 178.79 36.56 187.14 41.44 195.14 46.90 C 201.15 51.50 205.67 57.66 211.26 62.72 C 215.43 66.47 217.27 71.93 220.82 76.16 C 225.00 81.18 226.67 87.62 229.81 93.22 C 231.36 95.92 231.93 99.03 233.24 101.83 C 234.25 104.11 235.64 106.35 235.53 108.94 C 235.47 127.32 235.49 145.71 235.52 164.09 C 235.63 167.21 232.94 169.35 232.03 172.16 C 229.24 180.46 225.53 188.47 220.83 195.88 C 217.04 201.94 210.88 205.95 206.57 211.59 C 204.78 213.91 203.87 216.79 202.00 219.05 C 199.07 221.94 194.82 222.97 191.89 225.88 C 189.53 228.18 187.35 230.85 184.10 231.92 C 177.96 234.35 172.47 238.31 166.03 239.95 C 162.38 241.08 159.01 243.13 155.12 243.39 C 149.83 243.72 145.44 247.56 140.05 247.33 C 131.37 247.33 122.68 247.16 114.00 247.32 C 109.97 247.30 105.66 247.67 101.97 245.73 C 97.17 242.80 91.18 243.62 86.37 240.66 C 78.80 238.91 72.25 234.68 65.27 231.48 C 61.04 229.71 58.58 225.55 54.76 223.17 C 52.42 221.55 49.70 220.44 47.64 218.45 C 46.32 216.59 45.57 214.41 44.34 212.50 C 40.27 206.40 33.05 202.92 29.94 196.11 C 27.74 191.21 23.82 187.17 22.54 181.85 C 20.92 175.47 16.51 170.21 14.58 164.02 C 14.32 147.35 14.68 130.67 14.44 113.99 C 14.47 111.79 14.29 109.55 14.79 107.38 C 15.80 104.85 18.00 102.81 18.21 99.98 C 18.58 98.11 18.52 96.07 19.49 94.36 C 21.95 90.02 24.12 85.52 26.25 81.02 C 28.01 76.41 32.66 73.77 34.42 69.16 C 36.86 63.37 42.29 59.86 46.48 55.47 C 50.20 51.89 53.23 47.32 58.14 45.23 C 62.41 43.31 65.36 39.34 69.79 37.71 C 74.25 35.83 77.99 32.49 82.67 31.07 C 85.44 30.25 88.14 29.20 90.63 27.70 C 93.30 26.07 96.64 26.65 99.45 25.45 C 108.64 19.13 112.46 6.52 123.44 2.62 M 121.99 5.94 C 114.36 12.59 108.37 21.00 100.36 27.23 C 95.98 28.16 91.79 29.64 87.76 31.58 C 81.15 33.47 75.72 37.89 69.34 40.29 C 67.01 41.12 65.57 43.25 63.80 44.84 C 61.26 47.66 56.95 47.66 54.40 50.47 C 50.62 54.34 46.77 58.13 42.77 61.77 C 39.85 64.39 38.07 67.92 36.21 71.31 C 34.47 74.64 31.24 76.82 29.26 79.99 C 26.54 85.13 24.54 90.63 21.60 95.66 C 20.19 97.98 20.70 100.82 19.96 103.35 C 18.88 105.91 16.28 107.92 16.50 110.92 C 16.52 126.97 16.61 143.02 16.46 159.07 C 16.21 161.91 17.79 164.34 18.97 166.79 C 22.69 176.12 26.74 185.36 31.61 194.17 C 34.13 200.33 39.77 204.17 44.28 208.75 C 47.37 211.77 48.96 216.11 52.72 218.46 C 56.44 220.94 59.20 224.52 62.62 227.35 C 68.45 230.67 74.85 232.97 80.58 236.49 C 82.71 237.64 85.25 237.30 87.54 237.90 C 89.56 238.70 90.97 240.61 93.07 241.24 C 95.93 241.62 98.84 241.26 101.69 241.75 C 104.81 242.93 107.33 245.90 110.94 245.42 C 120.31 245.24 129.69 245.26 139.06 245.42 C 142.66 245.85 145.30 243.10 148.40 241.84 C 151.20 241.21 154.12 241.62 156.96 241.22 C 159.09 240.66 160.67 238.94 162.70 238.12 C 165.13 237.30 167.89 237.56 170.13 236.17 C 174.84 233.44 179.72 231.00 184.77 228.96 C 188.47 227.56 190.53 223.93 193.60 221.64 C 196.31 219.33 199.99 217.92 201.67 214.58 C 204.53 209.05 209.78 205.43 214.07 201.10 C 218.74 197.23 221.01 191.45 224.06 186.37 C 227.48 179.32 229.57 171.69 233.38 164.83 C 233.81 147.57 233.28 130.25 233.60 112.97 C 233.57 111.14 233.75 109.27 233.29 107.48 C 232.32 105.72 230.81 104.29 230.02 102.43 C 229.34 99.94 229.67 97.12 228.06 94.96 C 224.04 89.05 223.16 81.26 217.70 76.31 C 214.21 73.35 214.22 68.19 210.82 65.18 C 208.31 62.69 205.55 60.47 203.08 57.93 C 199.16 54.05 195.66 49.44 190.43 47.23 C 185.93 45.24 183.16 40.65 178.35 39.22 C 171.74 35.81 165.35 31.85 157.97 30.27 C 157.55 29.79 156.71 28.83 156.29 28.35 C 153.17 28.09 149.79 28.32 146.94 26.87 C 144.34 24.15 142.77 20.58 139.94 18.04 C 135.59 14.01 131.74 9.47 127.31 5.54 C 125.84 3.84 123.39 4.57 121.99 5.94 Z" />
</g>
<g id="#20608cff">
<path fill="#20608c" opacity="1.00" d=" M 121.99 5.94 C 123.39 4.57 125.84 3.84 127.31 5.54 C 131.74 9.47 135.59 14.01 139.94 18.04 C 142.77 20.58 144.34 24.15 146.94 26.87 C 149.79 28.32 153.17 28.09 156.29 28.35 C 154.19 28.64 152.09 28.94 149.99 29.24 C 151.13 32.81 151.94 36.69 154.40 39.64 C 156.87 42.42 161.01 41.63 164.32 41.96 C 163.16 37.61 161.03 33.58 157.97 30.27 C 165.35 31.85 171.74 35.81 178.35 39.22 C 183.16 40.65 185.93 45.24 190.43 47.23 C 195.66 49.44 199.16 54.05 203.08 57.93 C 205.55 60.47 208.31 62.69 210.82 65.18 C 214.22 68.19 214.21 73.35 217.70 76.31 C 223.16 81.26 224.04 89.05 228.06 94.96 C 229.67 97.12 229.34 99.94 230.02 102.43 C 230.81 104.29 232.32 105.72 233.29 107.48 C 233.75 109.27 233.57 111.14 233.60 112.97 C 233.28 130.25 233.81 147.57 233.38 164.83 C 229.57 171.69 227.48 179.32 224.06 186.37 C 221.01 191.45 218.74 197.23 214.07 201.10 C 209.78 205.43 204.53 209.05 201.67 214.58 C 199.99 217.92 196.31 219.33 193.60 221.64 C 190.53 223.93 188.47 227.56 184.77 228.96 C 179.72 231.00 174.84 233.44 170.13 236.17 C 167.89 237.56 165.13 237.30 162.70 238.12 C 160.67 238.94 159.09 240.66 156.96 241.22 C 154.12 241.62 151.20 241.21 148.40 241.84 C 145.30 243.10 142.66 245.85 139.06 245.42 C 129.69 245.26 120.31 245.24 110.94 245.42 C 107.33 245.90 104.81 242.93 101.69 241.75 C 98.84 241.26 95.93 241.62 93.07 241.24 C 90.97 240.61 89.56 238.70 87.54 237.90 C 85.25 237.30 82.71 237.64 80.58 236.49 C 74.85 232.97 68.45 230.67 62.62 227.35 C 59.20 224.52 56.44 220.94 52.72 218.46 C 48.96 216.11 47.37 211.77 44.28 208.75 C 39.77 204.17 34.13 200.33 31.61 194.17 C 26.74 185.36 22.69 176.12 18.97 166.79 C 17.79 164.34 16.21 161.91 16.46 159.07 C 16.61 143.02 16.52 126.97 16.50 110.92 C 16.28 107.92 18.88 105.91 19.96 103.35 C 20.70 100.82 20.19 97.98 21.60 95.66 C 24.54 90.63 26.54 85.13 29.26 79.99 C 31.24 76.82 34.47 74.64 36.21 71.31 C 38.07 67.92 39.85 64.39 42.77 61.77 C 46.77 58.13 50.62 54.34 54.40 50.47 C 56.95 47.66 61.26 47.66 63.80 44.84 C 65.57 43.25 67.01 41.12 69.34 40.29 C 75.72 37.89 81.15 33.47 87.76 31.58 C 91.79 29.64 95.98 28.16 100.36 27.23 C 108.37 21.00 114.36 12.59 121.99 5.94 M 122.91 19.93 C 116.43 24.47 111.69 31.34 109.66 38.98 C 108.88 42.33 105.01 44.26 105.32 47.92 C 105.34 56.63 105.18 65.35 105.27 74.06 C 105.16 76.97 108.12 78.56 109.02 81.08 C 109.83 85.62 108.82 90.26 109.45 94.81 C 110.40 97.31 112.57 99.26 112.96 102.00 C 113.54 105.31 114.60 108.50 115.34 111.77 C 112.02 117.17 108.82 122.66 105.56 128.10 C 105.21 129.77 106.30 131.33 106.68 132.92 C 111.68 127.85 117.64 122.82 124.85 121.82 C 128.15 123.66 131.41 125.72 135.31 125.93 C 135.84 126.49 136.90 127.59 137.43 128.14 C 139.67 131.63 142.84 134.34 146.05 136.90 C 146.78 136.78 148.24 136.52 148.97 136.40 C 147.39 131.84 143.28 128.86 141.35 124.48 C 138.99 119.48 135.33 115.15 133.40 109.96 C 134.26 107.56 136.02 105.59 136.93 103.21 C 137.51 101.06 137.35 98.79 137.96 96.65 C 138.91 94.88 140.36 93.42 141.29 91.62 C 142.13 87.15 140.96 82.53 141.82 78.06 C 142.96 74.69 145.74 71.84 145.56 68.08 C 145.64 60.93 145.63 53.77 145.39 46.63 C 144.16 46.54 142.94 46.46 141.71 46.37 C 141.20 43.24 141.79 39.97 140.91 36.89 C 139.55 34.72 137.48 33.11 135.86 31.15 C 132.97 27.94 131.48 23.68 128.33 20.69 C 126.96 19.28 124.60 18.73 122.91 19.93 M 84.07 34.41 C 84.84 36.74 85.43 39.19 86.78 41.28 C 88.76 42.23 92.05 42.69 93.25 40.36 C 95.31 37.20 97.06 33.84 99.19 30.71 C 98.03 30.05 96.81 27.96 95.33 29.08 C 91.86 31.41 88.36 33.91 84.07 34.41 M 87.98 43.88 C 80.11 46.76 72.00 49.95 65.88 55.87 C 61.34 59.65 55.85 62.39 52.27 67.25 C 48.73 72.03 44.37 76.23 41.52 81.50 C 39.36 85.54 36.35 89.11 34.73 93.43 C 33.10 97.58 31.29 101.66 30.04 105.94 C 28.91 109.98 26.01 113.54 26.30 117.92 C 26.46 128.96 26.58 140.01 26.29 151.05 C 26.10 154.06 26.68 157.08 28.33 159.65 C 30.78 163.34 29.88 168.10 32.05 171.90 C 33.67 174.74 34.35 178.12 36.40 180.70 C 42.37 179.90 46.56 174.91 52.11 173.01 C 56.68 172.13 61.37 172.82 66.00 172.64 C 69.55 172.74 73.26 172.13 76.68 173.37 C 81.98 175.58 87.31 177.75 92.40 180.45 C 96.46 182.12 98.91 177.76 101.36 175.39 C 103.40 172.95 106.84 172.96 109.49 171.55 C 111.53 164.84 116.24 159.55 119.39 153.39 C 120.65 150.85 123.64 148.28 126.54 150.02 C 129.80 154.31 131.05 159.69 133.72 164.32 C 135.21 166.84 136.69 169.38 138.30 171.83 C 140.83 176.10 146.19 177.03 149.49 180.50 C 151.20 181.81 152.41 184.14 154.67 184.53 C 157.93 182.18 160.06 178.21 164.14 177.10 C 168.19 175.97 171.86 173.71 175.97 172.81 C 181.30 172.36 186.66 172.82 192.00 172.61 C 200.34 171.81 206.71 178.15 214.18 180.67 C 215.07 177.64 215.77 174.42 217.94 171.99 C 219.71 170.11 219.47 167.40 220.00 165.04 C 220.52 161.46 223.94 158.88 223.66 155.09 C 223.54 141.70 223.56 128.30 223.66 114.90 C 223.87 111.74 221.51 109.39 220.46 106.61 C 217.35 95.55 212.52 84.82 205.10 75.95 C 200.87 69.14 195.96 62.36 188.67 58.56 C 183.99 56.32 180.75 52.00 176.07 49.79 C 171.61 47.46 166.91 45.63 162.28 43.68 C 160.10 42.62 157.65 42.84 155.31 42.93 C 155.68 54.31 155.56 65.69 155.32 77.07 C 155.10 80.46 152.58 83.05 151.73 86.25 C 151.21 89.10 151.59 92.05 151.03 94.90 C 149.99 97.96 147.69 100.60 147.55 103.94 C 147.32 108.19 146.96 112.87 149.43 116.60 C 153.44 123.02 157.72 129.50 159.51 136.96 C 160.16 139.58 161.97 141.67 163.06 144.11 C 163.84 147.65 163.19 151.31 163.03 154.89 C 160.05 156.36 156.62 158.64 153.25 156.84 C 145.27 152.74 141.44 143.30 133.03 139.80 C 130.23 138.62 127.88 136.48 124.96 135.62 C 116.62 137.42 110.63 144.06 105.04 150.03 C 100.52 154.69 93.18 158.95 86.90 155.04 C 86.83 150.03 86.26 144.98 86.93 139.99 C 90.09 129.36 96.70 120.33 102.02 110.74 C 103.56 107.69 101.68 104.51 100.08 101.95 C 97.72 98.68 98.94 94.32 97.14 90.84 C 96.36 89.13 95.31 87.54 94.77 85.72 C 94.08 82.06 94.82 78.18 93.48 74.63 C 92.34 71.49 90.56 68.48 90.48 65.06 C 90.20 59.89 90.35 54.70 90.63 49.54 C 91.82 47.61 92.92 45.63 93.94 43.60 C 91.95 43.13 89.87 43.01 87.98 43.88 M 110.20 184.17 C 108.23 186.11 105.01 187.78 105.33 190.99 C 104.84 194.25 108.02 196.28 110.54 197.51 C 113.43 197.46 115.97 195.41 118.93 195.44 C 124.68 195.23 130.43 195.59 136.19 195.55 C 136.91 196.58 137.60 197.63 138.26 198.70 C 140.29 196.94 142.26 195.12 144.15 193.21 C 139.42 186.99 133.06 182.37 127.78 176.67 C 126.10 175.25 124.96 171.93 122.43 172.44 C 118.24 176.23 114.75 180.76 110.20 184.17 M 51.04 186.43 C 49.63 186.84 47.88 186.70 46.74 187.74 C 45.97 190.90 45.91 194.31 46.68 197.48 C 49.01 201.01 52.52 203.53 55.36 206.63 C 59.90 211.63 66.29 214.23 71.42 218.52 C 79.06 223.16 86.66 228.03 95.14 231.04 C 97.66 231.99 100.18 230.58 102.57 229.87 C 102.38 224.39 103.20 218.82 102.18 213.41 C 99.52 207.56 96.38 201.79 91.63 197.35 C 87.25 193.21 83.41 187.62 77.15 186.34 C 73.11 185.24 69.33 182.93 65.01 183.09 C 60.05 182.68 55.84 185.84 51.04 186.43 M 174.83 187.38 C 168.36 188.67 163.18 193.59 159.26 198.59 C 158.55 198.80 157.12 199.20 156.41 199.40 C 156.40 201.40 156.18 203.43 156.59 205.41 C 160.08 210.11 166.39 212.83 167.76 218.96 C 168.42 220.13 168.35 222.49 170.14 222.52 C 176.50 221.94 179.75 215.62 185.25 213.24 C 191.07 210.50 195.26 205.42 199.41 200.69 C 204.64 198.37 203.67 192.16 202.91 187.56 C 198.34 187.94 193.91 186.90 189.75 185.07 C 184.63 182.83 179.70 186.16 174.83 187.38 M 120.19 207.63 C 120.23 208.02 120.32 208.80 120.36 209.19 C 118.07 209.99 115.80 210.82 113.51 211.61 C 113.30 219.05 113.38 226.49 113.47 233.93 C 119.27 234.84 125.15 234.36 131.00 234.48 C 135.31 234.55 139.65 234.61 143.92 233.93 L 143.02 233.45 C 146.39 229.90 151.30 230.37 155.75 230.47 C 156.15 228.25 156.72 225.78 155.08 223.90 C 149.78 215.12 139.22 212.45 130.36 208.78 C 127.26 206.95 123.61 207.47 120.19 207.63 Z" />
<path fill="#20608c" opacity="1.00" d=" M 126.45 35.29 C 131.00 39.20 133.40 44.83 135.81 50.18 C 136.76 54.38 136.00 58.74 136.18 63.01 C 136.07 67.47 136.85 72.10 135.40 76.42 C 133.33 81.62 130.36 86.67 125.62 89.86 C 126.07 71.67 125.42 53.47 126.45 35.29 Z" />
</g>
<g id="#619fbcff">
<path fill="#619fbc" opacity="1.00" d=" M 122.91 19.93 C 124.60 18.73 126.96 19.28 128.33 20.69 C 131.48 23.68 132.97 27.94 135.86 31.15 C 137.48 33.11 139.55 34.72 140.91 36.89 C 141.79 39.97 141.20 43.24 141.71 46.37 L 141.87 47.15 C 140.15 42.88 140.08 37.75 136.73 34.30 C 133.00 30.34 129.49 26.15 125.41 22.55 C 125.39 26.10 124.09 30.36 126.69 33.34 C 129.81 37.00 133.51 40.30 135.50 44.78 C 138.68 50.68 137.59 57.58 137.67 64.00 C 137.57 70.04 138.26 76.57 135.08 82.01 C 132.82 86.20 128.42 88.64 125.89 92.60 C 124.82 96.62 125.63 100.87 125.49 104.99 C 125.72 109.72 124.85 114.74 126.69 119.23 C 128.82 122.28 132.50 123.64 135.31 125.93 C 131.41 125.72 128.15 123.66 124.85 121.82 C 117.64 122.82 111.68 127.85 106.68 132.92 C 106.30 131.33 105.21 129.77 105.56 128.10 C 108.82 122.66 112.02 117.17 115.34 111.77 C 114.60 108.50 113.54 105.31 112.96 102.00 C 112.57 99.26 110.40 97.31 109.45 94.81 C 108.82 90.26 109.83 85.62 109.02 81.08 C 108.12 78.56 105.16 76.97 105.27 74.06 C 105.18 65.35 105.34 56.63 105.32 47.92 C 105.01 44.26 108.88 42.33 109.66 38.98 C 111.69 31.34 116.43 24.47 122.91 19.93 M 115.19 43.17 C 112.18 46.26 114.26 51.11 112.12 54.65 C 109.18 59.70 109.76 65.97 111.78 71.24 C 113.22 74.96 113.06 79.22 115.31 82.63 C 116.63 84.73 117.37 87.12 117.91 89.53 C 120.48 89.64 123.05 89.72 125.62 89.86 C 130.36 86.67 133.33 81.62 135.40 76.42 C 136.85 72.10 136.07 67.47 136.18 63.01 C 136.00 58.74 136.76 54.38 135.81 50.18 C 133.40 44.83 131.00 39.20 126.45 35.29 C 124.76 35.56 122.91 35.32 121.36 36.14 C 119.09 38.29 117.25 40.83 115.19 43.17 Z" />
</g>
<g id="#7bcbeaff">
<path fill="#7bcbea" opacity="1.00" d=" M 125.41 22.55 C 129.49 26.15 133.00 30.34 136.73 34.30 C 140.08 37.75 140.15 42.88 141.87 47.15 C 144.93 55.75 144.66 65.54 141.01 73.91 C 138.81 79.31 140.48 85.36 138.53 90.82 C 137.09 94.85 136.01 99.00 134.61 103.04 C 133.72 105.67 132.17 108.12 131.91 110.91 C 133.18 116.47 138.38 120.09 139.85 125.55 C 139.12 126.49 138.26 127.30 137.43 128.14 C 136.90 127.59 135.84 126.49 135.31 125.93 C 132.50 123.64 128.82 122.28 126.69 119.23 C 124.85 114.74 125.72 109.72 125.49 104.99 C 125.63 100.87 124.82 96.62 125.89 92.60 C 128.42 88.64 132.82 86.20 135.08 82.01 C 138.26 76.57 137.57 70.04 137.67 64.00 C 137.59 57.58 138.68 50.68 135.50 44.78 C 133.51 40.30 129.81 37.00 126.69 33.34 C 124.09 30.36 125.39 26.10 125.41 22.55 Z" />
</g>
<g id="#1b476bff">
<path fill="#1b476b" opacity="1.00" d=" M 84.07 34.41 C 88.36 33.91 91.86 31.41 95.33 29.08 C 96.81 27.96 98.03 30.05 99.19 30.71 C 97.06 33.84 95.31 37.20 93.25 40.36 C 92.05 42.69 88.76 42.23 86.78 41.28 C 85.43 39.19 84.84 36.74 84.07 34.41 Z" />
</g>
<g id="#1c466bff">
<path fill="#1c466b" opacity="1.00" d=" M 149.99 29.24 C 152.09 28.94 154.19 28.64 156.29 28.35 C 156.71 28.83 157.55 29.79 157.97 30.27 C 161.03 33.58 163.16 37.61 164.32 41.96 C 161.01 41.63 156.87 42.42 154.40 39.64 C 151.94 36.69 151.13 32.81 149.99 29.24 Z" />
</g>
<g id="#145380ff">
<path fill="#145380" opacity="1.00" d=" M 115.19 43.17 C 117.25 40.83 119.09 38.29 121.36 36.14 C 122.91 35.32 124.76 35.56 126.45 35.29 C 125.42 53.47 126.07 71.67 125.62 89.86 C 123.05 89.72 120.48 89.64 117.91 89.53 C 117.37 87.12 116.63 84.73 115.31 82.63 C 113.06 79.22 113.22 74.96 111.78 71.24 C 109.76 65.97 109.18 59.70 112.12 54.65 C 114.26 51.11 112.18 46.26 115.19 43.17 Z" />
</g>
<g id="#11a5c4ff">
<path fill="#11a5c4" opacity="1.00" d=" M 87.98 43.88 C 89.87 43.01 91.95 43.13 93.94 43.60 C 92.92 45.63 91.82 47.61 90.63 49.54 C 90.35 54.70 90.20 59.89 90.48 65.06 C 90.56 68.48 92.34 71.49 93.48 74.63 C 94.82 78.18 94.08 82.06 94.77 85.72 C 95.31 87.54 96.36 89.13 97.14 90.84 C 98.94 94.32 97.72 98.68 100.08 101.95 C 101.68 104.51 103.56 107.69 102.02 110.74 C 96.70 120.33 90.09 129.36 86.93 139.99 C 86.26 144.98 86.83 150.03 86.90 155.04 C 93.18 158.95 100.52 154.69 105.04 150.03 C 110.63 144.06 116.62 137.42 124.96 135.62 C 127.88 136.48 130.23 138.62 133.03 139.80 C 141.44 143.30 145.27 152.74 153.25 156.84 C 156.62 158.64 160.05 156.36 163.03 154.89 C 163.19 151.31 163.84 147.65 163.06 144.11 C 161.97 141.67 160.16 139.58 159.51 136.96 C 157.72 129.50 153.44 123.02 149.43 116.60 C 146.96 112.87 147.32 108.19 147.55 103.94 C 147.69 100.60 149.99 97.96 151.03 94.90 C 151.59 92.05 151.21 89.10 151.73 86.25 C 152.58 83.05 155.10 80.46 155.32 77.07 C 155.56 65.69 155.68 54.31 155.31 42.93 C 157.65 42.84 160.10 42.62 162.28 43.68 C 166.91 45.63 171.61 47.46 176.07 49.79 C 180.75 52.00 183.99 56.32 188.67 58.56 C 195.96 62.36 200.87 69.14 205.10 75.95 C 212.52 84.82 217.35 95.55 220.46 106.61 C 221.51 109.39 223.87 111.74 223.66 114.90 C 223.56 128.30 223.54 141.70 223.66 155.09 C 223.94 158.88 220.52 161.46 220.00 165.04 C 219.47 167.40 219.71 170.11 217.94 171.99 C 215.77 174.42 215.07 177.64 214.18 180.67 C 206.71 178.15 200.34 171.81 192.00 172.61 C 186.66 172.82 181.30 172.36 175.97 172.81 C 171.86 173.71 168.19 175.97 164.14 177.10 C 160.06 178.21 157.93 182.18 154.67 184.53 C 152.41 184.14 151.20 181.81 149.49 180.50 C 146.19 177.03 140.83 176.10 138.30 171.83 C 136.69 169.38 135.21 166.84 133.72 164.32 C 131.05 159.69 129.80 154.31 126.54 150.02 C 123.64 148.28 120.65 150.85 119.39 153.39 C 116.24 159.55 111.53 164.84 109.49 171.55 C 106.84 172.96 103.40 172.95 101.36 175.39 C 98.91 177.76 96.46 182.12 92.40 180.45 C 87.31 177.75 81.98 175.58 76.68 173.37 C 73.26 172.13 69.55 172.74 66.00 172.64 C 61.37 172.82 56.68 172.13 52.11 173.01 C 46.56 174.91 42.37 179.90 36.40 180.70 C 34.35 178.12 33.67 174.74 32.05 171.90 C 29.88 168.10 30.78 163.34 28.33 159.65 C 26.68 157.08 26.10 154.06 26.29 151.05 C 26.58 140.01 26.46 128.96 26.30 117.92 C 26.01 113.54 28.91 109.98 30.04 105.94 C 31.29 101.66 33.10 97.58 34.73 93.43 C 36.35 89.11 39.36 85.54 41.52 81.50 C 44.37 76.23 48.73 72.03 52.27 67.25 C 55.85 62.39 61.34 59.65 65.88 55.87 C 72.00 49.95 80.11 46.76 87.98 43.88 M 157.23 43.96 C 157.02 47.80 157.86 51.56 158.83 55.25 C 159.89 58.70 158.51 62.16 157.86 65.54 C 156.82 69.99 157.42 74.58 157.16 79.09 C 157.06 82.54 154.78 85.32 153.81 88.52 C 153.05 91.73 153.94 95.31 152.21 98.28 C 150.97 100.81 149.07 103.27 149.30 106.25 C 149.21 110.15 150.94 113.75 152.88 117.02 C 156.74 123.58 160.01 130.46 162.63 137.59 C 165.54 142.99 165.49 149.48 164.27 155.33 C 161.76 158.19 157.37 162.40 153.43 159.62 C 147.16 155.32 142.55 149.11 136.86 144.17 C 132.96 141.90 128.97 139.77 125.02 137.60 C 119.84 139.91 114.28 142.09 110.43 146.44 C 105.26 152.04 99.89 158.51 92.07 160.20 C 89.09 158.88 85.11 156.81 85.25 153.02 C 85.07 148.32 85.10 143.61 85.18 138.92 C 85.13 135.50 87.36 132.72 88.61 129.70 C 91.11 123.83 94.28 118.21 98.21 113.17 C 99.15 111.84 100.31 110.58 100.76 108.98 C 100.24 105.86 97.83 103.48 96.96 100.48 C 96.50 98.17 96.73 95.78 96.24 93.48 C 95.55 91.17 94.10 89.17 93.48 86.84 C 92.89 83.70 93.35 80.43 92.50 77.33 C 91.44 74.24 89.32 71.46 89.25 68.07 C 88.85 61.15 89.67 54.19 88.74 47.29 C 82.44 46.45 77.42 50.55 72.24 53.37 C 67.36 56.28 63.62 60.66 59.40 64.39 C 54.74 69.04 50.15 73.79 45.85 78.77 C 43.27 83.25 40.86 87.83 38.17 92.25 C 36.00 97.81 32.86 103.03 31.66 108.94 C 30.85 112.72 28.04 115.95 28.31 119.97 C 28.60 129.70 28.73 139.44 28.32 149.17 C 28.06 152.11 29.01 154.93 30.32 157.52 C 32.38 161.44 31.91 166.11 33.90 170.05 C 35.08 172.55 36.21 175.08 37.19 177.67 C 40.77 176.28 44.20 174.52 47.49 172.53 C 51.55 170.08 56.50 170.91 61.01 170.82 C 66.67 171.08 72.38 170.45 78.00 171.30 C 83.57 172.69 88.29 176.11 93.25 178.80 C 96.43 179.47 98.10 175.88 100.21 174.17 C 102.14 171.74 105.28 171.15 108.09 170.33 C 109.54 164.33 113.12 159.24 115.82 153.78 C 117.20 151.41 118.44 148.29 121.40 147.60 C 123.56 147.22 126.07 146.86 128.07 147.98 C 132.45 151.76 132.87 157.91 135.24 162.84 C 140.08 170.34 147.58 175.45 154.18 181.25 C 159.66 177.18 165.43 173.22 172.09 171.38 C 178.00 170.23 184.03 171.40 189.99 171.06 C 194.19 171.06 198.78 170.26 202.60 172.47 C 206.08 174.40 209.56 176.33 213.05 178.23 C 214.59 173.42 217.77 169.17 218.04 163.99 C 218.38 159.77 222.08 156.54 221.66 152.18 C 221.45 142.88 221.43 133.58 221.56 124.28 C 221.56 120.34 222.39 116.13 220.48 112.49 C 216.54 104.01 214.34 94.71 209.23 86.80 C 203.19 75.99 194.99 66.29 184.90 59.05 C 177.52 51.17 167.10 47.57 157.23 43.96 Z" />
</g>
<g id="#01efffff">
<path fill="#01efff" opacity="1.00" d=" M 157.23 43.96 C 167.10 47.57 177.52 51.17 184.90 59.05 C 194.99 66.29 203.19 75.99 209.23 86.80 C 214.34 94.71 216.54 104.01 220.48 112.49 C 222.39 116.13 221.56 120.34 221.56 124.28 C 221.43 133.58 221.45 142.88 221.66 152.18 C 222.08 156.54 218.38 159.77 218.04 163.99 C 217.77 169.17 214.59 173.42 213.05 178.23 C 209.56 176.33 206.08 174.40 202.60 172.47 C 198.78 170.26 194.19 171.06 189.99 171.06 C 184.03 171.40 178.00 170.23 172.09 171.38 C 165.43 173.22 159.66 177.18 154.18 181.25 C 147.58 175.45 140.08 170.34 135.24 162.84 C 132.87 157.91 132.45 151.76 128.07 147.98 C 126.07 146.86 123.56 147.22 121.40 147.60 C 118.44 148.29 117.20 151.41 115.82 153.78 C 113.12 159.24 109.54 164.33 108.09 170.33 C 105.28 171.15 102.14 171.74 100.21 174.17 C 98.10 175.88 96.43 179.47 93.25 178.80 C 88.29 176.11 83.57 172.69 78.00 171.30 C 72.38 170.45 66.67 171.08 61.01 170.82 C 56.50 170.91 51.55 170.08 47.49 172.53 C 44.20 174.52 40.77 176.28 37.19 177.67 C 36.21 175.08 35.08 172.55 33.90 170.05 C 31.91 166.11 32.38 161.44 30.32 157.52 C 29.01 154.93 28.06 152.11 28.32 149.17 C 28.73 139.44 28.60 129.70 28.31 119.97 C 28.04 115.95 30.85 112.72 31.66 108.94 C 32.86 103.03 36.00 97.81 38.17 92.25 C 40.86 87.83 43.27 83.25 45.85 78.77 C 50.15 73.79 54.74 69.04 59.40 64.39 C 63.62 60.66 67.36 56.28 72.24 53.37 C 77.42 50.55 82.44 46.45 88.74 47.29 C 89.67 54.19 88.85 61.15 89.25 68.07 C 89.32 71.46 91.44 74.24 92.50 77.33 C 93.35 80.43 92.89 83.70 93.48 86.84 C 94.10 89.17 95.55 91.17 96.24 93.48 C 96.73 95.78 96.50 98.17 96.96 100.48 C 97.83 103.48 100.24 105.86 100.76 108.98 C 100.31 110.58 99.15 111.84 98.21 113.17 C 94.28 118.21 91.11 123.83 88.61 129.70 C 87.36 132.72 85.13 135.50 85.18 138.92 C 85.10 143.61 85.07 148.32 85.25 153.02 C 85.11 156.81 89.09 158.88 92.07 160.20 C 99.89 158.51 105.26 152.04 110.43 146.44 C 114.28 142.09 119.84 139.91 125.02 137.60 C 128.97 139.77 132.96 141.90 136.86 144.17 C 142.55 149.11 147.16 155.32 153.43 159.62 C 157.37 162.40 161.76 158.19 164.27 155.33 C 165.49 149.48 165.54 142.99 162.63 137.59 C 160.01 130.46 156.74 123.58 152.88 117.02 C 150.94 113.75 149.21 110.15 149.30 106.25 C 149.07 103.27 150.97 100.81 152.21 98.28 C 153.94 95.31 153.05 91.73 153.81 88.52 C 154.78 85.32 157.06 82.54 157.16 79.09 C 157.42 74.58 156.82 69.99 157.86 65.54 C 158.51 62.16 159.89 58.70 158.83 55.25 C 157.86 51.56 157.02 47.80 157.23 43.96 M 69.50 86.18 C 66.47 86.26 63.49 85.15 60.45 85.49 C 59.24 86.03 58.73 87.38 57.91 88.34 C 60.63 90.53 65.44 91.92 65.67 95.95 C 64.36 99.32 62.03 102.32 61.91 106.09 C 67.55 106.33 69.28 99.70 74.05 98.19 C 76.65 99.06 78.89 100.68 81.26 102.02 C 82.45 97.48 77.91 94.56 75.75 91.17 C 76.99 88.22 80.62 84.11 77.57 81.24 C 74.04 80.93 72.58 85.35 69.50 86.18 M 184.70 88.78 C 180.05 90.44 175.77 86.94 171.34 86.02 C 171.30 87.85 170.84 89.75 171.36 91.55 C 173.62 95.48 179.33 97.74 178.95 102.90 C 177.80 106.62 174.83 109.73 175.09 113.86 C 176.66 113.63 178.57 114.09 179.81 112.84 C 183.01 109.89 185.70 106.44 189.00 103.59 C 193.24 105.92 197.99 107.33 202.86 106.69 C 202.79 105.32 202.77 103.95 202.55 102.59 C 199.07 100.09 195.08 98.23 192.21 94.93 C 194.88 90.93 197.18 86.36 195.67 81.44 C 194.98 81.32 193.60 81.09 192.91 80.97 C 190.14 83.53 187.90 86.72 184.70 88.78 M 54.55 134.59 C 53.72 136.55 54.41 138.82 55.57 140.50 C 57.59 141.15 59.54 140.16 61.40 139.50 C 60.46 136.02 60.84 132.45 61.36 128.95 C 58.94 130.60 56.20 132.07 54.55 134.59 M 191.06 149.76 C 191.66 150.55 192.28 151.35 192.89 152.13 C 195.27 150.48 197.91 149.03 199.66 146.66 C 199.97 144.55 198.21 143.01 197.17 141.40 C 194.52 143.68 192.35 146.49 191.06 149.76 Z" />
</g>
<g id="#57a0c5ff">
<path fill="#57a0c5" opacity="1.00" d=" M 141.71 46.37 C 142.94 46.46 144.16 46.54 145.39 46.63 C 145.63 53.77 145.64 60.93 145.56 68.08 C 145.74 71.84 142.96 74.69 141.82 78.06 C 140.96 82.53 142.13 87.15 141.29 91.62 C 140.36 93.42 138.91 94.88 137.96 96.65 C 137.35 98.79 137.51 101.06 136.93 103.21 C 136.02 105.59 134.26 107.56 133.40 109.96 C 135.33 115.15 138.99 119.48 141.35 124.48 C 143.28 128.86 147.39 131.84 148.97 136.40 C 148.24 136.52 146.78 136.78 146.05 136.90 C 142.84 134.34 139.67 131.63 137.43 128.14 C 138.26 127.30 139.12 126.49 139.85 125.55 C 138.38 120.09 133.18 116.47 131.91 110.91 C 132.17 108.12 133.72 105.67 134.61 103.04 C 136.01 99.00 137.09 94.85 138.53 90.82 C 140.48 85.36 138.81 79.31 141.01 73.91 C 144.66 65.54 144.93 55.75 141.87 47.15 L 141.71 46.37 Z" />
</g>
<g id="#4bd8f2ff">
<path fill="#4bd8f2" opacity="1.00" d=" M 69.50 86.18 C 72.58 85.35 74.04 80.93 77.57 81.24 C 80.62 84.11 76.99 88.22 75.75 91.17 C 77.91 94.56 82.45 97.48 81.26 102.02 C 78.89 100.68 76.65 99.06 74.05 98.19 C 69.28 99.70 67.55 106.33 61.91 106.09 C 62.03 102.32 64.36 99.32 65.67 95.95 C 65.44 91.92 60.63 90.53 57.91 88.34 C 58.73 87.38 59.24 86.03 60.45 85.49 C 63.49 85.15 66.47 86.26 69.50 86.18 M 67.84 90.89 C 65.81 93.32 67.15 96.72 67.19 99.56 C 70.32 98.26 73.53 97.15 76.78 96.17 C 75.70 94.44 74.65 92.69 73.59 90.94 C 75.47 88.24 77.71 85.45 77.45 81.95 C 74.07 84.73 70.69 87.56 67.84 90.89 Z" />
</g>
<g id="#38dff6ff">
<path fill="#38dff6" opacity="1.00" d=" M 184.70 88.78 C 187.90 86.72 190.14 83.53 192.91 80.97 C 193.60 81.09 194.98 81.32 195.67 81.44 C 197.18 86.36 194.88 90.93 192.21 94.93 C 195.08 98.23 199.07 100.09 202.55 102.59 C 202.77 103.95 202.79 105.32 202.86 106.69 C 197.99 107.33 193.24 105.92 189.00 103.59 C 185.70 106.44 183.01 109.89 179.81 112.84 C 178.57 114.09 176.66 113.63 175.09 113.86 C 174.83 109.73 177.80 106.62 178.95 102.90 C 179.33 97.74 173.62 95.48 171.36 91.55 C 170.84 89.75 171.30 87.85 171.34 86.02 C 175.77 86.94 180.05 90.44 184.70 88.78 M 185.56 90.35 C 181.63 90.81 177.66 90.27 173.72 90.45 C 175.65 92.82 178.11 94.76 179.76 97.35 C 180.53 99.78 180.53 102.45 179.96 104.92 C 178.91 107.68 177.13 110.13 176.46 113.03 C 181.27 109.76 184.86 105.10 189.11 101.19 C 192.16 103.18 195.46 105.01 199.23 104.99 C 197.86 100.25 191.52 98.92 190.88 94.01 C 191.96 90.13 195.44 87.09 195.02 82.75 C 190.88 83.95 188.91 88.04 185.56 90.35 Z" />
</g>
<g id="#73cceaff">
<path fill="#73ccea" opacity="1.00" d=" M 67.84 90.89 C 70.69 87.56 74.07 84.73 77.45 81.95 C 77.71 85.45 75.47 88.24 73.59 90.94 C 74.65 92.69 75.70 94.44 76.78 96.17 C 73.53 97.15 70.32 98.26 67.19 99.56 C 67.15 96.72 65.81 93.32 67.84 90.89 Z" />
</g>
<g id="#75cbe9ff">
<path fill="#75cbe9" opacity="1.00" d=" M 185.56 90.35 C 188.91 88.04 190.88 83.95 195.02 82.75 C 195.44 87.09 191.96 90.13 190.88 94.01 C 191.52 98.92 197.86 100.25 199.23 104.99 C 195.46 105.01 192.16 103.18 189.11 101.19 C 184.86 105.10 181.27 109.76 176.46 113.03 C 177.13 110.13 178.91 107.68 179.96 104.92 C 180.53 102.45 180.53 99.78 179.76 97.35 C 178.11 94.76 175.65 92.82 173.72 90.45 C 177.66 90.27 181.63 90.81 185.56 90.35 Z" />
</g>
<g id="#6fcfecff">
<path fill="#6fcfec" opacity="1.00" d=" M 54.55 134.59 C 56.20 132.07 58.94 130.60 61.36 128.95 C 60.84 132.45 60.46 136.02 61.40 139.50 C 59.54 140.16 57.59 141.15 55.57 140.50 C 54.41 138.82 53.72 136.55 54.55 134.59 Z" />
</g>
<g id="#51d6eeff">
<path fill="#51d6ee" opacity="1.00" d=" M 191.06 149.76 C 192.35 146.49 194.52 143.68 197.17 141.40 C 198.21 143.01 199.97 144.55 199.66 146.66 C 197.91 149.03 195.27 150.48 192.89 152.13 C 192.28 151.35 191.66 150.55 191.06 149.76 Z" />
</g>
<g id="#bababfff">
<path fill="#bababf" opacity="1.00" d=" M 110.20 184.17 C 114.75 180.76 118.24 176.23 122.43 172.44 C 124.96 171.93 126.10 175.25 127.78 176.67 C 126.63 176.98 125.48 177.29 124.32 177.60 C 124.40 182.64 124.79 187.66 125.48 192.65 C 129.13 193.24 132.88 193.80 136.19 195.55 C 130.43 195.59 124.68 195.23 118.93 195.44 C 115.97 195.41 113.43 197.46 110.54 197.51 C 108.02 196.28 104.84 194.25 105.33 190.99 C 105.01 187.78 108.23 186.11 110.20 184.17 Z" />
</g>
<g id="#c9cbceff">
<path fill="#c9cbce" opacity="1.00" d=" M 124.32 177.60 C 125.48 177.29 126.63 176.98 127.78 176.67 C 133.06 182.37 139.42 186.99 144.15 193.21 C 142.26 195.12 140.29 196.94 138.26 198.70 C 137.60 197.63 136.91 196.58 136.19 195.55 C 132.88 193.80 129.13 193.24 125.48 192.65 C 124.79 187.66 124.40 182.64 124.32 177.60 Z" />
</g>
<g id="#7e9bb1ff">
<path fill="#7e9bb1" opacity="1.00" d=" M 51.04 186.43 C 55.84 185.84 60.05 182.68 65.01 183.09 C 69.33 182.93 73.11 185.24 77.15 186.34 C 83.41 187.62 87.25 193.21 91.63 197.35 C 96.38 201.79 99.52 207.56 102.18 213.41 C 103.20 218.82 102.38 224.39 102.57 229.87 C 100.18 230.58 97.66 231.99 95.14 231.04 C 86.66 228.03 79.06 223.16 71.42 218.52 C 66.29 214.23 59.90 211.63 55.36 206.63 C 52.52 203.53 49.01 201.01 46.68 197.48 C 45.91 194.31 45.97 190.90 46.74 187.74 C 47.88 186.70 49.63 186.84 51.04 186.43 M 58.76 187.49 C 55.15 188.62 51.34 188.69 47.60 189.08 C 47.73 189.50 48.00 190.36 48.13 190.79 C 47.98 193.41 47.30 196.56 49.44 198.62 C 53.58 203.16 58.25 207.30 63.61 210.36 C 67.62 212.59 70.65 216.22 74.80 218.22 C 77.40 219.51 79.84 221.09 82.15 222.85 C 85.54 225.43 89.75 226.50 93.48 228.47 C 95.53 229.61 97.88 229.90 100.19 230.00 C 100.68 224.05 101.88 217.56 99.01 212.01 C 97.19 208.28 95.85 204.18 92.82 201.20 C 88.85 197.15 84.92 192.82 79.87 190.12 C 75.84 188.43 71.49 187.70 67.30 186.55 C 64.42 185.59 61.51 186.67 58.76 187.49 Z" />
</g>
<g id="#d0d2d1ff">
<path fill="#d0d2d1" opacity="1.00" d=" M 174.83 187.38 C 179.70 186.16 184.63 182.83 189.75 185.07 C 193.91 186.90 198.34 187.94 202.91 187.56 C 203.67 192.16 204.64 198.37 199.41 200.69 C 195.07 202.92 190.09 204.58 185.17 203.61 C 180.99 202.91 177.24 200.56 173.00 200.22 C 168.00 201.07 163.38 203.50 158.32 204.20 C 158.55 202.31 158.86 200.45 159.26 198.59 C 163.18 193.59 168.36 188.67 174.83 187.38 Z" />
<path fill="#d0d2d1" opacity="1.00" d=" M 58.76 187.49 C 61.51 186.67 64.42 185.59 67.30 186.55 C 71.49 187.70 75.84 188.43 79.87 190.12 C 84.92 192.82 88.85 197.15 92.82 201.20 C 95.85 204.18 97.19 208.28 99.01 212.01 C 101.88 217.56 100.68 224.05 100.19 230.00 C 96.45 228.30 92.57 226.96 88.88 225.16 C 85.10 223.60 85.15 218.85 83.15 215.81 C 79.89 210.54 77.54 203.96 71.40 201.36 C 64.19 196.66 55.91 194.27 48.13 190.79 C 48.00 190.36 47.73 189.50 47.60 189.08 C 51.34 188.69 55.15 188.62 58.76 187.49 Z" />
</g>
<g id="#bbbabfff">
<path fill="#bbbabf" opacity="1.00" d=" M 48.13 190.79 C 55.91 194.27 64.19 196.66 71.40 201.36 C 77.54 203.96 79.89 210.54 83.15 215.81 C 85.15 218.85 85.10 223.60 88.88 225.16 C 92.57 226.96 96.45 228.30 100.19 230.00 C 97.88 229.90 95.53 229.61 93.48 228.47 C 89.75 226.50 85.54 225.43 82.15 222.85 C 79.84 221.09 77.40 219.51 74.80 218.22 C 70.65 216.22 67.62 212.59 63.61 210.36 C 58.25 207.30 53.58 203.16 49.44 198.62 C 47.30 196.56 47.98 193.41 48.13 190.79 Z" />
<path fill="#bbbabf" opacity="1.00" d=" M 156.41 199.40 C 157.12 199.20 158.55 198.80 159.26 198.59 C 158.86 200.45 158.55 202.31 158.32 204.20 C 163.38 203.50 168.00 201.07 173.00 200.22 C 177.24 200.56 180.99 202.91 185.17 203.61 C 190.09 204.58 195.07 202.92 199.41 200.69 C 195.26 205.42 191.07 210.50 185.25 213.24 C 179.75 215.62 176.50 221.94 170.14 222.52 C 168.35 222.49 168.42 220.13 167.76 218.96 C 166.39 212.83 160.08 210.11 156.59 205.41 C 156.18 203.43 156.40 201.40 156.41 199.40 Z" />
</g>
<g id="#ced1d0ff">
<path fill="#ced1d0" opacity="1.00" d=" M 120.19 207.63 C 123.61 207.47 127.26 206.95 130.36 208.78 C 139.22 212.45 149.78 215.12 155.08 223.90 C 156.72 225.78 156.15 228.25 155.75 230.47 C 151.30 230.37 146.39 229.90 143.02 233.45 C 137.20 231.71 137.53 224.26 132.76 221.31 C 129.42 218.96 125.49 217.52 122.40 214.81 C 120.75 213.44 120.62 211.16 120.36 209.19 C 120.32 208.80 120.23 208.02 120.19 207.63 Z" />
</g>
<g id="#bcbbbfff">
<path fill="#bcbbbf" opacity="1.00" d=" M 113.51 211.61 C 115.80 210.82 118.07 209.99 120.36 209.19 C 120.62 211.16 120.75 213.44 122.40 214.81 C 125.49 217.52 129.42 218.96 132.76 221.31 C 137.53 224.26 137.20 231.71 143.02 233.45 L 143.92 233.93 C 139.65 234.61 135.31 234.55 131.00 234.48 C 125.15 234.36 119.27 234.84 113.47 233.93 C 113.38 226.49 113.30 219.05 113.51 211.61 Z" />
</g>
</svg>
