<?xml version="1.0" encoding="utf-8"?>
<!-- Generator: Adobe Illustrator 26.0.3, SVG Export Plug-In . SVG Version: 6.00 Build 0)  -->
<svg version="1.1" id="Layer_1" xmlns="http://www.w3.org/2000/svg" xmlns:xlink="http://www.w3.org/1999/xlink" x="0px" y="0px"
	 viewBox="0 0 250 250" style="enable-background:new 0 0 250 250;" xml:space="preserve">
<style type="text/css">
	.st0{fill:#F3F4C7;}
	.st1{fill:#CDB87F;}
	.st2{fill:#BA914B;}
	.st3{fill:#D3AB57;}
	.st4{fill:#EBCB6B;}
	.st5{fill:#F3E68B;}
	.st6{fill:#FFF4A6;}
	.st7{fill:#B2813A;}
	.st8{fill:#DF8B45;}
	.st9{fill:#EFCB65;}
	.st10{fill:#FDF58E;}
	.st11{fill:#FAF1B5;}
	.st12{fill:#D3AD58;}
	.st13{fill:#99683C;}
	.st14{fill:#B0602B;}
	.st15{fill:#F1A552;}
	.st16{fill:#F3AF5C;}
	.st17{fill:#4E210D;}
	.st18{fill:#A06136;}
	.st19{fill:#FAF5C6;}
	.st20{fill:#C9B588;}
	.st21{fill:#9C5329;}
	.st22{fill:#FDD56D;}
	.st23{fill:#FCF9D0;}
	.st24{fill:#45200F;}
	.st25{fill:#FCF7CD;}
	.st26{fill:#91642C;}
	.st27{fill:#FEED82;}
	.st28{fill:#D0A883;}
	.st29{fill:#FBE47A;}
	.st30{fill:#C17D46;}
	.st31{fill:#B27444;}
	.st32{fill:#C49A4C;}
	.st33{fill:#C0743C;}
	.st34{fill:#D9B197;}
	.st35{fill:#9D7F3C;}
	.st36{fill:#8E471E;}
	.st37{fill:#A35424;}
	.st38{fill:#FEF9BD;}
	.st39{fill:#90431C;}
	.st40{fill:#633D26;}
	.st41{fill:#86888B;}
	.st42{fill:#FEE071;}
	.st43{fill:#745847;}
	.st44{fill:#C69358;}
	.st45{fill:#603E2A;}
	.st46{fill:#9D6F30;}
	.st47{fill:#CD6D2E;}
	.st48{fill:#56311A;}
	.st49{fill:#8B8788;}
	.st50{fill:#3D2517;}
	.st51{fill:#56341F;}
	.st52{fill:#E9CF72;}
	.st53{fill:#E6E0D9;}
	.st54{fill:#F99D4F;}
	.st55{fill:#E1D7C7;}
	.st56{fill:#402818;}
	.st57{fill:#DE7733;}
	.st58{fill:#7F3D1B;}
	.st59{fill:#FBF0AA;}
	.st60{fill:#E6E0DD;}
	.st61{fill:#B59545;}
	.st62{fill:#BA7A59;}
	.st63{fill:#E5DCCC;}
	.st64{fill:#845039;}
	.st65{fill:#E2CA71;}
	.st66{fill:#F0DB87;}
	.st67{fill:#E49D4E;}
	.st68{fill:#98652B;}
	.st69{fill:#DF9845;}
	.st70{fill:#EEE7AE;}
	.st71{fill:#FB9F4E;}
	.st72{fill:#DB9B50;}
	.st73{fill:#D67433;}
	.st74{fill:#FAF6A7;}
	.st75{fill:#F7EDA6;}
	.st76{fill:#AEA589;}
	.st77{fill:#EED584;}
	.st78{fill:#ECD77C;}
	.st79{fill:#F6DB7D;}
	.st80{fill:#F8DE70;}
	.st81{fill:#E0C667;}
	.st82{fill:#FCFCF6;}
	.st83{fill:#F8F7EF;}
	.st84{fill:#BB7A42;}
	.st85{fill:#F6DF82;}
	.st86{fill:#F4F3E4;}
	.st87{fill:#EFAF57;}
	.st88{fill:#F4DD81;}
	.st89{fill:#AE6536;}
	.st90{fill:#B7B5B2;}
	.st91{fill:#8A8783;}
	.st92{fill:#FAF2C7;}
	.st93{fill:#A9833F;}
	.st94{fill:#413834;}
	.st95{fill:#AFA78A;}
	.st96{fill:#9C7447;}
	.st97{fill:#FEEB9B;}
	.st98{fill:#7E5A24;}
	.st99{fill:#EDD480;}
	.st100{fill:#F1E28A;}
	.st101{fill:#F6BA66;}
	.st102{fill:#936438;}
	.st103{fill:#DC7431;}
	.st104{fill:#B74D16;}
	.st105{fill:#8D652D;}
	.st106{fill:#8F562F;}
	.st107{fill:#E57C36;}
	.st108{fill:#FBF0A0;}
	.st109{fill:#773E1B;}
	.st110{fill:#F7D78F;}
	.st111{fill:#F2E289;}
	.st112{fill:#BFA150;}
	.st113{fill:#F5E698;}
	.st114{fill:#A87D4E;}
	.st115{fill:#F6B664;}
	.st116{fill:#EED581;}
	.st117{fill:#B6672A;}
	.st118{fill:#B2A683;}
	.st119{fill:#B27840;}
	.st120{fill:#EF923D;}
	.st121{fill:#F3E8D1;}
	.st122{fill:#DEA059;}
	.st123{fill:#ECCA65;}
	.st124{fill:#724A1B;}
	.st125{fill:#F6D167;}
	.st126{fill:#FDF8E6;}
	.st127{fill:#89662C;}
	.st128{fill:#F8EE95;}
	.st129{fill:#FAFAEC;}
	.st130{fill:#F7EA94;}
	.st131{fill:#AA8A5B;}
	.st132{fill:#FDFCA9;}
	.st133{fill:#C9A44F;}
	.st134{fill:#8B5C26;}
	.st135{fill:#B2A779;}
	.st136{fill:#D1B052;}
	.st137{fill:#DEB55A;}
	.st138{fill:#F6ED98;}
	.st139{fill:#F7AF53;}
	.st140{fill:#955D2E;}
	.st141{fill:#FFFEF5;}
	.st142{fill:#C4A655;}
	.st143{fill:#FAE070;}
	.st144{fill:#6D4B1B;}
	.st145{fill:#F7EF9A;}
	.st146{fill:#936E32;}
	.st147{fill:#D5843B;}
	.st148{fill:#F5B462;}
	.st149{fill:#F0E590;}
	.st150{fill:#FEFA93;}
	.st151{fill:#8F6C32;}
	.st152{fill:#F3EA96;}
	.st153{fill:#F9B662;}
	.st154{fill:#ECCF68;}
	.st155{fill:#FDF78F;}
	.st156{fill:#E5B26A;}
	.st157{fill:#B7863A;}
	.st158{fill:#B1925A;}
	.st159{fill:#6D4A1C;}
	.st160{fill:#674318;}
	.st161{fill:#FDF1A8;}
	.st162{fill:#D9A662;}
	.st163{fill:#B6954C;}
	.st164{fill:#FAF08C;}
	.st165{fill:#FEFBED;}
	.st166{fill:#F0D794;}
	.st167{fill:#A2813E;}
	.st168{fill:#937032;}
	.st169{fill:#91815B;}
	.st170{fill:#9B7634;}
	.st171{fill:#F7E8A5;}
	.st172{fill:#FEFBDF;}
	.st173{fill:#B2A371;}
	.st174{fill:#F8DB6C;}
	.st175{fill:#8F7E5D;}
	.st176{fill:#F1A44B;}
	.st177{fill:#FDFBD4;}
	.st178{fill:#96845D;}
	.st179{fill:#CEA54E;}
	.st180{fill:#A67D30;}
	.st181{fill:#633F15;}
	.st182{fill:#F7F1B0;}
	.st183{fill:#AC7040;}
	.st184{fill:#975C2D;}
	.st185{fill:#915225;}
	.st186{fill:#FCFBFA;}
	.st187{fill:#F5F1ED;}
	.st188{fill:#F4F0EC;}
	.st189{fill:#FCED7E;}
	.st190{fill:#B87B46;}
	.st191{fill:#C0A792;}
	.st192{fill:#FEF9B1;}
	.st193{fill:#FBFAF8;}
	.st194{fill:#FFF8DB;}
	.st195{fill:#B17B50;}
	.st196{fill:#F18B3C;}
	.st197{fill:#FEFDB0;}
	.st198{fill:#FCFAF9;}
	.st199{fill:#C2AA95;}
	.st200{fill:#FEE08B;}
	.st201{fill:#FBF9F7;}
	.st202{fill:#E2863C;}
	.st203{fill:#F8A445;}
	.st204{fill:#F6C26A;}
	.st205{fill:#FFD173;}
	.st206{fill:#C7B19F;}
	.st207{fill:#B59881;}
	.st208{fill:#DA7D2F;}
	.st209{fill:#AF7546;}
	.st210{fill:#B2875D;}
	.st211{fill:#A6744F;}
	.st212{fill:#EE8633;}
	.st213{fill:#975325;}
	.st214{fill:#F1AE54;}
	.st215{fill:#F9B04B;}
	.st216{fill:#F7A247;}
	.st217{fill:#B1937A;}
	.st218{fill:#E98C3C;}
	.st219{fill:#FFFDE9;}
	.st220{fill:#CBB6A6;}
	.st221{fill:#945529;}
	.st222{fill:#FFFDE2;}
	.st223{fill:#FAC87A;}
	.st224{fill:#FFFCD2;}
	.st225{fill:#DED1C6;}
	.st226{fill:#AA886C;}
	.st227{fill:#C3AD9A;}
	.st228{fill:#FFE293;}
	.st229{fill:#E8C55F;}
	.st230{fill:#A68163;}
	.st231{fill:#8D5023;}
	.st232{fill:#B38638;}
	.st233{fill:#995425;}
	.st234{fill:#FBE97A;}
	.st235{fill:#C5994C;}
	.st236{fill:#985529;}
	.st237{fill:#FEFA8D;}
	.st238{fill:#FBE46A;}
	.st239{fill:#FCEE7A;}
	.st240{fill:#B07C3E;}
	.st241{fill:#B99C85;}
	.st242{fill:#D1B155;}
	.st243{fill:#D59947;}
	.st244{fill:#F2D56A;}
	.st245{fill:#B99846;}
	.st246{fill:#704919;}
	.st247{fill:#E1C05D;}
	.st248{fill:#8D692E;}
	.st249{fill:#F3E288;}
	.st250{fill:#F4E489;}
	.st251{fill:#F4E488;}
	.st252{fill:#8A682E;}
	.st253{fill:#9E7A38;}
	.st254{fill:#F7CC5F;}
	.st255{fill:#C0984C;}
	.st256{fill:#EED782;}
	.st257{fill:#ECD582;}
	.st258{fill:#EDD886;}
	.st259{fill:#D3B87E;}
</style>
<g id="_x23_f3f4c7ff">
	<path class="st0" d="M69,25C111-0.4,169.6,6.7,203.8,42.2c3.5,4.5,10.2,8,11,14c-19.6-24.2-48.2-41.7-79.6-44.5
		c-6.8-1.1-13.7-1-20.5,0c-25.8,2.3-50,14.7-68.6,32.5C50.3,35.9,61.1,30.3,69,25z"/>
</g>
<g id="_x23_cdb87fff">
	<path class="st1" d="M114.8,11.8c6.8-1.1,13.7-1.1,20.5,0C128.4,11.9,121.6,12.1,114.8,11.8z"/>
</g>
<g id="_x23_ba914bff">
	<path class="st2" d="M46.2,44.2c18.6-17.8,42.8-30.1,68.6-32.5c6.8,0.4,13.7,0.2,20.5,0c31.3,2.8,60,20.3,79.6,44.5
		c0.3,0.4,0.9,1.3,1.2,1.7c23.5,35.7,26,84.7,2.6,121c-1.4-0.5-2.7,0.3-3.9,0.8c22.5-35.9,22.8-84.6-2-119.4
		C202.9,46.6,190,34.5,174.9,27c-1.5-1.1-3.1-2.1-4.7-3.1c-23.1-9.5-50.3-13.4-74.4-5c-6.6,2.7-13.4,4.8-19.7,8
		C32.4,47.3,9,101.2,21.7,147.3c2.4,11.7,8.6,21.9,13.5,32.7c-5.6-4.6-6.8-12.4-11-18.1c-0.1,0.6-0.3,1.7-0.5,2.3
		c-11.1-25.5-11.6-55.1-2.4-81.2c1-1.3,1.8-2.8,1.8-4.5c2.1-4.1,4.4-8.1,6-12.4C32.8,57.5,40,51,46.2,44.2z"/>
</g>
<g id="_x23_d3ab57ff">
	<path class="st3" d="M95.8,18.9c24.1-8.4,51.3-4.4,74.4,5C146,17,120.6,13.4,95.8,18.9z"/>
</g>
<g id="_x23_ebcb6bff">
	<path class="st4" d="M95.8,18.9c24.9-5.4,50.2-1.9,74.4,5c1.6,1,3.2,2,4.7,3.1c20,13.5,38.4,31.1,47.1,54.1
		c17.8,41.2,5.4,93.9-30.6,121.3c-33.9,28.5-86.6,31.7-123.3,6.6C26.8,184.3,9,128.2,26.9,84c8.5-24.6,27.8-43.2,49.1-57
		C82.4,23.7,89.2,21.6,95.8,18.9 M110.7,19.2c-13,1.4-26.8,4.9-37.5,12.9C58.8,39.6,47,52.5,38,66c-24.1,36.8-20.5,89.5,8.8,122.3
		c30.6,36,87.3,46.9,128.3,22.7c38.4-20.1,59.5-66,51.3-108.3c-3.8-23.5-17.3-44.5-34.2-60.8c-10.8-6.7-19.9-17.6-33.4-18.6
		C143.3,19,125.7,15.7,110.7,19.2z"/>
</g>
<g id="_x23_f3e68bff">
	<path class="st5" d="M110.7,19.2c15.1-3.5,32.7-0.1,48.1,4.1c13.5,1,22.6,11.9,33.4,18.6c16.9,16.4,30.4,37.3,34.2,60.8
		c8.1,42.3-12.9,88.2-51.3,108.3c-41,24.2-97.6,13.2-128.3-22.7C17.5,155.5,13.8,102.8,38,66c9-13.5,20.9-26.4,35.2-33.9
		c-1.7,1.7-3.4,3.6-4.3,6c-23.8,16.8-40.4,43.5-43.1,72.7c-1.1,6.8-1.1,13.7,0,20.5c0.1,0.8,0.3,2.3,0.4,3.1
		c3.3,27.8,19.7,54.4,43.3,69.6c35.3,24.7,86.6,22.1,119.3-6.1c36.6-29.2,47-85.4,23.2-125.8c-4.3-8.5-10.9-15.3-17.1-22.4l-0.2-0.6
		c-2-6.4-8.8-9.2-13.6-13.1c-7.6-5.1-15.4-12.8-25.5-10.2c-13.9-3.5-28.6-6.4-42.8-3.6C114.9,20.1,112.5,19.7,110.7,19.2z"/>
</g>
<g id="_x23_fff4a6ff">
	<path class="st6" d="M73.2,32.1c10.6-8,24.5-11.5,37.5-12.9c1.8,0.5,4.2,0.9,2.2,3c-10.8,1.3-21.3,4.4-31,9.2c-3.4,1.4-6.8,3-9.8,5
		c-1,0.6-2.1,1.1-3.1,1.7C69.8,35.7,71.4,33.8,73.2,32.1z"/>
</g>
<g id="_x23_b2813aff">
	<path class="st7" d="M112.8,22.1c14.3-2.8,28.9,0.1,42.8,3.6c1.2,0.6,2.3,1.1,3.5,1.6c-13.7-0.1-27.1-4.3-40.9-3.6
		C116.9,23.4,114.2,22.6,112.8,22.1z"/>
</g>
<g id="_x23_df8b45ff">
	<path class="st8" d="M81.8,31.3c9.8-4.8,20.2-7.9,31-9.2c1.3,0.4,4,1.2,5.4,1.6c-1.9,0.7-9.3-1.3-7.3,1.3c1.8,2.6,3.5,5.4,5.3,8
		c-4.5,2.1-9.8-9.8-11.7-2.4c-3.8,7.9-16.9,8.1-18.8,17.4l-0.3,0.8c-2.3,2.6-0.6,5.1,1.7,6.9c-1.7,1.2-3.4,2.3-5.2,3.4
		c-1.1-8.2,4.2-14.3,2-22.1c3.5-0.8,7-2.2,9.5-4.9c2.1-1.5,3.9-3.3,5.7-5.2c-3.2,0.3-8.4,1.4-5.7,5.2c-2.2,0.5-4.3,1.1-6.3,1.9
		C89.5,30.6,84.2,31.8,81.8,31.3z"/>
</g>
<g id="_x23_efcb65ff">
	<path class="st9" d="M110.9,25.1c-2-2.6,5.5-0.6,7.3-1.3c13.8-0.7,27.2,3.5,40.9,3.6c3.6,0.2,2.6,2,0.3,3.6
		c-5.1-5.1-15.7,0.3-22.5-0.9C127.6,32,119.6,26.8,110.9,25.1z"/>
</g>
<g id="_x23_fdf58eff">
	<path class="st10" d="M110.9,25.1c8.7,1.7,16.8,7,26.1,5c6.8,1.2,17.3-4.2,22.5,0.9c-3.5-0.9-8.8,3.6-13.6,4.1
		c-8.9,2-17.3-0.8-25.7-1.2c-1.3-0.3-2.6-0.6-3.9-0.8C114.4,30.4,112.7,27.7,110.9,25.1z"/>
</g>
<g id="_x23_faf1b5ff">
	<path class="st11" d="M155.6,25.7c10-2.6,17.9,5,25.5,10.2c4.8,3.9,11.6,6.8,13.6,13.1c-5.6-4.9-11.6-9.3-17.8-13.4
		c-1.6-1-3.2-1.9-5-2.6c0.7,2.3,1.7,4.6,2.8,6.8c0.9,1.8,1.7,3.7,2.6,5.5c-6.2-1.6-5.1-17.6-14.8-14.9c-2.4,1.9-5.5,3.1-6.9,6
		c-2.4,0.3-4.9,0.4-7.4,0.6c-0.8-0.7-1.7-1.3-2.5-2c4.9-0.5,10.2-5,13.6-4.1c2.2-1.6,3.2-3.4-0.3-3.6
		C158,26.8,156.8,26.3,155.6,25.7z"/>
</g>
<g id="_x23_d3ad58ff">
	<path class="st12" d="M21.7,147.3C9,101.2,32.4,47.3,76,26.9C54.7,40.8,35.4,59.4,26.9,84C9,128.2,26.8,184.3,68,209
		c36.8,25.1,89.4,21.8,123.3-6.6c36.1-27.3,48.4-80.1,30.6-121.3c-8.7-23-27.1-40.6-47.1-54.1c15.2,7.5,28,19.6,37.8,33.3
		c24.8,34.8,24.5,83.5,2,119.4c-5.4,8.4-12.1,15.8-19.5,22.4c-19.3,14-41.7,25.3-66.1,24.9c-27.1,2.5-52.9-9.3-74.2-25
		c-7.5-6.5-13.9-14-19.7-22C30.3,169.3,24.1,159,21.7,147.3z"/>
</g>
<g id="_x23_99683cff">
	<path class="st13" d="M93.5,32.2c-2.8-3.8,2.5-4.9,5.7-5.2C97.4,28.9,95.6,30.6,93.5,32.2z"/>
</g>
<g id="_x23_b0602bff">
	<path class="st14" d="M104.5,30.6c1.9-7.4,7.2,4.5,11.7,2.4c1.3,0.2,2.6,0.5,3.9,0.8c-0.1,0.5-0.1,1.6-0.2,2.1
		c-0.3,0.6-0.9,1.7-1.2,2.2c-1.2,2.1-3.7,1.8-5.8,2c2.6-4.5-2.3-7.2-5.7-8.9c-6.3,6.7-14,11.7-21.5,16.8
		C87.6,38.8,100.8,38.5,104.5,30.6z"/>
</g>
<g id="_x23_f1a552ff">
	<path class="st15" d="M162.5,30.4c9.6-2.8,8.6,13.3,14.8,14.9c1.5,1.1,3,2.2,4.7,3c-1.4-2.1-3-4-4.2-6.2c7.6,0.8,10,10,7,15.8
		c-8.3,1.3-3.5,11.3-3.5,17.3c6.3,4.4,5.3-2.5,8.6-6.1c4.9-5.5,7.1-15.4,0.1-20.2c-0.3-0.3-0.9-0.9-1.2-1.2c-2.6-5-11.1-7.1-12.1-12
		c6.2,4.1,12.2,8.5,17.8,13.4l0.2,0.6c-1.5,2.3,1.4,4.3,2.4,6.3c0.9,4.4-3.6,9-1.3,13.1c-2.6,2.3-3.6,5.5-3.1,9
		c-3.4-2.5-3.8,1.7-3.5,4.2c-0.9-1.2-3.7-6.6-3-2.4c-1.1,1.1-2.3,2.2-3.5,3.2c-1.1-0.6-2.1-1.2-3.2-1.8c5.7-4.1,1.1-3.3-4.1-1.3
		l-0.9,0.2c-0.3-0.9-0.7-1.9-1-2.8c7.2,3.8,8.8-3.9,2.3-4.8c0.3-0.4,1-1.3,1.3-1.7c5.2,2.3-1.9-6-3.6-7.1c0.3-0.2,0.8-0.6,1-0.8
		c3.5,4.7,6.7,1.5,2.6-2.3c0.5-0.9,2.3-1.4,1.7-2.6c-2.4-7.1-5.2-14.1-9.6-20.2c-2.2-7.4-8.9-3.5-13.6-1.5
		C157.1,33.5,160.1,32.3,162.5,30.4z"/>
</g>
<g id="_x23_f3af5cff">
	<path class="st16" d="M72,36.3c3.1-2,6.4-3.6,9.8-5c2.4,0.5,7.7-0.7,5.3,2.8c-1.1,0.9-2.3,1.8-3.2,3c2.2,7.8-3.1,13.9-2,22.1
		c0,1.8,0,3.6,0.1,5.4c-1.4,0-3.1-0.5-3.6,1.4c-1.3,0.2-2.6,0.5-3.9,0.7c1.2-1.8,2.7-3.4,4.4-4.8c5,4.3,0.7-6.9,1.7-8.6
		c-2.5-5.1-3-10.9-1.8-16.4c1.1-1.3,2.2-2.6,3.2-4c-3.2,0.7-4.8,4-7,6.1c-4.5,2.3-1.7,11.9-1.3,16.3c1,1.4,2.4,2.2,2.8-0.1
		c1,1.9,1.8,3.9,2.6,5.9c-1.3,0.3-2.7,0.6-4,1c-5.6-5.1-5.7-13.9-5.2-21C70.8,39.5,73.3,38.2,72,36.3z"/>
</g>
<g id="_x23_4e210dff">
	<path class="st17" d="M107.2,31.2c3.4,1.7,8.3,4.4,5.7,8.9c-0.3,0.3-0.8,0.9-1.1,1.2c-0.3,0.4-1,1.1-1.3,1.5
		c-3.6,2.6-7.7,4.5-10.7,7.8C98,52.5,97,54.9,96,57.2c-2.2-0.2-4.4-0.2-6.4-1.3c1-3.4-2-5.1-4.1-7.1l0.3-0.8
		C93.3,42.9,101,37.9,107.2,31.2z"/>
</g>
<g id="_x23_a06136ff">
	<path class="st18" d="M87.2,34.1c2.1-0.8,4.2-1.5,6.3-1.9c-2.5,2.7-6,4.1-9.5,4.9C84.8,35.9,86,35,87.2,34.1z"/>
</g>
<g id="_x23_faf5c6ff">
	<path class="st19" d="M75,38.9c2.3-2.1,3.9-5.4,7-6.1c-1,1.4-2.1,2.7-3.2,4c-6.2,7.4,1,16.3,0.2,24.2c-0.8-2-1.5-4-2.6-5.9
		c-0.4,2.3-1.8,1.5-2.8,0.1C74.4,49.8,75.1,44.4,75,38.9z"/>
</g>
<g id="_x23_c9b588ff">
	<path class="st20" d="M120.2,33.8c8.3,0.4,16.8,3.2,25.7,1.2c0.8,0.6,1.7,1.3,2.5,2c-0.3,0.1-1,0.4-1.4,0.5
		c-3.2-0.3-7.1-1.6-8.3,2.2c-2.1-2.5-5-5.1-8.3-2.6c0.9,5.7,1.6,11.5,2,17.3c2.9-4,3.4-9.2,5.3-13.7c-0.1,4.6-0.5,9.1-1.1,13.7
		c-1.1-8.8-2.4,6.8-6.3,1.5c0.1-2,0.5-4,0.2-6c0.5-5.6-2.1-20.5-10.6-13.9C120,35.4,120.1,34.4,120.2,33.8z"/>
</g>
<g id="_x23_9c5329ff">
	<path class="st21" d="M155.7,36.4c4.7-2,11.4-5.9,13.6,1.5c-2.1-1.2-3.8-3.5-6.2-3.9c-3,1.8-4.2,6.9-8,7c-2.2-1.5-4.4-3.3-7.2-3.3
		l-1-0.2c0.4-0.1,1.1-0.4,1.4-0.5C150.8,36.8,153.2,36.7,155.7,36.4z"/>
</g>
<g id="_x23_fdd56dff">
	<path class="st22" d="M171.9,33c1.7,0.7,3.4,1.6,5,2.6c0.9,4.9,9.4,7,12.1,12c-0.7,0.8-1.9,1.5-1.1,2.7c2.4,8.6,1.6,19.5-6.4,24.8
		c0-6-4.8-16,3.5-17.3c3-5.8,0.6-15-7-15.8c-0.9-0.9-1.5-3.3-3.2-2.2C173.6,37.6,172.6,35.3,171.9,33z"/>
</g>
<g id="_x23_fcf9d0ff">
	<path class="st23" d="M120,35.9c8.5-6.6,11,8.2,10.6,13.9c-0.8,2.5-1.2,6.7-4.6,4.4c-0.3-0.6-0.8-1.8-1.1-2.3
		c0.3-3.1-0.7-6-2.1-8.8c-1.2-1.8-3.2-2.9-4.1-4.9C119.1,37.6,119.7,36.5,120,35.9z"/>
</g>
<g id="_x23_45200fff">
	<path class="st24" d="M155.1,41c3.8-0.1,5-5.2,8-7c2.4,0.4,4.1,2.7,6.2,3.9c4.3,6.1,7.2,13.1,9.6,20.2c0.6,1.2-1.2,1.8-1.7,2.6
		c-0.9,0.8-1.7,1.5-2.6,2.3c-0.2,0.2-0.8,0.6-1,0.8l-0.7,0.3c-1.8-3.8-4.8-6.7-7.8-9.6c-2.8-3.3-5.6-6.6-8.5-9.8l-0.6-0.7
		c-1.4-2.4-3.9-1.8-6.1-0.9c-0.6-1.5-1.1-3-1.6-4.5l-0.4-1C150.8,37.7,152.9,39.4,155.1,41z"/>
</g>
<g id="_x23_fcf7cdff">
	<path class="st25" d="M130.3,37.1c3.2-2.5,6.2,0.1,8.3,2.6c1.2-3.8,5.1-2.5,8.3-2.2l1,0.2l0.4,1c-0.1,6.9-8.9,9.6-9.3,16.8
		c-0.8-0.1-1.6-0.2-2.4-0.3l0.1-0.9c0.5-4.5,1-9.1,1.1-13.7c-2,4.5-2.5,9.7-5.3,13.7C131.9,48.6,131.2,42.8,130.3,37.1z"/>
</g>
<g id="_x23_91642cff">
	<path class="st26" d="M68.9,38c1-0.6,2.1-1.1,3.1-1.7c1.3,1.9-1.2,3.2-2.1,4.6c-0.9,0.7-1.9,1.4-2.8,2.1c-15.1,9.1-21.9,25.8-31,40
		c-2,3.1-3.2,6.5-4.1,10.1c-1.5,5.5-3.3,11-4.2,16.7c-1.9,8.1,0.7,16.6-1.5,24.6c-0.1-0.8-0.3-2.3-0.4-3.1c0.1-6.8,0.3-13.7,0-20.5
		C28.5,81.6,45.1,54.9,68.9,38z"/>
</g>
<g id="_x23_feed82ff">
	<path class="st27" d="M79.1,61c0.8-7.9-6.4-16.8-0.2-24.2c-1.2,5.5-0.8,11.3,1.8,16.4c-1,1.7,3.3,12.8-1.7,8.6L79.1,61z"/>
</g>
<g id="_x23_d0a883ff">
	<path class="st28" d="M113,40.1c2.1-0.2,4.6,0.2,5.8-2c0.9,2,3,3.1,4.1,4.9c-2.2,3.2-7-2.9-11-1.7C112.1,41.1,112.7,40.4,113,40.1z
		"/>
</g>
<g id="_x23_fbe47aff">
	<path class="st29" d="M73.7,55.2c-0.4-4.5-3.2-14,1.3-16.3C75.1,44.4,74.4,49.8,73.7,55.2z"/>
</g>
<g id="_x23_c17d46ff">
	<path class="st30" d="M148.3,38.7c0.5,1.5,1,3,1.6,4.5c-6.5,5.1,2.5,0,6.1,0.9l0.6,0.7c-2.3,4.1-8.7,3.7-10.5,8.4
		c-1.7,2.3-4.4,3.2-7.1,2.3C139.3,48.3,148.2,45.6,148.3,38.7z"/>
</g>
<g id="_x23_b27444ff">
	<path class="st31" d="M174.6,39.8c1.7-1.1,2.2,1.3,3.2,2.2c1.2,2.2,2.8,4.2,4.2,6.2c-1.7-0.8-3.2-1.9-4.7-3
		C176.4,43.5,175.5,41.6,174.6,39.8z"/>
</g>
<g id="_x23_c49a4cff">
	<path class="st32" d="M67.1,43.1c0.9-0.7,1.9-1.4,2.8-2.1c-0.6,7.1-0.4,15.9,5.2,21c-1.6,2.1-3.1,4.2-4.8,6.1
		c-0.3-0.3-0.9-1-1.2-1.3c1.6-1.8,3.7-6.2,0.3-7.1c0.1-3,0.4-6.3-3.3-6C65.1,50.1,65.1,46.4,67.1,43.1z"/>
</g>
<g id="_x23_c0743cff">
	<path class="st33" d="M110.6,42.9c0.3-0.4,1-1.1,1.3-1.5c3.9-1.2,8.8,4.9,11,1.7c1.4,2.7,2.3,5.7,2.1,8.8c-1,1.1-2.1,2.3-3.1,3.4
		c-2.3-1.2-4.1-3.2-5.8-5.1C114.2,47.6,110.8,46.2,110.6,42.9z"/>
</g>
<g id="_x23_d9b197ff">
	<path class="st34" d="M149.9,43.2c2.1-1,4.7-1.5,6.1,0.9C152.4,43.2,143.4,48.3,149.9,43.2z"/>
</g>
<g id="_x23_9d7f3cff">
	<path class="st35" d="M36.1,83c9.1-14.2,15.9-30.8,31-40c-2,3.3-2,7.1-1,10.7c-0.5,3.7-2.1,7.7,0.1,11.1c2.8,0.8,2.3-3.5,3.2-5.1
		c3.3,0.9,1.3,5.3-0.3,7.1c-6.8,7.9-11.1,17.5-15.1,27c-1.5,1.8-2.3,4-3.3,6.1c-3,0-5.2-3.1-5.3-5.8c1.4,1.1,2.9,2.2,4.6,3
		c1.5-6.5,0.4-13.7-3.6-19.2c-0.6,1.3-1.2,2.6-1.5,3.9c-0.2,2.5-0.7,7.6-0.9,10.2c-4-1.6-9-2.9-11.9,1.1
		C32.8,89.6,34.1,86.1,36.1,83 M59.2,58.1c-0.8,4.3-1.6,9,1.1,12.8C66.4,70.8,61.4,58.4,59.2,58.1 M53.2,66.3
		c-3,4.1-3.7,14.5,2.7,14.7C56.5,76,54.8,69.3,53.2,66.3z"/>
</g>
<g id="_x23_8e471eff">
	<path class="st36" d="M99.8,50.6c3-3.3,7.2-5.2,10.7-7.8c0.3,3.4,3.6,4.7,5.5,7.2l-0.8-0.2c-1.7-0.5-3.4-1-5.1-0.9
		c-2.4-0.2-4.1,1.5-5.8,2.9C102.8,51.4,101.3,51,99.8,50.6z"/>
</g>
<g id="_x23_a35424ff">
	<path class="st37" d="M156.6,44.8c2.9,3.2,5.7,6.6,8.5,9.8c-4.3,1.6-2.3,7.1-3.7,10.6c1.7-6.6-2.1-12.8-8.6-14
		c13.6,0.9,0.5-4.3-2.8,0.6c-0.4,0.4-1.3,1-1.8,1.4c-0.5,0-1.5,0-2.1,0C147.9,48.4,154.3,48.9,156.6,44.8z"/>
</g>
<g id="_x23_fef9bdff">
	<path class="st38" d="M187.8,50.3c-0.7-1.2,0.5-1.9,1.1-2.7c0.3,0.3,0.9,0.9,1.2,1.2c1.2,6.7,1,13.5-0.1,20.2
		c-3.3,3.6-2.3,10.5-8.6,6.1C189.4,69.8,190.1,58.9,187.8,50.3z"/>
</g>
<g id="_x23_90431cff">
	<path class="st39" d="M87.2,55.8c-2.3-1.8-4-4.3-1.7-6.9c2.1,2,5.1,3.7,4.1,7.1c1.9,1.1,4.2,1.1,6.4,1.3c0,0.5,0,1.4,0,1.9
		c-1.8,3.9-2.3,16.2-8,9.8c0-0.8,0-2.3,0-3.1c0.1-0.4,0.3-1.3,0.4-1.7c0.4-1.3,0.7-2.7,0.7-4.1C89.2,58.3,88.6,56.8,87.2,55.8z"/>
</g>
<g id="_x23_633d26ff">
	<path class="st40" d="M104.3,51.8c1.7-1.4,3.5-3,5.8-2.9c-2.8,1.9-5.4,4.6-5.2,8.2c-0.4,3.5,0,7.1,2.1,10c1,1.2,2.2,2.2,3.3,3.2
		c-2,1.1-4,2-6.1,2.8L104,72c-0.7-4.6-2.9-9-2.9-13.8C102.1,56,103.1,53.9,104.3,51.8z"/>
</g>
<g id="_x23_86888bff">
	<path class="st41" d="M110.1,48.9c1.7-0.1,3.4,0.4,5.1,0.9c-0.2,1,1.1,2.7-0.1,3.2c-2.1,0.1-4.1,0.6-6.1,1.2c-2-0.3-3,1.5-4,2.8
		C104.7,53.5,107.3,50.8,110.1,48.9z"/>
</g>
<g id="_x23_fee071ff">
	<path class="st42" d="M190.1,48.9c7,4.8,4.8,14.6-0.1,20.2C191.1,62.4,191.3,55.5,190.1,48.9z"/>
</g>
<g id="_x23_745847ff">
	<path class="st43" d="M115.2,49.8l0.8,0.2c1.8,1.9,3.5,3.9,5.8,5.1c-2.6,3-1.9,7.4-2.7,11c-1,0.4-2,0.9-3,1.3
		c-1.9,0.9-3.8,1.8-5.8,2.7c-1.2-1-2.3-2-3.3-3.2c0.4,0.1,1.1,0.2,1.5,0.3c3.2,0.5,7-0.3,9.4-2.5c0.2-1.8,1-5-1.5-2.8
		c-0.4-0.9-0.9-1.7-1.3-2.6c4.1-2.6,0.2-5.5-3.3-4.5c1.1-0.7,2.2-1.3,3.3-1.9C116.3,52.5,115,50.8,115.2,49.8z"/>
</g>
<g id="_x23_c69358ff">
	<path class="st44" d="M130.6,49.8c0.2,2-0.1,4-0.2,6c3.9,5.3,5.2-10.3,6.3-1.5l-0.1,0.9c-0.9,2.8-1.5,5.8-1.7,8.8
		c-2.6,0-5.2,0.1-7.9,0.1c2.2-3.5,1.8-7-1-9.9C129.4,56.5,129.8,52.2,130.6,49.8z"/>
</g>
<g id="_x23_603e2aff">
	<path class="st45" d="M149.9,51.8c3.2-4.8,16.3,0.4,2.8-0.6c6.5,1.2,10.4,7.4,8.6,14c-0.9,2.7-2.3,5.1-3.6,7.7
		c-1.8,2.1,0.5,4,2.1,5.2l0,0.9c-5.2-2.8-9.8-6.6-15-9.3l-0.1-0.7c3,0.3,6.3,2.3,9.2,1.5c3-2.1,4.7-5.7,4.2-9.4
		C158.9,56,154.7,52.3,149.9,51.8z"/>
</g>
<g id="_x23_9d6f30ff">
	<path class="st46" d="M197.3,55.9c-0.9-2-3.9-3.9-2.4-6.3c6.2,7,12.8,13.9,17.1,22.4c23.8,40.4,13.4,96.6-23.2,125.8
		c-32.6,28.2-83.9,30.8-119.3,6.1c1.5-0.5,3-0.3,4.5,0c33.3,21.9,83.4,19.1,111.9-10c5.6-4.6,15.1-8.6,16.2-16.2
		c0.6-0.6,1.2-1.2,1.8-1.8c16.1-20.3,23.4-49.6,16-74.8C217,84.1,206.3,70.1,197.3,55.9z"/>
</g>
<g id="_x23_cd6d2eff">
	<path class="st47" d="M96,57.2c1.1-2.3,2-4.7,3.9-6.6c1.5,0.3,3,0.7,4.4,1.1c-1.2,2.1-2.2,4.2-3.2,6.4c0.9-5.9-3.5-1.5-5.1,0.9
		C96,58.6,96,57.7,96,57.2z"/>
</g>
<g id="_x23_56311aff">
	<path class="st48" d="M121.8,55.2c1-1.1,2-2.3,3.1-3.4c0.3,0.6,0.8,1.8,1.1,2.3c2.8,2.9,3.2,6.4,1,9.9c-2.6,0.9-5.2,1.6-7.8,2.2
		C119.9,62.6,119.3,58.2,121.8,55.2z"/>
</g>
<g id="_x23_8b8788ff">
	<path class="st49" d="M149.9,51.8c4.8,0.5,8.9,4.2,8.1,9.4c-1.1-1.5-1.7-5.1-4.1-4.5l-0.9,0.2c-1.4,0.1-2.9,0.2-4.3,0.3
		c1.1-0.8,2.2-1.5,3.3-2.3c-5-1.2-6.6,4.1-8.3,7.7l-0.8,0.5c-0.7-4.2,2.5-7.2,5.2-9.9C148.6,52.8,149.5,52.2,149.9,51.8z"/>
</g>
<g id="_x23_3d2517ff">
	<path class="st50" d="M109,54.3c2-0.6,4-1.1,6.1-1.2c-1.1,0.7-2.2,1.2-3.3,1.9c0.3,2,2,3.1,3.3,4.5c0.5,0.9,0.9,1.7,1.3,2.6
		c-0.7,4.3-5.1,3.2-7.5,1c-0.4-2.1-0.8-4.2-1.1-6.2C108,56.2,108.6,54.9,109,54.3z"/>
</g>
<g id="_x23_56341fff">
	<path class="st51" d="M146.1,53.2c0.5,0,1.6,0,2.1,0c-2.7,2.7-5.9,5.7-5.2,9.9c-0.3,2.2,0.7,4.2,1.8,6c-2.2-1.2-4.3-2.5-6.6-3.5
		c-1.1-0.5-2.2-1.1-3.3-1.6c0.2-3,0.8-5.9,1.7-8.8c0.8,0.1,1.6,0.2,2.4,0.3C141.7,56.4,144.4,55.4,146.1,53.2z"/>
</g>
<g id="_x23_e9cf72ff">
	<path class="st52" d="M66.1,53.8c3.7-0.4,3.4,2.9,3.3,6c-0.9,1.7-0.3,5.9-3.2,5.1C64,61.5,65.5,57.5,66.1,53.8z"/>
</g>
<g id="_x23_e6e0d9ff">
	<path class="st53" d="M104.9,57.1c1.1-1.3,2.1-3.1,4-2.8c-0.3,0.6-1,1.9-1.3,2.5c-0.2,2.3-2.2,6.3,1.1,6.2
		c-0.2,1.4-0.3,2.8-0.3,4.3c-0.4-0.1-1.1-0.2-1.5-0.3C104.9,64.2,104.5,60.6,104.9,57.1z"/>
</g>
<g id="_x23_f99d4fff">
	<path class="st54" d="M96,59.1c1.6-2.4,6-6.8,5.1-0.9c0,4.8,2.2,9.1,2.9,13.8c-8.7,4.6-8.5,14.3-11.8,22.2
		c-10.1,3-8.2-8.8-8.4-14.4c1.5-3.6,3-7.2,4.1-10.9C93.6,75.3,94.2,63,96,59.1z"/>
</g>
<g id="_x23_e1d7c7ff">
	<path class="st55" d="M111.8,54.9c3.4-1,7.4,1.9,3.3,4.5C113.7,58.1,112,56.9,111.8,54.9z"/>
</g>
<g id="_x23_402818ff">
	<path class="st56" d="M143.8,62.5c1.8-3.6,3.3-8.9,8.3-7.7c-1.1,0.8-2.2,1.5-3.3,2.3c-0.1,1.8,0.7,3.2,2.1,4.2
		c0.9,0.8,1.7,1.7,2.5,2.5c-1.4,1.5-2.8,3.1-4.5,4.4C147,66.6,145.5,64.4,143.8,62.5z"/>
</g>
<g id="_x23_de7733ff">
	<path class="st57" d="M161.3,65.2c1.4-3.5-0.6-9,3.7-10.6c0.5,2.3,0.9,4.7,1,7.1c-4.7,2-1.9,10.7-8.3,11.2
		C159,70.4,160.4,67.9,161.3,65.2z"/>
</g>
<g id="_x23_7f3d1bff">
	<path class="st58" d="M165.1,54.6c3,2.9,6,5.8,7.8,9.6c-0.9,2.2-1.5,4.6-2,6.9c-0.6,0.7-1.2,1.5-1.8,2.2c-2.3-3.4-2-7.7-3-11.6
		C165.9,59.3,165.6,56.9,165.1,54.6z"/>
</g>
<g id="_x23_fbf0aaff">
	<path class="st59" d="M82,59.2c1.8-1.1,3.5-2.2,5.2-3.4c1.4,1,2,2.6,1.9,4.3c-4.9-2.4-2.1,1.5-0.7,4.1c-2.1,0.1-4.2,0.4-6.3,0.4
		C82,62.7,82,60.9,82,59.2z"/>
</g>
<g id="_x23_e6e0ddff">
	<path class="st60" d="M154,56.6c2.3-0.6,2.9,3.1,4.1,4.5c0.6,3.7-1.1,7.3-4.2,9.4c-1.1-2.2,0.7-4.4,1.2-6.5
		C154.8,61.5,154.4,59.1,154,56.6z"/>
</g>
<g id="_x23_b59545ff">
	<path class="st61" d="M197.3,55.9c9.1,14.2,19.8,28.2,22.7,45.2c-1.9-2.3-3.3-6.1-6.8-6.1c-2,2.2-2.2,5.2-2.3,8
		c-0.4,0-1.2,0.1-1.7,0.1c1.5-7-6-1.5-7.4,1.7c-6.7,7.9-0.3,21.8-4.8,31.9c-1,2.6-1.9,5.4-2.1,8.2c-0.5-0.2-1.5-0.5-2-0.7
		c1-9.8,5.2-19.5,3.4-29.3c-0.4-1-1.1-1.6-2.1-1.9c0.4-4.3-3.2-6.7-5.5-9.6c4.7,0.9,8.7-2.7,0.3-3.2c7.6-0.5-1.4-7.8-5.2-8.7
		c5.5,2.6,8.7-2.8,3.4-2.8c-0.2-2.7-1.8-4.6-4.3-5.5c1.2-1,2.4-2.1,3.5-3.2c6.1,9.6,8.4,20.8,11.5,31.6c0.9-10.6-2.4-20.8-8.5-29.2
		c-0.3-2.6,0.1-6.8,3.5-4.2c0.2,1.6,0.8,3.2,2,4.3c-3.9,5.4,5.5-0.6,4.2-4.3c0.7-3.9-1-0.2-1.8,1.2c-0.3-3.4,0.8-7.2-1.2-10.2
		C193.7,64.8,198.2,60.2,197.3,55.9 M200,98c-2.8,6.6,11.1-7.3,5.1-8.9c-0.3-2.7-1-5.4-1.3-8.2C197.2,83.3,197,92.7,200,98z"/>
</g>
<g id="_x23_ba7a59ff">
	<path class="st62" d="M108.8,63.1c-3.3,0.1-1.3-4-1.1-6.2C108,58.9,108.4,61,108.8,63.1z"/>
</g>
<g id="_x23_e5dcccff">
	<path class="st63" d="M148.8,57.1c1.4-0.1,2.9-0.2,4.3-0.3c-0.3,1.7,0.4,4.5-2.1,4.5C149.5,60.3,148.7,58.9,148.8,57.1z"/>
</g>
<g id="_x23_845039ff">
	<path class="st64" d="M153.1,56.8l0.9-0.2c0.5,2.4,0.8,4.9,1.1,7.4c-0.4,0-1.2-0.1-1.6-0.1c-0.8-0.9-1.7-1.7-2.5-2.5
		C153.5,61.3,152.8,58.5,153.1,56.8z"/>
</g>
<g id="_x23_e2ca71ff">
	<path class="st65" d="M59.2,58.1c2.2,0.4,7.3,12.7,1.1,12.8C57.6,67.1,58.4,62.4,59.2,58.1z"/>
</g>
<g id="_x23_f0db87ff">
	<path class="st66" d="M216.1,57.9c30.8,39,26.3,99.9-6.7,136.4c-3.2,2.4-4.9,8.5-9.5,8.5c6.8-7.5,13.6-15.1,18.8-23.9
		C242.1,142.6,239.6,93.6,216.1,57.9z"/>
</g>
<g id="_x23_e49d4eff">
	<path class="st67" d="M88.4,64.1c-1.4-2.6-4.2-6.4,0.7-4.1C89,61.4,88.8,62.8,88.4,64.1z"/>
</g>
<g id="_x23_98652bff">
	<path class="st68" d="M75.1,62c1.3-0.4,2.7-0.7,4-1l-0.1,0.8c-1.7,1.4-3.2,3-4.4,4.8c-5.2,6.4,6.1,6.6,8.8,2.2
		c0.2,0.3,0.7,1,0.9,1.4l-0.1,0.8c-6.5,1.9-7.9,12.7-16.1,9.2c0.2-0.3,0.7-0.8,1-1c2.5-0.4,7.5-1.2,6.7-4.7c-3.1-2.5-6.4-2-9.1,0.9
		c-0.2-0.3-0.7-1-0.9-1.4c1.4-2,2.9-3.9,4.4-5.8C71.9,66.2,73.5,64.1,75.1,62z"/>
</g>
<g id="_x23_df9845ff">
	<path class="st69" d="M116.3,62c2.5-2.2,1.8,1,1.5,2.8c-2.4,2.2-6.2,3.1-9.4,2.5c0-1.4,0.1-2.9,0.3-4.3
		C111.2,65.2,115.6,66.3,116.3,62z"/>
</g>
<g id="_x23_eee7aeff">
	<path class="st70" d="M174.6,63c0.8-0.8,1.7-1.5,2.6-2.3C181.2,64.5,178,67.7,174.6,63z"/>
</g>
<g id="_x23_fb9f4eff">
	<path class="st71" d="M157.7,72.9c6.4-0.5,3.6-9.2,8.3-11.2c1,3.9,0.7,8.2,3,11.6c5.2,7.5,8.8,16.5,6.2,25.8l-0.9,0.2
		c-5-6.2-4.2-20.3-14.5-21.2C158.2,76.9,155.9,75,157.7,72.9z"/>
</g>
<g id="_x23_db9b50ff">
	<path class="st72" d="M143,63.1l0.8-0.5c1.7,1.9,3.2,4.1,5.2,5.7c1.7-1.2,3.1-2.8,4.5-4.4c0.4,0,1.2,0.1,1.6,0.1
		c-0.4,2.2-2.2,4.3-1.2,6.5c-2.9,0.8-6.2-1.2-9.2-1.5C143.6,67.2,142.6,65.3,143,63.1z"/>
</g>
<g id="_x23_d67433ff">
	<path class="st73" d="M78.5,65.9c0.4-1.8,2.2-1.4,3.6-1.4c2.1,0,4.2-0.3,6.3-0.4c-0.1,0.4-0.3,1.3-0.4,1.7c-2.4,0.5-4,1.8-3.6,4.3
		c-0.2-0.3-0.7-1-0.9-1.4C82.5,66.9,80.1,66.8,78.5,65.9z"/>
</g>
<g id="_x23_faf6a7ff">
	<path class="st74" d="M119.1,66.2c2.6-0.6,5.3-1.3,7.8-2.2c2.6-0.1,5.2-0.1,7.9-0.1c1.1,0.5,2.2,1.1,3.3,1.6
		c-9.6-1.1-20.1,1.2-26.2,9.6c-2.6,0.9-4.2,3.1-5.8,5.1c-1,1.2-1.9,2.4-2.8,3.6c-3.9-0.9-6.1,12.6-3.2,11.5c6.8,2.4,1.8-11.1,9-12.3
		c-4.6,6.2-1.1,12.4,4.3,16.1c-0.8,2-1.6,3.9-2.3,5.9c-4.6,4.7-9.9,2.2-10.7-4c-0.6,2.6-2,4.8-4.7,5.5l-0.6-0.6
		c-0.8-1.3-1.5-2.5-2.3-3.8c-0.1-7.6,4.4-13.9,6.1-21c6.8-2.5,11.2-8.9,17.6-12.4c-0.1-0.3-0.3-0.9-0.4-1.2
		C117.1,67.1,118.1,66.7,119.1,66.2z"/>
</g>
<g id="_x23_f7eda6ff">
	<path class="st75" d="M172.9,64.2l0.7-0.3c1.8,1.1,8.8,9.4,3.6,7.1c0-4-3.3,3.8-6.3,0.2C171.3,68.7,172,66.4,172.9,64.2z"/>
</g>
<g id="_x23_aea589ff">
	<path class="st76" d="M112,75.1c6.1-8.3,16.5-10.7,26.2-9.6c2.2,1,4.4,2.3,6.6,3.5l0.1,0.7c1.4,4.7,6.4,7.2,9.2,11.2l-0.2,1.1
		c-7.2-5.5-12.3-16.2-22.9-15C123.5,65.8,118.2,72.2,112,75.1z"/>
</g>
<g id="_x23_eed584ff">
	<path class="st77" d="M23.2,78.4c0.3-4.4,2.3-9.8,6-12.4C27.6,70.3,25.3,74.3,23.2,78.4z"/>
</g>
<g id="_x23_ecd77cff">
	<path class="st78" d="M53.2,66.3c1.6,3,3.3,9.7,2.7,14.7C49.5,80.8,50.3,70.4,53.2,66.3z"/>
</g>
<g id="_x23_f6db7dff">
	<path class="st79" d="M74.6,66.6c1.3-0.2,2.6-0.5,3.9-0.7c1.7,0.9,4,1,4.9,2.9C80.7,73.2,69.3,73,74.6,66.6z"/>
</g>
<g id="_x23_f8de70ff">
	<path class="st80" d="M84.3,70.1c-0.4-2.6,1.3-3.8,3.6-4.3c0,0.8,0,2.3,0,3.1c-1.1,3.7-2.6,7.3-4.1,10.9c-0.3,0.3-0.8,0.8-1.1,1.1
		c-1.9,0.5-3.7,1-5.6,1.4c-0.5-0.1-1.7-0.3-2.2-0.4c3.7-3.1,9.8-5.3,9.3-11L84.3,70.1z"/>
</g>
<g id="_x23_e0c667ff">
	<path class="st81" d="M53.9,93.8c4.1-9.5,8.3-19,15.1-27c0.3,0.3,0.9,1,1.2,1.3c-1.5,1.9-3,3.8-4.4,5.8
		c-5.3,7.5-8.7,16.1-11.1,24.9c0,2.3-4.7,13.2,1.2,9.1c-0.7,2.6-1.9,6.1,2.3,5.3c-8.7,2.2,1.3,2.1,5.1,0c-0.8,1-1.6,1.8-2.4,2.8
		c-0.2,0.2-0.7,0.7-0.9,1c-2.9,4-9.1,3.6-11.3,8.1c-2.2-3.2-4.4-6.1-8.8-6c-1.9,4.5,6.9,7.8,2.2,10.8c-0.3-0.3-1-0.8-1.3-1.1
		c-1.7-2.5-3.1-7.9-7.1-6.4c-6.1,1.2-4,9.1-4.9,13.7c-1.1-7.3-0.7-14.7-0.6-22c0.7-3.9,0.7-13.2,7.9-10.2c3.6-0.2,3.6,5.1,5.9,7.1
		c1.1,2.2,6.9,6.3,7,2.1C49.3,106.5,53.2,100.6,53.9,93.8z"/>
</g>
<g id="_x23_fcfcf6ff">
	<path class="st82" d="M112,75.1c6.2-2.9,11.5-9.3,19-8.1c10.6-1.1,15.7,9.5,22.9,15c1.1,2.4,2.5,4.8,3.9,7.1
		c0.1,1.7,0.2,3.5,0.2,5.2c-4.2-1.3-3.7-6.5-5.6-9.6c-2.1-5.1-7.5-7-12.2-8.7c-1-0.7-1.9-1.5-2.9-2.2c-2.4-1.6-5.4-2-8.2-1.8
		c-1.8,0.2-3.6,1-5.1,1.9c-1,0.6-1.9,1.2-2.8,1.9c-1.6,0.9-3.3,1.7-5,2.5c-2.7,0.9-4.7,3-6.8,4.7c-7.2,1.2-2.2,14.7-9,12.3
		c-0.4-4.1,1.1-8.1,3.2-11.5c0.9-1.2,1.8-2.4,2.8-3.6C108.3,78.8,110.2,76.9,112,75.1z"/>
</g>
<g id="_x23_f8f7efff">
	<path class="st83" d="M110.3,70.3c1.9-0.9,3.8-1.9,5.8-2.7c0.1,0.3,0.3,0.9,0.4,1.2c-6.3,3.5-10.8,9.8-17.6,12.4
		c0.6-3.4,3-5.7,5.3-8.1C106.3,72.3,108.3,71.3,110.3,70.3z"/>
</g>
<g id="_x23_bb7a42ff">
	<path class="st84" d="M170.9,71.1c3,3.6,6.3-4.2,6.3-0.2c-0.3,0.4-1,1.3-1.3,1.7c-3.3,0.4-4.5,2-2.3,4.8c0.3,0.9,0.7,1.9,1,2.8
		c1,4.8,4.8,8,9.6,8.6c-1.2,0.3-2.3,0.6-3.4,0.9l-0.7,0.2c-3.7-5.6-1.5,6.4-3.5,8.9c-0.3,0.3-1,1-1.4,1.3l0.1-1
		c2.6-9.3-1-18.3-6.2-25.8C169.7,72.6,170.3,71.8,170.9,71.1z"/>
</g>
<g id="_x23_f6df82ff">
	<path class="st85" d="M195.9,68.9c2,3,0.9,6.8,1.2,10.2c-0.7,1.1-1.3,2.3-2.3,3.1c-1.3-1.1-1.8-2.7-2-4.3
		C192.4,74.4,193.3,71.2,195.9,68.9z"/>
</g>
<g id="_x23_f4f3e4ff">
	<path class="st86" d="M154.1,80.9c-2.8-3.9-7.9-6.5-9.2-11.2c5.3,2.6,9.9,6.5,15,9.3c0.8,0.9,1.6,1.9,2.4,2.8
		C162.6,88.1,156.1,83.6,154.1,80.9z"/>
</g>
<g id="_x23_efaf57ff">
	<path class="st87" d="M68.1,80.1c8.3,3.5,9.6-7.3,16.1-9.2c0.5,5.7-5.6,7.9-9.3,11c0.6,0.1,1.7,0.3,2.2,0.4c-1.6,0.4-3.3,0.7-5,0.9
		c-0.6,0.1-1.7,0.2-2.2,0.3c-1.1-0.6-2.2-1.3-3.3-1.9C67,81.2,67.8,80.5,68.1,80.1z"/>
</g>
<g id="_x23_f4dd81ff">
	<path class="st88" d="M66.7,75.3c2.7-2.9,6-3.4,9.1-0.9c0.8,3.4-4.2,4.3-6.7,4.7C68.3,77.8,67.4,76.6,66.7,75.3z"/>
</g>
<g id="_x23_ae6536ff">
	<path class="st89" d="M92.2,94.2c3.3-7.9,3.1-17.6,11.8-22.2l0.2,1.1c-2.3,2.3-4.7,4.7-5.3,8.1c-1.7,7.1-6.2,13.4-6.1,21
		c-2.4,0.1-4.6-0.7-5.9-2.8C89.9,99.3,92.1,97.2,92.2,94.2z"/>
</g>
<g id="_x23_b7b5b2ff">
	<path class="st90" d="M123.8,73.9c1.6-0.9,3.3-1.7,5.1-1.9C136.4,76,126.6,79.2,123.8,73.9z"/>
</g>
<g id="_x23_8a8783ff">
	<path class="st91" d="M128.9,72c2.8-0.2,5.8,0.2,8.2,1.8c-2.5,7-11.3,5.8-16.2,2c0.9-0.7,1.9-1.3,2.8-1.9
		C126.6,79.2,136.4,76,128.9,72z"/>
</g>
<g id="_x23_faf2c7ff">
	<path class="st92" d="M173.6,77.4c-2.2-2.7-1.1-4.4,2.3-4.8C182.4,73.5,180.8,81.2,173.6,77.4z"/>
</g>
<g id="_x23_a9833fff">
	<path class="st93" d="M54.7,98.8c2.4-8.8,5.8-17.5,11.1-24.9c0.2,0.3,0.6,1,0.9,1.4c0.8,1.3,1.6,2.6,2.4,3.8c-0.2,0.3-0.7,0.8-1,1
		c-0.4,0.4-1.1,1.1-1.4,1.5c-2.7,1.6-8.1,5.9-3.7,8.5c-4.4-0.2,0.7,1.4,2.2,2c-3.8,0.1-7,2.2-8.3,5.8C56.4,98.1,55.3,98.6,54.7,98.8
		z"/>
</g>
<g id="_x23_413834ff">
	<path class="st94" d="M120.9,75.8c4.8,3.8,13.7,5,16.2-2c1,0.7,2,1.4,2.9,2.2c0,0.5,0.1,1.4,0.1,1.9c-0.6,1.7-1.3,3.4-2,5.1
		c-1.6,0.2-4.9,0.5-6.5,0.6c-4.7,7.2-2.3-3.6-8.7-1.7c-0.8-0.5-1.5-1.2-2.1-1.8C120.9,78.7,120.9,77.2,120.9,75.8z"/>
</g>
<g id="_x23_afa78aff">
	<path class="st95" d="M106.1,80.2c1.6-2,3.3-4.2,5.8-5.1C110.2,76.9,108.3,78.8,106.1,80.2z"/>
</g>
<g id="_x23_9c7447ff">
	<path class="st96" d="M115.9,78.3c1.7-0.7,3.4-1.5,5-2.5c0,1.4-0.1,2.9-0.1,4.3C119.2,79.4,117.6,78.8,115.9,78.3z"/>
</g>
<g id="_x23_feeb9bff">
	<path class="st97" d="M140,76c4.8,1.7,10.1,3.6,12.2,8.7c1.9,3.1,1.4,8.3,5.6,9.6c0.1,4.8-0.8,11.7-6.3,13.4
		c-4,1.9-6.1-1.8-8.6-3.9c-0.1-0.4-0.3-1.2-0.4-1.7c-1.3-6.2,6.9-5.1,9.2-9.4c2-4.9-2.3-8.1-5.7-10.4c-2.2-1.3-4.2-2.8-6.1-4.5
		C140.1,77.4,140.1,76.5,140,76z"/>
</g>
<g id="_x23_7e5a24ff">
	<path class="st98" d="M197.1,79.1c0.9-1.4,2.5-5.1,1.8-1.2c1.3,3.7-8,9.7-4.2,4.3C195.8,81.4,196.5,80.2,197.1,79.1z"/>
</g>
<g id="_x23_edd480ff">
	<path class="st99" d="M21.4,82.9c-1.2-1.4-0.1-4.8,1.8-4.5C23.1,80.1,22.4,81.6,21.4,82.9z"/>
</g>
<g id="_x23_f1e28aff">
	<path class="st100" d="M46.3,77.9c4,5.4,5.1,12.6,3.6,19.2c-1.6-0.8-3.1-1.9-4.6-3c-0.3-4.1-0.4-8.2-0.6-12.2
		C45.1,80.4,45.7,79.2,46.3,77.9z"/>
</g>
<g id="_x23_f6ba66ff">
	<path class="st101" d="M109.1,83c2.2-1.8,4.2-3.8,6.8-4.7c1.7,0.6,3.3,1.1,4.9,1.8c0.6,0.7,1.3,1.3,2.1,1.8
		c6.2,1.6,4.6,9.1-1.6,9.2c-2.2-3.6-4.4-3.6-4.8,0.9c-0.6,2.5-1.7,4.9-3.1,7.1C107.9,95.3,104.5,89.2,109.1,83z"/>
</g>
<g id="_x23_936438ff">
	<path class="st102" d="M140.2,77.9c1.9,1.7,3.9,3.2,6.1,4.5c-2.7,0.1-5.5-0.3-8.1,0.7C138.9,81.3,139.6,79.7,140.2,77.9z"/>
</g>
<g id="_x23_dc7431ff">
	<path class="st103" d="M159.8,78.1c10.3,1,9.5,15,14.5,21.2c-1.6,1-4.8,5.8-5,1.7c2.4-8.1-1.2-19-9.4-22L159.8,78.1z"/>
</g>
<g id="_x23_b74d16ff">
	<path class="st104" d="M175.6,80c5.2-2,9.9-2.8,4.1,1.3C178.3,80.8,176.9,80.4,175.6,80z"/>
</g>
<g id="_x23_8d652dff">
	<path class="st105" d="M186.3,79.8c-0.7-4.2,2.1,1.1,3,2.4c6.1,8.5,9.4,18.7,8.5,29.2C194.7,100.6,192.5,89.4,186.3,79.8z"/>
</g>
<g id="_x23_8f562fff">
	<path class="st106" d="M159.9,79c8.2,3,11.8,14,9.4,22c0.2,4.1,3.5-0.7,5-1.7l0.9-0.2l-0.1,1c-2.1,2.2-4.1,4.5-6.1,6.8
		c-1.6,1.4-3.3,2.9-4.9,4.3c0.9-3.1,2.1-6,2.9-9.1c2.6-7.1,0.4-14.9-4.7-20.2C161.5,80.9,160.7,80,159.9,79z"/>
</g>
<g id="_x23_e57c36ff">
	<path class="st107" d="M82.8,80.9c0.3-0.3,0.8-0.8,1.1-1.1c0.2,5.7-1.7,17.4,8.4,14.4c-0.1,3-2.3,5.1-5.3,5.2
		C82.8,94.2,82.9,87.2,82.8,80.9z"/>
</g>
<g id="_x23_fbf0a0ff">
	<path class="st108" d="M174.6,80.2l0.9-0.2c1.4,0.4,2.7,0.9,4.1,1.3c1.1,0.6,2.1,1.2,3.2,1.8c2.5,0.9,4.1,2.9,4.3,5.5
		c-0.7,0.1-2.2,0.2-2.9,0.2C179.4,88.2,175.6,85,174.6,80.2z"/>
</g>
<g id="_x23_773e1bff">
	<path class="st109" d="M77.2,82.3c1.9-0.4,3.7-1,5.6-1.4c0.2,6.3,0,13.3,4.1,18.4c1.3,2.1,3.5,2.8,5.9,2.8c0.8,1.3,1.5,2.5,2.3,3.8
		c-4.2,9.4-10.5-4-11.9-9c-0.8-3.6-3.8-7.8-7.4-4c1.5-3.3,3.9-6.3,4.3-10c-2.9,0-8.6,5.9-7.9,0.3C73.9,83,75.5,82.7,77.2,82.3z"/>
</g>
<g id="_x23_f7d78fff">
	<path class="st110" d="M154.1,80.9c2.1,2.6,8.5,7.2,8.2,0.9c5.1,5.3,7.3,13.1,4.7,20.2c-10.1,5.7-4.8-13.6-9.3-13
		c-1.4-2.3-2.8-4.6-3.9-7.1L154.1,80.9z"/>
</g>
<g id="_x23_f2e289ff">
	<path class="st111" d="M200,98c-3-5.3-2.8-14.7,3.9-17.1c0.3,2.7,1,5.4,1.3,8.2C204.1,92.4,202.9,95.9,200,98z"/>
</g>
<g id="_x23_bfa150ff">
	<path class="st112" d="M43.8,92c0.2-2.6,0.7-7.6,0.9-10.2C44.9,85.9,45,90,45.3,94c0,2.8,2.3,5.9,5.3,5.8c1-2.1,1.7-4.3,3.3-6.1
		c-0.7,6.8-4.5,12.7-4.9,19.4c-1-0.3-2-0.7-3-1c4.8-2.3-1.3-13.6-5.9-15.4c-1,5.1,0.8,9.9,2.8,14.4l-1-0.1c-2.3-2-2.3-7.3-5.9-7.1
		c-7.2-2.9-7.2,6.3-7.9,10.2c-0.1-1.5-0.2-3-0.4-4.5c1-5.7,2.7-11.1,4.2-16.7C34.9,89.1,39.8,90.4,43.8,92z"/>
</g>
<g id="_x23_f5e698ff">
	<path class="st113" d="M63,90.1c-4.4-2.6,0.9-6.9,3.7-8.5c1.1,0.7,2.2,1.3,3.3,1.9C65.5,84.7,69.7,91.9,63,90.1z"/>
</g>
<g id="_x23_a87d4eff">
	<path class="st114" d="M122.9,81.9c6.4-1.9,4,8.9,8.7,1.7c-2.1,5,0.8,7.5,5.1,8.7c1.2,1,2.3,2,3.5,3c1,2.2,1.8,4.5,2.5,6.9
		c0.1,0.4,0.3,1.2,0.4,1.7c-0.1,2.8-0.2,5.5-0.2,8.3c-0.6-0.8-1.1-1.5-1.7-2.3c0-0.7-0.1-2.2-0.1-3c1.1-5-0.5-10.1-4.7-13
		c-3.7-3.2-9.1-3.7-13.6-2.2c-0.4,0.1-1.2,0.3-1.6,0.4l0.2-1C127.6,91.1,129.2,83.6,122.9,81.9z"/>
</g>
<g id="_x23_f6b664ff">
	<path class="st115" d="M138.1,83c2.6-0.9,5.4-0.5,8.1-0.7c3.4,2.2,7.7,5.5,5.7,10.4c-2.3,4.4-10.5,3.2-9.2,9.4
		c-0.7-2.3-1.5-4.7-2.5-6.9c2.9-8.1,0-6.3-3.5-3c-4.3-1.2-7.2-3.7-5.1-8.7C133.1,87.3,135.9,84,138.1,83z"/>
</g>
<g id="_x23_eed581ff">
	<path class="st116" d="M56.3,207.9c-37.8-26.4-53.7-83.3-35-125c-9.2,26.2-8.7,55.7,2.4,81.2C30.8,181.2,42.9,195.5,56.3,207.9z"/>
</g>
<g id="_x23_b6672aff">
	<path class="st117" d="M70,83.6c0.5-0.1,1.7-0.2,2.2-0.3c-0.6,5.5,5-0.3,7.9-0.3c-0.5,3.7-2.9,6.6-4.3,10c3.6-3.8,6.5,0.4,7.4,4
		c-0.4,3.1-0.9,6.2-1.4,9.3c-1-2-2.1-3.9-3.9-5.2c-1.5-1.2-2.3-4.4-4.7-3.2c0-0.4,0.1-1.2,0.1-1.6c1.8-2.4,0.8-12.7-3.5-7.4
		c-1.2,1.1-2.5,2.2-3.8,3.2l-0.8,0.2c-1.5-0.6-6.6-2.3-2.2-2C69.7,91.9,65.5,84.7,70,83.6z"/>
</g>
<g id="_x23_b2a683ff">
	<path class="st118" d="M100.1,95.3c-2.9,1-0.6-12.5,3.2-11.5C101.1,87.2,99.6,91.2,100.1,95.3z"/>
</g>
<g id="_x23_b27840ff">
	<path class="st119" d="M131.6,83.6c1.6-0.2,4.9-0.4,6.5-0.6C135.9,84,133.1,87.3,131.6,83.6z"/>
</g>
<g id="_x23_ef923dff">
	<path class="st120" d="M69.8,88.7c4.3-5.2,5.3,5,3.5,7.4C73.1,93.3,71.4,90.9,69.8,88.7z"/>
</g>
<g id="_x23_f3e8d1ff">
	<path class="st121" d="M116.5,92.1c0.4-4.5,2.7-4.5,4.8-0.9l-0.2,1C119.7,92.4,118,92.8,116.5,92.1z"/>
</g>
<g id="_x23_dea059ff">
	<path class="st122" d="M157.7,89.1c4.6-0.6-0.8,18.7,9.3,13c-0.8,3.1-2.1,6-2.9,9.1c-1.8,2-4,3.4-6.2,4.8c1.1-3.7,2.9-7.2,3.2-11.1
		c-4.4,4-12,13.8-18.2,7.2c0.1-2.8,0.2-5.5,0.2-8.3c2.5,2,4.5,5.8,8.6,3.9c5.4-1.7,6.4-8.6,6.3-13.4
		C157.9,92.6,157.9,90.8,157.7,89.1z"/>
</g>
<g id="_x23_ecca65ff">
	<path class="st123" d="M176.5,98.8c2-2.5-0.1-14.6,3.5-8.9c0.1,1,0.3,2,0.4,3c2.9,6.2-3,11.2-4.5,16.9c3.5,2.4,8.8-1,11.8,2.9
		c2.3,2.4,5.4,2.3,8.6,2.1c1.8,9.8-2.5,19.5-3.4,29.3c-1-0.3-2.1-0.6-3.1-0.9c2.4-5.2-1.7-9.6-1.3-14.4c1.3,0.9,5.2,3.9,5.5,1.3
		c0.9-4.5-0.3-10.3-4.2-12.9c-5.1-0.3-1.8,5.8-0.5,8.2c-1.8,1.3-1.9-2.5-3.6-1.4c0.7-10.3-10.9-4.4-15.7-8.1
		C168.3,108.8,176.9,105.1,176.5,98.8z"/>
</g>
<g id="_x23_724a1bff">
	<path class="st124" d="M187.1,88.5c5.4,0,2.1,5.3-3.4,2.8c-1-0.5-2-1.1-3-1.6c1.1-0.3,2.3-0.6,3.4-0.9
		C184.9,88.7,186.4,88.6,187.1,88.5z"/>
</g>
<g id="_x23_f6d167ff">
	<path class="st125" d="M66,91.9c1.3-1,2.5-2.1,3.8-3.2c1.7,2.2,3.3,4.6,3.5,7.4c0,0.4-0.1,1.2-0.1,1.6c0.8,2.1,2.3,3.9,3,6.1
		c-0.6-0.2-1.7-0.6-2.2-0.7c1.2,6.5,2.7,13.1,2.1,19.8c-3,0.1-6,0-8.9,0.3c0.1,4,0.8,7.9,1,11.8c-2-0.1-4.1-0.2-6.1-0.6
		c1.2-2.7,2.2-5.4,2-8.4l0-0.8c0.4-2.7,0.7-5.4,1.1-8.1c10.4-2.2,5.8-14.2,3.9-21.3c-0.1-0.5-0.4-1.5-0.6-2
		C68.1,92.6,67.3,91.9,66,91.9z"/>
</g>
<g id="_x23_fdf8e6ff">
	<path class="st126" d="M136.8,92.3c3.5-3.3,6.4-5.1,3.5,3C139.1,94.3,137.9,93.3,136.8,92.3z"/>
</g>
<g id="_x23_89662cff">
	<path class="st127" d="M205.2,89.1c6,1.6-7.9,15.5-5.1,8.9C202.9,95.9,204.1,92.4,205.2,89.1z"/>
</g>
<g id="_x23_f8ee95ff">
	<path class="st128" d="M180,89.9l0.7-0.2c1,0.5,2,1.1,3,1.6c3.8,0.9,12.8,8.2,5.2,8.7c-1.4-0.4-2.8-0.9-4.2-1.4
		c-1.4-1.9-2.9-3.8-4.3-5.7C180.3,91.9,180.2,90.9,180,89.9z"/>
</g>
<g id="_x23_fafaecff">
	<path class="st129" d="M122.8,91.7c4.6-1.5,9.9-1,13.6,2.2c-0.2,1.8-1.7,2-3.2,2.1c-2.3-0.7-4.8-1.1-7.2-1.1
		C123.8,95.2,121.1,94.3,122.8,91.7z"/>
</g>
<g id="_x23_f7ea94ff">
	<path class="st130" d="M56.9,97.9c1.3-3.7,4.5-5.7,8.3-5.8l0.8-0.2c1.3,0,2.1,0.6,2.4,1.9c-2.3,4.1-6.6,8.3-11.7,7
		C56.7,100.1,56.9,98.6,56.9,97.9z"/>
</g>
<g id="_x23_aa8a5bff">
	<path class="st131" d="M113.4,99.1c1.4-2.2,2.5-4.5,3.1-7.1c1.5,0.8,3.1,0.3,4.7,0.1c-4.4,2.9-7.1,7.6-8.3,12.6
		c-0.7,2.1-1,4.4-1.3,6.6c-0.4,0-1.2-0.1-1.7-0.2c0.3-2,0.7-4.1,1.1-6.1C111.8,103.1,112.6,101.1,113.4,99.1z"/>
</g>
<g id="_x23_fdfca9ff">
	<path class="st132" d="M121.2,92.1c0.4-0.1,1.2-0.3,1.6-0.4c-1.7,2.5,1.1,3.5,3.2,3.2c-0.6,0.6-1.5,1.1-1.5,2.1
		c-3.2,5.6,7.7,4.4,9,2c0.4-1-0.1-2-0.4-3c1.5-0.1,3-0.3,3.2-2.1c4.1,2.9,5.8,8,4.7,13c-8.6,6.2-21.1,6.4-28.2-2.1
		C114.1,99.7,116.8,95,121.2,92.1z"/>
</g>
<g id="_x23_c9a44fff">
	<path class="st133" d="M175.9,109.8c1.5-5.8,7.4-10.7,4.5-16.9c1.4,1.9,2.9,3.8,4.3,5.7c-0.5,1.3,0.6,2.2,1.3,3.2
		c-6.3,0.1,1,9.2,4.8,10.3c-1,0.2-2.1,0.4-3.1,0.6C184.7,108.9,179.4,112.2,175.9,109.8z"/>
</g>
<g id="_x23_8b5c26ff">
	<path class="st134" d="M68.4,93.8c0.1,0.5,0.4,1.5,0.6,2c-0.9,1.4-1.9,2.8-2.8,4.1c-1.9,2.7-11,6.7-9.5,0.9
		C61.8,102.1,66,97.9,68.4,93.8z"/>
</g>
<g id="_x23_b2a779ff">
	<path class="st135" d="M126,95c2.4,0,4.8,0.4,7.2,1.1c0.2,1,0.8,2,0.4,3c-2.6-2.1-5.8-2.1-9-2C124.5,96.1,125.4,95.6,126,95z"/>
</g>
<g id="_x23_d1b052ff">
	<path class="st136" d="M213.2,95c3.5,0.1,4.9,3.8,6.8,6.1c7.4,25.2,0.2,54.5-16,74.8c0.1-2.7,0.1-5.4,0.2-8.1
		c0.7,1.2,0.6,3.8,2.6,3c6.7-7.4,6-18,7.1-27c8-7.8,9.4-19.7,7.6-30.2c-0.8-5.3-7.2-6.3-11.5-4.8c0.4-1.9,0.8-3.9,0.9-5.9
		C211,100.2,211.2,97.2,213.2,95z"/>
</g>
<g id="_x23_deb55aff">
	<path class="st137" d="M66.1,99.9c0.9-1.4,1.9-2.7,2.8-4.1c1.9,7.1,6.5,19-3.9,21.3c-3.4-5.9,5.9-12,1-16.4L66.1,99.9z"/>
</g>
<g id="_x23_f6ed98ff">
	<path class="st138" d="M40,96.8c4.6,1.8,10.7,13.1,5.9,15.4c-1-0.4-2.1-0.7-3.1-1.1C40.8,106.7,39,101.8,40,96.8z"/>
</g>
<g id="_x23_f7af53ff">
	<path class="st139" d="M73.2,97.8c2.3-1.2,3.2,2,4.7,3.2c2,8.6,5.4,17.3,10.6,24.4c0.3,0.3,0.9,1,1.2,1.3c1,2.7,1,5.6,1.2,8.5
		c-2.2-3.6-4-7.5-5.8-11.3c-2.7-6.8-6.8-13.1-8.9-20.1C75.5,101.7,74,99.9,73.2,97.8z"/>
</g>
<g id="_x23_955d2eff">
	<path class="st140" d="M83.2,96.9c1.4,5,7.8,18.4,11.9,9l0.6,0.6c4.4,2.2,9,5.9,14.2,4.6c0.4,0,1.2,0.1,1.7,0.2
		c9.7,0.5,23.3,8.2,29.6-1.5c0.5,0.8,1.1,1.5,1.7,2.3c6.2,6.6,13.8-3.3,18.2-7.2c-0.3,3.9-2.1,7.4-3.2,11.1
		c-0.7,1.9-1.2,3.9-1.9,5.8c-2.4,2.8-2,7-4.6,9.6c-1.1-5.5,3.2-9.7,4.8-14.5c-3.1,0.3-6,1.4-9,2.2c-6.7-0.8-13.3-3-20.2-1.4
		c-4.6-0.2-10.4-5.6-14.3-1c-2.6-0.1-5.1,0.1-7.6-0.6c-3.5-2.7-6.6-6.9-11.2-7.3c0.6,2.3,2.4,4.1,3.8,5.9c0,0.8,0.1,2.3,0.1,3.1
		c-0.2,1-0.3,1.9-0.4,2.9c-1.3,5.4-5.5-1.6-8.5-1.9c-4.6-2.1-5.2-8.4-7.1-12.7C82.3,103.1,82.8,100,83.2,96.9z"/>
</g>
<g id="_x23_fffef5ff">
	<path class="st141" d="M124.5,97.1c3.2-0.2,6.5-0.1,9,2C132.2,101.5,121.3,102.7,124.5,97.1z"/>
</g>
<g id="_x23_c4a655ff">
	<path class="st142" d="M54.7,98.8c0.6-0.2,1.7-0.7,2.2-0.9c-0.1,0.7-0.2,2.2-0.3,2.9c-1.5,5.8,7.6,1.9,9.5-0.9l-0.1,0.7
		c-0.3,1.4-0.3,2.8-0.8,4.1c-3.7-0.7-7.6-0.7-9.4,3.2C50,112.1,54.7,101.2,54.7,98.8z"/>
</g>
<g id="_x23_fae070ff">
	<path class="st143" d="M176.5,98.8c0.4,6.2-8.2,10-6.5,17c4.9,3.7,16.4-2.2,15.7,8.1c0.1,1.4,2.5,4.8-0.4,3.9
		c-3.9-0.5-2.8,9-0.2,11.7c1.8,3.4,2.2-1.5,3.6-2.8c0.1,1.6,0.2,4.8,0.3,6.3c-1.9,0.2-3.8,0.5-5.7,0.8c-2.1-1.2-4.3-2.5-5.8-4.5
		c-1.7,2.3-2.8,5.4-6.3,5c5.4-9.8-12.8-13-11.3-2.1c-4.7-9.9,5.8-16.7,5.3-26.1c0.8-3.2,2.6-6.1,3.8-9.2c2-2.3,4.1-4.5,6.1-6.8
		C175.5,99.8,176.2,99.1,176.5,98.8z"/>
</g>
<g id="_x23_6d4b1bff">
	<path class="st144" d="M186.1,101.8c-0.7-0.9-1.8-1.9-1.3-3.2c1.4,0.5,2.8,1,4.2,1.4c8.4,0.5,4.5,4.1-0.3,3.2
		C187.8,102.7,186.9,102.2,186.1,101.8z"/>
</g>
<g id="_x23_f7ef9aff">
	<path class="st145" d="M201.8,104.8c1.4-3.2,8.9-8.7,7.4-1.7c-0.6,4.4-2.9,8.3-7.1,10.2C202.1,110.4,201.9,107.6,201.8,104.8z"/>
</g>
<g id="_x23_936e32ff">
	<path class="st146" d="M66.1,100.7c4.9,4.5-4.3,10.6-1,16.4c-0.3,2.7-0.7,5.4-1.1,8.1c-1.7-2.8-3.5-5.7-3.1-9.2
		c0.8-0.9,1.6-1.8,2.4-2.8c-3.8,2.1-13.8,2.3-5.1,0c3.5-1.5,5.8-5,7.1-8.5C65.7,103.4,65.8,102,66.1,100.7z"/>
</g>
<g id="_x23_d5843bff">
	<path class="st147" d="M77.8,101c1.8,1.3,2.9,3.3,3.9,5.2c1.9,4.3,2.4,10.7,7.1,12.7c-0.8,2.1-0.8,4.3-0.3,6.5
		C83.2,118.3,79.9,109.6,77.8,101z"/>
</g>
<g id="_x23_f5b462ff">
	<path class="st148" d="M100.4,101.1c0.8,6.2,6.1,8.7,10.7,4c-0.4,2-0.8,4.1-1.1,6.1c-5.3,1.3-9.9-2.4-14.2-4.6
		C98.4,105.8,99.8,103.7,100.4,101.1z"/>
</g>
<g id="_x23_f0e590ff">
	<path class="st149" d="M190.8,112.1c-3.8-1.1-11.1-10.2-4.8-10.3c0.9,0.5,1.8,1,2.7,1.5c2.3,3,5.9,5.3,5.5,9.6
		C193.1,112.6,192,112.4,190.8,112.1z"/>
</g>
<g id="_x23_fefa93ff">
	<path class="st150" d="M73.9,103.1c0.6,0.2,1.7,0.5,2.2,0.7c2.2,7,6.3,13.2,8.9,20.1c-4.8-2.4-0.1,8.7-0.8,11.7
		c-3.4-1.3-7-0.2-8.8,3c-2.2-1.8-4.2-4.2-7.4-3.7c-0.3-4-1-7.9-1-11.8c3-0.2,5.9-0.1,8.9-0.3C76.6,116.2,75.2,109.6,73.9,103.1z"/>
</g>
<g id="_x23_8f6c32ff">
	<path class="st151" d="M209.2,103.1c0.4,0,1.2-0.1,1.7-0.1c-0.1,2-0.6,3.9-0.9,5.9c-0.8,3-9.8,9.1-7.8,4.4
		C206.4,111.4,208.6,107.4,209.2,103.1z"/>
</g>
<g id="_x23_f3ea96ff">
	<path class="st152" d="M55.9,108c1.8-3.9,5.8-3.9,9.4-3.2c-1.3,3.5-3.6,7-7.1,8.5C54,114.1,55.2,110.6,55.9,108z"/>
</g>
<g id="_x23_f9b662ff">
	<path class="st153" d="M112.9,104.8c7.1,8.6,19.6,8.3,28.2,2.1c0,0.7,0.1,2.2,0.1,3c-6.3,9.6-19.9,1.9-29.6,1.5
		C111.9,109.1,112.2,106.9,112.9,104.8z"/>
</g>
<g id="_x23_eccf68ff">
	<path class="st154" d="M197,136.6c4.5-10-1.9-23.9,4.8-31.9c0.1,2.8,0.2,5.6,0.4,8.5c-2,4.7,7-1.4,7.8-4.4
		c4.3-1.5,10.7-0.6,11.5,4.8c1.8,10.6,0.4,22.4-7.6,30.2c-1.1,9.1-0.3,19.7-7.1,27c-2,0.7-1.9-1.8-2.6-3c0.2-6-0.1-11.8-1.9-17.5
		c2.6-3.2,10.3-6.9,7.7-12.1c-3-0.5-1.8,4.2-3.4,6C206.1,139.3,199.8,139.9,197,136.6 M210.4,117.4c-4.9,1.9-8,6.6-9.3,11.6
		c13.7,1.4-3.9-0.1-2.1,4c7.9,1.3,12.4-6.8,13.7-13.3C213.6,118.3,211.8,116.3,210.4,117.4z"/>
</g>
<g id="_x23_fdf78fff">
	<path class="st155" d="M164.1,111.2c1.6-1.5,3.2-2.9,4.9-4.3c-1.2,3.1-3,5.9-3.8,9.2c0.5,9.4-10.1,16.2-5.3,26.1
		c0.3,1.5,0.9,3,1,4.6c-1,7.5-0.8,15.1-0.8,22.6c-0.6-4.2-0.8-8.5-1.6-12.7c-0.2-9-8.4-14.9-17.4-12.7c1.2-0.8,2.3-1.7,3.1-2.9
		c9.3-0.9,13.2-10.9,11.9-19.2c0.7-1.9,1.3-3.9,1.9-5.8C160.1,114.6,162.3,113.2,164.1,111.2z"/>
</g>
<g id="_x23_e5b26aff">
	<path class="st156" d="M93.9,108.9c4.7,0.3,7.8,4.5,11.2,7.3c-2.5-0.4-4.9-1.3-7.4-1.4C96.2,113,94.5,111.2,93.9,108.9z"/>
</g>
<g id="_x23_b7863aff">
	<path class="st157" d="M26.2,134.3c2.2-8-0.3-16.5,1.5-24.6c0.1,1.5,0.3,3,0.4,4.5c-0.1,7.3-0.5,14.7,0.6,22
		c2.3,12.6,5.6,25.4,13.1,35.9c1.9,2.8,3.8,5.5,5.8,8.1c2.1,2.9,4.5,5.5,7.2,7.9c5.1,6.8,12.8,10.4,19.2,15.7c-1.5-0.4-3-0.5-4.5,0
		C45.9,188.7,29.5,162.1,26.2,134.3z"/>
</g>
<g id="_x23_b1925aff">
	<path class="st158" d="M25.8,131.2c-1.2-6.8-1.1-13.7,0-20.5C26.1,117.6,25.9,124.4,25.8,131.2z"/>
</g>
<g id="_x23_6d4a1cff">
	<path class="st159" d="M41.9,111.1l1,0.1c1,0.3,2.1,0.7,3.1,1.1c1,0.4,2,0.7,3,1C48.8,117.3,43,113.3,41.9,111.1z"/>
</g>
<g id="_x23_674318ff">
	<path class="st160" d="M187.8,112.7c1-0.2,2-0.4,3.1-0.6c1.1,0.3,2.2,0.5,3.4,0.8c1,0.3,1.7,1,2.1,1.9
		C193.2,115,190.1,115.1,187.8,112.7z"/>
</g>
<g id="_x23_fdf1a8ff">
	<path class="st161" d="M97.7,114.8c2.5,0.1,4.9,1,7.4,1.4c2.5,0.7,5,0.6,7.6,0.6c9.3,2.3,19.4-0.6,28.1,3.4c0.3,0.3,1,1.1,1.4,1.4
		c-8.9,4.1-20.4,7.6-29.1,1.2c-2.4-1.1-7.1-6.7-6.2-0.9c-4.6-2.2,0.7,4.2,3.1,4.2c3.6,3.5,7.8,6.4,12.9,7.1l0.3,0.9
		c-11.2,1.4-19.6-7.3-23.2-16.9c-0.3,0.1-1,0.3-1.3,0.4l-0.8,0.2C97.8,117.1,97.7,115.6,97.7,114.8z"/>
</g>
<g id="_x23_d9a662ff">
	<path class="st162" d="M112.7,116.8c3.9-4.6,9.7,0.8,14.3,1c6.8-1.7,13.5,0.5,20.2,1.4c-1.6,0.2-4.7,0.8-6.3,1
		C132.1,116.2,122,119.2,112.7,116.8z"/>
</g>
<g id="_x23_b6954cff">
	<path class="st163" d="M60,117c0.2-0.2,0.7-0.7,0.9-1c-0.4,3.4,1.4,6.4,3.1,9.2l0,0.8c-2.3,2.2-4.5,5.4-8.1,5.1
		C62.8,128.1,55.7,122.1,60,117z"/>
</g>
<g id="_x23_faf08cff">
	<path class="st164" d="M48.7,125.1c2.2-4.5,8.4-4,11.3-8.1c-4.3,5.1,2.8,11.2-4.2,14.1c3.6,0.3,5.8-2.9,8.1-5.1
		c0.3,3-0.8,5.7-2,8.4c-4,0.7-8.4-0.2-12.2,1.3c-4.8,2.5-0.7,9.2-4.7,12.2c-1.6-1.1-3.1-2.4-5-3c-2.8,8-0.2,16.9,3.9,23.9
		c4.5,0.3,0.7-8.8,2.6-12.2c2.1,6.3-3.8,17.3,3.9,20.7c3.8,2.1,8.2-1.4,8.4-5.4c0.3-4.4,6.6-2.3,8.2-6c-2.8,0.4-6.6,3.8-8.6,0.3
		c-1.7-8.6,9.5-4.4,13.6-4.2c3.5-5.5,3.1-0.3,3.1,4.2c-0.1,1-0.5,1.8-1.2,2.5c-3.7-4-5.8-1.6-1.1,1.2c0.8,0.6,1.5,1.2,2.2,1.9
		c0.2,3.9-3.2,0-5.2,0.3c-2.3,1.8-11.5,1.5-7.2,5.9c-2.7-1.5-5.3-3-2.6,0.9c-3.1,4-8.6,3.1-12.6,1.2c-2-2.7-3.9-5.4-5.8-8.1
		c-5.1-12.9-17.6-34.1-1.1-43.3c0.3,0.3,1,0.8,1.3,1.1c2.5,2.1,5.5,4,9,3.1C50.5,130.3,49.7,127.6,48.7,125.1z"/>
</g>
<g id="_x23_fefbedff">
	<path class="st165" d="M98.6,117.7c0.3-0.1,1-0.3,1.3-0.4c3.6,9.6,12,18.3,23.2,16.9c6.3,1.9,13-1.4,18.1-5
		c1.3-1.2,4.4-3.7,4.1-0.1c-2.6,3.1-5.5,5.8-8.4,8.5c-1.9,0.7-4.6,1-5.2,3.3c5.6,0,10.4-6.2,15.8-3.9c-1.2,1.3-2.4,2.7-3.4,4.2
		c-0.8,1.2-1.9,2.1-3.1,2.9c-5.1,4.9-10.5-3.1-16,0c-4.5,1-8.6,4-10,8.6c-0.3,2.6-0.8,7.7-1,10.2c-2.9-1.7-6.5-2.1-9.8-1.7
		c-1.8,1.4-1.9,7.7-4.5,5.2c-3.1-9.2,3-7.7,8.5-9c1.4-1,2.3-2.5,3.1-4c1.8-6.3-6.5-6.7-11-6.6c-0.2-3.5-1.3-7-4.3-9
		c1.1-3.4,0.5-8.1,3.8-10.1l0.2,1c-2,12.7,13.5,14.2,22.3,12.7c2.2-4.5-6.3-2.8-9.4-3.3C103.4,136.1,100.9,125.7,98.6,117.7z"/>
</g>
<g id="_x23_f0d794ff">
	<path class="st166" d="M147.1,119.2c3-0.8,5.9-2,9-2.2c-1.6,4.8-5.9,9-4.8,14.5c-1,2-2.1,4-3.8,5.5c-5.4-2.3-10.1,3.9-15.8,3.9
		c0.6-2.3,3.3-2.6,5.2-3.3c7.1-1.6,12.3-8.6,13.2-15.7c-1.8,2.3-3.1,4.9-4.8,7.2c0.3-3.5-2.8-1-4.1,0.1c-5,3.6-11.7,6.8-18.1,5
		l-0.3-0.9c7.5,0.8,19.4-2.5,20.7-10.3c-0.3-0.3-1-1-1.3-1.4c-0.3-0.3-1-1-1.4-1.4C142.4,120,145.6,119.4,147.1,119.2z"/>
</g>
<g id="_x23_a2813eff">
	<path class="st167" d="M189.3,125.2c-1.2-2.4-4.6-8.5,0.5-8.2c3.9,2.6,5.1,8.5,4.2,12.9c-1.7-0.8-3.5-1.5-5.3-2
		C188.9,127.1,189.9,126.2,189.3,125.2z"/>
</g>
<g id="_x23_937032ff">
	<path class="st168" d="M210.4,117.4c1.4-1.1,3.2,0.9,2.3,2.3c-1.2,6.5-5.8,14.7-13.7,13.3c-1.8-4.1,15.8-2.6,2.1-4
		C202.3,124,205.4,119.3,210.4,117.4z"/>
</g>
<g id="_x23_91815bff">
	<path class="st169" d="M97.8,117.9l0.8-0.2c2.3,8,4.8,18.5,14.4,20.3c2.7,3.7-2.6,1.4-4.3,0.4c-3.9-2.2-6.6-5.8-8.6-9.7l-0.2-1
		c-0.4-2.4-1.4-4.6-2.5-6.8C97.5,119.8,97.6,118.9,97.8,117.9z"/>
</g>
<g id="_x23_9b7634ff">
	<path class="st170" d="M39.9,119.1c4.4-0.1,6.6,2.8,8.8,6c1,2.6,1.8,5.2,2.4,8c-3.5,0.9-6.5-1.1-9-3.1
		C46.8,126.9,38,123.6,39.9,119.1z"/>
</g>
<g id="_x23_f7e8a5ff">
	<path class="st171" d="M88.8,119c3,0.2,7.2,7.3,8.5,1.9c1.1,2.2,2,4.4,2.5,6.8c-3.3,2.1-2.7,6.7-3.8,10.1c-0.8,0-2.4,0-3.2,0
		c5.4-2.6,1.4-10.3-3.1-11c-0.3-0.3-0.9-1-1.2-1.3C88,123.3,88,121,88.8,119z"/>
</g>
<g id="_x23_fefbdfff">
	<path class="st172" d="M106.9,121.9c-0.8-5.8,3.8-0.2,6.2,0.9c8.7,6.4,20.1,2.9,29.1-1.2c0.3,0.3,1,1,1.3,1.4
		c-8.1,10.8-23.2,9.9-33.6,3.2C108.9,124.7,107.9,123.3,106.9,121.9z"/>
</g>
<g id="_x23_b2a371ff">
	<path class="st173" d="M109.9,126.1c-2.4,0-7.7-6.4-3.1-4.2C107.9,123.3,108.9,124.7,109.9,126.1z"/>
</g>
<g id="_x23_f8db6cff">
	<path class="st174" d="M33.6,122.5c4-1.5,5.4,3.8,7.1,6.4c-16.5,9.2-4,30.4,1.1,43.3c-7.5-10.5-10.8-23.4-13.1-35.9
		C29.6,131.6,27.5,123.7,33.6,122.5z"/>
</g>
<g id="_x23_8f7e5dff">
	<path class="st175" d="M145.2,129c1.7-2.3,3.1-4.9,4.8-7.2c-0.9,7.1-6.1,14-13.2,15.7C139.8,134.8,142.7,132.1,145.2,129z"/>
</g>
<g id="_x23_f1a44bff">
	<path class="st176" d="M151.3,131.4c2.6-2.6,2.3-6.8,4.6-9.6c1.4,8.3-2.6,18.4-11.9,19.2c1-1.5,2.1-2.9,3.4-4.2
		C149.2,135.4,150.3,133.5,151.3,131.4z"/>
</g>
<g id="_x23_fdfbd4ff">
	<path class="st177" d="M84.3,135.6c0.7-3-4-14.1,0.8-11.7c1.8,3.8,3.6,7.7,5.8,11.3c-0.2-2.9-0.3-5.8-1.2-8.5
		c4.6,0.7,8.5,8.4,3.1,11c-3.3,1.1-5.3,4.5-4.6,7.9c0.3,7.8-1.3,15.9,0.5,23.6c0.3,1,0.7,1.9,1.1,2.9l0.3,0.8
		c0.5,2.6-1.7,1.9-3.3,1.3c0-2.7,0-5.4,0-8c-0.2-6.1,1.3-12.6-0.5-18.6C85.1,143.6,88.9,138.9,84.3,135.6z"/>
</g>
<g id="_x23_96845dff">
	<path class="st178" d="M143.5,123c-1.3,7.8-13.2,11.1-20.7,10.3c-5-0.8-9.3-3.6-12.9-7.1C120.3,132.9,135.4,133.8,143.5,123z"/>
</g>
<g id="_x23_cea54eff">
	<path class="st179" d="M185.7,123.9c1.7-1.2,1.8,2.7,3.6,1.4c0.5,1-0.5,1.8-0.6,2.8l-0.2,0.7c-0.4,4.8,3.7,9.2,1.3,14.4l-0.9-0.3
		c-0.1-1.6-0.2-4.8-0.3-6.3c-1.3,1.4-1.8,6.2-3.6,2.8c1.1-3.7,3.4-8.5,0.2-11.7C188.3,128.7,185.8,125.3,185.7,123.9z"/>
</g>
<g id="_x23_a67d30ff">
	<path class="st180" d="M185.1,139.4c-2.6-2.7-3.7-12.2,0.2-11.7C188.5,130.9,186.2,135.7,185.1,139.4z"/>
</g>
<g id="_x23_633f15ff">
	<path class="st181" d="M188.7,128c1.8,0.5,3.6,1.2,5.3,2c-0.4,2.6-4.2-0.4-5.5-1.3L188.7,128z"/>
</g>
<g id="_x23_f7f1b0ff">
	<path class="st182" d="M100.1,128.6c2,3.9,4.7,7.6,8.6,9.7c1.7,1,7,3.4,4.3-0.4c3.1,0.5,11.6-1.2,9.4,3.3
		C113.6,142.8,98.1,141.3,100.1,128.6z"/>
</g>
<g id="_x23_ac7040ff">
	<path class="st183" d="M62,134.4c2,0.4,4.1,0.6,6.1,0.6c3.2-0.5,5.2,1.9,7.4,3.7c1.7-3.2,5.4-4.4,8.8-3c4.6,3.3,0.8,7.9,1.9,12.1
		c0.2,6.2-1,12.5,0.5,18.6c0.1,2.7,0.1,5.3,0,8l-0.8-0.3c0.3-7.6-0.2-6.9-1.8-1.9c-0.2-8,0.1-16.1-0.2-24.1c-0.1-2.8-4.7-3-5.8-0.8
		c-0.4,8.3,0.1,16.6-0.4,24.9c-0.8-4.4-0.6-9-1.3-13.5c-0.3-3.9-0.4-7.9-0.3-11.8c0.9-3.3-0.8-4.9-3.1-1.9c-5.9-0.5-20-4.2-14.1,4.9
		c4.5,1.1,10.7-1.9,14.2,2c3.8,12-9,6.6-15.3,6.9l-1.1-0.1c0.3-0.2,0.8-0.7,1.1-1c3.8-0.9,9,1.8,12.4-0.6c5.3-6.3-6.4-5.7-10.2-5.2
		c-6.3,0.4-5.7-12.9,2-8.9c3.4-0.1,12.1,1.5,9.9-4.8c-5.7-2.9-13.3-0.4-19.8-1.6c-0.6-0.2-1.8-0.7-2.3-1
		C53.6,134.1,58,135.1,62,134.4 M79.2,137.1c-2.8,1.9-1,7.3,2.7,5.9C86.3,142,83.5,134.7,79.2,137.1z"/>
</g>
<g id="_x23_975c2dff">
	<path class="st184" d="M159.8,142.1c-1.6-10.9,16.7-7.7,11.3,2.1c-0.4,0.9-0.3,1.8-0.2,2.7c0,0.7-0.1,2.1-0.1,2.9
		c-0.8,6.4-1.6,13.1-0.2,19.5c-0.2,1.4,1.1,5.5,2.2,3c0.1-0.5,0.2-1.5,0.3-2c1.2-5.7,0.7-11.6,0.7-17.4c2.2-3.8,5.4-7.2,9.4-9.1
		c1.9-0.3,3.8-0.6,5.7-0.8l0.9,0.3c1,0.3,2,0.7,3.1,0.9c0.5,0.2,1.5,0.5,2,0.7c3.6,4.2,8.4,4,11.6-0.7c1.6-1.7,0.4-6.5,3.4-6
		c2.6,5.2-5.1,8.9-7.7,12.1c1.8,5.7,2.2,11.5,1.9,17.5c0,2.7-0.1,5.4-0.2,8.1c-0.6,0.6-1.2,1.2-1.8,1.8c-3.6,0.5-7.3,1-10.1-1.7
		c-0.1-1.9-0.1-3.9-0.4-5.8c-0.1-0.5-0.3-1.5-0.4-1.9c0.2-0.3,0.6-1,0.8-1.3c1.3-4.2,0.8-8.8,1-13.3l0.9,0.1
		c4.2,6-5.2,22.9,6.9,20.1c1.8-4.2,1.8-12.6,0.3-18.3c-1.5-4.5-4.4-8.7-9.2-10.1c-2.4-1.4-5.6-2.3-7.2,0.2c-3.7,1.2-7.2,3.5-9,7
		c-0.5,6.2-2.7,16.4,0.2,21.1c2,0.1,4,0.1,5.9,0c2.8-1.2,0.3-7.2,1.1-10.2c0.5,2.1,1,4.2,1.5,6.4c0.2,1.4,0.4,2.7,0.6,4.1
		c-1.2,2.1-3.7,4.1-2.2,6.7c2.9-1.6,5.5-3.6,8.4-5.3c-2.8,6.1-14.2,12.4-19.4,5.4c3,0.5,6,0.9,9.1,1.1c-2.7-1.5-10.5-1.8-8.4-7.3
		c-1.6-2.9-10,9.2-10.6,4.6c6.6-2.4-5.3-4.3-2.2-10c1.6-7.4,1.2-15.1,0.8-22.6C160.7,145.2,160.2,143.7,159.8,142.1 M164.2,137.1
		c-2.8,1.9-1,7.3,2.7,5.9C171.3,142,168.5,134.7,164.2,137.1 M163,148.1c-2.8,5.1-1,18.8,0,23.9c0.2,2.7,4.6,2.8,5.9,0.9
		c0.3-8.5,0.2-17,0-25.6C167.7,145.2,163.1,145.3,163,148.1z"/>
</g>
<g id="_x23_915225ff">
	<path class="st185" d="M45.1,147.9c4-3-0.1-9.7,4.7-12.2c0.6,0.2,1.8,0.7,2.3,1c-0.8,0.7-1.6,1.4-2.4,2.2c-0.8,10.9-2,22.6,0,33.4
		c1.2,2.5,5.3,2.6,6.4,0c1.4-4.3,0.7-9,0.6-13.4l1.1,0.1c-0.1,2.5,0.2,5,0.8,7.4c2,3.5,5.8,0.2,8.6-0.3c-1.6,3.7-7.9,1.6-8.2,6
		c-0.2,4-4.5,7.5-8.4,5.4c-7.8-3.4-1.8-14.4-3.9-20.7C46.7,153.7,48.2,149.7,45.1,147.9z"/>
</g>
<g id="_x23_fcfbfaff">
	<path class="st186" d="M49.8,138.8c0.7-0.8,1.5-1.5,2.4-2.2c6.5,1.2,14.1-1.3,19.8,1.6c2.1,6.3-6.6,4.8-9.9,4.8
		c-7.7-4.1-8.3,9.2-2,8.9c3.8-0.4,15.5-1.1,10.2,5.2c-3.9,0.8-8.8-1.7-12.4,0.6c-0.3,0.2-0.8,0.7-1.1,1c-1.3,4.3-0.5,9-0.6,13.4
		c-1.1,2.6-5.3,2.6-6.4,0C50.1,161.1,50.1,150,49.8,138.8z"/>
	<path class="st186" d="M175.9,152.9c1.9-3.5,5.3-5.8,9-7c1.8-0.1,5.4-0.1,7.2-0.2c4.8,1.3,7.6,5.6,9.2,10.1
		c-0.2,6.1-0.3,12.2-0.3,18.3c-12,2.9-2.6-14.1-6.9-20.1c-2.9-4.9-10.6-3.3-12,2.2c-0.2,5.9-0.1,11.9-0.1,17.8c-2,0.1-4,0.1-5.9,0
		C176,166.9,176.1,159.9,175.9,152.9z"/>
</g>
<g id="_x23_f5f1edff">
	<path class="st187" d="M79.2,137.1c4.3-2.4,7.1,4.9,2.7,5.9C78.2,144.4,76.4,139,79.2,137.1z"/>
</g>
<g id="_x23_f4f0ecff">
	<path class="st188" d="M164.2,137.1c4.3-2.4,7.1,4.9,2.7,5.9C163.2,144.4,161.4,139,164.2,137.1z"/>
</g>
<g id="_x23_fced7eff">
	<path class="st189" d="M197,136.6c2.9,3.2,9.1,2.7,9.5,7.5c-3.2,4.7-7.9,4.9-11.6,0.7C195.1,142,196,139.3,197,136.6z"/>
</g>
<g id="_x23_b87b46ff">
	<path class="st190" d="M88.2,145.7c-0.7-3.4,1.3-6.8,4.6-7.9c0.8,0,2.4,0,3.2,0c3,2,4.1,5.5,4.3,9c4.5-0.1,12.8,0.2,11,6.6
		c-3.5,3-11.8-1.1-12.4,3.7c0,3.1-0.6,6.4,0.7,9.3c2.6,2.5,2.7-3.8,4.5-5.2c3.3-0.4,6.9,0,9.8,1.7c0.3-2.6,0.8-7.7,1-10.2
		c-0.1,7.2,0.1,14.5-0.2,21.7c-0.3-5.5-1.1-6.4-2.7-2.1c-0.1-1.8-0.3-3.6-0.7-5.3c-0.4-1.9-0.7-5.5-3.5-4.8c-4.3-0.5-2.1,7.8-7,7.1
		c-6.5-0.6-3.6-9.5-3.9-13.9c3.2-1.6,16.8-0.1,10.1-6.4c-2.9-1.3-6.3-0.6-9.3-0.7c0.2-3.2-1.2-11.1-6.2-7.5c-1.6,8.3-0.2,17.4-1,26
		c-0.4,1.8-0.7,3.7-0.9,5.5c-0.4-0.9-0.8-1.9-1.1-2.9C88.6,161.5,90.1,153.4,88.2,145.7z"/>
</g>
<g id="_x23_c0a792ff">
	<path class="st191" d="M49.7,172.2c-2-10.8-0.8-22.5,0-33.4C50.1,150,50.1,161.1,49.7,172.2z"/>
</g>
<g id="_x23_fef9b1ff">
	<path class="st192" d="M171.1,144.2c3.5,0.5,4.6-2.6,6.3-5c1.6,1.9,3.7,3.2,5.8,4.5c-4,1.9-7.2,5.3-9.4,9.1
		c-1.5,5.7-0.6,11.6-0.7,17.4c-0.1,0.5-0.2,1.5-0.3,2c-1.4-8.4,0-17.1-1.9-25.4C170.8,146,170.7,145.1,171.1,144.2z"/>
</g>
<g id="_x23_fbfaf8ff">
	<path class="st193" d="M91.7,140.7c5-3.6,6.4,4.3,6.2,7.5c2.5,1.8,6.4,0.4,9.3,0.7c6.7,6.2-6.9,4.7-10.1,6.4
		c0.3,4.4-2.5,13.3,3.9,13.9c4.9,0.7,2.7-7.7,7-7.1c2.9-0.7,3.1,2.9,3.5,4.8c-1,3.7-3.8,6.4-7.4,7.7c-1.9-1.1-4.3-1.1-6.2,0
		c-3.8-1.1-6.2-4.1-7.2-7.8C91.5,158.1,90.1,148.9,91.7,140.7z"/>
</g>
<g id="_x23_fff8dbff">
	<path class="st194" d="M73,145.1c2.3-3.1,4-1.4,3.1,1.9c-0.8,2.4-0.2,9.6-3,5c-3.5-4-9.7-0.9-14.2-2
		C57.6,141.8,68.8,148.6,73,145.1z"/>
</g>
<g id="_x23_b17b50ff">
	<path class="st195" d="M125,144c5.5-3.1,10.9,4.9,16,0c8.9-2.2,17.2,3.7,17.4,12.7c-0.2,3-0.4,6.1-0.6,9.1
		c-0.3,2.2-0.9,4.3-1.5,6.4c-1-7.8,1.9-17.3-3.5-24c-5.8-5.8-14.5,1.8-21-2c-5.3-2.7-12.1,1.1-14.5,6.2c-0.5,6.6-0.2,13.2-0.6,19.8
		c-1.9-6.3,0.8-13.4-1.8-19.7C116.3,148,120.4,144.9,125,144z"/>
</g>
<g id="_x23_f18b3cff">
	<path class="st196" d="M58.9,149.9c-5.9-9.1,8.2-5.4,14.1-4.9C68.8,148.6,57.6,141.8,58.9,149.9z"/>
</g>
<g id="_x23_fefdb0ff">
	<path class="st197" d="M40.2,144.9c1.9,0.5,3.4,1.9,5,3c3.1,1.8,1.6,5.8,1.5,8.8c-1.9,3.4,1.9,12.5-2.6,12.2
		C39.9,161.9,37.4,152.9,40.2,144.9z"/>
</g>
<g id="_x23_fcfaf9ff">
	<path class="st198" d="M117.3,152.4c2.4-5.1,9.2-9,14.5-6.2c6.4,3.8,15.2-3.8,21,2c5.4,6.7,2.5,16.2,3.5,24c-1.2,2.5-5.4,2.6-6.5,0
		c-0.9-6.8,3.3-16-3-21.1c-3.4-1.9-6.1,0.9-6.9,3.6c-1.2,5.8-0.6,11.7-0.6,17.5c-0.9,2.3-3.5,2-5.3,0.9c-0.3-5.8,0.9-11.8-0.6-17.4
		c-0.4-3.9-6.2-6.9-8.6-3c-3.8,5.6-0.8,13.1-1.5,19.4c-1.1,2.6-5.3,2.6-6.4,0C117.1,165.6,116.8,159,117.3,152.4z"/>
	<path class="st198" d="M78.1,147.3c1.1-2.2,5.7-2,5.8,0.8c0.4,8,0,16.1,0.2,24.1c-1,2.7-5.3,2.6-6.4,0
		C78.2,163.9,77.8,155.6,78.1,147.3z"/>
</g>
<g id="_x23_c2aa95ff">
	<path class="st199" d="M184.9,145.9c1.7-2.5,4.9-1.6,7.2-0.2C190.3,145.7,186.7,145.8,184.9,145.9z"/>
</g>
<g id="_x23_fee08bff">
	<path class="st200" d="M88.2,145.7c1.9,7.7,0.3,15.8,0.5,23.6C86.9,161.6,88.5,153.5,88.2,145.7z"/>
</g>
<g id="_x23_fbf9f7ff">
	<path class="st201" d="M163,148.1c0.1-2.7,4.7-2.9,5.8-0.8c0.2,8.5,0.3,17,0,25.6c-1.3,2-5.7,1.9-5.9-0.9
		C163,164,162.9,156,163,148.1z"/>
</g>
<g id="_x23_e2863cff">
	<path class="st202" d="M73.1,152c2.8,4.5,2.2-2.7,3-5c-0.1,3.9,0,7.9,0.3,11.8c-0.2,2.5-0.6,5.1-1.1,7.6c0-4.6,0.4-9.8-3.1-4.2
		c-4.1-0.3-15.3-4.4-13.6,4.2c-0.6-2.4-0.9-4.9-0.8-7.4C64.1,158.5,76.9,163.9,73.1,152z"/>
</g>
<g id="_x23_f8a445ff">
	<path class="st203" d="M159.9,169.4c0-7.6-0.2-15.1,0.8-22.6C161.1,154.3,161.5,161.9,159.9,169.4z"/>
</g>
<g id="_x23_f6c26aff">
	<path class="st204" d="M170.9,146.9c1.9,8.4,0.5,17,1.9,25.4c-1.1,2.5-2.4-1.6-2.2-3c0.4-6.5,0.4-13,0.2-19.5
		C170.9,149,170.9,147.6,170.9,146.9z"/>
</g>
<g id="_x23_ffd173ff">
	<path class="st205" d="M86.2,147.7c1.8,6,0.3,12.4,0.5,18.6C85.2,160.2,86.3,153.9,86.2,147.7z"/>
</g>
<g id="_x23_c7b19fff">
	<path class="st206" d="M97.8,148.1c3.1,0.1,6.5-0.6,9.3,0.7C104.2,148.5,100.4,150,97.8,148.1z"/>
</g>
<g id="_x23_b59881ff">
	<path class="st207" d="M163,171.9c-1-5.1-2.8-18.8,0-23.9C162.9,156,163,164,163,171.9z"/>
</g>
<g id="_x23_da7d2fff">
	<path class="st208" d="M170.6,169.3c-1.4-6.4-0.5-13.1,0.2-19.5C171,156.3,171,162.8,170.6,169.3z"/>
</g>
<g id="_x23_af7546ff">
	<path class="st209" d="M124.7,152.8c2.4-3.9,8.1-0.9,8.6,3c-0.1,1.8-0.2,3.6-0.3,5.3l-0.9-0.1c-0.9-3.1,0.9-11.2-5.8-7.9
		c-2.8,3.4-0.6,8.7-1.5,12.8c-0.2,2.2-0.7,4.3-1.5,6.4C123.9,165.9,121,158.3,124.7,152.8z"/>
</g>
<g id="_x23_b2875dff">
	<path class="st210" d="M139.8,154.7c0.8-2.7,3.6-5.6,6.9-3.6c6.3,5,2.1,14.3,3,21.1c-0.6-3.5-1.1-6.9-1.5-10.4
		c2.8-6-2.9-12.2-7.6-6.7L139.8,154.7z"/>
</g>
<g id="_x23_a6744fff">
	<path class="st211" d="M182.1,156.1c1.4-5.5,9.1-7.1,12-2.2l-0.9-0.1c-7.5-4-12,3.4-10.1,10c-0.8,2.9,1.7,9-1.1,10.2
		C182,168,181.9,162.1,182.1,156.1z"/>
</g>
<g id="_x23_ee8633ff">
	<path class="st212" d="M99,157c0.6-4.8,8.9-0.7,12.4-3.7c-0.8,1.5-1.8,2.9-3.1,4C105.1,157.2,102.1,157.1,99,157z"/>
</g>
<g id="_x23_975325ff">
	<path class="st213" d="M115,152.5c2.5,6.2-0.2,13.3,1.8,19.7c1.1,2.6,5.3,2.6,6.4,0c0.8-2,1.3-4.2,1.5-6.4c0.2,1.8,0.5,3.7,1,5.5
		c0,1.4-0.4,2.7-0.8,4c-1.9,1.1-3.7,2.2-5.8,3.1c-1.6-1.2-4.3-1.8-4.4-4.1C115.1,167,115,159.8,115,152.5z"/>
</g>
<g id="_x23_f1ae54ff">
	<path class="st214" d="M126.3,153.1c6.7-3.3,5,4.8,5.8,7.9c-0.5,4.4-1.1,8.9-1.3,13.3c-0.2-1.6-0.7-4.7-0.9-6.3
		c-0.8-4.1,3.9-12-1.8-13.9c-4.2,3.2-1.4,9.4-2.2,13.9c-0.1,0.8-0.2,2.5-0.2,3.3c-0.5-1.8-0.8-3.6-1-5.5
		C125.7,161.7,123.4,156.4,126.3,153.1z"/>
</g>
<g id="_x23_f9b04bff">
	<path class="st215" d="M140.7,155.1c4.7-5.5,10.4,0.7,7.6,6.7c-0.3,1.6-0.8,4.8-1,6.4l-0.1-1c-1.3-3.4,2.7-13.5-3.9-12.2
		c-2.3,1.9-0.9,5.1-1.2,7.7c-0.1,0.9-0.2,2.6-0.2,3.4C141.4,162.5,141,158.8,140.7,155.1z"/>
</g>
<g id="_x23_f7a247ff">
	<path class="st216" d="M173.1,170.3c0.1-5.8-0.8-11.8,0.7-17.4C173.9,158.7,174.4,164.5,173.1,170.3z"/>
</g>
<g id="_x23_b1937aff">
	<path class="st217" d="M176,174c-2.8-4.7-0.7-14.9-0.2-21.1C176.1,159.9,176,166.9,176,174z"/>
</g>
<g id="_x23_e98c3cff">
	<path class="st218" d="M183.1,163.8c-2-6.6,2.5-14,10.1-10c-0.3,4.4,0.3,9.1-1,13.3c-1.4-3.1,2.7-12.2-3-12.1
		c-3.2-0.7-6.2,2.4-4.2,5.4c-2.5,6.1,1.8,7.8,6.4,8c0.1,0.5,0.3,1.5,0.4,1.9c-2.3,0.2-6.9-3.9-7.1-0.1
		C184.1,168,183.6,165.9,183.1,163.8z"/>
</g>
<g id="_x23_fffde9ff">
	<path class="st219" d="M128.2,154.1c5.7,1.9,1,9.8,1.8,13.9c-1.3,0-2.6,0-3.9,0C126.8,163.5,124,157.4,128.2,154.1z"/>
</g>
<g id="_x23_cbb6a6ff">
	<path class="st220" d="M139.2,172.2c-0.1-5.8-0.7-11.7,0.6-17.5C139.2,160.4,141.4,166.8,139.2,172.2z"/>
</g>
<g id="_x23_945529ff">
	<path class="st221" d="M139.8,154.7l0.9,0.4c0.3,3.7,0.7,7.4,1.1,11.1c0,2.9,0.1,5.8,0,8.7c-1.3,1-2.6,2-3.9,2.9
		c-2.6,0-4.8-1.4-7-2.7l-0.1-0.9c0.2-4.5,0.8-8.9,1.3-13.3l0.9,0.1c1.2,3.4-1.9,9.6,0.9,12.1c1.8,1.1,4.4,1.4,5.3-0.9
		C141.4,166.8,139.2,160.4,139.8,154.7z"/>
</g>
<g id="_x23_fffde2ff">
	<path class="st222" d="M143.2,155.1c6.6-1.3,2.7,8.8,3.9,12.2c-3.6,1.6-5.7,0.3-5.1-4.5C142.3,160.2,140.9,156.9,143.2,155.1z"/>
</g>
<g id="_x23_fac87aff">
	<path class="st223" d="M184.9,160.4c-2-3,1-6.1,4.2-5.4C187.8,156.8,186.4,158.7,184.9,160.4z"/>
</g>
<g id="_x23_fffcd2ff">
	<path class="st224" d="M189.1,155c5.7-0.1,1.6,9,3,12.1c-0.2,0.3-0.6,1-0.8,1.3c-4.5-0.2-8.9-1.9-6.4-8
		C186.4,158.7,187.8,156.8,189.1,155z"/>
</g>
<g id="_x23_ded1c6ff">
	<path class="st225" d="M133.3,155.7c1.5,5.6,0.3,11.7,0.6,17.4c-2.9-2.5,0.3-8.7-0.9-12.1C133.1,159.3,133.2,157.5,133.3,155.7z"/>
</g>
<g id="_x23_aa886cff">
	<path class="st226" d="M201.3,155.7c1.5,5.7,1.5,14.1-0.3,18.3C201,167.9,201.1,161.8,201.3,155.7z"/>
</g>
<g id="_x23_c3ad9aff">
	<path class="st227" d="M57.8,157.8c3.6-2.2,8.5,0.2,12.4-0.6C66.8,159.6,61.7,156.9,57.8,157.8z"/>
</g>
<g id="_x23_ffe293ff">
	<path class="st228" d="M99,157c3.1,0.1,6.2,0.2,9.3,0.3c-5.6,1.3-11.6-0.2-8.5,9C98.4,163.4,98.9,160.1,99,157z"/>
</g>
<g id="_x23_e8c55fff">
	<path class="st229" d="M158.4,156.7c0.8,4.2,0.9,8.5,1.6,12.7c-3.2,5.7,8.8,7.6,2.2,10c-19.6,1.1-39.1,7.6-58.6,7.8
		c6.7-5.3,16.9-4,24.9-6.6c1.1-1.1,11.9,0.2,9.4-2.7c1.3-1,2.6-2,3.9-2.9c1.1,2.7,4,2.1,6.1,1.2c6.8,5.5,13.7-3.9,9.8-10.3
		C158,162.8,158.2,159.7,158.4,156.7z"/>
</g>
<g id="_x23_a68163ff">
	<path class="st230" d="M56.2,172.2c0-4.5-0.8-9.2,0.6-13.4C56.9,163.2,57.5,167.9,56.2,172.2z"/>
</g>
<g id="_x23_8d5023ff">
	<path class="st231" d="M76.4,158.7c0.7,4.4,0.5,9,1.3,13.5c1.1,2.6,5.4,2.7,6.4,0c1.6-5,2-5.7,1.8,1.9c0.2,2.4,5.1,6,1.1,6.9
		c-1.7-1-3.3-2.2-5.1-3.1c-4.5,0.4-6-2.4-6.7-5.9c-0.7-0.7-1.4-1.3-2.2-1.9c0.3-0.3,0.9-0.9,1.1-1.2c0.7-0.7,1-1.5,1.2-2.5
		C75.9,163.8,76.2,161.3,76.4,158.7z"/>
</g>
<g id="_x23_b38638ff">
	<path class="st232" d="M24.2,161.9c4.2,5.7,5.4,13.5,11,18.1c5.8,8,12.2,15.6,19.7,22c37.2,35.5,102.9,35.7,140.3,0.1
		c7.4-6.6,14.2-14,19.5-22.4c1.2-0.5,2.5-1.3,3.9-0.8c-5.2,8.8-12,16.4-18.8,23.9c-2.6,1.8-4.9,3.9-7.3,6c-1.5,0.5-2.7,1.5-3.6,2.8
		c-15,11.7-33.9,18.9-53,20.4c-7,0-14,0-21,0c-19.8-1.3-39.5-8.9-55-21.4c-0.9-1.3-2.1-2.4-3.7-2.7c-13.5-12.4-25.5-26.7-32.6-43.8
		C23.8,163.6,24,162.4,24.2,161.9z"/>
</g>
<g id="_x23_995425ff">
	<path class="st233" d="M148.3,161.8c0.4,3.5,0.9,6.9,1.5,10.4c1.2,2.6,5.3,2.6,6.5,0c0.7-2.1,1.2-4.2,1.5-6.4
		c3.8,6.4-3.1,15.8-9.8,10.3c-0.4-2.6-0.6-5.3-0.7-7.9C147.5,166.6,148,163.4,148.3,161.8z"/>
</g>
<g id="_x23_fbe97aff">
	<path class="st234" d="M142,162.8c-0.6,4.8,1.6,6.1,5.1,4.5l0.1,1c0.1,2.6,0.4,5.3,0.7,7.9c-2.2,0.9-5,1.5-6.1-1.2
		c0.1-2.9,0-5.8,0-8.7C141.9,165.4,142,163.6,142,162.8z"/>
</g>
<g id="_x23_c5994cff">
	<path class="st235" d="M73.1,170c-4.7-2.9-2.5-5.2,1.1-1.2C73.9,169.1,73.3,169.7,73.1,170z"/>
</g>
<g id="_x23_985529ff">
	<path class="st236" d="M89.8,172.2c0.2-1.8,0.5-3.7,0.9-5.5c1.1,3.7,3.5,6.7,7.2,7.8c2.3,1.3,4.3,1.3,6.2,0c3.6-1.3,6.4-4,7.4-7.7
		c0.4,1.8,0.5,3.6,0.7,5.3c-4.7,7.8-16.6,7.7-22.1,0.9L89.8,172.2z"/>
</g>
<g id="_x23_fefa8dff">
	<path class="st237" d="M126,168c1.3,0,2.6,0,3.9,0c0.2,1.6,0.7,4.7,0.9,6.3l0.1,0.9c-2,0-4,0.1-6,0.1c0.4-1.3,0.8-2.6,0.8-4
		C125.8,170.5,125.9,168.8,126,168z"/>
</g>
<g id="_x23_fbe46aff">
	<path class="st238" d="M184.6,170.2c0.2-3.8,4.8,0.4,7.1,0.1c0.3,1.9,0.3,3.8,0.4,5.8l-0.7-0.4c-1.7-1.5-4.1-1.1-6.2-1.4
		C185,172.9,184.8,171.5,184.6,170.2z"/>
</g>
<g id="_x23_fcee7aff">
	<path class="st239" d="M112.2,172.1c1.6-4.3,2.3-3.4,2.7,2.1c0.1,2.4,2.8,3,4.4,4.1c-12.3,5.4-26.6,6.4-39.5,2.8l0.6-0.9
		c0.6-0.8,1.1-1.6,1.7-2.4c1.8,0.9,3.3,2.2,5.1,3.1c3.9-1-1-4.5-1.1-6.9l0.8,0.3c1.6,0.6,3.8,1.3,3.3-1.3
		C95.5,179.9,107.5,180,112.2,172.1z"/>
</g>
<g id="_x23_b07c3eff">
	<path class="st240" d="M70.1,172.3c2-0.3,5.3,3.6,5.2-0.3c0.7,3.5,2.2,6.3,6.7,5.9c-0.6,0.8-1.2,1.6-1.7,2.4
		c-3.5-1-8.7,2.7-13.5,2.4c-2.3-0.9-4.4-2.3-6.5-3.5c-2.7-3.9,0-2.4,2.6-0.9C58.6,173.8,67.8,174,70.1,172.3z"/>
</g>
<g id="_x23_b99c85ff">
	<path class="st241" d="M97.9,174.5c1.9-1.1,4.3-1.1,6.2,0C102.2,175.8,100.2,175.8,97.9,174.5z"/>
</g>
<g id="_x23_d1b155ff">
	<path class="st242" d="M162.1,179.4c0.6,4.6,9.1-7.5,10.6-4.6c-2.2,5.5,5.7,5.8,8.4,7.3c-3.1-0.2-6.1-0.5-9.1-1.1
		c-3.8-5.1,1.1,3.4-3.7,3.3c-10.5-0.8-19.3,4.4-29.1,6.3c-2.5-2.4-7.7,3.3-3.6,3.3c-0.6,0.8-1.7,1.4-1.1,2.5
		c10.9,1.3,22.2,2.6,32.4,6.7c-0.4,4.4-6.5,5.2-9.8,7c0.3-1,0.5-1.9,0.7-2.9c-10.7-2.1-21.4-4.5-32.3-5.9c2.4-1.4,4-3.5,3.5-6.4
		c-1.8,1.3-3.5,2.8-5.3,4.1c0.3-2.6,4.3-3.9,3.5-6.5c-1.7-5.5-10.2,3.4-4.5,4.5c-2.5,1.7-0.5,2.9,1.4,4c-10.9,1.2-21.5-1.7-32-4
		c-1.8-0.9-5.7-0.9-5-3.7c4.2-1.2,8.8-1.4,12.5-3.9c1.3-0.7,2.7-1.4,3.9-2.2C123,187,142.6,180.5,162.1,179.4 M103.4,189.4
		c-1.1,0.5-4.7,0.2-2.6,2C102.2,194.1,107.2,187.4,103.4,189.4 M111.2,190.1c-1.5,0.8-1.2,2.5-1.2,3.9
		C113.5,193.9,117.3,188,111.2,190.1 M115.4,193.4c-1.5,1.7-3.3,2.7-5.5,1.7C111.4,200.1,118.7,194.7,115.4,193.4z"/>
</g>
<g id="_x23_d59947ff">
	<path class="st243" d="M185.2,174.2c2.1,0.2,4.4-0.1,6.2,1.4c-2.8,1.7-5.5,3.7-8.4,5.3C181.5,178.3,184,176.4,185.2,174.2z"/>
</g>
<g id="_x23_f2d56aff">
	<path class="st244" d="M119.2,178.4c2-0.8,3.9-2,5.8-3.1c2,0,4,0,6-0.1c2.2,1.3,4.4,2.7,7,2.7c2.5,2.9-8.3,1.6-9.4,2.7
		c-8,2.6-18.2,1.3-24.9,6.6c-1.3,0.8-2.6,1.5-3.9,2.2c-5.9-5.2-17.2-1.1-25.5-3.2c-6.2,2-12.8,5.1-19.3,2c-2.7-2.4-5.1-5-7.2-7.9
		c4,1.9,9.5,2.8,12.6-1.2c2.2,1.2,4.2,2.7,6.5,3.5c4.4,2.3,9.1,1.1,12.9-1.6C92.6,184.7,106.9,183.8,119.2,178.4z"/>
</g>
<g id="_x23_b99846ff">
	<path class="st245" d="M191.4,175.6l0.7,0.4c2.7,2.7,6.5,2.2,10.1,1.7c-1.1,7.6-10.7,11.6-16.2,16.2c-28.5,29.1-78.6,31.9-111.9,10
		c1.7,0.5,3.3,0.8,5,1.2c22.1,11.1,48.5,14.4,72.3,6.8c2-0.5,3.9-1.1,5.9-1.8c3.4-1.8,9.4-2.6,9.8-7c-10.3-4.1-21.5-5.4-32.4-6.7
		c-0.5-1.1,0.5-1.8,1.1-2.5c1.2-1.1,2.3-2.2,3.6-3.3c9.8-1.9,18.6-7,29.1-6.3c4.7,0.1-0.1-8.4,3.7-3.3
		C177.2,188.1,188.6,181.7,191.4,175.6z"/>
</g>
<g id="_x23_704919ff">
	<path class="st246" d="M66.8,182.7c4.8,0.3,10-3.5,13.5-2.4l-0.6,0.9C75.9,183.8,71.2,185,66.8,182.7z"/>
</g>
<g id="_x23_e1c05dff">
	<path class="st247" d="M54.8,188.2c6.5,3.2,13.1,0,19.3-2c8.3,2.1,19.6-2,25.5,3.2c-3.7,2.5-8.3,2.7-12.5,3.9
		c-0.7,2.8,3.2,2.8,5,3.7c10.5,2.3,21.1,5.2,32,4c0.4,0.1,1.2,0.2,1.5,0.3c10.9,1.5,21.6,3.8,32.3,5.9c-0.2,1-0.4,2-0.7,2.9
		c-1.9,0.7-3.9,1.3-5.9,1.8c-5-6.3-15.9-3.1-22.9-5.4c-17.7,0.1-35-3.7-52.5-5.6c1,1.4,2,2.8,3.1,4.2c-1.7-0.4-3.4-0.8-5-1.2
		C67.7,198.6,59.9,194.9,54.8,188.2z"/>
</g>
<g id="_x23_8d692eff">
	<path class="st248" d="M103.4,189.4c3.8-1.9-1.2,4.7-2.6,2C98.7,189.6,102.3,189.9,103.4,189.4z"/>
</g>
<g id="_x23_f3e288ff">
	<path class="st249" d="M111.2,190.1c6.1-2.2,2.3,3.8-1.2,3.9C110,192.6,109.7,190.9,111.2,190.1z"/>
</g>
<g id="_x23_f4e489ff">
	<path class="st250" d="M135.7,193.9c-4.1,0,1.1-5.8,3.6-3.3C138,191.7,136.9,192.8,135.7,193.9z"/>
</g>
<g id="_x23_f4e488ff">
	<path class="st251" d="M122.7,197c-5.7-1.1,2.8-10,4.5-4.5C125.7,194,124.2,195.4,122.7,197z"/>
</g>
<g id="_x23_8a682eff">
	<path class="st252" d="M115.4,193.4c3.3,1.3-4,6.7-5.5,1.7C112.1,196.1,113.9,195.1,115.4,193.4z"/>
</g>
<g id="_x23_9e7a38ff">
	<path class="st253" d="M122.7,197c1.4-1.6,3-3,4.5-4.5c0.8,2.6-3.2,3.9-3.5,6.5c1.8-1.3,3.5-2.8,5.3-4.1c0.5,2.9-1,5-3.5,6.4
		c-0.4-0.1-1.2-0.2-1.5-0.3C122.3,199.9,120.2,198.7,122.7,197z"/>
</g>
<g id="_x23_f7cc5fff">
	<path class="st254" d="M76,200.9c17.5,1.8,34.8,5.7,52.5,5.6c7,2.3,17.9-0.9,22.9,5.4c-23.8,7.6-50.2,4.3-72.3-6.8
		C78,203.7,76.9,202.4,76,200.9z"/>
</g>
<g id="_x23_c0984cff">
	<path class="st255" d="M54.8,202c21.2,15.7,47.1,27.5,74.2,25c24.4,0.3,46.9-10.9,66.1-24.9C157.8,237.8,92,237.5,54.8,202z"/>
</g>
<g id="_x23_eed782ff">
	<path class="st256" d="M192.6,208.8c2.3-2.1,4.7-4.2,7.3-6C198.2,205.3,196.1,209.4,192.6,208.8z"/>
</g>
<g id="_x23_ecd582ff">
	<path class="st257" d="M56.3,207.9c1.6,0.3,2.8,1.4,3.7,2.7C58.4,211.8,55.7,209.7,56.3,207.9z"/>
</g>
<g id="_x23_edd886ff">
	<path class="st258" d="M189,211.6c0.9-1.3,2.1-2.3,3.6-2.8C193.4,210.6,190.6,212.8,189,211.6z"/>
</g>
<g id="_x23_d3b87eff">
	<path class="st259" d="M115,232c7-0.1,14,0,21,0C131.7,233.3,119.2,234.3,115,232z"/>
</g>
</svg>
