<svg id="Layer_1" data-name="Layer 1" xmlns="http://www.w3.org/2000/svg" viewBox="0 0 222.39 250"><defs><style>.cls-1{fill:#060606;fill-rule:evenodd;}</style></defs><path class="cls-1" d="M13.8,185c3,1.61,7,4.08,9.87,6,1,.71,2.23,1.33,3.37,2,.62.38,1,.57,1.57,1a7.24,7.24,0,0,0,.8.52l.86.47,36.52,22.49c.52.28,1,.62,1.57,1l33.16,20.44c.38.24.52.29.85.53l15.85,9.72c.71.38,1,.86,1.8.9V126.14l-5-2.9a12.94,12.94,0,0,1-1.23-.71l-3.94-2.27c-5.6-3-10.82-6.55-16.46-9.49-.57-.29-.76-.48-1.38-.76l-5-2.89c-1.23-.76-6.83-4.13-7.82-4.37V122.3l20.59,11.9c.56.34.94.57,1.47.86a5.66,5.66,0,0,0,1.56.76v83.82c-3.6-2.42-7.45-4.6-11.15-6.83l-9-5.55c-3.66-2.47-7.59-4.51-11.25-6.93-.42-.28-.66-.38-1.09-.66l-7.92-4.89a22.7,22.7,0,0,1-2.28-1.42c-2.89-2-6-3.65-9-5.55-.81-.52-1.47-.86-2.28-1.38-4.36-2.94-9.06-5.6-13.52-8.3-.38-.24-.71-.47-1-.71l-3.47-2.14V74.67c-.66-.43-1.32-.81-2.08-1.24s-1.33-.75-2.09-1.23L16,66.13c-.81-.43-1.43-.9-2.19-1.28V185Z" transform="translate(-13.8)"/><path class="cls-1" d="M130.27,126v47.58l6.3-3.56c2.9-1.52,5.56-3.37,8.45-4.88a7.42,7.42,0,0,0,1.09-.67,12.11,12.11,0,0,1,1.14-.57v-28a3,3,0,0,0,1.18-.53c.43-.28.72-.38,1.14-.61,2.23-1.28,4.41-2.8,6.69-3.94,3.09-1.52,6-3.42,9-5.17.76-.43,1.37-.81,2.18-1.28l4.46-2.52,1.09-.66c1.95-1,3.75-2.32,5.74-3.37l2.18-1.28a12.11,12.11,0,0,1,1.14-.57l14.56-8.44c3.09-1.62,5.93-3.56,9-5.17l4.51-2.66c1.51-.9,3-1.71,4.5-2.66.81-.47,1.47-.8,2.19-1.28l2.37-1.33v81.17a4,4,0,0,0-1.43.71l-4.17,2.57c-.43.28-.76.52-1.28.85s-1,.62-1.42.9-.81.52-1.33.81l-4.22,2.51c-3.8,2.18-7.36,4.65-11.15,6.83L183,197.58c-.52.33-.81.48-1.33.81-5,3.37-10.3,6.16-15.32,9.44-.91.61-1.85,1.14-2.76,1.71l-13.89,8.53c-.43.24-.91.53-1.33.81-4.13,2.7-8.45,5-12.57,7.73l-5.65,3.47V250a16.72,16.72,0,0,0,3.32-1.9c1.14-.71,2.23-1.28,3.37-2,3.18-2.13,6.64-3.89,9.82-6,.62-.38,1.09-.71,1.66-1l8.4-5.17c.57-.33,1-.61,1.56-.95L203,205.36l1.66-1L234.49,186a16.85,16.85,0,0,1,1.71-1V65a4.5,4.5,0,0,0-1.66.85c-.62.33-1,.57-1.62.9L223,72.53c-3.37,1.81-6.5,4-9.92,5.74L186.57,93.55c-1.18.66-2.13,1.28-3.27,1.94l-4.88,2.85c-3.47,1.75-8.5,4.74-11.67,6.74-.57.38-1.05.52-1.62.9l-10.77,6.26a9.7,9.7,0,0,0-.85.52l-3.37,1.85c-2,1-3.75,2.33-5.74,3.37-.47.24-.47.33-.85.52l-3.37,1.85c-2.23,1.09-8.11,5.22-9.91,5.6Z" transform="translate(-13.8)"/><path class="cls-1" d="M20.4,56.88a6.22,6.22,0,0,1,1.66.85c2.23,1.19,4.22,2.61,6.5,3.75l18,10.44C55.17,77.13,64.09,81.78,72.72,87l1.62.9c.61.34,1,.62,1.61.9l9.82,5.7c.43.23.38.23.71.42,4.6,2.8,9.44,5.17,14,8.07l14.62,8.4c.56.33,1,.61,1.56.94,1.71,1,7.83,4.75,8.44,4.75.91,0,6.12-3.32,7.45-4.13l2.56-1.52c.86-.52,1.62-.85,2.47-1.37l2.47-1.43,5-2.94c.85-.52,1.61-.9,2.42-1.42L155,100c.48-.24.81-.47,1.23-.71a12.74,12.74,0,0,1,1.24-.71l5-2.9a11.06,11.06,0,0,1,2.65-1.42c-.14-.57-.23-.52-.71-.81L148.34,84.2c-6.4,3.37-12.48,7.31-18.83,10.77a15.74,15.74,0,0,0-1.43.9c-1,.62-1.89,1.14-2.94,1.71L115.46,92c-3.36-1.7-6.45-3.93-9.81-5.69-.76-.43-1.52-.9-2.19-1.28L83.82,73.72l-1.09-.66a11.53,11.53,0,0,0-1.14-.62L56.45,57.92a2.89,2.89,0,0,0-1.18-.57c.52-.76,1.13-.8,2-1.33s1.37-.71,2.13-1.13L81.26,43.07c.48-.28.48-.33.95-.57a8.25,8.25,0,0,0,1.14-.61,24.88,24.88,0,0,1,2.28-1.19L112.9,26a11.42,11.42,0,0,0,1.09-.67l11.1-5.93c.62,0,9,4.89,11,5.88a14.23,14.23,0,0,1,1.28.67,10.55,10.55,0,0,0,1.38.76L168.88,43c2.66,1.66,10.72,5.88,13.57,7.3,3.22,1.62,6.31,3.56,9.53,5.18l17.93,9.72c.62.33.81.43,1.38.76,2.14,1.28,2.18.19,5.65-1.71l6.4-3.65c1.14-.62,5.46-3.37,6.45-3.61-.19-.61-.76-.85-1.33-1.18L222,52.23c-3.27-1.66-6.54-3.7-9.82-5.27l-6.49-3.55c-2.23-1.14-4.46-2.19-6.55-3.51L166.32,22.2a12.28,12.28,0,0,1-1.61-.9l-13.19-7.12c-.62-.33-1-.57-1.61-.9-.34-.19-.48-.23-.76-.38L131.83,3.51C130.74,2.85,125.66,0,125.05,0s-4.18,2.18-5,2.56L82.54,22.87a18.49,18.49,0,0,0-1.66.85L54.6,37.9c-.62.34-.9.57-1.61.9l-2.37,1.29c-.48.23-.48.33-.86.52s-1.09.47-1.66.85l-5,2.71c-.66.33-1,.61-1.61.9l-7.64,4.17c-.28.14-.28.1-.52.24-1.09.61-2.23,1-3.27,1.75a18.56,18.56,0,0,1-1.66.86L21,56.17c-.57.33-.43,0-.62.71Z" transform="translate(-13.8)"/></svg>