<?xml version="1.0" encoding="UTF-8" ?>
<!DOCTYPE svg PUBLIC "-//W3C//DTD SVG 1.1//EN" "http://www.w3.org/Graphics/SVG/1.1/DTD/svg11.dtd">
<svg width="250pt" height="250pt" viewBox="0 0 250 250" version="1.1" xmlns="http://www.w3.org/2000/svg">
<g id="#ffffffff">
<path fill="#ffffff" opacity="1.00" d=" M 0.00 0.00 L 124.46 0.00 C 120.47 2.61 116.21 4.77 112.00 6.99 C 81.42 23.60 50.76 40.05 20.21 56.69 C 50.97 74.24 81.57 92.08 112.25 109.76 C 116.59 112.13 120.82 114.69 124.98 117.35 C 138.04 109.22 151.65 102.03 164.74 93.99 C 159.28 90.67 153.84 87.13 148.07 84.42 C 140.17 88.37 132.80 93.38 125.00 97.57 C 101.65 84.06 78.21 70.71 54.95 57.05 C 77.88 44.64 100.81 32.25 123.73 19.84 C 124.55 19.30 125.38 19.30 126.21 19.82 C 155.13 35.29 183.80 51.29 212.87 66.47 C 218.40 63.00 224.15 59.94 229.81 56.70 C 199.68 40.25 169.40 24.06 139.24 7.66 C 134.64 5.19 129.93 2.90 125.57 0.00 L 250.00 0.00 L 250.00 250.00 L 131.21 250.00 C 132.84 248.72 134.47 247.42 136.23 246.31 C 165.19 228.60 194.05 210.70 222.99 192.96 C 227.44 189.85 232.62 187.70 236.65 184.06 C 236.67 144.38 236.82 104.68 236.57 65.00 C 231.79 67.20 227.41 70.16 222.81 72.72 C 192.00 90.58 161.00 108.14 130.34 126.25 C 130.33 141.88 130.29 157.52 130.35 173.15 C 136.22 170.31 141.89 167.03 147.33 163.44 C 147.37 154.26 147.21 145.08 147.39 135.90 C 171.29 121.77 195.44 108.05 219.49 94.17 C 219.41 120.43 219.43 146.69 219.48 172.95 C 219.93 175.42 217.27 176.50 215.65 177.69 C 190.21 193.20 164.89 208.92 139.49 224.49 C 136.37 226.32 133.26 228.17 130.34 230.31 C 130.26 236.87 130.41 243.44 130.26 250.00 L 119.68 250.00 C 119.67 208.75 119.69 167.51 119.67 126.26 C 111.16 121.10 102.48 116.24 93.90 111.19 C 89.08 108.55 84.51 105.43 79.46 103.22 C 79.29 109.50 79.38 115.78 79.40 122.07 C 86.81 127.21 95.08 130.95 102.61 135.91 C 102.70 163.65 102.79 191.39 102.56 219.13 C 98.51 217.56 95.03 214.93 91.35 212.70 C 72.94 201.42 54.63 189.97 36.14 178.81 C 34.13 177.62 32.24 176.25 30.47 174.73 C 30.65 141.45 30.54 108.17 30.52 74.89 C 25.01 71.29 19.32 67.93 13.43 65.00 C 13.17 104.68 13.33 144.38 13.35 184.06 C 17.37 187.72 22.57 189.85 27.03 192.97 C 52.65 208.69 78.21 224.50 103.83 240.22 C 108.80 243.43 114.19 246.06 118.65 250.00 L 0.00 250.00 L 0.00 0.00 Z" />
</g>
<g id="#000000ff">
<path fill="#000000" opacity="1.00" d=" M 124.46 0.00 L 125.57 0.00 C 129.93 2.90 134.64 5.19 139.24 7.66 C 169.40 24.06 199.68 40.25 229.81 56.70 C 224.15 59.94 218.40 63.00 212.87 66.47 C 183.80 51.29 155.13 35.29 126.21 19.82 C 125.38 19.30 124.55 19.30 123.73 19.84 C 100.81 32.25 77.88 44.64 54.95 57.05 C 78.21 70.71 101.65 84.06 125.00 97.57 C 132.80 93.38 140.17 88.37 148.07 84.42 C 153.84 87.13 159.28 90.67 164.74 93.99 C 151.65 102.03 138.04 109.22 124.98 117.35 C 120.82 114.69 116.59 112.13 112.25 109.76 C 81.57 92.08 50.97 74.24 20.21 56.69 C 50.76 40.05 81.42 23.60 112.00 6.99 C 116.21 4.77 120.47 2.61 124.46 0.00 Z" />
<path fill="#000000" opacity="1.00" d=" M 13.43 65.00 C 19.32 67.93 25.01 71.29 30.52 74.89 C 30.54 108.17 30.65 141.45 30.47 174.73 C 32.24 176.25 34.13 177.62 36.14 178.81 C 54.63 189.97 72.94 201.42 91.35 212.70 C 95.03 214.93 98.51 217.56 102.56 219.13 C 102.79 191.39 102.70 163.65 102.61 135.91 C 95.08 130.95 86.81 127.21 79.40 122.07 C 79.38 115.78 79.29 109.50 79.46 103.22 C 84.51 105.43 89.08 108.55 93.90 111.19 C 102.48 116.24 111.16 121.10 119.67 126.26 C 119.69 167.51 119.67 208.75 119.68 250.00 L 118.65 250.00 C 114.19 246.06 108.80 243.43 103.83 240.22 C 78.21 224.50 52.65 208.69 27.03 192.97 C 22.57 189.85 17.37 187.72 13.35 184.06 C 13.33 144.38 13.17 104.68 13.43 65.00 Z" />
<path fill="#000000" opacity="1.00" d=" M 222.81 72.72 C 227.41 70.16 231.79 67.20 236.57 65.00 C 236.82 104.68 236.67 144.38 236.65 184.06 C 232.62 187.70 227.44 189.85 222.99 192.96 C 194.05 210.70 165.19 228.60 136.23 246.31 C 134.47 247.42 132.84 248.72 131.21 250.00 L 130.26 250.00 C 130.41 243.44 130.26 236.87 130.34 230.31 C 133.26 228.17 136.37 226.32 139.49 224.49 C 164.89 208.92 190.21 193.20 215.65 177.69 C 217.27 176.50 219.93 175.42 219.48 172.95 C 219.43 146.69 219.41 120.43 219.49 94.17 C 195.44 108.05 171.29 121.77 147.39 135.90 C 147.21 145.08 147.37 154.26 147.33 163.44 C 141.89 167.03 136.22 170.31 130.35 173.15 C 130.29 157.52 130.33 141.88 130.34 126.25 C 161.00 108.14 192.00 90.58 222.81 72.72 Z" />
</g>
</svg>
