<?xml version="1.0" encoding="utf-8"?>
<!-- Generator: Adobe Illustrator 26.0.3, SVG Export Plug-In . SVG Version: 6.00 Build 0)  -->
<svg version="1.1" id="Layer_1" xmlns="http://www.w3.org/2000/svg" xmlns:xlink="http://www.w3.org/1999/xlink" x="0px" y="0px"
	 viewBox="0 0 250 250" style="enable-background:new 0 0 250 250;" xml:space="preserve">
<style type="text/css">
	.st0{fill:#F396C2;}
	.st1{fill:#E2357D;}
	.st2{fill:#811946;}
	.st3{fill:#0A0407;}
	.st4{fill:#8B1E43;}
	.st5{fill:#AE2C5F;}
	.st6{fill:#F5A2C6;}
	.st7{fill:#F071A8;}
	.st8{fill:#F44D94;}
	.st9{fill:#1B0108;}
	.st10{fill:#7B153E;}
	.st11{fill:#561328;}
	.st12{fill:#380511;}
	.st13{fill:#7E1640;}
	.st14{fill:#7C193F;}
	.st15{fill:#333233;}
	.st16{fill:#6B171A;}
	.st17{fill:#7F7842;}
	.st18{fill:#231D0B;}
	.st19{fill:#811A40;}
	.st20{fill:#313132;}
	.st21{fill:#0E0F0E;}
	.st22{fill:#6F7070;}
	.st23{fill:#373738;}
	.st24{fill:#3C3D3D;}
	.st25{fill:#CCAF45;}
	.st26{fill:#962D54;}
	.st27{fill:#848647;}
	.st28{fill:#580D2A;}
	.st29{fill:#E59BBD;}
	.st30{fill:#39393A;}
	.st31{fill:#181A1B;}
	.st32{fill:#D84180;}
	.st33{fill:#E7A1BE;}
	.st34{fill:#555658;}
	.st35{fill:#846820;}
	.st36{fill:#3A2D12;}
	.st37{fill:#F0B6CD;}
	.st38{fill:#73591A;}
	.st39{fill:#6C7D3F;}
	.st40{fill:#7F153C;}
	.st41{fill:#6C4A1C;}
	.st42{fill:#F5C528;}
	.st43{fill:#3C4040;}
	.st44{fill:#F184B3;}
	.st45{fill:#F3D98C;}
	.st46{fill:#4F5D35;}
	.st47{fill:#A17231;}
	.st48{fill:#245B6F;}
	.st49{fill:#79BBD0;}
	.st50{fill:#3C3118;}
	.st51{fill:#2DA4D6;}
	.st52{fill:#282828;}
	.st53{fill:#781A41;}
	.st54{fill:#7E6934;}
	.st55{fill:#B17929;}
	.st56{fill:#925208;}
	.st57{fill:#C28E44;}
	.st58{fill:#D88B18;}
	.st59{fill:#A5A490;}
	.st60{fill:#4A252F;}
	.st61{fill:#806C74;}
	.st62{fill:#106381;}
	.st63{fill:#353A3D;}
	.st64{fill:#B5973A;}
	.st65{fill:#EF96B9;}
	.st66{fill:#474647;}
	.st67{fill:#162329;}
	.st68{fill:#132026;}
	.st69{fill:#495665;}
	.st70{fill:#B5DD76;}
	.st71{fill:#E7B0BF;}
	.st72{fill:#707172;}
	.st73{fill:#75B1CA;}
	.st74{fill:#4E5658;}
	.st75{fill:#85C7DF;}
	.st76{fill:#727273;}
	.st77{fill:#F382B5;}
	.st78{fill:#D58C18;}
	.st79{fill:#2AA7D6;}
	.st80{fill:#2CA4D0;}
	.st81{fill:#688053;}
	.st82{fill:#EDC876;}
	.st83{fill:#B06175;}
	.st84{fill:#7C1A3E;}
	.st85{fill:#18617D;}
	.st86{fill:#BC843A;}
	.st87{fill:#166683;}
	.st88{fill:#241D0D;}
	.st89{fill:#789C46;}
	.st90{fill:#EFA0C2;}
	.st91{fill:#512D0E;}
	.st92{fill:#B6AB71;}
	.st93{fill:#B32261;}
	.st94{fill:#761639;}
	.st95{fill:#70B0C7;}
	.st96{fill:#881B45;}
	.st97{fill:#D28416;}
	.st98{fill:#DA668E;}
	.st99{fill:#56595B;}
	.st100{fill:#893F42;}
	.st101{fill:#CDBF9A;}
	.st102{fill:#1A5F7D;}
	.st103{fill:#28A4D6;}
	.st104{fill:#6A6E26;}
	.st105{fill:#3A3B3C;}
	.st106{fill:#F39AC2;}
	.st107{fill:#75163C;}
	.st108{fill:#A7B85D;}
	.st109{fill:#E8C3C8;}
	.st110{fill:#EF9BBF;}
	.st111{fill:#711320;}
	.st112{fill:#719B3C;}
	.st113{fill:#362E15;}
	.st114{fill:#49330F;}
	.st115{fill:#E1D37F;}
	.st116{fill:#340414;}
	.st117{fill:#6B1536;}
	.st118{fill:#E09E28;}
	.st119{fill:#1B1C1D;}
	.st120{fill:#DEBB3D;}
	.st121{fill:#F08BB6;}
	.st122{fill:#ACC167;}
	.st123{fill:#7F5A1F;}
	.st124{fill:#924F3E;}
	.st125{fill:#A55551;}
	.st126{fill:#79193F;}
	.st127{fill:#E5C96B;}
	.st128{fill:#9D2355;}
	.st129{fill:#F1C42B;}
	.st130{fill:#D4B137;}
	.st131{fill:#D3891C;}
	.st132{fill:#CA851E;}
	.st133{fill:#862F4A;}
	.st134{fill:#95550C;}
	.st135{fill:#77183F;}
	.st136{fill:#474849;}
	.st137{fill:#B28754;}
	.st138{fill:#121212;}
	.st139{fill:#775524;}
	.st140{fill:#BF8022;}
	.st141{fill:#887D26;}
	.st142{fill:#B62C38;}
	.st143{fill:#333434;}
	.st144{fill:#343436;}
	.st145{fill:#C7B249;}
	.st146{fill:#AF524F;}
	.st147{fill:#757231;}
	.st148{fill:#2C2C2D;}
	.st149{fill:#5D7341;}
	.st150{fill:#2A2A2A;}
	.st151{fill:#9A7434;}
	.st152{fill:#7A983C;}
	.st153{fill:#976344;}
	.st154{fill:#6D1638;}
	.st155{fill:#9C1025;}
	.st156{fill:#F595BD;}
	.st157{fill:#343335;}
	.st158{fill:#5A051B;}
	.st159{fill:#AEC062;}
	.st160{fill:#6E632D;}
	.st161{fill:#F193B9;}
	.st162{fill:#EE96BB;}
	.st163{fill:#280613;}
	.st164{fill:#53320D;}
	.st165{fill:#6A8338;}
	.st166{fill:#881D47;}
	.st167{fill:#322B11;}
	.st168{fill:#DED68E;}
	.st169{fill:#BD724C;}
	.st170{fill:#C37D4F;}
	.st171{fill:#723526;}
	.st172{fill:#B76436;}
	.st173{fill:#C61C45;}
	.st174{fill:#D6B536;}
	.st175{fill:#907826;}
	.st176{fill:#6E4616;}
	.st177{fill:#D2AE33;}
	.st178{fill:#EABC33;}
	.st179{fill:#930D37;}
	.st180{fill:#965D12;}
	.st181{fill:#E7C06F;}
	.st182{fill:#F09CBF;}
	.st183{fill:#8F7748;}
	.st184{fill:#C07E1F;}
	.st185{fill:#7E392B;}
	.st186{fill:#8C7130;}
	.st187{fill:#D18921;}
	.st188{fill:#67042A;}
	.st189{fill:#64848D;}
	.st190{fill:#A16442;}
	.st191{fill:#82A9B3;}
	.st192{fill:#977318;}
	.st193{fill:#5E7981;}
	.st194{fill:#3A535A;}
	.st195{fill:#0B1318;}
	.st196{fill:#6A828A;}
	.st197{fill:#975E1D;}
	.st198{fill:#92530F;}
	.st199{fill:#09070B;}
	.st200{fill:#985A0D;}
	.st201{fill:#F68DBB;}
	.st202{fill:#42555D;}
	.st203{fill:#F2A4C1;}
	.st204{fill:#8EAEBB;}
	.st205{fill:#6D96A5;}
	.st206{fill:#41545E;}
	.st207{fill:#0F1115;}
	.st208{fill:#698690;}
	.st209{fill:#5C7983;}
	.st210{fill:#634628;}
	.st211{fill:#465964;}
	.st212{fill:#40505C;}
	.st213{fill:#96580B;}
	.st214{fill:#678084;}
	.st215{fill:#0A1117;}
	.st216{fill:#080F11;}
	.st217{fill:#0C181D;}
	.st218{fill:#0E1015;}
	.st219{fill:#334D58;}
	.st220{fill:#6B1533;}
	.st221{fill:#876740;}
	.st222{fill:#243536;}
	.st223{fill:#660B1E;}
	.st224{fill:#3D4F57;}
	.st225{fill:#45555B;}
	.st226{fill:#7D183C;}
	.st227{fill:#7198A7;}
	.st228{fill:#16404F;}
	.st229{fill:#6E9BAC;}
	.st230{fill:#495965;}
	.st231{fill:#0B1215;}
	.st232{fill:#14212A;}
	.st233{fill:#163E4D;}
	.st234{fill:#485C5D;}
	.st235{fill:#152932;}
	.st236{fill:#699DB0;}
	.st237{fill:#15394C;}
	.st238{fill:#EAA9C5;}
	.st239{fill:#183E4E;}
	.st240{fill:#175772;}
	.st241{fill:#851C43;}
	.st242{fill:#15475A;}
	.st243{fill:#2A363E;}
	.st244{fill:#1B6184;}
	.st245{fill:#2A424B;}
	.st246{fill:#4D6772;}
	.st247{fill:#1B6880;}
	.st248{fill:#186885;}
	.st249{fill:#167190;}
	.st250{fill:#1C6883;}
	.st251{fill:#156082;}
	.st252{fill:#13617C;}
	.st253{fill:#8F1947;}
	.st254{fill:#4F6C77;}
	.st255{fill:#6DB5D0;}
	.st256{fill:#26A2D2;}
	.st257{fill:#4E656F;}
	.st258{fill:#CF286C;}
	.st259{fill:#8F1F4D;}
	.st260{fill:#233037;}
	.st261{fill:#F092B8;}
	.st262{fill:#74183C;}
	.st263{fill:#881240;}
	.st264{fill:#84A7B1;}
	.st265{fill:#841540;}
	.st266{fill:#617E8A;}
	.st267{fill:#678188;}
	.st268{fill:#6B8B95;}
	.st269{fill:#5C7B89;}
	.st270{fill:#0F181B;}
	.st271{fill:#1A0D17;}
	.st272{fill:#EC7AAB;}
	.st273{fill:#7B1C3E;}
	.st274{fill:#4A5C63;}
	.st275{fill:#67858F;}
	.st276{fill:#4A5D62;}
	.st277{fill:#4C5C61;}
	.st278{fill:#384B4F;}
	.st279{fill:#6E1332;}
	.st280{fill:#08080B;}
	.st281{fill:#112027;}
	.st282{fill:#101F28;}
	.st283{fill:#0E161B;}
	.st284{fill:#0F1B22;}
	.st285{fill:#37464D;}
	.st286{fill:#F0A3C3;}
	.st287{fill:#445B62;}
	.st288{fill:#1F282F;}
	.st289{fill:#425761;}
	.st290{fill:#5C1630;}
	.st291{fill:#2D3E49;}
	.st292{fill:#20262D;}
	.st293{fill:#465B65;}
	.st294{fill:#445962;}
	.st295{fill:#A92F64;}
	.st296{fill:#EEABC8;}
	.st297{fill:#152C38;}
	.st298{fill:#80193F;}
	.st299{fill:#174456;}
	.st300{fill:#18506B;}
	.st301{fill:#66A1B7;}
	.st302{fill:#EE96BC;}
	.st303{fill:#771638;}
	.st304{fill:#145671;}
	.st305{fill:#195970;}
	.st306{fill:#1E5D78;}
	.st307{fill:#18566E;}
	.st308{fill:#374C57;}
	.st309{fill:#156F8F;}
	.st310{fill:#EF97BD;}
	.st311{fill:#1B7494;}
	.st312{fill:#253438;}
	.st313{fill:#AA265A;}
	.st314{fill:#2095C3;}
	.st315{fill:#8E1D48;}
	.st316{fill:#841A42;}
	.st317{fill:#691234;}
	.st318{fill:#F197BC;}
	.st319{fill:#7F0F3C;}
	.st320{fill:#5A0726;}
	.st321{fill:#7A103B;}
	.st322{fill:#63062A;}
	.st323{fill:#AB1E56;}
	.st324{fill:#EE9ABE;}
	.st325{fill:#8B1E48;}
	.st326{fill:#EF98B9;}
	.st327{fill:#EF96B8;}
	.st328{fill:#EE98BD;}
	.st329{fill:#F29DBD;}
	.st330{fill:#4A0A1F;}
	.st331{fill:#A31D54;}
	.st332{fill:#F096BA;}
	.st333{fill:#F36EAA;}
</style>
<g id="_x23_f396c2ff">
	<path class="st0" d="M63.3,0H66c-0.8,1.5-2.5,2.2-4.1,1.9C62.3,1.4,62.9,0.5,63.3,0z"/>
</g>
<g id="_x23_e2357dff">
	<path class="st1" d="M66,0h24.6c3,1.6,5.8,3.6,8,6.2l0.5,0.7c16.6,2.1,34.9,1.3,52.1,0.4c0.4-0.1,1.3-0.2,1.8-0.3
		c13.3-1.5,26.3,0.7,39.3,2.7c9.9,3,19,8.3,26.9,15c1.8,2.3,3.7,4.4,5.8,6.4c4.4,5.1,7.9,10.9,11.1,16.8c-0.3,1.6,0.5,3.2,1.9,4.1
		c3.6,6.5,5.8,13.8,8.1,20.8c-0.2,3.5,0.6,6.9,2,10.1c0.4,5.5,0,11.3,1.9,16.6v9c-1,5.1-1.6,10.2-2.1,15.4c-1.4,2.9-2,6-1.9,9.2
		c-0.7,1.9-1.4,3.8-2.1,5.7c-1.8,2.4-2.6,5.2-3.1,8.1c-1.8,3.7-3.9,7.3-6,10.9c-1.7,2.4-3.3,4.8-4.8,7.2c-3.3,4.1-6.5,8.2-10.8,11.3
		c-0.8,2.5,2,4.4,2.9,6.5c0.6,5.4,0.9,10.8,0.9,16.2c-1.3,3.3-2.5,6.7-4,10c-2.9,2.5-6.2,4.6-9,7.2c-3.1,5.2-4.2,11.3-7,16.7
		c-2.1,2.4-4.1,4.8-6.1,7.2c-0.5,0.2-1.4,0.8-1.9,1c-5.1,0-10.2-0.1-15.3,0c-1.7-0.8-3.2-2-4.7-3.2c-0.8-1.9-4.2-8.8-5.1-4.2
		c-1,1.4-2.1,2.8-3.2,4.2c-2.1,0.1-3.7,1.5-4.7,3.3c-6.1,1-12.4-1.8-18.3-0.3c-5,0.1-9.9,0.2-14.9,0c-6.1-2-12.8,0.9-19.1,0.1
		c-4.1,0.6-9.6-1.5-12.2,2.9c-0.9,0.8-1.8,1.5-2.7,2.2c-1.7-0.3-3.3,0.5-4.1,1.9c-1.3,0.4-2.5,0.8-3.8,1.1
		c-6.6,0.3-13.1-0.2-19.6-1.4c-0.4-0.2-1.2-0.5-1.6-0.7c-2-2.1-4-4.2-6.1-6.1c-1.2-1.8-2.4-3.7-3.3-5.7c-0.5-6.8-1-13.7,0.2-20.4
		c1.2-2.9,2.4-5.7,3.4-8.7c0.5-1.3,0.7-2.7,0.8-4c-6.5-0.2-13-0.3-19.4-0.8c-1.2-0.7-2.4-1.5-3.6-2.2c-1.9-2.1-3.9-4.2-6-6.2
		c-1.3-2.5-2.4-5-3.2-7.7c-0.1-3.6,2.2-11-3.9-10.3c-13.2-1.9-19.6-14.3-23-25.7c0.2-3.7-0.6-7.2-1.9-10.7v-17.1
		c1-4.1,1.7-8.3,2.1-12.5c1.5-1.3,1.3-3.4,0.7-5c2.9-9.4,5.7-18.8,9.3-27.9c1.6-1.2,2.4-3.1,1.8-5c0.4-1,0.9-2,1.3-2.9
		c1.4-1.3,2.2-3.1,1.7-5.1C22.5,51.4,27.4,39.4,35,29c1.7-0.6,3-2,3.2-3.8c2.3-3,4.6-6.1,7.9-8.1c6.5-3.8,9.7-11,15.9-15.2
		C63.6,2.2,65.2,1.5,66,0 M65.1,5c-0.5,0.3-1.4,0.8-1.9,1.1c-3.2-0.4-5.5,3.3-6.1,6c-0.8,0.8-1.5,1.8-1.9,2.9
		c-1.7,1.2-4.9,1.9-4.9,4.3c-0.3,0.2-0.8,0.6-1,0.8c-4.2,0.6-7.7,5.4-9.1,9.2c-1.8-0.6-3.9,2.1-2.7,3.7C35.6,34.8,34,37,33,39.3
		c-2.1-0.3-3.5,3-2.6,4.7c-2.6,3.1-4,7.1-5.4,10.9c-2.3,1.1-3.3,3.8-2.9,6.3c-0.9,1.6-2.2,3.1-2.1,5c-1.9,0.1-2.7,3.4-1.7,4.9
		c-2,0-3.1,3.2-2,4.8C15,77.7,14.2,80,14,82.3c-1.9,0.1-2.7,3.4-1.7,4.9c-2,0-3.1,3.3-1.9,4.8l-0.3,0.8c-2.5,2.1-3.2,7.1-2.8,10.5
		c-2.4,0.5-2.3,6.3-2.1,9l-0.2,0.8c-3.6,8.3-3.8,24.3,0.1,33.1l0.3,0.9c-1.1,1.6-0.2,5.2,1.7,5.5c-0.4,2.4,0.5,5.5,3,6.4
		c0.2,0.4,0.7,1.4,1,1.8c0.4,4.1,5.1,7.6,9.1,8c0.4,0.2,1.4,0.8,1.8,1c0.2,1.8,2.8,1.3,4.1,1.8c9.8-3.5,1.6,9.8,5.9,11.3
		c0,1.2,0.4,2.2,1.3,3.1c-1.3,1.2-0.1,4.4,1.8,3.6c-0.3,2.7,2.4,5.1,4.9,5.4c0.5,0.2,1.4,0.7,1.9,1c0.7,1.2,1.5,2.4,3.1,2
		c5,2.5,14.4,0.3,20.9,1c-0.4,1.8-0.8,3.6-0.7,5.5c-2.4-0.1-3.1,3.8-1.7,5.4c-2.4,1.2-3.8,4.8-3.1,7.4c-0.4,1-0.9,2-1.3,3
		c-2.4,0.4-1.9,12.3,1.1,13.4c1.9,4.4,5.3,8.5,9.8,10.3c0.5,0.2,1.5,0.8,1.9,1c2.1,1.8,12.9,1.8,15,0c0.5-0.2,1.5-0.8,2-1
		c1.2,0,2.3-0.4,3.1-1.3c1.8,1.4,5.2-0.7,4.4-2.9c0.3-0.3,0.9-0.8,1.2-1c8.8-1.7,20.1,0.6,27.3-1.8c0.2-0.2,0.8-0.8,1-1
		c0.7,0,2.2,0,2.9,0c4.1,3.3,12.3,2.4,16.1,0c0.5,0,1.5,0,1.9,0c2.1,1.8,12.9,1.8,15,0c2.3,0.6,3-1.9,3.8-3.5
		c2.2,0.6,3.8-2.9,2.7-4.6c1.1-1.6,2.2-3.8,4.6-2.7c-0.7,1.7-0.6,5.4,1.8,5.4c0.6,1.7,2.1,2.8,3.2,4.2c3.1,4.6,13.1,4.7,16.9,1.1
		c0.4-0.4,1.3-1.1,1.7-1.5c1.8,0.9,4.1-1.9,2.9-3.5c3.5-6.2,4.5-13.7,8.5-19.7c4.6,0,8.3-3.7,8.8-8.2c4.4-4.6,4-12.8,1.8-17.9
		c0.3-2.6-2.5-5.3-5.1-5.1l-0.8-0.1c-0.1-1.9-4.2-0.3-2.1-3.2c1.9-0.6,3.6-1.5,4.9-3c3.9-0.2,6.7-4.6,8.2-7.9
		c11.1-12.5,18.3-28.5,21-44.9c3.5-9.7,3.1-24.5-0.1-34.2l-0.1-1c0.6-4-0.9-7.9-1.8-11.7c-0.3-2.8-0.8-6.1-2.8-8
		c-5.9-15.7-14.2-33.2-28.8-41.8c-4.7-4.5-11.2-7.2-17.3-9.1c-2.9-2.9-8.5-2.6-12.3-3c-1.9-0.6-3.8-1.3-5.8-1.1
		c-5.2-3.1-16.2,0.2-23-0.9c-16.3-0.2-32.7,0-49,0c-4.9,2.2-7.1-3-11.1-4c-1-0.4-2-0.7-3-1C84.4,3.2,70.7,3.3,65.1,5z"/>
</g>
<g id="_x23_811946ff">
	<path class="st2" d="M65.1,5c5.6-1.7,19.3-1.8,24.8,0C81.6,5,73.3,4.9,65.1,5z"/>
</g>
<g id="_x23_0a0407ff">
	<path class="st3" d="M63.2,6.1c0.5-0.3,1.4-0.8,1.9-1.1c8.3-0.1,16.6,0,24.8,0c1,0.3,2,0.6,3,1c0.2,0.5,0.8,1.5,1,1.9
		c1.1,3.3,4,6.4,8.1,5.1c15.1,2.9,30.6,2.8,45.8,5.1c0.2,1.6,0.3,3.3,0.3,4.9c-1.3,2.2-2.8,4.4-3.2,7c-0.7,1-1.4,1.9-2.1,2.9
		c-0.6,0.8-1.2,1.7-1.8,2.5c-0.5-1.2-1-2.4-1.5-3.7c1.3-3,3.8-5.5,4.5-8.8c-12.4-2.5-29-0.3-43-1.1c-8.3,0.7-19-1.4-25.9,1
		c0,0.4-0.1,1.4-0.2,1.8c-0.3,0.4-0.9,1.1-1.2,1.5C59.6,20.8,45.2,33.7,42,47c-1.2,0.6-3.2,0.3-4,1.5c-0.5,0.9-0.8,1.9-1.2,2.8
		c-10.5,21.1-19.4,43.2-23.9,66.4C11,130.5,11.5,145.6,20,156c9.5,5.6,21.2-3.4,27.1-10.9c-2.6-3.1-7.1-7.5-3.8-11.8
		c0.8-1.9,2.4-0.8,3.5,0.1l0.6,0.4c0.3,0.3,1,0.8,1.4,1.1c1.6,2.3,3.3,4.5,4.8,6.8c-2.7,12.2-12.8,23.7-10.8,36.4
		c1.2,1.5,2.5,2.9,4.1,4c4.3,1.3,9,1.2,13.4,0.2c0.4,0,1.1,0,1.4,0c0.3,0.2,1,0.5,1.3,0.7c4.1,1.7,8.7,0.8,13,0.1
		c0.3,0.3,0.8,0.8,1.1,1.1c8.7,6.3-2.7,15.5-2.9,23.7c-2.9,6.1-6.9,14.9-1.8,20.8c8.9,3.9,19.7,1.2,25.4-6.8
		c3.3-0.1,10.3,3.7,11.5-0.7c1-2.5,1.2-5.6,3.5-7.3c1,2.6,0.7,5.8,2.6,8c2.9,0.1,5.8,0.3,8.7,0c0.7-4.4-1.8-8.3-1.8-12.6
		c3.1-1.8,6.7-3.2,8.9-6.3c2.5-2.7,2,1.5,2.9,3.7c5.8,3.2-0.3,9.5-0.9,14.1c4.6,2.7,12,1.9,11.8-4.9c0.2-6.8,7-7.5,11.2-11
		c-0.9,5.9-4.4,11-5.3,16.9c9.7,3.8,12.3-5.7,14.6-12.6c8.6,1.9,17.2-2.9,19.3-11.6c0.4-3.8,5.9,0.8,7.4-0.6c-1.4,8-6.1,15.1-7.9,23
		c-1.9,4.4,6.1,1.4,8.6,1.7c4.7-7.4,6.2-16.3,9.9-24.1c5.3,1.1,8.5-1.9,9.6-6.5c0.4-1.4,0.6-2.8,0.9-4.2c6.8,1.7,5.3,11,3.8,16.1
		c-0.5,4.5-4.3,8.1-8.8,8.2c-4,6-5,13.5-8.5,19.7c-1.3,0.9-2.3,2.1-2.9,3.5c-0.4,0.4-1.3,1.1-1.7,1.5c-5.6-0.2-11.5,0.9-16.9-1.1
		c-1.1-1.3-2.6-2.5-3.2-4.2c-0.7-1.7-0.1-4.5-1.8-5.4c-2.4-1.1-3.5,1.1-4.6,2.7c-1.3,1.2-2.2,2.9-2.7,4.6c-0.8,1.6-1.5,4.1-3.8,3.5
		c-5,0-10-0.1-15,0c-0.5,0-1.5,0-1.9,0c-5.4,0-10.8-0.1-16.1,0c-0.7,0-2.2,0-2.9,0c-8.7,0.3-17.7-1-26.1,0.9
		c-0.8,0.6-1.5,1.2-2.2,1.9c-0.3,0.3-0.9,0.8-1.2,1c-1.6,0.8-3,1.8-4.4,2.9c-0.9,0.9-1.9,1.3-3.1,1.3c-6.3,0-12.6,0-19,0
		c-4.5-1.8-7.9-5.9-9.8-10.3c-0.8-4.4-1.4-8.9-1.1-13.4c0.4-1,0.8-2,1.3-3c1.2-2.4,2.3-4.9,3.1-7.4c0.7-1.8,1.4-3.6,1.7-5.4
		c1.1-2.3,2.3-4.7,1.8-7.4c-8.4-0.4-16.9,0.6-25.1-1.1c-0.5-0.2-1.4-0.7-1.9-1c-1.4-2-3.1-3.7-4.9-5.4c-0.3-1.3-0.9-2.6-1.8-3.6
		c-0.9-0.8-1.3-1.9-1.3-3.1c0-3.9,0-7.9-0.1-11.8c-3.3-0.6-6.6-0.9-9.9-1.3c-0.5-0.2-1.4-0.8-1.8-1c-3-2.7-6.1-5.3-9.1-8
		c-0.2-0.4-0.7-1.4-1-1.8c-0.8-2.2-1.9-4.4-3-6.4c0.1-2-0.5-3.9-1.7-5.5l-0.3-0.9c-1.3-11-2-22.2-0.1-33.1l0.2-0.8
		c0.9-3,1.6-6,2.1-9c1-3.5,1.9-7,2.8-10.5l0.3-0.8c0.9-1.5,1.7-3.1,1.9-4.8c1-1.5,1.8-3.1,1.7-4.9c0.2-2.3,1-4.5,2.3-6.3
		c1.1-1.4,1.8-3,2-4.8c1-1.5,1.9-3.1,1.7-4.9c-0.1-1.9,1.2-3.5,2.1-5c1.3-1.9,2.3-4.1,2.9-6.3c1.4-3.8,2.7-7.8,5.4-10.9
		c1.5-1.2,2.2-2.9,2.6-4.7c1-2.4,2.6-4.5,4.3-6.3c1.3-0.9,2.4-2.1,2.7-3.7c3-3.1,6.2-6.1,9.1-9.2c0.3-0.2,0.8-0.6,1-0.8
		c2.1-0.9,4.4-1.8,4.9-4.3c0.5-1.1,1.1-2,1.9-2.9C59.2,10.2,61.2,8.2,63.2,6.1 M66.2,16.1c-0.9,1.2-1.6,2.6-2.2,3.9
		c8.6-0.9,17.3-1.4,26-1.1c0-0.7,0-2.2,0-2.9C82.1,15.8,74.1,16,66.2,16.1z"/>
</g>
<g id="_x23_8b1e43ff">
	<path class="st4" d="M57.1,12.2c0.6-2.8,2.8-6.4,6.1-6C61.2,8.2,59.2,10.2,57.1,12.2z"/>
</g>
<g id="_x23_ae2c5fff">
	<path class="st5" d="M92.9,6c4,1,6.2,6.2,11.1,4c16.3,0.1,32.7-0.2,49,0L153,11c-18.4,0-36.8-0.1-55.2,0.1c-1.4-0.9-2.7-2.1-4-3.1
		C93.7,7.5,93.1,6.5,92.9,6z"/>
</g>
<g id="_x23_f5a2c6ff">
	<path class="st6" d="M98.7,6.2C116.8,5.7,134.9,6.1,153,6v1c-0.4,0.1-1.3,0.2-1.8,0.3c-17.4-0.7-34.7-0.1-52.1-0.4L98.7,6.2z"/>
</g>
<g id="_x23_f071a8ff">
	<path class="st7" d="M153,6C166.1,6,179.8,5,192.3,9.7c-13-2-25.9-4.2-39.3-2.7V6z"/>
</g>
<g id="_x23_f44d94ff">
	<path class="st8" d="M99.2,6.9c17.4,0.3,34.7-0.3,52.1,0.4C134.1,8.2,115.8,9,99.2,6.9z"/>
</g>
<g id="_x23_1b0108ff">
	<path class="st9" d="M93.9,8c1.3,1.1,2.6,2.2,4,3.1c18.1,2,36.8,0.4,55.1,0.9c9.1-0.6-4.2,2.9-3.1,8.1c-0.6,1-1.2,2-1.8,3
		c0-1.6-0.1-3.3-0.3-4.9c-15.2-2.3-30.7-2.2-45.8-5.1C97.9,14.4,95,11.3,93.9,8z"/>
</g>
<g id="_x23_7b153eff">
	<path class="st10" d="M153,10.1c6.8,1.1,17.8-2.2,23,0.9c-7.7,0-15.3,0-23,0L153,10.1z"/>
</g>
<g id="_x23_561328ff">
	<path class="st11" d="M97.9,11.1c18.4-0.2,36.8-0.1,55.2-0.1l0,1C134.6,11.5,116,13.1,97.9,11.1z"/>
</g>
<g id="_x23_380511ff">
	<path class="st12" d="M153,11c7.7,0,15.3,0,23,0c2-0.1,3.9,0.5,5.8,1.1c4,1.2,8.1,2.6,12.3,3c6.2,1.8,12.6,4.6,17.3,9.1
		c-0.6,0.2-1.9,0.6-2.5,0.8l-0.8-0.4c-2.5-2.1-11.8-2.6-6.4,0.6c5.1,2.1-6.3-1.1-5.9,2.5c-4.7-3-9.6-5.7-14.1-9
		c-3.7,1.1-7.5,0.4-11.2,0.3c-5-5.1-14.4-0.7-20.6,1c-1.1-5.2,12.1-8.6,3.1-8.1L153,11z"/>
</g>
<g id="_x23_7e1640ff">
	<path class="st13" d="M181.8,12.1c3.8,0.4,9.4,0.1,12.3,3C189.9,14.7,185.8,13.3,181.8,12.1z"/>
</g>
<g id="_x23_7c193fff">
	<path class="st14" d="M50.2,19.3c0.1-2.4,3.3-3.1,4.9-4.3C54.6,17.5,52.3,18.4,50.2,19.3z"/>
</g>
<g id="_x23_333233ff">
	<path class="st15" d="M66.2,16.1c7.9-0.1,15.9-0.3,23.8,0c0,0.7,0,2.1,0,2.9c-8.7-0.3-17.4,0.2-26,1.1
		C64.6,18.7,65.2,17.3,66.2,16.1z"/>
	<path class="st15" d="M41.1,49.1c4.6,1.9,1,12.7,1.8,18.1C38.5,62.8,40.2,54.8,41.1,49.1z"/>
</g>
<g id="_x23_6b171aff">
	<path class="st16" d="M149.9,20c6.2-1.7,15.6-6.1,20.6-1c-0.4,0.1-1.1,0.4-1.5,0.5c-1.7-4.1-11.3-0.2-10.2,3.9
		c-1.2,0.5-2.4,0.8-3.7,1.2c-4.4-1.6-7.1,3.4-10.3,5.5c0.4-2.6,1.9-4.8,3.2-7C148.8,22.1,149.4,21.1,149.9,20z"/>
</g>
<g id="_x23_7f7842ff">
	<path class="st17" d="M158.9,23.4c-1-4.1,8.5-7.9,10.2-3.9C165.6,20.6,162.2,22,158.9,23.4z"/>
</g>
<g id="_x23_231d0bff">
	<path class="st18" d="M170.6,19c3.8,0,7.6,0.8,11.2-0.3c4.5,3.3,9.4,5.9,14.1,9c0.6,1.6,1.9,3.9-0.9,3.6c-8.4-8.4-22.6-11.5-33-5.2
		c-13.4,9.4-19.9,26.7-17.7,42.7c0.3,3.5-0.9,5.6-3.4,2.2c-0.1-6.6,0.1-13.3,1.5-19.8c1.1-4.2,2.7-8.2,3.6-12.4
		c-2.3,2.5-3.8,5.6-4.9,8.8c-2.4,7.1-3.5,14.6-2.8,22.1c-0.8,2.3,1.7,9.4-2.2,7.5c-1.2-6-1.1-12.1-0.9-18.2c1.2-1.3,1.3-3.2,1.1-5
		c1.9-6.5,4.4-12.9,7.7-18.8c3.3-4,6.7-8.2,11.3-10.7c1.2-0.4,2.5-0.7,3.7-1.2c3.4-1.4,6.7-2.8,10.2-3.9
		C169.5,19.4,170.2,19.1,170.6,19z"/>
</g>
<g id="_x23_811a40ff">
	<path class="st19" d="M40.1,29.4c1.4-3.8,4.9-8.6,9.1-9.2C46.2,23.3,43.1,26.3,40.1,29.4z"/>
</g>
<g id="_x23_313132ff">
	<path class="st20" d="M75.2,23c6.9-2.4,17.6-0.4,25.9-1l0.2,0.9C92.6,23,83.9,23,75.2,23z"/>
</g>
<g id="_x23_0e0f0eff">
	<path class="st21" d="M101.1,22c14,0.7,30.6-1.4,43,1.1c-13.3,0.1-26.7-0.4-40,0.1c-0.1,4.9-0.3,9.8,0.2,14.6
		c-0.1,9.6-0.9,19.4-0.1,29c2.3,4.2,8.1,1.5,11.8,2.4c7.6,2.8,8.6-5.5,11-10.1c4.4-9,8.4-18.2,12.6-27.2c0.5,1.2,0.9,2.5,1.5,3.7
		c-1.8,5.2-4.5,9.9-6,15.2c-1.4,3.1-2.9,6.1-4.2,9.1c-2.4,4.3-4.9,8.6-5.7,13.5c-0.7,1.2-1.5,2.4-2.2,3.6c-1.9,2.8-3.1,5.9-4.2,9
		c-2.3,4.7-4.3,9.5-6.8,14.1c-0.5,0.9-0.8,1.9-1.2,2.8c-0.2,0.5-0.6,1.5-0.8,2.1c-1.4,2.2-2.6,4.5-3.2,7
		c-5.3,5.9-11.8,10.7-15.5,18.2c1.7,3.4,3,7.2,5.8,9.9c-5-1.2-8.8-0.6-6,4c0.7,8.1-9.5,14.1-12,21.9c-1.7,2.1-3.5,4.2-5.1,6.5
		c-0.3-0.6-0.8-1.7-1.1-2.2c1.7-6.4,5.8-11.6,9.3-17.1c-4.9-2.6-14.6-0.4-21.1-1.2c1.4-3.2,2.6-6.4,3.5-9.7c2.7-0.1,8-0.3,10.7-0.4
		l0.8,0.1c1.4,2,2.6,4.3,4.1,6.2c3.5-2.8,3.9-8.6,7-12c0.5-0.3,1.6-0.9,2.2-1.2c0.8-0.7,1-1.6,0.8-2.9c-8.7-2.6-21.7-0.2-32-1.1
		c3.6-6.3,11.5-11.7,8.1-20c-0.2-1.7-0.2-3.5-0.1-5.2c0.5,0.3,1.5,1,2,1.4c-0.6,9.1,5,21,15.9,18.8c10.4-3.8,12.8-17.1,7.9-26.2
		c0.6-0.2,1.8-0.8,2.4-1c2.4,5-0.8,15.4,8.6,12.1c2.5-4,4.2-8.5,6.3-12.7c3.2-7.9,7-15.6,10.9-23.2c4.1-9.8-14.8,1.1-18.3-6.8
		c-0.3-15.1,1.6-30.5-0.4-45.4L101.1,22z"/>
</g>
<g id="_x23_6f7070ff">
	<path class="st22" d="M75.2,23c8.7,0,17.4,0,26.1-0.2c-0.2,2.8-0.3,5.6-0.4,8.4c-0.4-8-9.3-5-15-5.1c0,3.3,3.2,5.9,2.4,9.3
		c-3.6-4.4-7.7-8.8-13.3-10.5C75,24.4,75.1,23.5,75.2,23z"/>
</g>
<g id="_x23_373738ff">
	<path class="st23" d="M101.3,22.8c2,14.9,0.2,30.3,0.4,45.4c-1-5.4-0.8-11-0.9-16.4c0.2-6.8,0.4-13.7,0.1-20.6
		C101,28.4,101.1,25.6,101.3,22.8z"/>
</g>
<g id="_x23_3c3d3dff">
	<path class="st24" d="M104.1,23.1c13.3-0.5,26.7,0.1,40-0.1c-0.7,3.3-3.2,5.8-4.5,8.8c-4.2,9-8.2,18.3-12.6,27.2
		c-6.9-0.2-16.2,1.6-20.6-5.3c-0.7-5.3-0.9-10.7-2.1-16C103.8,32.9,103.9,28,104.1,23.1z"/>
</g>
<g id="_x23_ccaf45ff">
	<path class="st25" d="M162,26c10.4-6.3,24.6-3.2,33,5.2c2.3,2.3,4.4,4.8,5.3,7.9c-0.3,0.5-0.9,1.5-1.2,2c-3.3-5-7.5-9.4-12.9-12
		c-1.9-1-3.9-2.1-6-2.4c-3.1-0.7-6.5-1.2-9.5,0c-1.4,0.4-2.7,0.8-4,1.3c-13,4.4-18.6,18.9-20.2,31.4c-2,7,2.7,14.2,0.5,21
		c-1.7-3.7-1.9-7.8-2.7-11.8C142.1,52.7,148.6,35.4,162,26z"/>
</g>
<g id="_x23_962d54ff">
	<path class="st26" d="M201.8,25.2c-5.4-3.2,3.8-2.6,6.4-0.6c-2.7,1.2-5.3,2.6-8.4,2.6c-1,0.1-2,0.2-3,0.4l-0.9,0.1
		C195.5,24.1,206.9,27.2,201.8,25.2z"/>
</g>
<g id="_x23_848647ff">
	<path class="st27" d="M144.9,30c3.2-2,5.9-7,10.3-5.5c-4.6,2.5-8,6.7-11.3,10.7c-0.3-0.6-0.8-1.8-1.1-2.3
		C143.5,32,144.2,31,144.9,30z"/>
</g>
<g id="_x23_580d2aff">
	<path class="st28" d="M211.4,24.2c14.5,8.5,22.9,26.1,28.8,41.8c-0.2,4.7-3.1-1.8-4.1-3.3c-8-13.2-14.4-28.2-27.1-37.7
		C209.6,24.8,210.8,24.4,211.4,24.2z"/>
</g>
<g id="_x23_e59bbdff">
	<path class="st29" d="M35,29c-0.3-2,1.2-3.6,3.2-3.8C38,27,36.7,28.4,35,29z"/>
</g>
<g id="_x23_39393aff">
	<path class="st30" d="M42,47c3.1-13.4,17.5-26.3,31.7-20.8C89.5,33.5,96,53.6,90.3,69.4c-0.5-7.4,0-14.8-0.4-22.2
		c-3.8-3.3-9.9-0.5-13.8-3.4C76,38.9,79.5,26.3,70,28.9c-5.1-0.1-16.6-2.3-13.9,7.1c-1.4,1.9,2.2,10.3-2.8,9.7
		C49.4,44.5,45.7,45.9,42,47z"/>
</g>
<g id="_x23_181a1bff">
	<path class="st31" d="M75,24.8c5.6,1.7,9.7,6.1,13.3,10.5c7.8,12.6,9.1,29.4,1.5,42.5c-2,5.3-7.6,7.9-10,12.8
		c6.5-1.2,10.5,4.1,14.4,8.2c-0.6,0.2-1.8,0.8-2.4,1l-0.8,0c-4.4-13.1-23-5.3-22.1,6.2c-0.2,0.3-0.7,0.8-1,1.1
		c-0.5-0.4-1.5-1.1-2-1.4c0.1-2.4,1.2-4.5,1.9-6.7c1.7-2,3.4-4,5.1-6c-6.3,1.2-12.5,0.7-17.9-2.8c-9-5.2-15.1-14.7-16.3-25
		c0-5.6,0.4-11.2-0.7-16.6c0.8-1.3,2.7-0.9,4-1.5c3.7-1.1,7.3-2.6,11.3-1.4c5,0.7,1.4-7.8,2.8-9.7c-2.7-9.4,8.8-7.1,13.9-7.1
		c9.5-2.7,6,10,6.1,14.8c3.9,2.9,10,0.1,13.8,3.4c0.4,7.4-0.1,14.8,0.4,22.2c5.8-15.8-0.8-35.9-16.5-43.1
		C74.1,25.9,74.7,25.2,75,24.8 M59.1,31c0,5.2-0.1,10.5-0.2,15.7c-3.5,3.2-9.5,0.2-13.8,1.3c-0.1,6.6-0.1,13.2,0,19.8
		c4.2,0.3,8.5,0,12.7,0.2c2.4,5.2,0.6,11.3,1.3,16.8c4.2-1.7,16.7,4.3,15-3.8c-4.5,1.6-9.3,2.5-14,0.7c0.5-5.9-2.1-13.3,2.9-17.7
		c1.8,0,5.3,0,7.1,0c1.1,1.6,2.4,3.2,1.2,5.2c-0.6-5.1-8.2-4.5-9.6-0.1c-2.3,0.7,2,8.4,0.4,10.7c3.5-0.2,10.5,2.5,8.9-3.2
		c3,0.7,4.8-0.2,4-3.6c-3.4-10.1,9.5-1.7,12.8-6.2c0.6-5.8,0.1-11.7,0-17.5c-3.8-3.6-10.6,0.7-14.6-3c-0.8,2-2.5,3.7-2.8,5.8
		c-2.8-0.1-5.5-0.1-8.2-0.2C57.9,47.1,60.8,39.8,60,34c2.5-0.3,16.7-0.8,11.1,2.2c-3-0.5-6.1-0.3-9.1-0.2c-1.7,0.8-1.7,7-0.1,8.2
		c-1.8,7.5,10.3,7.6,9.2,0.1c1.5-1,0.3-4,2.8-2.6c1-3.5-0.1-7.1-0.1-10.6C70.1,31.1,62.8,31,59.1,31 M41.1,49.1
		c-1,5.7-2.6,13.7,1.8,18.1C42.1,61.7,45.7,50.9,41.1,49.1 M43,70c1.5,11,11.4,19.5,22.1,20.8c11.9,0.4,22.8-9.4,25-20.8
		c-6.2,1.7-17-1.9-13.2,8.9c2.2,12.2-14,10.9-20.8,6.8c-0.1-3.7-0.2-11-0.2-14.6C51.7,70,47.2,70.8,43,70z"/>
</g>
<g id="_x23_d84180ff">
	<path class="st32" d="M199.8,27.2c3,0,5.7-1.4,8.4-2.6l0.8,0.4c12.7,9.5,19.1,24.5,27.1,37.7c-0.4,1-0.6,2.1-0.9,3.1
		c-0.3,5.3,1.8,10.9,4.7,15.3c0.2,2.6,0.2,5.3,0.1,7.9c-2.5,2.2-5.9,1.8-8.9,2.1c-0.1-0.5-0.2-1.4-0.3-1.8c3.1-0.8,9.3-0.4,6-6.2
		c0-7.5-3.8-13.8-7.3-20.1c6.2-3,1.5-7.8-2.4-11c-3.5-6.9-6.8-14.3-12.3-19.8c-1.2-1.6-3.1,0.6-4.6,0.9
		C207.2,30.5,203.5,28.6,199.8,27.2z"/>
</g>
<g id="_x23_e7a1beff">
	<path class="st33" d="M219.2,24.7c2.4,1.7,4.9,3.4,5.8,6.4C222.9,29.2,220.9,27,219.2,24.7z"/>
</g>
<g id="_x23_555658ff">
	<path class="st34" d="M85.9,26.1c5.6,0.1,14.6-2.8,15,5.1c0.3,6.9,0.1,13.7-0.1,20.6c-0.3,7.1-4.6,15.1-1.5,21.9
		c5.8,4.1,14.2,0.4,20.7,1.3c-3.9,7.6-7.7,15.3-10.9,23.2c-4.9,0.8-9.9,1-14.9,0.6c-3.9-4.1-7.9-9.3-14.4-8.2c2.5-4.9,8-7.5,10-12.8
		c7.6-13,6.3-29.8-1.5-42.5C89.1,32,85.9,29.4,85.9,26.1 M100.4,83.3c-4.2,0-3.4,7.5,0.6,6.7c3.5-1,10.6,2.5,11-3.1
		C113.3,80.3,103.9,83.5,100.4,83.3z"/>
</g>
<g id="_x23_846820ff">
	<path class="st35" d="M170.7,26.7c3.1-1.2,6.4-0.6,9.5,0C177.1,26.7,173.9,26.8,170.7,26.7z"/>
</g>
<g id="_x23_3a2d12ff">
	<path class="st36" d="M166.7,28c1.3-0.5,2.7-1,4-1.3c3.2,0.1,6.3,0,9.5,0c2.2,0.3,4.1,1.4,6,2.4c-1.8,0.7-3.5,1.3-5.3,1.8
		c-1.2-0.4-2.5-0.8-3.8-1.1C173.7,29.2,170.2,28.6,166.7,28z"/>
</g>
<g id="_x23_f0b6cdff">
	<path class="st37" d="M196.8,27.6c1-0.1,2-0.3,3-0.4c3.7,1.4,7.4,3.3,10.4,5.9c1.9,2.9,4.6,4.9,7.9,5.8c3.2,4.2,4.1,10.2,8.9,13.1
		c-0.7,4,0.3,7.7,2.4,11c3.5,6.3,7.2,12.6,7.3,20.1c3.3,5.8-2.9,5.4-6,6.2c-1-5.8-0.4-11.8-1.5-17.5c-1.8-8.7-7.8-15-12.6-22
		c0.3-2.4-0.5-4.6-2.5-6c-0.3-2.1-2.1-3.3-4.2-3.2c-2-0.9-2.3,1.3-3,2.7c-0.8-1.9-1.7-3.8-2.8-5.6C201.9,34.2,199.4,30.8,196.8,27.6
		z"/>
</g>
<g id="_x23_73591aff">
	<path class="st38" d="M146.5,59.5c1.5-12.5,7.1-27,20.2-31.4c3.5,0.5,7,1.1,10.5,1.8c-14.3-3.2-25,10.3-27.5,22.9
		c-1.9,9.1-2,18.6,1.4,27.4c-1.3,0.4-2.7,0.8-4.1,0.4C149.2,73.7,144.5,66.4,146.5,59.5z"/>
</g>
<g id="_x23_6c7d3fff">
	<path class="st39" d="M195.9,27.7l0.9-0.1c2.6,3.3,5.1,6.6,7.4,10.1c-1.3-0.2-3.2-1.1-3.5,0.9l-0.4,0.6c-0.9-3.1-3.1-5.6-5.3-7.9
		C197.8,31.5,196.5,29.2,195.9,27.7z"/>
</g>
<g id="_x23_7f153cff">
	<path class="st40" d="M37.4,33c-1.2-1.6,0.9-4.3,2.7-3.7C39.8,30.9,38.7,32.1,37.4,33z"/>
</g>
<g id="_x23_6c4a1cff">
	<path class="st41" d="M186.3,29.2c5.4,2.6,9.6,7,12.9,12c6.2,9,7.4,20.6,6.3,31.2c-0.3-0.4-0.9-1.1-1.2-1.5
		c0.8-13.6-3.4-31.2-16.3-38c8,7.9,13.8,18.5,13.9,29.9c-0.6,4.2-0.7,8.4-1.5,12.5c0.9-12.3-0.9-25.7-9.2-35.4
		c-2.8-3.5-6.2-6.5-10.3-8.2l0.1-0.7C182.8,30.5,184.5,29.9,186.3,29.2z"/>
</g>
<g id="_x23_f5c528ff">
	<path class="st42" d="M149.7,52.8c2.4-12.6,13.1-26.1,27.5-22.9c1.3,0.3,2.5,0.8,3.8,1.1l-0.1,0.7c-0.5,3.5,5.2,7.1,0.3,9.3
		c-0.3,0.2-0.8,0.7-1.1,1c-0.9-0.8-1.8-1.6-2.8-2.2c-5.1-1.3-2.9,7.6-7.6,5.9c-8.2-4.1-4.2,5.1-0.8,6.7c-1,6.8-2.7,13.6-4,20.4
		c-2.3-0.6-4.6-0.7-5.1,2.1c-0.6,1.2-1.1,2.4-1.7,3.6C151.4,71.5,150.3,61.8,149.7,52.8z"/>
</g>
<g id="_x23_3c4040ff">
	<path class="st43" d="M59.1,31c3.7,0,11.1,0,14.8,0c0.1,3.5,1.1,7.1,0.1,10.6c-2.6-1.5-1.4,1.6-2.8,2.6c0-1.8-0.1-3.6-0.1-5.4
		c0-0.7,0-2,0.1-2.6c5.6-3-8.5-2.5-11.1-2.2c0.8,5.7-2.1,13,2.2,17.8c2.7,0.1,5.5,0.2,8.2,0.2c-2.8,0.4-5.6,0.8-8.4,1.1
		c-3.4-4.1-10.1-4.3-14.4-2.5C46.8,55,46,61,47.7,65.3c4.5,1.4,10.9,1.9,14.2-2.4c0.3,0.3,0.8,0.9,1,1.2c-5,4.4-2.4,11.8-2.9,17.7
		c4.7,1.8,9.5,0.9,14-0.7c1.7,8-10.7,2.1-15,3.8c-0.8-5.5,1.1-11.6-1.3-16.8c-4.2-0.2-8.5,0-12.7-0.2c-0.1-6.6-0.1-13.2,0-19.8
		c4.3-1.1,10.3,1.8,13.8-1.3C59,41.5,59,36.3,59.1,31z"/>
</g>
<g id="_x23_f184b3ff">
	<path class="st44" d="M210.2,33.1c1.5-0.2,3.3-2.5,4.6-0.9c5.6,5.5,8.8,12.9,12.3,19.8c-4.8-2.9-5.7-8.9-8.9-13.1
		C214.8,38,212.1,36,210.2,33.1z"/>
</g>
<g id="_x23_f3d98cff">
	<path class="st45" d="M181.1,40.9c4.9-2.2-0.7-5.8-0.3-9.3c4.1,1.8,7.5,4.7,10.3,8.2c-0.9,4-2.3,7.8-4.3,11.4
		C181.3,49.8,187.9,41.8,181.1,40.9z"/>
</g>
<g id="_x23_4f5d35ff">
	<path class="st46" d="M141.1,35.5c0.6-0.9,1.2-1.7,1.8-2.5c0.3,0.6,0.8,1.8,1.1,2.3c-3.3,5.9-5.8,12.3-7.7,18.8
		c-0.4-1.2-0.7-2.3-1.1-3.5C136.6,45.4,139.3,40.6,141.1,35.5z"/>
</g>
<g id="_x23_a17231ff">
	<path class="st47" d="M188,32.8c12.9,6.8,17.1,24.4,16.3,38c-1.6,9.1-3.4-5-2.4-8.1C201.8,51.3,196,40.7,188,32.8z"/>
</g>
<g id="_x23_245b6fff">
	<path class="st48" d="M61.9,44.2C60.3,43,60.3,36.8,62,36c0,0.5,0,1.4,0,1.9C62,40,62,42.1,61.9,44.2z"/>
</g>
<g id="_x23_79bbd0ff">
	<path class="st49" d="M62,36c3-0.1,6.1-0.2,9.1,0.2c0,0.7,0,2-0.1,2.6c-3-0.4-6-0.7-9-1C62,37.4,62,36.5,62,36z"/>
</g>
<g id="_x23_3c3118ff">
	<path class="st50" d="M200.7,38.5c0.3-2,2.2-1,3.5-0.9c1.1,1.8,2,3.7,2.8,5.6c1.1,2.9,2.2,5.8,3,8.9c0,0.4,0.1,1.3,0.2,1.8
		c0.2,1.6,0.4,3.2,0.7,4.8c-3.6,4.2-0.5,10.6-2.6,15.6C209.3,61.8,207.2,49.3,200.7,38.5z"/>
</g>
<g id="_x23_2da4d6ff">
	<path class="st51" d="M62,37.9c3,0.2,6,0.5,9,1c0,1.8,0,3.6,0.1,5.4c-3.1,0.4-6.2,1.2-9.2-0.1C62,42.1,62,40,62,37.9z"/>
</g>
<g id="_x23_282828ff">
	<path class="st52" d="M104.3,37.7c1.2,5.2,1.4,10.6,2.1,16c4.4,6.9,13.8,5.1,20.6,5.3c-2.4,4.6-3.4,12.8-11,10.1
		c-3.7-0.9-9.5,1.9-11.8-2.4C103.4,57.1,104.2,47.4,104.3,37.7z"/>
</g>
<g id="_x23_781a41ff">
	<path class="st53" d="M30.4,44c-0.9-1.7,0.5-5,2.6-4.7C32.7,41.1,31.9,42.8,30.4,44z"/>
</g>
<g id="_x23_7e6934ff">
	<path class="st54" d="M141,47.6c1-3.2,2.6-6.3,4.9-8.8c-0.9,4.2-2.5,8.2-3.6,12.4C141.9,50,141.5,48.8,141,47.6z"/>
</g>
<g id="_x23_b17929ff">
	<path class="st55" d="M200.3,39.2l0.4-0.6c6.5,10.7,8.6,23.3,7.5,35.7c-2.3,19.1-19.5,39-40.6,31.5l0.6-0.5c2-0.1,3.5-0.4,1.5-2.1
		c19,5.4,34.6-13.4,35.7-30.8c1.1-10.6-0.1-22.2-6.3-31.2C199.4,40.7,200,39.7,200.3,39.2z"/>
</g>
<g id="_x23_925208ff">
	<path class="st56" d="M169.6,45.6c4.7,1.7,2.6-7.2,7.6-5.9c0.1,2.8,0,5.6,0.1,8.4c2.9-0.2,2.4-4.1,2.7-6.2c0.3-0.2,0.8-0.7,1.1-1
		c6.8,0.9,0.2,8.9,5.7,10.3c4.3,3.7,4.6,10.9,0.4,14.8c4.7,5.3,3.4,15.7-4.7,16.4c-5.8-1.8-6,3.1-6.6,6.7c-0.9,0.5-1.8,0.9-2.6,1.3
		c-4.1-1.5-1-14.7-3.6-2.4c-5.5,0.7-4.8-4.7-5.1-8.6c-2.3-0.9-5.4-1.4-5-4.6c0.5-2.9,2.8-2.7,5.1-2.1c1.3-6.8,3.1-13.5,4-20.4
		C165.4,50.7,161.4,41.5,169.6,45.6 M176.3,62.2c1.5,7,10.9-6,4.9-5.8C177.1,50,173.1,58.6,176.3,62.2 M174.2,67.1
		c-1.7,3.4-3.1,10,2.4,9.4C184.2,78.8,180.8,64.9,174.2,67.1z"/>
</g>
<g id="_x23_c28e44ff">
	<path class="st57" d="M177.2,39.7c1,0.6,1.9,1.4,2.8,2.2c-0.3,2.1,0.2,6-2.7,6.2C177.2,45.3,177.3,42.5,177.2,39.7z"/>
</g>
<g id="_x23_d88b18ff">
	<path class="st58" d="M191.2,39.9c8.3,9.7,10.1,23.1,9.2,35.4c-0.5,3.1-1.6,6.1-2.9,8.9c-6-5.7-15.1,1.5-21.4,5
		c0.6-3.6,0.7-8.5,6.6-6.7c8-0.6,9.4-11.1,4.7-16.4c4.1-3.9,3.9-11.1-0.4-14.8C188.9,47.7,190.2,43.9,191.2,39.9z"/>
</g>
<g id="_x23_a5a490ff">
	<path class="st59" d="M207,43.2c0.7-1.4,1-3.6,3-2.7c-1.7,3.4,1.6,6.8,2.2,10.1c-0.6,0.4-1.7,1.1-2.2,1.4
		C209.3,49,208.1,46.2,207,43.2z"/>
</g>
<g id="_x23_4a252fff">
	<path class="st60" d="M212.2,50.7c-0.6-3.4-3.9-6.8-2.2-10.1c0.7,1.8,2.4,2.8,4.2,3.2c2,1.5,2.8,3.6,2.5,6c4.8,7,10.8,13.3,12.6,22
		c-0.2,1.5-0.5,2.9-0.8,4.4c-1.2-1.2-2.3-2.4-3.5-3.6c-0.9-1.6-1.9-3.1-2.8-4.7C221.3,60.9,215.4,56.5,212.2,50.7z"/>
</g>
<g id="_x23_806c74ff">
	<path class="st61" d="M210,40.5c2.1-0.2,3.9,1.1,4.2,3.2C212.4,43.3,210.7,42.3,210,40.5z"/>
</g>
<g id="_x23_106381ff">
	<path class="st62" d="M61.9,44.2c3,1.3,6.1,0.5,9.2,0.1C72.2,51.7,60.2,51.7,61.9,44.2z"/>
</g>
<g id="_x23_353a3dff">
	<path class="st63" d="M73.3,46.3c4,3.7,10.8-0.6,14.6,3c0.1,5.8,0.5,11.7,0,17.5C84.5,71.3,71.7,63,75,73c0.8,3.5-0.9,4.3-4,3.6
		l0-0.9c0-1.2,0-2.4,0-3.7c0.1-0.7,0.3-2.1,0.4-2.8c1.1-2-0.1-3.6-1.2-5.2c0.2-0.3,0.8-0.9,1-1.2c3.3,4,11.1,5,14.8,1.8
		c-1.2-2.1,2.3-8.3-1.8-8.9l0-1c0-0.5,0.1-1.5,0.2-2c4.5,4.2-0.2-8.5-4.3-2.8c-4-1.8-6.5,1.1-9,3.3c-0.1-0.3-0.4-0.8-0.6-1.1
		C70.8,50,72.5,48.3,73.3,46.3z"/>
</g>
<g id="_x23_b5973aff">
	<path class="st64" d="M141,47.6c0.5,1.2,0.9,2.4,1.3,3.6c-1.4,6.5-1.6,13.2-1.5,19.8c0.1,2.9,1.8,5.3,2.2,8
		c-5.6,1.2-3.7-5.8-4.8-9.3C137.5,62.3,138.6,54.7,141,47.6z"/>
</g>
<g id="_x23_ef96b9ff">
	<path class="st65" d="M236.1,47.9c1.8,0.5,2.5,2.4,1.9,4.1C236.6,51.1,235.8,49.5,236.1,47.9z"/>
</g>
<g id="_x23_474647ff">
	<path class="st66" d="M36.9,51.4c0.4-1,0.8-1.9,1.2-2.8c1.1,5.5,0.8,11.1,0.7,16.6C37.9,60.7,38.9,55.7,36.9,51.4z"/>
</g>
<g id="_x23_162329ff">
	<path class="st67" d="M47.7,50.7c4.3-1.8,11-1.6,14.4,2.5c0,3.2-0.1,6.5-0.1,9.7c-3.3,4.4-9.7,3.9-14.2,2.4
		C46,61,46.8,55,47.7,50.7 M49,55c0,0.4,0.2,1.3,0.2,1.8C43,66.7,62.5,67,60,57.9c0-0.7,0.1-2.2,0.1-3C58.6,50.9,47.7,49.5,49,55z"
		/>
</g>
<g id="_x23_132026ff">
	<path class="st68" d="M71,53.2c2.5-2.2,5-5.1,9-3.3c4.1-5.7,8.8,7.1,4.3,2.8c-1.4-3-7.1-2.3-9.3-0.9c-0.4,0.6-1.1,1.7-1.4,2.2
		c-0.8,1.5-0.6,3.3-0.7,5c-0.1,8.6,16.5,6.2,11.3-3.4c4,0.7,0.5,6.8,1.8,8.9c-3.7,3.2-11.4,2.2-14.8-1.8C71.1,59.7,71,56.4,71,53.2z
		"/>
</g>
<g id="_x23_495665ff">
	<path class="st69" d="M75,51.9c2.3-1.4,7.9-2.1,9.3,0.9C81.2,52.4,78.1,52.1,75,51.9z"/>
</g>
<g id="_x23_b5dd76ff">
	<path class="st70" d="M135.1,50.6c0.4,1.1,0.8,2.3,1.1,3.5c-1.9,1-1.6,3.3-1.1,5c-0.2,6.1-0.3,12.2,0.9,18.2
		c-0.9,0.8-1.9,1.6-2.9,2.3c-4.4,0.9-7.7,4-11.1,6.7c-0.3-0.3-0.9-1-1.2-1.3c0.9-2.6,1.7-5.3,2-8.1c0.7-1.2,1.4-2.4,2.2-3.6
		c2.2-4.4,6.8-8.2,5.7-13.5C132.2,56.7,133.7,53.7,135.1,50.6z"/>
</g>
<g id="_x23_e7b0bfff">
	<path class="st71" d="M210,52.1c0.6-0.4,1.7-1.1,2.2-1.4c3.2,5.9,9,10.2,10,17.1c-0.3,3.9-1.1,7.7-1.9,11.5c0.9-4.8-1-8.8-3.6-12.5
		c1.2-2.5,1.8-4.8-1.6-2.8c-0.7-3.8-2.8-7-5-10.1C210.1,53.4,210,52.5,210,52.1z"/>
</g>
<g id="_x23_707172ff">
	<path class="st72" d="M12.9,117.8c4.5-23.2,13.5-45.3,23.9-66.4c2,4.3,1,9.3,1.9,13.8c1.2,10.3,7.4,19.8,16.3,25
		c0.3,2.9-2.5,1.2-3.9,0.6c-8.2-3.3-11.8-11.9-14.3-19.7c-0.6-1.3-0.7-3.6-2.7-3.1c-9.9,18.3-18.4,38.4-18.7,59.4
		c-0.4,10.7,10.6,10.4,17.9,9.6c-3.8,4.5-11.5,7.3-16.2,2.7C11.1,134.1,13.3,125.3,12.9,117.8z"/>
</g>
<g id="_x23_75b1caff">
	<path class="st73" d="M49,55c-1.3-5.5,9.6-4.1,11.2-0.1C56.4,54.3,52.6,53.6,49,55z"/>
</g>
<g id="_x23_4e5658ff">
	<path class="st74" d="M70.4,52.1c0.1,0.3,0.4,0.8,0.6,1.1c0,3.2,0,6.5,0.1,9.7c-0.2,0.3-0.8,0.9-1,1.2c-1.8,0-5.3,0-7.1,0
		c-0.3-0.3-0.8-0.9-1-1.2c0.1-3.2,0.1-6.5,0.1-9.7C64.8,52.9,67.6,52.5,70.4,52.1z"/>
</g>
<g id="_x23_85c7dfff">
	<path class="st75" d="M75,51.9c3.1,0.2,6.2,0.5,9.3,0.9c-0.1,0.5-0.1,1.5-0.2,2l-1,0.3c-3.2,0-6.6,0.4-9.6-0.9
		C73.9,53.5,74.6,52.4,75,51.9z"/>
</g>
<g id="_x23_727273ff">
	<path class="st76" d="M99.3,73.7c-3.1-6.8,1.2-14.8,1.5-21.9c0.2,5.5,0,11,0.9,16.4c3.4,7.9,22.4-3,18.3,6.8
		C113.5,74.1,105,77.8,99.3,73.7z"/>
</g>
<g id="_x23_f382b5ff">
	<path class="st77" d="M227.1,52c3.9,3.1,8.6,8,2.4,11C227.4,59.7,226.4,56,227.1,52z"/>
</g>
<g id="_x23_d58c18ff">
	<path class="st78" d="M151.1,80.1c-3.4-8.8-3.2-18.3-1.4-27.4c0.5,9,1.7,18.7,8.2,25.6c0.7-1.2,1.2-2.4,1.7-3.6
		c-0.4,3.2,2.7,3.7,5,4.6c0.4,3.9-0.3,9.3,5.1,8.6c2.6-12.3-0.5,0.9,3.6,2.4c-3.5,1.5-6.4,3.9-8.8,6.9c-0.3-0.1-1-0.4-1.3-0.5
		C156.9,93.2,154.3,86.3,151.1,80.1z"/>
</g>
<g id="_x23_2aa7d6ff">
	<path class="st79" d="M49,55c3.6-1.4,7.5-0.6,11.2-0.1c0,0.7-0.1,2.2-0.1,3c-2.2,3.4-10.5,3.8-10.9-1.1C49.1,56.3,49,55.4,49,55z"
		/>
</g>
<g id="_x23_2ca4d0ff">
	<path class="st80" d="M72.8,59.1c0.1-1.7-0.1-3.5,0.7-5c3,1.3,6.4,0.9,9.6,0.9C85,62,77.2,60.5,72.8,59.1z"/>
</g>
<g id="_x23_688053ff">
	<path class="st81" d="M135.1,59c-0.5-1.7-0.8-4,1.1-5C136.4,55.8,136.4,57.7,135.1,59z"/>
</g>
<g id="_x23_edc876ff">
	<path class="st82" d="M176.3,62.2c-3.2-3.6,0.8-12.2,4.9-5.8C180.6,59.3,180.2,63,176.3,62.2z"/>
</g>
<g id="_x23_b06175ff">
	<path class="st83" d="M210.2,53.8c2.2,3.1,4.3,6.3,5,10.1c-0.6,0.7-1.3,1.4-1.9,2.1c-0.5-2.5-1.4-5-2.4-7.4
		C210.6,57,210.3,55.5,210.2,53.8z"/>
</g>
<g id="_x23_7c1a3eff">
	<path class="st84" d="M22.1,61.2c-0.4-2.5,0.6-5.2,2.9-6.3C24.4,57.1,23.5,59.3,22.1,61.2z"/>
</g>
<g id="_x23_18617dff">
	<path class="st85" d="M83.1,55l1-0.3l0,1c5.2,9.6-11.4,12-11.3,3.4C77.2,60.5,85,62,83.1,55z"/>
</g>
<g id="_x23_bc843aff">
	<path class="st86" d="M181.2,56.4c6-0.2-3.4,12.8-4.9,5.8C180.2,63,180.6,59.3,181.2,56.4z"/>
</g>
<g id="_x23_166683ff">
	<path class="st87" d="M49.2,56.8c0.4,4.9,8.7,4.5,10.9,1.1C62.5,67,43,66.7,49.2,56.8z"/>
</g>
<g id="_x23_241d0dff">
	<path class="st88" d="M208.2,74.2c2.1-5-1-11.3,2.6-15.6c1,2.4,1.9,4.8,2.4,7.4c-0.3,0.5-1,1.4-1.4,1.9c-0.6,2.7-0.9,5.5-1.3,8.2
		c-0.6,3.9-1.7,7.7-2.5,11.5c-1.2,2.3-2.4,4.6-3.4,7c-1.9,2.2-3.8,4.5-5.4,7c-9.9,8.7-24.8,14.6-37.6,9.1c1.9-1.7,3.9-3.4,6-5
		C188.7,113.2,205.9,93.4,208.2,74.2z"/>
</g>
<g id="_x23_789c46ff">
	<path class="st89" d="M125.1,73.2c0.8-4.9,3.3-9.2,5.7-13.5C131.9,65,127.3,68.8,125.1,73.2z"/>
</g>
<g id="_x23_efa0c2ff">
	<path class="st90" d="M15.2,68.1c-0.8-1.9,0-3.9,1.7-5.1C17.4,64.9,16.6,66.8,15.2,68.1z"/>
</g>
<g id="_x23_512d0eff">
	<path class="st91" d="M200.4,75.3c0.8-4.1,0.9-8.4,1.5-12.5c-1,3.1,0.8,17.2,2.4,8.1c0.3,0.4,0.9,1.1,1.2,1.5
		c-1.1,17.4-16.7,36.2-35.7,30.8c0-0.8,0-1.6,0.1-2.4c0.7,0.1,2.2,0.4,3,0.5c9.5,3.4,18.2-4.7,22.3-12.4c0.8-1.6,1.6-3.2,2.3-4.8
		C198.8,81.3,199.9,78.4,200.4,75.3z"/>
</g>
<g id="_x23_b6ab71ff">
	<path class="st92" d="M215.2,63.9c3.4-2,2.8,0.3,1.6,2.8c-0.3,0.3-0.8,0.9-1,1.2c-1.4,1.6-2.4,3.4-3.6,5.2
		c-0.1-1.7-0.2-3.5-0.2-5.2c0.3-0.5,1-1.4,1.4-1.9C213.9,65.3,214.5,64.6,215.2,63.9z"/>
</g>
<g id="_x23_b32261ff">
	<path class="st93" d="M236.1,62.7c1,1.5,3.9,8,4.1,3.3c2,2,2.5,5.3,2.8,8c-4-2.8-0.7,4.1-1.1,6.2c-3.3-4.1-2.5-10.5-6.7-14.4
		C235.4,64.7,235.7,63.7,236.1,62.7z"/>
</g>
<g id="_x23_761639ff">
	<path class="st94" d="M18.3,71.2c-1-1.5-0.2-4.8,1.7-4.9C20.2,68.1,19.3,69.7,18.3,71.2z"/>
</g>
<g id="_x23_70b0c7ff">
	<path class="st95" d="M61.7,69.2c1.4-4.4,9-5,9.6,0.1c-0.1,0.7-0.3,2.1-0.4,2.8c-1.4-3.9-6.1-3.8-8.8-1.2
		C62,70.5,61.8,69.7,61.7,69.2z"/>
</g>
<g id="_x23_881b45ff">
	<path class="st96" d="M235.2,65.8c4.2,3.9,3.4,10.3,6.7,14.4c0.4-2.1-2.9-9,1.1-6.2c0.9,3.8,2.4,7.7,1.8,11.7
		c-1.1,3.7-0.6,11.9-6.8,10.3c3.6-3.8,4.7-10.7,1.9-15C237,76.7,234.9,71.1,235.2,65.8z"/>
</g>
<g id="_x23_d28416ff">
	<path class="st97" d="M174.2,67.1c6.6-2.2,9.9,11.7,2.4,9.4C171.1,77.1,172.5,70.4,174.2,67.1z"/>
</g>
<g id="_x23_da668eff">
	<path class="st98" d="M215.7,68c0.3-0.3,0.8-0.9,1-1.2c2.6,3.7,4.5,7.8,3.6,12.5c-0.2,1.2-0.3,2.4-0.4,3.7l-0.9,0.2
		C215.4,78.8,219.3,72.6,215.7,68z"/>
</g>
<g id="_x23_56595bff">
	<path class="st99" d="M34.2,68c2-0.5,2.1,1.8,2.7,3.1c2.6,7.8,6.1,16.4,14.3,19.7c1.5,0.6,4.2,2.3,3.9-0.6c5.4,3.6,11.7,4,17.9,2.8
		c-1.7,2-3.4,4-5.1,6c-4.5-0.1-9.1-0.8-13.6-0.8c-4.3,14.1-11.1,27.9-21,38.8c-7.4,0.7-18.3,1-17.9-9.6
		C15.8,106.4,24.3,86.3,34.2,68z"/>
</g>
<g id="_x23_893f42ff">
	<path class="st100" d="M210.6,76.2c0.4-2.8,0.7-5.5,1.3-8.2c0,1.7,0.1,3.5,0.2,5.2c1.2-1.7,2.2-3.6,3.6-5.2
		c3.6,4.6-0.3,10.8,3.3,15.1C213,86.1,217.4,72.2,210.6,76.2z"/>
</g>
<g id="_x23_cdbf9aff">
	<path class="st101" d="M222.3,67.8c0.9,1.6,1.9,3.1,2.8,4.7c-0.8,4.4-1.9,9.2-0.2,13.6c-1.2,0-2.5-0.1-3.7-0.1c-0.4-1-0.8-2-1.2-3
		c0.1-1.2,0.3-2.4,0.4-3.7C221.1,75.5,222,71.7,222.3,67.8z"/>
</g>
<g id="_x23_1a5f7dff">
	<path class="st102" d="M62.2,79.9c1.5-2.3-2.7-10-0.4-10.7c0.1,0.4,0.3,1.2,0.4,1.7c-0.1,5.1,5.2,3.9,8.9,4.9l0,0.9
		C72.7,82.4,65.6,79.7,62.2,79.9z"/>
</g>
<g id="_x23_28a4d6ff">
	<path class="st103" d="M62.2,70.9c2.7-2.5,7.4-2.6,8.8,1.2c0,1.2,0,2.4,0,3.7C67.3,74.8,62.1,76,62.2,70.9z"/>
</g>
<g id="_x23_6a6e26ff">
	<path class="st104" d="M144.3,68.8c0.8,3.9,1,8,2.7,11.8c-2.1-0.7-3.6-0.7-2.1,1.7c-3.8-1.3-7.9-1.6-11.8-0.3
		c0.1-0.8,0.1-1.6,0.1-2.3c1-0.8,1.9-1.5,2.9-2.3c4,1.9,1.4-5.2,2.2-7.5c1.1,3.5-0.8,10.5,4.8,9.3c-0.5-2.8-2.2-5.2-2.2-8
		C143.4,74.3,144.6,72.3,144.3,68.8z"/>
</g>
<g id="_x23_3a3b3cff">
	<path class="st105" d="M43,70c4.3,0.8,8.8,0,12.9,1.1c0.1,3.7,0.2,11,0.2,14.6c6.8,4.1,23.1,5.4,20.8-6.8c-3.8-10.8,7-7.2,13.2-8.9
		c-2.2,11.3-13.2,21.2-25,20.8C54.3,89.5,44.4,81,43,70z"/>
</g>
<g id="_x23_f39ac2ff">
	<path class="st106" d="M12.1,76c-0.6-1.9,0.2-3.8,1.8-5C14.5,72.9,13.7,74.8,12.1,76z"/>
</g>
<g id="_x23_75163cff">
	<path class="st107" d="M16.3,75.9c-1.1-1.6,0-4.7,2-4.8C18.1,72.9,17.5,74.5,16.3,75.9z"/>
</g>
<g id="_x23_a7b85dff">
	<path class="st108" d="M229.4,71.8c1.1,5.8,0.5,11.7,1.5,17.5c0.1,0.4,0.2,1.3,0.3,1.8c0.2,1.4,0.6,2.7,0.9,4.1
		c0.1,0.6,0.3,1.9,0.4,2.5c0.1,3.4-1.5,7.3,0.8,10.3c1,3.8-1.5,5.3-2.9,7.8l-0.3,0.9c-5.1-0.8-5.2,4.4-5.1,8.4l-0.3,0.8
		c-1.2,4.1-3.7,14.1,3.1,13.7c0.1,0.4,0.4,1.1,0.5,1.5c-0.9,3.4-1.7,6.8-2.1,10.2c-1.2,2.1-2.7,3.9-4.2,5.8
		c-2.2,1.3-3.7,0.6-4.1-1.9c4.4-10.2,4.2-22.4-1.1-32.1c9.6,0.8,1.7-13.4,4.3-20c0.5,0.3,1.5,1,1.9,1.4c1.3,2.4,2.5,5,3.5,7.6
		c6.9-3,3.1-12.8,2.8-18.7c-0.2-1.7-0.4-3.5-0.7-5.2c0.2-3.9,0.3-7.8,0.1-11.8C228.8,74.7,229.1,73.2,229.4,71.8z"/>
</g>
<g id="_x23_e8c3c8ff">
	<path class="st109" d="M224.8,86.1c-1.7-4.3-0.6-9.2,0.2-13.6c1.2,1.2,2.3,2.4,3.5,3.6c0.2,3.9,0.2,7.8-0.1,11.8
		C227.2,87.3,226,86.7,224.8,86.1z"/>
</g>
<g id="_x23_ef9bbfff">
	<path class="st110" d="M246.1,72.8c1.4,3.2,1.7,6.7,2,10.1C246.7,79.7,245.9,76.3,246.1,72.8z"/>
</g>
<g id="_x23_711320ff">
	<path class="st111" d="M210.6,76.2c6.9-3.9,2.5,9.9,8.5,6.9l0.9-0.2c0.4,1,0.8,2,1.2,3c-0.1,3.1-0.1,6.2,0,9.3
		c2.9-1.8,1.6-5.5,2.1-8.4c1.9,2.2,3.6,4.5,6,6.2c0.3,5.8,4.1,15.7-2.8,18.7c-1-2.6-2.2-5.1-3.5-7.6c2.1-8.6-3.1-7.2-1.9-1.4
		c-2.6,6.6,5.3,20.9-4.3,20c-1-1.2-1.9-2.4-2.8-3.7c-0.8-6.1-0.9-12.3,0-18.4c-0.8-1.6-2.3-2.6-3.6-3.8c0.4-3.4,1.6-2.5,3.1-0.1
		c3-2.4,1.7-8.6,2.6-12.1c-1,2.1-1.8,4.2-3,6.2c-1.7-1-3.2-2.2-4.9-3.2C208.9,83.9,210,80.1,210.6,76.2z"/>
</g>
<g id="_x23_719b3cff">
	<path class="st112" d="M118.7,85.8c1.2-3.1,2.4-6.2,4.2-9c-0.4,2.8-1.1,5.5-2,8.1C120.3,85.2,119.2,85.6,118.7,85.8z"/>
</g>
<g id="_x23_362e15ff">
	<path class="st113" d="M122.1,86.2c3.4-2.6,6.8-5.8,11.1-6.7c0,0.8,0,1.6-0.1,2.3c-2.6,2.3-5.5,4.4-7.4,7.4c-1.3,2.4-2.4,4.9-3,7.6
		c-4,13.3,5,33.9,21.2,31.1c7.2-2.1,11.9-8.5,13.1-15.6c1.4-1.1,2.5-1.5,2.3,0.8c-1.7,14.9-22.1,25.6-33.6,14.2
		c-5.1-3.9-7.4-10-9.1-16c0.1-4.2,0.1-8.4,0.1-12.6C117.6,94.2,120.2,90.3,122.1,86.2 M119.1,97.1c-1.9,8.7-1.4,20.1,6,26
		C120.3,115.3,119.8,104.3,119.1,97.1z"/>
</g>
<g id="_x23_49330fff">
	<path class="st114" d="M144.8,82.2c-1.5-2.4,0-2.3,2.1-1.7c1.4,0.4,2.8,0,4.1-0.4c3.2,6.1,5.9,13.1,12.2,16.7
		c0,0.9-0.1,1.7-0.2,2.6c-2.3-1.4-3.9-1.6-2.9,1.6c-0.6,0.8-1.2,1.6-1.9,2.4c-1.8-7.6-4.3-16.8-12.1-20.3
		C145.9,82.9,145.2,82.4,144.8,82.2z"/>
</g>
<g id="_x23_e1d37fff">
	<path class="st115" d="M133.1,81.9c3.8-1.3,7.9-1,11.8,0.3c0.4,0.2,1.1,0.7,1.4,1c-1.5,0.5-2.9,1-4.4,1.5
		c-4.7-0.7-8.7,1.4-11.8,4.6c-1.4,0.2-2.9,0.4-4.4,0.1C127.6,86.3,130.5,84.2,133.1,81.9z"/>
</g>
<g id="_x23_340414ff">
	<path class="st116" d="M239.9,81.1c2.7,4.4,1.6,11.2-1.9,15c6.2,1.6,5.7-6.7,6.8-10.3l0.1,1c1.4,11.4,1.4,22.9,0.1,34.2
		c-2.7,16.4-9.9,32.4-21,44.9c-2.8,2.5-5.7,5.1-8.2,7.9c-1.3,1.5-3.1,2.4-4.9,3c-5.1,0.9-5.3,5.3,2.1,3.2l0.8,0.1
		c1.6,1.7,3.3,3.4,5.1,5.1c2.2,5.1,2.6,13.3-1.8,17.9c1.5-5.1,3-14.4-3.8-16.1c-7.7,0.5-16-1.5-23.4,0.7c-1.3,2-2.2,4.2-3.5,6.3
		c-1.2-2.1-1.1-6.1-4.1-6.2c-6.1-0.9-12.4-1.5-18.5-0.1c-2.9-0.1-5.7-0.7-8.6-1.2c-3.7-1-11.3-2.6-0.9-3.2c3.3-0.2,8.4-0.4,9.7-4.3
		c2.1-8.7,5.3-17,8.8-25.2c1.6,6.2,4.3,12.1,9.6,16.1c12.8,7.8,32.8,3.1,39-10.7c0.2-0.5,0.6-1.5,0.7-2.1c1.5-1.9,3-3.7,4.2-5.8
		c2.3-2.9,1.6-6.8,2.1-10.2c4.3-7.8-3.2-9.1-3.6-15.1l0.3-0.8c1.2-3.1,4.2-5.2,5.1-8.4l0.3-0.9c0.5,2.2,0.7,5,3.7,4.2
		c-0.3-4,0.8-8.2-0.8-12c-0.2-3.5-0.1-6.9-0.8-10.3c-0.1-0.6-0.3-1.9-0.4-2.5c2.5-2,6.9-2.9,8.1-6.2
		C240.1,86.4,240.1,83.7,239.9,81.1 M169.7,178.4c-2.4,3.4,10.8,1,13.6,1.4c1.5-0.1,4.9,1.2,3.4-1.4c-4.7-2.5-8.8-5.8-12.7-9.3
		C170.8,170.4,171,175.4,169.7,178.4z"/>
</g>
<g id="_x23_6b1536ff">
	<path class="st117" d="M12.3,87.2c-1-1.5-0.2-4.8,1.7-4.9C14.1,84.1,13.3,85.7,12.3,87.2z"/>
</g>
<g id="_x23_e09e28ff">
	<path class="st118" d="M176,89.1c6.4-3.5,15.4-10.7,21.4-5c-0.7,1.6-1.5,3.2-2.3,4.8c-7.9,2.9-13.4,12-22.3,12.4
		c-0.7-0.1-2.2-0.4-3-0.5c-1.9-1-3.6-2.1-5.2-3.5c2.4-2.9,5.2-5.4,8.8-6.9C174.2,90,175.1,89.6,176,89.1z"/>
</g>
<g id="_x23_1b1c1dff">
	<path class="st119" d="M100.4,83.3c3.5,0.2,12.9-3,11.6,3.6c-0.4,5.6-7.5,2.1-11,3.1C97,90.8,96.2,83.3,100.4,83.3z"/>
</g>
<g id="_x23_debb3dff">
	<path class="st120" d="M146.3,83.1c7.8,3.4,10.3,12.7,12.1,20.3c-0.4,3-0.7,6-1.3,8.9c-2.5-1-3.2-3.1-2.2-6.5
		c1.3-8.9-4.6-18.2-13-21.2C143.3,84.1,144.8,83.6,146.3,83.1z"/>
</g>
<g id="_x23_f08bb6ff">
	<path class="st121" d="M248.1,82.9c0.6,2.1,1.3,4.3,1.9,6.5v10.1C248.1,94.3,248.4,88.5,248.1,82.9z"/>
</g>
<g id="_x23_acc167ff">
	<path class="st122" d="M118.7,85.8c0.6-0.2,1.7-0.6,2.2-0.9c0.3,0.3,0.9,1,1.2,1.3c-1.9,4.1-4.5,8-5.3,12.5
		c-0.7,4.1-1.3,8.5-0.1,12.6c1.7,6,4,12.1,9.1,16c11.4,11.4,31.8,0.7,33.6-14.2c0.7-0.8,1.5-1.6,2.3-2.3c12.8,5.5,27.7-0.4,37.6-9.1
		c0.8,2.5-6.3,9.4-0.2,7.4c4.2-2.9,4.9,2.8,1.8,4.9c-1.6,0.1-3.1,0.1-4.7,0.2c2.4-4.3-4.2-1.3-6.2-0.4c-7.1,2.9-11.4,9.7-14.3,16.5
		c-0.2-1.3-0.4-2.6-0.5-3.9c2.9-4.4,0.7-14.4-5.2-8.6c-0.4,0.3-1.3,1-1.7,1.3c-1.8,1.1-6.3,5.2-4.6,0.6c1.7-2.8-1.7-3.7-2.7-1.2
		c-2.2,3.8-4.3,7.6-5.9,11.7c-2,0.6-3.9,1.2-5.8,1.9c-6.3,2-13.1,1.1-19.4,2.9c-0.9-0.3-1.7-0.7-2.6-1c-2.4-2.6-4.9-5.1-7.2-7.8
		c-0.9-3.1-2.9-5.8-4.8-8.3c-0.8-1.2-1.5-2.4-2.3-3.7c-0.3-4.8-0.8-9.5-0.9-14.3C114.4,95.3,116.3,90.5,118.7,85.8z"/>
</g>
<g id="_x23_7f5a1fff">
	<path class="st123" d="M130,89.2c3.1-3.2,7.1-5.3,11.8-4.6c8.4,3,14.3,12.3,13,21.2c-0.5,3.1-0.4,6.4-1.5,9.4
		c0.1-2-0.1-3.9-2.3-2.2c0.1-0.7,0.2-2,0.3-2.7c3.1-9.4-4.2-25.9-15.6-22.3c-0.4,0.2-1.3,0.6-1.7,0.9c-13.4,8-8.1,36.9,10.3,33.4
		c-0.3,0.5-0.8,1.6-1.1,2.1c-14,2.9-20.6-15.1-18.3-26.4C126,94.7,127.9,91.8,130,89.2z"/>
</g>
<g id="_x23_924f3eff">
	<path class="st124" d="M212.9,90.9c1.2-2,2-4.1,3-6.2c-0.9,3.5,0.3,9.7-2.6,12.1c-1.5-2.4-2.6-3.3-3.1,0.1
		c-0.5,1.1-1.1,2.2-1.7,3.3c-1.1-2-2.5-3.8-4-5.5c1-2.4,2.3-4.7,3.4-7C209.7,88.7,211.3,89.8,212.9,90.9z"/>
</g>
<g id="_x23_a55551ff">
	<path class="st125" d="M221.1,85.9c1.2,0,2.5,0.1,3.7,0.1c1.2,0.6,2.4,1.2,3.6,1.8c0.3,1.7,0.5,3.5,0.7,5.2c-2.4-1.7-4.1-4-6-6.2
		c-0.5,2.9,0.8,6.6-2.1,8.4C221,92.2,221.1,89,221.1,85.9z"/>
</g>
<g id="_x23_79193fff">
	<path class="st126" d="M10.4,92c-1.2-1.5-0.2-4.8,1.9-4.8C12.1,88.9,11.4,90.5,10.4,92z"/>
</g>
<g id="_x23_e5c96bff">
	<path class="st127" d="M135.6,87.9c11.4-3.6,18.7,12.9,15.6,22.3c-2.7,1.2-5.7,1-6.5-2.3c0.3-0.3,1-0.8,1.3-1.1
		C153.8,100.4,144.7,87.3,135.6,87.9z"/>
</g>
<g id="_x23_9d2355ff">
	<path class="st128" d="M244.9,86.8c3.2,9.8,3.5,24.6,0.1,34.2C246.3,109.7,246.4,98.2,244.9,86.8z"/>
</g>
<g id="_x23_f1c42bff">
	<path class="st129" d="M133.9,88.8c0.4-0.2,1.3-0.6,1.7-0.9c9-0.7,18.2,12.5,10.4,18.9c-1-5.4-3.3-10.6-6.8-14.8
		c-2.2,4.5-4.2,9.1-6.4,13.6C126.6,104,130.3,92.8,133.9,88.8z"/>
</g>
<g id="_x23_d4b137ff">
	<path class="st130" d="M122.6,96.8c0.7-2.7,1.7-5.2,3-7.6c1.5,0.3,2.9,0.2,4.4-0.1c-2.1,2.7-4.1,5.5-5.2,8.8
		C123.4,99,122.5,98.9,122.6,96.8z"/>
</g>
<g id="_x23_d3891cff">
	<path class="st131" d="M144.2,122.2c-18.3,3.5-23.6-25.5-10.3-33.4c-3.6,4-7.3,15.2-1.1,16.8c1.4,2.6,8.9,7.2,2,5.6
		c0.4,3.6,2.7,6.7,5.2,9.2c1.4-2.7,8.9-11.8,1.8-9.6c0.9-1,1.9-2,2.9-2.9c0.8,3.3,3.8,3.5,6.5,2.3c-0.1,0.7-0.2,2-0.3,2.7
		C149.5,116.5,147.1,119.6,144.2,122.2z"/>
</g>
<g id="_x23_ca851eff">
	<path class="st132" d="M172.8,101.3c9-0.4,14.4-9.4,22.3-12.4C191,96.6,182.3,104.7,172.8,101.3z"/>
</g>
<g id="_x23_862f4aff">
	<path class="st133" d="M231.1,91.1c3.1-0.3,6.5,0.1,8.9-2.1c-1.2,3.3-5.6,4.2-8.1,6.2C231.7,93.8,231.4,92.5,231.1,91.1z"/>
</g>
<g id="_x23_95550cff">
	<path class="st134" d="M139.2,92c3.5,4.2,5.8,9.4,6.8,14.8c-0.3,0.3-1,0.8-1.3,1.1c-1,0.9-2,1.9-2.9,2.9c7.1-2.3-0.4,6.9-1.8,9.6
		c-2.5-2.5-4.8-5.6-5.2-9.2c6.9,1.6-0.6-2.9-2-5.6C135.1,101.1,137.1,96.6,139.2,92z"/>
</g>
<g id="_x23_77183fff">
	<path class="st135" d="M7.4,103.3c-0.4-3.4,0.2-8.4,2.8-10.5C9.2,96.3,8.3,99.8,7.4,103.3z"/>
</g>
<g id="_x23_474849ff">
	<path class="st136" d="M69,106.1c-0.9-11.6,17.6-19.3,22.1-6.2c-0.5,0-1.5,0.1-2,0.2c-5.4-6.6-16.4-4-18.3,4.8
		C70.4,105.1,69.4,105.8,69,106.1z"/>
</g>
<g id="_x23_b28754ff">
	<path class="st137" d="M199.2,101.6c1.6-2.5,3.5-4.7,5.4-7c1.4,1.8,2.9,3.5,4,5.5c-1.3,3.7-6.9,12.2,0.5,8.9
		c-1.1,1.1-2.8,2-2.5,3.9c-2-0.1-4.5-0.4-2.6,2.1c-1.1-0.4-2.1-0.8-3.2-1.2c3.1-2,2.5-7.8-1.8-4.9
		C192.9,111.1,200,104.1,199.2,101.6z"/>
</g>
<g id="_x23_121212ff">
	<path class="st138" d="M70.8,104.8c1.9-8.8,12.8-11.3,18.3-4.8c4.7,7.2,3.6,18.4-4.5,22.7C74.1,125.8,68.5,113.3,70.8,104.8
		 M78.4,99.3c-6.1-0.4-6.2,17.9-3.8,8.4c-0.4-5.2,7.3-9.3,10.7-5c2.1,1.4,1.8,5.4,4.7,5.3C89.5,102.5,84.5,96.7,78.4,99.3
		 M79.3,104.2c-4.6,2.3-3,13,2.8,10.1C88.4,113.2,86,100.7,79.3,104.2z"/>
</g>
<g id="_x23_775524ff">
	<path class="st139" d="M119.1,97.1c0.7,7.2,1.2,18.1,6,26C117.7,117.2,117.2,105.8,119.1,97.1z"/>
</g>
<g id="_x23_bf8022ff">
	<path class="st140" d="M143.9,127.9c-16.3,2.8-25.2-17.7-21.2-31.1c-0.2,2,0.8,2.1,2.2,1.1c-2.3,11.3,4.3,29.2,18.3,26.4
		c4.3-1.7,7.9-5.1,10.1-9.2c1.1-3,1-6.3,1.5-9.4c-1,3.4-0.3,5.5,2.2,6.5C155.8,119.4,151,125.8,143.9,127.9z"/>
</g>
<g id="_x23_887d26ff">
	<path class="st141" d="M163.3,96.8c0.3,0.1,1,0.4,1.3,0.5c1.6,1.3,3.4,2.5,5.2,3.5c0,0.8-0.1,1.6-0.1,2.4c-2.2-1.2-4.4-2.5-6.6-3.8
		C163.2,98.5,163.2,97.7,163.3,96.8z"/>
</g>
<g id="_x23_b62c38ff">
	<path class="st142" d="M210.2,96.9c1.2,1.2,2.8,2.3,3.6,3.8c-1.6,1.6-2.3,3.8-2.4,6.1c-0.7,0.8-1.5,1.6-2.3,2.3
		c-7.4,3.3-1.9-5.3-0.5-8.9C209.1,99.1,209.7,98,210.2,96.9z"/>
</g>
<g id="_x23_333434ff">
	<path class="st143" d="M54.4,98.2c4.5,0,9,0.8,13.6,0.8c-0.7,2.2-1.8,4.3-1.9,6.7c-0.1,1.7-0.1,3.5,0.1,5.2
		c3.4,8.3-4.5,13.7-8.1,20c10.3,0.9,23.3-1.5,32,1.1c-14,1.3-30.4-2.5-43.2,1.4c-1.1-0.9-2.7-2-3.5-0.1c-3.3,4.2,1.2,8.6,3.8,11.8
		c-5.9,7.6-17.6,16.6-27.1,10.9c-8.5-10.4-8.9-25.5-7.1-38.2c0.4,7.5-1.9,16.3,4.3,22c4.7,4.6,12.4,1.8,16.2-2.7
		C43.3,126.1,50.1,112.3,54.4,98.2z"/>
</g>
<g id="_x23_343436ff">
	<path class="st144" d="M94.2,98.8c5,0.3,10,0.2,14.9-0.6c-2.1,4.2-3.8,8.7-6.3,12.7C93.4,114.2,96.6,103.8,94.2,98.8z"/>
</g>
<g id="_x23_c7b249ff">
	<path class="st145" d="M160.2,101c-1-3.2,0.6-3,2.9-1.6c2.2,1.3,4.4,2.6,6.6,3.8c2,1.7,0.5,2.1-1.5,2.1
		C165.3,104.5,162.4,103.2,160.2,101z"/>
</g>
<g id="_x23_af524fff">
	<path class="st146" d="M220.9,102.8c-1.2-5.8,4.1-7.3,1.9,1.4C222.4,103.9,221.4,103.2,220.9,102.8z"/>
</g>
<g id="_x23_757231ff">
	<path class="st147" d="M232.4,97.7c0.8,3.4,0.6,6.9,0.8,10.3C230.9,105.1,232.5,101.1,232.4,97.7z"/>
</g>
<g id="_x23_2c2c2dff">
	<path class="st148" d="M78.4,99.3c6.2-2.6,11.2,3.2,11.7,8.8c-3,0.1-2.7-3.9-4.7-5.3c-3.5-4.4-11.2-0.2-10.7,5
		C72.1,117.2,72.2,98.9,78.4,99.3z"/>
</g>
<g id="_x23_5d7341ff">
	<path class="st149" d="M116.6,111.3c-1.2-4.1-0.6-8.5,0.1-12.6C116.7,102.9,116.7,107.1,116.6,111.3z"/>
</g>
<g id="_x23_2a2a2aff">
	<path class="st150" d="M89.1,100c0.5,0,1.5-0.1,2-0.2l0.8,0c4.9,9.1,2.5,22.3-7.9,26.2c-10.9,2.2-16.5-9.7-15.9-18.8
		c0.2-0.3,0.7-0.8,1-1.1c0.4-0.3,1.4-1,1.8-1.3c-2.3,8.6,3.3,21.1,13.8,17.9C92.7,118.5,93.7,107.2,89.1,100z"/>
</g>
<g id="_x23_9a7434ff">
	<path class="st151" d="M110.7,102.7c0.4-1,0.8-1.9,1.2-2.8c0.2,4.8,0.7,9.5,0.9,14.3C110.4,110.9,111.2,106.6,110.7,102.7z"/>
</g>
<g id="_x23_7a983cff">
	<path class="st152" d="M160.2,101c2.2,2.2,5.1,3.5,8.1,4.3l-0.6,0.5c-2.1,1.5-4.1,3.2-6,5c-0.8,0.7-1.6,1.5-2.3,2.3
		c0.2-2.3-0.9-1.9-2.3-0.8c0.7-2.9,1-5.9,1.3-8.9C159,102.6,159.6,101.8,160.2,101z"/>
</g>
<g id="_x23_976344ff">
	<path class="st153" d="M211.4,106.8c0.2-2.2,0.8-4.4,2.4-6.1c-0.9,6.1-0.8,12.3,0,18.4c-0.9-1-1.8-1.9-2.7-2.8
		C211.8,113.2,212.4,109.9,211.4,106.8z"/>
</g>
<g id="_x23_6d1638ff">
	<path class="st154" d="M5.3,112.3c-0.3-2.7-0.4-8.5,2.1-9C6.9,106.3,6.2,109.3,5.3,112.3z"/>
</g>
<g id="_x23_9c1025ff">
	<path class="st155" d="M109.9,104.8c0.2-0.5,0.6-1.6,0.8-2.1c0.5,3.8-0.3,8.2,2.1,11.4c0.7,1.2,1.5,2.5,2.3,3.7
		c0.9,3.2,2.3,6.2,4.8,8.3c2.3,2.7,4.8,5.2,7.2,7.8c-10.3,0.2-14.6-11.1-18.1-19.1C107.1,111.6,109.6,108.2,109.9,104.8z"/>
</g>
<g id="_x23_f595bdff">
	<path class="st156" d="M2.1,108.9c-0.5-1.7-0.6-3.7,0.7-5C3.4,105.6,3.6,107.7,2.1,108.9z"/>
</g>
<g id="_x23_343335ff">
	<path class="st157" d="M79.3,104.2c6.7-3.5,9.2,9.1,2.8,10.1C76.3,117.1,74.7,106.5,79.3,104.2z"/>
</g>
<g id="_x23_5a051bff">
	<path class="st158" d="M106.7,111.8c0.6-2.5,1.8-4.9,3.2-7c-0.3,3.4-2.8,6.8-0.8,10.1c3.5,8,7.7,19.3,18.1,19.1
		c0.9,0.3,1.7,0.7,2.6,1c2.3,1,4.8,0,7.1,0.1c0.7,1,1.5,2.1,2.2,3.1c-8.1,3.4-15.7-0.7-22.9-4.4
		C111.1,127.7,107.5,119.9,106.7,111.8z"/>
</g>
<g id="_x23_aec062ff">
	<path class="st159" d="M211.4,106.8c1,3.1,0.4,6.4-0.3,9.6c-1.5-1.2-3-2.3-4.6-3.4c-0.3-1.8,1.4-2.7,2.5-3.9
		C209.9,108.4,210.6,107.6,211.4,106.8z"/>
</g>
<g id="_x23_6e632dff">
	<path class="st160" d="M233.2,108c1.6,3.8,0.5,8.1,0.8,12c-3.1,0.8-3.3-2-3.7-4.2C231.7,113.3,234.2,111.8,233.2,108z"/>
</g>
<g id="_x23_f193b9ff">
	<path class="st161" d="M0,114.4c0.5-1.4,1.6-4.1,2.1-5.5c-0.4,4.2-1.1,8.4-2.1,12.5V114.4z"/>
</g>
<g id="_x23_ee96bbff">
	<path class="st162" d="M247.9,123.9c0.5-5.2,1.1-10.3,2.1-15.4v10C249.5,119.9,248.5,122.6,247.9,123.9z"/>
	<path class="st162" d="M197,240.1c2-2.4,4-4.8,6.1-7.2C203.2,236.5,199.8,238.6,197,240.1z"/>
</g>
<g id="_x23_280613ff">
	<path class="st163" d="M91.2,130c3.7-7.5,10.2-12.3,15.5-18.2c0.8,8,4.4,15.8,9.5,22c7.2,3.6,14.9,7.8,22.9,4.4l0.8,0.1
		c10.6,1.2,21.6-2,32.1,0.6l0.9,0.2l0.2,1c-11.3,0-22.6-0.6-33.8,0.1c-4.6,4.9-7.5,11.2-12.1,16.2c-0.4-5.1,0.5-10.1,0.8-15.1
		c-2.9-3.1-8.2-0.3-11.8-1.3c-4.1,2.6-7.5,7.4-10,0.9c-0.3-0.2-0.8-0.5-1.1-0.7c-2.7-0.1-5.3-0.2-8-0.2
		C94.2,137.3,92.9,133.4,91.2,130z"/>
</g>
<g id="_x23_53320dff">
	<path class="st164" d="M151,112.9c2.1-1.7,2.3,0.2,2.3,2.2c-2.2,4.1-5.8,7.4-10.1,9.2c0.3-0.5,0.8-1.6,1.1-2.1
		C147.1,119.6,149.5,116.5,151,112.9z"/>
</g>
<g id="_x23_6a8338ff">
	<path class="st165" d="M189.9,113.7c2-0.9,8.6-3.9,6.2,0.4c-1,0.2-1.9,0.4-2.9,0.5C192.1,114.4,191,114.1,189.9,113.7z"/>
</g>
<g id="_x23_881d47ff">
	<path class="st166" d="M5.2,146.2c-3.8-8.9-3.7-24.9-0.1-33.1C3.2,124,3.9,135.2,5.2,146.2z"/>
</g>
<g id="_x23_322b11ff">
	<path class="st167" d="M203.9,115.1c-1.9-2.5,0.6-2.2,2.6-2.1c1.6,1.1,3.1,2.2,4.6,3.4c0.9,0.9,1.8,1.9,2.7,2.8
		c0.9,1.2,1.8,2.5,2.8,3.7c5.4,9.8,5.6,22,1.1,32.1c-4.5,9.3-15.4,14.3-25.4,12.6c-8.4-3-15.7-10.9-16.1-20.1l0.9,0.2
		c1.8,2.7,2.3,6.2,4.8,8.5c-2.8-9.3-3.8-18.8-2.2-28.5c-3.7,5-2.6,11.6-3,17.4c-0.5-2.8-0.9-5.6-1.5-8.4c-0.2-2.2,0-4.4,0.3-6.5
		c2.9-6.8,7.1-13.7,14.3-16.5c1.1,0.3,2.2,0.6,3.3,1c-1.6,0.9-3.2,1.9-4.6,3.2c-4.3,3.8-6.3,9.5-7.8,14.9c-0.9,3.5-0.9,7-0.1,10.5
		c0.3,2.5,1,4.9,2,7.1c3.2,9.1,13,16.5,23,13.4c13.2-7.2,16.7-25.1,9.7-37.9c-1-2.8-2.9-5.1-5.1-7
		C208.6,117.1,206.2,116.1,203.9,115.1z"/>
</g>
<g id="_x23_ded68eff">
	<path class="st168" d="M193.2,114.7c1-0.2,1.9-0.3,2.9-0.5c1.5-0.1,3.1-0.2,4.7-0.2c1,0.4,2.1,0.8,3.2,1.2c2.2,1,4.6,2,6.4,3.8
		c-0.4,1.5-0.7,3-1.2,4.5c-3.2-3.5-7.5-5.4-12.4-4.2c-1.6,0.2-3.1,0.7-4.7,1c-1.2-0.8-2.4-1.5-3.6-2.3
		C190,116.6,191.6,115.6,193.2,114.7z"/>
</g>
<g id="_x23_bd724cff">
	<path class="st169" d="M169.9,117.8c5.9-5.8,8.1,4.2,5.2,8.6C176.3,121,175.7,116.6,169.9,117.8z"/>
</g>
<g id="_x23_c37d4fff">
	<path class="st170" d="M160.9,118.4c1-2.5,4.4-1.5,2.7,1.2c-1.7,4.6,2.8,0.5,4.6-0.6c-1.2,2.8-3.4,5.8-7,5
		C161.4,122.2,162,120.1,160.9,118.4z"/>
</g>
<g id="_x23_723526ff">
	<path class="st171" d="M224.9,125.1c-0.1-4,0-9.2,5.1-8.4C229.2,119.9,226.1,121.9,224.9,125.1z"/>
</g>
<g id="_x23_b76436ff">
	<path class="st172" d="M115.1,117.9c1.9,2.6,3.9,5.2,4.8,8.3C117.4,124,116,121,115.1,117.9z"/>
</g>
<g id="_x23_c61c45ff">
	<path class="st173" d="M168.2,119.1c0.4-0.3,1.3-1,1.7-1.3c5.8-1.2,6.4,3.2,5.2,8.6l-0.7-0.7c-1.1-1-2.1-2-3.4-2.8
		c-4.8,3.4-10.2,6-16,7.2c1.5-4.1,3.7-7.9,5.9-11.7c1.1,1.7,0.5,3.8,0.4,5.7C164.8,124.9,167,121.9,168.2,119.1z"/>
</g>
<g id="_x23_d6b536ff">
	<path class="st174" d="M180.8,132.8c1.5-5.3,3.5-11.1,7.8-14.9c1.2,0.8,2.4,1.6,3.6,2.3c-4.3,3.5-7.5,8.2-8,13.8
		c-0.4,4.9,0.3,9.8,1,14.7c-0.6,0.4-1.8,1.3-2.4,1.7c-1-2.3-1.8-4.6-2-7.1C180.8,139.7,180.9,136.3,180.8,132.8z"/>
</g>
<g id="_x23_907826ff">
	<path class="st175" d="M192.1,120.2c1.6-0.4,3.1-0.8,4.7-1c0.8,0.5,1.6,1,2.4,1.4c-8.2-0.6-11.4,7.6-14.1,13.7l-0.9-0.4
		C184.6,128.4,187.8,123.7,192.1,120.2z"/>
</g>
<g id="_x23_6e4616ff">
	<path class="st176" d="M196.8,119.2c4.8-1.2,9.2,0.7,12.4,4.2c1.5,1.9,2.9,3.8,4.1,5.9c3.5,9.6,3.3,22.7-6.1,29
		c-8.8,5.5-18.6-1.2-22.1-9.5c-0.7-4.9-1.4-9.8-1-14.7l0.9,0.4c-1,4.9,0.4,9.6,2.7,13.8c1.4,7.4,11.8,13.2,18,7.5
		c8.5-6.3,7.9-19.6,2.8-28c-0.8-1.5-1.9-2.9-3.3-3.9c-1.9-1.3-3.9-2.2-6-3.2C198.4,120.2,197.6,119.7,196.8,119.2z"/>
</g>
<g id="_x23_d2ae33ff">
	<path class="st177" d="M210.4,118.8c2.2,1.9,4,4.3,5.1,7c-0.4,1.3-0.5,3-2.1,3.4c-1.3-2-2.7-4-4.1-5.9
		C209.6,121.8,210,120.3,210.4,118.8z"/>
</g>
<g id="_x23_eabc33ff">
	<path class="st178" d="M185.1,134.4c2.7-6.1,6-14.4,14.1-13.7c2,1,4.1,1.9,6,3.2c-0.9,1.1-1.9,2.2-2.7,3.4c-3.3-8.2-8,1.8-10.5,5.9
		c3.1,7.8,6.7-7.7,9.9,0.9c-1.2,0.2-2.8-0.1-3.1,1.5c-1.4,2-2,4.3-1.1,6.6c-0.3,1-0.6,2-0.9,2.9c-2.3-6.2-7.3,1.4-2.6,4
		c-0.1,4-4.5-0.1-6.4-0.8C185.5,143.9,184.1,139.2,185.1,134.4 M189.2,137.1c-2,1-1.6,4.8,0.8,4.9
		C193.2,141.9,192.4,136,189.2,137.1z"/>
</g>
<g id="_x23_930d37ff">
	<path class="st179" d="M155,130.1c5.8-1.3,11.2-3.8,16-7.2c1.2,0.8,2.3,1.8,3.4,2.8c-0.7,4.4-1.2,8.9-1.5,13.4l-0.9-0.2
		c-2.2-2.5-1.7-5.8-2.2-8.9c-8.1,2.8-17.8,1.3-24.6,7.1c-1.5,1.2-3.5,0.9-5.2,1.1l-0.8-0.1c-0.7-1.1-1.5-2.1-2.2-3.1
		c4-0.5,9.2,0.4,12.3-3C151.1,131.3,153.1,130.8,155,130.1z"/>
</g>
<g id="_x23_965d12ff">
	<path class="st180" d="M192,133.1c2.5-4.1,7.2-14.2,10.5-5.9c3.2,1.9,4.9,9.9-0.6,6.8C198.7,125.4,195.1,140.9,192,133.1z"/>
</g>
<g id="_x23_e7c06fff">
	<path class="st181" d="M205.2,123.8c1.4,1,2.5,2.4,3.3,3.9c0.5,5.2-6.7,9-4.1,13.9c-0.9,0.6-1.9,1.1-2.6,2.1c-1.4,2.4-3.3,5-5,1.3
		c0.3-1,0.6-2,0.9-2.9c3.7-0.2,4.4-5.1,1.1-6.6c0.3-1.6,1.9-1.3,3.1-1.5c5.5,3.1,3.8-4.9,0.6-6.8C203.3,126,204.2,124.9,205.2,123.8
		z"/>
</g>
<g id="_x23_f09cbfff">
	<path class="st182" d="M246.1,133.1c-0.2-3.2,0.5-6.3,1.9-9.2C248.1,127.1,247.4,130.2,246.1,133.1z"/>
</g>
<g id="_x23_8f7748ff">
	<path class="st183" d="M174.4,125.7l0.7,0.7c0.1,1.3,0.3,2.6,0.5,3.9c-0.3,2.2-0.4,4.3-0.3,6.5c-0.2,2-0.8,3.9-1.8,5.6
		c-0.1-0.6-0.4-1.7-0.5-2.2l-0.2-1C173.2,134.6,173.7,130.2,174.4,125.7z"/>
</g>
<g id="_x23_c07e1fff">
	<path class="st184" d="M215.4,125.8c7,12.8,3.5,30.7-9.7,37.9c-10,3.1-19.7-4.3-23-13.4c0.6-0.4,1.8-1.3,2.4-1.7
		c3.5,8.3,13.3,15.1,22.1,9.5c9.4-6.3,9.6-19.4,6.1-29C214.9,128.9,215,127.2,215.4,125.8z"/>
</g>
<g id="_x23_7e392bff">
	<path class="st185" d="M227.7,139.5c-6.8,0.4-4.3-9.6-3.1-13.7c0.4,6,8,7.3,3.6,15.1C228.1,140.6,227.9,139.9,227.7,139.5z"/>
</g>
<g id="_x23_8c7130ff">
	<path class="st186" d="M176.8,145.2c0.4-5.8-0.7-12.4,3-17.4c-1.6,9.6-0.6,19.2,2.2,28.5c-2.5-2.2-3-5.7-4.8-8.5
		C177.1,147.1,176.9,145.8,176.8,145.2z"/>
</g>
<g id="_x23_d18921ff">
	<path class="st187" d="M208.5,127.7c5.2,8.4,5.7,21.7-2.8,28c-6.2,5.7-16.6-0.1-18-7.5c1.9,0.8,6.3,4.8,6.4,0.8
		c1.6,2.1,3.2,4.3,5,6.2c2.4-1.6,11.4-13.9,2.7-11.6c0.6-1,1.6-1.5,2.6-2.1C201.8,136.7,209,132.9,208.5,127.7 M207.2,136.1
		c-1.3,1.9-1.3,3.9,0,5.8C211.1,143,211.1,135,207.2,136.1z"/>
</g>
<g id="_x23_67042aff">
	<path class="st188" d="M145.1,137.1c6.8-5.8,16.6-4.3,24.6-7.1c0.5,3,0,6.4,2.2,8.9c-10.5-2.6-21.4,0.6-32.1-0.6
		C141.7,138,143.7,138.3,145.1,137.1z"/>
</g>
<g id="_x23_64848dff">
	<path class="st189" d="M46.8,133.4c12.9-3.9,29.3-0.1,43.2-1.4c0.2,1.2,0,2.2-0.8,2.9c-11.7-4.1-28.5-1.5-41.9-1.1L46.8,133.4z"/>
</g>
<g id="_x23_a16442ff">
	<path class="st190" d="M129.8,135c6.3-1.8,13.1-0.9,19.4-2.9c-3.1,3.3-8.3,2.5-12.3,3C134.5,134.9,132,135.9,129.8,135z"/>
</g>
<g id="_x23_82a9b3ff">
	<path class="st191" d="M47.4,133.8c13.4-0.4,30.2-3.1,41.9,1.1c-0.5,0.3-1.6,0.9-2.2,1.2l-0.6-0.5c-10.8-3.2-24-1.8-35.6-1.2
		c-0.5,0.1-1.6,0.4-2.1,0.5C48.4,134.6,47.7,134.1,47.4,133.8z"/>
</g>
<g id="_x23_977318ff">
	<path class="st192" d="M180.7,143.2c-0.8-3.5-0.8-7,0.1-10.5C180.9,136.3,180.8,139.7,180.7,143.2z"/>
</g>
<g id="_x23_5e7981ff">
	<path class="st193" d="M48.7,134.9c0.5-0.1,1.6-0.4,2.1-0.5c0.3,0.3,0.8,0.8,1.1,1c8.5,6.9-1.8,17.4-3.3,25.5
		c-0.7,1.6-1.3,3.3-2,4.9c-0.5,1-1.1,2.1-1.7,3.1c-0.3,0.5-0.9,1.4-1.1,1.9c-0.4,2.4-0.8,4.8-1,7.3c-2.1-12.7,8.1-24.1,10.8-36.4
		C52,139.4,50.4,137.2,48.7,134.9z"/>
</g>
<g id="_x23_3a535aff">
	<path class="st194" d="M50.8,134.4c11.7-0.6,24.9-2,35.6,1.2l-1-0.1c-11.1-0.8-22.4-1.2-33.5-0.1C51.7,135.2,51.1,134.7,50.8,134.4
		z"/>
</g>
<g id="_x23_0b1318ff">
	<path class="st195" d="M52,135.5c11.1-1.1,22.4-0.6,33.5,0.1c-3,2.1-4.4,10.3-8.2,5.4c-0.5-0.3-1.5-1-2-1.3
		c-3.3,0.5-18.5-3.6-16.4,1c0.3,0.3,1,0.8,1.3,1.1c2.3,6-3.1,11.2-4.2,16.9c-0.4,1.1-0.7,2.2-1.1,3.4c-1.6-0.3-4.8-0.8-6.4-1.1
		C50.2,152.8,60.5,142.4,52,135.5z"/>
</g>
<g id="_x23_6a828aff">
	<path class="st196" d="M85.5,135.6l1,0.1l0.6,0.5c-3.1,3.4-3.5,9.2-7,12c-1.5-2-2.6-4.2-4.1-6.2c0.3-0.2,0.9-0.6,1.2-0.9
		C81.1,145.9,82.5,137.7,85.5,135.6z"/>
</g>
<g id="_x23_975e1dff">
	<path class="st197" d="M197.7,142.1c-0.9-2.3-0.3-4.7,1.1-6.6C202.1,136.9,201.3,141.9,197.7,142.1z"/>
</g>
<g id="_x23_92530fff">
	<path class="st198" d="M207.2,136.1c3.9-1.1,3.9,6.9,0,5.8C205.9,140,205.9,138,207.2,136.1z"/>
</g>
<g id="_x23_09070bff">
	<path class="st199" d="M175.3,136.8c0.6,2.8,1,5.6,1.5,8.4c0.1,0.6,0.3,1.9,0.4,2.6l-0.9-0.2c-0.4,0.1-1.2,0.2-1.6,0.3
		c-0.7,1.9-1.3,3.9-2,5.8c-3.4,8.2-6.7,16.5-8.8,25.2c-1.2,4-6.3,4.1-9.7,4.3c-15.1-1.6-30.3,1.5-45.3,0c-0.9-0.8-1.7-1.6-2.6-2.4
		c-0.3-0.2-0.9-0.8-1.2-1c-10.8-2.1-22.1-0.1-33.1-1c-1.5-3.7-0.8-5.1,2.1-4.2c11.2,4.6,13.6-9.2,19.7-14.9c0,1.7,0,3.3-0.1,5
		c-0.2,2.5-0.6,7.6-0.8,10.1c6.8,0.1,13.6,0.6,20.3-0.5c1.2-1.6,1.7-3.6,1.9-5.6c-2.5,7.4,6.1,7.7,9.8,5.2c0.2-0.3,0.6-1,0.8-1.3
		c9.7,4.2,24.9,3.1,35.3,1.3c0.9-1.5,1.7-3.1,2.4-4.8c4.1-8.5-10.4-0.4-11.8-6.2c0.3-0.3,1-0.8,1.3-1.1c3.8-1.1,10.2,2,13.1-0.9
		c0.9-1.9,1.7-3.9,2.4-5.9c0.6-2.4,2.5-6.7-4.4-3.2c-4.6,0.6-9.9-1.4-14,1c-2.2,1.3-4.4,2.8-5.8,5c0.2-2.5,0.8-4.9,1.5-7.2
		c8-1.8,16.7,0.8,24.6-1.4c1.4-2.1,2.3-4.6,3.2-6.9C174.5,140.7,175.1,138.8,175.3,136.8z"/>
</g>
<g id="_x23_985a0dff">
	<path class="st200" d="M189.2,137.1c3.2-1.2,4,4.8,0.8,4.9C187.6,141.9,187.2,138.1,189.2,137.1z"/>
</g>
<g id="_x23_f68dbbff">
	<path class="st201" d="M0,138.6c1.2,3.4,2.1,7,1.9,10.7c-0.6-1.6-1.2-3.1-1.9-4.7V138.6z"/>
</g>
<g id="_x23_42555dff">
	<path class="st202" d="M58.9,140.7c-2.2-4.7,13.1-0.5,16.4-1C69.8,139.8,64.3,140.1,58.9,140.7z"/>
</g>
<g id="_x23_f2a4c1ff">
	<path class="st203" d="M240.9,147c0.5-2.9,1.3-5.8,3.1-8.1C243.6,141.8,243,144.8,240.9,147z"/>
</g>
<g id="_x23_8eaebbff">
	<path class="st204" d="M58.9,140.7c5.4-0.5,10.9-0.8,16.4-1c0.5,0.3,1.5,1,2,1.3c-0.3,0.2-0.9,0.6-1.2,0.9l-0.8-0.1
		c-3.5,0.6-12.3-4-12.4,2c-0.9-0.6-1.7-1.3-2.6-2C59.9,141.5,59.2,141,58.9,140.7z"/>
</g>
<g id="_x23_6d96a5ff">
	<path class="st205" d="M91,144c-2.8-4.6,1.1-5.2,6-4c2.7,0,5.3,0.1,8,0.2c-0.3,1.9-0.1,3.9,0.3,5.8c-0.2,7.3-1,14.6-1.6,21.8
		c2.2,8-4.9,6.3-9.6,6.1c-0.1-3.1-0.3-6.1-0.3-9.1c0.1-1.7,0.1-3.3,0.1-5c-6.1,5.8-8.5,19.5-19.7,14.9c-0.1-0.6-0.2-1.7-0.3-2.3
		c1.7-2.2,3.4-4.3,5.1-6.5l1,0.3c-0.8,2.1-1.9,4-2.9,6c4.8,1.9,7.2-1.7,8.9-5.1c1.4-2,2.8-3.9,4-5.9c1.6-2.6,3.2-5.2,5.2-7.5
		c0.4,3.7,0.6,7.4,0.4,11c-5.5,9.3,8.1,9.6,6.4,1.3c0.1-1.4,0.2-2.7,0.2-4.1c0.2-2.7,0.5-5.4,0.8-8.2l0.1-0.8
		c0.7-3.7,1-7.4,0.9-11.1c-3.9-0.5-7.6-0.3-11.1,0.8C92.5,143.1,91.5,143.7,91,144z"/>
</g>
<g id="_x23_41545eff">
	<path class="st206" d="M105,140.2c0.3,0.2,0.8,0.5,1.1,0.7c0.4,1.8,0,3.6-0.8,5.2C104.9,144.1,104.7,142.1,105,140.2z"/>
</g>
<g id="_x23_0f1115ff">
	<path class="st207" d="M106.1,140.9c2.4,6.5,5.9,1.7,10-0.9c-2.2,7.8-5.6,15.1-8.2,22.7c-1.2,2.8-2.3,5.7-3.3,8.6
		c-0.3-1.1-0.6-2.3-0.8-3.5c0.6-7.3,1.3-14.5,1.6-21.8C106.1,144.4,106.5,142.6,106.1,140.9z"/>
</g>
<g id="_x23_698690ff">
	<path class="st208" d="M116.1,139.9c3.6,1,9-1.8,11.8,1.3c-0.3,5-1.2,10.1-0.8,15.1c4.6-4.9,7.5-11.2,12.1-16.2
		c11.2-0.7,22.6,0,33.8-0.1c0.1,0.6,0.3,1.7,0.5,2.2c-0.9,2.4-1.8,4.8-3.2,6.9c-8-0.1-16-0.4-23.9-0.9c-0.2,0.6-0.5,1.8-0.6,2.4
		c-0.7,2.4-1.3,4.8-1.5,7.2c-0.3,1.8-0.7,3.5-0.7,5.3c0,0.4-0.1,1.4-0.1,1.8c-0.4,1.1-0.7,2.1-1.1,3.2c-0.3-7.4-2.6,2.6-3.7,5.1
		l-0.9-0.1c0.6-5,4.4-9.5,3.4-14.6c1.3-5.4,4.2-10.4,5.7-15.8c-10.9-2.8-14.1,10.2-19.2,17.3c-1.1,1.5-2.3,2.9-3.6,4.2
		c0-1.9-0.1-5.6-0.2-7.5c0.4-5.4,5.2-17.4-4.9-13.9c-4.7,2.2-4.2,10.8-7.4,15c-0.9,2.1-1.6,4.2-2.4,6.3c-0.3-0.4-1-1.2-1.4-1.6
		C110.5,155,113.9,147.7,116.1,139.9 M152.2,143c-0.4,0.6-1.2,1.8-1.6,2.3c-1.3,3,17,2.1,19.4,0.6c0-0.7,0-2.2,0-3
		C166.9,140.2,154.8,142.1,152.2,143z"/>
</g>
<g id="_x23_5c7983ff">
	<path class="st209" d="M62.8,143.8c0.1-6,8.9-1.4,12.4-2c-2.7,0.1-8,0.3-10.7,0.4c-0.9,3.3-2.1,6.5-3.5,9.7c-0.4,1-0.8,2-1.1,3.1
		c-0.8,2.1-1.5,4.2-2.4,6.3c-0.3-0.6-1-1.9-1.4-2.6c1-5.7,6.5-11,4.2-16.9C61.1,142.4,61.9,143.1,62.8,143.8z"/>
</g>
<g id="_x23_634628ff">
	<path class="st210" d="M226.1,151.2c0.4-3.5,1.3-6.9,2.1-10.2C227.7,144.4,228.4,148.3,226.1,151.2z"/>
</g>
<g id="_x23_465964ff">
	<path class="st211" d="M92.9,142.8c3.5-1.1,7.2-1.3,11.1-0.8c0.1,3.7-0.2,7.4-0.9,11.1c0-3.3,0.1-6.7-0.3-10
		C99.6,143,96.2,142.9,92.9,142.8z"/>
</g>
<g id="_x23_40505cff">
	<path class="st212" d="M152.2,143c2.5-1,14.6-2.8,17.8,0C164.1,143,158.1,143,152.2,143z"/>
</g>
<g id="_x23_96580bff">
	<path class="st213" d="M194.2,149c-4.7-2.6,0.3-10.3,2.6-4c1.7,3.7,3.6,1.1,5-1.3c8.7-2.3-0.3,9.9-2.7,11.6
		C197.4,153.3,195.8,151.1,194.2,149z"/>
</g>
<g id="_x23_678084ff">
	<path class="st214" d="M91,144c0.5-0.3,1.4-0.9,1.9-1.2c3.4,6.8-4.9,11.8-8,17.3c-1.5,2-2.7,4.2-4.1,6.3l-0.8-0.2l-1-0.3
		C81.6,158.1,91.7,152.1,91,144z"/>
</g>
<g id="_x23_0a1117ff">
	<path class="st215" d="M92.9,142.8c3.3,0.1,6.6,0.2,9.9,0.3c0.3,3.3,0.2,6.6,0.3,10l-0.1,0.8c-0.4,2.7-0.9,5.4-0.8,8.2
		c-2.6-2-8.5,1.9-5.2-5.1c-0.1-1.6,0.5-5.7-1.7-3.2c-2,2.3-3.5,4.9-5.2,7.5c-1.7-0.3-3.4-0.7-5.1-1.1
		C88,154.6,96.3,149.6,92.9,142.8z"/>
</g>
<g id="_x23_080f11ff">
	<path class="st216" d="M111.7,158c3.2-4.2,2.7-12.8,7.4-15c10.1-3.6,5.3,8.5,4.9,13.9c-0.6,1.8-1.4,3.7-3.7,3.2
		c3.5-7.7-3.6-5.6-3.2-1.9l-0.2,0.9C115,160.4,112.8,160.1,111.7,158z"/>
</g>
<g id="_x23_0c181dff">
	<path class="st217" d="M127.7,160.1c5.1-7.1,8.3-20,19.2-17.3c-1.5,5.4-4.3,10.3-5.7,15.8c-0.7,1.6-1.3,3.2-2,4.8
		c-2.2-0.3-4.2-1.3-4.7-3.6c0-0.4,0.1-1.3,0.2-1.8c5.4-1.4-0.8-5.7-0.8-0.4c-1,1.1-1.9,2.3-2.9,3.5
		C129.9,160.9,128.8,160.5,127.7,160.1z"/>
</g>
<g id="_x23_0e1015ff">
	<path class="st218" d="M152.2,143c5.9,0,11.9,0,17.8,0c0,0.7,0,2.2,0,3c-6.4-0.3-13.1,0.9-19.4-0.6
		C151,144.8,151.8,143.6,152.2,143z"/>
</g>
<g id="_x23_334d58ff">
	<path class="st219" d="M170,146c-2.4,1.5-20.7,2.4-19.4-0.6C156.9,146.9,163.6,145.6,170,146z"/>
</g>
<g id="_x23_6b1533ff">
	<path class="st220" d="M5.4,147.1c1.2,1.6,1.8,3.5,1.7,5.5C5.3,152.3,4.4,148.7,5.4,147.1z"/>
</g>
<g id="_x23_876740ff">
	<path class="st221" d="M174.7,147.9c0.4-0.1,1.2-0.2,1.6-0.3c0.4,9.1,7.8,17.1,16.1,20.1c10,1.7,20.9-3.3,25.4-12.6
		c0.4,2.5,2,3.2,4.1,1.9c-0.2,0.5-0.5,1.6-0.7,2.1c-5.3,0.6-7.7,5.9-12.5,7.7C195.1,177.3,174.8,163.8,174.7,147.9z"/>
</g>
<g id="_x23_243536ff">
	<path class="st222" d="M146.3,148.4c8,0.6,15.9,0.8,23.9,0.9c-7.9,2.2-16.5-0.4-24.6,1.4C145.8,150.1,146.1,148.9,146.3,148.4z"/>
</g>
<g id="_x23_660b1eff">
	<path class="st223" d="M172.6,153.7c0.8-1.9,1.4-3.9,2-5.8c0.1,15.9,20.4,29.4,34,18.9c4.8-1.8,7.2-7.1,12.5-7.7
		c-6.2,13.8-26.2,18.5-39,10.7C177,165.8,174.3,159.9,172.6,153.7z"/>
</g>
<g id="_x23_3d4f57ff">
	<path class="st224" d="M59.9,155c0.3-1,0.7-2.1,1.1-3.1c6.6,0.8,16.2-1.4,21.1,1.2c-6.9,0.8-15.3-1.9-21.5,1.3L59.9,155z"/>
</g>
<g id="_x23_45555bff">
	<path class="st225" d="M150,153c4.2-2.4,9.5-0.4,14-1c6.9-3.5,5,0.8,4.4,3.2C165.1,150.3,155.7,154,150,153z"/>
</g>
<g id="_x23_7d183cff">
	<path class="st226" d="M7.2,152.6c1.1,2.1,2.2,4.2,3,6.4C7.6,158.1,6.7,155,7.2,152.6z"/>
</g>
<g id="_x23_7198a7ff">
	<path class="st227" d="M60.5,154.4c6.2-3.2,14.6-0.5,21.5-1.3c-3.5,5.4-7.6,10.7-9.3,17.1l-0.8-0.3c-0.2-0.5-0.5-1.4-0.6-1.9
		c0.6-1.7,1.2-3.3,1.7-5c-5.8,0.1-9.3,4-10.2,9.4c-3.1,2.3-8.7,4.4-10.6-0.2c0-0.8-0.2-2.3-0.2-3.1c1.1-2.3,2.3-4.5,3-7
		c0.4-1.1,0.7-2.3,1.1-3.4c0.4,0.6,1,1.9,1.4,2.6c-0.7,3.7-5.2,8.4-2.2,11.6c6.1,0.7,7.4-6.4,10.2-10.2
		C64.8,159.5,62.3,157,60.5,154.4 M63.8,155.1c0.7,7.6,12.4,6.7,14.2,0C73.3,154.9,68.6,155,63.8,155.1z"/>
</g>
<g id="_x23_16404fff">
	<path class="st228" d="M95.2,153.8c2.3-2.5,1.7,1.6,1.7,3.2c-3.2,7,2.7,3.1,5.2,5.1c-0.1,1.4-0.1,2.7-0.2,4.1
		c-2.4,0.1-6.5,2.4-6.4-1.3C95.8,161.1,95.7,157.5,95.2,153.8z"/>
</g>
<g id="_x23_6e9bacff">
	<path class="st229" d="M150,153c5.7,1,15.1-2.6,18.4,2.2c-0.7,2-1.4,4-2.4,5.9c-4.1,0.9-9.5-1.8-13.1,0.9c-0.3,0.3-1,0.8-1.3,1.1
		c-3.7,7.7,13.1-1.8,11.8,6.2c-0.6,1.7-1.4,3.3-2.4,4.8c-7.5-0.1-15,0.5-22.4-0.7c1.1-2.5,3.4-12.5,3.7-5.1
		c-0.5,2.5-3.7,7.2,3.6,3.9c4.6-1.5,14.4,3.3,15.2-4c-3.4-1.7-12.8,3.1-12.4-3c1.7-10.2,16.1-1.2,17.4-10.1
		c-8.8-1.3-18.8-1-22.6,8.2c0-1.8,0.4-3.5,0.7-5.3C145.6,155.8,147.8,154.3,150,153z"/>
</g>
<g id="_x23_495965ff">
	<path class="st230" d="M102.2,162.1c-0.1-2.7,0.4-5.5,0.8-8.2C102.8,156.6,102.5,159.3,102.2,162.1z"/>
</g>
<g id="_x23_0b1215ff">
	<path class="st231" d="M59.9,155l0.7-0.6c1.7,2.7,4.3,5.2,4.9,8.3c-2.8,3.8-4.1,11-10.2,10.2c-3-3.3,1.5-7.9,2.2-11.6
		C58.3,159.2,59.1,157.1,59.9,155z"/>
</g>
<g id="_x23_14212aff">
	<path class="st232" d="M63.8,155.1c4.7-0.1,9.4-0.2,14.2,0C76.2,161.8,64.5,162.7,63.8,155.1z"/>
</g>
<g id="_x23_163e4dff">
	<path class="st233" d="M117.1,158.1c-0.4-3.7,6.7-5.8,3.2,1.9c2.3,0.5,3.1-1.4,3.7-3.2c0.1,1.9,0.1,5.6,0.2,7.5
		c1.3-1.3,2.5-2.7,3.6-4.2c1.1,0.4,2.2,0.8,3.4,1.1c-1.3,1.9-2.6,3.7-3.9,5.6c-2.7-1.1-5.5-0.5-8.2,0.2
		C117.5,165.8,121.4,154.8,117.1,158.1z"/>
</g>
<g id="_x23_485c5dff">
	<path class="st234" d="M133.9,157.8c0-5.3,6.2-1,0.8,0.4L133.9,157.8z"/>
</g>
<g id="_x23_152932ff">
	<path class="st235" d="M143.5,163.2c3.8-9.2,13.9-9.5,22.6-8.2c-1.3,8.9-15.6-0.1-17.4,10.1c-1.7,0.9-3.7,1-5.4-0.1
		C143.5,164.6,143.5,163.7,143.5,163.2z"/>
</g>
<g id="_x23_699db0ff">
	<path class="st236" d="M117.1,158.1c4.3-3.3,0.4,7.7,1.9,8.9c-2.2,7.5,7.2,5.5,8.2-0.2c1.3-1.8,2.7-3.7,3.9-5.6
		c0.9-1.2,1.9-2.4,2.9-3.5l0.8,0.4c0,0.4-0.1,1.3-0.2,1.8c-1.2,4.2-2.8,8.2-4.4,12.3c6.8,2.5,7-4.7,9.1-8.7c0.7-1.6,1.3-3.2,2-4.8
		c1,5-2.9,9.6-3.4,14.6c-3-0.2-11.6,3.5-9.1-2.4c1.2-4-2.4,0.5-2.9,1.9c-0.2,0.3-0.6,1-0.8,1.3c-3.3-0.9-11.2,2.6-7.9-5.1
		c0.9-2.4-2.7-2.7-1.8-0.2c-0.2,2-0.7,4-1.9,5.6c-3-0.7-8.7,1.4-8.7-3.1c1-2.9,2.1-5.8,3.3-8.6c0.3,0.4,1,1.2,1.4,1.6
		c-0.1,0.5-0.3,1.4-0.5,1.8c-0.7,2-1.4,3.9-1.9,5.9c4.9,2.5,5.5-2.2,7-4.8c1.2-2.6,2.2-5.3,2.9-8.2L117.1,158.1z"/>
</g>
<g id="_x23_15394cff">
	<path class="st237" d="M109.3,164.3c0.8-2.1,1.5-4.2,2.4-6.3c1.2,2.1,3.3,2.4,5.2,1c-0.7,2.8-1.7,5.5-2.9,8.2
		c-1.7-0.3-3.4-0.6-5.1-1.1C108.9,165.6,109.2,164.7,109.3,164.3z"/>
</g>
<g id="_x23_eaa9c5ff">
	<path class="st238" d="M230.1,165.1c1.5-2.4,3.1-4.8,4.8-7.2C233.6,160.5,231.9,162.9,230.1,165.1z"/>
</g>
<g id="_x23_183e4eff">
	<path class="st239" d="M85,160.1c1.7,0.4,3.4,0.8,5.1,1.1c-1.2,2-2.7,3.9-4,5.9c-1.7-0.2-3.4-0.3-5.1-0.7
		C82.3,164.3,83.5,162.2,85,160.1z"/>
</g>
<g id="_x23_175772ff">
	<path class="st240" d="M130.1,172.2c1.6-4.1,3.2-8.1,4.4-12.3c0.5,2.3,2.5,3.3,4.7,3.6C137.1,167.4,136.9,174.7,130.1,172.2z"/>
</g>
<g id="_x23_851c43ff">
	<path class="st241" d="M11.1,160.8c3,2.7,6.1,5.4,9.1,8C16.2,168.5,11.5,164.9,11.1,160.8z"/>
</g>
<g id="_x23_15475aff">
	<path class="st242" d="M46.6,165.9c0.7-1.6,1.3-3.3,2-4.9c1.6,0.3,4.8,0.8,6.4,1.1c-0.7,2.4-1.9,4.7-3,7
		C50.2,168.1,47.2,168.3,46.6,165.9z"/>
</g>
<g id="_x23_2a363eff">
	<path class="st243" d="M152.9,161.9c3.7-2.7,9,0.1,13.1-0.9C163.1,163.9,156.7,160.8,152.9,161.9z"/>
</g>
<g id="_x23_1b6184ff">
	<path class="st244" d="M62.8,172.3c1-5.4,4.5-9.3,10.2-9.4c-0.5,1.7-1.1,3.3-1.7,5c-0.6,1.7-1.1,3.4-1.4,5.1
		C67.5,172.8,65.2,172.6,62.8,172.3z"/>
</g>
<g id="_x23_2a424bff">
	<path class="st245" d="M163.4,169.2c1.3-8-15.5,1.5-11.8-6.2C153,168.8,167.5,160.7,163.4,169.2z"/>
</g>
<g id="_x23_4d6772ff">
	<path class="st246" d="M93,174.9c0.2-2.5,0.6-7.6,0.8-10.1c0.1,3.1,0.2,6.1,0.3,9.1c4.7,0.2,11.8,1.9,9.6-6.1
		c0.2,1.2,0.5,2.3,0.8,3.5c0,4.5,5.7,2.4,8.7,3.1C106.6,175.5,99.7,175,93,174.9z"/>
</g>
<g id="_x23_1b6880ff">
	<path class="st247" d="M102,166.2c1.8,8.2-11.9,8-6.4-1.3C95.6,168.6,99.6,166.2,102,166.2z"/>
</g>
<g id="_x23_186885ff">
	<path class="st248" d="M142.3,168.2c0.4-1.1,0.8-2.1,1.1-3.2c1.7,1.1,3.6,1,5.4,0.1c-0.4,6.2,8.9,1.3,12.4,3
		c-0.8,7.3-10.6,2.5-15.2,4C138.6,175.4,141.9,170.7,142.3,168.2z"/>
</g>
<g id="_x23_167190ff">
	<path class="st249" d="M44.9,169c0.6-1,1.2-2,1.7-3.1c0.6,2.4,3.5,2.2,5.4,3.2c0.1,0.8,0.2,2.3,0.2,3.1
		C48,173.5,43.7,174.2,44.9,169z"/>
</g>
<g id="_x23_1c6883ff">
	<path class="st250" d="M80,166.2l0.8,0.2c1.7,0.4,3.4,0.6,5.1,0.7c-1.7,3.4-4.1,7-8.9,5.1C78.1,170.2,79.2,168.3,80,166.2z"/>
</g>
<g id="_x23_156082ff">
	<path class="st251" d="M108.8,166.1c1.7,0.5,3.4,0.8,5.1,1.1c-1.5,2.7-2.1,7.3-7,4.8C107.4,170,108.1,168,108.8,166.1z"/>
</g>
<g id="_x23_13617cff">
	<path class="st252" d="M119,167.1c2.7-0.6,5.5-1.3,8.2-0.2C126.2,172.5,116.8,174.6,119,167.1z"/>
</g>
<g id="_x23_8f1947ff">
	<path class="st253" d="M215.8,173.9c2.6-2.8,5.4-5.4,8.2-7.9C222.5,169.2,219.7,173.7,215.8,173.9z"/>
</g>
<g id="_x23_4f6c77ff">
	<path class="st254" d="M115.2,168.8c-0.9-2.6,2.7-2.3,1.8,0.2c-3.3,7.7,4.7,4.2,7.9,5.1C121.2,176.5,112.7,176.2,115.2,168.8z"/>
</g>
<g id="_x23_6db5d0ff">
	<path class="st255" d="M71.3,167.9c0.2,0.5,0.5,1.5,0.6,1.9c-0.4,3.8-2,7.9,0.3,11.3c-3.5,0.5-7,0.9-10.6,1.2c-0.4,0-1.1,0-1.4,0
		c-4.5-0.2-8.9-0.2-13.4-0.2c-1.6-1.1-3-2.5-4.1-4c0.3-2.4,0.6-4.9,1-7.3c-2.3,14.5,14.1,7.4,22.6,9.8c4.8,1.5,3.5-4.5,3.5-7.7
		C70.2,171.3,70.7,169.6,71.3,167.9z"/>
</g>
<g id="_x23_26a2d2ff">
	<path class="st256" d="M43.7,170.9c0.3-0.5,0.8-1.4,1.1-1.9c-1.2,5.2,3.2,4.5,7.3,3.2c1.9,4.6,7.5,2.5,10.6,0.2
		c2.4,0.2,4.7,0.5,7.1,0.7c0,3.2,1.3,9.1-3.5,7.7C57.8,178.3,41.4,185.4,43.7,170.9z"/>
</g>
<g id="_x23_4e656fff">
	<path class="st257" d="M125.8,172.7c0.6-1.5,4.1-5.9,2.9-1.9c-2.5,5.9,6.1,2.2,9.1,2.4l0.9,0.1c7.4,1.2,14.9,0.6,22.4,0.7
		C150.6,175.8,135.4,176.9,125.8,172.7z"/>
</g>
<g id="_x23_cf286cff">
	<path class="st258" d="M169.7,178.4c1.3-3,1.1-8,4.3-9.3c3.9,3.5,8,6.8,12.7,9.3c1.5,2.7-2,1.3-3.4,1.4
		C178.7,179.2,174.1,179.4,169.7,178.4z"/>
</g>
<g id="_x23_8f1f4dff">
	<path class="st259" d="M22,169.9c3.3,0.4,6.6,0.7,9.9,1.3c0.1,3.9,0.2,7.8,0.1,11.8c-4.2-1.5,3.9-14.8-5.9-11.3
		C24.8,171.2,22.2,171.6,22,169.9z"/>
</g>
<g id="_x23_233037ff">
	<path class="st260" d="M71.9,169.8l0.8,0.3c0.3,0.6,0.8,1.7,1.1,2.2c0.1,0.6,0.2,1.7,0.3,2.3c-2.9-0.9-3.6,0.5-2.1,4.2
		c11,0.8,22.3-1.1,33.1,1C94.8,180,84.4,180,74,180c0.6,1.1,1.3,2.1,2,3.2c-4.3,0.7-8.8,1.6-13-0.1c1.3-1.6,11.7,2.2,9.3-1.9
		C69.9,177.7,71.5,173.6,71.9,169.8z"/>
</g>
<g id="_x23_f092b8ff">
	<path class="st261" d="M24.9,175c6.1-0.7,3.8,6.7,3.9,10.3C27.6,181.7,28.5,177.2,24.9,175z"/>
</g>
<g id="_x23_74183cff">
	<path class="st262" d="M212.9,180.1c-7.4,2.1-7.2-2.3-2.1-3.2C208.7,179.8,212.9,178.2,212.9,180.1z"/>
</g>
<g id="_x23_881240ff">
	<path class="st263" d="M183.2,179.8c-2.8-0.4-15.9,2-13.6-1.4C174.1,179.4,178.7,179.2,183.2,179.8z"/>
</g>
<g id="_x23_84a7b1ff">
	<path class="st264" d="M74,180c10.4,0,20.8,0.1,31.1-0.1c0.3,0.3,0.9,0.8,1.2,1c-0.3,0.2-1,0.8-1.3,1l-0.8-0.1
		c-8.6-1.2-17.2-1.1-25.8-0.6c-0.5,1-0.9,2-1.4,3c-0.3-0.3-0.8-0.8-1.1-1.1C75.3,182.1,74.6,181.1,74,180z"/>
</g>
<g id="_x23_841540ff">
	<path class="st265" d="M213.8,180.1c2.6-0.2,5.3,2.5,5.1,5.1C217.1,183.6,215.4,181.9,213.8,180.1z"/>
</g>
<g id="_x23_617e8aff">
	<path class="st266" d="M72.3,181.1c2.5,4.2-8,0.4-9.3,1.9c-0.3-0.2-1-0.5-1.3-0.7C65.2,182,68.8,181.6,72.3,181.1z"/>
</g>
<g id="_x23_678188ff">
	<path class="st267" d="M78.4,181.2c8.6-0.5,17.3-0.6,25.8,0.6c-8.5,0.3-16.9-0.1-25.4,0.3c0.5,3,5,4.4,4,7.7
		c-2,5.4-4.3,10.6-6.3,16.1c-0.5,0.8-1,1.6-1.4,2.3l-1.1-0.3c0.2-8.2,11.6-17.4,2.9-23.7C77.4,183.2,77.9,182.2,78.4,181.2z"/>
</g>
<g id="_x23_6b8b95ff">
	<path class="st268" d="M106.4,180.9c0.9,0.8,1.7,1.6,2.6,2.4c0.8,3.6,0.5,11,3.1,4.8c6.1-0.1,12.1-0.2,18.2-0.3
		c2.2,0.2,3.2,2.4,4.2,4c-0.5,3.9-2,7.6-3.3,11.3c-2.2,3.1-5.8,4.4-8.9,6.3c0,4.2,2.5,8.2,1.8,12.6c-2.9,0.3-5.8,0-8.7,0
		c-1.8-2.2-1.6-5.4-2.6-8c-2.3,1.7-2.6,4.8-3.5,7.3c-3.9,0.4-10.9,3-9.1-3.2c0.7-1.4,1.3-2.8,1.9-4.2c2.2-4.5,3-9.8,6.1-13.8
		c5-0.6,10.6,1.3,15.3-1c3.4-5.8-9.3-2.1-13.3-3l-0.7,0c-0.7,0-1.4,0-2.1,0.1c-3.1,0.1-6.2,0.1-9.4,0.2c-1.5-0.7,0.1-2.2,0.3-3.1
		c4.6-6.3-9.4-6.2-8.1,0.1c-2.4,7.1-4.7,14.2-7.7,21.1c-0.2-0.6-0.8-1.8-1-2.4c0.2-0.9,0.4-1.7,0.7-2.6c1.2-7.3,10-15.5,3.7-22.2
		c5.1,0.6,11.4-1.6,16.1,0.9c-0.7,3-5.1,9.4,3.2,5.9c4.6-1.8,3.1-8.9,0.2-12.1C105.4,181.6,106,181.1,106.4,180.9 M111.9,193.9
		c2.1,3.2,9.6-0.1,13.2,1c2,2.4-0.6,5.1-2.3,6.9c-5.7,1.2-15-3-16,5.1c-1.7,3.7-3.2,7.8-3.7,11.9c5.2,3.9,7.2-4.8,7.6-8.8
		c1.5-2.3,4-2.5,3.5,0.9c0.6,4.1,1.2,11.8,7.8,9.2c-0.6-2.7-0.3-5.7-2-8c0.4-1.9-2.1-4.8,0.4-5.6c8.3,0.8,14.2-9.8,10.5-16.2
		C124.9,191.2,113.1,185.8,111.9,193.9z"/>
</g>
<g id="_x23_5c7b89ff">
	<path class="st269" d="M46.8,182.1c4.5,0,8.9,0.1,13.4,0.2C55.9,183.4,51.1,183.5,46.8,182.1z"/>
</g>
<g id="_x23_0f181bff">
	<path class="st270" d="M78.8,182.1c8.4-0.4,16.9,0,25.4-0.3l0.8,0.1c2.9,3.2,4.5,10.3-0.2,12.1c-8.3,3.4-3.9-3-3.2-5.9
		c-4.6-2.6-10.9-0.3-16.1-0.9c6.3,6.7-2.5,14.8-3.7,22.2c-2.1-0.6-4.9-0.9-5.4-3.4c1.9-5.4,4.2-10.7,6.3-16.1
		C83.8,186.6,79.4,185.1,78.8,182.1z"/>
</g>
<g id="_x23_1a0d17ff">
	<path class="st271" d="M108.9,183.3c15,1.5,30.2-1.6,45.3,0c-10.4,0.6-2.8,2.2,0.9,3.2c-5.7,3.3-3.5,14.5-11.2,14.6
		c0.3-4.6,3.2-8.4,4.1-12.9c-5.8-4.1-11.5-0.3-12.2,6c-0.5-0.8-0.9-1.6-1.4-2.4c-1-1.6-2-3.8-4.2-4c-5.6,0-13.3-2.9-18.2,0.3
		C109.4,194.2,109.7,186.9,108.9,183.3z"/>
</g>
<g id="_x23_ec7aabff">
	<path class="st272" d="M222.1,182.9c3.6,4.6,1.7,11,0.9,16.2C223.1,193.7,222.7,188.2,222.1,182.9z"/>
</g>
<g id="_x23_7b1c3eff">
	<path class="st273" d="M33.3,186.1c0.9,1,1.5,2.2,1.8,3.6C33.2,190.5,32,187.3,33.3,186.1z"/>
</g>
<g id="_x23_4a5c63ff">
	<path class="st274" d="M112.1,188c4.9-3.2,12.6-0.3,18.2-0.3C124.2,187.9,118.1,188,112.1,188z"/>
</g>
<g id="_x23_67858fff">
	<path class="st275" d="M135.8,194.2c0.7-6.3,6.4-10.1,12.2-6c-0.9,4.5-3.8,8.3-4.1,12.9c7.8,0,5.5-11.2,11.2-14.6
		c2.8,0.5,5.7,1,8.6,1.2c6.2,0.4,12.3,0.3,18.5,0.1c3,0.2,2.9,4.2,4.1,6.2c1.2-2,2.2-4.3,3.5-6.3c6,3,21.2-4.9,22.6,3.4
		c-1.1,4.6-4.3,7.6-9.6,6.5c-3.7,7.9-5.2,16.8-9.9,24.1c-2.5-0.4-10.4,2.7-8.6-1.7c1.8-7.9,6.5-15,7.9-23c-1.4,1.5-6.9-3.1-7.4,0.6
		c-2.1,8.7-10.6,13.5-19.3,11.6c-2.3,7-4.9,16.4-14.6,12.6c0.9-5.9,4.4-11,5.3-16.9c-4.1,3.5-11,4.2-11.2,11
		c0.2,6.9-7.2,7.6-11.8,4.9c0.6-4.6,6.6-10.9,0.9-14.1C133.4,202.4,134.6,198.3,135.8,194.2 M140.2,190.1c-2.4,4-4,8.5-5.2,12.9
		c-0.7,4.4,6.5,2.8,5,7.3c-1.8,1.3-2.8,6.6-3,9.7c5,1.6,5.9-4.2,6.9-7.7c2-1.2,1-5.2,4-5.6c8.2-1.4,9.2-10.4,12.3-16.7
		c-10.8-4.1-5.9,16.3-16.9,12.9C137.6,198.9,151.9,187.4,140.2,190.1 M163.9,194c1.9,3.2,9.6-0.1,13.1,1c2.2,2.6-1.1,5-2.3,7.2
		c-4.8-0.5-9.7-0.1-14.6,0c-1.3,3.1-2.2,6.3-3.5,9.3c-1.4,0.7-2.2,5.9-2.8,8.5c5.5,2.9,6.9-3.2,7-6.7c1.9-1.2,1.3-4.5,3.3-6
		c2.3-3.8,10.3,1.3,11.6-1.9c5-1.1,7-6.9,8.3-11.3c-0.5-6.7-9.9-3.3-14-4C166.3,187.8,163.3,190.8,163.9,194 M189.1,194
		c12.2-2.5,1.8,11,0.9,17c-1.9,1.7-1.7,6.2-3.1,9c5.8,2.3,7.1-5.1,8-9c2.7-5,4.1-10.5,6.4-15.7c3.2-2.2,8.8,0.1,8.8-5.2
		C204.1,192.3,190.5,185.1,189.1,194 M164,200c3-1.2,11.2,2.7,11.1-3c-2.6-3-10-0.1-14-1.1C160.7,189.5,155.1,207.1,164,200z"/>
</g>
<g id="_x23_4a5d62ff">
	<path class="st276" d="M163.7,187.7c6.1-1.4,12.4-0.8,18.5,0.1C176.1,187.9,169.9,188.1,163.7,187.7z"/>
</g>
<g id="_x23_4c5c61ff">
	<path class="st277" d="M189.8,187.8c7.4-2.2,15.7-0.2,23.4-0.7c-0.2,1.4-0.4,2.8-0.9,4.2C211,182.9,195.7,190.7,189.8,187.8z"/>
</g>
<g id="_x23_384b4fff">
	<path class="st278" d="M90,193.2c-1.3-6.3,12.7-6.4,8.1-0.1C99.1,187.4,91.6,189.6,90,193.2z"/>
</g>
<g id="_x23_6e1332ff">
	<path class="st279" d="M35.1,189.6c1.7,1.7,3.5,3.5,4.9,5.4C37.5,194.7,34.8,192.3,35.1,189.6z"/>
</g>
<g id="_x23_08080bff">
	<path class="st280" d="M90,193.2c1.5-3.6,9.1-5.7,8.1-0.1c-0.3,0.9-1.8,2.4-0.3,3.1c2.8,1.7,6.5,1,9.4-0.2c0.7-0.1,1.4-0.1,2.1-0.1
		c0.2,1.5,0.1,3-1.3,4c-3.1,4-3.9,9.3-6.1,13.8c-3.5,0.3-9.5-2.7-11.8,0.3c-1.1,4.2-4,8.2-9.2,6c0.2-2,0.8-3.9,1.4-5.8
		C85.4,207.4,87.6,200.2,90,193.2z"/>
</g>
<g id="_x23_112027ff">
	<path class="st281" d="M111.9,193.9c1.2-8.1,13.1-2.7,18.9-3.8c3.7,6.4-2.2,17-10.5,16.2c-2.5,0.9,0,3.8-0.4,5.6
		c-1.9-0.5-3.8-0.9-5.7-1.2c0.5-3.3-2-3.2-3.5-0.9c-2.5,0.4-4.4-0.1-3.9-3.1c1-8,10.3-3.9,16-5.1c1.7-1.7,4.3-4.5,2.3-6.9
		C121.6,192.9,116.2,194.4,111.9,193.9z"/>
</g>
<g id="_x23_101f28ff">
	<path class="st282" d="M140.2,190.1c11.7-2.6-2.6,8.8,3.1,12.9c10.9,3.4,6.1-17,16.9-12.9c-3,6.3-4.1,15.3-12.3,16.7
		c-2.9,0.3-1.9,4.3-4,5.6c-1.3-0.6-2.6-1.3-3.9-2c1.6-4.5-5.7-2.9-5-7.3C136.2,198.6,137.8,194,140.2,190.1z"/>
</g>
<g id="_x23_0e161bff">
	<path class="st283" d="M163.9,194c-0.6-3.2,2.4-6.1,6-4c4.2,0.7,13.5-2.7,14,4c-1.3,4.4-3.3,10.2-8.3,11.3c-0.4-1.1-0.7-2.1-1-3.2
		c1.1-2.3,4.5-4.6,2.3-7.2C173.6,192.9,168.2,194.4,163.9,194z"/>
</g>
<g id="_x23_0f1b22ff">
	<path class="st284" d="M189.1,194c1.3-8.9,15-1.7,21-3.9c0,5.3-5.7,3-8.8,5.2c-2.3,5.2-3.7,10.7-6.4,15.7c-1.6,0-3.3,0-4.9,0
		C190.9,205,201.4,191.4,189.1,194z"/>
</g>
<g id="_x23_37464dff">
	<path class="st285" d="M134.4,191.8c0.5,0.8,0.9,1.6,1.4,2.4c-1.2,4.1-2.4,8.3-1.8,12.7c-0.9-2.2-0.4-6.4-2.9-3.7
		C132.4,199.4,134,195.7,134.4,191.8z"/>
</g>
<g id="_x23_f0a3c3ff">
	<path class="st286" d="M32,192.9c2.1,2,4.1,4.1,6,6.2C35.3,197.8,32.8,195.9,32,192.9z"/>
</g>
<g id="_x23_445b62ff">
	<path class="st287" d="M111.9,193.9c4.3,0.4,9.7-1,13.2,1C121.4,193.8,114,197.2,111.9,193.9z"/>
</g>
<g id="_x23_1f282fff">
	<path class="st288" d="M164,200c-8.9,7.1-3.3-10.6-2.9-4.1c3,2.4,9.5,0.6,14,1.1C175.2,202.7,167,198.8,164,200z"/>
</g>
<g id="_x23_425761ff">
	<path class="st289" d="M163.9,194c4.3,0.4,9.7-1,13.1,1C173.6,193.8,165.8,197.2,163.9,194z"/>
</g>
<g id="_x23_5c1630ff">
	<path class="st290" d="M41.9,196.1c8.3,1.6,16.8,0.6,25.1,1.1c0.4,2.7-0.8,5.1-1.8,7.4c-0.1-1.9,0.3-3.7,0.7-5.5
		c-4.6-2.4-14.5-0.3-20.9-1C43.4,198.4,42.6,197.3,41.9,196.1z"/>
</g>
<g id="_x23_2d3e49ff">
	<path class="st291" d="M97.8,196.2c3.1-0.1,6.2-0.1,9.4-0.2C104.3,197.2,100.6,197.9,97.8,196.2z"/>
</g>
<g id="_x23_20262dff">
	<path class="st292" d="M109.3,196l0.7,0c3.8,2,11.5-1.5,13.3,3c-4.7,2.3-10.3,0.4-15.3,1C109.4,199,109.5,197.5,109.3,196z"/>
</g>
<g id="_x23_465b65ff">
	<path class="st293" d="M110,196c4.1,0.9,16.7-2.8,13.3,3C121.4,194.5,113.8,198,110,196z"/>
</g>
<g id="_x23_445962ff">
	<path class="st294" d="M161.1,196c4,1,11.4-1.9,14,1.1C170.6,196.6,164.1,198.4,161.1,196z"/>
</g>
<g id="_x23_a92f64ff">
	<path class="st295" d="M45,198c6.5,0.7,16.3-1.5,20.9,1C59.4,198.3,49.9,200.5,45,198z"/>
</g>
<g id="_x23_eeabc8ff">
	<path class="st296" d="M41.7,201.3c6.5,0.5,13,0.6,19.4,0.8c-0.1,1.4-0.3,2.7-0.8,4C59.8,198,46.3,206.5,41.7,201.3z"/>
</g>
<g id="_x23_152c38ff">
	<path class="st297" d="M160.3,202.1c4.8-0.1,9.7-0.5,14.6,0c0.3,1.1,0.6,2.1,1,3.2c-1.2,3.2-9.2-1.9-11.6,1.9c-2,1.5-1.4,4.8-3.3,6
		c-1.5-0.4-3.6,0-4.2-1.8C158.1,208.4,159,205.2,160.3,202.1z"/>
</g>
<g id="_x23_80193fff">
	<path class="st298" d="M63.5,209.9c-1.4-1.6-0.7-5.6,1.7-5.4C64.9,206.3,64.2,208.1,63.5,209.9z"/>
</g>
<g id="_x23_174456ff">
	<path class="st299" d="M75.1,208.2c0.5-0.8,1-1.6,1.4-2.3c0.5,2.5,3.3,2.8,5.4,3.4c-0.2,0.9-0.5,1.7-0.7,2.6
		c-0.5,1.4-1.1,2.8-1.6,4.1c-2.3,0-4.9,0.2-6.2-2.1C74.1,212,74.7,210.1,75.1,208.2z"/>
</g>
<g id="_x23_18506bff">
	<path class="st300" d="M103.1,218.8c0.5-4.1,2-8.2,3.7-11.9c-0.5,2.9,1.4,3.5,3.9,3.1C110.2,213.9,108.3,222.7,103.1,218.8z"/>
</g>
<g id="_x23_66a1b7ff">
	<path class="st301" d="M74.1,208l1.1,0.3c-0.5,1.9-1,3.8-1.6,5.6c-0.8,2.7-1.6,5.4-1.6,8.2c0.5,9.6,15.5,6.8,20.9,2
		c2.2-2.4,4.6-4.8,5.4-8.1c-6-2.9-7.9,2.3-10.3,6c-3,0.8-6.3,1.6-8.9-0.8c0.2-1.7,0.4-3.5,0.7-5.2c0.5-1.4,1.1-2.8,1.6-4.1
		c0.2,0.6,0.8,1.8,1,2.4c-0.6,1.9-1.1,3.8-1.4,5.8c5.2,2.2,8.1-1.8,9.2-6c3.5,0.7,11.8-2.5,9.9,4c-0.8,1.3-1.6,2.6-2.4,3.9
		c-5.6,8-16.5,10.7-25.4,6.8C67.1,222.9,71.2,214.1,74.1,208z"/>
</g>
<g id="_x23_ee96bcff">
	<path class="st302" d="M210.1,216.2c2.8-2.7,6.1-4.7,9-7.2C217.7,213,214.1,215.5,210.1,216.2z"/>
</g>
<g id="_x23_771638ff">
	<path class="st303" d="M60.3,217.3c-0.7-2.7,0.8-6.2,3.1-7.4C62.7,212.5,61.6,214.9,60.3,217.3z"/>
</g>
<g id="_x23_145671ff">
	<path class="st304" d="M137,220c0.1-3.1,1.1-8.4,3-9.7c1.3,0.7,2.6,1.4,3.9,2C142.8,215.8,141.9,221.6,137,220z"/>
</g>
<g id="_x23_195970ff">
	<path class="st305" d="M114.2,210.8c1.9,0.3,3.8,0.7,5.7,1.2c1.7,2.3,1.5,5.3,2,8C115.4,222.6,114.8,214.9,114.2,210.8z"/>
</g>
<g id="_x23_1e5d78ff">
	<path class="st306" d="M153.9,220c0.6-2.6,1.4-7.8,2.8-8.5c0.6,1.8,2.7,1.4,4.2,1.8C160.9,216.8,159.4,222.9,153.9,220z"/>
</g>
<g id="_x23_18566eff">
	<path class="st307" d="M186.9,220c1.4-2.7,1.2-7.3,3.1-9c1.6,0,3.3,0,4.9,0C194.1,214.9,192.7,222.2,186.9,220z"/>
</g>
<g id="_x23_374c57ff">
	<path class="st308" d="M90.1,214c2.3-2.9,8.4,0,11.8-0.3c-0.6,1.4-1.2,2.9-1.9,4.2C101.9,211.5,93.6,214.7,90.1,214z"/>
</g>
<g id="_x23_156f8fff">
	<path class="st309" d="M71.9,222.1c0-2.8,0.8-5.5,1.6-8.2c1.2,2.4,3.9,2.2,6.2,2.1c-0.4,1.7-0.6,3.4-0.7,5.2
		C76.7,221.5,74.3,221.8,71.9,222.1z"/>
</g>
<g id="_x23_ef97bdff">
	<path class="st310" d="M56.7,235.3c-2.8-6.2-2.8-14.2,0.2-20.4C55.7,221.6,56.2,228.5,56.7,235.3z"/>
</g>
<g id="_x23_1b7494ff">
	<path class="st311" d="M87.9,222c2.4-3.7,4.3-8.9,10.3-6c-0.8,3.2-3.2,5.7-5.4,8.1C91.2,223.4,89.5,222.7,87.9,222z"/>
</g>
<g id="_x23_253438ff">
	<path class="st312" d="M97.6,221.9c0.8-1.3,1.6-2.7,2.4-3.9c-1.8,6.2,5.2,3.6,9.1,3.2C107.9,225.7,101,221.8,97.6,221.9z"/>
</g>
<g id="_x23_aa265aff">
	<path class="st313" d="M60.2,233.7c-3-1.1-3.5-13-1.1-13.4C58.9,224.8,59.4,229.3,60.2,233.7z"/>
</g>
<g id="_x23_2095c3ff">
	<path class="st314" d="M79,221.2c2.5,2.4,5.8,1.6,8.9,0.8c1.7,0.7,3.3,1.5,5,2.1c-5.4,4.8-20.4,7.6-20.9-2
		C74.3,221.8,76.7,221.5,79,221.2z"/>
</g>
<g id="_x23_8e1d48ff">
	<path class="st315" d="M173.1,225.3c1.6,0.9,1.1,3.8,1.8,5.4C172.5,230.7,172.4,227,173.1,225.3z"/>
</g>
<g id="_x23_841a42ff">
	<path class="st316" d="M165.8,232.6c0.6-1.7,1.4-3.4,2.7-4.6C169.6,229.6,168,233.2,165.8,232.6z"/>
</g>
<g id="_x23_691234ff">
	<path class="st317" d="M196.8,234.5c0.5-1.5,1.6-2.7,2.9-3.5C200.9,232.6,198.6,235.4,196.8,234.5z"/>
</g>
<g id="_x23_f197bcff">
	<path class="st318" d="M170.1,233.7c0.9-4.6,4.3,2.3,5.1,4.2C173.4,236.6,171.8,235.1,170.1,233.7z"/>
</g>
<g id="_x23_7f0f3cff">
	<path class="st319" d="M178.1,234.9c5.4,2,11.3,0.9,16.9,1.1C191.2,239.6,181.2,239.5,178.1,234.9z"/>
</g>
<g id="_x23_5a0726ff">
	<path class="st320" d="M99.9,236.9c8.4-1.9,17.5-0.6,26.1-0.9c-0.2,0.3-0.8,0.8-1,1C116.6,237,108.3,237,99.9,236.9z"/>
</g>
<g id="_x23_7a103bff">
	<path class="st321" d="M128.9,236c5.4-0.1,10.8,0,16.1,0C141.2,238.4,133,239.3,128.9,236z"/>
</g>
<g id="_x23_63062aff">
	<path class="st322" d="M147,236c5-0.1,10,0,15,0C159.9,237.8,149.1,237.8,147,236z"/>
</g>
<g id="_x23_ab1e56ff">
	<path class="st323" d="M97.7,238.8c0.7-0.7,1.4-1.3,2.2-1.9c8.4,0.1,16.7,0.1,25.1,0.1C117.8,239.4,106.5,237,97.7,238.8z"/>
</g>
<g id="_x23_ee9abeff">
	<path class="st324" d="M162.2,241.2c1-1.7,2.6-3.1,4.7-3.3C166.4,240.1,164.4,241.5,162.2,241.2z"/>
</g>
<g id="_x23_8b1e48ff">
	<path class="st325" d="M92.1,242.7c1.3-1.1,2.8-2.1,4.4-2.9C97.3,242,93.9,244.1,92.1,242.7z"/>
</g>
<g id="_x23_ef98b9ff">
	<path class="st326" d="M110,241c6.3,0.9,13-2,19.1-0.1c-10.3,2.1-21.3-0.7-31.2,2.9C100.3,239.5,105.8,241.6,110,241z"/>
</g>
<g id="_x23_ef96b8ff">
	<path class="st327" d="M143.9,240.9c5.9-1.5,12.2,1.3,18.3,0.3C156.1,242.4,150,241.9,143.9,240.9z"/>
</g>
<g id="_x23_ee98bdff">
	<path class="st328" d="M60,240.9c2.1,1.9,4.1,4,6.1,6.1C63.2,246.1,61,243.7,60,240.9z"/>
</g>
<g id="_x23_f29dbdff">
	<path class="st329" d="M129.1,240.9c5,0.2,9.9,0.1,14.9,0C139.1,242.3,133.9,242.3,129.1,240.9z"/>
	<path class="st329" d="M179.9,241.1c5.1-0.1,10.2,0,15.3,0C190.2,242.4,184.8,242.5,179.9,241.1z"/>
</g>
<g id="_x23_4a0a1fff">
	<path class="st330" d="M70.1,244c6.3,0,12.6,0,19,0c-0.5,0.2-1.5,0.8-2,1c-5,0-10,0-15,0C71.5,244.8,70.5,244.2,70.1,244z"/>
</g>
<g id="_x23_a31d54ff">
	<path class="st331" d="M72,245c5,0,10,0,15,0C84.9,246.8,74.1,246.8,72,245z"/>
</g>
<g id="_x23_f096baff">
	<path class="st332" d="M91,248.1c0.8-1.5,2.4-2.3,4.1-1.9C94.5,247.8,92.7,248.5,91,248.1z"/>
</g>
<g id="_x23_f36eaaff">
	<path class="st333" d="M67.6,247.8c6.4,1.3,13,1.7,19.6,1.4l-0.5,0.8H71.4C70.1,249.3,68.9,248.5,67.6,247.8z"/>
</g>
</svg>
