<svg id="Layer_1" data-name="Layer 1" xmlns="http://www.w3.org/2000/svg" viewBox="0 0 249.99 250"><defs><style>.cls-1{fill:#1666ae;}.cls-2{fill:none;}.cls-3{fill:#7290c9;}.cls-4{fill:#fffffa;}.cls-5{fill:#fff;}</style></defs><circle class="cls-1" cx="124.99" cy="124.99" r="124.99"/><circle class="cls-2" cx="71.9" cy="171.6" r="2.75"/><circle class="cls-2" cx="169.78" cy="145.2" r="2.75"/><circle class="cls-2" cx="90.07" cy="141.48" r="2.75"/><circle class="cls-2" cx="69.59" cy="98.05" r="3.02"/><circle class="cls-2" cx="162.83" cy="138.41" r="2.75"/><path class="cls-2" d="M181.86,193.48a3.54,3.54,0,1,1-.27-2h21.63L192.92,181H172.8a3.54,3.54,0,1,1-.27-2.05l21.24,0,12.4,12.47h24.61a125.45,125.45,0,0,0,15.31-96.92,3.73,3.73,0,0,1-4.87-2,4.2,4.2,0,0,1-.17-.5l-33.48-.12L195.31,81.6a3.56,3.56,0,1,1,1.6-1.31l11.46,9.46,32.75.12a3.74,3.74,0,0,1,2.95-2.49c-.38-1.23-.79-2.44-1.21-3.65l-30.28-.12-10.8-9a3.56,3.56,0,1,1,1.6-1.31l10,8.16,28.71.11a124.92,124.92,0,0,0-7.39-16.29l-22.08-.15-9.8-8.84a3.56,3.56,0,1,1,1.6-1.31l9,8,20.09.15a126.78,126.78,0,0,0-8.26-12.67h-6.4a3.54,3.54,0,1,1-.27-2h5.11a127.85,127.85,0,0,0-9.3-10.71H204a3.54,3.54,0,1,1-.27-2l8.62,0A124.34,124.34,0,0,0,125,0,125.8,125.8,0,0,0,97.51,3V23.75l9.67,9.67h17.69a3.56,3.56,0,1,1,.21,2.06H106.26l-8.75-8.76V49l7.4,7.31-.14,23a3.55,3.55,0,1,1-2.06-.21l.15-21.89-7.71-7.38,0-25.54h0l0-20.69A123.93,123.93,0,0,0,66.7,14.44L77,24.7a3.56,3.56,0,1,1-1.25,1.64L64.8,15.47a125.2,125.2,0,0,0-12.7,8l11.53.08,7.24,7a3.56,3.56,0,1,1-1.6,1.31L62.82,25.7l-13.53-.1A125.46,125.46,0,0,0,32.34,41.23V52.61a3.54,3.54,0,1,1-2,.27l0-9.29a126,126,0,0,0-9.1,12L23.5,58l.69,13.18a3.55,3.55,0,1,1-2.05-.21l-.69-12.06L20,57.37A124.4,124.4,0,0,0,8.51,80H36.43l12.4-12.46,21.24,0a3.56,3.56,0,1,1-.27,2H49.68L39.38,80,61,80a3.56,3.56,0,1,1-.27,2h-53A124.23,124.23,0,0,0,2.91,98.79H11l14.88,14.88-.32,2.42L10.2,100.73H2.51A125.22,125.22,0,0,0,.16,125c0,.38,0,.76,0,1.13h15.2V129H10l11.8,11.8h6.63v2.42H20.37L6.79,129.19H.23a124.82,124.82,0,0,0,4.18,28.25H36.88l11.66,13.29,19.77.16a3.56,3.56,0,1,1,.21,2.06L47,172.79,36.05,159.92H5.1a124.65,124.65,0,0,0,9.6,23.67L19.17,179l.16-9a3.56,3.56,0,1,1,2.06-.21L21.23,180l-5.48,5.58a124.92,124.92,0,0,0,12.32,18.24L28.45,187a3.54,3.54,0,1,1,2.05-.27l-.4,19.44A126.42,126.42,0,0,0,40,216.52H58.86l8.85-8.85a3.55,3.55,0,1,1,1.6,1.31l-9.64,9.65H42.29c1.82,1.61,3.69,3.18,5.61,4.69H64.85l8.85-8.85a3.56,3.56,0,1,1,1.6,1.3l-9.64,9.65h-15a124.73,124.73,0,0,0,150.92-1.69h-4.35a3.55,3.55,0,1,1-.27-2.06h7.21c.77-.64,1.54-1.28,2.3-1.93l-10-10.06H176.36a3.54,3.54,0,1,1-.27-2l21.24,0L208,218.34a125.46,125.46,0,0,0,21.42-24.85ZM58.86,59.83a3.57,3.57,0,0,1-3.4-2.49h-8.8a3.54,3.54,0,1,1-.27-2l9.06,0a3.56,3.56,0,1,1,3.41,4.58Zm12.87-4.09a3.56,3.56,0,0,1-3-5.54L62.32,44l-28-.12v-2.1l28.77.12,7.24,7a3.56,3.56,0,1,1,2.7,6.58,3.38,3.38,0,0,1-1.34.27ZM37.81,181.41a3.55,3.55,0,0,1,5.83,1l9.06,0a3.57,3.57,0,1,1,0,2.09h-8.8a3.56,3.56,0,1,1-7-1.15A3.68,3.68,0,0,1,37.81,181.41ZM70,190.69a3.5,3.5,0,0,1-1.35-.27l-7.24,7-28.77.12v-2.11l28-.12L67,189.09a3.56,3.56,0,1,1,4.94,1,3.61,3.61,0,0,1-2,.63Zm3.23-95.18a4.46,4.46,0,1,1-2-1.64l4.74-3.77,1.21,2.43Zm159.91,50.78a3.64,3.64,0,0,1-1.14.77l.13,14.06-10.41,8.79-.4,10.76a3.56,3.56,0,1,1-2.06.21l.4-11.89L230,160.2l-.13-12.93a3.56,3.56,0,1,1,4.18-2.8,3.62,3.62,0,0,1-1,1.82ZM241,131.67v2.1l-58.69.12-9.52,9.29a3.55,3.55,0,1,1-1.6-1.31l10.32-10.09ZM166.39,21a3.56,3.56,0,0,1,5,5,3.52,3.52,0,0,1-1.83,1L169.75,48l8.7,8.7,0,24.84L180,83l-1.49,1.49,0,0,0,21.28H176.1V82.08l-9.2-9.2-18.66-.16a3.56,3.56,0,1,1-.21-2.06l19.79.16,8.28,8.28V57.4l-8.41-8.53-.16-22a3.56,3.56,0,0,1-1.91-4.66,3.64,3.64,0,0,1,.77-1.14ZM122.09,23h-9.38l-4.47-5.12a3.56,3.56,0,1,1,1.6-1.31l3.68,4.32h30.73l7.54,8.35a3.56,3.56,0,1,1-1.6,1.31L143.44,23H122.09Zm-.86,48.68a3.57,3.57,0,0,1,3.57,3.58,3.54,3.54,0,0,1-.61,2l5.45,5.39h23v2.11H128.83l-6.25-6.18a3.57,3.57,0,1,1-2.71-6.61,3.8,3.8,0,0,1,1.36-.28Zm14.58,119.09a3.73,3.73,0,0,1,1.12-.81l0-21.4,2.09,0v21.09a3.56,3.56,0,1,1-4.09,2.94,3.46,3.46,0,0,1,.92-1.86ZM117.24,146v-2.26h17.63V146ZM90,145a3.56,3.56,0,0,1,0-7.11,3.5,3.5,0,0,1,1.35.27l6.11-5.72h27.87l9.87-9.37L136,125l-9.77,9.42-27.8,0L93,139.46a3.56,3.56,0,0,1-1,4.93,3.81,3.81,0,0,1-2,.61Zm5.09,92.38H92.67l0-22.18h0l0-25.54,7.71-7.39-.14-21.89a3.57,3.57,0,1,1,2.06-.21l.14,23-7.4,7.31v22.3l8.75-8.75h18.81a3.55,3.55,0,1,1-.21,2.05h-17.7l-9.67,9.67Zm54.49-25.07a3.5,3.5,0,0,1-1.35-.27l-4.47,5.12H113l-6.75,7.56a3.55,3.55,0,1,1-1.6-1.31l7.54-8.35h30.72l3.68-4.32a3.57,3.57,0,1,1,3,1.57Zm13.18-70.39a3.56,3.56,0,0,1,0-7.12,3.5,3.5,0,0,1,1.35.27L174.43,125l28.77-.11V127l-28,.12-9.52,9.29a3.56,3.56,0,0,1-1,4.93,3.44,3.44,0,0,1-2,.62Z" transform="translate(-0.01)"/><path class="cls-3" d="M75.3,215.76a3.56,3.56,0,1,0-1.6-1.31l-8.85,8.85h-17c.91.71,1.82,1.41,2.75,2.1h15ZM21.39,169.87a3.55,3.55,0,1,0-2.05.21l-.16,9-4.48,4.55c.34.65.69,1.29,1.05,1.94L21.23,180ZM69.26,31.93a3.55,3.55,0,1,0,1.6-1.31l-7.24-7-11.53-.08c-.94.68-1.88,1.38-2.8,2.08l13.53.1Zm2.47,16.7a3.68,3.68,0,0,0-1.35.26l-7.24-7-28.77-.12v2.1l28,.12,6.45,6.22a3.56,3.56,0,1,0,4.94-1,3.68,3.68,0,0,0-2-.59ZM70,183.57a3.55,3.55,0,0,0-3,5.53l-6.45,6.23-28,.12v2.1l28.77-.12,7.24-7a3.56,3.56,0,0,0,2.7-6.58A3.38,3.38,0,0,0,70,183.57ZM178.51,84.49,180,83l-1.51-1.51v3ZM167.82,70.83,148,70.67a3.55,3.55,0,1,0,.21,2.06l18.66.16,9.2,9.2v-3Zm-46.59,8a3.51,3.51,0,0,0,1.36-.27l6.25,6.18h23.78V82.59h-23L124.2,77.2a3.58,3.58,0,1,0-5,1,3.51,3.51,0,0,0,2,.61Z" transform="translate(-0.01)"/><path class="cls-3" d="M167.53,26.82l.16,22,8.41,8.53v48.35h2.42l0-21.28v-3l0-24.84-8.7-8.7L169.59,27a3.55,3.55,0,1,0-2.06-.21Zm35.86,46.52a3.55,3.55,0,1,0-1.6,1.31l10.8,9,30.28.12c-.25-.7-.5-1.41-.76-2.1l-28.71-.11Z" transform="translate(-0.01)"/><path class="cls-3" d="M241.14,89.86l-32.75-.12-11.46-9.46a3.55,3.55,0,1,0-1.6,1.31l12.26,10.25,33.48.12a3.67,3.67,0,0,1,.07-2.1ZM204.44,55a3.54,3.54,0,1,0-1.6,1.31l9.8,8.84,22.08.15c-.38-.71-.78-1.41-1.18-2.11l-20.09-.15ZM22.13,70.94a3.56,3.56,0,1,0,2.05.21L23.49,58,21.15,55.6c-.4.6-.79,1.2-1.18,1.8l1.48,1.48ZM149.58,205.2a3.56,3.56,0,0,0-3,5.54l-3.68,4.32H112.22l-7.54,8.35a3.56,3.56,0,1,0,1.6,1.31l6.75-7.56h30.72l4.47-5.12a3.56,3.56,0,1,0,1.36-6.84ZM143.44,23l6.75,7.56a3.55,3.55,0,1,0,1.6-1.31l-7.54-8.35H113.52l-3.68-4.32a3.55,3.55,0,1,0-1.6,1.31L112.71,23Zm84.62,118.3a3.55,3.55,0,0,0,0,5,3.48,3.48,0,0,0,1.83,1l.13,12.93L219.61,169l-.4,11.89a3.55,3.55,0,1,0,2.06-.21l.4-10.76,10.41-8.79L232,147.05a3.55,3.55,0,1,0-3.89-5.79ZM69.32,209a3.54,3.54,0,1,0-1.61-1.3l-8.85,8.85H40q1.14,1.06,2.31,2.1H59.66Z" transform="translate(-0.01)"/><path class="cls-3" d="M122.44,206.08a3.56,3.56,0,1,0,.21-2.05H103.84l-8.75,8.75v-22.3l7.4-7.31-.14-23a3.56,3.56,0,1,0-4.66-1.92,3.53,3.53,0,0,0,2.6,2.12l.14,21.89-7.71,7.39,0,25.54h0l0,22.18h2.42V215.74l9.67-9.67ZM95.1,24.32h0l0,25.54,7.71,7.38-.14,21.89a3.57,3.57,0,1,0,2.06.21l.14-23L97.51,49V26.72l8.75,8.75h18.82a3.55,3.55,0,1,0-.21-2H107.18l-9.67-9.66V3c-.81.18-1.62.37-2.42.57l0,20.69Zm81,183.28a3.54,3.54,0,1,0,.28,2.05h20.12l10,10.06,1.58-1.38-10.71-10.76Zm20.06,13a3.56,3.56,0,1,0,.16,5,3.6,3.6,0,0,0,.92-1.86h4.35c.87-.68,1.73-1.37,2.59-2.07H197a3.69,3.69,0,0,0-.81-1.11ZM141,195.6a3.57,3.57,0,0,0-.16-5,3.64,3.64,0,0,0-1.86-.92V168.56l-2.09,0,0,21.4a3.56,3.56,0,0,0,2.95,6.47,3.51,3.51,0,0,0,1.12-.79ZM31.62,186a3.56,3.56,0,1,0-5,.16,3.6,3.6,0,0,0,1.86.92l-.38,16.73c.66.82,1.34,1.63,2,2.43l.4-19.44A3.54,3.54,0,0,0,31.62,186ZM217.81,47.37a3.56,3.56,0,1,0,.16,5,3.64,3.64,0,0,0,.92-1.86h6.4l-1.57-2.07h-5.11A3.5,3.5,0,0,0,217.81,47.37ZM202.93,34.59A3.56,3.56,0,1,0,204,37.76h10.41c-.68-.7-1.37-1.39-2.07-2.08l-8.62,0a3.36,3.36,0,0,0-.79-1.12ZM75.47,27.7A3.56,3.56,0,1,0,78.92,24a3.51,3.51,0,0,0-2,.67L66.7,14.44c-.64.34-1.27.68-1.91,1l10.9,10.87A3.45,3.45,0,0,0,75.47,27.7Zm-46.31,26a3.56,3.56,0,1,0,5-.16,3.64,3.64,0,0,0-1.86-.92V41.23c-.7.78-1.39,1.57-2.08,2.36l0,9.29a3.73,3.73,0,0,0-1.12.81ZM193.77,179l-21.24,0a3.54,3.54,0,1,0,.28,2.05h20.12l10.3,10.38H181.6a3.54,3.54,0,1,0,.28,2.05h47.59l1.34-2.08H206.2Zm-132.12-95a3.56,3.56,0,1,0,.16-5A3.66,3.66,0,0,0,61,80H39.37l10.3-10.38H69.79a3.55,3.55,0,1,0,.27-2.06l-21.24,0L36.42,80H8.5c-.27.69-.53,1.39-.78,2.08h53a3.38,3.38,0,0,0,.91,1.86ZM43,186.28a3.6,3.6,0,0,0,.92-1.86h8.8a3.56,3.56,0,1,0,0-2.09l-9.06,0a3.56,3.56,0,1,0-1.76,4.71,3.61,3.61,0,0,0,1.11-.8ZM58.86,52.72a3.56,3.56,0,0,0-3.41,2.54l-9.06,0a3.54,3.54,0,1,0,.28,2.05h8.8a3.56,3.56,0,1,0,3.39-4.63Zm112.37,89.15a3.56,3.56,0,1,0,1.6,1.31l9.52-9.29,58.69-.12v-2.1l-59.5.12ZM169.79,148a2.75,2.75,0,1,1,2.75-2.75h0A2.75,2.75,0,0,1,169.79,148ZM47,172.79l21.54.16a3.55,3.55,0,1,0-.21-2.06l-19.78-.16L36.88,157.45H4.41c.22.83.45,1.65.69,2.47h31Zm23-3.13a2.75,2.75,0,1,1,0,3.89,2.76,2.76,0,0,1,0-3.89Z" transform="translate(-0.01)"/><path class="cls-3" d="M165.71,136.38l9.52-9.29,28-.12v-2.09l-28.77.11L164.1,135.08a3.53,3.53,0,1,0,1.61,1.3Zm-2.87,4.78a2.75,2.75,0,1,1,2.75-2.75h0a2.75,2.75,0,0,1-2.75,2.75Zm-69.9-1.7,5.48-5.09,27.8,0L136,125l-.81-1.93-9.87,9.37H97.45l-6.11,5.72a3.56,3.56,0,1,0,1.6,1.3Zm-2.87,4.77a2.75,2.75,0,1,1,2.75-2.76,2.75,2.75,0,0,1-2.75,2.76ZM71.18,93.87a4.44,4.44,0,1,0,2,1.63l4-3L75.92,90.1Zm-1.59,7.19a3,3,0,1,1,3-3,3,3,0,0,1-3,3Zm-49.22,42.2h8.09v-2.42H21.83L10,129h5.34v-2.91H.16c0,1,0,2,.06,3.07H6.78Zm5.18-27.15.32-2.42L11,98.81H2.9c-.14.65-.27,1.29-.4,1.94h7.68ZM241.14,89.86a3.72,3.72,0,0,0,5,4.62q-.9-3.6-2-7.11A3.7,3.7,0,0,0,241.14,89.86Zm-123.9,53.89h17.63V146H117.24Z" transform="translate(-0.01)"/><path class="cls-4" d="M148.07,77.62v18.6H132.6v76.15h86.84V77.62Zm51.21,72.76H152.75V99.61h46.53Z" transform="translate(-0.01)"/><path class="cls-5" d="M92.34,153.93v18.43H68.24s-24.34.32-38.58-21.59a49.31,49.31,0,0,1-6.33-39.38c3.47-13.2,13.12-28.84,38.76-33.78h56.44V95.25H68.73s-26.26,9-25.92,30.79a27.26,27.26,0,0,0,13.84,23,37,37,0,0,0,12.08,4.36Z" transform="translate(-0.01)"/><path class="cls-5" d="M68.73,116.11V133.4H100.1v39h18.44V116.11Z" transform="translate(-0.01)"/></svg>