<?xml version="1.0" encoding="UTF-8" ?>
<!DOCTYPE svg PUBLIC "-//W3C//DTD SVG 1.1//EN" "http://www.w3.org/Graphics/SVG/1.1/DTD/svg11.dtd">
<svg width="250pt" height="250pt" viewBox="0 0 250 250" version="1.1" xmlns="http://www.w3.org/2000/svg">
<g id="#f7fcf9ff">
<path fill="#f7fcf9" opacity="1.00" d=" M 0.00 0.00 L 250.00 0.00 L 250.00 250.00 L 0.00 250.00 L 0.00 0.00 M 129.43 27.17 C 124.38 27.78 119.32 28.80 114.51 30.49 C 111.56 31.43 111.01 34.94 109.61 37.30 C 105.46 39.07 101.21 36.87 96.96 36.73 C 95.65 36.73 93.24 35.97 92.98 37.95 C 91.57 41.74 91.03 45.74 90.52 49.73 C 89.31 51.60 87.92 53.39 87.45 55.63 C 82.90 58.16 78.79 62.14 78.40 67.64 C 76.23 69.38 74.02 71.19 72.60 73.63 C 70.86 76.16 71.49 79.39 71.24 82.28 C 68.11 85.70 67.34 90.71 68.96 95.01 C 62.99 99.57 61.18 108.64 65.50 114.89 C 60.82 121.25 64.18 129.69 68.59 135.20 C 61.83 135.60 55.17 137.76 49.53 141.49 C 43.74 145.98 42.86 153.75 40.09 160.04 C 36.71 163.49 31.13 166.34 31.58 172.02 C 32.12 177.06 31.82 182.11 30.46 187.00 C 31.15 191.06 34.09 194.29 36.48 197.50 C 43.33 205.92 54.34 208.41 64.03 212.04 C 83.72 219.77 105.07 221.60 126.02 222.52 C 135.20 223.13 144.17 220.67 153.13 219.09 C 165.03 217.87 177.93 218.94 188.60 212.59 C 192.78 210.44 197.64 210.10 201.87 208.07 C 205.38 206.32 208.31 203.67 211.60 201.58 C 215.92 198.82 219.25 194.27 219.93 189.12 C 220.45 182.33 218.07 175.74 215.29 169.66 C 213.33 166.24 214.90 162.06 213.31 158.48 C 211.61 151.23 206.02 146.05 201.10 140.86 C 197.44 137.84 192.92 135.81 188.25 134.93 C 188.68 131.93 189.07 128.89 188.73 125.87 C 188.56 123.07 186.88 120.70 186.29 118.00 C 192.10 111.43 189.46 101.06 184.27 94.95 C 186.88 89.08 185.20 81.75 180.67 77.24 C 181.41 72.70 180.05 68.20 176.97 64.81 C 176.98 61.13 174.73 58.06 171.63 56.26 C 171.48 52.84 169.71 49.79 169.28 46.41 C 168.43 43.93 167.83 40.90 165.70 39.23 C 160.55 37.79 155.05 38.76 149.92 39.96 C 147.98 38.95 145.98 38.05 143.95 37.23 C 143.52 35.16 144.05 32.37 141.86 31.15 C 138.23 28.68 133.67 27.96 129.43 27.17 Z" />
<path fill="#f7fcf9" opacity="1.00" d=" M 93.06 51.09 C 93.31 47.13 94.15 43.19 95.81 39.56 C 100.53 40.10 104.89 41.99 109.48 43.02 C 109.05 42.44 108.20 41.28 107.77 40.70 C 108.55 40.63 110.10 40.50 110.87 40.43 C 113.61 43.13 117.55 43.59 120.99 44.93 C 124.64 45.80 128.19 47.09 131.87 47.79 C 135.94 45.81 139.62 42.89 143.06 40.00 C 144.92 40.62 148.26 41.32 146.32 44.09 C 151.90 41.80 158.20 40.41 164.18 41.72 C 166.25 44.74 166.90 48.39 167.23 51.97 C 168.23 53.83 168.81 55.85 168.87 57.97 C 172.36 59.55 175.10 63.21 174.49 67.17 C 177.26 69.62 177.68 73.43 178.23 76.86 C 177.50 76.75 176.05 76.54 175.32 76.43 C 181.63 80.36 184.18 89.21 181.35 96.05 C 185.61 99.70 186.15 105.84 185.75 111.07 C 185.65 113.64 184.36 115.91 183.07 118.06 C 185.16 121.62 184.92 125.96 185.26 129.94 C 185.04 132.67 184.51 136.92 181.27 137.51 C 181.76 142.58 179.99 147.79 176.62 151.60 C 173.40 155.01 168.77 156.53 164.35 157.67 C 165.00 160.47 161.23 160.42 159.52 161.35 C 160.74 155.31 165.35 150.19 165.32 143.92 C 162.55 150.68 157.96 156.65 156.10 163.77 C 155.16 166.65 152.57 168.57 150.16 170.19 C 147.67 171.83 144.71 170.41 141.98 170.74 C 139.65 170.72 138.92 167.97 137.46 166.58 C 135.64 162.50 136.83 157.84 136.20 153.52 C 134.85 157.00 134.28 160.72 134.75 164.43 C 133.78 164.21 131.83 163.77 130.86 163.55 C 129.79 159.30 129.62 154.86 129.07 150.52 C 128.32 154.61 128.29 158.76 128.65 162.90 C 129.14 166.64 125.94 170.67 122.05 170.43 C 119.12 169.84 116.23 172.17 113.39 170.63 C 111.18 169.84 110.37 167.61 109.30 165.76 C 105.29 161.12 100.35 156.78 98.54 150.72 C 98.17 156.04 102.25 159.92 105.22 163.80 C 103.67 163.11 102.26 162.16 101.15 160.87 C 92.53 162.17 82.57 155.62 82.17 146.63 C 77.89 145.20 74.26 141.26 74.43 136.55 C 70.25 133.57 67.71 128.81 66.60 123.88 C 65.97 120.65 66.83 117.13 69.07 114.67 C 64.39 108.49 66.88 99.58 72.81 95.21 C 70.27 91.63 70.96 86.67 74.14 83.74 C 73.37 77.53 76.73 71.35 82.35 68.61 C 82.06 68.24 81.46 67.50 81.17 67.12 C 82.60 62.40 86.45 58.61 91.13 57.09 C 90.76 54.83 92.07 52.97 93.06 51.09 M 137.05 57.78 C 134.66 60.67 138.29 63.93 141.13 64.49 C 145.03 62.35 140.34 57.09 137.05 57.78 M 111.55 64.58 C 114.70 64.87 117.03 61.85 116.84 58.86 C 116.32 58.52 115.29 57.82 114.77 57.48 C 112.01 58.71 110.27 61.62 111.55 64.58 M 148.20 64.39 C 148.60 65.54 148.86 67.28 150.32 67.49 C 153.56 67.85 157.34 68.17 159.83 65.60 C 159.40 64.43 158.96 62.94 157.59 62.58 C 154.39 61.84 150.74 62.09 148.20 64.39 M 95.59 67.00 C 98.54 69.39 103.00 68.88 106.10 67.03 C 105.91 65.83 105.95 63.93 104.36 63.71 C 101.18 62.75 96.25 62.82 95.59 67.00 M 125.42 64.74 C 125.34 65.14 125.18 65.93 125.10 66.33 C 125.95 67.15 126.63 68.09 127.16 69.14 C 125.36 69.95 123.42 70.01 121.50 69.77 C 123.40 70.65 125.50 71.06 127.45 70.06 C 129.01 71.18 130.87 70.60 132.58 70.27 C 132.53 70.10 132.41 69.75 132.36 69.58 C 130.64 70.15 128.86 69.84 127.18 69.30 C 128.14 68.14 129.23 67.09 130.22 65.95 C 128.95 64.62 127.11 64.70 125.42 64.74 M 171.40 141.23 C 170.23 141.70 169.09 142.74 168.81 144.01 C 169.90 146.04 173.04 142.18 171.40 141.23 Z" />
</g>
<g id="#515a5aff">
<path fill="#515a5a" opacity="1.00" d=" M 129.43 27.17 C 133.67 27.96 138.23 28.68 141.86 31.15 C 144.05 32.37 143.52 35.16 143.95 37.23 C 145.98 38.05 147.98 38.95 149.92 39.96 C 155.05 38.76 160.55 37.79 165.70 39.23 C 167.83 40.90 168.43 43.93 169.28 46.41 C 169.71 49.79 171.48 52.84 171.63 56.26 C 174.73 58.06 176.98 61.13 176.97 64.81 C 180.05 68.20 181.41 72.70 180.67 77.24 C 185.20 81.75 186.88 89.08 184.27 94.95 C 189.46 101.06 192.10 111.43 186.29 118.00 C 186.88 120.70 188.56 123.07 188.73 125.87 C 189.07 128.89 188.68 131.93 188.25 134.93 C 192.92 135.81 197.44 137.84 201.10 140.86 C 206.02 146.05 211.61 151.23 213.31 158.48 C 214.90 162.06 213.33 166.24 215.29 169.66 C 218.07 175.74 220.45 182.33 219.93 189.12 C 219.25 194.27 215.92 198.82 211.60 201.58 C 208.31 203.67 205.38 206.32 201.87 208.07 C 197.64 210.10 192.78 210.44 188.60 212.59 C 177.93 218.94 165.03 217.87 153.13 219.09 C 144.17 220.67 135.20 223.13 126.02 222.52 C 105.07 221.60 83.72 219.77 64.03 212.04 C 54.34 208.41 43.33 205.92 36.48 197.50 C 34.09 194.29 31.15 191.06 30.46 187.00 C 31.82 182.11 32.12 177.06 31.58 172.02 C 31.13 166.34 36.71 163.49 40.09 160.04 C 42.86 153.75 43.74 145.98 49.53 141.49 C 55.17 137.76 61.83 135.60 68.59 135.20 C 64.18 129.69 60.82 121.25 65.50 114.89 C 61.18 108.64 62.99 99.57 68.96 95.01 C 67.34 90.71 68.11 85.70 71.24 82.28 C 71.49 79.39 70.86 76.16 72.60 73.63 C 74.02 71.19 76.23 69.38 78.40 67.64 C 78.79 62.14 82.90 58.16 87.45 55.63 C 87.92 53.39 89.31 51.60 90.52 49.73 C 91.03 45.74 91.57 41.74 92.98 37.95 C 93.24 35.97 95.65 36.73 96.96 36.73 C 101.21 36.87 105.46 39.07 109.61 37.30 C 111.01 34.94 111.56 31.43 114.51 30.49 C 119.32 28.80 124.38 27.78 129.43 27.17 M 117.90 32.33 C 114.13 32.53 112.69 36.72 112.04 39.84 C 112.64 41.16 114.18 41.66 115.26 42.51 C 120.88 43.44 126.27 45.98 132.05 46.10 C 135.62 44.93 138.68 42.50 141.58 40.17 C 141.31 38.20 141.30 36.18 140.79 34.25 C 138.82 32.11 135.72 31.64 133.08 30.76 C 127.98 29.15 122.89 31.46 117.90 32.33 M 93.06 51.09 C 92.07 52.97 90.76 54.83 91.13 57.09 C 86.45 58.61 82.60 62.40 81.17 67.12 C 81.46 67.50 82.06 68.24 82.35 68.61 C 76.73 71.35 73.37 77.53 74.14 83.74 C 70.96 86.67 70.27 91.63 72.81 95.21 C 66.88 99.58 64.39 108.49 69.07 114.67 C 66.83 117.13 65.97 120.65 66.60 123.88 C 67.71 128.81 70.25 133.57 74.43 136.55 C 74.26 141.26 77.89 145.20 82.17 146.63 C 82.57 155.62 92.53 162.17 101.15 160.87 C 102.26 162.16 103.67 163.11 105.22 163.80 C 102.25 159.92 98.17 156.04 98.54 150.72 C 100.35 156.78 105.29 161.12 109.30 165.76 C 110.37 167.61 111.18 169.84 113.39 170.63 C 116.23 172.17 119.12 169.84 122.05 170.43 C 125.94 170.67 129.14 166.64 128.65 162.90 C 128.29 158.76 128.32 154.61 129.07 150.52 C 129.62 154.86 129.79 159.30 130.86 163.55 C 131.83 163.77 133.78 164.21 134.75 164.43 C 134.28 160.72 134.85 157.00 136.20 153.52 C 136.83 157.84 135.64 162.50 137.46 166.58 C 138.92 167.97 139.65 170.72 141.98 170.74 C 144.71 170.41 147.67 171.83 150.16 170.19 C 152.57 168.57 155.16 166.65 156.10 163.77 C 157.96 156.65 162.55 150.68 165.32 143.92 C 165.35 150.19 160.74 155.31 159.52 161.35 C 161.23 160.42 165.00 160.47 164.35 157.67 C 168.77 156.53 173.40 155.01 176.62 151.60 C 179.99 147.79 181.76 142.58 181.27 137.51 C 184.51 136.92 185.04 132.67 185.26 129.94 C 184.92 125.96 185.16 121.62 183.07 118.06 C 184.36 115.91 185.65 113.64 185.75 111.07 C 186.15 105.84 185.61 99.70 181.35 96.05 C 184.18 89.21 181.63 80.36 175.32 76.43 C 176.05 76.54 177.50 76.75 178.23 76.86 C 177.68 73.43 177.26 69.62 174.49 67.17 C 175.10 63.21 172.36 59.55 168.87 57.97 C 168.81 55.85 168.23 53.83 167.23 51.97 C 166.90 48.39 166.25 44.74 164.18 41.72 C 158.20 40.41 151.90 41.80 146.32 44.09 C 148.26 41.32 144.92 40.62 143.06 40.00 C 139.62 42.89 135.94 45.81 131.87 47.79 C 128.19 47.09 124.64 45.80 120.99 44.93 C 117.55 43.59 113.61 43.13 110.87 40.43 C 110.10 40.50 108.55 40.63 107.77 40.70 C 108.20 41.28 109.05 42.44 109.48 43.02 C 104.89 41.99 100.53 40.10 95.81 39.56 C 94.15 43.19 93.31 47.13 93.06 51.09 M 58.83 140.51 C 49.04 142.16 44.30 152.57 43.77 161.53 C 38.41 163.96 33.27 169.13 34.84 175.55 C 35.35 179.70 33.87 183.77 34.18 187.90 C 36.43 192.63 39.97 196.70 44.06 199.94 C 48.50 203.46 54.20 204.51 59.38 206.46 C 68.41 209.99 77.47 213.83 87.12 215.22 C 102.65 217.51 118.36 219.63 134.10 218.76 C 141.07 217.75 148.07 216.90 154.96 215.43 C 160.23 214.65 165.65 215.60 170.89 214.40 C 175.20 213.41 179.60 212.58 183.64 210.71 C 191.47 207.00 200.87 206.53 207.47 200.41 C 210.57 197.27 215.05 194.61 215.67 189.86 C 216.92 182.05 212.54 174.99 210.37 167.78 C 210.21 161.48 209.14 154.84 204.91 149.89 C 201.14 145.25 196.29 141.62 190.84 139.19 C 188.64 138.35 186.03 137.69 183.86 138.94 L 183.26 138.79 C 183.23 143.24 182.15 147.82 179.39 151.40 C 176.77 155.18 172.46 157.04 168.27 158.50 C 165.79 161.08 162.42 162.44 159.01 163.28 C 157.78 166.11 156.25 168.96 153.61 170.70 C 149.69 173.67 144.51 172.42 140.03 171.95 C 137.80 170.28 136.06 167.99 134.76 165.54 C 133.36 165.59 132.00 165.33 130.66 164.94 C 130.37 169.15 126.09 172.53 121.94 172.19 C 118.31 173.23 114.06 173.45 110.98 170.86 C 108.63 169.71 108.68 165.94 105.90 165.55 C 102.94 165.47 100.94 162.67 97.95 162.81 C 90.54 162.26 82.89 157.64 80.87 150.15 C 80.44 146.65 76.26 146.11 74.82 143.21 C 73.35 141.64 73.70 138.22 71.13 138.02 C 67.02 138.24 62.41 138.39 58.83 140.51 Z" />
<path fill="#515a5a" opacity="1.00" d=" M 137.05 57.78 C 140.34 57.09 145.03 62.35 141.13 64.49 C 138.29 63.93 134.66 60.67 137.05 57.78 Z" />
<path fill="#515a5a" opacity="1.00" d=" M 111.55 64.58 C 110.27 61.62 112.01 58.71 114.77 57.48 C 115.29 57.82 116.32 58.52 116.84 58.86 C 117.03 61.85 114.70 64.87 111.55 64.58 Z" />
<path fill="#515a5a" opacity="1.00" d=" M 125.42 64.74 C 127.11 64.70 128.95 64.62 130.22 65.95 C 129.23 67.09 128.14 68.14 127.18 69.30 C 128.86 69.84 130.64 70.15 132.36 69.58 C 132.41 69.75 132.53 70.10 132.58 70.27 C 130.87 70.60 129.01 71.18 127.45 70.06 C 125.50 71.06 123.40 70.65 121.50 69.77 C 123.42 70.01 125.36 69.95 127.16 69.14 C 126.63 68.09 125.95 67.15 125.10 66.33 C 125.18 65.93 125.34 65.14 125.42 64.74 Z" />
</g>
<g id="#ffefd2ff">
<path fill="#ffefd2" opacity="1.00" d=" M 117.90 32.33 C 122.89 31.46 127.98 29.15 133.08 30.76 C 135.72 31.64 138.82 32.11 140.79 34.25 C 141.30 36.18 141.31 38.20 141.58 40.17 C 138.68 42.50 135.62 44.93 132.05 46.10 C 126.27 45.98 120.88 43.44 115.26 42.51 C 114.18 41.66 112.64 41.16 112.04 39.84 C 112.69 36.72 114.13 32.53 117.90 32.33 Z" />
<path fill="#ffefd2" opacity="1.00" d=" M 148.20 64.39 C 150.74 62.09 154.39 61.84 157.59 62.58 C 158.96 62.94 159.40 64.43 159.83 65.60 C 157.34 68.17 153.56 67.85 150.32 67.49 C 148.86 67.28 148.60 65.54 148.20 64.39 Z" />
<path fill="#ffefd2" opacity="1.00" d=" M 95.59 67.00 C 96.25 62.82 101.18 62.75 104.36 63.71 C 105.95 63.93 105.91 65.83 106.10 67.03 C 103.00 68.88 98.54 69.39 95.59 67.00 Z" />
<path fill="#ffefd2" opacity="1.00" d=" M 183.86 138.94 C 186.03 137.69 188.64 138.35 190.84 139.19 C 196.29 141.62 201.14 145.25 204.91 149.89 C 206.84 159.06 207.41 168.93 203.87 177.80 C 202.94 180.38 200.63 182.00 198.56 183.62 C 189.90 190.08 181.00 196.25 171.67 201.70 C 168.44 203.48 165.56 206.12 161.88 206.92 C 139.71 210.16 117.08 210.70 94.86 207.58 C 75.94 205.13 56.26 201.71 40.11 190.89 C 37.18 189.30 38.45 185.81 38.36 183.17 C 37.65 180.44 35.91 178.13 34.84 175.55 C 33.27 169.13 38.41 163.96 43.77 161.53 C 44.30 152.57 49.04 142.16 58.83 140.51 C 58.17 141.66 57.08 142.43 56.01 143.19 C 51.34 146.25 49.15 151.93 48.32 157.24 C 47.57 161.94 51.18 165.69 54.47 168.46 C 62.52 175.69 73.16 178.72 83.32 181.66 C 98.69 186.71 115.05 186.93 131.05 187.73 C 148.71 187.72 166.26 184.48 183.02 179.01 C 188.64 176.64 194.06 173.59 198.87 169.83 C 206.36 162.53 203.09 149.46 195.49 143.49 C 191.98 141.19 187.84 140.11 183.86 138.94 Z" />
</g>
<g id="#f9c8a9ff">
<path fill="#f9c8a9" opacity="1.00" d=" M 58.83 140.51 C 62.41 138.39 67.02 138.24 71.13 138.02 C 73.70 138.22 73.35 141.64 74.82 143.21 C 76.26 146.11 80.44 146.65 80.87 150.15 C 82.89 157.64 90.54 162.26 97.95 162.81 C 100.94 162.67 102.94 165.47 105.90 165.55 C 108.68 165.94 108.63 169.71 110.98 170.86 C 114.06 173.45 118.31 173.23 121.94 172.19 C 126.09 172.53 130.37 169.15 130.66 164.94 C 132.00 165.33 133.36 165.59 134.76 165.54 C 136.06 167.99 137.80 170.28 140.03 171.95 C 144.51 172.42 149.69 173.67 153.61 170.70 C 156.25 168.96 157.78 166.11 159.01 163.28 C 162.42 162.44 165.79 161.08 168.27 158.50 C 172.46 157.04 176.77 155.18 179.39 151.40 C 182.15 147.82 183.23 143.24 183.26 138.79 L 183.86 138.94 C 187.84 140.11 191.98 141.19 195.49 143.49 C 203.09 149.46 206.36 162.53 198.87 169.83 C 194.06 173.59 188.64 176.64 183.02 179.01 C 166.26 184.48 148.71 187.72 131.05 187.73 C 115.05 186.93 98.69 186.71 83.32 181.66 C 73.16 178.72 62.52 175.69 54.47 168.46 C 51.18 165.69 47.57 161.94 48.32 157.24 C 49.15 151.93 51.34 146.25 56.01 143.19 C 57.08 142.43 58.17 141.66 58.83 140.51 Z" />
<path fill="#f9c8a9" opacity="1.00" d=" M 171.40 141.23 C 173.04 142.18 169.90 146.04 168.81 144.01 C 169.09 142.74 170.23 141.70 171.40 141.23 Z" />
<path fill="#f9c8a9" opacity="1.00" d=" M 203.87 177.80 C 207.41 168.93 206.84 159.06 204.91 149.89 C 209.14 154.84 210.21 161.48 210.37 167.78 C 212.54 174.99 216.92 182.05 215.67 189.86 C 215.05 194.61 210.57 197.27 207.47 200.41 C 200.87 206.53 191.47 207.00 183.64 210.71 C 179.60 212.58 175.20 213.41 170.89 214.40 C 165.65 215.60 160.23 214.65 154.96 215.43 C 148.07 216.90 141.07 217.75 134.10 218.76 C 118.36 219.63 102.65 217.51 87.12 215.22 C 77.47 213.83 68.41 209.99 59.38 206.46 C 54.20 204.51 48.50 203.46 44.06 199.94 C 39.97 196.70 36.43 192.63 34.18 187.90 C 33.87 183.77 35.35 179.70 34.84 175.55 C 35.91 178.13 37.65 180.44 38.36 183.17 C 38.45 185.81 37.18 189.30 40.11 190.89 C 56.26 201.71 75.94 205.13 94.86 207.58 C 117.08 210.70 139.71 210.16 161.88 206.92 C 165.56 206.12 168.44 203.48 171.67 201.70 C 181.00 196.25 189.90 190.08 198.56 183.62 C 200.63 182.00 202.94 180.38 203.87 177.80 Z" />
</g>
</svg>
