<?xml version="1.0" encoding="UTF-8" ?>
<!DOCTYPE svg PUBLIC "-//W3C//DTD SVG 1.1//EN" "http://www.w3.org/Graphics/SVG/1.1/DTD/svg11.dtd">
<svg width="250pt" height="250pt" viewBox="0 0 250 250" version="1.1" xmlns="http://www.w3.org/2000/svg">
<g id="#051725ff">
<path fill="#051725" opacity="1.00" d=" M 0.00 0.00 L 250.00 0.00 L 250.00 250.00 L 0.00 250.00 L 0.00 0.00 M 113.53 44.26 C 113.70 50.86 113.58 57.46 113.63 64.05 C 98.53 63.75 83.44 64.28 68.34 63.89 C 68.35 89.04 68.22 114.19 68.42 139.34 C 80.38 151.11 92.67 162.55 104.47 174.50 C 107.48 177.31 110.20 180.45 113.44 183.02 C 113.86 189.32 113.50 195.65 113.65 201.96 C 117.60 205.46 121.18 209.35 125.01 212.99 C 128.84 209.39 132.39 205.49 136.30 201.99 C 136.46 195.78 136.32 189.57 136.39 183.36 C 151.39 168.65 166.42 153.96 181.56 139.38 C 181.80 122.00 181.61 104.61 181.66 87.23 C 174.30 94.96 166.05 101.89 158.96 109.84 C 158.59 116.58 159.23 123.34 158.62 130.07 C 150.84 136.76 144.12 144.60 136.34 151.27 C 136.40 137.32 136.31 123.37 136.40 109.42 C 128.77 109.36 121.15 109.43 113.53 109.45 C 113.72 123.37 113.63 137.30 113.60 151.23 C 105.84 144.58 99.10 136.81 91.43 130.06 C 90.78 115.65 91.18 101.19 91.22 86.77 C 109.14 86.87 127.06 86.76 144.99 86.82 C 146.29 86.65 147.99 87.17 148.95 86.00 C 156.25 78.57 163.96 71.54 171.10 63.97 C 159.52 63.98 147.93 64.16 136.36 63.88 C 136.37 57.32 136.39 50.75 136.35 44.18 C 128.74 44.24 121.13 44.07 113.53 44.26 Z" />
</g>
<g id="#fefffeff">
<path fill="#fefffe" opacity="1.00" d=" M 113.53 44.26 C 121.13 44.07 128.74 44.24 136.35 44.18 C 136.39 50.75 136.37 57.32 136.36 63.88 C 147.93 64.16 159.52 63.98 171.10 63.97 C 163.96 71.54 156.25 78.57 148.95 86.00 C 147.99 87.17 146.29 86.65 144.99 86.82 C 127.06 86.76 109.14 86.87 91.22 86.77 C 91.18 101.19 90.78 115.65 91.43 130.06 C 99.10 136.81 105.84 144.58 113.60 151.23 C 113.63 137.30 113.72 123.37 113.53 109.45 C 121.15 109.43 128.77 109.36 136.40 109.42 C 136.31 123.37 136.40 137.32 136.34 151.27 C 144.12 144.60 150.84 136.76 158.62 130.07 C 159.23 123.34 158.59 116.58 158.96 109.84 C 166.05 101.89 174.30 94.96 181.66 87.23 C 181.61 104.61 181.80 122.00 181.56 139.38 C 166.42 153.96 151.39 168.65 136.39 183.36 C 136.32 189.57 136.46 195.78 136.30 201.99 C 132.39 205.49 128.84 209.39 125.01 212.99 C 121.18 209.35 117.60 205.46 113.65 201.96 C 113.50 195.65 113.86 189.32 113.44 183.02 C 110.20 180.45 107.48 177.31 104.47 174.50 C 92.67 162.55 80.38 151.11 68.42 139.34 C 68.22 114.19 68.35 89.04 68.34 63.89 C 83.44 64.28 98.53 63.75 113.63 64.05 C 113.58 57.46 113.70 50.86 113.53 44.26 Z" />
</g>
</svg>
