<?xml version="1.0" encoding="utf-8"?>
<!-- Generator: Adobe Illustrator 26.0.3, SVG Export Plug-In . SVG Version: 6.00 Build 0)  -->
<svg version="1.1" id="Layer_1" xmlns="http://www.w3.org/2000/svg" xmlns:xlink="http://www.w3.org/1999/xlink" x="0px" y="0px"
	 viewBox="0 0 250 250" style="enable-background:new 0 0 250 250;" xml:space="preserve">
<style type="text/css">
	.st0{fill:#FA8D00;}
</style>
<g id="_x23_000000ff">
	<path d="M118,1.9c26.5-1.5,53.5,5.8,75.5,20.6c24.1,16,42.2,40.8,50,68.6c4.9,17.4,6.1,35.9,3.1,53.7
		c-4.7,29.7-20.9,57.4-44.4,76.2c-19.6,15.8-44.1,25.3-69.2,26.9c-27.3,1.9-55.1-5.8-77.6-21.3c-22.6-15.4-39.8-38.5-47.9-64.6
		c-7.5-23.6-7.6-49.4-0.3-73.1C15.5,61.3,34,36.9,58.4,21.3C76.2,9.8,96.9,3.2,118,1.9 M101.6,101.8C89,88.6,77.1,74.5,64.8,60.9
		c0.9,29.4-0.1,58.9,0.6,88.4c36.2,0,72.4,0.1,108.6-0.1c3.5-0.6,7.1-0.3,10.6,0.1c0.5-29.5,0.6-58.9,0.6-88.4
		c-12.3,13.6-24.4,27.2-36.6,40.9c-8.1-20.4-15.6-41-23.6-61.4C117,60.8,109.5,81.4,101.6,101.8 M76.4,161.6
		c-6.7,2.4-11.9,9.1-11.8,16.4c-0.7,9.5,7.9,18.3,17.4,17.9c8.8,0.5,17.2-7,17.7-15.8c0.8-7.2-3.4-14.7-10-17.8
		C85.6,160.3,80.7,160,76.4,161.6 M119.3,161.5c-10.1,3.1-15,16.1-9.9,25.2c4.1,8.2,15,11.6,23.2,7.6c8.1-3.6,12.4-13.9,9-22.1
		C138.5,163.4,128,158.3,119.3,161.5 M161.5,161.6c-9.6,3.3-14.6,15.5-9.8,24.5c4,8.6,15.2,12.1,23.6,8.1
		c6.2-2.8,10.2-9.5,10.1-16.3c-0.3-4.7-2.3-9.5-5.9-12.7C174.9,160.8,167.5,159.3,161.5,161.6z"/>
</g>
<g id="_x23_fa8d00ff">
	<path class="st0" d="M101.6,101.8c7.9-20.5,15.4-41,23.4-61.4c8,20.4,15.5,41.1,23.6,61.4c12.1-13.7,24.3-27.3,36.6-40.9
		c0,29.5-0.1,58.9-0.6,88.4c-3.5-0.4-7.1-0.8-10.6-0.1c-36.2,0.2-72.4,0.1-108.6,0.1c-0.7-29.5,0.3-58.9-0.6-88.4
		C77.1,74.5,89,88.6,101.6,101.8z"/>
	<path class="st0" d="M76.4,161.6c4.3-1.6,9.2-1.3,13.3,0.7c6.6,3.1,10.8,10.6,10,17.8c-0.5,8.8-8.8,16.3-17.7,15.8
		c-9.5,0.4-18.1-8.5-17.4-17.9C64.5,170.7,69.7,164,76.4,161.6z"/>
	<path class="st0" d="M119.3,161.5c8.7-3.2,19.3,1.9,22.3,10.6c3.4,8.3-0.9,18.5-9,22.1c-8.2,4-19,0.6-23.2-7.6
		C104.2,177.6,109.2,164.6,119.3,161.5z"/>
	<path class="st0" d="M161.5,161.6c6.1-2.3,13.4-0.9,18.1,3.6c3.6,3.2,5.5,7.9,5.9,12.7c0,6.8-3.9,13.5-10.1,16.3
		c-8.4,4.1-19.6,0.5-23.6-8.1C146.9,177.2,151.8,164.9,161.5,161.6z"/>
</g>
</svg>
