<?xml version="1.0" encoding="utf-8"?>
<!-- Generator: Adobe Illustrator 26.0.3, SVG Export Plug-In . SVG Version: 6.00 Build 0)  -->
<svg version="1.1" id="Layer_1" xmlns="http://www.w3.org/2000/svg" xmlns:xlink="http://www.w3.org/1999/xlink" x="0px" y="0px"
	 viewBox="0 0 250 250" style="enable-background:new 0 0 250 250;" xml:space="preserve">
<style type="text/css">
	.st0{fill:#FFFFFF;}
	.st1{fill:#FFDF47;}
	.st2{fill:#F1B70B;}
	.st3{fill:#6D738E;}
	.st4{fill:#8E9CC9;}
	.st5{fill:#2B49A2;}
	.st6{fill:#2849AF;}
	.st7{fill:#A6CCFE;}
	.st8{fill:#356DF3;}
	.st9{fill:#3B6DDE;}
	.st10{fill:#4F8FFD;}
	.st11{fill:#54B8FF;}
	.st12{fill:#EEF9FF;}
	.st13{fill:#DEA219;}
	.st14{fill:#FFF559;}
	.st15{fill:#607BB9;}
	.st16{fill:#6871D4;}
	.st17{fill:#6086FD;}
	.st18{fill:#65B5FF;}
	.st19{fill:#9CD5FF;}
	.st20{fill:#6F90FA;}
	.st21{fill:#BAE6FF;}
	.st22{fill:#F1A22E;}
	.st23{fill:#729AFD;}
	.st24{fill:#99EFFF;}
	.st25{fill:#75DAFF;}
	.st26{fill:#D99F18;}
	.st27{fill:#FFD63B;}
	.st28{fill:#B0C2FA;}
	.st29{fill:#EAEFF1;}
	.st30{fill:#DDC2A5;}
	.st31{fill:#FCD645;}
	.st32{fill:#FDF05A;}
	.st33{fill:#FEED51;}
	.st34{fill:#830DFF;}
	.st35{fill:#FEF39C;}
	.st36{fill:#FEF472;}
	.st37{fill:#FEF592;}
	.st38{fill:#FDF4B9;}
	.st39{fill:#8C33E5;}
	.st40{fill:#FDEF54;}
	.st41{fill:#F9D647;}
	.st42{fill:#5C12B7;}
	.st43{fill:#D764C2;}
	.st44{fill:#FDE983;}
	.st45{fill:#997277;}
	.st46{fill:#9B54BF;}
	.st47{fill:#EE8A2B;}
	.st48{fill:#FFF245;}
	.st49{fill:#A39FE0;}
	.st50{fill:#9F643C;}
	.st51{fill:#880AF5;}
	.st52{fill:#3879EE;}
	.st53{fill:#3252B5;}
	.st54{fill:#3458C0;}
	.st55{fill:#4183FB;}
	.st56{fill:#3050AD;}
	.st57{fill:#D7AC73;}
	.st58{fill:#80CAFE;}
	.st59{fill:#F3BA67;}
	.st60{fill:#F5C336;}
	.st61{fill:#5676FE;}
	.st62{fill:#C8BAFA;}
	.st63{fill:#9487C2;}
	.st64{fill:#FCDC33;}
	.st65{fill:#FFD835;}
	.st66{fill:#3F52A0;}
	.st67{fill:#2C69C6;}
	.st68{fill:#450D75;}
	.st69{fill:#5B1497;}
	.st70{fill:#CECCFF;}
	.st71{fill:#C27A35;}
	.st72{fill:#D9693A;}
	.st73{fill:#4A449B;}
	.st74{fill:#F1B426;}
	.st75{fill:#615FA6;}
	.st76{fill:#FDE038;}
	.st77{fill:#F5C430;}
	.st78{fill:#581799;}
	.st79{fill:#860EF6;}
	.st80{fill:#4A138F;}
	.st81{fill:#A64BF0;}
	.st82{fill:#4C56DF;}
	.st83{fill:#308AF0;}
	.st84{fill:#7236B0;}
	.st85{fill:#C37B87;}
	.st86{fill:#7C7AFB;}
	.st87{fill:#723B58;}
	.st88{fill:#F5D7A0;}
	.st89{fill:#F7BC24;}
	.st90{fill:#708BCE;}
	.st91{fill:#8522EC;}
	.st92{fill:#FEC82A;}
	.st93{fill:#B9802B;}
	.st94{fill:#F2A811;}
	.st95{fill:#9E653D;}
	.st96{fill:#FACA1B;}
	.st97{fill:#F2B320;}
	.st98{fill:#6B7DFD;}
	.st99{fill:#F5BF63;}
	.st100{fill:#FDE61B;}
	.st101{fill:#E8823C;}
	.st102{fill:#E2762C;}
	.st103{fill:#D8704A;}
	.st104{fill:#7B65C1;}
	.st105{fill:#F6BA3D;}
	.st106{fill:#8417F4;}
	.st107{fill:#FECC2B;}
	.st108{fill:#6A1AAA;}
	.st109{fill:#AE50E2;}
	.st110{fill:#887EF4;}
	.st111{fill:#450D7D;}
	.st112{fill:#470F85;}
	.st113{fill:#6B79B7;}
	.st114{fill:#7277BA;}
	.st115{fill:#447BCB;}
	.st116{fill:#5B64BF;}
	.st117{fill:#A09FF5;}
	.st118{fill:#E21DF9;}
	.st119{fill:#481192;}
	.st120{fill:#5288FC;}
	.st121{fill:#B317D8;}
	.st122{fill:#874F4A;}
	.st123{fill:#9765F6;}
	.st124{fill:#D169E9;}
	.st125{fill:#7774C5;}
	.st126{fill:#80CCFE;}
	.st127{fill:#7758E1;}
	.st128{fill:#76309A;}
	.st129{fill:#9DFCFF;}
	.st130{fill:#CEF5FF;}
	.st131{fill:#F1FBFF;}
	.st132{fill:#5A60E4;}
	.st133{fill:#8556FF;}
	.st134{fill:#7D57F2;}
	.st135{fill:#9EEDFF;}
	.st136{fill:#BEF8FF;}
	.st137{fill:#97F7FF;}
	.st138{fill:#9EEEFE;}
	.st139{fill:#84E3FE;}
	.st140{fill:#7D16EC;}
	.st141{fill:#89EAFF;}
	.st142{fill:#7589FE;}
	.st143{fill:#14AAFB;}
	.st144{fill:#E065FB;}
	.st145{fill:#52D5FF;}
	.st146{fill:#7326AB;}
	.st147{fill:#501AB4;}
	.st148{fill:#6E16E9;}
	.st149{fill:#6B34BC;}
	.st150{fill:#674BAF;}
	.st151{fill:#C211EB;}
	.st152{fill:#470A82;}
	.st153{fill:#FEBD1B;}
	.st154{fill:#9884E8;}
	.st155{fill:#5C13B5;}
	.st156{fill:#7EDCFF;}
	.st157{fill:#9A8FFF;}
	.st158{fill:#71E4FF;}
	.st159{fill:#735DB3;}
	.st160{fill:#9175E4;}
	.st161{fill:#41B6FD;}
	.st162{fill:#599DFE;}
	.st163{fill:#5530A0;}
	.st164{fill:#6360FC;}
	.st165{fill:#6DD6FF;}
	.st166{fill:#9D62FF;}
	.st167{fill:#56CBFF;}
	.st168{fill:#8843D7;}
	.st169{fill:#8E38CD;}
	.st170{fill:#481389;}
	.st171{fill:#450E7F;}
	.st172{fill:#61C0FE;}
	.st173{fill:#B97BFC;}
	.st174{fill:#34BBFF;}
	.st175{fill:#7212EB;}
	.st176{fill:#EE26FF;}
	.st177{fill:#B25656;}
	.st178{fill:#30D4FF;}
	.st179{fill:#E19AD5;}
	.st180{fill:#3CB6FD;}
	.st181{fill:#8740A0;}
	.st182{fill:#B227E3;}
	.st183{fill:#17B8FF;}
	.st184{fill:#BD45F9;}
	.st185{fill:#16ACFC;}
	.st186{fill:#48F0FF;}
	.st187{fill:#FCFCFF;}
	.st188{fill:#FFF22E;}
	.st189{fill:#DE5371;}
	.st190{fill:#A11BFF;}
	.st191{fill:#582264;}
	.st192{fill:#441382;}
	.st193{fill:#FE2DFF;}
	.st194{fill:#9112B3;}
	.st195{fill:#6D18CC;}
	.st196{fill:#9C3E6A;}
	.st197{fill:#8A16FC;}
	.st198{fill:#7D19E9;}
	.st199{fill:#642B64;}
	.st200{fill:#FFDA1F;}
	.st201{fill:#6E2F8D;}
	.st202{fill:#FDB20D;}
	.st203{fill:#471072;}
	.st204{fill:#FFBB15;}
	.st205{fill:#903BA7;}
	.st206{fill:#6815D9;}
</style>
<g id="_x23_ffffffff">
	<path class="st0" d="M31.5,72.9c0.1,0.7,0.2,1.9,0.2,2.6c-0.4,3.5-0.6,7-0.5,10.5c0.1,24-0.1,48,0.1,72.1c0,4.8,0,9.7,1.2,14.3
		c1.3,6.9,7.6,11.1,13.5,13.9c3,1.7,5.9,3.5,8.9,5.1c9.2,5.4,18.4,10.9,27.8,16c11.2,6.4,22.5,12.8,33.7,19.2
		c4.6,2.9,10.6,3.9,15.7,1.6c4.7-2.2,9.1-5,13.8-7.4c-4.9,3.6-10.2,6.8-15.9,9c-4.7,1.5-10,0.8-14.3-1.8
		c-11.1-6.3-22.2-12.6-33.4-18.9c-8.7-5.2-17.6-10-26.4-15c-4.2-2.4-8.4-4.6-12.6-6.9c-4.1-2.3-8.3-4.8-10.7-9
		c-2.2-3.6-2.4-8-2.3-12.1c0-13.3,0.4-26.6-0.1-39.9c0.5-15.1,0.1-30.2,0.2-45.3C30.5,78.2,31,75.6,31.5,72.9z"/>
	<path class="st0" d="M197.4,145.1c0.6,0.8,1.2,1.5,1.8,2.3c2.7,3.5,4.5,7.6,6.3,11.6c-2-2.9-4.1-5.7-6.2-8.6
		c-0.6-0.9-1.3-1.8-1.9-2.8l0-0.8C197.4,146.4,197.4,145.5,197.4,145.1z"/>
	<path class="st0" d="M188.9,196.1c8.4-4.6,16.8-9.3,25-14.2c-5.3,5-12.4,7.4-18.3,11.6c-13.7,7.5-27.3,15.3-40.9,23.1
		c-2.2,1.2-4.5,2.3-6.8,3.3C161.2,211.5,175.3,204.3,188.9,196.1z"/>
</g>
<g id="_x23_ffdf47ff">
	<path class="st1" d="M108.3,11.3c8.8-5.8,20.7-6.5,30.1-1.8c21.1,11.8,42.3,23.3,63.2,35.2c0,5.3-1.5,11.2,2,15.7
		c-4.1-2.3-8.3-4.4-12.4-6.7c-5.8-3.5-11.7-6.9-17.7-10c-12.9-7.6-26.2-14.6-39.3-22c-4.9-2.9-11.1-3.5-16.2-0.6
		C95.4,33.7,72.7,46.4,50,59c-4.6,2.6-9.6,4.8-13.3,8.8c-1.7,2.2-3.1,4.6-4.5,6.9l-0.5,0.8c-0.1-0.6-0.2-1.9-0.2-2.6
		c0.4-2.7,0.8-5.3,1.3-8c-2.6,0.2-5.5-0.3-8,0.8c-2.2,2.3-3.9,5.1-5.7,7.8c0-5.4,3-10.1,6.4-14c5.2-5.9,12.7-8.7,19.2-12.7
		C55.7,40.3,67.1,34.6,78,28.1C88,22.4,98.3,17.1,108.3,11.3z"/>
</g>
<g id="_x23_f1b70bff">
	<path class="st2" d="M118.1,21.2c5.1-2.9,11.3-2.3,16.2,0.6c13.1,7.3,26.4,14.4,39.3,22c-4.9,1.8-9.9-0.2-14.8-1.2
		c-8.8-4.8-17.4-10-26.3-14.7c-5-4-11.7-2.7-16.5,0.9C96.9,39.6,77.8,50,59,61.1c-1.3,0.5-2.6,1.1-4,1.6c-6.2,1.3-11.7,5.6-18.3,5
		c3.7-4,8.7-6.2,13.3-8.8C72.7,46.4,95.4,33.7,118.1,21.2z"/>
</g>
<g id="_x23_6d738eff">
	<path class="st3" d="M115.9,28.8c4.9-3.6,11.5-4.8,16.5-0.9c-0.4,0.1-1.3,0.2-1.7,0.3c-4.3,0.4-8.6,0.1-12.8,1.2
		C117.4,29.3,116.4,28.9,115.9,28.8z"/>
</g>
<g id="_x23_8e9cc9ff">
	<path class="st4" d="M117.9,29.4c4.2-1.1,8.5-0.8,12.8-1.2c0.8,1.6,1.6,3.2,2.4,4.8c-3.2-0.6-6.4-1.4-9.7-1.2
		c-3.2,0.5-6,2.5-8.8,4.1c0.4-1,0.8-2.1,1.2-3.1C116.5,31.6,117.2,30.5,117.9,29.4z"/>
</g>
<g id="_x23_2b49a2ff">
	<path class="st5" d="M130.8,28.2c0.4-0.1,1.3-0.2,1.7-0.3c8.9,4.7,17.5,9.9,26.3,14.7c10.8,6.6,22.1,12.3,33,18.5
		c3.9,2.1,7.7,4.4,11.5,6.7c-13.3-3.8-24.8-11.7-36.9-18c-7.2-4.4-15-7.7-22.3-11.9c-3.2-1.9-6.6-3.7-10.2-4.7l-0.8-0.2
		C132.3,31.4,131.5,29.8,130.8,28.2z"/>
</g>
<g id="_x23_2849afff">
	<path class="st6" d="M59,61.1c18.8-11.1,38-21.5,56.9-32.3c0.5,0.2,1.5,0.5,2.1,0.6c-0.7,1.1-1.4,2.2-2.1,3.3
		c-8.5,5-17.1,9.6-25.7,14.3C79.3,50.7,70.3,58.7,59,61.1z"/>
</g>
<g id="_x23_a6ccfeff">
	<path class="st7" d="M123.4,31.8c3.3-0.2,6.5,0.6,9.7,1.2l0.8,0.2c1,2.2,2,4.4,3,6.7c1.8,4.1,3.5,8.3,5.5,12.4l0.4,0.8
		c-2.4,1.2-4.9,2-7.5,2.5c-4.5,0.9-8.6,3-13.1,3.6c-3.3,0.5-6.6,1-9.5,2.8c-2.5-2-4.1-4.8-4.2-8.1c1.6-4,3.6-7.9,5.4-11.8
		c-1,0.2-1.9,0.4-2.9,0.6l0.3-0.8c1.2-2,2.3-4.1,3.4-6.1C117.4,34.2,120.2,32.3,123.4,31.8z"/>
</g>
<g id="_x23_356df3ff">
	<path class="st8" d="M90.1,47c8.7-4.6,17.3-9.3,25.7-14.3c-0.4,1-0.8,2.1-1.2,3.1c-1.1,2.1-2.2,4.1-3.4,6.1c-3,2.9-5.8,6.1-8.3,9.4
		c-6.1,0.6-12.2-1-18.2,0.3C86.6,50.2,88.3,48.6,90.1,47z"/>
</g>
<g id="_x23_3b6ddeff">
	<path class="st9" d="M133.9,33.2c3.6,1,6.9,2.8,10.2,4.7c7.3,4.2,15.1,7.5,22.3,11.9c-0.4,0.2-1.4,0.7-1.8,0.9
		c-8.8-4.7-18.8-6.4-27.7-10.8C135.9,37.7,134.9,35.5,133.9,33.2z"/>
</g>
<g id="_x23_4f8ffdff">
	<path class="st10" d="M136.9,39.9c8.9,4.4,18.9,6.1,27.7,10.8c0.9,0.7,1.8,1.5,2.7,2.2c-2.2,0-4.3,0-6.5,0.1
		c-6.2-0.2-12.6,2-18.4-0.7C140.4,48.2,138.7,44,136.9,39.9z"/>
	<path class="st10" d="M169.5,148c0.2-5.7-0.9-11.6,1.3-17c0.5,15.5,0.5,31,0.4,46.6c2.7,0,5.3,0.1,8,0.1c4,0.1,8.1-0.1,12.1-0.5
		c-0.2,0.4-0.5,1.2-0.7,1.6c-6.9,1.1-13.9,0.7-20.8,0.3C169.1,168.8,169.7,158.4,169.5,148z"/>
</g>
<g id="_x23_54b8ffff">
	<path class="st11" d="M103,51.4c2.5-3.3,5.2-6.5,8.3-9.4l-0.3,0.8c-2.6,6.7-6.5,12.9-10.8,18.7c-1,0.3-2.1,0.6-3.1,0.8
		c-0.8-1-1.5-1.9-2.3-2.9C97.7,56.9,100.5,54.3,103,51.4z"/>
</g>
<g id="_x23_eef9ffff">
	<path class="st12" d="M110.9,42.8c1-0.2,1.9-0.4,2.9-0.6c-1.8,3.9-3.8,7.8-5.4,11.8c-2.3,5-2.9,10.6-0.5,15.7c-1,0.1-2,0.1-3,0.2
		c-0.5,0.1-1.6,0.2-2.2,0.2c-1.4,0.7-2.7,1.5-4,2.5c-0.3,0.4-0.9,1.1-1.2,1.5c-0.5,0.7-1.1,1.4-1.6,2.2c-1.3-1.6-2.6-3.1-4-4.6
		c1.8-2.1,3.5-4.3,5.2-6.5c0.9-1.2,1.9-2.4,2.9-3.6C104.4,55.6,108.4,49.5,110.9,42.8z"/>
</g>
<g id="_x23_dea219ff">
	<path class="st13" d="M158.7,42.6c4.9,1,9.9,2.9,14.8,1.2c6.1,3,11.9,6.5,17.7,10c0.2,2.4,0.3,4.9,0.5,7.3
		C180.8,54.9,169.5,49.2,158.7,42.6z"/>
</g>
<g id="_x23_fff559ff">
	<path class="st14" d="M201.6,44.8c8.4,4.8,17.9,8.7,24.1,16.5c2.6,3,4.2,6.7,5.5,10.4c-4.4-0.5-8.8-0.5-13.2,0.3
		c-3.7-5.1-8.9-8.7-14.4-11.5C200.1,55.9,201.6,50,201.6,44.8z"/>
</g>
<g id="_x23_607bb9ff">
	<path class="st15" d="M59,61.1c11.3-2.3,20.3-10.3,31.2-14c-1.8,1.6-3.5,3.2-5.4,4.7c-11.8,7-24.4,12.7-36,20.1c-1,0.6-2,1.3-3,2
		c-0.3,0.3-1,0.9-1.4,1.3c-1.9-0.5-3.8-1-5.7-1.4l0.3-0.8c4.7-4.3,10.9-6.5,16-10.2C56.3,62.1,57.6,61.6,59,61.1z"/>
</g>
<g id="_x23_6871d4ff">
	<path class="st16" d="M164.6,50.7c0.4-0.2,1.4-0.7,1.8-0.9c12.1,6.3,23.6,14.2,36.9,18c1.3,0.6,2.7,1.3,4,2c0,0.5,0.1,1.6,0.1,2.2
		c-4-0.2-8.3-1-11.8,1.5l-0.8,0.4c-0.3-1.7-0.6-3.3-1.2-4.8c-0.3-0.2-1-0.7-1.4-1c-7.8-5.9-16.4-10.4-24.9-15.2
		C166.4,52.1,165.5,51.4,164.6,50.7z"/>
</g>
<g id="_x23_6086fdff">
	<path class="st17" d="M84.8,51.7c6-1.3,12.2,0.3,18.2-0.3c-2.4,3-5.3,5.5-8.2,8c-4.4-0.4-8.9-0.9-13.2,0.2
		c-3.2,0.8-5.8,2.8-8.5,4.5c-4,2.6-9,2.5-13.1,4.9c-3.4,2-7.3,2.8-11.2,2.8C60.4,64.4,72.9,58.6,84.8,51.7z"/>
</g>
<g id="_x23_65b5ffff">
	<path class="st18" d="M142.4,52.3c5.9,2.6,12.3,0.4,18.4,0.7c5,2.4,9.5,6,12.8,10.4c1.4,1.6,0.8,3.9,0.9,5.9
		c-1.5,1.2-2.9,2.6-4.2,4.1l0.1-0.8c0.3-3.3,0.3-7.2-2.8-9.2c-5.8-5.6-14.3-0.8-21-4l-0.5-0.7c-1.2-1.8-2.3-3.6-3.4-5.5L142.4,52.3z
		"/>
	<path class="st18" d="M133,163c0.8,0.6,1.6,1.1,2.3,1.8c1.6,4.7,6.1,7.7,7.2,12.6c-2.1-1.7-4-3.6-5.8-5.7c-1.2-1.3-2.3-2.7-3.4-4
		C133.2,166.2,133.1,164.6,133,163z"/>
</g>
<g id="_x23_9cd5ffff">
	<path class="st19" d="M142.8,53.1c1,1.9,2.2,3.7,3.4,5.5c-3.5,0.5-7.1,0.8-10.2,2.3c-2.8,1.4-5,3.7-7.2,5.9c2.9,0.8,5.7,1.5,8.7,2
		c-9.2-0.2-18.3,0-27.4,0.7c2.4-1.8,3-4.7,2.7-7.5c2.9-1.8,6.2-2.3,9.5-2.8c4.5-0.6,8.6-2.7,13.1-3.6
		C137.9,55.1,140.4,54.3,142.8,53.1z"/>
</g>
<g id="_x23_6f90faff">
	<path class="st20" d="M160.8,52.9c2.2,0,4.3-0.1,6.5-0.1c8.5,4.8,17.2,9.3,24.9,15.2c-5.7,0.2-11.4,0-17.1,0.9l-0.6,0.3
		c-0.1-2,0.5-4.2-0.9-5.9C170.3,58.9,165.9,55.3,160.8,52.9z"/>
</g>
<g id="_x23_bae6ffff">
	<path class="st21" d="M108,69.6c-2.3-5.1-1.7-10.7,0.5-15.7c0.1,3.2,1.7,6.1,4.2,8.1c0.3,2.9-0.3,5.7-2.7,7.5
		C109.5,69.5,108.5,69.6,108,69.6z"/>
</g>
<g id="_x23_f1a22eff">
	<path class="st22" d="M191.3,53.7c4.1,2.3,8.2,4.5,12.4,6.7c5.5,2.9,10.7,6.5,14.4,11.5c1.2,3.6,1.8,7.4,1.9,11.2
		c0.1,3.7-0.2,7.3-0.2,11c-0.2-2.9-0.8-5.8-1.2-8.6c-1.5-0.3-3-0.5-4.6-0.8c0.1-5.6-0.5-12.7-6.7-15c-1.3-0.7-2.7-1.4-4-2
		c-3.8-2.2-7.6-4.6-11.5-6.7C191.6,58.6,191.4,56.2,191.3,53.7z"/>
	<path class="st22" d="M101.8,92.2c1.1-7.1-1.3-14.4,0.7-21.3c0.1,4.4,0.7,8.7,0.9,13.1c0.6,11.5-0.2,23.1,1.8,34.5
		c9.4,0.4,18.8,0.2,28.1,0.7c-1.4,0.4-2.8,0.7-4.2,1c-8.5,0-17-0.1-25.5,0c-0.8-4.9-1.3-9.8-1.5-14.7
		C102.4,101,102.5,96.6,101.8,92.2z"/>
</g>
<g id="_x23_729afdff">
	<path class="st23" d="M81.6,59.6c4.3-1.1,8.8-0.6,13.2-0.2c0.8,1,1.5,1.9,2.3,2.9c1-0.3,2.1-0.5,3.1-0.8c-1,1.2-1.9,2.4-2.9,3.6
		c-4.1,0.3-7.8,2-11.5,3.5c-3-0.1-6-0.2-9.1-0.2c-3.7,0.1-7.3,0.9-10.5,2.7c-2.5,1.3-4.8,2.8-6.9,4.7c-4.4-1.1-9-1.7-13.5-2.1
		c1-0.7,2-1.4,3-2C52.7,71.8,56.6,71,60,69c4.1-2.4,9.1-2.3,13.1-4.9C75.8,62.4,78.4,60.4,81.6,59.6z"/>
</g>
<g id="_x23_99efffff">
	<path class="st24" d="M135.9,60.9c3.2-1.6,6.8-1.9,10.2-2.3l0.5,0.7c1.3,2,2.4,4,3.7,6c-3.1,2.3-6.8,3.5-10.6,3.6
		c-0.6,0-1.7,0-2.3,0c-2.9-0.5-5.8-1.2-8.7-2C130.9,64.6,133.1,62.3,135.9,60.9z"/>
</g>
<g id="_x23_75daffff">
	<path class="st25" d="M146.6,59.3c6.7,3.2,15.2-1.5,21,4c3.1,2,3.2,5.9,2.8,9.2c-3.3-0.2-7.1,0.2-9.6-2.5
		c-2.9-2.8-7.2-2.8-10.6-4.8C149.1,63.2,147.9,61.2,146.6,59.3z"/>
</g>
<g id="_x23_d99f18ff">
	<path class="st26" d="M36.7,67.7c6.6,0.5,12-3.7,18.3-5c-5.2,3.7-11.4,5.8-16,10.2c-1.3,1.6-2.4,3.4-2.6,5.5
		c-0.6,5.9-0.2,11.8-0.2,17.7c-0.9,0-2.6,0-3.5,0c-0.1-7.1,0.2-14.2-0.5-21.3C33.6,72.3,35,69.9,36.7,67.7z"/>
</g>
<g id="_x23_ffd63bff">
	<path class="st27" d="M24.8,65.7c2.5-1.1,5.3-0.6,8-0.8c-0.5,2.7-0.9,5.3-1.3,8c-0.5,2.7-0.9,5.3-1,8c-0.2,15.1,0.3,30.2-0.2,45.3
		c-1.6-6.4-1.4-13.1-3.2-19.5c-3.1,0.6-6.2,1.1-9.4,1.5c-0.2-7.1,0-14.2-0.1-21.3c0-4.5,0-9.2,1.6-13.5C20.9,70.8,22.6,68,24.8,65.7
		z"/>
</g>
<g id="_x23_b0c2faff">
	<path class="st28" d="M85.8,68.5c3.7-1.5,7.4-3.2,11.5-3.5c-1.7,2.2-3.4,4.4-5.2,6.5C90.1,70.4,87.9,69.4,85.8,68.5z"/>
</g>
<g id="_x23_eaeff1ff">
	<path class="st29" d="M139.7,68.8c3.8-0.1,7.5-1.3,10.6-3.6c3.4,1.9,7.7,1.9,10.6,4.8c2.5,2.7,6.3,2.3,9.6,2.5l-0.1,0.8
		c-0.3,0.5-0.8,1.4-1.1,1.9c-2.2,0.5-4.5,1-6.7,1.5c-0.1-0.2-0.4-0.8-0.5-1c-1.1-2.3-2-4.6-3.5-6.6c-2.2-0.5-4.6-0.5-6.9-0.5
		c-1.4,0-2.7,0.1-4.1,0.1c-1.5,0.1-3.1,0.2-4.6,0.4c-1.2,0.1-2.3,0.3-3.4,0.4L139.7,68.8z"/>
</g>
<g id="_x23_ddc2a5ff">
	<path class="st30" d="M175.2,68.9c5.6-0.9,11.4-0.6,17.1-0.9c0.3,0.2,1,0.7,1.4,1l-0.9,0.2c-5.2-0.3-10.4-0.3-15.6,0
		c-3.7,5.1-6.4,10.9-8.9,16.6c-1.1-0.5-2.3-1.1-3.5-1.6c0.6,0.1,1.7,0.4,2.3,0.5C169.4,79.3,172.2,74.1,175.2,68.9z"/>
</g>
<g id="_x23_fcd645ff">
	<path class="st31" d="M66.2,71.1c3.2-1.8,6.9-2.6,10.5-2.7c2,6,6.9,10.5,12.2,13.8c2.6,1.8,5.8,0.7,8.6,0.3
		c-3.1,2.5-6.7,4.4-10.4,5.9c-4.5-1.6-8.1-4.7-11.7-7.7c-4.2-3.5-10-2.5-15-2.2c0.1-0.4,0.4-1.1,0.5-1.4
		C62.6,74.9,64.4,72.9,66.2,71.1z"/>
</g>
<g id="_x23_fdf05aff">
	<path class="st32" d="M76.7,68.4c3-0.1,6.1,0,9.1,0.2c2.2,0.9,4.3,1.9,6.3,3c1.4,1.4,2.7,3,4,4.6c0.5-0.7,1.1-1.4,1.6-2.2
		c-0.3,2.8,0,5.7-0.2,8.5c-2.8,0.4-6.1,1.6-8.6-0.3C83.6,78.9,78.7,74.4,76.7,68.4z"/>
</g>
<g id="_x23_feed51ff">
	<path class="st33" d="M108,69.6c0.5,0,1.5-0.1,2-0.1c9.1-0.7,18.3-0.9,27.4-0.7c-0.2,5.6-0.9,11.1-1,16.7c-3.5-0.4-7-0.3-10.5-0.7
		c-2.8-0.4-5.4-1.8-8.2-1.9c-4.5,0.2-8.7,2-12.6,4c0.2-5.7,0.4-11.4-0.1-17.1C106,69.7,107,69.7,108,69.6z"/>
</g>
<g id="_x23_830dffff">
	<path class="st34" d="M137.4,68.8c0.6,0,1.7,0,2.3,0l0,0.8l0,0.9c-0.9,6.1-1.1,12.2-1.1,18.4c-0.4,0.2-1.3,0.7-1.7,0.9
		c-1.4-0.1-2.9-0.2-4.3-0.3c0,0.5-0.1,1.6-0.1,2.2c-0.3,4-0.2,8-0.2,11.9c0.6,0.2,1.7,0.5,2.2,0.7l0.8,0.2h-0.8
		c-5,0-9.9,0.3-14.9,0.7c0.1-0.7,0.3-2.1,0.4-2.8c3.8-0.1,8.4,0.9,11.3-2.3c0.2-3.8,0-7.5-0.1-11.2c-3.5-0.1-7-0.1-10.4-0.8
		c4.7-3.1,10.7-0.1,15.6-2.6C136.5,79.9,137.2,74.4,137.4,68.8z"/>
</g>
<g id="_x23_fef39cff">
	<path class="st35" d="M139.7,69.6c1.1-0.1,2.3-0.3,3.4-0.4c-0.6,4.4-1.2,8.8-1.5,13.2c-0.5,8.9-0.3,17.8-0.3,26.7
		c0,2.9-0.2,5.8-0.8,8.6l-0.2,0.7c-1-8.1-0.2-16.2-0.4-24.3c-0.2-7.8,0.8-15.7-0.3-23.5L139.7,69.6z"/>
</g>
<g id="_x23_fef472ff">
	<path class="st36" d="M143.2,69.2c1.5-0.2,3.1-0.3,4.6-0.4c0.4,3.2,0.1,7.3,3.1,9.3c3.9,3.3,9.3,0.4,13.7,2.5l0.4,0.9
		c0,0.7-0.1,2.1-0.2,2.8c-3.8-0.9-7.7-0.1-11.5-0.6c-3.1-0.6-6-2-8.9-3.2c-0.9,0.6-1.8,1.2-2.7,1.8
		C141.9,77.9,142.6,73.5,143.2,69.2z"/>
</g>
<g id="_x23_fef592ff">
	<path class="st37" d="M147.7,68.8c1.4-0.1,2.7-0.1,4.1-0.1c0.4,2.7-0.4,6.5,2.5,8.1c2.5,1.7,5.4-0.3,7.9-1c0.1,0.2,0.4,0.7,0.5,1
		c0.6,1.3,1.2,2.6,1.9,3.8c-4.3-2.1-9.8,0.9-13.7-2.5C147.8,76.1,148.1,72,147.7,68.8z"/>
</g>
<g id="_x23_fdf4b9ff">
	<path class="st38" d="M151.8,68.7c2.3,0,4.6-0.1,6.9,0.5c1.5,2,2.4,4.4,3.5,6.6c-2.5,0.7-5.4,2.7-7.9,1
		C151.5,75.2,152.3,71.4,151.8,68.7z"/>
</g>
<g id="_x23_8c33e5ff">
	<path class="st39" d="M174.6,69.2l0.6-0.3c-3,5.1-5.7,10.4-8.1,15.9c-0.6-0.1-1.7-0.4-2.3-0.5c0-0.7,0.1-2.1,0.2-2.8
		c1.6-2,3.1-4,4.4-6.2c0.3-0.5,0.8-1.4,1.1-1.9C171.6,71.8,173,70.4,174.6,69.2z"/>
	<path class="st39" d="M208,132.6c0.6,1.2,1.2,2.4,1.7,3.7c0.1,7.9,0.2,15.9,0.1,23.8c0,5.8-2.8,11.1-4.5,16.5
		c-3.1,0.1-6.2,0.3-9.2,0.5c0.8-8.9,1.5-17.8,3.3-26.6c2.1,2.9,4.2,5.7,6.2,8.6c0.6,1,1.3,2.1,2,3.1c0.1-9.5,0.6-19,0.4-28.5V132.6z
		"/>
</g>
<g id="_x23_fdef54ff">
	<path class="st40" d="M177.2,69.2c5.2-0.3,10.4-0.3,15.6,0c-1.2,1.9-2.5,3.9-4.4,5.1c-5.6,3.7-9.8,9-15.5,12.6
		c-9.5,4.8-20.5,5.2-30.7,2.6c-0.2,3.6-0.4,7.2-0.4,10.8c-0.2,5.6,0,11.2,0.4,16.7c-0.4,0.2-1.1,0.4-1.5,0.6
		c0.7-2.8,0.9-5.7,0.8-8.6c0-8.9-0.2-17.8,0.3-26.7c0.9-0.6,1.8-1.2,2.7-1.8c2.9,1.2,5.8,2.6,8.9,3.2c3.8,0.5,7.8-0.3,11.5,0.6
		c1.2,0.5,2.3,1.1,3.5,1.6C170.8,80.1,173.4,74.3,177.2,69.2z"/>
</g>
<g id="_x23_f9d647ff">
	<path class="st41" d="M192.7,69.2l0.9-0.2c-0.3,12.1,0.1,24.1-0.4,36.2c-0.6,4.3-0.7,8.7-0.2,13.1l-0.8,0.4
		c-0.8-6.9-0.1-13.9,0.1-20.8c0-3.7-0.2-7.3-0.5-11c-5.4,0.5-10.6,2-15.4,4.4c-1.2-1.4-2.4-2.9-3.6-4.3c5.7-3.6,9.9-8.9,15.5-12.6
		C190.3,73.1,191.5,71.1,192.7,69.2z"/>
</g>
<g id="_x23_5c12b7ff">
	<path class="st42" d="M193.6,69c0.5,1.6,0.9,3.2,1.2,4.8c-0.3,8,0.5,16-0.1,24c-0.4,2.5-1.1,4.9-1.6,7.4
		C193.7,93.2,193.4,81.1,193.6,69z"/>
	<path class="st42" d="M38.9,175.9c2.3,0.7,4.6,1.4,6.8,2.2c3.7,2.5,7.6,5,12.1,5.7c1-2-0.2-4.1-0.6-6.1c-0.1-0.4-0.4-1.1-0.5-1.5
		c3.1,5,7.7,9.7,13.8,10.3c8.4,0.9,17.8,1.5,25.2-3.4c2.2-1.2,5.1-0.4,7-2.3c0.7-1.1,1.2-2.3,1.7-3.5c0.7,0,2,0.1,2.7,0.1
		c0.5,3.6,1.6,8.7,5.9,9.2c5.2,0.4,10.4,0.5,15.6,0c2.4,0.1,2.5-2.8,3.3-4.4c-6.8-0.5-13.6-0.1-20.4-0.9l1.1-0.1
		c7.4-1.1,15,1.3,22.3-0.8c1.6,1.4,3.1,2.8,4.7,4.2c-3.4,0.6-6.7,1.8-9.8,3.4c-4.9,2.7-10.7,1.1-16.1,1.4c-3.9,0.3-7.1-2-10.1-4.1
		c-1,0.2-2.1,0.4-3.1,0.6c-1-1-2.2-1.7-3.3-2.4c0.3,0.9,0.6,1.8,0.9,2.7c-6.9,3.6-15.2,1.7-22,5.5c1.5,1.7,2.9,3.5,4.6,5.1
		c-1.5-0.1-3,0.3-4.5,0.7c-7.3-3.9-14.7-7.8-22-11.8c-3.7-2.1-7.5-3.9-11.3-5.9C41.7,178.5,40.3,177.2,38.9,175.9z"/>
</g>
<g id="_x23_d764c2ff">
	<path class="st43" d="M98.9,72.4c1.2-1,2.6-1.8,4-2.5l-0.2,0.9c-2,7,0.4,14.2-0.7,21.3c-0.5-1.2-1.2-2.4-1.7-3.6c0-1.3,0-2.5,0-3.8
		C100.2,80.7,99.7,76.5,98.9,72.4z"/>
</g>
<g id="_x23_fde983ff">
	<path class="st44" d="M102.8,70c0.5-0.1,1.6-0.2,2.2-0.2c0.5,5.7,0.3,11.4,0.1,17.1c-0.3,9.8,0.2,19.7,1.7,29.4l0.1,1
		c9.1-0.2,18.4,0.8,27.5-0.9c-0.3,1-0.6,1.9-0.9,2.9c-9.4-0.5-18.8-0.2-28.1-0.7c-2-11.4-1.3-23-1.8-34.5c-0.2-4.4-0.8-8.7-0.9-13.1
		L102.8,70z"/>
</g>
<g id="_x23_997277ff">
	<path class="st45" d="M207.3,69.8c6.2,2.3,6.7,9.4,6.7,15c-0.1,2.2-0.3,4.4-0.4,6.6l-0.2-0.8c-0.3-1.7-0.7-3.3-1-5
		c0-1.9,0-3.8,0-5.8c0-2.9-0.3-7-4.1-6.9l-0.9,0.1l0-1.2C207.4,71.4,207.3,70.3,207.3,69.8z"/>
</g>
<g id="_x23_9b54bfff">
	<path class="st46" d="M59.3,75.8c2-1.9,4.4-3.4,6.9-4.7c-1.8,1.9-3.5,3.8-5.2,5.8c-2.2,2.6-4.1,5.5-5.1,8.9
		c-3.4,10.2-1.8,21.6,3.8,30.8c-0.4-0.2-1.2-0.5-1.6-0.7c-7.3-8.7-5.3-20.7-4.8-31.1C54.7,81.4,57,78.5,59.3,75.8z"/>
</g>
<g id="_x23_ee8a2bff">
	<path class="st47" d="M138.6,88.9c-0.1-6.1,0.1-12.3,1.1-18.4c1.1,7.8,0.1,15.7,0.3,23.5c0.2,8.1-0.6,16.2,0.4,24.3l-0.1,0.8
		c5.9,0,11.8-0.2,17.7-0.4c-6,2.7-12.8,1-19.2,1.4C138,109.7,138.7,99.3,138.6,88.9z"/>
</g>
<g id="_x23_fff245ff">
	<path class="st48" d="M218,72c4.4-0.8,8.8-0.8,13.2-0.3c0.3,3.8,0.8,7.5,1.2,11.3c-4.1,0.8-8.4,1-12.5,0.2
		C219.8,79.4,219.2,75.6,218,72z"/>
</g>
<g id="_x23_a39fe0ff">
	<path class="st49" d="M195.6,73.5c3.4-2.5,7.8-1.8,11.8-1.5l0,1.2c-3.5,0.8-7.1,1.1-10.7,0.5L195.6,73.5z"/>
</g>
<g id="_x23_9f643cff">
	<path class="st50" d="M36.4,78.3c0.2-2.1,1.3-3.9,2.6-5.5l-0.3,0.8c-0.5,2-0.8,4.1-1,6.1c-0.1,1.2-0.2,2.5-0.3,3.7
		c-0.4,3.5-0.7,7-0.7,10.5c0,16.7-0.1,33.4,0.1,50.2c0,3.6,0,7.2,0.2,10.8c-0.4,2.4-1.8,4.4-4,5.4c-0.4-11.7-0.2-23.5-0.1-35.2
		c0.7-0.2,2.2-0.4,2.9-0.6c0.1-9.5,0.8-19.1,0.6-28.6C36.2,90.1,35.8,84.2,36.4,78.3z"/>
</g>
<g id="_x23_880af5ff">
	<path class="st51" d="M97.7,74c0.3-0.4,0.9-1.1,1.2-1.5c0.8,4.1,1.3,8.2,1.3,12.4c-1.2,0.7-2.4,1.3-3.5,2.1
		c-1.8,1.2-3.4,2.6-5.1,3.9c-1.9,0-3.8,0.1-5.7,0.1c-1.5,0-3-0.1-4.4-0.3c-1.4-0.2-3-2-4.4-0.7c-1,0.7-1.9,1.5-2.8,2.3l-0.8,0.3
		c0-0.8,0.1-2.2,0.1-3c0.1-0.5,0.2-1.6,0.3-2.1c3.5-0.4,7.1-0.1,10.2,1.9c1-0.4,2-0.8,3.1-1.1c3.7-1.5,7.3-3.3,10.4-5.9
		C97.7,79.6,97.4,76.8,97.7,74z"/>
</g>
<g id="_x23_3879eeff">
	<path class="st52" d="M207.4,73.1l0.9-0.1c0.5,3,1.2,6.1,1.5,9.2l-0.1,0.7c-1.4-1.6-2.8-3.3-4.2-4.9c-3.9,3.9-5.3,9.2-6.9,14.3
		l-0.2,0.8c0.1-6.5,1-13.3-1.5-19.5C200.3,74.2,203.9,73.9,207.4,73.1z"/>
</g>
<g id="_x23_3252b5ff">
	<path class="st53" d="M208.2,73c3.8-0.1,4.1,4,4.1,6.9c-0.9,0.8-1.8,1.5-2.6,2.3C209.4,79.1,208.8,76,208.2,73z"/>
</g>
<g id="_x23_3458c0ff">
	<path class="st54" d="M38.7,73.6c1.9,0.5,3.8,0.9,5.7,1.4c-1.6,2.5-3,5.2-4.6,7.8c-0.7-1-1.4-2-2.1-3
		C37.8,77.7,38.2,75.6,38.7,73.6z"/>
</g>
<g id="_x23_4183fbff">
	<path class="st55" d="M44.4,75c0.3-0.3,1-0.9,1.4-1.3c4.6,0.4,9.1,1,13.5,2.1c-2.3,2.7-4.6,5.6-6,8.8c-2.6,5.2-3.1,11-3.6,16.7
		c-0.1-0.4-0.4-1.1-0.5-1.5c-1.8-6.4-6-11.6-9.4-17.1C41.4,80.2,42.8,77.6,44.4,75z"/>
</g>
<g id="_x23_3050adff">
	<path class="st56" d="M194.8,73.9l0.8-0.4l1.1,0.1c2.4,6.2,1.6,13,1.5,19.5c-0.5,1.8-1,3.6-1.4,5.4c-0.5-0.2-1.5-0.5-2-0.7
		C195.3,89.9,194.5,81.9,194.8,73.9z"/>
</g>
<g id="_x23_d7ac73ff">
	<path class="st57" d="M31.7,75.5l0.5-0.8c0.7,7.1,0.4,14.2,0.5,21.3c0,9.7-0.1,19.5,0,29.2c-0.1,11.7-0.2,23.5,0.1,35.2
		c0,3.4-0.1,6.8-0.2,10.2c0,0.4,0,1.3,0,1.8c-1.3-4.7-1.2-9.5-1.2-14.3c-0.3-24,0-48-0.1-72.1C31.2,82.5,31.3,79,31.7,75.5z"/>
</g>
<g id="_x23_80cafeff">
	<path class="st58" d="M162.7,76.8c2.2-0.6,4.4-1.1,6.7-1.5c-1.3,2.2-2.8,4.3-4.4,6.2l-0.4-0.9C163.9,79.3,163.3,78,162.7,76.8z"/>
	<path class="st58" d="M187.3,129.9c1.5,0,3.1,0.1,4.6,0.1c0.2,7,0.1,14-0.1,21.1c-6.3-0.2-12.7-0.2-18.9,0.9c0-1.2,0-2.4,0-3.6
		C179,143.3,183.8,136.9,187.3,129.9z"/>
</g>
<g id="_x23_f3ba67ff">
	<path class="st59" d="M55.9,85.8c1-3.3,2.9-6.2,5.1-8.9c-0.1,0.4-0.4,1.1-0.5,1.4c-0.9,2.9-1.7,5.8-2.2,8.7c-0.3,3-0.4,6-0.3,9
		c0.2,6.1,1,12.9,5.6,17.3c5.2,5.1,13,5.5,19.8,6.1c-4.3,0.2-8.7,1.2-13,0.1c-6-2-11-7-13-13C55,100,55.8,92.7,55.9,85.8z"/>
</g>
<g id="_x23_f5c336ff">
	<path class="st60" d="M60.5,78.3c5-0.3,10.8-1.2,15,2.2c3.6,3.1,7.2,6.1,11.7,7.7c-1,0.4-2,0.8-3.1,1.1c-3-2-6.6-2.3-10.2-1.9
		c-5.2-0.3-10.4-0.8-15.7-0.4C58.8,84.1,59.6,81.2,60.5,78.3z"/>
</g>
<g id="_x23_5676feff">
	<path class="st61" d="M198.4,92.3c1.7-5,3.1-10.4,6.9-14.3c1.4,1.6,2.8,3.2,4.2,4.9c-0.1,0.5-0.2,1.5-0.3,2c-1.4,2-2.9,3.9-4.3,6
		C202.9,91.3,200.6,91.8,198.4,92.3z"/>
</g>
<g id="_x23_c8bafaff">
	<path class="st62" d="M37.6,79.7c0.7,1,1.4,2,2.1,3c3.4,5.5,7.6,10.7,9.4,17.1c-2.8-3.3-5.5-6.6-7.7-10.3c-1-1.6-2.1-3.2-3.2-4.8
		c-0.2-0.3-0.7-1-0.9-1.3C37.4,82.2,37.5,81,37.6,79.7z"/>
	<path class="st62" d="M88.7,128.5c2.8-3.4,6.1-6.6,10.4-8c0.3,1.5,0.7,2.9,1.1,4.4c0.7,0.1,2,0.3,2.7,0.4
		c6.9,1.3,14.1,1.4,21.1,0.2c5.2,4.1,12.6,1.8,17.8,5.9c-1,0.8-2.1,1.6-3.1,2.3c-0.9,0.4-1.9,0.9-2.8,1.3c-0.9-2-2.2-3.9-3.8-5.4
		c-0.7-0.1-2.1-0.2-2.8-0.2c-5.5-0.5-11-0.9-16.5-0.9c0.7,5,1,10,0.9,15.1c-0.3,0.5-0.8,1.5-1.1,1.9l0-0.9
		c-0.3-4.5-0.3-8.9-0.3-13.4c-1.7,0.2-3.4,0.5-5.1,0.7c-0.1-0.7-0.4-2.1-0.5-2.8c-3.6,0.2-7.2,0.4-10.9,0.6c-3.3,0.2-6.7,0.4-10,0.6
		c-0.5-0.2-1.6-0.7-2.2-0.9C85.4,129.2,87.1,128.8,88.7,128.5z"/>
	<path class="st62" d="M165.2,131.6c1.1-0.2,2.2-0.4,3.4-0.7c-0.1,8.7-0.1,17.4,0.1,26.1c0.3,8.1-0.6,16.4,1,24.4
		c-0.4-0.2-1-0.4-1.4-0.6c-0.4-9,0.6-18.1-0.7-27.1c-0.1-7.2,0.2-14.4-0.2-21.5c-0.6,0.4-1.8,1.2-2.3,1.6l-0.5,0.6
		C164.8,133.7,165.1,132.3,165.2,131.6z"/>
</g>
<g id="_x23_9487c2ff">
	<path class="st63" d="M209.7,82.2c0.9-0.8,1.8-1.5,2.6-2.3c0,1.9,0,3.8,0,5.8c-0.6,1-1.2,2-1.8,3l-0.4,0.7
		c-0.3-1.5-0.5-2.9-0.7-4.4c0.1-0.5,0.2-1.5,0.3-2L209.7,82.2z"/>
</g>
<g id="_x23_fcdc33ff">
	<path class="st64" d="M117.7,82.8c2.8,0.1,5.4,1.5,8.2,1.9c3.5,0.4,7,0.3,10.5,0.7c-4.9,2.5-10.8-0.5-15.6,2.6
		c3.4,0.7,6.9,0.7,10.4,0.8c0.1,3.7,0.3,7.5,0.1,11.2c-3.8,0.1-7.5,0.3-11.2,1.2l-0.2,1.1c-0.1,0.7-0.3,2.1-0.4,2.8
		c5-0.3,9.9-0.7,14.9-0.7c0,0.5,0.1,1.6,0.1,2.2c-5.3-0.6-10.7-0.7-16-1c-0.4-1.8-0.8-3.6-1.2-5.4c-3.4,0.5-6.8,1.1-10.1,2
		c-0.3,4.7-0.6,9.4-0.5,14.1c-1.5-9.8-2-19.6-1.7-29.4C109.1,84.8,113.3,83,117.7,82.8z"/>
</g>
<g id="_x23_ffd835ff">
	<path class="st65" d="M219.9,83.2c4.1,0.8,8.4,0.6,12.5-0.2c0,5,0.1,10.1,0,15.1c-2.7,0.4-5.5,1-8.3,0.8c-2.3,0.1-3.2-2.4-4.3-3.9
		l0-0.9C219.8,90.5,220,86.9,219.9,83.2z"/>
</g>
<g id="_x23_3f52a0ff">
	<path class="st66" d="M37.3,83.5c0.2,0.3,0.7,1,0.9,1.3c-1.1,16,0.2,32.1,0.8,48.2c0,2.9-0.1,5.8,0.3,8.7c-0.9,0.8-1.8,1.7-2.7,2.5
		c-0.1-16.7,0-33.4-0.1-50.2C36.6,90.5,36.9,87,37.3,83.5z"/>
</g>
<g id="_x23_2c69c6ff">
	<path class="st67" d="M38.2,84.8c1.1,1.6,2.2,3.2,3.2,4.8c-0.6,4.7-0.9,9.6-0.4,14.3c0.8,7.4,0.2,15,1.4,22.4c0.1,1,0.2,2,0.3,3
		c-1.3,1.1-2.6,2.3-3.7,3.6C38.4,116.9,37.2,100.8,38.2,84.8z"/>
</g>
<g id="_x23_450d75ff">
	<path class="st68" d="M49.7,101.4c0.5-5.7,1-11.5,3.6-16.7c-0.5,10.4-2.5,22.4,4.8,31.1c3.3,4,7.3,8.5,12.8,8.6
		c6.8,0.2,13.8-0.7,20.2-3.2c-5.5,5-13.7,6.7-20.9,5.6c-1.7-0.3-3.4-0.7-5-1c-6.1-1.3-9.9-6.3-13.1-11.1
		C51.2,110.3,50.4,105.8,49.7,101.4z"/>
	<path class="st68" d="M80.6,132.4c0.6,0,1.7-0.1,2.2-0.1c-0.6,10.1-0.1,20.3-0.1,30.5c-0.5-0.4-1.4-1.3-1.8-1.7
		C80.1,151.5,81.9,141.9,80.6,132.4z"/>
</g>
<g id="_x23_5b1497ff">
	<path class="st69" d="M96.7,86.9c1.1-0.7,2.3-1.4,3.5-2.1c0,1.3,0,2.5,0,3.8c-0.1,0.6-0.3,1.9-0.4,2.6L98.5,91
		C97.8,89.6,97.3,88.2,96.7,86.9z"/>
</g>
<g id="_x23_ceccffff">
	<path class="st70" d="M209.4,84.9c0.2,1.5,0.4,2.9,0.7,4.4c-1.9,2.8-3.6,5.8-5.4,8.7c-2.8,4.3-6.1,8.2-9.3,12.2
		c1.6-7.1,6.3-12.9,9.7-19.2C206.4,88.8,207.9,86.9,209.4,84.9z"/>
</g>
<g id="_x23_c27a35ff">
	<path class="st71" d="M213.9,84.8c1.5,0.3,3,0.5,4.6,0.8c0.5,2.9,1,5.7,1.2,8.6l0,0.9c-0.3,11.4,0.6,22.9-0.3,34.3l0-0.8
		c0-1.3-0.1-2.5-0.1-3.8c-0.3-8.2,0.5-16.5-0.7-24.6c-0.1-2.5-3.1-2.7-4.8-3.6c-0.1-1.7-0.2-3.5-0.4-5.2
		C213.6,89.2,213.9,87,213.9,84.8z"/>
</g>
<g id="_x23_d9693aff">
	<path class="st72" d="M59.7,116.5c-5.6-9.1-7.2-20.6-3.8-30.8c-0.1,7-0.9,14.2,1.4,20.9c2,6,7,11,13,13c4.2,1.1,8.7,0.1,13-0.1
		c1.3,0,2.6-0.1,3.9-0.2C78.4,123.4,67.5,122.3,59.7,116.5z"/>
</g>
<g id="_x23_4a449bff">
	<path class="st73" d="M212.3,85.6c0.3,1.7,0.8,3.3,1,5c-0.7,13.9-0.4,27.8-0.6,41.7c-0.6-1.6-1.4-3.1-2-4.7
		c0.6-8.9,0.6-17.9-0.8-26.7c-0.3-4.1-0.1-8.2,0.5-12.3C211.1,87.6,211.7,86.6,212.3,85.6z"/>
</g>
<g id="_x23_f1b426ff">
	<path class="st74" d="M58.2,87.1c5.2-0.3,10.4,0.2,15.7,0.4c-0.1,0.5-0.2,1.6-0.3,2.1c-0.8,3.3-1.3,6.8-0.9,10.2
		c-4.4-2.8-9.9-2.3-14.8-3.8C57.9,93.1,57.9,90.1,58.2,87.1z"/>
</g>
<g id="_x23_615fa6ff">
	<path class="st75" d="M91.6,90.8c1.6-1.4,3.3-2.7,5.1-3.9c0.6,1.4,1.2,2.8,1.8,4.2C96.2,90.8,93.9,90.8,91.6,90.8z"/>
</g>
<g id="_x23_fde038ff">
	<path class="st76" d="M142.1,89.5c10.1,2.7,21.2,2.2,30.7-2.6c1.2,1.5,2.4,2.9,3.6,4.3c-4.8,2.2-9.6,4.4-14.3,6.9
		c1.1,3.3,2.1,6.7,3.1,10c-2.2-2.7-4.4-5.4-6.2-8.4c-0.2-0.3-0.4-1-0.6-1.4c-5.4,1.8-11.1,3.5-16.8,1.9
		C141.8,96.7,141.9,93.1,142.1,89.5z"/>
</g>
<g id="_x23_f5c430ff">
	<path class="st77" d="M176.4,91.3c4.8-2.3,10-3.9,15.4-4.4c0.3,3.7,0.5,7.3,0.5,11c-4.9-0.2-9.8,0.1-14.5,1.5
		c-0.5,2.6-1,5.2-1.4,7.8c0.1-2.8-0.1-5.6-0.3-8.4c-0.3,0.3-0.9,1-1.2,1.3c-0.8,0.9-1.7,1.8-2.5,2.8c-2,2.2-4,4.5-6.3,6.5
		c-0.2-0.3-0.7-0.9-0.9-1.2c-1.1-3.3-2-6.7-3.1-10C166.8,95.7,171.6,93.5,176.4,91.3z"/>
</g>
<g id="_x23_581799ff">
	<path class="st78" d="M77.1,90c1.3-1.2,2.9,0.5,4.4,0.7c-2.4,0.5-4.8,1.1-7.2,1.6C75.2,91.5,76.1,90.7,77.1,90z"/>
</g>
<g id="_x23_860ef6ff">
	<path class="st79" d="M100.2,88.6c0.5,1.2,1.2,2.4,1.7,3.6c0.6,4.4,0.6,8.8,0.4,13.2l-0.6,0.8c-1.9,2-2.8,4.7-3.5,7.3
		c-2.1,2.7-4.4,5.3-7,7.6c-6.4,2.5-13.3,3.4-20.2,3.2c-5.5-0.2-9.6-4.7-12.8-8.6c0.4,0.2,1.2,0.5,1.6,0.7c7.8,5.8,18.7,6.9,27.6,2.9
		c4.6-2.1,8.1-6,10.2-10.5c0.7-1.8,1.3-3.8,1.7-5.7c0.8-4,0.2-8.1,0.5-12.1C99.8,90.5,100,89.3,100.2,88.6z"/>
</g>
<g id="_x23_4a138fff">
	<path class="st80" d="M132.6,89.4c1.4,0.1,2.9,0.2,4.3,0.3c-0.1,1.7-0.3,3.3-0.3,5c-0.2,3.3-0.3,6.5-0.5,9.8l-0.7,0l-0.8-0.2
		c-0.3-4.2,1.4-9.3-2.1-12.7C132.6,91.1,132.6,90,132.6,89.4z"/>
</g>
<g id="_x23_a64bf0ff">
	<path class="st81" d="M136.9,89.8c0.4-0.2,1.3-0.7,1.7-0.9c0.1,10.4-0.7,20.8,0.1,31.2c0.1,0.4,0.3,1.4,0.4,1.8
		c-0.6-0.2-1.9-0.7-2.5-0.9c0.4-8.8,0-17.5,0-26.2C136.7,93.1,136.8,91.4,136.9,89.8z"/>
	<path class="st81" d="M199.3,147.4c3.1-4.5,5.6-9.3,8.7-13.8c0.1,9.5-0.3,19-0.4,28.5c-0.7-1-1.3-2.1-2-3.1
		C203.8,155,201.9,150.9,199.3,147.4z"/>
</g>
<g id="_x23_4c56dfff">
	<path class="st82" d="M210.1,89.3l0.4-0.7c-0.6,4.1-0.8,8.2-0.5,12.3c-1.1,0.8-2.2,1.7-3.2,2.5c-0.6-1.9-1.3-3.7-2.1-5.5
		C206.5,95,208.2,92.1,210.1,89.3z"/>
</g>
<g id="_x23_308af0ff">
	<path class="st83" d="M41.5,89.6c2.2,3.7,5,7,7.7,10.3c0.1,0.4,0.4,1.1,0.5,1.5c0.7,4.5,1.4,8.9,2.3,13.3c0.5,3.3,1.3,6.5,2.5,9.6
		c-2.5-1.5-5.3-2.5-8.1-3.3c-1.3,1.8-2.6,3.5-3.9,5.3c-1.2-7.4-0.6-14.9-1.4-22.4C40.5,99.2,40.8,94.4,41.5,89.6z"/>
</g>
<g id="_x23_7236b0ff">
	<path class="st84" d="M72.7,99.9c-0.4-3.4,0.1-6.9,0.9-10.2c0,0.7-0.1,2.2-0.1,3l0.8-0.3c2.4-0.6,4.8-1.1,7.2-1.6
		c1.5,0.1,3,0.2,4.4,0.3l0,0.8c-1.9,0-3.8,0-5.7,0.1c-0.4,0.3-1.2,0.8-1.6,1c-1.8,2.8-1.4,6.4-1,9.5c1.4,0.9,2.9,1.6,4.3,2.4
		c-1.8,0.4-3.9,1.1-5.6,0C74.7,103.6,73.8,101.6,72.7,99.9z"/>
</g>
<g id="_x23_c37b87ff">
	<path class="st85" d="M85.9,90.9c1.9,0,3.8-0.1,5.7-0.1c2.3,0,4.6,0,6.9,0.2l1.2,0.2c-0.2,4,0.3,8.1-0.5,12.1c0-3.9-0.5-7.7-1-11.5
		c-4.1,0-8.2,0-12.3,0.1L85.9,90.9z"/>
</g>
<g id="_x23_7c7afbff">
	<path class="st86" d="M198.4,92.3c2.2-0.5,4.4-1,6.6-1.4c-3.4,6.3-8.1,12.1-9.7,19.2c-0.6,2.2-0.9,4.5-1.3,6.7l-0.2,0.9l-0.9,0.6
		c-0.5-4.4-0.4-8.8,0.2-13.1c0.5-2.5,1.2-4.9,1.6-7.4c0.5,0.2,1.5,0.5,2,0.7c0.5-1.8,1-3.6,1.4-5.4L198.4,92.3z"/>
</g>
<g id="_x23_723b58ff">
	<path class="st87" d="M213.4,90.6l0.2,0.8c0.1,1.7,0.3,3.4,0.4,5.2c-0.4,8.3-0.2,16.7,0.1,25c-0.1,6.5-0.2,13,0.4,19.5
		c0,3.2,2.7,5.4,4.6,7.8c0.1-6.7,0-13.5,0.6-20.2l0,0.8c0,1.1,0.1,2.3,0.2,3.4c0,9.4-0.1,18.8,0.1,28.2c0,4.7,0.3,9.6-1.4,14.2
		c-0.2-2.3-0.6-4.5-0.9-6.8c-1.7,0.2-3.4,0.3-5.1,0.5c0.8-12.2,0.6-24.4,0.4-36.7C213,118.4,212.7,104.5,213.4,90.6z"/>
</g>
<g id="_x23_f5d7a0ff">
	<path class="st88" d="M78.6,92.9c0.4-0.2,1.2-0.8,1.6-1c0,3.2-0.1,6.5-0.5,9.7C79.1,98.7,78.7,95.8,78.6,92.9z"/>
</g>
<g id="_x23_f7bc24ff">
	<path class="st89" d="M80.2,91.9c1.9-0.1,3.8-0.1,5.7-0.1c4.1,0,8.2-0.1,12.3-0.1c0.5,3.8,1.1,7.7,1,11.5c-0.4,1.9-1,3.8-1.7,5.7
		c-2.4-3-5.3-6.5-9.4-6.6c-2.2,0.3-4.2,1.6-6.2,2.5c-1.5-0.8-3-1.5-4.3-2.4c-0.4-3.2-0.7-6.7,1-9.5c0.1,2.9,0.5,5.8,1.1,8.7
		C80.1,98.3,80.2,95.1,80.2,91.9z"/>
</g>
<g id="_x23_708bceff">
	<path class="st90" d="M132.5,91.6c3.5,3.3,1.8,8.4,2.1,12.7c-0.6-0.2-1.7-0.6-2.2-0.7C132.3,99.6,132.3,95.6,132.5,91.6z"/>
</g>
<g id="_x23_8522ecff">
	<path class="st91" d="M136.1,104.6c0.2-3.3,0.3-6.5,0.5-9.8c0.1,8.8,0.4,17.5,0,26.2c-3.7,1.1-7.4,2.2-10.8,3.9l-0.9,0.3
		c-0.5,0-1.6-0.1-2.2-0.1c2-1.9,4.2-3.6,6.5-5c1.4-0.3,2.8-0.6,4.2-1c0.3-1,0.6-1.9,0.9-2.9c0.3-3.2,0.4-6.4,0.3-9.6
		c0-0.5-0.1-1.6-0.1-2.2h0.8L136.1,104.6z"/>
</g>
<g id="_x23_fec82aff">
	<path class="st92" d="M219.8,95.1c1.2,1.5,2.1,4,4.3,3.9c2.8,0.2,5.6-0.4,8.3-0.8c0.1,13.6,0.1,27.3,0,40.9c-3,0.4-6,1.1-9,0.7
		c-1.8-2-2.8-4.5-3.8-7c-0.1-1.1-0.1-2.3-0.2-3.4C220.4,118,219.5,106.5,219.8,95.1z"/>
</g>
<g id="_x23_b9802bff">
	<path class="st93" d="M32.7,96c0.9,0,2.6,0,3.5,0c0.3,9.5-0.5,19.1-0.6,28.6c-0.7,0.2-2.2,0.4-2.9,0.6
		C32.6,115.4,32.6,105.7,32.7,96z"/>
</g>
<g id="_x23_f2a811ff">
	<path class="st94" d="M57.9,96.1c4.9,1.5,10.4,1,14.8,3.8c1.1,1.7,2,3.7,3.7,4.9c1.7,1.1,3.8,0.4,5.6,0c2-0.9,3.9-2.2,6.2-2.5
		c4.2,0.2,7.1,3.6,9.4,6.6c-2.2,4.5-5.7,8.4-10.2,10.5c-1.3,0.1-2.6,0.2-3.9,0.2c-6.8-0.6-14.6-1.1-19.8-6.1
		C58.9,109,58.1,102.2,57.9,96.1z"/>
</g>
<g id="_x23_9e653dff">
	<path class="st95" d="M213.9,96.6c1.7,1,4.7,1.2,4.8,3.6c1.2,8.1,0.4,16.4,0.7,24.6c-1.8-1.1-3.6-2.2-5.4-3.2
		C213.7,113.2,213.5,104.9,213.9,96.6z"/>
</g>
<g id="_x23_faca1bff">
	<path class="st96" d="M141.7,100.3c5.7,1.6,11.4-0.1,16.8-1.9c0.1,0.3,0.4,1,0.6,1.4c-0.3,1.1-0.6,2.1-0.9,3.2
		c-1.1,4.6-0.9,9.3-1.1,13.9c-5,0.3-10,0.2-15,0.1C141.7,111.4,141.5,105.8,141.7,100.3z"/>
</g>
<g id="_x23_f2b320ff">
	<path class="st97" d="M177.7,99.4c4.7-1.3,9.6-1.6,14.5-1.5c-0.1,6.9-0.9,13.9-0.1,20.8c-0.4,0.2-1.1,0.5-1.4,0.6
		c-4.9,0.1-9.8-0.2-14.5-1.4c-0.2-3.6-0.2-7.2,0.1-10.8C176.7,104.6,177.2,102,177.7,99.4z"/>
</g>
<g id="_x23_6b7dfdff">
	<path class="st98" d="M195.4,110.1c3.2-4,6.6-7.8,9.3-12.2c0.7,1.8,1.5,3.6,2.1,5.5c0.2,1,0.4,2,0.5,2.9c-4.1,3.7-6.7,8.7-8.6,13.8
		c-0.7-1.8-1.4-3.6-2.2-5.4c-0.8,0.7-1.6,1.3-2.4,2C194.5,114.6,194.8,112.3,195.4,110.1z"/>
</g>
<g id="_x23_f5bf63ff">
	<path class="st99" d="M174.9,100.1c0.3-0.3,0.9-1,1.2-1.3c0.2,2.8,0.3,5.6,0.3,8.4c-0.3,3.6-0.3,7.2-0.1,10.8
		c-0.6-0.2-1.7-0.7-2.3-0.9C174.1,111.4,174.1,105.7,174.9,100.1z"/>
</g>
<g id="_x23_fde61bff">
	<path class="st100" d="M107.3,102.2c3.3-0.9,6.7-1.5,10.1-2c0.4,1.8,0.8,3.6,1.2,5.4c5.3,0.3,10.7,0.4,16,1c0.1,3.2,0,6.4-0.3,9.6
		c-9,1.8-18.3,0.7-27.5,0.9l-0.1-1C106.7,111.6,107,106.9,107.3,102.2z"/>
</g>
<g id="_x23_e8823cff">
	<path class="st101" d="M120.2,101.3c3.7-0.9,7.4-1.1,11.2-1.2c-2.9,3.1-7.5,2.2-11.3,2.3L120.2,101.3z"/>
</g>
<g id="_x23_e2762cff">
	<path class="st102" d="M159.1,99.8c1.8,3,4,5.7,6.2,8.4c0.2,0.3,0.7,0.9,0.9,1.2c-0.7,0.6-1.3,1.1-1.9,1.7
		c-1.9-2.4-3.9-4.8-5.7-7.3l-0.3-0.8C158.5,101.9,158.8,100.8,159.1,99.8z"/>
</g>
<g id="_x23_d8704aff">
	<path class="st103" d="M172.4,102.9c0.8-0.9,1.7-1.8,2.5-2.8c-0.8,5.6-0.9,11.3-0.9,16.9c0.6,0.2,1.7,0.7,2.3,0.9
		c4.7,1.2,9.6,1.4,14.5,1.4c-6,1.5-12.3,0.6-18.5,0.4C172.3,114.1,172.6,108.5,172.4,102.9z"/>
</g>
<g id="_x23_7b65c1ff">
	<path class="st104" d="M206.7,103.4c1.1-0.8,2.2-1.7,3.2-2.5c1.4,8.8,1.4,17.8,0.8,26.7c-0.3,2.9-0.8,5.8-1.1,8.7
		c-0.6-1.2-1.2-2.4-1.7-3.7c-0.1-3.3-0.1-6.5,0-9.8c0.2-5.5,0.1-11-0.7-16.5C207.1,105.4,206.9,104.4,206.7,103.4z"/>
</g>
<g id="_x23_f6ba3dff">
	<path class="st105" d="M157.1,116.8c0.2-4.7,0-9.4,1.1-13.9l0.3,0.8c0.1,5,0.4,10.1-0.6,15c-5.9,0.1-11.8,0.3-17.7,0.4l0.1-0.8
		l0.2-0.7c0.4-0.2,1.1-0.4,1.5-0.6C147.1,117.1,152.1,117.1,157.1,116.8z"/>
</g>
<g id="_x23_8417f4ff">
	<path class="st106" d="M172.4,102.9c0.2,5.6-0.1,11.3-0.1,16.9c6.1,0.1,12.4,1.1,18.5-0.4c0.4-0.2,1.1-0.5,1.4-0.6l0.8-0.4l0.9-0.6
		c-0.1,0.5-0.3,1.5-0.4,2c-4.2,5.5-11.7,3.3-17.6,2.8c-1.5-0.4-4-0.1-4.5-1.9c-0.8-3.8-0.5-7.8-0.6-11.7c-0.9,0.9-1.8,1.8-2.7,2.7
		c-0.9,0.9-1.9,1.8-2.8,2.6c-1.8-1.5-3.6-3-5.4-4.4c0.1,2.2,0.1,4.5,0.1,6.7c-0.4,2-1,4-1.7,5.9c-6.4-0.3-12.9,0.7-19.2-0.5
		c-0.1-0.5-0.3-1.4-0.4-1.8c6.4-0.4,13.2,1.3,19.2-1.4c1-4.9,0.7-10,0.6-15c1.8,2.5,3.7,4.9,5.7,7.3c0.6-0.6,1.3-1.1,1.9-1.7
		C168.4,107.3,170.4,105.1,172.4,102.9z"/>
</g>
<g id="_x23_fecc2bff">
	<path class="st107" d="M17.6,108.3c3.2-0.4,6.3-0.9,9.4-1.5c1.8,6.4,1.6,13.1,3.2,19.5c0.5,13.3,0.1,26.6,0.1,39.9
		c-4,1.9-8.3,2.8-12.7,3.2C17.4,149.1,17.5,128.7,17.6,108.3z"/>
</g>
<g id="_x23_6a1aaaff">
	<path class="st108" d="M98.1,113.6c0.7-2.7,1.6-5.3,3.5-7.3c-0.8,4.9-0.6,9.9,0.2,14.8c0.3,0.2,1,0.7,1.3,0.9
		c0.7,0.5,1.5,1,2.2,1.5c-0.1,0.5-0.3,1.5-0.3,1.9c-0.5,0-1.6,0-2.1,0c-0.7-0.1-2-0.3-2.7-0.4c-0.4-1.5-0.8-2.9-1.1-4.4
		C98.7,118.2,98.3,115.9,98.1,113.6z"/>
</g>
<g id="_x23_ae50e2ff">
	<path class="st109" d="M101.6,106.2l0.6-0.8c0.2,4.9,0.7,9.9,1.5,14.7c0.1,0.4,0.2,1.3,0.3,1.8l-0.9-0.1c-0.3-0.2-1-0.7-1.3-0.9
		C100.9,116.2,100.8,111.1,101.6,106.2z"/>
</g>
<g id="_x23_887ef4ff">
	<path class="st110" d="M198.6,120.2c1.9-5.1,4.5-10.1,8.6-13.8c0.8,5.4,1,11,0.7,16.5c-3.4,3.3-7,6.5-10.9,9.3
		c-0.6-1.3-1.3-2.5-2-3.8C196.4,125.7,197.6,122.9,198.6,120.2z"/>
</g>
<g id="_x23_450d7dff">
	<path class="st111" d="M168.1,111.6c0.9-0.9,1.8-1.8,2.7-2.7c0.1,3.9-0.2,7.9,0.6,11.7c0.6,1.9,3,1.5,4.5,1.9
		c5.9,0.5,13.3,2.7,17.6-2.8c-0.5,1.5-0.6,3.6-2.3,4.4c-1.7,0.6-3.5,0.6-5.3,0.7c-0.7,0-2,0.1-2.6,0.1c-4.6,0-9.2,0-13.8,0.3
		c-0.1-0.3-0.3-1-0.4-1.4C168.8,119.8,168.7,115.7,168.1,111.6z"/>
</g>
<g id="_x23_470f85ff">
	<path class="st112" d="M159.9,109.8c1.8,1.5,3.6,3,5.4,4.4c-1.7,0.9-3.4,1.6-5.2,2.3C160.1,114.3,160,112.1,159.9,109.8z"/>
</g>
<g id="_x23_6b79b7ff">
	<path class="st113" d="M165.3,114.2c1-0.8,1.9-1.7,2.8-2.6c0.6,4.1,0.7,8.2,1,12.2c-0.6-2-1.2-4-1.9-6c-5.4,2.2-7.3,9.2-13.5,10
		c-4.9,1.3-9.9,0-14.2-2.6c4.8-0.2,9.6-0.1,14.3-0.4c1.8,0,3.1-1.4,4.4-2.4c0.7-1.9,1.3-3.9,1.7-5.9
		C161.9,115.8,163.6,115.1,165.3,114.2z"/>
</g>
<g id="_x23_7277baff">
	<path class="st114" d="M91.1,121.2c2.6-2.3,4.9-4.9,7-7.6c0.2,2.3,0.6,4.6,1,6.9c-4.3,1.4-7.6,4.5-10.4,8c-1.7,0.4-3.4,0.8-5.1,1.1
		c-0.2,0.7-0.6,2-0.8,2.7c-0.6,0-1.7,0.1-2.2,0.1l-0.3-0.8c-0.2-0.5-0.6-1.5-0.8-2c-2.8-0.1-5.5-0.3-8.3-0.7c-0.2-0.5-0.7-1.5-1-2
		C77.5,127.9,85.6,126.2,91.1,121.2z"/>
</g>
<g id="_x23_447bcbff">
	<path class="st115" d="M52,114.7c3.2,4.8,7.1,9.8,13.1,11.1c-3.7,0.7-7.5,1-10.6-1.4C53.3,121.2,52.5,118,52,114.7z"/>
</g>
<g id="_x23_5b64bfff">
	<path class="st116" d="M194.1,116.8c0.8-0.7,1.6-1.4,2.4-2c0.8,1.8,1.5,3.6,2.2,5.4c-1.1,2.8-2.3,5.5-3.5,8.2
		c-1.1,0.2-2.2,0.3-3.2,0.5c-1.7-0.1-3.5-0.2-5.2-0.4c-0.2-1.2-0.5-2.4-0.7-3.6c1.8-0.1,3.6-0.2,5.3-0.7c1.7-0.8,1.8-2.8,2.3-4.4
		c0.1-0.5,0.3-1.5,0.4-2L194.1,116.8z"/>
</g>
<g id="_x23_a09ff5ff">
	<path class="st117" d="M153.8,127.9c6.1-0.9,8-7.9,13.5-10c0.6,2,1.3,4,1.9,6c0.1,0.4,0.3,1.1,0.4,1.4c3.1,4.6,10.8,4.2,13.8-0.3
		c0.7,0,2-0.1,2.6-0.1c0.2,1.2,0.5,2.4,0.7,3.6c1.7,0.1,3.5,0.3,5.2,0.4l0,1.1c-1.5,0-3.1,0-4.6-0.1c-4.8-0.1-9.6-0.3-14.5,0
		c-0.4,0.1-1.3,0.3-1.8,0.4c-0.6,0.2-1.8,0.5-2.5,0.6c-1.1,0.3-2.2,0.5-3.4,0.7c-0.5,0-1.1,0.1-1.6,0.1c-4.6-3-10.3-2.1-15.5-1.6
		c-1.1,0.2-2.2,0.4-3.3,0.6c-1.2,6.6,0.1,13.4-1.5,19.9c-0.2-0.5-0.7-1.5-1-2c1.2-5.6,1.8-11.7-0.6-17.1c-5.2-4.1-12.6-1.9-17.8-5.9
		l0.9-0.3l0.9-0.3c4.6-0.7,9.3-0.6,13.9,0.4C143.9,127.9,148.9,129.2,153.8,127.9z"/>
</g>
<g id="_x23_e21df9ff">
	<path class="st118" d="M103.7,120.2c8.5,0,17,0,25.5,0c-2.4,1.4-4.5,3.1-6.5,5c-2.1-0.1-4.2-0.1-6.3-0.1c-2.8-4.1-8.2-2.7-12.4-3.1
		C104,121.5,103.8,120.6,103.7,120.2z"/>
</g>
<g id="_x23_481192ff">
	<path class="st119" d="M125.8,124.9c3.5-1.7,7.1-2.8,10.8-3.9c0.6,0.2,1.9,0.7,2.5,0.9c6.3,1.2,12.8,0.2,19.2,0.5
		c-1.3,1-2.6,2.4-4.4,2.4c-4.8,0.3-9.6,0.2-14.3,0.4C135.1,124.3,130.4,124.2,125.8,124.9z"/>
</g>
<g id="_x23_5288fcff">
	<path class="st120" d="M46.4,121.1c2.8,0.8,5.6,1.8,8.1,3.3c3.1,2.4,7,2.1,10.6,1.4c1.7,0.3,3.3,0.7,5,1c0.2,0.5,0.7,1.5,1,2
		c-3.3-1-6.8-1.7-9.9,0.2c-0.4,0.1-1.1,0.4-1.5,0.6c-1.2,0.5-2.4,0.9-3.6,1.4c-4.2,1.6-8.6,2.9-12.9,4.3c-0.1-1.9-0.3-3.9-0.5-5.8
		c-0.1-1-0.2-2-0.3-3C43.8,124.6,45.1,122.8,46.4,121.1z"/>
</g>
<g id="_x23_b317d8ff">
	<path class="st121" d="M103.1,121.9l0.9,0.1c4.2,0.5,9.6-1,12.4,3.1c-3.8,0.1-7.6,0.3-11.4,0.3c0.1-0.5,0.3-1.4,0.3-1.9
		C104.6,122.9,103.9,122.4,103.1,121.9z"/>
</g>
<g id="_x23_874f4aff">
	<path class="st122" d="M213.9,121.6c1.8,1.1,3.6,2.1,5.4,3.2c0,1.3,0.1,2.5,0.1,3.8c-0.6,6.7-0.5,13.5-0.6,20.2
		c-1.9-2.3-4.6-4.5-4.6-7.8C213.8,134.6,213.9,128.1,213.9,121.6z"/>
</g>
<g id="_x23_9765f6ff">
	<path class="st123" d="M197.1,132.2c3.8-2.8,7.4-6,10.9-9.3c-0.1,3.3-0.1,6.5,0,9.8v1c-3.1,4.5-5.6,9.3-8.7,13.8
		c-0.6-0.8-1.2-1.6-1.8-2.3c0,0.4,0,1.3,0,1.8c-0.4-0.3-1.1-1-1.5-1.4c0.3-0.3,0.9-1,1.3-1.4C200.9,141.1,198.5,135.9,197.1,132.2z"
		/>
</g>
<g id="_x23_d169e9ff">
	<path class="st124" d="M102.9,125.3c0.5,0,1.6,0,2.1,0c3.8,0,7.6-0.1,11.4-0.3c2.1,0,4.2,0,6.3,0.1c0.5,0,1.6,0,2.2,0.1l-0.9,0.3
		C117,126.7,109.8,126.6,102.9,125.3z"/>
</g>
<g id="_x23_7774c5ff">
	<path class="st125" d="M169.6,125.3c4.6-0.3,9.2-0.4,13.8-0.3C180.4,129.5,172.6,129.9,169.6,125.3z"/>
</g>
<g id="_x23_80ccfeff">
	<path class="st126" d="M61.2,128.9c3.1-1.9,6.7-1.1,9.9-0.2c2.7,0.5,5.5,0.6,8.3,0.7c0.2,0.5,0.6,1.5,0.8,2
		c-0.5,4.1-0.7,8.2-0.7,12.3c-0.3,1.6-0.6,3.3-0.9,4.9c-5.4-0.5-10.8-1.3-16.2-0.6c-0.5,4.7-0.6,9.4,0.2,14.1
		c0.8,5.4,2.7,12,8.6,13.9c6.8,2.1,14,1.4,21,1.2c-8.2,3.2-16.9,1.7-25.4,1c0.5,0,1.5-0.1,1.9-0.1c-2.6-1.7-4.8-3.9-6.4-6.5
		c-0.3,0.2-0.9,0.5-1.2,0.6c-0.5-8-1.8-16-1.1-24c2.4-6.3,6-12.2,9.2-18.1C66.5,129.7,63.9,129.2,61.2,128.9z"/>
</g>
<g id="_x23_7758e1ff">
	<path class="st127" d="M191.9,128.9c1.1-0.1,2.2-0.3,3.2-0.5c0.7,1.2,1.3,2.5,2,3.8c1.3,3.7,3.8,8.9,0.1,12c0-4.2,0-8.8-2.9-12.1
		c-0.2-0.3-0.7-1-0.9-1.3c-0.3,5.4-0.3,10.8-0.4,16.3c-0.2,10.1,1,20.3-0.6,30.3c-0.2-7.9-0.8-15.7-0.7-23.6c0-0.7,0.1-2.1,0.1-2.8
		c0.2-7,0.3-14,0.1-21.1L191.9,128.9z"/>
</g>
<g id="_x23_76309aff">
	<path class="st128" d="M209.7,136.3c0.3-2.9,0.8-5.8,1.1-8.7c0.6,1.6,1.3,3.1,2,4.7c0.2,12.2,0.4,24.5-0.4,36.7
		c-2.2,2.7-4.2,5.6-7.1,7.6c1.8-5.4,4.5-10.6,4.5-16.5C209.9,152.1,209.8,144.2,209.7,136.3z"/>
</g>
<g id="_x23_9dfcffff">
	<path class="st129" d="M61.2,128.9c2.7,0.3,5.3,0.8,7.9,1.3c-3.3,5.9-6.8,11.7-9.2,18.1c-0.3-6.3-0.4-12.6-0.2-18.8
		C60.1,129.4,60.8,129.1,61.2,128.9z"/>
</g>
<g id="_x23_cef5ffff">
	<path class="st130" d="M95.8,129.9c3.6-0.2,7.2-0.4,10.9-0.6c0.1,0.7,0.4,2.1,0.5,2.8c0.3,5.8-0.6,11.5-1.1,17.3
		c-1-4-3.5-7.2-6.2-10.2C97.4,136.6,96.6,133.1,95.8,129.9z"/>
</g>
<g id="_x23_f1fbffff">
	<path class="st131" d="M112.7,128.6c5.5,0,11,0.4,16.5,0.9c-2.1,0.5-4.9,0.5-6.2,2.6c-3.2,4.9-6.4,9.8-9.3,15
		c0-0.9-0.1-2.5-0.1-3.4C113.8,138.6,113.4,133.6,112.7,128.6z"/>
</g>
<g id="_x23_5a60e4ff">
	<path class="st132" d="M39.1,133c1.1-1.3,2.4-2.5,3.7-3.6c0.2,1.9,0.4,3.9,0.5,5.8c-0.7,2.2-1.5,4.4-2.3,6.6c-0.3,0.7-0.8,2-1,2.7
		c-0.1-0.7-0.4-2.1-0.6-2.8C39,138.8,39.1,135.9,39.1,133z"/>
</g>
<g id="_x23_8556ffff">
	<path class="st133" d="M56.2,130.9c1.2-0.4,2.4-0.9,3.6-1.4c-0.3,6.3-0.2,12.6,0.2,18.8c-0.7,8,0.6,16,1.1,24
		c0.3-0.2,0.9-0.5,1.2-0.6c1.6,2.6,3.8,4.8,6.4,6.5c-0.5,0-1.5,0.1-1.9,0.1c-0.8,0-2.3,0.1-3,0.1c-7.6-7.5-6.2-19-7.3-28.7
		c-0.3-6,0.4-12.1-0.2-18.1L56.2,130.9z"/>
</g>
<g id="_x23_7d57f2ff">
	<path class="st134" d="M82.8,132.3c0.2-0.7,0.6-2,0.8-2.7c0.5,0.2,1.6,0.7,2.2,0.9c-1.3,10.5,0.4,21-0.9,31.5
		c-0.6,0.2-1.6,0.6-2.2,0.8C82.7,152.6,82.2,142.4,82.8,132.3z"/>
</g>
<g id="_x23_9eedffff">
	<path class="st135" d="M85.8,130.5c3.3-0.2,6.7-0.5,10-0.6c0.8,3.3,1.6,6.8,4,9.3c2.7,3,5.3,6.2,6.2,10.2c0,0.5,0.1,1.5,0.1,2
		c-2.8-4-7.2-6.3-11.6-8.2c-3.5-1.4-4.9-5-6.5-8.1c0.1,3.9,0,7.9-0.1,11.8c0,1.7-0.1,3.4-0.1,5.1c0,2,0,4-0.2,6
		c-0.4,1.1-0.9,2.2-1.3,3.3C85.7,151.1,86.1,140.8,85.8,130.5z"/>
</g>
<g id="_x23_bef8ffff">
	<path class="st136" d="M123.1,132.1c1.3-2.1,4-2.1,6.2-2.6c0.7,0.1,2.1,0.2,2.8,0.2c-1.7,3.4-3.1,6.9-5.3,10
		c-2.3,3-6.2,3.9-9.2,5.8c-2,0.9-1.9,3.4-2.5,5.2c-0.3,2.2-0.6,4.3-0.8,6.5c-0.1-3.4-0.3-6.8-0.4-10.2
		C116.7,142,119.9,137.1,123.1,132.1z"/>
	<path class="st136" d="M171.1,130.3c0.4-0.1,1.3-0.3,1.8-0.4c-0.3,6.1-0.1,12.3,0.1,18.4c0,1.2,0,2.4,0,3.6c0,1.4-0.1,2.7-0.1,4.1
		c-0.1,2-0.1,4-0.2,6c-0.2,5-0.2,10.1,0.2,15.1c2.1,0.2,4.3,0.4,6.4,0.6c-2.7-0.1-5.3-0.1-8-0.1c0.1-15.5,0.1-31.1-0.4-46.6
		L171.1,130.3z"/>
</g>
<g id="_x23_97f7ffff">
	<path class="st137" d="M132,129.7c1.6,1.6,2.9,3.4,3.8,5.4c0.9,1.8,1.7,3.6,2.5,5.4c0.1,1.5,0.2,2.9,0.3,4.4
		c-3.6,1.2-7.3,2.2-11.1,2.5c-4.3,0.5-9.2,0.1-12.7,3.3c0.6-1.8,0.5-4.3,2.5-5.2c3.1-1.9,7-2.8,9.2-5.8
		C128.9,136.6,130.3,133.1,132,129.7z"/>
</g>
<g id="_x23_9eeefeff">
	<path class="st138" d="M144.8,130.6c1.1-0.2,2.2-0.4,3.3-0.6c0,7.7-0.8,15.3-2.1,22.9l-0.2,0.9l-0.8-0.1
		C144.8,146,145.4,138.3,144.8,130.6z"/>
</g>
<g id="_x23_84e3feff">
	<path class="st139" d="M148.1,130.1c5.2-0.5,10.9-1.4,15.5,1.6c-0.2,4.9-0.2,9.7-0.2,14.6c-4,2.4-8.7,2.6-13.2,3.1
		c-2.1,0-3.2,2-4.1,3.6C147.4,145.4,148.2,137.7,148.1,130.1z"/>
</g>
<g id="_x23_7d16ecff">
	<path class="st140" d="M168.6,130.9c0.6-0.2,1.8-0.5,2.5-0.6l-0.2,0.7c-2.2,5.4-1.1,11.3-1.3,17c0.2,10.4-0.4,20.8,0.3,31.1
		c6.9,0.4,13.9,0.7,20.8-0.3c0.2-0.4,0.5-1.2,0.7-1.6c0.4-4.7,0.2-9.4,0.2-14.1c0-2,0-4,0.1-6c0.1-1.1,0.1-2.2,0.2-3.3
		c0,7.9,0.5,15.7,0.7,23.6c-0.2,1.2-0.4,2.3-0.6,3.5c-7.4,0.6-14.8,0.6-22.2,0.6c-1.6-8.1-0.7-16.3-1-24.4
		C168.5,148.3,168.5,139.6,168.6,130.9z"/>
	<path class="st140" d="M163.6,131.7c0.5,0,1.1,0,1.6-0.1c-0.2,0.7-0.5,2.1-0.6,2.8c-0.8,7.7-0.3,15.6,0.1,23.4
		c-0.6,1.9-1.3,3.9-1.9,5.8c0.4-3.2,0.6-6.4,0.6-9.6c0-2.6,0-5.1,0.1-7.7C163.5,141.4,163.4,136.5,163.6,131.7z"/>
	<path class="st140" d="M98.4,186.2c2.9,4.2,6.1,8.3,8.9,12.7c2,3.1,3.8,6.5,6.8,8.8c1,0.2,2.5,0.6,3.1-0.5
		c3.4-4.9,5.6-10.7,9.8-15.1c-0.2,1.7-0.4,3.4-0.6,5c3.2-1.1,6.5-3.7,9.9-2.7c4,1.4,2.6,6.3,2.9,9.6c-1,1.7-2.1,3.3-3.1,5
		c0-2.5,0.3-5.2-0.6-7.5c-1.3-1.2-2.9-2.1-4.4-3c-4.3,3.9-8.2,8.4-11.3,13.3c-1,1.4-0.2,3.1-0.1,4.6c-0.2,0.4-0.6,1.1-0.7,1.5
		c-3.2-2.9-7-4.9-11.2-6c-8.7-5.6-17.7-10.6-26.9-15.2c-1.7-1.6-3.1-3.3-4.6-5.1C83.1,187.9,91.5,189.8,98.4,186.2z"/>
</g>
<g id="_x23_89eaffff">
	<path class="st141" d="M172.8,129.9c4.8-0.3,9.6-0.1,14.5,0c-3.5,7-8.3,13.4-14.4,18.4C172.7,142.1,172.5,136,172.8,129.9z"/>
</g>
<g id="_x23_7589feff">
	<path class="st142" d="M43.3,135.2c4.3-1.4,8.6-2.8,12.9-4.3l0,0.7c-2.4,3.8-2.7,8.3-2.5,12.7c-0.4-1.1-0.8-2.1-1.2-3.1
		c-3,0.7-6.1,1.4-9.1,2.2c-0.6-0.4-1.8-1.1-2.5-1.5C41.8,139.6,42.6,137.4,43.3,135.2z"/>
</g>
<g id="_x23_14aafbff">
	<path class="st143" d="M84.9,162c1.4-10.4-0.4-21,0.9-31.5c0.2,10.3-0.1,20.6,0.6,30.8c0.5-1.1,0.9-2.2,1.3-3.3
		c5.7,0.9,11.3,3.2,17.2,2.5c-1.5,7.2-6,14.1-13,16.8c-7,0.2-14.2,0.9-21-1.2c-5.9-1.8-7.8-8.4-8.6-13.9c0.2-2.1,0.5-4.2,0.7-6.3
		c5.1-0.3,10.1,0,15.2,0.5c0.4,0.9,0.9,1.7,1.3,2.6c0.3,0.5,0.8,1.5,1.1,2c0.5,0.4,1.4,1.3,1.8,1.7C83.3,162.5,84.4,162.1,84.9,162z
		"/>
</g>
<g id="_x23_e065fbff">
	<path class="st144" d="M107.2,132.1c1.7-0.2,3.4-0.5,5.1-0.7c0,4.5,0,8.9,0.3,13.4c-0.2,1.5-0.3,3-0.6,4.4
		c-0.6-0.4-1.7-1.3-2.2-1.8c0.3-4.6,1-9.4-0.3-13.9c-0.4-0.3-1.1-0.9-1.4-1.2c-0.2,6.4-0.3,12.8-0.6,19.2c-0.2,0.5-0.7,1.6-0.9,2.2
		c-0.1-0.6-0.2-1.6-0.3-2.2c0-0.5-0.1-1.5-0.1-2C106.6,143.6,107.6,137.9,107.2,132.1z"/>
</g>
<g id="_x23_52d5ffff">
	<path class="st145" d="M143.3,150.6c1.6-6.5,0.3-13.3,1.5-19.9c0.6,7.7,0,15.4,0.3,23.1l0.8,0.1c5.8,0.4,11.7,0.1,17.5,0.1
		c0,3.2-0.2,6.4-0.6,9.6l-0.2-0.9c-0.3-1.1-0.6-2.1-1-3.2c-6.7,0.8-13.5,0.9-20-1.1c-8.3-2.4-17.1-3.2-25.8-2.6
		c0.2-1.1,0.4-2.2,0.5-3.4c5.4-0.6,10.8-1.2,16.2-0.8c3.3,0.1,6.6,0.6,9.9,0.1C142.6,151.4,143.1,150.8,143.3,150.6z"/>
</g>
<g id="_x23_7326abff">
	<path class="st146" d="M193.4,130.7c0.2,0.3,0.7,1,0.9,1.3c0.1,3.9-0.2,7.9-0.3,11.8c-0.1,7.9,0,15.9,0.4,23.8
		c1.6-6.5,1.6-13.4,3-19.9c0.6,0.9,1.2,1.9,1.9,2.8c-1.8,8.7-2.5,17.7-3.3,26.6c3.1-0.2,6.2-0.3,9.2-0.5c-4.5,1.3-9.8,0.9-13.4,4.3
		c0.2-1.2,0.4-2.3,0.6-3.5c1.6-10.1,0.4-20.2,0.6-30.3C193.1,141.6,193.1,136.1,193.4,130.7z"/>
</g>
<g id="_x23_501ab4ff">
	<path class="st147" d="M53.7,144.2c-0.3-4.4,0-8.9,2.5-12.7c0.6,6,0,12.1,0.2,18.1c-0.7,0-2,0.1-2.6,0.1l0-1.1c0-0.5,0-1.4,0-1.9
		C53.7,146.2,53.7,144.9,53.7,144.2z"/>
</g>
<g id="_x23_6e16e9ff">
	<path class="st148" d="M80.3,131.5l0.3,0.8c1.4,9.5-0.5,19.1,0.3,28.7c-0.3-0.5-0.8-1.5-1.1-2c-0.2-5.1-0.2-10.1-0.2-15.2
		C79.6,139.7,79.8,135.6,80.3,131.5z"/>
	<path class="st148" d="M100.8,185.9c1-0.2,2-0.4,3.1-0.6c3,2.1,6.2,4.4,10.1,4.1c5.3-0.3,11.1,1.3,16.1-1.4
		c3.1-1.6,6.4-2.7,9.8-3.4c0.8,0.7,1.6,1.5,2.4,2.2c-5.8-1.3-10.9,1.8-15.2,5.2c-4.2,4.4-6.3,10.2-9.8,15.1
		c-0.6,1.1-2.1,0.6-3.1,0.5C110.2,200.1,105.1,193.2,100.8,185.9z"/>
</g>
<g id="_x23_6b34bcff">
	<path class="st149" d="M138.7,133.8c1.1-0.8,2.1-1.5,3.1-2.3c2.3,5.4,1.8,11.5,0.6,17.1c-1.2-2.4-2.6-4.8-3.7-7.3
		C138.6,138.8,138.7,136.3,138.7,133.8z"/>
</g>
<g id="_x23_674bafff">
	<path class="st150" d="M194.3,132c2.9,3.3,2.9,7.9,2.9,12.1c-0.3,0.3-0.9,1-1.3,1.4c-0.5-0.4-1.4-1.2-1.9-1.7
		C194.1,139.9,194.4,136,194.3,132z"/>
</g>
<g id="_x23_c211ebff">
	<path class="st151" d="M108,132.3c0.4,0.3,1.1,0.9,1.4,1.2c1.3,4.5,0.6,9.3,0.3,13.9c0,0.4-0.1,1.1-0.1,1.4
		c-0.7,1.2-1.4,2.4-2.1,3.6l-0.1-1C107.7,145.1,107.8,138.7,108,132.3z"/>
</g>
<g id="_x23_470a82ff">
	<path class="st152" d="M165.1,133.8c0.6-0.4,1.8-1.2,2.3-1.6c0.4,7.2,0.1,14.3,0.2,21.5c-0.1,0.9-0.2,2.8-0.3,3.7
		c-1.1-1.3-2.3-2.6-2.2-4.4C164.7,146.6,165,140.2,165.1,133.8z"/>
</g>
<g id="_x23_febd1bff">
	<path class="st153" d="M219.7,132.8c1,2.4,2,4.9,3.8,7c3,0.4,6-0.3,9-0.7c-0.3,12.3,1.1,24.7-1.1,36.9c-1.1,7.4-6,13.8-11.8,18.4
		c0-0.5-0.1-1.6-0.1-2.1c-5.6-0.5-11.3-1.9-16.9-0.6c-2.3,0.5-4.6,1.2-6.9,1.8c5.9-4.2,13-6.6,18.3-11.6c1.9-1.9,3.5-4.2,4.5-6.8
		c1.7-4.5,1.4-9.4,1.4-14.2C219.6,151.6,219.6,142.2,219.7,132.8z"/>
</g>
<g id="_x23_9884e8ff">
	<path class="st154" d="M135.9,135.2c0.9-0.4,1.9-0.9,2.8-1.3c0,2.5-0.1,4.9,0,7.4l-0.3-0.7C137.6,138.8,136.7,136.9,135.9,135.2z"
		/>
</g>
<g id="_x23_5c13b5ff">
	<path class="st155" d="M164.6,134.4l0.5-0.6c-0.1,6.4-0.4,12.8,0,19.2c-0.1,1.8,1.1,3.2,2.2,4.4c0.3,7.7-0.1,15.3,0.3,23l0.8,0.3
		c0.3,0.2,1,0.4,1.4,0.6c7.4,0,14.8,0,22.2-0.6c-8.2,2-16.8,0.7-25.2,1.6c3.4,2.3,7.4,3.4,11.3,4.6c2,0.5,3.1,2.4,4.4,3.9
		c-10.4,5.6-21,11.1-30.4,18.3c-5.1,2.3-10,5.1-14.8,8.1c-4.2,2.7-9.4,2.8-14,4.3c-5.9-1.6-11.4-4.7-15.3-9.5c4.2,1,8,3.1,11.2,6
		c0.2-0.4,0.5-1.1,0.7-1.5c5.3-1.4,10.7-0.4,16.1-0.9c5.1-5,11.6-7.9,18.1-10.7c7.5-4.1,15.7-7.6,21.6-14.1
		c-4.8-3.5-10.6-4.9-16.3-5.9c1.8-0.9,3.6-1.9,5.4-2.9c-0.2-8.1,1.2-16.2,0.1-24.3C164.4,150,163.8,142.1,164.6,134.4z"/>
</g>
<g id="_x23_7edcffff">
	<path class="st156" d="M88.2,135.1c1.6,3.1,3,6.7,6.5,8.1c4.4,1.9,8.7,4.2,11.6,8.2c0.1,0.6,0.2,1.6,0.3,2.2
		c-5.8-3.2-11.8-5.9-18.4-6.7C88.2,143,88.3,139,88.2,135.1z"/>
</g>
<g id="_x23_9a8fffff">
	<path class="st157" d="M43.4,143.3c3-0.8,6-1.6,9.1-2.2c0.4,1,0.8,2.1,1.2,3.1c0,0.7,0.1,2,0.1,2.6c-2.4,3.9-4.9,7.7-7.3,11.6
		c-0.3-0.4-0.8-1.3-1-1.8c0.6-1.3,1.3-2.7,2-4c-1.7-0.3-3.4-0.7-5.1-1C42.7,148.9,43.1,146.1,43.4,143.3z"/>
</g>
<g id="_x23_71e4ffff">
	<path class="st158" d="M138.4,140.6l0.3,0.7c1.1,2.5,2.5,4.9,3.7,7.3c0.2,0.5,0.7,1.5,1,2c-0.2,0.3-0.7,0.9-0.9,1.1
		c-3.3,0.5-6.6,0-9.9-0.1c-5.4-0.4-10.8,0.2-16.2,0.8c-0.2,1.1-0.4,2.2-0.5,3.4c-0.8,5.1-0.5,10.3-0.2,15.4c0.1,2,0.2,3.9,0.3,5.9
		c-0.8-1.3-1.6-2.7-1.6-4.2c-0.5-5.2-0.3-10.4-0.2-15.6c0.2-2.2,0.5-4.3,0.8-6.5c3.5-3.2,8.3-2.8,12.7-3.3c3.8-0.3,7.5-1.4,11.1-2.5
		C138.6,143.5,138.5,142,138.4,140.6z"/>
</g>
<g id="_x23_735db3ff">
	<path class="st159" d="M36.7,144.1c0.9-0.8,1.8-1.7,2.7-2.5c0.1,0.7,0.4,2.1,0.6,2.8c-0.2,3.8-0.7,7.6-0.9,11.4
		c-0.5,0.3-1.5,0.9-2,1.2c0-0.5-0.1-1.6-0.2-2.1C36.6,151.4,36.6,147.7,36.7,144.1z"/>
</g>
<g id="_x23_9175e4ff">
	<path class="st160" d="M41,141.8c0.6,0.4,1.8,1.1,2.5,1.5c-0.4,2.8-0.7,5.7-1.2,8.5c-0.8,2.9-2,5.8-3.1,8.6c0-1.5,0-3,0-4.5
		c0.2-3.8,0.7-7.6,0.9-11.4C40.2,143.8,40.7,142.5,41,141.8z"/>
</g>
<g id="_x23_41b6fdff">
	<path class="st161" d="M78.6,148.8c0.3-1.6,0.7-3.3,0.9-4.9c0,5.1,0,10.1,0.2,15.2c-0.4-0.9-0.9-1.7-1.3-2.6
		c-5-0.5-10.1-0.9-15.2-0.5c-0.3,2.1-0.5,4.2-0.7,6.3c-0.8-4.7-0.6-9.4-0.2-14.1C67.8,147.5,73.2,148.2,78.6,148.8z"/>
</g>
<g id="_x23_599dfeff">
	<path class="st162" d="M112.6,145.6c0.3-0.5,0.8-1.4,1.1-1.9c0,0.9,0.1,2.5,0.1,3.4c0.1,3.4,0.3,6.8,0.4,10.2
		c-0.1,5.2-0.3,10.4,0.2,15.6c0.1,1.6,0.8,2.9,1.6,4.2c5.6,0.3,11.3,0,16.9-0.5c0.2-2,0.4-4,0.5-6c0.2,2.4,0.3,4.9,0.4,7.3
		c-1.5,0.4-3.1,0.8-4.6,1.1c-5.4-0.1-10.7-0.4-16.1-1C113,167.2,112.9,156.4,112.6,145.6z"/>
</g>
<g id="_x23_5530a0ff">
	<path class="st163" d="M194,143.8c0.5,0.4,1.4,1.2,1.9,1.7c0.4,0.3,1.1,1,1.5,1.4l0,0.8c-1.4,6.6-1.4,13.4-3,19.9
		C194,159.7,193.9,151.8,194,143.8z"/>
</g>
<g id="_x23_6360fcff">
	<path class="st164" d="M112.6,144.8l0,0.9c0.3,10.8,0.4,21.6,0.6,32.4c5.3,0.6,10.7,1,16.1,1c-5.5,1.1-11.1,0.9-16.6,1.1
		c-1-10.3-1.3-20.7-0.7-31C112.2,147.7,112.4,146.2,112.6,144.8z"/>
</g>
<g id="_x23_6dd6ffff">
	<path class="st165" d="M150.2,149.4c4.5-0.6,9.2-0.7,13.2-3.1c0,2.6,0,5.1-0.1,7.7c-5.8,0-11.7,0.3-17.5-0.1l0.2-0.9
		C147.1,151.4,148.1,149.4,150.2,149.4z"/>
</g>
<g id="_x23_9d62ffff">
	<path class="st166" d="M46.4,158.5c2.4-3.9,4.9-7.8,7.3-11.6c0,0.5,0,1.4,0,1.9c-0.1,4.2-0.6,8.3-0.8,12.5c-3,1.3-6.1,2.2-9.3,2.8
		C44.7,162.2,45.5,160.3,46.4,158.5z"/>
</g>
<g id="_x23_56cbffff">
	<path class="st167" d="M88.1,146.9c6.6,0.8,12.7,3.5,18.4,6.7c-0.2,0.7-0.5,2.2-0.7,2.9c-6.2-0.3-11.6-4.2-17.8-4.5
		C88,150.3,88.1,148.6,88.1,146.9z"/>
</g>
<g id="_x23_8843d7ff">
	<path class="st168" d="M109.6,148.8c0-0.3,0.1-1.1,0.1-1.4c0.6,0.4,1.7,1.3,2.2,1.8c-0.7,10.3-0.3,20.7,0.7,31l0.1,1l-1.1,0.1
		c-1.8-5.9-1.2-12.2-1.4-18.3C110.3,158.3,109.8,153.6,109.6,148.8z"/>
</g>
<g id="_x23_8e38cdff">
	<path class="st169" d="M53,161.2c0.2-4.2,0.6-8.3,0.8-12.5l0,1.1c-0.2,8.9,0.3,17.9,3.1,26.4c0.1,0.4,0.4,1.1,0.5,1.5
		c-3.9,0-7.7,0.3-11.6,0.4c-2.3-0.8-4.5-1.5-6.8-2.2c-0.5-1.2-0.9-2.4-1.1-3.6c0.2-0.4,0.7-1.1,1-1.4c2,2.1,3.9,4.6,6.6,5.8
		c3.1,1.1,6.4,0.5,9.6,0.3C53.8,171.8,52.6,166.6,53,161.2z"/>
</g>
<g id="_x23_481389ff">
	<path class="st170" d="M109.6,148.8c0.2,4.7,0.7,9.4,0.7,14.2c0.1,6.1-0.5,12.3,1.4,18.3c6.8,0.8,13.6,0.4,20.4,0.9
		c-0.8,1.6-0.9,4.5-3.3,4.4c-5.2,0.5-10.4,0.5-15.6,0c-4.4-0.4-5.5-5.6-5.9-9.2c0.2-6.5-0.2-13,0.1-19.5c0.2-1.8,0.2-3.7,0.1-5.5
		C108.2,151.2,108.9,150.1,109.6,148.8z"/>
</g>
<g id="_x23_450e7fff">
	<path class="st171" d="M53.7,149.8c0.7,0,2-0.1,2.6-0.1c1.1,9.7-0.2,21.2,7.3,28.7c4.6,3.6,10.8,3.5,16.3,3.4
		c6.3,0,13-0.7,18.1-4.9c2.2,0.1,4.3,0.2,6.5,0.3c-0.5,1.2-1,2.4-1.7,3.5c-1.9,1.9-4.8,1.1-7,2.3c-7.4,4.9-16.8,4.3-25.2,3.4
		c-6.2-0.6-10.7-5.3-13.8-10.3C54,167.7,53.5,158.7,53.7,149.8z"/>
</g>
<g id="_x23_61c0feff">
	<path class="st172" d="M172.9,151.9c6.3-1.1,12.6-1.1,18.9-0.9c0,0.7-0.1,2.1-0.1,2.8c-0.1,1.1-0.1,2.2-0.2,3.3
		c-6.2-0.9-12.6-1.2-18.8-1C172.8,154.6,172.8,153.3,172.9,151.9z"/>
</g>
<g id="_x23_b97bfcff">
	<path class="st173" d="M42.2,151.7c1.7,0.3,3.4,0.6,5.1,1c-0.7,1.3-1.3,2.6-2,4c-1.8,3-3.8,5.9-6.1,8.5c-0.1-1.6-0.2-3.3-0.2-4.9
		C40.1,157.5,41.4,154.7,42.2,151.7z"/>
</g>
<g id="_x23_34bbffff">
	<path class="st174" d="M88,152c6.3,0.4,11.6,4.2,17.8,4.5c-0.3,1.3-0.5,2.6-0.8,4c-5.9,0.7-11.5-1.6-17.2-2.5
		C87.9,156,87.9,154,88,152z"/>
</g>
<g id="_x23_7212ebff">
	<path class="st175" d="M107.4,151.4l0.1,1c0.1,1.8,0.1,3.7-0.1,5.5c-1.8,6.9-3.9,14.1-9.3,19c-5,4.1-11.8,4.8-18.1,4.9
		c-5.6,0-11.7,0.2-16.3-3.4c0.8,0,2.3-0.1,3-0.1c8.4,0.7,17.2,2.2,25.4-1c7-2.8,11.5-9.7,13-16.8c0.3-1.3,0.5-2.6,0.8-4
		c0.2-0.7,0.5-2.2,0.7-2.9C106.8,153.1,107.2,152,107.4,151.4z"/>
</g>
<g id="_x23_ee26ffff">
	<path class="st176" d="M167.6,153.7c1.3,9,0.3,18,0.7,27.1l-0.8-0.3c-0.5-7.7,0-15.3-0.3-23C167.3,156.5,167.5,154.7,167.6,153.7z"
		/>
	<path class="st176" d="M150.6,185.3c2-0.6,4.2-0.2,6.3-0.1c-0.3,2.6-0.1,5.6-2.4,7.3c-5.3,4.4-10,9.5-15.7,13.4
		c0.1-0.5,0.2-1.4,0.3-1.9c2.7-5.2,5.5-10.4,8.6-15.4C148.6,187.5,149.5,186.2,150.6,185.3z"/>
</g>
<g id="_x23_b25656ff">
	<path class="st177" d="M32.8,160.4c2.2-1.1,3.6-3,4-5.4c0,0.5,0.1,1.6,0.2,2.1c0.3,3.4,0.4,6.8,0.4,10.2c-1.6,1.1-3.2,2.2-4.8,3.3
		C32.7,167.2,32.8,163.8,32.8,160.4z"/>
</g>
<g id="_x23_30d4ffff">
	<path class="st178" d="M115.8,155.8c8.7-0.6,17.4,0.2,25.8,2.6c6.5,2,13.3,1.9,20,1.1c0.3,1.1,0.7,2.1,1,3.2c-0.3,2.3-0.6,4.7-1,7
		c-3.9,0.3-7.8,0-11.7-0.3c-2.9-0.3-5.2,1.6-7.5,2.9c-2.4-2.4-4.5-5.2-7.1-7.5c-0.7-0.7-1.5-1.2-2.3-1.8c-4.8-3.6-10.7-4.4-16.6-3.8
		c-0.5,3.9-0.9,7.9-0.8,11.9C115.3,166.1,115,160.9,115.8,155.8z"/>
</g>
<g id="_x23_e19ad5ff">
	<path class="st179" d="M37,157.1c0.5-0.3,1.5-0.9,2-1.2c0,1.5,0,3,0,4.5c0,1.6,0.1,3.2,0.2,4.9c2.3-2.7,4.4-5.5,6.1-8.5
		c0.3,0.4,0.8,1.3,1,1.8c-0.9,1.9-1.8,3.7-2.7,5.5c-1.5,2.3-3.3,4.5-4.9,6.8c-0.2,0.4-0.7,1.1-1,1.4c-0.2-1.7-0.4-3.3-0.4-5
		C37.4,163.9,37.3,160.5,37,157.1z"/>
</g>
<g id="_x23_3cb6fdff">
	<path class="st180" d="M172.8,156c6.3-0.1,12.6,0.1,18.8,1c-0.1,2-0.1,4-0.1,6c-6.3-0.6-12.6-1-18.9-1
		C172.6,160,172.7,158,172.8,156z"/>
</g>
<g id="_x23_8740a0ff">
	<path class="st181" d="M107.4,157.9c-0.3,6.5,0.1,13-0.1,19.5c-0.7,0-2-0.1-2.7-0.1c-2.2-0.1-4.3-0.2-6.5-0.3
		C103.5,172,105.7,164.8,107.4,157.9z"/>
</g>
<g id="_x23_b227e3ff">
	<path class="st182" d="M164.7,157.8c1.1,8.1-0.3,16.2-0.1,24.3c-1.8,1-3.6,2-5.4,2.9l-1.1,0.4c0.2-2.9,3-4,5.3-5.1
		c-0.2-1-0.3-2.1-0.5-3.1c-0.7-4.5-0.4-9.1-0.1-13.6C163.4,161.6,164.1,159.7,164.7,157.8z"/>
</g>
<g id="_x23_17b8ffff">
	<path class="st183" d="M116.4,159.3c5.8-0.6,11.8,0.2,16.6,3.8c0.1,1.6,0.2,3.1,0.3,4.7c0.1,0.7,0.1,2.2,0.2,2.9
		c-0.1,2-0.3,4-0.5,6c-5.6,0.5-11.3,0.8-16.9,0.5c-0.1-2-0.2-4-0.3-5.9C115.5,167.2,115.9,163.2,116.4,159.3z"/>
</g>
<g id="_x23_bd45f9ff">
	<path class="st184" d="M43.7,164c3.2-0.5,6.3-1.4,9.3-2.8c-0.3,5.3,0.9,10.5,2,15.7c-3.2,0.2-6.5,0.8-9.6-0.3
		c-2.7-1.3-4.5-3.7-6.6-5.8C40.4,168.5,42.1,166.3,43.7,164z"/>
	<path class="st184" d="M97.5,183.5c1.1,0.7,2.3,1.4,3.3,2.4c4.3,7.4,9.4,14.2,13.3,21.8c-3-2.3-4.8-5.7-6.8-8.8
		c-2.8-4.4-5.9-8.4-8.9-12.7C98.1,185.3,97.8,184.4,97.5,183.5z"/>
</g>
<g id="_x23_16acfcff">
	<path class="st185" d="M172.6,162c6.3,0,12.6,0.4,18.9,1c0,4.7,0.2,9.4-0.2,14.1c-4,0.4-8.1,0.6-12.1,0.5c-2.1-0.1-4.3-0.4-6.4-0.6
		C172.4,172.1,172.4,167.1,172.6,162z"/>
</g>
<g id="_x23_48f0ffff">
	<path class="st186" d="M162.6,162.7l0.2,0.9c-0.2,4.5-0.5,9.1,0.1,13.6l-0.7,0.3c-1.9-0.8-3.7-2.6-6-2.2c-4.8,0.5-10.6,1.6-13.9-3
		c2.3-1.3,4.7-3.3,7.5-2.9c3.9,0.3,7.8,0.6,11.7,0.3C161.9,167.3,162.3,165,162.6,162.7z"/>
</g>
<g id="_x23_fcfcffff">
	<path class="st187" d="M142.5,177.4c-1.1-4.9-5.6-7.9-7.2-12.6c2.6,2.3,4.7,5.1,7.1,7.5c3.3,4.6,9.1,3.5,13.9,3
		c2.2-0.4,4.1,1.3,6,2.2C156.2,180.5,148.4,181.1,142.5,177.4z"/>
</g>
<g id="_x23_fff22eff">
	<path class="st188" d="M17.6,169.4c4.4-0.4,8.7-1.3,12.7-3.2c0,4.1,0.1,8.5,2.3,12.1c2.4,4.2,6.6,6.7,10.7,9
		c-1.6,3.3-3.2,6.6-4.8,9.9c0.8,1,1.5,1.9,2.3,2.9C32,196.3,23.9,190,20,181C18.6,177.3,18.4,173.3,17.6,169.4z"/>
</g>
<g id="_x23_de5371ff">
	<path class="st189" d="M32.6,170.6c1.6-1.1,3.2-2.2,4.8-3.3c0,1.7,0.2,3.3,0.4,5c0.2,1.2,0.7,2.4,1.1,3.6c1.3,1.4,2.8,2.7,4.3,3.9
		c1.1,2.1,2,4.3,2.8,6.5c-5.9-2.9-12.2-7-13.5-13.9C32.6,171.9,32.6,171,32.6,170.6z"/>
</g>
<g id="_x23_a11bffff">
	<path class="st190" d="M133.3,167.8c1.1,1.3,2.3,2.7,3.4,4c-0.3,0.5-0.8,1.5-1.1,2c-0.5,2.2-0.5,4.4-0.5,6.6
		c-7.3,2.1-14.9-0.3-22.3,0.8l-0.1-1c5.5-0.2,11.2,0,16.6-1.1c1.5-0.3,3.1-0.7,4.6-1.1c-0.1-2.4-0.3-4.8-0.4-7.3
		C133.4,169.9,133.3,168.5,133.3,167.8z"/>
	<path class="st190" d="M157,185.2c0.3,0,0.9,0.1,1.2,0.2c3.3,1.4,6.8,2.7,9.6,5.1c0.5,1.5,0.2,3.2-1.1,4.2
		c-4.7,4.3-10.8,6.4-16.7,8.4c-5.4,1.7-9.4,5.8-14.1,8.9c0-0.5-0.1-1.5-0.1-2l0.3-0.8c0.9-1.7,2-3.3,3.1-5c-0.1,0.5-0.2,1.4-0.3,1.9
		c5.7-3.9,10.4-9,15.7-13.4C156.9,190.8,156.7,187.8,157,185.2z"/>
</g>
<g id="_x23_582264ff">
	<path class="st191" d="M212.4,168.9c1.7-0.2,3.4-0.4,5.1-0.5c0.3,2.2,0.7,4.5,0.9,6.8c-1,2.5-2.6,4.8-4.5,6.8
		c-8.2,4.9-16.6,9.6-25,14.2c-1.2-0.5-2.2-1.8-3.6-1.5c-3.6,0.7-7.1,2.1-10.5,3.3c3.7-2.3,7.1-5,10.5-7.9
		c7.2-4.5,15.6-6.4,22.5-11.3C211,176.5,211.5,172.4,212.4,168.9z"/>
</g>
<g id="_x23_441382ff">
	<path class="st192" d="M205.3,176.5c2.9-2,4.9-4.9,7.1-7.6c-0.9,3.5-1.4,7.6-4.7,9.8c-6.9,4.9-15.3,6.9-22.5,11.3
		c-0.9,0.3-1.9,0.6-2.8,0.9c-1.3-1.5-2.3-3.4-4.4-3.9c-3.9-1.2-7.9-2.2-11.3-4.6c8.4-1,17,0.3,25.2-1.6
		C195.5,177.4,200.8,177.8,205.3,176.5z"/>
</g>
<g id="_x23_fe2dffff">
	<path class="st193" d="M135.6,173.7c0.3-0.5,0.8-1.5,1.1-2c1.8,2,3.7,4,5.8,5.7c5.9,3.6,13.7,3.1,19.8,0.1l0.7-0.3
		c0.2,1,0.3,2.1,0.5,3.1c-2.3,1.1-5.1,2.1-5.3,5.1c-0.3,0-0.9-0.1-1.2-0.2c-2.1-0.1-4.3-0.5-6.3,0.1c-1.2,1-2,2.2-2.9,3.4
		c-0.1-1-0.2-2.1-0.2-3.1C143.3,181.9,139.2,178,135.6,173.7z"/>
</g>
<g id="_x23_9112b3ff">
	<path class="st194" d="M135.1,180.4c0-2.2,0-4.5,0.5-6.6c3.6,4.3,7.7,8.2,11.9,11.8c-1.7,0.6-3.5,1.1-5.3,1.3
		c-0.8-0.8-1.6-1.5-2.4-2.2C138.2,183.2,136.7,181.8,135.1,180.4z"/>
</g>
<g id="_x23_6d18ccff">
	<path class="st195" d="M45.8,178.1c3.9-0.1,7.7-0.4,11.6-0.4c0.4,1.9,1.6,4.1,0.6,6.1C53.4,183.1,49.5,180.6,45.8,178.1z"/>
</g>
<g id="_x23_9c3e6aff">
	<path class="st196" d="M43.2,179.8c3.8,2,7.6,3.8,11.3,5.9c0.2,1.9,0.3,3.8,0.5,5.8c-3-1.6-6-3.4-8.9-5.1
		C45.2,184.1,44.3,181.9,43.2,179.8z"/>
</g>
<g id="_x23_8a16fcff">
	<path class="st197" d="M147.5,185.6c0.1,1,0.2,2.1,0.2,3.1c-3.1,5-5.8,10.2-8.6,15.4c-0.2-3.2,1.1-8.2-2.9-9.6
		c-3.5-1-6.8,1.6-9.9,2.7c0.2-1.7,0.4-3.4,0.6-5c4.3-3.5,9.4-6.5,15.2-5.2C144,186.7,145.8,186.2,147.5,185.6z"/>
</g>
<g id="_x23_7d19e9ff">
	<path class="st198" d="M158.2,185.4l1.1-0.4c5.7,1.1,11.6,2.4,16.3,5.9c-5.9,6.5-14,10-21.6,14.1c-6.5,2.8-13,5.8-18.1,10.7
		c-0.5-0.5-1.4-1.4-1.9-1.9c0.6-1.3,1.3-2.6,1.9-3.9c0,0.5,0.1,1.5,0.1,2c4.6-3,8.6-7.2,14.1-8.9c5.9-2,12-4.1,16.7-8.4
		c1.3-1,1.6-2.7,1.1-4.2C165,188.1,161.5,186.7,158.2,185.4z"/>
</g>
<g id="_x23_642b64ff">
	<path class="st199" d="M54.5,185.7c7.3,4,14.6,7.9,22,11.8c7.1,4.7,15.1,8,21.9,13.2c-5.4-1.9-10.3-5.1-15.9-6.3
		c0.1,0.8,0.2,2.3,0.3,3c-9.4-5.1-18.6-10.6-27.8-16C54.8,189.5,54.7,187.6,54.5,185.7z"/>
</g>
<g id="_x23_ffda1fff">
	<path class="st200" d="M38.5,197.2c1.6-3.3,3.2-6.6,4.8-9.9c4.2,2.3,8.5,4.5,12.6,6.9c-4,2.2-6.2,6.4-6.9,10.8
		c-2.9-1.5-5.9-2.9-8.3-5C40,199.1,39.3,198.2,38.5,197.2z"/>
</g>
<g id="_x23_6e2f8dff">
	<path class="st201" d="M182.4,190.9c0.9-0.3,1.9-0.6,2.8-0.9c-3.3,2.9-6.7,5.6-10.5,7.9c-7.6,3.8-14.3,9.7-22.8,11.3
		C161.4,202,172,196.6,182.4,190.9z"/>
</g>
<g id="_x23_fdb20dff">
	<path class="st202" d="M202.5,191.6c5.6-1.3,11.3,0.1,16.9,0.6c0,0.5,0.1,1.6,0.1,2.1c-25.9,14.9-52,29.5-77.9,44.4
		c-6.8,4-15,6.2-22.8,4.3c-6.7-1.3-12.3-5.5-18.3-8.6c-7.5-4.6-15.5-8.4-22.7-13.2c-1.3-1.1-2.5-2.3-3.7-3.5c2.5-3,5.3-5.7,8.2-8.3
		c11.1,6.3,22.2,12.6,33.4,18.9c4.2,2.5,9.5,3.2,14.3,1.8c5.7-2.1,11-5.3,15.9-9c0.5-0.3,1.4-0.8,1.9-1.1c2.3-1,4.6-2.1,6.8-3.3
		c13.6-7.8,27.2-15.6,40.9-23.1C197.9,192.8,200.2,192.1,202.5,191.6z"/>
</g>
<g id="_x23_471072ff">
	<path class="st203" d="M185.3,194.6c1.4-0.3,2.4,1,3.6,1.5c-13.6,8.1-27.7,15.4-41.1,23.7c-0.5,0.3-1.4,0.8-1.9,1.1
		c-4.7,2.3-9.1,5.2-13.8,7.4c-5.1,2.4-11.1,1.3-15.7-1.6c-11.2-6.4-22.5-12.8-33.7-19.2c-0.1-0.8-0.2-2.3-0.3-3
		c5.6,1.2,10.5,4.5,15.9,6.3c6.3,4.2,13.1,7.6,19.8,11.1c1.6,1.1,3.3,0.5,4.9-0.2c4.7-1.5,9.8-1.6,14-4.3c4.8-3,9.7-5.8,14.8-8.1
		c8.6-1.6,15.2-7.5,22.8-11.3C178.2,196.7,181.7,195.4,185.3,194.6z"/>
</g>
<g id="_x23_ffbb15ff">
	<path class="st204" d="M49.1,205.1c0.6-4.5,2.8-8.6,6.9-10.8c8.8,4.9,17.8,9.8,26.4,15c-2.9,2.6-5.7,5.4-8.2,8.3
		c1.2,1.2,2.4,2.4,3.7,3.5C68.1,216.2,58.7,210.6,49.1,205.1z"/>
</g>
<g id="_x23_903ba7ff">
	<path class="st205" d="M76.5,197.5c1.5-0.4,3-0.8,4.5-0.7c9.2,4.7,18.2,9.7,26.9,15.2c3.9,4.8,9.4,7.9,15.3,9.5
		c-1.6,0.7-3.3,1.3-4.9,0.2c-6.7-3.5-13.5-6.9-19.8-11.1C91.6,205.5,83.6,202.2,76.5,197.5z"/>
</g>
<g id="_x23_6815d9ff">
	<path class="st206" d="M119.9,211.9c3.1-4.9,7-9.4,11.3-13.3c1.5,0.9,3,1.8,4.4,3c0.9,2.4,0.7,5,0.6,7.5l-0.3,0.8
		c-0.6,1.3-1.2,2.6-1.9,3.9c0.5,0.5,1.4,1.4,1.9,1.9c-5.4,0.5-10.8-0.6-16.1,0.9C119.7,215,118.8,213.2,119.9,211.9z"/>
</g>
</svg>
