<?xml version="1.0" encoding="UTF-8" ?>
<!DOCTYPE svg PUBLIC "-//W3C//DTD SVG 1.1//EN" "http://www.w3.org/Graphics/SVG/1.1/DTD/svg11.dtd">
<svg width="250pt" height="250pt" viewBox="0 0 250 250" version="1.1" xmlns="http://www.w3.org/2000/svg">
<g id="#ffffffff">
<path fill="#ffffff" opacity="1.00" d=" M 0.00 0.00 L 250.00 0.00 L 250.00 250.00 L 0.00 250.00 L 0.00 0.00 M 108.29 11.32 C 98.32 17.12 88.04 22.38 78.03 28.11 C 67.07 34.61 55.66 40.29 44.72 46.82 C 38.16 50.78 30.66 53.61 25.49 59.49 C 22.07 63.39 19.10 68.13 19.09 73.48 C 17.49 77.79 17.52 82.47 17.51 87.00 C 17.59 94.11 17.41 101.22 17.63 108.32 C 17.50 128.70 17.43 149.08 17.64 169.45 C 18.36 173.30 18.56 177.28 20.00 180.96 C 23.86 189.97 31.96 196.32 40.80 200.08 C 43.24 202.26 46.27 203.59 49.14 205.11 C 58.66 210.55 68.07 216.25 77.93 221.09 C 85.18 225.98 93.16 229.77 100.65 234.33 C 106.59 237.49 112.20 241.67 118.93 242.95 C 126.72 244.90 134.95 242.70 141.71 238.68 C 167.62 223.81 193.70 209.24 219.59 194.32 C 225.36 189.74 230.22 183.41 231.34 175.96 C 233.52 163.81 232.10 151.37 232.41 139.09 C 232.55 125.45 232.48 111.82 232.41 98.18 C 232.53 93.13 232.46 88.09 232.44 83.04 C 232.05 79.26 231.52 75.50 231.21 71.72 C 229.96 67.98 228.39 64.26 225.74 61.28 C 219.50 53.50 210.07 49.59 201.64 44.76 C 180.67 32.82 159.47 21.29 138.41 9.52 C 128.99 4.77 117.11 5.56 108.29 11.32 Z" />
<path fill="#ffffff" opacity="1.00" d=" M 31.48 72.92 C 31.54 73.57 31.66 74.86 31.72 75.50 C 31.31 78.98 31.16 82.49 31.18 85.99 C 31.28 110.01 31.03 134.03 31.31 158.05 C 31.33 162.85 31.27 167.71 32.55 172.38 C 33.83 179.32 40.14 183.44 46.03 186.31 C 48.99 188.03 51.92 189.82 54.95 191.45 C 64.17 196.84 73.34 202.33 82.74 207.41 C 93.98 213.83 105.21 220.25 116.45 226.66 C 121.09 229.52 127.07 230.61 132.15 228.26 C 136.88 226.05 141.28 223.22 145.95 220.90 C 141.07 224.54 135.78 227.74 130.08 229.88 C 125.34 231.35 120.05 230.65 115.80 228.10 C 104.69 221.80 93.56 215.54 82.44 209.25 C 73.75 204.04 64.85 199.21 56.00 194.27 C 51.83 191.88 47.57 189.67 43.36 187.36 C 39.30 185.07 35.07 182.54 32.69 178.37 C 30.44 174.76 30.32 170.37 30.35 166.24 C 30.39 152.93 30.75 139.61 30.26 126.31 C 30.79 111.20 30.32 96.07 30.49 80.96 C 30.54 78.25 31.01 75.58 31.48 72.92 Z" />
<path fill="#ffffff" opacity="1.00" d=" M 197.41 145.08 C 198.03 145.84 198.66 146.61 199.26 147.40 C 201.95 150.93 203.75 155.00 205.57 159.01 C 203.58 156.09 201.43 153.28 199.34 150.43 C 198.69 149.52 198.04 148.60 197.44 147.66 L 197.41 146.87 C 197.41 146.42 197.41 145.52 197.41 145.08 Z" />
<path fill="#ffffff" opacity="1.00" d=" M 188.88 196.13 C 197.28 191.51 205.64 186.81 213.87 181.91 C 208.55 186.88 201.46 189.29 195.57 193.48 C 181.83 201.00 168.23 208.77 154.63 216.55 C 152.42 217.78 150.11 218.82 147.80 219.83 C 161.23 211.50 175.32 204.26 188.88 196.13 Z" />
</g>
<g id="#ffdf47ff">
<path fill="#ffdf47" opacity="1.00" d=" M 108.29 11.32 C 117.11 5.56 128.99 4.77 138.41 9.52 C 159.47 21.29 180.67 32.82 201.64 44.76 C 201.62 50.02 200.10 55.91 203.61 60.46 C 199.50 58.20 195.32 56.08 191.26 53.74 C 185.45 50.23 179.59 46.80 173.52 43.76 C 160.57 36.17 147.31 29.12 134.21 21.80 C 129.33 18.90 123.11 18.28 118.06 21.16 C 95.37 33.74 72.71 46.39 50.01 58.95 C 45.39 61.55 40.37 63.76 36.71 67.72 C 35.05 69.93 33.60 72.29 32.21 74.67 L 31.72 75.50 C 31.66 74.86 31.54 73.57 31.48 72.92 C 31.83 70.24 32.29 67.58 32.74 64.92 C 30.11 65.08 27.26 64.62 24.79 65.71 C 22.56 68.03 20.90 70.83 19.09 73.48 C 19.10 68.13 22.07 63.39 25.49 59.49 C 30.66 53.61 38.16 50.78 44.72 46.82 C 55.66 40.29 67.07 34.61 78.03 28.11 C 88.04 22.38 98.32 17.12 108.29 11.32 Z" />
</g>
<g id="#f1b70bff">
<path fill="#f1b70b" opacity="1.00" d=" M 118.06 21.16 C 123.11 18.28 129.33 18.90 134.21 21.80 C 147.31 29.12 160.57 36.17 173.52 43.76 C 168.59 45.51 163.57 43.59 158.72 42.57 C 149.89 37.80 141.30 32.60 132.43 27.91 C 127.38 23.96 120.73 25.19 115.88 28.77 C 96.92 39.56 77.76 50.00 58.96 61.06 C 57.63 61.60 56.31 62.14 54.99 62.68 C 48.75 63.98 43.33 68.27 36.71 67.72 C 40.37 63.76 45.39 61.55 50.01 58.95 C 72.71 46.39 95.37 33.74 118.06 21.16 Z" />
</g>
<g id="#6d738eff">
<path fill="#6d738e" opacity="1.00" d=" M 115.88 28.77 C 120.73 25.19 127.38 23.96 132.43 27.91 C 132.01 27.98 131.17 28.13 130.75 28.20 C 126.47 28.62 122.13 28.34 117.93 29.42 C 117.42 29.26 116.39 28.93 115.88 28.77 Z" />
</g>
<g id="#8e9cc9ff">
<path fill="#8e9cc9" opacity="1.00" d=" M 117.93 29.42 C 122.13 28.34 126.47 28.62 130.75 28.20 C 131.53 29.81 132.33 31.41 133.13 33.01 C 129.94 32.38 126.70 31.56 123.43 31.77 C 120.21 32.32 117.44 34.23 114.66 35.84 C 115.05 34.80 115.45 33.77 115.85 32.74 C 116.54 31.63 117.24 30.53 117.93 29.42 Z" />
</g>
<g id="#2b49a2ff">
<path fill="#2b49a2" opacity="1.00" d=" M 130.75 28.20 C 131.17 28.13 132.01 27.98 132.43 27.91 C 141.30 32.60 149.89 37.80 158.72 42.57 C 169.48 49.16 180.77 54.86 191.76 61.08 C 195.66 63.21 199.45 65.53 203.29 67.76 C 190.03 64.01 178.51 56.07 166.39 49.78 C 159.19 45.38 151.38 42.12 144.09 37.89 C 140.86 36.02 137.54 34.23 133.93 33.22 L 133.13 33.01 C 132.33 31.41 131.53 29.81 130.75 28.20 Z" />
</g>
<g id="#2849afff">
<path fill="#2849af" opacity="1.00" d=" M 58.96 61.06 C 77.76 50.00 96.92 39.56 115.88 28.77 C 116.39 28.93 117.42 29.26 117.93 29.42 C 117.24 30.53 116.54 31.63 115.85 32.74 C 107.39 37.72 98.76 42.39 90.11 47.03 C 79.28 50.73 70.31 58.73 58.96 61.06 Z" />
</g>
<g id="#a6ccfeff">
<path fill="#a6ccfe" opacity="1.00" d=" M 123.43 31.77 C 126.70 31.56 129.94 32.38 133.13 33.01 L 133.93 33.22 C 134.91 35.45 135.92 37.67 136.91 39.90 C 138.72 44.03 140.38 48.23 142.38 52.28 L 142.81 53.10 C 140.42 54.26 137.89 55.08 135.28 55.57 C 130.81 56.46 126.70 58.61 122.16 59.20 C 118.89 59.66 115.56 60.22 112.70 61.97 C 110.16 60.01 108.61 57.15 108.50 53.92 C 110.08 49.90 112.07 46.06 113.86 42.15 C 112.88 42.35 111.91 42.55 110.93 42.76 L 111.26 41.98 C 112.41 39.94 113.56 37.91 114.66 35.84 C 117.44 34.23 120.21 32.32 123.43 31.77 Z" />
</g>
<g id="#356df3ff">
<path fill="#356df3" opacity="1.00" d=" M 90.11 47.03 C 98.76 42.39 107.39 37.72 115.85 32.74 C 115.45 33.77 115.05 34.80 114.66 35.84 C 113.56 37.91 112.41 39.94 111.26 41.98 C 108.22 44.86 105.49 48.04 102.97 51.38 C 96.90 51.97 90.78 50.41 84.75 51.68 C 86.63 50.24 88.32 48.58 90.11 47.03 Z" />
</g>
<g id="#3b6ddeff">
<path fill="#3b6dde" opacity="1.00" d=" M 133.93 33.22 C 137.54 34.23 140.86 36.02 144.09 37.89 C 151.38 42.12 159.19 45.38 166.39 49.78 C 165.94 50.01 165.04 50.46 164.59 50.69 C 155.81 45.96 145.83 44.29 136.91 39.90 C 135.92 37.67 134.91 35.45 133.93 33.22 Z" />
</g>
<g id="#4f8ffdff">
<path fill="#4f8ffd" opacity="1.00" d=" M 136.91 39.90 C 145.83 44.29 155.81 45.96 164.59 50.69 C 165.49 51.42 166.40 52.14 167.31 52.87 C 165.14 52.85 162.98 52.91 160.82 52.94 C 154.67 52.69 148.27 54.92 142.38 52.28 C 140.38 48.23 138.72 44.03 136.91 39.90 Z" />
<path fill="#4f8ffd" opacity="1.00" d=" M 169.53 148.00 C 169.69 142.33 168.61 136.40 170.82 130.99 C 171.34 146.50 171.34 162.03 171.22 177.55 C 173.88 177.57 176.54 177.61 179.20 177.66 C 183.24 177.81 187.29 177.57 191.31 177.18 C 191.14 177.58 190.79 178.38 190.62 178.78 C 183.73 179.83 176.73 179.49 169.80 179.12 C 169.12 168.76 169.74 158.37 169.53 148.00 Z" />
</g>
<g id="#54b8ffff">
<path fill="#54b8ff" opacity="1.00" d=" M 102.97 51.38 C 105.49 48.04 108.22 44.86 111.26 41.98 L 110.93 42.76 C 108.37 49.50 104.42 55.64 100.16 61.42 C 99.12 61.70 98.07 61.97 97.03 62.25 C 96.27 61.29 95.50 60.33 94.74 59.37 C 97.65 56.89 100.53 54.33 102.97 51.38 Z" />
</g>
<g id="#eef9ffff">
<path fill="#eef9ff" opacity="1.00" d=" M 110.93 42.76 C 111.91 42.55 112.88 42.35 113.86 42.15 C 112.07 46.06 110.08 49.90 108.50 53.92 C 106.24 58.88 105.62 64.56 107.96 69.63 C 106.97 69.68 105.97 69.73 104.98 69.78 C 104.44 69.83 103.36 69.93 102.82 69.98 C 101.42 70.67 100.09 71.49 98.86 72.44 C 98.57 72.82 97.98 73.58 97.69 73.96 C 97.15 74.67 96.61 75.39 96.07 76.11 C 94.77 74.56 93.49 73.00 92.08 71.56 C 93.90 69.44 95.59 67.23 97.28 65.01 C 98.22 63.80 99.21 62.63 100.16 61.42 C 104.42 55.64 108.37 49.50 110.93 42.76 Z" />
</g>
<g id="#dea219ff">
<path fill="#dea219" opacity="1.00" d=" M 158.72 42.57 C 163.57 43.59 168.59 45.51 173.52 43.76 C 179.59 46.80 185.45 50.23 191.26 53.74 C 191.41 56.19 191.58 58.63 191.76 61.08 C 180.77 54.86 169.48 49.16 158.72 42.57 Z" />
</g>
<g id="#fff559ff">
<path fill="#fff559" opacity="1.00" d=" M 201.64 44.76 C 210.07 49.59 219.50 53.50 225.74 61.28 C 228.39 64.26 229.96 67.98 231.21 71.72 C 226.81 71.23 222.37 71.23 218.01 71.99 C 214.34 66.91 209.09 63.33 203.61 60.46 C 200.10 55.91 201.62 50.02 201.64 44.76 Z" />
</g>
<g id="#607bb9ff">
<path fill="#607bb9" opacity="1.00" d=" M 58.96 61.06 C 70.31 58.73 79.28 50.73 90.11 47.03 C 88.32 48.58 86.63 50.24 84.75 51.68 C 72.90 58.63 60.38 64.41 48.76 71.76 C 47.75 72.40 46.75 73.06 45.78 73.77 C 45.44 74.08 44.75 74.71 44.41 75.03 C 42.50 74.54 40.59 74.06 38.68 73.60 L 38.95 72.84 C 43.64 68.52 49.82 66.34 54.99 62.68 C 56.31 62.14 57.63 61.60 58.96 61.06 Z" />
</g>
<g id="#6871d4ff">
<path fill="#6871d4" opacity="1.00" d=" M 164.59 50.69 C 165.04 50.46 165.94 50.01 166.39 49.78 C 178.51 56.07 190.03 64.01 203.29 67.76 C 204.63 68.40 205.98 69.05 207.29 69.79 C 207.31 70.33 207.36 71.40 207.38 71.94 C 203.43 71.72 199.06 70.99 195.62 73.47 L 194.80 73.89 C 194.53 72.24 194.16 70.61 193.62 69.04 C 193.27 68.79 192.57 68.30 192.23 68.05 C 184.47 62.15 175.79 57.62 167.31 52.87 C 166.40 52.14 165.49 51.42 164.59 50.69 Z" />
</g>
<g id="#6086fdff">
<path fill="#6086fd" opacity="1.00" d=" M 84.75 51.68 C 90.78 50.41 96.90 51.97 102.97 51.38 C 100.53 54.33 97.65 56.89 94.74 59.37 C 90.37 59.00 85.88 58.47 81.58 59.60 C 78.43 60.41 75.82 62.43 73.09 64.10 C 69.12 66.71 64.09 66.61 60.00 68.98 C 56.59 70.99 52.69 71.82 48.76 71.76 C 60.38 64.41 72.90 58.63 84.75 51.68 Z" />
</g>
<g id="#65b5ffff">
<path fill="#65b5ff" opacity="1.00" d=" M 142.38 52.28 C 148.27 54.92 154.67 52.69 160.82 52.94 C 165.86 55.29 170.30 58.92 173.67 63.35 C 175.04 64.99 174.51 67.27 174.58 69.23 C 173.04 70.44 171.63 71.81 170.39 73.32 L 170.50 72.50 C 170.82 69.22 170.81 65.31 167.66 63.32 C 161.87 57.75 153.36 62.52 146.63 59.27 L 146.16 58.57 C 144.98 56.78 143.85 54.97 142.81 53.10 L 142.38 52.28 Z" />
<path fill="#65b5ff" opacity="1.00" d=" M 132.96 163.03 C 133.77 163.59 134.57 164.16 135.30 164.82 C 136.92 169.50 141.36 172.54 142.50 177.41 C 140.38 175.72 138.47 173.78 136.69 171.75 C 135.54 170.43 134.42 169.08 133.27 167.76 C 133.16 166.18 133.06 164.60 132.96 163.03 Z" />
</g>
<g id="#9cd5ffff">
<path fill="#9cd5ff" opacity="1.00" d=" M 142.81 53.10 C 143.85 54.97 144.98 56.78 146.16 58.57 C 142.69 59.03 139.10 59.32 135.92 60.90 C 133.09 62.27 130.92 64.60 128.76 66.82 C 131.62 67.59 134.49 68.33 137.42 68.80 C 128.26 68.57 119.11 68.85 109.98 69.50 C 112.35 67.67 112.99 64.83 112.70 61.97 C 115.56 60.22 118.89 59.66 122.16 59.20 C 126.70 58.61 130.81 56.46 135.28 55.57 C 137.89 55.08 140.42 54.26 142.81 53.10 Z" />
</g>
<g id="#6f90faff">
<path fill="#6f90fa" opacity="1.00" d=" M 160.82 52.94 C 162.98 52.91 165.14 52.85 167.31 52.87 C 175.79 57.62 184.47 62.15 192.23 68.05 C 186.54 68.28 180.80 68.04 175.16 68.91 L 174.58 69.23 C 174.51 67.27 175.04 64.99 173.67 63.35 C 170.30 58.92 165.86 55.29 160.82 52.94 Z" />
</g>
<g id="#bae6ffff">
<path fill="#bae6ff" opacity="1.00" d=" M 107.96 69.63 C 105.62 64.56 106.24 58.88 108.50 53.92 C 108.61 57.15 110.16 60.01 112.70 61.97 C 112.99 64.83 112.35 67.67 109.98 69.50 C 109.47 69.54 108.47 69.60 107.96 69.63 Z" />
</g>
<g id="#f1a22eff">
<path fill="#f1a22e" opacity="1.00" d=" M 191.26 53.74 C 195.32 56.08 199.50 58.20 203.61 60.46 C 209.09 63.33 214.34 66.91 218.01 71.99 C 219.19 75.62 219.78 79.43 219.92 83.24 C 220.00 86.89 219.76 90.54 219.73 94.19 C 219.49 91.29 218.98 88.43 218.49 85.57 C 216.97 85.31 215.45 85.05 213.94 84.79 C 214.02 79.16 213.46 72.05 207.29 69.79 C 205.98 69.05 204.63 68.40 203.29 67.76 C 199.45 65.53 195.66 63.21 191.76 61.08 C 191.58 58.63 191.41 56.19 191.26 53.74 Z" />
<path fill="#f1a22e" opacity="1.00" d=" M 101.85 92.25 C 102.98 85.15 100.54 77.88 102.58 70.91 C 102.70 75.30 103.29 79.65 103.51 84.03 C 104.10 95.54 103.34 107.15 105.36 118.54 C 114.73 118.98 124.12 118.74 133.49 119.19 C 132.08 119.55 130.67 119.88 129.25 120.20 C 120.74 120.21 112.23 120.14 103.72 120.17 C 102.95 115.29 102.40 110.37 102.22 105.43 C 102.41 101.03 102.46 96.61 101.85 92.25 Z" />
</g>
<g id="#729afdff">
<path fill="#729afd" opacity="1.00" d=" M 81.58 59.60 C 85.88 58.47 90.37 59.00 94.74 59.37 C 95.50 60.33 96.27 61.29 97.03 62.25 C 98.07 61.97 99.12 61.70 100.16 61.42 C 99.21 62.63 98.22 63.80 97.28 65.01 C 93.20 65.28 89.50 67.04 85.77 68.53 C 82.75 68.41 79.72 68.28 76.70 68.37 C 73.04 68.44 69.39 69.32 66.17 71.09 C 63.70 72.38 61.34 73.92 59.30 75.82 C 54.86 74.76 50.33 74.16 45.78 73.77 C 46.75 73.06 47.75 72.40 48.76 71.76 C 52.69 71.82 56.59 70.99 60.00 68.98 C 64.09 66.61 69.12 66.71 73.09 64.10 C 75.82 62.43 78.43 60.41 81.58 59.60 Z" />
</g>
<g id="#99efffff">
<path fill="#99efff" opacity="1.00" d=" M 135.92 60.90 C 139.10 59.32 142.69 59.03 146.16 58.57 L 146.63 59.27 C 147.92 61.22 149.08 63.25 150.33 65.23 C 147.25 67.51 143.55 68.73 139.72 68.79 C 139.15 68.79 137.99 68.80 137.42 68.80 C 134.49 68.33 131.62 67.59 128.76 66.82 C 130.92 64.60 133.09 62.27 135.92 60.90 Z" />
</g>
<g id="#75daffff">
<path fill="#75daff" opacity="1.00" d=" M 146.63 59.27 C 153.36 62.52 161.87 57.75 167.66 63.32 C 170.81 65.31 170.82 69.22 170.50 72.50 C 167.17 72.35 163.36 72.70 160.89 70.00 C 158.00 67.18 153.70 67.18 150.33 65.23 C 149.08 63.25 147.92 61.22 146.63 59.27 Z" />
</g>
<g id="#d99f18ff">
<path fill="#d99f18" opacity="1.00" d=" M 36.71 67.72 C 43.33 68.27 48.75 63.98 54.99 62.68 C 49.82 66.34 43.64 68.52 38.95 72.84 C 37.69 74.43 36.55 76.22 36.38 78.30 C 35.78 84.17 36.23 90.08 36.18 95.97 C 35.31 95.97 33.56 95.98 32.69 95.99 C 32.58 88.88 32.88 81.76 32.21 74.67 C 33.60 72.29 35.05 69.93 36.71 67.72 Z" />
</g>
<g id="#ffd63bff">
<path fill="#ffd63b" opacity="1.00" d=" M 24.79 65.71 C 27.26 64.62 30.11 65.08 32.74 64.92 C 32.29 67.58 31.83 70.24 31.48 72.92 C 31.01 75.58 30.54 78.25 30.49 80.96 C 30.32 96.07 30.79 111.20 30.26 126.31 C 28.67 119.88 28.82 113.17 27.03 106.78 C 23.92 107.42 20.78 107.91 17.63 108.32 C 17.41 101.22 17.59 94.11 17.51 87.00 C 17.52 82.47 17.49 77.79 19.09 73.48 C 20.90 70.83 22.56 68.03 24.79 65.71 Z" />
</g>
<g id="#b0c2faff">
<path fill="#b0c2fa" opacity="1.00" d=" M 85.77 68.53 C 89.50 67.04 93.20 65.28 97.28 65.01 C 95.59 67.23 93.90 69.44 92.08 71.56 C 90.05 70.41 87.93 69.41 85.77 68.53 Z" />
</g>
<g id="#eaeff1ff">
<path fill="#eaeff1" opacity="1.00" d=" M 139.72 68.79 C 143.55 68.73 147.25 67.51 150.33 65.23 C 153.70 67.18 158.00 67.18 160.89 70.00 C 163.36 72.70 167.17 72.35 170.50 72.50 L 170.39 73.32 C 170.13 73.80 169.59 74.74 169.32 75.21 C 167.09 75.68 164.87 76.19 162.66 76.75 C 162.55 76.50 162.31 76.00 162.20 75.76 C 161.13 73.50 160.22 71.12 158.69 69.13 C 156.45 68.60 154.12 68.66 151.83 68.65 C 150.46 68.68 149.10 68.73 147.74 68.79 C 146.21 68.88 144.68 69.00 143.16 69.15 C 142.01 69.27 140.86 69.41 139.71 69.55 L 139.72 68.79 Z" />
</g>
<g id="#ddc2a5ff">
<path fill="#ddc2a5" opacity="1.00" d=" M 175.16 68.91 C 180.80 68.04 186.54 68.28 192.23 68.05 C 192.57 68.30 193.27 68.79 193.62 69.04 L 192.72 69.23 C 187.53 68.96 182.34 68.95 177.16 69.24 C 173.42 74.34 170.81 80.12 168.26 85.87 C 167.11 85.33 165.96 84.78 164.79 84.28 C 165.36 84.41 166.49 84.66 167.05 84.79 C 169.45 79.34 172.19 74.06 175.16 68.91 Z" />
</g>
<g id="#fcd645ff">
<path fill="#fcd645" opacity="1.00" d=" M 66.17 71.09 C 69.39 69.32 73.04 68.44 76.70 68.37 C 78.74 74.41 83.63 78.89 88.91 82.18 C 91.49 84.02 94.71 82.84 97.54 82.46 C 94.44 85.00 90.86 86.88 87.13 88.33 C 82.63 86.73 78.99 83.66 75.43 80.59 C 71.25 77.11 65.47 78.05 60.47 78.34 C 60.60 77.98 60.87 77.26 61.00 76.90 C 62.62 74.88 64.36 72.95 66.17 71.09 Z" />
</g>
<g id="#fdf05aff">
<path fill="#fdf05a" opacity="1.00" d=" M 76.70 68.37 C 79.72 68.28 82.75 68.41 85.77 68.53 C 87.93 69.41 90.05 70.41 92.08 71.56 C 93.49 73.00 94.77 74.56 96.07 76.11 C 96.61 75.39 97.15 74.67 97.69 73.96 C 97.41 76.78 97.67 79.62 97.54 82.46 C 94.71 82.84 91.49 84.02 88.91 82.18 C 83.63 78.89 78.74 74.41 76.70 68.37 Z" />
</g>
<g id="#feed51ff">
<path fill="#feed51" opacity="1.00" d=" M 107.96 69.63 C 108.47 69.60 109.47 69.54 109.98 69.50 C 119.11 68.85 128.26 68.57 137.42 68.80 C 137.22 74.36 136.48 79.90 136.45 85.48 C 132.96 85.10 129.43 85.21 125.95 84.77 C 123.15 84.38 120.57 82.96 117.73 82.83 C 113.26 83.02 109.07 84.83 105.13 86.83 C 105.28 81.14 105.49 75.45 104.98 69.78 C 105.97 69.73 106.97 69.68 107.96 69.63 Z" />
</g>
<g id="#830dffff">
<path fill="#830dff" opacity="1.00" d=" M 137.42 68.80 C 137.99 68.80 139.15 68.79 139.72 68.79 L 139.71 69.55 L 139.70 70.48 C 138.78 76.56 138.57 82.72 138.65 88.86 C 138.22 89.08 137.35 89.53 136.92 89.75 C 135.48 89.63 134.05 89.52 132.62 89.41 C 132.60 89.96 132.56 91.06 132.54 91.61 C 132.28 95.59 132.29 99.57 132.36 103.55 C 132.92 103.74 134.04 104.10 134.60 104.29 L 135.35 104.53 L 134.53 104.53 C 129.55 104.54 124.59 104.87 119.63 105.21 C 119.72 104.51 119.91 103.11 120.00 102.41 C 123.84 102.32 128.40 103.28 131.34 100.14 C 131.50 96.39 131.38 92.63 131.24 88.89 C 127.77 88.80 124.28 88.78 120.87 88.07 C 125.61 85.00 131.54 88.02 136.45 85.48 C 136.48 79.90 137.22 74.36 137.42 68.80 Z" />
</g>
<g id="#fef39cff">
<path fill="#fef39c" opacity="1.00" d=" M 139.71 69.55 C 140.86 69.41 142.01 69.27 143.16 69.15 C 142.60 73.53 141.94 77.90 141.63 82.30 C 141.13 91.19 141.34 100.10 141.37 108.99 C 141.38 111.87 141.21 114.76 140.53 117.57 L 140.37 118.28 C 139.35 110.22 140.16 102.10 140.00 94.00 C 139.80 86.16 140.83 78.28 139.70 70.48 L 139.71 69.55 Z" />
</g>
<g id="#fef472ff">
<path fill="#fef472" opacity="1.00" d=" M 143.16 69.15 C 144.68 69.00 146.21 68.88 147.74 68.79 C 148.13 72.02 147.81 76.06 150.87 78.13 C 154.75 81.44 160.19 78.48 164.53 80.59 L 164.94 81.44 C 164.90 82.15 164.83 83.57 164.79 84.28 C 160.99 83.41 157.07 84.22 153.24 83.69 C 150.11 83.08 147.23 81.66 144.31 80.46 C 143.42 81.07 142.52 81.69 141.63 82.30 C 141.94 77.90 142.60 73.53 143.16 69.15 Z" />
</g>
<g id="#fef592ff">
<path fill="#fef592" opacity="1.00" d=" M 147.74 68.79 C 149.10 68.73 150.46 68.68 151.83 68.65 C 152.27 71.37 151.48 75.17 154.34 76.77 C 156.84 78.49 159.72 76.49 162.20 75.76 C 162.31 76.00 162.55 76.50 162.66 76.75 C 163.28 78.03 163.91 79.31 164.53 80.59 C 160.19 78.48 154.75 81.44 150.87 78.13 C 147.81 76.06 148.13 72.02 147.74 68.79 Z" />
</g>
<g id="#fdf4b9ff">
<path fill="#fdf4b9" opacity="1.00" d=" M 151.83 68.65 C 154.12 68.66 156.45 68.60 158.69 69.13 C 160.22 71.12 161.13 73.50 162.20 75.76 C 159.72 76.49 156.84 78.49 154.34 76.77 C 151.48 75.17 152.27 71.37 151.83 68.65 Z" />
</g>
<g id="#8c33e5ff">
<path fill="#8c33e5" opacity="1.00" d=" M 174.58 69.23 L 175.16 68.91 C 172.19 74.06 169.45 79.34 167.05 84.79 C 166.49 84.66 165.36 84.41 164.79 84.28 C 164.83 83.57 164.90 82.15 164.94 81.44 C 166.56 79.48 168.06 77.42 169.32 75.21 C 169.59 74.74 170.13 73.80 170.39 73.32 C 171.63 71.81 173.04 70.44 174.58 69.23 Z" />
<path fill="#8c33e5" opacity="1.00" d=" M 207.96 132.62 C 208.52 133.85 209.13 135.05 209.69 136.28 C 209.75 144.21 209.86 152.14 209.80 160.06 C 209.82 165.88 207.04 171.12 205.28 176.52 C 202.20 176.67 199.12 176.84 196.04 176.99 C 196.87 168.12 197.55 159.17 199.34 150.43 C 201.43 153.28 203.58 156.09 205.57 159.01 C 206.22 160.05 206.87 161.08 207.53 162.11 C 207.63 152.61 208.11 143.11 207.96 133.61 L 207.96 132.62 Z" />
</g>
<g id="#fdef54ff">
<path fill="#fdef54" opacity="1.00" d=" M 177.16 69.24 C 182.34 68.95 187.53 68.96 192.72 69.23 C 191.49 71.14 190.26 73.12 188.29 74.34 C 182.72 78.03 178.48 83.36 172.81 86.92 C 163.35 91.69 152.29 92.14 142.15 89.47 C 141.95 93.06 141.78 96.66 141.70 100.26 C 141.49 105.84 141.70 111.42 142.06 116.99 C 141.68 117.14 140.91 117.42 140.53 117.57 C 141.21 114.76 141.38 111.87 141.37 108.99 C 141.34 100.10 141.13 91.19 141.63 82.30 C 142.52 81.69 143.42 81.07 144.31 80.46 C 147.23 81.66 150.11 83.08 153.24 83.69 C 157.07 84.22 160.99 83.41 164.79 84.28 C 165.96 84.78 167.11 85.33 168.26 85.87 C 170.81 80.12 173.42 74.34 177.16 69.24 Z" />
</g>
<g id="#f9d647ff">
<path fill="#f9d647" opacity="1.00" d=" M 192.72 69.23 L 193.62 69.04 C 193.35 81.10 193.72 93.17 193.17 105.22 C 192.53 109.55 192.44 113.95 192.98 118.30 L 192.19 118.73 C 191.35 111.81 192.10 104.86 192.25 97.92 C 192.27 94.24 192.03 90.57 191.74 86.90 C 186.38 87.37 181.19 88.92 176.36 91.27 C 175.18 89.82 173.99 88.37 172.81 86.92 C 178.48 83.36 182.72 78.03 188.29 74.34 C 190.26 73.12 191.49 71.14 192.72 69.23 Z" />
</g>
<g id="#5c12b7ff">
<path fill="#5c12b7" opacity="1.00" d=" M 193.62 69.04 C 194.16 70.61 194.53 72.24 194.80 73.89 C 194.49 81.88 195.34 89.88 194.75 97.86 C 194.34 100.34 193.69 102.77 193.17 105.22 C 193.72 93.17 193.35 81.10 193.62 69.04 Z" />
<path fill="#5c12b7" opacity="1.00" d=" M 38.93 175.87 C 41.21 176.57 43.49 177.30 45.76 178.07 C 49.48 180.55 53.36 183.11 57.90 183.73 C 58.89 181.77 57.73 179.62 57.31 177.68 C 57.19 177.29 56.95 176.53 56.83 176.15 C 59.93 181.10 64.50 185.87 70.65 186.45 C 79.06 187.36 88.50 187.97 95.88 183.06 C 98.04 181.86 100.98 182.65 102.85 180.79 C 103.59 179.70 104.07 178.48 104.59 177.28 C 105.26 177.31 106.60 177.38 107.27 177.42 C 107.72 181.00 108.83 186.15 113.20 186.58 C 118.38 187.03 123.64 187.06 128.82 186.54 C 131.23 186.63 131.33 183.79 132.08 182.14 C 125.29 181.62 118.45 182.09 111.68 181.26 L 112.76 181.19 C 120.19 180.06 127.77 182.50 135.10 180.39 C 136.69 181.76 138.24 183.17 139.78 184.61 C 136.37 185.24 133.08 186.38 130.00 187.98 C 125.07 190.71 119.29 189.10 113.95 189.37 C 110.09 189.66 106.85 187.38 103.86 185.27 C 102.84 185.47 101.81 185.66 100.79 185.87 C 99.80 184.91 98.63 184.18 97.48 183.46 C 97.76 184.37 98.06 185.27 98.37 186.18 C 91.46 189.81 83.13 187.90 76.33 191.72 C 77.80 193.46 79.26 195.22 80.94 196.78 C 79.41 196.67 77.92 197.09 76.46 197.48 C 69.13 193.56 61.78 189.68 54.49 185.69 C 50.79 183.61 46.96 181.77 43.20 179.79 C 41.73 178.53 40.28 177.25 38.93 175.87 Z" />
</g>
<g id="#d764c2ff">
<path fill="#d764c2" opacity="1.00" d=" M 98.86 72.44 C 100.09 71.49 101.42 70.67 102.82 69.98 L 102.58 70.91 C 100.54 77.88 102.98 85.15 101.85 92.25 C 101.30 91.03 100.70 89.83 100.15 88.62 C 100.18 87.35 100.19 86.08 100.19 84.81 C 100.15 80.65 99.68 76.51 98.86 72.44 Z" />
</g>
<g id="#fde983ff">
<path fill="#fde983" opacity="1.00" d=" M 102.82 69.98 C 103.36 69.93 104.44 69.83 104.98 69.78 C 105.49 75.45 105.28 81.14 105.13 86.83 C 104.85 96.67 105.33 106.53 106.80 116.28 L 106.87 117.25 C 116.01 117.04 125.32 118.06 134.35 116.31 C 134.08 117.27 133.79 118.24 133.49 119.19 C 124.12 118.74 114.73 118.98 105.36 118.54 C 103.34 107.15 104.10 95.54 103.51 84.03 C 103.29 79.65 102.70 75.30 102.58 70.91 L 102.82 69.98 Z" />
</g>
<g id="#997277ff">
<path fill="#997277" opacity="1.00" d=" M 207.29 69.79 C 213.46 72.05 214.02 79.16 213.94 84.79 C 213.85 87.00 213.64 89.20 213.52 91.41 L 213.37 90.58 C 213.07 88.91 212.65 87.27 212.32 85.61 C 212.34 83.68 212.37 81.76 212.35 79.83 C 212.36 76.96 212.07 72.86 208.24 72.97 L 207.39 73.11 L 207.38 71.94 C 207.36 71.40 207.31 70.33 207.29 69.79 Z" />
</g>
<g id="#9b54bfff">
<path fill="#9b54bf" opacity="1.00" d=" M 59.30 75.82 C 61.34 73.92 63.70 72.38 66.17 71.09 C 64.36 72.95 62.62 74.88 61.00 76.90 C 58.83 79.54 56.86 82.44 55.90 85.76 C 52.50 95.96 54.11 107.39 59.71 116.51 C 59.30 116.33 58.48 115.97 58.07 115.79 C 50.78 107.10 52.77 95.08 53.29 84.65 C 54.72 81.37 56.96 78.51 59.30 75.82 Z" />
</g>
<g id="#ee8a2bff">
<path fill="#ee8a2b" opacity="1.00" d=" M 138.65 88.86 C 138.57 82.72 138.78 76.56 139.70 70.48 C 140.83 78.28 139.80 86.16 140.00 94.00 C 140.16 102.10 139.35 110.22 140.37 118.28 L 140.26 119.04 C 146.15 119.00 152.03 118.81 157.91 118.68 C 151.93 121.39 145.11 119.71 138.76 120.08 C 137.98 109.69 138.73 99.26 138.65 88.86 Z" />
</g>
<g id="#fff245ff">
<path fill="#fff245" opacity="1.00" d=" M 218.01 71.99 C 222.37 71.23 226.81 71.23 231.21 71.72 C 231.52 75.50 232.05 79.26 232.44 83.04 C 228.31 83.84 224.06 84.08 219.92 83.24 C 219.78 79.43 219.19 75.62 218.01 71.99 Z" />
</g>
<g id="#a39fe0ff">
<path fill="#a39fe0" opacity="1.00" d=" M 195.62 73.47 C 199.06 70.99 203.43 71.72 207.38 71.94 L 207.39 73.11 C 203.89 73.91 200.28 74.22 196.73 73.61 L 195.62 73.47 Z" />
</g>
<g id="#9f643cff">
<path fill="#9f643c" opacity="1.00" d=" M 36.38 78.30 C 36.55 76.22 37.69 74.43 38.95 72.84 L 38.68 73.60 C 38.18 75.62 37.84 77.67 37.64 79.74 C 37.52 80.99 37.43 82.23 37.32 83.47 C 36.93 86.97 36.60 90.47 36.60 93.99 C 36.64 110.71 36.53 127.42 36.65 144.14 C 36.62 147.74 36.63 151.35 36.83 154.95 C 36.43 157.35 35.03 159.32 32.82 160.39 C 32.45 148.65 32.62 136.91 32.70 125.17 C 33.43 125.02 34.88 124.72 35.61 124.57 C 35.67 115.03 36.46 105.51 36.18 95.97 C 36.23 90.08 35.78 84.17 36.38 78.30 Z" />
</g>
<g id="#880af5ff">
<path fill="#880af5" opacity="1.00" d=" M 97.69 73.96 C 97.98 73.58 98.57 72.82 98.86 72.44 C 99.68 76.51 100.15 80.65 100.19 84.81 C 99.01 85.47 97.83 86.14 96.69 86.86 C 94.92 88.07 93.26 89.43 91.62 90.81 C 89.72 90.85 87.82 90.95 85.92 90.95 C 84.44 90.90 82.96 90.80 81.48 90.68 C 80.06 90.43 78.45 88.72 77.12 89.97 C 76.13 90.69 75.23 91.52 74.28 92.30 L 73.51 92.64 C 73.53 91.89 73.57 90.41 73.59 89.67 C 73.68 89.13 73.84 88.06 73.92 87.53 C 77.46 87.15 81.03 87.43 84.07 89.47 C 85.09 89.09 86.11 88.71 87.13 88.33 C 90.86 86.88 94.44 85.00 97.54 82.46 C 97.67 79.62 97.41 76.78 97.69 73.96 Z" />
</g>
<g id="#3879eeff">
<path fill="#3879ee" opacity="1.00" d=" M 207.39 73.11 L 208.24 72.97 C 208.76 76.02 209.41 79.06 209.71 82.15 L 209.64 82.89 C 208.24 81.25 206.82 79.62 205.40 78.01 C 201.53 81.87 200.12 87.26 198.45 92.29 L 198.21 93.10 C 198.29 86.61 199.18 79.81 196.73 73.61 C 200.28 74.22 203.89 73.91 207.39 73.11 Z" />
</g>
<g id="#3252b5ff">
<path fill="#3252b5" opacity="1.00" d=" M 208.24 72.97 C 212.07 72.86 212.36 76.96 212.35 79.83 C 211.47 80.61 210.59 81.38 209.71 82.15 C 209.41 79.06 208.76 76.02 208.24 72.97 Z" />
</g>
<g id="#3458c0ff">
<path fill="#3458c0" opacity="1.00" d=" M 38.68 73.60 C 40.59 74.06 42.50 74.54 44.41 75.03 C 42.79 77.56 41.36 80.22 39.78 82.78 C 39.07 81.76 38.36 80.75 37.64 79.74 C 37.84 77.67 38.18 75.62 38.68 73.60 Z" />
</g>
<g id="#4183fbff">
<path fill="#4183fb" opacity="1.00" d=" M 44.41 75.03 C 44.75 74.71 45.44 74.08 45.78 73.77 C 50.33 74.16 54.86 74.76 59.30 75.82 C 56.96 78.51 54.72 81.37 53.29 84.65 C 50.73 89.84 50.18 95.69 49.73 101.37 C 49.60 101.00 49.35 100.25 49.22 99.88 C 47.41 93.52 43.22 88.30 39.78 82.78 C 41.36 80.22 42.79 77.56 44.41 75.03 Z" />
</g>
<g id="#3050adff">
<path fill="#3050ad" opacity="1.00" d=" M 194.80 73.89 L 195.62 73.47 L 196.73 73.61 C 199.18 79.81 198.29 86.61 198.21 93.10 C 197.74 94.90 197.25 96.70 196.77 98.51 C 196.26 98.35 195.25 98.03 194.75 97.86 C 195.34 89.88 194.49 81.88 194.80 73.89 Z" />
</g>
<g id="#d7ac73ff">
<path fill="#d7ac73" opacity="1.00" d=" M 31.72 75.50 L 32.21 74.67 C 32.88 81.76 32.58 88.88 32.69 95.99 C 32.64 105.71 32.60 115.44 32.70 125.17 C 32.62 136.91 32.45 148.65 32.82 160.39 C 32.81 163.79 32.71 167.19 32.60 170.60 C 32.59 171.04 32.56 171.94 32.55 172.38 C 31.27 167.71 31.33 162.85 31.31 158.05 C 31.03 134.03 31.28 110.01 31.18 85.99 C 31.16 82.49 31.31 78.98 31.72 75.50 Z" />
</g>
<g id="#80cafeff">
<path fill="#80cafe" opacity="1.00" d=" M 162.66 76.75 C 164.87 76.19 167.09 75.68 169.32 75.21 C 168.06 77.42 166.56 79.48 164.94 81.44 L 164.53 80.59 C 163.91 79.31 163.28 78.03 162.66 76.75 Z" />
<path fill="#80cafe" opacity="1.00" d=" M 187.29 129.90 C 188.83 129.94 190.38 129.96 191.93 129.97 C 192.17 136.99 192.06 144.01 191.83 151.02 C 185.51 150.80 179.14 150.81 172.88 151.90 C 172.91 150.68 172.93 149.47 172.93 148.26 C 178.97 143.27 183.75 136.86 187.29 129.90 Z" />
</g>
<g id="#f3ba67ff">
<path fill="#f3ba67" opacity="1.00" d=" M 55.90 85.76 C 56.86 82.44 58.83 79.54 61.00 76.90 C 60.87 77.26 60.60 77.98 60.47 78.34 C 59.56 81.21 58.79 84.12 58.25 87.08 C 57.94 90.07 57.86 93.09 57.91 96.10 C 58.06 102.20 58.86 109.00 63.53 113.45 C 68.76 118.52 76.50 118.98 83.35 119.59 C 79.04 119.78 74.63 120.80 70.38 119.66 C 64.33 117.68 59.37 112.70 57.35 106.67 C 55.01 99.96 55.78 92.72 55.90 85.76 Z" />
</g>
<g id="#f5c336ff">
<path fill="#f5c336" opacity="1.00" d=" M 60.47 78.34 C 65.47 78.05 71.25 77.11 75.43 80.59 C 78.99 83.66 82.63 86.73 87.13 88.33 C 86.11 88.71 85.09 89.09 84.07 89.47 C 81.03 87.43 77.46 87.15 73.92 87.53 C 68.70 87.27 63.48 86.74 58.25 87.08 C 58.79 84.12 59.56 81.21 60.47 78.34 Z" />
</g>
<g id="#5676feff">
<path fill="#5676fe" opacity="1.00" d=" M 198.45 92.29 C 200.12 87.26 201.53 81.87 205.40 78.01 C 206.82 79.62 208.24 81.25 209.64 82.89 C 209.57 83.38 209.43 84.37 209.36 84.86 C 207.94 86.87 206.41 88.81 205.08 90.89 C 202.86 91.33 200.65 91.80 198.45 92.29 Z" />
</g>
<g id="#c8bafaff">
<path fill="#c8bafa" opacity="1.00" d=" M 37.64 79.74 C 38.36 80.75 39.07 81.76 39.78 82.78 C 43.22 88.30 47.41 93.52 49.22 99.88 C 46.43 96.62 43.68 93.31 41.48 89.62 C 40.46 87.98 39.38 86.37 38.25 84.80 C 38.02 84.47 37.55 83.81 37.32 83.47 C 37.43 82.23 37.52 80.99 37.64 79.74 Z" />
<path fill="#c8bafa" opacity="1.00" d=" M 88.74 128.46 C 91.51 125.02 94.79 121.86 99.10 120.48 C 99.44 121.96 99.82 123.43 100.19 124.90 C 100.87 125.00 102.21 125.20 102.88 125.30 C 109.81 126.64 117.02 126.73 123.98 125.55 C 129.16 129.60 136.56 127.38 141.80 131.50 C 140.78 132.31 139.74 133.08 138.69 133.84 C 137.75 134.29 136.81 134.73 135.86 135.16 C 134.91 133.15 133.62 131.31 132.04 129.74 C 131.34 129.68 129.93 129.56 129.22 129.50 C 123.74 129.03 118.24 128.59 112.73 128.61 C 113.40 133.60 113.78 138.64 113.66 143.68 C 113.40 144.17 112.87 145.14 112.60 145.62 L 112.59 144.76 C 112.33 140.30 112.28 135.83 112.32 131.37 C 110.61 131.62 108.91 131.87 107.21 132.11 C 107.08 131.41 106.82 129.99 106.69 129.28 C 103.07 129.46 99.45 129.64 95.84 129.85 C 92.51 130.02 89.18 130.24 85.85 130.48 C 85.30 130.25 84.21 129.79 83.67 129.56 C 85.36 129.21 87.05 128.84 88.74 128.46 Z" />
<path fill="#c8bafa" opacity="1.00" d=" M 165.25 131.59 C 166.38 131.42 167.49 131.18 168.60 130.91 C 168.49 139.60 168.50 148.30 168.73 156.99 C 169.01 165.13 168.15 173.35 169.71 181.41 C 169.36 181.26 168.67 180.96 168.33 180.81 C 167.90 171.79 168.93 162.71 167.59 153.74 C 167.52 146.57 167.81 139.39 167.40 132.23 C 166.82 132.63 165.65 133.42 165.07 133.82 L 164.62 134.39 C 164.78 133.69 165.09 132.29 165.25 131.59 Z" />
</g>
<g id="#9487c2ff">
<path fill="#9487c2" opacity="1.00" d=" M 209.71 82.15 C 210.59 81.38 211.47 80.61 212.35 79.83 C 212.37 81.76 212.34 83.68 212.32 85.61 C 211.71 86.60 211.10 87.60 210.48 88.59 L 210.05 89.26 C 209.79 87.79 209.53 86.33 209.36 84.86 C 209.43 84.37 209.57 83.38 209.64 82.89 L 209.71 82.15 Z" />
</g>
<g id="#fcdc33ff">
<path fill="#fcdc33" opacity="1.00" d=" M 117.73 82.83 C 120.57 82.96 123.15 84.38 125.95 84.77 C 129.43 85.21 132.96 85.10 136.45 85.48 C 131.54 88.02 125.61 85.00 120.87 88.07 C 124.28 88.78 127.77 88.80 131.24 88.89 C 131.38 92.63 131.50 96.39 131.34 100.14 C 127.59 100.22 123.82 100.48 120.16 101.35 L 120.00 102.41 C 119.91 103.11 119.72 104.51 119.63 105.21 C 124.59 104.87 129.55 104.54 134.53 104.53 C 134.56 105.06 134.61 106.14 134.63 106.68 C 129.33 106.06 123.98 105.96 118.66 105.66 C 118.26 103.84 117.85 102.04 117.45 100.23 C 114.04 100.69 110.65 101.32 107.31 102.19 C 107.00 106.88 106.69 111.58 106.80 116.28 C 105.33 106.53 104.85 96.67 105.13 86.83 C 109.07 84.83 113.26 83.02 117.73 82.83 Z" />
</g>
<g id="#ffd835ff">
<path fill="#ffd835" opacity="1.00" d=" M 219.92 83.24 C 224.06 84.08 228.31 83.84 232.44 83.04 C 232.46 88.09 232.53 93.13 232.41 98.18 C 229.67 98.58 226.91 99.15 224.12 98.98 C 221.85 99.04 220.93 96.61 219.77 95.09 L 219.73 94.19 C 219.76 90.54 220.00 86.89 219.92 83.24 Z" />
</g>
<g id="#3f52a0ff">
<path fill="#3f52a0" opacity="1.00" d=" M 37.32 83.47 C 37.55 83.81 38.02 84.47 38.25 84.80 C 37.16 100.85 38.44 116.93 39.10 132.96 C 39.07 135.86 39.04 138.77 39.38 141.65 C 38.47 142.47 37.56 143.30 36.65 144.14 C 36.53 127.42 36.64 110.71 36.60 93.99 C 36.60 90.47 36.93 86.97 37.32 83.47 Z" />
</g>
<g id="#2c69c6ff">
<path fill="#2c69c6" opacity="1.00" d=" M 38.25 84.80 C 39.38 86.37 40.46 87.98 41.48 89.62 C 40.83 94.36 40.55 99.18 41.07 103.96 C 41.89 111.40 41.31 118.92 42.50 126.32 C 42.62 127.34 42.72 128.35 42.83 129.37 C 41.50 130.48 40.22 131.64 39.10 132.96 C 38.44 116.93 37.16 100.85 38.25 84.80 Z" />
</g>
<g id="#450d75ff">
<path fill="#450d75" opacity="1.00" d=" M 49.73 101.37 C 50.18 95.69 50.73 89.84 53.29 84.65 C 52.77 95.08 50.78 107.10 58.07 115.79 C 61.36 119.75 65.38 124.25 70.92 124.40 C 77.76 124.62 84.72 123.74 91.11 121.19 C 85.57 126.23 77.46 127.90 70.19 126.81 C 68.51 126.49 66.84 126.12 65.16 125.79 C 59.11 124.53 55.28 119.53 52.03 114.72 C 51.15 110.29 50.43 105.83 49.73 101.37 Z" />
<path fill="#450d75" opacity="1.00" d=" M 80.59 132.37 C 81.15 132.34 82.27 132.29 82.83 132.26 C 82.23 142.40 82.70 152.58 82.72 162.74 C 82.26 162.31 81.34 161.47 80.88 161.05 C 80.11 151.50 81.94 141.85 80.59 132.37 Z" />
</g>
<g id="#5b1497ff">
<path fill="#5b1497" opacity="1.00" d=" M 96.69 86.86 C 97.83 86.14 99.01 85.47 100.19 84.81 C 100.19 86.08 100.18 87.35 100.15 88.62 C 100.04 89.26 99.83 90.54 99.72 91.18 L 98.49 91.01 C 97.85 89.64 97.27 88.25 96.69 86.86 Z" />
</g>
<g id="#ceccffff">
<path fill="#ceccff" opacity="1.00" d=" M 209.36 84.86 C 209.53 86.33 209.79 87.79 210.05 89.26 C 208.20 92.10 206.47 95.03 204.68 97.91 C 201.93 102.24 198.57 106.11 195.35 110.08 C 196.97 102.98 201.67 97.18 205.08 90.89 C 206.41 88.81 207.94 86.87 209.36 84.86 Z" />
</g>
<g id="#c27a35ff">
<path fill="#c27a35" opacity="1.00" d=" M 213.94 84.79 C 215.45 85.05 216.97 85.31 218.49 85.57 C 218.98 88.43 219.49 91.29 219.73 94.19 L 219.77 95.09 C 219.50 106.52 220.40 117.98 219.50 129.40 L 219.47 128.61 C 219.43 127.34 219.39 126.08 219.35 124.82 C 219.06 116.62 219.88 108.36 218.68 100.22 C 218.60 97.76 215.58 97.57 213.89 96.59 C 213.82 94.86 213.67 93.13 213.52 91.41 C 213.64 89.20 213.85 87.00 213.94 84.79 Z" />
</g>
<g id="#d9693aff">
<path fill="#d9693a" opacity="1.00" d=" M 59.71 116.51 C 54.11 107.39 52.50 95.96 55.90 85.76 C 55.78 92.72 55.01 99.96 57.35 106.67 C 59.37 112.70 64.33 117.68 70.38 119.66 C 74.63 120.80 79.04 119.78 83.35 119.59 C 84.66 119.55 85.97 119.49 87.28 119.40 C 78.45 123.43 67.52 122.35 59.71 116.51 Z" />
</g>
<g id="#4a449bff">
<path fill="#4a449b" opacity="1.00" d=" M 212.32 85.61 C 212.65 87.27 213.07 88.91 213.37 90.58 C 212.69 104.46 212.96 118.37 212.78 132.26 C 212.14 130.69 211.43 129.16 210.80 127.59 C 211.41 118.69 211.38 109.73 209.99 100.89 C 209.65 96.79 209.90 92.66 210.48 88.59 C 211.10 87.60 211.71 86.60 212.32 85.61 Z" />
</g>
<g id="#f1b426ff">
<path fill="#f1b426" opacity="1.00" d=" M 58.25 87.08 C 63.48 86.74 68.70 87.27 73.92 87.53 C 73.84 88.06 73.68 89.13 73.59 89.67 C 72.81 93.01 72.30 96.45 72.70 99.89 C 68.31 97.08 62.78 97.57 57.91 96.10 C 57.86 93.09 57.94 90.07 58.25 87.08 Z" />
</g>
<g id="#615fa6ff">
<path fill="#615fa6" opacity="1.00" d=" M 91.62 90.81 C 93.26 89.43 94.92 88.07 96.69 86.86 C 97.27 88.25 97.85 89.64 98.49 91.01 C 96.20 90.84 93.91 90.78 91.62 90.81 Z" />
</g>
<g id="#fde038ff">
<path fill="#fde038" opacity="1.00" d=" M 142.15 89.47 C 152.29 92.14 163.35 91.69 172.81 86.92 C 173.99 88.37 175.18 89.82 176.36 91.27 C 171.57 93.49 166.77 95.71 162.08 98.16 C 163.18 101.47 164.14 104.82 165.21 108.14 C 163.01 105.45 160.84 102.73 159.05 99.75 C 158.90 99.41 158.62 98.71 158.48 98.37 C 153.08 100.13 147.38 101.87 141.70 100.26 C 141.78 96.66 141.95 93.06 142.15 89.47 Z" />
</g>
<g id="#f5c430ff">
<path fill="#f5c430" opacity="1.00" d=" M 176.36 91.27 C 181.19 88.92 186.38 87.37 191.74 86.90 C 192.03 90.57 192.27 94.24 192.25 97.92 C 187.37 97.74 182.45 98.05 177.73 99.38 C 177.25 101.99 176.72 104.59 176.34 107.21 C 176.40 104.41 176.26 101.61 176.08 98.81 C 175.79 99.14 175.22 99.78 174.93 100.11 C 174.08 101.03 173.22 101.94 172.38 102.86 C 170.36 105.09 168.36 107.35 166.10 109.34 C 165.88 109.04 165.43 108.44 165.21 108.14 C 164.14 104.82 163.18 101.47 162.08 98.16 C 166.77 95.71 171.57 93.49 176.36 91.27 Z" />
</g>
<g id="#581799ff">
<path fill="#581799" opacity="1.00" d=" M 77.12 89.97 C 78.45 88.72 80.06 90.43 81.48 90.68 C 79.07 91.19 76.67 91.73 74.28 92.30 C 75.23 91.52 76.13 90.69 77.12 89.97 Z" />
</g>
<g id="#860ef6ff">
<path fill="#860ef6" opacity="1.00" d=" M 100.15 88.62 C 100.70 89.83 101.30 91.03 101.85 92.25 C 102.46 96.61 102.41 101.03 102.22 105.43 L 101.59 106.23 C 99.70 108.28 98.77 110.92 98.09 113.57 C 95.98 116.30 93.70 118.91 91.11 121.19 C 84.72 123.74 77.76 124.62 70.92 124.40 C 65.38 124.25 61.36 119.75 58.07 115.79 C 58.48 115.97 59.30 116.33 59.71 116.51 C 67.52 122.35 78.45 123.43 87.28 119.40 C 91.83 117.30 95.35 113.41 97.53 108.95 C 98.26 107.10 98.86 105.20 99.23 103.25 C 99.99 99.26 99.48 95.20 99.72 91.18 C 99.83 90.54 100.04 89.26 100.15 88.62 Z" />
</g>
<g id="#4a138fff">
<path fill="#4a138f" opacity="1.00" d=" M 132.62 89.41 C 134.05 89.52 135.48 89.63 136.92 89.75 C 136.78 91.41 136.66 93.08 136.58 94.76 C 136.36 98.02 136.24 101.28 136.05 104.55 L 135.35 104.53 L 134.60 104.29 C 134.32 100.04 136.03 94.94 132.54 91.61 C 132.56 91.06 132.60 89.96 132.62 89.41 Z" />
</g>
<g id="#a64bf0ff">
<path fill="#a64bf0" opacity="1.00" d=" M 136.92 89.75 C 137.35 89.53 138.22 89.08 138.65 88.86 C 138.73 99.26 137.98 109.69 138.76 120.08 C 138.86 120.53 139.04 121.44 139.14 121.90 C 138.51 121.68 137.25 121.23 136.62 121.01 C 136.98 112.26 136.63 103.51 136.58 94.76 C 136.66 93.08 136.78 91.41 136.92 89.75 Z" />
<path fill="#a64bf0" opacity="1.00" d=" M 199.26 147.40 C 202.33 142.91 204.89 138.10 207.96 133.61 C 208.11 143.11 207.63 152.61 207.53 162.11 C 206.87 161.08 206.22 160.05 205.57 159.01 C 203.75 155.00 201.95 150.93 199.26 147.40 Z" />
</g>
<g id="#4c56dfff">
<path fill="#4c56df" opacity="1.00" d=" M 210.05 89.26 L 210.48 88.59 C 209.90 92.66 209.65 96.79 209.99 100.89 C 208.90 101.73 207.82 102.57 206.74 103.42 C 206.14 101.55 205.40 99.73 204.68 97.91 C 206.47 95.03 208.20 92.10 210.05 89.26 Z" />
</g>
<g id="#308af0ff">
<path fill="#308af0" opacity="1.00" d=" M 41.48 89.62 C 43.68 93.31 46.43 96.62 49.22 99.88 C 49.35 100.25 49.60 101.00 49.73 101.37 C 50.43 105.83 51.15 110.29 52.03 114.72 C 52.55 118.00 53.33 121.24 54.52 124.35 C 51.98 122.88 49.22 121.85 46.41 121.05 C 45.13 122.82 43.83 124.58 42.50 126.32 C 41.31 118.92 41.89 111.40 41.07 103.96 C 40.55 99.18 40.83 94.36 41.48 89.62 Z" />
</g>
<g id="#7236b0ff">
<path fill="#7236b0" opacity="1.00" d=" M 72.70 99.89 C 72.30 96.45 72.81 93.01 73.59 89.67 C 73.57 90.41 73.53 91.89 73.51 92.64 L 74.28 92.30 C 76.67 91.73 79.07 91.19 81.48 90.68 C 82.96 90.80 84.44 90.90 85.92 90.95 L 85.87 91.78 C 83.97 91.78 82.07 91.77 80.17 91.86 C 79.78 92.12 79.00 92.63 78.61 92.88 C 76.83 95.71 77.19 99.24 77.57 102.41 C 78.95 103.33 80.45 104.03 81.91 104.81 C 80.12 105.23 78.05 105.87 76.35 104.81 C 74.68 103.56 73.80 101.60 72.70 99.89 Z" />
</g>
<g id="#c37b87ff">
<path fill="#c37b87" opacity="1.00" d=" M 85.92 90.95 C 87.82 90.95 89.72 90.85 91.62 90.81 C 93.91 90.78 96.20 90.84 98.49 91.01 L 99.72 91.18 C 99.48 95.20 99.99 99.26 99.23 103.25 C 99.26 99.38 98.74 95.54 98.19 91.72 C 94.08 91.68 89.98 91.77 85.87 91.78 L 85.92 90.95 Z" />
</g>
<g id="#7c7afbff">
<path fill="#7c7afb" opacity="1.00" d=" M 198.45 92.29 C 200.65 91.80 202.86 91.33 205.08 90.89 C 201.67 97.18 196.97 102.98 195.35 110.08 C 194.79 112.29 194.48 114.56 194.09 116.80 L 193.92 117.73 L 192.98 118.30 C 192.44 113.95 192.53 109.55 193.17 105.22 C 193.69 102.77 194.34 100.34 194.75 97.86 C 195.25 98.03 196.26 98.35 196.77 98.51 C 197.25 96.70 197.74 94.90 198.21 93.10 L 198.45 92.29 Z" />
</g>
<g id="#723b58ff">
<path fill="#723b58" opacity="1.00" d=" M 213.37 90.58 L 213.52 91.41 C 213.67 93.13 213.82 94.86 213.89 96.59 C 213.53 104.92 213.70 113.25 213.94 121.58 C 213.85 128.07 213.79 134.58 214.32 141.06 C 214.36 144.31 217.01 146.50 218.91 148.81 C 218.97 142.07 218.91 135.33 219.47 128.61 L 219.50 129.40 C 219.54 130.54 219.59 131.68 219.66 132.82 C 219.64 142.21 219.58 151.60 219.72 160.99 C 219.75 165.73 220.02 170.62 218.37 175.16 C 218.13 172.90 217.78 170.65 217.44 168.40 C 215.76 168.57 214.07 168.74 212.39 168.93 C 213.19 156.73 212.95 144.48 212.78 132.26 C 212.96 118.37 212.69 104.46 213.37 90.58 Z" />
</g>
<g id="#f5d7a0ff">
<path fill="#f5d7a0" opacity="1.00" d=" M 78.61 92.88 C 79.00 92.63 79.78 92.12 80.17 91.86 C 80.19 95.10 80.06 98.34 79.71 101.56 C 79.12 98.70 78.73 95.80 78.61 92.88 Z" />
</g>
<g id="#f7bc24ff">
<path fill="#f7bc24" opacity="1.00" d=" M 80.17 91.86 C 82.07 91.77 83.97 91.78 85.87 91.78 C 89.98 91.77 94.08 91.68 98.19 91.72 C 98.74 95.54 99.26 99.38 99.23 103.25 C 98.86 105.20 98.26 107.10 97.53 108.95 C 95.14 105.93 92.25 102.46 88.08 102.31 C 85.85 102.61 83.91 103.87 81.91 104.81 C 80.45 104.03 78.95 103.33 77.57 102.41 C 77.19 99.24 76.83 95.71 78.61 92.88 C 78.73 95.80 79.12 98.70 79.71 101.56 C 80.06 98.34 80.19 95.10 80.17 91.86 Z" />
</g>
<g id="#708bceff">
<path fill="#708bce" opacity="1.00" d=" M 132.54 91.61 C 136.03 94.94 134.32 100.04 134.60 104.29 C 134.04 104.10 132.92 103.74 132.36 103.55 C 132.29 99.57 132.28 95.59 132.54 91.61 Z" />
</g>
<g id="#8522ecff">
<path fill="#8522ec" opacity="1.00" d=" M 136.05 104.55 C 136.24 101.28 136.36 98.02 136.58 94.76 C 136.63 103.51 136.98 112.26 136.62 121.01 C 132.93 122.08 129.24 123.21 125.79 124.90 L 124.87 125.23 C 124.33 125.21 123.26 125.18 122.72 125.16 C 124.71 123.28 126.87 121.57 129.25 120.20 C 130.67 119.88 132.08 119.55 133.49 119.19 C 133.79 118.24 134.08 117.27 134.35 116.31 C 134.65 113.11 134.72 109.89 134.63 106.68 C 134.61 106.14 134.56 105.06 134.53 104.53 L 135.35 104.53 L 136.05 104.55 Z" />
</g>
<g id="#fec82aff">
<path fill="#fec82a" opacity="1.00" d=" M 219.77 95.09 C 220.93 96.61 221.85 99.04 224.12 98.98 C 226.91 99.15 229.67 98.58 232.41 98.18 C 232.48 111.82 232.55 125.45 232.41 139.09 C 229.44 139.50 226.43 140.17 223.42 139.79 C 221.67 137.77 220.67 135.25 219.66 132.82 C 219.59 131.68 219.54 130.54 219.50 129.40 C 220.40 117.98 219.50 106.52 219.77 95.09 Z" />
</g>
<g id="#b9802bff">
<path fill="#b9802b" opacity="1.00" d=" M 32.69 95.99 C 33.56 95.98 35.31 95.97 36.18 95.97 C 36.46 105.51 35.67 115.03 35.61 124.57 C 34.88 124.72 33.43 125.02 32.70 125.17 C 32.60 115.44 32.64 105.71 32.69 95.99 Z" />
</g>
<g id="#f2a811ff">
<path fill="#f2a811" opacity="1.00" d=" M 57.91 96.10 C 62.78 97.57 68.31 97.08 72.70 99.89 C 73.80 101.60 74.68 103.56 76.35 104.81 C 78.05 105.87 80.12 105.23 81.91 104.81 C 83.91 103.87 85.85 102.61 88.08 102.31 C 92.25 102.46 95.14 105.93 97.53 108.95 C 95.35 113.41 91.83 117.30 87.28 119.40 C 85.97 119.49 84.66 119.55 83.35 119.59 C 76.50 118.98 68.76 118.52 63.53 113.45 C 58.86 109.00 58.06 102.20 57.91 96.10 Z" />
</g>
<g id="#9e653dff">
<path fill="#9e653d" opacity="1.00" d=" M 213.89 96.59 C 215.58 97.57 218.60 97.76 218.68 100.22 C 219.88 108.36 219.06 116.62 219.35 124.82 C 217.56 123.72 215.75 122.64 213.94 121.58 C 213.70 113.25 213.53 104.92 213.89 96.59 Z" />
</g>
<g id="#faca1bff">
<path fill="#faca1b" opacity="1.00" d=" M 141.70 100.26 C 147.38 101.87 153.08 100.13 158.48 98.37 C 158.62 98.71 158.90 99.41 159.05 99.75 C 158.76 100.81 158.48 101.86 158.19 102.92 C 157.05 107.47 157.25 112.20 157.08 116.85 C 152.07 117.14 147.06 117.09 142.06 116.99 C 141.70 111.42 141.49 105.84 141.70 100.26 Z" />
</g>
<g id="#f2b320ff">
<path fill="#f2b320" opacity="1.00" d=" M 177.73 99.38 C 182.45 98.05 187.37 97.74 192.25 97.92 C 192.10 104.86 191.35 111.81 192.19 118.73 C 191.83 118.89 191.12 119.19 190.76 119.35 C 185.90 119.42 181.00 119.12 176.27 117.97 C 176.05 114.39 176.08 110.79 176.34 107.21 C 176.72 104.59 177.25 101.99 177.73 99.38 Z" />
</g>
<g id="#6b7dfdff">
<path fill="#6b7dfd" opacity="1.00" d=" M 195.35 110.08 C 198.57 106.11 201.93 102.24 204.68 97.91 C 205.40 99.73 206.14 101.55 206.74 103.42 C 206.93 104.39 207.10 105.37 207.25 106.36 C 203.14 110.08 200.53 115.04 198.65 120.18 C 197.93 118.37 197.21 116.57 196.46 114.78 C 195.67 115.45 194.88 116.13 194.09 116.80 C 194.48 114.56 194.79 112.29 195.35 110.08 Z" />
</g>
<g id="#f5bf63ff">
<path fill="#f5bf63" opacity="1.00" d=" M 174.93 100.11 C 175.22 99.78 175.79 99.14 176.08 98.81 C 176.26 101.61 176.40 104.41 176.34 107.21 C 176.08 110.79 176.05 114.39 176.27 117.97 C 175.70 117.74 174.57 117.28 174.00 117.05 C 174.07 111.40 174.09 105.72 174.93 100.11 Z" />
</g>
<g id="#fde61bff">
<path fill="#fde61b" opacity="1.00" d=" M 107.31 102.19 C 110.65 101.32 114.04 100.69 117.45 100.23 C 117.85 102.04 118.26 103.84 118.66 105.66 C 123.98 105.96 129.33 106.06 134.63 106.68 C 134.72 109.89 134.65 113.11 134.35 116.31 C 125.32 118.06 116.01 117.04 106.87 117.25 L 106.80 116.28 C 106.69 111.58 107.00 106.88 107.31 102.19 Z" />
</g>
<g id="#e8823cff">
<path fill="#e8823c" opacity="1.00" d=" M 120.16 101.35 C 123.82 100.48 127.59 100.22 131.34 100.14 C 128.40 103.28 123.84 102.32 120.00 102.41 L 120.16 101.35 Z" />
</g>
<g id="#e2762cff">
<path fill="#e2762c" opacity="1.00" d=" M 159.05 99.75 C 160.84 102.73 163.01 105.45 165.21 108.14 C 165.43 108.44 165.88 109.04 166.10 109.34 C 165.45 109.90 164.81 110.46 164.16 111.01 C 162.24 108.59 160.31 106.19 158.51 103.70 L 158.19 102.92 C 158.48 101.86 158.76 100.81 159.05 99.75 Z" />
</g>
<g id="#d8704aff">
<path fill="#d8704a" opacity="1.00" d=" M 172.38 102.86 C 173.22 101.94 174.08 101.03 174.93 100.11 C 174.09 105.72 174.07 111.40 174.00 117.05 C 174.57 117.28 175.70 117.74 176.27 117.97 C 181.00 119.12 185.90 119.42 190.76 119.35 C 184.73 120.89 178.42 119.90 172.29 119.79 C 172.26 114.14 172.59 108.50 172.38 102.86 Z" />
</g>
<g id="#7b65c1ff">
<path fill="#7b65c1" opacity="1.00" d=" M 206.74 103.42 C 207.82 102.57 208.90 101.73 209.99 100.89 C 211.38 109.73 211.41 118.69 210.80 127.59 C 210.48 130.49 209.99 133.37 209.69 136.28 C 209.13 135.05 208.52 133.85 207.96 132.62 C 207.85 129.36 207.88 126.10 207.97 122.84 C 208.22 117.34 208.09 111.81 207.25 106.36 C 207.10 105.37 206.93 104.39 206.74 103.42 Z" />
</g>
<g id="#f6ba3dff">
<path fill="#f6ba3d" opacity="1.00" d=" M 157.08 116.85 C 157.25 112.20 157.05 107.47 158.19 102.92 L 158.51 103.70 C 158.62 108.69 158.88 113.75 157.91 118.68 C 152.03 118.81 146.15 119.00 140.26 119.04 L 140.37 118.28 L 140.53 117.57 C 140.91 117.42 141.68 117.14 142.06 116.99 C 147.06 117.09 152.07 117.14 157.08 116.85 Z" />
</g>
<g id="#8417f4ff">
<path fill="#8417f4" opacity="1.00" d=" M 172.38 102.86 C 172.59 108.50 172.26 114.14 172.29 119.79 C 178.42 119.90 184.73 120.89 190.76 119.35 C 191.12 119.19 191.83 118.89 192.19 118.73 L 192.98 118.30 L 193.92 117.73 C 193.83 118.24 193.64 119.24 193.55 119.75 C 189.32 125.26 181.85 123.05 175.98 122.60 C 174.47 122.20 172.01 122.52 171.44 120.66 C 170.63 116.83 170.97 112.87 170.83 108.97 C 169.93 109.86 169.04 110.75 168.14 111.63 C 167.21 112.52 166.28 113.40 165.31 114.25 C 163.53 112.76 161.74 111.28 159.94 109.80 C 160.00 112.05 160.08 114.29 160.08 116.53 C 159.63 118.52 159.05 120.48 158.35 122.40 C 151.95 122.07 145.46 123.14 139.14 121.90 C 139.04 121.44 138.86 120.53 138.76 120.08 C 145.11 119.71 151.93 121.39 157.91 118.68 C 158.88 113.75 158.62 108.69 158.51 103.70 C 160.31 106.19 162.24 108.59 164.16 111.01 C 164.81 110.46 165.45 109.90 166.10 109.34 C 168.36 107.35 170.36 105.09 172.38 102.86 Z" />
</g>
<g id="#fecc2bff">
<path fill="#fecc2b" opacity="1.00" d=" M 17.63 108.32 C 20.78 107.91 23.92 107.42 27.03 106.78 C 28.82 113.17 28.67 119.88 30.26 126.31 C 30.75 139.61 30.39 152.93 30.35 166.24 C 26.37 168.16 22.02 169.09 17.64 169.45 C 17.43 149.08 17.50 128.70 17.63 108.32 Z" />
</g>
<g id="#6a1aaaff">
<path fill="#6a1aaa" opacity="1.00" d=" M 98.09 113.57 C 98.77 110.92 99.70 108.28 101.59 106.23 C 100.76 111.12 100.95 116.15 101.84 121.01 C 102.16 121.23 102.80 121.67 103.12 121.89 C 103.86 122.39 104.60 122.89 105.33 123.40 C 105.25 123.89 105.07 124.86 104.98 125.34 C 104.46 125.33 103.41 125.31 102.88 125.30 C 102.21 125.20 100.87 125.00 100.19 124.90 C 99.82 123.43 99.44 121.96 99.10 120.48 C 98.65 118.19 98.33 115.88 98.09 113.57 Z" />
</g>
<g id="#ae50e2ff">
<path fill="#ae50e2" opacity="1.00" d=" M 101.59 106.23 L 102.22 105.43 C 102.40 110.37 102.95 115.29 103.72 120.17 C 103.80 120.61 103.96 121.51 104.04 121.95 L 103.12 121.89 C 102.80 121.67 102.16 121.23 101.84 121.01 C 100.95 116.15 100.76 111.12 101.59 106.23 Z" />
</g>
<g id="#887ef4ff">
<path fill="#887ef4" opacity="1.00" d=" M 198.65 120.18 C 200.53 115.04 203.14 110.08 207.25 106.36 C 208.09 111.81 208.22 117.34 207.97 122.84 C 204.53 126.14 200.96 129.32 197.12 132.16 C 196.49 130.88 195.82 129.63 195.15 128.38 C 196.35 125.66 197.55 122.94 198.65 120.18 Z" />
</g>
<g id="#450d7dff">
<path fill="#450d7d" opacity="1.00" d=" M 168.14 111.63 C 169.04 110.75 169.93 109.86 170.83 108.97 C 170.97 112.87 170.63 116.83 171.44 120.66 C 172.01 122.52 174.47 122.20 175.98 122.60 C 181.85 123.05 189.32 125.26 193.55 119.75 C 193.08 121.28 192.97 123.37 191.29 124.12 C 189.58 124.70 187.75 124.71 185.97 124.85 C 185.31 124.87 183.99 124.91 183.33 124.93 C 178.75 124.91 174.16 124.95 169.58 125.27 C 169.48 124.92 169.27 124.22 169.16 123.86 C 168.84 119.78 168.69 115.69 168.14 111.63 Z" />
</g>
<g id="#470f85ff">
<path fill="#470f85" opacity="1.00" d=" M 159.94 109.80 C 161.74 111.28 163.53 112.76 165.31 114.25 C 163.63 115.14 161.86 115.85 160.08 116.53 C 160.08 114.29 160.00 112.05 159.94 109.80 Z" />
</g>
<g id="#6b79b7ff">
<path fill="#6b79b7" opacity="1.00" d=" M 165.31 114.25 C 166.28 113.40 167.21 112.52 168.14 111.63 C 168.69 115.69 168.84 119.78 169.16 123.86 C 168.55 121.85 167.92 119.84 167.29 117.83 C 161.87 119.99 159.94 127.01 153.83 127.88 C 148.94 129.16 143.89 127.87 139.66 125.27 C 144.43 125.02 149.22 125.17 153.98 124.82 C 155.77 124.80 157.07 123.45 158.35 122.40 C 159.05 120.48 159.63 118.52 160.08 116.53 C 161.86 115.85 163.63 115.14 165.31 114.25 Z" />
</g>
<g id="#7277baff">
<path fill="#7277ba" opacity="1.00" d=" M 91.11 121.19 C 93.70 118.91 95.98 116.30 98.09 113.57 C 98.33 115.88 98.65 118.19 99.10 120.48 C 94.79 121.86 91.51 125.02 88.74 128.46 C 87.05 128.84 85.36 129.21 83.67 129.56 C 83.46 130.24 83.04 131.59 82.83 132.26 C 82.27 132.29 81.15 132.34 80.59 132.37 L 80.29 131.54 C 80.07 131.03 79.65 130.02 79.44 129.51 C 76.67 129.38 73.90 129.23 71.16 128.77 C 70.92 128.28 70.44 127.30 70.19 126.81 C 77.46 127.90 85.57 126.23 91.11 121.19 Z" />
</g>
<g id="#447bcbff">
<path fill="#447bcb" opacity="1.00" d=" M 52.03 114.72 C 55.28 119.53 59.11 124.53 65.16 125.79 C 61.51 126.44 57.63 126.78 54.52 124.35 C 53.33 121.24 52.55 118.00 52.03 114.72 Z" />
</g>
<g id="#5b64bfff">
<path fill="#5b64bf" opacity="1.00" d=" M 194.09 116.80 C 194.88 116.13 195.67 115.45 196.46 114.78 C 197.21 116.57 197.93 118.37 198.65 120.18 C 197.55 122.94 196.35 125.66 195.15 128.38 C 194.07 128.56 192.98 128.71 191.90 128.85 C 190.16 128.79 188.43 128.64 186.70 128.49 C 186.46 127.27 186.22 126.06 185.97 124.85 C 187.75 124.71 189.58 124.70 191.29 124.12 C 192.97 123.37 193.08 121.28 193.55 119.75 C 193.64 119.24 193.83 118.24 193.92 117.73 L 194.09 116.80 Z" />
</g>
<g id="#a09ff5ff">
<path fill="#a09ff5" opacity="1.00" d=" M 153.83 127.88 C 159.94 127.01 161.87 119.99 167.29 117.83 C 167.92 119.84 168.55 121.85 169.16 123.86 C 169.27 124.22 169.48 124.92 169.58 125.27 C 172.64 129.89 180.39 129.46 183.33 124.93 C 183.99 124.91 185.31 124.87 185.97 124.85 C 186.22 126.06 186.46 127.27 186.70 128.49 C 188.43 128.64 190.16 128.79 191.90 128.85 L 191.93 129.97 C 190.38 129.96 188.83 129.94 187.29 129.90 C 182.47 129.75 177.64 129.58 172.82 129.87 C 172.38 129.97 171.50 130.18 171.06 130.28 C 170.44 130.44 169.21 130.76 168.60 130.91 C 167.49 131.18 166.38 131.42 165.25 131.59 C 164.71 131.63 164.17 131.66 163.63 131.67 C 159.03 128.69 153.30 129.55 148.15 130.05 C 147.03 130.24 145.91 130.44 144.80 130.65 C 143.60 137.24 144.93 144.03 143.33 150.56 C 143.09 150.05 142.61 149.05 142.37 148.55 C 143.59 142.96 144.14 136.88 141.80 131.50 C 136.56 127.38 129.16 129.60 123.98 125.55 L 124.87 125.23 L 125.79 124.90 C 130.40 124.22 135.10 124.32 139.66 125.27 C 143.89 127.87 148.94 129.16 153.83 127.88 Z" />
</g>
<g id="#e21df9ff">
<path fill="#e21df9" opacity="1.00" d=" M 103.72 120.17 C 112.23 120.14 120.74 120.21 129.25 120.20 C 126.87 121.57 124.71 123.28 122.72 125.16 C 120.62 125.07 118.52 125.04 116.43 125.07 C 113.60 120.96 108.25 122.42 104.04 121.95 C 103.96 121.51 103.80 120.61 103.72 120.17 Z" />
</g>
<g id="#481192ff">
<path fill="#481192" opacity="1.00" d=" M 125.79 124.90 C 129.24 123.21 132.93 122.08 136.62 121.01 C 137.25 121.23 138.51 121.68 139.14 121.90 C 145.46 123.14 151.95 122.07 158.35 122.40 C 157.07 123.45 155.77 124.80 153.98 124.82 C 149.22 125.17 144.43 125.02 139.66 125.27 C 135.10 124.32 130.40 124.22 125.79 124.90 Z" />
</g>
<g id="#5288fcff">
<path fill="#5288fc" opacity="1.00" d=" M 46.41 121.05 C 49.22 121.85 51.98 122.88 54.52 124.35 C 57.63 126.78 61.51 126.44 65.16 125.79 C 66.84 126.12 68.51 126.49 70.19 126.81 C 70.44 127.30 70.92 128.28 71.16 128.77 C 67.87 127.78 64.35 127.05 61.22 128.93 C 60.85 129.07 60.11 129.35 59.74 129.49 C 58.56 129.95 57.37 130.41 56.17 130.86 C 51.93 132.42 47.61 133.80 43.30 135.17 C 43.21 133.23 43.02 131.30 42.83 129.37 C 42.72 128.35 42.62 127.34 42.50 126.32 C 43.83 124.58 45.13 122.82 46.41 121.05 Z" />
</g>
<g id="#b317d8ff">
<path fill="#b317d8" opacity="1.00" d=" M 103.12 121.89 L 104.04 121.95 C 108.25 122.42 113.60 120.96 116.43 125.07 C 112.61 125.21 108.80 125.35 104.98 125.34 C 105.07 124.86 105.25 123.89 105.33 123.40 C 104.60 122.89 103.86 122.39 103.12 121.89 Z" />
</g>
<g id="#874f4aff">
<path fill="#874f4a" opacity="1.00" d=" M 213.94 121.58 C 215.75 122.64 217.56 123.72 219.35 124.82 C 219.39 126.08 219.43 127.34 219.47 128.61 C 218.91 135.33 218.97 142.07 218.91 148.81 C 217.01 146.50 214.36 144.31 214.32 141.06 C 213.79 134.58 213.85 128.07 213.94 121.58 Z" />
</g>
<g id="#9765f6ff">
<path fill="#9765f6" opacity="1.00" d=" M 197.12 132.16 C 200.96 129.32 204.53 126.14 207.97 122.84 C 207.88 126.10 207.85 129.36 207.96 132.62 L 207.96 133.61 C 204.89 138.10 202.33 142.91 199.26 147.40 C 198.66 146.61 198.03 145.84 197.41 145.08 C 197.41 145.52 197.41 146.42 197.41 146.87 C 197.05 146.52 196.31 145.84 195.94 145.50 C 196.25 145.16 196.89 144.48 197.20 144.14 C 200.89 141.05 198.46 135.86 197.12 132.16 Z" />
</g>
<g id="#d169e9ff">
<path fill="#d169e9" opacity="1.00" d=" M 102.88 125.30 C 103.41 125.31 104.46 125.33 104.98 125.34 C 108.80 125.35 112.61 125.21 116.43 125.07 C 118.52 125.04 120.62 125.07 122.72 125.16 C 123.26 125.18 124.33 125.21 124.87 125.23 L 123.98 125.55 C 117.02 126.73 109.81 126.64 102.88 125.30 Z" />
</g>
<g id="#7774c5ff">
<path fill="#7774c5" opacity="1.00" d=" M 169.58 125.27 C 174.16 124.95 178.75 124.91 183.33 124.93 C 180.39 129.46 172.64 129.89 169.58 125.27 Z" />
</g>
<g id="#80ccfeff">
<path fill="#80ccfe" opacity="1.00" d=" M 61.22 128.93 C 64.35 127.05 67.87 127.78 71.16 128.77 C 73.90 129.23 76.67 129.38 79.44 129.51 C 79.65 130.02 80.07 131.03 80.29 131.54 C 79.83 135.62 79.62 139.72 79.55 143.83 C 79.29 145.48 78.94 147.11 78.61 148.75 C 73.21 148.22 67.79 147.48 62.37 148.11 C 61.92 152.80 61.73 157.56 62.54 162.23 C 63.29 167.66 65.24 174.27 71.11 176.10 C 77.87 178.19 85.12 177.50 92.09 177.29 C 83.93 180.47 75.16 178.94 66.72 178.24 C 67.21 178.22 68.18 178.19 68.66 178.17 C 66.08 176.50 63.89 174.31 62.24 171.70 C 61.93 171.86 61.31 172.17 60.99 172.33 C 60.46 164.34 59.24 156.35 59.90 148.32 C 62.35 141.99 65.86 136.17 69.15 130.26 C 66.52 129.74 63.88 129.24 61.22 128.93 Z" />
</g>
<g id="#7758e1ff">
<path fill="#7758e1" opacity="1.00" d=" M 191.90 128.85 C 192.98 128.71 194.07 128.56 195.15 128.38 C 195.82 129.63 196.49 130.88 197.12 132.16 C 198.46 135.86 200.89 141.05 197.20 144.14 C 197.17 139.96 197.21 135.37 194.30 132.02 C 194.08 131.69 193.64 131.04 193.42 130.71 C 193.12 136.13 193.13 141.56 193.02 146.99 C 192.84 157.10 194.02 167.29 192.46 177.34 C 192.29 169.48 191.70 161.63 191.74 153.77 C 191.76 153.08 191.81 151.71 191.83 151.02 C 192.06 144.01 192.17 136.99 191.93 129.97 L 191.90 128.85 Z" />
</g>
<g id="#76309aff">
<path fill="#76309a" opacity="1.00" d=" M 209.69 136.28 C 209.99 133.37 210.48 130.49 210.80 127.59 C 211.43 129.16 212.14 130.69 212.78 132.26 C 212.95 144.48 213.19 156.73 212.39 168.93 C 210.22 171.63 208.16 174.51 205.28 176.52 C 207.04 171.12 209.82 165.88 209.80 160.06 C 209.86 152.14 209.75 144.21 209.69 136.28 Z" />
</g>
<g id="#9dfcffff">
<path fill="#9dfcff" opacity="1.00" d=" M 61.22 128.93 C 63.88 129.24 66.52 129.74 69.15 130.26 C 65.86 136.17 62.35 141.99 59.90 148.32 C 59.59 142.05 59.47 135.77 59.74 129.49 C 60.11 129.35 60.85 129.07 61.22 128.93 Z" />
</g>
<g id="#cef5ffff">
<path fill="#cef5ff" opacity="1.00" d=" M 95.84 129.85 C 99.45 129.64 103.07 129.46 106.69 129.28 C 106.82 129.99 107.08 131.41 107.21 132.11 C 107.56 137.89 106.58 143.63 106.09 149.37 C 105.13 145.37 102.55 142.12 99.85 139.14 C 97.42 136.62 96.59 133.15 95.84 129.85 Z" />
</g>
<g id="#f1fbffff">
<path fill="#f1fbff" opacity="1.00" d=" M 112.73 128.61 C 118.24 128.59 123.74 129.03 129.22 129.50 C 127.08 130.00 124.33 129.98 123.07 132.12 C 119.90 137.05 116.66 141.96 113.78 147.07 C 113.75 146.22 113.69 144.53 113.66 143.68 C 113.78 138.64 113.40 133.60 112.73 128.61 Z" />
</g>
<g id="#5a60e4ff">
<path fill="#5a60e4" opacity="1.00" d=" M 39.10 132.96 C 40.22 131.64 41.50 130.48 42.83 129.37 C 43.02 131.30 43.21 133.23 43.30 135.17 C 42.64 137.42 41.81 139.61 40.97 141.80 C 40.71 142.46 40.21 143.80 39.95 144.47 C 39.81 143.76 39.53 142.35 39.38 141.65 C 39.04 138.77 39.07 135.86 39.10 132.96 Z" />
</g>
<g id="#8556ffff">
<path fill="#8556ff" opacity="1.00" d=" M 56.17 130.86 C 57.37 130.41 58.56 129.95 59.74 129.49 C 59.47 135.77 59.59 142.05 59.90 148.32 C 59.24 156.35 60.46 164.34 60.99 172.33 C 61.31 172.17 61.93 171.86 62.24 171.70 C 63.89 174.31 66.08 176.50 68.66 178.17 C 68.18 178.19 67.21 178.22 66.72 178.24 C 65.96 178.27 64.44 178.32 63.68 178.35 C 56.10 170.87 57.44 159.34 56.35 149.64 C 56.09 143.60 56.73 137.55 56.13 131.53 L 56.17 130.86 Z" />
</g>
<g id="#7d57f2ff">
<path fill="#7d57f2" opacity="1.00" d=" M 82.83 132.26 C 83.04 131.59 83.46 130.24 83.67 129.56 C 84.21 129.79 85.30 130.25 85.85 130.48 C 84.55 140.94 86.27 151.52 84.91 161.96 C 84.36 162.15 83.27 162.54 82.72 162.74 C 82.70 152.58 82.23 142.40 82.83 132.26 Z" />
</g>
<g id="#9eedffff">
<path fill="#9eedff" opacity="1.00" d=" M 85.85 130.48 C 89.18 130.24 92.51 130.02 95.84 129.85 C 96.59 133.15 97.42 136.62 99.85 139.14 C 102.55 142.12 105.13 145.37 106.09 149.37 C 106.12 149.88 106.19 150.90 106.23 151.41 C 103.39 147.42 99.05 145.13 94.68 143.24 C 91.21 141.85 89.73 138.22 88.18 135.11 C 88.29 139.04 88.22 142.98 88.10 146.91 C 88.05 148.60 88.01 150.29 87.98 151.98 C 87.95 153.98 87.94 155.98 87.82 157.98 C 87.41 159.10 86.96 160.21 86.49 161.31 C 85.73 151.05 86.09 140.76 85.85 130.48 Z" />
</g>
<g id="#bef8ffff">
<path fill="#bef8ff" opacity="1.00" d=" M 123.07 132.12 C 124.33 129.98 127.08 130.00 129.22 129.50 C 129.93 129.56 131.34 129.68 132.04 129.74 C 130.33 133.10 128.92 136.65 126.71 139.73 C 124.45 142.77 120.55 143.65 117.47 145.57 C 115.48 146.46 115.56 149.00 114.96 150.80 C 114.65 152.96 114.38 155.13 114.16 157.31 C 114.08 153.89 113.83 150.48 113.78 147.07 C 116.66 141.96 119.90 137.05 123.07 132.12 Z" />
<path fill="#bef8ff" opacity="1.00" d=" M 171.06 130.28 C 171.50 130.18 172.38 129.97 172.82 129.87 C 172.53 136.00 172.71 142.13 172.93 148.26 C 172.93 149.47 172.91 150.68 172.88 151.90 C 172.84 153.27 172.79 154.63 172.75 156.00 C 172.68 158.00 172.63 160.01 172.58 162.02 C 172.43 167.05 172.41 172.09 172.78 177.11 C 174.92 177.31 177.06 177.52 179.20 177.66 C 176.54 177.61 173.88 177.57 171.22 177.55 C 171.34 162.03 171.34 146.50 170.82 130.99 L 171.06 130.28 Z" />
</g>
<g id="#97f7ffff">
<path fill="#97f7ff" opacity="1.00" d=" M 132.04 129.74 C 133.62 131.31 134.91 133.15 135.86 135.16 C 136.72 136.94 137.55 138.75 138.35 140.57 C 138.50 142.03 138.59 143.51 138.70 144.98 C 135.08 146.13 131.41 147.22 127.61 147.52 C 123.27 148.00 118.41 147.60 114.96 150.80 C 115.56 149.00 115.48 146.46 117.47 145.57 C 120.55 143.65 124.45 142.77 126.71 139.73 C 128.92 136.65 130.33 133.10 132.04 129.74 Z" />
</g>
<g id="#9eeefeff">
<path fill="#9eeefe" opacity="1.00" d=" M 144.80 130.65 C 145.91 130.44 147.03 130.24 148.15 130.05 C 148.18 137.73 147.38 145.39 146.08 152.96 L 145.91 153.82 L 145.07 153.74 C 144.78 146.04 145.43 138.34 144.80 130.65 Z" />
</g>
<g id="#84e3feff">
<path fill="#84e3fe" opacity="1.00" d=" M 148.15 130.05 C 153.30 129.55 159.03 128.69 163.63 131.67 C 163.39 136.53 163.46 141.39 163.46 146.25 C 159.45 148.69 154.73 148.82 150.21 149.38 C 148.08 149.36 147.06 151.41 146.08 152.96 C 147.38 145.39 148.18 137.73 148.15 130.05 Z" />
</g>
<g id="#7d16ecff">
<path fill="#7d16ec" opacity="1.00" d=" M 168.60 130.91 C 169.21 130.76 170.44 130.44 171.06 130.28 L 170.82 130.99 C 168.61 136.40 169.69 142.33 169.53 148.00 C 169.74 158.37 169.12 168.76 169.80 179.12 C 176.73 179.49 183.73 179.83 190.62 178.78 C 190.79 178.38 191.14 177.58 191.31 177.18 C 191.70 172.48 191.51 167.76 191.48 163.04 C 191.48 161.04 191.51 159.03 191.59 157.03 C 191.64 155.94 191.69 154.86 191.74 153.77 C 191.70 161.63 192.29 169.48 192.46 177.34 C 192.29 178.50 192.10 179.66 191.89 180.82 C 184.51 181.38 177.10 181.41 169.71 181.41 C 168.15 173.35 169.01 165.13 168.73 156.99 C 168.50 148.30 168.49 139.60 168.60 130.91 Z" />
<path fill="#7d16ec" opacity="1.00" d=" M 163.63 131.67 C 164.17 131.66 164.71 131.63 165.25 131.59 C 165.09 132.29 164.78 133.69 164.62 134.39 C 163.82 142.13 164.36 149.98 164.72 157.75 C 164.13 159.69 163.43 161.60 162.81 163.54 C 163.23 160.36 163.40 157.16 163.41 153.96 C 163.42 151.39 163.44 148.82 163.46 146.25 C 163.46 141.39 163.39 136.53 163.63 131.67 Z" />
<path fill="#7d16ec" opacity="1.00" d=" M 98.37 186.18 C 101.31 190.41 104.49 194.49 107.24 198.86 C 109.28 201.97 111.08 205.38 114.08 207.70 C 115.07 207.85 116.59 208.30 117.21 207.22 C 120.64 202.30 122.80 196.52 126.97 192.11 C 126.77 193.79 126.58 195.46 126.39 197.15 C 129.58 196.09 132.87 193.45 136.33 194.48 C 140.30 195.89 138.97 200.81 139.19 204.06 C 138.16 205.71 137.07 207.33 136.14 209.05 C 136.18 206.54 136.45 203.90 135.51 201.52 C 134.18 200.34 132.63 199.45 131.13 198.52 C 126.83 202.46 122.98 206.93 119.87 211.86 C 118.83 213.25 119.67 214.97 119.78 216.51 C 119.59 216.88 119.22 217.61 119.04 217.98 C 115.83 215.11 112.03 213.03 107.83 212.02 C 99.14 206.46 90.13 201.46 80.94 196.78 C 79.26 195.22 77.80 193.46 76.33 191.72 C 83.13 187.90 91.46 189.81 98.37 186.18 Z" />
</g>
<g id="#89eaffff">
<path fill="#89eaff" opacity="1.00" d=" M 172.82 129.87 C 177.64 129.58 182.47 129.75 187.29 129.90 C 183.75 136.86 178.97 143.27 172.93 148.26 C 172.71 142.13 172.53 136.00 172.82 129.87 Z" />
</g>
<g id="#7589feff">
<path fill="#7589fe" opacity="1.00" d=" M 43.30 135.17 C 47.61 133.80 51.93 132.42 56.17 130.86 L 56.13 131.53 C 53.69 135.31 53.40 139.82 53.66 144.20 C 53.29 143.14 52.89 142.09 52.49 141.05 C 49.45 141.71 46.42 142.45 43.43 143.29 C 42.81 142.91 41.58 142.17 40.97 141.80 C 41.81 139.61 42.64 137.42 43.30 135.17 Z" />
</g>
<g id="#14aafbff">
<path fill="#14aafb" opacity="1.00" d=" M 84.91 161.96 C 86.27 151.52 84.55 140.94 85.85 130.48 C 86.09 140.76 85.73 151.05 86.49 161.31 C 86.96 160.21 87.41 159.10 87.82 157.98 C 93.55 158.89 99.17 161.13 105.06 160.45 C 103.59 167.60 99.07 174.53 92.09 177.29 C 85.12 177.50 77.87 178.19 71.11 176.10 C 65.24 174.27 63.29 167.66 62.54 162.23 C 62.73 160.12 63.01 158.03 63.28 155.94 C 68.34 155.61 73.40 155.94 78.44 156.46 C 78.88 157.32 79.32 158.18 79.77 159.04 C 80.05 159.54 80.60 160.55 80.88 161.05 C 81.34 161.47 82.26 162.31 82.72 162.74 C 83.27 162.54 84.36 162.15 84.91 161.96 Z" />
</g>
<g id="#e065fbff">
<path fill="#e065fb" opacity="1.00" d=" M 107.21 132.11 C 108.91 131.87 110.61 131.62 112.32 131.37 C 112.28 135.83 112.33 140.30 112.59 144.76 C 112.43 146.24 112.24 147.72 112.03 149.19 C 111.47 148.75 110.34 147.86 109.78 147.42 C 110.04 142.81 110.73 137.98 109.43 133.49 C 109.07 133.19 108.34 132.59 107.98 132.29 C 107.82 138.67 107.69 145.06 107.40 151.44 C 107.18 151.98 106.75 153.07 106.53 153.61 C 106.46 153.06 106.30 151.96 106.23 151.41 C 106.19 150.90 106.12 149.88 106.09 149.37 C 106.58 143.63 107.56 137.89 107.21 132.11 Z" />
</g>
<g id="#52d5ffff">
<path fill="#52d5ff" opacity="1.00" d=" M 143.33 150.56 C 144.93 144.03 143.60 137.24 144.80 130.65 C 145.43 138.34 144.78 146.04 145.07 153.74 L 145.91 153.82 C 151.73 154.24 157.57 153.96 163.41 153.96 C 163.40 157.16 163.23 160.36 162.81 163.54 L 162.57 162.68 C 162.25 161.60 161.93 160.53 161.59 159.47 C 154.93 160.30 148.09 160.36 141.60 158.40 C 133.26 155.95 124.50 155.23 115.84 155.79 C 116.01 154.66 116.19 153.54 116.38 152.42 C 121.74 151.83 127.13 151.21 132.53 151.60 C 135.81 151.73 139.13 152.24 142.40 151.70 C 142.63 151.41 143.10 150.84 143.33 150.56 Z" />
</g>
<g id="#7326abff">
<path fill="#7326ab" opacity="1.00" d=" M 193.42 130.71 C 193.64 131.04 194.08 131.69 194.30 132.02 C 194.37 135.96 194.14 139.90 194.03 143.83 C 193.92 151.76 194.01 159.70 194.45 167.61 C 196.08 161.07 196.05 154.26 197.44 147.66 C 198.04 148.60 198.69 149.52 199.34 150.43 C 197.55 159.17 196.87 168.12 196.04 176.99 C 199.12 176.84 202.20 176.67 205.28 176.52 C 200.77 177.81 195.53 177.39 191.89 180.82 C 192.10 179.66 192.29 178.50 192.46 177.34 C 194.02 167.29 192.84 157.10 193.02 146.99 C 193.13 141.56 193.12 136.13 193.42 130.71 Z" />
</g>
<g id="#501ab4ff">
<path fill="#501ab4" opacity="1.00" d=" M 53.66 144.20 C 53.40 139.82 53.69 135.31 56.13 131.53 C 56.73 137.55 56.09 143.60 56.35 149.64 C 55.69 149.68 54.36 149.75 53.70 149.79 L 53.72 148.73 C 53.72 148.25 53.73 147.30 53.73 146.83 C 53.72 146.17 53.68 144.85 53.66 144.20 Z" />
</g>
<g id="#6e16e9ff">
<path fill="#6e16e9" opacity="1.00" d=" M 80.29 131.54 L 80.59 132.37 C 81.94 141.85 80.11 151.50 80.88 161.05 C 80.60 160.55 80.05 159.54 79.77 159.04 C 79.52 153.97 79.58 148.90 79.55 143.83 C 79.62 139.72 79.83 135.62 80.29 131.54 Z" />
<path fill="#6e16e9" opacity="1.00" d=" M 100.79 185.87 C 101.81 185.66 102.84 185.47 103.86 185.27 C 106.85 187.38 110.09 189.66 113.95 189.37 C 119.29 189.10 125.07 190.71 130.00 187.98 C 133.08 186.38 136.37 185.24 139.78 184.61 C 140.57 185.35 141.37 186.10 142.17 186.86 C 136.41 185.60 131.27 188.65 126.97 192.11 C 122.80 196.52 120.64 202.30 117.21 207.22 C 116.59 208.30 115.07 207.85 114.08 207.70 C 110.18 200.11 105.07 193.24 100.79 185.87 Z" />
</g>
<g id="#6b34bcff">
<path fill="#6b34bc" opacity="1.00" d=" M 138.69 133.84 C 139.74 133.08 140.78 132.31 141.80 131.50 C 144.14 136.88 143.59 142.96 142.37 148.55 C 141.13 146.11 139.80 143.72 138.66 141.23 C 138.60 138.77 138.67 136.30 138.69 133.84 Z" />
</g>
<g id="#674bafff">
<path fill="#674baf" opacity="1.00" d=" M 194.30 132.02 C 197.21 135.37 197.17 139.96 197.20 144.14 C 196.89 144.48 196.25 145.16 195.94 145.50 C 195.46 145.08 194.51 144.25 194.03 143.83 C 194.14 139.90 194.37 135.96 194.30 132.02 Z" />
</g>
<g id="#c211ebff">
<path fill="#c211eb" opacity="1.00" d=" M 107.98 132.29 C 108.34 132.59 109.07 133.19 109.43 133.49 C 110.73 137.98 110.04 142.81 109.78 147.42 C 109.74 147.78 109.68 148.49 109.64 148.84 C 108.94 150.05 108.23 151.25 107.50 152.45 L 107.40 151.44 C 107.69 145.06 107.82 138.67 107.98 132.29 Z" />
</g>
<g id="#470a82ff">
<path fill="#470a82" opacity="1.00" d=" M 165.07 133.82 C 165.65 133.42 166.82 132.63 167.40 132.23 C 167.81 139.39 167.52 146.57 167.59 153.74 C 167.51 154.67 167.34 156.54 167.26 157.48 C 166.15 156.22 164.96 154.84 165.05 153.05 C 164.67 146.65 164.96 140.23 165.07 133.82 Z" />
</g>
<g id="#febd1bff">
<path fill="#febd1b" opacity="1.00" d=" M 219.66 132.82 C 220.67 135.25 221.67 137.77 223.42 139.79 C 226.43 140.17 229.44 139.50 232.41 139.09 C 232.10 151.37 233.52 163.81 231.34 175.96 C 230.22 183.41 225.36 189.74 219.59 194.32 C 219.55 193.80 219.48 192.75 219.44 192.22 C 213.82 191.73 208.10 190.31 202.50 191.63 C 200.16 192.15 197.86 192.79 195.57 193.48 C 201.46 189.29 208.55 186.88 213.87 181.91 C 215.79 179.98 217.36 177.69 218.37 175.16 C 220.02 170.62 219.75 165.73 219.72 160.99 C 219.58 151.60 219.64 142.21 219.66 132.82 Z" />
</g>
<g id="#9884e8ff">
<path fill="#9884e8" opacity="1.00" d=" M 135.86 135.16 C 136.81 134.73 137.75 134.29 138.69 133.84 C 138.67 136.30 138.60 138.77 138.66 141.23 L 138.35 140.57 C 137.55 138.75 136.72 136.94 135.86 135.16 Z" />
</g>
<g id="#5c13b5ff">
<path fill="#5c13b5" opacity="1.00" d=" M 164.62 134.39 L 165.07 133.82 C 164.96 140.23 164.67 146.65 165.05 153.05 C 164.96 154.84 166.15 156.22 167.26 157.48 C 167.56 165.13 167.11 172.81 167.58 180.46 L 168.33 180.81 C 168.67 180.96 169.36 181.26 169.71 181.41 C 177.10 181.41 184.51 181.38 191.89 180.82 C 183.66 182.78 175.06 181.48 166.70 182.45 C 170.12 184.78 174.12 185.85 178.03 187.03 C 180.05 187.53 181.13 189.45 182.39 190.92 C 172.01 196.56 161.41 202.04 151.94 209.18 C 146.80 211.47 141.93 214.29 137.15 217.24 C 132.95 219.97 127.79 220.05 123.14 221.55 C 117.20 219.95 111.76 216.81 107.83 212.02 C 112.03 213.03 115.83 215.11 119.04 217.98 C 119.22 217.61 119.59 216.88 119.78 216.51 C 125.07 215.09 130.51 216.15 135.87 215.64 C 141.01 210.68 147.50 207.70 153.98 204.91 C 161.50 200.80 169.67 197.30 175.54 190.83 C 170.78 187.32 164.93 185.98 159.23 184.92 C 161.05 183.99 162.84 182.98 164.65 182.02 C 164.42 173.92 165.86 165.81 164.72 157.75 C 164.36 149.98 163.82 142.13 164.62 134.39 Z" />
</g>
<g id="#7edcffff">
<path fill="#7edcff" opacity="1.00" d=" M 88.18 135.11 C 89.73 138.22 91.21 141.85 94.68 143.24 C 99.05 145.13 103.39 147.42 106.23 151.41 C 106.30 151.96 106.46 153.06 106.53 153.61 C 100.78 150.40 94.68 147.76 88.10 146.91 C 88.22 142.98 88.29 139.04 88.18 135.11 Z" />
</g>
<g id="#9a8fffff">
<path fill="#9a8fff" opacity="1.00" d=" M 43.43 143.29 C 46.42 142.45 49.45 141.71 52.49 141.05 C 52.89 142.09 53.29 143.14 53.66 144.20 C 53.68 144.85 53.72 146.17 53.73 146.83 C 51.29 150.71 48.81 154.56 46.41 158.47 C 46.15 158.03 45.63 157.14 45.37 156.70 C 46.01 155.36 46.66 154.03 47.32 152.71 C 45.61 152.38 43.89 152.05 42.18 151.74 C 42.73 148.94 43.06 146.11 43.43 143.29 Z" />
</g>
<g id="#71e4ffff">
<path fill="#71e4ff" opacity="1.00" d=" M 138.35 140.57 L 138.66 141.23 C 139.80 143.72 141.13 146.11 142.37 148.55 C 142.61 149.05 143.09 150.05 143.33 150.56 C 143.10 150.84 142.63 151.41 142.40 151.70 C 139.13 152.24 135.81 151.73 132.53 151.60 C 127.13 151.21 121.74 151.83 116.38 152.42 C 116.19 153.54 116.01 154.66 115.84 155.79 C 115.02 160.89 115.29 166.07 115.65 171.20 C 115.75 173.17 115.89 175.15 116.00 177.13 C 115.20 175.84 114.45 174.47 114.39 172.92 C 113.90 167.73 114.07 162.51 114.16 157.31 C 114.38 155.13 114.65 152.96 114.96 150.80 C 118.41 147.60 123.27 148.00 127.61 147.52 C 131.41 147.22 135.08 146.13 138.70 144.98 C 138.59 143.51 138.50 142.03 138.35 140.57 Z" />
</g>
<g id="#735db3ff">
<path fill="#735db3" opacity="1.00" d=" M 36.65 144.14 C 37.56 143.30 38.47 142.47 39.38 141.65 C 39.53 142.35 39.81 143.76 39.95 144.47 C 39.71 148.28 39.23 152.08 39.04 155.89 C 38.53 156.19 37.51 156.78 37.00 157.08 C 36.96 156.54 36.87 155.48 36.83 154.95 C 36.63 151.35 36.62 147.74 36.65 144.14 Z" />
</g>
<g id="#9175e4ff">
<path fill="#9175e4" opacity="1.00" d=" M 40.97 141.80 C 41.58 142.17 42.81 142.91 43.43 143.29 C 43.06 146.11 42.73 148.94 42.18 151.74 C 41.38 154.69 40.14 157.50 39.05 160.35 C 39.01 158.86 39.01 157.38 39.04 155.89 C 39.23 152.08 39.71 148.28 39.95 144.47 C 40.21 143.80 40.71 142.46 40.97 141.80 Z" />
</g>
<g id="#41b6fdff">
<path fill="#41b6fd" opacity="1.00" d=" M 78.61 148.75 C 78.94 147.11 79.29 145.48 79.55 143.83 C 79.58 148.90 79.52 153.97 79.77 159.04 C 79.32 158.18 78.88 157.32 78.44 156.46 C 73.40 155.94 68.34 155.61 63.28 155.94 C 63.01 158.03 62.73 160.12 62.54 162.23 C 61.73 157.56 61.92 152.80 62.37 148.11 C 67.79 147.48 73.21 148.22 78.61 148.75 Z" />
</g>
<g id="#599dfeff">
<path fill="#599dfe" opacity="1.00" d=" M 112.60 145.62 C 112.87 145.14 113.40 144.17 113.66 143.68 C 113.69 144.53 113.75 146.22 113.78 147.07 C 113.83 150.48 114.08 153.89 114.16 157.31 C 114.07 162.51 113.90 167.73 114.39 172.92 C 114.45 174.47 115.20 175.84 116.00 177.13 C 121.64 177.43 127.29 177.14 132.91 176.68 C 133.12 174.68 133.33 172.68 133.45 170.67 C 133.62 173.10 133.78 175.52 133.89 177.95 C 132.37 178.36 130.84 178.78 129.30 179.08 C 123.93 179.02 118.57 178.66 113.24 178.06 C 112.99 167.25 112.87 156.43 112.60 145.62 Z" />
</g>
<g id="#5530a0ff">
<path fill="#5530a0" opacity="1.00" d=" M 194.03 143.83 C 194.51 144.25 195.46 145.08 195.94 145.50 C 196.31 145.84 197.05 146.52 197.41 146.87 L 197.44 147.66 C 196.05 154.26 196.08 161.07 194.45 167.61 C 194.01 159.70 193.92 151.76 194.03 143.83 Z" />
</g>
<g id="#6360fcff">
<path fill="#6360fc" opacity="1.00" d=" M 112.59 144.76 L 112.60 145.62 C 112.87 156.43 112.99 167.25 113.24 178.06 C 118.57 178.66 123.93 179.02 129.30 179.08 C 123.83 180.22 118.22 179.97 112.68 180.22 C 111.70 169.92 111.35 159.53 112.03 149.19 C 112.24 147.72 112.43 146.24 112.59 144.76 Z" />
</g>
<g id="#6dd6ffff">
<path fill="#6dd6ff" opacity="1.00" d=" M 150.21 149.38 C 154.73 148.82 159.45 148.69 163.46 146.25 C 163.44 148.82 163.42 151.39 163.41 153.96 C 157.57 153.96 151.73 154.24 145.91 153.82 L 146.08 152.96 C 147.06 151.41 148.08 149.36 150.21 149.38 Z" />
</g>
<g id="#9d62ffff">
<path fill="#9d62ff" opacity="1.00" d=" M 46.41 158.47 C 48.81 154.56 51.29 150.71 53.73 146.83 C 53.73 147.30 53.72 148.25 53.72 148.73 C 53.59 152.91 53.16 157.07 52.96 161.24 C 50.00 162.57 46.87 163.47 43.67 163.99 C 44.66 162.19 45.54 160.33 46.41 158.47 Z" />
</g>
<g id="#56cbffff">
<path fill="#56cbff" opacity="1.00" d=" M 88.10 146.91 C 94.68 147.76 100.78 150.40 106.53 153.61 C 106.36 154.33 106.00 155.77 105.83 156.49 C 99.61 156.15 94.24 152.34 87.98 151.98 C 88.01 150.29 88.05 148.60 88.10 146.91 Z" />
</g>
<g id="#8843d7ff">
<path fill="#8843d7" opacity="1.00" d=" M 109.64 148.84 C 109.68 148.49 109.74 147.78 109.78 147.42 C 110.34 147.86 111.47 148.75 112.03 149.19 C 111.35 159.53 111.70 169.92 112.68 180.22 L 112.76 181.19 L 111.68 181.26 C 109.85 175.34 110.44 169.10 110.32 163.00 C 110.35 158.27 109.79 153.56 109.64 148.84 Z" />
</g>
<g id="#8e38cdff">
<path fill="#8e38cd" opacity="1.00" d=" M 52.96 161.24 C 53.16 157.07 53.59 152.91 53.72 148.73 L 53.70 149.79 C 53.50 158.66 54.04 167.67 56.83 176.15 C 56.95 176.53 57.19 177.29 57.31 177.68 C 53.46 177.72 49.61 177.95 45.76 178.07 C 43.49 177.30 41.21 176.57 38.93 175.87 C 38.48 174.69 38.06 173.50 37.82 172.27 C 38.06 171.91 38.53 171.18 38.77 170.82 C 40.82 172.90 42.65 175.38 45.37 176.64 C 48.45 177.71 51.78 177.10 54.96 176.94 C 53.83 171.79 52.62 166.56 52.96 161.24 Z" />
</g>
<g id="#481389ff">
<path fill="#481389" opacity="1.00" d=" M 109.64 148.84 C 109.79 153.56 110.35 158.27 110.32 163.00 C 110.44 169.10 109.85 175.34 111.68 181.26 C 118.45 182.09 125.29 181.62 132.08 182.14 C 131.33 183.79 131.23 186.63 128.82 186.54 C 123.64 187.06 118.38 187.03 113.20 186.58 C 108.83 186.15 107.72 181.00 107.27 177.42 C 107.51 170.92 107.10 164.43 107.40 157.94 C 107.55 156.11 107.57 154.28 107.50 152.45 C 108.23 151.25 108.94 150.05 109.64 148.84 Z" />
</g>
<g id="#450e7fff">
<path fill="#450e7f" opacity="1.00" d=" M 53.70 149.79 C 54.36 149.75 55.69 149.68 56.35 149.64 C 57.44 159.34 56.10 170.87 63.68 178.35 C 68.32 181.96 74.45 181.84 80.02 181.80 C 86.29 181.77 93.04 181.06 98.07 176.94 C 100.25 177.03 102.42 177.15 104.59 177.28 C 104.07 178.48 103.59 179.70 102.85 180.79 C 100.98 182.65 98.04 181.86 95.88 183.06 C 88.50 187.97 79.06 187.36 70.65 186.45 C 64.50 185.87 59.93 181.10 56.83 176.15 C 54.04 167.67 53.50 158.66 53.70 149.79 Z" />
</g>
<g id="#61c0feff">
<path fill="#61c0fe" opacity="1.00" d=" M 172.88 151.90 C 179.14 150.81 185.51 150.80 191.83 151.02 C 191.81 151.71 191.76 153.08 191.74 153.77 C 191.69 154.86 191.64 155.94 191.59 157.03 C 185.35 156.14 179.04 155.87 172.75 156.00 C 172.79 154.63 172.84 153.27 172.88 151.90 Z" />
</g>
<g id="#b97bfcff">
<path fill="#b97bfc" opacity="1.00" d=" M 42.18 151.74 C 43.89 152.05 45.61 152.38 47.32 152.71 C 46.66 154.03 46.01 155.36 45.37 156.70 C 43.61 159.73 41.53 162.56 39.25 165.23 C 39.16 163.60 39.06 161.97 39.05 160.35 C 40.14 157.50 41.38 154.69 42.18 151.74 Z" />
</g>
<g id="#34bbffff">
<path fill="#34bbff" opacity="1.00" d=" M 87.98 151.98 C 94.24 152.34 99.61 156.15 105.83 156.49 C 105.56 157.81 105.33 159.13 105.06 160.45 C 99.17 161.13 93.55 158.89 87.82 157.98 C 87.94 155.98 87.95 153.98 87.98 151.98 Z" />
</g>
<g id="#7212ebff">
<path fill="#7212eb" opacity="1.00" d=" M 107.40 151.44 L 107.50 152.45 C 107.57 154.28 107.55 156.11 107.40 157.94 C 105.65 164.81 103.54 172.03 98.07 176.94 C 93.04 181.06 86.29 181.77 80.02 181.80 C 74.45 181.84 68.32 181.96 63.68 178.35 C 64.44 178.32 65.96 178.27 66.72 178.24 C 75.16 178.94 83.93 180.47 92.09 177.29 C 99.07 174.53 103.59 167.60 105.06 160.45 C 105.33 159.13 105.56 157.81 105.83 156.49 C 106.00 155.77 106.36 154.33 106.53 153.61 C 106.75 153.07 107.18 151.98 107.40 151.44 Z" />
</g>
<g id="#ee26ffff">
<path fill="#ee26ff" opacity="1.00" d=" M 167.59 153.74 C 168.93 162.71 167.90 171.79 168.33 180.81 L 167.58 180.46 C 167.11 172.81 167.56 165.13 167.26 157.48 C 167.34 156.54 167.51 154.67 167.59 153.74 Z" />
<path fill="#ee26ff" opacity="1.00" d=" M 150.63 185.29 C 152.68 184.67 154.88 185.09 156.97 185.19 C 156.70 187.75 156.87 190.80 154.54 192.50 C 149.26 196.92 144.53 201.99 138.86 205.93 C 138.94 205.46 139.11 204.52 139.19 204.06 C 141.91 198.86 144.66 193.67 147.76 188.69 C 148.64 187.50 149.48 186.24 150.63 185.29 Z" />
</g>
<g id="#b25656ff">
<path fill="#b25656" opacity="1.00" d=" M 32.82 160.39 C 35.03 159.32 36.43 157.35 36.83 154.95 C 36.87 155.48 36.96 156.54 37.00 157.08 C 37.32 160.47 37.36 163.88 37.42 167.29 C 35.83 168.42 34.23 169.52 32.60 170.60 C 32.71 167.19 32.81 163.79 32.82 160.39 Z" />
</g>
<g id="#30d4ffff">
<path fill="#30d4ff" opacity="1.00" d=" M 115.84 155.79 C 124.50 155.23 133.26 155.95 141.60 158.40 C 148.09 160.36 154.93 160.30 161.59 159.47 C 161.93 160.53 162.25 161.60 162.57 162.68 C 162.31 165.01 161.95 167.33 161.60 169.65 C 157.70 169.99 153.80 169.64 149.91 169.38 C 147.06 169.04 144.72 171.00 142.39 172.32 C 139.97 169.88 137.91 167.08 135.30 164.82 C 134.57 164.16 133.77 163.59 132.96 163.03 C 128.16 159.48 122.22 158.63 116.40 159.28 C 115.94 163.23 115.54 167.21 115.65 171.20 C 115.29 166.07 115.02 160.89 115.84 155.79 Z" />
</g>
<g id="#e19ad5ff">
<path fill="#e19ad5" opacity="1.00" d=" M 37.00 157.08 C 37.51 156.78 38.53 156.19 39.04 155.89 C 39.01 157.38 39.01 158.86 39.05 160.35 C 39.06 161.97 39.16 163.60 39.25 165.23 C 41.53 162.56 43.61 159.73 45.37 156.70 C 45.63 157.14 46.15 158.03 46.41 158.47 C 45.54 160.33 44.66 162.19 43.67 163.99 C 42.12 166.33 40.37 168.52 38.77 170.82 C 38.53 171.18 38.06 171.91 37.82 172.27 C 37.58 170.61 37.46 168.95 37.42 167.29 C 37.36 163.88 37.32 160.47 37.00 157.08 Z" />
</g>
<g id="#3cb6fdff">
<path fill="#3cb6fd" opacity="1.00" d=" M 172.75 156.00 C 179.04 155.87 185.35 156.14 191.59 157.03 C 191.51 159.03 191.48 161.04 191.48 163.04 C 185.20 162.40 178.89 162.06 172.58 162.02 C 172.63 160.01 172.68 158.00 172.75 156.00 Z" />
</g>
<g id="#8740a0ff">
<path fill="#8740a0" opacity="1.00" d=" M 107.40 157.94 C 107.10 164.43 107.51 170.92 107.27 177.42 C 106.60 177.38 105.26 177.31 104.59 177.28 C 102.42 177.15 100.25 177.03 98.07 176.94 C 103.54 172.03 105.65 164.81 107.40 157.94 Z" />
</g>
<g id="#b227e3ff">
<path fill="#b227e3" opacity="1.00" d=" M 164.72 157.75 C 165.86 165.81 164.42 173.92 164.65 182.02 C 162.84 182.98 161.05 183.99 159.23 184.92 L 158.16 185.37 C 158.38 182.42 161.17 181.41 163.45 180.27 C 163.28 179.24 163.10 178.21 162.95 177.18 C 162.27 172.66 162.57 168.08 162.81 163.54 C 163.43 161.60 164.13 159.69 164.72 157.75 Z" />
</g>
<g id="#17b8ffff">
<path fill="#17b8ff" opacity="1.00" d=" M 116.40 159.28 C 122.22 158.63 128.16 159.48 132.96 163.03 C 133.06 164.60 133.16 166.18 133.27 167.76 C 133.32 168.48 133.40 169.94 133.45 170.67 C 133.33 172.68 133.12 174.68 132.91 176.68 C 127.29 177.14 121.64 177.43 116.00 177.13 C 115.89 175.15 115.75 173.17 115.65 171.20 C 115.54 167.21 115.94 163.23 116.40 159.28 Z" />
</g>
<g id="#bd45f9ff">
<path fill="#bd45f9" opacity="1.00" d=" M 43.67 163.99 C 46.87 163.47 50.00 162.57 52.96 161.24 C 52.62 166.56 53.83 171.79 54.96 176.94 C 51.78 177.10 48.45 177.71 45.37 176.64 C 42.65 175.38 40.82 172.90 38.77 170.82 C 40.37 168.52 42.12 166.33 43.67 163.99 Z" />
<path fill="#bd45f9" opacity="1.00" d=" M 97.48 183.46 C 98.63 184.18 99.80 184.91 100.79 185.87 C 105.07 193.24 110.18 200.11 114.08 207.70 C 111.08 205.38 109.28 201.97 107.24 198.86 C 104.49 194.49 101.31 190.41 98.37 186.18 C 98.06 185.27 97.76 184.37 97.48 183.46 Z" />
</g>
<g id="#16acfcff">
<path fill="#16acfc" opacity="1.00" d=" M 172.58 162.02 C 178.89 162.06 185.20 162.40 191.48 163.04 C 191.51 167.76 191.70 172.48 191.31 177.18 C 187.29 177.57 183.24 177.81 179.20 177.66 C 177.06 177.52 174.92 177.31 172.78 177.11 C 172.41 172.09 172.43 167.05 172.58 162.02 Z" />
</g>
<g id="#48f0ffff">
<path fill="#48f0ff" opacity="1.00" d=" M 162.57 162.68 L 162.81 163.54 C 162.57 168.08 162.27 172.66 162.95 177.18 L 162.26 177.46 C 160.33 176.62 158.53 174.91 156.28 175.29 C 151.47 175.81 145.66 176.92 142.39 172.32 C 144.72 171.00 147.06 169.04 149.91 169.38 C 153.80 169.64 157.70 169.99 161.60 169.65 C 161.95 167.33 162.31 165.01 162.57 162.68 Z" />
</g>
<g id="#fcfcffff">
<path fill="#fcfcff" opacity="1.00" d=" M 142.50 177.41 C 141.36 172.54 136.92 169.50 135.30 164.82 C 137.91 167.08 139.97 169.88 142.39 172.32 C 145.66 176.92 151.47 175.81 156.28 175.29 C 158.53 174.91 160.33 176.62 162.26 177.46 C 156.24 180.48 148.35 181.05 142.50 177.41 Z" />
</g>
<g id="#fff22eff">
<path fill="#fff22e" opacity="1.00" d=" M 17.64 169.45 C 22.02 169.09 26.37 168.16 30.35 166.24 C 30.32 170.37 30.44 174.76 32.69 178.37 C 35.07 182.54 39.30 185.07 43.36 187.36 C 41.73 190.63 40.15 193.93 38.53 197.21 C 39.28 198.17 40.02 199.14 40.80 200.08 C 31.96 196.32 23.86 189.97 20.00 180.96 C 18.56 177.28 18.36 173.30 17.64 169.45 Z" />
</g>
<g id="#de5371ff">
<path fill="#de5371" opacity="1.00" d=" M 32.60 170.60 C 34.23 169.52 35.83 168.42 37.42 167.29 C 37.46 168.95 37.58 170.61 37.82 172.27 C 38.06 173.50 38.48 174.69 38.93 175.87 C 40.28 177.25 41.73 178.53 43.20 179.79 C 44.32 181.88 45.19 184.09 46.03 186.31 C 40.14 183.44 33.83 179.32 32.55 172.38 C 32.56 171.94 32.59 171.04 32.60 170.60 Z" />
</g>
<g id="#a11bffff">
<path fill="#a11bff" opacity="1.00" d=" M 133.27 167.76 C 134.42 169.08 135.54 170.43 136.69 171.75 C 136.42 172.25 135.88 173.24 135.61 173.74 C 135.12 175.92 135.09 178.17 135.10 180.39 C 127.77 182.50 120.19 180.06 112.76 181.19 L 112.68 180.22 C 118.22 179.97 123.83 180.22 129.30 179.08 C 130.84 178.78 132.37 178.36 133.89 177.95 C 133.78 175.52 133.62 173.10 133.45 170.67 C 133.40 169.94 133.32 168.48 133.27 167.76 Z" />
<path fill="#a11bff" opacity="1.00" d=" M 156.97 185.19 C 157.27 185.23 157.86 185.33 158.16 185.37 C 161.50 186.74 164.97 188.09 167.74 190.47 C 168.22 191.94 167.94 193.66 166.66 194.63 C 161.99 198.89 155.89 201.03 150.00 203.00 C 144.59 204.66 140.57 208.81 135.95 211.85 C 135.92 211.35 135.87 210.36 135.84 209.86 L 136.14 209.05 C 137.07 207.33 138.16 205.71 139.19 204.06 C 139.11 204.52 138.94 205.46 138.86 205.93 C 144.53 201.99 149.26 196.92 154.54 192.50 C 156.87 190.80 156.70 187.75 156.97 185.19 Z" />
</g>
<g id="#582264ff">
<path fill="#582264" opacity="1.00" d=" M 212.39 168.93 C 214.07 168.74 215.76 168.57 217.44 168.40 C 217.78 170.65 218.13 172.90 218.37 175.16 C 217.36 177.69 215.79 179.98 213.87 181.91 C 205.64 186.81 197.28 191.51 188.88 196.13 C 187.72 195.62 186.66 194.32 185.29 194.64 C 181.68 195.38 178.23 196.70 174.77 197.92 C 178.51 195.65 181.92 192.91 185.23 190.06 C 192.38 185.57 200.85 183.63 207.73 178.71 C 210.96 176.52 211.53 172.42 212.39 168.93 Z" />
</g>
<g id="#441382ff">
<path fill="#441382" opacity="1.00" d=" M 205.28 176.52 C 208.16 174.51 210.22 171.63 212.39 168.93 C 211.53 172.42 210.96 176.52 207.73 178.71 C 200.85 183.63 192.38 185.57 185.23 190.06 C 184.28 190.35 183.34 190.63 182.39 190.92 C 181.13 189.45 180.05 187.53 178.03 187.03 C 174.12 185.85 170.12 184.78 166.70 182.45 C 175.06 181.48 183.66 182.78 191.89 180.82 C 195.53 177.39 200.77 177.81 205.28 176.52 Z" />
</g>
<g id="#fe2dffff">
<path fill="#fe2dff" opacity="1.00" d=" M 135.61 173.74 C 135.88 173.24 136.42 172.25 136.69 171.75 C 138.47 173.78 140.38 175.72 142.50 177.41 C 148.35 181.05 156.24 180.48 162.26 177.46 L 162.95 177.18 C 163.10 178.21 163.28 179.24 163.45 180.27 C 161.17 181.41 158.38 182.42 158.16 185.37 C 157.86 185.33 157.27 185.23 156.97 185.19 C 154.88 185.09 152.68 184.67 150.63 185.29 C 149.48 186.24 148.64 187.50 147.76 188.69 C 147.68 187.65 147.59 186.61 147.51 185.57 C 143.28 181.90 139.22 178.03 135.61 173.74 Z" />
</g>
<g id="#9112b3ff">
<path fill="#9112b3" opacity="1.00" d=" M 135.10 180.39 C 135.09 178.17 135.12 175.92 135.61 173.74 C 139.22 178.03 143.28 181.90 147.51 185.57 C 145.77 186.16 144.00 186.70 142.17 186.86 C 141.37 186.10 140.57 185.35 139.78 184.61 C 138.24 183.17 136.69 181.76 135.10 180.39 Z" />
</g>
<g id="#6d18ccff">
<path fill="#6d18cc" opacity="1.00" d=" M 45.76 178.07 C 49.61 177.95 53.46 177.72 57.31 177.68 C 57.73 179.62 58.89 181.77 57.90 183.73 C 53.36 183.11 49.48 180.55 45.76 178.07 Z" />
</g>
<g id="#9c3e6aff">
<path fill="#9c3e6a" opacity="1.00" d=" M 43.20 179.79 C 46.96 181.77 50.79 183.61 54.49 185.69 C 54.65 187.61 54.80 189.53 54.95 191.45 C 51.92 189.82 48.99 188.03 46.03 186.31 C 45.19 184.09 44.32 181.88 43.20 179.79 Z" />
</g>
<g id="#8a16fcff">
<path fill="#8a16fc" opacity="1.00" d=" M 147.51 185.57 C 147.59 186.61 147.68 187.65 147.76 188.69 C 144.66 193.67 141.91 198.86 139.19 204.06 C 138.97 200.81 140.30 195.89 136.33 194.48 C 132.87 193.45 129.58 196.09 126.39 197.15 C 126.58 195.46 126.77 193.79 126.97 192.11 C 131.27 188.65 136.41 185.60 142.17 186.86 C 144.00 186.70 145.77 186.16 147.51 185.57 Z" />
</g>
<g id="#7d19e9ff">
<path fill="#7d19e9" opacity="1.00" d=" M 158.16 185.37 L 159.23 184.92 C 164.93 185.98 170.78 187.32 175.54 190.83 C 169.67 197.30 161.50 200.80 153.98 204.91 C 147.50 207.70 141.01 210.68 135.87 215.64 C 135.39 215.18 134.43 214.25 133.95 213.78 C 134.59 212.48 135.23 211.18 135.84 209.86 C 135.87 210.36 135.92 211.35 135.95 211.85 C 140.57 208.81 144.59 204.66 150.00 203.00 C 155.89 201.03 161.99 198.89 166.66 194.63 C 167.94 193.66 168.22 191.94 167.74 190.47 C 164.97 188.09 161.50 186.74 158.16 185.37 Z" />
</g>
<g id="#642b64ff">
<path fill="#642b64" opacity="1.00" d=" M 54.49 185.69 C 61.78 189.68 69.13 193.56 76.46 197.48 C 83.57 202.22 91.56 205.52 98.38 210.69 C 92.96 208.84 88.09 205.61 82.45 204.38 C 82.52 205.14 82.67 206.65 82.74 207.41 C 73.34 202.33 64.17 196.84 54.95 191.45 C 54.80 189.53 54.65 187.61 54.49 185.69 Z" />
</g>
<g id="#ffda1fff">
<path fill="#ffda1f" opacity="1.00" d=" M 38.53 197.21 C 40.15 193.93 41.73 190.63 43.36 187.36 C 47.57 189.67 51.83 191.88 56.00 194.27 C 51.96 196.52 49.78 200.65 49.14 205.11 C 46.27 203.59 43.24 202.26 40.80 200.08 C 40.02 199.14 39.28 198.17 38.53 197.21 Z" />
</g>
<g id="#6e2f8dff">
<path fill="#6e2f8d" opacity="1.00" d=" M 182.39 190.92 C 183.34 190.63 184.28 190.35 185.23 190.06 C 181.92 192.91 178.51 195.65 174.77 197.92 C 167.17 201.70 160.51 207.62 151.94 209.18 C 161.41 202.04 172.01 196.56 182.39 190.92 Z" />
</g>
<g id="#fdb20dff">
<path fill="#fdb20d" opacity="1.00" d=" M 202.50 191.63 C 208.10 190.31 213.82 191.73 219.44 192.22 C 219.48 192.75 219.55 193.80 219.59 194.32 C 193.70 209.24 167.62 223.81 141.71 238.68 C 134.95 242.70 126.72 244.90 118.93 242.95 C 112.20 241.67 106.59 237.49 100.65 234.33 C 93.16 229.77 85.18 225.98 77.93 221.09 C 76.66 219.95 75.45 218.75 74.23 217.57 C 76.77 214.61 79.52 211.84 82.44 209.25 C 93.56 215.54 104.69 221.80 115.80 228.10 C 120.05 230.65 125.34 231.35 130.08 229.88 C 135.78 227.74 141.07 224.54 145.95 220.90 C 146.41 220.64 147.34 220.10 147.80 219.83 C 150.11 218.82 152.42 217.78 154.63 216.55 C 168.23 208.77 181.83 201.00 195.57 193.48 C 197.86 192.79 200.16 192.15 202.50 191.63 Z" />
</g>
<g id="#471072ff">
<path fill="#471072" opacity="1.00" d=" M 185.29 194.64 C 186.66 194.32 187.72 195.62 188.88 196.13 C 175.32 204.26 161.23 211.50 147.80 219.83 C 147.34 220.10 146.41 220.64 145.95 220.90 C 141.28 223.22 136.88 226.05 132.15 228.26 C 127.07 230.61 121.09 229.52 116.45 226.66 C 105.21 220.25 93.98 213.83 82.74 207.41 C 82.67 206.65 82.52 205.14 82.45 204.38 C 88.09 205.61 92.96 208.84 98.38 210.69 C 104.71 214.85 111.51 218.25 118.21 221.76 C 119.81 222.86 121.54 222.25 123.14 221.55 C 127.79 220.05 132.95 219.97 137.15 217.24 C 141.93 214.29 146.80 211.47 151.94 209.18 C 160.51 207.62 167.17 201.70 174.77 197.92 C 178.23 196.70 181.68 195.38 185.29 194.64 Z" />
</g>
<g id="#ffbb15ff">
<path fill="#ffbb15" opacity="1.00" d=" M 49.14 205.11 C 49.78 200.65 51.96 196.52 56.00 194.27 C 64.85 199.21 73.75 204.04 82.44 209.25 C 79.52 211.84 76.77 214.61 74.23 217.57 C 75.45 218.75 76.66 219.95 77.93 221.09 C 68.07 216.25 58.66 210.55 49.14 205.11 Z" />
</g>
<g id="#903ba7ff">
<path fill="#903ba7" opacity="1.00" d=" M 76.46 197.48 C 77.92 197.09 79.41 196.67 80.94 196.78 C 90.13 201.46 99.14 206.46 107.83 212.02 C 111.76 216.81 117.20 219.95 123.14 221.55 C 121.54 222.25 119.81 222.86 118.21 221.76 C 111.51 218.25 104.71 214.85 98.38 210.69 C 91.56 205.52 83.57 202.22 76.46 197.48 Z" />
</g>
<g id="#6815d9ff">
<path fill="#6815d9" opacity="1.00" d=" M 119.87 211.86 C 122.98 206.93 126.83 202.46 131.13 198.52 C 132.63 199.45 134.18 200.34 135.51 201.52 C 136.45 203.90 136.18 206.54 136.14 209.05 L 135.84 209.86 C 135.23 211.18 134.59 212.48 133.95 213.78 C 134.43 214.25 135.39 215.18 135.87 215.64 C 130.51 216.15 125.07 215.09 119.78 216.51 C 119.67 214.97 118.83 213.25 119.87 211.86 Z" />
</g>
</svg>
