<?xml version="1.0" encoding="utf-8"?>
<!-- Generator: Adobe Illustrator 26.0.3, SVG Export Plug-In . SVG Version: 6.00 Build 0)  -->
<svg version="1.1" id="Layer_1" xmlns="http://www.w3.org/2000/svg" xmlns:xlink="http://www.w3.org/1999/xlink" x="0px" y="0px"
	 viewBox="0 0 250 250" style="enable-background:new 0 0 250 250;" xml:space="preserve">
<style type="text/css">
	.st0{fill:#B1B3BB;}
	.st1{fill:#5F646F;}
	.st2{fill:#3B3E49;}
	.st3{fill:#575C68;}
	.st4{fill:#9B9DA8;}
	.st5{fill:#5F616B;}
	.st6{fill:#A6A9B0;}
	.st7{fill:#797C82;}
	.st8{fill:#393B44;}
	.st9{fill:#86868C;}
	.st10{fill:#B2B3B7;}
	.st11{fill:#2D292C;}
	.st12{fill:#BCBCBF;}
	.st13{fill:#615F65;}
	.st14{fill:#484851;}
	.st15{fill:#646064;}
	.st16{fill:#75757B;}
	.st17{fill:#B1B2B6;}
	.st18{fill:#6A666D;}
	.st19{fill:#63646B;}
	.st20{fill:#3D3C40;}
	.st21{fill:#929397;}
	.st22{fill:#C7C7CA;}
	.st23{fill:#A67A63;}
	.st24{fill:#A67B65;}
	.st25{fill:#C18C6F;}
	.st26{fill:#664C3F;}
	.st27{fill:#60473D;}
	.st28{fill:#433939;}
	.st29{fill:#433938;}
	.st30{fill:#B6B7BC;}
	.st31{fill:#B8B9BE;}
	.st32{fill:#797A80;}
	.st33{fill:#4C484D;}
	.st34{fill:#74767C;}
	.st35{fill:#BFC4C5;}
	.st36{fill:#685D5B;}
	.st37{fill:#6A5E5C;}
	.st38{fill:#D59C7E;}
	.st39{fill:#EDC9A7;}
	.st40{fill:#EABB9A;}
	.st41{fill:#B6B2B3;}
	.st42{fill:#3D292A;}
	.st43{fill:#402C2C;}
	.st44{fill:#868285;}
	.st45{fill:#4D484B;}
	.st46{fill:#E8CFB6;}
	.st47{fill:#BD9275;}
	.st48{fill:#EBDED7;}
	.st49{fill:#CFA284;}
	.st50{fill:#F2D7B5;}
	.st51{fill:#AEABB0;}
	.st52{fill:#433E44;}
	.st53{fill:#443F45;}
	.st54{fill:#2F282A;}
	.st55{fill:#916952;}
	.st56{fill:#676065;}
	.st57{fill:#5F4230;}
	.st58{fill:#656267;}
	.st59{fill:#ABA8AD;}
	.st60{fill:#D1BCAE;}
	.st61{fill:#87888E;}
	.st62{fill:#BD8D72;}
	.st63{fill:#A77762;}
	.st64{fill:#5C5A5C;}
	.st65{fill:#909094;}
	.st66{fill:#7B5751;}
	.st67{fill:#B5A3AE;}
	.st68{fill:#715E6D;}
	.st69{fill:#48161E;}
	.st70{fill:#843539;}
	.st71{fill:#4D4D52;}
	.st72{fill:#9E7364;}
	.st73{fill:#32333E;}
	.st74{fill:#45464E;}
	.st75{fill:#D6ABB5;}
	.st76{fill:#85848B;}
	.st77{fill:#6C6E78;}
	.st78{fill:#D3D1D3;}
	.st79{fill:#A79488;}
	.st80{fill:#A8A5A7;}
	.st81{fill:#C3C3C9;}
	.st82{fill:#7A777D;}
	.st83{fill:#686467;}
	.st84{fill:#2E2C31;}
	.st85{fill:#646167;}
	.st86{fill:#7B6D67;}
	.st87{fill:#53545B;}
	.st88{fill:#F5E3B2;}
	.st89{fill:#BD9A81;}
	.st90{fill:#EBCB73;}
	.st91{fill:#E9D0B5;}
	.st92{fill:#FDF7DA;}
	.st93{fill:#C49444;}
	.st94{fill:#1C1C22;}
	.st95{fill:#FCFAAC;}
	.st96{fill:#986B33;}
	.st97{fill:#6E5029;}
	.st98{fill:#E9C39F;}
	.st99{fill:#FDF47E;}
	.st100{fill:#48423C;}
	.st101{fill:#F3C960;}
	.st102{fill:#79675B;}
	.st103{fill:#D6A34F;}
	.st104{fill:#64584D;}
	.st105{fill:#4A391E;}
	.st106{fill:#E7C6AC;}
	.st107{fill:#B18848;}
	.st108{fill:#F8EAD0;}
	.st109{fill:#A88E7D;}
	.st110{fill:#5C534E;}
	.st111{fill:#896E3A;}
	.st112{fill:#DEBD9F;}
	.st113{fill:#E3C4A3;}
	.st114{fill:#C39D7F;}
	.st115{fill:#BEA48F;}
	.st116{fill:#817368;}
	.st117{fill:#5D512B;}
	.st118{fill:#B2A27F;}
	.st119{fill:#6A5B32;}
	.st120{fill:#605957;}
	.st121{fill:#F4D8AD;}
	.st122{fill:#917261;}
	.st123{fill:#9C8676;}
	.st124{fill:#514727;}
	.st125{fill:#D7AF8A;}
	.st126{fill:#B28A70;}
	.st127{fill:#8E7B6E;}
	.st128{fill:#A89777;}
	.st129{fill:#65554B;}
	.st130{fill:#8A6B5A;}
	.st131{fill:#E6C5A1;}
	.st132{fill:#67564B;}
	.st133{fill:#494441;}
	.st134{fill:#907E62;}
	.st135{fill:#A7916A;}
</style>
<g id="_x23_b1b3bbff">
	<path class="st0" d="M103.7,23.7c2.7-1.3,5.7-0.3,8.5,0C109.4,23.7,106.6,23.7,103.7,23.7z"/>
</g>
<g id="_x23_5f646fff">
	<path class="st1" d="M96,28.9c2.5-1.8,4.7-4.2,7.7-5.2c2.8,0,5.7,0,8.5,0c7.8-1.1,8.3,10.6,15.5,9.3l0.4,0.7
		c-0.5,0.1-1.6,0.3-2.1,0.4c-7.1,0.4-10.7-9.1-18.5-7.5c-5.4-0.2-9.7,7.4-14.8,3.8C94,30.1,95,29.6,96,28.9z"/>
</g>
<g id="_x23_3b3e49ff">
	<path class="st2" d="M107.6,26.6c7.8-1.6,11.3,7.9,18.5,7.5c3.2,7.4-6.9,11.1-3.7,18.3c-1,4.5,3.4,4.6,5.5,6.8
		c-0.3,5.1-3.9,9.3-6.2,13.7c-3.5,1.1-3.6-4.9-5.4-6.6c1.3-8.5-7.7-15.5-14.4-19.3c-6.2,0.1,0.1,6.1,2.2,7.9
		c-5.9-1.9-10.4-6.2-15.2-10c-4.6,3.6,5.9,7.5,7.2,11.2c-2.5-0.2-4.9-1.1-7.2-2c4.6,0.2-1.2-2.3-2.6-3.3c-6.2-5.4-9.2-14.5-2.4-21
		c3,0.2,5.9,0.3,8.9,0.6C97.9,34,102.2,26.4,107.6,26.6 M115.2,45.1c-3,3.8,2,10.3,5.9,11.9C120.4,52.8,118.9,47.1,115.2,45.1z"/>
</g>
<g id="_x23_575c68ff">
	<path class="st3" d="M149.2,32.2c5.5-4.2,13.5-6.1,19.7-2.3c2.1,7.4,0.8,15.6-6.2,19.9c3.2-5.5,7.3-14,0.9-18.8
		c-7.5-2.5-12.5,3.8-18.2,7.3c-3.2,2,0.4-2.8,0.5-4.4c-5.4-2.7-11.7,0.5-17.2-1.2c1-0.7,2.1-1.5,3.2-2.1c3.4,0,6.9,0,10.3,0
		C144.5,31.3,146.9,33.9,149.2,32.2z"/>
</g>
<g id="_x23_9b9da8ff">
	<path class="st4" d="M82.8,29.7c4.2-1.6,8.8-0.2,13.1-0.8c-1,0.6-2,1.1-3.2,1.5c-2.9-0.3-5.9-0.4-8.9-0.6L82.8,29.7z"/>
</g>
<g id="_x23_5f616bff">
	<path class="st5" d="M77.6,32.6c1.6-1.2,3.4-2.2,5.3-2.9l1.1,0.1c-6.8,6.5-3.8,15.6,2.4,21C79,48.9,75.2,39.6,77.6,32.6z"/>
</g>
<g id="_x23_a6a9b0ff">
	<path class="st6" d="M131.9,30.9c3.4-1.1,6.9-1.1,10.3,0C138.8,30.9,135.3,30.8,131.9,30.9z"/>
</g>
<g id="_x23_797c82ff">
	<path class="st7" d="M169,30c1.5,0.8,3.1,1.7,4.5,2.7c1.8,7.1-7.4,12.3-5.6,18.7c-2.6,1.1-5.4,1.8-8.2,2.4c0.7-1.5,1.9-2.7,3.1-3.9
		C169.7,45.5,171,37.3,169,30z"/>
</g>
<g id="_x23_393b44ff">
	<path class="st8" d="M145.5,38.5c5.7-3.5,10.7-9.8,18.2-7.3c6.4,4.8,2.3,13.3-0.9,18.8c-1.2,1.1-2.4,2.3-3.1,3.9
		c2.8-0.7,5.6-1.4,8.2-2.4c1-0.5,2.1-1,3.1-1.5c5.8,0.3,4.9,8,7.2,12c3.7,6.8,2.8,14.8,3,22.3c-1,1.7-2.4,3.5-2,5.6
		c0,1.5,0.1,3,0.2,4.5c-2.3-0.6-5.1-2.1-6.4,0.8c-0.5-2.4-1.3-4.7-2-7c3.4,2.7,9.1-0.3,5.2-5.2c-2.5-5.3-15.8-15.6-2-15.2
		c-7.3-12.3-20.5,1.3-30.9,0.6c1.1-3.5-0.2-6.9-1.4-10.2c1.7-1.4,3.4-2.8,5.3-3.9c3.6-0.8,8.9-9.2,2.8-9.3
		c-6.7,1.3-9.3,10.2-16.5,10.7c-1.8,0.3-2.6,2-1.7,3.5c-4.5-6.3,2.9-19.2-3.6-25.4l-0.4-0.7l0.9-0.1c5.6,1.7,11.8-1.5,17.2,1.2
		C145.9,35.6,142.4,40.5,145.5,38.5z"/>
</g>
<g id="_x23_86868cff">
	<path class="st9" d="M73.8,35.9c1.2-1.2,2.4-2.3,3.8-3.3c-2.3,7,1.4,16.2,8.8,18.2c1.4,0.9,7.1,3.5,2.6,3.3L88.1,54
		c-3-0.5-6-1.1-9-1.1c-1.4,0-2.8-0.1-4.3-0.1c0.4-0.2,1.1-0.7,1.4-1c12.9,2.8,2.2-3.6-0.2-7.9C74.4,41.6,73.9,38.7,73.8,35.9z"/>
</g>
<g id="_x23_b2b3b7ff">
	<path class="st10" d="M173.5,32.6c8,3.3-5.8,12.9,0.6,15.9c-1.1,0.4-2.1,0.8-3.2,1.3c-1,0.5-2.1,1-3.1,1.5
		C166.1,44.9,175.3,39.7,173.5,32.6z"/>
</g>
<g id="_x23_2d292cff">
	<path class="st11" d="M126.1,34.1c0.5-0.1,1.6-0.3,2.1-0.4c6.5,6.2-0.9,19.1,3.6,25.4c6,2.1,3.8,9.1,4.4,14c2.8-1,5.1-2.9,7.1-5
		c10.4,0.7,23.6-12.8,30.9-0.6c-13.7-0.4-0.5,9.9,2,15.2c3.9,5-1.8,7.9-5.2,5.2c-2.7-11.7-16.4-17.1-27.1-14.3l-0.8,0.2
		c-2.7,0.4-5.4,0.9-8.2,1.2c-3.2,0-6.7-0.5-9.7,0.9c-2.8-0.3-5.5-0.7-8.3-1.1c-1.5-0.5-3-1-4.6-1.2C99.6,70.1,84.9,75.8,81,89
		c-2-0.2-4.1-0.4-6.1-0.6c-1.6-8.6,8.2-11.7,11.1-18.3c-2.6-0.6-5.4-0.8-8-1.3c-0.6-3.3,2.8-5.2,5.1-6.8c7.4,0.5,14.4,3.1,21.3,5.6
		c2.8,2.5,6.8-0.3,5.4-3.2c-6.8-4.1-14.8-5.8-22.8-5.4c-5.3,0.6-7.5-9.6,1.1-5l0.8,0.1c2.3,0.9,4.7,1.8,7.2,2
		c-1.3-3.7-11.8-7.6-7.2-11.2c4.7,3.8,9.3,8.1,15.2,10c5.3,2.3,10.2,5.7,12.2,11.4c1.8,1.7,1.9,7.6,5.4,6.6
		c2.3-4.4,5.9-8.6,6.2-13.7c-2.1-2.2-6.5-2.4-5.5-6.8C119.2,45.2,129.3,41.5,126.1,34.1z"/>
</g>
<g id="_x23_bcbcbfff">
	<path class="st12" d="M76.2,51.9c0-5.6-7.8-10.9-2.5-16c0.1,2.8,0.6,5.7,2.2,8.1C78.5,48.3,89.1,54.7,76.2,51.9z"/>
</g>
<g id="_x23_615f65ff">
	<path class="st13" d="M115.2,45.1c3.8,2,5.2,7.7,5.9,11.9C117.2,55.4,112.2,48.9,115.2,45.1z"/>
</g>
<g id="_x23_484851ff">
	<path class="st14" d="M133.5,55.6c7.2-0.5,9.8-9.4,16.5-10.7c6.1,0.1,0.8,8.5-2.8,9.3c3-12.2-18.7,9.3-5.3,3.9
		c1.2,3.2,2.5,6.7,1.4,10.2c-2.1,2-4.4,4-7.1,5c-0.6-4.9,1.7-12-4.4-14C130.9,57.5,131.6,55.9,133.5,55.6z"/>
</g>
<g id="_x23_646064ff">
	<path class="st15" d="M104.1,55c-2.1-1.8-8.4-7.8-2.2-7.9c6.7,3.8,15.7,10.8,14.4,19.3C114.4,60.7,109.4,57.3,104.1,55z"/>
</g>
<g id="_x23_75757bff">
	<path class="st16" d="M171,49.8c1-0.5,2.1-0.9,3.2-1.3c0.4,0.2,1.2,0.5,1.6,0.6c6.1,10.1,7.3,21.4,7.3,32.9c-0.6,0.7-1.3,1.4-2,2.1
		c-0.2-7.5,0.7-15.5-3-22.3C175.8,57.8,176.8,50.2,171,49.8z"/>
</g>
<g id="_x23_b1b2b6ff">
	<path class="st17" d="M175.8,49.2c9.2,6.8,11,23.2,7.3,32.9C183.1,70.6,181.9,59.3,175.8,49.2z"/>
</g>
<g id="_x23_6a666dff">
	<path class="st18" d="M141.9,58c-13.4,5.4,8.3-16,5.3-3.9C145.3,55.3,143.6,56.6,141.9,58z"/>
</g>
<g id="_x23_63646bff">
	<path class="st19" d="M72.1,55c0.8-0.9,1.8-1.5,2.8-2.1c1.4,0,2.9,0,4.3,0.1c-1.3,4.4-4.2,7.8-6.7,11.6c-0.8,5.1,0.3,10.6-1.5,15.5
		C70.3,71.6,68.7,63,72.1,55z"/>
</g>
<g id="_x23_3d3c40ff">
	<path class="st20" d="M79.1,52.9c3,0,6,0.5,9,1.1c-8.6-4.6-6.3,5.5-1.1,5c7.9-0.4,16,1.3,22.8,5.4c1.4,2.9-2.5,5.7-5.4,3.2
		c-6.9-2.5-13.9-5.1-21.3-5.6c-2.3,1.5-5.7,3.5-5.1,6.8c2.7,0.5,5.4,0.7,8,1.3c-2.9,6.6-12.8,9.7-11.1,18.3c2,0.2,4.1,0.4,6.1,0.6
		c-0.3,2.7-0.7,5.3-0.9,8c-9.5-1.5-5.5,7.1-8.2,12c-1.7-1.3-3.1-3-4.9-4.1c-0.3-0.2-0.9-0.7-1.3-0.9c0-2.7,0-5.3,0-8l0.9-0.3
		c2.1-2.4,5.5,0.5,6.4-0.5c0.4-3.2,2.1-7-0.7-9.6c-0.5-0.8-1.1-1.7-1.6-2.5c0-1.1,0.1-2.1,0.2-3.1c1.8-4.9,0.6-10.4,1.5-15.5
		C74.9,60.8,77.8,57.3,79.1,52.9z"/>
</g>
<g id="_x23_929397ff">
	<path class="st21" d="M68.8,59.8c0.5-1.9,2-3.4,3.3-4.8c-3.3,8-1.8,16.7-1.1,25c-0.1,1-0.2,2.1-0.2,3.1c-0.9-1-1.9-2.1-2.8-3.1
		C68.8,73.3,69.2,66.5,68.8,59.8z"/>
</g>
<g id="_x23_c7c7caff">
	<path class="st22" d="M67.9,80c-2.6-6,1.6-13.8,0.8-20.2C69.2,66.5,68.8,73.3,67.9,80z"/>
</g>
<g id="_x23_a67a63ff">
	<path class="st23" d="M81,89c3.9-13.2,18.7-18.9,31.3-15.3c-5.6,0.3-11.3-0.1-16.8,1.5c-0.5,4.6,1.4,9.7,5.7,11.8
		c-4.9,1.2-9.2-2.1-13.9-1.9c-3.3,3.8-3.2,9.9-3.2,14.7c10.4,0.3,20.7,6.9,30.9,5.3c-1.1,5.9-0.9,12-1.1,18l-0.1,0.9
		c-9.3-2.5-18,2.7-25.7,7.1c2.4-4.5-3.1,0.1-5,1c-1.8-5.1-2.2-10.5-3.3-15.8c-1.2-6.5-1-12.8,0.3-19.3C80.3,94.3,80.7,91.7,81,89
		 M97.3,106.1c-4.1,2.9-5.6,12.4,0.7,12.9C108.7,122.2,108.1,102.3,97.3,106.1z"/>
</g>
<g id="_x23_a67b65ff">
	<path class="st24" d="M143.8,73.7c10.8-2.8,24.5,2.7,27.1,14.3c0.7,2.3,1.4,4.6,2,7c0,0.7,0,2.2,0.1,2.9c0.2,6.1,1.4,12.2,0.2,18.2
		c-1.1,5.2-2.6,10.4-3.4,15.7c-1.8-1.1-3.9-2.3-6-1.4c-7.7-4-15.5-8.2-24.7-6.8l0-0.9c0.1-5.9-0.2-11.8-1.3-17.6
		c10.3,0.8,19.9-4,29.9-5.6c2.7-3.6-0.8-10.6-1.9-14.7c-6,0.7-11.9,2.3-17.9,3.1c4-2.7,9.5-6,7.9-11.8
		C153.2,72.4,147.8,74.5,143.8,73.7 M150.3,106.1c-5,3.2-3.9,13.4,2.7,12.9C163.1,122.4,159.4,101.1,150.3,106.1z"/>
</g>
<g id="_x23_c18c6fff">
	<path class="st25" d="M95.5,75.2c5.4-1.6,11.2-1.2,16.8-1.5c1.6,0.2,3.1,0.7,4.6,1.2c1.1,2.2,1.9,5,4.1,6.2
		c2.1-1.1,3.4-3.1,4.2-5.2c3-1.5,6.4-0.9,9.7-0.9c0.2,2,0.5,4,1.4,5.9c4.3,1.5,4.7-4.8,6.8-7.1l0.8-0.2c4,0.8,9.4-1.3,12.1,2.6
		c1.6,5.9-3.9,9.1-7.9,11.8c-4.5,1.8-9.8,1.4-14,4.1c0.3,3,2.5,5.5,2.9,8.6c-4.2,1.7,0.6,8.8-0.9,12.2c1.1,3.1-2.7,15.9,3.1,9.9
		l0,0.9c-0.3,0.5-0.8,1.4-1,1.9l-0.7,0.5c-7.7,0.6-15.2,0-22.8-1.2l-0.9-0.3l0-0.8l0.1-0.9c0.6,0.2,1.7,0.6,2.3,0.8
		c0.4-7.3,2.4-15.2,0-22.3c0.4-3.3,2-6.3,2.9-9.4c-5.3-3.2-12.2-2.2-17.8-5.2C96.8,84.9,94.9,79.8,95.5,75.2 M125.2,99.1
		c-3.5,6.6-2.3,14.4-2,21.6c0.7,2,2,4.2,4.5,3.3c3.8-4.1,1.9-10,2.2-14.9C129.8,106,129.8,99,125.2,99.1z"/>
</g>
<g id="_x23_664c3fff">
	<path class="st26" d="M134.9,75.1c2.8-0.2,5.5-0.8,8.2-1.2c-2.1,2.3-2.5,8.6-6.8,7.1C135.3,79.1,135.1,77.1,134.9,75.1z"/>
</g>
<g id="_x23_60473dff">
	<path class="st27" d="M116.9,74.9c2.8,0.3,5.5,0.7,8.3,1.1c-0.8,2.1-2.1,4.1-4.2,5.2C118.7,79.9,118,77.1,116.9,74.9z"/>
</g>
<g id="_x23_433939ff">
	<path class="st28" d="M87.2,85.1c4.7-0.2,9,3,13.9,1.9c5.6,3,12.5,2,17.8,5.2c-0.9,3.2-2.5,6.1-2.9,9.4c-0.4,1.2-0.8,2.3-1.1,3.5
		c-10.2,1.6-20.5-5-30.9-5.3C84,95,83.9,88.9,87.2,85.1z"/>
</g>
<g id="_x23_433938ff">
	<path class="st29" d="M148,88.1c6-0.8,11.9-2.4,17.9-3.1c1.1,4.1,4.6,11,1.9,14.7c-10,1.6-19.6,6.5-29.9,5.6
		c-0.3-1.5-0.6-3-0.9-4.6c-0.4-3-2.6-5.5-2.9-8.6C138.1,89.5,143.4,90,148,88.1z"/>
</g>
<g id="_x23_b6b7bcff">
	<path class="st30" d="M72.3,85.7c2.8,2.6,1.1,6.3,0.7,9.6c-1.3-4-6.3-4.3-6.4,0.5L65.7,96c-0.7-4.7,3.9-7.8,7.4-4.2
		C72.9,89.8,72.6,87.7,72.3,85.7z"/>
</g>
<g id="_x23_b8b9beff">
	<path class="st31" d="M179.1,89.8c0.5,1.5,0.8,3.9,2.7,2.1c3-2.6,6.9,0.8,6.3,4.2c-2.1-3.3-6.6-4.2-8.1,0.1
		c-0.2-0.5-0.5-1.4-0.7-1.9C179.2,92.8,179.1,91.3,179.1,89.8z"/>
</g>
<g id="_x23_797a80ff">
	<path class="st32" d="M66.6,95.7c0.1-4.8,5.1-4.5,6.4-0.5C72.1,96.2,68.7,93.3,66.6,95.7z"/>
</g>
<g id="_x23_4c484dff">
	<path class="st33" d="M173,95.1c1.3-2.9,4.1-1.3,6.4-0.8c0.2,0.5,0.5,1.4,0.7,1.9c1.9-0.2,6.6-1.1,8,3c-0.1,2.3-0.4,4.6-0.9,6.8
		c-3.3,4.9-9.1,8.9-8.2,15.5c-1.8,5-1.9,10.4-3.1,15.6c-2.6-0.7-4-3.4-5.9-5.1c0.9-5.3,2.3-10.5,3.4-15.7c1.4-3.2,2.1-8.6,6.8-6.5
		c1.8-5.9-0.7-11.4-7-11.8C173,97.3,173,95.8,173,95.1z"/>
</g>
<g id="_x23_74767cff">
	<path class="st34" d="M180,96.2c1.4-4.4,6-3.4,8.1-0.1c0,0.8,0,2.3,0,3.1C186.7,95.1,181.9,95.9,180,96.2z"/>
</g>
<g id="_x23_bfc4c5ff">
	<path class="st35" d="M65.7,105.1c-1.2-2.9-0.5-6.1,0-9.1c0,2.7,0,5.3,0,8L65.7,105.1z"/>
</g>
<g id="_x23_685d5bff">
	<path class="st36" d="M71.9,109c2.7-4.9-1.3-13.5,8.2-12c-1.3,6.4-1.4,12.8-0.3,19.3c-1.2-2.3-1.7-4.9-3-7.2c-3-0.4-4.2,3.6-4,6.1
		c-1.9-3.4-4.6-6.5-5.8-10.2C68.8,106.1,70.2,107.8,71.9,109z"/>
</g>
<g id="_x23_6a5e5cff">
	<path class="st37" d="M173,98c6.3,0.3,8.8,5.8,7,11.8c-4.7-2.2-5.4,3.3-6.8,6.5C174.4,110.2,173.2,104.1,173,98z"/>
</g>
<g id="_x23_d59c7eff">
	<path class="st38" d="M125.2,99.1c4.5-0.1,4.6,6.9,4.7,9.9c-0.3,4.9,1.6,10.9-2.2,14.9c-2.5,0.9-3.8-1.2-4.5-3.3
		C123,113.5,121.7,105.7,125.2,99.1z"/>
</g>
<g id="_x23_edc9a7ff">
	<path class="st39" d="M135.9,113c1.6-3.4-3.3-10.5,0.9-12.2c0.3,1.5,0.6,3.1,0.9,4.6c1.1,5.8,1.4,11.7,1.3,17.6
		C133.2,128.9,137.1,116.1,135.9,113z"/>
</g>
<g id="_x23_eabb9aff">
	<path class="st40" d="M116.1,101.6c2.4,7.1,0.4,15,0,22.3c-0.6-0.2-1.7-0.6-2.3-0.8c0.2-6,0.1-12.1,1.1-18
		C115.3,103.9,115.7,102.8,116.1,101.6z"/>
</g>
<g id="_x23_b6b2b3ff">
	<path class="st41" d="M65.8,104c0.3,0.2,0.9,0.7,1.3,0.9c1.2,3.8,3.9,6.8,5.8,10.2c1,5.9,2.5,11.7,3.6,17.6
		c-0.4,6.8-0.2,1.7-4.2,1.2c-0.1,5.1-0.4,10.2-0.9,15.3c-0.3-3.4,0.8-7.8-3.3-8.8c3.2-0.7,1.8-4.7,2.4-7.2
		c0.7-6.1,0.7-12.5-1.2-18.4c-1-3.3-2.5-6.4-3.4-9.7L65.8,104z"/>
</g>
<g id="_x23_3d292aff">
	<path class="st42" d="M97.3,106.1c10.8-3.8,11.4,16.1,0.7,12.9C91.7,118.5,93.2,109,97.3,106.1z"/>
</g>
<g id="_x23_402c2cff">
	<path class="st43" d="M150.3,106.1c9.1-5,12.8,16.3,2.7,12.9C146.3,119.5,145.2,109.3,150.3,106.1z"/>
</g>
<g id="_x23_868285ff">
	<path class="st44" d="M178.9,121.4c-0.9-6.6,4.9-10.6,8.2-15.5c-0.6,2.9-1.5,5.7-2.4,8.5c-1.6,4.5-3.1,9.2-2.6,14.1
		c-0.7,4-1.1,8.1-1.2,12.2c-0.5,0.3-1.6,0.9-2.1,1.2C176.2,135.3,182.2,127.9,178.9,121.4z"/>
</g>
<g id="_x23_4d484bff">
	<path class="st45" d="M72.8,115.1c-0.2-2.5,1-6.4,4-6.1c1.3,2.3,1.8,4.9,3,7.2c1.1,5.3,1.5,10.7,3.3,15.8c-2.1,1.6-4,3.3-6,5
		c-0.2-1.4-0.5-2.9-0.8-4.3C75.3,126.8,73.8,121,72.8,115.1z"/>
</g>
<g id="_x23_e8cfb6ff">
	<path class="st46" d="M63.8,136.3c-5.9-4.5-8.3-20.6,1.3-21.4C56.5,119.3,62,129.5,63.8,136.3z"/>
</g>
<g id="_x23_bd9275ff">
	<path class="st47" d="M65.1,115c0.5,0,1.5-0.1,2-0.1c2.2,5.9,2.5,12.2,3.2,18.3c-0.6,2.5,0.8,6.5-2.4,7.2c-1.5-1.2-2.8-2.7-4.1-4.1
		C62,129.5,56.5,119.3,65.1,115z"/>
</g>
<g id="_x23_ebded7ff">
	<path class="st48" d="M67.1,114.9c0.5,0,1.5,0,2,0c1.9,5.9,1.9,12.3,1.2,18.4C69.6,127.1,69.3,120.7,67.1,114.9z"/>
</g>
<g id="_x23_cfa284ff">
	<path class="st49" d="M182.1,128.6c-0.5-4.8,1.1-9.6,2.6-14.1c2.1,0.7,4.2,1.5,6.1,2.6c4.3,7.2-1.2,15.6-4.7,22.2
		C179.9,141.7,184.1,131.9,182.1,128.6z"/>
</g>
<g id="_x23_f2d7b5ff">
	<path class="st50" d="M190.8,117.1c3.3,1.1,3.5,5.3,2.4,8.2c-1.4,4.9-1.9,11.4-7.1,14.1C189.7,132.7,195.1,124.3,190.8,117.1z"/>
</g>
<g id="_x23_aeabb0ff">
	<path class="st51" d="M175.7,137.1c1.2-5.2,1.4-10.6,3.1-15.6c3.3,6.5-2.7,13.8-0.1,20.6l0.3,0.8c-0.3,2.1,0.8,11.9-1.4,6
		c0.3-8.3-7.4-14.2-13.9-18.2c2.2-0.9,4.2,0.2,6,1.4C171.7,133.7,173.1,136.3,175.7,137.1z"/>
</g>
<g id="_x23_433e44ff">
	<path class="st52" d="M88.1,131.1c7.7-4.5,16.4-9.6,25.7-7.1l0,0.8c-0.2,3.2,1.1,7.7-2.8,9.1c5-9.7-12.6-6.1-9.9,0.9
		c1.5,1.9,4.1,1.1,6.2,1.5c-6.1,4.1-15.4,6.7-22.3,2.7c-8.1,0-9.5,9.6-5.2,15.1c-0.5,0.1-1.5,0.2-2,0.2c-0.4-0.1-1.3-0.2-1.7-0.3
		l0-0.6C73,143.9,79.4,134.9,88.1,131.1z"/>
</g>
<g id="_x23_443f45ff">
	<path class="st53" d="M139.1,123.8c9.2-1.5,17,2.8,24.7,6.8c6.5,4,14.2,9.9,13.9,18.2c-0.4,1.2-0.7,2.4-1.1,3.6l-0.4-0.7
		c-0.8-4-0.6-9.4-5.6-10.4c-8.5,0.5-17.5,0.2-24.6-5.2c5.9,2.2,9.1-6.2,2-7.2c-4.8-4-8,3.2-4,6.2c-4.3-0.9-5.1-5.8-5.9-9.4
		C138.3,125.3,138.8,124.3,139.1,123.8z"/>
</g>
<g id="_x23_2f282aff">
	<path class="st54" d="M110.9,133.8c3.9-1.4,2.6-5.9,2.8-9.1l0.9,0.3c1.4,1.2,2.8,2.4,4.4,3.2c0.3,1.6,0.4,3.1,0.4,4.7
		c-0.7,2.9-2.2,5.5-3.8,8c-1.2,1.1-2.5,2.1-3.8,3.2c-1.4,1.1-2.6,2.4-3.9,3.7c-0.3,0.2-0.8,0.7-1.1,1c-1.9,0.2-3.7,0.9-4.1,3
		c-0.3,0.3-0.8,0.8-1.1,1l-0.9,0.2c-2.2,0.7-6.9,0.8-6.5,3.8c12.1,12.4,30.6,11.3,46.5,9.9c6.4-2.3,13.4-4.7,18.1-9.8
		c0.3-2.4-3.3-2.6-4.8-3.9c-1.2-0.5-2.6-0.4-3.9-0.6c0.1-2.4-1.8-3.2-3.9-3.4c-0.5-0.3-1.4-0.8-1.8-1.1c-0.9-1.7-2.2-3.1-3.8-4.1
		c-1.1-0.9-2.1-1.7-3.2-2.5c-1.6-2.5-2.8-5.1-3.7-7.9c-0.5-1.4-1-2.8-0.7-4.2c1.6-0.8,3.1-1.7,4.5-2.7l0.7-0.5
		c0.8,3.6,1.6,8.4,5.9,9.4c0.5,0.2,1.5,0.8,2,1c7.1,5.5,16.1,5.7,24.6,5.2c4.9,1,4.8,6.4,5.6,10.4c0,4.8-6.4,5.3-7.7,10
		c-2.8,8.5-12.6,6.4-18.4,11.4c-5.7,1-11.8-2.3-17.1,1.7c-3.4,2.7-3.9-6.1-7.3-3.3c-4.2,4.3-10.2,3.4-15.5,2.6
		C100.8,181,91.3,171,84,166c-2.1-4-2.2-8.9-6.3-11.7c0.5-0.1,1.5-0.2,2-0.2c-4.2-5.4-2.8-15.1,5.2-15.1c6.9,4,16.2,1.3,22.3-2.7
		C108.4,135.4,109.7,134.6,110.9,133.8z"/>
</g>
<g id="_x23_916952ff">
	<path class="st55" d="M114.6,125.1c7.6,1.2,15.1,1.8,22.8,1.2c-1.4,1-2.9,1.9-4.5,2.7c-4.5-0.2-9.2,1-13.9-0.6
		C117.3,127.5,115.9,126.3,114.6,125.1z"/>
</g>
<g id="_x23_676065ff">
	<path class="st56" d="M101.1,134.8c-2.7-7,14.9-10.6,9.9-0.9c-1.3,0.7-2.5,1.5-3.7,2.4C105.2,135.9,102.6,136.6,101.1,134.8z"/>
</g>
<g id="_x23_5f4230ff">
	<path class="st57" d="M119,128.3c4.7,1.7,9.4,0.4,13.9,0.6c-0.3,1.5,0.2,2.9,0.7,4.2c-4.7,0.1-9.5,0.8-14.2-0.1
		C119.4,131.4,119.3,129.8,119,128.3z"/>
</g>
<g id="_x23_656267ff">
	<path class="st58" d="M144,135.1c-4-3-0.8-10.2,4-6.2c7.1,1,3.9,9.3-2,7.2C145.5,135.9,144.5,135.4,144,135.1z"/>
</g>
<g id="_x23_aba8adff">
	<path class="st59" d="M83.1,132.1c1.8-0.8,7.3-5.5,5-1c-8.7,3.8-15.1,12.8-12.1,22.3c-5.3-4.2-2.7-12,1.1-16.4
		C79.1,135.3,81.1,133.6,83.1,132.1z"/>
</g>
<g id="_x23_d1bcaeff">
	<path class="st60" d="M182.1,128.6c1.9,3.3-2.2,13.1,4.1,10.7c-1.4,1.2-2.8,2.4-4.3,3.6l-0.9,0.1c0-0.6-0.1-1.7-0.1-2.2
		C181,136.7,181.4,132.6,182.1,128.6z"/>
</g>
<g id="_x23_87888eff">
	<path class="st61" d="M76.4,132.7c0.3,1.4,0.5,2.9,0.8,4.3c-3.9,4.3-6.4,12.1-1.1,16.4l0,0.6c-0.9,1.7-1.7,3.4-2.5,5.2
		c-2.2,2.7-3.9,5.8-5.6,8.8c0.9-6.3,2.4-12.5,3.4-18.7c0.5-5.1,0.8-10.2,0.9-15.3C76.2,134.5,76,139.5,76.4,132.7z"/>
</g>
<g id="_x23_bd8d72ff">
	<path class="st62" d="M119.4,133c4.7,0.9,9.5,0.2,14.2,0.1c0.9,2.8,2.1,5.5,3.7,7.9c-1.8,4.9-8.5,2.2-12.3,3
		c-2.7-0.4-8.2,0.6-9.4-3.1C117.2,138.5,118.7,135.9,119.4,133z"/>
</g>
<g id="_x23_a77762ff">
	<path class="st63" d="M111.8,144.1c1.3-1.1,2.6-2.1,3.8-3.2c1.1,3.7,6.7,2.8,9.4,3.1c3.8-0.8,10.5,1.9,12.3-3
		c1,0.9,2.1,1.7,3.2,2.5c1.9,4.8-6.8,1.7-8.5,3.3C126.1,145.9,116,149.1,111.8,144.1z"/>
</g>
<g id="_x23_5c5a5cff">
	<path class="st64" d="M178.8,142c0.5-0.3,1.6-0.9,2.1-1.2c0,0.6,0.1,1.7,0.1,2.2c-1.3,3.2,2.3,10.1-0.8,12.1c-0.7-4,0.9-8.5-1-12.4
		L178.8,142z"/>
</g>
<g id="_x23_909094ff">
	<path class="st65" d="M179.1,142.8c1.9,3.8,0.4,8.3,1,12.4c3.1-2-0.5-8.9,0.8-12.1l0.9-0.1c-0.4,8.5,2.1,16.7,3.3,25.1
		c-3.6-4.7-6.4-10-8.5-15.6c0.3-1.2,0.7-2.4,1.1-3.6C179.8,154.7,178.8,144.9,179.1,142.8z"/>
</g>
<g id="_x23_7b5751ff">
	<path class="st66" d="M107.9,147.8c1.2-1.3,2.4-2.6,3.9-3.7c4.2,5,14.3,1.8,20.2,2.8c1.7-1.6,10.4,1.5,8.5-3.3
		c1.6,1,2.9,2.4,3.8,4.1C132.2,148.8,120,149.4,107.9,147.8z"/>
</g>
<g id="_x23_b5a3aeff">
	<path class="st67" d="M107.9,147.8c12.1,1.6,24.2,0.9,36.3-0.1c0.5,0.3,1.4,0.8,1.8,1.1c0.2,0.6,0.6,1.7,0.8,2.3
		c-13.6-0.1-27.2,0-40.8,0c0.2-0.6,0.6-1.7,0.8-2.2C107.1,148.6,107.7,148.1,107.9,147.8z"/>
</g>
<g id="_x23_715e6dff">
	<path class="st68" d="M102.8,151.8c0.4-2.1,2.2-2.8,4.1-3c-0.2,0.6-0.6,1.7-0.8,2.2c13.6,0,27.2-0.1,40.8,0
		c-0.2-0.6-0.6-1.7-0.8-2.3c2.1,0.2,4,0.9,3.9,3.4c-0.4,0-1.2,0.1-1.7,0.1C133.1,151.6,117.9,152.4,102.8,151.8z"/>
</g>
<g id="_x23_48161eff">
	<path class="st69" d="M101.6,152.8c0.3-0.3,0.8-0.8,1.1-1c15.2,0.6,30.4-0.2,45.6,0.4c-4.2,3.4-9.9,3.4-15,3.1
		C122.7,156.8,111.9,155.5,101.6,152.8z"/>
</g>
<g id="_x23_843539ff">
	<path class="st70" d="M148.3,152.3c0.4,0,1.3,0,1.7-0.1c1.3,0.2,2.7,0.1,3.9,0.6c-2.9,4.9-7.7,8.2-13.1,5.7
		c-10.2,0.7-20.5,0.6-30.8,0.4c-3.9,1.7-9.2-1.6-9.4-5.9l0.9-0.2c10.3,2.7,21.1,4,31.7,2.5C138.4,155.6,144.1,155.7,148.3,152.3z"/>
</g>
<g id="_x23_4d4d52ff">
	<path class="st71" d="M176.2,151.7l0.4,0.7c2.1,5.6,4.9,10.9,8.5,15.6c-1.2,2.2,2.2,18-2.1,11.9c-0.8-3.3-1.5-6.7-3-9.8
		c-0.5-3.9-2.2-7.5-4.5-10.7c-3.5-2.1-6.3,3.9-4.6,6.7c-1.4-1.1-2.1-2.6-2.4-4.3C169.8,157,176.2,156.5,176.2,151.7z"/>
</g>
<g id="_x23_9e7364ff">
	<path class="st72" d="M94.2,156.8c-0.3-3,4.3-3.1,6.5-3.8c0.2,4.3,5.5,7.6,9.4,5.9c9.6,4.9,23.1,4.7,33.1,0.3
		c-0.6-0.2-1.8-0.6-2.3-0.7c5.4,2.5,10.2-0.8,13.1-5.7c1.5,1.4,5.1,1.5,4.8,3.9c-4.7,5.1-11.7,7.5-18.1,9.8
		C124.8,168,106.3,169.2,94.2,156.8z"/>
</g>
<g id="_x23_32333eff">
	<path class="st73" d="M73.4,159.1c0.8-1.7,1.6-3.5,2.5-5.2c0.4,0.1,1.3,0.2,1.7,0.3c4.1,2.8,4.2,7.7,6.3,11.7
		c7.3,5,16.8,15.1,26.2,8.2c5.3,0.8,11.3,1.7,15.5-2.6c3.5-2.8,3.9,5.9,7.3,3.3c5.3-4.1,11.4-0.8,17.1-1.7c5.8-5,15.6-2.9,18.4-11.4
		c0.4,1.7,1,3.3,2.4,4.3c1.9,2.1,3.4,4.6,5.1,6.9c0.1,3,1.4,5.8,4.3,7c-1,6.1-0.1,12.7-2.9,18.4c-0.2-6.4,2.3-13.5-1.6-19.3
		c-2.5,2.2-4.6,3.4-7.8,1.1c0.4,3.3,1.1,6.7,1,10c-2.4-3.6-3.3-9-6.9-11.4c1.2,4.4,2.9,8.8,3,13.4c-1.6-1.6-2.9-3.3-4.4-5
		c-3.1-1.5-4.4,6.5-7.3,2.5c-2.3-3.4-4.2-0.1-5.6,2.1c-3.8-5.4-10.4-2.5-15.8-4.5c-3.3,0.7-6.3,8.7-8.9,1.7
		c-3.9-4.8-12.6-5.1-17.7-1.5c-2.5-3.7-4.7-0.8-7,1.3c-2.5-5.9-6.9-3.2-9.1,1.3c0.5-4.6,1.8-11.1-3-5.1c0.4-2.1,0.8-4.1,1-6.2
		c-2.2,1.6-5.5,5-7.7,1.6c-1-1.9-2.9-1.4-4.6-0.8l0-1c0.3-1,0.8-1.9,1.3-2.8c1.2-2,1.9-4.3,2.3-6.7c1.3-3.5,3.2-7.6,1.5-11.2
		C77.6,157.7,75.6,159.1,73.4,159.1z"/>
</g>
<g id="_x23_45464eff">
	<path class="st74" d="M73.4,159.1c2.2-0.1,4.2-1.4,6.4-1c1.7,3.6-0.1,7.7-1.5,11.2c-0.1-2.4,1.3-5.3-0.5-7.4
		c-4,2.6-4.8,7.9-5.9,12.2c-0.4,1.9-0.9,3.7-1.3,5.6c-0.3,1.1-0.6,2.2-1,3.3c-5.2-3.1-1.8-10.1-1.8-15.1
		C69.6,164.9,71.2,161.8,73.4,159.1z"/>
</g>
<g id="_x23_d6abb5ff">
	<path class="st75" d="M110.1,158.9c10.2,0.1,20.5,0.3,30.8-0.4c0.6,0.2,1.8,0.5,2.3,0.7C133.2,163.6,119.7,163.8,110.1,158.9z"/>
</g>
<g id="_x23_85848bff">
	<path class="st76" d="M170.9,166.1c-1.7-2.8,1.1-8.8,4.6-6.7c2.3,3.2,4,6.8,4.5,10.7c-2.1-2.1-3.4-9.6-7.1-5.9c0.9,3,2.6,5.7,3,8.8
		C174.4,170.6,172.9,168.2,170.9,166.1z"/>
</g>
<g id="_x23_6c6e78ff">
	<path class="st77" d="M71.9,174.1c1.2-4.3,1.9-9.6,5.9-12.2c1.8,2.1,0.3,5,0.5,7.4c-0.4,2.3-1.1,4.6-2.3,6.7
		C78.3,167.1,73.9,169.9,71.9,174.1z"/>
</g>
<g id="_x23_d3d1d3ff">
	<path class="st78" d="M173,164.1c3.7-3.7,5,3.8,7.1,5.9c1.5,3.1,2.2,6.5,3,9.8c0,3.5-0.3,7,0.6,10.4c0.1,0.4,0.2,1.1,0.2,1.5
		c-0.4,0.6-1.1,1.9-1.5,2.5l-0.6-0.6c-0.4-1.9-0.8-3.9-1.1-5.9c0-2.6,0.6-5.4-0.5-7.8c-0.9-2.6-2.5-4.9-4.3-7
		C175.6,169.9,173.9,167.1,173,164.1z"/>
</g>
<g id="_x23_a79488ff">
	<path class="st79" d="M68.2,189c-3.7-6.1-3.5-14.9-0.3-21c0,5-3.4,12,1.8,15.1c0.3-1.1,0.7-2.2,1-3.3c0.4,3.1-1.5,10.4,3.3,7.3
		c0.1,4.1,0.1,8.2,0.2,12.2c0,0.4,0,1.3-0.1,1.7c0.1,2.8,0.9,5.4,1.6,8.1c0.5,1.8,1,3.6,1.5,5.5c-0.3,0.3-1,0.9-1.3,1.2l-0.6,0.5
		c-0.2-8.8-7.8-12.6-14.6-16.3c-1.8-1.5-3.5-3.1-4.6-5.1c3.7,1.2,2.8-2.5,2.8-4.9c2.4-1.1,4.6-1.3,4.3,2
		C64,197.3,72.9,194.7,68.2,189z"/>
</g>
<g id="_x23_a8a5a7ff">
	<path class="st80" d="M185.1,168c3.2,7.1,2.8,15.8-1.5,22.3c-0.9-3.4-0.6-7-0.6-10.4C187.3,186,183.9,170.2,185.1,168z"/>
</g>
<g id="_x23_c3c3c9ff">
	<path class="st81" d="M71.9,174.1c2-4.2,6.4-7.1,4.1,1.8c-0.5,0.9-0.9,1.9-1.3,2.8c-0.4,2.7-0.6,5.5-0.8,8.3
		c-4.8,3.1-2.8-4.2-3.3-7.3C71.1,177.9,71.5,176,71.9,174.1z"/>
</g>
<g id="_x23_7a777dff">
	<path class="st82" d="M176,173c1.7,2.1,3.4,4.3,4.3,7C177.4,178.8,176.1,176,176,173z"/>
</g>
<g id="_x23_686467ff">
	<path class="st83" d="M74,187.1c0.1-2.8,0.3-5.6,0.8-8.3l0,1c-0.3,6.5,1.5,13.3-0.6,19.6C74.1,195.2,74,191.1,74,187.1z"/>
</g>
<g id="_x23_2e2c31ff">
	<path class="st84" d="M74.8,179.7c1.7-0.6,3.6-1.1,4.6,0.8c2.3,3.4,5.6,0,7.7-1.6c-0.2,2.1-0.6,4.1-1,6.2c-0.8,4.6-2.7,9.3-1,13.8
		c4.5-0.1,3.8-5.5,4-8.8c2.2-4.5,6.6-7.2,9.1-1.3c2.3-2.1,4.5-5,7-1.3c5.1-3.6,13.8-3.3,17.7,1.5c2.7,7,5.6-1,8.9-1.7
		c5.4,1.9,12-0.9,15.8,4.5c1.4-2.3,3.3-5.5,5.6-2.1c2.9,4,4.2-4,7.3-2.5c1.5,1.6,2.8,3.4,4.4,5c0.4,2.4,0.9,4.7,1.3,7.1
		c2.6-2.2,3-5.8,2.7-9.1c0.1-3.4-0.6-6.7-1-10c3.2,2.3,5.3,1.1,7.8-1.1c4,5.7,1.4,12.9,1.6,19.3l-0.2,0.8l-0.2,0.6
		c-0.4,1.3-0.8,2.6-1.1,4c-1.6,5.6-9.3,4.3-13.6,6.3c-6.6,1-12.8,3.9-19.5,4.7c6.6-4.9,17.4-3.2,20.3-12.9c2.6-10.6-9.8-10-16-6.8
		c-6-4-13.6-3-20-0.4c-6.7-1.9-13.6-6.1-20.7-3.6c-4.4-1.4-8.7,1.8-13.2-0.1c-6.8,3.3-4.2,17,3.5,18.5c5.1,2.1,10.6,3.1,15.7,5.3
		c-9.9-0.5-19.5-3.9-27.9-9c-0.3-1.7,0.1-4.9-2.1-2.6c-2.8,3.1-6.8-8.4-5.6-1.8c1.2,3.2-1.5,0.8-2.5-0.4c0-0.4,0.1-1.3,0.1-1.7
		C76.2,193,74.4,186.2,74.8,179.7z"/>
</g>
<g id="_x23_646167ff">
	<path class="st85" d="M162,178.8c3.6,2.4,4.5,7.7,6.9,11.4c0.4,3.3,0,6.8-2.7,9.1c-0.4-2.4-0.9-4.7-1.3-7.1
		C164.9,187.6,163.2,183.2,162,178.8z"/>
</g>
<g id="_x23_7b6d67ff">
	<path class="st86" d="M180.3,180c1.1,2.5,0.5,5.2,0.5,7.8c-1.2,3.5,0.8,9.6-3.6,11.4l0.2-0.8C180.2,192.7,179.3,186.1,180.3,180z"
		/>
</g>
<g id="_x23_53545bff">
	<path class="st87" d="M86.1,185.2c4.8-6.1,3.5,0.4,3,5.1c-0.2,3.3,0.5,8.6-4,8.8C83.4,194.4,85.3,189.7,86.1,185.2z"/>
</g>
<g id="_x23_f5e3b2ff">
	<path class="st88" d="M37.7,202.2C34,190.8,50.6,184.8,59,189.9c0,2.4,0.9,6.2-2.8,4.9l-0.4-0.8c-0.2-0.3-0.5-1-0.6-1.4
		c-0.4-0.9-0.8-1.8-1.2-2.8C47.6,187.9,36.5,193.6,37.7,202.2z"/>
</g>
<g id="_x23_bd9a81ff">
	<path class="st89" d="M177.1,199.2c4.4-1.8,2.4-7.9,3.6-11.4c0.2,2,0.6,3.9,1.1,5.9c-1.6,2.9,0.1,5.4,2,7.5
		c-0.2,4.1-9.6,6.3-6.9-1.4L177.1,199.2z"/>
</g>
<g id="_x23_ebcb73ff">
	<path class="st90" d="M37.7,202.2c-1.3-8.6,9.9-14.3,16.2-12.1c-6.4,2.8-17.5,4.2-15.3,14.2C38.4,203.8,37.9,202.7,37.7,202.2z"/>
</g>
<g id="_x23_e9d0b5ff">
	<path class="st91" d="M68.2,189c4.8,5.8-4.2,8.4-5,3C65.8,192.1,69,192.6,68.2,189z"/>
</g>
<g id="_x23_fdf7daff">
	<path class="st92" d="M183.9,191.8c5.5,2.2,11.4,0.4,16.1-2.7c5.8,1.8,11.6,4.8,15.9,9.1c1.8,5-4,13.9,2.7,16.2
		c5.3,3.7,8,9.9,12.3,14.6c5.2,5.9,3.1,14.2,6.3,20.9h-3c-2.2-9.4-2.7-19.7-10.9-26.3c-2.3-2.2-7.3-11.9-9.3-5.1
		c-0.2,0.5-0.6,1.6-0.8,2.1c-4.1,3-0.7-6-1.2-8.6c0.1-0.5,0.3-1.4,0.4-1.8c6.1-9.4-4.2-16.4-12.4-18.3c-2.7,1.3-4.9,6.6-8.1,3.9
		c-3.2-1.2-7.2,4.5-9.5-1.6C182.8,193.7,183.5,192.4,183.9,191.8z"/>
</g>
<g id="_x23_c49444ff">
	<path class="st93" d="M38.6,204.3c-2.2-10.1,8.8-11.5,15.3-14.2c0.4,0.9,0.8,1.8,1.2,2.8c-8.6-1.6-15.3,7.7-15.3,15.5l-0.6-0.6
		C39,206.6,38.8,205.4,38.6,204.3z"/>
</g>
<g id="_x23_1c1c22ff">
	<path class="st94" d="M93.1,191c4.6,1.9,8.8-1.3,13.2,0.1c7.1-2.6,14,1.6,20.7,3.6c6.4-2.6,14-3.6,20,0.4c6.2-3.2,18.7-3.8,16,6.8
		c-2.9,9.6-13.7,8-20.3,12.9c-10.1,1.2-20.4,2.2-30.5,0c-5.1-2.2-10.6-3.1-15.7-5.3C88.9,208,86.3,194.4,93.1,191z"/>
</g>
<g id="_x23_fcfaacff">
	<path class="st95" d="M200.1,192c8.1,1.8,18.5,8.9,12.4,18.3c3.1-8.9-12-21.2-17.3-11.5c-0.2,0.3-0.7,1-1,1.4
		c-0.8-1.4-1.5-2.8-2.2-4.3C195.2,198.6,197.4,193.3,200.1,192z"/>
</g>
<g id="_x23_986b33ff">
	<path class="st96" d="M39.8,208.3c0-7.8,6.7-17.1,15.3-15.5c0.1,0.3,0.4,1,0.6,1.4c-6.4,4.6-13.4,10.5-14,19
		C41.1,211.5,40.5,209.9,39.8,208.3z"/>
</g>
<g id="_x23_6e5029ff">
	<path class="st97" d="M41.7,213.1c0.5-8.5,7.5-14.4,14-19l0.4,0.8c1.1,2.1,2.9,3.6,4.6,5.1c-0.5,1.9-0.8,3.9-0.8,5.9
		c0,2,0,4.1,0,6.1l-0.9-0.1c1-4.5-3.9-4.6-6.9-5.8c-2.9,1.7,1.9,4.2,0.2,6.2c-2.5,3.2-5,6.4-7.5,9.6l-0.8,0.1
		c-0.3-2.5-1-4.9-1.8-7.3C42.1,214.4,41.9,213.6,41.7,213.1z"/>
</g>
<g id="_x23_e9c39fff">
	<path class="st98" d="M181.8,193.7l0.6,0.6c2.4,6.1,6.3,0.4,9.5,1.6c0.7,1.5,1.4,2.9,2.2,4.3c-0.6,1.4-1.2,2.7-1.9,4
		c-1.6,1.2-3.4,2-5.2,2.7c-3.3,3.1-10-1-10.2,4.9c-0.3,0.9-0.6,1.9-0.8,2.9c-0.4,0.1-1.3,0.3-1.8,0.4c1.3-3.7,1.8-7.6,1.6-11.4
		c0.3-1.4,0.6-2.7,1.1-4c-2.7,7.7,6.8,5.5,6.9,1.4C181.9,199.1,180.3,196.6,181.8,193.7z"/>
</g>
<g id="_x23_fdf47eff">
	<path class="st99" d="M195.1,198.8c5.4-9.7,20.4,2.6,17.3,11.5c-0.1,0.4-0.3,1.4-0.4,1.8l-0.8-0.3
		C207.1,206.3,202.2,200,195.1,198.8z"/>
</g>
<g id="_x23_48423cff">
	<path class="st100" d="M76.6,201.4c-1.2-6.6,2.8,5,5.6,1.8c2.2-2.3,1.8,0.9,2.1,2.6c8.5,5.1,18,8.5,27.9,9c10,2.2,20.4,1.2,30.5,0
		c6.7-0.8,12.9-3.7,19.5-4.7c-4.5,2.7-9.4,4.6-13.5,7.9c0.6,0.4,1.7,1.2,2.3,1.5c-0.7,0.4-1.4,0.8-2.2,1.2
		c-12.4,0.5-24.9,0.5-37.2-1.3c-6.3,0.2-13.9-2.8-19.3,1.7l-0.8-0.3c0.9-3.3,5-2.2,6.7-4.7c-6.4-4.1-14.3-11.2-22.5-7
		c-0.7-2.7-1.5-5.3-1.6-8.1C75.1,202.2,77.8,204.6,76.6,201.4z"/>
</g>
<g id="_x23_f3c960ff">
	<path class="st101" d="M195.1,198.8c7.1,1.2,12,7.5,16.1,13c-0.7,1.5-1.3,3-1.9,4.4c0.5-6.4-7.3-7.9-11.2-11.3
		c-1.8-1.5-3.8-2.2-5.8-0.7c0.6-1.3,1.3-2.7,1.9-4C194.4,199.9,194.9,199.2,195.1,198.8z"/>
</g>
<g id="_x23_79675bff">
	<path class="st102" d="M60.8,200c6.7,3.7,14.3,7.5,14.6,16.3c-2.1,2.5-5.5,2.5-8.2,3.9c-2,3.6-3.5,8.3-8.1,9
		c-0.2-5.8,0-11.5,0-17.3L60,212c0,2.1,0,4.2,0.1,6.3c-2.7,8.4,2.4,5.6,3.3,1.2c-0.5-4.1,2.8-5.9,5.3-7.9c0.8-3-3.7-3.1-5.6-3.7
		c-1.1-0.6-2.1-1.3-3.2-2C59.9,203.9,60.3,201.9,60.8,200z"/>
</g>
<g id="_x23_d6a34fff">
	<path class="st103" d="M192.2,204.2c2-1.5,4.1-0.8,5.8,0.7c3.9,3.4,11.7,4.9,11.2,11.3c-6.6-4.8-13.9-8.9-22.2-9.3
		C188.9,206.2,190.7,205.4,192.2,204.2z"/>
</g>
<g id="_x23_64584dff">
	<path class="st104" d="M162.2,210.1c4.3-2,12-0.7,13.6-6.3c0.2,3.9-0.3,7.8-1.6,11.4c-0.6,0.6-1.3,1.1-1.9,1.7
		c-0.1-0.4-0.3-1.3-0.4-1.8c-6.1,4.3-13.4,6.1-20.9,4.4c-0.6-0.4-1.7-1.1-2.3-1.5C152.8,214.7,157.7,212.7,162.2,210.1z"/>
</g>
<g id="_x23_4a391eff">
	<path class="st105" d="M52.2,206.1c3,1.2,7.9,1.4,6.9,5.8c-0.1,5.8-0.2,11.5,0,17.3c-1.1,8.1,3.7,14.2,7.4,20.8H46.9
		c2.8-9.5-1.1-18.7-2-28.1c2.5-3.2,5-6.4,7.5-9.6C54,210.3,49.3,207.8,52.2,206.1z"/>
</g>
<g id="_x23_e7c6acff">
	<path class="st106" d="M60,205.9c1,0.7,2.1,1.4,3.2,2c-1.3,3,0.7,8.7-3,10.4c-0.1-2.1-0.1-4.2-0.1-6.3C60,210,59.9,207.9,60,205.9z
		"/>
</g>
<g id="_x23_b18848ff">
	<path class="st107" d="M187.1,207c8.3,0.4,15.6,4.5,22.2,9.3c-0.1,0.4-0.3,1.2-0.4,1.6c-0.8,1.5-1.6,2.9-2.4,4.4
		c-2.6-10.1-16.8-6.6-24.1-10.7c-1.8-1.7-3.7-0.7-5.5,0.4C177,205.9,183.8,210,187.1,207z"/>
</g>
<g id="_x23_f8ead0ff">
	<path class="st108" d="M39.2,207.7l0.6,0.6c0.7,1.6,1.3,3.2,2,4.8c0.1,0.4,0.4,1.2,0.5,1.6c-0.2,3.9-0.7,7.7-1.2,11.6
		c-0.4-1.2-0.9-2.4-1.3-3.5c-0.5-1.8-1-3.5-1.6-5.3c-0.3-1.1-0.6-2.1-1-3.1c-3.8-3.8-8.1,6.6-10.4,9.5c-0.9,1.3-1.9,2.6-2.8,3.9
		c-5.1,4.9-4.7,12-5.7,18.4c-0.9,1.2-1.8,2.4-2.7,3.7h-1.9c1.6-4.7,3.6-9.3,4.1-14.3c2.6-9.8,9.5-17.7,15.6-25.4
		C36,209.6,40.2,212.6,39.2,207.7z"/>
</g>
<g id="_x23_a88e7dff">
	<path class="st109" d="M63.1,207.9c2,0.6,6.5,0.7,5.6,3.7c-2.6,2-5.9,3.8-5.3,7.9c-1,4.4-6.1,7.2-3.3-1.2
		C63.8,216.6,61.8,210.9,63.1,207.9z"/>
</g>
<g id="_x23_5c534eff">
	<path class="st110" d="M75.7,209.1c8.2-4.2,16.1,2.9,22.5,7c-1.6,2.4-5.8,1.4-6.7,4.7c-4.6-2.8-11-1.5-14.3-6.2
		C76.7,212.8,76.1,211,75.7,209.1z"/>
</g>
<g id="_x23_896e3aff">
	<path class="st111" d="M176.9,211.9c1.8-1.1,3.8-2.1,5.5-0.4c7.3,4.1,21.5,0.6,24.1,10.7c-0.8,4.4-2.1,8.7-3.3,13
		c-0.6-14.4-19.4-11.4-27.1-20.5C176.3,213.8,176.6,212.9,176.9,211.9z"/>
</g>
<g id="_x23_debd9fff">
	<path class="st112" d="M211.2,211.8l0.8,0.3c0.5,2.6-3,11.7,1.2,8.6c-0.1,0.5-0.2,1.5-0.2,2c-0.6,1.6-1.3,3.3-1.9,4.9
		c-4.6,3.7,0.5-8.5-2.1-9.9c0.1-0.4,0.3-1.2,0.4-1.6C209.9,214.7,210.5,213.3,211.2,211.8z"/>
</g>
<g id="_x23_e3c4a3ff">
	<path class="st113" d="M26.8,223.9c2.3-2.9,6.7-13.3,10.4-9.5C33,216.7,31,221.6,26.8,223.9z"/>
</g>
<g id="_x23_c39d7fff">
	<path class="st114" d="M26.8,223.9c4.2-2.3,6.2-7.2,10.4-9.5c0.4,1,0.7,2.1,1,3.1c-8.1,6-16.4,14.6-16.3,25.4
		c-0.5,2.6-2.2,4.7-3.3,7.1h-3c0.9-1.2,1.8-2.4,2.7-3.7c3.8-5.3,2.6-12.6,5.7-18.4C24.9,226.6,25.8,225.2,26.8,223.9z"/>
</g>
<g id="_x23_bea48fff">
	<path class="st115" d="M42.3,214.8c0.8,2.4,1.4,4.8,1.8,7.3c-1.1,2.5,3.7,18.9-1,12.8c-0.6-2.8-1.5-5.6-2-8.5
		C41.6,222.5,42,218.7,42.3,214.8z"/>
</g>
<g id="_x23_817368ff">
	<path class="st116" d="M75.9,215.8c0.3-0.3,1-0.9,1.3-1.2c3.4,4.7,9.7,3.5,14.3,6.2l0.8,0.3c1.7,1.2,3.5,2.2,5.4,3
		c3.2,3.1,7.2,5.1,10.8,7.7c-8.3-0.4-17.2-7-25.8-9.7c0.7,4.1,4.4,6.9,5.3,10.9C81.3,230.9,79.5,221.6,75.9,215.8z"/>
</g>
<g id="_x23_5d512bff">
	<path class="st117" d="M151,219.5c7.5,1.7,14.8-0.1,20.9-4.4c0.1,0.4,0.3,1.3,0.4,1.8l-0.1,0.7c-1.6,1.4-3.5,2.9-2.1,5.1
		c0.8,1.5,0.1,2.6-1.2,3.5c-3.4,2.9-3.5,7.9-6.1,11.4c-3.6,8.6-18.6,0.7-19.1,12.3h-12c-6.1-7.5-14.4-13.6-23-18.1
		c-3.6-2.6-7.6-4.7-10.8-7.7c8.8,1.8,17,7.6,26.3,6.2c10.9,1.1,24.1,0.1,32.1-8.2c-2.3-0.9-4.8-1.2-7.3-1.4
		C149.5,220.4,150.2,219.9,151,219.5z"/>
</g>
<g id="_x23_b2a27fff">
	<path class="st118" d="M174.2,215.2c0.4-0.1,1.3-0.3,1.8-0.4c-0.1,3.4-4.6,9.5-3.8,2.8l0.1-0.7C173,216.4,173.6,215.8,174.2,215.2z
		"/>
</g>
<g id="_x23_6a5b32ff">
	<path class="st119" d="M176,214.8c7.7,9.1,26.6,6.1,27.1,20.5c-0.8,4.9-1.1,9.8-1.3,14.7h-48.3c9.7-1.9-3.4-3.3-6.6-4.2
		c1.2,1.4,2.5,2.7,3.6,4.2h-6.9c0.5-11.6,15.5-3.7,19.1-12.3c2.7-3.5,2.8-8.4,6.1-11.4c2.9,5.2,6.8-7.5,1.2-3.5
		c-1.4-2.3,0.6-3.7,2.1-5.1C171.4,224.3,176,218.2,176,214.8z"/>
</g>
<g id="_x23_605957ff">
	<path class="st120" d="M75.3,216.3l0.6-0.5c3.6,5.8,5.3,15.1,12.2,17.3c-1-4-4.6-6.7-5.3-10.9c8.6,2.8,17.5,9.3,25.8,9.7
		c8.6,4.5,16.9,10.6,23,18.1h-20.4c2-7.8-7-6.8-10.3-2.4c-8-4.5-14.2-16.5-23.8-13.6c2.4,6.4,7,11.7,12.2,15.9H66.5
		c-3.7-6.5-8.5-12.7-7.4-20.8c4.7-0.8,6.1-5.4,8.1-9C69.8,218.7,73.3,218.8,75.3,216.3z"/>
</g>
<g id="_x23_f4d8adff">
	<path class="st121" d="M214,218.7c2-6.8,7,2.9,9.3,5.1c8.2,6.6,8.7,16.9,10.9,26.3h-1C231.3,237.4,225.3,225.4,214,218.7z"/>
</g>
<g id="_x23_917261ff">
	<path class="st122" d="M21.9,242.9c-0.1-10.8,8.2-19.5,16.3-25.4c0.6,1.8,1,3.5,1.6,5.3c-10.8,4.5-16.5,15.9-16.9,27.2h-4.3
		C19.7,247.6,21.4,245.5,21.9,242.9z"/>
</g>
<g id="_x23_9c8676ff">
	<path class="st123" d="M206.5,222.2c0.8-1.4,1.6-2.9,2.4-4.4c2.6,1.4-2.4,13.7,2.1,9.9c-1,7-6.1,15.9-1.9,22.2h-7.2
		c0.2-4.9,0.5-9.9,1.3-14.7C204.3,230.9,205.7,226.6,206.5,222.2z"/>
</g>
<g id="_x23_514727ff">
	<path class="st124" d="M92.3,221.2c5.4-4.5,13-1.5,19.3-1.7c12.3,1.8,24.8,1.8,37.2,1.3c2.5,0.1,5,0.5,7.3,1.4
		c-8,8.3-21.2,9.3-32.1,8.2c-9.3,1.5-17.6-4.4-26.3-6.2C95.8,223.4,94,222.3,92.3,221.2z"/>
</g>
<g id="_x23_d7af8aff">
	<path class="st125" d="M214,218.7c11.3,6.8,17.3,18.8,19.2,31.3h-3c-0.1-0.4-0.4-1.3-0.5-1.7c2.7-12-8.1-21.1-16.5-27.5
		C213.4,220.2,213.8,219.2,214,218.7z"/>
</g>
<g id="_x23_b28a70ff">
	<path class="st126" d="M213.1,220.8c8.4,6.4,19.2,15.5,16.5,27.5c-0.4-11.4-9.2-18.4-16.8-25.5C213,222.3,213.1,221.3,213.1,220.8z
		"/>
</g>
<g id="_x23_8e7b6eff">
	<path class="st127" d="M44,222.1l0.8-0.1c0.9,9.4,4.8,18.6,2,28.1h-3.6c0.8-5,0.4-10.1-0.2-15.1C47.7,240.9,42.9,224.6,44,222.1z"
		/>
</g>
<g id="_x23_a89777ff">
	<path class="st128" d="M170.1,222.8c5.6-3.9,1.7,8.7-1.2,3.5C170.2,225.4,170.8,224.3,170.1,222.8z"/>
</g>
<g id="_x23_65554bff">
	<path class="st129" d="M22.9,250c0.4-11.3,6.1-22.7,16.9-27.2c0.4,1.2,0.9,2.4,1.3,3.5c0.5,2.9,1.4,5.7,2,8.5
		c0.6,5,1,10.1,0.2,15.1H22.9z"/>
</g>
<g id="_x23_8a6b5aff">
	<path class="st130" d="M212.9,222.8c7.6,7.1,16.3,14.1,16.8,25.5c0.1,0.4,0.4,1.3,0.5,1.7h-4c1-10-6-19-15.1-22.2
		C211.6,226.1,212.3,224.4,212.9,222.8z"/>
</g>
<g id="_x23_e6c5a1ff">
	<path class="st131" d="M18.3,246.3c0.9-6.4,0.6-13.5,5.7-18.4C20.9,233.7,22.1,241,18.3,246.3z"/>
</g>
<g id="_x23_67564bff">
	<path class="st132" d="M211,227.8c9.1,3.3,16.1,12.3,15.1,22.2h-17C205,243.7,210.1,234.8,211,227.8z"/>
</g>
<g id="_x23_494441ff">
	<path class="st133" d="M77.1,234.1c9.6-2.9,15.8,9,23.8,13.6c-0.8,0.8-1.7,1.6-2.5,2.4h-9.1C84.1,245.7,79.5,240.5,77.1,234.1z"/>
</g>
<g id="_x23_907e62ff">
	<path class="st134" d="M100.9,247.6c3.3-4.5,12.2-5.5,10.3,2.4H98.4C99.2,249.2,100.1,248.4,100.9,247.6z"/>
</g>
<g id="_x23_a7916aff">
	<path class="st135" d="M147,245.8c3.2,0.9,16.3,2.3,6.6,4.2h-3C149.5,248.5,148.2,247.1,147,245.8z"/>
</g>
</svg>
