<?xml version="1.0" encoding="UTF-8" ?>
<!DOCTYPE svg PUBLIC "-//W3C//DTD SVG 1.1//EN" "http://www.w3.org/Graphics/SVG/1.1/DTD/svg11.dtd">
<svg width="250pt" height="250pt" viewBox="0 0 250 250" version="1.1" xmlns="http://www.w3.org/2000/svg">
<g id="#ffffffff">
<path fill="#ffffff" opacity="1.00" d=" M 0.00 0.00 L 120.34 0.00 C 92.00 1.07 64.16 12.13 42.83 30.81 C 17.84 52.17 2.42 83.86 0.00 116.55 L 0.00 0.00 Z" />
<path fill="#ffffff" opacity="1.00" d=" M 131.54 0.00 L 250.00 0.00 L 250.00 123.40 C 249.38 88.36 233.75 53.69 207.05 30.83 C 186.24 12.50 159.18 1.67 131.54 0.00 Z" />
<path fill="#ffffff" opacity="1.00" d=" M 167.44 71.72 C 169.99 70.05 173.00 69.82 175.69 71.34 C 175.65 73.10 175.62 74.86 175.60 76.62 C 173.57 77.36 171.05 78.48 169.08 76.99 C 167.24 75.87 167.72 73.52 167.44 71.72 Z" />
<path fill="#ffffff" opacity="1.00" d=" M 178.34 77.31 C 180.07 76.65 181.97 74.77 183.80 76.22 C 186.33 77.13 186.54 79.83 186.47 82.14 C 183.94 83.79 181.01 84.13 178.34 82.60 C 178.34 80.84 178.34 79.07 178.34 77.31 Z" />
<path fill="#ffffff" opacity="1.00" d=" M 157.51 77.70 C 158.66 76.99 159.81 76.28 160.97 75.57 C 162.39 76.07 163.82 76.56 165.26 77.04 C 165.34 78.64 165.41 80.24 165.49 81.85 C 163.26 84.16 160.03 84.05 157.45 82.39 C 157.47 80.82 157.49 79.26 157.51 77.70 Z" />
<path fill="#ffffff" opacity="1.00" d=" M 147.25 83.60 C 149.68 82.25 152.39 82.11 154.73 83.75 C 154.68 85.57 154.63 87.39 154.57 89.21 C 152.22 90.48 149.75 90.53 147.40 89.23 C 147.35 87.35 147.31 85.48 147.25 83.60 Z" />
<path fill="#ffffff" opacity="1.00" d=" M 167.49 83.84 C 168.97 83.09 170.26 81.75 171.98 81.60 C 173.21 82.10 174.39 82.74 175.59 83.35 C 175.59 85.03 175.60 86.71 175.61 88.40 C 173.56 89.32 171.00 90.54 169.00 88.83 C 167.18 87.84 167.79 85.51 167.49 83.84 Z" />
<path fill="#ffffff" opacity="1.00" d=" M 188.59 83.70 C 189.71 82.97 190.83 82.22 192.02 81.58 C 193.72 81.73 195.07 82.95 196.56 83.67 C 196.53 85.23 196.52 86.79 196.51 88.35 C 193.99 90.03 191.04 89.97 188.53 88.29 C 188.56 86.76 188.57 85.23 188.59 83.70 Z" />
<path fill="#ffffff" opacity="1.00" d=" M 63.65 83.79 C 66.26 82.27 69.16 81.97 71.58 84.01 C 71.57 85.58 71.57 87.15 71.58 88.72 C 70.14 89.35 68.80 90.46 67.17 90.52 C 65.88 89.93 64.73 89.07 63.53 88.31 C 63.58 86.80 63.62 85.29 63.65 83.79 Z" />
<path fill="#ffffff" opacity="1.00" d=" M 53.40 89.76 C 55.34 88.68 57.92 87.56 59.94 89.11 C 61.70 90.20 61.23 92.51 61.56 94.25 C 60.04 95.09 58.53 95.94 57.02 96.78 C 55.77 96.01 54.55 95.21 53.30 94.44 C 53.34 92.88 53.37 91.32 53.40 89.76 Z" />
<path fill="#ffffff" opacity="1.00" d=" M 136.52 89.61 C 137.98 88.82 139.44 88.03 140.92 87.27 C 142.10 88.07 143.30 88.87 144.49 89.66 C 144.51 90.64 144.55 92.60 144.57 93.58 C 142.50 96.50 138.60 96.15 136.40 93.59 C 136.43 92.59 136.49 90.60 136.52 89.61 Z" />
<path fill="#ffffff" opacity="1.00" d=" M 157.35 89.47 C 158.86 88.86 160.25 87.55 161.97 87.71 C 163.21 88.29 164.39 88.99 165.59 89.67 C 165.38 91.61 164.97 93.53 164.29 95.36 C 162.03 95.53 159.33 96.20 157.73 94.08 C 157.44 92.56 157.45 91.00 157.35 89.47 Z" />
<path fill="#ffffff" opacity="1.00" d=" M 178.53 89.40 C 179.66 88.62 180.88 87.98 182.07 87.30 C 183.55 88.15 185.04 89.01 186.53 89.85 C 186.25 91.55 186.67 93.81 184.90 94.84 C 182.91 96.51 180.33 95.27 178.31 94.38 C 178.35 92.72 178.30 91.05 178.53 89.40 Z" />
<path fill="#ffffff" opacity="1.00" d=" M 199.52 88.93 C 200.69 88.45 201.86 87.97 203.03 87.47 C 204.20 87.98 205.38 88.48 206.56 88.98 C 206.63 90.76 206.69 92.54 206.76 94.32 C 204.37 95.93 201.61 95.94 199.16 94.44 C 199.27 92.60 199.38 90.77 199.52 88.93 Z" />
<path fill="#ffffff" opacity="1.00" d=" M 74.27 89.64 C 76.73 88.20 79.37 88.19 81.81 89.67 C 81.43 91.55 82.46 94.20 80.61 95.49 C 78.80 97.26 76.41 95.57 74.38 95.20 C 74.35 93.35 74.31 91.49 74.27 89.64 Z" />
<path fill="#ffffff" opacity="1.00" d=" M 42.70 95.99 C 44.03 95.26 45.36 94.52 46.69 93.78 C 47.98 94.41 49.28 95.03 50.59 95.65 C 50.61 97.29 50.63 98.92 50.65 100.56 C 49.40 101.27 48.15 102.00 46.91 102.73 C 45.49 101.90 44.07 101.07 42.65 100.23 C 42.66 98.82 42.68 97.40 42.70 95.99 Z" />
<path fill="#ffffff" opacity="1.00" d=" M 65.04 94.99 C 67.02 93.74 69.73 94.23 71.34 95.88 C 71.57 97.49 71.53 99.13 71.59 100.76 C 70.33 101.35 69.10 102.02 67.78 102.47 C 66.16 102.14 64.84 101.04 63.40 100.31 C 63.81 98.51 63.00 95.98 65.04 94.99 Z" />
<path fill="#ffffff" opacity="1.00" d=" M 126.23 95.65 C 128.52 94.31 131.13 93.97 133.43 95.47 C 133.69 96.10 134.19 97.35 134.44 97.98 C 134.07 99.02 133.70 100.06 133.34 101.10 C 132.24 101.58 131.14 102.07 130.05 102.57 C 128.87 102.03 127.70 101.50 126.52 100.98 C 126.39 99.20 126.31 97.43 126.23 95.65 Z" />
<path fill="#ffffff" opacity="1.00" d=" M 147.17 95.58 C 149.61 94.02 152.41 94.07 154.82 95.66 C 154.72 97.42 154.63 99.18 154.52 100.93 C 153.33 101.47 152.15 102.02 150.97 102.57 C 149.80 102.06 148.63 101.55 147.46 101.06 C 147.35 99.23 147.26 97.40 147.17 95.58 Z" />
<path fill="#ffffff" opacity="1.00" d=" M 188.34 95.73 C 189.89 94.95 191.28 93.64 193.08 93.52 C 194.27 94.06 195.40 94.74 196.54 95.39 C 196.54 96.88 196.55 98.38 196.57 99.88 C 194.74 101.23 192.27 102.64 190.16 100.93 C 188.14 99.97 188.66 97.52 188.34 95.73 Z" />
<path fill="#ffffff" opacity="1.00" d=" M 209.52 95.69 C 212.03 94.00 214.90 94.16 217.41 95.76 C 217.42 97.28 217.43 98.80 217.46 100.32 C 216.07 101.05 214.82 102.30 213.20 102.48 C 211.87 101.95 210.68 101.12 209.46 100.39 C 209.48 98.82 209.51 97.26 209.52 95.69 Z" />
<path fill="#ffffff" opacity="1.00" d=" M 136.49 101.66 C 137.90 100.94 139.11 99.48 140.77 99.44 C 142.10 99.99 143.28 100.86 144.51 101.61 C 144.51 102.99 144.52 104.38 144.54 105.77 C 142.25 108.21 138.57 108.20 136.41 105.58 C 136.43 104.60 136.47 102.64 136.49 101.66 Z" />
<path fill="#ffffff" opacity="1.00" d=" M 32.58 101.65 C 35.05 99.98 37.97 100.07 40.43 101.73 C 40.42 103.26 40.43 104.79 40.43 106.32 C 38.97 107.03 37.67 108.43 35.94 108.34 C 34.68 107.90 33.57 107.14 32.43 106.47 C 32.49 104.86 32.54 103.25 32.58 101.65 Z" />
<path fill="#ffffff" opacity="1.00" d=" M 53.37 101.62 C 55.35 100.75 57.73 99.51 59.76 100.99 C 61.89 101.83 61.18 104.41 61.50 106.19 C 60.02 107.00 58.55 107.82 57.08 108.64 C 55.84 107.89 54.60 107.15 53.35 106.42 C 53.36 104.82 53.37 103.22 53.37 101.62 Z" />
<path fill="#ffffff" opacity="1.00" d=" M 200.48 100.42 C 202.27 98.64 204.65 100.17 206.58 100.80 C 206.63 102.66 206.67 104.51 206.72 106.37 C 204.31 107.84 201.60 107.79 199.18 106.36 C 199.55 104.41 198.49 101.71 200.48 100.42 Z" />
<path fill="#ffffff" opacity="1.00" d=" M 42.49 108.44 C 44.68 105.89 48.02 105.87 50.73 107.61 C 50.64 109.39 50.55 111.17 50.44 112.95 C 49.24 113.48 48.05 114.02 46.86 114.57 C 45.47 113.77 44.08 112.96 42.68 112.16 C 42.64 111.23 42.54 109.37 42.49 108.44 Z" />
<path fill="#ffffff" opacity="1.00" d=" M 209.54 107.58 C 212.06 106.00 214.98 105.98 217.43 107.73 C 217.42 109.24 217.43 110.74 217.45 112.24 C 216.30 112.95 215.15 113.68 213.95 114.30 C 212.24 114.41 210.92 113.00 209.43 112.36 C 209.47 110.76 209.51 109.17 209.54 107.58 Z" />
<path fill="#ffffff" opacity="1.00" d=" M 126.21 107.58 C 128.77 106.06 133.06 105.31 134.27 108.89 C 135.42 111.89 132.38 113.54 130.17 114.62 C 128.97 114.05 127.77 113.50 126.57 112.96 C 126.43 111.17 126.32 109.37 126.21 107.58 Z" />
<path fill="#ffffff" opacity="1.00" d=" M 167.63 108.72 C 168.72 107.98 169.79 107.22 170.93 106.58 C 172.83 106.06 174.27 107.65 175.77 108.51 C 175.69 110.03 175.62 111.56 175.56 113.09 L 176.12 113.05 C 176.16 111.44 176.18 109.83 176.47 108.25 C 176.87 109.76 176.83 111.34 176.87 112.89 C 174.96 113.51 173.12 114.48 171.10 114.63 C 169.81 114.12 168.66 113.31 167.49 112.58 C 167.52 111.62 167.60 109.69 167.63 108.72 Z" />
<path fill="#ffffff" opacity="1.00" d=" M 94.80 112.95 C 97.26 111.72 100.58 110.54 102.48 113.35 C 102.73 115.32 103.34 118.13 100.96 119.05 C 98.85 120.47 96.18 119.12 94.95 117.18 C 94.76 115.78 94.83 114.36 94.80 112.95 Z" />
<path fill="#ffffff" opacity="1.00" d=" M 115.51 113.61 C 116.70 112.87 117.85 112.03 119.14 111.46 C 120.82 111.24 122.18 112.52 123.62 113.18 C 123.60 114.85 123.58 116.53 123.56 118.20 C 121.04 119.97 118.24 119.68 115.72 118.11 C 115.65 116.61 115.59 115.11 115.51 113.61 Z" />
<path fill="#ffffff" opacity="1.00" d=" M 199.63 113.45 C 200.75 112.80 201.88 112.15 203.00 111.50 C 204.24 112.21 205.49 112.90 206.74 113.59 C 206.45 115.73 207.53 118.95 204.77 119.75 C 202.03 121.51 199.33 118.50 198.36 116.13 C 198.67 115.46 199.31 114.12 199.63 113.45 Z" />
<path fill="#ffffff" opacity="1.00" d=" M 32.52 113.57 C 35.04 111.96 37.96 112.01 40.44 113.69 C 40.44 115.21 40.45 116.73 40.46 118.24 C 38.98 119.05 37.51 119.86 36.02 120.66 C 34.85 119.84 33.68 119.02 32.51 118.21 C 32.52 116.67 32.52 115.12 32.52 113.57 Z" />
<path fill="#ffffff" opacity="1.00" d=" M 137.34 113.74 C 139.65 112.41 142.17 112.28 144.47 113.71 C 144.77 114.84 145.08 115.97 145.38 117.11 C 145.13 117.69 144.62 118.87 144.37 119.46 C 142.69 120.08 140.71 121.33 139.02 120.07 C 136.33 119.04 137.51 115.93 137.34 113.74 Z" />
<path fill="#ffffff" opacity="1.00" d=" M 157.49 114.54 C 160.13 112.83 163.56 112.79 165.62 115.44 C 165.54 116.37 165.37 118.24 165.29 119.17 C 163.92 119.96 162.56 120.75 161.19 121.53 C 159.95 120.76 158.71 119.99 157.47 119.23 C 157.48 117.67 157.49 116.10 157.49 114.54 Z" />
<path fill="#ffffff" opacity="1.00" d=" M 178.25 119.51 C 178.36 117.54 178.48 115.57 178.63 113.60 C 180.85 113.45 183.07 113.42 185.30 113.50 C 186.28 115.80 187.24 119.02 184.41 120.47 C 182.44 122.31 180.12 120.46 178.25 119.51 Z" />
<path fill="#ffffff" opacity="1.00" d=" M 84.57 118.82 C 86.00 118.03 87.42 117.25 88.84 116.45 C 90.00 117.31 91.27 118.08 92.26 119.15 C 92.46 120.56 92.50 121.98 92.60 123.41 C 90.03 125.07 87.05 125.07 84.45 123.49 C 84.49 121.93 84.53 120.37 84.57 118.82 Z" />
<path fill="#ffffff" opacity="1.00" d=" M 105.38 118.51 C 107.40 117.57 109.96 116.40 111.99 117.95 C 113.90 119.05 113.27 121.48 113.64 123.30 C 111.08 124.83 108.07 125.20 105.40 123.70 C 105.40 121.97 105.39 120.24 105.38 118.51 Z" />
<path fill="#ffffff" opacity="1.00" d=" M 42.58 120.73 C 44.01 117.38 48.13 118.00 50.70 119.51 C 50.67 121.08 50.65 122.64 50.62 124.20 C 49.38 125.01 48.14 125.83 46.91 126.65 C 44.61 125.39 41.55 123.98 42.58 120.73 Z" />
<path fill="#ffffff" opacity="1.00" d=" M 127.92 118.53 C 130.06 118.37 132.21 118.48 134.34 118.74 C 134.47 120.68 134.58 122.62 134.68 124.56 C 132.06 126.01 129.01 126.11 126.49 124.39 C 126.50 123.46 126.54 121.60 126.56 120.67 C 126.90 120.14 127.58 119.07 127.92 118.53 Z" />
<path fill="#ffffff" opacity="1.00" d=" M 147.32 119.72 C 149.67 118.28 152.30 118.41 154.66 119.76 C 154.39 121.89 155.61 124.96 153.02 126.01 C 151.18 127.27 149.08 125.97 147.28 125.35 C 147.29 123.47 147.30 121.60 147.32 119.72 Z" />
<path fill="#ffffff" opacity="1.00" d=" M 167.59 120.68 C 168.75 119.88 169.87 118.99 171.16 118.40 C 172.85 118.32 174.22 119.48 175.67 120.17 C 175.62 121.87 175.59 123.58 175.54 125.28 C 174.08 125.75 172.67 126.49 171.12 126.59 C 169.86 126.04 168.73 125.25 167.57 124.53 C 167.58 123.57 167.58 121.64 167.59 120.68 Z" />
<path fill="#ffffff" opacity="1.00" d=" M 209.53 119.83 C 210.75 119.06 211.96 118.27 213.18 117.49 C 214.58 118.26 215.98 119.03 217.38 119.80 C 217.40 121.27 217.42 122.74 217.45 124.21 C 216.01 124.99 214.57 125.77 213.13 126.54 C 211.92 125.74 210.71 124.95 209.49 124.16 C 209.50 122.72 209.52 121.27 209.53 119.83 Z" />
<path fill="#ffffff" opacity="1.00" d=" M 74.30 124.66 C 76.69 123.37 79.36 123.20 81.70 124.71 C 81.69 126.55 81.68 128.40 81.67 130.25 C 79.30 131.63 76.76 131.65 74.41 130.22 C 74.37 128.36 74.33 126.51 74.30 124.66 Z" />
<path fill="#ffffff" opacity="1.00" d=" M 116.49 124.72 C 119.03 123.14 121.80 123.44 124.28 124.96 C 124.29 126.67 124.28 128.37 124.28 130.09 C 121.63 131.58 118.60 132.05 116.30 129.66 C 116.36 128.01 116.42 126.37 116.49 124.72 Z" />
<path fill="#ffffff" opacity="1.00" d=" M 32.54 125.86 C 33.74 125.06 34.93 124.26 36.13 123.46 C 37.57 124.23 39.02 125.01 40.46 125.79 C 40.45 127.32 40.45 128.85 40.45 130.38 C 37.95 132.06 35.00 132.08 32.49 130.42 C 32.51 128.90 32.52 127.38 32.54 125.86 Z" />
<path fill="#ffffff" opacity="1.00" d=" M 95.27 124.65 C 97.64 123.30 100.19 123.35 102.56 124.65 C 102.58 126.53 102.60 128.41 102.61 130.29 C 100.23 131.54 97.64 131.75 95.31 130.27 C 95.29 128.39 95.28 126.52 95.27 124.65 Z" />
<path fill="#ffffff" opacity="1.00" d=" M 136.47 126.57 C 138.99 125.09 142.01 124.81 144.50 126.52 C 144.49 128.14 144.48 129.77 144.49 131.40 C 141.97 133.06 138.98 133.06 136.49 131.32 C 136.49 129.73 136.49 128.15 136.47 126.57 Z" />
<path fill="#ffffff" opacity="1.00" d=" M 157.46 126.68 C 158.71 125.95 159.93 125.17 161.18 124.43 C 162.62 125.23 164.06 126.04 165.51 126.84 C 165.15 128.62 165.89 131.10 163.89 132.07 C 161.87 133.51 159.42 132.40 157.51 131.37 C 157.50 129.80 157.47 128.24 157.46 126.68 Z" />
<path fill="#ffffff" opacity="1.00" d=" M 199.55 124.60 C 201.84 124.35 204.15 124.35 206.44 124.57 C 206.63 126.83 206.63 129.09 206.48 131.35 C 203.98 131.73 201.41 131.82 199.12 130.60 C 199.25 128.60 199.39 126.60 199.55 124.60 Z" />
<path fill="#ffffff" opacity="1.00" d=" M 106.41 129.97 C 107.64 129.49 108.86 128.99 110.08 128.49 C 111.27 129.26 112.46 130.02 113.66 130.78 C 113.64 132.37 113.63 133.97 113.62 135.57 C 111.37 136.52 108.11 137.70 106.30 135.38 C 106.14 133.58 106.30 131.77 106.41 129.97 Z" />
<path fill="#ffffff" opacity="1.00" d=" M 0.00 128.67 C 0.91 162.57 16.28 195.89 41.78 218.30 C 62.79 237.15 90.31 248.38 118.46 250.00 L 0.00 250.00 L 0.00 128.67 Z" />
<path fill="#ffffff" opacity="1.00" d=" M 63.63 130.94 C 64.81 130.08 65.98 129.23 67.15 128.37 C 68.61 129.10 70.06 129.83 71.51 130.57 C 71.53 132.19 71.55 133.80 71.58 135.42 C 69.03 137.08 66.06 137.03 63.54 135.33 C 63.57 133.86 63.60 132.40 63.63 130.94 Z" />
<path fill="#ffffff" opacity="1.00" d=" M 84.47 130.57 C 87.01 128.99 90.03 128.66 92.45 130.67 C 92.45 132.23 92.46 133.79 92.47 135.35 C 89.98 136.98 87.00 137.01 84.50 135.37 C 84.50 133.77 84.49 132.17 84.47 130.57 Z" />
<path fill="#ffffff" opacity="1.00" d=" M 42.56 134.00 C 42.06 131.27 45.24 130.62 46.89 129.32 C 48.13 130.15 49.37 130.97 50.62 131.79 C 50.65 133.29 50.67 134.79 50.69 136.29 C 49.42 137.04 48.15 137.80 46.88 138.57 C 45.28 137.26 42.11 136.69 42.56 134.00 Z" />
<path fill="#ffffff" opacity="1.00" d=" M 126.36 131.72 C 128.93 129.98 131.72 130.38 134.24 131.94 C 134.27 133.39 134.30 134.84 134.34 136.30 C 133.22 137.05 132.14 137.89 130.92 138.49 C 129.18 138.94 127.74 137.53 126.27 136.85 C 126.30 135.14 126.33 133.43 126.36 131.72 Z" />
<path fill="#ffffff" opacity="1.00" d=" M 147.32 131.64 C 149.67 130.34 152.76 129.77 154.59 132.24 C 154.77 133.91 154.68 135.59 154.67 137.27 C 152.29 138.58 149.74 138.67 147.35 137.33 C 147.33 135.43 147.32 133.53 147.32 131.64 Z" />
<path fill="#ffffff" opacity="1.00" d=" M 209.67 131.04 C 211.11 130.55 212.55 130.04 213.99 129.52 C 215.13 130.31 216.28 131.09 217.43 131.87 C 217.42 133.36 217.42 134.85 217.42 136.34 C 214.92 138.09 211.92 138.03 209.42 136.32 C 209.50 134.56 209.57 132.80 209.67 131.04 Z" />
<path fill="#ffffff" opacity="1.00" d=" M 219.65 206.55 C 237.74 185.78 248.28 158.89 250.00 131.46 L 250.00 250.00 L 131.43 250.00 C 165.07 248.06 197.73 232.20 219.65 206.55 Z" />
<path fill="#ffffff" opacity="1.00" d=" M 74.32 136.66 C 76.70 135.27 79.39 135.19 81.73 136.70 C 81.71 138.54 81.68 140.38 81.65 142.23 C 79.27 143.65 76.76 143.63 74.41 142.17 C 74.37 140.33 74.35 138.49 74.32 136.66 Z" />
<path fill="#ffffff" opacity="1.00" d=" M 199.78 136.77 C 202.02 135.58 204.71 135.31 206.53 137.42 C 206.72 139.37 207.53 142.43 205.17 143.35 C 202.39 144.51 199.16 143.19 198.43 140.17 C 198.88 139.03 199.33 137.90 199.78 136.77 Z" />
<path fill="#ffffff" opacity="1.00" d=" M 32.51 137.81 C 33.70 137.00 34.90 136.18 36.09 135.35 C 37.60 136.16 39.12 136.97 40.63 137.78 C 40.23 139.54 40.90 141.95 39.02 143.00 C 37.00 144.57 34.47 143.36 32.53 142.32 C 32.53 140.81 32.52 139.31 32.51 137.81 Z" />
<path fill="#ffffff" opacity="1.00" d=" M 115.56 137.74 C 117.01 136.95 118.47 136.18 119.94 135.40 C 121.15 136.11 122.38 136.82 123.60 137.52 C 123.61 139.14 123.61 140.76 123.63 142.38 C 121.10 144.13 118.15 143.93 115.64 142.30 C 115.61 140.77 115.59 139.25 115.56 137.74 Z" />
<path fill="#ffffff" opacity="1.00" d=" M 212.02 142.11 C 213.99 140.61 215.88 143.01 217.61 143.75 C 217.25 145.55 217.91 148.05 215.92 149.06 C 213.90 150.60 211.51 149.20 209.55 148.34 C 209.52 146.74 209.49 145.14 209.46 143.55 C 210.30 143.05 211.16 142.57 212.02 142.11 Z" />
<path fill="#ffffff" opacity="1.00" d=" M 42.53 144.54 C 44.80 142.19 47.96 141.92 50.68 143.67 C 50.62 145.52 50.56 147.36 50.49 149.22 C 49.01 149.60 47.60 150.60 46.02 150.38 C 44.85 149.74 43.76 148.99 42.65 148.25 C 42.62 147.32 42.56 145.47 42.53 144.54 Z" />
<path fill="#ffffff" opacity="1.00" d=" M 105.39 143.68 C 107.40 142.87 109.94 141.46 111.94 143.08 C 113.68 144.18 113.31 146.44 113.61 148.19 C 112.36 148.99 111.15 149.88 109.81 150.54 C 108.16 150.44 106.79 149.31 105.32 148.67 C 105.35 147.00 105.37 145.34 105.39 143.68 Z" />
<path fill="#ffffff" opacity="1.00" d=" M 188.55 143.72 C 190.01 142.91 191.48 142.10 192.96 141.30 C 194.15 142.11 195.34 142.91 196.54 143.72 C 196.53 145.25 196.52 146.79 196.53 148.33 C 194.02 150.08 191.08 149.89 188.57 148.25 C 188.57 146.74 188.56 145.22 188.55 143.72 Z" />
<path fill="#ffffff" opacity="1.00" d=" M 95.42 149.03 C 96.63 148.51 97.82 147.98 99.02 147.44 C 100.17 147.99 101.32 148.52 102.48 149.05 C 102.57 150.83 102.64 152.61 102.71 154.39 C 100.30 155.84 97.53 156.02 95.13 154.41 C 95.22 152.61 95.31 150.82 95.42 149.03 Z" />
<path fill="#ffffff" opacity="1.00" d=" M 180.14 148.18 C 182.29 146.57 184.49 148.65 186.31 149.72 C 186.36 150.68 186.45 152.62 186.50 153.59 C 184.22 155.94 180.98 156.15 178.27 154.39 C 178.55 152.24 177.47 149.13 180.14 148.18 Z" />
<path fill="#ffffff" opacity="1.00" d=" M 199.42 148.81 C 201.71 147.51 204.70 147.00 206.53 149.39 C 206.75 150.97 206.70 152.58 206.72 154.18 C 205.40 154.87 204.09 155.57 202.78 156.28 C 201.63 155.57 200.47 154.86 199.32 154.17 C 199.34 152.38 199.37 150.59 199.42 148.81 Z" />
<path fill="#ffffff" opacity="1.00" d=" M 32.44 149.49 C 33.95 148.70 35.46 147.95 36.99 147.22 C 38.12 148.11 39.24 149.00 40.37 149.88 C 40.40 151.33 40.44 152.79 40.48 154.25 C 37.96 155.86 35.05 156.05 32.52 154.34 C 32.50 152.72 32.48 151.10 32.44 149.49 Z" />
<path fill="#ffffff" opacity="1.00" d=" M 53.32 149.63 C 56.02 147.90 59.20 148.05 61.44 150.45 C 61.43 151.40 61.40 153.31 61.39 154.26 C 59.91 155.12 58.43 155.99 56.95 156.85 C 55.80 156.08 54.61 155.38 53.55 154.49 C 53.32 152.88 53.37 151.25 53.32 149.63 Z" />
<path fill="#ffffff" opacity="1.00" d=" M 115.41 149.67 C 116.92 148.88 118.42 148.08 119.92 147.28 C 121.18 148.08 122.45 148.87 123.72 149.65 C 123.67 150.99 123.68 152.34 123.50 153.68 C 122.36 154.73 121.04 155.55 119.78 156.45 C 118.41 155.46 116.73 154.77 115.74 153.37 C 115.66 152.44 115.49 150.59 115.41 149.67 Z" />
<path fill="#ffffff" opacity="1.00" d=" M 44.04 155.18 C 46.04 153.41 48.69 154.73 50.75 155.64 C 50.63 157.44 50.52 159.24 50.37 161.05 C 49.19 161.56 48.01 162.07 46.83 162.60 C 45.37 161.79 43.91 160.98 42.44 160.18 C 42.69 158.46 42.33 156.26 44.04 155.18 Z" />
<path fill="#ffffff" opacity="1.00" d=" M 63.44 156.46 C 65.65 153.91 69.18 153.72 71.60 156.06 C 71.57 157.61 71.55 159.15 71.53 160.70 C 70.03 161.39 68.52 162.06 67.02 162.73 C 65.89 161.86 64.77 161.00 63.64 160.14 C 63.59 159.22 63.49 157.38 63.44 156.46 Z" />
<path fill="#ffffff" opacity="1.00" d=" M 105.35 155.62 C 107.27 154.61 109.39 154.28 111.54 154.30 C 113.12 156.10 114.65 159.36 112.15 161.08 C 110.31 163.30 107.34 162.16 105.53 160.59 C 105.34 158.94 105.39 157.28 105.35 155.62 Z" />
<path fill="#ffffff" opacity="1.00" d=" M 167.61 155.77 C 169.89 153.52 172.74 153.50 175.55 154.78 C 175.33 156.95 176.58 160.01 173.99 161.14 C 171.62 162.56 169.38 160.90 167.51 159.52 C 167.53 158.59 167.58 156.71 167.61 155.77 Z" />
<path fill="#ffffff" opacity="1.00" d=" M 188.55 155.58 C 190.00 154.87 191.28 153.52 193.00 153.56 C 194.23 154.08 195.41 154.73 196.59 155.36 C 196.56 156.84 196.53 158.32 196.52 159.80 C 194.30 162.28 190.54 162.13 188.43 159.59 C 188.46 158.59 188.52 156.59 188.55 155.58 Z" />
<path fill="#ffffff" opacity="1.00" d=" M 84.26 160.47 C 84.21 158.03 84.85 155.76 86.67 154.06 C 88.65 154.36 90.59 154.89 92.41 155.73 C 92.43 157.25 92.46 158.78 92.50 160.32 C 91.35 161.00 90.21 161.72 89.00 162.31 C 87.28 162.23 85.81 161.13 84.26 160.47 Z" />
<path fill="#ffffff" opacity="1.00" d=" M 178.50 161.38 C 179.69 160.35 181.18 159.36 182.83 159.50 C 184.12 160.15 185.28 161.03 186.50 161.82 C 186.19 163.53 186.87 166.07 184.77 166.85 C 182.73 168.39 180.34 167.13 178.31 166.32 C 178.34 164.67 178.30 163.02 178.50 161.38 Z" />
<path fill="#ffffff" opacity="1.00" d=" M 53.36 161.59 C 55.92 159.88 58.87 160.15 61.38 161.77 C 61.35 163.24 61.33 164.70 61.32 166.17 C 59.96 166.90 58.81 168.34 57.21 168.47 C 55.86 167.97 54.62 167.23 53.34 166.57 C 53.36 164.91 53.36 163.25 53.36 161.59 Z" />
<path fill="#ffffff" opacity="1.00" d=" M 74.23 161.51 C 76.65 160.03 79.32 160.09 81.78 161.43 C 81.74 163.16 81.78 164.90 81.53 166.62 C 80.41 167.41 79.20 168.06 78.01 168.75 C 76.84 168.04 75.63 167.38 74.54 166.56 C 74.27 164.89 74.30 163.19 74.23 161.51 Z" />
<path fill="#ffffff" opacity="1.00" d=" M 95.25 165.58 C 92.93 162.23 97.62 158.00 100.87 160.04 C 103.51 161.04 102.37 164.20 102.71 166.36 C 100.28 167.63 96.91 168.49 95.25 165.58 Z" />
<path fill="#ffffff" opacity="1.00" d=" M 63.56 167.75 C 66.05 166.05 68.99 165.92 71.55 167.57 C 71.56 169.19 71.58 170.81 71.61 172.44 C 70.10 173.06 68.74 174.50 67.01 174.27 C 65.84 173.65 64.74 172.92 63.63 172.20 C 63.61 170.72 63.59 169.23 63.56 167.75 Z" />
<path fill="#ffffff" opacity="1.00" d=" M 84.49 167.64 C 87.08 165.98 90.33 165.78 92.60 168.10 C 92.52 169.44 92.44 170.78 92.37 172.13 C 91.22 172.94 90.08 173.75 88.94 174.58 C 87.46 173.83 85.98 173.09 84.51 172.35 C 84.51 170.77 84.50 169.20 84.49 167.64 Z" />
<path fill="#ffffff" opacity="1.00" d=" M 74.28 173.32 C 77.03 171.98 80.23 171.92 82.36 174.39 C 82.33 175.67 82.30 176.95 82.29 178.24 C 80.01 179.74 76.78 180.55 74.49 178.63 C 74.26 176.87 74.32 175.09 74.28 173.32 Z" />
</g>
<g id="#f0b513ff">
<path fill="#f0b513" opacity="1.00" d=" M 120.34 0.00 L 131.54 0.00 C 159.18 1.67 186.24 12.50 207.05 30.83 C 233.75 53.69 249.38 88.36 250.00 123.40 L 250.00 131.46 C 248.28 158.89 237.74 185.78 219.65 206.55 C 197.73 232.20 165.07 248.06 131.43 250.00 L 118.46 250.00 C 90.31 248.38 62.79 237.15 41.78 218.30 C 16.28 195.89 0.91 162.57 0.00 128.67 L 0.00 116.55 C 2.42 83.86 17.84 52.17 42.83 30.81 C 64.16 12.13 92.00 1.07 120.34 0.00 M 167.44 71.72 C 167.72 73.52 167.24 75.87 169.08 76.99 C 171.05 78.48 173.57 77.36 175.60 76.62 C 175.62 74.86 175.65 73.10 175.69 71.34 C 173.00 69.82 169.99 70.05 167.44 71.72 M 178.34 77.31 C 178.34 79.07 178.34 80.84 178.34 82.60 C 181.01 84.13 183.94 83.79 186.47 82.14 C 186.54 79.83 186.33 77.13 183.80 76.22 C 181.97 74.77 180.07 76.65 178.34 77.31 M 157.51 77.70 C 157.49 79.26 157.47 80.82 157.45 82.39 C 160.03 84.05 163.26 84.16 165.49 81.85 C 165.41 80.24 165.34 78.64 165.26 77.04 C 163.82 76.56 162.39 76.07 160.97 75.57 C 159.81 76.28 158.66 76.99 157.51 77.70 M 147.25 83.60 C 147.31 85.48 147.35 87.35 147.40 89.23 C 149.75 90.53 152.22 90.48 154.57 89.21 C 154.63 87.39 154.68 85.57 154.73 83.75 C 152.39 82.11 149.68 82.25 147.25 83.60 M 167.49 83.84 C 167.79 85.51 167.18 87.84 169.00 88.83 C 171.00 90.54 173.56 89.32 175.61 88.40 C 175.60 86.71 175.59 85.03 175.59 83.35 C 174.39 82.74 173.21 82.10 171.98 81.60 C 170.26 81.75 168.97 83.09 167.49 83.84 M 188.59 83.70 C 188.57 85.23 188.56 86.76 188.53 88.29 C 191.04 89.97 193.99 90.03 196.51 88.35 C 196.52 86.79 196.53 85.23 196.56 83.67 C 195.07 82.95 193.72 81.73 192.02 81.58 C 190.83 82.22 189.71 82.97 188.59 83.70 M 63.65 83.79 C 63.62 85.29 63.58 86.80 63.53 88.31 C 64.73 89.07 65.88 89.93 67.17 90.52 C 68.80 90.46 70.14 89.35 71.58 88.72 C 71.57 87.15 71.57 85.58 71.58 84.01 C 69.16 81.97 66.26 82.27 63.65 83.79 M 53.40 89.76 C 53.37 91.32 53.34 92.88 53.30 94.44 C 54.55 95.21 55.77 96.01 57.02 96.78 C 58.53 95.94 60.04 95.09 61.56 94.25 C 61.23 92.51 61.70 90.20 59.94 89.11 C 57.92 87.56 55.34 88.68 53.40 89.76 M 136.52 89.61 C 136.49 90.60 136.43 92.59 136.40 93.59 C 138.60 96.15 142.50 96.50 144.57 93.58 C 144.55 92.60 144.51 90.64 144.49 89.66 C 143.30 88.87 142.10 88.07 140.92 87.27 C 139.44 88.03 137.98 88.82 136.52 89.61 M 157.35 89.47 C 157.45 91.00 157.44 92.56 157.73 94.08 C 159.33 96.20 162.03 95.53 164.29 95.36 C 164.97 93.53 165.38 91.61 165.59 89.67 C 164.39 88.99 163.21 88.29 161.97 87.71 C 160.25 87.55 158.86 88.86 157.35 89.47 M 178.53 89.40 C 178.30 91.05 178.35 92.72 178.31 94.38 C 180.33 95.27 182.91 96.51 184.90 94.84 C 186.67 93.81 186.25 91.55 186.53 89.85 C 185.04 89.01 183.55 88.15 182.07 87.30 C 180.88 87.98 179.66 88.62 178.53 89.40 M 199.52 88.93 C 199.38 90.77 199.27 92.60 199.16 94.44 C 201.61 95.94 204.37 95.93 206.76 94.32 C 206.69 92.54 206.63 90.76 206.56 88.98 C 205.38 88.48 204.20 87.98 203.03 87.47 C 201.86 87.97 200.69 88.45 199.52 88.93 M 74.27 89.64 C 74.31 91.49 74.35 93.35 74.38 95.20 C 76.41 95.57 78.80 97.26 80.61 95.49 C 82.46 94.20 81.43 91.55 81.81 89.67 C 79.37 88.19 76.73 88.20 74.27 89.64 M 42.70 95.99 C 42.68 97.40 42.66 98.82 42.65 100.23 C 44.07 101.07 45.49 101.90 46.91 102.73 C 48.15 102.00 49.40 101.27 50.65 100.56 C 50.63 98.92 50.61 97.29 50.59 95.65 C 49.28 95.03 47.98 94.41 46.69 93.78 C 45.36 94.52 44.03 95.26 42.70 95.99 M 65.04 94.99 C 63.00 95.98 63.81 98.51 63.40 100.31 C 64.84 101.04 66.16 102.14 67.78 102.47 C 69.10 102.02 70.33 101.35 71.59 100.76 C 71.53 99.13 71.57 97.49 71.34 95.88 C 69.73 94.23 67.02 93.74 65.04 94.99 M 126.23 95.65 C 126.31 97.43 126.39 99.20 126.52 100.98 C 127.70 101.50 128.87 102.03 130.05 102.57 C 131.14 102.07 132.24 101.58 133.34 101.10 C 133.70 100.06 134.07 99.02 134.44 97.98 C 134.19 97.35 133.69 96.10 133.43 95.47 C 131.13 93.97 128.52 94.31 126.23 95.65 M 147.17 95.58 C 147.26 97.40 147.35 99.23 147.46 101.06 C 148.63 101.55 149.80 102.06 150.97 102.57 C 152.15 102.02 153.33 101.47 154.52 100.93 C 154.63 99.18 154.72 97.42 154.82 95.66 C 152.41 94.07 149.61 94.02 147.17 95.58 M 188.34 95.73 C 188.66 97.52 188.14 99.97 190.16 100.93 C 192.27 102.64 194.74 101.23 196.57 99.88 C 196.55 98.38 196.54 96.88 196.54 95.39 C 195.40 94.74 194.27 94.06 193.08 93.52 C 191.28 93.64 189.89 94.95 188.34 95.73 M 209.52 95.69 C 209.51 97.26 209.48 98.82 209.46 100.39 C 210.68 101.12 211.87 101.95 213.20 102.48 C 214.82 102.30 216.07 101.05 217.46 100.32 C 217.43 98.80 217.42 97.28 217.41 95.76 C 214.90 94.16 212.03 94.00 209.52 95.69 M 136.49 101.66 C 136.47 102.64 136.43 104.60 136.41 105.58 C 138.57 108.20 142.25 108.21 144.54 105.77 C 144.52 104.38 144.51 102.99 144.51 101.61 C 143.28 100.86 142.10 99.99 140.77 99.44 C 139.11 99.48 137.90 100.94 136.49 101.66 M 32.58 101.65 C 32.54 103.25 32.49 104.86 32.43 106.47 C 33.57 107.14 34.68 107.90 35.94 108.34 C 37.67 108.43 38.97 107.03 40.43 106.32 C 40.43 104.79 40.42 103.26 40.43 101.73 C 37.97 100.07 35.05 99.98 32.58 101.65 M 53.37 101.62 C 53.37 103.22 53.36 104.82 53.35 106.42 C 54.60 107.15 55.84 107.89 57.08 108.64 C 58.55 107.82 60.02 107.00 61.50 106.19 C 61.18 104.41 61.89 101.83 59.76 100.99 C 57.73 99.51 55.35 100.75 53.37 101.62 M 200.48 100.42 C 198.49 101.71 199.55 104.41 199.18 106.36 C 201.60 107.79 204.31 107.84 206.72 106.37 C 206.67 104.51 206.63 102.66 206.58 100.80 C 204.65 100.17 202.27 98.64 200.48 100.42 M 42.49 108.44 C 42.54 109.37 42.64 111.23 42.68 112.16 C 44.08 112.96 45.47 113.77 46.86 114.57 C 48.05 114.02 49.24 113.48 50.44 112.95 C 50.55 111.17 50.64 109.39 50.73 107.61 C 48.02 105.87 44.68 105.89 42.49 108.44 M 209.54 107.58 C 209.51 109.17 209.47 110.76 209.43 112.36 C 210.92 113.00 212.24 114.41 213.95 114.30 C 215.15 113.68 216.30 112.95 217.45 112.24 C 217.43 110.74 217.42 109.24 217.43 107.73 C 214.98 105.98 212.06 106.00 209.54 107.58 M 126.21 107.58 C 126.32 109.37 126.43 111.17 126.57 112.96 C 127.77 113.50 128.97 114.05 130.17 114.62 C 132.38 113.54 135.42 111.89 134.27 108.89 C 133.06 105.31 128.77 106.06 126.21 107.58 M 167.63 108.72 C 167.60 109.69 167.52 111.62 167.49 112.58 C 168.66 113.31 169.81 114.12 171.10 114.63 C 173.12 114.48 174.96 113.51 176.87 112.89 C 176.83 111.34 176.87 109.76 176.47 108.25 C 176.18 109.83 176.16 111.44 176.12 113.05 L 175.56 113.09 C 175.62 111.56 175.69 110.03 175.77 108.51 C 174.27 107.65 172.83 106.06 170.93 106.58 C 169.79 107.22 168.72 107.98 167.63 108.72 M 94.80 112.95 C 94.83 114.36 94.76 115.78 94.95 117.18 C 96.18 119.12 98.85 120.47 100.96 119.05 C 103.34 118.13 102.73 115.32 102.48 113.35 C 100.58 110.54 97.26 111.72 94.80 112.95 M 115.51 113.61 C 115.59 115.11 115.65 116.61 115.72 118.11 C 118.24 119.68 121.04 119.97 123.56 118.20 C 123.58 116.53 123.60 114.85 123.62 113.18 C 122.18 112.52 120.82 111.24 119.14 111.46 C 117.85 112.03 116.70 112.87 115.51 113.61 M 199.63 113.45 C 199.31 114.12 198.67 115.46 198.36 116.13 C 199.33 118.50 202.03 121.51 204.77 119.75 C 207.53 118.95 206.45 115.73 206.74 113.59 C 205.49 112.90 204.24 112.21 203.00 111.50 C 201.88 112.15 200.75 112.80 199.63 113.45 M 32.52 113.57 C 32.52 115.12 32.52 116.67 32.51 118.21 C 33.68 119.02 34.85 119.84 36.02 120.66 C 37.51 119.86 38.98 119.05 40.46 118.24 C 40.45 116.73 40.44 115.21 40.44 113.69 C 37.96 112.01 35.04 111.96 32.52 113.57 M 137.34 113.74 C 137.51 115.93 136.33 119.04 139.02 120.07 C 140.71 121.33 142.69 120.08 144.37 119.46 C 144.62 118.87 145.13 117.69 145.38 117.11 C 145.08 115.97 144.77 114.84 144.47 113.71 C 142.17 112.28 139.65 112.41 137.34 113.74 M 157.49 114.54 C 157.49 116.10 157.48 117.67 157.47 119.23 C 158.71 119.99 159.95 120.76 161.19 121.53 C 162.56 120.75 163.92 119.96 165.29 119.17 C 165.37 118.24 165.54 116.37 165.62 115.44 C 163.56 112.79 160.13 112.83 157.49 114.54 M 178.25 119.51 C 180.12 120.46 182.44 122.31 184.41 120.47 C 187.24 119.02 186.28 115.80 185.30 113.50 C 183.07 113.42 180.85 113.45 178.63 113.60 C 178.48 115.57 178.36 117.54 178.25 119.51 M 84.57 118.82 C 84.53 120.37 84.49 121.93 84.45 123.49 C 87.05 125.07 90.03 125.07 92.60 123.41 C 92.50 121.98 92.46 120.56 92.26 119.15 C 91.27 118.08 90.00 117.31 88.84 116.45 C 87.42 117.25 86.00 118.03 84.57 118.82 M 105.38 118.51 C 105.39 120.24 105.40 121.97 105.40 123.70 C 108.07 125.20 111.08 124.83 113.64 123.30 C 113.27 121.48 113.90 119.05 111.99 117.95 C 109.96 116.40 107.40 117.57 105.38 118.51 M 42.58 120.73 C 41.55 123.98 44.61 125.39 46.91 126.65 C 48.14 125.83 49.38 125.01 50.62 124.20 C 50.65 122.64 50.67 121.08 50.70 119.51 C 48.13 118.00 44.01 117.38 42.58 120.73 M 127.92 118.53 C 127.58 119.07 126.90 120.14 126.56 120.67 C 126.54 121.60 126.50 123.46 126.49 124.39 C 129.01 126.11 132.06 126.01 134.68 124.56 C 134.58 122.62 134.47 120.68 134.34 118.74 C 132.21 118.48 130.06 118.37 127.92 118.53 M 147.32 119.72 C 147.30 121.60 147.29 123.47 147.28 125.35 C 149.08 125.97 151.18 127.27 153.02 126.01 C 155.61 124.96 154.39 121.89 154.66 119.76 C 152.30 118.41 149.67 118.28 147.32 119.72 M 167.59 120.68 C 167.58 121.64 167.58 123.57 167.57 124.53 C 168.73 125.25 169.86 126.04 171.12 126.59 C 172.67 126.49 174.08 125.75 175.54 125.28 C 175.59 123.58 175.62 121.87 175.67 120.17 C 174.22 119.48 172.85 118.32 171.16 118.40 C 169.87 118.99 168.75 119.88 167.59 120.68 M 209.53 119.83 C 209.52 121.27 209.50 122.72 209.49 124.16 C 210.71 124.95 211.92 125.74 213.13 126.54 C 214.57 125.77 216.01 124.99 217.45 124.21 C 217.42 122.74 217.40 121.27 217.38 119.80 C 215.98 119.03 214.58 118.26 213.18 117.49 C 211.96 118.27 210.75 119.06 209.53 119.83 M 74.30 124.66 C 74.33 126.51 74.37 128.36 74.41 130.22 C 76.76 131.65 79.30 131.63 81.67 130.25 C 81.68 128.40 81.69 126.55 81.70 124.71 C 79.36 123.20 76.69 123.37 74.30 124.66 M 116.49 124.72 C 116.42 126.37 116.36 128.01 116.30 129.66 C 118.60 132.05 121.63 131.58 124.28 130.09 C 124.28 128.37 124.29 126.67 124.28 124.96 C 121.80 123.44 119.03 123.14 116.49 124.72 M 32.54 125.86 C 32.52 127.38 32.51 128.90 32.49 130.42 C 35.00 132.08 37.95 132.06 40.45 130.38 C 40.45 128.85 40.45 127.32 40.46 125.79 C 39.02 125.01 37.57 124.23 36.13 123.46 C 34.93 124.26 33.74 125.06 32.54 125.86 M 95.27 124.65 C 95.28 126.52 95.29 128.39 95.31 130.27 C 97.64 131.75 100.23 131.54 102.61 130.29 C 102.60 128.41 102.58 126.53 102.56 124.65 C 100.19 123.35 97.64 123.30 95.27 124.65 M 136.47 126.57 C 136.49 128.15 136.49 129.73 136.49 131.32 C 138.98 133.06 141.97 133.06 144.49 131.40 C 144.48 129.77 144.49 128.14 144.50 126.52 C 142.01 124.81 138.99 125.09 136.47 126.57 M 157.46 126.68 C 157.47 128.24 157.50 129.80 157.51 131.37 C 159.42 132.40 161.87 133.51 163.89 132.07 C 165.89 131.10 165.15 128.62 165.51 126.84 C 164.06 126.04 162.62 125.23 161.18 124.43 C 159.93 125.17 158.71 125.95 157.46 126.68 M 199.55 124.60 C 199.39 126.60 199.25 128.60 199.12 130.60 C 201.41 131.82 203.98 131.73 206.48 131.35 C 206.63 129.09 206.63 126.83 206.44 124.57 C 204.15 124.35 201.84 124.35 199.55 124.60 M 106.41 129.97 C 106.30 131.77 106.14 133.58 106.30 135.38 C 108.11 137.70 111.37 136.52 113.62 135.57 C 113.63 133.97 113.64 132.37 113.66 130.78 C 112.46 130.02 111.27 129.26 110.08 128.49 C 108.86 128.99 107.64 129.49 106.41 129.97 M 63.63 130.94 C 63.60 132.40 63.57 133.86 63.54 135.33 C 66.06 137.03 69.03 137.08 71.58 135.42 C 71.55 133.80 71.53 132.19 71.51 130.57 C 70.06 129.83 68.61 129.10 67.15 128.37 C 65.98 129.23 64.81 130.08 63.63 130.94 M 84.47 130.57 C 84.49 132.17 84.50 133.77 84.50 135.37 C 87.00 137.01 89.98 136.98 92.47 135.35 C 92.46 133.79 92.45 132.23 92.45 130.67 C 90.03 128.66 87.01 128.99 84.47 130.57 M 42.56 134.00 C 42.11 136.69 45.28 137.26 46.88 138.57 C 48.15 137.80 49.42 137.04 50.69 136.29 C 50.67 134.79 50.65 133.29 50.62 131.79 C 49.37 130.97 48.13 130.15 46.89 129.32 C 45.24 130.62 42.06 131.27 42.56 134.00 M 126.36 131.72 C 126.33 133.43 126.30 135.14 126.27 136.85 C 127.74 137.53 129.18 138.94 130.92 138.49 C 132.14 137.89 133.22 137.05 134.34 136.30 C 134.30 134.84 134.27 133.39 134.24 131.94 C 131.72 130.38 128.93 129.98 126.36 131.72 M 147.32 131.64 C 147.32 133.53 147.33 135.43 147.35 137.33 C 149.74 138.67 152.29 138.58 154.67 137.27 C 154.68 135.59 154.77 133.91 154.59 132.24 C 152.76 129.77 149.67 130.34 147.32 131.64 M 209.67 131.04 C 209.57 132.80 209.50 134.56 209.42 136.32 C 211.92 138.03 214.92 138.09 217.42 136.34 C 217.42 134.85 217.42 133.36 217.43 131.87 C 216.28 131.09 215.13 130.31 213.99 129.52 C 212.55 130.04 211.11 130.55 209.67 131.04 M 74.32 136.66 C 74.35 138.49 74.37 140.33 74.41 142.17 C 76.76 143.63 79.27 143.65 81.65 142.23 C 81.68 140.38 81.71 138.54 81.73 136.70 C 79.39 135.19 76.70 135.27 74.32 136.66 M 199.78 136.77 C 199.33 137.90 198.88 139.03 198.43 140.17 C 199.16 143.19 202.39 144.51 205.17 143.35 C 207.53 142.43 206.72 139.37 206.53 137.42 C 204.71 135.31 202.02 135.58 199.78 136.77 M 32.51 137.81 C 32.52 139.31 32.53 140.81 32.53 142.32 C 34.47 143.36 37.00 144.57 39.02 143.00 C 40.90 141.95 40.23 139.54 40.63 137.78 C 39.12 136.97 37.60 136.16 36.09 135.35 C 34.90 136.18 33.70 137.00 32.51 137.81 M 115.56 137.74 C 115.59 139.25 115.61 140.77 115.64 142.30 C 118.15 143.93 121.10 144.13 123.63 142.38 C 123.61 140.76 123.61 139.14 123.60 137.52 C 122.38 136.82 121.15 136.11 119.94 135.40 C 118.47 136.18 117.01 136.95 115.56 137.74 M 212.02 142.11 C 211.16 142.57 210.30 143.05 209.46 143.55 C 209.49 145.14 209.52 146.74 209.55 148.34 C 211.51 149.20 213.90 150.60 215.92 149.06 C 217.91 148.05 217.25 145.55 217.61 143.75 C 215.88 143.01 213.99 140.61 212.02 142.11 M 42.53 144.54 C 42.56 145.47 42.62 147.32 42.65 148.25 C 43.76 148.99 44.85 149.74 46.02 150.38 C 47.60 150.60 49.01 149.60 50.49 149.22 C 50.56 147.36 50.62 145.52 50.68 143.67 C 47.96 141.92 44.80 142.19 42.53 144.54 M 105.39 143.68 C 105.37 145.34 105.35 147.00 105.32 148.67 C 106.79 149.31 108.16 150.44 109.81 150.54 C 111.15 149.88 112.36 148.99 113.61 148.19 C 113.31 146.44 113.68 144.18 111.94 143.08 C 109.94 141.46 107.40 142.87 105.39 143.68 M 188.55 143.72 C 188.56 145.22 188.57 146.74 188.57 148.25 C 191.08 149.89 194.02 150.08 196.53 148.33 C 196.52 146.79 196.53 145.25 196.54 143.72 C 195.34 142.91 194.15 142.11 192.96 141.30 C 191.48 142.10 190.01 142.91 188.55 143.72 M 95.42 149.03 C 95.31 150.82 95.22 152.61 95.13 154.41 C 97.53 156.02 100.30 155.84 102.71 154.39 C 102.64 152.61 102.57 150.83 102.48 149.05 C 101.32 148.52 100.17 147.99 99.02 147.44 C 97.82 147.98 96.63 148.51 95.42 149.03 M 180.14 148.18 C 177.47 149.13 178.55 152.24 178.27 154.39 C 180.98 156.15 184.22 155.94 186.50 153.59 C 186.45 152.62 186.36 150.68 186.31 149.72 C 184.49 148.65 182.29 146.57 180.14 148.18 M 199.42 148.81 C 199.37 150.59 199.34 152.38 199.32 154.17 C 200.47 154.86 201.63 155.57 202.78 156.28 C 204.09 155.57 205.40 154.87 206.72 154.18 C 206.70 152.58 206.75 150.97 206.53 149.39 C 204.70 147.00 201.71 147.51 199.42 148.81 M 32.44 149.49 C 32.48 151.10 32.50 152.72 32.52 154.34 C 35.05 156.05 37.96 155.86 40.48 154.25 C 40.44 152.79 40.40 151.33 40.37 149.88 C 39.24 149.00 38.12 148.11 36.99 147.22 C 35.46 147.95 33.95 148.70 32.44 149.49 M 53.32 149.63 C 53.37 151.25 53.32 152.88 53.55 154.49 C 54.61 155.38 55.80 156.08 56.95 156.85 C 58.43 155.99 59.91 155.12 61.39 154.26 C 61.40 153.31 61.43 151.40 61.44 150.45 C 59.20 148.05 56.02 147.90 53.32 149.63 M 115.41 149.67 C 115.49 150.59 115.66 152.44 115.74 153.37 C 116.73 154.77 118.41 155.46 119.78 156.45 C 121.04 155.55 122.36 154.73 123.50 153.68 C 123.68 152.34 123.67 150.99 123.72 149.65 C 122.45 148.87 121.18 148.08 119.92 147.28 C 118.42 148.08 116.92 148.88 115.41 149.67 M 44.04 155.18 C 42.33 156.26 42.69 158.46 42.44 160.18 C 43.91 160.98 45.37 161.79 46.83 162.60 C 48.01 162.07 49.19 161.56 50.37 161.05 C 50.52 159.24 50.63 157.44 50.75 155.64 C 48.69 154.73 46.04 153.41 44.04 155.18 M 63.44 156.46 C 63.49 157.38 63.59 159.22 63.64 160.14 C 64.77 161.00 65.89 161.86 67.02 162.73 C 68.52 162.06 70.03 161.39 71.53 160.70 C 71.55 159.15 71.57 157.61 71.60 156.06 C 69.18 153.72 65.65 153.91 63.44 156.46 M 105.35 155.62 C 105.39 157.28 105.34 158.94 105.53 160.59 C 107.34 162.16 110.31 163.30 112.15 161.08 C 114.65 159.36 113.12 156.10 111.54 154.30 C 109.39 154.28 107.27 154.61 105.35 155.62 M 167.61 155.77 C 167.58 156.71 167.53 158.59 167.51 159.52 C 169.38 160.90 171.62 162.56 173.99 161.14 C 176.58 160.01 175.33 156.95 175.55 154.78 C 172.74 153.50 169.89 153.52 167.61 155.77 M 188.55 155.58 C 188.52 156.59 188.46 158.59 188.43 159.59 C 190.54 162.13 194.30 162.28 196.52 159.80 C 196.53 158.32 196.56 156.84 196.59 155.36 C 195.41 154.73 194.23 154.08 193.00 153.56 C 191.28 153.52 190.00 154.87 188.55 155.58 M 84.26 160.47 C 85.81 161.13 87.28 162.23 89.00 162.31 C 90.21 161.72 91.35 161.00 92.50 160.32 C 92.46 158.78 92.43 157.25 92.41 155.73 C 90.59 154.89 88.65 154.36 86.67 154.06 C 84.85 155.76 84.21 158.03 84.26 160.47 M 178.50 161.38 C 178.30 163.02 178.34 164.67 178.31 166.32 C 180.34 167.13 182.73 168.39 184.77 166.85 C 186.87 166.07 186.19 163.53 186.50 161.82 C 185.28 161.03 184.12 160.15 182.83 159.50 C 181.18 159.36 179.69 160.35 178.50 161.38 M 53.36 161.59 C 53.36 163.25 53.36 164.91 53.34 166.57 C 54.62 167.23 55.86 167.97 57.21 168.47 C 58.81 168.34 59.96 166.90 61.32 166.17 C 61.33 164.70 61.35 163.24 61.38 161.77 C 58.87 160.15 55.92 159.88 53.36 161.59 M 74.23 161.51 C 74.30 163.19 74.27 164.89 74.54 166.56 C 75.63 167.38 76.84 168.04 78.01 168.75 C 79.20 168.06 80.41 167.41 81.53 166.62 C 81.78 164.90 81.74 163.16 81.78 161.43 C 79.32 160.09 76.65 160.03 74.23 161.51 M 95.25 165.58 C 96.91 168.49 100.28 167.63 102.71 166.36 C 102.37 164.20 103.51 161.04 100.87 160.04 C 97.62 158.00 92.93 162.23 95.25 165.58 M 63.56 167.75 C 63.59 169.23 63.61 170.72 63.63 172.20 C 64.74 172.92 65.84 173.65 67.01 174.27 C 68.74 174.50 70.10 173.06 71.61 172.44 C 71.58 170.81 71.56 169.19 71.55 167.57 C 68.99 165.92 66.05 166.05 63.56 167.75 M 84.49 167.64 C 84.50 169.20 84.51 170.77 84.51 172.35 C 85.98 173.09 87.46 173.83 88.94 174.58 C 90.08 173.75 91.22 172.94 92.37 172.13 C 92.44 170.78 92.52 169.44 92.60 168.10 C 90.33 165.78 87.08 165.98 84.49 167.64 M 74.28 173.32 C 74.32 175.09 74.26 176.87 74.49 178.63 C 76.78 180.55 80.01 179.74 82.29 178.24 C 82.30 176.95 82.33 175.67 82.36 174.39 C 80.23 171.92 77.03 171.98 74.28 173.32 Z" />
</g>
</svg>
