<?xml version="1.0" encoding="UTF-8" ?>
<!DOCTYPE svg PUBLIC "-//W3C//DTD SVG 1.1//EN" "http://www.w3.org/Graphics/SVG/1.1/DTD/svg11.dtd">
<svg width="250pt" height="250pt" viewBox="0 0 250 250" version="1.1" xmlns="http://www.w3.org/2000/svg">
<g id="#fffefeff">
<path fill="#fffefe" opacity="1.00" d=" M 0.00 0.00 L 250.00 0.00 L 250.00 250.00 L 0.00 250.00 L 0.00 0.00 M 119.10 7.95 C 118.88 8.58 118.43 9.84 118.20 10.46 C 116.74 10.14 116.33 12.35 116.09 13.40 C 114.33 11.92 112.50 10.01 110.02 10.04 L 110.02 9.07 C 107.13 5.76 100.62 7.38 96.73 7.28 C 94.87 6.18 93.35 7.64 92.60 9.27 C 91.98 9.22 90.73 9.12 90.10 9.06 C 88.44 10.00 85.78 10.19 84.94 11.97 C 83.70 12.96 81.52 13.99 81.41 15.64 C 80.41 16.24 76.58 18.60 78.99 19.30 C 78.17 20.23 76.72 21.12 77.35 22.57 C 76.22 23.72 74.77 25.04 74.49 26.68 C 69.41 29.90 70.96 37.82 69.05 43.00 C 66.37 46.32 76.65 56.68 68.93 54.22 C 67.20 57.39 67.23 60.59 69.01 63.84 C 69.26 64.13 69.76 64.71 70.00 65.00 C 69.93 68.05 70.01 71.08 70.09 74.14 C 69.84 74.48 69.34 75.16 69.09 75.50 C 67.10 75.92 67.23 81.14 69.12 81.84 C 69.12 83.39 71.67 83.66 72.70 82.94 L 72.95 83.97 C 70.03 86.93 71.52 94.14 71.25 98.30 C 68.75 104.46 69.45 122.38 71.28 128.71 C 70.84 132.19 70.24 135.67 70.15 139.19 C 68.33 142.46 67.59 146.26 66.88 149.94 C 62.44 163.56 50.02 174.75 50.46 189.52 C 47.35 195.16 50.14 204.99 51.98 209.96 C 54.20 214.93 59.15 218.11 61.68 222.98 C 63.19 224.51 64.57 227.06 66.65 227.54 C 68.20 229.77 70.90 230.91 73.38 231.81 C 73.28 233.91 76.84 233.58 78.13 232.83 C 78.77 234.76 83.25 234.73 83.88 232.80 C 85.59 233.69 89.58 234.17 89.89 231.63 C 91.18 232.55 92.49 232.63 93.82 231.84 C 94.74 232.99 95.46 234.56 96.91 235.11 C 97.52 237.88 104.02 237.64 103.67 236.08 C 106.95 233.38 109.10 229.78 110.14 225.69 C 110.98 227.41 110.76 230.60 112.92 231.09 C 115.76 237.61 125.21 235.52 126.12 228.78 C 126.29 230.12 126.95 230.75 128.11 230.67 C 128.83 237.48 139.25 235.33 140.82 230.02 C 143.54 226.13 142.21 230.77 144.30 230.73 C 145.50 234.19 149.54 237.22 153.16 235.26 C 158.20 235.17 156.87 224.81 162.17 227.97 C 162.20 229.80 168.46 229.85 169.05 227.05 C 170.04 226.65 171.00 226.18 171.93 225.65 C 173.46 227.08 176.09 224.60 174.75 223.00 C 175.09 221.57 175.45 219.61 173.89 218.75 C 174.77 217.70 174.38 214.97 172.70 215.10 C 173.75 213.29 173.23 209.57 170.87 209.35 C 170.20 206.63 169.96 203.76 168.81 201.20 C 168.94 197.05 169.04 192.91 169.12 188.78 C 170.86 189.40 172.05 191.01 173.74 191.67 C 173.95 193.75 175.80 196.28 177.81 196.58 C 179.57 200.66 180.50 206.22 185.03 207.98 C 185.22 209.80 194.78 209.79 193.92 208.00 C 194.97 207.42 196.98 207.28 196.99 205.77 C 198.91 206.45 199.96 203.23 198.64 202.04 C 199.96 200.05 200.74 197.76 201.85 195.65 C 204.28 195.11 204.34 190.04 205.78 187.67 L 206.82 188.06 C 206.91 178.62 208.05 166.65 205.94 159.08 C 205.62 158.81 204.99 158.28 204.67 158.01 C 204.79 156.11 200.20 156.12 200.31 158.00 C 199.99 158.34 199.36 159.01 199.04 159.34 C 197.44 159.47 197.67 162.05 197.30 163.27 C 196.55 162.31 195.72 161.43 194.81 160.64 L 194.72 160.09 C 195.61 158.82 196.46 157.47 196.89 155.96 C 200.31 154.75 199.52 150.13 201.48 147.57 C 204.21 141.41 205.84 129.96 196.91 129.03 C 196.07 126.35 197.36 121.66 194.92 120.15 C 195.26 117.64 194.80 115.14 193.99 112.77 C 194.01 110.74 193.02 106.36 190.33 107.44 C 187.27 108.73 184.16 102.44 182.41 107.36 C 178.90 113.04 183.42 98.80 180.03 101.17 C 179.78 100.88 179.26 100.29 179.01 100.00 C 178.25 97.47 181.16 91.00 177.56 90.89 C 178.45 89.31 179.02 85.48 176.66 85.12 C 177.13 83.60 179.52 83.35 179.59 81.87 C 179.95 81.58 180.66 80.99 181.02 80.70 C 182.88 80.43 182.92 75.54 180.99 75.37 C 180.49 75.03 179.48 74.34 178.97 74.00 C 179.07 71.01 179.03 68.02 178.99 65.03 C 179.50 64.68 180.50 63.97 181.01 63.62 C 182.90 63.52 182.93 58.40 180.91 58.48 C 180.43 58.12 179.47 57.40 178.98 57.04 C 178.81 55.04 178.35 53.08 177.95 51.12 C 180.15 49.61 180.95 46.98 181.99 44.66 C 184.55 44.45 182.29 40.47 180.42 41.97 C 178.95 39.46 180.51 34.92 177.73 33.50 L 177.52 32.92 C 178.72 32.14 178.82 28.93 176.95 29.20 C 176.56 27.24 175.15 25.67 173.94 24.15 C 173.89 21.99 172.85 19.83 170.70 19.10 C 172.19 18.09 170.82 14.65 169.10 16.27 C 168.90 14.65 167.25 13.77 166.11 12.81 C 164.97 10.94 163.29 9.47 160.94 9.97 C 160.67 9.69 160.14 9.14 159.87 8.86 C 158.30 6.92 153.22 6.57 150.68 8.02 C 150.05 6.09 144.95 6.10 144.26 8.00 C 142.84 8.70 140.34 8.49 139.89 10.29 C 138.23 9.77 135.06 11.02 135.36 13.05 C 131.48 13.89 134.21 9.94 134.09 7.90 C 130.98 5.65 121.68 5.74 119.10 7.95 Z" />
</g>
<g id="#ae66b9ff">
<path fill="#ae66b9" opacity="1.00" d=" M 119.10 7.95 C 121.68 5.74 130.98 5.65 134.09 7.90 C 130.27 7.15 127.06 8.84 128.87 13.01 C 122.58 15.27 126.32 5.70 119.99 7.99 L 119.10 7.95 Z" />
</g>
<g id="#a549beff">
<path fill="#a549be" opacity="1.00" d=" M 92.60 9.27 C 93.35 7.64 94.87 6.18 96.73 7.28 C 97.14 7.50 97.96 7.94 98.37 8.16 C 96.50 8.73 94.59 9.58 92.60 9.27 Z" />
</g>
<g id="#c0b2a9ff">
<path fill="#c0b2a9" opacity="1.00" d=" M 96.73 7.28 C 100.62 7.38 107.13 5.76 110.02 9.07 C 106.15 8.64 102.27 8.21 98.37 8.16 C 97.96 7.94 97.14 7.50 96.73 7.28 Z" />
</g>
<g id="#bdb49dff">
<path fill="#bdb49d" opacity="1.00" d=" M 144.26 8.00 C 144.95 6.10 150.05 6.09 150.68 8.02 C 149.07 8.01 145.87 8.00 144.26 8.00 Z" />
</g>
<g id="#b97ebfff">
<path fill="#b97ebf" opacity="1.00" d=" M 150.68 8.02 C 153.22 6.57 158.30 6.92 159.87 8.86 C 158.11 9.07 156.37 9.36 154.66 9.77 C 154.03 9.77 152.77 9.78 152.14 9.79 C 151.78 9.34 151.04 8.46 150.68 8.02 Z" />
</g>
<g id="#7c5936ff">
<path fill="#7c5936" opacity="1.00" d=" M 98.37 8.16 C 102.27 8.21 106.15 8.64 110.02 9.07 L 110.02 10.04 C 103.03 9.11 95.47 9.01 89.87 13.90 L 89.91 13.04 C 89.98 11.71 90.04 10.39 90.10 9.06 C 90.73 9.12 91.98 9.22 92.60 9.27 C 94.59 9.58 96.50 8.73 98.37 8.16 Z" />
</g>
<g id="#5e190bff">
<path fill="#5e190b" opacity="1.00" d=" M 119.10 7.95 L 119.99 7.99 C 120.22 10.34 120.61 12.67 120.96 15.01 C 114.75 13.67 108.45 15.02 102.21 14.27 C 107.13 12.28 100.73 10.61 97.86 12.58 C 96.86 13.34 95.92 14.17 94.99 15.01 C 93.42 16.60 91.45 17.66 89.38 18.46 C 85.67 19.53 84.93 24.59 80.80 24.98 C 83.14 20.78 86.32 17.11 89.87 13.90 C 95.47 9.01 103.03 9.11 110.02 10.04 C 112.50 10.01 114.33 11.92 116.09 13.40 C 117.97 15.19 118.29 11.73 118.20 10.46 C 118.43 9.84 118.88 8.58 119.10 7.95 Z" />
</g>
<g id="#8f7344ff">
<path fill="#8f7344" opacity="1.00" d=" M 119.99 7.99 C 126.32 5.70 122.58 15.27 128.87 13.01 C 127.06 8.84 130.27 7.15 134.09 7.90 C 134.21 9.94 131.48 13.89 135.36 13.05 C 130.63 13.81 131.47 19.39 130.94 23.05 C 130.95 23.82 130.95 25.35 130.96 26.11 C 131.01 27.55 131.26 28.98 131.65 30.36 L 131.88 31.27 C 128.72 28.04 132.22 17.42 122.99 21.77 L 122.18 21.93 L 122.02 21.00 C 121.71 18.99 121.31 17.00 120.96 15.01 C 120.61 12.67 120.22 10.34 119.99 7.99 M 126.23 15.13 C 124.48 16.19 123.92 21.12 127.00 20.03 C 130.57 21.35 129.46 13.79 126.23 15.13 Z" />
</g>
<g id="#7a5a2fff">
<path fill="#7a5a2f" opacity="1.00" d=" M 139.89 10.29 C 140.34 8.49 142.84 8.70 144.26 8.00 C 145.87 8.00 149.07 8.01 150.68 8.02 C 151.04 8.46 151.78 9.34 152.14 9.79 C 148.05 9.28 143.93 9.16 139.89 10.29 Z" />
</g>
<g id="#a460b1ff">
<path fill="#a460b1" opacity="1.00" d=" M 84.94 11.97 C 85.78 10.19 88.44 10.00 90.10 9.06 C 90.04 10.39 89.98 11.71 89.91 13.04 C 88.10 13.28 85.97 14.02 84.94 11.97 Z" />
</g>
<g id="#4e1208ff">
<path fill="#4e1208" opacity="1.00" d=" M 139.89 10.29 C 143.93 9.16 148.05 9.28 152.14 9.79 C 152.77 9.78 154.03 9.77 154.66 9.77 C 160.54 14.71 168.00 19.07 170.33 26.84 C 166.25 20.95 160.41 17.67 153.97 15.23 C 152.39 12.41 147.86 10.73 145.72 13.84 C 142.69 13.88 139.67 13.98 136.74 13.21 C 137.83 12.29 138.89 11.32 139.89 10.29 Z" />
</g>
<g id="#876f55ff">
<path fill="#876f55" opacity="1.00" d=" M 154.66 9.77 C 156.37 9.36 158.11 9.07 159.87 8.86 C 160.14 9.14 160.67 9.69 160.94 9.97 C 161.38 11.68 162.67 12.92 163.75 14.25 C 164.91 16.00 166.13 19.37 168.79 18.28 C 169.26 18.49 170.22 18.90 170.70 19.10 C 172.85 19.83 173.89 21.99 173.94 24.15 C 172.47 22.47 170.87 20.86 168.81 19.93 C 170.62 23.81 177.32 32.15 172.21 33.91 C 171.93 32.41 171.64 30.90 171.18 29.44 C 170.93 28.56 170.64 27.69 170.33 26.84 C 168.00 19.07 160.54 14.71 154.66 9.77 Z" />
</g>
<g id="#a69287ff">
<path fill="#a69287" opacity="1.00" d=" M 116.09 13.40 C 116.33 12.35 116.74 10.14 118.20 10.46 C 118.29 11.73 117.97 15.19 116.09 13.40 Z" />
</g>
<g id="#917b5eff">
<path fill="#917b5e" opacity="1.00" d=" M 135.36 13.05 C 135.06 11.02 138.23 9.77 139.89 10.29 C 138.89 11.32 137.83 12.29 136.74 13.21 C 136.40 13.17 135.70 13.09 135.36 13.05 Z" />
</g>
<g id="#9e4bbeff">
<path fill="#9e4bbe" opacity="1.00" d=" M 160.94 9.97 C 163.29 9.47 164.97 10.94 166.11 12.81 C 165.52 13.17 164.34 13.89 163.75 14.25 C 162.67 12.92 161.38 11.68 160.94 9.97 Z" />
</g>
<g id="#9c825cff">
<path fill="#9c825c" opacity="1.00" d=" M 81.41 15.64 C 81.52 13.99 83.70 12.96 84.94 11.97 C 85.97 14.02 88.10 13.28 89.91 13.04 L 89.87 13.90 C 86.32 17.11 83.14 20.78 80.80 24.98 C 79.63 26.84 79.22 29.05 78.83 31.17 C 75.02 30.41 79.05 25.27 77.35 22.57 C 76.72 21.12 78.17 20.23 78.99 19.30 C 82.50 21.04 82.24 18.39 81.41 15.64 Z" />
</g>
<g id="#966861ff">
<path fill="#966861" opacity="1.00" d=" M 97.86 12.58 C 100.73 10.61 107.13 12.28 102.21 14.27 C 100.88 13.44 99.38 12.95 97.86 12.58 Z" />
</g>
<g id="#aa8c8aff">
<path fill="#aa8c8a" opacity="1.00" d=" M 145.72 13.84 C 147.86 10.73 152.39 12.41 153.97 15.23 C 151.20 14.88 148.46 14.36 145.72 13.84 Z" />
</g>
<g id="#d6c2c1ff">
<path fill="#d6c2c1" opacity="1.00" d=" M 94.99 15.01 C 95.92 14.17 96.86 13.34 97.86 12.58 C 99.38 12.95 100.88 13.44 102.21 14.27 C 99.80 14.50 97.39 14.74 94.99 15.01 Z" />
</g>
<g id="#670606ff">
<path fill="#670606" opacity="1.00" d=" M 135.36 13.05 C 135.70 13.09 136.40 13.17 136.74 13.21 C 139.67 13.98 142.69 13.88 145.72 13.84 C 148.46 14.36 151.20 14.88 153.97 15.23 C 160.41 17.67 166.25 20.95 170.33 26.84 C 170.64 27.69 170.93 28.56 171.18 29.44 C 165.80 31.09 168.95 37.87 166.87 41.91 C 164.08 46.55 157.73 48.57 155.52 53.77 C 153.25 54.13 151.04 54.78 149.00 55.82 C 146.95 55.94 144.89 56.00 142.84 56.11 C 138.80 56.22 134.44 57.40 130.69 55.25 L 131.33 54.59 C 134.82 52.14 138.40 49.82 141.94 47.45 C 146.88 47.12 152.48 48.94 155.54 43.94 C 158.19 46.50 160.61 39.19 159.00 37.99 C 158.23 31.48 160.62 20.84 152.20 18.69 C 145.40 14.51 136.27 15.63 131.82 22.73 L 130.94 23.05 C 131.47 19.39 130.63 13.81 135.36 13.05 Z" />
</g>
<g id="#5b482fff">
<path fill="#5b482f" opacity="1.00" d=" M 163.75 14.25 C 164.34 13.89 165.52 13.17 166.11 12.81 C 167.25 13.77 168.90 14.65 169.10 16.27 C 169.02 16.78 168.87 17.78 168.79 18.28 C 166.13 19.37 164.91 16.00 163.75 14.25 Z" />
</g>
<g id="#960a0aff">
<path fill="#960a0a" opacity="1.00" d=" M 94.99 15.01 C 97.39 14.74 99.80 14.50 102.21 14.27 C 108.45 15.02 114.75 13.67 120.96 15.01 C 121.31 17.00 121.71 18.99 122.02 21.00 C 113.47 20.20 103.03 20.30 95.92 25.82 C 88.99 26.69 81.66 31.99 83.52 39.37 C 86.09 40.66 85.60 43.08 85.09 45.44 C 88.87 44.83 91.08 48.80 94.63 49.22 C 101.06 50.03 107.55 50.83 114.02 49.91 C 114.32 50.16 114.91 50.65 115.20 50.90 C 112.06 50.32 113.28 53.93 112.95 55.83 C 107.79 55.86 102.73 57.01 98.01 53.85 C 94.19 55.46 90.35 56.26 86.23 55.07 C 84.64 51.39 84.18 46.83 81.07 44.05 C 80.79 43.81 80.24 43.33 79.96 43.09 C 76.68 40.73 78.97 36.16 78.68 32.77 C 78.72 32.37 78.79 31.57 78.83 31.17 C 79.22 29.05 79.63 26.84 80.80 24.98 C 84.93 24.59 85.67 19.53 89.38 18.46 C 91.45 17.66 93.42 16.60 94.99 15.01 Z" />
</g>
<g id="#b371beff">
<path fill="#b371be" opacity="1.00" d=" M 126.23 15.13 C 129.46 13.79 130.57 21.35 127.00 20.03 C 123.92 21.12 124.48 16.19 126.23 15.13 Z" />
</g>
<g id="#c185d4ff">
<path fill="#c185d4" opacity="1.00" d=" M 78.99 19.30 C 76.58 18.60 80.41 16.24 81.41 15.64 C 82.24 18.39 82.50 21.04 78.99 19.30 Z" />
</g>
<g id="#8f090aff">
<path fill="#8f090a" opacity="1.00" d=" M 131.82 22.73 C 136.27 15.63 145.40 14.51 152.20 18.69 C 160.62 20.84 158.23 31.48 159.00 37.99 C 160.61 39.19 158.19 46.50 155.54 43.94 C 157.36 40.78 156.50 37.34 154.71 34.39 C 154.62 23.16 140.00 24.27 131.82 22.73 Z" />
</g>
<g id="#af4bd6ff">
<path fill="#af4bd6" opacity="1.00" d=" M 169.10 16.27 C 170.82 14.65 172.19 18.09 170.70 19.10 C 170.22 18.90 169.26 18.49 168.79 18.28 C 168.87 17.78 169.02 16.78 169.10 16.27 Z" />
</g>
<g id="#b3201eff">
<path fill="#b3201e" opacity="1.00" d=" M 95.92 25.82 C 103.03 20.30 113.47 20.20 122.02 21.00 L 122.18 21.93 C 122.48 25.48 119.24 21.79 117.44 22.60 C 113.54 23.79 109.22 23.65 105.54 25.45 C 104.96 25.64 103.78 26.02 103.20 26.21 C 100.76 26.58 98.27 26.71 95.92 25.82 Z" />
</g>
<g id="#4c3719ff">
<path fill="#4c3719" opacity="1.00" d=" M 168.81 19.93 C 170.87 20.86 172.47 22.47 173.94 24.15 C 175.15 25.67 176.56 27.24 176.95 29.20 C 176.80 30.47 176.91 31.78 177.52 32.92 L 177.73 33.50 C 176.62 34.71 175.59 35.98 174.54 37.23 C 174.86 34.92 169.38 35.27 172.21 33.91 C 177.32 32.15 170.62 23.81 168.81 19.93 Z" />
</g>
<g id="#ceba8dff">
<path fill="#ceba8d" opacity="1.00" d=" M 122.99 21.77 C 132.22 17.42 128.72 28.04 131.88 31.27 C 133.46 32.90 131.46 33.96 130.33 35.04 C 126.01 31.30 128.40 39.41 127.81 42.11 C 127.22 39.99 125.07 32.75 129.57 32.73 C 128.37 31.11 128.83 26.78 126.39 27.34 C 125.10 29.61 125.07 33.77 121.79 33.94 C 122.16 31.31 122.92 28.73 122.95 26.05 C 122.99 24.63 123.00 23.20 122.99 21.77 Z" />
</g>
<g id="#c7574dff">
<path fill="#c7574d" opacity="1.00" d=" M 117.44 22.60 C 119.24 21.79 122.48 25.48 122.18 21.93 L 122.99 21.77 C 123.00 23.20 122.99 24.63 122.95 26.05 C 117.16 26.92 111.34 25.74 105.54 25.45 C 109.22 23.65 113.54 23.79 117.44 22.60 Z" />
</g>
<g id="#7d602eff">
<path fill="#7d602e" opacity="1.00" d=" M 74.49 26.68 C 74.77 25.04 76.22 23.72 77.35 22.57 C 79.05 25.27 75.02 30.41 78.83 31.17 C 78.79 31.57 78.72 32.37 78.68 32.77 C 75.49 35.81 73.42 44.67 79.96 43.09 C 80.24 43.33 80.79 43.81 81.07 44.05 C 81.07 45.45 81.02 46.84 80.94 48.24 C 69.36 47.28 73.11 34.82 74.49 26.68 Z" />
</g>
<g id="#a02c29ff">
<path fill="#a02c29" opacity="1.00" d=" M 130.94 23.05 L 131.82 22.73 C 140.00 24.27 154.62 23.16 154.71 34.39 C 156.50 37.34 157.36 40.78 155.54 43.94 C 152.48 48.94 146.88 47.12 141.94 47.45 C 140.97 46.90 140.35 46.09 140.07 45.02 C 145.56 45.05 155.21 42.68 151.65 35.33 C 146.95 29.30 139.16 23.45 130.96 26.11 C 130.95 25.35 130.95 23.82 130.94 23.05 Z" />
</g>
<g id="#cc756eff">
<path fill="#cc756e" opacity="1.00" d=" M 105.54 25.45 C 111.34 25.74 117.16 26.92 122.95 26.05 C 122.92 28.73 122.16 31.31 121.79 33.94 C 121.58 37.40 123.29 40.76 123.53 44.22 C 121.07 38.99 115.76 42.45 112.04 44.11 C 111.51 44.10 110.45 44.09 109.92 44.08 C 107.51 40.86 111.31 40.30 113.83 40.36 C 115.95 36.53 124.41 25.80 115.52 30.46 C 108.64 29.70 99.85 27.78 95.45 35.48 C 92.12 37.66 97.35 39.47 98.31 41.69 C 96.22 41.38 93.49 42.00 92.26 39.77 C 92.71 33.57 97.78 28.83 103.20 26.21 C 103.78 26.02 104.96 25.64 105.54 25.45 Z" />
</g>
<g id="#b7534eff">
<path fill="#b7534e" opacity="1.00" d=" M 130.96 26.11 C 139.16 23.45 146.95 29.30 151.65 35.33 C 155.21 42.68 145.56 45.05 140.07 45.02 L 139.70 44.23 C 139.30 43.44 138.73 42.78 137.98 42.26 C 141.96 42.56 144.65 39.43 147.86 37.65 C 149.19 33.45 142.77 33.75 141.15 30.90 C 139.77 26.89 134.19 28.12 131.65 30.36 C 131.26 28.98 131.01 27.55 130.96 26.11 Z" />
</g>
<g id="#a82c2bff">
<path fill="#a82c2b" opacity="1.00" d=" M 83.52 39.37 C 81.66 31.99 88.99 26.69 95.92 25.82 C 94.42 31.51 85.69 31.87 87.27 39.31 C 85.13 43.13 96.27 42.63 90.93 46.09 C 95.05 44.56 98.64 45.41 101.91 47.79 C 105.60 44.97 107.74 51.09 111.81 46.88 C 112.53 47.90 113.28 48.90 114.02 49.91 C 107.55 50.83 101.06 50.03 94.63 49.22 C 91.08 48.80 88.87 44.83 85.09 45.44 C 85.60 43.08 86.09 40.66 83.52 39.37 Z" />
</g>
<g id="#ba514eff">
<path fill="#ba514e" opacity="1.00" d=" M 95.92 25.82 C 98.27 26.71 100.76 26.58 103.20 26.21 C 97.78 28.83 92.71 33.57 92.26 39.77 C 93.49 42.00 96.22 41.38 98.31 41.69 C 99.94 44.43 102.36 43.70 104.68 42.33 C 104.53 45.69 107.83 44.03 109.92 44.08 C 110.45 44.09 111.51 44.10 112.04 44.11 C 111.98 44.80 111.87 46.18 111.81 46.88 C 107.74 51.09 105.60 44.97 101.91 47.79 C 98.64 45.41 95.05 44.56 90.93 46.09 C 96.27 42.63 85.13 43.13 87.27 39.31 C 85.69 31.87 94.42 31.51 95.92 25.82 Z" />
</g>
<g id="#5d401eff">
<path fill="#5d401e" opacity="1.00" d=" M 69.05 43.00 C 70.96 37.82 69.41 29.90 74.49 26.68 C 73.11 34.82 69.36 47.28 80.94 48.24 C 80.85 50.69 79.88 52.99 79.05 55.26 C 72.28 59.82 79.51 66.38 85.88 64.13 C 91.09 67.10 81.47 65.69 79.80 67.86 C 77.99 72.05 71.09 74.96 73.73 80.15 C 74.02 84.14 79.41 81.22 82.09 81.90 C 83.17 82.48 84.22 83.12 85.27 83.76 C 84.76 83.80 83.73 83.90 83.22 83.94 C 79.87 84.15 76.56 84.78 73.21 85.02 L 72.95 83.97 L 72.70 82.94 C 72.45 81.34 70.24 81.98 69.12 81.84 C 69.11 80.26 69.10 77.09 69.09 75.50 C 69.34 75.16 69.84 74.48 70.09 74.14 C 70.96 71.76 72.09 67.21 70.00 65.00 C 69.76 64.71 69.26 64.13 69.01 63.84 C 68.98 60.63 69.02 57.43 68.93 54.22 C 76.65 56.68 66.37 46.32 69.05 43.00 Z" />
</g>
<g id="#9d8247ff">
<path fill="#9d8247" opacity="1.00" d=" M 126.39 27.34 C 128.83 26.78 128.37 31.11 129.57 32.73 C 125.07 32.75 127.22 39.99 127.81 42.11 C 128.29 42.38 129.26 42.93 129.74 43.20 C 128.63 44.94 124.92 46.06 123.53 44.22 C 123.29 40.76 121.58 37.40 121.79 33.94 C 125.07 33.77 125.10 29.61 126.39 27.34 Z" />
</g>
<g id="#be7470ff">
<path fill="#be7470" opacity="1.00" d=" M 131.65 30.36 C 134.19 28.12 139.77 26.89 141.15 30.90 C 142.77 33.75 149.19 33.45 147.86 37.65 C 144.65 39.43 141.96 42.56 137.98 42.26 C 135.53 42.76 133.25 41.74 131.06 40.76 C 130.85 38.85 130.56 36.95 130.33 35.04 C 131.46 33.96 133.46 32.90 131.88 31.27 L 131.65 30.36 Z" />
</g>
<g id="#d48c8aff">
<path fill="#d48c8a" opacity="1.00" d=" M 95.45 35.48 C 99.85 27.78 108.64 29.70 115.52 30.46 C 124.41 25.80 115.95 36.53 113.83 40.36 C 111.31 40.30 107.51 40.86 109.92 44.08 C 107.83 44.03 104.53 45.69 104.68 42.33 C 102.36 43.70 99.94 44.43 98.31 41.69 C 97.35 39.47 92.12 37.66 95.45 35.48 Z" />
</g>
<g id="#978c83ff">
<path fill="#978c83" opacity="1.00" d=" M 176.95 29.20 C 178.82 28.93 178.72 32.14 177.52 32.92 C 176.91 31.78 176.80 30.47 176.95 29.20 Z" />
</g>
<g id="#4b0202ff">
<path fill="#4b0202" opacity="1.00" d=" M 166.87 41.91 C 168.95 37.87 165.80 31.09 171.18 29.44 C 171.64 30.90 171.93 32.41 172.21 33.91 C 169.38 35.27 174.86 34.92 174.54 37.23 C 173.94 38.71 174.37 40.94 172.93 41.90 C 167.44 44.20 169.69 51.67 168.10 56.21 C 164.03 54.04 159.21 57.23 155.52 53.77 C 157.73 48.57 164.08 46.55 166.87 41.91 Z" />
</g>
<g id="#5e210fff">
<path fill="#5e210f" opacity="1.00" d=" M 79.96 43.09 C 73.42 44.67 75.49 35.81 78.68 32.77 C 78.97 36.16 76.68 40.73 79.96 43.09 Z" />
</g>
<g id="#efe8d6ff">
<path fill="#efe8d6" opacity="1.00" d=" M 127.81 42.11 C 128.40 39.41 126.01 31.30 130.33 35.04 C 130.56 36.95 130.85 38.85 131.06 40.76 C 130.73 41.37 130.07 42.59 129.74 43.20 C 129.26 42.93 128.29 42.38 127.81 42.11 Z" />
</g>
<g id="#31200aff">
<path fill="#31200a" opacity="1.00" d=" M 174.54 37.23 C 175.59 35.98 176.62 34.71 177.73 33.50 C 180.51 34.92 178.95 39.46 180.42 41.97 C 180.67 42.99 181.49 43.75 181.99 44.66 C 180.95 46.98 180.15 49.61 177.95 51.12 C 175.60 53.04 176.47 55.84 178.98 57.04 C 179.47 57.40 180.43 58.12 180.91 58.48 C 180.92 60.19 180.95 61.90 181.01 63.62 C 180.50 63.97 179.50 64.68 178.99 65.03 C 177.44 66.72 177.19 72.03 178.97 74.00 C 179.48 74.34 180.49 75.03 180.99 75.37 C 180.94 77.15 180.95 78.92 181.02 80.70 C 180.66 80.99 179.95 81.58 179.59 81.87 C 177.31 81.31 174.92 82.74 176.66 85.12 L 176.58 85.86 C 173.39 85.03 170.18 84.16 166.88 83.92 L 165.89 83.82 C 168.28 81.29 170.92 78.97 173.01 76.17 C 168.67 73.54 161.03 71.17 161.27 65.44 C 165.33 63.71 174.46 60.81 168.10 56.21 C 169.69 51.67 167.44 44.20 172.93 41.90 C 174.37 40.94 173.94 38.71 174.54 37.23 Z" />
</g>
<g id="#7f5f31ff">
<path fill="#7f5f31" opacity="1.00" d=" M 112.04 44.11 C 115.76 42.45 121.07 38.99 123.53 44.22 C 124.92 46.06 128.63 44.94 129.74 43.20 C 130.07 42.59 130.73 41.37 131.06 40.76 C 133.25 41.74 135.53 42.76 137.98 42.26 C 138.73 42.78 139.30 43.44 139.70 44.23 C 137.09 46.37 133.65 47.43 131.43 50.06 C 132.11 51.60 132.72 53.19 131.33 54.59 L 130.69 55.25 L 129.90 54.93 C 130.12 51.03 125.38 55.93 123.01 55.11 L 122.09 55.19 C 121.04 52.80 121.14 48.34 117.49 48.85 C 118.03 50.80 117.04 51.32 115.20 50.90 C 114.91 50.65 114.32 50.16 114.02 49.91 C 113.28 48.90 112.53 47.90 111.81 46.88 C 111.87 46.18 111.98 44.80 112.04 44.11 Z" />
</g>
<g id="#aaa59fff">
<path fill="#aaa59f" opacity="1.00" d=" M 180.42 41.97 C 182.29 40.47 184.55 44.45 181.99 44.66 C 181.49 43.75 180.67 42.99 180.42 41.97 Z" />
</g>
<g id="#550803ff">
<path fill="#550803" opacity="1.00" d=" M 81.07 44.05 C 84.18 46.83 84.64 51.39 86.23 55.07 C 83.84 55.20 81.44 55.24 79.05 55.26 C 79.88 52.99 80.85 50.69 80.94 48.24 C 81.02 46.84 81.07 45.45 81.07 44.05 Z" />
</g>
<g id="#5b3617ff">
<path fill="#5b3617" opacity="1.00" d=" M 131.43 50.06 C 133.65 47.43 137.09 46.37 139.70 44.23 L 140.07 45.02 C 140.35 46.09 140.97 46.90 141.94 47.45 C 138.40 49.82 134.82 52.14 131.33 54.59 C 132.72 53.19 132.11 51.60 131.43 50.06 Z" />
</g>
<g id="#5d0b06ff">
<path fill="#5d0b06" opacity="1.00" d=" M 117.49 48.85 C 121.14 48.34 121.04 52.80 122.09 55.19 C 119.33 55.49 116.57 55.79 113.82 56.00 L 112.95 55.83 C 113.28 53.93 112.06 50.32 115.20 50.90 C 117.04 51.32 118.03 50.80 117.49 48.85 Z" />
</g>
<g id="#675d54ff">
<path fill="#675d54" opacity="1.00" d=" M 178.98 57.04 C 176.47 55.84 175.60 53.04 177.95 51.12 C 178.35 53.08 178.81 55.04 178.98 57.04 Z" />
</g>
<g id="#957b42ff">
<path fill="#957b42" opacity="1.00" d=" M 123.01 55.11 C 125.38 55.93 130.12 51.03 129.90 54.93 C 128.52 62.26 138.31 58.43 142.94 58.92 C 145.29 58.58 145.15 56.53 142.84 56.11 C 144.89 56.00 146.95 55.94 149.00 55.82 C 147.81 59.33 143.53 61.02 143.61 65.26 L 143.01 64.88 C 145.98 57.46 130.98 57.62 133.97 64.79 C 127.66 63.82 121.23 65.45 114.89 64.99 C 112.88 55.82 124.59 62.38 129.31 59.19 C 125.14 59.52 118.08 59.84 123.01 55.11 Z" />
</g>
<g id="#b5ada0ff">
<path fill="#b5ada0" opacity="1.00" d=" M 69.01 63.84 C 67.23 60.59 67.20 57.39 68.93 54.22 C 69.02 57.43 68.98 60.63 69.01 63.84 Z" />
</g>
<g id="#8e7138ff">
<path fill="#8e7138" opacity="1.00" d=" M 86.23 55.07 C 90.35 56.26 94.19 55.46 98.01 53.85 C 98.48 55.49 98.85 57.16 99.34 58.80 C 100.86 60.69 102.06 62.79 102.96 65.04 C 103.16 65.48 103.57 66.36 103.77 66.79 C 102.07 70.04 105.71 79.29 97.74 76.20 C 95.68 76.37 99.97 78.25 100.77 79.02 C 101.60 80.75 102.25 82.54 102.87 84.35 C 98.61 84.10 94.36 84.03 90.10 84.02 C 88.49 83.96 86.88 83.87 85.27 83.76 C 84.22 83.12 83.17 82.48 82.09 81.90 C 77.11 77.01 84.05 73.47 86.27 69.26 C 90.85 66.71 96.90 69.62 101.21 66.31 C 96.12 65.42 91.00 64.79 85.88 64.13 C 79.51 66.38 72.28 59.82 79.05 55.26 C 81.44 55.24 83.84 55.20 86.23 55.07 Z" />
</g>
<g id="#eadbc4ff">
<path fill="#eadbc4" opacity="1.00" d=" M 98.01 53.85 C 102.73 57.01 107.79 55.86 112.95 55.83 L 113.82 56.00 C 116.07 56.80 120.42 55.71 120.07 58.96 C 113.16 59.13 106.25 59.07 99.34 58.80 C 98.85 57.16 98.48 55.49 98.01 53.85 Z" />
</g>
<g id="#715827ff">
<path fill="#715827" opacity="1.00" d=" M 149.00 55.82 C 151.04 54.78 153.25 54.13 155.52 53.77 C 155.70 56.42 156.98 58.55 159.00 60.20 C 157.97 67.63 148.99 64.27 143.61 65.26 C 143.53 61.02 147.81 59.33 149.00 55.82 Z" />
</g>
<g id="#513b14ff">
<path fill="#513b14" opacity="1.00" d=" M 155.52 53.77 C 159.21 57.23 164.03 54.04 168.10 56.21 C 174.46 60.81 165.33 63.71 161.27 65.44 C 161.03 71.17 168.67 73.54 173.01 76.17 C 170.92 78.97 168.28 81.29 165.89 83.82 C 163.88 83.93 161.86 84.00 159.84 84.00 C 159.32 83.97 158.29 83.93 157.77 83.91 C 158.82 81.59 160.20 79.44 161.13 77.08 C 156.42 71.42 148.10 70.60 143.61 65.26 C 148.99 64.27 157.97 67.63 159.00 60.20 C 156.98 58.55 155.70 56.42 155.52 53.77 Z" />
</g>
<g id="#c0a46dff">
<path fill="#c0a46d" opacity="1.00" d=" M 113.82 56.00 C 116.57 55.79 119.33 55.49 122.09 55.19 L 123.01 55.11 C 118.08 59.84 125.14 59.52 129.31 59.19 C 124.59 62.38 112.88 55.82 114.89 64.99 C 114.43 65.00 113.51 65.04 113.04 65.05 C 118.77 57.22 99.24 56.65 102.96 65.04 C 102.06 62.79 100.86 60.69 99.34 58.80 C 106.25 59.07 113.16 59.13 120.07 58.96 C 120.42 55.71 116.07 56.80 113.82 56.00 Z" />
</g>
<g id="#d5c49bff">
<path fill="#d5c49b" opacity="1.00" d=" M 129.90 54.93 L 130.69 55.25 C 134.44 57.40 138.80 56.22 142.84 56.11 C 145.15 56.53 145.29 58.58 142.94 58.92 C 138.31 58.43 128.52 62.26 129.90 54.93 Z" />
</g>
<g id="#c1bebaff">
<path fill="#c1beba" opacity="1.00" d=" M 180.91 58.48 C 182.93 58.40 182.90 63.52 181.01 63.62 C 180.95 61.90 180.92 60.19 180.91 58.48 Z" />
</g>
<g id="#f4edd3ff">
<path fill="#f4edd3" opacity="1.00" d=" M 102.96 65.04 C 99.24 56.65 118.77 57.22 113.04 65.05 C 109.67 65.05 106.32 65.05 102.96 65.04 Z" />
</g>
<g id="#e3d4a7ff">
<path fill="#e3d4a7" opacity="1.00" d=" M 133.97 64.79 C 130.98 57.62 145.98 57.46 143.01 64.88 C 139.99 64.90 136.98 64.95 133.97 64.79 Z" />
</g>
<g id="#775c28ff">
<path fill="#775c28" opacity="1.00" d=" M 85.88 64.13 C 91.00 64.79 96.12 65.42 101.21 66.31 C 96.90 69.62 90.85 66.71 86.27 69.26 C 84.05 73.47 77.11 77.01 82.09 81.90 C 79.41 81.22 74.02 84.14 73.73 80.15 C 71.09 74.96 77.99 72.05 79.80 67.86 C 81.47 65.69 91.09 67.10 85.88 64.13 Z" />
</g>
<g id="#7d5c22ff">
<path fill="#7d5c22" opacity="1.00" d=" M 114.89 64.99 C 121.23 65.45 127.66 63.82 133.97 64.79 L 133.84 65.64 C 133.75 66.22 133.56 67.40 133.47 67.99 C 127.41 69.56 121.25 68.06 115.13 68.03 C 113.55 67.43 111.32 66.97 113.04 65.05 C 113.51 65.04 114.43 65.00 114.89 64.99 Z" />
</g>
<g id="#aba59bff">
<path fill="#aba59b" opacity="1.00" d=" M 70.00 65.00 C 72.09 67.21 70.96 71.76 70.09 74.14 C 70.01 71.08 69.93 68.05 70.00 65.00 Z" />
</g>
<g id="#c5aa60ff">
<path fill="#c5aa60" opacity="1.00" d=" M 102.96 65.04 C 106.32 65.05 109.67 65.05 113.04 65.05 C 111.32 66.97 113.55 67.43 115.13 68.03 C 114.28 69.81 113.49 71.65 112.19 73.16 C 115.44 66.86 108.11 67.33 103.77 66.79 C 103.57 66.36 103.16 65.48 102.96 65.04 Z" />
</g>
<g id="#a3843fff">
<path fill="#a3843f" opacity="1.00" d=" M 133.97 64.79 C 136.98 64.95 139.99 64.90 143.01 64.88 C 142.89 68.64 142.03 72.28 141.07 75.88 C 143.79 75.92 146.52 76.02 149.25 76.19 C 147.86 77.63 146.05 78.51 144.24 79.31 L 143.30 79.01 C 141.45 77.81 139.24 76.93 137.89 75.12 C 142.15 71.46 142.49 62.90 133.84 65.64 L 133.97 64.79 Z" />
</g>
<g id="#735827ff">
<path fill="#735827" opacity="1.00" d=" M 143.01 64.88 L 143.61 65.26 C 148.10 70.60 156.42 71.42 161.13 77.08 C 160.20 79.44 158.82 81.59 157.77 83.91 C 156.06 83.92 152.64 83.95 150.93 83.96 C 148.25 83.98 145.57 83.99 142.90 83.99 L 143.12 83.10 C 143.50 81.83 143.88 80.57 144.24 79.31 C 146.05 78.51 147.86 77.63 149.25 76.19 C 146.52 76.02 143.79 75.92 141.07 75.88 C 142.03 72.28 142.89 68.64 143.01 64.88 Z" />
</g>
<g id="#595047ff">
<path fill="#595047" opacity="1.00" d=" M 178.97 74.00 C 177.19 72.03 177.44 66.72 178.99 65.03 C 179.03 68.02 179.07 71.01 178.97 74.00 Z" />
</g>
<g id="#c9b377ff">
<path fill="#c9b377" opacity="1.00" d=" M 133.47 67.99 C 133.56 67.40 133.75 66.22 133.84 65.64 C 142.49 62.90 142.15 71.46 137.89 75.12 C 139.24 76.93 141.45 77.81 143.30 79.01 C 139.31 78.75 132.23 75.53 133.83 82.12 C 131.13 75.62 121.08 79.94 115.34 79.16 C 115.16 81.50 114.72 83.64 111.84 83.08 L 112.26 82.31 C 114.06 82.12 114.13 80.47 114.16 79.02 C 113.65 77.13 108.78 77.01 110.61 75.15 C 117.39 77.82 124.88 76.92 132.00 77.03 C 136.66 77.76 133.47 70.75 133.47 67.99 Z" />
</g>
<g id="#b49957ff">
<path fill="#b49957" opacity="1.00" d=" M 97.74 76.20 C 105.71 79.29 102.07 70.04 103.77 66.79 C 103.92 70.10 104.21 73.40 104.47 76.70 C 103.00 77.19 100.92 76.99 100.77 79.02 C 99.97 78.25 95.68 76.37 97.74 76.20 Z" />
</g>
<g id="#e5d6a9ff">
<path fill="#e5d6a9" opacity="1.00" d=" M 103.77 66.79 C 108.11 67.33 115.44 66.86 112.19 73.16 C 111.79 73.66 111.01 74.65 110.61 75.15 C 108.78 77.01 113.65 77.13 114.16 79.02 C 110.14 78.52 106.12 77.89 102.07 77.93 C 102.23 83.35 108.10 83.42 112.26 82.31 L 111.84 83.08 C 108.85 83.46 105.85 83.92 102.87 84.35 C 102.25 82.54 101.60 80.75 100.77 79.02 C 100.92 76.99 103.00 77.19 104.47 76.70 C 104.21 73.40 103.92 70.10 103.77 66.79 Z" />
</g>
<g id="#91763aff">
<path fill="#91763a" opacity="1.00" d=" M 115.13 68.03 C 121.25 68.06 127.41 69.56 133.47 67.99 C 133.47 70.75 136.66 77.76 132.00 77.03 C 124.88 76.92 117.39 77.82 110.61 75.15 C 111.01 74.65 111.79 73.66 112.19 73.16 C 113.49 71.65 114.28 69.81 115.13 68.03 Z" />
</g>
<g id="#cac6bcff">
<path fill="#cac6bc" opacity="1.00" d=" M 69.12 81.84 C 67.23 81.14 67.10 75.92 69.09 75.50 C 69.10 77.09 69.11 80.26 69.12 81.84 Z" />
</g>
<g id="#bebbb7ff">
<path fill="#bebbb7" opacity="1.00" d=" M 180.99 75.37 C 182.92 75.54 182.88 80.43 181.02 80.70 C 180.95 78.92 180.94 77.15 180.99 75.37 Z" />
</g>
<g id="#faf6e8ff">
<path fill="#faf6e8" opacity="1.00" d=" M 102.07 77.93 C 106.12 77.89 110.14 78.52 114.16 79.02 C 114.13 80.47 114.06 82.12 112.26 82.31 C 108.10 83.42 102.23 83.35 102.07 77.93 Z" />
</g>
<g id="#ece3c9ff">
<path fill="#ece3c9" opacity="1.00" d=" M 133.83 82.12 C 132.23 75.53 139.31 78.75 143.30 79.01 L 144.24 79.31 C 143.88 80.57 143.50 81.83 143.12 83.10 C 140.31 82.42 135.94 84.23 133.83 82.12 Z" />
</g>
<g id="#967439ff">
<path fill="#967439" opacity="1.00" d=" M 115.34 79.16 C 121.08 79.94 131.13 75.62 133.83 82.12 C 135.94 84.23 140.31 82.42 143.12 83.10 L 142.90 83.99 C 132.17 84.19 121.40 83.43 110.71 84.63 C 108.08 84.68 105.45 84.92 102.87 84.35 C 105.85 83.92 108.85 83.46 111.84 83.08 C 114.72 83.64 115.16 81.50 115.34 79.16 Z" />
</g>
<g id="#aca294ff">
<path fill="#aca294" opacity="1.00" d=" M 69.12 81.84 C 70.24 81.98 72.45 81.34 72.70 82.94 C 71.67 83.66 69.12 83.39 69.12 81.84 Z" />
</g>
<g id="#8d837eff">
<path fill="#8d837e" opacity="1.00" d=" M 176.66 85.12 C 174.92 82.74 177.31 81.31 179.59 81.87 C 179.52 83.35 177.13 83.60 176.66 85.12 Z" />
</g>
<g id="#b46471ff">
<path fill="#b46471" opacity="1.00" d=" M 71.25 98.30 C 71.52 94.14 70.03 86.93 72.95 83.97 L 73.21 85.02 C 72.77 89.47 72.32 93.95 71.25 98.30 Z" />
</g>
<g id="#ae0323ff">
<path fill="#ae0323" opacity="1.00" d=" M 73.21 85.02 C 76.56 84.78 79.87 84.15 83.22 83.94 C 76.82 88.63 78.63 97.18 78.01 104.02 C 76.98 108.33 82.43 108.74 85.24 110.10 C 83.60 111.07 79.91 111.47 81.92 113.97 C 70.87 110.94 71.99 127.20 77.06 132.94 C 76.33 133.59 75.61 134.25 74.89 134.91 C 74.43 135.28 73.50 136.03 73.03 136.40 C 72.43 133.83 71.91 131.26 71.28 128.71 C 71.04 118.58 70.58 108.42 71.25 98.30 C 72.32 93.95 72.77 89.47 73.21 85.02 Z" />
</g>
<g id="#c9022bff">
<path fill="#c9022b" opacity="1.00" d=" M 83.22 83.94 C 83.73 83.90 84.76 83.80 85.27 83.76 C 86.88 83.87 88.49 83.96 90.10 84.02 C 83.55 90.75 81.47 106.02 92.06 109.97 C 90.36 110.00 86.94 110.07 85.24 110.10 C 82.43 108.74 76.98 108.33 78.01 104.02 C 78.63 97.18 76.82 88.63 83.22 83.94 Z" />
</g>
<g id="#db0d34ff">
<path fill="#db0d34" opacity="1.00" d=" M 90.10 84.02 C 94.36 84.03 98.61 84.10 102.87 84.35 C 105.45 84.92 108.08 84.68 110.71 84.63 C 114.81 84.58 118.84 85.22 122.80 86.16 C 129.25 88.06 138.89 85.24 143.66 91.33 C 143.48 96.10 144.27 100.82 146.71 104.96 C 140.62 108.45 129.16 116.35 124.70 108.10 C 117.58 119.40 102.91 106.49 92.83 110.18 L 92.06 109.97 C 81.47 106.02 83.55 90.75 90.10 84.02 Z" />
</g>
<g id="#8e2b11ff">
<path fill="#8e2b11" opacity="1.00" d=" M 110.71 84.63 C 121.40 83.43 132.17 84.19 142.90 83.99 C 145.57 83.99 148.25 83.98 150.93 83.96 L 151.15 84.81 C 141.68 84.87 132.26 85.84 122.80 86.16 C 118.84 85.22 114.81 84.58 110.71 84.63 Z" />
</g>
<g id="#ab011dff">
<path fill="#ab011d" opacity="1.00" d=" M 150.93 83.96 C 152.64 83.95 156.06 83.92 157.77 83.91 C 158.29 83.93 159.32 83.97 159.84 84.00 C 167.41 89.67 168.76 106.10 158.80 110.00 C 156.47 110.39 154.13 110.73 151.77 110.91 C 161.75 106.75 159.80 94.53 155.26 86.75 C 154.36 85.33 152.67 85.06 151.15 84.81 L 150.93 83.96 Z" />
</g>
<g id="#890011ff">
<path fill="#890011" opacity="1.00" d=" M 159.84 84.00 C 161.86 84.00 163.88 83.93 165.89 83.82 L 166.88 83.92 C 171.13 90.02 169.90 97.94 170.96 104.91 C 169.09 109.23 163.07 109.94 158.80 110.00 C 168.76 106.10 167.41 89.67 159.84 84.00 Z" />
</g>
<g id="#6a030cff">
<path fill="#6a030c" opacity="1.00" d=" M 166.88 83.92 C 170.18 84.16 173.39 85.03 176.58 85.86 C 176.86 87.54 177.17 89.22 177.56 90.89 C 178.20 93.80 176.93 97.59 179.01 100.00 C 179.26 100.29 179.78 100.88 180.03 101.17 C 179.96 105.75 180.07 110.35 179.75 114.93 C 179.45 116.00 179.16 117.07 178.89 118.14 C 174.46 114.76 168.51 119.55 165.04 116.28 C 165.94 110.13 158.87 112.05 154.91 112.06 C 151.03 113.23 144.75 112.02 143.62 117.08 C 141.62 115.20 139.18 117.97 138.95 120.07 C 135.67 122.56 131.28 119.94 131.96 116.18 C 135.80 114.49 140.36 115.03 144.24 113.21 C 146.73 112.39 149.25 111.65 151.77 110.91 C 154.13 110.73 156.47 110.39 158.80 110.00 C 163.07 109.94 169.09 109.23 170.96 104.91 C 169.90 97.94 171.13 90.02 166.88 83.92 Z" />
</g>
<g id="#c70429ff">
<path fill="#c70429" opacity="1.00" d=" M 122.80 86.16 C 132.26 85.84 141.68 84.87 151.15 84.81 C 152.67 85.06 154.36 85.33 155.26 86.75 C 159.80 94.53 161.75 106.75 151.77 110.91 C 149.25 111.65 146.73 112.39 144.24 113.21 C 138.92 113.13 128.86 111.80 129.99 119.96 C 132.90 124.33 139.49 126.18 144.20 122.79 C 148.00 122.29 152.44 123.96 156.01 122.05 C 157.36 121.39 158.71 120.74 160.08 120.11 C 162.04 124.30 157.88 125.64 154.80 127.37 C 157.27 129.99 162.02 128.08 164.17 130.98 C 160.65 140.77 150.39 140.35 141.87 140.20 C 140.92 139.74 139.98 139.28 139.04 138.82 C 136.25 135.50 131.46 135.03 129.01 139.03 C 128.05 139.42 127.09 139.79 126.12 140.16 C 125.77 139.59 125.06 138.44 124.70 137.87 C 125.71 134.18 133.14 136.11 129.70 130.12 C 128.67 124.45 128.23 116.33 120.92 120.03 C 122.67 117.57 124.81 115.15 125.22 112.04 C 119.44 116.34 112.35 114.91 106.07 112.75 C 101.72 111.57 97.15 111.45 92.83 110.18 C 102.91 106.49 117.58 119.40 124.70 108.10 C 129.16 116.35 140.62 108.45 146.71 104.96 C 144.27 100.82 143.48 96.10 143.66 91.33 C 138.89 85.24 129.25 88.06 122.80 86.16 Z" />
</g>
<g id="#9c787bff">
<path fill="#9c787b" opacity="1.00" d=" M 176.66 85.12 C 179.02 85.48 178.45 89.31 177.56 90.89 C 177.17 89.22 176.86 87.54 176.58 85.86 L 176.66 85.12 Z" />
</g>
<g id="#7e4b4fff">
<path fill="#7e4b4f" opacity="1.00" d=" M 177.56 90.89 C 181.16 91.00 178.25 97.47 179.01 100.00 C 176.93 97.59 178.20 93.80 177.56 90.89 Z" />
</g>
<g id="#9f3044ff">
<path fill="#9f3044" opacity="1.00" d=" M 71.28 128.71 C 69.45 122.38 68.75 104.46 71.25 98.30 C 70.58 108.42 71.04 118.58 71.28 128.71 Z" />
</g>
<g id="#faecccff">
<path fill="#faeccc" opacity="1.00" d=" M 180.03 101.17 C 183.42 98.80 178.90 113.04 182.41 107.36 C 184.16 102.44 187.27 108.73 190.33 107.44 C 193.02 106.36 194.01 110.74 193.99 112.77 C 192.91 112.72 191.84 112.72 190.77 112.78 C 186.89 112.43 183.07 112.90 179.75 114.93 C 180.07 110.35 179.96 105.75 180.03 101.17 Z" />
</g>
<g id="#78010dff">
<path fill="#78010d" opacity="1.00" d=" M 85.24 110.10 C 86.94 110.07 90.36 110.00 92.06 109.97 L 92.83 110.18 C 97.15 111.45 101.72 111.57 106.07 112.75 C 103.62 112.55 101.17 112.36 98.72 112.20 C 94.84 112.66 89.53 110.44 86.55 113.91 C 85.01 113.98 83.46 114.05 81.92 113.97 C 79.91 111.47 83.60 111.07 85.24 110.10 Z" />
</g>
<g id="#5a4a4eff">
<path fill="#5a4a4e" opacity="1.00" d=" M 86.55 113.91 C 89.53 110.44 94.84 112.66 98.72 112.20 C 98.75 118.19 105.32 117.61 109.48 118.09 C 108.28 120.10 106.22 121.31 104.62 122.95 C 104.23 122.98 103.43 123.06 103.04 123.10 C 102.56 122.26 101.94 121.58 101.16 121.04 C 98.01 119.56 97.52 116.39 97.72 113.07 C 94.57 113.42 89.93 111.64 87.67 114.91 C 87.39 114.66 86.83 114.16 86.55 113.91 Z" />
</g>
<g id="#231415ff">
<path fill="#231415" opacity="1.00" d=" M 98.72 112.20 C 101.17 112.36 103.62 112.55 106.07 112.75 C 107.71 113.85 109.28 115.07 110.58 116.57 C 110.30 116.95 109.75 117.71 109.48 118.09 C 105.32 117.61 98.75 118.19 98.72 112.20 Z" />
</g>
<g id="#860713ff">
<path fill="#860713" opacity="1.00" d=" M 106.07 112.75 C 112.35 114.91 119.44 116.34 125.22 112.04 C 124.81 115.15 122.67 117.57 120.92 120.03 C 118.63 120.49 116.26 120.34 113.94 120.37 C 116.98 118.27 112.13 117.42 110.58 116.57 C 109.28 115.07 107.71 113.85 106.07 112.75 Z" />
</g>
<g id="#251414ff">
<path fill="#251414" opacity="1.00" d=" M 143.62 117.08 C 144.75 112.02 151.03 113.23 154.91 112.06 C 155.00 112.48 155.16 113.32 155.25 113.75 C 155.38 114.85 155.69 115.97 155.41 117.08 C 151.50 118.01 147.52 115.33 144.08 117.93 L 143.62 117.08 Z" />
</g>
<g id="#6d4d50ff">
<path fill="#6d4d50" opacity="1.00" d=" M 154.91 112.06 C 158.87 112.05 165.94 110.13 165.04 116.28 L 164.53 115.74 C 163.15 111.73 158.52 112.74 155.25 113.75 C 155.16 113.32 155.00 112.48 154.91 112.06 Z" />
</g>
<g id="#e0b99fff">
<path fill="#e0b99f" opacity="1.00" d=" M 190.77 112.78 C 191.84 112.72 192.91 112.72 193.99 112.77 C 194.80 115.14 195.26 117.64 194.92 120.15 C 191.34 119.61 191.06 115.66 190.77 112.78 Z" />
</g>
<g id="#d30c31ff">
<path fill="#d30c31" opacity="1.00" d=" M 77.06 132.94 C 71.99 127.20 70.87 110.94 81.92 113.97 C 83.46 114.05 85.01 113.98 86.55 113.91 C 86.83 114.16 87.39 114.66 87.67 114.91 C 88.20 115.88 88.72 116.86 89.23 117.85 C 83.02 122.51 95.90 125.82 100.07 126.92 C 105.67 129.46 96.45 129.65 94.01 131.13 C 95.19 134.21 96.48 137.25 97.82 140.27 C 101.76 143.18 110.90 135.15 113.32 140.00 C 106.09 144.79 97.97 149.59 88.93 149.05 C 85.87 143.59 96.21 137.71 88.57 134.66 C 85.70 131.40 80.83 131.24 77.06 132.94 Z" />
</g>
<g id="#cdc3c6ff">
<path fill="#cdc3c6" opacity="1.00" d=" M 87.67 114.91 C 89.93 111.64 94.57 113.42 97.72 113.07 C 97.52 116.39 98.01 119.56 101.16 121.04 C 99.78 121.44 98.41 121.88 97.07 122.38 C 94.49 120.82 91.82 119.40 89.23 117.85 C 88.72 116.86 88.20 115.88 87.67 114.91 Z" />
</g>
<g id="#a0021aff">
<path fill="#a0021a" opacity="1.00" d=" M 129.99 119.96 C 128.86 111.80 138.92 113.13 144.24 113.21 C 140.36 115.03 135.80 114.49 131.96 116.18 C 131.28 119.94 135.67 122.56 138.95 120.07 C 140.74 120.91 142.48 121.83 144.20 122.79 C 139.49 126.18 132.90 124.33 129.99 119.96 Z" />
</g>
<g id="#a99b9fff">
<path fill="#a99b9f" opacity="1.00" d=" M 155.25 113.75 C 158.52 112.74 163.15 111.73 164.53 115.74 C 163.14 117.28 161.66 118.75 160.08 120.11 C 158.71 120.74 157.36 121.39 156.01 122.05 C 154.28 122.05 152.56 122.00 150.84 121.88 C 153.07 121.05 155.58 119.90 155.41 117.08 C 155.69 115.97 155.38 114.85 155.25 113.75 Z" />
</g>
<g id="#feef8aff">
<path fill="#feef8a" opacity="1.00" d=" M 179.75 114.93 C 183.07 112.90 186.89 112.43 190.77 112.78 C 191.06 115.66 191.34 119.61 194.92 120.15 C 197.36 121.66 196.07 126.35 196.91 129.03 C 196.33 137.57 203.33 145.78 197.42 154.00 C 197.19 150.85 193.81 153.26 191.90 153.07 C 189.37 149.62 195.36 148.18 196.82 145.68 C 196.79 142.23 198.10 137.67 195.19 134.89 C 192.85 137.57 188.00 137.26 187.02 141.00 C 188.43 143.57 190.47 147.65 185.99 144.96 C 184.88 142.14 183.41 139.51 182.00 136.84 C 185.51 135.23 188.99 131.50 190.60 129.53 C 193.32 137.23 197.99 128.94 194.39 124.76 C 193.48 121.00 186.80 119.11 187.20 124.50 C 184.60 128.24 180.07 122.38 181.07 118.92 C 180.65 117.59 180.16 116.27 179.75 114.93 Z" />
</g>
<g id="#df6d11ff">
<path fill="#df6d11" opacity="1.00" d=" M 178.89 118.14 C 179.16 117.07 179.45 116.00 179.75 114.93 C 180.16 116.27 180.65 117.59 181.07 118.92 C 180.18 127.05 180.19 135.47 177.30 143.20 C 182.62 135.62 166.91 129.13 169.23 138.32 C 168.58 137.93 167.29 137.14 166.64 136.75 C 164.04 129.52 173.86 131.17 177.87 132.96 C 178.11 128.01 177.96 123.02 178.89 118.14 Z" />
</g>
<g id="#a0646bff">
<path fill="#a0646b" opacity="1.00" d=" M 138.95 120.07 C 139.18 117.97 141.62 115.20 143.62 117.08 L 144.08 117.93 C 145.10 120.73 148.16 121.61 150.84 121.88 C 152.56 122.00 154.28 122.05 156.01 122.05 C 152.44 123.96 148.00 122.29 144.20 122.79 C 142.48 121.83 140.74 120.91 138.95 120.07 Z" />
</g>
<g id="#463d3fff">
<path fill="#463d3f" opacity="1.00" d=" M 144.08 117.93 C 147.52 115.33 151.50 118.01 155.41 117.08 C 155.58 119.90 153.07 121.05 150.84 121.88 C 148.16 121.61 145.10 120.73 144.08 117.93 Z" />
</g>
<g id="#a30715ff">
<path fill="#a30715" opacity="1.00" d=" M 164.53 115.74 L 165.04 116.28 C 168.51 119.55 174.46 114.76 178.89 118.14 C 177.96 123.02 178.11 128.01 177.87 132.96 C 173.86 131.17 164.04 129.52 166.64 136.75 C 166.01 140.35 158.94 152.03 169.23 148.36 C 163.78 149.72 158.23 148.46 152.97 147.00 C 152.51 146.75 151.59 146.23 151.13 145.97 C 148.04 144.04 144.95 142.12 141.87 140.20 C 150.39 140.35 160.65 140.77 164.17 130.98 C 162.02 128.08 157.27 129.99 154.80 127.37 C 157.88 125.64 162.04 124.30 160.08 120.11 C 161.66 118.75 163.14 117.28 164.53 115.74 Z" />
</g>
<g id="#ae7f83ff">
<path fill="#ae7f83" opacity="1.00" d=" M 110.58 116.57 C 112.13 117.42 116.98 118.27 113.94 120.37 C 111.01 121.86 108.05 123.46 104.62 122.95 C 106.22 121.31 108.28 120.10 109.48 118.09 C 109.75 117.71 110.30 116.95 110.58 116.57 Z" />
</g>
<g id="#dd1739ff">
<path fill="#dd1739" opacity="1.00" d=" M 89.23 117.85 C 91.82 119.40 94.49 120.82 97.07 122.38 C 98.56 122.56 101.55 122.92 103.04 123.10 C 103.43 123.06 104.23 122.98 104.62 122.95 C 108.05 123.46 111.01 121.86 113.94 120.37 C 116.26 120.34 118.63 120.49 120.92 120.03 C 128.23 116.33 128.67 124.45 129.70 130.12 C 133.14 136.11 125.71 134.18 124.70 137.87 C 121.17 134.19 116.31 137.21 113.32 140.00 C 110.90 135.15 101.76 143.18 97.82 140.27 C 96.48 137.25 95.19 134.21 94.01 131.13 C 96.45 129.65 105.67 129.46 100.07 126.92 C 95.90 125.82 83.02 122.51 89.23 117.85 Z" />
</g>
<g id="#ffd91bff">
<path fill="#ffd91b" opacity="1.00" d=" M 181.07 118.92 C 180.07 122.38 184.60 128.24 187.20 124.50 C 191.61 120.29 193.62 132.94 194.39 124.76 C 197.99 128.94 193.32 137.23 190.60 129.53 C 188.99 131.50 185.51 135.23 182.00 136.84 C 183.41 139.51 184.88 142.14 185.99 144.96 C 183.65 143.27 180.95 144.31 179.65 146.70 C 174.81 149.01 174.55 147.07 177.30 143.20 C 180.19 135.47 180.18 127.05 181.07 118.92 Z" />
</g>
<g id="#c56c7bff">
<path fill="#c56c7b" opacity="1.00" d=" M 101.16 121.04 C 101.94 121.58 102.56 122.26 103.04 123.10 C 101.55 122.92 98.56 122.56 97.07 122.38 C 98.41 121.88 99.78 121.44 101.16 121.04 Z" />
</g>
<g id="#f5a436ff">
<path fill="#f5a436" opacity="1.00" d=" M 187.20 124.50 C 186.80 119.11 193.48 121.00 194.39 124.76 C 193.62 132.94 191.61 120.29 187.20 124.50 Z" />
</g>
<g id="#b0514eff">
<path fill="#b0514e" opacity="1.00" d=" M 71.28 128.71 C 71.91 131.26 72.43 133.83 73.03 136.40 C 72.07 137.33 71.10 138.25 70.15 139.19 C 70.24 135.67 70.84 132.19 71.28 128.71 Z" />
</g>
<g id="#fff3ccff">
<path fill="#fff3cc" opacity="1.00" d=" M 196.91 129.03 C 205.84 129.96 204.21 141.41 201.48 147.57 C 199.52 150.13 200.31 154.75 196.89 155.96 C 197.02 155.47 197.29 154.49 197.42 154.00 C 203.33 145.78 196.33 137.57 196.91 129.03 Z" />
</g>
<g id="#e27b37ff">
<path fill="#e27b37" opacity="1.00" d=" M 77.06 132.94 C 80.83 131.24 85.70 131.40 88.57 134.66 C 86.78 136.68 85.06 139.38 81.99 139.18 C 82.47 137.55 86.54 135.15 83.66 134.27 C 80.13 132.97 77.48 135.39 74.78 137.00 C 74.81 136.48 74.86 135.43 74.89 134.91 C 75.61 134.25 76.33 133.59 77.06 132.94 Z" />
</g>
<g id="#a50c16ff">
<path fill="#a50c16" opacity="1.00" d=" M 74.78 137.00 C 77.48 135.39 80.13 132.97 83.66 134.27 C 86.54 135.15 82.47 137.55 81.99 139.18 C 85.06 139.38 86.78 136.68 88.57 134.66 C 96.21 137.71 85.87 143.59 88.93 149.05 C 86.63 149.09 84.37 148.64 82.15 148.13 C 81.00 144.23 76.68 145.11 74.84 141.94 C 74.57 140.30 74.63 138.64 74.78 137.00 Z" />
</g>
<g id="#a92504ff">
<path fill="#a92504" opacity="1.00" d=" M 169.23 138.32 C 166.91 129.13 182.62 135.62 177.30 143.20 L 176.45 143.00 C 176.42 138.73 172.46 139.16 169.23 138.32 Z" />
</g>
<g id="#f4b051ff">
<path fill="#f4b051" opacity="1.00" d=" M 73.03 136.40 C 73.50 136.03 74.43 135.28 74.89 134.91 C 74.86 135.43 74.81 136.48 74.78 137.00 C 74.63 138.64 74.57 140.30 74.84 141.94 C 74.72 145.84 78.43 148.60 82.15 148.13 C 84.37 148.64 86.63 149.09 88.93 149.05 C 97.97 149.59 106.09 144.79 113.32 140.00 C 116.31 137.21 121.17 134.19 124.70 137.87 C 125.06 138.44 125.77 139.59 126.12 140.16 C 125.03 142.09 124.73 146.12 127.78 146.07 C 128.17 143.72 128.58 141.37 129.01 139.03 C 131.46 135.03 136.25 135.50 139.04 138.82 C 141.64 142.86 146.18 146.14 151.13 145.97 C 151.59 146.23 152.51 146.75 152.97 147.00 C 152.98 153.44 162.31 151.13 163.06 155.98 C 156.61 155.34 150.06 154.31 143.98 152.01 C 139.44 150.42 136.13 145.77 130.96 145.96 C 130.61 150.98 140.22 149.06 140.05 154.08 C 136.37 153.97 133.48 151.43 130.29 149.92 C 127.73 147.26 125.61 148.73 123.82 151.33 C 120.40 152.31 116.36 155.51 113.93 151.24 C 103.66 154.17 93.73 158.45 82.72 157.28 C 80.80 156.87 78.90 156.38 76.98 155.97 C 73.64 153.58 71.64 149.86 68.86 146.93 C 68.16 147.91 67.53 148.93 66.88 149.94 C 67.59 146.26 68.33 142.46 70.15 139.19 C 71.10 138.25 72.07 137.33 73.03 136.40 Z" />
</g>
<g id="#ffc614ff">
<path fill="#ffc614" opacity="1.00" d=" M 187.02 141.00 C 188.00 137.26 192.85 137.57 195.19 134.89 C 198.10 137.67 196.79 142.23 196.82 145.68 C 195.36 148.18 189.37 149.62 191.90 153.07 C 188.04 153.04 186.98 147.98 185.99 144.96 C 190.47 147.65 188.43 143.57 187.02 141.00 Z" />
</g>
<g id="#800606ff">
<path fill="#800606" opacity="1.00" d=" M 169.23 148.36 C 158.94 152.03 166.01 140.35 166.64 136.75 C 167.29 137.14 168.58 137.93 169.23 138.32 C 172.46 139.16 176.42 138.73 176.45 143.00 C 174.07 144.82 171.79 146.79 169.23 148.36 Z" />
</g>
<g id="#d2630cff">
<path fill="#d2630c" opacity="1.00" d=" M 126.12 140.16 C 127.09 139.79 128.05 139.42 129.01 139.03 C 128.58 141.37 128.17 143.72 127.78 146.07 C 124.73 146.12 125.03 142.09 126.12 140.16 Z" />
</g>
<g id="#de7f1eff">
<path fill="#de7f1e" opacity="1.00" d=" M 139.04 138.82 C 139.98 139.28 140.92 139.74 141.87 140.20 C 144.95 142.12 148.04 144.04 151.13 145.97 C 146.18 146.14 141.64 142.86 139.04 138.82 Z" />
</g>
<g id="#e18220ff">
<path fill="#e18220" opacity="1.00" d=" M 74.84 141.94 C 76.68 145.11 81.00 144.23 82.15 148.13 C 78.43 148.60 74.72 145.84 74.84 141.94 Z" />
</g>
<g id="#f09a2bff">
<path fill="#f09a2b" opacity="1.00" d=" M 176.45 143.00 L 177.30 143.20 C 174.55 147.07 174.81 149.01 179.65 146.70 C 178.91 148.76 179.65 152.28 176.94 152.93 C 168.81 154.60 160.73 158.52 152.32 155.67 C 147.31 153.14 139.87 155.96 142.16 162.24 C 143.88 170.12 140.29 171.93 139.57 164.82 C 138.68 167.18 138.37 169.70 137.98 172.17 C 129.68 172.69 121.35 175.93 113.35 171.70 C 111.16 170.52 110.68 175.51 108.39 173.57 C 104.34 171.04 99.42 170.54 95.43 167.92 C 95.70 166.62 96.01 165.32 96.35 164.03 C 96.96 163.31 97.58 162.60 98.20 161.89 C 102.42 161.34 106.59 160.35 110.83 159.98 C 112.90 160.53 108.65 169.51 112.93 167.46 C 121.44 170.29 129.60 167.33 137.93 165.70 C 137.74 162.40 139.23 154.57 133.89 154.38 C 131.12 154.87 129.80 151.73 127.05 152.03 C 128.13 151.32 129.21 150.63 130.29 149.92 C 133.48 151.43 136.37 153.97 140.05 154.08 C 140.22 149.06 130.61 150.98 130.96 145.96 C 136.13 145.77 139.44 150.42 143.98 152.01 C 150.06 154.31 156.61 155.34 163.06 155.98 C 162.31 151.13 152.98 153.44 152.97 147.00 C 158.23 148.46 163.78 149.72 169.23 148.36 C 171.79 146.79 174.07 144.82 176.45 143.00 Z" />
</g>
<g id="#e47a13ff">
<path fill="#e47a13" opacity="1.00" d=" M 179.65 146.70 C 180.95 144.31 183.65 143.27 185.99 144.96 C 186.98 147.98 188.04 153.04 191.90 153.07 C 193.81 153.26 197.19 150.85 197.42 154.00 C 195.64 155.11 194.03 156.46 192.49 157.89 L 191.78 157.57 C 188.79 156.05 185.58 154.72 182.17 155.50 C 179.57 152.58 176.30 155.75 173.33 156.29 C 165.70 157.96 157.79 158.07 150.27 160.29 C 148.01 165.24 155.48 159.04 157.95 162.82 L 158.24 163.71 C 158.53 166.80 157.57 171.77 153.42 170.91 C 153.18 168.11 149.35 160.16 151.09 170.94 C 155.34 177.33 146.40 177.54 147.87 172.94 C 146.65 169.95 146.08 175.63 144.01 175.17 C 145.59 170.39 139.91 158.91 148.24 159.61 C 145.04 157.94 142.03 157.89 142.16 162.24 C 139.87 155.96 147.31 153.14 152.32 155.67 C 160.73 158.52 168.81 154.60 176.94 152.93 C 179.65 152.28 178.91 148.76 179.65 146.70 Z" />
</g>
<g id="#c50c30ff">
<path fill="#c50c30" opacity="1.00" d=" M 66.88 149.94 C 67.53 148.93 68.16 147.91 68.86 146.93 C 69.93 150.53 72.07 153.56 74.77 156.13 C 72.36 160.08 71.36 164.66 69.85 169.00 C 67.81 168.60 61.33 163.58 64.22 167.89 C 61.78 177.78 62.48 189.11 56.67 197.79 C 52.59 198.37 53.54 191.42 50.46 189.52 C 50.02 174.75 62.44 163.56 66.88 149.94 Z" />
</g>
<g id="#cc4f06ff">
<path fill="#cc4f06" opacity="1.00" d=" M 68.86 146.93 C 71.64 149.86 73.64 153.58 76.98 155.97 C 82.87 161.47 92.33 156.19 98.20 161.89 C 97.58 162.60 96.96 163.31 96.35 164.03 C 95.27 158.91 87.01 164.78 84.76 161.14 C 86.85 162.63 100.73 159.04 88.00 160.01 C 81.25 161.38 79.39 160.43 74.77 156.13 C 72.07 153.56 69.93 150.53 68.86 146.93 Z" />
</g>
<g id="#ac430aff">
<path fill="#ac430a" opacity="1.00" d=" M 123.82 151.33 C 125.61 148.73 127.73 147.26 130.29 149.92 C 129.21 150.63 128.13 151.32 127.05 152.03 C 125.97 151.82 124.89 151.59 123.82 151.33 Z" />
</g>
<g id="#f29a27ff">
<path fill="#f29a27" opacity="1.00" d=" M 82.72 157.28 C 93.73 158.45 103.66 154.17 113.93 151.24 C 116.36 155.51 120.40 152.31 123.82 151.33 C 124.89 151.59 125.97 151.82 127.05 152.03 C 119.53 154.35 109.92 157.49 112.93 167.46 C 112.63 164.86 112.02 159.66 111.72 157.06 C 102.02 155.97 92.33 159.38 82.72 157.28 Z" />
</g>
<g id="#f5b458ff">
<path fill="#f5b458" opacity="1.00" d=" M 127.05 152.03 C 129.80 151.73 131.12 154.87 133.89 154.38 C 139.23 154.57 137.74 162.40 137.93 165.70 C 129.60 167.33 121.44 170.29 112.93 167.46 C 109.92 157.49 119.53 154.35 127.05 152.03 Z" />
</g>
<g id="#c84101ff">
<path fill="#c84101" opacity="1.00" d=" M 173.33 156.29 C 176.30 155.75 179.57 152.58 182.17 155.50 C 180.43 156.46 178.81 157.63 177.24 158.86 C 172.06 154.85 162.73 161.18 157.95 162.82 C 155.48 159.04 148.01 165.24 150.27 160.29 C 157.79 158.07 165.70 157.96 173.33 156.29 Z" />
</g>
<g id="#f4b387ff">
<path fill="#f4b387" opacity="1.00" d=" M 192.49 157.89 C 194.03 156.46 195.64 155.11 197.42 154.00 C 197.29 154.49 197.02 155.47 196.89 155.96 C 196.46 157.47 195.61 158.82 194.72 160.09 C 193.97 159.35 193.23 158.62 192.49 157.89 Z" />
</g>
<g id="#d81836ff">
<path fill="#d81836" opacity="1.00" d=" M 182.17 155.50 C 185.58 154.72 188.79 156.05 191.78 157.57 C 194.76 165.71 187.87 173.97 179.24 170.85 C 177.08 168.89 176.13 166.06 174.83 163.54 C 175.59 161.95 176.39 160.39 177.24 158.86 C 178.81 157.63 180.43 156.46 182.17 155.50 Z" />
</g>
<g id="#881207ff">
<path fill="#881207" opacity="1.00" d=" M 74.77 156.13 C 79.39 160.43 81.25 161.38 88.00 160.01 C 100.73 159.04 86.85 162.63 84.76 161.14 C 87.01 164.78 95.27 158.91 96.35 164.03 C 96.01 164.29 95.35 164.80 95.02 165.06 C 89.57 166.15 84.00 166.57 78.94 163.94 C 78.46 164.06 77.51 164.30 77.04 164.42 C 75.94 166.35 75.24 168.46 74.42 170.51 L 73.47 170.40 C 72.26 169.95 71.04 169.49 69.85 169.00 C 71.36 164.66 72.36 160.08 74.77 156.13 Z" />
</g>
<g id="#e87709ff">
<path fill="#e87709" opacity="1.00" d=" M 76.98 155.97 C 78.90 156.38 80.80 156.87 82.72 157.28 C 92.33 159.38 102.02 155.97 111.72 157.06 C 112.02 159.66 112.63 164.86 112.93 167.46 C 108.65 169.51 112.90 160.53 110.83 159.98 C 106.59 160.35 102.42 161.34 98.20 161.89 C 92.33 156.19 82.87 161.47 76.98 155.97 Z" />
</g>
<g id="#940f01ff">
<path fill="#940f01" opacity="1.00" d=" M 157.95 162.82 C 162.73 161.18 172.06 154.85 177.24 158.86 C 176.39 160.39 175.59 161.95 174.83 163.54 C 174.56 164.06 174.02 165.09 173.75 165.61 C 171.17 166.44 170.73 168.67 171.09 171.12 L 171.06 171.83 C 170.56 174.60 170.10 177.36 169.69 180.16 C 166.81 178.79 164.08 177.06 161.08 175.96 C 157.72 178.60 154.32 181.17 150.68 183.42 C 151.07 180.68 151.15 177.89 152.13 175.29 C 158.66 177.65 160.61 168.27 158.24 163.71 L 157.95 162.82 Z" />
</g>
<g id="#d998a2ff">
<path fill="#d998a2" opacity="1.00" d=" M 200.31 158.00 C 200.20 156.12 204.79 156.11 204.67 158.01 C 203.21 158.05 201.76 158.05 200.31 158.00 Z" />
</g>
<g id="#c44a04ff">
<path fill="#c44a04" opacity="1.00" d=" M 142.16 162.24 C 142.03 157.89 145.04 157.94 148.24 159.61 C 139.91 158.91 145.59 170.39 144.01 175.17 C 146.08 175.63 146.65 169.95 147.87 172.94 C 146.40 177.54 155.34 177.33 151.09 170.94 C 149.35 160.16 153.18 168.11 153.42 170.91 C 157.57 171.77 158.53 166.80 158.24 163.71 C 160.61 168.27 158.66 177.65 152.13 175.29 C 151.15 177.89 151.07 180.68 150.68 183.42 C 148.78 181.89 146.83 178.55 145.08 182.06 C 140.67 187.34 144.83 171.76 141.46 177.50 C 143.24 185.46 139.38 181.04 137.20 179.87 C 137.12 179.42 136.96 178.53 136.88 178.09 C 137.23 176.11 137.69 174.15 137.98 172.17 C 138.37 169.70 138.68 167.18 139.57 164.82 C 140.29 171.93 143.88 170.12 142.16 162.24 Z" />
</g>
<g id="#c4052cff">
<path fill="#c4052c" opacity="1.00" d=" M 179.24 170.85 C 187.87 173.97 194.76 165.71 191.78 157.57 L 192.49 157.89 C 193.23 158.62 193.97 159.35 194.72 160.09 L 194.81 160.64 C 197.56 168.59 193.99 180.20 184.90 181.88 C 178.36 181.87 175.76 174.83 171.06 171.83 L 171.09 171.12 C 173.65 170.67 172.98 167.48 173.75 165.61 C 174.02 165.09 174.56 164.06 174.83 163.54 C 176.13 166.06 177.08 168.89 179.24 170.85 Z" />
</g>
<g id="#a80320ff">
<path fill="#a80320" opacity="1.00" d=" M 200.31 158.00 C 201.76 158.05 203.21 158.05 204.67 158.01 C 204.99 158.28 205.62 158.81 205.94 159.08 L 205.91 159.91 C 203.94 162.49 202.37 166.28 198.11 165.36 C 200.16 173.75 198.15 182.64 190.67 187.81 C 183.40 188.51 173.56 187.13 169.69 180.16 C 170.10 177.36 170.56 174.60 171.06 171.83 C 175.76 174.83 178.36 181.87 184.90 181.88 C 193.99 180.20 197.56 168.59 194.81 160.64 C 195.72 161.43 196.55 162.31 197.30 163.27 C 199.47 165.39 199.22 160.62 199.04 159.34 C 199.36 159.01 199.99 158.34 200.31 158.00 Z" />
</g>
<g id="#d2919aff">
<path fill="#d2919a" opacity="1.00" d=" M 197.30 163.27 C 197.67 162.05 197.44 159.47 199.04 159.34 C 199.22 160.62 199.47 165.39 197.30 163.27 Z" />
</g>
<g id="#cbabafff">
<path fill="#cbabaf" opacity="1.00" d=" M 205.94 159.08 C 208.05 166.65 206.91 178.62 206.82 188.06 L 205.78 187.67 C 205.91 184.04 205.99 180.42 205.90 176.79 C 205.97 171.16 205.92 165.53 205.91 159.91 L 205.94 159.08 Z" />
</g>
<g id="#850212ff">
<path fill="#850212" opacity="1.00" d=" M 198.11 165.36 C 202.37 166.28 203.94 162.49 205.91 159.91 C 205.92 165.53 205.97 171.16 205.90 176.79 C 201.68 182.47 198.33 189.93 190.87 191.92 C 185.15 192.10 179.45 191.69 173.74 191.67 C 172.05 191.01 170.86 189.40 169.12 188.78 C 173.14 184.75 165.05 179.08 161.11 177.98 C 158.19 180.63 155.25 183.41 151.21 184.20 L 150.68 183.42 C 154.32 181.17 157.72 178.60 161.08 175.96 C 164.08 177.06 166.81 178.79 169.69 180.16 C 173.56 187.13 183.40 188.51 190.67 187.81 C 198.15 182.64 200.16 173.75 198.11 165.36 Z" />
</g>
<g id="#dbaf97ff">
<path fill="#dbaf97" opacity="1.00" d=" M 77.04 164.42 C 77.51 164.30 78.46 164.06 78.94 163.94 C 78.97 164.40 79.03 165.31 79.06 165.77 C 79.10 167.61 79.13 169.46 79.19 171.31 C 76.82 172.27 74.91 171.97 73.47 170.40 L 74.42 170.51 C 79.21 172.72 78.50 167.84 77.04 164.42 Z" />
</g>
<g id="#b94e09ff">
<path fill="#b94e09" opacity="1.00" d=" M 78.94 163.94 C 84.00 166.57 89.57 166.15 95.02 165.06 C 92.13 168.85 85.81 166.28 84.12 170.65 C 82.63 168.82 80.83 167.30 79.06 165.77 C 79.03 165.31 78.97 164.40 78.94 163.94 Z" />
</g>
<g id="#e26202ff">
<path fill="#e26202" opacity="1.00" d=" M 95.02 165.06 C 95.35 164.80 96.01 164.29 96.35 164.03 C 96.01 165.32 95.70 166.62 95.43 167.92 C 93.36 175.04 102.39 177.99 106.69 181.29 C 109.37 183.46 111.75 180.41 114.00 179.22 C 119.81 180.41 128.77 183.10 132.26 176.35 C 133.84 176.81 135.34 177.49 136.88 178.09 C 136.96 178.53 137.12 179.42 137.20 179.87 C 136.83 181.62 136.37 183.35 135.96 185.09 C 132.93 182.05 128.89 179.54 130.77 187.75 C 123.95 190.71 115.50 188.52 108.09 189.75 C 101.83 187.42 96.45 182.60 93.09 176.77 C 89.42 181.39 85.30 185.85 79.37 187.36 C 79.49 187.82 79.74 188.74 79.87 189.20 C 78.08 188.67 76.35 187.95 74.74 187.00 C 75.58 186.44 76.41 185.88 77.26 185.34 C 78.78 184.81 80.27 184.19 81.62 183.28 C 84.81 182.18 83.87 173.50 79.64 175.57 C 74.71 176.90 71.18 171.54 66.92 170.12 C 66.43 169.83 65.45 169.27 64.96 168.99 C 64.78 168.72 64.40 168.17 64.22 167.89 C 61.33 163.58 67.81 168.60 69.85 169.00 C 71.04 169.49 72.26 169.95 73.47 170.40 C 74.91 171.97 76.82 172.27 79.19 171.31 C 80.84 171.16 82.49 170.98 84.12 170.65 C 85.81 166.28 92.13 168.85 95.02 165.06 Z" />
</g>
<g id="#f6eeedff">
<path fill="#f6eeed" opacity="1.00" d=" M 74.42 170.51 C 75.24 168.46 75.94 166.35 77.04 164.42 C 78.50 167.84 79.21 172.72 74.42 170.51 Z" />
</g>
<g id="#7c0b0fff">
<path fill="#7c0b0f" opacity="1.00" d=" M 79.06 165.77 C 80.83 167.30 82.63 168.82 84.12 170.65 C 82.49 170.98 80.84 171.16 79.19 171.31 C 79.13 169.46 79.10 167.61 79.06 165.77 Z" />
</g>
<g id="#d27e86ff">
<path fill="#d27e86" opacity="1.00" d=" M 171.09 171.12 C 170.73 168.67 171.17 166.44 173.75 165.61 C 172.98 167.48 173.65 170.67 171.09 171.12 Z" />
</g>
<g id="#b30627ff">
<path fill="#b30627" opacity="1.00" d=" M 64.22 167.89 C 64.40 168.17 64.78 168.72 64.96 168.99 C 71.09 177.24 58.90 191.19 67.74 197.23 C 66.50 200.47 60.62 200.65 60.96 204.99 C 63.07 215.24 74.50 219.59 83.87 220.28 C 91.47 223.17 98.21 216.53 98.10 209.13 C 99.37 210.43 100.46 211.92 101.25 213.56 C 98.39 216.51 96.94 221.81 92.35 222.39 C 77.63 226.78 61.78 218.95 53.27 206.85 C 51.33 204.23 52.27 208.74 51.98 209.96 C 50.14 204.99 47.35 195.16 50.46 189.52 C 53.54 191.42 52.59 198.37 56.67 197.79 C 62.48 189.11 61.78 177.78 64.22 167.89 Z" />
</g>
<g id="#ef8007ff">
<path fill="#ef8007" opacity="1.00" d=" M 106.69 181.29 C 102.39 177.99 93.36 175.04 95.43 167.92 C 99.42 170.54 104.34 171.04 108.39 173.57 C 110.68 175.51 111.16 170.52 113.35 171.70 C 121.35 175.93 129.68 172.69 137.98 172.17 C 137.69 174.15 137.23 176.11 136.88 178.09 C 135.34 177.49 133.84 176.81 132.26 176.35 C 128.77 183.10 119.81 180.41 114.00 179.22 C 111.75 180.41 109.37 183.46 106.69 181.29 Z" />
</g>
<g id="#90060eff">
<path fill="#90060e" opacity="1.00" d=" M 64.96 168.99 C 65.45 169.27 66.43 169.83 66.92 170.12 C 68.93 172.26 70.95 174.41 72.72 176.76 C 70.38 179.63 69.79 183.40 68.93 186.90 C 68.29 190.31 68.10 193.79 67.74 197.23 C 58.90 191.19 71.09 177.24 64.96 168.99 Z" />
</g>
<g id="#c8390aff">
<path fill="#c8390a" opacity="1.00" d=" M 66.92 170.12 C 71.18 171.54 74.71 176.90 79.64 175.57 C 83.87 173.50 84.81 182.18 81.62 183.28 C 79.74 179.85 74.33 180.85 72.72 176.76 C 70.95 174.41 68.93 172.26 66.92 170.12 Z" />
</g>
<g id="#a62b00ff">
<path fill="#a62b00" opacity="1.00" d=" M 141.46 177.50 C 144.83 171.76 140.67 187.34 145.08 182.06 C 146.83 178.55 148.78 181.89 150.68 183.42 L 151.21 184.20 C 150.88 185.50 150.54 186.80 150.21 188.10 C 146.11 184.11 143.57 192.89 141.03 188.08 C 139.54 186.30 139.61 192.53 136.14 191.20 C 136.04 189.16 135.99 187.13 135.96 185.09 C 136.37 183.35 136.83 181.62 137.20 179.87 C 139.38 181.04 143.24 185.46 141.46 177.50 Z" />
</g>
<g id="#f7ebe9ff">
<path fill="#f7ebe9" opacity="1.00" d=" M 68.93 186.90 C 69.79 183.40 70.38 179.63 72.72 176.76 C 74.33 180.85 79.74 179.85 81.62 183.28 C 80.27 184.19 78.78 184.81 77.26 185.34 C 75.11 184.83 72.98 184.26 70.79 184.01 C 71.91 185.24 73.26 186.24 74.74 187.00 C 76.35 187.95 78.08 188.67 79.87 189.20 C 82.24 192.87 74.27 193.12 71.90 194.88 C 66.66 198.31 69.46 190.02 68.93 186.90 Z" />
</g>
<g id="#cc3c00ff">
<path fill="#cc3c00" opacity="1.00" d=" M 79.37 187.36 C 85.30 185.85 89.42 181.39 93.09 176.77 C 96.45 182.60 101.83 187.42 108.09 189.75 C 115.50 188.52 123.95 190.71 130.77 187.75 C 128.89 179.54 132.93 182.05 135.96 185.09 C 135.99 187.13 136.04 189.16 136.14 191.20 C 133.19 189.77 130.28 189.52 130.52 193.64 C 124.58 198.61 116.09 195.65 108.96 196.87 C 106.81 197.18 105.60 194.94 104.12 193.79 C 103.66 189.09 98.54 190.74 95.77 188.26 C 96.03 177.23 86.92 188.76 81.56 189.27 C 81.14 189.25 80.29 189.22 79.87 189.20 C 79.74 188.74 79.49 187.82 79.37 187.36 Z" />
</g>
<g id="#5e060eff">
<path fill="#5e060e" opacity="1.00" d=" M 190.87 191.92 C 198.33 189.93 201.68 182.47 205.90 176.79 C 205.99 180.42 205.91 184.04 205.78 187.67 C 204.34 190.04 204.28 195.11 201.85 195.65 C 201.85 194.99 201.84 193.69 201.83 193.03 C 193.75 193.50 185.80 195.35 177.81 196.58 C 175.80 196.28 173.95 193.75 173.74 191.67 C 179.45 191.69 185.15 192.10 190.87 191.92 Z" />
</g>
<g id="#5e0400ff">
<path fill="#5e0400" opacity="1.00" d=" M 151.21 184.20 C 155.25 183.41 158.19 180.63 161.11 177.98 C 165.05 179.08 173.14 184.75 169.12 188.78 C 168.31 189.71 167.83 190.83 167.68 192.14 C 164.41 190.92 163.33 186.63 160.05 185.93 C 157.36 188.46 153.07 190.21 152.00 193.99 C 148.74 204.95 137.08 217.62 124.92 214.57 C 120.43 209.89 125.16 207.59 129.67 206.67 C 134.04 200.38 141.61 198.02 146.89 192.90 C 149.45 192.45 150.31 190.55 150.21 188.10 C 150.54 186.80 150.88 185.50 151.21 184.20 Z" />
</g>
<g id="#820205ff">
<path fill="#820205" opacity="1.00" d=" M 81.56 189.27 C 86.92 188.76 96.03 177.23 95.77 188.26 C 97.35 192.42 98.91 196.57 100.26 200.81 C 105.58 202.83 97.50 189.78 104.12 193.79 C 103.98 196.49 104.92 199.02 105.84 201.51 C 104.69 209.16 104.42 219.91 96.01 223.08 C 97.61 220.14 103.13 217.33 101.25 213.56 C 100.46 211.92 99.37 210.43 98.10 209.13 C 93.96 205.30 88.90 202.69 84.20 199.63 C 84.86 196.81 87.36 199.56 89.01 200.00 C 91.73 202.20 97.02 199.83 96.04 196.12 C 93.55 194.75 90.88 193.80 88.27 192.71 C 89.53 190.94 91.08 189.26 91.14 186.95 C 88.59 189.63 84.43 194.03 81.56 189.27 Z" />
</g>
<g id="#ea9b4eff">
<path fill="#ea9b4e" opacity="1.00" d=" M 70.79 184.01 C 72.98 184.26 75.11 184.83 77.26 185.34 C 76.41 185.88 75.58 186.44 74.74 187.00 C 73.26 186.24 71.91 185.24 70.79 184.01 Z" />
</g>
<g id="#2f0203ff">
<path fill="#2f0203" opacity="1.00" d=" M 152.00 193.99 C 153.07 190.21 157.36 188.46 160.05 185.93 C 163.33 186.63 164.41 190.92 167.68 192.14 C 167.92 195.15 167.50 198.37 168.81 201.20 C 169.96 203.76 170.20 206.63 170.87 209.35 C 171.06 211.38 171.87 213.26 172.70 215.10 C 172.82 216.35 172.66 217.96 173.89 218.75 C 175.45 219.61 175.09 221.57 174.75 223.00 C 173.68 223.74 172.72 224.61 171.93 225.65 C 171.00 226.18 170.04 226.65 169.05 227.05 C 166.80 227.64 164.49 227.97 162.17 227.97 C 156.87 224.81 158.20 235.17 153.16 235.26 C 149.54 237.22 145.50 234.19 144.30 230.73 C 144.16 229.49 143.99 228.25 143.80 227.02 C 138.41 224.78 145.96 214.61 136.17 218.30 C 129.61 221.53 119.92 222.30 116.92 214.03 C 119.59 214.28 122.24 214.41 124.92 214.57 C 137.08 217.62 148.74 204.95 152.00 193.99 Z" />
</g>
<g id="#c70f31ff">
<path fill="#c70f31" opacity="1.00" d=" M 67.74 197.23 C 68.10 193.79 68.29 190.31 68.93 186.90 C 69.46 190.02 66.66 198.31 71.90 194.88 C 74.27 193.12 82.24 192.87 79.87 189.20 C 80.29 189.22 81.14 189.25 81.56 189.27 C 84.43 194.03 88.59 189.63 91.14 186.95 C 91.08 189.26 89.53 190.94 88.27 192.71 C 90.88 193.80 93.55 194.75 96.04 196.12 C 97.02 199.83 91.73 202.20 89.01 200.00 C 87.36 199.56 84.86 196.81 84.20 199.63 C 88.90 202.69 93.96 205.30 98.10 209.13 C 98.21 216.53 91.47 223.17 83.87 220.28 C 74.50 219.59 63.07 215.24 60.96 204.99 C 60.62 200.65 66.50 200.47 67.74 197.23 M 73.31 199.31 C 66.62 199.67 63.79 210.02 70.64 212.40 C 77.19 215.44 90.11 222.75 94.00 212.90 C 92.10 204.61 80.97 200.31 73.31 199.31 Z" />
</g>
<g id="#870f00ff">
<path fill="#870f00" opacity="1.00" d=" M 136.14 191.20 C 139.61 192.53 139.54 186.30 141.03 188.08 C 143.57 192.89 146.11 184.11 150.21 188.10 C 150.31 190.55 149.45 192.45 146.89 192.90 C 141.61 198.02 134.04 200.38 129.67 206.67 C 125.16 207.59 120.43 209.89 124.92 214.57 C 122.24 214.41 119.59 214.28 116.92 214.03 C 114.42 211.69 111.60 209.75 108.93 207.63 C 108.62 206.86 108.31 206.09 107.99 205.33 C 111.85 205.30 113.99 201.84 116.97 200.01 C 120.56 202.86 128.56 205.10 130.56 199.62 C 131.10 195.00 137.93 196.86 136.14 191.20 Z" />
</g>
<g id="#ad1400ff">
<path fill="#ad1400" opacity="1.00" d=" M 95.77 188.26 C 98.54 190.74 103.66 189.09 104.12 193.79 C 97.50 189.78 105.58 202.83 100.26 200.81 C 98.91 196.57 97.35 192.42 95.77 188.26 Z" />
</g>
<g id="#764f4fff">
<path fill="#764f4f" opacity="1.00" d=" M 167.68 192.14 C 167.83 190.83 168.31 189.71 169.12 188.78 C 169.04 192.91 168.94 197.05 168.81 201.20 C 167.50 198.37 167.92 195.15 167.68 192.14 Z" />
</g>
<g id="#ac2100ff">
<path fill="#ac2100" opacity="1.00" d=" M 130.52 193.64 C 130.28 189.52 133.19 189.77 136.14 191.20 C 137.93 196.86 131.10 195.00 130.56 199.62 C 128.56 205.10 120.56 202.86 116.97 200.01 C 113.99 201.84 111.85 205.30 107.99 205.33 C 107.27 204.06 106.57 202.78 105.84 201.51 C 104.92 199.02 103.98 196.49 104.12 193.79 C 105.60 194.94 106.81 197.18 108.96 196.87 C 116.09 195.65 124.58 198.61 130.52 193.64 Z" />
</g>
<g id="#230507ff">
<path fill="#230507" opacity="1.00" d=" M 177.81 196.58 C 185.80 195.35 193.75 193.50 201.83 193.03 C 201.84 193.69 201.85 194.99 201.85 195.65 C 200.74 197.76 199.96 200.05 198.64 202.04 C 197.83 203.15 197.07 204.36 196.99 205.77 C 196.98 207.28 194.97 207.42 193.92 208.00 C 190.94 207.99 187.99 208.02 185.03 207.98 C 180.50 206.22 179.57 200.66 177.81 196.58 Z" />
</g>
<g id="#d91439ff">
<path fill="#d91439" opacity="1.00" d=" M 73.31 199.31 C 80.97 200.31 92.10 204.61 94.00 212.90 C 90.11 222.75 77.19 215.44 70.64 212.40 C 63.79 210.02 66.62 199.67 73.31 199.31 Z" />
</g>
<g id="#69010aff">
<path fill="#69010a" opacity="1.00" d=" M 96.01 223.08 C 104.42 219.91 104.69 209.16 105.84 201.51 C 106.57 202.78 107.27 204.06 107.99 205.33 C 108.31 206.09 108.62 206.86 108.93 207.63 C 107.97 214.29 109.09 222.82 103.72 227.84 C 100.53 229.16 99.68 223.21 96.37 225.39 C 86.86 229.75 76.55 228.72 66.65 227.54 C 64.57 227.06 63.19 224.51 61.68 222.98 C 61.82 222.51 62.10 221.57 62.23 221.10 C 67.45 222.46 72.12 225.46 77.44 226.52 C 84.03 228.69 89.89 224.65 96.01 223.08 Z" />
</g>
<g id="#786667ff">
<path fill="#786667" opacity="1.00" d=" M 196.99 205.77 C 197.07 204.36 197.83 203.15 198.64 202.04 C 199.96 203.23 198.91 206.45 196.99 205.77 Z" />
</g>
<g id="#93061eff">
<path fill="#93061e" opacity="1.00" d=" M 51.98 209.96 C 52.27 208.74 51.33 204.23 53.27 206.85 C 61.78 218.95 77.63 226.78 92.35 222.39 C 96.94 221.81 98.39 216.51 101.25 213.56 C 103.13 217.33 97.61 220.14 96.01 223.08 C 89.89 224.65 84.03 228.69 77.44 226.52 C 72.12 225.46 67.45 222.46 62.23 221.10 C 62.10 221.57 61.82 222.51 61.68 222.98 C 59.15 218.11 54.20 214.93 51.98 209.96 Z" />
</g>
<g id="#4b070bff">
<path fill="#4b070b" opacity="1.00" d=" M 103.72 227.84 C 109.09 222.82 107.97 214.29 108.93 207.63 C 111.60 209.75 114.42 211.69 116.92 214.03 C 119.92 222.30 129.61 221.53 136.17 218.30 C 145.96 214.61 138.41 224.78 143.80 227.02 C 141.51 226.56 140.72 227.88 140.82 230.02 C 139.25 235.33 128.83 237.48 128.11 230.67 C 128.59 229.39 127.10 226.59 126.12 228.78 C 125.21 235.52 115.76 237.61 112.92 231.09 C 117.22 231.78 126.62 231.78 123.85 224.31 C 120.71 220.82 116.21 218.80 111.89 217.19 C 107.40 215.28 110.81 223.17 110.14 225.69 C 109.10 229.78 106.95 233.38 103.67 236.08 C 101.40 235.91 99.14 235.60 96.91 235.11 C 95.46 234.56 94.74 232.99 93.82 231.84 C 93.07 230.24 91.04 230.91 89.89 231.63 C 88.39 231.92 85.38 232.51 83.88 232.80 C 81.97 232.89 80.05 232.90 78.13 232.83 C 76.69 232.00 75.02 231.83 73.38 231.81 C 70.90 230.91 68.20 229.77 66.65 227.54 C 76.55 228.72 86.86 229.75 96.37 225.39 C 99.68 223.21 100.53 229.16 103.72 227.84 Z" />
</g>
<g id="#565454ff">
<path fill="#565454" opacity="1.00" d=" M 185.03 207.98 C 187.99 208.02 190.94 207.99 193.92 208.00 C 194.78 209.79 185.22 209.80 185.03 207.98 Z" />
</g>
<g id="#9f8e8eff">
<path fill="#9f8e8e" opacity="1.00" d=" M 170.87 209.35 C 173.23 209.57 173.75 213.29 172.70 215.10 C 171.87 213.26 171.06 211.38 170.87 209.35 Z" />
</g>
<g id="#795a5aff">
<path fill="#795a5a" opacity="1.00" d=" M 172.70 215.10 C 174.38 214.97 174.77 217.70 173.89 218.75 C 172.66 217.96 172.82 216.35 172.70 215.10 Z" />
</g>
<g id="#6e040eff">
<path fill="#6e040e" opacity="1.00" d=" M 110.14 225.69 C 110.81 223.17 107.40 215.28 111.89 217.19 C 116.21 218.80 120.71 220.82 123.85 224.31 C 126.62 231.78 117.22 231.78 112.92 231.09 C 110.76 230.60 110.98 227.41 110.14 225.69 Z" />
</g>
<g id="#6e6161ff">
<path fill="#6e6161" opacity="1.00" d=" M 171.93 225.65 C 172.72 224.61 173.68 223.74 174.75 223.00 C 176.09 224.60 173.46 227.08 171.93 225.65 Z" />
</g>
<g id="#b2a4a5ff">
<path fill="#b2a4a5" opacity="1.00" d=" M 140.82 230.02 C 140.72 227.88 141.51 226.56 143.80 227.02 C 143.99 228.25 144.16 229.49 144.30 230.73 C 142.21 230.77 143.54 226.13 140.82 230.02 Z" />
</g>
<g id="#675c5cff">
<path fill="#675c5c" opacity="1.00" d=" M 162.17 227.97 C 164.49 227.97 166.80 227.64 169.05 227.05 C 168.46 229.85 162.20 229.80 162.17 227.97 Z" />
</g>
<g id="#987677ff">
<path fill="#987677" opacity="1.00" d=" M 126.12 228.78 C 127.10 226.59 128.59 229.39 128.11 230.67 C 126.95 230.75 126.29 230.12 126.12 228.78 Z" />
</g>
<g id="#b3aeaeff">
<path fill="#b3aeae" opacity="1.00" d=" M 89.89 231.63 C 91.04 230.91 93.07 230.24 93.82 231.84 C 92.49 232.63 91.18 232.55 89.89 231.63 Z" />
</g>
<g id="#8d8586ff">
<path fill="#8d8586" opacity="1.00" d=" M 73.38 231.81 C 75.02 231.83 76.69 232.00 78.13 232.83 C 76.84 233.58 73.28 233.91 73.38 231.81 Z" />
</g>
<g id="#868383ff">
<path fill="#868383" opacity="1.00" d=" M 83.88 232.80 C 85.38 232.51 88.39 231.92 89.89 231.63 C 89.58 234.17 85.59 233.69 83.88 232.80 Z" />
</g>
<g id="#969595ff">
<path fill="#969595" opacity="1.00" d=" M 78.13 232.83 C 80.05 232.90 81.97 232.89 83.88 232.80 C 83.25 234.73 78.77 234.76 78.13 232.83 Z" />
</g>
<g id="#b9b8b8ff">
<path fill="#b9b8b8" opacity="1.00" d=" M 96.91 235.11 C 99.14 235.60 101.40 235.91 103.67 236.08 C 104.02 237.64 97.52 237.88 96.91 235.11 Z" />
</g>
</svg>
