<?xml version="1.0" encoding="UTF-8" ?>
<!DOCTYPE svg PUBLIC "-//W3C//DTD SVG 1.1//EN" "http://www.w3.org/Graphics/SVG/1.1/DTD/svg11.dtd">
<svg width="250pt" height="250pt" viewBox="0 0 250 250" version="1.1" xmlns="http://www.w3.org/2000/svg">
<g id="#ffffffff">
<path fill="#ffffff" opacity="1.00" d=" M 0.00 0.00 L 250.00 0.00 L 250.00 250.00 L 0.00 250.00 L 0.00 0.00 M 82.76 28.80 C 70.51 42.61 66.29 62.56 70.62 80.33 C 74.63 96.26 85.58 110.39 100.21 117.93 C 112.66 124.50 127.32 126.02 141.01 123.03 C 135.49 121.87 129.80 121.40 124.46 119.49 C 112.28 114.67 102.05 104.54 98.02 91.97 C 94.79 83.00 94.68 72.94 97.76 63.92 C 102.50 48.58 116.21 36.36 132.06 33.62 C 136.38 33.10 140.75 31.99 145.07 33.16 C 159.57 34.27 172.87 43.48 179.78 56.14 C 181.89 59.86 182.76 64.13 184.96 67.80 C 185.69 60.61 184.15 53.30 181.72 46.55 C 175.52 28.44 159.39 14.35 140.88 9.90 C 120.01 4.70 96.33 11.92 82.76 28.80 M 79.46 135.35 C 70.65 139.66 63.98 148.97 64.34 159.01 C 64.28 179.34 64.29 199.66 64.34 219.99 C 63.83 232.57 74.30 244.26 86.64 245.88 C 95.56 247.53 105.12 243.76 110.89 236.83 C 116.21 230.93 117.45 222.65 117.35 215.00 C 117.23 203.76 117.52 192.52 117.20 181.29 C 108.49 181.28 99.78 181.15 91.08 181.33 L 90.48 181.98 C 90.40 187.18 90.52 192.39 90.47 197.60 C 93.51 197.70 96.56 197.70 99.61 197.63 C 99.83 205.03 99.78 212.43 99.68 219.83 C 99.76 222.67 98.25 225.27 96.07 227.01 C 93.84 229.46 90.20 228.80 87.25 228.64 C 83.14 227.46 80.44 223.10 80.56 218.90 C 80.53 199.27 80.54 179.63 80.55 160.00 C 80.44 156.73 81.78 153.49 84.40 151.48 C 89.12 147.48 97.08 149.90 99.17 155.63 C 100.36 160.64 99.36 165.84 99.84 170.92 C 100.15 171.25 100.77 171.89 101.08 172.21 C 105.39 172.41 109.71 172.29 114.02 172.29 C 115.32 172.27 117.66 171.77 117.33 169.98 C 117.47 162.19 117.65 153.94 114.00 146.82 C 110.24 140.15 103.69 134.74 96.00 133.50 C 90.47 133.04 84.57 132.79 79.46 135.35 M 131.46 134.34 C 131.54 171.13 131.53 207.92 131.47 244.70 C 137.14 244.81 142.83 244.84 148.50 244.69 C 148.44 222.43 148.41 200.16 148.52 177.90 L 149.69 178.47 C 157.04 200.49 164.10 222.62 171.21 244.72 C 177.22 244.84 183.23 244.77 189.24 244.76 C 189.51 233.84 189.29 222.92 189.36 212.00 C 189.24 186.05 189.60 160.10 189.18 134.16 C 183.69 133.42 178.14 133.90 172.63 133.78 C 172.37 154.18 172.59 174.59 172.52 195.00 C 172.41 199.03 172.92 203.13 171.99 207.10 C 165.08 182.77 157.58 158.61 150.51 134.33 C 144.23 133.40 137.75 133.50 131.46 134.34 Z" />
</g>
<g id="#000000ff">
<path fill="#000000" opacity="1.00" d=" M 82.76 28.80 C 96.33 11.92 120.01 4.70 140.88 9.90 C 159.39 14.35 175.52 28.44 181.72 46.55 C 184.15 53.30 185.69 60.61 184.96 67.80 C 182.76 64.13 181.89 59.86 179.78 56.14 C 172.87 43.48 159.57 34.27 145.07 33.16 C 140.75 31.99 136.38 33.10 132.06 33.62 C 116.21 36.36 102.50 48.58 97.76 63.92 C 94.68 72.94 94.79 83.00 98.02 91.97 C 102.05 104.54 112.28 114.67 124.46 119.49 C 129.80 121.40 135.49 121.87 141.01 123.03 C 127.32 126.02 112.66 124.50 100.21 117.93 C 85.58 110.39 74.63 96.26 70.62 80.33 C 66.29 62.56 70.51 42.61 82.76 28.80 Z" />
<path fill="#000000" opacity="1.00" d=" M 79.46 135.35 C 84.57 132.79 90.47 133.04 96.00 133.50 C 103.69 134.74 110.24 140.15 114.00 146.82 C 117.65 153.94 117.47 162.19 117.33 169.98 C 117.66 171.77 115.32 172.27 114.02 172.29 C 109.71 172.29 105.39 172.41 101.08 172.21 C 100.77 171.89 100.15 171.25 99.84 170.92 C 99.36 165.84 100.36 160.64 99.17 155.63 C 97.08 149.90 89.12 147.48 84.40 151.48 C 81.78 153.49 80.44 156.73 80.55 160.00 C 80.54 179.63 80.53 199.27 80.56 218.90 C 80.44 223.10 83.14 227.46 87.25 228.64 C 90.20 228.80 93.84 229.46 96.07 227.01 C 98.25 225.27 99.76 222.67 99.68 219.83 C 99.78 212.43 99.83 205.03 99.61 197.63 C 96.56 197.70 93.51 197.70 90.47 197.60 C 90.52 192.39 90.40 187.18 90.48 181.98 L 91.08 181.33 C 99.78 181.15 108.49 181.28 117.20 181.29 C 117.52 192.52 117.23 203.76 117.35 215.00 C 117.45 222.65 116.21 230.93 110.89 236.83 C 105.12 243.76 95.56 247.53 86.64 245.88 C 74.30 244.26 63.83 232.57 64.34 219.99 C 64.29 199.66 64.28 179.34 64.34 159.01 C 63.98 148.97 70.65 139.66 79.46 135.35 Z" />
<path fill="#000000" opacity="1.00" d=" M 131.46 134.34 C 137.75 133.50 144.23 133.40 150.51 134.33 C 157.58 158.61 165.08 182.77 171.99 207.10 C 172.92 203.13 172.41 199.03 172.52 195.00 C 172.59 174.59 172.37 154.18 172.63 133.78 C 178.14 133.90 183.69 133.42 189.18 134.16 C 189.60 160.10 189.24 186.05 189.36 212.00 C 189.29 222.92 189.51 233.84 189.24 244.76 C 183.23 244.77 177.22 244.84 171.21 244.72 C 164.10 222.62 157.04 200.49 149.69 178.47 L 148.52 177.90 C 148.41 200.16 148.44 222.43 148.50 244.69 C 142.83 244.84 137.14 244.81 131.47 244.70 C 131.53 207.92 131.54 171.13 131.46 134.34 Z" />
</g>
</svg>
