<?xml version="1.0" encoding="utf-8"?>
<!-- Generator: Adobe Illustrator 26.0.3, SVG Export Plug-In . SVG Version: 6.00 Build 0)  -->
<svg version="1.1" id="Layer_1" xmlns="http://www.w3.org/2000/svg" xmlns:xlink="http://www.w3.org/1999/xlink" x="0px" y="0px"
	 viewBox="0 0 250 250" style="enable-background:new 0 0 250 250;" xml:space="preserve">
<g id="_x23_000000ff">
	<path d="M82.8,28.8C96.3,11.9,120,4.7,140.9,9.9c18.5,4.5,34.6,18.5,40.8,36.7c2.4,6.8,4,14.1,3.2,21.3c-2.2-3.7-3.1-7.9-5.2-11.7
		c-6.9-12.7-20.2-21.9-34.7-23c-4.3-1.2-8.7-0.1-13,0.5c-15.8,2.7-29.6,15-34.3,30.3c-3.1,9-3,19.1,0.3,28.1
		c4,12.6,14.3,22.7,26.4,27.5c5.3,1.9,11,2.4,16.5,3.5c-13.7,3-28.3,1.5-40.8-5.1c-14.6-7.5-25.6-21.7-29.6-37.6
		C66.3,62.6,70.5,42.6,82.8,28.8z"/>
	<path d="M79.5,135.4c5.1-2.6,11-2.3,16.5-1.9c7.7,1.2,14.2,6.6,18,13.3c3.7,7.1,3.5,15.4,3.3,23.2c0.3,1.8-2,2.3-3.3,2.3
		c-4.3,0-8.6,0.1-12.9-0.1c-0.3-0.3-0.9-1-1.2-1.3c-0.5-5.1,0.5-10.3-0.7-15.3c-2.1-5.7-10-8.2-14.8-4.2c-2.6,2-4,5.2-3.8,8.5
		c0,19.6,0,39.3,0,58.9c-0.1,4.2,2.6,8.6,6.7,9.7c2.9,0.2,6.6,0.8,8.8-1.6c2.2-1.7,3.7-4.3,3.6-7.2c0.1-7.4,0.2-14.8-0.1-22.2
		c-3.1,0.1-6.1,0.1-9.1,0c0-5.2-0.1-10.4,0-15.6l0.6-0.6c8.7-0.2,17.4-0.1,26.1,0c0.3,11.2,0,22.5,0.2,33.7
		c0.1,7.6-1.1,15.9-6.5,21.8c-5.8,6.9-15.3,10.7-24.2,9.1c-12.3-1.6-22.8-13.3-22.3-25.9c0-20.3-0.1-40.7,0-61
		C64,149,70.7,139.7,79.5,135.4z"/>
	<path d="M131.5,134.3c6.3-0.8,12.8-0.9,19,0c7.1,24.3,14.6,48.4,21.5,72.8c0.9-4,0.4-8.1,0.5-12.1c0.1-20.4-0.2-40.8,0.1-61.2
		c5.5,0.1,11.1-0.4,16.5,0.4c0.4,25.9,0.1,51.9,0.2,77.8c-0.1,10.9,0.1,21.8-0.1,32.8c-6,0-12,0.1-18,0
		c-7.1-22.1-14.2-44.2-21.5-66.2l-1.2-0.6c-0.1,22.3-0.1,44.5,0,66.8c-5.7,0.1-11.4,0.1-17,0C131.5,207.9,131.5,171.1,131.5,134.3z"
		/>
</g>
</svg>
