<?xml version="1.0" encoding="utf-8"?>
<!-- Generator: Adobe Illustrator 26.0.3, SVG Export Plug-In . SVG Version: 6.00 Build 0)  -->
<svg version="1.1" id="Layer_1" xmlns="http://www.w3.org/2000/svg" xmlns:xlink="http://www.w3.org/1999/xlink" x="0px" y="0px"
	 viewBox="0 0 250 249" style="enable-background:new 0 0 250 249;" xml:space="preserve">
<style type="text/css">
	.st0{fill:#B7D3EB;}
	.st1{fill:#12141D;}
	.st2{fill:#778099;}
	.st3{fill:#050707;}
	.st4{fill:#697089;}
	.st5{fill:#3D4758;}
	.st6{fill:#0F1723;}
	.st7{fill:#9DB6DB;}
	.st8{fill:#A8BFDF;}
	.st9{fill:#A8C0DF;}
	.st10{fill:#202126;}
	.st11{fill:#A0B6D8;}
	.st12{fill:#A1B7D8;}
	.st13{fill:#6DADDA;}
	.st14{fill:#A1D3ED;}
	.st15{fill:#BEDCF3;}
	.st16{fill:#84C9E6;}
	.st17{fill:#9AADD2;}
	.st18{fill:#8EA4C6;}
	.st19{fill:#889CC0;}
	.st20{fill:#2F3D49;}
	.st21{fill:#B7C8E0;}
	.st22{fill:#404E61;}
	.st23{fill:#3E4C5E;}
	.st24{fill:#49596F;}
	.st25{fill:#4D5C73;}
	.st26{fill:#1C1E29;}
	.st27{fill:#1C1F29;}
	.st28{fill:#040504;}
	.st29{fill:#54647E;}
	.st30{fill:#586985;}
	.st31{fill:#5E708E;}
	.st32{fill:#627393;}
	.st33{fill:#677A9C;}
	.st34{fill:#6A7DA0;}
	.st35{fill:#7185AB;}
	.st36{fill:#7286AD;}
	.st37{fill:#798EB7;}
	.st38{fill:#7D91B8;}
	.st39{fill:#2F3E57;}
	.st40{fill:#31405A;}
	.st41{fill:#93A1CB;}
	.st42{fill:#40455C;}
	.st43{fill:#51688B;}
	.st44{fill:#52698C;}
	.st45{fill:#7586AF;}
	.st46{fill:#050504;}
	.st47{fill:#435775;}
	.st48{fill:#3D3E3F;}
	.st49{fill:#455A79;}
</style>
<g id="_x23_b7d3ebff">
	<path class="st0" d="M124.3,0h1.3c13,8.4,26.7,15.6,40,23.4c4.3,2.7,8.8,5.2,13.2,7.7c6,3.5,12,7,17.9,10.6
		c1.4,0.8,2.9,1.7,4.3,2.4c3.1,1.9,6.3,3.6,9.6,5.3c-0.5,0.9-1,1.8-1.5,2.7c-0.5,0.3-1.5,0.8-2,1.1c-7.8,5.6-15.3,11.6-23.1,17.2
		c-19.8-11.1-39.2-22.7-59-33.7c-19.8,11-39.2,22.6-59,33.7c-7.8-5.6-15.3-11.6-23.1-17.2c-0.5-0.3-1.4-1-1.9-1.3
		c-0.6-0.8-1.2-1.6-1.8-2.5c3.2-1.7,6.5-3.4,9.6-5.3c1.5-0.8,2.9-1.6,4.4-2.5C59.1,38,65.1,34.5,71.1,31c4.4-2.5,8.9-5,13.2-7.7
		C97.7,15.6,111.4,8.4,124.3,0z"/>
</g>
<g id="_x23_12141dff">
	<path class="st1" d="M30,31c2.7-5,8.2-8.2,13.9-8.3c10-0.1,20,0,30-0.1c3.4,0,6.9-0.1,10.3,0.6C80,26,75.6,28.5,71.1,31
		c-7.4-0.4-14.8-0.5-22.2-0.2c-5.4,0.1-10.5,3.8-12.2,9c-1.5,7-0.6,14.1-0.8,21.2c-0.2,8.4,0.8,16.9-0.5,25.2
		c-2.6-1.9-5.1-4-7.7-5.9c0.1-12.8,0-25.5,0-38.3C27.9,38.2,28.1,34.3,30,31z"/>
	<path class="st1" d="M165.7,23.4c9.4-1.4,18.9-0.3,28.3-0.6c6.9,0.4,14.5-1.4,20.6,2.6c5,3,7.6,8.9,7.5,14.6
		c0.2,13.4-0.1,26.9,0.1,40.3c-2.6,2-5.1,4-7.7,5.9c-1.8-15.4,1-31.1-1.3-46.4c-1.7-5.1-6.8-8.9-12.2-8.9
		c-7.4-0.3-14.8-0.2-22.2,0.2C174.4,28.5,170,26,165.7,23.4z"/>
</g>
<g id="_x23_778099ff">
	<path class="st2" d="M36.8,39.8c1.7-5.1,6.8-8.8,12.2-9c7.4-0.3,14.8-0.2,22.2,0.2c-6,3.5-12,6.9-17.9,10.6
		c-0.6-0.3-1.8-0.8-2.3-1.1c-1,1.1-2.1,2.2-3.1,3.4l1,0.2c-3.2,1.8-6.4,3.6-9.6,5.3c0.6,0.8,1.2,1.7,1.8,2.5
		c-1.3-0.1-2.6-0.2-3.8-0.2C37,47.7,36.7,43.8,36.8,39.8z"/>
	<path class="st2" d="M178.9,31c7.4-0.4,14.8-0.5,22.2-0.2c5.4,0.1,10.5,3.8,12.2,8.9c0.1,3.8-0.2,7.7-0.7,11.5
		c-1.2,0.2-2.3,0.5-3.4,0.8c0.5-0.9,1-1.8,1.5-2.7c-3.2-1.7-6.4-3.4-9.6-5.3l1.2,0c-1-1.2-2.1-2.4-3.2-3.5c-0.6,0.3-1.7,0.8-2.3,1.1
		C190.9,38,184.9,34.5,178.9,31z"/>
</g>
<g id="_x23_050707ff">
	<path class="st3" d="M66,70.4c19.7-11.1,39.2-22.7,59-33.7c19.8,11,39.2,22.7,59,33.7c7.8-5.6,15.4-11.6,23.1-17.2
		c0.8,0.1,2.3,0.4,3.1,0.5c-1.2,3.3-4.2,5.4-6.5,7.9c-4.4,4.1-9.5,7.2-14.1,11c-2.1,1.4-4.3,3.9-7.1,2.9c-4.7-1.6-8.6-4.7-12.9-7.1
		C154.7,59.9,140,51,125,42.8c-16.1,8.7-31.8,18.2-47.8,27.3c-3.7,2-7.1,4.8-11.2,5.6c-2.6-0.5-4.6-2.5-6.7-4
		c-4.2-3.5-9-6.4-13-10.1c-2.4-2.5-5.3-4.6-6.5-7.9c0.8-0.1,2.3-0.3,3.1-0.4C50.7,58.8,58.2,64.8,66,70.4z"/>
</g>
<g id="_x23_697089ff">
	<path class="st4" d="M36,61c0.2-7.1-0.7-14.2,0.8-21.2c0,4,0.2,7.9,0.4,11.8c1.3,0.1,2.6,0.2,3.8,0.2c0.5,0.3,1.4,1,1.9,1.3
		c-0.8,0.1-2.3,0.3-3.1,0.4c1.2,3.3,4.2,5.5,6.5,7.9c-1,10.8-0.4,21.6-0.5,32.5c-3.4-2.7-6.9-5.2-10.4-7.8
		C36.8,77.9,35.7,69.4,36,61z"/>
	<path class="st4" d="M213.2,39.8c2.3,15.3-0.6,31,1.3,46.4c-3.5,2.6-7,5.1-10.4,7.8c-0.1-10.8,0.5-21.7-0.5-32.5
		c2.4-2.5,5.3-4.6,6.5-7.9c-0.8-0.1-2.3-0.4-3.1-0.5c0.5-0.3,1.5-0.8,2-1.1c1.1-0.3,2.3-0.5,3.4-0.8C213,47.5,213.3,43.6,213.2,39.8
		z"/>
</g>
<g id="_x23_3d4758ff">
	<path class="st5" d="M47.8,44c1-1.2,2-2.3,3.1-3.4c0.6,0.3,1.7,0.8,2.3,1.1c-1.5,0.9-2.9,1.7-4.4,2.5L47.8,44z"/>
	<path class="st5" d="M196.8,41.7c0.6-0.3,1.7-0.8,2.3-1.1c1.1,1.1,2.2,2.3,3.2,3.5l-1.2,0C199.7,43.3,198.2,42.5,196.8,41.7z"/>
</g>
<g id="_x23_0f1723ff">
	<path class="st6" d="M77.3,70.2c15.9-9.1,31.6-18.6,47.8-27.3c15,8.2,29.7,17.1,44.6,25.5c4.3,2.4,8.2,5.4,12.9,7.1
		c2.8,1.1,5-1.5,7.1-2.9c4.6-3.8,9.7-6.9,14.1-11c1,10.8,0.4,21.6,0.5,32.5c-0.7,0.6-1.4,1.1-2.2,1.7c-1.5,1.1-3,2.2-4.5,3.4
		c-0.3,6-0.1,12-0.1,18c-0.1,8.3,0,16.7,0,25c0,6.5-0.1,13.1,0.1,19.6c-1.4,0.5-2.8,0.9-4.2,1.4c-8.5-6-17.2-11.6-25.7-17.6
		c0.2-0.3,0.5-1,0.7-1.4c6.1-11.1,8.1-24.5,4.7-36.7c-3.7-15.4-15.6-28.4-30.4-34c-7.8-3.2-16.3-3.4-24.6-2.7
		c-19.4,2.5-36.3,17.8-40.9,36.7c-3.6,12.8-1.2,26.8,5.6,38.1c-0.4,0.3-1.3,0.9-1.7,1.2c-8.1,5.5-16.2,10.8-24.2,16.4
		c-1.4-0.4-2.8-0.9-4.2-1.4c0.1-6.6,0.1-13.1,0.1-19.6c0-7.7,0-15.3,0-23c0-6.7,0.2-13.3-0.1-20C51,98,49.5,96.8,48,95.7
		c-0.7-0.6-1.5-1.1-2.2-1.7c0.1-10.8-0.5-21.7,0.5-32.5c4,3.8,8.8,6.6,13,10.1c2.1,1.5,4.1,3.5,6.7,4C70.2,75,73.6,72.1,77.3,70.2z"
		/>
	<path class="st6" d="M110.2,167.2c9.8,3,20.4,2.8,30.2-0.2c3.1,7.1,8.4,12.8,12.7,19.2l0.4,0.5c-7.4,4.2-14.7,8.5-22.1,12.7
		c-4.2-0.5-8.5-0.5-12.8,0c-7.4-4.2-14.8-8.5-22.2-12.7l0.4-0.5C101.5,180,106.2,173.8,110.2,167.2z"/>
</g>
<g id="_x23_9db6dbff">
	<path class="st7" d="M77.1,107.4c4.6-19,21.6-34.2,40.9-36.7c8.3-0.7,16.8-0.5,24.6,2.7c14.8,5.6,26.6,18.6,30.4,34
		c3.4,12.2,1.4,25.7-4.7,36.7c-5.2,6.9-10.9,13.7-18.2,18.6c-0.4,0.2-1.2,0.7-1.6,0.9c-2.6,1.4-5.3,2.6-8.1,3.5
		c-9.8,3-20.4,3.2-30.2,0.2c-3-0.9-6-2.1-8.8-3.7c-0.4-0.2-1.2-0.7-1.6-0.9c-6.3-3.8-10.4-10.2-16.4-14.4c-0.9-0.6-1.7-1.1-2.6-1.7
		c0.4-0.3,1.3-0.9,1.7-1.2C75.8,134.1,73.5,120.1,77.1,107.4 M119.4,86.8c-11,2.3-21,9.9-25.1,20.5c-6.6,15,0.4,34,14.8,41.5
		c7,4.1,15.4,4.7,23.3,3.3c9.4-2.3,17.9-8.8,22.2-17.5c3.5-6.8,4.5-14.8,2.7-22.3C153.8,95.8,136.2,83.9,119.4,86.8z"/>
</g>
<g id="_x23_a8bfdfff">
	<path class="st8" d="M21.4,76c2.2,1.4,4.4,2.8,6.4,4.3c2.6,2,5.1,4,7.7,5.9c3.5,2.6,7,5.2,10.4,7.8c0.7,0.6,1.4,1.1,2.2,1.7
		c-2.6,10.2-1.5,20.9-4.1,31.2c-4.6,0.2-9.1,0.2-13.7-0.1c-2.3-11.5-1.5-23.4-4.3-34.7c-1.2,0-2.4,0-3.6,0C22,100,22,107.9,22,115.9
		c-0.1,9.3-0.5,18.7-0.2,28c-0.1,12-0.3,24.1-0.2,36.1c-1-4.9-0.4-10-0.5-15C21.2,135.3,21.2,105.6,21.4,76z"/>
</g>
<g id="_x23_a8c0dfff">
	<path class="st9" d="M222.2,80.3c2.1-1.5,4.2-2.9,6.4-4.3c0.3,33,0.1,66.1,0.3,99.1c-0.1,1.6-0.2,3.3-0.6,4.9
		c0.1-12.4-0.1-24.7-0.2-37.1c0.4-9.7-0.1-19.3-0.2-29c0-7.4,0.1-14.8-0.3-22.1c-1.1,0.2-2.2,0.4-3.3,0.7c-1.6,2.6-1.7,5.8-2.1,8.8
		c-0.6,6.9-1.2,13.8-2.5,20.6c-4.8,0.4-9.5,0.4-14.3-0.2c-1.7-8.6-1.4-17.4-3.5-26c0.7-0.6,1.4-1.1,2.2-1.7
		c3.4-2.7,6.9-5.2,10.4-7.8C217.1,84.3,219.6,82.2,222.2,80.3z"/>
</g>
<g id="_x23_202126ff">
	<path class="st10" d="M119.4,86.8c16.7-3,34.3,9,37.9,25.5c1.7,7.5,0.8,15.5-2.7,22.3c-4.3,8.8-12.8,15.2-22.2,17.5
		c-7.8,1.3-16.3,0.7-23.3-3.3c-14.5-7.5-21.5-26.6-14.8-41.5C98.5,96.8,108.4,89.2,119.4,86.8 M118.3,95.3
		c-10.4,2.8-18.4,12.8-18.7,23.6c-0.3,6.8,2.5,13.4,7.1,18.3c4.7,5,11.5,7.7,18.3,7.9c6.3-0.2,12.7-2.6,17.3-6.9
		c5.8-5.4,8.8-13.5,8-21.4c-1-8.2-6.2-15.8-13.6-19.6C131.1,94.3,124.4,93.8,118.3,95.3z"/>
</g>
<g id="_x23_a0b6d8ff">
	<path class="st11" d="M22.3,92.1c1.2,0,2.4,0,3.6,0c2.9,11.4,2.1,23.2,4.3,34.7c4.6,0.3,9.1,0.3,13.7,0.1
		c2.5-10.2,1.5-20.9,4.1-31.2c1.5,1.1,3,2.2,4.6,3.3c0.3,6.7,0.1,13.3,0.1,20c-1.3-1-2.5-2.1-3.8-3.1c-2,6.5-2,13.4-2.6,20.1
		c-0.5,7.9-1.2,15.7-1.6,23.6c-4.8,0.4-9.6,0.5-14.3,0.2c-2.4-14.4-1.4-29.2-4.4-43.5c-1.3-0.1-2.6-0.3-3.9-0.4
		C22,107.9,22,100,22.3,92.1z"/>
</g>
<g id="_x23_a1b7d8ff">
	<path class="st12" d="M224.4,92.4c1.1-0.3,2.2-0.5,3.3-0.7c0.3,7.4,0.2,14.8,0.3,22.1c-1.3,0.1-2.6,0.2-4,0.3
		c-1.1,5.2-1.6,10.5-1.9,15.8c-0.5,9.7-1.7,19.2-2.4,28.9c-4.5,0.2-9.1,0.2-13.6,0c-2.8-14.8-1.3-30.2-5-44.9c-1.3,1-2.5,2-3.8,3.1
		c0-6-0.1-12,0.1-18c1.5-1.1,3-2.2,4.5-3.4c2.1,8.5,1.8,17.4,3.5,26c4.7,0.5,9.5,0.5,14.3,0.2c1.4-6.8,1.9-13.7,2.5-20.6
		C222.7,98.3,222.8,95.1,224.4,92.4z"/>
</g>
<g id="_x23_6daddaff">
	<path class="st13" d="M118.3,95.3c6.1-1.6,12.8-1,18.4,2c7.4,3.8,12.6,11.4,13.6,19.6c0.8,7.8-2.2,16-8,21.4
		c-4.6,4.4-11,6.7-17.3,6.9c-6.8-0.2-13.6-3-18.3-7.9c-4.6-4.9-7.4-11.6-7.1-18.3C99.9,108.2,107.9,98.1,118.3,95.3 M119,101.7
		c-4.2,1.6-8,4.4-10.3,8.3c-2.5,3.6-2.5,7.9-2.7,12.1c1.3,9.1,9.7,16.8,19.1,16.7c7.4,0.1,14.2-4.8,17.4-11.3
		c4.2-9.5-0.6-21.9-10.4-25.5C127.7,100.9,123.2,100.2,119,101.7z"/>
</g>
<g id="_x23_a1d3edff">
	<path class="st14" d="M119,101.7c4.2-1.4,8.8-0.8,13,0.4c1.9,4,4,8.3,2.9,12.8c-1.4,7.7-9,13.4-16.7,13.1
		c-4.6-0.4-8.5-3.2-12.2-5.8c0.2-4.2,0.2-8.5,2.7-12.1c0.5,4.3,1.7,9.5,6.3,11.1c6.5,3.2,15.3-2.6,14.1-10
		C129.1,105.6,124,102,119,101.7z"/>
</g>
<g id="_x23_bedcf3ff">
	<path class="st15" d="M108.6,110c2.3-3.9,6.1-6.8,10.3-8.3c5,0.3,10.1,3.9,10,9.4c1.2,7.4-7.6,13.3-14.1,10
		C110.3,119.5,109.1,114.3,108.6,110z"/>
</g>
<g id="_x23_84c9e6ff">
	<path class="st16" d="M131.9,102c9.9,3.6,14.6,16,10.4,25.5c-3.2,6.5-10,11.4-17.4,11.3c-9.3,0.1-17.7-7.5-19.1-16.7
		c3.7,2.6,7.5,5.5,12.2,5.8c7.7,0.3,15.4-5.4,16.7-13.1C135.9,110.3,133.8,106,131.9,102z"/>
</g>
<g id="_x23_9aadd2ff">
	<path class="st17" d="M197.3,117c1.3-1,2.5-2,3.8-3.1c3.7,14.7,2.2,30.1,5,44.9c4.5,0.2,9.1,0.2,13.6,0c0.7-9.6,1.9-19.2,2.4-28.9
		c0.3-5.3,0.8-10.6,1.9-15.8c1.3-0.1,2.6-0.2,4-0.3c0.1,9.7,0.6,19.3,0.2,29c-1.3,0.2-2.6,0.3-3.9,0.5c-1.4,8.8-2.1,17.8-2.2,26.7
		c-0.2,2.1,0.2,4.9-1.8,6.2c-3.1,1.9-6.8,2.2-10.2,3c-1.3-0.9-2.6-1.8-3.9-2.8c0.5-1.1,1-2.1,1.4-3.2c-2.1-2.4-4.9-4.1-7.5-5.9
		c1.5-1.4,3.9-2.6,3.4-5.1c-0.3-7.5-0.4-15.2-2.1-22.6c-1.4,0.8-2.7,1.5-4,2.2C197.4,133.7,197.3,125.3,197.3,117z"/>
	<path class="st17" d="M22,115.9c1.3,0.1,2.6,0.3,3.9,0.4c3,14.3,2,29.1,4.4,43.5c4.8,0.3,9.6,0.3,14.3-0.2
		c0.4-7.9,1.2-15.7,1.6-23.6c0.6-6.7,0.6-13.6,2.6-20.1c1.2,1,2.5,2,3.8,3.1c0,7.7,0,15.3,0,23c-1.4-0.7-2.7-1.5-4-2.2
		c-1.6,7.4-1.7,15-2.1,22.6c-0.5,2.4,1.9,3.6,3.4,5c-2.9,1.7-5.5,3.8-7.9,6.3c0.7,0.9,1.3,1.8,1.9,2.7c-1.3,0.9-2.6,1.9-3.9,2.9
		c-4.1-1.2-11.4-0.7-12-6.3c-0.5-9.6-0.8-19.1-2.4-28.6c-1.3-0.2-2.6-0.3-3.9-0.5C21.5,134.6,21.9,125.2,22,115.9z"/>
</g>
<g id="_x23_8ea4c6ff">
	<path class="st18" d="M46.5,162.4c0.4-7.5,0.5-15.1,2.1-22.6c1.3,0.7,2.7,1.5,4,2.2c0,6.6,0.1,13.1-0.1,19.6
		c1.4,0.5,2.8,0.9,4.2,1.4c-2.2,1.5-4.5,3-6.8,4.4C48.4,166,46.1,164.8,46.5,162.4z"/>
	<path class="st18" d="M197.4,142c1.3-0.7,2.7-1.5,4-2.2c1.6,7.4,1.7,15,2.1,22.6c0.5,2.4-1.9,3.7-3.4,5.1c-2.3-1.4-4.6-2.9-6.8-4.4
		c1.4-0.4,2.8-0.9,4.2-1.4C197.3,155.1,197.3,148.6,197.4,142z"/>
</g>
<g id="_x23_889cc0ff">
	<path class="st19" d="M224.2,143.4c1.3-0.1,2.6-0.3,3.9-0.5c0.1,12.4,0.3,24.7,0.2,37.1c-1.6,1.1-3.2,2.1-4.9,3.1
		c8.3,6.7,18.1,11.4,25.9,18.7c-2.8-0.1-5.9,0.7-8.3-0.9c-7.9-5-14.8-11.4-22.8-16.2c-2.5-1.6-5-3.2-7.5-5l-0.7-0.5
		c3.4-0.8,7.1-1.1,10.2-3c2-1.4,1.6-4.2,1.8-6.2C222.1,161.1,222.9,152.2,224.2,143.4z"/>
	<path class="st19" d="M21.9,143.9c1.3,0.2,2.6,0.3,3.9,0.5c1.6,9.4,1.9,19,2.4,28.6c0.6,5.6,7.8,5.1,12,6.3
		c-0.9,0.6-1.7,1.2-2.6,1.9c-1.9,1.3-3.8,2.5-5.7,3.7c-8.1,4.7-15,11.2-22.9,16.2c-2.5,1.7-5.6,0.8-8.3,0.9
		c7.8-7.2,17.6-12,25.9-18.7c-1.6-1-3.2-2-4.9-3.1C21.6,168,21.8,155.9,21.9,143.9z"/>
</g>
<g id="_x23_2f3d49ff">
	<path class="st20" d="M150.1,162.6c7.3-4.8,12.9-11.6,18.2-18.6c-0.2,0.4-0.5,1.1-0.7,1.4c-0.3,0.7-1,2.1-1.4,2.8
		c3.4,2.7,6.9,5.2,10.4,7.6c-4.6,6.9-11.8,11.4-16.3,18.3C156.9,170.3,154.9,165,150.1,162.6z"/>
	<path class="st20" d="M83.5,148.3c6,4.2,10,10.6,16.4,14.4c-5.4,2.8-7.5,8.9-11.3,13.3c-1.8-8.9-12.4-11.8-15.3-20.1
		C76.8,153.5,80.3,151.1,83.5,148.3z"/>
</g>
<g id="_x23_b7c8e0ff">
	<path class="st21" d="M166.2,148.2c0.3-0.7,1-2.1,1.4-2.8c8.5,5.9,17.2,11.6,25.7,17.6c2.2,1.5,4.5,3,6.8,4.4
		c2.7,1.7,5.4,3.4,7.5,5.9c-0.4,1.1-0.9,2.2-1.4,3.2c-0.8-0.6-1.7-1.2-2.5-1.7c-2.4-1.6-4.7-3.2-7.1-4.9c-2.3-1.6-4.7-3.3-7-4.9
		c-2.3-1.6-4.7-3.3-7-4.9c-2-1.4-4-2.8-5.9-4.1C173.1,153.4,169.6,150.9,166.2,148.2z"/>
	<path class="st21" d="M56.8,163c8-5.6,16.1-11,24.2-16.4c0.9,0.6,1.7,1.1,2.6,1.7c-3.2,2.8-6.8,5.2-10.3,7.6c-2.9,2-5.7,4-8.5,6.1
		c-2.4,1.7-4.7,3.3-7.1,5c-2.4,1.6-4.7,3.3-7,4.9c-2,1.4-4.1,2.8-6.1,4.2l-0.5,0.3c-0.7-0.9-1.3-1.8-1.9-2.7
		c2.3-2.4,4.9-4.6,7.9-6.3C52.2,166,54.5,164.6,56.8,163z"/>
</g>
<g id="_x23_404e61ff">
	<path class="st22" d="M64.7,162c2.8-2,5.6-4.1,8.5-6.1c3,8.2,13.5,11.2,15.3,20.1c-1.7,2.1-3.4,4.1-5,6.2
		C78.3,174.6,70.7,169,64.7,162z"/>
</g>
<g id="_x23_3e4c5eff">
	<path class="st23" d="M176.6,155.9c2,1.4,4,2.8,5.9,4.1c-3.7,8.5-13.4,12.4-17.1,21.1c-1.7-2.3-3.4-4.6-5.2-6.9
		C164.8,167.3,172.1,162.8,176.6,155.9z"/>
</g>
<g id="_x23_49596fff">
	<path class="st24" d="M182.6,160c2.3,1.6,4.7,3.3,7,4.9c-4.2,9.3-14.9,13.6-19,22.9c-1.7-2.2-3.4-4.5-5.1-6.8
		C169.1,172.5,178.8,168.6,182.6,160z"/>
</g>
<g id="_x23_4d5c73ff">
	<path class="st25" d="M57.6,166.9c2.4-1.7,4.7-3.3,7.1-5c6,7,13.6,12.6,18.8,20.2c-1.6,2.1-3.2,4.3-4.4,6.7
		c-0.4,0.3-1.2,0.9-1.6,1.1c-0.9-1.9-1.8-3.8-3.2-5.3C68.7,178.8,62.2,173.8,57.6,166.9z"/>
</g>
<g id="_x23_1c1e29ff">
	<path class="st26" d="M88.6,176c3.8-4.4,5.9-10.6,11.3-13.3c0.4,0.2,1.2,0.7,1.6,0.9c-3.9,6.3-8.8,11.9-12.2,18.5
		c1.6,2.6,4.8,3.2,7.5,4.2l-0.4,0.5c-1.9,2.3-3.8,4.6-5.4,7.1c-2.5,4.3-5.4,8.5-8.7,12.2c-1.8,2-3.3,4.2-3.9,6.8
		c-2.8-1.7-5.5-3.5-8.4-5c3.9-5.8,8.7-11.6,9.1-19c1.2-2.4,2.8-4.6,4.4-6.7C85.2,180.1,86.9,178.1,88.6,176z"/>
</g>
<g id="_x23_1c1f29ff">
	<path class="st27" d="M148.5,163.5c0.4-0.2,1.2-0.7,1.6-0.9c4.8,2.4,6.8,7.7,10.2,11.6c1.7,2.3,3.4,4.6,5.2,6.9
		c1.7,2.2,3.4,4.5,5.1,6.8c0.8,1,1.6,2,2.4,3c-0.7,6.5,3.5,11.8,6.9,16.9c-2.7,1.5-5.3,3-7.9,4.7c-1.3-2.3-2.7-4.4-4.3-6.4
		c-3.8-4.6-7.1-9.6-10.5-14.4c-1.2-1.7-2.4-3.3-3.7-4.9l-0.4-0.5c2.7-1,5.9-1.6,7.6-4.2C157.3,175.5,152.4,169.9,148.5,163.5z"/>
</g>
<g id="_x23_040504ff">
	<path class="st28" d="M101.5,163.6c2.8,1.5,5.7,2.7,8.8,3.7c-4.1,6.6-8.8,12.8-13.5,19c-2.7-0.9-5.9-1.6-7.5-4.2
		C92.7,175.5,97.6,169.9,101.5,163.6z"/>
	<path class="st28" d="M140.5,167c2.8-0.9,5.5-2.1,8.1-3.5c3.8,6.3,8.8,12,12.2,18.5c-1.7,2.6-4.9,3.2-7.6,4.2
		C148.9,179.8,143.6,174.1,140.5,167z"/>
</g>
<g id="_x23_54647eff">
	<path class="st29" d="M189.6,165c2.3,1.6,4.7,3.3,7,4.9c-5.8,9-16,14.4-21,24c-0.9-1-1.7-2-2.6-3c-0.8-1-1.7-2-2.4-3
		C174.7,178.6,185.4,174.3,189.6,165z"/>
</g>
<g id="_x23_586985ff">
	<path class="st30" d="M50.6,171.9c2.4-1.6,4.7-3.3,7-4.9c4.5,6.8,11.1,11.9,16.6,17.8c1.4,1.5,2.3,3.5,3.2,5.3
		c-1.8,1.8-3.4,3.9-5,6C66.3,187.1,56.7,181,50.6,171.9z"/>
</g>
<g id="_x23_5e708eff">
	<path class="st31" d="M196.6,169.9c2.4,1.6,4.7,3.3,7.1,4.9c-6.6,9.4-16.7,15.8-23.1,25.4c-1.6-2.1-3.2-4.2-4.9-6.3
		C180.5,184.3,190.7,178.9,196.6,169.9z"/>
</g>
<g id="_x23_627393ff">
	<path class="st32" d="M44.5,176c2-1.4,4.1-2.8,6.1-4.2c6.1,9.2,15.7,15.2,22,24.2c-1.7,2.3-3.5,4.7-5.2,7
		c-2.6-6.2-8.1-10.1-12.6-14.9C51.1,184.4,46.5,181.1,44.5,176z"/>
</g>
<g id="_x23_677a9cff">
	<path class="st33" d="M203.7,174.8c0.8,0.6,1.7,1.2,2.5,1.7c1.3,0.9,2.6,1.9,3.9,2.8l0.7,0.5c0,2.1-0.1,4.5-2,6
		c-6,6-12.1,12-18.1,17.9c-1.8,1.6-2.5,3.9-3,6.1c-2.4-3.2-4.8-6.4-7.2-9.7C187,190.6,197.1,184.2,203.7,174.8z"/>
</g>
<g id="_x23_6a7da0ff">
	<path class="st34" d="M44,176.4l0.5-0.3c2,5.1,6.6,8.4,10.3,12.2c4.5,4.7,10,8.7,12.6,14.9c-2,2.6-3.9,5.2-5.9,7.8
		c-0.6-2.2-1.4-4.6-3.1-6.2c-3.8-3.8-7.8-7.6-11.5-11.4c-3.5-3.7-8.3-6.8-9.3-12.2c0.9-0.6,1.8-1.2,2.6-1.9
		C41.4,178.3,42.7,177.3,44,176.4z"/>
</g>
<g id="_x23_7185abff">
	<path class="st35" d="M210.7,179.8c2.4,1.7,5,3.3,7.5,5c1.1,1.7,2.1,3.4,3.1,5.2c-8.5,9.7-18.7,17.9-26.9,27.9l-0.3,0.6
		c-2-3-4.2-5.8-6.4-8.6c0.5-2.2,1.2-4.6,3-6.1c6-6,12.1-11.9,18.1-17.9C210.6,184.3,210.7,181.9,210.7,179.8z"/>
</g>
<g id="_x23_7286adff">
	<path class="st36" d="M31.8,184.8c1.9-1.2,3.8-2.4,5.7-3.7c1,5.4,5.8,8.5,9.3,12.2c3.8,3.9,7.7,7.6,11.5,11.4
		c1.8,1.6,2.5,4,3.1,6.2c-1.3,1.7-2.6,3.3-3.9,4.9c-1.1,1.3-2.1,2.6-3.2,4c-1.1-2.5-2.6-4.8-4.6-6.6c-5.7-5.3-11-11-16.6-16.4
		c-1.9-1.8-3.8-3.6-5.2-5.9C28.8,188.6,30.3,186.6,31.8,184.8z"/>
</g>
<g id="_x23_798eb7ff">
	<path class="st37" d="M8.9,200.9c7.9-5,14.8-11.4,22.9-16.2c-1.5,1.9-3,3.9-3.8,6.1c1.4,2.2,3.3,4.1,5.2,5.9
		c5.6,5.4,11,11,16.6,16.4c2,1.8,3.5,4.2,4.6,6.6c-4.3,5.1-7.6,11-12.5,15.6c-4.8-1.9-8.1-6.1-11.9-9.4c-3.5-3.2-6.9-6.4-10.3-9.8
		c-4.2-4.2-9.1-7.8-12.3-12.9c-2.5-0.2-4.9-0.3-7.4-0.4v-0.6l0.6-0.6C3.4,201.8,6.5,202.6,8.9,200.9z"/>
	<path class="st37" d="M218.2,184.8c8,4.8,14.9,11.2,22.8,16.2c2.5,1.6,5.6,0.8,8.3,0.9l0.6,0.6v0.6c-2.5,0-5,0.1-7.4,0.3
		c-2.8,4.5-7,7.8-10.8,11.4c-6.8,6.9-14.3,13.2-21,20.1c-1.9,0.1-3.9,0-5-1.7c-4-4.9-7.7-10.2-11.4-15.4c8.2-10,18.3-18.2,26.9-27.9
		C220.3,188.2,219.3,186.4,218.2,184.8z"/>
</g>
<g id="_x23_7d91b8ff">
	<path class="st38" d="M91,193.8c1.6-2.5,3.5-4.8,5.4-7.1c7.4,4.2,14.8,8.5,22.2,12.7c2.1,1.2,4.1,2.6,6.4,3.4
		c2.3-0.8,4.3-2.2,6.4-3.4c7.4-4.2,14.7-8.5,22.1-12.7c1.2,1.6,2.5,3.2,3.7,4.9c-11.1,5.7-21.2,12.9-32.2,18.8
		c-9.3-5-18.1-10.8-27.2-16.1C95.8,192.7,93.3,193.2,91,193.8z"/>
</g>
<g id="_x23_2f3e57ff">
	<path class="st39" d="M77.5,190c0.4-0.3,1.2-0.9,1.6-1.1c-0.4,7.3-5.2,13.1-9.1,19c-2.1,3-4.1,6-6.2,9c-1.8,2.5-3.7,4.9-5.7,7.3
		c-0.3-2.8-0.5-5.5-0.6-8.2c1.3-1.6,2.6-3.3,3.9-4.9c2-2.6,3.9-5.2,5.9-7.8c1.8-2.3,3.5-4.7,5.2-7C74.1,194,75.7,191.9,77.5,190z"/>
</g>
<g id="_x23_31405aff">
	<path class="st40" d="M173,190.9c0.9,1,1.7,2,2.6,3c1.7,2,3.4,4.1,4.9,6.3c2.4,3.2,4.7,6.5,7.2,9.7c2.2,2.8,4.4,5.6,6.4,8.6
		c0.3,2.9,0.1,5.8-0.3,8.7c-2.8-3.3-5.4-6.7-7.7-10.3c-2-3.1-4.1-6-6.2-9C176.5,202.7,172.3,197.4,173,190.9z"/>
</g>
<g id="_x23_93a1cbff">
	<path class="st41" d="M125,210.4c10.9-5.9,21.1-13.1,32.2-18.8c3.5,4.8,6.7,9.8,10.5,14.4c-3.3,4.2-8.5,6.2-13,8.8
		c-7.9,4.4-15.9,8.8-23.6,13.4c-1.9,1.1-3.9,2.3-6.1,2.8c-2.2-0.4-4.2-1.7-6.1-2.8c-7.8-4.6-15.7-9-23.6-13.4
		c-4.5-2.6-9.6-4.5-12.9-8.8c3.3-3.8,6.2-7.9,8.7-12.2c2.3-0.6,4.8-1,6.8,0.4C106.9,199.5,115.7,205.3,125,210.4z"/>
</g>
<g id="_x23_40455cff">
	<path class="st42" d="M118.6,199.4c4.2-0.5,8.5-0.5,12.8,0c-2.1,1.2-4.1,2.6-6.4,3.4C122.7,202,120.7,200.6,118.6,199.4z"/>
</g>
<g id="_x23_51688bff">
	<path class="st43" d="M0,203c2.5,0.1,4.9,0.2,7.4,0.4c3.2,5.1,8.2,8.6,12.3,12.9c3.4,3.3,6.8,6.6,10.3,9.8c3.8,3.4,7,7.5,11.9,9.4
		c-0.6,0.6-1.2,1.1-1.9,1.7c1.2,2.1,2.4,4.2,3.7,6.2c-2.5-0.6-5.4-0.8-7.3-2.8c-10-9-19.9-18.1-30-27.1c-2.3-2.1-4.6-4.2-6.5-6.7
		V203z"/>
</g>
<g id="_x23_52698cff">
	<path class="st44" d="M242.6,203.3c2.5-0.1,5-0.2,7.4-0.3v3.8c-1.6,2.1-3.5,4-5.4,5.8c-9.7,8.7-19.3,17.3-28.9,26.1
		c-2.5,2.7-5.9,4.9-9.8,4c4.1-1.1,6.8-4.4,8.5-8c-1.2,0.1-2.4,0.1-3.6,0.2c6.7-7,14.2-13.2,21-20.1
		C235.6,211.1,239.8,207.8,242.6,203.3z"/>
</g>
<g id="_x23_7586afff">
	<path class="st45" d="M78.4,212.9c0.6-2.6,2.2-4.9,3.9-6.8c3.3,4.2,8.4,6.2,12.9,8.8c7.9,4.4,15.8,8.8,23.6,13.4
		c1.9,1.1,3.9,2.3,6.1,2.8c2.2-0.4,4.1-1.7,6.1-2.8c7.8-4.6,15.7-9,23.6-13.4c4.5-2.6,9.7-4.5,13-8.8c1.6,2,3.1,4.2,4.3,6.4
		c-2.4,1.5-4.8,2.9-7.2,4.3c-13.4,7.4-26.4,15.4-39.8,22.8c-13.4-7.4-26.4-15.4-39.8-22.8C82.9,215.5,80.6,214.2,78.4,212.9z"/>
</g>
<g id="_x23_050504ff">
	<path class="st46" d="M70,207.9c2.9,1.5,5.6,3.3,8.4,5c2.2,1.3,4.5,2.6,6.8,3.9c-3.4-0.1-6.8,0-10.2,0c-3.7,0.1-7.4,0.1-11.1,0.1
		C65.9,213.8,67.9,210.8,70,207.9z"/>
	<path class="st46" d="M172,212.4c2.6-1.6,5.2-3.2,7.9-4.7c2.1,3,4.2,6,6.2,9c-3.4,0.1-6.9,0.1-10.3,0c-3.7-0.1-7.4-0.2-11-0.1
		C167.3,215.4,169.7,213.9,172,212.4z"/>
</g>
<g id="_x23_435775ff">
	<path class="st47" d="M54.4,219.8c1-1.3,2.1-2.6,3.2-4c0.1,2.8,0.3,5.5,0.6,8.2c-4.9,6.4-8.8,13.4-13.8,19.6l-0.7-0.4
		c-1.3-2-2.5-4.1-3.7-6.2c0.6-0.6,1.2-1.1,1.9-1.7C46.8,230.9,50.1,224.9,54.4,219.8z"/>
</g>
<g id="_x23_3d3e3fff">
	<path class="st48" d="M58.2,224.1c1.9-2.4,3.9-4.8,5.7-7.3c3.7,0,7.4,0,11.1-0.1c-7.5,8.7-13.1,18.9-20.6,27.6
		c-2.9,3.3-7,1.5-10-0.6C49.4,237.5,53.3,230.5,58.2,224.1z"/>
	<path class="st48" d="M175.9,216.8c3.4,0.1,6.9,0.1,10.3,0c2.3,3.6,4.9,7,7.7,10.3c3,3.7,5.3,7.9,7.9,11.9c-1.8,1-3.6,2.7-5.8,2.3
		c-3.4-0.4-5.4-3.6-7.2-6.1C184.6,229,180,223.1,175.9,216.8z"/>
</g>
<g id="_x23_455a79ff">
	<path class="st49" d="M194.2,218.4l0.3-0.6c3.6,5.2,7.3,10.5,11.4,15.4c1.1,1.8,3.1,1.8,5,1.7c1.2-0.1,2.4-0.1,3.6-0.2
		c-1.8,3.7-4.4,6.9-8.5,8c-1.4-1.2-2.8-2.4-4.1-3.7c-2.6-4-4.9-8.2-7.9-11.9C194.3,224.3,194.4,221.3,194.2,218.4z"/>
</g>
</svg>
