<?xml version="1.0" encoding="UTF-8" ?>
<!DOCTYPE svg PUBLIC "-//W3C//DTD SVG 1.1//EN" "http://www.w3.org/Graphics/SVG/1.1/DTD/svg11.dtd">
<svg width="250pt" height="249pt" viewBox="0 0 250 249" version="1.1" xmlns="http://www.w3.org/2000/svg">
<g id="#ffffffff">
<path fill="#ffffff" opacity="1.00" d=" M 0.00 0.00 L 124.35 0.00 C 111.37 8.37 97.68 15.60 84.33 23.35 C 80.94 22.56 77.45 22.69 74.00 22.71 C 63.98 22.79 53.97 22.64 43.95 22.76 C 38.28 22.84 32.77 26.05 30.05 31.04 C 28.12 34.33 27.89 38.25 27.84 41.97 C 27.82 54.73 27.92 67.50 27.80 80.26 C 25.73 78.72 23.56 77.33 21.37 75.97 C 21.16 105.64 21.19 135.32 21.17 165.00 C 21.24 170.00 20.64 175.06 21.66 179.99 C 23.26 181.07 24.89 182.07 26.51 183.11 C 18.18 189.77 8.45 194.55 0.60 201.80 L 0.00 202.36 L 0.00 0.00 Z" />
<path fill="#ffffff" opacity="1.00" d=" M 125.66 0.00 L 250.00 0.00 L 250.00 202.41 L 249.39 201.84 C 241.58 194.53 231.80 189.79 223.48 183.10 C 225.10 182.07 226.74 181.06 228.34 179.99 C 228.67 178.37 228.86 176.72 228.91 175.07 C 228.69 142.04 228.93 109.00 228.62 75.97 C 226.43 77.33 224.26 78.72 222.19 80.26 C 222.01 66.83 222.25 53.39 222.08 39.96 C 222.17 34.25 219.57 28.41 214.61 25.38 C 208.50 21.34 200.86 23.09 194.00 22.73 C 184.57 23.07 175.03 21.97 165.67 23.35 C 152.32 15.59 138.63 8.38 125.66 0.00 Z" />
<path fill="#ffffff" opacity="1.00" d=" M 0.00 206.78 C 1.86 209.29 4.16 211.43 6.47 213.52 C 16.52 222.46 26.45 231.54 36.43 240.57 C 38.36 242.53 41.20 242.73 43.72 243.35 L 44.39 243.74 C 47.33 245.91 51.46 247.69 54.36 244.38 C 61.85 235.67 67.44 225.46 74.97 216.76 C 78.37 216.72 81.78 216.65 85.18 216.75 C 98.59 224.11 111.60 232.17 124.99 239.54 C 138.39 232.16 151.41 224.10 164.82 216.75 C 168.50 216.64 172.18 216.72 175.87 216.83 C 179.99 223.09 184.58 229.01 188.78 235.23 C 190.62 237.78 192.58 240.94 196.01 241.37 C 198.24 241.73 199.98 240.04 201.80 239.05 C 203.07 240.36 204.45 241.55 205.87 242.71 C 209.78 243.63 213.14 241.43 215.68 238.69 C 225.24 229.90 234.91 221.24 244.57 212.57 C 246.52 210.79 248.40 208.92 250.00 206.80 L 250.00 249.00 L 0.00 249.00 L 0.00 206.78 Z" />
</g>
<g id="#b7d3ebff">
<path fill="#b7d3eb" opacity="1.00" d=" M 124.35 0.00 L 125.66 0.00 C 138.63 8.38 152.32 15.59 165.67 23.35 C 169.99 26.03 174.42 28.54 178.86 31.03 C 184.86 34.54 190.90 37.99 196.80 41.65 C 198.22 42.50 199.66 43.31 201.12 44.09 C 204.24 45.95 207.43 47.70 210.67 49.36 C 210.16 50.26 209.64 51.16 209.13 52.07 C 208.63 52.34 207.62 52.88 207.11 53.15 C 199.33 58.79 191.77 64.75 183.97 70.38 C 164.22 59.29 144.80 47.63 125.00 36.63 C 105.20 47.63 85.76 59.28 66.02 70.38 C 58.22 64.76 50.68 58.79 42.88 53.18 C 42.42 52.85 41.50 52.21 41.03 51.89 C 40.40 51.09 39.79 50.26 39.19 49.44 C 42.44 47.75 45.66 46.00 48.82 44.16 C 50.30 43.35 51.75 42.52 53.20 41.65 C 59.09 37.97 65.14 34.54 71.13 31.03 C 75.57 28.53 80.00 26.03 84.33 23.35 C 97.68 15.60 111.37 8.37 124.35 0.00 Z" />
</g>
<g id="#12141dff">
<path fill="#12141d" opacity="1.00" d=" M 30.05 31.04 C 32.77 26.05 38.28 22.84 43.95 22.76 C 53.97 22.64 63.98 22.79 74.00 22.71 C 77.45 22.69 80.94 22.56 84.33 23.35 C 80.00 26.03 75.57 28.53 71.13 31.03 C 63.75 30.66 56.34 30.55 48.95 30.84 C 43.55 30.95 38.43 34.65 36.77 39.80 C 35.22 46.76 36.21 53.94 35.96 61.00 C 35.72 69.40 36.75 77.86 35.46 86.21 C 32.87 84.27 30.35 82.25 27.80 80.26 C 27.92 67.50 27.82 54.73 27.84 41.97 C 27.89 38.25 28.12 34.33 30.05 31.04 Z" />
<path fill="#12141d" opacity="1.00" d=" M 165.67 23.35 C 175.03 21.97 184.57 23.07 194.00 22.73 C 200.86 23.09 208.50 21.34 214.61 25.38 C 219.57 28.41 222.17 34.25 222.08 39.96 C 222.25 53.39 222.01 66.83 222.19 80.26 C 219.64 82.25 217.12 84.27 214.54 86.21 C 212.69 70.82 215.51 55.14 213.24 39.80 C 211.54 34.67 206.46 30.94 201.05 30.85 C 193.66 30.55 186.25 30.66 178.86 31.03 C 174.42 28.54 169.99 26.03 165.67 23.35 Z" />
</g>
<g id="#778099ff">
<path fill="#778099" opacity="1.00" d=" M 36.77 39.80 C 38.43 34.65 43.55 30.95 48.95 30.84 C 56.34 30.55 63.75 30.66 71.13 31.03 C 65.14 34.54 59.09 37.97 53.20 41.65 C 52.61 41.38 51.45 40.83 50.87 40.55 C 49.82 41.67 48.77 42.79 47.79 43.96 L 48.82 44.16 C 45.66 46.00 42.44 47.75 39.19 49.44 C 39.79 50.26 40.40 51.09 41.03 51.89 C 39.75 51.79 38.47 51.70 37.19 51.64 C 37.00 47.69 36.74 43.75 36.77 39.80 Z" />
<path fill="#778099" opacity="1.00" d=" M 178.86 31.03 C 186.25 30.66 193.66 30.55 201.05 30.85 C 206.46 30.94 211.54 34.67 213.24 39.80 C 213.32 43.64 213.00 47.47 212.58 51.28 C 211.43 51.53 210.28 51.79 209.13 52.07 C 209.64 51.16 210.16 50.26 210.67 49.36 C 207.43 47.70 204.24 45.95 201.12 44.09 L 202.32 44.10 C 201.28 42.90 200.20 41.73 199.11 40.58 C 198.53 40.85 197.38 41.38 196.80 41.65 C 190.90 37.99 184.86 34.54 178.86 31.03 Z" />
</g>
<g id="#050707ff">
<path fill="#050707" opacity="1.00" d=" M 66.02 70.38 C 85.76 59.28 105.20 47.63 125.00 36.63 C 144.80 47.63 164.22 59.29 183.97 70.38 C 191.77 64.75 199.33 58.79 207.11 53.15 C 207.88 53.27 209.44 53.51 210.21 53.64 C 208.97 56.95 206.03 59.08 203.67 61.55 C 199.31 65.63 194.14 68.72 189.58 72.56 C 187.49 73.93 185.24 76.48 182.49 75.42 C 177.84 73.79 173.89 70.73 169.61 68.36 C 154.70 59.92 140.04 51.05 125.01 42.84 C 108.89 51.56 93.20 61.09 77.26 70.15 C 73.58 72.11 70.20 74.97 66.01 75.73 C 63.38 75.24 61.40 73.19 59.29 71.69 C 55.07 68.18 50.31 65.34 46.31 61.56 C 43.94 59.09 40.99 56.96 39.78 53.62 C 40.56 53.51 42.11 53.29 42.88 53.18 C 50.68 58.79 58.22 64.76 66.02 70.38 Z" />
</g>
<g id="#697089ff">
<path fill="#697089" opacity="1.00" d=" M 35.96 61.00 C 36.21 53.94 35.22 46.76 36.77 39.80 C 36.74 43.75 37.00 47.69 37.19 51.64 C 38.47 51.70 39.75 51.79 41.03 51.89 C 41.50 52.21 42.42 52.85 42.88 53.18 C 42.11 53.29 40.56 53.51 39.78 53.62 C 40.99 56.96 43.94 59.09 46.31 61.56 C 45.35 72.35 45.94 83.21 45.83 94.04 C 42.43 91.36 38.92 88.81 35.46 86.21 C 36.75 77.86 35.72 69.40 35.96 61.00 Z" />
<path fill="#697089" opacity="1.00" d=" M 213.24 39.80 C 215.51 55.14 212.69 70.82 214.54 86.21 C 211.08 88.82 207.56 91.34 204.16 94.02 C 204.07 83.20 204.66 72.34 203.67 61.55 C 206.03 59.08 208.97 56.95 210.21 53.64 C 209.44 53.51 207.88 53.27 207.11 53.15 C 207.62 52.88 208.63 52.34 209.13 52.07 C 210.28 51.79 211.43 51.53 212.58 51.28 C 213.00 47.47 213.32 43.64 213.24 39.80 Z" />
</g>
<g id="#3d4758ff">
<path fill="#3d4758" opacity="1.00" d=" M 47.79 43.96 C 48.77 42.79 49.82 41.67 50.87 40.55 C 51.45 40.83 52.61 41.38 53.20 41.65 C 51.75 42.52 50.30 43.35 48.82 44.16 L 47.79 43.96 Z" />
<path fill="#3d4758" opacity="1.00" d=" M 196.80 41.65 C 197.38 41.38 198.53 40.85 199.11 40.58 C 200.20 41.73 201.28 42.90 202.32 44.10 L 201.12 44.09 C 199.66 43.31 198.22 42.50 196.80 41.65 Z" />
</g>
<g id="#0f1723ff">
<path fill="#0f1723" opacity="1.00" d=" M 77.26 70.15 C 93.20 61.09 108.89 51.56 125.01 42.84 C 140.04 51.05 154.70 59.92 169.61 68.36 C 173.89 70.73 177.84 73.79 182.49 75.42 C 185.24 76.48 187.49 73.93 189.58 72.56 C 194.14 68.72 199.31 65.63 203.67 61.55 C 204.66 72.34 204.07 83.20 204.16 94.02 C 203.44 94.58 202.71 95.14 201.99 95.70 C 200.49 96.84 198.97 97.95 197.45 99.06 C 197.19 105.04 197.35 111.03 197.34 117.01 C 197.29 125.35 197.35 133.69 197.36 142.03 C 197.33 148.57 197.29 155.12 197.44 161.66 C 196.05 162.13 194.66 162.59 193.27 163.03 C 184.77 157.07 176.07 151.42 167.56 145.48 C 167.74 145.14 168.09 144.44 168.27 144.09 C 174.37 133.04 176.32 119.59 172.94 107.37 C 169.21 91.94 157.35 78.99 142.59 73.35 C 134.83 70.14 126.24 69.93 117.98 70.65 C 98.63 73.14 81.64 88.40 77.07 107.37 C 73.50 120.13 75.83 134.15 82.66 145.43 C 82.23 145.72 81.36 146.29 80.92 146.58 C 72.86 152.06 64.73 157.43 56.75 163.03 C 55.35 162.59 53.96 162.13 52.57 161.67 C 52.71 155.12 52.67 148.57 52.65 142.02 C 52.65 134.35 52.70 126.68 52.66 119.01 C 52.63 112.36 52.83 105.71 52.56 99.06 C 51.03 97.96 49.51 96.85 48.01 95.72 C 47.28 95.16 46.55 94.60 45.83 94.04 C 45.94 83.21 45.35 72.35 46.31 61.56 C 50.31 65.34 55.07 68.18 59.29 71.69 C 61.40 73.19 63.38 75.24 66.01 75.73 C 70.20 74.97 73.58 72.11 77.26 70.15 Z" />
<path fill="#0f1723" opacity="1.00" d=" M 110.24 167.21 C 120.09 170.26 130.65 170.02 140.47 167.02 C 143.61 174.07 148.85 179.84 153.14 186.18 L 153.52 186.69 C 146.11 190.87 138.80 195.21 131.39 199.37 C 127.14 198.86 122.86 198.86 118.61 199.37 C 111.16 195.21 103.84 190.83 96.39 186.67 L 96.78 186.20 C 101.47 180.02 106.16 173.82 110.24 167.21 Z" />
</g>
<g id="#9db6dbff">
<path fill="#9db6db" opacity="1.00" d=" M 77.07 107.37 C 81.64 88.40 98.63 73.14 117.98 70.65 C 126.24 69.93 134.83 70.14 142.59 73.35 C 157.35 78.99 169.21 91.94 172.94 107.37 C 176.32 119.59 174.37 133.04 168.27 144.09 C 163.05 151.01 157.41 157.82 150.11 162.64 C 149.71 162.87 148.92 163.32 148.52 163.54 C 145.96 164.95 143.25 166.10 140.47 167.02 C 130.65 170.02 120.09 170.26 110.24 167.21 C 107.21 166.27 104.26 165.08 101.48 163.55 C 101.08 163.32 100.29 162.87 99.89 162.64 C 93.56 158.87 89.51 152.43 83.51 148.27 C 82.65 147.70 81.79 147.14 80.92 146.58 C 81.36 146.29 82.23 145.72 82.66 145.43 C 75.83 134.15 73.50 120.13 77.07 107.37 M 119.44 86.85 C 108.44 89.15 98.47 96.78 94.31 107.35 C 87.70 122.30 94.68 141.40 109.15 148.86 C 116.16 152.93 124.57 153.52 132.42 152.19 C 141.83 149.86 150.30 143.42 154.61 134.67 C 158.13 127.86 159.08 119.82 157.34 112.36 C 153.76 95.80 136.17 83.87 119.44 86.85 Z" />
</g>
<g id="#a8bfdfff">
<path fill="#a8bfdf" opacity="1.00" d=" M 21.37 75.97 C 23.56 77.33 25.73 78.72 27.80 80.26 C 30.35 82.25 32.87 84.27 35.46 86.21 C 38.92 88.81 42.43 91.36 45.83 94.04 C 46.55 94.60 47.28 95.16 48.01 95.72 C 45.44 105.94 46.50 116.65 43.95 126.88 C 39.39 127.09 34.81 127.10 30.24 126.82 C 27.95 115.34 28.75 103.46 25.90 92.09 C 24.68 92.09 23.47 92.09 22.26 92.09 C 22.00 100.02 22.03 107.95 22.01 115.87 C 21.92 125.21 21.47 134.55 21.85 143.89 C 21.75 155.93 21.57 167.96 21.66 179.99 C 20.64 175.06 21.24 170.00 21.17 165.00 C 21.19 135.32 21.16 105.64 21.37 75.97 Z" />
</g>
<g id="#a8c0dfff">
<path fill="#a8c0df" opacity="1.00" d=" M 222.19 80.26 C 224.26 78.72 226.43 77.33 228.62 75.97 C 228.93 109.00 228.69 142.04 228.91 175.07 C 228.86 176.72 228.67 178.37 228.34 179.99 C 228.43 167.63 228.25 155.26 228.14 142.90 C 228.53 133.23 228.05 123.56 227.98 113.88 C 227.94 106.51 228.05 99.13 227.72 91.76 C 226.60 91.94 225.50 92.17 224.41 92.44 C 222.79 95.06 222.70 98.27 222.30 101.24 C 221.71 108.12 221.14 115.02 219.79 121.80 C 215.03 122.18 210.24 122.16 205.50 121.65 C 203.83 113.06 204.07 104.22 201.99 95.70 C 202.71 95.14 203.44 94.58 204.16 94.02 C 207.56 91.34 211.08 88.82 214.54 86.21 C 217.12 84.27 219.64 82.25 222.19 80.26 Z" />
</g>
<g id="#202126ff">
<path fill="#202126" opacity="1.00" d=" M 119.44 86.85 C 136.17 83.87 153.76 95.80 157.34 112.36 C 159.08 119.82 158.13 127.86 154.61 134.67 C 150.30 143.42 141.83 149.86 132.42 152.19 C 124.57 153.52 116.16 152.93 109.15 148.86 C 94.68 141.40 87.70 122.30 94.31 107.35 C 98.47 96.78 108.44 89.15 119.44 86.85 M 118.31 95.34 C 107.86 98.11 99.89 108.16 99.61 118.97 C 99.31 125.72 102.11 132.41 106.69 137.30 C 111.38 142.29 118.21 145.00 125.00 145.24 C 131.31 145.01 137.66 142.67 142.29 138.30 C 148.05 132.92 151.09 124.76 150.25 116.93 C 149.23 108.73 144.05 101.12 136.67 97.34 C 131.12 94.32 124.39 93.77 118.31 95.34 Z" />
</g>
<g id="#a0b6d8ff">
<path fill="#a0b6d8" opacity="1.00" d=" M 22.26 92.09 C 23.47 92.09 24.68 92.09 25.90 92.09 C 28.75 103.46 27.95 115.34 30.24 126.82 C 34.81 127.10 39.39 127.09 43.95 126.88 C 46.50 116.65 45.44 105.94 48.01 95.72 C 49.51 96.85 51.03 97.96 52.56 99.06 C 52.83 105.71 52.63 112.36 52.66 119.01 C 51.40 117.99 50.14 116.96 48.89 115.94 C 46.86 122.45 46.86 129.31 46.24 136.04 C 45.77 143.91 45.00 151.77 44.61 159.65 C 39.84 160.08 35.05 160.12 30.28 159.82 C 27.90 145.40 28.91 130.62 25.88 116.31 C 24.59 116.16 23.30 116.02 22.01 115.87 C 22.03 107.95 22.00 100.02 22.26 92.09 Z" />
</g>
<g id="#a1b7d8ff">
<path fill="#a1b7d8" opacity="1.00" d=" M 224.41 92.44 C 225.50 92.17 226.60 91.94 227.72 91.76 C 228.05 99.13 227.94 106.51 227.98 113.88 C 226.65 114.00 225.33 114.11 224.01 114.22 C 222.88 119.40 222.37 124.68 222.11 129.97 C 221.64 139.63 220.42 149.22 219.71 158.86 C 215.17 159.07 210.62 159.05 206.09 158.82 C 203.31 144.00 204.79 128.61 201.11 113.95 C 199.85 114.97 198.60 115.99 197.34 117.01 C 197.35 111.03 197.19 105.04 197.45 99.06 C 198.97 97.95 200.49 96.84 201.99 95.70 C 204.07 104.22 203.83 113.06 205.50 121.65 C 210.24 122.16 215.03 122.18 219.79 121.80 C 221.14 115.02 221.71 108.12 222.30 101.24 C 222.70 98.27 222.79 95.06 224.41 92.44 Z" />
</g>
<g id="#6daddaff">
<path fill="#6dadda" opacity="1.00" d=" M 118.31 95.34 C 124.39 93.77 131.12 94.32 136.67 97.34 C 144.05 101.12 149.23 108.73 150.25 116.93 C 151.09 124.76 148.05 132.92 142.29 138.30 C 137.66 142.67 131.31 145.01 125.00 145.24 C 118.21 145.00 111.38 142.29 106.69 137.30 C 102.11 132.41 99.31 125.72 99.61 118.97 C 99.89 108.16 107.86 98.11 118.31 95.34 M 118.98 101.65 C 114.77 103.25 110.96 106.09 108.64 110.00 C 106.18 113.56 106.14 117.95 105.95 122.10 C 107.27 131.23 115.68 138.87 125.00 138.77 C 132.39 138.87 139.17 133.98 142.40 127.50 C 146.59 118.02 141.83 105.64 131.95 102.01 C 127.74 100.86 123.22 100.22 118.98 101.65 Z" />
</g>
<g id="#a1d3edff">
<path fill="#a1d3ed" opacity="1.00" d=" M 118.98 101.65 C 123.22 100.22 127.74 100.86 131.95 102.01 C 133.84 105.97 135.91 110.29 134.83 114.80 C 133.47 122.53 125.83 128.20 118.11 127.92 C 113.47 127.56 109.61 124.72 105.95 122.10 C 106.14 117.95 106.18 113.56 108.64 110.00 C 109.10 114.29 110.31 119.47 114.92 121.07 C 121.45 124.30 130.22 118.44 129.02 111.03 C 129.08 105.59 124.00 101.99 118.98 101.65 Z" />
</g>
<g id="#bedcf3ff">
<path fill="#bedcf3" opacity="1.00" d=" M 108.64 110.00 C 110.96 106.09 114.77 103.25 118.98 101.65 C 124.00 101.99 129.08 105.59 129.02 111.03 C 130.22 118.44 121.45 124.30 114.92 121.07 C 110.31 119.47 109.10 114.29 108.64 110.00 Z" />
</g>
<g id="#84c9e6ff">
<path fill="#84c9e6" opacity="1.00" d=" M 131.95 102.01 C 141.83 105.64 146.59 118.02 142.40 127.50 C 139.17 133.98 132.39 138.87 125.00 138.77 C 115.68 138.87 107.27 131.23 105.95 122.10 C 109.61 124.72 113.47 127.56 118.11 127.92 C 125.83 128.20 133.47 122.53 134.83 114.80 C 135.91 110.29 133.84 105.97 131.95 102.01 Z" />
</g>
<g id="#9aadd2ff">
<path fill="#9aadd2" opacity="1.00" d=" M 197.34 117.01 C 198.60 115.99 199.85 114.97 201.11 113.95 C 204.79 128.61 203.31 144.00 206.09 158.82 C 210.62 159.05 215.17 159.07 219.71 158.86 C 220.42 149.22 221.64 139.63 222.11 129.97 C 222.37 124.68 222.88 119.40 224.01 114.22 C 225.33 114.11 226.65 114.00 227.98 113.88 C 228.05 123.56 228.53 133.23 228.14 142.90 C 226.84 143.05 225.54 143.21 224.25 143.36 C 222.89 152.19 222.12 161.12 222.08 170.05 C 221.84 172.15 222.26 174.92 220.27 176.30 C 217.19 178.16 213.49 178.50 210.06 179.31 C 208.76 178.39 207.48 177.46 206.19 176.54 C 206.68 175.48 207.18 174.42 207.57 173.31 C 205.47 170.89 202.72 169.18 200.06 167.45 C 201.53 166.02 203.93 164.80 203.45 162.37 C 203.10 154.83 203.00 147.21 201.39 139.80 C 200.04 140.55 198.70 141.29 197.36 142.03 C 197.35 133.69 197.29 125.35 197.34 117.01 Z" />
<path fill="#9aadd2" opacity="1.00" d=" M 22.01 115.87 C 23.30 116.02 24.59 116.16 25.88 116.31 C 28.91 130.62 27.90 145.40 30.28 159.82 C 35.05 160.12 39.84 160.08 44.61 159.65 C 45.00 151.77 45.77 143.91 46.24 136.04 C 46.86 129.31 46.86 122.45 48.89 115.94 C 50.14 116.96 51.40 117.99 52.66 119.01 C 52.70 126.68 52.65 134.35 52.65 142.02 C 51.30 141.28 49.95 140.54 48.61 139.81 C 47.00 147.22 46.90 154.83 46.55 162.37 C 46.07 164.77 48.44 165.99 49.90 167.40 C 46.98 169.07 44.38 171.24 42.05 173.66 C 42.70 174.56 43.34 175.47 43.99 176.37 C 42.67 177.31 41.38 178.28 40.08 179.23 C 35.96 178.06 28.70 178.56 28.13 172.95 C 27.62 163.40 27.33 153.81 25.76 144.36 C 24.46 144.20 23.15 144.05 21.85 143.89 C 21.47 134.55 21.92 125.21 22.01 115.87 Z" />
</g>
<g id="#8ea4c6ff">
<path fill="#8ea4c6" opacity="1.00" d=" M 46.55 162.37 C 46.90 154.83 47.00 147.22 48.61 139.81 C 49.95 140.54 51.30 141.28 52.65 142.02 C 52.67 148.57 52.71 155.12 52.57 161.67 C 53.96 162.13 55.35 162.59 56.75 163.03 C 54.52 164.56 52.21 165.99 49.90 167.40 C 48.44 165.99 46.07 164.77 46.55 162.37 Z" />
<path fill="#8ea4c6" opacity="1.00" d=" M 197.36 142.03 C 198.70 141.29 200.04 140.55 201.39 139.80 C 203.00 147.21 203.10 154.83 203.45 162.37 C 203.93 164.80 201.53 166.02 200.06 167.45 C 197.78 166.00 195.50 164.56 193.27 163.03 C 194.66 162.59 196.05 162.13 197.44 161.66 C 197.29 155.12 197.33 148.57 197.36 142.03 Z" />
</g>
<g id="#889cc0ff">
<path fill="#889cc0" opacity="1.00" d=" M 224.25 143.36 C 225.54 143.21 226.84 143.05 228.14 142.90 C 228.25 155.26 228.43 167.63 228.34 179.99 C 226.74 181.06 225.10 182.07 223.48 183.10 C 231.80 189.79 241.58 194.53 249.39 201.84 C 246.62 201.76 243.53 202.57 241.05 200.93 C 233.17 195.92 226.26 189.52 218.22 184.76 C 215.71 183.13 213.18 181.54 210.74 179.80 L 210.06 179.31 C 213.49 178.50 217.19 178.16 220.27 176.30 C 222.26 174.92 221.84 172.15 222.08 170.05 C 222.12 161.12 222.89 152.19 224.25 143.36 Z" />
<path fill="#889cc0" opacity="1.00" d=" M 21.85 143.89 C 23.15 144.05 24.46 144.20 25.76 144.36 C 27.33 153.81 27.62 163.40 28.13 172.95 C 28.70 178.56 35.96 178.06 40.08 179.23 C 39.22 179.86 38.35 180.47 37.47 181.08 C 35.62 182.36 33.70 183.54 31.81 184.76 C 23.72 189.48 16.84 195.93 8.95 200.93 C 6.47 202.58 3.38 201.75 0.60 201.80 C 8.45 194.55 18.18 189.77 26.51 183.11 C 24.89 182.07 23.26 181.07 21.66 179.99 C 21.57 167.96 21.75 155.93 21.85 143.89 Z" />
</g>
<g id="#2f3d49ff">
<path fill="#2f3d49" opacity="1.00" d=" M 150.11 162.64 C 157.41 157.82 163.05 151.01 168.27 144.09 C 168.09 144.44 167.74 145.14 167.56 145.48 C 167.21 146.17 166.53 147.55 166.19 148.24 C 169.58 150.90 173.07 153.43 176.61 155.88 C 172.05 162.78 164.79 167.28 160.27 174.21 C 156.93 170.33 154.91 165.01 150.11 162.64 Z" />
<path fill="#2f3d49" opacity="1.00" d=" M 83.51 148.27 C 89.51 152.43 93.56 158.87 99.89 162.64 C 94.50 165.42 92.39 171.58 88.57 175.97 C 86.73 167.12 76.21 164.13 73.23 155.91 C 76.76 153.51 80.27 151.06 83.51 148.27 Z" />
</g>
<g id="#b7c8e0ff">
<path fill="#b7c8e0" opacity="1.00" d=" M 166.19 148.24 C 166.53 147.55 167.21 146.17 167.56 145.48 C 176.07 151.42 184.77 157.07 193.27 163.03 C 195.50 164.56 197.78 166.00 200.06 167.45 C 202.72 169.18 205.47 170.89 207.57 173.31 C 207.18 174.42 206.68 175.48 206.19 176.54 C 205.35 175.96 204.51 175.38 203.67 174.80 C 201.30 173.18 198.93 171.55 196.57 169.91 C 194.24 168.27 191.91 166.62 189.57 164.98 C 187.23 163.34 184.90 161.68 182.56 160.03 C 180.58 158.64 178.59 157.26 176.61 155.88 C 173.07 153.43 169.58 150.90 166.19 148.24 Z" />
<path fill="#b7c8e0" opacity="1.00" d=" M 56.75 163.03 C 64.73 157.43 72.86 152.06 80.92 146.58 C 81.79 147.14 82.65 147.70 83.51 148.27 C 80.27 151.06 76.76 153.51 73.23 155.91 C 70.37 157.90 67.57 159.95 64.73 161.97 C 62.37 163.63 60.00 165.29 57.63 166.94 C 55.28 168.57 52.95 170.23 50.60 171.86 C 48.56 173.27 46.50 174.63 44.46 176.04 L 43.99 176.37 C 43.34 175.47 42.70 174.56 42.05 173.66 C 44.38 171.24 46.98 169.07 49.90 167.40 C 52.21 165.99 54.52 164.56 56.75 163.03 Z" />
</g>
<g id="#404e61ff">
<path fill="#404e61" opacity="1.00" d=" M 64.73 161.97 C 67.57 159.95 70.37 157.90 73.23 155.91 C 76.21 164.13 86.73 167.12 88.57 175.97 C 86.92 178.07 85.18 180.10 83.53 182.20 C 78.29 174.55 70.73 168.97 64.73 161.97 Z" />
</g>
<g id="#3e4c5eff">
<path fill="#3e4c5e" opacity="1.00" d=" M 176.61 155.88 C 178.59 157.26 180.58 158.64 182.56 160.03 C 178.82 168.56 169.15 172.48 165.45 181.08 C 163.72 178.79 162.00 176.49 160.27 174.21 C 164.79 167.28 172.05 162.78 176.61 155.88 Z" />
</g>
<g id="#49596fff">
<path fill="#49596f" opacity="1.00" d=" M 182.56 160.03 C 184.90 161.68 187.23 163.34 189.57 164.98 C 185.42 174.30 174.71 178.57 170.55 187.86 C 168.84 185.61 167.16 183.33 165.45 181.08 C 169.15 172.48 178.82 168.56 182.56 160.03 Z" />
</g>
<g id="#4d5c73ff">
<path fill="#4d5c73" opacity="1.00" d=" M 57.63 166.94 C 60.00 165.29 62.37 163.63 64.73 161.97 C 70.73 168.97 78.29 174.55 83.53 182.20 C 81.89 184.31 80.36 186.51 79.13 188.89 C 78.73 189.18 77.92 189.75 77.51 190.04 C 76.60 188.18 75.72 186.25 74.28 184.72 C 68.73 178.80 62.16 173.76 57.63 166.94 Z" />
</g>
<g id="#1c1e29ff">
<path fill="#1c1e29" opacity="1.00" d=" M 88.57 175.97 C 92.39 171.58 94.50 165.42 99.89 162.64 C 100.29 162.87 101.08 163.32 101.48 163.55 C 97.63 169.85 92.73 175.49 89.25 182.02 C 90.89 184.60 94.09 185.26 96.78 186.20 L 96.39 186.67 C 94.45 188.93 92.56 191.24 90.99 193.77 C 88.50 198.12 85.63 202.24 82.33 206.02 C 80.57 208.01 79.03 210.24 78.40 212.86 C 75.65 211.13 72.89 209.40 70.03 207.86 C 73.96 202.02 78.68 196.23 79.13 188.89 C 80.36 186.51 81.89 184.31 83.53 182.20 C 85.18 180.10 86.92 178.07 88.57 175.97 Z" />
</g>
<g id="#1c1f29ff">
<path fill="#1c1f29" opacity="1.00" d=" M 148.52 163.54 C 148.92 163.32 149.71 162.87 150.11 162.64 C 154.91 165.01 156.93 170.33 160.27 174.21 C 162.00 176.49 163.72 178.79 165.45 181.08 C 167.16 183.33 168.84 185.61 170.55 187.86 C 171.34 188.89 172.16 189.90 173.00 190.90 C 172.27 197.42 176.54 202.69 179.90 207.79 C 177.23 209.27 174.62 210.83 172.04 212.44 C 170.77 210.18 169.33 208.02 167.71 205.99 C 163.93 201.40 160.65 196.42 157.19 191.59 C 155.99 189.93 154.75 188.31 153.52 186.69 L 153.14 186.18 C 155.83 185.20 159.08 184.61 160.76 182.02 C 157.28 175.50 152.37 169.85 148.52 163.54 Z" />
</g>
<g id="#040504ff">
<path fill="#040504" opacity="1.00" d=" M 101.48 163.55 C 104.26 165.08 107.21 166.27 110.24 167.21 C 106.16 173.82 101.47 180.02 96.78 186.20 C 94.09 185.26 90.89 184.60 89.25 182.02 C 92.73 175.49 97.63 169.85 101.48 163.55 Z" />
<path fill="#040504" opacity="1.00" d=" M 140.47 167.02 C 143.25 166.10 145.96 164.95 148.52 163.54 C 152.37 169.85 157.28 175.50 160.76 182.02 C 159.08 184.61 155.83 185.20 153.14 186.18 C 148.85 179.84 143.61 174.07 140.47 167.02 Z" />
</g>
<g id="#54647eff">
<path fill="#54647e" opacity="1.00" d=" M 189.57 164.98 C 191.91 166.62 194.24 168.27 196.57 169.91 C 190.73 178.91 180.53 184.27 175.60 193.91 C 174.74 192.90 173.86 191.90 173.00 190.90 C 172.16 189.90 171.34 188.89 170.55 187.86 C 174.71 178.57 185.42 174.30 189.57 164.98 Z" />
</g>
<g id="#586985ff">
<path fill="#586985" opacity="1.00" d=" M 50.60 171.86 C 52.95 170.23 55.28 168.57 57.63 166.94 C 62.16 173.76 68.73 178.80 74.28 184.72 C 75.72 186.25 76.60 188.18 77.51 190.04 C 75.67 191.88 74.11 193.98 72.56 196.08 C 66.33 187.05 56.66 181.04 50.60 171.86 Z" />
</g>
<g id="#5e708eff">
<path fill="#5e708e" opacity="1.00" d=" M 196.57 169.91 C 198.93 171.55 201.30 173.18 203.67 174.80 C 197.08 184.25 186.97 190.60 180.55 200.18 C 178.97 198.04 177.33 195.93 175.60 193.91 C 180.53 184.27 190.73 178.91 196.57 169.91 Z" />
</g>
<g id="#627393ff">
<path fill="#627393" opacity="1.00" d=" M 44.46 176.04 C 46.50 174.63 48.56 173.27 50.60 171.86 C 56.66 181.04 66.33 187.05 72.56 196.08 C 70.83 198.42 69.09 200.77 67.34 203.11 C 64.73 196.95 59.21 192.96 54.75 188.25 C 51.07 184.41 46.51 181.14 44.46 176.04 Z" />
</g>
<g id="#677a9cff">
<path fill="#677a9c" opacity="1.00" d=" M 203.67 174.80 C 204.51 175.38 205.35 175.96 206.19 176.54 C 207.48 177.46 208.76 178.39 210.06 179.31 L 210.74 179.80 C 210.73 181.95 210.60 184.29 208.79 185.77 C 202.80 191.78 196.73 197.73 190.70 203.70 C 188.91 205.28 188.23 207.59 187.71 209.83 C 185.28 206.64 182.93 203.40 180.55 200.18 C 186.97 190.60 197.08 184.25 203.67 174.80 Z" />
</g>
<g id="#6a7da0ff">
<path fill="#6a7da0" opacity="1.00" d=" M 43.99 176.37 L 44.46 176.04 C 46.51 181.14 51.07 184.41 54.75 188.25 C 59.21 192.96 64.73 196.95 67.34 203.11 C 65.37 205.71 63.42 208.34 61.44 210.95 C 60.79 208.70 60.08 206.34 58.29 204.70 C 54.47 200.86 50.54 197.13 46.75 193.25 C 43.24 189.56 38.46 186.46 37.47 181.08 C 38.35 180.47 39.22 179.86 40.08 179.23 C 41.38 178.28 42.67 177.31 43.99 176.37 Z" />
</g>
<g id="#7185abff">
<path fill="#7185ab" opacity="1.00" d=" M 210.74 179.80 C 213.18 181.54 215.71 183.13 218.22 184.76 C 219.31 186.44 220.29 188.19 221.29 189.93 C 212.74 199.59 202.61 207.79 194.43 217.78 L 194.16 218.43 C 192.15 215.46 189.91 212.65 187.71 209.83 C 188.23 207.59 188.91 205.28 190.70 203.70 C 196.73 197.73 202.80 191.78 208.79 185.77 C 210.60 184.29 210.73 181.95 210.74 179.80 Z" />
</g>
<g id="#7286adff">
<path fill="#7286ad" opacity="1.00" d=" M 31.81 184.76 C 33.70 183.54 35.62 182.36 37.47 181.08 C 38.46 186.46 43.24 189.56 46.75 193.25 C 50.54 197.13 54.47 200.86 58.29 204.70 C 60.08 206.34 60.79 208.70 61.44 210.95 C 60.16 212.60 58.86 214.23 57.56 215.87 C 56.51 217.18 55.46 218.50 54.41 219.82 C 53.30 217.34 51.85 215.01 49.82 213.18 C 44.17 207.83 38.82 202.18 33.20 196.79 C 31.34 194.95 29.40 193.14 28.01 190.89 C 28.84 188.61 30.30 186.64 31.81 184.76 Z" />
</g>
<g id="#798eb7ff">
<path fill="#798eb7" opacity="1.00" d=" M 8.95 200.93 C 16.84 195.93 23.72 189.48 31.81 184.76 C 30.30 186.64 28.84 188.61 28.01 190.89 C 29.40 193.14 31.34 194.95 33.20 196.79 C 38.82 202.18 44.17 207.83 49.82 213.18 C 51.85 215.01 53.30 217.34 54.41 219.82 C 50.12 224.93 46.82 230.86 41.91 235.44 C 37.06 233.55 33.79 229.39 30.02 226.03 C 26.51 222.86 23.09 219.59 19.74 216.25 C 15.58 212.00 10.62 208.46 7.42 203.35 C 4.95 203.18 2.48 203.06 0.00 202.98 L 0.00 202.36 L 0.60 201.80 C 3.38 201.75 6.47 202.58 8.95 200.93 Z" />
<path fill="#798eb7" opacity="1.00" d=" M 218.22 184.76 C 226.26 189.52 233.17 195.92 241.05 200.93 C 243.53 202.57 246.62 201.76 249.39 201.84 L 250.00 202.41 L 250.00 203.03 C 247.52 203.07 245.04 203.16 242.56 203.31 C 239.77 207.84 235.55 211.12 231.77 214.76 C 224.98 221.70 217.51 227.92 210.77 234.90 C 208.92 234.95 206.88 234.93 205.78 233.18 C 201.75 228.24 198.06 223.02 194.43 217.78 C 202.61 207.79 212.74 199.59 221.29 189.93 C 220.29 188.19 219.31 186.44 218.22 184.76 Z" />
</g>
<g id="#7d91b8ff">
<path fill="#7d91b8" opacity="1.00" d=" M 90.99 193.77 C 92.56 191.24 94.45 188.93 96.39 186.67 C 103.84 190.83 111.16 195.21 118.61 199.37 C 120.69 200.57 122.69 201.99 125.00 202.75 C 127.30 201.99 129.30 200.57 131.39 199.37 C 138.80 195.21 146.11 190.87 153.52 186.69 C 154.75 188.31 155.99 189.93 157.19 191.59 C 146.14 197.29 135.94 204.48 125.00 210.36 C 115.73 205.32 106.92 199.52 97.81 194.22 C 95.75 192.74 93.26 193.21 90.99 193.77 Z" />
</g>
<g id="#2f3e57ff">
<path fill="#2f3e57" opacity="1.00" d=" M 77.51 190.04 C 77.92 189.75 78.73 189.18 79.13 188.89 C 78.68 196.23 73.96 202.02 70.03 207.86 C 67.95 210.84 65.90 213.84 63.86 216.84 C 62.11 219.37 60.13 221.74 58.19 224.12 C 57.91 221.37 57.70 218.62 57.56 215.87 C 58.86 214.23 60.16 212.60 61.44 210.95 C 63.42 208.34 65.37 205.71 67.34 203.11 C 69.09 200.77 70.83 198.42 72.56 196.08 C 74.11 193.98 75.67 191.88 77.51 190.04 Z" />
</g>
<g id="#31405aff">
<path fill="#31405a" opacity="1.00" d=" M 173.00 190.90 C 173.86 191.90 174.74 192.90 175.60 193.91 C 177.33 195.93 178.97 198.04 180.55 200.18 C 182.93 203.40 185.28 206.64 187.71 209.83 C 189.91 212.65 192.15 215.46 194.16 218.43 C 194.45 221.34 194.31 224.26 193.88 227.14 C 191.09 223.87 188.47 220.44 186.15 216.82 C 184.14 213.75 182.00 210.79 179.90 207.79 C 176.54 202.69 172.27 197.42 173.00 190.90 Z" />
</g>
<g id="#93a1cbff">
<path fill="#93a1cb" opacity="1.00" d=" M 125.00 210.36 C 135.94 204.48 146.14 197.29 157.19 191.59 C 160.65 196.42 163.93 201.40 167.71 205.99 C 164.39 210.23 159.25 212.17 154.72 214.77 C 146.81 219.17 138.87 223.52 131.08 228.14 C 129.14 229.23 127.20 230.44 125.00 230.89 C 122.79 230.44 120.85 229.23 118.91 228.14 C 111.13 223.52 103.19 219.18 95.28 214.77 C 90.76 212.19 85.65 210.25 82.33 206.02 C 85.63 202.24 88.50 198.12 90.99 193.77 C 93.26 193.21 95.75 192.74 97.81 194.22 C 106.92 199.52 115.73 205.32 125.00 210.36 Z" />
</g>
<g id="#40455cff">
<path fill="#40455c" opacity="1.00" d=" M 118.61 199.37 C 122.86 198.86 127.14 198.86 131.39 199.37 C 129.30 200.57 127.30 201.99 125.00 202.75 C 122.69 201.99 120.69 200.57 118.61 199.37 Z" />
</g>
<g id="#51688bff">
<path fill="#51688b" opacity="1.00" d=" M 0.00 202.98 C 2.48 203.06 4.95 203.18 7.42 203.35 C 10.62 208.46 15.58 212.00 19.74 216.25 C 23.09 219.59 26.51 222.86 30.02 226.03 C 33.79 229.39 37.06 233.55 41.91 235.44 C 41.29 236.02 40.66 236.59 40.04 237.17 C 41.23 239.25 42.42 241.33 43.72 243.35 C 41.20 242.73 38.36 242.53 36.43 240.57 C 26.45 231.54 16.52 222.46 6.47 213.52 C 4.16 211.43 1.86 209.29 0.00 206.78 L 0.00 202.98 Z" />
</g>
<g id="#52698cff">
<path fill="#52698c" opacity="1.00" d=" M 242.56 203.31 C 245.04 203.16 247.52 203.07 250.00 203.03 L 250.00 206.80 C 248.40 208.92 246.52 210.79 244.57 212.57 C 234.91 221.24 225.24 229.90 215.68 238.69 C 213.14 241.43 209.78 243.63 205.87 242.71 C 209.99 241.64 212.62 238.35 214.38 234.69 C 213.17 234.77 211.97 234.84 210.77 234.90 C 217.51 227.92 224.98 221.70 231.77 214.76 C 235.55 211.12 239.77 207.84 242.56 203.31 Z" />
</g>
<g id="#7586afff">
<path fill="#7586af" opacity="1.00" d=" M 78.40 212.86 C 79.03 210.24 80.57 208.01 82.33 206.02 C 85.65 210.25 90.76 212.19 95.28 214.77 C 103.19 219.18 111.13 223.52 118.91 228.14 C 120.85 229.23 122.79 230.44 125.00 230.89 C 127.20 230.44 129.14 229.23 131.08 228.14 C 138.87 223.52 146.81 219.17 154.72 214.77 C 159.25 212.17 164.39 210.23 167.71 205.99 C 169.33 208.02 170.77 210.18 172.04 212.44 C 169.66 213.92 167.27 215.39 164.82 216.75 C 151.41 224.10 138.39 232.16 124.99 239.54 C 111.60 232.17 98.59 224.11 85.18 216.75 C 82.90 215.50 80.64 214.20 78.40 212.86 Z" />
</g>
<g id="#050504ff">
<path fill="#050504" opacity="1.00" d=" M 70.03 207.86 C 72.89 209.40 75.65 211.13 78.40 212.86 C 80.64 214.20 82.90 215.50 85.18 216.75 C 81.78 216.65 78.37 216.72 74.97 216.76 C 71.27 216.84 67.56 216.88 63.86 216.84 C 65.90 213.84 67.95 210.84 70.03 207.86 Z" />
<path fill="#050504" opacity="1.00" d=" M 172.04 212.44 C 174.62 210.83 177.23 209.27 179.90 207.79 C 182.00 210.79 184.14 213.75 186.15 216.82 C 182.72 216.89 179.29 216.92 175.87 216.83 C 172.18 216.72 168.50 216.64 164.82 216.75 C 167.27 215.39 169.66 213.92 172.04 212.44 Z" />
</g>
<g id="#435775ff">
<path fill="#435775" opacity="1.00" d=" M 54.41 219.82 C 55.46 218.50 56.51 217.18 57.56 215.87 C 57.70 218.62 57.91 221.37 58.19 224.12 C 53.32 230.48 49.37 237.47 44.39 243.74 L 43.72 243.35 C 42.42 241.33 41.23 239.25 40.04 237.17 C 40.66 236.59 41.29 236.02 41.91 235.44 C 46.82 230.86 50.12 224.93 54.41 219.82 Z" />
</g>
<g id="#3d3e3fff">
<path fill="#3d3e3f" opacity="1.00" d=" M 58.19 224.12 C 60.13 221.74 62.11 219.37 63.86 216.84 C 67.56 216.88 71.27 216.84 74.97 216.76 C 67.44 225.46 61.85 235.67 54.36 244.38 C 51.46 247.69 47.33 245.91 44.39 243.74 C 49.37 237.47 53.32 230.48 58.19 224.12 Z" />
<path fill="#3d3e3f" opacity="1.00" d=" M 175.87 216.83 C 179.29 216.92 182.72 216.89 186.15 216.82 C 188.47 220.44 191.09 223.87 193.88 227.14 C 196.93 230.83 199.23 235.04 201.80 239.05 C 199.98 240.04 198.24 241.73 196.01 241.37 C 192.58 240.94 190.62 237.78 188.78 235.23 C 184.58 229.01 179.99 223.09 175.87 216.83 Z" />
</g>
<g id="#455a79ff">
<path fill="#455a79" opacity="1.00" d=" M 194.16 218.43 L 194.43 217.78 C 198.06 223.02 201.75 228.24 205.78 233.18 C 206.88 234.93 208.92 234.95 210.77 234.90 C 211.97 234.84 213.17 234.77 214.38 234.69 C 212.62 238.35 209.99 241.64 205.87 242.71 C 204.45 241.55 203.07 240.36 201.80 239.05 C 199.23 235.04 196.93 230.83 193.88 227.14 C 194.31 224.26 194.45 221.34 194.16 218.43 Z" />
</g>
</svg>
