<?xml version="1.0" encoding="UTF-8" ?>
<!DOCTYPE svg PUBLIC "-//W3C//DTD SVG 1.1//EN" "http://www.w3.org/Graphics/SVG/1.1/DTD/svg11.dtd">
<svg width="250pt" height="250pt" viewBox="0 0 250 250" version="1.1" xmlns="http://www.w3.org/2000/svg">
<g id="#300e53ff">
<path fill="#300e53" opacity="1.00" d=" M 0.00 0.00 L 16.30 0.00 C 11.46 5.98 6.54 12.15 0.00 16.36 L 0.00 0.00 Z" />
</g>
<g id="#4d1f73ff">
<path fill="#4d1f73" opacity="1.00" d=" M 16.30 0.00 L 19.29 0.00 C 13.02 6.59 6.58 13.02 0.00 19.29 L 0.00 16.36 C 6.54 12.15 11.46 5.98 16.30 0.00 Z" />
</g>
<g id="#300e50ff">
<path fill="#300e50" opacity="1.00" d=" M 19.29 0.00 L 42.39 0.00 C 28.19 14.06 14.48 28.60 0.00 42.38 L 0.00 19.29 C 6.58 13.02 13.02 6.59 19.29 0.00 Z" />
</g>
<g id="#431670ff">
<path fill="#431670" opacity="1.00" d=" M 42.39 0.00 L 47.61 0.00 C 32.40 15.78 16.26 30.91 0.00 45.57 L 0.00 42.38 C 14.48 28.60 28.19 14.06 42.39 0.00 Z" />
</g>
<g id="#300f51ff">
<path fill="#300f51" opacity="1.00" d=" M 47.61 0.00 L 80.48 0.00 C 70.09 12.41 57.38 22.70 46.69 34.88 C 45.04 36.47 43.41 38.08 41.82 39.74 C 35.37 46.09 28.98 52.48 22.63 58.94 C 17.31 65.17 9.70 69.74 5.76 77.01 C 10.33 75.12 12.65 70.52 16.23 67.42 C 20.81 68.70 23.23 63.98 26.19 61.28 C 30.02 58.44 32.58 52.71 37.36 51.66 C 34.43 55.49 31.59 59.46 29.72 63.93 C 26.09 68.88 23.99 74.67 21.22 80.10 C 14.86 85.73 9.57 93.39 0.00 91.07 L 0.00 45.57 C 16.26 30.91 32.40 15.78 47.61 0.00 Z" />
</g>
<g id="#48187bff">
<path fill="#48187b" opacity="1.00" d=" M 80.48 0.00 L 85.33 0.00 C 80.70 6.72 74.23 11.80 68.77 17.79 C 67.38 18.80 68.47 20.25 68.92 21.45 C 67.35 22.51 65.86 23.67 64.39 24.86 C 58.57 28.95 53.11 33.53 47.91 38.37 C 47.48 37.21 47.07 36.05 46.69 34.88 C 57.38 22.70 70.09 12.41 80.48 0.00 Z" />
</g>
<g id="#2d1158ff">
<path fill="#2d1158" opacity="1.00" d=" M 85.33 0.00 L 184.32 0.00 C 179.49 4.28 175.91 10.26 170.06 13.24 C 161.57 10.59 152.80 4.00 143.84 6.10 L 143.07 5.96 C 117.73 -0.53 90.19 6.89 68.92 21.45 C 68.47 20.25 67.38 18.80 68.77 17.79 C 74.23 11.80 80.70 6.72 85.33 0.00 Z" />
</g>
<g id="#452479ff">
<path fill="#452479" opacity="1.00" d=" M 184.32 0.00 L 190.30 0.00 C 185.61 5.63 179.12 10.04 175.16 16.09 C 175.09 16.57 174.95 17.52 174.87 18.00 L 174.24 18.20 C 174.60 15.37 172.36 14.07 170.06 13.24 C 175.91 10.26 179.49 4.28 184.32 0.00 Z" />
</g>
<g id="#260e50ff">
<path fill="#260e50" opacity="1.00" d=" M 190.30 0.00 L 199.55 0.00 C 215.37 17.38 232.80 33.56 250.00 49.56 L 250.00 75.35 C 238.44 64.12 227.17 52.59 215.75 41.21 C 215.02 40.19 213.81 40.01 212.97 41.03 C 225.98 52.44 237.17 65.71 250.00 77.29 L 250.00 101.38 C 244.28 95.94 238.96 90.09 233.03 84.87 C 228.71 77.32 226.92 68.40 222.03 60.99 C 214.85 47.94 204.64 36.55 192.79 27.52 C 187.29 23.15 181.00 19.96 175.16 16.09 C 179.12 10.04 185.61 5.63 190.30 0.00 Z" />
</g>
<g id="#3b2374ff">
<path fill="#3b2374" opacity="1.00" d=" M 199.55 0.00 L 205.69 0.00 C 220.34 15.26 234.90 30.56 250.00 45.38 L 250.00 49.56 C 232.80 33.56 215.37 17.38 199.55 0.00 Z" />
</g>
<g id="#280f52ff">
<path fill="#280f52" opacity="1.00" d=" M 205.69 0.00 L 250.00 0.00 L 250.00 45.38 C 234.90 30.56 220.34 15.26 205.69 0.00 Z" />
</g>
<g id="#906cd5ff">
<path fill="#906cd5" opacity="1.00" d=" M 68.92 21.45 C 90.19 6.89 117.73 -0.53 143.07 5.96 C 141.45 6.03 138.21 6.19 136.58 6.27 C 141.97 8.17 148.03 7.80 152.99 10.95 C 127.87 4.34 100.73 6.35 77.66 18.64 C 73.14 20.00 69.07 26.66 64.39 24.86 C 65.86 23.67 67.35 22.51 68.92 21.45 Z" />
</g>
<g id="#5b3f93ff">
<path fill="#5b3f93" opacity="1.00" d=" M 143.84 6.10 C 152.80 4.00 161.57 10.59 170.06 13.24 C 172.36 14.07 174.60 15.37 174.24 18.20 C 164.93 12.33 154.40 8.94 143.84 6.10 Z" />
</g>
<g id="#c09df5ff">
<path fill="#c09df5" opacity="1.00" d=" M 136.58 6.27 C 138.21 6.19 141.45 6.03 143.07 5.96 L 143.84 6.10 C 154.40 8.94 164.93 12.33 174.24 18.20 C 167.07 17.82 160.65 11.38 152.99 10.95 C 148.03 7.80 141.97 8.17 136.58 6.27 Z" />
</g>
<g id="#bd96f8ff">
<path fill="#bd96f8" opacity="1.00" d=" M 77.66 18.64 C 100.73 6.35 127.87 4.34 152.99 10.95 C 171.50 18.74 187.81 30.94 200.97 46.13 C 200.95 46.89 200.90 48.40 200.88 49.15 C 196.55 45.09 193.65 39.67 188.98 35.97 C 160.03 7.05 111.66 0.48 76.52 21.82 C 69.93 25.30 63.77 29.62 58.18 34.55 C 54.73 37.66 51.64 41.18 47.96 44.04 C 47.93 43.50 47.87 42.42 47.84 41.89 C 40.39 48.04 37.04 57.72 29.72 63.93 C 31.59 59.46 34.43 55.49 37.36 51.66 C 39.99 48.55 42.49 45.32 44.94 42.06 C 45.91 40.81 46.91 39.59 47.91 38.37 C 53.11 33.53 58.57 28.95 64.39 24.86 C 69.07 26.66 73.14 20.00 77.66 18.64 Z" />
</g>
<g id="#8666cfff">
<path fill="#8666cf" opacity="1.00" d=" M 76.52 21.82 C 111.66 0.48 160.03 7.05 188.98 35.97 C 188.95 36.50 188.91 37.56 188.89 38.09 C 181.47 32.10 174.41 24.25 164.82 21.97 C 171.64 29.09 181.02 33.48 186.80 41.65 C 217.08 74.45 227.39 125.29 208.33 166.35 L 208.00 165.35 C 223.82 124.24 217.44 72.75 183.37 42.60 C 167.91 27.75 146.27 21.19 125.20 20.64 C 123.72 20.39 120.76 19.90 119.27 19.65 C 118.12 19.32 116.97 19.01 115.81 18.71 C 117.30 18.61 120.29 18.39 121.78 18.29 C 132.31 18.53 142.77 19.51 152.99 22.12 C 152.37 21.31 151.74 20.52 151.10 19.74 L 152.18 19.73 C 155.21 19.75 163.00 26.02 161.50 20.21 C 155.13 17.25 147.85 12.40 140.59 14.93 C 138.47 14.35 135.79 13.53 139.06 11.96 C 127.72 11.16 116.23 10.07 104.93 11.91 C 103.67 12.54 104.08 12.99 106.17 13.26 C 96.18 14.83 86.52 18.01 77.88 23.27 C 77.54 22.91 76.86 22.18 76.52 21.82 Z" />
</g>
<g id="#bba1f6ff">
<path fill="#bba1f6" opacity="1.00" d=" M 104.93 11.91 C 116.23 10.07 127.72 11.16 139.06 11.96 C 135.79 13.53 138.47 14.35 140.59 14.93 C 144.41 16.63 148.43 17.85 152.18 19.73 L 151.10 19.74 C 141.47 18.21 131.45 15.60 121.78 18.29 C 120.29 18.39 117.30 18.61 115.81 18.71 C 107.15 19.06 98.90 21.71 91.02 25.15 C 86.77 25.41 91.88 23.05 93.05 21.91 C 97.81 20.12 102.64 18.40 107.06 15.84 C 108.75 16.36 112.11 16.56 111.83 13.94 C 110.42 13.77 107.58 13.43 106.17 13.26 C 104.08 12.99 103.67 12.54 104.93 11.91 Z" />
</g>
<g id="#976ee1ff">
<path fill="#976ee1" opacity="1.00" d=" M 152.99 10.95 C 160.65 11.38 167.07 17.82 174.24 18.20 L 174.87 18.00 C 185.92 25.83 195.27 35.61 203.82 46.03 C 205.97 48.81 208.16 51.67 209.01 55.15 C 206.05 52.39 204.07 48.77 200.97 46.13 C 187.81 30.94 171.50 18.74 152.99 10.95 Z" />
</g>
<g id="#231472ff">
<path fill="#231472" opacity="1.00" d=" M 106.17 13.26 C 107.58 13.43 110.42 13.77 111.83 13.94 C 110.09 14.10 108.49 14.87 107.06 15.84 C 102.64 18.40 97.81 20.12 93.05 21.91 C 89.63 22.66 86.37 23.97 83.13 25.28 C 81.22 25.06 79.02 25.11 77.88 23.27 C 86.52 18.01 96.18 14.83 106.17 13.26 Z" />
</g>
<g id="#7259bfff">
<path fill="#7259bf" opacity="1.00" d=" M 107.06 15.84 C 108.49 14.87 110.09 14.10 111.83 13.94 C 112.11 16.56 108.75 16.36 107.06 15.84 Z" />
</g>
<g id="#503ca2ff">
<path fill="#503ca2" opacity="1.00" d=" M 140.59 14.93 C 147.85 12.40 155.13 17.25 161.50 20.21 C 163.00 26.02 155.21 19.75 152.18 19.73 C 148.43 17.85 144.41 16.63 140.59 14.93 Z" />
</g>
<g id="#6043b8ff">
<path fill="#6043b8" opacity="1.00" d=" M 175.16 16.09 C 181.00 19.96 187.29 23.15 192.79 27.52 C 193.66 33.06 202.16 36.00 204.64 41.80 C 204.34 43.21 204.06 44.61 203.82 46.03 C 195.27 35.61 185.92 25.83 174.87 18.00 C 174.95 17.52 175.09 16.57 175.16 16.09 Z" />
</g>
<g id="#43278fff">
<path fill="#43278f" opacity="1.00" d=" M 121.78 18.29 C 131.45 15.60 141.47 18.21 151.10 19.74 C 151.74 20.52 152.37 21.31 152.99 22.12 C 142.77 19.51 132.31 18.53 121.78 18.29 Z" />
</g>
<g id="#522fb1ff">
<path fill="#522fb1" opacity="1.00" d=" M 91.02 25.15 C 98.90 21.71 107.15 19.06 115.81 18.71 C 116.97 19.01 118.12 19.32 119.27 19.65 C 92.00 21.78 67.78 38.02 51.25 59.17 C 50.07 58.48 48.94 57.74 47.83 56.95 C 50.50 53.45 53.31 50.08 56.19 46.76 C 61.75 42.87 68.78 40.73 72.96 35.10 C 78.89 31.63 84.87 28.21 91.02 25.15 Z" />
</g>
<g id="#b28df2ff">
<path fill="#b28df2" opacity="1.00" d=" M 51.25 59.17 C 67.78 38.02 92.00 21.78 119.27 19.65 C 120.76 19.90 123.72 20.39 125.20 20.64 C 114.62 22.67 103.39 24.21 94.18 30.22 C 91.39 33.84 96.56 32.14 98.06 30.00 C 98.74 33.14 98.89 36.45 100.52 39.31 C 100.82 37.71 101.40 34.50 101.70 32.90 C 102.25 34.76 100.93 38.70 104.03 38.16 C 104.91 37.09 105.67 35.93 106.44 34.77 C 106.84 36.39 106.84 38.08 106.27 39.66 C 102.98 39.36 100.72 42.54 97.35 42.19 C 96.53 39.94 96.01 37.44 94.17 35.77 C 94.35 38.67 94.58 41.57 94.90 44.46 C 93.27 46.41 89.25 48.57 88.35 44.86 C 85.57 37.92 86.30 44.22 86.73 48.24 C 84.54 51.29 80.53 54.02 76.77 54.42 C 75.90 51.96 75.21 49.45 74.58 46.92 C 72.09 48.66 74.78 51.78 74.82 54.14 C 74.57 54.59 74.07 55.50 73.82 55.95 C 70.86 51.21 71.15 54.57 71.79 58.36 C 71.66 59.40 71.25 60.26 70.03 60.23 C 68.20 58.07 69.17 53.18 65.89 52.96 C 66.32 55.41 67.19 57.74 67.77 60.15 C 67.55 60.61 67.12 61.54 66.90 62.00 C 65.74 60.48 64.48 59.04 63.01 57.83 C 63.59 59.67 64.36 61.45 65.00 63.27 C 64.19 64.14 63.18 64.56 61.99 64.26 C 61.55 57.63 56.97 61.81 61.32 65.35 C 62.11 69.20 57.00 65.50 58.69 69.14 C 59.51 73.47 54.10 69.88 54.49 66.99 C 50.90 69.27 55.53 71.59 56.08 74.13 C 56.15 74.62 56.30 75.59 56.38 76.08 C 55.89 76.03 54.93 75.93 54.44 75.88 C 52.78 71.75 48.57 70.16 44.64 68.99 C 46.78 65.67 48.97 62.40 51.25 59.17 M 90.11 37.01 C 90.64 40.05 90.81 43.13 90.12 46.15 C 92.93 44.82 92.65 36.95 90.11 37.01 M 82.17 42.35 C 80.11 43.74 83.58 54.01 83.90 48.01 C 83.30 46.43 83.61 42.01 82.17 42.35 M 76.94 44.91 C 77.43 47.38 79.47 49.64 78.28 52.22 C 83.13 51.78 79.08 46.22 76.94 44.91 Z" />
</g>
<g id="#c29ef6ff">
<path fill="#c29ef6" opacity="1.00" d=" M 94.18 30.22 C 103.39 24.21 114.62 22.67 125.20 20.64 C 146.27 21.19 167.91 27.75 183.37 42.60 C 217.44 72.75 223.82 124.24 208.00 165.35 C 207.55 160.81 202.96 160.14 199.73 158.12 L 200.33 157.26 C 200.77 157.19 201.63 157.05 202.07 156.98 C 204.65 156.98 206.10 154.50 206.19 152.17 C 208.95 153.77 210.81 152.43 211.03 149.38 C 206.77 149.76 203.01 147.61 199.11 146.33 C 197.24 148.29 196.55 147.01 196.21 144.78 C 190.93 126.80 185.67 108.67 177.74 91.64 C 176.27 87.00 173.98 82.68 171.16 78.73 C 167.33 72.22 163.08 65.68 156.89 61.17 C 153.63 55.20 151.69 48.31 149.77 41.88 C 150.50 40.17 151.25 38.46 151.87 36.71 C 149.74 37.16 148.86 39.27 147.83 40.93 C 147.38 41.89 145.12 44.33 144.73 42.27 C 145.70 39.23 147.12 36.25 147.08 32.99 C 143.58 32.20 144.78 36.86 143.92 39.13 C 142.11 41.44 140.24 41.40 140.99 37.98 C 141.36 36.26 141.75 34.55 141.99 32.80 C 140.49 34.78 139.43 37.03 138.53 39.33 C 137.66 39.46 136.79 39.60 135.92 39.75 C 136.14 36.40 138.59 32.08 135.34 29.66 C 135.08 32.59 135.08 35.61 134.21 38.45 C 133.17 38.45 132.13 38.45 131.10 38.43 C 131.65 36.00 132.51 33.57 132.34 31.04 C 135.23 24.53 128.67 26.30 132.34 31.04 C 130.34 33.06 129.70 35.84 128.82 38.44 C 128.17 38.45 127.51 38.45 126.86 38.44 C 126.54 35.26 128.42 30.89 125.23 28.79 C 126.20 32.11 125.44 35.43 123.82 38.42 C 123.40 38.43 122.54 38.45 122.12 38.46 C 122.12 35.91 122.46 33.38 122.78 30.86 C 119.61 31.53 120.20 36.04 118.87 38.44 L 118.06 38.41 C 117.84 35.40 118.94 31.81 116.37 29.66 C 116.18 32.58 116.07 35.62 114.89 38.34 C 114.47 38.32 113.63 38.27 113.21 38.25 C 112.73 35.89 115.54 30.52 111.85 31.01 C 116.23 26.52 107.96 26.13 111.85 31.01 C 111.28 33.46 110.78 35.92 110.13 38.35 L 109.28 38.71 C 111.04 33.66 104.63 27.28 106.44 34.77 C 105.67 35.93 104.91 37.09 104.03 38.16 C 103.19 36.71 103.56 30.24 101.70 32.90 C 101.40 34.50 100.82 37.71 100.52 39.31 C 98.89 36.45 98.74 33.14 98.06 30.00 C 96.56 32.14 91.39 33.84 94.18 30.22 M 121.33 26.23 C 118.48 32.88 126.56 26.85 121.33 26.23 M 142.24 28.18 C 140.54 28.96 140.08 33.24 142.81 31.86 C 143.30 30.41 145.37 26.87 142.24 28.18 M 152.41 32.23 C 151.66 33.11 150.60 34.44 151.24 35.64 C 152.91 36.28 155.04 31.24 152.41 32.23 M 155.27 36.17 C 155.12 39.78 152.78 42.65 151.90 46.03 C 155.85 46.20 157.15 36.72 155.27 36.17 M 162.22 36.17 C 161.30 37.32 158.46 41.18 161.78 39.83 C 162.70 38.68 165.54 34.82 162.22 36.17 M 159.37 41.30 C 157.97 43.40 156.30 45.48 155.91 48.05 C 158.37 48.25 162.74 40.16 159.37 41.30 M 164.26 40.92 C 164.51 44.49 161.41 46.80 160.93 50.12 C 163.49 48.45 167.98 43.16 164.26 40.92 M 171.41 42.22 C 170.63 43.07 169.60 44.43 170.22 45.63 C 172.20 46.37 174.46 41.38 171.41 42.22 M 168.27 47.24 C 166.41 48.66 165.20 50.82 164.94 53.14 C 166.35 51.86 171.87 46.22 168.27 47.24 M 173.37 47.32 C 172.97 50.83 169.72 52.85 168.91 56.05 C 172.31 55.84 175.31 48.24 173.37 47.32 M 180.29 49.27 C 179.04 50.20 177.74 51.33 177.93 53.05 C 179.94 53.73 183.61 47.51 180.29 49.27 M 177.14 54.29 C 174.91 55.23 173.17 56.82 171.91 59.05 C 173.89 59.53 179.35 53.61 177.14 54.29 M 180.25 53.87 C 181.83 57.52 177.35 60.06 176.02 63.13 C 179.64 62.99 185.88 54.79 180.25 53.87 M 185.06 62.02 C 185.52 61.93 186.43 61.74 186.89 61.65 C 187.96 60.45 191.28 58.56 188.86 57.11 C 187.06 58.03 184.87 59.75 185.06 62.02 M 178.97 67.11 C 181.85 66.60 183.40 64.16 185.06 62.02 C 182.57 62.64 179.42 64.41 178.97 67.11 M 186.89 61.65 C 190.66 66.18 183.78 67.58 182.94 71.06 C 186.76 71.06 193.08 63.04 186.89 61.65 M 195.44 66.21 C 194.58 67.75 189.47 71.79 193.92 70.72 C 195.04 69.45 198.60 67.02 195.44 66.21 M 191.09 71.03 C 188.42 71.82 186.37 73.15 184.94 75.02 C 187.39 75.12 190.73 73.69 191.09 71.03 M 193.92 70.72 C 195.99 76.24 188.60 76.87 187.90 81.05 C 191.98 79.36 200.01 74.58 193.92 70.72 M 200.27 75.83 C 202.05 78.62 197.60 78.49 197.95 81.10 C 201.17 80.94 205.00 77.07 200.27 75.83 M 194.35 81.39 C 192.96 82.34 190.91 82.96 190.85 84.96 C 192.94 84.86 198.77 80.71 194.35 81.39 M 199.23 81.87 C 201.85 86.50 194.68 86.93 192.89 90.05 C 196.71 90.39 204.88 83.91 199.23 81.87 M 205.35 87.19 C 205.61 90.03 200.93 90.37 202.86 93.09 C 206.05 97.57 198.59 97.12 196.88 100.08 C 202.13 99.96 207.11 96.59 204.10 91.23 C 207.41 92.71 208.50 86.05 205.35 87.19 M 197.29 92.30 C 189.05 97.68 207.80 90.71 197.29 92.30 M 209.05 99.86 C 205.29 100.37 202.30 102.04 198.26 102.29 C 194.69 107.10 202.78 106.13 205.11 103.60 C 209.01 109.28 201.13 108.41 198.88 111.05 C 203.40 111.49 210.24 108.82 207.16 103.30 C 210.97 104.39 211.91 98.12 209.05 99.86 M 211.48 112.36 C 210.68 114.96 205.56 112.84 207.60 116.34 C 210.13 121.15 202.95 121.39 200.05 121.13 C 202.75 124.50 212.65 121.34 209.09 115.15 C 212.18 116.81 215.14 111.60 211.48 112.36 M 212.49 124.48 C 212.22 124.73 211.68 125.24 211.41 125.49 C 202.47 122.41 211.89 132.90 204.98 131.99 C 190.53 132.63 213.87 137.22 209.30 128.08 C 212.74 129.83 214.25 124.59 212.49 124.48 M 200.10 135.29 C 197.19 139.89 201.49 139.79 206.14 138.95 C 207.40 141.28 207.06 143.58 204.33 144.42 C 202.87 147.88 208.07 144.85 208.08 142.92 C 208.10 139.22 213.96 142.33 213.01 137.16 C 208.66 136.79 204.30 136.53 200.10 135.29 Z" />
</g>
<g id="#724ed6ff">
<path fill="#724ed6" opacity="1.00" d=" M 58.18 34.55 C 63.77 29.62 69.93 25.30 76.52 21.82 C 76.86 22.18 77.54 22.91 77.88 23.27 C 79.02 25.11 81.22 25.06 83.13 25.28 C 79.44 28.12 74.31 30.21 72.96 35.10 C 68.78 40.73 61.75 42.87 56.19 46.76 C 55.12 45.06 53.82 43.53 52.64 41.91 C 54.09 39.40 58.95 37.86 58.18 34.55 M 72.25 27.35 C 69.82 29.10 66.23 30.21 64.89 32.97 C 67.99 34.19 76.93 29.16 72.25 27.35 Z" />
</g>
<g id="#916decff">
<path fill="#916dec" opacity="1.00" d=" M 83.13 25.28 C 86.37 23.97 89.63 22.66 93.05 21.91 C 91.88 23.05 86.77 25.41 91.02 25.15 C 84.87 28.21 78.89 31.63 72.96 35.10 C 74.31 30.21 79.44 28.12 83.13 25.28 Z" />
</g>
<g id="#322074ff">
<path fill="#322074" opacity="1.00" d=" M 164.82 21.97 C 174.41 24.25 181.47 32.10 188.89 38.09 C 207.78 56.28 217.88 81.99 220.46 107.76 C 220.10 109.27 219.70 110.77 219.30 112.27 C 217.31 85.99 206.35 59.65 186.80 41.65 C 181.02 33.48 171.64 29.09 164.82 21.97 Z" />
</g>
<g id="#7b57b8ff">
<path fill="#7b57b8" opacity="1.00" d=" M 121.33 26.23 C 126.56 26.85 118.48 32.88 121.33 26.23 Z" />
</g>
<g id="#7d5ab9ff">
<path fill="#7d5ab9" opacity="1.00" d=" M 132.34 31.04 C 135.23 24.53 128.67 26.30 132.34 31.04 Z" />
</g>
<g id="#4b2cb3ff">
<path fill="#4b2cb3" opacity="1.00" d=" M 72.25 27.35 C 76.93 29.16 67.99 34.19 64.89 32.97 C 66.23 30.21 69.82 29.10 72.25 27.35 Z" />
</g>
<g id="#7755adff">
<path fill="#7755ad" opacity="1.00" d=" M 111.85 31.01 C 116.23 26.52 107.96 26.13 111.85 31.01 Z" />
</g>
<g id="#7e5fb1ff">
<path fill="#7e5fb1" opacity="1.00" d=" M 142.24 28.18 C 145.37 26.87 143.30 30.41 142.81 31.86 C 140.08 33.24 140.54 28.96 142.24 28.18 Z" />
</g>
<g id="#7b69c2ff">
<path fill="#7b69c2" opacity="1.00" d=" M 204.64 41.80 C 202.16 36.00 193.66 33.06 192.79 27.52 C 204.64 36.55 214.85 47.94 222.03 60.99 C 226.92 68.40 228.71 77.32 233.03 84.87 C 232.41 86.83 232.19 88.87 233.11 90.78 C 231.11 89.94 229.19 88.94 227.25 87.99 C 224.14 86.99 224.19 84.76 225.53 82.24 C 221.31 79.84 223.76 75.21 220.92 72.11 C 218.38 61.04 210.34 51.68 204.64 41.80 Z" />
</g>
<g id="#7755afff">
<path fill="#7755af" opacity="1.00" d=" M 125.23 28.79 C 128.42 30.89 126.54 35.26 126.86 38.44 C 125.85 38.46 124.83 38.44 123.82 38.42 C 125.44 35.43 126.20 32.11 125.23 28.79 Z" />
</g>
<g id="#7958b0ff">
<path fill="#7958b0" opacity="1.00" d=" M 116.37 29.66 C 118.94 31.81 117.84 35.40 118.06 38.41 C 117.00 38.42 115.94 38.43 114.89 38.34 C 116.07 35.62 116.18 32.58 116.37 29.66 Z" />
</g>
<g id="#7554adff">
<path fill="#7554ad" opacity="1.00" d=" M 135.34 29.66 C 138.59 32.08 136.14 36.40 135.92 39.75 C 134.57 40.30 134.00 39.87 134.21 38.45 C 135.08 35.61 135.08 32.59 135.34 29.66 Z" />
</g>
<g id="#6e4ca5ff">
<path fill="#6e4ca5" opacity="1.00" d=" M 106.44 34.77 C 104.63 27.28 111.04 33.66 109.28 38.71 C 108.31 39.12 107.35 39.62 106.27 39.66 C 106.84 38.08 106.84 36.39 106.44 34.77 Z" />
</g>
<g id="#7654aeff">
<path fill="#7654ae" opacity="1.00" d=" M 111.85 31.01 C 115.54 30.52 112.73 35.89 113.21 38.25 C 111.97 38.74 109.39 41.29 110.13 38.35 C 110.78 35.92 111.28 33.46 111.85 31.01 Z" />
</g>
<g id="#7856afff">
<path fill="#7856af" opacity="1.00" d=" M 118.87 38.44 C 120.20 36.04 119.61 31.53 122.78 30.86 C 122.46 33.38 122.12 35.91 122.12 38.46 C 121.03 38.54 119.95 38.53 118.87 38.44 Z" />
</g>
<g id="#7453abff">
<path fill="#7453ab" opacity="1.00" d=" M 132.34 31.04 C 132.51 33.57 131.65 36.00 131.10 38.43 C 130.34 38.45 129.58 38.45 128.82 38.44 C 129.70 35.84 130.34 33.06 132.34 31.04 Z" />
</g>
<g id="#69479dff">
<path fill="#69479d" opacity="1.00" d=" M 101.70 32.90 C 103.56 30.24 103.19 36.71 104.03 38.16 C 100.93 38.70 102.25 34.76 101.70 32.90 Z" />
</g>
<g id="#7858abff">
<path fill="#7858ab" opacity="1.00" d=" M 152.41 32.23 C 155.04 31.24 152.91 36.28 151.24 35.64 C 150.60 34.44 151.66 33.11 152.41 32.23 Z" />
</g>
<g id="#66449aff">
<path fill="#66449a" opacity="1.00" d=" M 138.53 39.33 C 139.43 37.03 140.49 34.78 141.99 32.80 C 141.75 34.55 141.36 36.26 140.99 37.98 C 140.33 38.75 139.68 39.66 138.53 39.33 Z" />
</g>
<g id="#7151a6ff">
<path fill="#7151a6" opacity="1.00" d=" M 143.92 39.13 C 144.78 36.86 143.58 32.20 147.08 32.99 C 147.12 36.25 145.70 39.23 144.73 42.27 C 144.40 41.24 144.12 40.19 143.92 39.13 Z" />
</g>
<g id="#7b46b6ff">
<path fill="#7b46b6" opacity="1.00" d=" M 41.82 39.74 C 43.41 38.08 45.04 36.47 46.69 34.88 C 47.07 36.05 47.48 37.21 47.91 38.37 C 46.91 39.59 45.91 40.81 44.94 42.06 C 43.89 41.29 42.86 40.51 41.82 39.74 Z" />
</g>
<g id="#512ca2ff">
<path fill="#512ca2" opacity="1.00" d=" M 47.96 44.04 C 51.64 41.18 54.73 37.66 58.18 34.55 C 58.95 37.86 54.09 39.40 52.64 41.91 C 50.86 43.59 49.16 45.37 47.57 47.23 C 47.66 46.16 47.79 45.10 47.96 44.04 Z" />
</g>
<g id="#7652b2ff">
<path fill="#7652b2" opacity="1.00" d=" M 94.17 35.77 C 96.01 37.44 96.53 39.94 97.35 42.19 C 96.54 42.95 95.72 43.70 94.90 44.46 C 94.58 41.57 94.35 38.67 94.17 35.77 Z" />
</g>
<g id="#7655a9ff">
<path fill="#7655a9" opacity="1.00" d=" M 155.27 36.17 C 157.15 36.72 155.85 46.20 151.90 46.03 C 152.78 42.65 155.12 39.78 155.27 36.17 Z" />
</g>
<g id="#7b59aaff">
<path fill="#7b59aa" opacity="1.00" d=" M 162.22 36.17 C 165.54 34.82 162.70 38.68 161.78 39.83 C 158.46 41.18 161.30 37.32 162.22 36.17 Z" />
</g>
<g id="#ac86f0ff">
<path fill="#ac86f0" opacity="1.00" d=" M 188.98 35.97 C 193.65 39.67 196.55 45.09 200.88 49.15 C 200.90 48.40 200.95 46.89 200.97 46.13 C 204.07 48.77 206.05 52.39 209.01 55.15 C 223.92 77.19 226.83 105.25 226.21 131.17 L 226.03 131.96 C 222.14 152.04 215.44 171.56 204.91 189.17 C 197.46 201.57 187.46 212.14 176.12 221.04 C 170.90 220.83 167.58 227.72 162.37 225.24 C 184.48 212.05 201.96 191.28 211.26 167.30 C 219.36 148.69 222.12 127.89 220.46 107.76 C 217.88 81.99 207.78 56.28 188.89 38.09 C 188.91 37.56 188.95 36.50 188.98 35.97 Z" />
</g>
<g id="#704da5ff">
<path fill="#704da5" opacity="1.00" d=" M 90.11 37.01 C 92.65 36.95 92.93 44.82 90.12 46.15 C 90.81 43.13 90.64 40.05 90.11 37.01 Z" />
</g>
<g id="#7050a4ff">
<path fill="#7050a4" opacity="1.00" d=" M 147.83 40.93 C 148.86 39.27 149.74 37.16 151.87 36.71 C 151.25 38.46 150.50 40.17 149.77 41.88 C 148.31 44.63 147.68 43.86 147.83 40.93 Z" />
</g>
<g id="#ac82f8ff">
<path fill="#ac82f8" opacity="1.00" d=" M 109.28 38.71 L 110.13 38.35 C 109.39 41.29 111.97 38.74 113.21 38.25 C 113.63 38.27 114.47 38.32 114.89 38.34 C 115.94 38.43 117.00 38.42 118.06 38.41 L 118.87 38.44 C 119.95 38.53 121.03 38.54 122.12 38.46 C 122.54 38.45 123.40 38.43 123.82 38.42 C 124.83 38.44 125.85 38.46 126.86 38.44 C 127.51 38.45 128.17 38.45 128.82 38.44 C 129.58 38.45 130.34 38.45 131.10 38.43 C 132.13 38.45 133.17 38.45 134.21 38.45 C 134.00 39.87 134.57 40.30 135.92 39.75 C 136.79 39.60 137.66 39.46 138.53 39.33 C 139.68 39.66 140.33 38.75 140.99 37.98 C 140.24 41.40 142.11 41.44 143.92 39.13 C 144.12 40.19 144.40 41.24 144.73 42.27 C 145.12 44.33 147.38 41.89 147.83 40.93 C 147.68 43.86 148.31 44.63 149.77 41.88 C 151.69 48.31 153.63 55.20 156.89 61.17 C 151.88 58.20 146.80 55.12 141.09 53.74 C 137.16 52.58 133.05 52.14 128.97 51.92 C 101.83 48.55 82.62 71.52 70.26 92.38 C 66.97 93.98 66.36 90.33 64.76 88.33 C 60.40 88.54 55.91 88.79 52.12 86.25 C 52.91 82.63 55.11 79.54 56.38 76.08 C 58.90 75.55 58.22 71.37 56.08 74.13 C 55.53 71.59 50.90 69.27 54.49 66.99 C 54.10 69.88 59.51 73.47 58.69 69.14 C 57.00 65.50 62.11 69.20 61.32 65.35 C 61.49 65.07 61.82 64.53 61.99 64.26 C 63.18 64.56 64.19 64.14 65.00 63.27 C 65.69 64.58 66.53 62.51 66.90 62.00 C 67.12 61.54 67.55 60.61 67.77 60.15 C 68.52 60.31 69.27 60.34 70.03 60.23 C 71.25 60.26 71.66 59.40 71.79 58.36 C 72.49 57.58 73.31 56.88 73.82 55.95 C 74.07 55.50 74.57 54.59 74.82 54.14 C 75.47 54.26 76.12 54.35 76.77 54.42 C 80.53 54.02 84.54 51.29 86.73 48.24 C 87.31 47.13 87.85 46.01 88.35 44.86 C 89.25 48.57 93.27 46.41 94.90 44.46 C 95.72 43.70 96.54 42.95 97.35 42.19 C 100.72 42.54 102.98 39.36 106.27 39.66 C 107.35 39.62 108.31 39.12 109.28 38.71 Z" />
</g>
<g id="#b368d8ff">
<path fill="#b368d8" opacity="1.00" d=" M 22.63 58.94 C 28.98 52.48 35.37 46.09 41.82 39.74 C 42.86 40.51 43.89 41.29 44.94 42.06 C 42.49 45.32 39.99 48.55 37.36 51.66 C 32.58 52.71 30.02 58.44 26.19 61.28 C 24.99 60.51 23.81 59.73 22.63 58.94 Z" />
</g>
<g id="#422c76ff">
<path fill="#422c76" opacity="1.00" d=" M 212.97 41.03 C 213.81 40.01 215.02 40.19 215.75 41.21 C 227.17 52.59 238.44 64.12 250.00 75.35 L 250.00 77.29 C 237.17 65.71 225.98 52.44 212.97 41.03 Z" />
</g>
<g id="#6845a1ff">
<path fill="#6845a1" opacity="1.00" d=" M 86.73 48.24 C 86.30 44.22 85.57 37.92 88.35 44.86 C 87.85 46.01 87.31 47.13 86.73 48.24 Z" />
</g>
<g id="#7758aaff">
<path fill="#7758aa" opacity="1.00" d=" M 159.37 41.30 C 162.74 40.16 158.37 48.25 155.91 48.05 C 156.30 45.48 157.97 43.40 159.37 41.30 Z" />
</g>
<g id="#7151a1ff">
<path fill="#7151a1" opacity="1.00" d=" M 164.26 40.92 C 167.98 43.16 163.49 48.45 160.93 50.12 C 161.41 46.80 164.51 44.49 164.26 40.92 Z" />
</g>
<g id="#a17eeaff">
<path fill="#a17eea" opacity="1.00" d=" M 29.72 63.93 C 37.04 57.72 40.39 48.04 47.84 41.89 C 47.87 42.42 47.93 43.50 47.96 44.04 C 47.79 45.10 47.66 46.16 47.57 47.23 C 47.17 47.75 46.75 48.26 46.32 48.75 C 42.73 49.50 40.74 53.13 38.94 55.95 C 28.28 71.76 20.34 89.80 17.71 108.77 C 16.13 120.39 14.66 132.52 16.83 144.05 C 18.17 158.35 22.60 172.21 29.01 185.01 C 35.31 198.29 45.41 209.58 57.02 218.47 C 67.36 226.83 79.42 233.83 92.74 235.86 C 115.92 241.08 141.26 238.26 161.63 225.56 L 162.37 225.24 C 167.58 227.72 170.90 220.83 176.12 221.04 C 170.57 226.12 164.18 230.23 157.27 233.20 C 137.19 236.95 117.09 242.86 96.29 239.32 C 83.30 236.63 70.65 231.46 59.93 223.58 C 58.41 222.34 56.79 221.23 55.15 220.16 C 49.46 215.42 44.72 209.64 38.90 205.06 C 34.83 199.63 32.71 192.67 27.92 187.81 C 29.90 194.42 34.14 200.18 38.90 205.06 C 42.55 211.33 48.90 215.35 52.95 221.32 C 51.25 220.29 49.57 219.22 47.90 218.15 C 46.66 216.04 44.86 214.35 42.85 212.99 C 35.66 205.44 29.17 197.06 25.38 187.25 C 25.47 185.50 25.02 183.80 24.58 182.13 C 24.20 179.45 23.56 171.21 20.43 173.13 C 19.44 170.94 18.68 168.64 18.32 166.26 C 18.89 158.13 15.00 150.19 15.23 141.96 C 13.79 140.26 16.50 135.43 13.24 134.65 C 12.98 130.62 12.74 126.58 12.16 122.57 C 12.22 109.73 15.38 97.08 19.55 85.01 C 20.18 83.40 20.71 81.75 21.22 80.10 C 23.99 74.67 26.09 68.88 29.72 63.93 Z" />
</g>
<g id="#b18df7ff">
<path fill="#b18df7" opacity="1.00" d=" M 47.57 47.23 C 49.16 45.37 50.86 43.59 52.64 41.91 C 53.82 43.53 55.12 45.06 56.19 46.76 C 53.31 50.08 50.50 53.45 47.83 56.95 C 46.97 57.99 46.11 59.03 45.22 60.04 C 42.70 60.42 40.22 62.33 37.71 60.92 C 40.03 56.48 42.91 52.41 46.32 48.75 C 46.75 48.26 47.17 47.75 47.57 47.23 Z" />
</g>
<g id="#6e4ba7ff">
<path fill="#6e4ba7" opacity="1.00" d=" M 82.17 42.35 C 83.61 42.01 83.30 46.43 83.90 48.01 C 83.58 54.01 80.11 43.74 82.17 42.35 Z" />
</g>
<g id="#7757a4ff">
<path fill="#7757a4" opacity="1.00" d=" M 171.41 42.22 C 174.46 41.38 172.20 46.37 170.22 45.63 C 169.60 44.43 170.63 43.07 171.41 42.22 Z" />
</g>
<g id="#c1a0f1ff">
<path fill="#c1a0f1" opacity="1.00" d=" M 208.33 166.35 C 227.39 125.29 217.08 74.45 186.80 41.65 C 206.35 59.65 217.31 85.99 219.30 112.27 C 220.40 131.09 217.07 149.62 210.21 167.08 C 200.95 188.73 185.29 207.68 165.25 220.16 C 163.59 220.85 161.91 221.51 160.23 222.18 L 160.03 221.13 C 179.59 210.20 195.40 193.45 205.27 173.34 C 206.50 171.11 207.56 168.78 208.33 166.35 Z" />
</g>
<g id="#4c30aeff">
<path fill="#4c30ae" opacity="1.00" d=" M 203.82 46.03 C 204.06 44.61 204.34 43.21 204.64 41.80 C 210.34 51.68 218.38 61.04 220.92 72.11 C 223.76 75.21 221.31 79.84 225.53 82.24 C 224.19 84.76 224.14 86.99 227.25 87.99 C 226.60 91.65 225.84 94.95 229.65 97.26 C 226.96 99.57 227.65 101.71 229.91 104.11 C 226.99 108.12 231.24 110.86 230.15 114.98 C 232.37 112.87 234.98 113.90 237.35 115.18 C 236.91 116.41 236.44 117.62 236.01 118.85 C 234.11 118.84 229.04 115.20 230.13 118.85 C 232.48 120.54 235.31 121.33 238.03 122.23 C 237.22 123.65 236.12 124.87 235.00 126.05 C 232.59 126.03 230.49 124.83 228.99 123.01 C 230.36 120.89 229.81 119.17 227.21 118.74 C 226.70 122.84 227.40 127.15 226.21 131.17 C 226.83 105.25 223.92 77.19 209.01 55.15 C 208.16 51.67 205.97 48.81 203.82 46.03 Z" />
</g>
<g id="#6f4da7ff">
<path fill="#6f4da7" opacity="1.00" d=" M 76.94 44.91 C 79.08 46.22 83.13 51.78 78.28 52.22 C 79.47 49.64 77.43 47.38 76.94 44.91 Z" />
</g>
<g id="#6c49a6ff">
<path fill="#6c49a6" opacity="1.00" d=" M 74.82 54.14 C 74.78 51.78 72.09 48.66 74.58 46.92 C 75.21 49.45 75.90 51.96 76.77 54.42 C 76.12 54.35 75.47 54.26 74.82 54.14 Z" />
</g>
<g id="#6c4c9cff">
<path fill="#6c4c9c" opacity="1.00" d=" M 168.27 47.24 C 171.87 46.22 166.35 51.86 164.94 53.14 C 165.20 50.82 166.41 48.66 168.27 47.24 Z" />
</g>
<g id="#6c4d9aff">
<path fill="#6c4d9a" opacity="1.00" d=" M 173.37 47.32 C 175.31 48.24 172.31 55.84 168.91 56.05 C 169.72 52.85 172.97 50.83 173.37 47.32 Z" />
</g>
<g id="#411d99ff">
<path fill="#411d99" opacity="1.00" d=" M 38.94 55.95 C 40.74 53.13 42.73 49.50 46.32 48.75 C 42.91 52.41 40.03 56.48 37.71 60.92 C 30.56 72.03 24.90 84.04 21.71 96.91 C 20.19 101.55 19.24 106.37 18.62 111.20 C 18.39 110.59 17.93 109.38 17.71 108.77 C 20.34 89.80 28.28 71.76 38.94 55.95 Z" />
</g>
<g id="#7857a7ff">
<path fill="#7857a7" opacity="1.00" d=" M 180.29 49.27 C 183.61 47.51 179.94 53.73 177.93 53.05 C 177.74 51.33 179.04 50.20 180.29 49.27 Z" />
</g>
<g id="#7935d6ff">
<path fill="#7935d6" opacity="1.00" d=" M 70.26 92.38 C 82.62 71.52 101.83 48.55 128.97 51.92 C 132.91 54.59 131.47 59.64 132.38 63.67 C 133.29 69.29 139.11 72.86 139.21 78.75 C 136.07 79.08 132.48 78.89 130.04 81.21 C 130.01 84.33 131.71 88.05 134.91 88.99 C 139.39 89.23 143.05 91.75 146.09 94.77 C 142.59 96.38 139.02 96.18 136.28 93.36 C 133.54 97.37 127.36 97.20 125.74 101.97 C 125.48 102.41 124.96 103.29 124.69 103.73 C 120.71 108.40 119.03 115.91 122.82 121.11 C 129.14 127.93 134.57 138.17 146.19 133.81 C 148.93 135.59 149.48 138.91 147.16 141.27 C 146.83 141.41 146.15 141.68 145.82 141.82 C 145.43 141.93 144.64 142.15 144.25 142.27 C 139.42 142.18 134.60 142.13 129.77 142.17 C 125.62 140.69 121.88 138.30 118.14 136.00 C 116.90 132.06 111.81 132.53 110.01 129.19 C 117.45 122.58 120.99 104.98 110.11 100.87 C 109.35 96.79 107.57 93.35 102.21 94.58 C 97.33 90.22 84.37 99.92 87.89 89.86 C 89.27 88.52 90.83 87.26 92.70 86.69 C 96.53 85.77 101.85 88.60 105.24 86.20 C 107.18 83.60 108.85 79.54 105.76 77.07 C 95.95 75.10 80.31 80.48 79.84 92.10 C 81.57 94.56 87.92 92.86 85.19 97.14 C 80.12 103.66 70.20 117.17 60.69 109.73 C 63.48 103.73 66.78 98.00 70.26 92.38 Z" />
</g>
<g id="#8041d7ff">
<path fill="#8041d7" opacity="1.00" d=" M 128.97 51.92 C 133.05 52.14 137.16 52.58 141.09 53.74 C 136.01 61.76 145.48 69.42 148.63 76.34 C 153.12 84.09 161.98 90.89 171.28 88.29 C 176.76 86.31 170.18 82.54 171.16 78.73 C 173.98 82.68 176.27 87.00 177.74 91.64 C 177.18 93.91 178.34 96.03 179.04 98.12 C 173.35 93.16 164.65 100.89 160.31 95.82 C 156.48 87.17 148.89 79.96 139.21 78.75 C 139.11 72.86 133.29 69.29 132.38 63.67 C 131.47 59.64 132.91 54.59 128.97 51.92 Z" />
</g>
<g id="#724faaff">
<path fill="#724faa" opacity="1.00" d=" M 65.89 52.96 C 69.17 53.18 68.20 58.07 70.03 60.23 C 69.27 60.34 68.52 60.31 67.77 60.15 C 67.19 57.74 66.32 55.41 65.89 52.96 Z" />
</g>
<g id="#7450b3ff">
<path fill="#7450b3" opacity="1.00" d=" M 71.79 58.36 C 71.15 54.57 70.86 51.21 73.82 55.95 C 73.31 56.88 72.49 57.58 71.79 58.36 Z" />
</g>
<g id="#8b50deff">
<path fill="#8b50de" opacity="1.00" d=" M 141.09 53.74 C 146.80 55.12 151.88 58.20 156.89 61.17 C 163.08 65.68 167.33 72.22 171.16 78.73 C 170.18 82.54 176.76 86.31 171.28 88.29 C 161.98 90.89 153.12 84.09 148.63 76.34 C 145.48 69.42 136.01 61.76 141.09 53.74 Z" />
</g>
<g id="#6e4f9dff">
<path fill="#6e4f9d" opacity="1.00" d=" M 177.14 54.29 C 179.35 53.61 173.89 59.53 171.91 59.05 C 173.17 56.82 174.91 55.23 177.14 54.29 Z" />
</g>
<g id="#7455a2ff">
<path fill="#7455a2" opacity="1.00" d=" M 180.25 53.87 C 185.88 54.79 179.64 62.99 176.02 63.13 C 177.35 60.06 181.83 57.52 180.25 53.87 Z" />
</g>
<g id="#331ba0ff">
<path fill="#331ba0" opacity="1.00" d=" M 45.22 60.04 C 46.11 59.03 46.97 57.99 47.83 56.95 C 48.94 57.74 50.07 58.48 51.25 59.17 C 48.97 62.40 46.78 65.67 44.64 68.99 C 44.03 69.88 43.43 70.77 42.81 71.66 C 39.11 74.19 36.92 78.67 37.03 83.14 C 31.79 95.09 28.31 107.81 26.78 120.77 C 26.30 123.60 26.38 140.51 24.38 128.29 C 21.18 118.04 27.44 108.04 26.79 97.72 C 28.07 94.50 29.42 91.28 30.06 87.86 C 33.09 79.63 35.74 71.09 40.36 63.58 C 42.89 64.03 44.16 61.98 45.22 60.04 Z" />
</g>
<g id="#8362b3ff">
<path fill="#8362b3" opacity="1.00" d=" M 185.06 62.02 C 184.87 59.75 187.06 58.03 188.86 57.11 C 191.28 58.56 187.96 60.45 186.89 61.65 C 186.43 61.74 185.52 61.93 185.06 62.02 Z" />
</g>
<g id="#7956b7ff">
<path fill="#7956b7" opacity="1.00" d=" M 63.01 57.83 C 64.48 59.04 65.74 60.48 66.90 62.00 C 66.53 62.51 65.69 64.58 65.00 63.27 C 64.36 61.45 63.59 59.67 63.01 57.83 Z" />
</g>
<g id="#59278fff">
<path fill="#59278f" opacity="1.00" d=" M 5.76 77.01 C 9.70 69.74 17.31 65.17 22.63 58.94 C 23.81 59.73 24.99 60.51 26.19 61.28 C 23.23 63.98 20.81 68.70 16.23 67.42 C 12.65 70.52 10.33 75.12 5.76 77.01 Z" />
</g>
<g id="#8864eaff">
<path fill="#8864ea" opacity="1.00" d=" M 37.71 60.92 C 40.22 62.33 42.70 60.42 45.22 60.04 C 44.16 61.98 42.89 64.03 40.36 63.58 C 35.74 71.09 33.09 79.63 30.06 87.86 C 26.95 90.57 26.09 96.32 21.71 96.91 C 24.90 84.04 30.56 72.03 37.71 60.92 Z" />
</g>
<g id="#7351aeff">
<path fill="#7351ae" opacity="1.00" d=" M 61.32 65.35 C 56.97 61.81 61.55 57.63 61.99 64.26 C 61.82 64.53 61.49 65.07 61.32 65.35 Z" />
</g>
<g id="#7353a4ff">
<path fill="#7353a4" opacity="1.00" d=" M 178.97 67.11 C 179.42 64.41 182.57 62.64 185.06 62.02 C 183.40 64.16 181.85 66.60 178.97 67.11 Z" />
</g>
<g id="#7454a2ff">
<path fill="#7454a2" opacity="1.00" d=" M 186.89 61.65 C 193.08 63.04 186.76 71.06 182.94 71.06 C 183.78 67.58 190.66 66.18 186.89 61.65 Z" />
</g>
<g id="#795bacff">
<path fill="#795bac" opacity="1.00" d=" M 195.44 66.21 C 198.60 67.02 195.04 69.45 193.92 70.72 C 189.47 71.79 194.58 67.75 195.44 66.21 Z" />
</g>
<g id="#a982f2ff">
<path fill="#a982f2" opacity="1.00" d=" M 42.81 71.66 C 43.43 70.77 44.03 69.88 44.64 68.99 C 48.57 70.16 52.78 71.75 54.44 75.88 C 50.55 83.77 46.99 91.84 43.81 100.03 C 41.18 99.74 38.76 98.58 36.18 98.13 C 34.01 99.76 34.40 102.62 34.19 104.99 C 39.48 106.80 34.41 96.37 41.98 101.02 C 43.92 100.61 42.72 103.53 43.09 104.61 C 40.66 104.36 36.96 102.86 37.81 106.80 C 39.35 105.55 43.62 104.53 42.86 107.77 C 40.63 110.65 36.05 107.27 33.25 108.23 C 30.60 113.73 30.66 120.04 30.07 126.00 C 36.42 128.17 33.20 114.42 41.67 120.81 C 40.64 123.98 35.07 121.62 35.85 125.62 C 37.67 125.44 39.48 125.20 41.30 125.03 C 41.82 132.69 26.26 123.36 30.05 133.03 C 31.66 143.14 30.84 154.57 36.23 163.55 C 35.90 165.80 34.56 167.68 33.11 169.35 C 29.81 160.49 28.22 151.12 26.79 141.81 C 27.00 134.80 27.16 127.78 26.78 120.77 C 28.31 107.81 31.79 95.09 37.03 83.14 C 39.24 79.46 41.35 75.70 42.81 71.66 Z" />
</g>
<g id="#7858a7ff">
<path fill="#7858a7" opacity="1.00" d=" M 191.09 71.03 C 190.73 73.69 187.39 75.12 184.94 75.02 C 186.37 73.15 188.42 71.82 191.09 71.03 Z" />
</g>
<g id="#8060b0ff">
<path fill="#8060b0" opacity="1.00" d=" M 193.92 70.72 C 200.01 74.58 191.98 79.36 187.90 81.05 C 188.60 76.87 195.99 76.24 193.92 70.72 Z" />
</g>
<g id="#5c41bbff">
<path fill="#5c41bb" opacity="1.00" d=" M 37.03 83.14 C 36.92 78.67 39.11 74.19 42.81 71.66 C 41.35 75.70 39.24 79.46 37.03 83.14 Z" />
</g>
<g id="#623ca6ff">
<path fill="#623ca6" opacity="1.00" d=" M 56.08 74.13 C 58.22 71.37 58.90 75.55 56.38 76.08 C 56.30 75.59 56.15 74.62 56.08 74.13 Z" />
</g>
<g id="#956aebff">
<path fill="#956aeb" opacity="1.00" d=" M 54.44 75.88 C 54.93 75.93 55.89 76.03 56.38 76.08 C 55.11 79.54 52.91 82.63 52.12 86.25 C 55.91 88.79 60.40 88.54 64.76 88.33 C 66.36 90.33 66.97 93.98 70.26 92.38 C 66.78 98.00 63.48 103.73 60.69 109.73 C 58.97 113.03 57.36 116.40 55.71 119.74 C 54.62 121.75 53.55 123.77 52.56 125.83 C 50.70 129.30 49.47 133.05 48.14 136.74 C 46.30 139.44 45.07 142.47 43.45 145.29 C 43.12 144.95 42.47 144.28 42.14 143.94 C 43.14 141.36 43.70 139.13 40.74 141.72 C 40.91 141.13 41.24 139.97 41.41 139.38 C 41.98 138.13 44.37 135.84 41.61 135.80 C 40.42 135.42 39.21 135.11 37.98 134.88 C 40.20 134.23 42.94 133.73 41.72 130.80 C 36.82 125.61 28.10 140.73 35.02 138.17 C 33.25 140.17 35.04 140.22 36.95 140.08 C 36.17 142.91 33.41 146.91 34.68 149.22 C 35.93 149.99 37.42 149.92 38.84 149.94 C 37.07 152.69 36.86 156.06 36.71 159.23 C 36.68 160.68 36.64 162.15 36.23 163.55 C 30.84 154.57 31.66 143.14 30.05 133.03 C 26.26 123.36 41.82 132.69 41.30 125.03 C 41.64 123.65 41.99 122.22 41.67 120.81 C 33.20 114.42 36.42 128.17 30.07 126.00 C 30.66 120.04 30.60 113.73 33.25 108.23 C 36.05 107.27 40.63 110.65 42.86 107.77 C 43.62 104.53 39.35 105.55 37.81 106.80 C 36.96 102.86 40.66 104.36 43.09 104.61 C 42.72 103.53 43.92 100.61 41.98 101.02 C 34.41 96.37 39.48 106.80 34.19 104.99 C 34.40 102.62 34.01 99.76 36.18 98.13 C 38.76 98.58 41.18 99.74 43.81 100.03 C 46.99 91.84 50.55 83.77 54.44 75.88 M 36.17 111.03 C 35.10 112.93 34.88 115.43 32.12 115.32 C 30.93 120.03 37.81 118.03 41.02 118.90 C 42.09 115.43 38.34 115.11 35.93 115.86 C 35.65 112.67 38.77 112.89 40.91 113.64 C 44.30 111.08 38.97 109.01 36.17 111.03 Z" />
</g>
<g id="#7b59acff">
<path fill="#7b59ac" opacity="1.00" d=" M 200.27 75.83 C 205.00 77.07 201.17 80.94 197.95 81.10 C 197.60 78.49 202.05 78.62 200.27 75.83 Z" />
</g>
<g id="#120921ff">
<path fill="#120921" opacity="1.00" d=" M 79.84 92.10 C 80.31 80.48 95.95 75.10 105.76 77.07 C 108.85 79.54 107.18 83.60 105.24 86.20 C 101.12 86.58 96.71 85.33 92.70 86.69 C 90.83 87.26 89.27 88.52 87.89 89.86 C 85.83 92.18 82.75 92.02 79.84 92.10 Z" />
</g>
<g id="#130921ff">
<path fill="#130921" opacity="1.00" d=" M 130.04 81.21 C 132.48 78.89 136.07 79.08 139.21 78.75 C 148.89 79.96 156.48 87.17 160.31 95.82 C 160.22 96.65 160.05 98.32 159.97 99.16 C 150.85 97.50 145.45 86.63 134.91 88.99 C 131.71 88.05 130.01 84.33 130.04 81.21 Z" />
</g>
<g id="#522885ff">
<path fill="#522885" opacity="1.00" d=" M 0.00 91.07 C 9.57 93.39 14.86 85.73 21.22 80.10 C 20.71 81.75 20.18 83.40 19.55 85.01 C 17.40 82.91 16.48 87.59 14.97 87.96 C 12.16 93.87 5.02 91.35 0.00 92.08 L 0.00 91.07 Z" />
</g>
<g id="#7857a9ff">
<path fill="#7857a9" opacity="1.00" d=" M 194.35 81.39 C 198.77 80.71 192.94 84.86 190.85 84.96 C 190.91 82.96 192.96 82.34 194.35 81.39 Z" />
</g>
<g id="#6f4fa1ff">
<path fill="#6f4fa1" opacity="1.00" d=" M 199.23 81.87 C 204.88 83.91 196.71 90.39 192.89 90.05 C 194.68 86.93 201.85 86.50 199.23 81.87 Z" />
</g>
<g id="#301056ff">
<path fill="#301056" opacity="1.00" d=" M 14.97 87.96 C 16.48 87.59 17.40 82.91 19.55 85.01 C 15.38 97.08 12.22 109.73 12.16 122.57 C 12.35 127.88 8.33 130.98 4.99 134.23 C 7.40 134.07 9.11 132.39 10.91 131.00 C 11.09 133.44 11.34 135.87 11.65 138.30 C 12.02 145.99 13.29 153.61 15.40 161.02 C 10.33 162.06 5.15 162.06 0.00 162.01 L 0.00 92.08 C 5.02 91.35 12.16 93.87 14.97 87.96 Z" />
</g>
<g id="#392575ff">
<path fill="#392575" opacity="1.00" d=" M 233.03 84.87 C 238.96 90.09 244.28 95.94 250.00 101.38 L 250.00 102.39 C 243.96 98.40 239.57 92.52 234.10 87.87 C 234.07 88.69 234.00 90.34 233.97 91.16 L 233.11 90.78 C 232.19 88.87 232.41 86.83 233.03 84.87 Z" />
</g>
<g id="#39176dff">
<path fill="#39176d" opacity="1.00" d=" M 92.70 86.69 C 96.71 85.33 101.12 86.58 105.24 86.20 C 101.85 88.60 96.53 85.77 92.70 86.69 Z" />
</g>
<g id="#7b59aeff">
<path fill="#7b59ae" opacity="1.00" d=" M 205.35 87.19 C 208.50 86.05 207.41 92.71 204.10 91.23 C 207.11 96.59 202.13 99.96 196.88 100.08 C 198.59 97.12 206.05 97.57 202.86 93.09 C 200.93 90.37 205.61 90.03 205.35 87.19 Z" />
</g>
<g id="#6543d4ff">
<path fill="#6543d4" opacity="1.00" d=" M 21.71 96.91 C 26.09 96.32 26.95 90.57 30.06 87.86 C 29.42 91.28 28.07 94.50 26.79 97.72 C 23.32 104.68 22.59 112.75 18.25 119.36 C 18.27 116.59 18.44 113.93 18.62 111.20 C 19.24 106.37 20.19 101.55 21.71 96.91 Z" />
</g>
<g id="#8a79d9ff">
<path fill="#8a79d9" opacity="1.00" d=" M 227.25 87.99 C 229.19 88.94 231.11 89.94 233.11 90.78 L 233.97 91.16 C 234.07 91.64 234.26 92.61 234.36 93.10 C 232.61 92.22 230.80 91.40 228.89 90.93 C 228.77 94.62 233.05 95.54 235.09 97.94 C 235.44 98.27 236.13 98.93 236.48 99.26 C 233.93 100.26 230.26 97.74 228.87 100.86 C 230.89 101.88 233.05 102.58 235.19 103.31 C 235.90 104.83 236.63 106.35 237.11 107.97 C 234.65 106.13 231.22 105.29 229.92 108.88 C 231.75 110.12 233.88 110.78 236.02 111.23 C 236.72 112.45 238.44 113.68 237.35 115.18 C 234.98 113.90 232.37 112.87 230.15 114.98 C 231.24 110.86 226.99 108.12 229.91 104.11 C 227.65 101.71 226.96 99.57 229.65 97.26 C 225.84 94.95 226.60 91.65 227.25 87.99 Z" />
</g>
<g id="#231456ff">
<path fill="#231456" opacity="1.00" d=" M 234.10 87.87 C 239.57 92.52 243.96 98.40 250.00 102.39 L 250.00 163.00 C 242.25 162.95 234.49 163.23 226.74 162.89 C 228.79 161.90 231.38 161.70 232.83 159.76 C 232.67 157.08 232.05 154.29 234.19 152.18 C 235.55 149.02 228.26 149.69 226.67 146.98 L 227.61 146.92 C 231.22 147.23 235.51 148.16 236.14 143.82 C 234.51 141.57 231.49 141.62 229.13 140.64 C 228.43 135.81 236.02 141.25 236.41 137.33 C 237.95 135.28 235.96 134.44 234.19 133.90 C 228.86 131.06 236.61 133.71 237.44 130.15 C 239.01 128.19 236.27 127.04 235.00 126.05 C 236.12 124.87 237.22 123.65 238.03 122.23 C 237.43 121.05 236.73 119.94 236.01 118.85 C 236.44 117.62 236.91 116.41 237.35 115.18 C 238.44 113.68 236.72 112.45 236.02 111.23 C 236.43 110.16 236.79 109.07 237.11 107.97 C 236.63 106.35 235.90 104.83 235.19 103.31 C 235.54 102.07 237.51 100.41 236.48 99.26 C 236.13 98.93 235.44 98.27 235.09 97.94 C 234.76 96.34 234.58 94.72 234.36 93.10 C 234.26 92.61 234.07 91.64 233.97 91.16 C 234.00 90.34 234.07 88.69 234.10 87.87 Z" />
</g>
<g id="#6c2ac8ff">
<path fill="#6c2ac8" opacity="1.00" d=" M 134.91 88.99 C 145.45 86.63 150.85 97.50 159.97 99.16 C 158.98 100.47 157.47 101.23 156.23 102.27 C 159.81 106.29 161.37 112.12 166.73 114.33 C 173.34 117.38 183.58 121.89 181.46 130.90 C 184.70 139.22 177.31 145.51 170.62 148.58 C 154.87 153.63 147.91 174.38 129.13 172.30 C 113.83 171.06 98.13 172.18 83.09 168.91 C 72.91 164.12 67.00 154.31 62.58 144.49 C 57.17 143.06 52.95 139.36 48.14 136.74 C 49.47 133.05 50.70 129.30 52.56 125.83 C 54.42 136.97 65.36 139.27 74.81 139.13 C 77.76 142.31 81.01 145.22 83.73 148.61 C 83.91 154.20 91.70 155.39 94.10 160.15 C 85.15 159.11 79.14 151.58 71.95 147.00 C 67.48 148.92 72.29 154.36 74.11 156.88 C 87.24 172.59 109.31 165.40 127.04 168.87 C 143.62 169.46 152.80 153.44 163.40 143.44 C 169.25 143.45 173.56 140.04 175.70 134.70 C 176.53 127.76 170.95 121.85 164.03 120.99 C 159.34 121.50 159.09 116.94 157.80 114.04 C 155.87 108.36 151.28 103.63 145.99 100.96 C 139.88 97.88 131.99 96.72 126.54 101.71 L 125.74 101.97 C 127.36 97.20 133.54 97.37 136.28 93.36 C 139.02 96.18 142.59 96.38 146.09 94.77 C 143.05 91.75 139.39 89.23 134.91 88.99 Z" />
</g>
<g id="#6c2fc3ff">
<path fill="#6c2fc3" opacity="1.00" d=" M 79.84 92.10 C 82.75 92.02 85.83 92.18 87.89 89.86 C 84.37 99.92 97.33 90.22 102.21 94.58 C 107.57 93.35 109.35 96.79 110.11 100.87 C 101.88 93.28 86.78 94.48 83.39 106.64 C 81.21 113.35 81.26 124.08 89.88 126.14 C 102.96 132.92 113.09 117.79 112.73 106.31 C 112.38 104.78 111.51 103.49 110.21 102.60 C 110.19 102.17 110.14 101.30 110.11 100.87 C 120.99 104.98 117.45 122.58 110.01 129.19 C 111.81 132.53 116.90 132.06 118.14 136.00 C 116.15 135.31 114.22 134.45 112.20 133.86 C 108.48 132.93 104.39 132.44 100.69 133.70 C 93.03 136.99 85.02 142.88 77.21 136.77 C 76.84 136.40 76.12 135.66 75.76 135.29 C 74.12 129.95 78.31 121.84 72.34 118.62 C 66.83 115.80 61.13 118.29 55.71 119.74 C 57.36 116.40 58.97 113.03 60.69 109.73 C 70.20 117.17 80.12 103.66 85.19 97.14 C 87.92 92.86 81.57 94.56 79.84 92.10 Z" />
</g>
<g id="#5d4ea2ff">
<path fill="#5d4ea2" opacity="1.00" d=" M 228.89 90.93 C 230.80 91.40 232.61 92.22 234.36 93.10 C 234.58 94.72 234.76 96.34 235.09 97.94 C 233.05 95.54 228.77 94.62 228.89 90.93 Z" />
</g>
<g id="#6830b4ff">
<path fill="#6830b4" opacity="1.00" d=" M 179.04 98.12 C 178.34 96.03 177.18 93.91 177.74 91.64 C 185.67 108.67 190.93 126.80 196.21 144.78 C 196.17 145.58 196.10 147.17 196.06 147.97 C 189.83 131.65 186.29 114.15 179.04 98.12 Z" />
</g>
<g id="#7c5bacff">
<path fill="#7c5bac" opacity="1.00" d=" M 197.29 92.30 C 207.80 90.71 189.05 97.68 197.29 92.30 Z" />
</g>
<g id="#3b167fff">
<path fill="#3b167f" opacity="1.00" d=" M 83.39 106.64 C 86.78 94.48 101.88 93.28 110.11 100.87 C 110.14 101.30 110.19 102.17 110.21 102.60 C 101.10 102.38 91.45 103.49 84.67 110.32 C 84.23 109.10 83.81 107.87 83.39 106.64 Z" />
</g>
<g id="#7831d8ff">
<path fill="#7831d8" opacity="1.00" d=" M 160.31 95.82 C 164.65 100.89 173.35 93.16 179.04 98.12 C 186.29 114.15 189.83 131.65 196.06 147.97 C 198.17 150.37 198.99 152.52 194.92 151.20 C 193.99 154.98 198.04 155.54 200.33 157.26 L 199.73 158.12 C 197.64 157.88 194.62 154.94 193.19 157.28 C 191.50 161.81 199.77 159.76 199.09 164.10 C 195.68 163.39 190.85 158.55 190.75 164.81 L 190.43 165.74 C 185.20 170.20 196.58 171.19 192.96 174.94 C 190.03 173.29 185.92 168.56 185.82 174.74 L 185.54 175.68 C 179.28 178.28 187.89 180.70 188.11 184.13 C 184.87 184.58 181.79 177.85 179.90 182.19 C 178.93 179.75 178.61 182.94 178.12 183.93 C 175.30 187.77 180.47 189.72 181.13 193.13 C 177.96 192.70 176.53 188.27 173.00 189.55 C 171.14 188.55 170.85 189.95 170.84 191.61 C 168.45 195.35 173.23 197.48 173.11 201.09 C 169.88 201.15 166.74 191.88 165.50 198.82 C 165.36 199.11 165.08 199.70 164.93 199.99 C 158.91 197.05 164.37 204.23 164.77 206.79 C 161.56 210.10 161.36 200.35 157.05 202.38 C 156.10 202.28 155.11 202.27 154.77 203.36 C 151.54 205.96 154.91 209.04 155.83 211.91 C 152.87 215.95 150.66 202.03 148.69 209.09 C 147.50 205.10 143.45 208.12 141.54 209.82 C 140.65 210.14 139.75 210.44 138.85 210.74 L 137.90 211.01 C 133.14 211.19 136.24 216.14 136.02 219.04 C 131.42 219.65 135.40 209.93 129.89 212.85 L 128.93 212.95 C 123.92 211.94 126.60 218.20 125.79 221.27 C 122.75 219.10 126.04 212.64 120.91 213.96 C 120.44 213.97 119.50 213.99 119.03 214.00 C 114.70 213.20 118.79 220.10 115.08 221.24 C 114.13 218.37 114.50 215.15 112.98 212.50 C 111.69 212.47 109.11 212.40 107.82 212.37 C 107.12 215.09 107.43 218.28 105.31 220.40 C 105.19 217.49 105.03 214.58 104.81 211.68 C 104.92 209.95 102.19 211.31 101.13 210.99 C 96.77 210.20 99.25 217.45 95.06 217.12 C 95.26 214.30 96.71 211.25 94.85 208.68 C 94.58 207.48 93.09 208.66 92.30 208.54 C 88.96 207.26 89.35 212.21 87.84 214.07 C 84.03 212.49 90.01 207.95 86.37 205.73 C 86.11 202.01 79.47 199.67 75.95 198.70 C 75.56 198.76 74.77 198.89 74.38 198.95 C 73.85 198.67 72.80 198.12 72.27 197.85 C 72.01 197.25 71.49 196.07 71.23 195.48 C 71.11 194.09 70.17 194.35 69.23 194.80 C 68.30 190.26 65.60 197.73 62.87 197.11 C 63.46 194.28 66.19 191.99 65.50 188.94 C 65.73 187.84 63.54 185.35 63.07 186.99 C 62.65 186.72 61.81 186.18 61.39 185.91 C 61.03 185.44 60.33 184.52 59.98 184.05 C 59.72 183.47 59.22 182.31 58.96 181.73 C 58.62 180.70 58.13 179.67 57.12 179.15 L 56.45 178.66 C 57.06 175.52 55.84 171.30 52.20 170.88 C 49.83 171.58 47.91 173.21 45.74 174.32 C 45.61 170.53 50.96 169.79 50.03 165.86 C 49.65 164.42 49.01 163.08 48.45 161.71 C 48.26 158.79 47.98 155.76 45.52 153.92 C 43.63 152.86 41.13 155.18 38.93 155.10 C 38.34 151.67 44.17 152.73 43.06 148.93 C 41.62 149.15 40.22 149.53 38.84 149.94 C 37.42 149.92 35.93 149.99 34.68 149.22 C 37.62 148.05 41.83 148.39 43.45 145.29 C 45.07 142.47 46.30 139.44 48.14 136.74 C 52.95 139.36 57.17 143.06 62.58 144.49 C 67.00 154.31 72.91 164.12 83.09 168.91 C 98.13 172.18 113.83 171.06 129.13 172.30 C 147.91 174.38 154.87 153.63 170.62 148.58 C 177.31 145.51 184.70 139.22 181.46 130.90 C 183.58 121.89 173.34 117.38 166.73 114.33 C 161.37 112.12 159.81 106.29 156.23 102.27 C 157.47 101.23 158.98 100.47 159.97 99.16 C 160.05 98.32 160.22 96.65 160.31 95.82 Z" />
</g>
<g id="#4d30bfff">
<path fill="#4d30bf" opacity="1.00" d=" M 18.25 119.36 C 22.59 112.75 23.32 104.68 26.79 97.72 C 27.44 108.04 21.18 118.04 24.38 128.29 C 26.38 140.51 26.30 123.60 26.78 120.77 C 27.16 127.78 27.00 134.80 26.79 141.81 C 26.08 153.70 24.12 141.87 23.64 138.71 C 19.85 142.44 23.95 148.42 21.85 152.96 C 17.32 153.31 20.29 146.12 16.83 144.05 C 14.66 132.52 16.13 120.39 17.71 108.77 C 17.93 109.38 18.39 110.59 18.62 111.20 C 18.44 113.93 18.27 116.59 18.25 119.36 Z" />
</g>
<g id="#4b1b99ff">
<path fill="#4b1b99" opacity="1.00" d=" M 126.54 101.71 C 131.99 96.72 139.88 97.88 145.99 100.96 C 150.91 106.81 152.76 114.29 152.90 121.80 C 149.05 125.17 144.06 127.59 138.80 127.00 L 139.26 126.22 C 140.25 125.70 141.23 125.17 142.22 124.65 C 146.00 123.52 148.65 120.24 149.37 116.42 C 150.43 112.61 145.55 110.54 143.15 108.26 C 143.31 107.94 143.61 107.30 143.77 106.98 C 138.38 104.17 132.09 104.08 126.54 101.71 Z" />
</g>
<g id="#7755aaff">
<path fill="#7755aa" opacity="1.00" d=" M 209.05 99.86 C 211.91 98.12 210.97 104.39 207.16 103.30 C 210.24 108.82 203.40 111.49 198.88 111.05 C 201.13 108.41 209.01 109.28 205.11 103.60 C 206.52 102.43 208.69 101.89 209.05 99.86 Z" />
</g>
<g id="#53459bff">
<path fill="#53459b" opacity="1.00" d=" M 228.87 100.86 C 230.26 97.74 233.93 100.26 236.48 99.26 C 237.51 100.41 235.54 102.07 235.19 103.31 C 233.05 102.58 230.89 101.88 228.87 100.86 Z" />
</g>
<g id="#a482d8ff">
<path fill="#a482d8" opacity="1.00" d=" M 198.26 102.29 C 202.30 102.04 205.29 100.37 209.05 99.86 C 208.69 101.89 206.52 102.43 205.11 103.60 C 202.78 106.13 194.69 107.10 198.26 102.29 Z" />
</g>
<g id="#5e21b7ff">
<path fill="#5e21b7" opacity="1.00" d=" M 145.99 100.96 C 151.28 103.63 155.87 108.36 157.80 114.04 C 159.09 116.94 159.34 121.50 164.03 120.99 C 170.95 121.85 176.53 127.76 175.70 134.70 C 173.56 140.04 169.25 143.45 163.40 143.44 C 152.80 153.44 143.62 169.46 127.04 168.87 C 109.31 165.40 87.24 172.59 74.11 156.88 C 72.29 154.36 67.48 148.92 71.95 147.00 C 79.14 151.58 85.15 159.11 94.10 160.15 C 111.90 166.49 131.64 161.04 146.70 150.68 C 148.48 148.52 152.71 146.84 151.46 143.41 L 151.36 142.38 C 154.16 142.36 156.42 144.24 158.96 145.17 C 155.08 142.97 155.54 136.18 152.26 135.02 C 154.51 140.16 149.89 140.21 147.16 141.27 C 149.48 138.91 148.93 135.59 146.19 133.81 C 142.27 130.48 137.94 127.55 132.60 127.40 C 134.15 127.30 137.25 127.10 138.80 127.00 C 144.06 127.59 149.05 125.17 152.90 121.80 C 152.76 114.29 150.91 106.81 145.99 100.96 Z" />
</g>
<g id="#3a2062ff">
<path fill="#3a2062" opacity="1.00" d=" M 125.74 101.97 L 126.54 101.71 C 132.09 104.08 138.38 104.17 143.77 106.98 C 143.61 107.30 143.31 107.94 143.15 108.26 C 137.68 106.13 131.87 105.05 126.03 104.52 C 125.70 104.32 125.03 103.93 124.69 103.73 C 124.96 103.29 125.48 102.41 125.74 101.97 Z" />
</g>
<g id="#e9e4ecff">
<path fill="#e9e4ec" opacity="1.00" d=" M 84.67 110.32 C 91.45 103.49 101.10 102.38 110.21 102.60 C 111.40 105.73 112.36 109.11 110.44 112.18 C 109.07 110.62 107.63 109.14 106.11 107.75 C 105.10 106.26 103.01 106.40 101.83 107.58 C 95.87 110.00 96.98 118.98 103.21 120.36 C 95.63 127.63 84.23 119.80 84.67 110.32 Z" />
</g>
<g id="#5c2da3ff">
<path fill="#5c2da3" opacity="1.00" d=" M 110.21 102.60 C 111.51 103.49 112.38 104.78 112.73 106.31 C 113.09 117.79 102.96 132.92 89.88 126.14 C 81.26 124.08 81.21 113.35 83.39 106.64 C 83.81 107.87 84.23 109.10 84.67 110.32 C 84.23 119.80 95.63 127.63 103.21 120.36 C 106.54 118.67 109.11 115.65 110.44 112.18 C 112.36 109.11 111.40 105.73 110.21 102.60 Z" />
</g>
<g id="#7240baff">
<path fill="#7240ba" opacity="1.00" d=" M 122.82 121.11 C 119.03 115.91 120.71 108.40 124.69 103.73 C 125.03 103.93 125.70 104.32 126.03 104.52 C 117.46 113.37 127.19 129.54 139.26 126.22 L 138.80 127.00 C 137.25 127.10 134.15 127.30 132.60 127.40 C 137.94 127.55 142.27 130.48 146.19 133.81 C 134.57 138.17 129.14 127.93 122.82 121.11 Z" />
</g>
<g id="#ebe6eeff">
<path fill="#ebe6ee" opacity="1.00" d=" M 139.26 126.22 C 127.19 129.54 117.46 113.37 126.03 104.52 C 131.87 105.05 137.68 106.13 143.15 108.26 C 145.55 110.54 150.43 112.61 149.37 116.42 C 148.28 115.12 147.21 113.82 146.08 112.56 C 144.77 112.52 142.15 112.44 140.84 112.40 C 135.11 114.85 136.36 123.15 142.22 124.65 C 141.23 125.17 140.25 125.70 139.26 126.22 Z" />
</g>
<g id="#51409fff">
<path fill="#51409f" opacity="1.00" d=" M 229.92 108.88 C 231.22 105.29 234.65 106.13 237.11 107.97 C 236.79 109.07 236.43 110.16 236.02 111.23 C 233.88 110.78 231.75 110.12 229.92 108.88 Z" />
</g>
<g id="#989c96ff">
<path fill="#989c96" opacity="1.00" d=" M 101.83 107.58 C 103.01 106.40 105.10 106.26 106.11 107.75 C 104.66 108.21 103.23 108.16 101.83 107.58 Z" />
</g>
<g id="#15121dff">
<path fill="#15121d" opacity="1.00" d=" M 103.21 120.36 C 96.98 118.98 95.87 110.00 101.83 107.58 C 103.23 108.16 104.66 108.21 106.11 107.75 C 107.63 109.14 109.07 110.62 110.44 112.18 C 109.11 115.65 106.54 118.67 103.21 120.36 M 106.25 111.08 C 102.39 115.78 112.18 112.54 106.25 111.08 Z" />
</g>
<g id="#553689ff">
<path fill="#553689" opacity="1.00" d=" M 220.46 107.76 C 222.12 127.89 219.36 148.69 211.26 167.30 L 210.21 167.08 C 217.07 149.62 220.40 131.09 219.30 112.27 C 219.70 110.77 220.10 109.27 220.46 107.76 Z" />
</g>
<g id="#b68ef9ff">
<path fill="#b68ef9" opacity="1.00" d=" M 36.17 111.03 C 38.97 109.01 44.30 111.08 40.91 113.64 C 38.77 112.89 35.65 112.67 35.93 115.86 C 38.34 115.11 42.09 115.43 41.02 118.90 C 37.81 118.03 30.93 120.03 32.12 115.32 C 34.88 115.43 35.10 112.93 36.17 111.03 Z" />
</g>
<g id="#bfbcbeff">
<path fill="#bfbcbe" opacity="1.00" d=" M 106.25 111.08 C 112.18 112.54 102.39 115.78 106.25 111.08 Z" />
</g>
<g id="#6a6c6bff">
<path fill="#6a6c6b" opacity="1.00" d=" M 140.84 112.40 C 142.15 112.44 144.77 112.52 146.08 112.56 C 144.51 113.70 142.35 113.54 140.84 112.40 Z" />
</g>
<g id="#7c59b1ff">
<path fill="#7c59b1" opacity="1.00" d=" M 211.48 112.36 C 215.14 111.60 212.18 116.81 209.09 115.15 C 212.65 121.34 202.75 124.50 200.05 121.13 C 202.95 121.39 210.13 121.15 207.60 116.34 C 205.56 112.84 210.68 114.96 211.48 112.36 Z" />
</g>
<g id="#17141dff">
<path fill="#17141d" opacity="1.00" d=" M 142.22 124.65 C 136.36 123.15 135.11 114.85 140.84 112.40 C 142.35 113.54 144.51 113.70 146.08 112.56 C 147.21 113.82 148.28 115.12 149.37 116.42 C 148.65 120.24 146.00 123.52 142.22 124.65 M 145.16 117.16 C 144.16 121.80 149.80 116.16 145.16 117.16 Z" />
</g>
<g id="#5d21b6ff">
<path fill="#5d21b6" opacity="1.00" d=" M 55.71 119.74 C 61.13 118.29 66.83 115.80 72.34 118.62 C 78.31 121.84 74.12 129.95 75.76 135.29 C 72.19 134.02 71.15 130.58 71.77 126.86 C 70.81 131.57 67.03 134.08 63.67 136.86 C 67.91 134.93 72.18 133.26 74.90 138.27 L 74.81 139.13 C 65.36 139.27 54.42 136.97 52.56 125.83 C 53.55 123.77 54.62 121.75 55.71 119.74 Z" />
</g>
<g id="#eceaeeff">
<path fill="#eceaee" opacity="1.00" d=" M 145.16 117.16 C 149.80 116.16 144.16 121.80 145.16 117.16 Z" />
</g>
<g id="#9282deff">
<path fill="#9282de" opacity="1.00" d=" M 230.13 118.85 C 229.04 115.20 234.11 118.84 236.01 118.85 C 236.73 119.94 237.43 121.05 238.03 122.23 C 235.31 121.33 232.48 120.54 230.13 118.85 Z" />
</g>
<g id="#29128dff">
<path fill="#29128d" opacity="1.00" d=" M 227.21 118.74 C 229.81 119.17 230.36 120.89 228.99 123.01 C 226.65 125.82 231.10 128.46 228.74 131.12 C 228.25 136.39 227.75 141.71 226.67 146.98 C 223.91 147.38 226.29 151.07 225.80 152.95 C 225.11 153.59 224.44 154.24 223.79 154.92 C 222.76 156.36 223.88 158.49 223.71 160.18 C 223.40 160.53 222.77 161.23 222.46 161.58 C 219.81 163.05 222.71 166.61 220.41 168.35 C 217.76 170.08 218.55 173.28 217.64 175.88 C 213.41 177.01 216.10 184.17 210.80 184.05 C 218.32 167.58 225.14 150.27 226.03 131.96 L 226.21 131.17 C 227.40 127.15 226.70 122.84 227.21 118.74 Z" />
</g>
<g id="#724bb6ff">
<path fill="#724bb6" opacity="1.00" d=" M 41.67 120.81 C 41.99 122.22 41.64 123.65 41.30 125.03 C 39.48 125.20 37.67 125.44 35.85 125.62 C 35.07 121.62 40.64 123.98 41.67 120.81 Z" />
</g>
<g id="#542e7eff">
<path fill="#542e7e" opacity="1.00" d=" M 4.99 134.23 C 8.33 130.98 12.35 127.88 12.16 122.57 C 12.01 127.81 12.09 133.07 11.65 138.30 C 11.34 135.87 11.09 133.44 10.91 131.00 C 9.11 132.39 7.40 134.07 4.99 134.23 Z" />
</g>
<g id="#b796eaff">
<path fill="#b796ea" opacity="1.00" d=" M 12.16 122.57 C 12.74 126.58 12.98 130.62 13.24 134.65 C 13.54 145.38 15.56 155.92 18.32 166.26 C 18.68 168.64 19.44 170.94 20.43 173.13 C 21.69 176.19 23.14 179.16 24.58 182.13 C 25.02 183.80 25.47 185.50 25.38 187.25 C 24.20 185.20 23.07 183.13 21.92 181.07 C 21.75 180.74 21.39 180.08 21.21 179.75 C 19.38 174.53 17.31 169.38 16.03 163.99 C 15.85 162.99 15.63 162.00 15.40 161.02 C 13.29 153.61 12.02 145.99 11.65 138.30 C 12.09 133.07 12.01 127.81 12.16 122.57 Z" />
</g>
<g id="#816ed8ff">
<path fill="#816ed8" opacity="1.00" d=" M 228.99 123.01 C 230.49 124.83 232.59 126.03 235.00 126.05 C 236.27 127.04 239.01 128.19 237.44 130.15 C 234.54 128.07 231.48 129.72 228.74 131.12 C 231.10 128.46 226.65 125.82 228.99 123.01 Z" />
</g>
<g id="#8864bdff">
<path fill="#8864bd" opacity="1.00" d=" M 212.49 124.48 C 214.25 124.59 212.74 129.83 209.30 128.08 C 213.87 137.22 190.53 132.63 204.98 131.99 C 211.89 132.90 202.47 122.41 211.41 125.49 C 211.68 125.24 212.22 124.73 212.49 124.48 Z" />
</g>
<g id="#2b0666ff">
<path fill="#2b0666" opacity="1.00" d=" M 63.67 136.86 C 67.03 134.08 70.81 131.57 71.77 126.86 C 71.15 130.58 72.19 134.02 75.76 135.29 C 76.12 135.66 76.84 136.40 77.21 136.77 C 76.63 137.14 75.47 137.89 74.90 138.27 C 72.18 133.26 67.91 134.93 63.67 136.86 Z" />
</g>
<g id="#4b3a9eff">
<path fill="#4b3a9e" opacity="1.00" d=" M 228.74 131.12 C 231.48 129.72 234.54 128.07 237.44 130.15 C 236.61 133.71 228.86 131.06 234.19 133.90 C 232.12 133.77 229.34 133.58 228.74 131.12 Z" />
</g>
<g id="#b591f6ff">
<path fill="#b591f6" opacity="1.00" d=" M 35.02 138.17 C 28.10 140.73 36.82 125.61 41.72 130.80 C 39.92 132.52 32.17 135.90 37.98 134.88 C 39.21 135.11 40.42 135.42 41.61 135.80 C 40.26 137.98 38.07 138.77 35.02 138.17 Z" />
</g>
<g id="#6542a7ff">
<path fill="#6542a7" opacity="1.00" d=" M 41.72 130.80 C 42.94 133.73 40.20 134.23 37.98 134.88 C 32.17 135.90 39.92 132.52 41.72 130.80 Z" />
</g>
<g id="#7e70ceff">
<path fill="#7e70ce" opacity="1.00" d=" M 226.67 146.98 C 227.75 141.71 228.25 136.39 228.74 131.12 C 229.34 133.58 232.12 133.77 234.19 133.90 C 235.96 134.44 237.95 135.28 236.41 137.33 C 236.02 141.25 228.43 135.81 229.13 140.64 C 231.49 141.62 234.51 141.57 236.14 143.82 C 232.72 143.48 229.66 144.17 227.61 146.92 L 226.67 146.98 Z" />
</g>
<g id="#5d3bc0ff">
<path fill="#5d3bc0" opacity="1.00" d=" M 204.91 189.17 C 215.44 171.56 222.14 152.04 226.03 131.96 C 225.14 150.27 218.32 167.58 210.80 184.05 C 209.16 185.98 208.18 190.77 204.91 189.17 Z" />
</g>
<g id="#36186aff">
<path fill="#36186a" opacity="1.00" d=" M 100.69 133.70 C 104.39 132.44 108.48 132.93 112.20 133.86 C 108.35 133.89 104.52 133.97 100.69 133.70 Z" />
</g>
<g id="#120a16ff">
<path fill="#120a16" opacity="1.00" d=" M 77.21 136.77 C 85.02 142.88 93.03 136.99 100.69 133.70 C 104.52 133.97 108.35 133.89 112.20 133.86 C 114.22 134.45 116.15 135.31 118.14 136.00 C 121.88 138.30 125.62 140.69 129.77 142.17 C 134.49 143.05 139.59 143.84 144.25 142.27 C 144.64 142.15 145.43 141.93 145.82 141.82 C 147.67 141.95 149.52 142.14 151.36 142.38 L 151.46 143.41 C 132.85 158.52 103.89 163.15 83.73 148.61 C 81.01 145.22 77.76 142.31 74.81 139.13 L 74.90 138.27 C 75.47 137.89 76.63 137.14 77.21 136.77 M 100.97 150.01 C 101.18 156.93 113.48 154.07 117.75 154.90 C 123.12 147.08 104.13 151.61 100.97 150.01 Z" />
</g>
<g id="#815fc6ff">
<path fill="#815fc6" opacity="1.00" d=" M 13.24 134.65 C 16.50 135.43 13.79 140.26 15.23 141.96 C 15.00 150.19 18.89 158.13 18.32 166.26 C 15.56 155.92 13.54 145.38 13.24 134.65 Z" />
</g>
<g id="#2f0a5eff">
<path fill="#2f0a5e" opacity="1.00" d=" M 152.26 135.02 C 155.54 136.18 155.08 142.97 158.96 145.17 C 156.42 144.24 154.16 142.36 151.36 142.38 C 149.52 142.14 147.67 141.95 145.82 141.82 C 146.15 141.68 146.83 141.41 147.16 141.27 C 149.89 140.21 154.51 140.16 152.26 135.02 Z" />
</g>
<g id="#a782e0ff">
<path fill="#a782e0" opacity="1.00" d=" M 200.10 135.29 C 204.30 136.53 208.66 136.79 213.01 137.16 C 213.96 142.33 208.10 139.22 208.08 142.92 C 207.78 141.34 208.79 138.29 206.14 138.95 C 201.49 139.79 197.19 139.89 200.10 135.29 Z" />
</g>
<g id="#6947adff">
<path fill="#6947ad" opacity="1.00" d=" M 41.61 135.80 C 44.37 135.84 41.98 138.13 41.41 139.38 C 39.93 139.63 38.44 139.87 36.95 140.08 C 35.04 140.22 33.25 140.17 35.02 138.17 C 38.07 138.77 40.26 137.98 41.61 135.80 Z" />
</g>
<g id="#2e1d9eff">
<path fill="#2e1d9e" opacity="1.00" d=" M 21.85 152.96 C 23.95 148.42 19.85 142.44 23.64 138.71 C 24.12 141.87 26.08 153.70 26.79 141.81 C 28.22 151.12 29.81 160.49 33.11 169.35 C 33.47 170.81 33.85 172.26 34.20 173.72 C 34.06 177.50 35.37 181.10 35.85 184.81 C 34.25 187.14 31.18 185.43 29.01 185.01 C 22.60 172.21 18.17 158.35 16.83 144.05 C 20.29 146.12 17.32 153.31 21.85 152.96 Z" />
</g>
<g id="#b18ef1ff">
<path fill="#b18ef1" opacity="1.00" d=" M 36.95 140.08 C 38.44 139.87 39.93 139.63 41.41 139.38 C 41.24 139.97 40.91 141.13 40.74 141.72 C 35.55 143.96 37.29 145.69 42.14 143.94 C 42.47 144.28 43.12 144.95 43.45 145.29 C 41.83 148.39 37.62 148.05 34.68 149.22 C 33.41 146.91 36.17 142.91 36.95 140.08 Z" />
</g>
<g id="#754facff">
<path fill="#754fac" opacity="1.00" d=" M 206.14 138.95 C 208.79 138.29 207.78 141.34 208.08 142.92 C 208.07 144.85 202.87 147.88 204.33 144.42 C 207.06 143.58 207.40 141.28 206.14 138.95 Z" />
</g>
<g id="#5b37a4ff">
<path fill="#5b37a4" opacity="1.00" d=" M 40.74 141.72 C 43.70 139.13 43.14 141.36 42.14 143.94 C 37.29 145.69 35.55 143.96 40.74 141.72 Z" />
</g>
<g id="#33145aff">
<path fill="#33145a" opacity="1.00" d=" M 129.77 142.17 C 134.60 142.13 139.42 142.18 144.25 142.27 C 139.59 143.84 134.49 143.05 129.77 142.17 Z" />
</g>
<g id="#783fc6ff">
<path fill="#783fc6" opacity="1.00" d=" M 83.73 148.61 C 103.89 163.15 132.85 158.52 151.46 143.41 C 152.71 146.84 148.48 148.52 146.70 150.68 C 131.64 161.04 111.90 166.49 94.10 160.15 C 91.70 155.39 83.91 154.20 83.73 148.61 Z" />
</g>
<g id="#51449aff">
<path fill="#51449a" opacity="1.00" d=" M 227.61 146.92 C 229.66 144.17 232.72 143.48 236.14 143.82 C 235.51 148.16 231.22 147.23 227.61 146.92 Z" />
</g>
<g id="#b088eaff">
<path fill="#b088ea" opacity="1.00" d=" M 196.21 144.78 C 196.55 147.01 197.24 148.29 199.11 146.33 C 203.01 147.61 206.77 149.76 211.03 149.38 C 210.81 152.43 208.95 153.77 206.19 152.17 C 203.00 149.57 204.15 155.52 202.07 156.98 C 201.63 157.05 200.77 157.19 200.33 157.26 C 198.04 155.54 193.99 154.98 194.92 151.20 C 198.99 152.52 198.17 150.37 196.06 147.97 C 196.10 147.17 196.17 145.58 196.21 144.78 Z" />
</g>
<g id="#8072d1ff">
<path fill="#8072d1" opacity="1.00" d=" M 225.80 152.95 C 226.29 151.07 223.91 147.38 226.67 146.98 C 228.26 149.69 235.55 149.02 234.19 152.18 C 231.07 149.27 227.95 153.99 225.80 152.95 Z" />
</g>
<g id="#b98ff7ff">
<path fill="#b98ff7" opacity="1.00" d=" M 38.84 149.94 C 40.22 149.53 41.62 149.15 43.06 148.93 C 44.17 152.73 38.34 151.67 38.93 155.10 C 41.13 155.18 43.63 152.86 45.52 153.92 C 44.25 157.69 39.70 157.56 36.71 159.23 C 36.86 156.06 37.07 152.69 38.84 149.94 Z" />
</g>
<g id="#921f39ff">
<path fill="#921f39" opacity="1.00" d=" M 100.97 150.01 C 104.13 151.61 123.12 147.08 117.75 154.90 C 113.48 154.07 101.18 156.93 100.97 150.01 Z" />
</g>
<g id="#734eabff">
<path fill="#734eab" opacity="1.00" d=" M 202.07 156.98 C 204.15 155.52 203.00 149.57 206.19 152.17 C 206.10 154.50 204.65 156.98 202.07 156.98 Z" />
</g>
<g id="#40328bff">
<path fill="#40328b" opacity="1.00" d=" M 225.80 152.95 C 227.95 153.99 231.07 149.27 234.19 152.18 C 232.05 154.29 232.67 157.08 232.83 159.76 C 231.38 161.70 228.79 161.90 226.74 162.89 C 234.49 163.23 242.25 162.95 250.00 163.00 L 250.00 165.87 C 244.37 164.90 238.64 166.26 233.01 165.09 C 229.42 166.64 226.41 169.81 222.13 169.12 C 225.08 166.88 225.33 164.16 222.46 161.58 C 222.77 161.23 223.40 160.53 223.71 160.18 C 226.58 159.86 229.39 159.15 232.22 158.60 C 229.66 156.83 226.43 156.52 223.79 154.92 C 224.44 154.24 225.11 153.59 225.80 152.95 Z" />
</g>
<g id="#7134c6ff">
<path fill="#7134c6" opacity="1.00" d=" M 45.52 153.92 C 47.98 155.76 48.26 158.79 48.45 161.71 C 46.43 162.16 43.10 166.74 42.15 163.26 C 43.84 161.71 46.39 160.62 46.10 157.90 C 39.47 158.19 39.98 164.95 39.83 169.78 C 42.92 167.31 48.15 166.27 48.45 161.71 C 49.01 163.08 49.65 164.42 50.03 165.86 C 46.92 167.38 41.37 170.86 45.74 174.32 C 44.79 175.73 44.03 177.27 43.77 178.97 C 46.88 176.72 52.18 175.44 52.20 170.88 C 55.84 171.30 57.06 175.52 56.45 178.66 C 54.68 179.95 53.06 181.62 50.85 182.13 C 51.71 180.09 56.73 173.28 51.73 175.76 C 46.35 178.32 52.09 183.42 49.05 187.22 C 52.18 185.24 56.77 183.28 57.12 179.15 C 58.13 179.67 58.62 180.70 58.96 181.73 C 53.08 185.36 54.94 190.80 55.98 196.12 C 58.54 193.26 61.72 190.69 63.07 186.99 C 63.54 185.35 65.73 187.84 65.50 188.94 C 59.42 191.55 62.43 198.04 62.28 203.09 C 65.78 201.86 67.15 197.63 69.23 194.80 C 70.17 194.35 71.11 194.09 71.23 195.48 C 66.23 199.55 69.50 205.79 71.74 210.05 C 73.38 206.38 75.68 202.82 75.95 198.70 C 79.47 199.67 86.11 202.01 86.37 205.73 C 84.79 208.66 81.73 214.32 86.93 215.16 C 89.02 215.94 85.12 221.38 88.76 219.79 C 90.86 216.46 91.14 212.26 92.30 208.54 C 93.09 208.66 94.58 207.48 94.85 208.68 C 94.24 211.78 90.66 217.50 95.12 218.84 C 97.73 219.05 96.00 223.62 98.79 222.83 C 99.87 218.95 100.66 214.99 101.13 210.99 C 102.19 211.31 104.92 209.95 104.81 211.68 C 100.10 213.66 100.80 222.79 106.67 221.45 C 107.77 232.08 112.83 212.70 107.82 212.37 C 109.11 212.40 111.69 212.47 112.98 212.50 C 111.69 215.98 110.23 224.97 116.71 222.30 C 118.53 232.09 119.84 217.97 119.03 214.00 C 119.50 213.99 120.44 213.97 120.91 213.96 C 120.31 217.99 121.62 224.64 126.93 222.54 C 124.25 229.61 127.82 226.69 129.73 225.65 C 129.63 221.40 129.20 217.18 128.93 212.95 L 129.89 212.85 C 130.67 215.89 130.71 223.22 135.17 221.22 C 138.43 217.82 136.71 228.10 139.90 223.73 C 140.02 219.40 137.78 215.37 137.90 211.01 L 138.85 210.74 C 140.20 213.83 140.80 217.35 143.10 219.93 C 144.81 219.12 146.36 218.04 148.00 217.10 C 144.05 226.54 153.23 220.26 149.86 217.14 C 147.72 214.64 148.58 206.26 144.15 209.21 C 144.67 211.86 145.71 214.39 146.09 217.09 C 142.70 216.86 142.71 212.28 141.54 209.82 C 143.45 208.12 147.50 205.10 148.69 209.09 C 150.28 211.62 150.46 217.55 155.28 214.13 C 157.76 211.88 157.94 219.59 160.80 215.96 C 159.26 211.56 157.20 207.34 154.77 203.36 C 155.11 202.27 156.10 202.28 157.05 202.38 C 158.24 205.26 159.93 211.96 164.18 209.14 C 166.58 206.74 167.62 211.12 170.10 211.13 C 169.90 206.86 166.54 203.76 164.93 199.99 C 165.08 199.70 165.36 199.11 165.50 198.82 C 167.78 200.75 170.50 206.24 173.44 202.39 C 175.55 198.74 177.88 207.00 179.03 202.05 C 176.73 198.27 173.87 194.84 170.84 191.61 C 170.85 189.95 171.14 188.55 173.00 189.55 C 173.64 194.88 180.16 198.78 183.04 193.03 C 184.39 195.51 186.13 196.46 188.01 193.81 C 185.07 190.17 181.55 187.08 178.12 183.93 C 178.61 182.94 178.93 179.75 179.90 182.19 C 181.44 186.07 188.17 190.36 189.47 184.20 C 191.72 185.03 194.73 187.22 194.66 183.29 C 191.62 180.75 188.33 178.51 185.54 175.68 L 185.82 174.74 C 188.72 175.97 193.76 180.58 195.43 175.53 C 195.77 170.13 200.58 179.44 200.59 173.73 C 199.86 169.93 192.79 169.22 190.43 165.74 L 190.75 164.81 C 194.63 167.69 201.42 169.14 201.14 162.31 C 202.12 163.84 203.34 170.10 205.27 173.34 C 195.40 193.45 179.59 210.20 160.03 221.13 C 126.43 239.37 81.38 233.25 55.26 204.73 C 54.19 203.88 53.17 201.92 51.53 202.84 C 43.55 194.66 38.32 184.26 34.20 173.72 C 33.85 172.26 33.47 170.81 33.11 169.35 C 34.56 167.68 35.90 165.80 36.23 163.55 C 36.64 162.15 36.68 160.68 36.71 159.23 C 39.70 157.56 44.25 157.69 45.52 153.92 M 78.27 201.03 C 76.69 203.63 73.61 212.14 79.11 210.28 C 79.24 211.94 76.49 216.07 79.81 214.86 C 81.87 211.60 83.53 207.82 84.05 203.98 C 80.14 202.92 81.86 210.08 77.95 209.02 C 77.17 206.21 82.16 202.58 78.27 201.03 Z" />
</g>
<g id="#796dceff">
<path fill="#796dce" opacity="1.00" d=" M 223.71 160.18 C 223.88 158.49 222.76 156.36 223.79 154.92 C 226.43 156.52 229.66 156.83 232.22 158.60 C 229.39 159.15 226.58 159.86 223.71 160.18 Z" />
</g>
<g id="#ae83edff">
<path fill="#ae83ed" opacity="1.00" d=" M 193.19 157.28 C 194.62 154.94 197.64 157.88 199.73 158.12 C 202.96 160.14 207.55 160.81 208.00 165.35 L 208.33 166.35 C 207.56 168.78 206.50 171.11 205.27 173.34 C 203.34 170.10 202.12 163.84 201.14 162.31 C 201.42 169.14 194.63 167.69 190.75 164.81 C 190.85 158.55 195.68 163.39 199.09 164.10 C 199.77 159.76 191.50 161.81 193.19 157.28 Z" />
</g>
<g id="#b887f4ff">
<path fill="#b887f4" opacity="1.00" d=" M 39.83 169.78 C 39.98 164.95 39.47 158.19 46.10 157.90 C 46.39 160.62 43.84 161.71 42.15 163.26 C 43.10 166.74 46.43 162.16 48.45 161.71 C 48.15 166.27 42.92 167.31 39.83 169.78 Z" />
</g>
<g id="#5d3193ff">
<path fill="#5d3193" opacity="1.00" d=" M 15.40 161.02 C 15.63 162.00 15.85 162.99 16.03 163.99 C 10.70 163.54 5.36 163.01 0.00 162.94 L 0.00 162.01 C 5.15 162.06 10.33 162.06 15.40 161.02 Z" />
</g>
<g id="#665abaff">
<path fill="#665aba" opacity="1.00" d=" M 220.41 168.35 C 222.71 166.61 219.81 163.05 222.46 161.58 C 225.33 164.16 225.08 166.88 222.13 169.12 C 223.61 169.38 226.59 169.88 228.08 170.14 C 225.94 174.46 222.80 175.34 217.64 175.88 C 218.55 173.28 217.76 170.08 220.41 168.35 Z" />
</g>
<g id="#2e0f55ff">
<path fill="#2e0f55" opacity="1.00" d=" M 0.00 162.94 C 5.36 163.01 10.70 163.54 16.03 163.99 C 17.31 169.38 19.38 174.53 21.21 179.75 C 14.14 179.95 7.07 180.03 0.00 180.00 L 0.00 162.94 Z" />
</g>
<g id="#211354ff">
<path fill="#211354" opacity="1.00" d=" M 222.13 169.12 C 226.41 169.81 229.42 166.64 233.01 165.09 C 238.64 166.26 244.37 164.90 250.00 165.87 L 250.00 182.55 C 240.13 189.74 232.82 199.84 223.67 207.79 C 218.97 206.20 205.64 212.61 206.94 204.11 C 208.45 203.60 209.93 203.01 211.38 202.35 C 213.05 199.67 201.69 204.26 204.83 200.77 C 206.61 201.81 214.84 200.24 210.28 198.85 C 205.61 197.57 213.52 198.77 215.21 197.25 C 219.12 194.90 210.81 196.10 208.84 195.51 C 213.49 196.31 216.39 193.16 219.14 190.19 C 216.65 190.18 214.20 189.94 211.78 189.49 C 217.56 191.48 218.39 186.01 222.17 183.99 C 221.99 183.07 211.46 185.28 216.44 182.40 C 222.36 184.23 221.78 180.92 224.06 178.17 C 227.65 175.41 219.22 177.73 217.64 175.88 C 222.80 175.34 225.94 174.46 228.08 170.14 C 226.59 169.88 223.61 169.38 222.13 169.12 Z" />
</g>
<g id="#b78af5ff">
<path fill="#b78af5" opacity="1.00" d=" M 45.74 174.32 C 41.37 170.86 46.92 167.38 50.03 165.86 C 50.96 169.79 45.61 170.53 45.74 174.32 Z" />
</g>
<g id="#b382f5ff">
<path fill="#b382f5" opacity="1.00" d=" M 192.96 174.94 C 196.58 171.19 185.20 170.20 190.43 165.74 C 192.79 169.22 199.86 169.93 200.59 173.73 C 200.58 179.44 195.77 170.13 195.43 175.53 C 193.76 180.58 188.72 175.97 185.82 174.74 C 185.92 168.56 190.03 173.29 192.96 174.94 Z" />
</g>
<g id="#3e2572ff">
<path fill="#3e2572" opacity="1.00" d=" M 210.21 167.08 L 211.26 167.30 C 201.96 191.28 184.48 212.05 162.37 225.24 L 161.63 225.56 C 161.45 223.16 164.00 221.89 165.25 220.16 C 185.29 207.68 200.95 188.73 210.21 167.08 Z" />
</g>
<g id="#bb8df5ff">
<path fill="#bb8df5" opacity="1.00" d=" M 45.74 174.32 C 47.91 173.21 49.83 171.58 52.20 170.88 C 52.18 175.44 46.88 176.72 43.77 178.97 C 44.03 177.27 44.79 175.73 45.74 174.32 Z" />
</g>
<g id="#7251baff">
<path fill="#7251ba" opacity="1.00" d=" M 20.43 173.13 C 23.56 171.21 24.20 179.45 24.58 182.13 C 23.14 179.16 21.69 176.19 20.43 173.13 Z" />
</g>
<g id="#492db7ff">
<path fill="#492db7" opacity="1.00" d=" M 34.20 173.72 C 38.32 184.26 43.55 194.66 51.53 202.84 C 54.71 206.21 57.96 209.51 61.22 212.81 C 56.83 210.75 56.17 213.84 57.02 218.47 C 45.41 209.58 35.31 198.29 29.01 185.01 C 31.18 185.43 34.25 187.14 35.85 184.81 C 35.37 181.10 34.06 177.50 34.20 173.72 Z" />
</g>
<g id="#bb8bf6ff">
<path fill="#bb8bf6" opacity="1.00" d=" M 51.73 175.76 C 56.73 173.28 51.71 180.09 50.85 182.13 C 53.06 181.62 54.68 179.95 56.45 178.66 L 57.12 179.15 C 56.77 183.28 52.18 185.24 49.05 187.22 C 52.09 183.42 46.35 178.32 51.73 175.76 Z" />
</g>
<g id="#b383f5ff">
<path fill="#b383f5" opacity="1.00" d=" M 188.11 184.13 C 187.89 180.70 179.28 178.28 185.54 175.68 C 188.33 178.51 191.62 180.75 194.66 183.29 C 194.73 187.22 191.72 185.03 189.47 184.20 C 188.17 190.36 181.44 186.07 179.90 182.19 C 181.79 177.85 184.87 184.58 188.11 184.13 Z" />
</g>
<g id="#6358b2ff">
<path fill="#6358b2" opacity="1.00" d=" M 210.80 184.05 C 216.10 184.17 213.41 177.01 217.64 175.88 C 219.22 177.73 227.65 175.41 224.06 178.17 C 221.78 180.92 222.36 184.23 216.44 182.40 C 211.46 185.28 221.99 183.07 222.17 183.99 C 218.39 186.01 217.56 191.48 211.78 189.49 C 211.29 187.71 211.07 185.87 210.80 184.05 Z" />
</g>
<g id="#5e348eff">
<path fill="#5e348e" opacity="1.00" d=" M 0.00 180.00 C 7.07 180.03 14.14 179.95 21.21 179.75 C 21.39 180.08 21.75 180.74 21.92 181.07 C 14.62 180.96 7.31 180.99 0.00 181.00 L 0.00 180.00 Z" />
</g>
<g id="#290f52ff">
<path fill="#290f52" opacity="1.00" d=" M 0.00 181.00 C 7.31 180.99 14.62 180.96 21.92 181.07 C 23.07 183.13 24.20 185.20 25.38 187.25 C 29.17 197.06 35.66 205.44 42.85 212.99 C 43.54 215.53 44.73 218.43 47.90 218.15 C 53.30 225.15 60.49 230.91 68.57 234.55 C 70.75 235.47 72.94 237.55 75.33 235.90 C 80.52 237.71 85.70 239.58 91.03 240.95 C 87.19 243.73 90.49 244.46 93.80 244.18 C 96.05 244.41 98.31 244.63 100.56 244.83 L 101.11 245.65 C 96.59 244.81 92.50 245.94 90.47 250.00 L 76.59 250.00 C 72.72 245.79 68.43 241.98 64.37 237.96 C 61.36 234.89 58.50 231.65 55.06 229.05 C 50.92 225.50 47.16 221.55 43.09 217.93 C 39.94 214.35 36.64 210.87 32.87 207.93 C 34.65 212.67 39.48 215.49 42.91 219.01 C 46.37 222.93 50.14 226.58 53.73 230.39 C 56.09 233.70 59.53 235.97 62.20 238.99 C 65.44 242.80 69.13 246.19 72.38 250.00 L 32.31 250.00 C 24.17 242.38 17.31 233.03 7.96 226.91 C 14.43 235.27 23.51 241.32 29.57 250.00 L 0.00 250.00 L 0.00 181.00 Z" />
</g>
<g id="#b588f1ff">
<path fill="#b588f1" opacity="1.00" d=" M 55.98 196.12 C 54.94 190.80 53.08 185.36 58.96 181.73 C 59.22 182.31 59.72 183.47 59.98 184.05 C 58.51 185.85 56.80 187.64 56.89 190.14 C 58.58 188.95 60.02 187.45 61.39 185.91 C 61.81 186.18 62.65 186.72 63.07 186.99 C 61.72 190.69 58.54 193.26 55.98 196.12 Z" />
</g>
<g id="#332076ff">
<path fill="#332076" opacity="1.00" d=" M 223.67 207.79 C 232.82 199.84 240.13 189.74 250.00 182.55 L 250.00 188.67 C 241.01 195.43 234.65 204.96 225.66 211.72 C 217.63 213.36 208.59 209.67 201.05 213.40 C 198.38 213.15 195.71 213.45 193.08 213.93 C 195.32 207.98 201.60 209.46 206.18 208.08 C 195.56 212.33 199.66 200.49 206.94 204.11 C 205.64 212.61 218.97 206.20 223.67 207.79 Z" />
</g>
<g id="#562795ff">
<path fill="#562795" opacity="1.00" d=" M 59.98 184.05 C 60.33 184.52 61.03 185.44 61.39 185.91 C 60.02 187.45 58.58 188.95 56.89 190.14 C 56.80 187.64 58.51 185.85 59.98 184.05 Z" />
</g>
<g id="#b583f7ff">
<path fill="#b583f7" opacity="1.00" d=" M 178.12 183.93 C 181.55 187.08 185.07 190.17 188.01 193.81 C 186.13 196.46 184.39 195.51 183.04 193.03 C 180.16 198.78 173.64 194.88 173.00 189.55 C 176.53 188.27 177.96 192.70 181.13 193.13 C 180.47 189.72 175.30 187.77 178.12 183.93 Z" />
</g>
<g id="#4329a0ff">
<path fill="#4329a0" opacity="1.00" d=" M 204.91 189.17 C 208.18 190.77 209.16 185.98 210.80 184.05 C 211.07 185.87 211.29 187.71 211.78 189.49 C 214.20 189.94 216.65 190.18 219.14 190.19 C 216.39 193.16 213.49 196.31 208.84 195.51 C 211.98 193.55 209.66 191.98 207.30 190.87 C 207.67 192.47 205.94 196.45 208.84 195.51 C 210.81 196.10 219.12 194.90 215.21 197.25 C 213.52 198.77 205.61 197.57 210.28 198.85 C 214.84 200.24 206.61 201.81 204.83 200.77 C 204.41 199.71 205.37 195.71 203.52 197.46 C 202.97 202.22 197.35 202.50 196.87 207.47 C 194.28 204.60 189.85 212.26 187.58 215.50 C 180.10 222.80 170.14 227.80 160.83 233.54 C 157.77 234.84 154.87 236.46 151.89 237.90 C 135.64 244.68 117.80 244.46 100.56 244.83 C 98.31 244.63 96.05 244.41 93.80 244.18 C 94.15 243.60 94.86 242.43 95.22 241.84 C 116.17 244.97 138.50 243.83 157.27 233.20 C 164.18 230.23 170.57 226.12 176.12 221.04 C 187.46 212.14 197.46 201.57 204.91 189.17 Z" />
</g>
<g id="#6946baff">
<path fill="#6946ba" opacity="1.00" d=" M 27.92 187.81 C 32.71 192.67 34.83 199.63 38.90 205.06 C 34.14 200.18 29.90 194.42 27.92 187.81 Z" />
</g>
<g id="#b686f3ff">
<path fill="#b686f3" opacity="1.00" d=" M 62.28 203.09 C 62.43 198.04 59.42 191.55 65.50 188.94 C 66.19 191.99 63.46 194.28 62.87 197.11 C 65.60 197.73 68.30 190.26 69.23 194.80 C 67.15 197.63 65.78 201.86 62.28 203.09 Z" />
</g>
<g id="#201251ff">
<path fill="#201251" opacity="1.00" d=" M 225.66 211.72 C 234.65 204.96 241.01 195.43 250.00 188.67 L 250.00 210.53 C 240.53 218.12 232.17 227.08 224.07 236.10 C 212.97 236.00 201.87 235.86 190.78 236.22 C 184.51 235.52 177.87 237.23 171.82 235.07 C 169.64 234.52 167.43 234.19 165.19 234.07 C 168.33 232.56 171.78 231.85 175.24 231.83 C 177.19 232.90 182.58 229.97 178.06 230.05 C 169.89 228.52 193.06 228.51 183.95 225.96 C 179.50 225.89 184.78 224.74 186.28 224.09 C 186.76 224.06 187.74 224.00 188.23 223.97 C 192.17 224.91 191.15 221.32 187.84 221.50 C 189.88 219.44 200.22 218.48 192.86 217.91 C 190.03 217.51 196.81 217.26 194.06 214.98 C 196.51 215.09 198.97 214.80 201.05 213.40 C 208.59 209.67 217.63 213.36 225.66 211.72 Z" />
</g>
<g id="#7e70d4ff">
<path fill="#7e70d4" opacity="1.00" d=" M 207.30 190.87 C 209.66 191.98 211.98 193.55 208.84 195.51 C 205.94 196.45 207.67 192.47 207.30 190.87 Z" />
</g>
<g id="#b788f6ff">
<path fill="#b788f6" opacity="1.00" d=" M 170.84 191.61 C 173.87 194.84 176.73 198.27 179.03 202.05 C 177.88 207.00 175.55 198.74 173.44 202.39 C 170.50 206.24 167.78 200.75 165.50 198.82 C 166.74 191.88 169.88 201.15 173.11 201.09 C 173.23 197.48 168.45 195.35 170.84 191.61 Z" />
</g>
<g id="#b587f0ff">
<path fill="#b587f0" opacity="1.00" d=" M 71.74 210.05 C 69.50 205.79 66.23 199.55 71.23 195.48 C 71.49 196.07 72.01 197.25 72.27 197.85 C 71.56 199.66 70.79 201.45 70.15 203.30 C 72.30 202.76 73.19 200.57 74.38 198.95 C 74.77 198.89 75.56 198.76 75.95 198.70 C 75.68 202.82 73.38 206.38 71.74 210.05 Z" />
</g>
<g id="#614fbaff">
<path fill="#614fba" opacity="1.00" d=" M 203.52 197.46 C 205.37 195.71 204.41 199.71 204.83 200.77 C 201.69 204.26 213.05 199.67 211.38 202.35 C 209.93 203.01 208.45 203.60 206.94 204.11 C 199.66 200.49 195.56 212.33 206.18 208.08 C 201.60 209.46 195.32 207.98 193.08 213.93 C 195.71 213.45 198.38 213.15 201.05 213.40 C 198.97 214.80 196.51 215.09 194.06 214.98 C 190.89 214.33 188.67 215.71 187.67 218.68 C 183.04 219.23 179.84 224.77 188.23 223.97 C 187.74 224.00 186.76 224.06 186.28 224.09 C 179.67 221.25 177.54 228.83 172.00 229.15 C 169.19 230.53 173.81 231.58 175.24 231.83 C 171.78 231.85 168.33 232.56 165.19 234.07 C 164.13 234.58 163.11 235.18 162.00 235.58 C 161.71 235.07 161.13 234.05 160.83 233.54 C 170.14 227.80 180.10 222.80 187.58 215.50 C 189.85 212.26 194.28 204.60 196.87 207.47 C 197.35 202.50 202.97 202.22 203.52 197.46 Z" />
</g>
<g id="#51248dff">
<path fill="#51248d" opacity="1.00" d=" M 72.27 197.85 C 72.80 198.12 73.85 198.67 74.38 198.95 C 73.19 200.57 72.30 202.76 70.15 203.30 C 70.79 201.45 71.56 199.66 72.27 197.85 Z" />
</g>
<g id="#ba88f6ff">
<path fill="#ba88f6" opacity="1.00" d=" M 164.77 206.79 C 164.37 204.23 158.91 197.05 164.93 199.99 C 166.54 203.76 169.90 206.86 170.10 211.13 C 167.62 211.12 166.58 206.74 164.18 209.14 C 159.93 211.96 158.24 205.26 157.05 202.38 C 161.36 200.35 161.56 210.10 164.77 206.79 Z" />
</g>
<g id="#bb8bf5ff">
<path fill="#bb8bf5" opacity="1.00" d=" M 78.27 201.03 C 82.16 202.58 77.17 206.21 77.95 209.02 C 81.86 210.08 80.14 202.92 84.05 203.98 C 83.53 207.82 81.87 211.60 79.81 214.86 C 76.49 216.07 79.24 211.94 79.11 210.28 C 73.61 212.14 76.69 203.63 78.27 201.03 Z" />
</g>
<g id="#a072f3ff">
<path fill="#a072f3" opacity="1.00" d=" M 51.53 202.84 C 53.17 201.92 54.19 203.88 55.26 204.73 C 81.38 233.25 126.43 239.37 160.03 221.13 L 160.23 222.18 C 147.03 230.26 131.53 233.27 116.24 233.83 C 96.07 233.61 76.97 224.96 61.22 212.81 C 57.96 209.51 54.71 206.21 51.53 202.84 Z" />
</g>
<g id="#b486f3ff">
<path fill="#b486f3" opacity="1.00" d=" M 155.83 211.91 C 154.91 209.04 151.54 205.96 154.77 203.36 C 157.20 207.34 159.26 211.56 160.80 215.96 C 157.94 219.59 157.76 211.88 155.28 214.13 C 150.46 217.55 150.28 211.62 148.69 209.09 C 150.66 202.03 152.87 215.95 155.83 211.91 Z" />
</g>
<g id="#5e3badff">
<path fill="#5e3bad" opacity="1.00" d=" M 38.90 205.06 C 44.72 209.64 49.46 215.42 55.15 220.16 C 54.60 220.45 53.50 221.03 52.95 221.32 C 48.90 215.35 42.55 211.33 38.90 205.06 Z" />
</g>
<g id="#b98af7ff">
<path fill="#b98af7" opacity="1.00" d=" M 86.37 205.73 C 90.01 207.95 84.03 212.49 87.84 214.07 C 89.35 212.21 88.96 207.26 92.30 208.54 C 91.14 212.26 90.86 216.46 88.76 219.79 C 85.12 221.38 89.02 215.94 86.93 215.16 C 81.73 214.32 84.79 208.66 86.37 205.73 Z" />
</g>
<g id="#7750a1ff">
<path fill="#7750a1" opacity="1.00" d=" M 32.87 207.93 C 36.64 210.87 39.94 214.35 43.09 217.93 L 42.91 219.01 C 39.48 215.49 34.65 212.67 32.87 207.93 Z" />
</g>
<g id="#b686f4ff">
<path fill="#b686f4" opacity="1.00" d=" M 144.15 209.21 C 148.58 206.26 147.72 214.64 149.86 217.14 C 153.23 220.26 144.05 226.54 148.00 217.10 C 146.36 218.04 144.81 219.12 143.10 219.93 C 140.80 217.35 140.20 213.83 138.85 210.74 C 139.75 210.44 140.65 210.14 141.54 209.82 C 142.71 212.28 142.70 216.86 146.09 217.09 C 145.71 214.39 144.67 211.86 144.15 209.21 Z" />
</g>
<g id="#b98bf4ff">
<path fill="#b98bf4" opacity="1.00" d=" M 95.12 218.84 C 90.66 217.50 94.24 211.78 94.85 208.68 C 96.71 211.25 95.26 214.30 95.06 217.12 C 99.25 217.45 96.77 210.20 101.13 210.99 C 100.66 214.99 99.87 218.95 98.79 222.83 C 96.00 223.62 97.73 219.05 95.12 218.84 Z" />
</g>
<g id="#b687f3ff">
<path fill="#b687f3" opacity="1.00" d=" M 136.02 219.04 C 136.24 216.14 133.14 211.19 137.90 211.01 C 137.78 215.37 140.02 219.40 139.90 223.73 C 136.71 228.10 138.43 217.82 135.17 221.22 C 130.71 223.22 130.67 215.89 129.89 212.85 C 135.40 209.93 131.42 219.65 136.02 219.04 Z" />
</g>
<g id="#301f6fff">
<path fill="#301f6f" opacity="1.00" d=" M 224.07 236.10 C 232.17 227.08 240.53 218.12 250.00 210.53 L 250.00 214.56 C 240.54 221.13 233.47 230.55 224.59 237.68 C 205.33 238.35 186.03 238.02 166.76 237.81 C 167.66 235.66 169.49 234.61 171.82 235.07 C 177.87 237.23 184.51 235.52 190.78 236.22 C 201.60 236.50 213.68 238.81 224.07 236.10 Z" />
</g>
<g id="#563dbbff">
<path fill="#563dbb" opacity="1.00" d=" M 57.02 218.47 C 56.17 213.84 56.83 210.75 61.22 212.81 C 76.97 224.96 96.07 233.61 116.24 233.83 C 108.88 234.23 101.53 234.04 94.24 233.06 C 93.69 233.97 93.19 234.90 92.74 235.86 C 79.42 233.83 67.36 226.83 57.02 218.47 Z" />
</g>
<g id="#b788f4ff">
<path fill="#b788f4" opacity="1.00" d=" M 106.67 221.45 C 100.80 222.79 100.10 213.66 104.81 211.68 C 105.03 214.58 105.19 217.49 105.31 220.40 C 107.43 218.28 107.12 215.09 107.82 212.37 C 112.83 212.70 107.77 232.08 106.67 221.45 Z" />
</g>
<g id="#533998ff">
<path fill="#533998" opacity="1.00" d=" M 42.85 212.99 C 44.86 214.35 46.66 216.04 47.90 218.15 C 44.73 218.43 43.54 215.53 42.85 212.99 Z" />
</g>
<g id="#be8ffaff">
<path fill="#be8ffa" opacity="1.00" d=" M 116.71 222.30 C 110.23 224.97 111.69 215.98 112.98 212.50 C 114.50 215.15 114.13 218.37 115.08 221.24 C 118.79 220.10 114.70 213.20 119.03 214.00 C 119.84 217.97 118.53 232.09 116.71 222.30 Z" />
</g>
<g id="#b184f0ff">
<path fill="#b184f0" opacity="1.00" d=" M 125.79 221.27 C 126.60 218.20 123.92 211.94 128.93 212.95 C 129.20 217.18 129.63 221.40 129.73 225.65 C 127.82 226.69 124.25 229.61 126.93 222.54 C 121.62 224.64 120.31 217.99 120.91 213.96 C 126.04 212.64 122.75 219.10 125.79 221.27 Z" />
</g>
<g id="#3a3183ff">
<path fill="#3a3183" opacity="1.00" d=" M 187.67 218.68 C 188.67 215.71 190.89 214.33 194.06 214.98 C 196.81 217.26 190.03 217.51 192.86 217.91 C 200.22 218.48 189.88 219.44 187.84 221.50 C 191.15 221.32 192.17 224.91 188.23 223.97 C 179.84 224.77 183.04 219.23 187.67 218.68 Z" />
</g>
<g id="#201350ff">
<path fill="#201350" opacity="1.00" d=" M 224.59 237.68 C 233.47 230.55 240.54 221.13 250.00 214.56 L 250.00 250.00 L 90.47 250.00 C 92.50 245.94 96.59 244.81 101.11 245.65 C 114.65 247.99 128.16 245.25 141.55 244.25 C 150.33 243.66 158.51 240.25 166.76 237.81 C 186.03 238.02 205.33 238.35 224.59 237.68 Z" />
</g>
<g id="#ae81d7ff">
<path fill="#ae81d7" opacity="1.00" d=" M 43.09 217.93 C 47.16 221.55 50.92 225.50 55.06 229.05 C 54.73 229.39 54.06 230.06 53.73 230.39 C 50.14 226.58 46.37 222.93 42.91 219.01 L 43.09 217.93 Z" />
</g>
<g id="#503590ff">
<path fill="#503590" opacity="1.00" d=" M 47.90 218.15 C 49.57 219.22 51.25 220.29 52.95 221.32 C 58.88 228.27 67.65 231.39 75.33 235.90 C 72.94 237.55 70.75 235.47 68.57 234.55 C 60.49 230.91 53.30 225.15 47.90 218.15 Z" />
</g>
<g id="#946be9ff">
<path fill="#946be9" opacity="1.00" d=" M 55.15 220.16 C 56.79 221.23 58.41 222.34 59.93 223.58 C 57.94 227.01 65.23 227.94 66.99 230.01 C 76.15 233.88 86.03 240.30 96.29 239.32 C 117.09 242.86 137.19 236.95 157.27 233.20 C 138.50 243.83 116.17 244.97 95.22 241.84 C 93.82 241.53 92.43 241.22 91.03 240.95 C 85.70 239.58 80.52 237.71 75.33 235.90 C 67.65 231.39 58.88 228.27 52.95 221.32 C 53.50 221.03 54.60 220.45 55.15 220.16 Z" />
</g>
<g id="#402d96ff">
<path fill="#402d96" opacity="1.00" d=" M 160.23 222.18 C 161.91 221.51 163.59 220.85 165.25 220.16 C 164.00 221.89 161.45 223.16 161.63 225.56 C 141.26 238.26 115.92 241.08 92.74 235.86 C 93.19 234.90 93.69 233.97 94.24 233.06 C 101.53 234.04 108.88 234.23 116.24 233.83 C 131.53 233.27 147.03 230.26 160.23 222.18 Z" />
</g>
<g id="#6f48beff">
<path fill="#6f48be" opacity="1.00" d=" M 66.99 230.01 C 65.23 227.94 57.94 227.01 59.93 223.58 C 70.65 231.46 83.30 236.63 96.29 239.32 C 86.03 240.30 76.15 233.88 66.99 230.01 Z" />
</g>
<g id="#36297bff">
<path fill="#36297b" opacity="1.00" d=" M 172.00 229.15 C 177.54 228.83 179.67 221.25 186.28 224.09 C 184.78 224.74 179.50 225.89 183.95 225.96 C 193.06 228.51 169.89 228.52 178.06 230.05 C 182.58 229.97 177.19 232.90 175.24 231.83 C 173.81 231.58 169.19 230.53 172.00 229.15 Z" />
</g>
<g id="#442571ff">
<path fill="#442571" opacity="1.00" d=" M 7.96 226.91 C 17.31 233.03 24.17 242.38 32.31 250.00 L 29.57 250.00 C 23.51 241.32 14.43 235.27 7.96 226.91 Z" />
</g>
<g id="#663fa0ff">
<path fill="#663fa0" opacity="1.00" d=" M 55.06 229.05 C 58.50 231.65 61.36 234.89 64.37 237.96 C 63.83 238.22 62.75 238.73 62.20 238.99 C 59.53 235.97 56.09 233.70 53.73 230.39 C 54.06 230.06 54.73 229.39 55.06 229.05 Z" />
</g>
<g id="#8a6ee2ff">
<path fill="#8a6ee2" opacity="1.00" d=" M 151.89 237.90 C 154.87 236.46 157.77 234.84 160.83 233.54 C 161.13 234.05 161.71 235.07 162.00 235.58 C 158.34 235.93 155.54 240.61 151.89 237.90 Z" />
</g>
<g id="#433683ff">
<path fill="#433683" opacity="1.00" d=" M 165.19 234.07 C 167.43 234.19 169.64 234.52 171.82 235.07 C 169.49 234.61 167.66 235.66 166.76 237.81 C 158.51 240.25 150.33 243.66 141.55 244.25 C 144.38 240.18 150.20 243.15 151.89 237.90 C 155.54 240.61 158.34 235.93 162.00 235.58 C 163.11 235.18 164.13 234.58 165.19 234.07 Z" />
</g>
<g id="#4e3899ff">
<path fill="#4e3899" opacity="1.00" d=" M 190.78 236.22 C 201.87 235.86 212.97 236.00 224.07 236.10 C 213.68 238.81 201.60 236.50 190.78 236.22 Z" />
</g>
<g id="#3d2371ff">
<path fill="#3d2371" opacity="1.00" d=" M 64.37 237.96 C 68.43 241.98 72.72 245.79 76.59 250.00 L 72.38 250.00 C 69.13 246.19 65.44 242.80 62.20 238.99 C 62.75 238.73 63.83 238.22 64.37 237.96 Z" />
</g>
<g id="#937cd8ff">
<path fill="#937cd8" opacity="1.00" d=" M 100.56 244.83 C 117.80 244.46 135.64 244.68 151.89 237.90 C 150.20 243.15 144.38 240.18 141.55 244.25 C 128.16 245.25 114.65 247.99 101.11 245.65 L 100.56 244.83 Z" />
</g>
<g id="#4b3594ff">
<path fill="#4b3594" opacity="1.00" d=" M 91.03 240.95 C 92.43 241.22 93.82 241.53 95.22 241.84 C 94.86 242.43 94.15 243.60 93.80 244.18 C 90.49 244.46 87.19 243.73 91.03 240.95 Z" />
</g>
</svg>
