<?xml version="1.0" encoding="UTF-8" ?>
<!DOCTYPE svg PUBLIC "-//W3C//DTD SVG 1.1//EN" "http://www.w3.org/Graphics/SVG/1.1/DTD/svg11.dtd">
<svg width="250pt" height="249pt" viewBox="0 0 250 249" version="1.1" xmlns="http://www.w3.org/2000/svg">
<g id="#ffffffff">
<path fill="#ffffff" opacity="1.00" d=" M 0.00 0.00 L 250.00 0.00 L 250.00 249.00 L 0.00 249.00 L 0.00 0.00 M 85.42 17.65 C 65.93 26.20 49.23 41.12 38.88 59.75 C 27.14 80.54 23.49 105.72 28.65 129.02 C 33.55 151.42 46.72 171.81 64.93 185.70 C 81.40 198.50 102.11 205.44 122.91 205.81 C 141.71 206.15 160.48 200.80 176.45 190.91 L 176.67 190.93 C 178.31 189.73 179.99 188.57 181.61 187.33 C 181.91 187.22 182.53 187.01 182.84 186.90 C 187.40 182.57 192.63 178.92 196.62 173.99 C 210.06 159.44 218.89 140.72 221.54 121.08 C 223.83 104.37 221.81 87.04 215.53 71.37 C 208.76 54.20 196.93 39.11 182.02 28.26 C 167.75 17.78 150.55 11.47 132.94 9.87 C 116.78 8.39 100.30 11.26 85.42 17.65 M 87.54 229.55 C 87.06 230.93 86.25 232.49 87.38 233.83 C 88.60 236.14 92.60 237.42 91.48 240.50 C 89.15 242.23 89.24 238.23 87.31 238.25 C 86.08 240.88 89.81 243.72 91.99 241.80 C 94.28 240.66 93.90 237.39 92.04 236.02 C 90.93 234.45 88.02 233.18 88.92 230.92 C 90.40 229.15 91.29 232.09 92.27 232.88 C 93.01 231.89 92.63 230.68 92.53 229.57 C 90.89 228.77 89.17 228.70 87.54 229.55 M 26.78 240.45 C 27.96 243.35 31.20 241.83 33.51 241.48 C 33.45 239.49 33.41 237.51 33.34 235.52 C 32.23 235.60 31.12 235.72 30.02 235.92 C 32.10 236.77 31.80 238.89 31.56 240.70 C 30.54 240.58 29.52 240.45 28.50 240.32 C 28.50 237.13 28.13 233.89 28.78 230.74 C 30.83 229.65 31.79 231.49 32.18 233.16 C 33.87 232.76 33.12 231.10 33.16 229.90 C 31.45 229.18 29.61 229.07 27.79 229.20 C 25.69 232.54 26.47 236.74 26.78 240.45 M 42.78 229.43 C 43.18 233.76 42.16 238.26 43.46 242.47 C 45.02 242.36 46.59 242.25 48.15 242.13 C 47.47 240.91 46.40 240.42 44.92 240.64 C 44.90 239.25 44.88 237.85 44.88 236.46 C 45.54 236.11 46.88 235.43 47.55 235.08 C 46.84 234.91 45.42 234.56 44.71 234.38 C 44.74 233.43 44.80 231.52 44.83 230.57 C 46.00 230.29 47.56 230.66 48.26 229.37 C 46.43 229.19 44.59 229.21 42.78 229.43 M 57.29 228.80 C 57.30 233.49 56.68 238.28 57.72 242.89 C 59.45 240.64 58.35 237.57 58.65 234.98 C 61.55 236.27 60.38 240.96 63.49 242.12 C 63.57 237.81 63.53 233.50 63.53 229.19 C 63.21 229.19 62.56 229.19 62.24 229.19 C 62.26 231.28 62.31 233.37 62.26 235.47 C 62.01 235.52 61.50 235.63 61.24 235.68 C 59.84 233.45 59.70 230.25 57.29 228.80 M 73.35 229.16 C 73.31 233.54 73.23 237.92 73.44 242.30 C 74.97 242.27 76.51 242.34 78.04 242.15 C 79.48 240.47 75.91 241.02 75.18 240.63 C 75.19 238.19 74.68 235.06 78.15 235.29 C 77.22 234.92 76.26 234.67 75.27 234.52 C 75.27 233.54 75.25 231.56 75.25 230.57 C 76.52 230.43 77.78 230.19 78.86 229.48 C 77.03 229.27 75.19 229.19 73.35 229.16 M 102.72 229.27 C 102.76 233.44 102.76 237.62 102.71 241.80 C 103.14 241.81 104.00 241.83 104.43 241.84 C 104.42 237.63 104.42 233.41 104.43 229.20 C 104.01 229.22 103.15 229.25 102.72 229.27 M 114.70 229.45 C 114.41 230.10 113.84 231.40 113.55 232.05 C 114.03 235.63 119.97 237.06 118.13 240.89 C 115.95 241.35 115.82 238.37 113.82 238.44 C 114.06 240.16 114.87 242.55 117.05 242.39 C 119.96 242.78 121.63 238.55 119.35 236.69 C 118.06 234.72 113.97 232.60 116.78 230.13 C 117.73 231.10 118.68 232.11 119.67 233.05 C 119.70 231.87 119.65 230.69 119.51 229.53 C 117.91 229.18 116.29 229.13 114.70 229.45 M 136.72 229.86 C 136.63 231.64 136.17 233.81 137.95 234.98 C 139.19 236.62 142.31 237.94 141.24 240.42 C 138.76 242.13 138.67 238.17 136.49 238.22 C 136.52 240.10 137.60 242.67 139.86 242.40 C 141.88 242.62 142.72 240.49 143.50 239.03 C 142.63 235.52 137.56 234.43 138.46 230.46 C 140.13 230.77 141.33 232.03 142.66 232.96 C 143.56 229.18 139.32 228.35 136.72 229.86 M 151.87 240.90 C 151.81 241.75 152.59 242.41 153.37 242.56 C 154.69 240.71 154.06 238.33 154.25 236.22 C 154.94 236.22 156.32 236.23 157.01 236.23 C 157.16 238.30 157.17 240.39 157.51 242.45 C 158.86 243.04 159.25 241.06 159.13 240.12 C 159.18 236.47 159.09 232.82 159.12 229.17 L 157.25 229.15 C 157.18 230.95 157.12 232.77 156.94 234.58 C 156.27 234.58 154.91 234.59 154.24 234.59 C 154.08 232.71 153.93 230.83 153.78 228.96 C 153.32 229.07 152.41 229.28 151.95 229.39 C 151.71 233.22 151.82 237.07 151.87 240.90 M 170.68 229.32 C 170.14 233.73 167.97 238.06 168.56 242.51 C 170.12 242.21 169.42 239.53 171.00 239.05 C 171.51 238.93 172.54 238.70 173.05 238.58 C 173.33 239.94 173.63 241.31 173.94 242.67 C 174.40 242.17 174.86 241.66 175.32 241.17 C 174.47 238.86 174.18 236.41 173.92 233.98 C 173.24 235.11 172.70 236.31 172.32 237.58 L 170.61 237.42 C 170.76 235.76 170.91 234.11 171.06 232.46 L 172.05 235.07 C 172.52 234.23 173.00 233.38 173.47 232.54 C 173.20 231.68 172.68 229.97 172.42 229.11 C 171.99 229.16 171.12 229.27 170.68 229.32 M 184.23 229.19 C 184.16 233.46 184.17 237.74 184.20 242.02 C 187.56 242.22 185.70 237.86 186.33 235.83 C 188.80 237.30 187.98 241.04 190.18 242.89 C 191.04 240.60 189.51 238.42 189.35 236.15 C 190.13 234.22 191.42 232.07 190.08 230.05 C 188.53 228.57 186.15 229.44 184.23 229.19 M 200.19 228.73 C 200.05 233.26 200.07 237.80 200.17 242.34 C 202.30 242.27 205.31 242.74 206.41 240.41 C 207.12 236.91 206.81 233.29 206.32 229.79 C 204.29 229.31 202.25 228.98 200.19 228.73 M 215.95 231.06 C 214.53 235.22 221.87 236.52 220.41 240.55 C 218.32 241.67 217.59 238.89 216.36 237.82 C 214.75 241.41 219.96 244.26 222.06 240.94 C 223.99 236.89 218.83 235.02 217.36 231.96 C 218.52 228.89 220.37 231.87 221.77 232.97 C 221.70 231.81 221.62 230.67 221.53 229.52 C 219.59 229.07 216.63 228.52 215.95 231.06 Z" />
<path fill="#ffffff" opacity="1.00" d=" M 44.12 54.07 C 61.97 26.42 95.10 9.58 127.94 11.08 C 150.41 11.74 172.49 20.72 189.13 35.81 C 206.62 51.41 218.03 73.63 220.57 96.93 C 222.48 114.08 219.78 131.73 212.67 147.46 C 208.43 157.45 201.83 166.13 195.00 174.45 C 190.24 174.11 185.47 175.14 180.75 174.30 C 176.05 173.50 171.26 174.21 166.54 173.69 C 161.31 173.11 156.09 172.41 150.83 172.14 C 149.85 171.86 148.88 171.52 147.94 171.13 C 146.38 170.44 144.85 169.69 143.31 168.96 C 143.25 169.51 143.13 170.59 143.06 171.14 C 143.00 170.70 142.86 169.82 142.80 169.38 C 137.07 169.68 132.11 166.09 127.30 163.45 C 121.17 158.69 115.93 152.92 109.92 148.01 C 109.65 147.45 109.12 146.32 108.86 145.75 C 108.77 146.77 108.70 147.80 108.63 148.82 L 108.63 149.08 L 108.94 149.31 C 112.79 152.79 115.32 157.66 120.05 160.20 C 119.51 160.40 118.43 160.79 117.89 160.98 C 118.84 161.92 119.81 162.84 120.78 163.76 L 118.88 164.30 C 120.96 165.87 123.23 167.18 125.65 168.14 C 122.82 169.41 125.70 170.41 126.99 171.42 C 126.96 171.92 126.91 172.92 126.89 173.42 C 129.09 174.23 131.30 175.02 133.50 175.87 C 127.77 175.27 122.51 172.74 117.15 170.80 C 95.05 161.82 74.29 149.92 52.29 140.70 C 45.79 138.12 39.71 134.61 33.23 131.99 C 32.60 131.76 31.34 131.30 30.71 131.07 C 30.20 129.05 29.71 127.02 29.26 124.99 C 36.65 127.90 43.66 131.65 50.94 134.81 C 67.57 142.02 83.39 150.91 99.24 159.65 C 107.14 163.81 114.94 168.32 123.38 171.32 C 121.08 169.13 117.86 168.48 115.12 167.02 C 95.97 157.72 77.89 146.34 58.53 137.44 C 49.16 133.23 39.81 128.94 30.52 124.56 C 28.02 123.58 28.92 120.28 28.38 118.22 C 36.89 121.63 45.13 125.66 53.50 129.41 C 71.80 137.67 88.62 148.72 105.67 159.23 C 110.46 161.97 115.05 165.19 120.28 167.06 C 99.12 155.28 79.38 140.99 57.46 130.56 C 47.77 126.06 38.05 121.62 28.27 117.30 C 28.19 115.76 28.09 114.22 27.98 112.68 C 40.85 116.80 53.10 122.73 65.03 129.02 C 82.60 138.59 98.25 151.16 114.98 162.05 C 114.87 161.62 114.64 160.76 114.53 160.34 C 114.46 159.74 114.32 158.54 114.25 157.94 C 113.66 156.23 111.84 155.52 110.38 154.74 C 107.45 152.33 104.66 149.66 101.19 148.02 C 103.64 150.83 106.51 154.20 110.38 154.74 C 110.33 156.33 111.60 157.48 112.86 158.22 C 111.13 158.82 109.79 157.36 108.43 156.60 C 93.38 146.24 78.70 135.18 62.48 126.66 C 51.34 120.68 39.54 116.11 27.88 111.27 C 27.79 109.52 27.72 107.77 27.69 106.02 C 38.11 108.85 47.86 113.68 57.54 118.37 C 73.39 126.39 87.36 137.45 101.20 148.44 C 98.80 145.30 95.40 143.21 92.36 140.75 C 81.76 132.43 70.72 124.55 58.72 118.35 C 48.70 113.26 38.42 108.66 27.75 105.12 C 27.79 103.46 27.84 101.81 27.90 100.15 C 38.19 102.41 47.81 107.06 57.20 111.73 C 74.00 120.28 88.05 133.03 102.14 145.31 C 97.21 139.76 91.23 135.28 85.67 130.39 C 68.97 116.15 49.23 105.57 28.22 99.28 C 28.34 97.54 28.47 95.81 28.61 94.08 C 33.67 94.95 38.45 96.86 43.22 98.67 C 58.30 104.73 72.62 113.31 84.07 124.91 C 91.02 130.63 96.79 137.67 103.51 143.63 C 104.93 144.48 104.69 142.85 103.85 142.32 C 100.04 138.03 96.48 133.55 92.92 129.06 C 85.91 120.51 77.83 112.88 69.19 106.00 C 57.65 97.10 44.00 91.30 29.96 87.66 C 30.28 85.92 30.60 84.18 30.93 82.44 C 51.04 86.43 69.54 97.56 82.60 113.32 C 89.22 120.23 94.26 128.51 100.81 135.44 C 92.81 124.88 84.89 114.10 75.25 104.95 C 63.19 93.30 47.66 85.53 31.30 82.04 C 31.79 80.19 32.31 78.36 32.84 76.52 C 43.71 79.11 54.34 83.07 63.57 89.48 C 77.14 98.71 87.41 111.85 96.67 125.20 C 99.76 130.67 103.60 135.71 107.82 140.36 C 110.08 142.95 112.10 145.74 114.48 148.23 C 119.83 153.97 125.26 159.75 131.89 164.05 C 135.26 166.13 138.60 168.63 142.66 169.10 C 132.04 163.46 122.65 155.40 115.87 145.44 C 108.92 135.43 102.77 124.86 97.81 113.72 C 96.62 109.77 94.67 106.10 92.66 102.51 C 92.04 102.50 90.82 102.48 90.21 102.47 C 86.17 94.88 81.52 87.55 75.90 81.03 C 66.98 70.13 54.31 62.22 40.47 59.41 C 41.60 57.68 42.72 55.94 43.86 54.21 C 51.09 56.08 58.02 59.10 64.11 63.46 C 58.37 58.68 51.20 56.11 44.12 54.07 M 68.40 67.08 C 67.84 68.36 69.67 69.91 70.89 69.49 C 71.64 68.22 69.66 66.33 68.40 67.08 M 75.16 74.26 C 74.50 75.66 76.25 77.76 77.72 77.48 C 78.15 76.14 76.69 73.73 75.16 74.26 M 161.68 75.86 C 154.51 77.75 148.49 83.51 146.44 90.66 C 142.19 103.06 151.95 117.55 164.99 118.43 C 172.78 119.31 180.91 115.51 185.17 108.92 C 191.07 100.50 189.64 87.88 181.98 81.01 C 176.68 75.89 168.76 74.12 161.68 75.86 M 117.32 160.23 C 117.74 160.82 117.74 160.82 117.32 160.23 M 122.30 168.04 C 122.80 171.54 124.87 166.10 122.30 168.04 Z" />
<path fill="#ffffff" opacity="1.00" d=" M 39.96 60.08 C 47.03 60.66 53.58 63.81 59.60 67.35 C 73.31 75.57 82.66 89.17 90.12 102.97 C 89.46 102.86 88.16 102.66 87.51 102.55 C 82.93 95.61 78.02 88.81 71.96 83.06 C 62.73 73.76 50.59 67.76 37.85 65.00 C 38.54 63.36 39.26 61.72 39.96 60.08 Z" />
<path fill="#ffffff" opacity="1.00" d=" M 35.22 71.04 C 35.76 69.00 36.57 67.04 37.62 65.20 C 41.97 66.49 46.42 67.51 50.61 69.28 C 66.65 75.72 78.72 89.04 87.64 103.45 C 88.26 103.33 89.50 103.09 90.12 102.97 C 90.26 103.26 90.53 103.85 90.67 104.15 C 90.81 104.61 91.07 105.55 91.21 106.02 C 90.48 105.65 89.02 104.92 88.29 104.56 C 90.00 108.22 92.42 111.48 94.18 115.11 C 92.91 113.67 91.64 112.22 90.30 110.85 C 85.62 104.83 81.30 98.49 75.89 93.09 C 65.10 81.79 50.82 73.25 35.22 71.04 Z" />
<path fill="#ffffff" opacity="1.00" d=" M 34.73 71.21 C 45.96 72.88 56.57 77.73 65.64 84.47 C 75.11 91.44 82.32 100.83 89.36 110.11 C 89.97 112.05 90.33 114.05 90.67 116.06 C 86.65 110.87 82.60 105.67 77.93 101.05 C 65.98 88.45 50.13 79.76 33.13 76.27 C 33.65 74.58 34.19 72.90 34.73 71.21 Z" />
<path fill="#ffffff" opacity="1.00" d=" M 28.91 93.38 C 29.16 91.64 29.42 89.90 29.71 88.17 C 41.88 91.10 53.59 96.02 64.07 102.89 C 72.80 108.83 80.44 116.20 87.76 123.78 L 86.99 124.88 L 86.21 126.02 C 70.51 110.22 50.31 99.24 28.91 93.38 Z" />
<path fill="#ffffff" opacity="1.00" d=" M 86.99 124.88 C 87.11 124.98 87.36 125.19 87.49 125.29 C 87.36 125.19 87.11 124.98 86.99 124.88 Z" />
<path fill="#ffffff" opacity="1.00" d=" M 87.49 125.29 C 87.67 125.48 88.04 125.86 88.23 126.05 C 88.04 125.86 87.67 125.48 87.49 125.29 Z" />
<path fill="#ffffff" opacity="1.00" d=" M 30.88 132.15 C 40.50 137.12 50.42 141.47 60.34 145.82 C 85.45 157.02 109.35 171.35 136.02 178.75 C 132.45 178.86 129.12 177.40 125.64 176.90 C 105.12 171.44 86.00 161.93 66.53 153.64 C 55.69 148.80 44.51 144.68 34.08 138.99 C 31.53 137.75 31.80 134.43 30.88 132.15 Z" />
<path fill="#ffffff" opacity="1.00" d=" M 33.25 139.56 C 40.05 142.83 46.80 146.20 53.81 149.00 C 77.25 158.67 99.96 170.31 124.33 177.56 C 127.85 178.71 131.41 180.07 135.15 180.21 C 137.46 179.98 139.76 179.55 142.09 179.56 C 143.44 179.06 144.77 178.54 146.09 177.99 C 144.75 178.94 143.29 179.68 141.85 180.47 C 144.15 180.40 146.44 180.34 148.74 180.45 C 146.69 180.81 144.64 181.11 142.60 181.50 C 148.18 181.97 153.80 181.50 159.38 182.04 C 154.00 182.82 148.49 181.97 143.17 183.10 C 143.17 183.26 143.16 183.58 143.16 183.74 C 150.19 184.26 157.31 184.17 164.23 185.69 C 161.88 185.59 159.53 185.40 157.18 185.23 L 157.20 186.57 C 163.07 187.71 168.96 188.70 174.60 190.76 C 169.55 191.55 164.89 193.80 159.93 194.93 C 139.80 200.13 118.80 202.43 98.06 200.62 C 92.72 199.53 87.62 197.38 82.79 194.88 C 84.86 195.07 87.03 195.42 88.85 194.17 C 84.95 193.58 80.88 193.51 77.17 192.03 C 73.41 190.20 69.99 187.76 66.67 185.24 C 71.56 185.87 76.19 187.66 80.99 188.67 C 91.87 190.99 102.85 193.04 113.96 193.65 C 122.87 193.77 131.83 194.25 140.70 193.52 L 140.85 193.10 C 140.15 193.01 138.75 192.84 138.06 192.75 C 114.45 194.37 90.74 190.69 68.06 184.24 C 62.97 183.19 58.44 179.58 56.04 175.02 C 52.61 172.54 49.58 169.58 47.30 165.94 C 72.72 175.24 98.57 184.13 125.59 187.28 C 126.34 186.88 127.09 186.48 127.84 186.08 C 124.18 186.39 120.56 185.66 116.96 185.16 C 93.26 181.41 70.44 173.58 48.08 165.07 C 44.45 163.83 43.13 159.82 41.31 156.83 C 67.80 167.15 94.34 178.10 122.43 183.29 C 127.63 184.26 132.91 185.26 138.23 184.71 C 135.88 184.29 133.49 184.14 131.12 183.98 C 131.85 183.44 132.58 182.91 133.31 182.38 C 135.82 182.55 138.36 182.96 140.87 182.47 C 113.52 179.50 88.07 168.31 62.76 158.24 C 54.39 154.64 45.71 151.69 37.68 147.35 C 34.65 145.98 34.29 142.31 33.25 139.56 M 57.20 175.16 C 57.27 175.36 57.41 175.77 57.48 175.97 C 88.91 186.72 122.39 193.79 155.69 189.74 L 155.94 188.54 C 125.80 192.50 95.26 186.84 66.54 177.68 C 63.44 176.86 60.47 174.97 57.20 175.16 M 137.19 180.64 C 138.53 181.32 140.38 181.66 141.77 180.98 C 141.30 179.54 137.80 179.35 137.19 180.64 M 138.93 184.39 L 139.44 185.94 C 145.32 186.37 151.24 186.07 157.13 186.48 L 156.57 184.99 C 150.72 184.33 144.80 184.86 138.93 184.39 M 128.07 188.42 C 131.99 187.40 136.01 188.45 139.98 188.36 C 144.33 188.24 148.68 188.15 153.04 188.38 C 154.58 188.86 155.72 187.62 156.81 186.79 C 147.10 187.06 137.38 187.26 127.70 186.29 C 127.80 186.82 127.98 187.89 128.07 188.42 M 156.14 189.40 C 158.16 189.27 160.19 189.22 162.22 189.26 C 160.64 189.87 158.99 190.07 157.26 189.87 C 160.03 193.24 164.53 189.77 168.08 190.22 C 165.23 188.33 161.65 188.08 158.39 187.28 C 157.63 187.97 156.87 188.68 156.14 189.40 M 168.32 190.14 C 168.30 193.42 171.22 188.85 168.32 190.14 M 142.54 192.03 C 142.36 192.31 142.00 192.85 141.82 193.12 L 142.36 193.76 C 147.28 193.77 152.15 192.05 157.02 192.55 C 157.11 191.96 157.28 190.79 157.37 190.21 C 152.47 191.15 147.55 192.14 142.54 192.03 M 165.05 192.27 C 165.57 192.16 166.59 191.94 167.11 191.83 L 167.12 191.31 C 166.32 190.20 162.59 191.58 165.05 192.27 M 88.76 194.41 C 88.87 194.87 89.10 195.79 89.21 196.24 C 91.11 195.73 93.02 196.29 94.92 196.46 C 117.86 199.36 141.30 198.11 163.79 192.62 L 163.88 191.22 C 139.43 197.61 113.67 198.24 88.76 194.41 Z" />
<path fill="#ffffff" opacity="1.00" d=" M 36.86 147.87 C 48.72 153.80 61.23 158.25 73.45 163.37 C 92.49 170.75 111.59 178.82 131.90 181.90 C 131.17 182.51 130.43 183.12 129.69 183.72 C 106.63 180.35 84.51 172.65 62.80 164.42 C 55.88 161.75 48.86 159.27 42.16 156.05 C 38.86 154.72 37.91 150.89 36.86 147.87 Z" />
<path fill="#ffffff" opacity="1.00" d=" M 138.58 200.24 C 148.34 199.01 157.81 196.28 167.35 194.05 C 166.63 194.70 165.84 195.25 164.98 195.70 C 146.54 203.82 125.54 206.80 105.75 202.48 C 116.73 202.33 127.71 201.82 138.58 200.24 Z" />
<path fill="#ffffff" opacity="1.00" d=" M 186.28 229.94 C 188.59 230.36 188.94 232.41 188.59 234.40 C 187.99 234.52 186.80 234.74 186.21 234.86 C 186.20 233.22 186.22 231.58 186.28 229.94 Z" />
<path fill="#ffffff" opacity="1.00" d=" M 202.27 230.28 C 202.83 230.37 203.94 230.53 204.49 230.62 C 204.96 233.90 204.88 237.22 204.56 240.52 C 203.97 240.60 202.78 240.76 202.19 240.84 C 201.65 237.33 202.03 233.79 202.27 230.28 Z" />
</g>
<g id="#303030ff">
<path fill="#303030" opacity="1.00" d=" M 85.42 17.65 C 100.30 11.26 116.78 8.39 132.94 9.87 C 150.55 11.47 167.75 17.78 182.02 28.26 C 196.93 39.11 208.76 54.20 215.53 71.37 C 221.81 87.04 223.83 104.37 221.54 121.08 C 218.89 140.72 210.06 159.44 196.62 173.99 C 196.21 174.10 195.40 174.33 195.00 174.45 C 201.83 166.13 208.43 157.45 212.67 147.46 C 219.78 131.73 222.48 114.08 220.57 96.93 C 218.03 73.63 206.62 51.41 189.13 35.81 C 172.49 20.72 150.41 11.74 127.94 11.08 C 95.10 9.58 61.97 26.42 44.12 54.07 C 51.20 56.11 58.37 58.68 64.11 63.46 C 58.02 59.10 51.09 56.08 43.86 54.21 C 42.72 55.94 41.60 57.68 40.47 59.41 C 54.31 62.22 66.98 70.13 75.90 81.03 C 81.52 87.55 86.17 94.88 90.21 102.47 C 90.32 102.89 90.56 103.73 90.67 104.15 C 90.53 103.85 90.26 103.26 90.12 102.97 C 82.66 89.17 73.31 75.57 59.60 67.35 C 53.58 63.81 47.03 60.66 39.96 60.08 C 39.26 61.72 38.54 63.36 37.85 65.00 C 50.59 67.76 62.73 73.76 71.96 83.06 C 78.02 88.81 82.93 95.61 87.51 102.55 C 88.16 102.66 89.46 102.86 90.12 102.97 C 89.50 103.09 88.26 103.33 87.64 103.45 C 78.72 89.04 66.65 75.72 50.61 69.28 C 46.42 67.51 41.97 66.49 37.62 65.20 C 36.57 67.04 35.76 69.00 35.22 71.04 C 50.82 73.25 65.10 81.79 75.89 93.09 C 81.30 98.49 85.62 104.83 90.30 110.85 L 89.36 110.11 C 82.32 100.83 75.11 91.44 65.64 84.47 C 56.57 77.73 45.96 72.88 34.73 71.21 C 34.19 72.90 33.65 74.58 33.13 76.27 C 50.13 79.76 65.98 88.45 77.93 101.05 C 82.60 105.67 86.65 110.87 90.67 116.06 C 92.60 119.15 95.17 121.84 96.67 125.20 C 87.41 111.85 77.14 98.71 63.57 89.48 C 54.34 83.07 43.71 79.11 32.84 76.52 C 32.31 78.36 31.79 80.19 31.30 82.04 C 47.66 85.53 63.19 93.30 75.25 104.95 C 84.89 114.10 92.81 124.88 100.81 135.44 C 94.26 128.51 89.22 120.23 82.60 113.32 C 69.54 97.56 51.04 86.43 30.93 82.44 C 30.60 84.18 30.28 85.92 29.96 87.66 C 44.00 91.30 57.65 97.10 69.19 106.00 C 77.83 112.88 85.91 120.51 92.92 129.06 C 96.48 133.55 100.04 138.03 103.85 142.32 C 104.69 142.85 104.93 144.48 103.51 143.63 C 96.79 137.67 91.02 130.63 84.07 124.91 C 72.62 113.31 58.30 104.73 43.22 98.67 C 38.45 96.86 33.67 94.95 28.61 94.08 C 28.47 95.81 28.34 97.54 28.22 99.28 C 49.23 105.57 68.97 116.15 85.67 130.39 C 91.23 135.28 97.21 139.76 102.14 145.31 C 88.05 133.03 74.00 120.28 57.20 111.73 C 47.81 107.06 38.19 102.41 27.90 100.15 C 27.84 101.81 27.79 103.46 27.75 105.12 C 38.42 108.66 48.70 113.26 58.72 118.35 C 70.72 124.55 81.76 132.43 92.36 140.75 C 95.40 143.21 98.80 145.30 101.20 148.44 C 87.36 137.45 73.39 126.39 57.54 118.37 C 47.86 113.68 38.11 108.85 27.69 106.02 C 27.72 107.77 27.79 109.52 27.88 111.27 C 27.91 111.62 27.96 112.32 27.98 112.68 C 28.09 114.22 28.19 115.76 28.27 117.30 C 38.05 121.62 47.77 126.06 57.46 130.56 C 79.38 140.99 99.12 155.28 120.28 167.06 C 115.05 165.19 110.46 161.97 105.67 159.23 C 88.62 148.72 71.80 137.67 53.50 129.41 C 45.13 125.66 36.89 121.63 28.38 118.22 C 28.92 120.28 28.02 123.58 30.52 124.56 C 39.81 128.94 49.16 133.23 58.53 137.44 C 77.89 146.34 95.97 157.72 115.12 167.02 C 117.86 168.48 121.08 169.13 123.38 171.32 C 114.94 168.32 107.14 163.81 99.24 159.65 C 83.39 150.91 67.57 142.02 50.94 134.81 C 43.66 131.65 36.65 127.90 29.26 124.99 C 29.71 127.02 30.20 129.05 30.71 131.07 C 31.34 131.30 32.60 131.76 33.23 131.99 C 32.64 132.03 31.47 132.11 30.88 132.15 C 31.80 134.43 31.53 137.75 34.08 138.99 C 44.51 144.68 55.69 148.80 66.53 153.64 C 86.00 161.93 105.12 171.44 125.64 176.90 L 124.33 177.56 C 99.96 170.31 77.25 158.67 53.81 149.00 C 46.80 146.20 40.05 142.83 33.25 139.56 C 34.29 142.31 34.65 145.98 37.68 147.35 C 45.71 151.69 54.39 154.64 62.76 158.24 C 88.07 168.31 113.52 179.50 140.87 182.47 C 138.36 182.96 135.82 182.55 133.31 182.38 C 132.58 182.91 131.85 183.44 131.12 183.98 C 133.49 184.14 135.88 184.29 138.23 184.71 C 132.91 185.26 127.63 184.26 122.43 183.29 C 94.34 178.10 67.80 167.15 41.31 156.83 C 43.13 159.82 44.45 163.83 48.08 165.07 C 70.44 173.58 93.26 181.41 116.96 185.16 C 120.56 185.66 124.18 186.39 127.84 186.08 C 127.09 186.48 126.34 186.88 125.59 187.28 C 98.57 184.13 72.72 175.24 47.30 165.94 C 49.58 169.58 52.61 172.54 56.04 175.02 C 58.44 179.58 62.97 183.19 68.06 184.24 C 90.74 190.69 114.45 194.37 138.06 192.75 C 138.75 192.84 140.15 193.01 140.85 193.10 L 140.70 193.52 C 131.83 194.25 122.87 193.77 113.96 193.65 C 102.85 193.04 91.87 190.99 80.99 188.67 C 76.19 187.66 71.56 185.87 66.67 185.24 C 69.99 187.76 73.41 190.20 77.17 192.03 C 80.88 193.51 84.95 193.58 88.85 194.17 C 87.03 195.42 84.86 195.07 82.79 194.88 C 87.62 197.38 92.72 199.53 98.06 200.62 C 118.80 202.43 139.80 200.13 159.93 194.93 C 164.89 193.80 169.55 191.55 174.60 190.76 C 175.06 190.80 175.99 190.87 176.45 190.91 C 160.48 200.80 141.71 206.15 122.91 205.81 C 102.11 205.44 81.40 198.50 64.93 185.70 C 46.72 171.81 33.55 151.42 28.65 129.02 C 23.49 105.72 27.14 80.54 38.88 59.75 C 49.23 41.12 65.93 26.20 85.42 17.65 M 28.91 93.38 C 50.31 99.24 70.51 110.22 86.21 126.02 L 86.99 124.88 L 87.76 123.78 C 80.44 116.20 72.80 108.83 64.07 102.89 C 53.59 96.02 41.88 91.10 29.71 88.17 C 29.42 89.90 29.16 91.64 28.91 93.38 M 86.99 124.88 C 87.11 124.98 87.36 125.19 87.49 125.29 C 87.36 125.19 87.11 124.98 86.99 124.88 M 87.49 125.29 C 87.67 125.48 88.04 125.86 88.23 126.05 C 88.04 125.86 87.67 125.48 87.49 125.29 M 88.23 126.05 C 88.45 126.27 88.90 126.71 89.12 126.93 C 88.90 126.71 88.45 126.27 88.23 126.05 M 89.12 126.93 C 89.34 127.16 89.77 127.63 89.99 127.87 C 89.77 127.63 89.34 127.16 89.12 126.93 M 89.99 127.87 C 90.18 128.08 90.57 128.51 90.77 128.72 C 90.57 128.51 90.18 128.08 89.99 127.87 M 90.77 128.72 C 91.35 129.34 91.35 129.34 90.77 128.72 M 36.86 147.87 C 37.91 150.89 38.86 154.72 42.16 156.05 C 48.86 159.27 55.88 161.75 62.80 164.42 C 84.51 172.65 106.63 180.35 129.69 183.72 C 130.43 183.12 131.17 182.51 131.90 181.90 C 111.59 178.82 92.49 170.75 73.45 163.37 C 61.23 158.25 48.72 153.80 36.86 147.87 M 138.58 200.24 C 127.71 201.82 116.73 202.33 105.75 202.48 C 125.54 206.80 146.54 203.82 164.98 195.70 C 165.84 195.25 166.63 194.70 167.35 194.05 C 157.81 196.28 148.34 199.01 138.58 200.24 Z" />
<path fill="#303030" opacity="1.00" d=" M 108.86 145.75 C 109.12 146.32 109.65 147.45 109.92 148.01 C 115.93 152.92 121.17 158.69 127.30 163.45 C 126.94 163.47 126.21 163.50 125.85 163.52 C 123.87 162.48 121.97 161.34 120.05 160.20 C 115.32 157.66 112.79 152.79 108.94 149.31 C 108.87 149.18 108.71 148.94 108.63 148.82 C 108.70 147.80 108.77 146.77 108.86 145.75 Z" />
</g>
<g id="#d9d9d9ff">
<path fill="#d9d9d9" opacity="1.00" d=" M 68.40 67.08 C 69.66 66.33 71.64 68.22 70.89 69.49 C 69.67 69.91 67.84 68.36 68.40 67.08 Z" />
</g>
<g id="#e1e1e1ff">
<path fill="#e1e1e1" opacity="1.00" d=" M 75.16 74.26 C 76.69 73.73 78.15 76.14 77.72 77.48 C 76.25 77.76 74.50 75.66 75.16 74.26 Z" />
</g>
<g id="#000000ff">
<path fill="#000000" opacity="1.00" d=" M 161.68 75.86 C 168.76 74.12 176.68 75.89 181.98 81.01 C 189.64 87.88 191.07 100.50 185.17 108.92 C 180.91 115.51 172.78 119.31 164.99 118.43 C 151.95 117.55 142.19 103.06 146.44 90.66 C 148.49 83.51 154.51 77.75 161.68 75.86 Z" />
<path fill="#000000" opacity="1.00" d=" M 117.32 160.23 C 117.74 160.82 117.74 160.82 117.32 160.23 Z" />
</g>
<g id="#d0d0d0ff">
<path fill="#d0d0d0" opacity="1.00" d=" M 90.21 102.47 C 90.82 102.48 92.04 102.50 92.66 102.51 C 94.67 106.10 96.62 109.77 97.81 113.72 C 97.47 113.64 96.79 113.47 96.45 113.39 C 97.77 115.92 99.06 118.47 100.31 121.04 C 99.88 122.74 99.48 124.44 99.08 126.14 C 98.48 125.91 97.27 125.44 96.67 125.20 C 95.17 121.84 92.60 119.15 90.67 116.06 C 90.33 114.05 89.97 112.05 89.36 110.11 L 90.30 110.85 C 91.64 112.22 92.91 113.67 94.18 115.11 C 92.42 111.48 90.00 108.22 88.29 104.56 C 89.02 104.92 90.48 105.65 91.21 106.02 C 91.07 105.55 90.81 104.61 90.67 104.15 C 90.56 103.73 90.32 102.89 90.21 102.47 Z" />
</g>
<g id="#858585ff">
<path fill="#858585" opacity="1.00" d=" M 27.88 111.27 C 39.54 116.11 51.34 120.68 62.48 126.66 C 78.70 135.18 93.38 146.24 108.43 156.60 C 109.79 157.36 111.13 158.82 112.86 158.22 C 111.50 159.44 113.38 160.43 114.53 160.34 C 114.64 160.76 114.87 161.62 114.98 162.05 C 98.25 151.16 82.60 138.59 65.03 129.02 C 53.10 122.73 40.85 116.80 27.98 112.68 C 27.96 112.32 27.91 111.62 27.88 111.27 Z" />
<path fill="#858585" opacity="1.00" d=" M 30.88 132.15 C 31.47 132.11 32.64 132.03 33.23 131.99 C 39.71 134.61 45.79 138.12 52.29 140.70 C 74.29 149.92 95.05 161.82 117.15 170.80 C 122.51 172.74 127.77 175.27 133.50 175.87 L 132.95 175.88 C 135.51 177.40 138.44 177.99 141.41 177.89 C 139.99 177.39 138.58 176.92 137.16 176.46 C 137.98 176.14 138.80 175.82 139.63 175.51 C 137.73 174.90 137.49 172.84 136.93 171.22 C 141.87 171.36 145.19 176.34 150.24 175.46 C 150.60 175.69 151.32 176.16 151.68 176.40 C 152.13 176.70 153.03 177.30 153.48 177.60 C 153.49 178.13 153.52 179.18 153.53 179.71 C 151.63 179.69 149.72 179.68 147.82 179.66 C 147.63 178.82 147.45 178.00 147.27 177.17 C 146.98 177.37 146.38 177.78 146.09 177.99 C 144.77 178.54 143.44 179.06 142.09 179.56 C 139.76 179.55 137.46 179.98 135.15 180.21 C 131.41 180.07 127.85 178.71 124.33 177.56 L 125.64 176.90 C 129.12 177.40 132.45 178.86 136.02 178.75 C 109.35 171.35 85.45 157.02 60.34 145.82 C 50.42 141.47 40.50 137.12 30.88 132.15 Z" />
<path fill="#858585" opacity="1.00" d=" M 101.19 148.02 C 104.66 149.66 107.45 152.33 110.38 154.74 C 106.51 154.20 103.64 150.83 101.19 148.02 Z" />
</g>
<g id="#6f6f6fff">
<path fill="#6f6f6f" opacity="1.00" d=" M 96.45 113.39 C 96.79 113.47 97.47 113.64 97.81 113.72 C 102.77 124.86 108.92 135.43 115.87 145.44 C 115.52 146.14 114.83 147.53 114.48 148.23 C 112.10 145.74 110.08 142.95 107.82 140.36 C 107.57 138.47 107.13 136.60 106.28 134.88 C 104.08 130.36 102.61 125.52 100.31 121.04 C 99.06 118.47 97.77 115.92 96.45 113.39 Z" />
</g>
<g id="#c7c7c7ff">
<path fill="#c7c7c7" opacity="1.00" d=" M 99.08 126.14 C 99.48 124.44 99.88 122.74 100.31 121.04 C 102.61 125.52 104.08 130.36 106.28 134.88 C 107.13 136.60 107.57 138.47 107.82 140.36 C 103.60 135.71 99.76 130.67 96.67 125.20 C 97.27 125.44 98.48 125.91 99.08 126.14 Z" />
</g>
<g id="#fafafaff">
<path fill="#fafafa" opacity="1.00" d=" M 88.23 126.05 C 88.45 126.27 88.90 126.71 89.12 126.93 C 88.90 126.71 88.45 126.27 88.23 126.05 Z" />
</g>
<g id="#f7f7f7ff">
<path fill="#f7f7f7" opacity="1.00" d=" M 89.12 126.93 C 89.34 127.16 89.77 127.63 89.99 127.87 C 89.77 127.63 89.34 127.16 89.12 126.93 Z" />
</g>
<g id="#f3f3f3ff">
<path fill="#f3f3f3" opacity="1.00" d=" M 89.99 127.87 C 90.18 128.08 90.57 128.51 90.77 128.72 C 90.57 128.51 90.18 128.08 89.99 127.87 Z" />
</g>
<g id="#e9e9e9ff">
<path fill="#e9e9e9" opacity="1.00" d=" M 90.77 128.72 C 91.35 129.34 91.35 129.34 90.77 128.72 Z" />
</g>
<g id="#242424ff">
<path fill="#242424" opacity="1.00" d=" M 114.48 148.23 C 114.83 147.53 115.52 146.14 115.87 145.44 C 122.65 155.40 132.04 163.46 142.66 169.10 C 138.60 168.63 135.26 166.13 131.89 164.05 C 125.26 159.75 119.83 153.97 114.48 148.23 Z" />
<path fill="#242424" opacity="1.00" d=" M 102.72 229.27 C 103.15 229.25 104.01 229.22 104.43 229.20 C 104.42 233.41 104.42 237.63 104.43 241.84 C 104.00 241.83 103.14 241.81 102.71 241.80 C 102.76 237.62 102.76 233.44 102.72 229.27 Z" />
</g>
<g id="#abababff">
<path fill="#ababab" opacity="1.00" d=" M 108.63 148.82 C 108.71 148.94 108.87 149.18 108.94 149.31 L 108.63 149.08 L 108.63 148.82 Z" />
<path fill="#ababab" opacity="1.00" d=" M 150.83 172.14 C 156.09 172.41 161.31 173.11 166.54 173.69 C 171.26 174.21 176.05 173.50 180.75 174.30 C 181.26 174.58 182.30 175.13 182.81 175.40 C 184.27 175.43 185.73 175.45 187.20 175.47 L 188.03 174.77 C 190.02 174.83 192.01 174.89 193.99 175.16 C 183.84 178.05 173.14 177.48 162.86 175.67 C 158.96 174.10 155.01 172.77 150.83 172.14 Z" />
</g>
<g id="#424242ff">
<path fill="#424242" opacity="1.00" d=" M 110.38 154.74 C 111.84 155.52 113.66 156.23 114.25 157.94 C 113.90 158.01 113.21 158.15 112.86 158.22 C 111.60 157.48 110.33 156.33 110.38 154.74 Z" />
<path fill="#424242" opacity="1.00" d=" M 57.20 175.16 C 60.47 174.97 63.44 176.86 66.54 177.68 C 95.26 186.84 125.80 192.50 155.94 188.54 L 155.69 189.74 C 122.39 193.79 88.91 186.72 57.48 175.97 C 57.41 175.77 57.27 175.36 57.20 175.16 Z" />
<path fill="#424242" opacity="1.00" d=" M 151.68 176.40 C 154.69 176.43 157.79 176.27 160.69 177.28 C 166.65 179.26 172.82 180.55 179.02 181.53 C 181.22 181.95 183.77 182.11 185.17 184.17 C 184.38 184.36 182.79 184.73 182.00 184.91 C 180.86 184.46 179.71 184.00 178.57 183.55 C 178.26 183.85 177.64 184.45 177.33 184.75 C 176.67 184.06 176.00 183.38 175.33 182.70 C 170.06 181.83 164.71 181.02 159.38 182.04 C 153.80 181.50 148.18 181.97 142.60 181.50 C 144.64 181.11 146.69 180.81 148.74 180.45 C 146.44 180.34 144.15 180.40 141.85 180.47 C 143.29 179.68 144.75 178.94 146.09 177.99 C 146.38 177.78 146.98 177.37 147.27 177.17 C 147.45 178.00 147.63 178.82 147.82 179.66 C 149.72 179.68 151.63 179.69 153.53 179.71 C 153.52 179.18 153.49 178.13 153.48 177.60 C 153.03 177.30 152.13 176.70 151.68 176.40 Z" />
<path fill="#424242" opacity="1.00" d=" M 88.76 194.41 C 113.67 198.24 139.43 197.61 163.88 191.22 L 163.79 192.62 C 141.30 198.11 117.86 199.36 94.92 196.46 C 93.02 196.29 91.11 195.73 89.21 196.24 C 89.10 195.79 88.87 194.87 88.76 194.41 Z" />
</g>
<g id="#b5b5b5ff">
<path fill="#b5b5b5" opacity="1.00" d=" M 112.86 158.22 C 113.21 158.15 113.90 158.01 114.25 157.94 C 114.32 158.54 114.46 159.74 114.53 160.34 C 113.38 160.43 111.50 159.44 112.86 158.22 Z" />
<path fill="#b5b5b5" opacity="1.00" d=" M 120.05 160.20 C 121.97 161.34 123.87 162.48 125.85 163.52 C 127.92 164.73 130.03 165.89 132.16 167.00 C 131.71 167.38 130.80 168.12 130.34 168.49 C 132.99 167.96 134.89 169.93 136.93 171.22 C 137.49 172.84 137.73 174.90 139.63 175.51 C 138.80 175.82 137.98 176.14 137.16 176.46 C 138.58 176.92 139.99 177.39 141.41 177.89 C 138.44 177.99 135.51 177.40 132.95 175.88 L 133.50 175.87 C 131.30 175.02 129.09 174.23 126.89 173.42 C 126.91 172.92 126.96 171.92 126.99 171.42 C 125.70 170.41 122.82 169.41 125.65 168.14 C 123.23 167.18 120.96 165.87 118.88 164.30 L 120.78 163.76 C 119.81 162.84 118.84 161.92 117.89 160.98 C 118.43 160.79 119.51 160.40 120.05 160.20 Z" />
</g>
<g id="#3c3c3cff">
<path fill="#3c3c3c" opacity="1.00" d=" M 127.30 163.45 C 132.11 166.09 137.07 169.68 142.80 169.38 C 142.86 169.82 143.00 170.70 143.06 171.14 C 143.13 170.59 143.25 169.51 143.31 168.96 C 144.85 169.69 146.38 170.44 147.94 171.13 C 147.84 171.51 147.65 172.25 147.55 172.62 C 148.44 173.58 149.32 174.53 150.24 175.46 C 145.19 176.34 141.87 171.36 136.93 171.22 C 134.89 169.93 132.99 167.96 130.34 168.49 C 130.80 168.12 131.71 167.38 132.16 167.00 C 130.03 165.89 127.92 164.73 125.85 163.52 C 126.21 163.50 126.94 163.47 127.30 163.45 Z" />
</g>
<g id="#121212ff">
<path fill="#121212" opacity="1.00" d=" M 122.30 168.04 C 124.87 166.10 122.80 171.54 122.30 168.04 Z" />
<path fill="#121212" opacity="1.00" d=" M 177.79 187.85 C 178.85 187.00 180.36 187.55 181.61 187.33 C 179.99 188.57 178.31 189.73 176.67 190.93 C 176.99 189.88 177.36 188.85 177.79 187.85 Z" />
<path fill="#121212" opacity="1.00" d=" M 26.78 240.45 C 26.47 236.74 25.69 232.54 27.79 229.20 C 29.61 229.07 31.45 229.18 33.16 229.90 C 33.12 231.10 33.87 232.76 32.18 233.16 C 31.79 231.49 30.83 229.65 28.78 230.74 C 28.13 233.89 28.50 237.13 28.50 240.32 C 29.52 240.45 30.54 240.58 31.56 240.70 C 31.80 238.89 32.10 236.77 30.02 235.92 C 31.12 235.72 32.23 235.60 33.34 235.52 C 33.41 237.51 33.45 239.49 33.51 241.48 C 31.20 241.83 27.96 243.35 26.78 240.45 Z" />
<path fill="#121212" opacity="1.00" d=" M 42.78 229.43 C 44.59 229.21 46.43 229.19 48.26 229.37 C 47.56 230.66 46.00 230.29 44.83 230.57 C 44.80 231.52 44.74 233.43 44.71 234.38 C 45.42 234.56 46.84 234.91 47.55 235.08 C 46.88 235.43 45.54 236.11 44.88 236.46 C 44.88 237.85 44.90 239.25 44.92 240.64 C 46.40 240.42 47.47 240.91 48.15 242.13 C 46.59 242.25 45.02 242.36 43.46 242.47 C 42.16 238.26 43.18 233.76 42.78 229.43 Z" />
<path fill="#121212" opacity="1.00" d=" M 184.23 229.19 C 186.15 229.44 188.53 228.57 190.08 230.05 C 191.42 232.07 190.13 234.22 189.35 236.15 C 189.51 238.42 191.04 240.60 190.18 242.89 C 187.98 241.04 188.80 237.30 186.33 235.83 C 185.70 237.86 187.56 242.22 184.20 242.02 C 184.17 237.74 184.16 233.46 184.23 229.19 M 186.28 229.94 C 186.22 231.58 186.20 233.22 186.21 234.86 C 186.80 234.74 187.99 234.52 188.59 234.40 C 188.94 232.41 188.59 230.36 186.28 229.94 Z" />
</g>
<g id="#010101ff">
<path fill="#010101" opacity="1.00" d=" M 147.94 171.13 C 148.88 171.52 149.85 171.86 150.83 172.14 C 155.01 172.77 158.96 174.10 162.86 175.67 C 173.14 177.48 183.84 178.05 193.99 175.16 C 192.01 174.89 190.02 174.83 188.03 174.77 L 187.20 175.47 C 185.73 175.45 184.27 175.43 182.81 175.40 C 182.30 175.13 181.26 174.58 180.75 174.30 C 185.47 175.14 190.24 174.11 195.00 174.45 C 195.40 174.33 196.21 174.10 196.62 173.99 C 192.63 178.92 187.40 182.57 182.84 186.90 C 182.63 186.40 182.21 185.41 182.00 184.91 C 182.79 184.73 184.38 184.36 185.17 184.17 C 183.77 182.11 181.22 181.95 179.02 181.53 C 172.82 180.55 166.65 179.26 160.69 177.28 C 157.79 176.27 154.69 176.43 151.68 176.40 C 151.32 176.16 150.60 175.69 150.24 175.46 C 149.32 174.53 148.44 173.58 147.55 172.62 C 147.65 172.25 147.84 171.51 147.94 171.13 Z" />
</g>
<g id="#787878ff">
<path fill="#787878" opacity="1.00" d=" M 137.19 180.64 C 137.80 179.35 141.30 179.54 141.77 180.98 C 140.38 181.66 138.53 181.32 137.19 180.64 Z" />
</g>
<g id="#6e6e6eff">
<path fill="#6e6e6e" opacity="1.00" d=" M 159.38 182.04 C 164.71 181.02 170.06 181.83 175.33 182.70 C 176.00 183.38 176.67 184.06 177.33 184.75 C 177.64 184.45 178.26 183.85 178.57 183.55 C 179.71 184.00 180.86 184.46 182.00 184.91 C 182.21 185.41 182.63 186.40 182.84 186.90 C 182.53 187.01 181.91 187.22 181.61 187.33 C 180.36 187.55 178.85 187.00 177.79 187.85 C 177.36 188.85 176.99 189.88 176.67 190.93 L 176.45 190.91 C 175.99 190.87 175.06 190.80 174.60 190.76 C 168.96 188.70 163.07 187.71 157.20 186.57 L 157.18 185.23 C 159.53 185.40 161.88 185.59 164.23 185.69 C 157.31 184.17 150.19 184.26 143.16 183.74 C 143.16 183.58 143.17 183.26 143.17 183.10 C 148.49 181.97 154.00 182.82 159.38 182.04 Z" />
</g>
<g id="#838383ff">
<path fill="#838383" opacity="1.00" d=" M 138.93 184.39 C 144.80 184.86 150.72 184.33 156.57 184.99 L 157.13 186.48 C 151.24 186.07 145.32 186.37 139.44 185.94 L 138.93 184.39 Z" />
</g>
<g id="#797979ff">
<path fill="#797979" opacity="1.00" d=" M 128.07 188.42 C 127.98 187.89 127.80 186.82 127.70 186.29 C 137.38 187.26 147.10 187.06 156.81 186.79 C 155.72 187.62 154.58 188.86 153.04 188.38 C 148.68 188.15 144.33 188.24 139.98 188.36 C 136.01 188.45 131.99 187.40 128.07 188.42 Z" />
</g>
<g id="#767676ff">
<path fill="#767676" opacity="1.00" d=" M 156.14 189.40 C 156.87 188.68 157.63 187.97 158.39 187.28 C 161.65 188.08 165.23 188.33 168.08 190.22 C 164.53 189.77 160.03 193.24 157.26 189.87 C 158.99 190.07 160.64 189.87 162.22 189.26 C 160.19 189.22 158.16 189.27 156.14 189.40 Z" />
</g>
<g id="#5d5d5dff">
<path fill="#5d5d5d" opacity="1.00" d=" M 168.32 190.14 C 171.22 188.85 168.30 193.42 168.32 190.14 Z" />
</g>
<g id="#727272ff">
<path fill="#727272" opacity="1.00" d=" M 142.54 192.03 C 147.55 192.14 152.47 191.15 157.37 190.21 C 157.28 190.79 157.11 191.96 157.02 192.55 C 152.15 192.05 147.28 193.77 142.36 193.76 L 141.82 193.12 C 142.00 192.85 142.36 192.31 142.54 192.03 Z" />
</g>
<g id="#606060ff">
<path fill="#606060" opacity="1.00" d=" M 165.05 192.27 C 162.59 191.58 166.32 190.20 167.12 191.31 L 167.11 191.83 C 166.59 191.94 165.57 192.16 165.05 192.27 Z" />
</g>
<g id="#161616ff">
<path fill="#161616" opacity="1.00" d=" M 87.54 229.55 C 89.17 228.70 90.89 228.77 92.53 229.57 C 92.63 230.68 93.01 231.89 92.27 232.88 C 91.29 232.09 90.40 229.15 88.92 230.92 C 88.02 233.18 90.93 234.45 92.04 236.02 C 93.90 237.39 94.28 240.66 91.99 241.80 C 89.81 243.72 86.08 240.88 87.31 238.25 C 89.24 238.23 89.15 242.23 91.48 240.50 C 92.60 237.42 88.60 236.14 87.38 233.83 C 86.25 232.49 87.06 230.93 87.54 229.55 Z" />
<path fill="#161616" opacity="1.00" d=" M 73.35 229.16 C 75.19 229.19 77.03 229.27 78.86 229.48 C 77.78 230.19 76.52 230.43 75.25 230.57 C 75.25 231.56 75.27 233.54 75.27 234.52 C 76.26 234.67 77.22 234.92 78.15 235.29 C 74.68 235.06 75.19 238.19 75.18 240.63 C 75.91 241.02 79.48 240.47 78.04 242.15 C 76.51 242.34 74.97 242.27 73.44 242.30 C 73.23 237.92 73.31 233.54 73.35 229.16 Z" />
<path fill="#161616" opacity="1.00" d=" M 114.70 229.45 C 116.29 229.13 117.91 229.18 119.51 229.53 C 119.65 230.69 119.70 231.87 119.67 233.05 C 118.68 232.11 117.73 231.10 116.78 230.13 C 113.97 232.60 118.06 234.72 119.35 236.69 C 121.63 238.55 119.96 242.78 117.05 242.39 C 114.87 242.55 114.06 240.16 113.82 238.44 C 115.82 238.37 115.95 241.35 118.13 240.89 C 119.97 237.06 114.03 235.63 113.55 232.05 C 113.84 231.40 114.41 230.10 114.70 229.45 Z" />
<path fill="#161616" opacity="1.00" d=" M 136.72 229.86 C 139.32 228.35 143.56 229.18 142.66 232.96 C 141.33 232.03 140.13 230.77 138.46 230.46 C 137.56 234.43 142.63 235.52 143.50 239.03 C 142.72 240.49 141.88 242.62 139.86 242.40 C 137.60 242.67 136.52 240.10 136.49 238.22 C 138.67 238.17 138.76 242.13 141.24 240.42 C 142.31 237.94 139.19 236.62 137.95 234.98 C 136.17 233.81 136.63 231.64 136.72 229.86 Z" />
<path fill="#161616" opacity="1.00" d=" M 200.19 228.73 C 202.25 228.98 204.29 229.31 206.32 229.79 C 206.81 233.29 207.12 236.91 206.41 240.41 C 205.31 242.74 202.30 242.27 200.17 242.34 C 200.07 237.80 200.05 233.26 200.19 228.73 M 202.27 230.28 C 202.03 233.79 201.65 237.33 202.19 240.84 C 202.78 240.76 203.97 240.60 204.56 240.52 C 204.88 237.22 204.96 233.90 204.49 230.62 C 203.94 230.53 202.83 230.37 202.27 230.28 Z" />
<path fill="#161616" opacity="1.00" d=" M 215.95 231.06 C 216.63 228.52 219.59 229.07 221.53 229.52 C 221.62 230.67 221.70 231.81 221.77 232.97 C 220.37 231.87 218.52 228.89 217.36 231.96 C 218.83 235.02 223.99 236.89 222.06 240.94 C 219.96 244.26 214.75 241.41 216.36 237.82 C 217.59 238.89 218.32 241.67 220.41 240.55 C 221.87 236.52 214.53 235.22 215.95 231.06 Z" />
</g>
<g id="#070707ff">
<path fill="#070707" opacity="1.00" d=" M 57.29 228.80 C 59.70 230.25 59.84 233.45 61.24 235.68 C 61.50 235.63 62.01 235.52 62.26 235.47 C 62.31 233.37 62.26 231.28 62.24 229.19 C 62.56 229.19 63.21 229.19 63.53 229.19 C 63.53 233.50 63.57 237.81 63.49 242.12 C 60.38 240.96 61.55 236.27 58.65 234.98 C 58.35 237.57 59.45 240.64 57.72 242.89 C 56.68 238.28 57.30 233.49 57.29 228.80 Z" />
</g>
<g id="#353535ff">
<path fill="#353535" opacity="1.00" d=" M 151.87 240.90 C 151.82 237.07 151.71 233.22 151.95 229.39 C 152.41 229.28 153.32 229.07 153.78 228.96 C 153.93 230.83 154.08 232.71 154.24 234.59 C 154.91 234.59 156.27 234.58 156.94 234.58 C 157.12 232.77 157.18 230.95 157.25 229.15 L 159.12 229.17 C 159.09 232.82 159.18 236.47 159.13 240.12 C 159.25 241.06 158.86 243.04 157.51 242.45 C 157.17 240.39 157.16 238.30 157.01 236.23 C 156.32 236.23 154.94 236.22 154.25 236.22 C 154.06 238.33 154.69 240.71 153.37 242.56 C 152.59 242.41 151.81 241.75 151.87 240.90 Z" />
</g>
<g id="#020202ff">
<path fill="#020202" opacity="1.00" d=" M 170.68 229.32 C 171.12 229.27 171.99 229.16 172.42 229.11 C 172.68 229.97 173.20 231.68 173.47 232.54 C 173.00 233.38 172.52 234.23 172.05 235.07 L 171.06 232.46 C 170.91 234.11 170.76 235.76 170.61 237.42 L 172.32 237.58 C 172.70 236.31 173.24 235.11 173.92 233.98 C 174.18 236.41 174.47 238.86 175.32 241.17 C 174.86 241.66 174.40 242.17 173.94 242.67 C 173.63 241.31 173.33 239.94 173.05 238.58 C 172.54 238.70 171.51 238.93 171.00 239.05 C 169.42 239.53 170.12 242.21 168.56 242.51 C 167.97 238.06 170.14 233.73 170.68 229.32 Z" />
</g>
</svg>
