<?xml version="1.0" encoding="UTF-8" ?>
<!DOCTYPE svg PUBLIC "-//W3C//DTD SVG 1.1//EN" "http://www.w3.org/Graphics/SVG/1.1/DTD/svg11.dtd">
<svg width="250pt" height="250pt" viewBox="0 0 250 250" version="1.1" xmlns="http://www.w3.org/2000/svg">
<g id="#fefefeff">
<path fill="#fefefe" opacity="1.00" d=" M 0.00 0.00 L 82.62 0.00 C 81.02 4.05 76.09 3.50 72.66 4.67 C 45.82 17.42 21.02 38.38 8.55 65.59 C 2.43 70.03 6.28 79.24 0.00 83.51 L 0.00 0.00 Z" />
<path fill="#fefefe" opacity="1.00" d=" M 166.49 0.00 L 250.00 0.00 L 250.00 83.49 C 244.51 79.71 246.86 71.94 242.59 67.35 C 231.75 45.38 214.02 26.93 193.90 13.16 C 189.84 11.92 185.89 10.25 182.66 7.39 C 178.17 2.83 170.29 5.49 166.49 0.00 Z" />
<path fill="#fefefe" opacity="1.00" d=" M 0.00 166.48 C 6.04 170.81 2.84 179.67 8.61 184.35 C 21.34 211.38 45.61 233.01 72.67 245.33 C 76.54 246.16 80.92 246.63 83.53 250.00 L 0.00 250.00 L 0.00 166.48 Z" />
<path fill="#fefefe" opacity="1.00" d=" M 242.21 183.19 C 247.42 178.81 244.27 170.43 250.00 166.49 L 250.00 250.00 L 167.40 250.00 C 170.54 243.36 180.11 247.33 184.36 241.42 C 205.91 231.49 222.35 213.37 236.81 194.91 C 238.33 190.89 239.02 186.34 242.21 183.19 Z" />
</g>
<g id="#e8e8eaff">
<path fill="#e8e8ea" opacity="1.00" d=" M 82.62 0.00 L 86.58 0.00 C 83.90 6.99 75.31 5.19 70.22 9.24 C 41.83 22.00 19.47 46.71 6.67 74.66 C 5.48 78.95 5.50 85.35 0.00 86.45 L 0.00 83.51 C 6.28 79.24 2.43 70.03 8.55 65.59 C 21.02 38.38 45.82 17.42 72.66 4.67 C 76.09 3.50 81.02 4.05 82.62 0.00 Z" />
<path fill="#e8e8ea" opacity="1.00" d=" M 0.00 163.44 C 7.65 166.29 4.72 176.04 9.84 181.12 C 13.50 185.14 13.62 190.93 16.88 195.16 C 27.68 209.20 40.07 222.17 54.39 232.63 C 58.66 236.17 64.74 236.37 68.83 240.19 C 73.74 245.54 83.67 242.27 86.57 250.00 L 83.53 250.00 C 80.92 246.63 76.54 246.16 72.67 245.33 C 45.61 233.01 21.34 211.38 8.61 184.35 C 2.84 179.67 6.04 170.81 0.00 166.48 L 0.00 163.44 Z" />
<path fill="#e8e8ea" opacity="1.00" d=" M 242.58 177.64 C 244.35 172.53 244.00 165.72 250.00 163.44 L 250.00 166.49 C 244.27 170.43 247.42 178.81 242.21 183.19 C 239.02 186.34 238.33 190.89 236.81 194.91 C 222.35 213.37 205.91 231.49 184.36 241.42 C 180.11 247.33 170.54 243.36 167.40 250.00 L 163.42 250.00 C 165.74 243.69 173.09 244.79 177.93 241.90 C 183.37 237.41 190.59 236.34 196.18 232.21 C 205.98 224.47 215.73 216.40 223.52 206.55 C 232.94 199.01 235.64 186.95 242.58 177.64 Z" />
</g>
<g id="#c6c7ccff">
<path fill="#c6c7cc" opacity="1.00" d=" M 86.58 0.00 L 90.49 0.00 C 87.80 6.37 81.33 7.10 75.37 8.42 C 65.24 15.23 51.45 17.69 44.97 28.99 C 37.94 32.31 32.63 38.15 28.80 44.80 C 27.57 45.89 26.23 46.86 24.99 47.94 C 16.90 54.84 15.08 65.70 9.09 74.04 C 5.91 79.64 7.15 87.77 0.00 90.56 L 0.00 86.45 C 5.50 85.35 5.48 78.95 6.67 74.66 C 19.47 46.71 41.83 22.00 70.22 9.24 C 75.31 5.19 83.90 6.99 86.58 0.00 Z" />
</g>
<g id="#a3a4acff">
<path fill="#a3a4ac" opacity="1.00" d=" M 90.49 0.00 L 95.57 0.00 C 92.60 6.29 84.98 7.58 78.90 8.92 C 66.92 14.43 55.04 20.29 44.97 28.99 C 51.45 17.69 65.24 15.23 75.37 8.42 C 81.33 7.10 87.80 6.37 90.49 0.00 Z" />
</g>
<g id="#80818dff">
<path fill="#80818d" opacity="1.00" d=" M 95.57 0.00 L 100.50 0.00 C 98.91 8.28 88.72 7.26 82.42 9.47 C 55.19 19.36 32.15 39.51 17.48 64.39 C 16.24 69.87 12.99 74.32 10.04 79.00 C 7.35 85.91 9.57 98.32 0.00 100.49 L 0.00 95.57 C 6.73 92.50 7.19 84.12 8.89 77.89 C 13.81 67.62 20.15 58.20 24.99 47.94 C 26.23 46.86 27.57 45.89 28.80 44.80 C 34.48 39.84 39.87 34.55 44.97 28.99 C 55.04 20.29 66.92 14.43 78.90 8.92 C 84.98 7.58 92.60 6.29 95.57 0.00 Z" />
</g>
<g id="#5f606fff">
<path fill="#5f606f" opacity="1.00" d=" M 100.50 0.00 L 107.44 0.00 C 104.45 9.84 92.12 8.20 84.16 10.25 C 74.11 15.88 63.17 18.79 53.99 26.02 C 38.54 39.62 22.21 54.23 15.03 74.14 C 5.57 83.02 13.89 102.58 0.00 107.44 L 0.00 100.49 C 9.57 98.32 7.35 85.91 10.04 79.00 C 12.99 74.32 16.24 69.87 17.48 64.39 C 32.15 39.51 55.19 19.36 82.42 9.47 C 88.72 7.26 98.91 8.28 100.50 0.00 Z" />
</g>
<g id="#424354ff">
<path fill="#424354" opacity="1.00" d=" M 107.44 0.00 L 115.30 0.00 C 111.53 16.80 89.36 5.58 79.67 15.61 C 75.77 20.28 68.03 16.47 64.96 21.98 C 61.68 27.39 54.01 26.41 50.56 31.59 C 41.95 41.67 29.80 49.09 24.64 61.64 C 18.33 64.66 19.86 71.82 16.89 76.88 C 5.36 84.91 15.48 102.43 6.32 112.30 C 4.87 114.38 2.19 113.90 0.00 114.22 L 0.00 107.44 C 13.89 102.58 5.57 83.02 15.03 74.14 C 22.21 54.23 38.54 39.62 53.99 26.02 C 63.17 18.79 74.11 15.88 84.16 10.25 C 92.12 8.20 104.45 9.84 107.44 0.00 Z" />
</g>
<g id="#2d2e42ff">
<path fill="#2d2e42" opacity="1.00" d=" M 115.30 0.00 L 135.66 0.00 C 136.12 12.36 152.82 9.85 161.01 10.98 C 167.23 8.74 169.76 14.39 173.33 17.65 C 178.27 18.74 183.91 18.37 186.60 23.47 C 200.66 29.50 209.55 43.02 221.12 52.87 C 222.89 58.08 225.55 62.60 229.93 66.04 C 230.79 72.21 232.00 78.58 237.10 82.85 C 241.60 92.06 235.15 112.80 250.00 114.34 L 250.00 134.58 C 233.58 138.02 243.08 159.89 236.21 170.20 C 229.41 173.61 233.17 183.01 226.60 186.58 C 222.57 189.70 223.30 196.12 218.79 198.78 C 207.80 206.68 201.09 220.66 187.82 224.90 C 183.55 233.19 172.81 228.87 167.58 236.54 C 157.80 241.70 137.43 234.86 134.59 250.00 L 114.22 250.00 C 113.79 235.37 92.24 240.69 83.26 238.75 C 78.71 234.34 74.44 229.96 67.33 230.66 C 63.82 226.40 59.47 223.33 54.13 221.76 C 45.54 213.51 37.04 204.94 28.48 196.58 C 27.17 191.46 24.21 187.24 20.11 183.93 C 18.99 177.85 18.29 171.22 12.84 167.17 C 9.49 158.22 12.73 147.19 7.24 138.76 C 5.75 136.08 2.76 135.81 0.00 135.78 L 0.00 114.22 C 2.19 113.90 4.87 114.38 6.32 112.30 C 15.48 102.43 5.36 84.91 16.89 76.88 C 19.86 71.82 18.33 64.66 24.64 61.64 C 29.80 49.09 41.95 41.67 50.56 31.59 C 54.01 26.41 61.68 27.39 64.96 21.98 C 68.03 16.47 75.77 20.28 79.67 15.61 C 89.36 5.58 111.53 16.80 115.30 0.00 M 118.40 35.55 C 113.27 35.25 108.53 36.60 106.57 41.61 C 95.40 46.22 85.21 52.78 74.90 58.86 C 66.26 60.48 66.42 70.17 65.82 77.04 C 62.45 76.88 61.37 71.99 58.02 72.01 C 51.42 74.14 41.30 76.89 43.27 86.29 C 43.67 113.91 41.06 141.94 44.65 169.35 C 53.61 179.70 65.70 187.79 78.80 192.26 C 88.32 197.59 96.18 205.46 106.98 207.98 C 114.06 217.68 128.61 214.28 138.67 212.65 C 147.28 203.02 161.26 201.29 170.33 192.39 C 179.60 190.89 184.69 182.30 194.04 181.05 C 197.84 174.61 207.41 172.82 206.71 163.71 C 207.06 137.75 207.55 111.63 206.40 85.68 C 207.78 77.14 198.01 75.41 194.64 69.42 C 186.70 66.10 180.88 58.94 172.02 57.93 C 162.24 53.52 155.76 42.76 144.26 42.72 C 139.62 32.81 127.05 35.09 118.40 35.55 Z" />
</g>
<g id="#434456ff">
<path fill="#434456" opacity="1.00" d=" M 135.66 0.00 L 143.53 0.00 C 147.72 13.80 165.55 5.30 174.34 13.61 C 198.30 24.23 217.90 43.32 231.62 65.33 C 232.90 71.37 235.23 76.91 239.16 81.72 C 241.52 89.79 239.79 103.48 250.00 106.48 L 250.00 114.34 C 235.15 112.80 241.60 92.06 237.10 82.85 C 232.00 78.58 230.79 72.21 229.93 66.04 C 225.55 62.60 222.89 58.08 221.12 52.87 C 209.55 43.02 200.66 29.50 186.60 23.47 C 183.91 18.37 178.27 18.74 173.33 17.65 C 169.76 14.39 167.23 8.74 161.01 10.98 C 152.82 9.85 136.12 12.36 135.66 0.00 Z" />
</g>
<g id="#646573ff">
<path fill="#646573" opacity="1.00" d=" M 143.53 0.00 L 149.67 0.00 C 151.62 4.00 155.19 6.82 159.67 7.32 C 174.77 8.86 186.32 19.93 200.02 25.01 C 207.23 34.54 216.96 42.07 224.89 51.05 C 232.09 63.55 239.94 76.06 242.64 90.37 C 243.73 94.32 245.72 98.38 250.00 99.43 L 250.00 106.48 C 239.79 103.48 241.52 89.79 239.16 81.72 C 235.23 76.91 232.90 71.37 231.62 65.33 C 217.90 43.32 198.30 24.23 174.34 13.61 C 165.55 5.30 147.72 13.80 143.53 0.00 Z" />
</g>
<g id="#838490ff">
<path fill="#838490" opacity="1.00" d=" M 149.67 0.00 L 154.65 0.00 C 157.79 7.01 166.54 7.28 172.94 9.11 C 182.24 13.98 191.47 18.85 200.02 25.01 C 186.32 19.93 174.77 8.86 159.67 7.32 C 155.19 6.82 151.62 4.00 149.67 0.00 Z" />
</g>
<g id="#a2a3acff">
<path fill="#a2a3ac" opacity="1.00" d=" M 154.65 0.00 L 159.53 0.00 C 161.31 6.28 168.67 6.79 173.91 8.21 C 183.19 14.00 194.11 16.90 201.98 25.01 C 201.49 25.01 200.51 25.01 200.02 25.01 C 191.47 18.85 182.24 13.98 172.94 9.11 C 166.54 7.28 157.79 7.01 154.65 0.00 Z" />
</g>
<g id="#c3c4caff">
<path fill="#c3c4ca" opacity="1.00" d=" M 159.53 0.00 L 162.62 0.00 C 166.31 8.00 177.41 4.78 182.82 11.15 C 202.10 18.44 215.98 34.75 229.19 49.85 C 236.87 60.10 241.31 72.16 245.99 83.92 C 246.82 85.48 248.15 86.32 250.00 86.43 L 250.00 90.50 C 243.92 87.77 242.84 81.41 241.34 75.64 C 235.95 66.86 233.49 56.41 226.02 48.93 C 217.94 41.02 210.37 32.60 201.98 25.01 C 194.11 16.90 183.19 14.00 173.91 8.21 C 168.67 6.79 161.31 6.28 159.53 0.00 Z" />
</g>
<g id="#e7e7e9ff">
<path fill="#e7e7e9" opacity="1.00" d=" M 162.62 0.00 L 166.49 0.00 C 170.29 5.49 178.17 2.83 182.66 7.39 C 185.89 10.25 189.84 11.92 193.90 13.16 C 214.02 26.93 231.75 45.38 242.59 67.35 C 246.86 71.94 244.51 79.71 250.00 83.49 L 250.00 86.43 C 248.15 86.32 246.82 85.48 245.99 83.92 C 241.31 72.16 236.87 60.10 229.19 49.85 C 215.98 34.75 202.10 18.44 182.82 11.15 C 177.41 4.78 166.31 8.00 162.62 0.00 Z" />
</g>
<g id="#8b8b96ff">
<path fill="#8b8b96" opacity="1.00" d=" M 200.02 25.01 C 200.51 25.01 201.49 25.01 201.98 25.01 C 210.37 32.60 217.94 41.02 226.02 48.93 C 231.68 58.82 236.45 69.15 241.41 79.43 C 242.89 85.00 244.18 91.92 250.00 94.57 L 250.00 99.43 C 245.72 98.38 243.73 94.32 242.64 90.37 C 239.94 76.06 232.09 63.55 224.89 51.05 C 216.96 42.07 207.23 34.54 200.02 25.01 Z" />
</g>
<g id="#a5a5aeff">
<path fill="#a5a5ae" opacity="1.00" d=" M 28.80 44.80 C 32.63 38.15 37.94 32.31 44.97 28.99 C 39.87 34.55 34.48 39.84 28.80 44.80 Z" />
</g>
<g id="#323b58ff">
<path fill="#323b58" opacity="1.00" d=" M 118.40 35.55 C 127.05 35.09 139.62 32.81 144.26 42.72 C 155.76 42.76 162.24 53.52 172.02 57.93 C 180.88 58.94 186.70 66.10 194.64 69.42 C 198.01 75.41 207.78 77.14 206.40 85.68 C 207.55 111.63 207.06 137.75 206.71 163.71 C 207.41 172.82 197.84 174.61 194.04 181.05 C 184.69 182.30 179.60 190.89 170.33 192.39 C 161.26 201.29 147.28 203.02 138.67 212.65 C 128.61 214.28 114.06 217.68 106.98 207.98 C 96.18 205.46 88.32 197.59 78.80 192.26 C 65.70 187.79 53.61 179.70 44.65 169.35 C 41.06 141.94 43.67 113.91 43.27 86.29 C 41.30 76.89 51.42 74.14 58.02 72.01 C 61.37 71.99 62.45 76.88 65.82 77.04 C 66.42 70.17 66.26 60.48 74.90 58.86 C 85.21 52.78 95.40 46.22 106.57 41.61 C 108.53 36.60 113.27 35.25 118.40 35.55 M 107.62 43.64 C 102.33 45.70 97.70 48.84 92.99 51.90 C 85.56 53.30 81.39 60.49 73.99 62.00 C 64.86 67.92 68.34 81.53 69.39 90.64 C 71.18 97.39 79.89 93.65 84.22 96.79 C 87.76 101.59 94.54 104.50 93.62 111.57 C 94.97 126.10 92.89 140.81 94.69 155.33 C 95.14 158.58 93.45 163.72 89.25 161.81 C 84.51 158.20 88.06 150.93 87.11 146.01 C 88.38 132.17 89.39 117.82 85.72 104.30 C 81.44 98.84 69.63 101.36 69.16 109.12 C 67.57 125.87 70.12 142.85 68.82 159.71 C 67.39 162.61 63.66 162.65 62.20 159.75 C 60.63 133.72 63.87 107.62 62.42 81.65 C 60.67 71.69 45.58 77.08 45.34 85.31 C 44.65 108.04 44.91 130.95 45.26 153.72 C 44.38 160.66 45.84 168.80 52.36 172.57 C 65.79 185.76 84.72 189.79 99.01 201.93 C 107.74 203.76 113.74 212.80 122.98 212.07 C 138.56 214.68 147.74 199.30 161.59 195.51 C 167.78 189.18 176.82 188.27 183.21 182.29 C 192.00 178.59 204.54 172.00 203.73 161.00 C 205.38 159.85 204.94 157.74 205.05 156.01 C 204.89 134.34 205.13 112.67 204.95 91.00 C 205.43 84.04 201.05 78.13 195.41 74.56 C 184.08 63.59 168.10 60.83 156.35 50.58 C 151.09 45.43 143.00 45.42 137.96 40.04 C 128.70 34.98 114.56 34.79 107.62 43.64 Z" />
</g>
<g id="#3c5074ff">
<path fill="#3c5074" opacity="1.00" d=" M 107.62 43.64 C 114.56 34.79 128.70 34.98 137.96 40.04 C 143.00 45.42 151.09 45.43 156.35 50.58 C 168.10 60.83 184.08 63.59 195.41 74.56 C 201.05 78.13 205.43 84.04 204.95 91.00 C 205.13 112.67 204.89 134.34 205.05 156.01 C 204.94 157.74 205.38 159.85 203.73 161.00 L 202.86 160.68 C 202.91 157.75 203.04 154.86 203.03 151.95 C 201.25 129.70 207.51 106.81 202.04 84.97 C 193.22 72.51 178.98 64.72 165.14 58.81 C 158.11 54.51 151.80 49.04 144.19 45.74 C 138.31 43.63 133.22 37.59 126.51 38.75 C 125.49 38.75 124.47 38.75 123.45 38.76 C 110.39 38.95 101.93 51.48 89.73 54.82 C 83.04 62.02 68.06 63.32 70.03 76.01 C 67.90 83.73 69.94 96.44 80.98 94.09 C 100.73 98.91 95.27 124.05 96.24 138.86 C 95.62 146.67 101.03 158.75 93.04 164.08 C 90.61 166.13 87.82 163.50 86.17 161.69 C 85.12 144.45 87.29 126.96 85.22 109.84 C 84.55 102.45 72.36 101.72 71.05 109.07 C 68.55 125.75 70.42 142.95 70.74 159.70 C 69.33 166.07 60.89 165.41 59.30 159.63 C 58.65 134.45 61.33 109.27 60.91 84.09 C 59.94 77.13 49.70 78.01 47.96 83.96 C 42.93 107.90 48.16 132.63 46.97 156.86 C 46.97 157.67 46.96 159.28 46.96 160.08 C 46.37 157.96 45.80 155.84 45.26 153.72 C 44.91 130.95 44.65 108.04 45.34 85.31 C 45.58 77.08 60.67 71.69 62.42 81.65 C 63.87 107.62 60.63 133.72 62.20 159.75 C 63.66 162.65 67.39 162.61 68.82 159.71 C 70.12 142.85 67.57 125.87 69.16 109.12 C 69.63 101.36 81.44 98.84 85.72 104.30 C 89.39 117.82 88.38 132.17 87.11 146.01 C 88.06 150.93 84.51 158.20 89.25 161.81 C 93.45 163.72 95.14 158.58 94.69 155.33 C 92.89 140.81 94.97 126.10 93.62 111.57 C 94.54 104.50 87.76 101.59 84.22 96.79 C 79.89 93.65 71.18 97.39 69.39 90.64 C 68.34 81.53 64.86 67.92 73.99 62.00 C 81.39 60.49 85.56 53.30 92.99 51.90 C 97.70 48.84 102.33 45.70 107.62 43.64 Z" />
</g>
<g id="#466593ff">
<path fill="#466593" opacity="1.00" d=" M 89.73 54.82 C 101.93 51.48 110.39 38.95 123.45 38.76 C 113.10 41.35 105.22 49.08 96.09 54.07 C 89.88 55.61 85.72 60.61 80.09 63.20 C 68.97 67.01 68.74 82.93 73.74 91.20 C 84.02 91.11 93.74 96.97 96.89 107.18 C 97.92 109.38 100.27 112.95 103.04 111.10 C 108.26 106.99 108.10 98.50 114.15 95.13 C 121.20 91.25 130.34 90.97 136.92 96.08 C 147.18 108.43 146.64 126.89 137.87 139.91 C 134.61 143.82 133.61 148.90 131.12 153.22 L 130.00 152.79 C 132.74 141.22 142.83 132.53 141.97 119.98 C 142.57 110.72 140.88 99.99 132.05 94.96 C 123.01 91.00 111.00 95.94 108.86 105.88 C 108.30 111.62 103.64 121.02 111.10 124.04 C 122.11 124.30 112.93 107.10 122.38 104.27 C 136.58 101.72 135.06 123.25 128.61 130.60 C 121.96 139.02 119.51 150.49 111.98 158.06 L 112.07 157.00 C 118.13 141.56 132.48 128.46 130.98 111.08 C 129.50 106.90 123.12 105.50 120.22 109.25 C 118.09 113.95 120.31 120.38 116.29 124.33 C 111.44 128.44 104.00 119.12 100.30 125.31 C 96.56 137.09 103.54 150.99 98.68 162.68 C 95.85 167.61 86.02 169.14 84.64 162.34 C 83.07 146.45 84.14 130.23 84.69 114.33 C 85.29 107.69 75.22 103.92 72.60 110.64 C 71.28 122.55 72.11 134.75 72.28 146.77 C 71.33 152.47 74.36 160.66 68.68 164.70 C 64.86 167.93 60.56 163.40 57.08 161.84 C 56.82 153.49 57.12 145.13 56.84 136.78 C 56.45 120.88 58.87 105.02 57.80 89.12 C 57.24 86.51 57.00 81.67 53.11 83.04 C 48.34 83.60 47.94 89.30 48.08 93.01 C 47.98 108.91 47.71 124.83 48.28 140.73 C 48.13 146.23 48.05 151.74 47.82 157.24 L 46.97 156.86 C 48.16 132.63 42.93 107.90 47.96 83.96 C 49.70 78.01 59.94 77.13 60.91 84.09 C 61.33 109.27 58.65 134.45 59.30 159.63 C 60.89 165.41 69.33 166.07 70.74 159.70 C 70.42 142.95 68.55 125.75 71.05 109.07 C 72.36 101.72 84.55 102.45 85.22 109.84 C 87.29 126.96 85.12 144.45 86.17 161.69 C 87.82 163.50 90.61 166.13 93.04 164.08 C 101.03 158.75 95.62 146.67 96.24 138.86 C 95.27 124.05 100.73 98.91 80.98 94.09 C 69.94 96.44 67.90 83.73 70.03 76.01 C 68.06 63.32 83.04 62.02 89.73 54.82 Z" />
</g>
<g id="#4a678eff">
<path fill="#4a678e" opacity="1.00" d=" M 126.51 38.75 C 133.22 37.59 138.31 43.63 144.19 45.74 C 151.80 49.04 158.11 54.51 165.14 58.81 C 178.98 64.72 193.22 72.51 202.04 84.97 C 207.51 106.81 201.25 129.70 203.03 151.95 L 202.12 152.09 C 202.03 143.99 201.98 135.88 201.85 127.78 C 201.75 114.97 202.67 102.05 201.68 89.30 C 194.35 73.23 176.46 66.97 162.09 58.88 C 151.13 50.64 138.73 44.83 126.51 38.75 Z" />
</g>
<g id="#5580b2ff">
<path fill="#5580b2" opacity="1.00" d=" M 123.45 38.76 C 124.47 38.75 125.49 38.75 126.51 38.75 C 138.73 44.83 151.13 50.64 162.09 58.88 C 176.46 66.97 194.35 73.23 201.68 89.30 C 202.67 102.05 201.75 114.97 201.85 127.78 C 201.01 132.12 201.46 137.15 198.82 140.97 C 193.49 140.31 195.20 131.86 193.26 127.74 C 194.63 116.34 191.19 104.91 183.93 96.07 C 177.05 90.85 167.61 91.62 160.24 95.30 C 151.31 103.71 152.54 116.69 151.85 127.80 C 151.14 132.29 150.76 136.87 149.45 141.25 C 149.13 138.02 148.87 134.68 146.92 131.99 C 142.22 133.46 142.00 139.55 138.04 142.12 C 138.00 141.56 137.91 140.46 137.87 139.91 C 146.64 126.89 147.18 108.43 136.92 96.08 C 130.34 90.97 121.20 91.25 114.15 95.13 C 108.10 98.50 108.26 106.99 103.04 111.10 C 100.27 112.95 97.92 109.38 96.89 107.18 C 93.74 96.97 84.02 91.11 73.74 91.20 C 68.74 82.93 68.97 67.01 80.09 63.20 C 85.72 60.61 89.88 55.61 96.09 54.07 C 105.22 49.08 113.10 41.35 123.45 38.76 M 122.38 41.38 C 106.53 48.11 92.54 57.92 77.71 66.69 C 71.85 72.14 70.01 83.97 76.24 89.74 C 83.22 90.46 91.37 92.19 94.90 99.07 C 96.25 102.01 99.63 106.44 103.37 104.42 C 108.37 102.61 107.75 95.42 112.64 93.58 C 122.81 88.82 138.13 88.89 142.90 101.08 C 144.06 107.90 151.42 106.49 153.43 101.38 C 156.79 91.03 169.65 89.99 178.65 91.32 C 188.46 94.64 193.82 105.11 196.47 114.41 C 192.53 118.91 199.91 120.71 199.24 117.14 C 200.64 108.54 199.94 99.75 199.91 91.09 C 193.07 73.89 173.54 67.78 158.77 59.24 C 152.25 55.01 146.20 49.67 138.70 47.28 C 133.20 45.18 128.98 38.74 122.38 41.38 Z" />
</g>
<g id="#649ad0ff">
<path fill="#649ad0" opacity="1.00" d=" M 122.38 41.38 C 128.98 38.74 133.20 45.18 138.70 47.28 C 146.20 49.67 152.25 55.01 158.77 59.24 C 173.54 67.78 193.07 73.89 199.91 91.09 C 199.94 99.75 200.64 108.54 199.24 117.14 C 199.91 120.71 192.53 118.91 196.47 114.41 C 193.82 105.11 188.46 94.64 178.65 91.32 C 169.65 89.99 156.79 91.03 153.43 101.38 C 151.42 106.49 144.06 107.90 142.90 101.08 C 138.13 88.89 122.81 88.82 112.64 93.58 C 107.75 95.42 108.37 102.61 103.37 104.42 C 99.63 106.44 96.25 102.01 94.90 99.07 C 91.37 92.19 83.22 90.46 76.24 89.74 C 70.01 83.97 71.85 72.14 77.71 66.69 C 92.54 57.92 106.53 48.11 122.38 41.38 M 124.31 43.31 C 118.77 45.17 114.03 48.82 108.39 50.48 C 104.72 51.63 103.76 56.16 99.91 56.85 C 92.99 58.71 88.67 65.37 81.28 66.28 C 77.24 71.00 73.55 78.52 77.74 84.26 C 82.90 87.95 89.58 89.35 94.79 93.17 C 97.34 96.05 98.11 102.61 103.79 99.92 C 109.17 87.41 127.22 83.24 138.02 90.96 C 144.33 91.80 143.24 102.85 150.79 99.92 C 156.26 87.68 174.20 83.10 184.94 91.09 C 190.05 92.40 190.28 99.76 195.82 99.98 C 198.81 89.59 191.26 79.21 181.61 75.46 C 173.69 72.55 169.05 64.11 160.08 63.91 C 149.80 54.73 136.80 48.34 124.31 43.31 Z" />
</g>
<g id="#71b0ebff">
<path fill="#71b0eb" opacity="1.00" d=" M 124.31 43.31 C 136.80 48.34 149.80 54.73 160.08 63.91 C 169.05 64.11 173.69 72.55 181.61 75.46 C 191.26 79.21 198.81 89.59 195.82 99.98 C 190.28 99.76 190.05 92.40 184.94 91.09 C 174.20 83.10 156.26 87.68 150.79 99.92 C 143.24 102.85 144.33 91.80 138.02 90.96 C 127.22 83.24 109.17 87.41 103.79 99.92 C 98.11 102.61 97.34 96.05 94.79 93.17 C 89.58 89.35 82.90 87.95 77.74 84.26 C 73.55 78.52 77.24 71.00 81.28 66.28 C 88.67 65.37 92.99 58.71 99.91 56.85 C 103.76 56.16 104.72 51.63 108.39 50.48 C 114.03 48.82 118.77 45.17 124.31 43.31 Z" />
</g>
<g id="#a3a4adff">
<path fill="#a3a4ad" opacity="1.00" d=" M 9.09 74.04 C 15.08 65.70 16.90 54.84 24.99 47.94 C 20.15 58.20 13.81 67.62 8.89 77.89 C 7.19 84.12 6.73 92.50 0.00 95.57 L 0.00 90.56 C 7.15 87.77 5.91 79.64 9.09 74.04 Z" />
<path fill="#a3a4ad" opacity="1.00" d=" M 236.22 180.13 C 244.64 173.26 239.22 159.17 250.00 154.52 L 250.00 159.52 C 240.43 163.68 244.89 176.06 237.22 182.13 C 231.43 197.89 219.30 210.06 206.89 220.89 C 198.62 231.20 185.45 234.79 174.64 241.56 C 168.89 243.17 162.13 243.82 159.43 250.00 L 154.42 250.00 C 157.55 242.90 165.43 242.50 171.89 240.85 C 181.51 234.92 192.55 231.86 201.16 224.18 C 215.01 211.49 229.52 198.14 236.22 180.13 Z" />
</g>
<g id="#a7a7b0ff">
<path fill="#a7a7b0" opacity="1.00" d=" M 226.02 48.93 C 233.49 56.41 235.95 66.86 241.34 75.64 C 242.84 81.41 243.92 87.77 250.00 90.50 L 250.00 94.57 C 244.18 91.92 242.89 85.00 241.41 79.43 C 236.45 69.15 231.68 58.82 226.02 48.93 Z" />
</g>
<g id="#4e78b1ff">
<path fill="#4e78b1" opacity="1.00" d=" M 48.08 93.01 C 47.94 89.30 48.34 83.60 53.11 83.04 C 57.00 81.67 57.24 86.51 57.80 89.12 C 58.87 105.02 56.45 120.88 56.84 136.78 C 55.45 142.79 55.66 149.41 52.83 154.98 C 47.53 153.68 50.13 145.14 48.28 140.73 C 47.71 124.83 47.98 108.91 48.08 93.01 M 51.19 87.07 C 50.29 88.27 49.42 89.58 49.10 91.07 C 48.12 107.44 49.59 123.73 51.13 140.00 C 54.50 140.65 53.00 135.94 53.69 133.70 C 55.03 122.18 55.80 110.58 55.94 99.00 C 54.35 95.68 57.61 85.66 51.19 87.07 Z" />
</g>
<g id="#5889c1ff">
<path fill="#5889c1" opacity="1.00" d=" M 51.19 87.07 C 57.61 85.66 54.35 95.68 55.94 99.00 C 55.80 110.58 55.03 122.18 53.69 133.70 C 53.00 135.94 54.50 140.65 51.13 140.00 C 49.59 123.73 48.12 107.44 49.10 91.07 C 49.42 89.58 50.29 88.27 51.19 87.07 Z" />
</g>
<g id="#436497ff">
<path fill="#436497" opacity="1.00" d=" M 160.24 95.30 C 167.61 91.62 177.05 90.85 183.93 96.07 C 191.19 104.91 194.63 116.34 193.26 127.74 C 194.36 142.20 194.73 163.65 177.12 168.14 C 167.84 169.72 155.36 165.06 153.11 154.91 C 150.99 146.07 152.36 136.81 151.85 127.80 C 152.54 116.69 151.31 103.71 160.24 95.30 M 167.38 94.39 C 158.34 96.00 153.35 106.46 154.97 115.00 C 156.70 130.12 150.24 146.43 157.31 160.71 C 164.29 167.34 175.90 167.47 184.24 163.21 C 189.57 158.86 189.25 150.97 190.84 144.90 C 188.79 131.46 192.07 117.39 187.65 104.31 C 183.83 97.19 176.08 90.88 167.38 94.39 Z" />
</g>
<g id="#384c79ff">
<path fill="#384c79" opacity="1.00" d=" M 108.86 105.88 C 111.00 95.94 123.01 91.00 132.05 94.96 C 140.88 99.99 142.57 110.72 141.97 119.98 C 142.83 132.53 132.74 141.22 130.00 152.79 C 125.29 159.69 118.44 167.03 119.12 175.73 C 125.33 181.42 136.32 175.01 142.96 181.23 C 145.50 187.80 137.24 189.24 132.99 188.96 C 124.33 188.19 112.95 191.77 106.10 184.69 C 105.23 175.40 108.60 166.52 111.98 158.06 C 119.51 150.49 121.96 139.02 128.61 130.60 C 135.06 123.25 136.58 101.72 122.38 104.27 C 112.93 107.10 122.11 124.30 111.10 124.04 C 103.64 121.02 108.30 111.62 108.86 105.88 M 122.39 95.39 C 111.08 97.65 106.48 112.06 110.22 121.91 C 121.44 123.81 112.23 107.18 119.95 102.92 C 124.70 100.43 132.42 101.69 133.21 107.87 C 135.40 117.38 134.88 129.21 127.11 136.08 C 120.98 152.21 104.80 165.80 109.70 184.31 C 115.79 190.04 125.59 185.67 133.01 187.00 C 136.18 188.65 140.91 185.75 139.94 182.19 C 133.96 176.50 123.68 183.66 118.20 177.81 C 113.30 169.90 120.18 162.57 124.43 156.38 C 130.43 149.52 132.14 140.50 136.92 132.96 C 142.66 125.68 139.32 115.78 139.67 107.35 C 136.85 101.05 130.37 92.75 122.39 95.39 Z" />
</g>
<g id="#3b5078ff">
<path fill="#3b5078" opacity="1.00" d=" M 167.38 94.39 C 176.08 90.88 183.83 97.19 187.65 104.31 C 192.07 117.39 188.79 131.46 190.84 144.90 C 189.25 150.97 189.57 158.86 184.24 163.21 C 175.90 167.47 164.29 167.34 157.31 160.71 C 150.24 146.43 156.70 130.12 154.97 115.00 C 153.35 106.46 158.34 96.00 167.38 94.39 M 169.39 95.39 C 162.44 96.87 156.12 103.56 157.06 111.00 C 157.81 126.21 153.93 141.61 157.33 156.67 C 160.78 165.17 172.67 164.86 179.94 162.93 C 187.29 161.04 187.61 152.15 187.94 146.00 C 187.60 132.80 189.24 119.36 186.70 106.32 C 182.78 100.91 177.32 92.59 169.39 95.39 Z" />
</g>
<g id="#323c5bff">
<path fill="#323c5b" opacity="1.00" d=" M 122.39 95.39 C 130.37 92.75 136.85 101.05 139.67 107.35 C 139.32 115.78 142.66 125.68 136.92 132.96 C 132.14 140.50 130.43 149.52 124.43 156.38 C 120.18 162.57 113.30 169.90 118.20 177.81 C 123.68 183.66 133.96 176.50 139.94 182.19 C 140.91 185.75 136.18 188.65 133.01 187.00 C 125.59 185.67 115.79 190.04 109.70 184.31 C 104.80 165.80 120.98 152.21 127.11 136.08 C 134.88 129.21 135.40 117.38 133.21 107.87 C 132.42 101.69 124.70 100.43 119.95 102.92 C 112.23 107.18 121.44 123.81 110.22 121.91 C 106.48 112.06 111.08 97.65 122.39 95.39 Z" />
</g>
<g id="#333c59ff">
<path fill="#333c59" opacity="1.00" d=" M 169.39 95.39 C 177.32 92.59 182.78 100.91 186.70 106.32 C 189.24 119.36 187.60 132.80 187.94 146.00 C 187.61 152.15 187.29 161.04 179.94 162.93 C 172.67 164.86 160.78 165.17 157.33 156.67 C 153.93 141.61 157.81 126.21 157.06 111.00 C 156.12 103.56 162.44 96.87 169.39 95.39 M 165.20 102.07 C 158.88 116.26 162.73 133.06 162.71 148.12 C 161.06 156.78 171.32 159.13 177.29 156.30 C 181.50 153.19 181.43 147.60 181.80 142.90 C 182.14 129.28 182.82 115.47 179.80 102.08 C 176.15 102.08 168.85 102.07 165.20 102.07 Z" />
</g>
<g id="#38486aff">
<path fill="#38486a" opacity="1.00" d=" M 165.20 102.07 C 168.85 102.07 176.15 102.08 179.80 102.08 C 182.82 115.47 182.14 129.28 181.80 142.90 C 181.43 147.60 181.50 153.19 177.29 156.30 C 171.32 159.13 161.06 156.78 162.71 148.12 C 162.73 133.06 158.88 116.26 165.20 102.07 M 169.34 103.25 C 165.05 104.56 163.81 109.19 163.23 113.11 C 162.55 125.64 162.86 138.20 164.39 150.66 C 165.49 155.11 171.21 157.01 175.14 155.23 C 184.85 150.52 177.41 136.08 180.79 127.89 C 181.42 119.38 183.08 100.28 169.34 103.25 Z" />
</g>
<g id="#3f5984ff">
<path fill="#3f5984" opacity="1.00" d=" M 169.34 103.25 C 183.08 100.28 181.42 119.38 180.79 127.89 C 177.41 136.08 184.85 150.52 175.14 155.23 C 171.21 157.01 165.49 155.11 164.39 150.66 C 162.86 138.20 162.55 125.64 163.23 113.11 C 163.81 109.19 165.05 104.56 169.34 103.25 M 170.29 105.27 C 163.96 107.53 163.49 115.94 164.55 121.58 C 166.07 131.18 163.36 141.33 166.33 150.68 C 168.66 155.92 177.23 154.46 178.12 149.04 C 180.32 137.89 178.42 126.29 178.96 115.00 C 180.49 109.99 175.51 103.66 170.29 105.27 Z" />
</g>
<g id="#476aa0ff">
<path fill="#476aa0" opacity="1.00" d=" M 170.29 105.27 C 175.51 103.66 180.49 109.99 178.96 115.00 C 178.42 126.29 180.32 137.89 178.12 149.04 C 177.23 154.46 168.66 155.92 166.33 150.68 C 163.36 141.33 166.07 131.18 164.55 121.58 C 163.49 115.94 163.96 107.53 170.29 105.27 M 169.32 108.19 C 167.97 109.57 165.77 110.76 166.01 112.99 C 166.13 123.77 165.41 134.64 166.58 145.35 C 166.95 149.73 172.99 153.57 175.78 148.80 C 180.19 139.11 177.15 127.43 177.97 117.00 C 179.14 112.27 175.14 105.23 169.32 108.19 Z" />
</g>
<g id="#4975baff">
<path fill="#4975ba" opacity="1.00" d=" M 72.60 110.64 C 75.22 103.92 85.29 107.69 84.69 114.33 C 84.14 130.23 83.07 146.45 84.64 162.34 C 86.02 169.14 95.85 167.61 98.68 162.68 C 103.54 150.99 96.56 137.09 100.30 125.31 C 104.00 119.12 111.44 128.44 116.29 124.33 C 120.31 120.38 118.09 113.95 120.22 109.25 C 123.12 105.50 129.50 106.90 130.98 111.08 C 132.48 128.46 118.13 141.56 112.07 157.00 C 107.94 159.86 107.18 165.30 104.22 169.14 C 103.44 169.73 102.66 170.31 101.88 170.89 C 103.83 164.55 97.03 168.10 93.54 168.44 C 82.53 173.36 80.78 158.15 80.91 150.95 C 81.36 138.04 84.21 125.23 82.83 112.26 C 80.80 108.80 75.06 108.79 73.17 112.34 C 72.41 124.89 74.01 137.40 75.11 149.88 C 74.42 154.21 76.18 159.44 73.24 163.18 C 73.10 157.70 72.83 152.22 72.28 146.77 C 72.11 134.75 71.28 122.55 72.60 110.64 M 123.27 110.22 C 117.02 113.44 123.04 122.76 116.86 125.88 C 113.40 129.00 108.51 124.74 104.64 126.58 C 101.53 127.51 102.75 132.48 102.64 134.60 C 103.50 142.38 103.19 150.60 105.13 158.07 C 113.68 153.35 113.83 142.82 120.63 136.67 C 123.69 130.64 126.32 124.38 129.41 118.35 C 132.02 114.46 127.56 108.57 123.27 110.22 Z" />
</g>
<g id="#4e7bbbff">
<path fill="#4e7bbb" opacity="1.00" d=" M 169.32 108.19 C 175.14 105.23 179.14 112.27 177.97 117.00 C 177.15 127.43 180.19 139.11 175.78 148.80 C 172.99 153.57 166.95 149.73 166.58 145.35 C 165.41 134.64 166.13 123.77 166.01 112.99 C 165.77 110.76 167.97 109.57 169.32 108.19 M 170.29 110.27 C 165.09 111.94 167.58 119.06 167.08 122.98 C 167.82 130.70 167.54 138.61 170.07 146.05 C 177.50 146.52 175.43 135.60 176.03 130.99 C 175.13 125.24 181.29 108.83 170.29 110.27 Z" />
</g>
<g id="#568cd1ff">
<path fill="#568cd1" opacity="1.00" d=" M 73.17 112.34 C 75.06 108.79 80.80 108.80 82.83 112.26 C 84.21 125.23 81.36 138.04 80.91 150.95 C 78.78 153.79 76.45 152.83 75.11 149.88 C 74.01 137.40 72.41 124.89 73.17 112.34 Z" />
</g>
<g id="#568ed9ff">
<path fill="#568ed9" opacity="1.00" d=" M 123.27 110.22 C 127.56 108.57 132.02 114.46 129.41 118.35 C 126.32 124.38 123.69 130.64 120.63 136.67 C 113.83 142.82 113.68 153.35 105.13 158.07 C 103.19 150.60 103.50 142.38 102.64 134.60 C 102.75 132.48 101.53 127.51 104.64 126.58 C 108.51 124.74 113.40 129.00 116.86 125.88 C 123.04 122.76 117.02 113.44 123.27 110.22 Z" />
</g>
<g id="#578ed2ff">
<path fill="#578ed2" opacity="1.00" d=" M 170.29 110.27 C 181.29 108.83 175.13 125.24 176.03 130.99 C 175.43 135.60 177.50 146.52 170.07 146.05 C 167.54 138.61 167.82 130.70 167.08 122.98 C 167.58 119.06 165.09 111.94 170.29 110.27 Z" />
</g>
<g id="#426cb8ff">
<path fill="#426cb8" opacity="1.00" d=" M 149.45 141.25 C 150.76 136.87 151.14 132.29 151.85 127.80 C 152.36 136.81 150.99 146.07 153.11 154.91 C 155.36 165.06 167.84 169.72 177.12 168.14 C 194.73 163.65 194.36 142.20 193.26 127.74 C 195.20 131.86 193.49 140.31 198.82 140.97 C 201.46 137.15 201.01 132.12 201.85 127.78 C 201.98 135.88 202.03 143.99 202.12 152.09 C 202.25 165.48 191.00 175.50 179.15 179.28 C 179.37 178.69 179.81 177.51 180.03 176.92 C 188.86 173.10 198.51 165.75 196.95 154.77 C 191.88 162.17 184.99 168.26 176.58 171.62 C 164.68 174.12 154.48 164.25 149.09 154.78 C 147.46 150.35 148.31 145.65 149.45 141.25 Z" />
</g>
<g id="#4a7fdaff">
<path fill="#4a7fda" opacity="1.00" d=" M 138.04 142.12 C 142.00 139.55 142.22 133.46 146.92 131.99 C 148.87 134.68 149.13 138.02 149.45 141.25 C 148.31 145.65 147.46 150.35 149.09 154.78 C 150.34 159.10 152.32 163.25 152.06 167.90 C 145.11 166.79 138.15 168.16 131.21 167.89 C 127.20 161.96 136.56 157.32 134.87 150.78 C 135.42 147.73 136.50 144.80 138.04 142.12 Z" />
</g>
<g id="#404153ff">
<path fill="#404153" opacity="1.00" d=" M 236.21 170.20 C 243.08 159.89 233.58 138.02 250.00 134.58 L 250.00 142.53 C 236.10 147.28 244.73 165.14 236.16 174.12 C 225.79 197.22 207.94 217.00 186.27 230.24 C 182.26 233.66 176.20 232.65 172.23 236.25 C 163.95 244.01 146.73 236.81 142.53 250.00 L 134.59 250.00 C 137.43 234.86 157.80 241.70 167.58 236.54 C 172.81 228.87 183.55 233.19 187.82 224.90 C 201.09 220.66 207.80 206.68 218.79 198.78 C 223.30 196.12 222.57 189.70 226.60 186.58 C 233.17 183.01 229.41 173.61 236.21 170.20 Z" />
</g>
<g id="#434455ff">
<path fill="#434455" opacity="1.00" d=" M 0.00 135.78 C 2.76 135.81 5.75 136.08 7.24 138.76 C 12.73 147.19 9.49 158.22 12.84 167.17 C 18.29 171.22 18.99 177.85 20.11 183.93 C 24.21 187.24 27.17 191.46 28.48 196.58 C 37.04 204.94 45.54 213.51 54.13 221.76 C 59.47 223.33 63.82 226.40 67.33 230.66 C 74.44 229.96 78.71 234.34 83.26 238.75 C 92.24 240.69 113.79 235.37 114.22 250.00 L 106.48 250.00 C 103.71 239.60 91.24 241.67 82.98 239.90 C 63.26 231.38 45.26 219.33 31.49 202.49 C 20.87 193.29 18.44 178.67 10.50 167.59 C 8.66 159.32 10.06 146.63 0.00 143.53 L 0.00 135.78 Z" />
</g>
<g id="#3e64b1ff">
<path fill="#3e64b1" opacity="1.00" d=" M 52.83 154.98 C 55.66 149.41 55.45 142.79 56.84 136.78 C 57.12 145.13 56.82 153.49 57.08 161.84 C 60.56 163.40 64.86 167.93 68.68 164.70 C 74.36 160.66 71.33 152.47 72.28 146.77 C 72.83 152.22 73.10 157.70 73.24 163.18 C 71.16 166.43 68.00 168.83 65.96 172.09 C 66.13 175.50 70.05 176.89 72.66 178.26 C 74.75 180.54 76.91 182.76 79.03 185.02 C 67.12 178.16 52.96 170.94 47.82 157.24 C 48.05 151.74 48.13 146.23 48.28 140.73 C 50.13 145.14 47.53 153.68 52.83 154.98 Z" />
</g>
<g id="#3d66baff">
<path fill="#3d66ba" opacity="1.00" d=" M 131.12 153.22 C 133.61 148.90 134.61 143.82 137.87 139.91 C 137.91 140.46 138.00 141.56 138.04 142.12 C 136.50 144.80 135.42 147.73 134.87 150.78 C 132.44 157.71 125.41 162.82 126.03 170.79 C 133.02 174.99 144.71 171.00 149.43 179.75 C 148.82 181.25 148.19 182.74 147.56 184.23 C 144.84 171.90 129.53 179.55 122.03 173.75 C 121.29 165.79 128.01 160.02 131.12 153.22 Z" />
</g>
<g id="#5e5e6eff">
<path fill="#5e5e6e" opacity="1.00" d=" M 236.16 174.12 C 244.73 165.14 236.10 147.28 250.00 142.53 L 250.00 148.76 C 240.53 152.10 242.39 163.90 239.59 171.64 C 233.02 182.29 229.21 195.05 219.50 203.50 C 206.89 217.42 193.20 230.98 174.89 236.91 C 167.25 243.78 153.26 239.16 148.66 250.00 L 142.53 250.00 C 146.73 236.81 163.95 244.01 172.23 236.25 C 176.20 232.65 182.26 233.66 186.27 230.24 C 207.94 217.00 225.79 197.22 236.16 174.12 Z" />
</g>
<g id="#636472ff">
<path fill="#636472" opacity="1.00" d=" M 0.00 143.53 C 10.06 146.63 8.66 159.32 10.50 167.59 C 18.44 178.67 20.87 193.29 31.49 202.49 C 45.26 219.33 63.26 231.38 82.98 239.90 C 91.24 241.67 103.71 239.60 106.48 250.00 L 99.49 250.00 C 98.37 243.00 89.94 242.79 84.61 241.44 C 77.03 241.17 71.82 235.17 64.88 233.12 C 59.54 231.06 56.11 225.30 49.90 225.17 C 42.61 216.06 34.57 206.69 24.84 200.10 C 24.64 195.35 21.26 192.03 18.52 188.53 C 15.90 182.27 13.74 175.81 10.03 170.06 C 7.79 163.56 8.44 152.37 0.00 150.52 L 0.00 143.53 Z" />
</g>
<g id="#7e7f8bff">
<path fill="#7e7f8b" opacity="1.00" d=" M 239.59 171.64 C 242.39 163.90 240.53 152.10 250.00 148.76 L 250.00 154.52 C 239.22 159.17 244.64 173.26 236.22 180.13 C 229.52 198.14 215.01 211.49 201.16 224.18 C 192.55 231.86 181.51 234.92 171.89 240.85 C 165.43 242.50 157.55 242.90 154.42 250.00 L 148.66 250.00 C 153.26 239.16 167.25 243.78 174.89 236.91 C 193.20 230.98 206.89 217.42 219.50 203.50 C 229.21 195.05 233.02 182.29 239.59 171.64 Z" />
</g>
<g id="#3e6ed4ff">
<path fill="#3e6ed4" opacity="1.00" d=" M 75.11 149.88 C 76.45 152.83 78.78 153.79 80.91 150.95 C 80.78 158.15 82.53 173.36 93.54 168.44 C 97.03 168.10 103.83 164.55 101.88 170.89 C 99.79 177.10 99.24 183.63 98.79 190.12 C 90.18 185.83 80.94 183.25 72.66 178.26 C 70.05 176.89 66.13 175.50 65.96 172.09 C 68.00 168.83 71.16 166.43 73.24 163.18 C 76.18 159.44 74.42 154.21 75.11 149.88 Z" />
</g>
<g id="#858591ff">
<path fill="#858591" opacity="1.00" d=" M 0.00 150.52 C 8.44 152.37 7.79 163.56 10.03 170.06 C 13.74 175.81 15.90 182.27 18.52 188.53 C 21.26 192.03 24.64 195.35 24.84 200.10 C 17.46 191.64 14.16 180.94 8.81 171.28 C 6.95 165.76 6.95 157.27 0.00 155.58 L 0.00 150.52 Z" />
</g>
<g id="#3e6ed5ff">
<path fill="#3e6ed5" opacity="1.00" d=" M 126.03 170.79 C 125.41 162.82 132.44 157.71 134.87 150.78 C 136.56 157.32 127.20 161.96 131.21 167.89 C 138.15 168.16 145.11 166.79 152.06 167.90 C 152.32 163.25 150.34 159.10 149.09 154.78 C 154.48 164.25 164.68 174.12 176.58 171.62 C 184.99 168.26 191.88 162.17 196.95 154.77 C 198.51 165.75 188.86 173.10 180.03 176.92 C 170.99 181.82 161.71 186.20 152.11 190.08 C 150.79 186.74 151.37 182.88 149.43 179.75 C 144.71 171.00 133.02 174.99 126.03 170.79 Z" />
</g>
<g id="#324f9fff">
<path fill="#324f9f" opacity="1.00" d=" M 202.12 152.09 L 203.03 151.95 C 203.04 154.86 202.91 157.75 202.86 160.68 C 199.11 174.79 183.36 179.04 172.54 186.44 C 158.59 193.48 145.36 201.96 131.37 209.38 C 123.12 212.96 116.55 207.89 109.89 204.15 C 97.99 200.84 90.01 190.14 78.16 186.75 C 66.46 179.97 52.16 173.45 46.96 160.08 C 46.96 159.28 46.97 157.67 46.97 156.86 L 47.82 157.24 C 52.96 170.94 67.12 178.16 79.03 185.02 C 93.05 188.69 103.39 200.03 116.92 205.13 C 125.37 212.52 133.85 203.87 141.93 200.81 C 153.74 192.78 167.26 187.46 179.15 179.28 C 191.00 175.50 202.25 165.48 202.12 152.09 Z" />
</g>
<g id="#3554a2ff">
<path fill="#3554a2" opacity="1.00" d=" M 119.12 175.73 C 118.44 167.03 125.29 159.69 130.00 152.79 L 131.12 153.22 C 128.01 160.02 121.29 165.79 122.03 173.75 C 129.53 179.55 144.84 171.90 147.56 184.23 C 142.00 197.61 122.94 190.23 112.10 191.87 C 100.04 190.44 100.81 177.62 104.22 169.14 C 107.18 165.30 107.94 159.86 112.07 157.00 L 111.98 158.06 C 108.60 166.52 105.23 175.40 106.10 184.69 C 112.95 191.77 124.33 188.19 132.99 188.96 C 137.24 189.24 145.50 187.80 142.96 181.23 C 136.32 175.01 125.33 181.42 119.12 175.73 Z" />
</g>
<g id="#30427aff">
<path fill="#30427a" opacity="1.00" d=" M 45.26 153.72 C 45.80 155.84 46.37 157.96 46.96 160.08 C 52.16 173.45 66.46 179.97 78.16 186.75 C 90.01 190.14 97.99 200.84 109.89 204.15 C 116.55 207.89 123.12 212.96 131.37 209.38 C 145.36 201.96 158.59 193.48 172.54 186.44 C 183.36 179.04 199.11 174.79 202.86 160.68 L 203.73 161.00 C 204.54 172.00 192.00 178.59 183.21 182.29 C 176.82 188.27 167.78 189.18 161.59 195.51 C 147.74 199.30 138.56 214.68 122.98 212.07 C 113.74 212.80 107.74 203.76 99.01 201.93 C 84.72 189.79 65.79 185.76 52.36 172.57 C 45.84 168.80 44.38 160.66 45.26 153.72 Z" />
</g>
<g id="#a7a8b0ff">
<path fill="#a7a8b0" opacity="1.00" d=" M 0.00 155.58 C 6.95 157.27 6.95 165.76 8.81 171.28 C 14.16 180.94 17.46 191.64 24.84 200.10 C 32.33 209.20 41.13 217.36 49.90 225.17 C 57.20 232.45 67.45 234.35 75.36 240.59 C 82.06 243.06 91.14 242.25 94.55 250.00 L 90.36 250.00 C 86.24 241.17 73.87 244.50 67.72 237.41 C 51.57 231.21 39.37 218.53 28.13 205.87 C 18.12 197.60 14.66 184.62 8.25 173.89 C 6.88 168.45 5.74 162.08 0.00 159.64 L 0.00 155.58 Z" />
</g>
<g id="#c8c9ceff">
<path fill="#c8c9ce" opacity="1.00" d=" M 0.00 159.64 C 5.74 162.08 6.88 168.45 8.25 173.89 C 14.66 184.62 18.12 197.60 28.13 205.87 C 39.37 218.53 51.57 231.21 67.72 237.41 C 73.87 244.50 86.24 241.17 90.36 250.00 L 86.57 250.00 C 83.67 242.27 73.74 245.54 68.83 240.19 C 64.74 236.37 58.66 236.17 54.39 232.63 C 40.07 222.17 27.68 209.20 16.88 195.16 C 13.62 190.93 13.50 185.14 9.84 181.12 C 4.72 176.04 7.65 166.29 0.00 163.44 L 0.00 159.64 Z" />
</g>
<g id="#c7c8cdff">
<path fill="#c7c8cd" opacity="1.00" d=" M 237.22 182.13 C 244.89 176.06 240.43 163.68 250.00 159.52 L 250.00 163.44 C 244.00 165.72 244.35 172.53 242.58 177.64 C 235.64 186.95 232.94 199.01 223.52 206.55 C 215.73 216.40 205.98 224.47 196.18 232.21 C 190.59 236.34 183.37 237.41 177.93 241.90 C 173.09 244.79 165.74 243.69 163.42 250.00 L 159.43 250.00 C 162.13 243.82 168.89 243.17 174.64 241.56 C 185.45 234.79 198.62 231.20 206.89 220.89 C 219.30 210.06 231.43 197.89 237.22 182.13 Z" />
</g>
<g id="#3158c5ff">
<path fill="#3158c5" opacity="1.00" d=" M 101.88 170.89 C 102.66 170.31 103.44 169.73 104.22 169.14 C 100.81 177.62 100.04 190.44 112.10 191.87 C 122.94 190.23 142.00 197.61 147.56 184.23 C 148.19 182.74 148.82 181.25 149.43 179.75 C 151.37 182.88 150.79 186.74 152.11 190.08 C 161.71 186.20 170.99 181.82 180.03 176.92 C 179.81 177.51 179.37 178.69 179.15 179.28 C 167.26 187.46 153.74 192.78 141.93 200.81 C 133.85 203.87 125.37 212.52 116.92 205.13 C 103.39 200.03 93.05 188.69 79.03 185.02 C 76.91 182.76 74.75 180.54 72.66 178.26 C 80.94 183.25 90.18 185.83 98.79 190.12 C 99.24 183.63 99.79 177.10 101.88 170.89 Z" />
</g>
<g id="#858692ff">
<path fill="#858692" opacity="1.00" d=" M 24.84 200.10 C 34.57 206.69 42.61 216.06 49.90 225.17 C 41.13 217.36 32.33 209.20 24.84 200.10 Z" />
</g>
<g id="#868792ff">
<path fill="#868792" opacity="1.00" d=" M 49.90 225.17 C 56.11 225.30 59.54 231.06 64.88 233.12 C 71.82 235.17 77.03 241.17 84.61 241.44 C 89.94 242.79 98.37 243.00 99.49 250.00 L 94.55 250.00 C 91.14 242.25 82.06 243.06 75.36 240.59 C 67.45 234.35 57.20 232.45 49.90 225.17 Z" />
</g>
</svg>
