<?xml version="1.0" encoding="UTF-8" ?>
<!DOCTYPE svg PUBLIC "-//W3C//DTD SVG 1.1//EN" "http://www.w3.org/Graphics/SVG/1.1/DTD/svg11.dtd">
<svg width="228pt" height="250pt" viewBox="0 0 228 250" version="1.1" xmlns="http://www.w3.org/2000/svg">
<g id="#ffffffff">
<path fill="#ffffff" opacity="1.00" d=" M 0.00 0.00 L 228.00 0.00 L 228.00 250.00 L 0.00 250.00 L 0.00 0.00 M 71.23 19.98 C 61.67 38.43 56.55 58.84 53.76 79.33 C 53.13 88.20 53.21 97.11 53.47 105.99 C 55.69 129.08 65.05 151.88 81.51 168.48 C 86.13 173.50 91.21 178.08 96.89 181.88 C 92.03 172.58 86.29 163.71 82.39 153.94 C 74.40 134.30 70.03 112.99 70.78 91.76 C 73.04 95.71 74.86 99.89 76.55 104.12 C 82.96 118.68 95.49 129.64 109.38 136.89 C 125.46 145.51 143.46 152.12 155.84 166.12 C 165.91 177.46 169.22 193.23 168.21 208.02 C 167.44 214.72 165.97 221.36 166.15 228.14 C 170.93 226.85 174.92 223.83 178.61 220.66 C 195.54 206.57 203.71 182.22 197.39 160.94 C 192.20 144.64 181.33 131.04 174.34 115.57 C 165.35 96.04 159.53 74.61 160.47 52.97 C 160.11 43.07 163.78 33.67 164.63 23.91 C 152.02 30.20 142.63 41.29 135.14 52.96 C 126.78 66.23 121.73 82.60 125.59 98.21 C 128.21 95.98 129.06 92.56 130.49 89.58 C 132.97 84.26 136.04 78.82 141.30 75.82 C 141.74 81.32 141.24 86.91 142.40 92.35 C 144.61 106.38 152.28 118.94 161.84 129.21 C 168.61 137.03 176.94 143.61 182.12 152.70 C 185.69 158.52 186.59 165.39 188.02 171.93 C 182.93 157.56 172.70 145.58 160.86 136.24 C 145.32 123.81 129.74 111.38 115.10 97.89 C 98.01 81.21 84.91 59.89 80.27 36.28 C 78.48 28.54 78.32 20.57 77.08 12.74 C 74.75 14.81 72.65 17.19 71.23 19.98 M 51.94 155.12 C 51.38 162.14 51.41 169.32 53.40 176.14 C 57.65 191.23 68.57 203.88 82.02 211.67 C 95.58 219.58 111.56 224.28 127.32 222.27 C 120.84 218.51 113.32 217.06 106.88 213.21 C 84.68 201.53 67.36 181.93 56.19 159.68 C 55.28 157.73 54.00 155.95 51.94 155.12 M 74.15 221.81 C 75.28 225.06 76.81 228.26 79.40 230.61 C 88.56 239.33 101.59 242.97 114.03 242.58 C 118.87 242.75 123.70 241.95 128.15 240.00 C 121.74 237.60 114.86 237.04 108.27 235.34 C 99.38 233.30 90.97 229.59 82.99 225.24 C 80.21 223.70 77.23 222.57 74.15 221.81 Z" />
</g>
<g id="#40a9f3ff">
<path fill="#40a9f3" opacity="1.00" d=" M 71.23 19.98 C 72.65 17.19 74.75 14.81 77.08 12.74 C 78.32 20.57 78.48 28.54 80.27 36.28 C 84.91 59.89 98.01 81.21 115.10 97.89 C 129.74 111.38 145.32 123.81 160.86 136.24 C 172.70 145.58 182.93 157.56 188.02 171.93 C 186.59 165.39 185.69 158.52 182.12 152.70 C 176.94 143.61 168.61 137.03 161.84 129.21 C 152.28 118.94 144.61 106.38 142.40 92.35 C 141.24 86.91 141.74 81.32 141.30 75.82 C 136.04 78.82 132.97 84.26 130.49 89.58 C 129.06 92.56 128.21 95.98 125.59 98.21 C 121.73 82.60 126.78 66.23 135.14 52.96 C 142.63 41.29 152.02 30.20 164.63 23.91 C 163.78 33.67 160.11 43.07 160.47 52.97 C 159.53 74.61 165.35 96.04 174.34 115.57 C 181.33 131.04 192.20 144.64 197.39 160.94 C 203.71 182.22 195.54 206.57 178.61 220.66 C 174.92 223.83 170.93 226.85 166.15 228.14 C 165.97 221.36 167.44 214.72 168.21 208.02 C 169.22 193.23 165.91 177.46 155.84 166.12 C 143.46 152.12 125.46 145.51 109.38 136.89 C 95.49 129.64 82.96 118.68 76.55 104.12 C 74.86 99.89 73.04 95.71 70.78 91.76 C 70.03 112.99 74.40 134.30 82.39 153.94 C 86.29 163.71 92.03 172.58 96.89 181.88 C 91.21 178.08 86.13 173.50 81.51 168.48 C 65.05 151.88 55.69 129.08 53.47 105.99 C 53.21 97.11 53.13 88.20 53.76 79.33 C 56.55 58.84 61.67 38.43 71.23 19.98 Z" />
<path fill="#40a9f3" opacity="1.00" d=" M 51.94 155.12 C 54.00 155.95 55.28 157.73 56.19 159.68 C 67.36 181.93 84.68 201.53 106.88 213.21 C 113.32 217.06 120.84 218.51 127.32 222.27 C 111.56 224.28 95.58 219.58 82.02 211.67 C 68.57 203.88 57.65 191.23 53.40 176.14 C 51.41 169.32 51.38 162.14 51.94 155.12 Z" />
<path fill="#40a9f3" opacity="1.00" d=" M 74.15 221.81 C 77.23 222.57 80.21 223.70 82.99 225.24 C 90.97 229.59 99.38 233.30 108.27 235.34 C 114.86 237.04 121.74 237.60 128.15 240.00 C 123.70 241.95 118.87 242.75 114.03 242.58 C 101.59 242.97 88.56 239.33 79.40 230.61 C 76.81 228.26 75.28 225.06 74.15 221.81 Z" />
</g>
</svg>
