<?xml version="1.0" encoding="utf-8"?>
<!-- Generator: Adobe Illustrator 26.0.3, SVG Export Plug-In . SVG Version: 6.00 Build 0)  -->
<svg version="1.1" id="Layer_1" xmlns="http://www.w3.org/2000/svg" xmlns:xlink="http://www.w3.org/1999/xlink" x="0px" y="0px"
	 viewBox="0 0 250 250" style="enable-background:new 0 0 250 250;" xml:space="preserve">
<style type="text/css">
	.st0{fill:#0E1235;}
	.st1{fill:#1A84DD;}
	.st2{fill:#F2CF63;}
	.st3{fill:#FE1D5B;}
	.st4{fill:#6D94CE;}
</style>
<g id="_x23_0e1235ff">
	<path class="st0" d="M119.8,0h9.8c28.2,1.1,55.9,11.8,77.1,30.4c26,22.1,41.9,55.4,43.4,89.4v9.7c-1.1,27.9-11.6,55.4-29.9,76.6
		c-22.1,26.3-55.6,42.4-89.8,43.9h-9.7c-28.2-1.1-55.9-11.8-77.1-30.4c-26-22.1-42-55.4-43.4-89.6v-9.6
		c1.1-30.1,13.4-59.6,34.1-81.4C56.2,15.6,87.6,1.4,119.8,0 M146,63.1c-8.9,5.6-14.2,16-14.5,26.4c10.6,0.1,21.3,0,31.9,0
		c0-10.6,0.1-21.3-0.1-31.9C157.3,58.1,151.1,59.5,146,63.1 M167.2,89.5c10.5,0,21.1,0,31.6,0c0.3-9.7-4.6-19.2-12.3-25.1
		c-5.4-4.4-12.4-6.2-19.2-6.8C167.1,68.2,167.3,78.9,167.2,89.5 M57.4,89.5c10.6,0,21.2,0,31.8,0c0-10,0-19.9,0-29.9
		c-10.6,0-21.2,0-31.8,0C57.3,69.6,57.4,79.5,57.4,89.5 M92.7,59.6c0,9.9,0,19.9,0,29.9c10.6,0.1,21.2,0,31.9,0c0-10,0-20,0-29.9
		C113.9,59.6,103.3,59.6,92.7,59.6 M57.4,124.6c2.7,0,5.4,0,8.2,0c-0.1-10.6,0.1-21.2-0.1-31.8c-2.6,0-5.3,0-7.9,0
		C57.2,103.3,57.5,113.9,57.4,124.6 M69.2,92.8c-0.1,10.6-0.1,21.2,0,31.8c2.7,0,5.4,0,8.1-0.1c0-10.6,0-21.1,0-31.7
		C74.6,92.8,71.9,92.8,69.2,92.8 M80.9,93.8c-0.3,10.2,0,20.5-0.1,30.7c2.8,0,5.6,0,8.4,0c-0.1-10.2,0.2-20.5-0.1-30.7
		c-0.2-0.2-0.6-0.7-0.8-1C86,93.1,82.6,91.7,80.9,93.8 M92.6,93.3c0.2,10.4,0.1,20.8,0.1,31.2c10.6,0.1,21.3,0,31.9,0
		c-0.1-10.6,0.1-21.2-0.1-31.8C113.9,93.1,103.2,92.1,92.6,93.3 M131.7,92.8c0,10.6-0.1,21.2,0,31.8c9.7-9.6,19.3-19.2,29-28.8
		c0.8-1,1.6-1.9,2.4-2.9C152.6,92.7,142.1,92.8,131.7,92.8 M167.2,93.2c0,10.5,0,21,0,31.4c10.5,0,21.1,0,31.6,0c0-10.5,0-21,0-31.4
		C188.2,93.2,177.7,93.2,167.2,93.2 M68.5,128.9c-6.4,2-11.4,8.3-11.2,15.1c-0.3,8.7,7.9,16.6,16.6,15.8
		c9.9,0.1,17.7-10.9,14.5-20.2C86.2,131.2,76.6,126.3,68.5,128.9 M93.2,128.3c0,10.5,0,21,0,31.5c2.7,0,5.4,0,8.1,0
		c0.1-10.5,0-21,0.1-31.4C98.7,128.3,96,128.3,93.2,128.3 M104.8,128.4c0.1,10.4,0.1,20.8,0,31.2c2.9,0.2,5.7,0.1,8.6,0
		c-0.1-10.4-0.1-20.8,0-31.3C110.4,128.3,107.6,128.3,104.8,128.4 M116.7,128.4c0.1,10.4,0,20.9,0.1,31.4c2.8,0,5.5,0,8.3,0
		c-0.1-10.5-0.1-21,0-31.5C122.3,128.3,119.5,128.3,116.7,128.4 M145.3,134.3c-8.1,5.7-13.1,15.6-13.1,25.5c10.6,0,21.2,0,31.9,0
		c0.1-10.5,0.2-21,0-31.5C157.4,128.2,150.7,130.3,145.3,134.3 M179.5,128.7c-7.2,1.7-12.3,9-11.8,16.3c0.5,8.2,8.1,15.4,16.4,14.7
		c9.1,0.3,16.8-8.9,15.3-17.8C198.4,132.7,188.4,126.1,179.5,128.7 M57.3,163.3c-0.3,16.9,14.9,32.2,31.9,31.5c0-10,0-20,0-30
		c0.5-2.1-2.1-1.3-3.2-1.6C76.4,163.4,66.8,163.3,57.3,163.3 M92.7,163.4c0,10.5,0,20.9,0,31.4c17,0.9,32.3-14.5,32-31.4
		C114,163.4,103.4,163.3,92.7,163.4 M132.3,163.4c9.3,9.4,18.8,18.7,28.2,28.2c1.1,1.1,2.4,2,3.6,3c0.1-10.4,0.2-20.8-0.1-31.2
		C153.4,163.3,142.9,163.3,132.3,163.4 M167.6,163.3c0.1,10.5-0.2,21,0.1,31.6c10.6,0.7,21.2,0,31.8,0.3
		C200,178.1,184.6,163,167.6,163.3z"/>
</g>
<g id="_x23_1a84ddff">
	<path class="st1" d="M146,63.1c5.1-3.5,11.3-4.9,17.4-5.5c0.1,10.6,0,21.3,0.1,31.9c-10.6,0-21.3,0-31.9,0
		C131.8,79,137.1,68.7,146,63.1z"/>
	<path class="st1" d="M57.4,124.6c0.1-10.6-0.2-21.2,0.2-31.8c2.6,0,5.2,0,7.9,0c0.3,10.6,0,21.2,0.1,31.8
		C62.8,124.6,60.1,124.6,57.4,124.6z"/>
	<path class="st1" d="M69.2,92.8c2.7,0,5.4,0,8.1,0c0.1,10.6,0,21.1,0,31.7c-2.7,0-5.4,0.1-8.1,0.1C69.2,114,69.1,103.4,69.2,92.8z"
		/>
	<path class="st1" d="M80.9,93.8c1.6-2.1,5-0.8,7.4-1c0.2,0.2,0.6,0.7,0.8,1c0.3,10.2,0,20.5,0.1,30.7c-2.8,0-5.6,0-8.4,0
		C80.9,114.3,80.6,104,80.9,93.8z"/>
	<path class="st1" d="M145.3,134.3c5.4-4,12-6.1,18.7-6.1c0.2,10.5,0.2,21,0,31.5c-10.6,0-21.2,0-31.9,0
		C132.3,149.8,137.2,140,145.3,134.3z"/>
	<path class="st1" d="M57.3,163.3c9.6,0,19.1,0,28.7,0c1.1,0.2,3.7-0.6,3.2,1.6c0.1,10,0,20,0,30C72.2,195.5,57,180.3,57.3,163.3z"
		/>
</g>
<g id="_x23_f2cf63ff">
	<path class="st2" d="M167.2,89.5c0-10.7-0.1-21.3,0.1-31.9c6.9,0.6,13.8,2.4,19.2,6.8c7.7,5.9,12.6,15.3,12.3,25.1
		C188.3,89.5,177.8,89.5,167.2,89.5z"/>
	<path class="st2" d="M92.6,93.3c10.6-1.2,21.3-0.2,31.9-0.5c0.2,10.6,0,21.2,0.1,31.8c-10.6,0-21.3,0-31.9,0
		C92.7,114.1,92.8,103.7,92.6,93.3z"/>
	<path class="st2" d="M179.5,128.7c8.9-2.6,18.9,4,19.9,13.2c1.5,8.9-6.3,18.1-15.3,17.8c-8.3,0.6-15.9-6.5-16.4-14.7
		C167.1,137.7,172.3,130.4,179.5,128.7z"/>
	<path class="st2" d="M92.7,163.4c10.7-0.1,21.3,0,32,0c0.3,16.9-15,32.3-32,31.4C92.7,184.3,92.7,173.8,92.7,163.4z"/>
</g>
<g id="_x23_fe1d5bff">
	<path class="st3" d="M57.4,89.5c0-10,0-20,0-29.9c10.6,0,21.2,0,31.8,0c0,10,0,19.9,0,29.9C78.6,89.6,68,89.5,57.4,89.5z"/>
	<path class="st3" d="M131.7,92.8c10.5,0,20.9-0.1,31.4,0.1c-0.8,1-1.6,1.9-2.4,2.9c-9.6,9.6-19.3,19.2-29,28.8
		C131.6,113.9,131.6,103.4,131.7,92.8z"/>
	<path class="st3" d="M93.2,128.3c2.7,0,5.4,0,8.2,0.1c-0.1,10.5,0,21-0.1,31.4c-2.7,0-5.4,0-8.1,0
		C93.2,149.3,93.2,138.8,93.2,128.3z"/>
	<path class="st3" d="M104.8,128.4c2.8-0.1,5.7-0.1,8.5,0c0,10.4-0.1,20.9,0,31.3c-2.9,0.2-5.7,0.2-8.6,0
		C104.8,149.2,104.8,138.8,104.8,128.4z"/>
	<path class="st3" d="M116.7,128.4c2.8-0.1,5.6-0.1,8.3-0.1c-0.1,10.5-0.1,21,0,31.5c-2.8,0-5.5,0-8.3,0
		C116.7,149.3,116.8,138.9,116.7,128.4z"/>
	<path class="st3" d="M167.6,163.3c17-0.4,32.4,14.8,31.9,31.8c-10.6-0.3-21.2,0.4-31.8-0.3C167.4,184.4,167.7,173.9,167.6,163.3z"
		/>
</g>
<g id="_x23_6d94ceff">
	<path class="st4" d="M92.7,59.6c10.6,0,21.2,0,31.8,0c0,10,0,20,0,29.9c-10.6,0-21.3,0-31.9,0C92.7,79.5,92.7,69.6,92.7,59.6z"/>
	<path class="st4" d="M167.2,93.2c10.5,0,21.1,0,31.6,0c0,10.5,0,21,0,31.4c-10.5,0-21.1,0-31.6,0
		C167.2,114.2,167.2,103.7,167.2,93.2z"/>
	<path class="st4" d="M68.5,128.9c8.1-2.6,17.7,2.3,20,10.7c3.2,9.3-4.6,20.3-14.5,20.2c-8.7,0.8-17-7-16.6-15.8
		C57.2,137.2,62.1,130.9,68.5,128.9z"/>
	<path class="st4" d="M132.3,163.4c10.6-0.1,21.1,0,31.7,0c0.3,10.4,0.2,20.8,0.1,31.2c-1.2-1-2.4-1.9-3.6-3
		C151.1,182.1,141.7,172.8,132.3,163.4z"/>
</g>
</svg>
