<?xml version="1.0" encoding="UTF-8" ?>
<!DOCTYPE svg PUBLIC "-//W3C//DTD SVG 1.1//EN" "http://www.w3.org/Graphics/SVG/1.1/DTD/svg11.dtd">
<svg width="250pt" height="250pt" viewBox="0 0 250 250" version="1.1" xmlns="http://www.w3.org/2000/svg">
<g id="#ffffffff">
<path fill="#ffffff" opacity="1.00" d=" M 0.00 0.00 L 112.60 0.00 C 102.49 1.30 92.33 3.07 82.82 6.88 C 72.10 10.52 61.84 15.71 53.01 22.83 C 46.56 26.14 41.37 31.26 36.06 36.08 C 22.33 49.94 12.07 67.09 5.73 85.51 C 3.23 92.74 2.27 100.38 0.00 107.67 L 0.00 0.00 Z" />
<path fill="#ffffff" opacity="1.00" d=" M 138.40 0.00 L 250.00 0.00 L 250.00 109.64 C 248.02 97.99 245.51 86.28 240.55 75.49 C 235.05 62.82 227.56 50.98 218.17 40.83 C 210.55 32.11 201.42 24.79 191.77 18.45 C 181.20 12.19 169.92 7.02 158.00 3.93 C 151.56 2.20 145.02 0.82 138.40 0.00 Z" />
<path fill="#ffffff" opacity="1.00" d=" M 113.13 50.96 C 118.34 50.53 123.64 50.23 128.85 50.87 C 138.25 52.84 144.11 61.64 153.27 64.20 C 156.76 65.59 160.31 66.82 163.86 68.02 C 164.50 68.46 165.13 68.92 165.75 69.38 C 164.62 69.80 163.48 70.21 162.37 70.66 C 160.00 71.67 157.71 72.89 155.64 74.43 C 153.66 76.20 151.81 78.16 150.39 80.42 C 147.85 84.51 146.76 89.26 146.19 93.99 C 144.74 105.01 142.01 115.78 139.62 126.62 C 138.62 127.31 137.61 128.01 136.60 128.70 C 120.16 139.26 107.75 156.00 102.57 174.84 C 101.83 177.46 101.05 180.07 100.61 182.76 C 99.34 189.86 99.05 197.11 99.64 204.30 C 99.68 204.73 99.78 205.58 99.82 206.01 C 100.25 209.51 100.75 213.02 101.56 216.46 C 102.23 219.20 103.01 221.92 103.83 224.62 C 104.10 225.53 104.40 226.43 104.70 227.34 C 105.81 230.43 107.22 233.39 108.78 236.28 C 110.35 239.12 112.00 241.93 113.70 244.70 C 114.86 246.52 116.10 248.29 117.42 250.00 L 0.00 250.00 L 0.00 132.64 C 5.82 121.07 12.30 109.70 20.96 100.00 C 27.65 90.97 36.51 83.94 45.32 77.11 C 55.92 69.18 67.80 63.03 80.15 58.32 C 90.85 54.68 101.94 52.44 113.13 50.96 M 100.49 79.48 C 98.71 79.56 96.94 79.85 95.22 80.34 C 79.54 84.90 64.59 91.96 51.07 101.12 C 48.44 102.83 45.86 104.68 43.86 107.13 C 43.01 107.52 42.20 107.97 41.43 108.51 C 26.55 120.26 13.81 134.62 3.43 150.47 C 1.25 153.48 3.20 157.19 4.47 160.16 C 5.37 164.92 7.35 169.40 9.15 173.87 C 16.66 190.98 27.14 207.37 41.96 219.05 C 40.15 210.17 38.19 201.31 37.24 192.28 C 37.55 182.59 36.67 172.81 38.31 163.21 C 41.84 141.61 52.71 121.54 67.99 105.99 C 71.04 102.91 74.57 100.35 77.62 97.26 C 82.66 92.97 87.98 88.99 93.66 85.59 C 96.62 83.77 100.14 82.50 102.03 79.39 C 111.95 76.37 121.18 83.46 131.05 82.77 C 136.80 82.43 139.77 77.00 143.09 73.10 C 128.77 71.64 113.22 72.00 100.49 79.48 Z" />
<path fill="#ffffff" opacity="1.00" d=" M 215.41 212.60 C 234.38 193.12 246.53 167.34 250.00 140.40 L 250.00 250.00 L 145.15 250.00 C 148.91 248.28 152.84 247.00 156.75 245.67 C 162.69 243.62 166.32 237.69 172.32 235.78 C 176.29 235.48 179.73 239.96 183.79 237.97 C 190.40 235.00 196.40 230.73 202.12 226.32 C 201.62 226.24 200.63 226.09 200.13 226.02 C 205.60 221.99 210.74 217.52 215.41 212.60 Z" />
</g>
<g id="#1ace8cff">
<path fill="#1ace8c" opacity="1.00" d=" M 112.60 0.00 L 121.12 0.00 C 117.07 4.55 111.79 10.02 113.19 16.67 C 114.62 25.06 113.93 33.58 113.77 42.03 C 113.63 44.55 114.54 46.94 115.54 49.21 C 114.74 49.80 113.94 50.39 113.13 50.96 C 101.94 52.44 90.85 54.68 80.15 58.32 C 79.85 58.42 79.26 58.62 78.97 58.72 C 80.92 53.95 78.85 48.92 78.93 44.02 C 78.89 36.33 79.26 28.64 78.77 20.95 C 78.82 18.90 78.31 16.47 79.81 14.78 C 82.34 11.76 85.37 9.20 88.06 6.32 C 86.31 6.49 84.56 6.64 82.82 6.88 C 92.33 3.07 102.49 1.30 112.60 0.00 Z" />
</g>
<g id="#14c280ff">
<path fill="#14c280" opacity="1.00" d=" M 121.12 0.00 L 138.40 0.00 C 145.02 0.82 151.56 2.20 158.00 3.93 C 156.80 3.91 155.61 3.94 154.41 3.97 C 153.07 6.04 151.18 7.67 149.46 9.41 C 150.28 12.15 153.07 14.24 152.47 17.34 C 151.65 25.57 152.17 33.83 151.84 42.08 C 151.66 44.96 152.66 47.71 152.92 50.54 C 152.55 53.03 151.06 55.19 150.05 57.46 C 151.32 59.61 152.39 61.87 153.27 64.20 C 144.11 61.64 138.25 52.84 128.85 50.87 C 123.64 50.23 118.34 50.53 113.13 50.96 C 113.94 50.39 114.74 49.80 115.54 49.21 C 114.54 46.94 113.63 44.55 113.77 42.03 C 113.93 33.58 114.62 25.06 113.19 16.67 C 111.79 10.02 117.07 4.55 121.12 0.00 Z" />
</g>
<g id="#0eb977ff">
<path fill="#0eb977" opacity="1.00" d=" M 154.41 3.97 C 155.61 3.94 156.80 3.91 158.00 3.93 C 169.92 7.02 181.20 12.19 191.77 18.45 C 189.52 19.58 188.38 21.88 186.67 23.59 C 185.01 25.24 181.82 25.97 182.20 28.85 C 181.91 37.56 182.09 46.29 181.91 55.00 C 181.77 58.95 182.61 62.81 183.18 66.69 C 183.57 68.29 182.30 69.56 181.63 70.88 C 180.64 70.34 179.66 69.81 178.68 69.28 C 177.96 70.14 177.24 71.01 176.53 71.88 C 175.07 71.37 173.60 70.90 172.13 70.44 C 169.39 69.57 166.62 68.81 163.86 68.02 C 160.31 66.82 156.76 65.59 153.27 64.20 C 152.39 61.87 151.32 59.61 150.05 57.46 C 151.06 55.19 152.55 53.03 152.92 50.54 C 152.66 47.71 151.66 44.96 151.84 42.08 C 152.17 33.83 151.65 25.57 152.47 17.34 C 153.07 14.24 150.28 12.15 149.46 9.41 C 151.18 7.67 153.07 6.04 154.41 3.97 Z" />
<path fill="#0eb977" opacity="1.00" d=" M 163.13 116.41 C 165.00 115.93 166.90 115.59 168.80 115.28 C 173.56 116.84 178.56 117.25 183.53 117.00 C 182.60 118.21 181.68 119.43 180.78 120.66 C 181.93 121.82 183.08 122.97 184.24 124.13 C 182.30 125.00 180.35 125.87 178.40 126.72 C 179.83 128.88 181.25 131.22 181.06 133.92 C 180.91 154.61 181.06 175.31 180.94 196.00 C 180.88 201.68 181.71 207.31 182.08 212.97 C 182.53 218.23 180.77 223.29 179.90 228.41 C 182.12 229.38 184.33 230.39 186.48 231.51 C 185.01 231.74 183.51 232.36 182.02 231.92 C 176.92 230.55 172.28 227.82 168.16 224.57 C 167.72 224.97 166.84 225.77 166.41 226.18 C 165.34 225.41 164.26 224.68 163.17 223.96 C 161.13 222.12 159.21 220.15 157.18 218.31 C 157.85 216.15 159.51 213.21 157.38 211.34 C 154.95 209.21 152.12 207.29 151.20 204.00 C 153.52 203.06 155.73 201.85 157.81 200.47 C 156.15 196.88 154.82 193.05 154.94 189.04 C 155.03 178.36 155.03 167.68 155.02 157.00 C 154.93 146.23 155.37 135.45 154.48 124.70 C 156.70 122.92 158.48 120.67 159.30 117.91 C 160.58 117.41 161.84 116.87 163.13 116.41 Z" />
</g>
<g id="#21d995ff">
<path fill="#21d995" opacity="1.00" d=" M 82.82 6.88 C 84.56 6.64 86.31 6.49 88.06 6.32 C 85.37 9.20 82.34 11.76 79.81 14.78 C 78.31 16.47 78.82 18.90 78.77 20.95 C 79.26 28.64 78.89 36.33 78.93 44.02 C 78.85 48.92 80.92 53.95 78.97 58.72 C 79.26 58.62 79.85 58.42 80.15 58.32 C 67.80 63.03 55.92 69.18 45.32 77.11 C 45.34 76.59 45.40 75.56 45.42 75.05 C 45.11 74.79 44.47 74.27 44.15 74.01 C 41.56 76.75 38.49 80.25 34.27 79.33 C 31.57 77.96 33.00 74.77 32.93 72.44 C 33.00 68.56 32.57 64.63 33.69 60.84 C 35.10 55.96 33.25 51.10 32.82 46.25 C 33.99 45.18 35.42 44.45 36.56 43.35 C 38.30 40.41 38.41 36.52 41.20 34.23 C 45.28 30.58 50.29 27.79 53.01 22.83 C 61.84 15.71 72.10 10.52 82.82 6.88 Z" />
</g>
<g id="#0bb06eff">
<path fill="#0bb06e" opacity="1.00" d=" M 186.67 23.59 C 188.38 21.88 189.52 19.58 191.77 18.45 C 201.42 24.79 210.55 32.11 218.17 40.83 C 217.39 41.53 216.62 42.22 215.85 42.92 C 214.10 41.20 212.33 39.50 210.56 37.81 C 209.36 42.45 208.28 47.15 208.07 51.95 C 207.57 61.89 209.15 71.99 206.78 81.77 C 209.74 86.85 215.39 89.98 217.14 95.77 C 215.38 94.57 213.65 93.34 211.90 92.13 C 211.92 92.57 211.94 93.44 211.96 93.88 C 207.35 89.61 202.37 85.76 197.11 82.34 C 193.25 79.86 189.23 77.61 185.08 75.64 C 182.68 74.50 180.26 73.39 177.81 72.37 C 177.49 72.25 176.85 72.00 176.53 71.88 C 177.24 71.01 177.96 70.14 178.68 69.28 C 179.66 69.81 180.64 70.34 181.63 70.88 C 182.30 69.56 183.57 68.29 183.18 66.69 C 182.61 62.81 181.77 58.95 181.91 55.00 C 182.09 46.29 181.91 37.56 182.20 28.85 C 181.82 25.97 185.01 25.24 186.67 23.59 Z" />
</g>
<g id="#28e3a1ff">
<path fill="#28e3a1" opacity="1.00" d=" M 36.06 36.08 C 41.37 31.26 46.56 26.14 53.01 22.83 C 50.29 27.79 45.28 30.58 41.20 34.23 C 38.41 36.52 38.30 40.41 36.56 43.35 C 35.42 44.45 33.99 45.18 32.82 46.25 C 33.25 51.10 35.10 55.96 33.69 60.84 C 32.57 64.63 33.00 68.56 32.93 72.44 C 33.00 74.77 31.57 77.96 34.27 79.33 C 38.49 80.25 41.56 76.75 44.15 74.01 C 44.47 74.27 45.11 74.79 45.42 75.05 C 45.40 75.56 45.34 76.59 45.32 77.11 C 36.51 83.94 27.65 90.97 20.96 100.00 C 12.30 109.70 5.82 121.07 0.00 132.64 L 0.00 107.67 C 2.27 100.38 3.23 92.74 5.73 85.51 C 12.07 67.09 22.33 49.94 36.06 36.08 Z" />
</g>
<g id="#05a565ff">
<path fill="#05a565" opacity="1.00" d=" M 208.07 51.95 C 208.28 47.15 209.36 42.45 210.56 37.81 C 212.33 39.50 214.10 41.20 215.85 42.92 C 216.62 42.22 217.39 41.53 218.17 40.83 C 227.56 50.98 235.05 62.82 240.55 75.49 C 245.51 86.28 248.02 97.99 250.00 109.64 L 250.00 140.40 C 246.53 167.34 234.38 193.12 215.41 212.60 C 214.45 212.38 213.49 212.16 212.53 211.95 C 216.09 207.88 219.82 203.56 221.22 198.22 C 222.07 194.27 222.96 190.25 222.72 186.18 C 222.26 181.47 221.75 176.74 221.94 172.00 C 222.26 157.13 221.54 142.25 222.38 127.40 C 222.88 124.34 220.98 121.07 217.69 120.89 C 213.03 120.43 209.27 116.78 204.51 117.06 C 205.75 116.26 206.95 115.40 208.17 114.55 C 215.31 115.98 221.96 119.02 228.85 121.27 C 225.72 110.84 219.36 101.74 211.96 93.88 C 211.94 93.44 211.92 92.57 211.90 92.13 C 213.65 93.34 215.38 94.57 217.14 95.77 C 215.39 89.98 209.74 86.85 206.78 81.77 C 209.15 71.99 207.57 61.89 208.07 51.95 Z" />
</g>
<g id="#7ae6bfff">
<path fill="#7ae6bf" opacity="1.00" d=" M 163.86 68.02 C 166.62 68.81 169.39 69.57 172.13 70.44 C 171.23 71.18 170.34 71.93 169.45 72.67 C 169.27 78.87 169.04 85.09 169.60 91.28 C 170.32 98.88 169.52 106.58 171.04 114.11 C 169.67 114.05 168.31 113.99 166.95 113.92 C 165.22 106.35 166.29 98.53 165.36 90.86 C 164.54 84.14 166.47 76.59 162.37 70.66 C 163.48 70.21 164.62 69.80 165.75 69.38 C 165.13 68.92 164.50 68.46 163.86 68.02 Z" />
</g>
<g id="#61e0b3ff">
<path fill="#61e0b3" opacity="1.00" d=" M 155.64 74.43 C 157.71 72.89 160.00 71.67 162.37 70.66 C 166.47 76.59 164.54 84.14 165.36 90.86 C 166.29 98.53 165.22 106.35 166.95 113.92 C 168.31 113.99 169.67 114.05 171.04 114.11 C 171.58 114.12 172.68 114.14 173.22 114.16 C 171.74 114.51 170.28 114.93 168.80 115.28 C 166.90 115.59 165.00 115.93 163.13 116.41 C 161.36 112.17 160.67 107.58 160.93 103.00 C 161.30 94.16 160.70 85.32 159.65 76.54 C 158.31 75.84 156.97 75.14 155.64 74.43 Z" />
</g>
<g id="#90eccbff">
<path fill="#90eccb" opacity="1.00" d=" M 169.45 72.67 C 170.34 71.93 171.23 71.18 172.13 70.44 C 173.60 70.90 175.07 71.37 176.53 71.88 C 176.85 72.00 177.49 72.25 177.81 72.37 C 176.17 73.95 174.40 75.71 174.67 78.20 C 174.66 86.82 175.94 95.40 175.39 104.03 C 174.93 107.56 176.50 110.77 178.92 113.24 C 177.02 113.52 175.12 113.83 173.22 114.16 C 172.68 114.14 171.58 114.12 171.04 114.11 C 169.52 106.58 170.32 98.88 169.60 91.28 C 169.04 85.09 169.27 78.87 169.45 72.67 Z" />
</g>
<g id="#0f3133ff">
<path fill="#0f3133" opacity="1.00" d=" M 100.49 79.48 C 113.22 72.00 128.77 71.64 143.09 73.10 C 139.77 77.00 136.80 82.43 131.05 82.77 C 121.18 83.46 111.95 76.37 102.03 79.39 C 101.65 79.41 100.88 79.45 100.49 79.48 Z" />
</g>
<g id="#abf2d8ff">
<path fill="#abf2d8" opacity="1.00" d=" M 174.67 78.20 C 174.40 75.71 176.17 73.95 177.81 72.37 C 180.26 73.39 182.68 74.50 185.08 75.64 C 183.91 76.32 182.74 76.99 181.56 77.66 C 182.15 88.98 182.46 100.31 183.36 111.60 C 183.02 111.91 182.35 112.53 182.01 112.83 C 181.24 112.94 179.70 113.14 178.92 113.24 C 176.50 110.77 174.93 107.56 175.39 104.03 C 175.94 95.40 174.66 86.82 174.67 78.20 Z" />
</g>
<g id="#4bd5a4ff">
<path fill="#4bd5a4" opacity="1.00" d=" M 150.39 80.42 C 151.81 78.16 153.66 76.20 155.64 74.43 C 156.97 75.14 158.31 75.84 159.65 76.54 C 160.70 85.32 161.30 94.16 160.93 103.00 C 160.67 107.58 161.36 112.17 163.13 116.41 C 161.84 116.87 160.58 117.41 159.30 117.91 C 157.49 118.57 155.64 119.17 153.80 119.75 C 151.61 113.71 152.21 107.15 151.81 100.84 C 151.45 94.05 153.67 86.75 150.39 80.42 Z" />
</g>
<g id="#c6f7e6ff">
<path fill="#c6f7e6" opacity="1.00" d=" M 181.56 77.66 C 182.74 76.99 183.91 76.32 185.08 75.64 C 189.23 77.61 193.25 79.86 197.11 82.34 C 195.43 83.56 193.39 84.50 192.24 86.30 C 191.35 88.76 191.87 91.44 191.92 93.98 C 192.27 98.23 191.94 102.52 192.46 106.76 C 192.89 109.75 195.88 111.31 198.14 112.87 C 192.78 112.39 187.37 112.33 182.01 112.83 C 182.35 112.53 183.02 111.91 183.36 111.60 C 182.46 100.31 182.15 88.98 181.56 77.66 Z" />
</g>
<g id="#39ddaaff">
<path fill="#39ddaa" opacity="1.00" d=" M 95.22 80.34 C 96.94 79.85 98.71 79.56 100.49 79.48 C 100.88 79.45 101.65 79.41 102.03 79.39 C 100.14 82.50 96.62 83.77 93.66 85.59 C 87.98 88.99 82.66 92.97 77.62 97.26 C 77.13 96.93 76.15 96.28 75.66 95.95 C 77.37 94.66 79.08 93.38 80.77 92.07 C 77.50 91.65 74.02 90.68 70.84 92.02 C 66.73 93.73 62.93 96.06 58.95 98.04 C 53.65 100.63 49.45 105.05 43.86 107.13 C 45.86 104.68 48.44 102.83 51.07 101.12 C 64.59 91.96 79.54 84.90 95.22 80.34 Z" />
</g>
<g id="#3fc695ff">
<path fill="#3fc695" opacity="1.00" d=" M 150.39 80.42 C 153.67 86.75 151.45 94.05 151.81 100.84 C 152.21 107.15 151.61 113.71 153.80 119.75 C 148.70 121.17 143.80 123.33 139.62 126.62 C 142.01 115.78 144.74 105.01 146.19 93.99 C 146.76 89.26 147.85 84.51 150.39 80.42 Z" />
</g>
<g id="#ebfcf7ff">
<path fill="#ebfcf7" opacity="1.00" d=" M 192.24 86.30 C 193.39 84.50 195.43 83.56 197.11 82.34 C 202.37 85.76 207.35 89.61 211.96 93.88 C 219.36 101.74 225.72 110.84 228.85 121.27 C 221.96 119.02 215.31 115.98 208.17 114.55 C 204.85 113.82 201.49 113.37 198.14 112.87 C 195.88 111.31 192.89 109.75 192.46 106.76 C 191.94 102.52 192.27 98.23 191.92 93.98 C 191.87 91.44 191.35 88.76 192.24 86.30 Z" />
</g>
<g id="#20d8b2ff">
<path fill="#20d8b2" opacity="1.00" d=" M 70.84 92.02 C 74.02 90.68 77.50 91.65 80.77 92.07 C 79.08 93.38 77.37 94.66 75.66 95.95 C 76.15 96.28 77.13 96.93 77.62 97.26 C 74.57 100.35 71.04 102.91 67.99 105.99 C 52.71 121.54 41.84 141.61 38.31 163.21 C 36.67 172.81 37.55 182.59 37.24 192.28 C 35.90 182.89 37.06 173.42 36.76 163.99 C 36.36 156.54 38.98 149.41 39.62 142.04 C 34.55 141.44 29.53 142.21 24.56 143.12 C 20.66 143.85 16.09 140.70 12.82 143.80 C 10.47 145.76 8.26 147.96 6.59 150.55 C 4.94 153.46 4.83 156.91 4.47 160.16 C 3.20 157.19 1.25 153.48 3.43 150.47 C 13.81 134.62 26.55 120.26 41.43 108.51 C 42.20 107.97 43.01 107.52 43.86 107.13 C 49.45 105.05 53.65 100.63 58.95 98.04 C 62.93 96.06 66.73 93.73 70.84 92.02 Z" />
</g>
<g id="#0cb171ff">
<path fill="#0cb171" opacity="1.00" d=" M 173.22 114.16 C 175.12 113.83 177.02 113.52 178.92 113.24 C 179.70 113.14 181.24 112.94 182.01 112.83 C 187.37 112.33 192.78 112.39 198.14 112.87 C 201.49 113.37 204.85 113.82 208.17 114.55 C 206.95 115.40 205.75 116.26 204.51 117.06 C 201.37 117.75 198.15 118.00 194.94 118.14 C 194.85 119.52 194.74 120.91 194.63 122.30 C 196.63 123.22 198.60 124.21 200.60 125.13 C 199.63 128.67 198.90 132.30 198.94 135.99 C 199.19 156.32 198.89 176.66 199.11 197.00 C 199.17 204.15 196.77 211.58 199.73 218.48 C 200.20 219.78 202.03 219.72 202.97 218.98 C 206.38 216.97 209.53 214.52 212.53 211.95 C 213.49 212.16 214.45 212.38 215.41 212.60 C 210.74 217.52 205.60 221.99 200.13 226.02 C 194.32 230.00 188.44 233.92 182.04 236.90 C 176.49 233.83 171.44 230.01 166.41 226.18 C 166.84 225.77 167.72 224.97 168.16 224.57 C 172.28 227.82 176.92 230.55 182.02 231.92 C 183.51 232.36 185.01 231.74 186.48 231.51 C 184.33 230.39 182.12 229.38 179.90 228.41 C 180.77 223.29 182.53 218.23 182.08 212.97 C 181.71 207.31 180.88 201.68 180.94 196.00 C 181.06 175.31 180.91 154.61 181.06 133.92 C 181.25 131.22 179.83 128.88 178.40 126.72 C 180.35 125.87 182.30 125.00 184.24 124.13 C 183.08 122.97 181.93 121.82 180.78 120.66 C 181.68 119.43 182.60 118.21 183.53 117.00 C 178.56 117.25 173.56 116.84 168.80 115.28 C 170.28 114.93 171.74 114.51 173.22 114.16 Z" />
</g>
<g id="#06ac6aff">
<path fill="#06ac6a" opacity="1.00" d=" M 194.94 118.14 C 198.15 118.00 201.37 117.75 204.51 117.06 C 209.27 116.78 213.03 120.43 217.69 120.89 C 220.98 121.07 222.88 124.34 222.38 127.40 C 221.54 142.25 222.26 157.13 221.94 172.00 C 221.75 176.74 222.26 181.47 222.72 186.18 C 222.96 190.25 222.07 194.27 221.22 198.22 C 219.82 203.56 216.09 207.88 212.53 211.95 C 209.53 214.52 206.38 216.97 202.97 218.98 C 202.03 219.72 200.20 219.78 199.73 218.48 C 196.77 211.58 199.17 204.15 199.11 197.00 C 198.89 176.66 199.19 156.32 198.94 135.99 C 198.90 132.30 199.63 128.67 200.60 125.13 C 198.60 124.21 196.63 123.22 194.63 122.30 C 194.74 120.91 194.85 119.52 194.94 118.14 Z" />
</g>
<g id="#11bf7cff">
<path fill="#11bf7c" opacity="1.00" d=" M 153.80 119.75 C 155.64 119.17 157.49 118.57 159.30 117.91 C 158.48 120.67 156.70 122.92 154.48 124.70 C 155.37 135.45 154.93 146.23 155.02 157.00 C 155.03 167.68 155.03 178.36 154.94 189.04 C 154.82 193.05 156.15 196.88 157.81 200.47 C 155.73 201.85 153.52 203.06 151.20 204.00 C 152.12 207.29 154.95 209.21 157.38 211.34 C 159.51 213.21 157.85 216.15 157.18 218.31 C 155.84 217.10 154.48 215.91 153.13 214.71 C 150.72 212.42 148.54 209.89 146.35 207.38 C 145.31 206.18 144.28 204.97 143.26 203.75 C 141.82 201.81 140.51 199.79 139.15 197.81 C 137.70 195.51 136.39 193.12 135.21 190.67 C 134.10 188.32 133.17 185.89 132.31 183.44 C 131.53 181.26 130.82 179.06 130.27 176.81 C 129.34 172.13 128.58 167.40 128.17 162.64 C 128.21 162.02 128.30 160.78 128.35 160.16 C 129.35 153.83 130.07 147.36 132.47 141.37 C 134.10 137.23 135.48 133.00 136.60 128.70 C 137.61 128.01 138.62 127.31 139.62 126.62 C 143.80 123.33 148.70 121.17 153.80 119.75 Z" />
</g>
<g id="#1ab2b8ff">
<path fill="#1ab2b8" opacity="1.00" d=" M 102.57 174.84 C 107.75 156.00 120.16 139.26 136.60 128.70 C 135.48 133.00 134.10 137.23 132.47 141.37 C 130.07 147.36 129.35 153.83 128.35 160.16 C 128.56 156.88 127.80 153.67 126.66 150.63 C 123.01 155.29 119.29 159.89 115.16 164.13 C 110.81 168.49 107.86 174.06 103.17 178.10 C 103.02 177.29 102.72 175.66 102.57 174.84 Z" />
</g>
<g id="#13c8beff">
<path fill="#13c8be" opacity="1.00" d=" M 24.56 143.12 C 29.53 142.21 34.55 141.44 39.62 142.04 C 38.98 149.41 36.36 156.54 36.76 163.99 C 37.06 173.42 35.90 182.89 37.24 192.28 C 38.19 201.31 40.15 210.17 41.96 219.05 C 27.14 207.37 16.66 190.98 9.15 173.87 C 7.35 169.40 5.37 164.92 4.47 160.16 C 4.83 156.91 4.94 153.46 6.59 150.55 C 8.26 147.96 10.47 145.76 12.82 143.80 C 16.09 140.70 20.66 143.85 24.56 143.12 Z" />
</g>
<g id="#32bdc5ff">
<path fill="#32bdc5" opacity="1.00" d=" M 115.16 164.13 C 119.29 159.89 123.01 155.29 126.66 150.63 C 127.80 153.67 128.56 156.88 128.35 160.16 C 128.30 160.78 128.21 162.02 128.17 162.64 C 122.20 165.39 119.41 171.58 115.31 176.30 C 110.92 181.37 106.84 186.77 101.77 191.20 C 101.20 188.42 100.73 185.60 100.61 182.76 C 101.05 180.07 101.83 177.46 102.57 174.84 C 102.72 175.66 103.02 177.29 103.17 178.10 C 107.86 174.06 110.81 168.49 115.16 164.13 Z" />
</g>
<g id="#47c6cdff">
<path fill="#47c6cd" opacity="1.00" d=" M 115.31 176.30 C 119.41 171.58 122.20 165.39 128.17 162.64 C 128.58 167.40 129.34 172.13 130.27 176.81 C 128.83 175.79 127.39 174.77 125.96 173.74 C 117.03 183.79 108.95 194.59 99.64 204.30 C 99.05 197.11 99.34 189.86 100.61 182.76 C 100.73 185.60 101.20 188.42 101.77 191.20 C 106.84 186.77 110.92 181.37 115.31 176.30 Z" />
</g>
<g id="#5bced6ff">
<path fill="#5bced6" opacity="1.00" d=" M 99.64 204.30 C 108.95 194.59 117.03 183.79 125.96 173.74 C 127.39 174.77 128.83 175.79 130.27 176.81 C 130.82 179.06 131.53 181.26 132.31 183.44 C 130.95 182.89 129.59 182.31 128.15 182.03 C 123.97 184.49 121.56 188.92 118.67 192.65 C 114.22 199.38 107.09 203.94 103.69 211.43 C 102.24 209.74 100.84 208.00 99.82 206.01 C 99.78 205.58 99.68 204.73 99.64 204.30 Z" />
</g>
<g id="#6ed6dbff">
<path fill="#6ed6db" opacity="1.00" d=" M 118.67 192.65 C 121.56 188.92 123.97 184.49 128.15 182.03 C 129.59 182.31 130.95 182.89 132.31 183.44 C 133.17 185.89 134.10 188.32 135.21 190.67 C 133.17 189.69 131.12 188.73 129.07 187.76 C 123.15 199.03 113.22 207.29 105.94 217.60 C 104.48 217.22 103.02 216.83 101.56 216.46 C 100.75 213.02 100.25 209.51 99.82 206.01 C 100.84 208.00 102.24 209.74 103.69 211.43 C 107.09 203.94 114.22 199.38 118.67 192.65 Z" />
</g>
<g id="#80dbe1ff">
<path fill="#80dbe1" opacity="1.00" d=" M 105.94 217.60 C 113.22 207.29 123.15 199.03 129.07 187.76 C 131.12 188.73 133.17 189.69 135.21 190.67 C 136.39 193.12 137.70 195.51 139.15 197.81 C 137.17 196.37 135.06 195.12 132.97 193.86 C 129.01 199.53 123.68 204.05 119.69 209.69 C 115.34 215.52 110.78 221.74 103.83 224.62 C 103.01 221.92 102.23 219.20 101.56 216.46 C 103.02 216.83 104.48 217.22 105.94 217.60 Z" />
</g>
<g id="#91e1e6ff">
<path fill="#91e1e6" opacity="1.00" d=" M 119.69 209.69 C 123.68 204.05 129.01 199.53 132.97 193.86 C 135.06 195.12 137.17 196.37 139.15 197.81 C 140.51 199.79 141.82 201.81 143.26 203.75 C 140.88 202.43 138.41 201.30 135.96 200.15 C 132.31 204.45 128.97 209.00 125.18 213.18 C 120.07 218.87 116.34 225.65 111.05 231.19 C 108.92 229.92 106.81 228.64 104.70 227.34 C 104.40 226.43 104.10 225.53 103.83 224.62 C 110.78 221.74 115.34 215.52 119.69 209.69 Z" />
</g>
<g id="#a3e6ebff">
<path fill="#a3e6eb" opacity="1.00" d=" M 135.96 200.15 C 138.41 201.30 140.88 202.43 143.26 203.75 C 144.28 204.97 145.31 206.18 146.35 207.38 C 143.56 207.50 140.02 206.46 137.93 208.88 C 134.97 212.28 132.52 216.10 129.46 219.43 C 124.55 224.93 120.94 231.52 115.63 236.67 C 113.73 238.82 110.98 236.72 108.78 236.28 C 107.22 233.39 105.81 230.43 104.70 227.34 C 106.81 228.64 108.92 229.92 111.05 231.19 C 116.34 225.65 120.07 218.87 125.18 213.18 C 128.97 209.00 132.31 204.45 135.96 200.15 Z" />
</g>
<g id="#b4ebefff">
<path fill="#b4ebef" opacity="1.00" d=" M 137.93 208.88 C 140.02 206.46 143.56 207.50 146.35 207.38 C 148.54 209.89 150.72 212.42 153.13 214.71 C 150.74 214.34 148.12 213.67 145.83 214.80 C 141.25 217.03 138.21 221.28 135.19 225.20 C 132.35 228.98 128.90 232.27 126.38 236.29 C 124.78 238.68 123.45 241.34 121.24 243.26 C 119.18 245.10 116.23 244.60 113.70 244.70 C 112.00 241.93 110.35 239.12 108.78 236.28 C 110.98 236.72 113.73 238.82 115.63 236.67 C 120.94 231.52 124.55 224.93 129.46 219.43 C 132.52 216.10 134.97 212.28 137.93 208.88 Z" />
</g>
<g id="#c7f0f4ff">
<path fill="#c7f0f4" opacity="1.00" d=" M 145.83 214.80 C 148.12 213.67 150.74 214.34 153.13 214.71 C 154.48 215.91 155.84 217.10 157.18 218.31 C 159.21 220.15 161.13 222.12 163.17 223.96 C 159.52 223.01 155.95 221.79 152.57 220.12 C 149.27 225.52 146.38 231.30 141.56 235.57 C 137.11 239.50 133.83 244.51 131.60 250.00 L 117.42 250.00 C 116.10 248.29 114.86 246.52 113.70 244.70 C 116.23 244.60 119.18 245.10 121.24 243.26 C 123.45 241.34 124.78 238.68 126.38 236.29 C 128.90 232.27 132.35 228.98 135.19 225.20 C 138.21 221.28 141.25 217.03 145.83 214.80 Z" />
</g>
<g id="#ddf7f9ff">
<path fill="#ddf7f9" opacity="1.00" d=" M 141.56 235.57 C 146.38 231.30 149.27 225.52 152.57 220.12 C 155.95 221.79 159.52 223.01 163.17 223.96 C 164.26 224.68 165.34 225.41 166.41 226.18 C 171.44 230.01 176.49 233.83 182.04 236.90 C 188.44 233.92 194.32 230.00 200.13 226.02 C 200.63 226.09 201.62 226.24 202.12 226.32 C 196.40 230.73 190.40 235.00 183.79 237.97 C 179.73 239.96 176.29 235.48 172.32 235.78 C 166.32 237.69 162.69 243.62 156.75 245.67 C 152.84 247.00 148.91 248.28 145.15 250.00 L 131.60 250.00 C 133.83 244.51 137.11 239.50 141.56 235.57 Z" />
</g>
</svg>
