<?xml version="1.0" encoding="utf-8"?>
<!-- Generator: Adobe Illustrator 26.0.3, SVG Export Plug-In . SVG Version: 6.00 Build 0)  -->
<svg version="1.1" id="Layer_1" xmlns="http://www.w3.org/2000/svg" xmlns:xlink="http://www.w3.org/1999/xlink" x="0px" y="0px"
	 viewBox="0 0 250 247" style="enable-background:new 0 0 250 247;" xml:space="preserve">
<style type="text/css">
	.st0{fill:#82B6FD;}
	.st1{fill:#70A8FF;}
	.st2{fill:#95C8FF;}
	.st3{fill:#82ACFC;}
	.st4{fill:#6896F7;}
	.st5{fill:#5E9CFF;}
	.st6{fill:#5A87F5;}
	.st7{fill:#4D8FFF;}
	.st8{fill:#3E79FE;}
	.st9{fill:#4C78F3;}
	.st10{fill:#E0E9FE;}
	.st11{fill:#F6F9FE;}
	.st12{fill:#3C81FE;}
	.st13{fill:#3D67F0;}
	.st14{fill:#2971FE;}
	.st15{fill:#2E57EE;}
	.st16{fill:#1F46EC;}
	.st17{fill:#94B5FD;}
	.st18{fill:#1135E9;}
	.st19{fill:#EDF2FE;}
	.st20{fill:#7FA6FD;}
</style>
<g id="_x23_82b6fdff">
	<path class="st0" d="M90.5,4.3c0.5,0,1.4,0.1,1.8,0.2c2.8,6.1,3,12.9,3.1,19.5c0,7.7,0,15.3,0,23c0.1,7.4-1.8,14.6-2.4,22
		c-0.4,2.7,0,5.6-1.2,8.2c-0.1-10.4-0.1-20.7,1.1-31c-1.6-0.2-3.2-0.6-4.7-0.8c-3.4,3.6-7.2,6.8-11.5,9.4c-3.7,2.2-4.9,7-8.9,8.8
		c2.5-7.5,8.3-13.2,11.4-20.4c1-2.4,1.9-4.8,2.8-7.3c0.5-0.2,1.1-0.5,1.6-0.7c0.7-2.5,0.4-5.7,2.9-7.2c0.3-3,1.5-5.7,3-8.3
		C90.1,14.6,90.2,9.4,90.5,4.3z"/>
</g>
<g id="_x23_70a8ffff">
	<path class="st1" d="M88.2,45.4c1.6,0.3,3.2,0.6,4.7,0.8c-1.2,10.3-1.2,20.6-1.1,31c0,0.4,0,1.2,0,1.6c-0.5-0.5-1.1-1-1.6-1.6
		c0.2,4.7-0.2,9.3-0.9,13.9c-0.2-0.4-0.5-1.2-0.7-1.6c0.5-6.2-0.1-12.4,1.4-18.4c0.3-2,1.1-4.2,0-6.1c-0.8-2.2-3.7-2.5-5.6-1.6
		C79.2,68.1,77.5,76,71,79.5c-3.6-0.5-7.7-1.3-11,0.5c-3.3,2.8-5.1,7.2-9.4,8.8c0.1-3.4,2.6-6,4.8-8.4c3-2.9,4.2-7,7.1-9.9
		c2.1-2.1,2.7-5.4,5.3-6.9c4-1.9,5.2-6.7,8.9-8.8C81,52.2,84.8,49,88.2,45.4z"/>
</g>
<g id="_x23_95c8ffff">
	<path class="st2" d="M105.1,55.7c1-4,0.9-10,5.8-11.3c4,6.4,7.7,13.2,12.8,18.9c1.9,2.5,3,5.5,5.2,7.9c3.5,3.9,5.6,8.9,9.7,12.3
		c1.8,1.4,2,3.5,1.4,5.5c-2.8-2.2-3.9-6-6.9-8c-5.9-2-12.4-0.7-18.3-2.7c-5.8-5.8-5.1-14.5-6.5-22c-1,0.4-2.1,0.9-3.1,1.3
		C105.1,57.1,105.1,56.1,105.1,55.7z"/>
</g>
<g id="_x23_82acfcff">
	<path class="st3" d="M104.7,54.8l0.3,0.9c0,0.5,0.1,1.4,0.1,1.8c1-0.4,2.1-0.8,3.1-1.3c1.4,7.4,0.7,16.2,6.5,22
		c5.9,2,12.4,0.8,18.3,2.7c2.9,2,4.1,5.8,6.9,8c0.2,0.2,0.6,0.6,0.8,0.8c-3.3-0.2-6.5,0.1-9.8,0.7c-1.3,1.9-3.9,1.5-5.9,2.1
		c-3.6,0.9-6.7,3-10.1,4.4c-6.6,3.1-12.1,7.9-18.1,11.9c-2.2-0.7-1-3.9-0.5-5.5c2.1-4.5,2-9.5,2-14.4c-0.2-2.9,2-5.1,2.2-7.9
		c0.4-6.3,0.7-12.6,1.8-18.8c0.4,0.9,0.8,1.8,1.2,2.7C103.6,61.5,103.8,58.1,104.7,54.8z"/>
</g>
<g id="_x23_6896f7ff">
	<path class="st4" d="M84.6,63.4c1.8-0.9,4.8-0.6,5.6,1.6c1.1,1.9,0.3,4.1,0,6.1c-1.5,6-1,12.3-1.4,18.4c-1,4.4-1.4,9-1.2,13.5
		c-0.6-0.8-1.2-1.6-1.9-2.3c0.2-4.8-0.2-9.6-1.1-14.3c-4.4-0.8-9.3-0.9-12.6,2.6c0.9-2.9,1.7-5.9,2.5-8.8c-1.2-0.2-2.3-0.5-3.5-0.7
		C77.5,76,79.2,68.1,84.6,63.4z"/>
</g>
<g id="_x23_5e9cffff">
	<path class="st5" d="M60,80c3.3-1.9,7.4-1,11-0.5c1.2,0.2,2.3,0.4,3.5,0.7c-0.8,2.9-1.6,5.9-2.5,8.8c-3.1,5.9-7.8,10.8-10.7,16.7
		c-5.7,0.5-11.5,0-17.3,0.4c-3.3,0.1-5.7,2.8-7.8,5.1c-3.9,4.5-6.3,10-9.7,14.8c-0.1-0.4-0.3-1.2-0.4-1.6c1.2-3.6,3-7,5.1-10.2
		c2.6-3.8,4.2-8.3,7.4-11.6c4-4.5,6.7-10.5,11.9-13.8C54.9,87.2,56.7,82.8,60,80z"/>
</g>
<g id="_x23_5a87f5ff">
	<path class="st6" d="M72,89c3.3-3.6,8.2-3.4,12.6-2.6c0.9,4.7,1.3,9.5,1.1,14.3c-1.5,4.6-1.2,9.4-1.9,14.1c-0.5-0.5-0.9-1-1.4-1.4
		c-0.2,3.8-0.6,7.5-1.1,11.3c0,1.1-1.2,1.6-1.8,2.3c-0.5,1.7-0.8,3.5-1.4,5.2l-0.5-0.9c-0.2-7.4,3.7-14.4,2-21.9
		c-6.6-0.2-14.1-1.9-19.7,2.5c0.5-2,0.9-4.1,1.4-6.1C64.2,99.8,68.9,94.9,72,89z"/>
</g>
<g id="_x23_4d8fffff">
	<path class="st7" d="M36.3,111.3c2-2.4,4.4-5,7.8-5.1c5.7-0.4,11.5,0.1,17.3-0.4c-0.5,2-0.8,4.1-1.4,6.1c-4,6.8-8.8,13.1-11.8,20.4
		c-6.8,3.2-14.5,0.8-21.7,2.1c-3.1,3.8-5.3,8.4-5.8,13.4c-0.1,2.2-1.7,3.9-2.9,5.6c-0.1-5.3,2.4-10.4,1.6-15.7
		c0.7-0.2,1.3-0.3,2-0.4c0.6-2.5,1.1-5,1.1-7.6c0.6-0.2,1.3-0.3,1.9-0.4c0.4-2.1,0.9-4.2,1.4-6.3c0.1,0.4,0.3,1.2,0.4,1.6
		c0.1,0.4,0.3,1.2,0.4,1.6C30,121.3,32.4,115.8,36.3,111.3z"/>
</g>
<g id="_x23_3e79feff">
	<path class="st8" d="M128.5,108.7c7.5-2.9,15.7-2.1,23.5-2.2c6.1,0.2,12.4-0.5,18.2,1.6c5.7,2,11.2,4.4,16.3,7.5
		c3.6,2.6,6.5,6.1,10.2,8.6c5.7,4,9.6,9.9,12.7,16c0.3-0.1,0.5-0.2,0.8-0.3c1.8,3.3,3.6,6.8,3.2,10.7c0.6-0.4,1.3-0.7,2-1.1
		c0.5,2.8,1,5.6,1.7,8.4c2.5,8.5,1.1,17.4,1.5,26.1c0.4,4.8-1.8,9.3-2.4,14c-0.4,3.9-2.7,7.3-3.2,11.2c-0.5-0.1-1-0.2-1.5-0.3
		c-4.1,9.7-11.6,17.4-19.2,24.4c-2.4,1.9-5.4,2.8-7.6,5c-1.4,0.3-2.6,1.1-4,1.4c-0.2,0.6-0.4,1.2-0.6,1.9c-2.3,0.1-4.6,0.3-6.9,0.5
		c0.4,0.6,0.9,1.2,1.3,1.8c-1.8,0-3.6,0-5.4,0.1c-3.9-0.1-8,0.1-10.9,3.1h-23.6c-0.3-0.6-0.8-1.9-1.1-2.5c-2.5-0.2-5-0.4-7.4-0.7
		c0.6-0.5,1.1-1.1,1.6-1.7c-2.3-0.2-4.6-0.5-6.9-0.6c-0.2-0.6-0.5-1.1-0.7-1.7c-3-1.2-5.9-2.5-8.4-4.5c-6.8-5.1-13.4-10.7-18-17.8
		c-2.9-4.7-6.7-9.2-7.1-15c-0.5,0.3-1.1,0.7-1.6,1c-0.5-3.9-1.1-7.7-1.5-11.5c-0.3,1.3-0.7,2.6-1,3.9c-1.2-12.8-1.5-25.8,0-38.6
		c0.4,0.8,0.9,1.7,1.2,2.5c0.3-3.5,0.6-7,1.1-10.5c0.3,1,1,1.6,1.9,2.1c0.1-2.4,0.2-4.7,0.4-7c0.6,0.3,1.2,0.7,1.7,1
		c0.8-3.2,1.7-6.5,4-8.9c4.4-4.6,7.2-10.8,12.6-14.4C112.3,116.5,120.1,111.9,128.5,108.7 M164.8,129.6c-3.8,2.7-7.2,6.1-8.6,10.6
		c-0.6,0.2-1.1,0.4-1.6,0.6c-0.3,2.5,0.2,5.6-2.1,7.2c-1,3.8-0.6,8.2-3.5,11.2c-6.8,1.5-13.6-1.4-20.4-0.6c0,2,0.3,4,1.1,5.9
		c5.3,0.6,10.6,1.1,15.9,1.1c1.7,3.5,0.8,7.4,0.1,11c-6.3,1.3-12.8-1-19.2-0.1c0.1,1.7,0.4,3.3,0.6,4.9c5,0.6,9.9,1.2,14.9,0.9
		c1.5,3.7,0.1,7.3-1.2,10.8c-0.5,4.2-0.6,8.4-1.2,12.6c-0.4-0.9-0.8-1.8-1.1-2.8c0.2,6.7-1.7,13.3-6.4,18.2c-2.3,0.1-4.7,0.4-7-0.1
		c-2-1.1-2.5-3.8-4.5-4.8c-1.4-0.2-2.9-0.2-4.3-0.2c-1.1,3.2,0,8,3.8,8.7c5.3,1.3,10.8-0.1,16.1-0.7c-0.4-0.1-1.2-0.3-1.6-0.4
		c3.3-1.3,5.7-4,7.2-7.1c0.5-0.2,1-0.4,1.6-0.5c1.4-3.5,3-7,3.1-10.8c0.5,0.4,1.1,0.9,1.6,1.3c0.5-3.5,1.2-7,1.4-10.5
		c0.5,0.9,1,1.8,1.5,2.6c0.6-4.2,1-8.4,1.5-12.6c7.2-2.4,14.3,2.8,21.5,0.8c-0.1-1.8-0.3-3.6-0.4-5.5c-6-1-12.1-1.3-18.1-1.9
		c-0.1-3.5,0.2-7.1,0.9-10.5c4.9-1.4,9.8,0.6,14.7,0.6c1.9-0.1,4.4,0.5,5.5-1.7c0.1-1.3-0.7-2.9-2-3.3c-5.2-1.7-10.8-1.3-16.2-2.1
		c1.1-5.1,2.3-10.2,2.4-15.5c0.7,0.5,1.4,1,2.1,1.5c-0.1-2.6-0.2-5.1,0.4-7.6c0.5-3.7,3.5-6.3,5.5-9.3c2.7,0.3,6.1-0.9,8.1,1.6
		c1.9,1.5,4,5.3,6.7,3.3c2.6-1.1,2.4-4.8,0.3-6.3C178.9,124.6,170.3,126,164.8,129.6z"/>
</g>
<g id="_x23_4c78f3ff">
	<path class="st9" d="M60,111.9c5.6-4.4,13.1-2.7,19.7-2.5c1.6,7.5-2.2,14.5-2,21.9c-0.8,2.6-1.8,5.1-2.6,7.6
		c-0.5,0.3-0.9,0.6-1.4,0.9c-0.3,1.5-0.6,3-0.9,4.5c-0.6,0.3-1.1,0.6-1.7,0.9c-0.6,4.3-1.3,8.6-1.5,12.9c-0.3-1.4-0.5-2.9-0.7-4.3
		c0.1-3.9,0.1-7.9,1.6-11.6c1-2.5,1.5-5.2,1.6-7.9C66,134,60,133.7,54,134.1c-3.1,0.1-5,3-6.9,5.1c0.4-2.3,0.6-4.6,1-6.9
		C51.2,125,56,118.6,60,111.9z"/>
</g>
<g id="_x23_e0e9feff">
	<path class="st10" d="M164.8,129.6c5.6-3.5,14.2-4.9,18.9,0.7c2.1,1.5,2.4,5.2-0.3,6.3c-2.7,2-4.8-1.8-6.7-3.3
		c-1.9-2.6-5.4-1.3-8.1-1.6C167.3,131,166,130.3,164.8,129.6z"/>
</g>
<g id="_x23_f6f9feff">
	<path class="st11" d="M156.2,140.1c1.4-4.5,4.8-7.9,8.6-10.6c1.3,0.7,2.6,1.4,3.9,2.1c-2,3-5,5.6-5.5,9.3c-0.6,2.5-0.6,5.1-0.4,7.6
		c-0.7-0.5-1.4-1-2.1-1.5c-0.1,5.2-1.2,10.4-2.4,15.5c5.4,0.8,11,0.4,16.2,2.1c1.3,0.4,2.1,2,2,3.3c-1.1,2.1-3.5,1.6-5.5,1.7
		c-4.9,0-9.8-1.9-14.7-0.6c-0.7,3.5-1,7-0.9,10.5c6,0.7,12.1,0.9,18.1,1.9c0.1,1.8,0.2,3.6,0.4,5.5c-7.2,2.1-14.3-3.1-21.5-0.8
		c-0.5,4.2-1,8.4-1.5,12.6c-0.5-0.9-1-1.8-1.5-2.6c-0.1,3.5-0.8,7-1.4,10.5c-0.5-0.4-1.1-0.9-1.6-1.3c-0.1,3.8-1.7,7.4-3.1,10.8
		c-0.5,0.2-1,0.3-1.6,0.5c-1.5,3.1-4,5.9-7.2,7.1c-1.5-0.1-2.9-0.2-4.4-0.3c0.6-0.8,1.3-1.5,1.9-2.2c4.7-4.9,6.7-11.6,6.4-18.2
		c0.4,0.9,0.7,1.8,1.1,2.8c0.7-4.2,0.8-8.4,1.2-12.6c1.2-3.5,2.7-7.1,1.2-10.8c-5,0.2-10-0.3-14.9-0.9c-0.3-1.6-0.6-3.3-0.6-4.9
		c6.4-0.9,12.8,1.4,19.2,0.1c0.8-3.6,1.6-7.5-0.1-11c-5.3,0.1-10.6-0.5-15.9-1.1c-0.7-1.9-1-3.9-1.1-5.9c6.8-0.9,13.6,2,20.4,0.6
		c2.9-3,2.5-7.4,3.5-11.2c2.3-1.7,1.8-4.8,2.1-7.2C155.1,140.5,155.6,140.3,156.2,140.1z"/>
</g>
<g id="_x23_3c81feff">
	<path class="st12" d="M26.5,134.4c7.1-1.4,14.8,1.1,21.7-2.1c-0.4,2.3-0.6,4.6-1,6.9c-2.9,6.2-6.1,12.2-8.1,18.8
		c-1.3,1.7-2.6,3.5-4.5,4.6c-4.3,1-8.8-0.1-13.1,0.8c-1.7,0.7-2.7,2.4-4,3.6c0.2-4.5-0.6-9.1,0.4-13.5c1.2-1.7,2.8-3.4,2.9-5.6
		C21.2,142.8,23.4,138.2,26.5,134.4z"/>
</g>
<g id="_x23_3d67f0ff">
	<path class="st13" d="M47.2,139.2c1.9-2.1,3.8-4.9,6.9-5.1c6-0.4,11.9-0.1,17.9,0.1c-0.2,2.7-0.6,5.4-1.6,7.9
		c-1.5,3.7-1.5,7.7-1.6,11.6c-2,9.3-1,18.8-1.2,28.2c-0.3,5,1.1,9.9,1,14.9c-2.1-2.8-1.8-6.5-2.3-9.8c-1.1-8.9-0.2-17.9-0.6-26.8
		c-6.2-0.6-12.4-0.4-18.6-0.4c-1.7,0.1-3.6,0-5.1,0.8c-1.7,2.4-3.1,5-4.5,7.6c0.6-3.5,1-7,1.7-10.4
		C41.1,151.4,44.2,145.4,47.2,139.2z"/>
</g>
<g id="_x23_2971feff">
	<path class="st14" d="M34.5,162.6c1.9-1.1,3.2-2.9,4.5-4.6c-0.7,3.4-1.1,6.9-1.7,10.4c-3.3,13-5.2,26.8-1.6,39.9
		c0.9,5.5,4.1,10.3,7.5,14.6c-6.7-4.3-11-11.3-15-18c-2.7-4.3-4.2-9.2-6.7-13.5c-2.7-3.3-2-7.7-1.9-11.7c-0.5,0-1.4,0-1.8,0
		c-0.5-4.2-0.4-8.4-0.4-12.6c1.3-1.2,2.4-2.9,4-3.6C25.7,162.5,30.2,163.6,34.5,162.6z"/>
</g>
<g id="_x23_2e57eeff">
	<path class="st15" d="M41.8,160.7c1.5-0.9,3.4-0.7,5.1-0.8c6.2,0,12.4-0.1,18.6,0.4c0.4,8.9-0.5,17.9,0.6,26.8
		c-3.2-1.3-6.6-2.5-10.1-2.2c-6,0.3-11.9,0.1-17.8-0.7c-3.4,7.6-2.7,15.9-2.4,24c-3.7-13.1-1.7-26.9,1.6-39.9
		C38.7,165.8,40.1,163.1,41.8,160.7z"/>
</g>
<g id="_x23_1f46ecff">
	<path class="st16" d="M38.2,184.2c5.9,0.8,11.9,1,17.8,0.7c3.5-0.3,6.9,0.9,10.1,2.2c0.5,3.3,0.1,7,2.3,9.8
		c2.5,2.5,1.9,6.1,2.6,9.2c2.2,1.6,2.8,4.1,2.4,6.7c0.4-0.9,0.7-1.9,1.1-2.8c1.4,2.6,1.1,6.1,3.7,7.9c1.2,2.6,2.9,5,3.3,7.8
		c-6.3-3.8-7.1-12.1-12.7-16.6c-2.3-1.3-5.1-1.2-7.7-1.3c-6.7,0.1-13.4-0.1-20.1,0.2c-0.3,5.9,2.9,11,4.6,16.4
		c-0.8-0.6-1.5-1.2-2.3-1.8c-3.4-4.3-6.6-9.1-7.5-14.6C35.5,200.2,34.8,191.8,38.2,184.2z"/>
</g>
<g id="_x23_94b5fdff">
	<path class="st17" d="M21.5,191.3c2.5,4.4,4,9.3,6.7,13.5c4.1,6.7,8.3,13.7,15,18c0.8,0.6,1.5,1.2,2.3,1.8c2.7,3,6.1,5.2,9,7.9
		c-3.2,0.1-5.5-2.4-8-4.2c-8.3-7.1-16-15.1-21-25C23.5,199.7,21.4,195.8,21.5,191.3z"/>
</g>
<g id="_x23_1135e9ff">
	<path class="st18" d="M41,208.2c6.7-0.2,13.4-0.1,20.1-0.2c2.6,0.1,5.4-0.1,7.7,1.3c5.6,4.5,6.5,12.8,12.7,16.6
		c1.3,0.9,2.5,2.1,3.4,3.3c4,5.1,9,9.4,13.8,13.8c-3.4,2.5-7.8,1.1-11.7,1.4c-5.7,0.3-10.7-3.5-16.4-3c-0.1-0.9-0.2-1.7-0.4-2.6
		c-5.9,0.4-11-3-15.6-6.2c-2.9-2.8-6.4-4.9-9-7.9C43.9,219.2,40.6,214.1,41,208.2z"/>
</g>
<g id="_x23_edf2feff">
	<path class="st19" d="M116.2,216.2c1.4,0.1,2.9,0,4.3,0.2c2,1,2.5,3.7,4.5,4.8c2.3,0.5,4.7,0.2,7,0.1c-0.6,0.8-1.3,1.5-1.9,2.2
		c1.5,0.1,2.9,0.2,4.4,0.3c0.4,0.1,1.2,0.3,1.6,0.4c-5.3,0.6-10.8,2-16.1,0.7C116.3,224.3,115.2,219.4,116.2,216.2z"/>
</g>
<g id="_x23_7fa6fdff">
	<path class="st20" d="M158.3,247c2.9-3,7-3.3,10.9-3.1c-1.2,1.1-2.5,2.1-3.8,3.1H158.3z"/>
</g>
</svg>
