<?xml version="1.0" encoding="UTF-8" ?>
<!DOCTYPE svg PUBLIC "-//W3C//DTD SVG 1.1//EN" "http://www.w3.org/Graphics/SVG/1.1/DTD/svg11.dtd">
<svg width="250pt" height="250pt" viewBox="0 0 250 250" version="1.1" xmlns="http://www.w3.org/2000/svg">
<g id="#fffffeff">
<path fill="#fffffe" opacity="1.00" d=" M 0.00 0.00 L 250.00 0.00 L 250.00 250.00 L 0.00 250.00 L 0.00 0.00 M 88.89 7.41 C 83.42 8.85 77.93 10.62 73.11 13.65 C 72.85 13.65 72.34 13.65 72.08 13.66 C 56.63 21.48 42.12 31.63 30.92 44.95 C 20.12 57.40 11.74 72.01 6.83 87.76 C 3.64 95.81 2.80 104.46 1.49 112.95 C 1.00 124.52 0.56 136.26 3.00 147.67 C 3.60 154.75 6.28 161.37 8.42 168.07 C 18.70 196.30 39.81 220.26 66.30 234.29 C 70.49 237.25 75.58 238.51 80.08 240.91 C 88.66 243.40 97.08 246.91 106.11 247.41 C 118.29 249.26 130.78 249.15 142.96 247.36 C 150.07 246.79 156.95 244.73 163.62 242.29 C 167.04 242.25 170.03 240.47 173.07 239.14 C 203.16 226.48 227.73 201.30 239.55 170.86 C 241.61 164.67 244.36 158.66 245.15 152.13 C 247.11 144.21 247.67 136.08 248.37 128.00 C 248.38 115.91 246.51 103.89 243.73 92.14 C 241.31 85.37 239.33 78.38 235.92 72.01 C 224.65 47.89 204.84 28.14 181.23 15.99 C 165.29 7.83 147.64 2.45 129.63 2.27 C 115.92 2.25 101.95 2.83 88.89 7.41 Z" />
<path fill="#fffffe" opacity="1.00" d=" M 142.41 40.51 C 146.06 31.40 155.13 24.69 165.01 24.52 C 170.20 24.01 174.62 27.18 179.00 29.45 C 183.09 31.51 184.86 35.98 187.09 39.69 C 189.14 42.72 188.28 46.51 188.45 49.94 C 188.86 53.71 186.37 56.78 184.70 59.91 C 184.23 61.01 183.28 61.84 182.01 61.47 C 179.61 60.00 177.96 56.66 174.70 57.34 C 172.08 59.14 169.44 61.01 167.19 63.27 C 165.50 68.81 164.54 74.65 164.22 80.45 C 163.79 86.90 162.05 93.18 161.56 99.62 C 160.71 105.41 159.61 111.17 159.03 117.00 C 157.97 128.89 155.40 140.59 154.18 152.45 C 153.89 154.34 153.54 156.22 153.26 158.11 C 148.24 158.18 143.23 158.17 138.22 158.19 C 138.68 147.95 141.11 137.95 141.95 127.78 C 131.87 128.02 121.70 127.19 111.68 128.24 C 109.63 142.02 107.56 155.80 104.93 169.50 C 103.69 182.00 100.42 194.20 99.12 206.69 C 94.00 205.39 89.42 202.62 84.46 200.87 C 85.16 189.15 88.54 177.75 89.54 166.05 C 91.22 154.34 93.84 142.78 95.02 131.00 C 97.62 116.84 99.70 102.60 101.71 88.35 C 107.02 88.14 112.34 88.18 117.64 88.33 C 116.32 96.27 114.69 104.20 114.31 112.26 C 114.30 112.62 114.28 113.35 114.27 113.71 C 124.15 113.67 134.04 113.72 143.92 113.77 C 144.38 109.33 144.92 104.91 145.69 100.52 C 146.89 95.19 147.35 89.74 148.15 84.34 C 149.33 79.66 149.12 74.79 149.85 70.04 C 150.40 65.96 151.10 61.77 150.41 57.67 C 149.07 54.89 146.87 52.62 145.65 49.78 C 145.89 47.71 146.49 45.70 146.96 43.68 C 145.48 42.57 143.96 41.51 142.41 40.51 Z" />
</g>
<g id="#f9c85cff">
<path fill="#f9c85c" opacity="1.00" d=" M 88.89 7.41 C 101.95 2.83 115.92 2.25 129.63 2.27 C 129.37 3.72 129.12 5.17 128.86 6.63 C 122.23 7.10 115.55 6.06 108.95 7.09 C 101.71 8.27 94.31 8.87 87.35 11.35 C 82.75 12.81 78.01 15.69 73.11 13.65 C 77.93 10.62 83.42 8.85 88.89 7.41 Z" />
<path fill="#f9c85c" opacity="1.00" d=" M 98.75 11.45 C 107.31 9.11 116.11 6.87 125.05 7.37 C 129.88 7.74 134.70 6.34 139.51 7.29 C 136.43 9.21 132.78 10.46 130.39 13.31 C 125.50 18.97 122.53 25.95 120.01 32.91 C 118.97 35.64 119.67 38.57 120.25 41.32 C 118.00 42.92 115.23 44.77 115.48 47.93 C 115.89 54.41 117.74 61.04 121.79 66.23 C 125.64 71.35 130.03 76.52 136.07 79.06 C 140.24 80.92 143.87 77.18 147.36 75.46 C 147.51 78.43 147.82 81.39 148.15 84.34 C 147.35 89.74 146.89 95.19 145.69 100.52 C 145.35 99.12 144.95 97.74 144.58 96.35 C 141.58 102.62 138.16 109.96 130.94 112.13 C 125.46 113.08 119.83 112.54 114.31 112.26 C 114.69 104.20 116.32 96.27 117.64 88.33 C 112.34 88.18 107.02 88.14 101.71 88.35 C 99.70 102.60 97.62 116.84 95.02 131.00 C 93.84 142.78 91.22 154.34 89.54 166.05 C 88.54 177.75 85.16 189.15 84.46 200.87 C 89.42 202.62 94.00 205.39 99.12 206.69 C 100.42 194.20 103.69 182.00 104.93 169.50 C 107.56 155.80 109.63 142.02 111.68 128.24 C 121.70 127.19 131.87 128.02 141.95 127.78 C 141.11 137.95 138.68 147.95 138.22 158.19 C 143.23 158.17 148.24 158.18 153.26 158.11 C 153.54 156.22 153.89 154.34 154.18 152.45 C 154.17 155.66 154.86 158.79 156.75 161.42 C 154.55 163.03 152.40 164.69 150.23 166.32 C 151.56 168.38 153.75 170.26 153.52 172.94 C 153.46 177.65 154.44 182.34 153.84 187.04 C 153.28 191.66 154.72 196.55 152.95 200.98 C 150.90 203.73 147.48 204.87 144.71 206.73 C 149.56 207.10 154.04 205.17 158.55 203.72 C 159.48 206.45 159.77 209.35 158.83 212.13 C 159.97 212.64 161.11 213.14 162.25 213.68 C 158.31 214.12 153.83 214.83 151.35 218.31 C 148.75 221.69 149.70 226.61 152.53 229.55 C 154.88 233.08 159.55 231.77 163.12 232.20 C 161.94 233.21 160.88 234.35 159.84 235.51 C 166.91 236.15 173.06 229.08 180.05 231.84 C 176.42 234.30 172.44 236.20 168.29 237.62 C 169.00 237.79 170.43 238.15 171.14 238.33 C 168.62 239.63 166.14 240.99 163.62 242.29 C 156.95 244.73 150.07 246.79 142.96 247.36 C 130.78 249.15 118.29 249.26 106.11 247.41 C 97.08 246.91 88.66 243.40 80.08 240.91 C 75.58 238.51 70.49 237.25 66.30 234.29 C 67.70 234.15 69.13 233.57 70.54 233.88 C 80.21 237.13 89.84 242.21 100.32 241.59 C 95.21 238.47 89.18 237.53 83.81 234.98 C 80.29 233.28 76.50 232.00 73.30 229.71 C 70.98 227.84 71.71 224.58 71.57 222.00 C 71.50 212.66 71.94 203.28 71.41 193.96 C 69.67 191.02 66.87 188.95 64.51 186.54 C 49.56 172.01 40.46 151.82 38.96 131.07 C 37.68 111.36 43.58 91.27 55.20 75.31 C 57.99 71.43 60.93 67.55 64.82 64.69 C 64.49 66.70 64.42 69.08 62.39 70.20 C 53.72 76.27 49.99 86.48 45.32 95.51 C 42.05 104.66 39.89 114.27 39.55 124.00 C 39.44 149.33 50.92 175.31 72.11 189.86 C 73.87 191.13 76.69 192.68 78.39 190.47 C 80.45 186.90 79.05 182.54 79.71 178.64 C 81.13 168.78 82.22 158.87 83.95 149.06 C 84.67 145.45 84.29 141.78 84.59 138.14 C 85.58 131.13 86.71 124.09 86.97 117.00 C 85.69 109.12 88.72 101.30 87.16 93.39 C 87.54 93.69 88.32 94.29 88.70 94.59 C 89.37 91.46 89.58 88.26 89.50 85.06 C 89.38 75.35 89.63 65.63 89.42 55.92 C 89.63 53.94 87.93 52.38 85.99 52.62 C 78.14 54.30 72.71 60.72 65.65 64.03 C 67.92 61.17 70.63 58.71 73.52 56.50 C 73.55 54.57 73.59 52.64 73.58 50.72 C 80.27 51.30 87.05 46.60 88.47 39.98 C 88.81 35.91 86.00 32.39 83.36 29.60 C 80.86 26.55 76.62 27.67 73.18 27.37 C 73.86 23.29 76.14 19.00 80.26 17.57 C 86.29 15.16 92.39 12.83 98.75 11.45 M 84.92 23.61 C 82.07 24.16 83.30 27.86 84.92 29.13 C 86.94 28.38 88.91 27.52 90.82 26.51 C 93.05 30.84 93.69 35.77 95.79 40.14 C 97.05 41.88 99.38 39.97 100.74 39.28 C 99.62 34.29 96.86 29.76 96.26 24.66 C 98.23 23.94 100.14 23.06 101.97 22.03 C 101.52 20.68 100.93 19.39 100.25 18.15 C 95.05 19.73 90.19 22.25 84.92 23.61 M 114.29 22.40 C 112.56 23.04 110.87 25.12 111.90 27.00 C 112.87 30.40 119.18 29.73 118.93 26.03 C 119.52 23.51 116.43 21.96 114.29 22.40 M 132.17 221.20 C 132.35 222.21 132.55 223.22 132.74 224.24 C 134.57 224.04 136.40 223.85 138.22 223.62 C 139.59 227.91 139.89 232.47 141.24 236.78 C 142.40 236.71 143.57 236.65 144.73 236.59 C 144.54 231.81 143.19 227.17 142.98 222.40 C 144.90 222.15 146.80 221.79 148.68 221.30 C 148.47 220.52 148.05 218.95 147.83 218.17 C 142.56 218.87 137.28 219.70 132.17 221.20 M 120.22 226.31 C 118.05 227.82 118.49 232.02 121.22 232.71 C 123.56 234.07 127.01 231.58 126.53 228.92 C 126.35 225.98 122.49 224.47 120.22 226.31 Z" />
<path fill="#f9c85c" opacity="1.00" d=" M 164.22 80.45 C 173.21 81.06 181.35 75.21 186.17 68.01 C 190.83 71.04 194.10 75.76 197.07 80.37 C 196.62 80.43 195.71 80.55 195.26 80.61 C 190.63 87.76 183.74 93.11 176.40 97.26 C 172.33 99.15 166.50 99.77 163.52 95.65 C 162.86 96.97 162.19 98.28 161.56 99.62 C 162.05 93.18 163.79 86.90 164.22 80.45 Z" />
<path fill="#f9c85c" opacity="1.00" d=" M 157.15 218.21 C 159.67 216.99 163.30 218.20 164.01 221.05 C 164.60 223.44 164.72 226.93 161.85 227.84 C 158.53 229.98 153.57 226.88 153.98 222.99 C 153.78 220.87 155.36 219.08 157.15 218.21 Z" />
</g>
<g id="#fddb91ff">
<path fill="#fddb91" opacity="1.00" d=" M 129.63 2.27 C 147.64 2.45 165.29 7.83 181.23 15.99 C 204.84 28.14 224.65 47.89 235.92 72.01 C 239.33 78.38 241.31 85.37 243.73 92.14 C 246.51 103.89 248.38 115.91 248.37 128.00 C 247.67 136.08 247.11 144.21 245.15 152.13 C 244.36 158.66 241.61 164.67 239.55 170.86 C 227.73 201.30 203.16 226.48 173.07 239.14 C 170.03 240.47 167.04 242.25 163.62 242.29 C 166.14 240.99 168.62 239.63 171.14 238.33 C 170.43 238.15 169.00 237.79 168.29 237.62 C 172.44 236.20 176.42 234.30 180.05 231.84 C 173.06 229.08 166.91 236.15 159.84 235.51 C 160.88 234.35 161.94 233.21 163.12 232.20 C 165.67 230.33 168.39 228.23 169.30 225.04 C 169.89 220.17 166.69 215.50 162.25 213.68 C 161.11 213.14 159.97 212.64 158.83 212.13 C 159.77 209.35 159.48 206.45 158.55 203.72 C 159.55 203.40 160.54 203.06 161.53 202.68 C 187.15 190.57 205.79 164.98 209.46 136.88 C 209.97 128.82 210.04 120.70 209.30 112.65 C 207.48 101.19 203.24 90.18 197.07 80.37 C 194.10 75.76 190.83 71.04 186.17 68.01 C 181.35 75.21 173.21 81.06 164.22 80.45 C 164.54 74.65 165.50 68.81 167.19 63.27 C 169.44 61.01 172.08 59.14 174.70 57.34 C 177.96 56.66 179.61 60.00 182.01 61.47 C 183.28 61.84 184.23 61.01 184.70 59.91 C 186.37 56.78 188.86 53.71 188.45 49.94 C 188.28 46.51 189.14 42.72 187.09 39.69 C 184.86 35.98 183.09 31.51 179.00 29.45 C 174.62 27.18 170.20 24.01 165.01 24.52 C 155.13 24.69 146.06 31.40 142.41 40.51 C 143.96 41.51 145.48 42.57 146.96 43.68 C 146.49 45.70 145.89 47.71 145.65 49.78 C 146.87 52.62 149.07 54.89 150.41 57.67 C 151.10 61.77 150.40 65.96 149.85 70.04 C 149.12 74.79 149.33 79.66 148.15 84.34 C 147.82 81.39 147.51 78.43 147.36 75.46 C 143.87 77.18 140.24 80.92 136.07 79.06 C 130.03 76.52 125.64 71.35 121.79 66.23 C 117.74 61.04 115.89 54.41 115.48 47.93 C 115.23 44.77 118.00 42.92 120.25 41.32 C 119.67 38.57 118.97 35.64 120.01 32.91 C 122.53 25.95 125.50 18.97 130.39 13.31 C 132.78 10.46 136.43 9.21 139.51 7.29 C 140.19 7.37 141.56 7.52 142.24 7.60 C 137.92 6.17 133.33 6.48 128.86 6.63 C 129.12 5.17 129.37 3.72 129.63 2.27 M 215.15 170.09 C 211.00 171.47 212.67 178.38 216.96 177.38 C 222.05 177.21 219.97 167.81 215.15 170.09 M 202.06 179.34 C 201.23 180.46 200.45 181.61 199.73 182.80 C 202.43 185.20 205.30 187.40 208.09 189.70 C 203.67 189.28 199.37 188.13 194.98 187.53 C 194.19 189.12 191.93 190.46 192.36 192.39 C 195.86 196.17 200.16 199.10 203.99 202.53 C 205.79 203.43 206.61 200.93 207.68 200.02 C 204.77 197.61 201.86 195.19 199.12 192.59 C 203.48 193.10 207.81 193.87 212.14 194.61 C 213.29 193.22 215.90 191.59 214.46 189.53 C 210.22 186.26 206.36 182.53 202.06 179.34 M 180.58 201.61 C 179.41 202.53 180.57 203.88 181.21 204.70 C 184.41 208.45 187.74 212.10 190.91 215.87 C 194.55 212.60 198.43 209.58 201.85 206.06 C 200.93 205.12 200.02 204.18 199.10 203.24 C 196.68 205.42 194.28 207.62 191.87 209.83 C 191.01 209.27 190.19 208.63 190.19 207.50 C 192.33 205.62 194.35 203.62 196.47 201.71 C 195.74 200.53 194.97 198.68 193.22 199.32 C 190.99 200.95 189.09 202.98 187.00 204.78 C 186.74 204.30 186.21 203.34 185.95 202.86 C 188.11 200.47 190.51 198.32 192.82 196.08 C 191.89 195.09 190.96 194.11 190.03 193.12 C 187.09 196.19 183.42 198.45 180.58 201.61 M 173.28 214.10 C 171.53 212.79 171.07 210.12 169.03 209.30 C 168.27 209.66 166.76 210.38 166.01 210.74 C 167.89 216.39 171.98 220.96 174.83 226.14 C 176.10 225.49 177.38 224.84 178.66 224.20 C 178.10 221.61 175.79 219.86 175.01 217.34 C 177.99 218.50 180.96 219.71 184.03 220.61 C 185.64 219.45 188.09 218.95 188.77 216.87 C 184.81 216.31 181.04 214.97 177.33 213.54 C 178.22 210.12 179.29 206.74 179.62 203.21 C 173.94 203.71 173.14 209.55 173.28 214.10 Z" />
<path fill="#fddb91" opacity="1.00" d=" M 65.65 64.03 C 72.71 60.72 78.14 54.30 85.99 52.62 C 87.93 52.38 89.63 53.94 89.42 55.92 C 89.63 65.63 89.38 75.35 89.50 85.06 C 89.58 88.26 89.37 91.46 88.70 94.59 C 88.32 94.29 87.54 93.69 87.16 93.39 C 88.72 101.30 85.69 109.12 86.97 117.00 C 86.71 124.09 85.58 131.13 84.59 138.14 C 84.29 141.78 84.67 145.45 83.95 149.06 C 82.22 158.87 81.13 168.78 79.71 178.64 C 79.05 182.54 80.45 186.90 78.39 190.47 C 76.69 192.68 73.87 191.13 72.11 189.86 C 50.92 175.31 39.44 149.33 39.55 124.00 C 39.89 114.27 42.05 104.66 45.32 95.51 C 49.99 86.48 53.72 76.27 62.39 70.20 C 64.42 69.08 64.49 66.70 64.82 64.69 C 65.03 64.52 65.44 64.19 65.65 64.03 Z" />
</g>
<g id="#fbbb2aff">
<path fill="#fbbb2a" opacity="1.00" d=" M 108.95 7.09 C 115.55 6.06 122.23 7.10 128.86 6.63 C 133.33 6.48 137.92 6.17 142.24 7.60 C 141.56 7.52 140.19 7.37 139.51 7.29 C 134.70 6.34 129.88 7.74 125.05 7.37 C 116.11 6.87 107.31 9.11 98.75 11.45 C 92.39 12.83 86.29 15.16 80.26 17.57 C 76.14 19.00 73.86 23.29 73.18 27.37 C 76.62 27.67 80.86 26.55 83.36 29.60 C 86.00 32.39 88.81 35.91 88.47 39.98 C 87.05 46.60 80.27 51.30 73.58 50.72 C 73.59 52.64 73.55 54.57 73.52 56.50 C 70.63 58.71 67.92 61.17 65.65 64.03 C 65.44 64.19 65.03 64.52 64.82 64.69 C 60.93 67.55 57.99 71.43 55.20 75.31 C 43.58 91.27 37.68 111.36 38.96 131.07 C 40.46 151.82 49.56 172.01 64.51 186.54 C 66.87 188.95 69.67 191.02 71.41 193.96 C 71.94 203.28 71.50 212.66 71.57 222.00 C 71.71 224.58 70.98 227.84 73.30 229.71 C 76.50 232.00 80.29 233.28 83.81 234.98 C 89.18 237.53 95.21 238.47 100.32 241.59 C 89.84 242.21 80.21 237.13 70.54 233.88 C 69.13 233.57 67.70 234.15 66.30 234.29 C 39.81 220.26 18.70 196.30 8.42 168.07 C 6.28 161.37 3.60 154.75 3.00 147.67 C 0.56 136.26 1.00 124.52 1.49 112.95 C 2.80 104.46 3.64 95.81 6.83 87.76 C 11.74 72.01 20.12 57.40 30.92 44.95 C 42.12 31.63 56.63 21.48 72.08 13.66 C 72.34 13.65 72.85 13.65 73.11 13.65 C 78.01 15.69 82.75 12.81 87.35 11.35 C 94.31 8.87 101.71 8.27 108.95 7.09 Z" />
<path fill="#fbbb2a" opacity="1.00" d=" M 84.92 23.61 C 90.19 22.25 95.05 19.73 100.25 18.15 C 100.93 19.39 101.52 20.68 101.97 22.03 C 100.14 23.06 98.23 23.94 96.26 24.66 C 96.86 29.76 99.62 34.29 100.74 39.28 C 99.38 39.97 97.05 41.88 95.79 40.14 C 93.69 35.77 93.05 30.84 90.82 26.51 C 88.91 27.52 86.94 28.38 84.92 29.13 C 83.30 27.86 82.07 24.16 84.92 23.61 Z" />
<path fill="#fbbb2a" opacity="1.00" d=" M 114.29 22.40 C 116.43 21.96 119.52 23.51 118.93 26.03 C 119.18 29.73 112.87 30.40 111.90 27.00 C 110.87 25.12 112.56 23.04 114.29 22.40 Z" />
<path fill="#fbbb2a" opacity="1.00" d=" M 195.26 80.61 C 195.71 80.55 196.62 80.43 197.07 80.37 C 203.24 90.18 207.48 101.19 209.30 112.65 C 210.04 120.70 209.97 128.82 209.46 136.88 C 205.79 164.98 187.15 190.57 161.53 202.68 C 160.54 203.06 159.55 203.40 158.55 203.72 C 154.04 205.17 149.56 207.10 144.71 206.73 C 147.48 204.87 150.90 203.73 152.95 200.98 C 154.72 196.55 153.28 191.66 153.84 187.04 C 154.44 182.34 153.46 177.65 153.52 172.94 C 153.75 170.26 151.56 168.38 150.23 166.32 C 152.40 164.69 154.55 163.03 156.75 161.42 C 154.86 158.79 154.17 155.66 154.18 152.45 C 155.40 140.59 157.97 128.89 159.03 117.00 C 159.61 111.17 160.71 105.41 161.56 99.62 C 162.19 98.28 162.86 96.97 163.52 95.65 C 166.50 99.77 172.33 99.15 176.40 97.26 C 183.74 93.11 190.63 87.76 195.26 80.61 Z" />
<path fill="#fbbb2a" opacity="1.00" d=" M 130.94 112.13 C 138.16 109.96 141.58 102.62 144.58 96.35 C 144.95 97.74 145.35 99.12 145.69 100.52 C 144.92 104.91 144.38 109.33 143.92 113.77 C 134.04 113.72 124.15 113.67 114.27 113.71 C 114.28 113.35 114.30 112.62 114.31 112.26 C 119.83 112.54 125.46 113.08 130.94 112.13 Z" />
<path fill="#fbbb2a" opacity="1.00" d=" M 215.15 170.09 C 219.97 167.81 222.05 177.21 216.96 177.38 C 212.67 178.38 211.00 171.47 215.15 170.09 Z" />
<path fill="#fbbb2a" opacity="1.00" d=" M 202.06 179.34 C 206.36 182.53 210.22 186.26 214.46 189.53 C 215.90 191.59 213.29 193.22 212.14 194.61 C 207.81 193.87 203.48 193.10 199.12 192.59 C 201.86 195.19 204.77 197.61 207.68 200.02 C 206.61 200.93 205.79 203.43 203.99 202.53 C 200.16 199.10 195.86 196.17 192.36 192.39 C 191.93 190.46 194.19 189.12 194.98 187.53 C 199.37 188.13 203.67 189.28 208.09 189.70 C 205.30 187.40 202.43 185.20 199.73 182.80 C 200.45 181.61 201.23 180.46 202.06 179.34 Z" />
<path fill="#fbbb2a" opacity="1.00" d=" M 180.58 201.61 C 183.42 198.45 187.09 196.19 190.03 193.12 C 190.96 194.11 191.89 195.09 192.82 196.08 C 190.51 198.32 188.11 200.47 185.95 202.86 C 186.21 203.34 186.74 204.30 187.00 204.78 C 189.09 202.98 190.99 200.95 193.22 199.32 C 194.97 198.68 195.74 200.53 196.47 201.71 C 194.35 203.62 192.33 205.62 190.19 207.50 C 190.19 208.63 191.01 209.27 191.87 209.83 C 194.28 207.62 196.68 205.42 199.10 203.24 C 200.02 204.18 200.93 205.12 201.85 206.06 C 198.43 209.58 194.55 212.60 190.91 215.87 C 187.74 212.10 184.41 208.45 181.21 204.70 C 180.57 203.88 179.41 202.53 180.58 201.61 Z" />
<path fill="#fbbb2a" opacity="1.00" d=" M 173.28 214.10 C 173.14 209.55 173.94 203.71 179.62 203.21 C 179.29 206.74 178.22 210.12 177.33 213.54 C 181.04 214.97 184.81 216.31 188.77 216.87 C 188.09 218.95 185.64 219.45 184.03 220.61 C 180.96 219.71 177.99 218.50 175.01 217.34 C 175.79 219.86 178.10 221.61 178.66 224.20 C 177.38 224.84 176.10 225.49 174.83 226.14 C 171.98 220.96 167.89 216.39 166.01 210.74 C 166.76 210.38 168.27 209.66 169.03 209.30 C 171.07 210.12 171.53 212.79 173.28 214.10 Z" />
<path fill="#fbbb2a" opacity="1.00" d=" M 151.35 218.31 C 153.83 214.83 158.31 214.12 162.25 213.68 C 166.69 215.50 169.89 220.17 169.30 225.04 C 168.39 228.23 165.67 230.33 163.12 232.20 C 159.55 231.77 154.88 233.08 152.53 229.55 C 149.70 226.61 148.75 221.69 151.35 218.31 M 157.15 218.21 C 155.36 219.08 153.78 220.87 153.98 222.99 C 153.57 226.88 158.53 229.98 161.85 227.84 C 164.72 226.93 164.60 223.44 164.01 221.05 C 163.30 218.20 159.67 216.99 157.15 218.21 Z" />
<path fill="#fbbb2a" opacity="1.00" d=" M 132.17 221.20 C 137.28 219.70 142.56 218.87 147.83 218.17 C 148.05 218.95 148.47 220.52 148.68 221.30 C 146.80 221.79 144.90 222.15 142.98 222.40 C 143.19 227.17 144.54 231.81 144.73 236.59 C 143.57 236.65 142.40 236.71 141.24 236.78 C 139.89 232.47 139.59 227.91 138.22 223.62 C 136.40 223.85 134.57 224.04 132.74 224.24 C 132.55 223.22 132.35 222.21 132.17 221.20 Z" />
<path fill="#fbbb2a" opacity="1.00" d=" M 120.22 226.31 C 122.49 224.47 126.35 225.98 126.53 228.92 C 127.01 231.58 123.56 234.07 121.22 232.71 C 118.49 232.02 118.05 227.82 120.22 226.31 Z" />
</g>
</svg>
