<?xml version="1.0" encoding="utf-8"?>
<!-- Generator: Adobe Illustrator 26.0.3, SVG Export Plug-In . SVG Version: 6.00 Build 0)  -->
<svg version="1.1" id="Layer_1" xmlns="http://www.w3.org/2000/svg" xmlns:xlink="http://www.w3.org/1999/xlink" x="0px" y="0px"
	 viewBox="0 0 250 250" style="enable-background:new 0 0 250 250;" xml:space="preserve">
<style type="text/css">
	.st0{fill:#959595;}
	.st1{fill:#D1D1D1;}
	.st2{fill:#979797;}
	.st3{fill:#25292D;}
	.st4{fill:#E2E2E3;}
	.st5{fill:#345062;}
	.st6{fill:#FF941D;}
	.st7{fill:#C1C0BE;}
	.st8{fill:#FFA75E;}
	.st9{fill:#2C312D;}
	.st10{fill:#A9A9AA;}
	.st11{fill:#9C874D;}
	.st12{fill:#2F393C;}
	.st13{fill:#FFD2AD;}
	.st14{fill:#FFA66D;}
	.st15{fill:#FDC49B;}
	.st16{fill:#B2B2B2;}
	.st17{fill:#B1B1B1;}
	.st18{fill:#5EBFD1;}
	.st19{fill:#8D8D8C;}
	.st20{fill:#774E50;}
	.st21{fill:#50AABD;}
	.st22{fill:#771716;}
	.st23{fill:#A08D69;}
	.st24{fill:#A39494;}
	.st25{fill:#FF6F0F;}
	.st26{fill:#7B4545;}
	.st27{fill:#827F7E;}
	.st28{fill:#D2271D;}
	.st29{fill:#D8D6D0;}
	.st30{fill:#8C5653;}
	.st31{fill:#FED085;}
	.st32{fill:#DDA27C;}
	.st33{fill:#7A4B4B;}
	.st34{fill:#828080;}
	.st35{fill:#9E9F9F;}
	.st36{fill:#FF7516;}
	.st37{fill:#FFBA94;}
	.st38{fill:#7F7B74;}
	.st39{fill:#858586;}
	.st40{fill:#355162;}
	.st41{fill:#CDC9C5;}
	.st42{fill:#FFC29A;}
	.st43{fill:#838281;}
	.st44{fill:#3DB2C6;}
	.st45{fill:#928D83;}
	.st46{fill:#CDCAC3;}
	.st47{fill:#FFBC86;}
	.st48{fill:#FFB392;}
	.st49{fill:#1AA5BF;}
	.st50{fill:#263742;}
	.st51{fill:#E3DFD7;}
	.st52{fill:#FFA16E;}
	.st53{fill:#E4E2DF;}
	.st54{fill:#9C988F;}
	.st55{fill:#A2A2A1;}
	.st56{fill:#1D2931;}
	.st57{fill:#2A383E;}
	.st58{fill:#E0DED9;}
	.st59{fill:#BAB7AF;}
	.st60{fill:#EBE9E5;}
	.st61{fill:#E5E1DC;}
	.st62{fill:#72706E;}
	.st63{fill:#30ADC5;}
	.st64{fill:#858381;}
	.st65{fill:#F8F7F7;}
	.st66{fill:#283933;}
	.st67{fill:#949797;}
	.st68{fill:#F1941A;}
	.st69{fill:#0E9BB5;}
	.st70{fill:#A6A6A7;}
	.st71{fill:#85580B;}
	.st72{fill:#2DABBD;}
	.st73{fill:#D8D9DA;}
	.st74{fill:#8B8989;}
	.st75{fill:#57BCCB;}
	.st76{fill:#7D7B7B;}
	.st77{fill:#FAB435;}
	.st78{fill:#D2D3D4;}
	.st79{fill:#A7ADB7;}
	.st80{fill:#D1D3D4;}
	.st81{fill:#989BA3;}
	.st82{fill:#29373D;}
	.st83{fill:#EA801B;}
	.st84{fill:#806D4D;}
	.st85{fill:#786640;}
	.st86{fill:#D4A02E;}
	.st87{fill:#B4ABAA;}
	.st88{fill:#1E8497;}
	.st89{fill:#A39B9A;}
	.st90{fill:#9D9291;}
	.st91{fill:#726446;}
	.st92{fill:#B9B9BA;}
	.st93{fill:#B2B3B5;}
	.st94{fill:#8D8280;}
	.st95{fill:#FFF2DB;}
	.st96{fill:#FFF2DA;}
	.st97{fill:#777574;}
	.st98{fill:#F8C25F;}
	.st99{fill:#BDBAB9;}
	.st100{fill:#8C8C8C;}
	.st101{fill:#271F11;}
	.st102{fill:#352A17;}
	.st103{fill:#325A70;}
	.st104{fill:#303A3F;}
	.st105{fill:#FDD589;}
	.st106{fill:#96804D;}
	.st107{fill:#C1C0C0;}
	.st108{fill:#8F8A89;}
	.st109{fill:#AEAEAD;}
	.st110{fill:#928C7D;}
	.st111{fill:#F9F8F7;}
	.st112{fill:#ACABAB;}
	.st113{fill:#171717;}
	.st114{fill:#A1A1A1;}
	.st115{fill:#ABABAB;}
	.st116{fill:#9F9E9E;}
	.st117{fill:#5F5542;}
	.st118{fill:#686868;}
	.st119{fill:#75603C;}
	.st120{fill:#9B701C;}
	.st121{fill:#C8C8C9;}
	.st122{fill:#FCB22C;}
	.st123{fill:#F5AB24;}
	.st124{fill:#FAF7F2;}
	.st125{fill:#F0D090;}
	.st126{fill:#7B7B7B;}
	.st127{fill:#98999A;}
	.st128{fill:#28353D;}
	.st129{fill:#A7A7A6;}
	.st130{fill:#ECB649;}
	.st131{fill:#FDC155;}
	.st132{fill:#6A562F;}
	.st133{fill:#FCC766;}
	.st134{fill:#EEB43F;}
	.st135{fill:#595959;}
	.st136{fill:#DADCDD;}
	.st137{fill:#A7A7A7;}
	.st138{fill:#DEDFDF;}
	.st139{fill:#F4D69E;}
	.st140{fill:#938A79;}
	.st141{fill:#8B7F67;}
	.st142{fill:#F4CE86;}
	.st143{fill:#AAAAAA;}
	.st144{fill:#E4E4E5;}
	.st145{fill:#27333B;}
	.st146{fill:#666767;}
	.st147{fill:#654914;}
	.st148{fill:#F9B736;}
	.st149{fill:#ECEEF1;}
	.st150{fill:#8D8E8E;}
	.st151{fill:#EDEFF3;}
	.st152{fill:#FACEAE;}
	.st153{fill:#F46D13;}
	.st154{fill:#FEC36F;}
	.st155{fill:#F7771C;}
	.st156{fill:#FDD2B3;}
	.st157{fill:#F97D20;}
	.st158{fill:#FECA98;}
	.st159{fill:#FA7A1E;}
	.st160{fill:#FECD86;}
	.st161{fill:#FBAF86;}
	.st162{fill:#F97A1D;}
	.st163{fill:#F7A265;}
	.st164{fill:#F8BF9A;}
	.st165{fill:#FE971D;}
	.st166{fill:#FFC399;}
	.st167{fill:#FDB493;}
	.st168{fill:#FECF90;}
	.st169{fill:#F9A271;}
	.st170{fill:#F5781D;}
	.st171{fill:#FA761B;}
	.st172{fill:#FEB361;}
	.st173{fill:#FEC886;}
	.st174{fill:#FFB490;}
	.st175{fill:#FE981A;}
	.st176{fill:#F9BA91;}
	.st177{fill:#FCC6A1;}
	.st178{fill:#FE9B1F;}
	.st179{fill:#FFF7F2;}
	.st180{fill:#FFBE8F;}
	.st181{fill:#FED095;}
	.st182{fill:#FD9D6C;}
	.st183{fill:#F9C6A3;}
	.st184{fill:#FCBA99;}
	.st185{fill:#F5A66D;}
	.st186{fill:#F9B889;}
	.st187{fill:#FEE3CE;}
	.st188{fill:#FFC38F;}
	.st189{fill:#FCBC97;}
	.st190{fill:#FEC3A3;}
	.st191{fill:#F59857;}
	.st192{fill:#FFA464;}
	.st193{fill:#FDBE9F;}
	.st194{fill:#FBBB8F;}
	.st195{fill:#FEBA65;}
	.st196{fill:#F7B07D;}
	.st197{fill:#FBCEAE;}
	.st198{fill:#FCC8A2;}
	.st199{fill:#FCBF92;}
	.st200{fill:#FDAC73;}
</style>
<g id="_x23_959595ff">
	<path class="st0" d="M90.2,27.3c-3.2-7,6.4-8.5,7.7-2.1c-0.4-0.1-1-0.3-1.4-0.4c-2.9-3.5-8.8-0.8-3.4,1.5
		C92.2,26.8,91.2,27.1,90.2,27.3z"/>
</g>
<g id="_x23_d1d1d1ff">
	<path class="st1" d="M93.2,26.4c-5.5-2.2,0.4-5,3.4-1.5C95.4,25.5,94.3,26,93.2,26.4z"/>
</g>
<g id="_x23_979797ff">
	<path class="st2" d="M81.8,29c-1.1-6.6,5.7-5.4,8.4-1.7c-1,0.3-2,0.6-3,0.8c-0.8-5.5-6,1.1,0,0c-4.2,1.2-8.4,2.6-12.1,4.9
		C74.8,28.2,77.7,27.4,81.8,29z"/>
	<path class="st2" d="M75.3,153c-0.1-1.9,4.4-1.9,4.4-0.1C78.3,153.1,76.8,153.1,75.3,153z"/>
</g>
<g id="_x23_25292dff">
	<path class="st3" d="M96.5,24.9c0.3,0.1,1,0.3,1.4,0.4c2.6,1.6,4.6,4.4,7.8,5c2.8,0.4,5.6,0.6,8.3,0.8c5.3,5.7,19.9,5.8,17.7,16.7
		c-0.4,3.3-0.8,6.7-0.9,10c-0.3,0.3-0.8,0.8-1,1.1c-4.3-0.9-8.8-2.1-12.7,0.4c-3.6-0.7-6.8-2.5-9.8-4.5c-2.1-1.8-5.1-4-7.7-1.6
		c-2.1,1-2.7,3.4-3.7,5.2c-0.8-1.7-0.4-4.7-3-4.6c-1,3-0.3,5.1,2.1,6.5c0.9,0.6,1.8,1.1,2.7,1.7c1.8,2.3,2.2,6.3,5.3,7.1
		c2.5,0.9,5.2,0.5,7.8,0.6c3.1,3.8-7.5-0.8-4.6,3.9c4.4,1.5,8.9,3,13.6,3.6c0.8,2.5,3,2.9,5.4,2.6c1.8,0.3,3.6,0.7,5.4,1.3
		c0.3,0.4,0.8,1.2,1,1.6c0.9,1.6,2.5,2.6,4,3.6c0.5,1.6,1.1,3.2,2,4.7c0.8,1.4,1.6,2.8,2.4,4.2c0.9,1.8,1.9,3.7,3.7,4.7
		c1,0.6,2,1,3.1,1.4c1,0.4,1.9,0.7,2.9,1c1,0.5,2,1,3,1.4c1.4,0.7,2.9,1.1,4.4,1.4c1.2,0.3,2.3,0.6,3.5,0.8l1,0.2
		c2.7,0.4,5.4,0.9,8.1,0.8c1.5,0,2.9,0,4.4-0.1c2.2-0.2,4.3-0.1,6.5-0.2c2.9,0,5.8,0.4,8.6-0.4c1.9-0.2,3.7-0.2,5.6-0.2
		c0.3,0.3,0.9,0.9,1.2,1.2c0.9,1.2,2.4,0.8,3.7,0.7c5.6,2,10.2,6.6,12.1,12.3c0,3.2,0.1,6.5,0.1,9.7l-0.9-0.3c0-1.9,0.1-3.8,0-5.6
		c-0.6-6.9-7.1-12.6-13.4-14.7c-18.6-1.3-40.1,3.4-56-8.9c-6.2-6.2-7.1-17.7-17.4-18.7c-4.1-2.4-6.8,2-10.3,3.3
		c-8.8-0.2-14.4-9.1-22.9-10c9.7-4.1,18.3,14,27.2,4.4C107,78.7,100.7,69.5,94.1,62c-5.9-2-0.9-12.3-8.2-11.3
		c1.3-2.2,4.3-2.1,5.9-0.3c3.7,4.1,9.1-2.5,13.3,0.6c6.5,6.3,15.6,4.6,23.9,5.8c0.6-6,3.5-13.8-3.2-17.5
		c-9.5-2.7-20.4-2.9-27.4-10.6c-10.7-0.3-22.1,4.1-29.2,12.6l-0.1-1c0-0.5-0.1-1.5-0.1-2c1.9-1.8,3.9-3.5,6-5.1
		c3.8-2.3,7.9-3.6,12.1-4.9c1-0.3,2-0.5,3-0.8c1-0.3,2-0.6,3-0.9C94.3,26,95.4,25.5,96.5,24.9z"/>
</g>
<g id="_x23_e2e2e3ff">
	<path class="st4" d="M87.2,28.2C86.4,22.7,81.2,29.3,87.2,28.2z"/>
</g>
<g id="_x23_345062ff">
	<path class="st5" d="M69.2,41.2c7.1-8.5,18.4-12.9,29.2-12.6c7,7.8,17.9,7.9,27.4,10.6c6.7,3.7,3.8,11.6,3.2,17.5
		c-8.3-1.3-17.4,0.5-23.9-5.8c-4.2-3.1-9.6,3.5-13.3-0.6c-1.6-1.8-4.6-1.8-5.9,0.3c7.3-0.9,2.3,9.3,8.2,11.3
		c6.6,7.5,13,16.8,24.1,17.4C109.3,89,100.7,70.8,91,75c-4.3-3-9.9-4.8-12.3-9.9c0.1-0.5,0.3-1.5,0.4-2.1c3.5,5.3,8.9,8.7,15.1,10
		c-0.4-3.8-4.4-4.6-7.2-6c-2.4-4.5-8.1-6.7-6-13c-1.9,2.5-2.4,1.5-2.2-1.4c0.7-5.1-3.8,3.6-4.9,4.1c-3.4,3.3-1.2,10.9-6.7,11.5
		c-4.1,0.6-0.6,6.4-1.8,8.8C61,65.1,64.1,52.3,69.2,41.2 M87.8,36c2.5-2.1,7.2-3,9.2,0c-5.8,1-3.8,6.2,1.2,6.3
		c2.1-1.3,4.3-2.4,6.8-2.5C100,37.2,91.2,26.5,87.8,36z"/>
</g>
<g id="_x23_ff941dff">
	<path class="st6" d="M160,39c2.7-4.6,6.6-9.8,12.1-11.1c-2.3,3.4-5.5,6.4-7.1,10.2c-0.7,3.4,2.7,5.4,4,8
		c0.6,6.1-10.3,10.7-3.8,16.2c1.9,1.5,3.8,1.5,5.7,0.2c10.7-3.5,6.8-16.1,14.3-21.9c0.3,4.4,0.6,8.7,0.7,13.1
		c-3.2,4.5-11.4,10.7-6.3,16.6c9.9,4.9,18-7.7,15.6-16.5c5.5,1.6,6.6,10.2,2.3,13.8c-2.9,2.7-6.3,6.6-3.6,10.7l0.2,0.6
		c-3.5,0.2-0.5-8.1-3.6-5.2c-4.9,2-8,5.7-8.7,10.9c-6.7,2.3,0.1,7,1.2,10.5c-6.9-0.2-6.5-9.1-12.4-10.8c-3.8-2.2-8,0.3-5.5,3.8
		c-0.3,0.3-0.9,0.8-1.2,1.1c-7.7-2-5.6-14.5-14.1-16.1c-3.8-1.1-1.1,4.1-1,6c-4.8-3.4-1.9-10.2,4.1-6.4c-2.1-4.6-2.5-9.7-1.2-14.6
		c0.9-3.2-5.3,0-7-1.9C157.2,60.2,155.6,45.8,160,39z"/>
</g>
<g id="_x23_c1c0beff">
	<path class="st7" d="M105.7,30.3c2.5,0.2,7.4-1.7,8.3,0.8C111.2,30.9,108.4,30.7,105.7,30.3z"/>
</g>
<g id="_x23_ffa75eff">
	<path class="st8" d="M181.3,31.2c4.2-0.8-0.5,4.2-2.3,4.9C178.7,34.1,179.5,32.3,181.3,31.2z"/>
</g>
<g id="_x23_2c312dff">
	<path class="st9" d="M87.8,36c3.4-9.5,12.1,1.2,17.3,3.8c-2.5,0.1-4.8,1.2-6.8,2.5c0.5-2.2-0.2-4.4-1.2-6.3
		C95,33,90.3,33.8,87.8,36z"/>
</g>
<g id="_x23_a9a9aaff">
	<path class="st10" d="M69,38.2c0-3.9,1.9-6.3,6-5.1C73,34.7,71,36.4,69,38.2z"/>
</g>
<g id="_x23_9c874dff">
	<path class="st11" d="M98.3,42.2c-5.1-0.1-7.1-5.3-1.2-6.3C98.1,37.9,98.7,40.1,98.3,42.2z"/>
</g>
<g id="_x23_2f393cff">
	<path class="st12" d="M64.2,48.4c1.4-2.7,2-7.6,4.9-8.2l0.1,1c-5.1,11.1-8.1,23.9-3.8,35.9c0.2,0.9,0.4,1.9,0.6,2.8
		c-3.9,8-2.9,17.7-0.2,26.2c-1,4.3-13.2,9.3-6.2,13.8c2-5.9,6.4-9.4,12.2-10.9c-2.1-3.5-7.8-6.8-4.9-11.5c1,10.7,16.2,7.9,16.3,18.7
		c-0.5-0.3-1.4-0.9-1.8-1.2c-0.8-2.8-2.7-6.1-6.1-5.9c-4.2,3.3-10.8,3.6-13.1,8.9c1.9,2.4,3.2,6.3,6.9,6.1c1.4,0.4,3.3,0.3,3.9-1.3
		c2.4-0.6,7.2,1.6,8.1-0.9c0.1-0.5,0.2-1.4,0.3-1.9c0.6-1,1.3-2,2-2.9c2.7-1.1,3-4.4,4.3-6.6c1.5-3.7,8.4-3,8.5-7.3
		c-2.9-2.4-6-4.8-5.3-9.1c3.2,0.2,7.9,3.9,2,2.3c0,3.7,4.3,4.5,6.5,6.7c-5.4,4.9-14,9.5-14.6,17.3c3.2,4.1,2.6-2.5,4.4-4.4
		c2.3,0.8,3.9,3.8,4.5,6.1c-2.3-1.1-4.4-1.7-3.4,1.6l0,1c-0.6,0.3-1.7,0.9-2.3,1.2c-0.4,0-1.1,0.1-1.5,0.1c-0.4-4.1-3.2-5.3-2.5-0.3
		c-7.4-2.8-16.9,3.1-22.2-4.4c-1.1-1.2-1.5,1.7-2.1,2.4c1.4,5,0.2,9.3-4.9,6.2l-0.2-1c-0.5-1.7,0.1-4.6-2.5-4
		c-0.5,2.1,2.2,5.9-0.9,6.4c-1.2-0.9-2.8-1.8-3.1-3.4c-0.1-13.1,0.2-3.3,2.8,1.4c0.8-2.2,2.8-14.5-2.7-9.4
		c0.6-9.6,15.9-7.3,15.3-16.4c-0.2-1.5,0-3.2-1-4.4c-2.2-3.1-1.8-7.7-0.2-11c0.8-3,0.9-6.1,1.3-9.2c0.9-1.1,1.2-2.9,0-3.9
		c-1-0.9-1.4-2-1.3-3.2c0.2-1.3,0.1-2.7-0.6-3.8c-0.7-1.6-0.5-3.4,0-5.1c0.6-1.5,0.7-3.2,0.6-4.9l0.3-1c0.7-1.6,0.8-3.3,0.9-4.9
		C63.9,51,64.2,49.7,64.2,48.4 M57,129.2c1.8-0.9,1.9-9.4,0-9.2C53,119.4,54.4,127.2,57,129.2z"/>
</g>
<g id="_x23_ffd2adff">
	<path class="st13" d="M185.3,40.6c2.8-2.8,2.9,12.5,0.7,13.1C185.9,49.3,185.6,45,185.3,40.6z"/>
</g>
<g id="_x23_ffa66dff">
	<path class="st14" d="M147,41c4.2-0.8,1.4,6.9,2.9,8.3C148.2,46.9,146.5,44.1,147,41z"/>
</g>
<g id="_x23_fdc49bff">
	<path class="st15" d="M190.1,46.9c2.9,1.1,2.9,6.2,0,7.3C189.9,51.7,189.9,49.3,190.1,46.9z"/>
</g>
<g id="_x23_b2b2b2ff">
	<path class="st16" d="M63.3,52.1c-1-1-0.9-4.2,1-3.8C64.2,49.7,63.9,51,63.3,52.1z"/>
</g>
<g id="_x23_b1b1b1ff">
	<path class="st17" d="M130.9,57.8c0.1-3.4,0.5-6.7,0.9-10C130.8,49.9,133.7,57.4,130.9,57.8z"/>
</g>
<g id="_x23_5ebfd1ff">
	<path class="st18" d="M73.8,56.8c1.2-0.5,5.6-9.1,4.9-4.1c-1.1,4-3.1,8.8-0.1,12.4c2.4,5,8,6.9,12.3,9.9c-3.5,2.9-8.9,0.6-11.9,4.2
		c-4,1.4-8.2-0.5-12.3,0.5L66,79.9c-0.2-0.9-0.4-1.9-0.6-2.8c1.1-2.4-2.4-8.2,1.8-8.8C72.7,67.6,70.4,60,73.8,56.8z"/>
</g>
<g id="_x23_8d8d8cff">
	<path class="st19" d="M62.4,57.1c-0.9-1.3-1.2-4.8,0.9-4.9C63.2,53.8,63,55.5,62.4,57.1z"/>
</g>
<g id="_x23_774e50ff">
	<path class="st20" d="M99.7,53.2c2.6-2.5,5.5-0.3,7.7,1.6c-0.3,0.3-0.8,1-1.1,1.3C104.4,54.5,101.8,54.3,99.7,53.2z"/>
</g>
<g id="_x23_50aabdff">
	<path class="st21" d="M78.7,65.1c-3-3.6-1-8.4,0.1-12.4c-0.2,2.8,0.4,3.9,2.2,1.4c-2.1,6.3,3.6,8.5,6,13c2.8,1.3,6.8,2.2,7.2,6
		c-6.2-1.3-11.6-4.7-15.1-10C79,63.5,78.8,64.6,78.7,65.1z"/>
</g>
<g id="_x23_771716ff">
	<path class="st22" d="M95.9,58.4c1-1.8,1.7-4.2,3.7-5.2c2.1,1.1,4.7,1.3,6.6,2.9c-0.1,0.6-0.4,1.8-0.5,2.4
		c-1.1,3.1,2.8,5.1,4.3,7.4c0.7,0.7,1.3,1.4,2,2.1c-6.1,0.4-7.6-8.5-13.9-9c-0.1,0.8-0.3,2.3-0.5,3.1c-0.9-0.5-1.8-1.1-2.7-1.7
		C95.3,59.8,95.7,58.9,95.9,58.4z"/>
</g>
<g id="_x23_a08d69ff">
	<path class="st23" d="M93,53.8c2.5-0.1,2.2,2.9,3,4.6c-0.2,0.5-0.7,1.4-0.9,1.9C92.7,59,92,56.8,93,53.8z"/>
</g>
<g id="_x23_a39494ff">
	<path class="st24" d="M107.4,54.7c3,2,6.2,3.8,9.8,4.5c-10,2.5,4.6,3,8.9,2.5c-0.5,0.3-1.5,1-2,1.3c-6.7,0.7-13.7,1-18.3-4.5
		c0.1-0.6,0.4-1.8,0.5-2.4C106.5,55.7,107.1,55.1,107.4,54.7z"/>
</g>
<g id="_x23_ff6f0fff">
	<path class="st25" d="M117.6,65.8c13,6.2,14.7-17,27.2-9.6c1.7,1.9,7.9-1.2,7,1.9c-1.3,4.9-0.9,10,1.2,14.6c-6-3.8-8.9,3-4.1,6.4
		c1.1,1,2.3,1.8,3.4,2.8c0,0.8,0,1.6-0.1,2.4c-7.6-2.1-10.5-11.4-18.3-13.2c-5-0.5-10.7,1.3-14.9-2.2
		C118.4,67.9,117.5,67,117.6,65.8z"/>
</g>
<g id="_x23_7b4545ff">
	<path class="st26" d="M117.1,59.3c4-2.5,8.4-1.2,12.7-0.4c-0.3,1.6-2.4,2.3-3.8,2.8C121.7,62.2,107.2,61.8,117.1,59.3z"/>
</g>
<g id="_x23_827f7eff">
	<path class="st27" d="M61.5,63c-1-1.2-1.4-4.6,0.6-4.9C62.2,59.7,62.1,61.4,61.5,63z"/>
</g>
<g id="_x23_d2271dff">
	<path class="st28" d="M98.2,58.9c6.3,0.5,7.8,9.4,13.9,9c4.9-0.1,1.5,1-1.2,1.8c-2.6-0.1-5.3,0.3-7.8-0.6c-2-2.1-1.7-8.9-5.3-7.1
		C97.9,61.2,98.1,59.7,98.2,58.9z"/>
</g>
<g id="_x23_d8d6d0ff">
	<path class="st29" d="M110.1,65.9c-1.6-2.3-5.4-4.2-4.3-7.4c4.6,5.5,11.6,5.2,18.3,4.5c0.3,3.2-5.1,0.7-7.2,1.4
		c-3.3-1.1-2.5,0.6-1,2.7C113.9,66.7,112,66.3,110.1,65.9z"/>
</g>
<g id="_x23_8c5653ff">
	<path class="st30" d="M97.8,62c3.6-1.8,3.3,5,5.3,7.1C99.9,68.3,99.6,64.3,97.8,62z"/>
</g>
<g id="_x23_fed085ff">
	<path class="st31" d="M165.2,62.3c1.6-1.1,4.2-0.9,5.7,0.2C169.1,63.8,167.1,63.8,165.2,62.3z"/>
</g>
<g id="_x23_dda27cff">
	<path class="st32" d="M115.8,67.1c-1.5-2.1-2.2-3.9,1-2.7c0.2,0.3,0.6,1,0.7,1.3c-0.1,1.2,0.8,2.2,1.4,3.1c-0.4,0.3-1.3,0.8-1.7,1
		C116.8,69,116.3,68.1,115.8,67.1z"/>
</g>
<g id="_x23_7a4b4bff">
	<path class="st33" d="M110.1,65.9c1.9,0.4,3.8,0.8,5.8,1.3c0.5,0.9,1,1.8,1.4,2.8c-0.6,0-1.9,0.2-2.5,0.2c-4.6,0.1,2.1,4.5,4.3,4
		c1.1,0.4,1.3,1.5,0.8,3.2c-4.7-0.6-9.2-2.1-13.6-3.6c-2.8-4.7,7.8-0.1,4.6-3.9c2.7-0.7,6.2-1.8,1.2-1.8
		C111.4,67.3,110.7,66.6,110.1,65.9z"/>
</g>
<g id="_x23_828080ff">
	<path class="st34" d="M61.4,68c0.7,1.2,0.8,2.5,0.6,3.8C60.2,72,60.3,68.8,61.4,68z"/>
</g>
<g id="_x23_9e9f9fff">
	<path class="st35" d="M119.1,74.1c-2.2,0.5-8.9-3.8-4.3-4C116.2,71.4,117.6,72.8,119.1,74.1z"/>
</g>
<g id="_x23_ff7516ff">
	<path class="st36" d="M190.6,73.7c3.1-2.8,0.1,5.4,3.6,5.2c1.5,0.6,3.4,0.4,4.7-0.6c2.2-1.8,4.7-3.4,7.3-4.5
		c0.5,0.2,1.4,0.6,1.9,0.8c-3.5,1.4-13.2,10-7,12.3c0.3,0.4,0.8,1.3,1.1,1.7c-0.8,1.3-1.7,3.1-3.3,3.2c-2.6,0-5.3,0-7.9,0
		c-3.7-1.4-6.3-4.8-9.2-7.4C182.6,79.4,185.7,75.6,190.6,73.7z"/>
</g>
<g id="_x23_ffba94ff">
	<path class="st37" d="M206.2,73.8c0.7-2.9,6,0.6,1.9,0.8C207.6,74.5,206.7,74,206.2,73.8z"/>
</g>
<g id="_x23_7f7b74ff">
	<path class="st38" d="M119.8,77.2c2.5-1.4,9.3-6.1,9.4-1c-0.5,3.8-3.4-1.9-5.3,0.7c-3.1,1.4-1.2,2.4,1.3,2.9
		C122.9,80.1,120.7,79.8,119.8,77.2z"/>
</g>
<g id="_x23_858586ff">
	<path class="st39" d="M63.3,75.1c1.2,1,0.9,2.8,0,3.9C62.4,77.7,62.4,76.3,63.3,75.1z"/>
</g>
<g id="_x23_355162ff">
	<path class="st40" d="M79.1,79.2c3-3.7,8.4-1.4,11.9-4.2c8.5,0.9,14.1,9.8,22.9,10c3.5-1.3,6.2-5.7,10.3-3.3
		c10.3,1,11.2,12.5,17.4,18.7c15.9,12.3,37.4,7.6,56,8.9c6.3,2.1,12.8,7.8,13.4,14.7c-4.8-5.4-12.4-5.3-19-5.2
		c-5.4-0.9-11.3-3.4-16.1,0.7c-8.2,5.1-17.3-3.6-26.2,1.1c-3.2-0.1-6.4-0.4-9.6-0.7c1.5-7.3-2.9-16.3-7.2-21.1
		c1.3,8.1,8.3,16,4.3,24.3c-1.1,2.2,0.4,1.6,1.8,0.8c-0.6,1.9-1.4,3.8-2.2,5.6c-4.9,2.1,4.1,3.9,5.1,6.6c2.7,8.3-0.2,18.3,7.6,24.3
		c-1.2,7.4,2.9,16.7,11.7,15.6l-0.3,0.6c-1.7,2.4-1.7,5.3-1.7,8.2c-1.6-1.7-1.8-6.4-2.2-0.7c-1.2,0.2-5.3-18.6-10.9-10.5
		c5.4-0.2,9.4,6.6,7.1,11.4c-1.6-3.8-6.3-9.2-9.2-3.2c-0.9,1.3-1.5,2.8-2,4.3c-1.1-1-3.1-5-2.8-1.2c-1.4,7.4,0.1-8.9-2.6-1.8
		c-0.7-1.8-1.5-3.6-2.6-5.2c-5.5,0.3-5.2,6.9-5.9,11.1c2.4-0.4,4.6-1.5,6.9-2.2c0.3,0.4,1,1.3,1.3,1.7c-3,1.1-5.9,2.4-8.9,3.4
		c-2.8-4.6,0.3-12.9,3.7-16.1c4.7,1.3,10.7,1.8,8.8-5c-0.4-3.8-3.2-7.4-1-11.1c2.5-5.1-10.3-6.9-4.8-10.9c-3.8,0.2-8.1,2.3-11.2-0.7
		c-6.4-4.6-1.3-13.5-4.4-19.6c-5.2-9.1-0.7-19.4,0.6-28.9c-2.8,1.8-2.9,5.3-3.9,8.2c-2.8,3.3-5.2,3.4-6.6-1
		c2.1-4.6-2.4-7.3-5.1-10.3c-0.2-3.3,1.2-6.5,1.6-9.8c-6.6,1.6-2.9,12.8,1.8,15.4c3.1,2.2-2.5,3.1-3.9,4.6c1.9,0.1,3.8,0.1,5.7,0.1
		c-1.4,1.4-3.1,3.8-4.6,1.1c-3.3,0.8-5.5,3.7-5.2,7.1c-2.9,0.5-4.3,2.1-3.1,5c0.4,1.8,0.1,3.5-0.7,5.1l-0.9-0.3
		c-0.1-1-0.2-1.9-0.4-2.8c-0.6-2.4-2.1-5.3-4.5-6.1c-1.8,1.8-1.2,8.4-4.4,4.4c0.6-7.8,9.2-12.3,14.6-17.3c-2.2-2.3-6.6-3-6.5-6.7
		c5.9,1.6,1.2-2.1-2-2.3c-2.7-2.1-3.1-5.3-2.2-8.4C83.9,89.2,80,94,75.9,97.9c-2.4,0.5-5.6-8.9-5.4-4.4c1.9,3.7-3.7,0-3.7,3.9
		c-2.8,4.7,2.9,8,4.9,11.5c-5.8,1.4-10.2,5-12.2,10.9c-7-4.5,5.2-9.5,6.2-13.8c-2.6-8.4-3.7-18.2,0.2-26.2l0.8-0.1
		c-2.7,8.1,5.4,10.9,8.9,16.2c2.1-6.5,11-9.3,9.3-17c-3.7-1.2-5,1.9-6.5,4.6C75.2,85.3,78.7,80.6,79.1,79.2z"/>
</g>
<g id="_x23_cdc9c5ff">
	<path class="st41" d="M124,76.9c1.9-2.6,4.7,3.2,5.3-0.7c1.5-0.6,0.7,3,1.3,4l0.1,0.8c-1.8-0.6-3.6-1-5.4-1.3
		C122.8,79.3,120.9,78.3,124,76.9z"/>
</g>
<g id="_x23_ffc29aff">
	<path class="st42" d="M194,78.3c1.4-0.8,3.4-0.7,4.8,0c-1.3,1-3.2,1.1-4.7,0.6L194,78.3z"/>
</g>
<g id="_x23_838281ff">
	<path class="st43" d="M62.1,88.1c1-2.3-1.8-8.6,1.3-9.2C62.9,82,62.9,85.1,62.1,88.1z"/>
</g>
<g id="_x23_3db2c6ff">
	<path class="st44" d="M66.8,79.8c4.1-1,8.3,0.8,12.3-0.5c-0.5,1.4-3.9,6-0.6,4.3c1.5-2.6,2.8-5.8,6.5-4.6c1.7,7.7-7.1,10.5-9.3,17
		C72.2,90.7,64.2,87.9,66.8,79.8z"/>
</g>
<g id="_x23_928d83ff">
	<path class="st45" d="M130.5,80.3c8.2-4,8.5,2.2,6.5,7.4c6.7-2.9,8.2,0.1,7.1,6.2c5.9-3.6,8,4.1,5.7,8.5c-1-0.3-1.9-0.7-2.9-1
		c3.4,0.2,1.2-3.4,0.9-5.3c-2.8-1.1-3.9,1.5-4,3.9c-1.8-1-2.7-2.9-3.7-4.7c4.9-3.1-0.2-10.1-2.4-4.2c-0.8-1.5-1.4-3.1-2-4.7
		c1.2-3.9-0.4-5.5-4-3.6c-0.2-0.4-0.8-1.2-1-1.6L130.5,80.3z"/>
</g>
<g id="_x23_cdcac3ff">
	<path class="st46" d="M131.7,82.8c3.6-1.9,5.2-0.3,4,3.6C134.2,85.4,132.6,84.4,131.7,82.8z"/>
</g>
<g id="_x23_ffbc86ff">
	<path class="st47" d="M152.3,81.9c4.8,0.6,3.1,5.3-0.1,2.4C152.3,83.6,152.3,82.7,152.3,81.9z"/>
	<path class="st47" d="M165.1,88.1c2-0.6,3,1.7,4,3c-1.7-0.3-4.5-0.1-5.1-1.9C164.3,88.9,164.9,88.3,165.1,88.1z"/>
</g>
<g id="_x23_ffb392ff">
	<path class="st48" d="M201.1,87c1-4.5,4.8,0.5,1.1,1.7C202,88.3,201.4,87.4,201.1,87z"/>
</g>
<g id="_x23_1aa5bfff">
	<path class="st49" d="M75.9,97.9c4.1-3.9,8-8.7,12.6-12.3c-0.9,3.1-0.5,6.4,2.2,8.4c-0.7,4.2,2.4,6.7,5.3,9.1
		c-0.2,4.3-7,3.6-8.5,7.3c-1.3,2.2-1.6,5.6-4.3,6.6l-0.2-0.9c-0.1-10.8-15.3-8-16.3-18.7c0-3.9,5.6-0.2,3.7-3.9
		C70.3,89.1,73.5,98.4,75.9,97.9z"/>
</g>
<g id="_x23_263742ff">
	<path class="st50" d="M106.7,102.3c-4.7-2.6-8.4-13.8-1.8-15.4c-0.4,3.3-1.7,6.5-1.6,9.8c2.7,3,7.2,5.7,5.1,10.3
		c-1.9,0-3.8,0-5.7-0.1C104.2,105.4,109.8,104.5,106.7,102.3z"/>
</g>
<g id="_x23_e3dfd7ff">
	<path class="st51" d="M137.7,91.1c2.2-5.8,7.3,1.2,2.4,4.2C139.3,93.9,138.5,92.5,137.7,91.1z"/>
</g>
<g id="_x23_ffa16eff">
	<path class="st52" d="M191.1,92c2.6,0,5.2,0,7.9,0C198.6,93.7,191.4,93.7,191.1,92z"/>
</g>
<g id="_x23_e4e2dfff">
	<path class="st53" d="M143.8,100c0.1-2.3,1.2-4.9,4-3.9c0.3,1.9,2.5,5.5-0.9,5.3C145.8,101,144.8,100.5,143.8,100z"/>
</g>
<g id="_x23_9c988fff">
	<path class="st54" d="M149.7,102.4c2.2-2.5,8.9-7.6,9.7-1.7c1.1,3,3.6-0.3,5-1.4c3.3-2,2.7,7.1,5.4,3.4c2.1-3.5,5.3-3,5.4,1.3
		l-0.7-0.3c-2.8-2-4.7,0.4-4.7,3.3c-2.7,0-5.4-0.4-8.1-0.8c1.7-0.4,5.5,0.8,4.2-2.1c-0.5-4-4.8-0.3-5.2,1.9
		c-1.2-0.2-2.4-0.5-3.5-0.8c2.5-5-3-6.4-4.4-1.4C151.7,103.4,150.7,102.9,149.7,102.4z"/>
</g>
<g id="_x23_a2a2a1ff">
	<path class="st55" d="M62.3,99.1c1,1.3,0.8,2.9,1,4.4C61.2,103.9,61.4,100.3,62.3,99.1z"/>
</g>
<g id="_x23_1d2931ff">
	<path class="st56" d="M133,98.9c4.3,4.8,8.7,13.9,7.2,21.1c-0.4,1.3-0.7,2.7-1.2,4c-1.4,0.8-2.9,1.4-1.8-0.8
		C141.2,114.9,134.3,107,133,98.9z"/>
</g>
<g id="_x23_2a383eff">
	<path class="st57" d="M115.1,108c1-2.8,1.1-6.4,3.9-8.2c-1.3,9.4-5.8,19.8-0.6,28.9c3.1,6-2,15,4.4,19.6c3.1,3,7.4,0.9,11.2,0.7
		c-5.5,4,7.3,5.8,4.8,10.9c-2.2,3.7,0.6,7.3,1,11.1c-3.7-2.8-1.4,6.3-5.4,3.4c-4.6-4.8-0.5-10.2,2.7-14.3
		c-1.8-9.8-18.8-5.8-19.1-17.1c1-2.9,0.8-5.2-0.5-6.8c-2.7-1-5.6-0.8-8.4-1.1c-2.5-0.1-5.1-1.5-7.5-0.1l-0.5,0.1l0-1.1
		c0.3-1.3,0.6-2.6,1-3.9l0.9,0.5c0.3,0.2,0.9,0.5,1.2,0.7c3.1,1.7,17.2,6.1,11.4-0.9C114.6,122.8,113.1,115.3,115.1,108z"/>
</g>
<g id="_x23_e0ded9ff">
	<path class="st58" d="M152.7,103.8c1.4-5,6.9-3.6,4.4,1.4C155.6,104.9,154.1,104.5,152.7,103.8z"/>
</g>
<g id="_x23_bab7afff">
	<path class="st59" d="M175.2,104c3,2.5,2.6-4.1,5.6-2.9c1.2,0.9,1.6,3,2.9,3.5c1.1-3.1,4.6-5.2,5.6-0.8c2.5-2.8,6.2-1.7,5.5,2.3
		c-1.9,0-3.7,0.1-5.6,0.2c-2.9,0-5.8-0.2-8.6,0.4c-2.2,0.1-4.3,0.1-6.5,0.2c0.1-1.1,0.2-2.1,0.3-3.1L175.2,104z"/>
</g>
<g id="_x23_ebe9e5ff">
	<path class="st60" d="M160.6,106c0.5-2.2,4.8-6,5.2-1.9c1.3,2.9-2.6,1.7-4.2,2.1L160.6,106z"/>
</g>
<g id="_x23_e5e1dcff">
	<path class="st61" d="M169.8,107c0-2.9,1.8-5.3,4.7-3.3c-0.1,1.1-0.1,2.1-0.3,3.1C172.7,107,171.2,107,169.8,107z"/>
</g>
<g id="_x23_72706eff">
	<path class="st62" d="M180.7,106.7c2.8-0.6,5.7-0.4,8.6-0.4C186.5,107,183.6,106.7,180.7,106.7z"/>
</g>
<g id="_x23_30adc5ff">
	<path class="st63" d="M108.5,107c1.4,4.3,3.9,4.3,6.6,1c-2,7.3-0.5,14.8,0.3,22.2c-3.8,0.4-7.6,0.9-11.4,0.9
		c-0.3-0.2-0.9-0.5-1.2-0.7c2.5-3.9,3.8-18.6-4.2-15.3c-0.3-3.4,1.9-6.3,5.2-7.1C105.4,110.8,107,108.4,108.5,107z"/>
</g>
<g id="_x23_858381ff">
	<path class="st64" d="M196.1,107.3c0.9-0.9,3.8-1,3.7,0.7C198.5,108.1,197,108.4,196.1,107.3z"/>
</g>
<g id="_x23_f8f7f7ff">
	<path class="st65" d="M62,117.9c2.3-5.2,8.9-5.6,13.1-8.9c3.4-0.2,5.3,3,6.1,5.9c-0.2,1.7-0.2,3.3,0,5c-0.1,0.5-0.2,1.4-0.3,1.9
		c-2.7,0.2-5.5,0.2-8.1,0.9c-1.4-0.1-3.1-0.1-3.9,1.3C65.3,124.3,64,120.3,62,117.9z"/>
</g>
<g id="_x23_283933ff">
	<path class="st66" d="M98.6,115.2c8-3.3,6.7,11.4,4.2,15.3c-0.6-4.1,1.5-8.9-0.6-12.6c-1.6-3.7-5.1,0.7-6.7,2.4
		C94.3,117.3,95.7,115.6,98.6,115.2z"/>
</g>
<g id="_x23_949797ff">
	<path class="st67" d="M81.3,115c0.4,0.3,1.4,0.9,1.8,1.2l0.2,0.9c-0.7,0.9-1.4,1.9-2,2.9C81.1,118.3,81,116.6,81.3,115z"/>
</g>
<g id="_x23_f1941aff">
	<path class="st68" d="M95.6,120.2c1.5-1.7,5.1-6.1,6.7-2.4c-0.1,4-0.2,8.1-0.3,12.1c-0.4,1.3-0.7,2.6-1,3.9l-0.8,0
		c-2.5,0.9-4.9,0.4-7.3-0.6c6.2,0.3,2.5-4.5,1.9-8C95.7,123.7,95.9,121.9,95.6,120.2z"/>
</g>
<g id="_x23_0e9bb5ff">
	<path class="st69" d="M175.9,119.6c4.7-4,10.6-1.5,16.1-0.7c6.6-0.1,14.2-0.2,19,5.2c0.1,1.9,0.1,3.8,0,5.6
		c-4.8,7.9-12.6,15.5-22.4,16c0.8-0.9,1.6-1.8,2.5-2.6c7.6-1.3,14.5-7,16.6-14.5c-3.8-11.1-20.3-3.2-28.5-1.7
		C178.2,124.5,177.2,122,175.9,119.6z"/>
</g>
<g id="_x23_a6a6a7ff">
	<path class="st70" d="M48,120c5.5-5.2,3.5,7.1,2.7,9.4c-2.6-4.7-2.8-14.5-2.8-1.4C45.2,128.8,46.5,121.2,48,120z"/>
</g>
<g id="_x23_85580bff">
	<path class="st71" d="M102.2,117.8c2.1,3.8,0,8.6,0.6,12.6l-0.9-0.5C102.1,125.9,102.1,121.8,102.2,117.8z"/>
</g>
<g id="_x23_2dabbdff">
	<path class="st72" d="M149.7,120.7c8.9-4.7,18,4,26.2-1.1c1.2,2.4,2.3,4.9,3.3,7.4c-6.5,2.2-13.3,3.2-20.2,3
		C157.5,124.8,157,118.8,149.7,120.7z"/>
</g>
<g id="_x23_d8d9daff">
	<path class="st73" d="M57,129.2c-2.5-2-4-9.8,0-9.2C57,123.1,57,126.1,57,129.2z"/>
</g>
<g id="_x23_8b8989ff">
	<path class="st74" d="M57,120c1.9-0.2,1.8,8.3,0,9.2C57,126.1,57,123.1,57,120z"/>
</g>
<g id="_x23_57bccbff">
	<path class="st75" d="M140.2,120c3.2,0.3,6.4,0.5,9.6,0.7c7.2-1.8,7.8,4.2,9.3,9.3c-7.8-0.8-16.2,7.6-22.3-0.3
		c0.8-1.8,1.7-3.7,2.2-5.6C139.4,122.7,139.8,121.3,140.2,120z"/>
</g>
<g id="_x23_7d7b7bff">
	<path class="st76" d="M211.9,120.3c1.3-1.1,2.8,11,0.1,10.7l0-0.9C212,126.8,211.9,123.5,211.9,120.3z"/>
</g>
<g id="_x23_fab435ff">
	<path class="st77" d="M59.6,123.8c0.5-0.6,1-3.6,2.1-2.4c5.2,7.5,14.8,1.6,22.2,4.4c-0.1,5.1,5,6.7,9.1,7.4
		c2.4,1.1,4.8,1.6,7.3,0.6c-0.5,1.7-0.9,3.3-1.2,5c-1.5-2.1-4.2-2-6.6-2.3c-2.2-0.1-4.5,0-6.7,0.2c-5.5,0.1-10.9,0.1-16.4,0
		c-2.2-0.2-4.5-0.3-6.7-0.2c-2.3,0.4-4.5,0.8-6.8,1.3c-1.1-2.8-1.7-5.9-1.4-8.9l0.2,1c-0.2,5.8,4.5,3.5,7.1,0.8
		C62.7,128.1,60.5,126,59.6,123.8z"/>
</g>
<g id="_x23_d2d3d4ff">
	<path class="st78" d="M90.2,123.7c-1-3.3,1.1-2.8,3.4-1.6c0.1,0.9,0.3,1.9,0.4,2.8c0.2,2.4,0.6,4.8,0.9,7.2
		C90.8,131.5,90.8,127,90.2,123.7z"/>
</g>
<g id="_x23_a7adb7ff">
	<path class="st79" d="M72.8,122.8c2.6-0.8,5.4-0.8,8.1-0.9C80.1,124.4,75.2,122.2,72.8,122.8z"/>
</g>
<g id="_x23_d1d3d4ff">
	<path class="st80" d="M83.8,125.8c-0.7-5,2.1-3.8,2.5,0.3C86.3,129.1,84.9,127.1,83.8,125.8z"/>
</g>
<g id="_x23_989ba3ff">
	<path class="st81" d="M68.9,124.1c0.8-1.4,2.5-1.4,3.9-1.3C72.3,124.4,70.3,124.5,68.9,124.1z"/>
</g>
<g id="_x23_29373dff">
	<path class="st82" d="M179.2,127c8.2-1.6,24.7-9.4,28.5,1.7c-2.1,7.4-9.1,13.2-16.6,14.5c-4.8,0-9.6-0.3-14.4,0.1
		c3.5,2.3,7.9,2.2,12,2.6c9.8-0.5,17.5-8.1,22.4-16l0.9,0.3l0,0.9c-3.1,8.1-11,13.6-18.9,16.1c-4,0-7.9-0.1-11.9-0.2l-0.9-0.1
		c-3.8-0.4-7.6-0.7-11.3-0.9c0.2-3.2,4.1-5.1,7.1-4.9c4.8-0.2,9.6,0.4,14.4-0.6c7.6-0.4,15.3-7.4,13.7-15.4c-4.4,0.1-9-0.6-13.3,0.8
		c-1.3,0-2.6,0-3.7,0.8c-4.8,2.3-10,3.3-15.2,4.3c-1.4,0.2-4.3,0.5-5.7,0.6c-4.1,0.6-8.4,0-12.4,1.2c-5.6,1.2-11.9,1.4-8.7,8.2
		c0.7,3.9-1.2,8.6,0.8,12.3c1.2,2.4,3.2,4.2,5,6.1c0.4,3.3-0.5,6.9,0.9,10c1.5,1.7,3.5,2.8,5.3,4.1c1.3,1,3.1,0.7,4.7,0.6
		c0.6,0.4,1.9,1.1,2.5,1.4c-1,0.2-2.1,0.4-3.1,0.7c-8.8,1.1-12.9-8.1-11.7-15.6c-7.8-6-4.8-16-7.6-24.3c-0.9-2.7-9.9-4.4-5.1-6.6
		c6,7.9,14.4-0.4,22.3,0.3C165.9,130.2,172.8,129.2,179.2,127z"/>
</g>
<g id="_x23_ea801bff">
	<path class="st83" d="M54.7,130c5.1,3.1,6.3-1.1,4.9-6.2c0.9,2.2,3.1,4.3,2.3,6.9C59.2,133.4,54.5,135.8,54.7,130z"/>
</g>
<g id="_x23_806d4dff">
	<path class="st84" d="M90.2,123.7c0.6,3.2,0.6,7.8,4.6,8.4c-0.3-2.4-0.7-4.8-0.9-7.2l0.9,0.3c0.5,3.5,4.2,8.2-1.9,8
		c-4.1-0.7-9.2-2.4-9.1-7.4c1.1,1.3,2.4,3.3,2.5,0.3c0.4,0,1.1-0.1,1.5-0.1c-2.4,5.6,4.4,4.2,2.3-1.2L90.2,123.7z"/>
</g>
<g id="_x23_786640ff">
	<path class="st85" d="M52,125c2.6-0.6,2.1,2.4,2.5,4c-0.3,3.1,0.2,6.1,1.4,8.9c-0.9,2.7-2.1,5.3-2.8,8.1c-0.1,0.4-0.2,1.3-0.3,1.8
		c-0.5,2.8-0.8,5.6-1.3,8.4c-0.1-0.6-0.4-1.8-0.5-2.4c0.1-1.9,0.1-3.8-0.1-5.6c-0.1-2.9,0.7-6,2.6-8.3c0-1.2,0-3.6,0-4.8
		c-0.9-1.2-1.8-2.4-2.4-3.8C54.2,130.9,51.5,127,52,125z"/>
</g>
<g id="_x23_d4a02eff">
	<path class="st86" d="M87.9,126c0.6-0.3,1.7-0.9,2.3-1.2C92.3,130.2,85.5,131.6,87.9,126z"/>
</g>
<g id="_x23_b4abaaff">
	<path class="st87" d="M187,126.6c1.1-0.7,2.4-0.8,3.7-0.8C191.1,127.7,187.9,127.7,187,126.6z"/>
</g>
<g id="_x23_1e8497ff">
	<path class="st88" d="M104.1,131.1c3.8-0.1,7.6-0.5,11.4-0.9C121.3,137.2,107.1,132.8,104.1,131.1z"/>
</g>
<g id="_x23_a39b9aff">
	<path class="st89" d="M166.1,131.5c1.4-0.2,4.3-0.5,5.7-0.6C171.6,133.2,167.4,132.8,166.1,131.5z"/>
</g>
<g id="_x23_9d9291ff">
	<path class="st90" d="M153.7,132.8c4-1.2,8.3-0.7,12.4-1.2C164.5,134.9,157.4,132.3,153.7,132.8z"/>
</g>
<g id="_x23_726446ff">
	<path class="st91" d="M100.2,133.9l0.8,0l0,1.1c-0.1,1.6-0.3,3.5,0.8,4.9c0.9,1.5,1.8,3.2,1.8,5.1c-0.8,3.6,0.3,7.8-1.3,11.2
		c0-1.4-0.1-2.9-0.1-4.3c0-1.9,0-3.9-0.2-5.8c-0.6-2.5-1.8-4.9-2.9-7.2C99.2,137.2,99.7,135.6,100.2,133.9z"/>
</g>
<g id="_x23_b9b9baff">
	<path class="st92" d="M53.5,135.1c0,1.2,0,3.6,0,4.8C52.1,138.8,52.1,136.2,53.5,135.1z"/>
</g>
<g id="_x23_b2b3b5ff">
	<path class="st93" d="M100.9,134.9l0.5-0.1c1,1.4,1,3.6,0.2,5.1C100.7,138.4,100.9,136.6,100.9,134.9z"/>
</g>
<g id="_x23_8d8280ff">
	<path class="st94" d="M109,134.9c2.8,0.3,5.7,0.1,8.4,1.1C114.9,135.4,109.9,137.3,109,134.9z"/>
</g>
<g id="_x23_fff2dbff">
	<path class="st95" d="M62.6,136.7c2.2-0.1,4.5,0,6.7,0.2C70.3,142.8,59.6,142.4,62.6,136.7z"/>
</g>
<g id="_x23_fff2daff">
	<path class="st96" d="M85.7,136.9c2.2-0.2,4.5-0.3,6.7-0.2C95.4,142.4,84.7,142.9,85.7,136.9z"/>
</g>
<g id="_x23_777574ff">
	<path class="st97" d="M117.4,136c1.3,1.6,1.5,3.9,0.5,6.8C116.1,141.6,116.7,137.9,117.4,136z"/>
</g>
<g id="_x23_f8c25fff">
	<path class="st98" d="M55.9,137.9c2.2-0.5,4.5-0.9,6.8-1.3c-3.1,5.7,7.7,6.2,6.7,0.2c5.5,0.1,10.9,0.1,16.4,0c-1,6,9.7,5.5,6.7-0.2
		c2.4,0.3,5,0.2,6.6,2.3c1.2,2.3,2.3,4.7,2.9,7.2c-2.6-0.1-5.2-0.1-7.7-0.1c1.2-7.3-6.1-1.9-9.1,0.1c-3.2,2.6,2.4,2,4.2,2.2
		c-2.9,0.6-6.5,1.9-6.5-1.9c-3.8,1.7-8.4-0.3-11.9,2.2c0.4-1,0.2-1.8-0.5-2.4c-3.4-1.6-10.8-7.7-9.5-0.3c-2.6,0-5.2,0-7.8,0
		C53.7,143.2,55,140.6,55.9,137.9z"/>
</g>
<g id="_x23_bdbab9ff">
	<path class="st99" d="M176,141c2.8-2.3,9.8-1,14.4-0.6C185.6,141.4,180.7,140.8,176,141z"/>
</g>
<g id="_x23_8c8c8cff">
	<path class="st100" d="M145,141c2.8,1.8,0.4,8.6,0.8,12.3C143.8,149.6,145.7,144.9,145,141z"/>
</g>
<g id="_x23_271f11ff">
	<path class="st101" d="M60.9,146c-1.4-7.4,6-1.3,9.5,0.3c-0.9,1-2.1,1.6-3.2,2.3C65,147.6,63,146.8,60.9,146z"/>
</g>
<g id="_x23_352a17ff">
	<path class="st102" d="M85,146c3-2,10.4-7.4,9.1-0.1c-1.6,0.8-3.2,1.7-5,2.3C87.4,148,81.8,148.6,85,146z"/>
</g>
<g id="_x23_325a70ff">
	<path class="st103" d="M176.7,143.2c4.8-0.4,9.6-0.1,14.4-0.1c-0.8,0.9-1.7,1.7-2.5,2.6C184.6,145.4,180.2,145.5,176.7,143.2z"/>
</g>
<g id="_x23_303a3fff">
	<path class="st104" d="M102.2,156.2c1.7-3.4,0.6-7.6,1.3-11.2c1,2.5,5,3.2,4.6,6.2c-0.1,1.2-0.1,2.4,0,3.6
		c-0.2,1.1-0.6,2.1-1.1,3.1c-0.7,2.5-0.8,5.2-1.3,7.8c-1.9,2.9-0.6,6.9-3,9.4c-0.4-0.1-1.2-0.4-1.6-0.5c-0.5-0.2-1.5-0.5-2-0.7
		c-0.1-0.7-0.2-2-0.3-2.7c-0.2-2.6,0.3-5.6-2-7.3C99,161.5,100.8,159,102.2,156.2 M100.1,164.9c-0.1,1.8-0.1,3.5,0,5.3
		C102.7,169.4,102.7,165.6,100.1,164.9z"/>
</g>
<g id="_x23_fdd589ff">
	<path class="st105" d="M53.1,146c2.6,0,5.2,0,7.8,0c2.1,0.8,4.1,1.7,6.2,2.5c1.1,0.5,2.6,1,3.7,0.1c3.5-2.6,8.1-0.5,11.9-2.2
		c-0.1,3.8,3.6,2.5,6.5,1.9c1.7-0.6,3.3-1.5,5-2.3c2.6,0,5.1,0.1,7.7,0.1c0.2,1.9,0.2,3.9,0.2,5.8c-5-0.8-9.3,3.6-13.3,4.2
		c-4.5-10.1-18.9-9.2-23.2,0.4c-3.6-2.9-7.9-4.9-12.7-4.7c-0.1-1.4-0.1-2.7-0.2-4.1C52.8,147.3,53,146.4,53.1,146z"/>
</g>
<g id="_x23_96804dff">
	<path class="st106" d="M70.3,146.2c0.7,0.6,0.9,1.4,0.5,2.4c-1.1,0.9-2.6,0.4-3.7-0.1C68.3,147.9,69.4,147.2,70.3,146.2z"/>
</g>
<g id="_x23_c1c0c0ff">
	<path class="st107" d="M168.9,145.9c3.8,0.2,7.6,0.5,11.3,0.9C175.6,147.6,171.8,147.3,168.9,145.9z"/>
</g>
<g id="_x23_8f8a89ff">
	<path class="st108" d="M181.1,146.9c4,0.1,7.9,0.1,11.9,0.2C192.1,148.3,181.7,149.7,181.1,146.9z"/>
</g>
<g id="_x23_aeaeadff">
	<path class="st109" d="M51,153.8c-1.8-0.5-1.8-5.1-0.1-5.6C51,150.1,51,151.9,51,153.8z"/>
</g>
<g id="_x23_928c7dff">
	<path class="st110" d="M51.5,156.2c0.5-2.8,0.8-5.6,1.3-8.4c0,1.4,0.1,2.7,0.2,4.1c-0.1,2.8,0.6,5.6,1.9,8.1
		c-0.2,0.2-0.6,0.6-0.8,0.8C52,161.1,51.7,157.8,51.5,156.2z"/>
</g>
<g id="_x23_f9f8f7ff">
	<path class="st111" d="M65.6,156.6c4.4-9.7,18.8-10.6,23.2-0.4c3.9-0.6,8.3-5.1,13.3-4.2c0,1.4,0.1,2.9,0.1,4.3
		c-1.3,2.8-3.2,5.4-5.2,7.7c-3.6,2.3-7.2,4.7-11,6.6c-5.6,1.3-11.4,1.9-16.9-0.1c-5.4-2.4-10.7-5.6-14.3-10.4
		c-1.2-2.5-2-5.3-1.9-8.1C57.7,151.6,62,153.6,65.6,156.6 M75.3,153c-2.5,1.1,0.1,3.4,0.8,4.9c0,0.8-0.1,2.2-0.2,3
		c-1.7,0-3.4,0-5.1,0.1c0.2,6.6,7.8,1.7,11.9,3.7c2.6-3.8-0.2-4.4-3.8-3.8c0-0.8-0.1-2.2-0.2-3c1.6-1.2,1.2-3.3,0.9-5
		C79.7,151.1,75.2,151.1,75.3,153z"/>
</g>
<g id="_x23_acababff">
	<path class="st112" d="M108.1,151.2c1.8-0.2,1.8,3.9,0,3.6C108,153.6,108,152.4,108.1,151.2z"/>
</g>
<g id="_x23_171717ff">
	<path class="st113" d="M75.3,153c1.5,0,3,0,4.4-0.1c0.3,1.7,0.7,3.8-0.9,5c-0.7,0-2,0-2.7,0C75.4,156.5,72.9,154.1,75.3,153z"/>
</g>
<g id="_x23_a1a1a1ff">
	<path class="st114" d="M76.1,158c0.7,0,2,0,2.7,0c0,0.8,0.1,2.2,0.2,3c-0.8,0-2.3,0-3,0C76,160.2,76.1,158.7,76.1,158z"/>
</g>
<g id="_x23_abababff">
	<path class="st115" d="M105.7,165.7c0.4-2.6,0.6-5.3,1.3-7.8C106.5,160.1,108.3,166,105.7,165.7z"/>
</g>
<g id="_x23_9f9e9eff">
	<path class="st116" d="M150.8,159.3c2.9-0.5,0.6,7.4,0.9,10C150.3,166.2,151.2,162.6,150.8,159.3z"/>
</g>
<g id="_x23_5f5542ff">
	<path class="st117" d="M54,160.8c0.2-0.2,0.6-0.6,0.8-0.8c3.6,4.8,8.9,8,14.3,10.4c-0.6,0.2-1.7,0.6-2.2,0.8
		c-1.6-0.8-3.3-1.5-4.9-2.3c-1.3-1.1-2.6-2.3-4-3.3c-4.3-2.7-0.8,8.6-2.5,11.6c0-6.6-2.7,0.1-3.2,2.9c0,3.5,1.5,7.4,4.2,9.7
		c7.5,3.4,4.4-0.5,3.5-2.7c0.2-0.3,0.8-0.9,1-1.3c0.2,0.3,0.7,0.9,0.9,1.2c0.8,1.1,1.6,2.1,2.5,3.2c-2.9,0.4-5.9,0.8-8.8,0.9
		c-2.2-2.2-4.8-4.8-4.4-8.2c0.1-1.5,0.1-3.1,0-4.6C53.1,172.8,57.3,167,54,160.8z"/>
</g>
<g id="_x23_686868ff">
	<path class="st118" d="M70.9,161.1c1.7-0.1,3.4-0.1,5.1-0.1c0.8,0,2.3,0,3,0c3.6-0.6,6.4,0.1,3.8,3.8
		C78.7,162.8,71.2,167.7,70.9,161.1z"/>
</g>
<g id="_x23_75603cff">
	<path class="st119" d="M85.9,170.5c3.8-1.9,7.4-4.3,11-6.6c2.3,1.7,1.8,4.7,2,7.3c1.1-7.5-2.8-4.8-6-2.6c-0.5,0.2-1.4,0.8-1.9,1
		c-1,0.6-2,1.1-3,1.7C87.6,171,86.5,170.6,85.9,170.5z"/>
</g>
<g id="_x23_9b701cff">
	<path class="st120" d="M55.3,177.3c1.7-2.9-1.8-14.3,2.5-11.6c-0.6,4.4-1.9,9.3,0,13.6c0.8,2.2,1.9,4.4,2.9,6.6
		c-0.2,0.3-0.8,1-1,1.3C57.6,184.2,55.6,181,55.3,177.3z"/>
</g>
<g id="_x23_c8c8c9ff">
	<path class="st121" d="M100.1,164.9c2.6,0.8,2.6,4.5,0,5.3C100,168.4,100,166.6,100.1,164.9z"/>
</g>
<g id="_x23_fcb22cff">
	<path class="st122" d="M57.9,179.3c-2-4.3-0.6-9.2,0-13.6c1.4,1,2.7,2.1,4,3.3c0.9,2.2,2.1,4.2,3.4,6.2
		C63,176.7,60.5,178.1,57.9,179.3z"/>
</g>
<g id="_x23_f5ab24ff">
	<path class="st123" d="M92.9,168.6c3.2-2.2,7.1-4.9,6,2.6c0.1,0.7,0.2,2,0.3,2.7c-0.5,1.4-1.1,2.9-1.7,4.3
		c-2.4-1.2-5.1-2.2-6.8-4.3l0.6-0.7C92.6,172.1,94.4,170.2,92.9,168.6z"/>
</g>
<g id="_x23_faf7f2ff">
	<path class="st124" d="M61.9,168.9c1.6,0.8,3.3,1.5,4.9,2.3c6.3,3.9,15,4.1,21.3,0c1-0.6,2-1.1,3-1.7c0.1,1.2,0.1,2.4,0.2,3.6
		l-0.6,0.7c-1.9,1.8-3.9,3.6-5.9,5.4c-0.4,0.2-1.3,0.6-1.7,0.8c-3.5-2.7-2.2,1.9-1.9,4.8c-2.4,1.1-5,1.2-7.3,0
		c0.2-2.9,1.5-7.5-2.1-5c-0.4-0.1-1.2-0.4-1.6-0.5c-1.6-1.4-3.2-2.8-4.8-4.2C64,173.1,62.8,171.1,61.9,168.9z"/>
</g>
<g id="_x23_f0d090ff">
	<path class="st125" d="M91.1,169.6c0.5-0.2,1.4-0.8,1.9-1c1.5,1.7-0.3,3.5-1.7,4.6C91.2,171.9,91.2,170.7,91.1,169.6z"/>
</g>
<g id="_x23_7b7b7bff">
	<path class="st126" d="M69.1,170.4c5.5,2,11.3,1.4,16.9,0.1c0.5,0.2,1.6,0.6,2.2,0.7c-6.2,4.2-15,3.9-21.3,0
		C67.4,171,68.5,170.6,69.1,170.4z"/>
</g>
<g id="_x23_98999aff">
	<path class="st127" d="M134.3,174.2c4,2.9,1.8-6.1,5.4-3.4c1.8,6.7-4.2,6.3-8.8,5C131.6,174.7,133.2,174.7,134.3,174.2z"/>
</g>
<g id="_x23_28353dff">
	<path class="st128" d="M145.9,173.7c5.6-8.1,9.7,10.7,10.9,10.5c0.4-5.7,0.7-1,2.2,0.7c1.4,0.2,2.7,0.3,4.1,0.5
		c-1.4,0.4-2.8,0.8-4.1,1.6c-2.1,1.1-4.7,1.1-4.5,4.2c-0.1-0.6-0.4-1.8-0.5-2.4c-0.2-1.2-0.6-2.5-0.9-3.7
		C155.3,180.3,151.3,173.5,145.9,173.7z"/>
</g>
<g id="_x23_a7a7a6ff">
	<path class="st129" d="M157.1,173.4c1.2-0.9,4.5-1.3,4.7,0.6C160.2,174.1,158.4,174.4,157.1,173.4z"/>
</g>
<g id="_x23_ecb649ff">
	<path class="st130" d="M52.1,180.1c0.6-2.8,3.2-9.5,3.2-2.9c0.3,3.7,2.3,6.9,4.4,9.9c1,2.2,4.1,6.1-3.5,2.7
		C53.6,187.5,52.1,183.7,52.1,180.1z"/>
</g>
<g id="_x23_fdc155ff">
	<path class="st131" d="M84.8,179.2c2-1.8,4-3.6,5.9-5.4c1.8,2.1,4.4,3.1,6.8,4.3c-0.8,2.3-1.8,4.7-3.2,6.8
		C91.3,182.8,87,182.3,84.8,179.2z"/>
</g>
<g id="_x23_6a562fff">
	<path class="st132" d="M99.2,173.9c0.5,0.2,1.5,0.5,2,0.7c-2.2,5.2-5.3,10.1-7.3,15.4c8.8,1.5,9.6-9.3,7.3-15.4
		c0.4,0.1,1.2,0.4,1.6,0.5c1.6,0.8,1.3,2.6,1.3,4.1c-0.1,1.2-0.1,2.4,0,3.6c0.4,3.4-2.2,6-4.4,8.2c-3,0-6,0.1-8.8-0.6
		c1.2-1.8,2.4-3.6,3.5-5.4c1.4-2.1,2.3-4.4,3.2-6.8C98.1,176.8,98.7,175.3,99.2,173.9z"/>
</g>
<g id="_x23_fcc766ff">
	<path class="st133" d="M65.3,175.1c1.6,1.4,3.2,2.8,4.8,4.2c-2.6,2.9-7.9,3.4-8.5,7.7c-0.2-0.3-0.7-0.9-0.9-1.2
		c-1-2.2-2.1-4.3-2.9-6.6C60.5,178.1,63,176.7,65.3,175.1z"/>
</g>
<g id="_x23_eeb43fff">
	<path class="st134" d="M93.9,190c2-5.3,5.1-10.2,7.3-15.4C103.5,180.7,102.7,191.5,93.9,190z"/>
</g>
<g id="_x23_595959ff">
	<path class="st135" d="M164.2,175.4c5.2,1.9,5.1,8.8,4.7,13.7c-3.4-0.2-6.3-2.8-9.9-2.1c1.3-0.8,2.7-1.2,4.1-1.6
		c7.4,2.9,3.2-9.8-2.4-8.6l0.3-0.6C162.2,175.8,163.2,175.6,164.2,175.4z"/>
</g>
<g id="_x23_dadcddff">
	<path class="st136" d="M159,184.9c0-2.9,0.1-5.8,1.7-8.2c5.6-1.1,9.7,11.6,2.4,8.6C161.8,185.2,160.4,185,159,184.9z"/>
</g>
<g id="_x23_a7a7a7ff">
	<path class="st137" d="M50.9,182.8c-1.8-0.1-1.8-4.5,0-4.6C51,179.7,51,181.3,50.9,182.8z"/>
</g>
<g id="_x23_dedfdfff">
	<path class="st138" d="M128,189.1c0.6-4.2,0.3-10.8,5.9-11.1c1.1,1.6,1.9,3.4,2.6,5.2c-0.5,1.3-1,2.5-1.6,3.7
		C132.5,187.6,130.3,188.7,128,189.1z"/>
</g>
<g id="_x23_f4d69eff">
	<path class="st139" d="M70.2,179.3c0.4,0.1,1.2,0.4,1.6,0.5c0.1,3.1,0.3,6.2,0.4,9.3l-0.9,0.1c-1.6,0.2-4.9,0.6-6.5,0.9l-0.6,0
		c-0.8-1.1-1.6-2.1-2.5-3.2C62.2,182.7,67.6,182.2,70.2,179.3z"/>
</g>
<g id="_x23_938a79ff">
	<path class="st140" d="M71.8,179.8c3.6-2.4,2.2,2.2,2.1,5c-0.6,1.4-1.1,2.9-1.7,4.3C72,186,71.9,182.9,71.8,179.8z"/>
</g>
<g id="_x23_8b7f67ff">
	<path class="st141" d="M81.2,184.8c-0.3-2.9-1.6-7.5,1.9-4.8c-0.1,3.4-0.1,6.8-0.2,10.2C82.4,188.9,81.6,186.2,81.2,184.8z"/>
</g>
<g id="_x23_f4ce86ff">
	<path class="st142" d="M83.1,180.1c0.4-0.2,1.3-0.6,1.7-0.8c2.2,3.1,6.6,3.6,9.6,5.7c-1.1,1.8-2.3,3.6-3.5,5.4l-0.6-0.1
		c-2.4-1.2-4.6-1.3-6.7-0.1l-0.7,0.1C83,186.9,83,183.5,83.1,180.1z"/>
</g>
<g id="_x23_aaaaaaff">
	<path class="st143" d="M104.1,179.2c1.8-0.2,1.8,3.9,0,3.6C104,181.6,104,180.4,104.1,179.2z"/>
</g>
<g id="_x23_e4e4e5ff">
	<path class="st144" d="M143.8,181.8c3-5.9,7.6-0.6,9.2,3.2c0.3,1.2,0.7,2.4,0.9,3.7c-2.2,2.1-2.8,9.8-6.8,6.1
		C142.3,191.9,143.3,186.5,143.8,181.8z"/>
</g>
<g id="_x23_27333bff">
	<path class="st145" d="M136.4,183.1c2.7-7.1,1.2,9.2,2.6,1.8c-0.3-3.7,1.7,0.2,2.8,1.2c-0.1,1.3-0.2,2.7-0.4,4
		c-1.8-0.6-3.6-1-5.3-1.5c-0.3-0.4-1-1.3-1.3-1.7C135.4,185.7,135.9,184.4,136.4,183.1z"/>
</g>
<g id="_x23_666767ff">
	<path class="st146" d="M141.8,186.1c0.5-1.5,1.1-3,2-4.3c-0.5,4.7-1.5,10.1,3.4,13c4,3.8,4.6-3.9,6.8-6.1c0.1,0.6,0.4,1.8,0.5,2.4
		c-0.2,3-2.6,5.6-4.7,7.7c-3.5-1.8-7.7-4.6-8.3-8.7C141.6,188.8,141.7,187.5,141.8,186.1z"/>
</g>
<g id="_x23_654914ff">
	<path class="st147" d="M72.1,189.1c0.6-1.4,1.1-2.9,1.7-4.3c-2.5,7.5,10.1,7.4,7.3,0c0.4,1.4,1.3,4.1,1.7,5.5
		C80.2,189.6,71.8,194,72.1,189.1z"/>
</g>
<g id="_x23_f9b736ff">
	<path class="st148" d="M73.8,184.8c2.4,1.2,5,1.2,7.3,0C84,192.3,71.3,192.3,73.8,184.8z"/>
</g>
<g id="_x23_eceef1ff">
	<path class="st149" d="M64.7,190.1c1.6-0.2,4.9-0.7,6.5-0.9C70.7,192.4,67.1,190.1,64.7,190.1z"/>
</g>
<g id="_x23_8d8e8eff">
	<path class="st150" d="M71.3,189.3l0.9-0.1c-0.3,4.8,8.1,0.5,10.8,1.2l0.7-0.1c2.2,0.1,4.5,0.1,6.7,0.1l0.6,0.1
		c2.9,0.8,5.9,0.6,8.8,0.6c-12.4,2.6-30.2,1.9-44.8,0.8l0.4-0.8c3-0.1,5.9-0.5,8.8-0.9l0.6,0C67.1,190.1,70.7,192.4,71.3,189.3z"/>
</g>
<g id="_x23_edeff3ff">
	<path class="st151" d="M83.6,190.2c2.1-1.2,4.3-1.2,6.7,0.1C88.1,190.3,85.8,190.3,83.6,190.2z"/>
</g>
<g id="_x23_faceaeff">
	<path class="st152" d="M53.1,200.2c-1-5.4,6.7-2,2.9,2.8c-5,8.7,3.2,3.5,2.9,6.4C50.7,214,59,196.2,53.1,200.2z"/>
</g>
<g id="_x23_f46d13ff">
	<path class="st153" d="M53.1,200.2c5.9-4-2.4,13.8,5.8,9.2c0.6,0.1,1.7,0.3,2.3,0.4c7.9,2.5-2.7,3.1-6.5,3.9
		c-1.1,4.2,1.3,11.2-4.9,11.1L49,225c0-3.5,0-6.9-0.4-10.4l0.1-0.7c-0.1-1.3-0.3-3.8-0.4-5.1c-0.1-1.5-0.2-3-0.4-4.5
		C48,200.2,50.2,200.7,53.1,200.2z"/>
</g>
<g id="_x23_fec36fff">
	<path class="st154" d="M68.4,201.9c-0.3-1.2,0.7-2.3,1.5-3.1c0.2,8.8,0.2,17.5,0.1,26.3c-8.5,3.6-5.8-4.8-5.7-9.3
		c0.8,3.4-0.8,10,4.7,8.3C68.9,216.6,69.6,209.2,68.4,201.9z"/>
</g>
<g id="_x23_f7771cff">
	<path class="st155" d="M79.2,199c1.2,1.3,2.9,5.6,4.9,3.3c0.3-0.7,2-3.4,1.9-1c-0.3,2.2,1.9,3.3,3.8,2.6l1.2-0.1
		c0.2,0.3,0.8,0.9,1,1.2c-0.7,2.4-1.5,4.7-2.2,7l-0.8,0c-1.9-4.7-6.8-6.1-10.2-2c-2.1,1.7-1.5,5.9,0,7.9c0.2,0.3,0.6,0.8,0.8,1.1
		c0.8,1.7,2.7,2.3,4.3,3.2c2.3,2,4-0.8,5.4-2.4c0.9,1.8,1.8,3.5,2.8,5.3c-1.6,1.2-3.2,2.9-5.4,2.9c-1.7,0-5,0-6.6,0
		c-3.9-1-7.6-4.9-8.2-9c0.1-3.8-0.8-8.1,1.7-11.3C74.8,204.2,79.1,202.8,79.2,199z"/>
</g>
<g id="_x23_fdd2b3ff">
	<path class="st156" d="M105.3,199.8c-0.1,0,4.6-0.2,4.4,0.1C109,202.5,105.8,202.5,105.3,199.8z"/>
</g>
<g id="_x23_f97d20ff">
	<path class="st157" d="M126.3,198.9c1.8,4.8,7.9,2.2,8.9,2c1.8,1.9,1.6,4.6,2,7c-2.9,4.6-8.9,7.6-10.2,13.1c2.5,0.7,3.5-0.6,3.3-3
		c1.5,0.9,2.5,3.1,4.5,2.9c0.5-5.5,7.3,5.9,2.3,5.1c-5,0-10,0-15,0c-6.1,1.3-2-7.2-1.8-10.7c2.4,1.2,3.8-0.7,5.2-2.4
		c0.9-0.9,1.8-1.7,2.6-2.8c5.6-5.2-4.2-4-8-4.3c0.1-0.5,0.2-1.6,0.3-2.1c0.8-0.7,1.6-1.3,2.5-1.9
		C125.2,202.4,126.5,201.5,126.3,198.9z"/>
</g>
<g id="_x23_feca98ff">
	<path class="st158" d="M63.9,208.9c-0.2-1.1-0.7-11.6,1.7-8C64.4,202.9,66.3,208,63.9,208.9z"/>
</g>
<g id="_x23_fa7a1eff">
	<path class="st159" d="M105.3,199.8c0.5,2.7,3.7,2.7,4.4,0.1c1.2,2.6,4,1.9,6.3,1.9c0.6,1,1.1,2,1.6,3c0.8,2-2.2,2.3-3.5,2.1
		c-4.9-1.3-2.4,3.9-2.3,6.7c-0.5,4.1-0.7,8.2-0.9,12.3c-10.2,2.4-5.3-12.3-6.2-18.1c-0.6-1.7-3.3-1.7-4.8-1.4l-1,0.1
		c0.2-1.7,0.3-3.3,0.8-4.9C101.8,201.5,105.5,203.2,105.3,199.8z"/>
</g>
<g id="_x23_fecd86ff">
	<path class="st160" d="M116,201.8c0.4-4.5,3.9,1.2,1.6,3C117.1,203.8,116.6,202.8,116,201.8z"/>
</g>
<g id="_x23_fbaf86ff">
	<path class="st161" d="M120.2,203.7c-1.8-2.5,1.6-5,2.5-1.9C121.8,202.4,121,203.1,120.2,203.7z"/>
</g>
<g id="_x23_f97a1dff">
	<path class="st162" d="M143.2,208.2c-8.6-1.3,1.4-11.5,4.9-6.4c6.2-0.8,6.2,4.9,1.8,6.2c0.6,3.9,0.5,7.8,0.2,11.7
		c2.6,0.4,7.4,4.6,2.9,6.2c-4.3,0-8.7,0-13,0c-1-4.2,3.7-6.7,3.1-10.9C142.7,212.9,144.8,209.5,143.2,208.2z"/>
</g>
<g id="_x23_f7a265ff">
	<path class="st163" d="M161.3,200.8c2.9-4,1.4,8.6,1.8,10.2C162.1,207.7,161.5,204.3,161.3,200.8z"/>
</g>
<g id="_x23_f8bf9aff">
	<path class="st164" d="M180.4,200.9c2.8-4.3,1.3,8.7,1.6,10.3C181.3,207.8,180.7,204.3,180.4,200.9z"/>
</g>
<g id="_x23_fe971dff">
	<path class="st165" d="M63.9,208.9c2.4-0.9,0.5-6,1.7-8c0.7,0.2,2.1,0.7,2.8,0.9c1.2,7.3,0.5,14.8,0.5,22.1
		c-5.5,1.7-3.9-4.9-4.7-8.3c-2-3.2-6.5-1.2-9.6-2.1c3.8-0.7,14.4-1.3,6.5-3.9C61.4,208.9,62.3,208.6,63.9,208.9z"/>
</g>
<g id="_x23_ffc399ff">
	<path class="st166" d="M86.1,201.2c1.3,0.1,3.3,1.4,3.8,2.6C88,204.5,85.7,203.4,86.1,201.2z"/>
</g>
<g id="_x23_fdb493ff">
	<path class="st167" d="M98.9,206.6c-2.1-0.2-1.2-7.4,0.8-4.9C99.2,203.3,99.1,205,98.9,206.6z"/>
</g>
<g id="_x23_fecf90ff">
	<path class="st168" d="M135.2,200.9c4.5-1.6,3.9,6.4,2,7C136.8,205.4,137,202.8,135.2,200.9z"/>
</g>
<g id="_x23_f9a271ff">
	<path class="st169" d="M156,210.8c-1-0.2-0.5-12.8,4-8.8C157.9,204.5,157.9,208.1,156,210.8z"/>
</g>
<g id="_x23_f5781dff">
	<path class="st170" d="M161.3,200.8c0.2,3.5,0.8,6.9,1.8,10.2c0.7,3.6-0.9,10.6,5.6,10.4c2.8,0.2,5,1.2,4.5,4.5
		c-5.3,0.4-11.3,2.3-16.1-1c-0.4-4.4,0.7-9-0.8-13.2l-0.2-0.8c1.9-2.7,1.9-6.2,4-8.8C160.3,201.7,161,201.1,161.3,200.8z"/>
</g>
<g id="_x23_fa761bff">
	<path class="st171" d="M180.4,200.9c0.4,3.4,0.9,6.9,1.6,10.3c-0.1,4-1.8,7.8,3.2,10.2c2.1,0.9,4.3,1.1,6.6,0.7
		c3.5,0.4,2.4-4.2,4.2-6c3.1-3.4,3.9-8.2,4-12.7c2.6,1.6,3.8-1.3,5.8-2c1.3,1.3,3.3,2.5,3.3,4.6c-0.1,3,0.6,6.5-2,8.5
		c-1.3-2.9-3.1-6.3-4.1-1.3c-2.7,3.6,1.4,2.9,4,2.8c5.6,2.5-2.1,3.2-5.4,3.8c-2.9,1,0.3,7.1-2.8,6.4c-5-1-10.2-0.5-15.2,0.6
		c-4.8,1.6-9.5-1.5-8.2-6.7c0.4-2.3,1.5-4.8,0-6.9c-3.3-3.5,2-6.8,0.7-10.9C177.9,202.7,179.5,202.8,180.4,200.9z"/>
</g>
<g id="_x23_feb361ff">
	<path class="st172" d="M148.1,201.9c7.8-4.7,8.6,8.9,1.8,6.2C154.3,206.8,154.2,201.1,148.1,201.9z"/>
</g>
<g id="_x23_fec886ff">
	<path class="st173" d="M91.1,203.8c1.2-2.4,4.2,1.4,2.7,3.1c-0.5-0.6-1.1-1.2-1.7-1.8C91.8,204.7,91.3,204.1,91.1,203.8z"/>
</g>
<g id="_x23_ffb490ff">
	<path class="st174" d="M48.3,208.8c-2,0.1-2.2-4.4-0.4-4.5C48.1,205.8,48.2,207.3,48.3,208.8z"/>
</g>
<g id="_x23_fe981aff">
	<path class="st175" d="M92.1,205c0.6,0.6,1.1,1.2,1.7,1.8c3.7,5.2,4.2,14.4-1.6,18.3c-0.9-1.8-1.9-3.5-2.8-5.3l-0.1-0.8
		c1.5-2.5,1.7-4.8,0.6-7.1C90.6,209.7,91.4,207.4,92.1,205z"/>
</g>
<g id="_x23_f9ba91ff">
	<path class="st176" d="M99.9,206.5c1.5-0.2,4.2-0.3,4.8,1.4C103.1,208.7,100.8,208.1,99.9,206.5z"/>
</g>
<g id="_x23_fcc6a1ff">
	<path class="st177" d="M119.9,205.9c3.8,0.3,13.6-0.9,8,4.3C129.9,204.1,121,209.2,119.9,205.9z"/>
</g>
<g id="_x23_fe9b1fff">
	<path class="st178" d="M209.1,205.9c0.2,0.3,0.7,0.8,0.9,1.1c1.4,2.4,0.8,6.4,3.1,7.8c4.7,2.8,6.5,16-2.9,11.1
		c0.4-5.5-3.5-6.9-8.5-6.2c3.2-0.5,11-1.3,5.4-3.8c0-0.4,0-1.1,0-1.5C209.7,212.4,209,208.9,209.1,205.9z"/>
</g>
<g id="_x23_fff7f2ff">
	<path class="st179" d="M79,210c3.3-4.2,8.3-2.7,10.2,2c0,1.8,0.1,5.3,0.2,7.1l0.1,0.8c-1.3,1.6-3.1,4.4-5.4,2.4
		c0-2.6-2-3.5-4.3-3.2c-0.2-0.3-0.6-0.8-0.8-1.1C78.9,215.3,78.9,212.6,79,210z"/>
</g>
<g id="_x23_ffbe8fff">
	<path class="st180" d="M111.8,213.7c-0.1-2.8-2.6-8,2.3-6.7C109.5,208.6,116.9,212.6,111.8,213.7z"/>
</g>
<g id="_x23_fed095ff">
	<path class="st181" d="M210.1,206.9c3.1,1.4,3.7,4.5,3.1,7.8C210.8,213.3,211.4,209.3,210.1,206.9z"/>
</g>
<g id="_x23_fd9d6cff">
	<path class="st182" d="M71.9,219c-0.8-1.1-3.9-12.2,1.7-11.3C71.2,211,72,215.2,71.9,219z"/>
</g>
<g id="_x23_f9c6a3ff">
	<path class="st183" d="M143.2,208.2c1.6,1.3-0.5,4.7-0.2,6.8C140.8,213.7,140.8,209.7,143.2,208.2z"/>
</g>
<g id="_x23_fcba99ff">
	<path class="st184" d="M48.3,208.8c0.1,1.3,0.3,3.8,0.4,5.1C47,212.9,46.8,210,48.3,208.8z"/>
</g>
<g id="_x23_f5a66dff">
	<path class="st185" d="M78.9,217.9c-1.4-2-2-6.3,0-7.9C78.9,212.6,78.9,215.3,78.9,217.9z"/>
</g>
<g id="_x23_f9b889ff">
	<path class="st186" d="M125.3,212.9c-1.6-1.7,0.9-4.2,2.6-2.8C127.2,211.2,126.2,212,125.3,212.9z"/>
</g>
<g id="_x23_fee3ceff">
	<path class="st187" d="M203.1,213.2c1-5,2.8-1.7,4.1,1.3c0,0.4,0,1.1,0,1.5C204.4,216,200.4,216.7,203.1,213.2z"/>
</g>
<g id="_x23_ffc38fff">
	<path class="st188" d="M89.1,212l0.8,0c1.1,2.3,0.9,4.6-0.6,7.1C89.2,217.3,89.2,213.7,89.1,212z"/>
</g>
<g id="_x23_fcbc97ff">
	<path class="st189" d="M156.2,211.6c1.5,4.2,0.4,8.8,0.8,13.2C154.6,223.2,156.3,215.7,156.2,211.6z"/>
</g>
<g id="_x23_fec3a3ff">
	<path class="st190" d="M175.5,213c1.5,2.1,0.4,4.5,0,6.9C174.3,217.9,174.2,215,175.5,213z"/>
</g>
<g id="_x23_f59857ff">
	<path class="st191" d="M49.8,224.8c6.2,0,3.8-7,4.9-11.1C54.8,218.6,57.6,227.6,49.8,224.8z"/>
</g>
<g id="_x23_ffa464ff">
	<path class="st192" d="M110.9,226c0.2-4.1,0.4-8.2,0.9-12.3C110.5,216.6,114.5,225.1,110.9,226z"/>
</g>
<g id="_x23_fdbe9fff">
	<path class="st193" d="M48.6,214.6c0.4,3.4,0.4,6.9,0.4,10.4C46.2,224.2,48.4,217.4,48.6,214.6z"/>
</g>
<g id="_x23_fbbb8fff">
	<path class="st194" d="M79.7,219.1c2.3-0.3,4.3,0.6,4.3,3.2C82.4,221.4,80.6,220.8,79.7,219.1z"/>
</g>
<g id="_x23_feba65ff">
	<path class="st195" d="M168.7,221.3c3.5-2.2,9.4,2,4.5,4.5C173.7,222.6,171.5,221.5,168.7,221.3z"/>
</g>
<g id="_x23_f7b07dff">
	<path class="st196" d="M185.2,221.4c1.8-0.7,5.7-1.4,6.6,0.7C189.4,222.5,187.2,222.2,185.2,221.4z"/>
</g>
<g id="_x23_fbceaeff">
	<path class="st197" d="M183.7,226.6c5-1.2,10.2-1.6,15.2-0.6C196.2,228.3,188.5,226.9,183.7,226.6z"/>
</g>
<g id="_x23_fcc8a2ff">
	<path class="st198" d="M122,226c5-0.1,10,0,15,0C134.9,227.8,124.1,227.8,122,226z"/>
</g>
<g id="_x23_fcbf92ff">
	<path class="st199" d="M140,226c4.3,0,8.7,0,13,0C151.4,227.4,141.8,228.5,140,226z"/>
</g>
<g id="_x23_fdac73ff">
	<path class="st200" d="M80.2,228.1c1.7,0,5,0,6.6,0C85.9,229.9,81,229.9,80.2,228.1z"/>
</g>
</svg>
