<?xml version="1.0" encoding="UTF-8" ?>
<!DOCTYPE svg PUBLIC "-//W3C//DTD SVG 1.1//EN" "http://www.w3.org/Graphics/SVG/1.1/DTD/svg11.dtd">
<svg width="250pt" height="218pt" viewBox="0 0 250 218" version="1.1" xmlns="http://www.w3.org/2000/svg">
<g id="#ffffffff">
<path fill="#ffffff" opacity="1.00" d=" M 0.00 0.00 L 250.00 0.00 L 250.00 218.00 L 0.00 218.00 L 0.00 0.00 M 76.59 20.53 C 76.56 36.52 76.52 52.51 76.61 68.49 C 78.07 68.57 79.54 68.63 81.00 68.68 C 129.84 68.77 178.68 68.58 227.51 68.78 C 227.92 67.21 228.59 65.69 228.46 64.03 C 228.43 52.69 228.41 41.34 228.45 30.00 C 228.40 26.74 228.88 23.36 227.48 20.30 C 177.19 20.63 126.88 20.17 76.59 20.53 M 17.19 87.25 L 17.23 87.85 C 16.47 90.50 16.07 93.24 16.15 96.00 C 16.38 108.02 16.19 120.04 16.20 132.06 C 16.51 133.74 15.86 136.41 17.96 137.06 C 20.22 137.77 22.63 137.61 24.96 137.67 C 37.00 137.50 49.04 137.61 61.07 137.65 C 62.79 137.43 65.04 137.87 66.19 136.26 C 66.77 134.24 66.71 132.11 66.76 130.04 C 66.61 117.33 66.63 104.62 66.77 91.91 C 66.87 90.34 66.40 88.82 65.53 87.53 C 49.42 87.26 33.30 87.79 17.19 87.25 M 76.75 87.75 C 76.35 96.50 76.67 105.25 76.58 114.00 C 76.68 121.40 76.29 128.80 76.85 136.18 C 85.55 136.88 94.28 136.34 103.00 136.50 C 130.40 136.36 157.82 136.77 185.22 136.30 C 185.51 120.11 185.49 103.91 185.23 87.72 C 153.83 87.23 122.41 87.66 91.00 87.50 C 86.25 87.46 81.49 87.42 76.75 87.75 M 76.55 155.42 C 76.08 165.60 76.52 175.80 76.39 186.00 C 76.53 191.49 75.92 197.02 76.59 202.49 C 78.20 204.39 81.00 204.22 83.26 204.49 C 93.84 204.72 104.43 204.39 115.01 204.62 C 118.55 204.72 122.10 204.47 125.57 203.77 C 125.80 187.62 125.87 171.46 125.55 155.31 C 117.75 154.08 109.85 154.92 102.00 154.71 C 93.52 155.00 84.95 153.94 76.55 155.42 Z" />
</g>
<g id="#02a5c2ff">
<path fill="#02a5c2" opacity="1.00" d=" M 76.59 20.53 C 126.88 20.17 177.19 20.63 227.48 20.30 C 228.88 23.36 228.40 26.74 228.45 30.00 C 228.41 41.34 228.43 52.69 228.46 64.03 C 228.59 65.69 227.92 67.21 227.51 68.78 C 178.68 68.58 129.84 68.77 81.00 68.68 C 79.54 68.63 78.07 68.57 76.61 68.49 C 76.52 52.51 76.56 36.52 76.59 20.53 Z" />
</g>
<g id="#5fcadeff">
<path fill="#5fcade" opacity="1.00" d=" M 17.19 87.25 C 33.30 87.79 49.42 87.26 65.53 87.53 C 64.78 103.41 65.78 119.33 65.04 135.21 C 57.37 135.85 49.68 135.46 42.00 135.50 C 33.94 135.44 25.87 135.86 17.82 135.23 C 16.98 119.45 18.16 103.63 17.23 87.85 L 17.19 87.25 Z" />
<path fill="#5fcade" opacity="1.00" d=" M 76.75 87.75 C 81.49 87.42 86.25 87.46 91.00 87.50 C 122.41 87.66 153.83 87.23 185.23 87.72 C 185.49 103.91 185.51 120.11 185.22 136.30 C 157.82 136.77 130.40 136.36 103.00 136.50 C 94.28 136.34 85.55 136.88 76.85 136.18 C 76.29 128.80 76.68 121.40 76.58 114.00 C 76.67 105.25 76.35 96.50 76.75 87.75 Z" />
</g>
<g id="#abebf4ff">
<path fill="#abebf4" opacity="1.00" d=" M 16.15 96.00 C 16.07 93.24 16.47 90.50 17.23 87.85 C 18.16 103.63 16.98 119.45 17.82 135.23 C 25.87 135.86 33.94 135.44 42.00 135.50 C 49.68 135.46 57.37 135.85 65.04 135.21 C 65.78 119.33 64.78 103.41 65.53 87.53 C 66.40 88.82 66.87 90.34 66.77 91.91 C 66.63 104.62 66.61 117.33 66.76 130.04 C 66.71 132.11 66.77 134.24 66.19 136.26 C 65.04 137.87 62.79 137.43 61.07 137.65 C 49.04 137.61 37.00 137.50 24.96 137.67 C 22.63 137.61 20.22 137.77 17.96 137.06 C 15.86 136.41 16.51 133.74 16.20 132.06 C 16.19 120.04 16.38 108.02 16.15 96.00 Z" />
<path fill="#abebf4" opacity="1.00" d=" M 76.55 155.42 C 84.95 153.94 93.52 155.00 102.00 154.71 C 109.85 154.92 117.75 154.08 125.55 155.31 C 125.87 171.46 125.80 187.62 125.57 203.77 C 122.10 204.47 118.55 204.72 115.01 204.62 C 104.43 204.39 93.84 204.72 83.26 204.49 C 81.00 204.22 78.20 204.39 76.59 202.49 C 75.92 197.02 76.53 191.49 76.39 186.00 C 76.52 175.80 76.08 165.60 76.55 155.42 Z" />
</g>
</svg>
