<?xml version="1.0" encoding="utf-8"?>
<!-- Generator: Adobe Illustrator 26.0.3, SVG Export Plug-In . SVG Version: 6.00 Build 0)  -->
<svg version="1.1" id="Layer_1" xmlns="http://www.w3.org/2000/svg" xmlns:xlink="http://www.w3.org/1999/xlink" x="0px" y="0px"
	 viewBox="0 0 250 242" style="enable-background:new 0 0 250 242;" xml:space="preserve">
<style type="text/css">
	.st0{fill:#D1AD57;}
	.st1{fill:#D7BB5E;}
	.st2{fill:#935F31;}
	.st3{fill:#E6D26B;}
	.st4{fill:#CDA95C;}
	.st5{fill:#9C6535;}
	.st6{fill:#744C28;}
	.st7{fill:#BF954F;}
	.st8{fill:#EAC26B;}
	.st9{fill:#FAF778;}
	.st10{fill:#D5B560;}
	.st11{fill:#D4B55F;}
	.st12{fill:#A57F48;}
	.st13{fill:#976F3D;}
	.st14{fill:#D5B660;}
	.st15{fill:#D7B960;}
	.st16{fill:#9B7C41;}
	.st17{fill:#E4D067;}
	.st18{fill:#997344;}
	.st19{fill:#AF814B;}
	.st20{fill:#E2CE68;}
	.st21{fill:#B1924E;}
	.st22{fill:#7A4E29;}
	.st23{fill:#AC9055;}
	.st24{fill:#775C37;}
	.st25{fill:#9E7548;}
	.st26{fill:#6C4C28;}
	.st27{fill:#886237;}
	.st28{fill:#9C774C;}
	.st29{fill:#E6D66A;}
	.st30{fill:#BFA259;}
	.st31{fill:#95774B;}
	.st32{fill:#D8BF64;}
	.st33{fill:#96703C;}
	.st34{fill:#946E3E;}
	.st35{fill:#AC965A;}
	.st36{fill:#6A4C2A;}
	.st37{fill:#744C24;}
	.st38{fill:#A07E49;}
	.st39{fill:#77542D;}
	.st40{fill:#896A3D;}
	.st41{fill:#D7BF63;}
	.st42{fill:#DDC563;}
	.st43{fill:#BFA563;}
	.st44{fill:#DEC765;}
	.st45{fill:#684D2A;}
	.st46{fill:#64431F;}
	.st47{fill:#7B5C35;}
	.st48{fill:#915E30;}
	.st49{fill:#74502B;}
	.st50{fill:#6A502D;}
	.st51{fill:#856B38;}
	.st52{fill:#A79B5F;}
	.st53{fill:#D5BC66;}
	.st54{fill:#B89856;}
	.st55{fill:#AD9157;}
	.st56{fill:#6B4E2D;}
	.st57{fill:#D4B661;}
	.st58{fill:#D5B65F;}
	.st59{fill:#7D5F3C;}
	.st60{fill:#957D4C;}
	.st61{fill:#221A10;}
	.st62{fill:#B08D50;}
	.st63{fill:#73542D;}
	.st64{fill:#6E4F2B;}
	.st65{fill:#322918;}
	.st66{fill:#6E4726;}
	.st67{fill:#724A27;}
	.st68{fill:#D5B65E;}
	.st69{fill:#A59053;}
	.st70{fill:#E8D267;}
	.st71{fill:#D4B560;}
	.st72{fill:#AA8E53;}
	.st73{fill:#977A45;}
	.st74{fill:#6F4D29;}
	.st75{fill:#83562C;}
	.st76{fill:#A2824B;}
	.st77{fill:#BD9954;}
	.st78{fill:#8C693E;}
	.st79{fill:#C7A862;}
	.st80{fill:#D3B55F;}
	.st81{fill:#C0A464;}
	.st82{fill:#C0AF6B;}
	.st83{fill:#967746;}
	.st84{fill:#D7B65F;}
	.st85{fill:#BCA05D;}
	.st86{fill:#CCAD63;}
	.st87{fill:#927C44;}
	.st88{fill:#C3A765;}
	.st89{fill:#876739;}
	.st90{fill:#D8BD65;}
	.st91{fill:#6F4D2A;}
	.st92{fill:#3B301D;}
	.st93{fill:#967542;}
	.st94{fill:#D5B561;}
	.st95{fill:#E0C862;}
	.st96{fill:#D2B86B;}
	.st97{fill:#CFAF6B;}
	.st98{fill:#D8C267;}
	.st99{fill:#705D30;}
	.st100{fill:#856336;}
	.st101{fill:#7B643A;}
	.st102{fill:#E0C174;}
	.st103{fill:#B59251;}
	.st104{fill:#D8BF60;}
	.st105{fill:#D9BF6F;}
	.st106{fill:#A17E47;}
	.st107{fill:#CFB25E;}
	.st108{fill:#D4B760;}
	.st109{fill:#7F6945;}
	.st110{fill:#88633A;}
	.st111{fill:#815A2F;}
	.st112{fill:#9F8352;}
	.st113{fill:#926E3E;}
	.st114{fill:#785328;}
	.st115{fill:#654A25;}
	.st116{fill:#B59664;}
	.st117{fill:#D9C165;}
	.st118{fill:#A2824C;}
	.st119{fill:#8A6339;}
	.st120{fill:#856641;}
	.st121{fill:#7B603E;}
	.st122{fill:#DBC068;}
	.st123{fill:#795630;}
	.st124{fill:#9F7E48;}
	.st125{fill:#68472A;}
	.st126{fill:#93794B;}
	.st127{fill:#D7BF68;}
	.st128{fill:#77572C;}
	.st129{fill:#70552F;}
	.st130{fill:#A58A53;}
	.st131{fill:#947445;}
	.st132{fill:#BDA364;}
	.st133{fill:#836238;}
	.st134{fill:#745A3D;}
	.st135{fill:#937745;}
	.st136{fill:#583D1B;}
	.st137{fill:#D5B75F;}
	.st138{fill:#89683C;}
	.st139{fill:#7C5B34;}
	.st140{fill:#EFDC7A;}
	.st141{fill:#714D25;}
	.st142{fill:#CAB45E;}
	.st143{fill:#846B3F;}
	.st144{fill:#523A1B;}
	.st145{fill:#D9B466;}
	.st146{fill:#775729;}
	.st147{fill:#85643A;}
	.st148{fill:#CCB562;}
	.st149{fill:#563C1F;}
	.st150{fill:#77542E;}
	.st151{fill:#D3B65F;}
	.st152{fill:#A08549;}
	.st153{fill:#7A532B;}
	.st154{fill:#745127;}
	.st155{fill:#D5BF63;}
	.st156{fill:#997545;}
	.st157{fill:#916F3F;}
	.st158{fill:#7D6338;}
	.st159{fill:#DAC060;}
	.st160{fill:#D5B55B;}
	.st161{fill:#A08550;}
	.st162{fill:#BC9149;}
	.st163{fill:#D1BD60;}
	.st164{fill:#7E6239;}
	.st165{fill:#9E8747;}
	.st166{fill:#FDFD96;}
	.st167{fill:#926A38;}
	.st168{fill:#D6BD61;}
	.st169{fill:#D5BC60;}
	.st170{fill:#866837;}
	.st171{fill:#846337;}
	.st172{fill:#CFA550;}
	.st173{fill:#D9C061;}
	.st174{fill:#D8BE61;}
	.st175{fill:#996E32;}
	.st176{fill:#E3C26A;}
	.st177{fill:#846034;}
	.st178{fill:#A68B54;}
	.st179{fill:#976A40;}
	.st180{fill:#92652D;}
	.st181{fill:#A87F45;}
	.st182{fill:#C7AB66;}
	.st183{fill:#D5B55E;}
	.st184{fill:#8A6F3F;}
	.st185{fill:#B89459;}
	.st186{fill:#D8BF5D;}
	.st187{fill:#B18A49;}
	.st188{fill:#D6BB63;}
	.st189{fill:#A57B34;}
	.st190{fill:#DABD5D;}
	.st191{fill:#BB9143;}
	.st192{fill:#B38C41;}
	.st193{fill:#F6E68E;}
	.st194{fill:#DAC25F;}
	.st195{fill:#947240;}
	.st196{fill:#C49A49;}
	.st197{fill:#D5B55F;}
	.st198{fill:#A8854B;}
	.st199{fill:#C9AE66;}
	.st200{fill:#C09A55;}
	.st201{fill:#D5B55D;}
	.st202{fill:#C6A862;}
	.st203{fill:#CCAF63;}
	.st204{fill:#DAC06F;}
	.st205{fill:#E5CA72;}
</style>
<g id="_x23_d1ad57ff">
	<path class="st0" d="M47.5,34.5C69.7,13.3,100.6,2,131.2,3.4c-3.2,0.5-6.3,1.8-8.8,4c-9,0.5-18,1.5-26.5,4.4
		c-26.1,7.4-49.3,24.8-63.2,48.2c-3.6,6-6.6,12.3-9.1,18.8c-3.3,8.3-5,17.1-5.9,26c-0.6,4.6-0.9,9.3-0.6,14
		c-0.1,1.5-0.2,3.1-0.3,4.6c-1.1-4.7-0.3-10.1-3.6-14C14.4,81.2,27.2,54,47.5,34.5z"/>
</g>
<g id="_x23_d7bb5eff">
	<path class="st1" d="M122.4,7.3c2.5-2.1,5.6-3.4,8.8-4c6.5,0.5,12.9,1.5,19.3,2.8c0.1,0.6,0.2,1.7,0.2,2.3c1.2,1,2.4,2,3.6,2.9
		C143.9,8.7,133.2,7,122.4,7.3z"/>
</g>
<g id="_x23_935f31ff">
	<path class="st2" d="M95.8,11.7c8.5-2.8,17.6-3.9,26.5-4.4c10.8-0.3,21.5,1.4,32,4c2.6,0.8,5.1,1.6,7.7,2.6
		c-1.8,0.5-3.6,1.1-5.4,0.4c-5.8-1.7-11.6-3.5-17.7-3.3c-2-0.1-2.8,1.9-4,3.1c-1.5,0.7-2.9,1.5-4.2,2.4c0.6,0.8,1.3,1.5,1.9,2.3
		c0.6,0.4,1.8,1.1,2.3,1.5c-3.1,0.6-6.2,0.8-9.2,1.2c0,1.9,0,3.7,0.1,5.6c-1-0.2-2.1-0.5-3.1-0.7c-0.6-1.6-1.2-3.1-1.8-4.7
		c-3.9,0.4-7.8,0.9-11.6,1.6c0.1,1.7,0.3,3.4,0.4,5.2c-1.1-0.1-2.3-0.2-3.4-0.3c-0.8-1.4-1.7-2.8-2.5-4.2c-0.6-1.1-1.2-2.2-1.9-3.3
		c0.2-1.8,0.3-3.5,0.5-5.3c1,1.3,2,2.5,3.1,3.8c3.1-0.5,6.1-1.1,9.1-1.8c-0.1-1.7-0.1-3.4-0.2-5c-1.9,0.3-3.7,0.9-5.4,1.7
		c-0.5-0.3-1.1-0.6-1.6-0.8c-0.1,1.3-0.3,2.7-0.4,4c-0.8-1-1.5-1.9-2.3-2.9c-2.9,0.1-5.7,0.9-8.3,2c0.1,1.4,0.2,2.9,0.3,4.3
		c-1.2-1.3-2.3-2.6-3.5-3.9c-0.1,0.9-0.4,2.6-0.5,3.4c-0.4,0-1.2-0.1-1.6-0.2c0.1-0.5,0.3-1.6,0.4-2.1c-0.7,0-2.1-0.1-2.8-0.1
		c3.6-2.2,7.5-3.9,11.4-5.5C98.7,12.1,97.3,11.9,95.8,11.7 M115.4,12.7c0.1,1.8,0.2,3.7,0.3,5.5c1.4-0.8,2.6-1.7,3.8-2.8
		c-0.1-1.3-0.2-2.6-0.2-4C118,11.8,116.7,12.3,115.4,12.7 M124.7,13.6c-0.1,1-0.1,1.9-0.2,2.9c1.3,0,2.6,0.1,3.9,0.1
		c-0.1-1-0.1-2-0.2-3C127.1,13.6,125.9,13.6,124.7,13.6z"/>
</g>
<g id="_x23_e6d26bff">
	<path class="st3" d="M150.5,6.2c7.6,1.6,15.1,4.1,21.9,7.6c2.4,2.3,4.4,5.1,6.6,7.6c-5.6-2.7-11.1-5.5-17-7.5
		c-2.5-0.9-5.1-1.8-7.7-2.6c-1.2-0.9-2.4-1.9-3.6-2.9C150.7,7.9,150.6,6.7,150.5,6.2z"/>
</g>
<g id="_x23_cda95cff">
	<path class="st4" d="M115.4,12.7c1.3-0.4,2.6-0.9,3.9-1.3c0.1,1.3,0.1,2.6,0.2,4c-1.2,1.1-2.4,2-3.8,2.8
		C115.6,16.3,115.5,14.5,115.4,12.7z"/>
	<path class="st4" d="M136.1,18.5c0.9-2.1,1.6-4.3,2.7-6.4c0.3,2,0.6,4,0.9,6.1c0.9-1,1.9-2,2.8-3.1c0.5,1.1,0.9,2.2,1.4,3.4
		c1.4-2.1,2.5-4.8,5.3-5.4c0.2,2.5,0.5,4.9,0.8,7.4c1.4-1.4,1.6-3.4,1.5-5.3c0.5,0.2,1.4,0.5,1.9,0.7c-0.1,1.7-0.2,3.4-0.2,5.1
		c2.2,0.2,4.4-0.3,6.4-1.2c-0.1,0.9-0.1,1.9-0.2,2.8c0.4-0.4,1.2-1.1,1.5-1.4c1.2,0.2,2.4,0.3,3.6,0.5c0.2,1,0.4,2,0.6,3.1
		c1.4-0.3,2.7-0.6,4.1-0.9c1.6,1.6,1.8,5.1-1.2,5c-6.4-3.9-13.5-6.2-20.7-8.1c-4.1-0.6-8.3-1.7-12.4-0.4c-0.6-0.4-1.7-1.1-2.3-1.5
		c0-0.9,0.1-2.6,0.1-3.4C133.9,16.2,134.5,18.8,136.1,18.5z"/>
</g>
<g id="_x23_9c6535ff">
	<path class="st5" d="M135,14.1c1.2-1.2,2-3.2,4-3.1c6.1-0.2,11.9,1.6,17.7,3.3c1.8,0.7,3.6,0.1,5.4-0.4c5.9,2,11.4,4.8,17,7.5
		c18.1,10.5,33.2,26.1,43,44.7c-1.8,0.6-3.4,1.6-4.7,2.9c0.2,1.5,0.3,3,0.4,4.5c-0.1,0.3-0.4,0.9-0.6,1.2c0.1-0.7,0.2-2,0.2-2.7
		c-1.4-0.8-2.7-1.5-4-2.3c1.5-1.1,3-2.1,4.4-3.3c-1.9-0.2-3.8-0.1-5.7,0.2c-0.6-0.9-1.2-1.8-1.8-2.7c1.4-1.4,2.7-2.7,4.1-4.1
		c-0.3-0.6-0.8-1.9-1.1-2.5c-2.1,0.4-4.1,0.9-6.1,1.4c0.3-1.5,0.6-2.9,0.9-4.3c-0.8,0.8-1.6,1.7-2.5,2.5c0-1.3,0.9-3-0.4-4
		c-1.2-0.7-2.5-1.1-3.7-1.6c0.3-0.7,0.7-1.5,1-2.2c-0.3-0.7-0.6-1.3-0.9-2c0.8-1.1,1.6-2.2,2.4-3.3c-3.5,0.4-7.1,1-10.6,0.2
		c0.5-2.4,1.1-4.8,1.6-7.3c-2.1,0.7-4.3,1.5-6.4,2.2c0.3-1.3,0.6-2.6,0.9-3.9c-2,1.3-4,2.8-5.9,4.2c2.3,0.9,4.8,1.7,6.5,3.6
		c4.4,4.4,9.4,8.5,12,14.3c-0.5,0-1.4,0.1-1.8,0.1c0.2,0.3,0.6,1,0.8,1.3c-1.3,0.3-2.5,0.7-3.8,1.1c-1.2-0.6-2.3-1.1-3.4-1.7
		c1.1-1,2.2-2.1,3.4-3.1c-2.5-3.4-5.5-6.3-8.5-9.2c-1.5,1.4-2.6,3-3.6,4.7c-0.3,0.2-0.9,0.5-1.1,0.7c0.2-1.3,0.4-2.5,0.5-3.8
		c-0.4-0.1-1.1-0.3-1.4-0.4c0.5-1.4,1.1-2.8,1.4-4.3c-2.9-2.8-6.4-5.1-10.1-6.7c-0.7,1.4-1.4,2.9-2.2,4.3c-0.9-0.9-1.9-1.8-2.8-2.6
		c0.4-1.4,0.9-2.8,1.3-4.2c-3.5-2-7.2-3.8-11-5.1c-0.8,1.3-1.6,2.6-2.4,3.8c-1.1-0.2-2.1-0.3-3.2-0.5c0.3-1.8,0.5-3.6,0.8-5.4
		c-3.7-1.2-7.6-2.2-11.4-3c-0.5,1.4-1,2.8-1.4,4.2c-1.3,0.2-2.7,0.4-4,0.6c0.1-1.8,0.2-3.6,0.3-5.4c-4.2-0.7-8.4-1.1-12.6-1.2
		c3.1-0.4,6.2-0.6,9.2-1.2c4.1-1.3,8.3-0.2,12.4,0.4c7.2,1.9,14.4,4.1,20.7,8.1c3,0.1,2.8-3.4,1.2-5c-1.4,0.3-2.7,0.6-4.1,0.9
		c-0.2-1-0.4-2-0.6-3.1c-1.2-0.2-2.4-0.3-3.6-0.5c-0.4,0.4-1.2,1.1-1.5,1.4c0.1-0.9,0.1-1.9,0.2-2.8c-2,0.9-4.2,1.4-6.4,1.2
		c0.1-1.7,0.1-3.4,0.2-5.1c-0.5-0.2-1.4-0.5-1.9-0.7c0,1.9-0.1,3.9-1.5,5.3c-0.4-2.5-0.6-4.9-0.8-7.4c-2.8,0.6-3.9,3.3-5.3,5.4
		c-0.5-1.1-0.9-2.3-1.4-3.4c-1,1-1.9,2.1-2.8,3.1c-0.3-2-0.6-4-0.9-6.1c-1.1,2-1.8,4.2-2.7,6.4c-1.6,0.4-2.2-2.3-3.4-3
		c0,0.9,0,2.5-0.1,3.4c-0.7-0.8-1.3-1.5-1.9-2.3C132.1,15.6,133.5,14.8,135,14.1 M173.2,29c-1.4,1.8,1.5,2.9,2.7,3.7
		C178.4,31.5,174.8,28.9,173.2,29 M180,34.8c0.7,1.1,1.8,1.7,3.1,1.8c2.9-0.1,2.6-3.5,3.2-5.6c-0.6-0.4-1.7-1.3-2.2-1.7
		C182.5,31,179.4,32.1,180,34.8z"/>
</g>
<g id="_x23_744c28ff">
	<path class="st6" d="M32.7,59.9c13.9-23.4,37-40.8,63.2-48.2c1.4,0.2,2.9,0.4,4.3,0.6c-3.9,1.6-7.8,3.2-11.4,5.5
		c-1.2,2.3,0,4.6,1.3,6.6c0.4-0.8,1.1-2.3,1.5-3.1c2.3,0.2,4.7,0.4,7.1,0.4c0-1.8,0-3.5,0-5.3c1.1,1.4,2.2,2.8,3.3,4.3
		c0.7,1.1,1.3,2.2,1.9,3.3c-3.7,0.9-7.4,2-10.8,3.6c-0.1,0.8-0.3,2.4-0.4,3.2c-1.1,0.7-2.2,1-3.5,1.1c-0.2-0.6-0.7-1.9-1-2.5
		c-3.6,1.7-7.2,3.5-10.7,5.5c0.1,1.4,0.3,2.9,0.4,4.3c-1.9,0.7-3.6-0.2-5.2-1.1c-3.3,2-6.4,4.5-9.2,7.1c0.7,1.2,1.5,2.3,2.2,3.5
		c0.5,0,1.5,0.1,2,0.1c2.6-2.1,5.3-4.1,8-6c0-0.8,0-2.3,0.1-3c1.8-0.1,3.5-0.3,5.2-0.4c2.9-1.5,5.9-2.8,8.6-4.7c1-1,1.7-2.5,3.3-2.6
		c0.6,0.2,1.9,0.5,2.6,0.6c3.1-0.8,6.2-1.8,9.4-2.6c0.4-0.5,1.1-1.4,1.5-1.9c1.1,0.1,2.3,0.2,3.4,0.3c4.4,0.2,8.9,0,12.9-2.1
		c1,0.2,2,0.5,3.1,0.7c4.1,0.8,8.2,1.3,12.3,1c1.4-0.2,2.7-0.4,4-0.6c0.1,0.4,0.3,1.3,0.4,1.7c3.8,1.1,7.6,2,11.5,2.5
		c1.1,0.2,2.1,0.3,3.2,0.5c3.1,3.2,7.6,5.5,12.1,5.4c0.9,0.9,1.9,1.8,2.8,2.6c3.2,2.8,6.6,5.7,10.9,6.7c0.3,0.1,1,0.3,1.4,0.4
		c-0.2,1.3-0.4,2.5-0.5,3.8c-12.8-11.2-29.1-18.4-45.9-20.6c-6-0.2-12-1.7-18-0.6c-5.2,0.9-10.6,0.6-15.6,2.4
		c-7.3,2.1-14.4,4.5-21,8.4c-5,1.8-9.2,5.2-13.3,8.5c-4.1,3.4-8.2,6.8-11.4,11.1C57,62,55.6,65,52.6,64.6c-0.1-1.1-0.2-2.2-0.4-3.2
		c-1.3,0.2-2.7,0.3-4,0.5c-2.2,2.8-4.1,5.9-5.6,9.2c0.2,0.5,0.6,1.6,0.8,2.1c-1,0.9-2,1.8-3,2.7c-0.2,0.2-0.7,0.7-0.9,0.9
		c-1.1,1-2.2,1.9-3.3,2.9c0.1-1.4,0.2-2.9,0.3-4.3c-1-0.8-1.9-1.5-2.9-2.2c1.1,0.1,3.2,0.3,4.3,0.4c-1.2-1.8-2.4-3.5-3.7-5.2
		c1.6,0.5,3.1,1,4.7,1.5c-0.3-2.2-0.5-4.5-0.8-6.8c1.1,0.2,3.3,0.7,4.5,0.9c-1.3-1.7-2.7-3.5-4-5.2c-3,4.3-4.8,9.2-8,13.3
		c-2.4,2.7-4.5,5.7-6.3,8.8c-0.2-0.6-0.5-1.7-0.7-2.3C26,72.2,29,65.8,32.7,59.9 M73.7,25.6c1.7,1.6,3.5,3.1,5.4,4.5
		c0-2.3-0.2-4.6-0.4-6.9C77.1,24,75.4,24.8,73.7,25.6 M82.8,27.5c1.7-0.8,3.4-1.6,5.1-2.6C86,22.6,81.9,24.6,82.8,27.5 M66.6,30.3
		c0.4,0.7,0.9,1.4,1.3,2.1c-1.3-0.6-2.6-1.1-4-1.3c0.3,2.2,1.2,4.2,3,5.5c1.5-4.3,8.1-2.4,9.4-7c-1.5,0.3-2.9,0.6-4.4,0.9
		c0.6-1.4,1.3-2.9,1.9-4.4C70.8,26.3,69.1,29.1,66.6,30.3 M59.5,36.4c-1.5,0.9-3,1.7-4.4,2.7c0.9,1.5,2.1,2.8,3.5,4
		c2.1-2.4,5.2-3.4,7.5-5.5c-1.4-1.3-2.6-2.9-3.7-4.5C61.3,34.1,60.3,35.2,59.5,36.4 M50,45.9c0.8,1.1,1.5,2.2,2.3,3.4
		c-1.6-0.6-3.2-1.2-4.9-1.8c-0.1,3.4,5,4.9,6.5,1.5c-0.3-0.9-0.7-1.7-1-2.6c0.5,0.1,1.5,0.2,2,0.3c1-0.7,2-1.4,3.1-2.1
		c-1-1.3-2-2.7-2.9-4C52,41.1,51.8,44.2,50,45.9 M45.3,49.3c-0.6,1.6-1.9,4.1,0.1,5.3c1.9,1.5,4.5-0.3,4.7-2.5
		c-1.5,0.7-3,1.4-4.7,1.5c0.2-1.4,0.8-2.7,1.6-3.9C46.5,49.7,45.7,49.4,45.3,49.3 M52.3,57.1c-0.3,1.8,1.9,2.6,2.8,3.9
		c3.2-2.7,5.8-5.9,8.8-8.9c-1.1-1.5-2.5-2.7-3.9-3.9C57.2,51,54.2,53.6,52.3,57.1 M40.4,57.1c-0.7,2.1,1.7,4.2,3.7,3.2
		c2.4-1,1.2-3.7,1.2-5.6C43.5,54.7,40.3,54.4,40.4,57.1z"/>
</g>
<g id="_x23_bf954fff">
	<path class="st7" d="M107.4,13.2c0.5,0.3,1.1,0.6,1.6,0.8c1.7-0.9,3.6-1.4,5.4-1.7c0.1,1.7,0.1,3.4,0.2,5c-3,0.7-6.1,1.3-9.1,1.8
		c-1.1-1.2-2.1-2.5-3.1-3.8c-0.2,1.8-0.3,3.5-0.5,5.3c-1.1-1.5-2.2-2.9-3.3-4.3c0,1.8,0,3.5,0,5.3c-2.4,0-4.7-0.1-7.1-0.4
		c-0.4,0.8-1.1,2.3-1.5,3.1c-1.3-2-2.5-4.2-1.3-6.6c0.7,0,2.1,0.1,2.8,0.1c-0.1,0.5-0.3,1.6-0.4,2.1c0.4,0,1.2,0.1,1.6,0.2
		c0.1-0.9,0.4-2.6,0.5-3.4c1.2,1.3,2.3,2.6,3.5,3.9c-0.1-1.4-0.2-2.9-0.3-4.3c2.6-1.1,5.4-1.9,8.3-2c0.8,1,1.5,1.9,2.3,2.9
		C107.1,15.9,107.3,14.6,107.4,13.2z"/>
</g>
<g id="_x23_eac26bff">
	<path class="st8" d="M124.7,13.6c1.2,0,2.4,0,3.6,0c0.1,1,0.1,2,0.2,3c-1.3-0.1-2.6-0.1-3.9-0.1C124.6,15.5,124.7,14.6,124.7,13.6z
		"/>
</g>
<g id="_x23_faf778ff">
	<path class="st9" d="M179,21.4c-2.2-2.6-4.2-5.3-6.6-7.6c11.2,4.4,21.1,11.8,30,19.8c13.4,12.7,23.9,28.6,29.9,46.2
		c0.7,2.1,1.2,4.2,1.6,6.4c-1.8-4.2-4.3-8-7.7-11.1c-1.4-3-2.7-6.1-4.3-9C212.2,47.5,197.2,31.9,179,21.4z"/>
</g>
<g id="_x23_d5b560ff">
	<path class="st10" d="M109.3,23.2c3.8-0.7,7.7-1.2,11.6-1.6c0.6,1.6,1.2,3.1,1.8,4.7c-4,2.1-8.6,2.2-12.9,2.1
		C109.6,26.6,109.5,24.9,109.3,23.2z"/>
	<path class="st10" d="M213.1,99.8c-0.9-4-2.7-8.4-0.6-12.4c3.5,1.1,4.6,4.5,5.2,7.8c0.3,2,0.6,3.9,0.9,5.9c-1.7,0.2-3.3,0.3-5,0.4
		C213.5,101,213.2,100.2,213.1,99.8z"/>
</g>
<g id="_x23_d4b55fff">
	<path class="st11" d="M125.8,21.5c4.2,0.1,8.5,0.5,12.6,1.2c-0.1,1.8-0.2,3.6-0.3,5.4c-4.1,0.3-8.3-0.3-12.3-1
		C125.8,25.2,125.8,23.3,125.8,21.5z"/>
	<path class="st11" d="M200.6,162.5c2.1-1.6,3.9,0.1,5.5,1.4c-1.2,2.5-2.6,4.9-4.3,7.2c-1.3,1-2.5,3.7-4.4,2.4
		c-0.9-0.7-1.8-1.6-2.6-2.3c1.4-1.7,2.7-3.4,4-5.2C199.5,164.9,200.1,163.7,200.6,162.5z"/>
</g>
<g id="_x23_a57f48ff">
	<path class="st12" d="M73.7,25.6c1.7-0.8,3.4-1.6,5-2.4c0.2,2.3,0.4,4.6,0.4,6.9C77.2,28.8,75.4,27.3,73.7,25.6z"/>
</g>
<g id="_x23_976f3dff">
	<path class="st13" d="M82.8,27.5c-0.9-3,3.3-4.9,5.1-2.6C86.2,25.9,84.5,26.8,82.8,27.5z"/>
</g>
<g id="_x23_d5b660ff">
	<path class="st14" d="M93,27.5c3.5-1.6,7.1-2.6,10.8-3.6c0.8,1.4,1.7,2.8,2.5,4.2c-0.4,0.5-1.1,1.4-1.5,1.9
		c-3.1,0.8-6.2,1.7-9.4,2.6c-0.7-0.2-2-0.5-2.6-0.6c-1.6,0.1-2.4,1.6-3.3,2.6c-0.1-0.9-0.2-1.8-0.4-2.7c1.3,0,2.4-0.4,3.5-1.1
		C92.8,30,92.9,28.4,93,27.5z"/>
</g>
<g id="_x23_d7b960ff">
	<path class="st15" d="M142.2,27.5c0.4-1.4,0.9-2.8,1.4-4.2c3.8,0.8,7.6,1.8,11.4,3c-0.3,1.8-0.5,3.6-0.8,5.4
		c-3.9-0.5-7.8-1.3-11.5-2.5C142.5,28.8,142.3,27.9,142.2,27.5z"/>
</g>
<g id="_x23_9b7c41ff">
	<path class="st16" d="M66.6,30.3c2.4-1.2,4.2-4,7.1-4c-0.6,1.5-1.2,2.9-1.9,4.4c1.5-0.3,2.9-0.6,4.4-0.9c-1.3,4.6-7.9,2.7-9.4,7
		c-1.8-1.4-2.7-3.3-3-5.5c1.4,0.2,2.8,0.6,4,1.3C67.5,31.8,67.1,31,66.6,30.3z"/>
</g>
<g id="_x23_e4d067ff">
	<path class="st17" d="M159.7,28.2c3.8,1.3,7.5,3,11,5.1c-0.5,1.4-0.9,2.8-1.3,4.2c-4.5,0-8.9-2.3-12.1-5.4
		C158.1,30.8,158.9,29.5,159.7,28.2z"/>
</g>
<g id="_x23_997344ff">
	<path class="st18" d="M120,29.8c6-1.1,12,0.5,18,0.6c16.9,2.3,33.1,9.4,45.9,20.6c3.6,4,7.6,7.8,10.9,12.1
		c4.9,6.8,9.4,13.9,12.2,21.8c2.3,5.6,3.3,11.6,4.7,17.4c2.5,0.8,5.1,1,7.7,1.3c-3.3,1.1-6.8,1.2-10.2,0.9l0.2-1.4
		c0.3-2.1,0.3-4.2-0.3-6.2c-4.7-19-15.6-36.8-31.5-48.4c-19.8-15.4-46.6-20.6-70.9-15.4c-8.1,1.2-15.3,5.4-23.2,7.4
		c6.6-3.8,13.7-6.3,21-8.4C109.4,30.4,114.8,30.7,120,29.8z"/>
</g>
<g id="_x23_af814bff">
	<path class="st19" d="M173.2,29c1.6-0.1,5.2,2.5,2.7,3.7C174.7,31.9,171.8,30.7,173.2,29z"/>
</g>
<g id="_x23_e2ce68ff">
	<path class="st20" d="M77.5,34.8c3.5-1.9,7.1-3.8,10.7-5.5c0.2,0.6,0.7,1.9,1,2.5c0.2,0.9,0.2,1.8,0.4,2.7
		c-2.7,1.9-5.7,3.3-8.6,4.7c-1.8,0.1-3.5,0.3-5.2,0.4c0,0.8,0,2.3-0.1,3c-2.7,1.9-5.4,3.9-8,6c-0.5,0-1.5-0.1-2-0.1
		c-0.7-1.2-1.5-2.3-2.2-3.5c2.9-2.6,5.9-5,9.2-7.1c1.6,0.9,3.3,1.8,5.2,1.1C77.8,37.7,77.6,36.3,77.5,34.8z"/>
</g>
<g id="_x23_b1924eff">
	<path class="st21" d="M180,34.8c-0.6-2.7,2.6-3.9,4.1-5.5c0.5,0.4,1.6,1.3,2.2,1.7c-0.6,2-0.3,5.5-3.2,5.6
		C181.7,36.5,180.7,35.9,180,34.8z"/>
</g>
<g id="_x23_7a4e29ff">
	<path class="st22" d="M106.6,33.2c24.3-5.2,51.1,0,70.9,15.4C193.4,60.3,204.3,78,209,97c0.6,2,0.6,4.1,0.3,6.2
		c-2.1-2.7-4.8-4.9-7.1-7.5c-1-0.9-0.8-2.3-0.8-3.5c1.7,0.3,3.4,0.7,5.2,1c-3-11.4-9.4-21.5-16.3-30.9c-1.8-3.1-4.5-5.6-7.4-7.8
		c-13.8-12.3-31.5-20.2-50-21.4c-8.1-0.4-16.3-0.1-24.3,1.2C108.2,34,107.1,33.5,106.6,33.2z"/>
</g>
<g id="_x23_ac9055ff">
	<path class="st23" d="M59.5,36.4c0.9-1.2,1.8-2.3,3-3.3c1.1,1.6,2.3,3.1,3.7,4.5c-2.3,2.1-5.5,3.1-7.5,5.5c-1.4-1.1-2.6-2.5-3.5-4
		C56.5,38.1,58,37.3,59.5,36.4z"/>
</g>
<g id="_x23_775c37ff">
	<path class="st24" d="M83.4,40.6c7.9-2,15.1-6.2,23.2-7.4c0.5,0.3,1.6,0.8,2.1,1c0.6,0.3,1.7,0.8,2.3,1.1
		c-5.2,1.2-10.5,2.1-15.2,4.5c3.8-0.7,7.5-1.7,11.2-2.6c1.4,1.6,3.8,1.1,5.1-0.5c0.4-0.1,1.1-0.2,1.4-0.2c7.4,0.7,14.9,0.4,22.4,0.4
		c1.3,1.1,2.7,2.2,4.1,3.4c-3.8,0.2-7.4-0.7-11-1.9c-1.4,0-2.8,0.1-4.2,0.2c-2.4,0.1-4.8,0-7.2-0.1c0,1.2-0.1,2.4-0.1,3.6
		c2.7,0,5.4,0,8.1-0.1c0.1,0.5,0.4,1.6,0.5,2.2c-3.5,0.2-6.9,0.1-10.4-0.2c0.1-1.9,0.1-3.9,0.1-5.8c-1.2,0.5-1.9,1.4-2,2.7
		c-0.5,3.8-0.1,7.7,0.4,11.5c2-2,1.4-5,1.5-7.5c0.7,0.9,1.3,1.8,2,2.7c2.6,0,5.2,0,7.7,0c0.5,2,1.1,4,2.8,5.3
		c-4.8-0.1-9.5,0.2-14.2,0.3c-0.5-1.2-1.1-2.3-1.6-3.5c-0.1-3.4,0-6.7-0.1-10.1c-0.5,0.2-1.4,0.7-1.9,0.9
		c-15.2,3.3-29.4,10.9-40.4,21.8c-3.4,0.3-5.2,3.5-7.4,5.7c-0.2-0.6-0.5-1.7-0.7-2.3c-1.9,2.1-3.7,4.3-5.6,6.4c0.8-2,1.5-4,2.2-6
		c-2.8,2.6-5,5.8-7.3,8.8c1.5-3.8,4-7.2,6.4-10.5c1-1.2,1.4-2.8,1.3-4.3c3.1-4.3,7.3-7.7,11.4-11.1C74.2,45.8,78.4,42.4,83.4,40.6
		 M62.8,64.9c2.8-2.6,5.5-5.3,8-8.2C67.8,59.1,65,61.8,62.8,64.9z"/>
</g>
<g id="_x23_9e7548ff">
	<path class="st25" d="M108.7,34.3c8-1.3,16.2-1.6,24.3-1.2c18.5,1.2,36.2,9.1,50,21.4c-1.9,1.1-3.4-0.8-4.9-1.7
		c-12.5-10.4-28.2-16.9-44.3-18.5c-7.6-0.2-15.4-1-22.8,1.1C110.4,35.1,109.3,34.5,108.7,34.3z"/>
</g>
<g id="_x23_6c4c28ff">
	<path class="st26" d="M111,35.4c7.4-2.1,15.2-1.4,22.8-1.1c-5.5,1.8-11.4,0.5-17,1.6c-0.9,0.2-2.6,0.5-3.4,0.7
		c-0.4,0.1-1.1,0.2-1.4,0.2c-1.7-0.1-3.4-0.1-5.1,0.5c-3.7,1-7.4,1.9-11.2,2.6C100.5,37.4,105.8,36.6,111,35.4z"/>
</g>
<g id="_x23_886237ff">
	<path class="st27" d="M133.8,34.2c16.1,1.6,31.8,8.1,44.3,18.5c1.4,0.9,2.9,2.8,4.9,1.7c2.8,2.2,5.5,4.7,7.4,7.8
		c0.5,1.8,1.1,3.6,2.3,5.1c5.4,7.5,10.3,15.6,12.5,24.7c-1.1-0.5-2.3-1.1-3.4-1.6c-0.1,0.4-0.2,1.3-0.2,1.7c0,1.2-0.2,2.6,0.8,3.5
		c2.2,2.6,5,4.8,7.1,7.5l-0.2,1.4c-3.6-2.1-6.3-5.4-9.7-7.8c2.2,4.2,6.2,7,9,10.8c-3.8-1.2-6.5-4.2-9.2-7c-2.9-3-3.4-7.3-5-11
		c-2.7-6.2-6-12.2-10.3-17.5c2.9,5.4,6.6,10.4,8.9,16.1c2.1,4.2,2.8,9,4.9,13.2c2.1,3.1,4.7,5.8,7.8,8c4.7,0.8,9.6,0,14.3,0.7
		c-4.6,2.1-10,1-14.8,0.8c-4.2-2-6.7-6.3-9.8-9.6c0,0.8,0,1.6,0.1,2.4c-1.2,1.2-2.3,2.5-3.3,3.8c-0.4-0.4-1.1-1.1-1.5-1.5
		c1,5.2,5.1,9.1,9.1,12.3c6.4,1.8,13.2-0.2,19.7,1.2c-5.4,0.5-10.9,0.3-16.3,0.4c-2.1-0.1-4.8,0.4-6.2-1.6
		c-3.3-3.7-7.2-7.4-8.6-12.3c0.1,3-0.2,6-2,8.5c0.9,1.8,1.8,3.6,2.7,5.4c-2.1-1.6-4.1-3.2-6.2-4.9c0.3,5.1,4.9,7.9,8,11.3
		c1.8,2.1,5,2.9,7.1,0.6c-0.1,1.1-0.2,2.3-0.3,3.4c-3.9,0-7.8-0.1-11.6-0.3c0-0.7,0-2.1,0-2.8l-1.8,0.6c-0.1-0.6-0.3-1.7-0.4-2.2
		c-2.7-0.7-4.5-2.9-6.2-5c-2.2-2.2-4.1-4.9-4-8.2c3.3,0.7,3,4.8,5.3,6.7c3.6,3.2,6.5,7.8,11.4,9.3c-2.5-3.6-6.3-6.1-8.9-9.6
		c-0.9-7.9-1.4-16-4.9-23.3c-1.8-4.1-4.3-7.8-6.9-11.4c-0.1,0.7-0.4,2.2-0.5,2.9c-0.7-0.8-1.5-1.7-2.2-2.5c0.6-2.1,1.1-4.6,3.2-5.7
		c2.9-2,6.7-1.3,10.1-2c-0.6-1.3-1.7-2.4-2.7-3.4c1.5,0,3,0,4.5,0c-0.1-0.7-0.3-2.2-0.4-2.9c0.7-0.2,2.1-0.5,2.7-0.7
		c-1.5-2.2-3.3-4.3-5.3-6.1c-5.9,1.2-11.1-2.5-16.8-3.7c0.5,0,1.5-0.1,2-0.1c-5.4-3.6-11.1-6.9-17.5-8c5,2.9,10.7,4.3,15.2,8.1
		c-0.3,0.5-1,1.6-1.3,2.2c-1.1-1.4-2.1-2.9-3.8-3.7c-7.4-3.9-15.4-6.6-23.7-7.6c0-2.2,0.3-4.5,0.6-6.7c5,0.4,9.8,2,14.8,2.7
		c-5.3-3.1-11.7-3.5-17.7-4.4c-0.3-0.3-1-0.9-1.3-1.2c-0.2-0.2-0.6-0.6-0.8-0.8c0-0.5,0.1-1.5,0.2-2.1c3.5,1.2,7.2,2.1,11,1.9
		c-1.4-1.1-2.7-2.2-4.1-3.4c0.6-0.1,1.8-0.3,2.4-0.4c-7.1-0.9-14.2-0.6-21.3-0.7C122.4,34.7,128.3,36,133.8,34.2z"/>
</g>
<g id="_x23_9c774cff">
	<path class="st28" d="M113.4,36.5c0.8-0.2,2.6-0.5,3.4-0.7c7.1,0.1,14.3-0.2,21.3,0.7c-0.6,0.1-1.8,0.3-2.4,0.4
		C128.3,36.9,120.8,37.2,113.4,36.5z"/>
</g>
<g id="_x23_e6d66aff">
	<path class="st29" d="M174.4,35.9c3.8,1.6,7.2,3.8,10.1,6.7c-0.3,1.5-0.9,2.9-1.4,4.3c-4.2-1-7.7-3.9-10.9-6.7
		C172.9,38.8,173.7,37.3,174.4,35.9z"/>
</g>
<g id="_x23_bfa259ff">
	<path class="st30" d="M183.6,39.3c1.9-1.5,3.9-2.9,5.9-4.2c-0.3,1.3-0.6,2.6-0.9,3.9c2.1-0.7,4.2-1.5,6.4-2.2
		c-0.5,2.4-1,4.8-1.6,7.3c3.5,0.8,7.1,0.2,10.6-0.2c-0.8,1.1-1.6,2.2-2.4,3.3c0.3,0.7,0.6,1.3,0.9,2c-0.3,0.7-0.7,1.5-1,2.2
		c1.3,0.5,2.6,1,3.7,1.6c1.3,1,0.4,2.7,0.4,4c-0.9,0.1-2.6,0.2-3.4,0.3c-2.6-5.8-7.6-9.9-12-14.3C188.4,40.9,185.9,40.1,183.6,39.3z
		"/>
</g>
<g id="_x23_95774bff">
	<path class="st31" d="M106.9,37.2c1.6-0.6,3.4-0.6,5.1-0.5C110.8,38.4,108.4,38.9,106.9,37.2z"/>
</g>
<g id="_x23_d8bf64ff">
	<path class="st32" d="M117.5,38.5c2.4,0.1,4.8,0.1,7.2,0.1c0.2,0.9,0.6,2.6,0.8,3.5c-2.7,0.1-5.4,0.1-8.1,0.1
		C117.4,40.9,117.4,39.7,117.5,38.5z"/>
</g>
<g id="_x23_96703cff">
	<path class="st33" d="M124.7,38.6c1.4-0.1,2.8-0.2,4.2-0.2c0,0.5-0.1,1.5-0.2,2.1c-0.3,4.2-0.1,8.3-0.6,12.5
		c-1.7-1.3-2.3-3.3-2.8-5.3c-0.2-1.1-0.7-2.1-1.3-3c-2.1-0.2-4.2,0-6.2,0.1c0,0.8-0.1,2.2-0.2,3c-0.7-0.9-1.3-1.8-2-2.7
		c-0.1,2.5,0.5,5.5-1.5,7.5c-0.5-3.8-0.9-7.7-0.4-11.5c0.1-1.3,0.7-2.2,2-2.7c0,1.9,0,3.9-0.1,5.8c3.5,0.3,6.9,0.3,10.4,0.2
		c-0.1-0.5-0.4-1.6-0.5-2.2C125.3,41.2,124.9,39.4,124.7,38.6z"/>
</g>
<g id="_x23_946e3eff">
	<path class="st34" d="M110.2,40.5c0.5-0.2,1.4-0.7,1.9-0.9c0.1,3.4,0.1,6.7,0.1,10.1c0,1.8,0,3.6,0,5.4c5.3-0.3,10.7-1.2,16.1-0.5
		c-5.3,1.3-10.8,1.4-16.2,2.2c0,2.1-0.1,4.3-0.1,6.4c-1.3,0.2-2.7,0.5-4,0.8c-0.1-7,0.3-14-0.5-21c0.5-0.1,1.3-0.4,1.8-0.5
		C109.6,42.1,110,41,110.2,40.5z"/>
</g>
<g id="_x23_ac965aff">
	<path class="st35" d="M50,45.9c1.9-1.7,2.1-4.8,5-5.4c1,1.3,1.9,2.7,2.9,4c-1,0.7-2.1,1.4-3.1,2.1c-0.5-0.1-1.5-0.2-2-0.3
		c0.3,0.9,0.7,1.7,1,2.6c-1.5,3.4-6.5,1.9-6.5-1.5c1.6,0.6,3.2,1.2,4.9,1.8C51.5,48.1,50.7,47,50,45.9z"/>
</g>
<g id="_x23_6a4c2aff">
	<path class="st36" d="M69.8,62.3c11.1-10.9,25.3-18.5,40.4-21.8c-0.2,0.5-0.7,1.5-0.9,2c-0.4,0.1-1.3,0.4-1.8,0.5
		c-8.7,1.9-17.4,5.3-24.2,11.2c7.8-3,14.9-8.7,23.4-9c0.2,1.4-1.9,1.2-2.8,1.8c-8.2,2.2-15.8,6.3-22.8,11.2
		c-4.7,3.2-8.3,7.7-12.8,11.1c3.2-6.3,9.6-9.7,14.2-14.7C75.3,58,70.7,64.8,64.4,69.4C65.9,66.8,67.6,64.4,69.8,62.3z"/>
</g>
<g id="_x23_744c24ff">
	<path class="st37" d="M128.7,40.4c0.2,0.2,0.6,0.6,0.8,0.8c0,7.2,0.1,14.4,0,21.7c-1.3-0.1-2.6-0.1-3.8-0.2
		c-4.5,0.1-9.1,0.2-13.6,0.5c0-2.2,0.1-4.3,0.1-6.4c5.4-0.8,10.9-0.9,16.2-2.2c-5.4-0.7-10.7,0.2-16.1,0.5c0-1.8,0-3.6,0-5.4
		c0.5,1.2,1,2.3,1.6,3.5c4.8-0.1,9.5-0.4,14.2-0.3C128.6,48.8,128.4,44.6,128.7,40.4 M113.9,58.5c0.9-0.1,2.7-0.2,3.7-0.2
		c-0.9,0.6-2.6,1.8-3.5,2.4c4.6,0.1,9.2,0,13.8,0c-0.9-0.3-1.7-0.6-2.5-1c-0.9-1.5,0.9-1.8,1.9-2.4
		C122.7,57.5,118.2,57.2,113.9,58.5z"/>
</g>
<g id="_x23_a07e49ff">
	<path class="st38" d="M129.5,41.2c0.3,0.3,1,0.9,1.3,1.2c0.8,0.8,1.8,1.4,2.8,1.7c-0.3,2.2-0.6,4.4-0.6,6.7
		c0.3,4.2-0.6,8.7,0.6,12.8c4.8,2,9.9,2.9,14.4,5.6c2.8,1.3,5.4,4,8.8,3.1c-3-3.2-7-4.9-10.7-7.2c3.7,1.4,7.1,3.6,10.9,4.7
		c-1.4-1.6-2.9-3.2-4.2-4.9c0.5-1.5,1.3-2.8,2-4.2c-6.4-3.8-13.7-5.7-20.9-7.5c9.6,0.4,17.9,5.4,26.6,8.9c0.3-0.5,1-1.6,1.3-2.2
		l0.4,0.1c5.6,1.2,10.8,4.9,16.8,3.7c2,1.8,3.7,3.9,5.3,6.1c-0.7,0.2-2.1,0.5-2.7,0.7c-1-1.8-2.2-3.7-4.5-3.8
		c-3.9-0.5-7.4-2.4-11.3-3.3c-3.8-0.2-7.6,0.4-11.4,0.3c1.2,2,3.9,3.9,3.1,6.5c-0.9,4.2-0.7,8.4-1,12.6c-0.4,3.2-2.4,7.2-6.3,6.9
		c-4.2,0.5-4.8-4.5-7-7.1c-4.3-2.6-9.6-4.6-11.6-9.7c8.6,1.9,16.2,6.3,22.9,11.8c-2.9-4.3-7.4-7-11.9-9.2c-3.6-1.6-7.5-3.4-11.6-2.9
		c-0.2-0.2-0.6-0.6-0.8-0.8c-0.2-3-0.5-6-0.7-8.9C129.5,55.6,129.5,48.4,129.5,41.2 M133,64.9c0.1,1.8,0.1,3.7,0.2,5.5
		c8,1.8,15.2,5.9,21.8,10.7c0-0.8-0.1-2.4-0.1-3.1c-3-2.8-6.9-4.6-10.5-6.4c-3.4-1.8-7.3-2.2-10.6-4.3c7.9,0.8,14.5,5.5,21.5,8.8
		c-1.3-2.8-4.3-4-6.8-5.5C143.5,68.1,138.4,66,133,64.9 M143.6,79.8c1.2,2.6,3.1,4.8,4.6,7.2c1.4,0,2.9,0,4.3-0.1
		C150.4,83.6,147,81.5,143.6,79.8z"/>
</g>
<g id="_x23_77542dff">
	<path class="st39" d="M130.7,42.4c6,0.9,12.3,1.3,17.7,4.4c-5-0.7-9.8-2.2-14.8-2.7C132.5,43.8,131.5,43.2,130.7,42.4z"/>
</g>
<g id="_x23_896a3dff">
	<path class="st40" d="M83.3,54.2c6.8-5.9,15.5-9.3,24.2-11.2c0.8,7,0.4,14,0.5,21c-0.3,0.1-0.9,0.3-1.2,0.5
		c0.1-4.4,0.1-8.9,0.1-13.3c-1.3,0-2.5,0-3.8,0c1.3,0.6,2.5,1.3,3.8,1.9c-0.7,1.2-1,2.8-2.6,3.1c-11.7,4.1-22.4,11.7-29.5,21.9
		c4.5-4.3,8.6-9.1,13.9-12.5c5.6-3.5,11.3-7.2,17.9-8.2c0.5,4.3-3.8,5.6-6.8,7.3c-8.5,4.7-16.8,10.5-22.3,18.7
		c-1.1,1.5-1.6,3.4-2,5.2c-1.4,4.3-4.1,8.1-5.2,12.5c-0.5,1.6,0.6,2.9,1.2,4.2c0.7-3.9,1.3-7.9,3.3-11.4c0.3,0.2,1,0.5,1.3,0.7
		c-2.3,4.9-0.3,10.9-4.4,15c-1.2-1.2-2.7-2.1-3.4-3.6c0.2-6.1,3.4-11.6,5-17.4c-1.4,1.9-2.8,3.8-4.3,5.8c0.6-2.6,1.3-5.1,1.9-7.7
		c-3.1,4-4.9,8.8-6.8,13.4c0.2-5.8,3.4-10.7,5.2-16c-1.5,1.7-3,3.4-4.5,5.1c1-3.1,2.5-6.1,4.5-8.7c-1.3,0.5-2.6,0.6-3.9,0.1
		c-5.2,7.4-8.4,16.1-10.1,24.9c-1-8,3.4-15.2,5.6-22.7c-4.1,7-6.2,14.8-8,22.6c-0.3-4.5,0.7-8.8,1.2-13.2c-2.8,3.8-3.2,8.7-4.9,13
		c0.2-7.3,2.5-14.3,5.1-21.1c-0.5,0.1-1.5,0.4-2,0.5c-0.1-0.7-0.3-2.1-0.5-2.8c-1.2,2.2-2.4,4.3-3.5,6.5c-0.2-1.5-0.4-3-0.6-4.5
		c-1.3,2.4-2.5,4.9-3.7,7.4c0.4-2.6,0.8-5.3,1.1-7.9c-2.6,3.6-3.7,8-4.6,12.3c-0.4-0.8-0.9-1.5-1.3-2.3c-0.6-0.7-1.2-1.4-1.8-2.1
		c-1.1,0.4-2.2,0.7-3.2,1.1c-1,3.7-1.7,7.5-2,11.3c0.5,0.4,1.6,1.1,2.2,1.4c-0.4,0.7-0.9,1.5-1.4,2.2c-0.4,0.4-1.2,1.3-1.6,1.7
		c-0.3,0.3-0.9,1-1.2,1.4c-0.1,0.5-0.4,1.4-0.6,1.9c-2.5-1.7-5.4-2.2-8.4-2.5c0.1-0.2,0.4-0.5,0.5-0.7c2.2,0,4.5,0.1,6.7,0.2
		c-1.1-0.9-2.1-1.8-3.2-2.8c0.9-0.3,2.7-0.8,3.6-1.1c-2.2-1.1-4.5-1.8-6.9-1c0.5,0.7,1.6,1.9,2.1,2.6l-0.9,0.1
		c-1.4,0-2.8-0.1-4.2-0.1c-0.2,1.4-0.4,2.8-0.6,4.2c-0.3-2.1-0.5-4.2-0.7-6.3c0.9-8.9,2.5-17.7,5.9-26c0.2,0.6,0.5,1.7,0.7,2.3
		c1.8-3.2,3.9-6.1,6.3-8.8c1,0.3,2,0.6,3.1,0.9c1,0.7,1.9,1.5,2.9,2.2c-0.1,1.4-0.2,2.9-0.3,4.3c1.1-0.9,2.2-1.9,3.3-2.9
		c-1.2,3.6-3.1,7.1-3.2,10.9c1.3,0.8,2.8,1,4.3,1.4c1.3-3.8,2.8-7.5,4.4-11.1c-1.4-0.9-2.9-1.6-4.5-2.1c1-0.9,2-1.8,3-2.7
		c1.1,0.3,2.3,0.5,3.4,0.7c1.9-3.1,4-6.1,5.8-9.2c2.9,0.4,4.4-2.7,6.1-4.4c0,1.6-0.3,3.1-1.3,4.3C55,67.8,52.5,71.2,51,75
		c2.3-3.1,4.5-6.2,7.3-8.8c-0.7,2-1.5,4-2.2,6c1.8-2.2,3.7-4.3,5.6-6.4c0.2,0.6,0.5,1.7,0.7,2.3c2.2-2.2,4-5.4,7.4-5.7
		c-2.2,2.1-3.9,4.5-5.3,7.1c6.3-4.6,10.8-11.5,18.1-14.8c-4.6,5-11,8.4-14.2,14.7c4.6-3.4,8.1-7.9,12.8-11.1
		c6.9-4.9,14.5-9,22.8-11.2c0.9-0.5,2.9-0.3,2.8-1.8C98.2,45.6,91.1,51.2,83.3,54.2 M99.9,49.8c-11.4,4.6-22.8,11.3-29.5,21.8
		c4.3-3,7.4-7.4,11.8-10.4c6.6-5,14.1-8.5,21.8-11.5C104.1,47.5,101,49.5,99.9,49.8 M94.5,57.4c-3.9,2.2-8.2,4.2-10.9,7.9
		c3.7-1.7,6.8-4.4,10.4-6.2c3.4-1.9,7.2-3,10.5-5.2C100.8,53.8,97.6,55.8,94.5,57.4 M82.6,72.6c-2.1,1.8-3.7,4-4.9,6.5
		c5.9-5.7,12.3-11,19.6-14.9c2.4-1.5,5.6-2.3,6.9-5.1C96.2,62,88.9,66.9,82.6,72.6 M28.7,77.8c1.7,0.7,3.4,1.2,5.2,1.6
		c0.5-1.2,0.9-2.3,1.4-3.5c-1.1-0.7-2.1-1.4-3.3-1.9C29.9,73.9,29.4,76.3,28.7,77.8 M28.7,84.3c2.4,2,5.8-1,4.8-3.7
		c-1.2,0.8-2.4,1.6-3.6,2.3c-0.2-1.4-0.4-2.8-0.5-4.2C27.2,79.8,26.4,83,28.7,84.3 M23.9,91.7c0.5,0.9,0.9,1.8,1.3,2.6
		c-0.7,0.9-1.4,1.7-2.1,2.6c1.9,0.3,3.8,0.6,5.6,0.9c-0.2-1.1-0.4-2.1-0.6-3.2c0.4-0.4,1.3-1.3,1.7-1.8C28.4,91.2,26,91.8,23.9,91.7
		 M22.6,98.5c-0.1,1.5-0.2,3-0.3,4.6c0.9-0.5,1.7-1,2.6-1.4c1.1,0.8,2.3,1.6,3.5,2.4c0.4-1.4,0.8-2.8,1.2-4.2
		C27.2,99.4,24.9,99,22.6,98.5z"/>
</g>
<g id="_x23_d7bf63ff">
	<path class="st41" d="M117.8,44.7c2.1-0.1,4.2-0.2,6.2-0.1c0.6,0.9,1.1,1.9,1.3,3c-2.6,0-5.2,0-7.7,0
		C117.7,46.9,117.8,45.4,117.8,44.7z"/>
</g>
<g id="_x23_ddc563ff">
	<path class="st42" d="M185.1,50.4c1-1.7,2.1-3.3,3.6-4.7c3,2.9,6,5.8,8.5,9.2c-1.1,1-2.2,2.1-3.4,3.1
		C190.4,56,188.1,52.8,185.1,50.4z"/>
</g>
<g id="_x23_bfa563ff">
	<path class="st43" d="M45.3,49.3c0.4,0.1,1.2,0.3,1.7,0.5c-0.9,1.2-1.4,2.5-1.6,3.9c1.7-0.1,3.2-0.9,4.7-1.5
		c-0.2,2.2-2.7,4-4.7,2.5C43.3,53.4,44.7,50.9,45.3,49.3z"/>
	<path class="st43" d="M40.4,57.1c-0.1-2.6,3.1-2.4,4.9-2.4c0,1.9,1.2,4.7-1.2,5.6C42.1,61.3,39.7,59.2,40.4,57.1 M40.7,57.3
		c0.7,0.7,1.5,1.4,2.3,2c0.9-0.6,1.7-1.3,2.3-2.1c-0.6-0.4-1.8-1.2-2.4-1.5C42.3,56.1,41.3,56.9,40.7,57.3z"/>
	<path class="st43" d="M222.9,124.4c2,0.1,4.1,0.2,6.1,0.3c-0.6,0.8-1.3,1.6-1.9,2.3c0.3,0.9,0.7,1.9,1,2.8
		c-1.8-0.3-3.5-0.5-5.3-0.8c0.8-0.7,1.5-1.4,2.2-2.1C224.3,126.1,223.6,125.2,222.9,124.4z"/>
	<path class="st43" d="M202.8,176.7c0.9-1.6,1.6-4.5,4-4.2c1.8,0.1,2.4,1.9,2.6,3.5c-1,1.4-2.6,2.1-4.1,3c-0.1,0.9-0.2,1.9-0.3,2.8
		c-1.3,1.1-2.7,2.2-4,3.4c-1.4-0.6-2.9-1.2-4.3-1.8c0.9,1.3,1.9,2.5,2.9,3.8c-0.4,0.4-1,1.1-1.4,1.5c-1.2,1.3-2.6,2.2-4.1,3.1
		c-1-1.1-2-2.2-3-3.3c0.8,1.6,1.5,3.2,2.3,4.8c-2.4,1.6-4.4,3.8-6.8,5.4c-0.5-2.1-1.9-3.8-4.1-4.2c3.5-1.7,6.8-3.7,9.2-6.8
		c2.2-1.9,4.3-4,6.2-6.2c1.2,0.8,2.5,1.6,3.7,2.4c0.9-1.5,1.7-3.1,2.1-4.9c-1.7,0.6-3.4,1.1-5.2,1.7
		C199.9,179.3,201.3,178,202.8,176.7 M206.1,174.3c-1.7,0.3-0.9,3,0.7,2.4C208.5,176.3,207.7,173.7,206.1,174.3z"/>
</g>
<g id="_x23_dec765ff">
	<path class="st44" d="M52.3,57.1c1.9-3.4,5-6.1,7.6-8.9c1.5,1.1,2.8,2.4,3.9,3.9c-2.9,3-5.6,6.2-8.8,8.9
		C54.2,59.7,52,58.9,52.3,57.1z"/>
</g>
<g id="_x23_684d2aff">
	<path class="st45" d="M99.9,49.8c1.1-0.2,4.2-2.2,4.1-0.1c-7.7,3-15.2,6.5-21.8,11.5c-4.3,3-7.4,7.4-11.8,10.4
		C77.1,61.1,88.5,54.4,99.9,49.8z"/>
</g>
<g id="_x23_64431fff">
	<path class="st46" d="M103,51.2c1.3,0,2.5,0,3.8,0c0,4.4,0,8.9-0.1,13.3C94,68.7,82.1,76.8,75.4,88.6c0.5-1.8,0.9-3.7,2-5.2
		c5.5-8.2,13.8-14,22.3-18.7c3-1.7,7.4-3,6.8-7.3c-6.6,1-12.4,4.7-17.9,8.2c-5.3,3.4-9.4,8.2-13.9,12.5
		c7.1-10.2,17.8-17.8,29.5-21.9c1.5-0.3,1.9-1.9,2.6-3.1C105.5,52.5,104.3,51.8,103,51.2z"/>
</g>
<g id="_x23_7b5c35ff">
	<path class="st47" d="M132.9,50.8c8.3,1,16.4,3.7,23.7,7.6c1.6,0.8,2.7,2.3,3.8,3.7c-8.7-3.5-17-8.5-26.6-8.9
		c7.2,1.8,14.4,3.7,20.9,7.5c-0.7,1.4-1.5,2.7-2,4.2c1.3,1.7,2.8,3.2,4.2,4.9c-3.8-1.2-7.1-3.3-10.9-4.7c3.6,2.3,7.7,4,10.7,7.2
		c-3.3,0.9-6-1.8-8.8-3.1c-4.5-2.7-9.7-3.6-14.4-5.6C132.4,59.5,133.2,55,132.9,50.8z"/>
</g>
<g id="_x23_915e30ff">
	<path class="st48" d="M183.9,51.1c0.3-0.2,0.9-0.5,1.1-0.7c3.1,2.4,5.4,5.6,8.8,7.6c1.1,0.6,2.3,1.1,3.4,1.7
		c-0.3,0.6-0.8,1.8-1.1,2.4c2.1,3,4.2,6,6.2,9.1c1.6-0.7,3.3-1.4,4.9-2.1c-1.7-3.7-4.2-6.9-6.2-10.4c-0.2-0.3-0.6-1-0.8-1.3
		c0.4,0,1.4-0.1,1.8-0.1c0.9-0.1,2.6-0.2,3.4-0.3c0.8-0.8,1.6-1.7,2.5-2.5c-0.3,1.4-0.7,2.9-0.9,4.3c-0.4,2.4,0.5,4.5,1.7,6.5
		c2.9,5.3,5.2,10.9,8.2,16.1c1.3-0.7,2.5-1.3,3.8-2c-0.1-0.9-0.2-1.9-0.3-2.8c-1.3-0.2-2.6-0.4-3.9-0.7c0.2-0.3,0.5-0.9,0.6-1.2
		c0.2-0.3,0.4-0.9,0.6-1.2c0-1.5-0.2-3-0.4-4.5c1.3-1.3,2.9-2.4,4.7-2.9c1.5,2.9,2.9,6,4.3,9c1.1,3.3,2.2,6.6,3.2,9.9
		c-0.9-1.2-1.9-2.4-2.9-3.6c-0.3,0.9-0.7,1.9-1,2.8c-2.8,0.6-5,2.3-6.7,4.5c0.5,0.1,1.5,0.3,2,0.4c-1,0.9-2,1.8-3,2.8
		c0,0.8-0.1,2.5-0.2,3.3c-0.6-3.2-1.7-6.7-5.2-7.8c-2.1,4-0.3,8.4,0.6,12.4c-0.3,0.6-1,1.9-1.4,2.5c-1.4-5.8-2.4-11.8-4.7-17.4
		c-2.8-7.9-7.3-15-12.2-21.8C191.6,58.8,187.6,55.1,183.9,51.1 M205.2,75.9c1.2,3.4,2.9,6.6,4.2,10c1.7-0.3,3.3-0.9,4.9-1.7
		c-1.2-3.8-2.8-7.5-4.6-11.1C207.9,73.2,204.9,73.2,205.2,75.9z"/>
</g>
<g id="_x23_74502bff">
	<path class="st49" d="M146.5,51.8c6.4,1.1,12.2,4.5,17.5,8c-0.5,0-1.5,0.1-2,0.1l-0.4-0.1C157.2,56.2,151.5,54.7,146.5,51.8z"/>
</g>
<g id="_x23_6a502dff">
	<path class="st50" d="M94.5,57.4c3.1-1.6,6.3-3.6,9.9-3.4c-3.2,2.2-7,3.3-10.5,5.2c-3.6,1.8-6.7,4.5-10.4,6.2
		C86.3,61.6,90.5,59.6,94.5,57.4z"/>
</g>
<g id="_x23_856b38ff">
	<path class="st51" d="M40.7,57.3c0.5-0.4,1.6-1.2,2.2-1.6c0.6,0.4,1.8,1.2,2.4,1.5c-0.7,0.8-1.4,1.6-2.3,2.1
		C42.2,58.7,41.4,58,40.7,57.3z"/>
</g>
<g id="_x23_a79b5fff">
	<path class="st52" d="M62.8,64.9c2.2-3.2,5-5.9,8-8.2C68.3,59.6,65.7,62.3,62.8,64.9z"/>
	<path class="st52" d="M96,121.5c1.1-4.3,5-7.3,6.1-11.8c3.1-0.1,6.1,0.7,8.7,2.4c4.9,3,10.7,3.6,16.2,4.4c-0.5,3.5-1.3,7-1.5,10.5
		c-0.5-0.2-1.4-0.5-1.8-0.7c0-2.6,0.1-5.3,0.2-7.9c-2.2-0.7-4.3-1.5-6.6-1.9c-2-0.4-4.1-0.7-6.1-1.2c-2.8-0.8-6.2-2-8.8-0.1
		c-2.4,2.6-4.1,5.7-5.4,9C96.8,123.6,96.3,122.2,96,121.5z"/>
</g>
<g id="_x23_d5bc66ff">
	<path class="st53" d="M113.9,58.5c4.3-1.2,8.8-1,13.3-1.2c-0.9,0.6-2.7,0.9-1.9,2.4c0.8,0.4,1.7,0.7,2.5,1c-4.6,0-9.2,0.1-13.8,0
		c0.9-0.6,2.6-1.8,3.5-2.4C116.6,58.3,114.8,58.4,113.9,58.5z"/>
</g>
<g id="_x23_b89856ff">
	<path class="st54" d="M207.1,58.7c2-0.5,4.1-0.9,6.1-1.4c0.3,0.6,0.8,1.9,1.1,2.5c-1.4,1.4-2.7,2.7-4.1,4.1
		c0.6,0.9,1.2,1.8,1.8,2.7c1.9-0.3,3.8-0.5,5.7-0.2c-1.4,1.1-2.9,2.2-4.4,3.3c1.3,0.8,2.7,1.5,4,2.3c-0.1,0.7-0.2,2.1-0.2,2.7
		c-0.1,0.3-0.5,0.9-0.6,1.2c1.3,0.2,2.6,0.4,3.9,0.7c0.1,0.9,0.2,1.9,0.3,2.8c-1.3,0.6-2.5,1.3-3.8,2c-3-5.2-5.3-10.8-8.2-16.1
		C207.6,63.3,206.7,61.1,207.1,58.7z"/>
</g>
<g id="_x23_ad9157ff">
	<path class="st55" d="M30.6,72.2c3.2-4.1,5-9.1,8-13.3c1.3,1.7,2.7,3.4,4,5.2c-1.1-0.2-3.3-0.7-4.5-0.9c0.3,2.3,0.5,4.5,0.8,6.8
		c-1.6-0.5-3.1-1-4.7-1.5c1.3,1.7,2.5,3.4,3.7,5.2c-1.1-0.1-3.2-0.3-4.3-0.4C32.6,72.8,31.6,72.5,30.6,72.2z"/>
</g>
<g id="_x23_6b4e2dff">
	<path class="st56" d="M82.6,72.6c6.4-5.6,13.6-10.6,21.7-13.4c-1.3,2.7-4.5,3.5-6.9,5.1c-7.3,3.9-13.7,9.2-19.6,14.9
		C78.9,76.6,80.5,74.3,82.6,72.6z"/>
</g>
<g id="_x23_d4b661ff">
	<path class="st57" d="M197.3,59.7c1.2-0.4,2.5-0.7,3.8-1.1c2.1,3.5,4.6,6.7,6.2,10.4c-1.6,0.7-3.2,1.4-4.9,2.1
		c-2-3.1-4.1-6.1-6.2-9.1C196.5,61.5,197,60.3,197.3,59.7z"/>
</g>
<g id="_x23_d5b65fff">
	<path class="st58" d="M52.2,61.4c0.1,1.1,0.3,2.2,0.4,3.2c-1.8,3.2-3.8,6.2-5.8,9.2c-1.2-0.2-2.3-0.4-3.4-0.7
		c-0.2-0.5-0.6-1.6-0.8-2.1c1.5-3.2,3.4-6.3,5.6-9.2C49.6,61.7,50.9,61.5,52.2,61.4z"/>
</g>
<g id="_x23_7d5f3cff">
	<path class="st59" d="M125.6,62.7c1.3,0,2.5,0.1,3.8,0.2c0.2,3,0.6,6,0.7,8.9c-2.9-3.1-6.1-7.1-10.9-6.1
		C121.5,64.8,125.4,66.2,125.6,62.7z"/>
</g>
<g id="_x23_957d4cff">
	<path class="st60" d="M108,64c1.3-0.3,2.6-0.6,4-0.8c4.5-0.3,9.1-0.5,13.6-0.5c-0.2,3.5-4.1,2.1-6.4,3c-5.5,2.1-7.8,8-12.2,11.4
		c-4.3,2.5-9.6,2-14.2,3.9c-6.9,2.9-13.7,8.3-15,16.1c-0.4-0.6-1.3-1.9-1.7-2.5c1.8-4.7,4.7-8.9,8.1-12.6c2.8-1.8,6.3-2.2,9.3-3.8
		c4.6-2.4,9.2-4.9,14-6.8c0.1-1.6,0.3-3.2,0.4-4.8c-7.8,1.3-14.8,5.6-20.8,10.6c-5.4,4.5-9.2,10.6-12.4,16.8
		c-2,3.5-2.6,7.5-3.3,11.4c-0.6-1.3-1.7-2.6-1.2-4.2c1.1-4.4,3.8-8.2,5.2-12.5c6.8-11.9,18.7-19.9,31.4-24.1
		C107.1,64.4,107.7,64.1,108,64 M111.9,64.9c0,1.4,0.1,2.9,0.2,4.3c1.5-1.4,2.9-2.8,4.2-4.3C114.9,65,113.4,64.9,111.9,64.9z"/>
	<path class="st60" d="M99.1,71.1c2.2-1.2,4.6-1.9,7.1-1.9c-3.9,2.1-8.2,3.5-11.8,6.1c-2.2,1.5-4.1,3.6-6.8,4
		C90.5,75.5,94.9,73.3,99.1,71.1z"/>
</g>
<g id="_x23_221a10ff">
	<path class="st61" d="M154.2,63.7c3.8,0.2,7.6-0.5,11.4-0.3c3.8,0.9,7.3,2.8,11.3,3.3c2.2,0.1,3.5,2,4.5,3.8
		c0.1,0.7,0.3,2.2,0.4,2.9c-1.5,0-3,0-4.5,0c1,1.1,2.1,2.1,2.7,3.4c-3.3,0.6-7.1-0.1-10.1,2c-2.1,1.1-2.6,3.6-3.2,5.7
		c-1.2,5.7-1.8,12-5.7,16.6c-2,2.5-5.1,3.5-8,4.6c-0.8-0.4-1.6-0.8-2.4-1.1c0.3-0.5,1-1.5,1.3-2c-2.3-0.7-4.6-1.5-6.3-3.2
		c-3.5-3.1-8.2-4.4-11.7-7.5c2.8-3.3,5.8-6.4,9.1-9.2c2.1,2.5,2.7,7.6,7,7.1c3.9,0.3,5.8-3.6,6.3-6.9c0.4-4.2,0.2-8.5,1-12.6
		C158.1,67.6,155.4,65.7,154.2,63.7z"/>
</g>
<g id="_x23_b08d50ff">
	<path class="st62" d="M192.6,67.4c-1.2-1.5-1.7-3.3-2.3-5.1c7,9.4,13.3,19.5,16.3,30.9c-1.7-0.3-3.4-0.7-5.2-1
		c0.1-0.4,0.2-1.3,0.2-1.7c1.1,0.5,2.3,1.1,3.4,1.6C202.9,83.1,198.1,74.9,192.6,67.4z"/>
	<path class="st62" d="M63.5,128.8c0.3-0.1,0.6-0.1,1,0c0.3,0.3,1.1,0.9,1.4,1.2c0.2,0.2,0.7,0.6,1,0.8c-0.2,0.6-0.5,1.9-0.7,2.5
		c1.4-0.4,2.9-0.8,4.3-1.2c-0.5,1.2-1,2.4-1.5,3.6c2.4-0.7,4.6-1.8,6.2-3.7c0.2,0.3,0.5,0.9,0.7,1.2c0,1.4,0,2.8,0,4.1
		c-0.6,3.7-2.7,7.9-0.1,11.3c0.3-1.6,0.5-3.2,0.7-4.8c0.2,6.9,0.7,13.8,1.3,20.7c2.4,0.7,5.8,3.3,7.8,0.6c-1.3-2.7-3.8-5-3.9-8.2
		c-0.5-6.8-0.5-13.7,0.8-20.4c0.8,0.8,1.7,1.6,2.2,2.6c3,6.4,6.2,12.8,7.9,19.7c-0.4,1.5-0.8,3.1-1.1,4.6c3.9,0.2,7.8,0.3,11.8,0.2
		c-0.2-3.6-3.9-4.5-6.1-6.7c-1.3-1.6-1.9-3.6-2.7-5.5c3.8,1.6,6.4,5,9.6,7.5c3.4,2.7,7.5,4.3,11.5,5.7c3.7,1.3,7.8,1.4,11.3,3.5
		c-6.7,0.4-12.9-1.9-19.3-3.4c0.9,0.7,1.8,1.4,2.7,2.1c-1.6,0.2-3.2,0.4-4.8,0.6c0,0.7,0,2,0,2.7c3,0.1,6.6,1,8.5-2
		c4.5,1.3,9.3,1,14,0.7c0.7,0,1.3,0,2-0.1l1.3,1.5c-5.9-0.5-11.8-0.5-17.6,0.4l-0.2,0c-2.2,0.1-4.5,0.4-6.7,0.6
		c1.5,0.8,3.1,1.6,4.7,2.3c2.2,0.5,4.4,0.8,6.6,1.1c-2.9,0.2-5.8,0.5-8.6,1.4c-1.3,0.5-2.6,1.1-3.9,1.6c-6-4.2-13.5-5.4-19.6-9.4
		c-1.8-0.8-3.9,0.1-5.7,0.1c-2.5-2.6-3.7-5.9-4.1-9.4c-0.2-4.2-3.7-6.9-5.7-10.2c-2.8-4.4-4.5-9.4-7.1-14c0.7,2.8,1.3,5.7,1.8,8.6
		c-2-3.1-4-6.4-4.4-10.1C61.2,131.6,62.4,130.2,63.5,128.8 M83.1,154.5c1.9,2.5,4.2,6.9,7.8,4.4c-1.6-2-3.3-3.9-5.1-5.6
		C84.9,153.7,84,154.1,83.1,154.5 M93.8,168.5c3.5,0.7,7.2,0.8,10.7,0.2C101.1,167.4,97.3,168,93.8,168.5z"/>
</g>
<g id="_x23_73542dff">
	<path class="st63" d="M111.9,64.9c1.5,0,2.9,0,4.4,0c-1.3,1.5-2.7,2.9-4.2,4.3C112,67.8,112,66.4,111.9,64.9z"/>
</g>
<g id="_x23_6e4f2bff">
	<path class="st64" d="M133,64.9c5.4,1.1,10.5,3.2,15.4,5.7c2.6,1.4,5.5,2.6,6.8,5.5c-7-3.3-13.6-8-21.5-8.8
		c3.2,2.1,7.2,2.5,10.6,4.3c3.6,1.9,7.5,3.6,10.5,6.4c0,0.8,0.1,2.3,0.1,3.1c-6.5-4.9-13.8-8.9-21.8-10.7
		C133.1,68.6,133.1,66.8,133,64.9z"/>
</g>
<g id="_x23_322918ff">
	<path class="st65" d="M107,77c4.4-3.4,6.7-9.3,12.2-11.4c4.9-0.9,8,3,10.9,6.1c0.2,0.2,0.6,0.6,0.8,0.8c4.1-0.5,7.9,1.3,11.6,2.9
		c4.5,2.2,9,4.9,11.9,9.2c-6.7-5.5-14.4-9.9-22.9-11.8c2,5.1,7.2,7.1,11.6,9.7c-3.3,2.8-6.3,5.9-9.1,9.2c3.5,3.2,8.2,4.4,11.7,7.5
		c1.8,1.7,4,2.5,6.3,3.2c-0.3,0.5-1,1.5-1.3,2c0.8,0.4,1.6,0.8,2.4,1.1c-2.7,1.3-3.8,4.3-6.1,6.1c-5,2.8-7.3,8.7-7.9,14.2
		c0,6-3.4,11.3-3.9,17.2c-1.4,6,0.9,12,0.3,18.1c2.1,1,4.2,1.9,6.2,2.9c-0.4,0.6-1.1,1.8-1.4,2.4c-3-0.2-6-0.6-8.9-1.2
		c0.6-5.5-0.6-11,0.5-16.4c1-5.2,0.5-10.5,0.4-15.8c-0.4,0.1-1.2,0.2-1.6,0.2c-1.4,4.5-2.5,9.1-5,13.1c-2.3,3.7-2,8.1-1.9,12.3
		c2.3,0.9,5.5,1.3,5,4.5c-3-0.1-7,0.8-8.8-2.3c-1.1-3.3-0.5-6.8,0.6-10c1.1-3.2,1.2-6.7,1.6-10.1c1.8-4.5,3.8-9,3.4-14
		c0.1-3.6,0.9-7,1.5-10.5c-5.6-0.8-11.3-1.4-16.2-4.4c-2.6-1.7-5.6-2.5-8.7-2.4c-1,4.4-5,7.4-6.1,11.8c-0.2,1-0.4,2-0.6,3
		c-1.4-1.2-3.2-1.7-5-1.1c0-1.5-0.1-3-0.1-4.5c-1.6-0.2-3.2-0.4-4.9-0.7c0.6-1.7,1.3-3.4,1.7-5.2c-0.7-1.1-1.6-1.2-2.6-0.6
		c-1,2.1-1.6,4.4-2.3,6.6c-0.2-4.8,1-9.6,0.3-14.5c0.1-3.2,0.1-6.5-0.2-9.7c-5.5,4.3-5.6,11.9-5.5,18.3c0.2,4.2-2.6,7.6-6.3,9.2
		c0.2-2.7,0-5.5,0.6-8.2c1.1-3,3.7-5.2,4.6-8.3c0.9-2.8,1.3-5.8,2-8.7c1.4-7.8,8.1-13.2,15-16.1C97.3,79.1,102.7,79.6,107,77z"/>
</g>
<g id="_x23_6e4726ff">
	<path class="st66" d="M87.1,77.2c6-5,13-9.3,20.8-10.6c-0.1,1.6-0.3,3.2-0.4,4.8c-4.9,1.9-9.4,4.4-14,6.8c-3,1.6-6.5,2-9.3,3.8
		c-3.3,3.7-6.3,7.9-8.1,12.6c-0.3-0.2-1-0.5-1.3-0.7C77.9,87.7,81.7,81.7,87.1,77.2 M99.1,71.1c-4.2,2.2-8.6,4.4-11.6,8.2
		c2.7-0.4,4.6-2.6,6.8-4c3.6-2.6,7.9-4,11.8-6.1C103.7,69.2,101.3,69.8,99.1,71.1z"/>
	<path class="st66" d="M169.4,84.1c2.7,3.6,5.2,7.3,6.9,11.4c3.5,7.3,4,15.4,4.9,23.3c2.6,3.5,6.4,6,8.9,9.6
		c-4.9-1.5-7.7-6.1-11.4-9.3c-2.4-1.8-2-6-5.3-6.7c-0.1,3.3,1.8,6,4,8.2c-11.2-1.5-22.7,0-34-0.9c0.4-0.3,1.1-1,1.5-1.3
		c9.8-1,19.9,1,29.6-1c-10-0.8-20.1-0.1-30.1-0.6c3.2-2.5,5.9-5.5,8.8-8.2c3.1-1.9,6.6-3.2,9.6-5.2c1.2,3.8,1.5,7.8,2.2,11.7
		c0.5,0.2,1.6,0.7,2.1,1c0.7-5.9-2.6-11.2-2.2-17c2.6,4.9,3.3,10.5,4.1,15.9c0.5,0.3,1.4,0.8,1.9,1.1c0.3-5.8-1.2-11.3-3.4-16.6
		c-1.6-3.3,0-6.8,0.6-10.1c2.5,4.1,3.3,9.3,7,12.6c-0.6-5.5-3.5-10.3-6.4-14.8C169.1,86.3,169.3,84.8,169.4,84.1 M168.4,93.8
		c0.8,3.6,1.8,7.3,4,10.3C172.9,100.4,171.1,96.4,168.4,93.8 M173.6,111.7c5.4,1.6,5.2-9.6,0.3-8C173,106.3,173.5,109,173.6,111.7z"
		/>
</g>
<g id="_x23_724a27ff">
	<path class="st67" d="M184.1,72.1c4.2,5.3,7.6,11.3,10.3,17.5c1.6,3.7,2.1,8.1,5,11c2.6,2.8,5.3,5.8,9.2,7c-2.8-3.8-6.8-6.6-9-10.8
		c3.4,2.4,6.1,5.7,9.7,7.8c3.4,0.3,6.9,0.2,10.2-0.9c-2.6-0.3-5.2-0.6-7.7-1.3c0.3-0.6,1-1.9,1.4-2.5c0.1,0.4,0.4,1.2,0.5,1.6
		c1.7-0.1,3.3-0.2,5-0.4c0.7-0.1,2-0.2,2.6-0.2c2,3.2,1.3,7.2,1.7,10.8c1.6-0.6,3.1-1.3,4.7-2c1.4-0.5,2.9-1.6,4.3-0.5
		c1.3,1.3,1.7,3.3,2.3,5.1c0.2,18.8-4.2,37.8-13.6,54.2c-2.4,4.3-5.2,8.3-8.1,12.4c-0.6-2.2-1-4.4-1.4-6.5c0.8-1.2,1.5-2.4,2.3-3.6
		c-1.8-0.7-3.6-1.4-5.5-2.1l-0.7,0.4c-1.7,1.2-3.3,2.5-4.9,3.8c-0.1-0.4-0.3-1.3-0.4-1.8c1.6-2.2,3.1-4.6,4.3-7.2
		c0.7-1.4,1.5-2.7,2.3-4c2.4-3.4,3.8-7.3,5.3-11.2c-0.7-0.2-2.2-0.5-2.9-0.7c1.4-0.9,2.8-1.8,4.1-2.8c0.1-0.2,0.4-0.5,0.5-0.6
		l-0.1-0.6c-0.1-0.5-0.4-1.4-0.5-1.9c0.5-0.7,0.9-1.4,1.4-2c0.2-0.3,0.6-0.8,0.8-1.1c-8.3-0.6-16.7-0.2-25-0.2l-0.9-0.5
		c8.7-0.4,17.4,0.1,26.1-0.5c-2.2-0.7-4.4-1.4-6.6-2.1c2.2-0.5,4.5-1.1,6.8-1.6c-1.8,0.1-3.5,0.2-5.3,0.3c0-1.7,0-3.4,0-5.1
		c2-0.1,3.9-0.2,5.9-0.3c-2.3-0.6-6.1,0.6-6.7-2.4c2.6-0.1,5.2,0,7.9,0c-2.9-0.5-6.7,0.4-8-3c2.6-0.2,5.3-0.4,7.9-0.6
		c-7.5-0.8-15.1-1.3-22.6-0.4c-3.1-3.2-5.7-6.7-8.7-9.9c2.9,4.8,7.7,8,10.2,13c-0.8,0-2.5,0-3.4,0c-1.9-2-3.8-4-5.8-5.8
		c1.7,2.2,3.6,4.3,5.6,6.3c0.9,0.1,2.6,0.4,3.5,0.6c-2,2.3-5.3,1.5-7.1-0.6c-3.1-3.4-7.7-6.2-8-11.3c2,1.7,4.1,3.3,6.2,4.9
		c-0.9-1.8-1.8-3.6-2.7-5.4c1.8-2.5,2.1-5.5,2-8.5c1.4,5,5.3,8.6,8.6,12.3c1.5,2,4.1,1.4,6.2,1.6c5.4-0.1,10.9,0.1,16.3-0.4
		c-6.5-1.4-13.3,0.6-19.7-1.2c-4-3.2-8.1-7.1-9.1-12.3c0.4,0.4,1.1,1.1,1.5,1.5c3.2,3,5.1,7.6,9.3,9.3c6,1,12.1,0.6,18.1,0
		c-5.7-4.3-13.6,0.3-19.7-3.1c6.9,0.4,13.8,1.5,20.6-0.2c-5.6-1.2-11.3,0.1-16.8-0.9c-3.4-2.2-5.6-5.8-8.2-8.9c0-0.8,0-1.6-0.1-2.4
		c3.1,3.3,5.6,7.7,9.8,9.6c4.9,0.2,10.3,1.3,14.8-0.8c-4.7-0.7-9.6,0.1-14.3-0.7c-3-2.1-5.7-4.9-7.8-8c-2.1-4.2-2.8-9-4.9-13.2
		C190.6,82.5,187,77.5,184.1,72.1 M224.3,116.2c0,1.1,0.1,2.2,0.1,3.3c1-0.1,1.9-0.2,2.9-0.2c0-1,0.1-1.9,0.1-2.9
		C226.4,116.4,225.4,116.3,224.3,116.2 M222.9,124.4c0.7,0.8,1.4,1.7,2.2,2.6c-0.8,0.7-1.5,1.4-2.2,2.1c1.8,0.3,3.5,0.6,5.3,0.8
		c-0.3-0.9-0.7-1.9-1-2.8c0.6-0.8,1.3-1.6,1.9-2.3C226.9,124.6,224.9,124.5,222.9,124.4 M221.4,133.7c0.9,0,1.9,0,2.8,0
		c1,0.6,1.9,1.3,2.9,1.9c0.4-1.4,0.8-2.8,1.3-4.2c-2.1,0.4-4.1-0.4-5.8-1.6C222.3,131.1,221.9,132.4,221.4,133.7 M221.5,134.8
		c0.5,1.2,0.9,2.5,1.3,3.7c-1,0.7-2,1.4-3,2.1c2,0.5,4,1.1,6,1.5c-0.1-1-0.2-2-0.4-3c0.6-0.8,1.2-1.5,1.8-2.3
		C225.4,136.1,223.5,135.4,221.5,134.8 M217.5,149.4c-1,2.7-1.8,5.6-3.3,8.1c1.4,0.8,2.8,1.6,4.2,2.4c1.1-1.1,2.4-2.2,2.4-3.9
		c-0.5-1.2-1.9-1.7-2.8-2.6c0.2-1.6,0.9-3.2,2.9-2.8c-0.2,1.2-0.4,2.5-0.6,3.7c1.3-0.6,3.4-1.5,2.6-3.4
		C222.6,148.7,218.9,147.7,217.5,149.4 M212.5,159.6c0,2.5,2.4,3.8,3.9,5.5c0.6-1.5,1.4-2.9,2.4-4.2
		C216.7,160.4,214.6,160,212.5,159.6 M210.4,163.1c0.2,1.9,0.1,3.9,0.8,5.7c1.7,1.7,4.6-0.4,4.7-2.5
		C214.9,164.1,212.4,163.6,210.4,163.1z"/>
</g>
<g id="_x23_d5b65eff">
	<path class="st68" d="M205.2,75.9c-0.3-2.6,2.6-2.7,4.5-2.8c1.8,3.6,3.4,7.2,4.6,11.1c-1.5,0.8-3.2,1.4-4.9,1.7
		C208.1,82.5,206.4,79.3,205.2,75.9z"/>
</g>
<g id="_x23_a59053ff">
	<path class="st69" d="M28.7,77.8c0.6-1.5,1.2-3.9,3.2-3.8c1.2,0.6,2.2,1.2,3.3,1.9c-0.5,1.2-0.9,2.3-1.4,3.5
		C32.2,79,30.4,78.4,28.7,77.8z"/>
</g>
<g id="_x23_e8d267ff">
	<path class="st70" d="M226.3,75.1c3.4,3.1,5.9,6.9,7.7,11.1c2,6.3,3.4,12.9,3.5,19.4c-1.5-3.1-3.3-6-4.9-9c-1-3.9-1.7-7.8-3-11.7
		C228.5,81.7,227.4,78.3,226.3,75.1z"/>
</g>
<g id="_x23_d4b560ff">
	<path class="st71" d="M40.5,75.9c1.6,0.5,3.1,1.2,4.5,2.1c-1.6,3.6-3.1,7.4-4.4,11.1c-1.5-0.4-3-0.6-4.3-1.4
		c0.1-3.8,2-7.3,3.2-10.9C39.8,76.6,40.2,76.1,40.5,75.9z"/>
</g>
<g id="_x23_aa8e53ff">
	<path class="st72" d="M28.7,84.3c-2.2-1.3-1.4-4.6,0.7-5.5c0.2,1.4,0.4,2.8,0.5,4.2c1.2-0.8,2.4-1.6,3.6-2.3
		C34.5,83.4,31.1,86.4,28.7,84.3z"/>
</g>
<g id="_x23_977a45ff">
	<path class="st73" d="M55.2,105.5c1.7-8.9,4.9-17.5,10.1-24.9c1.3,0.5,2.6,0.4,3.9-0.1c-2,2.6-3.5,5.6-4.5,8.7
		c1.5-1.7,3-3.4,4.5-5.1c-1.8,5.3-5,10.3-5.2,16c1.9-4.6,3.8-9.4,6.8-13.4c-0.6,2.6-1.3,5.1-1.9,7.7c1.4-1.9,2.8-3.8,4.3-5.8
		c-1.6,5.8-4.8,11.3-5,17.4c0.7,1.6,2.3,2.5,3.4,3.6c-3.5,4.1-2.8,9.8-4,14.7c-1.3,0.1-2.6,0.2-3.8,0.3c-2.1-1.9-3.9-4.1-5.1-6.6
		c2.7,2,5,5,8.6,5.3c-3.1-3.8-6.6-7.3-9.7-11.1c-0.4,0.8-1.1,2.3-1.5,3c-1.5-2.4-1.4-5.2-1.2-8C55.1,106.8,55.1,105.9,55.2,105.5
		 M65.1,104.1c0.1,2.9,1.2,5.5,3.1,7.6c0.5-0.2,1.5-0.5,2-0.7C68.2,108.9,66.3,106.7,65.1,104.1z"/>
</g>
<g id="_x23_6f4d29ff">
	<path class="st74" d="M143.6,79.8c3.4,1.7,6.9,3.8,8.9,7.2c-1.4,0-2.9,0-4.3,0.1C146.6,84.6,144.7,82.4,143.6,79.8z"/>
</g>
<g id="_x23_83562cff">
	<path class="st75" d="M226.6,81.4c1,1.2,2,2.4,2.9,3.6c1.2,3.8,2,7.8,3,11.7c0.8,5.9,1.4,11.7,1.7,17.6c-0.6-1.7-1-3.7-2.3-5.1
		c-1.4-1.1-2.9,0-4.3,0.5c-0.2-1.5-0.4-3-1.3-4.3c-0.3,1-0.8,3.1-1,4.2c-0.6-2.6-1.2-5.2-1.6-7.8c1.6-0.8,3.3-1.7,5-2.5
		c-2.9,0-5.7,0-8.5,0c0.3,0.4,0.9,1.2,1.2,1.5c-0.6,0.1-2,0.2-2.6,0.2c-0.3-2-0.6-3.9-0.9-5.9c0.1-0.8,0.2-2.5,0.2-3.3
		c1.6-0.2,3.2-0.3,4.9-0.5c-0.9,1.3-1.7,2.6-2.6,3.9c1.7,1.4,3.8,1.4,5.8,0.6c-0.5-2-1-4-1.6-6c-1.2-0.2-2.3-0.5-3.5-0.8
		c-0.5-0.1-1.5-0.3-2-0.4c1.8-2.1,3.9-3.9,6.7-4.5C225.9,83.2,226.3,82.3,226.6,81.4z"/>
</g>
<g id="_x23_a2824bff">
	<path class="st76" d="M48.2,88.3c1.2-2.2,2.4-4.3,3.5-6.5c0.1,0.7,0.3,2.1,0.5,2.8c0.5-0.1,1.5-0.4,2-0.5
		c-2.6,6.8-4.9,13.8-5.1,21.1c1.6-4.3,2.1-9.2,4.9-13c-0.5,4.4-1.6,8.8-1.2,13.2c-0.5,6.7-0.2,13.4-1.2,20c-1-6.5-0.5-13.1-1.2-19.6
		c-1.8,6.7-0.6,13.7-1.6,20.4c-1.7-7.4-0.8-15-1.3-22.5c-1,3.8-1.5,7.6-2,11.5c-0.4-3.8-0.7-7.7-0.9-11.5c-1.3,6.1-1.1,12.4-2,18.5
		c-0.5-5.6-0.1-11.2-1.1-16.8c-0.8,5.2-0.5,10.5-1.1,15.7c-1.9-8.1-0.3-16.3,0.3-24.5c-2.6,9.2-3.1,18.8-3.1,28.4
		c-1.2-0.7-2.4-1.4-3.6-2c-1.5,0.5-3,0.9-4.5,1.4c-0.3-1.6-0.7-3.1-1-4.7c-3-0.8-6-1.6-8.9-2.5c-0.5,1.2-0.9,2.3-1.4,3.4
		c-0.3-0.5-0.8-1.6-1.1-2.1c-0.2-4.7,0-9.4,0.6-14c0.2,2.1,0.5,4.2,0.7,6.3c0.2-1.4,0.4-2.8,0.6-4.2c1.4,0.1,2.8,0.1,4.2,0.1
		c-0.4,0.5-1.1,1.5-1.5,2.1c-0.1,0.2-0.4,0.5-0.5,0.7c2.9,0.4,5.9,0.8,8.4,2.5c0.1-0.5,0.4-1.4,0.6-1.9c0.3-0.3,0.9-1,1.2-1.4
		c0,4,0,7.9,0,11.9c1.8,0.1,3.6,0.1,5.5,0.2c0-4,0-7.9,0-11.9c-1.3-0.6-2.6-1.3-3.9-1.9c0.5-0.7,0.9-1.4,1.4-2.2
		c1-0.5,2.1-1,3.1-1.4c0.6-3.4,1.2-6.8,1.8-10.2c0.5,0.8,0.9,1.5,1.3,2.3c0.8-4.3,2-8.7,4.6-12.3c-0.3,2.7-0.7,5.3-1.1,7.9
		c1.2-2.5,2.4-5,3.7-7.4C47.9,85.3,48,86.8,48.2,88.3 M24.2,113.1c-0.4,0.5-1.3,1.4-1.7,1.9c0.9,1.1,1.8,2.4,3.5,2
		c1-0.9,0.7-2.3,0.8-3.5C26.1,113.3,24.8,113.2,24.2,113.1z"/>
</g>
<g id="_x23_bd9954ff">
	<path class="st77" d="M52.7,105.4c1.9-7.8,4-15.6,8-22.6c-2.2,7.4-6.6,14.7-5.6,22.7c0,0.4-0.1,1.3-0.1,1.7
		c-0.2-0.4-0.7-1.3-0.9-1.8c-0.6,5.8-0.7,11.7-0.2,17.6c0.4,3.2,0.9,6.4,1.3,9.7c0.9-0.9,1.8-1.9,2.7-2.7c0.1,0.6,0.2,1.8,0.3,2.3
		c1.7-1.2,3.5-2.4,5.2-3.5c-1.1,1.4-2.2,2.8-2.8,4.5c0.3,3.7,2.4,7,4.4,10.1c-0.5-2.9-1.1-5.8-1.8-8.6c2.6,4.6,4.3,9.5,7.1,14
		c2,3.3,5.5,6,5.7,10.2c0.4,3.5,1.6,6.9,4.1,9.4c-0.3,0-0.8,0.1-1.1,0.1c-2.9-2.4-5.4-5.3-8.4-7.6c2.4,5.1,7.5,7.9,10.5,12.5
		c-5.3-2.8-8.6-8-13.5-11.4c5.2,8.1,13.2,14,21.4,18.9c5.2,3.2,11.1,4.8,16.6,7.1l-0.9,0.4c-3.5-0.9-6.9-1.8-10.5-2
		c-6.2-2.3-11.9-5.8-17-9.9c-4.3-3.3-7.6-7.8-12.2-10.8c0.1,1.6,0.3,3.3,0.4,4.9c-1.2-0.8-2.5-1.6-3.8-2.4c0.5,4.6,4.1,7.7,7,10.9
		c-5.4-3.5-9.1-8.9-13.5-13.5c-0.1,1.2-0.3,2.5-0.4,3.7l-1.4-1.3c-2-4.9-4.4-9.8-8.3-13.4c-1.4,0.7-2.8,1.5-4.3,1.9
		c-1.8-0.4-3.4-1.4-5-2.2c-0.2-0.7-0.8-2-1-2.7c-0.2-0.5-0.5-1.4-0.7-1.9c-3.4,0-6.8-0.6-9.7-2.4c-0.3,1.6-0.7,3.2-1.3,4.7
		c-0.2-0.7-0.6-2.1-0.8-2.8c-1.1-4.3-2.5-8.6-3.3-13c0.5-1.6,1-3.1,1.6-4.6c0.2,0,0.7-0.1,1-0.1c1.2,0.2,2.4,0.3,3.5,0.5
		c-1.1,0.7-2.2,1.4-3.4,2.1c2.6,0.1,5.2,0.1,7.8-0.2c-1.6,0.7-3.5,0.9-4.6,2.3c0.1,2.1,0.5,4.4,2.3,5.6c2.3,0.4,4.4-1.1,6.5-1.8
		c2.3-0.3,4.6-0.5,7-0.7c0.1-1,0.2-2,0.2-3c-0.4,0.1-1.2,0.3-1.6,0.3c-0.7-3.8-1.5-7.6-1.7-11.5c0-9.5,0.5-19.2,3.1-28.4
		c-0.6,8.1-2.2,16.4-0.3,24.5c0.5-5.2,0.3-10.5,1.1-15.7c1,5.5,0.6,11.2,1.1,16.8c1-6.2,0.7-12.4,2-18.5c0.2,3.8,0.5,7.7,0.9,11.5
		c0.5-3.9,1-7.7,2-11.5c0.5,7.5-0.4,15.1,1.3,22.5c1.1-6.8-0.1-13.8,1.6-20.4c0.7,6.5,0.1,13.1,1.2,19.6
		C52.5,118.8,52.2,112.1,52.7,105.4 M37.2,140.2c-0.6,0.7-1.3,1.3-2,2c1.2,3.7,2.7,7.4,4.7,10.8c1.5-0.3,3-0.7,4.5-1
		c-0.9-3.7-2.3-7.3-3.9-10.8C39.7,140.5,38.3,140.6,37.2,140.2z"/>
</g>
<g id="_x23_8c693eff">
	<path class="st78" d="M166.7,84.5c0.8,0.8,1.5,1.7,2.2,2.5c2.9,4.5,5.8,9.3,6.4,14.8c-3.7-3.3-4.5-8.5-7-12.6
		c-0.7,3.3-2.3,6.9-0.6,10.1c2.1,5.3,3.6,10.9,3.4,16.6c-0.5-0.3-1.4-0.8-1.9-1.1c-0.8-5.4-1.5-11-4.1-15.9
		c-0.4,5.8,2.9,11.1,2.2,17c-0.5-0.2-1.6-0.7-2.1-1c-0.7-3.9-1-7.9-2.2-11.7c-3,2.1-6.5,3.3-9.6,5.2c-2.9,2.8-5.6,5.8-8.8,8.2
		c10,0.5,20.1-0.2,30.1,0.6c-9.7,2-19.8,0-29.6,1c-0.4,0.3-1.2,1-1.5,1.3c11.3,0.9,22.7-0.6,34,0.9c-2.6,1.6-5.7,1.1-8.6,1.1
		c-8.8,0-17.5-0.2-26.3,0c0,0.2-0.1,0.5-0.2,0.7c-0.2,0.9-0.7,2.7-0.9,3.6c0,0.2-0.1,0.5-0.2,0.7c13.4-0.2,26.8,0.4,40.2-0.3
		c0.7,0.6,1.3,1.2,2,1.8c-14.2,0.2-28.4-0.1-42.7,0.2c11.6,0.2,23.3,0.2,34.9,0.1c3.3,0.2,7.2-1,9.9,1.5
		c-15.1,0.4-30.1-0.1-45.1,0.3c0.9,0.1,1.9,0.2,2.8,0.2c0,0.3,0,1.1,0,1.4c-3.8,0.3-4.1,4.1-4.6,7.1c-0.1,0.4-0.2,1.2-0.3,1.6
		c-0.1,0.4-0.2,1.3-0.3,1.8c3.6-0.1,7.3-0.1,10.7,1.1c-4.2,0.4-8.4,0.2-12.6,0.6c2.1,1.7,5,1.1,7.5,1.7c1.5,0.5,2.8,1.5,4.2,2.4
		c0.3-0.1,0.9-0.2,1.2-0.2c1.8,1.8,3.6,3.7,5.8,5.1c0.7-0.6,1.4-1.2,2.1-1.8c0.2-0.4,0.5-1.1,0.6-1.4c0.7-0.3,2.1-0.9,2.8-1.2
		c0.9,1.4,1.9,2.7,2.9,4c5.4-5,10.2-10.8,12.4-18c0.6-0.1,1.9-0.4,2.5-0.6c-4.1,11.7-12.5,22.1-23.4,28c-3.2,1.7-6.6,3.1-9.9,4.7
		c12.7-3.3,24.2-11.6,30.4-23.2c2.2-4.2,5-8.7,9.9-9.8c-2.3,3.1-5.4,5.8-7.1,9.3c-3.6,7.3-9,13.8-15.4,18.8c-3.9,3-8.4,4.9-12.9,7
		c1.6-0.4,3.3-0.7,4.9-1.2c0.4,0.7,1.2,2.1,1.6,2.8c-0.4,0.1-1.2,0.3-1.6,0.5c-0.8-0.1-1.5-0.3-2.3-0.5c-4.7-1.6-9.5,0.8-14.3,0.4
		c0.3-0.4,0.8-1.4,1.1-1.8c-0.3-0.5-0.8-1.4-1-1.9c2-0.3,4.5-0.6,3.4-3.2c-2.1-1-4.2-1.9-6.2-2.9c0.6-6.1-1.8-12.1-0.3-18.1
		c0.5-5.9,3.9-11.2,3.9-17.2c0.6-5.5,2.8-11.4,7.9-14.2c2.3-1.8,3.5-4.8,6.1-6.1c2.9-1.1,6-2,8-4.6
		C164.9,96.5,165.5,90.2,166.7,84.5 M137.6,146.9c-0.3,1.3-0.7,2.6-1,3.8l0.1,0.1c0.1,2.6,0.2,5.5,1.7,7.8c1.7,2.2,3.8,4.1,5.5,6.3
		c2.1-0.9,4.2-1.7,6.4-2.3l-0.7-0.6l1.5,0c-3.6-4.9-8.9-8.3-12.2-13.4c5.8,2.2,8.8,8.2,13.5,12c0.9-0.3,1.8-0.7,2.6-1
		c-0.6-1.1-1-2.4-2.2-2.9c1.9-3.4-3.1-5.6-5.1-7.6l-1,1.8C145.4,146.9,141.2,146.4,137.6,146.9z"/>
</g>
<g id="_x23_c7a862ff">
	<path class="st79" d="M220.9,89.1c1.2,0.3,2.3,0.5,3.5,0.8c0.6,2,1.1,4,1.6,6c-2,0.8-4,0.7-5.8-0.6c0.8-1.3,1.7-2.6,2.6-3.9
		c-1.6,0.2-3.2,0.3-4.9,0.5C218.9,90.9,219.9,90,220.9,89.1z"/>
</g>
<g id="_x23_d3b55fff">
	<path class="st80" d="M37.4,91.2c0.6,0.7,1.2,1.4,1.8,2.1c-0.5,3.4-1.2,6.8-1.8,10.2c-1,0.5-2.1,1-3.1,1.4
		c-0.5-0.4-1.6-1.1-2.2-1.4c0.3-3.8,1-7.6,2-11.3C35.3,91.9,36.4,91.6,37.4,91.2z"/>
</g>
<g id="_x23_c0a464ff">
	<path class="st81" d="M23.9,91.7c2.1,0.1,4.5-0.5,6.1,1.2c-0.4,0.4-1.3,1.3-1.7,1.8c0.2,1.1,0.4,2.1,0.6,3.2
		c-1.9-0.3-3.8-0.6-5.6-0.9c0.7-0.9,1.4-1.7,2.1-2.6C24.8,93.5,24.4,92.6,23.9,91.7z"/>
</g>
<g id="_x23_c0af6bff">
	<path class="st82" d="M76,94.6c0.4,0.6,1.3,1.9,1.7,2.5c-0.7,2.9-1.1,5.9-2,8.7c-1,3.1-3.5,5.3-4.6,8.3c-0.6,2.7-0.5,5.4-0.6,8.2
		c3.7-1.6,6.5-5,6.3-9.2c-0.1-6.4,0-14,5.5-18.3c0.3,3.2,0.3,6.5,0.2,9.7c-1.1,3.1-2.2,6.2-2.2,9.5c-0.2,4.9,1.6,10.4-1.6,14.7
		c-0.3-0.6-0.9-1.9-1.2-2.6l1.1-0.4c0.1-3.4,0-6.9,0.1-10.4c-1.2,5.2-6,8.7-11.2,8.9c1.2-4.9,0.5-10.6,4-14.7
		C75.7,105.5,73.8,99.5,76,94.6 M79.1,109.3c0.7-1.9,1.4-3.8,2.1-5.6c-0.2-0.7-0.7-2.2-0.9-2.9C78.2,103.1,78.5,106.5,79.1,109.3z"
		/>
</g>
<g id="_x23_967746ff">
	<path class="st83" d="M168.4,93.8c2.7,2.6,4.5,6.5,4,10.3C170.1,101.1,169.2,97.4,168.4,93.8z"/>
</g>
<g id="_x23_d7b65fff">
	<path class="st84" d="M232.5,96.6c1.7,3,3.5,5.9,4.9,9c1,3,0.9,6.2,1,9.4c-0.3,23.2-7,46.6-20.7,65.6c-16.3,23.2-41.8,40-69.7,45.4
		c-11,2.1-22.3,3.3-33.4,1.5c-2.2-1.7-4.7-3.1-7.3-4.2c10.5,0.5,21.2,0.5,31.6-1.6c-2.1-0.9-4.2-1.8-6.3-2.7
		c2.6-0.4,5.2-0.8,7.9-1.3c0.3-1.7,0.7-3.5,1.1-5.2c0.6,1.5,1.2,3,1.7,4.6c-0.2,0.2-0.5,0.8-0.6,1c1.8,0.7,3.6,1.3,5.4,2
		c-2.3,0.9-4.6,1.8-6.9,2.7c4.4,0,8.9-0.4,13.1-1.7c6.1-2,12.3-3.6,17.9-6.8c5.2-2.9,10.7-5.5,15.4-9.2c4.9-3.5,9.7-7.2,13.9-11.4
		c3.9-4,7.9-8.1,11.1-12.7c2.8-4,5.6-8.1,8.1-12.4c9.4-16.4,13.8-35.4,13.6-54.2C233.9,108.3,233.2,102.5,232.5,96.6z"/>
</g>
<g id="_x23_bca05dff">
	<path class="st85" d="M22.6,98.5c2.3,0.5,4.6,0.9,6.9,1.3c-0.4,1.4-0.8,2.8-1.2,4.2c-1.2-0.8-2.3-1.6-3.5-2.4
		c-0.9,0.5-1.7,1-2.6,1.4C22.4,101.5,22.5,100,22.6,98.5z"/>
</g>
<g id="_x23_ccad63ff">
	<path class="st86" d="M220,99.3c2.8,0,5.7,0,8.5,0c-1.7,0.8-3.3,1.7-5,2.5c0.4,2.6,0.9,5.2,1.6,7.8c0.3-1.1,0.8-3.1,1-4.2
		c0.9,1.2,1.1,2.8,1.3,4.3c-1.5,0.7-3.1,1.4-4.7,2c-0.4-3.6,0.4-7.6-1.7-10.8C220.9,100.4,220.3,99.7,220,99.3z"/>
	<path class="st86" d="M104.5,185.7c0.7-1.4,1.4-2.9,2.7-4c2.2,0.7,4.7,0.7,6.9,0.1c1.1,1.2,2,2.5,2.9,3.8c0.3-0.4,1-1.2,1.3-1.6
		c-0.2,0.7-0.6,2.2-0.7,2.9c-0.1,0.3-0.2,0.9-0.3,1.2c0,0.3,0.2,0.8,0.2,1.1c0.1,0.6,0.3,1.7,0.5,2.2c-0.6-0.1-1.9-0.3-2.5-0.4
		c-3,2.9-7.2,2.1-10.5,0.2c1.9,0.1,3.8,0,5.7-0.1c-1.8-1.2-3.7-2.1-5.7-2.6l0.9-0.4c0.8-0.5,1.6-0.9,2.4-1.4
		C106.9,186.3,105.7,186,104.5,185.7z"/>
</g>
<g id="_x23_927c44ff">
	<path class="st87" d="M79.1,109.3c-0.6-2.8-0.9-6.2,1.2-8.5c0.2,0.7,0.7,2.2,0.9,2.9C80.5,105.6,79.8,107.4,79.1,109.3z"/>
</g>
<g id="_x23_c3a765ff">
	<path class="st88" d="M22,104.2c2.4-0.8,4.7,0,6.9,1c-0.9,0.3-2.7,0.8-3.6,1.1c1.1,0.9,2.1,1.8,3.2,2.8c-2.2-0.1-4.5-0.2-6.7-0.2
		c0.4-0.5,1.1-1.6,1.5-2.1l0.9-0.1C23.6,106.2,22.5,104.9,22,104.2z"/>
</g>
<g id="_x23_876739ff">
	<path class="st89" d="M65.1,104.1c1.3,2.6,3.2,4.8,5.1,6.9c-0.5,0.2-1.5,0.5-2,0.7C66.2,109.6,65.1,107,65.1,104.1z"/>
</g>
<g id="_x23_d8bd65ff">
	<path class="st90" d="M173.6,111.7c-0.1-2.7-0.6-5.4,0.3-8C178.8,102.1,178.9,113.3,173.6,111.7z"/>
</g>
<g id="_x23_6f4d2aff">
	<path class="st91" d="M192,107.4c1-1.3,2.1-2.6,3.3-3.8c2.5,3.1,4.7,6.7,8.2,8.9c5.5,1,11.3-0.3,16.8,0.9
		c-6.8,1.7-13.8,0.6-20.6,0.2c6.1,3.5,13.9-1.2,19.7,3.1c-6,0.5-12.1,0.9-18.1,0C197.1,115,195.2,110.4,192,107.4z"/>
</g>
<g id="_x23_3b301dff">
	<path class="st92" d="M82.5,104.5c0.6,4.8-0.6,9.7-0.3,14.5c0.7-2.2,1.3-4.5,2.3-6.6c1-0.6,1.9-0.4,2.6,0.6
		c-0.4,1.8-1.1,3.5-1.7,5.2c1.6,0.2,3.2,0.4,4.9,0.7c0,1.5,0.1,3,0.1,4.5c1.8-0.6,3.6-0.1,5,1.1c-0.2,0.6-0.7,1.9-1,2.5
		c-2.4,6.4-3.3,13.5-1.4,20.1c0.4,1.5,0.8,3,1.3,4.4c0.7,1.9,1.4,3.9,2.7,5.5c2.1,2.2,5.9,3.1,6.1,6.7c-3.9,0.1-7.8-0.1-11.8-0.2
		c0.4-1.5,0.8-3.1,1.1-4.6c-1.8-6.9-5-13.2-7.9-19.7c-0.5-1-1.4-1.8-2.2-2.6c-1.3,6.7-1.3,13.6-0.8,20.4c0.1,3.2,2.6,5.4,3.9,8.2
		c-2,2.7-5.4,0.1-7.8-0.6c-0.6-6.9-1.1-13.8-1.3-20.7c-0.1-2.2-0.4-4.3-0.5-6.5c0-1.4,0-2.8,0-4.1c0.4-0.7,1.3-2,1.7-2.7
		c0.4-0.6,0.8-1.2,1.2-1.9c3.2-4.3,1.4-9.8,1.6-14.7C80.3,110.7,81.5,107.5,82.5,104.5z"/>
	<path class="st92" d="M177.5,120.6c1.8,2,3.5,4.2,6.2,5c0.1,0.6,0.3,1.7,0.4,2.2l1.8-0.6c0,0.7,0,2.1,0,2.8
		c3.9,0.3,7.7,0.4,11.6,0.3l-0.1,1c-15.4-0.8-30.9-0.1-46.3-0.4c-2.6-0.1-5.1-0.1-7.7-0.2c-0.9-0.1-1.9-0.1-2.8-0.2
		c15-0.5,30.1,0,45.1-0.3c-2.7-2.5-6.6-1.3-9.9-1.5c-11.6,0-23.3,0.1-34.9-0.1c14.2-0.4,28.4,0,42.7-0.2c-0.7-0.6-1.3-1.2-2-1.8
		c-13.4,0.7-26.8,0.1-40.2,0.3c0-0.2,0.1-0.5,0.2-0.7c13.5,0,27,0.2,40.5-0.2c-1.6-1.3-2.7-3.7-5-3.5c-11.5,0.1-23-0.1-34.5,0.1
		c0.1-0.2,0.2-0.5,0.2-0.7c8.8-0.2,17.5-0.1,26.3,0C171.8,121.7,175,122.2,177.5,120.6z"/>
</g>
<g id="_x23_967542ff">
	<path class="st93" d="M54.2,105.4c0.2,0.4,0.7,1.3,0.9,1.8c-0.2,2.7-0.4,5.6,1.2,8c0.4-0.8,1.1-2.3,1.5-3c3.1,3.8,6.6,7.2,9.7,11.1
		c-3.6-0.3-5.9-3.3-8.6-5.3c1.2,2.6,3,4.7,5.1,6.6c-0.2,0.3-0.7,0.9-1,1.2c-2.6-1.1-5.1-2.7-7.5-4.2c-0.3,0.4-1,1.1-1.3,1.5
		C53.5,117.2,53.5,111.3,54.2,105.4z"/>
</g>
<g id="_x23_d5b561ff">
	<path class="st94" d="M33,107.2c1.3,0.6,2.6,1.3,3.9,1.9c0,4,0,7.9,0,11.9c-1.8-0.1-3.7-0.1-5.5-0.2c0-4,0-7.9,0-11.9
		C31.8,108.5,32.6,107.6,33,107.2z"/>
</g>
<g id="_x23_e0c862ff">
	<path class="st95" d="M13.2,109.4c3.3,3.9,2.5,9.3,3.6,14c0.7,4.3,1.4,8.6,2.3,12.9c0.9,4.4,2.2,8.7,3.3,13c-2-1.7-4-3.5-5.8-5.4
		c-2.2-7.4-2.9-15.2-3.7-22.8C12.5,117.2,12.4,113.2,13.2,109.4z"/>
</g>
<g id="_x23_d2b86bff">
	<path class="st96" d="M24.2,113.1c0.6,0.1,1.9,0.2,2.5,0.3c0,1.2,0.2,2.6-0.8,3.5c-1.6,0.5-2.5-0.9-3.5-2
		C22.9,114.5,23.8,113.6,24.2,113.1z"/>
</g>
<g id="_x23_cfaf6bff">
	<path class="st97" d="M187.8,112.8c3.1,3.1,5.7,6.7,8.7,9.9c7.5-0.9,15.1-0.3,22.6,0.4c-2.6,0.2-5.3,0.4-7.9,0.6
		c1.3,3.3,5.1,2.5,8,3c-2.6,0-5.2,0-7.9,0c0.6,3,4.4,1.9,6.7,2.4c-2,0.1-4,0.2-5.9,0.3c0,1.7,0,3.4,0,5.1c1.8-0.1,3.5-0.2,5.3-0.3
		c-2.2,0.5-4.5,1.1-6.8,1.6c-3.8-0.1-7.7-0.1-11.5,0.1c-0.5-0.1-1.4-0.4-1.9-0.6l0.1-1.3l0.1-1.2c0-0.4,0.1-1.2,0.1-1.6l0.1-1
		c0.1-1.2,0.2-2.3,0.3-3.4c-0.9-0.1-2.6-0.4-3.5-0.6c-2-2-3.9-4.1-5.6-6.3c2,1.9,3.9,3.8,5.8,5.8c0.9,0,2.6,0,3.4,0
		C195.5,120.8,190.7,117.6,187.8,112.8 M200,125c-1.3,1.7-0.4,3.7,0.4,5.4c-0.4,0.5-0.8,1.1-1.2,1.6c0.2,0.6,0.6,1.7,0.8,2.2
		c3.5,0.2,7.1,0,10.6-0.8c-0.3-3.9-3.9-6-6.4-8.5C203,123.6,200.9,123.4,200,125 M204.5,124.5c1.7,1.9,3.4,3.9,5.8,4.8
		c-0.2-1.6-0.6-3.2-1-4.7C207.8,124.3,206.1,124.2,204.5,124.5z"/>
</g>
<g id="_x23_d8c267ff">
	<path class="st98" d="M102.4,115.3c2.6-2,6-0.8,8.8,0.1c-2.3,2.3-5.7,1.5-8.6,1.5L102.4,115.3z"/>
</g>
<g id="_x23_705d30ff">
	<path class="st99" d="M111.2,115.3c2,0.5,4.1,0.8,6.1,1.2c-4.8,0.8-9.7,1.7-14.6,1.4c0-0.3-0.1-0.8-0.2-1.1
		C105.4,116.8,108.8,117.6,111.2,115.3z"/>
</g>
<g id="_x23_856336ff">
	<path class="st100" d="M67.6,124.3c5.3-0.3,10-3.7,11.2-8.9c-0.1,3.5,0,6.9-0.1,10.4l-1.1,0.4c-4.9,0-9.8,0-14.7-0.4
		c0.2-0.3,0.7-0.9,1-1.2C65.1,124.5,66.3,124.4,67.6,124.3z"/>
</g>
<g id="_x23_7b643aff">
	<path class="st101" d="M97,124.3c1.3-3.3,3-6.4,5.4-9l0.2,1.5c0,0.3,0.1,0.8,0.2,1.1c4.9,0.3,9.8-0.6,14.6-1.4
		c2.2,0.5,4.4,1.2,6.6,1.9c-0.1,2.6-0.2,5.3-0.2,7.9c-4.4-0.2-8.9,0-13.3,0.1c-0.3-0.5-0.9-1.6-1.2-2.1c-1.7,0-3.4,0-5.2,0.1
		c-0.9,0.8-1.8,1.5-2.8,2.3c-1.6,0-3.3-0.1-4.9-0.1C96.5,126.1,96.9,124.9,97,124.3 M102.4,119.4c0,0.6-0.1,1.8-0.1,2.4
		c2.9,0.9,6.1,1,8.8-0.4C109.8,117.5,105.4,118.6,102.4,119.4z"/>
</g>
<g id="_x23_e0c174ff">
	<path class="st102" d="M224.3,116.2c1.1,0.1,2.1,0.1,3.2,0.2c-0.1,1-0.1,1.9-0.1,2.9c-1,0.1-1.9,0.2-2.9,0.2
		C224.4,118.5,224.3,117.3,224.3,116.2z"/>
</g>
<g id="_x23_b59251ff">
	<path class="st103" d="M19.6,117.4c3,0.9,5.9,1.7,8.9,2.5c0.3,1.6,0.7,3.1,1,4.7c1.5-0.5,3-0.9,4.5-1.4c-2.9,4.5-0.6,9.8,0.3,14.6
		c1.7-0.4,3.3-0.7,5-1.1c0.4-0.1,1.2-0.2,1.6-0.3c-0.1,1-0.2,2-0.2,3c-2.3,0.2-4.6,0.4-7,0.7c-1.7-0.1-3.5-0.2-5.2-0.3
		c1.2-1.7,1.8-3.7,1-5.8c-2.6,0.3-5.2,0.4-7.8,0.2c1.1-0.7,2.2-1.5,3.4-2.1c1.8,0,3.6,0,5.3,0c-1.9-3.9-2.5-8.1-3.4-12.3
		c-1.1,0.7-2.3,1.3-3.4,2.1c-0.7,1.4,0.2,3,0.4,4.4c0.5-1.5,1-3.1,1.5-4.6c0.9,2.7,1,5.6,0.9,8.5c-1.6,0.5-3.2,1-4.9,1.5
		c-0.2,0-0.7,0.1-1,0.1c-0.5,1.5-1.1,3.1-1.6,4.6c-0.8-4.3-1.6-8.6-2.3-12.9c0.1-1.5,0.2-3.1,0.3-4.6c0.3,0.5,0.8,1.6,1.1,2.1
		C18.6,119.7,19.1,118.5,19.6,117.4z"/>
</g>
<g id="_x23_d8bf60ff">
	<path class="st104" d="M102.4,119.4c3-0.8,7.4-1.9,8.7,2c-2.8,1.4-5.9,1.3-8.8,0.4C102.3,121.2,102.4,120,102.4,119.4z"/>
</g>
<g id="_x23_d9bf6fff">
	<path class="st105" d="M23.7,121.8c1-0.8,2.2-1.4,3.4-2.1c0.9,4.2,1.5,8.5,3.4,12.3c-1.8,0-3.5,0-5.3,0c-1.2-0.2-2.4-0.3-3.5-0.5
		c1.6-0.5,3.3-1,4.9-1.5c0.1-2.9,0-5.7-0.9-8.5c-0.5,1.5-1,3.1-1.5,4.6C23.8,124.7,22.9,123.2,23.7,121.8z"/>
</g>
<g id="_x23_a17e47ff">
	<path class="st106" d="M55.3,121.6c2.4,1.5,4.9,3.1,7.5,4.2c4.9,0.3,9.8,0.4,14.7,0.4c0.3,0.7,0.9,1.9,1.2,2.6
		c-0.4,0.6-0.8,1.3-1.2,1.9c-0.2-0.2-0.8-0.5-1-0.7l-0.9-0.6c0.3-0.6,0.8-1.7,1.1-2.3c-6.2,0.2-13.7-1.8-18.8,3
		c-0.9,0.9-1.8,1.8-2.7,2.7c-0.4-3.2-0.9-6.4-1.3-9.7C54.3,122.7,55,121.9,55.3,121.6z"/>
</g>
<g id="_x23_cfb25eff">
	<path class="st107" d="M96,121.5c0.2,0.7,0.7,2.1,1,2.8c-0.2,0.6-0.5,1.8-0.7,2.4c1.6,0,3.3,0.1,4.9,0.1c0.9-0.8,1.8-1.5,2.8-2.3
		c1.7,0,3.4-0.1,5.2-0.1c0.3,0.5,0.9,1.6,1.2,2.1c0.4,0.4,1.1,1.1,1.4,1.5c3.6,0.4,7.2-0.2,10.8,0.3c-9,0-18.1-0.1-27.1,0.1
		c-0.3-0.4-0.8-1.2-1.1-1.6c0.2-0.6,0.7-1.8,1-2.5C95.7,123.5,95.8,122.5,96,121.5z"/>
</g>
<g id="_x23_d4b760ff">
	<path class="st108" d="M34,123.2c1.2,0.7,2.4,1.4,3.6,2c0.2,3.9,1,7.7,1.7,11.5c-1.7,0.4-3.3,0.7-5,1.1
		C33.4,133,31.1,127.7,34,123.2z"/>
</g>
<g id="_x23_7f6945ff">
	<path class="st109" d="M142.5,122.4c11.5-0.2,23,0,34.5-0.1c2.3-0.2,3.5,2.2,5,3.5c-13.5,0.3-27,0.2-40.5,0.2
		C141.8,125.1,142.3,123.3,142.5,122.4z"/>
</g>
<g id="_x23_88633aff">
	<path class="st110" d="M200,125c0.9-1.6,3-1.4,4.2-0.2c2.5,2.6,6.1,4.6,6.4,8.5c-3.5,0.8-7,1-10.6,0.8c-0.2-0.6-0.6-1.7-0.8-2.2
		c0.4-0.5,0.8-1.1,1.2-1.6C199.6,128.7,198.7,126.7,200,125z"/>
</g>
<g id="_x23_815a2fff">
	<path class="st111" d="M204.5,124.5c1.6-0.3,3.2-0.2,4.8,0c0.4,1.6,0.7,3.1,1,4.7C207.9,128.4,206.2,126.4,204.5,124.5z"/>
</g>
<g id="_x23_9f8352ff">
	<path class="st112" d="M110.4,126.5c4.4-0.1,8.9-0.3,13.3-0.1c0.5,0.2,1.4,0.5,1.8,0.7c0.4,5-1.7,9.5-3.4,14
		c-0.7,2.4-1,4.8-1.3,7.3c-1.5-0.8-3-1.8-4.8-1.7c-7.6,0-15.3-0.1-22.9,0.3c-1.9-6.6-1-13.7,1.4-20.1c0.3,0.4,0.8,1.2,1.1,1.6
		l0.9,1.2c2.2,0.2,4.5,0.3,6.8,0.4c0,1.3-0.1,2.6-0.2,3.9c2.2,0,4.4-0.1,6.5-0.1c0.2-1.3,0.5-2.6,0.8-3.8c4.5-0.1,8.9,0,13.4-0.3
		l-1.1-1.4c-3.6-0.5-7.2,0-10.8-0.3C111.4,127.6,110.7,126.9,110.4,126.5 M95,131c0,0.7,0,2.2,0,3c2.4,0,4.8,0,7.2,0
		c0-0.8-0.1-2.3-0.1-3C99.7,131,97.4,131,95,131 M111.1,131c-0.1,0.7-0.3,2.2-0.4,3c4.1,0,8.1,0,12.2,0c0.1-0.7,0.2-2.2,0.2-2.9
		C119.1,130.2,115.1,130.8,111.1,131 M95,135.2c-0.2,0.4-0.7,1.2-0.9,1.5c8,0.3,16,0.2,24,0.3c1.6-0.1,3.9,0.3,4.2-1.9
		C113.2,134.8,104.1,134.9,95,135.2 M94.2,138.2c0,0.4,0,1.1,0,1.5c7.3,0.4,14.6,0.2,21.8,0.4c1.8-0.2,4.7,0.5,5.1-1.9
		C112.2,137.7,103.2,138.1,94.2,138.2 M93.9,141.2c0.3,0.4,1,1.1,1.4,1.4c6.6,0.1,13.1,0.1,19.7,0.4c1.9-0.1,4.9,0.7,5.3-2
		C111.5,140.5,102.6,140.5,93.9,141.2 M94.2,144.3c1.8,1.1,3.9,0.9,5.9,0.9c5.6-0.1,11.3,0.1,16.9,0.1c1.3,0.1,2.5-0.3,3.5-1.1
		C111.7,143.7,102.9,143.9,94.2,144.3z"/>
</g>
<g id="_x23_926e3eff">
	<path class="st113" d="M58,130c5.1-4.8,12.5-2.8,18.8-3c-0.3,0.6-0.9,1.7-1.1,2.3c-3.7-0.4-7.4-0.3-11.2-0.5c-0.3,0-0.6,0-1,0
		c-1.8,1.1-3.5,2.3-5.2,3.5C58.2,131.7,58.1,130.6,58,130z"/>
</g>
<g id="_x23_785328ff">
	<path class="st114" d="M64.5,128.8c3.7,0.2,7.5,0.1,11.2,0.5l0.9,0.6c-3.6,0-7.1,0.2-10.7,0.1C65.5,129.7,64.8,129.1,64.5,128.8z"
		/>
</g>
<g id="_x23_654a25ff">
	<path class="st115" d="M95.5,128.5c9-0.2,18-0.1,27.1-0.1l1.1,1.4c-4.5,0.3-8.9,0.2-13.4,0.3c-2.4,0-4.8,0-7.1,0
		c-2.3-0.1-4.5-0.1-6.8-0.4L95.5,128.5z"/>
</g>
<g id="_x23_b59664ff">
	<path class="st116" d="M65.9,130c3.6,0.2,7.1-0.1,10.7-0.1c0.3,0.2,0.8,0.5,1,0.7c-0.4,0.7-1.3,2-1.7,2.7c-0.2-0.3-0.5-0.9-0.7-1.2
		l-0.7-1c-2.6-0.1-5.1-0.1-7.7-0.2C66.6,130.6,66.1,130.2,65.9,130z"/>
</g>
<g id="_x23_d9c165ff">
	<path class="st117" d="M103.2,130.1c2.4,0,4.8,0,7.1,0c-0.2,1.3-0.5,2.5-0.8,3.8c-2.2,0.1-4.4,0.1-6.5,0.1
		C103.1,132.7,103.2,131.4,103.2,130.1z"/>
</g>
<g id="_x23_a2824cff">
	<path class="st118" d="M221.4,133.7c0.4-1.3,0.8-2.6,1.2-3.9c1.7,1.2,3.6,2.1,5.8,1.6c-0.4,1.4-0.9,2.8-1.3,4.2
		c-1-0.6-2-1.3-2.9-1.9C223.3,133.6,222.4,133.7,221.4,133.7z"/>
</g>
<g id="_x23_8a6339ff">
	<path class="st119" d="M66.8,130.8c2.6,0.2,5.1,0.1,7.7,0.2l0.7,1c-1.5,2-3.8,3.1-6.2,3.7c0.5-1.2,1-2.4,1.5-3.6
		c-1.4,0.4-2.9,0.8-4.3,1.2C66.4,132.7,66.7,131.4,66.8,130.8z"/>
</g>
<g id="_x23_856641ff">
	<path class="st120" d="M95,131c2.4,0,4.7,0,7.1,0c0,0.8,0.1,2.3,0.1,3c-2.4,0-4.8,0-7.2,0C95,133.2,95,131.8,95,131z"/>
</g>
<g id="_x23_7b603eff">
	<path class="st121" d="M111.1,131c4-0.2,8-0.8,12,0c0,0.7-0.1,2.2-0.2,2.9c-4.1,0-8.1,0-12.2,0C110.8,133.2,111,131.8,111.1,131z"
		/>
	<path class="st121" d="M151.2,130.9c15.4,0.3,30.9-0.4,46.3,0.4c0,0.4-0.1,1.2-0.1,1.6c-9.8-0.1-19.7,0.1-29.5,0.1
		c-5.6,0.1-11.2-0.3-16.7,0.5C151.3,132.8,151.2,131.5,151.2,130.9z"/>
</g>
<g id="_x23_dbc068ff">
	<path class="st122" d="M143.5,130.7c2.6,0.1,5.1,0.1,7.7,0.2c0,0.6,0,1.9,0.1,2.6c-2.6,0.4-5.2,0.5-7.7,0.5c0-0.5,0-1.4,0-1.8
		C143.5,131.7,143.5,131,143.5,130.7z"/>
</g>
<g id="_x23_795630ff">
	<path class="st123" d="M138.9,139.1c0.5-3,0.8-6.8,4.6-7.1c0,0.5,0,1.4,0,1.8c0,0.4,0,1.3,0.1,1.7c3.9,1,7.6-0.6,11.4-1.2
		c7-0.3,13.9,1.4,20.9,0.4c-2.2,7.1-7,13-12.4,18c-1-1.3-2-2.6-2.9-4c-1.1-1.8-2.3-3.5-3.8-5.1c-2.2-1.6-4.4-3.4-7-4.1
		C146.2,139,142.5,139.1,138.9,139.1z"/>
</g>
<g id="_x23_9f7e48ff">
	<path class="st124" d="M130.7,133.5c0.4-0.1,1.2-0.2,1.6-0.2c0.2,5.3,0.6,10.6-0.4,15.8c-1.1,5.4,0,10.9-0.5,16.4
		c2.9,0.6,5.9,1,8.9,1.2c0.4-0.6,1.1-1.8,1.4-2.4c1.1,2.6-1.4,2.9-3.4,3.2c-2.8,0.4-5.6,0.9-8.4,1.3c-0.7,0-1.3,0-2,0.1l-1.2-0.6
		c-3.4-2.1-7.6-2.2-11.3-3.5c-4-1.4-8.1-3-11.5-5.7c-3.2-2.5-5.7-5.9-9.6-7.5c-0.5-1.4-0.9-2.9-1.3-4.4c7.6-0.4,15.3-0.4,22.9-0.3
		c1.8-0.1,3.3,0.9,4.8,1.7c0.3-2.4,0.6-4.9,1.3-7.3c-0.3,3.4-0.4,6.8-1.6,10.1c-1.1,3.2-1.8,6.7-0.6,10c1.8,3.1,5.8,2.2,8.8,2.3
		c0.6-3.3-2.7-3.7-5-4.5c-0.1-4.1-0.4-8.6,1.9-12.3C128.1,142.6,129.2,138,130.7,133.5 M127.5,147.4c-0.2,1.4,2.4,1.3,3,0.5
		C130.6,146.4,128.1,146.5,127.5,147.4 M95.7,150.8c7.9,0.3,15.9,0.9,23.8,0c-1.9-1.3-4.3-1.1-6.4-1.1c-4,0.1-8,0.1-12,0.1
		C99.2,149.9,97.2,149.6,95.7,150.8 M126.5,150.2c-0.3,1.5,2.3,1.4,2.9,0.5C129.7,149.3,127.2,149.3,126.5,150.2z"/>
</g>
<g id="_x23_68472aff">
	<path class="st125" d="M151.3,133.4c5.5-0.9,11.1-0.4,16.7-0.5c9.8,0,19.6-0.2,29.5-0.1l-0.1,1.2c-2.8,0-5.6-0.2-8.3,0.3
		c-4.3,2.1-7.5,6-9.8,10.2c-4.3,8-10.6,15-18.4,19.8c-2,1.2-4,2.4-6.1,3.5c-1.6,0.5-3.2,0.8-4.9,1.2c4.4-2.1,9-4,12.9-7
		c6.4-5.1,11.8-11.5,15.4-18.8c1.7-3.6,4.8-6.2,7.1-9.3c-4.9,1.1-7.7,5.7-9.9,9.8c-6.2,11.6-17.7,19.9-30.4,23.2
		c3.3-1.6,6.7-3,9.9-4.7c11-5.9,19.3-16.3,23.4-28c-0.6,0.1-1.9,0.4-2.5,0.6c-7,1.1-13.9-0.7-20.9-0.4c-3.8,0.6-7.5,2.2-11.4,1.2
		c0-0.4,0-1.3-0.1-1.7C146.1,133.9,148.7,133.8,151.3,133.4z"/>
</g>
<g id="_x23_93794bff">
	<path class="st126" d="M179.3,144.5c2.2-4.2,5.5-8,9.8-10.2c2.7-0.5,5.5-0.3,8.3-0.3l-0.1,1.3c-2.4-0.4-4.9-0.7-7.3-0.1
		c-4.2,2.3-7.2,6.3-9.3,10.6c-2.6,5.3-6.8,9.7-10.2,14.5c4.3-3.2,7.5-7.7,10.2-12.3c2.2-3.9,5.5-6.9,9.1-9.5
		c-1.6,3.5-4.9,5.6-6.7,8.9c-4.2,7.5-9.9,14-16.4,19.5c-1.8,1.6-4.2,2.2-6.6,2.7c1.2-1.6,4.5-4.3,0.8-5.2
		C168.7,159.5,175.1,152.5,179.3,144.5 M163.6,166.3c2.5-0.7,4.3-2.6,5.7-4.7C167.1,162.6,165.1,164.2,163.6,166.3z"/>
</g>
<g id="_x23_d7bf68ff">
	<path class="st127" d="M24.9,136.2c1.2-1.4,3.1-1.6,4.6-2.3c0.8,2.1,0.2,4-1,5.8c1.7,0.1,3.4,0.2,5.2,0.3c-2.1,0.8-4.1,2.2-6.5,1.8
		C25.4,140.6,25,138.2,24.9,136.2z"/>
</g>
<g id="_x23_77572cff">
	<path class="st128" d="M95,135.2c9.1-0.2,18.2-0.4,27.3,0c-0.3,2.2-2.6,1.8-4.2,1.9c-8-0.1-16,0-24-0.3
		C94.3,136.3,94.8,135.6,95,135.2z"/>
</g>
<g id="_x23_70552fff">
	<path class="st129" d="M180.8,145.7c2.1-4.2,5-8.3,9.3-10.6c2.4-0.6,4.9-0.3,7.3,0.1c0.5,0.1,1.4,0.4,1.9,0.6
		c-2.9,0.8-5.9,1.3-8.7,2.1c-0.1,0.1-0.4,0.3-0.5,0.3c-3.6,2.6-6.9,5.6-9.1,9.5c-2.7,4.6-5.8,9.1-10.2,12.3
		C174,155.4,178.2,151.1,180.8,145.7z"/>
</g>
<g id="_x23_a58a53ff">
	<path class="st130" d="M221.5,134.8c2,0.6,3.9,1.3,5.8,2.1c-0.6,0.8-1.2,1.5-1.8,2.3c0.1,1,0.2,2,0.4,3c-2-0.5-4-1-6-1.5
		c1-0.7,2-1.4,3-2.1C222.4,137.2,222,136,221.5,134.8z"/>
</g>
<g id="_x23_947445ff">
	<path class="st131" d="M199.2,135.9c3.8-0.2,7.7-0.2,11.5-0.1c2.2,0.7,4.4,1.4,6.6,2.1c-8.7,0.6-17.4,0.1-26.1,0.5l-0.7-0.4
		C193.3,137.2,196.3,136.7,199.2,135.9z"/>
</g>
<g id="_x23_bda364ff">
	<path class="st132" d="M75.7,148.7c-2.6-3.4-0.5-7.6,0.1-11.3c0.2,2.1,0.4,4.3,0.5,6.5C76.2,145.5,76,147.1,75.7,148.7z"/>
</g>
<g id="_x23_836238ff">
	<path class="st133" d="M94.2,138.2c9-0.2,18-0.5,27,0c-0.4,2.5-3.3,1.8-5.1,1.9c-7.3-0.2-14.6,0-21.8-0.4
		C94.2,139.3,94.2,138.6,94.2,138.2z"/>
</g>
<g id="_x23_745a3dff">
	<path class="st134" d="M189.9,138.4c0.1-0.1,0.4-0.3,0.5-0.3l0.7,0.4l0.9,0.5c2,1.5,4.7,1.2,7.1,1.2c5.7-0.1,11.4,0.1,17.1,0
		c-0.5,0.7-0.9,1.3-1.4,2c0.1,0.5,0.4,1.4,0.5,1.9c-7.3,0.3-14.7-0.6-21.9,0.7c7.2,0.7,14.4,0,21.6,0.5c-1.3,1-2.7,1.9-4.1,2.8
		c-0.5-0.1-1.6-0.3-2.1-0.4c-4.6-0.4-9.7-1.6-14.1,0.5c-1.7,1.3-3.4,2.7-5.1,3.9c-4.7,2.8-7,8.1-10.6,12c-0.1-0.3-0.3-0.8-0.4-1.1
		c3.5-4.4,7-8.9,9.7-13.8c-0.6-0.2-1.6-0.5-2.2-0.7c1.1-1.7,2.3-3.4,3.3-5.1c-3.4,1.6-5.6,4.6-7.4,7.9c-2.9,5.2-7.5,9.1-11,13.8
		c-1,1.2-2.1,2.2-3.4,3c-4.2,2.2-8.2,4.7-12.2,7.1c0.6-1,1.2-2,1.9-3c-0.6-0.2-1.8-0.7-2.4-0.9c0.4-0.1,1.2-0.3,1.6-0.5
		c1.2-0.4,2.5-0.8,3.7-1.1c2.3-0.5,4.8-1,6.6-2.7c6.6-5.5,12.3-12,16.4-19.5C184.9,144,188.3,141.8,189.9,138.4z"/>
</g>
<g id="_x23_937745ff">
	<path class="st135" d="M138.9,139.1c3.6,0,7.3-0.2,10.9,0.4c2.7,0.7,4.8,2.5,7,4.1c-0.9,0-2.9-0.1-3.8-0.1c1.1,2.5,2.9,4.4,4.8,6.3
		c-0.2,0.3-0.5,1.1-0.6,1.4c-1.7-1.6-3.3-3.2-5-4.7c-0.7,0.4-2.1,1.1-2.8,1.5c1.2-1.2,2.6-2.3,3.4-3.8c-0.6-1.3-1.5-2.7-2.8-3.3
		c-3.7-0.7-7.6-0.3-11.3-0.2C138.7,140.4,138.8,139.6,138.9,139.1z"/>
</g>
<g id="_x23_583d1bff">
	<path class="st136" d="M192,138.9c8.3-0.1,16.7-0.4,25,0.2c-0.2,0.3-0.6,0.8-0.8,1.1c-5.7,0.1-11.4-0.1-17.1,0
		C196.7,140,194,140.4,192,138.9z"/>
</g>
<g id="_x23_d5b75fff">
	<path class="st137" d="M37.2,140.2c1.1,0.3,2.4,0.2,3.3,1.1c1.7,3.4,3,7.1,3.9,10.8c-1.5,0.3-3,0.6-4.5,1c-2-3.4-3.4-7.1-4.7-10.8
		C35.9,141.6,36.6,140.9,37.2,140.2z"/>
</g>
<g id="_x23_89683cff">
	<path class="st138" d="M93.9,141.2c8.8-0.7,17.6-0.7,26.4-0.2c-0.4,2.7-3.4,1.9-5.3,2c-6.6-0.3-13.1-0.3-19.7-0.4
		C94.9,142.2,94.2,141.5,93.9,141.2z"/>
</g>
<g id="_x23_7c5b34ff">
	<path class="st139" d="M138.3,142.6c0.1-0.5,0.2-1.4,0.3-1.8c3.8,0,7.6-0.4,11.3,0.2c1.4,0.6,2.2,2,2.8,3.3
		c-0.9,1.5-2.3,2.6-3.4,3.8c-0.3,0.1-0.9,0.2-1.2,0.2c-1.4-0.8-2.7-1.8-4.2-2.4c-2.5-0.6-5.4,0-7.5-1.7c4.2-0.4,8.4-0.2,12.6-0.6
		C145.5,142.5,141.9,142.5,138.3,142.6z"/>
</g>
<g id="_x23_efdc7aff">
	<path class="st140" d="M16.6,143.9c1.8,1.9,3.8,3.6,5.8,5.4c0.2,0.7,0.6,2.1,0.8,2.8c1.3,4.1,3.1,8,5.3,11.6
		c1.2,1.9,3.5,2.6,5.4,3.6c1.7,0.6,3.4,1.7,5.2,1.1c1.1-1.3,0.2-2.9,0-4.4c-2.1,0.6-4.3,1.2-6.6,1.2c1.6-1.2,3.2-2.3,4.9-3.3
		c-1.1-1-2.2-2-3.2-3c0.1-1.2,0.2-2.4,0.2-3.6c-1.6-0.8-3.2-1.5-4.8-2.3c1.8-0.5,3.5-1,5.2-1.4c0.2,0.7,0.8,2,1,2.7
		c2.2,6,5.8,11.3,8.7,17c-1.9,0.9-3.8,1.8-5.7,2.6c0.6,0.2,1.2,0.4,1.9,0.7c2.5-0.6,5.4-2.2,7.7-0.3c4.1,3.3,6.8,8.6,12.4,9.8
		c2.4,5.7,7.7,9.1,13.5,10.7c3.6,4.3,8.8,8.4,14.8,7c3.2,4.6,9.1,6.8,14.6,6.1c2.4-0.3,4.2,1.8,6.2,2.7c1.2,0.7,2.5,1.3,3.7,1.9
		c-0.2,2.5-0.7,4.9-1.9,7.1c1.9,0.6,3.7,1.3,5.5,2.1c-5.1,0.8-10.3,0.5-15.5,0.6c1.3,1.4,2.7,2.8,4.2,4.1c-3-0.5-6-0.9-8.8-1.9
		c-2.5-1.9-4.8-4-7.2-6.1c3.6,0.4,7.3,0.8,10.9,1.3c-1.4-1-2.9-1.9-4.3-2.9c-0.2-1.1-0.3-2.2-0.5-3.2c-6.7,1.5-12.3-2.8-17.3-6.6
		c1.7-1.4,3.4-2.7,5.1-4c-2.5,0.3-5,1.1-7.5,0.6c-1.8-0.7-3.4-1.9-5.1-3c-2.4,1.1-4.8,2.3-7.5,1.7c1.2-2.8,2.8-5.3,4.9-7.5
		c-2,1-4.1,2-6.1,3c-2.1-1.7-4.7-2.2-7.4-2.2c0-1.8,0.2-3.8,1.7-5c-3.6-1.2-7.5-1.2-11.3-1c-2.6-3.1-5.2-6.2-7.7-9.4
		c-2.5-3.2-4.4-6.8-7.5-9.5c-2.3-2-4.6-4.2-6.5-6.7C20.5,157.7,18.1,150.8,16.6,143.9z"/>
</g>
<g id="_x23_714d25ff">
	<path class="st141" d="M94.2,144.3c8.8-0.3,17.6-0.6,26.3,0c-1,0.8-2.2,1.1-3.5,1.1c-5.7,0.1-11.3-0.2-16.9-0.1
		C98.1,145.2,95.9,145.4,94.2,144.3z"/>
</g>
<g id="_x23_cab45eff">
	<path class="st142" d="M153,143.6c0.9,0,2.9,0.1,3.8,0.1c1.4,1.6,2.6,3.3,3.8,5.1c-0.7,0.3-2.1,0.9-2.8,1.2
		C155.9,148.1,154.1,146.1,153,143.6z"/>
</g>
<g id="_x23_846b3fff">
	<path class="st143" d="M182,151.1c1.8-3.2,4-6.2,7.4-7.9c-1.1,1.7-2.2,3.4-3.3,5.1c0.6,0.2,1.6,0.5,2.2,0.7
		c-2.7,5-6.3,9.4-9.7,13.8c0.1,0.3,0.3,0.8,0.4,1.1l0.5,1.2c-1.4,1.4-2.8,2.8-4.4,4.1c-1.3-1.4-2.6-2.8-4-4.2
		C174.5,160.2,179,156.3,182,151.1z"/>
</g>
<g id="_x23_523a1bff">
	<path class="st144" d="M193.3,144.7c7.2-1.3,14.6-0.4,21.9-0.7l0.1,0.6c-0.1,0.2-0.4,0.5-0.5,0.6
		C207.7,144.6,200.5,145.4,193.3,144.7z"/>
</g>
<g id="_x23_d9b466ff">
	<path class="st145" d="M24.5,147.3c2.9,1.8,6.3,2.4,9.7,2.4c0.2,0.5,0.5,1.4,0.7,1.9c-1.8,0.5-3.5,0.9-5.2,1.4
		c1.6,0.8,3.2,1.5,4.8,2.3c-0.1,1.2-0.2,2.4-0.2,3.6c1.1,1,2.2,2,3.2,3c-1.6,1.1-3.3,2.2-4.9,3.3c2.2,0,4.4-0.6,6.6-1.2
		c0.1,1.4,1.1,3.1,0,4.4c-1.8,0.6-3.6-0.5-5.2-1.1c-1.9-1-4.2-1.7-5.4-3.6c-2.2-3.6-4-7.5-5.3-11.6
		C23.8,150.5,24.2,148.9,24.5,147.3z"/>
</g>
<g id="_x23_775729ff">
	<path class="st146" d="M127.5,147.4c0.7-0.9,3.2-1,3,0.5C129.8,148.7,127.3,148.8,127.5,147.4z"/>
</g>
<g id="_x23_85643aff">
	<path class="st147" d="M137.6,146.9c3.6-0.5,7.8-0.1,9,3.9c1.2,2.7,3.6,4.5,6.1,5.8c1.2,0.5,1.6,1.9,2.2,2.9
		c-0.9,0.3-1.8,0.7-2.6,1c-4.7-3.8-7.8-9.8-13.5-12c3.4,5.1,8.6,8.5,12.2,13.4l-1.5,0c-4.3-3.7-7.9-8.2-12.8-11.2l-0.1-0.1
		C136.9,149.5,137.3,148.2,137.6,146.9z"/>
</g>
<g id="_x23_ccb562ff">
	<path class="st148" d="M149.3,148.1c0.7-0.4,2.1-1.1,2.8-1.5c1.7,1.6,3.3,3.2,5,4.7c-0.7,0.6-1.3,1.3-2.1,1.8
		C152.9,151.8,151.1,149.9,149.3,148.1z"/>
</g>
<g id="_x23_563c1fff">
	<path class="st149" d="M194.6,148.1c4.4-2.1,9.5-0.9,14.1-0.5C204.1,148.6,199.4,148.5,194.6,148.1z"/>
</g>
<g id="_x23_77542eff">
	<path class="st150" d="M189.5,151.9c1.8-1.2,3.4-2.6,5.1-3.9c4.7,0.4,9.5,0.6,14.1-0.5c-1.6,3.4-3.7,6.5-4.5,10.2
		c0.5,1.8,2.7,1.7,4.2,2.1c-0.8,1.3-1.6,2.6-2.3,4c-1.6-1.3-3.4-3-5.5-1.4c0.7-4.7,4.5-8.1,5-12.8c-1.4,0.1-2.9,0.2-4.3,0.5
		c-2.3,3.2-3.8,6.9-6,10.2c-4.4,7.4-10.5,13.6-17.2,18.9c4.1-5.1,9.8-8.8,12.7-14.8c-1.5,1-3,2-4.5,3.1c-0.4-0.4-1.3-1.1-1.7-1.5
		c2-2.5,5-2.9,8-2.8c-1.4-0.1-2.7-0.4-4-0.6c-0.5-0.5-1.6-1.4-2.1-1.9c-0.5-0.4-1-0.9-1.5-1.4C186.6,156.8,188,154.4,189.5,151.9z"
		/>
	<path class="st150" d="M149.9,187.9c12.1-3.5,22.7-10.8,31.3-20c0.9,0,1.9,0.1,2.8,0.1c-8.1,5.8-15.4,12.9-24.6,17
		c-7.1,3.4-14.7,5.4-22.5,6.5C141.2,190.2,145.6,189.3,149.9,187.9z"/>
</g>
<g id="_x23_d3b65fff">
	<path class="st151" d="M208.7,147.6c0.5,0.1,1.6,0.3,2.1,0.4c0.7,0.2,2.2,0.5,2.9,0.7c-1.4,3.9-2.9,7.8-5.3,11.2
		c-1.5-0.4-3.6-0.3-4.2-2.1C205.1,154.1,207.2,150.9,208.7,147.6z"/>
</g>
<g id="_x23_a08549ff">
	<path class="st152" d="M217.5,149.4c1.5-1.7,5.1-0.7,5.4,1.7c0.8,1.8-1.4,2.8-2.6,3.4c0.2-1.2,0.4-2.5,0.6-3.7
		c-2-0.5-2.7,1.2-2.9,2.8c0.9,0.9,2.4,1.3,2.8,2.6c0,1.7-1.3,2.8-2.4,3.9c-1.4-0.8-2.8-1.6-4.2-2.4
		C215.7,155,216.4,152.1,217.5,149.4z"/>
</g>
<g id="_x23_7a532bff">
	<path class="st153" d="M95.7,150.8c1.5-1.2,3.5-0.9,5.3-1c4,0,8,0,12-0.1c2.2,0,4.5-0.2,6.4,1.1
		C111.6,151.7,103.6,151.1,95.7,150.8z"/>
</g>
<g id="_x23_745127ff">
	<path class="st154" d="M126.5,150.2c0.6-0.9,3.1-0.9,2.9,0.5C128.8,151.7,126.3,151.7,126.5,150.2z"/>
</g>
<g id="_x23_d5bf63ff">
	<path class="st155" d="M146.6,150.9l1-1.8c2,2,7,4.2,5.1,7.6C150.2,155.4,147.8,153.6,146.6,150.9z"/>
</g>
<g id="_x23_997545ff">
	<path class="st156" d="M201.3,150.1c1.4-0.2,2.9-0.4,4.3-0.5c-0.5,4.7-4.3,8.2-5,12.8c-0.5,1.2-1.1,2.4-1.8,3.5
		c-1-0.1-2-0.3-2.9-0.4c2.4-5.2,6.2-9.7,8.1-15.1c-2,1.3-3.2,3.2-4.2,5.3c-2.3,4.8-5.7,9-8.3,13.6c1.5-1.2,3-2.5,4.4-3.8
		c-0.8,3.3-3.1,5.8-5.1,8.4c0.5,0.1,1.6,0.4,2.2,0.5c-3.3,2.3-6.1,5.3-8.8,8.3c0.6,1.1,1.1,2.2,1.7,3.3c-0.9,0.5-1.8,1.1-2.4,1.9
		c2.7,1.1,5.6,0.1,8.3-0.4c-2.4,3.1-5.8,5.1-9.2,6.8c-2.8,1.3-5.2,4.3-8.6,4.1c-1.4,0-2.9-0.1-4.3-0.2c-0.7-1.4-1.3-2.9-2-4.3
		c-2.1,0.8-4.2,1.6-6.2,2.5c0.8-1.3,1.6-2.6,2.5-3.9c-3.2,1.4-6.6,2.5-9.9,3.6c1.1-1.2,2.2-2.4,3.3-3.5c-4.1,1.1-8.1,2.3-12.2,3.3
		c1.4-0.9,2.8-1.9,4.2-2.8c-1.5-0.2-3-0.4-4.4-0.6c5-1.7,10-3.4,14.8-5.6c0-0.5-0.1-1.4-0.2-1.9c9.2-4.1,16.5-11.2,24.6-17
		c-0.9,0-1.9-0.1-2.8-0.1c-8.5,9.1-19.1,16.5-31.3,20c-4.6-1.4-9,1.3-13.5,1.2c-0.5-0.4-1.5-1.1-2-1.5c1.9-0.2,3.9-0.5,5.8-0.8
		c-0.4-1.8-0.7-3.6-0.9-5.4c1.6,0.1,3.1,0.2,4.7,0.2c-4.4-1.9-9-2.4-13.8-2.1c-0.4-0.1-1.1-0.3-1.5-0.4c0.5-1.4,1-2.7,1.5-4.1
		c1.1-0.2,2.2-0.4,3.3-0.7c0.2-1.2,0.4-2.5,0.6-3.7c0.3,0.1,0.9,0.2,1.2,0.2c5.6,1.1,11.9,2.3,17.2-0.5c0.8,0.1,1.5,0.3,2.3,0.5
		c0.6,0.2,1.8,0.7,2.4,0.9c-0.6,1-1.2,2-1.9,3c4.1-2.4,8.1-4.8,12.2-7.1c0,1.8-0.1,3.5-0.1,5.2c-0.9,0.4-1.9,0.7-2.8,1.1
		c1,0.1,2,0.2,3,0.3c-0.1,0.8-0.2,1.7-0.2,2.5c4.4-3.2,9-6.3,12.4-10.5c-0.1-0.4-0.3-1.2-0.5-1.6l-0.5-1.2c3.6-3.9,5.9-9.2,10.6-12
		c-1.5,2.4-3,4.9-4.5,7.3c0.5,0.5,1,0.9,1.5,1.4c-3.2,0.7-4.7,3.9-5.8,6.6c1.3-0.3,2.7-0.7,4-1.3c0.4,0.4,1.3,1.2,1.7,1.5
		c1.5-1,3-2.1,4.5-3.1c-2.9,6-8.6,9.7-12.7,14.8c6.7-5.3,12.8-11.5,17.2-18.9C197.5,157.1,199.1,153.4,201.3,150.1 M130.6,176.9
		c1.5,0.3,2.9,0.8,4.4,0.9c1.2-0.7,2.2-1.7,3.2-2.7C135.6,175,132.7,175.1,130.6,176.9 M171.4,191.6c-0.8,1.9,1,5.3,3.2,4
		c3.1-1.6,5.8-3.9,8.7-5.7c-0.4-1-0.8-2.1-1.2-3.1c-0.5-0.3-1.6-0.9-2.1-1.2C177.3,187.7,174.2,189.4,171.4,191.6z"/>
</g>
<g id="_x23_916f3fff">
	<path class="st157" d="M136.7,150.9c4.9,3,8.5,7.5,12.8,11.2l0.7,0.6c-2.2,0.6-4.3,1.4-6.4,2.3c-1.8-2.2-3.8-4.1-5.5-6.3
		C136.9,156.3,136.9,153.5,136.7,150.9z"/>
</g>
<g id="_x23_7d6338ff">
	<path class="st158" d="M199.8,155.8c1-2.1,2.2-4,4.2-5.3c-1.9,5.4-5.7,9.9-8.1,15.1c-1.4,1.3-2.9,2.6-4.4,3.8
		C194.1,164.7,197.5,160.6,199.8,155.8z"/>
</g>
<g id="_x23_dac060ff">
	<path class="st159" d="M83.1,154.5c0.9-0.4,1.8-0.8,2.7-1.2c1.8,1.8,3.6,3.7,5.1,5.6C87.3,161.4,84.9,156.9,83.1,154.5z"/>
</g>
<g id="_x23_d5b55bff">
	<path class="st160" d="M36,154.4c1.6,0.8,3.2,1.8,5,2.2c1.5-0.5,2.9-1.3,4.3-1.9c3.9,3.7,6.3,8.5,8.3,13.4
		c0.8,4.8,5.4,7.5,7.8,11.5c1.9,3.2,5.5,4.6,8.3,6.7c2.3,1.7,3.8,4.1,6,5.8c3,1.5,6.5,1.9,9.2,4c2.4,1.6,4.4,4.1,7.5,4.2
		c3.4,0.3,6.8,0.8,9.8,2.6c4.2,2.6,9.2,1.6,13.7,0.7c1.2,0,2.3,0,3.5,0.1c5.7,1.1,11.4-0.1,17.2-0.5c0.2,1.9,0.4,3.8,0.6,5.7
		c-4.7,0.3-9.5,0.2-14,1.8c-4.3,1.2-8.8,0.7-13.1,0c-2.1-0.9-3.8-3-6.2-2.7c-5.5,0.6-11.3-1.5-14.6-6.1c-6,1.4-11.2-2.7-14.8-7
		c-5.7-1.6-11.1-5-13.5-10.7c-5.6-1.2-8.3-6.5-12.4-9.8c-2.3-1.9-5.3-0.2-7.7,0.3c-0.6-0.2-1.2-0.4-1.9-0.7c1.9-0.9,3.8-1.7,5.7-2.6
		C41.8,165.7,38.2,160.3,36,154.4z"/>
</g>
<g id="_x23_a08550ff">
	<path class="st161" d="M212.5,159.6c2.1,0.4,4.2,0.9,6.3,1.3c-1,1.3-1.9,2.6-2.4,4.2C214.9,163.4,212.5,162,212.5,159.6z"/>
</g>
<g id="_x23_bc9149ff">
	<path class="st162" d="M70.7,160.9c3,2.2,5.5,5.1,8.4,7.6c0.3,0,0.8-0.1,1.1-0.1c1.9,0,3.9-0.9,5.7-0.1c6.1,4,13.6,5.2,19.6,9.4
		c2.4,3.4,6.5,2.3,10.1,1.9c3.1,0.4,6.1,0.7,9.2,0.8c-0.1,1.1-0.3,2.2-0.4,3.3c-1.7-0.4-3.5-0.7-5.2-1c-0.2,0.3-0.7,0.9-0.9,1.2
		c-0.3,0.4-1,1.2-1.3,1.6c-0.9-1.3-1.9-2.6-2.9-3.8c-1.9-1.4-4.9-1.3-6.9-0.1c-1.3,1.1-2,2.6-2.7,4c1.2,0.3,2.5,0.6,3.7,0.9
		c-0.8,0.5-1.6,0.9-2.4,1.4c-5.6-2.3-11.4-3.9-16.6-7.1C81,176,73,170.1,67.8,162c4.9,3.4,8.1,8.7,13.5,11.4
		C78.2,168.8,73.1,165.9,70.7,160.9z"/>
</g>
<g id="_x23_d1bd60ff">
	<path class="st163" d="M180.7,167.2c1.2-2.7,2.6-5.9,5.8-6.6c0.5,0.5,1.6,1.4,2.1,1.9c1.3,0.3,2.7,0.5,4,0.6c-3,0-6,0.3-8,2.8
		C183.4,166.6,182,166.9,180.7,167.2z"/>
</g>
<g id="_x23_7e6239ff">
	<path class="st164" d="M163.6,166.3c1.5-2,3.4-3.7,5.7-4.7C168,163.7,166.2,165.5,163.6,166.3z"/>
</g>
<g id="_x23_9e8747ff">
	<path class="st165" d="M210.4,163.1c2,0.6,4.5,1.1,5.5,3.2c-0.1,2.1-3,4.2-4.7,2.5C210.5,166.9,210.5,164.9,210.4,163.1z"/>
</g>
<g id="_x23_fdfd96ff">
	<path class="st166" d="M24,163.9c1.9,2.5,4.2,4.7,6.5,6.7c3.1,2.6,5,6.3,7.5,9.5c2.5,3.2,5.1,6.3,7.7,9.4
		c7.5,8.3,16.7,14.7,25.9,20.9c5,3.8,10,7.5,15.4,10.8c-5.7-1.5-11-4.3-16.2-7.1c-16.5-9.1-30.6-22.4-40.7-38.3
		C27.8,172,25.2,168.3,24,163.9z"/>
</g>
<g id="_x23_926a38ff">
	<path class="st167" d="M107.5,164.7c6.4,1.6,12.6,3.8,19.3,3.4l1.2,0.6c-4.7,0.3-9.4,0.6-14-0.7c-1.3-0.4-2.5-0.8-3.8-1.2
		C109.3,166.1,108.4,165.4,107.5,164.7z"/>
</g>
<g id="_x23_d6bd61ff">
	<path class="st168" d="M154.8,167.8c2.1-1.1,4.1-2.3,6.1-3.5c3.7,0.9,0.3,3.6-0.8,5.2c-1.2,0.4-2.5,0.7-3.7,1.1
		C156,169.9,155.2,168.5,154.8,167.8z"/>
</g>
<g id="_x23_d5bc60ff">
	<path class="st169" d="M171,165c1.3,1.4,2.6,2.8,4,4.2c-2.3,1.7-4.8,3-7.5,4.1c0-1.8,0-3.5,0.1-5.2C168.9,167.1,170,166.1,171,165z
		"/>
</g>
<g id="_x23_866837ff">
	<path class="st170" d="M179.4,165.1c0.1,0.4,0.4,1.2,0.5,1.6c-3.4,4.2-8.1,7.3-12.4,10.5c0.1-0.8,0.2-1.7,0.2-2.5
		c-1-0.1-2-0.2-3-0.3c0.9-0.4,1.9-0.7,2.8-1.1c2.6-1,5.1-2.4,7.5-4.1C176.6,167.9,178,166.5,179.4,165.1z"/>
</g>
<g id="_x23_846337ff">
	<path class="st171" d="M195.9,165.6c1,0.1,2,0.3,2.9,0.4c-1.3,1.8-2.7,3.5-4,5.2c0.9,0.8,1.7,1.6,2.6,2.3c1.9,1.2,3.1-1.4,4.4-2.4
		c0.1,0.4,0.3,1.3,0.4,1.8c1.6-1.3,3.2-2.6,4.9-3.8c1.4,1.7,2.8,3.4,3.9,5.2c0.5,2.2,0.9,4.4,1.4,6.5c-3.2,4.6-7.1,8.7-11.1,12.7
		c-0.7-1.8-1.7-3.5-3.2-4.9c0.3-0.4,1-1.1,1.4-1.5c-1-1.2-1.9-2.5-2.9-3.8c1.4,0.6,2.9,1.2,4.3,1.8c1.3-1.1,2.6-2.2,4-3.4
		c0.1-0.9,0.2-1.9,0.3-2.8c1.4-0.9,3.1-1.6,4.1-3c-0.2-1.6-0.8-3.4-2.6-3.5c-2.4-0.4-3.1,2.6-4,4.2c-1.5,1.3-2.9,2.6-4.2,4
		c1.7-0.6,3.4-1.1,5.2-1.7c-0.3,1.8-1.1,3.3-2.1,4.9c-1.2-0.8-2.5-1.6-3.7-2.4c-1.9,2.2-4,4.3-6.2,6.2c-2.7,0.5-5.6,1.5-8.3,0.4
		c0.7-0.8,1.5-1.5,2.4-1.9c4.3-0.7,6.6-4.7,9.6-7.4c0-1.3,0.1-2.6,0.1-3.9c-0.8-0.1-1.7-0.2-2.5-0.3c-0.5-0.1-1.6-0.4-2.2-0.5
		C192.9,171.4,195.2,168.9,195.9,165.6z"/>
</g>
<g id="_x23_cfa550ff">
	<path class="st172" d="M55.4,165.6c4.4,4.6,8.1,10,13.5,13.5c-2.9-3.3-6.4-6.4-7-10.9c1.3,0.8,2.5,1.6,3.8,2.4
		c-0.2-1.7-0.3-3.3-0.4-4.9c4.6,3,7.9,7.5,12.2,10.8c5.1,4.1,10.8,7.6,17,9.9c3.6,1.4,7.1,2.9,10.5,4.6c-2.8-0.6-5.7-0.8-8.6-0.8
		c1.8,1,3.7,1.8,5.6,2.6c-1.4,0.1-2.7,0.3-4.1,0.4c7.1,3.1,14.8,5.2,22.6,5.6c4.3,0.2,8.6,0.2,12.9,0.6c-5.8,0.8-11.6,0.6-17.4,1.1
		c5.5,1.2,11.3,0,16.6,2c-4.4,0.6-8.8,0.7-13.1,1.2c-1.2,0-2.3-0.1-3.5-0.1c-8.5-0.6-16.5-3.4-24.4-6.3c-8.2-4.1-16.2-8.6-23.3-14.6
		c-5.4-3.5-8.6-9.2-13.2-13.5C55.1,168.1,55.2,166.9,55.4,165.6z"/>
</g>
<g id="_x23_d9c061ff">
	<path class="st173" d="M105.4,167.4c1.6-0.2,3.2-0.4,4.8-0.6c1.2,0.4,2.5,0.8,3.8,1.2c-1.9,3-5.5,2.2-8.5,2
		C105.4,169.4,105.4,168.1,105.4,167.4z"/>
</g>
<g id="_x23_d8be61ff">
	<path class="st174" d="M129.9,168.7c2.8-0.4,5.6-0.9,8.4-1.3c0.3,0.5,0.8,1.4,1,1.9c-0.3,0.4-0.8,1.4-1.1,1.8c-0.7,0-2.2,0-2.9,0
		c-0.3-0.1-0.9-0.2-1.2-0.2c-1-0.2-2-0.4-3-0.6L129.9,168.7z"/>
</g>
<g id="_x23_996e32ff">
	<path class="st175" d="M93.8,168.5c3.5-0.5,7.3-1.1,10.7,0.2C100.9,169.4,97.3,169.3,93.8,168.5z"/>
</g>
<g id="_x23_e3c26aff">
	<path class="st176" d="M61.4,179.5c-2.4-3.9-7-6.7-7.8-11.5l1.4,1.3c4.7,4.2,7.8,10,13.2,13.5c7,6,15.1,10.4,23.3,14.6
		c7.9,2.9,15.9,5.7,24.4,6.3c-4.5,0.9-9.6,1.9-13.7-0.7c-3-1.8-6.4-2.3-9.8-2.6c-3.1-0.1-5.1-2.7-7.5-4.2c-2.7-2.1-6.2-2.5-9.2-4
		c-2.2-1.7-3.8-4.1-6-5.8C66.9,184.1,63.3,182.7,61.4,179.5z"/>
</g>
<g id="_x23_846034ff">
	<path class="st177" d="M138.3,171.1c4.8,0.3,9.5-2.1,14.3-0.4c-5.3,2.8-11.6,1.5-17.2,0.5C136.1,171.1,137.6,171.1,138.3,171.1z"/>
</g>
<g id="_x23_a68b54ff">
	<path class="st178" d="M207.2,169.1l0.7-0.4c1.9,0.6,3.7,1.3,5.5,2.1c-0.8,1.2-1.5,2.4-2.3,3.6
		C209.9,172.4,208.6,170.7,207.2,169.1z"/>
</g>
<g id="_x23_976a40ff">
	<path class="st179" d="M113.6,170.6c5.8-0.9,11.7-0.9,17.6-0.4c1,0.2,2,0.4,3,0.6c-0.2,1.2-0.4,2.4-0.6,3.7
		c-1.1,0.2-2.2,0.4-3.3,0.7c-0.2-0.7-0.6-2.1-0.8-2.8c-1-0.2-2-0.3-2.9-0.4C122.2,171.4,117.9,171.1,113.6,170.6z"/>
</g>
<g id="_x23_92652dff">
	<path class="st180" d="M106.7,171.2c2.2-0.3,4.5-0.5,6.7-0.6c-0.7,1-1.4,1.9-2.1,2.9C109.7,172.8,108.2,172,106.7,171.2z"/>
</g>
<g id="_x23_a87f45ff">
	<path class="st181" d="M113.4,170.6l0.2,0c4.3,0.5,8.6,0.8,12.9,1.4c0.3,3.6,0.6,7.3-0.4,10.9c-0.4,0.2-1.3,0.6-1.8,0.9
		c0.1-1.1,0.2-2.2,0.4-3.3c-3.1-0.1-6.2-0.4-9.2-0.8c-1.1-2.5-3.8-2.9-6.2-3.5c2.8-0.9,5.7-1.3,8.6-1.4c-2.2-0.3-4.4-0.6-6.6-1.1
		C112,172.5,112.7,171.6,113.4,170.6z"/>
</g>
<g id="_x23_c7ab66ff">
	<path class="st182" d="M126.5,171.9c1,0.1,2,0.3,2.9,0.4c0.2,0.7,0.6,2.1,0.8,2.8c-0.5,1.3-1,2.7-1.5,4.1
		c-0.7,4.5,0.1,8.9,0.7,13.4c2.2,0.3,4.4,0.6,6.6,0.9c-3.3,0.3-6.7,1-10,0.3c-0.2-0.5-0.4-1.4-0.6-1.9c0-1,0.1-1.9,0.2-2.9
		c0.1-0.8,0.1-1.5-0.1-2.2c-0.4-1.1-0.8-2.1-1.3-3.2c0.4-0.2,1.3-0.6,1.8-0.9C127.1,179.2,126.8,175.5,126.5,171.9z"/>
</g>
<g id="_x23_d5b55eff">
	<path class="st183" d="M193,174.5c0.8,0.1,1.7,0.2,2.5,0.3c0,1.3-0.1,2.6-0.1,3.9c-3,2.7-5.2,6.7-9.6,7.4c-0.6-1.1-1.1-2.2-1.7-3.3
		C186.9,179.8,189.7,176.8,193,174.5z"/>
	<path class="st183" d="M171.4,191.6c2.8-2.1,5.9-3.8,8.7-6c0.5,0.3,1.6,0.9,2.1,1.2c0.4,1,0.8,2,1.2,3.1c-3,1.8-5.6,4.1-8.7,5.7
		C172.4,196.8,170.6,193.4,171.4,191.6z"/>
</g>
<g id="_x23_8a6f3fff">
	<path class="st184" d="M206.1,174.3c1.6-0.5,2.4,2.1,0.7,2.4C205.2,177.2,204.4,174.6,206.1,174.3z"/>
</g>
<g id="_x23_b89459ff">
	<path class="st185" d="M130.6,176.9c2.2-1.8,5-1.9,7.7-1.8c-1,0.9-2,1.9-3.2,2.7C133.5,177.6,132.1,177.2,130.6,176.9z"/>
</g>
<g id="_x23_d8bf5dff">
	<path class="st186" d="M105.4,177.6c1.3-0.6,2.6-1.1,3.9-1.6c2.4,0.6,5.1,1,6.2,3.5C112,180,107.9,181,105.4,177.6z"/>
</g>
<g id="_x23_b18a49ff">
	<path class="st187" d="M129.5,192.6c-0.6-4.4-1.4-8.9-0.7-13.4c0.4,0.1,1.1,0.3,1.5,0.4c0.1,2.3,0.2,4.5,0.2,6.8
		c1.3,0.4,2.6,0.8,3.9,1.2c0.5,0.4,1.5,1.1,2,1.5c4.6,0.1,9-2.6,13.5-1.2c-4.3,1.4-8.7,2.3-13,3.6c7.7-1.1,15.4-3.1,22.5-6.5
		c0.1,0.5,0.1,1.4,0.2,1.9c-4.8,2.2-9.8,3.9-14.8,5.6c1.5,0.2,3,0.4,4.4,0.6c-1.4,0.9-2.8,1.9-4.2,2.8c4.1-1,8.2-2.2,12.2-3.3
		c-1.1,1.2-2.2,2.3-3.3,3.5c3.4-1.1,6.7-2.2,9.9-3.6c-0.8,1.3-1.7,2.6-2.5,3.9c-1.8,0.9-3.5,1.9-5.2,2.7c-0.9,0.4-1.9,0.8-2.9,1.1
		c-4.3,0.4-8.5,1.6-12.8,2.5c-1.3,0.1-2.6,0.2-3.9,0.3c-5.7,0.4-11.5,1.6-17.2,0.5c4.4-0.5,8.8-0.6,13.1-1.2c-5.3-2-11.1-0.7-16.6-2
		c5.8-0.5,11.6-0.3,17.4-1.1c-4.3-0.3-8.6-0.4-12.9-0.6c4.8-1.3,9.7-1.6,14.6-2.3c-6.9-1.1-13.9-0.1-20.7-1.4
		c3.7-1.8,7.8-2.9,11.8-1.4c3.3,0.7,6.7,0,10-0.3C133.9,193.2,131.7,192.9,129.5,192.6z"/>
</g>
<g id="_x23_d6bb63ff">
	<path class="st188" d="M130.2,179.7c4.7-0.3,9.4,0.1,13.8,2.1c-1.6-0.1-3.1-0.2-4.7-0.2c0.2,1.8,0.5,3.6,0.9,5.4
		c-1.9,0.3-3.9,0.6-5.8,0.8c-1.3-0.4-2.6-0.8-3.9-1.2C130.4,184.2,130.4,181.9,130.2,179.7z"/>
</g>
<g id="_x23_a57b34ff">
	<path class="st189" d="M107.1,181.7c2-1.3,5-1.4,6.9,0.1C111.8,182.4,109.4,182.3,107.1,181.7z"/>
</g>
<g id="_x23_dabd5dff">
	<path class="st190" d="M119.2,182.7c1.7,0.3,3.5,0.6,5.2,1c0.4,1.1,0.9,2.1,1.3,3.2c-2.7-0.1-5.4-0.1-8.1,0
		c0.2-0.7,0.6-2.2,0.7-2.9C118.5,183.6,118.9,183,119.2,182.7z"/>
</g>
<g id="_x23_bb9143ff">
	<path class="st191" d="M94.4,186.4c3.6,0.2,7,1.1,10.5,2c2.1,0.5,4,1.4,5.7,2.6c-1.9,0.1-3.8,0.2-5.7,0.1
		C101.5,189.4,98,187.8,94.4,186.4z"/>
</g>
<g id="_x23_b38c41ff">
	<path class="st192" d="M117.3,187.9c0.1-0.3,0.2-0.9,0.3-1.2c2.7-0.1,5.4-0.1,8.1,0c0.1,0.7,0.1,1.5,0.1,2.2
		c-2.7,0.1-5.5,0.1-8.2,0.1C117.4,188.8,117.3,188.2,117.3,187.9z"/>
</g>
<g id="_x23_f6e68eff">
	<path class="st193" d="M45.7,189.5c3.8-0.2,7.6-0.3,11.3,1c-1.6,1.2-1.7,3.2-1.7,5c2.7,0,5.2,0.5,7.4,2.2c2.1-1,4.1-1.9,6.1-3
		c-2.1,2.2-3.7,4.8-4.9,7.5c2.7,0.7,5.1-0.6,7.5-1.7c1.7,1,3.2,2.2,5.1,3c2.5,0.5,5-0.3,7.5-0.6c-1.7,1.3-3.4,2.7-5.1,4
		c5,3.7,10.7,8.1,17.3,6.6c0.2,1.1,0.3,2.1,0.5,3.2c1.5,1,2.9,1.9,4.3,2.9c-3.6-0.5-7.2-0.9-10.9-1.3c2.3,2.1,4.7,4.2,7.2,6.1
		c-3.5-0.7-7.1-1.4-10.2-3.2c-5.3-3.3-10.4-7-15.4-10.8C62.4,204.2,53.2,197.8,45.7,189.5z"/>
</g>
<g id="_x23_dac25fff">
	<path class="st194" d="M117.5,189.1c2.7,0.1,5.5,0.1,8.2-0.1c-0.1,0.9-0.2,1.9-0.2,2.9c-2.5-0.1-5.1-0.1-7.6-0.6
		C117.8,190.8,117.6,189.6,117.5,189.1z"/>
</g>
<g id="_x23_947240ff">
	<path class="st195" d="M191.1,188.5c1,1.1,2,2.2,3,3.3c1.5-0.9,2.9-1.9,4.1-3.1c1.4,1.3,2.4,3,3.2,4.9c-4.3,4.3-9,8-13.9,11.4
		c0.5-1.6,1.1-3.1,1.9-4.6c-1.5,0-3,0.1-4.5,0.1c-0.3-0.6-0.8-1.9-1-2.5c0.7,0.2,2,0.5,2.7,0.7c2.4-1.6,4.4-3.7,6.8-5.4
		C192.6,191.7,191.9,190.1,191.1,188.5z"/>
</g>
<g id="_x23_c49a49ff">
	<path class="st196" d="M96.3,190.2c2.9,0.1,5.8,0.2,8.6,0.8c3.3,1.9,7.4,2.7,10.5-0.2c0.6,0.1,1.9,0.3,2.5,0.4
		c2.5,0.4,5,0.5,7.6,0.6c0.2,0.5,0.4,1.5,0.6,1.9c-4-1.5-8.1-0.4-11.8,1.4c6.8,1.3,13.9,0.3,20.7,1.4c-4.9,0.7-9.8,1-14.6,2.3
		c-7.8-0.4-15.5-2.5-22.6-5.6c1.4-0.2,2.7-0.3,4.1-0.4C100,192,98.2,191.2,96.3,190.2z"/>
</g>
<g id="_x23_d5b55fff">
	<path class="st197" d="M161.3,196.6c2-0.9,4.1-1.7,6.2-2.5c0.7,1.4,1.3,2.9,2,4.3c-3.6,2.1-7.4,3.9-11.3,5.4
		c-0.3-0.5-0.8-1.6-1.1-2.2c-0.4-0.8-0.7-1.5-1-2.2C157.9,198.4,159.6,197.4,161.3,196.6z"/>
</g>
<g id="_x23_a8854bff">
	<path class="st198" d="M173.9,198.5c3.4,0.2,5.7-2.7,8.6-4.1c2.2,0.4,3.6,2.1,4.1,4.2c-0.7-0.2-2-0.5-2.7-0.7
		c-2.1-0.5-4.2-0.3-6.3-0.2c0.8,1.3,1.6,2.5,2.3,3.8c1.6-0.7,3.3-1.2,5-1.1c1.5,0,3-0.1,4.5-0.1c-0.8,1.5-1.4,3-1.9,4.6
		c-4.8,3.7-10.2,6.3-15.4,9.2c-0.7-0.1-2.2-0.3-2.9-0.4c0.8-0.8,1.6-1.7,2.4-2.5c-3.2-2.2-7.1-2.9-10.9-3.1c2.1-0.7,4.2-1.4,6.3-2.2
		c-2.3-1.4-5-0.7-7.6-0.7c-2.2,0.1-4.2-0.7-6.2-1.4c1.3-0.8,2.6-1.6,3.9-2.4c0.3,0.5,0.8,1.6,1.1,2.2c3.9-1.5,7.7-3.3,11.3-5.4
		C171,198.4,172.4,198.6,173.9,198.5 M172.7,201.6c1.6,0.1,3.1,0.2,4.7,0.2c-1.1,1.4-2.1,2.7-2.7,4.3c1.4-0.8,3.9-1.1,4.1-3.1
		c-0.2-1.5-0.7-4-2.8-3.5C174.5,199.4,173.6,200.6,172.7,201.6 M169.6,208.6c1.6-0.8,3.2-1.5,4.7-2.3c-1.4-1.6-2.9-3-4.6-4.3
		C169.4,204.2,169.4,206.4,169.6,208.6z"/>
</g>
<g id="_x23_c9ae66ff">
	<path class="st199" d="M177.6,197.8c2.1-0.1,4.3-0.2,6.3,0.2c0.3,0.6,0.8,1.9,1,2.5c-1.8,0-3.4,0.4-5,1.1
		C179.1,200.3,178.3,199,177.6,197.8z"/>
</g>
<g id="_x23_c09a55ff">
	<path class="st200" d="M153.2,200.4c1-0.3,1.9-0.7,2.9-1.1c0.3,0.8,0.7,1.5,1,2.2c-1.3,0.8-2.6,1.6-3.9,2.4c2,0.6,4.1,1.5,6.2,1.4
		c2.5-0.1,5.2-0.8,7.6,0.7c-2.1,0.8-4.2,1.5-6.3,2.2c3.8,0.3,7.7,0.9,10.9,3.1c-0.8,0.8-1.6,1.6-2.4,2.5c0.7,0.1,2.2,0.3,2.9,0.4
		c-5.6,3.2-11.9,4.8-17.9,6.8c-4.2,1.4-8.7,1.7-13.1,1.7c2.3-0.9,4.6-1.8,6.9-2.7c-1.8-0.7-3.6-1.3-5.4-2c0.2-0.2,0.5-0.8,0.6-1
		c3-0.2,6-0.7,8.7-1.9c-0.1-1.5-0.3-3-0.4-4.5c1.4,1.3,2.8,2.5,4.2,3.7c-0.6-1.8-0.7-5.1-3.4-5c-2.4,0.1-2.7,2.8-3.1,4.7
		c-1-1.1-2-2.2-2.9-3.4c-0.2,1.4-0.5,2.9-0.7,4.4c-0.9-1.2-1.8-2.4-2.9-3.5c-6.4,0.8-13.5,2.1-19.5-0.9c4.5-1.5,9.3-1.5,14-1.8
		c-0.2-1.9-0.4-3.8-0.6-5.7c1.3-0.1,2.6-0.2,3.9-0.3c0.6,1.6,1.1,3.3,1.7,5c3.7-0.6,7.3-1.5,10.9-2.6
		C153.1,203.6,153.1,202,153.2,200.4 M156,210.8c1.4,0.9,2.8,2.8,4.6,1.8c-0.1-1.7-1-3.2-1.7-4.8C157.9,208.8,156.9,209.8,156,210.8
		z"/>
</g>
<g id="_x23_d5b55dff">
	<path class="st201" d="M140.4,202.9c4.2-0.9,8.4-2.1,12.8-2.5c-0.1,1.6-0.1,3.2-0.2,4.8c-3.6,1.2-7.2,2-10.9,2.6
		C141.6,206.2,141,204.5,140.4,202.9z"/>
</g>
<g id="_x23_c6a862ff">
	<path class="st202" d="M172.7,201.6c0.9-1,1.8-2.2,3.3-2.1c2.1-0.4,2.6,2,2.8,3.5c-0.2,2-2.6,2.4-4.1,3.1c0.6-1.6,1.7-3,2.7-4.3
		C175.9,201.8,174.3,201.7,172.7,201.6z"/>
</g>
<g id="_x23_ccaf63ff">
	<path class="st203" d="M169.6,208.6c-0.2-2.2-0.3-4.4,0.1-6.6c1.6,1.3,3.2,2.8,4.6,4.3C172.8,207.1,171.2,207.9,169.6,208.6z"/>
</g>
<g id="_x23_dac06fff">
	<path class="st204" d="M156,210.8c1-1,2-2,2.9-3c0.7,1.6,1.6,3.1,1.7,4.8C158.7,213.5,157.4,211.7,156,210.8z"/>
</g>
<g id="_x23_e5ca72ff">
	<path class="st205" d="M152.3,209.3c2.6-0.1,2.7,3.2,3.4,5c-1.4-1.2-2.8-2.4-4.2-3.7c0.1,1.5,0.3,3,0.4,4.5
		c-2.8,1.2-5.7,1.6-8.7,1.9c-0.5-1.6-1.1-3.1-1.7-4.6c-0.4,1.7-0.7,3.5-1.1,5.2c-2.6,0.4-5.2,0.9-7.9,1.3c2.1,0.9,4.2,1.8,6.3,2.7
		c-10.4,2.1-21.1,2.1-31.6,1.6c2.6,1.1,5.1,2.5,7.3,4.2c-2.9-0.1-5.8-0.3-8.6-1c-1.5-1.3-2.8-2.7-4.2-4.1c5.2-0.1,10.4,0.2,15.5-0.6
		c-1.8-0.8-3.7-1.4-5.5-2.1c1.1-2.2,1.7-4.6,1.9-7.1c-1.2-0.6-2.5-1.2-3.7-1.9c4.3,0.7,8.8,1.2,13.1,0c6.1,3,13.1,1.7,19.5,0.9
		c1.1,1,2,2.3,2.9,3.5c0.2-1.4,0.5-2.9,0.7-4.4c1,1.1,2,2.2,2.9,3.4C149.6,212.2,149.8,209.5,152.3,209.3z"/>
</g>
</svg>
