<?xml version="1.0" encoding="utf-8"?>
<!-- Generator: Adobe Illustrator 26.0.3, SVG Export Plug-In . SVG Version: 6.00 Build 0)  -->
<svg version="1.1" id="Layer_1" xmlns="http://www.w3.org/2000/svg" xmlns:xlink="http://www.w3.org/1999/xlink" x="0px" y="0px"
	 viewBox="0 0 234 250" style="enable-background:new 0 0 234 250;" xml:space="preserve">
<style type="text/css">
	.st0{fill:#FFFFFF;}
	.st1{fill:#D12129;}
</style>
<g id="_x23_ffffffff">
	<path class="st0" d="M111.2,25.1c4-1.4,8.6-0.6,12.2,1.6c24.1,14.2,48.2,28.4,72.3,42.6c4.5,2.6,7.6,7.5,7.7,12.7
		c0,27.7,0,55.3,0,83c0.2,5.6-2.9,11-7.7,13.8c-24.4,14.2-48.8,28.5-73.2,42.8c-4.6,2.5-10.3,2.3-14.8-0.4
		c-24.2-14.1-48.4-28.2-72.6-42.4c-4.8-2.8-7.8-8.2-7.7-13.8c0-27.3,0-54.6,0-81.9c-0.2-5.6,3-11,7.8-13.9
		c24-14.1,47.9-28.2,71.9-42.3C108.4,26.2,109.8,25.6,111.2,25.1 M49.4,75.4c0,32.3,0,64.7,0,97c7.1,0,14.2,0,21.2,0
		c0-32.3,0-64.7,0-97C63.6,75.4,56.5,75.4,49.4,75.4 M95.2,75.4c0.1,2.7-0.2,5.5,0.2,8.2c6.8,8.9,13.5,17.8,20.3,26.7
		c0,0.3,0,1,0,1.3c-6.8,9.1-13.7,18.2-20.4,27.3c0,11.2,0,22.4,0,33.5c7.1,0,14.1,0,21.2,0c0.1-20.4-0.1-40.8,0.1-61.2
		c15.3,20.5,31,40.8,46.5,61.2c6.2,0.1,12.5,0,18.7,0c0-32.3,0-64.7,0-97c-7.1,0-14.2,0-21.2,0c-0.1,19.9,0.1,39.8-0.1,59.8
		C146,116,131.3,97.1,116.9,78c-0.8-0.8-1.2-2-2.2-2.6C108.2,75.3,101.7,75.5,95.2,75.4z"/>
</g>
<g id="_x23_d12129ff">
	<path class="st1" d="M111.3,4.5c4.7-0.8,9.8-0.4,14,2.3c28.9,17,57.9,34.1,86.8,51.1c5.7,3.2,9.5,9.5,9.5,16c0,33.4,0,66.7,0,100.1
		c0.1,6.6-3.6,12.9-9.3,16.2c-29,17-58.1,34-87.1,50.9c-3.4,2.1-7.3,2.8-11.2,2.5c-4.5,0-8.2-2.7-12-4.8
		c-26.7-15.6-53.4-31.2-80-46.8c-6.7-3.1-12.3-9.4-12.5-17c0-33.7,0-67.4,0-101.1c-0.1-6.5,3.8-12.9,9.5-16.1
		c27.5-16.1,55-32.3,82.4-48.5C104.6,7.6,107.7,5.3,111.3,4.5 M111.2,25.1c-1.5,0.4-2.8,1.1-4.1,1.9C83.2,41.1,59.2,55.2,35.2,69.3
		c-4.8,2.9-8,8.3-7.8,13.9c0,27.3,0,54.6,0,81.9c-0.1,5.5,2.9,11,7.7,13.8c24.2,14.2,48.4,28.3,72.6,42.4c4.4,2.7,10.2,2.9,14.8,0.4
		c24.4-14.2,48.8-28.5,73.2-42.8c4.8-2.9,7.8-8.2,7.7-13.8c0-27.7,0-55.3,0-83c-0.1-5.2-3.3-10.1-7.7-12.7
		c-24.1-14.2-48.2-28.4-72.3-42.6C119.8,24.5,115.3,23.8,111.2,25.1z"/>
	<path class="st1" d="M49.4,75.4c7.1,0,14.2,0,21.2,0c0,32.3,0,64.7,0,97c-7.1,0-14.1,0-21.2,0C49.4,140.1,49.4,107.8,49.4,75.4z"/>
	<path class="st1" d="M95.2,75.4c6.5,0,12.9-0.1,19.4,0c1,0.6,1.5,1.7,2.2,2.6c14.4,19.1,29.2,38,43.5,57.2
		c0.2-19.9,0-39.8,0.1-59.8c7.1,0,14.2,0,21.2,0c0,32.3,0,64.7,0,97c-6.2,0-12.5,0-18.7,0c-15.5-20.4-31.2-40.7-46.5-61.2
		c-0.1,20.4,0,40.8-0.1,61.2c-7.1,0-14.1,0-21.2,0c0-11.2,0-22.4,0-33.5c6.8-9.1,13.6-18.2,20.4-27.3c0-0.3,0-1,0-1.3
		c-6.8-8.9-13.5-17.8-20.3-26.7C95,80.9,95.3,78.2,95.2,75.4z"/>
</g>
</svg>
