<?xml version="1.0" encoding="UTF-8" ?>
<!DOCTYPE svg PUBLIC "-//W3C//DTD SVG 1.1//EN" "http://www.w3.org/Graphics/SVG/1.1/DTD/svg11.dtd">
<svg width="249pt" height="250pt" viewBox="0 0 249 250" version="1.1" xmlns="http://www.w3.org/2000/svg">
<g id="#000000ff">
<path fill="#000000" opacity="1.00" d=" M 0.00 0.00 L 249.00 0.00 L 249.00 250.00 L 0.00 250.00 L 0.00 0.00 M 69.23 31.16 C 45.18 44.73 26.49 67.57 18.19 93.94 C 8.93 122.43 12.22 154.42 26.47 180.72 C 29.96 180.18 33.44 179.54 36.97 179.28 C 48.41 177.74 59.26 173.59 70.05 169.69 C 73.91 167.88 78.22 169.20 82.30 168.48 C 82.73 168.83 83.58 169.55 84.01 169.91 C 88.49 168.75 92.02 165.59 95.34 162.55 C 95.72 157.87 96.67 153.25 97.24 148.60 C 94.79 144.12 92.27 139.67 90.44 134.88 C 90.31 137.21 90.28 139.54 90.33 141.88 C 85.41 138.34 84.37 131.53 83.82 125.82 C 80.39 127.97 76.90 130.06 73.17 131.66 C 76.87 126.67 79.35 120.93 80.94 114.94 C 76.90 116.24 72.58 116.76 68.42 115.69 C 72.71 112.22 75.64 107.47 77.68 102.41 C 72.69 104.12 67.42 104.87 62.15 104.50 C 68.62 99.63 73.89 93.31 78.08 86.41 C 72.60 85.32 67.15 83.99 62.06 81.63 C 70.37 79.62 77.57 74.51 83.76 68.76 C 79.06 67.54 73.75 66.92 69.91 63.74 C 76.27 61.03 82.95 59.01 88.95 55.50 C 87.37 52.55 84.95 50.19 83.10 47.43 C 89.68 47.33 96.27 47.50 102.78 48.55 C 100.88 46.48 98.63 44.76 96.91 42.53 C 105.04 42.86 113.12 43.89 121.01 45.89 C 128.94 44.31 136.88 42.35 145.05 42.58 C 143.48 44.49 141.93 46.42 140.41 48.38 C 142.01 48.51 143.99 48.50 144.73 50.24 C 142.01 50.33 139.32 50.75 136.68 51.39 C 137.74 49.30 138.86 47.25 140.06 45.24 C 137.74 45.16 135.42 45.13 133.09 45.11 L 133.40 45.37 C 131.53 45.63 129.67 45.95 127.87 46.49 C 124.22 47.44 120.53 48.17 116.77 47.32 L 117.01 46.83 C 115.00 46.43 113.01 45.94 110.98 45.64 C 108.34 45.08 105.63 45.06 102.94 45.18 C 104.32 47.24 105.81 49.23 107.50 51.05 C 106.03 50.75 104.56 50.55 103.08 50.46 C 97.80 49.29 92.36 48.57 86.96 49.27 C 88.72 51.49 90.60 53.61 92.15 56.00 C 88.30 57.78 84.75 60.18 80.79 61.75 C 78.85 62.71 76.60 63.12 74.90 64.52 C 75.49 64.52 76.67 64.52 77.26 64.51 C 80.28 66.59 84.06 66.60 87.55 67.09 C 87.53 67.47 87.49 68.22 87.47 68.60 C 86.05 69.62 84.46 70.55 83.51 72.08 C 79.59 74.58 76.09 77.71 71.97 79.91 C 70.73 80.66 68.99 81.11 69.05 82.88 C 69.46 82.77 70.28 82.53 70.69 82.41 C 74.03 84.29 78.43 83.23 81.47 85.46 C 77.42 91.11 73.20 96.63 68.64 101.89 C 69.31 101.83 70.66 101.71 71.33 101.65 L 71.54 101.36 C 74.78 101.55 77.84 100.26 80.65 98.78 C 80.70 99.14 80.79 99.85 80.83 100.20 C 78.48 105.07 76.12 109.92 73.15 114.47 C 73.81 114.29 75.12 113.94 75.77 113.77 C 78.81 113.91 81.45 112.30 83.80 110.56 C 82.98 116.21 80.49 121.39 79.21 126.90 C 79.83 126.28 80.42 125.64 80.99 124.98 C 82.51 123.66 83.99 122.31 85.46 120.94 C 85.71 125.65 85.97 130.43 87.48 134.94 C 87.80 134.92 88.44 134.88 88.76 134.86 C 88.29 131.05 88.88 127.19 90.80 123.84 C 89.16 128.17 91.63 132.54 93.19 136.52 C 94.95 140.47 96.74 144.49 99.48 147.88 C 99.18 150.34 99.04 152.81 99.22 155.29 C 98.85 158.00 98.79 160.74 98.62 163.47 C 98.19 163.48 97.34 163.49 96.92 163.50 C 96.67 163.76 96.18 164.28 95.93 164.54 C 92.74 167.83 88.80 170.20 84.60 171.94 C 84.57 172.53 84.52 173.70 84.50 174.28 C 84.98 175.47 85.41 176.67 85.84 177.89 L 86.10 177.85 C 87.15 180.80 88.75 183.51 89.79 186.46 C 91.82 187.46 93.98 188.21 96.22 188.56 C 95.60 188.70 94.37 188.99 93.75 189.14 C 93.10 188.90 91.82 188.44 91.18 188.21 C 91.31 189.72 91.88 191.11 92.69 192.39 C 93.95 192.60 95.20 192.85 96.44 193.13 C 95.23 193.30 94.02 193.51 92.82 193.77 C 93.61 196.08 94.56 198.41 96.64 199.85 C 96.23 200.19 95.41 200.87 95.00 201.21 C 92.00 192.70 88.13 184.54 84.73 176.19 C 83.88 174.40 83.64 172.13 81.95 170.88 C 79.30 169.79 76.38 172.95 74.06 170.57 C 72.45 171.48 70.60 171.82 68.87 172.44 C 66.44 172.78 64.28 174.07 61.99 174.88 C 51.10 178.76 39.72 181.09 28.26 182.46 C 28.30 183.03 28.40 184.16 28.45 184.73 L 29.08 184.61 C 35.12 194.62 42.42 204.01 51.64 211.30 C 65.19 223.24 81.84 231.49 99.42 235.50 C 102.12 236.06 104.84 236.99 107.63 236.52 C 108.66 237.57 109.75 237.67 110.91 236.84 L 110.95 236.32 C 112.55 238.82 115.98 237.21 118.38 237.78 C 121.94 238.14 125.53 238.36 129.10 238.01 C 131.40 238.57 133.97 238.83 136.02 237.36 C 137.66 237.15 139.32 236.97 140.98 236.81 C 158.62 233.90 175.78 227.04 189.99 216.11 C 190.80 215.59 191.61 215.05 192.39 214.48 C 196.55 211.69 199.86 207.91 203.26 204.30 C 209.04 198.91 213.59 192.38 217.92 185.81 C 218.30 185.44 219.08 184.71 219.46 184.35 L 219.76 184.53 C 220.01 183.64 220.26 182.76 220.50 181.87 C 223.03 177.00 225.55 172.11 227.41 166.94 C 227.78 165.64 228.62 163.84 227.03 163.00 C 228.01 162.62 229.00 162.25 230.00 161.89 C 230.01 161.18 230.04 159.75 230.05 159.04 C 230.61 157.51 231.27 155.03 229.24 154.33 C 229.15 153.51 228.97 151.86 228.88 151.03 C 227.99 144.34 230.07 137.19 227.23 130.81 C 223.64 124.60 214.84 123.72 211.81 117.02 C 208.07 108.13 210.10 98.37 210.33 89.09 C 210.60 86.53 208.21 85.13 205.95 85.03 C 206.23 86.34 207.32 87.09 208.31 87.85 C 208.48 88.47 208.82 89.71 209.00 90.32 C 207.77 90.09 206.67 89.58 205.74 88.76 C 206.58 86.24 203.62 85.79 202.02 85.20 C 199.32 84.10 199.01 87.63 197.97 89.19 C 196.98 89.54 196.56 90.22 196.71 91.22 C 196.59 91.90 196.34 93.25 196.22 93.93 C 196.94 94.22 198.38 94.82 199.10 95.12 C 197.64 96.40 195.37 94.10 194.33 95.98 C 194.74 96.44 195.55 97.36 195.96 97.82 C 195.40 97.70 194.27 97.46 193.70 97.33 L 193.48 99.12 C 193.81 99.33 194.48 99.75 194.81 99.96 C 194.34 99.92 193.38 99.85 192.90 99.82 L 192.63 100.44 L 192.57 101.72 L 191.74 101.95 C 191.80 102.35 191.90 103.14 191.95 103.54 L 190.29 103.68 C 190.31 104.19 190.35 105.19 190.37 105.69 C 188.18 107.91 187.88 111.10 186.34 113.69 C 184.14 116.96 188.69 119.46 191.23 120.52 C 191.07 120.97 190.74 121.89 190.57 122.34 L 190.56 120.84 C 187.93 120.84 186.45 118.57 184.87 116.86 C 182.36 118.88 184.69 120.42 186.42 121.74 L 186.22 122.62 C 187.13 123.07 187.36 124.01 187.52 124.90 L 186.65 124.31 L 186.65 123.28 L 185.39 123.40 C 184.87 122.34 184.37 121.28 183.88 120.21 C 180.51 120.99 183.13 124.73 184.83 126.03 C 183.59 125.29 182.47 124.23 181.01 123.97 C 179.87 125.47 181.70 127.46 183.08 128.03 C 182.80 128.32 182.23 128.92 181.95 129.21 C 181.56 127.99 180.92 126.95 180.03 126.08 C 179.48 127.42 178.95 128.77 178.44 130.13 C 180.24 132.18 181.99 134.30 184.20 135.93 C 184.22 136.81 183.86 137.35 183.12 137.56 L 183.53 137.07 C 182.08 134.96 180.10 133.23 178.83 130.97 C 176.58 131.72 176.80 134.70 175.31 136.31 C 174.50 137.41 173.91 138.62 173.54 139.94 C 173.08 140.27 172.18 140.93 171.72 141.26 C 171.48 141.47 170.99 141.89 170.75 142.11 C 169.56 145.02 168.14 147.82 166.83 150.68 C 164.65 155.24 162.50 159.82 160.35 164.40 L 160.00 164.32 C 159.59 165.55 159.18 166.79 158.79 168.03 C 158.07 168.98 157.63 170.07 157.47 171.29 C 156.25 170.58 155.02 169.89 153.81 169.15 C 154.22 168.90 155.02 168.40 155.43 168.15 L 156.15 168.67 C 160.83 159.39 164.91 149.80 169.65 140.56 C 173.14 138.05 174.16 133.79 176.06 130.17 C 183.78 114.59 190.94 98.72 198.85 83.24 C 202.10 83.22 205.37 83.19 208.58 83.66 C 211.39 84.35 212.54 87.44 212.27 90.06 C 211.71 98.30 210.48 106.86 213.00 114.91 C 215.57 122.47 225.43 123.15 229.03 129.98 C 233.19 137.20 229.21 145.69 231.62 153.29 C 234.74 140.81 235.22 127.75 233.96 114.98 C 230.86 86.64 216.17 59.81 194.02 41.87 C 174.51 25.73 149.31 16.83 124.02 16.74 C 104.94 16.87 85.82 21.65 69.23 31.16 Z" />
</g>
<g id="#fefefeff">
<path fill="#fefefe" opacity="1.00" d=" M 69.23 31.16 C 85.82 21.65 104.94 16.87 124.02 16.74 C 149.31 16.83 174.51 25.73 194.02 41.87 C 216.17 59.81 230.86 86.64 233.96 114.98 C 235.22 127.75 234.74 140.81 231.62 153.29 C 229.21 145.69 233.19 137.20 229.03 129.98 C 225.43 123.15 215.57 122.47 213.00 114.91 C 210.48 106.86 211.71 98.30 212.27 90.06 C 212.54 87.44 211.39 84.35 208.58 83.66 C 205.37 83.19 202.10 83.22 198.85 83.24 C 190.94 98.72 183.78 114.59 176.06 130.17 C 174.16 133.79 173.14 138.05 169.65 140.56 C 164.91 149.80 160.83 159.39 156.15 168.67 L 155.43 168.15 C 152.98 166.47 150.67 164.60 148.56 162.51 C 148.06 158.00 147.16 153.54 146.72 149.02 C 147.68 145.30 150.21 142.17 152.00 138.79 C 152.15 140.28 152.30 141.79 152.45 143.29 C 155.89 138.07 158.98 132.41 158.74 125.95 C 162.16 128.03 165.49 130.28 169.10 132.02 C 165.79 126.81 163.51 121.05 161.79 115.15 C 165.73 116.04 169.79 116.67 173.79 115.72 C 170.05 111.96 166.95 107.53 165.14 102.51 C 169.85 104.07 174.79 104.64 179.73 104.68 C 173.83 99.31 168.73 93.16 164.41 86.46 C 169.80 85.30 175.23 84.04 180.27 81.76 C 172.21 79.38 165.02 74.57 158.99 68.79 C 163.81 67.51 168.80 66.54 173.13 63.93 C 166.54 60.93 159.43 59.09 153.23 55.28 C 155.37 52.76 157.55 50.25 159.22 47.39 C 154.72 47.47 150.21 47.42 145.72 47.69 C 145.27 48.30 145.41 49.08 145.36 49.79 C 148.55 49.59 151.74 49.54 154.94 49.56 C 154.74 49.73 154.33 50.07 154.13 50.25 C 151.93 50.26 149.74 50.29 147.55 50.43 C 142.25 50.63 137.12 52.34 131.81 52.34 C 132.42 52.22 133.65 51.99 134.27 51.87 C 134.87 51.75 136.08 51.51 136.68 51.39 C 139.32 50.75 142.01 50.33 144.73 50.24 C 143.99 48.50 142.01 48.51 140.41 48.38 C 141.93 46.42 143.48 44.49 145.05 42.58 C 136.88 42.35 128.94 44.31 121.01 45.89 C 113.12 43.89 105.04 42.86 96.91 42.53 C 98.63 44.76 100.88 46.48 102.78 48.55 C 96.27 47.50 89.68 47.33 83.10 47.43 C 84.95 50.19 87.37 52.55 88.95 55.50 C 82.95 59.01 76.27 61.03 69.91 63.74 C 73.75 66.92 79.06 67.54 83.76 68.76 C 77.57 74.51 70.37 79.62 62.06 81.63 C 67.15 83.99 72.60 85.32 78.08 86.41 C 73.89 93.31 68.62 99.63 62.15 104.50 C 67.42 104.87 72.69 104.12 77.68 102.41 C 75.64 107.47 72.71 112.22 68.42 115.69 C 72.58 116.76 76.90 116.24 80.94 114.94 C 79.35 120.93 76.87 126.67 73.17 131.66 C 76.90 130.06 80.39 127.97 83.82 125.82 C 84.37 131.53 85.41 138.34 90.33 141.88 C 90.28 139.54 90.31 137.21 90.44 134.88 C 92.27 139.67 94.79 144.12 97.24 148.60 C 96.67 153.25 95.72 157.87 95.34 162.55 C 92.02 165.59 88.49 168.75 84.01 169.91 C 83.58 169.55 82.73 168.83 82.30 168.48 C 78.22 169.20 73.91 167.88 70.05 169.69 C 59.26 173.59 48.41 177.74 36.97 179.28 C 33.44 179.54 29.96 180.18 26.47 180.72 C 12.22 154.42 8.93 122.43 18.19 93.94 C 26.49 67.57 45.18 44.73 69.23 31.16 Z" />
<path fill="#fefefe" opacity="1.00" d=" M 206.96 90.79 C 207.94 97.90 205.88 104.94 205.59 112.02 C 205.11 116.91 207.44 121.86 211.28 124.86 C 214.64 127.70 219.76 128.70 221.64 133.05 C 224.75 141.18 219.76 150.11 223.12 158.20 C 223.83 160.21 225.54 161.57 227.03 163.00 C 228.62 163.84 227.78 165.64 227.41 166.94 C 225.55 172.11 223.03 177.00 220.50 181.87 C 214.07 179.51 207.17 179.42 200.50 178.22 C 202.55 173.25 204.41 168.21 206.61 163.31 C 200.10 160.96 193.30 159.53 186.87 156.95 C 183.35 155.45 179.22 154.39 177.06 150.95 C 179.64 150.16 182.27 149.53 184.92 149.03 C 184.23 147.32 183.47 145.65 182.68 143.99 C 190.58 126.17 198.58 108.39 206.96 90.79 Z" />
<path fill="#fefefe" opacity="1.00" d=" M 192.39 105.17 C 193.86 104.90 194.48 105.42 194.27 106.73 C 192.81 107.00 192.18 106.48 192.39 105.17 Z" />
</g>
<g id="#93481eff">
<path fill="#93481e" opacity="1.00" d=" M 102.94 45.18 C 105.63 45.06 108.34 45.08 110.98 45.64 C 110.27 45.72 108.85 45.87 108.15 45.94 C 109.35 47.39 110.55 48.82 111.76 50.27 C 111.05 50.56 109.64 51.16 108.93 51.46 C 108.57 51.35 107.86 51.15 107.50 51.05 C 105.81 49.23 104.32 47.24 102.94 45.18 Z" />
<path fill="#93481e" opacity="1.00" d=" M 75.77 113.77 C 77.11 111.65 78.46 109.52 80.05 107.57 C 80.13 108.03 80.31 108.95 80.40 109.41 C 81.90 108.64 83.49 107.98 84.74 109.58 C 84.51 109.83 84.03 110.32 83.80 110.56 C 81.45 112.30 78.81 113.91 75.77 113.77 Z" />
</g>
<g id="#904519ff">
<path fill="#904519" opacity="1.00" d=" M 133.09 45.11 C 135.42 45.13 137.74 45.16 140.06 45.24 C 138.86 47.25 137.74 49.30 136.68 51.39 C 136.08 51.51 134.87 51.75 134.27 51.87 C 133.71 51.57 132.60 50.97 132.05 50.67 C 131.20 48.66 133.48 47.64 134.54 46.33 C 134.25 46.09 133.68 45.61 133.40 45.37 L 133.09 45.11 Z" />
</g>
<g id="#c2662dff">
<path fill="#c2662d" opacity="1.00" d=" M 108.15 45.94 C 108.85 45.87 110.27 45.72 110.98 45.64 C 113.01 45.94 115.00 46.43 117.01 46.83 L 116.77 47.32 L 116.34 48.19 C 116.72 49.00 117.13 49.81 117.53 50.61 C 117.19 50.77 116.51 51.10 116.17 51.26 C 116.65 52.08 117.12 52.90 117.60 53.71 C 114.68 53.08 111.78 52.37 108.93 51.46 C 109.64 51.16 111.05 50.56 111.76 50.27 C 110.55 48.82 109.35 47.39 108.15 45.94 Z" />
</g>
<g id="#b76328ff">
<path fill="#b76328" opacity="1.00" d=" M 127.87 46.49 C 129.67 45.95 131.53 45.63 133.40 45.37 C 133.68 45.61 134.25 46.09 134.54 46.33 C 133.48 47.64 131.20 48.66 132.05 50.67 C 132.60 50.97 133.71 51.57 134.27 51.87 C 133.65 51.99 132.42 52.22 131.81 52.34 C 130.23 52.35 128.65 52.22 127.08 52.12 C 127.22 50.00 128.33 48.26 129.85 46.85 C 129.35 46.76 128.36 46.58 127.87 46.49 Z" />
</g>
<g id="#dc7b36ff">
<path fill="#dc7b36" opacity="1.00" d=" M 116.77 47.32 C 120.53 48.17 124.22 47.44 127.87 46.49 C 128.36 46.58 129.35 46.76 129.85 46.85 C 128.33 48.26 127.22 50.00 127.08 52.12 C 128.65 52.22 130.23 52.35 131.81 52.34 C 137.12 52.34 142.25 50.63 147.55 50.43 C 146.31 52.02 144.83 53.38 143.23 54.59 C 144.04 55.00 144.85 55.42 145.68 55.82 C 150.50 58.34 155.58 60.30 160.47 62.66 C 156.80 62.65 153.12 62.62 149.46 62.18 C 148.66 64.34 149.03 66.60 149.59 68.76 C 149.13 73.30 148.61 80.00 143.22 81.23 C 143.61 79.50 144.06 77.79 144.53 76.07 C 144.18 76.19 143.48 76.41 143.13 76.53 C 143.62 75.52 144.11 74.51 144.60 73.50 C 144.19 72.75 143.77 72.00 143.35 71.26 C 145.18 71.73 147.15 72.53 148.88 71.26 C 146.85 69.65 144.75 68.15 142.61 66.68 C 142.59 65.91 142.57 65.15 142.55 64.38 C 140.70 63.43 138.85 62.49 137.01 61.55 C 137.91 60.80 138.82 60.06 139.73 59.32 C 139.12 59.23 137.89 59.05 137.27 58.95 C 137.39 58.52 137.61 57.64 137.72 57.21 C 133.74 56.77 129.69 56.71 125.81 55.65 C 121.72 56.56 117.52 56.69 113.38 57.22 C 113.41 57.56 113.47 58.24 113.50 58.59 C 111.87 58.81 110.25 59.03 108.63 59.30 C 104.95 60.34 103.18 64.10 100.10 66.08 C 96.55 68.56 93.51 71.77 91.95 75.87 C 92.59 76.59 93.24 77.32 93.88 78.05 C 92.97 78.54 92.05 79.02 91.13 79.49 C 89.44 79.70 87.74 79.76 86.04 79.84 C 86.20 79.37 86.52 78.43 86.68 77.96 C 82.36 78.95 78.15 80.42 73.74 80.97 C 77.21 78.26 81.33 76.07 83.51 72.08 C 84.46 70.55 86.05 69.62 87.47 68.60 C 87.55 69.08 87.70 70.04 87.77 70.52 C 90.68 69.62 94.16 68.52 95.26 65.33 C 95.22 64.19 94.79 63.12 94.49 62.04 C 90.54 62.49 86.56 62.64 82.58 62.53 C 87.23 60.37 91.95 58.34 96.45 55.87 C 97.29 55.46 98.14 55.03 98.98 54.60 C 97.39 53.38 95.88 52.06 94.52 50.59 C 97.37 50.38 100.22 50.32 103.08 50.46 C 104.56 50.55 106.03 50.75 107.50 51.05 C 107.86 51.15 108.57 51.35 108.93 51.46 C 111.78 52.37 114.68 53.08 117.60 53.71 C 117.12 52.90 116.65 52.08 116.17 51.26 C 116.51 51.10 117.19 50.77 117.53 50.61 C 117.13 49.81 116.72 49.00 116.34 48.19 L 116.77 47.32 Z" />
</g>
<g id="#010101ff">
<path fill="#010101" opacity="1.00" d=" M 145.72 47.69 C 150.21 47.42 154.72 47.47 159.22 47.39 C 157.55 50.25 155.37 52.76 153.23 55.28 C 159.43 59.09 166.54 60.93 173.13 63.93 C 168.80 66.54 163.81 67.51 158.99 68.79 C 165.02 74.57 172.21 79.38 180.27 81.76 C 175.23 84.04 169.80 85.30 164.41 86.46 C 168.73 93.16 173.83 99.31 179.73 104.68 C 174.79 104.64 169.85 104.07 165.14 102.51 C 166.95 107.53 170.05 111.96 173.79 115.72 C 169.79 116.67 165.73 116.04 161.79 115.15 C 163.51 121.05 165.79 126.81 169.10 132.02 C 165.49 130.28 162.16 128.03 158.74 125.95 C 158.98 132.41 155.89 138.07 152.45 143.29 C 152.30 141.79 152.15 140.28 152.00 138.79 C 150.21 142.17 147.68 145.30 146.72 149.02 C 147.16 153.54 148.06 158.00 148.56 162.51 C 150.67 164.60 152.98 166.47 155.43 168.15 C 155.02 168.40 154.22 168.90 153.81 169.15 C 150.62 167.41 148.45 164.18 144.97 162.92 C 144.90 161.35 144.84 159.78 144.79 158.21 C 144.97 154.82 145.10 151.43 144.72 148.06 C 145.99 144.68 147.52 141.38 149.46 138.33 C 151.42 135.50 152.95 132.31 153.14 128.82 C 153.48 131.01 153.79 133.21 154.15 135.41 C 157.22 131.32 155.88 125.95 157.24 121.31 C 158.65 122.74 160.17 124.05 161.71 125.34 C 162.89 127.31 164.41 124.18 162.13 124.41 C 161.48 120.11 159.66 116.12 158.77 111.87 L 158.86 111.09 C 161.48 112.41 164.09 114.01 167.13 113.88 C 167.61 113.92 168.56 114.01 169.04 114.05 C 165.59 109.45 163.15 104.23 161.14 98.88 C 164.40 100.33 167.81 101.41 171.35 101.92 C 172.27 102.09 173.18 102.27 174.10 102.45 C 169.29 96.75 164.58 90.96 160.52 84.69 C 165.01 84.31 169.45 83.54 173.82 82.45 C 168.75 78.54 162.98 75.63 158.19 71.33 C 156.82 70.00 155.46 68.67 154.06 67.37 C 157.78 66.89 161.65 66.55 164.90 64.50 C 165.50 64.50 166.70 64.50 167.30 64.50 C 161.72 61.67 155.93 59.23 150.43 56.22 C 151.60 54.19 152.80 52.18 154.13 50.25 C 154.33 50.07 154.74 49.73 154.94 49.56 C 151.74 49.54 148.55 49.59 145.36 49.79 C 145.41 49.08 145.27 48.30 145.72 47.69 Z" />
</g>
<g id="#9c5323ff">
<path fill="#9c5323" opacity="1.00" d=" M 86.96 49.27 C 92.36 48.57 97.80 49.29 103.08 50.46 C 100.22 50.32 97.37 50.38 94.52 50.59 C 95.88 52.06 97.39 53.38 98.98 54.60 C 98.14 55.03 97.29 55.46 96.45 55.87 C 95.01 55.89 93.58 55.93 92.15 56.00 C 90.60 53.61 88.72 51.49 86.96 49.27 Z" />
</g>
<g id="#9b4e23ff">
<path fill="#9b4e23" opacity="1.00" d=" M 147.55 50.43 C 149.74 50.29 151.93 50.26 154.13 50.25 C 152.80 52.18 151.60 54.19 150.43 56.22 C 148.85 56.05 147.26 55.96 145.68 55.82 C 144.85 55.42 144.04 55.00 143.23 54.59 C 144.83 53.38 146.31 52.02 147.55 50.43 Z" />
</g>
<g id="#f7aa3bff">
<path fill="#f7aa3b" opacity="1.00" d=" M 113.38 57.22 C 117.52 56.69 121.72 56.56 125.81 55.65 C 129.69 56.71 133.74 56.77 137.72 57.21 C 137.61 57.64 137.39 58.52 137.27 58.95 C 137.89 59.05 139.12 59.23 139.73 59.32 C 138.82 60.06 137.91 60.80 137.01 61.55 C 138.85 62.49 140.70 63.43 142.55 64.38 C 142.57 65.15 142.59 65.91 142.61 66.68 C 144.75 68.15 146.85 69.65 148.88 71.26 C 147.15 72.53 145.18 71.73 143.35 71.26 C 143.77 72.00 144.19 72.75 144.60 73.50 C 144.11 74.51 143.62 75.52 143.13 76.53 C 142.02 77.42 140.90 78.31 139.80 79.21 C 138.04 80.62 136.23 82.22 136.16 84.65 C 135.23 84.58 134.31 84.54 133.38 84.54 C 130.87 87.88 130.24 92.15 128.98 96.03 C 126.79 94.34 128.36 91.36 128.50 89.09 C 129.90 83.59 129.53 77.61 126.69 72.62 C 126.26 73.49 125.40 75.23 124.97 76.10 C 122.13 73.12 120.38 69.22 117.15 66.61 C 117.28 70.09 118.25 73.50 118.19 76.98 C 117.53 80.87 115.94 84.61 113.53 87.75 C 113.32 87.09 112.88 85.77 112.66 85.11 C 109.37 87.98 107.25 91.86 104.19 94.95 C 104.81 92.85 105.46 90.77 106.03 88.66 C 103.44 91.10 102.01 94.39 100.57 97.58 L 99.80 96.83 C 100.50 93.05 102.07 89.53 103.89 86.17 C 106.17 82.42 107.86 78.35 108.90 74.10 C 106.70 76.26 104.59 78.52 102.51 80.81 C 102.30 80.43 101.87 79.68 101.66 79.30 C 101.18 79.80 100.71 80.31 100.24 80.82 C 100.13 80.14 99.92 78.78 99.82 78.11 C 98.50 79.09 97.18 80.07 95.84 81.03 C 95.25 75.91 99.22 71.64 101.45 67.35 C 104.35 64.87 107.93 63.16 110.60 60.33 C 110.11 60.07 109.13 59.56 108.63 59.30 C 110.25 59.03 111.87 58.81 113.50 58.59 C 113.47 58.24 113.41 57.56 113.38 57.22 Z" />
</g>
<g id="#e8c8bdff">
<path fill="#e8c8bd" opacity="1.00" d=" M 80.79 61.75 C 84.75 60.18 88.30 57.78 92.15 56.00 C 93.58 55.93 95.01 55.89 96.45 55.87 C 91.95 58.34 87.23 60.37 82.58 62.53 C 80.81 63.20 79.05 63.89 77.26 64.51 C 76.67 64.52 75.49 64.52 74.90 64.52 C 76.60 63.12 78.85 62.71 80.79 61.75 Z" />
<path fill="#e8c8bd" opacity="1.00" d=" M 145.68 55.82 C 147.26 55.96 148.85 56.05 150.43 56.22 C 155.93 59.23 161.72 61.67 167.30 64.50 C 166.70 64.50 165.50 64.50 164.90 64.50 C 163.42 63.90 161.95 63.27 160.47 62.66 C 155.58 60.30 150.50 58.34 145.68 55.82 Z" />
<path fill="#e8c8bd" opacity="1.00" d=" M 93.19 136.52 C 95.06 136.37 95.61 138.39 96.51 139.62 C 99.33 144.52 102.66 149.12 105.13 154.22 C 103.19 152.16 101.27 150.08 99.48 147.88 C 96.74 144.49 94.95 140.47 93.19 136.52 Z" />
<path fill="#e8c8bd" opacity="1.00" d=" M 84.60 171.94 C 88.80 170.20 92.74 167.83 95.93 164.54 L 97.35 164.91 C 96.20 170.97 89.68 172.97 84.50 174.28 C 84.52 173.70 84.57 172.53 84.60 171.94 Z" />
</g>
<g id="#e58a37ff">
<path fill="#e58a37" opacity="1.00" d=" M 100.10 66.08 C 103.18 64.10 104.95 60.34 108.63 59.30 C 109.13 59.56 110.11 60.07 110.60 60.33 C 107.93 63.16 104.35 64.87 101.45 67.35 C 99.22 71.64 95.25 75.91 95.84 81.03 C 97.18 80.07 98.50 79.09 99.82 78.11 C 99.92 78.78 100.13 80.14 100.24 80.82 C 100.71 80.31 101.18 79.80 101.66 79.30 C 101.87 79.68 102.30 80.43 102.51 80.81 C 104.59 78.52 106.70 76.26 108.90 74.10 C 107.86 78.35 106.17 82.42 103.89 86.17 C 103.86 85.58 103.80 84.40 103.77 83.81 C 98.72 90.29 95.95 98.12 92.04 105.26 C 92.16 101.04 93.72 97.04 93.88 92.83 C 92.22 95.59 91.13 98.63 90.08 101.66 C 89.54 102.37 88.99 103.07 88.44 103.76 C 87.94 101.36 87.39 98.96 86.75 96.59 C 87.32 95.43 87.56 94.24 86.43 93.31 C 86.91 92.33 87.39 91.34 87.87 90.36 C 86.87 90.15 85.79 89.20 84.78 89.80 C 81.66 91.68 79.04 94.29 75.91 96.17 C 78.55 92.15 80.93 87.63 85.15 85.03 C 87.54 83.62 88.70 80.87 91.13 79.49 C 92.05 79.02 92.97 78.54 93.88 78.05 C 93.24 77.32 92.59 76.59 91.95 75.87 C 93.51 71.77 96.55 68.56 100.10 66.08 Z" />
</g>
<g id="#ab5d27ff">
<path fill="#ab5d27" opacity="1.00" d=" M 82.58 62.53 C 86.56 62.64 90.54 62.49 94.49 62.04 C 94.79 63.12 95.22 64.19 95.26 65.33 C 94.16 68.52 90.68 69.62 87.77 70.52 C 87.70 70.04 87.55 69.08 87.47 68.60 C 87.49 68.22 87.53 67.47 87.55 67.09 C 84.06 66.60 80.28 66.59 77.26 64.51 C 79.05 63.89 80.81 63.20 82.58 62.53 Z" />
</g>
<g id="#a75825ff">
<path fill="#a75825" opacity="1.00" d=" M 149.46 62.18 C 153.12 62.62 156.80 62.65 160.47 62.66 C 161.95 63.27 163.42 63.90 164.90 64.50 C 161.65 66.55 157.78 66.89 154.06 67.37 C 155.46 68.67 156.82 70.00 158.19 71.33 L 156.74 71.02 C 154.57 70.36 152.39 69.44 150.07 69.72 C 149.95 69.48 149.71 69.00 149.59 68.76 C 149.03 66.60 148.66 64.34 149.46 62.18 Z" />
</g>
<g id="#333333ff">
<path fill="#333333" opacity="1.00" d=" M 117.15 66.61 C 120.38 69.22 122.13 73.12 124.97 76.10 C 125.40 75.23 126.26 73.49 126.69 72.62 C 129.53 77.61 129.90 83.59 128.50 89.09 C 128.36 91.36 126.79 94.34 128.98 96.03 C 130.24 92.15 130.87 87.88 133.38 84.54 C 134.31 84.54 135.23 84.58 136.16 84.65 C 135.89 86.21 135.38 87.72 134.58 89.10 C 134.51 88.34 134.36 86.82 134.29 86.06 C 132.60 85.82 132.62 87.98 131.95 88.99 C 130.97 91.40 130.13 93.95 130.55 96.59 C 130.22 97.26 129.91 97.93 129.59 98.61 C 126.87 96.17 126.92 92.59 127.55 89.27 C 128.81 84.90 128.79 80.27 127.29 75.97 C 126.29 76.26 125.29 76.55 124.29 76.84 C 122.21 74.11 120.20 71.33 118.11 68.61 C 118.45 72.09 119.75 75.65 118.59 79.10 C 117.59 83.40 115.27 87.25 112.32 90.49 C 110.35 92.53 109.41 95.21 109.09 97.98 C 111.26 96.16 113.69 94.63 116.63 94.65 C 116.75 95.22 117.01 96.35 117.14 96.92 L 117.09 98.18 C 116.61 97.09 115.95 96.14 115.10 95.33 C 113.42 95.44 112.38 96.94 111.11 97.82 C 110.16 98.63 109.20 99.43 108.23 100.21 C 107.69 95.28 110.35 91.19 113.53 87.75 C 115.94 84.61 117.53 80.87 118.19 76.98 C 118.25 73.50 117.28 70.09 117.15 66.61 Z" />
<path fill="#333333" opacity="1.00" d=" M 70.48 172.42 C 72.92 172.11 75.30 172.58 76.65 174.81 C 76.65 174.00 76.67 172.37 76.68 171.56 C 79.40 175.17 80.75 179.53 82.74 183.54 C 90.67 201.16 98.76 218.69 107.05 236.14 C 106.46 235.91 105.30 235.44 104.72 235.21 C 102.24 230.34 99.77 225.46 97.24 220.61 C 95.59 216.49 90.42 216.73 87.18 214.45 C 85.50 214.82 83.77 215.55 82.05 214.98 C 74.23 212.77 66.79 209.41 58.99 207.12 C 55.54 204.46 55.90 200.04 56.21 196.16 C 59.92 194.87 63.87 194.95 67.75 194.85 C 66.86 193.59 66.03 192.27 64.94 191.17 C 62.44 190.82 59.90 191.02 57.42 190.52 C 55.02 187.72 56.06 183.88 57.70 180.99 C 57.21 180.91 56.24 180.76 55.75 180.68 C 60.59 177.80 65.88 175.69 70.48 172.42 Z" />
</g>
<g id="#e3dcd8ff">
<path fill="#e3dcd8" opacity="1.00" d=" M 118.11 68.61 C 120.20 71.33 122.21 74.11 124.29 76.84 C 125.29 76.55 126.29 76.26 127.29 75.97 C 128.79 80.27 128.81 84.90 127.55 89.27 C 127.40 88.81 127.09 87.88 126.93 87.42 C 123.91 88.26 120.95 89.42 118.51 91.45 C 117.27 92.69 115.53 92.71 113.89 92.75 C 114.73 93.32 115.57 93.89 116.40 94.48 L 116.63 94.65 C 113.69 94.63 111.26 96.16 109.09 97.98 C 109.41 95.21 110.35 92.53 112.32 90.49 C 115.27 87.25 117.59 83.40 118.59 79.10 C 119.75 75.65 118.45 72.09 118.11 68.61 Z" />
</g>
<g id="#131313ff">
<path fill="#131313" opacity="1.00" d=" M 149.59 68.76 C 149.71 69.00 149.95 69.48 150.07 69.72 C 151.32 72.69 152.18 75.84 152.43 79.06 C 152.34 79.68 152.16 80.93 152.07 81.56 C 151.61 78.52 151.24 75.46 150.59 72.45 C 148.87 74.48 148.69 77.27 147.34 79.50 C 145.95 80.94 144.22 82.01 142.70 83.30 C 142.65 82.07 142.58 80.84 142.49 79.62 C 141.82 79.52 140.47 79.31 139.80 79.21 C 140.90 78.31 142.02 77.42 143.13 76.53 C 143.48 76.41 144.18 76.19 144.53 76.07 C 144.06 77.79 143.61 79.50 143.22 81.23 C 148.61 80.00 149.13 73.30 149.59 68.76 Z" />
<path fill="#131313" opacity="1.00" d=" M 201.88 88.06 C 203.16 88.29 204.45 88.53 205.74 88.76 C 206.67 89.58 207.77 90.09 209.00 90.32 C 210.84 99.84 205.25 109.81 209.37 119.07 C 212.25 125.78 221.74 126.02 223.91 133.21 C 225.97 140.70 223.08 148.56 224.54 156.13 C 225.12 158.64 227.10 160.45 229.13 161.87 C 229.36 161.16 229.82 159.74 230.05 159.04 C 230.04 159.75 230.01 161.18 230.00 161.89 C 229.00 162.25 228.01 162.62 227.03 163.00 C 225.54 161.57 223.83 160.21 223.12 158.20 C 219.76 150.11 224.75 141.18 221.64 133.05 C 219.76 128.70 214.64 127.70 211.28 124.86 C 207.44 121.86 205.11 116.91 205.59 112.02 C 205.88 104.94 207.94 97.90 206.96 90.79 C 198.58 108.39 190.58 126.17 182.68 143.99 C 183.47 145.65 184.23 147.32 184.92 149.03 C 182.27 149.53 179.64 150.16 177.06 150.95 C 179.22 154.39 183.35 155.45 186.87 156.95 C 193.30 159.53 200.10 160.96 206.61 163.31 C 204.41 168.21 202.55 173.25 200.50 178.22 C 207.17 179.42 214.07 179.51 220.50 181.87 C 220.26 182.76 220.01 183.64 219.76 184.53 L 219.46 184.35 C 217.59 183.02 215.36 182.37 213.10 182.14 C 207.85 181.49 202.64 180.50 197.43 179.59 C 197.58 179.29 197.88 178.69 198.03 178.38 C 200.20 173.84 201.87 169.08 203.90 164.48 C 198.64 162.80 193.28 161.44 188.05 159.66 C 185.10 158.63 182.18 157.47 179.42 155.98 C 178.77 155.60 177.45 154.83 176.80 154.45 C 175.78 153.24 174.75 151.55 175.65 149.98 C 176.49 148.60 178.21 148.26 179.56 147.61 C 179.90 147.72 180.59 147.95 180.94 148.06 C 180.77 145.63 180.91 143.19 181.73 140.89 L 181.94 140.03 C 181.88 139.52 181.76 138.50 181.70 137.98 L 182.34 137.79 L 183.12 137.56 C 183.86 137.35 184.22 136.81 184.20 135.93 C 184.37 135.23 184.72 133.84 184.89 133.15 C 185.10 132.81 185.52 132.12 185.73 131.77 C 186.75 130.28 187.48 128.60 187.93 126.85 C 187.83 126.36 187.62 125.39 187.52 124.90 C 187.36 124.01 187.13 123.07 186.22 122.62 C 187.31 122.55 189.48 122.41 190.57 122.34 C 190.74 121.89 191.07 120.97 191.23 120.52 C 191.79 118.90 191.22 117.58 189.53 116.55 C 190.78 116.53 192.02 116.47 193.26 116.35 C 194.44 113.49 195.80 110.72 197.12 107.93 C 198.13 106.00 197.44 105.18 195.06 105.47 C 195.77 105.35 197.18 105.11 197.89 104.98 C 197.46 104.54 196.59 103.64 196.16 103.19 C 196.94 103.29 198.51 103.49 199.29 103.58 C 198.77 103.02 197.73 101.90 197.21 101.34 C 199.05 101.88 200.30 101.30 200.95 99.61 C 200.19 99.60 198.67 99.59 197.92 99.58 C 198.48 99.43 199.60 99.13 200.16 98.98 C 199.89 98.47 199.34 97.45 199.06 96.95 L 199.48 96.49 C 199.95 96.89 200.89 97.67 201.37 98.06 C 201.50 97.67 201.77 96.89 201.90 96.50 C 201.45 96.41 200.54 96.25 200.09 96.17 C 200.29 95.64 200.70 94.57 200.91 94.03 C 199.49 93.12 198.08 92.20 196.71 91.22 C 196.56 90.22 196.98 89.54 197.97 89.19 C 197.83 89.66 197.54 90.61 197.40 91.08 C 199.42 91.83 201.51 92.36 203.65 92.64 C 202.98 92.03 201.64 90.81 200.97 90.20 C 201.88 90.28 203.71 90.42 204.62 90.49 C 203.94 89.88 202.57 88.67 201.88 88.06 Z" />
</g>
<g id="#dc7c36ff">
<path fill="#dc7c36" opacity="1.00" d=" M 150.07 69.72 C 152.39 69.44 154.57 70.36 156.74 71.02 C 160.40 74.73 164.79 77.58 168.58 81.14 C 164.33 80.57 160.23 79.34 156.22 77.89 C 156.32 78.37 156.53 79.34 156.63 79.83 C 155.23 79.57 153.83 79.32 152.43 79.06 C 152.18 75.84 151.32 72.69 150.07 69.72 Z" />
</g>
<g id="#d5a799ff">
<path fill="#d5a799" opacity="1.00" d=" M 156.74 71.02 L 158.19 71.33 C 162.98 75.63 168.75 78.54 173.82 82.45 C 172.06 82.06 170.31 81.63 168.58 81.14 C 164.79 77.58 160.40 74.73 156.74 71.02 Z" />
<path fill="#d5a799" opacity="1.00" d=" M 71.97 79.91 C 76.09 77.71 79.59 74.58 83.51 72.08 C 81.33 76.07 77.21 78.26 73.74 80.97 C 72.73 81.47 71.72 81.96 70.69 82.41 C 70.28 82.53 69.46 82.77 69.05 82.88 C 68.99 81.11 70.73 80.66 71.97 79.91 Z" />
<path fill="#d5a799" opacity="1.00" d=" M 81.47 85.46 C 82.66 84.32 84.14 83.56 85.61 82.84 C 85.49 83.39 85.26 84.48 85.15 85.03 C 80.93 87.63 78.55 92.15 75.91 96.17 C 74.31 97.77 72.83 99.50 71.54 101.36 L 71.33 101.65 C 70.66 101.71 69.31 101.83 68.64 101.89 C 73.20 96.63 77.42 91.11 81.47 85.46 Z" />
<path fill="#d5a799" opacity="1.00" d=" M 86.10 177.85 C 91.24 176.98 96.39 178.29 101.55 178.22 L 100.44 178.78 C 99.28 179.00 98.11 179.22 96.95 179.44 C 98.03 182.81 99.86 185.93 100.58 189.42 C 99.13 189.11 97.68 188.80 96.22 188.56 C 93.98 188.21 91.82 187.46 89.79 186.46 C 88.75 183.51 87.15 180.80 86.10 177.85 Z" />
</g>
<g id="#dbd2ceff">
<path fill="#dbd2ce" opacity="1.00" d=" M 147.34 79.50 C 148.69 77.27 148.87 74.48 150.59 72.45 C 151.24 75.46 151.61 78.52 152.07 81.56 L 152.02 82.37 C 151.92 82.43 151.73 82.53 151.63 82.59 C 150.07 83.66 148.56 84.80 147.12 86.03 C 146.96 85.69 146.65 85.01 146.49 84.67 C 145.17 84.41 143.82 84.27 142.48 84.15 L 142.70 83.30 C 144.22 82.01 145.95 80.94 147.34 79.50 Z" />
</g>
<g id="#a55a24ff">
<path fill="#a55a24" opacity="1.00" d=" M 73.74 80.97 C 78.15 80.42 82.36 78.95 86.68 77.96 C 86.52 78.43 86.20 79.37 86.04 79.84 C 87.74 79.76 89.44 79.70 91.13 79.49 C 88.70 80.87 87.54 83.62 85.15 85.03 C 85.26 84.48 85.49 83.39 85.61 82.84 C 84.14 83.56 82.66 84.32 81.47 85.46 C 78.43 83.23 74.03 84.29 70.69 82.41 C 71.72 81.96 72.73 81.47 73.74 80.97 Z" />
</g>
<g id="#a45724ff">
<path fill="#a45724" opacity="1.00" d=" M 156.22 77.89 C 160.23 79.34 164.33 80.57 168.58 81.14 C 170.31 81.63 172.06 82.06 173.82 82.45 C 169.45 83.54 165.01 84.31 160.52 84.69 C 159.08 83.67 157.35 83.43 155.66 83.86 C 155.06 83.61 153.86 83.10 153.26 82.84 C 152.95 82.72 152.33 82.49 152.02 82.37 L 152.07 81.56 C 152.16 80.93 152.34 79.68 152.43 79.06 C 153.83 79.32 155.23 79.57 156.63 79.83 C 156.53 79.34 156.32 78.37 156.22 77.89 Z" />
</g>
<g id="#a3181aff">
<path fill="#a3181a" opacity="1.00" d=" M 136.16 84.65 C 136.23 82.22 138.04 80.62 139.80 79.21 C 140.47 79.31 141.82 79.52 142.49 79.62 C 142.58 80.84 142.65 82.07 142.70 83.30 L 142.48 84.15 C 135.51 92.26 129.29 101.16 125.05 111.01 C 126.36 106.80 127.74 102.61 129.59 98.61 C 129.91 97.93 130.22 97.26 130.55 96.59 C 131.82 94.05 133.17 91.56 134.58 89.10 C 135.38 87.72 135.89 86.21 136.16 84.65 Z" />
</g>
<g id="#010102ff">
<path fill="#010102" opacity="1.00" d=" M 151.63 82.59 C 151.73 82.53 151.92 82.43 152.02 82.37 C 152.33 82.49 152.95 82.72 153.26 82.84 C 153.99 85.08 154.23 87.84 156.48 89.15 C 156.72 95.35 155.47 101.56 156.63 107.72 C 156.52 108.11 156.29 108.88 156.18 109.27 C 153.80 114.55 153.54 120.34 152.77 125.99 C 152.86 126.70 153.05 128.11 153.14 128.82 C 152.95 132.31 151.42 135.50 149.46 138.33 C 148.32 138.88 147.19 139.45 146.06 140.02 C 147.47 137.52 148.81 134.99 149.97 132.37 C 144.74 134.06 139.28 133.00 133.97 132.45 C 137.69 132.24 141.41 132.31 145.13 132.37 C 147.97 130.97 151.02 129.32 152.14 126.15 C 152.57 124.44 152.41 122.76 151.65 121.10 C 152.07 120.09 152.56 119.10 153.04 118.11 C 149.20 121.78 144.70 125.66 139.07 125.69 C 135.62 126.06 131.64 124.64 128.54 126.47 C 126.38 130.04 126.86 134.54 126.72 138.56 C 126.47 141.87 126.43 145.21 126.75 148.53 C 127.63 147.63 128.44 146.67 129.19 145.65 C 130.03 145.65 130.75 146.51 131.55 146.77 C 131.58 148.33 131.58 149.89 131.56 151.46 C 132.28 151.60 133.71 151.88 134.42 152.02 C 134.97 149.07 134.25 146.04 131.75 144.23 C 132.39 144.32 133.66 144.51 134.30 144.60 C 135.07 146.46 134.59 149.52 137.05 150.12 C 137.38 148.26 138.05 146.67 140.24 147.31 L 140.33 148.39 C 139.44 149.39 139.22 150.54 139.67 151.83 L 139.06 151.39 C 137.87 150.67 137.38 151.14 137.60 152.80 L 137.28 152.51 C 136.16 150.52 134.29 152.58 134.90 154.17 L 134.27 153.70 C 133.95 153.47 133.31 152.99 132.98 152.76 C 132.48 153.60 131.48 155.30 130.97 156.14 C 130.73 153.10 130.83 150.04 130.50 147.00 C 129.41 147.19 128.68 147.75 128.29 148.67 C 128.04 149.43 127.82 150.19 127.63 150.97 C 127.19 150.47 126.31 149.47 125.87 148.97 C 125.44 150.32 125.06 151.68 124.73 153.07 C 124.23 151.88 123.84 150.63 123.05 149.60 C 122.19 148.55 121.32 147.51 120.48 146.45 L 120.12 145.98 C 121.46 146.54 122.57 146.27 123.46 145.15 C 123.37 143.24 122.57 141.48 121.81 139.77 C 124.05 134.73 124.19 129.09 125.88 123.88 C 126.63 121.67 128.97 120.71 130.86 119.69 C 137.45 116.63 144.41 114.48 151.33 112.30 C 157.31 109.32 155.21 101.98 155.67 96.65 C 155.73 94.98 155.77 93.32 155.75 91.65 C 155.55 90.24 155.64 88.07 153.60 88.44 C 154.15 86.22 152.77 84.34 151.63 82.59 M 131.03 123.61 C 136.10 124.41 142.46 123.82 144.79 118.45 C 139.74 118.09 135.01 120.75 131.03 123.61 Z" />
</g>
<g id="#ac2221ff">
<path fill="#ac2221" opacity="1.00" d=" M 151.63 82.59 C 152.77 84.34 154.15 86.22 153.60 88.44 C 143.40 96.11 132.94 104.06 126.09 115.05 C 130.62 103.84 138.28 94.17 147.12 86.03 C 148.56 84.80 150.07 83.66 151.63 82.59 Z" />
</g>
<g id="#d47a3aff">
<path fill="#d47a3a" opacity="1.00" d=" M 153.26 82.84 C 153.86 83.10 155.06 83.61 155.66 83.86 C 160.64 86.47 163.85 91.24 166.55 95.99 C 162.61 94.61 160.02 91.20 156.48 89.15 C 154.23 87.84 153.99 85.08 153.26 82.84 Z" />
</g>
<g id="#d3a393ff">
<path fill="#d3a393" opacity="1.00" d=" M 155.66 83.86 C 157.35 83.43 159.08 83.67 160.52 84.69 C 164.58 90.96 169.29 96.75 174.10 102.45 C 173.18 102.27 172.27 102.09 171.35 101.92 C 169.88 99.84 168.29 97.85 166.55 95.99 C 163.85 91.24 160.64 86.47 155.66 83.86 Z" />
<path fill="#d3a393" opacity="1.00" d=" M 158.08 95.00 C 159.16 96.25 160.21 97.52 161.14 98.88 C 163.15 104.23 165.59 109.45 169.04 114.05 C 168.56 114.01 167.61 113.92 167.13 113.88 C 165.43 111.33 163.76 108.75 162.22 106.10 C 161.08 102.31 159.41 98.72 158.08 95.00 Z" />
<path fill="#d3a393" opacity="1.00" d=" M 92.01 121.40 C 92.22 121.03 92.65 120.31 92.86 119.95 C 93.89 122.71 94.99 125.46 96.40 128.05 C 96.48 125.96 96.53 123.87 96.67 121.78 L 97.55 121.93 C 99.18 123.01 100.73 124.20 102.28 125.39 L 103.40 124.81 C 104.74 124.91 106.09 125.04 107.43 125.19 C 106.18 126.57 104.72 127.74 103.28 128.91 L 104.04 129.31 C 102.42 129.72 100.79 130.12 99.17 130.52 C 99.00 133.30 99.14 136.09 99.70 138.83 C 99.23 138.89 98.27 139.02 97.79 139.09 C 102.27 143.50 105.57 148.90 109.87 153.44 C 108.49 153.92 107.20 154.65 106.50 155.99 C 106.04 155.40 105.58 154.81 105.13 154.22 C 102.66 149.12 99.33 144.52 96.51 139.62 C 95.61 138.39 95.06 136.37 93.19 136.52 C 91.63 132.54 89.16 128.17 90.80 123.84 C 91.17 123.01 91.57 122.19 92.01 121.40 Z" />
</g>
<g id="#ae6c25ff">
<path fill="#ae6c25" opacity="1.00" d=" M 92.04 105.26 C 95.95 98.12 98.72 90.29 103.77 83.81 C 103.80 84.40 103.86 85.58 103.89 86.17 C 102.07 89.53 100.50 93.05 99.80 96.83 L 100.57 97.58 C 101.89 98.31 103.38 98.56 104.86 98.71 C 104.96 100.73 105.05 102.75 105.14 104.77 C 106.32 104.59 107.50 104.41 108.69 104.22 C 110.41 106.09 112.11 107.98 113.80 109.87 C 115.23 108.07 115.16 105.76 115.34 103.58 C 115.48 103.22 115.76 102.48 115.90 102.11 C 115.92 107.87 117.12 113.59 116.65 119.36 C 115.58 117.96 114.70 116.44 113.88 114.89 C 113.36 115.89 112.84 116.89 112.32 117.89 C 111.99 116.20 111.65 114.51 111.31 112.82 C 110.15 114.71 109.00 116.60 107.95 118.55 C 107.71 119.00 107.23 119.90 107.00 120.36 C 106.68 120.19 106.06 119.87 105.74 119.70 C 108.67 118.89 107.02 114.91 107.42 112.67 L 106.27 112.97 C 106.94 112.02 107.63 111.09 108.33 110.17 C 106.80 110.72 105.27 111.28 103.74 111.85 C 103.03 108.77 102.85 105.60 102.38 102.49 C 100.49 104.64 98.71 106.90 96.85 109.09 C 96.49 106.69 96.52 104.26 96.68 101.85 C 94.66 103.33 93.62 105.57 92.78 107.86 C 92.18 108.71 91.57 109.56 90.94 110.40 C 90.77 107.83 90.58 105.26 90.21 102.71 L 90.08 101.66 C 91.13 98.63 92.22 95.59 93.88 92.83 C 93.72 97.04 92.16 101.04 92.04 105.26 Z" />
</g>
<g id="#f3f1efff">
<path fill="#f3f1ef" opacity="1.00" d=" M 125.05 111.01 C 129.29 101.16 135.51 92.26 142.48 84.15 C 143.82 84.27 145.17 84.41 146.49 84.67 C 146.65 85.01 146.96 85.69 147.12 86.03 C 138.28 94.17 130.62 103.84 126.09 115.05 C 132.94 104.06 143.40 96.11 153.60 88.44 C 155.64 88.07 155.55 90.24 155.75 91.65 C 144.20 96.53 135.46 106.00 128.36 116.06 C 133.28 110.82 139.24 106.76 145.19 102.79 C 149.34 102.69 149.10 107.23 149.80 110.19 C 149.26 110.67 148.18 111.64 147.63 112.13 C 148.56 112.17 150.40 112.26 151.33 112.30 C 144.41 114.48 137.45 116.63 130.86 119.69 C 128.97 120.71 126.63 121.67 125.88 123.88 C 124.19 129.09 124.05 134.73 121.81 139.77 C 121.65 139.43 121.33 138.75 121.18 138.41 C 121.32 131.84 119.76 125.36 118.85 118.89 C 116.83 113.77 117.04 108.18 116.27 102.79 C 116.66 102.33 117.43 101.39 117.82 100.92 C 117.61 99.58 117.41 98.25 117.14 96.92 C 117.01 96.35 116.75 95.22 116.63 94.65 L 116.40 94.48 C 115.57 93.89 114.73 93.32 113.89 92.75 C 115.53 92.71 117.27 92.69 118.51 91.45 C 120.95 89.42 123.91 88.26 126.93 87.42 C 127.09 87.88 127.40 88.81 127.55 89.27 C 126.92 92.59 126.87 96.17 129.59 98.61 C 127.74 102.61 126.36 106.80 125.05 111.01 Z" />
</g>
<g id="#c17d2aff">
<path fill="#c17d2a" opacity="1.00" d=" M 104.19 94.95 C 107.25 91.86 109.37 87.98 112.66 85.11 C 112.88 85.77 113.32 87.09 113.53 87.75 C 110.35 91.19 107.69 95.28 108.23 100.21 C 109.20 99.43 110.16 98.63 111.11 97.82 C 112.38 99.84 113.77 101.78 115.34 103.58 C 115.16 105.76 115.23 108.07 113.80 109.87 C 112.11 107.98 110.41 106.09 108.69 104.22 C 107.50 104.41 106.32 104.59 105.14 104.77 C 105.05 102.75 104.96 100.73 104.86 98.71 C 103.38 98.56 101.89 98.31 100.57 97.58 C 102.01 94.39 103.44 91.10 106.03 88.66 C 105.46 90.77 104.81 92.85 104.19 94.95 Z" />
</g>
<g id="#e2e2e2ff">
<path fill="#e2e2e2" opacity="1.00" d=" M 197.97 89.19 C 199.01 87.63 199.32 84.10 202.02 85.20 C 203.62 85.79 206.58 86.24 205.74 88.76 C 204.45 88.53 203.16 88.29 201.88 88.06 C 202.57 88.67 203.94 89.88 204.62 90.49 C 203.71 90.42 201.88 90.28 200.97 90.20 C 201.64 90.81 202.98 92.03 203.65 92.64 C 201.51 92.36 199.42 91.83 197.40 91.08 C 197.54 90.61 197.83 89.66 197.97 89.19 Z" />
<path fill="#e2e2e2" opacity="1.00" d=" M 171.72 141.26 C 172.18 140.93 173.08 140.27 173.54 139.94 C 174.97 140.98 176.37 142.07 177.71 143.23 L 175.77 143.40 C 174.41 142.70 173.09 141.94 171.72 141.26 Z" />
</g>
<g id="#f0f0f0ff">
<path fill="#f0f0f0" opacity="1.00" d=" M 205.95 85.03 C 208.21 85.13 210.60 86.53 210.33 89.09 C 210.10 98.37 208.07 108.13 211.81 117.02 C 214.84 123.72 223.64 124.60 227.23 130.81 C 230.07 137.19 227.99 144.34 228.88 151.03 C 228.28 148.07 228.40 144.74 226.01 142.52 C 225.04 147.86 224.24 153.87 226.98 158.83 C 229.75 159.80 227.60 155.78 227.44 154.44 C 227.89 154.41 228.79 154.36 229.24 154.33 C 231.27 155.03 230.61 157.51 230.05 159.04 C 229.82 159.74 229.36 161.16 229.13 161.87 C 227.10 160.45 225.12 158.64 224.54 156.13 C 223.08 148.56 225.97 140.70 223.91 133.21 C 221.74 126.02 212.25 125.78 209.37 119.07 C 205.25 109.81 210.84 99.84 209.00 90.32 C 208.82 89.71 208.48 88.47 208.31 87.85 C 207.32 87.09 206.23 86.34 205.95 85.03 Z" />
<path fill="#f0f0f0" opacity="1.00" d=" M 196.22 93.93 C 196.34 93.25 196.59 91.90 196.71 91.22 C 198.08 92.20 199.49 93.12 200.91 94.03 C 200.70 94.57 200.29 95.64 200.09 96.17 C 200.54 96.25 201.45 96.41 201.90 96.50 C 201.77 96.89 201.50 97.67 201.37 98.06 C 200.89 97.67 199.95 96.89 199.48 96.49 L 199.06 96.95 C 197.78 98.12 196.77 99.94 194.81 99.96 C 194.48 99.75 193.81 99.33 193.48 99.12 L 193.70 97.33 C 194.27 97.46 195.40 97.70 195.96 97.82 C 195.55 97.36 194.74 96.44 194.33 95.98 C 195.37 94.10 197.64 96.40 199.10 95.12 C 198.38 94.82 196.94 94.22 196.22 93.93 Z" />
<path fill="#f0f0f0" opacity="1.00" d=" M 186.42 121.74 C 184.69 120.42 182.36 118.88 184.87 116.86 C 186.45 118.57 187.93 120.84 190.56 120.84 L 190.57 122.34 C 189.48 122.41 187.31 122.55 186.22 122.62 L 186.42 121.74 Z" />
<path fill="#f0f0f0" opacity="1.00" d=" M 184.83 126.03 C 183.13 124.73 180.51 120.99 183.88 120.21 C 184.37 121.28 184.87 122.34 185.39 123.40 L 186.65 123.28 L 186.65 124.31 L 187.52 124.90 C 187.62 125.39 187.83 126.36 187.93 126.85 C 187.00 126.69 185.12 126.38 184.18 126.22 C 184.56 126.91 185.30 128.28 185.67 128.96 C 184.81 128.65 183.94 128.34 183.08 128.03 C 181.70 127.46 179.87 125.47 181.01 123.97 C 182.47 124.23 183.59 125.29 184.83 126.03 Z" />
<path fill="#f0f0f0" opacity="1.00" d=" M 178.44 130.13 C 178.95 128.77 179.48 127.42 180.03 126.08 C 180.92 126.95 181.56 127.99 181.95 129.21 C 182.57 130.70 183.27 132.13 183.97 133.59 C 184.41 133.13 185.29 132.23 185.73 131.77 C 185.52 132.12 185.10 132.81 184.89 133.15 C 184.72 133.84 184.37 135.23 184.20 135.93 C 181.99 134.30 180.24 132.18 178.44 130.13 Z" />
<path fill="#f0f0f0" opacity="1.00" d=" M 175.31 136.31 C 176.80 134.70 176.58 131.72 178.83 130.97 C 180.10 133.23 182.08 134.96 183.53 137.07 L 183.12 137.56 L 182.34 137.79 C 180.62 136.57 178.93 135.30 177.18 134.13 C 177.93 136.09 180.27 137.79 180.05 139.98 C 178.30 138.97 176.81 137.63 175.31 136.31 Z" />
</g>
<g id="#ebe7e3ff">
<path fill="#ebe7e3" opacity="1.00" d=" M 131.95 88.99 C 132.62 87.98 132.60 85.82 134.29 86.06 C 134.36 86.82 134.51 88.34 134.58 89.10 C 133.17 91.56 131.82 94.05 130.55 96.59 C 130.13 93.95 130.97 91.40 131.95 88.99 Z" />
<path fill="#ebe7e3" opacity="1.00" d=" M 161.02 172.22 C 161.90 169.57 164.83 171.12 166.72 171.44 C 156.31 193.33 146.81 215.66 136.02 237.36 C 135.00 237.47 132.97 237.69 131.95 237.79 L 132.73 236.31 C 134.76 233.66 136.51 230.79 137.78 227.70 C 145.72 209.29 153.11 190.64 161.02 172.22 Z" />
</g>
<g id="#b26327ff">
<path fill="#b26327" opacity="1.00" d=" M 84.78 89.80 C 85.79 89.20 86.87 90.15 87.87 90.36 C 87.39 91.34 86.91 92.33 86.43 93.31 C 87.56 94.24 87.32 95.43 86.75 96.59 C 85.61 98.13 84.41 99.63 83.24 101.16 C 83.27 100.20 83.34 98.29 83.37 97.34 C 82.69 97.70 81.33 98.42 80.65 98.78 C 77.84 100.26 74.78 101.55 71.54 101.36 C 72.83 99.50 74.31 97.77 75.91 96.17 C 79.04 94.29 81.66 91.68 84.78 89.80 Z" />
</g>
<g id="#bf692dff">
<path fill="#bf692d" opacity="1.00" d=" M 156.48 89.15 C 160.02 91.20 162.61 94.61 166.55 95.99 C 168.29 97.85 169.88 99.84 171.35 101.92 C 167.81 101.41 164.40 100.33 161.14 98.88 C 160.21 97.52 159.16 96.25 158.08 95.00 C 159.41 98.72 161.08 102.31 162.22 106.10 C 162.07 107.16 161.92 108.22 161.77 109.28 C 160.15 108.47 158.50 107.55 156.63 107.72 C 155.47 101.56 156.72 95.35 156.48 89.15 Z" />
</g>
<g id="#b02421ff">
<path fill="#b02421" opacity="1.00" d=" M 128.36 116.06 C 135.46 106.00 144.20 96.53 155.75 91.65 C 155.77 93.32 155.73 94.98 155.67 96.65 C 152.07 98.50 148.58 100.57 145.19 102.79 C 139.24 106.76 133.28 110.82 128.36 116.06 Z" />
</g>
<g id="#df9b36ff">
<path fill="#df9b36" opacity="1.00" d=" M 111.11 97.82 C 112.38 96.94 113.42 95.44 115.10 95.33 C 115.95 96.14 116.61 97.09 117.09 98.18 C 116.94 99.55 116.37 100.83 115.90 102.11 C 115.76 102.48 115.48 103.22 115.34 103.58 C 113.77 101.78 112.38 99.84 111.11 97.82 Z" />
</g>
<g id="#d97c38ff">
<path fill="#d97c38" opacity="1.00" d=" M 83.24 101.16 C 84.41 99.63 85.61 98.13 86.75 96.59 C 87.39 98.96 87.94 101.36 88.44 103.76 C 88.99 103.07 89.54 102.37 90.08 101.66 L 90.21 102.71 C 89.11 108.09 87.84 113.45 87.62 118.96 C 86.71 124.28 89.19 129.80 87.48 134.94 C 85.97 130.43 85.71 125.65 85.46 120.94 C 83.99 122.31 82.51 123.66 80.99 124.98 C 83.18 120.36 84.30 115.36 85.00 110.33 C 85.50 109.18 86.05 108.06 86.59 106.94 C 86.27 106.45 85.94 105.95 85.61 105.46 C 84.77 106.22 83.88 106.93 82.95 107.59 C 82.82 107.02 82.57 105.89 82.44 105.33 C 82.13 105.58 81.51 106.08 81.20 106.33 C 81.18 104.28 81.11 102.23 80.83 100.20 C 80.79 99.85 80.70 99.14 80.65 98.78 C 81.33 98.42 82.69 97.70 83.37 97.34 C 83.34 98.29 83.27 100.20 83.24 101.16 Z" />
</g>
<g id="#1f0407ff">
<path fill="#1f0407" opacity="1.00" d=" M 117.14 96.92 C 117.41 98.25 117.61 99.58 117.82 100.92 C 117.43 101.39 116.66 102.33 116.27 102.79 C 117.04 108.18 116.83 113.77 118.85 118.89 C 118.87 120.54 118.83 122.20 118.80 123.86 C 116.87 122.68 114.89 121.24 112.50 121.54 C 111.01 120.50 109.47 119.54 107.95 118.55 C 109.00 116.60 110.15 114.71 111.31 112.82 C 111.65 114.51 111.99 116.20 112.32 117.89 C 112.84 116.89 113.36 115.89 113.88 114.89 C 114.70 116.44 115.58 117.96 116.65 119.36 C 117.12 113.59 115.92 107.87 115.90 102.11 C 116.37 100.83 116.94 99.55 117.09 98.18 L 117.14 96.92 Z" />
</g>
<g id="#e5e0ddff">
<path fill="#e5e0dd" opacity="1.00" d=" M 145.19 102.79 C 148.58 100.57 152.07 98.50 155.67 96.65 C 155.21 101.98 157.31 109.32 151.33 112.30 C 150.40 112.26 148.56 112.17 147.63 112.13 C 148.18 111.64 149.26 110.67 149.80 110.19 C 149.10 107.23 149.34 102.69 145.19 102.79 Z" />
</g>
<g id="#989695ff">
<path fill="#989695" opacity="1.00" d=" M 194.81 99.96 C 196.77 99.94 197.78 98.12 199.06 96.95 C 199.34 97.45 199.89 98.47 200.16 98.98 C 199.60 99.13 198.48 99.43 197.92 99.58 C 198.67 99.59 200.19 99.60 200.95 99.61 C 200.30 101.30 199.05 101.88 197.21 101.34 C 197.73 101.90 198.77 103.02 199.29 103.58 C 198.51 103.49 196.94 103.29 196.16 103.19 C 196.59 103.64 197.46 104.54 197.89 104.98 C 197.18 105.11 195.77 105.35 195.06 105.47 C 197.44 105.18 198.13 106.00 197.12 107.93 C 196.28 107.98 194.59 108.09 193.75 108.15 L 194.19 109.31 C 192.16 107.94 190.08 106.44 190.29 103.68 L 191.95 103.54 C 192.67 103.62 194.10 103.78 194.81 103.86 C 194.14 103.07 193.39 102.35 192.57 101.72 L 192.63 100.44 C 193.52 101.26 194.56 101.76 195.78 101.95 C 195.54 101.45 195.05 100.46 194.81 99.96 M 192.39 105.17 C 192.18 106.48 192.81 107.00 194.27 106.73 C 194.48 105.42 193.86 104.90 192.39 105.17 Z" />
<path fill="#989695" opacity="1.00" d=" M 129.25 192.84 C 135.17 195.19 141.46 192.88 147.16 191.00 L 146.95 191.90 L 146.76 192.84 C 138.89 195.64 130.69 197.49 122.40 198.47 C 128.90 202.35 136.63 199.15 143.48 198.02 L 143.26 199.35 C 139.83 200.40 136.33 201.20 132.80 201.81 C 121.18 203.51 109.40 203.21 97.82 201.41 C 105.18 205.03 113.67 205.14 121.43 207.58 C 120.99 207.69 120.12 207.92 119.69 208.03 C 113.05 207.83 106.71 205.57 100.12 205.00 C 100.12 205.83 100.12 207.49 100.12 208.33 C 98.21 206.20 98.92 202.30 95.81 201.34 L 95.67 203.08 C 95.50 202.62 95.17 201.68 95.00 201.21 C 95.41 200.87 96.23 200.19 96.64 199.85 C 94.56 198.41 93.61 196.08 92.82 193.77 C 94.02 193.51 95.23 193.30 96.44 193.13 C 98.95 193.64 101.44 194.27 103.93 194.90 C 108.24 195.96 112.54 197.51 117.04 197.36 C 121.82 197.25 126.55 196.46 131.22 195.54 C 128.79 195.03 126.33 194.61 123.88 194.21 C 125.67 193.75 127.45 193.24 129.25 192.84 M 96.02 195.01 C 96.74 196.44 96.73 198.67 98.45 199.32 C 104.55 200.63 110.77 201.30 117.00 201.53 C 118.51 201.34 120.79 202.01 121.60 200.30 C 112.94 199.22 104.61 196.44 96.02 195.01 Z" />
</g>
<g id="#cececeff">
<path fill="#cecece" opacity="1.00" d=" M 192.90 99.82 C 193.38 99.85 194.34 99.92 194.81 99.96 C 195.05 100.46 195.54 101.45 195.78 101.95 C 194.56 101.76 193.52 101.26 192.63 100.44 L 192.90 99.82 Z" />
</g>
<g id="#b58876ff">
<path fill="#b58876" opacity="1.00" d=" M 73.15 114.47 C 76.12 109.92 78.48 105.07 80.83 100.20 C 81.11 102.23 81.18 104.28 81.20 106.33 C 81.51 106.08 82.13 105.58 82.44 105.33 C 82.57 105.89 82.82 107.02 82.95 107.59 C 83.88 106.93 84.77 106.22 85.61 105.46 C 85.94 105.95 86.27 106.45 86.59 106.94 C 86.05 108.06 85.50 109.18 85.00 110.33 L 84.74 109.58 C 83.49 107.98 81.90 108.64 80.40 109.41 C 80.31 108.95 80.13 108.03 80.05 107.57 C 78.46 109.52 77.11 111.65 75.77 113.77 C 75.12 113.94 73.81 114.29 73.15 114.47 Z" />
<path fill="#b58876" opacity="1.00" d=" M 148.04 171.03 C 151.84 171.80 155.61 172.77 159.32 173.93 C 159.15 174.27 158.82 174.96 158.66 175.30 C 154.81 175.17 149.40 177.16 146.98 173.00 C 147.25 172.51 147.77 171.53 148.04 171.03 Z" />
</g>
<g id="#93581cff">
<path fill="#93581c" opacity="1.00" d=" M 92.78 107.86 C 93.62 105.57 94.66 103.33 96.68 101.85 C 96.52 104.26 96.49 106.69 96.85 109.09 C 98.71 106.90 100.49 104.64 102.38 102.49 C 102.85 105.60 103.03 108.77 103.74 111.85 C 105.27 111.28 106.80 110.72 108.33 110.17 C 107.63 111.09 106.94 112.02 106.27 112.97 C 104.56 115.34 103.43 118.06 101.94 120.56 C 101.35 116.68 101.46 112.75 101.66 108.84 C 100.79 109.54 99.92 110.25 99.06 110.97 C 97.80 111.94 96.50 112.86 95.21 113.79 C 95.09 111.58 94.97 109.38 94.85 107.18 C 94.33 107.35 93.30 107.69 92.78 107.86 Z" />
</g>
<g id="#d5d5d5ff">
<path fill="#d5d5d5" opacity="1.00" d=" M 191.74 101.95 L 192.57 101.72 C 193.39 102.35 194.14 103.07 194.81 103.86 C 194.10 103.78 192.67 103.62 191.95 103.54 C 191.90 103.14 191.80 102.35 191.74 101.95 Z" />
</g>
<g id="#7a3e17ff">
<path fill="#7a3e17" opacity="1.00" d=" M 90.21 102.71 C 90.58 105.26 90.77 107.83 90.94 110.40 C 91.57 109.56 92.18 108.71 92.78 107.86 C 93.30 107.69 94.33 107.35 94.85 107.18 C 94.97 109.38 95.09 111.58 95.21 113.79 C 96.50 112.86 97.80 111.94 99.06 110.97 C 98.25 112.90 97.53 114.87 96.97 116.89 C 96.66 118.23 96.39 119.59 96.13 120.94 C 95.80 120.71 95.14 120.23 94.81 119.99 C 94.31 118.34 93.94 116.65 93.52 114.97 C 92.54 116.57 91.59 118.20 90.77 119.89 C 90.27 119.31 89.76 118.75 89.24 118.19 C 88.83 118.39 88.03 118.77 87.62 118.96 C 87.84 113.45 89.11 108.09 90.21 102.71 Z" />
</g>
<g id="#f4f3f0ff">
<path fill="#f4f3f0" opacity="1.00" d=" M 190.37 105.69 C 190.35 105.19 190.31 104.19 190.29 103.68 C 190.08 106.44 192.16 107.94 194.19 109.31 L 194.65 110.45 C 193.22 110.42 191.21 108.03 190.06 109.75 C 191.10 110.57 192.14 111.39 193.19 112.21 C 191.59 111.82 190.07 110.95 188.39 110.97 C 188.78 113.48 191.72 114.54 193.26 116.35 C 192.02 116.47 190.78 116.53 189.53 116.55 C 188.51 115.55 187.42 114.62 186.34 113.69 C 187.88 111.10 188.18 107.91 190.37 105.69 Z" />
<path fill="#f4f3f0" opacity="1.00" d=" M 128.29 148.67 C 128.68 147.75 129.41 147.19 130.50 147.00 C 130.83 150.04 130.73 153.10 130.97 156.14 C 131.48 155.30 132.48 153.60 132.98 152.76 C 133.31 152.99 133.95 153.47 134.27 153.70 C 134.30 155.31 134.30 156.92 134.26 158.53 C 133.62 158.08 132.36 157.19 131.73 156.75 C 131.50 158.19 131.24 159.63 130.93 161.07 C 129.89 159.90 127.97 158.62 129.01 156.75 C 129.49 155.90 129.97 155.05 130.47 154.21 C 129.54 152.45 128.76 150.61 128.29 148.67 Z" />
<path fill="#f4f3f0" opacity="1.00" d=" M 113.49 149.02 C 116.68 149.09 119.86 149.44 123.05 149.60 C 123.84 150.63 124.23 151.88 124.73 153.07 C 125.06 151.68 125.44 150.32 125.87 148.97 C 126.31 149.47 127.19 150.47 127.63 150.97 C 127.39 152.25 127.17 153.54 126.95 154.82 C 126.52 154.46 125.66 153.74 125.23 153.38 C 120.62 153.71 115.96 153.23 111.49 152.03 C 115.18 150.36 119.15 153.15 122.90 151.81 L 122.73 151.45 C 119.71 150.40 116.19 150.98 113.49 149.02 Z" />
<path fill="#f4f3f0" opacity="1.00" d=" M 125.96 156.56 C 126.46 156.59 127.45 156.65 127.95 156.69 C 127.86 158.74 127.56 160.80 126.68 162.69 C 125.81 160.74 125.68 158.64 125.96 156.56 Z" />
<path fill="#f4f3f0" opacity="1.00" d=" M 97.82 201.41 C 109.40 203.21 121.18 203.51 132.80 201.81 C 134.10 201.98 135.39 202.17 136.68 202.37 C 136.76 203.76 136.84 205.15 136.93 206.54 C 131.89 207.93 126.59 209.07 121.43 207.58 C 113.67 205.14 105.18 205.03 97.82 201.41 Z" />
</g>
<g id="#8e461cff">
<path fill="#8e461c" opacity="1.00" d=" M 156.63 107.72 C 158.50 107.55 160.15 108.47 161.77 109.28 C 161.92 108.22 162.07 107.16 162.22 106.10 C 163.76 108.75 165.43 111.33 167.13 113.88 C 164.09 114.01 161.48 112.41 158.86 111.09 L 158.77 111.87 C 157.93 110.98 157.05 110.13 156.18 109.27 C 156.29 108.88 156.52 108.11 156.63 107.72 Z" />
</g>
<g id="#6d6966ff">
<path fill="#6d6966" opacity="1.00" d=" M 193.75 108.15 C 194.59 108.09 196.28 107.98 197.12 107.93 C 195.80 110.72 194.44 113.49 193.26 116.35 C 191.72 114.54 188.78 113.48 188.39 110.97 C 190.07 110.95 191.59 111.82 193.19 112.21 C 192.14 111.39 191.10 110.57 190.06 109.75 C 191.21 108.03 193.22 110.42 194.65 110.45 L 194.19 109.31 L 193.75 108.15 Z" />
<path fill="#6d6966" opacity="1.00" d=" M 109.74 211.79 C 114.19 211.16 118.61 210.33 123.06 209.72 C 123.15 209.89 123.34 210.23 123.43 210.40 C 119.91 211.25 116.32 211.80 112.75 212.36 C 118.70 213.79 124.92 214.87 131.03 214.00 C 134.91 213.04 138.62 211.45 142.28 209.85 C 143.00 211.48 143.28 213.30 141.36 214.16 C 141.29 213.63 141.13 212.55 141.05 212.02 C 134.99 214.41 128.40 215.57 122.67 218.71 C 128.38 219.31 134.01 217.94 139.18 215.62 C 141.79 219.52 136.83 222.99 134.72 225.90 C 134.97 226.42 135.47 227.46 135.72 227.98 C 135.33 228.82 134.94 229.66 134.56 230.51 C 132.70 230.92 130.85 231.35 128.97 231.67 C 129.68 230.53 130.39 229.40 131.10 228.27 C 127.24 228.90 123.39 229.55 119.61 230.52 C 121.02 230.97 122.44 231.42 123.86 231.87 C 124.47 232.23 125.67 232.94 126.28 233.30 C 126.19 233.61 126.01 234.24 125.93 234.56 C 122.58 233.26 118.90 234.12 115.87 235.80 C 115.78 235.76 115.60 235.69 115.51 235.65 C 114.93 234.87 114.36 234.09 113.79 233.31 C 116.34 233.38 118.88 233.15 121.40 232.77 C 118.44 231.11 114.02 231.80 111.84 229.23 C 119.22 228.67 127.26 228.91 134.21 225.49 C 127.29 225.51 120.29 225.73 113.46 224.30 C 120.71 222.98 128.35 225.54 135.58 223.54 C 137.25 221.82 137.99 219.45 138.97 217.32 C 133.34 218.81 127.82 221.10 121.88 220.93 C 121.75 220.53 121.49 219.74 121.36 219.34 C 121.23 218.92 120.96 218.08 120.83 217.66 C 122.73 216.97 124.60 216.20 126.45 215.37 C 121.26 214.76 115.99 214.63 110.89 213.38 C 111.14 213.08 111.65 212.49 111.90 212.19 C 111.36 212.09 110.28 211.89 109.74 211.79 Z" />
</g>
<g id="#270f0eff">
<path fill="#270f0e" opacity="1.00" d=" M 99.06 110.97 C 99.92 110.25 100.79 109.54 101.66 108.84 C 101.46 112.75 101.35 116.68 101.94 120.56 C 103.43 118.06 104.56 115.34 106.27 112.97 L 107.42 112.67 C 107.02 114.91 108.67 118.89 105.74 119.70 L 105.22 119.45 C 104.44 120.59 103.59 121.70 102.58 122.65 C 102.26 122.69 101.62 122.77 101.30 122.81 C 101.06 120.96 100.83 119.12 100.61 117.28 C 99.39 117.15 98.18 117.02 96.97 116.89 C 97.53 114.87 98.25 112.90 99.06 110.97 Z" />
<path fill="#270f0e" opacity="1.00" d=" M 90.77 119.89 C 91.59 118.20 92.54 116.57 93.52 114.97 C 93.94 116.65 94.31 118.34 94.81 119.99 C 95.14 120.23 95.80 120.71 96.13 120.94 C 96.48 121.19 97.20 121.68 97.55 121.93 L 96.67 121.78 C 96.53 123.87 96.48 125.96 96.40 128.05 C 94.99 125.46 93.89 122.71 92.86 119.95 C 92.65 120.31 92.22 121.03 92.01 121.40 C 91.70 121.02 91.08 120.27 90.77 119.89 Z" />
</g>
<g id="#cf9883ff">
<path fill="#cf9883" opacity="1.00" d=" M 83.80 110.56 C 84.03 110.32 84.51 109.83 84.74 109.58 L 85.00 110.33 C 84.30 115.36 83.18 120.36 80.99 124.98 C 80.42 125.64 79.83 126.28 79.21 126.90 C 80.49 121.39 82.98 116.21 83.80 110.56 Z" />
<path fill="#cf9883" opacity="1.00" d=" M 109.87 153.44 C 114.52 154.50 119.27 155.08 124.03 155.38 C 124.00 156.41 123.95 157.45 123.90 158.49 C 120.53 158.75 117.28 159.80 113.92 160.05 C 111.82 159.79 109.94 158.76 108.02 157.94 C 107.64 157.46 106.88 156.48 106.50 155.99 C 107.20 154.65 108.49 153.92 109.87 153.44 Z" />
</g>
<g id="#d07640ff">
<path fill="#d07640" opacity="1.00" d=" M 156.18 109.27 C 157.05 110.13 157.93 110.98 158.77 111.87 C 159.66 116.12 161.48 120.11 162.13 124.41 L 161.71 125.34 C 160.17 124.05 158.65 122.74 157.24 121.31 C 156.99 121.06 156.75 120.80 156.51 120.55 C 157.32 117.95 156.54 115.36 155.47 112.98 C 155.36 117.66 155.58 122.35 155.12 127.02 C 154.53 126.76 153.36 126.25 152.77 125.99 C 153.54 120.34 153.80 114.55 156.18 109.27 Z" />
</g>
<g id="#cb8f75ff">
<path fill="#cb8f75" opacity="1.00" d=" M 155.12 127.02 C 155.58 122.35 155.36 117.66 155.47 112.98 C 156.54 115.36 157.32 117.95 156.51 120.55 C 156.75 120.80 156.99 121.06 157.24 121.31 C 155.88 125.95 157.22 131.32 154.15 135.41 C 153.79 133.21 153.48 131.01 153.14 128.82 C 153.05 128.11 152.86 126.70 152.77 125.99 C 153.36 126.25 154.53 126.76 155.12 127.02 Z" />
<path fill="#cb8f75" opacity="1.00" d=" M 108.02 157.94 C 109.94 158.76 111.82 159.79 113.92 160.05 C 117.28 159.80 120.53 158.75 123.90 158.49 C 123.59 162.26 123.34 166.04 123.62 169.82 C 121.29 169.54 118.45 170.19 116.69 168.25 C 113.51 165.07 110.96 161.34 108.02 157.94 Z" />
</g>
<g id="#c9c9c9ff">
<path fill="#c9c9c9" opacity="1.00" d=" M 186.34 113.69 C 187.42 114.62 188.51 115.55 189.53 116.55 C 191.22 117.58 191.79 118.90 191.23 120.52 C 188.69 119.46 184.14 116.96 186.34 113.69 Z" />
</g>
<g id="#010106ff">
<path fill="#010106" opacity="1.00" d=" M 96.97 116.89 C 98.18 117.02 99.39 117.15 100.61 117.28 C 100.83 119.12 101.06 120.96 101.30 122.81 C 101.62 122.77 102.26 122.69 102.58 122.65 C 103.72 122.52 104.87 122.40 106.01 122.27 C 106.26 121.79 106.75 120.84 107.00 120.36 C 107.23 119.90 107.71 119.00 107.95 118.55 C 109.47 119.54 111.01 120.50 112.50 121.54 C 112.95 122.23 113.84 123.60 114.28 124.28 C 110.66 124.45 106.92 123.76 103.40 124.81 L 102.28 125.39 C 100.73 124.20 99.18 123.01 97.55 121.93 C 97.20 121.68 96.48 121.19 96.13 120.94 C 96.39 119.59 96.66 118.23 96.97 116.89 Z" />
</g>
<g id="#5c2e11ff">
<path fill="#5c2e11" opacity="1.00" d=" M 89.24 118.19 C 89.76 118.75 90.27 119.31 90.77 119.89 C 91.08 120.27 91.70 121.02 92.01 121.40 C 91.57 122.19 91.17 123.01 90.80 123.84 C 88.88 127.19 88.29 131.05 88.76 134.86 C 88.44 134.88 87.80 134.92 87.48 134.94 C 89.19 129.80 86.71 124.28 87.62 118.96 C 88.03 118.77 88.83 118.39 89.24 118.19 Z" />
</g>
<g id="#d8d1cbff">
<path fill="#d8d1cb" opacity="1.00" d=" M 139.07 125.69 C 144.70 125.66 149.20 121.78 153.04 118.11 C 152.56 119.10 152.07 120.09 151.65 121.10 C 148.32 126.65 141.65 127.27 135.92 128.39 C 136.96 127.48 138.01 126.58 139.07 125.69 Z" />
<path fill="#d8d1cb" opacity="1.00" d=" M 92.69 192.39 C 91.88 191.11 91.31 189.72 91.18 188.21 C 91.82 188.44 93.10 188.90 93.75 189.14 C 97.64 190.00 101.60 190.52 105.49 191.42 C 105.52 192.01 105.60 193.20 105.64 193.79 C 105.22 194.07 104.36 194.62 103.93 194.90 C 101.44 194.27 98.95 193.64 96.44 193.13 C 95.20 192.85 93.95 192.60 92.69 192.39 Z" />
</g>
<g id="#f7d709ff">
<path fill="#f7d709" opacity="1.00" d=" M 105.22 119.45 L 105.74 119.70 C 106.06 119.87 106.68 120.19 107.00 120.36 C 106.75 120.84 106.26 121.79 106.01 122.27 C 104.87 122.40 103.72 122.52 102.58 122.65 C 103.59 121.70 104.44 120.59 105.22 119.45 Z" />
<path fill="#f7d709" opacity="1.00" d=" M 131.03 123.61 C 135.01 120.75 139.74 118.09 144.79 118.45 C 142.46 123.82 136.10 124.41 131.03 123.61 Z" />
</g>
<g id="#2e2e2eff">
<path fill="#2e2e2e" opacity="1.00" d=" M 118.85 118.89 C 119.76 125.36 121.32 131.84 121.18 138.41 C 119.99 134.70 120.16 130.74 119.23 126.97 C 118.95 126.62 118.38 125.94 118.09 125.60 C 114.55 125.21 110.98 125.37 107.43 125.19 C 106.09 125.04 104.74 124.91 103.40 124.81 C 106.92 123.76 110.66 124.45 114.28 124.28 C 113.84 123.60 112.95 122.23 112.50 121.54 C 114.89 121.24 116.87 122.68 118.80 123.86 C 118.83 122.20 118.87 120.54 118.85 118.89 Z" />
<path fill="#2e2e2e" opacity="1.00" d=" M 137.70 141.90 C 139.76 140.50 141.85 139.13 143.97 137.80 L 144.80 139.02 C 143.12 140.21 141.47 143.28 144.47 143.99 C 144.53 145.35 144.62 146.70 144.72 148.06 C 145.10 151.43 144.97 154.82 144.79 158.21 C 144.62 155.66 144.43 153.11 144.20 150.57 C 141.06 152.87 143.15 157.52 142.77 160.87 C 141.48 161.67 140.18 162.48 138.91 163.31 L 139.68 162.03 C 140.34 161.30 141.50 160.90 141.75 159.86 C 142.14 156.01 141.59 152.13 140.53 148.42 C 141.15 148.50 142.38 148.66 142.99 148.74 C 142.93 148.15 142.80 146.96 142.74 146.37 C 141.93 147.03 141.12 147.71 140.33 148.39 L 140.24 147.31 C 140.24 146.44 140.24 144.72 140.25 143.86 C 139.40 143.21 138.55 142.55 137.70 141.90 M 142.18 143.89 C 142.08 143.43 141.89 142.50 141.79 142.04 C 139.71 141.56 141.19 146.55 142.18 143.89 Z" />
<path fill="#2e2e2e" opacity="1.00" d=" M 139.06 151.39 L 139.67 151.83 C 140.10 152.15 140.95 152.79 141.38 153.11 C 139.52 155.16 137.29 156.86 134.80 158.07 C 134.69 158.78 134.46 160.18 134.34 160.89 C 133.56 160.58 132.78 160.28 132.00 159.98 C 131.43 161.07 130.84 162.14 130.20 163.19 C 129.56 162.38 128.92 161.57 128.28 160.76 C 127.96 161.53 127.32 163.06 127.00 163.83 C 126.92 163.55 126.76 162.98 126.68 162.69 C 127.56 160.80 127.86 158.74 127.95 156.69 L 129.01 156.75 C 127.97 158.62 129.89 159.90 130.93 161.07 C 131.24 159.63 131.50 158.19 131.73 156.75 C 132.36 157.19 133.62 158.08 134.26 158.53 C 134.30 156.92 134.30 155.31 134.27 153.70 L 134.90 154.17 C 135.23 154.43 135.90 154.96 136.24 155.23 C 136.50 154.55 137.02 153.19 137.28 152.51 L 137.60 152.80 C 137.89 152.97 138.47 153.30 138.77 153.47 C 138.84 152.95 138.99 151.91 139.06 151.39 Z" />
<path fill="#2e2e2e" opacity="1.00" d=" M 168.07 174.34 C 169.95 173.16 172.21 172.77 174.28 173.72 C 180.31 176.09 185.62 180.01 191.80 182.07 C 191.65 181.54 191.35 180.48 191.19 179.95 C 193.16 180.35 195.12 180.78 197.08 181.23 C 195.69 182.42 194.31 183.61 192.93 184.81 C 193.58 185.57 194.22 186.34 194.87 187.11 C 194.90 191.42 195.02 195.74 195.00 200.05 C 195.05 204.44 192.86 208.38 191.52 212.45 C 191.74 212.96 192.18 213.97 192.39 214.48 C 191.61 215.05 190.80 215.59 189.99 216.11 C 183.57 215.74 177.69 212.40 173.07 208.09 C 166.89 213.39 158.84 216.26 150.81 217.08 C 156.04 206.42 161.40 195.77 167.66 185.66 C 168.22 184.54 169.07 183.45 169.09 182.14 C 168.24 180.70 167.15 179.43 166.12 178.13 C 166.77 176.86 167.40 175.59 168.07 174.34 Z" />
</g>
<g id="#a21714ff">
<path fill="#a21714" opacity="1.00" d=" M 135.92 128.39 C 141.65 127.27 148.32 126.65 151.65 121.10 C 152.41 122.76 152.57 124.44 152.14 126.15 C 146.97 130.67 139.81 129.52 133.51 129.66 C 133.97 129.37 134.88 128.78 135.33 128.49 C 135.48 128.47 135.77 128.42 135.92 128.39 Z" />
</g>
<g id="#7d6659ff">
<path fill="#7d6659" opacity="1.00" d=" M 162.13 124.41 C 164.41 124.18 162.89 127.31 161.71 125.34 L 162.13 124.41 Z" />
</g>
<g id="#836157ff">
<path fill="#836157" opacity="1.00" d=" M 107.43 125.19 C 110.98 125.37 114.55 125.21 118.09 125.60 C 116.67 125.96 115.25 126.33 113.84 126.70 C 111.46 127.28 109.12 128.00 106.76 128.62 C 106.08 128.80 104.72 129.14 104.04 129.31 L 103.28 128.91 C 104.72 127.74 106.18 126.57 107.43 125.19 Z" />
</g>
<g id="#d9b0aaff">
<path fill="#d9b0aa" opacity="1.00" d=" M 113.84 126.70 C 115.25 126.33 116.67 125.96 118.09 125.60 C 118.38 125.94 118.95 126.62 119.23 126.97 C 120.16 130.74 119.99 134.70 121.18 138.41 C 121.33 138.75 121.65 139.43 121.81 139.77 C 122.57 141.48 123.37 143.24 123.46 145.15 C 122.57 146.27 121.46 146.54 120.12 145.98 C 119.14 144.65 118.07 143.39 116.80 142.34 C 117.13 144.02 117.51 145.70 117.92 147.36 C 110.71 147.65 105.73 141.76 99.70 138.83 C 99.14 136.09 99.00 133.30 99.17 130.52 C 100.79 130.12 102.42 129.72 104.04 129.31 C 104.72 129.14 106.08 128.80 106.76 128.62 C 104.57 131.37 104.54 135.19 105.66 138.38 C 107.85 141.64 111.83 143.26 115.70 142.93 C 115.71 137.65 115.88 132.36 116.83 127.17 C 116.08 127.05 114.58 126.81 113.84 126.70 Z" />
</g>
<g id="#9c8b81ff">
<path fill="#9c8b81" opacity="1.00" d=" M 128.54 126.47 C 131.64 124.64 135.62 126.06 139.07 125.69 C 138.01 126.58 136.96 127.48 135.92 128.39 C 135.77 128.42 135.48 128.47 135.33 128.49 C 133.80 128.61 131.77 128.19 130.93 129.89 C 129.34 132.68 128.27 135.74 126.72 138.56 C 126.86 134.54 126.38 130.04 128.54 126.47 Z" />
</g>
<g id="#e1dcd8ff">
<path fill="#e1dcd8" opacity="1.00" d=" M 133.51 129.66 C 139.81 129.52 146.97 130.67 152.14 126.15 C 151.02 129.32 147.97 130.97 145.13 132.37 C 141.41 132.31 137.69 132.24 133.97 132.45 C 139.28 133.00 144.74 134.06 149.97 132.37 C 148.81 134.99 147.47 137.52 146.06 140.02 C 147.19 139.45 148.32 138.88 149.46 138.33 C 147.52 141.38 145.99 144.68 144.72 148.06 C 144.62 146.70 144.53 145.35 144.47 143.99 C 141.47 143.28 143.12 140.21 144.80 139.02 L 143.97 137.80 C 141.85 139.13 139.76 140.50 137.70 141.90 C 138.55 142.55 139.40 143.21 140.25 143.86 C 140.24 144.72 140.24 146.44 140.24 147.31 C 138.05 146.67 137.38 148.26 137.05 150.12 C 134.59 149.52 135.07 146.46 134.30 144.60 C 133.66 144.51 132.39 144.32 131.75 144.23 C 134.25 146.04 134.97 149.07 134.42 152.02 C 133.71 151.88 132.28 151.60 131.56 151.46 C 131.58 149.89 131.58 148.33 131.55 146.77 C 130.75 146.51 130.03 145.65 129.19 145.65 C 128.44 146.67 127.63 147.63 126.75 148.53 C 126.43 145.21 126.47 141.87 126.72 138.56 C 128.27 135.74 129.34 132.68 130.93 129.89 C 131.77 128.19 133.80 128.61 135.33 128.49 C 134.88 128.78 133.97 129.37 133.51 129.66 M 135.35 142.40 C 134.68 143.87 136.72 145.33 137.93 145.54 C 139.08 144.11 137.02 141.03 135.35 142.40 Z" />
<path fill="#e1dcd8" opacity="1.00" d=" M 115.87 235.80 C 118.90 234.12 122.58 233.26 125.93 234.56 C 123.57 236.21 120.78 237.07 117.90 236.65 C 117.39 236.44 116.38 236.02 115.87 235.80 Z" />
</g>
<g id="#debbb9ff">
<path fill="#debbb9" opacity="1.00" d=" M 106.76 128.62 C 109.12 128.00 111.46 127.28 113.84 126.70 C 114.58 126.81 116.08 127.05 116.83 127.17 C 115.88 132.36 115.71 137.65 115.70 142.93 C 111.83 143.26 107.85 141.64 105.66 138.38 C 104.54 135.19 104.57 131.37 106.76 128.62 Z" />
</g>
<g id="#7e7e80ff">
<path fill="#7e7e80" opacity="1.00" d=" M 184.18 126.22 C 185.12 126.38 187.00 126.69 187.93 126.85 C 187.48 128.60 186.75 130.28 185.73 131.77 C 185.29 132.23 184.41 133.13 183.97 133.59 C 183.27 132.13 182.57 130.70 181.95 129.21 C 182.23 128.92 182.80 128.32 183.08 128.03 C 183.94 128.34 184.81 128.65 185.67 128.96 C 185.30 128.28 184.56 126.91 184.18 126.22 Z" />
<path fill="#7e7e80" opacity="1.00" d=" M 166.45 174.47 C 166.54 172.84 167.13 170.85 169.04 170.60 C 175.89 171.11 181.68 176.82 188.70 176.24 C 191.83 176.86 194.91 177.68 198.03 178.38 C 197.88 178.69 197.58 179.29 197.43 179.59 C 202.64 180.50 207.85 181.49 213.10 182.14 C 215.36 182.37 217.59 183.02 219.46 184.35 C 219.08 184.71 218.30 185.44 217.92 185.81 C 211.16 183.48 203.96 183.09 197.08 181.23 C 195.12 180.78 193.16 180.35 191.19 179.95 C 191.35 180.48 191.65 181.54 191.80 182.07 C 185.62 180.01 180.31 176.09 174.28 173.72 C 172.21 172.77 169.95 173.16 168.07 174.34 L 166.45 174.47 Z" />
</g>
<g id="#8d8d8dff">
<path fill="#8d8d8d" opacity="1.00" d=" M 177.18 134.13 C 178.93 135.30 180.62 136.57 182.34 137.79 L 181.70 137.98 C 181.76 138.50 181.88 139.52 181.94 140.03 L 181.73 140.89 C 180.52 141.20 179.32 141.52 178.13 141.87 C 179.01 143.02 179.87 144.18 180.70 145.36 C 179.01 144.84 177.33 144.26 175.77 143.40 L 177.71 143.23 C 176.37 142.07 174.97 140.98 173.54 139.94 C 173.91 138.62 174.50 137.41 175.31 136.31 C 176.81 137.63 178.30 138.97 180.05 139.98 C 180.27 137.79 177.93 136.09 177.18 134.13 M 174.96 138.23 C 174.66 139.60 175.22 140.18 176.63 139.98 C 176.91 138.62 176.35 138.04 174.96 138.23 Z" />
<path fill="#8d8d8d" opacity="1.00" d=" M 61.99 174.88 C 64.28 174.07 66.44 172.78 68.87 172.44 C 69.27 172.44 70.07 172.43 70.48 172.42 C 65.88 175.69 60.59 177.80 55.75 180.68 C 54.20 181.14 52.66 181.59 51.11 182.05 C 51.75 181.34 52.39 180.63 53.03 179.92 C 50.89 180.31 48.75 180.74 46.63 181.23 C 40.83 182.59 34.92 183.43 29.08 184.61 L 28.45 184.73 C 28.40 184.16 28.30 183.03 28.26 182.46 C 39.72 181.09 51.10 178.76 61.99 174.88 Z" />
</g>
<g id="#dededeff">
<path fill="#dedede" opacity="1.00" d=" M 174.96 138.23 C 176.35 138.04 176.91 138.62 176.63 139.98 C 175.22 140.18 174.66 139.60 174.96 138.23 Z" />
</g>
<g id="#8b8b8bff">
<path fill="#8b8b8b" opacity="1.00" d=" M 97.79 139.09 C 98.27 139.02 99.23 138.89 99.70 138.83 C 105.73 141.76 110.71 147.65 117.92 147.36 C 117.51 145.70 117.13 144.02 116.80 142.34 C 118.07 143.39 119.14 144.65 120.12 145.98 L 120.48 146.45 C 121.32 147.51 122.19 148.55 123.05 149.60 C 119.86 149.44 116.68 149.09 113.49 149.02 C 116.19 150.98 119.71 150.40 122.73 151.45 L 122.90 151.81 C 119.15 153.15 115.18 150.36 111.49 152.03 C 115.96 153.23 120.62 153.71 125.23 153.38 C 125.66 153.74 126.52 154.46 126.95 154.82 C 127.17 153.54 127.39 152.25 127.63 150.97 C 127.82 150.19 128.04 149.43 128.29 148.67 C 128.76 150.61 129.54 152.45 130.47 154.21 C 129.97 155.05 129.49 155.90 129.01 156.75 L 127.95 156.69 C 127.45 156.65 126.46 156.59 125.96 156.56 C 125.68 158.64 125.81 160.74 126.68 162.69 C 126.76 162.98 126.92 163.55 127.00 163.83 L 126.87 164.12 C 126.43 164.38 125.56 164.90 125.12 165.16 L 125.18 165.96 C 125.28 168.68 125.25 171.40 125.30 174.12 C 127.07 173.66 128.79 172.92 129.99 171.47 C 133.08 168.19 135.27 163.76 139.68 162.03 L 138.91 163.31 C 135.85 166.81 133.11 170.57 129.96 173.99 C 128.50 175.86 125.98 175.10 123.96 175.18 C 123.81 173.92 123.67 172.67 123.53 171.41 C 121.03 171.12 117.99 171.87 116.01 169.95 C 111.13 165.39 107.64 159.58 102.86 154.91 C 101.93 153.61 100.99 152.30 100.05 151.00 C 99.77 152.42 99.47 153.85 99.22 155.29 C 99.04 152.81 99.18 150.34 99.48 147.88 C 101.27 150.08 103.19 152.16 105.13 154.22 C 105.58 154.81 106.04 155.40 106.50 155.99 C 106.88 156.48 107.64 157.46 108.02 157.94 C 110.96 161.34 113.51 165.07 116.69 168.25 C 118.45 170.19 121.29 169.54 123.62 169.82 C 123.34 166.04 123.59 162.26 123.90 158.49 C 123.95 157.45 124.00 156.41 124.03 155.38 C 119.27 155.08 114.52 154.50 109.87 153.44 C 105.57 148.90 102.27 143.50 97.79 139.09 M 106.68 146.71 C 107.45 149.02 109.13 150.80 111.10 152.15 C 110.73 149.65 108.79 147.87 106.68 146.71 M 110.99 148.00 C 111.62 148.64 111.62 148.64 110.99 148.00 C 110.37 147.36 110.37 147.36 110.99 148.00 Z" />
</g>
<g id="#504f4dff">
<path fill="#504f4d" opacity="1.00" d=" M 170.75 142.11 C 170.99 141.89 171.48 141.47 171.72 141.26 C 173.09 141.94 174.41 142.70 175.77 143.40 C 177.33 144.26 179.01 144.84 180.70 145.36 C 179.87 144.18 179.01 143.02 178.13 141.87 C 179.32 141.52 180.52 141.20 181.73 140.89 C 180.91 143.19 180.77 145.63 180.94 148.06 C 180.59 147.95 179.90 147.72 179.56 147.61 C 178.13 146.66 176.75 145.64 175.30 144.73 C 173.79 143.83 172.26 142.98 170.75 142.11 Z" />
<path fill="#504f4d" opacity="1.00" d=" M 126.28 233.30 C 128.47 233.54 130.67 233.27 132.86 233.16 C 131.72 234.52 130.59 235.88 129.48 237.26 C 130.57 236.96 131.65 236.64 132.73 236.31 L 131.95 237.79 C 132.97 237.69 135.00 237.47 136.02 237.36 C 133.97 238.83 131.40 238.57 129.10 238.01 C 125.53 238.36 121.94 238.14 118.38 237.78 L 117.90 236.65 C 120.78 237.07 123.57 236.21 125.93 234.56 C 126.01 234.24 126.19 233.61 126.28 233.30 Z" />
</g>
<g id="#656360ff">
<path fill="#656360" opacity="1.00" d=" M 135.35 142.40 C 137.02 141.03 139.08 144.11 137.93 145.54 C 136.72 145.33 134.68 143.87 135.35 142.40 Z" />
</g>
<g id="#eae6e3ff">
<path fill="#eae6e3" opacity="1.00" d=" M 142.18 143.89 C 141.19 146.55 139.71 141.56 141.79 142.04 C 141.89 142.50 142.08 143.43 142.18 143.89 Z" />
<path fill="#eae6e3" opacity="1.00" d=" M 68.87 172.44 C 70.60 171.82 72.45 171.48 74.06 170.57 C 76.38 172.95 79.30 169.79 81.95 170.88 C 83.64 172.13 83.88 174.40 84.73 176.19 C 88.13 184.54 92.00 192.70 95.00 201.21 C 95.17 201.68 95.50 202.62 95.67 203.08 C 99.25 211.59 102.67 220.17 106.40 228.61 C 107.57 231.37 109.22 233.89 110.95 236.32 L 110.91 236.84 C 109.75 237.67 108.66 237.57 107.63 236.52 L 107.05 236.14 C 98.76 218.69 90.67 201.16 82.74 183.54 C 80.75 179.53 79.40 175.17 76.68 171.56 C 76.67 172.37 76.65 174.00 76.65 174.81 C 75.30 172.58 72.92 172.11 70.48 172.42 C 70.07 172.43 69.27 172.44 68.87 172.44 Z" />
</g>
<g id="#a9acb7ff">
<path fill="#a9acb7" opacity="1.00" d=" M 166.83 150.68 C 168.14 147.82 169.56 145.02 170.75 142.11 C 172.26 142.98 173.79 143.83 175.30 144.73 C 174.11 146.82 172.33 148.91 172.95 151.49 C 170.92 151.17 168.87 150.91 166.83 150.68 Z" />
</g>
<g id="#aeaeaeff">
<path fill="#aeaeae" opacity="1.00" d=" M 226.01 142.52 C 228.40 144.74 228.28 148.07 228.88 151.03 C 228.97 151.86 229.15 153.51 229.24 154.33 C 228.79 154.36 227.89 154.41 227.44 154.44 C 227.60 155.78 229.75 159.80 226.98 158.83 C 224.24 153.87 225.04 147.86 226.01 142.52 Z" />
</g>
<g id="#919398ff">
<path fill="#919398" opacity="1.00" d=" M 175.30 144.73 C 176.75 145.64 178.13 146.66 179.56 147.61 C 178.21 148.26 176.49 148.60 175.65 149.98 C 174.75 151.55 175.78 153.24 176.80 154.45 C 170.39 158.41 165.05 163.84 158.79 168.03 C 159.18 166.79 159.59 165.55 160.00 164.32 L 160.35 164.40 C 160.73 164.47 161.49 164.63 161.87 164.71 C 166.17 161.42 170.66 158.29 174.37 154.33 C 174.02 153.62 173.31 152.20 172.95 151.49 C 172.33 148.91 174.11 146.82 175.30 144.73 Z" />
</g>
<g id="#d6d5d6ff">
<path fill="#d6d5d6" opacity="1.00" d=" M 106.68 146.71 C 108.79 147.87 110.73 149.65 111.10 152.15 C 109.13 150.80 107.45 149.02 106.68 146.71 Z" />
</g>
<g id="#ced0ccff">
<path fill="#ced0cc" opacity="1.00" d=" M 110.99 148.00 C 110.37 147.36 110.37 147.36 110.99 148.00 Z" />
</g>
<g id="#f0eceaff">
<path fill="#f0ecea" opacity="1.00" d=" M 140.33 148.39 C 141.12 147.71 141.93 147.03 142.74 146.37 C 142.80 146.96 142.93 148.15 142.99 148.74 C 142.38 148.66 141.15 148.50 140.53 148.42 C 141.59 152.13 142.14 156.01 141.75 159.86 C 141.50 160.90 140.34 161.30 139.68 162.03 C 135.27 163.76 133.08 168.19 129.99 171.47 C 128.29 169.72 126.59 167.96 125.18 165.96 L 125.12 165.16 C 125.56 164.90 126.43 164.38 126.87 164.12 L 127.00 163.83 C 127.32 163.06 127.96 161.53 128.28 160.76 C 128.92 161.57 129.56 162.38 130.20 163.19 C 130.84 162.14 131.43 161.07 132.00 159.98 C 132.78 160.28 133.56 160.58 134.34 160.89 C 134.46 160.18 134.69 158.78 134.80 158.07 C 137.29 156.86 139.52 155.16 141.38 153.11 C 140.95 152.79 140.10 152.15 139.67 151.83 C 139.22 150.54 139.44 149.39 140.33 148.39 Z" />
</g>
<g id="#eeeff0ff">
<path fill="#eeeff0" opacity="1.00" d=" M 110.99 148.00 C 111.62 148.64 111.62 148.64 110.99 148.00 Z" />
</g>
<g id="#dab1aaff">
<path fill="#dab1aa" opacity="1.00" d=" M 100.05 151.00 C 100.99 152.30 101.93 153.61 102.86 154.91 C 105.12 160.03 109.53 164.23 110.60 169.82 C 108.95 173.63 104.05 173.40 100.64 174.31 C 96.94 172.40 98.27 168.22 98.54 164.89 C 98.13 164.55 97.32 163.85 96.92 163.50 C 97.34 163.49 98.19 163.48 98.62 163.47 C 98.79 160.74 98.85 158.00 99.22 155.29 C 99.47 153.85 99.77 152.42 100.05 151.00 Z" />
</g>
<g id="#bab8b6ff">
<path fill="#bab8b6" opacity="1.00" d=" M 137.60 152.80 C 137.38 151.14 137.87 150.67 139.06 151.39 C 138.99 151.91 138.84 152.95 138.77 153.47 C 138.47 153.30 137.89 152.97 137.60 152.80 Z" />
</g>
<g id="#dbb4aeff">
<path fill="#dbb4ae" opacity="1.00" d=" M 142.77 160.87 C 143.15 157.52 141.06 152.87 144.20 150.57 C 144.43 153.11 144.62 155.66 144.79 158.21 C 144.84 159.78 144.90 161.35 144.97 162.92 C 145.04 165.44 145.38 167.95 145.88 170.42 C 145.80 170.92 145.63 171.93 145.55 172.44 C 144.22 168.69 143.23 164.82 142.77 160.87 Z" />
<path fill="#dbb4ae" opacity="1.00" d=" M 96.95 179.44 C 98.11 179.22 99.28 179.00 100.44 178.78 C 104.99 179.08 109.56 179.03 114.08 179.64 C 116.86 179.79 118.65 182.16 121.02 183.29 C 122.72 183.40 124.15 182.25 125.66 181.63 C 129.07 179.75 133.03 179.53 136.78 178.79 C 138.51 178.90 140.25 179.08 141.98 179.26 C 141.00 183.32 138.78 186.88 136.71 190.47 C 133.47 191.05 130.26 191.88 126.99 192.32 C 118.08 193.57 109.24 191.20 100.58 189.42 C 99.86 185.93 98.03 182.81 96.95 179.44 Z" />
</g>
<g id="#cecfd4ff">
<path fill="#cecfd4" opacity="1.00" d=" M 166.83 150.68 C 168.87 150.91 170.92 151.17 172.95 151.49 C 173.31 152.20 174.02 153.62 174.37 154.33 C 170.66 158.29 166.17 161.42 161.87 164.71 C 161.49 164.63 160.73 164.47 160.35 164.40 C 162.50 159.82 164.65 155.24 166.83 150.68 Z" />
</g>
<g id="#b6b5b3ff">
<path fill="#b6b5b3" opacity="1.00" d=" M 134.90 154.17 C 134.29 152.58 136.16 150.52 137.28 152.51 C 137.02 153.19 136.50 154.55 136.24 155.23 C 135.90 154.96 135.23 154.43 134.90 154.17 Z" />
</g>
<g id="#bc998fff">
<path fill="#bc998f" opacity="1.00" d=" M 102.86 154.91 C 107.64 159.58 111.13 165.39 116.01 169.95 C 117.99 171.87 121.03 171.12 123.53 171.41 C 123.67 172.67 123.81 173.92 123.96 175.18 C 125.98 175.10 128.50 175.86 129.96 173.99 C 133.11 170.57 135.85 166.81 138.91 163.31 C 140.18 162.48 141.48 161.67 142.77 160.87 C 143.23 164.82 144.22 168.69 145.55 172.44 C 145.37 173.87 146.14 175.78 144.75 176.78 C 142.25 177.94 139.45 178.20 136.78 178.79 C 133.03 179.53 129.07 179.75 125.66 181.63 C 124.15 182.25 122.72 183.40 121.02 183.29 C 118.65 182.16 116.86 179.79 114.08 179.64 C 109.56 179.03 104.99 179.08 100.44 178.78 L 101.55 178.22 C 102.59 178.03 103.63 177.86 104.68 177.70 C 103.32 176.58 101.97 175.45 100.64 174.31 C 104.05 173.40 108.95 173.63 110.60 169.82 C 109.53 164.23 105.12 160.03 102.86 154.91 Z" />
</g>
<g id="#cecfd5ff">
<path fill="#cecfd5" opacity="1.00" d=" M 158.79 168.03 C 165.05 163.84 170.39 158.41 176.80 154.45 C 177.45 154.83 178.77 155.60 179.42 155.98 C 173.92 160.73 168.10 165.08 162.74 169.99 C 161.05 170.67 159.26 171.03 157.47 171.29 C 157.63 170.07 158.07 168.98 158.79 168.03 Z" />
</g>
<g id="#aaacb6ff">
<path fill="#aaacb6" opacity="1.00" d=" M 179.42 155.98 C 182.18 157.47 185.10 158.63 188.05 159.66 L 186.77 159.95 C 186.30 165.20 187.58 170.43 186.90 175.67 C 182.25 174.30 177.81 172.36 173.27 170.67 C 169.90 169.31 166.24 170.53 162.74 169.99 C 168.10 165.08 173.92 160.73 179.42 155.98 Z" />
</g>
<g id="#dddee2ff">
<path fill="#dddee2" opacity="1.00" d=" M 186.77 159.95 L 188.05 159.66 C 193.28 161.44 198.64 162.80 203.90 164.48 C 201.87 169.08 200.20 173.84 198.03 178.38 C 194.91 177.68 191.83 176.86 188.70 176.24 C 188.25 176.10 187.35 175.82 186.90 175.67 C 187.58 170.43 186.30 165.20 186.77 159.95 Z" />
</g>
<g id="#d7ada2ff">
<path fill="#d7ada2" opacity="1.00" d=" M 144.97 162.92 C 148.45 164.18 150.62 167.41 153.81 169.15 C 155.02 169.89 156.25 170.58 157.47 171.29 C 158.08 171.64 159.28 172.35 159.88 172.70 L 159.32 173.93 C 155.61 172.77 151.84 171.80 148.04 171.03 C 147.77 171.53 147.25 172.51 146.98 173.00 C 146.71 172.35 146.16 171.06 145.88 170.42 C 145.38 167.95 145.04 165.44 144.97 162.92 Z" />
</g>
<g id="#b68d7eff">
<path fill="#b68d7e" opacity="1.00" d=" M 95.93 164.54 C 96.18 164.28 96.67 163.76 96.92 163.50 C 97.32 163.85 98.13 164.55 98.54 164.89 C 98.27 168.22 96.94 172.40 100.64 174.31 C 101.97 175.45 103.32 176.58 104.68 177.70 C 103.63 177.86 102.59 178.03 101.55 178.22 C 96.39 178.29 91.24 176.98 86.10 177.85 L 85.84 177.89 C 85.41 176.67 84.98 175.47 84.50 174.28 C 89.68 172.97 96.20 170.97 97.35 164.91 L 95.93 164.54 Z" />
</g>
<g id="#d9d4cdff">
<path fill="#d9d4cd" opacity="1.00" d=" M 125.18 165.96 C 126.59 167.96 128.29 169.72 129.99 171.47 C 128.79 172.92 127.07 173.66 125.30 174.12 C 125.25 171.40 125.28 168.68 125.18 165.96 Z" />
<path fill="#d9d4cd" opacity="1.00" d=" M 129.25 192.84 C 137.30 191.35 145.29 189.46 153.36 188.15 C 151.49 189.49 149.33 190.30 147.16 191.00 C 141.46 192.88 135.17 195.19 129.25 192.84 Z" />
</g>
<g id="#3d3d3dff">
<path fill="#3d3d3d" opacity="1.00" d=" M 157.47 171.29 C 159.26 171.03 161.05 170.67 162.74 169.99 C 166.24 170.53 169.90 169.31 173.27 170.67 C 177.81 172.36 182.25 174.30 186.90 175.67 C 187.35 175.82 188.25 176.10 188.70 176.24 C 181.68 176.82 175.89 171.11 169.04 170.60 C 167.13 170.85 166.54 172.84 166.45 174.47 L 168.07 174.34 C 167.40 175.59 166.77 176.86 166.12 178.13 C 167.15 179.43 168.24 180.70 169.09 182.14 C 169.07 183.45 168.22 184.54 167.66 185.66 C 161.40 195.77 156.04 206.42 150.81 217.08 C 147.86 223.81 143.94 230.07 140.98 236.81 C 139.32 236.97 137.66 237.15 136.02 237.36 C 146.81 215.66 156.31 193.33 166.72 171.44 C 164.83 171.12 161.90 169.57 161.02 172.22 C 153.11 190.64 145.72 209.29 137.78 227.70 C 136.51 230.79 134.76 233.66 132.73 236.31 C 131.65 236.64 130.57 236.96 129.48 237.26 C 130.59 235.88 131.72 234.52 132.86 233.16 C 130.67 233.27 128.47 233.54 126.28 233.30 C 125.67 232.94 124.47 232.23 123.86 231.87 C 125.56 231.87 127.27 231.82 128.97 231.67 C 130.85 231.35 132.70 230.92 134.56 230.51 C 134.94 229.66 135.33 228.82 135.72 227.98 C 135.47 227.46 134.97 226.42 134.72 225.90 C 136.83 222.99 141.79 219.52 139.18 215.62 C 139.93 215.16 140.66 214.68 141.36 214.16 C 143.28 213.30 143.00 211.48 142.28 209.85 C 143.25 208.71 144.16 207.53 145.08 206.36 C 137.69 206.44 130.68 209.23 123.43 210.40 C 123.34 210.23 123.15 209.89 123.06 209.72 L 122.38 208.43 C 121.70 208.33 120.36 208.13 119.69 208.03 C 120.12 207.92 120.99 207.69 121.43 207.58 C 126.59 209.07 131.89 207.93 136.93 206.54 C 140.15 205.93 143.34 205.03 146.14 203.28 C 146.97 201.54 147.85 199.82 148.74 198.12 C 146.90 198.49 145.06 198.86 143.26 199.35 L 143.48 198.02 C 144.43 197.80 145.38 197.56 146.32 197.29 C 147.54 196.91 148.74 196.47 149.95 196.05 C 150.63 194.33 151.33 192.62 152.03 190.91 C 150.34 191.24 148.64 191.57 146.95 191.90 L 147.16 191.00 C 149.33 190.30 151.49 189.49 153.36 188.15 C 145.29 189.46 137.30 191.35 129.25 192.84 C 127.45 193.24 125.67 193.75 123.88 194.21 C 117.74 193.36 111.56 192.66 105.49 191.42 C 101.60 190.52 97.64 190.00 93.75 189.14 C 94.37 188.99 95.60 188.70 96.22 188.56 C 97.68 188.80 99.13 189.11 100.58 189.42 C 109.24 191.20 118.08 193.57 126.99 192.32 C 130.26 191.88 133.47 191.05 136.71 190.47 C 142.25 189.36 147.71 187.85 153.08 186.13 C 155.93 183.16 156.78 178.88 158.66 175.30 C 158.82 174.96 159.15 174.27 159.32 173.93 L 159.88 172.70 C 159.28 172.35 158.08 171.64 157.47 171.29 Z" />
</g>
<g id="#d4a496ff">
<path fill="#d4a496" opacity="1.00" d=" M 145.88 170.42 C 146.16 171.06 146.71 172.35 146.98 173.00 C 149.40 177.16 154.81 175.17 158.66 175.30 C 156.78 178.88 155.93 183.16 153.08 186.13 C 147.71 187.85 142.25 189.36 136.71 190.47 C 138.78 186.88 141.00 183.32 141.98 179.26 C 140.25 179.08 138.51 178.90 136.78 178.79 C 139.45 178.20 142.25 177.94 144.75 176.78 C 146.14 175.78 145.37 173.87 145.55 172.44 C 145.63 171.93 145.80 170.92 145.88 170.42 Z" />
</g>
<g id="#272727ff">
<path fill="#272727" opacity="1.00" d=" M 46.63 181.23 C 48.75 180.74 50.89 180.31 53.03 179.92 C 52.39 180.63 51.75 181.34 51.11 182.05 C 52.66 181.59 54.20 181.14 55.75 180.68 C 56.24 180.76 57.21 180.91 57.70 180.99 C 56.06 183.88 55.02 187.72 57.42 190.52 C 59.90 191.02 62.44 190.82 64.94 191.17 C 66.03 192.27 66.86 193.59 67.75 194.85 C 63.87 194.95 59.92 194.87 56.21 196.16 C 55.90 200.04 55.54 204.46 58.99 207.12 C 53.98 205.67 48.90 204.11 44.31 201.59 C 43.83 199.69 43.29 196.49 45.64 195.66 C 47.95 194.99 50.39 194.98 52.77 194.74 C 53.05 194.34 53.61 193.53 53.89 193.13 C 50.38 192.64 46.86 192.22 43.34 191.80 C 44.12 188.18 45.49 184.74 46.63 181.23 Z" />
</g>
<g id="#202020ff">
<path fill="#202020" opacity="1.00" d=" M 29.08 184.61 C 34.92 183.43 40.83 182.59 46.63 181.23 C 45.49 184.74 44.12 188.18 43.34 191.80 C 46.86 192.22 50.38 192.64 53.89 193.13 C 53.61 193.53 53.05 194.34 52.77 194.74 C 50.39 194.98 47.95 194.99 45.64 195.66 C 43.29 196.49 43.83 199.69 44.31 201.59 C 48.90 204.11 53.98 205.67 58.99 207.12 C 66.79 209.41 74.23 212.77 82.05 214.98 C 83.77 215.55 85.50 214.82 87.18 214.45 C 90.42 216.73 95.59 216.49 97.24 220.61 C 99.77 225.46 102.24 230.34 104.72 235.21 C 105.30 235.44 106.46 235.91 107.05 236.14 L 107.63 236.52 C 104.84 236.99 102.12 236.06 99.42 235.50 C 81.84 231.49 65.19 223.24 51.64 211.30 C 42.42 204.01 35.12 194.62 29.08 184.61 Z" />
</g>
<g id="#212121ff">
<path fill="#212121" opacity="1.00" d=" M 192.93 184.81 C 194.31 183.61 195.69 182.42 197.08 181.23 C 203.96 183.09 211.16 183.48 217.92 185.81 C 213.59 192.38 209.04 198.91 203.26 204.30 C 199.86 207.91 196.55 211.69 192.39 214.48 C 192.18 213.97 191.74 212.96 191.52 212.45 C 192.86 208.38 195.05 204.44 195.00 200.05 C 195.02 195.74 194.90 191.42 194.87 187.11 C 194.22 186.34 193.58 185.57 192.93 184.81 Z" />
</g>
<g id="#a5a19dff">
<path fill="#a5a19d" opacity="1.00" d=" M 146.95 191.90 C 148.64 191.57 150.34 191.24 152.03 190.91 C 151.33 192.62 150.63 194.33 149.95 196.05 C 148.74 196.47 147.54 196.91 146.32 197.29 C 146.47 195.81 146.60 194.32 146.76 192.84 L 146.95 191.90 Z" />
</g>
<g id="#e9e4e1ff">
<path fill="#e9e4e1" opacity="1.00" d=" M 105.49 191.42 C 111.56 192.66 117.74 193.36 123.88 194.21 C 126.33 194.61 128.79 195.03 131.22 195.54 C 126.55 196.46 121.82 197.25 117.04 197.36 C 112.54 197.51 108.24 195.96 103.93 194.90 C 104.36 194.62 105.22 194.07 105.64 193.79 C 105.60 193.20 105.52 192.01 105.49 191.42 Z" />
</g>
<g id="#ded9d3ff">
<path fill="#ded9d3" opacity="1.00" d=" M 122.40 198.47 C 130.69 197.49 138.89 195.64 146.76 192.84 C 146.60 194.32 146.47 195.81 146.32 197.29 C 145.38 197.56 144.43 197.80 143.48 198.02 C 136.63 199.15 128.90 202.35 122.40 198.47 Z" />
</g>
<g id="#dbd4cfff">
<path fill="#dbd4cf" opacity="1.00" d=" M 96.02 195.01 C 104.61 196.44 112.94 199.22 121.60 200.30 C 120.79 202.01 118.51 201.34 117.00 201.53 C 110.77 201.30 104.55 200.63 98.45 199.32 C 96.73 198.67 96.74 196.44 96.02 195.01 Z" />
</g>
<g id="#ddd6d1ff">
<path fill="#ddd6d1" opacity="1.00" d=" M 143.26 199.35 C 145.06 198.86 146.90 198.49 148.74 198.12 C 147.85 199.82 146.97 201.54 146.14 203.28 C 143.34 205.03 140.15 205.93 136.93 206.54 C 136.84 205.15 136.76 203.76 136.68 202.37 C 135.39 202.17 134.10 201.98 132.80 201.81 C 136.33 201.20 139.83 200.40 143.26 199.35 Z" />
</g>
<g id="#42423fff">
<path fill="#42423f" opacity="1.00" d=" M 95.81 201.34 C 98.92 202.30 98.21 206.20 100.12 208.33 C 102.34 211.29 106.36 211.50 109.74 211.79 C 110.28 211.89 111.36 212.09 111.90 212.19 C 111.65 212.49 111.14 213.08 110.89 213.38 C 107.83 212.76 104.80 211.98 101.73 211.40 C 102.49 213.09 102.73 215.70 105.05 215.94 C 110.20 217.00 115.55 218.76 120.83 217.66 C 120.96 218.08 121.23 218.92 121.36 219.34 C 115.41 219.26 109.67 217.13 103.71 217.36 C 104.77 218.54 105.20 220.61 106.90 221.11 C 111.36 221.63 115.86 221.01 120.33 221.32 C 115.88 222.39 111.28 222.03 106.76 222.42 C 108.95 222.79 111.15 223.06 113.34 223.44 C 111.29 223.64 109.24 223.74 107.18 223.86 C 108.17 225.44 109.38 226.95 109.93 228.76 C 109.86 229.04 109.72 229.58 109.65 229.86 C 111.13 230.88 112.51 232.04 113.79 233.31 C 114.36 234.09 114.93 234.87 115.51 235.65 C 115.60 235.69 115.78 235.76 115.87 235.80 C 116.38 236.02 117.39 236.44 117.90 236.65 L 118.38 237.78 C 115.98 237.21 112.55 238.82 110.95 236.32 C 109.22 233.89 107.57 231.37 106.40 228.61 C 102.67 220.17 99.25 211.59 95.67 203.08 L 95.81 201.34 Z" />
</g>
<g id="#e7e3ddff">
<path fill="#e7e3dd" opacity="1.00" d=" M 100.12 205.00 C 106.71 205.57 113.05 207.83 119.69 208.03 C 120.36 208.13 121.70 208.33 122.38 208.43 L 123.06 209.72 C 118.61 210.33 114.19 211.16 109.74 211.79 C 106.36 211.50 102.34 211.29 100.12 208.33 C 100.12 207.49 100.12 205.83 100.12 205.00 Z" />
<path fill="#e7e3dd" opacity="1.00" d=" M 119.61 230.52 C 123.39 229.55 127.24 228.90 131.10 228.27 C 130.39 229.40 129.68 230.53 128.97 231.67 C 127.27 231.82 125.56 231.87 123.86 231.87 C 122.44 231.42 121.02 230.97 119.61 230.52 Z" />
</g>
<g id="#f1edeaff">
<path fill="#f1edea" opacity="1.00" d=" M 123.43 210.40 C 130.68 209.23 137.69 206.44 145.08 206.36 C 144.16 207.53 143.25 208.71 142.28 209.85 C 138.62 211.45 134.91 213.04 131.03 214.00 C 124.92 214.87 118.70 213.79 112.75 212.36 C 116.32 211.80 119.91 211.25 123.43 210.40 Z" />
</g>
<g id="#1e1e1eff">
<path fill="#1e1e1e" opacity="1.00" d=" M 150.81 217.08 C 158.84 216.26 166.89 213.39 173.07 208.09 C 177.69 212.40 183.57 215.74 189.99 216.11 C 175.78 227.04 158.62 233.90 140.98 236.81 C 143.94 230.07 147.86 223.81 150.81 217.08 Z" />
</g>
<g id="#ede9e6ff">
<path fill="#ede9e6" opacity="1.00" d=" M 101.73 211.40 C 104.80 211.98 107.83 212.76 110.89 213.38 C 115.99 214.63 121.26 214.76 126.45 215.37 C 124.60 216.20 122.73 216.97 120.83 217.66 C 115.55 218.76 110.20 217.00 105.05 215.94 C 102.73 215.70 102.49 213.09 101.73 211.40 Z" />
</g>
<g id="#efebe8ff">
<path fill="#efebe8" opacity="1.00" d=" M 122.67 218.71 C 128.40 215.57 134.99 214.41 141.05 212.02 C 141.13 212.55 141.29 213.63 141.36 214.16 C 140.66 214.68 139.93 215.16 139.18 215.62 C 134.01 217.94 128.38 219.31 122.67 218.71 Z" />
</g>
<g id="#eae5e3ff">
<path fill="#eae5e3" opacity="1.00" d=" M 103.71 217.36 C 109.67 217.13 115.41 219.26 121.36 219.34 C 121.49 219.74 121.75 220.53 121.88 220.93 C 127.82 221.10 133.34 218.81 138.97 217.32 C 137.99 219.45 137.25 221.82 135.58 223.54 C 128.35 225.54 120.71 222.98 113.46 224.30 C 120.29 225.73 127.29 225.51 134.21 225.49 C 127.26 228.91 119.22 228.67 111.84 229.23 C 114.02 231.80 118.44 231.11 121.40 232.77 C 118.88 233.15 116.34 233.38 113.79 233.31 C 112.51 232.04 111.13 230.88 109.65 229.86 C 109.72 229.58 109.86 229.04 109.93 228.76 C 109.38 226.95 108.17 225.44 107.18 223.86 C 109.24 223.74 111.29 223.64 113.34 223.44 C 111.15 223.06 108.95 222.79 106.76 222.42 C 111.28 222.03 115.88 222.39 120.33 221.32 C 115.86 221.01 111.36 221.63 106.90 221.11 C 105.20 220.61 104.77 218.54 103.71 217.36 Z" />
</g>
</svg>
