<?xml version="1.0" encoding="UTF-8" ?>
<!DOCTYPE svg PUBLIC "-//W3C//DTD SVG 1.1//EN" "http://www.w3.org/Graphics/SVG/1.1/DTD/svg11.dtd">
<svg width="250pt" height="250pt" viewBox="0 0 250 250" version="1.1" xmlns="http://www.w3.org/2000/svg">
<g id="#ffffffff">
<path fill="#ffffff" opacity="1.00" d=" M 0.00 0.00 L 116.64 0.00 C 91.73 2.13 67.27 10.99 47.67 26.66 C 20.50 47.78 3.08 80.59 0.31 114.85 C 0.23 115.56 0.08 116.99 0.00 117.71 L 0.00 0.00 Z" />
<path fill="#ffffff" opacity="1.00" d=" M 132.41 0.00 L 250.00 0.00 L 250.00 250.00 L 0.00 250.00 L 0.00 132.35 C 1.32 145.17 3.62 158.00 8.48 170.00 C 18.85 196.90 38.88 219.90 64.09 233.88 C 87.98 247.20 116.36 252.43 143.41 248.19 C 173.80 243.75 202.26 227.45 221.52 203.53 C 229.56 193.75 235.92 182.65 240.69 170.94 C 246.21 157.25 249.03 142.52 249.54 127.78 C 250.41 93.97 236.86 60.02 212.65 36.35 C 191.55 14.89 162.33 2.18 132.41 0.00 Z" />
<path fill="#ffffff" opacity="1.00" d=" M 71.00 19.00 C 94.70 6.72 122.61 2.63 148.76 8.13 C 173.90 13.14 197.26 26.59 214.06 45.97 C 233.46 68.00 244.23 97.39 243.62 126.73 C 243.39 139.08 241.20 151.40 237.02 163.02 C 231.79 161.39 226.75 159.21 221.65 157.20 C 185.83 143.06 150.05 128.82 114.19 114.77 C 81.99 101.67 49.46 89.42 17.34 76.17 C 27.87 51.64 47.25 31.13 71.00 19.00 M 87.75 29.78 C 84.42 31.31 81.41 33.44 78.20 35.20 C 75.59 36.84 72.57 38.03 70.52 40.40 C 70.03 47.41 69.93 54.57 70.58 61.57 C 73.91 65.06 78.71 66.67 82.66 69.35 C 85.40 70.69 88.48 73.69 91.62 71.70 C 101.23 66.62 110.24 60.35 120.04 55.66 C 124.61 56.53 129.10 59.28 132.42 62.54 C 133.09 66.83 133.05 71.30 132.47 75.59 C 129.51 78.94 125.18 81.18 121.00 82.65 C 117.19 81.84 113.91 79.40 110.65 77.36 C 107.58 75.30 108.92 71.11 108.54 68.02 C 106.19 69.23 103.90 70.56 101.66 71.96 C 101.91 75.09 100.59 79.28 103.59 81.44 C 107.21 83.92 111.18 85.85 114.90 88.17 C 117.37 89.53 120.30 91.91 123.18 90.15 C 128.11 87.47 132.96 84.64 137.74 81.71 C 140.54 80.26 139.92 76.65 140.16 74.02 C 140.00 68.86 140.66 63.59 139.49 58.51 C 137.55 56.00 134.40 54.88 131.79 53.22 C 128.19 51.36 124.94 48.67 121.01 47.56 C 118.84 47.78 117.03 49.14 115.18 50.16 C 108.36 54.43 101.14 58.01 94.36 62.34 C 92.42 63.28 90.38 65.17 88.08 64.35 C 85.26 63.18 82.70 61.49 80.14 59.85 C 78.81 58.90 77.08 57.87 77.25 55.98 C 77.08 52.13 76.86 48.21 77.46 44.39 C 80.53 41.10 84.82 38.91 89.00 37.41 C 92.84 38.05 96.02 40.72 99.28 42.73 C 102.60 44.68 101.17 49.07 101.71 52.21 C 103.99 50.95 106.76 50.13 108.37 47.97 C 108.42 44.87 109.42 40.66 106.35 38.63 C 102.50 36.06 98.37 33.95 94.45 31.50 C 92.43 30.44 90.12 28.55 87.75 29.78 M 175.45 71.50 C 171.95 73.46 168.40 75.38 165.17 77.78 C 166.25 79.79 167.32 81.81 168.38 83.83 C 171.10 82.47 173.78 81.05 176.57 79.84 C 176.82 91.16 176.33 102.48 176.81 113.79 C 179.44 113.78 182.08 113.78 184.72 113.75 C 184.74 99.28 184.79 84.81 184.69 70.35 C 181.61 70.51 178.21 69.76 175.45 71.50 M 189.69 83.15 C 192.62 88.34 196.50 92.90 199.60 97.97 C 196.43 103.31 192.41 108.13 189.70 113.73 C 192.40 113.80 195.10 113.78 197.81 113.74 C 199.86 110.64 201.80 107.47 203.96 104.45 C 206.26 107.41 208.41 110.48 210.45 113.62 C 213.32 113.80 216.20 113.81 219.08 113.72 C 215.99 108.64 212.22 104.02 209.06 98.99 C 212.15 93.56 215.93 88.56 219.01 83.13 C 216.13 82.98 213.25 83.01 210.38 83.28 C 208.58 86.33 206.67 89.32 204.75 92.29 C 202.01 89.59 200.10 86.22 197.80 83.17 C 195.10 83.11 192.39 83.10 189.69 83.15 M 149.57 91.63 C 149.54 93.88 149.54 96.13 149.57 98.38 C 155.18 98.53 160.80 98.53 166.41 98.37 C 166.43 96.13 166.43 93.88 166.41 91.63 C 160.80 91.47 155.18 91.48 149.57 91.63 Z" />
<path fill="#ffffff" opacity="1.00" d=" M 65.83 133.98 C 77.89 138.81 89.83 143.99 101.70 149.28 C 101.77 155.88 101.79 162.49 101.77 169.10 C 101.89 178.08 101.70 187.07 101.96 196.05 C 102.15 199.13 102.03 203.12 105.36 204.62 C 113.52 208.81 122.24 211.85 130.62 215.57 C 130.96 220.73 130.90 225.91 130.73 231.07 C 119.20 226.45 107.88 221.32 96.41 216.55 C 91.91 214.88 88.24 210.84 87.74 205.97 C 87.38 200.47 87.76 194.96 87.53 189.46 C 81.46 187.16 74.40 184.20 72.93 177.07 C 72.75 173.99 72.99 170.91 73.26 167.85 C 77.95 169.63 82.53 171.70 87.24 173.44 C 87.49 168.32 87.45 163.20 87.27 158.08 C 82.06 155.80 76.73 153.83 71.48 151.66 C 69.28 150.68 66.60 149.47 66.12 146.82 C 65.32 142.59 65.79 138.25 65.83 133.98 Z" />
<path fill="#ffffff" opacity="1.00" d=" M 116.28 133.97 C 119.09 135.01 121.97 135.96 124.56 137.50 C 128.15 139.69 130.71 143.70 130.67 147.97 C 130.81 155.58 130.61 163.20 130.70 170.81 C 130.68 180.58 130.79 190.35 130.64 200.11 C 126.25 198.43 121.67 196.97 117.83 194.19 C 116.13 193.08 116.38 190.83 116.21 189.08 C 116.14 181.69 116.24 174.29 116.23 166.90 C 116.26 155.92 116.12 144.95 116.28 133.97 Z" />
</g>
<g id="#dd2351ff">
<path fill="#dd2351" opacity="1.00" d=" M 116.64 0.00 L 132.41 0.00 C 162.33 2.18 191.55 14.89 212.65 36.35 C 236.86 60.02 250.41 93.97 249.54 127.78 C 247.56 127.43 245.59 127.08 243.62 126.73 C 244.23 97.39 233.46 68.00 214.06 45.97 C 197.26 26.59 173.90 13.14 148.76 8.13 C 122.61 2.63 94.70 6.72 71.00 19.00 C 47.25 31.13 27.87 51.64 17.34 76.17 C 49.46 89.42 81.99 101.67 114.19 114.77 C 84.46 115.28 54.73 114.78 25.00 115.02 C 16.77 115.02 8.54 115.09 0.31 114.85 C 3.08 80.59 20.50 47.78 47.67 26.66 C 67.27 10.99 91.73 2.13 116.64 0.00 Z" />
<path fill="#dd2351" opacity="1.00" d=" M 87.75 29.78 C 90.12 28.55 92.43 30.44 94.45 31.50 C 98.37 33.95 102.50 36.06 106.35 38.63 C 109.42 40.66 108.42 44.87 108.37 47.97 C 106.76 50.13 103.99 50.95 101.71 52.21 C 101.17 49.07 102.60 44.68 99.28 42.73 C 96.02 40.72 92.84 38.05 89.00 37.41 C 84.82 38.91 80.53 41.10 77.46 44.39 C 76.86 48.21 77.08 52.13 77.25 55.98 C 77.08 57.87 78.81 58.90 80.14 59.85 C 82.70 61.49 85.26 63.18 88.08 64.35 C 90.38 65.17 92.42 63.28 94.36 62.34 C 101.14 58.01 108.36 54.43 115.18 50.16 C 117.03 49.14 118.84 47.78 121.01 47.56 C 124.94 48.67 128.19 51.36 131.79 53.22 C 134.40 54.88 137.55 56.00 139.49 58.51 C 140.66 63.59 140.00 68.86 140.16 74.02 C 139.92 76.65 140.54 80.26 137.74 81.71 C 132.96 84.64 128.11 87.47 123.18 90.15 C 120.30 91.91 117.37 89.53 114.90 88.17 C 111.18 85.85 107.21 83.92 103.59 81.44 C 100.59 79.28 101.91 75.09 101.66 71.96 C 103.90 70.56 106.19 69.23 108.54 68.02 C 108.92 71.11 107.58 75.30 110.65 77.36 C 113.91 79.40 117.19 81.84 121.00 82.65 C 125.18 81.18 129.51 78.94 132.47 75.59 C 133.05 71.30 133.09 66.83 132.42 62.54 C 129.10 59.28 124.61 56.53 120.04 55.66 C 110.24 60.35 101.23 66.62 91.62 71.70 C 88.48 73.69 85.40 70.69 82.66 69.35 C 78.71 66.67 73.91 65.06 70.58 61.57 C 69.93 54.57 70.03 47.41 70.52 40.40 C 72.57 38.03 75.59 36.84 78.20 35.20 C 81.41 33.44 84.42 31.31 87.75 29.78 Z" />
<path fill="#dd2351" opacity="1.00" d=" M 175.45 71.50 C 178.21 69.76 181.61 70.51 184.69 70.35 C 184.79 84.81 184.74 99.28 184.72 113.75 C 182.08 113.78 179.44 113.78 176.81 113.79 C 176.33 102.48 176.82 91.16 176.57 79.84 C 173.78 81.05 171.10 82.47 168.38 83.83 C 167.32 81.81 166.25 79.79 165.17 77.78 C 168.40 75.38 171.95 73.46 175.45 71.50 Z" />
<path fill="#dd2351" opacity="1.00" d=" M 189.69 83.15 C 192.39 83.10 195.10 83.11 197.80 83.17 C 200.10 86.22 202.01 89.59 204.75 92.29 C 206.67 89.32 208.58 86.33 210.38 83.28 C 213.25 83.01 216.13 82.98 219.01 83.13 C 215.93 88.56 212.15 93.56 209.06 98.99 C 212.22 104.02 215.99 108.64 219.08 113.72 C 216.20 113.81 213.32 113.80 210.45 113.62 C 208.41 110.48 206.26 107.41 203.96 104.45 C 201.80 107.47 199.86 110.64 197.81 113.74 C 195.10 113.78 192.40 113.80 189.70 113.73 C 192.41 108.13 196.43 103.31 199.60 97.97 C 196.50 92.90 192.62 88.34 189.69 83.15 Z" />
<path fill="#dd2351" opacity="1.00" d=" M 149.57 91.63 C 155.18 91.48 160.80 91.47 166.41 91.63 C 166.43 93.88 166.43 96.13 166.41 98.37 C 160.80 98.53 155.18 98.53 149.57 98.38 C 149.54 96.13 149.54 93.88 149.57 91.63 Z" />
</g>
<g id="#a01b5bff">
<path fill="#a01b5b" opacity="1.00" d=" M 0.31 114.85 C 8.54 115.09 16.77 115.02 25.00 115.02 C 54.73 114.78 84.46 115.28 114.19 114.77 C 150.05 128.82 185.83 143.06 221.65 157.20 C 226.75 159.21 231.79 161.39 237.02 163.02 C 241.20 151.40 243.39 139.08 243.62 126.73 C 245.59 127.08 247.56 127.43 249.54 127.78 C 249.03 142.52 246.21 157.25 240.69 170.94 C 238.59 170.00 236.41 169.08 234.07 169.15 C 207.05 169.34 180.02 169.19 153.00 169.23 C 145.56 169.34 137.92 168.52 130.70 170.81 C 130.61 163.20 130.81 155.58 130.67 147.97 C 130.71 143.70 128.15 139.69 124.56 137.50 C 121.97 135.96 119.09 135.01 116.28 133.97 C 116.12 144.95 116.26 155.92 116.23 166.90 C 113.23 165.33 109.89 163.60 106.40 164.50 C 104.00 164.84 102.89 167.25 101.77 169.10 C 101.79 162.49 101.77 155.88 101.70 149.28 C 89.83 143.99 77.89 138.81 65.83 133.98 C 65.79 138.25 65.32 142.59 66.12 146.82 C 66.60 149.47 69.28 150.68 71.48 151.66 C 76.73 153.83 82.06 155.80 87.27 158.08 C 87.45 163.20 87.49 168.32 87.24 173.44 C 82.53 171.70 77.95 169.63 73.26 167.85 C 72.99 170.91 72.75 173.99 72.93 177.07 C 72.20 174.21 71.78 171.28 71.35 168.36 C 53.56 168.05 35.76 168.49 17.97 168.16 C 14.70 168.00 11.48 168.76 8.48 170.00 C 3.62 158.00 1.32 145.17 0.00 132.35 L 0.00 117.71 C 0.08 116.99 0.23 115.56 0.31 114.85 Z" />
</g>
<g id="#641366ff">
<path fill="#641366" opacity="1.00" d=" M 106.40 164.50 C 109.89 163.60 113.23 165.33 116.23 166.90 C 116.24 174.29 116.14 181.69 116.21 189.08 C 116.38 190.83 116.13 193.08 117.83 194.19 C 121.67 196.97 126.25 198.43 130.64 200.11 C 130.79 190.35 130.68 180.58 130.70 170.81 C 137.92 168.52 145.56 169.34 153.00 169.23 C 180.02 169.19 207.05 169.34 234.07 169.15 C 236.41 169.08 238.59 170.00 240.69 170.94 C 235.92 182.65 229.56 193.75 221.52 203.53 C 202.26 227.45 173.80 243.75 143.41 248.19 C 116.36 252.43 87.98 247.20 64.09 233.88 C 38.88 219.90 18.85 196.90 8.48 170.00 C 11.48 168.76 14.70 168.00 17.97 168.16 C 35.76 168.49 53.56 168.05 71.35 168.36 C 71.78 171.28 72.20 174.21 72.93 177.07 C 74.40 184.20 81.46 187.16 87.53 189.46 C 87.76 194.96 87.38 200.47 87.74 205.97 C 88.24 210.84 91.91 214.88 96.41 216.55 C 107.88 221.32 119.20 226.45 130.73 231.07 C 130.90 225.91 130.96 220.73 130.62 215.57 C 122.24 211.85 113.52 208.81 105.36 204.62 C 102.03 203.12 102.15 199.13 101.96 196.05 C 101.70 187.07 101.89 178.08 101.77 169.10 C 102.89 167.25 104.00 164.84 106.40 164.50 Z" />
</g>
</svg>
