<?xml version="1.0" encoding="UTF-8" ?>
<!DOCTYPE svg PUBLIC "-//W3C//DTD SVG 1.1//EN" "http://www.w3.org/Graphics/SVG/1.1/DTD/svg11.dtd">
<svg width="250pt" height="250pt" viewBox="0 0 250 250" version="1.1" xmlns="http://www.w3.org/2000/svg">
<g id="#ffffffff">
<path fill="#ffffff" opacity="1.00" d=" M 0.00 0.00 L 250.00 0.00 L 250.00 112.62 C 247.13 87.45 236.69 63.12 219.94 44.07 C 194.63 14.44 154.78 -2.08 115.95 1.31 C 97.54 2.63 79.42 8.14 63.39 17.31 C 34.03 33.97 11.80 62.91 3.88 95.78 C 2.18 102.07 1.63 108.59 0.00 114.89 L 0.00 0.00 Z" />
<path fill="#ffffff" opacity="1.00" d=" M 0.00 137.90 C 1.28 142.41 1.84 147.07 2.76 151.66 C 6.85 171.08 15.50 189.56 28.05 204.95 C 47.43 229.02 76.04 245.43 106.60 250.00 L 0.00 250.00 L 0.00 137.90 Z" />
<path fill="#ffffff" opacity="1.00" d=" M 219.62 208.61 C 236.55 189.39 247.09 164.86 250.00 139.45 L 250.00 250.00 L 145.30 250.00 C 173.78 245.03 200.64 230.52 219.62 208.61 Z" />
</g>
<g id="#00b573ff">
<path fill="#00b573" opacity="1.00" d=" M 63.39 17.31 C 79.42 8.14 97.54 2.63 115.95 1.31 C 154.78 -2.08 194.63 14.44 219.94 44.07 C 236.69 63.12 247.13 87.45 250.00 112.62 L 250.00 139.45 C 247.09 164.86 236.55 189.39 219.62 208.61 C 200.64 230.52 173.78 245.03 145.30 250.00 L 106.60 250.00 C 76.04 245.43 47.43 229.02 28.05 204.95 C 15.50 189.56 6.85 171.08 2.76 151.66 C 1.84 147.07 1.28 142.41 0.00 137.90 L 0.00 114.89 C 1.63 108.59 2.18 102.07 3.88 95.78 C 11.80 62.91 34.03 33.97 63.39 17.31 M 50.91 57.96 C 50.36 62.63 50.60 67.32 50.60 72.00 C 50.60 110.00 50.60 148.00 50.60 186.00 C 50.65 190.87 50.24 195.78 51.05 200.61 C 56.68 200.60 62.32 200.74 67.95 200.58 C 70.00 200.73 71.39 199.02 72.78 197.79 C 89.82 180.51 107.13 163.49 124.19 146.22 C 125.35 145.39 126.31 143.68 127.89 143.82 C 131.06 146.03 133.50 149.08 136.26 151.75 C 151.74 167.27 167.31 182.71 182.74 198.28 C 183.95 199.38 185.25 200.74 187.05 200.58 C 192.68 200.74 198.31 200.60 203.94 200.61 C 204.77 195.78 204.35 190.87 204.40 186.00 C 204.42 144.99 204.35 103.99 204.44 62.98 C 204.39 61.30 204.23 59.63 204.09 57.95 C 198.73 57.46 193.33 57.51 187.95 57.69 C 185.47 57.55 183.61 59.38 181.95 60.95 C 164.71 78.38 147.26 95.59 130.02 113.02 C 129.13 113.82 128.14 114.48 127.17 115.17 C 126.06 114.17 124.92 113.19 123.83 112.16 C 106.76 94.91 89.47 77.86 72.41 60.60 C 70.91 59.22 69.29 57.51 67.06 57.69 C 61.68 57.52 56.28 57.45 50.91 57.96 Z" />
<path fill="#00b573" opacity="1.00" d=" M 69.95 85.95 C 73.36 88.54 76.26 91.71 79.26 94.74 C 90.54 106.24 102.27 117.33 113.30 129.07 C 110.48 132.95 106.82 136.08 103.48 139.48 C 93.84 149.18 84.10 158.78 74.52 168.53 C 73.13 169.93 71.54 171.09 69.93 172.23 C 69.78 170.16 69.65 168.08 69.64 166.00 C 69.69 141.33 69.67 116.66 69.64 91.99 C 69.67 89.97 69.80 87.96 69.95 85.95 Z" />
<path fill="#00b573" opacity="1.00" d=" M 172.74 97.74 C 176.84 93.81 180.52 89.42 185.05 85.95 C 185.23 88.29 185.37 90.64 185.37 93.00 C 185.30 114.00 185.35 135.00 185.33 156.00 C 185.30 161.44 185.55 166.89 185.06 172.32 C 179.80 168.90 175.89 163.90 171.37 159.64 C 161.39 149.47 151.02 139.67 141.27 129.28 C 151.67 118.68 162.28 108.28 172.74 97.74 Z" />
</g>
<g id="#333333ff">
<path fill="#333333" opacity="1.00" d=" M 50.91 57.96 C 56.28 57.45 61.68 57.52 67.06 57.69 C 69.29 57.51 70.91 59.22 72.41 60.60 C 89.47 77.86 106.76 94.91 123.83 112.16 C 124.92 113.19 126.06 114.17 127.17 115.17 C 128.14 114.48 129.13 113.82 130.02 113.02 C 147.26 95.59 164.71 78.38 181.95 60.95 C 183.61 59.38 185.47 57.55 187.95 57.69 C 193.33 57.51 198.73 57.46 204.09 57.95 C 204.23 59.63 204.39 61.30 204.44 62.98 C 204.35 103.99 204.42 144.99 204.40 186.00 C 204.35 190.87 204.77 195.78 203.94 200.61 C 198.31 200.60 192.68 200.74 187.05 200.58 C 185.25 200.74 183.95 199.38 182.74 198.28 C 167.31 182.71 151.74 167.27 136.26 151.75 C 133.50 149.08 131.06 146.03 127.89 143.82 C 126.31 143.68 125.35 145.39 124.19 146.22 C 107.13 163.49 89.82 180.51 72.78 197.79 C 71.39 199.02 70.00 200.73 67.95 200.58 C 62.32 200.74 56.68 200.60 51.05 200.61 C 50.24 195.78 50.65 190.87 50.60 186.00 C 50.60 148.00 50.60 110.00 50.60 72.00 C 50.60 67.32 50.36 62.63 50.91 57.96 M 69.95 85.95 C 69.80 87.96 69.67 89.97 69.64 91.99 C 69.67 116.66 69.69 141.33 69.64 166.00 C 69.65 168.08 69.78 170.16 69.93 172.23 C 71.54 171.09 73.13 169.93 74.52 168.53 C 84.10 158.78 93.84 149.18 103.48 139.48 C 106.82 136.08 110.48 132.95 113.30 129.07 C 102.27 117.33 90.54 106.24 79.26 94.74 C 76.26 91.71 73.36 88.54 69.95 85.95 M 172.74 97.74 C 162.28 108.28 151.67 118.68 141.27 129.28 C 151.02 139.67 161.39 149.47 171.37 159.64 C 175.89 163.90 179.80 168.90 185.06 172.32 C 185.55 166.89 185.30 161.44 185.33 156.00 C 185.35 135.00 185.30 114.00 185.37 93.00 C 185.37 90.64 185.23 88.29 185.05 85.95 C 180.52 89.42 176.84 93.81 172.74 97.74 Z" />
</g>
</svg>
