<?xml version="1.0" encoding="UTF-8" ?>
<!DOCTYPE svg PUBLIC "-//W3C//DTD SVG 1.1//EN" "http://www.w3.org/Graphics/SVG/1.1/DTD/svg11.dtd">
<svg width="250pt" height="250pt" viewBox="0 0 250 250" version="1.1" xmlns="http://www.w3.org/2000/svg">
<g id="#ffffffff">
<path fill="#ffffff" opacity="1.00" d=" M 0.00 0.00 L 250.00 0.00 L 250.00 250.00 L 0.00 250.00 L 0.00 0.00 M 36.84 50.93 C 30.01 53.09 25.07 59.00 23.04 65.73 C 26.07 60.69 32.64 60.10 37.92 60.90 C 53.63 63.25 68.24 69.84 83.05 75.26 L 83.02 75.39 C 98.88 81.33 114.46 88.03 130.55 93.35 C 146.24 98.82 162.31 103.86 178.86 105.87 C 190.53 107.29 203.38 108.02 213.98 102.01 C 221.30 97.92 225.38 90.02 226.98 82.04 C 222.79 87.65 215.60 89.15 208.97 89.18 C 194.00 88.94 179.49 84.82 165.15 80.95 C 149.95 76.29 134.85 71.37 119.85 66.13 C 104.46 60.86 89.01 55.64 73.14 52.00 C 61.30 49.51 48.66 47.12 36.84 50.93 M 33.58 81.49 C 28.21 84.04 24.87 89.27 23.01 94.74 C 24.93 92.80 27.04 90.68 29.90 90.39 C 39.01 89.16 47.97 92.00 56.54 94.75 C 86.92 105.06 116.03 119.00 146.91 127.85 L 147.01 128.06 C 154.13 130.11 161.30 132.00 168.56 133.47 C 171.96 134.18 175.38 134.91 178.85 135.17 C 188.47 136.61 198.43 136.80 207.85 134.03 C 218.21 131.00 225.41 121.47 227.00 111.01 C 224.95 113.26 222.80 115.63 219.83 116.63 C 211.57 119.67 202.69 117.98 194.21 117.21 L 194.04 116.92 C 187.86 116.01 181.84 114.32 175.73 113.13 L 175.89 112.93 C 167.91 111.06 160.13 108.47 152.29 106.15 C 144.00 103.56 135.87 100.49 127.51 98.17 C 125.60 97.04 123.41 96.50 121.33 95.76 C 100.87 89.00 80.44 81.44 58.96 78.69 C 50.48 77.93 41.38 77.51 33.58 81.49 M 28.93 113.93 C 26.00 116.56 24.42 120.25 22.96 123.83 C 24.99 122.03 27.07 119.92 29.88 119.55 C 39.97 118.07 49.62 122.10 59.18 124.64 C 65.44 127.19 71.86 129.45 78.25 131.68 C 84.19 134.37 90.31 136.73 96.50 138.81 L 96.64 139.06 C 117.55 147.27 138.58 155.50 160.48 160.69 C 167.00 162.65 173.80 163.60 180.53 164.55 C 187.12 165.32 193.81 165.75 200.41 164.78 C 203.28 164.26 206.12 163.60 208.93 162.82 C 211.84 161.57 214.62 160.03 217.20 158.20 C 222.52 153.57 225.70 147.02 226.92 140.15 C 223.36 146.01 216.14 147.39 209.81 147.66 C 206.44 147.54 203.07 147.37 199.70 147.21 L 199.72 146.91 C 195.73 146.55 191.79 145.77 187.83 145.20 L 187.70 144.96 C 179.76 143.55 172.05 141.11 164.22 139.21 L 164.15 139.01 C 156.28 136.86 148.63 134.02 140.78 131.83 L 140.68 131.63 C 120.25 125.08 100.25 117.05 79.36 112.05 L 79.29 111.85 C 73.92 110.52 68.52 109.31 63.05 108.46 C 57.98 107.55 52.83 107.34 47.69 107.35 C 41.02 107.68 33.92 109.18 28.93 113.93 M 113.47 166.52 C 111.37 168.91 111.30 172.19 111.16 175.19 C 109.03 175.19 106.86 174.99 104.77 175.55 C 103.71 176.98 104.34 178.73 104.53 180.32 C 106.80 180.47 109.07 180.53 111.34 180.58 C 111.42 187.98 111.19 195.38 111.43 202.77 C 111.44 205.49 114.68 204.75 116.44 204.44 C 116.81 196.49 116.50 188.52 116.60 180.56 C 119.23 180.27 122.33 181.25 124.54 179.44 C 124.73 178.13 124.53 176.80 124.48 175.49 C 121.83 175.13 119.16 175.15 116.50 175.19 C 116.55 172.88 116.77 170.20 118.93 168.84 C 121.12 168.13 123.44 167.94 125.66 167.33 C 125.47 165.71 125.84 163.62 124.00 162.82 C 120.18 162.19 115.90 163.38 113.47 166.52 M 129.77 164.87 C 129.55 177.60 129.58 190.36 129.75 203.09 C 131.30 206.52 135.88 204.92 138.76 204.48 C 138.75 202.91 138.65 201.35 138.44 199.80 C 137.62 199.74 135.97 199.61 135.15 199.54 C 135.16 191.70 135.15 183.85 135.15 176.01 C 135.13 171.81 135.41 167.57 134.55 163.43 C 132.87 163.45 130.26 162.51 129.77 164.87 M 60.73 171.22 C 61.53 173.19 63.75 172.19 65.34 172.26 C 65.40 170.60 66.34 167.72 63.93 167.39 C 61.60 166.19 59.38 169.21 60.73 171.22 M 60.51 176.39 C 60.20 185.16 60.28 193.98 60.47 202.76 C 60.37 205.51 63.67 204.76 65.42 204.50 C 65.87 195.36 65.58 186.19 65.60 177.05 C 66.01 174.11 60.84 173.35 60.51 176.39 M 71.75 178.00 C 71.64 185.01 71.77 192.02 71.70 199.03 C 71.60 200.96 72.02 202.84 72.55 204.68 C 73.72 204.73 74.89 204.77 76.07 204.81 C 76.37 204.37 76.97 203.51 77.27 203.07 C 77.35 198.33 77.16 193.59 77.38 188.86 C 77.32 185.61 79.51 182.75 82.18 181.12 C 86.95 178.61 93.64 180.86 95.38 186.12 C 96.59 192.23 95.13 198.57 96.53 204.69 C 98.11 204.71 99.70 204.63 101.28 204.44 C 101.44 199.30 101.38 194.15 101.38 189.01 C 101.39 183.72 98.04 178.71 93.39 176.30 C 88.54 173.63 82.24 174.08 77.82 177.43 C 76.91 176.52 76.49 174.79 75.01 174.71 C 73.06 173.85 71.77 176.42 71.75 178.00 M 143.54 176.44 C 143.11 181.30 143.34 186.21 143.42 191.08 C 143.60 197.90 149.25 203.90 155.92 204.92 C 159.85 205.77 163.81 204.22 167.12 202.17 C 167.92 204.72 170.19 205.16 172.53 204.64 C 173.74 195.82 172.93 186.86 173.11 177.98 C 173.38 175.51 171.29 174.26 169.07 174.42 C 168.70 175.01 167.97 176.19 167.60 176.78 C 167.60 181.20 167.69 185.62 167.60 190.05 C 167.76 194.77 163.78 199.36 159.02 199.63 C 155.28 200.00 151.52 197.75 149.77 194.49 C 147.56 188.52 149.26 182.04 148.49 175.87 C 147.24 174.02 144.01 173.98 143.54 176.44 M 175.56 178.86 C 178.35 182.72 181.49 186.32 184.44 190.05 C 182.22 192.92 179.97 195.76 177.65 198.55 C 176.44 200.20 174.54 201.96 175.70 204.17 C 176.93 205.04 178.94 205.34 179.96 203.97 C 182.70 200.86 185.17 197.50 187.88 194.35 C 190.61 197.58 193.06 201.05 195.96 204.14 C 197.47 205.88 201.23 204.51 200.44 201.96 C 197.77 197.71 194.25 194.10 191.26 190.08 C 193.76 186.99 196.22 183.87 198.75 180.80 C 199.52 179.59 200.84 178.40 200.46 176.80 C 199.63 175.27 197.27 174.55 196.00 175.93 C 193.13 179.08 190.68 182.58 187.92 185.83 C 185.11 182.63 182.57 179.21 179.80 175.99 C 177.95 173.91 174.10 176.21 175.56 178.86 Z" />
</g>
<g id="#22b4ffff">
<path fill="#22b4ff" opacity="1.00" d=" M 36.84 50.93 C 48.66 47.12 61.30 49.51 73.14 52.00 C 72.58 53.25 72.03 54.50 71.48 55.75 C 75.63 60.96 79.37 66.50 83.04 72.06 C 83.87 73.02 83.21 74.20 83.05 75.26 C 68.24 69.84 53.63 63.25 37.92 60.90 C 32.64 60.10 26.07 60.69 23.04 65.73 C 25.07 59.00 30.01 53.09 36.84 50.93 Z" />
</g>
<g id="#18b2ffff">
<path fill="#18b2ff" opacity="1.00" d=" M 73.14 52.00 C 89.01 55.64 104.46 60.86 119.85 66.13 C 118.23 67.59 116.61 69.06 114.99 70.52 C 120.70 77.73 126.76 84.89 130.55 93.35 C 114.46 88.03 98.88 81.33 83.02 75.39 L 83.05 75.26 C 83.21 74.20 83.87 73.02 83.04 72.06 C 79.37 66.50 75.63 60.96 71.48 55.75 C 72.03 54.50 72.58 53.25 73.14 52.00 Z" />
</g>
<g id="#11adffff">
<path fill="#11adff" opacity="1.00" d=" M 119.85 66.13 C 134.85 71.37 149.95 76.29 165.15 80.95 C 166.20 86.93 170.94 91.08 174.06 96.00 C 176.45 99.73 179.04 103.41 182.67 106.04 C 181.40 105.99 180.13 105.93 178.86 105.87 C 162.31 103.86 146.24 98.82 130.55 93.35 C 126.76 84.89 120.70 77.73 114.99 70.52 C 116.61 69.06 118.23 67.59 119.85 66.13 Z" />
</g>
<g id="#029effff">
<path fill="#029eff" opacity="1.00" d=" M 33.58 81.49 C 41.38 77.51 50.48 77.93 58.96 78.69 C 80.44 81.44 100.87 89.00 121.33 95.76 C 123.41 96.50 125.60 97.04 127.51 98.17 C 129.83 101.96 132.05 105.82 134.65 109.43 C 138.77 115.54 144.14 120.90 146.91 127.85 C 116.03 119.00 86.92 105.06 56.54 94.75 C 47.97 92.00 39.01 89.16 29.90 90.39 C 27.04 90.68 24.93 92.80 23.01 94.74 C 24.87 89.27 28.21 84.04 33.58 81.49 Z" />
</g>
<g id="#0ba4ffff">
<path fill="#0ba4ff" opacity="1.00" d=" M 165.15 80.95 C 179.49 84.82 194.00 88.94 208.97 89.18 C 215.60 89.15 222.79 87.65 226.98 82.04 C 225.38 90.02 221.30 97.92 213.98 102.01 C 203.38 108.02 190.53 107.29 178.86 105.87 C 180.13 105.93 181.40 105.99 182.67 106.04 C 179.04 103.41 176.45 99.73 174.06 96.00 C 170.94 91.08 166.20 86.93 165.15 80.95 Z" />
</g>
<g id="#0195ffff">
<path fill="#0195ff" opacity="1.00" d=" M 127.51 98.17 C 135.87 100.49 144.00 103.56 152.29 106.15 C 151.77 106.43 150.72 107.01 150.20 107.29 C 156.84 115.64 162.73 124.55 168.56 133.47 C 161.30 132.00 154.13 130.11 147.01 128.06 L 146.91 127.85 C 144.14 120.90 138.77 115.54 134.65 109.43 C 132.05 105.82 129.83 101.96 127.51 98.17 Z" />
</g>
<g id="#048affff">
<path fill="#048aff" opacity="1.00" d=" M 152.29 106.15 C 160.13 108.47 167.91 111.06 175.89 112.93 L 175.73 113.13 C 175.41 113.51 174.77 114.29 174.46 114.67 C 178.90 121.48 184.53 127.49 188.33 134.71 C 185.17 134.91 182.01 135.13 178.85 135.17 C 175.38 134.91 171.96 134.18 168.56 133.47 C 162.73 124.55 156.84 115.64 150.20 107.29 C 150.72 107.01 151.77 106.43 152.29 106.15 Z" />
</g>
<g id="#0d59ffff">
<path fill="#0d59ff" opacity="1.00" d=" M 28.93 113.93 C 33.92 109.18 41.02 107.68 47.69 107.35 C 51.44 113.16 55.42 118.83 59.18 124.64 C 49.62 122.10 39.97 118.07 29.88 119.55 C 27.07 119.92 24.99 122.03 22.96 123.83 C 24.42 120.25 26.00 116.56 28.93 113.93 Z" />
</g>
<g id="#144cffff">
<path fill="#144cff" opacity="1.00" d=" M 47.69 107.35 C 52.83 107.34 57.98 107.55 63.05 108.46 C 63.78 110.98 64.92 113.38 66.67 115.36 C 71.00 120.46 74.44 126.21 78.25 131.68 C 71.86 129.45 65.44 127.19 59.18 124.64 C 55.42 118.83 51.44 113.16 47.69 107.35 Z" />
</g>
<g id="#1941ffff">
<path fill="#1941ff" opacity="1.00" d=" M 63.05 108.46 C 68.52 109.31 73.92 110.52 79.29 111.85 L 79.36 112.05 C 79.97 113.88 80.61 115.73 81.65 117.37 C 86.58 124.53 92.27 131.19 96.50 138.81 C 90.31 136.73 84.19 134.37 78.25 131.68 C 74.44 126.21 71.00 120.46 66.67 115.36 C 64.92 113.38 63.78 110.98 63.05 108.46 Z" />
</g>
<g id="#0172ffff">
<path fill="#0172ff" opacity="1.00" d=" M 219.83 116.63 C 222.80 115.63 224.95 113.26 227.00 111.01 C 225.41 121.47 218.21 131.00 207.85 134.03 C 200.96 130.88 198.10 123.20 194.21 117.21 C 202.69 117.98 211.57 119.67 219.83 116.63 Z" />
</g>
<g id="#2732ffff">
<path fill="#2732ff" opacity="1.00" d=" M 81.65 117.37 C 80.61 115.73 79.97 113.88 79.36 112.05 C 100.25 117.05 120.25 125.08 140.68 131.63 L 140.78 131.83 C 144.07 138.40 148.75 144.09 152.94 150.07 C 155.49 153.59 157.81 157.27 160.48 160.69 C 138.58 155.50 117.55 147.27 96.64 139.06 L 96.50 138.81 C 92.27 131.19 86.58 124.53 81.65 117.37 Z" />
</g>
<g id="#037effff">
<path fill="#037eff" opacity="1.00" d=" M 174.46 114.67 C 174.77 114.29 175.41 113.51 175.73 113.13 C 181.84 114.32 187.86 116.01 194.04 116.92 L 194.21 117.21 C 198.10 123.20 200.96 130.88 207.85 134.03 C 198.43 136.80 188.47 136.61 178.85 135.17 C 182.01 135.13 185.17 134.91 188.33 134.71 C 184.53 127.49 178.90 121.48 174.46 114.67 Z" />
</g>
<g id="#352ce5ff">
<path fill="#352ce5" opacity="1.00" d=" M 140.78 131.83 C 148.63 134.02 156.28 136.86 164.15 139.01 L 164.22 139.21 C 165.22 141.87 166.55 144.42 168.30 146.67 C 172.68 152.42 176.84 158.34 180.53 164.55 C 173.80 163.60 167.00 162.65 160.48 160.69 C 157.81 157.27 155.49 153.59 152.94 150.07 C 148.75 144.09 144.07 138.40 140.78 131.83 Z" />
</g>
<g id="#3c23bdff">
<path fill="#3c23bd" opacity="1.00" d=" M 168.30 146.67 C 166.55 144.42 165.22 141.87 164.22 139.21 C 172.05 141.11 179.76 143.55 187.70 144.96 L 187.83 145.20 C 191.27 152.20 196.62 157.99 200.41 164.78 C 193.81 165.75 187.12 165.32 180.53 164.55 C 176.84 158.34 172.68 152.42 168.30 146.67 Z" />
</g>
<g id="#4b1b70ff">
<path fill="#4b1b70" opacity="1.00" d=" M 209.81 147.66 C 216.14 147.39 223.36 146.01 226.92 140.15 C 225.70 147.02 222.52 153.57 217.20 158.20 C 214.59 154.79 212.12 151.28 209.81 147.66 Z" />
</g>
<g id="#421e9dff">
<path fill="#421e9d" opacity="1.00" d=" M 187.83 145.20 C 191.79 145.77 195.73 146.55 199.72 146.91 L 199.70 147.21 C 199.66 147.77 199.58 148.90 199.55 149.46 C 202.81 153.81 205.89 158.30 208.93 162.82 C 206.12 163.60 203.28 164.26 200.41 164.78 C 196.62 157.99 191.27 152.20 187.83 145.20 Z" />
</g>
<g id="#451d89ff">
<path fill="#451d89" opacity="1.00" d=" M 199.55 149.46 C 199.58 148.90 199.66 147.77 199.70 147.21 C 203.07 147.37 206.44 147.54 209.81 147.66 C 212.12 151.28 214.59 154.79 217.20 158.20 C 214.62 160.03 211.84 161.57 208.93 162.82 C 205.89 158.30 202.81 153.81 199.55 149.46 Z" />
</g>
<g id="#000000ff">
<path fill="#000000" opacity="1.00" d=" M 113.47 166.52 C 115.90 163.38 120.18 162.19 124.00 162.82 C 125.84 163.62 125.47 165.71 125.66 167.33 C 123.44 167.94 121.12 168.13 118.93 168.84 C 116.77 170.20 116.55 172.88 116.50 175.19 C 119.16 175.15 121.83 175.13 124.48 175.49 C 124.53 176.80 124.73 178.13 124.54 179.44 C 122.33 181.25 119.23 180.27 116.60 180.56 C 116.50 188.52 116.81 196.49 116.44 204.44 C 114.68 204.75 111.44 205.49 111.43 202.77 C 111.19 195.38 111.42 187.98 111.34 180.58 C 109.07 180.53 106.80 180.47 104.53 180.32 C 104.34 178.73 103.71 176.98 104.77 175.55 C 106.86 174.99 109.03 175.19 111.16 175.19 C 111.30 172.19 111.37 168.91 113.47 166.52 Z" />
<path fill="#000000" opacity="1.00" d=" M 129.77 164.87 C 130.26 162.51 132.87 163.45 134.55 163.43 C 135.41 167.57 135.13 171.81 135.15 176.01 C 135.15 183.85 135.16 191.70 135.15 199.54 C 135.97 199.61 137.62 199.74 138.44 199.80 C 138.65 201.35 138.75 202.91 138.76 204.48 C 135.88 204.92 131.30 206.52 129.75 203.09 C 129.58 190.36 129.55 177.60 129.77 164.87 Z" />
<path fill="#000000" opacity="1.00" d=" M 60.73 171.22 C 59.38 169.21 61.60 166.19 63.93 167.39 C 66.34 167.72 65.40 170.60 65.34 172.26 C 63.75 172.19 61.53 173.19 60.73 171.22 Z" />
<path fill="#000000" opacity="1.00" d=" M 60.51 176.39 C 60.84 173.35 66.01 174.11 65.60 177.05 C 65.58 186.19 65.87 195.36 65.42 204.50 C 63.67 204.76 60.37 205.51 60.47 202.76 C 60.28 193.98 60.20 185.16 60.51 176.39 Z" />
<path fill="#000000" opacity="1.00" d=" M 71.75 178.00 C 71.77 176.42 73.06 173.85 75.01 174.71 C 76.49 174.79 76.91 176.52 77.82 177.43 C 82.24 174.08 88.54 173.63 93.39 176.30 C 98.04 178.71 101.39 183.72 101.38 189.01 C 101.38 194.15 101.44 199.30 101.28 204.44 C 99.70 204.63 98.11 204.71 96.53 204.69 C 95.13 198.57 96.59 192.23 95.38 186.12 C 93.64 180.86 86.95 178.61 82.18 181.12 C 79.51 182.75 77.32 185.61 77.38 188.86 C 77.16 193.59 77.35 198.33 77.27 203.07 C 76.97 203.51 76.37 204.37 76.07 204.81 C 74.89 204.77 73.72 204.73 72.55 204.68 C 72.02 202.84 71.60 200.96 71.70 199.03 C 71.77 192.02 71.64 185.01 71.75 178.00 Z" />
<path fill="#000000" opacity="1.00" d=" M 143.54 176.44 C 144.01 173.98 147.24 174.02 148.49 175.87 C 149.26 182.04 147.56 188.52 149.77 194.49 C 151.52 197.75 155.28 200.00 159.02 199.63 C 163.78 199.36 167.76 194.77 167.60 190.05 C 167.69 185.62 167.60 181.20 167.60 176.78 C 167.97 176.19 168.70 175.01 169.07 174.42 C 171.29 174.26 173.38 175.51 173.11 177.98 C 172.93 186.86 173.74 195.82 172.53 204.64 C 170.19 205.16 167.92 204.72 167.12 202.17 C 163.81 204.22 159.85 205.77 155.92 204.92 C 149.25 203.90 143.60 197.90 143.42 191.08 C 143.34 186.21 143.11 181.30 143.54 176.44 Z" />
<path fill="#000000" opacity="1.00" d=" M 175.56 178.86 C 174.10 176.21 177.95 173.91 179.80 175.99 C 182.57 179.21 185.11 182.63 187.92 185.83 C 190.68 182.58 193.13 179.08 196.00 175.93 C 197.27 174.55 199.63 175.27 200.46 176.80 C 200.84 178.40 199.52 179.59 198.75 180.80 C 196.22 183.87 193.76 186.99 191.26 190.08 C 194.25 194.10 197.77 197.71 200.44 201.96 C 201.23 204.51 197.47 205.88 195.96 204.14 C 193.06 201.05 190.61 197.58 187.88 194.35 C 185.17 197.50 182.70 200.86 179.96 203.97 C 178.94 205.34 176.93 205.04 175.70 204.17 C 174.54 201.96 176.44 200.20 177.65 198.55 C 179.97 195.76 182.22 192.92 184.44 190.05 C 181.49 186.32 178.35 182.72 175.56 178.86 Z" />
</g>
</svg>
