<?xml version="1.0" encoding="UTF-8" ?>
<!DOCTYPE svg PUBLIC "-//W3C//DTD SVG 1.1//EN" "http://www.w3.org/Graphics/SVG/1.1/DTD/svg11.dtd">
<svg width="250pt" height="250pt" viewBox="0 0 250 250" version="1.1" xmlns="http://www.w3.org/2000/svg">
<g id="#ffffffff">
<path fill="#ffffff" opacity="1.00" d=" M 0.00 0.00 L 250.00 0.00 L 250.00 250.00 L 0.00 250.00 L 0.00 0.00 M 113.38 16.17 C 108.66 16.86 103.95 17.60 99.28 18.57 C 66.76 25.91 38.31 48.67 23.47 78.44 C 17.41 91.12 12.92 104.80 12.10 118.91 C 11.12 125.91 11.11 133.09 12.10 140.08 C 12.90 153.67 17.07 166.90 22.83 179.17 C 29.69 193.97 40.38 206.68 52.64 217.32 C 68.72 230.56 88.42 239.36 109.01 242.48 C 117.29 243.80 125.69 243.47 134.05 243.37 C 153.92 241.86 173.27 234.87 189.77 223.72 C 215.82 206.07 233.89 177.23 238.33 146.07 C 239.14 137.07 240.57 127.95 238.81 118.95 C 238.51 111.08 236.87 103.30 234.35 95.85 C 228.06 74.48 214.88 55.40 197.72 41.27 C 174.51 21.98 143.29 12.92 113.38 16.17 Z" />
<path fill="#ffffff" opacity="1.00" d=" M 93.49 73.29 C 97.09 60.59 109.00 51.21 121.97 49.67 C 137.39 47.90 153.17 58.30 157.48 73.24 C 159.94 82.42 159.22 92.87 153.93 100.96 C 150.80 106.38 145.76 110.30 140.47 113.46 C 140.43 124.17 140.49 134.89 140.44 145.60 C 148.99 150.15 155.87 158.12 157.97 167.69 C 159.72 176.24 158.91 185.69 154.14 193.18 C 149.40 201.14 141.11 207.10 131.91 208.54 C 120.21 211.11 107.30 206.55 99.71 197.28 C 90.05 185.94 89.47 168.19 98.23 156.18 C 101.32 151.61 105.87 148.31 110.60 145.59 C 110.55 134.89 110.62 124.18 110.56 113.48 C 101.12 108.40 93.70 99.17 92.47 88.33 C 91.16 83.32 92.31 78.19 93.49 73.29 M 105.30 70.29 C 101.08 76.61 100.69 84.94 103.10 92.00 C 105.85 99.27 112.47 104.37 119.73 106.67 C 119.80 121.89 119.79 137.12 119.74 152.35 C 111.10 154.75 103.53 161.96 102.05 170.99 C 101.02 177.22 101.87 184.08 105.68 189.28 C 109.93 195.56 117.30 199.85 124.99 199.60 C 132.75 200.12 140.38 196.13 144.86 189.86 C 149.89 183.25 150.62 173.96 147.57 166.35 C 144.64 159.52 138.41 154.35 131.28 152.36 C 131.19 137.13 131.21 121.90 131.26 106.66 C 141.22 103.82 149.47 94.70 149.35 84.03 C 150.29 71.18 138.84 59.10 126.02 59.26 C 117.79 58.78 109.72 63.47 105.30 70.29 Z" />
</g>
<g id="#0f0f0fff">
<path fill="#0f0f0f" opacity="1.00" d=" M 113.38 16.17 C 143.29 12.92 174.51 21.98 197.72 41.27 C 214.88 55.40 228.06 74.48 234.35 95.85 C 236.87 103.30 238.51 111.08 238.81 118.95 C 240.57 127.95 239.14 137.07 238.33 146.07 C 233.89 177.23 215.82 206.07 189.77 223.72 C 173.27 234.87 153.92 241.86 134.05 243.37 C 125.69 243.47 117.29 243.80 109.01 242.48 C 88.42 239.36 68.72 230.56 52.64 217.32 C 40.38 206.68 29.69 193.97 22.83 179.17 C 17.07 166.90 12.90 153.67 12.10 140.08 C 11.11 133.09 11.12 125.91 12.10 118.91 C 12.92 104.80 17.41 91.12 23.47 78.44 C 38.31 48.67 66.76 25.91 99.28 18.57 C 103.95 17.60 108.66 16.86 113.38 16.17 M 93.49 73.29 C 92.31 78.19 91.16 83.32 92.47 88.33 C 93.70 99.17 101.12 108.40 110.56 113.48 C 110.62 124.18 110.55 134.89 110.60 145.59 C 105.87 148.31 101.32 151.61 98.23 156.18 C 89.47 168.19 90.05 185.94 99.71 197.28 C 107.30 206.55 120.21 211.11 131.91 208.54 C 141.11 207.10 149.40 201.14 154.14 193.18 C 158.91 185.69 159.72 176.24 157.97 167.69 C 155.87 158.12 148.99 150.15 140.44 145.60 C 140.49 134.89 140.43 124.17 140.47 113.46 C 145.76 110.30 150.80 106.38 153.93 100.96 C 159.22 92.87 159.94 82.42 157.48 73.24 C 153.17 58.30 137.39 47.90 121.97 49.67 C 109.00 51.21 97.09 60.59 93.49 73.29 Z" />
<path fill="#0f0f0f" opacity="1.00" d=" M 105.30 70.29 C 109.72 63.47 117.79 58.78 126.02 59.26 C 138.84 59.10 150.29 71.18 149.35 84.03 C 149.47 94.70 141.22 103.82 131.26 106.66 C 131.21 121.90 131.19 137.13 131.28 152.36 C 138.41 154.35 144.64 159.52 147.57 166.35 C 150.62 173.96 149.89 183.25 144.86 189.86 C 140.38 196.13 132.75 200.12 124.99 199.60 C 117.30 199.85 109.93 195.56 105.68 189.28 C 101.87 184.08 101.02 177.22 102.05 170.99 C 103.53 161.96 111.10 154.75 119.74 152.35 C 119.79 137.12 119.80 121.89 119.73 106.67 C 112.47 104.37 105.85 99.27 103.10 92.00 C 100.69 84.94 101.08 76.61 105.30 70.29 Z" />
</g>
</svg>
