<?xml version="1.0" encoding="UTF-8" ?>
<!DOCTYPE svg PUBLIC "-//W3C//DTD SVG 1.1//EN" "http://www.w3.org/Graphics/SVG/1.1/DTD/svg11.dtd">
<svg width="250pt" height="250pt" viewBox="0 0 250 250" version="1.1" xmlns="http://www.w3.org/2000/svg">
<g id="#ffffffff">
<path fill="#ffffff" opacity="1.00" d=" M 0.00 0.00 L 120.35 0.00 C 92.26 1.09 64.61 11.83 43.40 30.32 C 17.25 52.57 1.24 86.04 0.00 120.33 L 0.00 0.00 Z" />
<path fill="#ffffff" opacity="1.00" d=" M 128.72 0.00 L 250.00 0.00 L 250.00 120.53 C 248.84 86.17 232.81 52.60 206.60 30.32 C 185.15 11.65 157.13 0.82 128.72 0.00 Z" />
<path fill="#ffffff" opacity="1.00" d=" M 219.20 207.15 C 238.15 185.63 249.17 157.39 250.00 128.75 L 250.00 250.00 L 130.45 250.00 C 164.22 248.49 197.14 232.81 219.20 207.15 Z" />
<path fill="#ffffff" opacity="1.00" d=" M 0.00 130.36 C 1.48 164.37 17.37 197.53 43.33 219.62 C 64.55 238.14 92.24 248.91 120.36 250.00 L 0.00 250.00 L 0.00 130.36 Z" />
</g>
<g id="#1a1f29ff">
<path fill="#1a1f29" opacity="1.00" d=" M 120.35 0.00 L 128.72 0.00 C 157.13 0.82 185.15 11.65 206.60 30.32 C 232.81 52.60 248.84 86.17 250.00 120.53 L 250.00 128.75 C 249.17 157.39 238.15 185.63 219.20 207.15 C 197.14 232.81 164.22 248.49 130.45 250.00 L 120.36 250.00 C 92.24 248.91 64.55 238.14 43.33 219.62 C 17.37 197.53 1.48 164.37 0.00 130.36 L 0.00 120.33 C 1.24 86.04 17.25 52.57 43.40 30.32 C 64.61 11.83 92.26 1.09 120.35 0.00 M 67.37 61.30 C 54.81 72.59 45.71 87.68 41.66 104.08 C 37.76 119.54 38.43 136.01 43.07 151.24 C 65.73 151.39 88.39 151.22 111.05 151.32 C 107.73 162.36 103.80 173.22 100.25 184.19 C 98.90 187.83 98.07 191.68 96.28 195.15 C 82.83 189.68 71.26 180.14 62.78 168.39 C 58.84 168.44 54.89 168.38 50.94 168.46 C 59.75 183.69 73.48 195.99 89.49 203.26 C 104.87 210.37 122.38 212.42 139.06 209.78 C 158.03 206.71 175.83 196.97 188.67 182.66 C 201.17 169.02 208.99 151.17 210.58 132.73 C 211.29 121.27 210.77 109.35 206.45 98.59 C 183.95 98.84 161.45 98.66 138.95 98.69 C 143.64 84.01 148.29 69.26 153.70 54.85 C 162.27 58.47 170.30 63.47 176.98 69.98 C 177.85 70.70 178.64 71.90 179.95 71.67 C 184.02 71.75 188.09 71.70 192.16 71.63 C 176.43 51.22 150.83 38.85 125.07 39.14 C 103.95 38.90 82.93 47.07 67.37 61.30 Z" />
<path fill="#1a1f29" opacity="1.00" d=" M 93.84 55.95 C 112.26 47.59 134.21 46.86 152.93 54.67 C 127.79 79.53 102.81 104.57 77.91 129.66 C 101.65 129.83 125.40 129.60 149.15 129.77 C 138.92 140.24 128.50 150.52 118.14 160.85 C 120.12 154.42 122.35 148.07 124.48 141.69 C 100.02 141.66 75.55 141.70 51.09 141.67 C 47.26 124.82 49.37 106.63 57.22 91.20 C 64.88 75.69 78.08 63.04 93.84 55.95 Z" />
<path fill="#1a1f29" opacity="1.00" d=" M 100.90 120.22 C 111.06 109.71 121.53 99.49 131.86 89.13 C 129.88 95.57 127.65 101.92 125.52 108.30 C 149.97 108.34 174.42 108.32 198.87 108.31 C 202.68 124.89 200.70 142.78 193.16 158.05 C 185.75 173.48 172.87 186.18 157.40 193.50 C 138.74 202.42 116.21 203.32 97.07 195.32 C 122.22 170.48 147.18 145.42 172.10 120.35 C 148.37 120.16 124.63 120.41 100.90 120.22 Z" />
</g>
<g id="#4ded54ff">
<path fill="#4ded54" opacity="1.00" d=" M 67.37 61.30 C 82.93 47.07 103.95 38.90 125.07 39.14 C 150.83 38.85 176.43 51.22 192.16 71.63 C 188.09 71.70 184.02 71.75 179.95 71.67 C 178.64 71.90 177.85 70.70 176.98 69.98 C 170.30 63.47 162.27 58.47 153.70 54.85 C 148.29 69.26 143.64 84.01 138.95 98.69 C 161.45 98.66 183.95 98.84 206.45 98.59 C 210.77 109.35 211.29 121.27 210.58 132.73 C 208.99 151.17 201.17 169.02 188.67 182.66 C 175.83 196.97 158.03 206.71 139.06 209.78 C 122.38 212.42 104.87 210.37 89.49 203.26 C 73.48 195.99 59.75 183.69 50.94 168.46 C 54.89 168.38 58.84 168.44 62.78 168.39 C 71.26 180.14 82.83 189.68 96.28 195.15 C 98.07 191.68 98.90 187.83 100.25 184.19 C 103.80 173.22 107.73 162.36 111.05 151.32 C 88.39 151.22 65.73 151.39 43.07 151.24 C 38.43 136.01 37.76 119.54 41.66 104.08 C 45.71 87.68 54.81 72.59 67.37 61.30 M 93.84 55.95 C 78.08 63.04 64.88 75.69 57.22 91.20 C 49.37 106.63 47.26 124.82 51.09 141.67 C 75.55 141.70 100.02 141.66 124.48 141.69 C 122.35 148.07 120.12 154.42 118.14 160.85 C 128.50 150.52 138.92 140.24 149.15 129.77 C 125.40 129.60 101.65 129.83 77.91 129.66 C 102.81 104.57 127.79 79.53 152.93 54.67 C 134.21 46.86 112.26 47.59 93.84 55.95 M 100.90 120.22 C 124.63 120.41 148.37 120.16 172.10 120.35 C 147.18 145.42 122.22 170.48 97.07 195.32 C 116.21 203.32 138.74 202.42 157.40 193.50 C 172.87 186.18 185.75 173.48 193.16 158.05 C 200.70 142.78 202.68 124.89 198.87 108.31 C 174.42 108.32 149.97 108.34 125.52 108.30 C 127.65 101.92 129.88 95.57 131.86 89.13 C 121.53 99.49 111.06 109.71 100.90 120.22 Z" />
</g>
</svg>
