<?xml version="1.0" encoding="UTF-8" ?>
<!DOCTYPE svg PUBLIC "-//W3C//DTD SVG 1.1//EN" "http://www.w3.org/Graphics/SVG/1.1/DTD/svg11.dtd">
<svg width="250pt" height="250pt" viewBox="0 0 250 250" version="1.1" xmlns="http://www.w3.org/2000/svg">
<g id="#ffffffff">
<path fill="#ffffff" opacity="1.00" d=" M 0.00 0.00 L 250.00 0.00 L 250.00 114.60 C 249.38 112.25 248.64 109.94 248.02 107.59 C 247.86 106.89 247.53 105.49 247.37 104.78 C 247.30 104.51 247.16 103.95 247.09 103.68 C 246.68 103.27 245.88 102.46 245.48 102.05 C 244.21 93.08 242.67 83.91 237.92 76.03 C 233.61 66.23 228.01 57.01 221.22 48.73 C 214.87 42.79 209.83 35.46 202.67 30.42 C 197.83 26.76 193.05 22.95 187.74 19.99 C 181.75 16.99 175.83 13.82 169.73 11.06 C 163.85 8.79 157.70 7.29 151.71 5.34 C 145.50 3.28 138.88 3.79 132.51 2.59 C 125.13 1.36 117.55 0.90 110.14 2.14 C 102.91 3.42 95.56 4.30 88.56 6.62 C 78.47 9.92 68.80 14.42 59.51 19.55 C 54.96 22.06 50.82 25.26 47.02 28.80 C 39.09 34.22 32.44 41.31 26.84 49.08 C 20.30 56.19 15.80 64.83 11.51 73.40 C 6.77 83.93 3.38 95.16 2.06 106.65 C 1.75 110.18 1.00 113.66 0.00 117.06 L 0.00 0.00 Z" />
<path fill="#ffffff" opacity="1.00" d=" M 248.10 140.23 C 248.66 137.60 249.41 135.02 250.00 132.39 L 250.00 250.00 L 0.00 250.00 L 0.00 133.99 C 2.38 141.22 2.40 148.97 4.87 156.18 C 6.56 161.07 7.95 166.06 9.67 170.94 C 14.37 181.71 20.87 191.61 28.11 200.84 C 32.27 206.69 37.20 212.02 43.02 216.25 C 49.60 220.86 55.47 226.47 62.48 230.46 C 77.55 238.54 94.14 243.51 111.00 246.12 C 116.31 246.65 121.66 246.42 126.99 246.49 C 135.00 246.71 142.78 244.50 150.71 243.77 C 158.81 241.61 167.14 239.66 174.49 235.51 C 178.72 233.21 183.34 231.79 187.74 229.89 C 194.51 223.87 202.95 219.84 208.75 212.74 C 212.42 208.49 217.00 205.19 220.98 201.26 C 224.12 196.93 226.99 192.41 230.03 188.00 C 234.24 181.34 237.01 173.86 240.77 166.94 C 245.03 158.64 246.45 149.31 248.10 140.23 Z" />
</g>
<g id="#ede9b7ff">
<path fill="#ede9b7" opacity="1.00" d=" M 110.14 2.14 C 117.55 0.90 125.13 1.36 132.51 2.59 C 138.88 3.79 145.50 3.28 151.71 5.34 C 157.70 7.29 163.85 8.79 169.73 11.06 C 169.28 11.83 168.84 12.61 168.39 13.38 C 174.13 15.58 179.71 18.20 184.98 21.37 C 216.94 40.41 239.17 75.17 242.27 112.33 C 242.64 120.46 242.68 128.63 242.07 136.75 C 240.69 141.83 239.37 146.93 238.35 152.10 C 238.53 135.29 239.53 118.06 234.06 101.87 C 231.61 90.96 227.90 80.30 222.47 70.50 C 217.94 61.68 211.65 53.94 205.24 46.43 C 197.62 37.81 189.55 29.01 179.10 23.84 C 169.46 18.32 158.93 14.40 148.10 11.96 C 135.93 9.18 123.35 9.11 110.95 9.81 C 88.13 12.31 66.29 22.08 48.81 36.90 C 32.56 50.25 20.53 68.38 13.06 87.95 C 9.76 94.30 7.90 101.24 6.70 108.27 C 5.15 107.72 3.61 107.18 2.06 106.65 C 3.38 95.16 6.77 83.93 11.51 73.40 C 15.80 64.83 20.30 56.19 26.84 49.08 C 32.08 46.01 35.36 40.74 39.99 36.95 C 42.79 34.66 45.06 31.82 47.02 28.80 C 50.82 25.26 54.96 22.06 59.51 19.55 C 68.80 14.42 78.47 9.92 88.56 6.62 C 95.56 4.30 102.91 3.42 110.14 2.14 M 112.43 4.02 C 114.87 4.19 117.32 4.24 119.76 4.16 C 119.17 0.35 113.64 0.86 112.43 4.02 M 99.30 6.23 C 102.20 6.12 105.08 5.74 107.90 5.02 C 105.20 3.52 100.38 2.07 99.30 6.23 Z" />
</g>
<g id="#90825fff">
<path fill="#90825f" opacity="1.00" d=" M 112.43 4.02 C 113.64 0.86 119.17 0.35 119.76 4.16 C 117.32 4.24 114.87 4.19 112.43 4.02 Z" />
</g>
<g id="#c3b68fff">
<path fill="#c3b68f" opacity="1.00" d=" M 99.30 6.23 C 100.38 2.07 105.20 3.52 107.90 5.02 C 105.08 5.74 102.20 6.12 99.30 6.23 Z" />
</g>
<g id="#a99864ff">
<path fill="#a99864" opacity="1.00" d=" M 48.81 36.90 C 66.29 22.08 88.13 12.31 110.95 9.81 C 123.35 9.11 135.93 9.18 148.10 11.96 C 158.93 14.40 169.46 18.32 179.10 23.84 C 181.61 26.32 183.89 29.02 186.19 31.68 C 171.13 22.79 154.70 15.37 137.12 13.62 C 133.02 13.14 128.90 12.91 124.78 12.87 C 124.06 14.68 123.29 16.46 122.60 18.28 C 122.18 16.92 121.67 15.60 121.12 14.30 C 120.93 13.85 120.54 12.95 120.34 12.50 C 110.10 13.56 99.67 14.01 89.86 17.47 C 79.43 20.71 69.19 24.94 60.23 31.28 C 56.70 33.74 53.26 36.33 50.03 39.17 C 49.72 38.60 49.11 37.47 48.81 36.90 Z" />
<path fill="#a99864" opacity="1.00" d=" M 46.46 47.46 C 46.68 44.81 49.60 44.75 51.60 44.38 C 50.91 45.86 49.53 47.19 49.48 48.88 C 50.13 51.47 51.51 53.80 52.61 56.21 C 50.00 53.88 45.44 51.66 46.46 47.46 Z" />
</g>
<g id="#baaf7eff">
<path fill="#baaf7e" opacity="1.00" d=" M 169.73 11.06 C 175.83 13.82 181.75 16.99 187.74 19.99 C 186.81 20.44 185.90 20.90 184.98 21.37 C 179.71 18.20 174.13 15.58 168.39 13.38 C 168.84 12.61 169.28 11.83 169.73 11.06 Z" />
<path fill="#baaf7e" opacity="1.00" d=" M 15.21 129.41 C 16.38 129.30 17.54 129.19 18.71 129.08 C 18.63 131.21 18.58 133.35 18.54 135.48 C 17.89 135.56 16.59 135.70 15.94 135.78 C 15.66 133.66 15.42 131.54 15.21 129.41 Z" />
</g>
<g id="#d1c08aff">
<path fill="#d1c08a" opacity="1.00" d=" M 89.86 17.47 C 99.67 14.01 110.10 13.56 120.34 12.50 C 120.54 12.95 120.93 13.85 121.12 14.30 C 118.41 17.72 116.91 22.21 118.60 26.45 C 118.98 28.88 121.65 29.25 123.49 30.14 C 122.22 26.31 120.62 22.18 122.60 18.28 C 123.29 16.46 124.06 14.68 124.78 12.87 C 128.90 12.91 133.02 13.14 137.12 13.62 C 137.62 14.41 138.12 15.20 138.63 16.00 C 137.44 16.99 136.25 17.99 135.06 18.99 C 134.55 18.02 134.05 17.05 133.55 16.09 C 132.14 16.70 130.73 17.32 129.32 17.95 C 131.07 21.81 131.53 26.03 131.88 30.21 C 133.57 33.41 136.46 35.95 139.95 36.97 C 145.77 38.80 151.87 39.87 157.35 42.66 C 170.75 49.45 183.20 58.68 192.03 70.98 C 198.57 79.12 202.50 88.84 207.05 98.13 C 210.85 111.96 212.46 126.57 209.86 140.77 C 206.66 157.06 199.45 172.86 187.61 184.70 C 182.22 189.95 175.58 193.61 168.93 197.00 C 162.71 200.15 158.13 205.82 151.65 208.52 C 147.44 210.27 142.99 211.30 138.62 212.54 C 138.43 213.04 138.06 214.04 137.88 214.54 C 135.97 214.63 134.06 214.70 132.15 214.79 C 133.80 217.21 135.82 219.53 136.60 222.41 C 137.15 224.97 134.03 225.83 132.53 227.20 C 132.87 228.22 133.20 229.24 133.55 230.27 C 135.52 229.20 137.48 228.11 139.41 226.95 C 139.52 227.93 139.64 228.90 139.76 229.88 C 136.48 232.32 133.08 235.02 128.89 235.57 C 120.73 236.68 112.43 236.40 104.25 235.66 C 96.27 234.98 88.64 232.37 80.75 231.19 C 91.35 238.69 104.64 239.78 117.04 242.01 C 124.07 243.15 131.05 241.08 137.95 239.99 C 142.10 239.41 146.16 238.34 150.19 237.22 C 160.22 234.65 170.20 231.40 179.17 226.13 C 186.42 221.89 193.16 216.84 199.89 211.84 C 198.42 213.57 197.04 215.38 195.64 217.17 C 196.02 217.55 196.78 218.33 197.16 218.71 C 192.28 222.71 187.00 226.16 181.89 229.84 C 183.83 229.86 185.79 229.88 187.74 229.89 C 183.34 231.79 178.72 233.21 174.49 235.51 C 167.14 239.66 158.81 241.61 150.71 243.77 C 142.78 244.50 135.00 246.71 126.99 246.49 C 121.66 246.42 116.31 246.65 111.00 246.12 C 94.14 243.51 77.55 238.54 62.48 230.46 C 55.47 226.47 49.60 220.86 43.02 216.25 C 43.17 215.24 43.32 214.23 43.48 213.23 C 40.40 209.84 35.39 206.60 36.84 201.30 C 44.96 209.51 53.66 217.26 63.80 222.92 C 63.58 221.91 63.37 220.90 63.15 219.89 C 66.35 221.72 69.67 223.31 72.99 224.91 C 85.36 231.95 99.91 235.03 114.08 234.02 C 112.07 232.64 109.83 231.47 108.25 229.58 C 106.99 225.04 108.45 220.34 109.50 215.91 C 110.43 220.69 111.28 225.50 112.65 230.18 C 113.64 229.65 114.64 229.13 115.64 228.61 C 115.52 223.48 115.78 218.36 116.20 213.25 C 121.76 212.58 127.31 211.90 132.85 211.03 C 138.51 210.52 144.30 209.93 149.50 207.43 C 154.35 205.36 158.14 201.60 161.71 197.84 C 159.60 188.30 151.94 181.57 148.77 172.49 C 152.37 171.15 156.09 170.03 159.96 169.95 C 169.37 169.62 178.78 170.07 188.19 170.34 C 180.82 172.10 173.19 171.03 165.70 171.47 C 168.77 177.33 172.45 182.84 175.44 188.74 C 184.34 180.83 193.00 172.21 198.45 161.47 C 206.32 146.12 208.71 128.30 206.64 111.26 C 204.17 97.01 197.87 83.52 188.61 72.40 C 176.10 55.60 156.27 45.57 135.91 42.09 C 124.88 36.76 112.36 38.92 100.77 40.73 C 106.10 38.93 111.53 37.36 116.71 35.12 C 114.19 33.34 111.60 31.65 109.16 29.76 C 109.78 29.72 111.03 29.65 111.66 29.61 C 110.85 26.83 109.74 24.06 109.73 21.13 C 110.36 19.12 111.51 17.34 112.48 15.49 C 110.52 15.93 107.59 15.65 107.09 18.20 C 106.23 21.71 107.13 25.36 108.01 28.78 C 106.68 29.07 105.35 29.34 104.02 29.62 C 102.30 27.51 100.54 25.44 98.73 23.40 C 98.16 26.53 97.61 29.67 97.06 32.80 C 95.97 30.61 94.89 28.41 93.82 26.20 C 94.93 26.95 96.03 27.72 97.13 28.49 C 96.45 25.60 95.83 22.70 95.22 19.80 C 94.70 19.57 93.66 19.12 93.14 18.90 C 92.05 18.42 90.95 17.94 89.86 17.47 M 97.80 22.70 C 99.49 22.74 101.18 22.77 102.87 22.81 C 102.84 21.03 102.81 19.25 102.76 17.46 C 100.17 18.19 98.76 20.34 97.80 22.70 M 120.02 214.28 C 120.46 217.37 122.78 219.53 124.28 222.10 C 124.21 224.67 121.93 226.43 120.51 228.37 C 120.76 229.27 121.02 230.17 121.28 231.07 C 123.09 230.55 125.89 230.85 126.23 228.39 C 127.06 224.25 127.28 219.80 126.16 215.69 C 124.50 214.19 122.07 214.58 120.02 214.28 Z" />
</g>
<g id="#c6b37aff">
<path fill="#c6b37a" opacity="1.00" d=" M 137.12 13.62 C 154.70 15.37 171.13 22.79 186.19 31.68 C 183.89 29.02 181.61 26.32 179.10 23.84 C 189.55 29.01 197.62 37.81 205.24 46.43 C 203.86 47.83 202.49 49.25 201.12 50.66 C 202.32 51.81 203.53 52.94 204.65 54.16 C 203.73 54.31 202.81 54.47 201.89 54.63 C 200.75 57.29 199.58 59.93 198.39 62.57 C 200.38 61.76 202.37 60.94 204.36 60.12 C 205.02 61.06 205.67 62.02 206.34 62.97 C 205.35 64.05 204.36 65.12 203.38 66.19 C 202.28 65.55 201.18 64.91 200.08 64.27 C 198.17 66.22 196.25 68.17 194.34 70.12 C 199.51 78.96 205.40 87.81 207.05 98.13 C 202.50 88.84 198.57 79.12 192.03 70.98 C 183.20 58.68 170.75 49.45 157.35 42.66 C 151.87 39.87 145.77 38.80 139.95 36.97 C 136.46 35.95 133.57 33.41 131.88 30.21 C 133.82 26.77 134.72 22.89 135.06 18.99 C 136.25 17.99 137.44 16.99 138.63 16.00 C 138.12 15.20 137.62 14.41 137.12 13.62 M 136.72 19.47 C 139.51 22.75 138.86 26.99 138.17 30.88 C 138.83 30.85 140.14 30.80 140.79 30.77 C 141.67 26.11 142.11 21.31 140.98 16.65 C 139.54 17.56 138.14 18.52 136.72 19.47 M 144.35 30.62 C 145.05 32.49 147.40 32.43 148.96 33.14 C 148.27 31.07 147.51 29.02 146.76 26.97 C 147.62 23.97 148.42 20.96 148.98 17.89 C 144.31 20.15 142.73 25.93 144.35 30.62 M 158.70 21.69 C 157.14 22.90 156.65 24.95 155.80 26.65 C 157.72 26.18 159.62 25.69 161.53 25.20 C 161.66 27.04 161.94 29.06 160.57 30.54 C 159.60 32.51 157.05 34.09 157.55 36.51 C 160.36 37.86 163.02 35.32 163.56 32.66 C 164.33 28.87 163.74 24.97 163.51 21.16 C 161.92 21.30 160.18 20.98 158.70 21.69 M 166.42 32.69 C 168.72 31.39 171.14 30.00 173.89 30.44 C 172.43 34.29 169.82 37.49 166.94 40.36 C 168.84 40.43 171.28 41.52 172.71 39.71 C 175.14 36.87 174.92 32.74 174.59 29.25 C 174.57 27.51 172.94 25.81 171.14 26.33 C 167.89 26.51 167.09 30.13 166.42 32.69 M 178.68 33.36 C 178.21 36.73 177.32 40.02 176.44 43.30 C 180.52 41.60 182.88 37.65 183.22 33.34 C 181.70 33.34 180.19 33.35 178.68 33.36 M 185.54 37.54 C 183.78 38.84 183.00 40.99 181.91 42.81 C 184.71 41.86 187.60 40.97 190.60 41.39 C 188.07 44.64 185.21 47.63 182.80 50.98 C 184.90 50.64 187.50 50.85 188.87 48.87 C 191.68 45.66 190.59 41.10 190.54 37.23 C 188.88 37.29 187.13 36.96 185.54 37.54 M 191.30 47.24 C 191.23 48.38 191.16 49.53 191.09 50.67 C 193.63 49.86 196.18 49.10 198.75 48.39 C 198.76 47.22 198.78 46.05 198.80 44.88 C 196.11 44.98 193.56 45.82 191.30 47.24 M 190.82 58.27 C 195.37 59.36 199.36 55.44 199.15 50.93 C 195.88 52.75 193.04 55.26 190.82 58.27 Z" />
</g>
<g id="#8d7d52ff">
<path fill="#8d7d52" opacity="1.00" d=" M 107.09 18.20 C 107.59 15.65 110.52 15.93 112.48 15.49 C 111.51 17.34 110.36 19.12 109.73 21.13 C 109.74 24.06 110.85 26.83 111.66 29.61 C 111.03 29.65 109.78 29.72 109.16 29.76 C 108.87 29.52 108.29 29.03 108.01 28.78 C 107.13 25.36 106.23 21.71 107.09 18.20 Z" />
</g>
<g id="#938253ff">
<path fill="#938253" opacity="1.00" d=" M 118.60 26.45 C 116.91 22.21 118.41 17.72 121.12 14.30 C 121.67 15.60 122.18 16.92 122.60 18.28 C 120.62 22.18 122.22 26.31 123.49 30.14 C 121.65 29.25 118.98 28.88 118.60 26.45 Z" />
</g>
<g id="#9c8c5dff">
<path fill="#9c8c5d" opacity="1.00" d=" M 129.32 17.95 C 130.73 17.32 132.14 16.70 133.55 16.09 C 134.05 17.05 134.55 18.02 135.06 18.99 C 134.72 22.89 133.82 26.77 131.88 30.21 C 131.53 26.03 131.07 21.81 129.32 17.95 Z" />
</g>
<g id="#a3905fff">
<path fill="#a3905f" opacity="1.00" d=" M 136.72 19.47 C 138.14 18.52 139.54 17.56 140.98 16.65 C 142.11 21.31 141.67 26.11 140.79 30.77 C 140.14 30.80 138.83 30.85 138.17 30.88 C 138.86 26.99 139.51 22.75 136.72 19.47 Z" />
</g>
<g id="#dcd09bff">
<path fill="#dcd09b" opacity="1.00" d=" M 60.23 31.28 C 69.19 24.94 79.43 20.71 89.86 17.47 C 90.95 17.94 92.05 18.42 93.14 18.90 C 92.23 20.59 91.31 22.28 90.40 23.98 C 91.54 24.71 92.69 25.45 93.82 26.20 C 94.89 28.41 95.97 30.61 97.06 32.80 C 97.61 29.67 98.16 26.53 98.73 23.40 C 100.54 25.44 102.30 27.51 104.02 29.62 C 105.35 29.34 106.68 29.07 108.01 28.78 C 108.29 29.03 108.87 29.52 109.16 29.76 C 111.60 31.65 114.19 33.34 116.71 35.12 C 111.53 37.36 106.10 38.93 100.77 40.73 C 99.04 41.28 97.34 41.90 95.67 42.61 C 89.23 45.39 81.50 48.40 78.47 55.21 C 80.12 62.08 87.21 66.23 89.04 73.08 C 89.55 75.35 87.17 76.73 86.03 78.35 L 84.91 78.35 C 78.25 78.11 71.59 78.59 64.92 78.43 C 65.56 79.66 66.19 80.89 66.82 82.12 C 64.19 81.81 61.50 81.74 58.88 82.20 C 57.56 82.56 56.26 82.98 54.96 83.38 C 55.47 81.80 55.64 80.04 56.66 78.68 C 59.09 77.18 62.05 77.05 64.78 76.49 C 63.12 75.67 61.47 74.83 59.82 73.99 C 63.40 66.01 69.75 59.86 75.29 53.26 C 79.79 47.78 88.06 45.88 90.23 38.50 C 87.75 37.92 85.27 37.35 82.78 36.81 C 81.27 38.38 79.74 39.94 78.09 41.37 C 75.09 38.15 71.75 34.56 72.31 29.79 C 74.24 30.37 76.16 30.97 78.09 31.58 C 77.17 30.04 76.27 28.50 75.37 26.96 C 73.13 27.55 69.81 27.46 69.17 30.29 C 68.87 33.39 70.50 36.27 71.21 39.23 C 71.53 41.34 71.57 43.48 71.65 45.61 C 70.40 44.47 69.14 43.35 68.00 42.09 C 68.55 42.20 69.64 42.42 70.19 42.52 C 68.65 38.93 66.67 35.53 64.08 32.58 C 63.56 33.24 62.52 34.55 62.00 35.20 C 61.45 33.88 60.84 32.58 60.23 31.28 M 79.98 26.98 C 80.38 31.29 82.94 36.44 87.85 36.58 C 85.77 33.33 83.85 29.94 82.76 26.21 C 83.31 25.85 84.41 25.13 84.96 24.77 C 86.63 25.82 88.32 26.86 90.03 27.86 C 88.60 25.78 87.64 22.61 84.80 22.17 C 82.07 21.65 79.65 24.32 79.98 26.98 Z" />
</g>
<g id="#938254ff">
<path fill="#938254" opacity="1.00" d=" M 97.80 22.70 C 98.76 20.34 100.17 18.19 102.76 17.46 C 102.81 19.25 102.84 21.03 102.87 22.81 C 101.18 22.77 99.49 22.74 97.80 22.70 Z" />
<path fill="#938254" opacity="1.00" d=" M 184.98 21.37 C 185.90 20.90 186.81 20.44 187.74 19.99 C 193.05 22.95 197.83 26.76 202.67 30.42 C 209.83 35.46 214.87 42.79 221.22 48.73 C 228.01 57.01 233.61 66.23 237.92 76.03 C 242.67 83.91 244.21 93.08 245.48 102.05 C 242.70 104.66 242.82 108.42 242.88 111.92 L 242.27 112.33 C 239.17 75.17 216.94 40.41 184.98 21.37 Z" />
</g>
<g id="#8b7b50ff">
<path fill="#8b7b50" opacity="1.00" d=" M 144.35 30.62 C 142.73 25.93 144.31 20.15 148.98 17.89 C 148.42 20.96 147.62 23.97 146.76 26.97 C 147.51 29.02 148.27 31.07 148.96 33.14 C 147.40 32.43 145.05 32.49 144.35 30.62 Z" />
</g>
<g id="#938255ff">
<path fill="#938255" opacity="1.00" d=" M 93.14 18.90 C 93.66 19.12 94.70 19.57 95.22 19.80 C 95.83 22.70 96.45 25.60 97.13 28.49 C 96.03 27.72 94.93 26.95 93.82 26.20 C 92.69 25.45 91.54 24.71 90.40 23.98 C 91.31 22.28 92.23 20.59 93.14 18.90 Z" />
</g>
<g id="#e5dca6ff">
<path fill="#e5dca6" opacity="1.00" d=" M 158.70 21.69 C 160.18 20.98 161.92 21.30 163.51 21.16 C 163.74 24.97 164.33 28.87 163.56 32.66 C 163.02 35.32 160.36 37.86 157.55 36.51 C 157.05 34.09 159.60 32.51 160.57 30.54 C 161.94 29.06 161.66 27.04 161.53 25.20 C 159.62 25.69 157.72 26.18 155.80 26.65 C 156.65 24.95 157.14 22.90 158.70 21.69 Z" />
</g>
<g id="#928255ff">
<path fill="#928255" opacity="1.00" d=" M 79.98 26.98 C 79.65 24.32 82.07 21.65 84.80 22.17 C 87.64 22.61 88.60 25.78 90.03 27.86 C 88.32 26.86 86.63 25.82 84.96 24.77 C 84.41 25.13 83.31 25.85 82.76 26.21 C 83.85 29.94 85.77 33.33 87.85 36.58 C 82.94 36.44 80.38 31.29 79.98 26.98 Z" />
</g>
<g id="#e8e3afff">
<path fill="#e8e3af" opacity="1.00" d=" M 166.42 32.69 C 167.09 30.13 167.89 26.51 171.14 26.33 C 172.94 25.81 174.57 27.51 174.59 29.25 C 174.92 32.74 175.14 36.87 172.71 39.71 C 171.28 41.52 168.84 40.43 166.94 40.36 C 169.82 37.49 172.43 34.29 173.89 30.44 C 171.14 30.00 168.72 31.39 166.42 32.69 Z" />
</g>
<g id="#948558ff">
<path fill="#948558" opacity="1.00" d=" M 69.17 30.29 C 69.81 27.46 73.13 27.55 75.37 26.96 C 76.27 28.50 77.17 30.04 78.09 31.58 C 76.16 30.97 74.24 30.37 72.31 29.79 C 71.75 34.56 75.09 38.15 78.09 41.37 C 75.76 40.76 73.49 40.00 71.21 39.23 C 70.50 36.27 68.87 33.39 69.17 30.29 Z" />
</g>
<g id="#c0b888ff">
<path fill="#c0b888" opacity="1.00" d=" M 26.84 49.08 C 32.44 41.31 39.09 34.22 47.02 28.80 C 45.06 31.82 42.79 34.66 39.99 36.95 C 35.36 40.74 32.08 46.01 26.84 49.08 Z" />
<path fill="#c0b888" opacity="1.00" d=" M 27.25 172.01 C 26.61 169.79 29.38 169.55 30.70 168.59 C 30.78 171.18 30.79 173.76 30.74 176.35 C 29.15 175.27 26.89 174.35 27.25 172.01 Z" />
</g>
<g id="#e9e4afff">
<path fill="#e9e4af" opacity="1.00" d=" M 50.03 39.17 C 53.26 36.33 56.70 33.74 60.23 31.28 C 60.84 32.58 61.45 33.88 62.00 35.20 C 62.30 36.48 62.53 37.78 62.77 39.07 C 63.90 39.27 65.03 39.47 66.16 39.68 C 66.76 40.49 67.38 41.30 68.00 42.09 C 69.14 43.35 70.40 44.47 71.65 45.61 C 71.57 43.48 71.53 41.34 71.21 39.23 C 73.49 40.00 75.76 40.76 78.09 41.37 C 79.74 39.94 81.27 38.38 82.78 36.81 C 85.27 37.35 87.75 37.92 90.23 38.50 C 88.06 45.88 79.79 47.78 75.29 53.26 C 69.75 59.86 63.40 66.01 59.82 73.99 C 61.47 74.83 63.12 75.67 64.78 76.49 C 62.05 77.05 59.09 77.18 56.66 78.68 C 55.64 80.04 55.47 81.80 54.96 83.38 C 56.26 82.98 57.56 82.56 58.88 82.20 C 59.03 91.65 56.56 100.81 54.06 109.84 C 52.25 105.20 48.95 101.32 44.12 99.73 C 41.16 106.71 40.21 114.26 38.58 121.60 C 37.85 124.47 36.98 127.30 36.36 130.20 C 34.90 114.30 39.07 98.03 47.46 84.50 C 51.95 77.18 57.75 70.83 63.60 64.59 C 67.18 60.89 68.19 55.71 69.14 50.84 C 67.54 50.80 65.95 50.76 64.36 50.72 C 62.52 48.90 60.68 47.07 58.84 45.24 C 58.46 45.43 57.70 45.81 57.33 46.01 C 57.84 46.99 58.36 47.97 58.88 48.96 C 57.93 48.73 56.98 48.50 56.03 48.27 C 56.26 51.06 56.48 53.86 56.69 56.65 C 58.12 55.48 59.55 54.30 60.98 53.13 C 60.59 54.52 60.76 56.62 58.97 57.01 C 56.49 57.77 53.85 57.58 51.29 57.63 C 52.21 59.37 53.09 61.12 53.96 62.89 C 50.06 62.88 46.86 60.64 44.00 58.24 C 43.81 59.09 43.63 59.95 43.44 60.80 C 45.20 63.22 48.61 65.29 48.49 68.53 C 46.66 71.73 42.46 71.83 39.30 72.83 C 40.70 74.51 42.06 76.22 43.40 77.95 C 39.38 77.52 35.63 76.01 31.99 74.35 C 32.77 78.41 36.50 80.49 38.99 83.39 C 40.35 86.79 35.77 88.23 33.81 90.17 C 34.49 92.21 35.30 94.24 35.47 96.40 C 33.36 98.33 30.80 99.66 28.33 101.08 C 30.23 102.19 32.12 103.33 33.99 104.51 C 30.20 106.48 26.08 105.22 22.31 103.97 C 21.32 104.71 20.33 105.45 19.35 106.20 C 17.77 103.96 16.33 101.65 14.94 99.30 C 18.16 99.82 21.36 100.47 24.54 101.20 C 24.59 100.12 24.64 99.04 24.68 97.96 C 23.54 97.72 22.39 97.49 21.26 97.20 C 21.48 94.58 21.24 91.93 20.43 89.43 C 21.77 88.72 23.11 88.00 24.45 87.28 C 22.30 86.59 20.14 85.93 17.96 85.35 C 24.29 67.43 35.59 51.49 50.03 39.17 M 57.34 36.68 C 56.56 38.92 55.82 41.18 55.10 43.43 C 56.71 43.52 58.31 43.60 59.92 43.69 C 61.29 45.09 62.68 46.48 64.11 47.83 C 62.97 43.55 61.10 39.29 57.34 36.68 M 46.46 47.46 C 45.44 51.66 50.00 53.88 52.61 56.21 C 51.51 53.80 50.13 51.47 49.48 48.88 C 49.53 47.19 50.91 45.86 51.60 44.38 C 49.60 44.75 46.68 44.81 46.46 47.46 M 41.95 59.85 C 43.99 57.14 43.05 53.63 42.74 50.55 C 39.99 52.69 39.91 57.23 41.95 59.85 M 33.12 61.22 C 33.22 62.96 33.32 64.69 33.42 66.43 C 33.99 66.54 35.13 66.76 35.70 66.87 C 35.71 64.96 35.72 63.06 35.73 61.16 C 35.08 61.18 33.77 61.21 33.12 61.22 M 25.66 86.10 C 25.60 83.55 25.39 81.01 24.96 78.49 C 23.06 80.68 21.85 85.21 25.66 86.10 Z" />
</g>
<g id="#8e7e51ff">
<path fill="#8e7e51" opacity="1.00" d=" M 64.08 32.58 C 66.67 35.53 68.65 38.93 70.19 42.52 C 69.64 42.42 68.55 42.20 68.00 42.09 C 67.38 41.30 66.76 40.49 66.16 39.68 C 65.03 39.47 63.90 39.27 62.77 39.07 C 62.53 37.78 62.30 36.48 62.00 35.20 C 62.52 34.55 63.56 33.24 64.08 32.58 Z" />
</g>
<g id="#ece8b4ff">
<path fill="#ece8b4" opacity="1.00" d=" M 178.68 33.36 C 180.19 33.35 181.70 33.34 183.22 33.34 C 182.88 37.65 180.52 41.60 176.44 43.30 C 177.32 40.02 178.21 36.73 178.68 33.36 Z" />
</g>
<g id="#c4b27aff">
<path fill="#c4b27a" opacity="1.00" d=" M 13.06 87.95 C 20.53 68.38 32.56 50.25 48.81 36.90 C 49.11 37.47 49.72 38.60 50.03 39.17 C 35.59 51.49 24.29 67.43 17.96 85.35 C 14.58 95.79 11.66 106.54 11.43 117.57 C 11.31 124.48 11.47 131.39 11.65 138.29 C 10.90 133.89 9.87 129.50 9.69 125.02 C 9.43 119.77 10.27 114.55 10.57 109.32 C 9.67 111.26 8.97 113.30 8.31 115.34 C 8.10 105.97 10.91 96.96 13.06 87.95 Z" />
</g>
<g id="#8d7b4dff">
<path fill="#8d7b4d" opacity="1.00" d=" M 57.34 36.68 C 61.10 39.29 62.97 43.55 64.11 47.83 C 62.68 46.48 61.29 45.09 59.92 43.69 C 58.31 43.60 56.71 43.52 55.10 43.43 C 55.82 41.18 56.56 38.92 57.34 36.68 Z" />
</g>
<g id="#e5deaaff">
<path fill="#e5deaa" opacity="1.00" d=" M 185.54 37.54 C 187.13 36.96 188.88 37.29 190.54 37.23 C 190.59 41.10 191.68 45.66 188.87 48.87 C 187.50 50.85 184.90 50.64 182.80 50.98 C 185.21 47.63 188.07 44.64 190.60 41.39 C 187.60 40.97 184.71 41.86 181.91 42.81 C 183.00 40.99 183.78 38.84 185.54 37.54 Z" />
<path fill="#e5deaa" opacity="1.00" d=" M 214.75 145.19 C 217.53 144.72 220.97 143.38 223.29 145.74 C 224.96 146.87 225.25 148.94 225.67 150.75 C 221.81 149.37 218.08 147.61 214.75 145.19 Z" />
</g>
<g id="#ceb87eff">
<path fill="#ceb87e" opacity="1.00" d=" M 100.77 40.73 C 112.36 38.92 124.88 36.76 135.91 42.09 C 130.15 41.49 124.36 41.14 118.61 40.48 C 121.05 44.93 121.64 50.19 124.59 54.39 C 127.30 58.10 127.49 62.98 130.18 66.69 C 131.93 69.27 133.83 71.74 135.62 74.29 C 134.89 75.09 134.17 75.88 133.44 76.68 C 136.38 77.02 139.31 77.40 142.25 77.63 C 132.38 79.04 122.37 76.10 112.59 78.67 C 119.69 81.20 127.28 80.10 134.64 80.58 C 129.76 81.31 124.84 81.81 119.90 81.68 C 115.85 81.49 111.80 81.85 107.84 82.72 C 109.05 85.26 110.14 87.90 111.85 90.16 C 113.54 92.46 116.49 93.11 119.09 93.83 C 117.08 94.07 115.09 94.43 113.10 94.80 C 112.35 98.31 111.33 101.77 110.04 105.12 C 108.19 100.79 105.93 96.66 103.46 92.66 C 101.50 89.55 100.30 85.92 97.78 83.20 C 93.47 81.23 88.52 82.11 83.93 81.86 C 81.87 81.85 79.80 81.81 77.73 81.86 C 81.19 81.25 84.60 80.41 88.01 79.58 C 86.98 79.16 85.95 78.73 84.91 78.35 L 86.03 78.35 C 93.24 78.17 100.47 77.94 107.61 76.87 C 105.89 71.51 103.83 66.18 100.40 61.65 C 97.01 57.10 94.28 52.12 91.96 46.96 C 93.17 45.49 94.38 44.02 95.67 42.61 C 97.34 41.90 99.04 41.28 100.77 40.73 Z" />
</g>
<g id="#c3af78ff">
<path fill="#c3af78" opacity="1.00" d=" M 118.61 40.48 C 124.36 41.14 130.15 41.49 135.91 42.09 C 156.27 45.57 176.10 55.60 188.61 72.40 C 197.87 83.52 204.17 97.01 206.64 111.26 C 208.71 128.30 206.32 146.12 198.45 161.47 C 193.00 172.21 184.34 180.83 175.44 188.74 C 172.45 182.84 168.77 177.33 165.70 171.47 C 173.19 171.03 180.82 172.10 188.19 170.34 C 190.05 169.73 190.02 167.59 190.32 166.01 C 190.76 161.55 190.86 156.91 189.57 152.58 C 189.22 152.37 188.51 151.95 188.16 151.74 C 183.39 150.78 178.52 150.52 173.71 149.82 C 174.22 147.63 174.89 145.44 174.96 143.18 C 172.87 139.03 169.23 135.79 167.60 131.35 C 165.16 125.02 161.36 119.31 156.43 114.64 C 156.25 122.78 156.27 130.92 156.26 139.06 C 156.27 142.65 155.56 147.32 151.56 148.53 C 148.83 149.68 147.44 146.42 146.37 144.52 C 144.60 141.69 146.65 138.69 147.81 136.09 C 149.71 138.02 151.51 140.04 153.29 142.08 C 155.61 133.55 154.82 124.66 154.70 115.93 C 154.60 110.45 153.34 105.11 152.25 99.77 C 152.16 93.69 152.25 87.60 152.43 81.52 C 152.49 87.64 152.49 93.83 154.01 99.81 C 156.20 92.66 156.30 84.99 154.34 77.78 C 150.31 77.70 146.28 77.62 142.25 77.63 C 139.31 77.40 136.38 77.02 133.44 76.68 C 134.17 75.88 134.89 75.09 135.62 74.29 C 133.83 71.74 131.93 69.27 130.18 66.69 C 127.49 62.98 127.30 58.10 124.59 54.39 C 121.64 50.19 121.05 44.93 118.61 40.48 Z" />
</g>
<g id="#d3c188ff">
<path fill="#d3c188" opacity="1.00" d=" M 78.47 55.21 C 81.50 48.40 89.23 45.39 95.67 42.61 C 94.38 44.02 93.17 45.49 91.96 46.96 C 94.28 52.12 97.01 57.10 100.40 61.65 C 103.83 66.18 105.89 71.51 107.61 76.87 C 100.47 77.94 93.24 78.17 86.03 78.35 C 87.17 76.73 89.55 75.35 89.04 73.08 C 87.21 66.23 80.12 62.08 78.47 55.21 Z" />
</g>
<g id="#f3f1beff">
<path fill="#f3f1be" opacity="1.00" d=" M 57.33 46.01 C 57.70 45.81 58.46 45.43 58.84 45.24 C 60.68 47.07 62.52 48.90 64.36 50.72 C 65.95 50.76 67.54 50.80 69.14 50.84 C 68.19 55.71 67.18 60.89 63.60 64.59 C 57.75 70.83 51.95 77.18 47.46 84.50 C 39.07 98.03 34.90 114.30 36.36 130.20 C 37.84 153.64 49.08 176.44 67.15 191.52 C 65.58 192.57 63.90 193.51 62.59 194.90 C 61.51 197.40 63.01 200.08 63.51 202.55 C 65.24 201.45 66.95 200.35 68.67 199.26 C 69.41 201.37 70.56 203.61 69.77 205.90 C 68.57 210.20 67.38 214.52 67.04 219.00 C 63.93 218.14 60.80 217.34 57.75 216.28 C 32.12 198.42 15.71 169.05 11.65 138.29 C 11.47 131.39 11.31 124.48 11.43 117.57 C 11.66 106.54 14.58 95.79 17.96 85.35 C 20.14 85.93 22.30 86.59 24.45 87.28 C 23.11 88.00 21.77 88.72 20.43 89.43 C 19.41 92.06 18.56 95.25 21.26 97.20 C 22.39 97.49 23.54 97.72 24.68 97.96 C 24.64 99.04 24.59 100.12 24.54 101.20 C 21.36 100.47 18.16 99.82 14.94 99.30 C 16.33 101.65 17.77 103.96 19.35 106.20 C 20.33 105.45 21.32 104.71 22.31 103.97 C 26.08 105.22 30.20 106.48 33.99 104.51 C 32.12 103.33 30.23 102.19 28.33 101.08 C 30.80 99.66 33.36 98.33 35.47 96.40 C 35.30 94.24 34.49 92.21 33.81 90.17 C 35.77 88.23 40.35 86.79 38.99 83.39 C 36.50 80.49 32.77 78.41 31.99 74.35 C 35.63 76.01 39.38 77.52 43.40 77.95 C 42.06 76.22 40.70 74.51 39.30 72.83 C 42.46 71.83 46.66 71.73 48.49 68.53 C 48.61 65.29 45.20 63.22 43.44 60.80 C 43.63 59.95 43.81 59.09 44.00 58.24 C 46.86 60.64 50.06 62.88 53.96 62.89 C 53.09 61.12 52.21 59.37 51.29 57.63 C 53.85 57.58 56.49 57.77 58.97 57.01 C 60.76 56.62 60.59 54.52 60.98 53.13 C 60.31 51.72 59.59 50.34 58.88 48.96 C 58.36 47.97 57.84 46.99 57.33 46.01 M 26.20 108.12 C 25.35 108.72 24.51 109.32 23.66 109.93 C 25.08 110.76 26.50 111.59 27.92 112.43 C 27.92 112.96 27.94 114.04 27.94 114.58 C 25.84 114.87 23.73 115.16 21.63 115.46 C 21.50 117.96 21.36 120.46 21.20 122.97 C 24.65 122.74 29.68 124.83 31.76 121.09 C 29.88 120.79 28.00 120.54 26.12 120.31 C 26.16 119.87 26.26 118.98 26.31 118.53 C 28.16 117.31 30.14 116.21 31.68 114.58 C 32.45 111.11 28.39 109.81 26.20 108.12 M 15.47 109.70 C 15.46 111.56 15.45 113.42 15.44 115.28 C 16.12 115.43 17.48 115.72 18.15 115.87 C 18.12 113.63 18.08 111.39 18.03 109.16 C 17.39 109.29 16.11 109.57 15.47 109.70 M 14.55 119.24 C 14.64 121.56 15.50 123.50 18.09 123.63 C 18.08 122.11 18.06 120.59 18.05 119.08 C 17.18 119.12 15.43 119.20 14.55 119.24 M 15.21 129.41 C 15.42 131.54 15.66 133.66 15.94 135.78 C 16.59 135.70 17.89 135.56 18.54 135.48 C 18.58 133.35 18.63 131.21 18.71 129.08 C 17.54 129.19 16.38 129.30 15.21 129.41 M 28.50 128.89 C 28.53 130.15 28.56 131.41 28.59 132.68 C 26.40 133.00 24.22 133.33 22.03 133.64 C 22.16 135.22 22.08 136.83 22.53 138.37 C 23.43 141.43 27.18 140.26 29.57 140.71 C 29.53 141.50 29.50 142.29 29.46 143.07 C 27.55 144.02 24.92 144.21 23.66 146.07 C 23.92 148.38 24.73 150.58 25.35 152.82 C 28.48 152.08 31.60 151.31 34.72 150.53 C 34.75 149.98 34.82 148.88 34.85 148.33 C 32.55 148.42 30.25 148.49 27.95 148.48 C 28.51 145.70 31.18 144.65 33.42 143.47 C 33.64 140.49 31.27 138.99 28.95 137.77 C 28.56 136.92 28.17 136.08 27.79 135.24 C 29.18 134.36 30.57 133.47 31.96 132.60 C 31.63 131.32 31.31 130.04 30.99 128.76 C 30.36 128.79 29.12 128.86 28.50 128.89 M 17.18 140.58 C 17.06 143.11 17.08 145.88 19.46 147.40 C 19.65 144.97 19.78 142.55 19.90 140.13 C 19.22 140.24 17.86 140.47 17.18 140.58 M 32.16 154.43 C 30.66 154.98 29.52 156.18 28.25 157.10 C 30.46 157.64 32.69 158.12 34.92 158.58 C 34.83 159.47 34.74 160.37 34.65 161.26 C 32.42 162.15 30.27 163.23 28.29 164.59 C 31.43 167.28 35.31 168.85 39.48 168.56 C 40.14 169.98 40.79 171.41 41.46 172.83 C 42.27 171.27 43.06 169.70 43.81 168.12 C 40.92 166.54 38.03 164.97 35.15 163.38 C 36.55 162.42 37.95 161.46 39.36 160.51 C 38.32 157.26 35.41 155.12 32.16 154.43 M 22.96 158.34 C 22.02 161.33 22.74 164.23 25.00 166.42 C 25.47 163.70 25.71 160.95 25.90 158.19 C 25.16 158.23 23.69 158.30 22.96 158.34 M 27.25 172.01 C 26.89 174.35 29.15 175.27 30.74 176.35 C 30.79 173.76 30.78 171.18 30.70 168.59 C 29.38 169.55 26.61 169.79 27.25 172.01 M 32.93 181.44 C 32.93 182.01 32.92 183.13 32.92 183.69 C 35.47 183.87 38.01 184.13 40.54 184.50 C 41.27 180.11 44.73 177.22 47.33 173.91 C 41.56 174.25 37.93 179.24 32.93 181.44 M 42.73 185.74 C 41.15 187.48 37.21 188.07 38.35 191.08 C 40.92 190.18 43.63 190.16 46.23 190.95 C 46.12 186.69 49.48 183.98 52.32 181.36 C 48.33 178.78 45.53 183.67 42.73 185.74 M 48.09 193.95 C 46.60 194.48 45.11 195.01 43.63 195.57 C 45.74 198.44 49.70 196.01 52.49 197.85 C 52.40 200.18 52.33 202.50 52.29 204.83 C 53.57 205.57 54.87 206.30 56.16 207.03 C 56.52 203.56 56.68 200.08 56.75 196.59 C 55.58 196.58 54.41 196.58 53.23 196.58 C 52.56 195.78 51.89 194.99 51.22 194.21 C 53.10 192.13 54.98 190.05 56.87 187.99 C 56.64 187.52 56.16 186.58 55.93 186.11 C 52.50 187.80 49.75 190.49 48.09 193.95 Z" />
</g>
<g id="#e5dba7ff">
<path fill="#e5dba7" opacity="1.00" d=" M 191.30 47.24 C 193.56 45.82 196.11 44.98 198.80 44.88 C 198.78 46.05 198.76 47.22 198.75 48.39 C 196.18 49.10 193.63 49.86 191.09 50.67 C 191.16 49.53 191.23 48.38 191.30 47.24 Z" />
</g>
<g id="#beac74ff">
<path fill="#beac74" opacity="1.00" d=" M 201.12 50.66 C 202.49 49.25 203.86 47.83 205.24 46.43 C 211.65 53.94 217.94 61.68 222.47 70.50 C 227.90 80.30 231.61 90.96 234.06 101.87 C 235.02 113.36 236.60 124.88 235.45 136.43 C 234.05 150.66 232.99 165.63 225.48 178.20 C 224.95 178.12 223.90 177.95 223.38 177.86 C 214.15 192.10 203.64 206.06 189.29 215.52 C 189.89 212.53 190.73 209.60 191.75 206.74 C 191.01 206.21 190.27 205.69 189.53 205.18 C 190.54 204.40 191.56 203.63 192.58 202.86 C 194.90 202.51 197.21 202.16 199.53 201.79 C 198.29 199.64 197.25 197.26 195.38 195.58 C 192.76 193.80 189.42 193.69 186.68 192.14 C 185.64 189.77 186.99 187.05 187.61 184.70 C 199.45 172.86 206.66 157.06 209.86 140.77 C 212.46 126.57 210.85 111.96 207.05 98.13 C 205.40 87.81 199.51 78.96 194.34 70.12 C 196.25 68.17 198.17 66.22 200.08 64.27 C 201.18 64.91 202.28 65.55 203.38 66.19 C 203.38 66.90 203.38 68.32 203.38 69.03 C 206.51 67.27 209.37 65.01 211.34 61.97 C 209.90 61.06 208.47 60.14 207.04 59.22 C 206.30 57.51 205.56 55.79 204.65 54.16 C 203.53 52.94 202.32 51.81 201.12 50.66 M 205.89 71.70 C 209.24 71.23 212.69 70.61 216.00 71.70 C 213.41 73.75 210.53 75.36 207.54 76.72 C 207.44 77.19 207.23 78.11 207.13 78.57 C 209.00 78.70 210.88 78.83 212.75 78.96 C 212.28 79.95 211.81 80.95 211.34 81.94 C 214.47 81.75 217.59 81.57 220.72 81.44 C 220.75 80.44 220.77 79.44 220.80 78.44 C 218.94 78.19 217.08 77.94 215.22 77.69 C 215.86 75.21 216.92 72.59 216.07 70.02 C 215.66 68.60 214.84 66.64 213.02 66.94 C 209.83 66.92 207.55 69.25 205.89 71.70 M 212.26 86.52 C 212.34 87.58 212.42 88.65 212.50 89.72 C 215.05 89.30 217.60 88.82 220.14 88.33 C 220.19 88.95 220.30 90.19 220.35 90.81 C 218.56 92.08 216.78 93.35 215.02 94.64 C 216.16 95.23 217.31 95.82 218.46 96.40 C 218.05 97.53 217.64 98.65 217.23 99.77 C 220.55 99.76 223.87 99.68 227.19 99.56 C 226.28 98.03 225.36 96.50 224.44 94.97 C 224.64 93.67 224.83 92.37 225.04 91.08 C 223.73 89.72 222.43 88.37 221.13 87.01 C 221.23 85.93 221.33 84.84 221.43 83.75 C 218.37 84.65 215.32 85.59 212.26 86.52 M 217.26 104.80 C 218.17 106.85 219.04 108.91 219.83 111.01 C 222.98 111.31 226.15 111.25 229.30 110.92 C 228.09 109.47 226.85 108.04 225.60 106.63 C 226.07 105.13 226.53 103.62 227.00 102.12 C 223.68 102.75 220.42 103.63 217.26 104.80 M 219.37 115.51 C 219.45 117.94 219.50 120.37 219.52 122.79 C 223.08 123.03 226.66 123.13 230.24 123.05 C 228.76 121.46 227.25 119.90 225.73 118.36 C 226.85 117.26 227.98 116.16 229.10 115.04 C 228.83 114.65 228.27 113.86 227.99 113.47 C 225.13 114.20 222.25 114.87 219.37 115.51 M 218.75 127.46 C 220.56 128.61 222.39 129.73 224.23 130.84 C 224.41 131.24 224.76 132.06 224.94 132.47 C 222.86 132.86 220.78 133.26 218.71 133.67 C 220.73 135.33 222.80 136.93 224.87 138.53 C 222.25 139.79 219.48 140.70 216.67 141.43 C 219.85 142.90 223.29 143.66 226.79 143.87 C 227.54 137.99 228.58 132.13 228.59 126.19 C 225.30 126.49 222.01 126.91 218.75 127.46 M 214.75 145.19 C 218.08 147.61 221.81 149.37 225.67 150.75 C 225.25 148.94 224.96 146.87 223.29 145.74 C 220.97 143.38 217.53 144.72 214.75 145.19 M 215.23 151.39 C 215.18 152.07 215.07 153.42 215.02 154.10 C 213.79 154.04 212.57 154.03 211.34 154.07 C 210.92 155.02 210.51 155.98 210.09 156.93 C 212.19 157.47 214.31 157.97 216.36 158.69 C 219.22 159.43 220.37 162.47 222.74 163.97 C 224.71 161.47 223.80 157.55 220.99 156.10 C 223.39 156.71 224.40 154.33 225.39 152.67 C 222.00 152.23 218.61 151.83 215.23 151.39 M 201.22 172.06 C 201.23 172.60 201.26 173.67 201.27 174.21 C 206.35 174.19 209.67 178.22 213.21 181.23 C 214.66 174.90 206.94 169.45 201.22 172.06 M 193.68 181.78 C 196.66 185.51 200.80 187.97 205.01 190.08 C 205.67 188.77 206.36 187.47 206.93 186.11 C 205.06 185.67 203.15 185.53 201.25 185.41 C 199.08 183.53 196.91 180.81 193.68 181.78 M 188.77 187.85 C 188.27 188.79 186.35 190.64 188.02 191.29 C 189.46 190.96 190.82 190.37 192.21 189.88 C 194.62 192.25 196.90 194.75 199.28 197.17 C 199.46 195.02 199.85 192.54 198.11 190.88 C 196.01 188.31 191.94 185.48 188.77 187.85 Z" />
</g>
<g id="#c7bf8eff">
<path fill="#c7bf8e" opacity="1.00" d=" M 56.03 48.27 C 56.98 48.50 57.93 48.73 58.88 48.96 C 59.59 50.34 60.31 51.72 60.98 53.13 C 59.55 54.30 58.12 55.48 56.69 56.65 C 56.48 53.86 56.26 51.06 56.03 48.27 Z" />
</g>
<g id="#c4bb88ff">
<path fill="#c4bb88" opacity="1.00" d=" M 41.95 59.85 C 39.91 57.23 39.99 52.69 42.74 50.55 C 43.05 53.63 43.99 57.14 41.95 59.85 Z" />
</g>
<g id="#ebe5b0ff">
<path fill="#ebe5b0" opacity="1.00" d=" M 190.82 58.27 C 193.04 55.26 195.88 52.75 199.15 50.93 C 199.36 55.44 195.37 59.36 190.82 58.27 Z" />
<path fill="#ebe5b0" opacity="1.00" d=" M 71.04 101.77 C 71.42 106.32 72.45 110.78 73.63 115.17 C 74.44 110.87 75.01 106.52 75.41 102.16 C 78.32 106.07 81.50 109.82 83.74 114.18 C 85.78 118.13 87.20 122.46 90.05 125.95 C 91.85 128.44 94.49 130.70 94.67 133.98 C 95.59 145.40 95.60 156.86 96.10 168.30 C 96.15 168.75 96.24 169.67 96.29 170.12 C 98.71 170.84 101.27 171.32 103.46 172.64 C 105.14 174.11 105.83 176.36 106.85 178.29 C 109.28 183.86 113.14 188.62 116.02 193.95 C 118.42 198.41 121.24 202.62 124.30 206.65 C 116.86 210.06 108.65 208.17 100.93 207.14 C 97.81 205.98 94.78 204.61 91.72 203.31 C 94.34 203.71 96.99 203.96 99.63 204.26 C 95.22 199.24 93.81 192.49 89.79 187.24 C 85.23 181.28 81.86 174.54 77.96 168.16 C 70.79 154.05 73.70 137.73 70.62 122.70 C 69.40 115.74 70.62 108.73 71.04 101.77 Z" />
</g>
<g id="#eeebb7ff">
<path fill="#eeebb7" opacity="1.00" d=" M 201.89 54.63 C 202.81 54.47 203.73 54.31 204.65 54.16 C 205.56 55.79 206.30 57.51 207.04 59.22 C 208.47 60.14 209.90 61.06 211.34 61.97 C 209.37 65.01 206.51 67.27 203.38 69.03 C 203.38 68.32 203.38 66.90 203.38 66.19 C 204.36 65.12 205.35 64.05 206.34 62.97 C 205.67 62.02 205.02 61.06 204.36 60.12 C 202.37 60.94 200.38 61.76 198.39 62.57 C 199.58 59.93 200.75 57.29 201.89 54.63 Z" />
</g>
<g id="#bab07eff">
<path fill="#bab07e" opacity="1.00" d=" M 33.12 61.22 C 33.77 61.21 35.08 61.18 35.73 61.16 C 35.72 63.06 35.71 64.96 35.70 66.87 C 35.13 66.76 33.99 66.54 33.42 66.43 C 33.32 64.69 33.22 62.96 33.12 61.22 Z" />
</g>
<g id="#e5e0acff">
<path fill="#e5e0ac" opacity="1.00" d=" M 205.89 71.70 C 207.55 69.25 209.83 66.92 213.02 66.94 C 214.84 66.64 215.66 68.60 216.07 70.02 C 216.92 72.59 215.86 75.21 215.22 77.69 C 217.08 77.94 218.94 78.19 220.80 78.44 C 220.77 79.44 220.75 80.44 220.72 81.44 C 217.59 81.57 214.47 81.75 211.34 81.94 C 211.81 80.95 212.28 79.95 212.75 78.96 C 210.88 78.83 209.00 78.70 207.13 78.57 C 207.23 78.11 207.44 77.19 207.54 76.72 C 210.53 75.36 213.41 73.75 216.00 71.70 C 212.69 70.61 209.24 71.23 205.89 71.70 Z" />
<path fill="#e5e0ac" opacity="1.00" d=" M 218.75 127.46 C 222.01 126.91 225.30 126.49 228.59 126.19 C 228.58 132.13 227.54 137.99 226.79 143.87 C 223.29 143.66 219.85 142.90 216.67 141.43 C 219.48 140.70 222.25 139.79 224.87 138.53 C 222.80 136.93 220.73 135.33 218.71 133.67 C 220.78 133.26 222.86 132.86 224.94 132.47 C 224.76 132.06 224.41 131.24 224.23 130.84 C 222.39 129.73 220.56 128.61 218.75 127.46 Z" />
</g>
<g id="#d4c38bff">
<path fill="#d4c38b" opacity="1.00" d=" M 112.59 78.67 C 122.37 76.10 132.38 79.04 142.25 77.63 C 146.28 77.62 150.31 77.70 154.34 77.78 C 156.30 84.99 156.20 92.66 154.01 99.81 C 152.49 93.83 152.49 87.64 152.43 81.52 C 148.61 81.33 144.80 81.25 140.98 81.22 C 140.76 84.73 140.58 88.25 140.60 91.77 C 140.52 98.04 140.42 104.39 138.65 110.45 C 137.17 106.29 136.71 101.88 136.59 97.49 C 130.69 97.15 124.73 96.87 118.91 98.10 C 122.94 102.14 125.39 107.29 127.40 112.54 C 129.07 117.15 133.00 120.33 135.38 124.48 C 135.86 128.82 135.44 133.24 136.41 137.54 C 137.71 137.20 139.02 136.86 140.33 136.52 C 141.78 141.78 143.26 147.11 146.08 151.82 C 149.62 157.80 152.66 165.33 160.15 167.17 C 155.81 166.58 150.59 167.16 147.19 163.88 C 142.37 157.68 142.24 149.39 139.17 142.38 C 138.35 146.17 137.84 150.02 137.51 153.88 C 136.82 153.95 135.45 154.11 134.76 154.19 C 133.55 151.00 132.60 147.73 131.36 144.56 C 130.06 141.12 127.39 138.49 125.50 135.39 C 121.30 128.04 117.14 120.66 113.16 113.19 C 112.13 114.03 111.10 114.87 110.07 115.72 C 107.33 110.63 104.53 105.57 101.32 100.77 C 100.52 105.16 99.51 109.52 98.08 113.76 C 97.06 108.40 96.36 103.00 95.61 97.60 C 92.25 97.04 88.89 96.42 85.51 96.03 C 86.73 95.56 87.94 95.03 89.15 94.52 C 84.94 94.25 80.73 93.99 76.53 93.62 C 81.02 93.43 85.50 93.19 89.99 92.86 C 88.01 89.17 85.97 85.52 83.93 81.86 C 88.52 82.11 93.47 81.23 97.78 83.20 C 100.30 85.92 101.50 89.55 103.46 92.66 C 105.93 96.66 108.19 100.79 110.04 105.12 C 111.33 101.77 112.35 98.31 113.10 94.80 C 115.09 94.43 117.08 94.07 119.09 93.83 C 124.51 93.82 129.94 93.77 135.35 93.50 C 135.48 89.18 135.31 84.85 134.64 80.58 C 127.28 80.10 119.69 81.20 112.59 78.67 Z" />
</g>
<g id="#b4a673ff">
<path fill="#b4a673" opacity="1.00" d=" M 64.92 78.43 C 71.59 78.59 78.25 78.11 84.91 78.35 C 85.95 78.73 86.98 79.16 88.01 79.58 C 84.60 80.41 81.19 81.25 77.73 81.86 L 76.72 81.96 C 76.56 85.84 76.48 89.73 76.53 93.62 C 80.73 93.99 84.94 94.25 89.15 94.52 C 87.94 95.03 86.73 95.56 85.51 96.03 C 81.70 96.01 77.90 95.92 74.10 95.79 C 72.34 91.52 70.95 87.10 69.91 82.60 C 68.88 82.42 67.85 82.26 66.82 82.12 C 66.19 80.89 65.56 79.66 64.92 78.43 Z" />
</g>
<g id="#b5a876ff">
<path fill="#b5a876" opacity="1.00" d=" M 25.66 86.10 C 21.85 85.21 23.06 80.68 24.96 78.49 C 25.39 81.01 25.60 83.55 25.66 86.10 Z" />
</g>
<g id="#f5f2beff">
<path fill="#f5f2be" opacity="1.00" d=" M 58.88 82.20 C 61.50 81.74 64.19 81.81 66.82 82.12 C 67.85 82.26 68.88 82.42 69.91 82.60 C 69.97 87.04 70.17 91.49 70.73 95.90 C 70.89 97.85 70.97 99.81 71.04 101.77 C 70.62 108.73 69.40 115.74 70.62 122.70 C 73.70 137.73 70.79 154.05 77.96 168.16 C 81.86 174.54 85.23 181.28 89.79 187.24 C 93.81 192.49 95.22 199.24 99.63 204.26 C 96.99 203.96 94.34 203.71 91.72 203.31 C 74.56 196.29 59.92 183.41 50.61 167.39 C 42.29 153.68 38.91 137.49 38.58 121.60 C 40.21 114.26 41.16 106.71 44.12 99.73 C 48.95 101.32 52.25 105.20 54.06 109.84 C 56.56 100.81 59.03 91.65 58.88 82.20 M 55.38 155.04 C 55.03 159.82 54.49 164.72 55.54 169.45 C 59.69 171.10 64.25 169.80 68.38 168.76 C 65.40 167.60 62.25 166.97 59.09 166.56 C 58.58 160.90 58.65 155.17 57.36 149.61 C 56.29 151.25 55.43 153.05 55.38 155.04 Z" />
</g>
<g id="#b3a36fff">
<path fill="#b3a36f" opacity="1.00" d=" M 107.84 82.72 C 111.80 81.85 115.85 81.49 119.90 81.68 C 121.66 85.44 123.17 89.75 126.73 92.19 C 129.44 93.33 132.47 93.20 135.35 93.50 C 129.94 93.77 124.51 93.82 119.09 93.83 C 116.49 93.11 113.54 92.46 111.85 90.16 C 110.14 87.90 109.05 85.26 107.84 82.72 Z" />
</g>
<g id="#998857ff">
<path fill="#998857" opacity="1.00" d=" M 119.90 81.68 C 124.84 81.81 129.76 81.31 134.64 80.58 C 135.31 84.85 135.48 89.18 135.35 93.50 C 132.47 93.20 129.44 93.33 126.73 92.19 C 123.17 89.75 121.66 85.44 119.90 81.68 Z" />
</g>
<g id="#978655ff">
<path fill="#978655" opacity="1.00" d=" M 140.98 81.22 C 144.80 81.25 148.61 81.33 152.43 81.52 C 152.25 87.60 152.16 93.69 152.25 99.77 C 152.15 104.04 152.30 108.34 153.16 112.54 C 154.69 120.41 154.62 128.54 153.39 136.45 C 151.22 129.43 152.70 121.84 150.24 114.89 C 148.23 109.27 146.36 102.99 141.17 99.44 C 141.02 96.88 140.73 94.33 140.60 91.77 C 140.58 88.25 140.76 84.73 140.98 81.22 Z" />
</g>
<g id="#e6dca6ff">
<path fill="#e6dca6" opacity="1.00" d=" M 76.72 81.96 L 77.73 81.86 C 79.80 81.81 81.87 81.85 83.93 81.86 C 85.97 85.52 88.01 89.17 89.99 92.86 C 85.50 93.19 81.02 93.43 76.53 93.62 C 76.48 89.73 76.56 85.84 76.72 81.96 Z" />
</g>
<g id="#dbcb93ff">
<path fill="#dbcb93" opacity="1.00" d=" M 69.91 82.60 C 70.95 87.10 72.34 91.52 74.10 95.79 C 77.90 95.92 81.70 96.01 85.51 96.03 C 88.89 96.42 92.25 97.04 95.61 97.60 C 96.36 103.00 97.06 108.40 98.08 113.76 C 99.51 109.52 100.52 105.16 101.32 100.77 C 104.53 105.57 107.33 110.63 110.07 115.72 C 111.10 114.87 112.13 114.03 113.16 113.19 C 117.14 120.66 121.30 128.04 125.50 135.39 C 127.39 138.49 130.06 141.12 131.36 144.56 C 132.60 147.73 133.55 151.00 134.76 154.19 C 135.45 154.11 136.82 153.95 137.51 153.88 C 137.84 150.02 138.35 146.17 139.17 142.38 C 142.24 149.39 142.37 157.68 147.19 163.88 C 150.59 167.16 155.81 166.58 160.15 167.17 C 169.18 167.74 178.27 168.47 187.29 167.33 C 187.42 163.08 187.48 158.84 187.37 154.59 C 181.14 154.36 174.91 154.20 168.70 153.72 C 174.94 151.52 181.64 151.74 188.16 151.74 C 188.51 151.95 189.22 152.37 189.57 152.58 C 190.86 156.91 190.76 161.55 190.32 166.01 C 190.02 167.59 190.05 169.73 188.19 170.34 C 178.78 170.07 169.37 169.62 159.96 169.95 C 156.09 170.03 152.37 171.15 148.77 172.49 C 151.94 181.57 159.60 188.30 161.71 197.84 C 158.14 201.60 154.35 205.36 149.50 207.43 C 144.30 209.93 138.51 210.52 132.85 211.03 C 137.21 209.60 141.65 208.39 145.97 206.84 C 147.98 206.17 150.32 204.52 149.84 202.10 C 149.01 199.01 146.93 196.47 145.16 193.86 C 136.14 181.65 130.43 167.45 122.37 154.66 C 120.04 150.93 116.71 147.54 116.11 143.01 C 115.46 138.80 115.40 134.54 115.08 130.30 C 113.39 130.16 111.14 130.78 110.22 128.89 C 107.06 123.89 104.69 118.39 100.88 113.81 C 99.66 119.22 98.78 124.71 97.54 130.13 C 95.94 124.22 95.21 118.12 95.14 112.00 C 94.90 107.81 95.10 102.50 91.02 99.97 C 86.36 97.22 80.67 97.73 75.46 97.34 C 74.55 98.58 73.64 99.82 72.73 101.07 C 72.05 99.35 71.35 97.64 70.73 95.90 C 70.17 91.49 69.97 87.04 69.91 82.60 Z" />
</g>
<g id="#e3dba5ff">
<path fill="#e3dba5" opacity="1.00" d=" M 212.26 86.52 C 215.32 85.59 218.37 84.65 221.43 83.75 C 221.33 84.84 221.23 85.93 221.13 87.01 C 222.43 88.37 223.73 89.72 225.04 91.08 C 224.83 92.37 224.64 93.67 224.44 94.97 C 225.36 96.50 226.28 98.03 227.19 99.56 C 223.87 99.68 220.55 99.76 217.23 99.77 C 217.64 98.65 218.05 97.53 218.46 96.40 C 217.31 95.82 216.16 95.23 215.02 94.64 C 216.78 93.35 218.56 92.08 220.35 90.81 C 220.30 90.19 220.19 88.95 220.14 88.33 C 217.60 88.82 215.05 89.30 212.50 89.72 C 212.42 88.65 212.34 87.58 212.26 86.52 Z" />
</g>
<g id="#e0d8a7ff">
<path fill="#e0d8a7" opacity="1.00" d=" M 6.70 108.27 C 7.90 101.24 9.76 94.30 13.06 87.95 C 10.91 96.96 8.10 105.97 8.31 115.34 C 6.63 131.57 8.53 148.12 13.99 163.50 C 12.47 165.93 11.03 168.41 9.67 170.94 C 7.95 166.06 6.56 161.07 4.87 156.18 C 2.40 148.97 2.38 141.22 0.00 133.99 L 0.00 117.06 C 1.00 113.66 1.75 110.18 2.06 106.65 C 3.61 107.18 5.15 107.72 6.70 108.27 Z" />
</g>
<g id="#b3a775ff">
<path fill="#b3a775" opacity="1.00" d=" M 20.43 89.43 C 21.24 91.93 21.48 94.58 21.26 97.20 C 18.56 95.25 19.41 92.06 20.43 89.43 Z" />
</g>
<g id="#ceb87fff">
<path fill="#ceb87f" opacity="1.00" d=" M 138.65 110.45 C 140.42 104.39 140.52 98.04 140.60 91.77 C 140.73 94.33 141.02 96.88 141.17 99.44 C 141.11 106.54 140.08 113.71 141.36 120.76 C 142.35 126.28 145.12 131.24 147.81 136.09 C 146.65 138.69 144.60 141.69 146.37 144.52 C 147.44 146.42 148.83 149.68 151.56 148.53 C 155.56 147.32 156.27 142.65 156.26 139.06 C 156.27 130.92 156.25 122.78 156.43 114.64 C 161.36 119.31 165.16 125.02 167.60 131.35 C 169.23 135.79 172.87 139.03 174.96 143.18 C 174.89 145.44 174.22 147.63 173.71 149.82 C 178.52 150.52 183.39 150.78 188.16 151.74 C 181.64 151.74 174.94 151.52 168.70 153.72 C 165.84 154.67 162.59 155.17 160.33 157.31 C 160.23 160.44 161.40 164.21 164.70 165.26 C 170.59 167.42 176.98 166.91 183.14 167.19 C 184.52 167.25 185.90 167.29 187.29 167.33 C 178.27 168.47 169.18 167.74 160.15 167.17 C 152.66 165.33 149.62 157.80 146.08 151.82 C 143.26 147.11 141.78 141.78 140.33 136.52 C 139.02 136.86 137.71 137.20 136.41 137.54 C 135.44 133.24 135.86 128.82 135.38 124.48 C 133.00 120.33 129.07 117.15 127.40 112.54 C 125.39 107.29 122.94 102.14 118.91 98.10 C 124.73 96.87 130.69 97.15 136.59 97.49 C 136.71 101.88 137.17 106.29 138.65 110.45 Z" />
</g>
<g id="#dfd49eff">
<path fill="#dfd49e" opacity="1.00" d=" M 70.73 95.90 C 71.35 97.64 72.05 99.35 72.73 101.07 C 73.64 99.82 74.55 98.58 75.46 97.34 C 80.67 97.73 86.36 97.22 91.02 99.97 C 95.10 102.50 94.90 107.81 95.14 112.00 C 95.21 118.12 95.94 124.22 97.54 130.13 C 98.78 124.71 99.66 119.22 100.88 113.81 C 104.69 118.39 107.06 123.89 110.22 128.89 C 111.14 130.78 113.39 130.16 115.08 130.30 C 115.40 134.54 115.46 138.80 116.11 143.01 C 116.71 147.54 120.04 150.93 122.37 154.66 C 130.43 167.45 136.14 181.65 145.16 193.86 C 146.93 196.47 149.01 199.01 149.84 202.10 C 150.32 204.52 147.98 206.17 145.97 206.84 C 141.65 208.39 137.21 209.60 132.85 211.03 C 127.31 211.90 121.76 212.58 116.20 213.25 C 115.78 218.36 115.52 223.48 115.64 228.61 C 114.64 229.13 113.64 229.65 112.65 230.18 C 111.28 225.50 110.43 220.69 109.50 215.91 C 108.45 220.34 106.99 225.04 108.25 229.58 C 109.83 231.47 112.07 232.64 114.08 234.02 C 99.91 235.03 85.36 231.95 72.99 224.91 C 77.88 226.48 82.88 227.67 87.87 228.88 C 90.99 221.95 89.97 214.35 90.43 207.01 C 82.32 202.39 74.47 197.32 67.15 191.52 C 49.08 176.44 37.84 153.64 36.36 130.20 C 36.98 127.30 37.85 124.47 38.58 121.60 C 38.91 137.49 42.29 153.68 50.61 167.39 C 59.92 183.41 74.56 196.29 91.72 203.31 C 94.78 204.61 97.81 205.98 100.93 207.14 C 109.39 211.08 118.97 210.37 128.04 209.94 C 131.33 209.83 134.30 208.32 137.09 206.72 C 132.65 200.41 129.47 193.32 124.93 187.08 C 121.41 182.21 118.99 176.67 116.90 171.07 C 112.78 160.43 116.06 148.31 111.04 137.90 C 107.91 131.78 104.52 125.78 101.47 119.62 C 99.21 125.91 98.89 132.63 99.57 139.23 C 100.00 148.45 99.69 157.67 99.99 166.89 C 102.10 167.89 104.20 168.92 106.26 170.03 C 102.81 169.93 99.36 169.46 96.10 168.30 C 95.60 156.86 95.59 145.40 94.67 133.98 C 94.49 130.70 91.85 128.44 90.05 125.95 C 87.20 122.46 85.78 118.13 83.74 114.18 C 81.50 109.82 78.32 106.07 75.41 102.16 C 75.01 106.52 74.44 110.87 73.63 115.17 C 72.45 110.78 71.42 106.32 71.04 101.77 C 70.97 99.81 70.89 97.85 70.73 95.90 Z" />
</g>
<g id="#b2a16eff">
<path fill="#b2a16e" opacity="1.00" d=" M 141.17 99.44 C 146.36 102.99 148.23 109.27 150.24 114.89 C 152.70 121.84 151.22 129.43 153.39 136.45 C 154.62 128.54 154.69 120.41 153.16 112.54 C 152.30 108.34 152.15 104.04 152.25 99.77 C 153.34 105.11 154.60 110.45 154.70 115.93 C 154.82 124.66 155.61 133.55 153.29 142.08 C 151.51 140.04 149.71 138.02 147.81 136.09 C 145.12 131.24 142.35 126.28 141.36 120.76 C 140.08 113.71 141.11 106.54 141.17 99.44 Z" />
</g>
<g id="#e1d8a2ff">
<path fill="#e1d8a2" opacity="1.00" d=" M 217.26 104.80 C 220.42 103.63 223.68 102.75 227.00 102.12 C 226.53 103.62 226.07 105.13 225.60 106.63 C 226.85 108.04 228.09 109.47 229.30 110.92 C 226.15 111.25 222.98 111.31 219.83 111.01 C 219.04 108.91 218.17 106.85 217.26 104.80 Z" />
<path fill="#e1d8a2" opacity="1.00" d=" M 32.93 181.44 C 37.93 179.24 41.56 174.25 47.33 173.91 C 44.73 177.22 41.27 180.11 40.54 184.50 C 38.01 184.13 35.47 183.87 32.92 183.69 C 32.92 183.13 32.93 182.01 32.93 181.44 Z" />
</g>
<g id="#d6cc98ff">
<path fill="#d6cc98" opacity="1.00" d=" M 234.06 101.87 C 239.53 118.06 238.53 135.29 238.35 152.10 C 239.37 146.93 240.69 141.83 242.07 136.75 C 241.94 138.79 241.87 140.83 241.73 142.87 C 241.57 144.91 241.29 146.93 240.97 148.94 C 238.63 157.33 236.36 165.79 232.79 173.76 C 229.82 180.70 225.43 186.93 222.82 194.04 C 225.32 192.15 227.78 190.20 230.03 188.00 C 226.99 192.41 224.12 196.93 220.98 201.26 C 220.65 200.04 220.32 198.81 220.00 197.58 C 217.01 200.06 214.25 202.79 211.68 205.69 C 207.36 210.58 202.21 214.62 197.16 218.71 C 196.78 218.33 196.02 217.55 195.64 217.17 C 197.04 215.38 198.42 213.57 199.89 211.84 C 210.01 201.95 218.98 190.82 225.48 178.20 C 232.99 165.63 234.05 150.66 235.45 136.43 C 236.60 124.88 235.02 113.36 234.06 101.87 Z" />
</g>
<g id="#695731ff">
<path fill="#695731" opacity="1.00" d=" M 242.88 111.92 C 242.82 108.42 242.70 104.66 245.48 102.05 C 245.88 102.46 246.68 103.27 247.09 103.68 C 247.16 103.95 247.30 104.51 247.37 104.78 L 247.27 105.44 C 246.55 107.22 245.75 108.97 244.96 110.72 C 244.44 111.02 243.40 111.62 242.88 111.92 Z" />
</g>
<g id="#9d8a58ff">
<path fill="#9d8a58" opacity="1.00" d=" M 244.96 110.72 C 245.75 108.97 246.55 107.22 247.27 105.44 C 246.47 110.96 246.44 116.55 246.08 122.11 C 244.51 125.65 243.98 129.50 244.30 133.34 C 245.36 131.66 246.40 129.97 247.32 128.21 C 246.26 135.14 245.15 142.08 245.35 149.12 C 244.93 146.91 244.50 144.71 244.06 142.51 C 243.48 142.60 242.32 142.78 241.73 142.87 C 241.87 140.83 241.94 138.79 242.07 136.75 C 242.68 128.63 242.64 120.46 242.27 112.33 L 242.88 111.92 C 243.40 111.62 244.44 111.02 244.96 110.72 Z" />
</g>
<g id="#d5c698ff">
<path fill="#d5c698" opacity="1.00" d=" M 247.27 105.44 L 247.37 104.78 C 247.53 105.49 247.86 106.89 248.02 107.59 C 248.11 118.47 248.71 129.36 248.10 140.23 C 246.45 149.31 245.03 158.64 240.77 166.94 C 240.23 160.58 243.12 154.86 245.35 149.12 C 245.15 142.08 246.26 135.14 247.32 128.21 C 247.49 126.10 246.55 124.12 246.08 122.11 C 246.44 116.55 246.47 110.96 247.27 105.44 Z" />
</g>
<g id="#ddd5a1ff">
<path fill="#ddd5a1" opacity="1.00" d=" M 26.20 108.12 C 28.39 109.81 32.45 111.11 31.68 114.58 C 30.14 116.21 28.16 117.31 26.31 118.53 C 26.26 118.98 26.16 119.87 26.12 120.31 C 28.00 120.54 29.88 120.79 31.76 121.09 C 29.68 124.83 24.65 122.74 21.20 122.97 C 21.36 120.46 21.50 117.96 21.63 115.46 C 23.73 115.16 25.84 114.87 27.94 114.58 C 27.94 114.04 27.92 112.96 27.92 112.43 C 26.50 111.59 25.08 110.76 23.66 109.93 C 24.51 109.32 25.35 108.72 26.20 108.12 Z" />
</g>
<g id="#e8e1cbff">
<path fill="#e8e1cb" opacity="1.00" d=" M 248.02 107.59 C 248.64 109.94 249.38 112.25 250.00 114.60 L 250.00 132.39 C 249.41 135.02 248.66 137.60 248.10 140.23 C 248.71 129.36 248.11 118.47 248.02 107.59 Z" />
</g>
<g id="#9f8e5cff">
<path fill="#9f8e5c" opacity="1.00" d=" M 8.31 115.34 C 8.97 113.30 9.67 111.26 10.57 109.32 C 10.27 114.55 9.43 119.77 9.69 125.02 C 9.87 129.50 10.90 133.89 11.65 138.29 C 15.71 169.05 32.12 198.42 57.75 216.28 C 59.52 217.53 61.29 218.78 63.15 219.89 C 63.37 220.90 63.58 221.91 63.80 222.92 C 53.66 217.26 44.96 209.51 36.84 201.30 C 27.11 190.12 19.27 177.36 13.99 163.50 C 8.53 148.12 6.63 131.57 8.31 115.34 Z" />
</g>
<g id="#aea16fff">
<path fill="#aea16f" opacity="1.00" d=" M 15.47 109.70 C 16.11 109.57 17.39 109.29 18.03 109.16 C 18.08 111.39 18.12 113.63 18.15 115.87 C 17.48 115.72 16.12 115.43 15.44 115.28 C 15.45 113.42 15.46 111.56 15.47 109.70 Z" />
</g>
<g id="#ddd39fff">
<path fill="#ddd39f" opacity="1.00" d=" M 219.37 115.51 C 222.25 114.87 225.13 114.20 227.99 113.47 C 228.27 113.86 228.83 114.65 229.10 115.04 C 227.98 116.16 226.85 117.26 225.73 118.36 C 227.25 119.90 228.76 121.46 230.24 123.05 C 226.66 123.13 223.08 123.03 219.52 122.79 C 219.50 120.37 219.45 117.94 219.37 115.51 Z" />
</g>
<g id="#cdc695ff">
<path fill="#cdc695" opacity="1.00" d=" M 14.55 119.24 C 15.43 119.20 17.18 119.12 18.05 119.08 C 18.06 120.59 18.08 122.11 18.09 123.63 C 15.50 123.50 14.64 121.56 14.55 119.24 Z" />
</g>
<g id="#e5dda8ff">
<path fill="#e5dda8" opacity="1.00" d=" M 99.57 139.23 C 98.89 132.63 99.21 125.91 101.47 119.62 C 104.52 125.78 107.91 131.78 111.04 137.90 C 116.06 148.31 112.78 160.43 116.90 171.07 C 118.99 176.67 121.41 182.21 124.93 187.08 C 129.47 193.32 132.65 200.41 137.09 206.72 C 134.30 208.32 131.33 209.83 128.04 209.94 C 118.97 210.37 109.39 211.08 100.93 207.14 C 108.65 208.17 116.86 210.06 124.30 206.65 C 121.24 202.62 118.42 198.41 116.02 193.95 C 113.14 188.62 109.28 183.86 106.85 178.29 C 105.83 176.36 105.14 174.11 103.46 172.64 C 101.27 171.32 98.71 170.84 96.29 170.12 C 96.24 169.67 96.15 168.75 96.10 168.30 C 99.36 169.46 102.81 169.93 106.26 170.03 C 104.20 168.92 102.10 167.89 99.99 166.89 C 104.24 167.03 108.50 166.98 112.75 166.77 C 112.98 160.01 113.13 152.95 110.29 146.64 C 107.80 141.12 104.14 136.25 101.00 131.10 C 100.48 133.81 99.94 136.51 99.57 139.23 Z" />
</g>
<g id="#6c5a32ff">
<path fill="#6c5a32" opacity="1.00" d=" M 244.30 133.34 C 243.98 129.50 244.51 125.65 246.08 122.11 C 246.55 124.12 247.49 126.10 247.32 128.21 C 246.40 129.97 245.36 131.66 244.30 133.34 Z" />
</g>
<g id="#dbd29eff">
<path fill="#dbd29e" opacity="1.00" d=" M 28.50 128.89 C 29.12 128.86 30.36 128.79 30.99 128.76 C 31.31 130.04 31.63 131.32 31.96 132.60 C 30.57 133.47 29.18 134.36 27.79 135.24 C 28.17 136.08 28.56 136.92 28.95 137.77 C 31.27 138.99 33.64 140.49 33.42 143.47 C 31.18 144.65 28.51 145.70 27.95 148.48 C 30.25 148.49 32.55 148.42 34.85 148.33 C 34.82 148.88 34.75 149.98 34.72 150.53 C 31.60 151.31 28.48 152.08 25.35 152.82 C 24.73 150.58 23.92 148.38 23.66 146.07 C 24.92 144.21 27.55 144.02 29.46 143.07 C 29.50 142.29 29.53 141.50 29.57 140.71 C 27.18 140.26 23.43 141.43 22.53 138.37 C 22.08 136.83 22.16 135.22 22.03 133.64 C 24.22 133.33 26.40 133.00 28.59 132.68 C 28.56 131.41 28.53 130.15 28.50 128.89 Z" />
</g>
<g id="#f4f3c0ff">
<path fill="#f4f3c0" opacity="1.00" d=" M 101.00 131.10 C 104.14 136.25 107.80 141.12 110.29 146.64 C 113.13 152.95 112.98 160.01 112.75 166.77 C 108.50 166.98 104.24 167.03 99.99 166.89 C 99.69 157.67 100.00 148.45 99.57 139.23 C 99.94 136.51 100.48 133.81 101.00 131.10 Z" />
</g>
<g id="#b3a674ff">
<path fill="#b3a674" opacity="1.00" d=" M 17.18 140.58 C 17.86 140.47 19.22 140.24 19.90 140.13 C 19.78 142.55 19.65 144.97 19.46 147.40 C 17.08 145.88 17.06 143.11 17.18 140.58 Z" />
</g>
<g id="#76633aff">
<path fill="#76633a" opacity="1.00" d=" M 241.73 142.87 C 242.32 142.78 243.48 142.60 244.06 142.51 C 244.50 144.71 244.93 146.91 245.35 149.12 C 243.84 150.45 242.33 151.77 240.80 153.06 C 240.83 151.69 240.89 150.31 240.97 148.94 C 241.29 146.93 241.57 144.91 241.73 142.87 Z" />
</g>
<g id="#9c8957ff">
<path fill="#9c8957" opacity="1.00" d=" M 232.79 173.76 C 236.36 165.79 238.63 157.33 240.97 148.94 C 240.89 150.31 240.83 151.69 240.80 153.06 C 242.33 151.77 243.84 150.45 245.35 149.12 C 243.12 154.86 240.23 160.58 240.77 166.94 C 237.01 173.86 234.24 181.34 230.03 188.00 C 227.78 190.20 225.32 192.15 222.82 194.04 C 225.43 186.93 229.82 180.70 232.79 173.76 Z" />
</g>
<g id="#d0c996ff">
<path fill="#d0c996" opacity="1.00" d=" M 55.38 155.04 C 55.43 153.05 56.29 151.25 57.36 149.61 C 58.65 155.17 58.58 160.90 59.09 166.56 C 62.25 166.97 65.40 167.60 68.38 168.76 C 64.25 169.80 59.69 171.10 55.54 169.45 C 54.49 164.72 55.03 159.82 55.38 155.04 Z" />
</g>
<g id="#e5dea9ff">
<path fill="#e5dea9" opacity="1.00" d=" M 215.23 151.39 C 218.61 151.83 222.00 152.23 225.39 152.67 C 224.40 154.33 223.39 156.71 220.99 156.10 C 219.02 155.38 217.05 154.64 215.02 154.10 C 215.07 153.42 215.18 152.07 215.23 151.39 Z" />
</g>
<g id="#dad19dff">
<path fill="#dad19d" opacity="1.00" d=" M 32.16 154.43 C 35.41 155.12 38.32 157.26 39.36 160.51 C 37.95 161.46 36.55 162.42 35.15 163.38 C 38.03 164.97 40.92 166.54 43.81 168.12 C 43.06 169.70 42.27 171.27 41.46 172.83 C 40.79 171.41 40.14 169.98 39.48 168.56 C 35.31 168.85 31.43 167.28 28.29 164.59 C 30.27 163.23 32.42 162.15 34.65 161.26 C 34.74 160.37 34.83 159.47 34.92 158.58 C 32.69 158.12 30.46 157.64 28.25 157.10 C 29.52 156.18 30.66 154.98 32.16 154.43 Z" />
</g>
<g id="#b4a36fff">
<path fill="#b4a36f" opacity="1.00" d=" M 160.33 157.31 C 162.59 155.17 165.84 154.67 168.70 153.72 C 174.91 154.20 181.14 154.36 187.37 154.59 C 182.97 154.83 178.58 155.16 174.20 155.58 C 175.82 160.28 177.29 166.39 183.14 167.19 C 176.98 166.91 170.59 167.42 164.70 165.26 C 161.40 164.21 160.23 160.44 160.33 157.31 Z" />
</g>
<g id="#948251ff">
<path fill="#948251" opacity="1.00" d=" M 211.34 154.07 C 212.57 154.03 213.79 154.04 215.02 154.10 C 217.05 154.64 219.02 155.38 220.99 156.10 C 223.80 157.55 224.71 161.47 222.74 163.97 C 220.37 162.47 219.22 159.43 216.36 158.69 C 214.31 157.97 212.19 157.47 210.09 156.93 C 210.51 155.98 210.92 155.02 211.34 154.07 Z" />
</g>
<g id="#9d8c5bff">
<path fill="#9d8c5b" opacity="1.00" d=" M 174.20 155.58 C 178.58 155.16 182.97 154.83 187.37 154.59 C 187.48 158.84 187.42 163.08 187.29 167.33 C 185.90 167.29 184.52 167.25 183.14 167.19 C 177.29 166.39 175.82 160.28 174.20 155.58 Z" />
<path fill="#9d8c5b" opacity="1.00" d=" M 193.68 181.78 C 196.91 180.81 199.08 183.53 201.25 185.41 C 203.15 185.53 205.06 185.67 206.93 186.11 C 206.36 187.47 205.67 188.77 205.01 190.08 C 200.80 187.97 196.66 185.51 193.68 181.78 Z" />
</g>
<g id="#b9ae7cff">
<path fill="#b9ae7c" opacity="1.00" d=" M 22.96 158.34 C 23.69 158.30 25.16 158.23 25.90 158.19 C 25.71 160.95 25.47 163.70 25.00 166.42 C 22.74 164.23 22.02 161.33 22.96 158.34 Z" />
</g>
<g id="#d9ce99ff">
<path fill="#d9ce99" opacity="1.00" d=" M 9.67 170.94 C 11.03 168.41 12.47 165.93 13.99 163.50 C 19.27 177.36 27.11 190.12 36.84 201.30 C 35.39 206.60 40.40 209.84 43.48 213.23 C 43.32 214.23 43.17 215.24 43.02 216.25 C 37.20 212.02 32.27 206.69 28.11 200.84 C 20.87 191.61 14.37 181.71 9.67 170.94 Z" />
</g>
<g id="#8b7b4eff">
<path fill="#8b7b4e" opacity="1.00" d=" M 201.22 172.06 C 206.94 169.45 214.66 174.90 213.21 181.23 C 209.67 178.22 206.35 174.19 201.27 174.21 C 201.26 173.67 201.23 172.60 201.22 172.06 Z" />
</g>
<g id="#9c8b58ff">
<path fill="#9c8b58" opacity="1.00" d=" M 223.38 177.86 C 223.90 177.95 224.95 178.12 225.48 178.20 C 218.98 190.82 210.01 201.95 199.89 211.84 C 193.16 216.84 186.42 221.89 179.17 226.13 C 170.20 231.40 160.22 234.65 150.19 237.22 C 148.24 237.18 146.30 237.06 144.35 236.95 C 144.50 236.44 144.81 235.42 144.96 234.90 C 160.95 231.95 175.95 224.66 189.29 215.52 C 203.64 206.06 214.15 192.10 223.38 177.86 Z" />
</g>
<g id="#ddd7a2ff">
<path fill="#ddd7a2" opacity="1.00" d=" M 42.73 185.74 C 45.53 183.67 48.33 178.78 52.32 181.36 C 49.48 183.98 46.12 186.69 46.23 190.95 C 43.63 190.16 40.92 190.18 38.35 191.08 C 37.21 188.07 41.15 187.48 42.73 185.74 Z" />
</g>
<g id="#c9b67eff">
<path fill="#c9b67e" opacity="1.00" d=" M 168.93 197.00 C 175.58 193.61 182.22 189.95 187.61 184.70 C 186.99 187.05 185.64 189.77 186.68 192.14 C 189.42 193.69 192.76 193.80 195.38 195.58 C 197.25 197.26 198.29 199.64 199.53 201.79 C 197.21 202.16 194.90 202.51 192.58 202.86 C 188.19 200.18 184.70 195.20 179.14 195.14 C 181.59 199.42 185.46 202.53 189.53 205.18 C 190.27 205.69 191.01 206.21 191.75 206.74 C 190.73 209.60 189.89 212.53 189.29 215.52 C 175.95 224.66 160.95 231.95 144.96 234.90 C 134.56 236.52 124.04 237.14 113.64 238.76 C 121.58 240.85 129.85 239.87 137.95 239.99 C 131.05 241.08 124.07 243.15 117.04 242.01 C 104.64 239.78 91.35 238.69 80.75 231.19 C 88.64 232.37 96.27 234.98 104.25 235.66 C 112.43 236.40 120.73 236.68 128.89 235.57 C 133.08 235.02 136.48 232.32 139.76 229.88 C 139.64 228.90 139.52 227.93 139.41 226.95 C 138.92 222.81 138.43 218.67 137.88 214.54 C 138.06 214.04 138.43 213.04 138.62 212.54 C 142.99 211.30 147.44 210.27 151.65 208.52 C 158.13 205.82 162.71 200.15 168.93 197.00 M 173.59 199.26 C 174.15 204.15 178.53 207.50 182.90 208.98 C 184.46 208.42 184.65 206.61 185.31 205.31 C 183.61 205.30 181.92 205.28 180.22 205.29 C 179.09 203.28 177.96 201.27 176.84 199.26 C 176.03 199.26 174.40 199.26 173.59 199.26 M 164.88 207.60 C 166.85 207.44 168.82 207.26 170.79 207.08 C 172.35 209.31 173.88 211.55 175.38 213.82 C 176.26 213.47 177.13 213.14 178.01 212.80 C 176.29 208.78 174.23 203.14 169.06 202.98 C 166.39 202.75 165.88 205.80 164.88 207.60 M 155.51 213.89 C 156.99 212.94 158.45 211.98 159.92 211.02 C 161.72 213.88 163.59 216.70 165.78 219.28 C 166.42 214.46 164.59 208.09 159.01 207.35 C 155.85 207.87 155.07 211.17 155.51 213.89 M 147.03 211.24 C 147.60 214.44 147.80 218.26 150.69 220.34 C 152.16 221.81 154.29 221.24 156.12 221.11 C 154.76 220.64 153.40 220.19 152.05 219.74 C 151.41 217.04 150.78 214.33 150.19 211.63 C 149.14 211.49 148.08 211.37 147.03 211.24 M 139.70 213.06 C 138.41 218.27 142.16 223.54 147.51 224.02 C 147.57 223.42 147.69 222.22 147.75 221.62 C 146.65 221.55 145.55 221.47 144.45 221.40 C 143.75 218.81 143.06 216.22 142.41 213.63 C 141.73 213.49 140.38 213.20 139.70 213.06 Z" />
</g>
<g id="#d0c794ff">
<path fill="#d0c794" opacity="1.00" d=" M 48.09 193.95 C 49.75 190.49 52.50 187.80 55.93 186.11 C 56.16 186.58 56.64 187.52 56.87 187.99 C 54.98 190.05 53.10 192.13 51.22 194.21 C 51.89 194.99 52.56 195.78 53.23 196.58 C 54.41 196.58 55.58 196.58 56.75 196.59 C 56.68 200.08 56.52 203.56 56.16 207.03 C 54.87 206.30 53.57 205.57 52.29 204.83 C 52.33 202.50 52.40 200.18 52.49 197.85 C 49.70 196.01 45.74 198.44 43.63 195.57 C 45.11 195.01 46.60 194.48 48.09 193.95 Z" />
</g>
<g id="#8c7c4fff">
<path fill="#8c7c4f" opacity="1.00" d=" M 188.77 187.85 C 191.94 185.48 196.01 188.31 198.11 190.88 C 199.85 192.54 199.46 195.02 199.28 197.17 C 196.90 194.75 194.62 192.25 192.21 189.88 C 190.82 190.37 189.46 190.96 188.02 191.29 C 186.35 190.64 188.27 188.79 188.77 187.85 Z" />
</g>
<g id="#e8e2adff">
<path fill="#e8e2ad" opacity="1.00" d=" M 67.15 191.52 C 74.47 197.32 82.32 202.39 90.43 207.01 C 89.97 214.35 90.99 221.95 87.87 228.88 C 82.88 227.67 77.88 226.48 72.99 224.91 C 69.67 223.31 66.35 221.72 63.15 219.89 C 61.29 218.78 59.52 217.53 57.75 216.28 C 60.80 217.34 63.93 218.14 67.04 219.00 C 67.38 214.52 68.57 210.20 69.77 205.90 C 70.56 203.61 69.41 201.37 68.67 199.26 C 66.95 200.35 65.24 201.45 63.51 202.55 C 63.01 200.08 61.51 197.40 62.59 194.90 C 63.90 193.51 65.58 192.57 67.15 191.52 M 80.19 205.10 C 80.64 211.03 79.07 217.12 80.95 222.90 C 81.73 222.89 83.28 222.88 84.06 222.87 C 85.69 217.08 84.08 211.22 82.37 205.66 C 81.82 205.52 80.73 205.24 80.19 205.10 M 70.19 208.33 C 69.25 211.11 68.96 214.05 69.92 216.87 C 70.65 216.87 72.09 216.87 72.82 216.87 C 72.75 213.97 72.71 211.07 72.70 208.17 C 72.07 208.21 70.81 208.29 70.19 208.33 Z" />
</g>
<g id="#9e8d5bff">
<path fill="#9e8d5b" opacity="1.00" d=" M 179.14 195.14 C 184.70 195.20 188.19 200.18 192.58 202.86 C 191.56 203.63 190.54 204.40 189.53 205.18 C 185.46 202.53 181.59 199.42 179.14 195.14 Z" />
</g>
<g id="#87764dff">
<path fill="#87764d" opacity="1.00" d=" M 211.68 205.69 C 214.25 202.79 217.01 200.06 220.00 197.58 C 220.32 198.81 220.65 200.04 220.98 201.26 C 217.00 205.19 212.42 208.49 208.75 212.74 C 202.95 219.84 194.51 223.87 187.74 229.89 C 185.79 229.88 183.83 229.86 181.89 229.84 C 187.00 226.16 192.28 222.71 197.16 218.71 C 202.21 214.62 207.36 210.58 211.68 205.69 Z" />
</g>
<g id="#9b8959ff">
<path fill="#9b8959" opacity="1.00" d=" M 173.59 199.26 C 174.40 199.26 176.03 199.26 176.84 199.26 C 177.96 201.27 179.09 203.28 180.22 205.29 C 181.92 205.28 183.61 205.30 185.31 205.31 C 184.65 206.61 184.46 208.42 182.90 208.98 C 178.53 207.50 174.15 204.15 173.59 199.26 Z" />
</g>
<g id="#928051ff">
<path fill="#928051" opacity="1.00" d=" M 164.88 207.60 C 165.88 205.80 166.39 202.75 169.06 202.98 C 174.23 203.14 176.29 208.78 178.01 212.80 C 177.13 213.14 176.26 213.47 175.38 213.82 C 173.88 211.55 172.35 209.31 170.79 207.08 C 168.82 207.26 166.85 207.44 164.88 207.60 Z" />
</g>
<g id="#d2c894ff">
<path fill="#d2c894" opacity="1.00" d=" M 80.19 205.10 C 80.73 205.24 81.82 205.52 82.37 205.66 C 84.08 211.22 85.69 217.08 84.06 222.87 C 83.28 222.88 81.73 222.89 80.95 222.90 C 79.07 217.12 80.64 211.03 80.19 205.10 Z" />
</g>
<g id="#938252ff">
<path fill="#938252" opacity="1.00" d=" M 155.51 213.89 C 155.07 211.17 155.85 207.87 159.01 207.35 C 164.59 208.09 166.42 214.46 165.78 219.28 C 163.59 216.70 161.72 213.88 159.92 211.02 C 158.45 211.98 156.99 212.94 155.51 213.89 Z" />
</g>
<g id="#cac08eff">
<path fill="#cac08e" opacity="1.00" d=" M 70.19 208.33 C 70.81 208.29 72.07 208.21 72.70 208.17 C 72.71 211.07 72.75 213.97 72.82 216.87 C 72.09 216.87 70.65 216.87 69.92 216.87 C 68.96 214.05 69.25 211.11 70.19 208.33 Z" />
</g>
<g id="#8f7f52ff">
<path fill="#8f7f52" opacity="1.00" d=" M 147.03 211.24 C 148.08 211.37 149.14 211.49 150.19 211.63 C 150.78 214.33 151.41 217.04 152.05 219.74 C 153.40 220.19 154.76 220.64 156.12 221.11 C 154.29 221.24 152.16 221.81 150.69 220.34 C 147.80 218.26 147.60 214.44 147.03 211.24 Z" />
</g>
<g id="#988655ff">
<path fill="#988655" opacity="1.00" d=" M 139.70 213.06 C 140.38 213.20 141.73 213.49 142.41 213.63 C 143.06 216.22 143.75 218.81 144.45 221.40 C 145.55 221.47 146.65 221.55 147.75 221.62 C 147.69 222.22 147.57 223.42 147.51 224.02 C 142.16 223.54 138.41 218.27 139.70 213.06 Z" />
</g>
<g id="#e3daa6ff">
<path fill="#e3daa6" opacity="1.00" d=" M 120.02 214.28 C 122.07 214.58 124.50 214.19 126.16 215.69 C 127.28 219.80 127.06 224.25 126.23 228.39 C 125.89 230.85 123.09 230.55 121.28 231.07 C 121.02 230.17 120.76 229.27 120.51 228.37 C 121.93 226.43 124.21 224.67 124.28 222.10 C 122.78 219.53 120.46 217.37 120.02 214.28 Z" />
</g>
<g id="#e7dfaaff">
<path fill="#e7dfaa" opacity="1.00" d=" M 132.15 214.79 C 134.06 214.70 135.97 214.63 137.88 214.54 C 138.43 218.67 138.92 222.81 139.41 226.95 C 137.48 228.11 135.52 229.20 133.55 230.27 C 133.20 229.24 132.87 228.22 132.53 227.20 C 134.03 225.83 137.15 224.97 136.60 222.41 C 135.82 219.53 133.80 217.21 132.15 214.79 Z" />
</g>
<g id="#b4a16cff">
<path fill="#b4a16c" opacity="1.00" d=" M 113.64 238.76 C 124.04 237.14 134.56 236.52 144.96 234.90 C 144.81 235.42 144.50 236.44 144.35 236.95 C 146.30 237.06 148.24 237.18 150.19 237.22 C 146.16 238.34 142.10 239.41 137.95 239.99 C 129.85 239.87 121.58 240.85 113.64 238.76 Z" />
</g>
</svg>
