<?xml version="1.0" encoding="UTF-8" ?>
<!DOCTYPE svg PUBLIC "-//W3C//DTD SVG 1.1//EN" "http://www.w3.org/Graphics/SVG/1.1/DTD/svg11.dtd">
<svg width="250pt" height="250pt" viewBox="0 0 250 250" version="1.1" xmlns="http://www.w3.org/2000/svg">
<g id="#ffffffff">
<path fill="#ffffff" opacity="1.00" d=" M 0.00 0.00 L 115.71 0.00 C 109.70 1.04 103.60 1.57 97.67 3.04 C 71.12 9.25 46.22 23.69 28.91 44.94 C 12.06 65.06 2.40 90.58 0.00 116.60 L 0.00 0.00 Z" />
<path fill="#ffffff" opacity="1.00" d=" M 135.29 0.00 L 250.00 0.00 L 250.00 116.64 C 247.67 90.60 237.90 65.08 221.09 44.94 C 202.30 22.01 174.80 6.84 145.73 1.72 C 142.24 1.22 138.75 0.70 135.29 0.00 Z" />
<path fill="#ffffff" opacity="1.00" d=" M 0.00 127.48 C 0.71 167.72 21.98 207.32 55.95 229.16 C 73.79 241.53 95.23 247.65 116.62 250.00 L 0.00 250.00 L 0.00 127.48 Z" />
<path fill="#ffffff" opacity="1.00" d=" M 237.84 178.57 C 244.70 164.77 248.02 149.54 250.00 134.36 L 250.00 250.00 L 134.29 250.00 C 140.62 248.82 147.04 248.14 153.31 246.62 C 161.68 244.76 169.73 241.72 177.65 238.47 C 203.87 226.32 225.65 204.80 237.84 178.57 Z" />
</g>
<g id="#250030ff">
<path fill="#250030" opacity="1.00" d=" M 115.71 0.00 L 135.29 0.00 C 138.75 0.70 142.24 1.22 145.73 1.72 C 174.80 6.84 202.30 22.01 221.09 44.94 C 237.90 65.08 247.67 90.60 250.00 116.64 L 250.00 134.36 C 248.02 149.54 244.70 164.77 237.84 178.57 C 225.65 204.80 203.87 226.32 177.65 238.47 C 169.73 241.72 161.68 244.76 153.31 246.62 C 147.04 248.14 140.62 248.82 134.29 250.00 L 116.62 250.00 C 95.23 247.65 73.79 241.53 55.95 229.16 C 21.98 207.32 0.71 167.72 0.00 127.48 L 0.00 116.60 C 2.40 90.58 12.06 65.06 28.91 44.94 C 46.22 23.69 71.12 9.25 97.67 3.04 C 103.60 1.57 109.70 1.04 115.71 0.00 M 114.36 59.29 C 114.35 60.78 114.36 62.27 114.38 63.77 C 120.29 65.80 126.36 67.37 132.37 69.05 C 132.57 65.71 131.75 62.46 130.91 59.26 C 125.39 59.16 119.87 59.12 114.36 59.29 M 133.81 59.19 C 134.02 62.73 134.54 66.26 135.79 69.60 C 138.41 69.02 141.17 68.82 143.66 67.75 C 146.74 65.56 149.06 62.44 151.11 59.30 C 145.34 59.09 139.57 59.22 133.81 59.19 M 146.51 68.90 C 149.05 71.75 151.64 74.58 154.64 76.97 C 154.58 71.27 154.68 65.56 154.56 59.86 C 151.23 62.23 148.99 65.72 146.51 68.90 M 114.76 66.67 C 114.39 71.81 114.40 76.99 114.77 82.14 C 120.14 78.77 125.68 75.47 130.28 71.08 C 125.20 69.31 119.98 67.98 114.76 66.67 M 128.70 75.88 C 132.13 78.76 134.63 83.93 139.63 83.92 C 140.77 79.60 141.98 75.30 142.85 70.91 C 137.81 71.24 132.16 71.68 128.70 75.88 M 145.28 71.89 C 144.13 75.81 143.15 79.77 142.19 83.74 C 146.42 83.83 150.64 83.84 154.86 83.67 C 154.59 82.20 154.88 80.43 153.62 79.35 C 151.02 76.68 148.61 73.67 145.28 71.89 M 117.78 83.75 C 122.87 83.85 127.97 83.81 133.07 83.76 C 131.01 81.55 129.11 78.41 126.06 77.70 C 122.97 79.21 120.17 81.28 117.78 83.75 M 115.94 93.31 C 118.43 98.69 121.75 103.61 124.45 108.88 C 130.31 106.59 136.00 103.71 141.21 100.18 C 136.74 98.13 132.16 96.34 127.67 94.34 C 124.00 92.63 119.85 93.37 115.94 93.31 M 134.23 93.70 C 136.83 96.36 140.62 97.40 144.04 98.63 C 147.09 98.13 150.03 96.20 151.83 93.68 C 145.98 93.27 140.08 93.23 134.23 93.70 M 146.81 100.84 C 149.23 103.76 151.45 106.93 154.58 109.15 C 154.67 104.78 154.62 100.41 154.61 96.04 C 151.80 97.27 149.07 98.74 146.81 100.84 M 114.49 96.84 C 114.36 102.56 114.47 108.28 114.43 114.00 C 117.31 113.15 119.94 111.69 122.42 110.04 C 119.79 105.64 117.95 100.68 114.49 96.84 M 142.64 102.61 C 137.07 105.36 131.52 108.18 126.04 111.11 C 128.62 115.86 131.03 120.76 134.13 125.21 C 140.99 125.14 147.79 122.73 154.61 121.64 C 154.61 118.91 154.85 116.15 154.43 113.45 C 152.29 110.36 149.53 107.77 147.19 104.84 C 146.01 103.63 144.59 101.20 142.64 102.61 M 114.87 116.81 C 113.75 121.81 112.19 126.82 112.42 132.01 C 112.67 137.78 111.23 143.50 111.79 149.28 C 114.96 146.97 117.21 143.71 119.85 140.88 C 123.74 136.16 128.36 132.00 131.83 126.97 C 129.86 121.86 126.56 117.38 123.94 112.58 C 120.80 113.70 117.62 114.88 114.87 116.81 M 135.99 128.01 C 139.63 133.62 143.90 138.79 147.70 144.29 C 148.50 145.16 149.04 146.70 150.47 146.58 C 154.03 139.81 155.09 132.04 154.39 124.48 C 148.17 125.11 142.05 126.51 135.99 128.01 M 124.80 138.80 C 120.51 143.85 115.69 148.47 111.86 153.90 C 116.50 159.90 121.03 166.01 126.01 171.75 C 130.36 168.21 134.12 164.04 138.18 160.18 C 141.68 156.59 145.74 153.47 148.42 149.16 C 143.67 142.46 138.67 135.93 133.83 129.29 C 130.32 131.94 127.76 135.58 124.80 138.80 M 90.33 151.32 C 88.36 153.14 86.50 155.07 84.88 157.20 C 92.26 156.11 99.58 154.63 106.85 153.01 C 109.25 152.93 109.33 150.22 109.43 148.41 C 109.64 143.17 109.80 137.93 109.84 132.69 C 103.08 138.62 96.86 145.14 90.33 151.32 M 81.07 160.58 C 81.36 161.70 81.56 162.87 82.08 163.93 C 86.96 172.80 92.04 181.58 96.48 190.68 C 97.81 190.73 99.15 190.75 100.48 190.75 C 102.76 178.97 106.09 167.41 108.18 155.58 C 99.04 156.53 90.17 159.26 81.07 160.58 M 108.93 164.05 C 107.19 172.76 104.56 181.30 103.18 190.09 C 108.51 189.53 112.29 185.44 115.85 181.85 C 118.44 179.13 121.42 176.79 123.82 173.90 C 123.24 171.84 121.62 170.31 120.40 168.61 C 117.20 164.78 114.50 160.52 110.87 157.06 C 110.04 159.33 109.40 161.67 108.93 164.05 M 93.12 190.03 C 92.20 186.86 90.54 183.99 88.89 181.16 C 85.82 175.88 83.36 170.25 79.87 165.23 C 75.52 175.15 82.62 187.89 93.12 190.03 Z" />
</g>
<g id="#fd3082ff">
<path fill="#fd3082" opacity="1.00" d=" M 114.36 59.29 C 119.87 59.12 125.39 59.16 130.91 59.26 C 131.75 62.46 132.57 65.71 132.37 69.05 C 126.36 67.37 120.29 65.80 114.38 63.77 C 114.36 62.27 114.35 60.78 114.36 59.29 Z" />
<path fill="#fd3082" opacity="1.00" d=" M 133.81 59.19 C 139.57 59.22 145.34 59.09 151.11 59.30 C 149.06 62.44 146.74 65.56 143.66 67.75 C 141.17 68.82 138.41 69.02 135.79 69.60 C 134.54 66.26 134.02 62.73 133.81 59.19 Z" />
<path fill="#fd3082" opacity="1.00" d=" M 146.51 68.90 C 148.99 65.72 151.23 62.23 154.56 59.86 C 154.68 65.56 154.58 71.27 154.64 76.97 C 151.64 74.58 149.05 71.75 146.51 68.90 Z" />
<path fill="#fd3082" opacity="1.00" d=" M 114.76 66.67 C 119.98 67.98 125.20 69.31 130.28 71.08 C 125.68 75.47 120.14 78.77 114.77 82.14 C 114.40 76.99 114.39 71.81 114.76 66.67 Z" />
<path fill="#fd3082" opacity="1.00" d=" M 128.70 75.88 C 132.16 71.68 137.81 71.24 142.85 70.91 C 141.98 75.30 140.77 79.60 139.63 83.92 C 134.63 83.93 132.13 78.76 128.70 75.88 Z" />
<path fill="#fd3082" opacity="1.00" d=" M 145.28 71.89 C 148.61 73.67 151.02 76.68 153.62 79.35 C 154.88 80.43 154.59 82.20 154.86 83.67 C 150.64 83.84 146.42 83.83 142.19 83.74 C 143.15 79.77 144.13 75.81 145.28 71.89 Z" />
<path fill="#fd3082" opacity="1.00" d=" M 117.78 83.75 C 120.17 81.28 122.97 79.21 126.06 77.70 C 129.11 78.41 131.01 81.55 133.07 83.76 C 127.97 83.81 122.87 83.85 117.78 83.75 Z" />
<path fill="#fd3082" opacity="1.00" d=" M 115.94 93.31 C 119.85 93.37 124.00 92.63 127.67 94.34 C 132.16 96.34 136.74 98.13 141.21 100.18 C 136.00 103.71 130.31 106.59 124.45 108.88 C 121.75 103.61 118.43 98.69 115.94 93.31 Z" />
<path fill="#fd3082" opacity="1.00" d=" M 134.23 93.70 C 140.08 93.23 145.98 93.27 151.83 93.68 C 150.03 96.20 147.09 98.13 144.04 98.63 C 140.62 97.40 136.83 96.36 134.23 93.70 Z" />
<path fill="#fd3082" opacity="1.00" d=" M 146.81 100.84 C 149.07 98.74 151.80 97.27 154.61 96.04 C 154.62 100.41 154.67 104.78 154.58 109.15 C 151.45 106.93 149.23 103.76 146.81 100.84 Z" />
<path fill="#fd3082" opacity="1.00" d=" M 114.49 96.84 C 117.95 100.68 119.79 105.64 122.42 110.04 C 119.94 111.69 117.31 113.15 114.43 114.00 C 114.47 108.28 114.36 102.56 114.49 96.84 Z" />
<path fill="#fd3082" opacity="1.00" d=" M 142.64 102.61 C 144.59 101.20 146.01 103.63 147.19 104.84 C 149.53 107.77 152.29 110.36 154.43 113.45 C 154.85 116.15 154.61 118.91 154.61 121.64 C 147.79 122.73 140.99 125.14 134.13 125.21 C 131.03 120.76 128.62 115.86 126.04 111.11 C 131.52 108.18 137.07 105.36 142.64 102.61 Z" />
<path fill="#fd3082" opacity="1.00" d=" M 114.87 116.81 C 117.62 114.88 120.80 113.70 123.94 112.58 C 126.56 117.38 129.86 121.86 131.83 126.97 C 128.36 132.00 123.74 136.16 119.85 140.88 C 117.21 143.71 114.96 146.97 111.79 149.28 C 111.23 143.50 112.67 137.78 112.42 132.01 C 112.19 126.82 113.75 121.81 114.87 116.81 Z" />
<path fill="#fd3082" opacity="1.00" d=" M 135.99 128.01 C 142.05 126.51 148.17 125.11 154.39 124.48 C 155.09 132.04 154.03 139.81 150.47 146.58 C 149.04 146.70 148.50 145.16 147.70 144.29 C 143.90 138.79 139.63 133.62 135.99 128.01 Z" />
<path fill="#fd3082" opacity="1.00" d=" M 124.80 138.80 C 127.76 135.58 130.32 131.94 133.83 129.29 C 138.67 135.93 143.67 142.46 148.42 149.16 C 145.74 153.47 141.68 156.59 138.18 160.18 C 134.12 164.04 130.36 168.21 126.01 171.75 C 121.03 166.01 116.50 159.90 111.86 153.90 C 115.69 148.47 120.51 143.85 124.80 138.80 Z" />
<path fill="#fd3082" opacity="1.00" d=" M 90.33 151.32 C 96.86 145.14 103.08 138.62 109.84 132.69 C 109.80 137.93 109.64 143.17 109.43 148.41 C 109.33 150.22 109.25 152.93 106.85 153.01 C 99.58 154.63 92.26 156.11 84.88 157.20 C 86.50 155.07 88.36 153.14 90.33 151.32 Z" />
<path fill="#fd3082" opacity="1.00" d=" M 81.07 160.58 C 90.17 159.26 99.04 156.53 108.18 155.58 C 106.09 167.41 102.76 178.97 100.48 190.75 C 99.15 190.75 97.81 190.73 96.48 190.68 C 92.04 181.58 86.96 172.80 82.08 163.93 C 81.56 162.87 81.36 161.70 81.07 160.58 Z" />
<path fill="#fd3082" opacity="1.00" d=" M 108.93 164.05 C 109.40 161.67 110.04 159.33 110.87 157.06 C 114.50 160.52 117.20 164.78 120.40 168.61 C 121.62 170.31 123.24 171.84 123.82 173.90 C 121.42 176.79 118.44 179.13 115.85 181.85 C 112.29 185.44 108.51 189.53 103.18 190.09 C 104.56 181.30 107.19 172.76 108.93 164.05 Z" />
<path fill="#fd3082" opacity="1.00" d=" M 93.12 190.03 C 82.62 187.89 75.52 175.15 79.87 165.23 C 83.36 170.25 85.82 175.88 88.89 181.16 C 90.54 183.99 92.20 186.86 93.12 190.03 Z" />
</g>
</svg>
