<?xml version="1.0" encoding="utf-8"?>
<!-- Generator: Adobe Illustrator 26.0.3, SVG Export Plug-In . SVG Version: 6.00 Build 0)  -->
<svg version="1.1" id="Layer_1" xmlns="http://www.w3.org/2000/svg" xmlns:xlink="http://www.w3.org/1999/xlink" x="0px" y="0px"
	 viewBox="0 0 250 250" style="enable-background:new 0 0 250 250;" xml:space="preserve">
<style type="text/css">
	.st0{fill:#FEFEFD;}
	.st1{fill:#6F2A08;}
	.st2{fill:#FEA658;}
	.st3{fill:#FCD2B5;}
</style>
<g id="_x23_fefefdff">
	<path class="st0" d="M112.4,5.4c24.3-2.7,49.4,2.4,70.8,14.3C207.5,33,226.9,55.1,237,81c7.3,18.6,10.1,39.1,7.4,59
		c-3.1,25.9-15,50.6-33.3,69.1c-17.9,18.5-42,31-67.4,34.8c-27.1,4.4-55.8-1-79.4-15c-23.9-13.8-42.5-36.2-52.1-62
		c-7.9-21.2-9.7-44.5-4.9-66.6C13.2,72,29.6,46,52.8,28.8C70.1,15.9,90.8,7.4,112.4,5.4 M134.2,13.3c-1.4,1.2-0.3,3.2-0.3,4.7
		c-1.3,1.7-2.4,3.6-2.8,5.7c3.3-1,6.8-0.7,9.7,1.3c-0.9-3.8,1.7-6.6,3.2-9.7c-1.9,0.1-3.8,0.3-5.7,0.2C136.9,15,135.6,14,134.2,13.3
		 M81.4,19.5c-4.3,2.4-2.4,10.4,2.7,10.2c4.7,0.7,7.2-5.2,5-8.8C87.3,18.5,83.9,18.7,81.4,19.5 M52,35.1c-5.3,2.2-7.2,8.2-8.2,13.3
		c-2.8,16.1,0,32.5,2.3,48.4c-5.3,14.3-10.3,28.9-12.3,44.1c-0.5,4.8-0.7,9.8,1.1,14.3c3.6,9.5,9.7,17.9,16.4,25.3
		c12,13.3,27.2,23.8,44.1,29.9c19,7.1,40.4,6.9,59.4,0c22.1-8.2,41.4-23.8,54.4-43.5c4.2-6.9,8.4-14.7,7.3-23.1
		c-1.6-16.2-6.7-31.9-12.6-47c2.4-15.3,4.9-30.9,2.8-46.4c-0.9-5.4-2.2-11.8-7.4-14.8c-5.2-2.6-11.4-1.4-16.4,1.2
		c-9.3,4.8-16,13-22.7,20.8c-22.7-7-47.6-7-70.3,0c-6.1-7.3-12.4-14.8-20.7-19.7C64.1,34.9,57.8,33.1,52,35.1 M150.5,35.5
		c-0.4,4.8-0.2,9.6-0.2,14.4c1.1,0,2.2,0,3.3,0c0-4.8,0.2-9.6-0.1-14.4C152.5,35.5,151.5,35.5,150.5,35.5 M218.3,74.4
		c-1.3,0-1.4,2.3-0.8,3.1c2.4,2.6,5.3,4.8,8.3,6.7c1.2,1.1,3.8,0.6,3.9-1.2c-1.8-2.4-4.6-3.9-6.8-5.9
		C221.4,76.3,220.1,74.3,218.3,74.4 M19.4,84.3c-1.9,1.3-1.1,4-0.2,5.6c1.9,3,3.7,6.2,6.3,8.7c1.6,0.2,4.5,0.6,4.3-1.8
		c0.8-4.3-2.9-7.2-5.4-10.1C23.1,85.1,21.4,83.9,19.4,84.3 M23.4,113.5c-3,0.7-4.4,4.7-3.3,7.4c1.2,3.6,6.3,4.6,9.1,2.3
		c2.2-2.4,2.4-6.9-0.4-8.9C27.4,112.8,25.1,113.2,23.4,113.5 M224.1,121.2c0.1,1,0.4,2.1,0.7,3c4.3,1.4,8.6,2.6,12.9,3.7
		c0-1.1,0-2.3,0-3.4C233.2,123.3,228.8,121.2,224.1,121.2 M225.4,163.4c-2.9,0.1-4.7,2.9-5,5.6c0.2,2.1,1.7,3.9,3.4,5.2
		c2.5,1.2,5.7,0.1,7.4-2C233.4,168.4,230.2,162.2,225.4,163.4 M45.5,195.5c-1.2,1-2.6,1.7-3.9,2.6c-0.9,2.8,2.9,3.2,4.6,4.3
		c0.4,2.5,1.7,4.8,4.5,3.6c0.3-1.4,0.6-2.8,0.9-4.2c1.5-0.6,3-1.2,4.6-1.8c-0.1-0.7-0.2-2.2-0.2-2.9c-1.5-0.5-2.9-1.1-4.4-1.6
		c-0.7-1.6-0.7-4-2.7-4.6C47,191.6,46.8,194.1,45.5,195.5 M184.1,198.1c0.3,1.2-0.1,2.9,1.3,3.6c3.5,2.3,7.2,4,10.7,6.3
		c0.2-1.3,1.6-3,0-3.9C192.3,201.6,188.6,198.9,184.1,198.1 M167.2,218.4c-3.6,2.9-6.6,6.3-9.6,9.7c0.8,0.6,1.7,2.4,2.9,1.4
		c3.5-2.7,6.7-6,9.5-9.4C169.1,219.5,168.3,218.6,167.2,218.4 M89.3,221.2c-3.3,2.1-6.5,4.3-9.7,6.5c-2.1,1.1,0.4,4.6,2.2,3.4
		c3.7-2,7.1-4.4,10.2-7.2C93.3,222,91.1,219.6,89.3,221.2z"/>
	<path class="st0" d="M83.3,21.3c3.6-1.7,6,4.2,2.4,5.7C82.2,29,79.2,22.4,83.3,21.3z"/>
	<path class="st0" d="M53.2,73.8c-0.7-8.1-1.2-17.2,2.8-24.6c4.1,3.2,8.2,8,6.9,13.7c-1.5,5-5.4,9-8.5,13.1
		C54,75.4,53.5,74.3,53.2,73.8z"/>
	<path class="st0" d="M191.2,49.7c3.7-1.2,4.7,3.1,5.3,5.9c0.9,6,1.3,12.3,0.3,18.3c-0.2,0.5-0.8,1.6-1,2.1
		c-3.1-3.9-6.6-7.6-8.4-12.3C185.8,58.5,189.9,54.3,191.2,49.7z"/>
	<path class="st0" d="M72.2,103.8c-0.7-3.8,3-6.3,5.9-8c4.6-0.3,8.9,2.3,12.8,4.4c2.5,1.2,2.6,4.1,2.8,6.5
		c-4.3,3.1-9.9,1.8-14.8,1.9C75.9,108.9,72.7,106.9,72.2,103.8z"/>
	<path class="st0" d="M165.4,96.5c3.1-1.2,6.7-1.2,9.6,0.5c3.1,2.6,4.4,8.8-0.1,10.8c-3.8,1.4-8,0.7-11.9,0.8
		c-2.7,0.4-6.2-1.6-6.2-4.5C158.6,100.6,161.8,98,165.4,96.5z"/>
	<path class="st0" d="M22,119.9c0.8-1.7,1.4-4.2,3.8-3.7c2.9,0.1,2.9,4.3,0.8,5.5C24.8,122.1,23.4,120.8,22,119.9z"/>
	<path class="st0" d="M44.6,143.7c3-0.2,6-0.1,8.8,1.1c7.3,2.9,13.8,7.6,21.4,9.7c5.9,1.9,12.2,2.5,18.2,1.4
		c8.5-1.2,15.8-6.1,24.4-6.9c10.6-2,21.3,0.8,31.2,4.4c7.7,2.9,16.2,3.9,24.3,2.1c7.1-1.7,12.8-6.5,19.6-9.1
		c4.1-1.5,8.3-3.2,12.7-2.8c-0.5,2.2-0.9,4.5-1.8,6.6c-5,10.4-12.9,19-21.3,26.8c-10.6,8.8-22.6,16.3-36,20.1
		c-2.1,0.7-4.4,0.4-6.5,0c2.1-2.4,3.4-5.3,4.3-8.3c1.8-5.4,6.4-9,10.9-12.1c2.2-1.4,3.6-4.5,2.2-6.9c-0.9-1.8-3.1-2.3-4.8-3
		c0.2,2.6,2.6,6.4-1,7.6c-8.4,2.6-16.9-1.6-24.6-4.6c0.5-1.1,0.3-3,1.6-3.5c4.1-2.2,9.1-4.6,10.3-9.5c0.9-2.8-2.1-4.4-4.4-5
		c-6.5-1.8-13.6-1.8-20,0.5c-1.8,0.6-3.6,2.4-2.9,4.4c1.4,5.3,6.7,7.7,11.1,10c2.3,2.7-1.6,4.3-3.7,5c-6.4,2.2-13.5,5-20.2,2.7
		c-3.6-1.1-1.2-4.9-0.8-7.3c-1.6,0.5-3.9,0.2-4.7,2.1c-1.5,2.6-0.7,6.3,2,7.7c4.6,2.9,9.8,5.8,11.8,11.1c1.1,3.3,1.8,6.9,4.4,9.4
		c-2.2,0.4-4.4,0.7-6.5,0c-16.7-4.5-31.4-14.5-43.5-26.6c-4.2-4.5-8.1-9.4-11.3-14.7C47.6,152.2,45.2,148.2,44.6,143.7z"/>
	<path class="st0" d="M224.2,166.2c1.9,0,5.3-0.1,4.7,2.8c0.7,2.8-3.2,3.6-4.7,1.9C222.6,169.6,223.9,167.7,224.2,166.2z"/>
</g>
<g id="_x23_6f2a08ff">
	<path class="st1" d="M77.4,9.5c21.4-9,45.3-11.3,68.1-7.7c27.2,4.4,52.6,18.3,71.2,38.5c20.4,21.5,32,50.7,33.3,80.3v6.9
		c-0.6,21.4-6.4,42.6-17.4,61c-19.5,33.2-54.9,56.6-93.3,60.6c-3,0.1-6,0.4-8.9,0.9h-10.8c-7.3-0.6-14.5-1.5-21.6-3
		c-25.6-5.6-49.3-19.6-66.6-39.4C12,185.9,0.6,157.1,0.2,128c-0.8-24.9,6.3-50,19.9-70.9C33.9,36,54.1,19,77.4,9.5 M112.4,5.4
		C90.8,7.4,70.1,15.9,52.8,28.8C29.6,46,13.2,72,7.2,100.2c-4.7,22.1-2.9,45.5,4.9,66.6c9.6,25.8,28.2,48.2,52.1,62
		c23.6,14,52.3,19.5,79.4,15c25.5-3.9,49.5-16.3,67.4-34.8c18.3-18.5,30.2-43.3,33.3-69.1c2.6-19.9-0.1-40.4-7.4-59
		c-10.1-25.9-29.5-48-53.8-61.3C161.8,7.8,136.7,2.6,112.4,5.4z"/>
	<path class="st1" d="M52,35.1c5.8-2,12.1-0.1,17.1,2.8c8.3,4.9,14.6,12.5,20.7,19.7c22.7-7,47.6-7,70.3,0
		c6.7-7.8,13.4-16,22.7-20.8c4.9-2.6,11.2-3.8,16.4-1.2c5.1,3,6.4,9.4,7.4,14.8c2.2,15.5-0.3,31.1-2.8,46.4
		c5.9,15.1,11,30.8,12.6,47c1.1,8.4-3.1,16.2-7.3,23.1c-13,19.7-32.2,35.3-54.4,43.5c-19,6.9-40.4,7.1-59.4,0
		c-16.9-6.1-32-16.7-44.1-29.9c-6.8-7.5-12.8-15.9-16.4-25.3c-1.8-4.6-1.6-9.5-1.1-14.3c2-15.2,7-29.8,12.3-44.1
		c-2.3-16-5.1-32.3-2.3-48.4C44.8,43.3,46.7,37.3,52,35.1 M48.6,44.5c-2.9,7.9-2.2,16.4-2.1,24.6c0.9,8.1,1.7,16.2,3.3,24.2
		c0.3,2.1,1,4.4-0.1,6.5c-4.7,10.8-8,22.1-10.4,33.6c-1.3,6.8-2.6,13.9-0.7,20.8c2,5.1,4.8,10,8,14.4c10.2,14.2,23.9,25.7,39.4,33.7
		c16.4,8.5,35.6,11.9,53.9,8.4c20.1-3.8,38.3-14.8,52.7-29c7.8-8,14.9-17,19-27.4c2-6.9,0.6-14.1-0.7-21c-2.1-9.7-4.6-19.4-8.4-28.6
		c-0.8-2.5-2.4-4.8-2.5-7.5c1.7-12.3,4.2-24.6,3.9-37c0.2-6.2-0.5-12.6-3.5-18.1c-2.2-3.4-6.8-4.2-10.5-3.2
		c-7.5,1.7-13.2,7.3-18.4,12.6c-2.2,2.6-5.2,4.8-6.1,8.2c2.9,1.2,5.8,2.5,8.8,3.6c3.7-5.2,7.4-10.7,12.5-14.7c1.9-1.5,4.1-3,6.7-2.8
		c3.2-0.3,5.5,2.5,6.3,5.3c2.3,6.8,2.2,14.1,1.9,21.2c-0.5,6.7-1,13.4-2.4,20c-1.3,0-2.9,0.3-3.6-1.2c-5.9-8.3-11.8-17-20.8-22.2
		c-18.5-11.5-41.2-13.2-62.5-11.5c-16.3,1.9-33.4,6.7-45.3,18.6c-5.2,5.1-8.7,11.7-13.7,17c-2.8-2-2.6-5.6-3.1-8.6
		c-0.9-9.5-2-19.2-0.4-28.7c0.6-3.7,1.8-8.1,5.6-9.6c4.5-1.1,8.3,2.1,11.4,4.9c4,3.4,6.4,8.3,9.8,12.2c3.2-0.7,6.1-2.5,9.1-3.8
		c-3.7-5.3-8.2-10-13.1-14.1c-4.5-3.8-10-6.9-16.1-6.6C52.5,38.3,49.7,41.2,48.6,44.5 M55.9,49.2c-4,7.4-3.5,16.5-2.8,24.6
		c0,3.5,0.4,6.9,0.8,10.4c3.2-3.2,5.7-7.1,8.8-10.4c2.9-3.3,6.6-5.8,9.9-8.7c-3.5-5.3-7.2-10.7-12.4-14.5
		C59.1,49.6,57.5,49.4,55.9,49.2 M177.2,65.1c3.6,3,7.4,5.7,10.4,9.2c3,3.1,5.2,6.9,8.4,9.9c0.4-3.5,0.9-7,0.8-10.5
		c0.9-6,0.6-12.2-0.3-18.3c-0.6-2.8-1.6-7.1-5.3-5.9C185.1,53.2,181.1,59.4,177.2,65.1z"/>
	<path class="st1" d="M71.3,129.3c3.4-3.5,7.5-7.4,12.7-7.1c4.8-0.5,8.6,3,11.4,6.4c1.4,1.9,3.1,4,3.3,6.5c0.4,2.7-3,5.1-5.3,3.6
		c-3.2-2.3-6.1-6.1-10.4-5.9c-4.6-0.5-7.9,4.9-12.5,2.9C70.3,133.4,69.5,130.9,71.3,129.3z"/>
	<path class="st1" d="M162.4,122.5c6.3-1.8,12.4,2.2,16.4,6.7c1.8,1.7,1,4.2,0.8,6.3c-5,2.1-8.5-4.1-13.6-2.8
		c-4.2,0.4-6.7,4.2-10.1,6.3c-3.4,0.9-5.7-3.6-4.1-6.2C154.2,128.5,157.7,124.3,162.4,122.5z"/>
	<path class="st1" d="M114.3,152.3c6.3-2.3,13.5-2.4,20-0.5c2.2,0.6,5.3,2.2,4.4,5c-1.3,4.9-6.2,7.4-10.3,9.5
		c-1.4,0.6-1.1,2.4-1.6,3.5c7.7,3.1,16.3,7.2,24.6,4.6c3.6-1.1,1.2-5,1-7.6c1.7,0.7,3.9,1.2,4.8,3c1.4,2.4,0,5.5-2.2,6.9
		c-4.5,3.1-9.1,6.7-10.9,12.1c-1,3-2.2,5.9-4.3,8.3c-8.4,5.6-19.8,5.3-28.3,0.1c-2.6-2.6-3.3-6.1-4.4-9.4c-2-5.3-7.2-8.3-11.8-11.1
		c-2.7-1.4-3.5-5.1-2-7.7c0.8-1.8,3.1-1.5,4.7-2.1c-0.4,2.5-2.7,6.2,0.8,7.3c6.7,2.4,13.8-0.5,20.2-2.7c2.1-0.7,6-2.3,3.7-5
		c-4.4-2.3-9.8-4.7-11.1-10C110.7,154.6,112.5,152.8,114.3,152.3 M113.8,177.8c-1.3,0.6-1.3,2.2-1.8,3.3c-0.6,2.9-1.1,6.1,0,9
		c1.2,3.9,5.2,6.1,9,6.8c4.9,0.9,10.4,0.6,14.8-2.1c3.8-2.5,4.7-7.5,4.4-11.8c-0.3-1.5-0.6-2.9-0.8-4.4c-4.9-1.4-9.7-3-14.3-5.3
		C121.4,175.1,117.5,176.2,113.8,177.8z"/>
</g>
<g id="_x23_fea658ff">
	<path class="st2" d="M134.2,13.3c1.4,0.7,2.7,1.7,4.1,2.3c1.9,0.1,3.8-0.1,5.7-0.2c-1.6,3.1-4.2,5.8-3.2,9.7
		c-2.9-2-6.4-2.4-9.7-1.3c0.5-2.1,1.6-4,2.8-5.7C133.9,16.4,132.8,14.5,134.2,13.3z"/>
	<path class="st2" d="M81.4,19.5c2.5-0.8,5.9-0.9,7.7,1.4c2.2,3.6-0.3,9.5-5,8.8C79,29.9,77.1,21.8,81.4,19.5 M83.3,21.3
		c-4.1,1.1-1.1,7.8,2.4,5.7C89.3,25.5,86.9,19.5,83.3,21.3z"/>
	<path class="st2" d="M150.5,35.5c1,0,2,0,3,0c0.3,4.8,0.2,9.6,0.1,14.4c-1.1,0-2.2,0-3.3,0C150.2,45,150.1,40.2,150.5,35.5z"/>
	<path class="st2" d="M48.6,44.5c1.1-3.2,3.9-6.1,7.5-6.2c6-0.3,11.6,2.8,16.1,6.6c5,4.1,9.4,8.8,13.1,14.1c-3,1.3-5.8,3.1-9.1,3.8
		c-3.4-3.9-5.8-8.8-9.8-12.2c-3-2.8-6.9-6-11.4-4.9c-3.8,1.5-5.1,6-5.6,9.6c-1.6,9.5-0.4,19.2,0.4,28.7c0.5,3,0.3,6.7,3.1,8.6
		c4.9-5.4,8.4-11.9,13.7-17c11.9-11.9,29-16.8,45.3-18.6c21.2-1.7,43.9,0.1,62.5,11.5c9,5.2,14.9,13.9,20.8,22.2
		c0.7,1.5,2.3,1.2,3.6,1.2c1.4-6.6,1.8-13.3,2.4-20c0.3-7.1,0.4-14.4-1.9-21.2c-0.9-2.7-3.2-5.6-6.3-5.3c-2.5-0.2-4.8,1.3-6.7,2.8
		c-5.2,4-8.8,9.4-12.5,14.7c-2.9-1.1-5.8-2.4-8.8-3.6c1-3.4,3.9-5.6,6.1-8.2c5.2-5.3,10.9-10.8,18.4-12.6c3.7-1,8.4-0.2,10.5,3.2
		c3,5.5,3.7,12,3.5,18.1c0.3,12.4-2.2,24.7-3.9,37c0.2,2.7,1.7,5,2.5,7.5c3.8,9.2,6.3,18.9,8.4,28.6c1.3,6.9,2.8,14.1,0.7,21
		c0.5-4.5-2.3-8.4-6.2-10.3c-4.4-0.4-8.7,1.2-12.7,2.8c-6.8,2.5-12.5,7.4-19.6,9.1c-8.1,1.8-16.6,0.8-24.3-2.1
		c-9.9-3.6-20.6-6.4-31.2-4.4c-8.6,0.8-15.9,5.7-24.4,6.9c-6.1,1.1-12.4,0.5-18.2-1.4c-7.6-2.2-14.1-6.9-21.4-9.7
		c-2.8-1.2-5.8-1.3-8.8-1.1c-3.6,2.2-6.2,5.9-6,10.3c-1.9-6.8-0.6-14,0.7-20.8c2.4-11.5,5.7-22.8,10.4-33.6c1.1-2,0.4-4.3,0.1-6.5
		c-1.6-8-2.4-16.1-3.3-24.2C46.4,60.8,45.7,52.3,48.6,44.5 M72.2,103.8c0.5,3.1,3.7,5.1,6.7,4.8c4.9-0.1,10.5,1.1,14.8-1.9
		c-0.2-2.4-0.3-5.3-2.8-6.5c-4-2.1-8.2-4.7-12.8-4.4C75.3,97.5,71.5,100,72.2,103.8 M165.4,96.5c-3.6,1.4-6.8,4.1-8.6,7.6
		c-0.1,2.9,3.4,4.9,6.2,4.5c3.9-0.2,8.2,0.6,11.9-0.8c4.5-1.9,3.1-8.2,0.1-10.8C172.1,95.3,168.4,95.4,165.4,96.5 M71.3,129.3
		c-1.8,1.6-1,4.2-0.8,6.3c4.7,2,7.9-3.3,12.5-2.9c4.4-0.1,7.2,3.6,10.4,5.9c2.3,1.5,5.7-0.9,5.3-3.6c-0.2-2.5-1.9-4.5-3.3-6.5
		c-2.8-3.4-6.7-6.8-11.4-6.4C78.8,121.9,74.7,125.8,71.3,129.3 M162.4,122.5c-4.7,1.8-8.2,6-10.6,10.3c-1.7,2.7,0.7,7.1,4.1,6.2
		c3.4-2.1,5.9-5.9,10.1-6.3c5-1.3,8.6,4.8,13.6,2.8c0.2-2.1,1-4.6-0.8-6.3C174.8,124.7,168.6,120.7,162.4,122.5z"/>
	<path class="st2" d="M218.3,74.4c1.8-0.1,3.1,1.8,4.5,2.8c2.2,2.1,5,3.5,6.8,5.9c-0.2,1.7-2.8,2.2-3.9,1.2c-3-1.9-5.9-4.1-8.3-6.7
		C216.9,76.7,217,74.5,218.3,74.4z"/>
	<path class="st2" d="M23.4,113.5c1.8-0.2,4-0.7,5.4,0.8c2.8,2,2.6,6.5,0.4,8.9c-2.8,2.3-8,1.3-9.1-2.3
		C19,118.1,20.4,114.2,23.4,113.5 M22,119.9c1.4,0.9,2.8,2.2,4.6,1.8c2.2-1.2,2.1-5.4-0.8-5.5C23.4,115.6,22.8,118.2,22,119.9z"/>
	<path class="st2" d="M224.1,121.2c4.8,0.1,9.1,2.2,13.6,3.3c0,1.1,0,2.3,0,3.4c-4.4-1.1-8.7-2.3-12.9-3.7
		C224.4,123.2,224.2,122.2,224.1,121.2z"/>
	<path class="st2" d="M225.4,163.4c4.8-1.2,8,4.9,5.8,8.8c-1.7,2.1-4.9,3.2-7.4,2c-1.6-1.3-3.2-3.1-3.4-5.2
		C220.7,166.3,222.5,163.6,225.4,163.4 M224.2,166.2c-0.3,1.5-1.6,3.4,0,4.7c1.5,1.7,5.4,0.9,4.7-1.9
		C229.5,166.1,226.1,166.2,224.2,166.2z"/>
	<path class="st2" d="M113.8,177.8c3.7-1.6,7.6-2.7,11.2-4.5c4.6,2.2,9.4,3.9,14.3,5.3c0.3,1.5,0.5,2.9,0.8,4.4
		c-5.2-1.7-10.1-4.2-15.1-6.6c-4.1,2.2-8.5,3.8-13.1,4.8C112.5,180.1,112.5,178.4,113.8,177.8z"/>
	<path class="st2" d="M122.6,186.4c-0.3-2.7,0.3-5.5,2.1-7.6c0.3,4.1,0.3,8.2,0.1,12.3C122.7,190.5,122.8,188.1,122.6,186.4z"/>
	<path class="st2" d="M184.1,198.1c4.4,0.8,8.2,3.6,11.9,5.9c1.6,0.9,0.2,2.6,0,3.9c-3.5-2.3-7.2-4-10.7-6.3
		C184,201,184.4,199.3,184.1,198.1z"/>
	<path class="st2" d="M167.2,218.4c1.1,0.2,1.9,1.1,2.8,1.7c-2.8,3.5-5.9,6.7-9.5,9.4c-1.2,1-2.1-0.8-2.9-1.4
		C160.6,224.7,163.7,221.3,167.2,218.4z"/>
	<path class="st2" d="M130.4,250c2.9-0.5,5.9-0.9,8.9-0.9l-1,0.9H130.4z"/>
</g>
<g id="_x23_fcd2b5ff">
	<path class="st3" d="M55.9,49.2c1.5,0.2,3.2,0.4,4.4,1.4c5.2,3.8,8.9,9.2,12.4,14.5c-3.3,2.9-7,5.4-9.9,8.7
		c-3.1,3.3-5.6,7.2-8.8,10.4c-0.4-3.5-0.9-6.9-0.8-10.4c0.3,0.5,0.9,1.6,1.2,2.2c3.1-4.2,7-8.1,8.5-13.1
		C64.1,57.2,60.1,52.4,55.9,49.2z"/>
	<path class="st3" d="M177.2,65.1c3.9-5.7,7.9-11.9,14-15.5c-1.3,4.6-5.4,8.8-3.7,13.9c1.7,4.7,5.3,8.4,8.4,12.3
		c0.2-0.5,0.8-1.6,1-2.1c0.1,3.5-0.4,7-0.8,10.5c-3.2-3-5.4-6.8-8.4-9.9C184.6,70.8,180.8,68.1,177.2,65.1z"/>
	<path class="st3" d="M19.4,84.3c2-0.4,3.8,0.8,4.9,2.3c2.4,2.9,6.2,5.8,5.4,10.1c0.2,2.4-2.7,2-4.3,1.8c-2.6-2.5-4.4-5.6-6.3-8.7
		C18.2,88.3,17.5,85.6,19.4,84.3z"/>
	<path class="st3" d="M38.6,154c-0.2-4.4,2.4-8.1,6-10.3c0.6,4.5,3,8.5,5.3,12.3c3.2,5.3,7.1,10.2,11.3,14.7
		c12.2,12.1,26.8,22.1,43.5,26.6c2.1,0.7,4.4,0.4,6.5,0c8.5,5.2,20,5.5,28.3-0.1c2.2,0.4,4.4,0.7,6.5,0c13.4-3.8,25.4-11.3,36-20.1
		c8.3-7.8,16.2-16.4,21.3-26.8c1-2.1,1.4-4.4,1.8-6.6c4,1.9,6.8,5.7,6.2,10.3c-4.1,10.5-11.2,19.4-19,27.4
		c-14.4,14.3-32.6,25.2-52.7,29c-18.2,3.5-37.4,0.1-53.9-8.4c-15.5-7.9-29.2-19.5-39.4-33.7C43.3,164,40.6,159.1,38.6,154z"/>
	<path class="st3" d="M112,181.2c4.6-0.9,9-2.6,13.1-4.8c4.9,2.4,9.9,4.9,15.1,6.6c0.3,4.3-0.5,9.2-4.4,11.8
		c-4.4,2.7-9.8,3-14.8,2.1c-3.8-0.7-7.9-2.8-9-6.8C110.9,187.2,111.4,184.1,112,181.2 M122.6,186.4c0.2,1.7,0.2,4.1,2.2,4.7
		c0.2-4.1,0.2-8.2-0.1-12.3C122.9,180.9,122.3,183.7,122.6,186.4z"/>
	<path class="st3" d="M45.5,195.5c1.3-1.5,1.4-3.9,3.5-4.6c2,0.6,2,3,2.7,4.6c1.5,0.5,2.9,1.1,4.4,1.6c0.1,0.7,0.2,2.2,0.2,2.9
		c-1.5,0.6-3,1.2-4.6,1.8c-0.3,1.4-0.6,2.8-0.9,4.2c-2.8,1.2-4.1-1.1-4.5-3.6c-1.8-1.1-5.5-1.5-4.6-4.3
		C42.9,197.2,44.3,196.5,45.5,195.5z"/>
	<path class="st3" d="M89.3,221.2c1.8-1.6,4,0.8,2.7,2.6c-3.1,2.8-6.6,5.2-10.2,7.2c-1.9,1.2-4.4-2.2-2.2-3.4
		C82.8,225.5,86.1,223.3,89.3,221.2z"/>
</g>
</svg>
