<?xml version="1.0" encoding="utf-8"?>
<!-- Generator: Adobe Illustrator 26.0.3, SVG Export Plug-In . SVG Version: 6.00 Build 0)  -->
<svg version="1.1" id="Layer_1" xmlns="http://www.w3.org/2000/svg" xmlns:xlink="http://www.w3.org/1999/xlink" x="0px" y="0px"
	 viewBox="0 0 250 250" style="enable-background:new 0 0 250 250;" xml:space="preserve">
<style type="text/css">
	.st0{fill:#3E2514;}
	.st1{fill:#FDDAB6;}
	.st2{fill:#C67F5E;}
	.st3{fill:#FBCCA9;}
	.st4{fill:#FBB69A;}
	.st5{fill:#A65A37;}
	.st6{fill:#DB8262;}
	.st7{fill:#824629;}
	.st8{fill:#FBB798;}
	.st9{fill:#D79273;}
	.st10{fill:#FBF3D3;}
	.st11{fill:#54391F;}
	.st12{fill:#DA906C;}
	.st13{fill:#430200;}
	.st14{fill:#AE5F48;}
	.st15{fill:#FDD6B6;}
	.st16{fill:#3A2811;}
	.st17{fill:#86311D;}
	.st18{fill:#AC6039;}
	.st19{fill:#E49D82;}
	.st20{fill:#68391E;}
	.st21{fill:#F19D79;}
	.st22{fill:#FCD4AA;}
	.st23{fill:#FDF3CC;}
	.st24{fill:#97684E;}
	.st25{fill:#FCBAA0;}
	.st26{fill:#CC8970;}
</style>
<g id="_x23_3e2514ff">
	<path class="st0" d="M143.2,68.2c1.2-1.3,1.9-3.1,2.8-4.6c3-0.1,6-0.2,8.9,0c4.3,1.5,8.6,3.3,12,6.4c2.2,2,2.5,5.3,4.5,7.4
		c2.6,1,5.4,1.6,7.4,3.7c4.2,3.1,5,9.5,2.5,13.9c-0.3,0.6-0.9,1.7-1.1,2.2c-1.4-3.8-3.1-7.6-4.1-11.6c-1.5-1.1-2.9,1.1-4.3,1.7
		c-4.3-5.2-9.5-9.7-15.7-12.5c-6.1-3.8-13.7-3.4-20.6-4.8C138,69.2,141.1,69.9,143.2,68.2z"/>
</g>
<g id="_x23_fddab6ff">
	<path class="st1" d="M122,71.8c4.5-0.4,8.9-3,13.5-1.8c6.9,1.4,14.4,1,20.6,4.8c5.2,7.4,12.7,13.7,14.5,23
		c-0.6,0.1-1.9,0.4-2.5,0.6c-5.3-6.3-11-13-19.1-15.8c-3.4-0.7-6.8,0.2-10.1,0.5c-1.9-0.5-3.7-0.9-5.6-1.3c-0.6-0.2-1.8-0.5-2.3-0.7
		c-0.6-0.6-1.2-1.3-1.8-1.9c0.8-0.1,2.2-0.2,3-0.3c2,0.1,3.9,0.1,5.9,0c-0.9-1.1-1.7-2.3-3-2.8c-5.3-2.5-11.3-3.9-17.1-3.1
		C119.1,72,120.6,72,122,71.8z"/>
</g>
<g id="_x23_c67f5eff">
	<path class="st2" d="M110.6,75.6c2.2-1.4,4.8-2.1,7.3-2.7c5.9-0.8,11.8,0.6,17.1,3.1c1.3,0.6,2.1,1.8,3,2.8c-2,0.1-3.9,0.1-5.9,0
		C125.2,76.4,117.7,77.5,110.6,75.6z"/>
</g>
<g id="_x23_fbcca9ff">
	<path class="st3" d="M106,76.9c1.5-0.5,3-1.5,4.7-1.3c7.1,1.9,14.6,0.8,21.5,3.3c-0.8,0.1-2.2,0.2-3,0.3c0.6,0.7,1.2,1.3,1.8,1.9
		c-3.9-0.8-7.9-2.2-11.9-2.1c-9,1.1-18.1,3.4-25.9,8.1c-1-0.3-2.1-0.7-3.1-1C94.5,81.7,100.4,79.4,106,76.9z"/>
</g>
<g id="_x23_fbb69aff">
	<path class="st4" d="M156.1,74.8c6.2,2.8,11.3,7.4,15.7,12.5c0.5,0.9,0.9,1.8,1.3,2.7c1.6,8.2,3.3,16.4,3.3,24.8
		c-1,5-1.8,10-2.9,15c-0.2,1.5-1.5,2.4-2.5,3.4c-0.2-4.8-0.9-9.5-1.8-14.2c-0.1-0.5-0.1-1.5-0.2-1.9c1,1,2,2,3,2.9
		c2.1-5,0.2-10.3-2.8-14.5c1.1-2.4-0.2-4.9-1.1-7.1c0.6-0.1,1.9-0.4,2.5-0.6C168.8,88.4,161.2,82.2,156.1,74.8z"/>
</g>
<g id="_x23_a65a37ff">
	<path class="st5" d="M93.1,87c7.9-4.7,16.9-7,25.9-8.1c4,0,8,1.3,11.9,2.1c0.6,0.2,1.8,0.5,2.3,0.7c-1.2,0.3-2.3,0.6-3.5,0.9
		c-5.2-1.2-10.5-0.1-15.8,0.1c-1.8,0-3.6,0.6-5.2,1.4c-7.7,2.7-15.6,5.8-21.5,11.7c0.4,0,1.2,0,1.6,0c-3.1,2.7-6.1,5.3-9,8.2
		C80.1,95.8,87.8,91.8,93.1,87z"/>
</g>
<g id="_x23_db8262ff">
	<path class="st6" d="M114,82.7c5.3-0.2,10.6-1.2,15.8-0.1c8.4,2.1,15.3,7.6,23,11.2c-0.2-1-0.4-2-0.7-3c4.3,1.8,4.1,7,6.9,10.1
		c2.8,3.3,5.5,6.7,7.9,10.3c0.8,1.9,1.4,3.8,2.1,5.8c0.1,0.5,0.1,1.4,0.2,1.9c-1.8-1.9-3.4-3.9-5-5.9c2.2,7.1,5.1,14.4,3.9,22.1
		c-1.9-0.9-1.4-3.6-2.1-5.4c-0.8-5.2-2.6-10.1-3.7-15.2c0.1-1.7,0.4-3.6-0.7-5.1c-6.8-11.2-17.7-19.9-30.2-23.7
		c-7.3-2.3-15.1-0.8-22.6-1.7C110.4,83.3,112.2,82.6,114,82.7z"/>
</g>
<g id="_x23_824629ff">
	<path class="st7" d="M129.8,82.6c1.2-0.3,2.3-0.6,3.5-0.9c1.9,0.4,3.7,0.9,5.6,1.3c4.6,2.4,8.9,5,13.2,7.8c0.2,1,0.4,2,0.7,3
		C145,90.2,138.2,84.7,129.8,82.6z"/>
</g>
<g id="_x23_fbb798ff">
	<path class="st8" d="M138.9,83.1c3.4-0.3,6.8-1.2,10.1-0.5c-0.1,0.5-0.2,1.6-0.2,2.1c4.9,5.2,10.8,9.2,15.1,14.9
		c-1,4.2,2.1,7.8,3.1,11.6c-2.4-3.6-5.2-7-7.9-10.3c-2.8-3.1-2.7-8.3-6.9-10.1C147.8,88.1,143.4,85.4,138.9,83.1z"/>
</g>
<g id="_x23_d79273ff">
	<path class="st9" d="M149,82.6c8,2.8,13.8,9.4,19.1,15.8c1,2.2,2.3,4.7,1.1,7.1c-1.7-2-3.6-3.9-5.4-5.9
		c-4.3-5.7-10.2-9.8-15.1-14.9C148.8,84.1,148.9,83.1,149,82.6z"/>
</g>
<g id="_x23_fbf3d3ff">
	<path class="st10" d="M87.3,95.8c5.9-5.9,13.8-9,21.5-11.7c7.5,0.8,15.3-0.6,22.6,1.7c12.5,3.8,23.4,12.5,30.2,23.7
		c1.1,1.5,0.8,3.4,0.7,5.1c-5.6-10.4-14.3-19.7-25.3-24.3c-15.7-6-34.2-3.9-48.1,5.5C88.4,95.8,87.7,95.8,87.3,95.8z"/>
</g>
<g id="_x23_54391fff">
	<path class="st11" d="M171.8,87.3c1.4-0.5,2.8-2.7,4.3-1.7c1,4,2.7,7.7,4.1,11.6c0.3-0.5,0.9-1.7,1.1-2.2c0.5,1.4,0.7,3,0.4,4.5
		c-1.1,4-2.4,7.9-3.8,11.8c-0.4-7.3-2.1-14.5-4.9-21.2C172.7,89.1,172.2,88.2,171.8,87.3z"/>
</g>
<g id="_x23_da906cff">
	<path class="st12" d="M72.7,106.7c4-8.2,10.4-14.9,17.3-20.7c1,0.3,2.1,0.7,3.1,1c-5.3,4.8-13.1,8.8-13.3,16.9
		c-0.3,0.5-0.8,1.4-1.1,1.9c-4.5,5.7-6.9,13-6.5,20.3c2.3-2.7,2.4-6.4,4.4-9.2c-0.1,5.4-1.5,10.7-1.1,16.1
		c0.4,11.5,5.6,22.6,13.8,30.6c3.5,3.2,7.7,5.6,11.6,8.4c-0.5,0-1.5,0-2,0c-9.5-4.2-16.8-12.3-21.9-21.2c-0.8-2.3-1.4-4.6-2-6.9
		c-1-5.1-1.5-10.8-5.1-14.9c-0.2,4.7-0.2,9.4-0.4,14.2c-1.1-4.5-1.2-9.2-0.8-13.8c-0.4,0.1-1.1,0.3-1.5,0.4
		C67,121.7,69.8,114.1,72.7,106.7z"/>
</g>
<g id="_x23_430200ff">
	<path class="st13" d="M88.8,95.8c13.9-9.5,32.4-11.5,48.1-5.5c11.1,4.6,19.7,13.9,25.3,24.3c1.1,5.1,3,10.1,3.7,15.2
		c0.3,5.4,1.3,10.8,1.1,16.3c-1.9,3.7-4,7.2-6.3,10.7c-2.5,2.9-6.2,4.4-8.9,7.1c-10.1,6.8-21.9,12.1-34.3,10.7
		c-12.7-0.8-25.1-7.2-32.3-17.8c-5.3-7-7.9-15.9-8.4-24.6c-0.4-6.6,1.3-13,3.1-19.2c0.9-2.4-0.5-4.7-1.3-7c0.3-0.5,0.8-1.4,1.1-1.9
		C82.7,101.1,85.8,98.4,88.8,95.8z"/>
</g>
<g id="_x23_ae5f48ff">
	<path class="st14" d="M173.1,90c2.8,6.7,4.5,14,4.9,21.2c-0.5,5,0.8,10.1,2.7,14.7c0.3-0.2,1-0.5,1.3-0.7c-0.4,2.4-0.7,4.8-1.1,7.2
		c-1.1-0.6-2.4-1.1-3.4-1.9c-1.4-5.1-0.3-10.5-1.1-15.7C176.4,106.4,174.7,98.2,173.1,90z"/>
</g>
<g id="_x23_fdd6b6ff">
	<path class="st15" d="M166.9,111.2c-1-3.9-4.1-7.5-3.1-11.6c1.8,2,3.7,3.8,5.4,5.9c3,4.2,4.8,9.5,2.8,14.5c-1-1-2-1.9-3-2.9
		C168.4,115.1,167.7,113.1,166.9,111.2z"/>
</g>
<g id="_x23_3a2811ff">
	<path class="st16" d="M177.9,111.2c1.4-3.9,2.7-7.8,3.8-11.8c1.6,2.5,0.8,5.7,1,8.6c-0.3,5.7,0.9,11.7-0.9,17.3
		c-0.3,0.2-1,0.5-1.3,0.7C178.7,121.3,177.4,116.2,177.9,111.2z"/>
</g>
<g id="_x23_86311dff">
	<path class="st17" d="M72.3,126.2c-0.5-7.3,2-14.6,6.5-20.3c0.8,2.2,2.2,4.5,1.3,7c-1.8,6.2-3.5,12.7-3.1,19.2
		c0.5,8.7,3.1,17.6,8.4,24.6c7.2,10.6,19.6,17.1,32.3,17.8c12.4,1.4,24.2-3.9,34.3-10.7c-2.7,3.9-7.2,5.8-11.3,7.7
		c-12.3,6-27.1,5.8-39.6,0.5c-3.9-2.8-8.1-5.1-11.6-8.4c-8.2-8-13.4-19.1-13.8-30.6c-0.4-5.4,0.9-10.7,1.1-16.1
		C74.7,119.7,74.5,123.5,72.3,126.2z"/>
</g>
<g id="_x23_ac6039ff">
	<path class="st18" d="M164.2,113.1c1.7,2,3.3,4,5,5.9c0.8,4.7,1.6,9.4,1.8,14.2c-0.7,4.5-1.6,8.9-3.9,12.9
		c0.2-5.4-0.8-10.9-1.1-16.3c0.7,1.7,0.2,4.5,2.1,5.4C169.3,127.5,166.4,120.2,164.2,113.1z"/>
</g>
<g id="_x23_e49d82ff">
	<path class="st19" d="M176.4,114.8c0.8,5.2-0.3,10.6,1.1,15.7c1,0.8,2.2,1.3,3.4,1.9c-0.4,4.9-1.9,9.5-3.5,14.1
		c-0.5,1.1-0.8,2.5-2,3.1c-0.5,0-1.6,0-2.1,0c-2.2,3.9-3,8.4-5.8,11.9c-4,4.7-8.9,9.2-15.4,9.6c4-4.6,8.1-9.2,10.9-14.6
		c-0.6,0.1-1.7,0.2-2.2,0.3c2.3-3.4,4.5-7,6.3-10.7c2.2-3.9,3.2-8.4,3.9-12.9c1-1,2.3-1.9,2.5-3.4
		C174.6,124.8,175.4,119.8,176.4,114.8z"/>
</g>
<g id="_x23_68391eff">
	<path class="st20" d="M67.3,129.8c0.4-0.1,1.1-0.3,1.5-0.4c-0.3,4.6-0.2,9.3,0.8,13.8c0.2,2,0.4,4,0.5,6c0.1,3.9,0,7.8,0.5,11.7
		c0.8,1.4,1.9,2.5,3,3.8c2.8,4.2,7.1,7.2,9.8,11.5c-5.3-4.8-11.5-9.5-13.7-16.6c-0.9-3.7,0.5-7.7-0.9-11.3
		C66.9,142.3,67.4,135.9,67.3,129.8z"/>
	<path class="st20" d="M133.8,181.3c5.4-1.8,10.4-4.6,15.4-7.3c0.4,0.1,1.3,0.2,1.7,0.2c-2.9,3.1-6.5,5.2-10,7.6
		C138.5,181.7,136.1,181.5,133.8,181.3z"/>
</g>
<g id="_x23_f19d79ff">
	<path class="st21" d="M70.1,129.1c3.6,4.1,4,9.7,5.1,14.9c-0.7-0.6-1.5-1.2-2.2-1.8c-1.6,2-2.4,4.5-2.8,7c-0.1-2-0.3-4-0.5-6
		C69.8,138.5,69.8,133.8,70.1,129.1z"/>
</g>
<g id="_x23_fcd4aaff">
	<path class="st22" d="M72.9,142.1c0.7,0.6,1.5,1.2,2.2,1.8c0.5,2.3,1.2,4.6,2,6.9c-1-0.9-2-1.8-3.1-2.6c1.1,5,4.5,9.1,6.1,13.9
		c-3.4-1.9-5.4-5.3-8-8c1,2.6,2,5.2,2.9,7.9c-0.3,0.7-1,2.1-1.4,2.8c-1-1.2-2.1-2.4-3-3.8c-0.5-3.9-0.4-7.8-0.5-11.7
		C70.6,146.7,71.3,144.2,72.9,142.1z"/>
</g>
<g id="_x23_fdf3ccff">
	<path class="st23" d="M74,148.2c1.1,0.9,2.1,1.7,3.1,2.6c5.1,8.9,12.4,17,21.9,21.2c3.5,2.6,6.5,5.8,10.7,7.3
		c5.5,2.1,11.5,2.6,17.1,4.4c1.5,0.6,2.9,1.3,4.4,1.9c-3.4-0.3-6.9-0.4-10.3,0.1c-4,0.6-7.9-1.2-11.8-0.5c-4.3,0.8-8-2.3-12.2-2.8
		c-4.9-0.6-10.5-2-13.4-6.3c-2.7-4.3-7-7.3-9.8-11.5c0.3-0.7,1.1-2.1,1.4-2.8c-0.9-2.7-1.9-5.2-2.9-7.9c2.6,2.8,4.6,6.2,8,8
		C78.5,157.2,75.1,153.2,74,148.2z"/>
</g>
<g id="_x23_97684eff">
	<path class="st24" d="M173.2,149.6c0.5,0,1.6,0,2.1,0c-3.1,7.6-6.9,15.2-12.3,21.5c-5.4,4.9-11.8,9.4-19,11
		c-0.8-0.1-2.4-0.2-3.2-0.3c3.4-2.3,7.1-4.5,10-7.6c-0.4-0.1-1.3-0.2-1.7-0.2c1-1,2-1.9,3-2.9c6.4-0.4,11.4-5,15.4-9.6
		C170.2,157.9,171.1,153.4,173.2,149.6z"/>
</g>
<g id="_x23_fcbaa0ff">
	<path class="st25" d="M160.8,156.7c0.6-0.1,1.7-0.2,2.2-0.3c-2.8,5.4-7,10-10.9,14.6c-1,1-2,2-3,2.9c-5,2.7-9.9,5.5-15.4,7.3
		c-2.5,0-5.1,0.5-7,2.4c-5.6-1.8-11.6-2.4-17.1-4.4c-4.1-1.5-7.2-4.7-10.7-7.3c0.5,0,1.5,0,2,0c12.5,5.3,27.3,5.5,39.6-0.5
		c4.1-2,8.6-3.8,11.3-7.7C154.6,161.1,158.3,159.6,160.8,156.7z"/>
</g>
<g id="_x23_cc8970ff">
	<path class="st26" d="M126.8,183.7c1.9-1.9,4.4-2.4,7-2.4c2.4,0.2,4.8,0.4,7.1,0.5c0.8,0.1,2.4,0.2,3.2,0.3
		c-3.7,2.5-8.5,3.7-12.9,3.5C129.7,185,128.3,184.3,126.8,183.7z"/>
</g>
</svg>
