<?xml version="1.0" encoding="UTF-8" ?>
<!DOCTYPE svg PUBLIC "-//W3C//DTD SVG 1.1//EN" "http://www.w3.org/Graphics/SVG/1.1/DTD/svg11.dtd">
<svg width="250pt" height="250pt" viewBox="0 0 250 250" version="1.1" xmlns="http://www.w3.org/2000/svg">
<g id="#ffffffff">
<path fill="#ffffff" opacity="1.00" d=" M 0.00 0.00 L 250.00 0.00 L 250.00 250.00 L 0.00 250.00 L 0.00 0.00 M 133.55 17.91 C 133.34 27.80 133.48 37.69 133.50 47.58 C 152.05 58.08 170.32 69.06 188.97 79.37 C 197.50 74.57 206.27 70.15 214.44 64.75 C 208.68 60.13 201.85 57.16 195.55 53.39 C 184.61 46.96 173.59 40.67 162.57 34.38 C 152.93 28.83 143.50 22.90 133.55 17.91 M 84.23 36.45 C 68.13 45.76 51.95 54.95 35.94 64.42 C 41.55 69.05 48.40 71.74 54.54 75.56 C 56.90 76.76 59.13 78.65 61.86 78.80 C 65.43 77.83 68.40 75.44 71.64 73.75 C 81.52 68.31 91.13 62.39 100.96 56.86 C 106.27 53.79 111.71 50.90 116.68 47.28 C 116.57 37.62 116.91 27.94 116.44 18.28 C 105.47 23.91 95.03 30.50 84.23 36.45 M 109.04 68.13 C 100.88 72.99 92.61 77.65 84.35 82.32 C 81.55 83.86 78.89 85.66 76.46 87.73 C 86.74 94.27 97.65 99.75 108.18 105.88 C 111.06 107.62 114.09 109.14 117.33 110.09 C 117.39 94.73 117.32 79.36 117.33 64.00 C 114.46 65.15 111.68 66.53 109.04 68.13 M 133.56 63.86 C 133.46 79.46 133.40 95.07 133.64 110.67 C 146.90 103.17 160.20 95.74 173.50 88.31 C 173.54 87.86 173.63 86.96 173.68 86.51 C 160.14 79.26 147.16 71.00 133.56 63.86 M 28.59 80.06 C 28.29 85.70 28.43 91.35 28.41 97.00 C 28.52 121.03 28.19 145.07 28.58 169.09 C 34.40 167.21 39.42 163.63 44.78 160.80 C 47.55 159.24 50.50 157.95 53.01 155.99 C 54.71 154.94 54.17 152.73 54.36 151.06 C 54.32 133.69 54.30 116.31 54.37 98.94 C 54.29 97.40 54.43 95.79 53.83 94.33 C 51.97 92.34 49.42 91.21 47.09 89.86 C 40.92 86.59 35.13 82.59 28.59 80.06 M 205.72 88.67 C 202.53 90.37 199.41 92.21 196.40 94.21 C 196.51 114.63 196.33 135.05 196.49 155.47 C 205.07 160.12 213.25 165.56 222.24 169.40 C 222.62 161.28 222.34 153.14 222.42 145.00 C 222.31 123.36 222.64 101.71 222.26 80.07 C 216.39 82.21 211.21 85.77 205.72 88.67 M 166.79 110.77 C 158.76 115.51 150.13 119.28 142.58 124.79 C 149.78 129.34 157.32 133.30 164.77 137.40 C 170.65 140.43 176.10 144.28 182.28 146.72 C 182.61 132.03 182.53 117.32 182.32 102.63 C 176.82 104.69 171.90 107.94 166.79 110.77 M 68.58 102.97 C 68.30 117.49 68.29 132.04 68.58 146.56 C 82.38 140.03 95.28 131.78 108.72 124.58 C 100.32 119.92 91.91 115.25 83.55 110.51 C 78.66 107.80 73.83 104.92 68.58 102.97 M 75.79 161.97 C 87.01 168.99 98.88 174.92 110.15 181.87 C 112.40 183.28 114.84 184.35 117.37 185.18 C 117.39 169.59 117.48 154.00 117.28 138.42 C 103.44 146.23 89.26 153.52 75.79 161.97 M 133.60 138.93 C 133.47 154.34 133.53 169.76 133.60 185.17 C 147.86 178.28 161.14 169.52 175.07 162.00 C 161.38 154.08 147.73 146.04 133.60 138.93 M 55.26 173.26 C 48.93 177.30 42.01 180.36 35.86 184.70 C 38.77 186.65 41.74 188.49 44.80 190.19 C 69.07 203.94 93.06 218.20 117.37 231.89 C 117.53 222.03 117.36 212.18 117.46 202.32 C 115.14 200.73 112.78 199.21 110.35 197.82 C 94.69 189.20 79.46 179.82 63.84 171.15 C 60.86 169.15 57.85 171.91 55.26 173.26 M 181.99 173.81 C 167.08 182.28 152.43 191.20 137.40 199.46 C 135.77 200.54 133.46 201.64 133.65 203.95 C 133.49 212.93 133.49 221.93 133.76 230.91 C 138.02 229.39 141.89 227.03 145.80 224.79 C 159.22 216.84 172.88 209.29 186.28 201.31 C 195.77 195.69 205.66 190.76 214.91 184.74 C 209.05 180.92 202.75 177.85 196.81 174.16 C 194.29 172.76 191.89 170.95 189.03 170.32 C 186.47 170.99 184.28 172.56 181.99 173.81 Z" />
</g>
<g id="#f9b937ff">
<path fill="#f9b937" opacity="1.00" d=" M 133.55 17.91 C 143.50 22.90 152.93 28.83 162.57 34.38 C 173.59 40.67 184.61 46.96 195.55 53.39 C 201.85 57.16 208.68 60.13 214.44 64.75 C 206.27 70.15 197.50 74.57 188.97 79.37 C 170.32 69.06 152.05 58.08 133.50 47.58 C 133.48 37.69 133.34 27.80 133.55 17.91 Z" />
<path fill="#f9b937" opacity="1.00" d=" M 84.23 36.45 C 95.03 30.50 105.47 23.91 116.44 18.28 C 116.91 27.94 116.57 37.62 116.68 47.28 C 111.71 50.90 106.27 53.79 100.96 56.86 C 91.13 62.39 81.52 68.31 71.64 73.75 C 68.40 75.44 65.43 77.83 61.86 78.80 C 59.13 78.65 56.90 76.76 54.54 75.56 C 48.40 71.74 41.55 69.05 35.94 64.42 C 51.95 54.95 68.13 45.76 84.23 36.45 Z" />
<path fill="#f9b937" opacity="1.00" d=" M 109.04 68.13 C 111.68 66.53 114.46 65.15 117.33 64.00 C 117.32 79.36 117.39 94.73 117.33 110.09 C 114.09 109.14 111.06 107.62 108.18 105.88 C 97.65 99.75 86.74 94.27 76.46 87.73 C 78.89 85.66 81.55 83.86 84.35 82.32 C 92.61 77.65 100.88 72.99 109.04 68.13 Z" />
<path fill="#f9b937" opacity="1.00" d=" M 133.56 63.86 C 147.16 71.00 160.14 79.26 173.68 86.51 C 173.63 86.96 173.54 87.86 173.50 88.31 C 160.20 95.74 146.90 103.17 133.64 110.67 C 133.40 95.07 133.46 79.46 133.56 63.86 Z" />
<path fill="#f9b937" opacity="1.00" d=" M 28.59 80.06 C 35.13 82.59 40.92 86.59 47.09 89.86 C 49.42 91.21 51.97 92.34 53.83 94.33 C 54.43 95.79 54.29 97.40 54.37 98.94 C 54.30 116.31 54.32 133.69 54.36 151.06 C 54.17 152.73 54.71 154.94 53.01 155.99 C 50.50 157.95 47.55 159.24 44.78 160.80 C 39.42 163.63 34.40 167.21 28.58 169.09 C 28.19 145.07 28.52 121.03 28.41 97.00 C 28.43 91.35 28.29 85.70 28.59 80.06 Z" />
<path fill="#f9b937" opacity="1.00" d=" M 205.72 88.67 C 211.21 85.77 216.39 82.21 222.26 80.07 C 222.64 101.71 222.31 123.36 222.42 145.00 C 222.34 153.14 222.62 161.28 222.24 169.40 C 213.25 165.56 205.07 160.12 196.49 155.47 C 196.33 135.05 196.51 114.63 196.40 94.21 C 199.41 92.21 202.53 90.37 205.72 88.67 Z" />
<path fill="#f9b937" opacity="1.00" d=" M 166.79 110.77 C 171.90 107.94 176.82 104.69 182.32 102.63 C 182.53 117.32 182.61 132.03 182.28 146.72 C 176.10 144.28 170.65 140.43 164.77 137.40 C 157.32 133.30 149.78 129.34 142.58 124.79 C 150.13 119.28 158.76 115.51 166.79 110.77 Z" />
<path fill="#f9b937" opacity="1.00" d=" M 68.58 102.97 C 73.83 104.92 78.66 107.80 83.55 110.51 C 91.91 115.25 100.32 119.92 108.72 124.58 C 95.28 131.78 82.38 140.03 68.58 146.56 C 68.29 132.04 68.30 117.49 68.58 102.97 Z" />
<path fill="#f9b937" opacity="1.00" d=" M 75.79 161.97 C 89.26 153.52 103.44 146.23 117.28 138.42 C 117.48 154.00 117.39 169.59 117.37 185.18 C 114.84 184.35 112.40 183.28 110.15 181.87 C 98.88 174.92 87.01 168.99 75.79 161.97 Z" />
<path fill="#f9b937" opacity="1.00" d=" M 133.60 138.93 C 147.73 146.04 161.38 154.08 175.07 162.00 C 161.14 169.52 147.86 178.28 133.60 185.17 C 133.53 169.76 133.47 154.34 133.60 138.93 Z" />
<path fill="#f9b937" opacity="1.00" d=" M 55.26 173.26 C 57.85 171.91 60.86 169.15 63.84 171.15 C 79.46 179.82 94.69 189.20 110.35 197.82 C 112.78 199.21 115.14 200.73 117.46 202.32 C 117.36 212.18 117.53 222.03 117.37 231.89 C 93.06 218.20 69.07 203.94 44.80 190.19 C 41.74 188.49 38.77 186.65 35.86 184.70 C 42.01 180.36 48.93 177.30 55.26 173.26 Z" />
<path fill="#f9b937" opacity="1.00" d=" M 181.99 173.81 C 184.28 172.56 186.47 170.99 189.03 170.32 C 191.89 170.95 194.29 172.76 196.81 174.16 C 202.75 177.85 209.05 180.92 214.91 184.74 C 205.66 190.76 195.77 195.69 186.28 201.31 C 172.88 209.29 159.22 216.84 145.80 224.79 C 141.89 227.03 138.02 229.39 133.76 230.91 C 133.49 221.93 133.49 212.93 133.65 203.95 C 133.46 201.64 135.77 200.54 137.40 199.46 C 152.43 191.20 167.08 182.28 181.99 173.81 Z" />
</g>
</svg>
