<?xml version="1.0" encoding="utf-8"?>
<!-- Generator: Adobe Illustrator 26.0.3, SVG Export Plug-In . SVG Version: 6.00 Build 0)  -->
<svg version="1.1" id="Layer_1" xmlns="http://www.w3.org/2000/svg" xmlns:xlink="http://www.w3.org/1999/xlink" x="0px" y="0px"
	 viewBox="0 0 250 250" style="enable-background:new 0 0 250 250;" xml:space="preserve">
<style type="text/css">
	.st0{fill:#FFFFFF;}
	.st1{fill:#16449A;}
</style>
<g id="_x23_ffffffff">
	<path class="st0" d="M87.5,43.8c5.7-1.2,11.7-2.1,17.5-1.3c2.1,1.3,2.4,4.5,0.8,6.3c-15.3,16.2-28.9,34.7-36.1,56
		c-4.6,13.2-4.7,27.8-0.2,41c6.5,19.6,18.6,37,32.3,52.2c1.9,2.4,5.6,4.4,4.8,7.9c-0.2,1.8-2,3-3.7,2.9c-20.1,0.4-39.8-9-53.2-23.8
		c-25.7-27.2-30-71.4-11.4-103.6C48.9,63,66.7,48.4,87.5,43.8 M54.1,73.1c-22.7,25.9-25.3,66.7-6.8,95.6
		c10.1,16.2,26.8,28.5,45.8,31.5c-7.9-9.4-15.3-19.3-21.3-30c-9.3-16.3-15.7-35.3-12.9-54.3c3.9-24.7,18.3-46.1,34-64.9
		C77.8,53.1,64.1,61.7,54.1,73.1z"/>
	<path class="st0" d="M145.2,43.1c1.2-1.4,3.2-0.8,4.8-1c19.4,0.2,38.1,9.5,51.1,23.8c25.2,26.7,29.8,69.7,12.5,101.7
		c-8.3,15.6-21.6,28.8-38,35.7c-9,3.8-18.8,6-28.5,5.4c-3-0.3-3.8-4.6-1.9-6.5c14.5-15.2,27.2-32.5,34.8-52.2
		c5.4-13.6,6.5-29.1,2-43.1c-6.9-22.2-21-41.4-36.8-58.1C143.8,47.3,143.7,44.5,145.2,43.1 M158.1,51c13.9,16.5,26.4,34.9,32.1,56
		c4.1,14.7,2.9,30.5-2.4,44.8c-6.6,18-17.6,33.9-29.8,48.5c17.3-2.8,32.8-13.3,42.9-27.4c19.2-26.2,20.1-64.1,2.4-91.2
		C193.2,65.9,176.8,53.6,158.1,51z"/>
	<path class="st0" d="M92.3,83.5c6-0.3,12-0.2,18-0.1c5.2,9,10,18.2,14.9,27.3c4.8-8.1,9.1-16.6,13.6-24.9c0.6-0.8,1-2.4,2.2-2.4
		c5.8-0.3,11.7-0.2,17.6,0c0.6,2.9-1.4,5.2-2.6,7.6c-4.6,8.4-9.4,16.8-13.9,25.3c4.7,0.1,9.5-0.1,14.2,0.3c0.3,4.6,0.3,9.1,0.1,13.7
		c-7,0.7-14,0.2-21,0.3c-0.1,2.4-0.1,4.7-0.1,7.1c7,0.4,14.2-0.8,21.1,0.7c0,3.7,0.2,7.4,0,11c0,1.7-2.1,1.9-3.4,1.8
		c-5.9,0-11.8,0-17.7,0c-0.1,5,0.2,9.9-0.1,14.9c-0.2,0.3-0.7,0.9-0.9,1.2c-6.5,0.2-13.1,0.5-19.6-0.3c-0.1-5.3,0-10.6-0.1-15.9
		c-6.7-0.1-13.4,0.1-20.1-0.1c-1.4-4-0.6-8.4-0.8-12.5c6.7-2,13.9-0.5,20.9-1c-0.2-2.3,0.5-5-0.4-7c-6.6-0.3-13.2,0.1-19.8-0.2
		c-1-4.6-1-9.5,0-14.1c4.7-0.2,9.3,0,14-0.2c-5.1-9.5-10.2-19-15.4-28.5C92.3,86.5,92.3,85,92.3,83.5z"/>
</g>
<g id="_x23_16449aff">
	<path class="st1" d="M121.4,0h9.1c28.1,1.4,55.7,12.2,76.8,30.9c25.7,22.1,41.4,55.2,42.8,89v10.5c-1.4,28.1-12.2,55.7-30.9,76.7
		c-22.1,25.7-55.1,41.3-88.9,42.8h-8.9c-28.7-0.9-57-11.8-78.5-30.8C17.1,197.1,1.5,164,0,130.1v-7.8c0.6-35,16.8-69.3,43.4-92
		C64.9,11.6,92.9,0.9,121.4,0 M87.5,43.8c-20.8,4.6-38.6,19.2-49,37.7c-18.6,32.2-14.4,76.4,11.4,103.6
		c13.4,14.8,33.1,24.2,53.2,23.8c1.8,0.1,3.6-1.1,3.7-2.9c0.7-3.5-2.9-5.5-4.8-7.9c-13.7-15.3-25.8-32.6-32.3-52.2
		c-4.5-13.2-4.4-27.9,0.2-41c7.2-21.3,20.8-39.8,36.1-56c1.6-1.8,1.3-5-0.8-6.3C99.2,41.7,93.3,42.5,87.5,43.8 M145.2,43.1
		c-1.5,1.4-1.4,4.2-0.1,5.6c15.8,16.7,29.8,36,36.8,58.1c4.5,14.1,3.4,29.5-2,43.1c-7.6,19.7-20.3,37-34.8,52.2
		c-1.9,2-1.1,6.2,1.9,6.5c9.8,0.6,19.6-1.7,28.5-5.4c16.4-6.9,29.7-20.1,38-35.7c17.4-32,12.8-75.1-12.5-101.7
		c-13-14.2-31.7-23.5-51.1-23.8C148.4,42.4,146.4,41.7,145.2,43.1 M92.3,83.5c0,1.5,0,3.1,0.8,4.4c5.2,9.5,10.3,19,15.4,28.5
		c-4.7,0.1-9.3,0-14,0.2c-1.1,4.6-1,9.5,0,14.1c6.6,0.3,13.2-0.1,19.8,0.2c0.9,2,0.2,4.7,0.4,7c-6.9,0.5-14.2-1.1-20.9,1
		c0.1,4.2-0.7,8.5,0.8,12.5c6.7,0.1,13.4,0,20.1,0.1c0,5.3,0,10.6,0.1,15.9c6.5,0.8,13.1,0.5,19.6,0.3c0.2-0.3,0.6-0.9,0.9-1.2
		c0.3-5,0-9.9,0.1-14.9c5.9,0,11.8,0,17.7,0c1.3,0.1,3.4-0.1,3.4-1.8c0.2-3.7,0-7.4,0-11c-6.9-1.5-14.1-0.4-21.1-0.7
		c0-2.4,0-4.7,0.1-7.1c7-0.1,14,0.4,21-0.3c0.2-4.6,0.2-9.2-0.1-13.7c-4.7-0.5-9.4-0.2-14.2-0.3c4.5-8.5,9.2-16.9,13.9-25.3
		c1.2-2.4,3.2-4.7,2.6-7.6c-5.9-0.2-11.7-0.3-17.6,0c-1.3,0-1.6,1.6-2.2,2.4c-4.5,8.3-8.8,16.8-13.6,24.9c-5-9.1-9.8-18.3-14.9-27.3
		C104.3,83.3,98.3,83.1,92.3,83.5z"/>
	<path class="st1" d="M54.1,73.1c10-11.3,23.7-20,38.8-22.1c-15.7,18.8-30.1,40.2-34,64.9c-2.9,19,3.5,38,12.9,54.3
		c6,10.7,13.4,20.6,21.3,30c-19-3.1-35.7-15.4-45.8-31.5C28.8,139.8,31.4,99,54.1,73.1z"/>
	<path class="st1" d="M158.1,51c18.7,2.6,35.1,14.9,45.2,30.6c17.7,27.1,16.8,65.1-2.4,91.2c-10.2,14.1-25.7,24.6-42.9,27.4
		c12.2-14.6,23.3-30.5,29.8-48.5c5.4-14.2,6.5-30.1,2.4-44.8C184.5,85.9,171.9,67.5,158.1,51z"/>
</g>
</svg>
