<svg id="Layer_1" data-name="Layer 1" xmlns="http://www.w3.org/2000/svg" xmlns:xlink="http://www.w3.org/1999/xlink" viewBox="0 0 250 250"><defs><style>.cls-1{fill:url(#linear-gradient);}.cls-2{fill:url(#linear-gradient-2);}.cls-3{fill:url(#linear-gradient-3);}.cls-4{fill:url(#linear-gradient-4);}</style><linearGradient id="linear-gradient" x1="395.36" y1="-129.75" x2="507.87" y2="-129.75" gradientTransform="matrix(1, 0, 0, -1, -327.02, -4.75)" gradientUnits="userSpaceOnUse"><stop offset="0" stop-color="#29dce8"/><stop offset="1" stop-color="#29dc93"/></linearGradient><linearGradient id="linear-gradient-2" x1="423.9" y1="-50.06" x2="425.39" y2="-50.06" xlink:href="#linear-gradient"/><linearGradient id="linear-gradient-3" x1="327.82" y1="-108.2" x2="416.69" y2="-108.2" xlink:href="#linear-gradient"/><linearGradient id="linear-gradient-4" x1="486.06" y1="-108.5" x2="576.62" y2="-108.5" xlink:href="#linear-gradient"/></defs><g id="Layer_2" data-name="Layer 2"><g id="Layer_1-2" data-name="Layer 1-2"><path class="cls-1" d="M128.15,28S153.79,38.25,176,89a127.18,127.18,0,0,1,5.12,27.34s1.15,33.63-23.31,43.86A13.55,13.55,0,0,0,148.15,175c1.14,12,3.42,30.77,3.42,34.76a13.4,13.4,0,0,1-13.11,12,90.27,90.27,0,0,1-25.64,0c-8.55-2.27-9.69-6.83-9.69-6.83s-4-5.7-1.14-30.77c0,0,5.7-17.67-10.82-24.5s-22.22-37-22.22-37S63.78,93,95.69,51.35c0,0,19.94-25.07,31.9-23.93"/><path class="cls-2" d="M98.53,44.46l-1.7,1.71Z"/><path class="cls-3" d="M84.93,61.8a83.45,83.45,0,0,0-29.1-13.13,156.21,156.21,0,0,0-32-3.43H16.43A16.58,16.58,0,0,0,3.3,51,14.1,14.1,0,0,0,.44,63.51a120.83,120.83,0,0,0,29.69,63.37A143.11,143.11,0,0,0,57,149.15a113.26,113.26,0,0,0,32.54,12.52c-17.13-7.43-22.83-38.25-22.83-38.25-16.56-10.28-27.39-25.68-35.4-48.5h.57A74.17,74.17,0,0,1,72.36,88.05,91.68,91.68,0,0,1,84.93,61.8Z"/><path class="cls-4" d="M177.71,88a72.83,72.83,0,0,1,40.51-13.12h.56c-8,22.83-19.41,38.23-36,48.49V120c-.57,9.12-4,33.63-24,42.23a118.49,118.49,0,0,0,34.24-13.12,91.79,91.79,0,0,0,26.82-22.26,130.24,130.24,0,0,0,29.68-63.36A14.08,14.08,0,0,0,246.71,51a18.61,18.61,0,0,0-13.07-5.77h-7.43a148.66,148.66,0,0,0-32,3.43,78.54,78.54,0,0,0-29.67,13.69A145.9,145.9,0,0,1,177.71,88Z"/></g></g></svg>