<?xml version="1.0" encoding="utf-8"?>
<!-- Generator: Adobe Illustrator 26.0.3, SVG Export Plug-In . SVG Version: 6.00 Build 0)  -->
<svg version="1.1" id="Layer_1" xmlns="http://www.w3.org/2000/svg" xmlns:xlink="http://www.w3.org/1999/xlink" x="0px" y="0px"
	 viewBox="0 0 250 250" style="enable-background:new 0 0 250 250;" xml:space="preserve">
<style type="text/css">
	.st0{fill:#FFFFFF;}
	.st1{fill:#F1EEB4;}
	.st2{fill:#C9E48F;}
	.st3{fill:#C1B018;}
	.st4{fill:#F3D145;}
	.st5{fill:#F9E388;}
	.st6{fill:#FEFEFF;}
	.st7{fill:#EBDAFF;}
	.st8{fill:#CF9EFE;}
	.st9{fill:#7532FF;}
	.st10{fill:#9E2FFF;}
	.st11{fill:#FCFEFE;}
	.st12{fill:#9780F9;}
	.st13{fill:#FCFCFF;}
	.st14{fill:#F5F1FF;}
	.st15{fill:#F3EEFF;}
	.st16{fill:#D4F2CC;}
	.st17{fill:#A69EFF;}
	.st18{fill:#DED9FF;}
	.st19{fill:#F2C046;}
	.st20{fill:#E2DCFE;}
	.st21{fill:#9561F7;}
	.st22{fill:#BB59F0;}
	.st23{fill:#EEE9FE;}
	.st24{fill:#ECCF98;}
	.st25{fill:#CB7EEE;}
	.st26{fill:#EDE9FD;}
	.st27{fill:#9076F8;}
	.st28{fill:#EFEAFE;}
	.st29{fill:#D2A03E;}
	.st30{fill:#DAA2ED;}
	.st31{fill:#E8E2F9;}
	.st32{fill:#9EB2F8;}
	.st33{fill:#E7C2F3;}
	.st34{fill:#D4B175;}
	.st35{fill:#AC9466;}
	.st36{fill:#E2F4FE;}
	.st37{fill:#C3D0F3;}
	.st38{fill:#E9E5ED;}
	.st39{fill:#B6C5ED;}
	.st40{fill:#E8B565;}
	.st41{fill:#F3EFEA;}
	.st42{fill:#E8E2DE;}
	.st43{fill:#E5FDFD;}
	.st44{fill:#A0F3E4;}
	.st45{fill:#C670DE;}
	.st46{fill:#E8AB64;}
	.st47{fill:#EED1A3;}
	.st48{fill:#E7B364;}
	.st49{fill:#9F9681;}
	.st50{fill:#BEBDBC;}
	.st51{fill:#EFF1F6;}
	.st52{fill:#B1A896;}
	.st53{fill:#EAECF0;}
	.st54{fill:#EDDABC;}
	.st55{fill:#EBCB9D;}
	.st56{fill:#A6BAE0;}
	.st57{fill:#EBB785;}
	.st58{fill:#B4CBF4;}
	.st59{fill:#88CFFF;}
	.st60{fill:#F9FCFE;}
	.st61{fill:#ABB4C2;}
	.st62{fill:#F2EEEB;}
	.st63{fill:#989D9C;}
	.st64{fill:#EDC5AE;}
	.st65{fill:#E4D2B9;}
	.st66{fill:#A2C1EF;}
	.st67{fill:#97AABC;}
	.st68{fill:#9EC3EA;}
	.st69{fill:#F3D9CA;}
	.st70{fill:#D28BDB;}
	.st71{fill:#E19D80;}
	.st72{fill:#F4DFE7;}
	.st73{fill:#ABF8FA;}
	.st74{fill:#E5AC9B;}
	.st75{fill:#D78EB2;}
	.st76{fill:#CB79C9;}
	.st77{fill:#D998AE;}
	.st78{fill:#CE7C8F;}
	.st79{fill:#4AECF7;}
</style>
<g id="_x23_ffffffff">
	<path class="st0" d="M94.1,29.6c0.4-0.2,1.3-0.5,1.7-0.6c-1.9,2.7-3.7,5.6-3.5,9c-0.1,37,0.2,74,0.3,111c-0.3,11.2,1.6,22.4,0,33.6
		c-0.7,9.1-0.1,18.3-0.3,27.4c-0.3,3.8,1.2,7.4,2.6,10.8c-3.3-2.1-5.3-5.9-5.1-9.8c0-13.8-0.1-27.5,0-41.2
		c0.3-30.3,0.6-60.6,0.3-90.9c0.2-13.6,0-27.2,0.1-40.8C90,34.7,92.1,32,94.1,29.6z"/>
	<path class="st0" d="M109.2,28.4c2.6,2.3,5.5,5,5.4,8.8c0.1,16.6-0.1,33.2,0,49.8c0.2,15.7,3.4,31.3,8.5,46.2l0.2,0.7
		c-0.3,0.6-0.9,1.7-1.2,2.3c-2.1-6-4.3-12-5.8-18.2c-2.8-11.4-4.1-23.2-4.1-35c0-14.7-0.1-29.3,0-44
		C112.6,35.2,110.5,31.8,109.2,28.4z"/>
	<path class="st0" d="M112.9,28.5c3.1,1.8,5.9,4.8,5.9,8.5c0.2,16.6,0,33.3,0.1,49.9c0.1,6.8,0.8,13.5,1.8,20.2
		c1,5.8,2.3,11.5,3.9,17.2c-0.4,0.5-1.2,1.5-1.6,1.9c-4.3-14-6.3-28.6-6.3-43.2c0-13.3-0.1-26.7-0.1-40c0-2.7,0.1-5.4-0.3-8
		C115.6,32.6,114.1,30.6,112.9,28.5z"/>
	<path class="st0" d="M94.4,40c-0.4-4,1.1-8,4.4-10.4c-1,2.7-2.3,5.4-2.3,8.4c0,43,0.1,86.1,0.2,129.1c-0.3,11.6-0.1,23.2-0.2,34.8
		c0.1,5.1-0.6,10.2,0.9,15.1c0.1,0.6,0.3,1.9,0.4,2.5c-1.5-1.7-3.2-3.4-3.4-5.8c-0.8-10.6,0.7-21.2-0.8-31.7c-0.2-2-0.2-4.1-0.2-6.1
		c0.3-14.3-0.7-28.7,0.6-43C94.4,102,94.5,71,94.4,40z"/>
	<path class="st0" d="M107.8,38c0-3.2-1.7-5.9-2.2-9c2.4,2.5,4.8,5.3,4.6,9c0.1,15-0.2,30-0.1,45c0,12.9,1.6,25.9,5,38.4
		c1.2,4.4,2.4,8.8,4.1,13c-0.4,0.2-1.1,0.6-1.5,0.8c-4.6-10.9-7.2-22.5-8.6-34.2c-1.5-10.9-0.8-22-1-33C107.8,58,107.9,48,107.8,38z
		"/>
	<path class="st0" d="M103.2,41c0-3.5-1.6-7-0.6-10.4c1.8,2.1,3.2,4.6,3.1,7.4c0.1,15.7-0.1,31.4,0,47c0,16.6,3.2,33.2,8.8,48.8
		c-0.4,0.7-1.1,1.9-1.5,2.6c-7.1-17.9-10.4-37.2-9.8-56.4C103.3,67,103.2,54,103.2,41z"/>
	<path class="st0" d="M165.5,49.6l1.6-0.6l0.6,0.5c3,3.4,5.4,8.5,2.6,12.8c-8.1,13.9-16.3,27.7-24.3,41.7c0.1-2.1-0.5-4.4,0.7-6.2
		c6.8-11.5,13.8-22.9,20.5-34.5C169.9,58.9,168.5,53.4,165.5,49.6z"/>
	<path class="st0" d="M170.1,49.4l1.8,0.2c4.4,3.3,5.1,9.9,2.1,14.3c-4.7,7.7-9,15.5-13.7,23.2c-4.7,6.8-8.9,13.9-12.5,21.3
		l-0.2-0.1c-1.8-2.5,0.6-5,1.8-7.1c7.6-12.7,15.2-25.4,22.7-38.3C174.6,58.5,172.9,53.3,170.1,49.4z"/>
	<path class="st0" d="M142.4,56.4c1.4-2,2.4-4.8,5.1-5.2c-5.2,7.7-9.7,16-12.4,24.9c-2.9,10.3-1.3,21.2-0.2,31.7
		c-0.3,0.3-1,1-1.4,1.3c-0.7-8-2.9-15.9-1.9-24C132.2,74.8,137.3,65.3,142.4,56.4z"/>
	<path class="st0" d="M136.4,131.6c4.2,11.5,9,22.9,13.8,34.2c2,4.7,3.7,9.5,6.4,13.9c4.5,9.4,8.1,19.2,12.3,28.7
		c1.8,3.9,0.4,8.3-1.9,11.7c-0.4-0.5-1-1.4-1.4-1.9c0.3-2.7,1.5-5.5,0.6-8.2c-0.9-3.3-2.4-6.3-3.7-9.4
		c-9.2-22.1-18.4-44.2-27.6-66.3C135.4,133.3,135.9,132.4,136.4,131.6z"/>
	<path class="st0" d="M133.4,136.5c2,3.6,3.4,7.4,4.9,11.2c8.6,20.4,17.3,40.8,25.9,61.2c1,2.2,0.9,4.6,0,6.8
		c-2.5-5.7-4.8-11.5-7.2-17.2c-5.2-12.5-10.4-25-15.6-37.5c-3.2-7.4-6.2-14.9-9.3-22.3C132.4,138.1,133.1,137,133.4,136.5z"/>
	<path class="st0" d="M104.4,168.7c1.4-9.5,4.5-18.6,8.5-27.3c0.3,1,0.6,1.9,0.9,2.9c-6.6,13.5-8.7,28.8-8.2,43.7
		c-0.2,8.3,0.2,16.7-0.1,25c0.1,2.4-1.5,4.2-3,5.8C104.1,202.1,102,185.3,104.4,168.7z"/>
	<path class="st0" d="M118.5,145.2c0-0.3,0.2-0.9,0.2-1.2c0.2,0.5,0.6,1.5,0.8,2c0.3,0.5,0.8,1.5,1.1,2c0,0.4,0,1.3,0,1.8
		c-7.7,19.8-5.7,41.4-5.9,62.2c0.3,4-2.2,7.5-5.7,9.2c0.8-3.1,2.9-5.9,2.6-9.3c0-10.7,0-21.3,0-32c0.8-9.6,2.2-19.4,5.7-28.4
		C118.2,149.6,118.6,147.4,118.5,145.2z"/>
	<path class="st0" d="M127.5,149c0.3-0.6,0.8-1.8,1.1-2.4c4,10,8.3,19.9,12.4,29.9c3.2,8,6.6,16,10,23.9c2.8,6.8,5.7,13.6,8.5,20.4
		c-1.7-1.1-3.3-2.4-4-4.4c-2.5-5.6-4.8-11.3-7-16.9C141.6,182.6,134.6,165.8,127.5,149z"/>
	<path class="st0" d="M126.4,151.9c6.7,16.6,13.6,33.1,20.7,49.5c2.8,6.2,4.9,12.8,8.2,18.7c-3.3-1.1-4.4-4.6-5.7-7.6
		c-2-5-4.1-10-6.3-14.9c-6-14.3-11.9-28.7-17.9-43C125.7,154,126.2,152.6,126.4,151.9z"/>
	<path class="st0" d="M124.4,158.6c6.2,13.5,11.6,27.4,17.5,41.2c2.4,7,5.8,13.5,8.1,20.5c-1.5-1.2-2.9-2.6-3.6-4.5
		c-7.7-18-14.7-36.2-22.7-54.1C123.8,160.9,124.2,159.3,124.4,158.6z"/>
</g>
<g id="_x23_f1eeb4ff">
	<path class="st1" d="M87.7,27.8c1.6-2.4,4.9-1.7,7.4-2.1c-0.8,0.7-1.6,1.5-2.4,2.2c0.3,0.4,1,1.3,1.3,1.7c-1.9,2.4-4,5-3.9,8.3
		c-0.1,13.6,0.1,27.2-0.1,40.8c-0.2,2.4-1.1,4.7-2,6.9C87.3,74.2,88,62.6,87.8,51c0.3-7.1-1.2-14.7,2.2-21.3c-2.8,1.7-4.6,5-4.5,8.3
		c0,25.4,0,50.7-0.2,76.1c-0.6,5.4-0.3,10.8-0.7,16.2c-1.1-7.4,0.4-14.9-0.9-22.3c-0.2-23.3-0.2-46.7-0.2-70
		C83.5,34.1,85.7,30.9,87.7,27.8z"/>
	<path class="st1" d="M101.7,30.3c1.2-0.7,2.5-1.4,3.8-1.9l0.2,0.6c0.5,3.1,2.3,5.8,2.2,9c0.1,10,0,20,0.2,30.1c0.2,11-0.5,22,1,33
		c1.5,11.7,4,23.3,8.6,34.2c-0.4,1.1-0.8,2.2-1.1,3.3c-0.7-1.6-1.4-3.1-2-4.7c-5.7-15.6-8.9-32.2-8.8-48.8c-0.1-15.7,0.1-31.4,0-47
		c0.2-2.8-1.3-5.3-3.1-7.4c-1,3.5,0.6,6.9,0.6,10.4c0,13,0,26,0,39c-0.6,19.2,2.7,38.5,9.8,56.4c-0.2,0.5-0.7,1.4-0.9,1.8
		c-7.2-18.1-10.7-37.7-10.6-57.2c0.1-13,0-26,0.1-39.1c0-3,0.4-6.3-1.4-8.9C100.7,32.1,101.2,31.2,101.7,30.3z"/>
</g>
<g id="_x23_c9e48fff">
	<path class="st2" d="M95.1,25.7c2,0,4,0.1,5.9,0.5c-1.4,0.4-2.6,1.2-3.7,2c1.6,0.3,4.3-0.3,4.3,2.1c-0.5,0.9-1,1.8-1.4,2.7
		c-1.3,2.5-1.3,5.3-1.2,8c0.2,32.2,0,64.3-0.4,96.5c-0.5,1.8-1.2,3.6-1.2,5.5c-0.2,8.1,0.1,16.1-0.6,24.2
		c-0.1-43-0.2-86.1-0.2-129.1c-0.1-3,1.3-5.7,2.3-8.4C95.5,32,94.1,36,94.4,40c0,31,0,62-0.2,93c-1.3,14.3-0.3,28.7-0.6,43
		c0,2-0.1,4.1,0.2,6.1l-1.3,0.5c1.6-11.2-0.3-22.4,0-33.6c-0.1-37-0.4-74-0.3-111c-0.2-3.4,1.6-6.4,3.5-9c-0.4,0.2-1.3,0.5-1.7,0.6
		c-0.3-0.4-1-1.3-1.3-1.7C93.6,27.2,94.3,26.4,95.1,25.7z"/>
</g>
<g id="_x23_c1b018ff">
	<path class="st3" d="M101.1,26.2c3.8-0.3,7.7-0.8,11.5,0.3c-1.2,0.5-2.4,0.9-3.7,1.2c-1.1,0.2-2.3,0.4-3.4,0.6
		c-1.3,0.5-2.6,1.2-3.8,1.9c-0.1-2.4-2.7-1.8-4.3-2.1C98.5,27.4,99.7,26.6,101.1,26.2z"/>
</g>
<g id="_x23_f3d145ff">
	<path class="st4" d="M112.5,26.5l0.5-0.2c4.7,1.9,8.2,6.5,8.2,11.7c0,16,0,32,0.1,48c0,6.4,0.9,12.8,1.4,19.1
		c-0.5,0.5-1.5,1.4-2,1.9c-1-6.7-1.8-13.4-1.8-20.2c-0.1-16.6,0.1-33.3-0.1-49.9c0-3.8-2.8-6.7-5.9-8.5c1.2,2.1,2.7,4.1,3.4,6.5
		c0.5,2.7,0.3,5.4,0.3,8c0,13.3,0.1,26.7,0.1,40c0,14.6,2.1,29.2,6.3,43.2c0.5,1.5,1,3,1.6,4.5c-0.4,0.6-1.1,1.8-1.4,2.4
		c-5.1-14.9-8.3-30.4-8.5-46.2c-0.1-16.6,0.1-33.2,0-49.8c0.1-3.8-2.8-6.5-5.4-8.8l-0.3-0.6C110.1,27.4,111.3,27,112.5,26.5z"/>
</g>
<g id="_x23_f9e388ff">
	<path class="st5" d="M105.4,28.4c1.1-0.2,2.3-0.4,3.4-0.6l0.3,0.6c1.4,3.4,3.4,6.8,3.2,10.6c0,14.7,0,29.3,0,44
		c0,11.8,1.3,23.5,4.1,35c-0.5,1.1-1,2.3-1.5,3.4c-3.4-12.5-5-25.4-5-38.4c0-15,0.3-30,0.1-45c0.2-3.7-2.2-6.5-4.6-9L105.4,28.4z"/>
</g>
<g id="_x23_fefeffff">
	<path class="st6" d="M99,41c0-2.7-0.1-5.5,1.2-8c1.8,2.6,1.4,5.9,1.4,8.9c-0.1,13,0,26-0.1,39.1c-0.2,19.5,3.3,39,10.6,57.2
		c-3.2,6.7-5.9,13.7-7.7,21c-3.8,14.3-3,29.2-3.1,43.8c0,4.6,0.6,9.4-1.2,13.8c-1.9-3.6-1.2-7.9-1.3-11.8c-0.1-22.5,0.2-45-0.3-67.5
		C99,105.3,99.2,73.2,99,41z"/>
	<path class="st6" d="M129.7,143.2c0.2-0.5,0.7-1.4,0.9-1.9c3.2,7.4,6.3,14.9,9.4,22.3c5.2,12.5,10.4,25,15.6,37.4
		c2.7,5.8,4.7,11.9,7.6,17.6c0.4,0.4,1.3,1.2,1.8,1.6c-0.1,0.2-0.2,0.6-0.3,0.7c-1.9-1.3-3.9-2.7-4.7-4.9
		c-2.6-5.8-4.9-11.8-7.4-17.6c-3.3-8-6.6-16-10-24c-4.3-10.2-8.3-20.5-12.8-30.6L129.7,143.2z"/>
</g>
<g id="_x23_ebdaffff">
	<path class="st7" d="M140.2,49.2c2.2-3.2,6.6-3,10-2.9c-1.6,0.5-3.1,1.4-4.5,2.3c1.2,0,2.4,0.1,3.6,0.1c-0.6,0.9-1.3,1.8-1.9,2.6
		c-2.7,0.4-3.7,3.2-5.1,5.2c-5.1,8.9-10.1,18.3-10.7,28.8c-1,8.1,1.2,16,1.9,24c-0.4,0.6-1.1,1.8-1.5,2.3c-2.3-2.2-1.3-5.7-2-8.5
		c-1.8-9.5-2-19.5,1.1-28.8c1.7-4.8,3.6-9.5,6.2-13.9c1.9-3.5,4.4-6.6,5.8-10.3c-3,2.1-4.7,5.5-6.6,8.5c-4.6,8.2-9,17-9.5,26.5
		c-0.7,8.5,0.8,16.9,2.3,25.1c-0.3,0.5-0.9,1.4-1.3,1.8c-1.9-2.6-1.8-5.9-2.3-8.9c-1.5-9.8-1.8-20.2,1.6-29.7
		C130.4,64.7,134.9,56.6,140.2,49.2z"/>
	<path class="st7" d="M133.4,136.5c0.5-0.8,1-1.6,1.5-2.4c9.2,22.1,18.4,44.2,27.6,66.3c1.3,3.1,2.8,6.2,3.7,9.4
		c0.9,2.7-0.3,5.5-0.6,8.2c-0.5-0.8-1.1-1.6-1.5-2.4c1-2.2,1.1-4.6,0-6.8c-8.6-20.4-17.3-40.8-25.9-61.2
		C136.8,143.9,135.4,140.1,133.4,136.5z"/>
</g>
<g id="_x23_cf9efeff">
	<path class="st8" d="M150.3,46.3c2.7-0.2,5.5-0.6,8.1,0.2c-0.7,0.2-2.1,0.5-2.8,0.7c-1.6,0.1-3.1,0.5-4.7,0.7
		c1.4,0.3,2.9,0.5,4.3,0.8c-0.7,0.7-1.5,1.3-2.2,2c-2.8-1.2-4,2.2-5.4,3.9c-6.1,9.8-11.8,20.6-11.9,32.4c-0.4,5.6,0.5,11.1,1.4,16.6
		c0.3,2.8,0.7,5.6,0,8.4c-0.9-1.4-1.8-2.7-2.3-4.2c-1.1-10.5-2.7-21.3,0.2-31.7c2.7-8.9,7.1-17.2,12.4-24.9c0.6-0.9,1.3-1.8,1.9-2.6
		c-1.2,0-2.4,0-3.6-0.1C147.2,47.7,148.6,46.8,150.3,46.3z"/>
</g>
<g id="_x23_7532ffff">
	<path class="st9" d="M158.4,46.6c4.9-0.2,10.8-1.3,14.8,2.3c4.1,3.1,5.7,9.1,3.2,13.7c-4.9,9.1-10.7,17.6-15.5,26.7
		c-0.1-0.5-0.5-1.6-0.6-2.1c4.7-7.6,9.1-15.5,13.7-23.2c3-4.5,2.3-11-2.1-14.3c-0.5-0.5-1.5-1.6-2-2.2c-0.6,0.5-1.7,1.5-2.3,2
		l-0.6-0.5c-1.9-2.2-5,0.1-7.3,0.4c-1.4-0.8-2.8-1.5-4.2-2.2C156.3,47.1,157.7,46.7,158.4,46.6z"/>
</g>
<g id="_x23_9e2fffff">
	<path class="st10" d="M150.9,48c1.6-0.2,3.1-0.6,4.7-0.7c1.4,0.7,2.8,1.4,4.2,2.2l0.4,0.4c-1.2,1.3-2.3,2.7-3.3,4.2
		c-5.2,8.1-9.8,16.9-11.8,26.5c-0.5,2.6-0.7,5.2-0.1,7.8l0.2,0.7c-0.4,1.3-0.6,2.7-0.7,4c0.1,1.7,0.2,3.5,0.4,5.2
		c0.1,3.6,0.3,7.2,1.6,10.5c-0.3,0.6-1,1.7-1.3,2.3c-0.3-1.1-0.6-2.2-0.9-3.3c-2.5-12.6-3.1-26.3,2.3-38.3c2.9-7.4,7.4-14,11.4-20.8
		c-4.3,2.1-6.5,6.6-8.8,10.5c-4.4,8-8.4,16.6-9.1,25.8c-1.2,8.4,1.8,16.5,1.9,24.9c-0.4,0.5-0.7,0.9-1,1.4c-1-4.4-1.6-9-2.2-13.5
		c-0.5-8.6-0.8-17.6,2.7-25.7c3.1-7.5,6.6-15.1,11.9-21.4c0.7-0.7,1.4-1.3,2.2-2C153.8,48.5,152.4,48.3,150.9,48z"/>
</g>
<g id="_x23_fcfefeff">
	<path class="st11" d="M149,59.2c2.3-3.9,4.5-8.5,8.8-10.5c-4,6.8-8.5,13.4-11.4,20.8c-5.4,12-4.8,25.7-2.3,38.3
		c-0.6,0.5-1.8,1.6-2.4,2.2c-0.1-8.3-3.1-16.5-1.9-24.9C140.6,75.7,144.6,67.2,149,59.2z"/>
	<path class="st11" d="M116.5,180c0.1-9.6,2.4-19.1,5.2-28.2c0.4,0.5,1.1,1.6,1.5,2.1l-0.2,0.8c-0.6,2.4-1.3,4.9-1.8,7.3
		c-3.7,16.8-1.3,34.1-2.2,51.1c-0.2,3.5-2.5,6.7-5.7,8.1c1.3-2.9,3.3-5.7,3.1-9C116.5,201.4,116.4,190.7,116.5,180z"/>
</g>
<g id="_x23_9780f9ff">
	<path class="st12" d="M159.8,49.4c2.3-0.3,5.4-2.7,7.3-0.4l-1.6,0.6c3,3.8,4.4,9.3,1.6,13.6c-6.7,11.6-13.6,23-20.5,34.5
		c-1.2,1.9-0.6,4.2-0.7,6.2c8-13.9,16.2-27.8,24.3-41.7c2.7-4.3,0.4-9.4-2.6-12.8c0.6-0.5,1.7-1.5,2.3-2c0.5,0.5,1.5,1.6,2,2.2
		l-1.8-0.2c2.8,3.9,4.5,9.1,1.8,13.6c-7.4,12.8-15.1,25.6-22.7,38.3c-1.2,2.1-3.6,4.7-1.8,7.1c-0.3,0.1-0.9,0.2-1.1,0.3
		c-1.3-3.3-1.5-6.9-1.6-10.5c3-3.4,4.9-7.5,7.2-11.3c4.6-8,9.4-16,14-24c1.6-2.5,2-5.8,0.8-8.5c-1.2-2.5-2.7-5.6-6-5
		c1.4,3,3.2,6.1,2.7,9.6c-0.1,2.9-1.9,5.3-3.2,7.7c-4,6.7-7.9,13.4-11.9,20c-1,1.5-1.4,3.3-1.7,5.1l-1.6-0.5
		c-0.2,0.5-0.5,1.4-0.7,1.8c0.1-1.3,0.3-2.7,0.7-4c1.9-1.2,3.4-2.9,4.4-4.9c4.1-7.2,8.5-14.2,12.5-21.4c2.2-4.2,1-9.3-1.9-12.9
		L159.8,49.4z"/>
	<path class="st12" d="M141.8,109.8c0.6-0.5,1.8-1.6,2.4-2.2c0.3,1.1,0.6,2.2,0.9,3.3c-1.9-1.2-2.9,1.4-2.6,2.9
		c-0.3,0.9-0.7,1.7-1.1,2.5c-1.1,0.5-1.6,1.4-1.6,2.6c0.6,2,2.2-0.9,1.9-1.8c0.4,1.3,0.8,2.6,1.1,3.8l-0.2,0.2c-0.3,0.3-1,1-1.3,1.3
		c-0.7-0.9-1.8-0.9-2.8-0.9l-0.6-0.1c-1.1,0.6-1.8,4.6,0.1,2.7c0.2-0.5,0.5-1.4,0.7-1.9c0.3,1.2,0.6,2.5,0.9,3.7l-0.2,0.2
		c-0.6,0.9-1.1,1.9-1.6,2.8l-0.8,1.4c-0.3-0.5-0.9-1.4-1.2-1.9c0.3-0.9,0.8-2.8,1.1-3.8c-3.5,1.8-4.9,5.8-6.6,9.1
		c-0.1-0.4-0.4-1.3-0.5-1.7c1.5-2.7,3.1-5.5,4.8-8.1c-0.2-1.4-0.4-2.8-0.5-4.1c-1.6,3.3-5.5,6.2-5,10.1c-0.3-0.7-0.5-1.4-0.8-2.1
		c2.6-3.9,4.8-8,6.4-12.4c-0.2,2.1,0.3,4,1.9,5.4c1.2-2,1.1-4.4,1.1-6.6c1,0.4,1.9,0.8,2.9,1.2c0.1-1.4,0.3-2.8,0.4-4.2
		C141.1,110.8,141.4,110.3,141.8,109.8z"/>
</g>
<g id="_x23_fcfcffff">
	<path class="st13" d="M147.7,54.7c1.4-1.7,2.6-5.1,5.4-3.9c-5.3,6.2-8.8,13.8-11.9,21.4c-3.4,8.1-3.2,17.1-2.7,25.7
		c-0.4,2-0.9,3.9-1.4,5.8c-0.8-5.5-1.8-11-1.4-16.6C136,75.2,141.7,64.5,147.7,54.7z"/>
	<path class="st13" d="M145.1,80.5c1.9-9.5,6.5-18.3,11.8-26.5c2.1,4.1,0.6,8.5-2,12C151.5,70.7,149.8,76.8,145.1,80.5z"/>
	<path class="st13" d="M144.3,117.4c0.3-0.4,1-1.3,1.3-1.7c2.1,8.4,4.4,16.9,7.5,25c5.3,13.7,11.3,27.1,16.9,40.6
		c2.5,6.1,5.1,12.1,7.7,18.2c1.4,3.8,3.5,7.4,4.4,11.4c0.8,3.9-1.4,7.8-4.7,9.8c1.7-3.5,3.5-7.4,2.1-11.4
		c-2.1-5.9-4.9-11.6-7.2-17.5c-4.9-11.8-9.8-23.6-14.8-35.3c-5.2-12.1-10.1-24.4-13.2-37.2C144.3,118.9,144.3,117.9,144.3,117.4z"/>
	<path class="st13" d="M141.2,122.5c0.3-0.3,1-0.9,1.3-1.3c3.2,12.9,8.2,25.1,13.5,37.2c4.9,12,10,23.9,15.1,35.8
		c2.1,5.1,4.4,10.1,6.3,15.2c1.6,4.5-0.7,9.5-4.9,11.5c1.7-3.7,4.2-7.8,2.3-12c-4.3-10.9-9.1-21.5-13.4-32.4
		c-6.6-17.5-15.2-34.3-20.2-52.4C141.2,123.8,141.2,123,141.2,122.5z"/>
	<path class="st13" d="M137.7,129.1c0.5-1,1.1-1.9,1.6-2.8c2.3,7.3,4.7,14.6,7.8,21.6c4.4,10.2,8.4,20.7,13.2,30.8
		c4,9.1,7.7,18.4,11.6,27.6c1,2.3,2,4.7,1.7,7.2c-0.1,2.8-2,5-3.3,7.2c-0.6-0.6-1.3-1.3-1.9-1.9c2-2.6,2.7-6,1.7-9.1
		c-4.1-10.7-9.2-21-13-31.9c-4.6-14.1-11.7-27.3-16.5-41.4C139.8,133.8,138.9,131.4,137.7,129.1z"/>
</g>
<g id="_x23_f5f1ffff">
	<path class="st14" d="M160.9,49.3c3.3-0.5,4.8,2.6,6,5c1.2,2.7,0.8,6-0.8,8.5c-4.6,8-9.4,16-14,24c-2.3,3.8-4.2,8-7.2,11.3
		c-0.2-1.7-0.3-3.4-0.4-5.2c0.2-0.4,0.5-1.4,0.7-1.8l1.6,0.5c0.4-1.8,0.7-3.6,1.7-5.1c4-6.6,7.9-13.3,11.9-20
		c1.4-2.4,3.2-4.8,3.2-7.7C164,55.5,162.2,52.3,160.9,49.3z"/>
</g>
<g id="_x23_f3eeffff">
	<path class="st15" d="M156.8,54c1-1.5,2.2-2.8,3.3-4.2c2.8,3.6,4.1,8.7,1.9,12.9c-4,7.2-8.4,14.2-12.5,21.4c-1,2-2.5,3.7-4.4,4.9
		l-0.2-0.7c-0.6-2.6-0.4-5.2,0.1-7.8c4.8-3.7,6.4-9.8,9.8-14.5C157.4,62.5,158.9,58.1,156.8,54z"/>
</g>
<g id="_x23_d4f2ccff">
	<path class="st16" d="M88.1,85.7c0.9-2.2,1.7-4.5,2-6.9c0.3,30.3-0.1,60.6-0.3,90.9c-0.4,0.4-1.1,1.1-1.5,1.4
		c-0.8-26.7-0.3-53.4-0.5-80.1C87.8,89.3,87.5,87.4,88.1,85.7z"/>
</g>
<g id="_x23_a69effff">
	<path class="st17" d="M147.8,108.4c3.6-7.4,7.8-14.5,12.5-21.3c0.2,0.5,0.5,1.6,0.6,2.1c-4,8.2-9.3,15.7-13.6,23.8
		c-0.4,0.7-1.3,2-1.7,2.7c-0.3,0.4-1,1.3-1.3,1.7c-0.3-0.7-1-2.1-1.4-2.8c1.7-0.3,2.2-2.1,2.2-3.6c0.3-0.6,1-1.7,1.3-2.3
		c0.3-0.1,0.9-0.2,1.1-0.3L147.8,108.4z"/>
</g>
<g id="_x23_ded9ffff">
	<path class="st18" d="M138.6,97.8c0.7,4.5,1.2,9,2.2,13.5c-0.1,1.4-0.2,2.8-0.4,4.2c-1-0.4-1.9-0.8-2.9-1.2
		c-0.1,2.2,0.1,4.6-1.1,6.6c-1.6-1.4-2.1-3.3-1.9-5.4c-1.6,4.4-3.8,8.5-6.4,12.4c-0.6-1.9-1.2-3.8-1.7-5.8c0-0.2-0.2-0.6-0.2-0.8
		c2-3.3,3.6-6.7,5.9-9.9c0.4-0.6,1.1-1.8,1.5-2.3c0.4-0.3,1-1,1.4-1.3c0.6,1.5,1.4,2.9,2.3,4.2c0.7-2.8,0.2-5.6,0-8.4
		C137.7,101.7,138.2,99.8,138.6,97.8z"/>
	<path class="st18" d="M124.6,124.3l0.1-0.2c0.8,3.4,2,6.7,3.3,9.9c0,0.1,0,0.4-0.1,0.5c-0.4,0.7-0.9,1.4-1.3,2.1
		c-0.5-2.1-1.2-4.1-2-6c-0.6-1.5-1.1-3-1.6-4.5C123.4,125.8,124.2,124.8,124.6,124.3z"/>
</g>
<g id="_x23_f2c046ff">
	<path class="st19" d="M122.7,105.2l0.2-0.2c0.7,5.5,2,11,3.3,16.4c0,0.2,0.2,0.6,0.2,0.8c-0.4,0.5-1.2,1.5-1.6,2l-0.1,0.2
		c-1.6-5.7-2.9-11.4-3.9-17.2C121.2,106.6,122.2,105.6,122.7,105.2z"/>
</g>
<g id="_x23_e2dcfeff">
	<path class="st20" d="M142.5,113.9c-0.3-1.5,0.7-4.1,2.6-2.9c0,1.5-0.5,3.3-2.2,3.6L142.5,113.9z"/>
</g>
<g id="_x23_9561f7ff">
	<path class="st21" d="M141.4,116.4c0.4-0.8,0.8-1.7,1.1-2.5l0.4,0.7c0.3,0.7,1,2.1,1.4,2.8c0,0.5,0.1,1.5,0.1,2
		c-0.4,0.4-1.2,1.2-1.6,1.6c-0.4-1.3-0.7-2.6-1.1-3.8L141.4,116.4z"/>
</g>
<g id="_x23_bb59f0ff">
	<path class="st22" d="M145.5,115.7c0.4-0.7,1.3-2,1.7-2.7c2,8.5,4.2,16.9,7.2,25.1c-0.4,0.6-1.1,2-1.4,2.6
		C149.9,132.6,147.7,124.1,145.5,115.7z"/>
</g>
<g id="_x23_eee9feff">
	<path class="st23" d="M139.8,119c0-1.2,0.5-2.1,1.6-2.6l0.2,0.8C141.9,118.1,140.4,121.1,139.8,119z"/>
</g>
<g id="_x23_eccf98ff">
	<path class="st24" d="M116.5,117.9c1.5,6.2,3.7,12.2,5.8,18.2c-0.3,0.6-0.9,1.8-1.2,2.4c-0.7-1.4-1.3-2.8-1.9-4.2
		c-1.7-4.2-2.9-8.6-4.1-13C115.5,120.2,116,119.1,116.5,117.9z"/>
</g>
<g id="_x23_cb7eeeff">
	<path class="st25" d="M142.8,121.1c0.4-0.4,1.2-1.2,1.6-1.6c3.1,12.8,8,25.1,13.2,37.2c-0.4,0.5-1.2,1.4-1.6,1.9
		c-5.2-12.1-10.3-24.4-13.5-37.2L142.8,121.1z"/>
</g>
<g id="_x23_ede9fdff">
	<path class="st26" d="M133.8,119.9c0.2,1.4,0.4,2.8,0.5,4.1c-1.7,2.6-3.2,5.4-4.8,8.1l-0.3-0.9l-0.4-1.2
		C128.3,126.1,132.2,123.2,133.8,119.9z"/>
</g>
<g id="_x23_9076f8ff">
	<path class="st27" d="M138.4,121.6c1,0,2.1,0.1,2.8,0.9c0,0.4,0,1.3,0,1.7c-0.4,0.5-1.3,1.3-1.7,1.8c-0.3-1.2-0.6-2.5-0.9-3.7
		L138.4,121.6z"/>
</g>
<g id="_x23_efeafeff">
	<path class="st28" d="M137.9,124.2c-1.9,1.8-1.3-2.1-0.1-2.7l0.6,0.1l0.2,0.8C138.4,122.8,138.1,123.8,137.9,124.2z"/>
</g>
<g id="_x23_d2a03eff">
	<path class="st29" d="M124.7,124.1c0.4-0.5,1.2-1.5,1.6-2c0.5,1.9,1.1,3.9,1.7,5.8c0.2,0.7,0.5,1.4,0.8,2.1l0.4,1.2
		c-0.3,0.7-0.9,2.1-1.3,2.9C126.8,130.8,125.5,127.6,124.7,124.1z"/>
</g>
<g id="_x23_daa2edff">
	<path class="st30" d="M139.5,126c0.4-0.4,1.3-1.3,1.7-1.8c4.9,18.1,13.6,34.9,20.2,52.4c-0.3,0.5-0.8,1.4-1.1,1.9
		c-4.8-10.1-8.7-20.5-13.2-30.8c-3-7-5.4-14.3-7.8-21.6L139.5,126z"/>
</g>
<g id="_x23_e8e2f9ff">
	<path class="st31" d="M130.1,133.9c1.7-3.3,3.1-7.3,6.6-9.1c-0.3,0.9-0.8,2.8-1.1,3.8c-1.6,2.5-3.2,5-4.6,7.6
		c-0.2-0.3-0.5-0.8-0.7-1.1L130.1,133.9z"/>
</g>
<g id="_x23_9eb2f8ff">
	<path class="st32" d="M131.1,136.1c1.4-2.6,3-5.1,4.6-7.6c0.3,0.5,0.9,1.4,1.2,1.9c-0.2,0.3-0.4,0.8-0.6,1.1
		c-0.5,0.8-1,1.7-1.5,2.5c-0.5,0.8-1,1.6-1.5,2.4c-0.3,0.5-1,1.6-1.3,2.2c-0.5,0.9-1,1.8-1.4,2.7c-0.2,0.5-0.7,1.4-0.9,1.9
		c-0.3-0.5-0.8-1.6-1.1-2.2c0.5-1,0.9-2,1.3-3C130.3,137.6,130.8,136.6,131.1,136.1z"/>
</g>
<g id="_x23_e7c2f3ff">
	<path class="st33" d="M136.9,130.5l0.8-1.4c1.1,2.3,2.1,4.8,2.9,7.2c4.8,14.1,11.8,27.3,16.5,41.4c-0.1,0.5-0.4,1.5-0.6,1.9
		c-2.7-4.4-4.3-9.2-6.4-13.9c-4.8-11.3-9.6-22.6-13.8-34.2C136.5,131.3,136.8,130.8,136.9,130.5z"/>
</g>
<g id="_x23_d4b175ff">
	<path class="st34" d="M124.6,130.7c0.8,2,1.5,4,2,6c-0.2,0.4-0.7,1.2-1,1.5c-0.2-0.4-0.8-1.1-1-1.4c-0.4-1-0.9-2-1.2-3l-0.2-0.7
		C123.5,132.5,124.2,131.3,124.6,130.7z"/>
</g>
<g id="_x23_ac9466ff">
	<path class="st35" d="M129.2,131.2l0.3,0.9c0.1,0.4,0.4,1.3,0.5,1.7l0.3,1.2c-0.4,0.3-1.1,1-1.5,1.3c-0.2-0.4-0.7-1.3-1-1.7
		c0-0.1,0.1-0.4,0.1-0.5C128.3,133.4,128.9,131.9,129.2,131.2z"/>
</g>
<g id="_x23_e2f4feff">
	<path class="st36" d="M114.5,133.8c0.6,1.6,1.3,3.1,2,4.7c-0.1,0.5-0.4,1.4-0.5,1.9c-0.7-0.4-1.4-0.7-2.1-1c-0.3,0.7-0.6,1.3-0.9,2
		c-4,8.7-7.1,17.8-8.5,27.3c-2.5,16.6-0.4,33.5-1.9,50.2c1.5-1.6,3.1-3.4,3-5.8c0.3-8.3-0.1-16.7,0.1-25
		c-0.5-14.9,1.7-30.2,8.2-43.7c0.3,0.6,0.9,1.9,1.2,2.5c-4.1,10.9-7,22.5-7,34.2c-0.1,9.7,0,19.3,0,29c0.2,3.9-1.7,7.4-2.3,11.2
		l-0.1,0.5c-1.2-0.5-2.4-1.1-3.6-1.6c-0.6-1.1-1.3-2.2-1.9-3.4c1.7-4.4,1.2-9.2,1.2-13.8c0.1-14.6-0.8-29.5,3.1-43.8
		c1.8-7.3,4.5-14.2,7.7-21c0.2-0.5,0.7-1.4,0.9-1.8C113.4,135.8,114.2,134.5,114.5,133.8z"/>
</g>
<g id="_x23_c3d0f3ff">
	<path class="st37" d="M123.4,133.9c0.4,1,0.8,2,1.2,3c-1,0.6-1.6,1.6-1.7,2.9c-0.3,0.5-1,1.6-1.4,2.2c-0.2,0.3-0.7,1-0.9,1.4
		c-0.3-0.4-0.8-1.1-1.1-1.4c0.5-1.1,1-2.2,1.5-3.3c0.3-0.6,0.9-1.8,1.2-2.4C122.5,135.6,123.1,134.4,123.4,133.9z"/>
</g>
<g id="_x23_e9e5edff">
	<path class="st38" d="M117.6,135.2c0.4-0.2,1.1-0.6,1.5-0.8c0.6,1.4,1.3,2.8,1.9,4.2c-0.5,1.1-1,2.2-1.5,3.3
		c-0.2,0.5-0.6,1.6-0.8,2.2c-0.1,0.3-0.2,0.9-0.2,1.2c-0.6,1.4-1.2,2.9-1.8,4.4c-0.4-0.7-1.2-2.1-1.6-2.8c-0.3-0.6-0.9-1.9-1.2-2.5
		c-0.3-1-0.6-1.9-0.9-2.9c0.3-0.7,0.6-1.3,0.9-2c0.7,0.3,1.4,0.7,2.1,1c0.1-0.5,0.4-1.4,0.5-1.9
		C116.8,137.4,117.2,136.3,117.6,135.2z"/>
</g>
<g id="_x23_b6c5edff">
	<path class="st39" d="M126.6,136.7c0.4-0.7,0.9-1.4,1.3-2.1c0.2,0.4,0.7,1.3,1,1.7l-0.1,0.8c-0.7,0.9-1.4,1.9-1.8,3
		c-0.1,0.5-0.3,1.6-0.4,2.1c-0.4,0.3-1.1,0.8-1.5,1.1c-0.2-0.4-0.6-1.1-0.8-1.4c-0.2-0.5-0.5-1.4-0.7-1.8c0.5-0.4,1.5-1.3,2-1.7
		C125.9,137.9,126.3,137.1,126.6,136.7z"/>
</g>
<g id="_x23_e8b565ff">
	<path class="st40" d="M130.4,135c0.2,0.3,0.5,0.8,0.7,1.1c-0.3,0.5-0.9,1.4-1.1,1.9c-0.3-0.2-0.9-0.7-1.1-0.9l0.1-0.8
		C129.3,136,130,135.4,130.4,135z"/>
</g>
<g id="_x23_f3efeaff">
	<path class="st41" d="M124.6,136.9c0.2,0.3,0.8,1.1,1,1.4c-0.5,0.4-1.5,1.3-2,1.7l-0.7-0.3C123,138.4,123.6,137.5,124.6,136.9z"/>
</g>
<g id="_x23_e8e2deff">
	<path class="st42" d="M127.1,140.1c0.4-1.1,1.1-2.1,1.8-3c0.3,0.2,0.9,0.7,1.1,0.9c-0.4,1-0.8,2-1.3,3l-0.4,0
		C128,140.8,127.4,140.3,127.1,140.1z"/>
</g>
<g id="_x23_e5fdfdff">
	<path class="st43" d="M83.8,137.8l1.4,0c0.6,21.8,0.1,43.5,0.3,65.3c0.2,4.8-1.2,10.3,2,14.5c0.6,1.2,1.8,1.7,3.1,1.9
		c0.4,0.5,0.8,1,1.1,1.5c-0.4,0.9-0.9,1.8-1.4,2.7c-6.3,2.4-11-4.9-11.2-10.5c0-19.4-0.3-38.8,0.2-58.2c1.7,3.1,1.4,6.7,1.6,10.1
		c0.2,14,0,28,0.1,42c0,3.9-0.5,8.5,2.8,11.3c-0.5-18.8-0.1-37.6-0.2-56.3C83.8,153.9,83.3,145.9,83.8,137.8z"/>
</g>
<g id="_x23_a0f3e4ff">
	<path class="st44" d="M97.4,143c0-1.9,0.7-3.7,1.2-5.5c0.4,22.5,0.2,45,0.3,67.5c0.1,3.9-0.6,8.1,1.3,11.8c0.6,1.1,1.3,2.2,1.9,3.4
		l-0.5,0.5c-1.3-1.2-2.7-2.3-4-3.6c-1.5-4.9-0.8-10.1-0.9-15.1c0.1-11.6-0.2-23.2,0.2-34.8C97.6,159.1,97.2,151,97.4,143z"/>
</g>
<g id="_x23_c670deff">
	<path class="st45" d="M154.5,138.1c5.4,13.7,11.3,27.2,16.9,40.8c-0.4,0.6-1.1,1.8-1.4,2.4c-5.6-13.6-11.6-26.9-16.9-40.6
		C153.4,140,154.1,138.7,154.5,138.1z"/>
</g>
<g id="_x23_e8ab64ff">
	<path class="st46" d="M130.6,141.3c0.5-0.9,0.9-1.8,1.4-2.7c3.1,7.4,6.2,14.9,9.3,22.3c-0.3,0.7-1,2-1.4,2.7
		C136.9,156.2,133.9,148.7,130.6,141.3z"/>
</g>
<g id="_x23_eed1a3ff">
	<path class="st47" d="M121.6,141.9c0.3-0.5,1-1.6,1.4-2.2l0.7,0.3c0.2,0.5,0.5,1.4,0.7,1.8c-0.4,0.2-1.1,0.7-1.4,1
		C122.6,142.6,121.9,142.1,121.6,141.9z"/>
</g>
<g id="_x23_e7b364ff">
	<path class="st48" d="M127.1,140.1c0.3,0.2,0.9,0.7,1.2,0.9c-0.2,0.5-0.8,1.4-1,1.9l-0.5-0.7C126.8,141.7,127,140.6,127.1,140.1z"
		/>
</g>
<g id="_x23_9f9681ff">
	<path class="st49" d="M128.2,141l0.4,0c0.3,0.5,0.8,1.6,1.1,2.2l0,0.7c-0.3,0.5-0.8,1.4-1.1,1.9c-0.5-0.7-0.9-1.4-1.4-2.1l-0.1-0.9
		C127.5,142.4,128,141.5,128.2,141z"/>
</g>
<g id="_x23_bebdbcff">
	<path class="st50" d="M118.7,144c0.2-0.6,0.6-1.7,0.8-2.2c0.3,0.4,0.8,1.1,1.1,1.4l0.1,0.9c-0.3,0.4-1,1.3-1.3,1.8
		C119.3,145.5,118.9,144.5,118.7,144z"/>
</g>
<g id="_x23_eff1f6ff">
	<path class="st51" d="M120.7,143.3c0.2-0.4,0.7-1,0.9-1.4c0.3,0.2,1,0.7,1.3,0.9c0,0.5-0.1,1.5-0.2,2l-0.7,0.3
		c-0.3-0.2-0.9-0.7-1.2-1L120.7,143.3z"/>
</g>
<g id="_x23_b1a896ff">
	<path class="st52" d="M122.9,142.8c0.4-0.2,1.1-0.7,1.4-1c0.2,0.3,0.6,1.1,0.8,1.4l0.1,0.9c-0.3,0.5-0.9,1.4-1.2,1.9
		c-0.3-0.3-1-0.9-1.3-1.2C122.8,144.3,122.8,143.3,122.9,142.8z"/>
</g>
<g id="_x23_eaecf0ff">
	<path class="st53" d="M125.2,143.3c0.4-0.3,1.1-0.8,1.5-1.1l0.5,0.7l0.1,0.9c-0.2,0.5-0.8,1.6-1,2.2c-0.3-0.4-0.8-1.4-1-1.8
		L125.2,143.3z"/>
</g>
<g id="_x23_eddabcff">
	<path class="st54" d="M119.5,146c0.3-0.5,1-1.4,1.3-1.8c0.3,0.2,0.9,0.7,1.2,1c-0.1,0.5-0.2,1.4-0.2,1.9c-0.3,0.2-0.9,0.7-1.2,0.9
		C120.3,147.5,119.8,146.5,119.5,146z"/>
</g>
<g id="_x23_ebcb9dff">
	<path class="st55" d="M125.2,144.1c0.3,0.5,0.8,1.4,1,1.8l-0.1,0.9c-0.2,0.3-0.8,0.9-1,1.1c-0.3-0.2-0.8-0.8-1.1-1L124,146
		C124.3,145.6,124.9,144.6,125.2,144.1z"/>
</g>
<g id="_x23_a6bae0ff">
	<path class="st56" d="M127.3,143.7c0.4,0.7,0.9,1.4,1.4,2.1l-0.1,0.8c-0.3,0.6-0.8,1.8-1.1,2.4l-0.1-0.2c-0.3-0.5-0.9-1.5-1.2-2
		l0.1-0.9C126.5,145.4,127,144.3,127.3,143.7z"/>
</g>
<g id="_x23_ebb785ff">
	<path class="st57" d="M128.7,145.8c0.3-0.5,0.8-1.4,1.1-1.9c4.5,10.1,8.5,20.4,12.8,30.6c-0.4,0.5-1.2,1.5-1.6,1.9
		c-4.1-10-8.4-19.9-12.4-29.9L128.7,145.8z"/>
</g>
<g id="_x23_b4cbf4ff">
	<path class="st58" d="M122,145.1l0.7-0.3c0.3,0.3,1,0.9,1.3,1.2l0.1,0.9c-0.3,0.3-0.9,0.8-1.1,1.1c-0.3-0.2-0.9-0.7-1.2-1
		C121.8,146.6,122,145.6,122,145.1z"/>
</g>
<g id="_x23_88cfffff">
	<path class="st59" d="M116.7,149.6c0.6-1.5,1.2-2.9,1.8-4.4c0,2.2-0.3,4.4-1.2,6.4c-3.6,9.1-4.9,18.8-5.7,28.4c0,10.7,0,21.3,0,32
		c0.3,3.3-1.8,6.2-2.6,9.3c3.5-1.7,6-5.3,5.7-9.2c0.3-20.8-1.8-42.4,5.9-62.2c0.3,0.3,0.8,0.9,1.1,1.2l-0.1,0.8
		c-2.8,9.2-5,18.6-5.2,28.2c-0.1,10.7,0,21.4-0.1,32.1c0.1,3.3-1.9,6.1-3.1,9c3.2-1.4,5.4-4.6,5.7-8.1c0.9-17-1.4-34.3,2.2-51.1
		c0.6,0.8,1.1,1.6,1.7,2.3c0,0.2-0.1,0.8-0.2,1c-3,15.7-0.8,31.8-1.8,47.7c-0.2,4.1-2.7,8-6.4,9.8c-3-0.2-6-0.4-8.9-1.1l0.1-0.5
		c2-2,4.7-4.1,4.7-7.2c0.2-8.4,0-16.7,0.1-25.1C110.2,175.6,112,162.1,116.7,149.6z"/>
</g>
<g id="_x23_f9fcfeff">
	<path class="st60" d="M115.1,146.8c0.4,0.7,1.2,2.1,1.6,2.8c-4.7,12.5-6.5,26-6.1,39.4c-0.1,8.4,0.2,16.7-0.1,25.1
		c-0.1,3.1-2.7,5.2-4.7,7.2c0.6-3.8,2.5-7.3,2.3-11.2c0-9.7-0.1-19.3,0-29C108.1,169.2,111,157.7,115.1,146.8z"/>
</g>
<g id="_x23_abb4c2ff">
	<path class="st61" d="M120.6,148c0.3-0.2,0.9-0.7,1.2-0.9c0.3,0.2,0.9,0.7,1.2,1c0,0.5,0,1.5,0,2.1c-0.3,0.2-0.9,0.7-1.2,0.9
		c-0.3-0.3-0.8-0.9-1.1-1.2C120.6,149.3,120.6,148.4,120.6,148z"/>
</g>
<g id="_x23_f2eeebff">
	<path class="st62" d="M124.1,146.9c0.3,0.2,0.8,0.7,1.1,1c0,0.5,0,1.6,0,2.2c-0.3,0.2-0.9,0.7-1.1,1c-0.3-0.2-0.8-0.7-1.1-1
		c0-0.5,0-1.5,0-2.1C123.3,147.8,123.8,147.2,124.1,146.9z"/>
</g>
<g id="_x23_989d9cff">
	<path class="st63" d="M126.2,146.8c0.3,0.5,0.9,1.5,1.2,2c-0.3,0.6-0.8,1.7-1.1,2.3c-0.3-0.2-0.8-0.7-1.1-1c0-0.5,0-1.6,0-2.2
		C125.4,147.6,125.9,147.1,126.2,146.8z"/>
</g>
<g id="_x23_edc5aeff">
	<path class="st64" d="M127.4,148.8l0.1,0.2c7.1,16.8,14.2,33.6,20.9,50.6c-0.3,0.5-0.9,1.4-1.3,1.8c-7.2-16.4-14-32.9-20.7-49.5
		l-0.1-0.9C126.6,150.5,127.1,149.3,127.4,148.8z"/>
</g>
<g id="_x23_e4d2b9ff">
	<path class="st65" d="M121.8,151c0.3-0.2,0.9-0.7,1.2-0.9c0.3,0.2,0.9,0.7,1.1,1c0,0.5,0,1.4,0,1.9c-0.2,0.2-0.7,0.7-0.9,0.9
		c-0.4-0.5-1.2-1.6-1.5-2.1L121.8,151z"/>
</g>
<g id="_x23_a2c1efff">
	<path class="st66" d="M125.2,150.1c0.3,0.2,0.8,0.7,1.1,1l0.1,0.9c-0.2,0.7-0.7,2.1-1,2.8l-0.1,0.3c-0.3-0.5-0.9-1.5-1.2-2
		c0-0.5,0-1.4,0-1.9C124.4,150.8,124.9,150.3,125.2,150.1z"/>
</g>
<g id="_x23_97aabcff">
	<path class="st67" d="M124.1,152.9c0.3,0.5,0.9,1.5,1.2,2c-0.1,0.4-0.4,1.3-0.5,1.8c-0.7-0.6-1.3-1.3-1.8-2.1l0.2-0.8
		C123.4,153.6,123.9,153.1,124.1,152.9z"/>
</g>
<g id="_x23_9ec3eaff">
	<path class="st68" d="M123.1,154.6c0.5,0.8,1.1,1.5,1.8,2.1c-0.1,0.5-0.4,1.4-0.5,1.8c-0.2,0.8-0.6,2.3-0.8,3.1
		c-0.2,0.7-0.5,2-0.6,2.6c-0.6-0.8-1.1-1.6-1.7-2.3C121.8,159.5,122.5,157.1,123.1,154.6z"/>
</g>
<g id="_x23_f3d9caff">
	<path class="st69" d="M125.4,154.9l0.1-0.3c6.1,14.3,11.9,28.7,17.9,43c-0.4,0.5-1.2,1.6-1.6,2.1c-5.8-13.7-11.2-27.6-17.5-41.2
		c0.1-0.5,0.4-1.4,0.5-1.8C125,156.3,125.2,155.4,125.4,154.9z"/>
</g>
<g id="_x23_d28bdbff">
	<path class="st70" d="M157.6,156.6c5,11.7,9.9,23.5,14.8,35.3c-0.3,0.6-1,1.8-1.3,2.4c-5.1-11.9-10.1-23.9-15.1-35.8
		C156.4,158,157.2,157.1,157.6,156.6z"/>
</g>
<g id="_x23_e19d80ff">
	<path class="st71" d="M141.4,161c5.2,12.5,10.4,25,15.6,37.5c-0.3,0.6-1,1.9-1.3,2.6c-5.2-12.5-10.5-24.9-15.6-37.4
		C140.4,163,141,161.6,141.4,161z"/>
</g>
<g id="_x23_f4dfe7ff">
	<path class="st72" d="M122.9,164.3c0.2-0.7,0.5-2,0.6-2.6c8,17.9,15.1,36.1,22.7,54.1c0.7,1.8,2.1,3.2,3.6,4.5
		c-2.3-7-5.7-13.5-8.1-20.5c0.4-0.5,1.2-1.6,1.6-2.1c2.3,4.9,4.3,9.9,6.3,14.9c1.2,2.9,2.3,6.4,5.7,7.6c0.4,0.3,1.1,1,1.4,1.3
		c-1.3,0-2.6,0.1-3.8,0.1c1.1,0.7,2.1,1.3,3.2,1.9c-2.5,0.4-5.5,0.6-7.6-1.2c-2.5-2.3-3.8-5.6-5.2-8.7c-4.7-11.2-9.3-22.5-14.1-33.7
		c-2.1-4.9-3.7-10-6.5-14.6C122.8,165,122.9,164.5,122.9,164.3z"/>
</g>
<g id="_x23_abf8faff">
	<path class="st73" d="M88.3,171.1c0.4-0.3,1.1-1.1,1.5-1.4c-0.1,13.8,0,27.5,0,41.2c-0.2,4,1.8,7.7,5.1,9.8c-1.5-3.4-3-7-2.6-10.8
		c0.3-9.1-0.4-18.3,0.3-27.4l1.3-0.5c1.4,10.5,0,21.2,0.8,31.7c0.2,2.4,1.9,4.1,3.4,5.8c-0.1-0.6-0.3-1.9-0.4-2.5
		c1.3,1.2,2.6,2.4,4,3.6c-0.2,0.2-0.7,0.7-1,0.9c-1.2,0.2-2.4,0.3-3.7,0.4c1.1,0.6,2.2,1.1,3.3,1.7c-3.2,1-6.6,0.1-9.9-0.1
		c0.5-0.9,0.9-1.8,1.4-2.7c-0.4-0.5-0.8-1-1.1-1.5c-1.8-2-2.5-4.7-2.4-7.3C88.2,198.4,88.3,184.8,88.3,171.1z"/>
</g>
<g id="_x23_e5ac9bff">
	<path class="st74" d="M142.6,174.6c3.4,8,6.7,15.9,10,24c-0.4,0.5-1.2,1.5-1.5,1.9c-3.4-8-6.8-15.9-10-23.9
		C141.4,176,142.2,175,142.6,174.6z"/>
</g>
<g id="_x23_d78eb2ff">
	<path class="st75" d="M161.4,176.7c4.3,10.9,9.1,21.5,13.4,32.4c1.9,4.1-0.6,8.3-2.3,12c4.2-2,6.6-7.1,4.9-11.5
		c-1.9-5.2-4.2-10.2-6.3-15.2c0.3-0.6,1-1.8,1.3-2.4c2.3,5.9,5.1,11.5,7.2,17.5c1.3,4-0.4,7.9-2.1,11.4c3.3-2,5.5-5.9,4.7-9.8
		c-1-4-3.1-7.6-4.4-11.4c0.4-0.5,1.2-1.4,1.6-1.8c1.8,4,3.7,8,5,12.2c1.6,6.2-2.9,12.9-9.1,14c-3.6,0.4-7.2,0.2-10.8-0.1l-0.7-0.4
		l0.2-0.2c3.7-0.1,7.9,1.4,11.2-1c-2.6-0.7-5.3-1.2-8-1.5c0-0.2-0.1-0.6-0.1-0.8c2.3-3.4,3.7-7.7,1.9-11.7
		c-4.2-9.5-7.9-19.3-12.3-28.7c0.1-0.5,0.4-1.4,0.6-1.9c3.8,10.8,8.9,21.2,13,31.9c1,3.1,0.3,6.6-1.7,9.1c0.6,0.7,1.3,1.3,1.9,1.9
		c1.3-2.3,3.2-4.5,3.3-7.2c0.3-2.5-0.8-4.9-1.7-7.2c-4-9.2-7.7-18.4-11.6-27.6C160.6,178.1,161.1,177.2,161.4,176.7z"/>
</g>
<g id="_x23_cb79c9ff">
	<path class="st76" d="M171.4,178.9c2.6,6.3,5.4,12.5,7.9,18.9c-0.4,0.4-1.2,1.4-1.6,1.8c-2.6-6.1-5.1-12.1-7.7-18.2
		C170.3,180.7,171,179.5,171.4,178.9z"/>
</g>
<g id="_x23_d998aeff">
	<path class="st77" d="M152.5,198.5c2.5,5.8,4.8,11.8,7.4,17.6c0.8,2.2,2.8,3.7,4.7,4.9c-0.2,0.7-0.9,1.4-0.7,2.2l-0.2,0.2
		c-0.2,0.2-0.7,0.6-0.9,0.8c-2.2-0.5-4.4-0.6-6.6-0.8c-1.1-0.6-2.2-1.2-3.2-1.9c1.3-0.1,2.6-0.1,3.8-0.1c-0.4-0.3-1.1-1-1.4-1.3
		c-3.3-5.9-5.4-12.5-8.2-18.7c0.3-0.5,1-1.4,1.3-1.8c2.3,5.7,4.6,11.3,7,16.9c0.7,1.9,2.3,3.2,4,4.4c-2.8-6.8-5.7-13.6-8.5-20.4
		C151.4,200,152.1,199,152.5,198.5z"/>
</g>
<g id="_x23_ce7c8fff">
	<path class="st78" d="M155.6,201.1c0.3-0.6,1-1.9,1.3-2.6c2.4,5.7,4.7,11.5,7.2,17.2c0.4,0.8,0.9,1.6,1.5,2.4
		c0.3,0.5,1,1.4,1.4,1.9c0,0.2,0.1,0.6,0.1,0.8c2.7,0.3,5.4,0.8,8,1.5c-3.3,2.4-7.5,0.9-11.2,1c-0.2-0.8,0.5-1.5,0.7-2.2
		c0.1-0.2,0.2-0.6,0.3-0.7c-0.4-0.4-1.3-1.2-1.8-1.6C160.3,213,158.3,206.9,155.6,201.1z"/>
</g>
<g id="_x23_4aecf7ff">
	<path class="st79" d="M101.5,220.7l0.5-0.5c1.2,0.5,2.4,1.1,3.6,1.6c2.9,0.7,5.9,0.9,8.9,1.1c-4.6,1.6-9.5,1-14.3,0.9
		c-1.1-0.5-2.2-1.1-3.3-1.7c1.2-0.1,2.5-0.3,3.7-0.4C100.8,221.3,101.3,220.9,101.5,220.7z"/>
</g>
</svg>
