<?xml version="1.0" encoding="UTF-8" ?>
<!DOCTYPE svg PUBLIC "-//W3C//DTD SVG 1.1//EN" "http://www.w3.org/Graphics/SVG/1.1/DTD/svg11.dtd">
<svg width="237pt" height="250pt" viewBox="0 0 237 250" version="1.1" xmlns="http://www.w3.org/2000/svg">
<g id="#ffffffff">
<path fill="#ffffff" opacity="1.00" d=" M 0.00 0.00 L 237.00 0.00 L 237.00 250.00 L 0.00 250.00 L 0.00 0.00 M 44.59 31.44 C 22.09 49.27 6.73 75.85 2.58 104.26 C 2.20 107.31 1.72 110.35 1.49 113.41 C 1.46 114.13 1.41 115.56 1.38 116.28 C 1.00 124.38 1.48 132.50 2.65 140.52 C 5.51 157.50 11.97 173.91 21.87 188.03 C 37.01 209.98 60.06 226.37 85.79 233.34 C 87.65 233.92 89.57 234.31 91.48 234.72 L 91.66 235.18 C 91.91 235.16 92.42 235.13 92.67 235.12 C 98.32 236.21 104.02 237.43 109.81 237.21 C 125.91 238.62 142.28 236.05 157.45 230.57 C 181.45 221.97 202.09 204.96 215.76 183.51 C 218.53 179.05 221.19 174.44 222.79 169.41 C 225.19 165.72 226.42 161.41 227.73 157.25 L 227.97 157.02 C 229.07 153.14 230.12 149.24 231.11 145.33 C 232.28 138.34 232.80 131.28 233.20 124.21 C 233.25 123.75 233.36 122.83 233.42 122.36 C 233.22 118.63 233.28 114.89 232.90 111.18 L 232.60 110.99 C 232.13 100.05 228.93 89.46 225.26 79.22 C 225.04 78.69 224.62 77.64 224.41 77.11 C 223.91 76.10 223.41 75.09 222.91 74.08 C 215.61 57.26 203.84 42.42 189.43 31.13 L 189.26 30.70 C 188.15 29.95 187.14 28.99 185.89 28.47 C 184.47 27.38 183.01 26.33 181.56 25.28 C 180.53 24.69 179.53 24.03 178.44 23.55 C 159.75 11.47 137.19 5.74 115.01 6.22 C 89.59 6.45 64.39 15.54 44.59 31.44 Z" />
</g>
<g id="#162f8aff">
<path fill="#162f8a" opacity="1.00" d=" M 44.59 31.44 C 64.39 15.54 89.59 6.45 115.01 6.22 C 137.19 5.74 159.75 11.47 178.44 23.55 C 167.62 23.69 156.79 23.73 145.97 23.70 C 141.91 24.30 141.21 19.30 138.14 17.78 C 137.16 20.95 140.56 22.88 142.19 25.10 C 155.31 25.26 168.44 25.17 181.56 25.28 C 183.01 26.33 184.47 27.38 185.89 28.47 C 179.74 28.69 173.53 29.17 167.49 27.69 C 165.46 26.79 164.45 29.35 164.99 30.95 C 166.97 31.68 169.03 30.82 171.02 30.60 C 175.78 29.90 180.77 29.56 185.48 30.69 C 189.53 34.34 192.22 39.24 195.73 43.39 C 199.11 48.09 203.77 52.14 205.39 57.88 C 206.84 62.76 207.37 67.85 207.69 72.91 C 208.78 72.88 209.87 72.86 210.97 72.83 C 207.62 64.98 208.40 55.36 202.12 48.92 C 197.91 42.99 192.16 37.98 189.43 31.13 C 203.84 42.42 215.61 57.26 222.91 74.08 C 223.41 75.09 223.91 76.10 224.41 77.11 C 219.35 76.87 214.26 76.67 209.31 75.56 C 204.68 74.71 203.78 68.84 199.48 67.37 C 201.42 71.84 204.82 76.85 210.12 77.31 C 215.14 78.11 220.22 78.53 225.26 79.22 C 228.93 89.46 232.13 100.05 232.60 110.99 C 231.85 110.51 230.33 109.56 229.58 109.08 C 229.22 103.61 228.79 98.15 228.25 92.70 C 221.16 92.12 214.03 91.98 206.97 91.02 C 206.76 91.57 206.36 92.67 206.15 93.22 C 213.06 93.45 219.97 93.72 226.87 94.26 C 227.28 99.88 227.63 105.50 228.00 111.13 C 229.63 111.15 231.26 111.17 232.90 111.18 C 233.28 114.89 233.22 118.63 233.42 122.36 C 229.02 124.50 224.86 127.07 220.67 129.58 C 217.73 131.45 214.21 131.88 211.03 133.15 C 208.03 135.13 212.76 140.56 214.75 137.00 C 219.23 130.64 226.93 128.29 233.20 124.21 C 232.80 131.28 232.28 138.34 231.11 145.33 C 230.63 145.47 229.68 145.74 229.20 145.88 C 228.19 144.59 227.23 143.27 226.19 142.02 C 227.74 141.22 230.09 141.18 230.84 139.34 C 228.09 139.52 225.32 139.41 222.59 139.85 C 224.76 142.94 227.35 145.78 229.07 149.17 C 228.57 151.17 227.59 153.01 226.75 154.88 C 225.27 154.15 223.80 153.41 222.33 152.68 C 223.63 150.65 224.93 148.62 226.21 146.58 C 225.55 146.50 224.25 146.35 223.59 146.27 C 220.37 153.01 216.10 159.17 212.03 165.42 C 205.13 163.59 198.00 164.71 191.01 165.15 C 181.95 165.93 172.81 165.81 163.79 166.88 C 163.93 167.32 164.22 168.21 164.36 168.65 C 176.55 167.90 188.74 166.88 200.95 166.25 C 204.93 166.02 208.86 166.92 212.83 166.94 C 216.47 162.86 218.49 157.60 222.24 153.57 C 220.86 159.08 217.10 163.43 214.26 168.21 C 213.12 169.98 212.07 171.87 210.53 173.35 C 207.96 173.40 205.42 172.94 202.87 172.74 C 205.26 174.50 208.24 175.98 211.29 175.42 C 216.60 169.63 219.03 161.71 224.88 156.35 C 221.10 163.96 215.69 170.59 211.37 177.88 C 206.38 177.51 201.63 173.82 196.60 175.44 C 196.99 175.98 197.77 177.06 198.16 177.60 C 199.94 177.64 201.72 177.70 203.50 177.76 C 203.27 179.04 203.06 180.32 202.86 181.60 C 207.20 181.97 211.51 182.56 215.76 183.51 C 202.09 204.96 181.45 221.97 157.45 230.57 C 142.28 236.05 125.91 238.62 109.81 237.21 C 106.55 236.47 103.23 236.07 99.90 235.89 C 104.88 230.86 109.78 225.75 114.84 220.81 C 117.89 217.73 122.97 216.97 124.88 212.77 C 130.65 201.63 136.01 190.28 142.34 179.45 C 141.12 179.40 139.89 179.36 138.67 179.32 C 136.68 187.32 132.03 194.22 128.51 201.58 C 126.39 205.48 124.87 209.74 122.26 213.36 C 119.88 215.73 116.50 216.77 114.03 219.05 C 109.15 223.52 104.85 228.57 100.01 233.07 C 98.14 235.12 95.18 234.83 92.67 235.12 C 92.42 235.13 91.91 235.16 91.66 235.18 L 91.48 234.72 C 89.16 228.58 85.97 222.84 83.11 216.96 C 77.50 205.54 71.95 194.09 66.32 182.68 C 64.48 179.04 63.08 174.90 59.74 172.31 C 55.95 169.23 52.21 166.00 47.78 163.85 C 50.66 170.29 59.11 171.46 62.00 177.97 C 71.10 196.41 80.04 214.94 89.07 233.41 C 88.25 233.39 86.61 233.35 85.79 233.34 C 60.06 226.37 37.01 209.98 21.87 188.03 C 11.97 173.91 5.51 157.50 2.65 140.52 C 12.43 140.50 22.21 140.43 31.99 140.56 C 34.43 145.40 37.90 149.56 41.21 153.81 C 43.42 156.50 43.50 160.13 44.72 163.26 C 47.26 165.35 51.75 162.13 50.01 159.13 C 47.68 157.06 44.60 155.89 42.73 153.30 C 39.51 149.13 36.72 144.64 33.33 140.60 C 35.41 140.61 37.50 140.58 39.58 140.59 C 46.62 151.21 55.24 160.68 62.72 170.98 C 64.37 168.11 61.39 166.11 59.86 164.09 C 53.45 156.47 47.42 148.52 41.36 140.62 C 43.31 140.60 45.27 140.58 47.22 140.59 C 51.05 146.95 56.18 152.36 60.66 158.25 C 74.97 176.00 89.13 193.86 103.46 211.59 C 105.70 214.24 106.58 217.79 108.95 220.33 C 110.52 220.23 111.68 219.16 112.61 217.99 C 111.38 215.09 108.01 214.20 106.04 211.92 C 86.84 188.20 67.90 164.23 48.58 140.60 C 52.08 140.57 55.58 140.50 59.08 140.56 C 61.91 145.08 65.50 149.03 68.99 153.04 C 82.62 169.39 96.51 185.51 110.18 201.81 C 112.01 203.94 113.95 205.97 115.92 207.96 C 125.76 189.02 134.72 169.63 144.55 150.69 C 145.54 153.39 145.84 156.91 148.89 158.14 C 154.69 160.89 160.14 166.02 167.00 164.99 C 177.97 164.08 188.97 163.48 199.94 162.62 C 203.75 162.31 207.57 162.54 211.34 163.09 C 214.41 158.28 218.17 153.84 220.45 148.56 C 219.11 148.58 218.10 149.12 217.44 150.18 C 215.18 153.68 213.26 157.39 210.90 160.82 C 195.54 160.53 180.25 162.66 164.93 163.26 C 161.36 163.32 158.30 161.25 155.24 159.71 C 152.62 158.22 149.71 157.02 147.61 154.80 C 147.53 153.23 147.73 151.67 147.85 150.11 C 147.53 149.78 146.89 149.10 146.57 148.76 C 146.55 147.67 146.53 146.59 146.52 145.51 C 146.01 145.44 145.00 145.30 144.49 145.23 C 142.73 150.31 140.38 155.15 137.89 159.91 C 130.41 174.96 123.02 190.06 115.41 205.04 C 97.00 183.64 78.95 161.92 60.47 140.59 C 64.98 140.55 69.49 140.46 74.00 140.58 C 77.32 145.63 81.75 149.77 85.76 154.26 C 95.86 165.02 105.42 176.31 115.90 186.71 C 122.61 174.42 128.91 161.92 135.54 149.60 C 137.12 146.66 138.48 143.62 139.73 140.54 C 159.94 140.39 180.15 140.69 200.36 140.36 C 200.18 128.37 200.59 116.37 200.13 104.38 C 165.35 104.35 130.56 104.53 95.79 104.30 C 90.72 100.66 84.82 98.52 79.28 95.74 C 64.96 88.75 50.29 82.48 36.23 74.98 C 36.18 75.64 36.09 76.96 36.04 77.62 C 45.66 81.02 54.57 86.07 63.88 90.20 C 71.03 93.87 78.68 96.61 85.39 101.08 C 82.35 100.68 79.35 99.91 76.63 98.45 C 65.35 92.56 53.68 87.45 42.38 81.60 C 39.96 80.45 37.59 78.93 34.90 78.59 C 31.68 79.96 28.75 82.03 26.15 84.34 C 25.86 86.00 27.88 88.32 29.41 86.71 C 31.23 84.42 32.73 81.90 34.67 79.70 C 46.03 85.15 57.36 90.67 68.67 96.24 C 73.30 98.61 78.49 100.20 82.21 104.03 C 72.46 104.74 62.68 104.29 52.92 104.30 C 50.13 102.25 47.15 100.49 44.02 99.01 C 36.77 95.52 29.63 91.81 22.35 88.39 C 19.74 89.88 17.01 91.21 14.67 93.11 C 14.58 94.72 15.66 95.89 16.97 96.66 C 18.90 94.65 20.42 92.30 21.99 90.00 C 31.26 94.71 40.93 98.71 49.71 104.29 C 40.38 104.38 31.05 104.49 21.72 104.30 C 21.98 102.08 22.24 99.87 22.49 97.65 C 21.76 97.66 20.29 97.68 19.56 97.69 C 19.86 99.87 20.16 102.05 20.54 104.21 C 18.64 104.30 16.74 104.34 14.83 104.36 C 14.85 102.26 14.87 100.16 14.88 98.07 C 14.43 98.08 13.52 98.12 13.06 98.13 C 13.12 100.21 13.18 102.29 13.30 104.37 C 9.73 104.38 6.15 104.37 2.58 104.26 C 6.73 75.85 22.09 49.27 44.59 31.44 M 89.69 18.79 C 83.08 22.48 76.77 26.75 69.86 29.88 C 67.99 30.25 69.65 32.13 70.25 32.87 C 76.67 27.04 84.91 23.82 92.12 19.11 C 95.20 17.37 98.26 14.97 102.01 15.20 C 114.69 15.28 127.38 15.13 140.06 15.25 C 144.59 14.46 143.34 23.53 147.93 20.88 C 147.33 17.95 144.45 16.27 142.71 14.04 C 129.12 13.64 115.53 14.17 101.93 13.78 C 97.23 13.39 93.55 16.68 89.69 18.79 M 97.97 20.03 C 95.62 20.07 93.62 21.42 91.70 22.60 C 85.75 26.44 79.60 29.93 73.63 33.71 C 73.22 36.10 71.97 38.62 73.05 41.00 C 76.33 41.00 74.50 37.04 74.98 35.03 C 78.86 31.72 83.62 29.64 87.84 26.79 C 91.69 24.62 95.29 21.23 99.99 21.31 C 108.31 20.99 116.65 21.14 124.98 20.79 C 127.80 20.56 131.13 21.39 133.42 19.26 C 127.95 18.69 122.47 19.43 117.00 19.49 C 110.66 19.58 104.30 19.58 97.97 20.03 M 96.59 23.88 C 90.42 26.65 84.86 30.66 78.96 33.97 C 78.69 36.11 78.48 38.26 78.27 40.41 C 81.30 40.33 80.12 37.19 80.50 35.20 C 83.03 32.64 86.53 31.36 89.51 29.42 C 92.52 27.78 95.34 25.23 98.95 25.20 C 112.08 24.74 125.21 24.75 138.35 24.60 C 137.97 23.44 137.23 22.89 136.12 22.94 C 122.95 23.12 109.73 23.11 96.59 23.88 M 98.06 27.89 C 93.70 28.97 90.13 32.00 86.33 34.27 C 82.59 36.15 84.98 41.52 81.78 43.95 C 76.94 43.79 72.53 41.69 68.15 39.84 C 68.72 38.30 69.29 36.75 69.86 35.20 C 69.42 34.93 68.55 34.38 68.11 34.11 C 67.48 36.33 66.84 38.56 66.21 40.78 C 70.89 43.20 77.05 43.46 80.24 48.12 C 75.76 47.01 71.65 44.84 67.18 43.73 C 68.56 46.04 71.28 46.64 73.61 47.55 C 77.92 49.06 81.96 51.30 86.45 52.27 C 85.47 50.04 83.05 49.51 81.01 48.71 C 82.16 46.38 83.04 43.56 85.95 43.00 C 86.02 40.45 84.17 36.68 87.39 35.40 C 91.97 32.80 96.25 28.56 101.93 29.16 C 121.95 28.95 141.96 28.14 161.98 27.93 C 161.67 27.53 161.06 26.72 160.75 26.32 C 139.88 27.06 118.94 27.13 98.06 27.89 M 150.97 31.00 C 135.02 31.59 119.05 31.82 103.08 31.89 C 97.67 31.59 92.90 34.69 88.87 37.94 C 87.83 42.35 88.51 47.12 87.96 51.66 C 88.47 51.45 89.51 51.03 90.02 50.82 C 90.31 46.87 89.50 42.90 90.13 38.97 C 93.96 35.70 98.74 32.88 103.98 33.31 C 121.52 33.57 139.06 32.53 156.59 33.13 C 156.37 29.84 153.15 30.90 150.97 31.00 M 155.06 34.15 C 156.14 35.14 157.48 35.76 158.97 35.61 C 165.67 35.71 172.38 35.33 179.08 35.63 C 180.80 35.51 181.80 37.10 182.83 38.20 C 187.11 43.54 191.28 48.97 195.74 54.17 C 197.75 56.41 198.86 59.22 200.39 61.77 C 202.15 62.16 204.89 59.96 202.48 58.67 C 196.96 54.44 193.30 48.43 188.79 43.23 C 186.16 40.26 184.17 36.61 180.95 34.23 C 172.35 33.66 163.68 33.96 155.06 34.15 M 142.08 37.55 C 130.72 38.24 119.32 37.83 107.95 38.40 C 104.53 38.53 101.10 38.34 97.68 38.26 C 97.90 38.68 98.35 39.51 98.57 39.93 C 114.98 40.21 131.47 38.33 147.85 39.83 C 148.15 38.58 147.69 37.40 147.26 36.25 C 145.55 36.76 143.86 37.37 142.08 37.55 M 150.14 38.30 C 149.86 38.70 149.29 39.51 149.00 39.92 C 158.93 40.26 168.86 39.85 178.79 40.14 C 185.14 48.80 192.88 56.52 198.03 66.01 C 199.19 66.64 201.66 64.75 200.34 63.54 C 198.38 61.52 196.05 59.84 194.38 57.54 C 189.53 51.09 184.51 44.78 179.45 38.50 C 169.68 38.39 159.91 38.68 150.14 38.30 M 96.15 44.38 C 95.79 49.50 95.71 54.64 95.12 59.74 C 95.70 59.51 96.84 59.04 97.41 58.80 C 97.55 54.58 97.11 50.36 97.34 46.13 C 106.21 45.90 115.08 46.04 123.95 45.97 C 128.91 45.46 132.15 49.77 135.99 52.09 C 139.15 54.47 143.33 53.56 147.00 53.76 C 155.93 53.95 164.86 54.09 173.78 54.23 C 183.96 66.34 194.79 77.92 204.53 90.39 C 204.91 89.72 205.26 89.04 205.58 88.35 C 195.91 77.70 186.67 66.65 177.25 55.77 C 175.86 54.24 174.30 52.38 171.99 52.63 C 161.65 52.62 151.31 52.28 140.97 52.06 C 134.71 51.81 131.44 44.25 125.05 44.37 C 115.42 44.33 105.78 44.40 96.15 44.38 M 65.45 46.61 C 65.67 47.20 66.10 48.37 66.32 48.95 C 71.43 51.26 77.05 52.48 81.91 55.38 C 82.78 56.67 83.02 58.27 83.63 59.68 C 76.61 57.33 69.87 54.25 63.00 51.50 C 59.84 54.49 56.34 57.15 53.51 60.47 C 53.49 60.70 53.45 61.17 53.43 61.40 C 63.39 66.15 73.95 69.56 84.06 73.99 C 89.18 76.36 94.95 77.45 99.47 80.98 C 94.96 80.10 90.80 78.12 86.59 76.39 C 74.99 71.66 63.37 66.98 51.78 62.24 C 49.53 63.94 46.53 65.46 46.45 68.71 C 48.23 67.39 49.81 65.83 51.59 64.52 C 52.89 64.24 54.16 64.98 55.37 65.34 C 66.50 69.97 77.69 74.43 88.85 78.98 C 92.80 80.32 96.39 82.45 100.05 84.42 C 100.73 83.47 101.29 82.45 101.74 81.37 C 102.87 81.89 103.98 82.44 105.15 82.87 C 106.63 82.68 106.32 81.00 106.68 79.96 C 107.84 80.62 109.01 81.27 110.19 81.92 C 110.33 81.11 110.43 80.30 110.51 79.49 C 95.11 74.00 80.11 67.42 64.86 61.51 C 65.57 60.24 66.27 58.96 66.99 57.70 C 75.84 60.79 84.46 64.51 93.29 67.69 C 96.18 68.65 98.59 70.54 101.10 72.18 C 102.17 71.56 103.34 70.65 102.64 69.28 C 101.27 67.87 99.00 68.29 97.24 67.80 C 97.34 66.97 97.45 66.15 97.55 65.33 C 93.36 63.88 89.25 62.20 85.16 60.50 C 86.82 59.26 89.54 58.46 89.31 55.90 C 88.96 54.47 87.72 52.95 86.09 53.21 C 78.58 53.94 72.35 48.68 65.45 46.61 M 101.43 51.19 C 101.07 55.49 101.14 59.81 100.96 64.11 C 100.28 65.89 103.43 66.65 103.31 64.64 C 103.05 60.42 102.43 56.21 102.79 51.97 C 110.17 52.03 117.60 51.50 124.95 52.18 C 129.86 54.57 133.36 59.14 138.27 61.54 C 148.99 62.64 159.93 60.99 170.61 62.31 C 181.20 74.10 191.17 86.49 201.50 98.53 C 203.72 100.86 204.11 105.38 208.14 105.18 C 207.98 104.03 209.11 102.23 207.63 101.57 C 205.52 99.98 203.36 98.39 201.70 96.29 C 193.38 86.29 184.83 76.47 176.49 66.48 C 174.66 64.41 173.15 61.88 170.72 60.47 C 160.18 59.67 149.53 60.79 138.99 60.03 C 133.97 57.77 130.54 53.04 125.60 50.64 C 119.46 49.77 113.21 50.55 107.02 50.24 C 105.19 50.46 102.89 49.77 101.43 51.19 M 109.96 56.91 C 109.66 61.26 109.93 65.62 109.72 69.97 C 109.64 72.38 107.83 74.43 107.99 76.84 C 109.35 79.49 113.81 78.15 113.43 75.36 C 110.02 70.30 111.66 64.03 111.34 58.34 C 115.11 58.32 118.94 57.84 122.66 58.57 C 127.97 61.61 132.29 66.11 137.45 69.39 C 138.78 70.29 140.44 70.21 141.97 70.28 C 150.22 70.31 158.47 70.06 166.71 70.26 C 174.23 80.07 181.65 89.95 189.05 99.85 C 176.04 100.00 163.03 99.86 150.02 100.02 C 134.65 99.79 119.28 100.52 103.93 99.87 C 103.90 100.41 103.84 101.49 103.81 102.03 C 133.16 101.19 162.55 102.22 191.90 101.38 C 189.93 98.03 187.56 94.94 185.17 91.88 C 179.26 84.40 173.87 76.48 167.70 69.24 C 158.34 67.90 148.72 69.55 139.32 68.50 C 133.60 65.54 129.24 60.49 123.61 57.38 C 119.18 56.22 114.49 57.01 109.96 56.91 M 43.85 67.97 C 44.03 68.45 44.39 69.43 44.57 69.92 C 49.63 72.42 55.13 74.06 60.29 76.41 C 60.89 77.60 61.42 78.84 62.17 79.96 C 63.93 81.95 67.51 80.48 67.84 77.99 C 68.25 76.15 66.44 75.02 65.45 73.78 C 63.55 74.14 61.56 75.09 59.64 74.36 C 54.24 72.59 49.21 69.86 43.85 67.97 M 154.44 79.44 C 152.87 81.49 153.23 84.60 154.24 86.83 C 155.86 88.52 158.55 87.98 160.66 88.47 C 160.65 89.91 160.64 91.36 160.63 92.81 C 159.37 92.76 158.11 92.72 156.86 92.68 C 155.84 91.77 155.65 88.93 153.77 89.87 C 153.66 91.54 153.26 93.90 155.16 94.77 C 157.32 95.51 159.61 95.77 161.87 96.12 C 164.04 95.74 166.22 95.45 168.42 95.22 C 170.11 93.03 171.21 89.95 169.54 87.42 C 168.16 85.33 165.33 85.87 163.20 85.41 C 163.19 83.85 163.19 82.28 163.19 80.73 C 166.14 80.36 167.78 82.94 170.28 83.61 C 171.52 78.26 165.50 78.07 161.94 77.33 C 159.44 77.98 156.68 78.07 154.44 79.44 M 116.05 79.08 C 114.81 81.25 114.68 84.09 115.60 86.40 C 116.94 88.59 119.97 87.90 122.12 88.43 C 122.10 89.93 122.09 91.43 122.08 92.93 C 120.97 92.87 119.86 92.79 118.76 92.69 C 117.71 91.44 116.66 90.19 115.52 89.03 C 115.51 90.97 114.68 94.00 117.13 94.91 C 121.24 96.19 125.77 96.17 129.87 94.89 C 132.22 93.70 132.14 90.46 131.66 88.25 C 130.76 85.21 127.01 85.85 124.58 85.32 C 124.55 83.93 124.52 82.55 124.49 81.16 C 125.85 81.16 127.20 81.15 128.57 81.17 C 129.62 82.19 130.65 83.23 131.66 84.31 C 131.20 82.65 132.40 79.17 129.82 78.78 C 125.35 77.33 120.46 77.54 116.05 79.08 M 135.25 79.33 C 133.94 81.23 134.01 83.76 134.58 85.91 C 135.30 88.80 138.97 87.77 141.17 88.39 C 141.19 89.90 141.22 91.41 141.24 92.92 C 139.97 92.87 138.71 92.83 137.44 92.79 C 136.89 91.56 136.33 90.35 135.76 89.14 C 134.90 90.12 133.84 91.27 134.47 92.68 C 135.47 96.21 139.98 95.33 142.79 96.20 C 145.07 95.73 147.43 95.49 149.59 94.56 C 151.48 93.10 151.13 90.26 150.68 88.20 C 149.85 85.37 146.45 85.84 144.17 85.41 C 144.12 83.91 144.07 82.40 144.02 80.90 C 145.16 80.99 146.30 81.08 147.44 81.19 C 148.54 82.21 149.67 83.21 150.83 84.18 C 150.33 82.55 151.44 79.21 148.92 78.84 C 144.52 77.36 139.48 77.27 135.25 79.33 M 208.02 95.26 C 205.81 95.80 206.46 99.52 208.78 98.85 C 213.25 98.10 217.78 98.36 222.27 98.89 C 222.61 106.19 223.61 113.47 223.62 120.78 C 218.67 124.88 212.70 127.65 207.26 131.09 C 206.84 123.30 207.56 115.48 207.15 107.70 C 206.70 107.83 205.80 108.09 205.35 108.21 C 205.68 116.60 205.05 125.04 205.82 133.40 C 212.74 130.41 218.89 125.88 225.41 122.13 C 225.22 113.84 224.48 105.58 223.69 97.34 C 218.42 97.04 213.10 96.84 208.02 95.26 M 211.46 101.24 C 212.98 103.74 216.26 102.69 218.68 103.12 C 218.86 108.41 219.71 113.70 219.46 119.00 C 216.75 122.06 212.40 122.86 209.19 125.29 C 209.16 125.75 209.10 126.65 209.07 127.10 C 213.55 125.55 217.32 122.49 221.48 120.26 C 220.80 114.00 221.18 107.58 219.72 101.44 C 216.98 101.00 214.21 101.10 211.46 101.24 M 209.22 105.92 C 208.99 106.42 208.54 107.41 208.32 107.91 C 210.78 107.92 213.25 107.88 215.71 107.88 C 215.91 111.19 216.42 114.53 215.97 117.84 C 214.33 119.32 210.40 119.22 210.94 122.13 C 213.65 122.27 215.70 120.01 217.96 118.82 C 217.86 114.61 217.61 110.39 216.94 106.23 C 214.37 106.07 211.79 105.75 209.22 105.92 M 151.92 141.98 C 151.73 142.27 151.34 142.85 151.15 143.14 C 151.08 146.09 153.75 144.98 155.61 144.49 C 155.63 147.34 156.38 150.10 157.26 152.79 C 160.29 154.41 163.35 156.64 166.98 156.27 C 178.66 155.67 190.34 155.04 202.01 154.32 C 205.21 154.10 208.39 154.62 211.59 154.60 C 214.15 150.97 215.94 146.85 217.69 142.78 C 201.14 142.38 184.57 142.75 168.02 142.62 C 162.64 142.82 157.27 142.56 151.92 141.98 M 152.15 149.16 C 151.55 151.15 152.31 153.22 152.53 155.22 C 155.73 156.77 158.80 158.58 162.00 160.12 C 165.38 161.91 169.29 160.73 172.91 160.61 C 183.27 160.04 193.63 159.27 203.98 158.59 C 206.17 158.39 208.17 159.43 210.18 160.12 C 210.39 159.57 210.81 158.46 211.02 157.90 C 208.38 157.28 205.69 156.64 202.96 156.90 C 191.32 157.82 179.65 158.34 168.01 159.26 C 162.82 159.82 158.59 156.17 154.21 153.99 C 154.16 152.02 155.31 148.78 152.15 149.16 M 147.14 159.30 C 146.78 159.43 146.06 159.70 145.69 159.83 L 145.60 160.95 C 149.54 164.23 155.95 164.79 158.11 170.13 C 152.66 167.43 147.76 163.82 142.98 160.09 C 141.32 160.40 140.97 161.25 141.93 162.65 C 145.80 164.87 149.79 166.89 153.37 169.60 C 157.55 172.76 162.79 174.44 168.04 174.04 C 178.92 173.31 189.79 172.33 200.66 171.39 C 203.54 171.05 206.33 171.89 209.12 172.46 C 211.98 172.08 211.81 168.01 209.06 167.51 C 206.40 168.40 203.84 169.75 200.97 169.77 C 190.26 170.51 179.57 171.33 168.88 172.26 C 166.05 172.53 163.19 172.25 160.48 171.42 C 161.05 170.23 161.61 169.02 162.17 167.82 C 162.15 165.63 159.61 166.03 158.15 165.45 C 153.88 164.63 150.86 161.26 147.14 159.30 M 142.72 175.41 C 145.56 176.29 148.87 175.70 151.33 177.73 C 155.36 180.51 159.98 182.70 164.99 182.64 C 173.69 182.51 182.28 180.76 190.96 180.31 C 193.10 179.97 196.33 180.80 196.67 177.77 C 186.81 178.87 176.94 179.90 167.07 180.82 C 160.82 181.42 154.96 178.48 150.05 174.91 C 147.85 173.39 148.20 169.19 144.99 169.20 C 141.59 168.67 140.07 173.66 142.72 175.41 M 64.10 173.84 C 75.10 192.18 85.39 210.93 96.30 229.33 C 98.92 227.44 101.30 225.26 103.52 222.92 C 96.51 211.54 89.05 200.44 81.70 189.28 C 80.34 187.20 79.51 184.85 78.74 182.51 C 78.00 182.64 76.51 182.90 75.76 183.03 C 75.51 185.79 78.43 187.21 79.69 189.34 C 86.33 199.36 92.72 209.56 99.38 219.58 C 99.90 220.58 100.76 221.55 100.74 222.75 C 99.64 224.16 98.28 225.33 96.98 226.56 C 85.88 208.20 75.36 189.48 64.70 170.86 C 64.09 171.78 63.01 172.80 64.10 173.84 Z" />
<path fill="#162f8a" opacity="1.00" d=" M 55.57 60.74 C 57.96 57.92 60.81 55.51 64.06 53.73 C 62.30 55.91 60.36 57.93 58.70 60.20 C 60.49 61.68 62.72 62.43 64.85 63.28 C 76.32 67.68 87.66 72.39 99.11 76.85 C 101.36 77.74 103.54 78.78 105.63 80.00 C 103.51 79.72 101.37 79.35 99.38 78.52 C 84.85 72.42 70.12 66.80 55.57 60.74 Z" />
<path fill="#162f8a" opacity="1.00" d=" M 60.94 59.88 C 62.64 58.12 64.36 56.37 66.06 54.60 C 69.60 55.83 73.13 57.14 76.34 59.09 C 73.18 58.28 70.19 56.89 67.00 56.17 C 65.16 57.06 64.29 59.11 63.05 60.64 C 62.35 60.39 61.64 60.14 60.94 59.88 Z" />
<path fill="#162f8a" opacity="1.00" d=" M 64.17 76.23 C 65.76 75.76 66.44 78.40 64.81 78.72 C 63.21 79.21 62.52 76.55 64.17 76.23 Z" />
<path fill="#162f8a" opacity="1.00" d=" M 117.43 81.17 C 119.01 81.01 120.58 80.85 122.16 80.69 C 122.22 82.31 122.27 83.92 122.34 85.54 C 120.89 85.59 119.45 85.64 118.01 85.69 C 117.82 84.19 117.62 82.68 117.43 81.17 Z" />
<path fill="#162f8a" opacity="1.00" d=" M 136.42 81.22 C 138.18 81.20 139.94 81.19 141.71 81.19 C 141.45 82.80 141.20 84.42 140.94 86.04 C 139.65 85.71 138.26 85.66 137.08 85.04 C 136.77 83.78 136.62 82.49 136.42 81.22 Z" />
<path fill="#162f8a" opacity="1.00" d=" M 156.05 81.02 C 157.59 81.04 159.14 81.06 160.68 81.09 C 160.65 82.60 160.62 84.11 160.59 85.63 C 159.13 85.63 157.67 85.62 156.21 85.62 C 156.16 84.09 156.10 82.56 156.05 81.02 Z" />
<path fill="#162f8a" opacity="1.00" d=" M 124.64 88.32 C 126.10 88.25 127.55 88.18 129.01 88.12 C 129.01 89.69 129.01 91.27 129.00 92.85 C 127.51 92.79 126.02 92.72 124.54 92.66 C 124.57 91.21 124.61 89.77 124.64 88.32 Z" />
<path fill="#162f8a" opacity="1.00" d=" M 144.10 88.09 C 145.51 88.17 146.92 88.26 148.33 88.35 C 148.34 89.77 148.34 91.20 148.35 92.63 C 146.93 92.73 145.52 92.83 144.11 92.94 C 144.10 91.32 144.10 89.70 144.10 88.09 Z" />
<path fill="#162f8a" opacity="1.00" d=" M 163.17 88.13 C 164.63 88.20 166.09 88.28 167.55 88.36 C 167.58 89.79 167.61 91.23 167.64 92.66 C 166.15 92.73 164.66 92.80 163.17 92.87 C 163.16 91.29 163.16 89.71 163.17 88.13 Z" />
<path fill="#162f8a" opacity="1.00" d=" M 212.28 134.22 C 213.91 133.69 214.47 134.23 213.96 135.86 C 212.33 136.39 211.77 135.84 212.28 134.22 Z" />
<path fill="#162f8a" opacity="1.00" d=" M 75.47 140.62 C 96.46 140.38 117.45 140.52 138.44 140.56 C 130.43 154.78 123.51 169.59 115.29 183.69 C 101.88 169.46 88.85 154.87 75.47 140.62 M 82.79 141.88 C 82.78 142.44 82.77 143.57 82.76 144.13 C 99.13 143.59 115.54 143.76 131.92 144.00 C 126.35 154.26 121.09 164.69 115.39 174.88 C 109.97 169.20 104.69 163.38 99.21 157.75 C 96.84 155.59 97.41 152.13 96.98 149.27 C 93.19 149.21 89.41 149.06 85.63 148.79 C 85.66 149.40 85.72 150.63 85.75 151.24 C 89.15 150.90 92.58 150.81 95.99 151.02 C 95.40 153.88 94.86 156.75 94.53 159.65 C 96.76 160.12 99.26 160.32 100.90 162.10 C 106.07 167.11 110.42 172.93 115.96 177.57 C 119.79 170.78 123.32 163.83 126.98 156.95 C 129.37 152.03 132.48 147.46 134.28 142.26 C 117.12 141.79 99.94 142.46 82.79 141.88 M 87.65 144.77 C 87.65 145.39 87.65 146.63 87.65 147.25 C 99.84 146.91 112.03 147.15 124.22 147.12 C 121.36 153.21 118.52 159.38 114.68 164.93 C 109.57 159.67 104.27 154.60 99.11 149.38 C 98.88 149.95 98.41 151.10 98.17 151.67 C 104.30 156.55 109.48 162.46 115.28 167.70 C 118.55 162.91 120.75 157.52 123.61 152.49 C 124.81 150.28 126.14 148.07 126.65 145.58 C 113.68 144.59 100.61 146.01 87.65 144.77 Z" />
<path fill="#162f8a" opacity="1.00" d=" M 158.63 144.21 C 177.44 144.49 196.26 144.23 215.07 144.37 C 213.82 147.21 212.43 149.99 210.91 152.69 C 202.26 152.07 193.63 153.24 185.00 153.54 C 179.01 153.74 173.04 154.20 167.07 154.56 C 163.87 154.84 160.90 153.21 158.52 151.23 C 158.84 148.86 159.98 146.49 158.63 144.21 M 161.09 146.65 C 164.58 147.91 168.19 149.13 171.97 148.95 C 184.25 148.62 196.53 147.97 208.82 148.08 L 208.87 148.79 C 194.77 148.90 180.71 150.13 166.62 150.46 C 164.22 150.44 162.18 147.90 159.77 148.88 C 160.87 152.06 165.15 152.02 167.96 152.19 C 181.29 151.34 194.68 151.25 208.01 150.34 C 210.65 150.68 210.98 147.87 211.62 146.04 C 198.07 146.20 184.53 146.96 170.98 147.40 C 167.68 147.56 164.72 145.78 161.80 144.51 C 161.62 145.04 161.27 146.11 161.09 146.65 Z" />
<path fill="#162f8a" opacity="1.00" d=" M 212.18 179.19 C 218.10 172.43 221.24 163.53 227.73 157.25 C 226.42 161.41 225.19 165.72 222.79 169.41 C 219.60 173.09 217.34 177.51 213.94 180.99 C 210.96 181.23 208.12 180.07 205.32 179.25 C 207.60 179.24 209.92 179.60 212.18 179.19 Z" />
<path fill="#162f8a" opacity="1.00" d=" M 144.16 171.48 C 145.49 170.43 146.96 172.76 145.67 173.68 C 144.33 174.73 142.86 172.39 144.16 171.48 Z" />
</g>
<g id="#3a70a7ff">
<path fill="#3a70a7" opacity="1.00" d=" M 89.69 18.79 C 93.55 16.68 97.23 13.39 101.93 13.78 C 115.53 14.17 129.12 13.64 142.71 14.04 C 144.45 16.27 147.33 17.95 147.93 20.88 C 143.34 23.53 144.59 14.46 140.06 15.25 C 127.38 15.13 114.69 15.28 102.01 15.20 C 98.26 14.97 95.20 17.37 92.12 19.11 C 84.91 23.82 76.67 27.04 70.25 32.87 C 69.65 32.13 67.99 30.25 69.86 29.88 C 76.77 26.75 83.08 22.48 89.69 18.79 Z" />
<path fill="#3a70a7" opacity="1.00" d=" M 138.14 17.78 C 141.21 19.30 141.91 24.30 145.97 23.70 C 156.79 23.73 167.62 23.69 178.44 23.55 C 179.53 24.03 180.53 24.69 181.56 25.28 C 168.44 25.17 155.31 25.26 142.19 25.10 C 140.56 22.88 137.16 20.95 138.14 17.78 Z" />
<path fill="#3a70a7" opacity="1.00" d=" M 97.97 20.03 C 104.30 19.58 110.66 19.58 117.00 19.49 C 122.47 19.43 127.95 18.69 133.42 19.26 C 131.13 21.39 127.80 20.56 124.98 20.79 C 116.65 21.14 108.31 20.99 99.99 21.31 C 95.29 21.23 91.69 24.62 87.84 26.79 C 83.62 29.64 78.86 31.72 74.98 35.03 C 74.50 37.04 76.33 41.00 73.05 41.00 C 71.97 38.62 73.22 36.10 73.63 33.71 C 79.60 29.93 85.75 26.44 91.70 22.60 C 93.62 21.42 95.62 20.07 97.97 20.03 Z" />
<path fill="#3a70a7" opacity="1.00" d=" M 96.59 23.88 C 109.73 23.11 122.95 23.12 136.12 22.94 C 137.23 22.89 137.97 23.44 138.35 24.60 C 125.21 24.75 112.08 24.74 98.95 25.20 C 95.34 25.23 92.52 27.78 89.51 29.42 C 86.53 31.36 83.03 32.64 80.50 35.20 C 80.12 37.19 81.30 40.33 78.27 40.41 C 78.48 38.26 78.69 36.11 78.96 33.97 C 84.86 30.66 90.42 26.65 96.59 23.88 Z" />
<path fill="#3a70a7" opacity="1.00" d=" M 98.06 27.89 C 118.94 27.13 139.88 27.06 160.75 26.32 C 161.06 26.72 161.67 27.53 161.98 27.93 C 141.96 28.14 121.95 28.95 101.93 29.16 C 96.25 28.56 91.97 32.80 87.39 35.40 C 84.17 36.68 86.02 40.45 85.95 43.00 C 83.04 43.56 82.16 46.38 81.01 48.71 C 83.05 49.51 85.47 50.04 86.45 52.27 C 81.96 51.30 77.92 49.06 73.61 47.55 C 71.28 46.64 68.56 46.04 67.18 43.73 C 71.65 44.84 75.76 47.01 80.24 48.12 C 77.05 43.46 70.89 43.20 66.21 40.78 C 66.84 38.56 67.48 36.33 68.11 34.11 C 68.55 34.38 69.42 34.93 69.86 35.20 C 69.29 36.75 68.72 38.30 68.15 39.84 C 72.53 41.69 76.94 43.79 81.78 43.95 C 84.98 41.52 82.59 36.15 86.33 34.27 C 90.13 32.00 93.70 28.97 98.06 27.89 Z" />
<path fill="#3a70a7" opacity="1.00" d=" M 164.99 30.95 C 164.45 29.35 165.46 26.79 167.49 27.69 C 173.53 29.17 179.74 28.69 185.89 28.47 C 187.14 28.99 188.15 29.95 189.26 30.70 L 189.43 31.13 C 192.16 37.98 197.91 42.99 202.12 48.92 C 208.40 55.36 207.62 64.98 210.97 72.83 C 209.87 72.86 208.78 72.88 207.69 72.91 C 207.37 67.85 206.84 62.76 205.39 57.88 C 203.77 52.14 199.11 48.09 195.73 43.39 C 192.22 39.24 189.53 34.34 185.48 30.69 C 180.77 29.56 175.78 29.90 171.02 30.60 C 169.03 30.82 166.97 31.68 164.99 30.95 Z" />
<path fill="#3a70a7" opacity="1.00" d=" M 150.97 31.00 C 153.15 30.90 156.37 29.84 156.59 33.13 C 139.06 32.53 121.52 33.57 103.98 33.31 C 98.74 32.88 93.96 35.70 90.13 38.97 C 89.50 42.90 90.31 46.87 90.02 50.82 C 89.51 51.03 88.47 51.45 87.96 51.66 C 88.51 47.12 87.83 42.35 88.87 37.94 C 92.90 34.69 97.67 31.59 103.08 31.89 C 119.05 31.82 135.02 31.59 150.97 31.00 Z" />
<path fill="#3a70a7" opacity="1.00" d=" M 155.06 34.15 C 163.68 33.96 172.35 33.66 180.95 34.23 C 184.17 36.61 186.16 40.26 188.79 43.23 C 193.30 48.43 196.96 54.44 202.48 58.67 C 204.89 59.96 202.15 62.16 200.39 61.77 C 198.86 59.22 197.75 56.41 195.74 54.17 C 191.28 48.97 187.11 43.54 182.83 38.20 C 181.80 37.10 180.80 35.51 179.08 35.63 C 172.38 35.33 165.67 35.71 158.97 35.61 C 157.48 35.76 156.14 35.14 155.06 34.15 Z" />
<path fill="#3a70a7" opacity="1.00" d=" M 142.08 37.55 C 143.86 37.37 145.55 36.76 147.26 36.25 C 147.69 37.40 148.15 38.58 147.85 39.83 C 131.47 38.33 114.98 40.21 98.57 39.93 C 98.35 39.51 97.90 38.68 97.68 38.26 C 101.10 38.34 104.53 38.53 107.95 38.40 C 119.32 37.83 130.72 38.24 142.08 37.55 Z" />
<path fill="#3a70a7" opacity="1.00" d=" M 150.14 38.30 C 159.91 38.68 169.68 38.39 179.45 38.50 C 184.51 44.78 189.53 51.09 194.38 57.54 C 196.05 59.84 198.38 61.52 200.34 63.54 C 201.66 64.75 199.19 66.64 198.03 66.01 C 192.88 56.52 185.14 48.80 178.79 40.14 C 168.86 39.85 158.93 40.26 149.00 39.92 C 149.29 39.51 149.86 38.70 150.14 38.30 Z" />
<path fill="#3a70a7" opacity="1.00" d=" M 96.15 44.38 C 105.78 44.40 115.42 44.33 125.05 44.37 C 131.44 44.25 134.71 51.81 140.97 52.06 C 151.31 52.28 161.65 52.62 171.99 52.63 C 174.30 52.38 175.86 54.24 177.25 55.77 C 186.67 66.65 195.91 77.70 205.58 88.35 C 205.26 89.04 204.91 89.72 204.53 90.39 C 194.79 77.92 183.96 66.34 173.78 54.23 C 164.86 54.09 155.93 53.95 147.00 53.76 C 143.33 53.56 139.15 54.47 135.99 52.09 C 132.15 49.77 128.91 45.46 123.95 45.97 C 115.08 46.04 106.21 45.90 97.34 46.13 C 97.11 50.36 97.55 54.58 97.41 58.80 C 96.84 59.04 95.70 59.51 95.12 59.74 C 95.71 54.64 95.79 49.50 96.15 44.38 Z" />
<path fill="#3a70a7" opacity="1.00" d=" M 65.45 46.61 C 72.35 48.68 78.58 53.94 86.09 53.21 C 87.72 52.95 88.96 54.47 89.31 55.90 C 89.54 58.46 86.82 59.26 85.16 60.50 C 89.25 62.20 93.36 63.88 97.55 65.33 C 97.45 66.15 97.34 66.97 97.24 67.80 C 99.00 68.29 101.27 67.87 102.64 69.28 C 103.34 70.65 102.17 71.56 101.10 72.18 C 98.59 70.54 96.18 68.65 93.29 67.69 C 84.46 64.51 75.84 60.79 66.99 57.70 C 66.27 58.96 65.57 60.24 64.86 61.51 C 80.11 67.42 95.11 74.00 110.51 79.49 C 110.43 80.30 110.33 81.11 110.19 81.92 C 109.01 81.27 107.84 80.62 106.68 79.96 C 106.32 81.00 106.63 82.68 105.15 82.87 C 103.98 82.44 102.87 81.89 101.74 81.37 C 101.29 82.45 100.73 83.47 100.05 84.42 C 96.39 82.45 92.80 80.32 88.85 78.98 C 77.69 74.43 66.50 69.97 55.37 65.34 C 54.16 64.98 52.89 64.24 51.59 64.52 C 49.81 65.83 48.23 67.39 46.45 68.71 C 46.53 65.46 49.53 63.94 51.78 62.24 C 63.37 66.98 74.99 71.66 86.59 76.39 C 90.80 78.12 94.96 80.10 99.47 80.98 C 94.95 77.45 89.18 76.36 84.06 73.99 C 73.95 69.56 63.39 66.15 53.43 61.40 C 53.45 61.17 53.49 60.70 53.51 60.47 C 56.34 57.15 59.84 54.49 63.00 51.50 C 69.87 54.25 76.61 57.33 83.63 59.68 C 83.02 58.27 82.78 56.67 81.91 55.38 C 77.05 52.48 71.43 51.26 66.32 48.95 C 66.10 48.37 65.67 47.20 65.45 46.61 M 55.57 60.74 C 70.12 66.80 84.85 72.42 99.38 78.52 C 101.37 79.35 103.51 79.72 105.63 80.00 C 103.54 78.78 101.36 77.74 99.11 76.85 C 87.66 72.39 76.32 67.68 64.85 63.28 C 62.72 62.43 60.49 61.68 58.70 60.20 C 60.36 57.93 62.30 55.91 64.06 53.73 C 60.81 55.51 57.96 57.92 55.57 60.74 M 60.94 59.88 C 61.64 60.14 62.35 60.39 63.05 60.64 C 64.29 59.11 65.16 57.06 67.00 56.17 C 70.19 56.89 73.18 58.28 76.34 59.09 C 73.13 57.14 69.60 55.83 66.06 54.60 C 64.36 56.37 62.64 58.12 60.94 59.88 Z" />
<path fill="#3a70a7" opacity="1.00" d=" M 101.43 51.19 C 102.89 49.77 105.19 50.46 107.02 50.24 C 113.21 50.55 119.46 49.77 125.60 50.64 C 130.54 53.04 133.97 57.77 138.99 60.03 C 149.53 60.79 160.18 59.67 170.72 60.47 C 173.15 61.88 174.66 64.41 176.49 66.48 C 184.83 76.47 193.38 86.29 201.70 96.29 C 203.36 98.39 205.52 99.98 207.63 101.57 C 209.11 102.23 207.98 104.03 208.14 105.18 C 204.11 105.38 203.72 100.86 201.50 98.53 C 191.17 86.49 181.20 74.10 170.61 62.31 C 159.93 60.99 148.99 62.64 138.27 61.54 C 133.36 59.14 129.86 54.57 124.95 52.18 C 117.60 51.50 110.17 52.03 102.79 51.97 C 102.43 56.21 103.05 60.42 103.31 64.64 C 103.43 66.65 100.28 65.89 100.96 64.11 C 101.14 59.81 101.07 55.49 101.43 51.19 Z" />
<path fill="#3a70a7" opacity="1.00" d=" M 109.96 56.91 C 114.49 57.01 119.18 56.22 123.61 57.38 C 129.24 60.49 133.60 65.54 139.32 68.50 C 148.72 69.55 158.34 67.90 167.70 69.24 C 173.87 76.48 179.26 84.40 185.17 91.88 C 187.56 94.94 189.93 98.03 191.90 101.38 C 162.55 102.22 133.16 101.19 103.81 102.03 C 103.84 101.49 103.90 100.41 103.93 99.87 C 119.28 100.52 134.65 99.79 150.02 100.02 C 163.03 99.86 176.04 100.00 189.05 99.85 C 181.65 89.95 174.23 80.07 166.71 70.26 C 158.47 70.06 150.22 70.31 141.97 70.28 C 140.44 70.21 138.78 70.29 137.45 69.39 C 132.29 66.11 127.97 61.61 122.66 58.57 C 118.94 57.84 115.11 58.32 111.34 58.34 C 111.66 64.03 110.02 70.30 113.43 75.36 C 113.81 78.15 109.35 79.49 107.99 76.84 C 107.83 74.43 109.64 72.38 109.72 69.97 C 109.93 65.62 109.66 61.26 109.96 56.91 Z" />
<path fill="#3a70a7" opacity="1.00" d=" M 43.85 67.97 C 49.21 69.86 54.24 72.59 59.64 74.36 C 61.56 75.09 63.55 74.14 65.45 73.78 C 66.44 75.02 68.25 76.15 67.84 77.99 C 67.51 80.48 63.93 81.95 62.17 79.96 C 61.42 78.84 60.89 77.60 60.29 76.41 C 55.13 74.06 49.63 72.42 44.57 69.92 C 44.39 69.43 44.03 68.45 43.85 67.97 M 64.17 76.23 C 62.52 76.55 63.21 79.21 64.81 78.72 C 66.44 78.40 65.76 75.76 64.17 76.23 Z" />
<path fill="#3a70a7" opacity="1.00" d=" M 199.48 67.37 C 203.78 68.84 204.68 74.71 209.31 75.56 C 214.26 76.67 219.35 76.87 224.41 77.11 C 224.62 77.64 225.04 78.69 225.26 79.22 C 220.22 78.53 215.14 78.11 210.12 77.31 C 204.82 76.85 201.42 71.84 199.48 67.37 Z" />
<path fill="#3a70a7" opacity="1.00" d=" M 36.23 74.98 C 50.29 82.48 64.96 88.75 79.28 95.74 C 84.82 98.52 90.72 100.66 95.79 104.30 C 93.73 104.18 91.68 103.96 89.63 103.74 C 89.37 103.33 88.85 102.50 88.59 102.08 C 88.57 102.65 88.53 103.78 88.51 104.34 C 86.56 104.38 84.60 104.37 82.65 104.41 L 82.21 104.03 C 78.49 100.20 73.30 98.61 68.67 96.24 C 57.36 90.67 46.03 85.15 34.67 79.70 C 32.73 81.90 31.23 84.42 29.41 86.71 C 27.88 88.32 25.86 86.00 26.15 84.34 C 28.75 82.03 31.68 79.96 34.90 78.59 C 37.59 78.93 39.96 80.45 42.38 81.60 C 53.68 87.45 65.35 92.56 76.63 98.45 C 79.35 99.91 82.35 100.68 85.39 101.08 C 78.68 96.61 71.03 93.87 63.88 90.20 C 54.57 86.07 45.66 81.02 36.04 77.62 C 36.09 76.96 36.18 75.64 36.23 74.98 Z" />
<path fill="#3a70a7" opacity="1.00" d=" M 154.44 79.44 C 156.68 78.07 159.44 77.98 161.94 77.33 C 165.50 78.07 171.52 78.26 170.28 83.61 C 167.78 82.94 166.14 80.36 163.19 80.73 C 163.19 82.28 163.19 83.85 163.20 85.41 C 165.33 85.87 168.16 85.33 169.54 87.42 C 171.21 89.95 170.11 93.03 168.42 95.22 C 166.22 95.45 164.04 95.74 161.87 96.12 C 159.61 95.77 157.32 95.51 155.16 94.77 C 153.26 93.90 153.66 91.54 153.77 89.87 C 155.65 88.93 155.84 91.77 156.86 92.68 C 158.11 92.72 159.37 92.76 160.63 92.81 C 160.64 91.36 160.65 89.91 160.66 88.47 C 158.55 87.98 155.86 88.52 154.24 86.83 C 153.23 84.60 152.87 81.49 154.44 79.44 M 156.05 81.02 C 156.10 82.56 156.16 84.09 156.21 85.62 C 157.67 85.62 159.13 85.63 160.59 85.63 C 160.62 84.11 160.65 82.60 160.68 81.09 C 159.14 81.06 157.59 81.04 156.05 81.02 M 163.17 88.13 C 163.16 89.71 163.16 91.29 163.17 92.87 C 164.66 92.80 166.15 92.73 167.64 92.66 C 167.61 91.23 167.58 89.79 167.55 88.36 C 166.09 88.28 164.63 88.20 163.17 88.13 Z" />
<path fill="#3a70a7" opacity="1.00" d=" M 116.05 79.08 C 120.46 77.54 125.35 77.33 129.82 78.78 C 132.40 79.17 131.20 82.65 131.66 84.31 C 130.65 83.23 129.62 82.19 128.57 81.17 C 127.20 81.15 125.85 81.16 124.49 81.16 C 124.52 82.55 124.55 83.93 124.58 85.32 C 127.01 85.85 130.76 85.21 131.66 88.25 C 132.14 90.46 132.22 93.70 129.87 94.89 C 125.77 96.17 121.24 96.19 117.13 94.91 C 114.68 94.00 115.51 90.97 115.52 89.03 C 116.66 90.19 117.71 91.44 118.76 92.69 C 119.86 92.79 120.97 92.87 122.08 92.93 C 122.09 91.43 122.10 89.93 122.12 88.43 C 119.97 87.90 116.94 88.59 115.60 86.40 C 114.68 84.09 114.81 81.25 116.05 79.08 M 117.43 81.17 C 117.62 82.68 117.82 84.19 118.01 85.69 C 119.45 85.64 120.89 85.59 122.34 85.54 C 122.27 83.92 122.22 82.31 122.16 80.69 C 120.58 80.85 119.01 81.01 117.43 81.17 M 124.64 88.32 C 124.61 89.77 124.57 91.21 124.54 92.66 C 126.02 92.72 127.51 92.79 129.00 92.85 C 129.01 91.27 129.01 89.69 129.01 88.12 C 127.55 88.18 126.10 88.25 124.64 88.32 Z" />
<path fill="#3a70a7" opacity="1.00" d=" M 135.25 79.33 C 139.48 77.27 144.52 77.36 148.92 78.84 C 151.44 79.21 150.33 82.55 150.83 84.18 C 149.67 83.21 148.54 82.21 147.44 81.19 C 146.30 81.08 145.16 80.99 144.02 80.90 C 144.07 82.40 144.12 83.91 144.17 85.41 C 146.45 85.84 149.85 85.37 150.68 88.20 C 151.13 90.26 151.48 93.10 149.59 94.56 C 147.43 95.49 145.07 95.73 142.79 96.20 C 139.98 95.33 135.47 96.21 134.47 92.68 C 133.84 91.27 134.90 90.12 135.76 89.14 C 136.33 90.35 136.89 91.56 137.44 92.79 C 138.71 92.83 139.97 92.87 141.24 92.92 C 141.22 91.41 141.19 89.90 141.17 88.39 C 138.97 87.77 135.30 88.80 134.58 85.91 C 134.01 83.76 133.94 81.23 135.25 79.33 M 136.42 81.22 C 136.62 82.49 136.77 83.78 137.08 85.04 C 138.26 85.66 139.65 85.71 140.94 86.04 C 141.20 84.42 141.45 82.80 141.71 81.19 C 139.94 81.19 138.18 81.20 136.42 81.22 M 144.10 88.09 C 144.10 89.70 144.10 91.32 144.11 92.94 C 145.52 92.83 146.93 92.73 148.35 92.63 C 148.34 91.20 148.34 89.77 148.33 88.35 C 146.92 88.26 145.51 88.17 144.10 88.09 Z" />
<path fill="#3a70a7" opacity="1.00" d=" M 22.35 88.39 C 29.63 91.81 36.77 95.52 44.02 99.01 C 47.15 100.49 50.13 102.25 52.92 104.30 C 52.12 104.30 50.51 104.30 49.71 104.29 C 40.93 98.71 31.26 94.71 21.99 90.00 C 20.42 92.30 18.90 94.65 16.97 96.66 C 15.66 95.89 14.58 94.72 14.67 93.11 C 17.01 91.21 19.74 89.88 22.35 88.39 Z" />
<path fill="#3a70a7" opacity="1.00" d=" M 206.97 91.02 C 214.03 91.98 221.16 92.12 228.25 92.70 C 228.79 98.15 229.22 103.61 229.58 109.08 C 230.33 109.56 231.85 110.51 232.60 110.99 L 232.90 111.18 C 231.26 111.17 229.63 111.15 228.00 111.13 C 227.63 105.50 227.28 99.88 226.87 94.26 C 219.97 93.72 213.06 93.45 206.15 93.22 C 206.36 92.67 206.76 91.57 206.97 91.02 Z" />
<path fill="#3a70a7" opacity="1.00" d=" M 208.02 95.26 C 213.10 96.84 218.42 97.04 223.69 97.34 C 224.48 105.58 225.22 113.84 225.41 122.13 C 218.89 125.88 212.74 130.41 205.82 133.40 C 205.05 125.04 205.68 116.60 205.35 108.21 C 205.80 108.09 206.70 107.83 207.15 107.70 C 207.56 115.48 206.84 123.30 207.26 131.09 C 212.70 127.65 218.67 124.88 223.62 120.78 C 223.61 113.47 222.61 106.19 222.27 98.89 C 217.78 98.36 213.25 98.10 208.78 98.85 C 206.46 99.52 205.81 95.80 208.02 95.26 Z" />
<path fill="#3a70a7" opacity="1.00" d=" M 13.06 98.13 C 13.52 98.12 14.43 98.08 14.88 98.07 C 14.87 100.16 14.85 102.26 14.83 104.36 C 14.45 104.36 13.69 104.37 13.30 104.37 C 13.18 102.29 13.12 100.21 13.06 98.13 Z" />
<path fill="#3a70a7" opacity="1.00" d=" M 19.56 97.69 C 20.29 97.68 21.76 97.66 22.49 97.65 C 22.24 99.87 21.98 102.08 21.72 104.30 C 21.43 104.28 20.84 104.24 20.54 104.21 C 20.16 102.05 19.86 99.87 19.56 97.69 Z" />
<path fill="#3a70a7" opacity="1.00" d=" M 211.46 101.24 C 214.21 101.10 216.98 101.00 219.72 101.44 C 221.18 107.58 220.80 114.00 221.48 120.26 C 217.32 122.49 213.55 125.55 209.07 127.10 C 209.10 126.65 209.16 125.75 209.19 125.29 C 212.40 122.86 216.75 122.06 219.46 119.00 C 219.71 113.70 218.86 108.41 218.68 103.12 C 216.26 102.69 212.98 103.74 211.46 101.24 Z" />
<path fill="#3a70a7" opacity="1.00" d=" M 209.22 105.92 C 211.79 105.75 214.37 106.07 216.94 106.23 C 217.61 110.39 217.86 114.61 217.96 118.82 C 215.70 120.01 213.65 122.27 210.94 122.13 C 210.40 119.22 214.33 119.32 215.97 117.84 C 216.42 114.53 215.91 111.19 215.71 107.88 C 213.25 107.88 210.78 107.92 208.32 107.91 C 208.54 107.41 208.99 106.42 209.22 105.92 Z" />
<path fill="#3a70a7" opacity="1.00" d=" M 1.49 113.41 C 6.39 113.39 11.30 113.32 16.19 113.66 C 15.16 117.16 11.27 116.20 8.45 116.52 C 8.48 121.37 8.54 126.22 8.30 131.07 C 7.49 130.66 6.70 130.22 5.93 129.75 C 5.14 125.36 5.62 120.86 5.56 116.42 C 4.17 116.37 2.77 116.32 1.38 116.28 C 1.41 115.56 1.46 114.13 1.49 113.41 Z" />
<path fill="#3a70a7" opacity="1.00" d=" M 105.68 113.51 C 106.19 113.52 107.21 113.56 107.72 113.57 C 108.01 116.81 106.79 119.73 104.49 121.97 C 106.78 124.24 108.00 127.18 107.70 130.43 C 107.18 130.45 106.12 130.50 105.60 130.52 C 104.75 128.47 104.49 125.91 102.50 124.59 C 99.90 122.81 96.54 123.65 93.59 123.40 C 93.46 125.84 93.26 128.27 92.94 130.69 C 92.36 130.61 91.20 130.43 90.62 130.35 C 90.58 124.77 90.14 119.17 90.79 113.61 C 91.38 113.63 92.58 113.66 93.17 113.68 C 93.51 115.96 93.47 118.28 93.55 120.59 C 96.72 120.34 100.46 121.25 103.08 118.97 C 104.36 117.39 104.90 115.36 105.68 113.51 Z" />
<path fill="#3a70a7" opacity="1.00" d=" M 22.97 114.84 C 28.80 113.09 35.09 119.29 32.81 125.10 C 31.31 130.66 23.62 132.49 19.58 128.55 C 15.14 124.57 17.10 116.27 22.97 114.84 M 22.45 118.50 C 19.55 120.14 19.44 125.00 22.33 126.68 C 25.08 128.98 30.23 126.83 29.84 123.04 C 30.56 119.19 25.57 115.97 22.45 118.50 Z" />
<path fill="#3a70a7" opacity="1.00" d=" M 51.48 115.51 C 55.97 115.49 60.49 115.11 64.97 115.59 C 65.58 115.96 66.80 116.70 67.41 117.07 C 63.31 119.07 58.69 118.16 54.31 118.34 C 54.33 119.39 54.34 120.44 54.35 121.49 C 56.76 121.48 59.16 121.49 61.57 121.50 C 61.54 122.46 61.51 123.42 61.46 124.38 C 59.07 124.39 56.68 124.38 54.29 124.39 C 54.30 125.43 54.32 126.47 54.34 127.52 C 58.46 127.54 62.59 127.51 66.71 127.66 C 66.53 128.30 66.17 129.58 65.99 130.22 C 61.19 130.75 56.36 130.39 51.55 130.40 C 51.22 125.45 51.25 120.47 51.48 115.51 Z" />
<path fill="#3a70a7" opacity="1.00" d=" M 109.49 115.50 C 114.65 115.38 119.83 115.25 124.98 115.70 C 124.58 116.31 123.77 117.53 123.37 118.15 C 119.60 118.58 115.80 118.21 112.02 118.33 C 112.18 119.08 112.51 120.57 112.67 121.32 C 114.99 121.54 117.33 121.51 119.67 121.55 C 119.60 122.49 119.52 123.43 119.43 124.38 C 117.07 124.40 114.72 124.38 112.37 124.40 C 112.36 125.45 112.36 126.50 112.35 127.56 C 116.26 127.58 120.19 127.30 124.08 127.81 C 124.26 128.44 124.61 129.70 124.78 130.34 C 119.71 130.54 114.64 130.45 109.57 130.41 C 109.30 125.44 109.36 120.47 109.49 115.50 Z" />
<path fill="#3a70a7" opacity="1.00" d=" M 126.38 115.54 C 126.88 115.55 127.90 115.57 128.41 115.57 C 131.61 118.66 134.49 122.14 138.24 124.61 C 138.38 121.63 138.44 118.65 138.55 115.67 C 139.10 115.60 140.21 115.45 140.77 115.38 C 141.60 120.57 142.02 126.06 140.36 131.13 C 136.41 127.98 133.06 124.18 129.37 120.75 C 129.28 123.99 129.05 127.24 128.62 130.46 C 128.07 130.43 126.97 130.37 126.43 130.35 C 126.12 125.42 126.13 120.47 126.38 115.54 Z" />
<path fill="#3a70a7" opacity="1.00" d=" M 143.53 115.31 C 148.10 117.34 150.88 121.98 154.64 125.16 C 154.64 121.70 154.85 118.23 155.67 114.86 C 158.01 115.60 157.66 118.10 157.81 119.95 C 157.90 123.61 157.79 127.27 157.46 130.92 C 152.66 128.70 149.83 123.99 145.71 120.86 C 145.62 124.02 145.56 127.18 145.43 130.34 C 144.86 130.38 143.72 130.47 143.15 130.51 C 142.74 125.50 141.80 120.14 143.53 115.31 Z" />
<path fill="#3a70a7" opacity="1.00" d=" M 159.50 115.55 C 164.68 115.36 169.87 115.23 175.04 115.68 C 174.66 116.31 173.90 117.55 173.51 118.17 C 169.71 118.54 165.87 118.24 162.06 118.36 C 162.21 119.11 162.52 120.60 162.68 121.35 C 165.01 121.56 167.36 121.52 169.70 121.54 C 169.63 122.49 169.55 123.44 169.46 124.40 C 167.09 124.40 164.73 124.40 162.36 124.40 C 162.38 125.43 162.39 126.47 162.41 127.51 C 166.41 127.52 170.40 127.53 174.40 127.62 C 174.41 128.31 174.44 129.70 174.46 130.39 C 169.48 130.50 164.50 130.50 159.52 130.38 C 159.38 125.44 159.37 120.49 159.50 115.55 Z" />
<path fill="#3a70a7" opacity="1.00" d=" M 34.75 116.82 C 35.08 116.38 35.74 115.49 36.06 115.05 C 38.18 116.58 37.31 119.39 37.65 121.59 C 39.78 121.44 42.00 121.73 44.05 121.03 C 46.74 119.85 46.41 115.61 49.67 115.15 C 49.85 118.00 48.83 120.63 47.35 123.00 C 48.74 125.20 49.71 127.62 49.78 130.26 C 49.26 130.32 48.23 130.45 47.72 130.51 C 46.66 128.58 46.24 125.95 44.12 124.86 C 42.03 124.20 39.79 124.49 37.64 124.38 C 37.05 126.41 38.61 130.17 35.81 130.67 C 35.55 130.30 35.03 129.56 34.77 129.20 C 34.38 125.09 34.42 120.93 34.75 116.82 Z" />
<path fill="#3a70a7" opacity="1.00" d=" M 67.83 127.06 C 67.53 123.00 67.76 118.90 68.64 114.92 C 73.19 117.49 76.30 121.81 80.17 125.21 C 80.29 121.80 80.35 118.39 80.67 115.00 C 81.29 115.44 82.51 116.34 83.13 116.79 C 83.44 121.55 83.80 126.47 82.35 131.08 C 78.33 128.04 75.00 124.25 71.38 120.78 C 70.99 124.21 70.75 127.66 70.30 131.08 C 68.95 130.14 67.64 128.85 67.83 127.06 Z" />
<path fill="#3a70a7" opacity="1.00" d=" M 176.59 116.50 C 177.00 116.07 177.83 115.20 178.25 114.77 C 179.54 118.90 179.34 123.25 179.18 127.51 C 183.01 127.60 186.84 127.59 190.67 127.62 C 190.70 128.57 190.73 129.52 190.77 130.47 C 185.99 130.50 181.21 130.50 176.44 130.46 C 176.38 125.82 175.83 121.09 176.59 116.50 Z" />
<path fill="#3a70a7" opacity="1.00" d=" M 220.67 129.58 C 224.86 127.07 229.02 124.50 233.42 122.36 C 233.36 122.83 233.25 123.75 233.20 124.21 C 226.93 128.29 219.23 130.64 214.75 137.00 C 212.76 140.56 208.03 135.13 211.03 133.15 C 214.21 131.88 217.73 131.45 220.67 129.58 M 212.28 134.22 C 211.77 135.84 212.33 136.39 213.96 135.86 C 214.47 134.23 213.91 133.69 212.28 134.22 Z" />
<path fill="#3a70a7" opacity="1.00" d=" M 222.59 139.85 C 225.32 139.41 228.09 139.52 230.84 139.34 C 230.09 141.18 227.74 141.22 226.19 142.02 C 227.23 143.27 228.19 144.59 229.20 145.88 C 229.68 145.74 230.63 145.47 231.11 145.33 C 230.12 149.24 229.07 153.14 227.97 157.02 L 227.73 157.25 C 221.24 163.53 218.10 172.43 212.18 179.19 C 209.92 179.60 207.60 179.24 205.32 179.25 C 208.12 180.07 210.96 181.23 213.94 180.99 C 217.34 177.51 219.60 173.09 222.79 169.41 C 221.19 174.44 218.53 179.05 215.76 183.51 C 211.51 182.56 207.20 181.97 202.86 181.60 C 203.06 180.32 203.27 179.04 203.50 177.76 C 201.72 177.70 199.94 177.64 198.16 177.60 C 197.77 177.06 196.99 175.98 196.60 175.44 C 201.63 173.82 206.38 177.51 211.37 177.88 C 215.69 170.59 221.10 163.96 224.88 156.35 C 219.03 161.71 216.60 169.63 211.29 175.42 C 208.24 175.98 205.26 174.50 202.87 172.74 C 205.42 172.94 207.96 173.40 210.53 173.35 C 212.07 171.87 213.12 169.98 214.26 168.21 C 217.10 163.43 220.86 159.08 222.24 153.57 C 218.49 157.60 216.47 162.86 212.83 166.94 C 208.86 166.92 204.93 166.02 200.95 166.25 C 188.74 166.88 176.55 167.90 164.36 168.65 C 164.22 168.21 163.93 167.32 163.79 166.88 C 172.81 165.81 181.95 165.93 191.01 165.15 C 198.00 164.71 205.13 163.59 212.03 165.42 C 216.10 159.17 220.37 153.01 223.59 146.27 C 224.25 146.35 225.55 146.50 226.21 146.58 C 224.93 148.62 223.63 150.65 222.33 152.68 C 223.80 153.41 225.27 154.15 226.75 154.88 C 227.59 153.01 228.57 151.17 229.07 149.17 C 227.35 145.78 224.76 142.94 222.59 139.85 Z" />
<path fill="#3a70a7" opacity="1.00" d=" M 31.99 140.56 L 33.33 140.60 C 36.72 144.64 39.51 149.13 42.73 153.30 C 44.60 155.89 47.68 157.06 50.01 159.13 C 51.75 162.13 47.26 165.35 44.72 163.26 C 43.50 160.13 43.42 156.50 41.21 153.81 C 37.90 149.56 34.43 145.40 31.99 140.56 Z" />
<path fill="#3a70a7" opacity="1.00" d=" M 39.58 140.59 C 40.03 140.60 40.92 140.61 41.36 140.62 C 47.42 148.52 53.45 156.47 59.86 164.09 C 61.39 166.11 64.37 168.11 62.72 170.98 C 55.24 160.68 46.62 151.21 39.58 140.59 Z" />
<path fill="#3a70a7" opacity="1.00" d=" M 47.22 140.59 L 48.58 140.60 C 67.90 164.23 86.84 188.20 106.04 211.92 C 108.01 214.20 111.38 215.09 112.61 217.99 C 111.68 219.16 110.52 220.23 108.95 220.33 C 106.58 217.79 105.70 214.24 103.46 211.59 C 89.13 193.86 74.97 176.00 60.66 158.25 C 56.18 152.36 51.05 146.95 47.22 140.59 Z" />
<path fill="#3a70a7" opacity="1.00" d=" M 59.08 140.56 L 60.47 140.59 C 78.95 161.92 97.00 183.64 115.41 205.04 C 123.02 190.06 130.41 174.96 137.89 159.91 C 140.38 155.15 142.73 150.31 144.49 145.23 C 145.00 145.30 146.01 145.44 146.52 145.51 C 146.53 146.59 146.55 147.67 146.57 148.76 C 146.89 149.10 147.53 149.78 147.85 150.11 C 147.73 151.67 147.53 153.23 147.61 154.80 C 149.71 157.02 152.62 158.22 155.24 159.71 C 158.30 161.25 161.36 163.32 164.93 163.26 C 180.25 162.66 195.54 160.53 210.90 160.82 C 213.26 157.39 215.18 153.68 217.44 150.18 C 218.10 149.12 219.11 148.58 220.45 148.56 C 218.17 153.84 214.41 158.28 211.34 163.09 C 207.57 162.54 203.75 162.31 199.94 162.62 C 188.97 163.48 177.97 164.08 167.00 164.99 C 160.14 166.02 154.69 160.89 148.89 158.14 C 145.84 156.91 145.54 153.39 144.55 150.69 C 134.72 169.63 125.76 189.02 115.92 207.96 C 113.95 205.97 112.01 203.94 110.18 201.81 C 96.51 185.51 82.62 169.39 68.99 153.04 C 65.50 149.03 61.91 145.08 59.08 140.56 Z" />
<path fill="#3a70a7" opacity="1.00" d=" M 74.00 140.58 L 75.47 140.62 C 88.85 154.87 101.88 169.46 115.29 183.69 C 123.51 169.59 130.43 154.78 138.44 140.56 L 139.73 140.54 C 138.48 143.62 137.12 146.66 135.54 149.60 C 128.91 161.92 122.61 174.42 115.90 186.71 C 105.42 176.31 95.86 165.02 85.76 154.26 C 81.75 149.77 77.32 145.63 74.00 140.58 Z" />
<path fill="#3a70a7" opacity="1.00" d=" M 82.79 141.88 C 99.94 142.46 117.12 141.79 134.28 142.26 C 132.48 147.46 129.37 152.03 126.98 156.95 C 123.32 163.83 119.79 170.78 115.96 177.57 C 110.42 172.93 106.07 167.11 100.90 162.10 C 99.26 160.32 96.76 160.12 94.53 159.65 C 94.86 156.75 95.40 153.88 95.99 151.02 C 92.58 150.81 89.15 150.90 85.75 151.24 C 85.72 150.63 85.66 149.40 85.63 148.79 C 89.41 149.06 93.19 149.21 96.98 149.27 C 97.41 152.13 96.84 155.59 99.21 157.75 C 104.69 163.38 109.97 169.20 115.39 174.88 C 121.09 164.69 126.35 154.26 131.92 144.00 C 115.54 143.76 99.13 143.59 82.76 144.13 C 82.77 143.57 82.78 142.44 82.79 141.88 Z" />
<path fill="#3a70a7" opacity="1.00" d=" M 151.92 141.98 C 157.27 142.56 162.64 142.82 168.02 142.62 C 184.57 142.75 201.14 142.38 217.69 142.78 C 215.94 146.85 214.15 150.97 211.59 154.60 C 208.39 154.62 205.21 154.10 202.01 154.32 C 190.34 155.04 178.66 155.67 166.98 156.27 C 163.35 156.64 160.29 154.41 157.26 152.79 C 156.38 150.10 155.63 147.34 155.61 144.49 C 153.75 144.98 151.08 146.09 151.15 143.14 C 151.34 142.85 151.73 142.27 151.92 141.98 M 158.63 144.21 C 159.98 146.49 158.84 148.86 158.52 151.23 C 160.90 153.21 163.87 154.84 167.07 154.56 C 173.04 154.20 179.01 153.74 185.00 153.54 C 193.63 153.24 202.26 152.07 210.91 152.69 C 212.43 149.99 213.82 147.21 215.07 144.37 C 196.26 144.23 177.44 144.49 158.63 144.21 Z" />
<path fill="#3a70a7" opacity="1.00" d=" M 87.65 144.77 C 100.61 146.01 113.68 144.59 126.65 145.58 C 126.14 148.07 124.81 150.28 123.61 152.49 C 120.75 157.52 118.55 162.91 115.28 167.70 C 109.48 162.46 104.30 156.55 98.17 151.67 C 98.41 151.10 98.88 149.95 99.11 149.38 C 104.27 154.60 109.57 159.67 114.68 164.93 C 118.52 159.38 121.36 153.21 124.22 147.12 C 112.03 147.15 99.84 146.91 87.65 147.25 C 87.65 146.63 87.65 145.39 87.65 144.77 Z" />
<path fill="#3a70a7" opacity="1.00" d=" M 161.09 146.65 C 161.27 146.11 161.62 145.04 161.80 144.51 C 164.72 145.78 167.68 147.56 170.98 147.40 C 184.53 146.96 198.07 146.20 211.62 146.04 C 210.98 147.87 210.65 150.68 208.01 150.34 C 194.68 151.25 181.29 151.34 167.96 152.19 C 165.15 152.02 160.87 152.06 159.77 148.88 C 162.18 147.90 164.22 150.44 166.62 150.46 C 180.71 150.13 194.77 148.90 208.87 148.79 L 208.82 148.08 C 196.53 147.97 184.25 148.62 171.97 148.95 C 168.19 149.13 164.58 147.91 161.09 146.65 Z" />
<path fill="#3a70a7" opacity="1.00" d=" M 152.15 149.16 C 155.31 148.78 154.16 152.02 154.21 153.99 C 158.59 156.17 162.82 159.82 168.01 159.26 C 179.65 158.34 191.32 157.82 202.96 156.90 C 205.69 156.64 208.38 157.28 211.02 157.90 C 210.81 158.46 210.39 159.57 210.18 160.12 C 208.17 159.43 206.17 158.39 203.98 158.59 C 193.63 159.27 183.27 160.04 172.91 160.61 C 169.29 160.73 165.38 161.91 162.00 160.12 C 158.80 158.58 155.73 156.77 152.53 155.22 C 152.31 153.22 151.55 151.15 152.15 149.16 Z" />
<path fill="#3a70a7" opacity="1.00" d=" M 147.14 159.30 C 150.86 161.26 153.88 164.63 158.15 165.45 C 159.61 166.03 162.15 165.63 162.17 167.82 C 161.61 169.02 161.05 170.23 160.48 171.42 C 163.19 172.25 166.05 172.53 168.88 172.26 C 179.57 171.33 190.26 170.51 200.97 169.77 C 203.84 169.75 206.40 168.40 209.06 167.51 C 211.81 168.01 211.98 172.08 209.12 172.46 C 206.33 171.89 203.54 171.05 200.66 171.39 C 189.79 172.33 178.92 173.31 168.04 174.04 C 162.79 174.44 157.55 172.76 153.37 169.60 C 149.79 166.89 145.80 164.87 141.93 162.65 C 140.97 161.25 141.32 160.40 142.98 160.09 C 147.76 163.82 152.66 167.43 158.11 170.13 C 155.95 164.79 149.54 164.23 145.60 160.95 L 145.69 159.83 C 146.06 159.70 146.78 159.43 147.14 159.30 Z" />
<path fill="#3a70a7" opacity="1.00" d=" M 47.78 163.85 C 52.21 166.00 55.95 169.23 59.74 172.31 C 63.08 174.90 64.48 179.04 66.32 182.68 C 71.95 194.09 77.50 205.54 83.11 216.96 C 85.97 222.84 89.16 228.58 91.48 234.72 C 89.57 234.31 87.65 233.92 85.79 233.34 C 86.61 233.35 88.25 233.39 89.07 233.41 C 80.04 214.94 71.10 196.41 62.00 177.97 C 59.11 171.46 50.66 170.29 47.78 163.85 Z" />
<path fill="#3a70a7" opacity="1.00" d=" M 142.72 175.41 C 140.07 173.66 141.59 168.67 144.99 169.20 C 148.20 169.19 147.85 173.39 150.05 174.91 C 154.96 178.48 160.82 181.42 167.07 180.82 C 176.94 179.90 186.81 178.87 196.67 177.77 C 196.33 180.80 193.10 179.97 190.96 180.31 C 182.28 180.76 173.69 182.51 164.99 182.64 C 159.98 182.70 155.36 180.51 151.33 177.73 C 148.87 175.70 145.56 176.29 142.72 175.41 M 144.16 171.48 C 142.86 172.39 144.33 174.73 145.67 173.68 C 146.96 172.76 145.49 170.43 144.16 171.48 Z" />
<path fill="#3a70a7" opacity="1.00" d=" M 64.10 173.84 C 63.01 172.80 64.09 171.78 64.70 170.86 C 75.36 189.48 85.88 208.20 96.98 226.56 C 98.28 225.33 99.64 224.16 100.74 222.75 C 100.76 221.55 99.90 220.58 99.38 219.58 C 92.72 209.56 86.33 199.36 79.69 189.34 C 78.43 187.21 75.51 185.79 75.76 183.03 C 76.51 182.90 78.00 182.64 78.74 182.51 C 79.51 184.85 80.34 187.20 81.70 189.28 C 89.05 200.44 96.51 211.54 103.52 222.92 C 101.30 225.26 98.92 227.44 96.30 229.33 C 85.39 210.93 75.10 192.18 64.10 173.84 Z" />
<path fill="#3a70a7" opacity="1.00" d=" M 138.67 179.32 C 139.89 179.36 141.12 179.40 142.34 179.45 C 136.01 190.28 130.65 201.63 124.88 212.77 C 122.97 216.97 117.89 217.73 114.84 220.81 C 109.78 225.75 104.88 230.86 99.90 235.89 C 103.23 236.07 106.55 236.47 109.81 237.21 C 104.02 237.43 98.32 236.21 92.67 235.12 C 95.18 234.83 98.14 235.12 100.01 233.07 C 104.85 228.57 109.15 223.52 114.03 219.05 C 116.50 216.77 119.88 215.73 122.26 213.36 C 124.87 209.74 126.39 205.48 128.51 201.58 C 132.03 194.22 136.68 187.32 138.67 179.32 Z" />
</g>
<g id="#020102ff">
<path fill="#020102" opacity="1.00" d=" M 88.59 102.08 C 88.85 102.50 89.37 103.33 89.63 103.74 C 91.68 103.96 93.73 104.18 95.79 104.30 C 130.56 104.53 165.35 104.35 200.13 104.38 C 200.59 116.37 200.18 128.37 200.36 140.36 C 180.15 140.69 159.94 140.39 139.73 140.54 L 138.44 140.56 C 117.45 140.52 96.46 140.38 75.47 140.62 L 74.00 140.58 C 69.49 140.46 64.98 140.55 60.47 140.59 L 59.08 140.56 C 55.58 140.50 52.08 140.57 48.58 140.60 L 47.22 140.59 C 45.27 140.58 43.31 140.60 41.36 140.62 C 40.92 140.61 40.03 140.60 39.58 140.59 C 37.50 140.58 35.41 140.61 33.33 140.60 L 31.99 140.56 C 22.21 140.43 12.43 140.50 2.65 140.52 C 1.48 132.50 1.00 124.38 1.38 116.28 C 2.77 116.32 4.17 116.37 5.56 116.42 C 5.62 120.86 5.14 125.36 5.93 129.75 C 6.70 130.22 7.49 130.66 8.30 131.07 C 8.54 126.22 8.48 121.37 8.45 116.52 C 11.27 116.20 15.16 117.16 16.19 113.66 C 11.30 113.32 6.39 113.39 1.49 113.41 C 1.72 110.35 2.20 107.31 2.58 104.26 C 6.15 104.37 9.73 104.38 13.30 104.37 C 13.69 104.37 14.45 104.36 14.83 104.36 C 16.74 104.34 18.64 104.30 20.54 104.21 C 20.84 104.24 21.43 104.28 21.72 104.30 C 31.05 104.49 40.38 104.38 49.71 104.29 C 50.51 104.30 52.12 104.30 52.92 104.30 C 62.68 104.29 72.46 104.74 82.21 104.03 L 82.65 104.41 C 84.60 104.37 86.56 104.38 88.51 104.34 C 88.53 103.78 88.57 102.65 88.59 102.08 M 105.68 113.51 C 104.90 115.36 104.36 117.39 103.08 118.97 C 100.46 121.25 96.72 120.34 93.55 120.59 C 93.47 118.28 93.51 115.96 93.17 113.68 C 92.58 113.66 91.38 113.63 90.79 113.61 C 90.14 119.17 90.58 124.77 90.62 130.35 C 91.20 130.43 92.36 130.61 92.94 130.69 C 93.26 128.27 93.46 125.84 93.59 123.40 C 96.54 123.65 99.90 122.81 102.50 124.59 C 104.49 125.91 104.75 128.47 105.60 130.52 C 106.12 130.50 107.18 130.45 107.70 130.43 C 108.00 127.18 106.78 124.24 104.49 121.97 C 106.79 119.73 108.01 116.81 107.72 113.57 C 107.21 113.56 106.19 113.52 105.68 113.51 M 22.97 114.84 C 17.10 116.27 15.14 124.57 19.58 128.55 C 23.62 132.49 31.31 130.66 32.81 125.10 C 35.09 119.29 28.80 113.09 22.97 114.84 M 51.48 115.51 C 51.25 120.47 51.22 125.45 51.55 130.40 C 56.36 130.39 61.19 130.75 65.99 130.22 C 66.17 129.58 66.53 128.30 66.71 127.66 C 62.59 127.51 58.46 127.54 54.34 127.52 C 54.32 126.47 54.30 125.43 54.29 124.39 C 56.68 124.38 59.07 124.39 61.46 124.38 C 61.51 123.42 61.54 122.46 61.57 121.50 C 59.16 121.49 56.76 121.48 54.35 121.49 C 54.34 120.44 54.33 119.39 54.31 118.34 C 58.69 118.16 63.31 119.07 67.41 117.07 C 66.80 116.70 65.58 115.96 64.97 115.59 C 60.49 115.11 55.97 115.49 51.48 115.51 M 109.49 115.50 C 109.36 120.47 109.30 125.44 109.57 130.41 C 114.64 130.45 119.71 130.54 124.78 130.34 C 124.61 129.70 124.26 128.44 124.08 127.81 C 120.19 127.30 116.26 127.58 112.35 127.56 C 112.36 126.50 112.36 125.45 112.37 124.40 C 114.72 124.38 117.07 124.40 119.43 124.38 C 119.52 123.43 119.60 122.49 119.67 121.55 C 117.33 121.51 114.99 121.54 112.67 121.32 C 112.51 120.57 112.18 119.08 112.02 118.33 C 115.80 118.21 119.60 118.58 123.37 118.15 C 123.77 117.53 124.58 116.31 124.98 115.70 C 119.83 115.25 114.65 115.38 109.49 115.50 M 126.38 115.54 C 126.13 120.47 126.12 125.42 126.43 130.35 C 126.97 130.37 128.07 130.43 128.62 130.46 C 129.05 127.24 129.28 123.99 129.37 120.75 C 133.06 124.18 136.41 127.98 140.36 131.13 C 142.02 126.06 141.60 120.57 140.77 115.38 C 140.21 115.45 139.10 115.60 138.55 115.67 C 138.44 118.65 138.38 121.63 138.24 124.61 C 134.49 122.14 131.61 118.66 128.41 115.57 C 127.90 115.57 126.88 115.55 126.38 115.54 M 143.53 115.31 C 141.80 120.14 142.74 125.50 143.15 130.51 C 143.72 130.47 144.86 130.38 145.43 130.34 C 145.56 127.18 145.62 124.02 145.71 120.86 C 149.83 123.99 152.66 128.70 157.46 130.92 C 157.79 127.27 157.90 123.61 157.81 119.95 C 157.66 118.10 158.01 115.60 155.67 114.86 C 154.85 118.23 154.64 121.70 154.64 125.16 C 150.88 121.98 148.10 117.34 143.53 115.31 M 159.50 115.55 C 159.37 120.49 159.38 125.44 159.52 130.38 C 164.50 130.50 169.48 130.50 174.46 130.39 C 174.44 129.70 174.41 128.31 174.40 127.62 C 170.40 127.53 166.41 127.52 162.41 127.51 C 162.39 126.47 162.38 125.43 162.36 124.40 C 164.73 124.40 167.09 124.40 169.46 124.40 C 169.55 123.44 169.63 122.49 169.70 121.54 C 167.36 121.52 165.01 121.56 162.68 121.35 C 162.52 120.60 162.21 119.11 162.06 118.36 C 165.87 118.24 169.71 118.54 173.51 118.17 C 173.90 117.55 174.66 116.31 175.04 115.68 C 169.87 115.23 164.68 115.36 159.50 115.55 M 34.75 116.82 C 34.42 120.93 34.38 125.09 34.77 129.20 C 35.03 129.56 35.55 130.30 35.81 130.67 C 38.61 130.17 37.05 126.41 37.64 124.38 C 39.79 124.49 42.03 124.20 44.12 124.86 C 46.24 125.95 46.66 128.58 47.72 130.51 C 48.23 130.45 49.26 130.32 49.78 130.26 C 49.71 127.62 48.74 125.20 47.35 123.00 C 48.83 120.63 49.85 118.00 49.67 115.15 C 46.41 115.61 46.74 119.85 44.05 121.03 C 42.00 121.73 39.78 121.44 37.65 121.59 C 37.31 119.39 38.18 116.58 36.06 115.05 C 35.74 115.49 35.08 116.38 34.75 116.82 M 67.83 127.06 C 67.64 128.85 68.95 130.14 70.30 131.08 C 70.75 127.66 70.99 124.21 71.38 120.78 C 75.00 124.25 78.33 128.04 82.35 131.08 C 83.80 126.47 83.44 121.55 83.13 116.79 C 82.51 116.34 81.29 115.44 80.67 115.00 C 80.35 118.39 80.29 121.80 80.17 125.21 C 76.30 121.81 73.19 117.49 68.64 114.92 C 67.76 118.90 67.53 123.00 67.83 127.06 M 176.59 116.50 C 175.83 121.09 176.38 125.82 176.44 130.46 C 181.21 130.50 185.99 130.50 190.77 130.47 C 190.73 129.52 190.70 128.57 190.67 127.62 C 186.84 127.59 183.01 127.60 179.18 127.51 C 179.34 123.25 179.54 118.90 178.25 114.77 C 177.83 115.20 177.00 116.07 176.59 116.50 Z" />
<path fill="#020102" opacity="1.00" d=" M 22.45 118.50 C 25.57 115.97 30.56 119.19 29.84 123.04 C 30.23 126.83 25.08 128.98 22.33 126.68 C 19.44 125.00 19.55 120.14 22.45 118.50 Z" />
</g>
</svg>
