<?xml version="1.0" encoding="UTF-8" ?>
<!DOCTYPE svg PUBLIC "-//W3C//DTD SVG 1.1//EN" "http://www.w3.org/Graphics/SVG/1.1/DTD/svg11.dtd">
<svg width="250pt" height="250pt" viewBox="0 0 250 250" version="1.1" xmlns="http://www.w3.org/2000/svg">
<g id="#cececeff">
<path fill="#cecece" opacity="1.00" d=" M 78.29 70.19 C 82.26 63.93 89.19 58.40 97.01 59.19 C 101.82 59.32 106.13 61.63 110.29 63.80 C 114.92 62.69 118.98 59.25 123.98 59.20 C 129.72 58.57 134.62 61.99 139.73 63.90 C 145.56 60.72 152.22 57.85 158.98 59.66 C 167.01 62.34 173.56 69.58 174.83 78.03 C 175.80 82.15 174.64 86.35 173.42 90.28 C 180.14 97.07 186.60 104.43 190.63 113.18 C 192.88 117.93 193.56 123.65 191.44 128.56 C 189.07 134.31 184.58 138.84 179.98 142.88 C 176.78 145.73 172.89 147.75 169.98 150.93 C 166.58 154.53 164.05 159.04 163.20 163.94 C 162.36 167.76 163.16 171.90 161.33 175.49 C 158.65 181.67 152.55 185.47 146.43 187.62 C 132.44 192.38 116.84 192.26 102.98 187.09 C 96.70 184.72 90.65 180.23 88.73 173.51 C 87.74 169.10 88.28 164.38 86.56 160.13 C 84.66 155.31 81.59 150.71 77.07 148.01 C 69.73 142.91 62.40 136.84 58.79 128.44 C 56.11 122.41 58.06 115.64 61.13 110.17 C 65.26 102.83 70.76 96.30 76.76 90.42 C 74.63 83.82 74.43 76.21 78.29 70.19 M 81.17 82.08 C 81.14 86.51 83.59 90.36 86.02 93.87 C 97.40 91.40 108.25 84.00 112.78 73.00 C 107.98 68.92 102.35 65.56 95.99 64.82 C 87.66 65.55 80.47 73.65 81.17 82.08 M 116.04 67.90 C 117.32 69.13 118.55 70.41 119.60 71.84 C 114.33 86.79 100.29 97.66 84.84 100.34 C 82.28 100.13 81.52 95.97 79.19 96.35 C 73.04 102.79 66.95 109.79 64.02 118.35 C 62.48 122.50 64.08 126.96 66.57 130.36 C 71.62 137.41 78.93 142.38 86.17 146.95 C 96.13 152.92 106.80 157.85 118.04 160.86 C 122.60 162.14 127.48 162.18 132.05 160.92 C 142.16 158.25 151.78 153.96 160.88 148.86 C 168.08 144.70 175.15 140.04 180.87 133.94 C 184.22 130.11 187.71 125.31 186.61 119.92 C 185.30 113.90 181.59 108.74 177.86 103.96 C 175.39 101.19 173.30 97.98 170.20 95.84 C 168.78 97.54 167.54 100.48 164.94 100.21 C 150.42 97.58 137.16 87.68 131.50 73.91 C 130.08 71.33 132.47 69.37 134.23 67.91 C 131.25 66.72 128.28 65.07 124.98 65.13 C 121.79 65.20 118.93 66.74 116.04 67.90 M 137.47 73.09 C 142.09 84.04 152.82 91.21 164.09 93.94 C 167.37 89.77 170.01 84.47 169.08 79.03 C 168.01 71.95 162.00 66.00 154.99 64.78 C 148.33 65.32 142.39 68.77 137.47 73.09 M 132.98 166.77 C 128.35 167.98 123.43 168.11 118.75 167.12 C 109.24 164.94 100.27 160.97 91.51 156.77 C 93.49 160.96 93.72 165.58 94.05 170.12 C 94.51 175.71 99.64 179.32 104.39 181.31 C 117.21 186.37 131.81 186.48 144.80 181.96 C 149.58 180.17 154.69 177.24 156.40 172.11 C 157.02 166.80 157.10 161.26 159.49 156.34 C 150.98 160.58 142.23 164.46 132.98 166.77 Z" />
<path fill="#cecece" opacity="1.00" d=" M 91.41 73.37 C 94.74 70.88 100.15 73.79 99.89 77.95 C 100.43 82.34 94.78 85.38 91.29 82.84 C 87.85 80.81 87.94 75.33 91.41 73.37 Z" />
<path fill="#cecece" opacity="1.00" d=" M 153.21 73.17 C 157.03 70.81 162.40 74.63 161.45 79.02 C 161.02 83.11 155.56 85.23 152.47 82.58 C 149.24 80.37 149.66 74.83 153.21 73.17 Z" />
<path fill="#cecece" opacity="1.00" d=" M 77.03 114.10 C 78.73 112.37 81.14 111.75 83.45 112.56 C 83.58 113.87 84.18 115.29 83.52 116.55 C 82.21 117.81 80.69 118.82 79.29 119.95 C 94.05 128.54 110.52 136.13 127.98 135.46 C 143.37 134.29 157.79 127.74 170.92 119.98 C 169.28 118.11 165.54 117.10 166.38 114.02 C 166.84 112.04 169.35 111.73 170.92 112.50 C 177.28 115.88 180.64 124.11 177.73 130.85 C 177.06 133.19 173.52 133.08 172.44 131.12 C 172.09 129.36 172.64 127.60 172.81 125.86 C 157.67 134.54 140.81 141.83 123.03 141.39 C 106.69 140.59 91.36 133.84 77.35 125.82 C 77.57 127.87 78.84 130.21 77.13 132.00 C 75.71 132.95 73.50 132.83 72.67 131.17 C 70.00 125.35 72.00 117.99 77.03 114.10 Z" />
</g>
</svg>
