<?xml version="1.0" encoding="UTF-8" ?>
<!DOCTYPE svg PUBLIC "-//W3C//DTD SVG 1.1//EN" "http://www.w3.org/Graphics/SVG/1.1/DTD/svg11.dtd">
<svg width="250pt" height="243pt" viewBox="0 0 250 243" version="1.1" xmlns="http://www.w3.org/2000/svg">
<g id="#ffffffff">
<path fill="#ffffff" opacity="1.00" d=" M 0.00 0.00 L 250.00 0.00 L 250.00 243.00 L 0.00 243.00 L 0.00 0.00 M 97.19 8.20 C 76.57 12.65 57.28 22.98 42.10 37.62 C 25.91 53.23 14.15 73.55 9.42 95.58 C 6.43 109.00 5.55 122.95 7.51 136.57 C 10.97 165.81 26.41 193.26 49.30 211.72 C 75.86 233.58 112.37 242.06 145.99 235.53 C 172.71 230.61 197.42 215.82 214.47 194.70 C 234.11 170.80 243.15 138.77 239.45 108.11 C 236.35 78.11 220.60 49.72 197.03 30.95 C 169.58 8.53 131.60 0.38 97.19 8.20 Z" />
<path fill="#ffffff" opacity="1.00" d=" M 153.38 76.38 C 155.82 74.39 158.45 72.64 161.27 71.22 C 155.91 78.32 147.63 82.20 141.10 88.04 C 142.57 89.25 144.07 90.43 145.60 91.58 C 149.57 94.49 153.43 97.59 157.77 99.96 C 158.88 101.60 159.89 103.31 160.89 105.03 C 155.86 102.24 151.61 98.31 146.92 95.03 C 143.99 92.98 141.32 90.59 138.86 88.00 C 143.26 83.59 148.57 80.30 153.38 76.38 Z" />
<path fill="#ffffff" opacity="1.00" d=" M 167.54 75.59 C 169.83 73.71 172.37 72.15 175.12 71.05 C 172.32 75.48 167.63 78.06 163.89 81.57 C 160.61 83.16 157.52 85.17 154.99 87.81 C 155.28 88.17 155.86 88.89 156.15 89.24 C 157.87 90.72 159.74 92.02 161.63 93.28 C 165.94 97.01 171.10 99.91 174.37 104.71 C 171.92 103.56 169.56 102.20 167.38 100.59 C 162.31 96.32 156.50 92.93 151.99 88.01 C 156.67 83.26 162.41 79.80 167.54 75.59 Z" />
</g>
<g id="#370125ff">
<path fill="#370125" opacity="1.00" d=" M 97.19 8.20 C 131.60 0.38 169.58 8.53 197.03 30.95 C 220.60 49.72 236.35 78.11 239.45 108.11 C 243.15 138.77 234.11 170.80 214.47 194.70 C 214.00 194.11 213.07 192.94 212.60 192.36 C 207.65 194.66 205.27 199.88 201.06 203.09 C 197.31 206.09 193.19 208.56 189.25 211.29 C 184.42 214.49 179.86 218.17 174.59 220.63 C 157.12 228.18 138.13 233.06 118.99 232.10 C 104.46 230.69 90.00 227.36 76.64 221.40 C 67.03 216.38 57.54 210.89 49.54 203.49 C 40.97 196.93 34.85 187.92 28.81 179.12 C 21.22 167.95 16.92 154.86 14.16 141.74 C 11.74 130.48 10.77 118.82 12.31 107.37 C 14.00 97.67 15.92 87.95 19.62 78.78 C 23.07 67.67 30.01 58.15 36.96 48.98 C 39.94 44.99 44.07 42.08 47.22 38.23 C 45.51 38.02 43.81 37.82 42.10 37.62 C 57.28 22.98 76.57 12.65 97.19 8.20 M 109.39 13.44 C 98.39 14.99 87.46 17.58 77.42 22.45 C 72.36 25.33 67.45 28.47 62.40 31.39 C 57.00 34.48 53.33 39.66 48.54 43.52 C 44.34 46.98 40.31 50.70 37.07 55.09 C 34.30 58.81 32.54 63.14 29.96 66.97 C 27.80 70.22 25.38 73.40 24.23 77.19 C 20.12 89.74 16.24 102.69 16.66 116.04 C 15.57 127.44 17.55 138.85 20.10 149.93 C 22.42 157.46 24.70 165.20 29.26 171.74 C 32.08 175.96 34.39 180.49 37.37 184.61 C 41.82 191.05 47.81 196.18 53.21 201.79 C 59.04 207.71 67.08 210.47 73.68 215.32 C 78.47 218.78 84.26 220.22 89.68 222.33 C 94.69 224.21 100.03 224.79 105.25 225.75 C 120.53 228.49 136.26 227.39 151.43 224.46 C 157.68 223.29 163.41 220.44 169.39 218.38 C 174.58 216.68 178.38 212.52 183.29 210.29 C 189.38 207.42 194.62 203.08 199.30 198.30 C 204.07 193.38 209.42 188.86 212.83 182.82 C 215.23 178.59 217.47 174.26 220.32 170.30 C 224.39 164.67 226.36 157.93 228.38 151.38 C 231.18 142.09 231.96 132.37 232.67 122.75 C 232.65 108.64 231.14 94.33 225.89 81.12 C 223.42 73.27 218.18 66.84 214.32 59.68 C 210.27 52.67 204.61 46.77 198.59 41.41 C 192.89 35.53 186.14 30.80 178.83 27.15 C 165.62 18.30 149.72 14.30 134.04 13.00 C 125.83 13.00 117.56 12.49 109.39 13.44 Z" />
</g>
<g id="#630141ff">
<path fill="#630141" opacity="1.00" d=" M 109.39 13.44 C 117.56 12.49 125.83 13.00 134.04 13.00 C 149.72 14.30 165.62 18.30 178.83 27.15 C 186.14 30.80 192.89 35.53 198.59 41.41 C 204.61 46.77 210.27 52.67 214.32 59.68 C 218.18 66.84 223.42 73.27 225.89 81.12 C 231.14 94.33 232.65 108.64 232.67 122.75 C 231.96 132.37 231.18 142.09 228.38 151.38 C 226.36 157.93 224.39 164.67 220.32 170.30 C 217.47 174.26 215.23 178.59 212.83 182.82 C 209.42 188.86 204.07 193.38 199.30 198.30 C 194.62 203.08 189.38 207.42 183.29 210.29 C 178.38 212.52 174.58 216.68 169.39 218.38 C 163.41 220.44 157.68 223.29 151.43 224.46 C 136.26 227.39 120.53 228.49 105.25 225.75 C 100.03 224.79 94.69 224.21 89.68 222.33 C 84.26 220.22 78.47 218.78 73.68 215.32 C 67.08 210.47 59.04 207.71 53.21 201.79 C 47.81 196.18 41.82 191.05 37.37 184.61 C 34.39 180.49 32.08 175.96 29.26 171.74 C 24.70 165.20 22.42 157.46 20.10 149.93 C 17.55 138.85 15.57 127.44 16.66 116.04 C 16.24 102.69 20.12 89.74 24.23 77.19 C 25.38 73.40 27.80 70.22 29.96 66.97 C 32.54 63.14 34.30 58.81 37.07 55.09 C 40.31 50.70 44.34 46.98 48.54 43.52 C 53.33 39.66 57.00 34.48 62.40 31.39 C 67.45 28.47 72.36 25.33 77.42 22.45 C 87.46 17.58 98.39 14.99 109.39 13.44 M 117.42 17.54 C 100.43 18.74 83.54 23.85 69.27 33.26 C 65.34 35.57 61.44 37.98 58.15 41.16 C 39.54 56.52 26.44 78.67 22.60 102.55 C 17.19 132.73 26.15 165.37 47.06 187.93 C 57.38 200.53 71.60 209.23 86.40 215.62 C 94.96 218.78 103.88 221.15 112.99 221.97 C 144.09 225.60 176.89 214.33 198.38 191.39 C 203.75 186.31 208.47 180.59 212.19 174.19 C 232.95 141.81 232.86 97.40 211.83 65.17 C 207.64 57.66 201.47 51.60 195.42 45.59 C 175.13 25.48 145.74 15.68 117.42 17.54 Z" />
</g>
<g id="#ae057aff">
<path fill="#ae057a" opacity="1.00" d=" M 117.42 17.54 C 145.74 15.68 175.13 25.48 195.42 45.59 C 201.47 51.60 207.64 57.66 211.83 65.17 C 232.86 97.40 232.95 141.81 212.19 174.19 C 208.47 180.59 203.75 186.31 198.38 191.39 C 176.89 214.33 144.09 225.60 112.99 221.97 C 103.88 221.15 94.96 218.78 86.40 215.62 C 71.60 209.23 57.38 200.53 47.06 187.93 C 26.15 165.37 17.19 132.73 22.60 102.55 C 26.44 78.67 39.54 56.52 58.15 41.16 C 61.44 37.98 65.34 35.57 69.27 33.26 C 83.54 23.85 100.43 18.74 117.42 17.54 M 112.35 19.16 C 103.40 20.52 94.41 22.34 86.09 26.02 C 54.88 38.57 30.45 67.34 24.25 100.52 C 21.96 108.49 22.77 116.81 22.60 124.98 C 22.52 138.45 27.00 151.42 32.33 163.62 C 41.72 182.78 57.26 198.83 75.91 209.16 C 84.81 213.60 94.16 217.31 103.94 219.23 C 123.46 223.68 144.21 221.32 162.66 213.76 C 173.11 210.13 182.27 203.70 190.80 196.80 C 206.31 183.21 218.41 165.18 223.14 144.97 C 226.85 131.67 227.23 117.63 225.15 104.03 C 220.58 73.23 200.16 45.78 173.07 30.85 C 164.16 26.50 154.97 22.37 145.13 20.68 C 134.39 18.27 123.27 18.14 112.35 19.16 Z" />
</g>
<g id="#d30f98ff">
<path fill="#d30f98" opacity="1.00" d=" M 112.35 19.16 C 123.27 18.14 134.39 18.27 145.13 20.68 C 154.97 22.37 164.16 26.50 173.07 30.85 C 200.16 45.78 220.58 73.23 225.15 104.03 C 227.23 117.63 226.85 131.67 223.14 144.97 C 218.41 165.18 206.31 183.21 190.80 196.80 C 182.27 203.70 173.11 210.13 162.66 213.76 C 144.21 221.32 123.46 223.68 103.94 219.23 C 94.16 217.31 84.81 213.60 75.91 209.16 C 57.26 198.83 41.72 182.78 32.33 163.62 C 27.00 151.42 22.52 138.45 22.60 124.98 C 22.77 116.81 21.96 108.49 24.25 100.52 C 30.45 67.34 54.88 38.57 86.09 26.02 C 94.41 22.34 103.40 20.52 112.35 19.16 M 113.35 21.13 C 81.55 24.07 52.17 43.87 36.72 71.70 C 28.52 86.37 24.04 103.16 24.31 120.00 C 23.94 143.32 32.65 166.53 47.82 184.19 C 64.30 203.71 88.51 216.53 113.96 219.02 C 132.75 220.89 152.17 217.67 169.05 209.10 C 191.41 198.15 209.41 178.48 218.15 155.15 C 226.74 132.79 226.77 107.20 218.16 84.85 C 209.97 62.91 193.55 44.21 173.04 32.95 C 155.06 22.87 133.80 18.75 113.35 21.13 Z" />
<path fill="#d30f98" opacity="1.00" d=" M 107.39 25.52 C 115.82 23.86 124.45 24.28 132.99 24.45 C 155.83 26.25 177.82 36.81 193.71 53.29 C 208.75 68.41 218.32 88.80 220.42 110.01 C 221.00 121.64 221.05 133.51 217.69 144.78 C 212.04 166.55 198.04 185.80 179.66 198.64 C 166.78 207.71 151.56 213.21 136.00 215.28 C 121.61 216.50 106.85 215.70 93.15 210.80 C 68.77 202.59 48.13 184.16 37.04 160.97 C 31.47 148.80 27.84 135.47 28.26 122.00 C 28.03 112.33 28.58 102.49 31.77 93.28 C 41.23 58.71 72.12 31.38 107.39 25.52 M 112.36 27.38 C 86.32 30.77 62.01 45.53 47.11 67.16 C 35.50 83.56 29.69 103.94 30.59 124.00 C 31.62 156.38 51.46 186.99 79.94 202.11 C 98.10 211.87 119.55 215.58 139.89 212.02 C 154.54 209.53 168.81 203.80 180.55 194.61 C 200.39 180.21 213.82 157.47 217.38 133.27 C 223.18 96.75 204.21 58.13 172.23 39.78 C 154.45 29.07 132.92 24.68 112.36 27.38 Z" />
</g>
<g id="#f8f1f6ff">
<path fill="#f8f1f6" opacity="1.00" d=" M 113.35 21.13 C 133.80 18.75 155.06 22.87 173.04 32.95 C 193.55 44.21 209.97 62.91 218.16 84.85 C 226.77 107.20 226.74 132.79 218.15 155.15 C 209.41 178.48 191.41 198.15 169.05 209.10 C 152.17 217.67 132.75 220.89 113.96 219.02 C 88.51 216.53 64.30 203.71 47.82 184.19 C 32.65 166.53 23.94 143.32 24.31 120.00 C 24.04 103.16 28.52 86.37 36.72 71.70 C 52.17 43.87 81.55 24.07 113.35 21.13 M 107.39 25.52 C 72.12 31.38 41.23 58.71 31.77 93.28 C 28.58 102.49 28.03 112.33 28.26 122.00 C 27.84 135.47 31.47 148.80 37.04 160.97 C 48.13 184.16 68.77 202.59 93.15 210.80 C 106.85 215.70 121.61 216.50 136.00 215.28 C 151.56 213.21 166.78 207.71 179.66 198.64 C 198.04 185.80 212.04 166.55 217.69 144.78 C 221.05 133.51 221.00 121.64 220.42 110.01 C 218.32 88.80 208.75 68.41 193.71 53.29 C 177.82 36.81 155.83 26.25 132.99 24.45 C 124.45 24.28 115.82 23.86 107.39 25.52 Z" />
</g>
<g id="#76014fff">
<path fill="#76014f" opacity="1.00" d=" M 112.36 27.38 C 132.92 24.68 154.45 29.07 172.23 39.78 C 204.21 58.13 223.18 96.75 217.38 133.27 C 213.82 157.47 200.39 180.21 180.55 194.61 C 168.81 203.80 154.54 209.53 139.89 212.02 C 119.55 215.58 98.10 211.87 79.94 202.11 C 51.46 186.99 31.62 156.38 30.59 124.00 C 29.69 103.94 35.50 83.56 47.11 67.16 C 62.01 45.53 86.32 30.77 112.36 27.38 M 123.17 29.52 C 113.22 29.86 103.37 31.59 93.97 34.89 C 88.26 36.27 83.56 39.90 78.37 42.44 C 72.97 45.08 68.64 49.31 63.83 52.82 C 57.57 57.30 53.64 64.08 49.26 70.23 C 45.53 76.93 40.61 83.07 38.42 90.52 C 33.07 105.56 31.31 122.15 35.21 137.74 C 36.36 147.42 41.37 155.91 45.63 164.46 C 48.80 170.65 53.68 175.69 57.67 181.32 C 60.50 185.53 65.20 187.77 68.95 191.01 C 73.50 194.51 77.68 198.64 83.02 200.94 C 88.98 203.56 94.99 206.23 101.41 207.53 C 110.16 209.28 119.00 211.52 127.99 210.73 C 139.75 209.67 151.60 207.42 162.27 202.17 C 167.43 199.50 173.21 197.63 177.27 193.27 C 181.41 189.00 187.11 186.57 190.89 181.92 C 195.26 174.71 202.11 169.26 205.36 161.35 C 211.10 150.97 213.95 139.27 215.51 127.59 C 215.82 120.52 215.16 113.42 214.48 106.39 C 211.45 91.80 206.59 76.85 196.35 65.65 C 191.98 60.39 188.16 54.44 182.24 50.75 C 175.10 46.21 168.36 40.97 160.72 37.30 C 148.91 32.33 136.07 28.83 123.17 29.52 Z" />
</g>
<g id="#5d013dff">
<path fill="#5d013d" opacity="1.00" d=" M 123.17 29.52 C 136.07 28.83 148.91 32.33 160.72 37.30 C 168.36 40.97 175.10 46.21 182.24 50.75 C 188.16 54.44 191.98 60.39 196.35 65.65 C 206.59 76.85 211.45 91.80 214.48 106.39 C 215.16 113.42 215.82 120.52 215.51 127.59 C 213.95 139.27 211.10 150.97 205.36 161.35 C 202.11 169.26 195.26 174.71 190.89 181.92 C 187.11 186.57 181.41 189.00 177.27 193.27 C 173.21 197.63 167.43 199.50 162.27 202.17 C 151.60 207.42 139.75 209.67 127.99 210.73 C 119.00 211.52 110.16 209.28 101.41 207.53 C 94.99 206.23 88.98 203.56 83.02 200.94 C 77.68 198.64 73.50 194.51 68.95 191.01 C 65.20 187.77 60.50 185.53 57.67 181.32 C 53.68 175.69 48.80 170.65 45.63 164.46 C 41.37 155.91 36.36 147.42 35.21 137.74 C 31.31 122.15 33.07 105.56 38.42 90.52 C 40.61 83.07 45.53 76.93 49.26 70.23 C 53.64 64.08 57.57 57.30 63.83 52.82 C 68.64 49.31 72.97 45.08 78.37 42.44 C 83.56 39.90 88.26 36.27 93.97 34.89 C 103.37 31.59 113.22 29.86 123.17 29.52 M 118.39 33.33 C 112.14 33.83 106.02 35.28 99.97 36.90 C 93.32 38.62 87.49 42.41 81.32 45.30 C 68.75 51.32 58.85 61.73 51.34 73.30 C 49.00 77.38 47.28 81.79 44.78 85.80 C 41.03 91.69 39.83 98.67 38.42 105.39 C 36.02 116.73 36.92 128.48 39.18 139.77 C 41.18 149.02 46.33 157.07 50.65 165.34 C 52.86 169.62 56.13 173.18 58.98 177.02 C 63.41 182.97 69.90 186.82 75.51 191.51 C 87.51 201.25 103.02 205.13 118.10 206.74 C 130.61 206.80 143.49 206.30 155.17 201.31 C 165.68 197.80 174.44 190.80 183.04 184.05 C 188.00 180.30 191.21 174.86 195.10 170.12 C 201.76 161.56 206.97 151.78 209.17 141.09 C 214.00 123.01 212.14 103.42 204.70 86.31 C 201.04 78.38 196.32 70.99 190.77 64.24 C 187.17 58.87 181.85 55.08 176.82 51.16 C 170.05 45.80 161.96 42.60 154.36 38.63 C 142.94 34.43 130.59 32.01 118.39 33.33 Z" />
</g>
<g id="#40012bff">
<path fill="#40012b" opacity="1.00" d=" M 118.39 33.33 C 130.59 32.01 142.94 34.43 154.36 38.63 C 161.96 42.60 170.05 45.80 176.82 51.16 C 181.85 55.08 187.17 58.87 190.77 64.24 C 196.32 70.99 201.04 78.38 204.70 86.31 C 212.14 103.42 214.00 123.01 209.17 141.09 C 206.97 151.78 201.76 161.56 195.10 170.12 C 191.21 174.86 188.00 180.30 183.04 184.05 C 174.44 190.80 165.68 197.80 155.17 201.31 C 143.49 206.30 130.61 206.80 118.10 206.74 C 103.02 205.13 87.51 201.25 75.51 191.51 C 69.90 186.82 63.41 182.97 58.98 177.02 C 56.13 173.18 52.86 169.62 50.65 165.34 C 46.33 157.07 41.18 149.02 39.18 139.77 C 36.92 128.48 36.02 116.73 38.42 105.39 C 39.83 98.67 41.03 91.69 44.78 85.80 C 47.28 81.79 49.00 77.38 51.34 73.30 C 58.85 61.73 68.75 51.32 81.32 45.30 C 87.49 42.41 93.32 38.62 99.97 36.90 C 106.02 35.28 112.14 33.83 118.39 33.33 M 111.38 37.37 C 99.59 40.06 88.39 45.04 77.85 50.91 C 73.04 53.54 69.42 57.76 65.33 61.32 C 61.76 64.44 58.55 68.00 56.10 72.08 C 48.89 83.98 42.76 96.86 40.64 110.73 C 38.85 124.62 41.30 139.01 47.43 151.59 C 51.16 159.24 54.30 167.46 60.28 173.72 C 66.45 180.27 73.03 186.66 80.99 191.03 C 85.52 193.50 89.62 196.84 94.60 198.41 C 98.74 199.76 102.98 200.78 107.20 201.84 C 113.99 203.58 121.06 203.07 128.00 203.17 C 137.00 203.43 145.82 201.01 154.30 198.27 C 163.95 193.83 173.14 188.17 181.12 181.12 C 189.23 174.29 194.72 165.05 200.01 156.01 C 208.25 141.27 209.20 123.69 207.67 107.21 C 205.86 98.32 203.50 89.23 198.39 81.60 C 195.39 76.94 193.56 71.45 189.31 67.69 C 182.24 61.07 176.13 53.13 167.32 48.70 C 159.99 45.07 152.58 41.40 144.67 39.23 C 133.92 35.90 122.44 36.53 111.38 37.37 Z" />
</g>
<g id="#26011aff">
<path fill="#26011a" opacity="1.00" d=" M 111.38 37.37 C 122.44 36.53 133.92 35.90 144.67 39.23 C 152.58 41.40 159.99 45.07 167.32 48.70 C 176.13 53.13 182.24 61.07 189.31 67.69 C 193.56 71.45 195.39 76.94 198.39 81.60 C 203.50 89.23 205.86 98.32 207.67 107.21 C 209.20 123.69 208.25 141.27 200.01 156.01 C 194.72 165.05 189.23 174.29 181.12 181.12 C 173.14 188.17 163.95 193.83 154.30 198.27 C 145.82 201.01 137.00 203.43 128.00 203.17 C 121.06 203.07 113.99 203.58 107.20 201.84 C 102.98 200.78 98.74 199.76 94.60 198.41 C 89.62 196.84 85.52 193.50 80.99 191.03 C 73.03 186.66 66.45 180.27 60.28 173.72 C 54.30 167.46 51.16 159.24 47.43 151.59 C 41.30 139.01 38.85 124.62 40.64 110.73 C 42.76 96.86 48.89 83.98 56.10 72.08 C 58.55 68.00 61.76 64.44 65.33 61.32 C 69.42 57.76 73.04 53.54 77.85 50.91 C 88.39 45.04 99.59 40.06 111.38 37.37 M 118.38 40.42 C 103.25 42.95 88.27 47.78 75.55 56.54 C 71.70 59.35 69.36 63.71 65.45 66.47 C 59.73 70.75 56.82 77.45 53.55 83.57 C 51.10 88.09 49.36 92.95 47.89 97.87 C 46.14 103.78 44.19 109.74 44.04 115.96 C 43.22 134.04 49.58 151.79 59.12 166.93 C 62.16 171.45 66.60 174.75 70.23 178.77 C 76.31 185.49 84.75 189.26 92.65 193.37 C 102.86 198.72 114.59 200.36 126.00 200.02 C 138.41 200.25 151.02 197.23 161.50 190.45 C 164.93 188.16 168.59 186.23 172.14 184.14 C 176.71 181.49 179.54 176.84 183.65 173.63 C 186.87 171.08 189.10 167.60 191.11 164.08 C 194.33 158.30 197.81 152.63 200.53 146.59 C 204.91 134.70 205.70 121.76 204.69 109.22 C 202.46 96.02 196.34 83.90 189.42 72.58 C 187.65 69.73 184.97 67.66 182.45 65.53 C 178.81 62.51 176.54 58.07 172.43 55.58 C 168.49 53.12 164.34 51.01 160.25 48.83 C 153.39 45.17 145.71 43.59 138.21 41.81 C 131.69 40.69 125.00 39.48 118.38 40.42 Z" />
</g>
<g id="#1e0114ff">
<path fill="#1e0114" opacity="1.00" d=" M 9.42 95.58 C 14.15 73.55 25.91 53.23 42.10 37.62 C 43.81 37.82 45.51 38.02 47.22 38.23 C 44.07 42.08 39.94 44.99 36.96 48.98 C 30.01 58.15 23.07 67.67 19.62 78.78 C 15.92 87.95 14.00 97.67 12.31 107.37 C 10.77 118.82 11.74 130.48 14.16 141.74 C 16.92 154.86 21.22 167.95 28.81 179.12 C 34.85 187.92 40.97 196.93 49.54 203.49 C 57.54 210.89 67.03 216.38 76.64 221.40 C 90.00 227.36 104.46 230.69 118.99 232.10 C 138.13 233.06 157.12 228.18 174.59 220.63 C 179.86 218.17 184.42 214.49 189.25 211.29 C 193.19 208.56 197.31 206.09 201.06 203.09 C 205.27 199.88 207.65 194.66 212.60 192.36 C 213.07 192.94 214.00 194.11 214.47 194.70 C 197.42 215.82 172.71 230.61 145.99 235.53 C 112.37 242.06 75.86 233.58 49.30 211.72 C 26.41 193.26 10.97 165.81 7.51 136.57 C 5.55 122.95 6.43 109.00 9.42 95.58 Z" />
</g>
<g id="#11000cff">
<path fill="#11000c" opacity="1.00" d=" M 118.38 40.42 C 125.00 39.48 131.69 40.69 138.21 41.81 C 145.71 43.59 153.39 45.17 160.25 48.83 C 164.34 51.01 168.49 53.12 172.43 55.58 C 176.54 58.07 178.81 62.51 182.45 65.53 C 184.97 67.66 187.65 69.73 189.42 72.58 C 196.34 83.90 202.46 96.02 204.69 109.22 C 205.70 121.76 204.91 134.70 200.53 146.59 C 197.81 152.63 194.33 158.30 191.11 164.08 C 189.10 167.60 186.87 171.08 183.65 173.63 C 179.54 176.84 176.71 181.49 172.14 184.14 C 168.59 186.23 164.93 188.16 161.50 190.45 C 151.02 197.23 138.41 200.25 126.00 200.02 C 114.59 200.36 102.86 198.72 92.65 193.37 C 84.75 189.26 76.31 185.49 70.23 178.77 C 66.60 174.75 62.16 171.45 59.12 166.93 C 49.58 151.79 43.22 134.04 44.04 115.96 C 44.19 109.74 46.14 103.78 47.89 97.87 C 49.36 92.95 51.10 88.09 53.55 83.57 C 56.82 77.45 59.73 70.75 65.45 66.47 C 69.36 63.71 71.70 59.35 75.55 56.54 C 88.27 47.78 103.25 42.95 118.38 40.42 M 120.59 45.56 C 115.26 46.25 109.71 45.59 104.60 47.59 C 93.95 50.89 82.53 54.64 75.15 63.52 C 76.45 64.09 77.75 64.67 79.09 65.16 C 76.89 65.10 74.69 65.77 72.78 66.82 C 70.81 68.91 70.49 72.13 70.95 74.85 C 69.94 73.12 68.71 71.52 67.41 70.00 C 63.88 74.31 61.12 79.19 57.60 83.51 C 53.64 91.52 51.13 100.24 50.13 109.13 C 48.49 116.67 49.00 124.41 50.03 132.00 C 50.92 141.55 54.74 150.51 59.06 158.96 C 61.88 164.57 67.12 168.23 71.03 172.99 C 74.35 176.65 77.92 180.16 82.04 182.91 C 89.76 187.27 97.93 190.89 106.46 193.34 C 112.82 195.01 119.46 195.06 126.00 195.03 C 133.57 194.92 141.30 194.21 148.38 191.35 C 156.56 187.92 165.01 184.64 171.91 178.92 C 176.16 175.16 179.38 170.41 183.60 166.61 C 187.78 163.05 189.49 157.70 192.01 153.01 C 196.09 145.53 198.31 137.20 199.88 128.88 C 202.44 117.11 200.19 104.72 195.22 93.88 C 192.68 87.73 190.52 81.10 185.73 76.24 C 183.69 73.65 180.76 76.42 178.93 77.88 C 180.81 74.89 181.58 70.74 179.25 67.76 C 176.88 64.54 172.41 64.96 168.87 64.89 C 170.14 64.08 171.23 63.02 172.35 62.01 C 168.81 57.89 163.80 55.58 159.31 52.71 C 154.99 49.95 149.86 49.22 145.02 47.88 C 137.14 45.54 128.77 44.39 120.59 45.56 Z" />
</g>
<g id="#000000ff">
<path fill="#000000" opacity="1.00" d=" M 120.59 45.56 C 128.77 44.39 137.14 45.54 145.02 47.88 C 149.86 49.22 154.99 49.95 159.31 52.71 C 163.80 55.58 168.81 57.89 172.35 62.01 C 171.23 63.02 170.14 64.08 168.87 64.89 C 164.58 65.20 160.07 64.48 155.95 65.97 C 151.46 68.27 147.71 71.72 143.59 74.59 C 139.52 77.84 134.87 81.14 132.98 86.21 C 131.52 90.59 135.12 94.25 138.03 96.97 C 142.88 101.19 148.06 105.03 153.30 108.74 C 157.98 112.26 164.00 110.34 169.36 110.81 C 172.35 110.71 176.07 111.92 178.39 109.39 C 180.57 107.36 180.75 104.04 179.79 101.38 C 177.92 95.31 170.83 93.17 168.66 87.24 C 172.07 84.10 175.53 81.02 178.93 77.88 C 180.76 76.42 183.69 73.65 185.73 76.24 C 190.52 81.10 192.68 87.73 195.22 93.88 C 200.19 104.72 202.44 117.11 199.88 128.88 C 198.31 137.20 196.09 145.53 192.01 153.01 C 189.49 157.70 187.78 163.05 183.60 166.61 C 179.38 170.41 176.16 175.16 171.91 178.92 C 165.01 184.64 156.56 187.92 148.38 191.35 C 141.30 194.21 133.57 194.92 126.00 195.03 C 119.46 195.06 112.82 195.01 106.46 193.34 C 97.93 190.89 89.76 187.27 82.04 182.91 C 77.92 180.16 74.35 176.65 71.03 172.99 C 67.12 168.23 61.88 164.57 59.06 158.96 C 54.74 150.51 50.92 141.55 50.03 132.00 C 49.00 124.41 48.49 116.67 50.13 109.13 C 51.13 100.24 53.64 91.52 57.60 83.51 C 61.12 79.19 63.88 74.31 67.41 70.00 C 68.71 71.52 69.94 73.12 70.95 74.85 C 73.86 80.23 79.42 83.31 83.19 87.99 C 80.33 91.53 76.71 94.32 73.52 97.53 C 70.74 100.34 69.52 105.45 72.47 108.56 C 75.23 111.49 79.58 110.51 83.16 110.65 C 87.79 110.42 92.92 111.85 97.07 109.11 C 102.52 105.69 107.50 101.57 112.47 97.50 C 115.74 94.78 119.09 90.79 117.98 86.22 C 116.14 80.79 110.85 77.77 106.66 74.30 C 102.42 71.20 98.70 67.03 93.56 65.45 C 88.75 64.98 83.88 66.22 79.09 65.16 C 77.75 64.67 76.45 64.09 75.15 63.52 C 82.53 54.64 93.95 50.89 104.60 47.59 C 109.71 45.59 115.26 46.25 120.59 45.56 M 159.42 161.42 C 149.63 167.02 138.23 169.43 127.02 169.20 C 113.52 168.58 99.93 165.54 88.01 159.02 C 84.78 157.55 81.28 155.15 77.61 156.53 C 77.83 157.25 78.26 158.69 78.48 159.41 L 79.08 159.67 C 79.93 161.18 80.99 162.63 82.63 163.35 C 97.84 171.12 114.86 175.88 132.02 175.34 C 145.59 174.41 159.82 170.58 169.72 160.75 C 171.50 159.30 171.05 156.96 170.99 154.96 C 166.08 154.77 163.32 159.29 159.42 161.42 Z" />
</g>
<g id="#021633ff">
<path fill="#021633" opacity="1.00" d=" M 72.78 66.82 C 74.69 65.77 76.89 65.10 79.09 65.16 C 83.88 66.22 88.75 64.98 93.56 65.45 C 98.70 67.03 102.42 71.20 106.66 74.30 C 110.85 77.77 116.14 80.79 117.98 86.22 C 119.09 90.79 115.74 94.78 112.47 97.50 C 107.50 101.57 102.52 105.69 97.07 109.11 C 92.92 111.85 87.79 110.42 83.16 110.65 C 79.58 110.51 75.23 111.49 72.47 108.56 C 69.52 105.45 70.74 100.34 73.52 97.53 C 76.71 94.32 80.33 91.53 83.19 87.99 C 79.42 83.31 73.86 80.23 70.95 74.85 C 70.49 72.13 70.81 68.91 72.78 66.82 M 73.92 69.95 C 72.28 73.15 75.65 76.18 77.69 78.30 C 80.82 81.65 86.45 83.71 86.80 88.86 C 84.60 94.07 77.88 95.50 75.82 100.90 C 73.50 102.58 73.97 105.62 74.80 107.97 C 78.37 107.94 81.67 106.52 85.08 105.73 C 87.40 106.61 89.66 107.69 92.15 107.99 C 93.87 106.84 95.72 105.83 97.14 104.30 C 101.97 102.49 105.57 98.65 109.66 95.67 C 111.98 93.62 115.22 91.49 115.02 88.00 C 115.35 84.96 112.64 83.09 110.60 81.39 C 105.13 77.16 99.88 72.58 93.82 69.22 C 89.88 66.50 85.63 71.32 81.49 69.42 C 79.02 69.08 75.37 66.80 73.92 69.95 Z" />
</g>
<g id="#031531ff">
<path fill="#031531" opacity="1.00" d=" M 155.95 65.97 C 160.07 64.48 164.58 65.20 168.87 64.89 C 172.41 64.96 176.88 64.54 179.25 67.76 C 181.58 70.74 180.81 74.89 178.93 77.88 C 175.53 81.02 172.07 84.10 168.66 87.24 C 170.83 93.17 177.92 95.31 179.79 101.38 C 180.75 104.04 180.57 107.36 178.39 109.39 C 176.07 111.92 172.35 110.71 169.36 110.81 C 164.00 110.34 157.98 112.26 153.30 108.74 C 148.06 105.03 142.88 101.19 138.03 96.97 C 135.12 94.25 131.52 90.59 132.98 86.21 C 134.87 81.14 139.52 77.84 143.59 74.59 C 147.71 71.72 151.46 68.27 155.95 65.97 M 162.24 68.18 L 162.42 68.84 C 161.63 68.90 160.04 69.03 159.24 69.09 C 154.97 69.11 151.83 72.22 148.60 74.57 C 144.87 77.48 140.91 80.18 137.72 83.69 C 135.06 86.38 135.80 91.07 138.42 93.53 C 141.14 96.21 144.39 98.25 147.35 100.65 C 151.05 103.41 154.63 106.71 159.20 107.91 C 162.53 108.85 165.37 105.51 168.69 106.57 C 171.61 107.28 174.57 108.04 177.60 107.58 C 177.62 105.46 177.85 103.18 176.71 101.27 C 174.73 97.00 170.07 95.25 166.85 92.15 C 165.00 90.41 164.23 87.17 166.26 85.24 C 170.04 81.22 175.48 78.51 177.24 72.89 C 178.45 70.00 174.69 67.17 172.31 69.27 C 168.93 69.60 165.17 70.41 162.24 68.18 Z" />
</g>
<g id="#073b7dff">
<path fill="#073b7d" opacity="1.00" d=" M 73.92 69.95 C 75.37 66.80 79.02 69.08 81.49 69.42 C 85.63 71.32 89.88 66.50 93.82 69.22 C 99.88 72.58 105.13 77.16 110.60 81.39 C 112.64 83.09 115.35 84.96 115.02 88.00 C 115.22 91.49 111.98 93.62 109.66 95.67 C 105.57 98.65 101.97 102.49 97.14 104.30 C 101.06 99.40 106.68 96.45 111.38 92.42 C 112.97 90.94 115.37 88.74 113.87 86.40 C 112.02 83.81 109.23 82.13 106.74 80.23 C 101.23 76.36 96.34 71.56 90.20 68.64 C 89.60 69.01 88.39 69.77 87.79 70.15 C 88.01 72.14 88.22 74.15 88.44 76.15 C 83.91 73.68 79.95 68.25 74.23 69.71 C 75.71 79.25 87.10 81.22 91.89 88.59 C 86.75 92.97 81.26 96.91 75.82 100.90 C 77.88 95.50 84.60 94.07 86.80 88.86 C 86.45 83.71 80.82 81.65 77.69 78.30 C 75.65 76.18 72.28 73.15 73.92 69.95 Z" />
</g>
<g id="#053573ff">
<path fill="#053573" opacity="1.00" d=" M 162.24 68.18 C 165.17 70.41 168.93 69.60 172.31 69.27 C 169.33 71.26 166.50 73.45 163.65 75.61 C 163.44 73.62 163.14 71.65 162.64 69.71 L 162.42 68.84 L 162.24 68.18 Z" />
</g>
<g id="#1362b2ff">
<path fill="#1362b2" opacity="1.00" d=" M 74.23 69.71 C 79.95 68.25 83.91 73.68 88.44 76.15 C 88.22 74.15 88.01 72.14 87.79 70.15 C 88.39 69.77 89.60 69.01 90.20 68.64 C 96.34 71.56 101.23 76.36 106.74 80.23 C 109.23 82.13 112.02 83.81 113.87 86.40 C 115.37 88.74 112.97 90.94 111.38 92.42 C 106.68 96.45 101.06 99.40 97.14 104.30 C 95.72 105.83 93.87 106.84 92.15 107.99 C 90.83 107.19 88.92 107.07 88.08 105.67 C 87.93 103.72 88.16 101.77 88.31 99.84 C 84.11 103.02 79.94 106.44 74.80 107.97 C 73.97 105.62 73.50 102.58 75.82 100.90 C 81.26 96.91 86.75 92.97 91.89 88.59 C 87.10 81.22 75.71 79.25 74.23 69.71 M 76.50 70.91 C 76.76 72.30 77.20 73.74 78.39 74.63 C 83.76 79.48 90.04 83.22 95.46 88.02 C 90.27 93.09 83.85 96.63 78.51 101.51 C 77.36 102.42 77.05 103.89 76.52 105.17 C 81.94 103.73 85.44 98.96 90.08 96.10 C 93.09 93.55 97.34 91.82 98.93 88.01 C 97.23 84.55 93.36 82.87 90.51 80.46 C 85.79 77.35 81.91 72.87 76.50 70.91 M 89.88 70.95 C 90.44 72.34 90.85 73.91 92.08 74.88 C 97.23 79.49 103.23 83.02 108.51 87.44 C 108.52 87.74 108.55 88.33 108.57 88.63 C 105.10 91.86 101.03 94.35 97.30 97.25 C 94.48 99.48 90.90 101.32 89.83 105.03 C 93.94 104.46 96.67 101.15 99.84 98.85 C 104.18 95.58 108.67 92.49 112.74 88.86 C 110.92 84.63 106.49 82.64 103.13 79.84 C 98.72 76.87 95.11 72.52 89.88 70.95 Z" />
</g>
<g id="#05366dff">
<path fill="#05366d" opacity="1.00" d=" M 148.60 74.57 C 151.83 72.22 154.97 69.11 159.24 69.09 C 155.00 72.19 151.05 75.69 146.79 78.77 C 143.94 80.92 140.86 82.80 138.35 85.37 C 136.99 86.49 136.71 88.74 137.83 90.11 C 139.96 92.71 142.84 94.53 145.48 96.55 C 149.98 99.79 154.15 103.47 158.74 106.58 C 159.78 107.04 160.86 107.21 161.98 107.09 C 163.42 105.74 163.15 103.47 163.67 101.70 C 164.67 101.63 165.67 101.55 166.67 101.43 C 168.81 105.01 172.62 107.32 176.86 106.85 C 176.51 104.90 176.33 102.72 174.79 101.28 C 171.68 97.94 167.83 95.36 163.85 93.15 C 162.77 91.49 161.78 89.78 160.76 88.08 C 161.38 86.62 161.99 85.16 162.65 83.72 C 162.91 83.46 163.42 82.96 163.67 82.71 C 169.26 81.21 173.26 76.80 177.24 72.89 C 175.48 78.51 170.04 81.22 166.26 85.24 C 164.23 87.17 165.00 90.41 166.85 92.15 C 170.07 95.25 174.73 97.00 176.71 101.27 C 177.85 103.18 177.62 105.46 177.60 107.58 C 174.57 108.04 171.61 107.28 168.69 106.57 C 165.37 105.51 162.53 108.85 159.20 107.91 C 154.63 106.71 151.05 103.41 147.35 100.65 C 144.39 98.25 141.14 96.21 138.42 93.53 C 135.80 91.07 135.06 86.38 137.72 83.69 C 140.91 80.18 144.87 77.48 148.60 74.57 Z" />
</g>
<g id="#2a83d3ff">
<path fill="#2a83d3" opacity="1.00" d=" M 159.24 69.09 C 160.04 69.03 161.63 68.90 162.42 68.84 L 162.64 69.71 C 162.29 72.22 161.51 74.83 159.43 76.45 C 154.67 80.61 149.03 83.61 144.30 87.81 C 144.74 89.07 145.17 90.32 145.60 91.58 C 144.07 90.43 142.57 89.25 141.10 88.04 C 147.63 82.20 155.91 78.32 161.27 71.22 C 158.45 72.64 155.82 74.39 153.38 76.38 C 148.57 80.30 143.26 83.59 138.86 88.00 C 141.32 90.59 143.99 92.98 146.92 95.03 C 151.61 98.31 155.86 102.24 160.89 105.03 C 159.89 103.31 158.88 101.60 157.77 99.96 C 159.15 100.71 160.61 101.35 161.86 102.32 C 162.08 103.50 162.25 104.69 162.36 105.90 C 161.46 106.07 159.64 106.41 158.74 106.58 C 154.15 103.47 149.98 99.79 145.48 96.55 C 142.84 94.53 139.96 92.71 137.83 90.11 C 136.71 88.74 136.99 86.49 138.35 85.37 C 140.86 82.80 143.94 80.92 146.79 78.77 C 151.05 75.69 155.00 72.19 159.24 69.09 Z" />
</g>
<g id="#1361adff">
<path fill="#1361ad" opacity="1.00" d=" M 172.31 69.27 C 174.69 67.17 178.45 70.00 177.24 72.89 C 173.26 76.80 169.26 81.21 163.67 82.71 L 163.89 81.57 C 167.63 78.06 172.32 75.48 175.12 71.05 C 172.37 72.15 169.83 73.71 167.54 75.59 C 162.41 79.80 156.67 83.26 151.99 88.01 C 156.50 92.93 162.31 96.32 167.38 100.59 L 166.67 101.43 C 165.67 101.55 164.67 101.63 163.67 101.70 C 163.15 103.47 163.42 105.74 161.98 107.09 C 160.86 107.21 159.78 107.04 158.74 106.58 C 159.64 106.41 161.46 106.07 162.36 105.90 C 162.25 104.69 162.08 103.50 161.86 102.32 C 160.61 101.35 159.15 100.71 157.77 99.96 C 153.43 97.59 149.57 94.49 145.60 91.58 C 145.17 90.32 144.74 89.07 144.30 87.81 C 149.03 83.61 154.67 80.61 159.43 76.45 C 161.51 74.83 162.29 72.22 162.64 69.71 C 163.14 71.65 163.44 73.62 163.65 75.61 C 166.50 73.45 169.33 71.26 172.31 69.27 Z" />
</g>
<g id="#99cbefff">
<path fill="#99cbef" opacity="1.00" d=" M 76.50 70.91 C 81.91 72.87 85.79 77.35 90.51 80.46 C 93.36 82.87 97.23 84.55 98.93 88.01 C 97.34 91.82 93.09 93.55 90.08 96.10 C 85.44 98.96 81.94 103.73 76.52 105.17 C 77.05 103.89 77.36 102.42 78.51 101.51 C 83.85 96.63 90.27 93.09 95.46 88.02 C 90.04 83.22 83.76 79.48 78.39 74.63 C 77.20 73.74 76.76 72.30 76.50 70.91 Z" />
</g>
<g id="#9ccef1ff">
<path fill="#9ccef1" opacity="1.00" d=" M 89.88 70.95 C 95.11 72.52 98.72 76.87 103.13 79.84 C 106.49 82.64 110.92 84.63 112.74 88.86 C 108.67 92.49 104.18 95.58 99.84 98.85 C 96.67 101.15 93.94 104.46 89.83 105.03 C 90.90 101.32 94.48 99.48 97.30 97.25 C 101.03 94.35 105.10 91.86 108.57 88.63 C 108.55 88.33 108.52 87.74 108.51 87.44 C 103.23 83.02 97.23 79.49 92.08 74.88 C 90.85 73.91 90.44 72.34 89.88 70.95 Z" />
</g>
<g id="#368ddcff">
<path fill="#368ddc" opacity="1.00" d=" M 154.99 87.81 C 157.52 85.17 160.61 83.16 163.89 81.57 L 163.67 82.71 C 163.42 82.96 162.91 83.46 162.65 83.72 C 160.39 85.44 158.18 87.24 156.15 89.24 C 155.86 88.89 155.28 88.17 154.99 87.81 Z" />
</g>
<g id="#1a6bbdff">
<path fill="#1a6bbd" opacity="1.00" d=" M 156.15 89.24 C 158.18 87.24 160.39 85.44 162.65 83.72 C 161.99 85.16 161.38 86.62 160.76 88.08 C 161.78 89.78 162.77 91.49 163.85 93.15 C 163.29 93.19 162.19 93.25 161.63 93.28 C 159.74 92.02 157.87 90.72 156.15 89.24 Z" />
</g>
<g id="#277dceff">
<path fill="#277dce" opacity="1.00" d=" M 161.63 93.28 C 162.19 93.25 163.29 93.19 163.85 93.15 C 167.83 95.36 171.68 97.94 174.79 101.28 C 176.33 102.72 176.51 104.90 176.86 106.85 C 172.62 107.32 168.81 105.01 166.67 101.43 L 167.38 100.59 C 169.56 102.20 171.92 103.56 174.37 104.71 C 171.10 99.91 165.94 97.01 161.63 93.28 Z" />
</g>
<g id="#0a4082ff">
<path fill="#0a4082" opacity="1.00" d=" M 74.80 107.97 C 79.94 106.44 84.11 103.02 88.31 99.84 C 88.16 101.77 87.93 103.72 88.08 105.67 C 88.92 107.07 90.83 107.19 92.15 107.99 C 89.66 107.69 87.40 106.61 85.08 105.73 C 81.67 106.52 78.37 107.94 74.80 107.97 Z" />
</g>
<g id="#186134ff">
<path fill="#186134" opacity="1.00" d=" M 159.42 161.42 C 163.32 159.29 166.08 154.77 170.99 154.96 C 171.05 156.96 171.50 159.30 169.72 160.75 C 159.82 170.58 145.59 174.41 132.02 175.34 C 114.86 175.88 97.84 171.12 82.63 163.35 C 80.99 162.63 79.93 161.18 79.08 159.67 C 85.59 162.59 91.80 166.21 98.64 168.35 C 112.90 173.00 128.38 175.21 143.19 172.05 C 152.03 170.15 160.85 166.76 167.61 160.59 C 169.00 159.39 169.58 157.60 170.24 155.95 C 165.07 158.80 160.94 163.27 155.42 165.51 C 135.08 174.77 111.18 171.63 91.31 162.70 C 86.79 160.52 82.32 158.25 77.61 156.53 C 81.28 155.15 84.78 157.55 88.01 159.02 C 99.93 165.54 113.52 168.58 127.02 169.20 C 138.23 169.43 149.63 167.02 159.42 161.42 Z" />
</g>
<g id="#9bf18fff">
<path fill="#9bf18f" opacity="1.00" d=" M 155.42 165.51 C 160.94 163.27 165.07 158.80 170.24 155.95 C 169.58 157.60 169.00 159.39 167.61 160.59 C 160.85 166.76 152.03 170.15 143.19 172.05 C 128.38 175.21 112.90 173.00 98.64 168.35 C 91.80 166.21 85.59 162.59 79.08 159.67 L 78.48 159.41 C 78.26 158.69 77.83 157.25 77.61 156.53 C 82.32 158.25 86.79 160.52 91.31 162.70 C 111.18 171.63 135.08 174.77 155.42 165.51 Z" />
</g>
</svg>
