<?xml version="1.0" encoding="UTF-8" ?>
<!DOCTYPE svg PUBLIC "-//W3C//DTD SVG 1.1//EN" "http://www.w3.org/Graphics/SVG/1.1/DTD/svg11.dtd">
<svg width="250pt" height="200pt" viewBox="0 0 250 200" version="1.1" xmlns="http://www.w3.org/2000/svg">
<g id="#feffffff">
<path fill="#feffff" opacity="1.00" d=" M 0.00 0.00 L 250.00 0.00 L 250.00 200.00 L 0.00 200.00 L 0.00 0.00 M 78.30 9.53 C 75.24 9.45 73.57 12.44 73.15 15.08 C 72.04 21.32 72.74 27.68 72.63 33.98 C 72.93 42.01 71.90 50.11 73.07 58.09 C 73.46 61.95 77.07 64.78 80.89 64.50 C 127.58 64.48 174.28 64.44 220.97 64.52 C 224.41 64.52 228.52 63.68 230.23 60.32 C 231.82 56.43 231.40 52.10 231.46 47.99 C 231.22 38.64 231.56 29.30 231.40 19.96 C 231.10 16.74 231.12 12.77 228.34 10.58 C 224.19 8.65 219.42 9.49 214.99 9.34 C 174.65 9.46 134.32 9.35 93.98 9.39 C 88.76 9.46 83.51 9.05 78.30 9.53 M 18.56 77.15 C 14.25 77.64 12.50 82.16 12.63 85.98 C 12.59 96.99 12.69 108.01 12.61 119.02 C 12.90 122.55 12.67 126.81 15.26 129.56 C 19.13 131.61 23.73 131.24 27.97 131.37 C 37.32 131.19 46.67 131.45 56.01 131.29 C 59.03 131.02 62.45 131.08 65.01 129.25 C 66.99 125.90 66.40 121.75 66.55 118.01 C 66.23 106.31 66.78 94.60 66.37 82.90 C 66.58 79.24 62.90 77.37 59.77 77.02 C 52.55 76.14 45.25 76.88 38.00 76.70 C 31.53 76.87 24.98 76.04 18.56 77.15 M 78.39 77.79 C 74.01 78.39 73.35 83.44 73.45 87.02 C 73.61 98.35 73.51 109.68 73.49 121.02 C 73.69 124.27 73.71 129.10 77.58 130.17 C 82.30 131.06 87.15 130.50 91.92 130.58 C 120.96 130.58 149.99 130.52 179.03 130.62 C 180.96 130.49 182.98 130.58 184.81 129.89 C 187.34 126.91 187.16 122.68 187.37 119.01 C 187.33 108.99 187.21 98.96 187.42 88.94 C 187.28 85.83 187.68 82.12 185.19 79.77 C 183.12 77.50 179.82 77.50 176.99 77.42 C 149.33 77.63 121.66 77.46 94.00 77.52 C 88.80 77.60 83.56 77.03 78.39 77.79 M 76.81 148.80 C 75.62 155.44 76.48 162.24 76.30 168.95 C 76.56 177.12 75.60 185.39 76.77 193.50 C 79.94 195.12 83.63 194.69 87.06 194.76 C 99.27 194.42 111.50 195.11 123.69 194.27 C 123.79 181.86 123.62 169.44 123.82 157.03 C 123.73 154.15 123.82 151.23 123.24 148.39 C 119.71 146.81 115.75 147.28 111.99 147.22 C 102.31 147.43 92.63 147.22 82.95 147.23 C 80.89 147.49 78.23 146.90 76.81 148.80 Z" />
</g>
<g id="#afecf4ff">
<path fill="#afecf4" opacity="1.00" d=" M 78.30 9.53 C 83.51 9.05 88.76 9.46 93.98 9.39 C 134.32 9.35 174.65 9.46 214.99 9.34 C 219.42 9.49 224.19 8.65 228.34 10.58 C 231.12 12.77 231.10 16.74 231.40 19.96 C 231.56 29.30 231.22 38.64 231.46 47.99 C 231.40 52.10 231.82 56.43 230.23 60.32 C 228.52 63.68 224.41 64.52 220.97 64.52 C 174.28 64.44 127.58 64.48 80.89 64.50 C 77.07 64.78 73.46 61.95 73.07 58.09 C 71.90 50.11 72.93 42.01 72.63 33.98 C 72.74 27.68 72.04 21.32 73.15 15.08 C 73.57 12.44 75.24 9.45 78.30 9.53 M 79.31 12.42 C 77.11 12.92 75.44 14.77 75.42 17.07 C 74.88 24.70 75.48 32.37 75.29 40.01 C 75.44 45.93 74.74 51.89 75.62 57.77 C 75.70 59.97 78.13 60.74 79.93 61.03 C 85.56 61.87 91.28 61.30 96.95 61.39 C 137.29 61.44 177.64 61.31 217.98 61.46 C 221.39 61.30 225.30 61.32 227.95 58.84 C 229.28 53.02 228.36 46.95 228.55 41.02 C 228.29 33.03 229.10 25.01 228.31 17.05 C 227.52 12.85 222.69 11.62 219.01 11.68 C 179.00 11.99 138.98 11.52 98.97 11.74 C 92.42 11.91 85.75 10.97 79.31 12.42 Z" />
<path fill="#afecf4" opacity="1.00" d=" M 18.56 77.15 C 24.98 76.04 31.53 76.87 38.00 76.70 C 45.25 76.88 52.55 76.14 59.77 77.02 C 62.90 77.37 66.58 79.24 66.37 82.90 C 66.78 94.60 66.23 106.31 66.55 118.01 C 66.40 121.75 66.99 125.90 65.01 129.25 C 62.45 131.08 59.03 131.02 56.01 131.29 C 46.67 131.45 37.32 131.19 27.97 131.37 C 23.73 131.24 19.13 131.61 15.26 129.56 C 12.67 126.81 12.90 122.55 12.61 119.02 C 12.69 108.01 12.59 96.99 12.63 85.98 C 12.50 82.16 14.25 77.64 18.56 77.15 M 15.75 98.07 C 16.21 106.75 14.73 115.60 16.65 124.16 C 17.24 127.69 21.31 127.36 24.02 127.45 C 33.69 127.36 43.36 127.28 53.04 127.47 C 56.63 127.62 60.05 126.45 63.42 125.39 C 63.34 110.78 63.41 96.16 63.39 81.55 C 59.29 81.14 55.21 80.43 51.08 80.56 C 39.88 80.71 28.68 80.68 17.48 80.58 C 15.75 86.25 15.35 92.17 15.75 98.07 Z" />
<path fill="#afecf4" opacity="1.00" d=" M 78.39 77.79 C 83.56 77.03 88.80 77.60 94.00 77.52 C 121.66 77.46 149.33 77.63 176.99 77.42 C 179.82 77.50 183.12 77.50 185.19 79.77 C 187.68 82.12 187.28 85.83 187.42 88.94 C 187.21 98.96 187.33 108.99 187.37 119.01 C 187.16 122.68 187.34 126.91 184.81 129.89 C 182.98 130.58 180.96 130.49 179.03 130.62 C 149.99 130.52 120.96 130.58 91.92 130.58 C 87.15 130.50 82.30 131.06 77.58 130.17 C 73.71 129.10 73.69 124.27 73.49 121.02 C 73.51 109.68 73.61 98.35 73.45 87.02 C 73.35 83.44 74.01 78.39 78.39 77.79 M 77.39 83.26 C 76.10 87.02 76.59 91.07 76.58 94.97 C 76.86 102.98 76.51 111.00 76.54 119.01 C 76.75 121.43 76.70 124.69 79.18 125.98 C 83.71 127.06 88.42 126.51 93.02 126.56 C 122.38 126.46 151.73 126.62 181.08 126.49 C 181.88 125.38 182.69 124.29 183.50 123.19 C 183.13 109.28 184.14 95.33 182.87 81.46 C 153.58 81.17 124.29 81.54 95.01 81.23 C 90.02 81.20 84.99 80.17 80.06 81.26 C 78.97 81.53 77.64 82.00 77.39 83.26 Z" />
<path fill="#afecf4" opacity="1.00" d=" M 76.81 148.80 C 78.23 146.90 80.89 147.49 82.95 147.23 C 92.63 147.22 102.31 147.43 111.99 147.22 C 115.75 147.28 119.71 146.81 123.24 148.39 C 123.82 151.23 123.73 154.15 123.82 157.03 C 123.62 169.44 123.79 181.86 123.69 194.27 C 111.50 195.11 99.27 194.42 87.06 194.76 C 83.63 194.69 79.94 195.12 76.77 193.50 C 75.60 185.39 76.56 177.12 76.30 168.95 C 76.48 162.24 75.62 155.44 76.81 148.80 Z" />
</g>
<g id="#60cadeff">
<path fill="#60cade" opacity="1.00" d=" M 79.31 12.42 C 85.75 10.97 92.42 11.91 98.97 11.74 C 138.98 11.52 179.00 11.99 219.01 11.68 C 222.69 11.62 227.52 12.85 228.31 17.05 C 229.10 25.01 228.29 33.03 228.55 41.02 C 228.36 46.95 229.28 53.02 227.95 58.84 C 225.30 61.32 221.39 61.30 217.98 61.46 C 177.64 61.31 137.29 61.44 96.95 61.39 C 91.28 61.30 85.56 61.87 79.93 61.03 C 78.13 60.74 75.70 59.97 75.62 57.77 C 74.74 51.89 75.44 45.93 75.29 40.01 C 75.48 32.37 74.88 24.70 75.42 17.07 C 75.44 14.77 77.11 12.92 79.31 12.42 M 77.48 16.43 C 77.63 30.22 77.54 44.02 77.55 57.81 C 80.68 58.19 83.83 58.45 86.98 58.62 C 132.50 58.48 178.03 58.62 223.56 58.55 C 224.18 57.89 224.80 57.24 225.43 56.58 C 225.46 43.21 225.31 29.84 225.52 16.47 C 220.52 14.76 215.25 14.30 209.99 14.67 C 168.99 14.77 127.98 14.72 86.99 14.69 C 83.77 14.93 80.62 15.73 77.48 16.43 Z" />
<path fill="#60cade" opacity="1.00" d=" M 15.75 98.07 C 15.35 92.17 15.75 86.25 17.48 80.58 C 28.68 80.68 39.88 80.71 51.08 80.56 C 55.21 80.43 59.29 81.14 63.39 81.55 C 63.41 96.16 63.34 110.78 63.42 125.39 C 60.05 126.45 56.63 127.62 53.04 127.47 C 43.36 127.28 33.69 127.36 24.02 127.45 C 21.31 127.36 17.24 127.69 16.65 124.16 C 14.73 115.60 16.21 106.75 15.75 98.07 Z" />
<path fill="#60cade" opacity="1.00" d=" M 77.39 83.26 C 77.64 82.00 78.97 81.53 80.06 81.26 C 84.99 80.17 90.02 81.20 95.01 81.23 C 124.29 81.54 153.58 81.17 182.87 81.46 C 184.14 95.33 183.13 109.28 183.50 123.19 C 182.69 124.29 181.88 125.38 181.08 126.49 C 151.73 126.62 122.38 126.46 93.02 126.56 C 88.42 126.51 83.71 127.06 79.18 125.98 C 76.70 124.69 76.75 121.43 76.54 119.01 C 76.51 111.00 76.86 102.98 76.58 94.97 C 76.59 91.07 76.10 87.02 77.39 83.26 Z" />
</g>
<g id="#02a5c2ff">
<path fill="#02a5c2" opacity="1.00" d=" M 77.48 16.43 C 80.62 15.73 83.77 14.93 86.99 14.69 C 127.98 14.72 168.99 14.77 209.99 14.67 C 215.25 14.30 220.52 14.76 225.52 16.47 C 225.31 29.84 225.46 43.21 225.43 56.58 C 224.80 57.24 224.18 57.89 223.56 58.55 C 178.03 58.62 132.50 58.48 86.98 58.62 C 83.83 58.45 80.68 58.19 77.55 57.81 C 77.54 44.02 77.63 30.22 77.48 16.43 Z" />
</g>
</svg>
