<svg id="Layer_1" data-name="Layer 1" xmlns="http://www.w3.org/2000/svg" viewBox="0 0 249.97 250"><defs><style>.cls-1{fill:#fef5f6;}.cls-2{fill:#abacac;}.cls-3{fill:#ee1d55;}.cls-4{fill:#ababac;}.cls-5{fill:#ef4464;}.cls-6{fill:#ef4263;}.cls-7{fill:#b1b2b2;}.cls-8{fill:#ed1a47;}.cls-9{fill:#c1a0a4;}.cls-10{fill:#ef3c60;}.cls-11{fill:#fff;}.cls-12{fill:#fdfcfc;}.cls-13{fill:#f6f6f5;}.cls-14{fill:#fbf1f0;}.cls-15{fill:#b0b1b1;}.cls-16{fill:#b2b3b3;}.cls-17{fill:#b5b6b6;}.cls-18{fill:#b3b4b4;}.cls-19{fill:#b4b4b5;}.cls-20{fill:#b5b6b7;}.cls-21{fill:#ee365d;}.cls-22{fill:#ee375e;}.cls-23{fill:#ee365e;}.cls-24{fill:#ee355d;}.cls-25{fill:#ef385e;}.cls-26{fill:#ef395e;}.cls-27{fill:#ee375d;}.cls-28{fill:#fffdfd;}.cls-29{fill:#b4a9aa;}.cls-30{fill:#ee355c;}.cls-31{fill:#ee345c;}.cls-32{fill:#fffefe;}.cls-33{fill:#b1b2b1;}.cls-34{fill:#b1b1b1;}.cls-35{fill:#b6b6b7;}.cls-36{fill:#b2b4b3;}</style></defs><path class="cls-1" d="M.39,130.38H0V118.72H.4a2,2,0,0,1,.66,1.54q.18,4.29,0,8.6A1.9,1.9,0,0,1,.39,130.38Z" transform="translate(-0.01 0)"/><path class="cls-2" d="M101.86,81.75c5,1.83,10.3,2.93,15.46,4.32q40.5,10.85,81,21.64,24.87,6.63,49.75,13.2c1.43.38,2,1,1.88,2.52-.15,2.36,0,4.74-.1,7.11-.06,1.57-.59,2.23-2.44,1.68-4.71-1.42-9.52-2.55-14.27-3.84-1.15-.31-1.67-.16-1.28,1.14.06.21.07.43.13.64,1.05,3.79.36,3.08,4,3.21,4,.15,8,.37,12,.45,1.32,0,1.6.61,1.47,1.73-.31,2.7-.59,5.41-.92,8.11-.13,1-.69,1.34-1.82,1.18-3.25-.47-6.58,0-9.84-.59-1.33-.23-1.55.33-1.23,1.56.69,2.71,1.26,5.45,1.83,8.19.23,1.13.86,1.45,2,1.46,1.79,0,3.56.27,5.35.34,1,0,1.23.32.91,1.31-.9,2.79-1.71,5.62-2.57,8.43-.14.47-.23,1.14-.87,1.06-2.23-.27-1.53,1.14-1.3,2.24.13.63.48,1.24.23,1.89a96.53,96.53,0,0,1-7.41,15.57c-1.12-4.68-2.14-8.87-3.12-13.08q-4.2-18.22-8.38-36.46c-.79-3.43-1.7-6.82-2.37-10.27a2.53,2.53,0,0,0-2.21-2.21c-2.78-.7-5.56-1.37-8.29-2.22-1.76-.54-1.79.08-1.45,1.52,1.9,8,3.73,16.06,5.59,24.09q5.81,25,11.62,50.06a2.69,2.69,0,0,1-.37,2.44c-2.21,2.82-4.38,5.68-6.83,8.31-1.11,1.19-1.42.92-1.76-.56-2.92-12.72-5.91-25.41-8.85-38.12q-4.2-18.13-8.36-36.26c-1.07-4.61-2.19-9.2-3.18-13.82a1.91,1.91,0,0,0-1.58-1.71c-3-.76-6-1.49-8.92-2.35-1.65-.48-1.76,0-1.4,1.49,2.33,9.77,4.58,19.55,6.85,29.32q7.11,30.69,14.21,61.39a15.65,15.65,0,0,1,.21,1.92,1,1,0,0,1-.94.37c-3.81-1-7.73-1.67-11.24-3.64a6.83,6.83,0,0,1-.83-2.61c-.67-3.18-.73-3.22-4-2.41-1.79.45-3.56.94-5.37,1.31-3.56-.57-6.59-2.54-9.88-3.82a43.22,43.22,0,0,1-5-2.47c-.7-.38-1.67-.6-1.61-1.73a4.08,4.08,0,0,1,2.5-1.1c5.55-1.43,11.15-2.63,16.69-4.09a16.36,16.36,0,0,0,1.66-.46c.54-.2,1.1-.43,1-1.18a1.26,1.26,0,0,0-1.09-1.16,14.9,14.9,0,0,0-3.18-.47c-3.87.07-7.72-.38-11.58-.49a54.38,54.38,0,0,1-5.56-.32,25.55,25.55,0,0,0-10.8,1.2,15.42,15.42,0,0,1-3.35.73,4.93,4.93,0,0,1-2.79-1c-5.76-3.77-11.46-7.62-16.87-11.89a9.44,9.44,0,0,1-1.72-1.62c-.45-.59-.12-.9.44-1.11,4.44-.58,8.86.19,13.27.38,3.91.17,7.86.41,11.77.57,7.29.3,14.56,1,21.86,1,1.5,0,3,.41,4.48.4s2-.54,1.63-2c-.49-2-1-4-1.45-6.07a2.1,2.1,0,0,0-2.27-1.82c-6.08-.2-12.14-.57-18.21-.92-7.21-.42-14.43-.53-21.63-1.14-3.48-.29-7-.36-10.49-.46-3.94-.12-7.85-.6-11.78-.6a2.39,2.39,0,0,1-1.39-.51,87.21,87.21,0,0,1-10.12-10.49c-.46-.6-.84-1.28.27-1.67,4.08-.34,8.15.16,12.21.39,3.64.2,7.3.42,10.93.58q11.16.5,22.32,1.06c7.07.35,14.17.46,21.23,1.15a26.31,26.31,0,0,0,3.87,0c1.1,0,1.54-.6,1.33-1.69a63.43,63.43,0,0,0-1.58-6.5c-.41-1.36-1.53-1.63-2.73-1.64-2.79,0-5.58-.34-8.36-.4-10.46-.22-20.89-1-31.33-1.46-9.86-.44-19.74-.85-29.59-1.58-3-.22-3.11-.08-3.46,2.81a2.24,2.24,0,0,1-.7,1.74c-1.06-.38-1-1.34-1-2.16,0-14.08-.19-28.15.08-42.22.29-1.55,1.93-1.71,2.79-2.69.3-.35,1-.47.78-1.1-.15-.42-.69-.41-1.08-.55-.87-.31-2.08,0-2.4-1.32-.16-3.69-.49-7.37.18-11a.38.38,0,0,1,.48-.23A.35.35,0,0,1,101.86,81.75Z" transform="translate(-0.01 0)"/><path class="cls-3" d="M107.15,149a109,109,0,0,0,11,11.58c2.24,1,3.58,3,5.33,4.54,2.64,2.33,5.64,4.3,7.83,7.14A140.65,140.65,0,0,0,152.18,187c2.43.67,4.37,2.29,6.54,3.47s4.07,2.3,6.18,3.31a2.76,2.76,0,0,1,1.6,1.32,117.56,117.56,0,0,0,16.31,7.35,32.37,32.37,0,0,1,10.41,3.85,84.78,84.78,0,0,0,12,3.49c2.86,1.18,6,1.47,9.35,2.48-1.72,1.64-3.26,3.18-4.86,4.64-4.91,4.5-4.92,4.49-11.16,2.69C124,198.11,68,138.18,51.34,62.13a228.72,228.72,0,0,1-4.41-32.65,3.59,3.59,0,0,1,1.64-3.61c3-2.12,5.82-4.36,9.17-6.42A187.13,187.13,0,0,0,68.79,82.36V80.19q0-32.47,0-65c0-1.59.4-2.5,1.88-3.11,3-1.23,5.86-2.61,8.78-3.93a4.29,4.29,0,0,1,.33,2.5q0,48.35,0,96.69a4.59,4.59,0,0,0,.19,1.91A116,116,0,0,0,90.73,127v-2.24q0-58.92,0-117.84c0-1.88.34-2.79,2.36-3.17,2.87-.55,5.67-1.42,8.56-1.86.72.84.55,1.87.6,2.85a114.26,114.26,0,0,1-.41,11.7,40.44,40.44,0,0,1-.19,13.08c0,3.93,0,7.85,0,11.78a3,3,0,0,1,.52,1.6c0,3.48,0,7,0,10.43a6.71,6.71,0,0,1-.52,2.06l0,12.21a3.42,3.42,0,0,1,.5,1.61q.07,5.24,0,10.47a6.13,6.13,0,0,1-.52,2.06l.15,11.77a4.58,4.58,0,0,1,0,4.23q-.06,22.1-.1,44.21a3.06,3.06,0,0,0,.22.8A18.8,18.8,0,0,1,107.15,149Z" transform="translate(-0.01 0)"/><path class="cls-3" d="M.39,130.38V118.72c-.3-5.48,3-9.49,5.63-13.75.64-1,1.25-2.07,1.87-3.11.86-2.71,2.71-4.83,4.34-7a4,4,0,0,0,.66-4.15c-.52-1.53-1.36-3-1-4.75a13,13,0,0,0-.57-2.29c-2.08-4.59-1.23-8.84,1.21-13,1.68-2.9,3-6,5.08-9.21,7.72,41.2,24.5,77.84,50.71,110s58.74,56,97.41,71.86a124.12,124.12,0,0,1-16.28,4.48,3.06,3.06,0,0,1-2-.5q-4.46-2.11-8.9-4.26c-2.22-.4-4-1.75-5.92-2.79-5.7-3.1-11.16-6.61-16.63-10.09-3.84-2.77-7.84-5.31-11.58-8.23-.83-.8-2-1.27-2.55-2.31-.08-.11-.14-.34-.2-.34s-.12.06,0,.22a1.92,1.92,0,0,1,.39,1q.15,11.1,0,22.19a36.13,36.13,0,0,1-.52,5.09c-3.35-.31-6.54-1.36-9.8-2.11-1.35-.31-1-1.35-1-2.23,0-10.36,0-20.71,0-31.06a4.08,4.08,0,0,0-1.58-3.48c-3.09-2.65-6.06-5.45-9.11-8.22-.58.73-.31,1.47-.31,2.14q0,18.22,0,36.45c0,2.37,0,2.4-2.26,1.42s-4.67-2.17-7-3.15a2.53,2.53,0,0,1-1.67-2.81c0-14.59,0-29.19.06-43.79a4.74,4.74,0,0,0-1.28-3.46c-3.13-3.51-6.15-7.12-9.51-11-.06,1.14-.12,1.88-.12,2.63q0,24.58,0,49.18c0,.49.87,1.71-.72,1.59a15.1,15.1,0,0,1-.11-3.22c0-15.66,0-31.32,0-47a8.64,8.64,0,0,0-2.16-6.08,121.92,121.92,0,0,1-8-10.94A39.22,39.22,0,0,0,43.6,157a1,1,0,0,0-.12-.17c-.58-.66-.71-2-1.75-1.86-.81.13-.88,1.34-1.21,2.11-1.53,3.36-3,6.73-4.43,10.15-1.41,3.74-2.88,7.46-4.1,11.28-.51,1.57-1.08,3.11-1.49,4.71-1.45,4.91-2.75,9.87-3.94,14.85-.18.71-.1,1.62-1.09,1.88a95.73,95.73,0,0,1-7.85-11.51,2.71,2.71,0,0,1,0-2.45,205.47,205.47,0,0,1,16.58-42.1,3.19,3.19,0,0,0,0-3.53c-1.77-3.11-3.34-6.34-5-9.51a5.57,5.57,0,0,1-.94-2.21c-.2.84.84,1.37.55,2.2a224.49,224.49,0,0,0-18.72,42,27.75,27.75,0,0,1-2.65-6.29c-3.6-9.94-3.55-9.95.8-19.61a226.28,226.28,0,0,1,14.17-26.8,3.41,3.41,0,0,0,.28-3.57c-1.46-3.33-2.77-6.74-4.28-10.46A243.86,243.86,0,0,0,1,136.61Z" transform="translate(-0.01 0)"/><path class="cls-3" d="M36.47,36.72C44.72,129,108.05,204.16,193.22,229.51a15,15,0,0,1-4.17,2.9c-8.24,4.93-8.3,5-17.19,1.36Q66.47,190.2,33.38,80.7a210,210,0,0,1-6.54-31.4,2.46,2.46,0,0,1,.32-2A137,137,0,0,1,36.47,36.72Z" transform="translate(-0.01 0)"/><path class="cls-2" d="M219.15,42.38c2,2.76,2,2.76-.65,4.86-1.42,1.1-2.84,2.18-4.26,3.26-1.32,0-.47.81-.43,1.3.73,3,1.53,6,2.14,9,.37,1.79.82,2,2.23.75,2.72-2.34,5.63-4.45,8.35-6.77,1.1-.93,1.65-.73,2.32.38,1.3,2.14,2.63,4.27,4,6.36.78,1.18.76,2-.51,2.82-1.77,1.21-3.4,2.62-5.07,4-.34.29-1,.53-.74,1.15.17.46.71.39,1.12.51,3.1.83,6.19,1.76,9.31,2.51a3.29,3.29,0,0,1,2.61,2.22c1.13,3,2.34,6,3.5,9,.18.46.6,1,.28,1.43-.45.62-1.05.1-1.57,0l-43.32-11.5q-26.33-7-52.64-14.06l-3.73-1c-.07-.56.36-.75.73-.91a106.72,106.72,0,0,1,17.07-6.09c1.23.2,2.21,1.18,3.47,1.15-.47-.53-2.3.28-1.61-1.55a10.65,10.65,0,0,1,6.44-1.76c1,.59,1.08,1.65,1.29,2.6A3,3,0,0,0,172,54.55c2.79.56,5.45,1.63,8.46,2.13A45.67,45.67,0,0,0,179.12,50c-.22-1-.8-2-.16-3.11a29.16,29.16,0,0,1,11.15-2.12c1.08,2.13,1.24,4.52,1.81,6.79s1.15,4.45,1.54,6.71a3.18,3.18,0,0,0,2.6,2.77c2.29.57,4.59,1.09,6.86,1.75,1.36.4,1.71-.11,1.39-1.38-1.26-5-2.37-10-3.52-15.08-.25-1.14-1.43-1.55-1.61-2.64a1.76,1.76,0,0,1,1.31-.62c5.59-.4,11.19-.59,16.78-.94A9.19,9.19,0,0,1,219.15,42.38Z" transform="translate(-0.01 0)"/><path class="cls-2" d="M126.89,65.79,160,74.69q42.57,11.4,85.16,22.75a2.52,2.52,0,0,1,2.26,2.35c.41,2.69.92,5.37,1.36,8,.28,1.75.06,2-1.63,1.55-6.34-1.76-12.71-3.4-19.06-5.1L114.78,74c-.49-.13-1-.23-1.46-.35-.14-.66.41-.85.79-1.12,3.66-2.52,7.59-4.55,11.45-6.71C126,65.6,126.43,65.24,126.89,65.79Z" transform="translate(-0.01 0)"/><path class="cls-3" d="M126.89,65.79a132,132,0,0,0-13.58,7.87l-10.78,7.16c-.57.09-.77-.25-.76-.73.11-4.1-.28-8.2.2-12.28a207.56,207.56,0,0,1,85.45-33.59c6.72-1,13.5-1.67,20.29-2.14a3.06,3.06,0,0,1,2.44,1c3.17,2.92,6.1,6.08,9,9.26-2.24.86-4.59.49-6.89.62-4.31.26-8.62.34-12.91.9-1,1.15-2.4.84-3.61,1-1.89.2-3.79,1-5.71.17a91.24,91.24,0,0,0-11,2.05,32,32,0,0,1-10.8,2.57,33.68,33.68,0,0,0-6.47,1.77,1.61,1.61,0,0,1-1.7.49,144.07,144.07,0,0,0-18,6.64A120.05,120.05,0,0,0,126.89,65.79Z" transform="translate(-0.01 0)"/><path class="cls-3" d="M102.81,41.4a213.33,213.33,0,0,1,38.38-18.06,229.24,229.24,0,0,1,38.74-10.21,3,3,0,0,1,2.08.18,116.84,116.84,0,0,1,14.22,8.6c-4.22.62-8.14,1.15-12,1.77a216.59,216.59,0,0,0-80,29.64c-.6.38-1.24.71-1.86,1.06-.93-.09-.59-.83-.59-1.3,0-3.29,0-6.58,0-9.87A1.62,1.62,0,0,1,102.81,41.4Z" transform="translate(-0.01 0)"/><path class="cls-3" d="M102.4,16.46A227.39,227.39,0,0,1,139.29.76c2.18-.72,4.37.23,6.52.57a105.17,105.17,0,0,1,17,4.1c-7.21,1.83-14,3.73-20.73,6a242.26,242.26,0,0,0-38.51,16.85c-.5.28-1,.49-1.54.73-.52-3.9-.13-7.83-.2-11.74A.92.92,0,0,1,102.4,16.46Z" transform="translate(-0.01 0)"/><path class="cls-2" d="M116.19,229.67c7.35,4.63,14.83,9,22.37,13.27-.16,1.74-.33,3.48-.49,5.22-.43.58-.5,1.41-1.6,1.42-2.71,0-5.42.23-8.13.4-1.27.08-2,0-1.58-1.72.64-2.79.88-5.66,1.34-8.48.19-1.17-.11-1.64-1.34-1.33-2.91.75-5.81,1.47-8.73,2.17a1.68,1.68,0,0,0-1.48,1.74c-.15,1.92-.59,3.82-.81,5.74-.12,1.08-.59,1.56-1.66,1.44-2.83-.31-5.66-.61-8.49-.95-.64-.08-1.06-.45-.82-1.2,0-.07,0-.13.06-.21.31-3.36.31-3.36-2.78-2.81-.63-2.81-.13-5.66-.28-8.49,0-.78,0-1.58,0-2.36a1.17,1.17,0,0,1,1-1,96,96,0,0,1,12.41-2.93A2.28,2.28,0,0,1,116.19,229.67Z" transform="translate(-0.01 0)"/><path class="cls-4" d="M101.58,16.3l0-14.41A90,90,0,0,1,122.38,0L110,8.27c-1.85,1.22-3.64,2.55-5.58,3.61s-2.85,2.25-2.55,4.39C101.78,16.55,101.7,16.54,101.58,16.3Z" transform="translate(-0.01 0)"/><path class="cls-2" d="M12,85.91c2.29,4.61,2.24,8.87-1.69,12.69a21.71,21.71,0,0,0-2.37,3.26L2,105.49A93.59,93.59,0,0,1,5.07,90.88c.27-.94,1.17-1.23,1.85-1.7C8.57,88.05,10.27,87,12,85.91Z" transform="translate(-0.01 0)"/><path class="cls-5" d="M102.81,41.4c-.31.53-.87.86-.86,1.62,0,3.54,0,7.09.06,10.63,0,.25.24.49.37.73l-.78,1V41.3C102,41.62,102.4,41.46,102.81,41.4Z" transform="translate(-0.01 0)"/><path class="cls-6" d="M102,67.81c0,3.62,0,7.24,0,10.87,0,.74-.26,1.59.56,2.14l-.68.93-.13,0-.14,0q0-7.06,0-14.14A.54.54,0,0,1,102,67.81Z" transform="translate(-0.01 0)"/><path class="cls-6" d="M101.58,16.3a.27.27,0,0,0,.25,0l.57.19c-.85,1.77-.34,3.66-.41,5.48-.09,2.36,0,4.72,0,7.07l-.39.51Z" transform="translate(-0.01 0)"/><path class="cls-7" d="M213.81,51.8c-.73-.63-.28-1.54-.6-2.32.85-.08.47.92,1,1Z" transform="translate(-0.01 0)"/><path class="cls-8" d="M46.93,161.91c2.71,3.57,5.24,7.29,8.17,10.67,2.1,2.41,2.6,4.95,2.58,8-.12,15.57,0,31.14-.07,46.71,0,.81.35,1.74-.48,2.41a87.46,87.46,0,0,1-9.37-6.62,2.41,2.41,0,0,1-.93-2.21c0-2.71,0-5.42-.07-8.13a3.07,3.07,0,0,1-.51-2c0-3.41,0-6.81,0-10.22a5.88,5.88,0,0,1,.52-2.26q0-7,0-13.94a3.39,3.39,0,0,1-.51-2.26c0-4.68-.08-9.36,0-14C46.43,166,45.67,163.84,46.93,161.91Z" transform="translate(-0.01 0)"/><path class="cls-2" d="M46.75,168v16.36c-6.27,5-12.51,10-18.84,14.86-.61.47-1.18,2-2.44.78,1.5-5.63,2.6-11.37,4.56-16.88,1.73-1.67,3.38-3.45,5.69-4.36a8.57,8.57,0,0,1,2.76-.21,10.11,10.11,0,0,0-3.1.24c-1.33.16-2.68.51-3.84-.54a108.43,108.43,0,0,1,4.12-11A23.55,23.55,0,0,1,46.75,168Z" transform="translate(-0.01 0)"/><path class="cls-2" d="M46.77,198.26v14.5a52.07,52.07,0,0,0-7.1,1.6,2.08,2.08,0,0,1-2.32-.52q-3.42-3.74-6.89-7.4c-.81-.86-.45-1.17.51-1.36,1.12-.22,2.21-.63,3.34-.77A21.42,21.42,0,0,0,46.77,198.26Z" transform="translate(-0.01 0)"/><path class="cls-9" d="M102,233.16c0,3.74,0,7.48,0,11.22-.42,1.06.3,2.29-.49,3.29q0-14.14.08-28.29c.07-.23.18-.27.34-.07l2.57,2.05c-1.71,1.08-2,2.68-2,4.59C102.54,228.35,103.15,230.83,102,233.16Z" transform="translate(-0.01 0)"/><path class="cls-10" d="M28.86,130.86c-.25-.73-.88-1.31-.78-2.48a4.39,4.39,0,0,1,1.17,2.48l-.19,0Z" transform="translate(-0.01 0)"/><path class="cls-11" d="M107.15,149a49.6,49.6,0,0,1-5.31-6.27c0-.43.06-.86.07-1.29,0-3.84,0-3.89,4-3.7,11.93.55,23.86,1.1,35.79,1.76,8.56.47,17.13.95,25.71,1.31,2.92.13,5.86.32,8.78.39a2.42,2.42,0,0,1,2.74,2.29,72.56,72.56,0,0,0,1.62,7.12c.34,1.32.11,1.89-1.35,1.81q-12.21-.66-24.43-1.25c-3.28-.17-6.57-.26-9.86-.45-10.57-.59-21.15-.93-31.72-1.46A39.92,39.92,0,0,0,107.15,149Z" transform="translate(-0.01 0)"/><path class="cls-11" d="M131.35,172.3a109.75,109.75,0,0,1-13.15-11.69c11.07.35,22.14.92,33.2,1.63,3.42.21,6.85.2,10.29.44,6.77.47,13.56.69,20.35.93a1.61,1.61,0,0,1,1.82,1.39c0,.05,0,.1,0,.16.55,2.66,1.23,5.3,1.89,7.94.33,1.34-.11,1.83-1.5,1.75-7-.43-14-.78-21-1.21-3-.18-6-.16-9-.36C146.65,172.78,139,172.6,131.35,172.3Z" transform="translate(-0.01 0)"/><path class="cls-11" d="M125.62,107.44c-4.26,2.89-8.11,6.32-12.17,9.49-3.76,2.93-7.47,5.92-11.53,9.15V112.84c0-.84.56-1.27,1.12-1.72,5.17-4.09,10.35-8.16,15.47-12.29a1.86,1.86,0,0,1,2.11-.44,6.25,6.25,0,0,0,.84.17c5.74,1.5,5.74,1.5,4.66,7.38A9.65,9.65,0,0,0,126,107,.73.73,0,0,1,125.62,107.44Z" transform="translate(-0.01 0)"/><path class="cls-11" d="M141.65,128.63c-2.14-.13-4.28-.31-6.42-.37-1,0-1.29-.31-1.11-1.41,1-6.44,1.86-12.9,2.93-19.33.77-4.62.91-4.68,5.41-3.33,1.9.57,4.49.35,5.54,1.88s-.27,3.69-.5,5.58c-.63,5-1.59,9.9-2.15,14.88C145,129.29,143.24,128.58,141.65,128.63Z" transform="translate(-0.01 0)"/><path class="cls-11" d="M166.5,195.08A95.58,95.58,0,0,1,152.18,187c2-.47,4.07-.82,6-1.43,3.31-1,6.61-.78,10-.51,4.35.35,8.72.4,13.08.6a45,45,0,0,0,5.56.32c1.88-.15,2.11,1,2.37,2.28.34,1.72-1.2,1.38-2,1.58-6.58,1.67-13.18,3.24-19.78,4.86A6.66,6.66,0,0,0,166.5,195.08Z" transform="translate(-0.01 0)"/><path class="cls-11" d="M169.53,112.81c-.84,5.31-1.7,10.61-2.5,15.93-.16,1.09-.77,1.31-1.64,1.11a30.42,30.42,0,0,0-7.07-.32c-1.82,0-2.44-.55-2.14-2.36.68-4.1,1.29-8.21,1.92-12.32.23-1.55.48-3.11.66-4.68.13-1.09.55-1.51,1.71-1.18,2.61.75,5.25,1.4,7.88,2.09a1.38,1.38,0,0,1,1.23,1.5A1.55,1.55,0,0,1,169.53,112.81Z" transform="translate(-0.01 0)"/><path class="cls-12" d="M193.22,206.29a74.28,74.28,0,0,1-10.41-3.85c2.51-1,5.2-1.37,7.79-2.08a1.21,1.21,0,0,1,1.59.65,1.27,1.27,0,0,1,.1.46C192.57,203.08,192.91,204.69,193.22,206.29Z" transform="translate(-0.01 0)"/><path class="cls-13" d="M123.25,123.25c.4,4.43.16,4.63-4.79,4A32.34,32.34,0,0,1,123.25,123.25Z" transform="translate(-0.01 0)"/><path class="cls-14" d="M101.72,97.74l0-4.22c1.38.09,3.32,0,3.73,1.19s-1.69,1.55-2.5,2.49C102.65,97.57,102.29,97.92,101.72,97.74Z" transform="translate(-0.01 0)"/><path class="cls-15" d="M125.62,107.44,126,107a24.7,24.7,0,0,1-1.07,6.88C124.69,111.69,125.28,109.58,125.62,107.44Z" transform="translate(-0.01 0)"/><path class="cls-15" d="M128.34,127.68c-1,.76-2.12.44-3.58.58C126.09,126.83,127.27,127.59,128.34,127.68Z" transform="translate(-0.01 0)"/><path class="cls-16" d="M176.14,132.68c-.24-2.33-1.81-2.61-3.71-2.37C175.91,129.61,176.39,129.93,176.14,132.68Z" transform="translate(-0.01 0)"/><path class="cls-7" d="M173.68,121.26a9.42,9.42,0,0,1-1.14-4.79A10.59,10.59,0,0,1,173.68,121.26Z" transform="translate(-0.01 0)"/><path class="cls-15" d="M109.4,126.87a3.16,3.16,0,0,1-3.08.15C107.46,126.13,108.45,126.62,109.4,126.87Z" transform="translate(-0.01 0)"/><path class="cls-7" d="M196.82,118.88a7.08,7.08,0,0,1,4.08.89A7.88,7.88,0,0,1,196.82,118.88Z" transform="translate(-0.01 0)"/><path class="cls-7" d="M182,114.77a9.71,9.71,0,0,1-4.51-1.08A7.59,7.59,0,0,1,182,114.77Z" transform="translate(-0.01 0)"/><path class="cls-7" d="M239.14,159.71l1,3.82C239,162.48,239.11,161.1,239.14,159.71Z" transform="translate(-0.01 0)"/><path class="cls-17" d="M152.22,184.27h-2.85v-.22h2.85Z" transform="translate(-0.01 0)"/><path class="cls-18" d="M156.57,184.66H154v-.2h2.53Z" transform="translate(-0.01 0)"/><path class="cls-19" d="M149.36,128.87a4.61,4.61,0,0,1,2.75,0A4.45,4.45,0,0,1,149.36,128.87Z" transform="translate(-0.01 0)"/><path class="cls-17" d="M132.84,128.14h-2.42v-.21h2.46Z" transform="translate(-0.01 0)"/><path class="cls-17" d="M113.9,127.27h-2.44A2.57,2.57,0,0,1,113.9,127.27Z" transform="translate(-0.01 0)"/><path class="cls-20" d="M104.47,126.65a2.72,2.72,0,0,1-2.13.12C103.1,126.23,103.81,126.65,104.47,126.65Z" transform="translate(-0.01 0)"/><path class="cls-21" d="M92.65,130.78c1.16.35,1.27,1.45,1.86,2.22C93.35,132.64,93.23,131.54,92.65,130.78Z" transform="translate(-0.01 0)"/><path class="cls-22" d="M73.93,96.15l1,2.15A1.77,1.77,0,0,1,73.93,96.15Z" transform="translate(-0.01 0)"/><path class="cls-23" d="M77.77,105.16a2.81,2.81,0,0,1-.89-2.06A2.09,2.09,0,0,1,77.77,105.16Z" transform="translate(-0.01 0)"/><path class="cls-24" d="M99.66,139.91a2.14,2.14,0,0,1-1.57-1.58A2.52,2.52,0,0,1,99.66,139.91Z" transform="translate(-0.01 0)"/><path class="cls-25" d="M96.66,136c-.68,0-.94-.36-1-1C96.35,135,96.44,135.56,96.66,136Z" transform="translate(-0.01 0)"/><path class="cls-26" d="M71.46,91c-.5-1-1-1.38-.72-2.13C71.42,89.31,71.4,90,71.46,91Z" transform="translate(-0.01 0)"/><path class="cls-27" d="M71.38,90.33c.51,1,1.05,1.39.73,2.14C71.43,92,71.45,91.32,71.38,90.33Z" transform="translate(-0.01 0)"/><path class="cls-28" d="M102,233.16c0-3.28,0-6.55-.11-9.83-.06-2,1.45-1.71,2.62-2l11.65,8.31Z" transform="translate(-0.01 0)"/><path class="cls-29" d="M43.86,156.7l-3.64-.07,1.41-3.09A9.13,9.13,0,0,1,43.86,156.7Z" transform="translate(-0.01 0)"/><path class="cls-30" d="M79.42,199.5l-5-5.05-.17.17L79,199.88Z" transform="translate(-0.01 0)"/><path class="cls-22" d="M16.8,102,15.47,98.1l.42-.15,1.38,3.82Z" transform="translate(-0.01 0)"/><path class="cls-21" d="M91.55,210.91c.82.08,1.16.67,1.88,1.49A2.48,2.48,0,0,1,91.55,210.91Z" transform="translate(-0.01 0)"/><path class="cls-31" d="M96,214.57c1,0,1.41.75,2.16,1.76a3.63,3.63,0,0,1-2.17-1.76Z" transform="translate(-0.01 0)"/><path class="cls-23" d="M25,121.75c-1-.43-.84-1.43-1.06-2.23A3.42,3.42,0,0,1,25,121.74Z" transform="translate(-0.01 0)"/><path class="cls-22" d="M95.94,214.57a1.71,1.71,0,0,1-1.55-1.16,1.78,1.78,0,0,1,1.55,1.16Z" transform="translate(-0.01 0)"/><path class="cls-26" d="M102,219.31a.68.68,0,0,1-.34.06c-.46-.28-1-.46-1.08-1.19C101.37,218.19,101.63,218.8,102,219.31Z" transform="translate(-0.01 0)"/><path class="cls-25" d="M25,121.74a1.77,1.77,0,0,1,.7,1.83,1.93,1.93,0,0,1-.71-1.82Z" transform="translate(-0.01 0)"/><path class="cls-11" d="M190,45.05l9.31-1.15a1.55,1.55,0,0,1,1.78,1.27s0,.07,0,.1c1.3,5.71,2.68,11.4,4,17.11.24,1,.12,1.69-1.28,1.28-2.94-.86-5.92-1.59-8.87-2.39-.75-.21-1.56-.41-1.75-1.36C192.28,54.93,190.72,50.08,190,45.05Z" transform="translate(-0.01 0)"/><path class="cls-32" d="M168.24,49.67A59.79,59.79,0,0,1,179,47.09c.69,3,1.37,6,2.08,8.95.28,1.15.11,1.6-1.21,1.21-2.79-.81-5.6-1.62-8.44-2.25-1.46-.32-2.25-.93-2.43-2.46A19.43,19.43,0,0,0,168.24,49.67Z" transform="translate(-0.01 0)"/><path class="cls-33" d="M160.08,51.93c.56-.15,1-.7,1.69-.49.18,1.31,1.74.45,2.21,1.55A6.48,6.48,0,0,1,160.08,51.93Z" transform="translate(-0.01 0)"/><path class="cls-34" d="M210.38,65.58a3.66,3.66,0,0,1,3.4.89Z" transform="translate(-0.01 0)"/><path class="cls-7" d="M212.64,46.4a1.84,1.84,0,0,1,.64,2C212.48,48,212.52,47.35,212.64,46.4Z" transform="translate(-0.01 0)"/><path class="cls-7" d="M212.1,44.51c.45.27.66.6.48,1,0,0-.3,0-.31-.07C212.19,45.14,212.15,44.82,212.1,44.51Z" transform="translate(-0.01 0)"/><path class="cls-7" d="M112.7,241.92c-1,1-2.5.57-3.72,1.09A6.42,6.42,0,0,1,112.7,241.92Z" transform="translate(-0.01 0)"/><path class="cls-35" d="M35.65,179.14c0-.27,0-.55,0-.82h2.93C37.67,178.82,36.57,178.59,35.65,179.14Z" transform="translate(-0.01 0)"/><path class="cls-36" d="M43.9,178.91a7.07,7.07,0,0,1-3.45.08A7.07,7.07,0,0,1,43.9,178.91Z" transform="translate(-0.01 0)"/></svg>