<?xml version="1.0" encoding="UTF-8" ?>
<!DOCTYPE svg PUBLIC "-//W3C//DTD SVG 1.1//EN" "http://www.w3.org/Graphics/SVG/1.1/DTD/svg11.dtd">
<svg width="250pt" height="250pt" viewBox="0 0 250 250" version="1.1" xmlns="http://www.w3.org/2000/svg">
<g id="#fefefeff">
<path fill="#fefefe" opacity="1.00" d=" M 0.00 0.00 L 123.23 0.00 C 122.95 0.54 122.39 1.61 122.11 2.14 C 110.87 10.18 98.79 16.88 86.00 22.11 C 84.05 21.51 82.15 22.31 81.02 23.95 C 78.36 25.03 75.64 25.97 72.98 27.05 C 71.04 26.54 69.19 27.35 67.96 28.86 C 63.60 30.09 59.17 31.17 55.05 33.08 C 53.52 33.29 50.47 33.70 48.95 33.90 C 46.99 34.67 44.98 35.32 43.02 36.07 C 41.63 35.61 39.71 35.50 39.01 37.10 C 37.31 36.57 35.28 36.47 33.99 37.91 C 32.56 37.58 30.71 37.61 29.99 39.15 C 28.46 39.01 25.63 37.89 24.95 39.84 C 23.74 46.70 22.97 54.29 25.01 61.01 C 25.05 64.01 24.98 67.03 25.06 70.03 C 25.04 73.77 25.29 77.50 25.80 81.21 L 25.89 82.14 C 26.62 88.81 26.03 95.89 28.97 102.11 C 28.62 103.80 28.58 105.66 29.68 107.11 C 30.13 109.39 30.70 111.65 31.27 113.90 C 30.67 115.58 30.30 117.70 31.80 119.05 C 32.14 119.51 32.83 120.45 33.18 120.92 C 32.59 122.32 32.55 124.03 33.78 125.11 C 34.82 129.07 35.56 133.15 36.97 137.02 C 36.61 138.44 36.58 140.30 38.14 141.04 C 37.48 143.22 37.37 145.97 39.78 147.09 C 40.51 149.08 41.25 151.06 42.05 153.03 C 41.53 154.96 42.33 156.84 43.93 157.98 C 44.92 160.38 45.81 162.81 46.84 165.19 C 46.60 167.08 47.44 168.80 48.88 170.00 C 51.07 175.56 54.31 180.60 57.01 185.92 C 56.65 187.38 57.53 188.72 58.96 189.10 C 63.62 197.68 69.32 205.68 75.66 213.09 C 83.73 221.82 92.33 230.01 102.16 236.74 C 102.07 238.36 103.58 239.42 105.09 238.97 C 110.99 242.57 116.92 246.11 123.09 249.24 L 123.24 250.00 L 0.00 250.00 L 0.00 0.00 Z" />
<path fill="#fefefe" opacity="1.00" d=" M 126.76 0.00 L 250.00 0.00 L 250.00 250.00 L 126.76 250.00 L 126.91 249.23 C 170.12 229.98 196.52 187.42 211.23 144.11 C 212.36 143.03 212.46 141.41 212.00 139.99 C 213.44 139.18 213.39 137.40 213.02 136.01 C 214.43 132.50 214.97 128.74 216.01 125.13 C 217.43 122.25 218.09 119.08 217.97 115.87 C 218.51 114.32 218.94 112.73 219.34 111.14 C 220.40 109.95 220.38 108.29 219.85 106.86 C 219.93 106.43 220.07 105.56 220.15 105.13 C 221.49 104.09 221.39 102.29 220.79 100.87 L 221.19 100.19 C 221.41 98.66 221.86 95.62 222.08 94.09 C 222.56 90.36 222.87 86.62 223.02 82.87 C 224.74 80.67 225.07 78.38 224.00 76.01 C 225.76 73.73 226.02 71.39 224.81 68.98 C 224.89 68.55 225.04 67.69 225.12 67.25 C 225.75 58.63 227.69 47.76 225.06 39.92 C 224.14 39.46 223.19 39.10 222.21 38.82 C 217.46 37.61 212.67 35.99 207.71 36.26 C 205.19 35.56 202.71 34.70 200.22 33.88 C 196.56 32.51 192.82 31.20 188.88 31.01 C 186.60 30.19 184.29 29.51 182.00 28.75 C 180.21 27.67 178.26 26.82 176.14 26.76 C 159.13 20.56 142.66 12.68 127.89 2.14 C 127.61 1.60 127.05 0.53 126.76 0.00 Z" />
</g>
<g id="#8f9377ff">
<path fill="#8f9377" opacity="1.00" d=" M 123.23 0.00 L 126.76 0.00 C 127.05 0.53 127.61 1.60 127.89 2.14 C 126.01 1.16 123.99 1.16 122.11 2.14 C 122.39 1.61 122.95 0.54 123.23 0.00 Z" />
</g>
<g id="#234827ff">
<path fill="#234827" opacity="1.00" d=" M 122.11 2.14 C 123.99 1.16 126.01 1.16 127.89 2.14 C 142.66 12.68 159.13 20.56 176.14 26.76 C 174.96 27.80 173.83 28.88 172.71 29.98 C 156.90 24.83 141.89 17.21 128.18 7.81 C 125.83 6.20 122.80 7.32 120.68 8.70 C 95.24 25.78 65.63 35.24 35.99 41.98 C 32.19 42.69 26.68 44.53 28.96 49.99 C 29.07 75.95 32.30 101.98 38.93 127.09 C 46.17 156.33 58.08 185.29 77.82 208.35 C 78.08 208.73 78.60 209.49 78.86 209.87 C 77.77 210.91 76.70 211.99 75.66 213.09 C 69.32 205.68 63.62 197.68 58.96 189.10 C 59.36 187.63 58.48 186.24 57.01 185.92 C 54.31 180.60 51.07 175.56 48.88 170.00 C 49.52 168.06 48.78 165.98 46.84 165.19 C 45.81 162.81 44.92 160.38 43.93 157.98 C 44.48 156.04 43.68 154.14 42.05 153.03 C 41.25 151.06 40.51 149.08 39.78 147.09 C 39.79 144.96 39.33 142.82 38.14 141.04 C 38.45 139.60 38.38 137.86 36.97 137.02 C 35.56 133.15 34.82 129.07 33.78 125.11 C 34.40 123.72 34.50 121.94 33.18 120.92 C 32.83 120.45 32.14 119.51 31.80 119.05 C 32.37 117.34 32.49 115.36 31.27 113.90 C 30.70 111.65 30.13 109.39 29.68 107.11 C 30.38 105.46 30.75 103.21 28.97 102.11 C 28.74 95.37 27.62 88.70 26.95 82.01 C 26.87 78.26 26.63 74.52 26.23 70.79 L 26.17 69.86 C 26.03 66.87 26.55 63.70 25.01 61.01 C 24.97 53.95 25.00 46.90 24.95 39.84 C 26.65 40.40 28.56 40.29 29.99 39.15 C 31.42 39.41 33.21 39.38 33.99 37.91 C 35.68 38.42 37.71 38.53 39.01 37.10 C 40.43 37.46 42.08 37.36 43.02 36.07 C 44.98 35.32 46.99 34.67 48.95 33.90 C 50.47 33.70 53.52 33.29 55.05 33.08 C 59.17 31.17 63.60 30.09 67.96 28.86 C 69.91 29.50 71.84 28.72 72.98 27.05 C 75.64 25.97 78.36 25.03 81.02 23.95 C 82.96 24.47 84.81 23.66 86.00 22.11 C 98.79 16.88 110.87 10.18 122.11 2.14 Z" />
</g>
<g id="#d49353ff">
<path fill="#d49353" opacity="1.00" d=" M 120.68 8.70 C 122.80 7.32 125.83 6.20 128.18 7.81 C 141.89 17.21 156.90 24.83 172.71 29.98 C 182.07 33.98 192.14 35.84 201.74 39.17 C 207.98 41.59 215.65 40.53 221.04 44.95 C 221.08 48.97 221.09 52.99 221.08 57.02 C 220.79 58.51 220.20 61.49 219.91 62.98 C 217.19 64.11 214.86 63.10 213.11 60.90 C 211.69 58.14 216.00 47.23 209.86 50.56 C 202.56 57.82 195.40 65.24 188.03 72.43 C 181.54 70.38 185.49 64.56 188.23 61.06 C 191.71 56.25 198.84 53.14 200.09 47.15 C 194.47 45.51 188.80 43.91 183.01 43.01 C 176.17 48.50 170.56 55.37 164.13 61.32 C 159.74 61.70 161.00 56.66 159.95 53.72 C 164.20 48.94 169.21 44.88 173.26 39.92 C 168.42 36.67 162.53 34.94 157.04 32.96 C 149.23 39.42 142.66 47.39 135.14 54.24 C 130.50 54.93 126.22 53.54 122.07 51.78 C 120.80 41.52 124.06 27.55 120.97 18.94 C 120.49 19.09 119.53 19.39 119.04 19.53 C 108.05 25.78 96.93 31.83 84.97 36.02 C 83.03 35.55 81.19 36.34 80.00 37.89 C 78.36 38.65 76.69 39.36 75.05 40.12 C 73.66 39.57 71.92 39.54 70.95 40.87 C 69.98 41.36 69.01 41.83 68.03 42.30 C 65.81 41.37 63.47 41.96 61.99 43.84 C 54.14 46.42 46.18 48.65 38.05 50.12 C 36.46 54.56 35.79 62.59 37.96 67.99 C 38.38 72.37 37.31 77.01 38.77 81.27 L 38.96 82.00 C 37.90 84.79 38.17 87.17 39.76 89.13 C 40.01 91.42 40.43 93.69 41.09 95.90 C 41.32 97.43 41.79 100.47 42.02 102.00 C 42.17 103.54 42.49 106.63 42.65 108.18 C 42.96 109.21 43.32 110.23 43.71 111.24 L 44.03 112.02 C 44.44 113.60 46.67 112.64 47.86 113.03 C 45.54 116.77 50.59 119.08 46.06 120.09 C 46.09 121.35 46.18 122.61 46.33 123.87 C 45.67 127.74 42.15 128.69 38.93 127.09 C 32.30 101.98 29.07 75.95 28.96 49.99 C 26.68 44.53 32.19 42.69 35.99 41.98 C 65.63 35.24 95.24 25.78 120.68 8.70 M 129.11 19.08 C 128.71 25.38 129.11 31.70 128.98 38.00 C 129.15 39.11 128.18 51.40 130.52 47.21 C 136.01 40.88 143.29 36.12 147.92 29.15 C 142.38 25.68 136.63 22.46 130.74 19.62 C 130.33 19.49 129.52 19.22 129.11 19.08 Z" />
</g>
<g id="#3b1805ff">
<path fill="#3b1805" opacity="1.00" d=" M 119.04 19.53 C 119.53 19.39 120.49 19.09 120.97 18.94 C 120.78 43.78 121.50 68.65 120.63 93.47 C 120.25 93.18 119.51 92.59 119.13 92.29 C 120.37 68.19 120.89 43.45 119.04 19.53 Z" />
</g>
<g id="#a96934ff">
<path fill="#a96934" opacity="1.00" d=" M 120.97 18.94 C 124.06 27.55 120.80 41.52 122.07 51.78 C 122.01 66.14 121.85 80.50 122.11 94.85 C 121.74 94.51 121.00 93.82 120.63 93.47 C 121.50 68.65 120.78 43.78 120.97 18.94 Z" />
</g>
<g id="#93470fff">
<path fill="#93470f" opacity="1.00" d=" M 129.11 19.08 C 129.52 19.22 130.33 19.49 130.74 19.62 C 129.76 28.74 129.35 38.10 130.52 47.21 C 128.18 51.40 129.15 39.11 128.98 38.00 C 129.11 31.70 128.71 25.38 129.11 19.08 Z" />
</g>
<g id="#030100ff">
<path fill="#030100" opacity="1.00" d=" M 84.97 36.02 C 96.93 31.83 108.05 25.78 119.04 19.53 C 120.89 43.45 120.37 68.19 119.13 92.29 C 116.60 90.32 114.88 87.53 112.70 85.21 C 108.17 86.40 103.62 85.46 99.83 82.70 C 101.16 78.53 103.61 75.23 107.74 73.70 C 113.22 70.72 108.46 62.96 103.23 64.10 C 99.28 68.73 97.18 75.59 91.23 78.18 C 86.58 73.00 81.78 67.93 76.63 63.24 C 72.21 60.43 66.51 66.10 68.87 70.27 C 69.05 70.65 69.43 71.40 69.61 71.78 C 73.71 76.65 78.41 80.95 83.08 85.25 C 81.65 91.21 76.01 93.62 71.27 96.29 C 69.40 98.68 69.44 102.30 72.32 103.88 C 81.75 107.51 79.94 94.21 87.97 93.80 L 89.02 93.87 C 91.32 99.63 89.68 106.58 94.86 111.08 C 77.81 111.05 60.75 110.78 43.71 111.24 C 43.32 110.23 42.96 109.21 42.65 108.18 C 42.49 106.63 42.17 103.54 42.02 102.00 C 41.79 100.47 41.32 97.43 41.09 95.90 C 40.43 93.69 40.01 91.42 39.76 89.13 C 41.26 86.08 40.99 83.70 38.96 82.00 L 38.77 81.27 C 38.11 76.97 40.48 71.92 37.96 67.99 C 37.94 62.03 37.97 56.08 38.05 50.12 C 46.18 48.65 54.14 46.42 61.99 43.84 C 64.16 44.32 66.23 43.45 68.03 42.30 C 69.01 41.83 69.98 41.36 70.95 40.87 C 72.34 41.43 74.09 41.47 75.05 40.12 C 76.69 39.36 78.36 38.65 80.00 37.89 C 81.95 38.49 83.88 37.71 84.97 36.02 Z" />
<path fill="#030100" opacity="1.00" d=" M 148.67 120.23 C 165.43 119.63 182.21 120.18 198.98 119.98 C 204.95 116.57 203.80 121.52 204.25 124.17 C 199.98 136.33 197.38 149.02 191.76 160.77 C 179.14 190.73 158.63 219.07 129.22 234.13 C 129.22 233.67 129.21 232.74 129.21 232.28 C 131.40 203.53 128.74 174.59 130.58 145.82 C 138.44 154.85 147.82 162.35 156.13 170.93 C 162.42 173.09 169.45 173.69 176.18 174.02 C 177.45 174.05 178.72 174.02 179.99 173.93 C 179.64 166.08 179.38 158.05 177.63 150.36 C 168.43 139.91 157.25 131.21 148.67 120.23 Z" />
</g>
<g id="#601102ff">
<path fill="#601102" opacity="1.00" d=" M 130.52 47.21 C 129.35 38.10 129.76 28.74 130.74 19.62 C 136.63 22.46 142.38 25.68 147.92 29.15 C 143.29 36.12 136.01 40.88 130.52 47.21 Z" />
</g>
<g id="#a3a88fff">
<path fill="#a3a88f" opacity="1.00" d=" M 81.02 23.95 C 82.15 22.31 84.05 21.51 86.00 22.11 C 84.81 23.66 82.96 24.47 81.02 23.95 Z" />
</g>
<g id="#8b9374ff">
<path fill="#8b9374" opacity="1.00" d=" M 67.96 28.86 C 69.19 27.35 71.04 26.54 72.98 27.05 C 71.84 28.72 69.91 29.50 67.96 28.86 Z" />
</g>
<g id="#1e2d18ff">
<path fill="#1e2d18" opacity="1.00" d=" M 172.71 29.98 C 173.83 28.88 174.96 27.80 176.14 26.76 C 177.11 29.18 179.78 29.58 182.00 28.75 C 184.29 29.51 186.60 30.19 188.88 31.01 C 192.35 32.92 196.20 34.29 200.22 33.88 C 202.71 34.70 205.19 35.56 207.71 36.26 C 212.30 38.12 217.28 38.78 222.21 38.82 C 223.19 39.10 224.14 39.46 225.06 39.92 C 224.95 49.03 225.04 58.14 225.12 67.25 C 225.04 67.69 224.89 68.55 224.81 68.98 C 223.22 71.35 222.96 73.70 224.00 76.01 C 222.30 78.22 221.97 80.50 223.02 82.87 C 222.40 86.58 222.08 90.32 222.08 94.09 C 221.86 95.62 221.41 98.66 221.19 100.19 L 220.79 100.87 C 219.58 101.98 219.60 103.70 220.15 105.13 C 220.07 105.56 219.93 106.43 219.85 106.86 C 218.44 107.89 218.64 109.76 219.34 111.14 C 218.94 112.73 218.51 114.32 217.97 115.87 C 216.57 118.76 215.91 121.92 216.01 125.13 C 214.97 128.74 214.43 132.50 213.02 136.01 C 211.56 136.81 211.53 138.59 212.00 139.99 C 210.42 140.79 210.64 142.74 211.23 144.11 C 196.52 187.42 170.12 229.98 126.91 249.23 C 125.63 248.62 124.36 248.62 123.09 249.24 C 116.92 246.11 110.99 242.57 105.09 238.97 C 104.70 237.63 103.57 236.71 102.16 236.74 C 92.33 230.01 83.73 221.82 75.66 213.09 C 76.70 211.99 77.77 210.91 78.86 209.87 C 90.04 223.03 103.27 234.70 118.86 242.36 C 127.33 248.44 136.00 238.97 143.35 235.38 C 167.32 218.50 186.34 194.57 197.28 167.35 C 211.33 137.24 217.02 104.07 220.28 71.23 C 220.85 66.51 220.89 61.76 221.08 57.02 C 221.00 53.34 224.00 48.05 221.04 44.95 C 215.65 40.53 207.98 41.59 201.74 39.17 C 192.14 35.84 182.07 33.98 172.71 29.98 Z" />
</g>
<g id="#687455ff">
<path fill="#687455" opacity="1.00" d=" M 176.14 26.76 C 178.26 26.82 180.21 27.67 182.00 28.75 C 179.78 29.58 177.11 29.18 176.14 26.76 Z" />
</g>
<g id="#939779ff">
<path fill="#939779" opacity="1.00" d=" M 188.88 31.01 C 192.82 31.20 196.56 32.51 200.22 33.88 C 196.20 34.29 192.35 32.92 188.88 31.01 Z" />
</g>
<g id="#a8b29aff">
<path fill="#a8b29a" opacity="1.00" d=" M 48.95 33.90 C 50.47 33.70 53.52 33.29 55.05 33.08 C 53.52 33.29 50.47 33.70 48.95 33.90 Z" />
</g>
<g id="#550a01ff">
<path fill="#550a01" opacity="1.00" d=" M 135.14 54.24 C 142.66 47.39 149.23 39.42 157.04 32.96 C 162.53 34.94 168.42 36.67 173.26 39.92 C 169.21 44.88 164.20 48.94 159.95 53.72 C 156.31 57.23 152.78 60.88 148.89 64.12 C 145.51 63.24 142.04 66.08 147.12 66.70 C 144.94 66.75 141.77 67.94 143.25 70.65 C 146.62 74.11 152.16 76.40 152.83 81.73 C 151.58 82.51 147.49 84.25 150.50 85.42 C 154.48 87.69 150.84 92.36 148.31 94.18 C 146.90 90.13 146.23 84.29 139.82 86.75 C 147.24 86.66 146.82 85.38 141.74 84.12 C 143.60 82.10 145.50 80.11 147.23 77.97 C 145.67 76.00 143.27 75.00 141.15 73.77 C 138.02 72.02 136.11 77.16 134.10 79.05 C 132.74 80.07 131.40 81.11 130.00 82.08 C 129.96 74.65 129.96 67.23 129.83 59.81 C 131.45 57.82 133.34 56.07 135.14 54.24 Z" />
</g>
<g id="#8f9e81ff">
<path fill="#8f9e81" opacity="1.00" d=" M 39.01 37.10 C 39.71 35.50 41.63 35.61 43.02 36.07 C 42.08 37.36 40.43 37.46 39.01 37.10 Z" />
</g>
<g id="#6e401dff">
<path fill="#6e401d" opacity="1.00" d=" M 80.00 37.89 C 81.19 36.34 83.03 35.55 84.97 36.02 C 83.88 37.71 81.95 38.49 80.00 37.89 Z" />
</g>
<g id="#96977bff">
<path fill="#96977b" opacity="1.00" d=" M 207.71 36.26 C 212.67 35.99 217.46 37.61 222.21 38.82 C 217.28 38.78 212.30 38.12 207.71 36.26 Z" />
</g>
<g id="#90a088ff">
<path fill="#90a088" opacity="1.00" d=" M 33.99 37.91 C 35.28 36.47 37.31 36.57 39.01 37.10 C 37.71 38.53 35.68 38.42 33.99 37.91 Z" />
</g>
<g id="#9ea98eff">
<path fill="#9ea98e" opacity="1.00" d=" M 29.99 39.15 C 30.71 37.61 32.56 37.58 33.99 37.91 C 33.21 39.38 31.42 39.41 29.99 39.15 Z" />
</g>
<g id="#99a383ff">
<path fill="#99a383" opacity="1.00" d=" M 24.95 39.84 C 25.63 37.89 28.46 39.01 29.99 39.15 C 28.56 40.29 26.65 40.40 24.95 39.84 Z" />
</g>
<g id="#a9aa8bff">
<path fill="#a9aa8b" opacity="1.00" d=" M 25.01 61.01 C 22.97 54.29 23.74 46.70 24.95 39.84 C 25.00 46.90 24.97 53.95 25.01 61.01 Z" />
</g>
<g id="#76411bff">
<path fill="#76411b" opacity="1.00" d=" M 70.95 40.87 C 71.92 39.54 73.66 39.57 75.05 40.12 C 74.09 41.47 72.34 41.43 70.95 40.87 Z" />
</g>
<g id="#a5a48cff">
<path fill="#a5a48c" opacity="1.00" d=" M 225.06 39.92 C 227.69 47.76 225.75 58.63 225.12 67.25 C 225.04 58.14 224.95 49.03 225.06 39.92 Z" />
</g>
<g id="#73421cff">
<path fill="#73421c" opacity="1.00" d=" M 61.99 43.84 C 63.47 41.96 65.81 41.37 68.03 42.30 C 66.23 43.45 64.16 44.32 61.99 43.84 Z" />
</g>
<g id="#560801ff">
<path fill="#560801" opacity="1.00" d=" M 183.01 43.01 C 188.80 43.91 194.47 45.51 200.09 47.15 C 198.84 53.14 191.71 56.25 188.23 61.06 C 186.55 62.20 185.01 63.51 183.65 65.01 C 180.94 63.98 177.85 60.45 175.03 63.04 C 169.41 67.42 164.69 72.84 159.80 78.00 C 157.02 76.79 155.07 74.04 154.48 71.12 C 157.68 67.83 160.92 64.60 164.13 61.32 C 170.56 55.37 176.17 48.50 183.01 43.01 Z" />
</g>
<g id="#595b2eff">
<path fill="#595b2e" opacity="1.00" d=" M 221.04 44.95 C 224.00 48.05 221.00 53.34 221.08 57.02 C 221.09 52.99 221.08 48.97 221.04 44.95 Z" />
</g>
<g id="#814b22ff">
<path fill="#814b22" opacity="1.00" d=" M 37.96 67.99 C 35.79 62.59 36.46 54.56 38.05 50.12 C 37.97 56.08 37.94 62.03 37.96 67.99 Z" />
</g>
<g id="#9c521dff">
<path fill="#9c521d" opacity="1.00" d=" M 209.86 50.56 C 216.00 47.23 211.69 58.14 213.11 60.90 C 212.94 63.38 212.70 65.84 212.38 68.30 C 210.19 63.43 215.49 53.01 209.86 50.56 Z" />
</g>
<g id="#530801ff">
<path fill="#530801" opacity="1.00" d=" M 188.03 72.43 C 195.40 65.24 202.56 57.82 209.86 50.56 C 215.49 53.01 210.19 63.43 212.38 68.30 C 212.11 70.87 211.50 73.65 209.27 75.28 C 196.94 87.31 185.06 99.84 172.60 111.71 C 166.38 112.17 160.15 112.02 153.93 111.97 C 156.17 107.91 160.95 105.53 160.58 100.22 C 162.76 98.20 166.19 93.64 160.80 95.59 C 159.88 95.66 158.96 95.74 158.05 95.84 C 157.75 94.82 157.44 93.80 157.12 92.79 C 159.38 93.45 162.15 94.60 163.50 91.86 C 169.69 92.83 170.73 102.25 177.10 101.78 C 181.83 102.60 180.87 94.27 177.01 93.98 C 174.37 93.61 172.86 91.33 171.43 89.35 C 176.78 83.53 182.49 78.07 188.03 72.43 Z" />
</g>
<g id="#cf874bff">
<path fill="#cf874b" opacity="1.00" d=" M 122.07 51.78 C 126.22 53.54 130.50 54.93 135.14 54.24 C 133.34 56.07 131.45 57.82 129.83 59.81 C 128.33 67.34 128.90 75.34 129.10 83.05 C 131.88 83.73 133.34 81.31 134.10 79.05 C 136.55 77.43 138.84 75.59 141.15 73.77 C 143.27 75.00 145.67 76.00 147.23 77.97 C 145.50 80.11 143.60 82.10 141.74 84.12 C 133.98 84.77 130.34 92.76 124.47 97.02 C 123.69 96.29 122.90 95.58 122.11 94.85 C 121.85 80.50 122.01 66.14 122.07 51.78 Z" />
</g>
<g id="#c78044ff">
<path fill="#c78044" opacity="1.00" d=" M 148.89 64.12 C 152.78 60.88 156.31 57.23 159.95 53.72 C 161.00 56.66 159.74 61.70 164.13 61.32 C 160.92 64.60 157.68 67.83 154.48 71.12 C 150.70 71.40 150.43 66.58 148.89 64.12 Z" />
</g>
<g id="#806936ff">
<path fill="#806936" opacity="1.00" d=" M 219.91 62.98 C 220.20 61.49 220.79 58.51 221.08 57.02 C 220.89 61.76 220.85 66.51 220.28 71.23 C 220.15 68.48 220.03 65.73 219.91 62.98 Z" />
</g>
<g id="#8a3c0eff">
<path fill="#8a3c0e" opacity="1.00" d=" M 129.10 83.05 C 128.90 75.34 128.33 67.34 129.83 59.81 C 129.96 67.23 129.96 74.65 130.00 82.08 C 131.40 81.11 132.74 80.07 134.10 79.05 C 133.34 81.31 131.88 83.73 129.10 83.05 Z" />
</g>
<g id="#6f835dff">
<path fill="#6f835d" opacity="1.00" d=" M 25.01 61.01 C 26.55 63.70 26.03 66.87 26.17 69.86 L 25.06 70.03 C 24.98 67.03 25.05 64.01 25.01 61.01 Z" />
</g>
<g id="#be783dff">
<path fill="#be783d" opacity="1.00" d=" M 183.65 65.01 C 185.01 63.51 186.55 62.20 188.23 61.06 C 185.49 64.56 181.54 70.38 188.03 72.43 C 182.49 78.07 176.78 83.53 171.43 89.35 C 170.10 88.36 168.79 87.34 167.58 86.20 C 173.58 79.59 181.79 74.41 183.65 65.01 Z" />
</g>
<g id="#c47f44ff">
<path fill="#c47f44" opacity="1.00" d=" M 213.11 60.90 C 214.86 63.10 217.19 64.11 219.91 62.98 C 220.03 65.73 220.15 68.48 220.28 71.23 C 217.02 104.07 211.33 137.24 197.28 167.35 C 192.55 168.09 189.83 165.29 191.76 160.77 C 197.38 149.02 199.98 136.33 204.25 124.17 C 204.45 122.90 204.84 120.35 205.04 119.08 C 186.24 118.30 167.27 120.19 148.57 118.17 C 150.33 116.08 152.17 114.06 153.93 111.97 C 160.15 112.02 166.38 112.17 172.60 111.71 C 185.06 99.84 196.94 87.31 209.27 75.28 C 211.50 73.65 212.11 70.87 212.38 68.30 C 212.70 65.84 212.94 63.38 213.11 60.90 M 201.47 95.31 C 198.23 95.96 195.56 99.57 194.28 102.36 C 191.96 104.34 189.75 106.47 187.82 108.82 C 186.18 108.98 184.57 110.12 184.95 111.95 C 191.45 111.34 201.18 113.49 205.95 110.99 C 208.71 104.51 209.52 94.77 209.97 86.82 C 206.86 89.35 204.04 92.24 201.47 95.31 Z" />
</g>
<g id="#662201ff">
<path fill="#662201" opacity="1.00" d=" M 175.03 63.04 C 177.85 60.45 180.94 63.98 183.65 65.01 C 181.79 74.41 173.58 79.59 167.58 86.20 C 164.88 83.57 162.72 80.41 159.80 78.00 C 164.69 72.84 169.41 67.42 175.03 63.04 Z" />
</g>
<g id="#834304ff">
<path fill="#834304" opacity="1.00" d=" M 68.87 70.27 C 66.51 66.10 72.21 60.43 76.63 63.24 C 81.78 67.93 86.58 73.00 91.23 78.18 C 91.48 78.67 91.98 79.66 92.23 80.16 C 89.56 82.56 86.99 85.10 84.95 88.08 C 84.35 87.13 83.79 86.14 83.08 85.25 C 78.41 80.95 73.71 76.65 69.61 71.78 C 74.78 71.60 79.63 82.58 84.94 75.85 C 81.92 71.68 78.71 67.20 73.89 65.02 C 70.96 64.64 70.23 68.38 68.87 70.27 Z" />
</g>
<g id="#642c02ff">
<path fill="#642c02" opacity="1.00" d=" M 103.23 64.10 C 108.46 62.96 113.22 70.72 107.74 73.70 C 103.61 75.23 101.16 78.53 99.83 82.70 C 98.89 82.71 97.95 82.75 97.02 82.83 C 98.01 76.48 104.74 74.49 108.24 70.00 C 107.22 67.65 102.96 64.92 102.11 69.06 C 100.38 74.00 95.92 76.80 92.23 80.16 C 91.98 79.66 91.48 78.67 91.23 78.18 C 97.18 75.59 99.28 68.73 103.23 64.10 Z" />
</g>
<g id="#7a3b04ff">
<path fill="#7a3b04" opacity="1.00" d=" M 147.12 66.70 C 142.04 66.08 145.51 63.24 148.89 64.12 C 150.43 66.58 150.70 71.40 154.48 71.12 C 155.07 74.04 157.02 76.79 159.80 78.00 C 162.72 80.41 164.88 83.57 167.58 86.20 C 168.79 87.34 170.10 88.36 171.43 89.35 C 172.86 91.33 174.37 93.61 177.01 93.98 C 180.87 94.27 181.83 102.60 177.10 101.78 C 177.67 100.59 177.96 99.35 177.99 98.06 C 167.10 89.31 154.02 79.56 147.12 66.70 Z" />
</g>
<g id="#6a2800ff">
<path fill="#6a2800" opacity="1.00" d=" M 68.87 70.27 C 70.23 68.38 70.96 64.64 73.89 65.02 C 78.71 67.20 81.92 71.68 84.94 75.85 C 79.63 82.58 74.78 71.60 69.61 71.78 C 69.43 71.40 69.05 70.65 68.87 70.27 Z" />
</g>
<g id="#0d1405ff">
<path fill="#0d1405" opacity="1.00" d=" M 102.11 69.06 C 102.96 64.92 107.22 67.65 108.24 70.00 C 104.74 74.49 98.01 76.48 97.02 82.83 C 96.77 88.20 93.13 91.23 88.06 92.04 C 83.62 93.07 79.71 95.59 77.94 99.93 C 77.15 103.84 70.32 102.11 72.12 98.25 C 76.20 94.60 82.05 93.00 84.95 88.08 C 86.99 85.10 89.56 82.56 92.23 80.16 C 95.92 76.80 100.38 74.00 102.11 69.06 Z" />
</g>
<g id="#0b0f02ff">
<path fill="#0b0f02" opacity="1.00" d=" M 143.25 70.65 C 141.77 67.94 144.94 66.75 147.12 66.70 C 154.02 79.56 167.10 89.31 177.99 98.06 C 177.96 99.35 177.67 100.59 177.10 101.78 C 170.73 102.25 169.69 92.83 163.50 91.86 C 157.49 91.12 152.92 88.39 152.83 81.73 C 152.16 76.40 146.62 74.11 143.25 70.65 Z" />
</g>
<g id="#75451fff">
<path fill="#75451f" opacity="1.00" d=" M 37.96 67.99 C 40.48 71.92 38.11 76.97 38.77 81.27 C 37.31 77.01 38.38 72.37 37.96 67.99 Z" />
</g>
<g id="#b2af97ff">
<path fill="#b2af97" opacity="1.00" d=" M 224.00 76.01 C 222.96 73.70 223.22 71.35 224.81 68.98 C 226.02 71.39 225.76 73.73 224.00 76.01 Z" />
</g>
<g id="#dad2bdff">
<path fill="#dad2bd" opacity="1.00" d=" M 25.06 70.03 L 26.17 69.86 L 26.23 70.79 C 26.13 74.26 25.93 77.74 25.80 81.21 C 25.29 77.50 25.04 73.77 25.06 70.03 Z" />
</g>
<g id="#5c7853ff">
<path fill="#5c7853" opacity="1.00" d=" M 26.23 70.79 C 26.63 74.52 26.87 78.26 26.95 82.01 L 25.89 82.14 L 25.80 81.21 C 25.93 77.74 26.13 74.26 26.23 70.79 Z" />
</g>
<g id="#934919ff">
<path fill="#934919" opacity="1.00" d=" M 134.10 79.05 C 136.11 77.16 138.02 72.02 141.15 73.77 C 138.84 75.59 136.55 77.43 134.10 79.05 Z" />
</g>
<g id="#828e79ff">
<path fill="#828e79" opacity="1.00" d=" M 223.02 82.87 C 221.97 80.50 222.30 78.22 224.00 76.01 C 225.07 78.38 224.74 80.67 223.02 82.87 Z" />
</g>
<g id="#adb297ff">
<path fill="#adb297" opacity="1.00" d=" M 25.89 82.14 L 26.95 82.01 C 27.62 88.70 28.74 95.37 28.97 102.11 C 26.03 95.89 26.62 88.81 25.89 82.14 Z" />
</g>
<g id="#774019ff">
<path fill="#774019" opacity="1.00" d=" M 38.96 82.00 C 40.99 83.70 41.26 86.08 39.76 89.13 C 38.17 87.17 37.90 84.79 38.96 82.00 Z" />
</g>
<g id="#874307ff">
<path fill="#874307" opacity="1.00" d=" M 97.02 82.83 C 97.95 82.75 98.89 82.71 99.83 82.70 C 103.62 85.46 108.17 86.40 112.70 85.21 C 114.88 87.53 116.60 90.32 119.13 92.29 C 119.51 92.59 120.25 93.18 120.63 93.47 C 121.00 93.82 121.74 94.51 122.11 94.85 C 122.90 95.58 123.69 96.29 124.47 97.02 C 124.40 98.37 125.20 99.35 126.13 100.22 C 118.82 107.06 111.15 113.62 104.66 121.26 C 104.28 119.90 104.28 118.51 104.87 117.21 C 107.12 114.56 111.59 112.80 112.03 109.07 C 108.70 104.50 104.14 100.78 100.18 96.68 C 97.54 92.90 93.10 92.64 89.02 93.87 L 87.97 93.80 C 88.00 93.36 88.04 92.48 88.06 92.04 C 93.13 91.23 96.77 88.20 97.02 82.83 M 99.23 86.10 C 97.60 87.06 97.82 89.16 98.20 90.74 C 103.96 96.06 108.45 102.64 114.99 107.12 C 117.93 105.10 120.20 102.24 122.81 99.83 C 119.69 95.22 114.75 91.64 110.91 87.49 C 106.75 88.61 103.09 86.57 99.23 86.10 Z" />
</g>
<g id="#7f3e06ff">
<path fill="#7f3e06" opacity="1.00" d=" M 150.50 85.42 C 147.49 84.25 151.58 82.51 152.83 81.73 C 152.92 88.39 157.49 91.12 163.50 91.86 C 162.15 94.60 159.38 93.45 157.12 92.79 C 155.60 92.28 153.60 91.57 152.75 93.75 C 138.46 108.11 124.02 122.31 109.84 136.78 C 98.44 147.85 86.81 158.72 75.89 170.28 C 74.98 172.32 73.30 173.62 70.96 173.01 C 70.42 170.79 72.61 169.72 73.88 168.34 C 98.97 143.90 123.47 118.86 148.31 94.18 C 150.84 92.36 154.48 87.69 150.50 85.42 Z" />
</g>
<g id="#768574ff">
<path fill="#768574" opacity="1.00" d=" M 222.08 94.09 C 222.08 90.32 222.40 86.58 223.02 82.87 C 222.87 86.62 222.56 90.36 222.08 94.09 Z" />
</g>
<g id="#652908ff">
<path fill="#652908" opacity="1.00" d=" M 124.47 97.02 C 130.34 92.76 133.98 84.77 141.74 84.12 C 146.82 85.38 147.24 86.66 139.82 86.75 C 135.06 91.03 130.91 95.95 126.13 100.22 C 125.20 99.35 124.40 98.37 124.47 97.02 Z" />
</g>
<g id="#572c01ff">
<path fill="#572c01" opacity="1.00" d=" M 83.08 85.25 C 83.79 86.14 84.35 87.13 84.95 88.08 C 82.05 93.00 76.20 94.60 72.12 98.25 C 70.32 102.11 77.15 103.84 77.94 99.93 C 79.71 95.59 83.62 93.07 88.06 92.04 C 88.04 92.48 88.00 93.36 87.97 93.80 C 79.94 94.21 81.75 107.51 72.32 103.88 C 69.44 102.30 69.40 98.68 71.27 96.29 C 76.01 93.62 81.65 91.21 83.08 85.25 Z" />
</g>
<g id="#550600ff">
<path fill="#550600" opacity="1.00" d=" M 99.23 86.10 C 103.09 86.57 106.75 88.61 110.91 87.49 C 114.75 91.64 119.69 95.22 122.81 99.83 C 120.20 102.24 117.93 105.10 114.99 107.12 C 108.45 102.64 103.96 96.06 98.20 90.74 C 97.82 89.16 97.60 87.06 99.23 86.10 Z" />
</g>
<g id="#050100ff">
<path fill="#050100" opacity="1.00" d=" M 126.13 100.22 C 130.91 95.95 135.06 91.03 139.82 86.75 C 146.23 84.29 146.90 90.13 148.31 94.18 C 123.47 118.86 98.97 143.90 73.88 168.34 C 72.74 162.36 72.87 155.53 76.30 150.28 C 85.45 140.33 95.97 131.62 104.66 121.26 C 111.15 113.62 118.82 107.06 126.13 100.22 Z" />
</g>
<g id="#500702ff">
<path fill="#500702" opacity="1.00" d=" M 201.47 95.31 C 204.04 92.24 206.86 89.35 209.97 86.82 C 209.52 94.77 208.71 104.51 205.95 110.99 C 201.83 108.90 186.69 114.92 187.82 108.82 C 189.75 106.47 191.96 104.34 194.28 102.36 C 196.97 100.35 199.66 98.20 201.47 95.31 Z" />
</g>
<g id="#3a0100ff">
<path fill="#3a0100" opacity="1.00" d=" M 152.75 93.75 C 153.60 91.57 155.60 92.28 157.12 92.79 C 157.44 93.80 157.75 94.82 158.05 95.84 C 157.18 100.10 158.03 105.24 154.27 108.28 C 141.35 120.71 129.30 134.06 115.86 145.93 C 117.79 141.72 124.38 135.91 118.02 132.71 C 116.31 136.40 114.11 139.22 109.84 136.78 C 124.02 122.31 138.46 108.11 152.75 93.75 Z" />
</g>
<g id="#591e05ff">
<path fill="#591e05" opacity="1.00" d=" M 89.02 93.87 C 93.10 92.64 97.54 92.90 100.18 96.68 C 97.76 96.90 95.28 97.14 93.07 98.22 C 90.47 107.15 99.90 111.60 104.87 117.21 C 104.28 118.51 104.28 119.90 104.66 121.26 C 95.97 131.62 85.45 140.33 76.30 150.28 C 72.87 155.53 72.74 162.36 73.88 168.34 C 72.61 169.72 70.42 170.79 70.96 173.01 C 73.30 173.62 74.98 172.32 75.89 170.28 C 82.04 171.72 88.47 170.67 94.21 168.23 C 94.20 168.72 94.19 169.70 94.19 170.18 C 93.21 171.33 92.25 172.50 91.16 173.54 C 82.62 172.17 75.53 176.24 69.97 182.16 C 66.28 178.95 64.54 173.95 62.36 169.64 C 60.23 164.92 67.05 163.23 69.20 160.24 C 71.24 157.30 70.09 153.07 72.05 150.02 C 81.82 139.68 92.18 129.64 101.92 119.22 C 99.70 117.04 97.62 114.71 95.16 112.81 C 78.31 110.89 61.04 112.53 44.03 112.02 L 43.71 111.24 C 60.75 110.78 77.81 111.05 94.86 111.08 C 89.68 106.58 91.32 99.63 89.02 93.87 Z" />
</g>
<g id="#848f79ff">
<path fill="#848f79" opacity="1.00" d=" M 221.19 100.19 C 221.41 98.66 221.86 95.62 222.08 94.09 C 221.86 95.62 221.41 98.66 221.19 100.19 Z" />
</g>
<g id="#743204ff">
<path fill="#743204" opacity="1.00" d=" M 158.05 95.84 C 158.96 95.74 159.88 95.66 160.80 95.59 C 160.42 97.11 160.29 98.67 160.58 100.22 C 160.95 105.53 156.17 107.91 153.93 111.97 C 152.17 114.06 150.33 116.08 148.57 118.17 C 147.81 118.82 147.84 119.51 148.67 120.23 C 157.25 131.21 168.43 139.91 177.63 150.36 C 179.38 158.05 179.64 166.08 179.99 173.93 C 178.72 174.02 177.45 174.05 176.18 174.02 C 163.69 158.89 148.95 145.57 134.97 131.82 C 132.81 134.70 127.00 136.79 127.72 140.95 C 126.26 140.73 123.70 139.05 123.99 141.74 C 117.44 148.92 123.63 159.97 120.18 168.17 C 120.02 160.41 120.11 152.64 119.90 144.89 C 111.04 153.02 102.91 161.90 94.19 170.18 C 94.19 169.70 94.20 168.72 94.21 168.23 C 101.13 160.51 109.19 153.83 115.86 145.93 C 129.30 134.06 141.35 120.71 154.27 108.28 C 158.03 105.24 157.18 100.10 158.05 95.84 M 137.13 129.77 C 143.45 135.74 149.34 142.15 155.74 148.04 C 162.87 155.65 170.35 163.00 177.97 170.14 C 177.45 164.17 176.78 158.21 175.71 152.33 C 171.65 147.92 167.33 143.73 162.96 139.64 C 157.18 133.55 151.33 127.40 144.97 121.94 C 141.92 123.99 139.47 126.95 137.13 129.77 Z" />
</g>
<g id="#af672dff">
<path fill="#af672d" opacity="1.00" d=" M 160.80 95.59 C 166.19 93.64 162.76 98.20 160.58 100.22 C 160.29 98.67 160.42 97.11 160.80 95.59 Z" />
</g>
<g id="#8d4317ff">
<path fill="#8d4317" opacity="1.00" d=" M 194.28 102.36 C 195.56 99.57 198.23 95.96 201.47 95.31 C 199.66 98.20 196.97 100.35 194.28 102.36 Z" />
</g>
<g id="#693718ff">
<path fill="#693718" opacity="1.00" d=" M 41.09 95.90 C 41.32 97.43 41.79 100.47 42.02 102.00 C 41.79 100.47 41.32 97.43 41.09 95.90 Z" />
</g>
<g id="#240200ff">
<path fill="#240200" opacity="1.00" d=" M 93.07 98.22 C 95.28 97.14 97.76 96.90 100.18 96.68 C 104.14 100.78 108.70 104.50 112.03 109.07 C 111.59 112.80 107.12 114.56 104.87 117.21 C 99.90 111.60 90.47 107.15 93.07 98.22 Z" />
</g>
<g id="#858e77ff">
<path fill="#858e77" opacity="1.00" d=" M 220.15 105.13 C 219.60 103.70 219.58 101.98 220.79 100.87 C 221.39 102.29 221.49 104.09 220.15 105.13 Z" />
</g>
<g id="#abab8cff">
<path fill="#abab8c" opacity="1.00" d=" M 28.97 102.11 C 30.75 103.21 30.38 105.46 29.68 107.11 C 28.58 105.66 28.62 103.80 28.97 102.11 Z" />
</g>
<g id="#603719ff">
<path fill="#603719" opacity="1.00" d=" M 42.02 102.00 C 42.17 103.54 42.49 106.63 42.65 108.18 C 42.49 106.63 42.17 103.54 42.02 102.00 Z" />
</g>
<g id="#8a907dff">
<path fill="#8a907d" opacity="1.00" d=" M 219.34 111.14 C 218.64 109.76 218.44 107.89 219.85 106.86 C 220.38 108.29 220.40 109.95 219.34 111.14 Z" />
</g>
<g id="#7f350fff">
<path fill="#7f350f" opacity="1.00" d=" M 184.95 111.95 C 184.57 110.12 186.18 108.98 187.82 108.82 C 186.69 114.92 201.83 108.90 205.95 110.99 C 201.18 113.49 191.45 111.34 184.95 111.95 Z" />
</g>
<g id="#a36634ff">
<path fill="#a36634" opacity="1.00" d=" M 44.03 112.02 C 61.04 112.53 78.31 110.89 95.16 112.81 C 79.39 113.16 63.62 112.92 47.86 113.03 C 46.67 112.64 44.44 113.60 44.03 112.02 Z" />
</g>
<g id="#d08f4eff">
<path fill="#d08f4e" opacity="1.00" d=" M 47.86 113.03 C 63.62 112.92 79.39 113.16 95.16 112.81 C 97.62 114.71 99.70 117.04 101.92 119.22 C 92.18 129.64 81.82 139.68 72.05 150.02 C 70.09 153.07 71.24 157.30 69.20 160.24 C 67.05 163.23 60.23 164.92 62.36 169.64 C 64.54 173.95 66.28 178.95 69.97 182.16 C 75.53 176.24 82.62 172.17 91.16 173.54 C 85.86 179.14 79.56 183.91 74.90 190.07 C 75.80 194.20 79.29 197.19 81.24 200.83 C 81.57 204.18 81.16 207.22 77.82 208.35 C 58.08 185.29 46.17 156.33 38.93 127.09 C 42.15 128.69 45.67 127.74 46.33 123.87 C 47.07 126.67 47.81 129.50 49.11 132.11 C 51.97 127.52 59.25 125.57 60.12 120.09 C 55.44 119.97 50.75 119.91 46.06 120.09 C 50.59 119.08 45.54 116.77 47.86 113.03 M 73.33 120.23 C 66.19 127.13 59.30 134.31 52.19 141.25 C 52.05 147.46 55.85 153.35 58.12 159.06 C 70.77 146.27 85.16 133.94 96.07 120.08 C 88.50 119.79 80.90 119.89 73.33 120.23 Z" />
</g>
<g id="#aeac91ff">
<path fill="#aeac91" opacity="1.00" d=" M 31.27 113.90 C 32.49 115.36 32.37 117.34 31.80 119.05 C 30.30 117.70 30.67 115.58 31.27 113.90 Z" />
</g>
<g id="#848e7eff">
<path fill="#848e7e" opacity="1.00" d=" M 216.01 125.13 C 215.91 121.92 216.57 118.76 217.97 115.87 C 218.09 119.08 217.43 122.25 216.01 125.13 Z" />
</g>
<g id="#a05e2eff">
<path fill="#a05e2e" opacity="1.00" d=" M 148.67 120.23 C 147.84 119.51 147.81 118.82 148.57 118.17 C 167.27 120.19 186.24 118.30 205.04 119.08 C 204.84 120.35 204.45 122.90 204.25 124.17 C 203.80 121.52 204.95 116.57 198.98 119.98 C 182.21 120.18 165.43 119.63 148.67 120.23 Z" />
</g>
<g id="#671904ff">
<path fill="#671904" opacity="1.00" d=" M 46.06 120.09 C 50.75 119.91 55.44 119.97 60.12 120.09 C 59.25 125.57 51.97 127.52 49.11 132.11 C 47.81 129.50 47.07 126.67 46.33 123.87 C 46.18 122.61 46.09 121.35 46.06 120.09 Z" />
</g>
<g id="#5d0d02ff">
<path fill="#5d0d02" opacity="1.00" d=" M 73.33 120.23 C 80.90 119.89 88.50 119.79 96.07 120.08 C 85.16 133.94 70.77 146.27 58.12 159.06 C 55.85 153.35 52.05 147.46 52.19 141.25 C 59.30 134.31 66.19 127.13 73.33 120.23 Z" />
</g>
<g id="#8c9373ff">
<path fill="#8c9373" opacity="1.00" d=" M 33.18 120.92 C 34.50 121.94 34.40 123.72 33.78 125.11 C 32.55 124.03 32.59 122.32 33.18 120.92 Z" />
</g>
<g id="#250100ff">
<path fill="#250100" opacity="1.00" d=" M 137.13 129.77 C 139.47 126.95 141.92 123.99 144.97 121.94 C 151.33 127.40 157.18 133.55 162.96 139.64 C 159.80 141.70 155.11 143.44 155.74 148.04 C 149.34 142.15 143.45 135.74 137.13 129.77 Z" />
<path fill="#250100" opacity="1.00" d=" M 109.84 136.78 C 114.11 139.22 116.31 136.40 118.02 132.71 C 124.38 135.91 117.79 141.72 115.86 145.93 C 109.19 153.83 101.13 160.51 94.21 168.23 C 88.47 170.67 82.04 171.72 75.89 170.28 C 86.81 158.72 98.44 147.85 109.84 136.78 Z" />
</g>
<g id="#440300ff">
<path fill="#440300" opacity="1.00" d=" M 127.72 140.95 C 127.00 136.79 132.81 134.70 134.97 131.82 C 148.95 145.57 163.69 158.89 176.18 174.02 C 169.45 173.69 162.42 173.09 156.13 170.93 C 156.86 170.94 158.33 170.96 159.06 170.97 C 147.99 161.63 138.92 150.11 127.72 140.95 Z" />
</g>
<g id="#888f81ff">
<path fill="#888f81" opacity="1.00" d=" M 212.00 139.99 C 211.53 138.59 211.56 136.81 213.02 136.01 C 213.39 137.40 213.44 139.18 212.00 139.99 Z" />
</g>
<g id="#999d84ff">
<path fill="#999d84" opacity="1.00" d=" M 36.97 137.02 C 38.38 137.86 38.45 139.60 38.14 141.04 C 36.58 140.30 36.61 138.44 36.97 137.02 Z" />
</g>
<g id="#3c1605ff">
<path fill="#3c1605" opacity="1.00" d=" M 123.99 141.74 C 123.70 139.05 126.26 140.73 127.72 140.95 C 128.65 142.59 129.63 144.19 130.58 145.82 C 128.74 174.59 131.40 203.53 129.21 232.28 C 128.21 203.48 130.18 174.48 128.22 145.81 C 126.99 144.28 125.46 143.02 123.99 141.74 Z" />
</g>
<g id="#0c0100ff">
<path fill="#0c0100" opacity="1.00" d=" M 155.74 148.04 C 155.11 143.44 159.80 141.70 162.96 139.64 C 167.33 143.73 171.65 147.92 175.71 152.33 C 176.78 158.21 177.45 164.17 177.97 170.14 C 170.35 163.00 162.87 155.65 155.74 148.04 Z" />
</g>
<g id="#9a9e90ff">
<path fill="#9a9e90" opacity="1.00" d=" M 211.23 144.11 C 210.64 142.74 210.42 140.79 212.00 139.99 C 212.46 141.41 212.36 143.03 211.23 144.11 Z" />
</g>
<g id="#abab92ff">
<path fill="#abab92" opacity="1.00" d=" M 38.14 141.04 C 39.33 142.82 39.79 144.96 39.78 147.09 C 37.37 145.97 37.48 143.22 38.14 141.04 Z" />
</g>
<g id="#652500ff">
<path fill="#652500" opacity="1.00" d=" M 127.72 140.95 C 138.92 150.11 147.99 161.63 159.06 170.97 C 158.33 170.96 156.86 170.94 156.13 170.93 C 147.82 162.35 138.44 154.85 130.58 145.82 C 129.63 144.19 128.65 142.59 127.72 140.95 Z" />
</g>
<g id="#c27f43ff">
<path fill="#c27f43" opacity="1.00" d=" M 123.99 141.74 C 125.46 143.02 126.99 144.28 128.22 145.81 C 127.69 166.86 128.21 187.92 127.98 208.96 C 128.02 211.03 124.82 211.66 125.07 213.79 C 130.65 217.52 127.50 227.28 127.89 233.96 C 121.39 235.79 128.31 224.89 122.36 224.37 C 121.18 222.10 124.11 211.81 119.10 215.84 C 115.80 219.56 112.21 223.04 109.00 226.84 C 111.81 229.11 114.86 231.09 117.81 233.20 C 115.02 237.15 123.79 240.38 118.86 242.36 C 103.27 234.70 90.04 223.03 78.86 209.87 C 78.60 209.49 78.08 208.73 77.82 208.35 C 81.16 207.22 81.57 204.18 81.24 200.83 C 82.71 202.04 84.56 205.63 86.28 202.26 C 97.48 190.81 109.10 179.74 120.18 168.17 C 123.63 159.97 117.44 148.92 123.99 141.74 M 116.22 184.32 C 107.65 192.64 99.46 201.36 90.72 209.51 C 88.06 209.70 92.96 216.05 95.89 216.13 C 97.47 218.28 99.78 219.70 102.02 221.06 C 108.45 215.87 113.74 209.27 119.90 203.74 C 123.01 200.92 119.93 190.20 121.01 184.98 C 124.63 176.14 116.50 180.84 116.22 184.32 Z" />
</g>
<g id="#540801ff">
<path fill="#540801" opacity="1.00" d=" M 94.19 170.18 C 102.91 161.90 111.04 153.02 119.90 144.89 C 120.11 152.64 120.02 160.41 120.18 168.17 C 109.10 179.74 97.48 190.81 86.28 202.26 C 84.56 205.63 82.71 202.04 81.24 200.83 C 79.29 197.19 75.80 194.20 74.90 190.07 C 79.56 183.91 85.86 179.14 91.16 173.54 C 92.25 172.50 93.21 171.33 94.19 170.18 Z" />
</g>
<g id="#ac6937ff">
<path fill="#ac6937" opacity="1.00" d=" M 128.22 145.81 C 130.18 174.48 128.21 203.48 129.21 232.28 C 129.21 232.74 129.22 233.67 129.22 234.13 C 158.63 219.07 179.14 190.73 191.76 160.77 C 189.83 165.29 192.55 168.09 197.28 167.35 C 186.34 194.57 167.32 218.50 143.35 235.38 C 136.00 238.97 127.33 248.44 118.86 242.36 C 123.79 240.38 115.02 237.15 117.81 233.20 C 120.24 233.76 124.44 236.10 121.06 229.03 C 119.64 225.40 123.74 217.26 119.10 215.84 C 124.11 211.81 121.18 222.10 122.36 224.37 C 128.31 224.89 121.39 235.79 127.89 233.96 C 127.50 227.28 130.65 217.52 125.07 213.79 C 124.82 211.66 128.02 211.03 127.98 208.96 C 128.21 187.92 127.69 166.86 128.22 145.81 Z" />
</g>
<g id="#959b80ff">
<path fill="#959b80" opacity="1.00" d=" M 42.05 153.03 C 43.68 154.14 44.48 156.04 43.93 157.98 C 42.33 156.84 41.53 154.96 42.05 153.03 Z" />
</g>
<g id="#979e83ff">
<path fill="#979e83" opacity="1.00" d=" M 46.84 165.19 C 48.78 165.98 49.52 168.06 48.88 170.00 C 47.44 168.80 46.60 167.08 46.84 165.19 Z" />
</g>
<g id="#742e0aff">
<path fill="#742e0a" opacity="1.00" d=" M 116.22 184.32 C 116.50 180.84 124.63 176.14 121.01 184.98 C 119.93 190.20 123.01 200.92 119.90 203.74 C 120.01 196.50 120.10 189.26 120.01 182.03 C 118.72 182.75 117.48 183.55 116.22 184.32 Z" />
</g>
<g id="#4d0300ff">
<path fill="#4d0300" opacity="1.00" d=" M 116.22 184.32 C 117.48 183.55 118.72 182.75 120.01 182.03 C 120.10 189.26 120.01 196.50 119.90 203.74 C 113.74 209.27 108.45 215.87 102.02 221.06 C 99.78 219.70 97.47 218.28 95.89 216.13 C 94.18 213.91 92.44 211.72 90.72 209.51 C 99.46 201.36 107.65 192.64 116.22 184.32 Z" />
</g>
<g id="#9a9b7bff">
<path fill="#9a9b7b" opacity="1.00" d=" M 57.01 185.92 C 58.48 186.24 59.36 187.63 58.96 189.10 C 57.53 188.72 56.65 187.38 57.01 185.92 Z" />
</g>
<g id="#8b4518ff">
<path fill="#8b4518" opacity="1.00" d=" M 95.89 216.13 C 92.96 216.05 88.06 209.70 90.72 209.51 C 92.44 211.72 94.18 213.91 95.89 216.13 Z" />
</g>
<g id="#4a0e03ff">
<path fill="#4a0e03" opacity="1.00" d=" M 119.10 215.84 C 123.74 217.26 119.64 225.40 121.06 229.03 C 124.44 236.10 120.24 233.76 117.81 233.20 C 114.86 231.09 111.81 229.11 109.00 226.84 C 112.21 223.04 115.80 219.56 119.10 215.84 Z" />
</g>
<g id="#8b9484ff">
<path fill="#8b9484" opacity="1.00" d=" M 102.16 236.74 C 103.57 236.71 104.70 237.63 105.09 238.97 C 103.58 239.42 102.07 238.36 102.16 236.74 Z" />
</g>
<g id="#9b9b89ff">
<path fill="#9b9b89" opacity="1.00" d=" M 123.09 249.24 C 124.36 248.62 125.63 248.62 126.91 249.23 L 126.76 250.00 L 123.24 250.00 L 123.09 249.24 Z" />
</g>
</svg>
