<?xml version="1.0" encoding="utf-8"?>
<!-- Generator: Adobe Illustrator 26.0.3, SVG Export Plug-In . SVG Version: 6.00 Build 0)  -->
<svg version="1.1" id="Layer_1" xmlns="http://www.w3.org/2000/svg" xmlns:xlink="http://www.w3.org/1999/xlink" x="0px" y="0px"
	 viewBox="0 0 206 250" style="enable-background:new 0 0 206 250;" xml:space="preserve">
<style type="text/css">
	.st0{fill:#FFC700;}
	.st1{fill:#2A2D34;}
</style>
<g id="_x23_ffc700ff">
	<path class="st0" d="M4.1,23.1C14.7,16.9,25.4,11,35.9,4.6c1.8-0.5,2.9,1.5,4.3,2.3c53,40.4,106.2,80.5,159.2,120.8
		c1.4,1.5,4.8,2.2,4.4,4.6c-21,11.9-41.8,24-62.8,36c-0.5,0-1.5,0.1-2,0.2c-11.7-8.8-23.3-17.8-35-26.5c1-1.7,2.9-2.4,4.6-3.3
		c7.8-4.4,15.5-8.8,23.2-13.3c0-0.5-0.1-1.3-0.1-1.8c-9.8-7.2-19.4-14.7-29.1-22c-1-0.8-2.4-0.1-3.3,0.5
		c-7.7,4.7-15.6,9.1-23.4,13.6c-1,0.7-2.2,1-3.4,1.2c0.2-12.7,0-25.3,0.1-38c-11.5-8.8-22.9-17.7-34.7-26.1
		C26.1,43.9,14.4,35.2,2.8,26.2C2.4,25,3,23.7,4.1,23.1z"/>
</g>
<g id="_x23_2a2d34ff">
	<path class="st1" d="M2.8,26.2c11.5,9,23.3,17.7,34.9,26.6c-0.5,58.5,0.1,116.9-0.4,175.4c-11.4,6.4-22.8,12.9-34.1,19.6
		c-1.2-4.8,0.3-9.8-0.1-14.7c-0.8-9.3-0.2-18.7,0-28c-0.8-10-0.2-20-0.1-30c-0.7-9-0.1-18.1,0.1-27.1c-0.8-9.3-0.3-18.7,0-28
		c-1.2-12.3,0.7-24.7-0.4-37c-0.3-7.3,0.6-14.7,0.3-22c-0.5-5.7-0.4-11.3-0.3-17C3.6,38.1,2.4,32.1,2.8,26.2z"/>
	<path class="st1" d="M72.7,164.6c10.8,8.2,21.6,16.4,32.4,24.5c-11,5.8-21.7,12.2-32.4,18.5C72.8,193.3,72.5,179,72.7,164.6z"/>
</g>
</svg>
