<?xml version="1.0" encoding="UTF-8" ?>
<!DOCTYPE svg PUBLIC "-//W3C//DTD SVG 1.1//EN" "http://www.w3.org/Graphics/SVG/1.1/DTD/svg11.dtd">
<svg width="250pt" height="250pt" viewBox="0 0 250 250" version="1.1" xmlns="http://www.w3.org/2000/svg">
<g id="#f8c8c6ff">
<path fill="#f8c8c6" opacity="1.00" d=" M 0.00 0.00 L 131.84 0.00 C 131.63 2.17 132.05 4.52 130.86 6.47 C 127.14 5.81 121.93 7.76 124.71 12.35 L 124.80 13.26 C 119.95 14.01 115.00 13.55 110.17 14.29 C 109.48 14.68 108.79 15.04 108.09 15.39 C 72.07 14.38 36.00 14.96 0.00 15.04 L 0.00 0.00 Z" />
</g>
<g id="#ae9186ff">
<path fill="#ae9186" opacity="1.00" d=" M 131.84 0.00 L 132.89 0.00 C 132.93 1.76 132.99 5.29 133.02 7.05 L 132.83 7.89 C 131.55 7.90 130.27 7.94 128.99 7.99 C 126.40 8.03 124.31 9.55 124.71 12.35 C 121.93 7.76 127.14 5.81 130.86 6.47 C 132.05 4.52 131.63 2.17 131.84 0.00 Z" />
</g>
<g id="#705324ff">
<path fill="#705324" opacity="1.00" d=" M 132.89 0.00 L 133.91 0.00 C 132.14 5.37 134.74 6.69 139.01 6.09 L 139.21 6.97 C 137.21 7.76 135.06 7.50 133.02 7.05 C 132.99 5.29 132.93 1.76 132.89 0.00 Z" />
</g>
<g id="#080804ff">
<path fill="#080804" opacity="1.00" d=" M 133.91 0.00 L 138.97 0.00 C 138.98 2.03 138.99 4.06 139.01 6.09 C 134.74 6.69 132.14 5.37 133.91 0.00 Z" />
</g>
<g id="#957779ff">
<path fill="#957779" opacity="1.00" d=" M 138.97 0.00 L 139.90 0.00 C 133.92 10.23 150.08 3.89 146.90 8.88 C 144.61 8.56 142.32 8.27 140.04 8.00 C 139.83 7.74 139.42 7.22 139.21 6.97 L 139.01 6.09 C 138.99 4.06 138.98 2.03 138.97 0.00 Z" />
</g>
<g id="#f8c8c5ff">
<path fill="#f8c8c5" opacity="1.00" d=" M 139.90 0.00 L 250.00 0.00 L 250.00 15.00 C 225.69 14.91 201.37 15.18 177.07 14.87 C 167.11 13.30 157.01 14.16 146.98 14.01 C 146.79 12.31 146.53 10.58 146.90 8.88 C 150.08 3.89 133.92 10.23 139.90 0.00 Z" />
</g>
<g id="#efd107ff">
<path fill="#efd107" opacity="1.00" d=" M 133.02 7.05 C 135.06 7.50 137.21 7.76 139.21 6.97 C 144.05 17.28 128.34 15.79 132.83 7.89 L 133.02 7.05 Z" />
</g>
<g id="#7c710eff">
<path fill="#7c710e" opacity="1.00" d=" M 139.21 6.97 C 139.42 7.22 139.83 7.74 140.04 8.00 L 140.05 8.89 C 138.99 13.11 140.83 15.03 145.08 14.01 C 145.55 14.01 146.51 14.01 146.98 14.01 L 146.93 14.96 C 141.29 13.62 138.19 14.87 140.04 21.07 L 139.18 21.18 L 139.12 20.09 C 138.67 17.27 140.37 11.84 133.98 14.96 C 130.00 15.39 131.58 9.86 128.99 7.99 C 130.27 7.94 131.55 7.90 132.83 7.89 C 128.34 15.79 144.05 17.28 139.21 6.97 Z" />
</g>
<g id="#080706ff">
<path fill="#080706" opacity="1.00" d=" M 124.71 12.35 C 124.31 9.55 126.40 8.03 128.99 7.99 C 131.58 9.86 130.00 15.39 133.98 14.96 C 140.37 11.84 138.67 17.27 139.12 20.09 C 129.70 19.97 120.28 19.91 110.86 20.11 C 108.02 10.09 123.55 18.76 124.80 13.26 L 124.71 12.35 Z" />
</g>
<g id="#543a47ff">
<path fill="#543a47" opacity="1.00" d=" M 140.04 8.00 C 142.32 8.27 144.61 8.56 146.90 8.88 C 146.53 10.58 146.79 12.31 146.98 14.01 C 146.51 14.01 145.55 14.01 145.08 14.01 C 145.92 9.95 144.14 8.06 140.05 8.89 L 140.04 8.00 Z" />
</g>
<g id="#090904ff">
<path fill="#090904" opacity="1.00" d=" M 140.05 8.89 C 144.14 8.06 145.92 9.95 145.08 14.01 C 140.83 15.03 138.99 13.11 140.05 8.89 Z" />
</g>
<g id="#836264ff">
<path fill="#836264" opacity="1.00" d=" M 110.17 14.29 C 115.00 13.55 119.95 14.01 124.80 13.26 C 123.55 18.76 108.02 10.09 110.86 20.11 L 110.81 21.22 C 110.60 20.94 110.20 20.37 110.00 20.08 C 110.01 18.15 110.05 16.22 110.17 14.29 Z" />
</g>
<g id="#f9bebcff">
<path fill="#f9bebc" opacity="1.00" d=" M 0.00 15.04 C 36.00 14.96 72.07 14.38 108.09 15.39 C 108.79 15.04 109.48 14.68 110.17 14.29 C 110.05 16.22 110.01 18.15 110.00 20.08 C 102.81 21.00 92.58 18.17 94.08 29.09 C 90.15 30.08 83.80 27.17 80.78 29.81 C 81.51 34.86 79.58 36.94 74.98 36.04 C 71.37 35.73 72.78 40.48 72.70 42.74 C 70.06 42.90 67.44 43.15 64.91 43.89 C 43.27 44.15 21.64 43.93 0.00 44.00 L 0.00 15.04 Z" />
</g>
<g id="#8d6967ff">
<path fill="#8d6967" opacity="1.00" d=" M 146.98 14.01 C 157.01 14.16 167.11 13.30 177.07 14.87 C 172.93 26.07 184.72 20.81 190.79 22.18 C 192.00 24.24 192.00 26.66 192.04 28.97 C 191.54 28.98 190.55 28.98 190.06 28.99 C 193.33 19.83 182.09 22.48 176.96 23.90 C 176.47 22.96 175.98 22.03 175.48 21.10 C 175.37 19.67 175.21 18.24 175.02 16.82 C 169.31 12.20 156.24 16.40 147.92 15.00 L 146.93 14.96 L 146.98 14.01 Z" />
</g>
<g id="#fbd702ff">
<path fill="#fbd702" opacity="1.00" d=" M 140.04 21.07 C 138.19 14.87 141.29 13.62 146.93 14.96 C 146.93 17.01 146.88 19.05 146.96 21.10 C 147.00 21.55 147.07 22.46 147.11 22.91 C 156.32 23.35 165.58 22.55 174.79 23.14 C 175.92 24.93 176.62 26.93 176.86 29.14 C 180.64 32.83 194.86 24.92 191.23 36.25 C 184.01 38.19 175.01 33.93 169.01 37.01 C 168.55 39.29 167.68 41.87 168.87 44.07 C 171.23 46.96 179.78 41.82 176.02 50.01 C 173.76 57.00 181.98 74.07 169.87 72.89 C 167.88 69.34 168.92 64.48 163.23 66.99 C 163.82 61.81 161.09 57.13 161.53 51.99 C 159.88 52.02 156.58 52.08 154.93 52.11 C 154.63 51.83 154.04 51.27 153.74 50.98 C 152.66 46.11 157.27 36.53 149.77 37.51 C 144.82 37.83 148.72 28.48 143.33 29.42 C 138.97 30.90 130.79 26.02 132.87 34.96 C 127.28 38.17 117.46 33.88 110.78 36.75 C 110.57 38.30 110.15 41.39 109.94 42.93 C 104.29 41.19 100.62 43.62 101.72 49.73 C 97.99 52.17 92.76 51.49 88.56 53.13 C 88.42 57.51 87.33 61.79 86.08 65.97 C 84.44 66.56 80.18 64.82 81.22 67.80 L 81.31 68.70 C 82.60 75.52 70.77 70.88 73.27 77.60 C 71.69 81.38 62.49 81.83 66.36 75.48 C 66.90 72.30 63.91 66.72 68.45 66.57 C 74.71 69.26 74.16 54.78 68.61 59.46 C 66.48 59.22 67.81 54.37 67.74 52.12 C 69.15 52.10 70.56 52.04 71.98 51.96 C 75.88 50.86 83.15 53.79 81.20 46.11 C 81.42 43.11 84.63 43.46 86.76 43.77 C 89.01 42.67 87.11 40.01 87.19 38.15 C 89.73 37.53 92.78 38.58 95.25 37.30 C 98.63 34.24 105.12 38.07 102.06 30.03 C 104.63 30.05 107.21 29.98 109.79 29.81 C 112.18 29.57 114.57 29.25 116.95 28.86 C 112.93 15.34 137.43 28.73 140.04 21.07 Z" />
</g>
<g id="#867406ff">
<path fill="#867406" opacity="1.00" d=" M 146.93 14.96 L 147.92 15.00 C 148.31 16.65 147.26 19.13 148.80 20.22 C 157.42 21.91 166.64 20.63 175.48 21.10 C 166.14 21.89 156.16 23.42 146.96 21.10 C 146.88 19.05 146.93 17.01 146.93 14.96 Z" />
</g>
<g id="#060706ff">
<path fill="#060706" opacity="1.00" d=" M 147.92 15.00 C 156.24 16.40 169.31 12.20 175.02 16.82 C 170.01 24.18 157.14 18.25 148.80 20.22 C 147.26 19.13 148.31 16.65 147.92 15.00 Z" />
</g>
<g id="#f8bdbbff">
<path fill="#f8bdbb" opacity="1.00" d=" M 177.07 14.87 C 201.37 15.18 225.69 14.91 250.00 15.00 L 250.00 44.00 C 235.67 44.00 221.35 44.00 207.03 44.00 C 207.99 39.41 207.42 34.26 201.07 35.88 C 197.46 35.62 200.75 29.42 197.95 29.07 C 195.98 28.93 194.01 28.96 192.04 28.97 C 192.00 26.66 192.00 24.24 190.79 22.18 C 184.72 20.81 172.93 26.07 177.07 14.87 Z" />
</g>
<g id="#32280aff">
<path fill="#32280a" opacity="1.00" d=" M 148.80 20.22 C 157.14 18.25 170.01 24.18 175.02 16.82 C 175.21 18.24 175.37 19.67 175.48 21.10 C 166.64 20.63 157.42 21.91 148.80 20.22 Z" />
</g>
<g id="#b78681ff">
<path fill="#b78681" opacity="1.00" d=" M 94.08 29.09 C 92.58 18.17 102.81 21.00 110.00 20.08 C 110.20 20.37 110.60 20.94 110.81 21.22 L 111.32 22.00 C 110.97 22.26 110.26 22.78 109.90 23.04 C 104.58 22.93 93.31 19.49 95.92 28.90 C 95.61 29.18 95.01 29.73 94.70 30.00 L 93.87 29.98 L 94.08 29.09 Z" />
</g>
<g id="#312905ff">
<path fill="#312905" opacity="1.00" d=" M 110.86 20.11 C 120.28 19.91 129.70 19.97 139.12 20.09 L 139.18 21.18 C 129.72 20.99 120.26 20.84 110.81 21.22 L 110.86 20.11 Z" />
</g>
<g id="#7d6f08ff">
<path fill="#7d6f08" opacity="1.00" d=" M 110.81 21.22 C 120.26 20.84 129.72 20.99 139.18 21.18 C 129.97 22.66 120.60 21.84 111.32 22.00 L 110.81 21.22 Z" />
</g>
<g id="#cab014ff">
<path fill="#cab014" opacity="1.00" d=" M 139.18 21.18 L 140.04 21.07 C 137.43 28.73 112.93 15.34 116.95 28.86 C 114.57 29.25 112.18 29.57 109.79 29.81 L 110.00 28.95 L 110.25 28.08 C 111.61 27.00 111.58 25.00 110.25 23.91 L 109.90 23.04 C 110.26 22.78 110.97 22.26 111.32 22.00 C 120.60 21.84 129.97 22.66 139.18 21.18 Z" />
</g>
<g id="#c4aa10ff">
<path fill="#c4aa10" opacity="1.00" d=" M 146.96 21.10 C 156.16 23.42 166.14 21.89 175.48 21.10 C 175.98 22.03 176.47 22.96 176.96 23.90 C 176.92 25.35 176.89 26.80 176.87 28.24 L 176.86 29.14 C 176.62 26.93 175.92 24.93 174.79 23.14 C 165.58 22.55 156.32 23.35 147.11 22.91 C 147.07 22.46 147.00 21.55 146.96 21.10 Z" />
</g>
<g id="#2c271eff">
<path fill="#2c271e" opacity="1.00" d=" M 95.92 28.90 C 93.31 19.49 104.58 22.93 109.90 23.04 L 110.25 23.91 C 106.22 25.43 94.98 20.28 97.03 27.93 C 101.43 28.05 105.84 28.02 110.25 28.08 L 110.00 28.95 C 105.30 28.98 100.61 28.97 95.92 28.90 Z" />
</g>
<g id="#13100aff">
<path fill="#13100a" opacity="1.00" d=" M 176.96 23.90 C 182.09 22.48 193.33 19.83 190.06 28.99 C 185.67 28.83 181.15 29.41 176.87 28.24 C 176.89 26.80 176.92 25.35 176.96 23.90 Z" />
</g>
<g id="#020101ff">
<path fill="#020101" opacity="1.00" d=" M 97.03 27.93 C 94.98 20.28 106.22 25.43 110.25 23.91 C 109.68 25.30 109.68 26.69 110.25 28.08 C 105.84 28.02 101.43 28.05 97.03 27.93 Z" />
</g>
<g id="#655511ff">
<path fill="#655511" opacity="1.00" d=" M 110.25 23.91 C 111.58 25.00 111.61 27.00 110.25 28.08 C 109.68 26.69 109.68 25.30 110.25 23.91 Z" />
</g>
<g id="#8a7711ff">
<path fill="#8a7711" opacity="1.00" d=" M 176.87 28.24 C 181.15 29.41 185.67 28.83 190.06 28.99 C 190.55 28.98 191.54 28.98 192.04 28.97 L 192.03 29.95 C 190.78 33.86 193.35 36.75 197.21 35.25 L 197.94 35.11 C 198.18 38.65 202.94 36.37 205.31 37.59 C 196.87 35.06 196.63 53.22 205.18 50.14 L 205.08 50.81 C 204.85 51.05 204.38 51.53 204.15 51.77 C 194.38 54.89 200.05 42.21 197.16 37.71 C 195.18 37.19 193.21 36.70 191.23 36.25 C 194.86 24.92 180.64 32.83 176.86 29.14 L 176.87 28.24 Z" />
</g>
<g id="#695245ff">
<path fill="#695245" opacity="1.00" d=" M 80.78 29.81 C 83.80 27.17 90.15 30.08 94.08 29.09 L 93.87 29.98 C 89.91 29.95 85.96 29.98 82.02 30.09 C 78.99 36.17 83.76 35.79 87.20 36.19 C 85.68 36.40 82.63 36.81 81.10 37.02 C 81.02 35.21 80.86 31.61 80.78 29.81 Z" />
</g>
<g id="#8a760cff">
<path fill="#8a760c" opacity="1.00" d=" M 94.70 30.00 C 95.01 29.73 95.61 29.18 95.92 28.90 C 100.61 28.97 105.30 28.98 110.00 28.95 L 109.79 29.81 C 107.21 29.98 104.63 30.05 102.06 30.03 C 98.61 29.54 95.07 29.09 95.84 33.28 C 95.46 32.19 95.08 31.10 94.70 30.00 Z" />
</g>
<g id="#ceb51aff">
<path fill="#ceb51a" opacity="1.00" d=" M 132.87 34.96 C 130.79 26.02 138.97 30.90 143.33 29.42 C 148.72 28.48 144.82 37.83 149.77 37.51 C 157.27 36.53 152.66 46.11 153.74 50.98 C 151.80 51.00 149.87 51.03 147.93 51.05 C 149.92 40.67 140.24 44.19 134.24 43.81 C 130.95 42.51 134.27 38.64 131.69 37.19 C 124.72 36.87 117.74 36.92 110.78 36.75 C 117.46 33.88 127.28 38.17 132.87 34.96 Z" />
<path fill="#ceb51a" opacity="1.00" d=" M 95.84 33.28 C 95.07 29.09 98.61 29.54 102.06 30.03 C 105.12 38.07 98.63 34.24 95.25 37.30 C 95.47 36.25 95.64 35.19 95.77 34.13 L 95.84 33.28 Z" />
</g>
<g id="#533c45ff">
<path fill="#533c45" opacity="1.00" d=" M 192.04 28.97 C 194.01 28.96 195.98 28.93 197.95 29.07 C 197.97 31.08 197.96 33.10 197.94 35.11 L 197.21 35.25 C 197.90 31.13 196.27 28.96 192.03 29.95 L 192.04 28.97 Z" />
</g>
<g id="#b68e88ff">
<path fill="#b68e88" opacity="1.00" d=" M 197.95 29.07 C 200.75 29.42 197.46 35.62 201.07 35.88 C 207.42 34.26 207.99 39.41 207.03 44.00 C 203.49 52.69 210.08 49.43 213.91 52.28 C 213.42 58.59 217.62 69.96 207.12 67.19 C 207.04 68.65 206.89 71.58 206.81 73.04 L 206.10 72.78 C 206.07 71.12 206.00 67.79 205.96 66.13 C 215.53 69.23 213.89 57.99 212.34 52.61 C 210.78 52.43 207.68 52.07 206.13 51.89 C 205.87 51.62 205.34 51.08 205.08 50.81 L 205.18 50.14 C 205.50 46.10 207.26 41.48 205.31 37.59 C 202.94 36.37 198.18 38.65 197.94 35.11 C 197.96 33.10 197.97 31.08 197.95 29.07 Z" />
</g>
<g id="#aa827cff">
<path fill="#aa827c" opacity="1.00" d=" M 74.98 36.04 C 79.58 36.94 81.51 34.86 80.78 29.81 C 80.86 31.61 81.02 35.21 81.10 37.02 L 81.08 37.88 C 76.11 35.79 71.98 37.36 73.94 43.90 C 73.67 44.13 73.14 44.58 72.87 44.81 C 67.45 43.06 66.42 45.93 66.89 50.04 L 66.82 50.85 C 66.57 51.13 66.08 51.68 65.83 51.96 C 65.41 51.96 64.56 51.96 64.13 51.96 C 62.85 52.36 60.21 51.11 59.86 52.87 C 59.98 57.76 57.38 59.62 52.86 59.94 C 52.58 64.78 52.44 69.32 45.85 66.98 C 41.95 66.28 44.54 71.76 43.88 74.19 C 43.63 73.89 43.12 73.27 42.87 72.97 C 37.57 62.63 50.37 68.31 50.71 62.59 C 47.86 55.07 56.11 60.47 57.58 56.60 C 55.38 50.02 61.04 50.34 64.86 50.87 C 65.65 48.59 65.40 46.20 64.91 43.89 C 67.44 43.15 70.06 42.90 72.70 42.74 C 72.78 40.48 71.37 35.73 74.98 36.04 Z" />
</g>
<g id="#131008ff">
<path fill="#131008" opacity="1.00" d=" M 82.02 30.09 C 85.96 29.98 89.91 29.95 93.87 29.98 L 94.70 30.00 C 95.08 31.10 95.46 32.19 95.84 33.28 L 95.77 34.13 C 93.82 35.04 91.75 35.68 89.69 36.28 C 89.07 36.25 87.82 36.21 87.20 36.19 C 83.76 35.79 78.99 36.17 82.02 30.09 Z" />
</g>
<g id="#0c0c07ff">
<path fill="#0c0c07" opacity="1.00" d=" M 192.03 29.95 C 196.27 28.96 197.90 31.13 197.21 35.25 C 193.35 36.75 190.78 33.86 192.03 29.95 Z" />
</g>
<g id="#7d7209ff">
<path fill="#7d7209" opacity="1.00" d=" M 89.69 36.28 C 91.75 35.68 93.82 35.04 95.77 34.13 C 95.64 35.19 95.47 36.25 95.25 37.30 C 93.37 37.06 91.52 36.72 89.69 36.28 Z" />
</g>
<g id="#c8b018ff">
<path fill="#c8b018" opacity="1.00" d=" M 87.20 36.19 C 87.82 36.21 89.07 36.25 89.69 36.28 C 91.52 36.72 93.37 37.06 95.25 37.30 C 92.78 38.58 89.73 37.53 87.19 38.15 C 87.11 40.01 89.01 42.67 86.76 43.77 C 84.63 43.46 81.42 43.11 81.20 46.11 C 83.15 53.79 75.88 50.86 71.98 51.96 C 73.65 50.21 74.76 47.88 73.19 45.65 L 72.87 44.81 C 73.14 44.58 73.67 44.13 73.94 43.90 C 79.64 45.37 83.04 44.30 81.08 37.88 L 81.10 37.02 C 82.63 36.81 85.68 36.40 87.20 36.19 Z" />
</g>
<g id="#c9b017ff">
<path fill="#c9b017" opacity="1.00" d=" M 169.01 37.01 C 175.01 33.93 184.01 38.19 191.23 36.25 C 193.21 36.70 195.18 37.19 197.16 37.71 C 191.95 35.82 192.20 39.29 189.35 41.43 C 193.29 44.94 189.84 53.00 197.29 52.72 C 195.72 62.00 210.24 60.12 204.15 51.77 C 204.38 51.53 204.85 51.05 205.08 50.81 C 205.34 51.08 205.87 51.62 206.13 51.89 C 206.15 53.73 206.20 57.42 206.22 59.26 C 206.19 59.92 206.12 61.23 206.08 61.89 C 206.03 63.30 205.99 64.71 205.96 66.13 C 194.87 70.76 202.80 55.07 191.90 57.19 C 191.26 53.56 191.98 48.30 190.77 44.15 C 186.84 43.68 182.16 44.10 183.15 37.79 C 178.80 36.31 173.69 37.15 169.01 37.01 Z" />
</g>
<g id="#332819ff">
<path fill="#332819" opacity="1.00" d=" M 73.94 43.90 C 71.98 37.36 76.11 35.79 81.08 37.88 C 83.04 44.30 79.64 45.37 73.94 43.90 Z" />
</g>
<g id="#6d5c10ff">
<path fill="#6d5c10" opacity="1.00" d=" M 109.94 42.93 C 110.15 41.39 110.57 38.30 110.78 36.75 C 117.74 36.92 124.72 36.87 131.69 37.19 C 134.27 38.64 130.95 42.51 134.24 43.81 C 140.24 44.19 149.92 40.67 147.93 51.05 C 147.47 51.03 146.55 51.00 146.09 50.99 C 148.09 42.74 138.49 45.04 133.18 44.86 C 132.66 44.61 131.61 44.11 131.09 43.86 C 133.53 32.48 117.34 40.09 111.15 38.08 C 111.10 39.54 111.01 42.46 110.96 43.92 L 110.01 43.91 L 109.94 42.93 Z" />
</g>
<g id="#6f5e0fff">
<path fill="#6f5e0f" opacity="1.00" d=" M 169.01 37.01 C 173.69 37.15 178.80 36.31 183.15 37.79 C 178.77 37.91 174.38 37.79 170.02 38.10 C 166.55 44.63 172.16 42.56 174.95 42.99 L 175.13 43.85 C 173.04 43.94 170.96 44.02 168.87 44.07 C 167.68 41.87 168.55 39.29 169.01 37.01 Z" />
</g>
<g id="#070607ff">
<path fill="#070607" opacity="1.00" d=" M 111.15 38.08 C 117.34 40.09 133.53 32.48 131.09 43.86 C 129.41 43.90 127.73 43.95 126.05 44.01 C 121.01 44.00 115.99 44.09 110.96 43.92 C 111.01 42.46 111.10 39.54 111.15 38.08 Z" />
</g>
<g id="#050503ff">
<path fill="#050503" opacity="1.00" d=" M 170.02 38.10 C 174.38 37.79 178.77 37.91 183.15 37.79 C 182.23 42.08 182.88 46.30 188.57 45.52 C 192.31 47.56 188.91 54.12 190.05 57.76 C 188.46 58.02 185.29 58.53 183.70 58.78 C 182.46 63.31 183.68 68.28 182.27 72.84 C 180.85 72.89 179.44 72.94 178.03 72.98 C 177.80 63.02 178.36 53.05 177.89 43.11 C 177.16 43.08 175.68 43.02 174.95 42.99 C 172.16 42.56 166.55 44.63 170.02 38.10 Z" />
<path fill="#050503" opacity="1.00" d=" M 206.22 59.26 C 205.85 54.60 207.65 51.95 212.34 52.61 C 213.43 57.59 212.08 69.31 206.08 61.89 C 206.12 61.23 206.19 59.92 206.22 59.26 Z" />
</g>
<g id="#6f5a17ff">
<path fill="#6f5a17" opacity="1.00" d=" M 183.15 37.79 C 182.16 44.10 186.84 43.68 190.77 44.15 C 191.98 48.30 191.26 53.56 191.90 57.19 C 202.80 55.07 194.87 70.76 205.96 66.13 C 206.00 67.79 206.07 71.12 206.10 72.78 C 205.80 72.67 205.20 72.45 204.90 72.34 C 205.72 67.94 204.75 64.89 198.92 67.00 L 198.06 66.96 C 198.05 66.49 198.03 65.55 198.01 65.09 C 199.26 60.70 195.57 59.14 191.86 60.09 C 191.26 59.31 190.65 58.54 190.05 57.76 C 188.91 54.12 192.31 47.56 188.57 45.52 C 182.88 46.30 182.23 42.08 183.15 37.79 Z" />
</g>
<g id="#f6d405ff">
<path fill="#f6d405" opacity="1.00" d=" M 189.35 41.43 C 192.20 39.29 191.95 35.82 197.16 37.71 C 200.05 42.21 194.38 54.89 204.15 51.77 C 210.24 60.12 195.72 62.00 197.29 52.72 C 189.84 53.00 193.29 44.94 189.35 41.43 Z" />
</g>
<g id="#14100aff">
<path fill="#14100a" opacity="1.00" d=" M 205.18 50.14 C 196.63 53.22 196.87 35.06 205.31 37.59 C 205.22 41.77 205.18 45.96 205.18 50.14 Z" />
</g>
<g id="#6b4c4cff">
<path fill="#6b4c4c" opacity="1.00" d=" M 205.31 37.59 C 207.26 41.48 205.50 46.10 205.18 50.14 C 205.18 45.96 205.22 41.77 205.31 37.59 Z" />
</g>
<g id="#caaf15ff">
<path fill="#caaf15" opacity="1.00" d=" M 101.72 49.73 C 100.62 43.62 104.29 41.19 109.94 42.93 L 110.01 43.91 C 102.65 41.14 102.86 47.58 102.23 52.30 C 100.64 52.44 97.47 52.72 95.88 52.86 C 94.94 55.16 95.28 59.79 91.86 58.32 C 86.68 56.85 90.38 66.74 86.08 65.97 C 87.33 61.79 88.42 57.51 88.56 53.13 C 92.76 51.49 97.99 52.17 101.72 49.73 Z" />
</g>
<g id="#3b3108ff">
<path fill="#3b3108" opacity="1.00" d=" M 174.95 42.99 C 175.68 43.02 177.16 43.08 177.89 43.11 C 178.36 53.05 177.80 63.02 178.03 72.98 L 177.13 73.05 C 176.75 63.48 177.42 53.87 176.83 44.32 C 176.41 44.20 175.56 43.97 175.13 43.85 L 174.95 42.99 Z" />
</g>
<g id="#fbb7b4ff">
<path fill="#fbb7b4" opacity="1.00" d=" M 0.00 44.00 C 21.64 43.93 43.27 44.15 64.91 43.89 C 65.40 46.20 65.65 48.59 64.86 50.87 C 61.04 50.34 55.38 50.02 57.58 56.60 C 56.11 60.47 47.86 55.07 50.71 62.59 C 50.37 68.31 37.57 62.63 42.87 72.97 C 29.83 74.42 16.48 73.20 3.33 73.39 C 2.17 73.84 1.09 74.45 0.00 75.06 L 0.00 44.00 Z" />
<path fill="#fbb7b4" opacity="1.00" d=" M 207.03 44.00 C 221.35 44.00 235.67 44.00 250.00 44.00 L 250.00 72.84 C 238.08 74.54 225.85 73.22 213.89 73.16 C 211.61 72.20 209.15 72.48 206.81 73.04 C 206.89 71.58 207.04 68.65 207.12 67.19 C 217.62 69.96 213.42 58.59 213.91 52.28 C 210.08 49.43 203.49 52.69 207.03 44.00 Z" />
</g>
<g id="#77650fff">
<path fill="#77650f" opacity="1.00" d=" M 102.23 52.30 C 102.86 47.58 102.65 41.14 110.01 43.91 L 110.00 44.90 C 106.30 44.19 102.78 45.86 104.03 50.15 C 103.70 51.09 103.10 51.81 102.23 52.30 Z" />
</g>
<g id="#2c285fff">
<path fill="#2c285f" opacity="1.00" d=" M 110.01 43.91 L 110.96 43.92 C 115.99 44.09 121.01 44.00 126.05 44.01 C 122.06 48.64 125.04 59.82 132.10 58.96 C 135.41 61.89 132.04 66.83 130.20 69.91 C 133.10 73.59 140.11 73.55 139.50 79.58 C 141.05 82.95 145.20 81.39 147.99 81.05 C 146.94 83.56 146.79 88.29 143.08 87.99 C 137.81 87.26 141.34 78.04 133.75 80.19 C 131.71 77.11 130.54 70.29 125.04 74.00 C 114.60 80.51 118.64 63.35 111.71 67.66 C 113.89 77.81 103.80 74.50 98.18 74.12 C 96.58 76.88 96.23 81.19 92.16 81.27 C 84.62 82.61 91.44 97.58 80.90 95.90 C 77.98 95.87 74.36 97.05 72.75 94.04 C 70.47 86.92 75.96 86.57 80.93 86.79 C 80.99 82.83 80.97 78.86 80.87 74.90 C 81.16 74.38 81.74 73.35 82.03 72.84 C 86.44 74.31 89.13 71.34 88.03 66.99 C 88.53 66.75 89.55 66.28 90.06 66.05 C 92.16 65.86 94.92 66.45 95.82 63.97 C 97.64 67.21 101.20 69.63 103.64 72.41 C 114.60 78.30 106.73 58.17 115.64 60.14 C 117.95 65.08 116.28 75.22 124.76 72.91 C 127.11 67.69 126.38 56.44 118.11 58.89 C 115.30 57.91 119.70 45.77 111.65 50.68 C 102.55 49.42 105.43 62.77 96.04 59.05 L 96.04 58.09 C 101.32 59.48 103.39 57.56 102.23 52.30 C 103.10 51.81 103.70 51.09 104.03 50.15 C 108.19 52.90 111.33 49.17 110.00 44.90 L 110.01 43.91 Z" />
</g>
<g id="#35306fff">
<path fill="#35306f" opacity="1.00" d=" M 126.05 44.01 C 127.73 43.95 129.41 43.90 131.09 43.86 C 131.61 44.11 132.66 44.61 133.18 44.86 C 129.37 54.69 141.50 50.62 146.09 50.99 C 146.55 51.00 147.47 51.03 147.93 51.05 L 148.11 51.95 C 145.39 56.55 149.32 59.65 153.95 59.03 C 154.21 59.17 154.73 59.46 154.99 59.60 C 153.41 66.63 154.11 73.86 153.93 80.99 C 151.95 80.95 149.97 80.88 147.99 81.05 C 145.20 81.39 141.05 82.95 139.50 79.58 C 140.11 73.55 133.10 73.59 130.20 69.91 C 132.04 66.83 135.41 61.89 132.10 58.96 C 125.04 59.82 122.06 48.64 126.05 44.01 Z" />
</g>
<g id="#ad960cff">
<path fill="#ad960c" opacity="1.00" d=" M 168.87 44.07 C 170.96 44.02 173.04 43.94 175.13 43.85 C 175.56 43.97 176.41 44.20 176.83 44.32 C 177.42 53.87 176.75 63.48 177.13 73.05 C 176.86 73.31 176.31 73.84 176.03 74.11 C 174.29 74.10 170.82 74.07 169.09 74.06 C 169.28 73.77 169.67 73.18 169.87 72.89 C 181.98 74.07 173.76 57.00 176.02 50.01 C 179.78 41.82 171.23 46.96 168.87 44.07 Z" />
</g>
<g id="#181211ff">
<path fill="#181211" opacity="1.00" d=" M 66.89 50.04 C 66.42 45.93 67.45 43.06 72.87 44.81 L 73.19 45.65 C 73.24 49.51 70.41 50.76 66.89 50.04 Z" />
</g>
<g id="#14110aff">
<path fill="#14110a" opacity="1.00" d=" M 104.03 50.15 C 102.78 45.86 106.30 44.19 110.00 44.90 C 111.33 49.17 108.19 52.90 104.03 50.15 Z" />
</g>
<g id="#0f0d0fff">
<path fill="#0f0d0f" opacity="1.00" d=" M 133.18 44.86 C 138.49 45.04 148.09 42.74 146.09 50.99 C 141.50 50.62 129.37 54.69 133.18 44.86 Z" />
</g>
<g id="#7c6b0dff">
<path fill="#7c6b0d" opacity="1.00" d=" M 73.19 45.65 C 74.76 47.88 73.65 50.21 71.98 51.96 C 70.56 52.04 69.15 52.10 67.74 52.12 C 67.51 51.80 67.05 51.17 66.82 50.85 L 66.89 50.04 C 70.41 50.76 73.24 49.51 73.19 45.65 Z" />
</g>
<g id="#34306fff">
<path fill="#34306f" opacity="1.00" d=" M 111.65 50.68 C 119.70 45.77 115.30 57.91 118.11 58.89 C 126.38 56.44 127.11 67.69 124.76 72.91 C 116.28 75.22 117.95 65.08 115.64 60.14 C 106.73 58.17 114.60 78.30 103.64 72.41 C 101.20 69.63 97.64 67.21 95.82 63.97 C 95.88 62.64 95.94 61.31 95.99 59.97 L 96.04 59.05 C 105.43 62.77 102.55 49.42 111.65 50.68 Z" />
</g>
<g id="#ccb319ff">
<path fill="#ccb319" opacity="1.00" d=" M 65.83 51.96 C 66.08 51.68 66.57 51.13 66.82 50.85 C 67.05 51.17 67.51 51.80 67.74 52.12 C 67.81 54.37 66.48 59.22 68.61 59.46 C 74.16 54.78 74.71 69.26 68.45 66.57 C 63.91 66.72 66.90 72.30 66.36 75.48 C 62.49 81.83 71.69 81.38 73.27 77.60 C 73.61 78.87 73.47 80.18 73.25 81.46 C 71.66 81.53 68.49 81.66 66.90 81.73 C 65.23 87.68 69.37 98.65 59.07 94.96 C 59.04 85.72 58.63 76.45 59.14 67.22 C 61.71 66.51 65.17 67.30 66.86 64.71 C 67.00 60.42 66.28 56.20 65.83 51.96 Z" />
</g>
<g id="#74640eff">
<path fill="#74640e" opacity="1.00" d=" M 147.93 51.05 C 149.87 51.03 151.80 51.00 153.74 50.98 C 154.04 51.27 154.63 51.83 154.93 52.11 C 151.88 59.53 159.47 56.49 161.75 60.34 C 162.91 68.86 161.90 77.39 162.05 85.91 C 162.18 89.58 169.68 89.24 168.64 85.33 C 168.92 81.61 167.34 77.43 169.09 74.06 C 170.82 74.07 174.29 74.10 176.03 74.11 L 175.83 74.95 C 164.37 71.90 175.71 92.26 164.05 89.30 C 162.63 88.98 161.02 88.76 160.57 87.14 C 160.59 79.20 160.32 71.26 160.52 63.33 C 160.89 59.76 157.68 59.79 154.99 59.60 C 154.73 59.46 154.21 59.17 153.95 59.03 C 156.13 53.55 152.56 51.10 148.11 51.95 L 147.93 51.05 Z" />
</g>
<g id="#090706ff">
<path fill="#090706" opacity="1.00" d=" M 59.86 52.87 C 60.21 51.11 62.85 52.36 64.13 51.96 C 64.87 55.88 65.32 59.87 65.00 63.88 C 65.33 67.23 59.32 63.46 58.11 66.29 C 57.77 75.95 58.16 85.62 57.90 95.28 C 48.25 99.06 52.22 86.94 51.94 81.24 C 47.12 82.97 45.69 80.39 45.43 76.90 C 45.63 73.59 45.25 70.25 45.85 66.98 C 52.44 69.32 52.58 64.78 52.86 59.94 C 57.53 62.79 62.47 57.48 59.86 52.87 Z" />
</g>
<g id="#6e5b10ff">
<path fill="#6e5b10" opacity="1.00" d=" M 64.13 51.96 C 64.56 51.96 65.41 51.96 65.83 51.96 C 66.28 56.20 67.00 60.42 66.86 64.71 C 65.17 67.30 61.71 66.51 59.14 67.22 C 58.63 76.45 59.04 85.72 59.07 94.96 C 69.37 98.65 65.23 87.68 66.90 81.73 C 66.94 86.43 66.99 91.14 66.99 95.84 C 66.51 95.88 65.55 95.95 65.08 95.99 C 63.37 96.01 61.67 96.03 59.97 96.04 C 59.45 95.85 58.42 95.47 57.90 95.28 C 58.16 85.62 57.77 75.95 58.11 66.29 C 59.32 63.46 65.33 67.23 65.00 63.88 C 65.32 59.87 64.87 55.88 64.13 51.96 Z" />
</g>
<g id="#120f06ff">
<path fill="#120f06" opacity="1.00" d=" M 95.88 52.86 C 97.47 52.72 100.64 52.44 102.23 52.30 C 103.39 57.56 101.32 59.48 96.04 58.09 C 95.97 56.35 95.90 54.60 95.88 52.86 Z" />
</g>
<g id="#110f11ff">
<path fill="#110f11" opacity="1.00" d=" M 148.11 51.95 C 152.56 51.10 156.13 53.55 153.95 59.03 C 149.32 59.65 145.39 56.55 148.11 51.95 Z" />
</g>
<g id="#cbb219ff">
<path fill="#cbb219" opacity="1.00" d=" M 154.93 52.11 C 156.58 52.08 159.88 52.02 161.53 51.99 C 161.09 57.13 163.82 61.81 163.23 66.99 C 168.92 64.48 167.88 69.34 169.87 72.89 C 169.67 73.18 169.28 73.77 169.09 74.06 C 167.34 77.43 168.92 81.61 168.64 85.33 C 169.68 89.24 162.18 89.58 162.05 85.91 C 161.90 77.39 162.91 68.86 161.75 60.34 C 159.47 56.49 151.88 59.53 154.93 52.11 Z" />
</g>
<g id="#54421eff">
<path fill="#54421e" opacity="1.00" d=" M 206.13 51.89 C 207.68 52.07 210.78 52.43 212.34 52.61 C 207.65 51.95 205.85 54.60 206.22 59.26 C 206.20 57.42 206.15 53.73 206.13 51.89 Z" />
</g>
<g id="#593d41ff">
<path fill="#593d41" opacity="1.00" d=" M 52.86 59.94 C 57.38 59.62 59.98 57.76 59.86 52.87 C 62.47 57.48 57.53 62.79 52.86 59.94 Z" />
</g>
<g id="#756510ff">
<path fill="#756510" opacity="1.00" d=" M 91.86 58.32 C 95.28 59.79 94.94 55.16 95.88 52.86 C 95.90 54.60 95.97 56.35 96.04 58.09 L 96.04 59.05 L 95.99 59.97 C 90.16 57.56 88.52 61.95 90.06 66.05 C 89.55 66.28 88.53 66.75 88.03 66.99 C 85.75 67.23 83.48 67.51 81.22 67.80 C 80.18 64.82 84.44 66.56 86.08 65.97 C 90.38 66.74 86.68 56.85 91.86 58.32 Z" />
</g>
<g id="#5c403eff">
<path fill="#5c403e" opacity="1.00" d=" M 212.34 52.61 C 213.89 57.99 215.53 69.23 205.96 66.13 C 205.99 64.71 206.03 63.30 206.08 61.89 C 212.08 69.31 213.43 57.59 212.34 52.61 Z" />
</g>
<g id="#2e2a62ff">
<path fill="#2e2a62" opacity="1.00" d=" M 183.70 58.78 C 185.29 58.53 188.46 58.02 190.05 57.76 C 190.65 58.54 191.26 59.31 191.86 60.09 C 190.81 64.33 193.97 67.90 198.01 65.09 C 198.03 65.55 198.05 66.49 198.06 66.96 C 196.85 71.73 202.61 77.81 196.94 81.02 C 195.62 81.02 194.29 81.03 192.97 81.02 C 192.46 75.85 190.77 69.81 185.71 67.31 C 182.44 66.04 184.50 61.50 183.70 58.78 Z" />
</g>
<g id="#1f1b42ff">
<path fill="#1f1b42" opacity="1.00" d=" M 182.27 72.84 C 183.68 68.28 182.46 63.31 183.70 58.78 C 184.50 61.50 182.44 66.04 185.71 67.31 C 190.77 69.81 192.46 75.85 192.97 81.02 C 189.68 81.04 186.41 81.09 183.13 81.07 C 183.65 78.18 185.20 74.79 182.27 72.84 Z" />
</g>
<g id="#100e15ff">
<path fill="#100e15" opacity="1.00" d=" M 90.06 66.05 C 88.52 61.95 90.16 57.56 95.99 59.97 C 95.94 61.31 95.88 62.64 95.82 63.97 C 94.92 66.45 92.16 65.86 90.06 66.05 Z" />
</g>
<g id="#0b090cff">
<path fill="#0b090c" opacity="1.00" d=" M 153.93 80.99 C 154.11 73.86 153.41 66.63 154.99 59.60 C 157.68 59.79 160.89 59.76 160.52 63.33 C 160.32 71.26 160.59 79.20 160.57 87.14 C 156.39 88.05 151.33 87.43 153.93 80.99 Z" />
</g>
<g id="#0f0e0dff">
<path fill="#0f0e0d" opacity="1.00" d=" M 191.86 60.09 C 195.57 59.14 199.26 60.70 198.01 65.09 C 193.97 67.90 190.81 64.33 191.86 60.09 Z" />
</g>
<g id="#5f4246ff">
<path fill="#5f4246" opacity="1.00" d=" M 43.88 74.19 C 44.54 71.76 41.95 66.28 45.85 66.98 C 45.25 70.25 45.63 73.59 45.43 76.90 C 44.97 78.46 45.40 80.99 43.19 81.13 C 43.49 78.82 43.72 76.51 43.88 74.19 Z" />
</g>
<g id="#0a090aff">
<path fill="#0a090a" opacity="1.00" d=" M 81.22 67.80 C 83.48 67.51 85.75 67.23 88.03 66.99 C 89.13 71.34 86.44 74.31 82.03 72.84 C 81.82 71.45 81.58 70.07 81.31 68.70 L 81.22 67.80 Z" />
</g>
<g id="#28214eff">
<path fill="#28214e" opacity="1.00" d=" M 111.71 67.66 C 118.64 63.35 114.60 80.51 125.04 74.00 C 118.27 72.48 116.61 77.39 112.90 80.96 C 107.45 79.44 101.82 80.69 103.23 86.95 C 113.20 87.09 123.18 87.11 133.16 86.88 C 133.55 89.56 133.82 92.27 134.11 94.97 L 133.13 95.01 C 133.58 91.20 133.04 85.27 127.00 87.96 C 119.13 88.29 110.98 87.16 103.28 89.24 C 105.42 96.30 100.89 96.46 95.86 95.95 C 91.02 94.12 87.10 96.33 87.67 101.19 C 88.13 96.26 85.88 94.50 80.90 95.90 C 91.44 97.58 84.62 82.61 92.16 81.27 C 96.23 81.19 96.58 76.88 98.18 74.12 C 103.80 74.50 113.89 77.81 111.71 67.66 M 90.22 88.12 C 83.74 96.66 96.50 96.11 102.00 94.96 C 105.29 85.14 95.20 89.24 90.22 88.12 Z" />
</g>
<g id="#292142ff">
<path fill="#292142" opacity="1.00" d=" M 198.06 66.96 L 198.92 67.00 C 198.46 71.06 200.62 74.64 204.90 72.34 C 205.20 72.45 205.80 72.67 206.10 72.78 L 206.81 73.04 C 208.17 73.46 210.87 74.30 212.22 74.72 C 203.17 70.25 201.31 92.01 212.25 87.34 C 205.38 85.64 205.58 90.35 205.89 95.08 L 204.95 95.32 L 204.30 94.91 C 205.15 91.40 204.49 87.22 200.14 86.83 C 199.15 84.85 198.16 82.87 196.94 81.02 C 202.61 77.81 196.85 71.73 198.06 66.96 Z" />
</g>
<g id="#0f0b10ff">
<path fill="#0f0b10" opacity="1.00" d=" M 198.92 67.00 C 204.75 64.89 205.72 67.94 204.90 72.34 C 200.62 74.64 198.46 71.06 198.92 67.00 Z" />
</g>
<g id="#7b6b0eff">
<path fill="#7b6b0e" opacity="1.00" d=" M 81.31 68.70 C 81.58 70.07 81.82 71.45 82.03 72.84 C 81.74 73.35 81.16 74.38 80.87 74.90 C 73.16 71.77 76.89 79.18 73.25 81.46 C 73.47 80.18 73.61 78.87 73.27 77.60 C 70.77 70.88 82.60 75.52 81.31 68.70 Z" />
</g>
<g id="#bb8984ff">
<path fill="#bb8984" opacity="1.00" d=" M 206.81 73.04 C 209.15 72.48 211.61 72.20 213.89 73.16 C 214.13 77.69 214.38 82.22 214.60 86.76 C 213.97 90.54 209.64 89.16 207.02 89.05 C 203.98 96.08 209.42 94.53 213.32 95.68 L 212.15 95.84 C 210.35 95.96 208.54 96.04 206.74 96.10 L 205.91 96.09 L 205.89 95.08 C 205.58 90.35 205.38 85.64 212.25 87.34 C 212.91 83.48 214.33 78.43 212.22 74.72 C 210.87 74.30 208.17 73.46 206.81 73.04 Z" />
</g>
<g id="#fbaba8ff">
<path fill="#fbaba8" opacity="1.00" d=" M 3.33 73.39 C 16.48 73.20 29.83 74.42 42.87 72.97 C 43.12 73.27 43.63 73.89 43.88 74.19 C 43.72 76.51 43.49 78.82 43.19 81.13 C 33.81 77.74 36.76 89.61 36.84 95.05 C 33.69 93.75 31.43 93.98 30.05 95.76 C 30.86 101.50 27.60 103.62 23.11 102.42 C 15.53 104.11 7.74 104.17 0.00 104.01 L 0.00 75.06 C 1.09 74.45 2.17 73.84 3.33 73.39 Z" />
</g>
<g id="#1d193dff">
<path fill="#1d193d" opacity="1.00" d=" M 125.04 74.00 C 130.54 70.29 131.71 77.11 133.75 80.19 C 141.34 78.04 137.81 87.26 143.08 87.99 C 146.79 88.29 146.94 83.56 147.99 81.05 C 149.97 80.88 151.95 80.95 153.93 80.99 C 151.33 87.43 156.39 88.05 160.57 87.14 C 161.02 88.76 162.63 88.98 164.05 89.30 C 160.23 90.07 164.35 94.36 161.70 95.80 C 156.07 96.59 146.43 92.79 148.37 102.26 C 149.44 96.53 148.21 92.87 141.77 94.78 C 143.65 94.08 146.26 94.05 147.26 92.01 C 144.01 87.63 137.37 90.04 133.16 86.88 C 132.85 76.56 120.07 82.20 112.90 80.96 C 116.61 77.39 118.27 72.48 125.04 74.00 Z" />
</g>
<g id="#302b64ff">
<path fill="#302b64" opacity="1.00" d=" M 177.13 73.05 L 178.03 72.98 C 179.44 72.94 180.85 72.89 182.27 72.84 C 185.20 74.79 183.65 78.18 183.13 81.07 C 177.46 83.35 175.17 79.46 175.83 74.95 L 176.03 74.11 C 176.31 73.84 176.86 73.31 177.13 73.05 Z" />
</g>
<g id="#fdaca9ff">
<path fill="#fdaca9" opacity="1.00" d=" M 213.89 73.16 C 225.85 73.22 238.08 74.54 250.00 72.84 L 250.00 103.93 C 238.31 101.69 226.28 104.29 214.61 102.30 C 214.44 100.05 214.11 97.80 213.32 95.68 C 209.42 94.53 203.98 96.08 207.02 89.05 C 209.64 89.16 213.97 90.54 214.60 86.76 C 214.38 82.22 214.13 77.69 213.89 73.16 Z" />
</g>
<g id="#0b0a11ff">
<path fill="#0b0a11" opacity="1.00" d=" M 73.25 81.46 C 76.89 79.18 73.16 71.77 80.87 74.90 C 80.97 78.86 80.99 82.83 80.93 86.79 C 75.96 86.57 70.47 86.92 72.75 94.04 C 71.61 96.14 68.95 95.45 66.99 95.84 C 66.99 91.14 66.94 86.43 66.90 81.73 C 68.49 81.66 71.66 81.53 73.25 81.46 Z" />
</g>
<g id="#040306ff">
<path fill="#040306" opacity="1.00" d=" M 164.05 89.30 C 175.71 92.26 164.37 71.90 175.83 74.95 C 175.17 79.46 177.46 83.35 183.13 81.07 C 186.41 81.09 189.68 81.04 192.97 81.02 C 194.29 81.03 195.62 81.02 196.94 81.02 C 198.16 82.87 199.15 84.85 200.14 86.83 C 192.55 87.26 184.85 86.43 177.31 87.29 C 171.29 88.02 179.53 99.77 169.99 96.13 C 165.33 100.60 170.79 105.07 175.76 104.28 C 185.56 104.90 197.01 106.31 205.95 103.91 L 206.32 103.07 C 207.87 100.61 208.01 98.29 206.74 96.10 C 208.54 96.04 210.35 95.96 212.15 95.84 C 212.04 100.63 211.98 105.44 212.27 110.23 C 207.47 110.10 202.69 110.01 197.91 110.10 C 196.21 110.09 192.80 110.06 191.10 110.04 C 186.39 110.02 181.69 109.96 176.98 110.00 C 174.31 109.98 171.64 109.98 168.98 110.01 C 164.31 109.98 159.66 109.96 155.00 110.01 C 144.98 110.00 134.97 109.95 124.95 110.01 C 110.26 109.97 95.57 110.04 80.87 109.94 C 76.12 108.81 71.66 109.76 72.54 115.80 C 68.32 116.03 64.09 116.10 59.86 116.18 C 58.13 114.67 61.52 111.24 58.69 110.18 C 53.80 109.93 48.91 109.95 44.03 110.01 C 40.15 97.46 62.52 110.23 59.97 96.04 C 61.67 96.03 63.37 96.01 65.08 95.99 C 63.08 105.27 72.36 103.05 77.99 104.01 C 82.49 104.47 80.75 98.90 80.90 95.90 C 85.88 94.50 88.13 96.26 87.67 101.19 C 87.27 105.82 92.74 103.62 95.77 104.22 C 112.78 105.32 130.51 105.74 147.25 104.25 C 147.53 103.75 148.09 102.76 148.37 102.26 C 146.43 92.79 156.07 96.59 161.70 95.80 C 164.35 94.36 160.23 90.07 164.05 89.30 Z" />
</g>
<g id="#070508ff">
<path fill="#070508" opacity="1.00" d=" M 212.25 87.34 C 201.31 92.01 203.17 70.25 212.22 74.72 C 212.18 78.92 212.19 83.13 212.25 87.34 Z" />
</g>
<g id="#6b4a47ff">
<path fill="#6b4a47" opacity="1.00" d=" M 212.22 74.72 C 214.33 78.43 212.91 83.48 212.25 87.34 C 212.19 83.13 212.18 78.92 212.22 74.72 Z" />
</g>
<g id="#1a1736ff">
<path fill="#1a1736" opacity="1.00" d=" M 45.43 76.90 C 45.69 80.39 47.12 82.97 51.94 81.24 C 52.22 86.94 48.25 99.06 57.90 95.28 C 58.42 95.47 59.45 95.85 59.97 96.04 C 62.52 110.23 40.15 97.46 44.03 110.01 C 43.86 111.59 43.53 114.75 43.37 116.33 C 47.12 110.27 38.06 106.66 37.50 112.63 C 35.58 116.40 41.05 116.11 43.37 116.33 C 39.80 116.59 33.07 116.77 35.99 122.99 C 36.45 131.21 34.84 139.67 36.69 147.76 C 34.11 150.50 37.99 157.15 29.98 154.06 C 24.53 156.75 23.54 152.42 21.79 149.19 C 19.79 147.96 17.18 148.84 14.96 148.17 C 14.59 146.89 14.01 145.60 14.15 144.24 C 14.33 139.51 18.31 138.05 22.29 137.29 C 20.94 131.39 27.34 129.14 29.28 134.21 C 29.37 139.63 26.53 148.59 34.94 146.77 C 35.00 137.54 35.28 128.29 34.91 119.07 C 33.28 118.90 31.65 118.86 30.02 118.96 C 25.51 120.05 32.10 128.71 23.27 124.93 C 20.13 121.07 24.50 115.34 22.40 110.76 C 22.53 108.44 22.67 106.12 22.80 103.81 C 28.59 106.38 30.91 102.32 30.23 97.70 C 29.63 105.51 40.33 102.21 36.21 96.01 C 36.37 95.77 36.68 95.29 36.84 95.05 L 37.72 95.23 C 40.04 95.42 43.24 96.97 44.90 94.71 C 44.97 90.38 44.58 85.98 43.37 81.81 L 43.19 81.13 C 45.40 80.99 44.97 78.46 45.43 76.90 M 23.99 105.00 C 21.17 108.62 24.41 110.49 26.79 110.65 C 31.45 110.51 30.02 100.16 23.99 105.00 Z" />
</g>
<g id="#755253ff">
<path fill="#755253" opacity="1.00" d=" M 36.84 95.05 C 36.76 89.61 33.81 77.74 43.19 81.13 L 43.37 81.81 C 34.86 79.87 38.69 89.80 37.72 95.23 L 36.84 95.05 Z" />
</g>
<g id="#634f14ff">
<path fill="#634f14" opacity="1.00" d=" M 66.90 81.73 C 68.49 81.66 71.66 81.53 73.25 81.46 C 71.66 81.53 68.49 81.66 66.90 81.73 Z" />
</g>
<g id="#040409ff">
<path fill="#040409" opacity="1.00" d=" M 103.23 86.95 C 101.82 80.69 107.45 79.44 112.90 80.96 C 120.07 82.20 132.85 76.56 133.16 86.88 C 123.18 87.11 113.20 87.09 103.23 86.95 Z" />
</g>
<g id="#05040aff">
<path fill="#05040a" opacity="1.00" d=" M 37.72 95.23 C 38.69 89.80 34.86 79.87 43.37 81.81 C 44.58 85.98 44.97 90.38 44.90 94.71 C 43.24 96.97 40.04 95.42 37.72 95.23 Z" />
</g>
<g id="#08060dff">
<path fill="#08060d" opacity="1.00" d=" M 133.16 86.88 C 137.37 90.04 144.01 87.63 147.26 92.01 C 146.26 94.05 143.65 94.08 141.77 94.78 C 139.21 94.86 136.66 94.92 134.11 94.97 C 133.82 92.27 133.55 89.56 133.16 86.88 Z" />
</g>
<g id="#58356cff">
<path fill="#58356c" opacity="1.00" d=" M 177.31 87.29 C 184.85 86.43 192.55 87.26 200.14 86.83 C 200.04 89.66 199.97 92.48 199.95 95.31 C 200.95 82.93 185.05 87.93 177.24 89.23 C 178.57 93.02 174.01 99.76 178.21 102.42 C 187.56 103.09 196.95 102.94 206.32 103.07 L 205.95 103.91 C 195.88 104.18 185.81 103.67 175.76 104.28 C 170.79 105.07 165.33 100.60 169.99 96.13 C 179.53 99.77 171.29 88.02 177.31 87.29 Z" />
</g>
<g id="#0d0912ff">
<path fill="#0d0912" opacity="1.00" d=" M 200.14 86.83 C 204.49 87.22 205.15 91.40 204.30 94.91 C 202.82 94.81 201.37 94.95 199.95 95.31 C 199.97 92.48 200.04 89.66 200.14 86.83 Z" />
</g>
<g id="#080611ff">
<path fill="#080611" opacity="1.00" d=" M 90.22 88.12 C 95.20 89.24 105.29 85.14 102.00 94.96 C 96.50 96.11 83.74 96.66 90.22 88.12 Z" />
</g>
<g id="#915ab3ff">
<path fill="#915ab3" opacity="1.00" d=" M 103.28 89.24 C 110.98 87.16 119.13 88.29 127.00 87.96 C 133.04 85.27 133.58 91.20 133.13 95.01 L 132.86 95.96 L 131.89 95.90 C 133.89 84.16 118.18 90.26 111.22 89.13 C 110.49 91.70 110.23 94.38 110.04 97.04 C 110.07 98.72 109.46 100.91 111.28 101.87 C 122.86 102.18 134.45 102.07 146.03 101.92 C 145.80 100.42 145.36 97.43 145.13 95.94 C 149.08 95.12 146.69 100.46 146.97 102.94 C 134.98 103.18 122.99 102.88 111.00 103.01 C 105.70 102.08 90.91 106.96 95.86 95.95 C 100.89 96.46 105.42 96.30 103.28 89.24 Z" />
</g>
<g id="#9d63c2ff">
<path fill="#9d63c2" opacity="1.00" d=" M 177.24 89.23 C 185.05 87.93 200.95 82.93 199.95 95.31 L 200.04 95.92 C 194.91 96.07 200.41 84.37 191.98 88.92 C 190.19 90.49 185.44 87.22 184.27 90.34 C 184.42 94.59 179.64 105.01 189.00 102.03 C 193.75 101.91 211.42 104.80 202.90 96.32 C 203.42 96.07 204.44 95.57 204.95 95.32 L 205.89 95.08 L 205.91 96.09 C 206.01 97.84 206.22 101.33 206.32 103.07 C 196.95 102.94 187.56 103.09 178.21 102.42 C 174.01 99.76 178.57 93.02 177.24 89.23 Z" />
</g>
<g id="#b875e2ff">
<path fill="#b875e2" opacity="1.00" d=" M 111.22 89.13 C 118.18 90.26 133.89 84.16 131.89 95.90 C 124.84 95.99 116.06 92.09 110.04 97.04 C 110.23 94.38 110.49 91.70 111.22 89.13 Z" />
<path fill="#b875e2" opacity="1.00" d=" M 157.77 205.58 C 169.53 206.02 181.42 206.52 193.19 205.14 L 192.68 205.82 C 192.46 206.11 192.03 206.68 191.81 206.97 C 190.67 208.39 191.13 210.31 190.99 211.99 C 181.03 212.01 171.07 212.02 161.11 211.98 C 161.30 209.15 160.90 206.39 157.77 205.58 Z" />
</g>
<g id="#c980f4ff">
<path fill="#c980f4" opacity="1.00" d=" M 184.27 90.34 C 185.44 87.22 190.19 90.49 191.98 88.92 C 200.41 84.37 194.91 96.07 200.04 95.92 C 200.75 96.02 202.19 96.22 202.90 96.32 C 211.42 104.80 193.75 101.91 189.00 102.03 C 179.64 105.01 184.42 94.59 184.27 90.34 Z" />
</g>
<g id="#161430ff">
<path fill="#161430" opacity="1.00" d=" M 66.99 95.84 C 68.95 95.45 71.61 96.14 72.75 94.04 C 74.36 97.05 77.98 95.87 80.90 95.90 C 80.75 98.90 82.49 104.47 77.99 104.01 C 72.36 103.05 63.08 105.27 65.08 95.99 C 65.55 95.95 66.51 95.88 66.99 95.84 Z" />
</g>
<g id="#a26b6aff">
<path fill="#a26b6a" opacity="1.00" d=" M 30.05 95.76 C 31.43 93.98 33.69 93.75 36.84 95.05 C 36.68 95.29 36.37 95.77 36.21 96.01 C 34.16 96.21 32.08 96.18 30.05 95.76 Z" />
</g>
<g id="#cd83f8ff">
<path fill="#cd83f8" opacity="1.00" d=" M 110.04 97.04 C 116.06 92.09 124.84 95.99 131.89 95.90 L 132.86 95.96 C 136.95 95.96 141.04 95.96 145.13 95.94 C 145.36 97.43 145.80 100.42 146.03 101.92 C 134.45 102.07 122.86 102.18 111.28 101.87 C 109.46 100.91 110.07 98.72 110.04 97.04 Z" />
</g>
<g id="#6b3f82ff">
<path fill="#6b3f82" opacity="1.00" d=" M 133.13 95.01 L 134.11 94.97 C 136.66 94.92 139.21 94.86 141.77 94.78 C 148.21 92.87 149.44 96.53 148.37 102.26 C 148.09 102.76 147.53 103.75 147.25 104.25 C 135.16 103.82 123.08 104.08 110.99 103.98 L 111.00 103.01 C 122.99 102.88 134.98 103.18 146.97 102.94 C 146.69 100.46 149.08 95.12 145.13 95.94 C 141.04 95.96 136.95 95.96 132.86 95.96 L 133.13 95.01 Z" />
</g>
<g id="#603d6fff">
<path fill="#603d6f" opacity="1.00" d=" M 199.95 95.31 C 201.37 94.95 202.82 94.81 204.30 94.91 L 204.95 95.32 C 204.44 95.57 203.42 96.07 202.90 96.32 C 202.19 96.22 200.75 96.02 200.04 95.92 L 199.95 95.31 Z" />
</g>
<g id="#895f57ff">
<path fill="#895f57" opacity="1.00" d=" M 23.11 102.42 C 27.60 103.62 30.86 101.50 30.05 95.76 C 30.10 96.25 30.19 97.22 30.23 97.70 C 30.91 102.32 28.59 106.38 22.80 103.81 C 22.88 103.46 23.04 102.77 23.11 102.42 Z" />
</g>
<g id="#0c080eff">
<path fill="#0c080e" opacity="1.00" d=" M 30.05 95.76 C 32.08 96.18 34.16 96.21 36.21 96.01 C 40.33 102.21 29.63 105.51 30.23 97.70 C 30.19 97.22 30.10 96.25 30.05 95.76 Z" />
</g>
<g id="#4d2f61ff">
<path fill="#4d2f61" opacity="1.00" d=" M 87.67 101.19 C 87.10 96.33 91.02 94.12 95.86 95.95 C 90.91 106.96 105.70 102.08 111.00 103.01 L 110.99 103.98 C 105.91 104.01 100.84 103.97 95.77 104.22 C 92.74 103.62 87.27 105.82 87.67 101.19 Z" />
</g>
<g id="#4b3157ff">
<path fill="#4b3157" opacity="1.00" d=" M 205.91 96.09 L 206.74 96.10 C 208.01 98.29 207.87 100.61 206.32 103.07 C 206.22 101.33 206.01 97.84 205.91 96.09 Z" />
</g>
<g id="#6f4d48ff">
<path fill="#6f4d48" opacity="1.00" d=" M 212.15 95.84 L 213.32 95.68 C 212.84 100.49 213.81 105.55 212.27 110.23 C 211.98 105.44 212.04 100.63 212.15 95.84 Z" />
</g>
<g id="#c2867fff">
<path fill="#c2867f" opacity="1.00" d=" M 213.32 95.68 C 214.11 97.80 214.44 100.05 214.61 102.30 C 213.81 105.10 216.26 110.26 212.98 111.21 L 212.01 111.15 L 212.27 110.23 C 213.81 105.55 212.84 100.49 213.32 95.68 Z" />
</g>
<g id="#f89e9bff">
<path fill="#f89e9b" opacity="1.00" d=" M 0.00 104.01 C 7.74 104.17 15.53 104.11 23.11 102.42 C 23.04 102.77 22.88 103.46 22.80 103.81 C 21.07 105.03 21.81 107.04 21.84 108.81 C 19.78 110.72 16.68 109.65 14.12 110.22 C 13.67 115.10 14.90 120.28 13.11 124.99 C 11.72 125.00 10.32 125.00 8.93 125.00 C 0.26 130.12 16.54 156.25 0.00 154.09 L 0.00 104.01 Z" />
</g>
<g id="#fca29eff">
<path fill="#fca29e" opacity="1.00" d=" M 214.61 102.30 C 226.28 104.29 238.31 101.69 250.00 103.93 L 250.00 133.84 C 237.80 132.26 225.33 131.78 213.09 133.06 C 213.15 132.39 213.29 131.04 213.36 130.37 C 214.08 125.81 213.72 121.15 213.23 116.60 C 213.10 114.80 213.03 113.00 212.98 111.21 C 216.26 110.26 213.81 105.10 214.61 102.30 Z" />
</g>
<g id="#8a5d59ff">
<path fill="#8a5d59" opacity="1.00" d=" M 21.84 108.81 C 21.81 107.04 21.07 105.03 22.80 103.81 C 22.67 106.12 22.53 108.44 22.40 110.76 C 8.79 105.43 19.38 123.10 13.11 124.99 C 14.90 120.28 13.67 115.10 14.12 110.22 C 16.68 109.65 19.78 110.72 21.84 108.81 Z" />
</g>
<g id="#261831ff">
<path fill="#261831" opacity="1.00" d=" M 95.77 104.22 C 100.84 103.97 105.91 104.01 110.99 103.98 C 123.08 104.08 135.16 103.82 147.25 104.25 C 130.51 105.74 112.78 105.32 95.77 104.22 Z" />
</g>
<g id="#271931ff">
<path fill="#271931" opacity="1.00" d=" M 175.76 104.28 C 185.81 103.67 195.88 104.18 205.95 103.91 C 197.01 106.31 185.56 104.90 175.76 104.28 Z" />
</g>
<g id="#020204ff">
<path fill="#020204" opacity="1.00" d=" M 23.99 105.00 C 30.02 100.16 31.45 110.51 26.79 110.65 C 24.41 110.49 21.17 108.62 23.99 105.00 Z" />
</g>
<g id="#040307ff">
<path fill="#040307" opacity="1.00" d=" M 37.50 112.63 C 38.06 106.66 47.12 110.27 43.37 116.33 C 41.05 116.11 35.58 116.40 37.50 112.63 Z" />
</g>
<g id="#5e3874ff">
<path fill="#5e3874" opacity="1.00" d=" M 44.03 110.01 C 48.91 109.95 53.80 109.93 58.69 110.18 C 61.52 111.24 58.13 114.67 59.86 116.18 C 60.20 116.45 60.87 117.01 61.21 117.28 C 60.60 117.55 59.38 118.10 58.77 118.37 C 61.14 108.40 51.69 110.72 45.27 111.13 C 46.60 115.91 43.26 120.07 38.31 119.52 C 36.83 128.19 36.67 137.03 37.11 145.79 C 38.86 147.63 41.70 146.23 43.90 147.11 C 44.40 148.50 44.39 149.94 43.92 151.33 C 43.34 147.61 40.14 147.44 36.69 147.76 C 34.84 139.67 36.45 131.21 35.99 122.99 C 33.07 116.77 39.80 116.59 43.37 116.33 C 43.53 114.75 43.86 111.59 44.03 110.01 Z" />
</g>
<g id="#2a2454ff">
<path fill="#2a2454" opacity="1.00" d=" M 72.54 115.80 C 71.66 109.76 76.12 108.81 80.87 109.94 L 80.73 110.88 C 80.06 113.62 79.66 116.45 80.90 119.06 C 83.43 125.16 75.32 141.88 86.93 138.99 C 87.05 134.31 87.01 129.64 87.07 124.97 L 88.01 124.92 L 88.89 124.94 C 88.12 126.86 87.81 128.92 88.03 130.99 C 88.23 135.34 87.16 141.96 94.89 138.93 C 95.21 139.16 95.84 139.62 96.15 139.86 C 93.24 147.30 97.56 147.77 103.08 146.97 C 105.48 147.18 107.87 147.43 110.27 147.70 C 105.26 149.37 92.43 143.75 96.01 153.95 C 102.06 152.03 119.83 159.39 115.13 147.95 C 115.89 147.94 117.40 147.93 118.16 147.92 C 112.50 159.03 129.54 148.85 125.04 159.02 C 125.12 164.97 112.15 158.88 116.88 168.90 C 110.09 166.65 110.53 171.41 110.96 175.99 C 110.95 181.30 110.98 186.63 111.02 191.95 C 110.99 193.97 110.96 195.99 110.96 198.01 C 108.73 189.25 110.43 178.00 110.11 168.31 C 115.60 169.45 117.56 167.34 115.98 161.99 C 108.82 157.64 112.01 166.52 107.98 167.01 C 100.78 168.45 104.65 177.99 103.85 182.78 C 101.70 184.90 98.38 184.92 95.72 185.96 C 88.42 184.02 91.54 173.25 82.41 174.52 C 78.46 172.57 83.29 165.68 79.76 163.03 C 72.31 158.90 76.37 168.79 72.12 169.10 C 72.35 167.59 72.80 164.58 73.03 163.07 C 65.65 162.87 58.26 162.99 50.88 163.08 C 50.17 160.41 50.33 157.61 50.13 154.88 C 52.62 156.38 50.87 159.65 52.14 161.87 C 59.05 162.13 65.98 162.19 72.89 161.88 C 74.40 159.63 71.58 155.67 74.64 154.69 C 72.04 161.63 83.92 164.17 81.04 155.17 C 79.44 155.05 76.24 154.81 74.64 154.69 L 75.22 154.15 C 80.40 155.77 81.54 153.08 81.24 149.10 C 81.54 148.73 82.15 147.99 82.46 147.61 C 90.07 148.88 80.91 158.30 85.53 158.69 C 85.82 151.78 98.60 158.17 95.04 149.03 C 94.73 145.59 88.04 148.98 87.73 145.32 C 86.77 142.49 88.41 136.79 82.17 140.04 C 79.33 139.63 81.45 144.85 79.02 145.98 C 74.23 147.26 74.00 143.39 74.12 139.91 C 72.88 136.85 65.13 141.50 66.23 136.77 C 65.26 132.99 69.57 134.02 72.23 133.38 C 73.53 133.25 74.23 132.53 74.34 131.23 C 75.02 126.96 75.50 122.55 74.84 118.25 C 72.61 115.23 67.98 117.66 64.77 117.13 C 63.58 117.15 62.40 117.20 61.21 117.28 C 60.87 117.01 60.20 116.45 59.86 116.18 C 64.09 116.10 68.32 116.03 72.54 115.80 M 90.25 140.10 C 87.85 141.57 88.62 146.78 92.00 146.04 C 96.96 147.11 96.95 135.07 90.25 140.10 M 119.25 155.10 C 112.72 160.43 128.60 164.40 123.99 154.98 L 119.25 155.10 Z" />
</g>
<g id="#883c08ff">
<path fill="#883c08" opacity="1.00" d=" M 80.87 109.94 C 95.57 110.04 110.26 109.97 124.95 110.01 L 125.14 110.99 L 124.11 111.02 C 119.43 111.00 114.76 110.96 110.08 110.95 C 105.41 110.94 100.74 110.96 96.07 111.03 C 90.96 110.98 85.85 111.04 80.73 110.88 L 80.87 109.94 Z" />
</g>
<g id="#5b0988ff">
<path fill="#5b0988" opacity="1.00" d=" M 124.95 110.01 C 134.97 109.95 144.98 110.00 155.00 110.01 L 155.01 110.99 L 154.03 111.02 C 149.40 111.01 144.77 110.96 140.15 111.03 C 135.45 111.00 130.77 111.00 126.09 111.02 L 125.14 110.99 L 124.95 110.01 Z" />
</g>
<g id="#03598bff">
<path fill="#03598b" opacity="1.00" d=" M 155.00 110.01 C 159.66 109.96 164.31 109.98 168.98 110.01 L 169.05 110.98 L 168.08 111.02 C 163.72 111.00 159.37 111.00 155.01 110.99 L 155.00 110.01 Z" />
</g>
<g id="#8f8d8aff">
<path fill="#8f8d8a" opacity="1.00" d=" M 168.98 110.01 C 171.64 109.98 174.31 109.98 176.98 110.00 L 177.05 110.98 C 176.57 110.98 175.61 110.99 175.13 111.00 C 173.40 110.98 171.67 110.99 169.95 111.01 L 169.05 110.98 L 168.98 110.01 Z" />
</g>
<g id="#228c38ff">
<path fill="#228c38" opacity="1.00" d=" M 176.98 110.00 C 181.69 109.96 186.39 110.02 191.10 110.04 L 191.02 110.71 L 190.03 110.89 C 188.02 110.97 186.01 111.00 184.00 111.03 C 182.26 111.02 178.79 110.99 177.05 110.98 L 176.98 110.00 Z" />
</g>
<g id="#8d928fff">
<path fill="#8d928f" opacity="1.00" d=" M 191.10 110.04 C 192.80 110.06 196.21 110.09 197.91 110.10 L 197.89 110.76 C 195.86 111.18 193.79 111.22 191.73 111.16 L 191.02 110.71 L 191.10 110.04 Z" />
</g>
<g id="#678b0bff">
<path fill="#678b0b" opacity="1.00" d=" M 197.91 110.10 C 202.69 110.01 207.47 110.10 212.27 110.23 L 212.01 111.15 C 208.01 111.08 204.00 111.02 200.01 110.99 C 199.48 110.93 198.42 110.82 197.89 110.76 L 197.91 110.10 Z" />
</g>
<g id="#100e21ff">
<path fill="#100e21" opacity="1.00" d=" M 13.11 124.99 C 19.38 123.10 8.79 105.43 22.40 110.76 C 24.50 115.34 20.13 121.07 23.27 124.93 C 32.10 128.71 25.51 120.05 30.02 118.96 C 29.33 124.02 29.65 129.13 29.28 134.21 C 27.34 129.14 20.94 131.39 22.29 137.29 C 18.31 138.05 14.33 139.51 14.15 144.24 C 12.68 138.11 20.77 122.72 8.82 125.82 L 8.93 125.00 C 10.32 125.00 11.72 125.00 13.11 124.99 Z" />
</g>
<g id="#955db9ff">
<path fill="#955db9" opacity="1.00" d=" M 45.27 111.13 C 51.69 110.72 61.14 108.40 58.77 118.37 C 53.98 119.13 41.37 113.98 44.04 124.02 C 46.62 129.57 41.94 131.24 38.21 132.52 C 37.92 134.91 37.87 137.31 38.09 139.70 C 44.47 137.68 42.63 143.82 43.90 147.11 C 41.70 146.23 38.86 147.63 37.11 145.79 C 36.67 137.03 36.83 128.19 38.31 119.52 C 43.26 120.07 46.60 115.91 45.27 111.13 Z" />
</g>
<g id="#744721ff">
<path fill="#744721" opacity="1.00" d=" M 80.90 119.06 C 79.66 116.45 80.06 113.62 80.73 110.88 C 79.67 117.09 83.87 118.34 88.97 118.05 C 88.55 120.33 88.32 122.63 88.01 124.92 L 87.07 124.97 C 88.51 119.42 86.45 117.45 80.90 119.06 Z" />
</g>
<g id="#fa8703ff">
<path fill="#fa8703" opacity="1.00" d=" M 80.73 110.88 C 85.85 111.04 90.96 110.98 96.07 111.03 C 97.70 116.57 94.51 119.74 88.97 118.05 C 83.87 118.34 79.67 117.09 80.73 110.88 Z" />
</g>
<g id="#fc6702ff">
<path fill="#fc6702" opacity="1.00" d=" M 96.07 111.03 C 100.74 110.96 105.41 110.94 110.08 110.95 C 113.34 115.76 108.05 118.25 104.10 119.11 C 102.84 122.93 101.99 127.39 96.10 125.07 C 94.30 125.04 90.69 124.97 88.89 124.94 L 88.01 124.92 C 88.32 122.63 88.55 120.33 88.97 118.05 C 94.51 119.74 97.70 116.57 96.07 111.03 Z" />
</g>
<g id="#fd3d03ff">
<path fill="#fd3d03" opacity="1.00" d=" M 110.08 110.95 C 114.76 110.96 119.43 111.00 124.11 111.02 C 126.89 119.77 112.48 111.80 115.96 121.98 C 116.97 127.40 105.39 120.11 109.87 128.92 C 108.12 133.67 100.47 129.45 96.67 132.12 C 94.23 130.57 96.34 127.36 96.10 125.07 C 101.99 127.39 102.84 122.93 104.10 119.11 C 108.05 118.25 113.34 115.76 110.08 110.95 Z" />
</g>
<g id="#f23759ff">
<path fill="#f23759" opacity="1.00" d=" M 124.11 111.02 L 125.14 110.99 C 128.38 119.59 120.31 114.94 117.20 118.30 C 117.13 119.99 116.98 123.36 116.90 125.04 C 111.43 124.35 110.39 126.91 110.22 132.25 C 107.48 132.06 104.75 132.05 102.03 132.25 C 100.28 132.24 98.20 133.25 96.67 132.12 C 100.47 129.45 108.12 133.67 109.87 128.92 C 105.39 120.11 116.97 127.40 115.96 121.98 C 112.48 111.80 126.89 119.77 124.11 111.02 Z" />
</g>
<g id="#e31ebfff">
<path fill="#e31ebf" opacity="1.00" d=" M 125.14 110.99 L 126.09 111.02 C 125.87 113.91 127.52 118.39 123.59 118.49 C 117.07 116.48 120.79 124.00 116.90 125.04 C 116.98 123.36 117.13 119.99 117.20 118.30 C 120.31 114.94 128.38 119.59 125.14 110.99 Z" />
</g>
<g id="#cb03fcff">
<path fill="#cb03fc" opacity="1.00" d=" M 126.09 111.02 C 130.77 111.00 135.45 111.00 140.15 111.03 C 139.89 113.23 139.56 115.45 138.76 117.54 C 136.94 117.85 134.21 117.15 133.42 119.37 C 136.60 129.60 121.58 120.36 124.19 131.25 C 120.94 133.17 116.47 134.17 116.99 139.41 C 110.36 142.91 109.03 137.30 110.22 132.25 C 110.39 126.91 111.43 124.35 116.90 125.04 C 120.79 124.00 117.07 116.48 123.59 118.49 C 127.52 118.39 125.87 113.91 126.09 111.02 Z" />
</g>
<g id="#7e05fdff">
<path fill="#7e05fd" opacity="1.00" d=" M 140.15 111.03 C 144.77 110.96 149.40 111.01 154.03 111.02 C 154.03 112.65 154.05 114.29 153.98 115.93 C 149.13 113.65 143.84 117.35 145.52 122.32 C 146.45 124.29 143.91 124.16 142.72 124.77 C 138.07 124.58 140.34 128.51 139.37 131.24 C 132.57 128.44 129.64 134.15 130.99 139.76 C 128.92 139.64 126.84 139.68 124.77 139.78 C 122.16 139.70 119.57 139.68 116.99 139.41 C 116.47 134.17 120.94 133.17 124.19 131.25 C 121.58 120.36 136.60 129.60 133.42 119.37 C 134.21 117.15 136.94 117.85 138.76 117.54 C 139.56 115.45 139.89 113.23 140.15 111.03 Z" />
</g>
<g id="#0b9bfcff">
<path fill="#0b9bfc" opacity="1.00" d=" M 154.03 111.02 L 155.01 110.99 C 159.37 111.00 163.72 111.00 168.08 111.02 C 171.13 120.05 156.37 111.37 160.01 121.02 C 161.57 126.59 150.33 121.69 153.48 128.18 C 153.62 128.88 153.91 130.29 154.06 130.99 C 148.46 130.83 143.62 132.74 146.83 139.01 C 144.09 139.03 141.31 138.75 138.71 139.75 C 138.09 139.79 136.83 139.86 136.21 139.89 C 134.04 138.79 130.32 138.49 133.03 134.12 C 132.32 130.65 139.36 134.95 139.37 131.24 C 140.34 128.51 138.07 124.58 142.72 124.77 C 146.54 126.05 147.85 123.65 147.74 120.22 C 147.12 115.74 155.00 120.37 153.98 115.93 C 154.05 114.29 154.03 112.65 154.03 111.02 Z" />
</g>
<g id="#48a8f3ff">
<path fill="#48a8f3" opacity="1.00" d=" M 168.08 111.02 L 169.05 110.98 C 171.45 117.67 166.75 117.23 162.16 117.19 C 161.42 122.12 161.42 126.89 154.75 125.60 C 154.43 126.24 153.80 127.53 153.48 128.18 C 150.33 121.69 161.57 126.59 160.01 121.02 C 156.37 111.37 171.13 120.05 168.08 111.02 Z" />
</g>
<g id="#beeaedff">
<path fill="#beeaed" opacity="1.00" d=" M 169.05 110.98 L 169.95 111.01 C 169.82 113.38 169.63 117.76 173.23 116.57 C 176.90 116.84 175.57 113.30 175.13 111.00 C 175.61 110.99 176.57 110.98 177.05 110.98 C 182.85 123.13 164.06 113.16 169.04 124.97 L 168.19 125.18 C 159.04 120.64 159.98 133.78 167.06 132.59 C 165.09 132.52 163.12 132.46 161.16 132.41 C 160.74 128.32 161.51 123.29 154.75 125.60 C 161.42 126.89 161.42 122.12 162.16 117.19 C 166.75 117.23 171.45 117.67 169.05 110.98 M 166.32 118.34 C 163.95 119.21 159.82 118.90 162.99 124.01 C 168.21 130.34 171.16 115.50 166.32 118.34 Z" />
</g>
<g id="#fcfbfaff">
<path fill="#fcfbfa" opacity="1.00" d=" M 169.95 111.01 C 171.67 110.99 173.40 110.98 175.13 111.00 C 175.57 113.30 176.90 116.84 173.23 116.57 C 169.63 117.76 169.82 113.38 169.95 111.01 Z" />
</g>
<g id="#22fab0ff">
<path fill="#22fab0" opacity="1.00" d=" M 177.05 110.98 C 178.79 110.99 182.26 111.02 184.00 111.03 C 184.00 112.74 184.00 114.45 183.99 116.17 C 183.71 117.11 183.42 118.05 183.12 119.00 C 179.03 116.14 174.61 119.56 176.92 124.97 L 176.06 124.99 C 174.31 124.99 170.79 124.97 169.04 124.97 C 164.06 113.16 182.85 123.13 177.05 110.98 Z" />
</g>
<g id="#5dfa23ff">
<path fill="#5dfa23" opacity="1.00" d=" M 184.00 111.03 C 186.01 111.00 188.02 110.97 190.03 110.89 C 192.43 115.86 188.25 117.85 183.99 116.17 C 184.00 114.45 184.00 112.74 184.00 111.03 Z" />
</g>
<g id="#c1f48dff">
<path fill="#c1f48d" opacity="1.00" d=" M 190.03 110.89 L 191.02 110.71 L 191.73 111.16 C 187.88 121.60 203.16 117.80 197.89 110.76 C 198.42 110.82 199.48 110.93 200.01 110.99 C 202.76 118.05 197.99 119.82 192.26 119.23 C 192.95 122.87 192.53 125.84 188.91 124.95 C 196.18 120.35 185.34 113.75 183.30 121.03 C 183.26 120.52 183.17 119.51 183.12 119.00 C 183.42 118.05 183.71 117.11 183.99 116.17 C 188.25 117.85 192.43 115.86 190.03 110.89 Z" />
</g>
<g id="#f8f8eeff">
<path fill="#f8f8ee" opacity="1.00" d=" M 191.73 111.16 C 193.79 111.22 195.86 111.18 197.89 110.76 C 203.16 117.80 187.88 121.60 191.73 111.16 Z" />
</g>
<g id="#b7fc05ff">
<path fill="#b7fc05" opacity="1.00" d=" M 200.01 110.99 C 204.00 111.02 208.01 111.08 212.01 111.15 L 212.98 111.21 C 213.03 113.00 213.10 114.80 213.23 116.60 C 212.89 116.92 212.23 117.57 211.89 117.90 C 201.16 113.06 211.01 129.21 200.98 124.99 C 195.50 123.54 200.43 132.29 195.00 132.00 C 191.23 132.16 191.10 136.22 192.01 138.97 L 191.03 139.00 C 186.34 138.98 181.66 139.00 176.97 138.95 C 177.01 138.30 177.08 137.01 177.11 136.36 C 176.88 132.23 182.30 134.14 184.82 132.78 C 185.57 130.15 184.99 127.29 186.12 124.76 C 186.82 124.81 188.21 124.91 188.91 124.95 C 192.53 125.84 192.95 122.87 192.26 119.23 C 197.99 119.82 202.76 118.05 200.01 110.99 Z" />
</g>
<g id="#624afcff">
<path fill="#624afc" opacity="1.00" d=" M 145.52 122.32 C 143.84 117.35 149.13 113.65 153.98 115.93 C 155.00 120.37 147.12 115.74 147.74 120.22 C 147.85 123.65 146.54 126.05 142.72 124.77 C 143.91 124.16 146.45 124.29 145.52 122.32 Z" />
</g>
<g id="#985fbdff">
<path fill="#985fbd" opacity="1.00" d=" M 61.21 117.28 C 62.40 117.20 63.58 117.15 64.77 117.13 C 75.40 114.55 72.57 124.90 74.34 131.23 C 74.23 132.53 73.53 133.25 72.23 133.38 C 70.36 133.17 68.47 132.97 66.67 132.38 C 72.36 134.76 75.55 129.81 72.33 125.66 C 65.71 121.09 66.78 128.41 66.67 132.38 C 65.52 130.20 67.64 124.73 64.07 124.93 C 59.96 124.83 55.84 124.76 51.72 124.70 C 55.72 121.55 68.99 128.39 66.92 120.21 C 64.69 118.31 61.46 119.06 58.77 118.37 C 59.38 118.10 60.60 117.55 61.21 117.28 Z" />
</g>
<g id="#694085ff">
<path fill="#694085" opacity="1.00" d=" M 64.77 117.13 C 67.98 117.66 72.61 115.23 74.84 118.25 C 75.50 122.55 75.02 126.96 74.34 131.23 C 72.57 124.90 75.40 114.55 64.77 117.13 Z" />
</g>
<g id="#efda58ff">
<path fill="#efda58" opacity="1.00" d=" M 211.89 117.90 C 212.23 117.57 212.89 116.92 213.23 116.60 C 213.72 121.15 214.08 125.81 213.36 130.37 L 212.39 130.13 C 212.15 126.05 211.99 121.97 211.89 117.90 Z" />
</g>
<g id="#c07aebff">
<path fill="#c07aeb" opacity="1.00" d=" M 44.04 124.02 C 41.37 113.98 53.98 119.13 58.77 118.37 C 61.46 119.06 64.69 118.31 66.92 120.21 C 68.99 128.39 55.72 121.55 51.72 124.70 C 47.66 131.09 57.86 152.04 43.90 147.11 C 42.63 143.82 44.47 137.68 38.09 139.70 C 37.87 137.31 37.92 134.91 38.21 132.52 C 41.94 131.24 46.62 129.57 44.04 124.02 Z" />
</g>
<g id="#fcfafbff">
<path fill="#fcfafb" opacity="1.00" d=" M 166.32 118.34 C 171.16 115.50 168.21 130.34 162.99 124.01 C 159.82 118.90 163.95 119.21 166.32 118.34 Z" />
</g>
<g id="#57fd22ff">
<path fill="#57fd22" opacity="1.00" d=" M 176.92 124.97 C 174.61 119.56 179.03 116.14 183.12 119.00 C 183.17 119.51 183.26 120.52 183.30 121.03 C 183.36 122.22 183.57 123.40 184.00 124.51 C 182.23 124.82 180.46 125.07 178.67 125.26 L 177.75 125.12 L 176.92 124.97 Z" />
</g>
<g id="#f3f8edff">
<path fill="#f3f8ed" opacity="1.00" d=" M 183.30 121.03 C 185.34 113.75 196.18 120.35 188.91 124.95 C 188.21 124.91 186.82 124.81 186.12 124.76 C 185.59 124.70 184.53 124.57 184.00 124.51 C 183.57 123.40 183.36 122.22 183.30 121.03 Z" />
</g>
<g id="#fafd01ff">
<path fill="#fafd01" opacity="1.00" d=" M 200.98 124.99 C 211.01 129.21 201.16 113.06 211.89 117.90 C 211.99 121.97 212.15 126.05 212.39 130.13 C 211.75 133.01 209.53 132.92 207.16 132.27 C 206.07 134.35 205.95 136.72 205.78 139.02 C 204.12 139.03 200.80 139.06 199.13 139.07 C 197.35 139.05 193.79 139.00 192.01 138.97 C 191.10 136.22 191.23 132.16 195.00 132.00 C 200.43 132.29 195.50 123.54 200.98 124.99 Z" />
</g>
<g id="#040308ff">
<path fill="#040308" opacity="1.00" d=" M 30.02 118.96 C 31.65 118.86 33.28 118.90 34.91 119.07 C 35.28 128.29 35.00 137.54 34.94 146.77 C 26.53 148.59 29.37 139.63 29.28 134.21 C 29.65 129.13 29.33 124.02 30.02 118.96 Z" />
</g>
<g id="#050407ff">
<path fill="#050407" opacity="1.00" d=" M 80.90 119.06 C 86.45 117.45 88.51 119.42 87.07 124.97 C 87.01 129.64 87.05 134.31 86.93 138.99 C 75.32 141.88 83.43 125.16 80.90 119.06 Z" />
</g>
<g id="#c6f195ff">
<path fill="#c6f195" opacity="1.00" d=" M 184.00 124.51 C 184.53 124.57 185.59 124.70 186.12 124.76 C 184.99 127.29 185.57 130.15 184.82 132.78 C 182.30 134.14 176.88 132.23 177.11 136.36 C 176.24 134.85 175.30 133.37 174.03 132.16 C 176.18 130.40 175.80 127.54 176.06 124.99 L 176.92 124.97 L 177.75 125.12 C 176.93 128.62 176.33 134.92 183.01 132.03 C 185.34 126.85 182.21 125.77 178.67 125.26 C 180.46 125.07 182.23 124.82 184.00 124.51 Z" />
</g>
<g id="#976563ff">
<path fill="#976563" opacity="1.00" d=" M 0.00 154.09 C 16.54 156.25 0.26 130.12 8.93 125.00 L 8.82 125.82 C 7.12 135.06 8.58 144.49 7.88 153.80 C 7.01 154.45 6.04 154.91 4.98 155.17 C 3.32 155.09 1.66 155.03 0.00 154.99 L 0.00 154.09 Z" />
</g>
<g id="#9b61bfff">
<path fill="#9b61bf" opacity="1.00" d=" M 43.90 147.11 C 57.86 152.04 47.66 131.09 51.72 124.70 C 52.06 131.49 51.86 138.29 51.97 145.08 C 52.96 149.46 61.88 147.04 66.16 146.19 C 65.68 150.90 57.67 146.08 54.99 148.01 C 50.83 147.35 50.82 154.38 54.99 154.02 C 58.92 154.13 58.72 158.37 60.18 161.02 C 66.12 163.87 65.92 157.48 67.35 154.27 C 69.97 154.38 72.60 154.41 75.22 154.15 L 74.64 154.69 C 71.58 155.67 74.40 159.63 72.89 161.88 C 65.98 162.19 59.05 162.13 52.14 161.87 C 50.87 159.65 52.62 156.38 50.13 154.88 C 47.82 153.30 43.30 155.35 43.92 151.33 C 44.39 149.94 44.40 148.50 43.90 147.11 Z" />
</g>
<g id="#34213dff">
<path fill="#34213d" opacity="1.00" d=" M 51.72 124.70 C 55.84 124.76 59.96 124.83 64.07 124.93 L 64.23 125.79 C 61.44 125.87 55.87 126.04 53.09 126.12 C 52.90 132.49 53.06 138.86 52.85 145.24 L 51.97 145.08 C 51.86 138.29 52.06 131.49 51.72 124.70 Z" />
</g>
<g id="#593770ff">
<path fill="#593770" opacity="1.00" d=" M 64.07 124.93 C 67.64 124.73 65.52 130.20 66.67 132.38 C 68.47 132.97 70.36 133.17 72.23 133.38 C 69.57 134.02 65.26 132.99 66.23 136.77 C 65.13 141.50 72.88 136.85 74.12 139.91 C 73.60 139.91 72.55 139.92 72.03 139.92 C 67.32 138.75 66.17 141.87 66.16 146.19 C 61.88 147.04 52.96 149.46 51.97 145.08 L 52.85 145.24 C 57.23 146.82 69.31 147.81 64.22 139.90 C 55.27 140.54 58.56 131.70 64.26 131.15 C 64.25 129.81 64.24 127.13 64.23 125.79 L 64.07 124.93 Z" />
</g>
<g id="#c87ff4ff">
<path fill="#c87ff4" opacity="1.00" d=" M 66.67 132.38 C 66.78 128.41 65.71 121.09 72.33 125.66 C 75.55 129.81 72.36 134.76 66.67 132.38 Z" />
</g>
<g id="#8552a0ff">
<path fill="#8552a0" opacity="1.00" d=" M 88.89 124.94 C 90.69 124.97 94.30 125.04 96.10 125.07 C 96.34 127.36 94.23 130.57 96.67 132.12 C 98.20 133.25 100.28 132.24 102.03 132.25 C 99.26 139.16 104.34 140.19 109.61 140.35 C 109.06 144.21 111.79 148.19 115.75 146.64 C 116.35 146.96 117.56 147.60 118.16 147.92 C 117.40 147.93 115.89 147.94 115.13 147.95 C 113.50 147.90 111.89 147.82 110.27 147.70 C 107.87 147.43 105.48 147.18 103.08 146.97 C 102.08 143.15 101.34 138.43 96.15 139.86 C 95.84 139.62 95.21 139.16 94.89 138.93 C 98.67 132.06 91.03 134.55 88.03 130.99 C 87.81 128.92 88.12 126.86 88.89 124.94 Z" />
</g>
<g id="#56eecdff">
<path fill="#56eecd" opacity="1.00" d=" M 167.06 132.59 C 159.98 133.78 159.04 120.64 168.19 125.18 C 166.42 125.75 164.60 126.23 162.98 127.16 C 162.67 130.68 166.20 130.95 168.78 131.19 C 169.36 131.54 170.53 132.22 171.11 132.56 C 169.76 132.70 168.40 132.67 167.06 132.59 Z" />
</g>
<g id="#0bfcb2ff">
<path fill="#0bfcb2" opacity="1.00" d=" M 168.19 125.18 L 169.04 124.97 C 168.97 127.04 168.89 129.12 168.78 131.19 C 166.20 130.95 162.67 130.68 162.98 127.16 C 164.60 126.23 166.42 125.75 168.19 125.18 Z" />
</g>
<g id="#64f830ff">
<path fill="#64f830" opacity="1.00" d=" M 169.04 124.97 C 170.79 124.97 174.31 124.99 176.06 124.99 C 175.80 127.54 176.18 130.40 174.03 132.16 C 173.06 132.33 172.09 132.49 171.11 132.56 C 170.53 132.22 169.36 131.54 168.78 131.19 C 168.89 129.12 168.97 127.04 169.04 124.97 Z" />
</g>
<g id="#f9faf1ff">
<path fill="#f9faf1" opacity="1.00" d=" M 177.75 125.12 L 178.67 125.26 C 182.21 125.77 185.34 126.85 183.01 132.03 C 176.33 134.92 176.93 128.62 177.75 125.12 Z" />
</g>
<g id="#1b1838ff">
<path fill="#1b1838" opacity="1.00" d=" M 7.88 153.80 C 8.58 144.49 7.12 135.06 8.82 125.82 C 11.06 134.46 5.38 147.66 10.83 154.41 C 15.29 155.22 13.27 163.50 18.84 161.73 C 24.63 161.95 38.02 158.05 35.45 166.62 C 39.76 170.96 37.70 177.69 37.73 183.26 C 35.88 178.85 38.86 168.14 31.17 168.98 C 29.41 172.46 29.19 177.61 23.94 177.03 C 21.66 176.93 20.61 178.78 21.24 180.83 C 20.67 187.00 13.02 182.29 9.30 183.27 C 6.68 184.81 7.15 188.38 5.90 190.88 C 3.92 190.60 1.97 190.14 0.00 189.80 L 0.00 169.14 C 9.01 172.77 9.87 158.69 4.98 155.17 C 6.04 154.91 7.01 154.45 7.88 153.80 Z" />
</g>
<g id="#030206ff">
<path fill="#030206" opacity="1.00" d=" M 8.82 125.82 C 20.77 122.72 12.68 138.11 14.15 144.24 C 14.01 145.60 14.59 146.89 14.96 148.17 C 15.64 151.33 14.68 154.65 10.83 154.41 C 5.38 147.66 11.06 134.46 8.82 125.82 Z" />
</g>
<g id="#060408ff">
<path fill="#060408" opacity="1.00" d=" M 53.09 126.12 C 55.87 126.04 61.44 125.87 64.23 125.79 C 64.24 127.13 64.25 129.81 64.26 131.15 C 55.74 127.07 54.81 145.10 64.22 139.90 C 69.31 147.81 57.23 146.82 52.85 145.24 C 53.06 138.86 52.90 132.49 53.09 126.12 Z" />
<path fill="#060408" opacity="1.00" d=" M 0.00 154.99 C 1.66 155.03 3.32 155.09 4.98 155.17 C 9.87 158.69 9.01 172.77 0.00 169.14 L 0.00 154.99 Z" />
<path fill="#060408" opacity="1.00" d=" M 227.93 236.10 C 229.76 236.00 233.44 235.82 235.28 235.73 C 235.13 240.47 235.02 245.24 234.97 250.00 L 228.85 250.00 C 227.11 245.59 228.34 240.68 227.93 236.10 Z" />
</g>
<g id="#eff1f8ff">
<path fill="#eff1f8" opacity="1.00" d=" M 153.48 128.18 C 153.80 127.53 154.43 126.24 154.75 125.60 C 161.51 123.29 160.74 128.32 161.16 132.41 C 158.79 132.97 155.57 133.40 154.06 130.99 C 153.91 130.29 153.62 128.88 153.48 128.18 Z" />
</g>
<g id="#f9c50dff">
<path fill="#f9c50d" opacity="1.00" d=" M 212.39 130.13 L 213.36 130.37 C 213.29 131.04 213.15 132.39 213.09 133.06 C 214.11 138.20 210.73 141.01 205.83 139.63 L 205.78 139.02 C 205.95 136.72 206.07 134.35 207.16 132.27 C 209.53 132.92 211.75 133.01 212.39 130.13 Z" />
</g>
<g id="#301f3cff">
<path fill="#301f3c" opacity="1.00" d=" M 64.22 139.90 C 54.81 145.10 55.74 127.07 64.26 131.15 C 58.56 131.70 55.27 140.54 64.22 139.90 Z" />
</g>
<g id="#57336cff">
<path fill="#57336c" opacity="1.00" d=" M 88.03 130.99 C 91.03 134.55 98.67 132.06 94.89 138.93 C 87.16 141.96 88.23 135.34 88.03 130.99 Z" />
</g>
<g id="#5d61fcff">
<path fill="#5d61fc" opacity="1.00" d=" M 130.99 139.76 C 129.64 134.15 132.57 128.44 139.37 131.24 C 139.36 134.95 132.32 130.65 133.03 134.12 C 130.32 138.49 134.04 138.79 136.21 139.89 C 134.47 139.93 132.73 139.88 130.99 139.76 Z" />
</g>
<g id="#e0f1f5ff">
<path fill="#e0f1f5" opacity="1.00" d=" M 146.83 139.01 C 143.62 132.74 148.46 130.83 154.06 130.99 C 154.04 133.64 154.02 136.29 154.00 138.95 C 152.21 138.97 148.63 139.00 146.83 139.01 Z" />
</g>
<g id="#ca87f3ff">
<path fill="#ca87f3" opacity="1.00" d=" M 154.06 130.99 C 155.57 133.40 158.79 132.97 161.16 132.41 C 163.12 132.46 165.09 132.52 167.06 132.59 C 168.40 132.67 169.76 132.70 171.11 132.56 C 172.09 132.49 173.06 132.33 174.03 132.16 C 175.30 133.37 176.24 134.85 177.11 136.36 C 177.08 137.01 177.01 138.30 176.97 138.95 C 174.38 139.41 170.48 137.82 168.80 139.80 C 169.40 143.51 167.98 149.43 163.71 146.33 C 165.49 138.56 159.29 138.54 154.00 138.95 C 154.02 136.29 154.04 133.64 154.06 130.99 Z" />
</g>
<g id="#b771daff">
<path fill="#b771da" opacity="1.00" d=" M 102.03 132.25 C 104.75 132.05 107.48 132.06 110.22 132.25 C 109.03 137.30 110.36 142.91 116.99 139.41 C 119.57 139.68 122.16 139.70 124.77 139.78 C 128.35 149.00 120.62 145.93 115.75 146.64 C 111.79 148.19 109.06 144.21 109.61 140.35 C 104.34 140.19 99.26 139.16 102.03 132.25 Z" />
</g>
<g id="#f99a95ff">
<path fill="#f99a95" opacity="1.00" d=" M 213.09 133.06 C 225.33 131.78 237.80 132.26 250.00 133.84 L 250.00 161.99 C 240.02 161.71 229.91 162.82 220.01 161.20 C 217.99 161.14 215.97 161.41 213.98 161.76 C 213.84 157.78 214.01 151.51 208.09 153.85 C 204.61 150.96 207.77 144.06 205.83 139.63 C 210.73 141.01 214.11 138.20 213.09 133.06 Z" />
</g>
<g id="#9f63c5ff">
<path fill="#9f63c5" opacity="1.00" d=" M 124.77 139.78 C 126.84 139.68 128.92 139.64 130.99 139.76 C 132.73 139.88 134.47 139.93 136.21 139.89 C 136.83 139.86 138.09 139.79 138.71 139.75 C 138.78 141.60 138.92 145.31 138.99 147.16 C 132.13 148.02 125.09 147.38 118.16 147.92 C 117.56 147.60 116.35 146.96 115.75 146.64 C 120.62 145.93 128.35 149.00 124.77 139.78 Z" />
</g>
<g id="#394275ff">
<path fill="#394275" opacity="1.00" d=" M 138.71 139.75 C 141.31 138.75 144.09 139.03 146.83 139.01 L 147.02 139.95 C 135.87 136.11 141.06 148.27 139.73 154.40 C 139.28 152.01 139.03 149.60 138.99 147.16 C 138.92 145.31 138.78 141.60 138.71 139.75 Z" />
</g>
<g id="#8b57acff">
<path fill="#8b57ac" opacity="1.00" d=" M 146.83 139.01 C 148.63 139.00 152.21 138.97 154.00 138.95 C 159.29 138.54 165.49 138.56 163.71 146.33 C 167.98 149.43 169.40 143.51 168.80 139.80 C 169.15 144.56 168.84 149.34 167.86 154.00 C 163.32 154.22 158.77 154.60 154.28 155.28 C 156.74 161.54 151.43 161.62 147.69 162.23 C 144.28 161.17 140.71 161.70 137.21 161.77 C 131.89 161.44 131.55 153.86 126.24 155.00 C 126.48 158.92 126.63 165.18 120.18 163.19 C 117.12 163.03 120.25 168.99 116.88 168.90 C 112.15 158.88 125.12 164.97 125.04 159.02 C 129.54 148.85 112.50 159.03 118.16 147.92 C 125.09 147.38 132.13 148.02 138.99 147.16 C 139.03 149.60 139.28 152.01 139.73 154.40 C 144.41 155.60 149.31 154.20 154.04 153.96 C 156.09 154.00 158.14 154.08 160.20 154.02 C 163.88 153.69 161.54 141.58 159.94 140.04 C 155.63 139.88 151.32 140.00 147.02 139.95 L 146.83 139.01 Z" />
</g>
<g id="#5a356eff">
<path fill="#5a356e" opacity="1.00" d=" M 168.80 139.80 C 170.48 137.82 174.38 139.41 176.97 138.95 L 177.01 139.95 C 165.46 136.07 172.11 148.46 168.78 154.27 L 167.86 154.00 C 168.84 149.34 169.15 144.56 168.80 139.80 Z" />
</g>
<g id="#698a06ff">
<path fill="#698a06" opacity="1.00" d=" M 176.97 138.95 C 181.66 139.00 186.34 138.98 191.03 139.00 L 191.00 140.00 L 190.01 140.02 C 185.67 139.99 181.34 140.00 177.01 139.95 L 176.97 138.95 Z" />
</g>
<g id="#e7ba6cff">
<path fill="#e7ba6c" opacity="1.00" d=" M 191.03 139.00 L 192.01 138.97 C 193.79 139.00 197.35 139.05 199.13 139.07 L 199.09 139.68 L 198.10 139.95 C 196.06 139.99 194.03 140.00 192.00 140.02 L 191.00 140.00 L 191.03 139.00 Z" />
</g>
<g id="#978e07ff">
<path fill="#978e07" opacity="1.00" d=" M 199.13 139.07 C 200.80 139.06 204.12 139.03 205.78 139.02 L 205.83 139.63 L 205.17 140.09 C 203.38 140.14 201.58 140.15 199.79 140.13 L 199.09 139.68 L 199.13 139.07 Z" />
</g>
<g id="#c57df0ff">
<path fill="#c57df0" opacity="1.00" d=" M 66.16 146.19 C 66.17 141.87 67.32 138.75 72.03 139.92 C 71.82 145.89 75.44 149.07 81.24 149.10 C 81.54 153.08 80.40 155.77 75.22 154.15 C 72.60 154.41 69.97 154.38 67.35 154.27 C 65.92 157.48 66.12 163.87 60.18 161.02 C 58.72 158.37 58.92 154.13 54.99 154.02 C 50.82 154.38 50.83 147.35 54.99 148.01 C 57.67 146.08 65.68 150.90 66.16 146.19 Z" />
</g>
<g id="#8757afff">
<path fill="#8757af" opacity="1.00" d=" M 72.03 139.92 C 72.55 139.92 73.60 139.91 74.12 139.91 C 74.00 143.39 74.23 147.26 79.02 145.98 C 80.22 146.40 81.38 146.94 82.46 147.61 C 82.15 147.99 81.54 148.73 81.24 149.10 C 75.44 149.07 71.82 145.89 72.03 139.92 Z" />
</g>
<g id="#322d6aff">
<path fill="#322d6a" opacity="1.00" d=" M 79.02 145.98 C 81.45 144.85 79.33 139.63 82.17 140.04 C 88.41 136.79 86.77 142.49 87.73 145.32 C 88.04 148.98 94.73 145.59 95.04 149.03 C 98.60 158.17 85.82 151.78 85.53 158.69 C 80.91 158.30 90.07 148.88 82.46 147.61 C 81.38 146.94 80.22 146.40 79.02 145.98 Z" />
</g>
<g id="#06050aff">
<path fill="#06050a" opacity="1.00" d=" M 90.25 140.10 C 96.95 135.07 96.96 147.11 92.00 146.04 C 88.62 146.78 87.85 141.57 90.25 140.10 Z" />
</g>
<g id="#55336bff">
<path fill="#55336b" opacity="1.00" d=" M 96.15 139.86 C 101.34 138.43 102.08 143.15 103.08 146.97 C 97.56 147.77 93.24 147.30 96.15 139.86 Z" />
</g>
<g id="#08050aff">
<path fill="#08050a" opacity="1.00" d=" M 139.73 154.40 C 141.06 148.27 135.87 136.11 147.02 139.95 C 151.32 140.00 155.63 139.88 159.94 140.04 C 159.94 144.69 160.58 149.37 160.20 154.02 C 158.14 154.08 156.09 154.00 154.04 153.96 C 158.97 147.33 146.96 142.24 146.63 149.63 C 146.52 153.72 144.15 155.25 139.73 154.40 Z" />
</g>
<g id="#402650ff">
<path fill="#402650" opacity="1.00" d=" M 159.94 140.04 C 161.54 141.58 163.88 153.69 160.20 154.02 C 160.58 149.37 159.94 144.69 159.94 140.04 Z" />
</g>
<g id="#0c080fff">
<path fill="#0c080f" opacity="1.00" d=" M 168.78 154.27 C 172.11 148.46 165.46 136.07 177.01 139.95 C 181.34 140.00 185.67 139.99 190.01 140.02 C 188.90 144.57 193.73 156.74 184.24 153.95 C 181.98 151.84 185.28 148.05 182.76 146.04 C 178.85 144.12 174.80 147.99 176.41 151.64 C 177.17 155.51 171.37 153.71 168.78 154.27 Z" />
</g>
<g id="#653e7eff">
<path fill="#653e7e" opacity="1.00" d=" M 190.01 140.02 L 191.00 140.00 L 192.00 140.02 C 191.90 144.60 192.34 149.23 191.85 153.80 C 184.48 155.11 176.24 155.38 168.78 154.27 C 171.37 153.71 177.17 155.51 176.41 151.64 C 174.80 147.99 178.85 144.12 182.76 146.04 C 185.28 148.05 181.98 151.84 184.24 153.95 C 193.73 156.74 188.90 144.57 190.01 140.02 Z" />
</g>
<g id="#bd78e7ff">
<path fill="#bd78e7" opacity="1.00" d=" M 192.00 140.02 C 194.03 140.00 196.06 139.99 198.10 139.95 C 199.06 143.93 196.04 151.51 199.02 153.97 C 199.49 154.00 200.43 154.04 200.89 154.07 C 201.69 154.07 203.28 154.08 204.08 154.08 C 206.08 155.77 205.75 158.50 206.28 160.91 C 206.45 161.39 206.78 162.35 206.95 162.83 C 187.29 160.83 167.04 161.65 147.69 162.23 C 151.43 161.62 156.74 161.54 154.28 155.28 C 158.77 154.60 163.32 154.22 167.86 154.00 L 168.78 154.27 C 176.24 155.38 184.48 155.11 191.85 153.80 C 192.34 149.23 191.90 144.60 192.00 140.02 Z" />
</g>
<g id="#8450a7ff">
<path fill="#8450a7" opacity="1.00" d=" M 198.10 139.95 L 199.09 139.68 C 199.05 144.44 199.00 149.21 199.02 153.97 C 196.04 151.51 199.06 143.93 198.10 139.95 Z" />
</g>
<g id="#4c2f5dff">
<path fill="#4c2f5d" opacity="1.00" d=" M 199.09 139.68 L 199.79 140.13 C 200.29 144.72 199.12 149.65 200.89 154.07 C 200.43 154.04 199.49 154.00 199.02 153.97 C 199.00 149.21 199.05 144.44 199.09 139.68 Z" />
</g>
<g id="#120b0dff">
<path fill="#120b0d" opacity="1.00" d=" M 199.79 140.13 C 201.58 140.15 203.38 140.14 205.17 140.09 C 204.70 144.71 205.86 149.65 204.08 154.08 C 203.28 154.08 201.69 154.07 200.89 154.07 C 199.12 149.65 200.29 144.72 199.79 140.13 Z" />
</g>
<g id="#704953ff">
<path fill="#704953" opacity="1.00" d=" M 205.17 140.09 L 205.83 139.63 C 207.77 144.06 204.61 150.96 208.09 153.85 C 214.01 151.51 213.84 157.78 213.98 161.76 C 211.43 161.31 208.84 161.27 206.28 160.91 C 205.75 158.50 206.08 155.77 204.08 154.08 C 205.86 149.65 204.70 144.71 205.17 140.09 M 207.00 155.00 L 207.00 160.00 L 212.00 160.00 L 212.00 155.00 L 207.00 155.00 Z" />
</g>
<g id="#4e2e61ff">
<path fill="#4e2e61" opacity="1.00" d=" M 146.63 149.63 C 146.96 142.24 158.97 147.33 154.04 153.96 C 149.31 154.20 144.41 155.60 139.73 154.40 C 144.15 155.25 146.52 153.72 146.63 149.63 Z" />
</g>
<g id="#121026ff">
<path fill="#121026" opacity="1.00" d=" M 14.96 148.17 C 17.18 148.84 19.79 147.96 21.79 149.19 C 23.54 152.42 24.53 156.75 29.98 154.06 C 37.99 157.15 34.11 150.50 36.69 147.76 C 40.14 147.44 43.34 147.61 43.92 151.33 C 43.30 155.35 47.82 153.30 50.13 154.88 C 50.33 157.61 50.17 160.41 50.88 163.08 C 51.53 167.18 53.59 171.33 58.99 169.02 C 60.88 180.94 47.51 172.00 44.03 178.01 C 46.73 184.78 41.72 184.55 37.73 183.26 C 37.70 177.69 39.76 170.96 35.45 166.62 C 38.02 158.05 24.63 161.95 18.84 161.73 C 13.27 163.50 15.29 155.22 10.83 154.41 C 14.68 154.65 15.64 151.33 14.96 148.17 Z" />
<path fill="#121026" opacity="1.00" d=" M 122.17 206.30 C 123.09 206.45 124.02 206.63 124.93 206.86 C 124.96 208.21 124.98 209.56 125.01 210.92 C 123.77 216.40 131.09 213.05 134.28 214.64 C 128.20 212.59 120.71 215.97 126.18 221.88 C 135.42 220.67 144.71 221.25 153.99 221.16 C 154.88 223.39 155.70 226.43 152.81 227.54 C 148.63 227.43 144.32 226.71 140.29 228.23 C 141.88 232.07 137.59 238.55 133.79 235.28 C 133.67 231.14 130.85 225.53 125.99 227.60 C 125.94 222.86 123.75 219.83 119.11 221.00 C 116.39 221.05 113.68 221.03 110.98 220.95 C 111.22 218.01 109.63 213.52 113.86 213.74 C 119.40 213.88 116.49 205.81 122.17 206.30 Z" />
</g>
<g id="#050308ff">
<path fill="#050308" opacity="1.00" d=" M 96.01 153.95 C 92.43 143.75 105.26 149.37 110.27 147.70 C 111.89 147.82 113.50 147.90 115.13 147.95 C 119.83 159.39 102.06 152.03 96.01 153.95 Z" />
</g>
<g id="#0c0a17ff">
<path fill="#0c0a17" opacity="1.00" d=" M 74.64 154.69 C 76.24 154.81 79.44 155.05 81.04 155.17 C 83.92 164.17 72.04 161.63 74.64 154.69 Z" />
</g>
<g id="#07060eff">
<path fill="#07060e" opacity="1.00" d=" M 119.25 155.10 L 123.99 154.98 C 128.60 164.40 112.72 160.43 119.25 155.10 Z" />
</g>
<g id="#a86acfff">
<path fill="#a86acf" opacity="1.00" d=" M 126.24 155.00 C 131.55 153.86 131.89 161.44 137.21 161.77 C 130.42 160.42 128.53 167.90 123.86 170.86 C 119.87 172.46 123.23 174.59 124.85 176.20 L 125.00 177.05 C 125.02 179.04 125.03 181.03 125.07 183.02 L 125.07 184.02 C 124.45 186.62 125.28 192.20 121.10 190.96 C 114.11 189.00 120.98 175.08 110.96 175.99 C 110.53 171.41 110.09 166.65 116.88 168.90 C 120.25 168.99 117.12 163.03 120.18 163.19 C 126.63 165.18 126.48 158.92 126.24 155.00 Z" />
</g>
<g id="#070406ff">
<path fill="#070406" opacity="1.00" d=" M 207.00 155.00 L 212.00 155.00 L 212.00 160.00 L 207.00 160.00 L 207.00 155.00 Z" />
</g>
<g id="#cc82faff">
<path fill="#cc82fa" opacity="1.00" d=" M 137.21 161.77 C 140.71 161.70 144.28 161.17 147.69 162.23 C 167.04 161.65 187.29 160.83 206.95 162.83 C 208.57 162.97 210.20 163.03 211.82 163.24 C 211.68 169.82 213.72 176.46 211.90 182.96 C 207.46 183.91 205.63 181.81 206.40 176.67 C 179.32 175.20 152.01 176.21 124.85 176.20 C 123.23 174.59 119.87 172.46 123.86 170.86 C 128.53 167.90 130.42 160.42 137.21 161.77 Z" />
</g>
<g id="#8b58a7ff">
<path fill="#8b58a7" opacity="1.00" d=" M 206.28 160.91 C 208.84 161.27 211.43 161.31 213.98 161.76 C 214.00 168.89 213.71 176.07 214.77 183.17 L 214.64 183.94 C 214.20 185.73 213.87 187.55 213.57 189.38 L 213.08 188.78 C 212.64 185.99 214.42 180.53 208.02 183.98 C 204.47 183.48 206.07 188.64 205.80 190.94 C 201.35 190.89 198.18 188.32 196.91 184.05 C 199.65 183.83 202.75 184.79 205.19 183.25 C 205.50 181.60 206.10 178.31 206.40 176.67 C 205.63 181.81 207.46 183.91 211.90 182.96 C 213.72 176.46 211.68 169.82 211.82 163.24 C 210.20 163.03 208.57 162.97 206.95 162.83 C 206.78 162.35 206.45 161.39 206.28 160.91 Z" />
</g>
<g id="#563852ff">
<path fill="#563852" opacity="1.00" d=" M 213.98 161.76 C 215.97 161.41 217.99 161.14 220.01 161.20 C 220.22 161.61 220.62 162.45 220.83 162.87 C 209.90 161.16 216.70 176.04 214.77 183.17 C 213.71 176.07 214.00 168.89 213.98 161.76 Z" />
</g>
<g id="#f98b86ff">
<path fill="#f98b86" opacity="1.00" d=" M 220.01 161.20 C 229.91 162.82 240.02 161.71 250.00 161.99 L 250.00 192.00 C 240.36 191.73 230.74 192.30 221.11 192.45 C 218.33 192.56 215.15 191.91 213.57 189.38 C 213.87 187.55 214.20 185.73 214.64 183.94 C 219.82 186.38 223.75 181.30 221.43 176.11 C 221.20 171.92 221.44 167.70 221.00 163.53 L 220.83 162.87 C 220.62 162.45 220.22 161.61 220.01 161.20 Z" />
</g>
<g id="#090814ff">
<path fill="#090814" opacity="1.00" d=" M 107.98 167.01 C 112.01 166.52 108.82 157.64 115.98 161.99 C 117.56 167.34 115.60 169.45 110.11 168.31 C 110.43 178.00 108.73 189.25 110.96 198.01 C 114.25 198.81 117.98 199.63 117.34 203.95 C 112.16 208.55 103.95 202.32 97.67 204.27 C 93.59 197.28 109.15 204.64 104.08 194.96 C 104.90 189.91 98.70 190.30 95.90 187.96 C 95.85 187.46 95.76 186.46 95.72 185.96 C 98.38 184.92 101.70 184.90 103.85 182.78 C 104.65 177.99 100.78 168.45 107.98 167.01 Z" />
</g>
<g id="#040309ff">
<path fill="#040309" opacity="1.00" d=" M 50.88 163.08 C 58.26 162.99 65.65 162.87 73.03 163.07 C 72.80 164.58 72.35 167.59 72.12 169.10 C 67.74 169.18 63.37 169.01 58.99 169.02 C 53.59 171.33 51.53 167.18 50.88 163.08 Z" />
</g>
<g id="#2b275dff">
<path fill="#2b275d" opacity="1.00" d=" M 72.12 169.10 C 76.37 168.79 72.31 158.90 79.76 163.03 C 83.29 165.68 78.46 172.57 82.41 174.52 C 91.54 173.25 88.42 184.02 95.72 185.96 C 95.76 186.46 95.85 187.46 95.90 187.96 C 95.07 192.44 100.07 191.87 103.02 193.14 C 103.06 201.65 86.63 195.85 90.92 207.01 C 89.64 212.42 98.44 211.13 97.38 216.36 C 96.93 219.72 100.83 219.55 100.28 216.14 C 99.82 210.66 111.15 207.78 109.99 213.93 C 100.89 210.11 106.54 224.33 97.11 221.20 C 92.32 222.24 94.73 227.92 94.63 231.36 C 95.29 241.69 110.60 234.91 116.35 235.38 C 117.38 230.61 118.54 225.86 119.11 221.00 C 123.75 219.83 125.94 222.86 125.99 227.60 C 130.85 225.53 133.67 231.14 133.79 235.28 C 137.59 238.55 141.88 232.07 140.29 228.23 C 144.32 226.71 148.63 227.43 152.81 227.54 C 155.70 226.43 154.88 223.39 153.99 221.16 C 160.71 218.92 162.40 221.44 163.19 227.03 C 172.35 231.96 165.07 216.30 174.02 221.01 C 177.39 220.93 180.79 220.99 184.17 221.07 C 185.30 229.75 175.05 227.67 171.39 233.84 C 171.34 228.14 162.52 226.72 160.99 232.08 C 160.25 236.49 167.90 235.70 166.82 239.70 C 163.70 242.76 156.60 244.65 160.06 250.00 L 145.82 250.00 C 142.87 241.59 158.26 243.08 152.74 235.11 C 148.95 235.62 144.04 233.57 140.68 235.66 C 141.08 240.52 139.11 245.61 133.03 243.01 C 127.60 239.79 121.25 242.85 115.35 241.52 C 109.33 241.24 98.29 240.18 100.85 250.00 L 96.13 250.00 C 99.09 241.05 90.19 242.83 85.00 242.93 C 78.44 239.96 79.74 247.16 76.95 250.00 L 75.97 250.00 C 75.21 245.75 74.68 241.43 75.02 237.12 C 79.06 234.83 91.40 237.03 86.84 230.20 C 80.80 229.28 65.91 223.14 66.32 234.33 C 62.79 234.86 58.48 235.06 56.17 238.26 C 55.99 242.19 56.85 246.08 57.14 250.00 L 52.97 250.00 C 56.75 243.25 48.74 242.49 43.98 243.14 C 43.91 240.08 40.82 234.69 45.38 234.48 C 51.96 234.27 48.48 221.96 58.00 225.84 C 57.32 221.06 51.31 223.02 49.17 219.68 C 48.77 213.45 49.28 207.22 48.89 201.01 C 44.22 199.39 47.58 206.52 43.87 206.77 C 35.13 207.66 36.01 219.00 39.03 225.02 C 39.08 230.67 31.99 231.12 28.75 227.73 C 28.75 226.06 28.73 222.72 28.73 221.04 C 29.43 215.40 26.34 205.76 33.23 203.12 C 36.89 200.09 25.27 199.02 24.52 201.41 C 24.47 207.18 11.96 211.75 14.99 202.04 C 11.20 194.60 22.98 198.60 20.58 191.45 C 20.90 188.00 27.60 190.03 26.88 186.37 C 23.30 186.49 21.54 184.19 21.24 180.83 C 20.61 178.78 21.66 176.93 23.94 177.03 C 18.86 184.00 31.43 181.65 30.00 187.90 C 29.64 192.80 20.82 190.99 23.09 196.75 C 26.38 199.68 31.77 197.04 35.81 198.13 C 37.64 200.48 36.79 204.77 40.18 205.74 C 43.28 205.58 44.60 202.25 44.58 199.45 C 45.04 195.70 51.04 197.56 51.40 200.65 C 52.56 206.57 51.54 212.77 52.13 218.80 C 54.30 220.15 56.91 220.66 58.96 222.23 C 63.08 230.55 47.61 226.31 51.99 235.04 C 59.28 238.19 59.36 229.42 64.61 227.55 C 71.33 224.02 66.40 215.01 68.10 209.11 C 71.24 204.23 84.93 203.91 81.35 212.30 C 77.97 213.85 67.31 213.97 72.36 220.59 C 80.56 218.70 81.01 231.66 89.35 226.32 C 90.47 216.19 85.09 204.24 89.77 194.10 C 87.63 188.17 91.45 176.02 81.47 176.39 C 75.06 175.36 68.03 172.82 61.88 175.81 C 56.18 177.90 49.79 175.97 44.03 178.01 C 47.51 172.00 60.88 180.94 58.99 169.02 C 63.37 169.01 67.74 169.18 72.12 169.10 Z" />
</g>
<g id="#0b0708ff">
<path fill="#0b0708" opacity="1.00" d=" M 214.77 183.17 C 216.70 176.04 209.90 161.16 220.83 162.87 L 221.00 163.53 C 217.13 169.27 225.48 184.92 214.77 183.17 Z" />
</g>
<g id="#76494aff">
<path fill="#76494a" opacity="1.00" d=" M 214.77 183.17 C 225.48 184.92 217.13 169.27 221.00 163.53 C 221.44 167.70 221.20 171.92 221.43 176.11 C 223.75 181.30 219.82 186.38 214.64 183.94 L 214.77 183.17 Z" />
</g>
<g id="#353070ff">
<path fill="#353070" opacity="1.00" d=" M 31.17 168.98 C 38.86 168.14 35.88 178.85 37.73 183.26 C 41.72 184.55 46.73 184.78 44.03 178.01 C 49.79 175.97 56.18 177.90 61.88 175.81 C 68.03 172.82 75.06 175.36 81.47 176.39 C 91.45 176.02 87.63 188.17 89.77 194.10 C 85.09 204.24 90.47 216.19 89.35 226.32 C 81.01 231.66 80.56 218.70 72.36 220.59 C 67.31 213.97 77.97 213.85 81.35 212.30 C 84.93 203.91 71.24 204.23 68.10 209.11 C 66.40 215.01 71.33 224.02 64.61 227.55 C 59.36 229.42 59.28 238.19 51.99 235.04 C 47.61 226.31 63.08 230.55 58.96 222.23 C 56.91 220.66 54.30 220.15 52.13 218.80 C 51.54 212.77 52.56 206.57 51.40 200.65 C 51.04 197.56 45.04 195.70 44.58 199.45 C 44.60 202.25 43.28 205.58 40.18 205.74 C 36.79 204.77 37.64 200.48 35.81 198.13 C 31.77 197.04 26.38 199.68 23.09 196.75 C 20.82 190.99 29.64 192.80 30.00 187.90 C 31.43 181.65 18.86 184.00 23.94 177.03 C 29.19 177.61 29.41 172.46 31.17 168.98 Z" />
</g>
<g id="#8955aaff">
<path fill="#8955aa" opacity="1.00" d=" M 110.96 175.99 C 120.98 175.08 114.11 189.00 121.10 190.96 C 125.28 192.20 124.45 186.62 125.07 184.02 C 135.38 183.99 145.70 183.99 156.02 184.00 C 151.67 196.33 134.88 188.82 124.98 191.11 C 122.55 196.19 126.70 198.32 130.18 199.88 C 135.15 202.05 128.56 209.05 132.29 211.86 C 141.89 212.19 151.50 212.01 161.11 211.98 C 171.07 212.02 181.03 212.01 190.99 211.99 C 191.00 212.45 191.01 213.38 191.02 213.84 C 173.19 214.67 155.38 212.61 137.57 213.45 C 133.66 212.27 127.49 215.19 125.01 210.92 C 124.98 209.56 124.96 208.21 124.93 206.86 C 124.75 203.68 125.39 198.22 120.65 199.18 C 112.72 199.20 121.25 187.72 111.02 191.95 C 110.98 186.63 110.95 181.30 110.96 175.99 Z" />
</g>
<g id="#8e58aeff">
<path fill="#8e58ae" opacity="1.00" d=" M 124.85 176.20 C 152.01 176.21 179.32 175.20 206.40 176.67 C 179.28 177.45 152.13 176.72 125.00 177.05 L 124.85 176.20 Z" />
</g>
<g id="#352240ff">
<path fill="#352240" opacity="1.00" d=" M 125.00 177.05 C 152.13 176.72 179.28 177.45 206.40 176.67 C 206.10 178.31 205.50 181.60 205.19 183.25 C 204.69 183.23 203.67 183.18 203.16 183.16 C 203.69 181.52 204.09 179.82 204.06 178.08 C 178.08 177.97 152.09 177.89 126.11 178.10 C 125.98 179.72 125.99 181.35 125.99 182.99 L 125.07 183.02 C 125.03 181.03 125.02 179.04 125.00 177.05 Z" />
</g>
<g id="#030204ff">
<path fill="#030204" opacity="1.00" d=" M 126.11 178.10 C 152.09 177.89 178.08 177.97 204.06 178.08 C 204.09 179.82 203.69 181.52 203.16 183.16 C 177.44 182.79 151.71 183.11 125.99 182.99 C 125.99 181.35 125.98 179.72 126.11 178.10 Z" />
</g>
<g id="#211d48ff">
<path fill="#211d48" opacity="1.00" d=" M 21.24 180.83 C 21.54 184.19 23.30 186.49 26.88 186.37 C 27.60 190.03 20.90 188.00 20.58 191.45 C 22.98 198.60 11.20 194.60 14.99 202.04 C 11.96 211.75 24.47 207.18 24.52 201.41 C 25.27 199.02 36.89 200.09 33.23 203.12 C 26.34 205.76 29.43 215.40 28.73 221.04 C 24.32 219.58 19.41 222.92 15.26 220.80 C 13.51 218.40 13.98 213.99 9.99 214.03 C 6.13 214.08 8.05 208.96 8.24 206.43 C 11.28 205.48 15.34 204.27 14.00 200.19 C 9.31 200.05 4.65 199.53 0.00 198.93 L 0.00 189.80 C 1.97 190.14 3.92 190.60 5.90 190.88 C 7.15 188.38 6.68 184.81 9.30 183.27 C 13.02 182.29 20.67 187.00 21.24 180.83 Z" />
</g>
<g id="#513263ff">
<path fill="#513263" opacity="1.00" d=" M 125.07 183.02 L 125.99 182.99 C 151.71 183.11 177.44 182.79 203.16 183.16 C 203.67 183.18 204.69 183.23 205.19 183.25 C 202.75 184.79 199.65 183.83 196.91 184.05 C 183.28 183.94 169.65 183.99 156.02 184.00 C 145.70 183.99 135.38 183.99 125.07 184.02 L 125.07 183.02 Z" />
</g>
<g id="#9f64c6ff">
<path fill="#9f64c6" opacity="1.00" d=" M 156.02 184.00 C 169.65 183.99 183.28 183.94 196.91 184.05 C 198.18 188.32 201.35 190.89 205.80 190.94 C 205.84 192.71 205.93 196.25 205.98 198.02 L 205.97 198.98 C 195.48 194.03 202.41 209.71 192.68 205.82 L 193.19 205.14 C 197.71 206.12 197.41 201.45 198.39 198.39 C 201.37 196.95 207.79 198.30 204.97 192.23 C 193.84 190.95 182.64 190.78 171.46 191.01 C 163.03 190.25 148.23 187.61 144.59 197.47 C 135.00 197.50 139.64 211.64 148.33 206.44 C 151.47 206.18 154.63 205.94 157.77 205.58 C 160.90 206.39 161.30 209.15 161.11 211.98 C 151.50 212.01 141.89 212.19 132.29 211.86 C 128.56 209.05 135.15 202.05 130.18 199.88 C 126.70 198.32 122.55 196.19 124.98 191.11 C 134.88 188.82 151.67 196.33 156.02 184.00 Z" />
</g>
<g id="#4f3148ff">
<path fill="#4f3148" opacity="1.00" d=" M 205.80 190.94 C 206.07 188.64 204.47 183.48 208.02 183.98 C 214.42 180.53 212.64 185.99 213.08 188.78 C 211.77 191.07 215.18 198.12 211.14 198.05 C 211.04 194.31 215.18 185.62 209.21 185.36 C 204.24 186.69 208.17 194.20 206.97 198.02 L 205.98 198.02 C 205.93 196.25 205.84 192.71 205.80 190.94 Z" />
</g>
<g id="#070505ff">
<path fill="#070505" opacity="1.00" d=" M 209.21 185.36 C 215.18 185.62 211.04 194.31 211.14 198.05 C 209.75 198.08 208.36 198.07 206.97 198.02 C 208.17 194.20 204.24 186.69 209.21 185.36 Z" />
</g>
<g id="#201d46ff">
<path fill="#201d46" opacity="1.00" d=" M 95.90 187.96 C 98.70 190.30 104.90 189.91 104.08 194.96 C 109.15 204.64 93.59 197.28 97.67 204.27 C 103.95 202.32 112.16 208.55 117.34 203.95 C 118.01 206.12 120.32 205.95 122.17 206.30 C 116.49 205.81 119.40 213.88 113.86 213.74 C 109.63 213.52 111.22 218.01 110.98 220.95 C 109.88 219.34 109.55 217.00 109.99 213.93 C 111.15 207.78 99.82 210.66 100.28 216.14 C 100.83 219.55 96.93 219.72 97.38 216.36 C 98.44 211.13 89.64 212.42 90.92 207.01 C 86.63 195.85 103.06 201.65 103.02 193.14 C 100.07 191.87 95.07 192.44 95.90 187.96 Z" />
</g>
<g id="#f97c76ff">
<path fill="#f97c76" opacity="1.00" d=" M 213.08 188.78 L 213.57 189.38 C 215.15 191.91 218.33 192.56 221.11 192.45 C 230.74 192.30 240.36 191.73 250.00 192.00 L 250.00 250.00 L 236.00 250.00 C 235.46 245.32 237.24 240.16 235.28 235.73 C 223.06 238.13 231.58 224.77 226.63 220.48 C 219.86 222.47 221.22 217.10 220.79 213.13 C 218.18 212.18 212.73 213.78 213.46 209.35 C 214.94 205.29 209.30 204.95 206.76 206.22 C 206.45 203.81 206.18 201.39 205.97 198.98 L 205.98 198.02 L 206.97 198.02 C 208.36 198.07 209.75 198.08 211.14 198.05 C 215.18 198.12 211.77 191.07 213.08 188.78 Z" />
</g>
<g id="#b573dfff">
<path fill="#b573df" opacity="1.00" d=" M 144.59 197.47 C 148.23 187.61 163.03 190.25 171.46 191.01 C 165.82 192.22 160.04 191.67 154.35 192.23 C 153.54 197.82 141.98 200.17 148.33 206.44 C 139.64 211.64 135.00 197.50 144.59 197.47 Z" />
</g>
<g id="#cc82fbff">
<path fill="#cc82fb" opacity="1.00" d=" M 171.46 191.01 C 182.64 190.78 193.84 190.95 204.97 192.23 C 207.79 198.30 201.37 196.95 198.39 198.39 C 197.41 201.45 197.71 206.12 193.19 205.14 C 181.42 206.52 169.53 206.02 157.77 205.58 C 154.63 205.94 151.47 206.18 148.33 206.44 C 141.98 200.17 153.54 197.82 154.35 192.23 C 160.04 191.67 165.82 192.22 171.46 191.01 Z" />
</g>
<g id="#533267ff">
<path fill="#533267" opacity="1.00" d=" M 111.02 191.95 C 121.25 187.72 112.72 199.20 120.65 199.18 C 125.39 198.22 124.75 203.68 124.93 206.86 C 124.02 206.63 123.09 206.45 122.17 206.30 C 120.32 205.95 118.01 206.12 117.34 203.95 C 117.98 199.63 114.25 198.81 110.96 198.01 C 110.96 195.99 110.99 193.97 111.02 191.95 Z" />
</g>
<g id="#171533ff">
<path fill="#171533" opacity="1.00" d=" M 0.00 198.93 C 4.65 199.53 9.31 200.05 14.00 200.19 C 15.34 204.27 11.28 205.48 8.24 206.43 C 8.05 208.96 6.13 214.08 9.99 214.03 C 13.98 213.99 13.51 218.40 15.26 220.80 C 19.41 222.92 24.32 219.58 28.73 221.04 C 28.73 222.72 28.75 226.06 28.75 227.73 C 28.20 232.21 31.04 244.78 23.48 240.62 C 26.03 232.32 10.21 232.63 14.19 240.67 C 17.07 243.63 20.95 245.83 22.18 250.00 L 0.00 250.00 L 0.00 198.93 Z" />
</g>
<g id="#553451ff">
<path fill="#553451" opacity="1.00" d=" M 192.68 205.82 C 202.41 209.71 195.48 194.03 205.97 198.98 C 206.18 201.39 206.45 203.81 206.76 206.22 C 203.73 204.79 205.66 197.98 200.27 200.02 C 202.60 207.18 196.68 207.58 191.81 206.97 C 192.03 206.68 192.46 206.11 192.68 205.82 Z" />
</g>
<g id="#120e21ff">
<path fill="#120e21" opacity="1.00" d=" M 200.27 200.02 C 205.66 197.98 203.73 204.79 206.76 206.22 C 214.53 204.20 209.98 215.99 216.78 214.73 C 220.74 213.90 220.06 217.58 219.89 220.37 C 218.23 220.68 216.55 220.95 214.88 221.17 C 211.97 219.69 206.91 222.23 205.75 218.33 C 204.59 209.19 188.17 218.32 191.81 206.97 C 196.68 207.58 202.60 207.18 200.27 200.02 Z" />
</g>
<g id="#221f4bff">
<path fill="#221f4b" opacity="1.00" d=" M 43.87 206.77 C 47.58 206.52 44.22 199.39 48.89 201.01 C 49.28 207.22 48.77 213.45 49.17 219.68 C 51.31 223.02 57.32 221.06 58.00 225.84 C 48.48 221.96 51.96 234.27 45.38 234.48 C 40.82 234.69 43.91 240.08 43.98 243.14 C 38.20 244.87 27.18 238.76 29.85 250.00 L 22.18 250.00 C 20.95 245.83 17.07 243.63 14.19 240.67 C 10.21 232.63 26.03 232.32 23.48 240.62 C 31.04 244.78 28.20 232.21 28.75 227.73 C 31.99 231.12 39.08 230.67 39.03 225.02 C 36.01 219.00 35.13 207.66 43.87 206.77 Z" />
</g>
<g id="#7f453fff">
<path fill="#7f453f" opacity="1.00" d=" M 206.76 206.22 C 209.30 204.95 214.94 205.29 213.46 209.35 C 212.73 213.78 218.18 212.18 220.79 213.13 C 221.22 217.10 219.86 222.47 226.63 220.48 C 231.58 224.77 223.06 238.13 235.28 235.73 C 233.44 235.82 229.76 236.00 227.93 236.10 C 227.59 235.04 227.27 233.98 226.97 232.91 C 226.02 229.13 229.81 220.28 223.09 220.92 C 222.02 220.75 220.95 220.57 219.89 220.37 C 220.06 217.58 220.74 213.90 216.78 214.73 C 209.98 215.99 214.53 204.20 206.76 206.22 Z" />
</g>
<g id="#332e6cff">
<path fill="#332e6c" opacity="1.00" d=" M 190.99 211.99 C 191.13 210.31 190.67 208.39 191.81 206.97 C 188.17 218.32 204.59 209.19 205.75 218.33 C 206.91 222.23 211.97 219.69 214.88 221.17 C 213.06 227.01 222.99 225.64 220.04 232.05 C 221.06 235.55 218.47 236.25 215.63 236.68 C 214.09 240.85 214.28 245.55 213.88 250.00 L 160.06 250.00 C 156.60 244.65 163.70 242.76 166.82 239.70 C 167.90 235.70 160.25 236.49 160.99 232.08 C 162.52 226.72 171.34 228.14 171.39 233.84 C 175.05 227.67 185.30 229.75 184.17 221.07 C 189.66 223.30 190.97 218.90 191.01 214.91 L 191.02 213.84 C 191.01 213.38 191.00 212.45 190.99 211.99 M 207.22 228.21 C 202.07 232.95 208.53 238.28 212.89 234.78 C 215.24 230.19 210.77 227.64 207.22 228.21 Z" />
</g>
<g id="#442954ff">
<path fill="#442954" opacity="1.00" d=" M 125.01 210.92 C 127.49 215.19 133.66 212.27 137.57 213.45 C 155.38 212.61 173.19 214.67 191.02 213.84 L 191.01 214.91 C 172.10 214.92 153.18 215.38 134.28 214.64 C 131.09 213.05 123.77 216.40 125.01 210.92 Z" />
</g>
<g id="#353071ff">
<path fill="#353071" opacity="1.00" d=" M 97.11 221.20 C 106.54 224.33 100.89 210.11 109.99 213.93 C 109.55 217.00 109.88 219.34 110.98 220.95 C 113.68 221.03 116.39 221.05 119.11 221.00 C 118.54 225.86 117.38 230.61 116.35 235.38 C 110.60 234.91 95.29 241.69 94.63 231.36 C 94.73 227.92 92.32 222.24 97.11 221.20 Z" />
</g>
<g id="#06050dff">
<path fill="#06050d" opacity="1.00" d=" M 126.18 221.88 C 120.71 215.97 128.20 212.59 134.28 214.64 C 153.18 215.38 172.10 214.92 191.01 214.91 C 190.97 218.90 189.66 223.30 184.17 221.07 C 180.79 220.99 177.39 220.93 174.02 221.01 C 165.07 216.30 172.35 231.96 163.19 227.03 C 162.40 221.44 160.71 218.92 153.99 221.16 C 144.71 221.25 135.42 220.67 126.18 221.88 Z" />
</g>
<g id="#1c1a3eff">
<path fill="#1c1a3e" opacity="1.00" d=" M 214.88 221.17 C 216.55 220.95 218.23 220.68 219.89 220.37 C 220.95 220.57 222.02 220.75 223.09 220.92 C 218.28 224.38 219.55 241.12 226.97 232.91 C 227.27 233.98 227.59 235.04 227.93 236.10 C 228.34 240.68 227.11 245.59 228.85 250.00 L 213.88 250.00 C 214.28 245.55 214.09 240.85 215.63 236.68 C 218.47 236.25 221.06 235.55 220.04 232.05 C 222.99 225.64 213.06 227.01 214.88 221.17 Z" />
</g>
<g id="#080507ff">
<path fill="#080507" opacity="1.00" d=" M 223.09 220.92 C 229.81 220.28 226.02 229.13 226.97 232.91 C 219.55 241.12 218.28 224.38 223.09 220.92 Z" />
</g>
<g id="#181635ff">
<path fill="#181635" opacity="1.00" d=" M 66.32 234.33 C 65.91 223.14 80.80 229.28 86.84 230.20 C 91.40 237.03 79.06 234.83 75.02 237.12 C 74.68 241.43 75.21 245.75 75.97 250.00 L 57.14 250.00 C 56.85 246.08 55.99 242.19 56.17 238.26 C 58.48 235.06 62.79 234.86 66.32 234.33 Z" />
</g>
<g id="#1e1a3fff">
<path fill="#1e1a3f" opacity="1.00" d=" M 207.22 228.21 C 210.77 227.64 215.24 230.19 212.89 234.78 C 208.53 238.28 202.07 232.95 207.22 228.21 Z" />
</g>
<g id="#353171ff">
<path fill="#353171" opacity="1.00" d=" M 140.68 235.66 C 144.04 233.57 148.95 235.62 152.74 235.11 C 158.26 243.08 142.87 241.59 145.82 250.00 L 100.85 250.00 C 98.29 240.18 109.33 241.24 115.35 241.52 C 121.25 242.85 127.60 239.79 133.03 243.01 C 139.11 245.61 141.08 240.52 140.68 235.66 Z" />
</g>
<g id="#8d3e44ff">
<path fill="#8d3e44" opacity="1.00" d=" M 235.28 235.73 C 237.24 240.16 235.46 245.32 236.00 250.00 L 234.97 250.00 C 235.02 245.24 235.13 240.47 235.28 235.73 Z" />
</g>
<g id="#191636ff">
<path fill="#191636" opacity="1.00" d=" M 29.85 250.00 C 27.18 238.76 38.20 244.87 43.98 243.14 C 48.74 242.49 56.75 243.25 52.97 250.00 L 29.85 250.00 Z" />
</g>
<g id="#1c193fff">
<path fill="#1c193f" opacity="1.00" d=" M 76.95 250.00 C 79.74 247.16 78.44 239.96 85.00 242.93 C 90.19 242.83 99.09 241.05 96.13 250.00 L 76.95 250.00 Z" />
</g>
</svg>
