<?xml version="1.0" encoding="UTF-8" ?>
<!DOCTYPE svg PUBLIC "-//W3C//DTD SVG 1.1//EN" "http://www.w3.org/Graphics/SVG/1.1/DTD/svg11.dtd">
<svg width="250pt" height="250pt" viewBox="0 0 250 250" version="1.1" xmlns="http://www.w3.org/2000/svg">
<g id="#f8c8c6ff">
<path fill="#f8c8c6" opacity="1.00" d=" M 0.00 0.00 L 131.83 0.00 C 131.62 2.18 132.06 4.53 130.88 6.50 C 127.16 5.75 121.87 7.79 124.73 12.35 L 124.81 13.26 C 119.96 14.06 115.01 13.58 110.16 14.26 C 109.48 14.67 108.79 15.06 108.10 15.43 C 72.08 14.33 36.00 14.97 0.00 15.05 L 0.00 0.00 Z" />
</g>
<g id="#ae9186ff">
<path fill="#ae9186" opacity="1.00" d=" M 131.83 0.00 L 132.90 0.00 C 132.93 1.76 132.99 5.28 133.02 7.05 L 132.83 7.88 C 131.55 7.90 130.26 7.94 128.98 8.00 C 126.38 8.02 124.31 9.55 124.73 12.35 C 121.87 7.79 127.16 5.75 130.88 6.50 C 132.06 4.53 131.62 2.18 131.83 0.00 Z" />
</g>
<g id="#705324ff">
<path fill="#705324" opacity="1.00" d=" M 132.90 0.00 L 133.91 0.00 C 132.13 5.39 134.74 6.70 139.01 6.08 L 139.20 6.96 C 137.21 7.80 135.05 7.49 133.02 7.05 C 132.99 5.28 132.93 1.76 132.90 0.00 Z" />
</g>
<g id="#080804ff">
<path fill="#080804" opacity="1.00" d=" M 133.91 0.00 L 138.97 0.00 C 138.98 2.03 138.99 4.05 139.01 6.08 C 134.74 6.70 132.13 5.39 133.91 0.00 Z" />
</g>
<g id="#957779ff">
<path fill="#957779" opacity="1.00" d=" M 138.97 0.00 L 139.90 0.00 C 133.88 10.24 150.16 3.91 146.89 8.87 C 144.61 8.55 142.33 8.26 140.05 7.99 C 139.83 7.73 139.41 7.22 139.20 6.96 L 139.01 6.08 C 138.99 4.05 138.98 2.03 138.97 0.00 Z" />
</g>
<g id="#f8c8c5ff">
<path fill="#f8c8c5" opacity="1.00" d=" M 139.90 0.00 L 250.00 0.00 L 250.00 15.00 C 225.69 14.91 201.38 15.18 177.07 14.87 C 167.12 13.26 157.02 14.18 147.00 14.01 C 146.79 12.30 146.51 10.58 146.89 8.87 C 150.16 3.91 133.88 10.24 139.90 0.00 Z" />
</g>
<g id="#efd107ff">
<path fill="#efd107" opacity="1.00" d=" M 133.02 7.05 C 135.05 7.49 137.21 7.80 139.20 6.96 C 144.07 17.29 128.33 15.79 132.83 7.88 L 133.02 7.05 Z" />
</g>
<g id="#7c710eff">
<path fill="#7c710e" opacity="1.00" d=" M 139.20 6.96 C 139.41 7.22 139.83 7.73 140.05 7.99 L 140.05 8.89 C 138.98 13.12 140.82 15.03 145.08 14.01 C 145.56 14.01 146.52 14.01 147.00 14.01 L 146.94 14.96 C 141.28 13.62 138.19 14.86 140.05 21.06 L 139.18 21.18 L 139.12 20.09 C 138.67 17.26 140.39 11.81 133.98 14.96 C 129.94 15.43 131.69 9.79 128.98 8.00 C 130.26 7.94 131.55 7.90 132.83 7.88 C 128.33 15.79 144.07 17.29 139.20 6.96 Z" />
</g>
<g id="#080706ff">
<path fill="#080706" opacity="1.00" d=" M 124.73 12.35 C 124.31 9.55 126.38 8.02 128.98 8.00 C 131.69 9.79 129.94 15.43 133.98 14.96 C 140.39 11.81 138.67 17.26 139.12 20.09 C 129.70 19.97 120.28 19.92 110.86 20.11 C 108.03 10.08 123.52 18.76 124.81 13.26 L 124.73 12.35 Z" />
</g>
<g id="#543a47ff">
<path fill="#543a47" opacity="1.00" d=" M 140.05 7.99 C 142.33 8.26 144.61 8.55 146.89 8.87 C 146.51 10.58 146.79 12.30 147.00 14.01 C 146.52 14.01 145.56 14.01 145.08 14.01 C 145.92 9.94 144.15 8.05 140.05 8.89 L 140.05 7.99 Z" />
</g>
<g id="#090904ff">
<path fill="#090904" opacity="1.00" d=" M 140.05 8.89 C 144.15 8.05 145.92 9.94 145.08 14.01 C 140.82 15.03 138.98 13.12 140.05 8.89 Z" />
</g>
<g id="#836264ff">
<path fill="#836264" opacity="1.00" d=" M 110.16 14.26 C 115.01 13.58 119.96 14.06 124.81 13.26 C 123.52 18.76 108.03 10.08 110.86 20.11 L 110.80 21.22 C 110.60 20.93 110.20 20.36 110.00 20.07 C 110.00 18.13 110.04 16.19 110.16 14.26 Z" />
</g>
<g id="#f9bebcff">
<path fill="#f9bebc" opacity="1.00" d=" M 0.00 15.05 C 36.00 14.97 72.08 14.33 108.10 15.43 C 108.79 15.06 109.48 14.67 110.16 14.26 C 110.04 16.19 110.00 18.13 110.00 20.07 C 102.82 21.09 92.59 18.09 94.08 29.09 C 90.10 30.05 83.91 27.21 80.76 29.79 C 81.53 34.88 79.60 36.96 74.99 36.04 C 71.35 35.72 72.77 40.48 72.72 42.75 C 70.07 42.89 67.44 43.12 64.90 43.89 C 43.27 44.14 21.63 43.93 0.00 44.00 L 0.00 15.05 Z" />
</g>
<g id="#8d6967ff">
<path fill="#8d6967" opacity="1.00" d=" M 147.00 14.01 C 157.02 14.18 167.12 13.26 177.07 14.87 C 172.92 26.07 184.72 20.81 190.79 22.17 C 192.01 24.24 192.01 26.66 192.04 28.98 C 191.54 28.98 190.55 28.99 190.05 28.99 C 193.36 19.84 182.09 22.47 176.97 23.90 C 176.48 22.97 175.98 22.03 175.48 21.10 C 175.38 19.66 175.22 18.24 175.02 16.81 C 169.30 12.21 156.25 16.40 147.92 15.00 L 146.94 14.96 L 147.00 14.01 Z" />
</g>
<g id="#fbd702ff">
<path fill="#fbd702" opacity="1.00" d=" M 140.05 21.06 C 138.19 14.86 141.28 13.62 146.94 14.96 C 146.93 17.00 146.88 19.05 146.96 21.09 C 147.00 21.55 147.07 22.46 147.10 22.91 C 156.32 23.35 165.58 22.56 174.79 23.13 C 175.92 24.92 176.61 26.93 176.86 29.14 C 180.68 32.82 194.86 24.92 191.23 36.25 C 184.01 38.24 175.02 33.88 169.01 37.01 C 168.56 39.28 167.66 41.87 168.90 44.04 C 170.92 47.33 180.02 41.48 176.02 50.01 C 173.74 56.98 181.99 74.07 169.88 72.89 C 167.81 69.34 168.97 64.45 163.22 67.00 C 163.93 61.80 161.00 57.14 161.56 51.98 C 159.90 52.01 156.59 52.08 154.93 52.11 C 154.63 51.83 154.04 51.27 153.75 50.98 C 152.63 46.13 157.29 36.48 149.77 37.51 C 144.79 37.87 148.76 28.47 143.34 29.42 C 138.98 30.93 130.74 25.99 132.88 34.97 C 127.31 38.19 117.44 33.85 110.77 36.75 C 110.56 38.30 110.15 41.39 109.94 42.93 C 104.40 41.26 100.52 43.58 101.68 49.71 C 98.14 52.20 92.72 51.49 88.54 53.11 C 88.47 57.50 87.32 61.78 86.08 65.98 C 84.44 66.56 80.17 64.81 81.21 67.80 L 81.30 68.70 C 82.63 75.52 70.79 70.86 73.24 77.59 C 71.75 81.46 62.44 81.79 66.37 75.48 C 66.93 72.30 63.89 66.70 68.44 66.57 C 74.72 69.32 74.15 54.74 68.62 59.46 C 66.45 59.23 67.78 54.35 67.74 52.09 C 69.15 52.09 70.56 52.05 71.97 51.97 C 74.62 51.72 77.27 51.37 79.94 51.52 C 81.23 49.05 80.31 42.29 85.12 43.69 C 87.93 44.64 88.30 41.61 87.44 39.68 C 85.85 35.52 93.16 39.33 95.25 37.31 C 98.62 34.15 105.16 38.20 102.05 30.02 C 104.64 30.05 107.22 29.98 109.80 29.82 C 112.19 29.57 114.58 29.25 116.97 28.86 C 112.88 15.34 137.46 28.73 140.05 21.06 Z" />
</g>
<g id="#867406ff">
<path fill="#867406" opacity="1.00" d=" M 146.94 14.96 L 147.92 15.00 C 148.31 16.65 147.28 19.11 148.79 20.22 C 157.39 21.93 166.64 20.61 175.48 21.10 C 166.14 21.91 156.14 23.42 146.96 21.09 C 146.88 19.05 146.93 17.00 146.94 14.96 Z" />
</g>
<g id="#060706ff">
<path fill="#060706" opacity="1.00" d=" M 147.92 15.00 C 156.25 16.40 169.30 12.21 175.02 16.81 C 170.03 24.20 157.14 18.23 148.79 20.22 C 147.28 19.11 148.31 16.65 147.92 15.00 Z" />
</g>
<g id="#f8bdbbff">
<path fill="#f8bdbb" opacity="1.00" d=" M 177.07 14.87 C 201.38 15.18 225.69 14.91 250.00 15.00 L 250.00 44.00 C 235.67 44.00 221.35 44.00 207.03 44.00 C 207.91 39.53 207.47 34.15 201.09 35.85 C 197.37 35.74 200.80 29.38 197.95 29.06 C 195.98 28.93 194.01 28.97 192.04 28.98 C 192.01 26.66 192.01 24.24 190.79 22.17 C 184.72 20.81 172.92 26.07 177.07 14.87 Z" />
</g>
<g id="#32280aff">
<path fill="#32280a" opacity="1.00" d=" M 148.79 20.22 C 157.14 18.23 170.03 24.20 175.02 16.81 C 175.22 18.24 175.38 19.66 175.48 21.10 C 166.64 20.61 157.39 21.93 148.79 20.22 Z" />
</g>
<g id="#b78681ff">
<path fill="#b78681" opacity="1.00" d=" M 94.08 29.09 C 92.59 18.09 102.82 21.09 110.00 20.07 C 110.20 20.36 110.60 20.93 110.80 21.22 L 111.31 22.02 C 110.95 22.29 110.22 22.83 109.86 23.09 C 104.59 22.81 93.29 19.57 95.92 28.90 C 95.61 29.18 95.00 29.73 94.70 30.00 L 93.87 29.98 L 94.08 29.09 Z" />
</g>
<g id="#312905ff">
<path fill="#312905" opacity="1.00" d=" M 110.86 20.11 C 120.28 19.92 129.70 19.97 139.12 20.09 L 139.18 21.18 C 129.72 20.98 120.26 20.83 110.80 21.22 L 110.86 20.11 Z" />
</g>
<g id="#7d6f08ff">
<path fill="#7d6f08" opacity="1.00" d=" M 110.80 21.22 C 120.26 20.83 129.72 20.98 139.18 21.18 C 129.97 22.70 120.59 21.80 111.31 22.02 L 110.80 21.22 Z" />
</g>
<g id="#cab014ff">
<path fill="#cab014" opacity="1.00" d=" M 139.18 21.18 L 140.05 21.06 C 137.46 28.73 112.88 15.34 116.97 28.86 C 114.58 29.25 112.19 29.57 109.80 29.82 L 109.99 28.95 L 110.22 28.08 C 111.65 27.04 111.53 25.03 110.31 23.89 L 109.86 23.09 C 110.22 22.83 110.95 22.29 111.31 22.02 C 120.59 21.80 129.97 22.70 139.18 21.18 Z" />
</g>
<g id="#c4aa10ff">
<path fill="#c4aa10" opacity="1.00" d=" M 146.96 21.09 C 156.14 23.42 166.14 21.91 175.48 21.10 C 175.98 22.03 176.48 22.97 176.97 23.90 C 176.92 25.35 176.89 26.80 176.86 28.24 L 176.86 29.14 C 176.61 26.93 175.92 24.92 174.79 23.13 C 165.58 22.56 156.32 23.35 147.10 22.91 C 147.07 22.46 147.00 21.55 146.96 21.09 Z" />
</g>
<g id="#2c271eff">
<path fill="#2c271e" opacity="1.00" d=" M 95.92 28.90 C 93.29 19.57 104.59 22.81 109.86 23.09 L 110.31 23.89 C 106.28 25.43 94.98 20.26 97.03 27.93 C 101.42 28.05 105.82 28.02 110.22 28.08 L 109.99 28.95 C 105.29 28.98 100.61 28.98 95.92 28.90 Z" />
</g>
<g id="#13100aff">
<path fill="#13100a" opacity="1.00" d=" M 176.97 23.90 C 182.09 22.47 193.36 19.84 190.05 28.99 C 185.67 28.82 181.14 29.45 176.86 28.24 C 176.89 26.80 176.92 25.35 176.97 23.90 Z" />
</g>
<g id="#020101ff">
<path fill="#020101" opacity="1.00" d=" M 97.03 27.93 C 94.98 20.26 106.28 25.43 110.31 23.89 C 109.70 25.28 109.67 26.67 110.22 28.08 C 105.82 28.02 101.42 28.05 97.03 27.93 Z" />
</g>
<g id="#655511ff">
<path fill="#655511" opacity="1.00" d=" M 110.31 23.89 C 111.53 25.03 111.65 27.04 110.22 28.08 C 109.67 26.67 109.70 25.28 110.31 23.89 Z" />
</g>
<g id="#8a7711ff">
<path fill="#8a7711" opacity="1.00" d=" M 176.86 28.24 C 181.14 29.45 185.67 28.82 190.05 28.99 C 190.55 28.99 191.54 28.98 192.04 28.98 L 192.03 29.95 C 190.78 33.85 193.37 36.78 197.22 35.24 L 197.94 35.10 C 198.04 38.75 202.96 36.26 205.30 37.61 C 196.87 35.04 196.63 53.23 205.18 50.14 L 205.08 50.82 C 204.84 51.05 204.37 51.53 204.13 51.77 C 194.38 54.88 200.03 42.22 197.16 37.71 C 195.19 37.18 193.21 36.70 191.23 36.25 C 194.86 24.92 180.68 32.82 176.86 29.14 L 176.86 28.24 Z" />
</g>
<g id="#695245ff">
<path fill="#695245" opacity="1.00" d=" M 80.76 29.79 C 83.91 27.21 90.10 30.05 94.08 29.09 L 93.87 29.98 C 89.91 29.94 85.96 29.98 82.02 30.09 C 78.96 36.20 83.76 35.77 87.21 36.19 C 85.68 36.40 82.63 36.82 81.10 37.03 C 81.02 35.22 80.85 31.60 80.76 29.79 Z" />
</g>
<g id="#8a760cff">
<path fill="#8a760c" opacity="1.00" d=" M 94.70 30.00 C 95.00 29.73 95.61 29.18 95.92 28.90 C 100.61 28.98 105.29 28.98 109.99 28.95 L 109.80 29.82 C 107.22 29.98 104.64 30.05 102.05 30.02 C 98.59 29.53 95.05 29.08 95.84 33.29 C 95.46 32.20 95.07 31.10 94.70 30.00 Z" />
</g>
<g id="#ceb51aff">
<path fill="#ceb51a" opacity="1.00" d=" M 132.88 34.97 C 130.74 25.99 138.98 30.93 143.34 29.42 C 148.76 28.47 144.79 37.87 149.77 37.51 C 157.29 36.48 152.63 46.13 153.75 50.98 C 151.81 51.00 149.86 51.03 147.93 51.05 C 149.93 40.64 140.24 44.21 134.25 43.80 C 130.95 42.51 134.24 38.68 131.71 37.16 C 124.73 36.88 117.75 36.93 110.77 36.75 C 117.44 33.85 127.31 38.19 132.88 34.97 Z" />
<path fill="#ceb51a" opacity="1.00" d=" M 95.84 33.29 C 95.05 29.08 98.59 29.53 102.05 30.02 C 105.16 38.20 98.62 34.15 95.25 37.31 C 95.47 36.26 95.64 35.20 95.77 34.13 L 95.84 33.29 Z" />
</g>
<g id="#533c45ff">
<path fill="#533c45" opacity="1.00" d=" M 192.04 28.98 C 194.01 28.97 195.98 28.93 197.95 29.06 C 197.98 31.07 197.97 33.09 197.94 35.10 L 197.22 35.24 C 197.90 31.12 196.27 28.95 192.03 29.95 L 192.04 28.98 Z" />
</g>
<g id="#b68e88ff">
<path fill="#b68e88" opacity="1.00" d=" M 197.95 29.06 C 200.80 29.38 197.37 35.74 201.09 35.85 C 207.47 34.15 207.91 39.53 207.03 44.00 C 203.51 52.67 210.04 49.48 213.92 52.27 C 213.40 58.57 217.64 70.00 207.11 67.18 C 207.03 68.65 206.88 71.59 206.81 73.06 L 206.10 72.79 C 206.06 71.12 206.00 67.79 205.96 66.12 C 215.51 69.26 213.92 57.96 212.33 52.61 C 210.78 52.43 207.68 52.07 206.13 51.88 C 205.86 51.62 205.34 51.08 205.08 50.82 L 205.18 50.14 C 205.52 46.12 207.31 41.46 205.30 37.61 C 202.96 36.26 198.04 38.75 197.94 35.10 C 197.97 33.09 197.98 31.07 197.95 29.06 Z" />
</g>
<g id="#aa827cff">
<path fill="#aa827c" opacity="1.00" d=" M 74.99 36.04 C 79.60 36.96 81.53 34.88 80.76 29.79 C 80.85 31.60 81.02 35.22 81.10 37.03 L 81.08 37.89 C 76.13 35.73 71.94 37.41 73.94 43.90 C 73.67 44.13 73.12 44.58 72.85 44.81 C 67.39 43.04 66.42 45.93 66.93 50.04 L 66.75 50.84 C 66.52 51.12 66.06 51.69 65.84 51.97 C 65.41 51.97 64.56 51.96 64.13 51.96 C 62.82 52.34 60.29 51.15 59.83 52.86 C 60.11 58.04 57.26 59.35 52.87 59.96 C 52.57 64.81 52.46 69.33 45.85 66.98 C 41.94 66.26 44.55 71.76 43.89 74.19 C 43.63 73.88 43.12 73.27 42.87 72.96 C 37.55 62.58 50.43 68.35 50.71 62.58 C 47.74 55.10 56.19 60.37 57.56 56.61 C 55.38 50.04 61.02 50.31 64.85 50.89 C 65.66 48.60 65.41 46.21 64.90 43.89 C 67.44 43.12 70.07 42.89 72.72 42.75 C 72.77 40.48 71.35 35.72 74.99 36.04 Z" />
</g>
<g id="#131008ff">
<path fill="#131008" opacity="1.00" d=" M 82.02 30.09 C 85.96 29.98 89.91 29.94 93.87 29.98 L 94.70 30.00 C 95.07 31.10 95.46 32.20 95.84 33.29 L 95.77 34.13 C 93.82 35.05 91.75 35.68 89.68 36.26 C 89.06 36.25 87.83 36.21 87.21 36.19 C 83.76 35.77 78.96 36.20 82.02 30.09 Z" />
</g>
<g id="#0c0c07ff">
<path fill="#0c0c07" opacity="1.00" d=" M 192.03 29.95 C 196.27 28.95 197.90 31.12 197.22 35.24 C 193.37 36.78 190.78 33.85 192.03 29.95 Z" />
</g>
<g id="#7d7209ff">
<path fill="#7d7209" opacity="1.00" d=" M 89.68 36.26 C 91.75 35.68 93.82 35.05 95.77 34.13 C 95.64 35.20 95.47 36.26 95.25 37.31 C 93.37 37.09 91.51 36.74 89.68 36.26 Z" />
</g>
<g id="#c8b018ff">
<path fill="#c8b018" opacity="1.00" d=" M 87.21 36.19 C 87.83 36.21 89.06 36.25 89.68 36.26 C 91.51 36.74 93.37 37.09 95.25 37.31 C 93.16 39.33 85.85 35.52 87.44 39.68 C 88.30 41.61 87.93 44.64 85.12 43.69 C 80.31 42.29 81.23 49.05 79.94 51.52 C 77.27 51.37 74.62 51.72 71.97 51.97 C 73.63 50.22 74.81 47.86 73.18 45.64 L 72.85 44.81 C 73.12 44.58 73.67 44.13 73.94 43.90 C 79.64 45.38 83.03 44.30 81.08 37.89 L 81.10 37.03 C 82.63 36.82 85.68 36.40 87.21 36.19 Z" />
</g>
<g id="#c9b017ff">
<path fill="#c9b017" opacity="1.00" d=" M 169.01 37.01 C 175.02 33.88 184.01 38.24 191.23 36.25 C 193.21 36.70 195.19 37.18 197.16 37.71 C 191.53 35.63 192.44 39.43 189.29 41.42 C 193.42 44.83 189.75 53.08 197.31 52.70 C 195.62 62.04 210.34 60.07 204.13 51.77 C 204.37 51.53 204.84 51.05 205.08 50.82 C 205.34 51.08 205.86 51.62 206.13 51.88 C 206.15 53.73 206.20 57.42 206.23 59.26 C 206.19 59.92 206.12 61.23 206.08 61.88 C 206.03 63.29 205.99 64.71 205.96 66.12 C 196.18 70.39 201.78 60.54 196.55 58.54 C 185.84 60.09 196.74 43.60 187.79 43.72 C 184.18 44.55 183.40 40.87 183.16 37.78 C 178.83 36.28 173.70 37.16 169.01 37.01 Z" />
</g>
<g id="#332819ff">
<path fill="#332819" opacity="1.00" d=" M 73.94 43.90 C 71.94 37.41 76.13 35.73 81.08 37.89 C 83.03 44.30 79.64 45.38 73.94 43.90 Z" />
</g>
<g id="#6d5c10ff">
<path fill="#6d5c10" opacity="1.00" d=" M 109.94 42.93 C 110.15 41.39 110.56 38.30 110.77 36.75 C 117.75 36.93 124.73 36.88 131.71 37.16 C 134.24 38.68 130.95 42.51 134.25 43.80 C 140.24 44.21 149.93 40.64 147.93 51.05 C 147.47 51.03 146.54 51.00 146.08 50.99 C 148.10 42.74 138.49 45.04 133.18 44.87 C 132.66 44.61 131.61 44.11 131.09 43.85 C 133.54 32.47 117.33 40.10 111.14 38.08 C 111.10 39.54 111.01 42.47 110.96 43.93 L 110.01 43.92 L 109.94 42.93 Z" />
</g>
<g id="#6f5e0fff">
<path fill="#6f5e0f" opacity="1.00" d=" M 169.01 37.01 C 173.70 37.16 178.83 36.28 183.16 37.78 C 178.77 37.91 174.39 37.79 170.02 38.10 C 166.54 44.65 172.17 42.56 174.96 42.99 L 175.11 43.86 C 173.04 43.94 170.97 44.02 168.90 44.04 C 167.66 41.87 168.56 39.28 169.01 37.01 Z" />
</g>
<g id="#070607ff">
<path fill="#070607" opacity="1.00" d=" M 111.14 38.08 C 117.33 40.10 133.54 32.47 131.09 43.85 C 129.41 43.90 127.73 43.95 126.05 44.01 C 121.02 44.01 115.99 44.08 110.96 43.93 C 111.01 42.47 111.10 39.54 111.14 38.08 Z" />
</g>
<g id="#050503ff">
<path fill="#050503" opacity="1.00" d=" M 170.02 38.10 C 174.39 37.79 178.77 37.91 183.16 37.78 C 180.29 44.59 185.37 44.84 189.94 46.20 C 190.01 50.05 190.04 53.91 190.04 57.76 C 174.90 53.38 191.17 75.94 178.04 73.04 C 177.78 63.06 178.35 53.07 177.89 43.10 C 177.16 43.07 175.70 43.02 174.96 42.99 C 172.17 42.56 166.54 44.65 170.02 38.10 Z" />
<path fill="#050503" opacity="1.00" d=" M 206.23 59.26 C 205.86 54.60 207.64 51.95 212.33 52.61 C 213.46 57.59 212.03 69.34 206.08 61.88 C 206.12 61.23 206.19 59.92 206.23 59.26 Z" />
</g>
<g id="#6f5a17ff">
<path fill="#6f5a17" opacity="1.00" d=" M 183.16 37.78 C 183.40 40.87 184.18 44.55 187.79 43.72 C 196.74 43.60 185.84 60.09 196.55 58.54 C 201.78 60.54 196.18 70.39 205.96 66.12 C 206.00 67.79 206.06 71.12 206.10 72.79 C 205.80 72.67 205.19 72.44 204.89 72.32 C 205.80 67.74 204.57 64.90 198.71 67.22 C 198.56 66.68 198.27 65.61 198.13 65.08 C 199.08 60.72 195.62 59.11 191.87 60.09 C 191.26 59.31 190.65 58.54 190.04 57.76 C 190.04 53.91 190.01 50.05 189.94 46.20 C 185.37 44.84 180.29 44.59 183.16 37.78 Z" />
</g>
<g id="#f6d405ff">
<path fill="#f6d405" opacity="1.00" d=" M 189.29 41.42 C 192.44 39.43 191.53 35.63 197.16 37.71 C 200.03 42.22 194.38 54.88 204.13 51.77 C 210.34 60.07 195.62 62.04 197.31 52.70 C 189.75 53.08 193.42 44.83 189.29 41.42 Z" />
</g>
<g id="#14100aff">
<path fill="#14100a" opacity="1.00" d=" M 205.18 50.14 C 196.63 53.23 196.87 35.04 205.30 37.61 C 205.21 41.79 205.17 45.96 205.18 50.14 Z" />
</g>
<g id="#6b4c4cff">
<path fill="#6b4c4c" opacity="1.00" d=" M 205.30 37.61 C 207.31 41.46 205.52 46.12 205.18 50.14 C 205.17 45.96 205.21 41.79 205.30 37.61 Z" />
</g>
<g id="#caaf15ff">
<path fill="#caaf15" opacity="1.00" d=" M 101.68 49.71 C 100.52 43.58 104.40 41.26 109.94 42.93 L 110.01 43.92 C 102.71 41.08 102.83 47.57 102.22 52.29 C 100.63 52.43 97.46 52.71 95.87 52.86 C 94.92 55.16 95.29 59.85 91.86 58.31 C 86.69 56.78 90.39 66.78 86.08 65.98 C 87.32 61.78 88.47 57.50 88.54 53.11 C 92.72 51.49 98.14 52.20 101.68 49.71 Z" />
</g>
<g id="#3b3108ff">
<path fill="#3b3108" opacity="1.00" d=" M 174.96 42.99 C 175.70 43.02 177.16 43.07 177.89 43.10 C 178.35 53.07 177.78 63.06 178.04 73.04 L 177.14 73.08 C 176.74 63.49 177.41 53.87 176.84 44.30 C 176.41 44.19 175.54 43.97 175.11 43.86 L 174.96 42.99 Z" />
</g>
<g id="#fbb7b4ff">
<path fill="#fbb7b4" opacity="1.00" d=" M 0.00 44.00 C 21.63 43.93 43.27 44.14 64.90 43.89 C 65.41 46.21 65.66 48.60 64.85 50.89 C 61.02 50.31 55.38 50.04 57.56 56.61 C 56.19 60.37 47.74 55.10 50.71 62.58 C 50.43 68.35 37.55 62.58 42.87 72.96 C 30.08 74.37 16.98 73.31 4.08 73.33 C 2.57 73.36 1.33 74.44 0.00 75.05 L 0.00 44.00 Z" />
<path fill="#fbb7b4" opacity="1.00" d=" M 207.03 44.00 C 221.35 44.00 235.67 44.00 250.00 44.00 L 250.00 72.83 C 238.09 74.56 225.84 73.21 213.89 73.16 C 211.61 72.17 209.14 72.47 206.81 73.06 C 206.88 71.59 207.03 68.65 207.11 67.18 C 217.64 70.00 213.40 58.57 213.92 52.27 C 210.04 49.48 203.51 52.67 207.03 44.00 Z" />
</g>
<g id="#77650fff">
<path fill="#77650f" opacity="1.00" d=" M 102.22 52.29 C 102.83 47.57 102.71 41.08 110.01 43.92 L 110.00 44.90 C 106.31 44.19 102.78 45.84 104.01 50.13 C 103.77 51.14 103.17 51.86 102.22 52.29 Z" />
</g>
<g id="#2c285fff">
<path fill="#2c285f" opacity="1.00" d=" M 110.01 43.92 L 110.96 43.93 C 115.99 44.08 121.02 44.01 126.05 44.01 C 122.05 48.63 125.04 59.85 132.10 58.95 C 135.42 61.88 132.05 66.83 130.20 69.90 C 133.06 73.64 140.20 73.49 139.48 79.59 C 141.08 82.92 145.17 81.42 147.98 81.04 C 146.96 83.56 146.79 88.27 143.09 87.99 C 139.60 87.65 140.05 83.76 138.70 81.41 C 130.28 83.96 133.31 68.77 125.04 74.03 C 122.08 74.02 117.64 75.20 116.48 71.58 C 119.15 63.71 107.27 66.79 110.83 72.89 C 110.39 76.91 105.36 74.56 102.53 74.60 C 95.46 70.30 98.39 80.95 93.01 81.02 C 84.26 81.52 91.76 97.54 80.89 95.90 C 77.96 95.86 74.32 97.08 72.74 94.02 C 70.46 86.93 75.97 86.53 80.94 86.81 C 80.99 82.84 80.97 78.87 80.87 74.90 C 81.16 74.38 81.74 73.35 82.03 72.83 C 86.44 74.31 89.14 71.34 88.02 66.99 C 88.53 66.75 89.55 66.28 90.06 66.04 C 92.17 65.87 94.95 66.48 95.82 63.96 C 97.61 67.23 101.22 69.61 103.64 72.41 C 114.62 78.29 106.72 58.17 115.64 60.14 C 117.96 65.08 116.26 75.22 124.76 72.91 C 127.12 67.69 126.36 56.40 118.10 58.90 C 115.30 57.94 119.72 45.79 111.66 50.67 C 102.53 49.41 105.45 62.78 96.04 59.05 L 96.04 58.08 C 101.35 59.50 103.41 57.57 102.22 52.29 C 103.17 51.86 103.77 51.14 104.01 50.13 C 108.17 52.92 111.34 49.18 110.00 44.90 L 110.01 43.92 Z" />
</g>
<g id="#35306fff">
<path fill="#35306f" opacity="1.00" d=" M 126.05 44.01 C 127.73 43.95 129.41 43.90 131.09 43.85 C 131.61 44.11 132.66 44.61 133.18 44.87 C 129.37 54.70 141.50 50.62 146.08 50.99 C 146.54 51.00 147.47 51.03 147.93 51.05 L 148.11 51.95 C 145.38 56.54 149.32 59.67 153.95 59.02 C 154.21 59.17 154.72 59.46 154.98 59.61 C 153.37 66.63 154.13 73.86 153.94 80.99 C 151.95 80.95 149.96 80.87 147.98 81.04 C 145.17 81.42 141.08 82.92 139.48 79.59 C 140.20 73.49 133.06 73.64 130.20 69.90 C 132.05 66.83 135.42 61.88 132.10 58.95 C 125.04 59.85 122.05 48.63 126.05 44.01 Z" />
</g>
<g id="#ad960cff">
<path fill="#ad960c" opacity="1.00" d=" M 168.90 44.04 C 170.97 44.02 173.04 43.94 175.11 43.86 C 175.54 43.97 176.41 44.19 176.84 44.30 C 177.41 53.87 176.74 63.49 177.14 73.08 C 176.86 73.33 176.29 73.85 176.01 74.11 C 174.28 74.09 170.82 74.07 169.08 74.05 C 169.28 73.76 169.68 73.18 169.88 72.89 C 181.99 74.07 173.74 56.98 176.02 50.01 C 180.02 41.48 170.92 47.33 168.90 44.04 Z" />
</g>
<g id="#181211ff">
<path fill="#181211" opacity="1.00" d=" M 66.93 50.04 C 66.42 45.93 67.39 43.04 72.85 44.81 L 73.18 45.64 C 73.24 49.50 70.45 50.77 66.93 50.04 Z" />
</g>
<g id="#14110aff">
<path fill="#14110a" opacity="1.00" d=" M 104.01 50.13 C 102.78 45.84 106.31 44.19 110.00 44.90 C 111.34 49.18 108.17 52.92 104.01 50.13 Z" />
</g>
<g id="#0f0d0fff">
<path fill="#0f0d0f" opacity="1.00" d=" M 133.18 44.87 C 138.49 45.04 148.10 42.74 146.08 50.99 C 141.50 50.62 129.37 54.70 133.18 44.87 Z" />
</g>
<g id="#7c6b0dff">
<path fill="#7c6b0d" opacity="1.00" d=" M 73.18 45.64 C 74.81 47.86 73.63 50.22 71.97 51.97 C 70.56 52.05 69.15 52.09 67.74 52.09 C 67.49 51.78 67.00 51.15 66.75 50.84 L 66.93 50.04 C 70.45 50.77 73.24 49.50 73.18 45.64 Z" />
</g>
<g id="#34306fff">
<path fill="#34306f" opacity="1.00" d=" M 111.66 50.67 C 119.72 45.79 115.30 57.94 118.10 58.90 C 126.36 56.40 127.12 67.69 124.76 72.91 C 116.26 75.22 117.96 65.08 115.64 60.14 C 106.72 58.17 114.62 78.29 103.64 72.41 C 101.22 69.61 97.61 67.23 95.82 63.96 C 95.88 62.63 95.94 61.30 95.99 59.97 L 96.04 59.05 C 105.45 62.78 102.53 49.41 111.66 50.67 Z" />
</g>
<g id="#ccb319ff">
<path fill="#ccb319" opacity="1.00" d=" M 65.84 51.97 C 66.06 51.69 66.52 51.12 66.75 50.84 C 67.00 51.15 67.49 51.78 67.74 52.09 C 67.78 54.35 66.45 59.23 68.62 59.46 C 74.15 54.74 74.72 69.32 68.44 66.57 C 63.89 66.70 66.93 72.30 66.37 75.48 C 62.44 81.79 71.75 81.46 73.24 77.59 C 73.73 78.85 73.49 80.18 73.23 81.46 C 71.64 81.53 68.48 81.66 66.90 81.72 C 65.18 87.67 69.41 98.66 59.07 94.96 C 59.04 85.72 58.64 76.44 59.14 67.21 C 61.70 66.49 65.20 67.33 66.85 64.70 C 67.00 60.42 66.28 56.20 65.84 51.97 Z" />
</g>
<g id="#74640eff">
<path fill="#74640e" opacity="1.00" d=" M 147.93 51.05 C 149.86 51.03 151.81 51.00 153.75 50.98 C 154.04 51.27 154.63 51.83 154.93 52.11 C 151.83 59.61 159.45 56.44 161.75 60.34 C 162.91 68.85 161.90 77.39 162.05 85.91 C 162.18 89.59 169.70 89.23 168.64 85.33 C 168.92 81.61 167.34 77.41 169.08 74.05 C 170.82 74.07 174.28 74.09 176.01 74.11 L 175.89 74.96 C 164.35 71.82 175.72 92.26 164.06 89.30 C 162.62 88.99 160.99 88.80 160.57 87.12 C 160.60 79.19 160.31 71.26 160.53 63.33 C 160.89 59.76 157.68 59.78 154.98 59.61 C 154.72 59.46 154.21 59.17 153.95 59.02 C 156.15 53.53 152.56 51.10 148.11 51.95 L 147.93 51.05 Z" />
</g>
<g id="#090706ff">
<path fill="#090706" opacity="1.00" d=" M 59.83 52.86 C 60.29 51.15 62.82 52.34 64.13 51.96 C 65.01 56.16 65.32 60.48 64.93 64.76 C 61.53 64.07 54.94 65.38 57.98 70.99 C 57.90 79.08 58.11 87.18 57.90 95.27 C 48.25 99.09 52.22 86.93 51.94 81.23 C 47.10 82.99 45.69 80.39 45.43 76.89 C 45.67 73.59 45.21 70.24 45.85 66.98 C 52.46 69.33 52.57 64.81 52.87 59.96 C 57.53 62.80 62.51 57.44 59.83 52.86 Z" />
</g>
<g id="#6e5b10ff">
<path fill="#6e5b10" opacity="1.00" d=" M 64.13 51.96 C 64.56 51.96 65.41 51.97 65.84 51.97 C 66.28 56.20 67.00 60.42 66.85 64.70 C 65.20 67.33 61.70 66.49 59.14 67.21 C 58.64 76.44 59.04 85.72 59.07 94.96 C 69.41 98.66 65.18 87.67 66.90 81.72 C 66.94 86.43 67.00 91.13 66.99 95.84 C 66.51 95.88 65.56 95.95 65.08 95.99 C 63.37 96.01 61.67 96.04 59.97 96.04 C 59.45 95.85 58.41 95.46 57.90 95.27 C 58.11 87.18 57.90 79.08 57.98 70.99 C 54.94 65.38 61.53 64.07 64.93 64.76 C 65.32 60.48 65.01 56.16 64.13 51.96 Z" />
</g>
<g id="#120f06ff">
<path fill="#120f06" opacity="1.00" d=" M 95.87 52.86 C 97.46 52.71 100.63 52.43 102.22 52.29 C 103.41 57.57 101.35 59.50 96.04 58.08 C 95.96 56.34 95.89 54.60 95.87 52.86 Z" />
</g>
<g id="#110f11ff">
<path fill="#110f11" opacity="1.00" d=" M 148.11 51.95 C 152.56 51.10 156.15 53.53 153.95 59.02 C 149.32 59.67 145.38 56.54 148.11 51.95 Z" />
</g>
<g id="#cbb219ff">
<path fill="#cbb219" opacity="1.00" d=" M 154.93 52.11 C 156.59 52.08 159.90 52.01 161.56 51.98 C 161.00 57.14 163.93 61.80 163.22 67.00 C 168.97 64.45 167.81 69.34 169.88 72.89 C 169.68 73.18 169.28 73.76 169.08 74.05 C 167.34 77.41 168.92 81.61 168.64 85.33 C 169.70 89.23 162.18 89.59 162.05 85.91 C 161.90 77.39 162.91 68.85 161.75 60.34 C 159.45 56.44 151.83 59.61 154.93 52.11 Z" />
</g>
<g id="#54421eff">
<path fill="#54421e" opacity="1.00" d=" M 206.13 51.88 C 207.68 52.07 210.78 52.43 212.33 52.61 C 207.64 51.95 205.86 54.60 206.23 59.26 C 206.20 57.42 206.15 53.73 206.13 51.88 Z" />
</g>
<g id="#593d41ff">
<path fill="#593d41" opacity="1.00" d=" M 52.87 59.96 C 57.26 59.35 60.11 58.04 59.83 52.86 C 62.51 57.44 57.53 62.80 52.87 59.96 Z" />
</g>
<g id="#756510ff">
<path fill="#756510" opacity="1.00" d=" M 91.86 58.31 C 95.29 59.85 94.92 55.16 95.87 52.86 C 95.89 54.60 95.96 56.34 96.04 58.08 L 96.04 59.05 L 95.99 59.97 C 90.19 57.56 88.49 61.94 90.06 66.04 C 89.55 66.28 88.53 66.75 88.02 66.99 C 85.75 67.23 83.48 67.50 81.21 67.80 C 80.17 64.81 84.44 66.56 86.08 65.98 C 90.39 66.78 86.69 56.78 91.86 58.31 Z" />
</g>
<g id="#5c403eff">
<path fill="#5c403e" opacity="1.00" d=" M 212.33 52.61 C 213.92 57.96 215.51 69.26 205.96 66.12 C 205.99 64.71 206.03 63.29 206.08 61.88 C 212.03 69.34 213.46 57.59 212.33 52.61 Z" />
</g>
<g id="#2a2553ff">
<path fill="#2a2553" opacity="1.00" d=" M 178.04 73.04 C 191.17 75.94 174.90 53.38 190.04 57.76 C 190.65 58.54 191.26 59.31 191.87 60.09 C 190.78 64.44 194.05 67.85 198.13 65.08 C 198.27 65.61 198.56 66.68 198.71 67.22 C 198.03 71.39 200.78 74.61 204.89 72.32 C 205.19 72.44 205.80 72.67 206.10 72.79 L 206.81 73.06 C 208.16 73.47 210.87 74.30 212.22 74.71 C 203.12 71.83 206.22 81.72 205.18 86.92 C 206.94 87.01 210.48 87.19 212.24 87.28 C 205.19 85.59 205.66 90.51 206.00 95.26 C 205.26 95.29 204.52 95.30 203.78 95.27 C 207.32 88.90 200.31 86.50 198.12 81.79 C 192.37 77.12 173.02 87.99 175.89 74.96 L 176.01 74.11 C 176.29 73.85 176.86 73.33 177.14 73.08 L 178.04 73.04 Z" />
</g>
<g id="#100e15ff">
<path fill="#100e15" opacity="1.00" d=" M 90.06 66.04 C 88.49 61.94 90.19 57.56 95.99 59.97 C 95.94 61.30 95.88 62.63 95.82 63.96 C 94.95 66.48 92.17 65.87 90.06 66.04 Z" />
</g>
<g id="#0b090cff">
<path fill="#0b090c" opacity="1.00" d=" M 153.94 80.99 C 154.13 73.86 153.37 66.63 154.98 59.61 C 157.68 59.78 160.89 59.76 160.53 63.33 C 160.31 71.26 160.60 79.19 160.57 87.12 C 156.39 88.08 151.33 87.43 153.94 80.99 Z" />
</g>
<g id="#0f0e0dff">
<path fill="#0f0e0d" opacity="1.00" d=" M 191.87 60.09 C 195.62 59.11 199.08 60.72 198.13 65.08 C 194.05 67.85 190.78 64.44 191.87 60.09 Z" />
</g>
<g id="#5f4246ff">
<path fill="#5f4246" opacity="1.00" d=" M 43.89 74.19 C 44.55 71.76 41.94 66.26 45.85 66.98 C 45.21 70.24 45.67 73.59 45.43 76.89 C 44.96 78.46 45.44 81.05 43.18 81.14 C 43.49 78.83 43.73 76.51 43.89 74.19 Z" />
</g>
<g id="#0a090aff">
<path fill="#0a090a" opacity="1.00" d=" M 81.21 67.80 C 83.48 67.50 85.75 67.23 88.02 66.99 C 89.14 71.34 86.44 74.31 82.03 72.83 C 81.83 71.45 81.58 70.07 81.30 68.70 L 81.21 67.80 Z" />
</g>
<g id="#28214eff">
<path fill="#28214e" opacity="1.00" d=" M 110.83 72.89 C 107.27 66.79 119.15 63.71 116.48 71.58 C 117.64 75.20 122.08 74.02 125.04 74.03 C 118.21 72.45 116.66 77.42 112.89 80.96 C 107.45 79.44 101.80 80.69 103.23 86.95 C 113.20 87.08 123.18 87.12 133.16 86.87 C 133.55 89.56 133.82 92.27 134.11 94.97 L 133.12 95.01 C 133.61 91.18 133.04 85.29 127.00 87.96 C 119.13 88.29 110.98 87.16 103.27 89.24 C 105.44 96.31 100.90 96.47 95.86 95.95 C 91.02 94.11 87.09 96.34 87.67 101.20 C 88.15 96.25 85.89 94.48 80.89 95.90 C 91.76 97.54 84.26 81.52 93.01 81.02 C 98.39 80.95 95.46 70.30 102.53 74.60 C 105.36 74.56 110.39 76.91 110.83 72.89 M 90.23 88.13 C 80.76 97.63 109.09 99.44 101.31 88.69 C 97.93 87.85 93.85 88.58 90.23 88.13 Z" />
</g>
<g id="#0f0b11ff">
<path fill="#0f0b11" opacity="1.00" d=" M 198.71 67.22 C 204.57 64.90 205.80 67.74 204.89 72.32 C 200.78 74.61 198.03 71.39 198.71 67.22 Z" />
</g>
<g id="#7b6b0eff">
<path fill="#7b6b0e" opacity="1.00" d=" M 81.30 68.70 C 81.58 70.07 81.83 71.45 82.03 72.83 C 81.74 73.35 81.16 74.38 80.87 74.90 C 73.02 71.67 77.00 79.29 73.23 81.46 C 73.49 80.18 73.73 78.85 73.24 77.59 C 70.79 70.86 82.63 75.52 81.30 68.70 Z" />
</g>
<g id="#bb8984ff">
<path fill="#bb8984" opacity="1.00" d=" M 206.81 73.06 C 209.14 72.47 211.61 72.17 213.89 73.16 C 214.18 77.69 214.34 82.23 214.61 86.76 C 213.95 90.55 209.65 89.18 207.02 89.04 C 203.94 96.18 209.43 94.43 213.32 95.68 L 212.15 95.85 C 210.36 95.96 208.57 96.04 206.79 96.10 L 206.00 96.11 L 206.00 95.26 C 205.66 90.51 205.19 85.59 212.24 87.28 C 213.03 83.55 214.29 78.38 212.22 74.71 C 210.87 74.30 208.16 73.47 206.81 73.06 Z" />
</g>
<g id="#fbaba8ff">
<path fill="#fbaba8" opacity="1.00" d=" M 0.00 75.05 C 1.33 74.44 2.57 73.36 4.08 73.33 C 16.98 73.31 30.08 74.37 42.87 72.96 C 43.12 73.27 43.63 73.88 43.89 74.19 C 43.73 76.51 43.49 78.83 43.18 81.14 C 33.81 77.74 36.76 89.62 36.84 95.06 C 33.69 93.75 31.42 93.98 30.04 95.76 C 30.88 101.52 27.59 103.64 23.10 102.41 C 15.53 104.15 7.73 104.16 0.00 104.01 L 0.00 75.05 Z" />
</g>
<g id="#1d193dff">
<path fill="#1d193d" opacity="1.00" d=" M 125.04 74.03 C 133.31 68.77 130.28 83.96 138.70 81.41 C 140.05 83.76 139.60 87.65 143.09 87.99 C 146.79 88.27 146.96 83.56 147.98 81.04 C 149.96 80.87 151.95 80.95 153.94 80.99 C 151.33 87.43 156.39 88.08 160.57 87.12 C 160.99 88.80 162.62 88.99 164.06 89.30 C 160.18 90.03 164.38 94.35 161.71 95.81 C 156.07 96.60 146.41 92.77 148.37 102.26 C 149.44 96.53 148.21 92.87 141.76 94.77 C 143.62 94.06 146.32 94.09 147.22 92.01 C 144.04 87.60 137.33 90.07 133.16 86.87 C 132.85 76.54 120.06 82.21 112.89 80.96 C 116.66 77.42 118.21 72.45 125.04 74.03 Z" />
</g>
<g id="#fdaca9ff">
<path fill="#fdaca9" opacity="1.00" d=" M 213.89 73.16 C 225.84 73.21 238.09 74.56 250.00 72.83 L 250.00 103.94 C 238.32 101.65 226.27 104.33 214.61 102.29 C 214.45 100.05 214.12 97.79 213.32 95.68 C 209.43 94.43 203.94 96.18 207.02 89.04 C 209.65 89.18 213.95 90.55 214.61 86.76 C 214.34 82.23 214.18 77.69 213.89 73.16 Z" />
</g>
<g id="#0b0a11ff">
<path fill="#0b0a11" opacity="1.00" d=" M 73.23 81.46 C 77.00 79.29 73.02 71.67 80.87 74.90 C 80.97 78.87 80.99 82.84 80.94 86.81 C 75.97 86.53 70.46 86.93 72.74 94.02 C 71.66 96.19 68.95 95.42 66.99 95.84 C 67.00 91.13 66.94 86.43 66.90 81.72 C 68.48 81.66 71.64 81.53 73.23 81.46 Z" />
</g>
<g id="#050406ff">
<path fill="#050406" opacity="1.00" d=" M 164.06 89.30 C 175.72 92.26 164.35 71.82 175.89 74.96 C 173.02 87.99 192.37 77.12 198.12 81.79 C 200.31 86.50 207.32 88.90 203.78 95.27 C 202.55 95.22 201.34 95.11 200.14 94.92 C 199.15 91.65 202.67 83.57 195.00 86.96 C 187.41 87.71 171.61 82.48 174.81 95.77 C 164.76 92.78 168.04 106.86 175.76 104.28 C 185.56 104.93 196.99 106.27 205.95 103.92 L 206.33 103.09 C 207.85 100.65 208.00 98.32 206.79 96.10 C 208.57 96.04 210.36 95.96 212.15 95.85 C 212.03 100.63 211.97 105.43 212.25 110.21 C 207.48 110.09 202.71 110.02 197.95 110.09 C 196.23 110.10 192.80 110.13 191.09 110.14 C 186.38 110.08 181.68 109.94 176.98 110.01 C 174.28 110.03 171.59 110.06 168.91 110.12 C 167.20 110.12 163.78 110.12 162.07 110.13 C 151.70 109.97 141.35 109.97 130.99 109.99 C 114.29 109.98 97.59 110.05 80.89 109.94 C 76.28 108.88 71.46 109.71 72.57 115.82 C 68.32 116.03 64.08 116.09 59.83 116.13 C 58.37 114.42 61.31 111.34 58.72 110.13 C 54.07 109.91 49.42 109.94 44.78 110.11 C 38.61 97.04 62.93 110.52 59.97 96.04 C 61.67 96.04 63.37 96.01 65.08 95.99 C 63.07 105.28 72.36 103.04 77.99 104.01 C 82.50 104.47 80.75 98.90 80.89 95.90 C 85.89 94.48 88.15 96.25 87.67 101.20 C 87.26 105.83 92.73 103.62 95.77 104.22 C 112.77 105.34 130.52 105.72 147.25 104.25 C 147.53 103.75 148.09 102.76 148.37 102.26 C 146.41 92.77 156.07 96.60 161.71 95.81 C 164.38 94.35 160.18 90.03 164.06 89.30 Z" />
</g>
<g id="#070508ff">
<path fill="#070508" opacity="1.00" d=" M 205.18 86.92 C 206.22 81.72 203.12 71.83 212.22 74.71 C 212.18 78.90 212.19 83.09 212.24 87.28 C 210.48 87.19 206.94 87.01 205.18 86.92 Z" />
</g>
<g id="#6b4a47ff">
<path fill="#6b4a47" opacity="1.00" d=" M 212.22 74.71 C 214.29 78.38 213.03 83.55 212.24 87.28 C 212.19 83.09 212.18 78.90 212.22 74.71 Z" />
</g>
<g id="#1a1736ff">
<path fill="#1a1736" opacity="1.00" d=" M 45.43 76.89 C 45.69 80.39 47.10 82.99 51.94 81.23 C 52.22 86.93 48.25 99.09 57.90 95.27 C 58.41 95.46 59.45 95.85 59.97 96.04 C 62.93 110.52 38.61 97.04 44.78 110.11 L 44.88 110.93 C 44.48 112.28 43.70 114.96 43.31 116.30 C 47.16 110.23 38.04 106.68 37.50 112.63 C 35.58 116.39 40.99 116.13 43.31 116.30 C 39.80 116.63 33.02 116.78 35.98 122.99 C 36.50 131.21 34.78 139.69 36.71 147.78 C 34.00 150.42 38.12 157.24 29.98 154.07 C 24.52 156.76 23.53 152.43 21.79 149.18 C 19.81 147.92 17.17 148.92 14.97 148.16 C 14.58 146.88 14.00 145.61 14.15 144.24 C 14.33 139.50 18.31 138.04 22.30 137.30 C 21.04 131.33 27.23 129.16 29.27 134.21 C 29.41 139.62 26.51 148.62 34.95 146.77 C 34.99 137.54 35.28 128.29 34.91 119.07 C 33.28 118.90 31.65 118.86 30.02 118.96 C 25.49 120.05 32.15 128.68 23.27 124.94 C 20.10 121.06 24.57 115.33 22.38 110.77 C 22.53 108.44 22.68 106.13 22.83 103.81 C 28.62 106.41 30.89 102.29 30.24 97.70 C 29.61 105.52 40.36 102.20 36.21 96.00 C 36.36 95.77 36.68 95.29 36.84 95.06 L 37.72 95.24 C 40.05 95.46 43.19 96.91 44.92 94.73 C 44.92 90.40 44.65 85.97 43.37 81.80 L 43.18 81.14 C 45.44 81.05 44.96 78.46 45.43 76.89 M 23.99 105.00 C 21.18 108.60 24.41 110.49 26.79 110.65 C 31.45 110.50 30.02 100.17 23.99 105.00 Z" />
</g>
<g id="#755253ff">
<path fill="#755253" opacity="1.00" d=" M 36.84 95.06 C 36.76 89.62 33.81 77.74 43.18 81.14 L 43.37 81.80 C 34.85 79.86 38.70 89.81 37.72 95.24 L 36.84 95.06 Z" />
</g>
<g id="#634f14ff">
<path fill="#634f14" opacity="1.00" d=" M 66.90 81.72 C 68.48 81.66 71.64 81.53 73.23 81.46 C 71.64 81.53 68.48 81.66 66.90 81.72 Z" />
</g>
<g id="#040409ff">
<path fill="#040409" opacity="1.00" d=" M 103.23 86.95 C 101.80 80.69 107.45 79.44 112.89 80.96 C 120.06 82.21 132.85 76.54 133.16 86.87 C 123.18 87.12 113.20 87.08 103.23 86.95 Z" />
</g>
<g id="#05040aff">
<path fill="#05040a" opacity="1.00" d=" M 37.72 95.24 C 38.70 89.81 34.85 79.86 43.37 81.80 C 44.65 85.97 44.92 90.40 44.92 94.73 C 43.19 96.91 40.05 95.46 37.72 95.24 Z" />
</g>
<g id="#08060dff">
<path fill="#08060d" opacity="1.00" d=" M 133.16 86.87 C 137.33 90.07 144.04 87.60 147.22 92.01 C 146.32 94.09 143.62 94.06 141.76 94.77 C 139.21 94.86 136.66 94.92 134.11 94.97 C 133.82 92.27 133.55 89.56 133.16 86.87 Z" />
</g>
<g id="#58356cff">
<path fill="#58356c" opacity="1.00" d=" M 174.81 95.77 C 171.61 82.48 187.41 87.71 195.00 86.96 C 202.67 83.57 199.15 91.65 200.14 94.92 C 196.92 94.82 200.39 89.42 197.74 88.07 C 190.99 88.47 183.74 86.96 177.24 89.24 C 178.58 93.03 174.01 99.78 178.20 102.43 C 187.56 103.08 196.95 102.93 206.33 103.09 L 205.95 103.92 C 195.88 104.19 185.80 103.65 175.76 104.28 C 168.04 106.86 164.76 92.78 174.81 95.77 Z" />
</g>
<g id="#080611ff">
<path fill="#080611" opacity="1.00" d=" M 90.23 88.13 C 93.85 88.58 97.93 87.85 101.31 88.69 C 109.09 99.44 80.76 97.63 90.23 88.13 Z" />
</g>
<g id="#915ab3ff">
<path fill="#915ab3" opacity="1.00" d=" M 103.27 89.24 C 110.98 87.16 119.13 88.29 127.00 87.96 C 133.04 85.29 133.61 91.18 133.12 95.01 L 132.87 95.97 L 131.88 95.90 C 133.93 84.16 118.16 90.26 111.22 89.12 C 110.48 91.70 110.24 94.39 110.04 97.05 C 110.06 98.72 109.47 100.91 111.28 101.88 C 122.86 102.17 134.45 102.06 146.03 101.92 C 145.81 100.42 145.36 97.43 145.13 95.93 C 149.07 95.12 146.69 100.47 146.97 102.94 C 134.98 103.18 122.99 102.88 111.00 103.01 C 105.72 102.08 90.89 106.96 95.86 95.95 C 100.90 96.47 105.44 96.31 103.27 89.24 Z" />
</g>
<g id="#9b62c0ff">
<path fill="#9b62c0" opacity="1.00" d=" M 177.24 89.24 C 183.74 86.96 190.99 88.47 197.74 88.07 C 200.39 89.42 196.92 94.82 200.14 94.92 C 201.34 95.11 202.55 95.22 203.78 95.27 C 204.52 95.30 205.26 95.29 206.00 95.26 L 206.00 96.11 C 206.08 97.85 206.25 101.35 206.33 103.09 C 196.95 102.93 187.56 103.08 178.20 102.43 C 174.01 99.78 178.58 93.03 177.24 89.24 M 185.24 89.10 C 182.35 92.02 183.54 97.99 183.65 101.33 C 190.17 103.24 198.07 101.43 205.01 101.95 C 209.64 92.31 194.16 100.46 197.53 91.38 C 196.84 85.99 188.73 90.30 185.24 89.10 Z" />
</g>
<g id="#b875e2ff">
<path fill="#b875e2" opacity="1.00" d=" M 111.22 89.12 C 118.16 90.26 133.93 84.16 131.88 95.90 C 124.85 95.97 116.03 92.08 110.04 97.05 C 110.24 94.39 110.48 91.70 111.22 89.12 Z" />
<path fill="#b875e2" opacity="1.00" d=" M 157.76 205.59 C 169.51 206.01 181.41 206.54 193.18 205.14 L 192.68 205.82 C 192.46 206.11 192.03 206.68 191.82 206.96 C 190.63 208.37 191.13 210.31 190.99 212.00 C 181.03 212.00 171.06 212.03 161.10 211.98 C 161.31 209.14 160.91 206.38 157.76 205.59 Z" />
</g>
<g id="#c980f4ff">
<path fill="#c980f4" opacity="1.00" d=" M 185.24 89.10 C 188.73 90.30 196.84 85.99 197.53 91.38 C 194.16 100.46 209.64 92.31 205.01 101.95 C 198.07 101.43 190.17 103.24 183.65 101.33 C 183.54 97.99 182.35 92.02 185.24 89.10 Z" />
</g>
<g id="#161430ff">
<path fill="#161430" opacity="1.00" d=" M 66.99 95.84 C 68.95 95.42 71.66 96.19 72.74 94.02 C 74.32 97.08 77.96 95.86 80.89 95.90 C 80.75 98.90 82.50 104.47 77.99 104.01 C 72.36 103.04 63.07 105.28 65.08 95.99 C 65.56 95.95 66.51 95.88 66.99 95.84 Z" />
</g>
<g id="#a26b6aff">
<path fill="#a26b6a" opacity="1.00" d=" M 30.04 95.76 C 31.42 93.98 33.69 93.75 36.84 95.06 C 36.68 95.29 36.36 95.77 36.21 96.00 C 34.15 96.21 32.07 96.18 30.04 95.76 Z" />
</g>
<g id="#cd83f8ff">
<path fill="#cd83f8" opacity="1.00" d=" M 110.04 97.05 C 116.03 92.08 124.85 95.97 131.88 95.90 L 132.87 95.97 C 136.95 95.97 141.04 95.96 145.13 95.93 C 145.36 97.43 145.81 100.42 146.03 101.92 C 134.45 102.06 122.86 102.17 111.28 101.88 C 109.47 100.91 110.06 98.72 110.04 97.05 Z" />
</g>
<g id="#6b3f82ff">
<path fill="#6b3f82" opacity="1.00" d=" M 133.12 95.01 L 134.11 94.97 C 136.66 94.92 139.21 94.86 141.76 94.77 C 148.21 92.87 149.44 96.53 148.37 102.26 C 148.09 102.76 147.53 103.75 147.25 104.25 C 135.16 103.81 123.08 104.08 110.99 103.98 L 111.00 103.01 C 122.99 102.88 134.98 103.18 146.97 102.94 C 146.69 100.47 149.07 95.12 145.13 95.93 C 141.04 95.96 136.95 95.97 132.87 95.97 L 133.12 95.01 Z" />
</g>
<g id="#895f57ff">
<path fill="#895f57" opacity="1.00" d=" M 23.10 102.41 C 27.59 103.64 30.88 101.52 30.04 95.76 C 30.09 96.24 30.19 97.21 30.24 97.70 C 30.89 102.29 28.62 106.41 22.83 103.81 C 22.90 103.46 23.03 102.76 23.10 102.41 Z" />
</g>
<g id="#0c080eff">
<path fill="#0c080e" opacity="1.00" d=" M 30.04 95.76 C 32.07 96.18 34.15 96.21 36.21 96.00 C 40.36 102.20 29.61 105.52 30.24 97.70 C 30.19 97.21 30.09 96.24 30.04 95.76 Z" />
</g>
<g id="#4d2f61ff">
<path fill="#4d2f61" opacity="1.00" d=" M 87.67 101.20 C 87.09 96.34 91.02 94.11 95.86 95.95 C 90.89 106.96 105.72 102.08 111.00 103.01 L 110.99 103.98 C 105.91 104.01 100.84 103.96 95.77 104.22 C 92.73 103.62 87.26 105.83 87.67 101.20 Z" />
</g>
<g id="#4b3157ff">
<path fill="#4b3157" opacity="1.00" d=" M 206.00 96.11 L 206.79 96.10 C 208.00 98.32 207.85 100.65 206.33 103.09 C 206.25 101.35 206.08 97.85 206.00 96.11 Z" />
</g>
<g id="#6f4d48ff">
<path fill="#6f4d48" opacity="1.00" d=" M 212.15 95.85 L 213.32 95.68 C 212.80 100.48 213.89 105.57 212.25 110.21 C 211.97 105.43 212.03 100.63 212.15 95.85 Z" />
</g>
<g id="#c2867fff">
<path fill="#c2867f" opacity="1.00" d=" M 213.32 95.68 C 214.12 97.79 214.45 100.05 214.61 102.29 C 213.77 105.06 216.35 110.55 212.85 111.11 L 211.99 111.08 L 212.25 110.21 C 213.89 105.57 212.80 100.48 213.32 95.68 Z" />
</g>
<g id="#f89e9bff">
<path fill="#f89e9b" opacity="1.00" d=" M 0.00 104.01 C 7.73 104.16 15.53 104.15 23.10 102.41 C 23.03 102.76 22.90 103.46 22.83 103.81 C 21.01 104.98 21.80 107.02 21.84 108.79 C 19.88 110.88 16.67 109.63 14.11 110.20 C 13.64 115.09 14.95 120.29 13.10 125.00 C 11.71 125.00 10.32 125.00 8.93 125.00 C 0.26 130.09 16.52 156.29 0.00 154.08 L 0.00 104.01 Z" />
</g>
<g id="#fba39dff">
<path fill="#fba39d" opacity="1.00" d=" M 214.61 102.29 C 226.27 104.33 238.32 101.65 250.00 103.94 L 250.00 133.84 C 238.06 132.72 225.57 130.87 213.80 133.85 C 213.56 130.85 213.99 127.72 213.03 124.83 C 211.89 120.40 212.63 115.65 212.85 111.11 C 216.35 110.55 213.77 105.06 214.61 102.29 Z" />
</g>
<g id="#8a5d59ff">
<path fill="#8a5d59" opacity="1.00" d=" M 21.84 108.79 C 21.80 107.02 21.01 104.98 22.83 103.81 C 22.68 106.13 22.53 108.44 22.38 110.77 C 8.78 105.42 19.39 123.12 13.10 125.00 C 14.95 120.29 13.64 115.09 14.11 110.20 C 16.67 109.63 19.88 110.88 21.84 108.79 Z" />
</g>
<g id="#261831ff">
<path fill="#261831" opacity="1.00" d=" M 95.77 104.22 C 100.84 103.96 105.91 104.01 110.99 103.98 C 123.08 104.08 135.16 103.81 147.25 104.25 C 130.52 105.72 112.77 105.34 95.77 104.22 Z" />
</g>
<g id="#271931ff">
<path fill="#271931" opacity="1.00" d=" M 175.76 104.28 C 185.80 103.65 195.88 104.19 205.95 103.92 C 196.99 106.27 185.56 104.93 175.76 104.28 Z" />
</g>
<g id="#020204ff">
<path fill="#020204" opacity="1.00" d=" M 23.99 105.00 C 30.02 100.17 31.45 110.50 26.79 110.65 C 24.41 110.49 21.18 108.60 23.99 105.00 Z" />
</g>
<g id="#040307ff">
<path fill="#040307" opacity="1.00" d=" M 37.50 112.63 C 38.04 106.68 47.16 110.23 43.31 116.30 C 40.99 116.13 35.58 116.39 37.50 112.63 Z" />
</g>
<g id="#59366eff">
<path fill="#59366e" opacity="1.00" d=" M 44.78 110.11 C 49.42 109.94 54.07 109.91 58.72 110.13 C 61.31 111.34 58.37 114.42 59.83 116.13 C 60.09 116.43 60.60 117.04 60.86 117.34 L 61.47 118.09 C 60.58 118.48 59.65 118.57 58.70 118.38 C 61.21 108.02 51.33 111.26 44.88 110.93 L 44.78 110.11 Z" />
</g>
<g id="#2a2454ff">
<path fill="#2a2454" opacity="1.00" d=" M 72.57 115.82 C 71.46 109.71 76.28 108.88 80.89 109.94 L 80.75 110.87 C 80.04 113.62 79.64 116.45 80.91 119.05 C 83.43 125.16 75.31 141.89 86.94 138.99 C 87.05 134.32 87.01 129.67 87.05 125.02 L 87.98 125.06 C 87.99 127.03 87.96 128.99 87.98 130.96 C 86.08 137.66 88.29 140.56 94.72 138.99 C 95.08 139.21 95.80 139.64 96.16 139.86 C 93.24 147.30 97.55 147.78 103.08 146.96 C 105.48 147.17 107.88 147.42 110.28 147.70 C 105.26 149.39 92.42 143.74 96.01 153.95 C 102.06 152.03 119.85 159.39 115.13 147.95 C 115.90 147.94 117.44 147.91 118.21 147.90 C 112.40 159.09 129.56 148.80 125.04 159.02 C 125.15 164.97 112.11 158.87 116.89 168.89 C 109.34 166.22 110.98 172.49 110.99 176.93 C 110.97 181.93 110.98 186.94 111.02 191.95 C 110.98 193.97 110.96 195.99 110.96 198.02 C 108.80 189.06 110.44 177.92 110.00 167.99 C 115.68 169.58 117.67 167.58 115.98 161.99 C 110.24 159.20 109.61 164.54 110.00 167.99 C 104.11 164.91 102.70 173.28 103.67 177.46 C 107.02 183.87 99.73 185.02 95.71 185.95 C 88.40 184.03 91.57 173.25 82.42 174.52 C 78.28 172.65 83.41 165.63 79.75 163.03 C 72.27 158.87 76.39 168.83 72.12 169.09 C 72.35 167.59 72.81 164.58 73.04 163.07 C 65.65 162.87 58.26 162.99 50.88 163.09 C 50.14 160.41 50.33 157.60 50.13 154.87 C 52.68 156.35 50.78 159.66 52.15 161.87 C 59.06 162.13 65.98 162.19 72.88 161.88 C 74.49 159.65 71.45 155.50 74.69 154.74 C 72.00 161.69 84.00 164.11 81.04 155.16 C 79.45 155.06 76.28 154.84 74.69 154.74 L 75.18 154.12 C 79.33 154.99 81.82 154.12 81.10 150.08 C 81.42 149.45 82.07 148.20 82.39 147.57 C 90.11 148.86 80.90 158.22 85.55 158.71 C 85.71 151.72 98.63 158.23 95.03 149.04 C 94.67 146.30 90.34 147.37 88.20 146.72 C 86.35 143.73 89.16 136.84 82.15 140.03 C 79.30 139.62 81.55 144.91 79.01 145.97 C 74.17 147.27 74.05 143.40 74.11 139.92 C 72.97 136.77 65.10 141.55 66.23 136.77 C 65.25 132.97 69.57 134.02 72.24 133.39 C 73.52 133.23 74.22 132.51 74.34 131.23 C 75.03 126.97 75.49 122.55 74.84 118.26 C 72.63 115.21 67.99 117.65 64.79 117.14 C 63.48 117.18 62.17 117.25 60.86 117.34 C 60.60 117.04 60.09 116.43 59.83 116.13 C 64.08 116.09 68.32 116.03 72.57 115.82 M 90.25 140.10 C 87.85 141.58 88.62 146.77 92.00 146.05 C 96.96 147.10 96.95 135.08 90.25 140.10 M 119.25 155.10 C 112.72 160.44 128.60 164.40 123.99 154.98 L 119.25 155.10 Z" />
</g>
<g id="#894305ff">
<path fill="#894305" opacity="1.00" d=" M 80.89 109.94 C 97.59 110.05 114.29 109.98 130.99 109.99 L 131.09 110.94 L 130.11 110.94 C 126.10 110.94 122.10 110.97 118.10 111.02 C 113.09 110.99 108.10 110.97 103.10 110.96 C 98.46 110.95 93.82 110.97 89.18 111.05 C 86.37 111.00 83.56 110.93 80.75 110.87 L 80.89 109.94 Z" />
</g>
<g id="#5f0888ff">
<path fill="#5f0888" opacity="1.00" d=" M 130.99 109.99 C 141.35 109.97 151.70 109.97 162.07 110.13 L 162.05 110.85 C 161.59 110.87 160.68 110.91 160.22 110.93 C 155.81 110.96 151.40 110.98 147.00 111.02 C 142.38 110.98 137.77 110.97 133.16 110.99 L 132.15 110.98 L 131.09 110.94 L 130.99 109.99 Z" />
</g>
<g id="#055a8cff">
<path fill="#055a8c" opacity="1.00" d=" M 162.07 110.13 C 163.78 110.12 167.20 110.12 168.91 110.12 L 168.85 110.86 C 167.15 110.86 163.75 110.85 162.05 110.85 L 162.07 110.13 Z" />
</g>
<g id="#8f8d8aff">
<path fill="#8f8d8a" opacity="1.00" d=" M 168.91 110.12 C 171.59 110.06 174.28 110.03 176.98 110.01 L 177.08 111.00 C 176.59 111.01 175.62 111.01 175.13 111.01 C 173.36 110.98 171.59 110.97 169.83 110.94 L 168.85 110.86 L 168.91 110.12 Z" />
</g>
<g id="#068769ff">
<path fill="#068769" opacity="1.00" d=" M 176.98 110.01 C 181.68 109.94 186.38 110.08 191.09 110.14 L 191.13 110.87 C 186.44 110.94 181.76 110.99 177.08 111.00 L 176.98 110.01 Z" />
</g>
<g id="#909682ff">
<path fill="#909682" opacity="1.00" d=" M 191.09 110.14 C 192.80 110.13 196.23 110.10 197.95 110.09 L 197.99 110.83 C 196.27 110.84 192.85 110.86 191.13 110.87 L 191.09 110.14 Z" />
</g>
<g id="#4c8d07ff">
<path fill="#4c8d07" opacity="1.00" d=" M 197.95 110.09 C 202.71 110.02 207.48 110.09 212.25 110.21 L 211.99 111.08 C 210.02 111.04 208.04 111.01 206.07 111.03 C 204.03 111.00 202.00 111.00 199.96 110.98 C 199.47 110.94 198.48 110.87 197.99 110.83 L 197.95 110.09 Z" />
</g>
<g id="#100e21ff">
<path fill="#100e21" opacity="1.00" d=" M 13.10 125.00 C 19.39 123.12 8.78 105.42 22.38 110.77 C 24.57 115.33 20.10 121.06 23.27 124.94 C 32.15 128.68 25.49 120.05 30.02 118.96 C 29.27 124.01 29.70 129.13 29.27 134.21 C 27.23 129.16 21.04 131.33 22.30 137.30 C 18.31 138.04 14.33 139.50 14.15 144.24 C 12.67 138.11 20.78 122.71 8.82 125.82 L 8.93 125.00 C 10.32 125.00 11.71 125.00 13.10 125.00 Z" />
</g>
<g id="#623a79ff">
<path fill="#623a79" opacity="1.00" d=" M 43.31 116.30 C 43.70 114.96 44.48 112.28 44.88 110.93 C 46.51 115.77 43.59 120.16 38.30 119.49 C 36.85 128.17 36.66 137.02 37.11 145.79 C 38.85 147.68 41.73 146.21 43.96 147.05 C 44.43 148.47 44.41 149.93 43.91 151.34 C 43.36 147.61 40.16 147.44 36.71 147.78 C 34.78 139.69 36.50 131.21 35.98 122.99 C 33.02 116.78 39.80 116.63 43.31 116.30 Z" />
</g>
<g id="#945db9ff">
<path fill="#945db9" opacity="1.00" d=" M 44.88 110.93 C 51.33 111.26 61.21 108.02 58.70 118.38 C 54.22 118.14 49.70 117.59 45.23 118.12 C 42.30 122.41 46.51 131.67 38.72 131.80 C 32.49 141.22 45.79 138.20 43.96 147.05 C 41.73 146.21 38.85 147.68 37.11 145.79 C 36.66 137.02 36.85 128.17 38.30 119.49 C 43.59 120.16 46.51 115.77 44.88 110.93 Z" />
</g>
<g id="#725224ff">
<path fill="#725224" opacity="1.00" d=" M 80.91 119.05 C 79.64 116.45 80.04 113.62 80.75 110.87 C 78.85 116.50 82.50 118.99 87.07 117.99 C 90.12 118.20 87.61 122.85 88.85 125.04 L 87.98 125.06 L 87.05 125.02 C 88.53 119.43 86.48 117.44 80.91 119.05 Z" />
</g>
<g id="#ecb907ff">
<path fill="#ecb907" opacity="1.00" d=" M 80.75 110.87 C 83.56 110.93 86.37 111.00 89.18 111.05 C 88.68 113.42 87.98 115.74 87.07 117.99 C 82.50 118.99 78.85 116.50 80.75 110.87 Z" />
</g>
<g id="#fd8902ff">
<path fill="#fd8902" opacity="1.00" d=" M 89.18 111.05 C 93.82 110.97 98.46 110.95 103.10 110.96 C 107.13 119.59 92.58 115.92 95.22 124.86 C 93.10 124.95 90.97 125.02 88.85 125.04 C 87.61 122.85 90.12 118.20 87.07 117.99 C 87.98 115.74 88.68 113.42 89.18 111.05 Z" />
</g>
<g id="#fe6802ff">
<path fill="#fe6802" opacity="1.00" d=" M 103.10 110.96 C 108.10 110.97 113.09 110.99 118.10 111.02 C 119.20 115.60 115.89 118.34 111.65 118.70 C 114.59 128.65 100.43 121.40 102.95 131.13 C 98.53 132.59 93.97 130.52 95.22 124.86 C 92.58 115.92 107.13 119.59 103.10 110.96 Z" />
</g>
<g id="#fd3e05ff">
<path fill="#fd3e05" opacity="1.00" d=" M 118.10 111.02 C 122.10 110.97 126.10 110.94 130.11 110.94 C 135.18 118.37 118.64 113.53 124.77 122.21 C 124.30 127.86 113.27 121.78 116.06 131.04 C 111.69 131.06 107.31 130.99 102.95 131.13 C 100.43 121.40 114.59 128.65 111.65 118.70 C 115.89 118.34 119.20 115.60 118.10 111.02 Z" />
</g>
<g id="#f53250ff">
<path fill="#f53250" opacity="1.00" d=" M 130.11 110.94 L 131.09 110.94 L 132.15 110.98 C 132.72 115.15 130.95 118.42 125.76 117.85 C 124.76 119.05 125.05 120.77 124.77 122.21 C 118.64 113.53 135.18 118.37 130.11 110.94 Z" />
</g>
<g id="#e420c0ff">
<path fill="#e420c0" opacity="1.00" d=" M 132.15 110.98 L 133.16 110.99 C 135.41 115.88 130.75 121.62 125.76 117.85 C 130.95 118.42 132.72 115.15 132.15 110.98 Z" />
</g>
<g id="#cb04fdff">
<path fill="#cb04fd" opacity="1.00" d=" M 133.16 110.99 C 137.77 110.97 142.38 110.98 147.00 111.02 C 152.30 119.32 136.81 115.25 139.84 123.84 C 140.12 127.16 133.99 123.29 133.49 126.40 C 135.82 135.99 120.40 129.76 125.01 139.97 C 119.52 139.53 106.05 143.51 110.76 132.88 C 117.91 135.93 119.74 131.26 118.18 126.22 C 124.99 128.29 127.48 123.68 125.76 117.85 C 130.75 121.62 135.41 115.88 133.16 110.99 Z" />
</g>
<g id="#7e03fdff">
<path fill="#7e03fd" opacity="1.00" d=" M 147.00 111.02 C 151.40 110.98 155.81 110.96 160.22 110.93 C 162.91 117.96 151.64 113.50 153.74 120.34 C 154.14 122.46 154.08 124.92 151.29 124.77 C 146.85 121.86 145.17 127.12 144.50 130.55 C 141.19 130.04 138.32 131.79 138.96 135.03 C 138.93 136.36 138.93 137.69 138.97 139.02 L 138.95 140.04 C 134.33 139.53 129.62 139.13 125.01 139.97 C 120.40 129.76 135.82 135.99 133.49 126.40 C 133.99 123.29 140.12 127.16 139.84 123.84 C 136.81 115.25 152.30 119.32 147.00 111.02 Z" />
</g>
<g id="#634cf9ff">
<path fill="#634cf9" opacity="1.00" d=" M 160.22 110.93 C 160.68 110.91 161.59 110.87 162.05 110.85 C 162.03 112.88 162.01 114.92 161.99 116.95 L 161.10 117.16 C 158.43 117.80 155.32 117.77 153.74 120.34 C 151.64 113.50 162.91 117.96 160.22 110.93 Z" />
</g>
<g id="#1c9cf9ff">
<path fill="#1c9cf9" opacity="1.00" d=" M 162.05 110.85 C 163.75 110.85 167.15 110.86 168.85 110.86 C 169.58 116.08 168.03 118.56 161.99 116.95 C 162.01 114.92 162.03 112.88 162.05 110.85 Z" />
</g>
<g id="#bbe6edff">
<path fill="#bbe6ed" opacity="1.00" d=" M 168.85 110.86 L 169.83 110.94 C 169.85 113.29 169.62 117.80 173.24 116.57 C 176.89 116.83 175.57 113.31 175.13 111.01 C 175.62 111.01 176.59 111.01 177.08 111.00 C 179.95 118.20 173.54 118.02 169.32 119.22 C 171.68 126.27 166.08 124.79 162.00 125.18 C 160.63 128.12 161.90 130.82 164.06 132.51 C 163.09 132.52 162.13 132.50 161.17 132.49 C 159.96 129.54 162.82 122.86 156.08 126.00 C 154.00 126.09 155.34 129.80 154.67 131.33 L 153.99 130.97 C 155.24 129.47 157.75 126.48 159.00 124.99 C 163.25 125.74 160.38 119.73 161.10 117.16 L 161.99 116.95 C 168.03 118.56 169.58 116.08 168.85 110.86 M 166.31 118.34 C 163.34 118.38 161.09 121.31 163.22 123.89 C 168.36 130.09 171.07 115.42 166.31 118.34 Z" />
</g>
<g id="#fbfbfaff">
<path fill="#fbfbfa" opacity="1.00" d=" M 169.83 110.94 C 171.59 110.97 173.36 110.98 175.13 111.01 C 175.57 113.31 176.89 116.83 173.24 116.57 C 169.62 117.80 169.85 113.29 169.83 110.94 Z" />
</g>
<g id="#17fabeff">
<path fill="#17fabe" opacity="1.00" d=" M 177.08 111.00 C 181.76 110.99 186.44 110.94 191.13 110.87 C 190.65 112.67 191.93 115.82 189.62 116.57 C 182.44 114.27 183.79 120.93 183.03 124.90 C 181.37 124.93 179.71 124.93 178.06 124.99 C 172.61 123.67 177.15 132.15 171.56 132.07 C 171.02 132.05 169.94 132.01 169.40 131.98 C 168.18 130.13 165.78 130.86 164.80 132.52 L 164.06 132.51 C 161.90 130.82 160.63 128.12 162.00 125.18 C 166.08 124.79 171.68 126.27 169.32 119.22 C 173.54 118.02 179.95 118.20 177.08 111.00 Z" />
</g>
<g id="#e4f5f1ff">
<path fill="#e4f5f1" opacity="1.00" d=" M 191.13 110.87 C 192.85 110.86 196.27 110.84 197.99 110.83 C 202.79 121.10 187.40 112.79 190.84 122.85 C 190.58 125.90 185.12 123.18 183.03 124.90 C 183.79 120.93 182.44 114.27 189.62 116.57 C 191.93 115.82 190.65 112.67 191.13 110.87 Z" />
</g>
<g id="#b0ef8cff">
<path fill="#b0ef8c" opacity="1.00" d=" M 197.99 110.83 C 198.48 110.87 199.47 110.94 199.96 110.98 C 200.00 113.03 200.03 115.08 200.06 117.13 C 199.41 117.85 198.76 118.56 198.11 119.27 C 193.89 117.55 189.77 118.36 191.97 124.87 C 191.77 125.05 191.37 125.41 191.17 125.59 C 186.38 124.35 182.69 124.42 185.14 131.02 C 184.64 132.07 184.07 133.08 183.47 134.07 C 179.34 131.28 175.80 134.66 177.21 139.03 L 176.11 138.99 C 176.03 137.36 175.98 135.73 175.95 134.11 C 176.24 133.59 176.83 132.56 177.13 132.04 C 181.65 132.93 185.08 130.36 183.03 124.90 C 185.12 123.18 190.58 125.90 190.84 122.85 C 187.40 112.79 202.79 121.10 197.99 110.83 Z" />
</g>
<g id="#6cfc07ff">
<path fill="#6cfc07" opacity="1.00" d=" M 199.96 110.98 C 202.00 111.00 204.03 111.00 206.07 111.03 C 208.24 116.29 204.23 119.76 200.06 117.13 C 200.03 115.08 200.00 113.03 199.96 110.98 Z" />
</g>
<g id="#b3fd02ff">
<path fill="#b3fd02" opacity="1.00" d=" M 206.07 111.03 C 208.04 111.01 210.02 111.04 211.99 111.08 L 212.85 111.11 C 212.63 115.65 211.89 120.40 213.03 124.83 L 212.09 124.89 C 205.27 122.58 206.46 127.16 205.31 131.31 C 200.02 130.68 196.10 133.15 197.76 139.02 L 196.72 139.19 L 195.96 139.29 C 194.02 138.83 192.01 138.64 190.06 139.12 C 188.27 139.08 184.70 139.01 182.91 138.98 C 183.06 137.34 183.22 135.70 183.47 134.07 C 184.07 133.08 184.64 132.07 185.14 131.02 C 187.73 135.81 194.60 129.44 191.17 125.59 C 191.37 125.41 191.77 125.05 191.97 124.87 C 197.37 126.53 199.42 124.66 198.11 119.27 C 198.76 118.56 199.41 117.85 200.06 117.13 C 204.23 119.76 208.24 116.29 206.07 111.03 Z" />
</g>
<g id="#975fbcff">
<path fill="#975fbc" opacity="1.00" d=" M 60.86 117.34 C 62.17 117.25 63.48 117.18 64.79 117.14 C 75.43 114.55 72.54 124.91 74.34 131.23 C 74.22 132.51 73.52 133.23 72.24 133.39 C 70.36 133.18 68.47 132.98 66.67 132.38 C 72.37 134.71 75.52 129.88 72.33 125.65 C 65.75 121.07 66.77 128.42 66.67 132.38 C 65.52 130.20 67.65 124.71 64.06 124.93 C 59.95 124.84 55.84 124.77 51.73 124.72 C 56.74 124.00 61.83 123.72 67.01 123.89 C 68.33 119.93 64.64 118.56 61.47 118.09 L 60.86 117.34 Z" />
</g>
<g id="#694086ff">
<path fill="#694086" opacity="1.00" d=" M 64.79 117.14 C 67.99 117.65 72.63 115.21 74.84 118.26 C 75.49 122.55 75.03 126.97 74.34 131.23 C 72.54 124.91 75.43 114.55 64.79 117.14 Z" />
</g>
<g id="#1f99faff">
<path fill="#1f99fa" opacity="1.00" d=" M 153.74 120.34 C 155.32 117.77 158.43 117.80 161.10 117.16 C 160.38 119.73 163.25 125.74 159.00 124.99 C 157.75 126.48 155.24 129.47 153.99 130.97 C 151.49 132.04 148.72 131.60 146.09 132.01 C 148.96 129.66 145.55 124.46 151.29 124.77 C 154.08 124.92 154.14 122.46 153.74 120.34 Z" />
</g>
<g id="#bf79eaff">
<path fill="#bf79ea" opacity="1.00" d=" M 45.23 118.12 C 49.70 117.59 54.22 118.14 58.70 118.38 C 59.65 118.57 60.58 118.48 61.47 118.09 C 64.64 118.56 68.33 119.93 67.01 123.89 C 61.83 123.72 56.74 124.00 51.73 124.72 C 50.08 132.24 51.56 140.29 50.90 148.02 C 48.44 148.40 46.13 148.08 43.96 147.05 C 45.79 138.20 32.49 141.22 38.72 131.80 C 46.51 131.67 42.30 122.41 45.23 118.12 Z" />
</g>
<g id="#e21dbcff">
<path fill="#e21dbc" opacity="1.00" d=" M 124.77 122.21 C 125.05 120.77 124.76 119.05 125.76 117.85 C 127.48 123.68 124.99 128.29 118.18 126.22 C 119.74 131.26 117.91 135.93 110.76 132.88 L 109.80 132.87 C 112.53 133.14 114.61 132.53 116.06 131.04 C 113.27 121.78 124.30 127.86 124.77 122.21 Z" />
</g>
<g id="#fbfafbff">
<path fill="#fbfafb" opacity="1.00" d=" M 166.31 118.34 C 171.07 115.42 168.36 130.09 163.22 123.89 C 161.09 121.31 163.34 118.38 166.31 118.34 Z" />
</g>
<g id="#5bfc0bff">
<path fill="#5bfc0b" opacity="1.00" d=" M 191.97 124.87 C 189.77 118.36 193.89 117.55 198.11 119.27 C 199.42 124.66 197.37 126.53 191.97 124.87 Z" />
</g>
<g id="#040308ff">
<path fill="#040308" opacity="1.00" d=" M 30.02 118.96 C 31.65 118.86 33.28 118.90 34.91 119.07 C 35.28 128.29 34.99 137.54 34.95 146.77 C 26.51 148.62 29.41 139.62 29.27 134.21 C 29.70 129.13 29.27 124.01 30.02 118.96 Z" />
</g>
<g id="#050407ff">
<path fill="#050407" opacity="1.00" d=" M 80.91 119.05 C 86.48 117.44 88.53 119.43 87.05 125.02 C 87.01 129.67 87.05 134.32 86.94 138.99 C 75.31 141.89 83.43 125.16 80.91 119.05 Z" />
</g>
<g id="#634bfdff">
<path fill="#634bfd" opacity="1.00" d=" M 144.50 130.55 C 145.17 127.12 146.85 121.86 151.29 124.77 C 145.55 124.46 148.96 129.66 146.09 132.01 C 143.61 132.83 140.68 132.84 138.96 135.03 C 138.32 131.79 141.19 130.04 144.50 130.55 Z" />
</g>
<g id="#976563ff">
<path fill="#976563" opacity="1.00" d=" M 0.00 154.08 C 16.52 156.29 0.26 130.09 8.93 125.00 L 8.82 125.82 C 7.08 135.06 8.61 144.49 7.87 153.79 C 7.02 154.49 6.05 154.95 4.96 155.17 C 3.31 155.09 1.65 155.03 0.00 154.98 L 0.00 154.08 Z" />
</g>
<g id="#995fbdff">
<path fill="#995fbd" opacity="1.00" d=" M 50.90 148.02 C 51.56 140.29 50.08 132.24 51.73 124.72 C 52.06 131.50 51.87 138.29 51.97 145.07 C 52.47 149.69 60.85 145.99 64.65 147.16 L 65.06 147.97 C 63.01 147.94 60.96 147.91 58.92 147.93 C 54.07 146.09 50.59 148.32 50.19 152.86 C 53.34 154.99 59.80 153.42 58.50 159.56 C 61.79 164.67 69.58 159.88 67.96 154.21 C 70.36 154.51 72.78 154.36 75.18 154.12 L 74.69 154.74 C 71.45 155.50 74.49 159.65 72.88 161.88 C 65.98 162.19 59.06 162.13 52.15 161.87 C 50.78 159.66 52.68 156.35 50.13 154.87 C 47.83 153.28 43.28 155.38 43.91 151.34 C 44.41 149.93 44.43 148.47 43.96 147.05 C 46.13 148.08 48.44 148.40 50.90 148.02 Z" />
</g>
<g id="#34213dff">
<path fill="#34213d" opacity="1.00" d=" M 51.73 124.72 C 55.84 124.77 59.95 124.84 64.06 124.93 L 64.24 125.79 C 61.45 125.87 55.87 126.03 53.08 126.12 C 52.90 132.49 53.08 138.87 52.85 145.24 L 51.97 145.07 C 51.87 138.29 52.06 131.50 51.73 124.72 Z" />
</g>
<g id="#593770ff">
<path fill="#593770" opacity="1.00" d=" M 64.06 124.93 C 67.65 124.71 65.52 130.20 66.67 132.38 C 68.47 132.98 70.36 133.18 72.24 133.39 C 69.57 134.02 65.25 132.97 66.23 136.77 C 65.10 141.55 72.97 136.77 74.11 139.92 C 73.59 139.92 72.56 139.92 72.04 139.92 C 67.93 139.00 66.01 140.83 66.97 144.96 C 65.92 145.41 65.15 146.14 64.65 147.16 C 60.85 145.99 52.47 149.69 51.97 145.07 L 52.85 145.24 C 57.18 146.87 69.37 147.76 64.22 139.89 C 55.26 140.55 58.55 131.69 64.26 131.16 C 64.26 129.82 64.25 127.13 64.24 125.79 L 64.06 124.93 Z" />
</g>
<g id="#c87ff4ff">
<path fill="#c87ff4" opacity="1.00" d=" M 66.67 132.38 C 66.77 128.42 65.75 121.07 72.33 125.65 C 75.52 129.88 72.37 134.71 66.67 132.38 Z" />
</g>
<g id="#8250a0ff">
<path fill="#8250a0" opacity="1.00" d=" M 87.98 125.06 L 88.85 125.04 C 90.97 125.02 93.10 124.95 95.22 124.86 C 95.16 127.48 95.11 130.12 95.06 132.76 C 92.45 134.67 89.91 132.86 87.98 130.96 C 87.96 128.99 87.99 127.03 87.98 125.06 Z" />
</g>
<g id="#d75976ff">
<path fill="#d75976" opacity="1.00" d=" M 95.22 124.86 C 93.97 130.52 98.53 132.59 102.95 131.13 C 107.31 130.99 111.69 131.06 116.06 131.04 C 114.61 132.53 112.53 133.14 109.80 132.87 C 107.91 132.95 106.01 132.99 104.12 133.02 C 101.09 132.92 98.08 132.57 95.06 132.76 C 95.11 130.12 95.16 127.48 95.22 124.86 Z" />
</g>
<g id="#83ecd5ff">
<path fill="#83ecd5" opacity="1.00" d=" M 171.56 132.07 C 177.15 132.15 172.61 123.67 178.06 124.99 C 175.24 126.35 177.33 129.68 177.13 132.04 C 176.83 132.56 176.24 133.59 175.95 134.11 C 175.08 132.38 173.29 132.18 171.56 132.07 Z" />
</g>
<g id="#edf9f5ff">
<path fill="#edf9f5" opacity="1.00" d=" M 178.06 124.99 C 179.71 124.93 181.37 124.93 183.03 124.90 C 185.08 130.36 181.65 132.93 177.13 132.04 C 177.33 129.68 175.24 126.35 178.06 124.99 Z" />
</g>
<g id="#69fc0eff">
<path fill="#69fc0e" opacity="1.00" d=" M 185.14 131.02 C 182.69 124.42 186.38 124.35 191.17 125.59 C 194.60 129.44 187.73 135.81 185.14 131.02 Z" />
</g>
<g id="#f9fd02ff">
<path fill="#f9fd02" opacity="1.00" d=" M 205.31 131.31 C 206.46 127.16 205.27 122.58 212.09 124.89 C 212.03 129.64 212.02 134.40 212.06 139.16 C 210.47 139.51 208.85 139.64 207.23 139.74 C 204.07 139.34 200.94 138.93 197.76 139.02 C 196.10 133.15 200.02 130.68 205.31 131.31 Z" />
</g>
<g id="#efd956ff">
<path fill="#efd956" opacity="1.00" d=" M 212.09 124.89 L 213.03 124.83 C 213.99 127.72 213.56 130.85 213.80 133.85 C 213.31 135.71 215.06 139.33 212.06 139.16 C 212.02 134.40 212.03 129.64 212.09 124.89 Z" />
</g>
<g id="#1b1838ff">
<path fill="#1b1838" opacity="1.00" d=" M 7.87 153.79 C 8.61 144.49 7.08 135.06 8.82 125.82 C 11.08 134.44 5.37 147.70 10.82 154.40 C 15.01 155.06 13.13 161.26 17.08 161.91 C 23.33 160.83 29.65 161.79 35.93 162.15 C 35.15 169.18 39.94 175.55 37.73 183.22 C 35.87 178.83 38.85 168.12 31.17 168.98 C 29.38 172.44 29.22 177.63 23.96 177.03 C 21.67 176.90 20.60 178.77 21.25 180.82 C 20.68 187.01 13.02 182.30 9.29 183.26 C 6.63 184.81 7.24 188.40 5.89 190.88 C 3.92 190.60 1.97 190.14 0.00 189.80 L 0.00 169.13 C 9.00 172.82 9.90 158.61 4.96 155.17 C 6.05 154.95 7.02 154.49 7.87 153.79 Z" />
</g>
<g id="#030206ff">
<path fill="#030206" opacity="1.00" d=" M 8.82 125.82 C 20.78 122.71 12.67 138.11 14.15 144.24 C 14.00 145.61 14.58 146.88 14.97 148.16 C 15.63 151.32 14.70 154.67 10.82 154.40 C 5.37 147.70 11.08 134.44 8.82 125.82 Z" />
</g>
<g id="#060408ff">
<path fill="#060408" opacity="1.00" d=" M 53.08 126.12 C 55.87 126.03 61.45 125.87 64.24 125.79 C 64.25 127.13 64.26 129.82 64.26 131.16 C 55.74 127.04 54.81 145.13 64.22 139.89 C 69.37 147.76 57.18 146.87 52.85 145.24 C 53.08 138.87 52.90 132.49 53.08 126.12 Z" />
<path fill="#060408" opacity="1.00" d=" M 0.00 154.98 C 1.65 155.03 3.31 155.09 4.96 155.17 C 9.90 158.61 9.00 172.82 0.00 169.13 L 0.00 154.98 Z" />
<path fill="#060408" opacity="1.00" d=" M 227.93 236.10 C 229.77 236.00 233.44 235.81 235.28 235.72 C 235.13 240.47 235.02 245.24 234.97 250.00 L 228.87 250.00 C 227.07 245.60 228.37 240.68 227.93 236.10 Z" />
</g>
<g id="#f8f3faff">
<path fill="#f8f3fa" opacity="1.00" d=" M 154.67 131.33 C 155.34 129.80 154.00 126.09 156.08 126.00 C 162.82 122.86 159.96 129.54 161.17 132.49 C 159.09 132.63 155.76 133.73 154.67 131.33 Z" />
</g>
<g id="#301f3cff">
<path fill="#301f3c" opacity="1.00" d=" M 64.22 139.89 C 54.81 145.13 55.74 127.04 64.26 131.16 C 58.55 131.69 55.26 140.55 64.22 139.89 Z" />
</g>
<g id="#56336aff">
<path fill="#56336a" opacity="1.00" d=" M 87.98 130.96 C 89.91 132.86 92.45 134.67 95.06 132.76 C 96.24 134.94 94.68 136.86 94.72 138.99 C 88.29 140.56 86.08 137.66 87.98 130.96 Z" />
</g>
<g id="#e0eaf6ff">
<path fill="#e0eaf6" opacity="1.00" d=" M 146.09 132.01 C 148.72 131.60 151.49 132.04 153.99 130.97 C 153.99 133.63 153.99 136.29 154.00 138.95 C 152.22 138.98 148.65 139.03 146.87 139.05 C 146.23 136.76 146.25 134.36 146.09 132.01 Z" />
</g>
<g id="#c887f4ff">
<path fill="#c887f4" opacity="1.00" d=" M 153.99 130.97 L 154.67 131.33 C 155.76 133.73 159.09 132.63 161.17 132.49 C 162.13 132.50 163.09 132.52 164.06 132.51 L 164.80 132.52 C 166.25 133.42 168.31 133.51 169.40 131.98 C 169.94 132.01 171.02 132.05 171.56 132.07 C 173.29 132.18 175.08 132.38 175.95 134.11 C 175.98 135.73 176.03 137.36 176.11 138.99 C 172.96 138.11 170.52 138.38 168.79 139.80 C 170.51 143.78 166.52 150.21 163.46 145.61 C 165.40 138.09 158.76 138.80 154.00 138.95 C 153.99 136.29 153.99 133.63 153.99 130.97 Z" />
</g>
<g id="#86dfe4ff">
<path fill="#86dfe4" opacity="1.00" d=" M 164.80 132.52 C 165.78 130.86 168.18 130.13 169.40 131.98 C 168.31 133.51 166.25 133.42 164.80 132.52 Z" />
</g>
<g id="#8451a3ff">
<path fill="#8451a3" opacity="1.00" d=" M 95.06 132.76 C 98.08 132.57 101.09 132.92 104.12 133.02 C 101.94 134.20 101.25 136.14 102.05 138.84 C 105.54 140.33 112.02 138.13 110.50 144.59 C 110.97 146.58 112.97 147.11 114.75 146.65 C 115.91 147.04 117.06 147.46 118.21 147.90 C 117.44 147.91 115.90 147.94 115.13 147.95 C 113.51 147.91 111.89 147.83 110.28 147.70 C 107.88 147.42 105.48 147.17 103.08 146.96 C 102.04 143.14 101.37 138.40 96.16 139.86 C 95.80 139.64 95.08 139.21 94.72 138.99 C 94.68 136.86 96.24 134.94 95.06 132.76 Z" />
</g>
<g id="#1b98faff">
<path fill="#1b98fa" opacity="1.00" d=" M 138.96 135.03 C 140.68 132.84 143.61 132.83 146.09 132.01 C 146.25 134.36 146.23 136.76 146.87 139.05 C 144.23 139.03 141.60 139.02 138.97 139.02 C 138.93 137.69 138.93 136.36 138.96 135.03 Z" />
</g>
<g id="#fa9a95ff">
<path fill="#fa9a95" opacity="1.00" d=" M 213.80 133.85 C 225.57 130.87 238.06 132.72 250.00 133.84 L 250.00 161.99 C 240.02 161.66 229.89 162.90 220.00 161.18 C 217.97 161.11 215.96 161.41 213.98 161.85 C 213.82 160.84 213.66 159.84 213.51 158.84 C 215.18 154.31 210.95 152.49 207.19 153.91 C 205.63 149.33 206.92 144.51 206.27 139.83 L 207.23 139.74 C 208.85 139.64 210.47 139.51 212.06 139.16 C 215.06 139.33 213.31 135.71 213.80 133.85 Z" />
</g>
<g id="#b471ddff">
<path fill="#b471dd" opacity="1.00" d=" M 104.12 133.02 C 106.01 132.99 107.91 132.95 109.80 132.87 L 110.76 132.88 C 106.05 143.51 119.52 139.53 125.01 139.97 C 128.16 149.89 119.68 145.22 114.75 146.65 C 112.97 147.11 110.97 146.58 110.50 144.59 C 112.02 138.13 105.54 140.33 102.05 138.84 C 101.25 136.14 101.94 134.20 104.12 133.02 Z" />
</g>
<g id="#5ef810ff">
<path fill="#5ef810" opacity="1.00" d=" M 177.21 139.03 C 175.80 134.66 179.34 131.28 183.47 134.07 C 183.22 135.70 183.06 137.34 182.91 138.98 C 181.01 139.00 179.11 139.01 177.21 139.03 Z" />
</g>
<g id="#a062c7ff">
<path fill="#a062c7" opacity="1.00" d=" M 125.01 139.97 C 129.62 139.13 134.33 139.53 138.95 140.04 C 138.94 141.77 138.93 145.24 138.93 146.98 C 131.99 146.75 125.11 147.49 118.21 147.90 C 117.06 147.46 115.91 147.04 114.75 146.65 C 119.68 145.22 128.16 149.89 125.01 139.97 Z" />
</g>
<g id="#3c4175ff">
<path fill="#3c4175" opacity="1.00" d=" M 138.97 139.02 C 141.60 139.02 144.23 139.03 146.87 139.05 L 147.00 139.96 C 135.87 136.11 141.05 148.26 139.75 154.37 C 139.21 151.96 138.94 149.49 138.93 146.98 C 138.93 145.24 138.94 141.77 138.95 140.04 L 138.97 139.02 Z" />
</g>
<g id="#8b57acff">
<path fill="#8b57ac" opacity="1.00" d=" M 146.87 139.05 C 148.65 139.03 152.22 138.98 154.00 138.95 C 158.76 138.80 165.40 138.09 163.46 145.61 C 166.52 150.21 170.51 143.78 168.79 139.80 C 169.19 144.58 168.82 149.36 167.86 154.05 C 163.32 154.19 158.77 154.60 154.28 155.28 C 156.64 165.43 145.89 159.80 140.73 162.34 C 139.24 162.13 137.76 161.94 136.28 161.76 C 132.31 161.42 130.11 158.16 127.71 155.37 C 123.91 153.03 126.90 160.94 125.04 162.96 C 117.78 159.33 120.04 167.13 116.89 168.89 C 112.11 158.87 125.15 164.97 125.04 159.02 C 129.56 148.80 112.40 159.09 118.21 147.90 C 125.11 147.49 131.99 146.75 138.93 146.98 C 138.94 149.49 139.21 151.96 139.75 154.37 C 144.36 155.68 149.33 154.14 154.04 153.96 C 156.09 154.00 158.14 154.09 160.20 154.03 C 163.88 153.69 161.54 141.57 159.93 140.03 C 155.62 139.88 151.31 140.00 147.00 139.96 L 146.87 139.05 Z" />
</g>
<g id="#5a3670ff">
<path fill="#5a3670" opacity="1.00" d=" M 168.79 139.80 C 170.52 138.38 172.96 138.11 176.11 138.99 L 177.21 139.03 L 176.96 139.97 C 165.47 136.08 172.10 148.39 168.82 154.17 L 167.86 154.05 C 168.82 149.36 169.19 144.58 168.79 139.80 Z" />
</g>
<g id="#4c8b04ff">
<path fill="#4c8b04" opacity="1.00" d=" M 177.21 139.03 C 179.11 139.01 181.01 139.00 182.91 138.98 C 184.70 139.01 188.27 139.08 190.06 139.12 L 190.12 139.79 C 185.73 139.90 181.34 139.99 176.96 139.97 L 177.21 139.03 Z" />
</g>
<g id="#beb85bff">
<path fill="#beb85b" opacity="1.00" d=" M 190.06 139.12 C 192.01 138.64 194.02 138.83 195.96 139.29 C 194.67 139.84 193.32 140.22 191.93 140.42 C 191.48 140.26 190.57 139.95 190.12 139.79 L 190.06 139.12 Z" />
</g>
<g id="#be79e8ff">
<path fill="#be79e8" opacity="1.00" d=" M 195.96 139.29 L 196.72 139.19 C 197.06 139.39 197.73 139.81 198.07 140.01 C 198.89 146.19 193.96 158.71 205.05 154.94 C 205.32 156.44 205.86 159.44 206.13 160.94 C 207.61 164.86 215.53 161.49 212.06 169.14 C 206.78 170.37 207.03 165.59 205.30 162.70 C 184.18 160.23 162.02 163.54 140.73 162.34 C 145.89 159.80 156.64 165.43 154.28 155.28 C 158.77 154.60 163.32 154.19 167.86 154.05 L 168.82 154.17 C 176.34 154.60 184.67 156.12 191.87 153.75 C 192.03 149.30 192.07 144.86 191.93 140.42 C 193.32 140.22 194.67 139.84 195.96 139.29 Z" />
</g>
<g id="#a29b1fff">
<path fill="#a29b1f" opacity="1.00" d=" M 196.72 139.19 L 197.76 139.02 C 200.94 138.93 204.07 139.34 207.23 139.74 L 206.27 139.83 L 205.16 139.91 C 203.42 139.97 201.69 140.02 199.96 140.07 L 198.99 140.07 L 198.07 140.01 C 197.73 139.81 197.06 139.39 196.72 139.19 Z" />
</g>
<g id="#cb82f8ff">
<path fill="#cb82f8" opacity="1.00" d=" M 66.97 144.96 C 66.01 140.83 67.93 139.00 72.04 139.92 C 71.18 146.95 76.54 147.66 81.10 150.08 C 81.82 154.12 79.33 154.99 75.18 154.12 C 72.78 154.36 70.36 154.51 67.96 154.21 C 64.06 155.70 55.33 153.44 58.92 147.93 C 60.96 147.91 63.01 147.94 65.06 147.97 C 67.02 148.62 67.53 146.35 66.97 144.96 Z" />
</g>
<g id="#8858b0ff">
<path fill="#8858b0" opacity="1.00" d=" M 72.04 139.92 C 72.56 139.92 73.59 139.92 74.11 139.92 C 74.05 143.40 74.17 147.27 79.01 145.97 C 80.19 146.37 81.33 146.89 82.39 147.57 C 82.07 148.20 81.42 149.45 81.10 150.08 C 76.54 147.66 71.18 146.95 72.04 139.92 Z" />
</g>
<g id="#322d6aff">
<path fill="#322d6a" opacity="1.00" d=" M 79.01 145.97 C 81.55 144.91 79.30 139.62 82.15 140.03 C 89.16 136.84 86.35 143.73 88.20 146.72 C 90.34 147.37 94.67 146.30 95.03 149.04 C 98.63 158.23 85.71 151.72 85.55 158.71 C 80.90 158.22 90.11 148.86 82.39 147.57 C 81.33 146.89 80.19 146.37 79.01 145.97 Z" />
</g>
<g id="#06050aff">
<path fill="#06050a" opacity="1.00" d=" M 90.25 140.10 C 96.95 135.08 96.96 147.10 92.00 146.05 C 88.62 146.77 87.85 141.58 90.25 140.10 Z" />
</g>
<g id="#55336bff">
<path fill="#55336b" opacity="1.00" d=" M 96.16 139.86 C 101.37 138.40 102.04 143.14 103.08 146.96 C 97.55 147.78 93.24 147.30 96.16 139.86 Z" />
</g>
<g id="#08050aff">
<path fill="#08050a" opacity="1.00" d=" M 139.75 154.37 C 141.05 148.26 135.87 136.11 147.00 139.96 C 151.31 140.00 155.62 139.88 159.93 140.03 C 159.93 144.69 160.61 149.37 160.20 154.03 C 158.14 154.09 156.09 154.00 154.04 153.96 C 154.32 150.54 155.10 146.32 150.88 146.04 C 143.66 144.56 149.32 158.87 139.75 154.37 Z" />
</g>
<g id="#402650ff">
<path fill="#402650" opacity="1.00" d=" M 159.93 140.03 C 161.54 141.57 163.88 153.69 160.20 154.03 C 160.61 149.37 159.93 144.69 159.93 140.03 Z" />
</g>
<g id="#0c080fff">
<path fill="#0c080f" opacity="1.00" d=" M 168.82 154.17 C 172.10 148.39 165.47 136.08 176.96 139.97 C 181.34 139.99 185.73 139.90 190.12 139.79 C 188.98 144.18 192.07 150.32 188.73 153.94 C 182.61 157.24 182.92 150.25 183.70 147.29 C 181.78 143.31 174.53 146.88 176.28 150.84 C 177.95 155.33 171.74 153.87 168.82 154.17 Z" />
</g>
<g id="#653e7eff">
<path fill="#653e7e" opacity="1.00" d=" M 190.12 139.79 C 190.57 139.95 191.48 140.26 191.93 140.42 C 192.07 144.86 192.03 149.30 191.87 153.75 C 184.67 156.12 176.34 154.60 168.82 154.17 C 171.74 153.87 177.95 155.33 176.28 150.84 C 174.53 146.88 181.78 143.31 183.70 147.29 C 182.92 150.25 182.61 157.24 188.73 153.94 C 192.07 150.32 188.98 144.18 190.12 139.79 Z" />
</g>
<g id="#8952abff">
<path fill="#8952ab" opacity="1.00" d=" M 198.07 140.01 L 198.99 140.07 C 200.52 143.73 196.06 153.25 200.92 154.03 C 201.74 154.01 203.38 153.98 204.19 153.96 C 204.41 154.21 204.84 154.70 205.05 154.94 C 193.96 158.71 198.89 146.19 198.07 140.01 Z" />
</g>
<g id="#4c2f5eff">
<path fill="#4c2f5e" opacity="1.00" d=" M 198.99 140.07 L 199.96 140.07 C 200.39 144.66 198.97 149.66 200.92 154.03 C 196.06 153.25 200.52 143.73 198.99 140.07 Z" />
</g>
<g id="#110a0dff">
<path fill="#110a0d" opacity="1.00" d=" M 199.96 140.07 C 201.69 140.02 203.42 139.97 205.16 139.91 C 204.74 144.56 205.74 149.45 204.19 153.96 C 203.38 153.98 201.74 154.01 200.92 154.03 C 198.97 149.66 200.39 144.66 199.96 140.07 Z" />
</g>
<g id="#6d474fff">
<path fill="#6d474f" opacity="1.00" d=" M 205.16 139.91 L 206.27 139.83 C 206.92 144.51 205.63 149.33 207.19 153.91 C 210.95 152.49 215.18 154.31 213.51 158.84 C 212.82 162.22 208.63 161.52 206.13 160.94 C 205.86 159.44 205.32 156.44 205.05 154.94 C 204.84 154.70 204.41 154.21 204.19 153.96 C 205.74 149.45 204.74 144.56 205.16 139.91 M 207.00 155.00 L 207.00 160.00 L 212.00 160.00 L 212.00 155.00 L 207.00 155.00 Z" />
</g>
<g id="#a869cfff">
<path fill="#a869cf" opacity="1.00" d=" M 64.65 147.16 C 65.15 146.14 65.92 145.41 66.97 144.96 C 67.53 146.35 67.02 148.62 65.06 147.97 L 64.65 147.16 Z" />
</g>
<g id="#4e2e61ff">
<path fill="#4e2e61" opacity="1.00" d=" M 139.75 154.37 C 149.32 158.87 143.66 144.56 150.88 146.04 C 155.10 146.32 154.32 150.54 154.04 153.96 C 149.33 154.14 144.36 155.68 139.75 154.37 Z" />
</g>
<g id="#121026ff">
<path fill="#121026" opacity="1.00" d=" M 14.97 148.16 C 17.17 148.92 19.81 147.92 21.79 149.18 C 23.53 152.43 24.52 156.76 29.98 154.07 C 38.12 157.24 34.00 150.42 36.71 147.78 C 40.16 147.44 43.36 147.61 43.91 151.34 C 43.28 155.38 47.83 153.28 50.13 154.87 C 50.33 157.60 50.14 160.41 50.88 163.09 C 51.55 167.17 53.56 171.35 58.99 169.01 C 60.90 180.97 47.49 171.98 44.03 178.02 C 46.79 184.64 41.64 184.68 37.73 183.22 C 39.94 175.55 35.15 169.18 35.93 162.15 C 29.65 161.79 23.33 160.83 17.08 161.91 C 13.13 161.26 15.01 155.06 10.82 154.40 C 14.70 154.67 15.63 151.32 14.97 148.16 Z" />
<path fill="#121026" opacity="1.00" d=" M 122.18 206.30 C 123.10 206.44 124.02 206.63 124.93 206.86 C 124.96 208.21 124.99 209.56 125.02 210.91 C 123.73 216.44 131.09 212.98 134.28 214.65 C 128.19 212.58 120.71 215.98 126.18 221.89 C 135.42 220.63 144.71 221.26 153.98 221.16 C 154.93 223.38 155.67 226.42 152.81 227.55 C 148.63 227.41 144.32 226.72 140.28 228.23 C 141.87 232.07 137.65 238.52 133.76 235.30 C 133.76 231.18 130.80 225.45 125.97 227.63 C 125.96 222.87 123.77 219.82 119.10 221.00 C 116.39 221.05 113.68 221.04 110.98 220.96 C 111.22 218.01 109.62 213.50 113.86 213.74 C 119.45 213.88 116.45 205.79 122.18 206.30 Z" />
</g>
<g id="#b774e0ff">
<path fill="#b774e0" opacity="1.00" d=" M 50.19 152.86 C 50.59 148.32 54.07 146.09 58.92 147.93 C 55.33 153.44 64.06 155.70 67.96 154.21 C 69.58 159.88 61.79 164.67 58.50 159.56 C 59.80 153.42 53.34 154.99 50.19 152.86 Z" />
</g>
<g id="#050308ff">
<path fill="#050308" opacity="1.00" d=" M 96.01 153.95 C 92.42 143.74 105.26 149.39 110.28 147.70 C 111.89 147.83 113.51 147.91 115.13 147.95 C 119.85 159.39 102.06 152.03 96.01 153.95 Z" />
</g>
<g id="#0c0a17ff">
<path fill="#0c0a17" opacity="1.00" d=" M 74.69 154.74 C 76.28 154.84 79.45 155.06 81.04 155.16 C 84.00 164.11 72.00 161.69 74.69 154.74 Z" />
</g>
<g id="#07060eff">
<path fill="#07060e" opacity="1.00" d=" M 119.25 155.10 L 123.99 154.98 C 128.60 164.40 112.72 160.44 119.25 155.10 Z" />
</g>
<g id="#b371dbff">
<path fill="#b371db" opacity="1.00" d=" M 125.04 162.96 C 126.90 160.94 123.91 153.03 127.71 155.37 C 130.11 158.16 132.31 161.42 136.28 161.76 C 133.15 162.49 130.60 164.19 130.56 167.69 C 126.32 168.18 121.36 171.93 125.96 175.84 C 125.70 176.11 125.19 176.65 124.93 176.92 C 123.01 179.12 126.03 187.46 120.62 184.44 C 115.30 182.36 118.96 174.35 117.13 170.29 C 121.06 169.15 124.91 167.67 125.04 162.96 Z" />
</g>
<g id="#070406ff">
<path fill="#070406" opacity="1.00" d=" M 207.00 155.00 L 212.00 155.00 L 212.00 160.00 L 207.00 160.00 L 207.00 155.00 Z" />
</g>
<g id="#8c58a5ff">
<path fill="#8c58a5" opacity="1.00" d=" M 213.51 158.84 C 213.66 159.84 213.82 160.84 213.98 161.85 C 214.03 168.95 213.65 176.11 214.77 183.16 L 214.64 183.93 C 214.20 185.73 213.87 187.55 213.56 189.38 L 213.07 188.78 C 212.63 185.99 214.44 180.52 208.02 183.98 C 204.46 183.49 206.04 188.68 205.83 190.98 C 200.78 191.39 198.73 187.84 196.99 184.03 C 199.70 183.83 202.79 184.82 205.20 183.25 C 205.49 181.62 206.05 178.36 206.34 176.73 C 205.38 182.01 207.23 184.09 211.88 182.97 C 212.54 178.38 212.57 173.73 212.06 169.14 C 215.53 161.49 207.61 164.86 206.13 160.94 C 208.63 161.52 212.82 162.22 213.51 158.84 Z" />
</g>
<g id="#65404eff">
<path fill="#65404e" opacity="1.00" d=" M 213.98 161.85 C 215.96 161.41 217.97 161.11 220.00 161.18 C 223.57 166.93 219.93 174.30 221.49 180.65 C 222.14 184.62 217.38 185.03 214.64 183.93 L 214.77 183.16 C 225.44 184.95 217.81 168.98 219.93 163.01 C 210.13 161.70 216.72 176.33 214.77 183.16 C 213.65 176.11 214.03 168.95 213.98 161.85 Z" />
</g>
<g id="#f98b86ff">
<path fill="#f98b86" opacity="1.00" d=" M 220.00 161.18 C 229.89 162.90 240.02 161.66 250.00 161.99 L 250.00 192.00 C 240.36 191.72 230.74 192.30 221.11 192.45 C 218.33 192.56 215.14 191.92 213.56 189.38 C 213.87 187.55 214.20 185.73 214.64 183.93 C 217.38 185.03 222.14 184.62 221.49 180.65 C 219.93 174.30 223.57 166.93 220.00 161.18 Z" />
</g>
<g id="#06040bff">
<path fill="#06040b" opacity="1.00" d=" M 110.00 167.99 C 109.61 164.54 110.24 159.20 115.98 161.99 C 117.67 167.58 115.68 169.58 110.00 167.99 Z" />
</g>
<g id="#cd82fbff">
<path fill="#cd82fb" opacity="1.00" d=" M 130.56 167.69 C 130.60 164.19 133.15 162.49 136.28 161.76 C 137.76 161.94 139.24 162.13 140.73 162.34 C 162.02 163.54 184.18 160.23 205.30 162.70 C 207.03 165.59 206.78 170.37 212.06 169.14 C 212.57 173.73 212.54 178.38 211.88 182.97 C 207.23 184.09 205.38 182.01 206.34 176.73 C 179.75 174.87 152.71 176.74 125.96 175.84 C 121.36 171.93 126.32 168.18 130.56 167.69 Z" />
</g>
<g id="#040309ff">
<path fill="#040309" opacity="1.00" d=" M 50.88 163.09 C 58.26 162.99 65.65 162.87 73.04 163.07 C 72.81 164.58 72.35 167.59 72.12 169.09 C 67.74 169.17 63.36 169.00 58.99 169.01 C 53.56 171.35 51.55 167.17 50.88 163.09 Z" />
</g>
<g id="#2b275dff">
<path fill="#2b275d" opacity="1.00" d=" M 72.12 169.09 C 76.39 168.83 72.27 158.87 79.75 163.03 C 83.41 165.63 78.28 172.65 82.42 174.52 C 91.57 173.25 88.40 184.03 95.71 185.95 C 95.76 186.46 95.86 187.46 95.91 187.96 C 95.11 192.54 100.03 191.78 103.01 193.15 C 102.69 201.66 85.85 196.06 90.97 207.99 C 90.65 212.57 98.55 211.36 97.37 216.36 C 96.87 219.71 100.89 219.56 100.27 216.14 C 99.82 210.65 111.16 207.78 109.99 213.94 C 108.37 215.10 105.12 217.42 103.50 218.58 C 102.27 222.79 94.71 219.15 94.15 224.09 C 94.92 228.28 92.97 235.25 98.39 236.69 C 104.37 237.23 110.53 236.52 116.33 235.34 C 117.36 230.58 118.59 225.85 119.10 221.00 C 123.77 219.82 125.96 222.87 125.97 227.63 C 130.80 225.45 133.76 231.18 133.76 235.30 C 137.65 238.52 141.87 232.07 140.28 228.23 C 144.32 226.72 148.63 227.41 152.81 227.55 C 155.67 226.42 154.93 223.38 153.98 221.16 C 160.82 218.87 162.30 221.47 163.20 227.02 C 172.41 231.94 165.02 216.26 174.02 221.00 C 177.39 220.93 180.78 220.98 184.16 221.07 C 185.32 229.78 175.02 227.63 171.38 233.86 C 171.35 228.13 162.57 226.72 160.97 232.08 C 160.29 236.50 167.90 235.70 166.83 239.70 C 163.70 242.75 156.58 244.65 160.07 250.00 L 145.83 250.00 C 142.86 241.57 158.28 243.10 152.73 235.12 C 147.98 235.55 137.78 231.77 139.84 240.89 C 138.79 245.65 131.92 242.78 128.88 241.32 C 120.37 242.48 111.75 240.37 103.30 242.30 C 100.39 243.75 100.95 247.18 100.86 250.00 L 96.13 250.00 C 99.12 241.05 90.17 242.84 85.00 242.93 C 78.36 239.92 79.80 247.19 76.95 250.00 L 75.97 250.00 C 75.20 245.76 74.64 241.45 75.03 237.14 C 79.04 234.76 91.39 237.11 86.85 230.19 C 81.03 228.82 73.14 226.42 67.41 229.35 C 69.18 237.94 58.97 232.86 56.18 238.27 C 55.96 242.20 56.86 246.08 57.14 250.00 L 52.95 250.00 C 56.79 243.25 48.72 242.51 43.98 243.13 C 43.88 240.06 40.82 234.68 45.38 234.48 C 51.99 234.31 48.45 221.92 58.00 225.85 C 57.33 221.03 51.33 223.05 49.17 219.68 C 48.77 213.46 49.28 207.22 48.89 201.01 C 44.19 199.36 47.62 206.56 43.87 206.78 C 35.60 207.49 35.67 218.39 38.82 224.17 C 40.16 230.15 32.11 231.58 28.76 227.72 C 28.75 226.06 28.74 222.72 28.73 221.05 C 29.42 215.39 26.35 205.75 33.22 203.12 C 36.94 200.08 25.26 199.03 24.51 201.41 C 24.49 207.19 11.94 211.73 14.98 202.03 C 11.12 194.52 23.09 198.69 20.55 191.44 C 20.96 188.00 27.53 190.06 26.91 186.35 C 23.29 186.53 21.53 184.20 21.25 180.82 C 20.60 178.77 21.67 176.90 23.96 177.03 C 18.62 184.20 32.73 181.73 29.77 188.70 C 28.96 192.68 21.59 191.04 22.98 195.90 C 24.60 201.06 33.01 195.71 36.23 198.73 C 37.52 201.08 37.05 204.89 40.18 205.74 C 43.24 205.56 44.73 202.28 44.55 199.43 C 45.11 195.73 51.02 197.56 51.40 200.65 C 52.57 206.56 51.55 212.77 52.13 218.80 C 54.28 220.18 56.93 220.62 58.96 222.23 C 63.09 230.58 47.59 226.28 51.99 235.03 C 58.67 238.31 58.81 230.96 62.89 228.84 C 71.40 225.31 66.71 215.32 68.20 208.28 C 72.43 205.83 81.76 203.10 81.88 210.13 C 82.27 216.65 67.18 211.49 71.94 219.98 C 80.01 218.61 80.95 231.35 89.35 226.32 C 90.50 216.20 85.03 204.20 89.78 194.10 C 87.90 189.08 90.29 181.75 86.26 177.76 C 78.26 175.81 69.04 172.28 61.11 176.09 C 55.58 177.69 49.53 176.06 44.03 178.02 C 47.49 171.98 60.90 180.97 58.99 169.01 C 63.36 169.00 67.74 169.17 72.12 169.09 Z" />
</g>
<g id="#9f63c5ff">
<path fill="#9f63c5" opacity="1.00" d=" M 116.89 168.89 C 120.04 167.13 117.78 159.33 125.04 162.96 C 124.91 167.67 121.06 169.15 117.13 170.29 C 118.96 174.35 115.30 182.36 120.62 184.44 C 126.03 187.46 123.01 179.12 124.93 176.92 C 124.92 178.95 124.95 180.98 124.99 183.01 L 124.99 184.00 C 123.14 189.81 124.81 192.16 130.00 191.05 C 138.38 189.76 152.68 194.92 156.03 183.98 C 169.68 184.03 183.33 183.93 196.99 184.03 C 198.73 187.84 200.78 191.39 205.83 190.98 C 205.87 192.74 205.95 196.26 205.98 198.02 L 205.97 198.98 C 195.45 194.01 202.44 209.72 192.68 205.82 L 193.18 205.14 C 197.72 206.13 197.42 201.45 198.38 198.38 C 201.37 196.95 207.80 198.32 204.97 192.23 C 193.85 190.96 182.65 190.77 171.46 191.01 C 163.24 188.85 154.63 190.17 146.71 192.67 C 147.01 198.03 141.95 197.46 139.13 200.30 C 136.68 206.84 143.96 208.19 148.35 206.39 C 151.47 206.14 154.64 205.99 157.76 205.59 C 160.91 206.38 161.31 209.14 161.10 211.98 C 151.49 211.81 141.84 212.44 132.25 211.85 C 129.28 207.35 134.12 198.06 125.65 198.31 C 127.39 191.66 122.45 191.99 118.25 190.81 C 114.43 186.77 119.94 174.58 110.99 176.93 C 110.98 172.49 109.34 166.22 116.89 168.89 Z" />
</g>
<g id="#0b0708ff">
<path fill="#0b0708" opacity="1.00" d=" M 214.77 183.16 C 216.72 176.33 210.13 161.70 219.93 163.01 C 217.81 168.98 225.44 184.95 214.77 183.16 Z" />
</g>
<g id="#0a0814ff">
<path fill="#0a0814" opacity="1.00" d=" M 103.67 177.46 C 102.70 173.28 104.11 164.91 110.00 167.99 C 110.44 177.92 108.80 189.06 110.96 198.02 C 114.27 198.81 117.95 199.60 117.34 203.93 C 114.89 208.19 109.49 204.82 105.76 204.47 C 102.92 203.73 99.20 206.33 97.09 203.77 C 95.37 197.03 108.74 204.89 104.08 194.96 C 104.92 189.88 98.69 190.34 95.91 187.96 C 95.86 187.46 95.76 186.46 95.71 185.95 C 99.73 185.02 107.02 183.87 103.67 177.46 Z" />
</g>
<g id="#353070ff">
<path fill="#353070" opacity="1.00" d=" M 31.17 168.98 C 38.85 168.12 35.87 178.83 37.73 183.22 C 41.64 184.68 46.79 184.64 44.03 178.02 C 49.53 176.06 55.58 177.69 61.11 176.09 C 69.04 172.28 78.26 175.81 86.26 177.76 C 90.29 181.75 87.90 189.08 89.78 194.10 C 85.03 204.20 90.50 216.20 89.35 226.32 C 80.95 231.35 80.01 218.61 71.94 219.98 C 67.18 211.49 82.27 216.65 81.88 210.13 C 81.76 203.10 72.43 205.83 68.20 208.28 C 66.71 215.32 71.40 225.31 62.89 228.84 C 58.81 230.96 58.67 238.31 51.99 235.03 C 47.59 226.28 63.09 230.58 58.96 222.23 C 56.93 220.62 54.28 220.18 52.13 218.80 C 51.55 212.77 52.57 206.56 51.40 200.65 C 51.02 197.56 45.11 195.73 44.55 199.43 C 44.73 202.28 43.24 205.56 40.18 205.74 C 37.05 204.89 37.52 201.08 36.23 198.73 C 33.01 195.71 24.60 201.06 22.98 195.90 C 21.59 191.04 28.96 192.68 29.77 188.70 C 32.73 181.73 18.62 184.20 23.96 177.03 C 29.22 177.63 29.38 172.44 31.17 168.98 Z" />
</g>
<g id="#8e58aeff">
<path fill="#8e58ae" opacity="1.00" d=" M 124.93 176.92 C 125.19 176.65 125.70 176.11 125.96 175.84 C 152.71 176.74 179.75 174.87 206.34 176.73 C 179.21 177.26 152.06 176.97 124.93 176.92 Z" />
</g>
<g id="#8854a8ff">
<path fill="#8854a8" opacity="1.00" d=" M 110.99 176.93 C 119.94 174.58 114.43 186.77 118.25 190.81 C 122.45 191.99 127.39 191.66 125.65 198.31 C 134.12 198.06 129.28 207.35 132.25 211.85 C 141.84 212.44 151.49 211.81 161.10 211.98 C 171.06 212.03 181.03 212.00 190.99 212.00 C 191.00 212.46 191.01 213.38 191.02 213.85 C 173.20 214.66 155.38 212.61 137.57 213.45 C 133.67 212.25 127.45 215.21 125.02 210.91 C 124.99 209.56 124.96 208.21 124.93 206.86 C 124.73 203.68 125.41 198.17 120.65 199.20 C 112.69 199.17 121.29 187.74 111.02 191.95 C 110.98 186.94 110.97 181.93 110.99 176.93 Z" />
</g>
<g id="#352240ff">
<path fill="#352240" opacity="1.00" d=" M 124.93 176.92 C 152.06 176.97 179.21 177.26 206.34 176.73 C 206.05 178.36 205.49 181.62 205.20 183.25 C 204.69 183.22 203.67 183.18 203.16 183.16 C 203.69 181.51 204.10 179.82 204.07 178.08 C 178.08 177.97 152.09 177.89 126.12 178.10 C 125.98 179.72 125.97 181.35 125.95 182.99 L 124.99 183.01 C 124.95 180.98 124.92 178.95 124.93 176.92 Z" />
</g>
<g id="#030204ff">
<path fill="#030204" opacity="1.00" d=" M 126.12 178.10 C 152.09 177.89 178.08 177.97 204.07 178.08 C 204.10 179.82 203.69 181.51 203.16 183.16 C 177.42 182.79 151.69 183.11 125.95 182.99 C 125.97 181.35 125.98 179.72 126.12 178.10 Z" />
</g>
<g id="#211d48ff">
<path fill="#211d48" opacity="1.00" d=" M 21.25 180.82 C 21.53 184.20 23.29 186.53 26.91 186.35 C 27.53 190.06 20.96 188.00 20.55 191.44 C 23.09 198.69 11.12 194.52 14.98 202.03 C 11.94 211.73 24.49 207.19 24.51 201.41 C 25.26 199.03 36.94 200.08 33.22 203.12 C 26.35 205.75 29.42 215.39 28.73 221.05 C 22.72 220.77 13.39 224.25 12.89 215.11 C 7.99 214.56 6.89 210.99 8.23 206.41 C 11.29 205.51 15.34 204.27 14.00 200.19 C 9.31 200.06 4.65 199.54 0.00 198.92 L 0.00 189.80 C 1.97 190.14 3.92 190.60 5.89 190.88 C 7.24 188.40 6.63 184.81 9.29 183.26 C 13.02 182.30 20.68 187.01 21.25 180.82 Z" />
</g>
<g id="#513263ff">
<path fill="#513263" opacity="1.00" d=" M 124.99 183.01 L 125.95 182.99 C 151.69 183.11 177.42 182.79 203.16 183.16 C 203.67 183.18 204.69 183.22 205.20 183.25 C 202.79 184.82 199.70 183.83 196.99 184.03 C 183.33 183.93 169.68 184.03 156.03 183.98 C 145.68 183.99 135.34 184.00 124.99 184.00 L 124.99 183.01 Z" />
</g>
<g id="#8955abff">
<path fill="#8955ab" opacity="1.00" d=" M 124.99 184.00 C 135.34 184.00 145.68 183.99 156.03 183.98 C 152.68 194.92 138.38 189.76 130.00 191.05 C 124.81 192.16 123.14 189.81 124.99 184.00 Z" />
</g>
<g id="#4f3148ff">
<path fill="#4f3148" opacity="1.00" d=" M 205.83 190.98 C 206.04 188.68 204.46 183.49 208.02 183.98 C 214.44 180.52 212.63 185.99 213.07 188.78 C 211.77 191.09 215.17 198.12 211.14 198.05 C 211.08 194.30 215.17 185.65 209.20 185.35 C 204.24 186.71 208.17 194.19 206.97 198.02 L 205.98 198.02 C 205.95 196.26 205.87 192.74 205.83 190.98 Z" />
</g>
<g id="#070505ff">
<path fill="#070505" opacity="1.00" d=" M 209.20 185.35 C 215.17 185.65 211.08 194.30 211.14 198.05 C 209.75 198.08 208.36 198.07 206.97 198.02 C 208.17 194.19 204.24 186.71 209.20 185.35 Z" />
</g>
<g id="#201d46ff">
<path fill="#201d46" opacity="1.00" d=" M 95.91 187.96 C 98.69 190.34 104.92 189.88 104.08 194.96 C 108.74 204.89 95.37 197.03 97.09 203.77 C 99.20 206.33 102.92 203.73 105.76 204.47 C 109.49 204.82 114.89 208.19 117.34 203.93 C 117.96 206.16 120.32 205.95 122.18 206.30 C 116.45 205.79 119.45 213.88 113.86 213.74 C 109.62 213.50 111.22 218.01 110.98 220.96 C 109.87 219.35 109.54 217.01 109.99 213.94 C 111.16 207.78 99.82 210.65 100.27 216.14 C 100.89 219.56 96.87 219.71 97.37 216.36 C 98.55 211.36 90.65 212.57 90.97 207.99 C 85.85 196.06 102.69 201.66 103.01 193.15 C 100.03 191.78 95.11 192.54 95.91 187.96 Z" />
</g>
<g id="#f97c76ff">
<path fill="#f97c76" opacity="1.00" d=" M 213.07 188.78 L 213.56 189.38 C 215.14 191.92 218.33 192.56 221.11 192.45 C 230.74 192.30 240.36 191.72 250.00 192.00 L 250.00 250.00 L 236.00 250.00 C 235.44 245.32 237.27 240.14 235.28 235.72 C 223.04 238.13 231.60 224.78 226.63 220.46 C 219.83 222.49 221.22 217.11 220.79 213.14 C 218.19 212.13 212.73 213.82 213.46 209.35 C 214.95 205.28 209.29 204.93 206.76 206.24 C 206.44 203.82 206.18 201.40 205.97 198.98 L 205.98 198.02 L 206.97 198.02 C 208.36 198.07 209.75 198.08 211.14 198.05 C 215.17 198.12 211.77 191.09 213.07 188.78 Z" />
</g>
<g id="#b572deff">
<path fill="#b572de" opacity="1.00" d=" M 146.71 192.67 C 154.63 190.17 163.24 188.85 171.46 191.01 C 165.53 194.13 154.00 187.55 152.47 196.45 C 148.13 197.41 143.74 202.93 148.35 206.39 C 143.96 208.19 136.68 206.84 139.13 200.30 C 141.95 197.46 147.01 198.03 146.71 192.67 Z" />
</g>
<g id="#cc82faff">
<path fill="#cc82fa" opacity="1.00" d=" M 171.46 191.01 C 182.65 190.77 193.85 190.96 204.97 192.23 C 207.80 198.32 201.37 196.95 198.38 198.38 C 197.42 201.45 197.72 206.13 193.18 205.14 C 181.41 206.54 169.51 206.01 157.76 205.59 C 154.64 205.99 151.47 206.14 148.35 206.39 C 143.74 202.93 148.13 197.41 152.47 196.45 C 154.00 187.55 165.53 194.13 171.46 191.01 Z" />
</g>
<g id="#533267ff">
<path fill="#533267" opacity="1.00" d=" M 111.02 191.95 C 121.29 187.74 112.69 199.17 120.65 199.20 C 125.41 198.17 124.73 203.68 124.93 206.86 C 124.02 206.63 123.10 206.44 122.18 206.30 C 120.32 205.95 117.96 206.16 117.34 203.93 C 117.95 199.60 114.27 198.81 110.96 198.02 C 110.96 195.99 110.98 193.97 111.02 191.95 Z" />
</g>
<g id="#171533ff">
<path fill="#171533" opacity="1.00" d=" M 0.00 198.92 C 4.65 199.54 9.31 200.06 14.00 200.19 C 15.34 204.27 11.29 205.51 8.23 206.41 C 6.89 210.99 7.99 214.56 12.89 215.11 C 13.39 224.25 22.72 220.77 28.73 221.05 C 28.74 222.72 28.75 226.06 28.76 227.72 C 27.72 232.51 31.08 239.35 26.02 242.12 C 20.62 240.85 24.84 230.59 16.08 235.00 C 8.76 240.26 21.11 244.38 22.17 250.00 L 0.00 250.00 L 0.00 198.92 Z" />
</g>
<g id="#553451ff">
<path fill="#553451" opacity="1.00" d=" M 192.68 205.82 C 202.44 209.72 195.45 194.01 205.97 198.98 C 206.18 201.40 206.44 203.82 206.76 206.24 C 203.72 204.81 205.68 197.96 200.26 200.03 C 202.58 207.17 196.71 207.61 191.82 206.96 C 192.03 206.68 192.46 206.11 192.68 205.82 Z" />
</g>
<g id="#120e21ff">
<path fill="#120e21" opacity="1.00" d=" M 200.26 200.03 C 205.68 197.96 203.72 204.81 206.76 206.24 C 214.61 204.09 209.92 216.04 216.78 214.73 C 220.74 213.90 220.06 217.58 219.88 220.37 C 218.22 220.68 216.56 220.96 214.88 221.18 C 211.98 219.61 206.87 222.28 205.75 218.33 C 204.61 209.17 188.13 218.34 191.82 206.96 C 196.71 207.61 202.58 207.17 200.26 200.03 Z" />
</g>
<g id="#221f4bff">
<path fill="#221f4b" opacity="1.00" d=" M 43.87 206.78 C 47.62 206.56 44.19 199.36 48.89 201.01 C 49.28 207.22 48.77 213.46 49.17 219.68 C 51.33 223.05 57.33 221.03 58.00 225.85 C 48.45 221.92 51.99 234.31 45.38 234.48 C 40.82 234.68 43.88 240.06 43.98 243.13 C 38.22 244.93 27.15 238.71 29.86 250.00 L 22.17 250.00 C 21.11 244.38 8.76 240.26 16.08 235.00 C 24.84 230.59 20.62 240.85 26.02 242.12 C 31.08 239.35 27.72 232.51 28.76 227.72 C 32.11 231.58 40.16 230.15 38.82 224.17 C 35.67 218.39 35.60 207.49 43.87 206.78 Z" />
</g>
<g id="#7f453fff">
<path fill="#7f453f" opacity="1.00" d=" M 206.76 206.24 C 209.29 204.93 214.95 205.28 213.46 209.35 C 212.73 213.82 218.19 212.13 220.79 213.14 C 221.22 217.11 219.83 222.49 226.63 220.46 C 231.60 224.78 223.04 238.13 235.28 235.72 C 233.44 235.81 229.77 236.00 227.93 236.10 C 227.59 235.04 227.26 233.97 226.96 232.91 C 226.01 229.14 229.82 220.24 223.10 220.93 C 222.02 220.77 220.95 220.58 219.88 220.37 C 220.06 217.58 220.74 213.90 216.78 214.73 C 209.92 216.04 214.61 204.09 206.76 206.24 Z" />
</g>
<g id="#332e6cff">
<path fill="#332e6c" opacity="1.00" d=" M 190.99 212.00 C 191.13 210.31 190.63 208.37 191.82 206.96 C 188.13 218.34 204.61 209.17 205.75 218.33 C 206.87 222.28 211.98 219.61 214.88 221.18 C 213.03 227.05 223.04 225.60 220.04 232.05 C 221.07 235.61 218.47 236.16 215.68 236.72 C 213.99 240.76 214.33 245.58 213.88 250.00 L 160.07 250.00 C 156.58 244.65 163.70 242.75 166.83 239.70 C 167.90 235.70 160.29 236.50 160.97 232.08 C 162.57 226.72 171.35 228.13 171.38 233.86 C 175.02 227.63 185.32 229.78 184.16 221.07 C 189.66 223.31 190.97 218.91 191.01 214.92 L 191.02 213.85 C 191.01 213.38 191.00 212.46 190.99 212.00 M 207.22 228.21 C 202.05 233.03 208.60 238.25 212.88 234.78 C 215.23 230.17 210.77 227.65 207.22 228.21 Z" />
</g>
<g id="#442954ff">
<path fill="#442954" opacity="1.00" d=" M 125.02 210.91 C 127.45 215.21 133.67 212.25 137.57 213.45 C 155.38 212.61 173.20 214.66 191.02 213.85 L 191.01 214.92 C 172.11 214.91 153.18 215.37 134.28 214.65 C 131.09 212.98 123.73 216.44 125.02 210.91 Z" />
</g>
<g id="#353071ff">
<path fill="#353071" opacity="1.00" d=" M 103.50 218.58 C 105.12 217.42 108.37 215.10 109.99 213.94 C 109.54 217.01 109.87 219.35 110.98 220.96 C 113.68 221.04 116.39 221.05 119.10 221.00 C 118.59 225.85 117.36 230.58 116.33 235.34 C 110.53 236.52 104.37 237.23 98.39 236.69 C 92.97 235.25 94.92 228.28 94.15 224.09 C 94.71 219.15 102.27 222.79 103.50 218.58 Z" />
</g>
<g id="#06050dff">
<path fill="#06050d" opacity="1.00" d=" M 126.18 221.89 C 120.71 215.98 128.19 212.58 134.28 214.65 C 153.18 215.37 172.11 214.91 191.01 214.92 C 190.97 218.91 189.66 223.31 184.16 221.07 C 180.78 220.98 177.39 220.93 174.02 221.00 C 165.02 216.26 172.41 231.94 163.20 227.02 C 162.30 221.47 160.82 218.87 153.98 221.16 C 144.71 221.26 135.42 220.63 126.18 221.89 Z" />
</g>
<g id="#1c1a3eff">
<path fill="#1c1a3e" opacity="1.00" d=" M 214.88 221.18 C 216.56 220.96 218.22 220.68 219.88 220.37 C 220.95 220.58 222.02 220.77 223.10 220.93 C 218.21 224.31 219.60 241.18 226.96 232.91 C 227.26 233.97 227.59 235.04 227.93 236.10 C 228.37 240.68 227.07 245.60 228.87 250.00 L 213.88 250.00 C 214.33 245.58 213.99 240.76 215.68 236.72 C 218.47 236.16 221.07 235.61 220.04 232.05 C 223.04 225.60 213.03 227.05 214.88 221.18 Z" />
</g>
<g id="#080507ff">
<path fill="#080507" opacity="1.00" d=" M 223.10 220.93 C 229.82 220.24 226.01 229.14 226.96 232.91 C 219.60 241.18 218.21 224.31 223.10 220.93 Z" />
</g>
<g id="#181635ff">
<path fill="#181635" opacity="1.00" d=" M 67.41 229.35 C 73.14 226.42 81.03 228.82 86.85 230.19 C 91.39 237.11 79.04 234.76 75.03 237.14 C 74.64 241.45 75.20 245.76 75.97 250.00 L 57.14 250.00 C 56.86 246.08 55.96 242.20 56.18 238.27 C 58.97 232.86 69.18 237.94 67.41 229.35 Z" />
</g>
<g id="#1e1a3fff">
<path fill="#1e1a3f" opacity="1.00" d=" M 207.22 228.21 C 210.77 227.65 215.23 230.17 212.88 234.78 C 208.60 238.25 202.05 233.03 207.22 228.21 Z" />
</g>
<g id="#353171ff">
<path fill="#353171" opacity="1.00" d=" M 139.84 240.89 C 137.78 231.77 147.98 235.55 152.73 235.12 C 158.28 243.10 142.86 241.57 145.83 250.00 L 100.86 250.00 C 100.95 247.18 100.39 243.75 103.30 242.30 C 111.75 240.37 120.37 242.48 128.88 241.32 C 131.92 242.78 138.79 245.65 139.84 240.89 Z" />
</g>
<g id="#8d3e44ff">
<path fill="#8d3e44" opacity="1.00" d=" M 235.28 235.72 C 237.27 240.14 235.44 245.32 236.00 250.00 L 234.97 250.00 C 235.02 245.24 235.13 240.47 235.28 235.72 Z" />
</g>
<g id="#191636ff">
<path fill="#191636" opacity="1.00" d=" M 29.86 250.00 C 27.15 238.71 38.22 244.93 43.98 243.13 C 48.72 242.51 56.79 243.25 52.95 250.00 L 29.86 250.00 Z" />
</g>
<g id="#1c193fff">
<path fill="#1c193f" opacity="1.00" d=" M 76.95 250.00 C 79.80 247.19 78.36 239.92 85.00 242.93 C 90.17 242.84 99.12 241.05 96.13 250.00 L 76.95 250.00 Z" />
</g>
</svg>
