<?xml version="1.0" encoding="UTF-8" ?>
<!DOCTYPE svg PUBLIC "-//W3C//DTD SVG 1.1//EN" "http://www.w3.org/Graphics/SVG/1.1/DTD/svg11.dtd">
<svg width="250pt" height="250pt" viewBox="0 0 250 250" version="1.1" xmlns="http://www.w3.org/2000/svg">
<g id="#f8c8c6ff">
<path fill="#f8c8c6" opacity="1.00" d=" M 0.00 0.00 L 131.84 0.00 C 131.63 2.17 132.05 4.52 130.87 6.48 C 127.15 5.78 121.91 7.78 124.72 12.35 L 124.80 13.26 C 119.95 14.03 115.01 13.56 110.17 14.28 C 109.48 14.67 108.79 15.05 108.09 15.40 C 72.08 14.36 36.00 14.96 0.00 15.04 L 0.00 0.00 Z" />
</g>
<g id="#ae9186ff">
<path fill="#ae9186" opacity="1.00" d=" M 131.84 0.00 L 132.90 0.00 C 132.93 1.76 132.99 5.29 133.02 7.05 L 132.83 7.89 C 131.55 7.90 130.27 7.94 128.99 8.00 C 126.39 8.02 124.32 9.55 124.72 12.35 C 121.91 7.78 127.15 5.78 130.87 6.48 C 132.05 4.52 131.63 2.17 131.84 0.00 Z" />
</g>
<g id="#705324ff">
<path fill="#705324" opacity="1.00" d=" M 132.90 0.00 L 133.91 0.00 C 132.14 5.38 134.74 6.69 139.01 6.08 L 139.21 6.96 C 137.21 7.78 135.06 7.50 133.02 7.05 C 132.99 5.29 132.93 1.76 132.90 0.00 Z" />
</g>
<g id="#080804ff">
<path fill="#080804" opacity="1.00" d=" M 133.91 0.00 L 138.97 0.00 C 138.98 2.03 138.99 4.05 139.01 6.08 C 134.74 6.69 132.14 5.38 133.91 0.00 Z" />
</g>
<g id="#957779ff">
<path fill="#957779" opacity="1.00" d=" M 138.97 0.00 L 139.90 0.00 C 133.92 10.23 150.08 3.88 146.90 8.88 C 144.61 8.56 142.33 8.26 140.04 7.99 C 139.83 7.74 139.41 7.22 139.21 6.96 L 139.01 6.08 C 138.99 4.05 138.98 2.03 138.97 0.00 Z" />
</g>
<g id="#f8c8c5ff">
<path fill="#f8c8c5" opacity="1.00" d=" M 139.90 0.00 L 250.00 0.00 L 250.00 15.00 C 225.69 14.91 201.38 15.18 177.07 14.87 C 167.12 13.28 157.01 14.17 146.99 14.01 C 146.79 12.31 146.52 10.58 146.90 8.88 C 150.08 3.88 133.92 10.23 139.90 0.00 Z" />
</g>
<g id="#efd107ff">
<path fill="#efd107" opacity="1.00" d=" M 133.02 7.05 C 135.06 7.50 137.21 7.78 139.21 6.96 C 144.07 17.29 128.32 15.78 132.83 7.89 L 133.02 7.05 Z" />
</g>
<g id="#7c710eff">
<path fill="#7c710e" opacity="1.00" d=" M 139.21 6.96 C 139.41 7.22 139.83 7.74 140.04 7.99 L 140.05 8.89 C 138.99 13.12 140.83 15.03 145.08 14.01 C 145.55 14.01 146.51 14.01 146.99 14.01 L 146.93 14.96 C 141.28 13.62 138.19 14.86 140.05 21.06 L 139.18 21.18 L 139.12 20.09 C 138.67 17.27 140.37 11.83 133.99 14.95 C 129.97 15.40 131.62 9.84 128.99 8.00 C 130.27 7.94 131.55 7.90 132.83 7.89 C 128.32 15.78 144.07 17.29 139.21 6.96 Z" />
</g>
<g id="#080706ff">
<path fill="#080706" opacity="1.00" d=" M 124.72 12.35 C 124.32 9.55 126.39 8.02 128.99 8.00 C 131.62 9.84 129.97 15.40 133.99 14.95 C 140.37 11.83 138.67 17.27 139.12 20.09 C 129.70 19.97 120.28 19.92 110.86 20.11 C 108.02 10.08 123.55 18.76 124.80 13.26 L 124.72 12.35 Z" />
</g>
<g id="#543a47ff">
<path fill="#543a47" opacity="1.00" d=" M 140.04 7.99 C 142.33 8.26 144.61 8.56 146.90 8.88 C 146.52 10.58 146.79 12.31 146.99 14.01 C 146.51 14.01 145.55 14.01 145.08 14.01 C 145.92 9.94 144.14 8.06 140.05 8.89 L 140.04 7.99 Z" />
</g>
<g id="#090904ff">
<path fill="#090904" opacity="1.00" d=" M 140.05 8.89 C 144.14 8.06 145.92 9.94 145.08 14.01 C 140.83 15.03 138.99 13.12 140.05 8.89 Z" />
</g>
<g id="#836264ff">
<path fill="#836264" opacity="1.00" d=" M 110.17 14.28 C 115.01 13.56 119.95 14.03 124.80 13.26 C 123.55 18.76 108.02 10.08 110.86 20.11 L 110.81 21.22 C 110.60 20.93 110.20 20.36 110.00 20.08 C 110.01 18.14 110.04 16.21 110.17 14.28 Z" />
</g>
<g id="#f9bebcff">
<path fill="#f9bebc" opacity="1.00" d=" M 0.00 15.04 C 36.00 14.96 72.08 14.36 108.09 15.40 C 108.79 15.05 109.48 14.67 110.17 14.28 C 110.04 16.21 110.01 18.14 110.00 20.08 C 102.81 21.05 92.60 18.12 94.08 29.09 C 90.14 30.07 83.84 27.18 80.78 29.80 C 81.52 34.87 79.59 36.95 74.99 36.04 C 71.36 35.73 72.77 40.48 72.71 42.75 C 70.07 42.89 67.44 43.12 64.90 43.89 C 43.27 44.14 21.63 43.93 0.00 44.00 L 0.00 15.04 Z" />
</g>
<g id="#8d6967ff">
<path fill="#8d6967" opacity="1.00" d=" M 146.99 14.01 C 157.01 14.17 167.12 13.28 177.07 14.87 C 172.93 26.07 184.72 20.81 190.79 22.18 C 192.01 24.24 192.00 26.66 192.04 28.97 C 191.54 28.98 190.55 28.98 190.06 28.99 C 193.34 19.85 182.08 22.45 176.96 23.91 C 176.47 22.97 175.98 22.03 175.48 21.10 C 175.38 19.67 175.22 18.24 175.02 16.81 C 169.30 12.21 156.25 16.40 147.92 15.00 L 146.93 14.96 L 146.99 14.01 Z" />
</g>
<g id="#fbd702ff">
<path fill="#fbd702" opacity="1.00" d=" M 140.05 21.06 C 138.19 14.86 141.28 13.62 146.93 14.96 C 146.93 17.00 146.88 19.05 146.96 21.09 C 147.00 21.55 147.07 22.46 147.11 22.91 C 156.32 23.36 165.57 22.54 174.78 23.14 C 175.94 24.91 176.63 26.91 176.86 29.14 C 180.65 32.83 194.86 24.91 191.23 36.24 C 184.01 38.21 175.02 33.91 169.01 37.01 C 168.55 39.28 167.67 41.87 168.89 44.05 C 171.08 47.16 179.90 41.64 176.02 50.01 C 173.75 56.98 181.98 74.07 169.88 72.89 C 167.84 69.34 168.95 64.47 163.23 66.99 C 163.86 61.80 161.05 57.13 161.54 51.99 C 159.89 52.02 156.58 52.08 154.93 52.11 C 154.63 51.83 154.04 51.27 153.74 50.98 C 152.66 46.11 157.28 36.51 149.76 37.51 C 144.81 37.84 148.74 28.48 143.34 29.42 C 138.97 30.92 130.77 26.01 132.87 34.97 C 127.29 38.18 117.45 33.86 110.78 36.75 C 110.56 38.30 110.12 41.39 109.90 42.94 C 104.27 41.19 100.63 43.65 101.69 49.71 C 98.10 52.20 92.73 51.47 88.56 53.12 C 88.43 57.51 87.33 61.79 86.08 65.98 C 84.44 66.56 80.17 64.82 81.22 67.80 L 81.31 68.70 C 82.60 75.53 70.78 70.87 73.26 77.59 C 71.72 81.41 62.48 81.81 66.36 75.48 C 66.90 72.30 63.91 66.71 68.44 66.57 C 74.72 69.28 74.15 54.76 68.61 59.46 C 66.46 59.22 67.79 54.36 67.74 52.11 C 69.15 52.09 70.56 52.05 71.97 51.96 C 75.87 50.83 83.17 53.81 81.20 46.12 C 81.41 43.10 84.63 43.46 86.77 43.78 C 88.98 42.63 87.16 40.01 87.18 38.14 C 89.72 37.52 92.78 38.60 95.25 37.31 C 98.62 34.21 105.14 38.12 102.06 30.02 C 104.63 30.05 107.21 29.98 109.79 29.82 C 112.18 29.57 114.57 29.25 116.96 28.86 C 112.91 15.34 137.44 28.73 140.05 21.06 Z" />
</g>
<g id="#867406ff">
<path fill="#867406" opacity="1.00" d=" M 146.93 14.96 L 147.92 15.00 C 148.31 16.65 147.27 19.12 148.79 20.22 C 157.40 21.92 166.64 20.62 175.48 21.10 C 166.14 21.88 156.15 23.43 146.96 21.09 C 146.88 19.05 146.93 17.00 146.93 14.96 Z" />
</g>
<g id="#060706ff">
<path fill="#060706" opacity="1.00" d=" M 147.92 15.00 C 156.25 16.40 169.30 12.21 175.02 16.81 C 170.03 24.19 157.14 18.24 148.79 20.22 C 147.27 19.12 148.31 16.65 147.92 15.00 Z" />
</g>
<g id="#f8bdbbff">
<path fill="#f8bdbb" opacity="1.00" d=" M 177.07 14.87 C 201.38 15.18 225.69 14.91 250.00 15.00 L 250.00 44.00 C 235.67 44.00 221.35 44.00 207.03 44.00 C 207.98 39.43 207.43 34.26 201.08 35.85 C 197.41 35.74 200.80 29.39 197.95 29.07 C 195.98 28.93 194.00 28.96 192.04 28.97 C 192.00 26.66 192.01 24.24 190.79 22.18 C 184.72 20.81 172.93 26.07 177.07 14.87 Z" />
</g>
<g id="#32280aff">
<path fill="#32280a" opacity="1.00" d=" M 148.79 20.22 C 157.14 18.24 170.03 24.19 175.02 16.81 C 175.22 18.24 175.38 19.67 175.48 21.10 C 166.64 20.62 157.40 21.92 148.79 20.22 Z" />
</g>
<g id="#b78681ff">
<path fill="#b78681" opacity="1.00" d=" M 94.08 29.09 C 92.60 18.12 102.81 21.05 110.00 20.08 C 110.20 20.36 110.60 20.93 110.81 21.22 L 111.32 22.01 C 110.96 22.27 110.26 22.79 109.90 23.05 C 104.59 22.93 93.31 19.49 95.92 28.90 C 95.61 29.17 95.00 29.73 94.70 30.00 L 93.87 29.98 L 94.08 29.09 Z" />
</g>
<g id="#312905ff">
<path fill="#312905" opacity="1.00" d=" M 110.86 20.11 C 120.28 19.92 129.70 19.97 139.12 20.09 L 139.18 21.18 C 129.72 20.98 120.26 20.84 110.81 21.22 L 110.86 20.11 Z" />
</g>
<g id="#7d6f08ff">
<path fill="#7d6f08" opacity="1.00" d=" M 110.81 21.22 C 120.26 20.84 129.72 20.98 139.18 21.18 C 129.97 22.67 120.60 21.83 111.32 22.01 L 110.81 21.22 Z" />
</g>
<g id="#cab014ff">
<path fill="#cab014" opacity="1.00" d=" M 139.18 21.18 L 140.05 21.06 C 137.44 28.73 112.91 15.34 116.96 28.86 C 114.57 29.25 112.18 29.57 109.79 29.82 L 110.00 28.95 L 110.25 28.08 C 111.60 27.00 111.58 25.00 110.25 23.91 L 109.90 23.05 C 110.26 22.79 110.96 22.27 111.32 22.01 C 120.60 21.83 129.97 22.67 139.18 21.18 Z" />
</g>
<g id="#c4aa10ff">
<path fill="#c4aa10" opacity="1.00" d=" M 146.96 21.09 C 156.15 23.43 166.14 21.88 175.48 21.10 C 175.98 22.03 176.47 22.97 176.96 23.91 C 176.92 25.35 176.89 26.80 176.87 28.24 L 176.86 29.14 C 176.63 26.91 175.94 24.91 174.78 23.14 C 165.57 22.54 156.32 23.36 147.11 22.91 C 147.07 22.46 147.00 21.55 146.96 21.09 Z" />
</g>
<g id="#2c271eff">
<path fill="#2c271e" opacity="1.00" d=" M 95.92 28.90 C 93.31 19.49 104.59 22.93 109.90 23.05 L 110.25 23.91 C 106.22 25.43 94.98 20.28 97.03 27.93 C 101.43 28.05 105.84 28.02 110.25 28.08 L 110.00 28.95 C 105.30 28.98 100.61 28.98 95.92 28.90 Z" />
</g>
<g id="#13100aff">
<path fill="#13100a" opacity="1.00" d=" M 176.96 23.91 C 182.08 22.45 193.34 19.85 190.06 28.99 C 185.68 28.82 181.14 29.44 176.87 28.24 C 176.89 26.80 176.92 25.35 176.96 23.91 Z" />
</g>
<g id="#020101ff">
<path fill="#020101" opacity="1.00" d=" M 97.03 27.93 C 94.98 20.28 106.22 25.43 110.25 23.91 C 109.68 25.30 109.68 26.69 110.25 28.08 C 105.84 28.02 101.43 28.05 97.03 27.93 Z" />
</g>
<g id="#655511ff">
<path fill="#655511" opacity="1.00" d=" M 110.25 23.91 C 111.58 25.00 111.60 27.00 110.25 28.08 C 109.68 26.69 109.68 25.30 110.25 23.91 Z" />
</g>
<g id="#8a7711ff">
<path fill="#8a7711" opacity="1.00" d=" M 176.87 28.24 C 181.14 29.44 185.68 28.82 190.06 28.99 C 190.55 28.98 191.54 28.98 192.04 28.97 L 192.03 29.95 C 190.78 33.85 193.36 36.77 197.22 35.24 L 197.94 35.10 C 198.12 38.69 202.95 36.32 205.30 37.60 C 196.87 35.06 196.63 53.22 205.18 50.14 L 205.08 50.82 C 204.85 51.05 204.37 51.53 204.14 51.77 C 194.35 54.92 200.08 42.13 197.15 37.72 C 195.18 37.19 193.20 36.70 191.23 36.24 C 194.86 24.91 180.65 32.83 176.86 29.14 L 176.87 28.24 Z" />
</g>
<g id="#695245ff">
<path fill="#695245" opacity="1.00" d=" M 80.78 29.80 C 83.84 27.18 90.14 30.07 94.08 29.09 L 93.87 29.98 C 89.91 29.94 85.96 29.98 82.01 30.09 C 78.98 36.17 83.76 35.78 87.20 36.19 C 85.68 36.40 82.63 36.81 81.10 37.02 C 81.02 35.22 80.86 31.61 80.78 29.80 Z" />
</g>
<g id="#8a760cff">
<path fill="#8a760c" opacity="1.00" d=" M 94.70 30.00 C 95.00 29.73 95.61 29.17 95.92 28.90 C 100.61 28.98 105.30 28.98 110.00 28.95 L 109.79 29.82 C 107.21 29.98 104.63 30.05 102.06 30.02 C 98.60 29.53 95.06 29.09 95.84 33.29 C 95.46 32.20 95.07 31.10 94.70 30.00 Z" />
</g>
<g id="#ceb51aff">
<path fill="#ceb51a" opacity="1.00" d=" M 132.87 34.97 C 130.77 26.01 138.97 30.92 143.34 29.42 C 148.74 28.48 144.81 37.84 149.76 37.51 C 157.28 36.51 152.66 46.11 153.74 50.98 C 151.80 51.00 149.86 51.03 147.93 51.05 C 149.93 40.65 140.25 44.21 134.25 43.81 C 130.94 42.52 134.27 38.65 131.69 37.18 C 124.72 36.88 117.75 36.93 110.78 36.75 C 117.45 33.86 127.29 38.18 132.87 34.97 Z" />
<path fill="#ceb51a" opacity="1.00" d=" M 95.84 33.29 C 95.06 29.09 98.60 29.53 102.06 30.02 C 105.14 38.12 98.62 34.21 95.25 37.31 C 95.47 36.25 95.64 35.20 95.77 34.13 L 95.84 33.29 Z" />
</g>
<g id="#533c45ff">
<path fill="#533c45" opacity="1.00" d=" M 192.04 28.97 C 194.00 28.96 195.98 28.93 197.95 29.07 C 197.98 31.08 197.96 33.09 197.94 35.10 L 197.22 35.24 C 197.90 31.13 196.27 28.96 192.03 29.95 L 192.04 28.97 Z" />
</g>
<g id="#b68e88ff">
<path fill="#b68e88" opacity="1.00" d=" M 197.95 29.07 C 200.80 29.39 197.41 35.74 201.08 35.85 C 207.43 34.26 207.98 39.43 207.03 44.00 C 203.49 52.69 210.08 49.44 213.91 52.28 C 213.41 58.59 217.63 69.97 207.11 67.19 C 207.04 68.65 206.89 71.58 206.81 73.04 L 206.10 72.79 C 206.07 71.12 206.00 67.79 205.96 66.12 C 215.52 69.24 213.89 57.98 212.34 52.61 C 210.78 52.43 207.68 52.07 206.13 51.89 C 205.87 51.62 205.34 51.08 205.08 50.82 L 205.18 50.14 C 205.50 46.11 207.29 41.47 205.30 37.60 C 202.95 36.32 198.12 38.69 197.94 35.10 C 197.96 33.09 197.98 31.08 197.95 29.07 Z" />
</g>
<g id="#aa827cff">
<path fill="#aa827c" opacity="1.00" d=" M 74.99 36.04 C 79.59 36.95 81.52 34.87 80.78 29.80 C 80.86 31.61 81.02 35.22 81.10 37.02 L 81.08 37.88 C 76.11 35.77 71.96 37.38 73.94 43.90 C 73.67 44.13 73.13 44.58 72.86 44.81 C 67.43 43.05 66.42 45.93 66.90 50.04 L 66.79 50.85 C 66.55 51.13 66.07 51.68 65.83 51.96 C 65.41 51.96 64.56 51.96 64.13 51.96 C 62.84 52.36 60.23 51.11 59.85 52.87 C 60.05 57.92 57.32 59.46 52.87 59.95 C 52.58 64.80 52.44 69.32 45.85 66.98 C 41.95 66.28 44.54 71.76 43.88 74.19 C 43.63 73.88 43.13 73.27 42.87 72.96 C 37.57 62.62 50.37 68.31 50.71 62.59 C 47.74 55.10 56.26 60.41 57.54 56.59 C 55.40 50.04 61.03 50.32 64.86 50.88 C 65.65 48.60 65.40 46.20 64.90 43.89 C 67.44 43.12 70.07 42.89 72.71 42.75 C 72.77 40.48 71.36 35.73 74.99 36.04 Z" />
</g>
<g id="#131008ff">
<path fill="#131008" opacity="1.00" d=" M 82.01 30.09 C 85.96 29.98 89.91 29.94 93.87 29.98 L 94.70 30.00 C 95.07 31.10 95.46 32.20 95.84 33.29 L 95.77 34.13 C 93.81 35.04 91.75 35.68 89.69 36.27 C 89.06 36.25 87.82 36.21 87.20 36.19 C 83.76 35.78 78.98 36.17 82.01 30.09 Z" />
</g>
<g id="#0c0c07ff">
<path fill="#0c0c07" opacity="1.00" d=" M 192.03 29.95 C 196.27 28.96 197.90 31.13 197.22 35.24 C 193.36 36.77 190.78 33.85 192.03 29.95 Z" />
</g>
<g id="#7d7209ff">
<path fill="#7d7209" opacity="1.00" d=" M 89.69 36.27 C 91.75 35.68 93.81 35.04 95.77 34.13 C 95.64 35.20 95.47 36.25 95.25 37.31 C 93.37 37.07 91.52 36.72 89.69 36.27 Z" />
</g>
<g id="#c8b018ff">
<path fill="#c8b018" opacity="1.00" d=" M 87.20 36.19 C 87.82 36.21 89.06 36.25 89.69 36.27 C 91.52 36.72 93.37 37.07 95.25 37.31 C 92.78 38.60 89.72 37.52 87.18 38.14 C 87.16 40.01 88.98 42.63 86.77 43.78 C 84.63 43.46 81.41 43.10 81.20 46.12 C 83.17 53.81 75.87 50.83 71.97 51.96 C 73.64 50.21 74.78 47.87 73.18 45.65 L 72.86 44.81 C 73.13 44.58 73.67 44.13 73.94 43.90 C 79.64 45.37 83.03 44.29 81.08 37.88 L 81.10 37.02 C 82.63 36.81 85.68 36.40 87.20 36.19 Z" />
</g>
<g id="#c9b017ff">
<path fill="#c9b017" opacity="1.00" d=" M 169.01 37.01 C 175.02 33.91 184.01 38.21 191.23 36.24 C 193.20 36.70 195.18 37.19 197.15 37.72 C 191.80 35.75 192.28 39.35 189.32 41.43 C 193.34 44.90 189.78 52.99 197.30 52.72 C 195.68 62.02 210.29 60.09 204.14 51.77 C 204.37 51.53 204.85 51.05 205.08 50.82 C 205.34 51.08 205.87 51.62 206.13 51.89 C 206.15 53.73 206.20 57.42 206.22 59.26 C 206.19 59.92 206.12 61.23 206.08 61.89 C 206.03 63.30 205.99 64.71 205.96 66.12 C 194.85 70.78 202.81 55.05 191.90 57.20 C 190.56 53.33 194.28 42.96 187.21 43.70 C 183.79 44.41 183.73 40.25 183.15 37.79 C 178.82 36.29 173.69 37.15 169.01 37.01 Z" />
</g>
<g id="#332819ff">
<path fill="#332819" opacity="1.00" d=" M 73.94 43.90 C 71.96 37.38 76.11 35.77 81.08 37.88 C 83.03 44.29 79.64 45.37 73.94 43.90 Z" />
</g>
<g id="#6d5c10ff">
<path fill="#6d5c10" opacity="1.00" d=" M 109.90 42.94 C 110.12 41.39 110.56 38.30 110.78 36.75 C 117.75 36.93 124.72 36.88 131.69 37.18 C 134.27 38.65 130.94 42.52 134.25 43.81 C 140.25 44.21 149.93 40.65 147.93 51.05 C 147.47 51.03 146.54 51.00 146.08 50.99 C 148.12 42.74 138.47 45.05 133.18 44.86 C 132.66 44.61 131.61 44.10 131.08 43.85 C 133.53 32.48 117.34 40.10 111.16 38.08 C 111.10 39.54 110.97 42.47 110.91 43.93 L 109.90 43.92 L 109.90 42.94 Z" />
</g>
<g id="#6f5e0fff">
<path fill="#6f5e0f" opacity="1.00" d=" M 169.01 37.01 C 173.69 37.15 178.82 36.29 183.15 37.79 C 178.77 37.91 174.38 37.79 170.02 38.10 C 166.55 44.64 172.16 42.56 174.95 42.99 L 175.12 43.86 C 173.04 43.94 170.97 44.02 168.89 44.05 C 167.67 41.87 168.55 39.28 169.01 37.01 Z" />
</g>
<g id="#070607ff">
<path fill="#070607" opacity="1.00" d=" M 111.16 38.08 C 117.34 40.10 133.53 32.48 131.08 43.85 C 129.75 43.89 128.41 43.94 127.08 44.00 C 121.69 44.02 116.30 44.09 110.91 43.93 C 110.97 42.47 111.10 39.54 111.16 38.08 Z" />
</g>
<g id="#050503ff">
<path fill="#050503" opacity="1.00" d=" M 170.02 38.10 C 174.38 37.79 178.77 37.91 183.15 37.79 C 181.55 43.06 183.80 46.03 189.28 45.76 C 191.01 49.06 189.52 53.91 190.05 57.77 C 188.47 58.02 185.29 58.53 183.71 58.78 C 182.40 63.28 183.72 68.29 182.27 72.84 C 180.85 72.89 179.44 72.94 178.03 72.98 C 177.80 63.02 178.35 53.05 177.89 43.10 C 177.16 43.08 175.69 43.02 174.95 42.99 C 172.16 42.56 166.55 44.64 170.02 38.10 Z" />
<path fill="#050503" opacity="1.00" d=" M 206.22 59.26 C 205.85 54.60 207.64 51.95 212.34 52.61 C 213.44 57.59 212.06 69.32 206.08 61.89 C 206.12 61.23 206.19 59.92 206.22 59.26 Z" />
</g>
<g id="#6f5a17ff">
<path fill="#6f5a17" opacity="1.00" d=" M 183.15 37.79 C 183.73 40.25 183.79 44.41 187.21 43.70 C 194.28 42.96 190.56 53.33 191.90 57.20 C 202.81 55.05 194.85 70.78 205.96 66.12 C 206.00 67.79 206.07 71.12 206.10 72.79 C 205.80 72.67 205.20 72.45 204.90 72.33 C 205.72 67.93 204.74 64.89 198.92 67.00 L 198.06 66.96 C 198.05 66.49 198.03 65.55 198.01 65.08 C 199.27 60.70 195.56 59.14 191.86 60.09 C 191.26 59.31 190.65 58.54 190.05 57.77 C 189.52 53.91 191.01 49.06 189.28 45.76 C 183.80 46.03 181.55 43.06 183.15 37.79 Z" />
</g>
<g id="#f6d405ff">
<path fill="#f6d405" opacity="1.00" d=" M 189.32 41.43 C 192.28 39.35 191.80 35.75 197.15 37.72 C 200.08 42.13 194.35 54.92 204.14 51.77 C 210.29 60.09 195.68 62.02 197.30 52.72 C 189.78 52.99 193.34 44.90 189.32 41.43 Z" />
</g>
<g id="#14100aff">
<path fill="#14100a" opacity="1.00" d=" M 205.18 50.14 C 196.63 53.22 196.87 35.06 205.30 37.60 C 205.22 41.78 205.18 45.96 205.18 50.14 Z" />
</g>
<g id="#6b4c4cff">
<path fill="#6b4c4c" opacity="1.00" d=" M 205.30 37.60 C 207.29 41.47 205.50 46.11 205.18 50.14 C 205.18 45.96 205.22 41.78 205.30 37.60 Z" />
</g>
<g id="#caaf15ff">
<path fill="#caaf15" opacity="1.00" d=" M 101.69 49.71 C 100.63 43.65 104.27 41.19 109.90 42.94 L 109.90 43.92 C 102.55 41.25 102.89 47.61 102.22 52.30 C 100.64 52.44 97.47 52.72 95.89 52.86 C 94.95 55.17 95.28 59.81 91.86 58.32 C 86.69 56.84 90.38 66.75 86.08 65.98 C 87.33 61.79 88.43 57.51 88.56 53.12 C 92.73 51.47 98.10 52.20 101.69 49.71 Z" />
</g>
<g id="#3b3108ff">
<path fill="#3b3108" opacity="1.00" d=" M 174.95 42.99 C 175.69 43.02 177.16 43.08 177.89 43.10 C 178.35 53.05 177.80 63.02 178.03 72.98 L 177.14 73.05 C 176.75 63.48 177.42 53.87 176.84 44.31 C 176.41 44.20 175.55 43.97 175.12 43.86 L 174.95 42.99 Z" />
</g>
<g id="#fbb7b4ff">
<path fill="#fbb7b4" opacity="1.00" d=" M 0.00 44.00 C 21.63 43.93 43.27 44.14 64.90 43.89 C 65.40 46.20 65.65 48.60 64.86 50.88 C 61.03 50.32 55.40 50.04 57.54 56.59 C 56.26 60.41 47.74 55.10 50.71 62.59 C 50.37 68.31 37.57 62.62 42.87 72.96 C 29.83 74.43 16.48 73.19 3.33 73.40 C 2.17 73.85 1.09 74.45 0.00 75.05 L 0.00 44.00 Z" />
<path fill="#fbb7b4" opacity="1.00" d=" M 207.03 44.00 C 221.35 44.00 235.67 44.00 250.00 44.00 L 250.00 72.84 C 238.09 74.55 225.84 73.22 213.89 73.16 C 211.61 72.18 209.15 72.48 206.81 73.04 C 206.89 71.58 207.04 68.65 207.11 67.19 C 217.63 69.97 213.41 58.59 213.91 52.28 C 210.08 49.44 203.49 52.69 207.03 44.00 Z" />
</g>
<g id="#77650fff">
<path fill="#77650f" opacity="1.00" d=" M 102.22 52.30 C 102.89 47.61 102.55 41.25 109.90 43.92 L 110.07 44.88 C 106.37 44.19 102.77 45.81 104.02 50.13 C 103.73 51.11 103.13 51.83 102.22 52.30 Z" />
</g>
<g id="#2d2960ff">
<path fill="#2d2960" opacity="1.00" d=" M 109.90 43.92 L 110.91 43.93 C 116.30 44.09 121.69 44.02 127.08 44.00 C 121.73 47.00 126.15 53.14 126.38 57.55 C 134.99 55.37 133.71 64.51 131.18 69.15 C 130.68 74.29 139.58 72.47 139.26 77.84 C 139.45 82.23 144.02 81.89 147.15 81.12 C 146.46 84.86 146.06 89.59 140.29 86.94 C 143.39 77.76 130.20 84.23 132.46 75.45 C 130.02 69.29 122.50 76.41 118.29 73.77 C 115.05 72.81 116.37 68.46 114.00 66.69 C 110.74 68.15 113.44 72.91 110.69 74.72 C 107.02 77.41 102.36 74.42 98.32 75.15 C 96.99 77.43 97.05 81.27 93.83 81.72 C 85.68 82.90 90.94 98.02 80.84 95.77 C 77.93 95.85 74.34 97.07 72.74 94.03 C 70.20 85.85 76.46 87.67 80.90 86.87 C 80.98 82.88 80.97 78.89 80.87 74.90 C 81.16 74.38 81.74 73.35 82.03 72.83 C 86.43 74.31 89.14 71.34 88.02 66.99 C 88.53 66.75 89.55 66.28 90.06 66.05 C 92.16 65.88 94.92 66.45 95.82 63.98 C 95.67 67.60 100.48 66.03 101.13 68.91 C 101.68 72.33 106.21 73.97 108.98 72.08 C 110.87 67.79 109.18 58.25 116.88 58.53 C 121.89 48.62 105.00 48.79 104.02 56.00 C 103.87 60.13 98.87 58.82 95.94 59.86 C 95.96 59.42 96.00 58.53 96.02 58.08 C 101.33 59.49 103.39 57.56 102.22 52.30 C 103.13 51.83 103.73 51.11 104.02 50.13 C 107.82 52.85 112.67 49.05 110.07 44.88 L 109.90 43.92 Z" />
</g>
<g id="#353070ff">
<path fill="#353070" opacity="1.00" d=" M 127.08 44.00 C 128.41 43.94 129.75 43.89 131.08 43.85 C 131.61 44.10 132.66 44.61 133.18 44.86 C 129.37 54.69 141.50 50.63 146.08 50.99 C 146.54 51.00 147.47 51.03 147.93 51.05 L 148.11 51.95 C 145.39 56.54 149.32 59.67 153.95 59.03 C 154.21 59.17 154.73 59.46 154.98 59.60 C 153.37 66.58 154.39 73.77 153.70 80.83 C 152.07 80.90 148.79 81.05 147.15 81.12 C 144.02 81.89 139.45 82.23 139.26 77.84 C 139.58 72.47 130.68 74.29 131.18 69.15 C 133.71 64.51 134.99 55.37 126.38 57.55 C 126.15 53.14 121.73 47.00 127.08 44.00 Z" />
<path fill="#353070" opacity="1.00" d=" M 104.02 56.00 C 105.00 48.79 121.89 48.62 116.88 58.53 C 109.18 58.25 110.87 67.79 108.98 72.08 C 106.21 73.97 101.68 72.33 101.13 68.91 C 100.48 66.03 95.67 67.60 95.82 63.98 C 95.87 62.60 95.90 61.23 95.94 59.86 C 98.87 58.82 103.87 60.13 104.02 56.00 Z" />
<path fill="#353070" opacity="1.00" d=" M 31.20 169.03 C 38.86 168.05 35.87 178.92 37.73 183.26 C 41.71 184.56 46.73 184.77 44.03 178.02 C 49.78 175.95 56.18 177.92 61.88 175.82 C 68.03 172.82 75.06 175.36 81.47 176.39 C 91.46 176.02 87.62 188.17 89.78 194.10 C 85.07 204.23 90.48 216.17 89.36 226.32 C 81.00 231.34 79.99 218.64 71.94 219.97 C 67.17 211.49 82.30 216.64 81.87 210.13 C 81.77 203.10 72.43 205.83 68.20 208.28 C 66.71 215.33 71.39 225.29 62.89 228.84 C 58.81 231.00 58.66 238.28 51.99 235.03 C 49.18 228.92 55.82 228.92 58.99 226.78 C 62.98 219.03 50.46 222.21 51.98 216.03 C 50.93 210.28 54.12 202.85 49.74 198.06 C 41.77 194.11 46.37 205.08 40.79 205.62 C 36.89 205.72 37.63 200.47 35.82 198.12 C 31.77 197.04 26.40 199.66 23.08 196.76 C 20.83 190.99 29.63 192.81 30.00 187.90 C 31.43 181.64 18.84 184.00 23.95 177.03 C 29.23 177.64 29.33 172.44 31.20 169.03 Z" />
</g>
<g id="#ad960cff">
<path fill="#ad960c" opacity="1.00" d=" M 168.89 44.05 C 170.97 44.02 173.04 43.94 175.12 43.86 C 175.55 43.97 176.41 44.20 176.84 44.31 C 177.42 53.87 176.75 63.48 177.14 73.05 C 176.86 73.32 176.30 73.85 176.03 74.11 C 174.29 74.10 170.82 74.07 169.09 74.05 C 169.28 73.76 169.68 73.18 169.88 72.89 C 181.98 74.07 173.75 56.98 176.02 50.01 C 179.90 41.64 171.08 47.16 168.89 44.05 Z" />
</g>
<g id="#181211ff">
<path fill="#181211" opacity="1.00" d=" M 66.90 50.04 C 66.42 45.93 67.43 43.05 72.86 44.81 L 73.18 45.65 C 73.22 49.51 70.44 50.77 66.90 50.04 Z" />
</g>
<g id="#14120cff">
<path fill="#14120c" opacity="1.00" d=" M 104.02 50.13 C 102.77 45.81 106.37 44.19 110.07 44.88 C 112.67 49.05 107.82 52.85 104.02 50.13 Z" />
</g>
<g id="#0f0d0fff">
<path fill="#0f0d0f" opacity="1.00" d=" M 133.18 44.86 C 138.47 45.05 148.12 42.74 146.08 50.99 C 141.50 50.63 129.37 54.69 133.18 44.86 Z" />
</g>
<g id="#7c6b0dff">
<path fill="#7c6b0d" opacity="1.00" d=" M 73.18 45.65 C 74.78 47.87 73.64 50.21 71.97 51.96 C 70.56 52.05 69.15 52.09 67.74 52.11 C 67.50 51.79 67.03 51.16 66.79 50.85 L 66.90 50.04 C 70.44 50.77 73.22 49.51 73.18 45.65 Z" />
</g>
<g id="#ccb319ff">
<path fill="#ccb319" opacity="1.00" d=" M 65.83 51.96 C 66.07 51.68 66.55 51.13 66.79 50.85 C 67.03 51.16 67.50 51.79 67.74 52.11 C 67.79 54.36 66.46 59.22 68.61 59.46 C 74.15 54.76 74.72 69.28 68.44 66.57 C 63.91 66.71 66.90 72.30 66.36 75.48 C 62.48 81.81 71.72 81.41 73.26 77.59 C 73.68 78.86 73.47 80.18 73.22 81.47 C 71.65 81.53 68.49 81.66 66.91 81.72 C 65.20 87.67 69.40 98.65 59.07 94.96 C 59.04 85.72 58.64 76.45 59.14 67.22 C 61.71 66.50 65.20 67.32 66.85 64.70 C 67.00 60.42 66.28 56.20 65.83 51.96 Z" />
</g>
<g id="#74640eff">
<path fill="#74640e" opacity="1.00" d=" M 147.93 51.05 C 149.86 51.03 151.80 51.00 153.74 50.98 C 154.04 51.27 154.63 51.83 154.93 52.11 C 151.84 59.57 159.50 56.46 161.74 60.35 C 162.90 68.86 161.91 77.40 162.05 85.92 C 162.17 89.56 169.69 89.23 168.64 85.33 C 168.92 81.61 167.33 77.42 169.09 74.05 C 170.82 74.07 174.29 74.10 176.03 74.11 L 175.85 74.96 C 164.37 71.86 175.71 92.28 164.05 89.30 C 162.66 88.97 161.04 88.79 160.58 87.18 C 160.58 79.23 160.32 71.28 160.53 63.33 C 160.89 59.76 157.68 59.78 154.98 59.60 C 154.73 59.46 154.21 59.17 153.95 59.03 C 156.10 53.55 152.56 51.08 148.11 51.95 L 147.93 51.05 Z" />
</g>
<g id="#090706ff">
<path fill="#090706" opacity="1.00" d=" M 59.85 52.87 C 60.23 51.11 62.84 52.36 64.13 51.96 C 64.89 55.88 65.32 59.87 65.00 63.88 C 65.33 67.23 59.33 63.46 58.11 66.28 C 57.77 75.94 58.16 85.61 57.90 95.28 C 48.25 99.08 52.22 86.93 51.94 81.24 C 47.11 82.97 45.69 80.39 45.43 76.89 C 45.65 73.59 45.23 70.25 45.85 66.98 C 52.44 69.32 52.58 64.80 52.87 59.95 C 57.52 62.79 62.49 57.46 59.85 52.87 Z" />
</g>
<g id="#6e5b10ff">
<path fill="#6e5b10" opacity="1.00" d=" M 64.13 51.96 C 64.56 51.96 65.41 51.96 65.83 51.96 C 66.28 56.20 67.00 60.42 66.85 64.70 C 65.20 67.32 61.71 66.50 59.14 67.22 C 58.64 76.45 59.04 85.72 59.07 94.96 C 69.40 98.65 65.20 87.67 66.91 81.72 C 66.95 86.43 67.00 91.13 66.98 95.84 C 66.51 95.88 65.55 95.95 65.08 95.99 C 63.37 96.01 61.67 96.03 59.97 96.04 C 59.45 95.85 58.42 95.47 57.90 95.28 C 58.16 85.61 57.77 75.94 58.11 66.28 C 59.33 63.46 65.33 67.23 65.00 63.88 C 65.32 59.87 64.89 55.88 64.13 51.96 Z" />
</g>
<g id="#120f06ff">
<path fill="#120f06" opacity="1.00" d=" M 95.89 52.86 C 97.47 52.72 100.64 52.44 102.22 52.30 C 103.39 57.56 101.33 59.49 96.02 58.08 C 95.97 56.34 95.90 54.60 95.89 52.86 Z" />
</g>
<g id="#110f11ff">
<path fill="#110f11" opacity="1.00" d=" M 148.11 51.95 C 152.56 51.08 156.10 53.55 153.95 59.03 C 149.32 59.67 145.39 56.54 148.11 51.95 Z" />
</g>
<g id="#cbb219ff">
<path fill="#cbb219" opacity="1.00" d=" M 154.93 52.11 C 156.58 52.08 159.89 52.02 161.54 51.99 C 161.05 57.13 163.86 61.80 163.23 66.99 C 168.95 64.47 167.84 69.34 169.88 72.89 C 169.68 73.18 169.28 73.76 169.09 74.05 C 167.33 77.42 168.92 81.61 168.64 85.33 C 169.69 89.23 162.17 89.56 162.05 85.92 C 161.91 77.40 162.90 68.86 161.74 60.35 C 159.50 56.46 151.84 59.57 154.93 52.11 Z" />
</g>
<g id="#54421eff">
<path fill="#54421e" opacity="1.00" d=" M 206.13 51.89 C 207.68 52.07 210.78 52.43 212.34 52.61 C 207.64 51.95 205.85 54.60 206.22 59.26 C 206.20 57.42 206.15 53.73 206.13 51.89 Z" />
</g>
<g id="#593d41ff">
<path fill="#593d41" opacity="1.00" d=" M 52.87 59.95 C 57.32 59.46 60.05 57.92 59.85 52.87 C 62.49 57.46 57.52 62.79 52.87 59.95 Z" />
</g>
<g id="#756510ff">
<path fill="#756510" opacity="1.00" d=" M 91.86 58.32 C 95.28 59.81 94.95 55.17 95.89 52.86 C 95.90 54.60 95.97 56.34 96.02 58.08 C 96.00 58.53 95.96 59.42 95.94 59.86 C 90.15 57.60 88.52 61.98 90.06 66.05 C 89.55 66.28 88.53 66.75 88.02 66.99 C 85.75 67.23 83.48 67.50 81.22 67.80 C 80.17 64.82 84.44 66.56 86.08 65.98 C 90.38 66.75 86.69 56.84 91.86 58.32 Z" />
</g>
<g id="#5c403eff">
<path fill="#5c403e" opacity="1.00" d=" M 212.34 52.61 C 213.89 57.98 215.52 69.24 205.96 66.12 C 205.99 64.71 206.03 63.30 206.08 61.89 C 212.06 69.32 213.44 57.59 212.34 52.61 Z" />
</g>
<g id="#2e2a62ff">
<path fill="#2e2a62" opacity="1.00" d=" M 183.71 58.78 C 185.29 58.53 188.47 58.02 190.05 57.77 C 190.65 58.54 191.26 59.31 191.86 60.09 C 190.80 64.31 193.99 67.92 198.01 65.08 C 198.03 65.55 198.05 66.49 198.06 66.96 C 196.83 71.72 202.63 77.82 196.93 81.01 C 195.61 81.02 194.29 81.03 192.97 81.02 C 192.46 75.85 190.77 69.80 185.71 67.31 C 182.43 66.05 184.50 61.50 183.71 58.78 Z" />
</g>
<g id="#1f1b42ff">
<path fill="#1f1b42" opacity="1.00" d=" M 182.27 72.84 C 183.72 68.29 182.40 63.28 183.71 58.78 C 184.50 61.50 182.43 66.05 185.71 67.31 C 190.77 69.80 192.46 75.85 192.97 81.02 C 189.68 81.04 186.41 81.10 183.13 81.07 C 183.67 78.17 185.21 74.78 182.27 72.84 Z" />
</g>
<g id="#100e15ff">
<path fill="#100e15" opacity="1.00" d=" M 90.06 66.05 C 88.52 61.98 90.15 57.60 95.94 59.86 C 95.90 61.23 95.87 62.60 95.82 63.98 C 94.92 66.45 92.16 65.88 90.06 66.05 Z" />
</g>
<g id="#0c0a0dff">
<path fill="#0c0a0d" opacity="1.00" d=" M 153.70 80.83 C 154.39 73.77 153.37 66.58 154.98 59.60 C 157.68 59.78 160.89 59.76 160.53 63.33 C 160.32 71.28 160.58 79.23 160.58 87.18 C 155.95 89.88 151.08 85.74 153.70 80.83 Z" />
</g>
<g id="#0f0e0dff">
<path fill="#0f0e0d" opacity="1.00" d=" M 191.86 60.09 C 195.56 59.14 199.27 60.70 198.01 65.08 C 193.99 67.92 190.80 64.31 191.86 60.09 Z" />
</g>
<g id="#5f4246ff">
<path fill="#5f4246" opacity="1.00" d=" M 43.88 74.19 C 44.54 71.76 41.95 66.28 45.85 66.98 C 45.23 70.25 45.65 73.59 45.43 76.89 C 44.96 78.46 45.42 81.01 43.18 81.13 C 43.49 78.82 43.72 76.51 43.88 74.19 Z" />
</g>
<g id="#0a090aff">
<path fill="#0a090a" opacity="1.00" d=" M 81.22 67.80 C 83.48 67.50 85.75 67.23 88.02 66.99 C 89.14 71.34 86.43 74.31 82.03 72.83 C 81.82 71.45 81.58 70.07 81.31 68.70 L 81.22 67.80 Z" />
</g>
<g id="#231d46ff">
<path fill="#231d46" opacity="1.00" d=" M 110.69 74.72 C 113.44 72.91 110.74 68.15 114.00 66.69 C 116.37 68.46 115.05 72.81 118.29 73.77 C 122.50 76.41 130.02 69.29 132.46 75.45 C 130.20 84.23 143.39 77.76 140.29 86.94 C 146.06 89.59 146.46 84.86 147.15 81.12 C 148.79 81.05 152.07 80.90 153.70 80.83 C 151.08 85.74 155.95 89.88 160.58 87.18 C 161.04 88.79 162.66 88.97 164.05 89.30 C 161.24 90.01 162.56 92.86 162.77 94.88 C 157.00 97.00 146.45 92.35 148.37 102.26 C 150.05 96.44 147.74 94.02 142.76 94.72 C 145.14 94.56 148.71 93.41 146.33 90.67 C 141.16 88.38 132.53 89.47 132.22 81.74 C 124.13 77.94 114.49 82.37 105.96 81.03 C 102.54 80.46 103.55 84.87 103.22 86.95 C 112.81 87.86 124.70 85.47 132.93 88.04 C 123.74 88.25 114.44 87.40 105.31 88.30 C 101.59 88.79 103.26 93.02 102.89 95.80 C 102.38 95.84 101.37 95.94 100.86 95.99 C 99.19 95.98 97.52 95.93 95.85 95.94 C 85.99 90.57 86.06 106.83 95.13 103.92 C 82.64 110.28 92.13 91.18 80.84 95.77 C 90.94 98.02 85.68 82.90 93.83 81.72 C 97.05 81.27 96.99 77.43 98.32 75.15 C 102.36 74.42 107.02 77.41 110.69 74.72 M 90.22 88.10 C 85.00 96.16 96.51 96.55 102.00 94.97 C 105.14 85.78 95.13 88.99 90.22 88.10 Z" />
</g>
<g id="#292142ff">
<path fill="#292142" opacity="1.00" d=" M 198.06 66.96 L 198.92 67.00 C 198.45 71.05 200.63 74.67 204.90 72.33 C 205.20 72.45 205.80 72.67 206.10 72.79 L 206.81 73.04 C 208.17 73.46 210.87 74.30 212.22 74.71 C 203.17 70.25 201.32 92.03 212.25 87.34 C 205.38 85.63 205.57 90.33 205.89 95.07 L 204.96 95.33 L 204.30 94.92 C 205.14 91.40 204.50 87.21 200.14 86.84 C 199.15 84.85 198.16 82.86 196.93 81.01 C 202.63 77.82 196.83 71.72 198.06 66.96 Z" />
</g>
<g id="#0f0b10ff">
<path fill="#0f0b10" opacity="1.00" d=" M 198.92 67.00 C 204.74 64.89 205.72 67.93 204.90 72.33 C 200.63 74.67 198.45 71.05 198.92 67.00 Z" />
</g>
<g id="#7b6b0eff">
<path fill="#7b6b0e" opacity="1.00" d=" M 81.31 68.70 C 81.58 70.07 81.82 71.45 82.03 72.83 C 81.74 73.35 81.16 74.38 80.87 74.90 C 73.09 71.72 76.94 79.25 73.22 81.47 C 73.47 80.18 73.68 78.86 73.26 77.59 C 70.78 70.87 82.60 75.53 81.31 68.70 Z" />
</g>
<g id="#bb8984ff">
<path fill="#bb8984" opacity="1.00" d=" M 206.81 73.04 C 209.15 72.48 211.61 72.18 213.89 73.16 C 214.15 77.69 214.37 82.22 214.60 86.75 C 213.98 90.55 209.64 89.16 207.02 89.05 C 203.93 96.23 209.46 94.34 213.30 95.70 L 212.17 95.86 C 210.36 95.97 208.55 96.04 206.74 96.09 L 205.91 96.08 L 205.89 95.07 C 205.57 90.33 205.38 85.63 212.25 87.34 C 212.89 83.47 214.34 78.43 212.22 74.71 C 210.87 74.30 208.17 73.46 206.81 73.04 Z" />
</g>
<g id="#fbaba8ff">
<path fill="#fbaba8" opacity="1.00" d=" M 3.33 73.40 C 16.48 73.19 29.83 74.43 42.87 72.96 C 43.13 73.27 43.63 73.88 43.88 74.19 C 43.72 76.51 43.49 78.82 43.18 81.13 C 33.81 77.74 36.76 89.61 36.84 95.06 C 33.69 93.75 31.43 93.98 30.05 95.76 C 30.88 101.51 27.59 103.63 23.11 102.42 C 15.53 104.13 7.74 104.17 0.00 104.01 L 0.00 75.05 C 1.09 74.45 2.17 73.85 3.33 73.40 Z" />
</g>
<g id="#302b64ff">
<path fill="#302b64" opacity="1.00" d=" M 177.14 73.05 L 178.03 72.98 C 179.44 72.94 180.85 72.89 182.27 72.84 C 185.21 74.78 183.67 78.17 183.13 81.07 C 177.48 83.32 175.13 79.47 175.85 74.96 L 176.03 74.11 C 176.30 73.85 176.86 73.32 177.14 73.05 Z" />
</g>
<g id="#fdaca9ff">
<path fill="#fdaca9" opacity="1.00" d=" M 213.89 73.16 C 225.84 73.22 238.09 74.55 250.00 72.84 L 250.00 103.93 C 238.31 101.68 226.27 104.30 214.59 102.30 C 214.44 100.06 214.15 97.79 213.30 95.70 C 209.46 94.34 203.93 96.23 207.02 89.05 C 209.64 89.16 213.98 90.55 214.60 86.75 C 214.37 82.22 214.15 77.69 213.89 73.16 Z" />
</g>
<g id="#0b0a12ff">
<path fill="#0b0a12" opacity="1.00" d=" M 73.22 81.47 C 76.94 79.25 73.09 71.72 80.87 74.90 C 80.97 78.89 80.98 82.88 80.90 86.87 C 76.46 87.67 70.20 85.85 72.74 94.03 C 71.63 96.16 68.95 95.43 66.98 95.84 C 67.00 91.13 66.95 86.43 66.91 81.72 C 68.49 81.66 71.65 81.53 73.22 81.47 Z" />
</g>
<g id="#050405ff">
<path fill="#050405" opacity="1.00" d=" M 164.05 89.30 C 175.71 92.28 164.37 71.86 175.85 74.96 C 175.13 79.47 177.48 83.32 183.13 81.07 C 186.41 81.10 189.68 81.04 192.97 81.02 C 194.29 81.03 195.61 81.02 196.93 81.01 C 198.16 82.86 199.15 84.85 200.14 86.84 C 192.55 87.26 184.85 86.42 177.31 87.30 C 171.27 88.00 179.55 99.79 169.99 96.12 C 165.32 100.59 170.79 105.08 175.76 104.28 C 185.56 104.91 197.02 106.30 205.95 103.92 L 206.32 103.08 C 207.86 100.62 208.00 98.29 206.74 96.09 C 208.55 96.04 210.36 95.97 212.17 95.86 C 211.99 100.54 212.24 105.25 211.88 109.94 C 204.92 110.12 197.95 109.97 190.99 110.01 C 186.31 109.97 181.64 109.96 176.97 110.01 C 174.31 109.99 171.65 109.98 169.00 110.01 C 151.65 109.99 134.31 109.98 116.97 110.02 C 107.29 109.97 97.62 109.98 87.95 110.00 C 85.28 109.94 82.62 109.94 79.96 109.98 C 75.64 109.10 71.43 110.16 72.56 115.81 C 68.33 116.03 64.09 116.10 59.86 116.18 C 58.13 114.67 61.51 111.26 58.69 110.16 C 54.06 109.92 49.41 109.94 44.78 110.11 C 38.63 97.05 62.92 110.51 59.97 96.04 C 61.67 96.03 63.37 96.01 65.08 95.99 C 63.08 105.27 72.36 103.04 77.99 104.01 C 82.56 104.49 80.70 98.79 80.84 95.77 C 92.13 91.18 82.64 110.28 95.13 103.92 L 95.92 104.04 C 112.82 105.62 130.56 105.58 147.25 104.25 C 147.53 103.75 148.09 102.75 148.37 102.26 C 146.45 92.35 157.00 97.00 162.77 94.88 C 162.56 92.86 161.24 90.01 164.05 89.30 Z" />
</g>
<g id="#070508ff">
<path fill="#070508" opacity="1.00" d=" M 212.25 87.34 C 201.32 92.03 203.17 70.25 212.22 74.71 C 212.18 78.92 212.19 83.13 212.25 87.34 Z" />
</g>
<g id="#6b4a47ff">
<path fill="#6b4a47" opacity="1.00" d=" M 212.22 74.71 C 214.34 78.43 212.89 83.47 212.25 87.34 C 212.19 83.13 212.18 78.92 212.22 74.71 Z" />
</g>
<g id="#1a1736ff">
<path fill="#1a1736" opacity="1.00" d=" M 45.43 76.89 C 45.69 80.39 47.11 82.97 51.94 81.24 C 52.22 86.93 48.25 99.08 57.90 95.28 C 58.42 95.47 59.45 95.85 59.97 96.04 C 62.92 110.51 38.63 97.05 44.78 110.11 L 44.88 110.93 C 44.49 112.28 43.70 114.96 43.31 116.30 C 47.16 110.22 38.04 106.68 37.50 112.63 C 35.60 116.38 40.99 116.14 43.31 116.30 C 39.77 116.60 33.06 116.81 35.99 122.99 C 36.47 131.21 34.81 139.68 36.70 147.77 C 34.06 150.48 38.05 157.17 29.98 154.07 C 24.54 156.74 23.53 152.42 21.79 149.18 C 19.79 147.96 17.18 148.86 14.96 148.17 C 14.58 146.89 14.00 145.60 14.15 144.24 C 14.32 139.51 18.32 138.05 22.29 137.29 C 21.19 131.28 27.14 129.19 29.29 134.20 C 29.38 139.63 26.52 148.59 34.95 146.78 C 35.00 137.54 35.28 128.29 34.91 119.07 C 33.28 118.90 31.65 118.86 30.02 118.96 C 25.51 120.06 32.10 128.69 23.28 124.93 C 20.10 121.10 24.54 115.33 22.39 110.76 C 22.53 108.44 22.68 106.12 22.82 103.81 C 28.60 106.36 30.93 102.31 30.23 97.70 C 29.62 105.51 40.35 102.21 36.21 96.00 C 36.37 95.77 36.68 95.29 36.84 95.06 L 37.72 95.23 C 40.04 95.43 43.23 96.96 44.91 94.71 C 44.96 90.38 44.60 85.97 43.37 81.81 L 43.18 81.13 C 45.42 81.01 44.96 78.46 45.43 76.89 M 23.99 105.00 C 21.18 108.61 24.41 110.49 26.79 110.65 C 31.45 110.51 30.02 100.17 23.99 105.00 Z" />
</g>
<g id="#755253ff">
<path fill="#755253" opacity="1.00" d=" M 36.84 95.06 C 36.76 89.61 33.81 77.74 43.18 81.13 L 43.37 81.81 C 34.86 79.87 38.69 89.81 37.72 95.23 L 36.84 95.06 Z" />
</g>
<g id="#07060dff">
<path fill="#07060d" opacity="1.00" d=" M 105.96 81.03 C 114.49 82.37 124.13 77.94 132.22 81.74 C 132.53 89.47 141.16 88.38 146.33 90.67 C 148.71 93.41 145.14 94.56 142.76 94.72 C 139.72 94.90 136.70 95.05 133.67 95.31 C 133.46 92.88 133.22 90.45 132.93 88.04 C 124.70 85.47 112.81 87.86 103.22 86.95 C 103.55 84.87 102.54 80.46 105.96 81.03 Z" />
</g>
<g id="#634f14ff">
<path fill="#634f14" opacity="1.00" d=" M 66.91 81.72 C 68.49 81.66 71.65 81.53 73.22 81.47 C 71.65 81.53 68.49 81.66 66.91 81.72 Z" />
</g>
<g id="#05040aff">
<path fill="#05040a" opacity="1.00" d=" M 37.72 95.23 C 38.69 89.81 34.86 79.87 43.37 81.81 C 44.60 85.97 44.96 90.38 44.91 94.71 C 43.23 96.96 40.04 95.43 37.72 95.23 Z" />
</g>
<g id="#58356cff">
<path fill="#58356c" opacity="1.00" d=" M 177.31 87.30 C 184.85 86.42 192.55 87.26 200.14 86.84 C 200.04 89.66 199.97 92.48 199.94 95.31 C 200.95 82.94 185.04 87.92 177.24 89.23 C 178.34 93.11 174.55 98.98 177.69 102.19 C 187.06 103.56 196.82 102.71 206.32 103.08 L 205.95 103.92 C 195.88 104.18 185.81 103.66 175.76 104.28 C 170.79 105.08 165.32 100.59 169.99 96.12 C 179.55 99.79 171.27 88.00 177.31 87.30 Z" />
</g>
<g id="#0d0912ff">
<path fill="#0d0912" opacity="1.00" d=" M 200.14 86.84 C 204.50 87.21 205.14 91.40 204.30 94.92 C 202.82 94.81 201.37 94.94 199.94 95.31 C 199.97 92.48 200.04 89.66 200.14 86.84 Z" />
</g>
<g id="#080610ff">
<path fill="#080610" opacity="1.00" d=" M 90.22 88.10 C 95.13 88.99 105.14 85.78 102.00 94.97 C 96.51 96.55 85.00 96.16 90.22 88.10 Z" />
</g>
<g id="#8754a7ff">
<path fill="#8754a7" opacity="1.00" d=" M 105.31 88.30 C 114.44 87.40 123.74 88.25 132.93 88.04 C 133.22 90.45 133.46 92.88 133.67 95.31 L 133.69 96.35 C 133.22 96.25 132.28 96.05 131.81 95.95 C 131.80 92.28 132.85 86.24 126.00 88.97 C 120.60 90.73 106.27 83.92 109.94 95.16 C 107.58 95.35 105.23 95.52 102.89 95.80 C 103.26 93.02 101.59 88.79 105.31 88.30 Z" />
</g>
<g id="#9d63c2ff">
<path fill="#9d63c2" opacity="1.00" d=" M 177.24 89.23 C 185.04 87.92 200.95 82.94 199.94 95.31 L 200.03 95.92 C 194.89 96.10 200.43 84.36 191.98 88.92 C 182.61 84.96 183.03 96.21 183.68 101.30 C 190.33 102.93 197.99 101.75 205.00 101.93 C 205.92 99.09 205.22 97.22 202.90 96.31 C 203.42 96.07 204.45 95.57 204.96 95.33 L 205.89 95.07 L 205.91 96.08 C 206.01 97.83 206.22 101.33 206.32 103.08 C 196.82 102.71 187.06 103.56 177.69 102.19 C 174.55 98.98 178.34 93.11 177.24 89.23 Z" />
</g>
<g id="#b774e1ff">
<path fill="#b774e1" opacity="1.00" d=" M 109.94 95.16 C 106.27 83.92 120.60 90.73 126.00 88.97 C 132.85 86.24 131.80 92.28 131.81 95.95 C 124.78 95.65 116.05 92.27 109.95 97.03 C 109.95 96.56 109.94 95.62 109.94 95.16 Z" />
</g>
<g id="#c980f4ff">
<path fill="#c980f4" opacity="1.00" d=" M 183.68 101.30 C 183.03 96.21 182.61 84.96 191.98 88.92 C 200.43 84.36 194.89 96.10 200.03 95.92 C 200.75 96.02 202.19 96.21 202.90 96.31 C 205.22 97.22 205.92 99.09 205.00 101.93 C 197.99 101.75 190.33 102.93 183.68 101.30 Z" />
</g>
<g id="#161430ff">
<path fill="#161430" opacity="1.00" d=" M 66.98 95.84 C 68.95 95.43 71.63 96.16 72.74 94.03 C 74.34 97.07 77.93 95.85 80.84 95.77 C 80.70 98.79 82.56 104.49 77.99 104.01 C 72.36 103.04 63.08 105.27 65.08 95.99 C 65.55 95.95 66.51 95.88 66.98 95.84 Z" />
</g>
<g id="#a26b6aff">
<path fill="#a26b6a" opacity="1.00" d=" M 30.05 95.76 C 31.43 93.98 33.69 93.75 36.84 95.06 C 36.68 95.29 36.37 95.77 36.21 96.00 C 34.15 96.21 32.07 96.19 30.05 95.76 Z" />
</g>
<g id="#9f64c3ff">
<path fill="#9f64c3" opacity="1.00" d=" M 102.89 95.80 C 105.23 95.52 107.58 95.35 109.94 95.16 C 109.94 95.62 109.95 96.56 109.95 97.03 C 110.11 98.70 109.50 100.89 111.29 101.87 C 122.85 102.17 134.43 102.06 145.99 101.93 C 149.10 92.95 138.05 98.69 133.69 96.35 C 139.87 96.38 150.76 92.51 146.96 102.94 C 133.01 103.14 119.05 102.94 105.10 103.01 C 103.19 101.20 99.58 99.03 100.86 95.99 C 101.37 95.94 102.38 95.84 102.89 95.80 Z" />
</g>
<g id="#ce83faff">
<path fill="#ce83fa" opacity="1.00" d=" M 109.95 97.03 C 116.05 92.27 124.78 95.65 131.81 95.95 C 132.28 96.05 133.22 96.25 133.69 96.35 C 138.05 98.69 149.10 92.95 145.99 101.93 C 134.43 102.06 122.85 102.17 111.29 101.87 C 109.50 100.89 110.11 98.70 109.95 97.03 Z" />
</g>
<g id="#5e3873ff">
<path fill="#5e3873" opacity="1.00" d=" M 133.67 95.31 C 136.70 95.05 139.72 94.90 142.76 94.72 C 147.74 94.02 150.05 96.44 148.37 102.26 C 148.09 102.75 147.53 103.75 147.25 104.25 C 130.14 103.77 113.03 104.06 95.92 104.04 L 95.13 103.92 C 86.06 106.83 85.99 90.57 95.85 95.94 C 91.55 104.17 99.83 103.23 105.10 103.01 C 119.05 102.94 133.01 103.14 146.96 102.94 C 150.76 92.51 139.87 96.38 133.69 96.35 L 133.67 95.31 Z" />
</g>
<g id="#603d6fff">
<path fill="#603d6f" opacity="1.00" d=" M 199.94 95.31 C 201.37 94.94 202.82 94.81 204.30 94.92 L 204.96 95.33 C 204.45 95.57 203.42 96.07 202.90 96.31 C 202.19 96.21 200.75 96.02 200.03 95.92 L 199.94 95.31 Z" />
</g>
<g id="#895f57ff">
<path fill="#895f57" opacity="1.00" d=" M 23.11 102.42 C 27.59 103.63 30.88 101.51 30.05 95.76 C 30.09 96.25 30.18 97.22 30.23 97.70 C 30.93 102.31 28.60 106.36 22.82 103.81 C 22.89 103.46 23.04 102.77 23.11 102.42 Z" />
</g>
<g id="#0c080eff">
<path fill="#0c080e" opacity="1.00" d=" M 30.05 95.76 C 32.07 96.19 34.15 96.21 36.21 96.00 C 40.35 102.21 29.62 105.51 30.23 97.70 C 30.18 97.22 30.09 96.25 30.05 95.76 Z" />
</g>
<g id="#8251a2ff">
<path fill="#8251a2" opacity="1.00" d=" M 95.85 95.94 C 97.52 95.93 99.19 95.98 100.86 95.99 C 99.58 99.03 103.19 101.20 105.10 103.01 C 99.83 103.23 91.55 104.17 95.85 95.94 Z" />
</g>
<g id="#4b3157ff">
<path fill="#4b3157" opacity="1.00" d=" M 205.91 96.08 L 206.74 96.09 C 208.00 98.29 207.86 100.62 206.32 103.08 C 206.22 101.33 206.01 97.83 205.91 96.08 Z" />
</g>
<g id="#723f72ff">
<path fill="#723f72" opacity="1.00" d=" M 212.17 95.86 L 213.30 95.70 C 213.12 100.77 212.99 105.86 212.91 110.94 L 211.98 110.97 C 210.00 110.99 208.03 110.99 206.07 111.02 C 204.08 110.99 202.09 110.99 200.11 111.04 L 199.17 111.04 C 197.38 111.04 193.80 111.02 192.01 111.01 L 191.05 110.99 L 190.99 110.01 C 197.95 109.97 204.92 110.12 211.88 109.94 C 212.24 105.25 211.99 100.54 212.17 95.86 Z" />
</g>
<g id="#c88489ff">
<path fill="#c88489" opacity="1.00" d=" M 213.30 95.70 C 214.15 97.79 214.44 100.06 214.59 102.30 C 214.72 105.62 214.76 108.94 213.96 112.19 C 213.70 111.87 213.17 111.25 212.91 110.94 C 212.99 105.86 213.12 100.77 213.30 95.70 Z" />
</g>
<g id="#f89e9bff">
<path fill="#f89e9b" opacity="1.00" d=" M 0.00 104.01 C 7.74 104.17 15.53 104.13 23.11 102.42 C 23.04 102.77 22.89 103.46 22.82 103.81 C 21.03 105.00 21.80 107.04 21.85 108.81 C 19.80 110.76 16.68 109.65 14.12 110.21 C 13.65 115.10 14.92 120.29 13.11 125.00 C 11.71 125.00 10.32 125.00 8.93 125.00 C 0.26 130.11 16.54 156.26 0.00 154.09 L 0.00 104.01 Z" />
</g>
<g id="#fba29fff">
<path fill="#fba29f" opacity="1.00" d=" M 214.59 102.30 C 226.27 104.30 238.31 101.68 250.00 103.93 L 250.00 132.94 C 237.88 133.84 224.81 129.69 213.14 134.21 C 213.12 131.22 213.07 128.25 213.18 125.27 C 214.01 120.95 213.96 116.56 213.96 112.19 C 214.76 108.94 214.72 105.62 214.59 102.30 Z" />
</g>
<g id="#8a5d59ff">
<path fill="#8a5d59" opacity="1.00" d=" M 21.85 108.81 C 21.80 107.04 21.03 105.00 22.82 103.81 C 22.68 106.12 22.53 108.44 22.39 110.76 C 8.79 105.43 19.38 123.11 13.11 125.00 C 14.92 120.29 13.65 115.10 14.12 110.21 C 16.68 109.65 19.80 110.76 21.85 108.81 Z" />
</g>
<g id="#261831ff">
<path fill="#261831" opacity="1.00" d=" M 95.92 104.04 C 113.03 104.06 130.14 103.77 147.25 104.25 C 130.56 105.58 112.82 105.62 95.92 104.04 Z" />
</g>
<g id="#271931ff">
<path fill="#271931" opacity="1.00" d=" M 175.76 104.28 C 185.81 103.66 195.88 104.18 205.95 103.92 C 197.02 106.30 185.56 104.91 175.76 104.28 Z" />
</g>
<g id="#020204ff">
<path fill="#020204" opacity="1.00" d=" M 23.99 105.00 C 30.02 100.17 31.45 110.51 26.79 110.65 C 24.41 110.49 21.18 108.61 23.99 105.00 Z" />
</g>
<g id="#040307ff">
<path fill="#040307" opacity="1.00" d=" M 37.50 112.63 C 38.04 106.68 47.16 110.22 43.31 116.30 C 40.99 116.14 35.60 116.38 37.50 112.63 Z" />
</g>
<g id="#533367ff">
<path fill="#533367" opacity="1.00" d=" M 44.78 110.11 C 49.41 109.94 54.06 109.92 58.69 110.16 C 61.51 111.26 58.13 114.67 59.86 116.18 C 60.20 116.45 60.88 117.00 61.21 117.28 C 60.60 117.55 59.38 118.10 58.77 118.38 C 61.15 108.05 51.35 111.25 44.88 110.93 L 44.78 110.11 Z" />
</g>
<g id="#2a2454ff">
<path fill="#2a2454" opacity="1.00" d=" M 72.56 115.81 C 71.43 110.16 75.64 109.10 79.96 109.98 C 78.96 113.06 79.26 116.36 80.78 119.21 C 83.41 125.30 75.37 141.90 86.94 138.99 C 87.06 134.32 86.97 129.66 87.00 124.99 L 88.01 124.99 C 88.00 126.95 87.98 128.91 88.00 130.88 C 85.86 137.93 88.56 140.43 94.94 138.90 C 95.24 139.14 95.84 139.63 96.15 139.87 C 93.24 147.27 97.57 147.82 103.07 147.00 C 105.65 147.01 108.23 147.03 110.82 147.06 L 111.08 147.94 C 106.00 149.69 92.54 143.50 96.01 153.95 C 102.04 152.02 119.82 159.39 115.13 147.98 C 115.83 147.98 117.23 148.00 117.93 148.00 C 112.80 158.99 129.49 148.87 125.04 159.02 C 125.13 164.93 111.85 158.91 117.07 169.05 C 109.34 165.90 110.92 172.32 110.99 176.93 C 110.97 181.93 110.98 186.94 111.02 191.95 C 110.98 193.97 110.96 195.99 110.96 198.01 C 108.79 189.05 110.44 177.91 110.00 167.99 C 115.68 169.58 117.67 167.58 115.98 161.98 C 110.26 159.24 109.59 164.52 110.00 167.99 C 104.11 164.92 102.71 173.28 103.67 177.46 C 107.00 183.86 99.73 185.03 95.71 185.96 C 88.41 184.02 91.55 173.23 82.39 174.53 C 78.55 172.56 83.25 165.68 79.76 163.03 C 72.30 158.89 76.37 168.80 72.12 169.10 C 72.35 167.59 72.81 164.58 73.03 163.07 C 65.65 162.87 58.26 162.99 50.88 163.08 C 50.16 160.41 50.33 157.61 50.13 154.87 C 52.64 156.37 50.85 159.65 52.14 161.87 C 59.05 162.13 65.98 162.19 72.89 161.88 C 74.44 159.64 71.53 155.60 74.66 154.71 C 72.02 161.65 83.95 164.16 81.04 155.17 C 79.45 155.05 76.25 154.83 74.66 154.71 L 75.20 154.14 C 80.39 155.77 81.55 153.10 81.23 149.10 C 81.54 148.73 82.15 147.99 82.46 147.61 C 90.09 148.90 80.89 158.27 85.54 158.70 C 85.75 151.75 98.63 158.20 95.01 149.05 C 94.66 146.29 90.35 147.36 88.20 146.71 C 86.37 143.72 89.12 136.85 82.16 140.04 C 79.32 139.63 81.49 144.87 79.02 145.97 C 74.22 147.30 74.02 143.38 74.12 139.91 C 72.90 136.84 65.13 141.51 66.23 136.78 C 65.25 132.98 69.57 134.02 72.23 133.38 C 73.52 133.24 74.23 132.52 74.34 131.23 C 75.10 126.55 75.30 121.77 74.90 117.05 C 71.52 116.93 68.15 116.99 64.77 117.14 C 63.58 117.16 62.40 117.21 61.21 117.28 C 60.88 117.00 60.20 116.45 59.86 116.18 C 64.09 116.10 68.33 116.03 72.56 115.81 M 90.25 140.10 C 87.85 141.57 88.62 146.77 92.00 146.05 C 96.96 147.10 96.95 135.07 90.25 140.10 M 119.25 155.10 C 112.72 160.43 128.60 164.40 123.99 154.98 L 119.25 155.10 Z" />
</g>
<g id="#0f786cff">
<path fill="#0f786c" opacity="1.00" d=" M 79.96 109.98 C 82.62 109.94 85.28 109.94 87.95 110.00 L 88.12 110.97 C 78.82 105.10 79.39 121.62 87.06 117.13 C 87.38 117.63 88.01 118.63 88.32 119.13 L 87.19 119.10 C 85.05 119.00 82.91 119.08 80.78 119.21 C 79.26 116.36 78.96 113.06 79.96 109.98 Z" />
</g>
<g id="#4c8a06ff">
<path fill="#4c8a06" opacity="1.00" d=" M 87.95 110.00 C 97.62 109.98 107.29 109.97 116.97 110.02 L 117.11 111.01 C 112.09 111.00 107.08 110.95 102.07 111.02 C 98.07 111.00 94.07 111.01 90.08 111.03 C 89.59 111.01 88.61 110.98 88.12 110.97 L 87.95 110.00 Z" />
</g>
<g id="#8b6804ff">
<path fill="#8b6804" opacity="1.00" d=" M 116.97 110.02 C 134.31 109.98 151.65 109.99 169.00 110.01 L 168.99 110.98 C 162.04 111.02 155.10 110.93 148.15 111.03 C 142.79 111.00 137.44 110.98 132.08 110.96 C 127.08 110.94 122.10 110.99 117.11 111.01 L 116.97 110.02 Z" />
</g>
<g id="#978283ff">
<path fill="#978283" opacity="1.00" d=" M 169.00 110.01 C 171.65 109.98 174.31 109.99 176.97 110.01 L 177.11 111.00 L 176.10 111.02 C 174.33 111.01 170.77 110.99 168.99 110.98 L 169.00 110.01 Z" />
</g>
<g id="#8f2c0dff">
<path fill="#8f2c0d" opacity="1.00" d=" M 176.97 110.01 C 181.64 109.96 186.31 109.97 190.99 110.01 L 191.05 110.99 L 190.08 111.01 C 185.75 110.99 181.43 111.00 177.11 111.00 L 176.97 110.01 Z" />
</g>
<g id="#100e21ff">
<path fill="#100e21" opacity="1.00" d=" M 13.11 125.00 C 19.38 123.11 8.79 105.43 22.39 110.76 C 24.54 115.33 20.10 121.10 23.28 124.93 C 32.10 128.69 25.51 120.06 30.02 118.96 C 29.32 124.01 29.65 129.12 29.29 134.20 C 27.14 129.19 21.19 131.28 22.29 137.29 C 18.32 138.05 14.32 139.51 14.15 144.24 C 12.68 138.11 20.77 122.72 8.82 125.82 L 8.93 125.00 C 10.32 125.00 11.71 125.00 13.11 125.00 Z" />
</g>
<g id="#623a79ff">
<path fill="#623a79" opacity="1.00" d=" M 43.31 116.30 C 43.70 114.96 44.49 112.28 44.88 110.93 C 46.46 115.82 43.62 120.10 38.31 119.51 C 36.84 128.18 36.66 137.03 37.10 145.80 C 38.87 147.61 41.69 146.23 43.89 147.12 C 44.42 148.50 44.41 149.94 43.92 151.33 C 43.35 147.61 40.15 147.44 36.70 147.77 C 34.81 139.68 36.47 131.21 35.99 122.99 C 33.06 116.81 39.77 116.60 43.31 116.30 Z" />
</g>
<g id="#955db9ff">
<path fill="#955db9" opacity="1.00" d=" M 44.88 110.93 C 51.35 111.25 61.15 108.05 58.77 118.38 C 53.98 119.13 41.37 113.97 44.04 124.02 C 46.63 129.59 41.94 131.23 38.21 132.52 C 37.92 134.91 37.87 137.31 38.09 139.71 C 44.50 137.65 42.62 143.82 43.89 147.12 C 41.69 146.23 38.87 147.61 37.10 145.80 C 36.66 137.03 36.84 128.18 38.31 119.51 C 43.62 120.10 46.46 115.82 44.88 110.93 Z" />
</g>
<g id="#0afab7ff">
<path fill="#0afab7" opacity="1.00" d=" M 87.06 117.13 C 79.39 121.62 78.82 105.10 88.12 110.97 C 87.85 112.51 87.33 115.59 87.06 117.13 Z" />
</g>
<g id="#52f54eff">
<path fill="#52f54e" opacity="1.00" d=" M 88.12 110.97 C 88.61 110.98 89.59 111.01 90.08 111.03 C 90.00 113.85 90.75 117.14 88.32 119.13 C 88.01 118.63 87.38 117.63 87.06 117.13 C 87.33 115.59 87.85 112.51 88.12 110.97 Z" />
</g>
<g id="#65fe02ff">
<path fill="#65fe02" opacity="1.00" d=" M 90.08 111.03 C 94.07 111.01 98.07 111.00 102.07 111.02 C 105.67 119.81 92.50 115.31 95.27 124.16 C 93.44 124.12 91.62 124.12 89.80 124.15 C 87.44 123.81 88.76 120.80 88.32 119.13 C 90.75 117.14 90.00 113.85 90.08 111.03 Z" />
</g>
<g id="#b3fd02ff">
<path fill="#b3fd02" opacity="1.00" d=" M 102.07 111.02 C 107.08 110.95 112.09 111.00 117.11 111.01 C 120.24 119.14 106.94 114.96 109.96 122.98 C 110.88 127.82 102.33 122.55 101.98 127.09 C 101.45 128.82 102.67 130.08 104.03 130.88 L 103.02 131.04 C 100.73 131.56 98.39 131.35 96.12 130.85 C 96.13 128.56 96.88 126.10 95.27 124.16 C 92.50 115.31 105.67 119.81 102.07 111.02 Z" />
</g>
<g id="#f9fb01ff">
<path fill="#f9fb01" opacity="1.00" d=" M 117.11 111.01 C 122.10 110.99 127.08 110.94 132.08 110.96 C 133.38 113.18 133.60 116.66 130.60 117.55 C 120.23 114.00 130.07 129.74 119.13 125.12 C 119.78 129.10 116.03 134.48 110.98 132.09 C 108.68 131.57 106.36 131.17 104.03 130.88 C 102.67 130.08 101.45 128.82 101.98 127.09 C 102.33 122.55 110.88 127.82 109.96 122.98 C 106.94 114.96 120.24 119.14 117.11 111.01 Z" />
</g>
<g id="#fec201ff">
<path fill="#fec201" opacity="1.00" d=" M 132.08 110.96 C 137.44 110.98 142.79 111.00 148.15 111.03 C 148.33 115.35 145.96 119.59 140.65 118.68 C 143.85 129.01 129.96 120.94 132.19 131.25 C 128.65 133.28 123.38 133.32 125.20 139.03 C 119.08 138.38 107.42 142.75 110.98 132.09 C 116.03 134.48 119.78 129.10 119.13 125.12 C 130.07 129.74 120.23 114.00 130.60 117.55 C 133.60 116.66 133.38 113.18 132.08 110.96 Z" />
</g>
<g id="#fe8303ff">
<path fill="#fe8303" opacity="1.00" d=" M 148.15 111.03 C 155.10 110.93 162.04 111.02 168.99 110.98 C 168.99 111.37 168.98 112.16 168.98 112.55 C 168.75 113.79 168.95 115.18 168.25 116.28 C 159.59 112.22 160.28 119.52 159.14 124.87 C 155.26 123.65 152.24 125.85 153.71 130.69 C 147.44 129.58 144.58 133.20 145.93 138.97 C 143.29 138.95 140.65 138.95 138.01 138.96 C 133.74 138.94 129.47 139.03 125.20 139.03 C 123.38 133.32 128.65 133.28 132.19 131.25 C 129.96 120.94 143.85 129.01 140.65 118.68 C 145.96 119.59 148.33 115.35 148.15 111.03 Z" />
</g>
<g id="#faf8f5ff">
<path fill="#faf8f5" opacity="1.00" d=" M 168.99 110.98 C 170.77 110.99 174.33 111.01 176.10 111.02 C 178.59 117.14 168.58 119.32 168.98 112.55 C 168.98 112.16 168.99 111.37 168.99 110.98 Z" />
</g>
<g id="#fbb6aaff">
<path fill="#fbb6aa" opacity="1.00" d=" M 176.10 111.02 L 177.11 111.00 C 178.76 116.58 176.43 120.51 170.28 119.29 C 172.68 126.34 167.06 124.81 163.00 125.07 C 161.82 126.74 161.43 129.14 161.82 132.28 L 161.03 132.20 C 160.98 130.65 160.90 127.55 160.85 126.00 C 153.70 122.86 155.32 129.14 154.09 133.07 C 149.98 132.46 146.66 134.33 147.89 138.99 L 146.90 139.00 L 145.93 138.97 C 144.58 133.20 147.44 129.58 153.71 130.69 C 152.24 125.85 155.26 123.65 159.14 124.87 C 163.15 125.93 159.90 119.31 162.32 117.39 C 163.80 117.12 166.77 116.56 168.25 116.28 C 168.95 115.18 168.75 113.79 168.98 112.55 C 168.58 119.32 178.59 117.14 176.10 111.02 M 164.18 118.38 C 160.95 123.09 162.23 124.96 168.01 123.99 C 170.62 119.78 167.08 117.74 164.18 118.38 Z" />
</g>
<g id="#fc310eff">
<path fill="#fc310e" opacity="1.00" d=" M 177.11 111.00 C 181.43 111.00 185.75 110.99 190.08 111.01 C 190.58 114.34 189.76 116.98 186.01 116.49 C 181.07 116.08 183.46 121.87 183.07 125.11 C 179.77 124.08 177.36 124.32 175.85 125.83 C 178.09 133.89 158.06 134.34 163.00 125.07 C 167.06 124.81 172.68 126.34 170.28 119.29 C 176.43 120.51 178.76 116.58 177.11 111.00 Z" />
</g>
<g id="#f79290ff">
<path fill="#f79290" opacity="1.00" d=" M 190.08 111.01 L 191.05 110.99 L 192.01 111.01 C 192.01 112.74 192.00 116.21 191.99 117.94 C 191.54 117.95 190.63 117.96 190.18 117.97 C 184.56 116.35 182.50 118.30 183.99 123.84 C 183.76 124.15 183.30 124.79 183.07 125.11 C 183.46 121.87 181.07 116.08 186.01 116.49 C 189.76 116.98 190.58 114.34 190.08 111.01 Z" />
</g>
<g id="#f5e6faff">
<path fill="#f5e6fa" opacity="1.00" d=" M 192.01 111.01 C 193.80 111.02 197.38 111.04 199.17 111.04 C 198.68 115.17 198.41 120.80 191.99 117.94 C 192.00 116.21 192.01 112.74 192.01 111.01 Z" />
</g>
<g id="#d480f3ff">
<path fill="#d480f3" opacity="1.00" d=" M 199.17 111.04 L 200.11 111.04 C 199.86 113.43 199.59 115.82 199.30 118.22 C 198.94 118.43 198.22 118.85 197.86 119.06 C 192.40 117.52 190.44 119.52 192.00 125.07 C 191.55 125.06 190.64 125.05 190.18 125.04 C 190.55 122.70 190.55 120.30 190.18 117.97 C 190.63 117.96 191.54 117.95 191.99 117.94 C 198.41 120.80 198.68 115.17 199.17 111.04 Z" />
</g>
<g id="#cc07fbff">
<path fill="#cc07fb" opacity="1.00" d=" M 200.11 111.04 C 202.09 110.99 204.08 110.99 206.07 111.02 C 208.71 117.48 203.33 117.54 199.30 118.22 C 199.59 115.82 199.86 113.43 200.11 111.04 Z" />
</g>
<g id="#7f04feff">
<path fill="#7f04fe" opacity="1.00" d=" M 206.07 111.02 C 208.03 110.99 210.00 110.99 211.98 110.97 C 212.00 115.66 211.95 120.36 212.12 125.05 C 210.10 124.97 208.08 124.88 206.07 125.01 C 202.16 125.38 206.59 129.82 203.59 130.51 C 197.19 128.54 196.53 134.80 197.19 139.11 C 195.49 139.52 193.76 139.77 192.04 140.01 C 191.58 139.96 190.65 139.86 190.19 139.81 C 187.85 139.50 185.50 139.23 183.16 138.99 C 183.41 136.87 182.67 134.21 184.96 133.01 C 192.00 135.50 192.79 130.16 192.00 125.07 C 199.45 127.64 199.26 123.82 197.86 119.06 C 198.22 118.85 198.94 118.43 199.30 118.22 C 203.33 117.54 208.71 117.48 206.07 111.02 Z" />
</g>
<g id="#b960d5ff">
<path fill="#b960d5" opacity="1.00" d=" M 211.98 110.97 L 212.91 110.94 C 213.17 111.25 213.70 111.87 213.96 112.19 C 213.96 116.56 214.01 120.95 213.18 125.27 L 212.12 125.05 C 211.95 120.36 212.00 115.66 211.98 110.97 Z" />
</g>
<g id="#fa8b55ff">
<path fill="#fa8b55" opacity="1.00" d=" M 159.14 124.87 C 160.28 119.52 159.59 112.22 168.25 116.28 C 166.77 116.56 163.80 117.12 162.32 117.39 C 159.90 119.31 163.15 125.93 159.14 124.87 Z" />
</g>
<g id="#985fbdff">
<path fill="#985fbd" opacity="1.00" d=" M 61.21 117.28 C 62.40 117.21 63.58 117.16 64.77 117.14 C 75.42 114.54 72.55 124.90 74.34 131.23 C 74.23 132.52 73.52 133.24 72.23 133.38 C 70.36 133.18 68.47 132.97 66.67 132.38 C 72.39 134.68 75.50 129.93 72.34 125.65 C 65.77 121.04 66.76 128.43 66.67 132.38 C 65.52 130.20 67.65 124.73 64.07 124.93 C 59.96 124.83 55.84 124.76 51.73 124.71 C 55.74 121.53 68.95 128.40 66.94 120.19 C 64.65 118.39 61.48 119.03 58.77 118.38 C 59.38 118.10 60.60 117.55 61.21 117.28 Z" />
</g>
<g id="#6a3f85ff">
<path fill="#6a3f85" opacity="1.00" d=" M 64.77 117.14 C 68.15 116.99 71.52 116.93 74.90 117.05 C 75.30 121.77 75.10 126.55 74.34 131.23 C 72.55 124.90 75.42 114.54 64.77 117.14 Z" />
</g>
<g id="#c07aebff">
<path fill="#c07aeb" opacity="1.00" d=" M 44.04 124.02 C 41.37 113.97 53.98 119.13 58.77 118.38 C 61.48 119.03 64.65 118.39 66.94 120.19 C 68.95 128.40 55.74 121.53 51.73 124.71 C 47.65 131.08 57.87 152.04 43.89 147.12 C 42.62 143.82 44.50 137.65 38.09 139.71 C 37.87 137.31 37.92 134.91 38.21 132.52 C 41.94 131.23 46.63 129.59 44.04 124.02 Z" />
</g>
<g id="#fdfdf9ff">
<path fill="#fdfdf9" opacity="1.00" d=" M 164.18 118.38 C 167.08 117.74 170.62 119.78 168.01 123.99 C 162.23 124.96 160.95 123.09 164.18 118.38 Z" />
</g>
<g id="#f9eef2ff">
<path fill="#f9eef2" opacity="1.00" d=" M 183.99 123.84 C 182.50 118.30 184.56 116.35 190.18 117.97 C 190.55 120.30 190.55 122.70 190.18 125.04 C 188.75 125.04 187.31 125.03 185.88 125.01 C 185.41 124.71 184.46 124.13 183.99 123.84 Z" />
</g>
<g id="#040308ff">
<path fill="#040308" opacity="1.00" d=" M 30.02 118.96 C 31.65 118.86 33.28 118.90 34.91 119.07 C 35.28 128.29 35.00 137.54 34.95 146.78 C 26.52 148.59 29.38 139.63 29.29 134.20 C 29.65 129.12 29.32 124.01 30.02 118.96 Z" />
</g>
<g id="#040408ff">
<path fill="#040408" opacity="1.00" d=" M 80.78 119.21 C 82.91 119.08 85.05 119.00 87.19 119.10 C 87.06 121.06 86.99 123.02 87.00 124.99 C 86.97 129.66 87.06 134.32 86.94 138.99 C 75.37 141.90 83.41 125.30 80.78 119.21 Z" />
</g>
<g id="#33780dff">
<path fill="#33780d" opacity="1.00" d=" M 87.19 119.10 L 88.32 119.13 C 88.76 120.80 87.44 123.81 89.80 124.15 L 90.12 124.92 C 89.60 124.94 88.54 124.97 88.01 124.99 L 87.00 124.99 C 86.99 123.02 87.06 121.06 87.19 119.10 Z" />
</g>
<g id="#cc07fcff">
<path fill="#cc07fc" opacity="1.00" d=" M 192.00 125.07 C 190.44 119.52 192.40 117.52 197.86 119.06 C 199.26 123.82 199.45 127.64 192.00 125.07 Z" />
</g>
<g id="#94ab67ff">
<path fill="#94ab67" opacity="1.00" d=" M 89.80 124.15 C 91.62 124.12 93.44 124.12 95.27 124.16 C 96.88 126.10 96.13 128.56 96.12 130.85 C 98.39 131.35 100.73 131.56 103.02 131.04 C 102.57 131.81 102.53 132.54 102.90 133.25 L 102.68 133.86 C 100.46 133.58 98.21 133.53 95.97 133.65 C 95.58 129.60 95.71 123.67 90.12 124.92 L 89.80 124.15 Z" />
</g>
<g id="#ce84f4ff">
<path fill="#ce84f4" opacity="1.00" d=" M 183.99 123.84 C 184.46 124.13 185.41 124.71 185.88 125.01 C 185.51 127.66 185.23 130.34 184.96 133.01 C 181.07 133.18 173.79 133.00 176.99 138.95 C 174.39 139.42 170.52 137.83 168.79 139.80 C 170.57 143.78 166.43 150.24 163.47 145.59 C 165.40 138.08 158.73 138.82 153.99 138.96 C 154.00 136.99 154.02 135.03 154.09 133.07 C 156.40 132.73 158.73 132.60 161.03 132.20 L 161.82 132.28 C 166.47 132.87 171.64 133.87 176.16 132.06 C 176.59 131.84 177.47 131.42 177.91 131.21 C 182.90 133.40 184.60 131.66 183.00 126.00 L 183.07 125.11 C 183.30 124.79 183.76 124.15 183.99 123.84 Z" />
</g>
<g id="#976563ff">
<path fill="#976563" opacity="1.00" d=" M 0.00 154.09 C 16.54 156.26 0.26 130.11 8.93 125.00 L 8.82 125.82 C 7.11 135.06 8.57 144.49 7.89 153.80 C 7.00 154.44 6.03 154.89 4.97 155.18 C 3.32 155.09 1.66 155.03 0.00 154.98 L 0.00 154.09 Z" />
</g>
<g id="#9b61bfff">
<path fill="#9b61bf" opacity="1.00" d=" M 43.89 147.12 C 57.87 152.04 47.65 131.08 51.73 124.71 C 52.06 131.49 51.86 138.29 51.97 145.08 C 52.96 149.46 61.88 147.04 66.16 146.19 C 64.87 151.76 52.35 143.82 51.94 151.00 C 51.21 153.52 54.21 153.61 55.83 154.28 C 60.93 154.67 57.26 164.89 64.78 160.99 C 66.21 159.01 66.49 156.50 67.34 154.26 C 69.96 154.40 72.59 154.42 75.20 154.14 L 74.66 154.71 C 71.53 155.60 74.44 159.64 72.89 161.88 C 65.98 162.19 59.05 162.13 52.14 161.87 C 50.85 159.65 52.64 156.37 50.13 154.87 C 47.84 153.28 43.28 155.37 43.92 151.33 C 44.41 149.94 44.42 148.50 43.89 147.12 Z" />
</g>
<g id="#34213dff">
<path fill="#34213d" opacity="1.00" d=" M 51.73 124.71 C 55.84 124.76 59.96 124.83 64.07 124.93 L 64.23 125.79 C 61.45 125.87 55.87 126.04 53.09 126.12 C 52.90 132.49 53.06 138.87 52.85 145.24 L 51.97 145.08 C 51.86 138.29 52.06 131.49 51.73 124.71 Z" />
</g>
<g id="#593770ff">
<path fill="#593770" opacity="1.00" d=" M 64.07 124.93 C 67.65 124.73 65.52 130.20 66.67 132.38 C 68.47 132.97 70.36 133.18 72.23 133.38 C 69.57 134.02 65.25 132.98 66.23 136.78 C 65.13 141.51 72.90 136.84 74.12 139.91 C 73.60 139.91 72.55 139.92 72.03 139.92 C 67.32 138.75 66.17 141.86 66.16 146.19 C 61.88 147.04 52.96 149.46 51.97 145.08 L 52.85 145.24 C 57.23 146.84 69.32 147.79 64.22 139.90 C 55.27 140.54 58.55 131.70 64.26 131.16 C 64.25 129.81 64.24 127.13 64.23 125.79 L 64.07 124.93 Z" />
</g>
<g id="#c87ff4ff">
<path fill="#c87ff4" opacity="1.00" d=" M 66.67 132.38 C 66.76 128.43 65.77 121.04 72.34 125.65 C 75.50 129.93 72.39 134.68 66.67 132.38 Z" />
</g>
<g id="#80489fff">
<path fill="#80489f" opacity="1.00" d=" M 88.01 124.99 C 88.54 124.97 89.60 124.94 90.12 124.92 C 95.71 123.67 95.58 129.60 95.97 133.65 C 93.01 133.31 89.35 134.47 88.00 130.88 C 87.98 128.91 88.00 126.95 88.01 124.99 Z" />
</g>
<g id="#e9668fff">
<path fill="#e9668f" opacity="1.00" d=" M 161.82 132.28 C 161.43 129.14 161.82 126.74 163.00 125.07 C 158.06 134.34 178.09 133.89 175.85 125.83 C 175.89 127.91 176.04 129.98 176.16 132.06 C 171.64 133.87 166.47 132.87 161.82 132.28 Z" />
</g>
<g id="#fbb6b2ff">
<path fill="#fbb6b2" opacity="1.00" d=" M 175.85 125.83 C 177.36 124.32 179.77 124.08 183.07 125.11 L 183.00 126.00 C 176.74 123.82 176.72 127.05 177.91 131.21 C 177.47 131.42 176.59 131.84 176.16 132.06 C 176.04 129.98 175.89 127.91 175.85 125.83 Z" />
</g>
<g id="#c20bfcff">
<path fill="#c20bfc" opacity="1.00" d=" M 185.88 125.01 C 187.31 125.03 188.75 125.04 190.18 125.04 C 190.64 125.05 191.55 125.06 192.00 125.07 C 192.79 130.16 192.00 135.50 184.96 133.01 C 185.23 130.34 185.51 127.66 185.88 125.01 Z" />
</g>
<g id="#624dfdff">
<path fill="#624dfd" opacity="1.00" d=" M 203.59 130.51 C 206.59 129.82 202.16 125.38 206.07 125.01 C 211.92 136.23 196.54 129.06 199.05 137.18 C 199.04 137.63 199.03 138.55 199.02 139.01 L 198.98 140.02 L 198.12 139.98 C 197.89 139.76 197.43 139.33 197.19 139.11 C 196.53 134.80 197.19 128.54 203.59 130.51 Z" />
</g>
<g id="#3b8ff5ff">
<path fill="#3b8ff5" opacity="1.00" d=" M 206.07 125.01 C 208.08 124.88 210.10 124.97 212.12 125.05 L 213.18 125.27 C 213.07 128.25 213.12 131.22 213.14 134.21 C 212.98 135.89 213.07 137.68 212.29 139.23 C 212.13 134.83 212.21 130.42 211.90 126.03 C 204.24 122.54 208.41 130.22 206.36 133.35 C 203.03 133.46 199.74 133.59 199.05 137.18 C 196.54 129.06 211.92 136.23 206.07 125.01 Z" />
</g>
<g id="#1b1838ff">
<path fill="#1b1838" opacity="1.00" d=" M 7.89 153.80 C 8.57 144.49 7.11 135.06 8.82 125.82 C 11.07 134.45 5.37 147.68 10.83 154.40 C 15.30 155.22 13.25 163.49 18.83 161.73 C 24.62 161.92 38.04 158.06 35.44 166.62 C 39.77 170.95 37.70 177.69 37.73 183.26 C 35.87 178.92 38.86 168.05 31.20 169.03 C 29.33 172.44 29.23 177.64 23.95 177.03 C 21.66 176.91 20.61 178.78 21.24 180.82 C 20.70 187.00 12.99 182.29 9.30 183.28 C 6.65 184.79 7.18 188.39 5.90 190.88 C 3.92 190.60 1.97 190.14 0.00 189.80 L 0.00 169.14 C 9.00 172.78 9.89 158.67 4.97 155.18 C 6.03 154.89 7.00 154.44 7.89 153.80 Z" />
</g>
<g id="#030206ff">
<path fill="#030206" opacity="1.00" d=" M 8.82 125.82 C 20.77 122.72 12.68 138.11 14.15 144.24 C 14.00 145.60 14.58 146.89 14.96 148.17 C 15.64 151.33 14.69 154.64 10.83 154.40 C 5.37 147.68 11.07 134.45 8.82 125.82 Z" />
</g>
<g id="#060408ff">
<path fill="#060408" opacity="1.00" d=" M 53.09 126.12 C 55.87 126.04 61.45 125.87 64.23 125.79 C 64.24 127.13 64.25 129.81 64.26 131.16 C 55.74 127.05 54.81 145.11 64.22 139.90 C 69.32 147.79 57.23 146.84 52.85 145.24 C 53.06 138.87 52.90 132.49 53.09 126.12 Z" />
<path fill="#060408" opacity="1.00" d=" M 0.00 154.98 C 1.66 155.03 3.32 155.09 4.97 155.18 C 9.89 158.67 9.00 172.78 0.00 169.14 L 0.00 154.98 Z" />
<path fill="#060408" opacity="1.00" d=" M 227.93 236.10 C 229.77 236.00 233.44 235.82 235.28 235.72 C 235.13 240.47 235.02 245.24 234.97 250.00 L 228.87 250.00 C 227.06 245.60 228.36 240.68 227.93 236.10 Z" />
</g>
<g id="#f8f2faff">
<path fill="#f8f2fa" opacity="1.00" d=" M 154.09 133.07 C 155.32 129.14 153.70 122.86 160.85 126.00 C 160.90 127.55 160.98 130.65 161.03 132.20 C 158.73 132.60 156.40 132.73 154.09 133.07 Z" />
</g>
<g id="#f9f4faff">
<path fill="#f9f4fa" opacity="1.00" d=" M 177.91 131.21 C 176.72 127.05 176.74 123.82 183.00 126.00 C 184.60 131.66 182.90 133.40 177.91 131.21 Z" />
</g>
<g id="#069efcff">
<path fill="#069efc" opacity="1.00" d=" M 206.36 133.35 C 208.41 130.22 204.24 122.54 211.90 126.03 C 212.21 130.42 212.13 134.83 212.29 139.23 C 211.12 140.62 208.84 139.43 207.19 139.55 C 206.86 139.48 206.19 139.32 205.86 139.25 C 204.15 139.19 200.73 139.07 199.02 139.01 C 199.03 138.55 199.04 137.63 199.05 137.18 C 199.74 133.59 203.03 133.46 206.36 133.35 Z" />
</g>
<g id="#301f3cff">
<path fill="#301f3c" opacity="1.00" d=" M 64.22 139.90 C 54.81 145.11 55.74 127.05 64.26 131.16 C 58.55 131.70 55.27 140.54 64.22 139.90 Z" />
</g>
<g id="#56346aff">
<path fill="#56346a" opacity="1.00" d=" M 88.00 130.88 C 89.35 134.47 93.01 133.31 95.97 133.65 C 95.61 135.39 95.29 137.15 94.94 138.90 C 88.56 140.43 85.86 137.93 88.00 130.88 Z" />
</g>
<g id="#e1a86cff">
<path fill="#e1a86c" opacity="1.00" d=" M 103.02 131.04 L 104.03 130.88 C 106.36 131.17 108.68 131.57 110.98 132.09 C 107.42 142.75 119.08 138.38 125.20 139.03 C 129.47 139.03 133.74 138.94 138.01 138.96 L 138.29 139.77 C 134.21 139.86 130.13 139.95 126.05 140.04 C 121.04 140.02 116.04 139.95 111.03 140.13 C 110.76 139.83 110.22 139.22 109.94 138.92 C 110.98 134.39 108.44 130.80 102.90 133.25 C 102.53 132.54 102.57 131.81 103.02 131.04 Z" />
</g>
<g id="#f99a96ff">
<path fill="#f99a96" opacity="1.00" d=" M 213.14 134.21 C 224.81 129.69 237.88 133.84 250.00 132.94 L 250.00 161.76 C 240.00 161.23 230.01 161.38 220.01 161.20 C 217.98 161.17 215.95 161.39 213.98 161.84 C 213.82 160.84 213.66 159.84 213.51 158.84 C 215.22 154.24 210.78 152.37 206.99 153.98 C 207.02 149.17 206.97 144.36 207.19 139.55 C 208.84 139.43 211.12 140.62 212.29 139.23 C 213.07 137.68 212.98 135.89 213.14 134.21 Z" />
</g>
<g id="#8753a7ff">
<path fill="#8753a7" opacity="1.00" d=" M 95.97 133.65 C 98.21 133.53 100.46 133.58 102.68 133.86 C 98.57 139.28 105.91 140.66 109.94 138.92 C 110.22 139.22 110.76 139.83 111.03 140.13 C 110.72 142.12 109.89 144.17 110.62 146.17 L 110.82 147.06 C 108.23 147.03 105.65 147.01 103.07 147.00 C 102.07 143.17 101.37 138.39 96.15 139.87 C 95.84 139.63 95.24 139.14 94.94 138.90 C 95.29 137.15 95.61 135.39 95.97 133.65 Z" />
</g>
<g id="#b572ddff">
<path fill="#b572dd" opacity="1.00" d=" M 102.90 133.25 C 108.44 130.80 110.98 134.39 109.94 138.92 C 105.91 140.66 98.57 139.28 102.68 133.86 L 102.90 133.25 Z" />
</g>
<g id="#f9f8f7ff">
<path fill="#f9f8f7" opacity="1.00" d=" M 147.89 138.99 C 146.66 134.33 149.98 132.46 154.09 133.07 C 154.02 135.03 154.00 136.99 153.99 138.96 C 151.95 138.99 149.92 139.00 147.89 138.99 Z" />
</g>
<g id="#cf10faff">
<path fill="#cf10fa" opacity="1.00" d=" M 176.99 138.95 C 173.79 133.00 181.07 133.18 184.96 133.01 C 182.67 134.21 183.41 136.87 183.16 138.99 C 181.10 138.98 179.04 138.99 176.99 138.95 Z" />
</g>
<g id="#6a3b49ff">
<path fill="#6a3b49" opacity="1.00" d=" M 138.01 138.96 C 140.65 138.95 143.29 138.95 145.93 138.97 L 146.90 139.00 L 147.03 139.95 C 135.87 136.10 141.06 148.26 139.74 154.39 C 139.25 152.00 139.02 149.58 139.04 147.10 C 139.30 144.56 139.05 142.12 138.29 139.77 L 138.01 138.96 Z" />
</g>
<g id="#8b56abff">
<path fill="#8b56ab" opacity="1.00" d=" M 146.90 139.00 L 147.89 138.99 C 149.92 139.00 151.95 138.99 153.99 138.96 C 158.73 138.82 165.40 138.08 163.47 145.59 C 166.43 150.24 170.57 143.78 168.79 139.80 C 169.00 143.63 168.25 147.60 169.21 151.38 C 169.10 152.09 168.87 153.52 168.75 154.24 C 163.92 154.49 159.06 154.55 154.27 155.24 C 156.44 166.57 142.06 159.47 136.25 161.82 C 132.76 160.47 130.80 156.91 127.94 155.08 C 123.28 153.39 128.09 161.80 124.63 162.54 C 116.21 159.92 121.37 166.23 118.08 169.07 L 117.07 169.05 C 111.85 158.91 125.13 164.93 125.04 159.02 C 129.49 148.87 112.80 158.99 117.93 148.00 C 124.90 147.38 132.27 149.39 139.04 147.10 C 139.02 149.58 139.25 152.00 139.74 154.39 C 144.41 155.61 149.31 154.19 154.04 153.96 C 156.09 154.00 158.14 154.09 160.20 154.02 C 163.88 153.69 161.54 141.58 159.94 140.04 C 155.63 139.89 151.33 139.99 147.03 139.95 L 146.90 139.00 Z" />
</g>
<g id="#5d217cff">
<path fill="#5d217c" opacity="1.00" d=" M 168.79 139.80 C 170.52 137.83 174.39 139.42 176.99 138.95 C 179.04 138.99 181.10 138.98 183.16 138.99 C 185.50 139.23 187.85 139.50 190.19 139.81 C 183.52 140.06 176.84 139.67 170.19 140.14 C 170.04 143.90 169.72 147.65 169.21 151.38 C 168.25 147.60 169.00 143.63 168.79 139.80 Z" />
</g>
<g id="#bf79e9ff">
<path fill="#bf79e9" opacity="1.00" d=" M 192.04 140.01 C 193.76 139.77 195.49 139.52 197.19 139.11 C 197.43 139.33 197.89 139.76 198.12 139.98 C 198.13 144.91 197.68 149.87 198.13 154.79 C 204.26 152.90 205.64 156.33 205.79 161.22 C 205.87 161.59 206.03 162.34 206.11 162.71 C 182.19 160.83 158.20 162.57 134.27 163.20 C 132.42 167.24 129.61 169.93 124.94 169.94 C 126.14 168.19 126.83 166.27 126.29 164.15 C 129.12 162.13 132.92 162.21 136.25 161.82 C 142.06 159.47 156.44 166.57 154.27 155.24 C 159.06 154.55 163.92 154.49 168.75 154.24 C 176.06 154.68 183.43 154.58 190.76 154.89 C 193.62 150.88 191.46 144.88 192.04 140.01 Z" />
</g>
<g id="#4b415aff">
<path fill="#4b415a" opacity="1.00" d=" M 199.02 139.01 C 200.73 139.07 204.15 139.19 205.86 139.25 C 205.96 144.20 206.02 149.16 206.00 154.12 C 205.54 154.12 204.61 154.12 204.14 154.12 C 203.93 149.44 209.11 137.25 200.03 140.00 C 200.21 144.64 199.01 149.63 200.91 154.06 C 196.35 152.94 199.88 144.39 198.98 140.02 L 199.02 139.01 Z" />
</g>
<g id="#b47969ff">
<path fill="#b47969" opacity="1.00" d=" M 205.86 139.25 C 206.19 139.32 206.86 139.48 207.19 139.55 C 206.97 144.36 207.02 149.17 206.99 153.98 L 206.00 154.12 C 206.02 149.16 205.96 144.20 205.86 139.25 Z" />
</g>
<g id="#c57df0ff">
<path fill="#c57df0" opacity="1.00" d=" M 66.16 146.19 C 66.17 141.86 67.32 138.75 72.03 139.92 C 71.82 145.89 75.43 149.06 81.23 149.10 C 81.55 153.10 80.39 155.77 75.20 154.14 C 72.59 154.42 69.96 154.40 67.34 154.26 C 66.49 156.50 66.21 159.01 64.78 160.99 C 57.26 164.89 60.93 154.67 55.83 154.28 C 54.21 153.61 51.21 153.52 51.94 151.00 C 52.35 143.82 64.87 151.76 66.16 146.19 Z" />
</g>
<g id="#8757afff">
<path fill="#8757af" opacity="1.00" d=" M 72.03 139.92 C 72.55 139.92 73.60 139.91 74.12 139.91 C 74.02 143.38 74.22 147.30 79.02 145.97 C 80.22 146.39 81.38 146.93 82.46 147.61 C 82.15 147.99 81.54 148.73 81.23 149.10 C 75.43 149.06 71.82 145.89 72.03 139.92 Z" />
</g>
<g id="#322d6aff">
<path fill="#322d6a" opacity="1.00" d=" M 79.02 145.97 C 81.49 144.87 79.32 139.63 82.16 140.04 C 89.12 136.85 86.37 143.72 88.20 146.71 C 90.35 147.36 94.66 146.29 95.01 149.05 C 98.63 158.20 85.75 151.75 85.54 158.70 C 80.89 158.27 90.09 148.90 82.46 147.61 C 81.38 146.93 80.22 146.39 79.02 145.97 Z" />
</g>
<g id="#06050aff">
<path fill="#06050a" opacity="1.00" d=" M 90.25 140.10 C 96.95 135.07 96.96 147.10 92.00 146.05 C 88.62 146.77 87.85 141.57 90.25 140.10 Z" />
</g>
<g id="#55336bff">
<path fill="#55336b" opacity="1.00" d=" M 96.15 139.87 C 101.37 138.39 102.07 143.17 103.07 147.00 C 97.57 147.82 93.24 147.27 96.15 139.87 Z" />
</g>
<g id="#b673e0ff">
<path fill="#b673e0" opacity="1.00" d=" M 111.03 140.13 C 116.04 139.95 121.04 140.02 126.05 140.04 C 126.86 149.40 116.94 146.27 110.62 146.17 C 109.89 144.17 110.72 142.12 111.03 140.13 Z" />
</g>
<g id="#9b61c1ff">
<path fill="#9b61c1" opacity="1.00" d=" M 126.05 140.04 C 130.13 139.95 134.21 139.86 138.29 139.77 C 139.05 142.12 139.30 144.56 139.04 147.10 C 132.27 149.39 124.90 147.38 117.93 148.00 C 117.23 148.00 115.83 147.98 115.13 147.98 C 113.78 147.96 112.43 147.95 111.08 147.94 L 110.82 147.06 L 110.62 146.17 C 116.94 146.27 126.86 149.40 126.05 140.04 Z" />
</g>
<g id="#08050aff">
<path fill="#08050a" opacity="1.00" d=" M 139.74 154.39 C 141.06 148.26 135.87 136.10 147.03 139.95 C 151.33 139.99 155.63 139.89 159.94 140.04 C 159.93 144.69 160.60 149.37 160.20 154.02 C 158.14 154.09 156.09 154.00 154.04 153.96 C 158.98 147.33 146.96 142.24 146.63 149.63 C 146.52 153.72 144.17 155.26 139.74 154.39 Z" />
</g>
<g id="#402650ff">
<path fill="#402650" opacity="1.00" d=" M 159.94 140.04 C 161.54 141.58 163.88 153.69 160.20 154.02 C 160.60 149.37 159.93 144.69 159.94 140.04 Z" />
</g>
<g id="#0c0810ff">
<path fill="#0c0810" opacity="1.00" d=" M 170.19 140.14 C 176.84 139.67 183.52 140.06 190.19 139.81 C 189.87 145.95 193.17 158.29 183.00 153.12 C 183.40 150.79 185.39 147.50 182.71 146.10 C 175.73 142.87 176.08 149.77 176.17 153.87 C 174.31 153.96 170.60 154.14 168.75 154.24 C 168.87 153.52 169.10 152.09 169.21 151.38 C 169.72 147.65 170.04 143.90 170.19 140.14 Z" />
</g>
<g id="#764a92ff">
<path fill="#764a92" opacity="1.00" d=" M 190.19 139.81 C 190.65 139.86 191.58 139.96 192.04 140.01 C 191.46 144.88 193.62 150.88 190.76 154.89 C 183.43 154.58 176.06 154.68 168.75 154.24 C 170.60 154.14 174.31 153.96 176.17 153.87 C 178.42 153.47 180.69 153.01 183.00 153.12 C 193.17 158.29 189.87 145.95 190.19 139.81 Z" />
</g>
<g id="#8b56acff">
<path fill="#8b56ac" opacity="1.00" d=" M 198.12 139.98 L 198.98 140.02 C 199.88 144.39 196.35 152.94 200.91 154.06 C 201.72 154.08 203.34 154.11 204.14 154.12 C 204.61 154.12 205.54 154.12 206.00 154.12 C 205.95 155.90 205.85 159.45 205.79 161.22 C 205.64 156.33 204.26 152.90 198.13 154.79 C 197.68 149.87 198.13 144.91 198.12 139.98 Z" />
</g>
<g id="#120b0dff">
<path fill="#120b0d" opacity="1.00" d=" M 200.03 140.00 C 209.11 137.25 203.93 149.44 204.14 154.12 C 203.34 154.11 201.72 154.08 200.91 154.06 C 199.01 149.63 200.21 144.64 200.03 140.00 Z" />
</g>
<g id="#4e2e61ff">
<path fill="#4e2e61" opacity="1.00" d=" M 146.63 149.63 C 146.96 142.24 158.98 147.33 154.04 153.96 C 149.31 154.19 144.41 155.61 139.74 154.39 C 144.17 155.26 146.52 153.72 146.63 149.63 Z" />
</g>
<g id="#57356dff">
<path fill="#57356d" opacity="1.00" d=" M 176.17 153.87 C 176.08 149.77 175.73 142.87 182.71 146.10 C 185.39 147.50 183.40 150.79 183.00 153.12 C 180.69 153.01 178.42 153.47 176.17 153.87 Z" />
</g>
<g id="#121026ff">
<path fill="#121026" opacity="1.00" d=" M 14.96 148.17 C 17.18 148.86 19.79 147.96 21.79 149.18 C 23.53 152.42 24.54 156.74 29.98 154.07 C 38.05 157.17 34.06 150.48 36.70 147.77 C 40.15 147.44 43.35 147.61 43.92 151.33 C 43.28 155.37 47.84 153.28 50.13 154.87 C 50.33 157.61 50.16 160.41 50.88 163.08 C 51.52 167.18 53.59 171.32 58.99 169.01 C 60.92 180.94 47.48 171.99 44.03 178.02 C 46.73 184.77 41.71 184.56 37.73 183.26 C 37.70 177.69 39.77 170.95 35.44 166.62 C 38.04 158.06 24.62 161.92 18.83 161.73 C 13.25 163.49 15.30 155.22 10.83 154.40 C 14.69 154.64 15.64 151.33 14.96 148.17 Z" />
<path fill="#121026" opacity="1.00" d=" M 122.17 206.30 C 123.10 206.44 124.02 206.63 124.93 206.86 C 124.96 208.21 124.98 209.56 125.01 210.92 C 123.76 216.41 131.09 213.04 134.28 214.64 C 128.25 212.54 120.66 216.01 126.20 221.87 C 135.43 220.68 144.71 221.25 153.99 221.16 C 154.91 223.38 155.68 226.43 152.81 227.54 C 148.63 227.42 144.32 226.71 140.29 228.23 C 141.90 232.07 137.57 238.55 133.79 235.28 C 133.68 231.14 130.84 225.52 125.98 227.60 C 125.95 222.86 123.76 219.83 119.11 221.00 C 116.39 221.05 113.68 221.04 110.98 220.95 C 111.22 218.01 109.63 213.51 113.86 213.74 C 119.42 213.87 116.48 205.81 122.17 206.30 Z" />
</g>
<g id="#050308ff">
<path fill="#050308" opacity="1.00" d=" M 96.01 153.95 C 92.54 143.50 106.00 149.69 111.08 147.94 C 112.43 147.95 113.78 147.96 115.13 147.98 C 119.82 159.39 102.04 152.02 96.01 153.95 Z" />
</g>
<g id="#603e50ff">
<path fill="#603e50" opacity="1.00" d=" M 206.99 153.98 C 210.78 152.37 215.22 154.24 213.51 158.84 C 212.78 162.33 208.39 161.27 205.79 161.22 C 205.85 159.45 205.95 155.90 206.00 154.12 L 206.99 153.98 M 207.00 155.00 L 207.00 160.00 L 212.00 160.00 L 212.00 155.00 L 207.00 155.00 Z" />
</g>
<g id="#0c0a17ff">
<path fill="#0c0a17" opacity="1.00" d=" M 74.66 154.71 C 76.25 154.83 79.45 155.05 81.04 155.17 C 83.95 164.16 72.02 161.65 74.66 154.71 Z" />
</g>
<g id="#07060eff">
<path fill="#07060e" opacity="1.00" d=" M 119.25 155.10 L 123.99 154.98 C 128.60 164.40 112.72 160.43 119.25 155.10 Z" />
</g>
<g id="#ae6dd6ff">
<path fill="#ae6dd6" opacity="1.00" d=" M 124.63 162.54 C 128.09 161.80 123.28 153.39 127.94 155.08 C 130.80 156.91 132.76 160.47 136.25 161.82 C 132.92 162.21 129.12 162.13 126.29 164.15 C 126.83 166.27 126.14 168.19 124.94 169.94 C 123.51 171.77 124.08 174.06 124.84 176.03 L 124.84 176.88 C 125.44 180.82 123.96 188.14 119.14 183.87 C 119.06 179.11 113.46 173.16 118.08 169.07 C 121.37 166.23 116.21 159.92 124.63 162.54 Z" />
</g>
<g id="#070406ff">
<path fill="#070406" opacity="1.00" d=" M 207.00 155.00 L 212.00 155.00 L 212.00 160.00 L 207.00 160.00 L 207.00 155.00 Z" />
</g>
<g id="#8c58a5ff">
<path fill="#8c58a5" opacity="1.00" d=" M 213.51 158.84 C 213.66 159.84 213.82 160.84 213.98 161.84 C 214.02 168.95 213.69 176.10 214.77 183.16 L 214.64 183.93 C 214.20 185.73 213.87 187.55 213.57 189.38 L 213.07 188.78 C 212.64 185.99 214.43 180.52 208.02 183.98 C 204.46 183.49 206.06 188.68 205.82 190.99 C 200.80 191.36 198.71 187.85 196.98 184.03 C 199.70 183.84 202.78 184.81 205.20 183.24 C 205.48 181.61 206.05 178.35 206.34 176.72 C 202.41 183.52 215.62 186.94 212.32 178.16 C 211.50 172.70 215.85 160.41 206.11 162.71 C 206.03 162.34 205.87 161.59 205.79 161.22 C 208.39 161.27 212.78 162.33 213.51 158.84 Z" />
</g>
<g id="#65404eff">
<path fill="#65404e" opacity="1.00" d=" M 213.98 161.84 C 215.95 161.39 217.98 161.17 220.01 161.20 C 223.55 166.96 219.94 174.30 221.49 180.65 C 222.14 184.63 217.40 185.01 214.64 183.93 L 214.77 183.16 C 225.44 184.93 217.82 168.99 219.93 163.01 C 210.14 161.70 216.71 176.34 214.77 183.16 C 213.69 176.10 214.02 168.95 213.98 161.84 Z" />
</g>
<g id="#f98c87ff">
<path fill="#f98c87" opacity="1.00" d=" M 220.01 161.20 C 230.01 161.38 240.00 161.23 250.00 161.76 L 250.00 191.99 C 240.36 191.73 230.74 192.30 221.11 192.45 C 218.33 192.56 215.14 191.91 213.57 189.38 C 213.87 187.55 214.20 185.73 214.64 183.93 C 217.40 185.01 222.14 184.63 221.49 180.65 C 219.94 174.30 223.55 166.96 220.01 161.20 Z" />
</g>
<g id="#06040bff">
<path fill="#06040b" opacity="1.00" d=" M 110.00 167.99 C 109.59 164.52 110.26 159.24 115.98 161.98 C 117.67 167.58 115.68 169.58 110.00 167.99 Z" />
</g>
<g id="#cc82faff">
<path fill="#cc82fa" opacity="1.00" d=" M 134.27 163.20 C 158.20 162.57 182.19 160.83 206.11 162.71 C 215.85 160.41 211.50 172.70 212.32 178.16 C 215.62 186.94 202.41 183.52 206.34 176.72 C 179.33 175.03 151.98 176.46 124.84 176.03 C 124.08 174.06 123.51 171.77 124.94 169.94 C 129.61 169.93 132.42 167.24 134.27 163.20 Z" />
<path fill="#cc82fa" opacity="1.00" d=" M 171.46 191.01 C 182.65 190.78 193.85 190.94 204.97 192.24 C 208.61 198.78 200.78 196.70 198.43 198.41 C 197.40 201.46 197.70 206.13 193.16 205.13 C 181.40 206.55 169.51 206.01 157.76 205.59 C 154.65 205.96 151.49 206.14 148.37 206.40 C 143.25 203.52 148.27 197.28 152.46 196.44 C 154.03 187.59 165.52 194.08 171.46 191.01 Z" />
</g>
<g id="#040309ff">
<path fill="#040309" opacity="1.00" d=" M 50.88 163.08 C 58.26 162.99 65.65 162.87 73.03 163.07 C 72.81 164.58 72.35 167.59 72.12 169.10 C 67.74 169.18 63.36 169.01 58.99 169.01 C 53.59 171.32 51.52 167.18 50.88 163.08 Z" />
</g>
<g id="#2b275dff">
<path fill="#2b275d" opacity="1.00" d=" M 72.12 169.10 C 76.37 168.80 72.30 158.89 79.76 163.03 C 83.25 165.68 78.55 172.56 82.39 174.53 C 91.55 173.23 88.41 184.02 95.71 185.96 C 95.76 186.46 95.86 187.46 95.90 187.96 C 95.11 192.50 100.03 191.83 103.01 193.15 C 102.69 201.65 85.85 196.07 90.96 207.99 C 90.66 212.55 98.54 211.38 97.36 216.36 C 96.90 219.70 100.82 219.54 100.28 216.15 C 99.82 210.66 111.15 207.77 109.99 213.94 C 100.87 210.08 106.57 224.34 97.11 221.19 C 92.32 222.24 94.74 227.92 94.63 231.36 C 95.30 241.70 110.59 234.89 116.36 235.40 C 117.35 230.62 118.56 225.87 119.11 221.00 C 123.76 219.83 125.95 222.86 125.98 227.60 C 130.84 225.52 133.68 231.14 133.79 235.28 C 137.57 238.55 141.90 232.07 140.29 228.23 C 144.32 226.71 148.63 227.42 152.81 227.54 C 155.68 226.43 154.91 223.38 153.99 221.16 C 160.74 218.91 162.37 221.44 163.19 227.03 C 172.37 231.95 165.06 216.29 174.02 221.01 C 177.39 220.93 180.79 220.99 184.16 221.07 C 185.31 229.76 175.03 227.65 171.38 233.85 C 171.34 228.14 162.55 226.72 160.98 232.08 C 160.27 236.49 167.91 235.71 166.82 239.70 C 163.71 242.76 156.57 244.65 160.06 250.00 L 145.82 250.00 C 142.87 241.58 158.27 243.08 152.73 235.12 C 148.92 235.59 144.11 233.62 140.67 235.64 C 140.21 239.09 140.34 246.12 133.96 243.09 C 125.16 240.18 115.27 241.81 105.97 241.88 C 101.56 241.45 99.87 246.19 100.86 250.00 L 96.13 250.00 C 99.09 241.05 90.19 242.83 85.00 242.93 C 78.39 239.95 79.77 247.18 76.95 250.00 L 75.96 250.00 C 75.21 245.75 74.67 241.43 75.02 237.12 C 79.05 234.82 91.35 237.08 86.85 230.19 C 81.03 228.82 73.14 226.42 67.41 229.35 C 69.15 237.92 58.98 232.88 56.17 238.26 C 55.99 242.19 56.85 246.08 57.14 250.00 L 52.96 250.00 C 56.77 243.25 48.73 242.49 43.98 243.13 C 43.89 240.07 40.82 234.69 45.38 234.48 C 51.97 234.28 48.46 221.95 58.00 225.84 C 57.32 221.04 51.29 223.04 49.18 219.67 C 48.77 213.45 49.28 207.22 48.89 201.01 C 44.21 199.38 47.60 206.53 43.87 206.77 C 35.14 207.65 35.99 219.01 39.04 225.02 C 39.06 230.67 32.00 231.13 28.76 227.73 C 28.75 226.06 28.74 222.72 28.73 221.05 C 29.43 215.39 26.35 205.78 33.22 203.12 C 36.93 200.08 25.29 199.03 24.52 201.41 C 24.47 207.18 11.96 211.75 14.99 202.03 C 11.17 194.57 23.01 198.63 20.57 191.45 C 20.90 188.00 27.57 190.05 26.90 186.36 C 23.31 186.56 21.55 184.14 21.24 180.82 C 20.61 178.78 21.66 176.91 23.95 177.03 C 18.84 184.00 31.43 181.64 30.00 187.90 C 29.63 192.81 20.83 190.99 23.08 196.76 C 26.40 199.66 31.77 197.04 35.82 198.12 C 37.63 200.47 36.89 205.72 40.79 205.62 C 46.37 205.08 41.77 194.11 49.74 198.06 C 54.12 202.85 50.93 210.28 51.98 216.03 C 50.46 222.21 62.98 219.03 58.99 226.78 C 55.82 228.92 49.18 228.92 51.99 235.03 C 58.66 238.28 58.81 231.00 62.89 228.84 C 71.39 225.29 66.71 215.33 68.20 208.28 C 72.43 205.83 81.77 203.10 81.87 210.13 C 82.30 216.64 67.17 211.49 71.94 219.97 C 79.99 218.64 81.00 231.34 89.36 226.32 C 90.48 216.17 85.07 204.23 89.78 194.10 C 87.62 188.17 91.46 176.02 81.47 176.39 C 75.06 175.36 68.03 172.82 61.88 175.82 C 56.18 177.92 49.78 175.95 44.03 178.02 C 47.48 171.99 60.92 180.94 58.99 169.01 C 63.36 169.01 67.74 169.18 72.12 169.10 Z" />
</g>
<g id="#0b0708ff">
<path fill="#0b0708" opacity="1.00" d=" M 214.77 183.16 C 216.71 176.34 210.14 161.70 219.93 163.01 C 217.82 168.99 225.44 184.93 214.77 183.16 Z" />
</g>
<g id="#0a0814ff">
<path fill="#0a0814" opacity="1.00" d=" M 103.67 177.46 C 102.71 173.28 104.11 164.92 110.00 167.99 C 110.44 177.91 108.79 189.05 110.96 198.01 C 114.21 198.82 118.03 199.63 117.33 203.95 C 112.18 208.57 103.93 202.29 97.67 204.28 C 93.60 197.25 109.15 204.66 104.08 194.96 C 104.90 189.89 98.70 190.32 95.90 187.96 C 95.86 187.46 95.76 186.46 95.71 185.96 C 99.73 185.03 107.00 183.86 103.67 177.46 Z" />
</g>
<g id="#9e63c5ff">
<path fill="#9e63c5" opacity="1.00" d=" M 110.99 176.93 C 110.92 172.32 109.34 165.90 117.07 169.05 L 118.08 169.07 C 113.46 173.16 119.06 179.11 119.14 183.87 C 123.96 188.14 125.44 180.82 124.84 176.88 C 124.88 178.92 124.93 180.97 124.98 183.02 L 125.00 184.01 C 124.25 187.90 125.00 193.64 131.00 191.05 C 139.30 189.99 152.57 194.39 156.06 184.00 C 169.70 184.02 183.34 183.92 196.98 184.03 C 198.71 187.85 200.80 191.36 205.82 190.99 C 205.86 192.74 205.94 196.25 205.98 198.01 L 205.95 198.96 C 204.39 199.09 201.27 199.36 199.71 199.49 C 200.24 205.20 198.54 207.67 192.65 205.77 L 193.16 205.13 C 197.70 206.13 197.40 201.46 198.43 198.41 C 200.78 196.70 208.61 198.78 204.97 192.24 C 193.85 190.94 182.65 190.78 171.46 191.01 C 163.42 188.81 155.16 190.31 147.28 192.30 C 145.07 194.87 146.35 200.17 140.35 198.42 C 135.53 204.44 142.58 209.61 148.37 206.40 C 151.49 206.14 154.65 205.96 157.76 205.59 C 160.90 206.39 161.31 209.14 161.10 211.98 C 151.11 211.83 141.09 212.37 131.11 211.88 C 130.99 206.38 133.41 198.31 125.66 198.30 C 127.38 191.69 122.43 191.98 118.24 190.81 C 114.45 186.74 119.92 174.60 110.99 176.93 Z" />
</g>
<g id="#8e58aeff">
<path fill="#8e58ae" opacity="1.00" d=" M 124.84 176.03 C 151.98 176.46 179.33 175.03 206.34 176.72 C 179.18 177.23 152.00 177.05 124.84 176.88 L 124.84 176.03 Z" />
</g>
<g id="#8854a8ff">
<path fill="#8854a8" opacity="1.00" d=" M 110.99 176.93 C 119.92 174.60 114.45 186.74 118.24 190.81 C 122.43 191.98 127.38 191.69 125.66 198.30 C 133.41 198.31 130.99 206.38 131.11 211.88 C 141.09 212.37 151.11 211.83 161.10 211.98 C 171.06 212.03 181.03 212.00 190.99 212.00 C 191.00 212.46 191.01 213.38 191.02 213.84 C 173.20 214.67 155.39 212.61 137.57 213.45 C 133.66 212.27 127.49 215.20 125.01 210.92 C 124.98 209.56 124.96 208.21 124.93 206.86 C 124.74 203.68 125.40 198.21 120.65 199.18 C 112.70 199.18 121.27 187.73 111.02 191.95 C 110.98 186.94 110.97 181.93 110.99 176.93 Z" />
</g>
<g id="#352240ff">
<path fill="#352240" opacity="1.00" d=" M 124.84 176.88 C 152.00 177.05 179.18 177.23 206.34 176.72 C 206.05 178.35 205.48 181.61 205.20 183.24 C 204.69 183.22 203.67 183.18 203.16 183.16 C 203.71 181.52 204.11 179.82 204.06 178.08 C 178.08 177.97 152.09 177.88 126.12 178.10 C 125.98 179.72 125.97 181.35 125.95 182.99 L 124.98 183.02 C 124.93 180.97 124.88 178.92 124.84 176.88 Z" />
</g>
<g id="#030204ff">
<path fill="#030204" opacity="1.00" d=" M 126.12 178.10 C 152.09 177.88 178.08 177.97 204.06 178.08 C 204.11 179.82 203.71 181.52 203.16 183.16 C 177.42 182.79 151.68 183.11 125.95 182.99 C 125.97 181.35 125.98 179.72 126.12 178.10 Z" />
</g>
<g id="#211d48ff">
<path fill="#211d48" opacity="1.00" d=" M 21.24 180.82 C 21.55 184.14 23.31 186.56 26.90 186.36 C 27.57 190.05 20.90 188.00 20.57 191.45 C 23.01 198.63 11.17 194.57 14.99 202.03 C 11.96 211.75 24.47 207.18 24.52 201.41 C 25.29 199.03 36.93 200.08 33.22 203.12 C 26.35 205.78 29.43 215.39 28.73 221.05 C 24.33 219.51 19.40 222.98 15.28 220.78 C 13.46 218.43 14.02 213.96 9.99 214.03 C 6.11 214.10 8.07 208.97 8.24 206.43 C 11.28 205.48 15.35 204.28 14.00 200.19 C 9.31 200.05 4.65 199.53 0.00 198.93 L 0.00 189.80 C 1.97 190.14 3.92 190.60 5.90 190.88 C 7.18 188.39 6.65 184.79 9.30 183.28 C 12.99 182.29 20.70 187.00 21.24 180.82 Z" />
</g>
<g id="#513263ff">
<path fill="#513263" opacity="1.00" d=" M 124.98 183.02 L 125.95 182.99 C 151.68 183.11 177.42 182.79 203.16 183.16 C 203.67 183.18 204.69 183.22 205.20 183.24 C 202.78 184.81 199.70 183.84 196.98 184.03 C 183.34 183.92 169.70 184.02 156.06 184.00 C 145.70 183.99 135.35 183.99 125.00 184.01 L 124.98 183.02 Z" />
</g>
<g id="#8955abff">
<path fill="#8955ab" opacity="1.00" d=" M 125.00 184.01 C 135.35 183.99 145.70 183.99 156.06 184.00 C 152.57 194.39 139.30 189.99 131.00 191.05 C 125.00 193.64 124.25 187.90 125.00 184.01 Z" />
</g>
<g id="#4f3148ff">
<path fill="#4f3148" opacity="1.00" d=" M 205.82 190.99 C 206.06 188.68 204.46 183.49 208.02 183.98 C 214.43 180.52 212.64 185.99 213.07 188.78 C 211.77 191.07 215.18 198.12 211.14 198.05 C 211.06 194.30 215.18 185.64 209.20 185.35 C 204.24 186.70 208.17 194.19 206.97 198.02 L 205.98 198.01 C 205.94 196.25 205.86 192.74 205.82 190.99 Z" />
</g>
<g id="#070505ff">
<path fill="#070505" opacity="1.00" d=" M 209.20 185.35 C 215.18 185.64 211.06 194.30 211.14 198.05 C 209.75 198.08 208.36 198.07 206.97 198.02 C 208.17 194.19 204.24 186.70 209.20 185.35 Z" />
</g>
<g id="#201d46ff">
<path fill="#201d46" opacity="1.00" d=" M 95.90 187.96 C 98.70 190.32 104.90 189.89 104.08 194.96 C 109.15 204.66 93.60 197.25 97.67 204.28 C 103.93 202.29 112.18 208.57 117.33 203.95 C 118.00 206.12 120.32 205.95 122.17 206.30 C 116.48 205.81 119.42 213.87 113.86 213.74 C 109.63 213.51 111.22 218.01 110.98 220.95 C 109.88 219.35 109.55 217.01 109.99 213.94 C 111.15 207.77 99.82 210.66 100.28 216.15 C 100.82 219.54 96.90 219.70 97.36 216.36 C 98.54 211.38 90.66 212.55 90.96 207.99 C 85.85 196.07 102.69 201.65 103.01 193.15 C 100.03 191.83 95.11 192.50 95.90 187.96 Z" />
</g>
<g id="#f97c76ff">
<path fill="#f97c76" opacity="1.00" d=" M 213.07 188.78 L 213.57 189.38 C 215.14 191.91 218.33 192.56 221.11 192.45 C 230.74 192.30 240.36 191.73 250.00 191.99 L 250.00 250.00 L 236.00 250.00 C 235.46 245.32 237.24 240.16 235.28 235.72 C 223.06 238.15 231.57 224.75 226.64 220.48 C 219.85 222.48 221.22 217.10 220.79 213.14 C 218.18 212.16 212.74 213.80 213.46 209.34 C 214.92 205.28 209.30 204.94 206.76 206.23 C 206.44 203.80 206.17 201.38 205.95 198.96 L 205.98 198.01 L 206.97 198.02 C 208.36 198.07 209.75 198.08 211.14 198.05 C 215.18 198.12 211.77 191.07 213.07 188.78 Z" />
</g>
<g id="#b572deff">
<path fill="#b572de" opacity="1.00" d=" M 147.28 192.30 C 155.16 190.31 163.42 188.81 171.46 191.01 C 165.52 194.08 154.03 187.59 152.46 196.44 C 148.27 197.28 143.25 203.52 148.37 206.40 C 142.58 209.61 135.53 204.44 140.35 198.42 C 146.35 200.17 145.07 194.87 147.28 192.30 Z" />
</g>
<g id="#533267ff">
<path fill="#533267" opacity="1.00" d=" M 111.02 191.95 C 121.27 187.73 112.70 199.18 120.65 199.18 C 125.40 198.21 124.74 203.68 124.93 206.86 C 124.02 206.63 123.10 206.44 122.17 206.30 C 120.32 205.95 118.00 206.12 117.33 203.95 C 118.03 199.63 114.21 198.82 110.96 198.01 C 110.96 195.99 110.98 193.97 111.02 191.95 Z" />
</g>
<g id="#171533ff">
<path fill="#171533" opacity="1.00" d=" M 0.00 198.93 C 4.65 199.53 9.31 200.05 14.00 200.19 C 15.35 204.28 11.28 205.48 8.24 206.43 C 8.07 208.97 6.11 214.10 9.99 214.03 C 14.02 213.96 13.46 218.43 15.28 220.78 C 19.40 222.98 24.33 219.51 28.73 221.05 C 28.74 222.72 28.75 226.06 28.76 227.73 C 28.21 232.23 31.00 244.82 23.47 240.61 C 26.07 232.34 10.17 232.63 14.19 240.68 C 17.07 243.63 20.97 245.82 22.18 250.00 L 0.00 250.00 L 0.00 198.93 Z" />
</g>
<g id="#5e383fff">
<path fill="#5e383f" opacity="1.00" d=" M 199.71 199.49 C 201.27 199.36 204.39 199.09 205.95 198.96 C 206.17 201.38 206.44 203.80 206.76 206.23 C 204.07 204.14 205.28 198.45 199.71 199.49 Z" />
</g>
<g id="#141024ff">
<path fill="#141024" opacity="1.00" d=" M 192.65 205.77 C 198.54 207.67 200.24 205.20 199.71 199.49 C 205.28 198.45 204.07 204.14 206.76 206.23 C 214.55 204.17 209.96 216.00 216.78 214.73 C 220.74 213.90 220.06 217.58 219.89 220.37 C 218.22 220.68 216.56 220.95 214.88 221.17 C 211.29 219.96 206.25 221.94 204.87 217.15 C 202.08 209.90 188.36 217.70 191.77 206.92 C 191.99 206.63 192.43 206.05 192.65 205.77 Z" />
</g>
<g id="#221f4bff">
<path fill="#221f4b" opacity="1.00" d=" M 43.87 206.77 C 47.60 206.53 44.21 199.38 48.89 201.01 C 49.28 207.22 48.77 213.45 49.18 219.67 C 51.29 223.04 57.32 221.04 58.00 225.84 C 48.46 221.95 51.97 234.28 45.38 234.48 C 40.82 234.69 43.89 240.07 43.98 243.13 C 38.20 244.90 27.18 238.73 29.85 250.00 L 22.18 250.00 C 20.97 245.82 17.07 243.63 14.19 240.68 C 10.17 232.63 26.07 232.34 23.47 240.61 C 31.00 244.82 28.21 232.23 28.76 227.73 C 32.00 231.13 39.06 230.67 39.04 225.02 C 35.99 219.01 35.14 207.65 43.87 206.77 Z" />
</g>
<g id="#b875e2ff">
<path fill="#b875e2" opacity="1.00" d=" M 157.76 205.59 C 169.51 206.01 181.40 206.55 193.16 205.13 L 192.65 205.77 C 192.43 206.05 191.99 206.63 191.77 206.92 C 190.71 208.40 191.11 210.29 190.99 212.00 C 181.03 212.00 171.06 212.03 161.10 211.98 C 161.31 209.14 160.90 206.39 157.76 205.59 Z" />
</g>
<g id="#7f453fff">
<path fill="#7f453f" opacity="1.00" d=" M 206.76 206.23 C 209.30 204.94 214.92 205.28 213.46 209.34 C 212.74 213.80 218.18 212.16 220.79 213.14 C 221.22 217.10 219.85 222.48 226.64 220.48 C 231.57 224.75 223.06 238.15 235.28 235.72 C 233.44 235.82 229.77 236.00 227.93 236.10 C 227.59 235.04 227.27 233.97 226.97 232.91 C 226.01 229.15 229.80 220.25 223.09 220.92 C 222.02 220.76 220.95 220.58 219.89 220.37 C 220.06 217.58 220.74 213.90 216.78 214.73 C 209.96 216.00 214.55 204.17 206.76 206.23 Z" />
</g>
<g id="#332e6cff">
<path fill="#332e6c" opacity="1.00" d=" M 190.99 212.00 C 191.11 210.29 190.71 208.40 191.77 206.92 C 188.36 217.70 202.08 209.90 204.87 217.15 C 206.25 221.94 211.29 219.96 214.88 221.17 C 213.04 227.03 223.01 225.62 220.04 232.05 C 221.06 235.56 218.47 236.26 215.62 236.67 C 214.10 240.87 214.27 245.55 213.88 250.00 L 160.06 250.00 C 156.57 244.65 163.71 242.76 166.82 239.70 C 167.91 235.71 160.27 236.49 160.98 232.08 C 162.55 226.72 171.34 228.14 171.38 233.85 C 175.03 227.65 185.31 229.76 184.16 221.07 C 189.66 223.31 190.97 218.91 191.01 214.91 L 191.02 213.84 C 191.01 213.38 191.00 212.46 190.99 212.00 M 207.22 228.21 C 204.32 230.01 205.09 237.40 209.32 235.52 C 216.01 237.15 212.94 225.88 207.22 228.21 Z" />
</g>
<g id="#442954ff">
<path fill="#442954" opacity="1.00" d=" M 125.01 210.92 C 127.49 215.20 133.66 212.27 137.57 213.45 C 155.39 212.61 173.20 214.67 191.02 213.84 L 191.01 214.91 C 172.10 214.91 153.18 215.38 134.28 214.64 C 131.09 213.04 123.76 216.41 125.01 210.92 Z" />
</g>
<g id="#353071ff">
<path fill="#353071" opacity="1.00" d=" M 97.11 221.19 C 106.57 224.34 100.87 210.08 109.99 213.94 C 109.55 217.01 109.88 219.35 110.98 220.95 C 113.68 221.04 116.39 221.05 119.11 221.00 C 118.56 225.87 117.35 230.62 116.36 235.40 C 110.59 234.89 95.30 241.70 94.63 231.36 C 94.74 227.92 92.32 222.24 97.11 221.19 Z" />
</g>
<g id="#06050dff">
<path fill="#06050d" opacity="1.00" d=" M 126.20 221.87 C 120.66 216.01 128.25 212.54 134.28 214.64 C 153.18 215.38 172.10 214.91 191.01 214.91 C 190.97 218.91 189.66 223.31 184.16 221.07 C 180.79 220.99 177.39 220.93 174.02 221.01 C 165.06 216.29 172.37 231.95 163.19 227.03 C 162.37 221.44 160.74 218.91 153.99 221.16 C 144.71 221.25 135.43 220.68 126.20 221.87 Z" />
</g>
<g id="#1c1a3eff">
<path fill="#1c1a3e" opacity="1.00" d=" M 214.88 221.17 C 216.56 220.95 218.22 220.68 219.89 220.37 C 220.95 220.58 222.02 220.76 223.09 220.92 C 218.25 224.35 219.57 241.14 226.97 232.91 C 227.27 233.97 227.59 235.04 227.93 236.10 C 228.36 240.68 227.06 245.60 228.87 250.00 L 213.88 250.00 C 214.27 245.55 214.10 240.87 215.62 236.67 C 218.47 236.26 221.06 235.56 220.04 232.05 C 223.01 225.62 213.04 227.03 214.88 221.17 Z" />
</g>
<g id="#080507ff">
<path fill="#080507" opacity="1.00" d=" M 223.09 220.92 C 229.80 220.25 226.01 229.15 226.97 232.91 C 219.57 241.14 218.25 224.35 223.09 220.92 Z" />
</g>
<g id="#181635ff">
<path fill="#181635" opacity="1.00" d=" M 67.41 229.35 C 73.14 226.42 81.03 228.82 86.85 230.19 C 91.35 237.08 79.05 234.82 75.02 237.12 C 74.67 241.43 75.21 245.75 75.96 250.00 L 57.14 250.00 C 56.85 246.08 55.99 242.19 56.17 238.26 C 58.98 232.88 69.15 237.92 67.41 229.35 Z" />
</g>
<g id="#1e1a3fff">
<path fill="#1e1a3f" opacity="1.00" d=" M 207.22 228.21 C 212.94 225.88 216.01 237.15 209.32 235.52 C 205.09 237.40 204.32 230.01 207.22 228.21 Z" />
</g>
<g id="#353171ff">
<path fill="#353171" opacity="1.00" d=" M 140.67 235.64 C 144.11 233.62 148.92 235.59 152.73 235.12 C 158.27 243.08 142.87 241.58 145.82 250.00 L 100.86 250.00 C 99.87 246.19 101.56 241.45 105.97 241.88 C 115.27 241.81 125.16 240.18 133.96 243.09 C 140.34 246.12 140.21 239.09 140.67 235.64 Z" />
</g>
<g id="#8d3e44ff">
<path fill="#8d3e44" opacity="1.00" d=" M 235.28 235.72 C 237.24 240.16 235.46 245.32 236.00 250.00 L 234.97 250.00 C 235.02 245.24 235.13 240.47 235.28 235.72 Z" />
</g>
<g id="#191636ff">
<path fill="#191636" opacity="1.00" d=" M 29.85 250.00 C 27.18 238.73 38.20 244.90 43.98 243.13 C 48.73 242.49 56.77 243.25 52.96 250.00 L 29.85 250.00 Z" />
</g>
<g id="#1c193fff">
<path fill="#1c193f" opacity="1.00" d=" M 76.95 250.00 C 79.77 247.18 78.39 239.95 85.00 242.93 C 90.19 242.83 99.09 241.05 96.13 250.00 L 76.95 250.00 Z" />
</g>
</svg>
