<?xml version="1.0" encoding="UTF-8" ?>
<!DOCTYPE svg PUBLIC "-//W3C//DTD SVG 1.1//EN" "http://www.w3.org/Graphics/SVG/1.1/DTD/svg11.dtd">
<svg width="250pt" height="250pt" viewBox="0 0 250 250" version="1.1" xmlns="http://www.w3.org/2000/svg">
<g id="#f8c8c6ff">
<path fill="#f8c8c6" opacity="1.00" d=" M 0.00 0.00 L 131.85 0.00 C 131.64 2.17 132.01 4.50 130.87 6.47 C 127.13 5.83 121.97 7.73 124.70 12.35 L 124.79 13.26 C 119.94 13.97 115.00 13.54 110.17 14.32 C 109.48 14.68 108.78 15.03 108.08 15.36 C 72.07 14.40 36.00 14.95 0.00 15.04 L 0.00 0.00 Z" />
</g>
<g id="#ae9186ff">
<path fill="#ae9186" opacity="1.00" d=" M 131.85 0.00 L 132.89 0.00 C 132.92 1.76 132.98 5.29 133.01 7.06 L 132.83 7.89 C 131.55 7.90 130.28 7.94 129.01 7.99 C 126.41 8.02 124.32 9.54 124.70 12.35 C 121.97 7.73 127.13 5.83 130.87 6.47 C 132.01 4.50 131.64 2.17 131.85 0.00 Z" />
</g>
<g id="#705324ff">
<path fill="#705324" opacity="1.00" d=" M 132.89 0.00 L 133.90 0.00 C 132.15 5.36 134.75 6.68 139.01 6.09 L 139.22 6.97 C 137.21 7.73 135.06 7.50 133.01 7.06 C 132.98 5.29 132.92 1.76 132.89 0.00 Z" />
</g>
<g id="#080804ff">
<path fill="#080804" opacity="1.00" d=" M 133.90 0.00 L 138.96 0.00 C 138.98 2.03 138.98 4.06 139.01 6.09 C 134.75 6.68 132.15 5.36 133.90 0.00 Z" />
</g>
<g id="#957779ff">
<path fill="#957779" opacity="1.00" d=" M 138.96 0.00 L 139.89 0.00 C 133.91 10.21 150.13 3.90 146.88 8.88 C 144.59 8.56 142.31 8.27 140.04 8.00 C 139.83 7.74 139.42 7.23 139.22 6.97 L 139.01 6.09 C 138.98 4.06 138.98 2.03 138.96 0.00 Z" />
</g>
<g id="#f8c8c5ff">
<path fill="#f8c8c5" opacity="1.00" d=" M 139.89 0.00 L 250.00 0.00 L 250.00 15.00 C 225.69 14.91 201.37 15.18 177.06 14.87 C 167.11 13.32 157.00 14.14 146.97 14.01 C 146.80 12.31 146.59 10.59 146.88 8.88 C 150.13 3.90 133.91 10.21 139.89 0.00 Z" />
</g>
<g id="#efd107ff">
<path fill="#efd107" opacity="1.00" d=" M 133.01 7.06 C 135.06 7.50 137.21 7.73 139.22 6.97 C 144.05 17.28 128.35 15.78 132.83 7.89 L 133.01 7.06 Z" />
</g>
<g id="#7c710eff">
<path fill="#7c710e" opacity="1.00" d=" M 139.22 6.97 C 139.42 7.23 139.83 7.74 140.04 8.00 L 140.05 8.89 C 139.00 13.11 140.83 15.03 145.08 14.01 C 145.55 14.01 146.50 14.01 146.97 14.01 L 146.93 14.96 C 141.29 13.63 138.20 14.88 140.04 21.07 L 139.18 21.18 L 139.12 20.10 C 138.67 17.27 140.36 11.84 133.98 14.96 C 130.09 15.35 131.48 9.93 129.01 7.99 C 130.28 7.94 131.55 7.90 132.83 7.89 C 128.35 15.78 144.05 17.28 139.22 6.97 Z" />
</g>
<g id="#080706ff">
<path fill="#080706" opacity="1.00" d=" M 124.70 12.35 C 124.32 9.54 126.41 8.02 129.01 7.99 C 131.48 9.93 130.09 15.35 133.98 14.96 C 140.36 11.84 138.67 17.27 139.12 20.10 C 129.70 19.97 120.28 19.91 110.86 20.11 C 108.03 10.09 123.55 18.75 124.79 13.26 L 124.70 12.35 Z" />
</g>
<g id="#543a47ff">
<path fill="#543a47" opacity="1.00" d=" M 140.04 8.00 C 142.31 8.27 144.59 8.56 146.88 8.88 C 146.59 10.59 146.80 12.31 146.97 14.01 C 146.50 14.01 145.55 14.01 145.08 14.01 C 145.92 9.95 144.13 8.06 140.05 8.89 L 140.04 8.00 Z" />
</g>
<g id="#090904ff">
<path fill="#090904" opacity="1.00" d=" M 140.05 8.89 C 144.13 8.06 145.92 9.95 145.08 14.01 C 140.83 15.03 139.00 13.11 140.05 8.89 Z" />
</g>
<g id="#836264ff">
<path fill="#836264" opacity="1.00" d=" M 110.17 14.32 C 115.00 13.54 119.94 13.97 124.79 13.26 C 123.55 18.75 108.03 10.09 110.86 20.11 L 110.80 21.23 C 110.60 20.94 110.19 20.37 109.99 20.08 C 110.01 18.16 110.05 16.24 110.17 14.32 Z" />
</g>
<g id="#f9bebcff">
<path fill="#f9bebc" opacity="1.00" d=" M 0.00 15.04 C 36.00 14.95 72.07 14.40 108.08 15.36 C 108.78 15.03 109.48 14.68 110.17 14.32 C 110.05 16.24 110.01 18.16 109.99 20.08 C 102.80 20.94 92.61 18.20 94.08 29.09 C 90.19 30.10 83.72 27.14 80.80 29.82 C 81.50 34.85 79.56 36.92 74.98 36.04 C 71.38 35.73 72.80 40.46 72.67 42.72 C 70.05 42.93 67.45 43.19 64.91 43.88 C 43.28 44.16 21.64 43.92 0.00 44.00 L 0.00 15.04 Z" />
</g>
<g id="#8d6967ff">
<path fill="#8d6967" opacity="1.00" d=" M 146.97 14.01 C 157.00 14.14 167.11 13.32 177.06 14.87 C 172.94 26.06 184.73 20.81 190.80 22.18 C 191.98 24.24 191.99 26.66 192.04 28.97 C 191.54 28.98 190.55 28.98 190.06 28.98 C 193.32 19.79 182.11 22.55 176.95 23.89 C 176.47 22.96 175.97 22.03 175.48 21.10 C 175.37 19.67 175.21 18.25 175.02 16.83 C 169.32 12.20 156.24 16.40 147.92 15.00 L 146.93 14.96 L 146.97 14.01 Z" />
</g>
<g id="#fbd702ff">
<path fill="#fbd702" opacity="1.00" d=" M 140.04 21.07 C 138.20 14.88 141.29 13.63 146.93 14.96 C 146.93 17.01 146.88 19.06 146.96 21.11 C 147.00 21.56 147.07 22.46 147.11 22.92 C 156.33 23.32 165.58 22.59 174.80 23.12 C 175.87 24.96 176.56 26.97 176.87 29.14 C 180.65 32.82 194.85 24.93 191.23 36.25 C 184.01 38.15 175.02 33.98 169.01 37.01 C 168.53 39.28 167.70 41.86 168.88 44.05 C 171.15 47.05 179.83 41.75 176.02 50.01 C 173.78 57.01 181.97 74.08 169.85 72.90 C 167.94 69.33 168.86 64.52 163.24 66.97 C 163.73 61.82 161.17 57.12 161.52 52.00 C 159.87 52.03 156.57 52.08 154.93 52.11 C 154.63 51.83 154.04 51.27 153.74 50.99 C 152.68 46.10 157.26 36.54 149.77 37.51 C 144.86 37.81 148.69 28.53 143.34 29.43 C 140.26 30.32 136.35 28.73 133.80 29.79 C 134.84 42.73 117.70 32.21 110.78 36.76 C 110.57 38.30 110.15 41.38 109.94 42.93 C 104.27 41.18 100.65 43.64 101.72 49.73 C 97.92 52.15 92.79 51.49 88.57 53.13 C 88.40 57.51 87.33 61.78 86.08 65.97 C 84.44 66.56 80.20 64.83 81.22 67.81 L 81.30 68.71 C 82.60 75.50 70.73 70.89 73.30 77.62 C 71.64 81.32 62.54 81.86 66.35 75.48 C 66.89 72.30 63.93 66.73 68.45 66.58 C 74.70 69.22 74.18 54.83 68.60 59.45 C 66.49 59.19 67.83 54.37 67.73 52.12 C 69.15 52.10 70.56 52.04 71.98 51.95 C 75.90 50.91 83.10 53.74 81.21 46.11 C 81.44 43.12 84.63 43.47 86.76 43.75 C 88.97 42.65 87.12 40.01 87.21 38.16 C 89.75 37.54 92.79 38.57 95.25 37.29 C 98.65 34.34 105.09 37.95 102.06 30.03 C 104.63 30.05 107.21 29.98 109.78 29.81 C 112.17 29.56 114.56 29.25 116.94 28.86 C 112.97 15.34 137.42 28.72 140.04 21.07 Z" />
</g>
<g id="#867406ff">
<path fill="#867406" opacity="1.00" d=" M 146.93 14.96 L 147.92 15.00 C 148.32 16.64 147.25 19.16 148.80 20.21 C 157.44 21.90 166.64 20.65 175.48 21.10 C 166.13 21.89 156.18 23.38 146.96 21.11 C 146.88 19.06 146.93 17.01 146.93 14.96 Z" />
</g>
<g id="#060706ff">
<path fill="#060706" opacity="1.00" d=" M 147.92 15.00 C 156.24 16.40 169.32 12.20 175.02 16.83 C 169.99 24.15 157.15 18.28 148.80 20.21 C 147.25 19.16 148.32 16.64 147.92 15.00 Z" />
</g>
<g id="#f8bdbbff">
<path fill="#f8bdbb" opacity="1.00" d=" M 177.06 14.87 C 201.37 15.18 225.69 14.91 250.00 15.00 L 250.00 44.00 C 235.67 44.00 221.35 44.00 207.03 44.00 C 208.00 39.39 207.41 34.30 201.07 35.87 C 197.48 35.60 200.74 29.43 197.95 29.07 C 195.98 28.93 194.01 28.96 192.04 28.97 C 191.99 26.66 191.98 24.24 190.80 22.18 C 184.73 20.81 172.94 26.06 177.06 14.87 Z" />
</g>
<g id="#32280aff">
<path fill="#32280a" opacity="1.00" d=" M 148.80 20.21 C 157.15 18.28 169.99 24.15 175.02 16.83 C 175.21 18.25 175.37 19.67 175.48 21.10 C 166.64 20.65 157.44 21.90 148.80 20.21 Z" />
</g>
<g id="#b78681ff">
<path fill="#b78681" opacity="1.00" d=" M 94.08 29.09 C 92.61 18.20 102.80 20.94 109.99 20.08 C 110.19 20.37 110.60 20.94 110.80 21.23 L 111.32 22.01 C 110.96 22.26 110.25 22.78 109.89 23.04 C 104.57 22.95 93.31 19.49 95.92 28.90 C 95.62 29.17 95.01 29.72 94.71 30.00 L 93.87 29.98 L 94.08 29.09 Z" />
</g>
<g id="#312905ff">
<path fill="#312905" opacity="1.00" d=" M 110.86 20.11 C 120.28 19.91 129.70 19.97 139.12 20.10 L 139.18 21.18 C 129.72 20.99 120.26 20.84 110.80 21.23 L 110.86 20.11 Z" />
</g>
<g id="#7d6f08ff">
<path fill="#7d6f08" opacity="1.00" d=" M 110.80 21.23 C 120.26 20.84 129.72 20.99 139.18 21.18 C 129.97 22.63 120.61 21.86 111.32 22.01 L 110.80 21.23 Z" />
</g>
<g id="#cab014ff">
<path fill="#cab014" opacity="1.00" d=" M 139.18 21.18 L 140.04 21.07 C 137.42 28.72 112.97 15.34 116.94 28.86 C 114.56 29.25 112.17 29.56 109.78 29.81 L 110.00 28.95 L 110.26 28.08 C 111.60 26.99 111.57 25.00 110.26 23.89 L 109.89 23.04 C 110.25 22.78 110.96 22.26 111.32 22.01 C 120.61 21.86 129.97 22.63 139.18 21.18 Z" />
</g>
<g id="#c4aa10ff">
<path fill="#c4aa10" opacity="1.00" d=" M 146.96 21.11 C 156.18 23.38 166.13 21.89 175.48 21.10 C 175.97 22.03 176.47 22.96 176.95 23.89 C 176.92 25.34 176.89 26.80 176.88 28.25 L 176.87 29.14 C 176.56 26.97 175.87 24.96 174.80 23.12 C 165.58 22.59 156.33 23.32 147.11 22.92 C 147.07 22.46 147.00 21.56 146.96 21.11 Z" />
</g>
<g id="#2c271eff">
<path fill="#2c271e" opacity="1.00" d=" M 95.92 28.90 C 93.31 19.49 104.57 22.95 109.89 23.04 L 110.26 23.89 C 106.23 25.43 94.99 20.28 97.03 27.92 C 101.43 28.05 105.85 28.02 110.26 28.08 L 110.00 28.95 C 105.30 28.98 100.61 28.97 95.92 28.90 Z" />
</g>
<g id="#13100aff">
<path fill="#13100a" opacity="1.00" d=" M 176.95 23.89 C 182.11 22.55 193.32 19.79 190.06 28.98 C 185.67 28.85 181.17 29.36 176.88 28.25 C 176.89 26.80 176.92 25.34 176.95 23.89 Z" />
</g>
<g id="#020101ff">
<path fill="#020101" opacity="1.00" d=" M 97.03 27.92 C 94.99 20.28 106.23 25.43 110.26 23.89 C 109.68 25.29 109.68 26.68 110.26 28.08 C 105.85 28.02 101.43 28.05 97.03 27.92 Z" />
</g>
<g id="#655511ff">
<path fill="#655511" opacity="1.00" d=" M 110.26 23.89 C 111.57 25.00 111.60 26.99 110.26 28.08 C 109.68 26.68 109.68 25.29 110.26 23.89 Z" />
</g>
<g id="#8a7711ff">
<path fill="#8a7711" opacity="1.00" d=" M 176.88 28.25 C 181.17 29.36 185.67 28.85 190.06 28.98 C 190.55 28.98 191.54 28.98 192.04 28.97 L 192.03 29.94 C 190.79 33.87 193.34 36.73 197.21 35.25 L 197.93 35.12 C 198.29 38.58 202.93 36.44 205.32 37.59 C 196.88 35.07 196.63 53.21 205.18 50.14 L 205.09 50.81 C 204.86 51.05 204.40 51.53 204.17 51.77 C 194.35 54.93 200.10 42.09 197.14 37.73 C 195.17 37.20 193.20 36.71 191.23 36.25 C 194.85 24.93 180.65 32.82 176.87 29.14 L 176.88 28.25 Z" />
</g>
<g id="#695245ff">
<path fill="#695245" opacity="1.00" d=" M 80.80 29.82 C 83.72 27.14 90.19 30.10 94.08 29.09 L 93.87 29.98 C 89.92 29.95 85.96 29.98 82.01 30.09 C 79.00 36.15 83.75 35.80 87.20 36.19 C 85.67 36.40 82.62 36.80 81.10 37.01 C 81.03 35.21 80.88 31.62 80.80 29.82 Z" />
</g>
<g id="#8a760cff">
<path fill="#8a760c" opacity="1.00" d=" M 94.71 30.00 C 95.01 29.72 95.62 29.17 95.92 28.90 C 100.61 28.97 105.30 28.98 110.00 28.95 L 109.78 29.81 C 107.21 29.98 104.63 30.05 102.06 30.03 C 98.62 29.55 95.09 29.11 95.83 33.29 C 95.45 32.20 95.08 31.10 94.71 30.00 Z" />
</g>
<g id="#ceb51aff">
<path fill="#ceb51a" opacity="1.00" d=" M 133.80 29.79 C 136.35 28.73 140.26 30.32 143.34 29.43 C 148.69 28.53 144.86 37.81 149.77 37.51 C 157.26 36.54 152.68 46.10 153.74 50.99 C 151.80 51.00 149.87 51.03 147.94 51.04 C 150.44 38.33 137.52 47.23 132.84 42.32 C 134.35 31.48 116.86 39.39 110.78 36.76 C 117.70 32.21 134.84 42.73 133.80 29.79 Z" />
<path fill="#ceb51a" opacity="1.00" d=" M 95.83 33.29 C 95.09 29.11 98.62 29.55 102.06 30.03 C 105.09 37.95 98.65 34.34 95.25 37.29 C 95.46 36.24 95.63 35.19 95.75 34.13 L 95.83 33.29 Z" />
</g>
<g id="#533c45ff">
<path fill="#533c45" opacity="1.00" d=" M 192.04 28.97 C 194.01 28.96 195.98 28.93 197.95 29.07 C 197.97 31.09 197.96 33.10 197.93 35.12 L 197.21 35.25 C 197.90 31.13 196.27 28.96 192.03 29.94 L 192.04 28.97 Z" />
</g>
<g id="#b68e88ff">
<path fill="#b68e88" opacity="1.00" d=" M 197.95 29.07 C 200.74 29.43 197.48 35.60 201.07 35.87 C 207.41 34.30 208.00 39.39 207.03 44.00 C 203.53 52.63 210.05 49.48 213.91 52.28 C 213.42 58.58 217.62 69.93 207.12 67.20 C 207.05 68.66 206.89 71.57 206.82 73.02 L 206.10 72.78 C 206.07 71.12 206.00 67.79 205.96 66.13 C 215.55 69.20 213.85 58.01 212.34 52.61 C 210.79 52.43 207.68 52.07 206.13 51.89 C 205.87 51.62 205.35 51.08 205.09 50.81 L 205.18 50.14 C 205.48 46.09 207.23 41.49 205.32 37.59 C 202.93 36.44 198.29 38.58 197.93 35.12 C 197.96 33.10 197.97 31.09 197.95 29.07 Z" />
</g>
<g id="#aa827cff">
<path fill="#aa827c" opacity="1.00" d=" M 74.98 36.04 C 79.56 36.92 81.50 34.85 80.80 29.82 C 80.88 31.62 81.03 35.21 81.10 37.01 L 81.08 37.88 C 76.09 35.81 72.01 37.35 73.94 43.90 C 73.67 44.13 73.15 44.58 72.88 44.81 C 67.47 43.07 66.42 45.92 66.89 50.03 L 66.80 50.84 C 66.56 51.12 66.08 51.68 65.84 51.96 C 65.41 51.96 64.56 51.96 64.13 51.96 C 62.85 52.36 60.22 51.11 59.87 52.88 C 59.91 57.58 57.43 59.77 52.87 59.94 C 52.57 64.76 52.43 69.33 45.83 66.99 C 41.95 66.30 44.54 71.77 43.87 74.19 C 43.62 73.89 43.12 73.28 42.87 72.97 C 37.61 62.69 50.29 68.26 50.71 62.60 C 47.90 55.13 56.12 60.45 57.57 56.59 C 55.39 50.01 61.05 50.37 64.87 50.86 C 65.64 48.57 65.39 46.19 64.91 43.88 C 67.45 43.19 70.05 42.93 72.67 42.72 C 72.80 40.46 71.38 35.73 74.98 36.04 Z" />
</g>
<g id="#131008ff">
<path fill="#131008" opacity="1.00" d=" M 82.01 30.09 C 85.96 29.98 89.92 29.95 93.87 29.98 L 94.71 30.00 C 95.08 31.10 95.45 32.20 95.83 33.29 L 95.75 34.13 C 93.80 35.03 91.75 35.68 89.69 36.29 C 89.07 36.26 87.82 36.22 87.20 36.19 C 83.75 35.80 79.00 36.15 82.01 30.09 Z" />
</g>
<g id="#0c0c07ff">
<path fill="#0c0c07" opacity="1.00" d=" M 192.03 29.94 C 196.27 28.96 197.90 31.13 197.21 35.25 C 193.34 36.73 190.79 33.87 192.03 29.94 Z" />
</g>
<g id="#7d7209ff">
<path fill="#7d7209" opacity="1.00" d=" M 89.69 36.29 C 91.75 35.68 93.80 35.03 95.75 34.13 C 95.63 35.19 95.46 36.24 95.25 37.29 C 93.38 37.04 91.53 36.71 89.69 36.29 Z" />
</g>
<g id="#c8b018ff">
<path fill="#c8b018" opacity="1.00" d=" M 87.20 36.19 C 87.82 36.22 89.07 36.26 89.69 36.29 C 91.53 36.71 93.38 37.04 95.25 37.29 C 92.79 38.57 89.75 37.54 87.21 38.16 C 87.12 40.01 88.97 42.65 86.76 43.75 C 84.63 43.47 81.44 43.12 81.21 46.11 C 83.10 53.74 75.90 50.91 71.98 51.95 C 73.65 50.20 74.72 47.88 73.19 45.65 L 72.88 44.81 C 73.15 44.58 73.67 44.13 73.94 43.90 C 79.62 45.35 83.05 44.31 81.08 37.88 L 81.10 37.01 C 82.62 36.80 85.67 36.40 87.20 36.19 Z" />
</g>
<g id="#c9b017ff">
<path fill="#c9b017" opacity="1.00" d=" M 169.01 37.01 C 175.02 33.98 184.01 38.15 191.23 36.25 C 193.20 36.71 195.17 37.20 197.14 37.73 C 192.24 35.98 192.01 39.17 189.40 41.44 C 193.15 45.08 189.92 52.87 197.27 52.74 C 195.81 61.96 210.15 60.17 204.17 51.77 C 204.40 51.53 204.86 51.05 205.09 50.81 C 205.35 51.08 205.87 51.62 206.13 51.89 C 206.15 53.73 206.19 57.42 206.22 59.26 C 206.18 59.92 206.11 61.24 206.08 61.90 C 206.03 63.31 205.99 64.72 205.96 66.13 C 194.91 70.73 202.76 55.12 191.92 57.18 C 190.51 53.34 194.30 42.94 187.21 43.71 C 183.81 44.39 183.79 40.21 183.14 37.79 C 178.79 36.32 173.69 37.14 169.01 37.01 Z" />
</g>
<g id="#332819ff">
<path fill="#332819" opacity="1.00" d=" M 73.94 43.90 C 72.01 37.35 76.09 35.81 81.08 37.88 C 83.05 44.31 79.62 45.35 73.94 43.90 Z" />
</g>
<g id="#6d5c10ff">
<path fill="#6d5c10" opacity="1.00" d=" M 109.94 42.93 C 110.15 41.38 110.57 38.30 110.78 36.76 C 116.86 39.39 134.35 31.48 132.84 42.32 C 137.52 47.23 150.44 38.33 147.94 51.04 C 147.47 51.03 146.55 51.01 146.09 50.99 C 148.08 42.74 138.49 45.04 133.18 44.86 C 132.66 44.61 131.61 44.11 131.09 43.86 C 133.51 32.48 117.35 40.09 111.16 38.08 C 111.11 39.54 111.01 42.46 110.96 43.92 L 110.01 43.91 L 109.94 42.93 Z" />
</g>
<g id="#6f5e0fff">
<path fill="#6f5e0f" opacity="1.00" d=" M 169.01 37.01 C 173.69 37.14 178.79 36.32 183.14 37.79 C 178.76 37.91 174.38 37.79 170.02 38.10 C 166.56 44.61 172.15 42.56 174.93 42.99 L 175.15 43.84 C 173.06 43.93 170.97 44.02 168.88 44.05 C 167.70 41.86 168.53 39.28 169.01 37.01 Z" />
</g>
<g id="#070607ff">
<path fill="#070607" opacity="1.00" d=" M 111.16 38.08 C 117.35 40.09 133.51 32.48 131.09 43.86 C 129.40 43.90 127.72 43.95 126.04 44.00 C 121.01 44.00 115.99 44.09 110.96 43.92 C 111.01 42.46 111.11 39.54 111.16 38.08 Z" />
</g>
<g id="#050503ff">
<path fill="#050503" opacity="1.00" d=" M 170.02 38.10 C 174.38 37.79 178.76 37.91 183.14 37.79 C 180.38 44.47 185.34 44.93 189.94 46.20 C 190.00 50.05 190.04 53.91 190.05 57.76 C 188.46 58.02 185.28 58.53 183.69 58.78 C 182.59 63.35 183.56 68.25 182.30 72.83 C 180.87 72.88 179.45 72.93 178.03 72.98 C 177.80 63.03 178.36 53.05 177.89 43.11 C 177.15 43.08 175.67 43.02 174.93 42.99 C 172.15 42.56 166.56 44.61 170.02 38.10 Z" />
<path fill="#050503" opacity="1.00" d=" M 206.22 59.26 C 205.85 54.60 207.65 51.96 212.34 52.61 C 213.40 57.59 212.12 69.28 206.08 61.90 C 206.11 61.24 206.18 59.92 206.22 59.26 Z" />
</g>
<g id="#6f5a17ff">
<path fill="#6f5a17" opacity="1.00" d=" M 183.14 37.79 C 183.79 40.21 183.81 44.39 187.21 43.71 C 194.30 42.94 190.51 53.34 191.92 57.18 C 202.76 55.12 194.91 70.73 205.96 66.13 C 206.00 67.79 206.07 71.12 206.10 72.78 C 205.80 72.67 205.20 72.46 204.90 72.36 C 205.70 67.96 204.76 64.88 198.91 67.00 L 198.07 66.96 C 198.05 66.49 198.02 65.56 198.01 65.10 C 199.27 60.71 195.57 59.15 191.86 60.08 C 191.25 59.31 190.65 58.54 190.05 57.76 C 190.04 53.91 190.00 50.05 189.94 46.20 C 185.34 44.93 180.38 44.47 183.14 37.79 Z" />
</g>
<g id="#f6d405ff">
<path fill="#f6d405" opacity="1.00" d=" M 189.40 41.44 C 192.01 39.17 192.24 35.98 197.14 37.73 C 200.10 42.09 194.35 54.93 204.17 51.77 C 210.15 60.17 195.81 61.96 197.27 52.74 C 189.92 52.87 193.15 45.08 189.40 41.44 Z" />
</g>
<g id="#14100aff">
<path fill="#14100a" opacity="1.00" d=" M 205.18 50.14 C 196.63 53.21 196.88 35.07 205.32 37.59 C 205.23 41.77 205.18 45.96 205.18 50.14 Z" />
</g>
<g id="#6b4c4cff">
<path fill="#6b4c4c" opacity="1.00" d=" M 205.32 37.59 C 207.23 41.49 205.48 46.09 205.18 50.14 C 205.18 45.96 205.23 41.77 205.32 37.59 Z" />
</g>
<g id="#caaf15ff">
<path fill="#caaf15" opacity="1.00" d=" M 101.72 49.73 C 100.65 43.64 104.27 41.18 109.94 42.93 L 110.01 43.91 C 102.67 41.13 102.84 47.60 102.25 52.31 C 100.66 52.45 97.48 52.73 95.89 52.87 C 94.93 55.16 95.27 59.77 91.86 58.33 C 86.70 56.87 90.38 66.71 86.08 65.97 C 87.33 61.78 88.40 57.51 88.57 53.13 C 92.79 51.49 97.92 52.15 101.72 49.73 Z" />
</g>
<g id="#3b3108ff">
<path fill="#3b3108" opacity="1.00" d=" M 174.93 42.99 C 175.67 43.02 177.15 43.08 177.89 43.11 C 178.36 53.05 177.80 63.03 178.03 72.98 L 177.13 73.05 C 176.75 63.49 177.43 53.88 176.83 44.34 C 176.41 44.21 175.57 43.97 175.15 43.84 L 174.93 42.99 Z" />
</g>
<g id="#fbb7b4ff">
<path fill="#fbb7b4" opacity="1.00" d=" M 0.00 44.00 C 21.64 43.92 43.28 44.16 64.91 43.88 C 65.39 46.19 65.64 48.57 64.87 50.86 C 61.05 50.37 55.39 50.01 57.57 56.59 C 56.12 60.45 47.90 55.13 50.71 62.60 C 50.29 68.26 37.61 62.69 42.87 72.97 C 29.83 74.43 16.48 73.15 3.34 73.43 C 2.18 73.86 1.09 74.44 0.00 75.02 L 0.00 44.00 Z" />
<path fill="#fbb7b4" opacity="1.00" d=" M 207.03 44.00 C 221.35 44.00 235.67 44.00 250.00 44.00 L 250.00 72.85 C 238.08 74.53 225.86 73.23 213.89 73.15 C 211.61 72.22 209.15 72.48 206.82 73.02 C 206.89 71.57 207.05 68.66 207.12 67.20 C 217.62 69.93 213.42 58.58 213.91 52.28 C 210.05 49.48 203.53 52.63 207.03 44.00 Z" />
</g>
<g id="#77650fff">
<path fill="#77650f" opacity="1.00" d=" M 102.25 52.31 C 102.84 47.60 102.67 41.13 110.01 43.91 L 110.00 44.89 C 106.28 44.18 102.77 45.89 104.05 50.18 C 103.61 51.03 103.01 51.74 102.25 52.31 Z" />
</g>
<g id="#2c285fff">
<path fill="#2c285f" opacity="1.00" d=" M 110.01 43.91 L 110.96 43.92 C 115.99 44.09 121.01 44.00 126.04 44.00 C 122.07 48.66 125.03 59.79 132.10 58.96 C 135.40 61.89 132.02 66.82 130.21 69.92 C 133.14 73.56 140.05 73.59 139.52 79.58 C 141.05 82.94 145.21 81.38 148.00 81.06 C 146.95 83.47 146.95 87.23 143.93 88.04 C 137.76 88.42 141.48 77.95 133.76 80.17 C 131.70 77.08 130.55 70.34 125.03 73.98 C 115.04 80.97 117.58 61.60 111.50 68.41 C 113.56 78.07 103.35 74.22 98.18 74.14 C 96.59 76.89 96.20 81.16 92.17 81.27 C 84.63 82.63 91.42 97.56 80.90 95.90 C 77.99 95.87 74.40 97.02 72.75 94.06 C 70.45 86.97 75.95 86.55 80.93 86.79 C 80.98 82.82 80.97 78.86 80.87 74.90 C 81.16 74.38 81.74 73.35 82.03 72.84 C 86.43 74.30 89.13 71.34 88.03 66.99 C 88.53 66.75 89.55 66.29 90.05 66.06 C 92.15 65.86 94.89 66.43 95.82 63.99 C 97.67 67.21 101.17 69.65 103.64 72.41 C 114.57 78.32 106.74 58.16 115.65 60.14 C 117.93 65.09 116.29 75.23 124.77 72.91 C 127.09 67.68 126.38 56.46 118.11 58.88 C 115.30 57.91 119.69 45.75 111.64 50.68 C 102.57 49.43 105.40 62.76 96.04 59.06 L 96.04 58.09 C 101.30 59.47 103.37 57.55 102.25 52.31 C 103.01 51.74 103.61 51.03 104.05 50.18 C 108.24 52.85 111.31 49.17 110.00 44.89 L 110.01 43.91 Z" />
</g>
<g id="#35306fff">
<path fill="#35306f" opacity="1.00" d=" M 126.04 44.00 C 127.72 43.95 129.40 43.90 131.09 43.86 C 131.61 44.11 132.66 44.61 133.18 44.86 C 129.38 54.69 141.50 50.62 146.09 50.99 C 146.55 51.01 147.47 51.03 147.94 51.04 L 148.10 51.95 C 145.41 56.56 149.31 59.61 153.94 59.05 C 154.20 59.18 154.73 59.46 155.00 59.59 C 153.44 66.62 154.09 73.85 153.93 80.98 C 151.95 80.95 149.97 80.89 148.00 81.06 C 145.21 81.38 141.05 82.94 139.52 79.58 C 140.05 73.59 133.14 73.56 130.21 69.92 C 132.02 66.82 135.40 61.89 132.10 58.96 C 125.03 59.79 122.07 48.66 126.04 44.00 Z" />
</g>
<g id="#ad960cff">
<path fill="#ad960c" opacity="1.00" d=" M 168.88 44.05 C 170.97 44.02 173.06 43.93 175.15 43.84 C 175.57 43.97 176.41 44.21 176.83 44.34 C 177.43 53.88 176.75 63.49 177.13 73.05 C 176.86 73.32 176.31 73.84 176.03 74.11 C 174.30 74.10 170.83 74.07 169.09 74.06 C 169.28 73.77 169.66 73.19 169.85 72.90 C 181.97 74.08 173.78 57.01 176.02 50.01 C 179.83 41.75 171.15 47.05 168.88 44.05 Z" />
</g>
<g id="#181211ff">
<path fill="#181211" opacity="1.00" d=" M 66.89 50.03 C 66.42 45.92 67.47 43.07 72.88 44.81 L 73.19 45.65 C 73.19 49.51 70.44 50.77 66.89 50.03 Z" />
</g>
<g id="#14110aff">
<path fill="#14110a" opacity="1.00" d=" M 104.05 50.18 C 102.77 45.89 106.28 44.18 110.00 44.89 C 111.31 49.17 108.24 52.85 104.05 50.18 Z" />
</g>
<g id="#0f0d0fff">
<path fill="#0f0d0f" opacity="1.00" d=" M 133.18 44.86 C 138.49 45.04 148.08 42.74 146.09 50.99 C 141.50 50.62 129.38 54.69 133.18 44.86 Z" />
</g>
<g id="#7c6b0dff">
<path fill="#7c6b0d" opacity="1.00" d=" M 73.19 45.65 C 74.72 47.88 73.65 50.20 71.98 51.95 C 70.56 52.04 69.15 52.10 67.73 52.12 C 67.50 51.80 67.04 51.16 66.80 50.84 L 66.89 50.03 C 70.44 50.77 73.19 49.51 73.19 45.65 Z" />
</g>
<g id="#34306fff">
<path fill="#34306f" opacity="1.00" d=" M 111.64 50.68 C 119.69 45.75 115.30 57.91 118.11 58.88 C 126.38 56.46 127.09 67.68 124.77 72.91 C 116.29 75.23 117.93 65.09 115.65 60.14 C 106.74 58.16 114.57 78.32 103.64 72.41 C 101.17 69.65 97.67 67.21 95.82 63.99 C 95.88 62.65 95.94 61.31 95.99 59.97 L 96.04 59.06 C 105.40 62.76 102.57 49.43 111.64 50.68 Z" />
</g>
<g id="#ccb319ff">
<path fill="#ccb319" opacity="1.00" d=" M 65.84 51.96 C 66.08 51.68 66.56 51.12 66.80 50.84 C 67.04 51.16 67.50 51.80 67.73 52.12 C 67.83 54.37 66.49 59.19 68.60 59.45 C 74.18 54.83 74.70 69.22 68.45 66.58 C 63.93 66.73 66.89 72.30 66.35 75.48 C 62.54 81.86 71.64 81.32 73.30 77.62 C 73.49 78.89 73.44 80.18 73.28 81.45 C 71.68 81.52 68.49 81.66 66.89 81.73 C 65.29 87.69 69.33 98.63 59.07 94.96 C 59.03 85.72 58.63 76.45 59.15 67.23 C 61.72 66.53 65.14 67.27 66.86 64.72 C 66.99 60.43 66.28 56.21 65.84 51.96 Z" />
</g>
<g id="#74640eff">
<path fill="#74640e" opacity="1.00" d=" M 147.94 51.04 C 149.87 51.03 151.80 51.00 153.74 50.99 C 154.04 51.27 154.63 51.83 154.93 52.11 C 151.95 59.45 159.43 56.55 161.75 60.34 C 162.90 68.85 161.90 77.39 162.06 85.91 C 162.18 89.58 169.67 89.23 168.64 85.32 C 168.91 81.61 167.35 77.45 169.09 74.06 C 170.83 74.07 174.30 74.10 176.03 74.11 L 175.82 74.95 C 164.38 71.94 175.70 92.23 164.04 89.31 C 162.64 88.97 161.08 88.71 160.56 87.15 C 160.59 79.21 160.33 71.27 160.51 63.33 C 160.90 59.77 157.68 59.79 155.00 59.59 C 154.73 59.46 154.20 59.18 153.94 59.05 C 156.13 53.56 152.55 51.10 148.10 51.95 L 147.94 51.04 Z" />
</g>
<g id="#090706ff">
<path fill="#090706" opacity="1.00" d=" M 59.87 52.88 C 60.22 51.11 62.85 52.36 64.13 51.96 C 64.84 55.89 65.31 59.87 65.00 63.87 C 65.33 67.22 59.35 63.49 58.11 66.28 C 57.77 75.95 58.15 85.63 57.90 95.30 C 48.24 99.01 52.23 86.97 51.93 81.25 C 47.13 82.95 45.70 80.38 45.44 76.90 C 45.58 73.60 45.32 70.26 45.83 66.99 C 52.43 69.33 52.57 64.76 52.87 59.94 C 57.53 62.78 62.45 57.48 59.87 52.88 Z" />
</g>
<g id="#6e5b10ff">
<path fill="#6e5b10" opacity="1.00" d=" M 64.13 51.96 C 64.56 51.96 65.41 51.96 65.84 51.96 C 66.28 56.21 66.99 60.43 66.86 64.72 C 65.14 67.27 61.72 66.53 59.15 67.23 C 58.63 76.45 59.03 85.72 59.07 94.96 C 69.33 98.63 65.29 87.69 66.89 81.73 C 66.93 86.44 66.99 91.14 66.99 95.85 C 66.51 95.89 65.55 95.96 65.07 95.99 C 63.37 96.01 61.68 96.03 59.98 96.04 C 59.46 95.85 58.42 95.48 57.90 95.30 C 58.15 85.63 57.77 75.95 58.11 66.28 C 59.35 63.49 65.33 67.22 65.00 63.87 C 65.31 59.87 64.84 55.89 64.13 51.96 Z" />
</g>
<g id="#120f06ff">
<path fill="#120f06" opacity="1.00" d=" M 95.89 52.87 C 97.48 52.73 100.66 52.45 102.25 52.31 C 103.37 57.55 101.30 59.47 96.04 58.09 C 95.97 56.35 95.90 54.61 95.89 52.87 Z" />
</g>
<g id="#110f11ff">
<path fill="#110f11" opacity="1.00" d=" M 148.10 51.95 C 152.55 51.10 156.13 53.56 153.94 59.05 C 149.31 59.61 145.41 56.56 148.10 51.95 Z" />
</g>
<g id="#cbb219ff">
<path fill="#cbb219" opacity="1.00" d=" M 154.93 52.11 C 156.57 52.08 159.87 52.03 161.52 52.00 C 161.17 57.12 163.73 61.82 163.24 66.97 C 168.86 64.52 167.94 69.33 169.85 72.90 C 169.66 73.19 169.28 73.77 169.09 74.06 C 167.35 77.45 168.91 81.61 168.64 85.32 C 169.67 89.23 162.18 89.58 162.06 85.91 C 161.90 77.39 162.90 68.85 161.75 60.34 C 159.43 56.55 151.95 59.45 154.93 52.11 Z" />
</g>
<g id="#54421eff">
<path fill="#54421e" opacity="1.00" d=" M 206.13 51.89 C 207.68 52.07 210.79 52.43 212.34 52.61 C 207.65 51.96 205.85 54.60 206.22 59.26 C 206.19 57.42 206.15 53.73 206.13 51.89 Z" />
</g>
<g id="#593d41ff">
<path fill="#593d41" opacity="1.00" d=" M 52.87 59.94 C 57.43 59.77 59.91 57.58 59.87 52.88 C 62.45 57.48 57.53 62.78 52.87 59.94 Z" />
</g>
<g id="#756510ff">
<path fill="#756510" opacity="1.00" d=" M 91.86 58.33 C 95.27 59.77 94.93 55.16 95.89 52.87 C 95.90 54.61 95.97 56.35 96.04 58.09 L 96.04 59.06 L 95.99 59.97 C 90.14 57.55 88.55 61.96 90.05 66.06 C 89.55 66.29 88.53 66.75 88.03 66.99 C 85.75 67.23 83.48 67.51 81.22 67.81 C 80.20 64.83 84.44 66.56 86.08 65.97 C 90.38 66.71 86.70 56.87 91.86 58.33 Z" />
</g>
<g id="#5c403eff">
<path fill="#5c403e" opacity="1.00" d=" M 212.34 52.61 C 213.85 58.01 215.55 69.20 205.96 66.13 C 205.99 64.72 206.03 63.31 206.08 61.90 C 212.12 69.28 213.40 57.59 212.34 52.61 Z" />
</g>
<g id="#2e2a62ff">
<path fill="#2e2a62" opacity="1.00" d=" M 183.69 58.78 C 185.28 58.53 188.46 58.02 190.05 57.76 C 190.65 58.54 191.25 59.31 191.86 60.08 C 190.83 64.34 193.94 67.86 198.01 65.10 C 198.02 65.56 198.05 66.49 198.07 66.96 C 196.90 71.72 202.56 77.80 196.95 81.02 C 195.62 81.03 194.30 81.03 192.98 81.02 C 194.71 70.68 181.65 68.37 183.69 58.78 Z" />
</g>
<g id="#1f1b42ff">
<path fill="#1f1b42" opacity="1.00" d=" M 182.30 72.83 C 183.56 68.25 182.59 63.35 183.69 58.78 C 181.65 68.37 194.71 70.68 192.98 81.02 C 189.68 81.04 186.42 81.10 183.13 81.06 C 183.65 78.16 185.14 74.84 182.30 72.83 Z" />
</g>
<g id="#100e15ff">
<path fill="#100e15" opacity="1.00" d=" M 90.05 66.06 C 88.55 61.96 90.14 57.55 95.99 59.97 C 95.94 61.31 95.88 62.65 95.82 63.99 C 94.89 66.43 92.15 65.86 90.05 66.06 Z" />
</g>
<g id="#0b090cff">
<path fill="#0b090c" opacity="1.00" d=" M 153.93 80.98 C 154.09 73.85 153.44 66.62 155.00 59.59 C 157.68 59.79 160.90 59.77 160.51 63.33 C 160.33 71.27 160.59 79.21 160.56 87.15 C 156.37 88.02 151.32 87.44 153.93 80.98 Z" />
</g>
<g id="#0f0e0dff">
<path fill="#0f0e0d" opacity="1.00" d=" M 191.86 60.08 C 195.57 59.15 199.27 60.71 198.01 65.10 C 193.94 67.86 190.83 64.34 191.86 60.08 Z" />
</g>
<g id="#5f4246ff">
<path fill="#5f4246" opacity="1.00" d=" M 43.87 74.19 C 44.54 71.77 41.95 66.30 45.83 66.99 C 45.32 70.26 45.58 73.60 45.44 76.90 C 44.97 78.45 45.37 80.94 43.20 81.13 C 43.49 78.82 43.71 76.51 43.87 74.19 Z" />
</g>
<g id="#0a090aff">
<path fill="#0a090a" opacity="1.00" d=" M 81.22 67.81 C 83.48 67.51 85.75 67.23 88.03 66.99 C 89.13 71.34 86.43 74.30 82.03 72.84 C 81.82 71.45 81.57 70.08 81.30 68.71 L 81.22 67.81 Z" />
</g>
<g id="#28214eff">
<path fill="#28214e" opacity="1.00" d=" M 111.50 68.41 C 117.58 61.60 115.04 80.97 125.03 73.98 C 118.34 72.52 116.57 77.36 112.92 80.97 C 107.46 79.44 101.84 80.68 103.22 86.94 C 113.20 87.11 123.18 87.10 133.16 86.88 C 133.54 89.56 133.82 92.27 134.11 94.97 L 133.14 95.01 C 133.56 91.21 133.05 85.26 127.00 87.96 C 119.13 88.29 110.99 87.15 103.29 89.24 C 105.41 96.29 100.89 96.46 95.86 95.95 C 91.07 94.17 87.06 96.32 87.67 101.19 C 88.13 96.27 85.87 94.50 80.90 95.90 C 91.42 97.56 84.63 82.63 92.17 81.27 C 96.20 81.16 96.59 76.89 98.18 74.14 C 103.35 74.22 113.56 78.07 111.50 68.41 M 90.22 88.12 C 83.75 96.67 96.50 96.10 102.01 94.96 C 105.29 85.16 95.20 89.23 90.22 88.12 Z" />
</g>
<g id="#292142ff">
<path fill="#292142" opacity="1.00" d=" M 198.07 66.96 L 198.91 67.00 C 198.51 71.10 200.58 74.59 204.90 72.36 C 205.20 72.46 205.80 72.67 206.10 72.78 L 206.82 73.02 C 208.17 73.45 210.87 74.29 212.22 74.72 C 203.17 70.27 201.31 92.01 212.26 87.34 C 205.41 85.65 205.57 90.33 205.88 95.07 L 204.96 95.33 L 204.31 94.91 C 205.13 91.40 204.48 87.22 200.15 86.83 C 199.14 84.86 198.15 82.88 196.95 81.02 C 202.56 77.80 196.90 71.72 198.07 66.96 Z" />
</g>
<g id="#0f0b10ff">
<path fill="#0f0b10" opacity="1.00" d=" M 198.91 67.00 C 204.76 64.88 205.70 67.96 204.90 72.36 C 200.58 74.59 198.51 71.10 198.91 67.00 Z" />
</g>
<g id="#7b6b0eff">
<path fill="#7b6b0e" opacity="1.00" d=" M 81.30 68.71 C 81.57 70.08 81.82 71.45 82.03 72.84 C 81.74 73.35 81.16 74.38 80.87 74.90 C 73.30 71.88 76.77 79.04 73.28 81.45 C 73.44 80.18 73.49 78.89 73.30 77.62 C 70.73 70.89 82.60 75.50 81.30 68.71 Z" />
</g>
<g id="#bb8984ff">
<path fill="#bb8984" opacity="1.00" d=" M 206.82 73.02 C 209.15 72.48 211.61 72.22 213.89 73.15 C 214.11 77.68 214.42 82.22 214.58 86.75 C 214.00 90.55 209.62 89.14 207.02 89.07 C 204.03 95.91 209.37 94.71 213.31 95.67 L 212.17 95.84 C 210.36 95.96 208.54 96.03 206.73 96.08 L 205.90 96.07 L 205.88 95.07 C 205.57 90.33 205.41 85.65 212.26 87.34 C 212.86 83.44 214.33 78.45 212.22 74.72 C 210.87 74.29 208.17 73.45 206.82 73.02 Z" />
</g>
<g id="#fbaba8ff">
<path fill="#fbaba8" opacity="1.00" d=" M 3.34 73.43 C 16.48 73.15 29.83 74.43 42.87 72.97 C 43.12 73.28 43.62 73.89 43.87 74.19 C 43.71 76.51 43.49 78.82 43.20 81.13 C 33.82 77.75 36.75 89.60 36.85 95.05 C 33.70 93.75 31.44 93.99 30.06 95.77 C 30.85 101.48 27.60 103.60 23.12 102.44 C 15.53 104.07 7.74 104.18 0.00 104.02 L 0.00 75.02 C 1.09 74.44 2.18 73.86 3.34 73.43 Z" />
</g>
<g id="#1d193dff">
<path fill="#1d193d" opacity="1.00" d=" M 125.03 73.98 C 130.55 70.34 131.70 77.08 133.76 80.17 C 141.48 77.95 137.76 88.42 143.93 88.04 C 146.95 87.23 146.95 83.47 148.00 81.06 C 149.97 80.89 151.95 80.95 153.93 80.98 C 151.32 87.44 156.37 88.02 160.56 87.15 C 161.08 88.71 162.64 88.97 164.04 89.31 C 160.25 90.07 164.35 94.38 161.69 95.78 C 156.06 96.58 146.45 92.82 148.36 102.26 C 149.43 96.53 148.21 92.88 141.77 94.78 C 143.69 94.10 146.20 94.00 147.30 92.01 C 143.99 87.67 137.40 90.01 133.16 86.88 C 132.85 76.57 120.07 82.20 112.92 80.97 C 116.57 77.36 118.34 72.52 125.03 73.98 Z" />
</g>
<g id="#302b64ff">
<path fill="#302b64" opacity="1.00" d=" M 177.13 73.05 L 178.03 72.98 C 179.45 72.93 180.87 72.88 182.30 72.83 C 185.14 74.84 183.65 78.16 183.13 81.06 C 177.46 83.36 175.18 79.45 175.82 74.95 L 176.03 74.11 C 176.31 73.84 176.86 73.32 177.13 73.05 Z" />
</g>
<g id="#fdaca9ff">
<path fill="#fdaca9" opacity="1.00" d=" M 213.89 73.15 C 225.86 73.23 238.08 74.53 250.00 72.85 L 250.00 103.92 C 238.31 101.75 226.29 104.23 214.61 102.31 C 214.42 100.06 214.11 97.79 213.31 95.67 C 209.37 94.71 204.03 95.91 207.02 89.07 C 209.62 89.14 214.00 90.55 214.58 86.75 C 214.42 82.22 214.11 77.68 213.89 73.15 Z" />
</g>
<g id="#0b0a11ff">
<path fill="#0b0a11" opacity="1.00" d=" M 73.28 81.45 C 76.77 79.04 73.30 71.88 80.87 74.90 C 80.97 78.86 80.98 82.82 80.93 86.79 C 75.95 86.55 70.45 86.97 72.75 94.06 C 71.55 96.08 68.95 95.47 66.99 95.85 C 66.99 91.14 66.93 86.44 66.89 81.73 C 68.49 81.66 71.68 81.52 73.28 81.45 Z" />
</g>
<g id="#050405ff">
<path fill="#050405" opacity="1.00" d=" M 164.04 89.31 C 175.70 92.23 164.38 71.94 175.82 74.95 C 175.18 79.45 177.46 83.36 183.13 81.06 C 186.42 81.10 189.68 81.04 192.98 81.02 C 194.30 81.03 195.62 81.03 196.95 81.02 C 198.15 82.88 199.14 84.86 200.15 86.83 C 192.55 87.25 184.85 86.44 177.31 87.30 C 171.30 88.01 179.51 99.76 169.99 96.13 C 165.33 100.63 170.80 105.06 175.76 104.28 C 185.57 104.88 196.97 106.32 205.94 103.91 L 206.32 103.09 C 207.87 100.62 208.01 98.28 206.73 96.08 C 208.54 96.03 210.36 95.96 212.17 95.84 C 212.00 100.53 212.25 105.24 211.88 109.93 C 197.59 110.19 183.31 109.88 169.02 110.01 C 156.66 109.99 144.31 109.98 131.96 110.00 C 114.67 110.24 97.36 109.39 80.10 110.57 C 75.26 108.44 72.05 110.33 72.52 115.79 C 68.31 116.03 64.09 116.11 59.88 116.18 C 58.18 114.65 61.45 111.29 58.70 110.16 C 54.06 109.93 49.42 109.94 44.78 110.11 C 38.66 97.07 62.91 110.49 59.98 96.04 C 61.68 96.03 63.37 96.01 65.07 95.99 C 63.09 105.26 72.36 103.06 77.99 104.00 C 82.48 104.48 80.74 98.89 80.90 95.90 C 85.87 94.50 88.13 96.27 87.67 101.19 C 87.28 105.81 92.74 103.62 95.77 104.22 C 112.80 105.31 130.46 105.74 147.25 104.25 C 147.53 103.75 148.08 102.76 148.36 102.26 C 146.45 92.82 156.06 96.58 161.69 95.78 C 164.35 94.38 160.25 90.07 164.04 89.31 Z" />
</g>
<g id="#070508ff">
<path fill="#070508" opacity="1.00" d=" M 212.26 87.34 C 201.31 92.01 203.17 70.27 212.22 74.72 C 212.19 78.92 212.20 83.13 212.26 87.34 Z" />
</g>
<g id="#6b4a47ff">
<path fill="#6b4a47" opacity="1.00" d=" M 212.22 74.72 C 214.33 78.45 212.86 83.44 212.26 87.34 C 212.20 83.13 212.19 78.92 212.22 74.72 Z" />
</g>
<g id="#1a1736ff">
<path fill="#1a1736" opacity="1.00" d=" M 45.44 76.90 C 45.70 80.38 47.13 82.95 51.93 81.25 C 52.23 86.97 48.24 99.01 57.90 95.30 C 58.42 95.48 59.46 95.85 59.98 96.04 C 62.91 110.49 38.66 97.07 44.78 110.11 L 44.89 110.93 C 44.49 112.27 43.70 114.96 43.30 116.30 C 47.17 110.22 38.03 106.69 37.51 112.63 C 35.57 116.38 40.98 116.12 43.30 116.30 C 39.79 116.63 33.05 116.80 35.98 122.99 C 36.38 131.21 34.94 139.63 36.66 147.75 C 34.24 150.57 37.82 157.15 29.98 154.07 C 24.56 156.72 23.54 152.42 21.78 149.20 C 19.78 147.98 17.17 148.79 14.95 148.18 C 14.59 146.89 14.03 145.60 14.15 144.23 C 14.33 139.51 18.32 138.07 22.27 137.27 C 21.24 131.29 27.13 129.21 29.30 134.19 C 29.33 139.62 26.54 148.58 34.94 146.78 C 35.01 137.54 35.28 128.29 34.90 119.07 C 33.28 118.90 31.64 118.86 30.01 118.96 C 25.57 120.09 32.02 128.71 23.28 124.93 C 20.17 121.08 24.44 115.35 22.41 110.76 C 22.53 108.44 22.65 106.12 22.78 103.80 C 28.56 106.37 30.92 102.34 30.22 97.70 C 29.67 105.49 40.29 102.23 36.22 96.01 C 36.38 95.77 36.69 95.29 36.85 95.05 L 37.72 95.23 C 40.04 95.43 43.22 96.95 44.91 94.72 C 45.00 90.38 44.54 85.99 43.37 81.81 L 43.20 81.13 C 45.37 80.94 44.97 78.45 45.44 76.90 M 23.99 105.00 C 21.16 108.64 24.41 110.48 26.79 110.64 C 31.46 110.53 30.01 100.15 23.99 105.00 Z" />
</g>
<g id="#755253ff">
<path fill="#755253" opacity="1.00" d=" M 36.85 95.05 C 36.75 89.60 33.82 77.75 43.20 81.13 L 43.37 81.81 C 34.87 79.87 38.67 89.80 37.72 95.23 L 36.85 95.05 Z" />
</g>
<g id="#634f14ff">
<path fill="#634f14" opacity="1.00" d=" M 66.89 81.73 C 68.49 81.66 71.68 81.52 73.28 81.45 C 71.68 81.52 68.49 81.66 66.89 81.73 Z" />
</g>
<g id="#040409ff">
<path fill="#040409" opacity="1.00" d=" M 103.22 86.94 C 101.84 80.68 107.46 79.44 112.92 80.97 C 120.07 82.20 132.85 76.57 133.16 86.88 C 123.18 87.10 113.20 87.11 103.22 86.94 Z" />
</g>
<g id="#05040aff">
<path fill="#05040a" opacity="1.00" d=" M 37.72 95.23 C 38.67 89.80 34.87 79.87 43.37 81.81 C 44.54 85.99 45.00 90.38 44.91 94.72 C 43.22 96.95 40.04 95.43 37.72 95.23 Z" />
</g>
<g id="#08060dff">
<path fill="#08060d" opacity="1.00" d=" M 133.16 86.88 C 137.40 90.01 143.99 87.67 147.30 92.01 C 146.20 94.00 143.69 94.10 141.77 94.78 C 139.21 94.86 136.66 94.92 134.11 94.97 C 133.82 92.27 133.54 89.56 133.16 86.88 Z" />
</g>
<g id="#58356cff">
<path fill="#58356c" opacity="1.00" d=" M 177.31 87.30 C 184.85 86.44 192.55 87.25 200.15 86.83 C 200.04 89.65 199.98 92.48 199.95 95.31 C 200.93 82.94 185.06 87.92 177.25 89.23 C 178.56 93.04 174.02 99.73 178.21 102.42 C 187.55 103.12 196.95 102.91 206.32 103.09 L 205.94 103.91 C 195.88 104.16 185.80 103.69 175.76 104.28 C 170.80 105.06 165.33 100.63 169.99 96.13 C 179.51 99.76 171.30 88.01 177.31 87.30 Z" />
</g>
<g id="#0d0912ff">
<path fill="#0d0912" opacity="1.00" d=" M 200.15 86.83 C 204.48 87.22 205.13 91.40 204.31 94.91 C 202.83 94.81 201.38 94.94 199.95 95.31 C 199.98 92.48 200.04 89.65 200.15 86.83 Z" />
</g>
<g id="#080611ff">
<path fill="#080611" opacity="1.00" d=" M 90.22 88.12 C 95.20 89.23 105.29 85.16 102.01 94.96 C 96.50 96.10 83.75 96.67 90.22 88.12 Z" />
</g>
<g id="#915ab3ff">
<path fill="#915ab3" opacity="1.00" d=" M 103.29 89.24 C 110.99 87.15 119.13 88.29 127.00 87.96 C 133.05 85.26 133.56 91.21 133.14 95.01 L 132.85 95.95 L 131.89 95.89 C 133.86 84.15 118.20 90.26 111.22 89.13 C 110.49 91.70 110.23 94.38 110.04 97.04 C 110.07 98.71 109.45 100.91 111.29 101.87 C 122.86 102.18 134.44 102.07 146.02 101.92 C 145.80 100.42 145.36 97.44 145.13 95.94 C 149.08 95.11 146.69 100.46 146.96 102.94 C 134.98 103.18 122.99 102.88 111.00 103.01 C 105.70 102.08 90.92 106.95 95.86 95.95 C 100.89 96.46 105.41 96.29 103.29 89.24 Z" />
</g>
<g id="#9d63c2ff">
<path fill="#9d63c2" opacity="1.00" d=" M 177.25 89.23 C 185.06 87.92 200.93 82.94 199.95 95.31 L 200.04 95.91 C 194.94 96.03 200.38 84.40 191.98 88.93 C 190.20 90.50 185.42 87.21 184.27 90.35 C 184.40 94.60 179.65 105.01 189.00 102.03 C 193.75 101.89 211.40 104.82 202.91 96.31 C 203.42 96.07 204.45 95.58 204.96 95.33 L 205.88 95.07 L 205.90 96.07 C 206.01 97.83 206.21 101.33 206.32 103.09 C 196.95 102.91 187.55 103.12 178.21 102.42 C 174.02 99.73 178.56 93.04 177.25 89.23 Z" />
</g>
<g id="#b875e2ff">
<path fill="#b875e2" opacity="1.00" d=" M 111.22 89.13 C 118.20 90.26 133.86 84.15 131.89 95.89 C 124.84 96.01 116.08 92.10 110.04 97.04 C 110.23 94.38 110.49 91.70 111.22 89.13 Z" />
<path fill="#b875e2" opacity="1.00" d=" M 157.77 205.58 C 169.54 206.02 181.42 206.52 193.19 205.15 L 192.67 205.82 C 192.46 206.11 192.03 206.69 191.81 206.97 C 190.70 208.41 191.13 210.31 190.99 211.99 C 181.03 212.02 171.07 212.01 161.11 211.98 C 161.29 209.16 160.89 206.40 157.77 205.58 Z" />
</g>
<g id="#c980f4ff">
<path fill="#c980f4" opacity="1.00" d=" M 184.27 90.35 C 185.42 87.21 190.20 90.50 191.98 88.93 C 200.38 84.40 194.94 96.03 200.04 95.91 C 200.76 96.01 202.19 96.21 202.91 96.31 C 211.40 104.82 193.75 101.89 189.00 102.03 C 179.65 105.01 184.40 94.60 184.27 90.35 Z" />
</g>
<g id="#161430ff">
<path fill="#161430" opacity="1.00" d=" M 66.99 95.85 C 68.95 95.47 71.55 96.08 72.75 94.06 C 74.40 97.02 77.99 95.87 80.90 95.90 C 80.74 98.89 82.48 104.48 77.99 104.00 C 72.36 103.06 63.09 105.26 65.07 95.99 C 65.55 95.96 66.51 95.89 66.99 95.85 Z" />
</g>
<g id="#a26b6aff">
<path fill="#a26b6a" opacity="1.00" d=" M 30.06 95.77 C 31.44 93.99 33.70 93.75 36.85 95.05 C 36.69 95.29 36.38 95.77 36.22 96.01 C 34.17 96.21 32.08 96.18 30.06 95.77 Z" />
</g>
<g id="#cd83f8ff">
<path fill="#cd83f8" opacity="1.00" d=" M 110.04 97.04 C 116.08 92.10 124.84 96.01 131.89 95.89 L 132.85 95.95 C 136.94 95.96 141.04 95.96 145.13 95.94 C 145.36 97.44 145.80 100.42 146.02 101.92 C 134.44 102.07 122.86 102.18 111.29 101.87 C 109.45 100.91 110.07 98.71 110.04 97.04 Z" />
</g>
<g id="#6b3f82ff">
<path fill="#6b3f82" opacity="1.00" d=" M 133.14 95.01 L 134.11 94.97 C 136.66 94.92 139.21 94.86 141.77 94.78 C 148.21 92.88 149.43 96.53 148.36 102.26 C 148.08 102.76 147.53 103.75 147.25 104.25 C 135.17 103.82 123.08 104.08 111.00 103.98 L 111.00 103.01 C 122.99 102.88 134.98 103.18 146.96 102.94 C 146.69 100.46 149.08 95.11 145.13 95.94 C 141.04 95.96 136.94 95.96 132.85 95.95 L 133.14 95.01 Z" />
</g>
<g id="#603d6fff">
<path fill="#603d6f" opacity="1.00" d=" M 199.95 95.31 C 201.38 94.94 202.83 94.81 204.31 94.91 L 204.96 95.33 C 204.45 95.58 203.42 96.07 202.91 96.31 C 202.19 96.21 200.76 96.01 200.04 95.91 L 199.95 95.31 Z" />
</g>
<g id="#895f57ff">
<path fill="#895f57" opacity="1.00" d=" M 23.12 102.44 C 27.60 103.60 30.85 101.48 30.06 95.77 C 30.10 96.25 30.18 97.22 30.22 97.70 C 30.92 102.34 28.56 106.37 22.78 103.80 C 22.86 103.46 23.04 102.78 23.12 102.44 Z" />
</g>
<g id="#0c080eff">
<path fill="#0c080e" opacity="1.00" d=" M 30.06 95.77 C 32.08 96.18 34.17 96.21 36.22 96.01 C 40.29 102.23 29.67 105.49 30.22 97.70 C 30.18 97.22 30.10 96.25 30.06 95.77 Z" />
</g>
<g id="#4d2f61ff">
<path fill="#4d2f61" opacity="1.00" d=" M 87.67 101.19 C 87.06 96.32 91.07 94.17 95.86 95.95 C 90.92 106.95 105.70 102.08 111.00 103.01 L 111.00 103.98 C 105.92 104.01 100.84 103.98 95.77 104.22 C 92.74 103.62 87.28 105.81 87.67 101.19 Z" />
</g>
<g id="#4b3157ff">
<path fill="#4b3157" opacity="1.00" d=" M 205.90 96.07 L 206.73 96.08 C 208.01 98.28 207.87 100.62 206.32 103.09 C 206.21 101.33 206.01 97.83 205.90 96.07 Z" />
</g>
<g id="#6b437dff">
<path fill="#6b437d" opacity="1.00" d=" M 212.17 95.84 L 213.31 95.67 C 213.14 100.84 212.85 106.04 213.20 111.22 L 212.10 111.15 C 210.08 111.02 208.06 110.97 206.04 110.98 C 204.32 110.98 200.88 110.98 199.16 110.98 L 198.19 110.99 C 196.11 110.96 194.03 110.97 191.96 111.01 C 191.49 111.01 190.55 111.01 190.08 111.02 C 186.07 110.98 182.07 110.98 178.07 111.02 L 177.10 111.02 L 176.12 111.02 C 174.07 110.98 172.03 110.99 169.98 111.00 L 168.97 110.98 L 169.02 110.01 C 183.31 109.88 197.59 110.19 211.88 109.93 C 212.25 105.24 212.00 100.53 212.17 95.84 Z" />
</g>
<g id="#c68886ff">
<path fill="#c68886" opacity="1.00" d=" M 213.31 95.67 C 214.11 97.79 214.42 100.06 214.61 102.31 C 214.31 105.27 215.65 108.89 213.20 111.22 C 212.85 106.04 213.14 100.84 213.31 95.67 Z" />
</g>
<g id="#f89e9bff">
<path fill="#f89e9b" opacity="1.00" d=" M 0.00 104.02 C 7.74 104.18 15.53 104.07 23.12 102.44 C 23.04 102.78 22.86 103.46 22.78 103.80 C 21.15 105.07 21.80 107.04 21.81 108.80 C 19.79 110.75 16.67 109.65 14.13 110.22 C 13.69 115.11 14.86 120.27 13.12 124.99 C 11.72 125.00 10.33 125.00 8.93 125.01 C 0.26 130.12 16.54 156.24 0.00 154.09 L 0.00 104.02 Z" />
</g>
<g id="#fba29fff">
<path fill="#fba29f" opacity="1.00" d=" M 214.61 102.31 C 226.29 104.23 238.31 101.75 250.00 103.92 L 250.00 133.83 C 240.20 132.06 230.20 132.69 220.32 132.32 C 214.90 131.01 215.24 135.24 213.52 138.44 C 213.45 134.25 213.71 130.04 213.13 125.88 C 213.35 121.00 213.49 116.10 213.20 111.22 C 215.65 108.89 214.31 105.27 214.61 102.31 Z" />
</g>
<g id="#8a5d59ff">
<path fill="#8a5d59" opacity="1.00" d=" M 21.81 108.80 C 21.80 107.04 21.15 105.07 22.78 103.80 C 22.65 106.12 22.53 108.44 22.41 110.76 C 8.81 105.43 19.36 123.07 13.12 124.99 C 14.86 120.27 13.69 115.11 14.13 110.22 C 16.67 109.65 19.79 110.75 21.81 108.80 Z" />
</g>
<g id="#261831ff">
<path fill="#261831" opacity="1.00" d=" M 95.77 104.22 C 100.84 103.98 105.92 104.01 111.00 103.98 C 123.08 104.08 135.17 103.82 147.25 104.25 C 130.46 105.74 112.80 105.31 95.77 104.22 Z" />
</g>
<g id="#271931ff">
<path fill="#271931" opacity="1.00" d=" M 175.76 104.28 C 185.80 103.69 195.88 104.16 205.94 103.91 C 196.97 106.32 185.57 104.88 175.76 104.28 Z" />
</g>
<g id="#020204ff">
<path fill="#020204" opacity="1.00" d=" M 23.99 105.00 C 30.01 100.15 31.46 110.53 26.79 110.64 C 24.41 110.48 21.16 108.64 23.99 105.00 Z" />
</g>
<g id="#040307ff">
<path fill="#040307" opacity="1.00" d=" M 37.51 112.63 C 38.03 106.69 47.17 110.22 43.30 116.30 C 40.98 116.12 35.57 116.38 37.51 112.63 Z" />
</g>
<g id="#533367ff">
<path fill="#533367" opacity="1.00" d=" M 44.78 110.11 C 49.42 109.94 54.06 109.93 58.70 110.16 C 61.45 111.29 58.18 114.65 59.88 116.18 C 60.21 116.45 60.87 117.01 61.21 117.29 C 60.60 117.56 59.38 118.10 58.78 118.36 C 61.15 108.05 51.34 111.26 44.89 110.93 L 44.78 110.11 Z" />
</g>
<g id="#2a2454ff">
<path fill="#2a2454" opacity="1.00" d=" M 72.52 115.79 C 72.05 110.33 75.26 108.44 80.10 110.57 C 80.27 110.93 80.62 111.65 80.79 112.01 C 80.78 113.24 80.78 114.47 80.78 115.70 C 80.77 116.78 80.84 117.86 80.90 118.93 C 83.43 125.06 75.30 141.87 86.93 138.99 C 87.05 134.33 87.01 129.68 87.07 125.02 C 87.52 124.99 88.40 124.93 88.85 124.90 C 88.23 126.82 87.88 128.83 87.93 130.86 C 85.78 137.99 88.66 140.39 95.02 138.90 C 95.30 139.15 95.86 139.63 96.15 139.88 C 93.24 147.26 97.58 147.85 103.08 147.00 C 104.74 146.97 108.06 146.91 109.72 146.88 L 110.07 147.90 C 105.04 149.41 92.42 143.75 96.01 153.94 C 102.08 152.04 119.81 159.39 115.13 147.94 C 115.89 147.92 117.39 147.89 118.15 147.88 C 112.51 159.00 129.51 148.87 125.04 159.02 C 125.17 164.88 112.14 158.95 116.88 168.90 C 110.11 166.68 110.53 171.41 110.96 175.98 C 110.95 181.30 110.98 186.62 111.02 191.94 C 110.99 193.96 110.96 195.98 110.96 198.00 C 108.79 189.05 110.45 177.90 110.00 167.97 C 115.68 169.57 117.67 167.58 115.98 161.98 C 110.26 159.21 109.62 164.53 110.00 167.97 C 104.07 164.98 102.74 173.27 103.67 177.46 C 106.98 183.85 99.73 185.03 95.71 185.97 C 88.46 184.00 91.51 173.29 82.42 174.51 C 78.44 172.56 83.26 165.70 79.76 163.02 C 72.33 158.92 76.37 168.77 72.12 169.09 C 72.35 167.59 72.80 164.58 73.02 163.07 C 65.64 162.87 58.26 162.99 50.88 163.09 C 50.19 160.41 50.33 157.62 50.12 154.88 C 53.72 157.09 48.63 165.56 56.99 162.03 C 61.21 160.01 74.03 166.39 73.32 158.64 C 73.34 157.15 72.57 155.10 74.59 154.64 C 72.06 161.57 83.86 164.22 81.04 155.18 C 79.43 155.05 76.20 154.78 74.59 154.64 L 75.24 154.17 C 80.40 155.77 81.52 153.06 81.24 149.10 C 81.55 148.73 82.15 147.99 82.46 147.62 C 90.04 148.86 80.95 158.39 85.51 158.65 C 86.13 153.86 91.60 155.50 94.93 153.79 C 97.84 147.70 92.65 146.60 88.20 146.70 C 86.42 143.70 89.03 136.89 82.18 140.04 C 79.35 139.65 81.35 144.79 79.04 145.99 C 74.31 147.29 73.95 143.38 74.14 139.90 C 72.77 136.98 65.18 141.43 66.23 136.77 C 65.27 133.00 69.58 134.02 72.22 133.37 C 73.54 133.26 74.25 132.55 74.33 131.23 C 75.08 126.55 75.30 121.77 74.90 117.06 C 71.52 116.94 68.15 117.00 64.77 117.14 C 63.58 117.16 62.39 117.21 61.21 117.29 C 60.87 117.01 60.21 116.45 59.88 116.18 C 64.09 116.11 68.31 116.03 72.52 115.79 M 90.25 140.11 C 87.85 141.57 88.62 146.78 92.00 146.04 C 96.96 147.11 96.95 135.06 90.25 140.11 M 119.25 155.11 C 112.72 160.44 128.60 164.40 123.99 154.98 L 119.25 155.11 Z" />
</g>
<g id="#718404ff">
<path fill="#718404" opacity="1.00" d=" M 80.10 110.57 C 97.36 109.39 114.67 110.24 131.96 110.00 L 132.13 111.00 C 127.45 111.00 122.78 110.96 118.10 111.02 C 112.81 110.99 107.52 110.97 102.22 110.97 C 97.46 110.99 92.71 110.79 87.95 111.02 C 85.54 111.20 83.16 111.53 80.79 112.01 C 80.62 111.65 80.27 110.93 80.10 110.57 Z" />
</g>
<g id="#8b4005ff">
<path fill="#8b4005" opacity="1.00" d=" M 131.96 110.00 C 144.31 109.98 156.66 109.99 169.02 110.01 L 168.97 110.98 L 168.01 111.00 C 166.36 111.00 164.72 111.00 163.08 111.03 C 157.75 111.01 152.43 110.95 147.10 111.02 C 142.45 111.00 137.81 110.99 133.16 111.03 L 132.13 111.00 L 131.96 110.00 Z" />
</g>
<g id="#100e21ff">
<path fill="#100e21" opacity="1.00" d=" M 13.12 124.99 C 19.36 123.07 8.81 105.43 22.41 110.76 C 24.44 115.35 20.17 121.08 23.28 124.93 C 32.02 128.71 25.57 120.09 30.01 118.96 C 29.40 124.01 29.58 129.11 29.30 134.19 C 27.13 129.21 21.24 131.29 22.27 137.27 C 18.32 138.07 14.33 139.51 14.15 144.23 C 12.67 138.11 20.77 122.72 8.82 125.83 L 8.93 125.01 C 10.33 125.00 11.72 125.00 13.12 124.99 Z" />
</g>
<g id="#623a79ff">
<path fill="#623a79" opacity="1.00" d=" M 43.30 116.30 C 43.70 114.96 44.49 112.27 44.89 110.93 C 46.47 115.84 43.59 120.03 38.32 119.54 C 36.81 128.20 36.69 137.05 37.09 145.81 C 38.93 147.51 41.69 146.35 43.92 147.11 C 44.35 148.50 44.35 149.93 43.94 151.33 C 43.32 147.62 40.10 147.45 36.66 147.75 C 34.94 139.63 36.38 131.21 35.98 122.99 C 33.05 116.80 39.79 116.63 43.30 116.30 Z" />
</g>
<g id="#955db9ff">
<path fill="#955db9" opacity="1.00" d=" M 44.89 110.93 C 51.34 111.26 61.15 108.05 58.78 118.36 C 53.98 119.16 41.38 113.96 44.04 124.02 C 46.62 129.58 41.93 131.20 38.23 132.53 C 37.93 134.92 37.88 137.30 38.08 139.69 C 44.41 137.74 42.64 143.83 43.92 147.11 C 41.69 146.35 38.93 147.51 37.09 145.81 C 36.69 137.05 36.81 128.20 38.32 119.54 C 43.59 120.03 46.47 115.84 44.89 110.93 Z" />
</g>
<g id="#65f708ff">
<path fill="#65f708" opacity="1.00" d=" M 80.79 112.01 C 83.16 111.53 85.54 111.20 87.95 111.02 C 88.02 113.03 88.10 115.03 88.20 117.04 C 84.84 117.18 83.53 118.04 80.78 115.70 C 80.78 114.47 80.78 113.24 80.79 112.01 Z" />
</g>
<g id="#b4fa02ff">
<path fill="#b4fa02" opacity="1.00" d=" M 87.95 111.02 C 92.71 110.79 97.46 110.99 102.22 110.97 C 102.49 113.98 102.71 119.17 97.40 117.48 C 94.44 118.85 95.56 122.53 95.81 125.05 L 95.06 125.07 C 92.98 125.03 90.91 124.97 88.85 124.90 C 88.48 122.29 88.44 119.66 88.20 117.04 C 88.10 115.03 88.02 113.03 87.95 111.02 Z" />
</g>
<g id="#faf902ff">
<path fill="#faf902" opacity="1.00" d=" M 102.22 110.97 C 107.52 110.97 112.81 110.99 118.10 111.02 C 121.09 119.36 107.32 116.12 110.79 123.89 C 105.97 124.10 101.55 125.48 102.93 131.00 C 100.51 131.62 98.01 131.55 95.57 131.10 C 96.36 129.18 96.61 127.01 95.81 125.05 C 95.56 122.53 94.44 118.85 97.40 117.48 C 102.71 119.17 102.49 113.98 102.22 110.97 Z" />
</g>
<g id="#fec201ff">
<path fill="#fec201" opacity="1.00" d=" M 118.10 111.02 C 122.78 110.96 127.45 111.00 132.13 111.00 L 133.16 111.03 C 134.04 116.52 129.25 117.82 125.16 119.17 C 126.77 123.50 123.18 125.99 118.74 125.74 C 119.41 130.74 115.57 133.41 111.29 133.04 C 109.53 130.06 105.86 131.25 102.93 131.00 C 101.55 125.48 105.97 124.10 110.79 123.89 C 107.32 116.12 121.09 119.36 118.10 111.02 Z" />
</g>
<g id="#fe8c01ff">
<path fill="#fe8c01" opacity="1.00" d=" M 133.16 111.03 C 137.81 110.99 142.45 111.00 147.10 111.02 C 148.18 115.60 144.91 118.23 140.73 118.75 C 142.76 128.52 129.37 121.47 131.53 131.46 C 127.48 132.14 123.62 134.17 124.90 138.97 C 120.19 139.02 115.48 139.04 110.77 139.20 C 110.90 137.14 111.08 135.08 111.29 133.04 C 115.57 133.41 119.41 130.74 118.74 125.74 C 123.18 125.99 126.77 123.50 125.16 119.17 C 129.25 117.82 134.04 116.52 133.16 111.03 Z" />
</g>
<g id="#fe6902ff">
<path fill="#fe6902" opacity="1.00" d=" M 147.10 111.02 C 152.43 110.95 157.75 111.01 163.08 111.03 C 162.08 114.46 161.06 118.11 167.12 116.73 C 163.76 115.79 161.68 116.50 160.87 118.87 C 156.68 117.28 151.66 120.62 154.93 125.07 L 154.05 125.09 C 147.93 122.44 147.52 126.72 147.56 130.81 C 146.55 132.07 145.96 133.56 145.68 135.14 C 145.68 129.32 135.84 134.01 139.95 138.99 L 139.00 139.02 C 134.29 139.00 129.60 139.02 124.90 138.97 C 123.62 134.17 127.48 132.14 131.53 131.46 C 129.37 121.47 142.76 128.52 140.73 118.75 C 144.91 118.23 148.18 115.60 147.10 111.02 Z" />
</g>
<g id="#fc2a0eff">
<path fill="#fc2a0e" opacity="1.00" d=" M 163.08 111.03 C 164.72 111.00 166.36 111.00 168.01 111.00 C 168.31 112.90 170.33 116.52 167.12 116.73 C 161.06 118.11 162.08 114.46 163.08 111.03 Z" />
</g>
<g id="#faafa9ff">
<path fill="#faafa9" opacity="1.00" d=" M 168.01 111.00 L 168.97 110.98 L 169.98 111.00 C 169.98 112.97 169.98 114.94 169.95 116.90 C 169.24 117.58 168.55 118.27 167.87 118.97 C 163.76 116.84 162.20 120.37 162.94 124.05 L 162.89 125.00 C 162.42 125.12 161.49 125.36 161.02 125.48 C 155.70 124.58 153.56 126.79 154.58 132.10 C 154.40 132.36 154.05 132.87 153.87 133.13 C 149.79 132.43 146.71 134.48 147.92 138.98 L 146.98 139.00 L 146.05 138.98 C 145.93 137.70 145.81 136.42 145.68 135.14 C 145.96 133.56 146.55 132.07 147.56 130.81 C 153.31 132.67 155.47 130.76 154.05 125.09 L 154.93 125.07 C 159.40 126.22 162.29 123.30 160.87 118.87 C 161.68 116.50 163.76 115.79 167.12 116.73 C 170.33 116.52 168.31 112.90 168.01 111.00 Z" />
</g>
<g id="#f9f8f8ff">
<path fill="#f9f8f8" opacity="1.00" d=" M 169.98 111.00 C 172.03 110.99 174.07 110.98 176.12 111.02 C 177.11 115.41 174.34 118.24 169.95 116.90 C 169.98 114.94 169.98 112.97 169.98 111.00 Z" />
</g>
<g id="#eab9fdff">
<path fill="#eab9fd" opacity="1.00" d=" M 176.12 111.02 L 177.10 111.02 C 182.51 123.10 164.21 112.76 168.91 124.96 C 166.90 125.07 164.89 125.02 162.89 125.00 L 162.94 124.05 C 167.13 124.95 169.01 123.17 167.87 118.97 C 168.55 118.27 169.24 117.58 169.95 116.90 C 174.34 118.24 177.11 115.41 176.12 111.02 Z" />
</g>
<g id="#d04bf5ff">
<path fill="#d04bf5" opacity="1.00" d=" M 177.10 111.02 L 178.07 111.02 C 178.11 113.61 178.04 116.20 177.86 118.79 C 174.39 119.57 168.85 118.40 170.66 124.80 C 170.22 124.84 169.34 124.92 168.91 124.96 C 164.21 112.76 182.51 123.10 177.10 111.02 Z" />
</g>
<g id="#d10bfcff">
<path fill="#d10bfc" opacity="1.00" d=" M 178.07 111.02 C 182.07 110.98 186.07 110.98 190.08 111.02 C 190.70 114.34 189.58 117.47 185.76 116.58 C 181.18 116.26 183.48 122.12 182.48 125.12 C 180.93 125.00 179.37 124.92 177.82 124.89 C 172.19 124.76 178.43 135.47 170.46 132.48 C 164.37 133.93 161.19 131.20 162.89 125.00 C 164.89 125.02 166.90 125.07 168.91 124.96 C 169.34 124.92 170.22 124.84 170.66 124.80 C 168.85 118.40 174.39 119.57 177.86 118.79 C 178.04 116.20 178.11 113.61 178.07 111.02 Z" />
</g>
<g id="#cb86f5ff">
<path fill="#cb86f5" opacity="1.00" d=" M 190.08 111.02 C 190.55 111.01 191.49 111.01 191.96 111.01 C 188.24 120.78 200.71 117.89 198.19 110.99 L 199.16 110.98 C 199.33 113.05 199.37 115.13 199.52 117.20 C 198.97 117.75 198.43 118.31 197.90 118.88 C 192.55 117.56 190.53 119.59 191.84 124.95 C 190.46 124.92 189.09 124.90 187.72 124.90 C 192.99 124.89 192.85 113.75 186.09 118.02 C 182.68 118.27 183.39 123.61 185.75 125.22 C 185.28 127.15 184.90 129.10 184.50 131.05 C 183.96 132.01 183.48 133.01 182.95 133.98 C 178.89 132.10 175.74 134.34 176.89 138.96 C 174.32 139.43 170.46 137.85 168.75 139.82 C 170.59 143.79 166.40 150.23 163.49 145.59 C 165.35 138.12 158.78 138.80 154.03 138.96 C 153.98 137.01 153.93 135.07 153.87 133.13 C 154.05 132.87 154.40 132.36 154.58 132.10 C 159.64 135.04 163.79 130.39 161.02 125.48 C 161.49 125.36 162.42 125.12 162.89 125.00 C 161.19 131.20 164.37 133.93 170.46 132.48 C 178.43 135.47 172.19 124.76 177.82 124.89 C 177.72 127.26 175.58 130.51 178.30 131.86 C 185.75 135.48 182.46 128.58 182.48 125.12 C 183.48 122.12 181.18 116.26 185.76 116.58 C 189.58 117.47 190.70 114.34 190.08 111.02 Z" />
</g>
<g id="#f6f4f9ff">
<path fill="#f6f4f9" opacity="1.00" d=" M 191.96 111.01 C 194.03 110.97 196.11 110.96 198.19 110.99 C 200.71 117.89 188.24 120.78 191.96 111.01 Z" />
</g>
<g id="#762cfaff">
<path fill="#762cfa" opacity="1.00" d=" M 199.16 110.98 C 200.88 110.98 204.32 110.98 206.04 110.98 C 208.36 117.64 204.95 119.65 199.52 117.20 C 199.37 115.13 199.33 113.05 199.16 110.98 Z" />
</g>
<g id="#0b9bfcff">
<path fill="#0b9bfc" opacity="1.00" d=" M 206.04 110.98 C 208.06 110.97 210.08 111.02 212.10 111.15 C 212.03 115.74 211.96 120.33 212.02 124.93 C 210.48 126.19 207.40 128.71 205.86 129.97 C 205.33 132.76 201.63 131.04 199.66 131.75 C 196.04 131.68 198.49 136.58 197.99 138.99 L 197.96 140.00 L 196.98 140.02 C 195.36 139.99 193.73 139.94 192.11 139.87 C 189.39 139.51 186.66 139.20 183.94 138.95 C 182.61 134.22 186.37 133.06 190.17 132.30 C 193.06 130.79 190.46 127.34 191.84 124.95 C 197.52 126.56 199.54 124.53 197.90 118.88 C 198.43 118.31 198.97 117.75 199.52 117.20 C 204.95 119.65 208.36 117.64 206.04 110.98 Z" />
</g>
<g id="#65a1e3ff">
<path fill="#65a1e3" opacity="1.00" d=" M 212.10 111.15 L 213.20 111.22 C 213.49 116.10 213.35 121.00 213.13 125.88 L 212.07 125.96 L 212.02 124.93 C 211.96 120.33 212.03 115.74 212.10 111.15 Z" />
</g>
<g id="#4a7f0aff">
<path fill="#4a7f0a" opacity="1.00" d=" M 80.90 118.93 C 80.84 117.86 80.77 116.78 80.78 115.70 C 83.53 118.04 84.84 117.18 88.20 117.04 C 88.44 119.66 88.48 122.29 88.85 124.90 C 88.40 124.93 87.52 124.99 87.07 125.02 C 88.51 119.49 86.46 117.46 80.90 118.93 Z" />
</g>
<g id="#985fbdff">
<path fill="#985fbd" opacity="1.00" d=" M 61.21 117.29 C 62.39 117.21 63.58 117.16 64.77 117.14 C 75.39 114.54 72.59 124.90 74.33 131.23 C 74.25 132.55 73.54 133.26 72.22 133.37 C 70.35 133.17 68.47 132.96 66.68 132.38 C 72.37 134.73 75.53 129.85 72.33 125.66 C 65.73 121.07 66.78 128.42 66.68 132.38 C 65.52 130.20 67.64 124.73 64.08 124.94 C 59.95 124.83 55.83 124.75 51.71 124.69 C 55.77 121.62 68.95 128.35 66.93 120.20 C 64.65 118.39 61.48 119.02 58.78 118.36 C 59.38 118.10 60.60 117.56 61.21 117.29 Z" />
</g>
<g id="#6a3f85ff">
<path fill="#6a3f85" opacity="1.00" d=" M 64.77 117.14 C 68.15 117.00 71.52 116.94 74.90 117.06 C 75.30 121.77 75.08 126.55 74.33 131.23 C 72.59 124.90 75.39 114.54 64.77 117.14 Z" />
</g>
<g id="#c07aebff">
<path fill="#c07aeb" opacity="1.00" d=" M 44.04 124.02 C 41.38 113.96 53.98 119.16 58.78 118.36 C 61.48 119.02 64.65 118.39 66.93 120.20 C 68.95 128.35 55.77 121.62 51.71 124.69 C 47.70 131.11 57.83 152.01 43.92 147.11 C 42.64 143.83 44.41 137.74 38.08 139.69 C 37.88 137.30 37.93 134.92 38.23 132.53 C 41.93 131.20 46.62 129.58 44.04 124.02 Z" />
</g>
<g id="#fb3515ff">
<path fill="#fb3515" opacity="1.00" d=" M 154.93 125.07 C 151.66 120.62 156.68 117.28 160.87 118.87 C 162.29 123.30 159.40 126.22 154.93 125.07 Z" />
</g>
<g id="#fdfcfbff">
<path fill="#fdfcfb" opacity="1.00" d=" M 162.94 124.05 C 162.20 120.37 163.76 116.84 167.87 118.97 C 169.01 123.17 167.13 124.95 162.94 124.05 Z" />
</g>
<g id="#f7f0fbff">
<path fill="#f7f0fb" opacity="1.00" d=" M 185.75 125.22 C 183.39 123.61 182.68 118.27 186.09 118.02 C 192.85 113.75 192.99 124.89 187.72 124.90 C 187.23 124.98 186.25 125.14 185.75 125.22 Z" />
</g>
<g id="#040308ff">
<path fill="#040308" opacity="1.00" d=" M 30.01 118.96 C 31.64 118.86 33.28 118.90 34.90 119.07 C 35.28 128.29 35.01 137.54 34.94 146.78 C 26.54 148.58 29.33 139.62 29.30 134.19 C 29.58 129.11 29.40 124.01 30.01 118.96 Z" />
</g>
<g id="#050507ff">
<path fill="#050507" opacity="1.00" d=" M 80.90 118.93 C 86.46 117.46 88.51 119.49 87.07 125.02 C 87.01 129.68 87.05 134.33 86.93 138.99 C 75.30 141.87 83.43 125.06 80.90 118.93 Z" />
</g>
<g id="#7614feff">
<path fill="#7614fe" opacity="1.00" d=" M 191.84 124.95 C 190.53 119.59 192.55 117.56 197.90 118.88 C 199.54 124.53 197.52 126.56 191.84 124.95 Z" />
</g>
<g id="#976563ff">
<path fill="#976563" opacity="1.00" d=" M 0.00 154.09 C 16.54 156.24 0.26 130.12 8.93 125.01 L 8.82 125.83 C 7.16 135.08 8.53 144.50 7.89 153.81 C 6.99 154.40 6.02 154.85 4.99 155.18 C 3.33 155.10 1.66 155.04 0.00 154.99 L 0.00 154.09 Z" />
</g>
<g id="#9b61bfff">
<path fill="#9b61bf" opacity="1.00" d=" M 43.92 147.11 C 57.83 152.01 47.70 131.11 51.71 124.69 C 52.05 131.48 51.86 138.28 51.97 145.08 C 52.95 149.47 61.87 147.01 66.15 146.19 C 64.85 151.74 52.33 143.83 51.95 151.01 C 51.17 153.54 54.23 153.55 55.83 154.29 C 60.91 154.73 57.32 164.89 64.80 161.00 C 66.15 158.98 66.50 156.53 67.36 154.30 C 69.99 154.35 72.62 154.40 75.24 154.17 L 74.59 154.64 C 72.57 155.10 73.34 157.15 73.32 158.64 C 74.03 166.39 61.21 160.01 56.99 162.03 C 48.63 165.56 53.72 157.09 50.12 154.88 C 47.82 153.32 43.30 155.34 43.94 151.33 C 44.35 149.93 44.35 148.50 43.92 147.11 Z" />
</g>
<g id="#34213dff">
<path fill="#34213d" opacity="1.00" d=" M 51.71 124.69 C 55.83 124.75 59.95 124.83 64.08 124.94 L 64.23 125.79 C 61.44 125.87 55.88 126.04 53.09 126.12 C 52.89 132.49 53.06 138.86 52.85 145.23 L 51.97 145.08 C 51.86 138.28 52.05 131.48 51.71 124.69 Z" />
</g>
<g id="#593770ff">
<path fill="#593770" opacity="1.00" d=" M 64.08 124.94 C 67.64 124.73 65.52 130.20 66.68 132.38 C 68.47 132.96 70.35 133.17 72.22 133.37 C 69.58 134.02 65.27 133.00 66.23 136.77 C 65.18 141.43 72.77 136.98 74.14 139.90 C 73.61 139.90 72.56 139.91 72.03 139.92 C 67.32 138.76 66.17 141.88 66.15 146.19 C 61.87 147.01 52.95 149.47 51.97 145.08 L 52.85 145.23 C 57.23 146.80 69.31 147.81 64.22 139.91 C 55.31 140.57 58.56 131.68 64.25 131.15 C 64.25 129.81 64.23 127.13 64.23 125.79 L 64.08 124.94 Z" />
</g>
<g id="#c87ff4ff">
<path fill="#c87ff4" opacity="1.00" d=" M 66.68 132.38 C 66.78 128.42 65.73 121.07 72.33 125.66 C 75.53 129.85 72.37 134.73 66.68 132.38 Z" />
</g>
<g id="#8551a3ff">
<path fill="#8551a3" opacity="1.00" d=" M 88.85 124.90 C 90.91 124.97 92.98 125.03 95.06 125.07 C 95.19 126.58 95.44 129.59 95.57 131.10 C 96.38 134.37 100.45 132.55 102.99 133.02 C 100.29 138.27 103.66 141.11 109.68 140.35 C 110.02 141.75 110.72 144.55 111.06 145.95 C 110.72 146.18 110.05 146.65 109.72 146.88 C 108.06 146.91 104.74 146.97 103.08 147.00 C 102.07 143.18 101.35 138.40 96.15 139.88 C 95.86 139.63 95.30 139.15 95.02 138.90 C 98.56 131.42 90.05 135.51 87.93 130.86 C 87.88 128.83 88.23 126.82 88.85 124.90 Z" />
</g>
<g id="#a2a868ff">
<path fill="#a2a868" opacity="1.00" d=" M 95.06 125.07 L 95.81 125.05 C 96.61 127.01 96.36 129.18 95.57 131.10 C 95.44 129.59 95.19 126.58 95.06 125.07 Z" />
</g>
<g id="#fd2f0dff">
<path fill="#fd2f0d" opacity="1.00" d=" M 147.56 130.81 C 147.52 126.72 147.93 122.44 154.05 125.09 C 155.47 130.76 153.31 132.67 147.56 130.81 Z" />
</g>
<g id="#f5eefaff">
<path fill="#f5eefa" opacity="1.00" d=" M 177.82 124.89 C 179.37 124.92 180.93 125.00 182.48 125.12 C 182.46 128.58 185.75 135.48 178.30 131.86 C 175.58 130.51 177.72 127.26 177.82 124.89 Z" />
</g>
<g id="#7226fdff">
<path fill="#7226fd" opacity="1.00" d=" M 185.75 125.22 C 186.25 125.14 187.23 124.98 187.72 124.90 C 189.09 124.90 190.46 124.92 191.84 124.95 C 190.46 127.34 193.06 130.79 190.17 132.30 C 188.23 132.14 186.30 131.82 184.50 131.05 C 184.90 129.10 185.28 127.15 185.75 125.22 Z" />
</g>
<g id="#03f5c1ff">
<path fill="#03f5c1" opacity="1.00" d=" M 205.86 129.97 C 207.40 128.71 210.48 126.19 212.02 124.93 L 212.07 125.96 C 211.88 132.32 215.11 142.45 204.95 139.01 C 202.96 138.98 200.98 138.99 199.00 139.01 L 197.99 138.99 C 198.49 136.58 196.04 131.68 199.66 131.75 C 201.63 131.04 205.33 132.76 205.86 129.97 Z" />
</g>
<g id="#1b1838ff">
<path fill="#1b1838" opacity="1.00" d=" M 7.89 153.81 C 8.53 144.50 7.16 135.08 8.82 125.83 C 11.05 134.47 5.39 147.63 10.84 154.41 C 14.60 155.26 13.48 160.00 16.26 161.82 C 22.78 161.16 29.34 161.52 35.88 162.16 C 35.30 169.21 39.80 175.60 37.74 183.24 C 35.87 178.89 38.85 168.08 31.19 169.01 C 29.39 172.48 29.18 177.59 23.93 177.04 C 21.66 176.95 20.62 178.78 21.23 180.83 C 20.64 187.00 13.02 182.29 9.29 183.27 C 6.72 184.85 7.09 188.36 5.90 190.88 C 3.92 190.60 1.97 190.14 0.00 189.80 L 0.00 169.15 C 9.02 172.73 9.85 158.75 4.99 155.18 C 6.02 154.85 6.99 154.40 7.89 153.81 Z" />
</g>
<g id="#030206ff">
<path fill="#030206" opacity="1.00" d=" M 8.82 125.83 C 20.77 122.72 12.67 138.11 14.15 144.23 C 14.03 145.60 14.59 146.89 14.95 148.18 C 15.65 151.35 14.68 154.61 10.84 154.41 C 5.39 147.63 11.05 134.47 8.82 125.83 Z" />
</g>
<g id="#060408ff">
<path fill="#060408" opacity="1.00" d=" M 53.09 126.12 C 55.88 126.04 61.44 125.87 64.23 125.79 C 64.23 127.13 64.25 129.81 64.25 131.15 C 55.74 127.10 54.82 145.07 64.22 139.91 C 69.31 147.81 57.23 146.80 52.85 145.23 C 53.06 138.86 52.89 132.49 53.09 126.12 Z" />
<path fill="#060408" opacity="1.00" d=" M 0.00 154.99 C 1.66 155.04 3.33 155.10 4.99 155.18 C 9.85 158.75 9.02 172.73 0.00 169.15 L 0.00 154.99 Z" />
<path fill="#060408" opacity="1.00" d=" M 227.92 236.09 C 229.76 236.00 233.44 235.82 235.29 235.73 C 235.14 240.47 235.03 245.24 234.97 250.00 L 228.82 250.00 C 227.22 245.55 228.29 240.69 227.92 236.09 Z" />
</g>
<g id="#f7effaff">
<path fill="#f7effa" opacity="1.00" d=" M 154.58 132.10 C 153.56 126.79 155.70 124.58 161.02 125.48 C 163.79 130.39 159.64 135.04 154.58 132.10 Z" />
</g>
<g id="#6de6a8ff">
<path fill="#6de6a8" opacity="1.00" d=" M 212.07 125.96 L 213.13 125.88 C 213.71 130.04 213.45 134.25 213.52 138.44 C 212.29 141.28 208.64 139.60 206.16 140.00 L 205.17 139.92 L 204.95 139.01 C 215.11 142.45 211.88 132.32 212.07 125.96 Z" />
</g>
<g id="#301f3cff">
<path fill="#301f3c" opacity="1.00" d=" M 64.22 139.91 C 54.82 145.07 55.74 127.10 64.25 131.15 C 58.56 131.68 55.31 140.57 64.22 139.91 Z" />
</g>
<g id="#553369ff">
<path fill="#553369" opacity="1.00" d=" M 87.93 130.86 C 90.05 135.51 98.56 131.42 95.02 138.90 C 88.66 140.39 85.78 137.99 87.93 130.86 Z" />
</g>
<g id="#e2a978ff">
<path fill="#e2a978" opacity="1.00" d=" M 95.57 131.10 C 98.01 131.55 100.51 131.62 102.93 131.00 C 105.86 131.25 109.53 130.06 111.29 133.04 C 111.08 135.08 110.90 137.14 110.77 139.20 C 110.86 134.05 108.21 131.30 102.99 133.02 C 100.45 132.55 96.38 134.37 95.57 131.10 Z" />
</g>
<g id="#5372f6ff">
<path fill="#5372f6" opacity="1.00" d=" M 182.95 133.98 C 183.48 133.01 183.96 132.01 184.50 131.05 C 186.30 131.82 188.23 132.14 190.17 132.30 C 186.37 133.06 182.61 134.22 183.94 138.95 L 182.98 138.94 C 182.96 137.28 182.96 135.63 182.95 133.98 Z" />
</g>
<g id="#fc3b08ff">
<path fill="#fc3b08" opacity="1.00" d=" M 139.95 138.99 C 135.84 134.01 145.68 129.32 145.68 135.14 C 145.81 136.42 145.93 137.70 146.05 138.98 C 144.01 138.99 141.98 138.99 139.95 138.99 Z" />
</g>
<g id="#f99995ff">
<path fill="#f99995" opacity="1.00" d=" M 220.32 132.32 C 230.20 132.69 240.20 132.06 250.00 133.83 L 250.00 161.99 C 240.02 161.73 229.91 162.80 220.01 161.19 C 217.97 161.13 215.95 161.42 213.97 161.83 C 213.82 160.84 213.68 159.84 213.54 158.85 C 215.15 154.33 210.95 152.52 207.18 153.88 C 205.68 149.36 206.95 144.60 206.16 140.00 C 208.64 139.60 212.29 141.28 213.52 138.44 C 215.24 135.24 214.90 131.01 220.32 132.32 Z" />
</g>
<g id="#b472ddff">
<path fill="#b472dd" opacity="1.00" d=" M 102.99 133.02 C 108.21 131.30 110.86 134.05 110.77 139.20 C 115.22 140.61 120.28 139.81 125.01 140.04 C 128.31 149.30 116.61 146.48 111.06 145.95 C 110.72 144.55 110.02 141.75 109.68 140.35 C 103.66 141.11 100.29 138.27 102.99 133.02 Z" />
</g>
<g id="#f9f8f7ff">
<path fill="#f9f8f7" opacity="1.00" d=" M 147.92 138.98 C 146.71 134.48 149.79 132.43 153.87 133.13 C 153.93 135.07 153.98 137.01 154.03 138.96 C 151.99 138.98 149.95 138.99 147.92 138.98 Z" />
</g>
<g id="#7c0bfdff">
<path fill="#7c0bfd" opacity="1.00" d=" M 176.89 138.96 C 175.74 134.34 178.89 132.10 182.95 133.98 C 182.96 135.63 182.96 137.28 182.98 138.94 C 180.95 138.97 178.92 138.98 176.89 138.96 Z" />
</g>
<g id="#de7760ff">
<path fill="#de7760" opacity="1.00" d=" M 110.77 139.20 C 115.48 139.04 120.19 139.02 124.90 138.97 C 129.60 139.02 134.29 139.00 139.00 139.02 L 138.96 140.00 C 134.31 140.00 129.66 139.97 125.01 140.04 C 120.28 139.81 115.22 140.61 110.77 139.20 Z" />
</g>
<g id="#6a3246ff">
<path fill="#6a3246" opacity="1.00" d=" M 139.00 139.02 L 139.95 138.99 C 141.98 138.99 144.01 138.99 146.05 138.98 L 146.98 139.00 L 147.00 139.95 C 135.87 136.13 141.08 148.30 139.70 154.42 C 139.36 151.94 139.10 149.46 138.91 146.98 C 138.92 145.23 138.95 141.74 138.96 140.00 L 139.00 139.02 Z" />
</g>
<g id="#8857a3ff">
<path fill="#8857a3" opacity="1.00" d=" M 146.98 139.00 L 147.92 138.98 C 149.95 138.99 151.99 138.98 154.03 138.96 C 158.78 138.80 165.35 138.12 163.49 145.59 C 166.40 150.23 170.59 143.79 168.75 139.82 L 168.78 140.78 C 168.85 144.60 169.05 148.44 169.21 152.26 C 169.09 152.79 168.84 153.84 168.72 154.36 C 167.11 154.34 163.89 154.30 162.29 154.28 C 160.72 150.68 163.35 142.29 159.94 140.04 C 155.62 139.88 151.31 139.98 147.00 139.95 L 146.98 139.00 Z" />
</g>
<g id="#5f3d80ff">
<path fill="#5f3d80" opacity="1.00" d=" M 168.75 139.82 C 170.46 137.85 174.32 139.43 176.89 138.96 C 178.92 138.98 180.95 138.97 182.98 138.94 L 183.94 138.95 C 186.66 139.20 189.39 139.51 192.11 139.87 C 192.01 144.32 191.97 148.78 191.86 153.24 C 184.77 155.84 176.26 154.87 168.72 154.36 C 179.76 158.31 173.73 149.39 178.32 146.14 C 188.91 141.45 178.05 158.45 188.71 153.94 C 191.64 150.32 189.69 144.55 189.91 140.04 C 183.19 139.82 176.42 139.78 169.74 140.68 L 168.78 140.78 L 168.75 139.82 Z" />
</g>
<g id="#815aa8ff">
<path fill="#815aa8" opacity="1.00" d=" M 197.99 138.99 L 199.00 139.01 C 198.99 143.99 198.99 148.98 199.01 153.96 C 196.61 151.20 198.44 144.50 197.96 140.00 L 197.99 138.99 Z" />
</g>
<g id="#384565ff">
<path fill="#384565" opacity="1.00" d=" M 199.00 139.01 C 200.98 138.99 202.96 138.98 204.95 139.01 L 205.17 139.92 C 196.90 138.46 200.61 148.88 199.98 153.98 L 199.01 153.96 C 198.99 148.98 198.99 143.99 199.00 139.01 Z" />
</g>
<g id="#c57df0ff">
<path fill="#c57df0" opacity="1.00" d=" M 66.15 146.19 C 66.17 141.88 67.32 138.76 72.03 139.92 C 71.82 145.88 75.44 149.07 81.24 149.10 C 81.52 153.06 80.40 155.77 75.24 154.17 C 72.62 154.40 69.99 154.35 67.36 154.30 C 66.50 156.53 66.15 158.98 64.80 161.00 C 57.32 164.89 60.91 154.73 55.83 154.29 C 54.23 153.55 51.17 153.54 51.95 151.01 C 52.33 143.83 64.85 151.74 66.15 146.19 Z" />
</g>
<g id="#8757afff">
<path fill="#8757af" opacity="1.00" d=" M 72.03 139.92 C 72.56 139.91 73.61 139.90 74.14 139.90 C 73.95 143.38 74.31 147.29 79.04 145.99 C 80.23 146.41 81.38 146.95 82.46 147.62 C 82.15 147.99 81.55 148.73 81.24 149.10 C 75.44 149.07 71.82 145.88 72.03 139.92 Z" />
</g>
<g id="#322d6aff">
<path fill="#322d6a" opacity="1.00" d=" M 79.04 145.99 C 81.35 144.79 79.35 139.65 82.18 140.04 C 89.03 136.89 86.42 143.70 88.20 146.70 C 92.65 146.60 97.84 147.70 94.93 153.79 C 91.60 155.50 86.13 153.86 85.51 158.65 C 80.95 158.39 90.04 148.86 82.46 147.62 C 81.38 146.95 80.23 146.41 79.04 145.99 Z" />
</g>
<g id="#06050aff">
<path fill="#06050a" opacity="1.00" d=" M 90.25 140.11 C 96.95 135.06 96.96 147.11 92.00 146.04 C 88.62 146.78 87.85 141.57 90.25 140.11 Z" />
</g>
<g id="#55336bff">
<path fill="#55336b" opacity="1.00" d=" M 96.15 139.88 C 101.35 138.40 102.07 143.18 103.08 147.00 C 97.58 147.85 93.24 147.26 96.15 139.88 Z" />
</g>
<g id="#9f65c6ff">
<path fill="#9f65c6" opacity="1.00" d=" M 125.01 140.04 C 129.66 139.97 134.31 140.00 138.96 140.00 C 138.95 141.74 138.92 145.23 138.91 146.98 C 131.97 146.79 125.06 147.48 118.15 147.88 C 115.33 147.50 112.54 147.10 109.72 146.88 C 110.05 146.65 110.72 146.18 111.06 145.95 C 116.61 146.48 128.31 149.30 125.01 140.04 Z" />
</g>
<g id="#08050aff">
<path fill="#08050a" opacity="1.00" d=" M 139.70 154.42 C 141.08 148.30 135.87 136.13 147.00 139.95 C 151.31 139.98 155.62 139.88 159.94 140.04 C 159.98 144.72 160.48 149.42 160.25 154.11 C 158.18 154.03 156.11 153.97 154.05 153.94 C 154.32 150.53 155.09 146.32 150.88 146.06 C 143.72 144.53 149.26 158.88 139.70 154.42 Z" />
</g>
<g id="#402650ff">
<path fill="#402650" opacity="1.00" d=" M 159.94 140.04 C 163.35 142.29 160.72 150.68 162.29 154.28 C 161.78 154.24 160.76 154.15 160.25 154.11 C 160.48 149.42 159.98 144.72 159.94 140.04 Z" />
</g>
<g id="#0b070fff">
<path fill="#0b070f" opacity="1.00" d=" M 169.74 140.68 C 176.42 139.78 183.19 139.82 189.91 140.04 C 189.69 144.55 191.64 150.32 188.71 153.94 C 178.05 158.45 188.91 141.45 178.32 146.14 C 173.73 149.39 179.76 158.31 168.72 154.36 C 168.84 153.84 169.09 152.79 169.21 152.26 C 170.60 148.52 171.69 144.42 169.74 140.68 Z" />
</g>
<g id="#ce83fbff">
<path fill="#ce83fb" opacity="1.00" d=" M 192.11 139.87 C 193.73 139.94 195.36 139.99 196.98 140.02 C 195.45 144.40 201.18 157.56 191.86 153.24 C 191.97 148.78 192.01 144.32 192.11 139.87 Z" />
</g>
<g id="#b975e2ff">
<path fill="#b975e2" opacity="1.00" d=" M 196.98 140.02 L 197.96 140.00 C 198.44 144.50 196.61 151.20 199.01 153.96 L 199.98 153.98 C 201.41 153.98 202.85 153.95 204.29 153.88 C 206.54 155.62 205.81 158.58 206.03 161.16 L 205.78 162.10 C 186.90 159.91 167.44 160.71 148.72 162.14 C 151.40 160.95 156.31 161.35 154.16 156.14 C 154.55 153.12 160.05 155.67 162.29 154.28 C 163.89 154.30 167.11 154.34 168.72 154.36 C 176.26 154.87 184.77 155.84 191.86 153.24 C 201.18 157.56 195.45 144.40 196.98 140.02 Z" />
</g>
<g id="#110b0eff">
<path fill="#110b0e" opacity="1.00" d=" M 199.98 153.98 C 200.61 148.88 196.90 138.46 205.17 139.92 C 204.82 144.55 205.53 149.35 204.29 153.88 C 202.85 153.95 201.41 153.98 199.98 153.98 Z" />
</g>
<g id="#6c474fff">
<path fill="#6c474f" opacity="1.00" d=" M 205.17 139.92 L 206.16 140.00 C 206.95 144.60 205.68 149.36 207.18 153.88 C 210.95 152.52 215.15 154.33 213.54 158.85 C 212.77 162.23 208.58 161.33 206.03 161.16 C 205.81 158.58 206.54 155.62 204.29 153.88 C 205.53 149.35 204.82 144.55 205.17 139.92 M 207.00 155.00 L 207.00 160.00 L 212.00 160.00 L 212.00 155.00 L 207.00 155.00 Z" />
</g>
<g id="#3a2448ff">
<path fill="#3a2448" opacity="1.00" d=" M 168.78 140.78 L 169.74 140.68 C 171.69 144.42 170.60 148.52 169.21 152.26 C 169.05 148.44 168.85 144.60 168.78 140.78 Z" />
</g>
<g id="#4e2e61ff">
<path fill="#4e2e61" opacity="1.00" d=" M 139.70 154.42 C 149.26 158.88 143.72 144.53 150.88 146.06 C 155.09 146.32 154.32 150.53 154.05 153.94 C 149.34 153.36 144.29 155.98 139.70 154.42 Z" />
</g>
<g id="#6e4287ff">
<path fill="#6e4287" opacity="1.00" d=" M 109.72 146.88 C 112.54 147.10 115.33 147.50 118.15 147.88 C 117.39 147.89 115.89 147.92 115.13 147.94 C 113.44 147.94 111.75 147.94 110.07 147.90 L 109.72 146.88 Z" />
</g>
<g id="#8b56adff">
<path fill="#8b56ad" opacity="1.00" d=" M 118.15 147.88 C 125.06 147.48 131.97 146.79 138.91 146.98 C 139.10 149.46 139.36 151.94 139.70 154.42 C 144.29 155.98 149.34 153.36 154.05 153.94 C 156.11 153.97 158.18 154.03 160.25 154.11 C 160.76 154.15 161.78 154.24 162.29 154.28 C 160.05 155.67 154.55 153.12 154.16 156.14 C 156.31 161.35 151.40 160.95 148.72 162.14 C 144.91 161.49 141.05 161.61 137.21 161.77 C 131.91 161.42 131.53 153.89 126.24 155.00 C 131.07 166.01 116.31 159.14 118.31 168.34 C 117.95 168.48 117.23 168.76 116.88 168.90 C 112.14 158.95 125.17 164.88 125.04 159.02 C 129.51 148.87 112.51 159.00 118.15 147.88 Z" />
</g>
<g id="#121026ff">
<path fill="#121026" opacity="1.00" d=" M 14.95 148.18 C 17.17 148.79 19.78 147.98 21.78 149.20 C 23.54 152.42 24.56 156.72 29.98 154.07 C 37.82 157.15 34.24 150.57 36.66 147.75 C 40.10 147.45 43.32 147.62 43.94 151.33 C 43.30 155.34 47.82 153.32 50.12 154.88 C 50.33 157.62 50.19 160.41 50.88 163.09 C 51.53 167.18 53.60 171.33 58.99 169.02 C 60.85 180.93 47.55 172.01 44.04 178.01 C 46.73 184.72 41.71 184.61 37.74 183.24 C 39.80 175.60 35.30 169.21 35.88 162.16 C 29.34 161.52 22.78 161.16 16.26 161.82 C 13.48 160.00 14.60 155.26 10.84 154.41 C 14.68 154.61 15.65 151.35 14.95 148.18 Z" />
<path fill="#121026" opacity="1.00" d=" M 122.16 206.31 C 123.09 206.45 124.01 206.64 124.93 206.85 C 124.95 208.21 124.98 209.57 125.01 210.93 C 123.80 216.36 131.09 213.12 134.28 214.63 C 128.22 212.59 120.68 215.98 126.20 221.87 C 135.43 220.72 144.72 221.23 153.99 221.16 C 159.20 233.98 136.54 220.76 139.51 233.59 C 138.87 235.95 136.29 236.40 134.20 235.96 C 132.65 233.17 132.92 227.85 128.95 227.27 C 122.95 229.62 126.41 217.68 119.11 221.00 C 116.39 221.05 113.69 221.03 110.98 220.95 C 111.23 218.02 109.66 213.55 113.86 213.74 C 119.37 213.86 116.52 205.84 122.16 206.31 Z" />
</g>
<g id="#050308ff">
<path fill="#050308" opacity="1.00" d=" M 96.01 153.94 C 92.42 143.75 105.04 149.41 110.07 147.90 C 111.75 147.94 113.44 147.94 115.13 147.94 C 119.81 159.39 102.08 152.04 96.01 153.94 Z" />
</g>
<g id="#0c0a17ff">
<path fill="#0c0a17" opacity="1.00" d=" M 74.59 154.64 C 76.20 154.78 79.43 155.05 81.04 155.18 C 83.86 164.22 72.06 161.57 74.59 154.64 Z" />
</g>
<g id="#07060eff">
<path fill="#07060e" opacity="1.00" d=" M 119.25 155.11 L 123.99 154.98 C 128.60 164.40 112.72 160.44 119.25 155.11 Z" />
</g>
<g id="#a86acfff">
<path fill="#a86acf" opacity="1.00" d=" M 126.24 155.00 C 131.53 153.89 131.91 161.42 137.21 161.77 C 130.45 160.44 128.50 167.87 123.87 170.88 C 119.87 172.48 123.25 174.56 124.84 176.20 L 125.01 177.05 C 125.02 179.04 125.03 181.03 125.07 183.02 L 125.07 184.02 C 125.22 187.97 123.75 193.49 118.94 190.10 C 116.60 185.37 119.32 175.53 110.96 175.98 C 110.53 171.41 110.11 166.68 116.88 168.90 C 117.23 168.76 117.95 168.48 118.31 168.34 C 116.31 159.14 131.07 166.01 126.24 155.00 Z" />
</g>
<g id="#070406ff">
<path fill="#070406" opacity="1.00" d=" M 207.00 155.00 L 212.00 155.00 L 212.00 160.00 L 207.00 160.00 L 207.00 155.00 Z" />
</g>
<g id="#8c58a5ff">
<path fill="#8c58a5" opacity="1.00" d=" M 213.54 158.85 C 213.68 159.84 213.82 160.84 213.97 161.83 C 214.00 168.95 213.76 176.10 214.77 183.17 L 214.64 183.94 C 214.20 185.74 213.87 187.56 213.57 189.38 L 213.08 188.78 C 212.64 185.99 214.41 180.54 208.02 183.98 C 204.45 183.48 206.09 188.68 205.81 190.99 C 200.83 191.36 198.70 187.84 196.98 184.03 C 199.70 183.84 202.76 184.77 205.19 183.24 C 205.48 181.61 206.05 178.34 206.34 176.71 C 202.49 183.35 215.26 187.02 212.50 178.42 C 212.23 172.59 215.56 160.74 205.78 162.10 L 206.03 161.16 C 208.58 161.33 212.77 162.23 213.54 158.85 Z" />
</g>
<g id="#cb82f9ff">
<path fill="#cb82f9" opacity="1.00" d=" M 137.21 161.77 C 141.05 161.61 144.91 161.49 148.72 162.14 C 167.44 160.71 186.90 159.91 205.78 162.10 C 215.56 160.74 212.23 172.59 212.50 178.42 C 215.26 187.02 202.49 183.35 206.34 176.71 C 179.30 175.14 151.98 176.25 124.84 176.20 C 123.25 174.56 119.87 172.48 123.87 170.88 C 128.50 167.87 130.45 160.44 137.21 161.77 Z" />
</g>
<g id="#65404eff">
<path fill="#65404e" opacity="1.00" d=" M 213.97 161.83 C 215.95 161.42 217.97 161.13 220.01 161.19 C 223.53 166.96 219.96 174.30 221.49 180.65 C 222.14 184.64 217.40 184.97 214.64 183.94 L 214.77 183.17 C 225.43 184.91 217.83 168.99 219.93 163.01 C 210.16 161.71 216.69 176.34 214.77 183.17 C 213.76 176.10 214.00 168.95 213.97 161.83 Z" />
</g>
<g id="#f98b86ff">
<path fill="#f98b86" opacity="1.00" d=" M 220.01 161.19 C 229.91 162.80 240.02 161.73 250.00 161.99 L 250.00 191.99 C 240.36 191.74 230.74 192.30 221.11 192.45 C 218.33 192.56 215.15 191.90 213.57 189.38 C 213.87 187.56 214.20 185.74 214.64 183.94 C 217.40 184.97 222.14 184.64 221.49 180.65 C 219.96 174.30 223.53 166.96 220.01 161.19 Z" />
</g>
<g id="#06040bff">
<path fill="#06040b" opacity="1.00" d=" M 110.00 167.97 C 109.62 164.53 110.26 159.21 115.98 161.98 C 117.67 167.58 115.68 169.57 110.00 167.97 Z" />
</g>
<g id="#040309ff">
<path fill="#040309" opacity="1.00" d=" M 50.88 163.09 C 58.26 162.99 65.64 162.87 73.02 163.07 C 72.80 164.58 72.35 167.59 72.12 169.09 C 67.74 169.18 63.37 169.01 58.99 169.02 C 53.60 171.33 51.53 167.18 50.88 163.09 Z" />
</g>
<g id="#2b275dff">
<path fill="#2b275d" opacity="1.00" d=" M 72.12 169.09 C 76.37 168.77 72.33 158.92 79.76 163.02 C 83.26 165.70 78.44 172.56 82.42 174.51 C 91.51 173.29 88.46 184.00 95.71 185.97 C 95.76 186.47 95.85 187.47 95.90 187.97 C 95.12 192.39 100.05 191.98 103.06 193.13 C 102.99 201.64 86.67 195.87 90.92 207.01 C 89.66 212.39 98.42 211.14 97.37 216.36 C 96.97 219.71 100.76 219.52 100.28 216.15 C 99.83 210.66 111.13 207.77 109.99 213.93 C 100.94 210.19 106.49 224.29 97.11 221.20 C 92.34 222.25 94.71 227.92 94.63 231.36 C 95.28 241.68 110.60 234.93 116.35 235.38 C 117.41 230.62 118.51 225.85 119.11 221.00 C 126.41 217.68 122.95 229.62 128.95 227.27 C 132.92 227.85 132.65 233.17 134.20 235.96 C 136.29 236.40 138.87 235.95 139.51 233.59 C 136.54 220.76 159.20 233.98 153.99 221.16 C 160.62 218.95 162.49 221.41 163.18 227.04 C 172.30 231.98 165.11 216.33 174.02 221.01 C 177.39 220.93 180.79 220.99 184.17 221.07 C 185.28 229.72 175.08 227.70 171.40 233.82 C 171.26 228.15 162.56 226.72 160.99 232.08 C 160.26 236.42 167.89 235.75 166.80 239.69 C 163.71 242.77 156.62 244.65 160.05 250.00 L 145.81 250.00 C 142.89 241.62 158.25 243.06 152.74 235.11 C 147.95 235.55 137.84 231.78 139.83 240.89 C 138.77 245.69 131.97 242.67 128.86 241.38 C 120.35 242.35 111.74 240.46 103.30 242.30 C 100.41 243.77 100.95 247.18 100.85 250.00 L 96.14 250.00 C 99.23 238.79 85.91 244.02 80.20 243.03 C 79.05 245.32 78.50 247.90 76.96 250.00 L 75.97 250.00 C 75.22 245.75 74.69 241.43 75.02 237.12 C 79.05 234.83 91.37 237.06 86.84 230.20 C 81.06 228.81 73.12 226.41 67.43 229.37 C 69.00 236.65 61.96 233.88 58.31 236.29 C 53.76 239.29 57.51 245.56 57.14 250.00 L 52.98 250.00 C 56.74 243.27 48.73 242.46 43.98 243.15 C 43.92 240.09 40.83 234.71 45.38 234.48 C 51.95 234.22 48.51 222.00 58.00 225.83 C 57.27 221.10 51.35 222.97 49.17 219.69 C 48.78 213.46 49.28 207.22 48.89 201.01 C 43.99 199.44 47.67 207.38 43.01 207.02 C 34.94 208.46 36.29 219.26 39.01 225.02 C 39.11 230.68 31.98 231.10 28.75 227.74 C 28.74 226.06 28.73 222.72 28.72 221.04 C 29.44 215.35 26.35 205.84 33.19 203.10 C 36.88 199.76 26.37 199.83 24.85 200.77 C 24.83 206.68 12.27 212.21 14.99 202.04 C 11.26 194.67 22.90 198.53 20.59 191.45 C 20.92 188.01 27.58 190.01 26.88 186.38 C 23.34 186.55 21.55 184.11 21.23 180.83 C 20.62 178.78 21.66 176.95 23.93 177.04 C 18.88 184.01 31.40 181.63 29.99 187.90 C 29.63 192.80 20.83 191.00 23.09 196.75 C 26.38 199.68 31.78 197.03 35.83 198.11 C 37.58 200.49 36.93 205.72 40.80 205.61 C 46.35 205.08 41.83 194.06 49.75 198.06 C 54.10 202.88 50.94 210.26 51.98 216.03 C 50.48 222.18 62.97 219.07 58.99 226.78 C 55.82 228.92 49.18 228.94 51.99 235.04 C 59.23 238.15 59.41 229.46 64.60 227.54 C 71.42 223.75 66.33 214.48 68.20 208.28 C 72.43 205.83 81.77 203.10 81.87 210.13 C 82.30 216.61 67.18 211.52 71.94 219.96 C 79.95 218.69 81.05 231.32 89.36 226.32 C 90.44 216.18 85.13 204.27 89.76 194.10 C 87.95 189.07 90.28 181.75 86.26 177.76 C 78.26 175.78 69.06 172.33 61.10 176.08 C 55.57 177.62 49.55 176.13 44.04 178.01 C 47.55 172.01 60.85 180.93 58.99 169.02 C 63.37 169.01 67.74 169.18 72.12 169.09 Z" />
</g>
<g id="#0b0708ff">
<path fill="#0b0708" opacity="1.00" d=" M 214.77 183.17 C 216.69 176.34 210.16 161.71 219.93 163.01 C 217.83 168.99 225.43 184.91 214.77 183.17 Z" />
</g>
<g id="#0a0814ff">
<path fill="#0a0814" opacity="1.00" d=" M 103.67 177.46 C 102.74 173.27 104.07 164.98 110.00 167.97 C 110.45 177.90 108.79 189.05 110.96 198.00 C 114.19 198.82 118.06 199.67 117.33 203.96 C 112.13 208.49 103.95 202.36 97.67 204.26 C 93.56 197.32 109.18 204.60 104.08 194.96 C 104.90 189.95 98.72 190.26 95.90 187.97 C 95.85 187.47 95.76 186.47 95.71 185.97 C 99.73 185.03 106.98 183.85 103.67 177.46 Z" />
</g>
<g id="#353070ff">
<path fill="#353070" opacity="1.00" d=" M 31.19 169.01 C 38.85 168.08 35.87 178.89 37.74 183.24 C 41.71 184.61 46.73 184.72 44.04 178.01 C 49.55 176.13 55.57 177.62 61.10 176.08 C 69.06 172.33 78.26 175.78 86.26 177.76 C 90.28 181.75 87.95 189.07 89.76 194.10 C 85.13 204.27 90.44 216.18 89.36 226.32 C 81.05 231.32 79.95 218.69 71.94 219.96 C 67.18 211.52 82.30 216.61 81.87 210.13 C 81.77 203.10 72.43 205.83 68.20 208.28 C 66.33 214.48 71.42 223.75 64.60 227.54 C 59.41 229.46 59.23 238.15 51.99 235.04 C 49.18 228.94 55.82 228.92 58.99 226.78 C 62.97 219.07 50.48 222.18 51.98 216.03 C 50.94 210.26 54.10 202.88 49.75 198.06 C 41.83 194.06 46.35 205.08 40.80 205.61 C 36.93 205.72 37.58 200.49 35.83 198.11 C 31.78 197.03 26.38 199.68 23.09 196.75 C 20.83 191.00 29.63 192.80 29.99 187.90 C 31.40 181.63 18.88 184.01 23.93 177.04 C 29.18 177.59 29.39 172.48 31.19 169.01 Z" />
</g>
<g id="#8955aaff">
<path fill="#8955aa" opacity="1.00" d=" M 110.96 175.98 C 119.32 175.53 116.60 185.37 118.94 190.10 C 123.75 193.49 125.22 187.97 125.07 184.02 C 135.39 184.00 145.71 183.98 156.03 184.00 C 151.65 196.32 134.88 188.82 124.98 191.11 C 122.33 196.67 127.32 198.33 130.76 200.27 C 134.76 202.78 128.62 209.19 132.29 211.86 C 141.89 212.19 151.50 212.01 161.11 211.98 C 171.07 212.01 181.03 212.02 190.99 211.99 C 191.00 212.45 191.01 213.37 191.01 213.83 C 173.18 214.67 155.38 212.62 137.57 213.45 C 133.65 212.29 127.53 215.17 125.01 210.93 C 124.98 209.57 124.95 208.21 124.93 206.85 C 124.74 204.39 125.00 201.74 123.78 199.49 C 119.29 199.83 114.56 197.13 116.98 192.12 C 115.49 192.08 112.51 191.99 111.02 191.94 C 110.98 186.62 110.95 181.30 110.96 175.98 Z" />
</g>
<g id="#8e58aeff">
<path fill="#8e58ae" opacity="1.00" d=" M 124.84 176.20 C 151.98 176.25 179.30 175.14 206.34 176.71 C 179.23 177.40 152.11 176.75 125.01 177.05 L 124.84 176.20 Z" />
</g>
<g id="#352240ff">
<path fill="#352240" opacity="1.00" d=" M 125.01 177.05 C 152.11 176.75 179.23 177.40 206.34 176.71 C 206.05 178.34 205.48 181.61 205.19 183.24 C 204.69 183.22 203.68 183.18 203.18 183.16 C 203.67 181.51 204.05 179.81 204.08 178.08 C 178.09 177.96 152.09 177.89 126.12 178.10 C 125.98 179.72 125.99 181.35 125.99 182.99 L 125.07 183.02 C 125.03 181.03 125.02 179.04 125.01 177.05 Z" />
</g>
<g id="#030204ff">
<path fill="#030204" opacity="1.00" d=" M 126.12 178.10 C 152.09 177.89 178.09 177.96 204.08 178.08 C 204.05 179.81 203.67 181.51 203.18 183.16 C 177.45 182.79 151.72 183.11 125.99 182.99 C 125.99 181.35 125.98 179.72 126.12 178.10 Z" />
</g>
<g id="#211d48ff">
<path fill="#211d48" opacity="1.00" d=" M 21.23 180.83 C 21.55 184.11 23.34 186.55 26.88 186.38 C 27.58 190.01 20.92 188.01 20.59 191.45 C 22.90 198.53 11.26 194.67 14.99 202.04 C 12.27 212.21 24.83 206.68 24.85 200.77 C 26.37 199.83 36.88 199.76 33.19 203.10 C 26.35 205.84 29.44 215.35 28.72 221.04 C 24.32 219.65 19.43 222.88 15.27 220.80 C 13.53 218.39 13.95 214.02 9.99 214.03 C 6.14 214.04 8.07 208.97 8.25 206.44 C 11.27 205.46 15.34 204.28 14.00 200.20 C 9.31 200.04 4.65 199.53 0.00 198.93 L 0.00 189.80 C 1.97 190.14 3.92 190.60 5.90 190.88 C 7.09 188.36 6.72 184.85 9.29 183.27 C 13.02 182.29 20.64 187.00 21.23 180.83 Z" />
</g>
<g id="#513263ff">
<path fill="#513263" opacity="1.00" d=" M 125.07 183.02 L 125.99 182.99 C 151.72 183.11 177.45 182.79 203.18 183.16 C 203.68 183.18 204.69 183.22 205.19 183.24 C 202.76 184.77 199.70 183.84 196.98 184.03 C 183.33 183.97 169.68 183.98 156.03 184.00 C 145.71 183.98 135.39 184.00 125.07 184.02 L 125.07 183.02 Z" />
</g>
<g id="#9f64c6ff">
<path fill="#9f64c6" opacity="1.00" d=" M 156.03 184.00 C 169.68 183.98 183.33 183.97 196.98 184.03 C 198.70 187.84 200.83 191.36 205.81 190.99 C 205.85 192.74 205.94 196.26 205.98 198.02 L 205.97 198.98 C 195.50 194.05 202.39 209.70 192.67 205.82 L 193.19 205.15 C 197.69 206.10 197.41 201.45 198.40 198.40 C 201.37 196.95 207.77 198.28 204.97 192.23 C 193.84 190.95 182.64 190.78 171.46 191.01 C 163.79 190.88 148.20 186.97 145.19 197.18 C 142.54 198.23 137.94 198.91 139.01 202.89 C 139.69 207.42 144.76 207.26 148.32 206.44 C 151.47 206.18 154.63 205.93 157.77 205.58 C 160.89 206.40 161.29 209.16 161.11 211.98 C 151.50 212.01 141.89 212.19 132.29 211.86 C 128.62 209.19 134.76 202.78 130.76 200.27 C 127.32 198.33 122.33 196.67 124.98 191.11 C 134.88 188.82 151.65 196.32 156.03 184.00 Z" />
</g>
<g id="#4f3148ff">
<path fill="#4f3148" opacity="1.00" d=" M 205.81 190.99 C 206.09 188.68 204.45 183.48 208.02 183.98 C 214.41 180.54 212.64 185.99 213.08 188.78 C 211.76 191.06 215.19 198.13 211.14 198.05 C 211.01 194.29 215.19 185.63 209.21 185.36 C 204.24 186.69 208.17 194.20 206.97 198.02 L 205.98 198.02 C 205.94 196.26 205.85 192.74 205.81 190.99 Z" />
</g>
<g id="#070505ff">
<path fill="#070505" opacity="1.00" d=" M 209.21 185.36 C 215.19 185.63 211.01 194.29 211.14 198.05 C 209.75 198.08 208.36 198.07 206.97 198.02 C 208.17 194.20 204.24 186.69 209.21 185.36 Z" />
</g>
<g id="#201d46ff">
<path fill="#201d46" opacity="1.00" d=" M 95.90 187.97 C 98.72 190.26 104.90 189.95 104.08 194.96 C 109.18 204.60 93.56 197.32 97.67 204.26 C 103.95 202.36 112.13 208.49 117.33 203.96 C 118.04 206.07 120.32 205.96 122.16 206.31 C 116.52 205.84 119.37 213.86 113.86 213.74 C 109.66 213.55 111.23 218.02 110.98 220.95 C 109.88 219.34 109.55 217.00 109.99 213.93 C 111.13 207.77 99.83 210.66 100.28 216.15 C 100.76 219.52 96.97 219.71 97.37 216.36 C 98.42 211.14 89.66 212.39 90.92 207.01 C 86.67 195.87 102.99 201.64 103.06 193.13 C 100.05 191.98 95.12 192.39 95.90 187.97 Z" />
</g>
<g id="#f97c76ff">
<path fill="#f97c76" opacity="1.00" d=" M 213.08 188.78 L 213.57 189.38 C 215.15 191.90 218.33 192.56 221.11 192.45 C 230.74 192.30 240.36 191.74 250.00 191.99 L 250.00 250.00 L 236.01 250.00 C 235.48 245.31 237.19 240.19 235.29 235.73 C 223.08 238.14 231.57 224.77 226.63 220.49 C 219.88 222.44 221.23 217.09 220.78 213.13 C 218.17 212.22 212.78 213.74 213.47 209.35 C 214.87 205.27 209.32 204.97 206.77 206.21 C 206.45 203.79 206.19 201.39 205.97 198.98 L 205.98 198.02 L 206.97 198.02 C 208.36 198.07 209.75 198.08 211.14 198.05 C 215.19 198.13 211.76 191.06 213.08 188.78 Z" />
</g>
<g id="#b573dfff">
<path fill="#b573df" opacity="1.00" d=" M 145.19 197.18 C 148.20 186.97 163.79 190.88 171.46 191.01 C 165.82 192.17 160.04 191.67 154.36 192.24 C 153.49 197.80 142.01 200.19 148.32 206.44 C 144.76 207.26 139.69 207.42 139.01 202.89 C 137.94 198.91 142.54 198.23 145.19 197.18 Z" />
</g>
<g id="#cc82fbff">
<path fill="#cc82fb" opacity="1.00" d=" M 171.46 191.01 C 182.64 190.78 193.84 190.95 204.97 192.23 C 207.77 198.28 201.37 196.95 198.40 198.40 C 197.41 201.45 197.69 206.10 193.19 205.15 C 181.42 206.52 169.54 206.02 157.77 205.58 C 154.63 205.93 151.47 206.18 148.32 206.44 C 142.01 200.19 153.49 197.80 154.36 192.24 C 160.04 191.67 165.82 192.17 171.46 191.01 Z" />
</g>
<g id="#533267ff">
<path fill="#533267" opacity="1.00" d=" M 111.02 191.94 C 112.51 191.99 115.49 192.08 116.98 192.12 C 114.56 197.13 119.29 199.83 123.78 199.49 C 125.00 201.74 124.74 204.39 124.93 206.85 C 124.01 206.64 123.09 206.45 122.16 206.31 C 120.32 205.96 118.04 206.07 117.33 203.96 C 118.06 199.67 114.19 198.82 110.96 198.00 C 110.96 195.98 110.99 193.96 111.02 191.94 Z" />
</g>
<g id="#171533ff">
<path fill="#171533" opacity="1.00" d=" M 0.00 198.93 C 4.65 199.53 9.31 200.04 14.00 200.20 C 15.34 204.28 11.27 205.46 8.25 206.44 C 8.07 208.97 6.14 214.04 9.99 214.03 C 13.95 214.02 13.53 218.39 15.27 220.80 C 19.43 222.88 24.32 219.65 28.72 221.04 C 28.73 222.72 28.74 226.06 28.75 227.74 C 28.25 232.21 30.96 244.81 23.50 240.60 C 25.94 232.32 10.26 232.63 14.20 240.67 C 17.07 243.63 20.93 245.85 22.20 250.00 L 0.00 250.00 L 0.00 198.93 Z" />
</g>
<g id="#553451ff">
<path fill="#553451" opacity="1.00" d=" M 192.67 205.82 C 202.39 209.70 195.50 194.05 205.97 198.98 C 206.19 201.39 206.45 203.79 206.77 206.21 C 203.70 204.79 205.64 197.95 200.28 200.03 C 202.57 207.17 196.68 207.58 191.81 206.97 C 192.03 206.69 192.46 206.11 192.67 205.82 Z" />
</g>
<g id="#120e21ff">
<path fill="#120e21" opacity="1.00" d=" M 200.28 200.03 C 205.64 197.95 203.70 204.79 206.77 206.21 C 214.46 204.31 210.01 215.91 216.77 214.74 C 220.73 213.92 220.06 217.58 219.89 220.37 C 218.23 220.68 216.55 220.94 214.88 221.15 C 211.97 219.75 206.93 222.20 205.76 218.33 C 204.56 209.21 188.20 218.30 191.81 206.97 C 196.68 207.58 202.57 207.17 200.28 200.03 Z" />
</g>
<g id="#221f4bff">
<path fill="#221f4b" opacity="1.00" d=" M 43.01 207.02 C 47.67 207.38 43.99 199.44 48.89 201.01 C 49.28 207.22 48.78 213.46 49.17 219.69 C 51.35 222.97 57.27 221.10 58.00 225.83 C 48.51 222.00 51.95 234.22 45.38 234.48 C 40.83 234.71 43.92 240.09 43.98 243.15 C 38.19 244.82 27.20 238.80 29.85 250.00 L 22.20 250.00 C 20.93 245.85 17.07 243.63 14.20 240.67 C 10.26 232.63 25.94 232.32 23.50 240.60 C 30.96 244.81 28.25 232.21 28.75 227.74 C 31.98 231.10 39.11 230.68 39.01 225.02 C 36.29 219.26 34.94 208.46 43.01 207.02 Z" />
</g>
<g id="#7f453fff">
<path fill="#7f453f" opacity="1.00" d=" M 206.77 206.21 C 209.32 204.97 214.87 205.27 213.47 209.35 C 212.78 213.74 218.17 212.22 220.78 213.13 C 221.23 217.09 219.88 222.44 226.63 220.49 C 231.57 224.77 223.08 238.14 235.29 235.73 C 233.44 235.82 229.76 236.00 227.92 236.09 C 227.59 235.04 227.28 233.98 226.98 232.92 C 226.03 229.12 229.80 220.31 223.09 220.90 C 222.02 220.74 220.95 220.57 219.89 220.37 C 220.06 217.58 220.73 213.92 216.77 214.74 C 210.01 215.91 214.46 204.31 206.77 206.21 Z" />
</g>
<g id="#332e6cff">
<path fill="#332e6c" opacity="1.00" d=" M 190.99 211.99 C 191.13 210.31 190.70 208.41 191.81 206.97 C 188.20 218.30 204.56 209.21 205.76 218.33 C 206.93 222.20 211.97 219.75 214.88 221.15 C 213.09 226.98 222.95 225.67 220.04 232.06 C 221.05 235.55 218.45 236.20 215.68 236.73 C 214.00 240.76 214.33 245.58 213.87 250.00 L 160.05 250.00 C 156.62 244.65 163.71 242.77 166.80 239.69 C 167.89 235.75 160.26 236.42 160.99 232.08 C 162.56 226.72 171.26 228.15 171.40 233.82 C 175.08 227.70 185.28 229.72 184.17 221.07 C 189.67 223.30 190.98 218.89 191.00 214.90 L 191.01 213.83 C 191.01 213.37 191.00 212.45 190.99 211.99 M 207.23 228.22 C 202.60 232.49 207.59 237.91 212.34 235.23 C 215.84 231.15 211.00 227.35 207.23 228.22 Z" />
</g>
<g id="#442954ff">
<path fill="#442954" opacity="1.00" d=" M 125.01 210.93 C 127.53 215.17 133.65 212.29 137.57 213.45 C 155.38 212.62 173.18 214.67 191.01 213.83 L 191.00 214.90 C 172.10 214.92 153.17 215.39 134.28 214.63 C 131.09 213.12 123.80 216.36 125.01 210.93 Z" />
</g>
<g id="#353071ff">
<path fill="#353071" opacity="1.00" d=" M 97.11 221.20 C 106.49 224.29 100.94 210.19 109.99 213.93 C 109.55 217.00 109.88 219.34 110.98 220.95 C 113.69 221.03 116.39 221.05 119.11 221.00 C 118.51 225.85 117.41 230.62 116.35 235.38 C 110.60 234.93 95.28 241.68 94.63 231.36 C 94.71 227.92 92.34 222.25 97.11 221.20 Z" />
</g>
<g id="#06050dff">
<path fill="#06050d" opacity="1.00" d=" M 126.20 221.87 C 120.68 215.98 128.22 212.59 134.28 214.63 C 153.17 215.39 172.10 214.92 191.00 214.90 C 190.98 218.89 189.67 223.30 184.17 221.07 C 180.79 220.99 177.39 220.93 174.02 221.01 C 165.11 216.33 172.30 231.98 163.18 227.04 C 162.49 221.41 160.62 218.95 153.99 221.16 C 144.72 221.23 135.43 220.72 126.20 221.87 Z" />
</g>
<g id="#1c1a3eff">
<path fill="#1c1a3e" opacity="1.00" d=" M 214.88 221.15 C 216.55 220.94 218.23 220.68 219.89 220.37 C 220.95 220.57 222.02 220.74 223.09 220.90 C 218.34 224.43 219.49 241.07 226.98 232.92 C 227.28 233.98 227.59 235.04 227.92 236.09 C 228.29 240.69 227.22 245.55 228.82 250.00 L 213.87 250.00 C 214.33 245.58 214.00 240.76 215.68 236.73 C 218.45 236.20 221.05 235.55 220.04 232.06 C 222.95 225.67 213.09 226.98 214.88 221.15 Z" />
</g>
<g id="#080507ff">
<path fill="#080507" opacity="1.00" d=" M 223.09 220.90 C 229.80 220.31 226.03 229.12 226.98 232.92 C 219.49 241.07 218.34 224.43 223.09 220.90 Z" />
</g>
<g id="#181635ff">
<path fill="#181635" opacity="1.00" d=" M 67.43 229.37 C 73.12 226.41 81.06 228.81 86.84 230.20 C 91.37 237.06 79.05 234.83 75.02 237.12 C 74.69 241.43 75.22 245.75 75.97 250.00 L 57.14 250.00 C 57.51 245.56 53.76 239.29 58.31 236.29 C 61.96 233.88 69.00 236.65 67.43 229.37 Z" />
</g>
<g id="#1e1a3fff">
<path fill="#1e1a3f" opacity="1.00" d=" M 207.23 228.22 C 211.00 227.35 215.84 231.15 212.34 235.23 C 207.59 237.91 202.60 232.49 207.23 228.22 Z" />
</g>
<g id="#353171ff">
<path fill="#353171" opacity="1.00" d=" M 139.83 240.89 C 137.84 231.78 147.95 235.55 152.74 235.11 C 158.25 243.06 142.89 241.62 145.81 250.00 L 100.85 250.00 C 100.95 247.18 100.41 243.77 103.30 242.30 C 111.74 240.46 120.35 242.35 128.86 241.38 C 131.97 242.67 138.77 245.69 139.83 240.89 Z" />
</g>
<g id="#8d3e44ff">
<path fill="#8d3e44" opacity="1.00" d=" M 235.29 235.73 C 237.19 240.19 235.48 245.31 236.01 250.00 L 234.97 250.00 C 235.03 245.24 235.14 240.47 235.29 235.73 Z" />
</g>
<g id="#191636ff">
<path fill="#191636" opacity="1.00" d=" M 29.85 250.00 C 27.20 238.80 38.19 244.82 43.98 243.15 C 48.73 242.46 56.74 243.27 52.98 250.00 L 29.85 250.00 Z" />
</g>
<g id="#1c193fff">
<path fill="#1c193f" opacity="1.00" d=" M 80.20 243.03 C 85.91 244.02 99.23 238.79 96.14 250.00 L 76.96 250.00 C 78.50 247.90 79.05 245.32 80.20 243.03 Z" />
</g>
</svg>
