<?xml version="1.0" encoding="UTF-8" ?>
<!DOCTYPE svg PUBLIC "-//W3C//DTD SVG 1.1//EN" "http://www.w3.org/Graphics/SVG/1.1/DTD/svg11.dtd">
<svg width="250pt" height="250pt" viewBox="0 0 250 250" version="1.1" xmlns="http://www.w3.org/2000/svg">
<g id="#f8c8c6ff">
<path fill="#f8c8c6" opacity="1.00" d=" M 0.00 0.00 L 131.85 0.00 C 131.64 2.17 132.02 4.50 130.86 6.46 C 127.12 5.85 121.96 7.73 124.71 12.35 L 124.79 13.26 C 119.94 13.97 115.00 13.54 110.18 14.32 C 109.48 14.68 108.78 15.03 108.08 15.37 C 72.06 14.40 36.00 14.95 0.00 15.04 L 0.00 0.00 Z" />
</g>
<g id="#ae9186ff">
<path fill="#ae9186" opacity="1.00" d=" M 131.85 0.00 L 132.89 0.00 C 132.92 1.76 132.98 5.29 133.01 7.06 L 132.83 7.89 C 131.55 7.90 130.28 7.94 129.01 7.99 C 126.41 8.02 124.31 9.54 124.71 12.35 C 121.96 7.73 127.12 5.85 130.86 6.46 C 132.02 4.50 131.64 2.17 131.85 0.00 Z" />
</g>
<g id="#705324ff">
<path fill="#705324" opacity="1.00" d=" M 132.89 0.00 L 133.90 0.00 C 132.15 5.36 134.75 6.68 139.01 6.09 L 139.21 6.97 C 137.20 7.73 135.05 7.50 133.01 7.06 C 132.98 5.29 132.92 1.76 132.89 0.00 Z" />
</g>
<g id="#080804ff">
<path fill="#080804" opacity="1.00" d=" M 133.90 0.00 L 138.96 0.00 C 138.98 2.03 138.99 4.06 139.01 6.09 C 134.75 6.68 132.15 5.36 133.90 0.00 Z" />
</g>
<g id="#957779ff">
<path fill="#957779" opacity="1.00" d=" M 138.96 0.00 L 139.89 0.00 C 133.92 10.21 150.10 3.90 146.88 8.89 C 144.60 8.57 142.32 8.27 140.04 8.00 C 139.83 7.74 139.42 7.23 139.21 6.97 L 139.01 6.09 C 138.99 4.06 138.98 2.03 138.96 0.00 Z" />
</g>
<g id="#f8c8c5ff">
<path fill="#f8c8c5" opacity="1.00" d=" M 139.89 0.00 L 250.00 0.00 L 250.00 15.00 C 225.69 14.91 201.37 15.18 177.06 14.87 C 167.11 13.32 157.00 14.14 146.97 14.01 C 146.80 12.31 146.58 10.59 146.88 8.89 C 150.10 3.90 133.92 10.21 139.89 0.00 Z" />
</g>
<g id="#efd107ff">
<path fill="#efd107" opacity="1.00" d=" M 133.01 7.06 C 135.05 7.50 137.20 7.73 139.21 6.97 C 144.04 17.28 128.36 15.79 132.83 7.89 L 133.01 7.06 Z" />
</g>
<g id="#7c710eff">
<path fill="#7c710e" opacity="1.00" d=" M 139.21 6.97 C 139.42 7.23 139.83 7.74 140.04 8.00 L 140.05 8.89 C 139.00 13.11 140.83 15.03 145.08 14.01 C 145.55 14.01 146.50 14.01 146.97 14.01 L 146.93 14.96 C 141.29 13.63 138.20 14.88 140.04 21.07 L 139.18 21.17 L 139.12 20.10 C 138.67 17.27 140.36 11.84 133.98 14.96 C 130.09 15.35 131.48 9.93 129.01 7.99 C 130.28 7.94 131.55 7.90 132.83 7.89 C 128.36 15.79 144.04 17.28 139.21 6.97 Z" />
</g>
<g id="#080706ff">
<path fill="#080706" opacity="1.00" d=" M 124.71 12.35 C 124.31 9.54 126.41 8.02 129.01 7.99 C 131.48 9.93 130.09 15.35 133.98 14.96 C 140.36 11.84 138.67 17.27 139.12 20.10 C 129.70 19.97 120.27 19.91 110.86 20.11 C 108.03 10.10 123.54 18.75 124.79 13.26 L 124.71 12.35 Z" />
</g>
<g id="#543a47ff">
<path fill="#543a47" opacity="1.00" d=" M 140.04 8.00 C 142.32 8.27 144.60 8.57 146.88 8.89 C 146.58 10.59 146.80 12.31 146.97 14.01 C 146.50 14.01 145.55 14.01 145.08 14.01 C 145.92 9.95 144.13 8.06 140.05 8.89 L 140.04 8.00 Z" />
</g>
<g id="#090904ff">
<path fill="#090904" opacity="1.00" d=" M 140.05 8.89 C 144.13 8.06 145.92 9.95 145.08 14.01 C 140.83 15.03 139.00 13.11 140.05 8.89 Z" />
</g>
<g id="#836264ff">
<path fill="#836264" opacity="1.00" d=" M 110.18 14.32 C 115.00 13.54 119.94 13.97 124.79 13.26 C 123.54 18.75 108.03 10.10 110.86 20.11 L 110.80 21.23 C 110.60 20.94 110.19 20.37 109.99 20.08 C 110.01 18.16 110.05 16.24 110.18 14.32 Z" />
</g>
<g id="#f9bebcff">
<path fill="#f9bebc" opacity="1.00" d=" M 0.00 15.04 C 36.00 14.95 72.06 14.40 108.08 15.37 C 108.78 15.03 109.48 14.68 110.18 14.32 C 110.05 16.24 110.01 18.16 109.99 20.08 C 102.81 20.94 92.60 18.20 94.08 29.09 C 90.19 30.10 83.72 27.15 80.80 29.82 C 81.50 34.85 79.56 36.93 74.98 36.04 C 71.38 35.73 72.80 40.46 72.68 42.72 C 70.05 42.94 67.45 43.21 64.91 43.87 C 43.28 44.17 21.64 43.92 0.00 44.00 L 0.00 15.04 Z" />
</g>
<g id="#8d6967ff">
<path fill="#8d6967" opacity="1.00" d=" M 146.97 14.01 C 157.00 14.14 167.11 13.32 177.06 14.87 C 172.94 26.06 184.73 20.81 190.79 22.18 C 191.99 24.24 191.99 26.66 192.04 28.97 C 191.54 28.98 190.55 28.98 190.06 28.98 C 193.31 19.78 182.11 22.56 176.95 23.89 C 176.46 22.96 175.98 22.03 175.48 21.10 C 175.37 19.67 175.21 18.25 175.02 16.83 C 169.32 12.19 156.24 16.40 147.92 15.00 L 146.93 14.96 L 146.97 14.01 Z" />
</g>
<g id="#fbd702ff">
<path fill="#fbd702" opacity="1.00" d=" M 140.04 21.07 C 138.20 14.88 141.29 13.63 146.93 14.96 C 146.93 17.01 146.88 19.06 146.96 21.11 C 147.00 21.56 147.07 22.46 147.11 22.92 C 156.33 23.32 165.58 22.58 174.80 23.12 C 175.89 24.95 176.58 26.96 176.87 29.14 C 180.66 32.82 194.85 24.93 191.23 36.25 C 184.01 38.15 175.01 33.98 169.01 37.01 C 168.55 39.28 167.69 41.86 168.88 44.06 C 171.18 47.02 179.81 41.78 176.02 50.01 C 173.77 57.01 181.97 74.07 169.85 72.90 C 167.94 69.33 168.86 64.52 163.24 66.97 C 163.73 61.82 161.17 57.12 161.51 52.01 C 159.87 52.03 156.57 52.08 154.93 52.11 C 154.63 51.83 154.04 51.26 153.74 50.98 C 152.69 46.10 157.26 36.54 149.76 37.51 C 144.86 37.79 148.69 28.54 143.34 29.42 C 138.48 30.62 130.34 26.24 132.73 35.89 C 125.55 36.91 117.66 34.46 110.78 36.76 C 110.57 38.30 110.15 41.39 109.94 42.93 C 105.25 41.91 100.46 42.68 101.80 48.90 C 100.33 54.42 87.44 48.86 88.33 56.20 C 87.84 59.51 87.04 62.77 86.08 65.97 C 84.44 66.56 80.19 64.83 81.22 67.81 L 81.30 68.71 C 82.59 75.50 70.73 70.89 73.30 77.61 C 71.64 81.31 62.54 81.86 66.35 75.48 C 66.88 72.30 63.93 66.73 68.45 66.58 C 74.69 69.21 74.18 54.84 68.60 59.45 C 66.49 59.19 67.83 54.37 67.73 52.12 C 69.15 52.09 70.56 52.04 71.98 51.95 C 75.89 50.91 83.10 53.73 81.21 46.11 C 81.42 43.12 84.63 43.49 86.76 43.74 C 89.01 42.68 87.10 40.02 87.21 38.16 C 89.75 37.55 92.79 38.57 95.25 37.29 C 98.64 34.34 105.09 37.95 102.06 30.03 C 104.64 30.05 107.21 29.98 109.79 29.81 C 112.18 29.57 114.56 29.25 116.94 28.86 C 112.98 15.34 137.41 28.72 140.04 21.07 Z" />
</g>
<g id="#867406ff">
<path fill="#867406" opacity="1.00" d=" M 146.93 14.96 L 147.92 15.00 C 148.32 16.64 147.25 19.16 148.80 20.21 C 157.45 21.89 166.64 20.65 175.48 21.10 C 166.13 21.90 156.18 23.38 146.96 21.11 C 146.88 19.06 146.93 17.01 146.93 14.96 Z" />
</g>
<g id="#060706ff">
<path fill="#060706" opacity="1.00" d=" M 147.92 15.00 C 156.24 16.40 169.32 12.19 175.02 16.83 C 169.98 24.15 157.15 18.28 148.80 20.21 C 147.25 19.16 148.32 16.64 147.92 15.00 Z" />
</g>
<g id="#f8bdbbff">
<path fill="#f8bdbb" opacity="1.00" d=" M 177.06 14.87 C 201.37 15.18 225.69 14.91 250.00 15.00 L 250.00 44.00 C 235.67 44.00 221.35 44.00 207.03 44.00 C 208.00 39.35 207.40 34.41 201.10 35.80 C 197.41 35.87 200.83 29.41 197.94 29.07 C 195.98 28.93 194.00 28.96 192.04 28.97 C 191.99 26.66 191.99 24.24 190.79 22.18 C 184.73 20.81 172.94 26.06 177.06 14.87 Z" />
</g>
<g id="#32280aff">
<path fill="#32280a" opacity="1.00" d=" M 148.80 20.21 C 157.15 18.28 169.98 24.15 175.02 16.83 C 175.21 18.25 175.37 19.67 175.48 21.10 C 166.64 20.65 157.45 21.89 148.80 20.21 Z" />
</g>
<g id="#b78681ff">
<path fill="#b78681" opacity="1.00" d=" M 94.08 29.09 C 92.60 18.20 102.81 20.94 109.99 20.08 C 110.19 20.37 110.60 20.94 110.80 21.23 L 111.31 22.02 C 110.95 22.28 110.22 22.81 109.85 23.08 C 104.56 22.87 93.30 19.55 95.92 28.90 C 95.62 29.17 95.01 29.73 94.71 30.00 L 93.87 29.98 L 94.08 29.09 Z" />
</g>
<g id="#312905ff">
<path fill="#312905" opacity="1.00" d=" M 110.86 20.11 C 120.27 19.91 129.70 19.97 139.12 20.10 L 139.18 21.17 C 129.72 20.99 120.25 20.83 110.80 21.23 L 110.86 20.11 Z" />
</g>
<g id="#7d6f08ff">
<path fill="#7d6f08" opacity="1.00" d=" M 110.80 21.23 C 120.25 20.83 129.72 20.99 139.18 21.17 C 129.96 22.64 120.60 21.85 111.31 22.02 L 110.80 21.23 Z" />
</g>
<g id="#cab014ff">
<path fill="#cab014" opacity="1.00" d=" M 139.18 21.17 L 140.04 21.07 C 137.41 28.72 112.98 15.34 116.94 28.86 C 114.56 29.25 112.18 29.57 109.79 29.81 L 109.99 28.95 L 110.24 28.08 C 111.62 27.01 111.55 25.02 110.31 23.88 L 109.85 23.08 C 110.22 22.81 110.95 22.28 111.31 22.02 C 120.60 21.85 129.96 22.64 139.18 21.17 Z" />
</g>
<g id="#c4aa10ff">
<path fill="#c4aa10" opacity="1.00" d=" M 146.96 21.11 C 156.18 23.38 166.13 21.90 175.48 21.10 C 175.98 22.03 176.46 22.96 176.95 23.89 C 176.92 25.34 176.89 26.80 176.88 28.25 L 176.87 29.14 C 176.58 26.96 175.89 24.95 174.80 23.12 C 165.58 22.58 156.33 23.32 147.11 22.92 C 147.07 22.46 147.00 21.56 146.96 21.11 Z" />
</g>
<g id="#2c271eff">
<path fill="#2c271e" opacity="1.00" d=" M 95.92 28.90 C 93.30 19.55 104.56 22.87 109.85 23.08 L 110.31 23.88 C 106.28 25.43 94.99 20.27 97.03 27.92 C 101.43 28.05 105.83 28.02 110.24 28.08 L 109.99 28.95 C 105.30 28.98 100.61 28.97 95.92 28.90 Z" />
</g>
<g id="#13100aff">
<path fill="#13100a" opacity="1.00" d=" M 176.95 23.89 C 182.11 22.56 193.31 19.78 190.06 28.98 C 185.67 28.86 181.17 29.34 176.88 28.25 C 176.89 26.80 176.92 25.34 176.95 23.89 Z" />
</g>
<g id="#020101ff">
<path fill="#020101" opacity="1.00" d=" M 97.03 27.92 C 94.99 20.27 106.28 25.43 110.31 23.88 C 109.70 25.27 109.67 26.67 110.24 28.08 C 105.83 28.02 101.43 28.05 97.03 27.92 Z" />
</g>
<g id="#655511ff">
<path fill="#655511" opacity="1.00" d=" M 110.31 23.88 C 111.55 25.02 111.62 27.01 110.24 28.08 C 109.67 26.67 109.70 25.27 110.31 23.88 Z" />
</g>
<g id="#8a7711ff">
<path fill="#8a7711" opacity="1.00" d=" M 176.88 28.25 C 181.17 29.34 185.67 28.86 190.06 28.98 C 190.55 28.98 191.54 28.98 192.04 28.97 L 192.03 29.94 C 190.79 33.87 193.34 36.73 197.21 35.25 L 197.92 35.12 C 198.29 38.58 202.93 36.43 205.32 37.59 C 196.88 35.06 196.63 53.21 205.18 50.14 L 205.09 50.81 C 204.86 51.05 204.40 51.53 204.17 51.77 C 194.36 54.92 200.08 42.12 197.14 37.72 C 195.17 37.19 193.20 36.70 191.23 36.25 C 194.85 24.93 180.66 32.82 176.87 29.14 L 176.88 28.25 Z" />
</g>
<g id="#695245ff">
<path fill="#695245" opacity="1.00" d=" M 80.80 29.82 C 83.72 27.15 90.19 30.10 94.08 29.09 L 93.87 29.98 C 89.92 29.95 85.96 29.98 82.01 30.09 C 79.00 36.15 83.75 35.79 87.20 36.20 C 85.67 36.40 82.62 36.80 81.10 37.01 C 81.02 35.21 80.87 31.61 80.80 29.82 Z" />
</g>
<g id="#8a760cff">
<path fill="#8a760c" opacity="1.00" d=" M 94.71 30.00 C 95.01 29.73 95.62 29.17 95.92 28.90 C 100.61 28.97 105.30 28.98 109.99 28.95 L 109.79 29.81 C 107.21 29.98 104.64 30.05 102.06 30.03 C 98.61 29.54 95.08 29.11 95.83 33.29 C 95.45 32.20 95.08 31.10 94.71 30.00 Z" />
</g>
<g id="#ceb51aff">
<path fill="#ceb51a" opacity="1.00" d=" M 132.73 35.89 C 130.34 26.24 138.48 30.62 143.34 29.42 C 148.69 28.54 144.86 37.79 149.76 37.51 C 157.26 36.54 152.69 46.10 153.74 50.98 C 151.80 51.00 149.87 51.03 147.94 51.04 C 150.44 38.33 137.51 47.24 132.84 42.32 C 134.34 31.47 116.85 39.39 110.78 36.76 C 117.66 34.46 125.55 36.91 132.73 35.89 Z" />
<path fill="#ceb51a" opacity="1.00" d=" M 95.83 33.29 C 95.08 29.11 98.61 29.54 102.06 30.03 C 105.09 37.95 98.64 34.34 95.25 37.29 C 95.46 36.24 95.63 35.19 95.75 34.13 L 95.83 33.29 Z" />
</g>
<g id="#533c45ff">
<path fill="#533c45" opacity="1.00" d=" M 192.04 28.97 C 194.00 28.96 195.98 28.93 197.94 29.07 C 197.97 31.09 197.96 33.10 197.92 35.12 L 197.21 35.25 C 197.90 31.13 196.27 28.96 192.03 29.94 L 192.04 28.97 Z" />
</g>
<g id="#b68e88ff">
<path fill="#b68e88" opacity="1.00" d=" M 197.94 29.07 C 200.83 29.41 197.41 35.87 201.10 35.80 C 207.40 34.41 208.00 39.35 207.03 44.00 C 203.56 52.57 210.00 49.54 213.92 52.27 C 213.41 58.57 217.62 69.94 207.12 67.20 C 207.05 68.66 206.89 71.57 206.82 73.02 L 206.10 72.78 C 206.07 71.12 206.00 67.79 205.96 66.13 C 215.55 69.20 213.86 58.01 212.34 52.61 C 210.79 52.43 207.68 52.07 206.13 51.89 C 205.87 51.62 205.35 51.08 205.09 50.81 L 205.18 50.14 C 205.48 46.09 207.23 41.49 205.32 37.59 C 202.93 36.43 198.29 38.58 197.92 35.12 C 197.96 33.10 197.97 31.09 197.94 29.07 Z" />
</g>
<g id="#aa827cff">
<path fill="#aa827c" opacity="1.00" d=" M 74.98 36.04 C 79.56 36.93 81.50 34.85 80.80 29.82 C 80.87 31.61 81.02 35.21 81.10 37.01 L 81.08 37.88 C 76.09 35.81 72.01 37.35 73.94 43.90 C 73.67 44.13 73.14 44.58 72.88 44.81 C 67.46 43.07 66.43 45.92 66.90 50.03 L 66.79 50.84 C 66.55 51.12 66.08 51.69 65.85 51.97 C 65.42 51.97 64.56 51.96 64.14 51.96 C 62.86 52.36 60.20 51.10 59.88 52.88 C 59.90 57.53 57.45 59.82 52.87 59.94 C 52.56 64.76 52.44 69.34 45.83 66.99 C 41.95 66.29 44.54 71.77 43.87 74.19 C 43.62 73.89 43.12 73.28 42.87 72.97 C 40.14 65.91 45.38 65.24 50.36 64.79 C 50.38 59.81 51.72 57.06 57.35 57.35 C 55.42 50.65 60.45 50.03 64.87 50.86 C 65.64 48.57 65.39 46.18 64.91 43.87 C 67.45 43.21 70.05 42.94 72.68 42.72 C 72.80 40.46 71.38 35.73 74.98 36.04 Z" />
</g>
<g id="#131008ff">
<path fill="#131008" opacity="1.00" d=" M 82.01 30.09 C 85.96 29.98 89.92 29.95 93.87 29.98 L 94.71 30.00 C 95.08 31.10 95.45 32.20 95.83 33.29 L 95.75 34.13 C 93.80 35.03 91.75 35.68 89.69 36.29 C 89.07 36.26 87.82 36.22 87.20 36.20 C 83.75 35.79 79.00 36.15 82.01 30.09 Z" />
</g>
<g id="#0c0c07ff">
<path fill="#0c0c07" opacity="1.00" d=" M 192.03 29.94 C 196.27 28.96 197.90 31.13 197.21 35.25 C 193.34 36.73 190.79 33.87 192.03 29.94 Z" />
</g>
<g id="#7d7209ff">
<path fill="#7d7209" opacity="1.00" d=" M 89.69 36.29 C 91.75 35.68 93.80 35.03 95.75 34.13 C 95.63 35.19 95.46 36.24 95.25 37.29 C 93.38 37.05 91.53 36.71 89.69 36.29 Z" />
</g>
<g id="#c8b018ff">
<path fill="#c8b018" opacity="1.00" d=" M 87.20 36.20 C 87.82 36.22 89.07 36.26 89.69 36.29 C 91.53 36.71 93.38 37.05 95.25 37.29 C 92.79 38.57 89.75 37.55 87.21 38.16 C 87.10 40.02 89.01 42.68 86.76 43.74 C 84.63 43.49 81.42 43.12 81.21 46.11 C 83.10 53.73 75.89 50.91 71.98 51.95 C 73.65 50.20 74.73 47.88 73.19 45.65 L 72.88 44.81 C 73.14 44.58 73.67 44.13 73.94 43.90 C 79.62 45.35 83.04 44.31 81.08 37.88 L 81.10 37.01 C 82.62 36.80 85.67 36.40 87.20 36.20 Z" />
</g>
<g id="#c9b017ff">
<path fill="#c9b017" opacity="1.00" d=" M 169.01 37.01 C 175.01 33.98 184.01 38.15 191.23 36.25 C 193.20 36.70 195.17 37.19 197.14 37.72 C 192.29 36.01 191.98 39.15 189.41 41.44 C 193.15 45.07 189.95 52.95 197.28 52.73 C 195.80 61.96 210.14 60.17 204.17 51.77 C 204.40 51.53 204.86 51.05 205.09 50.81 C 205.35 51.08 205.87 51.62 206.13 51.89 C 206.15 53.73 206.20 57.42 206.22 59.26 C 206.18 59.92 206.12 61.24 206.08 61.90 C 206.03 63.31 205.99 64.72 205.96 66.13 C 194.91 70.73 202.76 55.12 191.92 57.18 C 191.23 53.55 191.98 48.29 190.77 44.15 C 186.85 43.72 182.17 44.04 183.14 37.79 C 178.78 36.33 173.69 37.14 169.01 37.01 Z" />
</g>
<g id="#332819ff">
<path fill="#332819" opacity="1.00" d=" M 73.94 43.90 C 72.01 37.35 76.09 35.81 81.08 37.88 C 83.04 44.31 79.62 45.35 73.94 43.90 Z" />
</g>
<g id="#6d5c10ff">
<path fill="#6d5c10" opacity="1.00" d=" M 109.94 42.93 C 110.15 41.39 110.57 38.30 110.78 36.76 C 116.85 39.39 134.34 31.47 132.84 42.32 C 137.51 47.24 150.44 38.33 147.94 51.04 C 147.48 51.03 146.55 51.01 146.09 51.00 C 148.08 42.74 138.49 45.04 133.18 44.86 C 132.66 44.61 131.61 44.11 131.09 43.86 C 133.51 32.48 117.35 40.08 111.16 38.08 C 111.11 39.54 111.01 42.46 110.96 43.92 L 110.00 43.91 L 109.94 42.93 Z" />
</g>
<g id="#6f5e0fff">
<path fill="#6f5e0f" opacity="1.00" d=" M 169.01 37.01 C 173.69 37.14 178.78 36.33 183.14 37.79 C 178.76 37.91 174.38 37.79 170.02 38.10 C 166.56 44.61 172.15 42.56 174.94 42.99 L 175.14 43.85 C 173.05 43.93 170.97 44.02 168.88 44.06 C 167.69 41.86 168.55 39.28 169.01 37.01 Z" />
</g>
<g id="#070607ff">
<path fill="#070607" opacity="1.00" d=" M 111.16 38.08 C 117.35 40.08 133.51 32.48 131.09 43.86 C 129.40 43.90 127.72 43.95 126.04 44.00 C 121.01 44.00 115.99 44.08 110.96 43.92 C 111.01 42.46 111.11 39.54 111.16 38.08 Z" />
</g>
<g id="#050503ff">
<path fill="#050503" opacity="1.00" d=" M 170.02 38.10 C 174.38 37.79 178.76 37.91 183.14 37.79 C 180.37 44.44 185.32 44.94 189.94 46.19 C 190.01 50.04 190.04 53.90 190.05 57.76 C 174.92 53.41 191.15 75.89 178.04 73.04 C 177.79 63.07 178.36 53.07 177.89 43.11 C 177.15 43.08 175.68 43.02 174.94 42.99 C 172.15 42.56 166.56 44.61 170.02 38.10 Z" />
<path fill="#050503" opacity="1.00" d=" M 206.22 59.26 C 205.84 54.59 207.66 51.96 212.34 52.61 C 213.40 57.59 212.12 69.29 206.08 61.90 C 206.12 61.24 206.18 59.92 206.22 59.26 Z" />
</g>
<g id="#6f5a17ff">
<path fill="#6f5a17" opacity="1.00" d=" M 183.14 37.79 C 182.17 44.04 186.85 43.72 190.77 44.15 C 191.98 48.29 191.23 53.55 191.92 57.18 C 202.76 55.12 194.91 70.73 205.96 66.13 C 206.00 67.79 206.07 71.12 206.10 72.78 C 205.80 72.67 205.20 72.46 204.90 72.35 C 205.79 67.76 204.58 64.88 198.68 67.22 C 198.55 66.68 198.29 65.61 198.16 65.08 C 199.03 60.74 195.62 59.11 191.86 60.08 C 191.25 59.31 190.65 58.53 190.05 57.76 C 190.04 53.90 190.01 50.04 189.94 46.19 C 185.32 44.94 180.37 44.44 183.14 37.79 Z" />
</g>
<g id="#f6d405ff">
<path fill="#f6d405" opacity="1.00" d=" M 189.41 41.44 C 191.98 39.15 192.29 36.01 197.14 37.72 C 200.08 42.12 194.36 54.92 204.17 51.77 C 210.14 60.17 195.80 61.96 197.28 52.73 C 189.95 52.95 193.15 45.07 189.41 41.44 Z" />
</g>
<g id="#14100aff">
<path fill="#14100a" opacity="1.00" d=" M 205.18 50.14 C 196.63 53.21 196.88 35.06 205.32 37.59 C 205.23 41.77 205.18 45.96 205.18 50.14 Z" />
</g>
<g id="#6b4c4cff">
<path fill="#6b4c4c" opacity="1.00" d=" M 205.32 37.59 C 207.23 41.49 205.48 46.09 205.18 50.14 C 205.18 45.96 205.23 41.77 205.32 37.59 Z" />
</g>
<g id="#caaf15ff">
<path fill="#caaf15" opacity="1.00" d=" M 101.80 48.90 C 100.46 42.68 105.25 41.91 109.94 42.93 L 110.00 43.91 C 102.69 41.10 102.83 47.60 102.25 52.32 C 100.66 52.45 97.48 52.73 95.89 52.87 C 94.93 55.15 95.27 59.78 91.87 58.32 C 86.72 56.83 90.37 66.73 86.08 65.97 C 87.04 62.77 87.84 59.51 88.33 56.20 C 87.44 48.86 100.33 54.42 101.80 48.90 Z" />
</g>
<g id="#3b3108ff">
<path fill="#3b3108" opacity="1.00" d=" M 174.94 42.99 C 175.68 43.02 177.15 43.08 177.89 43.11 C 178.36 53.07 177.79 63.07 178.04 73.04 L 177.14 73.08 C 176.74 63.51 177.43 53.89 176.83 44.33 C 176.41 44.21 175.57 43.97 175.14 43.85 L 174.94 42.99 Z" />
</g>
<g id="#fbb7b4ff">
<path fill="#fbb7b4" opacity="1.00" d=" M 0.00 44.00 C 21.64 43.92 43.28 44.17 64.91 43.87 C 65.39 46.18 65.64 48.57 64.87 50.86 C 60.45 50.03 55.42 50.65 57.35 57.35 C 51.72 57.06 50.38 59.81 50.36 64.79 C 45.38 65.24 40.14 65.91 42.87 72.97 C 29.83 74.43 16.48 73.15 3.34 73.43 C 2.18 73.86 1.09 74.44 0.00 75.02 L 0.00 44.00 Z" />
<path fill="#fbb7b4" opacity="1.00" d=" M 207.03 44.00 C 221.35 44.00 235.67 44.00 250.00 44.00 L 250.00 72.85 C 238.08 74.53 225.86 73.23 213.89 73.15 C 211.60 72.23 209.15 72.48 206.82 73.02 C 206.89 71.57 207.05 68.66 207.12 67.20 C 217.62 69.94 213.41 58.57 213.92 52.27 C 210.00 49.54 203.56 52.57 207.03 44.00 Z" />
</g>
<g id="#77650fff">
<path fill="#77650f" opacity="1.00" d=" M 102.25 52.32 C 102.83 47.60 102.69 41.10 110.00 43.91 L 110.00 44.89 C 106.28 44.19 102.77 45.89 104.05 50.18 C 103.61 51.03 103.01 51.74 102.25 52.32 Z" />
</g>
<g id="#2c285fff">
<path fill="#2c285f" opacity="1.00" d=" M 110.00 43.91 L 110.96 43.92 C 115.99 44.08 121.01 44.00 126.04 44.00 C 122.08 48.66 125.03 59.79 132.09 58.96 C 135.41 61.89 132.02 66.82 130.21 69.92 C 133.14 73.56 140.03 73.59 139.53 79.57 C 141.02 82.95 145.22 81.36 148.00 81.06 C 146.95 83.47 146.96 87.22 143.93 88.04 C 137.76 88.42 141.49 77.95 133.76 80.18 C 131.70 77.08 130.55 70.34 125.03 73.98 C 122.10 73.98 117.59 75.23 116.52 71.57 C 119.02 63.72 107.39 66.81 110.81 72.88 C 110.39 76.94 105.37 74.53 102.53 74.60 C 95.53 70.39 98.35 80.88 93.01 81.01 C 84.29 81.59 91.72 97.49 80.90 95.90 C 77.99 95.85 74.40 97.02 72.75 94.06 C 70.45 86.97 75.95 86.54 80.93 86.79 C 80.99 82.82 80.97 78.86 80.87 74.90 C 81.16 74.38 81.74 73.35 82.03 72.84 C 86.44 74.30 89.12 71.34 88.03 66.99 C 88.53 66.75 89.55 66.29 90.05 66.06 C 92.15 65.86 94.89 66.43 95.82 63.99 C 97.68 67.21 101.17 69.65 103.65 72.41 C 114.57 78.32 106.74 58.16 115.65 60.14 C 117.94 65.09 116.29 75.22 124.76 72.91 C 127.10 67.68 126.38 56.46 118.11 58.89 C 115.30 57.91 119.69 45.75 111.64 50.68 C 102.57 49.43 105.40 62.76 96.04 59.06 L 96.04 58.09 C 101.30 59.47 103.37 57.55 102.25 52.32 C 103.01 51.74 103.61 51.03 104.05 50.18 C 108.24 52.85 111.30 49.17 110.00 44.89 L 110.00 43.91 Z" />
</g>
<g id="#35306fff">
<path fill="#35306f" opacity="1.00" d=" M 126.04 44.00 C 127.72 43.95 129.40 43.90 131.09 43.86 C 131.61 44.11 132.66 44.61 133.18 44.86 C 129.38 54.70 141.50 50.61 146.09 51.00 C 146.55 51.01 147.48 51.03 147.94 51.04 L 148.10 51.95 C 145.41 56.56 149.31 59.61 153.94 59.04 C 154.20 59.18 154.73 59.46 154.99 59.60 C 153.44 66.62 154.09 73.85 153.93 80.98 C 151.95 80.95 149.97 80.89 148.00 81.06 C 145.22 81.36 141.02 82.95 139.53 79.57 C 140.03 73.59 133.14 73.56 130.21 69.92 C 132.02 66.82 135.41 61.89 132.09 58.96 C 125.03 59.79 122.08 48.66 126.04 44.00 Z" />
</g>
<g id="#ad960cff">
<path fill="#ad960c" opacity="1.00" d=" M 168.88 44.06 C 170.97 44.02 173.05 43.93 175.14 43.85 C 175.57 43.97 176.41 44.21 176.83 44.33 C 177.43 53.89 176.74 63.51 177.14 73.08 C 176.86 73.34 176.29 73.85 176.00 74.10 C 174.28 74.09 170.82 74.07 169.09 74.06 C 169.28 73.77 169.66 73.19 169.85 72.90 C 181.97 74.07 173.77 57.01 176.02 50.01 C 179.81 41.78 171.18 47.02 168.88 44.06 Z" />
</g>
<g id="#181211ff">
<path fill="#181211" opacity="1.00" d=" M 66.90 50.03 C 66.43 45.92 67.46 43.07 72.88 44.81 L 73.19 45.65 C 73.20 49.50 70.43 50.76 66.90 50.03 Z" />
</g>
<g id="#14110aff">
<path fill="#14110a" opacity="1.00" d=" M 104.05 50.18 C 102.77 45.89 106.28 44.19 110.00 44.89 C 111.30 49.17 108.24 52.85 104.05 50.18 Z" />
</g>
<g id="#0f0d0fff">
<path fill="#0f0d0f" opacity="1.00" d=" M 133.18 44.86 C 138.49 45.04 148.08 42.74 146.09 51.00 C 141.50 50.61 129.38 54.70 133.18 44.86 Z" />
</g>
<g id="#7c6b0dff">
<path fill="#7c6b0d" opacity="1.00" d=" M 73.19 45.65 C 74.73 47.88 73.65 50.20 71.98 51.95 C 70.56 52.04 69.15 52.09 67.73 52.12 C 67.49 51.80 67.02 51.16 66.79 50.84 L 66.90 50.03 C 70.43 50.76 73.20 49.50 73.19 45.65 Z" />
</g>
<g id="#34306fff">
<path fill="#34306f" opacity="1.00" d=" M 111.64 50.68 C 119.69 45.75 115.30 57.91 118.11 58.89 C 126.38 56.46 127.10 67.68 124.76 72.91 C 116.29 75.22 117.94 65.09 115.65 60.14 C 106.74 58.16 114.57 78.32 103.65 72.41 C 101.17 69.65 97.68 67.21 95.82 63.99 C 95.88 62.65 95.94 61.31 95.99 59.97 L 96.04 59.06 C 105.40 62.76 102.57 49.43 111.64 50.68 Z" />
</g>
<g id="#ccb319ff">
<path fill="#ccb319" opacity="1.00" d=" M 65.85 51.97 C 66.08 51.69 66.55 51.12 66.79 50.84 C 67.02 51.16 67.49 51.80 67.73 52.12 C 67.83 54.37 66.49 59.19 68.60 59.45 C 74.18 54.84 74.69 69.21 68.45 66.58 C 63.93 66.73 66.88 72.30 66.35 75.48 C 62.54 81.86 71.64 81.31 73.30 77.61 C 73.51 78.89 73.44 80.18 73.26 81.45 C 71.67 81.52 68.49 81.66 66.90 81.73 C 65.29 87.69 69.33 98.63 59.07 94.96 C 59.03 85.72 58.63 76.45 59.15 67.23 C 61.71 66.51 65.16 67.28 66.85 64.71 C 66.99 60.43 66.28 56.21 65.85 51.97 Z" />
</g>
<g id="#74640eff">
<path fill="#74640e" opacity="1.00" d=" M 147.94 51.04 C 149.87 51.03 151.80 51.00 153.74 50.98 C 154.04 51.26 154.63 51.83 154.93 52.11 C 151.95 59.45 159.43 56.55 161.75 60.34 C 162.90 68.85 161.90 77.39 162.06 85.91 C 162.18 89.58 169.66 89.25 168.64 85.32 C 168.92 81.61 167.34 77.44 169.09 74.06 C 170.82 74.07 174.28 74.09 176.00 74.10 L 175.88 74.95 C 164.37 71.89 175.71 92.21 164.05 89.32 C 162.65 88.98 161.07 88.72 160.56 87.15 C 160.59 79.21 160.33 71.27 160.51 63.33 C 160.90 59.77 157.68 59.79 154.99 59.60 C 154.73 59.46 154.20 59.18 153.94 59.04 C 156.13 53.55 152.55 51.11 148.10 51.95 L 147.94 51.04 Z" />
</g>
<g id="#090706ff">
<path fill="#090706" opacity="1.00" d=" M 59.88 52.88 C 60.20 51.10 62.86 52.36 64.14 51.96 C 64.85 55.89 65.31 59.87 65.00 63.87 C 65.32 67.20 59.38 63.54 58.10 66.27 C 57.78 75.94 58.15 85.62 57.90 95.30 C 48.24 99.01 52.23 86.97 51.93 81.25 C 47.13 82.96 45.69 80.39 45.44 76.90 C 45.58 73.60 45.32 70.26 45.83 66.99 C 52.44 69.34 52.56 64.76 52.87 59.94 C 57.54 62.78 62.43 57.49 59.88 52.88 Z" />
</g>
<g id="#6e5b10ff">
<path fill="#6e5b10" opacity="1.00" d=" M 64.14 51.96 C 64.56 51.96 65.42 51.97 65.85 51.97 C 66.28 56.21 66.99 60.43 66.85 64.71 C 65.16 67.28 61.71 66.51 59.15 67.23 C 58.63 76.45 59.03 85.72 59.07 94.96 C 69.33 98.63 65.29 87.69 66.90 81.73 C 66.93 86.43 66.99 91.14 66.99 95.85 C 66.51 95.89 65.55 95.96 65.07 95.99 C 63.37 96.01 61.68 96.03 59.98 96.04 C 59.46 95.85 58.42 95.48 57.90 95.30 C 58.15 85.62 57.78 75.94 58.10 66.27 C 59.38 63.54 65.32 67.20 65.00 63.87 C 65.31 59.87 64.85 55.89 64.14 51.96 Z" />
</g>
<g id="#120f06ff">
<path fill="#120f06" opacity="1.00" d=" M 95.89 52.87 C 97.48 52.73 100.66 52.45 102.25 52.32 C 103.37 57.55 101.30 59.47 96.04 58.09 C 95.97 56.35 95.90 54.61 95.89 52.87 Z" />
</g>
<g id="#110f11ff">
<path fill="#110f11" opacity="1.00" d=" M 148.10 51.95 C 152.55 51.11 156.13 53.55 153.94 59.04 C 149.31 59.61 145.41 56.56 148.10 51.95 Z" />
</g>
<g id="#cbb219ff">
<path fill="#cbb219" opacity="1.00" d=" M 154.93 52.11 C 156.57 52.08 159.87 52.03 161.51 52.01 C 161.17 57.12 163.73 61.82 163.24 66.97 C 168.86 64.52 167.94 69.33 169.85 72.90 C 169.66 73.19 169.28 73.77 169.09 74.06 C 167.34 77.44 168.92 81.61 168.64 85.32 C 169.66 89.25 162.18 89.58 162.06 85.91 C 161.90 77.39 162.90 68.85 161.75 60.34 C 159.43 56.55 151.95 59.45 154.93 52.11 Z" />
</g>
<g id="#54421eff">
<path fill="#54421e" opacity="1.00" d=" M 206.13 51.89 C 207.68 52.07 210.79 52.43 212.34 52.61 C 207.66 51.96 205.84 54.59 206.22 59.26 C 206.20 57.42 206.15 53.73 206.13 51.89 Z" />
</g>
<g id="#593d41ff">
<path fill="#593d41" opacity="1.00" d=" M 52.87 59.94 C 57.45 59.82 59.90 57.53 59.88 52.88 C 62.43 57.49 57.54 62.78 52.87 59.94 Z" />
</g>
<g id="#756510ff">
<path fill="#756510" opacity="1.00" d=" M 91.87 58.32 C 95.27 59.78 94.93 55.15 95.89 52.87 C 95.90 54.61 95.97 56.35 96.04 58.09 L 96.04 59.06 L 95.99 59.97 C 90.14 57.55 88.55 61.96 90.05 66.06 C 89.55 66.29 88.53 66.75 88.03 66.99 C 85.75 67.23 83.48 67.51 81.22 67.81 C 80.19 64.83 84.44 66.56 86.08 65.97 C 90.37 66.73 86.72 56.83 91.87 58.32 Z" />
</g>
<g id="#5c403eff">
<path fill="#5c403e" opacity="1.00" d=" M 212.34 52.61 C 213.86 58.01 215.55 69.20 205.96 66.13 C 205.99 64.72 206.03 63.31 206.08 61.90 C 212.12 69.29 213.40 57.59 212.34 52.61 Z" />
</g>
<g id="#2a2553ff">
<path fill="#2a2553" opacity="1.00" d=" M 178.04 73.04 C 191.15 75.89 174.92 53.41 190.05 57.76 C 190.65 58.53 191.25 59.31 191.86 60.08 C 190.81 64.48 194.05 67.81 198.16 65.08 C 198.29 65.61 198.55 66.68 198.68 67.22 C 198.10 71.44 200.74 74.52 204.90 72.35 C 205.20 72.46 205.80 72.67 206.10 72.78 L 206.82 73.02 C 208.17 73.45 210.87 74.29 212.22 74.72 C 203.13 71.84 206.21 81.71 205.18 86.92 C 206.95 87.01 210.48 87.19 212.25 87.28 C 205.23 85.62 205.66 90.51 205.99 95.27 C 205.25 95.29 204.52 95.28 203.79 95.25 C 207.25 88.95 200.39 86.45 198.10 81.81 C 192.33 77.12 173.04 87.98 175.88 74.95 L 176.00 74.10 C 176.29 73.85 176.86 73.34 177.14 73.08 L 178.04 73.04 Z" />
</g>
<g id="#100e15ff">
<path fill="#100e15" opacity="1.00" d=" M 90.05 66.06 C 88.55 61.96 90.14 57.55 95.99 59.97 C 95.94 61.31 95.88 62.65 95.82 63.99 C 94.89 66.43 92.15 65.86 90.05 66.06 Z" />
</g>
<g id="#0b090cff">
<path fill="#0b090c" opacity="1.00" d=" M 153.93 80.98 C 154.09 73.85 153.44 66.62 154.99 59.60 C 157.68 59.79 160.90 59.77 160.51 63.33 C 160.33 71.27 160.59 79.21 160.56 87.15 C 156.37 88.02 151.32 87.44 153.93 80.98 Z" />
</g>
<g id="#0f0e0dff">
<path fill="#0f0e0d" opacity="1.00" d=" M 191.86 60.08 C 195.62 59.11 199.03 60.74 198.16 65.08 C 194.05 67.81 190.81 64.48 191.86 60.08 Z" />
</g>
<g id="#5f4246ff">
<path fill="#5f4246" opacity="1.00" d=" M 43.87 74.19 C 44.54 71.77 41.95 66.29 45.83 66.99 C 45.32 70.26 45.58 73.60 45.44 76.90 C 44.97 78.45 45.37 80.93 43.20 81.13 C 43.49 78.82 43.71 76.51 43.87 74.19 Z" />
</g>
<g id="#0a090aff">
<path fill="#0a090a" opacity="1.00" d=" M 81.22 67.81 C 83.48 67.51 85.75 67.23 88.03 66.99 C 89.12 71.34 86.44 74.30 82.03 72.84 C 81.82 71.45 81.57 70.08 81.30 68.71 L 81.22 67.81 Z" />
</g>
<g id="#28214eff">
<path fill="#28214e" opacity="1.00" d=" M 110.81 72.88 C 107.39 66.81 119.02 63.72 116.52 71.57 C 117.59 75.23 122.10 73.98 125.03 73.98 C 118.32 72.51 116.58 77.37 112.91 80.97 C 107.45 79.44 101.84 80.68 103.22 86.94 C 113.20 87.11 123.18 87.10 133.16 86.88 C 133.54 89.56 133.81 92.27 134.11 94.97 L 133.13 95.01 C 133.57 91.21 133.04 85.27 127.00 87.96 C 119.13 88.29 110.99 87.16 103.29 89.24 C 105.41 96.29 100.89 96.46 95.86 95.95 C 91.03 94.13 87.11 96.33 87.66 101.19 C 88.12 96.27 85.87 94.51 80.90 95.90 C 91.72 97.49 84.29 81.59 93.01 81.01 C 98.35 80.88 95.53 70.39 102.53 74.60 C 105.37 74.53 110.39 76.94 110.81 72.88 M 90.22 88.12 C 83.74 96.65 96.50 96.11 102.01 94.96 C 105.29 85.16 95.20 89.22 90.22 88.12 Z" />
</g>
<g id="#0f0b11ff">
<path fill="#0f0b11" opacity="1.00" d=" M 198.68 67.22 C 204.58 64.88 205.79 67.76 204.90 72.35 C 200.74 74.52 198.10 71.44 198.68 67.22 Z" />
</g>
<g id="#7b6b0eff">
<path fill="#7b6b0e" opacity="1.00" d=" M 81.30 68.71 C 81.57 70.08 81.82 71.45 82.03 72.84 C 81.74 73.35 81.16 74.38 80.87 74.90 C 73.27 71.85 76.80 79.09 73.26 81.45 C 73.44 80.18 73.51 78.89 73.30 77.61 C 70.73 70.89 82.59 75.50 81.30 68.71 Z" />
</g>
<g id="#bb8984ff">
<path fill="#bb8984" opacity="1.00" d=" M 206.82 73.02 C 209.15 72.48 211.60 72.23 213.89 73.15 C 214.11 77.68 214.42 82.22 214.58 86.75 C 214.00 90.55 209.63 89.14 207.02 89.07 C 204.05 95.86 209.35 94.78 213.31 95.65 C 212.79 95.70 211.73 95.80 211.21 95.85 C 209.73 95.94 208.25 96.03 206.78 96.10 L 205.99 96.12 L 205.99 95.27 C 205.66 90.51 205.23 85.62 212.25 87.28 C 212.96 83.47 214.29 78.42 212.22 74.72 C 210.87 74.29 208.17 73.45 206.82 73.02 Z" />
</g>
<g id="#fbaba8ff">
<path fill="#fbaba8" opacity="1.00" d=" M 3.34 73.43 C 16.48 73.15 29.83 74.43 42.87 72.97 C 43.12 73.28 43.62 73.89 43.87 74.19 C 43.71 76.51 43.49 78.82 43.20 81.13 C 33.82 77.75 36.75 89.60 36.84 95.05 C 33.70 93.75 31.43 93.99 30.06 95.77 C 30.85 101.49 27.60 103.60 23.13 102.44 C 15.53 104.07 7.74 104.18 0.00 104.02 L 0.00 75.02 C 1.09 74.44 2.18 73.86 3.34 73.43 Z" />
</g>
<g id="#1d193dff">
<path fill="#1d193d" opacity="1.00" d=" M 125.03 73.98 C 130.55 70.34 131.70 77.08 133.76 80.18 C 141.49 77.95 137.76 88.42 143.93 88.04 C 146.96 87.22 146.95 83.47 148.00 81.06 C 149.97 80.89 151.95 80.95 153.93 80.98 C 151.32 87.44 156.37 88.02 160.56 87.15 C 161.07 88.72 162.65 88.98 164.05 89.32 C 160.27 90.03 164.32 94.31 161.70 95.80 C 156.07 96.59 146.45 92.80 148.36 102.26 C 149.44 96.53 148.21 92.88 141.77 94.78 C 143.61 94.05 146.33 94.08 147.22 92.00 C 144.02 87.63 137.35 90.03 133.16 86.88 C 132.85 76.57 120.07 82.19 112.91 80.97 C 116.58 77.37 118.32 72.51 125.03 73.98 Z" />
</g>
<g id="#fdaca9ff">
<path fill="#fdaca9" opacity="1.00" d=" M 213.89 73.15 C 225.86 73.23 238.08 74.53 250.00 72.85 L 250.00 103.92 C 238.31 101.75 226.30 104.24 214.63 102.31 C 214.44 100.05 214.09 97.78 213.31 95.65 C 209.35 94.78 204.05 95.86 207.02 89.07 C 209.63 89.14 214.00 90.55 214.58 86.75 C 214.42 82.22 214.11 77.68 213.89 73.15 Z" />
</g>
<g id="#0b0a11ff">
<path fill="#0b0a11" opacity="1.00" d=" M 73.26 81.45 C 76.80 79.09 73.27 71.85 80.87 74.90 C 80.97 78.86 80.99 82.82 80.93 86.79 C 75.95 86.54 70.45 86.97 72.75 94.06 C 71.55 96.08 68.95 95.47 66.99 95.85 C 66.99 91.14 66.93 86.43 66.90 81.73 C 68.49 81.66 71.67 81.52 73.26 81.45 Z" />
</g>
<g id="#050406ff">
<path fill="#050406" opacity="1.00" d=" M 164.05 89.32 C 175.71 92.21 164.37 71.89 175.88 74.95 C 173.04 87.98 192.33 77.12 198.10 81.81 C 200.39 86.45 207.25 88.95 203.79 95.25 C 202.57 95.20 201.36 95.10 200.15 94.92 C 199.15 91.66 202.65 83.58 195.00 86.96 C 187.42 87.71 171.66 82.48 174.80 95.75 C 164.76 92.87 168.06 106.84 175.76 104.28 C 185.57 104.88 196.94 106.31 205.93 103.91 L 206.33 103.09 C 207.88 100.64 208.03 98.31 206.78 96.10 C 208.25 96.03 209.73 95.94 211.21 95.85 C 211.86 100.62 212.02 105.44 212.16 110.26 C 207.70 110.15 203.26 110.06 198.81 110.05 C 196.18 110.00 193.57 109.98 190.96 110.00 C 186.28 109.97 181.62 109.96 176.96 110.01 C 174.30 109.99 171.65 109.98 169.00 110.01 C 158.98 109.99 148.97 109.96 138.96 110.01 C 119.60 109.96 100.24 110.06 80.87 109.93 C 76.09 108.80 71.71 109.78 72.52 115.80 C 68.29 116.03 64.07 116.09 59.84 116.13 C 58.43 114.42 61.27 111.33 58.70 110.16 C 54.06 109.93 49.42 109.94 44.78 110.11 C 38.66 97.07 62.91 110.49 59.98 96.04 C 61.68 96.03 63.37 96.01 65.07 95.99 C 63.09 105.26 72.36 103.06 77.99 104.00 C 82.48 104.48 80.75 98.89 80.90 95.90 C 85.87 94.51 88.12 96.27 87.66 101.19 C 87.27 105.82 92.74 103.62 95.77 104.23 C 112.79 105.31 130.47 105.74 147.25 104.25 C 147.53 103.75 148.08 102.75 148.36 102.26 C 146.45 92.80 156.07 96.59 161.70 95.80 C 164.32 94.31 160.27 90.03 164.05 89.32 Z" />
</g>
<g id="#070508ff">
<path fill="#070508" opacity="1.00" d=" M 205.18 86.92 C 206.21 81.71 203.13 71.84 212.22 74.72 C 212.19 78.90 212.20 83.09 212.25 87.28 C 210.48 87.19 206.95 87.01 205.18 86.92 Z" />
</g>
<g id="#6b4a47ff">
<path fill="#6b4a47" opacity="1.00" d=" M 212.22 74.72 C 214.29 78.42 212.96 83.47 212.25 87.28 C 212.20 83.09 212.19 78.90 212.22 74.72 Z" />
</g>
<g id="#1a1736ff">
<path fill="#1a1736" opacity="1.00" d=" M 45.44 76.90 C 45.69 80.39 47.13 82.96 51.93 81.25 C 52.23 86.97 48.24 99.01 57.90 95.30 C 58.42 95.48 59.46 95.85 59.98 96.04 C 62.91 110.49 38.66 97.07 44.78 110.11 L 44.89 110.93 C 44.49 112.27 43.70 114.95 43.30 116.29 C 47.17 110.23 38.03 106.69 37.51 112.63 C 35.57 116.38 40.98 116.11 43.30 116.29 C 39.82 116.68 33.01 116.77 35.98 122.99 C 36.38 131.21 34.94 139.63 36.66 147.75 C 34.24 150.57 37.82 157.15 29.98 154.06 C 24.55 156.74 23.54 152.42 21.78 149.20 C 19.77 148.00 17.18 148.77 14.95 148.18 C 14.60 146.89 14.03 145.60 14.15 144.23 C 14.33 139.51 18.32 138.07 22.27 137.27 C 21.17 131.31 27.17 129.21 29.30 134.19 C 29.33 139.62 26.54 148.58 34.94 146.78 C 35.00 137.54 35.29 128.29 34.90 119.07 C 33.28 118.90 31.64 118.86 30.01 118.96 C 25.56 120.08 32.03 128.73 23.27 124.93 C 20.17 121.07 24.43 115.35 22.41 110.76 C 22.53 108.44 22.65 106.12 22.77 103.80 C 28.56 106.38 30.91 102.34 30.23 97.70 C 29.66 105.49 40.29 102.23 36.22 96.01 C 36.38 95.77 36.69 95.29 36.84 95.05 L 37.72 95.23 C 40.04 95.42 43.22 96.95 44.91 94.72 C 45.00 90.38 44.53 85.99 43.38 81.81 L 43.20 81.13 C 45.37 80.93 44.97 78.45 45.44 76.90 M 23.99 105.00 C 21.16 108.64 24.41 110.48 26.79 110.64 C 31.46 110.53 30.01 100.15 23.99 105.00 Z" />
</g>
<g id="#755253ff">
<path fill="#755253" opacity="1.00" d=" M 36.84 95.05 C 36.75 89.60 33.82 77.75 43.20 81.13 L 43.38 81.81 C 34.87 79.87 38.67 89.80 37.72 95.23 L 36.84 95.05 Z" />
</g>
<g id="#634f14ff">
<path fill="#634f14" opacity="1.00" d=" M 66.90 81.73 C 68.49 81.66 71.67 81.52 73.26 81.45 C 71.67 81.52 68.49 81.66 66.90 81.73 Z" />
</g>
<g id="#040409ff">
<path fill="#040409" opacity="1.00" d=" M 103.22 86.94 C 101.84 80.68 107.45 79.44 112.91 80.97 C 120.07 82.19 132.85 76.57 133.16 86.88 C 123.18 87.10 113.20 87.11 103.22 86.94 Z" />
</g>
<g id="#05040aff">
<path fill="#05040a" opacity="1.00" d=" M 37.72 95.23 C 38.67 89.80 34.87 79.87 43.38 81.81 C 44.53 85.99 45.00 90.38 44.91 94.72 C 43.22 96.95 40.04 95.42 37.72 95.23 Z" />
</g>
<g id="#08060dff">
<path fill="#08060d" opacity="1.00" d=" M 133.16 86.88 C 137.35 90.03 144.02 87.63 147.22 92.00 C 146.33 94.08 143.61 94.05 141.77 94.78 C 139.21 94.85 136.66 94.92 134.11 94.97 C 133.81 92.27 133.54 89.56 133.16 86.88 Z" />
</g>
<g id="#58356cff">
<path fill="#58356c" opacity="1.00" d=" M 174.80 95.75 C 171.66 82.48 187.42 87.71 195.00 86.96 C 202.65 83.58 199.15 91.66 200.15 94.92 C 196.97 94.79 200.32 89.46 197.75 88.06 C 190.98 88.43 183.77 87.00 177.24 89.22 C 178.32 93.09 174.56 98.97 177.70 102.17 C 187.06 103.61 196.83 102.66 206.33 103.09 L 205.93 103.91 C 195.88 104.16 185.80 103.70 175.76 104.28 C 168.06 106.84 164.76 92.87 174.80 95.75 Z" />
</g>
<g id="#080611ff">
<path fill="#080611" opacity="1.00" d=" M 90.22 88.12 C 95.20 89.22 105.29 85.16 102.01 94.96 C 96.50 96.11 83.74 96.65 90.22 88.12 Z" />
</g>
<g id="#915ab3ff">
<path fill="#915ab3" opacity="1.00" d=" M 103.29 89.24 C 110.99 87.16 119.13 88.29 127.00 87.96 C 133.04 85.27 133.57 91.21 133.13 95.01 L 132.86 95.95 L 131.90 95.89 C 133.86 84.16 118.20 90.26 111.22 89.13 C 110.49 91.70 110.23 94.38 110.04 97.04 C 110.06 98.71 109.46 100.91 111.28 101.87 C 122.86 102.18 134.44 102.07 146.02 101.92 C 145.80 100.42 145.36 97.44 145.13 95.94 C 149.08 95.10 146.69 100.46 146.96 102.94 C 134.98 103.18 122.99 102.88 111.01 103.01 C 105.70 102.08 90.92 106.95 95.86 95.95 C 100.89 96.46 105.41 96.29 103.29 89.24 Z" />
</g>
<g id="#9b62c0ff">
<path fill="#9b62c0" opacity="1.00" d=" M 177.24 89.22 C 183.77 87.00 190.98 88.43 197.75 88.06 C 200.32 89.46 196.97 94.79 200.15 94.92 C 201.36 95.10 202.57 95.20 203.79 95.25 C 204.52 95.28 205.25 95.29 205.99 95.27 L 205.99 96.12 C 206.07 97.86 206.24 101.35 206.33 103.09 C 196.83 102.66 187.06 103.61 177.70 102.17 C 174.56 98.97 178.32 93.09 177.24 89.22 M 185.24 89.10 C 182.36 92.02 183.54 97.99 183.65 101.33 C 190.17 103.24 198.07 101.44 205.01 101.94 C 209.62 92.38 194.28 100.40 197.51 91.38 C 196.88 85.98 188.71 90.31 185.24 89.10 Z" />
</g>
<g id="#b875e2ff">
<path fill="#b875e2" opacity="1.00" d=" M 111.22 89.13 C 118.20 90.26 133.86 84.16 131.90 95.89 C 124.84 96.01 116.08 92.10 110.04 97.04 C 110.23 94.38 110.49 91.70 111.22 89.13 Z" />
<path fill="#b875e2" opacity="1.00" d=" M 157.78 205.59 C 169.54 206.01 181.42 206.52 193.18 205.15 L 192.68 205.83 C 192.46 206.11 192.03 206.69 191.82 206.97 C 190.69 208.40 191.13 210.31 190.99 211.99 C 181.03 212.01 171.07 212.02 161.11 211.98 C 161.29 209.15 160.90 206.40 157.78 205.59 Z" />
</g>
<g id="#c980f4ff">
<path fill="#c980f4" opacity="1.00" d=" M 185.24 89.10 C 188.71 90.31 196.88 85.98 197.51 91.38 C 194.28 100.40 209.62 92.38 205.01 101.94 C 198.07 101.44 190.17 103.24 183.65 101.33 C 183.54 97.99 182.36 92.02 185.24 89.10 Z" />
</g>
<g id="#161430ff">
<path fill="#161430" opacity="1.00" d=" M 66.99 95.85 C 68.95 95.47 71.55 96.08 72.75 94.06 C 74.40 97.02 77.99 95.85 80.90 95.90 C 80.75 98.89 82.48 104.48 77.99 104.00 C 72.36 103.06 63.09 105.26 65.07 95.99 C 65.55 95.96 66.51 95.89 66.99 95.85 Z" />
</g>
<g id="#a26b6aff">
<path fill="#a26b6a" opacity="1.00" d=" M 30.06 95.77 C 31.43 93.99 33.70 93.75 36.84 95.05 C 36.69 95.29 36.38 95.77 36.22 96.01 C 34.17 96.21 32.08 96.18 30.06 95.77 Z" />
</g>
<g id="#cd83f8ff">
<path fill="#cd83f8" opacity="1.00" d=" M 110.04 97.04 C 116.08 92.10 124.84 96.01 131.90 95.89 L 132.86 95.95 C 136.95 95.96 141.04 95.96 145.13 95.94 C 145.36 97.44 145.80 100.42 146.02 101.92 C 134.44 102.07 122.86 102.18 111.28 101.87 C 109.46 100.91 110.06 98.71 110.04 97.04 Z" />
</g>
<g id="#6b3f82ff">
<path fill="#6b3f82" opacity="1.00" d=" M 133.13 95.01 L 134.11 94.97 C 136.66 94.92 139.21 94.85 141.77 94.78 C 148.21 92.88 149.44 96.53 148.36 102.26 C 148.08 102.75 147.53 103.75 147.25 104.25 C 135.17 103.82 123.08 104.07 110.99 103.98 L 111.01 103.01 C 122.99 102.88 134.98 103.18 146.96 102.94 C 146.69 100.46 149.08 95.10 145.13 95.94 C 141.04 95.96 136.95 95.96 132.86 95.95 L 133.13 95.01 Z" />
</g>
<g id="#895f57ff">
<path fill="#895f57" opacity="1.00" d=" M 23.13 102.44 C 27.60 103.60 30.85 101.49 30.06 95.77 C 30.10 96.25 30.19 97.22 30.23 97.70 C 30.91 102.34 28.56 106.38 22.77 103.80 C 22.86 103.46 23.04 102.78 23.13 102.44 Z" />
</g>
<g id="#0c080eff">
<path fill="#0c080e" opacity="1.00" d=" M 30.06 95.77 C 32.08 96.18 34.17 96.21 36.22 96.01 C 40.29 102.23 29.66 105.49 30.23 97.70 C 30.19 97.22 30.10 96.25 30.06 95.77 Z" />
</g>
<g id="#4d2f61ff">
<path fill="#4d2f61" opacity="1.00" d=" M 87.66 101.19 C 87.11 96.33 91.03 94.13 95.86 95.95 C 90.92 106.95 105.70 102.08 111.01 103.01 L 110.99 103.98 C 105.91 104.02 100.84 103.97 95.77 104.23 C 92.74 103.62 87.27 105.82 87.66 101.19 Z" />
</g>
<g id="#4b3157ff">
<path fill="#4b3157" opacity="1.00" d=" M 205.99 96.12 L 206.78 96.10 C 208.03 98.31 207.88 100.64 206.33 103.09 C 206.24 101.35 206.07 97.86 205.99 96.12 Z" />
</g>
<g id="#684948ff">
<path fill="#684948" opacity="1.00" d=" M 211.21 95.85 C 211.73 95.80 212.79 95.70 213.31 95.65 C 213.15 100.49 213.00 105.35 213.09 110.20 L 212.16 110.26 C 212.02 105.44 211.86 100.62 211.21 95.85 Z" />
</g>
<g id="#c58681ff">
<path fill="#c58681" opacity="1.00" d=" M 213.31 95.65 C 214.09 97.78 214.44 100.05 214.63 102.31 C 213.70 105.13 216.00 109.78 213.12 111.28 L 213.09 110.20 C 213.00 105.35 213.15 100.49 213.31 95.65 Z" />
</g>
<g id="#f89e9bff">
<path fill="#f89e9b" opacity="1.00" d=" M 0.00 104.02 C 7.74 104.18 15.53 104.07 23.13 102.44 C 23.04 102.78 22.86 103.46 22.77 103.80 C 21.16 105.07 21.81 107.05 21.81 108.80 C 19.79 110.75 16.67 109.65 14.13 110.22 C 13.69 115.11 14.86 120.27 13.12 124.99 C 11.72 125.00 10.33 125.00 8.93 125.01 C 0.27 130.12 16.53 156.24 0.00 154.09 L 0.00 104.02 Z" />
</g>
<g id="#fba39dff">
<path fill="#fba39d" opacity="1.00" d=" M 214.63 102.31 C 226.30 104.24 238.31 101.75 250.00 103.92 L 250.00 133.83 C 239.39 132.01 228.55 132.50 217.85 132.75 C 213.81 132.15 214.93 137.08 212.93 139.06 C 212.96 136.35 212.99 133.65 213.01 130.95 C 213.05 125.55 212.98 120.17 212.90 114.78 C 212.97 113.61 213.04 112.45 213.12 111.28 C 216.00 109.78 213.70 105.13 214.63 102.31 Z" />
</g>
<g id="#8a5d59ff">
<path fill="#8a5d59" opacity="1.00" d=" M 21.81 108.80 C 21.81 107.05 21.16 105.07 22.77 103.80 C 22.65 106.12 22.53 108.44 22.41 110.76 C 8.81 105.43 19.36 123.07 13.12 124.99 C 14.86 120.27 13.69 115.11 14.13 110.22 C 16.67 109.65 19.79 110.75 21.81 108.80 Z" />
</g>
<g id="#261831ff">
<path fill="#261831" opacity="1.00" d=" M 95.77 104.23 C 100.84 103.97 105.91 104.02 110.99 103.98 C 123.08 104.07 135.17 103.82 147.25 104.25 C 130.47 105.74 112.79 105.31 95.77 104.23 Z" />
</g>
<g id="#271931ff">
<path fill="#271931" opacity="1.00" d=" M 175.76 104.28 C 185.80 103.70 195.88 104.16 205.93 103.91 C 196.94 106.31 185.57 104.88 175.76 104.28 Z" />
</g>
<g id="#020204ff">
<path fill="#020204" opacity="1.00" d=" M 23.99 105.00 C 30.01 100.15 31.46 110.53 26.79 110.64 C 24.41 110.48 21.16 108.64 23.99 105.00 Z" />
</g>
<g id="#040307ff">
<path fill="#040307" opacity="1.00" d=" M 37.51 112.63 C 38.03 106.69 47.17 110.23 43.30 116.29 C 40.98 116.11 35.57 116.38 37.51 112.63 Z" />
</g>
<g id="#59366eff">
<path fill="#59366e" opacity="1.00" d=" M 44.78 110.11 C 49.42 109.94 54.06 109.93 58.70 110.16 C 61.27 111.33 58.43 114.42 59.84 116.13 C 60.09 116.44 60.60 117.06 60.86 117.37 L 61.47 118.12 C 60.56 118.34 59.64 118.42 58.71 118.37 C 61.20 108.02 51.32 111.28 44.89 110.93 L 44.78 110.11 Z" />
</g>
<g id="#2a2454ff">
<path fill="#2a2454" opacity="1.00" d=" M 72.52 115.80 C 71.71 109.78 76.09 108.80 80.87 109.93 L 80.74 110.88 C 80.11 113.62 79.71 116.43 80.89 119.05 C 83.43 125.16 75.32 141.88 86.93 138.99 C 87.05 134.32 87.02 129.67 87.05 125.01 L 87.97 125.03 C 87.98 127.01 87.95 128.99 87.97 130.97 C 86.16 137.54 88.20 140.61 94.65 138.99 C 95.02 139.20 95.77 139.62 96.15 139.83 C 93.27 147.25 97.53 147.81 103.08 146.96 C 105.81 147.11 108.57 147.17 111.28 147.62 C 106.21 149.66 92.57 143.52 96.01 153.94 C 102.07 152.04 119.83 159.39 115.13 147.93 C 121.38 146.37 114.13 158.46 123.00 154.03 C 127.00 153.22 124.59 158.60 125.12 161.10 C 120.16 161.26 114.97 161.95 116.69 168.71 C 109.18 166.16 111.18 172.73 110.99 176.92 C 110.97 181.92 110.98 186.94 111.02 191.94 C 110.98 193.96 110.96 195.98 110.96 198.01 C 108.72 189.26 110.43 178.00 110.11 168.33 C 115.60 169.44 117.56 167.33 115.98 161.99 C 111.37 158.83 110.92 162.64 110.00 164.98 C 109.58 168.13 104.37 166.60 104.02 170.09 C 102.57 176.78 106.93 186.76 95.70 185.97 C 88.46 183.99 91.51 173.29 82.42 174.51 C 78.40 172.58 83.28 165.69 79.76 163.02 C 72.33 158.92 76.37 168.77 72.12 169.09 C 72.34 167.59 72.80 164.58 73.02 163.07 C 65.64 162.87 58.26 162.99 50.88 163.09 C 50.19 160.41 50.33 157.62 50.12 154.89 C 53.72 157.09 48.63 165.57 56.99 162.03 C 61.21 160.00 74.03 166.40 73.31 158.64 C 73.34 157.15 72.58 155.10 74.58 154.64 C 72.07 161.57 83.85 164.22 81.04 155.18 C 79.43 155.05 76.20 154.77 74.58 154.64 L 75.25 154.18 C 79.38 155.04 81.75 154.01 81.14 150.05 C 81.45 149.43 82.07 148.20 82.38 147.58 C 90.05 148.79 80.97 158.34 85.51 158.66 C 86.12 153.85 91.60 155.51 94.93 153.78 C 97.84 147.72 92.65 146.58 88.20 146.70 C 86.43 143.70 89.02 136.89 82.18 140.04 C 79.35 139.65 81.35 144.79 79.04 145.99 C 74.30 147.25 73.96 143.41 74.13 139.91 C 72.82 136.93 65.16 141.45 66.23 136.77 C 65.27 133.00 69.58 134.02 72.22 133.37 C 73.55 133.26 74.25 132.55 74.33 131.23 C 75.01 126.96 75.50 122.55 74.84 118.26 C 72.62 115.23 67.99 117.65 64.79 117.14 C 63.48 117.18 62.17 117.26 60.86 117.37 C 60.60 117.06 60.09 116.44 59.84 116.13 C 64.07 116.09 68.29 116.03 72.52 115.80 M 90.25 140.10 C 87.85 141.57 88.62 146.78 92.00 146.04 C 96.96 147.11 96.95 135.07 90.25 140.10 M 119.25 155.10 C 112.72 160.44 128.60 164.40 123.99 154.98 L 119.25 155.10 Z" />
</g>
<g id="#884807ff">
<path fill="#884807" opacity="1.00" d=" M 80.87 109.93 C 100.24 110.06 119.60 109.96 138.96 110.01 L 139.10 110.99 C 134.42 111.00 129.75 110.96 125.07 111.02 C 120.43 111.00 115.80 110.96 111.17 111.04 C 106.13 111.01 101.11 110.95 96.08 111.03 C 90.96 110.98 85.85 111.04 80.74 110.88 L 80.87 109.93 Z" />
</g>
<g id="#5f0a87ff">
<path fill="#5f0a87" opacity="1.00" d=" M 138.96 110.01 C 148.97 109.96 158.98 109.99 169.00 110.01 L 169.02 110.99 L 168.07 111.02 C 163.40 111.01 158.74 110.96 154.07 111.02 C 149.40 110.99 144.74 110.99 140.07 111.02 L 139.10 110.99 L 138.96 110.01 Z" />
</g>
<g id="#8b848bff">
<path fill="#8b848b" opacity="1.00" d=" M 169.00 110.01 C 171.65 109.98 174.30 109.99 176.96 110.01 L 177.11 111.00 C 174.41 111.00 171.71 110.99 169.02 110.99 L 169.00 110.01 Z" />
</g>
<g id="#076f75ff">
<path fill="#076f75" opacity="1.00" d=" M 176.96 110.01 C 181.62 109.96 186.28 109.97 190.96 110.00 L 191.14 110.97 C 188.43 110.97 185.73 110.99 183.03 111.02 C 181.05 110.99 179.08 111.00 177.11 111.00 L 176.96 110.01 Z" />
</g>
<g id="#aae68aff">
<path fill="#aae68a" opacity="1.00" d=" M 190.96 110.00 C 193.57 109.98 196.18 110.00 198.81 110.05 C 199.14 110.32 199.80 110.87 200.13 111.15 C 202.67 118.10 197.71 119.26 192.31 119.32 C 196.52 129.78 180.93 120.01 184.96 130.02 C 185.22 133.60 180.75 133.99 178.13 133.56 C 176.37 134.70 177.58 137.24 177.19 139.02 L 176.11 138.98 C 176.05 137.33 176.01 135.68 176.00 134.04 C 176.24 133.53 176.72 132.50 176.95 131.99 C 183.97 134.65 183.38 129.62 183.05 124.93 C 186.60 123.81 193.43 125.80 191.17 119.09 C 191.12 114.77 196.88 119.43 197.38 116.34 C 201.34 109.53 195.26 110.90 191.14 110.97 L 190.96 110.00 Z" />
</g>
<g id="#348602ff">
<path fill="#348602" opacity="1.00" d=" M 198.81 110.05 C 203.26 110.06 207.70 110.15 212.16 110.26 C 208.15 110.70 204.14 110.97 200.13 111.15 C 199.80 110.87 199.14 110.32 198.81 110.05 Z" />
</g>
<g id="#63fd07ff">
<path fill="#63fd07" opacity="1.00" d=" M 212.16 110.26 L 213.09 110.20 L 213.12 111.28 C 213.04 112.45 212.97 113.61 212.90 114.78 C 213.23 120.26 206.58 115.25 206.59 119.40 C 208.55 126.67 202.34 124.53 198.29 125.21 C 201.01 133.69 189.24 130.95 190.93 138.98 C 186.34 138.99 181.77 138.99 177.19 139.02 C 177.58 137.24 176.37 134.70 178.13 133.56 C 180.75 133.99 185.22 133.60 184.96 130.02 C 180.93 120.01 196.52 129.78 192.31 119.32 C 197.71 119.26 202.67 118.10 200.13 111.15 C 204.14 110.97 208.15 110.70 212.16 110.26 Z" />
</g>
<g id="#100e21ff">
<path fill="#100e21" opacity="1.00" d=" M 13.12 124.99 C 19.36 123.07 8.81 105.43 22.41 110.76 C 24.43 115.35 20.17 121.07 23.27 124.93 C 32.03 128.73 25.56 120.08 30.01 118.96 C 29.40 124.02 29.58 129.11 29.30 134.19 C 27.17 129.21 21.17 131.31 22.27 137.27 C 18.32 138.07 14.33 139.51 14.15 144.23 C 12.66 138.11 20.77 122.72 8.82 125.83 L 8.93 125.01 C 10.33 125.00 11.72 125.00 13.12 124.99 Z" />
</g>
<g id="#623a79ff">
<path fill="#623a79" opacity="1.00" d=" M 43.30 116.29 C 43.70 114.95 44.49 112.27 44.89 110.93 C 46.48 115.83 43.59 120.03 38.32 119.54 C 36.80 128.20 36.70 137.05 37.09 145.81 C 38.93 147.54 41.73 146.36 43.99 147.05 C 44.34 148.47 44.33 149.91 43.95 151.33 C 43.31 147.63 40.10 147.46 36.66 147.75 C 34.94 139.63 36.38 131.21 35.98 122.99 C 33.01 116.77 39.82 116.68 43.30 116.29 Z" />
</g>
<g id="#945db9ff">
<path fill="#945db9" opacity="1.00" d=" M 44.89 110.93 C 51.32 111.28 61.20 108.02 58.71 118.37 C 54.22 118.25 49.70 117.58 45.23 118.11 C 42.36 122.42 46.46 131.60 38.73 131.82 C 32.51 141.09 45.75 138.31 43.99 147.05 C 41.73 146.36 38.93 147.54 37.09 145.81 C 36.70 137.05 36.80 128.20 38.32 119.54 C 43.59 120.03 46.48 115.83 44.89 110.93 Z" />
</g>
<g id="#7b5d21ff">
<path fill="#7b5d21" opacity="1.00" d=" M 80.89 119.05 C 79.71 116.43 80.11 113.62 80.74 110.88 C 79.53 116.30 84.09 118.67 88.75 117.99 C 89.40 120.36 88.12 122.68 88.83 125.02 L 87.97 125.03 L 87.05 125.01 C 88.51 119.44 86.45 117.45 80.89 119.05 Z" />
</g>
<g id="#f8be03ff">
<path fill="#f8be03" opacity="1.00" d=" M 80.74 110.88 C 85.85 111.04 90.96 110.98 96.08 111.03 C 97.80 116.80 94.29 119.69 88.75 117.99 C 84.09 118.67 79.53 116.30 80.74 110.88 Z" />
</g>
<g id="#fd8a02ff">
<path fill="#fd8a02" opacity="1.00" d=" M 96.08 111.03 C 101.11 110.95 106.13 111.01 111.17 111.04 C 111.13 115.60 108.56 118.47 104.11 119.11 C 102.85 123.01 101.85 127.45 95.96 125.06 L 94.98 125.06 C 92.93 125.03 90.88 125.03 88.83 125.02 C 88.12 122.68 89.40 120.36 88.75 117.99 C 94.29 119.69 97.80 116.80 96.08 111.03 Z" />
</g>
<g id="#fe6901ff">
<path fill="#fe6901" opacity="1.00" d=" M 111.17 111.04 C 115.80 110.96 120.43 111.00 125.07 111.02 C 128.78 118.72 120.49 116.58 118.54 120.39 C 118.61 127.27 107.64 122.79 110.34 131.01 C 105.27 129.53 92.62 135.36 95.96 125.06 C 101.85 127.45 102.85 123.01 104.11 119.11 C 108.56 118.47 111.13 115.60 111.17 111.04 Z" />
</g>
<g id="#fe3e02ff">
<path fill="#fe3e02" opacity="1.00" d=" M 125.07 111.02 C 129.75 110.96 134.42 111.00 139.10 110.99 C 139.06 112.62 139.05 114.26 138.92 115.89 C 133.81 114.73 129.78 115.45 130.71 120.81 C 131.82 125.15 125.29 122.39 124.85 125.75 C 126.09 133.21 119.87 129.29 116.18 131.16 C 116.06 133.78 115.98 136.39 115.93 139.02 C 110.08 140.73 110.88 135.18 110.34 131.01 C 107.64 122.79 118.61 127.27 118.54 120.39 C 120.49 116.58 128.78 118.72 125.07 111.02 Z" />
</g>
<g id="#e622aeff">
<path fill="#e622ae" opacity="1.00" d=" M 139.10 110.99 L 140.07 111.02 C 142.57 117.65 138.38 119.30 133.08 120.12 C 133.48 122.22 134.28 125.21 131.05 125.06 C 129.35 117.69 134.92 117.18 138.92 115.89 C 139.05 114.26 139.06 112.62 139.10 110.99 Z" />
</g>
<g id="#cc02fcff">
<path fill="#cc02fc" opacity="1.00" d=" M 140.07 111.02 C 144.74 110.99 149.40 110.99 154.07 111.02 C 157.08 118.41 150.98 116.75 147.56 119.16 C 149.51 124.48 145.35 125.91 140.26 125.25 C 140.65 129.28 140.33 134.54 134.46 133.60 C 131.01 133.79 132.73 139.00 135.09 139.97 C 133.80 139.92 132.51 139.86 131.22 139.78 C 127.16 139.35 123.07 139.26 119.01 138.80 C 115.57 131.66 122.10 134.93 124.19 132.20 C 124.35 130.59 124.68 127.37 124.85 125.75 C 126.91 125.47 129.00 125.42 131.05 125.06 C 134.28 125.21 133.48 122.22 133.08 120.12 C 138.38 119.30 142.57 117.65 140.07 111.02 Z" />
</g>
<g id="#7d07fdff">
<path fill="#7d07fd" opacity="1.00" d=" M 154.07 111.02 C 158.74 110.96 163.40 111.01 168.07 111.02 C 169.17 115.77 166.05 116.72 161.70 116.63 C 160.85 119.33 161.00 122.26 160.11 124.96 C 158.73 124.93 157.35 124.94 155.98 124.98 C 155.55 125.02 154.70 125.09 154.27 125.13 C 157.37 133.83 149.13 128.77 146.18 132.30 C 146.11 133.98 145.97 137.36 145.90 139.05 C 144.43 139.20 141.47 139.51 140.00 139.66 L 139.08 139.99 C 137.75 140.02 136.42 140.01 135.09 139.97 C 132.73 139.00 131.01 133.79 134.46 133.60 C 140.33 134.54 140.65 129.28 140.26 125.25 C 145.35 125.91 149.51 124.48 147.56 119.16 C 150.98 116.75 157.08 118.41 154.07 111.02 Z" />
</g>
<g id="#9c54edff">
<path fill="#9c54ed" opacity="1.00" d=" M 168.07 111.02 L 169.02 110.99 C 169.01 112.92 169.02 114.86 169.07 116.79 C 167.22 116.75 163.54 116.67 161.70 116.63 C 166.05 116.72 169.17 115.77 168.07 111.02 Z" />
</g>
<g id="#e5f1f6ff">
<path fill="#e5f1f6" opacity="1.00" d=" M 169.02 110.99 C 171.71 110.99 174.41 111.00 177.11 111.00 C 178.82 114.99 176.05 119.55 171.90 118.03 C 170.96 117.59 170.02 117.18 169.07 116.79 C 169.02 114.86 169.01 112.92 169.02 110.99 Z" />
</g>
<g id="#17a4f7ff">
<path fill="#17a4f7" opacity="1.00" d=" M 177.11 111.00 C 179.08 111.00 181.05 110.99 183.03 111.02 C 186.72 118.67 173.20 116.66 176.07 124.95 L 175.13 124.99 C 173.08 125.00 171.04 125.02 169.00 125.03 C 169.01 123.42 169.02 121.80 169.04 120.19 C 169.98 119.46 170.93 118.73 171.90 118.03 C 176.05 119.55 178.82 114.99 177.11 111.00 Z" />
</g>
<g id="#16f3c4ff">
<path fill="#16f3c4" opacity="1.00" d=" M 183.03 111.02 C 185.73 110.99 188.43 110.97 191.14 110.97 C 194.11 119.13 181.98 114.12 183.35 121.00 C 183.31 122.31 183.19 123.62 183.05 124.93 C 181.32 124.94 179.60 124.94 177.89 124.96 C 177.43 124.96 176.52 124.95 176.07 124.95 C 173.20 116.66 186.72 118.67 183.03 111.02 Z" />
</g>
<g id="#e3f5f3ff">
<path fill="#e3f5f3" opacity="1.00" d=" M 191.14 110.97 C 195.26 110.90 201.34 109.53 197.38 116.34 C 196.88 119.43 191.12 114.77 191.17 119.09 C 193.43 125.80 186.60 123.81 183.05 124.93 C 183.19 123.62 183.31 122.31 183.35 121.00 C 181.98 114.12 194.11 119.13 191.14 110.97 Z" />
</g>
<g id="#b3fc05ff">
<path fill="#b3fc05" opacity="1.00" d=" M 206.59 119.40 C 206.58 115.25 213.23 120.26 212.90 114.78 C 212.98 120.17 213.05 125.55 213.01 130.95 C 210.05 134.18 202.55 129.68 205.89 138.97 C 203.93 138.98 201.98 138.98 200.02 139.00 C 196.97 138.97 193.96 138.99 190.93 138.98 C 189.24 130.95 201.01 133.69 198.29 125.21 C 202.34 124.53 208.55 126.67 206.59 119.40 Z" />
</g>
<g id="#f53154ff">
<path fill="#f53154" opacity="1.00" d=" M 130.71 120.81 C 129.78 115.45 133.81 114.73 138.92 115.89 C 134.92 117.18 129.35 117.69 131.05 125.06 C 129.00 125.42 126.91 125.47 124.85 125.75 C 125.29 122.39 131.82 125.15 130.71 120.81 Z" />
</g>
<g id="#975fbcff">
<path fill="#975fbc" opacity="1.00" d=" M 60.86 117.37 C 62.17 117.26 63.48 117.18 64.79 117.14 C 75.39 114.55 72.60 124.91 74.33 131.23 C 74.25 132.55 73.55 133.26 72.22 133.37 C 70.35 133.17 68.47 132.96 66.67 132.38 C 72.37 134.73 75.53 129.85 72.33 125.66 C 65.73 121.07 66.78 128.42 66.67 132.38 C 65.52 130.20 67.64 124.73 64.08 124.94 C 59.95 124.83 55.83 124.75 51.71 124.69 C 56.76 124.04 61.86 123.77 67.01 123.87 C 68.33 119.92 64.63 118.57 61.47 118.12 L 60.86 117.37 Z" />
</g>
<g id="#694086ff">
<path fill="#694086" opacity="1.00" d=" M 64.79 117.14 C 67.99 117.65 72.62 115.23 74.84 118.26 C 75.50 122.55 75.01 126.96 74.33 131.23 C 72.60 124.91 75.39 114.55 64.79 117.14 Z" />
</g>
<g id="#bab2f5ff">
<path fill="#bab2f5" opacity="1.00" d=" M 160.11 124.96 C 161.00 122.26 160.85 119.33 161.70 116.63 C 163.54 116.67 167.22 116.75 169.07 116.79 C 170.02 117.18 170.96 117.59 171.90 118.03 C 170.93 118.73 169.98 119.46 169.04 120.19 C 165.23 112.69 157.65 124.07 165.17 124.74 C 163.97 125.07 162.79 125.45 161.63 125.87 C 161.25 125.64 160.49 125.19 160.11 124.96 Z" />
</g>
<g id="#bf79eaff">
<path fill="#bf79ea" opacity="1.00" d=" M 45.23 118.11 C 49.70 117.58 54.22 118.25 58.71 118.37 C 59.64 118.42 60.56 118.34 61.47 118.12 C 64.63 118.57 68.33 119.92 67.01 123.87 C 61.86 123.77 56.76 124.04 51.71 124.69 C 50.17 132.30 51.51 140.27 50.89 148.02 C 48.46 148.35 46.16 148.03 43.99 147.05 C 45.75 138.31 32.51 141.09 38.73 131.82 C 46.46 131.60 42.36 122.42 45.23 118.11 Z" />
</g>
<g id="#ecf2f8ff">
<path fill="#ecf2f8" opacity="1.00" d=" M 165.17 124.74 C 157.65 124.07 165.23 112.69 169.04 120.19 C 169.02 121.80 169.01 123.42 169.00 125.03 C 167.72 124.94 166.44 124.84 165.17 124.74 Z" />
</g>
<g id="#040308ff">
<path fill="#040308" opacity="1.00" d=" M 30.01 118.96 C 31.64 118.86 33.28 118.90 34.90 119.07 C 35.29 128.29 35.00 137.54 34.94 146.78 C 26.54 148.58 29.33 139.62 29.30 134.19 C 29.58 129.11 29.40 124.02 30.01 118.96 Z" />
</g>
<g id="#050407ff">
<path fill="#050407" opacity="1.00" d=" M 80.89 119.05 C 86.45 117.45 88.51 119.44 87.05 125.01 C 87.02 129.67 87.05 134.32 86.93 138.99 C 75.32 141.88 83.43 125.16 80.89 119.05 Z" />
</g>
<g id="#976563ff">
<path fill="#976563" opacity="1.00" d=" M 0.00 154.09 C 16.53 156.24 0.27 130.12 8.93 125.01 L 8.82 125.83 C 7.16 135.07 8.55 144.49 7.88 153.80 C 7.00 154.44 6.04 154.89 4.99 155.17 C 3.32 155.09 1.66 155.04 0.00 154.99 L 0.00 154.09 Z" />
</g>
<g id="#995fbdff">
<path fill="#995fbd" opacity="1.00" d=" M 50.89 148.02 C 51.51 140.27 50.17 132.30 51.71 124.69 C 52.05 131.48 51.85 138.28 51.97 145.08 C 52.48 149.68 60.84 146.00 64.64 147.17 L 65.05 147.97 C 63.00 147.94 60.95 147.91 58.90 147.93 C 54.05 146.09 50.61 148.33 50.19 152.86 C 53.83 154.81 59.92 153.86 58.83 160.27 C 63.53 164.08 68.67 159.70 67.97 154.23 C 70.39 154.45 72.82 154.35 75.25 154.18 L 74.58 154.64 C 72.58 155.10 73.34 157.15 73.31 158.64 C 74.03 166.40 61.21 160.00 56.99 162.03 C 48.63 165.57 53.72 157.09 50.12 154.89 C 47.83 153.31 43.29 155.34 43.95 151.33 C 44.33 149.91 44.34 148.47 43.99 147.05 C 46.16 148.03 48.46 148.35 50.89 148.02 Z" />
</g>
<g id="#34213dff">
<path fill="#34213d" opacity="1.00" d=" M 51.71 124.69 C 55.83 124.75 59.95 124.83 64.08 124.94 L 64.23 125.79 C 61.44 125.87 55.88 126.04 53.09 126.12 C 52.89 132.49 53.06 138.86 52.85 145.23 L 51.97 145.08 C 51.85 138.28 52.05 131.48 51.71 124.69 Z" />
</g>
<g id="#593770ff">
<path fill="#593770" opacity="1.00" d=" M 64.08 124.94 C 67.64 124.73 65.52 130.20 66.67 132.38 C 68.47 132.96 70.35 133.17 72.22 133.37 C 69.58 134.02 65.27 133.00 66.23 136.77 C 65.16 141.45 72.82 136.93 74.13 139.91 C 73.61 139.91 72.56 139.92 72.03 139.92 C 67.93 139.01 66.02 140.83 66.97 144.95 C 65.92 145.41 65.15 146.15 64.64 147.17 C 60.84 146.00 52.48 149.68 51.97 145.08 L 52.85 145.23 C 57.22 146.81 69.32 147.80 64.22 139.91 C 55.30 140.56 58.56 131.69 64.25 131.15 C 64.25 129.81 64.23 127.13 64.23 125.79 L 64.08 124.94 Z" />
</g>
<g id="#c87ff4ff">
<path fill="#c87ff4" opacity="1.00" d=" M 66.67 132.38 C 66.78 128.42 65.73 121.07 72.33 125.66 C 75.53 129.85 72.37 134.73 66.67 132.38 Z" />
</g>
<g id="#8250a0ff">
<path fill="#8250a0" opacity="1.00" d=" M 87.97 125.03 L 88.83 125.02 C 90.88 125.03 92.93 125.03 94.98 125.06 C 95.00 127.62 95.04 130.17 95.09 132.73 C 92.46 134.66 89.93 132.85 87.97 130.97 C 87.95 128.99 87.98 127.01 87.97 125.03 Z" />
</g>
<g id="#db6375ff">
<path fill="#db6375" opacity="1.00" d=" M 94.98 125.06 L 95.96 125.06 C 92.62 135.36 105.27 129.53 110.34 131.01 C 110.88 135.18 110.08 140.73 115.93 139.02 L 116.92 139.04 L 116.96 140.00 C 115.23 140.00 111.76 139.98 110.03 139.97 L 110.00 138.96 C 111.65 133.44 107.08 132.46 102.77 133.13 C 100.20 132.93 97.66 132.51 95.09 132.73 C 95.04 130.17 95.00 127.62 94.98 125.06 Z" />
</g>
<g id="#bf98f6ff">
<path fill="#bf98f6" opacity="1.00" d=" M 154.27 125.13 C 154.70 125.09 155.55 125.02 155.98 124.98 C 155.33 127.63 154.85 130.32 154.15 132.95 C 149.79 131.18 145.86 134.56 147.79 139.02 C 147.32 139.03 146.38 139.04 145.90 139.05 C 145.97 137.36 146.11 133.98 146.18 132.30 C 149.13 128.77 157.37 133.83 154.27 125.13 Z" />
</g>
<g id="#edeafaff">
<path fill="#edeafa" opacity="1.00" d=" M 155.98 124.98 C 157.35 124.94 158.73 124.93 160.11 124.96 C 160.49 125.19 161.25 125.64 161.63 125.87 C 161.94 127.93 162.28 130.00 162.87 132.00 C 159.97 132.34 157.05 132.66 154.15 132.95 C 154.85 130.32 155.33 127.63 155.98 124.98 Z" />
</g>
<g id="#23a1f7ff">
<path fill="#23a1f7" opacity="1.00" d=" M 161.63 125.87 C 162.79 125.45 163.97 125.07 165.17 124.74 C 166.44 124.84 167.72 124.94 169.00 125.03 C 169.00 127.11 168.98 129.19 168.92 131.26 L 168.69 132.32 C 166.76 132.11 164.81 132.03 162.87 132.00 C 162.28 130.00 161.94 127.93 161.63 125.87 Z" />
</g>
<g id="#07f6bbff">
<path fill="#07f6bb" opacity="1.00" d=" M 169.00 125.03 C 171.04 125.02 173.08 125.00 175.13 124.99 C 176.16 129.42 173.27 132.02 168.92 131.26 C 168.98 129.19 169.00 127.11 169.00 125.03 Z" />
</g>
<g id="#81e9d5ff">
<path fill="#81e9d5" opacity="1.00" d=" M 175.13 124.99 L 176.07 124.95 C 176.52 124.95 177.43 124.96 177.89 124.96 C 177.54 127.30 177.23 129.64 176.95 131.99 C 176.72 132.50 176.24 133.53 176.00 134.04 C 173.99 132.09 171.17 132.85 168.69 132.32 L 168.92 131.26 C 173.27 132.02 176.16 129.42 175.13 124.99 Z" />
</g>
<g id="#edf8f4ff">
<path fill="#edf8f4" opacity="1.00" d=" M 177.89 124.96 C 179.60 124.94 181.32 124.94 183.05 124.93 C 183.38 129.62 183.97 134.65 176.95 131.99 C 177.23 129.64 177.54 127.30 177.89 124.96 Z" />
</g>
<g id="#1b1838ff">
<path fill="#1b1838" opacity="1.00" d=" M 7.88 153.80 C 8.55 144.49 7.16 135.07 8.82 125.83 C 11.04 134.47 5.40 147.64 10.83 154.41 C 14.60 155.23 13.46 160.01 16.26 161.82 C 22.78 161.17 29.34 161.51 35.87 162.16 C 35.30 169.21 39.80 175.59 37.75 183.23 C 35.86 178.80 38.86 168.17 31.17 168.97 C 29.44 172.48 29.16 177.57 23.94 177.04 C 21.66 176.97 20.60 178.76 21.25 180.83 C 20.62 186.99 13.03 182.29 9.29 183.27 C 6.71 184.85 7.11 188.36 5.90 190.88 C 3.92 190.60 1.97 190.14 0.00 189.80 L 0.00 169.15 C 9.02 172.74 9.85 158.74 4.99 155.17 C 6.04 154.89 7.00 154.44 7.88 153.80 Z" />
</g>
<g id="#030206ff">
<path fill="#030206" opacity="1.00" d=" M 8.82 125.83 C 20.77 122.72 12.66 138.11 14.15 144.23 C 14.03 145.60 14.60 146.89 14.95 148.18 C 15.63 151.35 14.68 154.63 10.83 154.41 C 5.40 147.64 11.04 134.47 8.82 125.83 Z" />
</g>
<g id="#060408ff">
<path fill="#060408" opacity="1.00" d=" M 53.09 126.12 C 55.88 126.04 61.44 125.87 64.23 125.79 C 64.23 127.13 64.25 129.81 64.25 131.15 C 55.74 127.10 54.82 145.07 64.22 139.91 C 69.32 147.80 57.22 146.81 52.85 145.23 C 53.06 138.86 52.89 132.49 53.09 126.12 Z" />
<path fill="#060408" opacity="1.00" d=" M 0.00 154.99 C 1.66 155.04 3.32 155.09 4.99 155.17 C 9.85 158.74 9.02 172.74 0.00 169.15 L 0.00 154.99 Z" />
<path fill="#060408" opacity="1.00" d=" M 227.92 236.09 C 229.76 236.00 233.44 235.82 235.28 235.73 C 235.13 240.48 235.03 245.24 234.97 250.00 L 228.81 250.00 C 227.25 245.54 228.28 240.69 227.92 236.09 Z" />
</g>
<g id="#f53152ff">
<path fill="#f53152" opacity="1.00" d=" M 116.18 131.16 C 119.87 129.29 126.09 133.21 124.85 125.75 C 124.68 127.37 124.35 130.59 124.19 132.20 C 118.53 130.15 115.26 133.37 116.92 139.04 L 115.93 139.02 C 115.98 136.39 116.06 133.78 116.18 131.16 Z" />
</g>
<g id="#301f3cff">
<path fill="#301f3c" opacity="1.00" d=" M 64.22 139.91 C 54.82 145.07 55.74 127.10 64.25 131.15 C 58.56 131.69 55.30 140.56 64.22 139.91 Z" />
</g>
<g id="#56336aff">
<path fill="#56336a" opacity="1.00" d=" M 87.97 130.97 C 89.93 132.85 92.46 134.66 95.09 132.73 C 95.89 134.83 95.03 136.92 94.65 138.99 C 88.20 140.61 86.16 137.54 87.97 130.97 Z" />
</g>
<g id="#f3f60cff">
<path fill="#f3f60c" opacity="1.00" d=" M 205.89 138.97 C 202.55 129.68 210.05 134.18 213.01 130.95 C 212.99 133.65 212.96 136.35 212.93 139.06 C 210.66 139.51 208.34 139.54 206.06 139.84 L 205.89 138.97 Z" />
</g>
<g id="#8955a9ff">
<path fill="#8955a9" opacity="1.00" d=" M 95.09 132.73 C 97.66 132.51 100.20 132.93 102.77 133.13 C 99.18 139.74 105.58 140.77 110.00 138.96 L 110.03 139.97 C 110.25 141.50 110.71 144.57 110.93 146.10 C 120.06 148.08 129.88 148.32 138.99 146.12 C 139.11 148.88 138.40 151.88 139.74 154.44 C 144.49 155.45 149.29 154.30 154.04 153.97 C 156.09 154.00 158.15 154.08 160.20 154.02 C 163.89 153.70 161.53 141.59 159.94 140.04 C 155.28 139.87 150.63 139.96 145.97 139.83 L 145.90 139.05 C 146.38 139.04 147.32 139.03 147.79 139.02 C 149.85 139.03 151.92 139.00 153.98 138.95 C 156.58 138.88 159.19 138.94 161.79 139.13 C 163.95 141.30 161.50 147.45 165.96 147.02 C 170.09 148.03 166.96 142.01 168.77 139.78 C 169.15 144.55 168.84 149.33 167.87 154.01 C 163.33 154.21 158.79 154.59 154.31 155.29 C 155.01 158.18 153.98 163.15 150.30 161.22 C 148.54 160.25 146.56 159.65 144.78 160.94 L 144.25 161.10 C 139.92 159.81 133.59 161.63 131.94 156.07 C 127.84 149.80 124.21 156.00 126.03 161.01 L 125.12 161.10 C 124.59 158.60 127.00 153.22 123.00 154.03 C 114.13 158.46 121.38 146.37 115.13 147.93 C 113.84 147.83 112.56 147.73 111.28 147.62 C 108.57 147.17 105.81 147.11 103.08 146.96 C 102.08 143.13 101.32 138.46 96.15 139.83 C 95.77 139.62 95.02 139.20 94.65 138.99 C 95.03 136.92 95.89 134.83 95.09 132.73 Z" />
</g>
<g id="#d523d4ff">
<path fill="#d523d4" opacity="1.00" d=" M 116.92 139.04 C 115.26 133.37 118.53 130.15 124.19 132.20 C 122.10 134.93 115.57 131.66 119.01 138.80 C 123.07 139.26 127.16 139.35 131.22 139.78 C 126.46 139.83 121.72 140.04 116.96 140.00 L 116.92 139.04 Z" />
</g>
<g id="#f3f3f8ff">
<path fill="#f3f3f8" opacity="1.00" d=" M 147.79 139.02 C 145.86 134.56 149.79 131.18 154.15 132.95 C 154.07 134.95 154.02 136.95 153.98 138.95 C 151.92 139.00 149.85 139.03 147.79 139.02 Z" />
</g>
<g id="#c886f5ff">
<path fill="#c886f5" opacity="1.00" d=" M 154.15 132.95 C 157.05 132.66 159.97 132.34 162.87 132.00 C 164.81 132.03 166.76 132.11 168.69 132.32 C 171.17 132.85 173.99 132.09 176.00 134.04 C 176.01 135.68 176.05 137.33 176.11 138.98 C 172.99 138.13 170.54 138.39 168.77 139.78 C 166.96 142.01 170.09 148.03 165.96 147.02 C 161.50 147.45 163.95 141.30 161.79 139.13 C 159.19 138.94 156.58 138.88 153.98 138.95 C 154.02 136.95 154.07 134.95 154.15 132.95 Z" />
</g>
<g id="#fa9a95ff">
<path fill="#fa9a95" opacity="1.00" d=" M 217.85 132.75 C 228.55 132.50 239.39 132.01 250.00 133.83 L 250.00 161.99 C 240.02 161.78 229.93 162.72 220.02 161.23 C 216.98 161.28 212.57 162.79 213.54 158.02 C 214.85 153.64 210.39 152.90 207.18 153.88 C 205.56 149.31 207.14 144.47 206.06 139.84 C 208.34 139.54 210.66 139.51 212.93 139.06 C 214.93 137.08 213.81 132.15 217.85 132.75 Z" />
</g>
<g id="#b470ddff">
<path fill="#b470dd" opacity="1.00" d=" M 102.77 133.13 C 107.08 132.46 111.65 133.44 110.00 138.96 C 105.58 140.77 99.18 139.74 102.77 133.13 Z" />
</g>
<g id="#47028bff">
<path fill="#47028b" opacity="1.00" d=" M 140.00 139.66 C 141.47 139.51 144.43 139.20 145.90 139.05 L 145.97 139.83 C 144.05 140.65 141.89 140.45 140.00 139.66 Z" />
</g>
<g id="#5a3670ff">
<path fill="#5a3670" opacity="1.00" d=" M 168.77 139.78 C 170.54 138.39 172.99 138.13 176.11 138.98 L 177.19 139.02 L 176.94 139.95 C 165.49 136.12 172.07 148.48 168.79 154.27 L 167.87 154.01 C 168.84 149.33 169.15 144.55 168.77 139.78 Z" />
</g>
<g id="#398c06ff">
<path fill="#398c06" opacity="1.00" d=" M 177.19 139.02 C 181.77 138.99 186.34 138.99 190.93 138.98 L 191.04 139.98 L 190.03 140.00 C 185.66 139.99 181.30 139.99 176.94 139.95 L 177.19 139.02 Z" />
</g>
<g id="#adab61ff">
<path fill="#adab61" opacity="1.00" d=" M 190.93 138.98 C 193.96 138.99 196.97 138.97 200.02 139.00 L 199.95 139.94 L 198.98 140.00 L 198.00 140.02 C 196.00 140.01 194.01 140.00 192.02 140.00 L 191.04 139.98 L 190.93 138.98 Z" />
</g>
<g id="#73514bff">
<path fill="#73514b" opacity="1.00" d=" M 200.02 139.00 C 201.98 138.98 203.93 138.98 205.89 138.97 L 206.06 139.84 C 207.14 144.47 205.56 149.31 207.18 153.88 C 210.39 152.90 214.85 153.64 213.54 158.02 C 212.57 162.79 216.98 161.28 220.02 161.23 C 220.22 161.65 220.62 162.50 220.81 162.92 C 218.87 162.96 216.94 163.02 215.00 163.06 L 214.09 163.01 C 212.26 160.40 208.80 161.55 206.11 161.00 C 205.86 159.49 205.36 156.46 205.10 154.95 C 204.88 154.70 204.43 154.21 204.21 153.96 C 204.29 148.87 208.65 137.75 199.95 139.94 L 200.02 139.00 M 207.00 155.00 L 207.00 160.00 L 212.00 160.00 L 212.00 155.00 L 207.00 155.00 Z" />
</g>
<g id="#cb82f8ff">
<path fill="#cb82f8" opacity="1.00" d=" M 66.97 144.95 C 66.02 140.83 67.93 139.01 72.03 139.92 C 71.30 146.77 76.40 147.86 81.14 150.05 C 81.75 154.01 79.38 155.04 75.25 154.18 C 72.82 154.35 70.39 154.45 67.97 154.23 C 64.05 155.68 55.39 153.47 58.90 147.93 C 60.95 147.91 63.00 147.94 65.05 147.97 C 67.02 148.62 67.53 146.35 66.97 144.95 Z" />
</g>
<g id="#8858b0ff">
<path fill="#8858b0" opacity="1.00" d=" M 72.03 139.92 C 72.56 139.92 73.61 139.91 74.13 139.91 C 73.96 143.41 74.30 147.25 79.04 145.99 C 80.20 146.40 81.33 146.92 82.38 147.58 C 82.07 148.20 81.45 149.43 81.14 150.05 C 76.40 147.86 71.30 146.77 72.03 139.92 Z" />
</g>
<g id="#322d6aff">
<path fill="#322d6a" opacity="1.00" d=" M 79.04 145.99 C 81.35 144.79 79.35 139.65 82.18 140.04 C 89.02 136.89 86.43 143.70 88.20 146.70 C 92.65 146.58 97.84 147.72 94.93 153.78 C 91.60 155.51 86.12 153.85 85.51 158.66 C 80.97 158.34 90.05 148.79 82.38 147.58 C 81.33 146.92 80.20 146.40 79.04 145.99 Z" />
</g>
<g id="#06050aff">
<path fill="#06050a" opacity="1.00" d=" M 90.25 140.10 C 96.95 135.07 96.96 147.11 92.00 146.04 C 88.62 146.78 87.85 141.57 90.25 140.10 Z" />
</g>
<g id="#55336bff">
<path fill="#55336b" opacity="1.00" d=" M 96.15 139.83 C 101.32 138.46 102.08 143.13 103.08 146.96 C 97.53 147.81 93.27 147.25 96.15 139.83 Z" />
</g>
<g id="#aa6bd2ff">
<path fill="#aa6bd2" opacity="1.00" d=" M 110.03 139.97 C 111.76 139.98 115.23 140.00 116.96 140.00 C 121.72 140.04 126.46 139.83 131.22 139.78 C 132.51 139.86 133.80 139.92 135.09 139.97 C 136.42 140.01 137.75 140.02 139.08 139.99 C 139.03 142.03 139.02 144.07 138.99 146.12 C 129.88 148.32 120.06 148.08 110.93 146.10 C 110.71 144.57 110.25 141.50 110.03 139.97 Z" />
</g>
<g id="#523265ff">
<path fill="#523265" opacity="1.00" d=" M 139.08 139.99 L 140.00 139.66 C 139.96 144.58 140.01 149.52 139.74 154.44 C 138.40 151.88 139.11 148.88 138.99 146.12 C 139.02 144.07 139.03 142.03 139.08 139.99 Z" />
</g>
<g id="#07050aff">
<path fill="#07050a" opacity="1.00" d=" M 140.00 139.66 C 141.89 140.45 144.05 140.65 145.97 139.83 C 150.63 139.96 155.28 139.87 159.94 140.04 C 159.95 144.69 160.54 149.37 160.20 154.02 C 158.15 154.08 156.09 154.00 154.04 153.97 C 154.31 150.56 155.11 146.32 150.88 146.05 C 143.72 144.55 149.26 158.81 139.74 154.44 C 140.01 149.52 139.96 144.58 140.00 139.66 Z" />
</g>
<g id="#402650ff">
<path fill="#402650" opacity="1.00" d=" M 159.94 140.04 C 161.53 141.59 163.89 153.70 160.20 154.02 C 160.54 149.37 159.95 144.69 159.94 140.04 Z" />
</g>
<g id="#0b080fff">
<path fill="#0b080f" opacity="1.00" d=" M 168.79 154.27 C 172.07 148.48 165.49 136.12 176.94 139.95 C 181.30 139.99 185.66 139.99 190.03 140.00 C 188.89 144.56 193.73 156.74 184.23 153.96 C 182.04 151.81 185.19 148.09 182.76 146.03 C 178.83 144.09 174.84 148.00 176.41 151.65 C 177.15 155.50 171.37 153.72 168.79 154.27 Z" />
</g>
<g id="#653e7eff">
<path fill="#653e7e" opacity="1.00" d=" M 190.03 140.00 L 191.04 139.98 L 192.02 140.00 C 191.91 144.59 192.32 149.22 191.86 153.81 C 184.48 155.12 176.26 155.38 168.79 154.27 C 171.37 153.72 177.15 155.50 176.41 151.65 C 174.84 148.00 178.83 144.09 182.76 146.03 C 185.19 148.09 182.04 151.81 184.23 153.96 C 193.73 156.74 188.89 144.56 190.03 140.00 Z" />
</g>
<g id="#bd78e7ff">
<path fill="#bd78e7" opacity="1.00" d=" M 192.02 140.00 C 194.01 140.00 196.00 140.01 198.00 140.02 C 198.84 146.25 194.01 158.69 205.10 154.95 C 205.36 156.46 205.86 159.49 206.11 161.00 C 206.12 161.43 206.13 162.28 206.13 162.71 C 181.84 160.50 157.52 161.85 133.31 163.19 C 133.50 170.40 119.91 168.49 126.98 175.88 C 126.43 176.11 125.32 176.58 124.77 176.81 C 124.44 180.15 125.03 185.72 120.28 183.81 C 115.78 180.83 120.55 174.40 118.16 170.22 C 123.55 169.72 126.26 166.65 126.03 161.01 C 132.01 162.04 138.32 162.84 144.25 161.10 L 144.78 160.94 C 146.16 161.01 148.92 161.15 150.30 161.22 C 153.98 163.15 155.01 158.18 154.31 155.29 C 158.79 154.59 163.33 154.21 167.87 154.01 L 168.79 154.27 C 176.26 155.38 184.48 155.12 191.86 153.81 C 192.32 149.22 191.91 144.59 192.02 140.00 Z" />
</g>
<g id="#8951aaff">
<path fill="#8951aa" opacity="1.00" d=" M 198.00 140.02 L 198.98 140.00 C 200.54 143.68 196.06 153.21 200.91 154.03 C 201.73 154.01 203.38 153.98 204.21 153.96 C 204.43 154.21 204.88 154.70 205.10 154.95 C 194.01 158.69 198.84 146.25 198.00 140.02 Z" />
</g>
<g id="#4c2f5dff">
<path fill="#4c2f5d" opacity="1.00" d=" M 198.98 140.00 L 199.95 139.94 C 200.37 144.58 199.05 149.58 200.91 154.03 C 196.06 153.21 200.54 143.68 198.98 140.00 Z" />
</g>
<g id="#120b0eff">
<path fill="#120b0e" opacity="1.00" d=" M 199.95 139.94 C 208.65 137.75 204.29 148.87 204.21 153.96 C 203.38 153.98 201.73 154.01 200.91 154.03 C 199.05 149.58 200.37 144.58 199.95 139.94 Z" />
</g>
<g id="#a869cfff">
<path fill="#a869cf" opacity="1.00" d=" M 64.64 147.17 C 65.15 146.15 65.92 145.41 66.97 144.95 C 67.53 146.35 67.02 148.62 65.05 147.97 L 64.64 147.17 Z" />
</g>
<g id="#4e2e61ff">
<path fill="#4e2e61" opacity="1.00" d=" M 139.74 154.44 C 149.26 158.81 143.72 144.55 150.88 146.05 C 155.11 146.32 154.31 150.56 154.04 153.97 C 149.29 154.30 144.49 155.45 139.74 154.44 Z" />
</g>
<g id="#121026ff">
<path fill="#121026" opacity="1.00" d=" M 14.95 148.18 C 17.18 148.77 19.77 148.00 21.78 149.20 C 23.54 152.42 24.55 156.74 29.98 154.06 C 37.82 157.15 34.24 150.57 36.66 147.75 C 40.10 147.46 43.31 147.63 43.95 151.33 C 43.29 155.34 47.83 153.31 50.12 154.89 C 50.33 157.62 50.19 160.41 50.88 163.09 C 51.53 167.18 53.60 171.32 58.99 169.02 C 60.84 180.93 47.55 172.02 44.04 178.00 C 46.74 184.65 41.68 184.66 37.75 183.23 C 39.80 175.59 35.30 169.21 35.87 162.16 C 29.34 161.51 22.78 161.17 16.26 161.82 C 13.46 160.01 14.60 155.23 10.83 154.41 C 14.68 154.63 15.63 151.35 14.95 148.18 Z" />
<path fill="#121026" opacity="1.00" d=" M 122.16 206.31 C 123.09 206.45 124.01 206.63 124.93 206.85 C 124.95 208.21 124.98 209.57 125.01 210.93 C 123.80 216.37 131.09 213.11 134.28 214.63 C 128.18 212.62 120.72 215.96 126.18 221.88 C 135.42 220.70 144.71 221.23 154.00 221.16 C 159.20 233.98 136.53 220.76 139.52 233.59 C 138.87 235.94 136.29 236.42 134.20 235.95 C 132.61 233.19 132.94 227.83 128.95 227.28 C 122.96 229.61 126.41 217.68 119.11 221.00 C 116.39 221.05 113.68 221.03 110.98 220.95 C 111.23 218.02 109.66 213.55 113.86 213.74 C 119.37 213.86 116.52 205.84 122.16 206.31 Z" />
</g>
<g id="#b774e0ff">
<path fill="#b774e0" opacity="1.00" d=" M 50.19 152.86 C 50.61 148.33 54.05 146.09 58.90 147.93 C 55.39 153.47 64.05 155.68 67.97 154.23 C 68.67 159.70 63.53 164.08 58.83 160.27 C 59.92 153.86 53.83 154.81 50.19 152.86 Z" />
</g>
<g id="#050308ff">
<path fill="#050308" opacity="1.00" d=" M 96.01 153.94 C 92.57 143.52 106.21 149.66 111.28 147.62 C 112.56 147.73 113.84 147.83 115.13 147.93 C 119.83 159.39 102.07 152.04 96.01 153.94 Z" />
</g>
<g id="#9e62c3ff">
<path fill="#9e62c3" opacity="1.00" d=" M 126.03 161.01 C 124.21 156.00 127.84 149.80 131.94 156.07 C 133.59 161.63 139.92 159.81 144.25 161.10 C 138.32 162.84 132.01 162.04 126.03 161.01 Z" />
</g>
<g id="#0c0a17ff">
<path fill="#0c0a17" opacity="1.00" d=" M 74.58 154.64 C 76.20 154.77 79.43 155.05 81.04 155.18 C 83.85 164.22 72.07 161.57 74.58 154.64 Z" />
</g>
<g id="#07060eff">
<path fill="#07060e" opacity="1.00" d=" M 119.25 155.10 L 123.99 154.98 C 128.60 164.40 112.72 160.44 119.25 155.10 Z" />
</g>
<g id="#070406ff">
<path fill="#070406" opacity="1.00" d=" M 207.00 155.00 L 212.00 155.00 L 212.00 160.00 L 207.00 160.00 L 207.00 155.00 Z" />
</g>
<g id="#995fbeff">
<path fill="#995fbe" opacity="1.00" d=" M 144.78 160.94 C 146.56 159.65 148.54 160.25 150.30 161.22 C 148.92 161.15 146.16 161.01 144.78 160.94 Z" />
</g>
<g id="#9e63c5ff">
<path fill="#9e63c5" opacity="1.00" d=" M 116.69 168.71 C 114.97 161.95 120.16 161.26 125.12 161.10 L 126.03 161.01 C 126.26 166.65 123.55 169.72 118.16 170.22 C 120.55 174.40 115.78 180.83 120.28 183.81 C 125.03 185.72 124.44 180.15 124.77 176.81 C 124.84 178.88 124.92 180.95 124.98 183.02 L 125.01 184.01 C 124.27 187.89 125.00 193.65 131.00 191.05 C 139.29 189.99 152.57 194.39 156.06 184.00 C 169.67 184.04 183.29 183.89 196.91 184.05 C 198.18 188.31 201.35 190.89 205.79 190.94 C 205.84 192.71 205.93 196.25 205.98 198.02 L 205.97 198.98 C 195.50 194.05 202.39 209.69 192.68 205.83 L 193.18 205.15 C 197.68 206.09 197.40 201.45 198.45 198.43 C 200.79 196.71 208.58 198.75 204.97 192.25 C 193.85 190.93 182.64 190.79 171.46 191.01 C 163.26 188.99 154.61 190.07 146.74 192.70 C 145.68 195.78 145.46 199.73 140.37 198.45 C 135.52 204.46 142.56 209.53 148.34 206.43 C 151.47 206.15 154.64 205.93 157.78 205.59 C 160.90 206.40 161.29 209.15 161.11 211.98 C 151.11 211.83 141.10 212.37 131.12 211.88 C 130.97 206.40 133.39 198.34 125.68 198.29 C 128.34 189.49 119.68 194.41 117.33 189.63 C 115.58 184.97 119.04 174.77 110.99 176.92 C 111.18 172.73 109.18 166.16 116.69 168.71 Z" />
</g>
<g id="#cc82fbff">
<path fill="#cc82fb" opacity="1.00" d=" M 133.31 163.19 C 157.52 161.85 181.84 160.50 206.13 162.71 C 216.56 159.98 210.40 172.83 212.05 178.01 C 215.01 187.42 203.83 183.06 206.40 176.65 C 180.01 175.02 153.44 176.61 126.98 175.88 C 119.91 168.49 133.50 170.40 133.31 163.19 Z" />
</g>
<g id="#8d59aaff">
<path fill="#8d59aa" opacity="1.00" d=" M 206.11 161.00 C 208.80 161.55 212.26 160.40 214.09 163.01 C 214.36 169.70 212.99 176.63 214.71 183.21 L 214.63 183.96 C 214.21 185.75 213.87 187.57 213.57 189.39 L 213.08 188.78 C 212.64 185.99 214.41 180.53 208.02 183.98 C 204.46 183.47 206.09 188.64 205.79 190.94 C 201.35 190.89 198.18 188.31 196.91 184.05 C 199.65 183.86 202.74 184.77 205.19 183.24 C 205.49 181.60 206.10 178.30 206.40 176.65 C 203.83 183.06 215.01 187.42 212.05 178.01 C 210.40 172.83 216.56 159.98 206.13 162.71 C 206.13 162.28 206.12 161.43 206.11 161.00 Z" />
</g>
<g id="#f98b86ff">
<path fill="#f98b86" opacity="1.00" d=" M 220.02 161.23 C 229.93 162.72 240.02 161.78 250.00 161.99 L 250.00 191.99 C 240.11 191.73 230.24 192.35 220.36 192.45 C 217.80 192.45 215.00 191.67 213.57 189.39 C 213.87 187.57 214.21 185.75 214.63 183.96 C 219.84 186.33 223.73 181.34 221.43 176.11 C 221.21 171.93 221.45 167.72 220.98 163.56 L 220.81 162.92 C 220.62 162.50 220.22 161.65 220.02 161.23 Z" />
</g>
<g id="#090814ff">
<path fill="#090814" opacity="1.00" d=" M 110.00 164.98 C 110.92 162.64 111.37 158.83 115.98 161.99 C 117.56 167.33 115.60 169.44 110.11 168.33 C 110.43 178.00 108.72 189.26 110.96 198.01 C 114.27 198.80 117.94 199.65 117.34 203.95 C 112.15 208.50 103.95 202.36 97.68 204.26 C 93.56 197.32 109.18 204.60 104.08 194.96 C 104.90 189.95 98.72 190.27 95.91 187.97 C 95.85 187.47 95.75 186.47 95.70 185.97 C 106.93 186.76 102.57 176.78 104.02 170.09 C 104.37 166.60 109.58 168.13 110.00 164.98 Z" />
</g>
<g id="#040309ff">
<path fill="#040309" opacity="1.00" d=" M 50.88 163.09 C 58.26 162.99 65.64 162.87 73.02 163.07 C 72.80 164.58 72.34 167.59 72.12 169.09 C 67.74 169.18 63.37 169.01 58.99 169.02 C 53.60 171.32 51.53 167.18 50.88 163.09 Z" />
</g>
<g id="#2b275dff">
<path fill="#2b275d" opacity="1.00" d=" M 72.12 169.09 C 76.37 168.77 72.33 158.92 79.76 163.02 C 83.28 165.69 78.40 172.58 82.42 174.51 C 91.51 173.29 88.46 183.99 95.70 185.97 C 95.75 186.47 95.85 187.47 95.91 187.97 C 95.16 192.44 100.02 191.96 103.04 193.13 C 103.01 197.00 99.30 198.83 95.72 198.79 C 88.58 199.52 88.91 211.29 95.56 212.55 C 98.44 213.01 96.51 221.45 99.84 218.01 C 98.44 211.89 110.52 206.83 109.99 213.93 C 100.94 210.18 106.49 224.29 97.10 221.20 C 92.34 222.25 94.70 227.92 94.64 231.36 C 95.27 241.68 110.62 234.94 116.34 235.37 C 117.42 230.61 118.51 225.85 119.11 221.00 C 126.41 217.68 122.96 229.61 128.95 227.28 C 132.94 227.83 132.61 233.19 134.20 235.95 C 136.29 236.42 138.87 235.94 139.52 233.59 C 136.53 220.76 159.20 233.98 154.00 221.16 C 160.62 218.95 162.48 221.41 163.18 227.04 C 172.30 231.98 165.11 216.33 174.02 221.01 C 177.39 220.93 180.79 220.99 184.17 221.07 C 185.28 229.72 175.08 227.70 171.40 233.82 C 171.25 228.14 162.58 226.72 160.98 232.08 C 160.29 236.44 167.84 235.72 166.82 239.70 C 163.70 242.75 156.63 244.65 160.04 250.00 L 145.81 250.00 C 142.89 241.61 158.24 243.06 152.74 235.11 C 147.96 235.55 137.85 231.78 139.82 240.88 C 138.79 245.71 131.97 242.65 128.86 241.38 C 120.35 242.35 111.74 240.46 103.29 242.30 C 100.41 243.77 100.95 247.18 100.85 250.00 L 96.14 250.00 C 99.23 238.79 85.91 244.02 80.20 243.03 C 79.05 245.32 78.50 247.90 76.96 250.00 L 75.97 250.00 C 75.22 245.75 74.69 241.43 75.02 237.12 C 79.07 234.82 91.39 237.05 86.84 230.20 C 80.80 229.28 65.96 223.15 66.30 234.31 C 62.80 234.91 58.47 235.04 56.18 238.26 C 55.97 242.19 56.85 246.08 57.14 250.00 L 52.98 250.00 C 56.74 243.27 48.73 242.46 43.98 243.16 C 43.93 240.09 40.82 234.71 45.38 234.48 C 51.94 234.23 48.51 221.99 58.00 225.83 C 57.28 221.10 51.35 222.97 49.17 219.69 C 48.78 213.46 49.28 207.22 48.89 201.00 C 44.25 199.43 47.55 206.48 43.86 206.77 C 35.12 207.68 36.04 218.98 39.01 225.02 C 39.10 230.68 31.98 231.10 28.75 227.74 C 28.74 226.06 28.73 222.71 28.72 221.04 C 29.44 215.37 26.36 205.84 33.20 203.11 C 36.98 200.06 25.26 199.03 24.52 201.42 C 24.45 207.17 11.96 211.74 14.99 202.04 C 11.26 194.67 22.90 198.53 20.59 191.45 C 20.93 188.02 27.52 190.02 26.89 186.38 C 23.32 186.46 21.53 184.21 21.25 180.83 C 20.60 178.76 21.66 176.97 23.94 177.04 C 18.67 184.19 32.70 181.74 29.76 188.70 C 28.92 192.66 21.60 191.07 22.99 195.90 C 24.54 201.05 33.14 195.65 36.18 198.76 C 37.55 201.05 37.18 205.83 40.79 205.61 C 46.34 205.11 41.83 194.04 49.75 198.06 C 54.09 202.89 50.94 210.26 51.98 216.03 C 50.48 222.19 62.97 219.06 58.99 226.78 C 55.82 228.91 49.18 228.95 51.99 235.04 C 59.22 238.15 59.41 229.46 64.60 227.54 C 71.42 223.75 66.33 214.48 68.20 208.28 C 72.43 205.84 81.77 203.10 81.87 210.13 C 82.29 216.61 67.18 211.52 71.94 219.96 C 79.95 218.68 81.05 231.32 89.36 226.32 C 90.44 216.18 85.14 204.28 89.76 194.10 C 87.66 188.16 91.43 176.02 81.46 176.38 C 75.06 175.35 68.04 172.85 61.87 175.81 C 56.17 177.87 49.80 176.00 44.04 178.00 C 47.55 172.02 60.84 180.93 58.99 169.02 C 63.37 169.01 67.74 169.18 72.12 169.09 Z" />
</g>
<g id="#3f2851ff">
<path fill="#3f2851" opacity="1.00" d=" M 214.09 163.01 L 215.00 163.06 C 214.94 169.77 215.22 176.51 214.71 183.21 C 212.99 176.63 214.36 169.70 214.09 163.01 Z" />
</g>
<g id="#0b0708ff">
<path fill="#0b0708" opacity="1.00" d=" M 215.00 163.06 C 216.94 163.02 218.87 162.96 220.81 162.92 L 220.98 163.56 C 217.21 169.36 225.45 184.90 214.71 183.21 C 215.22 176.51 214.94 169.77 215.00 163.06 Z" />
</g>
<g id="#76494aff">
<path fill="#76494a" opacity="1.00" d=" M 214.71 183.21 C 225.45 184.90 217.21 169.36 220.98 163.56 C 221.45 167.72 221.21 171.93 221.43 176.11 C 223.73 181.34 219.84 186.33 214.63 183.96 L 214.71 183.21 Z" />
</g>
<g id="#353070ff">
<path fill="#353070" opacity="1.00" d=" M 31.17 168.97 C 38.86 168.17 35.86 178.80 37.75 183.23 C 41.68 184.66 46.74 184.65 44.04 178.00 C 49.80 176.00 56.17 177.87 61.87 175.81 C 68.04 172.85 75.06 175.35 81.46 176.38 C 91.43 176.02 87.66 188.16 89.76 194.10 C 85.14 204.28 90.44 216.18 89.36 226.32 C 81.05 231.32 79.95 218.68 71.94 219.96 C 67.18 211.52 82.29 216.61 81.87 210.13 C 81.77 203.10 72.43 205.84 68.20 208.28 C 66.33 214.48 71.42 223.75 64.60 227.54 C 59.41 229.46 59.22 238.15 51.99 235.04 C 49.18 228.95 55.82 228.91 58.99 226.78 C 62.97 219.06 50.48 222.19 51.98 216.03 C 50.94 210.26 54.09 202.89 49.75 198.06 C 41.83 194.04 46.34 205.11 40.79 205.61 C 37.18 205.83 37.55 201.05 36.18 198.76 C 33.14 195.65 24.54 201.05 22.99 195.90 C 21.60 191.07 28.92 192.66 29.76 188.70 C 32.70 181.74 18.67 184.19 23.94 177.04 C 29.16 177.57 29.44 172.48 31.17 168.97 Z" />
</g>
<g id="#8e58aeff">
<path fill="#8e58ae" opacity="1.00" d=" M 124.77 176.81 C 125.32 176.58 126.43 176.11 126.98 175.88 C 153.44 176.61 180.01 175.02 206.40 176.65 C 179.20 177.26 151.97 177.11 124.77 176.81 Z" />
</g>
<g id="#8854a8ff">
<path fill="#8854a8" opacity="1.00" d=" M 110.99 176.92 C 119.04 174.77 115.58 184.97 117.33 189.63 C 119.68 194.41 128.34 189.49 125.68 198.29 C 133.39 198.34 130.97 206.40 131.12 211.88 C 141.10 212.37 151.11 211.83 161.11 211.98 C 171.07 212.02 181.03 212.01 190.99 211.99 C 191.00 212.45 191.01 213.37 191.01 213.83 C 173.19 214.67 155.39 212.63 137.58 213.45 C 133.66 212.27 127.52 215.18 125.01 210.93 C 124.98 209.57 124.95 208.21 124.93 206.85 C 124.76 203.68 125.37 198.27 120.66 199.16 C 112.73 199.21 121.22 187.72 111.02 191.94 C 110.98 186.94 110.97 181.92 110.99 176.92 Z" />
</g>
<g id="#352240ff">
<path fill="#352240" opacity="1.00" d=" M 124.77 176.81 C 151.97 177.11 179.20 177.26 206.40 176.65 C 206.10 178.30 205.49 181.60 205.19 183.24 C 204.69 183.22 203.68 183.18 203.18 183.16 C 203.67 181.51 204.05 179.81 204.08 178.08 C 178.10 177.96 152.10 177.88 126.12 178.10 C 125.98 179.72 125.97 181.36 125.95 182.99 L 124.98 183.02 C 124.92 180.95 124.84 178.88 124.77 176.81 Z" />
</g>
<g id="#030204ff">
<path fill="#030204" opacity="1.00" d=" M 126.12 178.10 C 152.10 177.88 178.10 177.96 204.08 178.08 C 204.05 179.81 203.67 181.51 203.18 183.16 C 177.44 182.79 151.69 183.11 125.95 182.99 C 125.97 181.36 125.98 179.72 126.12 178.10 Z" />
</g>
<g id="#211d48ff">
<path fill="#211d48" opacity="1.00" d=" M 21.25 180.83 C 21.53 184.21 23.32 186.46 26.89 186.38 C 27.52 190.02 20.93 188.02 20.59 191.45 C 22.90 198.53 11.26 194.67 14.99 202.04 C 11.96 211.74 24.45 207.17 24.52 201.42 C 25.26 199.03 36.98 200.06 33.20 203.11 C 26.36 205.84 29.44 215.37 28.72 221.04 C 24.31 219.68 19.44 222.85 15.26 220.82 C 13.56 218.38 13.94 214.03 9.99 214.03 C 6.15 214.04 8.06 208.97 8.25 206.44 C 11.27 205.46 15.34 204.28 14.00 200.20 C 9.31 200.04 4.65 199.53 0.00 198.93 L 0.00 189.80 C 1.97 190.14 3.92 190.60 5.90 190.88 C 7.11 188.36 6.71 184.85 9.29 183.27 C 13.03 182.29 20.62 186.99 21.25 180.83 Z" />
</g>
<g id="#513263ff">
<path fill="#513263" opacity="1.00" d=" M 124.98 183.02 L 125.95 182.99 C 151.69 183.11 177.44 182.79 203.18 183.16 C 203.68 183.18 204.69 183.22 205.19 183.24 C 202.74 184.77 199.65 183.86 196.91 184.05 C 183.29 183.89 169.67 184.04 156.06 184.00 C 145.70 183.99 135.36 183.99 125.01 184.01 L 124.98 183.02 Z" />
</g>
<g id="#8955abff">
<path fill="#8955ab" opacity="1.00" d=" M 125.01 184.01 C 135.36 183.99 145.70 183.99 156.06 184.00 C 152.57 194.39 139.29 189.99 131.00 191.05 C 125.00 193.65 124.27 187.89 125.01 184.01 Z" />
</g>
<g id="#4f3148ff">
<path fill="#4f3148" opacity="1.00" d=" M 205.79 190.94 C 206.09 188.64 204.46 183.47 208.02 183.98 C 214.41 180.53 212.64 185.99 213.08 188.78 C 211.76 191.06 215.18 198.13 211.15 198.05 C 211.00 194.30 215.20 185.61 209.21 185.36 C 204.24 186.68 208.17 194.21 206.97 198.02 L 205.98 198.02 C 205.93 196.25 205.84 192.71 205.79 190.94 Z" />
</g>
<g id="#070505ff">
<path fill="#070505" opacity="1.00" d=" M 209.21 185.36 C 215.20 185.61 211.00 194.30 211.15 198.05 C 209.75 198.08 208.36 198.07 206.97 198.02 C 208.17 194.21 204.24 186.68 209.21 185.36 Z" />
</g>
<g id="#201d46ff">
<path fill="#201d46" opacity="1.00" d=" M 95.91 187.97 C 98.72 190.27 104.90 189.95 104.08 194.96 C 109.18 204.60 93.56 197.32 97.68 204.26 C 103.95 202.36 112.15 208.50 117.34 203.95 C 118.03 206.09 120.32 205.96 122.16 206.31 C 116.52 205.84 119.37 213.86 113.86 213.74 C 109.66 213.55 111.23 218.02 110.98 220.95 C 109.88 219.34 109.55 217.00 109.99 213.93 C 110.52 206.83 98.44 211.89 99.84 218.01 C 96.51 221.45 98.44 213.01 95.56 212.55 C 88.91 211.29 88.58 199.52 95.72 198.79 C 99.30 198.83 103.01 197.00 103.04 193.13 C 100.02 191.96 95.16 192.44 95.91 187.97 Z" />
</g>
<g id="#f97c76ff">
<path fill="#f97c76" opacity="1.00" d=" M 213.08 188.78 L 213.57 189.39 C 215.00 191.67 217.80 192.45 220.36 192.45 C 230.24 192.35 240.11 191.73 250.00 191.99 L 250.00 250.00 L 236.01 250.00 C 235.48 245.32 237.20 240.18 235.28 235.73 C 223.06 238.12 231.57 224.78 226.63 220.49 C 219.88 222.44 221.23 217.08 220.78 213.13 C 218.17 212.22 212.78 213.74 213.47 209.35 C 214.88 205.28 209.32 204.97 206.77 206.21 C 206.45 203.80 206.19 201.39 205.97 198.98 L 205.98 198.02 L 206.97 198.02 C 208.36 198.07 209.75 198.08 211.15 198.05 C 215.18 198.13 211.76 191.06 213.08 188.78 Z" />
</g>
<g id="#b572deff">
<path fill="#b572de" opacity="1.00" d=" M 146.74 192.70 C 154.61 190.07 163.26 188.99 171.46 191.01 C 165.51 193.99 154.11 187.65 152.44 196.41 C 148.13 197.48 143.76 202.91 148.34 206.43 C 142.56 209.53 135.52 204.46 140.37 198.45 C 145.46 199.73 145.68 195.78 146.74 192.70 Z" />
</g>
<g id="#cc82faff">
<path fill="#cc82fa" opacity="1.00" d=" M 171.46 191.01 C 182.64 190.79 193.85 190.93 204.97 192.25 C 208.58 198.75 200.79 196.71 198.45 198.43 C 197.40 201.45 197.68 206.09 193.18 205.15 C 181.42 206.52 169.54 206.01 157.78 205.59 C 154.64 205.93 151.47 206.15 148.34 206.43 C 143.76 202.91 148.13 197.48 152.44 196.41 C 154.11 187.65 165.51 193.99 171.46 191.01 Z" />
</g>
<g id="#533267ff">
<path fill="#533267" opacity="1.00" d=" M 111.02 191.94 C 121.22 187.72 112.73 199.21 120.66 199.16 C 125.37 198.27 124.76 203.68 124.93 206.85 C 124.01 206.63 123.09 206.45 122.16 206.31 C 120.32 205.96 118.03 206.09 117.34 203.95 C 117.94 199.65 114.27 198.80 110.96 198.01 C 110.96 195.98 110.98 193.96 111.02 191.94 Z" />
</g>
<g id="#171533ff">
<path fill="#171533" opacity="1.00" d=" M 0.00 198.93 C 4.65 199.53 9.31 200.04 14.00 200.20 C 15.34 204.28 11.27 205.46 8.25 206.44 C 8.06 208.97 6.15 214.04 9.99 214.03 C 13.94 214.03 13.56 218.38 15.26 220.82 C 19.44 222.85 24.31 219.68 28.72 221.04 C 28.73 222.71 28.74 226.06 28.75 227.74 C 28.26 232.21 30.96 244.81 23.50 240.61 C 25.94 232.32 10.26 232.64 14.20 240.67 C 17.07 243.63 20.93 245.85 22.20 250.00 L 0.00 250.00 L 0.00 198.93 Z" />
</g>
<g id="#553451ff">
<path fill="#553451" opacity="1.00" d=" M 192.68 205.83 C 202.39 209.69 195.50 194.05 205.97 198.98 C 206.19 201.39 206.45 203.80 206.77 206.21 C 203.72 204.79 205.64 197.98 200.28 200.03 C 202.54 207.15 196.71 207.61 191.82 206.97 C 192.03 206.69 192.46 206.11 192.68 205.83 Z" />
</g>
<g id="#120e21ff">
<path fill="#120e21" opacity="1.00" d=" M 200.28 200.03 C 205.64 197.98 203.72 204.79 206.77 206.21 C 214.46 204.30 210.01 215.92 216.77 214.74 C 220.73 213.92 220.06 217.58 219.90 220.37 C 218.23 220.68 216.55 220.94 214.88 221.15 C 211.97 219.75 206.93 222.20 205.76 218.33 C 204.56 209.21 188.20 218.30 191.82 206.97 C 196.71 207.61 202.54 207.15 200.28 200.03 Z" />
</g>
<g id="#221f4bff">
<path fill="#221f4b" opacity="1.00" d=" M 43.86 206.77 C 47.55 206.48 44.25 199.43 48.89 201.00 C 49.28 207.22 48.78 213.46 49.17 219.69 C 51.35 222.97 57.28 221.10 58.00 225.83 C 48.51 221.99 51.94 234.23 45.38 234.48 C 40.82 234.71 43.93 240.09 43.98 243.16 C 38.19 244.81 27.20 238.80 29.85 250.00 L 22.20 250.00 C 20.93 245.85 17.07 243.63 14.20 240.67 C 10.26 232.64 25.94 232.32 23.50 240.61 C 30.96 244.81 28.26 232.21 28.75 227.74 C 31.98 231.10 39.10 230.68 39.01 225.02 C 36.04 218.98 35.12 207.68 43.86 206.77 Z" />
</g>
<g id="#7f453fff">
<path fill="#7f453f" opacity="1.00" d=" M 206.77 206.21 C 209.32 204.97 214.88 205.28 213.47 209.35 C 212.78 213.74 218.17 212.22 220.78 213.13 C 221.23 217.08 219.88 222.44 226.63 220.49 C 231.57 224.78 223.06 238.12 235.28 235.73 C 233.44 235.82 229.76 236.00 227.92 236.09 C 227.59 235.04 227.28 233.98 226.98 232.92 C 226.03 229.11 229.80 220.33 223.09 220.90 C 222.02 220.74 220.95 220.57 219.90 220.37 C 220.06 217.58 220.73 213.92 216.77 214.74 C 210.01 215.92 214.46 204.30 206.77 206.21 Z" />
</g>
<g id="#332e6cff">
<path fill="#332e6c" opacity="1.00" d=" M 190.99 211.99 C 191.13 210.31 190.69 208.40 191.82 206.97 C 188.20 218.30 204.56 209.21 205.76 218.33 C 206.93 222.20 211.97 219.75 214.88 221.15 C 213.08 226.99 222.95 225.66 220.04 232.06 C 221.05 235.54 218.46 236.23 215.66 236.71 C 214.04 240.81 214.31 245.57 213.88 250.00 L 160.04 250.00 C 156.63 244.65 163.70 242.75 166.82 239.70 C 167.84 235.72 160.29 236.44 160.98 232.08 C 162.58 226.72 171.25 228.14 171.40 233.82 C 175.08 227.70 185.28 229.72 184.17 221.07 C 189.67 223.30 190.98 218.89 191.00 214.90 L 191.01 213.83 C 191.01 213.37 191.00 212.45 190.99 211.99 M 207.23 228.22 C 202.61 232.48 207.58 237.92 212.34 235.23 C 215.84 231.16 211.00 227.35 207.23 228.22 Z" />
</g>
<g id="#442954ff">
<path fill="#442954" opacity="1.00" d=" M 125.01 210.93 C 127.52 215.18 133.66 212.27 137.58 213.45 C 155.39 212.63 173.19 214.67 191.01 213.83 L 191.00 214.90 C 172.10 214.92 153.17 215.39 134.28 214.63 C 131.09 213.11 123.80 216.37 125.01 210.93 Z" />
</g>
<g id="#353071ff">
<path fill="#353071" opacity="1.00" d=" M 97.10 221.20 C 106.49 224.29 100.94 210.18 109.99 213.93 C 109.55 217.00 109.88 219.34 110.98 220.95 C 113.68 221.03 116.39 221.05 119.11 221.00 C 118.51 225.85 117.42 230.61 116.34 235.37 C 110.62 234.94 95.27 241.68 94.64 231.36 C 94.70 227.92 92.34 222.25 97.10 221.20 Z" />
</g>
<g id="#06050dff">
<path fill="#06050d" opacity="1.00" d=" M 126.18 221.88 C 120.72 215.96 128.18 212.62 134.28 214.63 C 153.17 215.39 172.10 214.92 191.00 214.90 C 190.98 218.89 189.67 223.30 184.17 221.07 C 180.79 220.99 177.39 220.93 174.02 221.01 C 165.11 216.33 172.30 231.98 163.18 227.04 C 162.48 221.41 160.62 218.95 154.00 221.16 C 144.71 221.23 135.42 220.70 126.18 221.88 Z" />
</g>
<g id="#1c1a3eff">
<path fill="#1c1a3e" opacity="1.00" d=" M 214.88 221.15 C 216.55 220.94 218.23 220.68 219.90 220.37 C 220.95 220.57 222.02 220.74 223.09 220.90 C 218.34 224.43 219.49 241.07 226.98 232.92 C 227.28 233.98 227.59 235.04 227.92 236.09 C 228.28 240.69 227.25 245.54 228.81 250.00 L 213.88 250.00 C 214.31 245.57 214.04 240.81 215.66 236.71 C 218.46 236.23 221.05 235.54 220.04 232.06 C 222.95 225.66 213.08 226.99 214.88 221.15 Z" />
</g>
<g id="#080507ff">
<path fill="#080507" opacity="1.00" d=" M 223.09 220.90 C 229.80 220.33 226.03 229.11 226.98 232.92 C 219.49 241.07 218.34 224.43 223.09 220.90 Z" />
</g>
<g id="#181635ff">
<path fill="#181635" opacity="1.00" d=" M 66.30 234.31 C 65.96 223.15 80.80 229.28 86.84 230.20 C 91.39 237.05 79.07 234.82 75.02 237.12 C 74.69 241.43 75.22 245.75 75.97 250.00 L 57.14 250.00 C 56.85 246.08 55.97 242.19 56.18 238.26 C 58.47 235.04 62.80 234.91 66.30 234.31 Z" />
</g>
<g id="#1e1a3fff">
<path fill="#1e1a3f" opacity="1.00" d=" M 207.23 228.22 C 211.00 227.35 215.84 231.16 212.34 235.23 C 207.58 237.92 202.61 232.48 207.23 228.22 Z" />
</g>
<g id="#353171ff">
<path fill="#353171" opacity="1.00" d=" M 139.82 240.88 C 137.85 231.78 147.96 235.55 152.74 235.11 C 158.24 243.06 142.89 241.61 145.81 250.00 L 100.85 250.00 C 100.95 247.18 100.41 243.77 103.29 242.30 C 111.74 240.46 120.35 242.35 128.86 241.38 C 131.97 242.65 138.79 245.71 139.82 240.88 Z" />
</g>
<g id="#8d3e44ff">
<path fill="#8d3e44" opacity="1.00" d=" M 235.28 235.73 C 237.20 240.18 235.48 245.32 236.01 250.00 L 234.97 250.00 C 235.03 245.24 235.13 240.48 235.28 235.73 Z" />
</g>
<g id="#191636ff">
<path fill="#191636" opacity="1.00" d=" M 29.85 250.00 C 27.20 238.80 38.19 244.81 43.98 243.16 C 48.73 242.46 56.74 243.27 52.98 250.00 L 29.85 250.00 Z" />
</g>
<g id="#1c193fff">
<path fill="#1c193f" opacity="1.00" d=" M 80.20 243.03 C 85.91 244.02 99.23 238.79 96.14 250.00 L 76.96 250.00 C 78.50 247.90 79.05 245.32 80.20 243.03 Z" />
</g>
</svg>
