<?xml version="1.0" encoding="utf-8"?>
<!-- Generator: Adobe Illustrator 26.0.3, SVG Export Plug-In . SVG Version: 6.00 Build 0)  -->
<svg version="1.1" id="Layer_1" xmlns="http://www.w3.org/2000/svg" xmlns:xlink="http://www.w3.org/1999/xlink" x="0px" y="0px"
	 viewBox="0 0 250 250" style="enable-background:new 0 0 250 250;" xml:space="preserve">
<style type="text/css">
	.st0{fill:#5BF2ED;}
	.st1{fill:#60B4BB;}
	.st2{fill:#09131B;}
	.st3{fill:#5CF5F6;}
	.st4{fill:#09151E;}
	.st5{fill:#2C575D;}
	.st6{fill:#143F52;}
	.st7{fill:#254D53;}
	.st8{fill:#3DACB7;}
	.st9{fill:#3A9DA2;}
	.st10{fill:#356169;}
	.st11{fill:#062235;}
	.st12{fill:#3EF5F6;}
	.st13{fill:#355F5F;}
	.st14{fill:#0B3642;}
	.st15{fill:#26B5BA;}
	.st16{fill:#16454F;}
	.st17{fill:#316972;}
	.st18{fill:#38666B;}
	.st19{fill:#5B8586;}
	.st20{fill:#46A7AE;}
	.st21{fill:#0D282F;}
	.st22{fill:#1E5E62;}
	.st23{fill:#27595A;}
	.st24{fill:#0E3D47;}
	.st25{fill:#13424E;}
	.st26{fill:#0F3845;}
	.st27{fill:#165D69;}
	.st28{fill:#40B8BD;}
	.st29{fill:#27B3BB;}
	.st30{fill:#2E9DA7;}
	.st31{fill:#459DA9;}
	.st32{fill:#2CB6B8;}
	.st33{fill:#45C8CE;}
	.st34{fill:#435B5E;}
	.st35{fill:#0D292F;}
	.st36{fill:#274D51;}
	.st37{fill:#09161F;}
	.st38{fill:#35989D;}
	.st39{fill:#50D4CE;}
	.st40{fill:#26C3C6;}
	.st41{fill:#3CE3E4;}
	.st42{fill:#50D2D1;}
	.st43{fill:#205761;}
	.st44{fill:#4BD1D5;}
	.st45{fill:#58DEDD;}
	.st46{fill:#59DCD8;}
	.st47{fill:#34A6AD;}
	.st48{fill:#174857;}
	.st49{fill:#185460;}
	.st50{fill:#3DBFC3;}
	.st51{fill:#174147;}
	.st52{fill:#163A46;}
	.st53{fill:#54C8D5;}
	.st54{fill:#2C646E;}
	.st55{fill:#194E5E;}
	.st56{fill:#49E1E0;}
	.st57{fill:#44E2E8;}
	.st58{fill:#317F8C;}
	.st59{fill:#338586;}
	.st60{fill:#418F95;}
	.st61{fill:#080E12;}
	.st62{fill:#036C73;}
	.st63{fill:#48BFC0;}
	.st64{fill:#3E6063;}
	.st65{fill:#49F2EF;}
	.st66{fill:#255564;}
	.st67{fill:#51F5F4;}
	.st68{fill:#060A10;}
	.st69{fill:#59777B;}
	.st70{fill:#398F96;}
	.st71{fill:#2F5F63;}
	.st72{fill:#193F47;}
	.st73{fill:#0D3446;}
	.st74{fill:#070C13;}
	.st75{fill:#070B11;}
	.st76{fill:#384F58;}
	.st77{fill:#55ADB2;}
	.st78{fill:#294754;}
	.st79{fill:#113040;}
	.st80{fill:#307E7E;}
	.st81{fill:#345964;}
	.st82{fill:#3DABBD;}
	.st83{fill:#203D43;}
	.st84{fill:#548587;}
	.st85{fill:#1C4858;}
	.st86{fill:#152730;}
	.st87{fill:#164258;}
	.st88{fill:#1D414C;}
	.st89{fill:#1F3843;}
	.st90{fill:#103C4B;}
	.st91{fill:#113F50;}
	.st92{fill:#3C4A49;}
	.st93{fill:#314340;}
	.st94{fill:#13354A;}
	.st95{fill:#315F74;}
	.st96{fill:#235A71;}
	.st97{fill:#112F3D;}
	.st98{fill:#1DD3EE;}
	.st99{fill:#25D5F0;}
	.st100{fill:#1D4855;}
	.st101{fill:#1A4E5C;}
	.st102{fill:#1E4C64;}
	.st103{fill:#0B2534;}
	.st104{fill:#83C8DC;}
	.st105{fill:#346577;}
	.st106{fill:#39F8F9;}
	.st107{fill:#0D3345;}
	.st108{fill:#143847;}
	.st109{fill:#143B4B;}
	.st110{fill:#2E8692;}
	.st111{fill:#26CDD9;}
	.st112{fill:#227689;}
	.st113{fill:#275C5E;}
	.st114{fill:#07070D;}
	.st115{fill:#0D1A25;}
	.st116{fill:#0D3A4D;}
	.st117{fill:#37838A;}
	.st118{fill:#376E74;}
	.st119{fill:#090B10;}
	.st120{fill:#134765;}
	.st121{fill:#326574;}
	.st122{fill:#0F2539;}
	.st123{fill:#1A5B73;}
	.st124{fill:#3E8A9F;}
	.st125{fill:#338D9E;}
	.st126{fill:#113340;}
	.st127{fill:#225E6E;}
	.st128{fill:#286372;}
	.st129{fill:#3D5A5E;}
	.st130{fill:#0F3B52;}
	.st131{fill:#305C62;}
	.st132{fill:#174258;}
	.st133{fill:#0C1D28;}
	.st134{fill:#0C2735;}
	.st135{fill:#1A6B83;}
	.st136{fill:#3E999B;}
	.st137{fill:#135B74;}
	.st138{fill:#155467;}
	.st139{fill:#394E55;}
	.st140{fill:#1892B3;}
	.st141{fill:#060D12;}
	.st142{fill:#0E3545;}
	.st143{fill:#113945;}
	.st144{fill:#164654;}
	.st145{fill:#275657;}
	.st146{fill:#275866;}
	.st147{fill:#21515E;}
	.st148{fill:#2B535C;}
	.st149{fill:#217F90;}
	.st150{fill:#143747;}
	.st151{fill:#53DAE6;}
	.st152{fill:#48DCE9;}
	.st153{fill:#0C3349;}
	.st154{fill:#17B0CE;}
	.st155{fill:#38857D;}
	.st156{fill:#194957;}
	.st157{fill:#39706A;}
	.st158{fill:#0A1E28;}
	.st159{fill:#244A54;}
	.st160{fill:#2E8488;}
	.st161{fill:#45746F;}
	.st162{fill:#20ABBF;}
	.st163{fill:#2AE7F0;}
	.st164{fill:#185E71;}
	.st165{fill:#080A0E;}
	.st166{fill:#080D13;}
	.st167{fill:#14272F;}
	.st168{fill:#15485B;}
	.st169{fill:#082733;}
	.st170{fill:#0F3A51;}
	.st171{fill:#30656B;}
	.st172{fill:#27A9C5;}
	.st173{fill:#1AA1B5;}
	.st174{fill:#297586;}
	.st175{fill:#2C6672;}
	.st176{fill:#1791A8;}
	.st177{fill:#060C0D;}
	.st178{fill:#0A1F29;}
	.st179{fill:#185F7B;}
	.st180{fill:#2A5869;}
	.st181{fill:#1A5064;}
	.st182{fill:#1A5466;}
	.st183{fill:#16718A;}
	.st184{fill:#050609;}
	.st185{fill:#0B171F;}
	.st186{fill:#459CAA;}
	.st187{fill:#1E6887;}
	.st188{fill:#2896B1;}
	.st189{fill:#359CBC;}
	.st190{fill:#26708F;}
</style>
<g id="_x23_5bf2edff">
	<path class="st0" d="M71,11.4c6.9-3.7,13.8,1.6,19.5,5.1c6.8,3.6,11.8,9.5,17.9,14c-1.6,0.6-3.2,1.3-4.8,1.9c-0.6-1-1.3-2-1.9-3
		c-1.4-1.9-3.1-3.5-5-4.7c-5.8-4-11.5-8.1-17.4-11.9C76.8,11.3,73.8,11.6,71,11.4z"/>
	<path class="st0" d="M94,59.1c0.2-0.6,0.5-1.7,0.7-2.3c1.2,0.6,2.5,1.1,3.7,1.7c-0.8,0.5-1.6,1-2.4,1.5
		C95.5,59.8,94.5,59.3,94,59.1z"/>
	<path class="st0" d="M145.8,66.8c4-4.5,10.5-4.9,16-6.1c-3.1,1.8-6.2,3.5-9.7,4.5c-2.4,0.7-3.9,2.8-5.7,4.5
		c-3.1,2.9-6.8,5-10.8,6.6c0.3-1.6,0.6-3.2,0.9-4.8c0.5,0,1.6,0,2.1,0C142.1,72,143.7,68.6,145.8,66.8z"/>
</g>
<g id="_x23_60b4bbff">
	<path class="st1" d="M170.4,10.2c3.9-0.5,8.1,0.5,9.6,4.5c-3-2.5-6.9-2.4-10.5-2.3h-0.9C169.1,11.9,170,10.8,170.4,10.2z"/>
</g>
<g id="_x23_09131bff">
	<path class="st2" d="M66.7,16.8c1.2-2,2.9-3.6,4.3-5.4c2.8,0.2,5.8-0.1,8.2,1.4c5.9,3.8,11.6,7.9,17.4,11.9
		c-1.6,0.2-3.2,0.5-4.7,0.8c1.1,1.4,2.2,2.9,3.4,4.3c-0.5,1.5-0.9,2.9-1.4,4.4c1.4-0.9,2.7-1.8,4.1-2.6c3.3,1.5,6.8,4.5,6.3,8.6
		c-2.4,0.3-4.8,0.6-7.1,1c-1.9,1.5-3,3.8-5.2,4.9c-2.8-1.2-4.2-3.8-4.9-6.7c-0.3-0.8-0.8-2.4-1.1-3.2c-1.6,1.1-3.1,2.1-4.6,3.3
		c-0.9,1.7-1.7,3.5-2.5,5.4c-0.9-1-1.8-2.1-2.7-3.1c0.3-1.9,1.8-3,3.2-4.1c-0.1-1.4-0.3-2.7-0.4-4.1c1.2-0.2,2.3-0.4,3.4-0.5
		c-1.1-1-2.2-2.1-3.2-3.1c-1.1,1.5-2.1,3.2-3.5,4.6c-2.1,1.2-5,0.7-6.6,2.8c-0.8,1.5-0.9,3.3-1.3,5c1.4-0.8,2.8-1.6,4.2-2.5
		c1.5,1.4,2.9,2.8,4.3,4.3c0.9,2.4,1.8,4.9,2.4,7.4c-0.2,0.4-0.7,1.1-0.9,1.5c-0.5,0.8-1,1.7-1.4,2.5c-3.7-2.1-7.5-3.8-11.3-5.7
		c0.6,1.4,1.1,2.7,1.7,4c-2.3-1.6-4.7-3.2-7-5c0.5-5.5,1.2-10.9,2.5-16.3C63.9,27.2,64.1,21.7,66.7,16.8 M64.2,38.1
		c-1.5,1,0.1,3.5,1.6,2.4C67.3,39.5,65.7,36.9,64.2,38.1 M74.3,48.3c-1.3,0.9,0.2,3.2,1.6,2.2C77.2,49.6,75.7,47.3,74.3,48.3z"/>
	<path class="st2" d="M98.7,60.9c2.4,0.4,4.8,1,6,3.4c1.8,2.6,4,4.9,6.3,7.2c-4.8,0-7.1-5.2-10.8-7.5C99.7,62.9,99.2,61.9,98.7,60.9
		z"/>
</g>
<g id="_x23_5cf5f6ff">
	<path class="st3" d="M156.7,17.7c3.8-2.1,7.3-5.7,11.9-5.3h0.9c-4.6,4.5-10.8,7.1-15.7,11.3c-2.1,1.3-4.2,2.5-5.8,4.4
		c-1,1.1-2.1,2.2-3.1,3.3c-1.4-0.4-2.7-0.8-4.1-1.2C146.2,26.1,150.8,21,156.7,17.7z"/>
	<path class="st3" d="M100.3,78.9c1.3,1.6,2.7,3.8,1,5.8c-0.6-1.2-1.1-2.4-1.5-3.6C99.9,80.5,100.2,79.5,100.3,78.9z"/>
</g>
<g id="_x23_09151eff">
	<path class="st4" d="M169.5,12.4c3.7-0.1,7.5-0.2,10.5,2.3c1.4,4.9,3.8,9.5,4.8,14.5c2.4,8.3,3,17.3,7,25.1
		c2.2,4.2,3.2,8.9,3.6,13.6c0,1.9,1.4,3.5,2.3,5.1c0.9,1.4,1.9,2.8,2.8,4.2c-0.5,1-1.1,2-1.6,3c-1.9-0.7-3.8-1.5-5.8-2.2
		c0.2,1.7,0.3,3.3,0.5,5c-1,0.7-1.9,1.5-2.8,2.4c-0.6-3.1-2.5-5.6-5.2-7.2c0.2,1.7,0.4,3.4,0.7,5.1c-2.5-0.7-5-1.5-7.5-2.2
		c2.8,3.9,6.1,7.3,9.8,10.3c-1.8,1.4-3.1,3.5-1.9,5.7c0.3,2.3,2.7,2.7,4.5,3.2c-0.4,2.6-1.4,5.4,0.1,7.8c2,1.3,4.1,2.4,6.3,3.3
		c-0.9-0.1-1.9-0.2-2.8-0.3c-0.1,0.8-0.2,1.6-0.4,2.4c-1.9,0.2-4.3,0-5.7,1.7c-1.1,1.5-1.5,3.3-2,5.1c2.5-0.1,4.9-0.7,7-2.1
		c-1.1,2.9,2,4.4,3.8,5.9c-0.9,0.1-1.7,0.2-2.6,0.3c-2-0.9-4.3-3.3-6.5-1.5c-2.7,1.6-2.6,5.1-2.4,7.8c0,0.8,0.1,2.3,0.2,3
		c0.7,0.1,2,0.2,2.7,0.3c2.9-0.7,5.7-1.9,8.4-3.1c-0.6-0.6-1.3-1.2-1.9-1.7c0.7-0.6,1.5-1.3,2.2-1.9c3.4-0.6,6.8-0.4,10.2-0.8
		c-2.9,2.1-5.8,4.2-8.9,6.2c0.9,2.4,1.7,4.9,2.8,7.2c0.3-0.4,1-1.1,1.3-1.4c1.6-1.4,3.5-2.2,5.5-2.8c0.2-0.1,0.6-0.2,0.8-0.3
		c0.9-1.7,1.7-3.5,2.5-5.3c0.6,1.4,1.2,2.7,1.8,4.1c0.1-0.8,0.1-2.3,0.2-3.1c0.9,4.3-1.2,8.6-3.4,12.2c-1-0.1-1.9-0.5-2.7-1.1
		c0.3,1-1.3-0.1-1.1,1c0.7,0.2,2.2,0.6,3,0.9c-0.4,4.4-3.2,8.7-6.8,11.4c-0.6-0.8-1.1-1.7-1.6-2.5c-1,0.2-2.1,0.3-3.1,0.5
		c-0.1-0.8-0.1-1.6-0.2-2.4c-2.8-0.3-5.7-0.8-8.5-1.2c-0.2,1.5-0.5,3-0.7,4.5c-2.4-2.3-4.1-5.2-5.4-8.2c-1.2,0.7-2.4,1.3-3.6,2
		c2.6,3.6,3.9,7.9,4.7,12.3c-1.9-0.3-3.9-0.5-5.7-1.3c-0.3-1.7-0.3-3.3-0.4-5c-3.1,0.1-4.3,3.1-5.9,5.2c-0.6,0.8-2.4,2.5-0.8,3.2
		c1.6,0.2,2.7-1.6,2.4-3c4.1,1,7,4.3,10.9,5.5c0.9-1.5,1.8-3,2.7-4.4c0.3-0.3,0.8-0.9,1.1-1.2l0.5-0.6c1.9,1.6,3.8,3.1,5.7,4.8
		c-1.9,3.1-4.5,5.4-7,8c-2.7,2.9-1.7,7.1-2,10.7c-0.4-2.4-1-4.8-1.5-7.2c-0.7,0-2,0.1-2.7,0.1c-1,4.5-0.4,9.1-1.3,13.6
		c-0.5,3.8-1,7.8-3.6,10.8c-1.6-0.3-3.3-1.1-4.9-0.8c-1.1,0.8-2.1,1.8-3.2,2.8c0.5,1.3,1.1,2.7,1.6,4c-2.4-0.7-4.9-1.8-7.5-1.7
		c-2.5,2.2-2.5,6-4.7,8.3c-3.1,1-7.4-0.7-9.4,2.6c-1.8-1.7-3.9-3.3-4.4-5.9c-0.7-3.2-2.1-6.2-3.9-9c0.2-0.4,0.7-1.3,0.9-1.7
		c2.4-0.2,4.5,0.8,6.6,1.9c-0.6-1.9-1.1-3.8-1.6-5.8c4-3.3,7-7.6,8.4-12.6c1.6,0.7,3.1,1.4,4.7,2.1c1-3.3,2-6.5,2.9-9.8
		c-1.2,0.1-2.4,0.1-3.6,0.2c2.9-4.2,7.4-7.4,12.6-7.8c-0.7-1-1.4-2.1-2.1-3.1c-2,0.3-4,0.6-5.9,0.9c0.3-2,0.9-4,0.7-6
		c-1.2-1.5-2.7-2.7-3.9-4.2c0.8-4.3,4-8.1,2.9-12.6c-0.4-3.7,0.2-7.5,0.8-11.1c1.7,1.9,3.4,3.9,4.9,5.9c-1.7,4.2,1.5,7.8,4.3,10.5
		c1.4-1.3,3-2.5,4.2-4c0.1-2.2-0.6-4.4-1-6.6c-1-0.3-2-0.6-3-0.9c0.5,2.4,0.4,4.8-0.7,7c-1-1.4-1.9-2.8-2.7-4.2
		c-0.5-4-0.6-8.2,0.3-12.1c1.1-0.1,2.2-0.2,3.3-0.4c-1.4-1.1-2.9-2.6-4.8-2.6c-5.1-0.1-10.1-0.5-15.1-1.1l-0.8-0.1
		c4.1-0.5,6.6-4.8,10.8-4.5c2-2.4,3.6-5.2,5-8c3.5-2.7,6.6-5.9,8.6-9.9c-2.9-0.2-5.9-0.5-8.8-0.6c-2.5-0.2-4.4,1.8-6.3,2.9
		c3.3-0.8,6.8-1.2,9.8,0.6c-4,5.8-12.1,1.6-16.9,5.9c-1.6,1.4-0.2,3.5,0.3,5.1c0.2,0.4,0.5,1.2,0.7,1.7c-0.4,0.1-1.3,0.3-1.7,0.4
		c-2,1-3.7,2.5-5.4,3.9c-2.7-0.2-5.4-0.5-8.1-0.7c-0.3-2.2-0.5-4.4-0.7-6.6c1.7-0.8,3.4-1.6,5.1-2.4c-1.8-1.5-3.5-3-5.2-4.6
		c0,2.5-0.3,5-1.5,7.1c-1.5-2.3-1.7-5-0.9-7.6c0.5-1.9,1-3.8,1.5-5.7c1.4,0,2.9-0.1,4.4-0.1c1.3,2.2,1.9,5.8,4.9,6.3
		c1.5-1,2.8-2.2,4.1-3.5c2.7-1.3,5.7-2.1,8-4.1c2.8-2.7,4.3-6.5,5.2-10.2c-1.6,1-3.2,2.1-4.8,3.3c-0.9-0.8-1.8-1.7-2.8-2.5
		c2.2-1.7,4.6-3.4,5.6-6.1c1.5-4.2,4.1-7.9,5-12.2c-1.9,0.4-3.7,0.9-5.6,1.4c-0.1-1.4-0.2-2.9-0.3-4.3c-2,0.1-4,0.2-5.9,0.4
		c-3.7,0.5-7.4,1.6-10.9,3c1.7-1.7,3.2-3.8,5.7-4.5c3.4-1,6.6-2.7,9.7-4.5c-5.6,1.2-12,1.5-16,6.1c-2.1,1.8-3.8,5.2-7,4.7
		c2-2.4,4-4.8,5.8-7.3c1.7-3.9,6.4-2.2,9.6-3.8c1.8-1.5,1.8-4.1,2.5-6.2c1.7,1.1,3.5,2.2,5.6,2.6c-0.1-0.4-0.3-1.3-0.4-1.7
		c3,0.8,6.1,1.3,9.3,1.4c-0.2-1.6-0.4-3.3-0.6-5c-0.1-1.2-0.3-2.3-0.4-3.5l-0.1-0.6c2.1-2.7,4.2-5.5,6.4-8.2
		c1.2,1.1,2.3,2.3,3.6,3.3c-0.4-2.2,0.1-5.2-2.3-6.3c-1.7-1.4-3.9-0.1-5.8,0.3c-0.5-2.1-1.1-4.1-1.7-6.2c-1.3,0.9-2.6,1.8-3.9,2.8
		c1.2,0.1,2.5,0.1,3.7,0.2c-0.5,1.5-1,3-1.5,4.5c1.1,0.7,2.2,1.4,3.1,2.4c-0.4,1.4-0.9,2.8-1.5,4.2c-1-1.2-2-2.4-3.1-3.5
		c-1.5-1.8-3.5-3.1-5.6-4.3c0.1,1.3,0.3,2.6,0.4,3.9c-1.4,2-2.3,5.3-5.2,5.4c-2.7,0-3.1-3.5-5.2-4.6c-2.2-0.3-4.4-0.4-6.6-0.6
		c-2-3.8,2.2-6.5,4.6-8.7c1.6,0.7,3.2,1.4,4.9,2.1c-1.4-3.1-0.2-6.1,1.8-8.6c-1.8,0.6-3.7,1.2-5.5,1.7c1-1.1,2-2.3,3-3.3
		C158.8,19.5,164.9,17,169.5,12.4 M165.7,25.9c0.9,2.6,4,1.4,6.1,1.7c-0.2-1.1,0.1-2.7-1.2-3.3C168.9,23.6,166.9,24.9,165.7,25.9
		 M149.6,40.2c2.8,0.1,3.6-2,3.8-4.4C151.5,36.7,149.4,37.8,149.6,40.2 M182.2,38.2c0,0.6,0,1.8,0.1,2.4c0.6,0,1.8,0,2.4,0
		c0-0.6,0-1.8,0-2.4C184.1,38.3,182.9,38.3,182.2,38.2 M171.7,50.6c0.8,0,2.3,0.2,3.1,0.2c-0.1-0.8-0.1-2.3-0.2-3.1
		C173.4,48.4,172.3,49.3,171.7,50.6 M171.8,57.2c3.9-1,8.5,0.2,11.9-2.4c-0.7-0.1-2.2-0.2-2.9-0.3c0.7-1.5,1.4-3.1,2.1-4.6
		C179.4,52.9,173.6,52.5,171.8,57.2 M180.9,61c-0.7,0.8,0.4,1.3,0.8,2c1.3-1.1,2.7-2.2,4-3.3c-0.7,2.3-1.5,4.5-2.2,6.8
		c-1.9-1-3.9-1.9-5.9-2.8c0.9,4.2,4,7.4,6.3,10.9c0.8-2.2,1.6-4.5,2.2-6.8c2-4.5,1.7-9.4,2.3-14.2C185.7,55.9,183.9,59,180.9,61
		 M189,69.7c1.3,0.5,2.6,1,3.9,1.4c-0.5-1-0.9-2-1.4-3C190.6,68.7,189.8,69.2,189,69.7 M170.6,73.1c-2.1,2.5-5.8,5.5-3,8.8
		c3.5-2.6,5.9-6.2,7.9-10C173.8,72.3,172.1,72.3,170.6,73.1 M176.2,75.2c0.2,0.5,0.5,1.5,0.7,2c1.1,0.5,2.1,1.1,3.2,1.6
		c-0.2-1.1-0.5-2.1-0.7-3.2C178.3,75.5,177.2,75.4,176.2,75.2 M174.9,83.7c0.8,0,2.4,0.1,3.2,0.1c-0.1-0.7-0.4-2-0.5-2.7
		C175.5,79.4,175.5,82.4,174.9,83.7 M175.8,87.7c0.8,0.1,2.3,0.2,3.1,0.2c0-0.8,0-2.5-0.1-3.3C177.3,85.1,176.3,86.2,175.8,87.7
		 M170.6,86.4c-0.7,2.9-1.4,5.8-2.1,8.7c1.9-2.6,3.8-5.4,4.4-8.6C172.3,86.5,171.1,86.5,170.6,86.4 M172.3,94c-1.9,0.9,0,3.2,1.5,2
		C175.7,95.1,173.8,92.7,172.3,94 M176.2,104.9c0.8,1.2,1.7,2.4,2.5,3.6c2.2,0.1,4.3,0.1,6.5-0.1C183,105.8,179.5,105.3,176.2,104.9
		 M180.3,114.4c-1.2,1.8,0.7,3.4,1.3,5c1.4-1.3,2.7-2.7,4.1-4c-1.2-1.3-2.5-2.6-3.8-3.9C181.3,112.4,180.8,113.4,180.3,114.4
		 M160.2,120.1c-0.5,1.6,0,2.2,1.6,1.7C162.4,120.2,161.8,119.6,160.2,120.1 M183.1,137.2c-0.5,1.6,0,2.2,1.7,1.7
		C185.3,137.2,184.7,136.7,183.1,137.2 M185.9,142.5c2-0.3,4-0.6,6-0.8c-0.1,1.5-0.2,3.1-0.3,4.6c1.3-1.1,2.5-2.2,3.8-3.3
		c-1.6-2.3-3.4-4.4-5.4-6.4C187.6,137.9,185.7,139.7,185.9,142.5 M197.5,142c1.7,3.5,2.6,8.2,7.1,8.9c-0.2-2.8-0.3-5.7-0.3-8.5
		C202,142.3,199.7,142.1,197.5,142 M174.1,150.1c0,0.8,0.1,2.4,0.1,3.2c1.3-0.8,2.4-1.8,3.2-3.1
		C176.6,150.2,174.9,150.1,174.1,150.1 M181.4,165.1c-0.6,2.1-1.2,4.1-1.9,6.2c2.4-1.1,4.6-2.8,4.4-5.7
		C183.3,165.4,182.1,165.2,181.4,165.1 M163,180.1c-0.3,1.6-0.4,3.1,0,4.7c1.7-0.5,3.4-1,5.2-1.5c0,0.7,0.1,2,0.2,2.7
		c-2,1.2-5.4,1.9-5,4.9c0.6,3.1,4.1,3.1,6.6,3.1c1.8,2.1,4.6,2.5,7.2,2.3c0-2.5-0.3-5-0.9-7.4c-1.7-1.2-3.6-2-5.4-2.7
		c0.5-2.2,0.9-4.3,1.2-6.5c-1.4,0.6-2.6,1.7-3,3.3C168.6,180.1,165.1,180.4,163,180.1 M161,194.3c1,1.6,2.1,3.3,3.1,5
		c-2.4-0.7-4.7-1.4-7.1-2c1.2,1.7,2.5,3.3,4,4.8c2.1-1.4,4-3,5.9-4.6C164.9,196.4,162.9,195.3,161,194.3z"/>
</g>
<g id="_x23_2c575dff">
	<path class="st5" d="M148.1,28.1c1.6-1.9,3.7-3.1,5.8-4.4c-1,1.1-2,2.2-3,3.3c1.8-0.5,3.7-1.1,5.5-1.7c-2,2.5-3.2,5.5-1.8,8.6
		c-1.6-0.7-3.2-1.4-4.9-2.1c1-1.2,1.9-2.4,2.7-3.7c-1.7,0.4-3.4,0.8-5.1,1.2C147.5,29.1,147.9,28.5,148.1,28.1z"/>
</g>
<g id="_x23_143f52ff">
	<path class="st6" d="M165.7,25.9c1.3-1.1,3.2-2.4,4.9-1.5c1.3,0.6,1,2.1,1.2,3.3C169.7,27.4,166.6,28.5,165.7,25.9z"/>
</g>
<g id="_x23_254d53ff">
	<path class="st7" d="M91.9,25.5c1.6-0.3,3.2-0.5,4.7-0.8c1.9,1.2,3.6,2.9,5,4.7c-1.6-0.4-3.1-0.8-4.6-1.2c0.3,1.1,0.6,2.2,1,3.4
		c-1.3,0.9-2.7,1.8-4.1,2.6c0.4-1.5,0.9-3,1.4-4.4C94.2,28.4,93.1,26.9,91.9,25.5z"/>
</g>
<g id="_x23_3dacb7ff">
	<path class="st8" d="M97,28.2c1.6,0.4,3.1,0.8,4.6,1.2c0.7,1,1.3,2,1.9,3c0.9,1.6,2.3,2.9,3.8,4c-0.2,1-0.5,2-0.7,3
		c1.9-0.8,3.7-1.6,5.6-2.4c0.1,0.8,0.1,1.6,0.2,2.4c-3.3,1.9-6.3,4.8-10.3,5.5c0.8-1.6,1.5-3.2,2.2-4.8c0.5-4-3-7-6.3-8.6
		C97.7,30.4,97.3,29.3,97,28.2 M106.2,40.2c-0.5,1.6,0,2.2,1.7,1.7C108.4,40.2,107.9,39.7,106.2,40.2z"/>
	<path class="st8" d="M161.5,90.1c1.5-1.2,3.1-2.3,4.8-3.3c-0.9,3.7-2.4,7.5-5.2,10.2c-2.3,2-5.3,2.8-8,4.1
		C156.4,97.9,160.4,94.9,161.5,90.1z"/>
	<path class="st8" d="M39.3,135.2c2-1.7,3.9-3.5,5.8-5.4c-0.2,1.7-0.4,3.4-0.5,5.2c0.6,1.5,1.3,3,2.1,4.5c-2-1.5-4.2-2.7-6.7-3
		C39.8,136.2,39.4,135.5,39.3,135.2z"/>
</g>
<g id="_x23_3a9da2ff">
	<path class="st9" d="M145,31.4c1-1.1,2.1-2.2,3.1-3.3c-0.2,0.3-0.6,1-0.8,1.3c1.7-0.4,3.4-0.8,5.1-1.2c-0.9,1.3-1.7,2.5-2.7,3.7
		c-2.4,2.2-6.6,5-4.6,8.7c1.1,1,2.4,2,3.6,3c-1.6,0.6-3.3,1.8-5,0.9c-1.7-0.9-2.9-2.5-4.2-3.9c1-0.8,2.1-1.7,3.1-2.5
		c-2.6-2.2-3.4-5.5-4.5-8.6c0.7,0.2,2.1,0.5,2.8,0.6C142.2,30.6,143.6,31,145,31.4 M140.7,32.9c0.2,1.4,0.5,2.7,0.8,4.1
		c1.9-0.8,3.1-2.5,4-4.3C143.9,32.8,142.3,32.8,140.7,32.9 M141,40.2c-0.5,1.6,0,2.2,1.7,1.6C143.2,40.2,142.6,39.7,141,40.2z"/>
</g>
<g id="_x23_356169ff">
	<path class="st10" d="M75.8,34.3c1.3-1.4,2.4-3,3.5-4.6c1.1,1,2.2,2.1,3.2,3.1c-1.2,0.2-2.3,0.4-3.4,0.5c0.2,1.4,0.3,2.7,0.4,4.1
		c-1.4,1.1-2.9,2.3-3.2,4.1c0,0.6,0.1,1.7,0.1,2.2c-1.3-1.5-2.8-2.9-4.3-4.3c-1.4,0.9-2.8,1.7-4.2,2.5c0.4-1.7,0.4-3.5,1.3-5
		C70.8,35,73.8,35.6,75.8,34.3z"/>
	<path class="st10" d="M161,194.3c2,1.1,3.9,2.1,5.9,3.1c-1.9,1.6-3.9,3.2-5.9,4.6c-1.4-1.5-2.8-3.1-4-4.8c2.4,0.6,4.7,1.4,7.1,2
		C163,197.6,162,195.9,161,194.3z"/>
</g>
<g id="_x23_062235ff">
	<path class="st11" d="M103.6,32.5c1.6-0.6,3.2-1.3,4.8-1.9c0.6-0.2,1.9-0.6,2.5-0.8c-0.8,0.4-1.5,0.9-2.3,1.3
		c-0.4,1.8-0.8,3.6-1.3,5.4C105.9,35.4,104.5,34.1,103.6,32.5z"/>
</g>
<g id="_x23_3ef5f6ff">
	<path class="st12" d="M110.9,29.8c5.9,2.2,12.1,0.5,18.1,1.6c3.1,0.4,6.1-1.1,9-1.8c1,3.1,1.9,6.4,4.5,8.6c-1,0.8-2.1,1.7-3.1,2.5
		c1.3,1.4,2.4,3,4.2,3.9c1.7,0.9,3.5-0.2,5-0.9c0.8-0.6,1.6-1.1,2.5-1.6c0.2,0.2,0.6,0.5,0.7,0.7c-0.7,2.4-2.3,4.4-3.5,6.6
		c-0.6,0-1.8,0.2-2.4,0.2c-2.1,0.2-4.2,0.4-6.3,0.6c0.9,2.2,1.9,4.3,2.9,6.5c-3.3-0.4-6.6-0.2-9.5,1.6c0.2,1.2,0.5,2.4,0.7,3.6
		c1.2-0.3,2.5-0.6,3.7-0.9c-1.1,1.9-2.1,3.9-3.1,5.8c-1.1,1.8-2.3,3.5-3.5,5.3c0.6,0.7,1.2,1.4,1.8,2.2c-0.5,0.5-0.9,0.9-1.4,1.4
		c-1.4,1.5-2.8,2.9-4.4,4.3c-1.9-1.2-4.1-1.4-6.3-1.9c-1.3-0.8-2.3-2-3.5-3c0.1-1.4,0.2-2.8,0.3-4.1c-2.2,0.2-4.3,0.4-6.5,0.6
		c-2.3-2.2-4.5-4.5-6.3-7.2c-0.5-3.9,0-7.8,1.9-11.3c-1.9-1.2-3.8-2.4-5.6-3.7c-1.5-2.2-2.8-4.4-3.8-6.9c1.7,0.8,3.3,1.7,4.9,2.5
		c3.9-0.7,6.9-3.5,10.3-5.5c-0.1-0.8-0.1-1.6-0.2-2.4c-1.9,0.8-3.7,1.6-5.6,2.4c0.2-1,0.5-2,0.7-3c0.5-1.8,0.9-3.6,1.3-5.4
		C109.4,30.6,110.2,30.2,110.9,29.8 M136.1,36.1c0,1.3,0,2.6,0,3.9c0.8,0,2.3,0,3.1,0.1c-0.1-0.7-0.3-2.2-0.4-2.9
		C137.9,36.8,137,36.5,136.1,36.1 M115.2,38.8c0.1,0.6,0.4,2,0.5,2.6c1.1,0.1,2.3,0.2,3.4,0.3C117.8,40.7,116.5,39.7,115.2,38.8
		 M129.9,41.8c1.1-0.1,2.2-0.3,3.3-0.5c0.2-0.6,0.5-1.8,0.7-2.4C132.4,39.6,130.9,40.3,129.9,41.8 M122.1,41.2
		c0.2,0.5,0.5,1.6,0.7,2.2c0.9,0.2,1.9,0.3,2.9,0.5c0-0.6,0-1.9,0.1-2.5C124.5,41.3,123.3,41.3,122.1,41.2 M133.5,48
		c0.7-0.2,2.2-0.5,2.9-0.7c0.2-1.1,0.5-2.3,0.7-3.4C135.5,44.8,134.4,46.2,133.5,48 M112.4,45.2c-1,1.3,1.1,3.3,2.3,2.3
		C115.7,46.2,113.7,44.1,112.4,45.2 M116.4,47.6c-0.9,1.2,0.9,3.5,2.3,2.8C119.6,49.2,117.8,46.9,116.4,47.6 M120,51.1
		c0,0.8-0.1,2.4-0.1,3.2c1.7-1.1,3.2-2.4,4.5-4C122.9,50.5,121.5,50.8,120,51.1 M106.9,57.4c1.3,4,4.8,6.7,5.9,10.8
		c1.5-1.9,2.8-4.5,0-6c1.4-0.7,3.5-1.8,2.6-3.6C113.6,55.7,109.6,56.4,106.9,57.4 M120.4,56.1c0.7,1.1,0.9,2.8,2.2,3.3
		c2,0.8,4-0.3,5.9-0.9c-0.2-0.6-0.4-1.2-0.6-1.8C125.5,58.3,122.9,57,120.4,56.1 M122.5,69.4c-1.4,1.5-1.7,3.7-2.3,5.6
		c0.8,0.2,1.7,0.4,2.5,0.5c0.6-1.3,0.8-2.7,1.2-4.1c0.9,1.4,1.7,2.8,2.6,4.2c0.7-0.3,1.4-0.6,2.2-0.9c-1-1.8-1.8-3.6-2.6-5.5
		C124.8,69.3,123.7,69.3,122.5,69.4z"/>
</g>
<g id="_x23_355f5fff">
	<path class="st13" d="M166.4,33.1c1.3-0.9,2.6-1.8,3.9-2.8c0.6,2,1.2,4.1,1.7,6.2c1.9-0.4,4.1-1.7,5.8-0.3c2.4,1.2,2,4.1,2.3,6.3
		c-1.2-1.1-2.4-2.2-3.6-3.3c-2.2,2.7-4.2,5.4-6.4,8.2c-1.4-0.8-4.5,0.3-3.2,2.2c1.3,1,2.7-0.5,3.3-1.6c0.1,1.1,0.2,2.3,0.4,3.5
		c-1.7-0.4-3.4-0.8-4.9-1.4c-1-1-0.7-2.6-0.8-3.9c1.8-0.5,3.7-1,5.4-1.8c0.6-1.4,1.1-2.7,1.5-4.2c-0.9-1-2.1-1.6-3.1-2.4
		c0.5-1.5,1-3,1.5-4.5C168.8,33.2,167.6,33.2,166.4,33.1z"/>
	<path class="st13" d="M152.3,79.8c1.8-2.3,3.5-5.5,7-4.5c-0.7,1.7-1.4,3.4-2.1,5c-0.9,1.2-1.8,2.5-2.7,3.7
		C153.7,82.7,153,81.2,152.3,79.8z"/>
</g>
<g id="_x23_0b3642ff">
	<path class="st14" d="M140.7,32.9c1.6-0.1,3.2-0.2,4.8-0.2c-0.9,1.8-2.1,3.4-4,4.3C141.2,35.7,140.9,34.3,140.7,32.9z"/>
</g>
<g id="_x23_26b5baff">
	<path class="st15" d="M136.1,36.1c0.9,0.4,1.7,0.7,2.6,1.1c0.1,0.7,0.3,2.2,0.4,2.9c-0.8,0-2.3-0.1-3.1-0.1
		C136.1,38.7,136.1,37.4,136.1,36.1z"/>
</g>
<g id="_x23_16454fff">
	<path class="st16" d="M149.6,40.2c-0.2-2.4,1.9-3.5,3.8-4.4C153.2,38.2,152.3,40.3,149.6,40.2z"/>
</g>
<g id="_x23_316972ff">
	<path class="st17" d="M81.4,39.5c1.5-1.2,3-2.2,4.6-3.3c0.3,0.8,0.8,2.4,1.1,3.2C85.2,40.4,83.3,40.7,81.4,39.5z"/>
</g>
<g id="_x23_38666bff">
	<path class="st18" d="M161.6,36.5c2.1,1.1,4,2.5,5.6,4.3c-1.7-0.1-3.4-0.2-5.1-0.4C161.9,39.1,161.7,37.8,161.6,36.5z"/>
</g>
<g id="_x23_5b8586ff">
	<path class="st19" d="M64.2,38.1c1.5-1.2,3.1,1.4,1.6,2.4C64.3,41.7,62.7,39.1,64.2,38.1z"/>
</g>
<g id="_x23_46a7aeff">
	<path class="st20" d="M182.2,38.2c0.6,0,1.8,0,2.4,0.1c0,0.6,0,1.8,0,2.4c-0.6,0-1.8,0-2.4,0C182.3,40.1,182.2,38.9,182.2,38.2z"/>
	<path class="st20" d="M92.3,47.8c1.7-0.8,3.6-1.2,5.4-1c-0.2,2.4-0.7,4.9-0.3,7.4c0.1,0.3,0.4,1,0.6,1.3c-0.9-0.1-1.9-0.2-2.8-0.3
		c-0.1,0.4-0.4,1.2-0.5,1.6c-0.2,0.6-0.5,1.7-0.7,2.3c-0.4-1.6-0.8-3.2-1.2-4.8c-2.3-0.2-4.7-0.5-7-0.8c3-1.1,6-2.2,9-3
		C94,49.6,93.2,48.7,92.3,47.8z"/>
	<path class="st20" d="M58.6,130.9c0.5,0,1.6,0,2.2,0c0.5,0.5,1.4,1.5,1.9,2c-1.3,0.3-2.7,0.7-4,1C58.6,132.9,58.6,131.9,58.6,130.9
		z"/>
</g>
<g id="_x23_0d282fff">
	<path class="st21" d="M79,44.8c0.8-1.8,1.5-3.6,2.5-5.4c1.8,1.2,3.8,1,5.6-0.1c0.7,2.8,2.1,5.5,4.9,6.7c-0.4,0.1-1.2,0.4-1.6,0.6
		c0.6,0.4,1.3,0.8,1.9,1.2c0.9,0.9,1.7,1.8,2.5,2.7c-3.1,0.9-6.1,1.9-9,3c-2.6-0.1-5.2-0.4-7.8-0.7c0.2-0.4,0.7-1.1,0.9-1.5
		c1.6-1,4.9-1,4.8-3.5C84.2,45,80.8,45.4,79,44.8z"/>
</g>
<g id="_x23_1e5e62ff">
	<path class="st22" d="M115.2,38.8c1.3,1,2.6,1.9,3.9,3c-1.1-0.1-2.3-0.2-3.4-0.3C115.6,40.7,115.3,39.4,115.2,38.8z"/>
	<path class="st22" d="M129.9,41.8c1-1.4,2.5-2.2,4-2.9c-0.2,0.6-0.5,1.8-0.7,2.4C132.1,41.5,131,41.6,129.9,41.8z"/>
	<path class="st22" d="M109.6,170.2c-0.2-3.1-0.4-6.3,0.1-9.4c1.3,1.4,2.6,2.8,3.9,4.2c-0.2,1.3-0.4,2.6-0.5,4
		C111.9,169.3,110.7,169.7,109.6,170.2z"/>
</g>
<g id="_x23_27595aff">
	<path class="st23" d="M97.2,41.1c2.3-0.4,4.7-0.7,7.1-1c-0.7,1.6-1.5,3.2-2.2,4.8c-1.7-0.8-3.3-1.7-4.9-2.5
		c0.9,2.4,2.3,4.7,3.8,6.9c0.2,1.5,0.3,2.9,0.4,4.4c-1,0.1-3,0.4-3.9,0.5c-0.4-2.5,0-5,0.3-7.4c-1.9-0.2-3.7,0.2-5.4,1
		c-0.6-0.4-1.3-0.8-1.9-1.2c0.4-0.1,1.2-0.4,1.6-0.6C94.3,45,95.3,42.6,97.2,41.1z"/>
</g>
<g id="_x23_0e3d47ff">
	<path class="st24" d="M106.2,40.2c1.6-0.5,2.2,0.1,1.7,1.7C106.3,42.4,105.7,41.8,106.2,40.2z"/>
</g>
<g id="_x23_13424eff">
	<path class="st25" d="M141,40.2c1.6-0.5,2.2,0,1.7,1.6C141,42.4,140.5,41.8,141,40.2z"/>
</g>
<g id="_x23_0f3845ff">
	<path class="st26" d="M162.1,40.4c1.7,0.1,3.4,0.2,5.1,0.4c1,1.2,2,2.4,3.1,3.5c-1.7,0.8-3.6,1.2-5.4,1.8c0.2,1.3-0.2,2.9,0.8,3.9
		c1.6,0.6,3.3,1,4.9,1.4c0.2,1.7,0.4,3.3,0.6,5c-3.1-0.1-6.3-0.6-9.3-1.4c-0.5-1.1-1.1-2.1-1.7-3.1c0.7,0,2,0.1,2.7,0.1
		c-1.4-2.5-3.8-3.8-6.5-4.5c-1.7-0.8-3.5-1.4-5.3-0.7c0.1,2.4,0.2,4.9,0,7.3c-1.4,0-2.8,0-4.2,0c0.3-1.6,0.8-3.2,1.4-4.7
		c1.2-2.2,2.8-4.2,3.5-6.6c-0.2-0.2-0.6-0.6-0.7-0.7c-0.8,0.5-1.7,1.1-2.5,1.6c-1.2-1-2.4-2-3.6-3c2.2,0.2,4.4,0.3,6.6,0.6
		c2.1,1.1,2.4,4.6,5.2,4.6C159.8,45.8,160.6,42.4,162.1,40.4z"/>
</g>
<g id="_x23_165d69ff">
	<path class="st27" d="M122.1,41.2c1.2,0.1,2.4,0.1,3.6,0.2c0,0.6,0,1.9-0.1,2.5c-1-0.2-1.9-0.3-2.9-0.5
		C122.6,42.9,122.3,41.8,122.1,41.2z"/>
	<path class="st27" d="M106.9,57.4c2.1,1.5,4.1,3.1,5.9,4.9c2.8,1.5,1.5,4.1,0,6C111.7,64.1,108.2,61.4,106.9,57.4z"/>
	<path class="st27" d="M168.1,189.5c2.7-0.2,5.4-0.4,8.1-0.7c0.6,2.4,0.9,4.9,0.9,7.4c-2.6,0.2-5.4-0.2-7.2-2.3
		C169.3,192.5,168.7,191,168.1,189.5z"/>
</g>
<g id="_x23_40b8bdff">
	<path class="st28" d="M76.4,43.9c0-0.5-0.1-1.6-0.1-2.2c0.9,1,1.8,2.1,2.7,3.1c1.8,0.6,5.2,0.2,4.6,3c0.1,2.5-3.2,2.5-4.8,3.5
		C78.2,48.8,77.3,46.3,76.4,43.9z"/>
	<path class="st28" d="M149.6,118.9c1.7-1.5,3.4-2.9,5.4-3.9c-1.3,2.1-2.7,4.2-4.2,6.3c-1.2-0.1-2.4-0.2-3.6-0.2
		C148,120.3,148.8,119.6,149.6,118.9z"/>
</g>
<g id="_x23_27b3bbff">
	<path class="st29" d="M133.5,48c0.8-1.7,2-3.2,3.7-4.1c-0.2,1.1-0.5,2.3-0.7,3.4C135.8,47.5,134.3,47.8,133.5,48z"/>
</g>
<g id="_x23_2e9da7ff">
	<path class="st30" d="M112.4,45.2c1.3-1.1,3.3,1,2.3,2.3C113.4,48.5,111.4,46.5,112.4,45.2z"/>
</g>
<g id="_x23_459da9ff">
	<path class="st31" d="M151.1,46.8c1.8-0.7,3.7-0.1,5.3,0.7c-0.8,1.2-1.5,2.4-2.3,3.5c2,0.3,4.1,0.6,6.1,0.8c0.6,1,1.2,2,1.7,3.1
		c0.1,0.4,0.3,1.3,0.4,1.7c-2.1-0.4-3.8-1.5-5.6-2.6c-0.7,2.1-0.7,4.7-2.5,6.2c-3.2,1.6-7.9-0.1-9.6,3.8c0.5-3.7-0.9-7.2-1.3-10.8
		c0.7-1.4,1.7-2.5,2.6-3.7c0.6,0,1.8-0.2,2.4-0.2c-0.7,1.5-1.1,3.1-1.4,4.7c0.1,2,0.3,4,0.5,6.1c0.8-0.4,1.6-0.8,2.4-1.3
		c1.7-1,3.3-2.2,4.9-3.5c-1.3,0.1-2.7,0.2-4,0.3c0.1-0.4,0.3-1.2,0.4-1.6C151.3,51.7,151.2,49.2,151.1,46.8z"/>
	<path class="st31" d="M176.2,75.2c1.1,0.2,2.1,0.3,3.2,0.5c0.2,1.1,0.5,2.1,0.7,3.2c-1.1-0.5-2.2-1.1-3.2-1.6
		C176.7,76.8,176.3,75.7,176.2,75.2z"/>
</g>
<g id="_x23_2cb6b8ff">
	<path class="st32" d="M116.4,47.6c1.4-0.8,3.1,1.5,2.3,2.8C117.3,51.2,115.6,48.9,116.4,47.6z"/>
</g>
<g id="_x23_45c8ceff">
	<path class="st33" d="M166.9,49.5c-1.2-1.9,1.9-2.9,3.2-2.2l0.1,0.6C169.6,49,168.2,50.6,166.9,49.5z"/>
</g>
<g id="_x23_435b5eff">
	<path class="st34" d="M74.3,48.3c1.3-1,2.9,1.2,1.6,2.2C74.6,51.6,73,49.3,74.3,48.3z"/>
</g>
<g id="_x23_0d292fff">
	<path class="st35" d="M156.5,47.5c2.7,0.7,5.1,2,6.5,4.5c-0.7,0-2-0.1-2.7-0.1c-2-0.2-4.1-0.5-6.1-0.8
		C154.9,49.9,155.7,48.7,156.5,47.5z"/>
</g>
<g id="_x23_274d51ff">
	<path class="st36" d="M171.7,50.6c0.6-1.3,1.6-2.2,2.9-2.9c0,0.8,0.1,2.3,0.2,3.1C174,50.8,172.5,50.7,171.7,50.6z"/>
</g>
<g id="_x23_09161fff">
	<path class="st37" d="M48.9,71.9c4.6-7.2,6.8-15.7,11.1-23.2c2.3,1.7,4.6,3.3,7,5c1.2,1,2.4,1.9,3.5,2.9c0.9,1.1,1.8,2.2,2.6,3.4
		c2.2-0.5,4.4-0.9,6.6-1.4c-0.4-1-0.8-2-1.2-3.1c4.5-0.5,8.9,1,13.4,1c0.3,1.7,0.5,3.3,0.7,5c-1.9-0.5-3.9-0.9-5.9-1.3
		c4.7,4.1,11.7,4,15.5,9.2c-3.5-1.2-7.1-2.1-10.8-2.7c-2-0.3-4.1-0.5-6.1-0.7c0,1.5,0.1,3,0.1,4.5c-3-1-6.1-1.8-9.2-2.6
		c3.5,2.6,5.5,6.5,7.3,10.3c-2.8-3.3-6.4-5.8-10.6-7c2.1,2.9,3.5,6.7,7,8.3c1.6,0.9,3.4,1.4,5.1,2.1c1.1,2,2.8,3.7,4.6,5.1
		c-1.1,0.7-2.2,1.4-3.2,2c-1.3-1.2-2.7-2.3-4.1-3.3c1.1,6.5,5.1,12.5,11.4,15c0.1,1.2,0.1,2.3,0.2,3.5c4.4,2.2,9,3.9,12.8,7
		c2.1,1.5,2.3,4.5,1.5,6.8c-1.3,2.2-3.3,3.8-4.6,5.9c-0.8,2.2-0.4,4.6-0.3,6.9c-0.9-0.8-1.9-1.5-2.8-2.3c-0.6,1.8-1.2,3.7-1.8,5.6
		c-3.4,1.5-6.9,2.9-10.2,4.5c-1.9,6.3,0.6,12.8,1.8,19c-0.4,1.5-0.9,3-1.4,4.6c-0.4,0.1-1.1,0.2-1.5,0.3c-0.1-0.8-0.3-2.2-0.4-3
		c-1.2,1.2-2.4,2.3-3.4,3.6c-1.1,1.4-2.1,2.9-3.1,4.3c1.6,0.9,3.9,1.2,4.3,3.3c1.2,3.7,1.8,7.6,2.5,11.4c-4.3-1.9-7.8-5.1-11-8.5
		c0.1,5.1-4.8,7.5-8.1,10.4c-0.8-1.7-1.6-3.4-2.3-5.1c-0.7,1.2-1.5,2.4-2.2,3.5c-0.8-1.4-1.5-2.9-2.1-4.4c-1.5-7.2-9-10.6-11.4-17.4
		c2.4-4,6.4-6.5,9.2-10.2c-3.2-0.7-6.4-0.8-9.6-1.3c-0.8-0.8-1.3-1.9-1.9-2.9l0-0.9c1.6-0.6,3.2-1.3,4.7-2.1c-1-0.7-2-1.4-2.9-2
		c2.5-1.4,4.3-3.6,5.5-6.1c1.2-0.3,2.3-0.6,3.5-0.9c1.4-0.3,2.7-0.7,4-1c0.1-0.5,0.2-1.4,0.3-1.9c1,1,2,1.9,3,2.8
		c1.1-1.5,2.2-3.1,3.2-4.6c2.4,1.6,4.8,3.2,7.3,4.7c0.9-0.7,1.8-1.5,2.8-2.2c2.5-1.6,5.2-3,7.8-4.5c-3.2,0.6-6.4,1.6-9.7,1.5
		c-1.2-0.7-2.2-1.7-3.2-2.5c4.3-1.8,8.9-3.3,13.7-3.3c3,0,5.9-0.2,8.8-0.9c2.1-0.4,4.2-0.7,6.3-1c-0.8-0.8-1.7-1.7-2.5-2.5
		c-1.7-3.8-2.8-8.2-6.4-10.7c-3.2-2.5-7.4-2.5-11.3-3.1c-2.7-0.1-5-1.3-5.3-4.2c1.9-0.3,3.8-0.9,5.7-1.4c-3.9-0.5-7.9-0.5-11.9-0.3
		c0.9,1,1.7,1.9,2.6,2.9c-2.2,2.5-5.4,3.7-8.4,5c-1,0.7-1.9,1.6-2.8,2.4c0.6,0,1.8,0.1,2.4,0.1c-0.4,2.2-0.8,4.4-1.6,6.5
		c-1.6-0.5-3.3-1-4.9-1.5c-0.2-1.2-0.3-2.5-0.5-3.7c-1.7,0.8-5.1,0.9-4.7,3.5c0.3,1.9,1.4,3.6,2.2,5.3c-4.6,1-9.3,1.7-13.9,0.6
		c-0.3,1.9-0.6,3.7-0.8,5.6c-0.9-0.2-1.8-0.4-2.7-0.6c-0.6-0.1-1.9-0.2-2.5-0.3c0.1-1.7-0.2-3.5,0.6-5.1c1.2-1.6,2.9-2.6,4.6-3.7
		c3.2-1,6.1-2.7,9-4.3c2.6-0.9,5.2-1.8,7.7-3.1c-2.5-0.4-5-0.8-7.6-1.1c0.2-0.2,0.6-0.7,0.9-0.9c3.2,0.4,6.4-0.1,9.1-1.9
		c0.9,0,1.8,0,2.7-0.1c0.3-1.8,0.7-3.5,1-5.2c-0.7-0.1-2-0.2-2.7-0.3c0.5-2.2,1.3-4.4,2-6.5c-0.9-0.5-1.8-1-2.8-1.5
		c2.9-2.2,5.3-5,7.2-8.1c-2.4,0-5.3-0.8-7.1,1.2c-1.7,2.2-1.5,5.2-1.7,7.8c-1.5-0.4-3.1-0.9-4.6-1.4c1.2-1.7,2.5-3.3,3.7-5
		c-2-1.4-4-2.9-6.1-4.1c0.5-0.3,1.5-1,2-1.3c0.2,0.6,0.6,1.7,0.9,2.2c0.2-1.7,0.5-3.3,0.7-5c-1.7,0.7-3.4,1.4-5.1,2.2
		c-1.1-1-2.2-1.9-3.3-2.8c1.4-0.5,2.8-0.9,4.2-1.4C50.2,74.2,49.5,73,48.9,71.9 M59.8,53.4c1.8,4.2-0.4,8.9,2.1,12.9
		c0.3,1.4,0.6,2.8,1,4.2c2.9-1.5,7.3-2.6,7.6-6.5c-1.5,0.4-3,0.9-4.5,1.5c-0.7-0.4-1.4-0.8-2.1-1.2c-0.3-1.6-0.8-3.1-1.2-4.7
		c1.8,0.8,3.5,1.6,5.2,2.3C64.6,59.6,62.9,55.9,59.8,53.4 M53.9,70.8c1.5-0.1,2.9-0.2,4.4-0.4c0.1-0.6,0.3-1.9,0.4-2.5
		C56.8,68.3,55.3,69.4,53.9,70.8 M70.3,75.2c-1.9,0.3-1.7,3.6,0.5,2.8C72.7,77.7,72.4,74.4,70.3,75.2 M71.1,80.7
		c0,0.8,0.1,2.4,0.1,3.2c0.6-0.1,1.8-0.4,2.4-0.5c0.1-0.6,0.2-1.9,0.3-2.5C73.2,80.9,71.8,80.8,71.1,80.7 M70.4,85.3
		c-1.3,0.9,0.3,3.2,1.6,2.2C73.2,86.5,71.7,84.2,70.4,85.3 M76,86.4c0.7,3,2.6,5.6,4.5,8c-0.6-2.6-1.3-5.3-2-7.9
		C77.8,86.4,76.6,86.4,76,86.4 M70.2,92.9c2.6,1.2,5.1,2.5,7.9,3.3C76.7,93,73.2,92.3,70.2,92.9 M65,100.1c2.6-0.8,3.9-3.1,5-5.5
		C67.3,95.4,64.9,96.9,65,100.1 M45.2,114.9c0.4,1,0.7,1.9,1.1,2.9c1-0.3,1.9-0.6,2.9-1C48,115.9,46.6,115.3,45.2,114.9 M67.9,134.4
		c1.4,2,2.8,4,4.3,5.9c-0.5,0-1.6,0-2.1,0c0.8,2.8,3.7,4.1,6,5.6c0.2-0.8,0.5-1.6,0.7-2.4c-0.8-1.1-1.7-2.1-2.5-3.2h0.6
		c0.4-1.5,0.8-3,1.2-4.5C73.3,135.1,70.6,134.6,67.9,134.4 M56.3,139c0.4,2.9,4.3,2.4,6.5,2.4c-1.2-2.1-2.4-4.2-3.6-6.3
		C58.1,136.3,56.7,137.4,56.3,139 M64,137.3c-0.5,1.6,0,2.2,1.7,1.7C66.2,137.3,65.7,136.8,64,137.3 M54.4,143.2
		c-1.2,1.3,1,3.6,2.3,2.4C58,144.2,55.8,141.9,54.4,143.2 M64.4,146.2c-0.7,3.2-2.4,6-4.7,8.2c0.3,0.4,0.9,1,1.2,1.4
		c-1.6-0.5-3.3-0.4-4.9-0.5c0.5,1.2,1,2.5,1.5,3.7c-1.5,0.9-2.9,1.9-4.4,2.9c2.2-1.2,4.4-3,7.1-2.6c-0.1,2.5,1.3,5.8,4.3,5.3
		c2.1,0,3.1-2,4.2-3.5c-1.6-0.6-3.1-1.1-4.7-1.7c0.5-3.8,1.7-7.5,3.7-10.8C66.7,147.8,65.5,147,64.4,146.2 M71.6,150.1
		c0.4,1.6,1.9,2.4,3.3,3.2c0-0.8,0-2.4,0-3.1C74.1,150.1,72.4,150.1,71.6,150.1 M74.5,160.2c-1,1.3,1.3,2.8,2.2,1.6
		C77.8,160.4,75.5,158.9,74.5,160.2 M65.1,164.9c0,0.9-0.1,2.8-0.1,3.8c1.4-0.7,2.7-1.6,3.9-2.7C67.6,165.6,66.4,165.2,65.1,164.9
		 M59.3,167.4c-1,1.3,0.9,3.8,2.4,2.9C62.7,169.1,60.8,166.6,59.3,167.4z"/>
</g>
<g id="_x23_35989dff">
	<path class="st38" d="M101,49.3c1.8,1.3,3.7,2.5,5.6,3.7c-1.9,3.5-2.4,7.4-1.9,11.3c-1.2-2.3-3.6-3-6-3.4c-0.9-0.2-1.8-0.5-2.7-0.9
		c0.8-0.5,1.6-1,2.4-1.5l0.9-0.5c0.8,0.8,1.6,1.6,2.5,2.5c-0.1-2.2-0.2-4.5-0.4-6.8C101.3,52.2,101.2,50.7,101,49.3z"/>
</g>
<g id="_x23_50d4ceff">
	<path class="st39" d="M65.2,49.6c3.7,1.9,7.6,3.6,11.3,5.7c-1.8,1.2-4,1.1-6,1.3c-1.2-1-2.4-2-3.5-2.9C66.3,52.3,65.8,51,65.2,49.6
		z"/>
</g>
<g id="_x23_26c3c6ff">
	<path class="st40" d="M120,51.1c1.5-0.3,2.9-0.6,4.4-0.8c-1.3,1.6-2.8,2.9-4.5,4C119.9,53.5,120,51.9,120,51.1z"/>
</g>
<g id="_x23_3ce3e4ff">
	<path class="st41" d="M139.7,50.2c2.1-0.2,4.2-0.4,6.3-0.6c-0.9,1.2-2,2.3-2.6,3.7c0.4,3.6,1.8,7.1,1.3,10.8
		c-1.8,2.6-3.8,4.9-5.8,7.3c-0.5,0-1.6,0-2.1,0c-1.4,0.7-2.8,1.6-4,2.6c-0.6-0.7-1.2-1.4-1.8-2.2c1.2-1.7,2.4-3.4,3.5-5.3
		c0.9,0.3,1.8,0.6,2.6,1c0.2-3.8,3-6.5,5.1-9.5c-1.6,0.9-3.1,1.8-4.6,2.7c-1.2,0.3-2.5,0.6-3.7,0.9c-0.2-1.2-0.5-2.4-0.7-3.6
		c2.9-1.8,6.2-2,9.5-1.6C141.6,54.5,140.6,52.3,139.7,50.2z"/>
</g>
<g id="_x23_50d2d1ff">
	<path class="st42" d="M171.8,57.2c1.8-4.7,7.6-4.3,11.1-7.2c-0.7,1.5-1.4,3.1-2.1,4.6c0.7,0.1,2.2,0.2,2.9,0.3
		C180.3,57.4,175.8,56.3,171.8,57.2z"/>
</g>
<g id="_x23_205761ff">
	<path class="st43" d="M76.5,55.3c0.5-0.8,1-1.6,1.4-2.5c2.6,0.3,5.2,0.6,7.8,0.7c2.3,0.2,4.7,0.5,7,0.8c0.4,1.6,0.8,3.2,1.2,4.8
		c0.5,0.2,1.5,0.7,2,0.9c0.9,0.3,1.8,0.6,2.7,0.9c0.5,1,1,2,1.5,3c-2.5-0.9-5-1.6-7.5-2.4c-0.2-1.7-0.5-3.3-0.7-5
		c-4.5,0-8.9-1.5-13.4-1c0.4,1,0.8,2,1.2,3.1c-2.2,0.5-4.4,1-6.6,1.4c-0.8-1.1-1.7-2.3-2.6-3.4C72.5,56.5,74.7,56.5,76.5,55.3z"/>
</g>
<g id="_x23_4bd1d5ff">
	<path class="st44" d="M59.8,53.4c3.1,2.5,4.8,6.2,8.1,8.5c-1.8-0.8-3.5-1.6-5.2-2.3c0.4,1.6,0.8,3.1,1.2,4.7
		c0.1,0.5,0.4,1.6,0.5,2.1c-0.6,0-1.8-0.1-2.4-0.1C59.4,62.3,61.6,57.6,59.8,53.4z"/>
</g>
<g id="_x23_58deddff">
	<path class="st45" d="M97.5,54.2c1-0.1,2.9-0.4,3.9-0.5c0.1,2.2,0.2,4.5,0.4,6.8c-0.8-0.8-1.7-1.6-2.5-2.5
		c-0.3-0.6-0.9-1.8-1.2-2.4C97.9,55.2,97.6,54.5,97.5,54.2z"/>
</g>
<g id="_x23_59dcd8ff">
	<path class="st46" d="M146.9,54c1.4,0,2.8,0,4.2,0c-0.1,0.4-0.3,1.2-0.4,1.6c-0.2,0.8-0.6,2.4-0.9,3.2c-0.8,0.4-1.6,0.8-2.4,1.3
		C147.3,58.1,147.1,56.1,146.9,54z"/>
</g>
<g id="_x23_34a6adff">
	<path class="st47" d="M180.9,61c3-2,4.9-5.1,7.6-7.4c-0.6,4.8-0.2,9.7-2.3,14.2c-0.9-0.4-1.7-0.8-2.6-1.3c0.7-2.3,1.4-4.5,2.2-6.8
		c-1.4,1.1-2.7,2.2-4,3.3C181.3,62.3,180.2,61.8,180.9,61z"/>
</g>
<g id="_x23_174857ff">
	<path class="st48" d="M95.2,55.2c0.9,0.1,1.9,0.2,2.8,0.3c0.3,0.6,0.9,1.8,1.2,2.4l-0.9,0.5c-1.3-0.5-2.5-1.1-3.7-1.7
		C94.8,56.4,95.1,55.7,95.2,55.2z"/>
</g>
<g id="_x23_185460ff">
	<path class="st49" d="M150.7,55.7c1.3-0.1,2.7-0.2,4-0.3c-1.6,1.2-3.1,2.5-4.9,3.5C150.1,58.1,150.5,56.5,150.7,55.7z"/>
</g>
<g id="_x23_3dbfc3ff">
	<path class="st50" d="M106.9,57.4c2.7-1,6.8-1.7,8.5,1.2c1,1.9-1.2,3-2.6,3.6C111,60.5,109,58.9,106.9,57.4z"/>
</g>
<g id="_x23_174147ff">
	<path class="st51" d="M120.4,56.1c2.5,0.9,5.1,2.2,7.6,0.6c0.2,0.6,0.4,1.2,0.6,1.8c-1.9,0.5-4,1.7-5.9,0.9
		C121.3,58.9,121.1,57.3,120.4,56.1z"/>
	<path class="st51" d="M197.5,142c2.2,0.1,4.5,0.3,6.8,0.4c0,2.8,0.1,5.7,0.3,8.5C200.1,150.2,199.2,145.5,197.5,142z"/>
</g>
<g id="_x23_163a46ff">
	<path class="st52" d="M137.6,60.9c1.5-1,3-1.9,4.6-2.7c-2.1,3-4.9,5.7-5.1,9.5c-0.9-0.3-1.8-0.7-2.6-1
		C135.5,64.7,136.5,62.8,137.6,60.9z"/>
	<path class="st52" d="M39.9,99.8c1-1.5,2-2.9,2.9-4.4c1.7,1.2,3.5,2.2,5,3.7c1,1.6,1.1,3.5,1.5,5.2c1.5-0.9,3-1.8,4.4-2.7
		c-1,1.6-2,3.2-3.1,4.8c-0.2,0.2-0.6,0.7-0.9,0.9c2.5,0.3,5.1,0.6,7.6,1.1c-2.5,1.3-5.1,2.1-7.7,3.1c-1.1-1-2.2-1.9-3.2-2.8
		c0.1-1.5,0.1-2.9,0.2-4.4c-1.6,1.2-3.2,2.4-4.8,3.6c0.7-1.8,1.4-3.6,2.2-5.4C42.6,101.6,41.3,100.7,39.9,99.8z"/>
</g>
<g id="_x23_54c8d5ff">
	<path class="st53" d="M86.8,60.2c2,0.4,3.9,0.8,5.9,1.3c2.5,0.7,5,1.5,7.5,2.4c3.7,2.3,6,7.5,10.8,7.5c2.2-0.2,4.3-0.4,6.5-0.6
		c-0.1,1.4-0.2,2.8-0.3,4.1c-1.6-1.4-3.4-2.5-5.2-3.5c1.3,2.3,2.8,4.4,4.2,6.6l-0.8,0c-4.5-2.7-9.1-5.2-13.2-8.5
		C98.5,64.3,91.5,64.3,86.8,60.2z"/>
	<path class="st53" d="M73.1,71.4c4.2,1.2,7.8,3.7,10.6,7c0.5,1.1,1,2.3,1.5,3.4c-1.7-0.7-3.5-1.2-5.1-2.1
		C76.6,78,75.2,74.3,73.1,71.4z"/>
	<path class="st53" d="M146.3,85.7c-0.7-3.7,1.7-6.7,4.2-9.1c-0.4,2.9-1.3,5.7-2.3,8.5C147.7,85.3,146.8,85.6,146.3,85.7z"/>
	<path class="st53" d="M128.4,82.1c0.7,0,2.2,0.1,2.9,0.1c-0.9,2.4-1.7,4.9-2.6,7.3C128.7,87,128.6,84.5,128.4,82.1z"/>
	<path class="st53" d="M76,86.4c0.6,0,1.9,0.1,2.5,0.1c0.7,2.6,1.4,5.3,2,7.9C78.6,91.9,76.7,89.4,76,86.4z"/>
</g>
<g id="_x23_2c646eff">
	<path class="st54" d="M63.8,64.3c0.7,0.4,1.4,0.8,2.1,1.2c1.5-0.5,3-1,4.5-1.5c-0.3,3.9-4.7,5-7.6,6.5c-0.3-1.4-0.6-2.8-1-4.2
		c0.6,0,1.8,0.1,2.4,0.1C64.2,65.9,64,64.8,63.8,64.3z"/>
</g>
<g id="_x23_194e5eff">
	<path class="st55" d="M177.6,63.7c2,0.9,4,1.8,5.9,2.8c0.9,0.4,1.7,0.8,2.6,1.3c-0.7,2.3-1.4,4.5-2.2,6.8
		C181.6,71,178.6,67.8,177.6,63.7z"/>
</g>
<g id="_x23_49e1e0ff">
	<path class="st56" d="M85.4,66.1c2,0.2,4.1,0.4,6.1,0.7c-0.3,0.4-0.9,1.2-1.2,1.6c-0.3,0.4-0.9,1.1-1.2,1.4
		c2.9,2.3,5.8,4.7,8.5,7.2c-0.3,0.3-0.9,1-1.2,1.3c-1.2-1.1-2.3-2.3-3.5-3.4c-1,0.2-2,0.3-2.9,0.5c-1.8-1.1-3.8-2-6-1.9
		c1.5,3.5,4.9,5.3,8.2,6.7c0.6,0.7,1.1,1.5,1.7,2.2c0.8,1.1,1.7,2.3,2.5,3.4c-1.4-0.2-2.9-0.4-4.3-0.6c2.1,1.9,4.2,3.9,6,6.1
		c-3-1-5.8-2.4-8.2-4.4c-1.8-1.5-3.5-3.1-4.6-5.1c-0.5-1.2-1-2.3-1.5-3.4c-1.8-3.8-3.8-7.7-7.3-10.3c3.1,0.8,6.2,1.6,9.2,2.6
		C85.5,69.1,85.5,67.6,85.4,66.1z"/>
	<path class="st56" d="M47.9,142.6c1.6,0,3.2,0.2,4.7,0.4c-1.5,0.8-3.1,1.5-4.7,2.1C47.9,144.5,47.9,143.2,47.9,142.6z"/>
</g>
<g id="_x23_44e2e8ff">
	<path class="st57" d="M157.4,66.7c2-0.2,4-0.3,5.9-0.4c0.1,1.4,0.2,2.9,0.3,4.3c1.8-0.5,3.7-1,5.6-1.4c-0.9,4.4-3.5,8.1-5,12.2
		c-1,2.7-3.4,4.4-5.6,6.1c-2.2,1.5-4.5,2.6-6.9,3.7c1.6-2.1,3.3-4.1,5.1-6c-1.3,0.3-2.6,0.5-3.9,0.8c0.3-0.5,1-1.4,1.4-1.9
		c0.9-1.2,1.8-2.5,2.7-3.7c3.4-1.5,6.9-3.5,7.9-7.4c-2,0.6-3.9,1.4-5.8,2.3c-3.4-1-5.2,2.2-7,4.5c-0.9-4.7,4.2-6.7,7-9.3
		c0.2-0.1,0.5-0.4,0.7-0.6C159.2,68.8,158.3,67.8,157.4,66.7z"/>
</g>
<g id="_x23_317f8cff">
	<path class="st58" d="M91.5,66.8c3.7,0.5,7.3,1.5,10.8,2.7c4.1,3.3,8.7,5.8,13.2,8.5c-2.3,0.1-4.7,0.1-6.8-1.2
		c-3.2-2.3-6.9-3.6-10.7-4.5c-2.7-1-5.2-2.6-7.7-3.9C90.6,68,91.2,67.2,91.5,66.8z"/>
	<path class="st58" d="M71.3,98.8c4-0.1,7.9-0.2,11.9,0.3c-1.9,0.5-3.8,1.1-5.7,1.4c-0.5,0-1,0.1-1.4,0.1c-0.9,4.5-6.1,8.8-10.6,6
		c3-1.3,6.2-2.5,8.4-5C73.1,100.8,72.2,99.8,71.3,98.8z"/>
</g>
<g id="_x23_338586ff">
	<path class="st59" d="M146.6,69.7c3.5-1.3,7.1-2.4,10.9-3c0.9,1.1,1.7,2.1,2.6,3.2c-0.2,0.1-0.5,0.4-0.7,0.6
		c-2.9-0.4-5.6,0.5-7.9,2.2c-4,0.5-8.2,1.6-10.9,4.9c-2.2,1.9-2.1,4.9-2,7.5c-0.2,0.2-0.7,0.5-0.9,0.7c-0.9-2.1-1.8-4.3-2.8-6.4
		c-0.5,0.1-1.6,0.2-2.1,0.2c-0.5-1.4-0.9-2.8-1.4-4.1c0.4-0.5,0.9-0.9,1.4-1.4c1.2-1,2.5-1.9,4-2.6c-0.3,1.6-0.6,3.2-0.9,4.8
		C139.8,74.7,143.4,72.5,146.6,69.7z"/>
</g>
<g id="_x23_418f95ff">
	<path class="st60" d="M53.9,70.8c1.3-1.4,2.9-2.5,4.8-2.9c-0.1,0.6-0.3,1.9-0.4,2.5C56.8,70.5,55.4,70.7,53.9,70.8z"/>
	<path class="st60" d="M189,69.7c0.8-0.5,1.6-1.1,2.5-1.6c0.5,1,0.9,2,1.4,3C191.6,70.7,190.3,70.2,189,69.7z"/>
	<path class="st60" d="M89.9,75.4c1-0.2,2-0.3,2.9-0.5c1.2,1.1,2.3,2.3,3.5,3.4c0.3-0.3,0.9-1,1.2-1.3c0,0.5,0.1,1.4,0.1,1.9
		c-1.3,1.2-2.6,2.3-3.9,3.5c-0.6-0.7-1.1-1.5-1.7-2.2C91.4,78.6,90.7,77,89.9,75.4z"/>
	<path class="st60" d="M181.4,165.1c0.6,0.1,1.8,0.4,2.4,0.5c0.2,2.9-2,4.6-4.4,5.7C180.2,169.2,180.9,167.2,181.4,165.1z"/>
	<path class="st60" d="M77.3,180.8c1.7,1.7,2.4,4,2.6,6.4C77.4,185.9,77.6,183.1,77.3,180.8z"/>
</g>
<g id="_x23_080e12ff">
	<path class="st61" d="M89.1,69.8c0.3-0.3,0.9-1.1,1.2-1.4c2.6,1.3,5,2.9,7.7,3.9c0.1,0.6,0.4,1.8,0.5,2.4c0.4,2.1,0.7,4.2,1.3,6.3
		c0.4,1.2,0.9,2.5,1.5,3.6c0.2,0.4,0.5,1.1,0.7,1.5c1.3-1.8,2.6-3.5,3.9-5.3c1.6,1.9,3.6,3.4,5.9,4.3c1.2-1.9,2.4-3.8,3.7-5.7
		c2.5,2.7,3.2,6.3,4.2,9.7c0.7,0.2,2.1,0.5,2.8,0.7c-0.9-1.7-1.7-3.4-2.7-5c0.3-0.2,1-0.6,1.3-0.8c2.3-1,4.9-1.6,7.4-2
		c0.1,2.5,0.2,4.9,0.4,7.4c0.8-2.5,1.6-4.9,2.6-7.3c0.5-0.9,1-1.7,1.5-2.5c0.5-0.1,1.6-0.2,2.1-0.2c0.9,2.1,1.9,4.3,2.8,6.4
		c0.2-0.2,0.7-0.5,0.9-0.7c4.6-3.7,9.3-7.6,12.9-12.4c2.3-1.7,5-2.6,7.9-2.2c-2.8,2.6-7.9,4.6-7,9.3c0.7,1.4,1.4,2.9,2.1,4.3
		c-0.3,0.5-1,1.4-1.4,1.9c1.3-0.2,2.6-0.5,3.9-0.8c-1.8,1.9-3.6,3.9-5.1,6c2.4-1,4.8-2.2,6.9-3.7c0.9,0.8,1.8,1.7,2.8,2.5
		c-1.1,4.8-5,7.8-8.4,11c-1.3,1.2-2.6,2.5-4.1,3.5c-3-0.4-3.6-4.1-4.9-6.3c-1.5,0-2.9,0.1-4.4,0.1c-0.5,1.9-1.1,3.8-1.5,5.7
		c-0.5-1.6-1.1-3.2-1.7-4.7c-2.9,4.4-1.6,9.9-2.3,14.9l-0.4,0.8c-0.7-1.5-1.3-3.1-1.9-4.6c-4.2,3.5-10.7,2.9-15-0.2
		c0.5,2,1,3.9,1.6,5.9c-1.2-0.7-2.4-1.5-3.6-2.2c-0.1-0.6-0.2-1.8-0.3-2.4c-1.7-0.7-4-0.6-5.3-2c0-2,0.7-3.9,1.2-5.8
		c-1.8,1.2-3.7,2.3-5.5,3.5c-0.2-0.7-0.5-1.4-0.7-2.1c-3.3-0.5-6.1-2.2-8.3-4.7c-4-3.1-7-7.1-9.4-11.5c1.1-0.7,2.2-1.4,3.2-2
		c2.5,2,5.3,3.4,8.2,4.4c-1.9-2.2-3.9-4.1-6-6.1c1.4,0.2,2.9,0.4,4.3,0.6c-0.8-1.2-1.6-2.3-2.5-3.4c1.3-1.2,2.6-2.3,3.9-3.5
		c0-0.5-0.1-1.4-0.1-1.9C94.9,74.5,92,72.2,89.1,69.8 M146.3,85.7c0.5-0.1,1.4-0.4,1.9-0.6c1-2.8,2-5.6,2.3-8.5
		C148,79,145.6,82,146.3,85.7 M111.8,99.1c2.8-0.3,2.7-3.5,3.3-5.5C112.2,93.8,112.2,96.9,111.8,99.1 M129.3,98.5
		c0.4,2.2,0.4,5.1,2.9,6.1C133.3,101.9,131.1,100.1,129.3,98.5 M121.2,101.3c-1.5,1,0.2,3.5,1.6,2.3
		C124.4,102.6,122.7,100.1,121.2,101.3 M126.1,101.1c0,0.7,0.1,2,0.1,2.7c0.6,0,1.9,0,2.5,0c0-0.7,0.1-2,0.1-2.6
		C128.2,101.1,126.8,101.1,126.1,101.1z"/>
	<path class="st61" d="M159.2,75.3c1.9-0.9,3.8-1.7,5.8-2.3c-1,3.9-4.5,5.9-7.9,7.4C157.9,78.7,158.5,77,159.2,75.3z"/>
</g>
<g id="_x23_036c73ff">
	<path class="st62" d="M122.5,69.4c1.2-0.2,2.3-0.2,3.5-0.2c0.8,1.9,1.6,3.7,2.6,5.5c-0.7,0.3-1.5,0.6-2.2,0.9
		c-0.9-1.4-1.7-2.8-2.6-4.2c-0.3,1.4-0.6,2.8-1.2,4.1c-0.8-0.1-1.7-0.3-2.5-0.5C120.8,73.1,121.1,71,122.5,69.4z"/>
</g>
<g id="_x23_48bfc0ff">
	<path class="st63" d="M170.6,73.1c1.5-0.8,3.2-0.9,4.9-1.1c-2,3.8-4.4,7.4-7.9,10C164.9,78.6,168.5,75.6,170.6,73.1z"/>
	<path class="st63" d="M170.6,86.4c0.6,0,1.8,0,2.3,0.1c-0.6,3.2-2.5,6-4.4,8.6C169.2,92.2,169.9,89.3,170.6,86.4z"/>
	<path class="st63" d="M70.2,92.9c3-0.5,6.6,0.2,7.9,3.3C75.3,95.4,72.7,94.1,70.2,92.9z"/>
	<path class="st63" d="M45.2,114.9c1.4,0.4,2.8,1,4,1.9c-1,0.3-1.9,0.7-2.9,1C45.9,116.8,45.5,115.9,45.2,114.9z"/>
	<path class="st63" d="M200.2,115.3c0.6,0,1.9,0,2.6,0c-0.1,0.5-0.4,1.5-0.5,2c-0.5,0.1-1.5,0.4-2,0.5
		C200.3,117.2,200.3,115.9,200.2,115.3z"/>
</g>
<g id="_x23_3e6063ff">
	<path class="st64" d="M43.9,80.1c1.4-2.9,2.9-5.8,5-8.3c0.6,1.2,1.3,2.3,1.9,3.5c-1.4,0.5-2.8,0.9-4.2,1.4c1.1,1,2.2,1.9,3.3,2.8
		c1.7-0.7,3.4-1.5,5.1-2.2c-0.2,1.7-0.5,3.3-0.7,5c-0.2-0.6-0.6-1.7-0.9-2.2c-0.5,0.3-1.5,1-2,1.3C48.9,80.9,46.4,80.6,43.9,80.1z"
		/>
</g>
<g id="_x23_49f2efff">
	<path class="st65" d="M98,72.3c3.8,0.9,7.5,2.2,10.7,4.5c2.1,2.3,3,5.3,3.1,8.4c-2.3-0.9-4.3-2.4-5.9-4.3c-2.1-2.4-4.5-4.6-7.4-6.1
		C98.4,74.1,98.1,72.9,98,72.3z"/>
</g>
<g id="_x23_255564ff">
	<path class="st66" d="M112,71.4c1.8,1,3.6,2.1,5.2,3.5c1.2,1,2.2,2.1,3.5,3c2.1,0.5,4.4,0.7,6.3,1.9c1.5-1.4,3-2.8,4.4-4.3
		c0.5,1.4,1,2.7,1.4,4.1c-0.5,0.8-1,1.7-1.5,2.5c-0.7,0-2.2-0.1-2.9-0.1c-2.5,0.4-5,1-7.4,2c0.5-1.2-0.5-3.7-2.1-2.7
		c-1.1,1.1,0,2.6,0.7,3.5c1,1.6,1.8,3.3,2.7,5c-0.7-0.2-2.1-0.5-2.8-0.7c-1-3.4-1.7-7-4.2-9.7c-1.3,1.9-2.5,3.7-3.7,5.7
		c-0.1-3.1-1-6.1-3.1-8.4c2,1.3,4.5,1.2,6.8,1.2l0.8,0C114.8,75.8,113.3,73.7,112,71.4z"/>
	<path class="st66" d="M65,121.1c0.4-0.2,1.2-0.6,1.5-0.8c2.5,2.1,5.1,3.9,7.6,5.9c1.1,0.8,2.1,1.8,3.2,2.5c3.3,0.1,6.5-1,9.7-1.5
		c-2.6,1.5-5.3,2.8-7.8,4.5C73.9,129.1,69.3,125.2,65,121.1z"/>
</g>
<g id="_x23_51f5f4ff">
	<path class="st67" d="M140.5,77.5c2.7-3.3,6.9-4.3,10.9-4.9c-3.6,4.8-8.2,8.7-12.9,12.4C138.4,82.4,138.3,79.4,140.5,77.5z"/>
</g>
<g id="_x23_060a10ff">
	<path class="st68" d="M83.9,73.5c2.2-0.2,4.1,0.8,6,1.9c0.8,1.6,1.5,3.2,2.3,4.8C88.8,78.8,85.4,77.1,83.9,73.5z"/>
	<path class="st68" d="M112.7,178.8c3.7-0.8,7.5-1.2,11.2-1.3c5.5,0.3,11.6,1.1,15.2,5.9c-2.2-0.1-4.6-1.1-6.6,0
		c-2.6,2.1-4.2,5.1-6,7.8c-0.5-1-1-1.9-1.5-2.9c-3,0.2-4.4-2.2-6.1-4.2c-2.5-0.6-5.1-0.6-7.7-0.6
		C111.7,181.9,112.2,180.3,112.7,178.8z"/>
</g>
<g id="_x23_59777bff">
	<path class="st69" d="M197.8,73c3.4,1.7,6.5,4.3,7.4,8.2c-1.6-0.2-3.2-0.4-4.8-0.5c-0.4-0.1-1.1-0.4-1.4-0.5c0.6-1,1.1-2,1.6-3
		C199.6,75.8,198.7,74.4,197.8,73z"/>
</g>
<g id="_x23_398f96ff">
	<path class="st70" d="M70.3,75.2c2.1-0.8,2.4,2.5,0.5,2.8C68.6,78.8,68.4,75.5,70.3,75.2z"/>
</g>
<g id="_x23_2f5f63ff">
	<path class="st71" d="M98.5,74.7c2.9,1.5,5.3,3.7,7.4,6.1c-1.3,1.8-2.6,3.6-3.9,5.3c-0.2-0.4-0.5-1.1-0.7-1.5c1.7-2,0.3-4.1-1-5.8
		c-0.1,0.5-0.4,1.6-0.5,2.1C99.2,79,98.9,76.8,98.5,74.7z"/>
</g>
<g id="_x23_193f47ff">
	<path class="st72" d="M193.2,78c1.9,0.7,3.8,1.5,5.8,2.2c0.4,0.1,1.1,0.4,1.4,0.5c-2.2,0.7-4.5,1.4-6.7,2.3
		C193.6,81.3,193.4,79.6,193.2,78z"/>
</g>
<g id="_x23_0d3446ff">
	<path class="st73" d="M185.7,78.1c2.7,1.6,4.7,4.1,5.2,7.2c-0.2,2.2-0.6,4.5-2.2,6.1c-3.7-3-7.1-6.4-9.8-10.3
		c2.5,0.7,5,1.4,7.5,2.2C186.2,81.6,185.9,79.8,185.7,78.1z"/>
</g>
<g id="_x23_070c13ff">
	<path class="st74" d="M43.9,80.1c2.5,0.4,5,0.8,7.5,1.3c2.1,1.2,4.1,2.7,6.1,4.1c-1.2,1.7-2.5,3.3-3.7,5c1.5,0.5,3,1,4.6,1.4
		c0.4-0.3,1.2-0.8,1.6-1c0.9,0.5,1.9,1,2.8,1.5c-0.7,2.2-1.5,4.3-2,6.5c-0.4,1.8-0.7,3.7-1,5.6c-2.7,1.8-5.9,2.3-9.1,1.9
		c1.1-1.6,2.1-3.2,3.1-4.8c-1.5,0.9-3,1.8-4.4,2.7c-0.4-1.8-0.5-3.7-1.5-5.2c-1.4-1.5-3.3-2.6-5-3.7c-1,1.5-2,2.9-2.9,4.4
		c1.4,0.9,2.7,1.8,4.1,2.7c-0.7,1.8-1.5,3.6-2.2,5.4c1.6-1.2,3.2-2.4,4.8-3.6c0,1.5-0.1,2.9-0.2,4.4c-1.2,1.1-2.4,2.2-3.5,3.4
		c-0.8-1.2-1.5-2.5-2.3-3.7c-1.6-1.6-3.8-2.3-5.9-3.1c1.5-4.5,1.9-9.3,4.1-13.5C40.6,87.9,42.1,84,43.9,80.1z"/>
</g>
<g id="_x23_070b11ff">
	<path class="st75" d="M200.4,80.7c1.6,0.1,3.2,0.3,4.8,0.5c0.5,3.8,2.7,7.1,3.7,10.7c1,3.1,1.2,6.6,2.9,9.5
		c1.7,2.6,4.1,4.6,6.2,6.8c-1.8,2-4.1,3.6-6.1,5.4c-0.8,0.6-0.7,1.8-0.3,2.6c1.4,2.4,3.2,4.4,4.9,6.6c-0.4,0.4-1.1,1.2-1.5,1.6
		l-0.6,0.1c-1.9,0.3-3.8,0.9-5.6,1.7l-0.7,0.3c-3.4,0.4-6.8,0.3-10.2,0.8c-2.9,0.5-6,0.8-8.9-0.1c2-1.1,4-2.1,6.1-2.8
		c0.9-0.1,1.7-0.2,2.6-0.3c-1.8-1.6-4.9-3-3.8-5.9c0.2-1.6,0.4-3.1,0.7-4.7c0.1-0.8,0.2-1.6,0.4-2.4c0.9,0.1,1.8,0.2,2.8,0.3
		c1.7,0.3,4.3,0.4,4.5-1.9c-3.4-1.6-7.2-1.4-10.8-1.3c-1.5-2.4-0.6-5.2-0.1-7.8c-1.8-0.6-4.2-1-4.5-3.2c-1.2-2.2,0.1-4.3,1.9-5.7
		c1.7-1.6,2-3.9,2.2-6.1c0.9-0.8,1.8-1.6,2.8-2.4C195.9,82.1,198.2,81.4,200.4,80.7 M203.4,94.9c0,1.2,0,2.5,0,3.7c-1,0-2-0.1-3-0.1
		c-0.2,1.9-0.3,3.8-0.4,5.7c2.3-1.2,4.7-2.2,6.5-4.1C207.7,97.7,205.7,95.4,203.4,94.9 M200.2,115.3c0,0.6,0,1.9,0,2.6
		c0.5-0.1,1.5-0.4,2-0.5c0.1-0.5,0.4-1.5,0.5-2C202.2,115.3,200.9,115.3,200.2,115.3z"/>
</g>
<g id="_x23_384f58ff">
	<path class="st76" d="M71.1,80.7c0.7,0.1,2.1,0.2,2.8,0.2c-0.1,0.6-0.2,1.9-0.3,2.5c-0.6,0.1-1.8,0.4-2.4,0.5
		C71.1,83.1,71.1,81.5,71.1,80.7z"/>
</g>
<g id="_x23_55adb2ff">
	<path class="st77" d="M119,81.4c1.6-1,2.6,1.5,2.1,2.7c-0.3,0.2-1,0.6-1.3,0.8C119,84,117.9,82.5,119,81.4z"/>
</g>
<g id="_x23_294754ff">
	<path class="st78" d="M174.9,83.7c0.6-1.3,0.6-4.3,2.7-2.6c0.1,0.7,0.4,2,0.5,2.7C177.3,83.8,175.7,83.7,174.9,83.7z"/>
</g>
<g id="_x23_113040ff">
	<path class="st79" d="M60.1,84.1c1.8-2,4.8-1.2,7.1-1.2c-1.9,3.1-4.3,5.9-7.2,8.1c-0.4,0.2-1.2,0.8-1.6,1
		C58.6,89.3,58.4,86.3,60.1,84.1z"/>
</g>
<g id="_x23_307e7eff">
	<path class="st80" d="M70.4,85.3c1.3-1.1,2.9,1.2,1.6,2.2C70.6,88.5,69.1,86.2,70.4,85.3z"/>
</g>
<g id="_x23_345964ff">
	<path class="st81" d="M175.8,87.7c0.5-1.5,1.5-2.6,3-3.1c0,0.8,0.1,2.5,0.1,3.3C178.1,87.8,176.6,87.7,175.8,87.7z"/>
</g>
<g id="_x23_3dabbdff">
	<path class="st82" d="M82.4,85.6c1.4,1,2.8,2.1,4.1,3.3c2.4,4.4,5.4,8.5,9.4,11.5c-0.5,0-1.6,0.1-2.1,0.2
		C87.6,98.1,83.6,92.1,82.4,85.6z"/>
</g>
<g id="_x23_203d43ff">
	<path class="st83" d="M111.8,99.1c0.4-2.2,0.4-5.3,3.3-5.5C114.5,95.6,114.6,98.8,111.8,99.1z"/>
</g>
<g id="_x23_548587ff">
	<path class="st84" d="M172.3,94c1.5-1.3,3.4,1.1,1.5,2C172.3,97.2,170.4,94.9,172.3,94z"/>
</g>
<g id="_x23_1c4858ff">
	<path class="st85" d="M65,100.1c-0.1-3.1,2.3-4.7,5-5.5C68.9,96.9,67.6,99.2,65,100.1z"/>
</g>
<g id="_x23_152730ff">
	<path class="st86" d="M203.4,94.9c2.4,0.5,4.3,2.8,3.1,5.2c-1.8,1.9-4.2,2.9-6.5,4.1c0.1-1.9,0.2-3.8,0.4-5.7c1,0,2,0.1,3,0.1
		C203.3,97.4,203.3,96.1,203.4,94.9z"/>
</g>
<g id="_x23_164258ff">
	<path class="st87" d="M162.7,101.3c2-1.2,3.9-3.1,6.3-2.9c2.9,0.1,5.9,0.4,8.8,0.6c-1.9,4-5.1,7.2-8.6,9.9
		c-1.5,0.8-3.1,1.6-4.6,2.4c-0.1-1-0.2-2-0.3-3c-1.2,1.2-2.4,2.5-3.7,3.7c-1.3-1.3-2.7-2.6-4-3.8c-0.2,1.6-0.5,3.2-0.6,4.8
		c-0.6-1.6-1.9-3.7-0.3-5.1c4.8-4.3,12.9,0,16.9-5.9C169.5,100.1,166,100.5,162.7,101.3z"/>
</g>
<g id="_x23_1d414cff">
	<path class="st88" d="M60.8,99c0.7,0.1,2,0.2,2.7,0.3c-0.3,1.8-0.7,3.5-1,5.2c-0.9,0-1.8,0-2.7,0.1C60,102.7,60.3,100.8,60.8,99z"
		/>
</g>
<g id="_x23_1f3843ff">
	<path class="st89" d="M129.3,98.5c1.9,1.5,4,3.4,2.9,6.1C129.6,103.6,129.6,100.8,129.3,98.5z"/>
</g>
<g id="_x23_103c4bff">
	<path class="st90" d="M76.1,100.7c0.5,0,1,0,1.4-0.1c0.3,2.8,2.7,4.1,5.3,4.2c-1,1.2-2,2.4-2.7,3.7c0.1,1,0.3,1.9,0.5,2.9
		c0.2,1.7,0.4,3.4,0.6,5.1c-2.8-2.1-5.2-4.8-8.2-6.6c-2.5-0.9-5.2-0.6-7.8-0.7c-0.6,0-1.8-0.1-2.4-0.1c0.9-0.8,1.8-1.7,2.8-2.4
		C69.9,109.5,75.1,105.2,76.1,100.7z"/>
	<path class="st90" d="M95.9,100.5c2.2,2.4,5.1,4.1,8.3,4.7c0.2,0.7,0.5,1.4,0.7,2.1c1.8-1.2,3.7-2.3,5.5-3.5
		c-0.5,1.9-1.2,3.8-1.2,5.8c1.3,1.4,3.6,1.3,5.3,2c0.1,0.6,0.2,1.8,0.3,2.4c-0.7,1.3-1.3,2.6-2,3.9c0.9,1.4,1.7,2.8,2.6,4.2
		c-0.6,2.1-1.2,4.2-1.9,6.4c4.6,2.5,7.5,7.6,6.7,12.9c-3.8-0.5-7.4-1.7-11-2.9c-1.1-3.1-2.4-6.2-3.6-9.3c-1.1,2.9-2.9,5.2-4.8,7.6
		c-0.9,2.2-0.4,4.8-0.7,7.2c-0.2,0.5-0.6,1.6-0.8,2.1c-1.7,0.9-3.4,1.8-5.1,2.7c0.1-1.7,0.2-3.4,0.3-5c-1.1,1.1-2.3,2.2-3.4,3.3
		c0-2.3,0.1-4.6,0.1-6.9c-0.9-0.6-1.7-1.2-2.6-1.8c3.3-1.7,6.8-3.1,10.2-4.5c0.6-1.9,1.2-3.7,1.8-5.6c0.9,0.8,1.9,1.5,2.8,2.3
		c0-2.3-0.5-4.7,0.3-6.9c1.3-2.2,3.3-3.8,4.6-5.9c0.8-2.2,0.5-5.2-1.5-6.8c-3.8-3.1-8.5-4.9-12.8-7c-0.1-1.2-0.1-2.3-0.2-3.5
		C94.4,100.6,95.4,100.5,95.9,100.5 M109.2,124.7c-0.1,3-1,7.2,2.5,8.8C111.6,130.4,111.1,127.3,109.2,124.7z"/>
</g>
<g id="_x23_113f50ff">
	<path class="st91" d="M134.2,114.3c0.8-4.9-0.6-10.5,2.3-14.9c0.6,1.5,1.2,3.1,1.7,4.7c-0.8,2.6-0.5,5.3,0.9,7.6
		c1.3-2.2,1.5-4.7,1.5-7.1c1.7,1.6,3.5,3.1,5.2,4.6c-1.7,0.8-3.4,1.6-5.1,2.4c0.2,2.2,0.5,4.4,0.7,6.6c2.7,0.2,5.4,0.5,8.1,0.7
		c-0.8,0.7-1.6,1.4-2.4,2.1c1.2,0.1,2.4,0.1,3.6,0.2c0.6,0.1,1.9,0.1,2.6,0.2l0.8,0.1c-1.6,0.6-3.1,1.3-4.7,1.9
		c-1.2-0.3-2.5-0.5-3.8-0.8c1.7,4.1,3.5,8.1,5.1,12.2c0.5-1.1,1.1-2.3,1.6-3.4c2.4,2.6,4.7,5.4,7.5,7.6c1.2,0.8,2.5,1.5,3.7,2.3
		c1,4.5-2.2,8.3-2.9,12.6c1.2,1.5,2.7,2.7,3.9,4.2c0.2,2-0.3,4-0.7,6c2-0.3,4-0.6,5.9-0.9c0.7,1,1.4,2.1,2.1,3.1
		c-5.2,0.4-9.7,3.6-12.6,7.8c1.2-0.1,2.4-0.2,3.6-0.2c-0.9,3.3-1.9,6.6-2.9,9.8c-1.6-0.7-3.1-1.4-4.7-2.1c-1.4,5-4.4,9.3-8.4,12.6
		c0.5,1.9,1.1,3.9,1.6,5.8c-2-1.1-4.2-2.1-6.6-1.9c-2.3-0.1-4.7-0.2-7-0.1c-3.7,0.3-7.2,1.9-10.9,1.9c-2.5-0.1-4.6-1.6-7.1-1.8
		c-3.5-0.2-6.9,0-10.4-0.3c-0.4-0.6-0.7-1.3-1.1-1.9c-2,2.3-4.4,4.3-7.6,4.4c-0.6-3.8,2.1-7.3,0.9-11c1.1-7.1,0.1-14.6,3.3-21.3
		c1.3,0.3,2.6,0.6,3.8,1c0.4,1.7,0.7,3.4,1.1,5.1c-0.4,0.6-1.2,1.9-1.6,2.5c-0.4-1.5-0.8-3-1.2-4.5c-2,4-1.4,8.6-0.7,12.8
		c0.5,3.7,4.5,5.2,6.4,8.1c0.6,1.3,0.8,2.8,1.2,4.2c3.2,0.1,6.5,0.1,9.7,0.1c0.3-0.9,0.6-1.9,0.9-2.8c-1.8-1.2-3.5-2.5-5.3-3.6
		c0.8-1.8,1.8-3.5,2.1-5.4c-2.5-0.5-4.4,1.1-5.8,2.9c-2.1-1.9-4-4-5.8-6.2c1.8-1.1,3.7-2.2,5.6-3.2c-0.5,1.5-1,3.1-1.5,4.6
		c2.6,0,5.2,0,7.7,0.6c1.7,2,3.1,4.4,6.1,4.2c0.5,1,1,1.9,1.5,2.9c1.9-2.7,3.4-5.7,6-7.8c2-1.1,4.5-0.1,6.6,0
		c-3.6-4.8-9.7-5.5-15.2-5.9c6.2-0.6,12.7,0.2,17.7,4.3c0.9-2.3,1.4-4.8,1.6-7.3c0.6,0.2,1.2,0.5,1.8,0.8
		c-0.3,6.1-4.9,10.8-9.2,14.7c0.4-0.6,1.2-1.8,1.6-2.3c-1.6-1.1-3.3-2-5.1-2.8c-0.5,1.3-0.9,2.6-1.3,3.9c1.4,0.6,2.8,1.1,4.2,1.7
		c-2.8,1.4-5.7,2.6-8.5,4c1.5,1.5,3.3,3.7,5.7,2.6c4.1-1.7,7.8-4.4,11.1-7.4c3.2-3,2.9-7.6,3.1-11.6c1.6,1,3.2,1.8,4.9,2.6
		c0.5-3.6,1.7-7.3,0.9-11c-0.5-1.6-1.1-3.2-1.6-4.8c0.8-1.4,1.5-2.9,2.2-4.3c6.6-4.4,8.1-13.6,7.3-21c-1.3,2.9-2.8,5.7-5,8
		c-2.5,2.5-1.8,6.4-2.1,9.6c-1.6-2.5-3.9-4.5-6.2-6.4c1.5-3.4,2.8-6.9,3.7-10.5c-2.4,0.9-4.8,2.7-7.5,2.6c-1.9-1.2-3.4-2.9-5-4.5
		c-1.9,0.6-4,1.1-5.7,2.2c-1.6,1.4-2.3,3.4-3.4,5.1c-0.5,0-1.5,0.1-2,0.1c-1.6,0.1-3.2,0.1-4.8,0.1c-0.6,0-2-0.1-2.6-0.1
		c0.1-1.1,0.1-2.3,0.2-3.4c2.9,0.2,5.8,0.2,8.6,0.4c0.4-2.2,0.7-4.5,1-6.7c2.5-2.8,6.4-5.8,5.8-9.9
		C135.2,122.2,134.9,118.2,134.2,114.3 M156.2,177.9c-1.8,0.8-0.1,2.9,1.3,1.8C159.3,178.9,157.6,176.7,156.2,177.9z"/>
</g>
<g id="_x23_3c4a49ff">
	<path class="st92" d="M121.2,101.3c1.5-1.2,3.1,1.3,1.6,2.3C121.4,104.8,119.7,102.3,121.2,101.3z"/>
</g>
<g id="_x23_314340ff">
	<path class="st93" d="M126.1,101.1c0.7,0,2.1,0,2.8,0c0,0.7-0.1,2-0.1,2.6c-0.6,0-1.9,0-2.5,0C126.2,103.1,126.1,101.8,126.1,101.1
		z"/>
</g>
<g id="_x23_13354aff">
	<path class="st94" d="M82.8,104.8c3.8,0.6,8.1,0.6,11.3,3.1c3.6,2.5,4.7,6.9,6.4,10.7c-2-1.5-4.3-2.7-6.6-3.5
		c-0.6-2.5-1-4.9-1.5-7.4c-0.3,0.3-0.9,0.9-1.3,1.3c-0.2,0.7-0.6,2-0.8,2.6c-1.8-0.3-3.5-1-5.1-1.8c-0.7,0.7-1.4,1.4-2.1,2.1
		c-1-1.1-2-2.2-3-3.3C80.9,107.2,81.8,106,82.8,104.8z"/>
</g>
<g id="_x23_315f74ff">
	<path class="st95" d="M176.2,104.9c3.2,0.4,6.7,0.9,9,3.6c-2.2,0.1-4.3,0.2-6.5,0.1C177.9,107.3,177.1,106.1,176.2,104.9z"/>
</g>
<g id="_x23_235a71ff">
	<path class="st96" d="M32.5,107.4c0.6-0.5,1.7-1.6,2.2-2.2c2.1,0.8,4.2,1.5,5.9,3.1C37.8,108.5,35.1,108.2,32.5,107.4z"/>
</g>
<g id="_x23_112f3dff">
	<path class="st97" d="M28.7,109.6c1.2-0.7,2.5-1.5,3.8-2.2c2.6,0.7,5.4,1.1,8.1,0.9c0.8,1.2,1.6,2.4,2.3,3.7
		c-1.4,1.3-2.7,2.7-3.9,4.1c0.4-0.1,1.3-0.2,1.7-0.3c-1.6,1.1-3.4,2.1-4.6,3.7c-0.8,1.6-0.4,3.4-0.6,5.1c-0.4,0.1-1.3,0.4-1.7,0.6
		l-0.9,0.3l-0.3-0.4c-1.5-2.5-3.9-4.4-5.2-7C27.8,115.2,28.5,112.4,28.7,109.6z"/>
</g>
<g id="_x23_1dd3eeff">
	<path class="st98" d="M91,108.9c0.3-0.3,0.9-0.9,1.3-1.3c0.5,2.4,1,4.9,1.5,7.4c-1.7,0.1-3.5,0.3-5.2,0.6c-1.3,0.5-2.6,1.1-3.8,1.7
		c-0.1-2.7-2.2-4.4-4.2-5.8c-0.2-1-0.3-1.9-0.5-2.9c1,1.1,2,2.2,3,3.3c0.7-0.7,1.4-1.4,2.1-2.1c1.6,0.8,3.3,1.5,5.1,1.8
		C92,112.5,92.9,109.3,91,108.9z"/>
</g>
<g id="_x23_25d5f0ff">
	<path class="st99" d="M160.6,111.9c1.2-1.2,2.5-2.5,3.7-3.7c0.1,1,0.2,2,0.3,3c-0.9,1.2-1.9,2.4-2.8,3.6c-1.7-0.1-3.4-0.3-5.2-0.3
		c-0.2-0.4-0.5-1.2-0.7-1.7c0.1-1.6,0.4-3.2,0.6-4.8C158,109.3,159.3,110.6,160.6,111.9z"/>
</g>
<g id="_x23_1d4855ff">
	<path class="st100" d="M191.5,108.2c3.6-0.1,7.4-0.2,10.8,1.3c-0.2,2.4-2.7,2.2-4.5,1.9C195.6,110.5,193.5,109.4,191.5,108.2z"/>
</g>
<g id="_x23_1a4e5cff">
	<path class="st101" d="M218,108.2l0.9-0.9c1.4,3.9,0.6,8.2,0.6,12.2c-0.9,1.2-2,2.2-3,3.2c-1.6-2.2-3.5-4.2-4.9-6.6
		c-0.4-0.8-0.5-2,0.3-2.6C213.9,111.8,216.2,110.2,218,108.2z"/>
</g>
<g id="_x23_1e4c64ff">
	<path class="st102" d="M42.9,112c1.2-1.1,2.3-2.2,3.5-3.4c1.1,0.9,2.2,1.9,3.2,2.8c-2.9,1.7-5.8,3.4-9,4.3
		c-0.4,0.1-1.3,0.2-1.7,0.3C40.3,114.7,41.6,113.3,42.9,112z"/>
</g>
<g id="_x23_0b2534ff">
	<path class="st103" d="M65.1,109.2c2.6,0.2,5.3-0.1,7.8,0.7c3.1,1.8,5.4,4.5,8.2,6.6c-0.2-1.7-0.3-3.4-0.6-5.1
		c2,1.5,4.1,3.2,4.2,5.8c1.3-0.6,2.5-1.2,3.8-1.7c0.1,0.8,0.4,2.2,0.6,3c2.5,1.1,5,2.2,7.4,3.5c-2.9,0.6-5.9,0.8-8.8,0.9
		c-4.8,0-9.3,1.5-13.7,3.3c-2.5-2-5.2-3.8-7.6-5.9c-0.4,0.2-1.2,0.6-1.5,0.8c4.3,4.1,8.9,8,14.3,10.5c-0.9,0.7-1.9,1.5-2.8,2.2
		c-2.5-1.5-4.9-3-7.3-4.7c-1.1,1.5-2.2,3.1-3.2,4.6c-1-0.9-2-1.9-3-2.8c-1-3.7-0.9-7.6-1.4-11.4l0.4-0.7c0.5-1.1,1.1-2.1,1.6-3.2
		C64.3,113.6,64.7,111.4,65.1,109.2z"/>
</g>
<g id="_x23_83c8dcff">
	<path class="st104" d="M90.2,111.6c0.2-0.7,0.6-2,0.8-2.6C92.9,109.3,92,112.5,90.2,111.6z"/>
</g>
<g id="_x23_346577ff">
	<path class="st105" d="M164.7,111.2c1.5-0.8,3.1-1.6,4.6-2.4c-1.5,2.8-3,5.5-5,8c-4.2-0.3-6.8,4.1-10.8,4.5
		c-0.6-0.1-1.9-0.1-2.6-0.2c1.4-2,2.9-4.1,4.2-6.3c0.4-0.1,1.3-0.3,1.7-0.4c1.7,0,3.4,0.2,5.2,0.3
		C162.8,113.7,163.7,112.5,164.7,111.2z"/>
</g>
<g id="_x23_39f8f9ff">
	<path class="st106" d="M116.8,110.3c4.3,3,10.8,3.7,15,0.2c0.6,1.5,1.2,3.1,1.9,4.6c-1.2,2.2-2.5,4.4-3.2,6.8c0.8,1.6,2,2.9,3,4.3
		c-0.6,0.7-1.1,1.4-1.7,2.1c-0.7-0.6-1.3-1.3-2-1.9c-0.5,1.4-1.1,2.7-1.6,4.1c0.8,0.1,1.6,0.2,2.3,0.3c-0.3,1.8-0.5,3.5-0.8,5.3
		c-0.4,2.2-0.7,4.5-1,6.7c-2.9-0.1-5.8-0.2-8.6-0.4l0.1-1c0.8-5.3-2-10.4-6.7-12.9c0.7-2.1,1.3-4.2,1.9-6.4
		c-0.9-1.4-1.7-2.8-2.6-4.2c0.7-1.3,1.3-2.6,2-3.9c1.2,0.7,2.4,1.5,3.6,2.2C117.9,114.2,117.3,112.3,116.8,110.3z"/>
</g>
<g id="_x23_0d3345ff">
	<path class="st107" d="M53.3,114c-0.4-2.6,3-2.7,4.7-3.5c0.2,1.2,0.3,2.4,0.5,3.7c1.6,0.5,3.3,1,4.9,1.5c-0.5,1.1-1,2.2-1.6,3.2
		c-1.6-0.4-3.2-0.8-4.8-1.2c0,0.6-0.2,1.7-0.2,2.3c1.5-0.1,3.1-0.2,4.6-0.3c0.5,3.8,0.4,7.7,1.4,11.4c-0.1,0.5-0.2,1.4-0.3,1.9
		c-0.5-0.5-1.4-1.5-1.9-2c-0.6,0-1.7,0-2.2,0c0,1,0,2,0.1,3c-1.2,0.3-2.3,0.6-3.5,0.9c-1.2,2.6-3,4.8-5.5,6.1c1,0.7,2,1.3,2.9,2
		c-1.6-0.2-3.1-0.4-4.7-0.4c-1.5,0-3,0.1-4.6,0.1c0.5,3.2,1.1,6.3,1.9,9.5c1.6-1.7,2.6-3.8,2.7-6.2c0.6,1,1.1,2,1.9,2.9
		c3.2,0.5,6.4,0.6,9.6,1.3c-2.8,3.6-6.7,6.2-9.2,10.2c-1.9-4.5-7.2-6.4-8.5-11.1c-1-2.7-3.9-3.9-5.9-5.8c1.6-0.9,3.1-1.8,4.7-2.7
		c-0.2-1.4-0.4-2.9-0.6-4.3c2.5,0.3,4.8,1.5,6.7,3c-0.7-1.5-1.4-3-2.1-4.5c4.3-1.1,8.7-2.6,12-5.8c-5.3-3.5-11.5-0.4-17.3-1.3
		c-0.3-0.8-0.9-2.2-1.2-3c0.9,0.2,1.8,0.4,2.7,0.6c0.3-1.9,0.5-3.7,0.8-5.6c4.6,1.1,9.4,0.3,13.9-0.6
		C54.7,117.6,53.7,115.9,53.3,114z"/>
</g>
<g id="_x23_143847ff">
	<path class="st108" d="M180.3,114.4c0.5-1,1-2,1.6-2.9c1.3,1.3,2.6,2.6,3.8,3.9c-1.4,1.3-2.7,2.7-4.1,4
		C181,117.8,179.1,116.2,180.3,114.4z"/>
</g>
<g id="_x23_143b4bff">
	<path class="st109" d="M189,115.2c1.4-1.7,3.8-1.5,5.7-1.7c-0.2,1.6-0.5,3.1-0.7,4.7c-2.1,1.3-4.6,1.9-7,2.1
		C187.5,118.6,187.8,116.7,189,115.2z"/>
</g>
<g id="_x23_2e8692ff">
	<path class="st110" d="M93.8,115.1c2.4,0.8,4.6,2.1,6.6,3.5c0.8,0.8,1.7,1.7,2.5,2.5c-2.1,0.3-4.2,0.6-6.3,1
		c-2.4-1.2-4.9-2.4-7.4-3.5c-0.1-0.8-0.4-2.2-0.6-3C90.3,115.4,92.1,115.2,93.8,115.1z"/>
</g>
<g id="_x23_26cdd9ff">
	<path class="st111" d="M133.8,115.1l0.4-0.8c0.7,3.9,1,7.9,1.4,11.9c0.7,4.2-3.3,7.1-5.8,9.9c0.3-1.8,0.5-3.5,0.8-5.3
		c-0.8-0.1-1.6-0.2-2.3-0.3c0.5-1.4,1-2.7,1.6-4.1c0.7,0.6,1.3,1.3,2,1.9c0.6-0.7,1.1-1.4,1.7-2.1c-1.1-1.4-2.2-2.7-3-4.3
		C131.2,119.5,132.6,117.3,133.8,115.1z"/>
</g>
<g id="_x23_227689ff">
	<path class="st112" d="M57.1,117.7c1.6,0.4,3.2,0.8,4.8,1.2l-0.4,0.7c-1.5,0.1-3.1,0.2-4.6,0.3C57,119.4,57.1,118.3,57.1,117.7z"/>
</g>
<g id="_x23_275c5eff">
	<path class="st113" d="M160.2,120.1c1.6-0.5,2.2,0,1.6,1.7C160.2,122.3,159.6,121.7,160.2,120.1z"/>
</g>
<g id="_x23_07070dff">
	<path class="st114" d="M154.2,121.4c5,0.6,10.1,1,15.1,1.1c2-0.1,3.4,1.4,4.8,2.6c-1.1,0.1-2.2,0.2-3.3,0.4
		c-0.9,4-0.9,8.1-0.3,12.1c-0.3-0.4-0.9-1.2-1.2-1.6c-1.5-2-3.2-4-4.9-5.9c-0.6,3.7-1.2,7.4-0.8,11.1c-1.2-0.8-2.5-1.5-3.7-2.3
		c0.5-2.9,3.1-7.7-0.6-9.4c-3.7-1.2-7.2-3.1-9.8-6.2C151.1,122.7,152.6,122,154.2,121.4z"/>
</g>
<g id="_x23_0d1a25ff">
	<path class="st115" d="M145.8,122.6c1.2,0.3,2.5,0.5,3.8,0.8c2.6,3,6.1,5,9.8,6.2c3.8,1.7,1.1,6.5,0.6,9.4
		c-2.8-2.2-5.1-4.9-7.5-7.6c-0.5,1.1-1.1,2.3-1.6,3.4C149.2,130.7,147.5,126.7,145.8,122.6z"/>
</g>
<g id="_x23_0d3a4dff">
	<path class="st116" d="M188.7,122.9c2.2-1.8,4.5,0.6,6.5,1.5c-2.1,0.7-4.2,1.7-6.1,2.8c2.9,0.9,5.9,0.6,8.9,0.1
		c-0.7,0.6-1.5,1.3-2.2,1.9c0.6,0.6,1.3,1.2,1.9,1.7c-2.7,1.2-5.5,2.5-8.4,3.1c0.2-0.6,0.7-1.8,1-2.4c-1.3-0.3-2.6-0.6-3.9-1
		C186.1,127.9,186,124.5,188.7,122.9z"/>
</g>
<g id="_x23_37838aff">
	<path class="st117" d="M33.8,125.2c0.4-0.1,1.3-0.4,1.7-0.6c0.6,0.1,1.9,0.2,2.5,0.3c0.3,0.8,0.9,2.2,1.2,3
		C37.4,127.2,35.6,126.2,33.8,125.2z"/>
</g>
<g id="_x23_376e74ff">
	<path class="st118" d="M208.8,126.2c1.8-0.8,3.6-1.4,5.6-1.7c0,2.2,0,4.3-0.1,6.5c-0.1,0.8-0.1,2.3-0.2,3.1
		c-0.6-1.4-1.2-2.8-1.8-4.1C211.2,128.6,210,127.4,208.8,126.2z"/>
</g>
<g id="_x23_090b10ff">
	<path class="st119" d="M32.7,125l0.3,0.4c1.7,3.5,4.1,6.5,6.3,9.7c0.2,0.3,0.5,1,0.6,1.3c0.2,1.4,0.4,2.9,0.6,4.3
		c-1.6,0.9-3.1,1.8-4.7,2.7c-1.6-1.9-3.9-3.6-3.5-6.4C31.8,133,34.7,128.8,32.7,125z"/>
</g>
<g id="_x23_134765ff">
	<path class="st120" d="M33,125.5l0.9-0.3c1.8,1,3.6,2,5.4,2.8c5.8,0.9,12-2.2,17.3,1.3c-3.3,3.1-7.6,4.6-12,5.8
		c0-1.7,0.2-3.5,0.5-5.2c-1.9,1.9-3.8,3.7-5.8,5.4C37,132,34.7,129,33,125.5z"/>
</g>
<g id="_x23_326574ff">
	<path class="st121" d="M109.2,124.7c1.9,2.5,2.4,5.7,2.5,8.8C108.3,132,109.1,127.8,109.2,124.7z"/>
</g>
<g id="_x23_0f2539ff">
	<path class="st122" d="M208.1,126.4l0.7-0.3c1.2,1.2,2.4,2.5,3.4,3.8c-0.8,1.8-1.6,3.6-2.5,5.3c-0.2,0.1-0.6,0.2-0.8,0.3
		c-0.9-1-1.8-2-2.6-3.1c-2.4,1.1-3.2,3.3-2.9,5.9c-0.3,0.4-1,1.1-1.3,1.4c-1.2-2.3-2-4.7-2.8-7.2
		C202.3,130.6,205.2,128.6,208.1,126.4z"/>
</g>
<g id="_x23_1a5b73ff">
	<path class="st123" d="M100.8,136.8c1.8-2.4,3.7-4.8,4.8-7.6c1.2,3.1,2.5,6.2,3.6,9.3c-0.5,2.4-1.8,4.8-1,7.3
		c1,3.9,4.5,7.8,2.2,11.9c-0.6-1.8-1.3-3.5-2-5.3c-0.8,0.1-1.7,0.1-2.5,0.2c0,1.7,0.2,3.5-0.2,5.2c-0.7,1.4-2.4,1.8-3.6,2.7
		c-0.1-4.4,0.2-8.8-0.4-13.1c3-2.7,3.4-6.8,3.3-10.6c-1.6,2.1-3.2,4.3-4.6,6.5l-0.4,0.7C100.4,141.6,99.9,139.1,100.8,136.8z"/>
</g>
<g id="_x23_3e8a9fff">
	<path class="st124" d="M186.4,130.7c1.3,0.3,2.6,0.6,3.9,1c-0.2,0.6-0.7,1.8-1,2.4c-0.7-0.1-2-0.2-2.7-0.3
		C186.5,133,186.4,131.4,186.4,130.7z"/>
</g>
<g id="_x23_338d9eff">
	<path class="st125" d="M203.5,138.3c-0.4-2.5,0.4-4.8,2.9-5.9c0.9,1,1.7,2.1,2.6,3.1C207,136.2,205,136.9,203.5,138.3z"/>
	<path class="st125" d="M70.1,200.3c1.7-0.5,3.4-1.4,5.3-1.3c1.4,1.2,2.5,2.7,3.7,4.1c-0.4,0.4-1.1,1.2-1.4,1.7
		c0.3,0.8,0.6,1.5,1,2.2l0.4,0.7c-2.1-1.3-4.2-2.4-6.2-3.7C71.8,202.8,71,201.5,70.1,200.3z"/>
</g>
<g id="_x23_113340ff">
	<path class="st126" d="M67.9,134.4c2.7,0.3,5.4,0.7,8,1.4c-0.4,1.5-0.8,3-1.2,4.5h-0.6c-0.5,0-1.5,0-2,0
		C70.7,138.4,69.2,136.4,67.9,134.4z"/>
</g>
<g id="_x23_225e6eff">
	<path class="st127" d="M56.3,139c0.5-1.6,1.8-2.7,2.9-3.9c1.2,2.1,2.4,4.2,3.6,6.3C60.5,141.4,56.7,141.9,56.3,139z"/>
</g>
<g id="_x23_286372ff">
	<path class="st128" d="M173.9,134.9c1,0.3,2,0.6,3,0.9c0.4,2.2,1.1,4.3,1,6.6c-1.2,1.5-2.8,2.7-4.2,4c-2.9-2.7-6-6.3-4.3-10.5
		c0.3,0.4,0.9,1.2,1.2,1.6c0.8,1.5,1.7,2.9,2.7,4.2C174.4,139.7,174.4,137.3,173.9,134.9z"/>
</g>
<g id="_x23_3d5a5eff">
	<path class="st129" d="M64,137.3c1.6-0.5,2.2,0,1.7,1.7C64.1,139.5,63.5,138.9,64,137.3z"/>
</g>
<g id="_x23_0f3b52ff">
	<path class="st130" d="M100.5,143.3c1.4-2.2,3-4.4,4.6-6.5c0.1,3.8-0.3,7.8-3.3,10.6C101.4,146,101,144.6,100.5,143.3z"/>
</g>
<g id="_x23_305c62ff">
	<path class="st131" d="M183.1,137.2c1.6-0.5,2.2,0,1.7,1.7C183.1,139.4,182.6,138.8,183.1,137.2z"/>
</g>
<g id="_x23_174258ff">
	<path class="st132" d="M185.9,142.5c-0.2-2.8,1.8-4.7,4-5.9c2,2,3.8,4.1,5.4,6.4c-1.2,1.1-2.5,2.2-3.8,3.3c0.1-1.5,0.2-3,0.3-4.6
		C189.9,141.9,187.9,142.2,185.9,142.5z"/>
</g>
<g id="_x23_0c1d28ff">
	<path class="st133" d="M109.2,138.5c3.6,1.2,7.3,2.4,11,2.9l-0.1,1c-0.1,1.1-0.1,2.3-0.2,3.4c0.7,0,2,0.1,2.6,0.1
		c-0.2,4.1,0.4,8.6-2,12.2c-1.8,0.2-3.6-0.2-5.4-0.5c1.5-1.3,3.1-2.5,4.6-3.8c0.1-0.7,0.2-2.1,0.3-2.8c-1.6-0.4-3.2-0.8-4.8-1.1
		c-0.2,0.4-0.7,1.1-0.9,1.5c-1.7,4.3,0.4,9-0.8,13.4c-1.3-1.4-2.6-2.8-3.9-4.2c0.3-1,0.5-2.1,0.8-3.1c2.2-4.1-1.2-8-2.2-11.9
		C107.4,143.3,108.7,140.8,109.2,138.5z"/>
</g>
<g id="_x23_0c2735ff">
	<path class="st134" d="M132.8,140.6c1.7-1.1,3.8-1.6,5.7-2.2c1.6,1.6,3,3.3,5,4.5c2.7,0.1,5-1.7,7.5-2.6c-0.9,3.6-2.2,7.1-3.7,10.5
		c2.3,1.9,4.6,3.9,6.2,6.4c0,0.9-0.1,2.6-0.2,3.5c-0.7,1.4-1.5,2.9-2.2,4.3c-3-2.6-5.7-5.6-8.2-8.6c1.8-2,2.2-4.5,1.2-7
		c-2.6,1.2-5.4,1.8-8.1,2.5c-2,1.6-3.1,3.9-4,6.1c-1.3-0.5-3.3-0.5-3.7-2.1c-1.1-3.2-0.8-6.7-0.8-10.1c0.5,0,1.5-0.1,2-0.1
		C130.4,143.9,131.2,141.9,132.8,140.6 M130,151.1c0,0.8,0,2.3,0,3.1c1.9-1.1,3.6-2.5,5.1-4.2C133.4,150.3,131.7,150.7,130,151.1z"
		/>
</g>
<g id="_x23_1a6b83ff">
	<path class="st135" d="M90.4,157.4c-1.2-6.2-3.7-12.7-1.8-19c0.9,0.6,1.7,1.2,2.6,1.8c-0.1,2.3-0.1,4.6-0.1,6.9
		c1.1-1.1,2.3-2.2,3.4-3.3c-0.1,1.7-0.2,3.3-0.3,5c1.7-0.9,3.4-1.8,5.1-2.7c-1.3,3.3-2.4,6.7-3.4,10.1c-1.9-2.8-3.8-5.5-5.8-8.3
		c0.2,3.4,0.3,6.9,0.5,10.3L90.4,157.4z"/>
</g>
<g id="_x23_3e999bff">
	<path class="st136" d="M70,140.3c0.5,0,1.6,0,2.1,0c0.5,0,1.5,0,2,0c0.8,1.1,1.7,2.1,2.5,3.2c-0.2,0.8-0.5,1.6-0.7,2.4
		C73.7,144.4,70.8,143.2,70,140.3z"/>
</g>
<g id="_x23_135b74ff">
	<path class="st137" d="M155.5,147.6c2.2-2.3,3.7-5.1,5-8c0.8,7.4-0.7,16.6-7.3,21c0-0.9,0.1-2.6,0.2-3.5
		C153.8,153.9,153.1,150.1,155.5,147.6z"/>
</g>
<g id="_x23_155467ff">
	<path class="st138" d="M43.3,142.7c1.5-0.1,3-0.1,4.6-0.1c0,0.6,0,1.9,0,2.5l0,0.9c-0.1,2.3-1,4.5-2.7,6.2
		C44.5,149,43.9,145.9,43.3,142.7z"/>
</g>
<g id="_x23_394e55ff">
	<path class="st139" d="M54.4,143.2c1.4-1.3,3.6,1.1,2.3,2.4C55.4,146.8,53.1,144.5,54.4,143.2z"/>
</g>
<g id="_x23_1892b3ff">
	<path class="st140" d="M100.1,144l0.4-0.7c0.5,1.3,0.9,2.7,1.3,4c0.6,4.3,0.3,8.7,0.4,13.1c1.2-0.9,2.8-1.4,3.6-2.7
		c0.4-1.7,0.2-3.5,0.2-5.2c0.8-0.1,1.7-0.1,2.5-0.2c0.7,1.8,1.3,3.5,2,5.3c-0.3,1-0.6,2.1-0.8,3.1c-0.5,3.1-0.3,6.3-0.1,9.4
		c-0.8,1.3-1.5,2.5-2.3,3.8c-0.4-1.7-0.7-3.4-1.1-5.1c-1.3-0.3-2.6-0.6-3.8-1c0.6-1.7,1-3.4,1.5-5.1c-4.5,1.2-8.3-1.6-11.9-3.9
		c1.8,6.9,3.5,13.9,2.9,21.2c-1-2.5-2.3-4.9-3.6-7.2c0.1-4.9,0.5-9.8-0.7-14.6c-0.2-3.4-0.3-6.9-0.5-10.3c2,2.7,3.9,5.5,5.8,8.3
		c1-3.4,2.1-6.8,3.4-10.1C99.5,145.6,99.9,144.5,100.1,144z"/>
</g>
<g id="_x23_060d12ff">
	<path class="st141" d="M122.6,145.9c1.6,0,3.2,0,4.8-0.1c0,3.3-0.3,6.8,0.8,10.1c0.4,1.6,2.4,1.6,3.7,2.1c0.9-2.3,2-4.6,4-6.1
		c1.7,4.3-1.2,9.1,1.5,13.2c0.7,1.2,1.4,2.3,2.2,3.5c-0.4,0-1.2,0.1-1.7,0.1c-3.1,0.2-6.1,0.5-9.1,0.9c-3.2,0.2-6.4,0.1-9.5-0.1
		c-2.1-0.2-4.1-0.4-6.2-0.5c0.1-1.3,0.3-2.7,0.5-4c1.2-4.4-0.9-9.1,0.8-13.4c1.8,0.8,3.6,1.6,5.4,2.4c-1.6,1.2-3.1,2.5-4.6,3.8
		c1.8,0.3,3.6,0.7,5.4,0.5C123,154.5,122.4,150,122.6,145.9z"/>
</g>
<g id="_x23_0e3545ff">
	<path class="st142" d="M64.4,146.2c1.1,0.8,2.2,1.6,3.3,2.4c-2,3.3-3.2,7-3.7,10.8c1.6,0.6,3.1,1.1,4.7,1.7c-1.1,1.5-2,3.5-4.2,3.5
		c-3,0.5-4.4-2.9-4.3-5.3c0.8,0,2.3,0,3.1,0c-0.8-1.2-1.6-2.4-2.5-3.4c-0.3-0.4-0.9-1-1.2-1.4C62,152.2,63.7,149.4,64.4,146.2z"/>
</g>
<g id="_x23_113945ff">
	<path class="st143" d="M180.3,148.1c1.2-0.7,2.4-1.3,3.6-2c1.3,3.1,3,5.9,5.4,8.2c0.2-1.5,0.5-3,0.7-4.5c2.8,0.4,5.7,0.8,8.5,1.2
		c0.1,0.8,0.1,1.6,0.2,2.4c1-0.2,2.1-0.3,3.1-0.5c0.5,0.8,1.1,1.7,1.6,2.5c-2.9,2.4-5.5,5.1-7.9,8.1c-1.9-1.6-3.8-3.2-5.7-4.8
		c1.1-1.2,2.1-2.4,3.2-3.7c-3,0.2-6.1,0.4-8.1,2.9c1.5,0.5,2.9,0.9,4.4,1.4c-0.3,0.3-0.8,0.9-1.1,1.2c-0.8-0.1-2.4-0.2-3.2-0.3
		C184.1,156,182.9,151.7,180.3,148.1z"/>
</g>
<g id="_x23_164654ff">
	<path class="st144" d="M135.9,151.9c2.7-0.7,5.5-1.3,8.1-2.5c1,2.5,0.6,5-1.2,7c-1.4-1.1-2.9-2-4.4-2.9c1.3,3.9,1.4,8.1-1,11.7
		C134.6,161,137.6,156.2,135.9,151.9z"/>
</g>
<g id="_x23_275657ff">
	<path class="st145" d="M71.6,150.1c0.8,0,2.5,0.1,3.3,0.1c0,0.8,0,2.4,0,3.1C73.5,152.5,72,151.7,71.6,150.1z"/>
</g>
<g id="_x23_275866ff">
	<path class="st146" d="M115.3,150c1.6,0.3,3.2,0.7,4.8,1.1c-0.1,0.7-0.2,2.1-0.3,2.8c-1.8-0.8-3.6-1.6-5.4-2.4
		C114.6,151.1,115.1,150.4,115.3,150z"/>
</g>
<g id="_x23_21515eff">
	<path class="st147" d="M130,151.1c1.7-0.4,3.4-0.8,5.1-1.1c-1.5,1.7-3.2,3.1-5.1,4.2C130,153.4,130,151.9,130,151.1z"/>
</g>
<g id="_x23_2b535cff">
	<path class="st148" d="M174.1,150.1c0.8,0,2.5,0.1,3.3,0.1c-0.9,1.3-2,2.3-3.2,3.1C174.1,152.5,174.1,150.9,174.1,150.1z"/>
</g>
<g id="_x23_217f90ff">
	<path class="st149" d="M138.4,153.4c1.5,0.9,3,1.9,4.4,2.9c2.5,3.1,5.2,6,8.2,8.6c0.5,1.6,1.1,3.1,1.6,4.8
		c-1.1,2.8-2.7,5.6-5.7,6.7c-0.4-0.3-1.3-0.9-1.8-1.2c-0.6-0.3-1.2-0.5-1.8-0.8c-1.9-1.9-3.6-3.9-5.4-5.9c0.4,0,1.2-0.1,1.7-0.1
		c-0.7-1.1-1.5-2.3-2.2-3.5C139.8,161.5,139.7,157.3,138.4,153.4z"/>
</g>
<g id="_x23_143747ff">
	<path class="st150" d="M172.9,159.2c1.6-2.1,2.8-5.1,5.9-5.2c0.1,1.7,0.1,3.4,0.4,5c1.8,0.8,3.8,1,5.7,1.3c0.8,0.1,2.4,0.2,3.2,0.3
		c-1,1.4-1.9,2.9-2.7,4.4c-3.9-1.2-6.8-4.6-10.9-5.5C174.1,159.4,173.3,159.3,172.9,159.2z"/>
</g>
<g id="_x23_53dae6ff">
	<path class="st151" d="M184.9,158c2-2.5,5.1-2.7,8.1-2.9c-1.1,1.2-2.1,2.4-3.2,3.7l-0.5,0.6C187.8,158.9,186.3,158.4,184.9,158z"/>
</g>
<g id="_x23_48dce9ff">
	<path class="st152" d="M56,155.3c1.6,0.1,3.3,0,4.9,0.5c0.9,1.1,1.7,2.3,2.5,3.4c-0.8,0-2.3,0-3.1,0c-2.7-0.4-4.9,1.4-7.1,2.6
		c1.5-1,2.9-1.9,4.4-2.9C57,157.8,56.5,156.6,56,155.3z"/>
</g>
<g id="_x23_0c3349ff">
	<path class="st153" d="M90.4,157.4l0.2,0.9c1.2,4.8,0.8,9.7,0.7,14.6c-1.3-1.4-2.8-2.7-4.2-4.1c0.6-2.3,1.1-4.6,1.9-6.9
		C89.5,160.5,90,159,90.4,157.4z"/>
</g>
<g id="_x23_17b0ceff">
	<path class="st154" d="M91.9,159c3.6,2.3,7.3,5.1,11.9,3.9c-0.5,1.7-0.9,3.4-1.5,5.1c-3.2,6.7-2.3,14.2-3.3,21.3
		c-1.5-3-2.9-6-4.1-9.1C95.4,172.9,93.8,165.9,91.9,159z"/>
</g>
<g id="_x23_38857dff">
	<path class="st155" d="M74.5,160.2c1-1.2,3.2,0.2,2.2,1.6C75.8,163,73.5,161.5,74.5,160.2z"/>
</g>
<g id="_x23_194957ff">
	<path class="st156" d="M83.7,162.9c1.1-1.2,2.3-2.4,3.4-3.6c0.1,0.7,0.3,2.2,0.4,3C86.2,162.5,85,162.7,83.7,162.9z"/>
</g>
<g id="_x23_39706aff">
	<path class="st157" d="M172.1,162.4c-1.6-0.8,0.2-2.4,0.8-3.2c0.4,0.1,1.2,0.2,1.6,0.3C174.8,160.9,173.6,162.6,172.1,162.4z"/>
</g>
<g id="_x23_0a1e28ff">
	<path class="st158" d="M87.5,162.3c0.4-0.1,1.1-0.2,1.5-0.3c-0.7,2.3-1.3,4.6-1.9,6.9c1.4,1.3,2.8,2.7,4.2,4.1
		c1.3,2.4,2.5,4.7,3.6,7.2c1.1,3.1,2.6,6.1,4.1,9.1c1.2,3.7-1.5,7.2-0.9,11c3.2,0,5.6-2.1,7.6-4.4c0.3,0.6,0.7,1.3,1.1,1.9
		c0.2,0.4,0.7,1.1,0.9,1.5c-0.1,2.7,0.5,5.5,0.1,8.2c-1.6,4.4-4.2,8.3-5.5,12.8c-0.8-0.2-1.7-0.5-2.5-0.7c0.9-2,1.7-4,2.6-6
		c-1.2,0.4-2.4,1-3.7,1.2c-1.1-0.6-2.1-1.4-3.1-2.1c-0.7,0.9-1.4,1.7-2.1,2.6c-1.8-1.6-4-3-4.7-5.4c-0.8-2.5-1.4-6.2-4.8-6.4
		c-2.1,0.5-3.7,2.2-5.4,3.5c-0.3-0.8-0.7-1.5-1-2.2c0.4-0.4,1.1-1.2,1.4-1.7c1.5-1.6,2.1-3.7,2.3-5.9c-2.1,0-4.3-0.1-6.4-0.2
		c3.9-2,8-3.6,11.5-6.1c-3.2-3.8-8.2-2.6-12.5-1.8c-4.8,1.4-7.9-3.6-10.3-6.9c0.7-1.2,1.5-2.4,2.2-3.5c0.8,1.7,1.5,3.4,2.3,5.1
		c3.3-2.9,8.2-5.4,8.1-10.4c3.2,3.4,6.7,6.6,11,8.5c-0.7-3.8-1.3-7.7-2.5-11.4c-0.5-2-2.8-2.4-4.3-3.3c1-1.5,2-2.9,3.1-4.3
		C85,162.7,86.2,162.5,87.5,162.3 M85.2,164.4c-1.2-0.2-2.3,1.3-1.5,2.3C85.1,168,87.2,164.9,85.2,164.4 M77.3,180.8
		c0.2,2.3,0.1,5.2,2.6,6.4C79.7,184.8,79,182.5,77.3,180.8 M82.1,197.6c1.3,2.4,3.7,4.8,6.7,4.1c2.2-0.2,2.5-2.7,3.3-4.4
		c-2.4,0.6-4.9,1.2-7.5,1.2c0.8-1.2,1.5-2.3,2.3-3.5C85.4,196,83.7,196.8,82.1,197.6z"/>
</g>
<g id="_x23_244a54ff">
	<path class="st159" d="M85.2,164.4c2,0.6-0.1,3.6-1.5,2.3C82.9,165.7,84,164.2,85.2,164.4z"/>
</g>
<g id="_x23_2e8488ff">
	<path class="st160" d="M65.1,164.9c1.2,0.4,2.5,0.7,3.7,1.1c-1.2,1-2.4,2-3.9,2.7C65,167.7,65.1,165.8,65.1,164.9z"/>
</g>
<g id="_x23_45746fff">
	<path class="st161" d="M59.3,167.4c1.5-0.9,3.3,1.6,2.4,2.9C60.2,171.2,58.3,168.8,59.3,167.4z"/>
</g>
<g id="_x23_20abbfff">
	<path class="st162" d="M109.6,170.2c1.2-0.4,2.3-0.9,3.5-1.3c2.1,0.1,4.1,0.3,6.2,0.5c-0.7,0.2-2,0.7-2.7,1
		c-0.2,1.1-0.3,2.1-0.4,3.2c5.8-1.5,11.8-0.5,17.6,0.3c0-1.2,0-2.4,0-3.6c-1.6-0.2-3.3-0.5-4.9-0.7c3-0.3,6.1-0.7,9.1-0.9
		c1.7,2,3.5,4,5.4,5.9c-0.2,2.5-0.7,4.9-1.6,7.3c-5-4.1-11.5-4.9-17.7-4.3c-3.8,0.1-7.5,0.6-11.2,1.3c-1.9,1-3.7,2.2-5.6,3.2
		c-0.6-1.8-1-3.7-1.5-5.6c0.4-0.6,1.2-1.9,1.6-2.5C108,172.7,108.8,171.4,109.6,170.2z"/>
</g>
<g id="_x23_2ae7f0ff">
	<path class="st163" d="M116.6,170.3c0.7-0.2,2-0.7,2.7-1c3.2,0.2,6.4,0.2,9.5,0.1c1.6,0.2,3.3,0.5,4.9,0.7c0,1.2,0,2.4,0,3.6
		c-5.8-0.8-11.8-1.8-17.6-0.3C116.3,172.4,116.4,171.4,116.6,170.3z"/>
</g>
<g id="_x23_185e71ff">
	<path class="st164" d="M152.6,169.6c0.8,3.7-0.4,7.4-0.9,11c-1.7-0.8-3.3-1.7-4.9-2.6c0-0.4,0.1-1.2,0.1-1.7
		C149.9,175.2,151.5,172.5,152.6,169.6z"/>
</g>
<g id="_x23_080a0eff">
	<path class="st165" d="M103.8,184.8c-0.7-4.2-1.3-8.8,0.7-12.8c0.4,1.5,0.8,3,1.2,4.5c0.4,1.9,0.9,3.8,1.5,5.6
		c1.8,2.2,3.8,4.3,5.8,6.2c1.2,0.9,2.4,1.6,3.7,2.4c1.8,1.2,3.5,2.4,5.3,3.6c-0.3,0.9-0.6,1.9-0.9,2.8c-3.2,0-6.5,0-9.7-0.1
		c-0.3-1.4-0.5-2.9-1.2-4.2C108.2,190,104.2,188.5,103.8,184.8z"/>
</g>
<g id="_x23_080d13ff">
	<path class="st166" d="M135.9,189.9c4.3-3.9,8.9-8.6,9.2-14.7c0.4,0.3,1.3,0.9,1.8,1.2c0,0.4,0,1.2-0.1,1.7
		c-0.3,4,0.1,8.7-3.1,11.6c-3.3,3-7,5.7-11.1,7.4c-2.4,1.1-4.2-1.1-5.7-2.6c2.8-1.4,5.7-2.6,8.5-4L135.9,189.9z"/>
</g>
<g id="_x23_14272fff">
	<path class="st167" d="M182.3,175c0.7,0,2-0.1,2.7-0.1c0.6,2.4,1.1,4.8,1.5,7.2c-0.7,1.9-1.3,4-2.9,5.4c-0.9,0.4-1.7,0.7-2.6,1.1
		C182,184.1,181.3,179.5,182.3,175z"/>
</g>
<g id="_x23_15485bff">
	<path class="st168" d="M61.6,177.8c0.6,1.5,1.4,3,2.1,4.4c2.4,3.3,5.5,8.3,10.3,6.9c4.2-0.8,9.3-1.9,12.5,1.8
		c-3.6,2.5-7.6,4.2-11.5,6.1c2.1,0.1,4.3,0.1,6.4,0.2c-0.2,2.2-0.8,4.3-2.3,5.9c-1.2-1.4-2.3-2.8-3.7-4.1c-1.8-0.1-3.5,0.8-5.3,1.3
		c0.8,1.2,1.7,2.5,2.6,3.7c-5-2.7-5.7-8.5-7.2-13.4C63.4,186.6,60.5,182.6,61.6,177.8z"/>
</g>
<g id="_x23_082733ff">
	<path class="st169" d="M156.2,177.9c1.4-1.2,3.1,1,1.3,1.8C156.1,180.9,154.4,178.7,156.2,177.9z"/>
</g>
<g id="_x23_0f3a51ff">
	<path class="st170" d="M163,180.1c2.1,0.3,5.6,0,6.1,2.8c0.2,0.9,0.3,1.8,0.5,2.7c0.3,0.1,0.9,0.4,1.2,0.6c1.9,0.7,3.8,1.5,5.4,2.7
		c-2.7,0.3-5.4,0.5-8.1,0.7c0.6,1.5,1.2,2.9,1.8,4.4c-2.5,0-6,0-6.6-3.1c-0.4-3,3-3.7,5-4.9c-0.1-0.7-0.1-2-0.2-2.7
		c-1.7,0.5-3.4,1-5.2,1.5C162.6,183.2,162.7,181.6,163,180.1z"/>
</g>
<g id="_x23_30656bff">
	<path class="st171" d="M169.1,182.9c0.4-1.6,1.6-2.6,3-3.3c-0.3,2.2-0.8,4.3-1.2,6.5c-0.3-0.1-0.9-0.4-1.2-0.6
		C169.4,184.7,169.2,183.8,169.1,182.9z"/>
</g>
<g id="_x23_27a9c5ff">
	<path class="st172" d="M112.9,188.2c1.4-1.9,3.3-3.4,5.8-2.9c-0.3,1.9-1.3,3.6-2.1,5.4C115.4,189.9,114.1,189.1,112.9,188.2z"/>
</g>
<g id="_x23_1aa1b5ff">
	<path class="st173" d="M132.4,184.8c1.8,0.8,3.5,1.7,5.1,2.8c-0.4,0.6-1.2,1.8-1.6,2.3l-0.6,0.5c-1.4-0.6-2.8-1.2-4.2-1.7
		C131.5,187.4,131.9,186.1,132.4,184.8z"/>
</g>
<g id="_x23_297586ff">
	<path class="st174" d="M181,188.6c0.9-0.4,1.7-0.7,2.6-1.1c-0.8,4.2-2.2,8.2-4.2,12c-2,2.9-5.4,4.5-8.5,5.9c-0.6-1.3-1.1-2.7-1.6-4
		c1-1,2-1.9,3.2-2.8c1.7-0.3,3.3,0.5,4.9,0.8C180,196.4,180.5,192.4,181,188.6z"/>
</g>
<g id="_x23_2c6672ff">
	<path class="st175" d="M82.1,197.6c1.6-0.8,3.3-1.6,4.9-2.5c-0.8,1.1-1.5,2.3-2.3,3.5c2.5-0.1,5-0.6,7.5-1.2
		c-0.8,1.6-1.1,4.1-3.3,4.4C85.8,202.4,83.4,200,82.1,197.6z"/>
</g>
<g id="_x23_1791a8ff">
	<path class="st176" d="M106.7,197.7c3.5,0.2,6.9,0.1,10.4,0.3c2.5,0.2,4.6,1.7,7.1,1.8c3.7,0,7.2-1.7,10.9-1.9c2.3-0.2,4.7,0,7,0.1
		c-0.2,0.4-0.7,1.3-0.9,1.7c-0.3,0.6-1,1.8-1.4,2.4c-3.8,1.1-7.9,2-11.9,1.1c-2.3-0.4-4.8-2.2-7-0.6c-1.5,0.9-2.9,1.8-4.4,2.7
		c-2.2-1.2-4.4-2.3-6.6-3.4c-0.8-0.9-1.5-1.8-2.3-2.6C107.4,198.9,106.9,198.1,106.7,197.7z"/>
</g>
<g id="_x23_060c0dff">
	<path class="st177" d="M107.7,207.4c0.4-2.7-0.2-5.5-0.1-8.2c0.7,0.9,1.5,1.8,2.3,2.6c2.2,2.7,4.2,5.5,6.3,8.2
		c-1.2,3.4-2.2,6.9-3,10.5c3-2.8,4.7-6.5,7-9.8l0.7-0.3c0.3,3.7-0.1,8,2.7,11c3,3.5,6.2,7.5,5.8,12.4c-2.2-2.4-4.2-4.8-6.3-7.3
		c-0.8,1.8-1.6,3.6-2.4,5.4c-1.3-1.7-2.5-3.4-3.7-5.1c1.3-0.4,2.6-0.8,3.9-1.1c-1-2.1-2-4.2-2.9-6.3c-3.2,2.4-5.6,5.5-8.1,8.6
		c0.3-2.7,0.6-5.4,1-8c-1.7,2-3.5,4.1-6.2,4.6l-0.6-0.9c-0.7-1.1-1.3-2.3-1.9-3.4C103.5,215.8,106.1,211.8,107.7,207.4z"/>
</g>
<g id="_x23_0a1f29ff">
	<path class="st178" d="M139.8,202.1c0.3-0.6,1-1.8,1.4-2.4c1.8,2.8,3.2,5.7,3.9,9c0.4,2.6,2.6,4.2,4.4,5.9c-1.7,2.9-2,7.3-5.5,8.8
		c0.7-2.5,2.7-5.1,1.4-7.7c-1.3-3.2-3.1-6.3-4.7-9.4c-2.5,3.1-4.8,6.6-5.5,10.6c-1.1-3-3.9-6.4-2.1-9.7
		C135.3,205.5,138,204.4,139.8,202.1z"/>
</g>
<g id="_x23_185f7bff">
	<path class="st179" d="M120.9,202.6c2.1-1.6,4.7,0.3,7,0.6c-1.4,3.2-3.4,6.3-7,7.2l-0.7,0.3c-1.2-1.9-2.3-3.8-3.7-5.5
		C118,204.4,119.5,203.4,120.9,202.6z"/>
</g>
<g id="_x23_2a5869ff">
	<path class="st180" d="M109.9,201.9c2.2,1.1,4.5,2.1,6.6,3.4c1.4,1.7,2.6,3.6,3.7,5.5c-2.3,3.3-4.1,7-7,9.8c0.7-3.6,1.8-7.1,3-10.5
		C114.1,207.3,112.1,204.5,109.9,201.9z"/>
</g>
<g id="_x23_1a5064ff">
	<path class="st181" d="M127.9,203.2c4,0.9,8.1,0,11.9-1.1c-1.8,2.2-4.6,3.4-6.8,5.1c-1.8,3.2,1,6.6,2.1,9.7
		c-0.8,3.2-1.2,6.9,1.9,9.1c0.5-1.8,1-3.7,1.4-5.5c1.8,1,3.6,2,5.5,2.9c3.5-1.5,3.8-5.8,5.5-8.8c2-3.3,6.3-1.6,9.4-2.6
		c2.2-2.3,2.2-6.1,4.7-8.3c2.6-0.1,5,1,7.5,1.7c-1.3,2.7-3,5.3-5.9,6.4c-2.9,1.1-5.8,2.6-7.8,5c-1.3-0.1-2.7-0.2-4-0.3
		c-0.2,2.3-0.4,4.6-0.6,6.9c-1.4,0.2-2.9,0.5-4.3,0.8c0.3,3.4,0.1,6.8-1.8,9.7c-2.5-0.7-4.8-2.6-7.5-2c-1.1,0.5-1.8,1.3-2.1,2.4
		c-1.9,0.5-3.8,1-5.7,1.5c-3-1-5.8-2.9-9-3c-2.8,0.5-2,4.2-2.2,6.2c-0.4-1.8,0.4-4.7-1.7-5.6c-0.9,0.1-2.6,0.2-3.5,0.2
		c1.4-0.2,2.8-0.4,4.2-0.7c-1.5-1.1-2.9-2.3-4.5-3.3c-1.6-1.3-3.7,0-5.4,0.3c-1.5-1.7-3-3.4-4.3-5.3c2.7-0.5,4.6-2.6,6.2-4.6
		c-0.4,2.7-0.7,5.3-1,8c2.5-3.1,4.9-6.2,8.1-8.6c1,2.1,1.9,4.2,2.9,6.3c-1.3,0.4-2.6,0.7-3.9,1.1c1.2,1.7,2.4,3.4,3.7,5.1
		c0.8-1.8,1.6-3.6,2.4-5.4c2.1,2.5,4.1,4.9,6.3,7.3c0.4-4.9-2.8-8.9-5.8-12.4c-2.7-3-2.4-7.3-2.7-11
		C124.5,209.5,126.5,206.5,127.9,203.2 M126.8,209.8c0.3,3.2-1,6.2-1.7,9.2c-0.2,3,3.1,4.4,5.5,5.2c0-1.3-0.1-2.6-0.1-3.9
		c1.2-0.4,2.3-0.9,3.5-1.3c-1.8-2.8-3.3-5.8-4.4-8.9C128.7,210,127.8,209.9,126.8,209.8 M134.9,226.7c-0.8,2.3-1.4,4.8-0.7,7.3
		c2.2-0.7,3.8-2.3,5.5-3.8C138.1,229,136.5,227.8,134.9,226.7z"/>
</g>
<g id="_x23_1a5466ff">
	<path class="st182" d="M78.6,206.9c1.7-1.2,3.3-3,5.4-3.5c3.3,0.2,3.9,3.9,4.8,6.4c0.7,2.4,2.9,3.8,4.7,5.4
		c0.7-0.9,1.4-1.7,2.1-2.6c1,0.7,2,1.5,3.1,2.1c1.3-0.2,2.5-0.7,3.7-1.2c-0.9,2-1.8,4-2.6,6c0.9,0.2,1.7,0.5,2.5,0.7
		c0.6,1.1,1.2,2.3,1.9,3.4c-1.3,1.4-2.6,2.8-3.7,4.3c0-0.7,0.1-2.1,0.2-2.8c-6.2-1.7-9.2-7.7-13.3-12c-0.6-2.6-0.9-5.1-1.6-7.7
		c-2.5,0.1-3,3.6-4.5,5.2c-0.8-1-1.5-2-2.2-3L78.6,206.9z"/>
</g>
<g id="_x23_16718aff">
	<path class="st183" d="M81.1,210.7c1.5-1.6,2-5.1,4.5-5.2c0.7,2.5,1,5.1,1.6,7.7C84.7,214.3,82.9,212.1,81.1,210.7z"/>
</g>
<g id="_x23_050609ff">
	<path class="st184" d="M135.1,216.9c0.8-4,3-7.5,5.5-10.6c1.6,3.1,3.4,6.1,4.7,9.4c1.2,2.6-0.8,5.2-1.4,7.7
		c-1.9-0.9-3.7-1.9-5.5-2.9c-0.4,1.9-0.9,3.7-1.4,5.5C133.9,223.7,134.2,220.1,135.1,216.9z"/>
</g>
<g id="_x23_0b171fff">
	<path class="st185" d="M126.8,209.8c0.9,0.1,1.9,0.2,2.8,0.3c1.1,3.1,2.6,6.1,4.4,8.9c-1.2,0.4-2.3,0.8-3.5,1.3
		c0,1.3,0.1,2.6,0.1,3.9c-2.4-0.8-5.6-2.2-5.5-5.2C125.8,216,127.1,213,126.8,209.8z"/>
</g>
<g id="_x23_459caaff">
	<path class="st186" d="M153.2,216.4c1.3,0.1,2.7,0.2,4,0.3c-0.6,2.7-2,5.2-4.6,6.5C152.8,221,153,218.7,153.2,216.4z"/>
</g>
<g id="_x23_1e6887ff">
	<path class="st187" d="M100.4,228c1.1-1.6,2.4-3,3.7-4.3l0.6,0.9c1.3,1.8,2.8,3.6,4.3,5.3c0.6,0.6,1.1,1.3,1.7,1.9
		c-2.3-0.6-4.2,0.7-6.3,1.4C101.8,234.5,99.3,230.3,100.4,228z"/>
</g>
<g id="_x23_2896b1ff">
	<path class="st188" d="M134.9,226.7c1.7,1.1,3.3,2.2,4.8,3.5c-1.7,1.5-3.3,3.1-5.5,3.8C133.4,231.6,134.1,229.1,134.9,226.7z"/>
</g>
<g id="_x23_359cbcff">
	<path class="st189" d="M109,229.9c1.8-0.3,3.8-1.6,5.4-0.3c1.6,1,3,2.2,4.5,3.3c-1.4,0.2-2.8,0.5-4.2,0.7c-1.8,0.7-3.1-0.3-4-1.8
		C110.1,231.1,109.5,230.5,109,229.9z"/>
</g>
<g id="_x23_26708fff">
	<path class="st190" d="M122.2,232.7c3.2,0.1,6,2,9,3c-2.3,1-5.3,0.2-7.1,2.4c-1.1,1.1-2.9,2.7-4.1,0.9
		C120.2,236.8,119.3,233.2,122.2,232.7z"/>
</g>
</svg>
