<?xml version="1.0" encoding="utf-8"?>
<!-- Generator: Adobe Illustrator 26.0.3, SVG Export Plug-In . SVG Version: 6.00 Build 0)  -->
<svg version="1.1" id="Layer_1" xmlns="http://www.w3.org/2000/svg" xmlns:xlink="http://www.w3.org/1999/xlink" x="0px" y="0px"
	 viewBox="0 0 250 250" style="enable-background:new 0 0 250 250;" xml:space="preserve">
<style type="text/css">
	.st0{fill:#FBD2A5;}
	.st1{fill:#F39931;}
	.st2{fill:#FBC992;}
	.st3{fill:#FBCB96;}
	.st4{fill:#B76D3B;}
	.st5{fill:#88525C;}
	.st6{fill:#B86C3E;}
	.st7{fill:#FBCD9B;}
	.st8{fill:#FBCF9D;}
	.st9{fill:#B56D42;}
	.st10{fill:#B66E53;}
	.st11{fill:#FBCD9A;}
	.st12{fill:#8F6773;}
	.st13{fill:#9A6A68;}
	.st14{fill:#C98A52;}
	.st15{fill:#C89365;}
	.st16{fill:#FBC991;}
	.st17{fill:#AC856A;}
	.st18{fill:#FACA97;}
	.st19{fill:#A7807D;}
	.st20{fill:#FBCA96;}
	.st21{fill:#FBD3A6;}
	.st22{fill:#BDAB67;}
	.st23{fill:#A87C27;}
	.st24{fill:#FBD6AD;}
	.st25{fill:#9D8870;}
	.st26{fill:#A7A865;}
	.st27{fill:#C4AF44;}
	.st28{fill:#9EA86D;}
	.st29{fill:#9CCC5F;}
	.st30{fill:#BED060;}
	.st31{fill:#F9CB98;}
	.st32{fill:#C0C588;}
	.st33{fill:#FAC68D;}
	.st34{fill:#90C766;}
	.st35{fill:#A1D453;}
	.st36{fill:#BEF36C;}
	.st37{fill:#A1F261;}
	.st38{fill:#ADEB59;}
	.st39{fill:#DCB850;}
	.st40{fill:#93E665;}
	.st41{fill:#FACEA0;}
	.st42{fill:#9AED6E;}
	.st43{fill:#9DEE6F;}
	.st44{fill:#C8F18B;}
	.st45{fill:#B76C1A;}
	.st46{fill:#75D140;}
	.st47{fill:#DEE163;}
	.st48{fill:#D0F169;}
	.st49{fill:#93F538;}
	.st50{fill:#79ED4C;}
	.st51{fill:#5AEB2B;}
	.st52{fill:#57563E;}
	.st53{fill:#7AF019;}
	.st54{fill:#7EAF4A;}
	.st55{fill:#54724B;}
	.st56{fill:#8B6735;}
	.st57{fill:#79D147;}
	.st58{fill:#52BD51;}
	.st59{fill:#48EF07;}
	.st60{fill:#A26F30;}
	.st61{fill:#39A134;}
	.st62{fill:#3D8343;}
	.st63{fill:#3F5046;}
	.st64{fill:#FAD2A8;}
	.st65{fill:#D5D333;}
	.st66{fill:#B4EA44;}
	.st67{fill:#28DC10;}
	.st68{fill:#4D9547;}
	.st69{fill:#416142;}
	.st70{fill:#303E43;}
	.st71{fill:#283A42;}
	.st72{fill:#9ACE24;}
	.st73{fill:#FAD2A6;}
	.st74{fill:#97581B;}
	.st75{fill:#C6AE21;}
	.st76{fill:#6DA82B;}
	.st77{fill:#D17213;}
	.st78{fill:#CD7015;}
	.st79{fill:#C26C15;}
	.st80{fill:#8F5419;}
	.st81{fill:#A7732D;}
	.st82{fill:#253B42;}
	.st83{fill:#BF6814;}
	.st84{fill:#FAC994;}
	.st85{fill:#283C40;}
	.st86{fill:#F9C893;}
	.st87{fill:#415B3D;}
	.st88{fill:#41413B;}
	.st89{fill:#40392C;}
	.st90{fill:#89672F;}
	.st91{fill:#73471A;}
	.st92{fill:#F9CA96;}
	.st93{fill:#434138;}
	.st94{fill:#764112;}
	.st95{fill:#683B10;}
	.st96{fill:#170E09;}
	.st97{fill:#281408;}
	.st98{fill:#774D1F;}
	.st99{fill:#2C3E37;}
	.st100{fill:#8D632D;}
	.st101{fill:#2B3232;}
	.st102{fill:#171918;}
	.st103{fill:#182830;}
	.st104{fill:#7D4B14;}
	.st105{fill:#201305;}
	.st106{fill:#FACD9A;}
	.st107{fill:#454334;}
	.st108{fill:#040201;}
	.st109{fill:#6C3F0F;}
	.st110{fill:#20190E;}
	.st111{fill:#9A5B16;}
	.st112{fill:#744410;}
	.st113{fill:#543816;}
	.st114{fill:#A06019;}
	.st115{fill:#402508;}
	.st116{fill:#3A2207;}
	.st117{fill:#2D0F01;}
	.st118{fill:#512F0B;}
	.st119{fill:#5E2304;}
	.st120{fill:#B86C19;}
	.st121{fill:#AF500C;}
	.st122{fill:#F58B19;}
	.st123{fill:#DF7613;}
	.st124{fill:#FAA227;}
	.st125{fill:#742C05;}
	.st126{fill:#F38B1C;}
	.st127{fill:#843107;}
	.st128{fill:#FCB93C;}
	.st129{fill:#FCDB6D;}
	.st130{fill:#DC6B13;}
	.st131{fill:#7B4810;}
	.st132{fill:#A36116;}
	.st133{fill:#F9CD9D;}
	.st134{fill:#794710;}
	.st135{fill:#FCDA78;}
	.st136{fill:#FCE07E;}
	.st137{fill:#833507;}
	.st138{fill:#F18417;}
	.st139{fill:#F9CE9E;}
	.st140{fill:#915614;}
	.st141{fill:#9F5E16;}
	.st142{fill:#F9CA97;}
	.st143{fill:#FCEDAA;}
	.st144{fill:#541D03;}
	.st145{fill:#BB5E0E;}
	.st146{fill:#8B5213;}
	.st147{fill:#823307;}
	.st148{fill:#E77917;}
	.st149{fill:#FCCD5C;}
	.st150{fill:#FBD881;}
	.st151{fill:#8D5313;}
	.st152{fill:#FCE287;}
	.st153{fill:#854E12;}
	.st154{fill:#8C5213;}
	.st155{fill:#895112;}
	.st156{fill:#782B05;}
	.st157{fill:#8E5314;}
	.st158{fill:#8F5513;}
	.st159{fill:#FCBB3D;}
	.st160{fill:#824C11;}
	.st161{fill:#7F4A11;}
	.st162{fill:#3B1502;}
	.st163{fill:#FCE68F;}
	.st164{fill:#FCDC7A;}
	.st165{fill:#C15C0F;}
	.st166{fill:#FCBF63;}
	.st167{fill:#864F13;}
	.st168{fill:#FACB98;}
	.st169{fill:#945714;}
	.st170{fill:#FAC283;}
	.st171{fill:#A15F16;}
	.st172{fill:#FAC68C;}
	.st173{fill:#FDDF73;}
	.st174{fill:#8E5413;}
	.st175{fill:#7D4910;}
	.st176{fill:#804A11;}
	.st177{fill:#FBCD99;}
	.st178{fill:#FBCB95;}
	.st179{fill:#A66216;}
	.st180{fill:#945814;}
	.st181{fill:#FBCA94;}
	.st182{fill:#955914;}
	.st183{fill:#895113;}
	.st184{fill:#FBC588;}
	.st185{fill:#FCCD98;}
	.st186{fill:#834D12;}
	.st187{fill:#885012;}
	.st188{fill:#7A4810;}
	.st189{fill:#FCD1A1;}
	.st190{fill:#FCD0A0;}
	.st191{fill:#CD791C;}
	.st192{fill:#FAD0A2;}
</style>
<g id="_x23_fbd2a5ff">
	<path class="st0" d="M117,6.9c13.3-2.3,26.8,0.5,39.7,3.5c0.9,0.7,4,0.2,3,2c-19.4-5-39.7-6.2-59.4-2.1l-1-0.1
		C102.1,7,111.8,8.3,117,6.9z"/>
</g>
<g id="_x23_f39931ff">
	<path class="st1" d="M100.3,10.3c19.7-4.2,40-2.9,59.4,2.1c1.9,0.8,4,1.5,6,2c3.3,1.5,6.7,2.9,10.2,3.9c7,3.4,14.2,6.9,20,12.1
		c0.9,1.3,2.1,2.3,3.6,2.8c2.1,1.7,4.1,3.4,6.3,5c2.6,2.7,5.2,5.4,7.9,8c1.8,2.5,3.8,4.9,6,7c6.8,8,11.4,17.7,16.1,27.1
		c-0.2,1.8,0.1,3.6,1.6,4.7l0.2,0.8c0.3,2.2,0.9,4.4,1.9,6.5c0.4,2.4,0.9,4.8,2.1,7c2.6,14,2.8,28.2,2.1,42.4
		c-1.2,3.6-1.6,7.3-2.1,11c-1.8,4.6-3.4,9.3-4,14.2c-4.3,10.2-9,20.5-16.1,29c-1.2,0.9-2.3,2.1-2.8,3.6c-0.4,1-1,1.8-1.7,2.5
		c-5.5,4.5-10.5,9.5-15.1,14.9c-0.3,0.2-0.8,0.6-1,0.8c-2.1,0.9-3.7,2.4-5.2,4c-1.7,1.7-3.7,3-5.8,4.1c-2.5,1.1-5.1,2.2-7.1,4
		c-1.2,0.9-2.2,2-3.8,2.1c-3.4,0.5-6.5,2-9.3,3.9c-1.2,0.7-2.4,1.7-3.9,1.9c-2.5,0.4-4.9,1.1-7.2,1.8c-2.8,0.4-5.4,1.1-8,2.1
		c-16.7,2.8-33.7,3.3-50.3,0c-2.2-1.2-4.6-1.8-7-2.1c-2.2-1-4.6-1.6-7-1.9c-3.1-2-6.6-3.4-10.2-3.9c-7-3.3-14.2-6.9-20.1-12.1
		c-0.9-1.3-2.1-2.5-3.7-2.7c-0.3-0.2-1-0.6-1.3-0.9c-5.4-6-10.7-12.1-17.1-17.1c-6.9-8.7-13.7-18.5-17.6-29.1c-0.6-4-2.2-7.6-4-11.2
		c-1.1-6.1-2.2-12.2-4.1-18.1c-0.4-14.8-1-29.8,2.1-44.4c1.2-2.3,1.8-4.8,2.1-7.4c1.3-1.6,1.8-3.6,1.6-5.6l0.2-0.8
		c1.9-2.9,3.1-6.1,4-9.4c3.1-5.8,5.6-12.1,10.1-17c1.3-0.9,2.3-2.1,2.8-3.6c0.2-0.3,0.7-0.9,1-1.2c1.7-1.7,3.4-3.5,4.8-5.4
		c3.6-4,7.4-7.9,11.2-11.6c1.9-1.1,3.5-2.5,5-4.1c4.6-3.9,9.8-7.3,15-10.1c1.6,0.1,3-0.6,3.9-1.8c1.5-0.1,2.9-0.7,3.9-1.8
		c2.9-2.1,6.5-3.2,9.8-4.3c2.2-0.2,4.4-0.8,6.4-1.8C95,12,97.7,11.3,100.3,10.3 M103,14c-9.2,2.4-19.7,4.4-27.3,10.1
		c-5.4,0.9-10.3,5.1-14.9,8.2C52.2,37.3,45,44.9,38.8,52.6c-1.7-0.1-2.9,3.1-4.2,4.5c-1.1,1.5-2.2,3-2.9,4.7
		c-3.3,6.3-8.6,11.7-10.1,18.7c-1.5-0.2-1.3,2.9-1.6,4.1c-1.6,1-2.6,2.7-1.8,4.6c-3.1,0.9-2.4,4.1-2,6.8c-3.1,0.8-2.1,4.1-1.9,6.4
		c-2.9,0.4-1.5,8-2.9,10.2c-0.7,14.5-1.2,33.1,4.9,45.1c-0.6,2.2-0.5,5.8,2.1,6.4c-1.3,1.5-0.2,4.8,1.8,4.8c-1,1.6-0.1,4.9,2,4.9
		c-0.9,1.4,0.2,4.3,2,4c-0.9,1.3,0.1,4.2,1.8,3.9c3.6,6.4,7.8,12.8,12.8,18.2c1.9,5.2,7.3,9.6,12.2,11.9c0.3,0.2,0.8,0.6,1.1,0.8
		c0.5,2.2,2.5,4.7,5,4.2c1.2,1.1,2.2,2.4,3.7,3c1.1,2.4,3.7,4.3,6.4,3.8c1.3,0.8,2.4,1.8,3.9,2.3c-0.7,2,2.6,3,3.9,1.8
		c-0.6,2.1,2.6,3.2,4,2c0.1,2.1,3.3,3,5,2c0.1,2.1,3.3,3.1,4.9,1.9l1,0.3c0.5,2.2,4,2.9,5.8,1.6c1.2,3.2,6.8,1.6,9.4,2.2
		c-1.2,3.1,5.7,1.5,7.7,2.3c6.1,2.2,19.9,1.4,26.1,0c1.9-0.8,8.9,0.8,7.7-2.2c2.2-0.6,8.7,0.9,9-2c3.9,0.3,10.1-1.1,12-4
		c3.1,0.3,8-1.2,9.2-4.1c1.2,1.1,4.2,0,3.8-1.7c5.3-2.8,10.4-6.2,15-10.1c2.4,0.6,4.6-2,5-4.2c0.3-0.2,0.8-0.6,1.1-0.8
		c4.4-1.5,8.8-5.5,9.9-10.1c2.1-0.7,4.6-2.6,4.1-5.1c4.7-4,7.3-9.6,10.1-15c2,0.7,3-2.6,1.8-3.9c2.1,0.6,3.2-2.6,2-4
		c1.8,0.2,2.9-2.7,1.8-4c1-1.6,2-3.3,2.4-5.2c1.8-0.5,2.7-4,1.6-5.6c4.1-4.5,3.5-13.1,4.4-19.1l0-1c2.7-5.5,1-18.6,0-24l0-0.9
		c-1.5-2.7,1.1-9.8-2-11.1c0.2-2.5-1.4-4.5-2.2-6.7c0.1-4.1-1.1-9.8-4.1-12.2c-1.9-6.2-5.6-11.6-8.8-17.1c-3.1-6.4-8.1-11.7-13-16.8
		c-1.8-2.6-4.5-6.2-7.7-7c-1.3-3.9-5.8-5.7-8.8-8.3c-8-5.4-16.6-12-26-13.6c-5.9-3.3-12.7-5.1-19.3-6.3c-3.7-2.8-11.3-1.6-16.3-1.8
		c-4.2-0.4-8.3-0.3-12.5,0C114.2,12.4,106.7,11.2,103,14z"/>
</g>
<g id="_x23_fbc992ff">
	<path class="st2" d="M92.3,12.4c-0.1-2.4,4.9-2.4,6.9-2.2l1,0.1C97.7,11.3,95,12,92.3,12.4z"/>
</g>
<g id="_x23_fbcb96ff">
	<path class="st3" d="M85.9,14.1c1.1-2.3,4.2-2.4,6.4-1.8C90.3,13.4,88.2,14,85.9,14.1z"/>
	<path class="st3" d="M150.7,241.7c2.6-1,5.3-1.7,8-2.1C158.4,242.2,153.1,242.1,150.7,241.7z"/>
</g>
<g id="_x23_b76d3bff">
	<path class="st4" d="M103,14c3.7-2.8,11.3-1.6,16.3-1.8C113.8,12.9,108.4,13.6,103,14z"/>
</g>
<g id="_x23_88525cff">
	<path class="st5" d="M119.2,12.2c4.2-0.3,8.3-0.4,12.5,0c5.4,0.7,10.8,1.4,16.3,1.8c6.6,1.2,13.4,2.9,19.3,6.3
		c-1.3,4.1-7.3-0.3-9.8,0c-8.1-1.9-16.3-2.5-24.4-4.4c-1.6,3.6-0.6,9.5-7.2,7.1c-14.1-0.2-27.8,2.9-40.8,8.2
		c-3.3-2.2-6.5-4.6-9.6-7.1c7.6-5.8,18.2-7.7,27.3-10.1C108.4,13.6,113.8,12.9,119.2,12.2 M119.3,16.3c-7.4,3.2-15.6,1.6-23.1,3.9
		c-3.6,2.4-11.4,2.6-12.3,7.8c11.6-2.5,22.9-7.7,35-8C127.8,24.4,123.3,14,119.3,16.3z"/>
</g>
<g id="_x23_b86c3eff">
	<path class="st6" d="M131.8,12.2c5,0.2,12.6-1,16.3,1.8C142.6,13.6,137.2,12.9,131.8,12.2z"/>
</g>
<g id="_x23_fbcd9bff">
	<path class="st7" d="M159.7,12.4c1.9-0.6,6.2-0.6,6,2C163.7,13.9,161.6,13.2,159.7,12.4z"/>
</g>
<g id="_x23_fbcf9dff">
	<path class="st8" d="M165.7,14.4c3.5-0.4,8.2,1.1,10.2,3.9C172.4,17.3,169.1,15.9,165.7,14.4z"/>
</g>
<g id="_x23_b56d42ff">
	<path class="st9" d="M119.3,16.3c3.9-2.3,8.5,8.1-0.3,3.7c-12.2,0.3-23.5,5.5-35,8c0.9-5.2,8.7-5.3,12.3-7.8
		C103.8,17.9,111.9,19.6,119.3,16.3z"/>
</g>
<g id="_x23_b66e53ff">
	<path class="st10" d="M133.1,15.9c8.1,1.9,16.3,2.5,24.4,4.4c2.5-0.4,8.5,4.1,9.8,0c9.4,1.6,18,8.1,26,13.6
		c1.1,2.7-1.4,3.8-3.5,2.3c-6.9-0.9-10.4-8.2-16.7-9.2c-1.8,10.7-13.4-1.1-20.2,1c1,1.4,2.1,2.7,3.1,4c-2.9-0.3-5.7-0.8-8.5-1.1
		C124.3,22,98,27.5,76.8,39.2c-0.8,0.3-1.5,0.5-2.3,0.8c-1.2-0.4-2.3-0.8-3.5-1.2c4.4-3,9.4-5.2,14.3-7.5c13-5.3,26.7-8.5,40.8-8.2
		C132.5,25.5,131.6,19.5,133.1,15.9z"/>
</g>
<g id="_x23_fbcd9aff">
	<path class="st11" d="M72.2,20.3c-0.7-2.1,2.6-3.2,3.9-1.8C75.1,19.6,73.7,20.2,72.2,20.3z"/>
	<path class="st11" d="M68.3,22.1c-0.8-2,2.6-3,3.9-1.8C71.2,21.5,69.8,22.2,68.3,22.1z"/>
</g>
<g id="_x23_8f6773ff">
	<path class="st12" d="M60.8,32.4c4.6-3.2,9.5-7.3,14.9-8.2c3.1,2.5,6.3,4.9,9.6,7.1c-4.8,2.3-9.8,4.5-14.3,7.5
		c-2.2,1.3-4.2,3.5-7,3.3c1.2-5.8,11.3-5.8,11.2-12.2c-4.6,0.2-7.7,4.3-12,5.4C62.2,34.4,61.5,33.4,60.8,32.4z"/>
</g>
<g id="_x23_9a6a68ff">
	<path class="st13" d="M76.8,39.2C98,27.5,124.3,22,147.5,30.9c-6.6,2.9-14.6,5.3-21.5,2.1c-4.6-2.8-9.3,2.6-8.3,7.2
		c-2.3-1.6-5.3-3.4-5.9,0.7C100.8,36.2,87.4,46,76.8,39.2z"/>
</g>
<g id="_x23_c98a52ff">
	<path class="st14" d="M173.2,26.9c6.3,1,9.8,8.3,16.7,9.2c2.1,1.5,4.6,0.4,3.5-2.3c3,2.6,7.5,4.4,8.8,8.3c-8.1,1-16.1-1.3-24.2-1.1
		c-4.5-2.9-10.6-0.6-14.8-4.2c-1.9-2.2-4.5-3.6-7.1-4.8c-1.1-1.3-2.2-2.6-3.1-4C159.8,25.8,171.3,37.6,173.2,26.9z"/>
</g>
<g id="_x23_c89365ff">
	<path class="st15" d="M63,35.3c4.4-1.1,7.5-5.2,12-5.4c0.2,6.3-10,6.3-11.2,12.2c2.8,0.1,4.8-2,7-3.3c1.2,0.4,2.4,0.8,3.5,1.2
		c-2.6,1.9-5,4.1-6.8,6.8l-0.8,0.4c-4,1.6-7.2,4.5-10.8,6.8c-1-6-8.7,9-9.5,0.2c-3.5,1.1-9.4,8.1-11.9,3c1.2-1.4,2.5-4.5,4.2-4.5
		c5.5,4,8.9-6,13.3-8.3C56.6,42.5,60,38.9,63,35.3z"/>
</g>
<g id="_x23_fbc991ff">
	<path class="st16" d="M196,30.4c1.6-1.2,4.4,1,3.6,2.8C198.1,32.7,196.9,31.6,196,30.4z"/>
</g>
<g id="_x23_ac856aff">
	<path class="st17" d="M147.5,30.9c2.9,0.3,5.7,0.8,8.5,1.1c2.6,1.2,5.1,2.6,7.1,4.8c-7.9-0.2-15.3,2.7-22.9,4.2
		c0.2-6.3-6.3-0.7-7.8,2.2c-1.3-5.5-10.7-2.9-12.9,0.9c-0.7-1.2-1.3-2.5-1.9-3.8c-1-4.7,3.7-10,8.3-7.2
		C132.9,36.2,140.9,33.8,147.5,30.9z"/>
</g>
<g id="_x23_faca97ff">
	<path class="st18" d="M48.2,36.3c0.6-2.1,2.6-4.7,5-4.1C51.8,33.8,50.1,35.2,48.2,36.3z"/>
</g>
<g id="_x23_a7807dff">
	<path class="st19" d="M38.8,52.6c6.2-7.6,13.4-15.3,21.9-20.2c0.7,1,1.5,2,2.2,3c-3,3.5-6.4,7.2-10.8,9
		C47.8,46.6,44.3,56.6,38.8,52.6z"/>
</g>
<g id="_x23_fbca96ff">
	<path class="st20" d="M199.6,33.2c3.1,0,5,2.5,6.3,5C203.7,36.6,201.6,34.9,199.6,33.2z"/>
</g>
<g id="_x23_fbd3a6ff">
	<path class="st21" d="M36.1,48.1c2.4-4.5,6.8-11,12.1-11.8C44.3,40,40.6,43.9,37,47.9L36.1,48.1z"/>
</g>
<g id="_x23_bdab67ff">
	<path class="st22" d="M140.2,41c7.6-1.5,15-4.3,22.9-4.2c4.2,3.6,10.3,1.3,14.8,4.2c1,1.3,2.1,2.6,3.2,3.9
		c-10,0.2-20.5-2.1-30.3,0.1c-4.7-0.1-9.5,0.4-14-1.1C137.9,42.8,139.1,41.9,140.2,41z"/>
</g>
<g id="_x23_a87c27ff">
	<path class="st23" d="M111.7,40.8c0.6-4,3.7-2.3,5.9-0.7c0.6,1.3,1.2,2.6,1.9,3.8c2.3,6.9,11.2,5.9,12.9-0.9
		c1.4-2.8,7.9-8.4,7.8-2.2c-1.2,0.9-2.4,1.8-3.4,2.9c-1.8,2.2-3.4,4.6-4.7,7.1c3,3.4,4.7,7.4,4.2,12.1l-0.2,0.8
		c-3.4,5.9-11.4,8.3-17,4c-1-1.3-2-2.6-2.9-4l-0.2-0.8c-4-5.9,6-10.6,1.5-15.5c-0.8-1.3-1.4-2.7-2.3-3.8
		C114.1,42.7,112.9,41.8,111.7,40.8 M123.3,53.2c-8,4.2-2.7,17.3,6.4,12.7C135.5,61.9,131.2,49.7,123.3,53.2z"/>
</g>
<g id="_x23_fbd6adff">
	<path class="st24" d="M205.9,38.2c3.4,1.1,7.8,4.2,7.9,8C211.1,43.6,208.5,40.9,205.9,38.2z"/>
</g>
<g id="_x23_9d8870ff">
	<path class="st25" d="M74.5,40c0.8-0.2,1.5-0.5,2.3-0.8c10.6,6.8,24-3,35,1.6c1.1,1,2.3,1.9,3.3,3c-15.6,0-31.6,8.2-47.4,2.9
		C69.5,44,71.8,41.8,74.5,40z"/>
</g>
<g id="_x23_a7a865ff">
	<path class="st26" d="M119.6,44c2.1-3.8,11.6-6.4,12.9-0.9C130.8,49.9,121.9,51,119.6,44z"/>
</g>
<g id="_x23_c4af44ff">
	<path class="st27" d="M177.9,41c8.2-0.2,16.1,2.1,24.2,1.1c3.2,0.8,5.9,4.4,7.7,7c-1.3-0.3-4-2.1-2.6,0.5c0.7,5.6,7.4,8.6,6.7,14.4
		c-6.8-2.7-9.6-12.4-17.1-14.3c3.3,6.8,10.4,10.8,13.2,18c-0.8,0-2.4,0.1-3.2,0.1c-0.8,0-2.3,0-3.1,0c4.7-2.3-2.8-6.7-4.7-9.1
		c-4.1-6.8-11.4-10.4-18.2-14C180,43.6,179,42.3,177.9,41z"/>
</g>
<g id="_x23_9ea86dff">
	<path class="st28" d="M67.7,46.7c15.8,5.2,31.8-2.9,47.4-2.9c1,1.2,1.6,2.5,2.3,3.8C103.2,51,88.2,50.9,74,55
		c-1.2-3.5-3.7-6.4-7.2-7.9L67.7,46.7z"/>
</g>
<g id="_x23_9ccc5fff">
	<path class="st29" d="M132.1,51c1.3-2.5,2.9-4.9,4.7-7.1c4.5,1.5,9.3,1,14,1.1c0.4,2,0.9,4,1.3,6c-5.1,0.5-10.1,1.6-14.8,3.5
		c-0.3,2.9-0.3,5.9-1.1,8.7C136.8,58.4,135.1,54.4,132.1,51z"/>
</g>
<g id="_x23_bed060ff">
	<path class="st30" d="M150.8,44.9c9.8-2.2,20.3,0.2,30.3-0.1c6.8,3.6,14.1,7.2,18.2,14c-5.9-3.8-11.4-10.2-19.2-7
		c-4.2-2.5-8.8-1.5-13.1-0.2c-4.2-0.7-8.5-2.2-12.8-0.8c-0.5,0-1.5,0-2,0C151.7,48.9,151.2,46.9,150.8,44.9z"/>
</g>
<g id="_x23_f9cb98ff">
	<path class="st31" d="M213.8,46.2c2.4,1.5,6.5,3.6,6,7C217.6,51.1,215.6,48.7,213.8,46.2z"/>
	<path class="st31" d="M239.6,92.3c2.9,0,2.5,4.9,2.1,7C240.6,97.1,240,94.7,239.6,92.3z"/>
	<path class="st31" d="M8.2,142.7c1.9,5.9,3,12,4.1,18.1C8.6,157.8,8.5,148,8.2,142.7z"/>
</g>
<g id="_x23_c0c588ff">
	<path class="st32" d="M56.1,53.9c3.6-2.3,6.8-5.1,10.8-6.8c3.5,1.5,5.9,4.3,7.2,7.9c-0.1,0.5-0.3,1.5-0.4,2
		c-1.3,0.7-2.5,1.4-3.8,2.2c-6.1-1.6-12.1,0.4-18.1,1.6l-0.9,0.2C52.6,58.5,54.3,56.2,56.1,53.9z"/>
</g>
<g id="_x23_fac68dff">
	<path class="st33" d="M32.2,53.3c-0.4-2.4,1.9-4.4,3.9-5.2l0.9-0.2C35.6,49.8,33.9,51.6,32.2,53.3z"/>
</g>
<g id="_x23_90c766ff">
	<path class="st34" d="M74,55c14.2-4.1,29.1-4,43.4-7.3c4.6,4.9-5.5,9.6-1.5,15.5c0.6-12.2-18.7-9.7-21.9-1.2c0.5-3.2-2.1-4.8-4.9-4
		c-1.4,3.7-2.1,7.6-4.1,11c0.1-2.8,0.9-5.4,1.7-8c-4.4-1.2-9.1-1.7-13.2-4.1C73.7,56.4,73.9,55.5,74,55z"/>
</g>
<g id="_x23_a1d453ff">
	<path class="st35" d="M207.3,49.7c-1.4-2.6,1.3-0.8,2.6-0.5c4.9,5,9.9,10.4,13,16.8c-3.8,0.1-7.6,1-11.3,1.9c-0.4,0-1.1,0-1.5,0
		c-2.8-7.2-9.9-11.2-13.2-18c7.5,1.9,10.2,11.6,17.1,14.3C214.7,58.3,208,55.2,207.3,49.7z"/>
</g>
<g id="_x23_bef36cff">
	<path class="st36" d="M154.1,50.9c4.2-1.4,8.6,0.1,12.8,0.8c4.4-1.3,8.9-2.3,13.1,0.2c6.4,5.9-2.2,17.6-9.4,11.6
		c-2.7-3.1-5,0.5-6.8,2.5c-1.2,0-2.4,0-3.6,0c-2.2-4.3-7.1-5.1-11.1-7C150.9,56.4,152.7,53.8,154.1,50.9z"/>
</g>
<g id="_x23_a1f261ff">
	<path class="st37" d="M137.4,54.4c4.7-1.9,9.7-3,14.8-3.5c0.5,0,1.5,0,2,0c-1.4,2.9-3.2,5.5-5,8.1c4,1.9,8.9,2.7,11.1,7
		c-3.1,0.5-5.2-2.5-8.1-2.8c-5,2.6-10.9,3.9-16.2,1.7l0.2-1l0.2-0.8C137.1,60.3,137.1,57.3,137.4,54.4z"/>
</g>
<g id="_x23_adeb59ff">
	<path class="st38" d="M180,51.9c7.8-3.2,13.4,3.2,19.2,7c1.9,2.4,9.3,6.8,4.7,9.1c-0.4,0.1-1.3,0.2-1.7,0.2
		c-3.7,0.1-7.4,0.3-11.1,0.8c1-2.3,2.3-4.5,3.3-6.8c5.6-4.1-6.6-2.8-8.8-0.6c-5.3,6.7-14.3,3.8-21.8,4.3c1.8-2.1,4.1-5.6,6.8-2.5
		C177.8,69.5,186.4,57.7,180,51.9z"/>
</g>
<g id="_x23_dcb850ff">
	<path class="st39" d="M46.6,54.1c0.8,8.8,8.5-6.2,9.5-0.2c-1.8,2.3-3.5,4.7-5.2,7c-4,4.4-8.3,8.7-10.9,14.2c-1.3,0.7-2.8,1.4-4.2,2
		c1.3-5.3,5.6-9.2,8.1-14c-6.5-2.4-6.8,12.6-14,11c0.1-4.5,3.6-7.7,5.9-11.2c1.5-3.1-2.4-1.2-4-1.1c0.7-1.7,1.8-3.2,2.9-4.7
		C37.2,62.1,43.1,55.2,46.6,54.1z"/>
</g>
<g id="_x23_93e665ff">
	<path class="st40" d="M123.3,53.2c7.9-3.5,12.2,8.7,6.4,12.7C120.6,70.4,115.3,57.3,123.3,53.2z"/>
</g>
<g id="_x23_facea0ff">
	<path class="st41" d="M28.4,58c-1.2-1.6,1-4.4,2.8-3.6C30.7,55.9,29.6,57.1,28.4,58z"/>
</g>
<g id="_x23_9aed6eff">
	<path class="st42" d="M94.1,62c3.2-8.5,22.4-11.1,21.9,1.2l0.2,0.8c-1.3,10.4-15.6,3.2-22.3,6.6c-1.8,0.2-4.4,1-4.4-1.7
		C90.9,66.5,92.7,64.3,94.1,62z"/>
</g>
<g id="_x23_9dee6fff">
	<path class="st43" d="M69.8,59.1c1.3-0.7,2.5-1.5,3.8-2.2c4,2.4,8.7,2.9,13.2,4.1c-0.8,2.6-1.6,5.3-1.7,8c-5.1,7.2-15.2,7.3-23,8.8
		c-0.3-0.9-0.7-1.8-1-2.7c1.3-1,2.7-2,4.1-3c4.4,0.7,12.2-2.2,10.7-7.9C73.9,62.4,71.9,60.7,69.8,59.1z"/>
</g>
<g id="_x23_c8f18bff">
	<path class="st44" d="M51.8,60.7c5.9-1.2,12-3.3,18.1-1.6c2.1,1.6,4.1,3.3,6.1,5.1c1.5,5.7-6.3,8.6-10.7,7.9c-5-0.7-12,2-14.9-3.5
		C50,66,51.2,63.3,51.8,60.7z"/>
</g>
<g id="_x23_b76c1aff">
	<path class="st45" d="M89.2,58c2.9-0.9,5.4,0.8,4.9,4c-1.4,2.3-3.2,4.5-4.6,6.8c-0.7,1-1.3,2-1.9,3c-2,3.1-3.1,6.8-4.6,10.2
		c-2.5,4.9-5.8,9.6-7,15c7.3-1.7,13.8-5.7,20.7-8.4c6.6-4.6,5.1,0.8,2.9,1.8c-9.1,5.4-20,8-27.6,15.6c-1.7,0.5-3.4,0.6-5.1,0.1
		c0.8-3.1,2.4-5.9,3.7-8.8c3-4.2,5.1-8.9,7.7-13.3c1.3-2.7,2.5-5.4,4-8c1.4-2.1,2.3-4.6,3.1-7C87.1,65.6,87.8,61.7,89.2,58z"/>
</g>
<g id="_x23_75d140ff">
	<path class="st46" d="M185.6,61.7c2.2-2.3,14.4-3.5,8.8,0.6C191.9,65.3,183.1,68.4,185.6,61.7z"/>
</g>
<g id="_x23_dee163ff">
	<path class="st47" d="M31.8,61.7c1.6-0.1,5.4-2,4,1.1c-2.3,3.5-5.8,6.7-5.9,11.2c7.2,1.6,7.5-13.4,14-11c-2.5,4.8-6.8,8.7-8.1,14
		c-1.7,3.1-4.1,3.2-6.7,1c-2.3,1.6-4.5,4-7.4,2.4C23.2,73.3,28.5,67.9,31.8,61.7z"/>
</g>
<g id="_x23_d0f169ff">
	<path class="st48" d="M40,75.1c2.6-5.4,6.9-9.8,10.9-14.2l0.9-0.2c-0.5,2.6-1.8,5.3-1.5,8c2.9,5.5,10,2.8,14.9,3.5
		c-1.4,0.9-2.8,2-4.1,3c-7,0.8-14,1.3-21,1.9C40.1,76.6,40,75.6,40,75.1z"/>
</g>
<g id="_x23_93f538ff">
	<path class="st49" d="M163.8,66c7.5-0.5,16.5,2.4,21.8-4.3c-2.5,6.7,6.2,3.6,8.8,0.6c-1.1,2.3-2.4,4.5-3.3,6.8l-0.4,0.8
		c-1.2,0.3-2.5,0.6-3.7,1c-1.6,0.4-3.2,0.9-4.8,1.4c-3.7,0-7.3-1-10.3-3.1c-6.2-3-12.5,1.8-18.8-0.3c-3.8-1.6-6.8,3-10.6,1.9
		c-4.2,0.7-9.3-1.2-6.7-5.8c5.4,2.2,11.2,0.8,16.2-1.7c2.8,0.2,4.9,3.3,8.1,2.8C161.4,66,162.6,66,163.8,66z"/>
</g>
<g id="_x23_79ed4cff">
	<path class="st50" d="M116.1,64c1,1.3,1.9,2.7,2.9,4c-5.3,5.5-13.3,4.3-19.8,7.2c-1.4-1.9-3.1-3.7-5.3-4.6
		C100.5,67.2,114.8,74.3,116.1,64z"/>
</g>
<g id="_x23_5aeb2bff">
	<path class="st51" d="M119,67.9c5.7,4.3,13.6,1.9,17-4l-0.2,1c-2.6,4.6,2.4,6.5,6.7,5.8c3.8,1.1,6.8-3.5,10.6-1.9l-0.2,1
		c-5.6,2-12.3,0.9-17.1,4.8c-1.5,0.9-3.1,2.2-5,1.8c-10.1-2.8-20.3,1.7-30.5,0.8c-0.3-0.5-0.8-1.5-1.1-2
		C105.8,72.2,113.7,73.4,119,67.9z"/>
</g>
<g id="_x23_57563eff">
	<path class="st52" d="M211.6,67.8c3.7-0.9,7.5-1.8,11.3-1.9c3.3,5.5,6.9,11,8.8,17.1c0.7,4.2,2.4,8.2,4.1,12.2
		c0.8,2.2,2.4,4.2,2.2,6.7c0,1.4-0.1,2.8-0.1,4.2c-0.8-2.7-1-11.3-6-8.4c-3.7-9.1-6.1-18.7-10.4-27.6c-6.3-3.8-4.9,0.9-3.6,2.9
		c4.5,7.4,7.1,15.7,10.2,23.7c0,0.8-0.1,2.3-0.1,3.1c-0.5,0.1-1.6,0.2-2.1,0.3c-0.1-0.3-0.4-0.9-0.5-1.2
		C222.3,87.9,217.1,77.7,211.6,67.8z"/>
</g>
<g id="_x23_7af019ff">
	<path class="st53" d="M153.1,68.8c6.3,2.2,12.6-2.6,18.8,0.3c3,2.1,6.6,3.1,10.3,3.1c-2.1,2.5-5,4.1-8.3,4
		c-5.6-6.8-14.9-1-21.1-6.5L153.1,68.8z"/>
</g>
<g id="_x23_7eaf4aff">
	<path class="st54" d="M191.1,69c3.7-0.6,7.4-0.8,11.1-0.8c-3.8,1-7.6,1.5-11.5,1.7L191.1,69z"/>
</g>
<g id="_x23_54724bff">
	<path class="st55" d="M202.2,68.2c0.4-0.1,1.3-0.2,1.7-0.2c0.8,0,2.3,0,3.1,0c1.3,1.9,2.4,3.8,3.4,5.8c-9.7-1.7-18.8,3.3-28.6,2
		c1.7-1.7,3.4-3.3,5.2-4.9c1.2-0.4,2.4-0.7,3.7-1C194.6,69.7,198.4,69.3,202.2,68.2z"/>
</g>
<g id="_x23_8b6735ff">
	<path class="st56" d="M206.9,67.9c0.8,0,2.4-0.1,3.2-0.1c0.4,0,1.1,0,1.5,0c5.6,9.9,10.7,20.1,13.8,31.1c-1,0.4-2,0.8-3,1.1
		c-0.3-1.1-0.7-2.3-1.1-3.4c-2.9-7.9-5.4-16.3-10.9-22.9C209.3,71.8,208.2,69.8,206.9,67.9z"/>
</g>
<g id="_x23_79d147ff">
	<path class="st57" d="M62.1,77.8c7.8-1.5,17.9-1.6,23-8.8c-0.8,2.4-1.6,4.9-3.1,7c-5.3,3.7-18.9-2.4-17.8,6.1
		c-3.5,0.2-6.9,0.4-10.4,0.6c0.8-0.5,1.7-1,2.5-1.5C58.3,80.3,60.2,79.1,62.1,77.8z"/>
</g>
<g id="_x23_52bd51ff">
	<path class="st58" d="M87.6,71.8c0.6-1,1.3-2,1.9-3c0,2.8,2.5,1.9,4.4,1.7c2.3,0.9,4,2.6,5.3,4.6c0.3,0.5,0.8,1.5,1.1,2
		c-1.3,0.5-4,1.5-5.3,2c-0.9,0.4-1.9,0.8-2.8,1.1c-1.8-0.1-3.5-0.1-5.3-0.3c-0.2-4,5.9-3.1,8-4.2C96.3,71.3,90.1,73.2,87.6,71.8z"/>
</g>
<g id="_x23_48ef07ff">
	<path class="st59" d="M135.8,74.6c4.8-4,11.5-2.8,17.1-4.8c6.2,5.5,15.4-0.3,21.1,6.5c0.1,0.4,0.3,1.1,0.4,1.5
		c-6.1-1.8-13.2,2.8-18.4-1.4C149.1,76.6,142.1,77.7,135.8,74.6z"/>
</g>
<g id="_x23_a26f30ff">
	<path class="st60" d="M217.9,73.1c-1.3-2-2.7-6.7,3.6-2.9c4.3,8.9,6.7,18.5,10.4,27.6c-1.4,3.2-2.7,1.3-3.8-1
		C225,88.8,222.4,80.5,217.9,73.1z"/>
</g>
<g id="_x23_39a134ff">
	<path class="st61" d="M182.2,72.2c1.6-0.5,3.2-1,4.8-1.4c-1.8,1.6-3.5,3.2-5.2,4.9c-7.5,0.8,4.6,3,0.6,6.5
		c-1.4,1.2-3.6,0.5-5.3,0.7c-1.7-0.7-3.6-1.6-5.3-0.3c-0.9,0.4-1.8,0.9-2.7,1.4c-13.3-1.1-26.6-1.6-39.9-2.3
		c-1.8-5.7-7.2-5.2-12.5-4.2c-7.3,0.5-14.5,1.2-21.8,1.5c1.3-0.5,4-1.5,5.3-2c10.2,0.9,20.4-3.6,30.5-0.8c0.5,2.5-0.4,6.7,5.2,3.8
		c11.5,0.7,23,2.8,34.5,1.5c1.3-1.1,4.7-1.7,3.8-3.8c-0.1-0.4-0.3-1.1-0.4-1.5C177.2,76.3,180.1,74.7,182.2,72.2z"/>
</g>
<g id="_x23_3d8343ff">
	<path class="st62" d="M82.9,82c1.5-3.4,2.6-7,4.6-10.2c2.6,1.4,8.8-0.5,7.3,3.8c-2.1,1.1-8.2,0.2-8,4.2c1.8,0.2,3.5,0.3,5.3,0.3
		C89.3,81.5,86.1,82,82.9,82z"/>
</g>
<g id="_x23_3f5046ff">
	<path class="st63" d="M181.8,75.8c9.8,1.3,18.9-3.7,28.6-2c5.5,6.6,8,15,10.9,22.9c-11.3-2.2-23.4,1.6-35,1c-0.7-0.7-1.5-1.4-2.2-2
		c1.3-1.1,2.9-1.7,4.6-1.2c5.2,1.2,8.7-4.3,13.6-5c3.7-0.6,12.7-0.2,11.8-6.3c-2.7-9.1-15.2-6-21.9-4.1c-1.8,7.3-11.8,1.9-14.6,7.1
		c-0.2-1.1-0.3-2.1-0.5-3.1c1.7-0.2,3.9,0.5,5.3-0.7C186.4,78.8,174.3,76.5,181.8,75.8z"/>
</g>
<g id="_x23_fad2a8ff">
	<path class="st64" d="M14.3,84.5c0.3-3.3,1.2-7.6,4-9.4C17.4,78.4,16.1,81.6,14.3,84.5z"/>
</g>
<g id="_x23_d5d333ff">
	<path class="st65" d="M35.8,77c1.4-0.6,2.8-1.2,4.2-2c0,0.5,0.1,1.5,0.1,2c-0.2,1.7-0.5,3.3-0.9,5c-1.4,1.7-2.8,3.4-4.1,5.1
		c-3.8-5.4-10-5.1-15.1-2.7c0.3-1.1,0.1-4.3,1.6-4.1c2.9,1.7,5.1-0.8,7.4-2.4C31.7,80.2,34.1,80.2,35.8,77z"/>
</g>
<g id="_x23_b4ea44ff">
	<path class="st66" d="M40.1,77.1c7-0.6,14-1.1,21-1.9c0.3,0.9,0.7,1.8,1,2.7c-1.9,1.3-3.8,2.5-5.8,3.5c-5.6-1.5-11.5-0.4-17,0.7
		C39.6,80.4,39.9,78.7,40.1,77.1z"/>
</g>
<g id="_x23_28dc10ff">
	<path class="st67" d="M130.8,76.3c1.9,0.4,3.4-0.8,5-1.8c6.3,3.2,13.3,2,20.1,1.8c5.2,4.2,12.3-0.4,18.4,1.4
		c0.9,2.2-2.5,2.8-3.8,3.8c-11.5,1.3-23-0.8-34.5-1.5C130.4,83,131.3,78.8,130.8,76.3z"/>
</g>
<g id="_x23_4d9547ff">
	<path class="st68" d="M64.2,82.2c-1.1-8.5,12.5-2.4,17.8-6.1c-1.4,2.6-2.6,5.3-4,8c-9.4-2.5-15,7.8-24.9,4.1
		c-0.6-0.1-1.8-0.3-2.4-0.4C55.3,86,61.2,86.7,64.2,82.2z"/>
</g>
<g id="_x23_416142ff">
	<path class="st69" d="M116.8,77.6c5.2-1,10.6-1.5,12.5,4.2c13.3,0.7,26.6,1.3,39.9,2.3c-0.6,0.7-1.3,1.3-1.9,2
		c-7,0.2-15-1.2-21.3,2.7c0.6-1.6,1.1-3.2,1.2-4.9c-5.1,0.2-8.2,5.1-11.5,8.3c-1-0.5-1.7-1.2-2.1-2.3c1.4-2.1,3.1-4.2,2.6-6.9
		c-5-1.1-4.1,5.8-6,8.8l-0.5,0.5c0-5.2-7.7-4.5-8.1-9.3C121.9,79.6,120.6,77,116.8,77.6z"/>
</g>
<g id="_x23_303e43ff">
	<path class="st70" d="M192.1,79c6.7-1.9,19.2-5,21.9,4.1c0.9,6.1-8.1,5.7-11.8,6.3c-4.8,0.7-8.4,6.3-13.6,5
		c-1.7-0.5-3.3,0.1-4.6,1.2c-3.2,3.8-11.2,7.2-10.6-1c1.4-2.8,2.8-5.7,4-8.5C180.3,80.9,190.3,86.3,192.1,79z"/>
</g>
<g id="_x23_283a42ff">
	<path class="st71" d="M95,79.1c7.3-0.3,14.5-1,21.8-1.5c3.8-0.6,5.1,2,4.6,5.3c0.4,4.8,8.1,4.2,8.1,9.3c-1.8,1.8-3.7,3.4-6.1,4.2
		c-3.2-0.2-6.5-0.4-9.7-0.6l-0.3-1.1c1.1-2.3,2.5-4.4,3.8-6.6c2.2-3.1-1-8.8-5-6.9c-6.1,6.4-12.7,12.9-16.8,20.8
		c-8.1,0.1-15.8,2.4-23.7,4.1c7.6-7.6,18.6-10.2,27.6-15.6c2.2-1,3.7-6.5-2.9-1.8c-6.9,2.7-13.4,6.7-20.7,8.4c1.3-5.4,4.6-10.1,7-15
		c3.2,0,6.3-0.5,9.3-1.8C93.1,79.8,94,79.5,95,79.1z"/>
</g>
<g id="_x23_9ace24ff">
	<path class="st72" d="M39.2,82c5.6-1,11.4-2.2,17-0.7c-0.8,0.5-1.7,1-2.5,1.5c-6.7,1.7-13.2,3.9-19.7,6.4c0.3-0.5,0.8-1.6,1.1-2.1
		C36.4,85.4,37.8,83.7,39.2,82z"/>
</g>
<g id="_x23_fad2a6ff">
	<path class="st73" d="M235.9,80.3c1.9-0.1,2.9,3.3,1.6,4.7C236,83.9,235.7,82.1,235.9,80.3z"/>
	<path class="st73" d="M241.7,99.3c3.9,4.7,2.7,16.4,4.3,23.7c-0.8,4.8,1.2,16.1-2.2,18.7C244.5,127.5,244.3,113.3,241.7,99.3z"/>
</g>
<g id="_x23_97581bff">
	<path class="st74" d="M112.3,81.2c4-2,7.2,3.8,5,6.9c-0.3-5.4-4.4-7.9-7.3-2.5c2.8-0.2,4,2.2,2.4,4.4c-0.3-0.6-1.1-1.7-1.4-2.3
		c-3.6,3.5-8.1,6.6-10.1,11.5c3.2-0.8,5.6-3.1,8-5.2c0.2,1.3,0.5,2.6,0.8,3.8c-1,0.2-1.9,0.5-2.8,0.8c-2.7,3.3-7.9,8-11.5,3.3
		C99.5,94.1,106.2,87.6,112.3,81.2z"/>
</g>
<g id="_x23_c6ae21ff">
	<path class="st75" d="M20,84.4c5.1-2.4,11.3-2.7,15.1,2.7c-0.3,0.5-0.8,1.6-1.1,2.1c-5.5-0.4-10.7,2.6-15.9-0.2
		C17.4,87.2,18.5,85.4,20,84.4z"/>
</g>
<g id="_x23_6da82bff">
	<path class="st76" d="M53.8,82.8c3.5-0.2,6.9-0.4,10.4-0.6c-3,4.5-8.8,3.8-13.4,5.5c-5.6,1.2-11.4,2.6-17.2,2.2l0.5-0.6
		C40.5,86.8,47.1,84.6,53.8,82.8z"/>
</g>
<g id="_x23_d17213ff">
	<path class="st77" d="M110,85.6c2.8-5.5,7-2.9,7.3,2.5c-1.3,2.2-2.8,4.3-3.8,6.6c-3.6,2.3,2.8,7.2-1.3,7.6
		c-0.9-1.4-1.7-2.8-2.3-4.4c-0.2-1.3-0.5-2.6-0.8-3.8c1.2-1.3,2.3-2.6,3.4-4C113.9,87.8,112.8,85.4,110,85.6z"/>
</g>
<g id="_x23_cd7015ff">
	<path class="st78" d="M171.8,82.7c1.6-1.3,3.6-0.4,5.3,0.3c0.2,1,0.3,2.1,0.5,3.1c-1.2,2.9-2.6,5.7-4,8.5c-3.4,2.4,3,7.2-1.7,7.8
		c-0.7-1.6-1.4-3.1-2-4.7c-0.3-1.3-0.6-2.5-0.9-3.8c1.2-1.3,2.4-2.6,3.4-4C175.4,85.9,167.7,86.4,171.8,82.7z"/>
</g>
<g id="_x23_c26c15ff">
	<path class="st79" d="M130,91.7c1.9-3,1-9.8,6-8.8c0.5,2.7-1.2,4.8-2.6,6.9c-2.8,2.7-0.6,4.7,2.7,4.8c-2,2.2-3.8,4.6-6.1,6.5
		C123.9,101.8,129.4,94.8,130,91.7z"/>
</g>
<g id="_x23_8f5419ff">
	<path class="st80" d="M169.1,84.1c0.9-0.5,1.8-1,2.7-1.4c-4,3.7,3.6,3.2,0.6,7.3c-0.3-0.6-1-1.7-1.4-2.3
		c-3.6,3.5-8.1,6.6-10.1,11.5c3.2-0.8,5.6-3.1,8-5.2c0.3,1.3,0.6,2.5,0.9,3.8c-2.1,0.2-3.7,1.5-5.1,2.9c-0.3,0.3-1,0.9-1.3,1.2
		c-1.3-1.9-3.4-3-5.3-4.1c0.8-1.2,1.5-2.4,2.2-3.7c2.4-2.6,4.6-5.3,6.8-8C167.8,85.5,168.5,84.8,169.1,84.1z"/>
</g>
<g id="_x23_a7732dff">
	<path class="st81" d="M231.7,83.1c2.9,2.5,4.2,8.1,4.1,12.2C234.2,91.3,232.5,87.3,231.7,83.1z"/>
</g>
<g id="_x23_253b42ff">
	<path class="st82" d="M53.2,88.1c9.9,3.7,15.5-6.5,24.9-4.1c-2.6,4.4-4.7,9.1-7.7,13.3c-11.6-0.1-23.2,0.6-34.8-0.1
		c-3.3-0.7-4.6,2.9-6.4,4.9l0.1-0.9c0.5-2.1,0.9-4.2,1.7-6.1C35.5,86.2,48.1,96.4,53.2,88.1z"/>
</g>
<g id="_x23_bf6814ff">
	<path class="st83" d="M135.6,92.2c3.4-3.2,6.5-8,11.5-8.3c-0.2,1.7-0.7,3.3-1.2,4.9c-0.8,1.3-1.5,2.6-2.2,3.8
		c-4.2,3.6-1.4,14.9,4.7,9.9c3.3-1.5,6.6-3,9.8-4.7c1.9,1.2,4,2.3,5.3,4.1c-1.8,1-3.6,2.8-5.6,1.2c-3.2-2.4-6.3,1.2-9.1,2.6
		c-1.9,0.2-3.8,0.3-5.7,0.3c-4.1-3.5-4.4-8.8-3.1-13.7C138.5,92.2,136.9,92.9,135.6,92.2z"/>
</g>
<g id="_x23_fac994ff">
	<path class="st84" d="M12.4,90.9c-1.1-1.6-0.2-5.1,1.6-5.6C14.3,87.3,13.7,89.3,12.4,90.9z"/>
</g>
<g id="_x23_283c40ff">
	<path class="st85" d="M145.9,88.8c6.3-3.9,14.3-2.4,21.3-2.7c-2.2,2.7-4.4,5.4-6.8,8c-3.9-1.2-7.6,3-11.2,0.7c-2-1.2-4,1-6,1.4
		c0.1-1.2,0.3-2.4,0.4-3.7C144.4,91.3,145.1,90.1,145.9,88.8z"/>
</g>
<g id="_x23_f9c893ff">
	<path class="st86" d="M237.7,85.8c2.4,1,2.5,4.2,1.9,6.5C238.7,90.2,238,88.1,237.7,85.8z"/>
</g>
<g id="_x23_415b3dff">
	<path class="st87" d="M33.6,89.9c5.8,0.3,11.5-1,17.2-2.2c0.6,0.1,1.8,0.3,2.4,0.4c-5.1,8.3-17.7-1.9-22.3,7
		C31.5,93.2,32.3,91.3,33.6,89.9z"/>
</g>
<g id="_x23_41413bff">
	<path class="st88" d="M100.9,99.2c2-4.8,6.4-8,10.1-11.5c0.3,0.6,1.1,1.7,1.4,2.3c-1.1,1.4-2.2,2.7-3.4,4
		C106.5,96.1,104.2,98.4,100.9,99.2z"/>
</g>
<g id="_x23_40392cff">
	<path class="st89" d="M160.9,99.2c2-4.8,6.4-8,10.1-11.5c0.4,0.6,1.1,1.7,1.4,2.3c-1.1,1.4-2.2,2.7-3.4,4
		C166.5,96.1,164.1,98.4,160.9,99.2z"/>
</g>
<g id="_x23_89672fff">
	<path class="st90" d="M18.2,89c5.2,2.8,10.4-0.2,15.9,0.2l-0.5,0.6c-1.3,1.5-2.1,3.3-2.7,5.2c-0.7,2-1.2,4.1-1.7,6.1
		c-1.1,0.3-2.2,0.5-3.3,0.8c0.5-3.8,1.8-7.4,2-11.2c-3.9,2.2-4.2,8.1-5.8,12.2c0,0.5-0.1,1.6-0.2,2.1c-3.1,2.2-3.4-0.5-3.3-3.3
		c1.1-3.2,2.4-7-2.5-5.9C15.9,93.1,15.1,89.9,18.2,89z"/>
</g>
<g id="_x23_73471aff">
	<path class="st91" d="M136.1,94.7c-3.3-0.1-5.5-2.1-2.7-4.8c0.4,1.1,1.1,1.9,2.1,2.3c1.4,0.7,3,0,4.4,0.1c-1.4,4.9-1,10.2,3.1,13.7
		c-0.5,0-1.5,0-2,0C137.2,103.3,140.3,96.1,136.1,94.7z"/>
</g>
<g id="_x23_f9ca96ff">
	<path class="st92" d="M10.3,98.3c-0.4-2.4-0.4-6.5,2.1-7.4C12.1,93.5,11.5,96,10.3,98.3z"/>
</g>
<g id="_x23_434138ff">
	<path class="st93" d="M22.2,102.9C23.8,98.8,24,93,28,90.8c-0.3,3.8-1.5,7.4-2,11.2c-0.2,0.2-0.5,0.7-0.7,0.9
		C24.2,102.2,23.2,102.5,22.2,102.9z"/>
</g>
<g id="_x23_764112ff">
	<path class="st94" d="M129.5,92.2l0.5-0.5c-0.6,3.1-6.1,10,0,9.4c-1.7,1.9-4.4,0.6-4.5-1.8c-4.2,0.9-9.1,7.8-13.5,2.9
		c4.2-0.4-2.2-5.3,1.3-7.6l0.3,1.1c-0.1,6.9,6.7,3.5,9.7,0.6C125.8,95.7,127.7,94,129.5,92.2z"/>
</g>
<g id="_x23_683b10ff">
	<path class="st95" d="M148.3,102.5c-6.1,5-8.9-6.3-4.7-9.9c-0.1,1.2-0.3,2.4-0.4,3.7C141.7,100.2,144.4,102.8,148.3,102.5z"/>
</g>
<g id="_x23_170e09ff">
	<path class="st96" d="M143.2,96.3c2-0.4,4-2.6,6-1.4c3.6,2.2,7.2-1.9,11.2-0.7c-0.7,1.2-1.5,2.4-2.2,3.7c-3.2,1.8-6.5,3.2-9.8,4.7
		C144.4,102.8,141.7,100.2,143.2,96.3z"/>
</g>
<g id="_x23_281408ff">
	<path class="st97" d="M130,101.2c2.4-1.9,4.1-4.3,6.1-6.5c4.2,1.4,1.1,8.6,4.9,11.4c-11-0.2-22.5,0.1-33.1-0.9
		c-5.7-1.6,4.8-5.5-1-6.4c0.9-0.3,1.9-0.6,2.8-0.8c0.6,1.5,1.4,3,2.3,4.4c4.4,4.9,9.2-2,13.5-2.9C125.6,101.7,128.3,103.1,130,101.2
		z"/>
</g>
<g id="_x23_774d1fff">
	<path class="st98" d="M171.8,102.5c4.7-0.6-1.8-5.5,1.7-7.8c-0.7,8.2,7.3,4.8,10.6,1c0.8,0.7,1.5,1.3,2.2,2
		c-2.3,1.8-4.5,3.8-6.7,5.6C177,103.3,174.1,104.2,171.8,102.5z"/>
</g>
<g id="_x23_2c3e37ff">
	<path class="st99" d="M186.3,97.7c11.6,0.5,23.7-3.2,35-1c0.4,1.1,0.7,2.2,1.1,3.4c0.3,2,0.5,4,0.7,6c-0.5-0.9-1-1.8-1.5-2.7
		c-8.5-0.1-16.9,1.9-25.4,2.5c-5.5-0.8-11.1-1.5-16.6-2.5C181.8,101.4,184,99.5,186.3,97.7z"/>
</g>
<g id="_x23_8d632dff">
	<path class="st100" d="M14.3,102.3c-0.2-2.4-1.2-5.7,1.9-6.4C15.7,98.1,15,100.2,14.3,102.3z"/>
</g>
<g id="_x23_2b3232ff">
	<path class="st101" d="M16.2,95.9c4.9-1.1,3.6,2.7,2.5,5.9c-0.4,1.4-0.5,2.8-0.6,4.2c-1.4-2.2-2.9-2.1-4.2,0.1
		c0.1-1.2,0.2-2.5,0.4-3.8C15,100.2,15.7,98.1,16.2,95.9z"/>
</g>
<g id="_x23_171918ff">
	<path class="st102" d="M113.7,95.8c3.2,0.3,6.4,0.4,9.7,0.6C120.4,99.3,113.6,102.7,113.7,95.8z"/>
</g>
<g id="_x23_182830ff">
	<path class="st103" d="M29.2,102.2c1.9-2,3.2-5.6,6.4-4.9c11.7,0.6,23.2-0.1,34.8,0.1c-1.3,2.9-3,5.7-3.7,8.8
		c-12.8,1.5-24.9-2.4-37.6-3.1L29.2,102.2z"/>
</g>
<g id="_x23_7d4b14ff">
	<path class="st104" d="M228.1,96.8c1.1,2.3,2.4,4.2,3.8,1c2.6,10.5,3.9,21.3,4,32.2c-2.6-0.1-7.4,1.2-4-5c-1-8.3,0.2-17.6-4-25.1
		C228,99.1,228.1,97.6,228.1,96.8z"/>
</g>
<g id="_x23_201305ff">
	<path class="st105" d="M231.9,97.8c5-2.9,5.2,5.7,6,8.4c0.4,2.2,0.9,4.5,1.2,6.7c-0.1,8.7-0.2,17.4,0,26.2
		c-0.3,6.5-2.3,12.7-3.5,19c-1.3,1.6-1.8,3.6-1.6,5.6c-0.5,1.9-1.5,3.6-2.4,5.2c-1.1,1.1-1.7,2.4-1.8,4c-0.8,1.3-1.5,2.6-2,4
		c-0.8,1.2-1.5,2.5-1.8,3.9c-2.8,5.4-5.4,11-10.1,15c-1.6,1.5-3,3.2-4.1,5.1c-3.3,3.3-6.6,6.7-9.9,10.1c-0.3,0.2-0.8,0.6-1.1,0.8
		c-1.9,1.1-3.5,2.6-5,4.2c-4.6,3.9-9.7,7.3-15,10.1c-1.5-0.1-2.8,0.5-3.8,1.7c-3.1,1.3-6.2,2.7-9.2,4.1c-4,1.3-8,2.6-12,4
		c-3.1,0.4-6.1,1.1-9,2c-13.8,1.1-27.7,2.2-41.4,0c-3.1-1-6.2-1.7-9.4-2.2c-1.8-0.8-3.7-1.6-5.8-1.6l-1-0.3c-1.5-1-3.1-1.7-4.9-1.9
		c-1.5-1-3.2-1.8-5-2c-1.3-0.8-2.6-1.5-4-2c-1.2-0.8-2.5-1.5-3.9-1.8c-1.5-0.4-2.6-1.5-3.9-2.3c-2-1.5-4.1-2.8-6.4-3.8
		c-1.5-0.7-2.6-1.9-3.7-3c-1.5-1.6-3.1-3.1-5-4.2c-0.3-0.2-0.8-0.6-1.1-0.8c-4-4-7.7-8.4-12.2-11.9c-5-5.4-9.2-11.9-12.8-18.2
		c0-1.6-0.6-2.9-1.8-3.9c-0.2-1.6-0.9-2.9-2-4c-0.3-1.8-1-3.4-2-4.9c-0.2-1.7-0.9-3.3-1.8-4.8c-0.5-2.2-1.2-4.3-2.1-6.4
		c-3.6-16.9-6.9-34.6-2.4-51.6c1.3-2.2,2.8-2.3,4.2-0.1c-1.7,6.4-3.1,14.1-0.5,21c-3.4,2.3-3.5,10.4,1.7,7.3
		c0.7-9.6,0.6-19.7,2.7-29.3c0-0.5,0.1-1.6,0.2-2.1c1-0.4,2.1-0.7,3.1,0c-4.5,22.5-2.4,46.2,7.3,67.1c-9.4-3.8-7.4-18.7-11.5-27
		c-2.1,1-5.7,1.5-2.6,5.6c-0.6,8.8,7.6,15.1,7.4,23.5c0.9,4.8,7.1,1.6,6.7-2.2c17.2,36.5,56.8,60.9,97.3,58.4
		c43.3-0.4,83.3-32.2,95-73.7c4.9-17.6,5.8-36.8,1.1-54.5c0.5-0.1,1.6-0.2,2.1-0.3c4.1,7.5,3,16.8,4,25.1c-3.4,6.2,1.4,4.9,4,5
		C235.8,119.1,234.5,108.3,231.9,97.8 M231.2,139.2c-1.7,1-1.1,3.2-1.4,4.8c-0.6,12-7.8,22.5-9.8,34.1c6.9,0.3,3.8-10.7,8.2-13.8
		c3.4-6.9,6.9-14.2,5.2-22.5C233.8,139.6,233.8,138.1,231.2,139.2 M33,182c-1.2,5.1,4.7,7.3,7.5,10.4c0.4,4.8,5.2,7,7,11.1
		c4.3,2.1,7,8.5,12.3,6.6c-0.8,3.5,2.5,3.3,2,0.2c-9.7-8.3-19.3-17.1-25.9-28.2C35.2,182.1,33.7,182,33,182 M213.3,184.2
		c-4,9.3-12.1,16-19.1,23.1c-0.9,2.2,0.2,3.6,2.5,2.5c5.7-5,12.2-9.8,14.8-17.2C216.3,192.4,220.1,183.2,213.3,184.2 M185.3,214.4
		c-14.7,7.4-29.9,14.6-46.4,16.5c-1.8,0.1-4.1,1.7-1.7,3c9.3,0.4,18.6-0.5,26.1-6.5c6.5,1,12.7-4.5,17.7-8
		C185.4,222.7,191.9,212.9,185.3,214.4 M68,216c-0.9,3.2,2.2,4.6,4.6,5.6c7.4,5.7,17.8,6.6,24.6,10.4c4.8,1.2,10.3-1.1,13.9,3
		c5.5-1.9,18.1,6.2,16.9-2.8C106.8,231.9,86.6,224.7,68,216z"/>
</g>
<g id="_x23_facd9aff">
	<path class="st106" d="M8.4,102.3c0.7-1.2-0.1-5,1.9-4c-3.2,14.6-2.5,29.5-2.1,44.4C4.5,132.1,5.8,115.3,8.4,102.3z"/>
</g>
<g id="_x23_454334ff">
	<path class="st107" d="M164.8,100.7c1.4-1.5,3-2.8,5.1-2.9c0.6,1.6,1.3,3.2,2,4.7C169.5,102,167.1,101.4,164.8,100.7z"/>
</g>
<g id="_x23_040201ff">
	<path class="st108" d="M95.5,102c3.6,4.7,8.8,0,11.5-3.3c5.8,1-4.7,4.8,1,6.4c10.7,1.1,22.2,0.8,33.1,0.9c0.5,0,1.5,0,2,0
		c1.9,0,3.8-0.1,5.7-0.3c2.1-0.1,4.1-0.3,6.2,0.2c6.9,1.7,14.3,1.6,21-0.6c6.3,3,13.5,0,20.3,0.4c8.5-0.6,16.8-2.6,25.4-2.5
		c0.5,0.9,1,1.8,1.5,2.7c0.4,0.9,0.7,1.8,1.1,2.7c0.8,11.5,1.2,23,0.1,34.5c-5.4,27.8-22.2,53.7-46.9,67.9c-3.8,0.9-7.3,2.7-11.2,3
		c6.3-9.3,9.1-20.8,17.1-29c2.5-2.9-1.8-6.5-0.6-9.8c2.9-9.7,0.2-19.9-4-28.8c-2.5-4.8-1.6-10.8-4.9-15.2
		c-18.4-14.6-41.4-22.4-65-18.3c-5.9-2.2-6,3.8-7.3,7.2c-5.6,1.4-11.8,0.4-17.1,2.8c-6.1,10.3-7.4,22.7-14.9,32
		c4,6.2,1.5,13.7,3.8,20.2c-3.4,4.5-1.2,8.3,2.9,11.7c-5.4,7.1-1.5,16.5,5.9,20.1c4,4.6,9.5,7.2,14.5,10.7
		c-12.9-1.2-23.7-9.2-34.5-15.7c-18.2-13.9-29.2-35.8-34.1-57.9c-0.3-10.8-1.2-21.6-0.9-32.4c0.7-2.9,1.7-5.8,2.2-8.8
		c12.6,0.7,24.8,4.6,37.6,3.1c1.7,0.5,3.5,0.5,5.1-0.1C79.6,104.3,87.4,102.1,95.5,102z"/>
</g>
<g id="_x23_6c3f0fff">
	<path class="st109" d="M225.4,98.9c0.1,0.3,0.4,0.9,0.5,1.2c4.7,17.7,3.8,36.9-1.1,54.5c-11.7,41.5-51.7,73.3-95,73.7
		c-40.5,2.4-80.1-21.9-97.3-58.4c-9.6-20.9-11.8-44.6-7.3-67.1c0.2-0.2,0.5-0.7,0.7-0.9c1.1-0.3,2.2-0.5,3.3-0.8l-0.1,0.9l-0.1,0.9
		c-0.5,3-1.5,5.9-2.2,8.8c-0.8,10.6-2.8,22.1,0.9,32.4c4.8,22.1,15.8,43.9,34.1,57.9c11.1,10.4,25.3,16.8,40,20.4
		c14.9,2.9,30.5,5.1,45.4,0.9c10.4-2.9,21.1-6,30.1-12.2c24.8-14.2,41.5-40.1,46.9-67.9c2.6-11.1,3.4-23.6-0.1-34.5
		c-0.3-0.9-0.7-1.8-1.1-2.7c-0.2-2-0.4-4-0.7-6C223.4,99.7,224.4,99.3,225.4,98.9z"/>
</g>
<g id="_x23_20190eff">
	<path class="st110" d="M163.4,102c0.3-0.3,1-0.9,1.3-1.2c2.3,0.7,4.7,1.2,7.1,1.8c2.3,1.6,5.2,0.7,7.8,0.8c5.5,1,11.1,1.7,16.6,2.5
		c-6.8-0.4-13.9,2.6-20.3-0.4c-6.8,2.2-14.1,2.3-21,0.6C159.2,106.6,164.1,107.3,163.4,102z"/>
</g>
<g id="_x23_9a5b16ff">
	<path class="st111" d="M11.4,112.6c1.4-2.2,0-9.8,2.9-10.2c-0.1,1.2-0.3,2.5-0.4,3.8c-4.5,17-1.2,34.8,2.4,51.6
		C10.2,145.7,10.7,127.1,11.4,112.6z"/>
</g>
<g id="_x23_744410ff">
	<path class="st112" d="M18.1,105.9c0.1-1.4,0.2-2.8,0.6-4.2c-0.1,2.8,0.2,5.4,3.3,3.3c-2.1,9.6-2,19.7-2.7,29.3
		c-5.3,3.1-5.1-5.1-1.7-7.3C15,120.1,16.4,112.4,18.1,105.9z"/>
</g>
<g id="_x23_543816ff">
	<path class="st113" d="M148.7,105.8c2.8-1.5,5.9-5.1,9.1-2.6c2,1.6,3.8-0.2,5.6-1.2c0.6,5.3-4.3,4.6-8.5,4
		C152.9,105.5,150.8,105.6,148.7,105.8z"/>
</g>
<g id="_x23_a06019ff">
	<path class="st114" d="M238,101.9c3.2,1.3,0.5,8.5,2,11.1l-0.9-0.2c-0.3-2.2-0.8-4.5-1.2-6.7C237.9,104.8,237.9,103.4,238,101.9z"
		/>
</g>
<g id="_x23_402508ff">
	<path class="st115" d="M224.1,108.8c3.5,10.9,2.7,23.4,0.1,34.5C225.4,131.8,224.9,120.3,224.1,108.8z"/>
</g>
<g id="_x23_3a2207ff">
	<path class="st116" d="M27.8,144.3c-3.7-10.3-1.7-21.8-0.9-32.4C26.5,122.7,27.5,133.5,27.8,144.3z"/>
</g>
<g id="_x23_2d0f01ff">
	<path class="st117" d="M108.6,113.2c23.5-4.2,46.6,3.7,65,18.3c3.3,4.3,2.4,10.4,4.9,15.2c4.3,8.8,6.9,19.1,4,28.8
		c-1.1,3.3,3.1,6.9,0.6,9.8c-8,8.2-10.8,19.7-17.1,29c3.9-0.3,7.5-2.1,11.2-3c-8.9,6.2-19.7,9.3-30.1,12.2c-3.2,0-6.9,0.6-6.5-3.3
		c4.1-3.2,9.2-6.3,14.3-3.3c5.4-3.4,9.1-10,10.4-16.3c4.3-2.6,3.7-8.8,8.4-10.7c7.6-4.8,4.6-15.5,8.2-22.7c1-5.6-4.2-5.4-8.1-3.8
		c-1.9-5.2,1-10.9-0.3-15.7c-4.7-4.8-0.1-13.6-6-16.9c-4.8,1-9.1-3.5-13.7-1.3c-2-1.2-4-2.5-5.8-4.1c1.3-2.4,0.7-6.1-2.4-6.6
		c-6.3,0.3-12.6-0.2-18.8,1.6c-3.8,0.9-3.5-3.8-5.2-6c-4.6-1-7.4,3.1-9.4,6.4c-4.8-0.4-8.3,2.7-11.5,5.6c-0.3,0.2-0.9,0.7-1.2,0.9
		c-7.2,0.2-19.4,0.6-18,11c0.3,4.8-0.8,9.4-1.7,14c-6.9,8.8-3.9,22.4-1.7,32.8c0.1,3.6-1.4,6.8-3,10c4.5,6.6,11.5,9.7,16.5,15.4
		c2.6,3,17.4,7.6,10,12.3c-14.6-3.6-28.9-10-40-20.4c10.8,6.5,21.6,14.5,34.5,15.7c-4.9-3.5-10.4-6.1-14.5-10.7
		c-7.4-3.6-11.3-13-5.9-20.1c-4.1-3.4-6.3-7.2-2.9-11.7c-2.4-6.5,0.2-14-3.8-20.2c7.5-9.2,8.8-21.7,14.9-32
		c5.3-2.4,11.5-1.4,17.1-2.8C102.6,117,102.7,110.9,108.6,113.2z"/>
</g>
<g id="_x23_512f0bff">
	<path class="st118" d="M239.1,112.9l0.9,0.2l0,0.9c0,8-0.1,16,0,24l0,1l-0.9,0.1C238.9,130.3,239,121.6,239.1,112.9z"/>
</g>
<g id="_x23_5e2304ff">
	<path class="st119" d="M112.4,120.4c2-3.3,4.8-7.4,9.4-6.4c1.6,2.2,1.4,6.9,5.2,6c6.2-1.8,12.5-1.3,18.8-1.6
		c3.1,0.5,3.7,4.2,2.4,6.6c-2.2-1.9-4.5-4.3-8-3.4c-13.3-2.1-27.3-2.3-39.2,4.4C104.1,123.1,107.6,120,112.4,120.4z"/>
</g>
<g id="_x23_b86c19ff">
	<path class="st120" d="M240,114c1,5.4,2.7,18.5,0,24C240,130,240,122,240,114z"/>
</g>
<g id="_x23_af500cff">
	<path class="st121" d="M100.9,126.1c12-6.7,25.9-6.4,39.2-4.4c3.4-0.9,5.8,1.5,8,3.4c1.7,1.6,3.7,2.9,5.8,4.1l-0.1,1
		c-2.7-1.3-5.2-2.7-7.6-4.4c-1.4-1.2-3.2-1.9-5-2.3c-6.6-1.9-13.6-1.5-20.4-1.4c-6.8,0.4-15.3,1.2-16.7,9.1
		c-2.4,0.3-3.4-1.4-4.1-3.4l-0.3-0.7C100,126.8,100.6,126.3,100.9,126.1z"/>
</g>
<g id="_x23_f58b19ff">
	<path class="st122" d="M104.1,131.1c1.4-7.9,9.9-8.7,16.7-9.1c1.6,4.4,7,5.2,8.3,9.9c1.3,4.9,6.5,2.1,10,2.6
		c1.2-5.2-7.8-2.9-6.9-6.1c3.9,0,5.5-4,8.9-5c1.8,0.4,3.5,1.1,5,2.3c-2.3-0.7-5.4-0.2-5.9,2.6c-1.1,10.7,16.5,13.8,12.7,25.3
		c0.9,5.4-5,7.5-9.1,9.3c-5.3-1,0.5-6,3.1-7.1c2.5-5.1-5.7-4.1-5.4-8.2c2.8-5.6-3.3-7.8-6.5-10.7c-2.9,0.9-3.8,5-6.9,5.1
		c-5.2-2.6-9.1-7.7-11.3-12.9C111.8,127.3,108.3,135.3,104.1,131.1z"/>
</g>
<g id="_x23_df7613ff">
	<path class="st123" d="M120.8,122c6.8-0.1,13.8-0.6,20.4,1.4c-3.4,1-5,5-8.9,5c-0.9,3.2,8.1,0.8,6.9,6.1c-3.6-0.5-8.7,2.4-10-2.6
		C127.8,127.2,122.4,126.4,120.8,122z"/>
</g>
<g id="_x23_faa227ff">
	<path class="st124" d="M140.3,128.4c0.5-2.9,3.6-3.3,5.9-2.6c2.4,1.7,5,3.2,7.6,4.4c3.3,2.6,6.5,5.4,9.3,8.6c0.8,2.5,2.3,4.7,3,7.2
		c-1.9,2.8-4.9,4.7-7.2,7.2c-1.9,2.7-4.6,7.3,0,8.9c2.5-1.7,4.8-4.4,8.1-4.2c1.4,3.7-1.5,5.7-3.1,8.3c10.9,4.5,6,16.5,4.4,25.1
		c-2.6,3.4-5.1,6.9-8.1,10c0.8-2.1,1.6-4.1,1.9-6.3c-3.6,0.7-7.2,6.1-5.2,9.6c-17,18.7-48.7,13.9-66-2.2c5.4,0.6,4.5-6.8,9.1-6.1
		c1.1,2.7,5.7-0.6,5.8,1.8c-3.4,9.6,12.2,5.8,14.9,13.3c5,7.6,14.1,1,21.1,2.4c2.1-4.7,4.8-9.6,10.5-10.4c5.1-2.1-2.9-6.7-5.1-3
		c-3.3,3.6-14.5,9.2-12.6-0.1c-5.3-1.6-5.4-7.1-2.9-11.3c-5.3,0.8-9.1-0.4-8-6.2c5.4,5.5,7.4-4.3,13.1-4.4c2.8,0.8,8.5,4.9,5.1-3.2
		c-2-4.6-7.7-6.1-9.6-10.7c5.9-3.9,8.7,7.4,14.4,7.9c4.5,0.1,4.6,8.8,9.3,5.8c1.6-0.9-0.2-3.6-0.1-5.1l-0.2-0.9
		c0.8,3.5,5.3,5.4,7.1,1.9c-1.8-3.6-4.4-11.2-9-6c-1.7-4.1-6.2-4.6-10.1-5.1c4.2-1.8,10-3.8,9.1-9.3
		C156.8,142.2,139.2,139,140.3,128.4 M164.4,178.3c-1.4,1.1-2.6,3.1-4.7,2.1c-3.6-1.5-4.6,4.1-3.8,6.7c-5.1,0.3-2.1-5.9-6.1-6.8
		c-3.1-1.2-6,1.6-7.8,3.7c2,0.2,4.7-2,6,0.2c1.3,4.1-4.4,3.4-6.7,5c-1.7,4.5,5.2,3.2,7.7,1.6c2.5-2.4,5.1,2.3,7.8,0.8
		c3.6-1.9,7.5-3.2,11.3-4.6C163.9,184.9,169.3,177.7,164.4,178.3z"/>
</g>
<g id="_x23_742c05ff">
	<path class="st125" d="M81.8,138c-1.4-10.4,10.8-10.7,18-11l0.3,0.7c-9.3,5.5-15.5,14.7-20,24.3C81,147.3,82,142.8,81.8,138z"/>
</g>
<g id="_x23_f38b1cff">
	<path class="st126" d="M80,152c4.5-9.6,10.7-18.8,20-24.3c0.7,2,1.7,3.7,4.1,3.4c-0.8,1.1-1.7,2.3-2.4,3.5
		c-2.3,3.4,2.1,6.2,2.9,9.3c-1.2,2.1-3.2,3.4-4.8,5.1c2.3,2.3,7,4.1,4.4,8.1c-3.1,7.6-12.9,3.6-17.2,9.9c-3.1,5.8-2.2,12.4-2.9,18.7
		c3.8,2.7,8.3,4.9,9.1,10c2.5,3.6-3.4,2.3-5.8,3.2l-0.8,0.1C76.9,185.6,76.1,167.7,80,152z"/>
</g>
<g id="_x23_843107ff">
	<path class="st127" d="M153.9,129.2c4.5-2.3,8.9,2.3,13.7,1.3c5.9,3.4,1.4,12.1,6,16.9c1.4,4.8-1.5,10.5,0.3,15.7l-0.8-0.4
		c-0.3-1-0.6-1.9-0.9-2.9c-0.5-7.6-1.6-17.2-9.1-21.2c-2.8-3.2-6-6-9.3-8.6L153.9,129.2z"/>
</g>
<g id="_x23_fcb93cff">
	<path class="st128" d="M104.1,131.1c4.2,4.2,7.7-3.8,12.7-2c2.3,5.3,6.2,10.3,11.3,12.9c3.1-0.1,4-4.2,6.9-5.1
		c3.2,2.9,9.2,5,6.5,10.7c-0.3,4.1,7.9,3.1,5.4,8.2c-2.6,1.1-8.4,6.1-3.1,7.1c3.8,0.5,8.4,1,10.1,5.1c0.5,1.4,1.1,2.8,1.9,4.1
		l0.2,0.9c-6.5-2.2-10.9-8.3-17.9-9.5c-0.5-3.5,4.9-5.2,2.8-9.3c-1.4-2.8-5.4,0.9-6.7-1.3c-1.5-5-8.1-4.4-11.2-8.2
		c-4.1,3.5-2.6,8.7,4,7.5c4.5,0.5-1.4,4.6-1,7.3c4.6-1.6,4.9,2.5,6.5,4.8c1.9,4.6,7.6,6.1,9.6,10.7c3.4,8.1-2.3,4-5.1,3.2
		c-5.7,0.1-7.7,9.9-13.1,4.4c1.5-2.4,5-2.2,6.9-4.5c3.8-2.1-0.6-7.1-3.4-4.1c-2.4,2-0.8-2.8-1.2-4.1c3.6-2.7,0.2-5.9-2.2-8.1
		c-3.4-0.3-3.8,4.2-6,6c-0.7,0.7-1.4,1.4-2.1,2c-2.5,1.4-5.1,0.3-7.4-0.8c-0.6-3-5.9-9,1.8-7.8c1.1-3.4,5-2.8,6.9-5.1
		c-3-2.8-7.2-3.8-11-5c-1.7,2.7,2.6,9.8-2.2,10.6c-3.7,0.1-6,4.3-4.1,7.5c2.5,5.6,2.2,13.7,7,17.4c6.5,1,3.6-7.5,9.2-7.9
		c2.2,4.7-1.6,7.6-3.1,11.3c4.5-0.9,9.5-2.4,10.9-7.4c-1,5.8,2.7,7,8,6.2c-2.5,4.3-2.4,9.7,2.9,11.3c-1.9,9.3,9.3,3.7,12.6,0.1
		c2.1-3.7,10.2,0.9,5.1,3c-5.7,0.8-8.4,5.6-10.5,10.4c-7.1-1.5-16.1,5.1-21.1-2.4c-2.7-7.5-18.3-3.7-14.9-13.3
		c-0.1-2.3-4.7,0.9-5.8-1.8c8.5-3.2-4.5-12.3-6.8-5c0,5,5.5,1.5,6.8,5c-4.6-0.8-3.7,6.7-9.1,6.1c-1.2-1-2.3-2.2-3.5-3.3
		c2.4-0.9,8.3,0.4,5.8-3.2c-0.8-5.1-5.3-7.3-9.1-10c0.7-6.3-0.2-12.9,2.9-18.7c4.3-6.3,14.1-2.3,17.2-9.9c2.6-4-2.2-5.8-4.4-8.1
		c1.6-1.7,3.6-3.1,4.8-5.1c2.7,4.3,10.9,8.4,13,1.5c6.4-3.8-3-11.6-6.5-6.3c-4.8,3.8-4-7.9-9.4-4.5
		C102.4,133.4,103.2,132.2,104.1,131.1 M92.2,169.1c-2.6,4.2-3.4,9.9,2.4,11.5c3.6,2.4,5.1-4.9,1.5-5.5
		C92.5,174.4,96.4,168.3,92.2,169.1 M123.3,191.3c-2.3,0.5-3.2,2.8-4.4,4.5c-2.1-2-5-2.3-7.3-0.4c-7-2.6-5.1,7.3-0.5,6.6
		c5.9-2.6,5.9,5.3,11,5.2c2.8-3.6-4.6-7-0.6-9.7c2.1-3.8,4.5-3.5,5.8,0.6C130.7,196,127.1,189.9,123.3,191.3 M127.4,204.4
		c-8.8,3.2,3.9,11.4,8.6,8.6C136.9,208.6,131.7,203,127.4,204.4z"/>
</g>
<g id="_x23_fcdb6dff">
	<path class="st129" d="M101.7,134.6c5.5-3.4,4.6,8.4,9.4,4.5c3.5-5.2,12.9,2.5,6.5,6.3c-2.1,6.8-10.3,2.8-13-1.5
		C103.7,140.8,99.4,138,101.7,134.6z"/>
</g>
<g id="_x23_dc6b13ff">
	<path class="st130" d="M163.1,138.7c7.5,4,8.6,13.6,9.1,21.2c1.8-6.8-5.7-9.2-8.1-3.8c-1.7,4.1-5.6,0-5.2-3
		c2.3-2.5,5.3-4.4,7.2-7.2C165.4,143.4,163.9,141.2,163.1,138.7z"/>
</g>
<g id="_x23_7b4810ff">
	<path class="st131" d="M231.2,139.2c2.5-1.1,2.6,0.5,2.2,2.5c1.7,8.3-1.8,15.6-5.2,22.5c-4.4,3-1.3,14.1-8.2,13.8
		c2.1-11.5,9.3-22.1,9.8-34.1C230.2,142.3,229.5,140.2,231.2,139.2z"/>
</g>
<g id="_x23_a36116ff">
	<path class="st132" d="M239.1,139.1l0.9-0.1c-0.9,6-0.4,14.6-4.4,19.1C236.8,151.8,238.8,145.6,239.1,139.1z"/>
</g>
<g id="_x23_f9cd9dff">
	<path class="st133" d="M241.7,152.7c0.5-3.7,0.9-7.4,2.1-11C243.2,144.2,244.7,152,241.7,152.7z"/>
</g>
<g id="_x23_794710ff">
	<path class="st134" d="M18.4,148.6c-3.1-4.1,0.5-4.6,2.6-5.6c4.1,8.2,2.1,23.2,11.5,27c0.3,3.8-5.8,6.9-6.7,2.2
		C26,163.7,17.8,157.4,18.4,148.6z"/>
</g>
<g id="_x23_fcda78ff">
	<path class="st135" d="M126.9,152.3c-6.5,1.2-8-4-4-7.5c3.1,3.8,9.7,3.2,11.2,8.2c1.3,2.2,5.3-1.5,6.7,1.3c2.1,4.1-3.3,5.8-2.8,9.3
		c7,1.2,11.4,7.3,17.9,9.5c-0.1,1.6,1.7,4.2,0.1,5.1c-4.7,3-4.8-5.7-9.3-5.8c-5.8-0.5-8.5-11.8-14.4-7.9c-1.6-2.4-1.9-6.5-6.5-4.8
		C125.5,156.9,131.4,152.8,126.9,152.3z"/>
</g>
<g id="_x23_fce07eff">
	<path class="st136" d="M106,151.2c3.8,1.2,8,2.2,11,5c-1.9,2.3-5.8,1.8-6.9,5.1c-7.7-1.2-2.3,4.8-1.8,7.8c-3.7,6.9-3.7-3.8-8.6,0.1
		c-2-3.2,0.4-7.4,4.1-7.5C108.6,161,104.3,153.9,106,151.2z"/>
</g>
<g id="_x23_833507ff">
	<path class="st137" d="M78.3,184.8c-2.2-10.3-5.2-24,1.7-32.8c-3.9,15.8-3.1,33.6,6.6,47.1c1,1.8,2.1,3.4,3.2,5.1
		C81.9,201,79.3,192.5,78.3,184.8z"/>
</g>
<g id="_x23_f18417ff">
	<path class="st138" d="M158.9,162.1c-4.5-1.6-1.9-6.2,0-8.9c-0.4,3,3.4,7.1,5.2,3c2.5-5.5,10-3.1,8.1,3.8c0.3,1,0.6,1.9,0.9,2.9
		c-0.1,5.8-0.8,11.6-1,17.5c0.4,4-0.8,7.7-2.8,11.1l-1.1-0.1c1.6-8.5,6.5-20.5-4.4-25.1c1.6-2.5,4.5-4.6,3.1-8.3
		C163.7,157.7,161.4,160.4,158.9,162.1z"/>
</g>
<g id="_x23_f9ce9eff">
	<path class="st139" d="M237.7,166.9c0.6-4.9,2.2-9.6,4-14.2C241.6,157.2,240.9,164.1,237.7,166.9z"/>
</g>
<g id="_x23_915614ff">
	<path class="st140" d="M16.3,157.7c0.9,2.1,1.6,4.2,2.1,6.4C15.9,163.5,15.8,159.9,16.3,157.7z"/>
</g>
<g id="_x23_9f5e16ff">
	<path class="st141" d="M233.9,163.7c-0.2-2,0.3-4,1.6-5.6C236.6,159.7,235.7,163.2,233.9,163.7z"/>
</g>
<g id="_x23_f9ca97ff">
	<path class="st142" d="M12.3,160.7c1.8,3.6,3.4,7.2,4,11.2C13.4,169.8,12.4,164.5,12.3,160.7z"/>
</g>
<g id="_x23_fcedaaff">
	<path class="st143" d="M117.9,167.9c2.2-1.8,2.6-6.3,6-6c2.3,2.2,5.8,5.4,2.2,8.1C122.2,172.7,114.4,175,117.9,167.9z"/>
</g>
<g id="_x23_541d03ff">
	<path class="st144" d="M173.9,163.1c3.8-1.6,9.1-1.8,8.1,3.8c-3.6,7.2-0.6,17.9-8.2,22.7c1.6-3.3,5.1-6.3,4.1-10.3
		c-1.6-0.6-4.1-0.2-4.3-2.5c0.2-1.2,0.3-2.4,0.5-3.7c0.5-3.2,4.9-7.7,0.1-9.3L173.9,163.1z"/>
</g>
<g id="_x23_bb5e0eff">
	<path class="st145" d="M173.2,162.8l0.8,0.4l0.2,0.7c0,3.1-0.1,6.2-0.1,9.3c-0.2,1.2-0.3,2.4-0.5,3.7c-0.5,1.1-1,2.2-1.5,3.4
		C172.4,174.4,173.1,168.6,173.2,162.8z"/>
</g>
<g id="_x23_8b5213ff">
	<path class="st146" d="M18.5,164.1c0.9,1.5,1.6,3.1,1.8,4.8C18.3,168.9,17.1,165.6,18.5,164.1z"/>
	<path class="st146" d="M176.9,227.6c0.9-1.2,2.3-1.8,3.8-1.7C181.1,227.6,178.1,228.7,176.9,227.6z"/>
	<path class="st146" d="M79.2,229.7c1.8,0.2,3.5,1,5,2C82.5,232.7,79.3,231.8,79.2,229.7z"/>
	<path class="st146" d="M155.8,235.7c4-1.4,8-2.8,12-4C165.9,234.6,159.7,236,155.8,235.7z"/>
</g>
<g id="_x23_823307ff">
	<path class="st147" d="M174.2,163.9c4.8,1.7,0.4,6.1-0.1,9.3C174.1,170.1,174.2,167,174.2,163.9z"/>
</g>
<g id="_x23_e77917ff">
	<path class="st148" d="M153.9,168c4.6-5.2,7.2,2.4,9,6c-1.8,3.5-6.3,1.6-7.1-1.9C155,170.8,154.4,169.5,153.9,168z"/>
</g>
<g id="_x23_fccd5cff">
	<path class="st149" d="M99.8,169.2c4.9-3.9,5,6.8,8.6-0.1c2.4,1.1,5,2.2,7.4,0.8c-2.2,1.9-2.6,6.8,1.3,5.2c3.9-3.1,6.2,2.1,7.8,5
		c1.8-0.9,3.7-4.3,5.7-1.8c-1.8,2.2-5.4,2.1-6.9,4.5c-1.4,4.9-6.4,6.5-10.9,7.4c1.5-3.7,5.3-6.6,3.1-11.3c-5.7,0.3-2.7,8.9-9.2,7.9
		C102,182.9,102.2,174.8,99.8,169.2z"/>
</g>
<g id="_x23_fbd881ff">
	<path class="st150" d="M115.8,169.9c0.7-0.7,1.4-1.4,2.1-2c-3.5,7.1,4.3,4.8,8.2,2.1c0.4,1.3-1.2,6.1,1.2,4.1
		c2.9-3,7.2,2.1,3.4,4.1c-1.9-2.5-3.8,0.9-5.7,1.8c-1.6-2.8-3.9-8-7.8-5C113.2,176.8,113.7,171.8,115.8,169.9z"/>
</g>
<g id="_x23_8d5313ff">
	<path class="st151" d="M20.3,168.9c1,1.5,1.7,3.1,2,4.9C20.2,173.8,19.3,170.5,20.3,168.9z"/>
	<path class="st151" d="M195.7,215.8c1.5-1.6,3.2-3,5-4.2C200.3,213.8,198.2,216.4,195.7,215.8z"/>
	<path class="st151" d="M84.2,231.7c1.8,0.2,3.4,1,4.9,1.9C87.5,234.8,84.2,233.8,84.2,231.7z"/>
</g>
<g id="_x23_fce287ff">
	<path class="st152" d="M92.2,169.1c4.2-0.7,0.3,5.3,3.8,5.9c3.7,0.7,2.2,7.9-1.5,5.5C88.8,179,89.5,173.3,92.2,169.1z"/>
</g>
<g id="_x23_854e12ff">
	<path class="st153" d="M229.7,172.9c0.1-1.5,0.7-2.9,1.8-4C232.6,170.2,231.5,173.1,229.7,172.9z"/>
</g>
<g id="_x23_8c5213ff">
	<path class="st154" d="M227.7,176.9c0.5-1.4,1.2-2.7,2-4C230.9,174.3,229.8,177.4,227.7,176.9z"/>
	<path class="st154" d="M146.7,237.7c2.9-0.9,6-1.7,9-2C155.4,238.7,148.9,237.1,146.7,237.7z"/>
</g>
<g id="_x23_895112ff">
	<path class="st155" d="M22.3,173.8c1.2,1.1,1.9,2.4,2,4C22.5,178,21.4,175.1,22.3,173.8z"/>
</g>
<g id="_x23_782b05ff">
	<path class="st156" d="M172.2,180.2c0.5-1.1,1-2.3,1.5-3.4c0.2,2.3,2.6,2,4.3,2.5c1,4-2.5,7-4.1,10.3c-4.7,1.9-4.2,8.1-8.4,10.7
		c-1.3,6.4-4.9,12.9-10.4,16.3c-5.1-3-10.2,0.2-14.3,3.3c-4.6,1.1-9.2-3.6-15-2.2c9.4-0.9,20.2-0.4,27.5-7.6
		c5.6-6,12.7-11.3,16.1-18.9C171.4,188,172.6,184.2,172.2,180.2z"/>
</g>
<g id="_x23_8e5314ff">
	<path class="st157" d="M225.9,180.7c0.3-1.4,1-2.7,1.8-3.9C228.9,178.2,227.9,181.4,225.9,180.7z"/>
</g>
<g id="_x23_8f5513ff">
	<path class="st158" d="M24.3,177.8c1.2,1,1.8,2.4,1.8,3.9C24.4,182,23.4,179,24.3,177.8z"/>
</g>
<g id="_x23_fcbb3dff">
	<path class="st159" d="M164.4,178.3c4.9-0.6-0.5,6.6,3.6,8.6c-3.8,1.5-7.7,2.7-11.3,4.6c-2.7,1.4-5.3-3.2-7.8-0.8
		c-2.4,1.6-9.4,3-7.7-1.6c2.4-1.6,8-0.9,6.7-5c-1.4-2.2-4,0-6-0.2c1.9-2.2,4.8-4.9,7.8-3.7c4,0.9,1,7.1,6.1,6.8
		c-0.7-2.6,0.2-8.2,3.8-6.7C161.7,181.5,162.9,179.4,164.4,178.3z"/>
</g>
<g id="_x23_824c11ff">
	<path class="st160" d="M33,182c0.7,0,2.2,0.1,2.9,0.1c6.6,11.1,16.2,19.9,25.9,28.2c0.5,3.1-2.9,3.3-2-0.2c-5.3,1.9-8-4.4-12.3-6.6
		c-1.8-4.1-6.6-6.3-7-11.1C37.7,189.3,31.8,187.1,33,182z"/>
</g>
<g id="_x23_7f4a11ff">
	<path class="st161" d="M213.3,184.2c6.8-1,3,8.2-1.8,8.3c-2.6,7.4-9.1,12.2-14.8,17.2c-2.3,1.2-3.4-0.2-2.5-2.5
		C201.2,200.1,209.2,193.5,213.3,184.2z"/>
</g>
<g id="_x23_3b1502ff">
	<path class="st162" d="M78.3,184.8c1,7.7,3.6,16.2,11.5,19.5c10.9,7.1,22.2,15.2,36,13.6c5.7-1.4,10.4,3.3,15,2.2
		c-0.4,4,3.3,3.4,6.5,3.3c-14.9,4.2-30.5,2-45.4-0.9c7.5-4.7-7.4-9.3-10-12.3c-5-5.7-12-8.9-16.5-15.4
		C76.9,191.6,78.4,188.4,78.3,184.8z"/>
</g>
<g id="_x23_fce68fff">
	<path class="st163" d="M93.2,191.2c2.3-7.3,15.3,1.9,6.8,5C98.8,192.7,93.2,196.2,93.2,191.2z"/>
</g>
<g id="_x23_fcdc7aff">
	<path class="st164" d="M123.3,191.3c3.8-1.4,7.5,4.7,4,6.7c-1.3-4.1-3.8-4.4-5.8-0.6c-4.1,2.7,3.3,6.1,0.6,9.7
		c-5.1,0.2-5.1-7.8-11-5.2c-4.6,0.7-6.5-9.2,0.5-6.6c2.3-1.9,5.2-1.6,7.3,0.4C120.1,194.1,121,191.8,123.3,191.3z"/>
</g>
<g id="_x23_c15c0fff">
	<path class="st165" d="M168.3,191.2l1.1,0.1c-3.4,7.6-10.5,12.9-16.1,18.9c-7.3,7.2-18.1,6.7-27.5,7.6c-13.8,1.6-25.1-6.5-36-13.6
		c-1.1-1.7-2.2-3.4-3.2-5.1l0.8-0.1c1.1,1.1,2.2,2.3,3.5,3.3c17.3,16.1,49,20.9,66,2.2c1.1-1.1,2.2-2.2,3.2-3.3
		C163.2,198.1,165.7,194.6,168.3,191.2z"/>
</g>
<g id="_x23_fcbf63ff">
	<path class="st166" d="M156.9,204.5c-2.1-3.5,1.6-8.9,5.2-9.6c-0.3,2.2-1.2,4.2-1.9,6.3C159.1,202.3,158,203.4,156.9,204.5z"/>
</g>
<g id="_x23_864f13ff">
	<path class="st167" d="M211.7,200.8c1.1-1.9,2.5-3.6,4.1-5.1C216.4,198.2,213.8,200.1,211.7,200.8z"/>
</g>
<g id="_x23_facb98ff">
	<path class="st168" d="M218.8,199.5c0.5-1.5,1.6-2.6,2.8-3.6C222.9,197.6,220.6,200.4,218.8,199.5z"/>
</g>
<g id="_x23_945714ff">
	<path class="st169" d="M39,199.9c4.5,3.5,8.2,7.9,12.2,11.9C46.3,209.6,40.9,205.1,39,199.9z"/>
</g>
<g id="_x23_fac283ff">
	<path class="st170" d="M33.9,201c6.4,4.9,11.7,11.1,17.1,17.1C44.7,213.6,37.6,207.9,33.9,201z"/>
</g>
<g id="_x23_a15f16ff">
	<path class="st171" d="M201.8,210.9c3.3-3.4,6.6-6.7,9.9-10.1C210.6,205.4,206.2,209.4,201.8,210.9z"/>
</g>
<g id="_x23_fac68cff">
	<path class="st172" d="M202,217c4.6-5.4,9.6-10.4,15.1-14.9C213.4,207.8,207.9,213.9,202,217z"/>
</g>
<g id="_x23_fddf73ff">
	<path class="st173" d="M127.4,204.4c4.3-1.4,9.6,4.2,8.6,8.6C131.3,215.7,118.6,207.5,127.4,204.4z"/>
</g>
<g id="_x23_8e5413ff">
	<path class="st174" d="M52.2,212.6c1.9,1.1,3.5,2.6,5,4.2C54.8,217.3,52.7,214.8,52.2,212.6z"/>
</g>
<g id="_x23_7d4910ff">
	<path class="st175" d="M185.3,214.4c6.6-1.5,0,8.3-4.3,5c-5,3.5-11.2,9-17.7,8c-7.5,6-16.8,6.9-26.1,6.5c-2.4-1.4-0.1-2.9,1.7-3
		C155.4,228.9,170.6,221.8,185.3,214.4z"/>
</g>
<g id="_x23_804a11ff">
	<path class="st176" d="M68,216c18.7,8.7,38.8,15.9,60,16.2c1.2,8.9-11.3,0.9-16.9,2.8c-3.6-4.1-9.1-1.8-13.9-3
		c-6.8-3.8-17.2-4.7-24.6-10.4C70.2,220.6,67.1,219.1,68,216z"/>
</g>
<g id="_x23_fbcd99ff">
	<path class="st177" d="M195.7,221.8c1.5-1.6,3.2-3.1,5.2-4C199.9,219.8,198.3,222.4,195.7,221.8z"/>
</g>
<g id="_x23_fbcb95ff">
	<path class="st178" d="M52.3,218.9c1.6,0.2,2.8,1.4,3.7,2.7C54.5,222.8,51.7,220.7,52.3,218.9z"/>
</g>
<g id="_x23_a66216ff">
	<path class="st179" d="M61,219.9c2.3,1,4.4,2.3,6.4,3.8C64.7,224.2,62,222.3,61,219.9z"/>
</g>
<g id="_x23_945814ff">
	<path class="st180" d="M71.3,225.9c1.4,0.3,2.7,1,3.9,1.8C73.8,228.9,70.6,227.9,71.3,225.9z"/>
</g>
<g id="_x23_fbca94ff">
	<path class="st181" d="M182.9,229.9c2.1-1.8,4.6-2.9,7.1-4C189.2,228.7,185.2,229,182.9,229.9z"/>
	<path class="st181" d="M86.3,237.6c2.4,0.3,4.8,0.9,7,1.9l-1.1,0.2C90.5,239.9,85.9,239.8,86.3,237.6z"/>
</g>
<g id="_x23_955914ff">
	<path class="st182" d="M75.2,227.7c1.4,0.5,2.7,1.2,4,2C77.7,230.9,74.6,229.8,75.2,227.7z"/>
</g>
<g id="_x23_895113ff">
	<path class="st183" d="M167.7,231.7c3-1.5,6.1-2.8,9.2-4.1C175.8,230.4,170.9,232,167.7,231.7z"/>
</g>
<g id="_x23_fbc588ff">
	<path class="st184" d="M169.8,235.9c2.8-1.9,5.9-3.4,9.3-3.9C177.1,234.7,173.1,235.7,169.8,235.9z"/>
</g>
<g id="_x23_fccd98ff">
	<path class="st185" d="M76.1,233.7c3.7,0.5,7.1,1.9,10.2,3.9C82.9,237.9,78,236.2,76.1,233.7z"/>
</g>
<g id="_x23_834d12ff">
	<path class="st186" d="M90.1,233.9c2,0.1,3.9,0.8,5.8,1.6C94.1,236.9,90.6,236.1,90.1,233.9z"/>
</g>
<g id="_x23_885012ff">
	<path class="st187" d="M95.9,235.6c3.2,0.5,6.3,1.2,9.4,2.2C102.6,237.2,97.1,238.7,95.9,235.6z"/>
</g>
<g id="_x23_7a4810ff">
	<path class="st188" d="M105.3,237.7c13.7,2.3,27.6,1.1,41.4,0c1.3,3-5.8,1.5-7.7,2.2c-8.7,0-17.4,0-26.1,0
		C111,239.2,104.1,240.8,105.3,237.7z"/>
</g>
<g id="_x23_fcd1a1ff">
	<path class="st189" d="M158.7,239.6c2.4-0.8,4.8-1.5,7.2-1.8C165.1,240.1,161,240,158.7,239.6z"/>
</g>
<g id="_x23_fcd0a0ff">
	<path class="st190" d="M92.2,239.7l1.1-0.2c2.4,0.3,4.8,0.9,7,2.1C97.9,242,92.6,242.3,92.2,239.7z"/>
</g>
<g id="_x23_cd791cff">
	<path class="st191" d="M113,240c8.7,0,17.4,0,26.1,0C132.9,241.4,119.1,242.2,113,240z"/>
</g>
<g id="_x23_fad0a2ff">
	<path class="st192" d="M100.3,241.7c16.7,3.3,33.7,2.8,50.3,0l0.3,1c-15.6,2.9-31.7,3.6-47.3,0.8
		C102.7,242.8,99.2,243.6,100.3,241.7z"/>
</g>
</svg>
