<?xml version="1.0" encoding="utf-8"?>
<!-- Generator: Adobe Illustrator 26.0.3, SVG Export Plug-In . SVG Version: 6.00 Build 0)  -->
<svg version="1.1" id="Layer_1" xmlns="http://www.w3.org/2000/svg" xmlns:xlink="http://www.w3.org/1999/xlink" x="0px" y="0px"
	 viewBox="0 0 250 229" style="enable-background:new 0 0 250 229;" xml:space="preserve">
<style type="text/css">
	.st0{fill:#01A0E8;}
	.st1{fill:#A2D9F6;}
</style>
<g id="_x23_01a0e8ff">
	<path class="st0" d="M67.8,28.9c4.6-9.9,19.8-11.8,26.8-3.6c4.7,4.3,5.3,11,6.7,16.8c1.7,10.5,5.7,20.4,10.6,29.7
		c2.9,6.2,6.6,13.9,14,15.3c7.6,0.9,13.2-5.3,18.4-9.8c8.3-6.9,14.4-15.8,20.2-24.8c3.9-6.1,8.6-13.4,16.5-14.3
		c9.2-1.6,18.8,6.4,18.6,15.8c0.5,5.6-3.2,10.2-6.7,14c-0.5,0.2-1.4,0.8-1.9,1c-6.1,2.3-12.4,4-18.7,5.5
		c-11.7,2.8-23.1,7.7-32.5,15.4c-3,2.3-5.8,4.9-9.2,6.7c-4.2,2-9.6,0.9-12.7-2.5c-4.1-4.4-6.5-10.1-10.5-14.5
		c-5.1-5.6-9.6-11.7-15.9-16c-6.1-4.2-12.7-7.8-18.1-13c-3-2.9-5.9-6.3-6.8-10.6C66.1,36.2,67,32.5,67.8,28.9z"/>
	<path class="st0" d="M122.7,28.9c5.1-2.3,11.6-2.1,16.3,1.1c3.1,2,6.4,4.9,6.6,8.9c0.1,3.9,0.8,8.5-1.9,11.7
		c-1.8,2.4-3.6,5.1-6.1,6.7c-7,2.9-16.2,1.1-20.5-5.5C111.7,44.5,114.6,33,122.7,28.9z"/>
	<path class="st0" d="M202.8,96.6c4.4-2.1,9.3-3.7,14.2-3.2c6.8,0.2,13.2,5.2,14.8,11.8c1.4,4.6-0.1,9.4-1.9,13.8
		c-4.9,7-14.8,8.1-22.4,5.4c-13.3-4.9-27.2-9.4-41.6-8.9c-5.1,0.1-11.3-0.7-15.1,3.4c-2.8,2.5-3.2,6.6-3.2,10.2
		c0.6,6.8,1.4,13.6,3,20.2c1.9,9.3,7.2,17.4,10.9,26.1c1.6,3.7,2.3,7.7,2.1,11.8c0.1,5.4-3.9,9.8-8,12.6c-7.6,4.1-18.8,1.4-22.5-6.9
		c-3.8-8.2-0.3-17.3,2.2-25.4c4.3-11.6,5.7-24.1,5-36.4c-0.2-4.2-1.2-8.3-0.7-12.5c0.8-5.4,6-9.4,11.3-9.8
		c7.4-0.4,14.9-0.6,22.2-1.8C183.6,105.3,193.2,100.7,202.8,96.6z"/>
	<path class="st0" d="M33.3,96.3c6.3-0.7,12.3,2,18,4.3c6.8,3.1,13.8,6.1,21.1,7.7c5.8,1.5,11.9,1.2,17.8,2
		c6.2,0.4,13.5-0.9,18.2,4.2c5,6.5,1.8,15.1,2.2,22.6c0.8,8.6,1,17.3,3.7,25.6c2.6,8.9,7.3,17.6,6.2,27.1c-0.4,5.9-5,10.8-10.4,12.7
		c-6,2.4-13,0.1-17.6-4c-5.1-5.2-5.1-13.6-2.3-19.9c3.1-7,6.3-13.9,8.8-21.1c3.8-9.6,5-20,4.4-30.3c-0.2-5.5-5.4-9.7-10.7-9.7
		c-7.8-0.3-15.8-0.3-23.5,1.2c-9.4,1.8-18.3,5.4-27.3,8.5c-5.3,1.9-11.7,1.8-16.4-1.7c-6.1-4.1-8.8-12.6-5.7-19.4
		C22.2,100.5,27.7,97.1,33.3,96.3z"/>
	<path class="st0" d="M162.5,131.5c2.2-2.7,5.1-5.2,8.6-6.2c5.5,0.3,11.9-0.8,16.3,3.3c6.4,6,5.6,17.3-0.4,23.3
		c-3.2,3.6-8.5,3.9-13,3.4c-5.4-0.4-10.1-4.2-12.5-9C159.4,141.6,160.7,136.2,162.5,131.5z"/>
	<path class="st0" d="M64.3,132.1c10.2-3.4,23,5.9,21.1,17c-0.2,6.1-5.6,9.8-10,13.1c-9.8,4.9-22.8-4.4-22.1-15.2
		C52.9,140.3,57.9,133.9,64.3,132.1z"/>
</g>
<g id="_x23_a2d9f6ff">
	<path class="st1" d="M61.7,37.7c2.6-2.5,4.3-5.7,6.2-8.8c-0.9,3.6-1.8,7.3-1.2,11.1c0.8,4.2,3.7,7.7,6.8,10.6
		c5.4,5.2,12,8.8,18.1,13c6.3,4.3,10.8,10.5,15.9,16c4,4.5,6.4,10.2,10.5,14.5c3.1,3.4,8.5,4.5,12.7,2.5c3.4-1.7,6.2-4.3,9.2-6.7
		c9.4-7.6,20.8-12.5,32.5-15.4c6.3-1.4,12.6-3.1,18.7-5.5c-1.4,1.3-3.1,2.4-5,3c-8.6,3-17.8,4.1-26.3,7.6c-9,3.7-17.5,8.8-24.3,15.9
		c-2.9,3-6.2,6.2-10.6,6.1c-4.4,0.4-8.4-2.2-11.2-5.4c-6.7-7.1-13.6-14.1-22.2-18.8c-8-5-17.3-7.8-25.4-12.6
		c-6.1-3.7-10.9-10.9-9.4-18.3C57.2,43.1,59.1,40.1,61.7,37.7z"/>
	<path class="st1" d="M165,37c5-4.1,12.5-5.4,18.2-2.1c5.6,3.1,12.5,5.1,15.8,11.1c3.9,7.3,2.3,18.5-5.9,22.1
		c3.5-3.9,7.3-8.4,6.7-14c0.1-9.4-9.4-17.4-18.6-15.8c-7.9,0.9-12.6,8.2-16.5,14.3c-5.8,9-11.9,17.9-20.2,24.8
		c-5.3,4.5-10.8,10.7-18.4,9.8c-7.5-1.4-11.1-9.1-14-15.3c4.4,4,6,10.7,11.6,13.4c4.9,2.4,10.3-0.4,14.1-3.6
		c8.2-7,12.7-17.1,17.2-26.7C157.8,48.8,159.7,41.7,165,37z"/>
	<path class="st1" d="M42.3,80.4c5-1.2,10.3,0,14.7,2.4c6.6,3.4,12.2,8.6,18.5,12.5c9.2,6.1,19.7,10.1,30.5,12.4
		c3.7,0.9,7.8,1.7,10.5,4.6c2.8,3.1,3.3,7.6,2.3,11.5c-1.9,7.9-4.4,15.7-5.4,23.9c-1.3,14.7,9.7,27.4,8.2,42.1
		c-0.7,9.9-12.1,16.8-21.3,13.8c-4.1-1.4-8.2-3-11.9-5.2c-6.1-3.9-8.4-12.3-5.9-19c3.9-10.9,15-17.8,17.8-29.2
		c1.4-6,2.2-12.2,2.7-18.4c0.4-4.9-1.3-10.8-6.3-12.7c-5.3-1.9-11.2-1.1-16.7-1c-12.6,0.5-24.5,5.2-36.2,9.4
		c-6.7,2.4-15.1,2.3-20.5-2.9c-7.6-6.5-7.4-20,0.7-25.9c2.4-1.9,6.5-2.4,6.9-6C31.9,87,36.2,81.5,42.3,80.4 M33.3,96.3
		c-5.6,0.8-11.2,4.2-13.4,9.7c-3.1,6.8-0.4,15.3,5.7,19.4c4.7,3.5,11,3.7,16.4,1.7c9-3.1,17.9-6.7,27.3-8.5
		c7.7-1.6,15.7-1.5,23.5-1.2c5.3,0,10.5,4.2,10.7,9.7c0.6,10.2-0.7,20.7-4.4,30.3c-2.5,7.2-5.7,14.1-8.8,21.1
		c-2.8,6.4-2.8,14.7,2.3,19.9c4.7,4.1,11.6,6.4,17.6,4c5.4-2,9.9-6.8,10.4-12.7c1-9.5-3.6-18.2-6.2-27.1c-2.7-8.2-2.9-17-3.7-25.6
		c-0.4-7.5,2.8-16-2.2-22.6c-4.7-5.1-12.1-3.8-18.2-4.2c-5.9-0.8-12-0.5-17.8-2c-7.3-1.6-14.3-4.6-21.1-7.7
		C45.6,98.3,39.6,95.6,33.3,96.3z"/>
	<path class="st1" d="M198.4,81.3c5.6-2.1,12.4-1.6,17.1,2.3c3.1,2.4,4,6.5,6.8,9.2c3.2,2.4,7.2,4.1,9,7.9c3,5.5,3.6,13.7-1.3,18.3
		c1.8-4.3,3.2-9.1,1.9-13.8c-1.6-6.7-8-11.6-14.8-11.8c-5-0.4-9.8,1.1-14.2,3.2c-9.6,4.2-19.2,8.7-29.6,10.3
		c-7.4,1.1-14.8,1.3-22.2,1.8c-5.3,0.3-10.4,4.4-11.3,9.8c-0.5,4.2,0.5,8.4,0.7,12.5c0.7,12.3-0.7,24.8-5,36.4
		c-2.4,8.1-6,17.1-2.2,25.4c3.7,8.3,14.8,11,22.5,6.9c4.2-2.8,8.2-7.2,8-12.6c0.2-4-0.5-8.1-2.1-11.8c-3.7-8.7-8.9-16.8-10.9-26.1
		c2.7,3.6,3.3,8.3,6.2,11.9c4.5,7.3,12.2,13,13.4,21.9c1.4,8.2-4.4,17.3-12.8,18.4c-5.5,0.9-11.4,2.2-16.8-0.1
		c-7.9-2.9-11.9-12.3-10.4-20.2c1.7-8.7,5.3-16.8,7.4-25.4c2-8.5-0.8-17.1-3.1-25.2c-1-3.9-2.8-7.9-2.1-12c1-3.7,3.6-7.2,7.4-8.5
		c6.5-2.5,13.5-3.3,20-5.9c6.8-2.3,13-6.2,19-10.1C185.3,89.6,191.1,84.2,198.4,81.3z"/>
	<path class="st1" d="M170.1,124.9c3.8-1.9,8.2-1.1,12.2-0.2c9.5,2.3,15.5,14.4,10.6,23.2c-5.2,10.4-20.9,12.4-28.8,4
		c-5.5-4.9-7.8-15.1-1.6-20.4c-1.8,4.7-3.1,10.1-1,14.9c2.3,4.8,7.1,8.6,12.5,9c4.5,0.4,9.8,0.2,13-3.4c6-6,6.8-17.4,0.4-23.3
		c-4.4-4.1-10.8-3-16.3-3.3L170.1,124.9z"/>
</g>
</svg>
