<?xml version="1.0" encoding="UTF-8" ?>
<!DOCTYPE svg PUBLIC "-//W3C//DTD SVG 1.1//EN" "http://www.w3.org/Graphics/SVG/1.1/DTD/svg11.dtd">
<svg width="250pt" height="229pt" viewBox="0 0 250 229" version="1.1" xmlns="http://www.w3.org/2000/svg">
<g id="#ffffffff">
<path fill="#ffffff" opacity="1.00" d=" M 0.00 0.00 L 250.00 0.00 L 250.00 229.00 L 0.00 229.00 L 0.00 0.00 M 67.85 28.89 C 66.02 31.97 64.33 35.21 61.69 37.70 C 59.14 40.08 57.15 43.11 56.60 46.61 C 55.13 53.98 59.90 61.23 66.04 64.92 C 74.19 69.76 83.40 72.50 91.45 77.52 C 100.09 82.20 107.03 89.24 113.70 96.32 C 116.56 99.47 120.49 102.06 124.93 101.70 C 129.37 101.81 132.71 98.53 135.57 95.57 C 142.34 88.54 150.87 83.44 159.83 79.70 C 168.30 76.19 177.52 75.12 186.15 72.10 C 188.03 71.52 189.67 70.40 191.11 69.08 C 191.59 68.83 192.56 68.33 193.04 68.08 C 201.19 64.54 202.80 53.27 198.91 46.01 C 195.66 40.01 188.74 37.99 183.16 34.86 C 177.43 31.56 169.92 32.84 164.96 36.97 C 159.66 41.65 157.83 48.78 154.92 54.96 C 150.41 64.54 145.89 74.65 137.68 81.68 C 133.89 84.84 128.51 87.71 123.62 85.28 C 117.94 82.59 116.37 75.92 111.99 71.89 C 107.09 62.55 103.10 52.61 101.37 42.16 C 99.94 36.32 99.35 29.65 94.68 25.32 C 87.64 17.11 72.44 19.00 67.85 28.89 M 122.69 28.87 C 114.55 32.99 111.66 44.49 117.08 51.87 C 121.37 58.46 130.56 60.33 137.57 57.40 C 140.12 55.73 141.87 53.08 143.67 50.67 C 146.40 47.40 145.73 42.87 145.60 38.93 C 145.41 34.90 142.15 32.04 139.00 30.01 C 134.27 26.77 127.84 26.60 122.69 28.87 M 42.34 80.40 C 36.20 81.51 31.86 87.00 30.79 92.94 C 30.38 96.55 26.29 97.07 23.89 98.95 C 15.75 104.85 15.62 118.38 23.17 124.85 C 28.56 130.07 37.00 130.15 43.71 127.74 C 55.48 123.58 67.32 118.80 79.96 118.33 C 85.51 118.26 91.32 117.39 96.66 119.32 C 101.69 121.18 103.38 127.13 102.99 132.01 C 102.54 138.18 101.69 144.35 100.33 150.39 C 97.51 161.81 86.47 168.67 82.54 179.56 C 80.08 186.25 82.33 194.60 88.44 198.53 C 92.17 200.76 96.26 202.33 100.37 203.71 C 109.59 206.76 121.03 199.85 121.71 189.94 C 123.25 175.18 112.24 162.52 113.52 147.80 C 114.48 139.68 117.06 131.87 118.93 123.94 C 119.91 120.02 119.43 115.48 116.59 112.42 C 113.88 109.50 109.76 108.77 106.09 107.82 C 95.32 105.44 84.84 101.45 75.60 95.39 C 69.29 91.40 63.73 86.28 57.08 82.85 C 52.63 80.40 47.36 79.18 42.34 80.40 M 198.37 81.31 C 191.13 84.23 185.32 89.60 178.91 93.89 C 172.87 97.77 166.73 101.65 159.89 103.98 C 153.39 106.56 146.37 107.41 139.85 109.88 C 136.13 111.20 133.49 114.68 132.49 118.41 C 131.82 122.52 133.58 126.50 134.59 130.41 C 136.85 138.55 139.71 147.14 137.68 155.64 C 135.63 164.21 131.98 172.35 130.32 181.03 C 128.75 189.01 132.81 198.33 140.68 201.28 C 146.02 203.62 151.96 202.34 157.46 201.41 C 165.87 200.24 171.72 191.16 170.27 182.98 C 169.07 174.07 161.39 168.33 156.91 161.07 C 154.06 157.53 153.37 152.83 150.71 149.20 C 149.13 142.57 148.32 135.79 147.70 129.02 C 147.67 125.47 148.04 121.38 150.87 118.87 C 154.70 114.75 160.91 115.59 166.00 115.44 C 180.38 114.89 194.28 119.36 207.60 124.31 C 215.20 127.08 225.02 125.96 229.97 118.95 C 234.91 114.37 234.32 106.17 231.28 100.66 C 229.48 96.83 225.44 95.14 222.25 92.73 C 219.49 90.07 218.55 85.95 215.45 83.57 C 210.75 79.68 203.93 79.20 198.37 81.31 M 170.06 124.90 L 171.05 125.35 C 167.58 126.36 164.73 128.80 162.48 131.54 C 156.29 136.84 158.56 146.96 164.09 151.91 C 172.02 160.25 187.63 158.25 192.88 147.90 C 197.81 139.10 191.81 127.05 182.28 124.71 C 178.30 123.76 173.88 122.96 170.06 124.90 M 64.28 132.09 C 57.90 133.86 52.91 140.30 53.34 147.00 C 52.57 157.84 65.58 167.11 75.41 162.20 C 79.84 158.90 85.24 155.20 85.41 149.06 C 87.23 137.96 74.52 128.68 64.28 132.09 Z" />
</g>
<g id="#01a0e8ff">
<path fill="#01a0e8" opacity="1.00" d=" M 67.85 28.89 C 72.44 19.00 87.64 17.11 94.68 25.32 C 99.35 29.65 99.94 36.32 101.37 42.16 C 103.10 52.61 107.09 62.55 111.99 71.89 C 114.89 78.09 118.56 85.79 126.01 87.16 C 133.64 88.07 139.16 81.87 144.44 77.40 C 152.72 70.53 158.86 61.59 164.61 52.60 C 168.51 46.45 173.23 39.21 181.13 38.27 C 190.37 36.70 199.88 44.65 199.76 54.06 C 200.30 59.65 196.55 64.22 193.04 68.08 C 192.56 68.33 191.59 68.83 191.11 69.08 C 185.04 71.41 178.76 73.12 172.42 74.54 C 160.70 77.38 149.32 82.28 139.91 89.91 C 136.91 92.22 134.11 94.86 130.70 96.57 C 126.52 98.55 121.09 97.46 117.97 94.05 C 113.83 89.69 111.47 83.99 107.45 79.53 C 102.39 73.97 97.83 67.79 91.56 63.51 C 85.44 59.31 78.85 55.70 73.46 50.53 C 70.41 47.63 67.52 44.18 66.67 39.95 C 66.10 36.23 66.97 32.49 67.85 28.89 Z" />
<path fill="#01a0e8" opacity="1.00" d=" M 122.69 28.87 C 127.84 26.60 134.27 26.77 139.00 30.01 C 142.15 32.04 145.41 34.90 145.60 38.93 C 145.73 42.87 146.40 47.40 143.67 50.67 C 141.87 53.08 140.12 55.73 137.57 57.40 C 130.56 60.33 121.37 58.46 117.08 51.87 C 111.66 44.49 114.55 32.99 122.69 28.87 Z" />
<path fill="#01a0e8" opacity="1.00" d=" M 202.81 96.58 C 207.25 94.47 212.08 92.92 217.05 93.36 C 223.86 93.56 230.23 98.54 231.84 105.19 C 233.20 109.83 231.72 114.63 229.97 118.95 C 225.02 125.96 215.20 127.08 207.60 124.31 C 194.28 119.36 180.38 114.89 166.00 115.44 C 160.91 115.59 154.70 114.75 150.87 118.87 C 148.04 121.38 147.67 125.47 147.70 129.02 C 148.32 135.79 149.13 142.57 150.71 149.20 C 152.63 158.52 157.93 166.60 161.58 175.27 C 163.17 178.97 163.89 183.01 163.69 187.02 C 163.82 192.39 159.84 196.79 155.65 199.60 C 148.00 203.68 136.82 200.98 133.16 192.72 C 129.37 184.50 132.90 175.44 135.34 167.37 C 139.67 155.79 141.05 143.27 140.38 130.98 C 140.19 126.80 139.19 122.64 139.69 118.45 C 140.54 113.07 145.65 109.02 150.97 108.68 C 158.39 108.27 165.85 108.04 173.22 106.93 C 183.63 105.30 193.23 100.73 202.81 96.58 Z" />
<path fill="#01a0e8" opacity="1.00" d=" M 33.34 96.29 C 39.64 95.63 45.63 98.32 51.36 100.58 C 58.19 103.66 65.12 106.67 72.47 108.30 C 78.29 109.85 84.36 109.52 90.30 110.31 C 96.48 110.70 103.84 109.37 108.54 114.46 C 113.56 120.99 110.37 129.56 110.74 137.02 C 111.54 145.59 111.70 154.34 114.40 162.59 C 117.03 171.44 121.67 180.14 120.63 189.64 C 120.19 195.52 115.63 200.39 110.26 202.37 C 104.26 204.72 97.30 202.48 92.65 198.35 C 87.54 193.13 87.60 184.79 90.38 178.42 C 93.46 171.45 96.72 164.55 99.19 157.33 C 102.96 147.75 104.21 137.29 103.62 127.05 C 103.44 121.54 98.24 117.38 92.93 117.36 C 85.09 117.09 77.14 117.02 69.42 118.59 C 60.00 120.34 51.10 124.00 42.07 127.07 C 36.72 128.99 30.36 128.85 25.69 125.34 C 19.56 121.25 16.89 112.70 19.98 105.94 C 22.18 100.53 27.69 97.06 33.34 96.29 Z" />
<path fill="#01a0e8" opacity="1.00" d=" M 162.48 131.54 C 164.73 128.80 167.58 126.36 171.05 125.35 C 176.53 125.67 182.96 124.55 187.37 128.63 C 193.75 134.61 192.96 145.94 186.99 151.97 C 183.76 155.60 178.48 155.86 173.97 155.41 C 168.57 154.98 163.84 151.19 161.51 146.42 C 159.36 141.62 160.67 136.21 162.48 131.54 Z" />
<path fill="#01a0e8" opacity="1.00" d=" M 64.28 132.09 C 74.52 128.68 87.23 137.96 85.41 149.06 C 85.24 155.20 79.84 158.90 75.41 162.20 C 65.58 167.11 52.57 157.84 53.34 147.00 C 52.91 140.30 57.90 133.86 64.28 132.09 Z" />
</g>
<g id="#a2d9f6ff">
<path fill="#a2d9f6" opacity="1.00" d=" M 61.69 37.70 C 64.33 35.21 66.02 31.97 67.85 28.89 C 66.97 32.49 66.10 36.23 66.67 39.95 C 67.52 44.18 70.41 47.63 73.46 50.53 C 78.85 55.70 85.44 59.31 91.56 63.51 C 97.83 67.79 102.39 73.97 107.45 79.53 C 111.47 83.99 113.83 89.69 117.97 94.05 C 121.09 97.46 126.52 98.55 130.70 96.57 C 134.11 94.86 136.91 92.22 139.91 89.91 C 149.32 82.28 160.70 77.38 172.42 74.54 C 178.76 73.12 185.04 71.41 191.11 69.08 C 189.67 70.40 188.03 71.52 186.15 72.10 C 177.52 75.12 168.30 76.19 159.83 79.70 C 150.87 83.44 142.34 88.54 135.57 95.57 C 132.71 98.53 129.37 101.81 124.93 101.70 C 120.49 102.06 116.56 99.47 113.70 96.32 C 107.03 89.24 100.09 82.20 91.45 77.52 C 83.40 72.50 74.19 69.76 66.04 64.92 C 59.90 61.23 55.13 53.98 56.60 46.61 C 57.15 43.11 59.14 40.08 61.69 37.70 Z" />
<path fill="#a2d9f6" opacity="1.00" d=" M 164.96 36.97 C 169.92 32.84 177.43 31.56 183.16 34.86 C 188.74 37.99 195.66 40.01 198.91 46.01 C 202.80 53.27 201.19 64.54 193.04 68.08 C 196.55 64.22 200.30 59.65 199.76 54.06 C 199.88 44.65 190.37 36.70 181.13 38.27 C 173.23 39.21 168.51 46.45 164.61 52.60 C 158.86 61.59 152.72 70.53 144.44 77.40 C 139.16 81.87 133.64 88.07 126.01 87.16 C 118.56 85.79 114.89 78.09 111.99 71.89 C 116.37 75.92 117.94 82.59 123.62 85.28 C 128.51 87.71 133.89 84.84 137.68 81.68 C 145.89 74.65 150.41 64.54 154.92 54.96 C 157.83 48.78 159.66 41.65 164.96 36.97 Z" />
<path fill="#a2d9f6" opacity="1.00" d=" M 42.34 80.40 C 47.36 79.18 52.63 80.40 57.08 82.85 C 63.73 86.28 69.29 91.40 75.60 95.39 C 84.84 101.45 95.32 105.44 106.09 107.82 C 109.76 108.77 113.88 109.50 116.59 112.42 C 119.43 115.48 119.91 120.02 118.93 123.94 C 117.06 131.87 114.48 139.68 113.52 147.80 C 112.24 162.52 123.25 175.18 121.71 189.94 C 121.03 199.85 109.59 206.76 100.37 203.71 C 96.26 202.33 92.17 200.76 88.44 198.53 C 82.33 194.60 80.08 186.25 82.54 179.56 C 86.47 168.67 97.51 161.81 100.33 150.39 C 101.69 144.35 102.54 138.18 102.99 132.01 C 103.38 127.13 101.69 121.18 96.66 119.32 C 91.32 117.39 85.51 118.26 79.96 118.33 C 67.32 118.80 55.48 123.58 43.71 127.74 C 37.00 130.15 28.56 130.07 23.17 124.85 C 15.62 118.38 15.75 104.85 23.89 98.95 C 26.29 97.07 30.38 96.55 30.79 92.94 C 31.86 87.00 36.20 81.51 42.34 80.40 M 33.34 96.29 C 27.69 97.06 22.18 100.53 19.98 105.94 C 16.89 112.70 19.56 121.25 25.69 125.34 C 30.36 128.85 36.72 128.99 42.07 127.07 C 51.10 124.00 60.00 120.34 69.42 118.59 C 77.14 117.02 85.09 117.09 92.93 117.36 C 98.24 117.38 103.44 121.54 103.62 127.05 C 104.21 137.29 102.96 147.75 99.19 157.33 C 96.72 164.55 93.46 171.45 90.38 178.42 C 87.60 184.79 87.54 193.13 92.65 198.35 C 97.30 202.48 104.26 204.72 110.26 202.37 C 115.63 200.39 120.19 195.52 120.63 189.64 C 121.67 180.14 117.03 171.44 114.40 162.59 C 111.70 154.34 111.54 145.59 110.74 137.02 C 110.37 129.56 113.56 120.99 108.54 114.46 C 103.84 109.37 96.48 110.70 90.30 110.31 C 84.36 109.52 78.29 109.85 72.47 108.30 C 65.12 106.67 58.19 103.66 51.36 100.58 C 45.63 98.32 39.64 95.63 33.34 96.29 Z" />
<path fill="#a2d9f6" opacity="1.00" d=" M 198.37 81.31 C 203.93 79.20 210.75 79.68 215.45 83.57 C 218.55 85.95 219.49 90.07 222.25 92.73 C 225.44 95.14 229.48 96.83 231.28 100.66 C 234.32 106.17 234.91 114.37 229.97 118.95 C 231.72 114.63 233.20 109.83 231.84 105.19 C 230.23 98.54 223.86 93.56 217.05 93.36 C 212.08 92.92 207.25 94.47 202.81 96.58 C 193.23 100.73 183.63 105.30 173.22 106.93 C 165.85 108.04 158.39 108.27 150.97 108.68 C 145.65 109.02 140.54 113.07 139.69 118.45 C 139.19 122.64 140.19 126.80 140.38 130.98 C 141.05 143.27 139.67 155.79 135.34 167.37 C 132.90 175.44 129.37 184.50 133.16 192.72 C 136.82 200.98 148.00 203.68 155.65 199.60 C 159.84 196.79 163.82 192.39 163.69 187.02 C 163.89 183.01 163.17 178.97 161.58 175.27 C 157.93 166.60 152.63 158.52 150.71 149.20 C 153.37 152.83 154.06 157.53 156.91 161.07 C 161.39 168.33 169.07 174.07 170.27 182.98 C 171.72 191.16 165.87 200.24 157.46 201.41 C 151.96 202.34 146.02 203.62 140.68 201.28 C 132.81 198.33 128.75 189.01 130.32 181.03 C 131.98 172.35 135.63 164.21 137.68 155.64 C 139.71 147.14 136.85 138.55 134.59 130.41 C 133.58 126.50 131.82 122.52 132.49 118.41 C 133.49 114.68 136.13 111.20 139.85 109.88 C 146.37 107.41 153.39 106.56 159.89 103.98 C 166.73 101.65 172.87 97.77 178.91 93.89 C 185.32 89.60 191.13 84.23 198.37 81.31 Z" />
<path fill="#a2d9f6" opacity="1.00" d=" M 170.06 124.90 C 173.88 122.96 178.30 123.76 182.28 124.71 C 191.81 127.05 197.81 139.10 192.88 147.90 C 187.63 158.25 172.02 160.25 164.09 151.91 C 158.56 146.96 156.29 136.84 162.48 131.54 C 160.67 136.21 159.36 141.62 161.51 146.42 C 163.84 151.19 168.57 154.98 173.97 155.41 C 178.48 155.86 183.76 155.60 186.99 151.97 C 192.96 145.94 193.75 134.61 187.37 128.63 C 182.96 124.55 176.53 125.67 171.05 125.35 L 170.06 124.90 Z" />
</g>
</svg>
