<?xml version="1.0" encoding="UTF-8" ?>
<!DOCTYPE svg PUBLIC "-//W3C//DTD SVG 1.1//EN" "http://www.w3.org/Graphics/SVG/1.1/DTD/svg11.dtd">
<svg width="249pt" height="250pt" viewBox="0 0 249 250" version="1.1" xmlns="http://www.w3.org/2000/svg">
<g id="#020202ff">
<path fill="#020202" opacity="1.00" d=" M 0.00 0.00 L 249.00 0.00 L 249.00 71.51 C 243.99 62.34 238.00 53.80 231.23 45.85 C 226.64 38.73 219.25 34.40 212.87 29.12 C 199.63 18.47 183.61 11.71 167.15 7.88 C 161.62 6.64 155.91 7.05 150.29 6.58 C 144.91 6.24 139.48 5.30 134.10 6.16 C 131.14 6.58 129.31 9.19 127.34 11.16 C 129.88 12.67 132.70 13.98 134.59 16.35 C 136.72 19.04 138.28 22.15 140.65 24.65 C 140.09 24.99 138.96 25.69 138.39 26.04 C 138.57 28.30 138.39 31.12 140.92 32.15 C 163.88 45.63 187.15 58.63 210.16 72.04 C 213.62 74.60 213.14 79.19 213.13 83.00 C 212.84 93.34 212.77 103.69 212.92 114.03 C 213.01 124.36 212.78 134.70 212.92 145.03 C 213.06 155.05 212.63 165.07 213.13 175.08 C 203.97 181.02 194.06 185.71 184.92 191.68 C 181.04 193.96 177.20 196.33 173.15 198.30 C 172.64 198.19 171.63 197.98 171.12 197.87 C 175.38 192.53 180.79 188.23 184.81 182.68 C 186.12 181.82 187.43 180.97 188.77 180.15 C 194.10 177.13 199.51 174.22 204.76 171.04 C 204.89 169.14 205.04 167.25 205.11 165.35 C 205.44 159.66 205.38 153.96 205.14 148.27 C 205.26 142.26 205.47 136.25 205.17 130.24 C 205.23 124.91 205.42 119.58 205.13 114.25 C 205.21 104.15 205.28 94.05 204.75 83.95 C 202.22 85.08 199.69 86.24 197.23 87.52 C 194.88 87.00 192.53 86.48 190.19 85.96 C 190.46 84.69 190.73 83.42 191.00 82.16 C 194.53 80.15 198.03 78.12 201.64 76.26 C 179.73 63.65 157.91 50.87 135.84 38.56 C 132.64 45.94 130.70 53.80 127.26 61.08 C 124.96 64.79 124.86 69.18 125.23 73.40 C 123.54 73.87 121.85 74.35 120.16 74.83 C 119.57 73.48 118.97 72.14 118.38 70.79 C 120.19 65.03 123.39 59.48 123.32 53.30 C 120.16 56.39 119.16 60.80 117.86 64.86 C 116.55 69.38 114.93 73.81 113.46 78.29 C 113.08 77.65 112.31 76.39 111.93 75.75 C 114.27 67.97 116.91 60.28 119.47 52.57 C 121.41 52.13 123.35 51.71 125.28 51.27 C 127.19 44.73 129.63 38.36 131.82 31.91 C 132.69 28.95 134.10 25.59 132.39 22.65 C 130.41 18.95 125.44 16.19 121.41 18.33 C 118.00 19.65 116.47 23.19 115.39 26.41 C 108.64 45.97 101.63 65.45 94.91 85.02 C 94.18 86.64 94.50 88.38 95.37 89.88 C 93.97 89.92 92.57 89.82 91.17 89.75 C 91.78 91.09 92.47 92.41 92.86 93.84 C 91.07 97.52 87.31 99.68 84.62 102.64 C 81.63 105.44 80.67 109.53 79.46 113.28 C 78.80 115.40 78.31 117.57 77.93 119.76 C 77.85 120.26 77.68 121.27 77.60 121.77 C 77.13 126.41 77.23 131.09 77.37 135.75 C 81.80 136.35 86.28 136.46 90.74 136.12 L 90.62 136.88 C 86.06 137.05 81.50 137.13 76.96 137.44 C 77.12 138.98 77.29 140.52 77.56 142.05 C 78.05 143.15 78.55 144.24 79.07 145.33 C 84.62 145.37 90.18 145.58 95.72 145.05 C 94.51 145.98 93.26 146.86 92.03 147.74 C 88.09 147.74 84.15 147.65 80.21 147.60 C 80.56 148.36 80.90 149.13 81.24 149.90 C 81.42 150.33 81.79 151.21 81.97 151.64 C 82.19 152.27 82.63 153.52 82.85 154.14 C 85.97 154.95 89.10 155.73 92.27 156.29 C 89.80 156.35 87.34 156.51 84.88 156.66 C 88.43 160.07 92.31 163.28 96.93 165.13 C 101.70 167.30 107.17 167.10 111.93 169.31 C 111.85 170.49 111.77 171.68 111.70 172.86 C 107.99 172.99 104.28 173.03 100.57 173.01 C 102.67 175.38 104.58 178.10 107.39 179.69 C 111.32 180.76 115.48 180.34 119.51 180.61 C 119.14 189.42 119.50 198.24 119.28 207.05 C 119.13 210.13 119.77 213.17 121.00 215.98 C 122.32 215.95 123.64 215.93 124.96 215.89 C 125.41 215.87 126.31 215.82 126.76 215.80 C 130.87 215.57 135.21 215.50 138.82 217.80 C 134.33 220.37 129.92 223.08 125.30 225.43 C 118.54 223.70 112.94 219.43 106.94 216.09 C 83.40 202.62 59.87 189.12 36.35 175.61 C 36.17 172.40 36.02 169.20 36.01 165.99 C 36.14 143.33 36.06 120.66 36.07 98.00 C 36.11 89.74 35.74 81.47 36.52 73.23 C 52.37 64.19 68.20 55.10 84.05 46.07 C 85.01 45.34 86.38 44.91 86.86 43.72 C 86.67 41.81 85.98 40.00 85.43 38.18 C 70.83 45.80 56.89 54.60 42.50 62.60 C 38.23 65.20 33.38 67.09 29.94 70.84 C 29.88 101.23 29.95 131.61 29.92 162.00 C 29.84 167.62 29.86 173.24 30.10 178.86 C 54.58 193.53 79.56 207.35 104.21 221.73 C 110.93 225.73 118.11 229.01 124.28 233.89 C 124.34 235.83 124.41 237.77 124.48 239.71 C 130.92 238.68 137.43 238.09 143.96 238.20 C 151.71 238.34 159.19 236.12 166.76 234.77 C 174.62 233.35 181.93 230.01 189.44 227.41 C 195.39 225.28 201.80 225.98 208.00 225.97 C 221.67 226.01 235.33 225.91 249.00 225.95 L 249.00 248.73 C 166.00 248.67 83.00 248.70 0.00 248.71 L 0.00 0.00 M 90.36 20.37 C 87.24 22.94 88.11 27.64 88.82 31.12 C 89.48 34.29 92.85 34.26 95.42 34.74 C 96.58 37.94 97.71 41.16 98.73 44.41 C 99.31 44.50 100.49 44.67 101.07 44.76 C 100.01 40.71 98.62 36.76 97.26 32.80 C 96.37 30.04 94.12 28.05 92.90 25.46 C 94.83 23.49 97.30 23.02 99.59 24.76 C 99.18 26.50 98.57 28.22 98.54 30.03 C 100.20 31.21 102.26 31.37 104.20 31.73 C 104.97 33.13 105.76 34.51 106.56 35.89 C 106.75 33.26 107.16 30.53 106.21 27.99 C 104.93 24.29 103.58 19.80 99.44 18.42 C 96.40 16.51 92.73 18.17 90.36 20.37 M 100.48 33.20 C 101.01 36.71 102.03 40.22 104.15 43.13 C 105.00 39.55 104.05 34.89 100.48 33.20 M 91.26 35.93 C 92.22 43.19 95.89 49.76 97.66 56.84 C 98.03 56.68 98.79 56.38 99.16 56.22 C 100.03 53.30 101.03 50.42 102.03 47.54 C 100.46 47.27 98.87 47.05 97.33 46.61 C 94.80 43.32 95.52 37.85 91.26 35.93 M 77.68 58.68 C 67.76 64.53 57.56 69.93 47.85 76.13 C 50.02 77.44 52.21 78.71 54.42 79.96 C 54.44 81.41 54.52 82.88 54.32 84.33 C 52.98 85.24 51.47 85.86 50.00 86.55 C 48.04 85.45 46.00 84.53 43.93 83.66 C 43.39 90.43 43.70 97.22 43.65 104.00 C 43.61 123.67 43.71 143.33 43.60 163.00 C 43.61 165.60 43.76 168.20 43.95 170.79 C 54.30 176.92 64.75 182.87 75.21 188.80 C 80.76 191.89 86.03 195.50 91.84 198.13 C 92.37 188.53 92.20 178.89 91.88 169.29 C 87.14 166.12 82.34 162.76 79.00 158.05 C 75.72 153.18 73.50 147.56 72.41 141.79 C 71.57 134.55 72.01 127.23 72.14 119.96 C 72.17 113.67 75.50 108.16 78.48 102.85 C 73.86 99.46 68.89 96.57 63.83 93.89 C 65.79 92.06 67.81 90.29 69.87 88.57 C 74.95 91.03 79.55 94.77 84.93 96.42 C 88.31 87.63 91.13 78.61 94.30 69.74 C 95.72 65.74 93.31 61.91 92.08 58.23 C 91.50 56.14 90.89 54.06 90.30 51.98 C 85.82 53.67 81.83 56.34 77.68 58.68 M 97.64 174.93 C 98.99 178.88 102.08 182.12 105.66 184.16 C 108.60 184.79 111.64 184.81 114.62 185.22 C 114.64 193.17 114.89 201.12 115.29 209.07 C 115.20 210.28 115.82 211.32 116.41 212.33 C 116.91 202.55 116.63 192.74 116.79 182.95 C 113.36 182.74 109.89 182.96 106.50 182.34 C 103.37 180.09 101.03 176.87 97.64 174.93 M 97.91 181.48 C 97.53 186.99 97.50 192.53 97.71 198.06 C 97.91 199.64 97.70 201.76 99.43 202.57 C 103.64 205.30 108.16 207.50 112.55 209.92 C 112.48 202.48 112.62 195.04 112.52 187.61 C 109.84 187.36 107.00 187.59 104.48 186.52 C 102.17 185.00 100.19 183.04 97.91 181.48 Z" />
</g>
<g id="#060505ff">
<path fill="#060505" opacity="1.00" d=" M 127.34 11.16 C 129.31 9.19 131.14 6.58 134.10 6.16 C 139.48 5.30 144.91 6.24 150.29 6.58 C 155.91 7.05 161.62 6.64 167.15 7.88 C 183.61 11.71 199.63 18.47 212.87 29.12 C 219.25 34.40 226.64 38.73 231.23 45.85 C 238.00 53.80 243.99 62.34 249.00 71.51 L 249.00 225.95 C 235.33 225.91 221.67 226.01 208.00 225.97 C 201.80 225.98 195.39 225.28 189.44 227.41 C 181.93 230.01 174.62 233.35 166.76 234.77 C 159.19 236.12 151.71 238.34 143.96 238.20 C 137.43 238.09 130.92 238.68 124.48 239.71 C 124.41 237.77 124.34 235.83 124.28 233.89 C 124.55 233.72 125.11 233.38 125.38 233.22 C 141.02 223.83 156.94 214.93 172.68 205.71 C 179.35 202.06 185.63 197.73 192.41 194.27 C 200.40 190.07 208.15 185.42 216.02 180.99 C 218.03 180.08 218.96 178.14 219.20 176.03 C 219.27 166.39 218.96 156.74 219.01 147.09 C 219.24 136.39 218.85 125.69 219.04 114.99 C 219.08 99.82 219.16 84.64 218.64 69.49 C 195.18 56.35 172.04 42.63 148.64 29.39 C 145.95 27.85 143.23 26.36 140.65 24.65 C 138.28 22.15 136.72 19.04 134.59 16.35 C 132.70 13.98 129.88 12.67 127.34 11.16 Z" />
</g>
<g id="#fbd880ff">
<path fill="#fbd880" opacity="1.00" d=" M 90.36 20.37 C 92.73 18.17 96.40 16.51 99.44 18.42 C 103.58 19.80 104.93 24.29 106.21 27.99 C 107.16 30.53 106.75 33.26 106.56 35.89 C 105.76 34.51 104.97 33.13 104.20 31.73 C 102.26 31.37 100.20 31.21 98.54 30.03 C 98.57 28.22 99.18 26.50 99.59 24.76 C 97.30 23.02 94.83 23.49 92.90 25.46 C 94.12 28.05 96.37 30.04 97.26 32.80 C 98.62 36.76 100.01 40.71 101.07 44.76 C 100.49 44.67 99.31 44.50 98.73 44.41 C 97.71 41.16 96.58 37.94 95.42 34.74 C 92.85 34.26 89.48 34.29 88.82 31.12 C 88.11 27.64 87.24 22.94 90.36 20.37 Z" />
</g>
<g id="#e4b951ff">
<path fill="#e4b951" opacity="1.00" d=" M 121.41 18.33 C 125.44 16.19 130.41 18.95 132.39 22.65 C 134.10 25.59 132.69 28.95 131.82 31.91 C 129.63 38.36 127.19 44.73 125.28 51.27 C 123.35 51.71 121.41 52.13 119.47 52.57 C 116.91 60.28 114.27 67.97 111.93 75.75 C 111.23 78.33 110.21 80.88 108.13 82.67 C 108.50 77.86 110.52 73.45 111.91 68.90 C 115.38 57.82 119.40 46.93 122.76 35.82 C 123.92 31.94 126.27 28.60 128.18 25.07 C 126.33 24.31 124.41 23.75 122.44 23.43 C 122.18 25.42 121.95 27.40 121.74 29.39 C 119.44 29.94 116.67 30.38 116.17 33.15 C 111.72 46.66 107.33 60.19 102.86 73.69 C 100.95 79.31 99.86 85.58 95.37 89.88 C 94.50 88.38 94.18 86.64 94.91 85.02 C 101.63 65.45 108.64 45.97 115.39 26.41 C 116.47 23.19 118.00 19.65 121.41 18.33 Z" />
</g>
<g id="#0a0807ff">
<path fill="#0a0807" opacity="1.00" d=" M 122.44 23.43 C 124.41 23.75 126.33 24.31 128.18 25.07 C 126.27 28.60 123.92 31.94 122.76 35.82 C 119.40 46.93 115.38 57.82 111.91 68.90 C 110.52 73.45 108.50 77.86 108.13 82.67 C 110.21 80.88 111.23 78.33 111.93 75.75 C 112.31 76.39 113.08 77.65 113.46 78.29 C 113.02 79.75 112.62 81.23 112.22 82.70 C 112.76 82.61 113.83 82.44 114.37 82.35 C 115.74 78.51 117.00 74.63 118.38 70.79 C 118.97 72.14 119.57 73.48 120.16 74.83 C 121.85 74.35 123.54 73.87 125.23 73.40 C 124.86 69.18 124.96 64.79 127.26 61.08 C 124.84 66.54 126.86 72.20 129.02 77.34 C 129.64 73.06 129.82 68.27 132.94 64.91 C 136.73 60.27 143.55 59.29 149.01 61.11 C 153.33 62.63 155.77 66.82 157.77 70.65 C 161.76 68.98 166.14 67.62 170.47 68.69 C 175.06 70.03 179.09 73.74 180.31 78.42 C 180.85 81.42 180.69 84.49 180.87 87.52 C 184.35 85.93 187.69 84.07 191.00 82.16 C 190.73 83.42 190.46 84.69 190.19 85.96 C 192.53 86.48 194.88 87.00 197.23 87.52 C 192.61 90.13 187.68 92.24 183.31 95.26 C 180.52 96.86 180.90 100.39 180.65 103.13 C 180.51 107.13 180.91 111.14 180.89 115.14 C 179.29 118.95 177.29 122.73 177.00 126.93 C 176.68 131.04 177.18 135.16 177.18 139.29 C 177.12 139.73 177.00 140.62 176.94 141.07 C 176.15 145.37 174.77 149.55 172.81 153.46 C 170.11 158.81 165.86 163.27 160.93 166.64 C 159.09 167.98 156.56 169.30 156.74 171.97 C 156.46 180.70 156.44 189.47 156.96 198.20 C 166.53 193.55 175.30 187.46 184.81 182.68 C 180.79 188.23 175.38 192.53 171.12 197.87 C 171.63 197.98 172.64 198.19 173.15 198.30 C 161.72 204.82 150.37 211.49 138.82 217.80 C 135.21 215.50 130.87 215.57 126.76 215.80 C 133.48 212.19 140.02 208.23 146.37 204.00 C 142.17 198.79 137.44 194.02 132.31 189.72 C 130.81 187.78 129.10 185.71 129.30 183.08 C 129.05 174.17 129.89 165.23 129.03 156.33 C 127.78 156.24 126.53 156.16 125.29 156.08 L 125.27 156.91 C 124.27 166.58 124.98 176.30 125.09 186.00 C 125.21 195.96 125.31 205.93 124.96 215.89 C 123.64 215.93 122.32 215.95 121.00 215.98 C 123.60 206.83 122.01 197.24 122.35 187.88 C 122.34 179.68 122.69 171.47 122.21 163.28 C 117.81 163.24 113.41 163.23 109.01 163.17 C 106.37 161.15 104.10 158.62 101.11 157.11 C 98.28 156.16 95.21 156.47 92.27 156.29 C 89.10 155.73 85.97 154.95 82.85 154.14 L 83.70 153.99 C 97.89 154.52 112.11 154.39 126.30 154.08 C 133.83 154.31 141.42 154.75 148.92 153.85 C 157.21 152.87 164.24 145.85 165.46 137.63 C 165.90 134.34 165.70 131.01 165.61 127.71 C 162.22 126.45 158.93 124.94 155.73 123.26 C 155.55 128.51 156.06 134.03 153.82 138.94 C 150.37 146.46 142.56 152.32 134.05 151.82 C 116.69 151.66 99.33 151.89 81.97 151.64 C 81.79 151.21 81.42 150.33 81.24 149.90 C 91.56 148.95 101.93 149.76 112.28 149.34 C 109.86 146.70 107.30 142.59 103.10 143.67 C 99.34 144.89 96.23 148.06 92.03 147.74 C 93.26 146.86 94.51 145.98 95.72 145.05 C 101.50 139.74 106.74 133.87 112.46 128.49 C 114.81 126.17 118.21 125.79 121.25 124.97 C 119.02 123.60 116.75 122.30 114.43 121.09 C 109.89 125.67 105.31 130.23 100.85 134.90 C 99.15 136.46 97.44 138.61 94.91 138.59 C 89.36 138.85 83.79 138.46 78.24 138.94 C 78.07 139.72 77.73 141.27 77.56 142.05 C 77.29 140.52 77.12 138.98 76.96 137.44 C 81.50 137.13 86.06 137.05 90.62 136.88 L 90.74 136.12 C 91.42 131.54 91.27 126.90 90.89 122.30 C 86.46 122.30 82.02 122.24 77.60 121.77 C 77.68 121.27 77.85 120.26 77.93 119.76 C 83.09 119.55 88.27 119.68 93.44 119.67 C 93.54 125.41 93.42 131.16 93.76 136.90 C 100.81 132.14 106.45 125.59 112.14 119.34 C 109.30 119.31 106.31 119.26 103.89 120.98 C 101.91 122.37 99.58 122.93 97.22 122.29 C 97.24 121.07 97.40 119.86 97.70 118.68 C 100.63 115.66 104.36 113.59 107.46 110.74 C 104.85 110.69 102.16 110.61 99.69 111.59 C 93.29 114.34 86.20 112.89 79.46 113.28 C 80.67 109.53 81.63 105.44 84.62 102.64 C 87.31 99.68 91.07 97.52 92.86 93.84 C 92.47 92.41 91.78 91.09 91.17 89.75 C 92.57 89.82 93.97 89.92 95.37 89.88 C 99.86 85.58 100.95 79.31 102.86 73.69 C 107.33 60.19 111.72 46.66 116.17 33.15 C 116.67 30.38 119.44 29.94 121.74 29.39 C 121.95 27.40 122.18 25.42 122.44 23.43 M 115.93 42.00 C 111.19 55.88 106.71 69.84 102.08 83.75 C 102.66 83.63 103.83 83.39 104.42 83.27 C 110.05 67.70 114.77 51.81 120.16 36.16 C 120.74 34.79 120.41 33.31 120.25 31.90 C 117.69 34.70 117.09 38.53 115.93 42.00 M 140.52 65.60 L 140.56 66.69 C 138.60 75.88 140.46 85.38 139.48 94.66 C 138.43 97.15 135.70 98.52 134.63 101.01 C 134.13 104.84 134.69 109.43 138.00 111.91 C 140.34 113.81 143.62 113.80 146.44 113.21 C 149.76 111.91 152.08 108.59 152.24 105.04 C 152.55 99.19 152.49 93.32 152.03 87.48 C 150.59 90.14 149.33 92.95 147.21 95.16 C 146.16 96.62 144.22 97.92 144.65 99.97 C 144.90 102.31 145.51 104.60 145.90 106.93 C 144.71 107.23 143.51 107.52 142.31 107.80 C 141.98 107.35 141.33 106.44 141.01 105.99 C 143.58 98.99 141.90 91.46 142.62 84.21 C 145.92 80.91 149.82 78.00 152.21 73.94 C 152.13 67.98 145.84 64.86 140.52 65.60 M 134.61 74.10 C 134.36 81.37 134.64 88.66 134.50 95.94 C 135.51 95.52 136.52 95.09 137.53 94.66 C 137.67 85.99 137.82 77.29 137.42 68.62 C 136.11 70.21 134.52 71.88 134.61 74.10 M 159.49 77.40 C 159.11 78.90 160.60 80.03 161.18 81.27 C 164.13 79.42 166.75 76.97 168.21 73.76 C 164.98 73.86 161.53 74.66 159.49 77.40 M 163.90 82.90 C 165.74 85.30 168.39 87.60 168.11 90.93 C 168.26 99.19 167.69 107.50 169.13 115.69 C 167.42 115.67 165.72 115.65 164.02 115.62 C 164.43 113.13 165.05 110.68 165.74 108.26 C 164.13 107.77 162.50 107.31 160.88 106.84 C 160.45 101.14 160.80 95.42 160.48 89.72 C 159.80 89.48 158.44 89.01 157.76 88.77 C 157.50 96.19 157.57 103.62 157.77 111.04 C 157.86 113.98 158.29 117.27 160.69 119.29 C 163.57 122.30 168.63 122.45 171.80 119.82 C 175.05 117.30 175.36 112.81 175.38 109.02 C 175.29 100.33 175.48 91.63 175.34 82.94 C 175.17 80.30 174.29 76.37 171.14 76.01 C 168.22 77.70 166.10 80.40 163.90 82.90 M 119.33 84.97 C 122.46 88.60 125.41 92.95 124.71 98.01 C 125.16 105.71 117.90 110.20 112.31 113.92 C 114.74 115.41 117.33 116.63 119.86 117.94 C 124.00 120.08 127.14 123.62 130.21 127.04 C 132.96 132.17 135.55 137.58 135.70 143.52 C 134.33 143.52 132.94 143.55 131.60 143.23 C 129.93 141.74 129.61 139.37 128.86 137.37 C 127.95 134.17 126.41 131.20 124.72 128.36 C 121.88 128.44 118.86 127.84 116.14 128.82 C 111.87 132.04 108.47 136.24 104.69 139.99 C 107.57 141.39 110.23 143.23 112.38 145.63 C 114.05 147.09 115.48 149.41 117.95 149.37 C 124.62 150.11 131.99 148.75 136.58 143.48 C 143.26 137.80 142.73 128.04 142.09 120.12 C 140.65 118.08 137.74 117.86 135.60 116.85 C 133.33 114.29 130.56 111.87 129.75 108.39 C 128.88 103.47 130.14 98.34 128.66 93.51 C 126.84 87.79 125.12 82.02 122.71 76.51 C 121.31 79.21 120.26 82.07 119.33 84.97 M 144.82 86.11 C 144.28 88.61 144.67 91.19 144.86 93.70 C 148.03 91.87 147.89 87.78 150.22 85.24 C 151.86 83.48 152.47 81.19 152.33 78.82 C 149.47 80.81 146.55 83.00 144.82 86.11 M 157.61 81.86 C 158.38 85.22 161.35 87.24 162.96 90.12 C 163.57 94.98 163.08 99.90 163.30 104.78 C 163.86 104.76 164.99 104.71 165.55 104.68 C 165.34 99.35 166.07 93.94 165.21 88.67 C 163.30 85.81 160.60 83.52 157.61 81.86 M 95.17 96.18 C 91.56 99.11 87.20 101.35 84.71 105.44 C 88.35 105.49 92.01 105.78 95.63 105.33 C 100.58 102.44 105.73 99.23 108.76 94.19 C 111.47 94.36 113.00 96.41 112.56 99.05 C 106.53 99.81 102.35 104.39 97.32 107.23 C 92.61 108.11 87.78 107.24 83.04 107.74 C 82.49 108.41 81.39 109.77 80.84 110.45 C 86.80 110.41 93.27 111.90 98.80 109.00 C 102.64 107.48 106.91 108.82 110.90 108.05 C 114.51 106.50 117.77 103.63 119.17 99.88 C 121.20 93.17 113.97 85.55 107.16 87.95 C 102.67 89.89 99.09 93.35 95.17 96.18 M 144.47 119.45 C 144.30 125.65 145.33 132.11 143.14 138.06 C 141.55 142.64 137.69 145.78 134.72 149.43 C 142.30 149.16 149.14 143.90 151.92 136.94 C 154.14 130.41 153.15 123.36 153.08 116.61 C 150.19 117.51 147.33 118.48 144.47 119.45 M 168.39 127.08 C 168.25 132.11 168.56 137.28 167.01 142.13 C 164.09 149.94 156.47 156.00 148.04 156.39 C 142.68 156.59 137.32 156.32 131.95 156.36 C 131.61 161.51 131.17 166.74 131.94 171.88 C 133.34 174.66 135.73 176.95 138.38 178.56 C 142.43 179.49 146.62 178.84 150.73 178.75 C 150.70 176.56 150.68 174.37 150.67 172.19 C 146.84 172.67 142.98 173.67 139.11 173.13 C 136.97 172.96 137.23 170.50 136.63 169.00 C 141.66 167.31 147.15 167.34 152.01 165.08 C 161.07 161.28 168.07 153.07 170.56 143.59 C 172.07 138.22 171.59 132.59 171.64 127.08 C 170.55 127.08 169.47 127.08 168.39 127.08 M 105.73 156.86 C 106.97 158.04 108.16 159.31 109.61 160.23 C 113.71 161.01 117.93 160.44 122.07 160.63 C 122.21 159.34 122.34 158.05 122.46 156.77 C 116.89 156.53 111.30 156.38 105.73 156.86 M 131.81 176.94 C 131.73 179.57 131.32 182.26 131.94 184.85 C 133.46 187.33 135.82 189.12 137.92 191.08 C 142.22 194.85 146.09 199.08 150.18 203.07 C 151.09 195.85 150.65 188.57 150.71 181.33 C 146.51 181.30 142.26 181.70 138.08 181.10 C 135.69 180.24 133.84 178.39 131.81 176.94 Z" />
</g>
<g id="#cba344ff">
<path fill="#cba344" opacity="1.00" d=" M 138.39 26.04 C 138.96 25.69 140.09 24.99 140.65 24.65 C 143.23 26.36 145.95 27.85 148.64 29.39 C 172.04 42.63 195.18 56.35 218.64 69.49 C 216.19 71.33 213.36 73.60 210.16 72.04 C 187.15 58.63 163.88 45.63 140.92 32.15 C 138.39 31.12 138.57 28.30 138.39 26.04 Z" />
</g>
<g id="#d9af4bff">
<path fill="#d9af4b" opacity="1.00" d=" M 115.93 42.00 C 117.09 38.53 117.69 34.70 120.25 31.90 C 120.41 33.31 120.74 34.79 120.16 36.16 C 114.77 51.81 110.05 67.70 104.42 83.27 C 103.83 83.39 102.66 83.63 102.08 83.75 C 106.71 69.84 111.19 55.88 115.93 42.00 Z" />
<path fill="#d9af4b" opacity="1.00" d=" M 117.86 64.86 C 119.16 60.80 120.16 56.39 123.32 53.30 C 123.39 59.48 120.19 65.03 118.38 70.79 C 117.00 74.63 115.74 78.51 114.37 82.35 C 113.83 82.44 112.76 82.61 112.22 82.70 C 112.62 81.23 113.02 79.75 113.46 78.29 C 114.93 73.81 116.55 69.38 117.86 64.86 Z" />
<path fill="#d9af4b" opacity="1.00" d=" M 95.17 96.18 C 99.09 93.35 102.67 89.89 107.16 87.95 C 113.97 85.55 121.20 93.17 119.17 99.88 C 117.77 103.63 114.51 106.50 110.90 108.05 C 106.91 108.82 102.64 107.48 98.80 109.00 C 93.27 111.90 86.80 110.41 80.84 110.45 C 81.39 109.77 82.49 108.41 83.04 107.74 C 87.78 107.24 92.61 108.11 97.32 107.23 C 102.35 104.39 106.53 99.81 112.56 99.05 C 113.00 96.41 111.47 94.36 108.76 94.19 C 105.73 99.23 100.58 102.44 95.63 105.33 C 92.01 105.78 88.35 105.49 84.71 105.44 C 87.20 101.35 91.56 99.11 95.17 96.18 Z" />
</g>
<g id="#e6bb52ff">
<path fill="#e6bb52" opacity="1.00" d=" M 100.48 33.20 C 104.05 34.89 105.00 39.55 104.15 43.13 C 102.03 40.22 101.01 36.71 100.48 33.20 Z" />
<path fill="#e6bb52" opacity="1.00" d=" M 69.80 70.79 C 76.26 65.22 83.28 59.24 92.08 58.23 C 93.31 61.91 95.72 65.74 94.30 69.74 C 91.13 78.61 88.31 87.63 84.93 96.42 C 79.55 94.77 74.95 91.03 69.87 88.57 C 67.82 87.41 65.72 86.34 63.68 85.16 C 62.66 83.65 61.57 82.07 61.31 80.22 C 63.38 76.48 66.75 73.70 69.80 70.79 Z" />
</g>
<g id="#fad26bff">
<path fill="#fad26b" opacity="1.00" d=" M 91.26 35.93 C 95.52 37.85 94.80 43.32 97.33 46.61 C 98.87 47.05 100.46 47.27 102.03 47.54 C 101.03 50.42 100.03 53.30 99.16 56.22 C 98.79 56.38 98.03 56.68 97.66 56.84 C 95.89 49.76 92.22 43.19 91.26 35.93 Z" />
</g>
<g id="#d0a746ff">
<path fill="#d0a746" opacity="1.00" d=" M 42.50 62.60 C 56.89 54.60 70.83 45.80 85.43 38.18 C 85.98 40.00 86.67 41.81 86.86 43.72 C 86.38 44.91 85.01 45.34 84.05 46.07 C 68.20 55.10 52.37 64.19 36.52 73.23 C 34.32 72.46 32.13 71.65 29.94 70.84 C 33.38 67.09 38.23 65.20 42.50 62.60 Z" />
</g>
<g id="#d3aa48ff">
<path fill="#d3aa48" opacity="1.00" d=" M 127.26 61.08 C 130.70 53.80 132.64 45.94 135.84 38.56 C 157.91 50.87 179.73 63.65 201.64 76.26 C 198.03 78.12 194.53 80.15 191.00 82.16 C 187.69 84.07 184.35 85.93 180.87 87.52 C 180.69 84.49 180.85 81.42 180.31 78.42 C 179.09 73.74 175.06 70.03 170.47 68.69 C 166.14 67.62 161.76 68.98 157.77 70.65 C 155.77 66.82 153.33 62.63 149.01 61.11 C 143.55 59.29 136.73 60.27 132.94 64.91 C 129.82 68.27 129.64 73.06 129.02 77.34 C 126.86 72.20 124.84 66.54 127.26 61.08 Z" />
</g>
<g id="#d1a947ff">
<path fill="#d1a947" opacity="1.00" d=" M 77.68 58.68 C 81.83 56.34 85.82 53.67 90.30 51.98 C 90.89 54.06 91.50 56.14 92.08 58.23 C 83.28 59.24 76.26 65.22 69.80 70.79 C 66.75 73.70 63.38 76.48 61.31 80.22 C 61.57 82.07 62.66 83.65 63.68 85.16 C 60.60 83.41 57.50 81.70 54.42 79.96 C 52.21 78.71 50.02 77.44 47.85 76.13 C 57.56 69.93 67.76 64.53 77.68 58.68 Z" />
</g>
<g id="#c09a3eff">
<path fill="#c09a3e" opacity="1.00" d=" M 140.52 65.60 C 145.84 64.86 152.13 67.98 152.21 73.94 C 149.82 78.00 145.92 80.91 142.62 84.21 C 142.22 84.28 141.41 84.41 141.00 84.48 C 140.87 78.55 140.84 72.61 140.56 66.69 L 140.52 65.60 Z" />
</g>
<g id="#ae8936ff">
<path fill="#ae8936" opacity="1.00" d=" M 139.48 94.66 C 140.46 85.38 138.60 75.88 140.56 66.69 C 140.84 72.61 140.87 78.55 141.00 84.48 C 141.41 84.41 142.22 84.28 142.62 84.21 C 141.90 91.46 143.58 98.99 141.01 105.99 C 141.33 106.44 141.98 107.35 142.31 107.80 C 143.51 107.52 144.71 107.23 145.90 106.93 C 145.51 104.60 144.90 102.31 144.65 99.97 C 144.22 97.92 146.16 96.62 147.21 95.16 C 149.33 92.95 150.59 90.14 152.03 87.48 C 152.49 93.32 152.55 99.19 152.24 105.04 C 152.08 108.59 149.76 111.91 146.44 113.21 C 143.62 113.80 140.34 113.81 138.00 111.91 C 134.69 109.43 134.13 104.84 134.63 101.01 C 135.70 98.52 138.43 97.15 139.48 94.66 Z" />
</g>
<g id="#b38f3cff">
<path fill="#b38f3c" opacity="1.00" d=" M 134.61 74.10 C 134.52 71.88 136.11 70.21 137.42 68.62 C 137.82 77.29 137.67 85.99 137.53 94.66 C 136.52 95.09 135.51 95.52 134.50 95.94 C 134.64 88.66 134.36 81.37 134.61 74.10 Z" />
</g>
<g id="#4b3002ff">
<path fill="#4b3002" opacity="1.00" d=" M 218.64 69.49 C 219.16 84.64 219.08 99.82 219.04 114.99 C 217.83 113.70 216.62 112.42 215.41 111.13 C 214.58 112.10 213.74 113.06 212.92 114.03 C 212.77 103.69 212.84 93.34 213.13 83.00 C 213.14 79.19 213.62 74.60 210.16 72.04 C 213.36 73.60 216.19 71.33 218.64 69.49 Z" />
<path fill="#4b3002" opacity="1.00" d=" M 197.23 87.52 C 199.69 86.24 202.22 85.08 204.75 83.95 C 205.28 94.05 205.21 104.15 205.13 114.25 C 204.32 110.50 203.90 106.46 201.88 103.12 C 198.52 100.46 194.33 99.11 190.39 97.55 C 188.36 96.98 186.05 95.90 183.99 96.88 C 182.27 98.56 181.49 100.93 180.65 103.13 C 180.90 100.39 180.52 96.86 183.31 95.26 C 187.68 92.24 192.61 90.13 197.23 87.52 Z" />
</g>
<g id="#462d00ff">
<path fill="#462d00" opacity="1.00" d=" M 29.94 70.84 C 32.13 71.65 34.32 72.46 36.52 73.23 C 35.74 81.47 36.11 89.74 36.07 98.00 C 36.06 120.66 36.14 143.33 36.01 165.99 C 36.02 169.20 36.17 172.40 36.35 175.61 C 59.87 189.12 83.40 202.62 106.94 216.09 C 112.94 219.43 118.54 223.70 125.30 225.43 C 124.40 227.97 124.43 230.68 125.38 233.22 C 125.11 233.38 124.55 233.72 124.28 233.89 C 118.11 229.01 110.93 225.73 104.21 221.73 C 79.56 207.35 54.58 193.53 30.10 178.86 C 29.86 173.24 29.84 167.62 29.92 162.00 C 29.95 131.61 29.88 101.23 29.94 70.84 Z" />
</g>
<g id="#a98533ff">
<path fill="#a98533" opacity="1.00" d=" M 159.49 77.40 C 161.53 74.66 164.98 73.86 168.21 73.76 C 166.75 76.97 164.13 79.42 161.18 81.27 C 160.60 80.03 159.11 78.90 159.49 77.40 Z" />
</g>
<g id="#9a772bff">
<path fill="#9a772b" opacity="1.00" d=" M 163.90 82.90 C 166.10 80.40 168.22 77.70 171.14 76.01 C 174.29 76.37 175.17 80.30 175.34 82.94 C 175.48 91.63 175.29 100.33 175.38 109.02 C 175.36 112.81 175.05 117.30 171.80 119.82 C 168.63 122.45 163.57 122.30 160.69 119.29 C 158.29 117.27 157.86 113.98 157.77 111.04 C 157.57 103.62 157.50 96.19 157.76 88.77 C 158.44 89.01 159.80 89.48 160.48 89.72 C 160.80 95.42 160.45 101.14 160.88 106.84 C 162.50 107.31 164.13 107.77 165.74 108.26 C 165.05 110.68 164.43 113.13 164.02 115.62 C 165.72 115.65 167.42 115.67 169.13 115.69 C 167.69 107.50 168.26 99.19 168.11 90.93 C 168.39 87.60 165.74 85.30 163.90 82.90 Z" />
<path fill="#9a772b" opacity="1.00" d=" M 105.73 156.86 C 111.30 156.38 116.89 156.53 122.46 156.77 C 122.34 158.05 122.21 159.34 122.07 160.63 C 117.93 160.44 113.71 161.01 109.61 160.23 C 108.16 159.31 106.97 158.04 105.73 156.86 Z" />
</g>
<g id="#bb953cff">
<path fill="#bb953c" opacity="1.00" d=" M 119.33 84.97 C 120.26 82.07 121.31 79.21 122.71 76.51 C 125.12 82.02 126.84 87.79 128.66 93.51 C 130.14 98.34 128.88 103.47 129.75 108.39 C 130.56 111.87 133.33 114.29 135.60 116.85 C 136.23 118.03 136.88 119.25 137.05 120.59 C 135.71 123.54 132.66 125.14 130.21 127.04 C 127.14 123.62 124.00 120.08 119.86 117.94 C 117.33 116.63 114.74 115.41 112.31 113.92 C 117.90 110.20 125.16 105.71 124.71 98.01 C 125.41 92.95 122.46 88.60 119.33 84.97 Z" />
</g>
<g id="#b6903aff">
<path fill="#b6903a" opacity="1.00" d=" M 144.82 86.11 C 146.55 83.00 149.47 80.81 152.33 78.82 C 152.47 81.19 151.86 83.48 150.22 85.24 C 147.89 87.78 148.03 91.87 144.86 93.70 C 144.67 91.19 144.28 88.61 144.82 86.11 Z" />
</g>
<g id="#171311ff">
<path fill="#171311" opacity="1.00" d=" M 54.42 79.96 C 57.50 81.70 60.60 83.41 63.68 85.16 C 65.72 86.34 67.82 87.41 69.87 88.57 C 67.81 90.29 65.79 92.06 63.83 93.89 C 59.14 91.60 54.52 89.16 50.00 86.55 C 51.47 85.86 52.98 85.24 54.32 84.33 C 54.52 82.88 54.44 81.41 54.42 79.96 Z" />
</g>
<g id="#ab8531ff">
<path fill="#ab8531" opacity="1.00" d=" M 157.61 81.86 C 160.60 83.52 163.30 85.81 165.21 88.67 C 166.07 93.94 165.34 99.35 165.55 104.68 C 164.99 104.71 163.86 104.76 163.30 104.78 C 163.08 99.90 163.57 94.98 162.96 90.12 C 161.35 87.24 158.38 85.22 157.61 81.86 Z" />
</g>
<g id="#472d00ff">
<path fill="#472d00" opacity="1.00" d=" M 43.93 83.66 C 46.00 84.53 48.04 85.45 50.00 86.55 C 54.52 89.16 59.14 91.60 63.83 93.89 C 68.89 96.57 73.86 99.46 78.48 102.85 C 75.50 108.16 72.17 113.67 72.14 119.96 C 72.01 127.23 71.57 134.55 72.41 141.79 C 73.50 147.56 75.72 153.18 79.00 158.05 C 82.34 162.76 87.14 166.12 91.88 169.29 C 92.20 178.89 92.37 188.53 91.84 198.13 C 86.03 195.50 80.76 191.89 75.21 188.80 C 64.75 182.87 54.30 176.92 43.95 170.79 C 43.76 168.20 43.61 165.60 43.60 163.00 C 43.71 143.33 43.61 123.67 43.65 104.00 C 43.70 97.22 43.39 90.43 43.93 83.66 Z" />
</g>
<g id="#553a07ff">
<path fill="#553a07" opacity="1.00" d=" M 183.99 96.88 C 186.05 95.90 188.36 96.98 190.39 97.55 C 194.33 99.11 198.52 100.46 201.88 103.12 C 203.90 106.46 204.32 110.50 205.13 114.25 C 205.42 119.58 205.23 124.91 205.17 130.24 C 204.12 126.40 203.60 122.14 201.15 118.89 C 196.33 115.21 190.36 113.53 184.89 111.09 C 183.54 112.42 182.17 113.75 180.89 115.14 C 180.91 111.14 180.51 107.13 180.65 103.13 C 181.49 100.93 182.27 98.56 183.99 96.88 Z" />
</g>
<g id="#d4ab48ff">
<path fill="#d4ab48" opacity="1.00" d=" M 99.69 111.59 C 102.16 110.61 104.85 110.69 107.46 110.74 C 104.36 113.59 100.63 115.66 97.70 118.68 C 97.40 119.86 97.24 121.07 97.22 122.29 C 97.47 123.13 97.74 123.97 98.02 124.81 C 97.34 125.03 96.66 125.25 95.98 125.48 C 95.14 123.54 94.30 121.60 93.44 119.67 C 88.27 119.68 83.09 119.55 77.93 119.76 C 78.31 117.57 78.80 115.40 79.46 113.28 C 86.20 112.89 93.29 114.34 99.69 111.59 Z" />
</g>
<g id="#60440dff">
<path fill="#60440d" opacity="1.00" d=" M 180.89 115.14 C 182.17 113.75 183.54 112.42 184.89 111.09 C 190.36 113.53 196.33 115.21 201.15 118.89 C 203.60 122.14 204.12 126.40 205.17 130.24 C 205.47 136.25 205.26 142.26 205.14 148.27 C 203.82 142.79 204.40 135.39 198.72 132.27 C 192.91 128.73 186.58 126.15 180.13 124.05 C 178.82 129.06 177.84 134.15 177.18 139.29 C 177.18 135.16 176.68 131.04 177.00 126.93 C 177.29 122.73 179.29 118.95 180.89 115.14 Z" />
<path fill="#60440d" opacity="1.00" d=" M 215.41 111.13 C 216.62 112.42 217.83 113.70 219.04 114.99 C 218.85 125.69 219.24 136.39 219.01 147.09 C 217.94 145.34 216.76 143.65 215.58 141.97 C 214.69 142.99 213.81 144.01 212.92 145.03 C 212.78 134.70 213.01 124.36 212.92 114.03 C 213.74 113.06 214.58 112.10 215.41 111.13 Z" />
</g>
<g id="#a27f2fff">
<path fill="#a27f2f" opacity="1.00" d=" M 137.05 120.59 C 136.88 119.25 136.23 118.03 135.60 116.85 C 137.74 117.86 140.65 118.08 142.09 120.12 C 142.73 128.04 143.26 137.80 136.58 143.48 L 135.70 143.52 C 135.55 137.58 132.96 132.17 130.21 127.04 C 132.66 125.14 135.71 123.54 137.05 120.59 Z" />
</g>
<g id="#98752aff">
<path fill="#98752a" opacity="1.00" d=" M 144.47 119.45 C 147.33 118.48 150.19 117.51 153.08 116.61 C 153.15 123.36 154.14 130.41 151.92 136.94 C 149.14 143.90 142.30 149.16 134.72 149.43 C 137.69 145.78 141.55 142.64 143.14 138.06 C 145.33 132.11 144.30 125.65 144.47 119.45 Z" />
</g>
<g id="#c0993eff">
<path fill="#c0993e" opacity="1.00" d=" M 103.89 120.98 C 106.31 119.26 109.30 119.31 112.14 119.34 C 106.45 125.59 100.81 132.14 93.76 136.90 C 93.42 131.16 93.54 125.41 93.44 119.67 C 94.30 121.60 95.14 123.54 95.98 125.48 C 96.66 125.25 97.34 125.03 98.02 124.81 C 97.74 123.97 97.47 123.13 97.22 122.29 C 99.58 122.93 101.91 122.37 103.89 120.98 Z" />
</g>
<g id="#b8923aff">
<path fill="#b8923a" opacity="1.00" d=" M 100.85 134.90 C 105.31 130.23 109.89 125.67 114.43 121.09 C 116.75 122.30 119.02 123.60 121.25 124.97 C 118.21 125.79 114.81 126.17 112.46 128.49 C 106.74 133.87 101.50 139.74 95.72 145.05 C 90.18 145.58 84.62 145.37 79.07 145.33 C 78.55 144.24 78.05 143.15 77.56 142.05 C 77.73 141.27 78.07 139.72 78.24 138.94 C 83.79 138.46 89.36 138.85 94.91 138.59 C 97.44 138.61 99.15 136.46 100.85 134.90 Z" />
</g>
<g id="#c8a142ff">
<path fill="#c8a142" opacity="1.00" d=" M 77.37 135.75 C 77.23 131.09 77.13 126.41 77.60 121.77 C 82.02 122.24 86.46 122.30 90.89 122.30 C 91.27 126.90 91.42 131.54 90.74 136.12 C 86.28 136.46 81.80 136.35 77.37 135.75 Z" />
</g>
<g id="#8a6923ff">
<path fill="#8a6923" opacity="1.00" d=" M 155.73 123.26 C 158.93 124.94 162.22 126.45 165.61 127.71 C 165.70 131.01 165.90 134.34 165.46 137.63 C 164.24 145.85 157.21 152.87 148.92 153.85 C 141.42 154.75 133.83 154.31 126.30 154.08 C 116.99 152.14 107.44 153.16 98.01 152.63 C 93.20 152.33 88.35 152.65 83.70 153.99 L 82.85 154.14 C 82.63 153.52 82.19 152.27 81.97 151.64 C 99.33 151.89 116.69 151.66 134.05 151.82 C 142.56 152.32 150.37 146.46 153.82 138.94 C 156.06 134.03 155.55 128.51 155.73 123.26 Z" />
</g>
<g id="#6b4d13ff">
<path fill="#6b4d13" opacity="1.00" d=" M 180.13 124.05 C 186.58 126.15 192.91 128.73 198.72 132.27 C 204.40 135.39 203.82 142.79 205.14 148.27 C 205.38 153.96 205.44 159.66 205.11 165.35 C 204.36 160.63 203.84 155.86 202.69 151.22 C 202.16 148.73 199.81 147.37 197.81 146.15 C 192.40 143.10 186.68 140.63 180.97 138.20 C 179.63 139.16 178.29 140.12 176.94 141.07 C 177.00 140.62 177.12 139.73 177.18 139.29 C 177.84 134.15 178.82 129.06 180.13 124.05 Z" />
</g>
<g id="#7f601eff">
<path fill="#7f601e" opacity="1.00" d=" M 168.39 127.08 C 169.47 127.08 170.55 127.08 171.64 127.08 C 171.59 132.59 172.07 138.22 170.56 143.59 C 168.07 153.07 161.07 161.28 152.01 165.08 C 147.15 167.34 141.66 167.31 136.63 169.00 C 137.23 170.50 136.97 172.96 139.11 173.13 C 142.98 173.67 146.84 172.67 150.67 172.19 C 150.68 174.37 150.70 176.56 150.73 178.75 C 146.62 178.84 142.43 179.49 138.38 178.56 C 135.73 176.95 133.34 174.66 131.94 171.88 C 131.17 166.74 131.61 161.51 131.95 156.36 C 137.32 156.32 142.68 156.59 148.04 156.39 C 156.47 156.00 164.09 149.94 167.01 142.13 C 168.56 137.28 168.25 132.11 168.39 127.08 Z" />
</g>
<g id="#a88432ff">
<path fill="#a88432" opacity="1.00" d=" M 116.14 128.82 C 118.86 127.84 121.88 128.44 124.72 128.36 C 126.41 131.20 127.95 134.17 128.86 137.37 C 129.61 139.37 129.93 141.74 131.60 143.23 C 132.94 143.55 134.33 143.52 135.70 143.52 L 136.58 143.48 C 131.99 148.75 124.62 150.11 117.95 149.37 C 115.48 149.41 114.05 147.09 112.38 145.63 C 110.23 143.23 107.57 141.39 104.69 139.99 C 108.47 136.24 111.87 132.04 116.14 128.82 Z" />
</g>
<g id="#775819ff">
<path fill="#775819" opacity="1.00" d=" M 176.94 141.07 C 178.29 140.12 179.63 139.16 180.97 138.20 C 186.68 140.63 192.40 143.10 197.81 146.15 C 199.81 147.37 202.16 148.73 202.69 151.22 C 203.84 155.86 204.36 160.63 205.11 165.35 C 205.04 167.25 204.89 169.14 204.76 171.04 C 203.16 167.90 201.55 164.49 198.39 162.62 C 192.68 159.09 186.78 155.77 180.51 153.34 C 178.03 152.21 175.32 152.80 172.81 153.46 C 174.77 149.55 176.15 145.37 176.94 141.07 Z" />
</g>
<g id="#745617ff">
<path fill="#745617" opacity="1.00" d=" M 215.58 141.97 C 216.76 143.65 217.94 145.34 219.01 147.09 C 218.96 156.74 219.27 166.39 219.20 176.03 C 217.18 175.70 215.16 175.39 213.13 175.08 C 212.63 165.07 213.06 155.05 212.92 145.03 C 213.81 144.01 214.69 142.99 215.58 141.97 Z" />
</g>
<g id="#a98532ff">
<path fill="#a98532" opacity="1.00" d=" M 92.03 147.74 C 96.23 148.06 99.34 144.89 103.10 143.67 C 107.30 142.59 109.86 146.70 112.28 149.34 C 101.93 149.76 91.56 148.95 81.24 149.90 C 80.90 149.13 80.56 148.36 80.21 147.60 C 84.15 147.65 88.09 147.74 92.03 147.74 Z" />
</g>
<g id="#84631fff">
<path fill="#84631f" opacity="1.00" d=" M 172.81 153.46 C 175.32 152.80 178.03 152.21 180.51 153.34 C 186.78 155.77 192.68 159.09 198.39 162.62 C 201.55 164.49 203.16 167.90 204.76 171.04 C 199.51 174.22 194.10 177.13 188.77 180.15 C 187.76 177.42 186.30 174.68 183.42 173.58 C 176.33 170.29 169.13 165.39 160.93 166.64 C 165.86 163.27 170.11 158.81 172.81 153.46 Z" />
</g>
<g id="#9d7a2eff">
<path fill="#9d7a2e" opacity="1.00" d=" M 83.70 153.99 C 88.35 152.65 93.20 152.33 98.01 152.63 C 107.44 153.16 116.99 152.14 126.30 154.08 C 112.11 154.39 97.89 154.52 83.70 153.99 Z" />
</g>
<g id="#9c792cff">
<path fill="#9c792c" opacity="1.00" d=" M 84.88 156.66 C 87.34 156.51 89.80 156.35 92.27 156.29 C 95.21 156.47 98.28 156.16 101.11 157.11 C 104.10 158.62 106.37 161.15 109.01 163.17 C 112.96 164.19 117.12 164.16 121.05 165.32 C 120.71 168.31 118.21 170.16 116.12 172.00 C 114.73 171.08 113.36 170.15 111.93 169.31 C 107.17 167.10 101.70 167.30 96.93 165.13 C 92.31 163.28 88.43 160.07 84.88 156.66 Z" />
</g>
<g id="#755618ff">
<path fill="#755618" opacity="1.00" d=" M 125.29 156.08 C 126.53 156.16 127.78 156.24 129.03 156.33 C 129.89 165.23 129.05 174.17 129.30 183.08 C 129.10 185.71 130.81 187.78 132.31 189.72 C 132.87 191.16 133.36 192.63 133.86 194.10 C 131.47 195.69 128.99 197.13 126.42 198.38 C 125.23 184.59 126.17 170.72 125.27 156.91 L 125.29 156.08 Z" />
<path fill="#755618" opacity="1.00" d=" M 97.64 174.93 C 101.03 176.87 103.37 180.09 106.50 182.34 C 109.89 182.96 113.36 182.74 116.79 182.95 C 116.63 192.74 116.91 202.55 116.41 212.33 C 115.82 211.32 115.20 210.28 115.29 209.07 C 114.89 201.12 114.64 193.17 114.62 185.22 C 111.64 184.81 108.60 184.79 105.66 184.16 C 102.08 182.12 98.99 178.88 97.64 174.93 Z" />
</g>
<g id="#64470fff">
<path fill="#64470f" opacity="1.00" d=" M 125.27 156.91 C 126.17 170.72 125.23 184.59 126.42 198.38 C 128.99 197.13 131.47 195.69 133.86 194.10 C 133.36 192.63 132.87 191.16 132.31 189.72 C 137.44 194.02 142.17 198.79 146.37 204.00 C 140.02 208.23 133.48 212.19 126.76 215.80 C 126.31 215.82 125.41 215.87 124.96 215.89 C 125.31 205.93 125.21 195.96 125.09 186.00 C 124.98 176.30 124.27 166.58 125.27 156.91 Z" />
</g>
<g id="#896822ff">
<path fill="#896822" opacity="1.00" d=" M 109.01 163.17 C 113.41 163.23 117.81 163.24 122.21 163.28 C 122.69 171.47 122.34 179.68 122.35 187.88 C 121.69 188.91 121.04 189.95 120.40 190.99 C 120.26 187.52 119.98 184.05 119.51 180.61 C 115.48 180.34 111.32 180.76 107.39 179.69 C 104.58 178.10 102.67 175.38 100.57 173.01 C 104.28 173.03 107.99 172.99 111.70 172.86 C 111.77 171.68 111.85 170.49 111.93 169.31 C 113.36 170.15 114.73 171.08 116.12 172.00 C 118.21 170.16 120.71 168.31 121.05 165.32 C 117.12 164.16 112.96 164.19 109.01 163.17 Z" />
</g>
<g id="#957328ff">
<path fill="#957328" opacity="1.00" d=" M 160.93 166.64 C 169.13 165.39 176.33 170.29 183.42 173.58 C 186.30 174.68 187.76 177.42 188.77 180.15 C 187.43 180.97 186.12 181.82 184.81 182.68 C 175.30 187.46 166.53 193.55 156.96 198.20 C 156.44 189.47 156.46 180.70 156.74 171.97 C 156.56 169.30 159.09 167.98 160.93 166.64 Z" />
</g>
<g id="#886722ff">
<path fill="#886722" opacity="1.00" d=" M 213.13 175.08 C 215.16 175.39 217.18 175.70 219.20 176.03 C 218.96 178.14 218.03 180.08 216.02 180.99 C 208.15 185.42 200.40 190.07 192.41 194.27 C 192.35 193.72 192.23 192.62 192.18 192.07 C 189.76 191.89 187.34 191.69 184.92 191.68 C 194.06 185.71 203.97 181.02 213.13 175.08 Z" />
</g>
<g id="#6d4f14ff">
<path fill="#6d4f14" opacity="1.00" d=" M 131.81 176.94 C 133.84 178.39 135.69 180.24 138.08 181.10 C 142.26 181.70 146.51 181.30 150.71 181.33 C 150.65 188.57 151.09 195.85 150.18 203.07 C 146.09 199.08 142.22 194.85 137.92 191.08 C 135.82 189.12 133.46 187.33 131.94 184.85 C 131.32 182.26 131.73 179.57 131.81 176.94 Z" />
</g>
<g id="#6c4e13ff">
<path fill="#6c4e13" opacity="1.00" d=" M 119.51 180.61 C 119.98 184.05 120.26 187.52 120.40 190.99 C 121.04 189.95 121.69 188.91 122.35 187.88 C 122.01 197.24 123.60 206.83 121.00 215.98 C 119.77 213.17 119.13 210.13 119.28 207.05 C 119.50 198.24 119.14 189.42 119.51 180.61 Z" />
</g>
<g id="#78591aff">
<path fill="#78591a" opacity="1.00" d=" M 97.91 181.48 C 100.19 183.04 102.17 185.00 104.48 186.52 C 107.00 187.59 109.84 187.36 112.52 187.61 C 112.62 195.04 112.48 202.48 112.55 209.92 C 108.16 207.50 103.64 205.30 99.43 202.57 C 97.70 201.76 97.91 199.64 97.71 198.06 C 97.50 192.53 97.53 186.99 97.91 181.48 Z" />
</g>
<g id="#ad8834ff">
<path fill="#ad8834" opacity="1.00" d=" M 184.92 191.68 C 187.34 191.69 189.76 191.89 192.18 192.07 C 192.23 192.62 192.35 193.72 192.41 194.27 C 185.63 197.73 179.35 202.06 172.68 205.71 C 156.94 214.93 141.02 223.83 125.38 233.22 C 124.43 230.68 124.40 227.97 125.30 225.43 C 129.92 223.08 134.33 220.37 138.82 217.80 C 150.37 211.49 161.72 204.82 173.15 198.30 C 177.20 196.33 181.04 193.96 184.92 191.68 Z" />
</g>
<g id="#bcbcbcff">
<path fill="#bcbcbc" opacity="1.00" d=" M 0.00 248.71 C 83.00 248.70 166.00 248.67 249.00 248.73 L 249.00 250.00 L 0.00 250.00 L 0.00 248.71 Z" />
</g>
</svg>
