<?xml version="1.0" encoding="UTF-8" ?>
<!DOCTYPE svg PUBLIC "-//W3C//DTD SVG 1.1//EN" "http://www.w3.org/Graphics/SVG/1.1/DTD/svg11.dtd">
<svg width="250pt" height="248pt" viewBox="0 0 250 248" version="1.1" xmlns="http://www.w3.org/2000/svg">
<g id="#ffffffff">
<path fill="#ffffff" opacity="1.00" d=" M 0.00 0.00 L 68.93 0.00 C 56.18 14.90 43.26 29.64 30.46 44.49 C 28.66 46.66 26.39 48.54 25.17 51.12 C 26.04 55.15 27.73 58.95 29.00 62.86 C 34.92 80.06 41.02 97.20 46.82 114.44 C 53.98 116.20 61.29 117.23 68.51 118.69 C 67.51 115.12 66.57 111.53 65.67 107.94 C 64.78 104.33 63.92 100.72 62.95 97.13 C 58.56 80.76 54.66 64.26 50.52 47.82 C 60.19 41.86 70.18 36.46 79.99 30.75 C 85.32 27.84 90.38 24.43 95.94 21.97 C 101.10 41.37 105.53 60.97 110.77 80.35 C 114.37 76.73 117.18 72.40 121.07 69.06 C 123.47 77.48 125.86 85.92 127.91 94.44 C 127.73 95.60 127.77 96.91 126.90 97.82 C 123.87 101.59 120.43 105.04 117.57 108.94 C 117.78 112.46 119.14 115.76 120.28 119.06 C 132.21 105.37 144.06 91.61 155.97 77.91 C 157.55 76.63 156.52 74.54 156.11 72.96 C 149.09 52.90 142.14 32.81 135.19 12.72 C 113.28 8.50 91.32 4.47 69.46 0.00 L 250.00 0.00 L 250.00 248.00 L 88.55 248.00 C 103.24 231.12 117.92 214.23 132.50 197.24 C 130.30 191.52 128.47 185.67 126.33 179.93 C 122.91 181.87 119.45 183.73 116.01 185.64 C 107.24 190.32 98.86 195.79 89.77 199.84 C 85.51 184.85 81.44 169.81 77.26 154.81 C 73.90 157.99 71.22 161.80 67.93 165.06 C 65.47 157.81 63.97 150.30 61.84 142.96 C 60.59 140.04 63.16 137.79 64.73 135.69 C 66.78 132.56 70.71 130.04 70.52 125.94 C 61.94 124.80 53.57 122.45 45.00 121.33 C 43.66 120.97 43.00 122.45 42.20 123.19 C 28.22 139.50 14.06 155.68 0.03 171.96 C 7.32 193.11 14.84 214.20 21.95 235.41 C 43.37 239.88 64.95 243.65 86.40 248.00 L 0.00 248.00 L 0.00 0.00 M 122.28 126.01 C 122.96 131.11 124.73 136.02 126.32 140.90 C 127.68 140.39 129.04 139.86 130.33 139.18 C 145.16 131.23 159.72 122.77 174.52 114.76 C 181.13 111.21 187.40 106.91 194.32 103.98 C 197.96 114.88 200.95 126.00 203.75 137.14 C 194.29 142.64 184.34 147.43 175.16 153.34 C 172.16 154.31 169.59 156.18 166.82 157.62 C 155.63 163.70 144.58 170.05 133.31 175.97 C 135.22 182.23 137.58 188.36 139.58 194.60 C 161.63 199.32 183.87 203.19 206.00 207.52 C 219.80 191.49 233.69 175.53 247.54 159.54 C 249.95 157.42 248.94 153.85 248.16 151.20 C 241.79 132.79 235.38 114.40 229.02 96.00 C 228.52 94.90 228.43 93.36 227.18 92.81 C 205.36 88.63 183.54 84.50 161.74 80.22 C 148.66 95.55 135.23 110.58 122.28 126.01 Z" />
</g>
<g id="#2ab643ff">
<path fill="#2ab643" opacity="1.00" d=" M 68.93 0.00 L 69.46 0.00 C 91.32 4.47 113.28 8.50 135.19 12.72 C 142.14 32.81 149.09 52.90 156.11 72.96 C 156.52 74.54 157.55 76.63 155.97 77.91 C 144.06 91.61 132.21 105.37 120.28 119.06 C 119.14 115.76 117.78 112.46 117.57 108.94 C 120.43 105.04 123.87 101.59 126.90 97.82 C 127.77 96.91 127.73 95.60 127.91 94.44 C 133.84 89.17 138.45 82.63 143.88 76.86 C 145.26 75.48 146.31 73.62 145.24 71.71 C 139.25 54.98 133.76 38.06 127.57 21.41 C 115.87 18.96 104.11 16.83 92.38 14.57 C 85.97 13.37 79.62 11.81 73.12 11.21 C 74.98 17.86 77.22 24.42 79.99 30.75 C 70.18 36.46 60.19 41.86 50.52 47.82 C 54.66 64.26 58.56 80.76 62.95 97.13 C 59.63 99.47 56.95 102.56 54.85 106.02 C 58.41 106.91 62.02 107.55 65.67 107.94 C 66.57 111.53 67.51 115.12 68.51 118.69 C 61.29 117.23 53.98 116.20 46.82 114.44 C 41.02 97.20 34.92 80.06 29.00 62.86 C 27.73 58.95 26.04 55.15 25.17 51.12 C 26.39 48.54 28.66 46.66 30.46 44.49 C 43.26 29.64 56.18 14.90 68.93 0.00 Z" />
<path fill="#2ab643" opacity="1.00" d=" M 122.28 126.01 C 135.23 110.58 148.66 95.55 161.74 80.22 C 183.54 84.50 205.36 88.63 227.18 92.81 C 228.43 93.36 228.52 94.90 229.02 96.00 C 235.38 114.40 241.79 132.79 248.16 151.20 C 248.94 153.85 249.95 157.42 247.54 159.54 C 233.69 175.53 219.80 191.49 206.00 207.52 C 183.87 203.19 161.63 199.32 139.58 194.60 C 137.58 188.36 135.22 182.23 133.31 175.97 C 144.58 170.05 155.63 163.70 166.82 157.62 C 169.59 156.18 172.16 154.31 175.16 153.34 C 166.62 164.78 156.32 174.79 147.63 186.11 C 163.23 189.58 179.03 192.18 194.69 195.37 C 197.08 195.83 199.45 196.51 201.90 196.57 C 203.50 195.64 204.57 194.07 205.79 192.72 C 216.35 180.27 227.24 168.10 237.79 155.65 C 239.34 154.15 237.95 152.06 237.54 150.39 C 231.60 134.22 226.39 117.78 220.40 101.62 C 202.26 98.06 184.12 94.45 165.92 91.19 C 166.85 96.12 169.01 100.68 170.53 105.43 C 171.62 108.63 172.38 112.04 174.52 114.76 C 159.72 122.77 145.16 131.23 130.33 139.18 C 129.04 139.86 127.68 140.39 126.32 140.90 C 124.73 136.02 122.96 131.11 122.28 126.01 Z" />
<path fill="#2ab643" opacity="1.00" d=" M 42.20 123.19 C 43.00 122.45 43.66 120.97 45.00 121.33 C 53.57 122.45 61.94 124.80 70.52 125.94 C 70.71 130.04 66.78 132.56 64.73 135.69 C 59.47 133.44 53.70 132.82 48.08 132.08 C 52.95 146.73 58.18 161.26 63.19 175.86 C 64.12 178.81 65.66 181.68 65.77 184.81 C 63.66 188.25 60.59 190.95 58.07 194.07 C 48.78 205.10 38.94 215.67 29.92 226.93 C 46.59 230.50 63.40 233.31 80.10 236.75 C 82.07 237.02 84.63 238.10 85.98 235.97 C 97.12 223.11 108.23 210.23 119.40 197.39 C 122.65 194.07 118.91 189.53 117.89 185.95 C 117.42 185.87 116.48 185.71 116.01 185.64 C 119.45 183.73 122.91 181.87 126.33 179.93 C 128.47 185.67 130.30 191.52 132.50 197.24 C 117.92 214.23 103.24 231.12 88.55 248.00 L 86.40 248.00 C 64.95 243.65 43.37 239.88 21.95 235.41 C 14.84 214.20 7.32 193.11 0.03 171.96 C 14.06 155.68 28.22 139.50 42.20 123.19 Z" />
</g>
<g id="#068211ff">
<path fill="#068211" opacity="1.00" d=" M 73.12 11.21 C 79.62 11.81 85.97 13.37 92.38 14.57 C 104.11 16.83 115.87 18.96 127.57 21.41 C 133.76 38.06 139.25 54.98 145.24 71.71 C 146.31 73.62 145.26 75.48 143.88 76.86 C 138.45 82.63 133.84 89.17 127.91 94.44 C 125.86 85.92 123.47 77.48 121.07 69.06 C 117.18 72.40 114.37 76.73 110.77 80.35 C 105.53 60.97 101.10 41.37 95.94 21.97 C 90.38 24.43 85.32 27.84 79.99 30.75 C 77.22 24.42 74.98 17.86 73.12 11.21 Z" />
<path fill="#068211" opacity="1.00" d=" M 165.92 91.19 C 184.12 94.45 202.26 98.06 220.40 101.62 C 226.39 117.78 231.60 134.22 237.54 150.39 C 237.95 152.06 239.34 154.15 237.79 155.65 C 227.24 168.10 216.35 180.27 205.79 192.72 C 204.57 194.07 203.50 195.64 201.90 196.57 C 199.45 196.51 197.08 195.83 194.69 195.37 C 179.03 192.18 163.23 189.58 147.63 186.11 C 156.32 174.79 166.62 164.78 175.16 153.34 C 184.34 147.43 194.29 142.64 203.75 137.14 C 200.95 126.00 197.96 114.88 194.32 103.98 C 187.40 106.91 181.13 111.21 174.52 114.76 C 172.38 112.04 171.62 108.63 170.53 105.43 C 169.01 100.68 166.85 96.12 165.92 91.19 Z" />
<path fill="#068211" opacity="1.00" d=" M 54.85 106.02 C 56.95 102.56 59.63 99.47 62.95 97.13 C 63.92 100.72 64.78 104.33 65.67 107.94 C 62.02 107.55 58.41 106.91 54.85 106.02 Z" />
<path fill="#068211" opacity="1.00" d=" M 48.08 132.08 C 53.70 132.82 59.47 133.44 64.73 135.69 C 63.16 137.79 60.59 140.04 61.84 142.96 C 63.97 150.30 65.47 157.81 67.93 165.06 C 71.22 161.80 73.90 157.99 77.26 154.81 C 81.44 169.81 85.51 184.85 89.77 199.84 C 98.86 195.79 107.24 190.32 116.01 185.64 C 116.48 185.71 117.42 185.87 117.89 185.95 C 118.91 189.53 122.65 194.07 119.40 197.39 C 108.23 210.23 97.12 223.11 85.98 235.97 C 84.63 238.10 82.07 237.02 80.10 236.75 C 63.40 233.31 46.59 230.50 29.92 226.93 C 38.94 215.67 48.78 205.10 58.07 194.07 C 60.59 190.95 63.66 188.25 65.77 184.81 C 65.66 181.68 64.12 178.81 63.19 175.86 C 58.18 161.26 52.95 146.73 48.08 132.08 Z" />
</g>
</svg>
