<?xml version="1.0" encoding="UTF-8" ?>
<!DOCTYPE svg PUBLIC "-//W3C//DTD SVG 1.1//EN" "http://www.w3.org/Graphics/SVG/1.1/DTD/svg11.dtd">
<svg width="250pt" height="214pt" viewBox="0 0 250 214" version="1.1" xmlns="http://www.w3.org/2000/svg">
<g id="#ffffffff">
<path fill="#ffffff" opacity="1.00" d=" M 0.00 0.00 L 250.00 0.00 L 250.00 214.00 L 0.00 214.00 L 0.00 0.00 M 73.29 12.27 C 72.89 15.84 72.63 19.42 72.74 23.01 C 72.96 35.03 72.70 47.05 72.79 59.07 C 73.14 60.81 72.40 63.61 74.60 64.26 C 79.00 65.16 83.54 64.55 88.00 64.64 C 130.00 64.61 172.00 64.64 214.00 64.62 C 220.01 64.55 226.07 65.18 232.02 64.01 C 233.35 55.40 232.26 46.67 232.59 38.00 C 232.25 29.34 233.37 20.60 232.01 12.00 C 225.72 10.92 219.34 11.57 213.00 11.47 C 168.31 11.41 123.63 11.56 78.94 11.39 C 77.03 11.45 75.15 11.86 73.29 12.27 M 11.52 82.96 C 11.52 99.66 11.49 116.35 11.54 133.05 C 18.33 133.97 25.18 133.37 32.01 133.51 C 42.18 133.26 52.39 134.07 62.53 133.08 C 62.54 116.38 62.54 99.68 62.53 82.99 C 56.71 82.27 50.85 82.64 45.00 82.59 C 33.85 82.83 22.66 82.09 11.52 82.96 M 73.99 82.98 C 73.22 89.63 73.71 96.33 73.61 103.00 C 73.80 113.05 73.17 123.12 73.94 133.15 C 78.61 133.65 83.31 133.60 88.00 133.52 C 115.00 133.50 142.00 133.52 169.00 133.51 C 174.86 133.47 180.73 133.81 186.57 133.16 C 186.59 116.43 186.62 99.70 186.55 82.98 C 180.72 82.30 174.85 82.64 169.00 82.60 C 142.00 82.57 115.00 82.61 88.00 82.58 C 83.33 82.51 78.64 82.44 73.99 82.98 M 74.17 152.44 C 73.61 155.25 73.27 158.10 73.36 160.97 C 73.51 168.98 73.46 176.99 73.47 185.00 C 73.52 191.01 72.98 197.06 73.97 203.02 C 79.92 204.13 85.99 203.59 92.00 203.64 C 102.79 203.43 113.60 204.11 124.38 203.35 C 125.05 197.58 124.74 191.78 124.73 186.00 C 124.48 174.88 125.24 163.73 124.42 152.62 C 116.62 151.98 108.81 152.55 101.00 152.39 C 92.06 152.49 83.11 152.18 74.17 152.44 Z" />
</g>
<g id="#abebf4ff">
<path fill="#abebf4" opacity="1.00" d=" M 73.29 12.27 C 75.15 11.86 77.03 11.45 78.94 11.39 C 123.63 11.56 168.31 11.41 213.00 11.47 C 219.34 11.57 225.72 10.92 232.01 12.00 C 233.37 20.60 232.25 29.34 232.59 38.00 C 232.26 46.67 233.35 55.40 232.02 64.01 C 226.07 65.18 220.01 64.55 214.00 64.62 C 172.00 64.64 130.00 64.61 88.00 64.64 C 83.54 64.55 79.00 65.16 74.60 64.26 C 72.40 63.61 73.14 60.81 72.79 59.07 C 72.70 47.05 72.96 35.03 72.74 23.01 C 72.63 19.42 72.89 15.84 73.29 12.27 M 74.48 13.65 C 74.34 30.15 74.15 46.66 74.59 63.16 C 123.72 63.54 172.86 63.15 222.00 63.35 C 224.86 63.37 227.72 63.23 230.57 62.98 C 230.67 46.59 230.58 30.20 230.62 13.81 C 227.75 13.58 224.88 13.43 222.00 13.46 C 172.83 13.66 123.65 13.29 74.48 13.65 Z" />
<path fill="#abebf4" opacity="1.00" d=" M 74.17 152.44 C 83.11 152.18 92.06 152.49 101.00 152.39 C 108.81 152.55 116.62 151.98 124.42 152.62 C 125.24 163.73 124.48 174.88 124.73 186.00 C 124.74 191.78 125.05 197.58 124.38 203.35 C 113.60 204.11 102.79 203.43 92.00 203.64 C 85.99 203.59 79.92 204.13 73.97 203.02 C 72.98 197.06 73.52 191.01 73.47 185.00 C 73.46 176.99 73.51 168.98 73.36 160.97 C 73.27 158.10 73.61 155.25 74.17 152.44 Z" />
</g>
<g id="#02a5c2ff">
<path fill="#02a5c2" opacity="1.00" d=" M 74.48 13.65 C 123.65 13.29 172.83 13.66 222.00 13.46 C 224.88 13.43 227.75 13.58 230.62 13.81 C 230.58 30.20 230.67 46.59 230.57 62.98 C 227.72 63.23 224.86 63.37 222.00 63.35 C 172.86 63.15 123.72 63.54 74.59 63.16 C 74.15 46.66 74.34 30.15 74.48 13.65 Z" />
</g>
<g id="#5fcadeff">
<path fill="#5fcade" opacity="1.00" d=" M 11.52 82.96 C 22.66 82.09 33.85 82.83 45.00 82.59 C 50.85 82.64 56.71 82.27 62.53 82.99 C 62.54 99.68 62.54 116.38 62.53 133.08 C 52.39 134.07 42.18 133.26 32.01 133.51 C 25.18 133.37 18.33 133.97 11.54 133.05 C 11.49 116.35 11.52 99.66 11.52 82.96 Z" />
<path fill="#5fcade" opacity="1.00" d=" M 73.99 82.98 C 78.64 82.44 83.33 82.51 88.00 82.58 C 115.00 82.61 142.00 82.57 169.00 82.60 C 174.85 82.64 180.72 82.30 186.55 82.98 C 186.62 99.70 186.59 116.43 186.57 133.16 C 180.73 133.81 174.86 133.47 169.00 133.51 C 142.00 133.52 115.00 133.50 88.00 133.52 C 83.31 133.60 78.61 133.65 73.94 133.15 C 73.17 123.12 73.80 113.05 73.61 103.00 C 73.71 96.33 73.22 89.63 73.99 82.98 Z" />
</g>
</svg>
