<?xml version="1.0" encoding="UTF-8" ?>
<!DOCTYPE svg PUBLIC "-//W3C//DTD SVG 1.1//EN" "http://www.w3.org/Graphics/SVG/1.1/DTD/svg11.dtd">
<svg width="250pt" height="250pt" viewBox="0 0 250 250" version="1.1" xmlns="http://www.w3.org/2000/svg">
<g id="#ffffffff">
<path fill="#ffffff" opacity="1.00" d=" M 0.00 0.00 L 97.95 0.00 C 94.17 1.91 90.11 3.10 86.04 4.20 C 61.00 12.00 39.10 28.51 23.31 49.31 C 14.05 61.42 7.07 75.30 3.10 90.04 C 2.40 92.78 1.21 95.36 0.00 97.92 L 0.00 0.00 Z" />
<path fill="#ffffff" opacity="1.00" d=" M 152.09 0.00 L 250.00 0.00 L 250.00 97.84 C 248.97 95.58 247.89 93.33 247.24 90.92 C 244.04 78.61 238.64 66.93 231.69 56.30 C 215.63 32.19 191.78 12.88 163.99 4.17 C 159.92 3.08 155.83 1.97 152.09 0.00 Z" />
<path fill="#ffffff" opacity="1.00" d=" M 0.00 149.32 C 1.05 151.74 2.33 154.06 3.42 156.47 C 3.84 160.59 5.36 164.45 6.67 168.33 C 7.80 173.60 10.58 178.26 13.08 182.96 C 28.12 211.67 54.48 234.20 85.03 244.91 C 90.55 247.18 97.16 246.06 102.02 250.00 L 0.00 250.00 L 0.00 149.32 Z" />
<path fill="#ffffff" opacity="1.00" d=" M 246.51 163.61 C 246.91 158.64 247.62 153.66 250.00 149.20 L 250.00 250.00 L 149.39 250.00 C 149.99 249.21 150.57 248.41 151.16 247.62 C 169.44 245.68 185.84 236.22 200.40 225.53 C 207.70 220.96 213.04 214.09 219.22 208.22 C 226.07 200.55 231.44 191.70 237.07 183.12 C 238.66 180.86 239.06 178.09 239.58 175.44 C 240.49 174.93 241.86 174.74 242.06 173.50 C 243.44 168.08 244.55 162.59 245.57 157.10 C 245.73 159.29 246.00 161.48 246.51 163.61 Z" />
</g>
<g id="#b0cae4ff">
<path fill="#b0cae4" opacity="1.00" d=" M 97.95 0.00 L 104.09 0.00 C 100.68 2.73 96.39 3.49 92.22 4.23 C 61.35 12.46 33.86 33.00 17.57 60.53 C 10.97 71.90 5.48 84.13 3.17 97.14 C 2.75 99.43 1.23 101.26 0.00 103.16 L 0.00 97.92 C 1.21 95.36 2.40 92.78 3.10 90.04 C 7.07 75.30 14.05 61.42 23.31 49.31 C 39.10 28.51 61.00 12.00 86.04 4.20 C 90.11 3.10 94.17 1.91 97.95 0.00 Z" />
</g>
<g id="#638ec5ff">
<path fill="#638ec5" opacity="1.00" d=" M 104.09 0.00 L 112.16 0.00 C 111.72 1.00 111.28 2.00 110.84 3.00 C 102.81 4.22 94.57 4.72 86.95 7.75 C 74.17 11.55 62.59 18.35 51.47 25.54 C 37.48 36.11 25.34 49.37 16.95 64.82 C 12.16 72.96 9.11 81.93 6.06 90.82 C 4.66 94.80 4.52 99.05 4.35 103.23 C 3.92 105.10 3.49 106.98 3.20 108.89 C 2.12 109.42 1.05 109.98 0.00 110.57 L 0.00 103.16 C 1.23 101.26 2.75 99.43 3.17 97.14 C 5.48 84.13 10.97 71.90 17.57 60.53 C 33.86 33.00 61.35 12.46 92.22 4.23 C 96.39 3.49 100.68 2.73 104.09 0.00 Z" />
<path fill="#638ec5" opacity="1.00" d=" M 137.54 0.00 L 147.03 0.00 C 149.40 1.53 151.88 2.98 154.70 3.48 C 193.00 12.38 225.98 40.85 240.70 77.27 C 243.26 84.62 245.45 92.11 247.88 99.50 C 247.97 99.64 248.14 99.91 248.22 100.05 L 248.70 100.57 C 248.83 100.69 249.07 100.94 249.20 101.07 L 250.00 101.86 L 250.00 112.46 C 248.89 111.91 247.77 111.37 246.64 110.87 C 246.50 109.86 246.33 108.87 246.15 107.87 C 245.60 103.38 245.60 98.81 244.51 94.41 C 239.80 77.37 232.16 60.89 220.67 47.36 C 205.80 28.58 185.03 14.70 162.22 7.51 C 154.88 4.56 146.90 4.29 139.18 3.06 C 138.65 2.03 138.11 1.01 137.54 0.00 Z" />
</g>
<g id="#1657a1ff">
<path fill="#1657a1" opacity="1.00" d=" M 112.16 0.00 L 137.54 0.00 C 138.11 1.01 138.65 2.03 139.18 3.06 C 129.75 2.55 120.27 2.57 110.84 3.00 C 111.28 2.00 111.72 1.00 112.16 0.00 Z" />
<path fill="#1657a1" opacity="1.00" d=" M 246.64 110.87 C 247.77 111.37 248.89 111.91 250.00 112.46 L 250.00 137.92 C 248.88 138.29 247.76 138.68 246.65 139.06 C 246.81 129.67 246.81 120.26 246.64 110.87 Z" />
</g>
<g id="#b3cbe5ff">
<path fill="#b3cbe5" opacity="1.00" d=" M 147.03 0.00 L 152.09 0.00 C 155.83 1.97 159.92 3.08 163.99 4.17 C 191.78 12.88 215.63 32.19 231.69 56.30 C 238.64 66.93 244.04 78.61 247.24 90.92 C 247.89 93.33 248.97 95.58 250.00 97.84 L 250.00 101.86 L 249.20 101.07 C 249.07 100.94 248.83 100.69 248.70 100.57 L 248.22 100.05 C 248.14 99.91 247.97 99.64 247.88 99.50 C 245.45 92.11 243.26 84.62 240.70 77.27 C 225.98 40.85 193.00 12.38 154.70 3.48 C 151.88 2.98 149.40 1.53 147.03 0.00 Z" />
</g>
<g id="#3e4386ff">
<path fill="#3e4386" opacity="1.00" d=" M 86.95 7.75 C 94.57 4.72 102.81 4.22 110.84 3.00 C 120.27 2.57 129.75 2.55 139.18 3.06 C 146.90 4.29 154.88 4.56 162.22 7.51 C 185.03 14.70 205.80 28.58 220.67 47.36 C 232.16 60.89 239.80 77.37 244.51 94.41 C 245.60 98.81 245.60 103.38 246.15 107.87 C 242.14 99.66 243.07 89.84 237.63 82.21 C 233.17 71.58 227.81 61.29 220.98 51.98 C 212.03 40.67 201.42 30.58 189.17 22.92 C 182.00 16.95 173.14 13.66 164.54 10.35 C 158.19 7.80 151.35 7.00 144.78 5.21 C 140.30 3.99 135.64 3.69 131.01 3.69 C 121.35 3.75 111.47 3.00 102.12 5.98 C 91.28 8.12 80.41 11.18 70.94 17.06 C 65.39 20.00 60.07 23.35 54.91 26.92 C 47.13 32.30 40.46 39.07 33.91 45.86 C 32.02 47.64 30.05 49.36 28.42 51.40 C 19.61 63.07 12.62 76.17 8.37 90.19 C 7.31 94.62 6.43 99.13 4.35 103.23 C 4.52 99.05 4.66 94.80 6.06 90.82 C 9.11 81.93 12.16 72.96 16.95 64.82 C 25.34 49.37 37.48 36.11 51.47 25.54 C 62.59 18.35 74.17 11.55 86.95 7.75 Z" />
</g>
<g id="#742e63ff">
<path fill="#742e63" opacity="1.00" d=" M 102.12 5.98 C 111.47 3.00 121.35 3.75 131.01 3.69 C 135.64 3.69 140.30 3.99 144.78 5.21 C 151.35 7.00 158.19 7.80 164.54 10.35 C 173.14 13.66 182.00 16.95 189.17 22.92 C 184.87 20.97 180.67 18.81 176.48 16.65 C 170.46 13.57 163.99 11.56 157.57 9.49 C 152.39 7.87 146.93 7.61 141.67 6.37 C 129.09 3.45 115.93 4.37 103.45 7.31 C 92.03 8.37 81.70 13.59 70.94 17.06 C 80.41 11.18 91.28 8.12 102.12 5.98 Z" />
</g>
<g id="#b0163bff">
<path fill="#b0163b" opacity="1.00" d=" M 103.45 7.31 C 115.93 4.37 129.09 3.45 141.67 6.37 C 146.93 7.61 152.39 7.87 157.57 9.49 C 163.99 11.56 170.46 13.57 176.48 16.65 C 180.67 18.81 184.87 20.97 189.17 22.92 C 201.42 30.58 212.03 40.67 220.98 51.98 C 227.81 61.29 233.17 71.58 237.63 82.21 C 238.71 88.23 241.43 93.83 242.21 99.92 C 243.01 106.30 244.90 112.52 245.12 118.98 C 245.39 126.29 245.39 133.70 243.81 140.89 C 242.40 147.16 242.05 153.67 239.85 159.75 C 237.00 168.97 233.24 177.94 228.12 186.14 C 225.88 189.65 223.84 193.29 221.84 196.94 C 206.78 216.23 186.45 231.96 162.90 239.22 C 160.24 240.25 157.84 242.10 154.91 242.31 C 150.62 242.74 145.93 242.55 142.32 245.32 C 132.88 245.48 123.43 245.57 114.00 245.45 C 110.44 245.45 107.03 244.40 103.63 243.48 C 100.25 242.55 96.71 242.75 93.28 242.15 C 90.76 241.36 88.60 239.71 86.02 239.09 C 73.83 236.13 63.31 228.92 53.22 221.77 C 45.77 217.09 40.34 210.04 33.87 204.20 C 27.20 194.62 20.06 185.24 15.48 174.42 C 11.72 165.53 8.27 156.37 7.10 146.72 C 3.71 132.80 3.56 118.04 6.94 104.10 C 8.10 93.90 11.75 84.21 15.81 74.86 C 20.39 64.35 27.30 55.14 33.91 45.86 C 40.46 39.07 47.13 32.30 54.91 26.92 C 60.07 23.35 65.39 20.00 70.94 17.06 C 81.70 13.59 92.03 8.37 103.45 7.31 M 114.37 9.50 C 109.34 10.61 104.21 11.19 99.12 11.99 C 85.18 15.81 71.50 21.23 59.60 29.57 C 55.66 32.63 51.80 35.78 47.87 38.86 C 40.77 44.49 35.69 52.09 30.00 59.03 C 21.28 71.32 15.42 85.50 11.84 100.07 C 11.31 107.95 8.65 115.53 8.51 123.46 C 8.33 128.66 9.08 133.83 10.16 138.90 C 11.53 144.90 11.33 151.23 13.82 156.95 C 18.12 171.76 25.18 185.92 35.30 197.63 C 40.19 204.39 46.20 210.24 52.94 215.14 C 66.34 226.71 83.02 233.90 100.06 238.17 C 108.44 238.85 116.55 241.60 125.00 241.51 C 133.78 241.60 142.18 238.65 150.89 237.99 C 162.04 234.97 173.01 231.01 182.99 225.09 C 190.02 221.40 195.87 215.95 202.12 211.14 C 209.06 205.67 214.02 198.28 219.57 191.53 C 228.33 179.70 233.72 165.80 237.83 151.78 C 238.68 147.75 238.70 143.59 239.65 139.57 C 241.94 130.32 241.98 120.50 239.82 111.22 C 238.40 105.19 238.72 98.80 236.20 93.05 C 231.77 78.54 225.18 64.44 215.14 52.94 C 210.12 45.98 204.01 39.88 197.06 34.86 C 183.94 23.39 167.50 16.56 150.88 11.99 C 138.79 10.37 126.61 6.94 114.37 9.50 Z" />
</g>
<g id="#672b62ff">
<path fill="#672b62" opacity="1.00" d=" M 114.37 9.50 C 126.61 6.94 138.79 10.37 150.88 11.99 C 167.50 16.56 183.94 23.39 197.06 34.86 C 204.01 39.88 210.12 45.98 215.14 52.94 C 225.18 64.44 231.77 78.54 236.20 93.05 C 238.72 98.80 238.40 105.19 239.82 111.22 C 241.98 120.50 241.94 130.32 239.65 139.57 C 238.70 143.59 238.68 147.75 237.83 151.78 C 233.72 165.80 228.33 179.70 219.57 191.53 C 214.02 198.28 209.06 205.67 202.12 211.14 C 195.87 215.95 190.02 221.40 182.99 225.09 C 173.01 231.01 162.04 234.97 150.89 237.99 C 142.18 238.65 133.78 241.60 125.00 241.51 C 116.55 241.60 108.44 238.85 100.06 238.17 C 83.02 233.90 66.34 226.71 52.94 215.14 C 46.20 210.24 40.19 204.39 35.30 197.63 C 25.18 185.92 18.12 171.76 13.82 156.95 C 11.33 151.23 11.53 144.90 10.16 138.90 C 9.08 133.83 8.33 128.66 8.51 123.46 C 8.65 115.53 11.31 107.95 11.84 100.07 C 15.42 85.50 21.28 71.32 30.00 59.03 C 35.69 52.09 40.77 44.49 47.87 38.86 C 51.80 35.78 55.66 32.63 59.60 29.57 C 71.50 21.23 85.18 15.81 99.12 11.99 C 104.21 11.19 109.34 10.61 114.37 9.50 M 113.37 12.27 C 110.26 12.55 107.12 12.46 104.03 12.92 C 100.62 13.55 97.47 15.14 94.07 15.82 C 88.04 16.94 82.46 19.56 76.80 21.81 C 64.80 27.82 53.24 35.17 43.97 44.99 C 34.54 53.99 27.76 65.32 21.80 76.81 C 19.70 82.21 17.14 87.50 16.01 93.23 C 14.92 98.55 12.23 103.52 12.36 109.07 C 11.29 121.07 11.53 133.14 12.74 145.12 C 13.23 148.28 14.61 151.20 15.41 154.29 C 18.91 170.57 27.47 185.32 37.69 198.30 C 44.00 205.34 50.66 212.24 58.62 217.45 C 69.79 225.35 82.27 231.71 95.71 234.59 C 98.79 235.39 101.72 236.77 104.88 237.26 C 118.25 238.66 131.74 238.67 145.11 237.26 C 148.27 236.76 151.20 235.39 154.29 234.60 C 166.30 232.00 177.62 226.65 187.83 219.86 C 209.21 206.34 224.91 184.75 232.96 160.93 C 234.03 155.85 235.69 150.94 237.11 145.96 C 238.78 132.34 238.66 118.53 237.27 104.89 C 236.57 100.89 234.71 97.22 233.99 93.23 C 233.10 88.21 230.81 83.63 229.08 78.87 C 221.59 62.53 210.73 47.62 196.63 36.34 C 184.02 26.80 169.89 18.71 154.29 15.41 C 151.18 14.61 148.25 13.15 145.03 12.80 C 134.49 12.18 123.91 10.78 113.37 12.27 Z" />
</g>
<g id="#004a98ff">
<path fill="#004a98" opacity="1.00" d=" M 113.37 12.27 C 123.91 10.78 134.49 12.18 145.03 12.80 C 148.25 13.15 151.18 14.61 154.29 15.41 C 169.89 18.71 184.02 26.80 196.63 36.34 C 210.73 47.62 221.59 62.53 229.08 78.87 C 230.81 83.63 233.10 88.21 233.99 93.23 C 234.71 97.22 236.57 100.89 237.27 104.89 C 238.66 118.53 238.78 132.34 237.11 145.96 C 235.69 150.94 234.03 155.85 232.96 160.93 C 224.91 184.75 209.21 206.34 187.83 219.86 C 177.62 226.65 166.30 232.00 154.29 234.60 C 151.20 235.39 148.27 236.76 145.11 237.26 C 131.74 238.67 118.25 238.66 104.88 237.26 C 101.72 236.77 98.79 235.39 95.71 234.59 C 82.27 231.71 69.79 225.35 58.62 217.45 C 50.66 212.24 44.00 205.34 37.69 198.30 C 27.47 185.32 18.91 170.57 15.41 154.29 C 14.61 151.20 13.23 148.28 12.74 145.12 C 11.53 133.14 11.29 121.07 12.36 109.07 C 12.23 103.52 14.92 98.55 16.01 93.23 C 17.14 87.50 19.70 82.21 21.80 76.81 C 27.76 65.32 34.54 53.99 43.97 44.99 C 53.24 35.17 64.80 27.82 76.80 21.81 C 82.46 19.56 88.04 16.94 94.07 15.82 C 97.47 15.14 100.62 13.55 104.03 12.92 C 107.12 12.46 110.26 12.55 113.37 12.27 M 110.44 43.48 C 109.84 46.54 108.94 49.78 109.96 52.85 C 111.22 55.89 114.47 57.40 116.19 60.12 C 117.06 63.62 115.99 67.73 113.17 70.07 C 110.41 71.52 107.07 71.63 104.05 71.14 C 101.35 70.55 98.10 69.11 97.82 65.96 C 96.59 61.08 98.17 56.28 100.18 51.88 C 101.37 49.65 99.48 47.01 96.99 47.48 C 88.06 47.95 80.64 53.53 74.19 59.21 C 67.44 65.49 62.57 73.50 59.13 81.98 C 56.32 94.48 57.85 107.41 59.20 120.00 C 60.68 124.64 62.77 129.08 64.16 133.77 C 65.79 139.26 70.36 143.95 69.74 149.99 C 69.80 154.32 68.46 159.60 72.13 162.89 C 74.97 166.74 80.48 165.40 83.97 168.00 C 92.45 178.75 101.53 189.13 112.00 197.99 C 115.63 201.08 118.70 205.02 123.08 207.08 C 127.56 208.43 130.86 204.47 133.85 201.85 C 138.87 196.85 144.72 192.70 149.24 187.21 C 155.49 181.41 160.66 174.60 166.02 168.01 C 169.48 165.28 175.15 166.90 177.94 162.97 C 181.66 159.23 180.12 153.64 180.23 148.96 C 180.01 145.74 181.91 142.97 183.09 140.12 C 185.82 133.81 188.32 127.38 190.61 120.90 C 192.50 107.93 193.33 94.57 191.10 81.59 C 186.40 72.56 181.49 63.02 173.04 56.90 C 166.80 51.21 158.59 47.09 150.04 47.02 C 149.70 49.49 149.19 52.13 150.57 54.40 C 152.94 58.87 153.34 64.56 151.12 69.13 C 147.10 71.60 141.87 72.09 137.46 70.42 C 134.58 68.79 133.41 65.12 133.52 61.97 C 133.43 58.89 136.64 57.46 138.34 55.36 C 141.66 52.27 140.37 47.36 139.56 43.48 C 137.38 43.11 135.20 42.53 132.97 42.61 C 130.19 43.07 127.78 44.76 125.00 45.26 C 122.22 44.78 119.82 43.05 117.03 42.61 C 114.80 42.54 112.62 43.11 110.44 43.48 Z" />
</g>
<g id="#152c42ff">
<path fill="#152c42" opacity="1.00" d=" M 110.44 43.48 C 112.62 43.11 114.80 42.54 117.03 42.61 C 119.82 43.05 122.22 44.78 125.00 45.26 C 127.78 44.76 130.19 43.07 132.97 42.61 C 135.20 42.53 137.38 43.11 139.56 43.48 C 140.37 47.36 141.66 52.27 138.34 55.36 C 136.64 57.46 133.43 58.89 133.52 61.97 C 133.41 65.12 134.58 68.79 137.46 70.42 C 141.87 72.09 147.10 71.60 151.12 69.13 C 153.34 64.56 152.94 58.87 150.57 54.40 C 149.19 52.13 149.70 49.49 150.04 47.02 C 158.59 47.09 166.80 51.21 173.04 56.90 C 181.49 63.02 186.40 72.56 191.10 81.59 C 193.33 94.57 192.50 107.93 190.61 120.90 C 188.32 127.38 185.82 133.81 183.09 140.12 C 181.91 142.97 180.01 145.74 180.23 148.96 C 180.12 153.64 181.66 159.23 177.94 162.97 C 175.15 166.90 169.48 165.28 166.02 168.01 C 160.66 174.60 155.49 181.41 149.24 187.21 C 144.72 192.70 138.87 196.85 133.85 201.85 C 130.86 204.47 127.56 208.43 123.08 207.08 C 118.70 205.02 115.63 201.08 112.00 197.99 C 101.53 189.13 92.45 178.75 83.97 168.00 C 80.48 165.40 74.97 166.74 72.13 162.89 C 68.46 159.60 69.80 154.32 69.74 149.99 C 70.36 143.95 65.79 139.26 64.16 133.77 C 62.77 129.08 60.68 124.64 59.20 120.00 C 57.85 107.41 56.32 94.48 59.13 81.98 C 62.57 73.50 67.44 65.49 74.19 59.21 C 80.64 53.53 88.06 47.95 96.99 47.48 C 99.48 47.01 101.37 49.65 100.18 51.88 C 98.17 56.28 96.59 61.08 97.82 65.96 C 98.10 69.11 101.35 70.55 104.05 71.14 C 107.07 71.63 110.41 71.52 113.17 70.07 C 115.99 67.73 117.06 63.62 116.19 60.12 C 114.47 57.40 111.22 55.89 109.96 52.85 C 108.94 49.78 109.84 46.54 110.44 43.48 M 113.34 53.70 C 115.49 56.55 119.88 58.71 119.01 62.89 C 119.14 67.80 114.42 70.53 113.18 74.91 C 109.08 74.24 104.92 74.33 100.78 74.32 C 97.91 73.01 94.87 71.33 93.90 68.09 C 91.69 63.74 93.18 58.92 93.73 54.38 C 90.44 53.23 87.00 54.17 84.39 56.34 C 77.03 61.48 70.39 67.99 66.32 76.07 C 64.89 77.42 63.39 78.85 62.92 80.84 C 61.37 86.23 59.90 91.75 60.07 97.41 C 59.67 104.38 59.55 111.49 61.82 118.19 C 63.54 127.43 67.56 135.99 71.70 144.36 C 74.32 149.05 68.93 154.40 72.01 159.02 C 74.42 163.92 80.40 163.98 85.07 164.86 C 87.91 168.69 90.99 172.34 93.88 176.13 C 98.61 182.35 104.46 187.55 109.83 193.19 C 111.64 195.15 113.82 196.72 116.24 197.84 C 116.48 198.08 116.96 198.54 117.19 198.78 C 118.40 200.48 119.47 202.52 121.46 203.42 C 124.58 204.36 128.34 204.21 130.75 201.76 C 143.38 190.69 155.19 178.59 164.89 164.84 C 169.58 164.01 175.56 163.92 178.00 159.02 C 181.02 154.40 175.75 149.06 178.29 144.36 C 181.68 137.45 185.26 130.50 186.94 122.94 C 187.59 120.01 188.40 117.12 189.18 114.22 C 190.61 109.00 190.08 103.54 190.06 98.21 C 190.13 92.32 188.75 86.54 186.99 80.96 C 186.45 78.98 185.02 77.47 183.60 76.08 C 179.23 67.40 171.97 60.37 163.74 55.31 C 161.64 53.99 158.81 52.99 156.57 54.58 C 156.24 59.29 158.13 64.25 155.73 68.69 C 154.79 71.69 151.81 73.00 149.22 74.27 C 145.09 74.33 140.97 74.56 136.86 75.02 C 135.70 70.56 130.84 67.87 130.98 62.90 C 129.86 57.11 138.14 55.50 138.06 50.00 C 138.36 47.50 136.57 44.93 133.95 44.87 C 130.74 45.17 128.19 47.66 125.00 48.11 C 121.82 47.65 119.26 45.18 116.05 44.87 C 111.74 45.01 110.69 51.03 113.34 53.70 Z" />
</g>
<g id="#1d1e1cff">
<path fill="#1d1e1c" opacity="1.00" d=" M 113.34 53.70 C 110.69 51.03 111.74 45.01 116.05 44.87 C 119.26 45.18 121.82 47.65 125.00 48.11 C 128.19 47.66 130.74 45.17 133.95 44.87 C 136.57 44.93 138.36 47.50 138.06 50.00 C 138.14 55.50 129.86 57.11 130.98 62.90 C 130.84 67.87 135.70 70.56 136.86 75.02 C 137.53 80.15 142.78 81.81 146.61 84.09 C 144.61 85.86 142.76 87.78 140.85 89.64 C 138.71 87.38 136.83 84.88 135.21 82.23 C 131.39 83.75 128.71 87.18 125.00 88.78 C 121.30 87.17 118.61 83.76 114.79 82.23 C 113.18 84.90 111.32 87.41 109.15 89.64 C 107.24 87.78 105.39 85.86 103.39 84.09 C 107.38 81.94 112.53 80.10 113.18 74.91 C 114.42 70.53 119.14 67.80 119.01 62.89 C 119.88 58.71 115.49 56.55 113.34 53.70 Z" />
</g>
<g id="#633c7bff">
<path fill="#633c7b" opacity="1.00" d=" M 28.42 51.40 C 30.05 49.36 32.02 47.64 33.91 45.86 C 27.30 55.14 20.39 64.35 15.81 74.86 C 11.75 84.21 8.10 93.90 6.94 104.10 C 3.56 118.04 3.71 132.80 7.10 146.72 C 8.27 156.37 11.72 165.53 15.48 174.42 C 20.06 185.24 27.20 194.62 33.87 204.20 C 27.66 199.18 23.68 192.18 19.58 185.49 C 15.14 178.25 12.16 170.27 8.28 162.74 C 4.79 155.37 4.40 147.07 3.09 139.13 C 2.98 129.06 2.96 118.97 3.20 108.89 C 3.49 106.98 3.92 105.10 4.35 103.23 C 6.43 99.13 7.31 94.62 8.37 90.19 C 12.62 76.17 19.61 63.07 28.42 51.40 Z" />
</g>
<g id="#56575aff">
<path fill="#56575a" opacity="1.00" d=" M 84.39 56.34 C 87.00 54.17 90.44 53.23 93.73 54.38 C 93.18 58.92 91.69 63.74 93.90 68.09 C 94.87 71.33 97.91 73.01 100.78 74.32 C 102.99 75.72 106.42 76.67 106.84 79.65 C 104.90 80.84 102.77 81.69 100.68 82.59 C 99.67 82.09 98.66 81.61 97.66 81.10 C 94.93 79.64 92.18 78.14 89.80 76.14 C 87.02 73.82 85.44 70.47 83.65 67.41 C 78.74 69.59 74.99 73.56 72.03 77.95 C 69.25 81.59 66.75 85.42 64.14 89.19 C 62.24 84.72 64.87 80.24 66.32 76.07 C 70.39 67.99 77.03 61.48 84.39 56.34 M 78.85 62.85 C 75.15 66.23 71.04 69.90 70.13 75.09 C 75.54 73.61 77.52 67.00 83.03 65.67 C 85.42 65.47 85.98 68.42 87.25 69.89 C 89.89 74.22 94.52 79.61 100.17 77.04 C 96.77 73.99 92.99 71.09 91.13 66.78 C 89.26 63.45 90.35 59.56 90.61 55.98 C 85.92 56.64 82.40 60.03 78.85 62.85 Z" />
</g>
<g id="#57575aff">
<path fill="#57575a" opacity="1.00" d=" M 156.57 54.58 C 158.81 52.99 161.64 53.99 163.74 55.31 C 171.97 60.37 179.23 67.40 183.60 76.08 C 185.16 80.29 187.11 84.65 186.25 89.26 C 183.72 86.23 181.33 83.09 178.99 79.91 C 175.71 74.89 171.95 69.84 166.30 67.35 C 163.23 73.31 158.61 78.45 152.34 81.10 C 151.33 81.61 150.31 82.10 149.30 82.61 C 146.97 81.54 144.68 80.38 142.47 79.09 C 144.54 77.25 146.74 75.54 149.22 74.27 C 151.81 73.00 154.79 71.69 155.73 68.69 C 158.13 64.25 156.24 59.29 156.57 54.58 M 159.41 55.99 C 159.60 59.56 160.62 63.43 158.84 66.77 C 157.00 71.09 153.20 73.97 149.83 77.03 C 155.51 79.66 160.07 74.12 162.70 69.80 C 164.00 68.13 165.06 64.68 167.81 65.87 C 171.81 67.73 174.13 71.73 177.54 74.36 C 178.38 74.35 179.22 74.31 180.06 74.23 C 177.76 69.13 173.77 65.01 169.44 61.57 C 166.41 59.22 163.40 56.44 159.41 55.99 Z" />
</g>
<g id="#8f9091ff">
<path fill="#8f9091" opacity="1.00" d=" M 78.85 62.85 C 82.40 60.03 85.92 56.64 90.61 55.98 C 90.35 59.56 89.26 63.45 91.13 66.78 C 92.99 71.09 96.77 73.99 100.17 77.04 C 94.52 79.61 89.89 74.22 87.25 69.89 C 85.98 68.42 85.42 65.47 83.03 65.67 C 77.52 67.00 75.54 73.61 70.13 75.09 C 71.04 69.90 75.15 66.23 78.85 62.85 Z" />
<path fill="#8f9091" opacity="1.00" d=" M 159.41 55.99 C 163.40 56.44 166.41 59.22 169.44 61.57 C 173.77 65.01 177.76 69.13 180.06 74.23 C 179.22 74.31 178.38 74.35 177.54 74.36 C 174.13 71.73 171.81 67.73 167.81 65.87 C 165.06 64.68 164.00 68.13 162.70 69.80 C 160.07 74.12 155.51 79.66 149.83 77.03 C 153.20 73.97 157.00 71.09 158.84 66.77 C 160.62 63.43 159.60 59.56 159.41 55.99 Z" />
</g>
<g id="#1a1c1cff">
<path fill="#1a1c1c" opacity="1.00" d=" M 72.03 77.95 C 74.99 73.56 78.74 69.59 83.65 67.41 C 85.44 70.47 87.02 73.82 89.80 76.14 C 92.18 78.14 94.93 79.64 97.66 81.10 C 92.18 84.80 85.53 85.73 79.12 86.47 C 75.93 86.74 73.14 88.67 71.37 91.27 C 68.60 95.31 66.36 99.95 66.23 104.94 C 66.06 110.91 65.92 116.92 66.52 122.88 C 69.42 138.07 76.45 152.12 85.07 164.86 C 80.40 163.98 74.42 163.92 72.01 159.02 C 68.93 154.40 74.32 149.05 71.70 144.36 C 67.56 135.99 63.54 127.43 61.82 118.19 C 59.55 111.49 59.67 104.38 60.07 97.41 C 62.15 96.19 64.80 95.27 65.65 92.76 C 67.82 87.84 69.89 82.88 72.03 77.95 Z" />
<path fill="#1a1c1c" opacity="1.00" d=" M 152.34 81.10 C 158.61 78.45 163.23 73.31 166.30 67.35 C 171.95 69.84 175.71 74.89 178.99 79.91 C 181.94 86.34 182.92 94.89 190.06 98.21 C 190.08 103.54 190.61 109.00 189.18 114.22 C 188.40 117.12 187.59 120.01 186.94 122.94 C 185.26 130.50 181.68 137.45 178.29 144.36 C 175.75 149.06 181.02 154.40 178.00 159.02 C 175.56 163.92 169.58 164.01 164.89 164.84 C 171.71 154.42 178.18 143.48 181.38 131.33 C 183.13 126.41 183.94 121.22 183.78 116.00 C 183.61 109.46 184.79 102.46 181.62 96.43 C 179.62 92.23 176.81 87.37 171.75 86.62 C 165.07 85.72 158.07 85.00 152.34 81.10 Z" />
</g>
<g id="#3f3e3aff">
<path fill="#3f3e3a" opacity="1.00" d=" M 100.78 74.32 C 104.92 74.33 109.08 74.24 113.18 74.91 C 112.53 80.10 107.38 81.94 103.39 84.09 C 102.51 83.55 101.60 83.06 100.68 82.59 C 102.77 81.69 104.90 80.84 106.84 79.65 C 106.42 76.67 102.99 75.72 100.78 74.32 Z" />
<path fill="#3f3e3a" opacity="1.00" d=" M 136.86 75.02 C 140.97 74.56 145.09 74.33 149.22 74.27 C 146.74 75.54 144.54 77.25 142.47 79.09 C 144.68 80.38 146.97 81.54 149.30 82.61 C 148.39 83.07 147.49 83.56 146.61 84.09 C 142.78 81.81 137.53 80.15 136.86 75.02 Z" />
</g>
<g id="#373835ff">
<path fill="#373835" opacity="1.00" d=" M 62.92 80.84 C 63.39 78.85 64.89 77.42 66.32 76.07 C 64.87 80.24 62.24 84.72 64.14 89.19 C 66.75 85.42 69.25 81.59 72.03 77.95 C 69.89 82.88 67.82 87.84 65.65 92.76 C 64.80 95.27 62.15 96.19 60.07 97.41 C 59.90 91.75 61.37 86.23 62.92 80.84 Z" />
</g>
<g id="#373734ff">
<path fill="#373734" opacity="1.00" d=" M 183.60 76.08 C 185.02 77.47 186.45 78.98 186.99 80.96 C 188.75 86.54 190.13 92.32 190.06 98.21 C 182.92 94.89 181.94 86.34 178.99 79.91 C 181.33 83.09 183.72 86.23 186.25 89.26 C 187.11 84.65 185.16 80.29 183.60 76.08 Z" />
</g>
<g id="#86631cff">
<path fill="#86631c" opacity="1.00" d=" M 97.66 81.10 C 98.66 81.61 99.67 82.09 100.68 82.59 C 101.60 83.06 102.51 83.55 103.39 84.09 C 105.39 85.86 107.24 87.78 109.15 89.64 C 111.32 87.41 113.18 84.90 114.79 82.23 C 118.61 83.76 121.30 87.17 125.00 88.78 C 128.71 87.18 131.39 83.75 135.21 82.23 C 136.83 84.88 138.71 87.38 140.85 89.64 C 142.76 87.78 144.61 85.86 146.61 84.09 C 147.49 83.56 148.39 83.07 149.30 82.61 C 150.31 82.10 151.33 81.61 152.34 81.10 C 158.07 85.00 165.07 85.72 171.75 86.62 C 176.81 87.37 179.62 92.23 181.62 96.43 C 184.79 102.46 183.61 109.46 183.78 116.00 C 183.94 121.22 183.13 126.41 181.38 131.33 C 178.18 143.48 171.71 154.42 164.89 164.84 C 155.19 178.59 143.38 190.69 130.75 201.76 C 128.34 204.21 124.58 204.36 121.46 203.42 C 119.47 202.52 118.40 200.48 117.19 198.78 C 119.79 200.52 122.49 202.93 125.80 202.80 C 128.39 202.00 130.39 200.05 132.44 198.36 C 144.47 187.73 155.39 175.77 164.43 162.47 C 170.81 153.95 175.28 144.14 178.79 134.15 C 180.27 124.26 182.91 114.28 181.32 104.22 C 180.60 104.44 179.17 104.88 178.46 105.10 C 178.17 103.41 177.72 101.76 177.16 100.15 C 177.74 100.31 178.88 100.63 179.45 100.79 C 180.48 96.31 178.66 91.73 174.58 89.49 C 171.14 86.48 166.41 89.65 162.68 87.46 C 157.33 85.14 149.38 82.43 145.10 87.98 C 144.87 91.87 146.27 95.46 148.64 98.48 L 148.56 99.43 C 145.26 97.53 141.92 95.61 138.17 94.74 L 137.30 94.51 C 138.52 93.87 139.73 93.22 140.94 92.57 C 139.07 89.98 137.54 86.84 134.60 85.30 C 130.49 84.98 128.35 90.60 124.15 89.94 C 121.80 89.19 120.05 87.33 118.09 85.92 C 116.83 85.84 115.07 85.00 114.19 86.33 C 112.35 88.71 110.16 90.82 107.45 92.20 C 105.73 89.56 104.40 85.98 101.00 85.13 C 96.08 83.89 91.14 85.85 86.66 87.75 C 83.29 89.44 79.23 86.76 76.05 89.10 C 72.32 90.98 70.70 95.00 69.49 98.74 C 65.01 109.17 66.93 120.90 70.76 131.20 C 74.11 141.72 78.02 152.36 84.76 161.25 C 90.14 169.37 96.26 176.99 102.91 184.12 C 107.24 188.81 112.10 192.98 116.24 197.84 C 113.82 196.72 111.64 195.15 109.83 193.19 C 104.46 187.55 98.61 182.35 93.88 176.13 C 90.99 172.34 87.91 168.69 85.07 164.86 C 76.45 152.12 69.42 138.07 66.52 122.88 C 65.92 116.92 66.06 110.91 66.23 104.94 C 66.36 99.95 68.60 95.31 71.37 91.27 C 73.14 88.67 75.93 86.74 79.12 86.47 C 85.53 85.73 92.18 84.80 97.66 81.10 Z" />
</g>
<g id="#6e3268ff">
<path fill="#6e3268" opacity="1.00" d=" M 237.63 82.21 C 243.07 89.84 242.14 99.66 246.15 107.87 C 246.33 108.87 246.50 109.86 246.64 110.87 C 246.81 120.26 246.81 129.67 246.65 139.06 C 246.54 140.08 246.41 141.10 246.26 142.11 C 242.68 148.60 242.86 156.24 240.16 163.04 C 235.80 175.13 230.40 187.21 221.84 196.94 C 223.84 193.29 225.88 189.65 228.12 186.14 C 233.24 177.94 237.00 168.97 239.85 159.75 C 242.05 153.67 242.40 147.16 243.81 140.89 C 245.39 133.70 245.39 126.29 245.12 118.98 C 244.90 112.52 243.01 106.30 242.21 99.92 C 241.43 93.83 238.71 88.23 237.63 82.21 Z" />
</g>
<g id="#b2841cff">
<path fill="#b2841c" opacity="1.00" d=" M 86.66 87.75 C 91.14 85.85 96.08 83.89 101.00 85.13 C 104.40 85.98 105.73 89.56 107.45 92.20 C 110.16 90.82 112.35 88.71 114.19 86.33 C 114.43 87.89 114.75 89.44 115.08 91.00 C 116.64 90.60 118.20 90.20 119.76 89.80 C 119.21 88.51 118.65 87.21 118.09 85.92 C 120.05 87.33 121.80 89.19 124.15 89.94 C 128.35 90.60 130.49 84.98 134.60 85.30 C 137.54 86.84 139.07 89.98 140.94 92.57 C 139.73 93.22 138.52 93.87 137.30 94.51 L 136.45 94.31 C 132.03 93.15 127.48 94.17 123.00 93.94 C 119.63 93.78 116.27 93.60 112.90 93.75 C 111.05 93.79 109.19 93.84 107.34 93.84 C 103.73 98.41 98.26 101.47 92.32 101.07 C 88.99 100.12 85.65 100.81 82.36 101.46 C 80.63 100.63 81.94 98.42 81.93 96.98 C 82.12 96.15 82.30 95.31 82.45 94.47 C 81.86 93.71 81.30 92.95 80.74 92.18 C 77.80 93.64 74.87 95.56 73.88 98.90 C 73.69 99.33 73.30 100.17 73.11 100.60 C 71.90 99.98 70.69 99.36 69.49 98.74 C 70.70 95.00 72.32 90.98 76.05 89.10 C 79.23 86.76 83.29 89.44 86.66 87.75 M 90.03 87.30 C 90.68 90.57 90.85 94.34 93.28 96.87 C 96.52 98.12 100.65 97.47 103.52 95.51 C 105.36 93.01 105.52 88.17 102.06 86.93 C 98.15 85.66 93.98 86.78 90.03 87.30 M 131.37 87.10 C 131.33 87.78 131.26 89.12 131.22 89.80 C 132.78 89.81 134.34 89.84 135.90 89.86 C 135.74 88.67 135.59 87.47 135.44 86.28 C 134.08 86.55 132.72 86.82 131.37 87.10 Z" />
</g>
<g id="#ad801cff">
<path fill="#ad801c" opacity="1.00" d=" M 145.10 87.98 C 149.38 82.43 157.33 85.14 162.68 87.46 C 166.41 89.65 171.14 86.48 174.58 89.49 C 178.66 91.73 180.48 96.31 179.45 100.79 C 178.88 100.63 177.74 100.31 177.16 100.15 C 176.39 98.23 175.66 96.24 174.35 94.62 C 172.81 93.23 170.78 92.60 168.94 91.72 C 167.04 94.55 167.45 97.93 167.93 101.10 C 166.51 101.25 165.10 101.38 163.68 101.50 C 161.17 101.51 158.67 101.66 156.16 101.72 C 153.51 101.45 150.92 100.67 148.56 99.43 L 148.64 98.48 C 152.27 97.90 155.94 97.70 159.60 97.57 C 159.71 94.09 159.79 90.61 159.82 87.13 C 154.91 86.17 149.83 86.19 145.10 87.98 Z" />
</g>
<g id="#dfa81aff">
<path fill="#dfa81a" opacity="1.00" d=" M 114.19 86.33 C 115.07 85.00 116.83 85.84 118.09 85.92 C 118.65 87.21 119.21 88.51 119.76 89.80 C 118.20 90.20 116.64 90.60 115.08 91.00 C 114.75 89.44 114.43 87.89 114.19 86.33 Z" />
</g>
<g id="#fbba1bff">
<path fill="#fbba1b" opacity="1.00" d=" M 90.03 87.30 C 93.98 86.78 98.15 85.66 102.06 86.93 C 105.52 88.17 105.36 93.01 103.52 95.51 C 100.65 97.47 96.52 98.12 93.28 96.87 C 90.85 94.34 90.68 90.57 90.03 87.30 Z" />
</g>
<g id="#dfa91aff">
<path fill="#dfa91a" opacity="1.00" d=" M 131.37 87.10 C 132.72 86.82 134.08 86.55 135.44 86.28 C 135.59 87.47 135.74 88.67 135.90 89.86 C 134.34 89.84 132.78 89.81 131.22 89.80 C 131.26 89.12 131.33 87.78 131.37 87.10 Z" />
</g>
<g id="#fab91bff">
<path fill="#fab91b" opacity="1.00" d=" M 145.10 87.98 C 149.83 86.19 154.91 86.17 159.82 87.13 C 159.79 90.61 159.71 94.09 159.60 97.57 C 155.94 97.70 152.27 97.90 148.64 98.48 C 146.27 95.46 144.87 91.87 145.10 87.98 Z" />
</g>
<g id="#203971ff">
<path fill="#203971" opacity="1.00" d=" M 73.88 98.90 C 74.87 95.56 77.80 93.64 80.74 92.18 C 81.30 92.95 81.86 93.71 82.45 94.47 C 82.30 95.31 82.12 96.15 81.93 96.98 C 80.74 98.07 79.58 99.19 78.39 100.29 C 79.03 101.16 79.70 102.01 80.41 102.82 C 83.98 103.13 87.57 102.61 91.14 102.76 C 90.89 109.53 90.72 116.31 91.24 123.07 C 93.37 123.12 95.51 123.25 97.65 123.12 L 97.32 123.67 C 94.26 123.75 91.19 123.72 88.14 124.06 C 90.07 117.66 90.27 110.86 88.89 104.33 C 85.76 104.70 82.29 106.36 79.27 104.91 C 78.32 103.22 77.75 101.34 77.09 99.52 C 76.68 99.46 75.87 99.32 75.46 99.25 C 74.11 107.57 73.65 116.14 75.54 124.41 C 76.77 124.72 78.00 125.03 79.22 125.34 C 77.78 125.94 76.37 126.61 75.00 127.36 C 74.31 121.45 71.85 115.65 72.86 109.63 C 73.40 106.07 73.73 102.49 73.88 98.90 Z" />
</g>
<g id="#726745ff">
<path fill="#726745" opacity="1.00" d=" M 168.94 91.72 C 170.78 92.60 172.81 93.23 174.35 94.62 C 175.66 96.24 176.39 98.23 177.16 100.15 C 177.72 101.76 178.17 103.41 178.46 105.10 C 178.56 105.97 178.67 106.85 178.78 107.73 L 177.78 107.56 C 177.16 107.48 175.93 107.32 175.31 107.24 C 175.87 103.50 176.38 99.27 173.98 96.03 C 172.78 94.00 170.17 94.42 168.19 94.11 C 168.81 95.50 169.46 96.89 170.06 98.29 C 169.92 99.56 169.78 100.83 169.64 102.09 C 167.65 101.89 165.67 101.66 163.68 101.50 C 165.10 101.38 166.51 101.25 167.93 101.10 C 167.45 97.93 167.04 94.55 168.94 91.72 Z" />
</g>
<g id="#69203cff">
<path fill="#69203c" opacity="1.00" d=" M 107.34 93.84 C 109.19 93.84 111.05 93.79 112.90 93.75 C 113.42 102.18 113.66 110.63 113.13 119.06 C 112.68 119.26 111.78 119.65 111.33 119.85 C 108.90 119.76 106.46 119.76 104.03 119.81 C 106.58 118.88 109.32 118.16 111.46 116.42 C 112.89 110.57 112.87 104.22 111.54 98.34 C 108.23 96.15 105.29 99.83 102.22 100.76 C 99.52 102.17 94.80 101.47 94.24 105.34 C 93.31 109.73 93.22 114.36 94.05 118.77 C 94.24 120.98 96.81 121.05 98.39 121.81 C 98.20 122.14 97.83 122.80 97.65 123.12 C 95.51 123.25 93.37 123.12 91.24 123.07 C 90.72 116.31 90.89 109.53 91.14 102.76 C 91.44 102.34 92.03 101.49 92.32 101.07 C 98.26 101.47 103.73 98.41 107.34 93.84 Z" />
</g>
<g id="#2f325fff">
<path fill="#2f325f" opacity="1.00" d=" M 112.90 93.75 C 116.27 93.60 119.63 93.78 123.00 93.94 C 127.48 94.17 132.03 93.15 136.45 94.31 C 136.51 100.97 136.34 107.63 136.15 114.28 C 134.98 114.17 133.82 114.11 132.65 114.10 C 134.92 107.94 134.71 101.29 133.84 94.89 C 128.12 96.78 122.13 96.66 116.36 95.08 C 115.56 102.44 114.41 110.35 117.72 117.28 C 116.16 117.77 114.62 118.38 113.13 119.06 C 113.66 110.63 113.42 102.18 112.90 93.75 Z" />
</g>
<g id="#153f7aff">
<path fill="#153f7a" opacity="1.00" d=" M 168.19 94.11 C 170.17 94.42 172.78 94.00 173.98 96.03 C 176.38 99.27 175.87 103.50 175.31 107.24 C 170.05 107.78 164.90 109.03 159.66 109.76 C 159.80 107.41 158.27 103.56 161.23 102.51 C 164.43 102.61 167.56 103.39 170.74 103.69 C 170.71 101.87 170.62 100.03 170.06 98.29 C 169.46 96.89 168.81 95.50 168.19 94.11 Z" />
</g>
<g id="#024997ff">
<path fill="#024997" opacity="1.00" d=" M 116.36 95.08 C 122.13 96.66 128.12 96.78 133.84 94.89 C 134.71 101.29 134.92 107.94 132.65 114.10 C 133.82 114.11 134.98 114.17 136.15 114.28 L 136.30 115.17 C 130.18 116.49 123.92 116.65 117.72 117.28 C 114.41 110.35 115.56 102.44 116.36 95.08 Z" />
</g>
<g id="#8a4252ff">
<path fill="#8a4252" opacity="1.00" d=" M 136.45 94.31 L 137.30 94.51 L 138.17 94.74 C 137.51 100.57 137.49 106.44 137.89 112.28 C 144.19 112.55 150.28 110.84 156.27 109.11 C 156.83 109.32 157.94 109.74 158.49 109.95 C 157.62 110.33 156.75 110.71 155.89 111.10 C 150.84 113.72 145.06 113.62 139.59 114.56 C 138.49 114.76 137.39 114.96 136.30 115.17 L 136.15 114.28 C 136.34 107.63 136.51 100.97 136.45 94.31 Z" />
</g>
<g id="#bd0e2dff">
<path fill="#bd0e2d" opacity="1.00" d=" M 138.17 94.74 C 141.92 95.61 145.26 97.53 148.56 99.43 C 150.92 100.67 153.51 101.45 156.16 101.72 C 156.21 104.18 156.25 106.64 156.27 109.11 C 150.28 110.84 144.19 112.55 137.89 112.28 C 137.49 106.44 137.51 100.57 138.17 94.74 Z" />
</g>
<g id="#615739ff">
<path fill="#615739" opacity="1.00" d=" M 78.39 100.29 C 79.58 99.19 80.74 98.07 81.93 96.98 C 81.94 98.42 80.63 100.63 82.36 101.46 C 85.65 100.81 88.99 100.12 92.32 101.07 C 92.03 101.49 91.44 102.34 91.14 102.76 C 87.57 102.61 83.98 103.13 80.41 102.82 C 79.70 102.01 79.03 101.16 78.39 100.29 Z" />
</g>
<g id="#c20e2eff">
<path fill="#c20e2e" opacity="1.00" d=" M 102.22 100.76 C 105.29 99.83 108.23 96.15 111.54 98.34 C 112.87 104.22 112.89 110.57 111.46 116.42 C 109.32 118.16 106.58 118.88 104.03 119.81 C 106.46 119.76 108.90 119.76 111.33 119.85 C 111.82 119.99 112.79 120.28 113.28 120.42 C 108.28 120.43 103.33 121.16 98.39 121.81 C 96.81 121.05 94.24 120.98 94.05 118.77 C 93.22 114.36 93.31 109.73 94.24 105.34 C 94.80 101.47 99.52 102.17 102.22 100.76 Z" />
</g>
<g id="#5d1a36ff">
<path fill="#5d1a36" opacity="1.00" d=" M 170.06 98.29 C 170.62 100.03 170.71 101.87 170.74 103.69 C 167.56 103.39 164.43 102.61 161.23 102.51 C 158.27 103.56 159.80 107.41 159.66 109.76 C 159.37 109.81 158.78 109.90 158.49 109.95 C 157.94 109.74 156.83 109.32 156.27 109.11 C 156.25 106.64 156.21 104.18 156.16 101.72 C 158.67 101.66 161.17 101.51 163.68 101.50 C 165.67 101.66 167.65 101.89 169.64 102.09 C 169.78 100.83 169.92 99.56 170.06 98.29 Z" />
</g>
<g id="#99741eff">
<path fill="#99741e" opacity="1.00" d=" M 70.76 131.20 C 66.93 120.90 65.01 109.17 69.49 98.74 C 70.69 99.36 71.90 99.98 73.11 100.60 C 69.58 108.32 70.44 117.25 72.85 125.17 C 72.07 127.15 71.33 129.15 70.76 131.20 Z" />
</g>
<g id="#66644aff">
<path fill="#66644a" opacity="1.00" d=" M 73.11 100.60 C 73.30 100.17 73.69 99.33 73.88 98.90 C 73.73 102.49 73.40 106.07 72.86 109.63 C 71.85 115.65 74.31 121.45 75.00 127.36 C 74.86 127.87 74.59 128.90 74.45 129.41 C 73.94 127.99 73.38 126.58 72.85 125.17 C 70.44 117.25 69.58 108.32 73.11 100.60 Z" />
</g>
<g id="#044898ff">
<path fill="#044898" opacity="1.00" d=" M 75.46 99.25 C 75.87 99.32 76.68 99.46 77.09 99.52 C 77.75 101.34 78.32 103.22 79.27 104.91 C 82.29 106.36 85.76 104.70 88.89 104.33 C 90.27 110.86 90.07 117.66 88.14 124.06 C 85.16 124.41 82.19 124.88 79.22 125.34 C 78.00 125.03 76.77 124.72 75.54 124.41 C 73.65 116.14 74.11 107.57 75.46 99.25 Z" />
</g>
<g id="#98b5d7ff">
<path fill="#98b5d7" opacity="1.00" d=" M 247.88 99.50 C 247.97 99.64 248.14 99.91 248.22 100.05 C 248.14 99.91 247.97 99.64 247.88 99.50 Z" />
</g>
<g id="#8eb1d8ff">
<path fill="#8eb1d8" opacity="1.00" d=" M 248.70 100.57 C 248.83 100.69 249.07 100.94 249.20 101.07 C 249.07 100.94 248.83 100.69 248.70 100.57 Z" />
<path fill="#8eb1d8" opacity="1.00" d=" M 245.57 157.10 C 246.09 152.52 247.27 147.98 250.00 144.19 L 250.00 149.20 C 247.62 153.66 246.91 158.64 246.51 163.61 C 246.00 161.48 245.73 159.29 245.57 157.10 Z" />
</g>
<g id="#af801bff">
<path fill="#af801b" opacity="1.00" d=" M 178.46 105.10 C 179.17 104.88 180.60 104.44 181.32 104.22 C 182.91 114.28 180.27 124.26 178.79 134.15 C 175.28 144.14 170.81 153.95 164.43 162.47 C 155.39 175.77 144.47 187.73 132.44 198.36 C 130.39 200.05 128.39 202.00 125.80 202.80 C 122.49 202.93 119.79 200.52 117.19 198.78 C 116.96 198.54 116.48 198.08 116.24 197.84 C 112.10 192.98 107.24 188.81 102.91 184.12 C 96.26 176.99 90.14 169.37 84.76 161.25 C 78.02 152.36 74.11 141.72 70.76 131.20 C 71.33 129.15 72.07 127.15 72.85 125.17 C 73.38 126.58 73.94 127.99 74.45 129.41 C 76.04 133.97 77.04 138.73 79.01 143.16 C 80.03 144.00 81.08 144.80 82.13 145.62 C 82.63 149.91 84.98 153.56 87.14 157.17 C 88.43 159.32 89.90 161.35 91.37 163.38 C 97.40 172.01 104.34 179.97 111.95 187.23 C 116.02 191.19 119.55 196.23 125.03 198.28 C 130.58 196.47 133.89 191.13 138.00 187.30 C 145.47 180.21 153.12 172.95 158.12 163.83 C 158.89 163.08 159.67 162.32 160.42 161.54 C 166.59 154.71 170.20 146.04 173.86 137.72 C 175.63 134.01 176.28 129.90 176.11 125.81 C 180.65 120.91 180.14 113.77 178.78 107.73 C 178.67 106.85 178.56 105.97 178.46 105.10 Z" />
</g>
<g id="#80817fff">
<path fill="#80817f" opacity="1.00" d=" M 159.66 109.76 C 164.90 109.03 170.05 107.78 175.31 107.24 C 175.93 107.32 177.16 107.48 177.78 107.56 C 177.37 108.09 176.54 109.17 176.13 109.71 C 172.22 109.38 168.29 109.57 164.43 110.24 C 164.89 115.71 164.68 121.20 164.84 126.68 C 168.60 125.97 172.38 125.36 176.18 124.89 L 176.11 125.81 L 175.38 126.44 C 170.85 127.38 166.39 128.66 161.80 129.34 C 160.65 129.47 159.49 129.54 158.34 129.54 C 157.94 129.51 157.14 129.47 156.73 129.45 C 157.93 128.73 159.12 127.99 160.32 127.27 C 160.38 122.69 161.26 117.91 159.69 113.49 C 158.64 112.39 157.17 111.86 155.89 111.10 C 156.75 110.71 157.62 110.33 158.49 109.95 C 158.78 109.90 159.37 109.81 159.66 109.76 Z" />
</g>
<g id="#bba56fff">
<path fill="#bba56f" opacity="1.00" d=" M 177.78 107.56 L 178.78 107.73 C 180.14 113.77 180.65 120.91 176.11 125.81 L 176.18 124.89 C 176.31 119.83 176.40 114.76 176.13 109.71 C 176.54 109.17 177.37 108.09 177.78 107.56 Z" />
</g>
<g id="#1a5aa2ff">
<path fill="#1a5aa2" opacity="1.00" d=" M 0.00 110.57 C 1.05 109.98 2.12 109.42 3.20 108.89 C 2.96 118.97 2.98 129.06 3.09 139.13 C 2.06 138.72 1.03 138.30 0.00 137.89 L 0.00 110.57 Z" />
</g>
<g id="#bdbbb9ff">
<path fill="#bdbbb9" opacity="1.00" d=" M 164.43 110.24 C 168.29 109.57 172.22 109.38 176.13 109.71 C 176.40 114.76 176.31 119.83 176.18 124.89 C 172.38 125.36 168.60 125.97 164.84 126.68 C 164.68 121.20 164.89 115.71 164.43 110.24 M 167.77 112.04 C 167.61 115.93 168.34 119.79 168.53 123.67 C 170.66 123.69 172.79 123.73 174.93 123.77 C 175.53 119.45 175.54 115.09 175.16 110.75 C 172.80 110.96 169.22 109.56 167.77 112.04 Z" />
</g>
<g id="#fbfbf9ff">
<path fill="#fbfbf9" opacity="1.00" d=" M 167.77 112.04 C 169.22 109.56 172.80 110.96 175.16 110.75 C 175.54 115.09 175.53 119.45 174.93 123.77 C 172.79 123.73 170.66 123.69 168.53 123.67 C 168.34 119.79 167.61 115.93 167.77 112.04 Z" />
</g>
<g id="#a4a5a4ff">
<path fill="#a4a5a4" opacity="1.00" d=" M 139.59 114.56 C 145.06 113.62 150.84 113.72 155.89 111.10 C 157.17 111.86 158.64 112.39 159.69 113.49 C 161.26 117.91 160.38 122.69 160.32 127.27 C 159.12 127.99 157.93 128.73 156.73 129.45 C 156.32 129.42 155.49 129.36 155.08 129.33 C 153.87 129.08 152.67 128.82 151.48 128.54 C 151.32 125.18 151.50 121.75 150.73 118.45 C 149.89 117.77 149.01 117.14 148.11 116.55 C 145.52 121.03 146.34 126.24 147.14 131.07 C 143.36 132.09 139.19 131.77 135.72 133.76 C 134.54 134.39 133.43 135.13 132.28 135.81 C 126.17 136.88 119.94 137.09 113.77 137.59 C 110.05 137.77 106.58 139.27 102.94 139.89 C 97.94 139.94 92.93 139.96 87.95 139.56 C 87.01 140.71 86.07 141.88 85.14 143.04 C 84.62 139.68 84.04 136.32 83.27 133.00 C 85.33 134.59 87.65 135.82 90.29 135.96 C 90.80 132.81 91.24 129.65 91.61 126.49 C 90.06 126.30 88.50 126.09 86.94 125.95 C 90.14 125.47 93.37 125.39 96.57 124.94 C 96.76 124.62 97.13 123.99 97.32 123.67 L 97.65 123.12 C 97.83 122.80 98.20 122.14 98.39 121.81 C 103.33 121.16 108.28 120.43 113.28 120.42 C 116.60 120.63 119.84 119.83 123.00 118.91 C 124.32 119.70 125.63 120.50 126.94 121.31 C 128.67 120.12 130.47 119.02 132.30 118.00 C 132.41 121.91 132.47 125.92 134.08 129.56 C 136.58 126.98 135.71 123.24 136.14 120.01 C 136.25 117.71 138.27 116.23 139.59 114.56 M 152.21 113.97 C 152.43 118.08 152.82 122.18 153.25 126.27 C 154.55 126.21 156.81 126.92 156.90 124.88 C 157.66 121.72 158.18 118.46 158.06 115.20 C 156.93 112.92 154.18 113.89 152.21 113.97 M 137.90 122.98 C 137.69 126.21 139.66 128.80 142.04 130.72 C 143.20 129.38 144.61 128.00 144.43 126.06 C 144.46 122.72 145.25 118.53 142.08 116.29 C 140.14 118.08 137.55 119.97 137.90 122.98 M 118.59 122.02 C 117.99 123.40 117.40 124.77 116.82 126.15 L 117.19 126.97 C 116.45 127.72 115.72 128.48 115.00 129.24 C 113.66 127.25 112.28 124.98 109.55 125.19 C 109.20 127.79 109.03 130.45 110.05 132.93 C 114.08 132.14 118.21 131.98 122.21 131.08 C 126.01 127.98 121.75 123.53 118.59 122.02 M 124.83 131.90 C 127.50 133.17 130.39 132.61 133.07 131.72 C 132.43 129.87 132.04 127.77 130.50 126.42 C 127.10 125.48 125.95 129.57 124.83 131.90 M 102.28 128.51 C 101.72 130.81 101.84 133.17 102.36 135.47 C 103.00 135.54 104.30 135.68 104.94 135.74 C 105.56 133.27 105.66 130.71 105.00 128.23 C 104.32 128.30 102.96 128.44 102.28 128.51 M 98.34 130.32 C 96.71 133.00 97.38 136.17 98.05 139.02 C 99.33 138.97 100.60 138.90 101.87 138.82 C 101.40 135.91 101.27 132.83 99.76 130.22 C 99.41 130.25 98.69 130.30 98.34 130.32 Z" />
</g>
<g id="#e0dedeff">
<path fill="#e0dede" opacity="1.00" d=" M 152.21 113.97 C 154.18 113.89 156.93 112.92 158.06 115.20 C 158.18 118.46 157.66 121.72 156.90 124.88 C 156.81 126.92 154.55 126.21 153.25 126.27 C 152.82 122.18 152.43 118.08 152.21 113.97 Z" />
</g>
<g id="#7b7f84ff">
<path fill="#7b7f84" opacity="1.00" d=" M 136.30 115.17 C 137.39 114.96 138.49 114.76 139.59 114.56 C 138.27 116.23 136.25 117.71 136.14 120.01 C 135.71 123.24 136.58 126.98 134.08 129.56 C 132.47 125.92 132.41 121.91 132.30 118.00 C 130.47 119.02 128.67 120.12 126.94 121.31 C 125.63 120.50 124.32 119.70 123.00 118.91 C 119.84 119.83 116.60 120.63 113.28 120.42 C 112.79 120.28 111.82 119.99 111.33 119.85 C 111.78 119.65 112.68 119.26 113.13 119.06 C 114.62 118.38 116.16 117.77 117.72 117.28 C 123.92 116.65 130.18 116.49 136.30 115.17 Z" />
</g>
<g id="#f2f2f2ff">
<path fill="#f2f2f2" opacity="1.00" d=" M 137.90 122.98 C 137.55 119.97 140.14 118.08 142.08 116.29 C 145.25 118.53 144.46 122.72 144.43 126.06 C 144.61 128.00 143.20 129.38 142.04 130.72 C 139.66 128.80 137.69 126.21 137.90 122.98 Z" />
</g>
<g id="#868685ff">
<path fill="#868685" opacity="1.00" d=" M 148.11 116.55 C 149.01 117.14 149.89 117.77 150.73 118.45 C 151.50 121.75 151.32 125.18 151.48 128.54 C 152.67 128.82 153.87 129.08 155.08 129.33 C 152.39 129.72 149.77 130.45 147.14 131.07 C 146.34 126.24 145.52 121.03 148.11 116.55 Z" />
<path fill="#868685" opacity="1.00" d=" M 79.22 125.34 C 82.19 124.88 85.16 124.41 88.14 124.06 C 91.19 123.72 94.26 123.75 97.32 123.67 C 97.13 123.99 96.76 124.62 96.57 124.94 C 93.37 125.39 90.14 125.47 86.94 125.95 C 82.66 126.63 78.58 128.16 74.45 129.41 C 74.59 128.90 74.86 127.87 75.00 127.36 C 76.37 126.61 77.78 125.94 79.22 125.34 Z" />
</g>
<g id="#6b6a69ff">
<path fill="#6b6a69" opacity="1.00" d=" M 118.59 122.02 C 121.75 123.53 126.01 127.98 122.21 131.08 C 118.21 131.98 114.08 132.14 110.05 132.93 C 109.03 130.45 109.20 127.79 109.55 125.19 C 112.28 124.98 113.66 127.25 115.00 129.24 C 115.72 128.48 116.45 127.72 117.19 126.97 C 117.58 127.83 117.98 128.70 118.37 129.58 C 119.07 129.64 120.46 129.77 121.16 129.83 C 121.51 127.84 121.15 125.87 120.36 124.04 C 119.18 124.74 118.00 125.45 116.82 126.15 C 117.40 124.77 117.99 123.40 118.59 122.02 Z" />
</g>
<g id="#4e504fff">
<path fill="#4e504f" opacity="1.00" d=" M 116.82 126.15 C 118.00 125.45 119.18 124.74 120.36 124.04 C 121.15 125.87 121.51 127.84 121.16 129.83 C 120.46 129.77 119.07 129.64 118.37 129.58 C 117.98 128.70 117.58 127.83 117.19 126.97 L 116.82 126.15 Z" />
</g>
<g id="#c1c1c1ff">
<path fill="#c1c1c1" opacity="1.00" d=" M 74.45 129.41 C 78.58 128.16 82.66 126.63 86.94 125.95 C 88.50 126.09 90.06 126.30 91.61 126.49 C 91.24 129.65 90.80 132.81 90.29 135.96 C 87.65 135.82 85.33 134.59 83.27 133.00 C 84.04 136.32 84.62 139.68 85.14 143.04 C 83.10 143.10 81.05 143.15 79.01 143.16 C 77.04 138.73 76.04 133.97 74.45 129.41 M 77.17 130.23 C 78.13 134.07 77.93 139.20 82.11 141.14 C 82.76 137.11 82.06 133.06 81.49 129.07 C 80.04 129.45 78.61 129.85 77.17 130.23 Z" />
</g>
<g id="#c2c0bdff">
<path fill="#c2c0bd" opacity="1.00" d=" M 124.83 131.90 C 125.95 129.57 127.10 125.48 130.50 126.42 C 132.04 127.77 132.43 129.87 133.07 131.72 C 130.39 132.61 127.50 133.17 124.83 131.90 Z" />
</g>
<g id="#054694ff">
<path fill="#054694" opacity="1.00" d=" M 161.80 129.34 C 166.39 128.66 170.85 127.38 175.38 126.44 C 173.32 136.84 168.17 146.28 162.93 155.37 C 162.04 154.77 161.16 154.17 160.28 153.57 C 160.37 145.50 159.09 137.12 161.80 129.34 Z" />
</g>
<g id="#61614aff">
<path fill="#61614a" opacity="1.00" d=" M 175.38 126.44 L 176.11 125.81 C 176.28 129.90 175.63 134.01 173.86 137.72 C 170.20 146.04 166.59 154.71 160.42 161.54 C 160.33 161.09 160.15 160.20 160.05 159.75 C 160.99 158.27 161.99 156.85 162.93 155.37 C 168.17 146.28 173.32 136.84 175.38 126.44 Z" />
</g>
<g id="#6e6e6dff">
<path fill="#6e6e6d" opacity="1.00" d=" M 102.28 128.51 C 102.96 128.44 104.32 128.30 105.00 128.23 C 105.66 130.71 105.56 133.27 104.94 135.74 C 104.30 135.68 103.00 135.54 102.36 135.47 C 101.84 133.17 101.72 130.81 102.28 128.51 Z" />
</g>
<g id="#f0f0eeff">
<path fill="#f0f0ee" opacity="1.00" d=" M 77.17 130.23 C 78.61 129.85 80.04 129.45 81.49 129.07 C 82.06 133.06 82.76 137.11 82.11 141.14 C 77.93 139.20 78.13 134.07 77.17 130.23 Z" />
</g>
<g id="#9a5c67ff">
<path fill="#9a5c67" opacity="1.00" d=" M 155.08 129.33 C 155.49 129.36 156.32 129.42 156.73 129.45 C 157.14 129.47 157.94 129.51 158.34 129.54 C 156.97 130.22 155.60 130.92 154.18 131.50 C 149.89 132.97 145.37 133.73 140.84 133.69 C 140.02 133.70 138.39 133.70 137.57 133.71 C 137.11 133.72 136.18 133.74 135.72 133.76 C 139.19 131.77 143.36 132.09 147.14 131.07 C 149.77 130.45 152.39 129.72 155.08 129.33 Z" />
</g>
<g id="#313862ff">
<path fill="#313862" opacity="1.00" d=" M 158.34 129.54 C 159.49 129.54 160.65 129.47 161.80 129.34 C 159.09 137.12 160.37 145.50 160.28 153.57 C 161.16 154.17 162.04 154.77 162.93 155.37 C 161.99 156.85 160.99 158.27 160.05 159.75 C 157.41 149.87 159.71 139.58 158.34 129.54 Z" />
</g>
<g id="#d2d3d2ff">
<path fill="#d2d3d2" opacity="1.00" d=" M 98.34 130.32 C 98.69 130.30 99.41 130.25 99.76 130.22 C 101.27 132.83 101.40 135.91 101.87 138.82 C 100.60 138.90 99.33 138.97 98.05 139.02 C 97.38 136.17 96.71 133.00 98.34 130.32 Z" />
</g>
<g id="#661f3cff">
<path fill="#661f3c" opacity="1.00" d=" M 154.18 131.50 C 155.60 130.92 156.97 130.22 158.34 129.54 C 159.71 139.58 157.41 149.87 160.05 159.75 C 160.15 160.20 160.33 161.09 160.42 161.54 C 159.67 162.32 158.89 163.08 158.12 163.83 C 157.71 164.03 156.90 164.42 156.50 164.62 C 155.92 155.73 156.57 146.82 156.37 137.93 C 156.46 135.57 155.31 133.48 154.18 131.50 Z" />
</g>
<g id="#c20e2fff">
<path fill="#c20e2f" opacity="1.00" d=" M 140.84 133.69 C 145.37 133.73 149.89 132.97 154.18 131.50 C 155.31 133.48 156.46 135.57 156.37 137.93 C 156.57 146.82 155.92 155.73 156.50 164.62 C 150.09 170.51 146.42 179.49 138.24 183.30 C 136.73 176.94 139.73 171.07 141.32 165.10 C 142.89 159.11 138.76 153.81 138.02 148.05 C 137.52 143.16 137.04 137.47 140.84 133.69 Z" />
<path fill="#c20e2f" opacity="1.00" d=" M 95.52 143.35 C 100.43 142.48 105.27 141.19 110.27 140.88 C 111.17 143.41 112.55 146.07 111.77 148.82 C 110.42 154.35 106.77 159.69 108.32 165.60 C 109.81 171.13 112.88 176.41 111.84 182.36 C 106.67 180.47 103.94 175.46 100.32 171.68 C 97.87 168.78 94.79 165.91 94.32 161.93 C 93.63 155.75 93.36 149.29 95.52 143.35 Z" />
</g>
<g id="#29345dff">
<path fill="#29345d" opacity="1.00" d=" M 132.28 135.81 C 133.43 135.13 134.54 134.39 135.72 133.76 C 136.18 133.74 137.11 133.72 137.57 133.71 C 136.59 139.49 136.69 145.37 136.26 151.21 C 133.87 150.35 131.48 149.47 129.04 148.75 L 128.21 148.55 C 122.94 147.46 117.95 149.79 113.35 152.07 C 113.56 148.27 113.19 144.47 112.80 140.69 C 113.39 139.67 113.98 138.65 114.57 137.64 C 115.86 137.76 117.14 137.92 118.42 138.07 C 116.79 140.73 115.51 143.67 116.09 146.87 C 122.04 145.54 128.17 145.20 134.06 147.02 C 134.67 143.16 134.18 139.24 132.28 135.81 Z" />
</g>
<g id="#902b29ff">
<path fill="#902b29" opacity="1.00" d=" M 137.57 133.71 C 138.39 133.70 140.02 133.70 140.84 133.69 C 137.04 137.47 137.52 143.16 138.02 148.05 C 138.76 153.81 142.89 159.11 141.32 165.10 C 139.73 171.07 136.73 176.94 138.24 183.30 C 146.42 179.49 150.09 170.51 156.50 164.62 C 156.90 164.42 157.71 164.03 158.12 163.83 C 153.12 172.95 145.47 180.21 138.00 187.30 C 137.07 182.53 136.51 177.71 136.14 172.87 C 137.83 169.42 139.93 165.95 140.03 162.00 C 139.91 158.10 137.82 154.67 136.26 151.21 C 136.69 145.37 136.59 139.49 137.57 133.71 Z" />
</g>
<g id="#024694ff">
<path fill="#024694" opacity="1.00" d=" M 113.77 137.59 C 119.94 137.09 126.17 136.88 132.28 135.81 C 134.18 139.24 134.67 143.16 134.06 147.02 C 128.17 145.20 122.04 145.54 116.09 146.87 C 115.51 143.67 116.79 140.73 118.42 138.07 C 117.14 137.92 115.86 137.76 114.57 137.64 L 113.77 137.59 Z" />
</g>
<g id="#a15d65ff">
<path fill="#a15d65" opacity="1.00" d=" M 102.94 139.89 C 106.58 139.27 110.05 137.77 113.77 137.59 L 114.57 137.64 C 113.98 138.65 113.39 139.67 112.80 140.69 C 112.17 140.74 110.90 140.83 110.27 140.88 C 105.27 141.19 100.43 142.48 95.52 143.35 C 94.79 143.38 93.31 143.43 92.57 143.45 L 91.42 143.48 C 94.93 141.38 98.93 140.50 102.94 139.89 Z" />
</g>
<g id="#5385bfff">
<path fill="#5385bf" opacity="1.00" d=" M 0.00 137.89 C 1.03 138.30 2.06 138.72 3.09 139.13 C 4.40 147.07 4.79 155.37 8.28 162.74 C 8.15 163.22 7.89 164.17 7.76 164.64 C 7.38 165.87 7.02 167.10 6.67 168.33 C 5.36 164.45 3.84 160.59 3.42 156.47 C 3.44 153.88 3.84 151.24 3.25 148.68 C 2.53 146.65 1.12 144.98 0.00 143.17 L 0.00 137.89 Z" />
</g>
<g id="#6e99c8ff">
<path fill="#6e99c8" opacity="1.00" d=" M 246.65 139.06 C 247.76 138.68 248.88 138.29 250.00 137.92 L 250.00 144.19 C 247.27 147.98 246.09 152.52 245.57 157.10 C 244.55 162.59 243.44 168.08 242.06 173.50 C 241.86 174.74 240.49 174.93 239.58 175.44 C 239.06 178.09 238.66 180.86 237.07 183.12 C 231.44 191.70 226.07 200.55 219.22 208.22 C 213.04 214.09 207.70 220.96 200.40 225.53 C 185.84 236.22 169.44 245.68 151.16 247.62 C 150.57 248.41 149.99 249.21 149.39 250.00 L 137.64 250.00 C 138.11 249.02 138.57 248.04 139.02 247.06 C 139.90 246.75 140.76 246.41 141.62 246.06 C 146.34 245.82 151.11 245.74 155.72 244.59 C 173.35 239.52 190.48 231.57 204.30 219.33 C 209.92 214.96 214.96 209.92 219.34 204.31 C 231.57 190.44 239.60 173.30 244.57 155.60 C 245.68 151.18 245.74 146.61 246.26 142.11 C 246.41 141.10 246.54 140.08 246.65 139.06 Z" />
</g>
<g id="#767f83ff">
<path fill="#767f83" opacity="1.00" d=" M 85.14 143.04 C 86.07 141.88 87.01 140.71 87.95 139.56 C 92.93 139.96 97.94 139.94 102.94 139.89 C 98.93 140.50 94.93 141.38 91.42 143.48 C 88.38 144.43 85.24 144.97 82.13 145.62 C 81.08 144.80 80.03 144.00 79.01 143.16 C 81.05 143.15 83.10 143.10 85.14 143.04 Z" />
</g>
<g id="#942329ff">
<path fill="#942329" opacity="1.00" d=" M 110.27 140.88 C 110.90 140.83 112.17 140.74 112.80 140.69 C 113.19 144.47 113.56 148.27 113.35 152.07 C 112.08 155.30 110.02 158.40 110.00 161.99 C 110.17 165.86 112.15 169.30 113.43 172.87 C 113.69 177.71 112.94 182.52 111.95 187.23 C 104.34 179.97 97.40 172.01 91.37 163.38 C 94.71 157.24 92.60 150.06 92.57 143.45 C 93.31 143.43 94.79 143.38 95.52 143.35 C 93.36 149.29 93.63 155.75 94.32 161.93 C 94.79 165.91 97.87 168.78 100.32 171.68 C 103.94 175.46 106.67 180.47 111.84 182.36 C 112.88 176.41 109.81 171.13 108.32 165.60 C 106.77 159.69 110.42 154.35 111.77 148.82 C 112.55 146.07 111.17 143.41 110.27 140.88 Z" />
</g>
<g id="#4a4183ff">
<path fill="#4a4183" opacity="1.00" d=" M 240.16 163.04 C 242.86 156.24 242.68 148.60 246.26 142.11 C 245.74 146.61 245.68 151.18 244.57 155.60 C 239.60 173.30 231.57 190.44 219.34 204.31 C 214.96 209.92 209.92 214.96 204.30 219.33 C 190.48 231.57 173.35 239.52 155.72 244.59 C 151.11 245.74 146.34 245.82 141.62 246.06 L 142.32 245.32 C 145.93 242.55 150.62 242.74 154.91 242.31 C 157.84 242.10 160.24 240.25 162.90 239.22 C 186.45 231.96 206.78 216.23 221.84 196.94 C 230.40 187.21 235.80 175.13 240.16 163.04 Z" />
</g>
<g id="#87afd7ff">
<path fill="#87afd7" opacity="1.00" d=" M 0.00 143.17 C 1.12 144.98 2.53 146.65 3.25 148.68 C 3.84 151.24 3.44 153.88 3.42 156.47 C 2.33 154.06 1.05 151.74 0.00 149.32 L 0.00 143.17 Z" />
</g>
<g id="#0c438aff">
<path fill="#0c438a" opacity="1.00" d=" M 82.13 145.62 C 85.24 144.97 88.38 144.43 91.42 143.48 C 89.81 148.01 90.18 152.90 89.78 157.61 C 88.90 157.46 88.02 157.32 87.14 157.17 C 84.98 153.56 82.63 149.91 82.13 145.62 Z" />
</g>
<g id="#4b2549ff">
<path fill="#4b2549" opacity="1.00" d=" M 91.42 143.48 L 92.57 143.45 C 92.60 150.06 94.71 157.24 91.37 163.38 C 89.90 161.35 88.43 159.32 87.14 157.17 C 88.02 157.32 88.90 157.46 89.78 157.61 C 90.18 152.90 89.81 148.01 91.42 143.48 Z" />
</g>
<g id="#774e15ff">
<path fill="#774e15" opacity="1.00" d=" M 113.35 152.07 C 117.95 149.79 122.94 147.46 128.21 148.55 C 121.95 149.13 116.01 152.39 113.18 158.17 C 110.55 161.91 112.62 166.63 115.28 169.72 C 118.59 173.86 124.24 174.54 129.12 175.42 C 123.76 177.30 118.51 174.27 113.43 172.87 C 112.15 169.30 110.17 165.86 110.00 161.99 C 110.02 158.40 112.08 155.30 113.35 152.07 Z" />
</g>
<g id="#9a6d04ff">
<path fill="#9a6d04" opacity="1.00" d=" M 113.18 158.17 C 116.01 152.39 121.95 149.13 128.21 148.55 L 129.04 148.75 C 132.66 151.36 136.50 154.69 136.66 159.53 C 137.72 164.93 135.32 170.09 132.26 174.39 C 131.23 174.78 130.18 175.12 129.12 175.42 C 124.24 174.54 118.59 173.86 115.28 169.72 C 112.62 166.63 110.55 161.91 113.18 158.17 Z" />
</g>
<g id="#774a11ff">
<path fill="#774a11" opacity="1.00" d=" M 129.04 148.75 C 131.48 149.47 133.87 150.35 136.26 151.21 C 137.82 154.67 139.91 158.10 140.03 162.00 C 139.93 165.95 137.83 169.42 136.14 172.87 C 134.85 173.38 133.56 173.90 132.26 174.39 C 135.32 170.09 137.72 164.93 136.66 159.53 C 136.50 154.69 132.66 151.36 129.04 148.75 Z" />
</g>
<g id="#3e5092ff">
<path fill="#3e5092" opacity="1.00" d=" M 8.28 162.74 C 12.16 170.27 15.14 178.25 19.58 185.49 C 23.68 192.18 27.66 199.18 33.87 204.20 C 40.34 210.04 45.77 217.09 53.22 221.77 C 63.31 228.92 73.83 236.13 86.02 239.09 C 88.60 239.71 90.76 241.36 93.28 242.15 C 96.71 242.75 100.25 242.55 103.63 243.48 C 107.03 244.40 110.44 245.45 114.00 245.45 C 123.43 245.57 132.88 245.48 142.32 245.32 L 141.62 246.06 C 140.76 246.41 139.90 246.75 139.02 247.06 C 132.02 247.79 124.99 246.98 117.99 247.32 C 115.90 247.25 114.47 248.96 112.85 250.00 L 109.69 250.00 C 105.93 246.16 100.52 246.02 95.55 245.33 C 64.33 237.95 36.37 217.76 19.64 190.37 C 14.75 182.28 10.33 173.78 7.76 164.64 C 7.89 164.17 8.15 163.22 8.28 162.74 Z" />
</g>
<g id="#7ca7d0ff">
<path fill="#7ca7d0" opacity="1.00" d=" M 6.67 168.33 C 7.02 167.10 7.38 165.87 7.76 164.64 C 10.33 173.78 14.75 182.28 19.64 190.37 C 36.37 217.76 64.33 237.95 95.55 245.33 C 100.52 246.02 105.93 246.16 109.69 250.00 L 102.02 250.00 C 97.16 246.06 90.55 247.18 85.03 244.91 C 54.48 234.20 28.12 211.67 13.08 182.96 C 10.58 178.26 7.80 173.60 6.67 168.33 Z" />
</g>
<g id="#2a355cff">
<path fill="#2a355c" opacity="1.00" d=" M 113.43 172.87 C 118.51 174.27 123.76 177.30 129.12 175.42 C 130.18 175.12 131.23 174.78 132.26 174.39 C 133.56 173.90 134.85 173.38 136.14 172.87 C 136.51 177.71 137.07 182.53 138.00 187.30 C 133.89 191.13 130.58 196.47 125.03 198.28 C 119.55 196.23 116.02 191.19 111.95 187.23 C 112.94 182.52 113.69 177.71 113.43 172.87 M 116.42 177.14 C 115.87 180.33 115.37 183.64 116.14 186.84 C 116.81 191.04 120.32 194.37 124.25 195.65 C 126.75 195.95 128.91 194.18 130.71 192.66 C 134.93 188.78 134.73 182.34 133.60 177.17 C 130.68 177.74 127.90 178.87 124.99 179.49 C 122.11 178.80 119.38 177.54 116.42 177.14 Z" />
</g>
<g id="#034998ff">
<path fill="#034998" opacity="1.00" d=" M 116.42 177.14 C 119.38 177.54 122.11 178.80 124.99 179.49 C 127.90 178.87 130.68 177.74 133.60 177.17 C 134.73 182.34 134.93 188.78 130.71 192.66 C 128.91 194.18 126.75 195.95 124.25 195.65 C 120.32 194.37 116.81 191.04 116.14 186.84 C 115.37 183.64 115.87 180.33 116.42 177.14 Z" />
</g>
<g id="#12549fff">
<path fill="#12549f" opacity="1.00" d=" M 112.85 250.00 C 114.47 248.96 115.90 247.25 117.99 247.32 C 124.99 246.98 132.02 247.79 139.02 247.06 C 138.57 248.04 138.11 249.02 137.64 250.00 L 112.85 250.00 Z" />
</g>
</svg>
