<?xml version="1.0" encoding="utf-8"?>
<!-- Generator: Adobe Illustrator 26.0.3, SVG Export Plug-In . SVG Version: 6.00 Build 0)  -->
<svg version="1.1" id="Layer_1" xmlns="http://www.w3.org/2000/svg" xmlns:xlink="http://www.w3.org/1999/xlink" x="0px" y="0px"
	 viewBox="0 0 160 250" style="enable-background:new 0 0 160 250;" xml:space="preserve">
<style type="text/css">
	.st0{fill:#FC4600;}
	.st1{fill:#F13900;}
	.st2{fill:#F99399;}
	.st3{fill:#E82E00;}
	.st4{fill:#FA7578;}
	.st5{fill:#F43704;}
	.st6{fill:#DF2100;}
	.st7{fill:#F43D00;}
	.st8{fill:#FD6168;}
	.st9{fill:#D41400;}
	.st10{fill:#ED3300;}
	.st11{fill:#FC4B4A;}
	.st12{fill:#C60300;}
	.st13{fill:#E52900;}
	.st14{fill:#FD3031;}
	.st15{fill:#EE0000;}
	.st16{fill:#DC1E00;}
	.st17{fill:#D31300;}
	.st18{fill:#FA8B8B;}
	.st19{fill:#E10000;}
	.st20{fill:#FC6060;}
	.st21{fill:#FD3131;}
	.st22{fill:#CF0000;}
	.st23{fill:#FC4141;}
	.st24{fill:#FC4F4F;}
	.st25{fill:#FB6666;}
	.st26{fill:#F9A4A4;}
</style>
<g id="_x23_fc4600ff">
	<path class="st0" d="M90.5,2.2c0.5,0.1,1.6,0.2,2.1,0.2c5,6.4,9.6,13.1,14,19.9c5,10.3,12.2,20,13.9,31.6c0.1,8.7,1,17.9-2.4,26.1
		c-2.4,6-5.3,12.3-10.7,16.2c2.8-8.2,1.1-16.9,1.5-25.3c-0.2-4.4,2-9.2-0.7-13.2c0.9-3.3,1.4-6.8,0.1-10c-1.1-2.9,1-5.7,0.4-8.6
		c-0.6-3.7,0.8-7.5-0.9-11c-4.6-0.1-9.1-0.3-13.7-0.6C94,36.4,90.4,44.6,87.9,53c-2.1,4.4-4.8,8.5-7.2,12.7c-1.2,1.5-2.3,3-3.5,4.5
		c-2.1,1.5-4.2,3-6.3,4.7c0.7-1.8,1.3-3.6,2-5.4c-5,0.7-10,0.5-15,0.4c-4-0.3-7.4,2.2-10.8,4c-0.5-0.3-1.6-0.8-2.1-1.1
		c2-3,3.5-6.3,5.6-9.3c0.9-1.2,1.3-2.6,1.6-4c0.3-0.8,0.6-1.6,0.9-2.3c3.6-3.1,6.8-6.6,10-10.1c4.8-4.9,9.4-10.1,13.1-16
		c3.2-4.7,6.8-9.2,9.9-13.9C88.2,12.4,90.7,7.5,90.5,2.2z"/>
</g>
<g id="_x23_f13900ff">
	<path class="st1" d="M94.2,27.5c4.6,0.3,9.1,0.5,13.7,0.6c1.7,3.5,0.3,7.4,0.9,11c0.6,2.9-1.6,5.7-0.4,8.6c1.3,3.3,0.7,6.7-0.1,10
		c2.7,4,0.5,8.8,0.7,13.2c-0.4,8.4,1.3,17.2-1.5,25.3c-2.1,4.9-6.9,8-11.2,10.8c-0.5-7.1,0.1-14.1-0.3-21.2c-0.1-2.6-1.1-5.5,0.1-8
		c2.5-5.5,6.1-10.7,7.1-16.8c-3.3-3.6-4.5-9-8.6-11.9c-3-1.7-5.2,1.5-6.6,3.7C90.4,44.6,94,36.4,94.2,27.5z"/>
</g>
<g id="_x23_f99399ff">
	<path class="st2" d="M67.3,39.3c3-2.7,5.4-6.1,8.9-8.2c-3.7,5.8-8.3,11.1-13.1,16c-3.2,3.5-6.3,7-10,10.1c-1.7,1.3-3.4,2.6-5.1,3.9
		c-0.8-0.8-1.5-1.5-2.3-2.3C52.4,51.7,60.1,45.8,67.3,39.3z"/>
</g>
<g id="_x23_e82e00ff">
	<path class="st3" d="M87.9,53c1.4-2.2,3.6-5.4,6.6-3.7c4.1,2.9,5.3,8.3,8.6,11.9c-1,6.1-4.6,11.3-7.1,16.8c-1.2,2.5-0.1,5.3-0.1,8
		c0.4,7-0.2,14.1,0.3,21.2l0,0.9c-3.2,3.3-7,5.8-10.3,9c-0.8,0.9-1.9,1.5-3,1.9c0.1-7.7,0-15.3,0-23c-0.2-3.2,1.9-5.8,3.6-8.4
		c2-2.9,3.7-6,5.2-9.1c-3.8-3.9-8.3-8.2-7.9-14.2c-1,0.5-2,1-3,1.5C83.2,61.5,85.9,57.4,87.9,53z"/>
</g>
<g id="_x23_fa7578ff">
	<path class="st4" d="M48,61c1.7-1.3,3.4-2.5,5.1-3.9c-0.3,0.8-0.6,1.6-0.9,2.3c-4.1,3.4-7.8,7.4-11.6,11.1
		c-7.5,7.3-15,15-19.4,24.7c-0.5,0.1-1.5,0.2-1.9,0.3c0.1-1.7,0.1-3.3,0.1-5c-1.5,1.8-2.3,4.4-4.7,5c3.5-7.7,9.6-13.7,14.5-20.5
		c5.2-5.8,10.6-11.4,16.5-16.4C46.5,59.5,47.3,60.3,48,61z"/>
</g>
<g id="_x23_f43704ff">
	<path class="st5" d="M40.6,70.6c3.8-3.7,7.4-7.7,11.6-11.1c-0.2,1.5-0.6,2.9-1.6,4c-2.1,2.9-3.6,6.3-5.6,9.3
		c-9.5,9-19.1,18.4-25.1,30.2c-0.5,0.2-1.6,0.5-2.1,0.7c1.1-2.8,2.1-5.7,3.4-8.4C25.6,85.6,33.1,77.9,40.6,70.6z"/>
</g>
<g id="_x23_df2100ff">
	<path class="st6" d="M80.8,65.7c1-0.5,2-1,3-1.5c-0.4,5.9,4.1,10.3,7.9,14.2c-1.5,3.2-3.2,6.2-5.2,9.1c-1.6,2.6-3.8,5.1-3.6,8.4
		c0,7.7,0.1,15.3,0,23c-4.6,4.4-9.2,8.9-14,13.1c0.3-7.6-0.4-15.2,0.3-22.8c1.3-4.2,4.6-7.5,6.8-11.3c-1.5-4.2-3.9-7.9-6.2-11.7
		c-1.1-1.5-0.2-3.3-0.1-4.9c-1.3,0.8-2.7,1.6-4.1,2.5c3.2-5.1,8.5-8.3,11.6-13.5C78.4,68.7,79.6,67.2,80.8,65.7z"/>
</g>
<g id="_x23_f43d00ff">
	<path class="st7" d="M58,69.9c5,0.1,10,0.2,15-0.4c-0.7,1.8-1.3,3.6-2,5.4c2-1.7,4.1-3.2,6.3-4.7c-3,5.2-8.4,8.4-11.6,13.5
		c-3.1,3.3-6,6.7-8.9,10.1c-1.3,0.7-2.6,1.3-4,1.9c0.6-1.9,1.2-3.8,1.8-5.7c-5.8-0.1-11.6,0-17.3,0c0.4-1.7,0.9-3.3,1.3-5
		c-0.4,0-1.2-0.1-1.7-0.2c3.2-3.8,6-8.1,10.2-11C50.5,72.1,53.9,69.6,58,69.9z"/>
</g>
<g id="_x23_fd6168ff">
	<path class="st8" d="M20,103C25.9,91.2,35.5,81.8,45,72.8c0.5,0.3,1.6,0.8,2.1,1.1c-4.2,2.8-7,7.2-10.2,11
		C31.7,90.9,28,98.2,24,105.1c-1.2,1.3-2.6,2.6-3.9,3.8C20.1,107,20,105,20,103z"/>
</g>
<g id="_x23_d41400ff">
	<path class="st9" d="M65.7,83.7c1.3-0.8,2.7-1.7,4.1-2.5c-0.1,1.6-0.9,3.4,0.1,4.9c2.3,3.8,4.7,7.5,6.2,11.7
		c-2.2,3.8-5.5,7.1-6.8,11.3c-0.7,7.6,0,15.2-0.3,22.8c-1.3,2.3-3.3,4-5.1,5.9c-3.7,3.7-5.8,8.7-9.6,12.3
		c-0.5-5.9-0.1-11.9-0.7-17.8c-0.8-6.5,4.3-11.6,6.1-17.5c-1.1-3.7-3.9-6.7-5.6-10.1c0.3-2.1,0.5-4.3-0.1-6.4c1-1.5,1.9-3.1,2.8-4.6
		C59.7,90.4,62.6,87,65.7,83.7z"/>
</g>
<g id="_x23_ed3300ff">
	<path class="st10" d="M24,105.1c4-6.9,7.6-14.2,12.9-20.2c0.4,0,1.3,0.1,1.7,0.2c-0.4,1.7-0.8,3.3-1.3,5c5.8,0.1,11.5,0,17.3,0
		c-0.6,1.9-1.2,3.8-1.8,5.7c1.3-0.6,2.7-1.2,4-1.9c-1,1.5-1.9,3.1-2.8,4.6c-4.9,5.8-8.5,12.5-12.7,18.8c-1,0.9-2.1,1.7-3.2,2.5
		c-0.1-1.9-0.2-3.7-0.2-5.6c-4.8-0.5-9.6-0.3-14.1,1.6c0-1.8,0.1-3.7,0.2-5.5c-1,0.9-2.1,1.7-3.1,2.6C22,110.3,22.9,107.7,24,105.1z
		"/>
</g>
<g id="_x23_fc4b4aff">
	<path class="st11" d="M14.6,95.6c2.4-0.7,3.2-3.3,4.7-5c0,1.7,0,3.3-0.1,5c0.5-0.1,1.5-0.3,1.9-0.3c-1.2,2.8-2.3,5.6-3.4,8.4
		c0.5-0.2,1.6-0.5,2.1-0.7c0,2,0.1,3.9,0.2,5.9c1.3-1.3,2.6-2.5,3.9-3.8c-1.1,2.6-2,5.2-3.2,7.8c-2.6,4.9-4.7,10.1-6.7,15.2
		c-1,1.1-2.1,2.1-3.2,3.1c-0.7-1.3-1.5-2.6-2.2-4c-1,0.6-2,1.2-3,1.8c-0.3-0.6-0.9-1.7-1.2-2.2c0.5-6.2,2.7-12.2,4.1-18.3
		C10.4,104.2,12.1,99.7,14.6,95.6z"/>
</g>
<g id="_x23_c60300ff">
	<path class="st12" d="M41.3,117.2c4.2-6.3,7.8-13,12.7-18.8c0.7,2.1,0.5,4.3,0.1,6.4c1.7,3.4,4.5,6.4,5.6,10.1
		c-1.8,5.9-6.9,10.9-6.1,17.5c0.6,5.9,0.2,11.9,0.7,17.8c-2.2,6.3-5.9,12.5-7.6,19.1c-1.5,9.9-1.4,20.6,3.3,29.7
		c2.6,7.7,6.8,14.9,11.8,21.4c7.3,8.5,15.9,16.4,26.6,20.3c0.2,0.4,0.6,1.2,0.8,1.6c-2.2,0.1-4.3-0.4-6.4-1
		c-6.4-1.9-12.9-3.7-19.2-6.1c-7.9-3.6-15.6-7.8-22.2-13.4c-8.9-5.9-15.8-14.3-22.1-22.8l0.2-0.5c0.4-1.1,0.9-2.2,1.3-3.3
		c4.8-0.4,10.3,1.1,14.5-1.9c-3.9-11.1-7.2-22.8-5.6-34.6c0.4-3.3,0.4-6.6,0.2-9.9c1-3.5,1.7-7,2.4-10.6
		C35,131.1,37.8,124,41.3,117.2z"/>
</g>
<g id="_x23_e52900ff">
	<path class="st13" d="M20.9,112.9c1-0.9,2.1-1.7,3.1-2.6c-0.1,1.8-0.2,3.7-0.2,5.5c4.5-1.9,9.3-2.1,14.1-1.6
		c0.1,1.9,0.2,3.7,0.2,5.6c1.1-0.8,2.2-1.7,3.2-2.5c-3.4,6.8-6.2,13.9-9,20.9c-1.3,1.5-2.6,2.9-3.8,4.4c-0.6-1.1-0.8-2.4-1.8-3.3
		c-4.2-0.6-8.6,0.2-12.5-1.8c-1.1,1.5-2.1,3-3.1,4.5c0.9-4.7,2-9.3,3.3-13.9C16.2,122.9,18.3,117.8,20.9,112.9z"/>
</g>
<g id="_x23_fd3031ff">
	<path class="st14" d="M3.4,157c0.2-10-1.1-20.3,1.3-30.1c0.3,0.6,0.9,1.7,1.2,2.2c1-0.6,2-1.2,3-1.8c0.7,1.3,1.4,2.7,2.2,4
		c1.1-1,2.1-2.1,3.2-3.1c-1.2,4.6-2.4,9.2-3.3,13.9c-2.5,9.9-2.9,20.2-4.2,30.3C4.2,167.7,4.1,162.1,3.4,157z"/>
</g>
<g id="_x23_ee0000ff">
	<path class="st15" d="M122.2,141.3c2.6-3.6,3.9-7.8,5.9-11.6c1.7-0.8,2.1,2.1,2.9,3.2c1.3,6,2.4,12.1,2.3,18.2
		c-1,6.9,0.4,13.7,1.3,20.5c0.2,0,0.7,0,0.9,0c2.2,8.5,7.1,16.5,14.5,21.6c1.6,1.3,3,2.8,4.2,4.4c-8.3,2.9-17.7,3.3-25.9,0.2
		c-3.4-1.5-6.8-3-10.2-4.4c0.5-0.3,1.4-0.9,1.9-1.2c-3.2-6.2-1.5-13.4-1.9-20.1c-0.4-7.9,0.8-15.8-0.8-23.6
		C118.3,145.7,120.8,143.8,122.2,141.3z"/>
</g>
<g id="_x23_dc1e00ff">
	<path class="st16" d="M14.1,137.5c3.9,2,8.3,1.2,12.5,1.8c1,0.8,1.2,2.2,1.8,3.3c1.2-1.5,2.5-3,3.8-4.4c-0.7,3.6-1.4,7.1-2.4,10.6
		c-2.8,5.8-0.9,12.4-3.3,18.2c-3.8-3.2-8.9-1.4-13.3-2.1c-1.4-0.8-2.1-2.4-3.1-3.6c-1,5.2-1.9,10.5-2.1,15.9
		c-0.6-1.6-1.6-3.1-1.3-4.9c1.3-10.1,1.7-20.3,4.2-30.3C11.9,140.5,13,139,14.1,137.5z"/>
</g>
<g id="_x23_d31300ff">
	<path class="st17" d="M26.6,167c2.5-5.8,0.6-12.5,3.3-18.2c0.1,3.3,0.1,6.6-0.2,9.9c-1.5,11.8,1.8,23.5,5.6,34.6
		c-4.2,3.1-9.7,1.5-14.5,1.9c-0.4,1.1-0.9,2.2-1.3,3.3c-5.2-6.1-8.7-13.7-11.4-21.3c0.2-5.4,1.1-10.6,2.1-15.9
		c1,1.2,1.7,2.8,3.1,3.6C17.7,165.5,22.8,163.8,26.6,167z"/>
</g>
<g id="_x23_fa8b8bff">
	<path class="st18" d="M89.8,151.7c5.8-3.2,12.7-2.4,19.1-2.5c-1.4,2.4-3.3,4.6-5,6.8c1.5-0.2,2.9-0.4,4.4-0.7c-2,1.4-4,2.7-6.2,3.8
		c-0.6-0.2-1.9-0.6-2.5-0.8c-0.1-0.5-0.4-1.7-0.5-2.2c0.9-1.2,3.5-2.6,2.3-4.3C97.6,150.6,93.7,151.5,89.8,151.7z"/>
</g>
<g id="_x23_e10000ff">
	<path class="st19" d="M108.3,155.4c3.2-2.1,5.9-4.7,8.9-7c1.6,7.8,0.4,15.7,0.8,23.6c0.4,6.7-1.3,13.9,1.9,20.1
		c-0.5,0.3-1.4,0.9-1.9,1.2c-3.5-1.4-7.1-2.6-10.8-3.7c-4.9-1.9-10.3-2.1-15.5-2.1c2.3-0.5,4.6-1,6.8-1.6c-1.7-1.1-3.6-2.1-5.2-3.4
		c-0.6-6.4-0.6-12.8,0-19.2c2.2-2.5,5.9-2.8,8.8-4.3C104.3,158.1,106.3,156.7,108.3,155.4z"/>
</g>
<g id="_x23_fc6060ff">
	<path class="st20" d="M89.8,151.7c3.8-0.3,7.8-1.2,11.5,0c1.2,1.7-1.4,3.1-2.3,4.3c0.1,0.6,0.4,1.7,0.5,2.2
		c-3.9-0.2-7.8,0.7-11.4,2c-0.7-0.1-2.1-0.2-2.8-0.3c0.1-1.3,0.2-2.7,0.3-4c-1.9,0.2-3.9,0.5-5.8,0.9
		C82.8,154.5,86.2,152.7,89.8,151.7z"/>
</g>
<g id="_x23_fd3131ff">
	<path class="st21" d="M79.9,156.8c1.9-0.4,3.8-0.6,5.8-0.9c-0.1,1.3-0.2,2.7-0.3,4c0.7,0.1,2.1,0.2,2.8,0.3c-9,4-17.4,9.8-23,18.1
		C66,169.1,72.9,162.1,79.9,156.8z"/>
</g>
<g id="_x23_cf0000ff">
	<path class="st22" d="M88.2,160.2c3.7-1.2,7.5-2.2,11.4-2c0.6,0.2,1.9,0.6,2.5,0.8c-2.9,1.4-6.6,1.8-8.8,4.3
		c-0.6,6.4-0.6,12.8,0,19.2c1.6,1.3,3.4,2.3,5.2,3.4c-2.3,0.6-4.5,1.1-6.8,1.6c-5,1.2-9.9,4.4-11.8,9.3c5.8-0.4,12.1-1.9,17.6,1.1
		c-4.9,3-11,5.7-12.8,11.7c-1.6,6.3,0.6,13.1,4.1,18.4c5.3,6.2,12.7,10.2,20.3,13c5.3,2,11,2.3,16.3,4.1c-4.3,0.1-8.7,0.3-12.9-0.5
		c-6.4-1-12.4-3.7-18.5-5.7c-12.9-6-22.3-18.1-27.8-31c-3.2-7.2-2.8-15.3-2.5-23c0.2-2.3,0.8-4.5,1.6-6.7
		C70.8,170,79.1,164.2,88.2,160.2z"/>
</g>
<g id="_x23_fc4141ff">
	<path class="st23" d="M79.8,196.8c2-4.9,6.8-8.1,11.8-9.3c5.2,0,10.6,0.2,15.5,2.1c-1.4,0.2-2.8,0.3-4.1,0.5c1.3,1.6,2.7,3.2,4,4.9
		c-1.7,6.3-3.9,12.5-6.1,18.7c-0.7,5.1-2.7,9.9-4.8,14.6c-2.1,2-4.4-1.3-6.3-2.2c-0.3,0.5-0.9,1.5-1.2,1.9
		c-3.5-5.3-5.6-12.1-4.1-18.4c1.8-6,7.8-8.7,12.8-11.7C91.9,195,85.7,196.4,79.8,196.8z"/>
</g>
<g id="_x23_fc4f4fff">
	<path class="st24" d="M103.1,190.2c1.4-0.2,2.7-0.4,4.1-0.5c3.6,1.1,7.2,2.2,10.8,3.7c3.5,1.4,6.8,2.9,10.2,4.4
		c-0.8,0.1-2.3,0.3-3.1,0.4c1.3,1.7,2.7,3.3,4.1,5c-1.1,1.2-2.1,2.7-3.6,3.4c-5.6,0.9-11.4-1.1-16.8,1.2c-3.3,3.1-5.4,7.7-5.2,12.2
		c2.2,11.4,12,20.5,23.2,23.3c1.3,0.4,2.5,1.1,3.6,1.7c-1.7,0.1-3.4,0.2-5.1,0.2c-5.3-1.9-11-2.2-16.3-4.1c-7.6-2.8-15-6.8-20.3-13
		c0.3-0.5,0.9-1.5,1.2-1.9c1.9,1,4.2,4.3,6.3,2.2c2.2-4.7,4.1-9.4,4.8-14.6c2.2-6.2,4.4-12.3,6.1-18.7
		C105.8,193.4,104.4,191.8,103.1,190.2z"/>
</g>
<g id="_x23_fb6666ff">
	<path class="st25" d="M149.9,193.1c2.1,0.8,5,1.5,5.9,3.9c-2.5,5.2-7,9.8-12.8,11c-11.3,2-22.7-1.3-34.1-0.2
		c5.3-2.2,11.2-0.3,16.8-1.2c1.5-0.8,2.4-2.2,3.6-3.4c-1.4-1.6-2.7-3.3-4.1-5c0.8-0.1,2.3-0.3,3.1-0.4c8.3,3.1,17.7,2.7,25.9-0.2
		C152.9,195.8,151.5,194.3,149.9,193.1z"/>
</g>
<g id="_x23_f9a4a4ff">
	<path class="st26" d="M93.8,239c6.1,2,12.1,4.6,18.5,5.7c4.3,0.8,8.6,0.6,12.9,0.5c1.7,0,3.4-0.1,5.1-0.2c-1.2-0.7-2.4-1.3-3.6-1.7
		c2.7,0.1,5.4,0,8.1,0.2c1.2-0.2,1.5,1.2,2.1,2c-7.2,2-14.7,1.3-22,0.4c-6.1-0.1-11.8-2.2-17.4-4.3C96.1,241,94.9,240.1,93.8,239z"
		/>
</g>
</svg>
