<?xml version="1.0" encoding="utf-8"?>
<!-- Generator: Adobe Illustrator 26.0.3, SVG Export Plug-In . SVG Version: 6.00 Build 0)  -->
<svg version="1.1" id="Layer_1" xmlns="http://www.w3.org/2000/svg" xmlns:xlink="http://www.w3.org/1999/xlink" x="0px" y="0px"
	 viewBox="0 0 250 250" style="enable-background:new 0 0 250 250;" xml:space="preserve">
<style type="text/css">
	.st0{fill:#FFFFFF;}
	.st1{fill:#0D7FF2;}
	.st2{fill:#1163E7;}
</style>
<g id="_x23_ffffffff">
	<path class="st0" d="M113.8,17.5c14.3-2.2,28.8-0.2,42.7,3.4c31.5,8.8,58.2,32.7,70.6,62.9c7.6,18.2,10.1,38.6,7.3,58.1
		c-4,25.4-17.1,49.2-36.5,66.1c-20.3,17.5-47.1,27.4-73.9,26.7c-15.3-0.2-30.3-4.1-44.1-10.6c-23.2-10.7-42.1-30.1-52.6-53.3
		c-4.5-9.7-7.1-20.1-8.8-30.7c-2.7-18.4,0-37.4,6.7-54.7C39.5,48.9,74.8,21.4,113.8,17.5 M108.3,24C93.4,27.5,79,33.4,66.4,42.3
		c-4.8,3.5-10.8,6.3-13.1,12.1c-2.2,4.7,0.2,10.3,4.1,13.3c14.8,11.9,29.7,23.6,44.5,35.5c3.1,2.4,6.1,5.4,10.2,6
		c5.6,0.8,11.2-3.5,12.1-9.1c0.7-7.4-0.3-14.8-0.6-22.2c0.1-14.3-1-28.6-0.9-42.9C123,27.9,115.2,21.5,108.3,24 M135.4,24.3
		c-4.8,1.6-7,7-6.9,11.7c0,20.4,0,40.7,0,61.1c-0.4,6.4,4.9,12.6,11.5,12.2c3.7-0.2,6.6-2.6,9.3-4.9c10.2-8.9,20.7-17.3,30.8-26.3
		c5.4-4.6,11.1-8.8,16.1-13.8c2.9-2.8,3.8-7.3,2.4-11c-1.2-3.2-3.9-5.4-6.5-7.4c-13.5-10.1-29.2-17.2-45.5-21.1
		C143,23.8,138.9,22.6,135.4,24.3 M203.4,68.5c-3.8,0.9-6.6,4-9.6,6.3C180.6,85.2,167.3,95.6,154,106c-2.9,2.4-6.1,4.5-8.1,7.7
		c-1,2.5-0.9,5.3-0.5,8c1.1,4.1,4.9,6.9,9,7.8c17.5,3.7,35.1,7,52.6,10.8c5.9,0.9,12.8,4.1,18.1-0.2c6.2-4.9,4.1-13.7,3.6-20.5
		c-0.6-12.4-3.8-24.5-8.4-35.9c-2-4.7-3.6-9.9-7.6-13.3C210.2,68,206.5,68,203.4,68.5 M41.7,70.5c-5.9,2.5-7.1,9.5-9.5,14.8
		c-6.4,15.6-8.5,32.7-7.8,49.5c0.4,3.9,3.6,6.9,7,8.5c5.4,1.1,11-0.2,16-2.2c16.9-3.3,33.6-7.6,50.5-11.1c3-0.5,5.9-1.8,7.8-4.2
		c3.7-4,3.6-11.2-0.8-14.7c-6.9-5.9-14.4-11.1-21.7-16.5c-9.7-7.7-19.8-14.9-29.6-22.3C50.4,69.6,45.6,68.3,41.7,70.5 M122.4,111.6
		c-8.6,2.1-13.5,13.1-8.9,20.8c3.5,7.9,14.5,10.7,21.4,5.5c7.3-4.7,8.6-16.1,2.4-22.2C133.7,111.3,127.7,110.7,122.4,111.6
		 M147.4,133.6c-5.2,1.1-7.7,6.6-7.8,11.4c0.7,3.6,2.7,6.8,4.3,10c7.8,15.6,15.9,30.9,23.7,46.5c1.8,3.5,3.4,7.8,7.4,9.3
		c4.2,1.6,9.4,1.1,12.8-2.1c11.3-9.8,21.9-20.6,29.1-33.8c2.9-5.7,7.6-11.2,6.8-18c-0.1-4.3-3.7-7.8-7.7-8.8
		c-19.7-4.7-39.4-9.4-59.2-14C153.8,133.5,150.6,133.1,147.4,133.6 M93.3,135.7c-5.7,1.7-11.7,2.4-17.3,4.5
		c-10.9,1.9-21.6,5.1-32.4,7.6c-3.6,1-7.8,1.4-10.5,4.3c-3.7,3.6-3.4,9.8-1.2,14.1c3.3,6.5,6.9,12.9,11.4,18.8
		c5.1,7.1,10.9,13.7,17.6,19.3c3.5,3,6.6,6.8,11.1,8.2c4.5,0.9,9.9-0.9,12-5.2c9.8-18.4,18.7-37.2,28.2-55.8
		c2.4-5,2.5-12.6-2.8-15.7C104.5,132.1,98.5,134.6,93.3,135.7 M123.3,145.2c-3.6,1.3-5.6,4.8-7.1,8.1c-8.5,18.1-17,36.2-25.5,54.3
		c-1.6,3-1.3,6.6-0.8,9.8c2,4.6,7.2,7.9,12.2,6.9c8.4-1.6,16.6-4.3,25-5.8c8.6,1.1,16.8,4.4,25.3,5.9c5,0.9,10-2.5,11.9-7.1
		c0.8-3.5,0.6-7.2-1.1-10.4c-8.7-18.4-17-37-25.7-55.4C135.2,146.2,128.8,143,123.3,145.2z"/>
	<path class="st0" d="M121,154.8c0.9-2.3,2.8-4.1,5.2-4.8c0.8,3.3,0.5,6.7,0.5,10c0,16,0,32.1,0,48.1c-0.2,1.5,0.4,3.5-1.2,4.4
		c-3.2,1.6-7,1.9-10.4,2.9c-5.1,1.1-9.9,3.1-15.1,3.3c-3.3,0.4-6.2-3.4-5.1-6.6c0.7-2.5,2-4.9,3-7.3
		C105.5,188.1,113.3,171.5,121,154.8z"/>
</g>
<g id="_x23_0d7ff2ff">
	<path class="st1" d="M105.1,6.9c11.5-2.2,23.3-1.7,34.9-1.2c7.6,1.1,15.3,2.1,22.6,4.7c-2.4,3.3-4.7,6.7-6.1,10.5
		c-13.9-3.6-28.4-5.7-42.7-3.4c-39,4-74.3,31.4-88.5,67.9c-6.7,17.3-9.5,36.3-6.7,54.7c1.7,10.5,4.2,21,8.8,30.7
		c-2.2,4.1-4.2,8.3-7,12c-4.2-5.8-6.4-12.7-8.8-19.3c-2.4-8.7-4.9-17.5-5.2-26.5c-0.1-5-1.1-10-0.8-15c0.9-12.4,2.5-25,7-36.7
		c4.6-12.1,10.4-24,18.7-34c9-12.3,21.2-22,34.1-29.9C77.7,14.5,91,8.9,105.1,6.9z"/>
	<path class="st1" d="M108.3,24c6.9-2.5,14.7,3.9,14.3,11c-0.1,14.3,1,28.6,0.9,42.9c0.3,7.4,1.3,14.8,0.6,22.2
		c-0.9,5.6-6.5,9.9-12.1,9.1c-4-0.6-7.1-3.6-10.2-6C87.1,91.3,72.1,79.6,57.4,67.6c-3.9-3-6.3-8.6-4.1-13.3
		c2.4-5.8,8.3-8.6,13.1-12.1C79,33.4,93.4,27.5,108.3,24z"/>
	<path class="st1" d="M41.7,70.5c3.9-2.3,8.6-0.9,12,1.7c9.9,7.5,20,14.6,29.6,22.3c-0.2,4.9-5.3,7.2-7.8,11
		c-5.9,8-12.4,15.6-18.3,23.6c-2.4,4.1-6.2,7.1-8.5,11.2c-0.3,0.2-1,0.5-1.3,0.7c-5,2-10.6,3.3-16,2.2c-3.4-1.6-6.6-4.6-7-8.5
		c-0.8-16.8,1.4-33.8,7.8-49.5C34.6,80,35.8,73.1,41.7,70.5z"/>
	<path class="st1" d="M43.6,147.8c10.8-2.5,21.5-5.7,32.4-7.6c0.4,0,1.3-0.1,1.7-0.2c-2.7,2.9-5.5,5.7-7.7,9
		c-4.4,6.5-9.9,12.2-14.4,18.6c-4,5.9-10.1,10.3-12.4,17.3c-4.4-5.8-8-12.2-11.4-18.8c-2.2-4.4-2.6-10.5,1.2-14.1
		C35.8,149.1,40,148.8,43.6,147.8z"/>
</g>
<g id="_x23_1163e7ff">
	<path class="st2" d="M162.6,10.4c7.4,2.2,14.3,5.5,21.2,8.9c23.1,12.2,41.8,32.3,52.8,56c8.5,19.4,12.5,40.8,10.3,61.9
		c-3,35.8-23.3,69.8-53.5,89.4c-26.1,17.5-59.4,24.1-90.2,17.7c-33.6-6.1-63.7-28-80.9-57.4c-0.7-1.3-1.6-2.6-1.8-4.2
		c2.8-3.7,4.8-7.9,7-12c10.5,23.2,29.4,42.6,52.6,53.3c13.8,6.5,28.8,10.4,44.1,10.6c26.8,0.6,53.6-9.3,73.9-26.7
		c19.3-16.9,32.5-40.7,36.5-66.1c2.8-19.5,0.4-39.9-7.3-58.1c-12.4-30.2-39.2-54.1-70.6-62.9C157.9,17,160.2,13.6,162.6,10.4z"/>
	<path class="st2" d="M135.4,24.3c3.6-1.7,7.6-0.5,11.2,0.4c16.4,3.9,32,11,45.5,21.1c2.6,2,5.3,4.2,6.5,7.4c1.5,3.7,0.5,8.2-2.4,11
		c-5,5-10.8,9.2-16.1,13.8c-10.1,9-20.6,17.4-30.8,26.3c-2.7,2.3-5.7,4.7-9.3,4.9c-6.6,0.4-11.9-5.8-11.5-12.2c0-20.4,0-40.7,0-61.1
		C128.4,31.2,130.6,25.9,135.4,24.3z"/>
	<path class="st2" d="M203.4,68.5c3.1-0.5,6.8-0.5,9.3,1.8c4,3.4,5.7,8.6,7.6,13.3c4.6,11.5,7.8,23.6,8.4,35.9
		c0.5,6.8,2.6,15.6-3.6,20.5c-5.3,4.3-12.2,1.1-18.1,0.2c-17.5-3.8-35.1-7.1-52.6-10.8c-4-0.9-7.9-3.7-9-7.8c-0.4-2.6-0.5-5.5,0.5-8
		c2-3.2,5.2-5.4,8.1-7.7c13.3-10.4,26.6-20.8,39.8-31.2C196.8,72.5,199.6,69.4,203.4,68.5z"/>
	<path class="st2" d="M75.6,105.6c2.5-3.7,7.6-6.1,7.8-11c7.3,5.4,14.8,10.5,21.7,16.5c4.4,3.5,4.5,10.6,0.8,14.7
		c-1.9,2.4-4.8,3.7-7.8,4.2c-16.9,3.6-33.6,7.8-50.5,11.1c0.3-0.2,1-0.5,1.3-0.7c2.3-4.1,6.1-7.1,8.5-11.2
		C63.2,121.2,69.7,113.6,75.6,105.6z"/>
	<path class="st2" d="M122.4,111.6c5.2-0.9,11.3-0.3,14.9,4.1c6.2,6.1,4.9,17.5-2.4,22.2c-6.9,5.2-17.9,2.4-21.4-5.5
		C108.9,124.7,113.8,113.7,122.4,111.6z"/>
	<path class="st2" d="M147.4,133.6c3.1-0.5,6.3-0.1,9.4,0.6c19.8,4.6,39.5,9.2,59.2,14c4,1,7.6,4.6,7.7,8.8c0.7,6.8-3.9,12.3-6.8,18
		c-7.2,13.2-17.8,24-29.1,33.8c-3.4,3.2-8.6,3.7-12.8,2.1c-4-1.6-5.6-5.8-7.4-9.3c-7.8-15.5-15.9-30.9-23.7-46.5
		c-1.6-3.2-3.6-6.4-4.3-10C139.7,140.2,142.3,134.7,147.4,133.6z"/>
	<path class="st2" d="M93.3,135.7c5.2-1.1,11.2-3.6,16.2-0.1c5.4,3.2,5.2,10.7,2.8,15.7c-9.5,18.6-18.5,37.4-28.2,55.8
		c-2.1,4.4-7.5,6.1-12,5.2c-4.5-1.4-7.7-5.2-11.1-8.2c-6.7-5.6-12.5-12.2-17.6-19.3c2.2-7,8.4-11.4,12.4-17.3
		c4.5-6.5,10-12.1,14.4-18.6c2.2-3.3,5-6.1,7.7-9c-0.4,0-1.3,0.1-1.7,0.2C81.6,138.1,87.5,137.4,93.3,135.7z"/>
	<path class="st2" d="M123.3,145.2c5.5-2.2,11.9,1,14.2,6.3c8.7,18.4,17,37,25.7,55.4c1.7,3.2,1.9,6.9,1.1,10.4
		c-1.9,4.6-6.8,8-11.9,7.1c-8.5-1.4-16.7-4.8-25.3-5.9c-8.4,1.5-16.6,4.2-25,5.8c-5,1-10.3-2.3-12.2-6.9c-0.5-3.2-0.7-6.8,0.8-9.8
		c8.6-18.1,17-36.2,25.5-54.3C117.7,150,119.7,146.6,123.3,145.2 M121,154.8c-7.8,16.7-15.6,33.3-23.2,50c-1.1,2.4-2.3,4.8-3,7.3
		c-1.1,3.1,1.8,6.9,5.1,6.6c5.2-0.2,10.1-2.3,15.1-3.3c3.4-1,7.2-1.2,10.4-2.9c1.6-0.8,1-2.9,1.2-4.4c0-16,0-32.1,0-48.1
		c0-3.3,0.3-6.7-0.5-10C123.8,150.7,121.9,152.5,121,154.8z"/>
</g>
</svg>
