<?xml version="1.0" encoding="UTF-8" ?>
<!DOCTYPE svg PUBLIC "-//W3C//DTD SVG 1.1//EN" "http://www.w3.org/Graphics/SVG/1.1/DTD/svg11.dtd">
<svg width="250pt" height="250pt" viewBox="0 0 250 250" version="1.1" xmlns="http://www.w3.org/2000/svg">
<g id="#dfdbd9ff">
<path fill="#dfdbd9" opacity="1.00" d=" M 0.00 0.00 L 250.00 0.00 L 250.00 250.00 L 0.00 250.00 L 0.00 0.00 M 106.10 32.11 C 103.80 34.23 100.88 36.07 99.58 38.98 C 101.60 48.94 104.01 58.84 105.51 68.89 C 101.93 68.34 98.24 68.31 94.94 69.99 C 89.35 72.80 83.18 70.26 77.44 69.40 C 74.34 67.67 72.46 64.43 69.98 61.96 C 72.00 61.09 73.97 60.10 75.86 58.97 C 73.85 56.23 70.52 55.36 67.46 54.37 C 67.42 53.84 67.33 52.76 67.29 52.22 C 69.18 52.67 71.03 53.31 72.97 53.52 C 73.98 52.82 74.95 52.06 75.85 51.22 C 75.53 50.51 74.88 49.10 74.56 48.40 C 69.91 48.59 65.34 47.25 60.69 47.87 C 60.60 45.40 60.53 42.93 60.41 40.46 C 58.40 40.36 56.39 40.36 54.39 40.51 C 55.01 43.65 55.92 46.77 55.78 50.01 C 48.93 52.24 44.28 43.03 37.37 45.62 C 37.52 46.94 36.75 48.89 38.42 49.51 C 41.73 51.24 45.47 52.28 48.25 54.92 C 45.11 56.22 41.78 56.93 38.45 57.55 C 38.37 59.07 38.27 60.58 38.19 62.10 C 41.59 62.70 44.58 60.35 47.96 60.45 C 50.96 60.39 54.60 59.58 56.81 62.20 C 60.93 66.49 63.76 71.83 67.71 76.28 C 70.28 79.69 74.58 80.91 78.45 82.16 C 84.73 83.46 91.18 82.28 97.54 82.53 C 97.14 94.06 93.71 105.37 94.57 116.97 C 95.64 127.28 96.07 137.79 94.32 148.04 C 88.89 143.05 85.69 135.92 79.51 131.65 C 73.90 130.38 65.82 133.33 62.65 126.90 C 63.06 123.65 64.91 120.55 64.22 117.21 C 63.76 114.46 63.51 111.63 62.29 109.08 C 60.58 110.27 58.90 111.50 57.26 112.78 C 58.12 114.49 59.20 116.13 59.71 118.00 C 59.03 120.17 57.88 122.38 56.00 123.74 C 51.61 120.86 50.99 115.37 49.12 110.91 C 48.11 110.54 47.07 110.24 46.01 110.02 C 44.88 113.84 46.52 117.56 47.49 121.20 C 44.20 119.52 41.73 116.68 38.47 114.96 C 38.41 116.83 38.39 118.70 38.37 120.57 C 41.58 122.81 44.88 124.92 48.06 127.20 C 47.27 127.47 45.70 128.01 44.91 128.27 C 42.50 129.02 40.77 126.70 38.75 125.84 C 37.26 124.54 34.13 127.19 36.13 128.65 C 37.88 131.22 40.96 132.38 43.98 132.32 C 49.71 132.22 55.15 134.89 59.26 138.74 C 60.46 141.37 59.57 144.46 59.60 147.27 C 61.59 147.45 63.59 147.62 65.59 147.80 C 65.24 145.94 63.60 143.65 65.85 142.38 C 70.58 144.69 73.65 149.13 76.91 153.08 C 80.33 157.30 83.11 162.07 84.49 167.35 C 85.87 173.06 91.50 176.01 96.71 177.48 C 102.89 181.55 106.90 188.12 110.68 194.35 C 117.80 204.97 125.76 215.17 135.54 223.48 C 140.86 227.49 146.87 230.45 152.81 233.40 C 159.11 236.61 165.94 238.91 172.96 239.83 C 180.33 240.06 187.69 239.45 195.06 239.69 C 199.56 239.91 203.34 237.08 207.38 235.55 C 216.97 231.61 226.08 225.69 232.11 217.11 C 237.11 210.07 239.07 201.44 240.22 193.02 C 239.74 185.78 237.94 178.67 236.16 171.65 C 234.06 165.38 230.21 159.88 226.56 154.42 C 223.84 150.59 221.34 146.39 217.32 143.76 C 222.43 153.27 227.21 163.00 230.79 173.21 C 231.98 177.15 230.86 181.29 230.48 185.28 C 229.83 194.46 225.10 202.67 220.22 210.23 C 214.57 217.02 206.30 220.79 198.51 224.54 C 191.15 226.54 183.19 226.68 175.74 225.06 C 166.55 221.84 157.45 217.48 150.48 210.51 C 145.02 205.33 139.86 199.81 135.11 193.96 C 131.76 188.70 128.60 181.79 131.73 175.73 C 134.40 173.84 137.60 172.23 140.97 172.60 C 142.65 174.04 142.22 176.42 142.88 178.33 C 143.73 181.06 144.65 183.78 145.00 186.63 C 141.61 187.69 139.08 190.11 137.27 193.10 C 138.57 194.82 140.34 195.84 142.53 195.74 C 144.17 193.33 145.62 190.76 147.62 188.62 C 149.63 187.73 152.25 188.59 153.90 186.88 C 155.34 185.72 156.62 184.34 158.21 183.38 C 163.97 183.98 165.85 190.42 170.14 193.32 C 172.88 194.01 176.80 191.57 174.61 188.52 C 168.17 186.68 164.00 181.04 159.11 176.85 C 163.66 175.73 168.35 176.51 172.96 176.22 C 176.07 176.19 176.48 171.06 173.90 169.87 C 168.30 170.79 162.61 171.10 156.95 170.69 C 157.95 166.77 162.01 165.00 164.16 161.81 C 165.54 160.72 163.85 157.56 162.15 158.63 C 159.13 159.83 156.27 161.72 152.95 161.95 C 150.04 160.62 147.57 157.87 144.07 158.40 C 137.34 158.73 130.70 157.53 123.98 157.35 C 128.29 145.69 129.92 133.28 133.90 121.52 C 136.96 111.10 135.29 100.17 135.37 89.51 C 139.74 87.15 143.91 84.43 148.39 82.25 C 150.61 80.97 153.24 79.97 154.59 77.65 C 157.89 72.22 160.75 66.52 164.22 61.20 C 165.77 58.74 168.35 56.98 171.34 57.18 C 172.31 59.67 173.36 62.13 174.45 64.57 C 175.02 64.59 176.15 64.64 176.71 64.66 C 177.34 62.92 178.93 61.13 177.92 59.22 C 176.89 56.71 174.79 54.86 173.43 52.54 C 172.87 51.55 171.70 50.12 173.24 49.40 C 175.42 50.22 177.23 51.74 179.15 53.03 C 180.09 51.99 181.03 50.95 181.96 49.89 C 178.17 47.97 174.15 46.53 170.38 44.56 C 167.41 43.09 165.72 39.93 162.87 38.36 C 161.51 38.69 160.26 39.33 158.99 39.87 C 157.19 38.04 155.45 36.18 153.74 34.27 C 153.17 34.36 152.01 34.54 151.43 34.63 C 150.28 38.60 154.20 40.91 156.11 43.80 C 154.07 43.64 152.01 42.57 149.98 43.10 C 149.30 44.63 149.69 46.35 149.62 47.97 C 152.52 48.74 155.52 49.41 158.14 50.96 C 158.78 51.97 158.91 53.28 158.38 54.37 C 156.47 58.63 153.86 62.53 151.73 66.68 C 150.53 68.71 149.57 71.17 147.31 72.27 C 144.24 73.86 141.25 75.77 137.90 76.69 C 134.38 76.26 131.20 74.50 127.98 73.13 C 131.17 68.52 134.11 63.74 136.93 58.89 C 139.34 54.75 142.32 50.95 144.44 46.65 C 145.49 44.14 143.66 41.72 142.67 39.51 C 138.42 31.53 133.91 23.33 127.10 17.22 C 119.41 21.12 112.91 26.90 106.10 32.11 Z" />
</g>
<g id="#37383bff">
<path fill="#37383b" opacity="1.00" d=" M 106.10 32.11 C 112.91 26.90 119.41 21.12 127.10 17.22 C 133.91 23.33 138.42 31.53 142.67 39.51 C 143.66 41.72 145.49 44.14 144.44 46.65 C 142.32 50.95 139.34 54.75 136.93 58.89 C 134.11 63.74 131.17 68.52 127.98 73.13 C 131.20 74.50 134.38 76.26 137.90 76.69 C 141.25 75.77 144.24 73.86 147.31 72.27 C 149.57 71.17 150.53 68.71 151.73 66.68 C 153.86 62.53 156.47 58.63 158.38 54.37 C 158.91 53.28 158.78 51.97 158.14 50.96 C 155.52 49.41 152.52 48.74 149.62 47.97 C 149.69 46.35 149.30 44.63 149.98 43.10 C 152.01 42.57 154.07 43.64 156.11 43.80 C 154.20 40.91 150.28 38.60 151.43 34.63 C 152.01 34.54 153.17 34.36 153.74 34.27 C 155.45 36.18 157.19 38.04 158.99 39.87 C 160.26 39.33 161.51 38.69 162.87 38.36 C 165.72 39.93 167.41 43.09 170.38 44.56 C 174.15 46.53 178.17 47.97 181.96 49.89 C 181.03 50.95 180.09 51.99 179.15 53.03 C 177.23 51.74 175.42 50.22 173.24 49.40 C 171.70 50.12 172.87 51.55 173.43 52.54 C 174.79 54.86 176.89 56.71 177.92 59.22 C 178.93 61.13 177.34 62.92 176.71 64.66 C 176.15 64.64 175.02 64.59 174.45 64.57 C 173.36 62.13 172.31 59.67 171.34 57.18 C 168.35 56.98 165.77 58.74 164.22 61.20 C 160.75 66.52 157.89 72.22 154.59 77.65 C 153.24 79.97 150.61 80.97 148.39 82.25 C 143.91 84.43 139.74 87.15 135.37 89.51 C 135.29 100.17 136.96 111.10 133.90 121.52 C 129.92 133.28 128.29 145.69 123.98 157.35 C 130.70 157.53 137.34 158.73 144.07 158.40 C 147.57 157.87 150.04 160.62 152.95 161.95 C 156.27 161.72 159.13 159.83 162.15 158.63 C 163.85 157.56 165.54 160.72 164.16 161.81 C 162.01 165.00 157.95 166.77 156.95 170.69 C 162.61 171.10 168.30 170.79 173.90 169.87 C 176.48 171.06 176.07 176.19 172.96 176.22 C 168.35 176.51 163.66 175.73 159.11 176.85 C 164.00 181.04 168.17 186.68 174.61 188.52 C 176.80 191.57 172.88 194.01 170.14 193.32 C 165.85 190.42 163.97 183.98 158.21 183.38 C 156.62 184.34 155.34 185.72 153.90 186.88 C 152.25 188.59 149.63 187.73 147.62 188.62 C 145.62 190.76 144.17 193.33 142.53 195.74 C 140.34 195.84 138.57 194.82 137.27 193.10 C 139.08 190.11 141.61 187.69 145.00 186.63 C 144.65 183.78 143.73 181.06 142.88 178.33 C 142.22 176.42 142.65 174.04 140.97 172.60 C 137.60 172.23 134.40 173.84 131.73 175.73 C 128.60 181.79 131.76 188.70 135.11 193.96 C 139.86 199.81 145.02 205.33 150.48 210.51 C 157.45 217.48 166.55 221.84 175.74 225.06 C 183.19 226.68 191.15 226.54 198.51 224.54 C 206.30 220.79 214.57 217.02 220.22 210.23 C 225.10 202.67 229.83 194.46 230.48 185.28 C 230.86 181.29 231.98 177.15 230.79 173.21 C 227.21 163.00 222.43 153.27 217.32 143.76 C 221.34 146.39 223.84 150.59 226.56 154.42 C 230.21 159.88 234.06 165.38 236.16 171.65 C 237.94 178.67 239.74 185.78 240.22 193.02 C 239.07 201.44 237.11 210.07 232.11 217.11 C 226.08 225.69 216.97 231.61 207.38 235.55 C 203.34 237.08 199.56 239.91 195.06 239.69 C 187.69 239.45 180.33 240.06 172.96 239.83 C 165.94 238.91 159.11 236.61 152.81 233.40 C 146.87 230.45 140.86 227.49 135.54 223.48 C 125.76 215.17 117.80 204.97 110.68 194.35 C 106.90 188.12 102.89 181.55 96.71 177.48 C 91.50 176.01 85.87 173.06 84.49 167.35 C 83.11 162.07 80.33 157.30 76.91 153.08 C 73.65 149.13 70.58 144.69 65.85 142.38 C 63.60 143.65 65.24 145.94 65.59 147.80 C 63.59 147.62 61.59 147.45 59.60 147.27 C 59.57 144.46 60.46 141.37 59.26 138.74 C 55.15 134.89 49.71 132.22 43.98 132.32 C 40.96 132.38 37.88 131.22 36.13 128.65 C 34.13 127.19 37.26 124.54 38.75 125.84 C 40.77 126.70 42.50 129.02 44.91 128.27 C 45.70 128.01 47.27 127.47 48.06 127.20 C 44.88 124.92 41.58 122.81 38.37 120.57 C 38.39 118.70 38.41 116.83 38.47 114.96 C 41.73 116.68 44.20 119.52 47.49 121.20 C 46.52 117.56 44.88 113.84 46.01 110.02 C 47.07 110.24 48.11 110.54 49.12 110.91 C 50.99 115.37 51.61 120.86 56.00 123.74 C 57.88 122.38 59.03 120.17 59.71 118.00 C 59.20 116.13 58.12 114.49 57.26 112.78 C 58.90 111.50 60.58 110.27 62.29 109.08 C 63.51 111.63 63.76 114.46 64.22 117.21 C 64.91 120.55 63.06 123.65 62.65 126.90 C 65.82 133.33 73.90 130.38 79.51 131.65 C 85.69 135.92 88.89 143.05 94.32 148.04 C 96.07 137.79 95.64 127.28 94.57 116.97 C 93.71 105.37 97.14 94.06 97.54 82.53 C 91.18 82.28 84.73 83.46 78.45 82.16 C 74.58 80.91 70.28 79.69 67.71 76.28 C 63.76 71.83 60.93 66.49 56.81 62.20 C 54.60 59.58 50.96 60.39 47.96 60.45 C 44.58 60.35 41.59 62.70 38.19 62.10 C 38.27 60.58 38.37 59.07 38.45 57.55 C 41.78 56.93 45.11 56.22 48.25 54.92 C 45.47 52.28 41.73 51.24 38.42 49.51 C 36.75 48.89 37.52 46.94 37.37 45.62 C 44.28 43.03 48.93 52.24 55.78 50.01 C 55.92 46.77 55.01 43.65 54.39 40.51 C 56.39 40.36 58.40 40.36 60.41 40.46 C 60.53 42.93 60.60 45.40 60.69 47.87 C 65.34 47.25 69.91 48.59 74.56 48.40 C 74.88 49.10 75.53 50.51 75.85 51.22 C 74.95 52.06 73.98 52.82 72.97 53.52 C 71.03 53.31 69.18 52.67 67.29 52.22 C 67.33 52.76 67.42 53.84 67.46 54.37 C 70.52 55.36 73.85 56.23 75.86 58.97 C 73.97 60.10 72.00 61.09 69.98 61.96 C 72.46 64.43 74.34 67.67 77.44 69.40 C 83.18 70.26 89.35 72.80 94.94 69.99 C 98.24 68.31 101.93 68.34 105.51 68.89 C 104.01 58.84 101.60 48.94 99.58 38.98 C 100.88 36.07 103.80 34.23 106.10 32.11 Z" />
</g>
</svg>
