<?xml version="1.0" encoding="UTF-8" ?>
<!DOCTYPE svg PUBLIC "-//W3C//DTD SVG 1.1//EN" "http://www.w3.org/Graphics/SVG/1.1/DTD/svg11.dtd">
<svg width="250pt" height="250pt" viewBox="0 0 250 250" version="1.1" xmlns="http://www.w3.org/2000/svg">
<g id="#fefeffff">
<path fill="#fefeff" opacity="1.00" d=" M 0.00 0.00 L 109.25 0.00 C 108.96 0.55 108.40 1.64 108.12 2.18 C 103.92 2.26 99.77 2.81 95.68 3.68 C 93.58 4.29 88.51 4.47 89.35 7.50 C 99.90 12.67 108.02 22.09 111.95 33.08 C 114.16 43.26 113.18 53.89 111.12 64.02 C 109.04 65.48 107.78 67.73 106.97 70.09 C 98.94 78.20 88.00 86.35 85.99 98.17 C 84.07 103.20 82.26 108.39 81.75 113.78 C 81.83 128.02 76.46 143.97 81.70 157.33 C 83.13 160.19 84.16 163.21 85.57 166.07 L 85.97 166.82 C 92.01 179.55 110.27 187.93 122.99 182.04 C 130.82 181.27 138.32 178.49 146.03 177.07 C 163.44 169.10 171.04 150.05 185.25 138.26 C 198.70 132.27 214.07 131.78 227.96 136.95 C 235.37 140.54 239.51 147.48 244.28 153.85 C 249.70 155.36 247.05 147.22 250.00 144.45 L 250.00 250.00 L 143.11 250.00 C 143.00 249.46 142.79 248.37 142.68 247.82 C 150.27 248.33 158.22 246.88 164.75 242.84 C 173.01 240.53 181.45 238.22 188.84 233.81 C 192.68 229.72 197.60 226.93 202.59 224.51 C 203.66 222.46 209.02 219.49 205.84 217.21 C 203.26 214.93 199.50 215.79 196.35 215.55 C 182.25 207.83 165.81 201.68 149.58 204.45 C 146.07 205.91 140.02 202.84 138.04 207.12 C 134.63 208.71 128.37 207.13 127.02 211.07 C 122.15 212.46 117.11 214.87 113.89 218.94 C 110.60 220.62 108.12 223.65 107.02 227.17 C 106.02 228.40 104.99 229.61 104.00 230.86 C 100.47 235.36 94.99 238.32 92.02 243.10 C 90.77 246.54 94.21 246.04 96.54 246.21 C 100.24 249.35 106.09 246.51 109.61 250.00 L 0.00 250.00 L 0.00 140.99 C 0.48 140.99 1.45 141.01 1.93 141.02 C 1.61 144.82 2.39 148.50 4.03 151.89 C 3.33 160.48 7.73 168.46 10.85 176.09 C 11.91 181.82 15.05 186.77 18.83 191.11 C 20.46 193.93 21.51 199.69 25.73 198.89 C 27.66 193.04 31.79 187.97 32.90 181.88 C 35.85 178.81 41.13 177.02 41.29 172.15 C 43.03 170.55 44.31 168.55 45.31 166.43 C 47.85 163.06 49.69 159.20 51.41 155.36 C 56.43 142.86 54.80 129.16 55.05 116.00 C 54.28 111.34 56.86 105.52 53.29 101.65 C 52.14 94.53 49.67 87.53 45.23 81.79 C 43.33 79.11 41.48 76.38 39.27 73.95 C 39.44 71.01 37.62 69.08 35.13 67.88 C 32.18 61.19 30.14 54.23 28.67 47.06 C 25.16 46.35 23.56 50.11 22.86 52.88 C 21.00 54.42 19.84 56.53 18.76 58.65 C 10.14 69.00 5.56 82.96 4.20 96.25 C 2.75 99.92 2.23 103.87 1.90 107.79 C 1.43 108.18 0.48 108.97 0.00 109.37 L 0.00 0.00 M 66.86 24.88 C 65.76 25.31 62.58 24.03 63.06 26.01 C 61.04 26.84 58.96 27.72 57.31 29.19 C 45.31 35.40 46.73 57.95 58.31 63.76 C 63.91 70.05 79.22 71.37 84.08 64.12 C 84.29 63.84 84.71 63.27 84.92 62.99 C 94.96 58.41 99.88 41.16 89.94 33.99 C 88.35 30.69 85.92 27.50 81.99 27.15 C 78.82 23.64 70.96 20.94 66.86 24.88 M 200.46 152.46 C 186.05 156.27 179.68 175.26 189.03 186.98 C 197.13 201.76 220.55 200.29 227.47 185.41 C 234.29 176.34 229.56 164.59 223.58 156.47 C 216.54 152.80 208.43 150.57 200.46 152.46 M 47.19 199.13 C 44.36 204.06 42.87 213.83 47.15 216.73 C 47.94 228.15 63.52 234.66 72.35 229.69 C 73.05 230.83 75.92 230.60 75.74 229.05 C 80.87 226.82 85.54 221.68 87.92 217.11 C 91.86 214.41 91.91 202.49 87.66 201.22 C 86.39 196.38 81.64 193.09 78.04 190.19 C 68.77 181.90 50.94 187.23 47.19 199.13 Z" />
</g>
<g id="#c5bdf5ff">
<path fill="#c5bdf5" opacity="1.00" d=" M 109.25 0.00 L 118.58 0.00 C 115.90 2.89 111.64 1.61 108.12 2.18 C 108.40 1.64 108.96 0.55 109.25 0.00 Z" />
</g>
<g id="#9e8feaff">
<path fill="#9e8fea" opacity="1.00" d=" M 118.58 0.00 L 137.39 0.00 C 144.24 3.60 152.45 3.48 159.76 6.05 C 162.85 9.28 167.81 8.65 171.48 10.90 C 165.93 12.74 156.82 11.58 155.44 18.53 C 150.61 19.88 149.30 24.80 146.52 28.42 C 142.47 29.60 139.61 32.44 138.41 36.48 C 133.81 35.50 131.05 38.41 128.38 41.32 C 128.48 38.71 128.06 36.22 127.10 33.87 C 121.84 20.25 112.06 5.19 96.10 4.68 L 95.68 3.68 C 99.83 3.85 104.58 5.05 108.12 2.18 C 111.64 1.61 115.90 2.89 118.58 0.00 Z" />
</g>
<g id="#fdfeffff">
<path fill="#fdfeff" opacity="1.00" d=" M 137.39 0.00 L 250.00 0.00 L 250.00 104.99 C 249.48 105.02 248.44 105.09 247.91 105.12 L 247.78 104.25 C 249.09 99.61 247.47 95.54 245.08 91.79 C 244.69 90.61 244.29 89.44 243.91 88.26 C 241.60 77.86 238.52 66.74 231.04 58.81 C 230.13 56.64 228.86 54.66 227.10 53.08 C 221.62 46.33 218.38 34.98 209.07 32.75 C 208.42 32.15 207.77 31.57 207.12 30.98 C 199.66 23.17 190.33 17.58 180.40 13.49 C 174.83 8.54 166.83 7.78 159.76 6.05 C 152.45 3.48 144.24 3.60 137.39 0.00 Z" />
</g>
<g id="#d2caf5ff">
<path fill="#d2caf5" opacity="1.00" d=" M 95.68 3.68 C 99.77 2.81 103.92 2.26 108.12 2.18 C 104.58 5.05 99.83 3.85 95.68 3.68 Z" />
</g>
<g id="#c2c3eaff">
<path fill="#c2c3ea" opacity="1.00" d=" M 89.35 7.50 C 88.51 4.47 93.58 4.29 95.68 3.68 L 96.10 4.68 C 91.67 7.22 96.58 9.92 98.85 12.12 C 114.20 23.85 120.81 46.77 111.12 64.02 C 113.18 53.89 114.16 43.26 111.95 33.08 C 108.02 22.09 99.90 12.67 89.35 7.50 Z" />
</g>
<g id="#7979ddff">
<path fill="#7979dd" opacity="1.00" d=" M 96.10 4.68 C 112.06 5.19 121.84 20.25 127.10 33.87 C 130.72 51.10 122.92 67.25 110.44 78.50 C 101.88 87.76 95.00 99.61 95.88 112.66 C 94.96 126.49 92.36 140.56 94.94 154.34 C 94.90 154.76 94.82 155.59 94.78 156.00 C 86.41 153.25 89.33 162.04 85.57 166.07 C 84.16 163.21 83.13 160.19 81.70 157.33 C 82.18 142.82 82.13 128.30 81.75 113.78 C 82.26 108.39 84.07 103.20 85.99 98.17 C 92.07 88.05 100.17 79.56 106.97 70.09 C 109.13 68.66 110.46 66.50 111.12 64.02 C 120.81 46.77 114.20 23.85 98.85 12.12 C 96.58 9.92 91.67 7.22 96.10 4.68 Z" />
</g>
<g id="#bcc3ecff">
<path fill="#bcc3ec" opacity="1.00" d=" M 159.76 6.05 C 166.83 7.78 174.83 8.54 180.40 13.49 C 190.33 17.58 199.66 23.17 207.12 30.98 C 202.46 29.74 199.00 26.24 195.10 23.61 C 188.39 17.40 179.07 15.75 171.48 10.90 C 167.81 8.65 162.85 9.28 159.76 6.05 Z" />
</g>
<g id="#9094eaff">
<path fill="#9094ea" opacity="1.00" d=" M 155.44 18.53 C 156.82 11.58 165.93 12.74 171.48 10.90 C 179.07 15.75 188.39 17.40 195.10 23.61 C 191.18 23.97 195.16 28.68 192.96 30.86 C 190.43 35.02 186.85 41.47 181.12 39.24 C 179.49 42.88 179.41 49.34 173.40 48.50 C 170.93 49.56 172.83 53.95 170.87 55.95 C 167.17 55.10 161.58 51.69 162.20 59.07 C 162.10 65.03 156.75 69.61 151.14 70.22 C 143.79 77.38 132.46 81.99 130.23 93.23 C 119.92 92.64 119.80 103.23 112.94 107.93 C 110.78 108.84 109.65 114.31 107.30 111.71 C 103.17 106.95 100.59 115.99 98.57 118.57 C 96.33 123.44 96.93 114.79 95.88 112.66 C 95.00 99.61 101.88 87.76 110.44 78.50 C 122.92 67.25 130.72 51.10 127.10 33.87 C 128.06 36.22 128.48 38.71 128.38 41.32 C 131.05 38.41 133.81 35.50 138.41 36.48 C 139.61 32.44 142.47 29.60 146.52 28.42 C 149.30 24.80 150.61 19.88 155.44 18.53 Z" />
</g>
<g id="#cfd0f3ff">
<path fill="#cfd0f3" opacity="1.00" d=" M 66.86 24.88 C 70.96 20.94 78.82 23.64 81.99 27.15 C 77.08 25.68 71.98 24.97 66.86 24.88 Z" />
</g>
<g id="#8498e9ff">
<path fill="#8498e9" opacity="1.00" d=" M 192.96 30.86 C 195.16 28.68 191.18 23.97 195.10 23.61 C 199.00 26.24 202.46 29.74 207.12 30.98 C 207.77 31.57 208.42 32.15 209.07 32.75 C 208.30 35.96 211.37 36.98 213.42 38.56 C 208.05 36.22 212.07 41.24 212.11 44.14 C 209.25 44.16 206.63 39.44 204.20 42.19 C 200.60 45.76 203.34 51.17 202.75 55.62 C 197.18 59.60 188.89 58.77 185.10 65.09 C 180.30 67.88 184.69 77.33 177.48 75.45 C 174.95 79.54 171.83 83.28 167.49 85.53 C 165.09 90.02 163.09 96.17 157.54 97.41 C 147.75 96.50 147.95 109.46 140.55 112.66 C 130.24 117.89 123.95 128.03 114.37 134.42 C 112.23 139.85 108.09 142.09 103.12 139.14 C 99.00 143.56 102.94 148.39 106.01 151.86 C 103.77 154.82 102.77 151.02 101.49 149.31 C 98.21 148.11 97.01 152.66 94.94 154.34 C 92.36 140.56 94.96 126.49 95.88 112.66 C 96.93 114.79 96.33 123.44 98.57 118.57 C 100.59 115.99 103.17 106.95 107.30 111.71 C 109.65 114.31 110.78 108.84 112.94 107.93 C 119.80 103.23 119.92 92.64 130.23 93.23 C 132.46 81.99 143.79 77.38 151.14 70.22 C 156.75 69.61 162.10 65.03 162.20 59.07 C 161.58 51.69 167.17 55.10 170.87 55.95 C 172.83 53.95 170.93 49.56 173.40 48.50 C 179.41 49.34 179.49 42.88 181.12 39.24 C 186.85 41.47 190.43 35.02 192.96 30.86 Z" />
</g>
<g id="#a58debff">
<path fill="#a58deb" opacity="1.00" d=" M 63.06 26.01 C 62.58 24.03 65.76 25.31 66.86 24.88 C 71.98 24.97 77.08 25.68 81.99 27.15 C 85.92 27.50 88.35 30.69 89.94 33.99 C 91.16 38.99 92.30 44.03 92.58 49.19 C 90.94 54.26 88.02 58.71 84.92 62.99 C 84.71 63.27 84.29 63.84 84.08 64.12 C 82.23 64.96 80.36 65.78 78.41 66.34 C 78.59 64.84 79.44 62.75 77.08 62.85 C 61.51 60.18 55.62 35.83 69.54 27.54 C 74.48 24.59 65.45 26.36 63.06 26.01 Z" />
</g>
<g id="#917fe0ff">
<path fill="#917fe0" opacity="1.00" d=" M 57.31 29.19 C 58.96 27.72 61.04 26.84 63.06 26.01 C 65.45 26.36 74.48 24.59 69.54 27.54 C 55.62 35.83 61.51 60.18 77.08 62.85 C 79.44 62.75 78.59 64.84 78.41 66.34 C 71.45 68.67 64.81 65.76 58.31 63.76 C 57.75 59.80 52.68 58.85 52.19 54.75 C 48.56 45.57 51.27 36.31 57.31 29.19 Z" />
</g>
<g id="#c3c4ebff">
<path fill="#c3c4eb" opacity="1.00" d=" M 58.31 63.76 C 46.73 57.95 45.31 35.40 57.31 29.19 C 51.27 36.31 48.56 45.57 52.19 54.75 C 52.68 58.85 57.75 59.80 58.31 63.76 Z" />
</g>
<g id="#c1ccedff">
<path fill="#c1cced" opacity="1.00" d=" M 209.07 32.75 C 218.38 34.98 221.62 46.33 227.10 53.08 C 220.83 49.99 218.34 43.01 213.42 38.56 C 211.37 36.98 208.30 35.96 209.07 32.75 Z" />
</g>
<g id="#c8cbeeff">
<path fill="#c8cbee" opacity="1.00" d=" M 89.94 33.99 C 99.88 41.16 94.96 58.41 84.92 62.99 C 88.02 58.71 90.94 54.26 92.58 49.19 C 92.30 44.03 91.16 38.99 89.94 33.99 Z" />
</g>
<g id="#7b9ce7ff">
<path fill="#7b9ce7" opacity="1.00" d=" M 212.11 44.14 C 212.07 41.24 208.05 36.22 213.42 38.56 C 218.34 43.01 220.83 49.99 227.10 53.08 C 228.86 54.66 230.13 56.64 231.04 58.81 C 232.00 64.80 236.45 69.47 237.80 75.36 C 235.39 72.36 233.31 68.37 228.95 68.16 C 223.08 70.74 216.97 75.23 211.57 79.48 C 210.77 84.37 205.96 86.54 202.77 89.76 C 197.62 94.01 194.95 100.70 188.92 103.94 C 182.57 106.54 183.08 117.22 174.33 115.34 C 170.54 123.29 160.09 124.64 155.70 132.71 C 151.73 139.85 136.14 139.94 139.92 149.95 C 136.73 156.65 129.21 158.63 122.74 160.79 C 121.06 167.25 116.09 172.76 109.76 174.95 C 102.46 170.86 97.48 163.80 94.78 156.00 C 94.82 155.59 94.90 154.76 94.94 154.34 C 97.01 152.66 98.21 148.11 101.49 149.31 C 102.77 151.02 103.77 154.82 106.01 151.86 C 102.94 148.39 99.00 143.56 103.12 139.14 C 108.09 142.09 112.23 139.85 114.37 134.42 C 123.95 128.03 130.24 117.89 140.55 112.66 C 147.95 109.46 147.75 96.50 157.54 97.41 C 163.09 96.17 165.09 90.02 167.49 85.53 C 171.83 83.28 174.95 79.54 177.48 75.45 C 184.69 77.33 180.30 67.88 185.10 65.09 C 188.89 58.77 197.18 59.60 202.75 55.62 C 203.34 51.17 200.60 45.76 204.20 42.19 C 206.63 39.44 209.25 44.16 212.11 44.14 Z" />
</g>
<g id="#c8c7edff">
<path fill="#c8c7ed" opacity="1.00" d=" M 22.86 52.88 C 23.56 50.11 25.16 46.35 28.67 47.06 C 30.14 54.23 32.18 61.19 35.13 67.88 C 26.17 66.70 32.82 46.08 22.86 52.88 Z" />
</g>
<g id="#a78eebff">
<path fill="#a78eeb" opacity="1.00" d=" M 22.86 52.88 C 32.82 46.08 26.17 66.70 35.13 67.88 C 35.82 70.19 36.18 73.84 39.27 73.95 C 41.48 76.38 43.33 79.11 45.23 81.79 C 45.13 82.58 44.92 84.16 44.82 84.95 C 37.04 83.20 45.20 92.49 39.78 94.78 C 33.82 97.33 26.17 98.42 22.31 104.33 C 18.55 110.80 12.22 115.20 8.67 121.83 C 3.02 124.33 5.50 108.24 2.13 117.24 C 2.08 114.07 1.97 110.94 1.90 107.79 C 2.23 103.87 2.75 99.92 4.20 96.25 C 6.91 82.92 14.81 71.50 18.76 58.65 C 19.84 56.53 21.00 54.42 22.86 52.88 Z" />
</g>
<g id="#c8caefff">
<path fill="#c8caef" opacity="1.00" d=" M 4.20 96.25 C 5.56 82.96 10.14 69.00 18.76 58.65 C 14.81 71.50 6.91 82.92 4.20 96.25 Z" />
</g>
<g id="#b2c8eaff">
<path fill="#b2c8ea" opacity="1.00" d=" M 231.04 58.81 C 238.52 66.74 241.60 77.86 243.91 88.26 C 240.67 84.59 240.06 79.56 237.80 75.36 C 236.45 69.47 232.00 64.80 231.04 58.81 Z" />
</g>
<g id="#c5cde9ff">
<path fill="#c5cde9" opacity="1.00" d=" M 58.31 63.76 C 64.81 65.76 71.45 68.67 78.41 66.34 C 80.36 65.78 82.23 64.96 84.08 64.12 C 79.22 71.37 63.91 70.05 58.31 63.76 Z" />
</g>
<g id="#bcbfecff">
<path fill="#bcbfec" opacity="1.00" d=" M 106.97 70.09 C 107.78 67.73 109.04 65.48 111.12 64.02 C 110.46 66.50 109.13 68.66 106.97 70.09 Z" />
</g>
<g id="#cbc9efff">
<path fill="#cbc9ef" opacity="1.00" d=" M 35.13 67.88 C 37.62 69.08 39.44 71.01 39.27 73.95 C 36.18 73.84 35.82 70.19 35.13 67.88 Z" />
</g>
<g id="#70a1e5ff">
<path fill="#70a1e5" opacity="1.00" d=" M 211.57 79.48 C 216.97 75.23 223.08 70.74 228.95 68.16 C 233.31 68.37 235.39 72.36 237.80 75.36 C 240.06 79.56 240.67 84.59 243.91 88.26 C 244.29 89.44 244.69 90.61 245.08 91.79 C 245.38 96.03 245.39 100.57 247.78 104.25 L 247.91 105.12 C 248.07 108.65 246.93 112.97 250.00 115.58 L 250.00 132.42 C 248.32 133.89 247.89 136.01 247.88 138.15 C 244.40 135.33 241.16 132.25 238.91 128.40 C 231.75 132.28 225.61 123.85 218.90 127.77 C 211.96 126.93 215.96 130.15 217.04 132.06 C 206.91 127.10 196.68 131.19 187.19 135.22 C 173.99 141.55 169.28 156.37 158.93 165.89 C 150.15 176.70 134.13 175.13 122.99 182.04 C 122.26 182.09 120.79 182.20 120.05 182.25 C 120.72 181.52 121.37 180.77 122.00 180.01 C 117.84 178.54 113.47 177.45 109.76 174.95 C 116.09 172.76 121.06 167.25 122.74 160.79 C 129.21 158.63 136.73 156.65 139.92 149.95 C 136.14 139.94 151.73 139.85 155.70 132.71 C 160.09 124.64 170.54 123.29 174.33 115.34 C 183.08 117.22 182.57 106.54 188.92 103.94 C 194.95 100.70 197.62 94.01 202.77 89.76 C 205.96 86.54 210.77 84.37 211.57 79.48 Z" />
</g>
<g id="#bec2e9ff">
<path fill="#bec2e9" opacity="1.00" d=" M 85.99 98.17 C 88.00 86.35 98.94 78.20 106.97 70.09 C 100.17 79.56 92.07 88.05 85.99 98.17 Z" />
</g>
<g id="#bec5ecff">
<path fill="#bec5ec" opacity="1.00" d=" M 45.23 81.79 C 49.67 87.53 52.14 94.53 53.29 101.65 C 51.26 119.30 54.96 137.63 51.41 155.36 C 49.69 159.20 47.85 163.06 45.31 166.43 C 44.70 161.13 48.67 156.86 49.90 151.90 C 53.30 139.20 51.68 125.88 51.99 112.90 C 51.50 103.23 49.71 93.41 44.82 84.95 C 44.92 84.16 45.13 82.58 45.23 81.79 Z" />
</g>
<g id="#9d8febff">
<path fill="#9d8feb" opacity="1.00" d=" M 39.78 94.78 C 45.20 92.49 37.04 83.20 44.82 84.95 C 49.71 93.41 51.50 103.23 51.99 112.90 C 50.31 116.46 45.50 115.42 43.32 118.34 C 39.67 123.98 35.76 129.73 29.37 132.48 C 22.74 134.85 22.90 142.43 19.55 147.50 C 12.98 148.20 8.95 154.50 6.67 160.10 C 5.84 157.35 5.19 154.53 4.03 151.89 C 2.39 148.50 1.61 144.82 1.93 141.02 C 2.01 133.09 1.92 125.16 2.13 117.24 C 5.50 108.24 3.02 124.33 8.67 121.83 C 12.22 115.20 18.55 110.80 22.31 104.33 C 26.17 98.42 33.82 97.33 39.78 94.78 Z" />
</g>
<g id="#b5c7eeff">
<path fill="#b5c7ee" opacity="1.00" d=" M 245.08 91.79 C 247.47 95.54 249.09 99.61 247.78 104.25 C 245.39 100.57 245.38 96.03 245.08 91.79 Z" />
</g>
<g id="#ecedf7ff">
<path fill="#ecedf7" opacity="1.00" d=" M 53.29 101.65 C 56.86 105.52 54.28 111.34 55.05 116.00 C 54.80 129.16 56.43 142.86 51.41 155.36 C 54.96 137.63 51.26 119.30 53.29 101.65 Z" />
</g>
<g id="#b2cfeeff">
<path fill="#b2cfee" opacity="1.00" d=" M 247.91 105.12 C 248.44 105.09 249.48 105.02 250.00 104.99 L 250.00 115.58 C 246.93 112.97 248.07 108.65 247.91 105.12 Z" />
</g>
<g id="#b4b3ebff">
<path fill="#b4b3eb" opacity="1.00" d=" M 0.00 109.37 C 0.48 108.97 1.43 108.18 1.90 107.79 C 1.97 110.94 2.08 114.07 2.13 117.24 C 1.92 125.16 2.01 133.09 1.93 141.02 C 1.45 141.01 0.48 140.99 0.00 140.99 L 0.00 109.37 Z" />
</g>
<g id="#9295eaff">
<path fill="#9295ea" opacity="1.00" d=" M 43.32 118.34 C 45.50 115.42 50.31 116.46 51.99 112.90 C 51.68 125.88 53.30 139.20 49.90 151.90 C 48.67 156.86 44.70 161.13 45.31 166.43 C 44.31 168.55 43.03 170.55 41.29 172.15 C 37.73 174.63 34.85 177.99 32.90 181.88 C 28.86 185.11 26.15 189.81 25.62 195.00 C 22.69 195.36 20.89 192.68 18.83 191.11 C 15.67 186.43 16.11 179.14 10.85 176.09 C 11.46 170.38 7.99 165.46 6.67 160.10 C 8.95 154.50 12.98 148.20 19.55 147.50 C 22.90 142.43 22.74 134.85 29.37 132.48 C 35.76 129.73 39.67 123.98 43.32 118.34 Z" />
</g>
<g id="#c1c3edff">
<path fill="#c1c3ed" opacity="1.00" d=" M 81.70 157.33 C 76.46 143.97 81.83 128.02 81.75 113.78 C 82.13 128.30 82.18 142.82 81.70 157.33 Z" />
</g>
<g id="#5894d9ff">
<path fill="#5894d9" opacity="1.00" d=" M 218.90 127.77 C 225.61 123.85 231.75 132.28 238.91 128.40 C 241.16 132.25 244.40 135.33 247.88 138.15 C 248.22 142.89 247.36 147.59 245.85 152.07 C 239.80 147.41 237.03 137.48 227.96 136.95 C 224.97 134.06 221.01 132.84 217.04 132.06 C 215.96 130.15 211.96 126.93 218.90 127.77 Z" />
</g>
<g id="#b7ccebff">
<path fill="#b7cceb" opacity="1.00" d=" M 187.19 135.22 C 196.68 131.19 206.91 127.10 217.04 132.06 C 221.01 132.84 224.97 134.06 227.96 136.95 C 214.07 131.78 198.70 132.27 185.25 138.26 C 171.04 150.05 163.44 169.10 146.03 177.07 C 138.32 178.49 130.82 181.27 122.99 182.04 C 134.13 175.13 150.15 176.70 158.93 165.89 C 169.28 156.37 173.99 141.55 187.19 135.22 Z" />
</g>
<g id="#afc7e9ff">
<path fill="#afc7e9" opacity="1.00" d=" M 247.88 138.15 C 247.89 136.01 248.32 133.89 250.00 132.42 L 250.00 144.45 C 247.05 147.22 249.70 155.36 244.28 153.85 C 239.51 147.48 235.37 140.54 227.96 136.95 C 237.03 137.48 239.80 147.41 245.85 152.07 C 247.36 147.59 248.22 142.89 247.88 138.15 Z" />
</g>
<g id="#c0c5f0ff">
<path fill="#c0c5f0" opacity="1.00" d=" M 4.03 151.89 C 5.19 154.53 5.84 157.35 6.67 160.10 C 7.99 165.46 11.46 170.38 10.85 176.09 C 7.73 168.46 3.33 160.48 4.03 151.89 Z" />
</g>
<g id="#b5ceeaff">
<path fill="#b5ceea" opacity="1.00" d=" M 200.46 152.46 C 208.43 150.57 216.54 152.80 223.58 156.47 C 229.56 164.59 234.29 176.34 227.47 185.41 C 220.55 200.29 197.13 201.76 189.03 186.98 C 179.68 175.26 186.05 156.27 200.46 152.46 M 203.02 153.85 C 197.15 155.22 191.11 158.03 189.26 164.30 C 181.01 173.73 188.97 189.18 199.05 194.03 C 209.60 199.53 225.51 192.35 228.47 179.36 C 233.97 164.32 215.63 149.78 203.02 153.85 Z" />
</g>
<g id="#5ea8e3ff">
<path fill="#5ea8e3" opacity="1.00" d=" M 203.02 153.85 C 215.63 149.78 233.97 164.32 228.47 179.36 C 225.51 192.35 209.60 199.53 199.05 194.03 C 203.98 193.55 209.58 195.35 214.06 192.55 C 206.95 190.37 200.97 185.13 199.31 177.68 C 195.63 169.02 201.67 161.07 206.18 154.21 C 205.39 154.12 203.81 153.94 203.02 153.85 Z" />
</g>
<g id="#538fd6ff">
<path fill="#538fd6" opacity="1.00" d=" M 189.26 164.30 C 191.11 158.03 197.15 155.22 203.02 153.85 C 203.81 153.94 205.39 154.12 206.18 154.21 C 201.67 161.07 195.63 169.02 199.31 177.68 C 200.97 185.13 206.95 190.37 214.06 192.55 C 209.58 195.35 203.98 193.55 199.05 194.03 C 188.97 189.18 181.01 173.73 189.26 164.30 Z" />
</g>
<g id="#6b80dbff">
<path fill="#6b80db" opacity="1.00" d=" M 85.57 166.07 C 89.33 162.04 86.41 153.25 94.78 156.00 C 97.48 163.80 102.46 170.86 109.76 174.95 C 113.47 177.45 117.84 178.54 122.00 180.01 C 121.37 180.77 120.72 181.52 120.05 182.25 C 107.04 183.84 94.08 176.74 85.97 166.82 L 85.57 166.07 Z" />
</g>
<g id="#bbc7edff">
<path fill="#bbc7ed" opacity="1.00" d=" M 85.97 166.82 C 94.08 176.74 107.04 183.84 120.05 182.25 C 120.79 182.20 122.26 182.09 122.99 182.04 C 110.27 187.93 92.01 179.55 85.97 166.82 Z" />
</g>
<g id="#b9c2ebff">
<path fill="#b9c2eb" opacity="1.00" d=" M 32.90 181.88 C 34.85 177.99 37.73 174.63 41.29 172.15 C 41.13 177.02 35.85 178.81 32.90 181.88 Z" />
</g>
<g id="#bdc7e8ff">
<path fill="#bdc7e8" opacity="1.00" d=" M 10.85 176.09 C 16.11 179.14 15.67 186.43 18.83 191.11 C 15.05 186.77 11.91 181.82 10.85 176.09 Z" />
</g>
<g id="#bfc6ebff">
<path fill="#bfc6eb" opacity="1.00" d=" M 25.62 195.00 C 26.15 189.81 28.86 185.11 32.90 181.88 C 31.79 187.97 27.66 193.04 25.73 198.89 C 21.51 199.69 20.46 193.93 18.83 191.11 C 20.89 192.68 22.69 195.36 25.62 195.00 Z" />
</g>
<g id="#b2bae9ff">
<path fill="#b2bae9" opacity="1.00" d=" M 47.19 199.13 C 50.94 187.23 68.77 181.90 78.04 190.19 C 74.08 189.42 70.22 187.79 66.13 187.95 C 51.59 186.98 43.41 204.41 47.15 216.73 C 42.87 213.83 44.36 204.06 47.19 199.13 Z" />
</g>
<g id="#717cdcff">
<path fill="#717cdc" opacity="1.00" d=" M 47.15 216.73 C 43.41 204.41 51.59 186.98 66.13 187.95 C 59.18 195.77 54.74 207.50 60.98 217.03 C 62.69 222.89 69.58 224.05 72.45 228.94 L 72.35 229.69 C 61.78 232.42 51.88 225.90 47.15 216.73 Z" />
</g>
<g id="#799ee5ff">
<path fill="#799ee5" opacity="1.00" d=" M 66.13 187.95 C 70.22 187.79 74.08 189.42 78.04 190.19 C 81.64 193.09 86.39 196.38 87.66 201.22 C 86.45 204.74 90.11 207.95 88.27 211.31 C 87.31 213.16 87.36 215.15 87.92 217.11 C 85.54 221.68 80.87 226.82 75.74 229.05 C 74.65 228.96 73.55 228.93 72.45 228.94 C 69.58 224.05 62.69 222.89 60.98 217.03 C 54.74 207.50 59.18 195.77 66.13 187.95 Z" />
</g>
<g id="#c3d0ecff">
<path fill="#c3d0ec" opacity="1.00" d=" M 87.66 201.22 C 91.91 202.49 91.86 214.41 87.92 217.11 C 87.36 215.15 87.31 213.16 88.27 211.31 C 90.11 207.95 86.45 204.74 87.66 201.22 Z" />
</g>
<g id="#b2ceeaff">
<path fill="#b2ceea" opacity="1.00" d=" M 149.58 204.45 C 165.81 201.68 182.25 207.83 196.35 215.55 C 199.50 215.79 203.26 214.93 205.84 217.21 C 209.02 219.49 203.66 222.46 202.59 224.51 C 197.60 226.93 192.68 229.72 188.84 233.81 C 181.45 238.22 173.01 240.53 164.75 242.84 C 158.22 246.88 150.27 248.33 142.68 247.82 C 153.54 245.34 163.98 241.69 174.36 237.66 C 179.26 237.46 182.20 231.72 187.46 233.48 C 190.88 226.82 200.16 225.19 203.94 219.14 C 199.70 216.30 194.03 216.96 189.43 214.69 C 175.02 203.63 155.06 204.58 138.04 207.12 C 140.02 202.84 146.07 205.91 149.58 204.45 Z" />
</g>
<g id="#68a5e2ff">
<path fill="#68a5e2" opacity="1.00" d=" M 138.04 207.12 C 155.06 204.58 175.02 203.63 189.43 214.69 C 179.75 214.25 171.60 205.29 161.00 207.91 C 153.97 205.69 143.75 209.83 145.29 218.33 C 137.13 220.21 131.90 228.61 123.25 230.30 C 123.83 233.30 134.95 229.77 136.21 235.84 C 128.29 236.02 116.29 233.69 114.15 244.01 C 118.63 244.95 123.95 244.09 127.30 247.87 C 116.96 248.85 106.81 246.58 96.54 246.21 L 97.08 245.46 C 103.02 245.88 105.44 239.68 109.78 236.84 C 117.97 229.91 121.69 218.63 131.84 213.86 C 133.67 213.04 134.52 211.44 133.13 209.74 C 134.88 209.10 136.67 208.44 138.04 207.12 Z" />
</g>
<g id="#b2c9e7ff">
<path fill="#b2c9e7" opacity="1.00" d=" M 127.02 211.07 C 128.37 207.13 134.63 208.71 138.04 207.12 C 136.67 208.44 134.88 209.10 133.13 209.74 C 131.13 210.36 129.09 210.80 127.02 211.07 Z" />
</g>
<g id="#5ea9e4ff">
<path fill="#5ea9e4" opacity="1.00" d=" M 145.29 218.33 C 143.75 209.83 153.97 205.69 161.00 207.91 C 171.60 205.29 179.75 214.25 189.43 214.69 C 194.03 216.96 199.70 216.30 203.94 219.14 C 200.16 225.19 190.88 226.82 187.46 233.48 C 182.20 231.72 179.26 237.46 174.36 237.66 C 163.98 241.69 153.54 245.34 142.68 247.82 C 137.55 247.93 132.42 248.15 127.30 247.87 C 123.95 244.09 118.63 244.95 114.15 244.01 C 116.29 233.69 128.29 236.02 136.21 235.84 C 134.95 229.77 123.83 233.30 123.25 230.30 C 131.90 228.61 137.13 220.21 145.29 218.33 Z" />
</g>
<g id="#6088d7ff">
<path fill="#6088d7" opacity="1.00" d=" M 127.02 211.07 C 129.09 210.80 131.13 210.36 133.13 209.74 C 134.52 211.44 133.67 213.04 131.84 213.86 C 121.69 218.63 117.97 229.91 109.78 236.84 C 105.44 239.68 103.02 245.88 97.08 245.46 C 88.49 241.54 104.27 237.14 104.00 230.86 C 104.99 229.61 106.02 228.40 107.02 227.17 C 109.59 224.67 111.76 221.80 113.89 218.94 C 118.51 216.85 123.28 214.56 127.02 211.07 Z" />
</g>
<g id="#b6c6eaff">
<path fill="#b6c6ea" opacity="1.00" d=" M 113.89 218.94 C 117.11 214.87 122.15 212.46 127.02 211.07 C 123.28 214.56 118.51 216.85 113.89 218.94 Z" />
</g>
<g id="#bcc2e9ff">
<path fill="#bcc2e9" opacity="1.00" d=" M 47.15 216.73 C 51.88 225.90 61.78 232.42 72.35 229.69 C 63.52 234.66 47.94 228.15 47.15 216.73 Z" />
</g>
<g id="#bfd0edff">
<path fill="#bfd0ed" opacity="1.00" d=" M 107.02 227.17 C 108.12 223.65 110.60 220.62 113.89 218.94 C 111.76 221.80 109.59 224.67 107.02 227.17 Z" />
</g>
<g id="#bdcdeaff">
<path fill="#bdcdea" opacity="1.00" d=" M 72.45 228.94 C 73.55 228.93 74.65 228.96 75.74 229.05 C 75.92 230.60 73.05 230.83 72.35 229.69 L 72.45 228.94 Z" />
</g>
<g id="#b6bee9ff">
<path fill="#b6bee9" opacity="1.00" d=" M 92.02 243.10 C 94.99 238.32 100.47 235.36 104.00 230.86 C 104.27 237.14 88.49 241.54 97.08 245.46 L 96.54 246.21 C 94.21 246.04 90.77 246.54 92.02 243.10 Z" />
</g>
<g id="#b3d5f1ff">
<path fill="#b3d5f1" opacity="1.00" d=" M 96.54 246.21 C 106.81 246.58 116.96 248.85 127.30 247.87 C 132.42 248.15 137.55 247.93 142.68 247.82 C 142.79 248.37 143.00 249.46 143.11 250.00 L 109.61 250.00 C 106.09 246.51 100.24 249.35 96.54 246.21 Z" />
</g>
</svg>
