<?xml version="1.0" encoding="UTF-8" ?>
<!DOCTYPE svg PUBLIC "-//W3C//DTD SVG 1.1//EN" "http://www.w3.org/Graphics/SVG/1.1/DTD/svg11.dtd">
<svg width="250pt" height="250pt" viewBox="0 0 250 250" version="1.1" xmlns="http://www.w3.org/2000/svg">
<g id="#ffffffff">
<path fill="#ffffff" opacity="1.00" d=" M 0.00 0.00 L 250.00 0.00 L 250.00 250.00 L 0.00 250.00 L 0.00 0.00 M 94.44 26.15 C 91.78 26.98 89.17 28.04 86.83 29.57 C 90.58 29.70 94.33 29.73 98.09 29.80 C 104.07 32.06 111.16 33.29 115.30 38.65 C 109.60 45.76 105.65 54.26 98.73 60.38 C 108.91 59.94 118.00 54.04 124.92 46.92 C 131.69 53.80 140.43 59.43 150.24 60.29 C 147.19 55.57 143.26 51.50 140.31 46.70 C 138.48 43.61 135.47 40.84 135.47 37.01 C 140.08 34.15 144.97 31.48 150.36 30.45 C 154.62 29.46 159.02 29.74 163.36 29.68 C 152.35 22.54 137.01 22.14 125.93 29.35 C 120.61 27.70 115.61 24.77 109.96 24.37 C 104.75 24.02 99.32 24.02 94.44 26.15 M 165.89 30.83 C 168.34 33.47 171.12 35.82 173.27 38.73 C 177.19 44.05 179.43 50.47 180.26 57.00 C 171.11 58.41 162.12 60.85 152.83 61.31 C 159.40 66.51 167.71 69.42 176.06 69.72 C 177.92 69.72 179.75 70.29 180.88 71.85 C 180.51 81.19 183.51 90.61 189.31 97.94 C 189.65 89.12 191.95 80.60 193.19 71.91 C 193.50 71.54 194.11 70.80 194.42 70.43 C 204.48 71.72 213.33 77.44 219.95 84.93 C 216.99 71.98 206.43 59.96 192.90 58.14 C 190.16 44.85 179.32 33.41 165.89 30.83 M 65.62 41.60 C 61.10 46.03 58.78 52.00 56.99 57.93 C 48.32 59.67 40.71 65.11 35.53 72.18 C 33.01 76.44 30.67 80.90 29.90 85.85 C 32.44 82.32 35.51 79.21 38.98 76.60 C 43.36 74.17 47.89 71.87 52.81 70.73 C 54.07 70.83 55.34 70.93 56.60 71.05 C 57.16 75.39 58.07 79.67 59.00 83.94 C 60.00 88.42 59.80 93.08 60.90 97.55 C 67.23 89.90 69.70 79.63 69.20 69.84 C 79.17 70.13 89.80 67.79 97.36 60.95 C 88.03 61.37 79.12 58.32 69.99 57.12 C 70.51 52.49 71.37 47.79 73.73 43.71 C 75.80 39.74 79.22 36.60 80.79 32.34 C 74.57 32.83 69.84 37.46 65.62 41.60 M 25.07 97.33 C 21.56 106.70 24.03 117.49 29.20 125.79 C 21.72 136.74 21.66 152.01 28.64 163.21 C 29.32 158.08 29.02 152.78 30.69 147.83 C 31.99 143.08 34.76 138.97 37.31 134.84 C 42.09 138.80 47.64 141.68 52.53 145.48 C 54.85 147.37 57.04 149.45 59.65 150.97 C 58.80 141.55 53.83 132.85 46.92 126.53 C 48.30 122.70 51.54 120.06 53.75 116.75 C 57.29 111.53 59.45 105.39 59.89 99.10 C 53.37 106.00 45.08 110.79 37.26 116.04 C 33.79 111.96 32.10 106.85 29.87 102.09 C 29.15 97.23 29.16 92.33 29.09 87.44 C 27.05 90.36 25.22 93.70 25.07 97.33 M 221.25 87.79 C 220.71 93.00 220.94 98.35 219.30 103.38 C 217.96 108.08 215.43 112.31 212.68 116.31 C 205.20 110.45 196.32 106.35 189.99 99.06 C 190.92 109.47 196.47 118.91 204.04 125.90 C 196.07 132.18 191.22 141.86 190.05 151.86 C 196.86 145.34 204.77 140.02 212.99 135.47 C 216.03 139.55 218.33 144.19 219.76 149.08 C 221.34 154.23 220.79 159.70 220.46 164.99 C 228.06 153.51 228.71 137.48 220.97 125.90 C 227.93 114.45 228.57 99.22 221.25 87.79 M 60.46 152.86 C 60.69 161.82 57.95 170.42 56.84 179.22 C 56.04 179.69 55.34 180.69 54.30 180.49 C 49.27 179.92 44.65 177.68 40.12 175.55 C 37.08 172.76 33.99 170.01 30.61 167.63 C 31.27 171.82 33.10 175.68 35.66 179.03 C 40.60 186.25 48.37 191.70 57.07 193.11 C 59.84 206.85 71.32 218.04 84.99 220.86 C 82.47 218.42 79.66 216.26 77.51 213.46 C 73.55 208.42 71.18 202.33 69.78 196.12 C 70.10 195.59 70.75 194.51 71.08 193.98 C 80.00 192.64 88.87 189.61 97.99 190.63 C 100.12 191.87 101.67 193.86 103.24 195.72 C 107.69 201.35 111.70 207.35 115.15 213.64 C 107.14 219.94 96.70 222.39 86.65 221.40 C 97.58 228.90 113.10 229.11 124.24 221.85 C 128.87 223.36 133.05 226.21 137.96 226.78 C 146.98 228.47 156.27 225.89 164.10 221.42 C 158.16 221.52 152.05 221.80 146.40 219.63 C 142.22 217.93 137.22 216.62 134.84 212.41 C 140.43 205.33 144.54 197.15 151.06 190.80 C 141.02 191.65 131.97 197.10 125.16 204.33 C 120.90 200.33 116.48 196.28 111.00 194.02 C 105.60 191.41 99.29 191.16 94.21 187.80 C 90.30 185.31 85.99 183.49 81.52 182.29 C 77.50 181.09 73.13 181.96 69.22 180.29 C 69.58 170.48 66.49 160.62 60.46 152.86 M 181.00 181.35 C 180.61 181.48 179.83 181.75 179.43 181.88 C 169.61 180.60 159.63 184.48 151.96 190.50 C 156.45 190.25 160.96 190.49 165.39 191.26 C 170.23 192.42 175.08 193.62 180.05 194.05 C 179.54 199.64 177.84 205.13 174.94 209.95 C 172.67 213.70 169.28 216.57 166.80 220.17 C 179.30 217.40 190.63 206.66 192.11 193.70 C 197.61 192.15 203.78 190.35 207.56 185.82 C 214.26 181.41 218.23 173.68 220.07 166.05 C 216.85 169.36 213.65 172.72 209.92 175.47 C 204.80 177.99 199.47 180.33 193.74 180.93 C 191.73 171.84 190.06 162.68 189.20 153.40 C 183.08 161.20 180.05 171.48 181.00 181.35 Z" />
</g>
<g id="#5eb4deff">
<path fill="#5eb4de" opacity="1.00" d=" M 94.44 26.15 C 99.32 24.02 104.75 24.02 109.96 24.37 C 115.61 24.77 120.61 27.70 125.93 29.35 C 121.92 31.86 118.32 35.01 115.30 38.65 C 111.16 33.29 104.07 32.06 98.09 29.80 C 96.81 28.65 95.62 27.40 94.44 26.15 Z" />
</g>
<g id="#2a5fa7ff">
<path fill="#2a5fa7" opacity="1.00" d=" M 125.93 29.35 C 137.01 22.14 152.35 22.54 163.36 29.68 C 159.02 29.74 154.62 29.46 150.36 30.45 C 144.97 31.48 140.08 34.15 135.47 37.01 C 131.59 39.90 128.32 43.49 124.92 46.92 C 118.00 54.04 108.91 59.94 98.73 60.38 C 105.65 54.26 109.60 45.76 115.30 38.65 C 118.32 35.01 121.92 31.86 125.93 29.35 Z" />
</g>
<g id="#79a0a8ff">
<path fill="#79a0a8" opacity="1.00" d=" M 86.83 29.57 C 89.17 28.04 91.78 26.98 94.44 26.15 C 95.62 27.40 96.81 28.65 98.09 29.80 C 94.33 29.73 90.58 29.70 86.83 29.57 Z" />
</g>
<g id="#2d5ea6ff">
<path fill="#2d5ea6" opacity="1.00" d=" M 165.89 30.83 C 179.32 33.41 190.16 44.85 192.90 58.14 C 193.61 62.69 193.59 67.33 193.19 71.91 C 191.95 80.60 189.65 89.12 189.31 97.94 C 183.51 90.61 180.51 81.19 180.88 71.85 C 180.96 66.90 180.90 61.92 180.26 57.00 C 179.43 50.47 177.19 44.05 173.27 38.73 C 171.12 35.82 168.34 33.47 165.89 30.83 Z" />
</g>
<g id="#60b4ddff">
<path fill="#60b4dd" opacity="1.00" d=" M 65.62 41.60 C 69.84 37.46 74.57 32.83 80.79 32.34 C 79.22 36.60 75.80 39.74 73.73 43.71 C 71.37 47.79 70.51 52.49 69.99 57.12 C 65.64 56.85 61.27 57.11 56.99 57.93 C 58.78 52.00 61.10 46.03 65.62 41.60 Z" />
</g>
<g id="#5fb3ddff">
<path fill="#5fb3dd" opacity="1.00" d=" M 124.92 46.92 C 128.32 43.49 131.59 39.90 135.47 37.01 C 135.47 40.84 138.48 43.61 140.31 46.70 C 143.26 51.50 147.19 55.57 150.24 60.29 C 140.43 59.43 131.69 53.80 124.92 46.92 Z" />
<path fill="#5fb3dd" opacity="1.00" d=" M 36.54 176.63 C 37.74 176.27 38.93 175.91 40.12 175.55 C 44.65 177.68 49.27 179.92 54.30 180.49 C 55.34 180.69 56.04 179.69 56.84 179.22 C 56.37 183.84 56.41 188.51 57.07 193.11 C 48.37 191.70 40.60 186.25 35.66 179.03 C 35.88 178.43 36.32 177.23 36.54 176.63 Z" />
</g>
<g id="#2a5fa6ff">
<path fill="#2a5fa6" opacity="1.00" d=" M 56.99 57.93 C 61.27 57.11 65.64 56.85 69.99 57.12 C 79.12 58.32 88.03 61.37 97.36 60.95 C 89.80 67.79 79.17 70.13 69.20 69.84 C 63.74 69.90 58.19 69.53 52.81 70.73 C 47.89 71.87 43.36 74.17 38.98 76.60 C 37.84 75.12 36.69 73.64 35.53 72.18 C 40.71 65.11 48.32 59.67 56.99 57.93 Z" />
</g>
<g id="#5eb3dcff">
<path fill="#5eb3dc" opacity="1.00" d=" M 152.83 61.31 C 162.12 60.85 171.11 58.41 180.26 57.00 C 180.90 61.92 180.96 66.90 180.88 71.85 C 179.75 70.29 177.92 69.72 176.06 69.72 C 167.71 69.42 159.40 66.51 152.83 61.31 Z" />
</g>
<g id="#60b4e0ff">
<path fill="#60b4e0" opacity="1.00" d=" M 192.90 58.14 C 206.43 59.96 216.99 71.98 219.95 84.93 C 213.33 77.44 204.48 71.72 194.42 70.43 C 194.11 70.80 193.50 71.54 193.19 71.91 C 193.59 67.33 193.61 62.69 192.90 58.14 Z" />
</g>
<g id="#60b3deff">
<path fill="#60b3de" opacity="1.00" d=" M 52.81 70.73 C 58.19 69.53 63.74 69.90 69.20 69.84 C 69.70 79.63 67.23 89.90 60.90 97.55 C 59.80 93.08 60.00 88.42 59.00 83.94 C 58.07 79.67 57.16 75.39 56.60 71.05 C 55.34 70.93 54.07 70.83 52.81 70.73 Z" />
</g>
<g id="#3b5b7eff">
<path fill="#3b5b7e" opacity="1.00" d=" M 29.90 85.85 C 30.67 80.90 33.01 76.44 35.53 72.18 C 36.69 73.64 37.84 75.12 38.98 76.60 C 35.51 79.21 32.44 82.32 29.90 85.85 Z" />
</g>
<g id="#3a597aff">
<path fill="#3a597a" opacity="1.00" d=" M 25.07 97.33 C 25.22 93.70 27.05 90.36 29.09 87.44 C 29.16 92.33 29.15 97.23 29.87 102.09 C 28.34 100.43 26.67 98.92 25.07 97.33 Z" />
</g>
<g id="#60b3daff">
<path fill="#60b3da" opacity="1.00" d=" M 221.25 87.79 C 228.57 99.22 227.93 114.45 220.97 125.90 C 218.55 122.42 215.85 119.12 212.68 116.31 C 215.43 112.31 217.96 108.08 219.30 103.38 C 220.94 98.35 220.71 93.00 221.25 87.79 Z" />
</g>
<g id="#2b5fa7ff">
<path fill="#2b5fa7" opacity="1.00" d=" M 29.20 125.79 C 24.03 117.49 21.56 106.70 25.07 97.33 C 26.67 98.92 28.34 100.43 29.87 102.09 C 32.10 106.85 33.79 111.96 37.26 116.04 C 40.21 119.77 43.58 123.15 46.92 126.53 C 53.83 132.85 58.80 141.55 59.65 150.97 C 57.04 149.45 54.85 147.37 52.53 145.48 C 47.64 141.68 42.09 138.80 37.31 134.84 C 34.26 132.17 31.51 129.13 29.20 125.79 Z" />
<path fill="#2b5fa7" opacity="1.00" d=" M 189.99 99.06 C 196.32 106.35 205.20 110.45 212.68 116.31 C 215.85 119.12 218.55 122.42 220.97 125.90 C 228.71 137.48 228.06 153.51 220.46 164.99 C 220.79 159.70 221.34 154.23 219.76 149.08 C 218.33 144.19 216.03 139.55 212.99 135.47 C 210.37 131.96 207.23 128.89 204.04 125.90 C 196.47 118.91 190.92 109.47 189.99 99.06 Z" />
</g>
<g id="#5fb4deff">
<path fill="#5fb4de" opacity="1.00" d=" M 37.26 116.04 C 45.08 110.79 53.37 106.00 59.89 99.10 C 59.45 105.39 57.29 111.53 53.75 116.75 C 51.54 120.06 48.30 122.70 46.92 126.53 C 43.58 123.15 40.21 119.77 37.26 116.04 Z" />
<path fill="#5fb4de" opacity="1.00" d=" M 204.04 125.90 C 207.23 128.89 210.37 131.96 212.99 135.47 C 204.77 140.02 196.86 145.34 190.05 151.86 C 191.22 141.86 196.07 132.18 204.04 125.90 Z" />
<path fill="#5fb4de" opacity="1.00" d=" M 69.22 180.29 C 73.13 181.96 77.50 181.09 81.52 182.29 C 85.99 183.49 90.30 185.31 94.21 187.80 C 99.29 191.16 105.60 191.41 111.00 194.02 C 116.48 196.28 120.90 200.33 125.16 204.33 C 121.93 207.54 118.68 210.75 115.15 213.64 C 111.70 207.35 107.69 201.35 103.24 195.72 C 101.67 193.86 100.12 191.87 97.99 190.63 C 88.87 189.61 80.00 192.64 71.08 193.98 C 70.75 194.51 70.10 195.59 69.78 196.12 C 68.96 190.89 69.25 185.57 69.22 180.29 Z" />
</g>
<g id="#5db4dfff">
<path fill="#5db4df" opacity="1.00" d=" M 29.20 125.79 C 31.51 129.13 34.26 132.17 37.31 134.84 C 34.76 138.97 31.99 143.08 30.69 147.83 C 29.02 152.78 29.32 158.08 28.64 163.21 C 21.66 152.01 21.72 136.74 29.20 125.79 Z" />
</g>
<g id="#2c5ea8ff">
<path fill="#2c5ea8" opacity="1.00" d=" M 60.46 152.86 C 66.49 160.62 69.58 170.48 69.22 180.29 C 69.25 185.57 68.96 190.89 69.78 196.12 C 71.18 202.33 73.55 208.42 77.51 213.46 C 79.66 216.26 82.47 218.42 84.99 220.86 C 71.32 218.04 59.84 206.85 57.07 193.11 C 56.41 188.51 56.37 183.84 56.84 179.22 C 57.95 170.42 60.69 161.82 60.46 152.86 Z" />
</g>
<g id="#61b3deff">
<path fill="#61b3de" opacity="1.00" d=" M 181.00 181.35 C 180.05 171.48 183.08 161.20 189.20 153.40 C 190.06 162.68 191.73 171.84 193.74 180.93 C 189.51 181.43 185.24 181.22 181.00 181.35 Z" />
</g>
<g id="#3c5c81ff">
<path fill="#3c5c81" opacity="1.00" d=" M 209.92 175.47 C 213.65 172.72 216.85 169.36 220.07 166.05 C 218.23 173.68 214.26 181.41 207.56 185.82 C 209.39 182.75 211.08 179.61 213.08 176.66 C 212.29 176.36 210.71 175.77 209.92 175.47 Z" />
</g>
<g id="#74adbfff">
<path fill="#74adbf" opacity="1.00" d=" M 30.61 167.63 C 33.99 170.01 37.08 172.76 40.12 175.55 C 38.93 175.91 37.74 176.27 36.54 176.63 C 36.32 177.23 35.88 178.43 35.66 179.03 C 33.10 175.68 31.27 171.82 30.61 167.63 Z" />
</g>
<g id="#2d5ea8ff">
<path fill="#2d5ea8" opacity="1.00" d=" M 193.74 180.93 C 199.47 180.33 204.80 177.99 209.92 175.47 C 210.71 175.77 212.29 176.36 213.08 176.66 C 211.08 179.61 209.39 182.75 207.56 185.82 C 203.78 190.35 197.61 192.15 192.11 193.70 C 188.11 194.13 184.07 194.23 180.05 194.05 C 175.08 193.62 170.23 192.42 165.39 191.26 C 164.57 189.73 163.74 188.20 162.92 186.67 C 167.75 182.78 174.59 185.61 179.43 181.88 C 179.83 181.75 180.61 181.48 181.00 181.35 C 185.24 181.22 189.51 181.43 193.74 180.93 Z" />
</g>
<g id="#395b80ff">
<path fill="#395b80" opacity="1.00" d=" M 151.96 190.50 C 159.63 184.48 169.61 180.60 179.43 181.88 C 174.59 185.61 167.75 182.78 162.92 186.67 C 163.74 188.20 164.57 189.73 165.39 191.26 C 160.96 190.49 156.45 190.25 151.96 190.50 Z" />
</g>
<g id="#2c5fa6ff">
<path fill="#2c5fa6" opacity="1.00" d=" M 125.16 204.33 C 131.97 197.10 141.02 191.65 151.06 190.80 C 144.54 197.15 140.43 205.33 134.84 212.41 C 131.88 216.14 128.38 219.46 124.24 221.85 C 113.10 229.11 97.58 228.90 86.65 221.40 C 96.70 222.39 107.14 219.94 115.15 213.64 C 118.68 210.75 121.93 207.54 125.16 204.33 Z" />
</g>
<g id="#62b3daff">
<path fill="#62b3da" opacity="1.00" d=" M 180.05 194.05 C 184.07 194.23 188.11 194.13 192.11 193.70 C 190.63 206.66 179.30 217.40 166.80 220.17 C 169.28 216.57 172.67 213.70 174.94 209.95 C 177.84 205.13 179.54 199.64 180.05 194.05 Z" />
</g>
<g id="#61b3dbff">
<path fill="#61b3db" opacity="1.00" d=" M 124.24 221.85 C 128.38 219.46 131.88 216.14 134.84 212.41 C 137.22 216.62 142.22 217.93 146.40 219.63 C 152.05 221.80 158.16 221.52 164.10 221.42 C 156.27 225.89 146.98 228.47 137.96 226.78 C 133.05 226.21 128.87 223.36 124.24 221.85 Z" />
</g>
</svg>
