<?xml version="1.0" encoding="UTF-8" ?>
<!DOCTYPE svg PUBLIC "-//W3C//DTD SVG 1.1//EN" "http://www.w3.org/Graphics/SVG/1.1/DTD/svg11.dtd">
<svg width="250pt" height="250pt" viewBox="0 0 250 250" version="1.1" xmlns="http://www.w3.org/2000/svg">
<g id="#ffffffff">
<path fill="#ffffff" opacity="1.00" d=" M 0.00 0.00 L 250.00 0.00 L 250.00 109.51 C 248.48 99.62 246.17 89.60 241.02 80.91 C 232.05 64.88 216.10 52.90 198.11 49.07 C 177.30 43.88 154.43 50.31 138.65 64.65 C 136.29 66.88 133.28 69.44 133.49 73.01 C 133.46 77.16 137.87 80.61 141.90 79.40 C 145.30 77.87 147.72 74.88 150.55 72.55 C 167.21 58.64 192.84 57.30 211.07 68.92 C 224.05 76.95 233.33 90.83 235.45 105.98 C 236.56 115.32 235.86 125.07 232.01 133.75 C 225.22 150.17 209.69 162.86 192.02 165.48 C 180.27 167.72 167.80 165.39 157.44 159.50 C 144.19 152.04 134.54 138.64 131.69 123.70 C 128.13 104.93 116.02 87.94 99.30 78.64 C 89.79 73.32 78.98 70.07 68.03 70.16 C 46.76 69.34 25.55 79.95 13.11 97.17 C 5.65 107.20 1.72 119.36 0.00 131.63 L 0.00 0.00 M 176.28 72.83 C 156.29 75.93 139.62 94.55 140.17 115.01 C 139.36 135.13 155.11 154.41 174.97 157.62 C 177.96 157.64 181.97 158.74 183.85 155.66 C 186.61 152.61 185.38 147.16 181.62 145.55 C 179.01 144.55 176.18 144.33 173.57 143.34 C 162.05 139.58 153.76 128.09 153.58 116.01 C 153.34 107.52 157.18 99.11 163.50 93.48 C 174.34 83.33 193.30 83.53 203.58 94.41 C 205.82 96.45 207.65 99.74 211.07 99.71 C 215.53 100.40 219.65 95.24 218.19 91.07 C 216.13 86.64 212.23 83.49 208.44 80.59 C 199.29 73.86 187.47 71.14 176.28 72.83 Z" />
<path fill="#ffffff" opacity="1.00" d=" M 39.87 91.01 C 51.61 83.95 66.19 81.93 79.46 85.25 C 94.91 89.16 108.42 100.40 114.80 115.05 C 117.34 120.72 118.39 126.88 119.97 132.86 C 127.64 160.05 154.68 180.43 183.00 179.86 C 201.32 180.31 219.45 172.24 231.89 158.90 C 242.37 147.92 248.03 133.25 250.00 118.37 L 250.00 250.00 L 0.00 250.00 L 0.00 140.38 C 1.34 150.58 3.97 160.79 9.31 169.67 C 18.17 185.20 33.72 196.81 51.16 200.77 C 73.49 206.49 98.55 199.02 114.39 182.37 C 118.09 178.99 116.71 172.21 111.86 170.76 C 107.93 169.29 104.69 172.59 102.08 175.03 C 96.32 180.74 88.98 184.65 81.26 186.97 C 74.42 189.22 67.10 188.86 60.01 188.57 C 42.70 186.61 26.89 175.19 19.35 159.51 C 14.25 149.59 13.15 138.03 14.77 127.11 C 17.38 112.19 26.81 98.66 39.87 91.01 M 75.60 97.55 C 72.87 99.42 72.95 103.08 73.52 105.98 C 74.69 108.73 77.79 109.65 80.18 111.03 C 90.46 116.47 96.58 128.56 95.09 140.08 C 93.80 152.68 83.39 163.81 70.82 165.69 C 65.54 166.99 60.07 165.86 55.01 164.19 C 50.59 162.67 47.19 159.35 43.60 156.51 C 41.37 154.61 37.84 154.89 35.61 156.63 C 32.35 159.21 32.54 164.77 35.56 167.47 C 41.65 173.49 49.61 177.46 57.98 179.14 C 69.07 181.05 80.80 178.53 90.10 172.17 C 100.11 165.26 107.08 154.11 108.57 142.01 C 108.92 135.88 109.03 129.55 106.79 123.73 C 103.13 111.53 93.65 101.33 81.84 96.63 C 79.75 96.07 77.39 96.26 75.60 97.55 Z" />
</g>
<g id="#ff4001ff">
<path fill="#ff4001" opacity="1.00" d=" M 138.65 64.65 C 154.43 50.31 177.30 43.88 198.11 49.07 C 216.10 52.90 232.05 64.88 241.02 80.91 C 246.17 89.60 248.48 99.62 250.00 109.51 L 250.00 118.37 C 248.03 133.25 242.37 147.92 231.89 158.90 C 219.45 172.24 201.32 180.31 183.00 179.86 C 154.68 180.43 127.64 160.05 119.97 132.86 C 118.39 126.88 117.34 120.72 114.80 115.05 C 108.42 100.40 94.91 89.16 79.46 85.25 C 66.19 81.93 51.61 83.95 39.87 91.01 C 26.81 98.66 17.38 112.19 14.77 127.11 C 13.15 138.03 14.25 149.59 19.35 159.51 C 26.89 175.19 42.70 186.61 60.01 188.57 C 67.10 188.86 74.42 189.22 81.26 186.97 C 88.98 184.65 96.32 180.74 102.08 175.03 C 104.69 172.59 107.93 169.29 111.86 170.76 C 116.71 172.21 118.09 178.99 114.39 182.37 C 98.55 199.02 73.49 206.49 51.16 200.77 C 33.72 196.81 18.17 185.20 9.31 169.67 C 3.97 160.79 1.34 150.58 0.00 140.38 L 0.00 131.63 C 1.72 119.36 5.65 107.20 13.11 97.17 C 25.55 79.95 46.76 69.34 68.03 70.16 C 78.98 70.07 89.79 73.32 99.30 78.64 C 116.02 87.94 128.13 104.93 131.69 123.70 C 134.54 138.64 144.19 152.04 157.44 159.50 C 167.80 165.39 180.27 167.72 192.02 165.48 C 209.69 162.86 225.22 150.17 232.01 133.75 C 235.86 125.07 236.56 115.32 235.45 105.98 C 233.33 90.83 224.05 76.95 211.07 68.92 C 192.84 57.30 167.21 58.64 150.55 72.55 C 147.72 74.88 145.30 77.87 141.90 79.40 C 137.87 80.61 133.46 77.16 133.49 73.01 C 133.28 69.44 136.29 66.88 138.65 64.65 Z" />
</g>
<g id="#000000ff">
<path fill="#000000" opacity="1.00" d=" M 176.28 72.83 C 187.47 71.14 199.29 73.86 208.44 80.59 C 212.23 83.49 216.13 86.64 218.19 91.07 C 219.65 95.24 215.53 100.40 211.07 99.71 C 207.65 99.74 205.82 96.45 203.58 94.41 C 193.30 83.53 174.34 83.33 163.50 93.48 C 157.18 99.11 153.34 107.52 153.58 116.01 C 153.76 128.09 162.05 139.58 173.57 143.34 C 176.18 144.33 179.01 144.55 181.62 145.55 C 185.38 147.16 186.61 152.61 183.85 155.66 C 181.97 158.74 177.96 157.64 174.97 157.62 C 155.11 154.41 139.36 135.13 140.17 115.01 C 139.62 94.55 156.29 75.93 176.28 72.83 Z" />
<path fill="#000000" opacity="1.00" d=" M 75.60 97.55 C 77.39 96.26 79.75 96.07 81.84 96.63 C 93.65 101.33 103.13 111.53 106.79 123.73 C 109.03 129.55 108.92 135.88 108.57 142.01 C 107.08 154.11 100.11 165.26 90.10 172.17 C 80.80 178.53 69.07 181.05 57.98 179.14 C 49.61 177.46 41.65 173.49 35.56 167.47 C 32.54 164.77 32.35 159.21 35.61 156.63 C 37.84 154.89 41.37 154.61 43.60 156.51 C 47.19 159.35 50.59 162.67 55.01 164.19 C 60.07 165.86 65.54 166.99 70.82 165.69 C 83.39 163.81 93.80 152.68 95.09 140.08 C 96.58 128.56 90.46 116.47 80.18 111.03 C 77.79 109.65 74.69 108.73 73.52 105.98 C 72.95 103.08 72.87 99.42 75.60 97.55 Z" />
</g>
</svg>
