<?xml version="1.0" encoding="UTF-8" ?>
<!DOCTYPE svg PUBLIC "-//W3C//DTD SVG 1.1//EN" "http://www.w3.org/Graphics/SVG/1.1/DTD/svg11.dtd">
<svg width="250pt" height="214pt" viewBox="0 0 250 214" version="1.1" xmlns="http://www.w3.org/2000/svg">
<g id="#ffffffff">
<path fill="#ffffff" opacity="1.00" d=" M 0.00 0.00 L 250.00 0.00 L 250.00 214.00 L 0.00 214.00 L 0.00 0.00 M 73.50 12.54 C 72.59 15.26 72.75 18.18 72.72 21.01 C 72.93 33.69 72.73 46.38 72.78 59.07 C 73.10 60.82 72.48 63.51 74.56 64.30 C 78.98 65.16 83.53 64.53 88.00 64.63 C 131.66 64.65 175.33 64.61 219.00 64.65 C 223.24 64.49 227.75 65.42 231.79 63.79 C 232.67 62.02 232.63 59.99 232.70 58.07 C 232.55 44.69 232.55 31.31 232.71 17.94 C 232.71 15.95 232.33 13.99 231.96 12.04 C 230.34 11.76 228.72 11.45 227.08 11.37 C 177.38 11.51 127.68 11.45 77.99 11.39 C 76.46 11.52 74.75 11.51 73.50 12.54 M 11.52 83.04 C 11.53 99.68 11.50 116.32 11.53 132.97 C 13.67 133.29 15.81 133.58 17.98 133.58 C 30.66 133.49 43.34 133.48 56.02 133.58 C 58.21 133.58 60.38 133.31 62.53 133.00 C 62.54 116.35 62.54 99.70 62.53 83.05 C 53.07 81.98 43.51 82.87 34.00 82.59 C 26.51 82.81 18.97 82.03 11.52 83.04 M 74.06 83.05 C 73.81 85.02 73.57 86.99 73.54 88.97 C 73.62 101.32 73.65 113.66 73.53 126.01 C 73.52 128.36 73.76 130.71 74.02 133.05 C 75.66 133.25 77.31 133.46 78.97 133.54 C 112.99 133.52 147.02 133.46 181.04 133.57 C 182.89 133.53 184.74 133.30 186.57 133.07 C 186.58 116.40 186.63 99.72 186.55 83.04 C 184.72 82.83 182.89 82.62 181.05 82.56 C 147.02 82.61 112.99 82.59 78.97 82.57 C 77.32 82.65 75.69 82.85 74.06 83.05 M 74.20 152.43 C 72.82 157.51 73.52 162.81 73.44 168.00 C 73.41 177.35 73.53 186.70 73.33 196.04 C 73.26 198.37 73.61 200.69 74.01 202.98 C 80.25 204.38 86.67 203.42 93.00 203.64 C 103.44 203.40 113.92 204.18 124.34 203.32 C 125.37 194.92 124.43 186.44 124.74 178.00 C 124.45 169.56 125.33 161.08 124.38 152.68 C 121.93 152.43 119.48 152.19 117.02 152.26 C 102.75 152.62 88.47 152.15 74.20 152.43 Z" />
</g>
<g id="#abebf4ff">
<path fill="#abebf4" opacity="1.00" d=" M 73.50 12.54 C 74.75 11.51 76.46 11.52 77.99 11.39 C 127.68 11.45 177.38 11.51 227.08 11.37 C 228.72 11.45 230.34 11.76 231.96 12.04 C 232.33 13.99 232.71 15.95 232.71 17.94 C 232.55 31.31 232.55 44.69 232.70 58.07 C 232.63 59.99 232.67 62.02 231.79 63.79 C 227.75 65.42 223.24 64.49 219.00 64.65 C 175.33 64.61 131.66 64.65 88.00 64.63 C 83.53 64.53 78.98 65.16 74.56 64.30 C 72.48 63.51 73.10 60.82 72.78 59.07 C 72.73 46.38 72.93 33.69 72.72 21.01 C 72.75 18.18 72.59 15.26 73.50 12.54 M 74.51 13.66 C 74.10 24.10 74.47 34.55 74.36 45.00 C 74.42 51.04 74.06 57.10 74.64 63.12 C 80.42 63.47 86.21 63.30 92.00 63.31 C 133.00 63.31 174.00 63.31 215.00 63.31 C 220.19 63.28 225.40 63.60 230.57 62.92 C 230.66 46.58 230.57 30.25 230.62 13.91 C 228.43 13.65 226.23 13.42 224.02 13.43 C 174.18 13.69 124.34 13.23 74.51 13.66 Z" />
<path fill="#abebf4" opacity="1.00" d=" M 74.20 152.43 C 88.47 152.15 102.75 152.62 117.02 152.26 C 119.48 152.19 121.93 152.43 124.38 152.68 C 125.33 161.08 124.45 169.56 124.74 178.00 C 124.43 186.44 125.37 194.92 124.34 203.32 C 113.92 204.18 103.44 203.40 93.00 203.64 C 86.67 203.42 80.25 204.38 74.01 202.98 C 73.61 200.69 73.26 198.37 73.33 196.04 C 73.53 186.70 73.41 177.35 73.44 168.00 C 73.52 162.81 72.82 157.51 74.20 152.43 Z" />
</g>
<g id="#02a5c2ff">
<path fill="#02a5c2" opacity="1.00" d=" M 74.51 13.66 C 124.34 13.23 174.18 13.69 224.02 13.43 C 226.23 13.42 228.43 13.65 230.62 13.91 C 230.57 30.25 230.66 46.58 230.57 62.92 C 225.40 63.60 220.19 63.28 215.00 63.31 C 174.00 63.31 133.00 63.31 92.00 63.31 C 86.21 63.30 80.42 63.47 74.64 63.12 C 74.06 57.10 74.42 51.04 74.36 45.00 C 74.47 34.55 74.10 24.10 74.51 13.66 Z" />
</g>
<g id="#5fcadeff">
<path fill="#5fcade" opacity="1.00" d=" M 11.52 83.04 C 18.97 82.03 26.51 82.81 34.00 82.59 C 43.51 82.87 53.07 81.98 62.53 83.05 C 62.54 99.70 62.54 116.35 62.53 133.00 C 60.38 133.31 58.21 133.58 56.02 133.58 C 43.34 133.48 30.66 133.49 17.98 133.58 C 15.81 133.58 13.67 133.29 11.53 132.97 C 11.50 116.32 11.53 99.68 11.52 83.04 Z" />
<path fill="#5fcade" opacity="1.00" d=" M 74.06 83.05 C 75.69 82.85 77.32 82.65 78.97 82.57 C 112.99 82.59 147.02 82.61 181.05 82.56 C 182.89 82.62 184.72 82.83 186.55 83.04 C 186.63 99.72 186.58 116.40 186.57 133.07 C 184.74 133.30 182.89 133.53 181.04 133.57 C 147.02 133.46 112.99 133.52 78.97 133.54 C 77.31 133.46 75.66 133.25 74.02 133.05 C 73.76 130.71 73.52 128.36 73.53 126.01 C 73.65 113.66 73.62 101.32 73.54 88.97 C 73.57 86.99 73.81 85.02 74.06 83.05 Z" />
</g>
</svg>
