<?xml version="1.0" encoding="utf-8"?>
<!-- Generator: Adobe Illustrator 26.0.3, SVG Export Plug-In . SVG Version: 6.00 Build 0)  -->
<svg version="1.1" id="Layer_1" xmlns="http://www.w3.org/2000/svg" xmlns:xlink="http://www.w3.org/1999/xlink" x="0px" y="0px"
	 viewBox="0 0 249 250" style="enable-background:new 0 0 249 250;" xml:space="preserve">
<style type="text/css">
	.st0{fill:#FABB47;}
	.st1{fill:#1A1A1A;}
</style>
<g id="_x23_fabb47ff">
	<path class="st0" d="M27.1,56.2C47.3,27.4,80.9,8.4,116,6.4c6.3-0.1,12.6-0.2,18.9,0.2c4.8,0.7,9.6,1.4,14.4,2.1
		c1.5,0.1,2.8,1,4.1,1.8c-1,4.5-3.4,8.5-4.1,13.1c-2.5,12.5-0.5,26.9,8.9,36.2c11.8-10,17.6-25.7,18.1-40.8c4.8,1.1,8.9,4.2,13,6.8
		c31.7,20.6,52.3,57.4,53.2,95.2c1.2,28.6-8.6,57.5-27,79.5c-0.8,1-1.9,1.3-3.2,1.1c0.3-4.3,1.8-8.4,2.1-12.6
		c0.9-8.8,0.9-17.7,0.2-26.6c-0.6,0-1.8,0.1-2.4,0.1c-0.1,4.3-0.1,8.6-0.1,12.9c-16.3,2.2-30.2,13.1-39.4,26.4
		c-7.4,10.8-12.7,23.5-13.6,36.7c-2.3,1.2-4.9,1.3-7.4,1.3c-2.9-20-14.2-39.2-31.6-50c-6.5-4.1-14-6-21.4-7.4
		c0.2-4.7,0.2-9.5,0.1-14.2c-0.9,0.1-1.8,0.2-2.6,0.3c0.3,9.2-0.8,18.4,0.5,27.6c1.8,13.9,8,27.5,18.4,37.1c4,4.2,9.2,6.9,13.9,10.2
		c-35.8,2.5-72-13.8-95.1-41.1C18.8,184.8,9,162.9,6.1,140c-1.3-8.6-0.5-17.3-0.6-26C7.5,93.3,15,73.1,27.1,56.2 M130.4,31.4
		c-0.5,4.3,0.7,8.8-1.4,12.8c-6.9,16.2-5.1,36.5,6.8,49.9c3.6,3.8,7.7,8.1,13.2,8.5c3.6-9.4,4.9-19.7,3.2-29.6
		c-2-12.2-8-24.6-18.9-31.1c-0.3-3.4-0.1-6.8-0.3-10.1C132.4,30.5,131.5,30.4,130.4,31.4 M186.2,36.1c-0.1,3.4,0.1,6.8,0,10.3
		c-0.7,1.1-2.2,1.1-3.2,1.6c-5.2,1.9-9.8,5.2-13.7,9.1c-11.1,11.7-16.8,28.4-14.8,44.4c7.8-0.2,15-4.3,20.5-9.5
		c8.1-7.5,13.2-18,14.5-28.9c1-8.9-0.9-17.8-0.2-26.7C188.3,36.3,187.2,36.2,186.2,36.1 M191.4,76.4c-0.5,4.3,0,8.6-0.7,12.9
		c-9.8,2.5-18.4,8.9-24.2,17.1c-8.1,11.1-12.6,25.2-11.1,38.9c9.3-0.3,17.9-5.1,24.5-11.5c9.6-9.6,15-23.3,14.7-36.9
		c-0.1-6.1-0.4-12.1-0.3-18.2C195,76.8,192.7,76.6,191.4,76.4 M113.7,78.6c0.1,6.1,0.1,12.3-0.3,18.4c-0.7,14.2,4.5,28.9,14.7,39
		c6.3,6,14.3,11,23.3,11.3c1.4-0.4,1-2,1.2-3.1c0.6-13.9-4.7-27.7-13.3-38.5c-5.6-7.1-13.5-12.1-22-14.8c-1-4,0-8.4-0.5-12.6
		C115.7,78.4,114.7,78.5,113.7,78.6 M199.4,118.5c-0.2,4.2-0.2,8.5-0.1,12.7c-5.7,1.3-11.1,3.8-16,7c-13.8,9.7-22.5,25.5-25.7,41.9
		c-0.7,5.1-1.7,10.4-0.2,15.4c4.8-0.2,9.6-1.3,13.9-3.3c14.4-6.7,25-20.2,29.1-35.4c3.7-12.4,1.6-25.4,1.9-38.1
		C201.4,118.6,200.4,118.5,199.4,118.5 M106.5,121.5c0.2,11.2-1.3,22.6,1.4,33.5c2.7,11.3,8.5,22.1,17.3,29.8
		c7.7,6.9,17.7,12.4,28.4,11.8c1.1-15.5-4.8-30.9-14-43.2c-7.3-9.6-17.9-17.5-30-19.4c-0.2-4.2-0.1-8.4-0.2-12.5
		C108.4,121.5,107.4,121.5,106.5,121.5z"/>
</g>
<g id="_x23_1a1a1aff">
	<path class="st1" d="M153.4,10.4c1.3,0,2.5,0.1,3.8,0.2c6.5,2.2,12.9,4.7,19.2,7.4l-0.1,0.9c-0.6,15.1-6.3,30.9-18.1,40.8
		c-9.4-9.3-11.4-23.7-8.9-36.2C149.9,19,152.3,14.9,153.4,10.4z"/>
	<path class="st1" d="M130.4,31.4c1.1-1,2-0.9,2.7,0.5c0.2,3.4,0,6.8,0.3,10.1c10.9,6.5,17,18.9,18.9,31.1
		c1.7,9.9,0.5,20.2-3.2,29.6c-5.5-0.4-9.7-4.8-13.2-8.5c-11.9-13.4-13.7-33.7-6.8-49.9C131.1,40.2,129.9,35.7,130.4,31.4z"/>
	<path class="st1" d="M186.2,36.1c1,0.1,2,0.2,3,0.2c-0.6,8.9,1.2,17.8,0.2,26.7c-1.2,10.9-6.3,21.5-14.5,28.9
		c-5.6,5.3-12.7,9.3-20.5,9.5c-2.1-16,3.7-32.7,14.8-44.4c3.9-3.9,8.5-7.3,13.7-9.1c1.1-0.6,2.6-0.6,3.2-1.6
		C186.3,43,186.1,39.5,186.2,36.1z"/>
	<path class="st1" d="M191.4,76.4c1.3,0.2,3.6,0.4,2.9,2.4c-0.1,6.1,0.1,12.1,0.3,18.2c0.2,13.6-5.1,27.2-14.7,36.9
		c-6.6,6.4-15.1,11.2-24.5,11.5c-1.5-13.8,3-27.8,11.1-38.9c5.8-8.2,14.4-14.6,24.2-17.1C191.4,85.1,190.9,80.7,191.4,76.4z"/>
	<path class="st1" d="M113.7,78.6c1-0.1,2-0.2,3-0.3c0.5,4.2-0.5,8.6,0.5,12.6c8.6,2.6,16.4,7.7,22,14.8
		c8.6,10.8,13.9,24.6,13.3,38.5c-0.2,1.1,0.2,2.7-1.2,3.1c-9-0.3-16.9-5.3-23.3-11.3c-10.2-10.1-15.4-24.7-14.7-39
		C113.8,90.8,113.8,84.7,113.7,78.6z"/>
	<path class="st1" d="M199.4,118.5c0.9,0.1,1.9,0.1,2.9,0.2c-0.3,12.7,1.8,25.7-1.9,38.1c-4.1,15.2-14.7,28.8-29.1,35.4
		c-4.3,2.1-9.1,3.1-13.9,3.3c-1.5-5.1-0.4-10.3,0.2-15.4c3.2-16.4,11.9-32.2,25.7-41.9c4.9-3.3,10.3-5.7,16-7
		C199.3,127,199.2,122.7,199.4,118.5z"/>
	<path class="st1" d="M106.5,121.5c0.9,0,1.9,0,2.8,0c0.1,4.2,0,8.4,0.2,12.5c12.1,1.9,22.7,9.8,30,19.4c9.2,12.3,15.1,27.6,14,43.2
		c-10.7,0.6-20.7-4.9-28.4-11.8c-8.8-7.7-14.6-18.5-17.3-29.8C105.2,144,106.7,132.6,106.5,121.5z"/>
	<path class="st1" d="M212.3,162.5c0.6,0,1.8-0.1,2.4-0.1c0.7,8.8,0.6,17.7-0.2,26.6c-0.3,4.3-1.8,8.4-2.1,12.6l0,1l-0.6,0
		c-0.5,4.1-4.3,6.5-7,9.2c-12.9,12.2-28.7,21.1-45.5,26.6c0.9-13.2,6.2-25.8,13.6-36.7c9.1-13.3,23-24.1,39.4-26.4
		C212.2,171.1,212.1,166.8,212.3,162.5z"/>
	<path class="st1" d="M96.1,168.5c0.9-0.1,1.8-0.2,2.6-0.3c0.1,4.7,0.1,9.5-0.1,14.2c7.5,1.3,14.9,3.3,21.4,7.4
		c17.4,10.7,28.7,29.9,31.6,50l0.1,0.7c-7.6,1.5-15.2,3.4-23,2.9c-4.7-3.3-9.9-6-13.9-10.2c-10.4-9.6-16.6-23.2-18.4-37.1
		C95.4,186.9,96.4,177.7,96.1,168.5z"/>
</g>
</svg>
