<?xml version="1.0" encoding="UTF-8" ?>
<!DOCTYPE svg PUBLIC "-//W3C//DTD SVG 1.1//EN" "http://www.w3.org/Graphics/SVG/1.1/DTD/svg11.dtd">
<svg width="244pt" height="250pt" viewBox="0 0 244 250" version="1.1" xmlns="http://www.w3.org/2000/svg">
<g id="#ffffffff">
<path fill="#ffffff" opacity="1.00" d=" M 0.00 0.00 L 244.00 0.00 L 244.00 250.00 L 0.00 250.00 L 0.00 0.00 M 109.94 19.34 C 108.74 18.40 105.32 18.04 105.18 20.01 C 86.82 22.18 69.48 29.79 55.00 41.10 C 57.66 37.81 51.53 39.31 53.20 42.12 C 51.84 41.91 50.82 43.24 49.97 44.10 C 45.92 45.06 42.47 49.45 41.12 53.24 C 39.99 54.44 38.37 55.62 38.28 57.40 C 26.31 72.54 18.57 91.01 15.96 110.23 C 14.23 110.54 14.42 113.74 15.35 114.90 C 14.44 119.57 15.05 124.42 15.30 129.13 C 14.33 129.98 14.34 132.84 15.94 132.78 C 16.58 151.10 25.06 168.04 34.68 183.24 C 35.24 184.77 36.76 185.61 38.28 185.91 C 38.43 186.44 38.73 187.51 38.88 188.05 C 42.24 192.38 47.58 197.86 51.99 201.11 C 52.59 201.25 53.80 201.51 54.40 201.64 C 53.48 203.11 55.33 205.92 57.05 204.70 C 69.61 215.24 86.85 221.25 102.99 223.54 C 104.34 224.60 105.71 224.62 107.11 223.62 L 108.08 223.94 C 108.27 226.01 111.80 225.61 112.91 224.40 L 113.57 224.43 C 116.67 225.26 119.98 225.32 123.12 224.63 C 124.69 225.48 128.13 225.77 128.85 223.84 C 130.30 224.67 131.69 224.57 133.01 223.54 C 149.32 221.29 167.85 215.57 179.89 203.66 C 180.49 203.47 181.70 203.08 182.31 202.88 C 183.69 203.79 185.74 201.42 184.62 200.17 C 189.09 197.17 192.85 192.99 195.97 188.66 C 197.54 190.10 200.08 187.51 198.66 185.95 C 210.48 172.60 217.90 154.44 220.07 136.79 C 221.77 136.84 221.53 133.85 220.52 133.03 C 221.67 131.68 221.57 129.42 220.53 128.05 C 221.25 124.01 221.25 119.98 220.53 115.95 C 221.56 114.57 221.68 112.32 220.55 110.96 C 221.62 110.12 221.56 107.02 219.77 107.44 C 217.49 91.00 210.84 75.61 201.69 61.88 C 203.20 60.16 201.00 56.94 198.94 58.43 C 198.46 55.46 197.19 52.33 193.70 52.24 C 193.45 52.03 192.95 51.63 192.69 51.42 C 192.29 49.13 189.94 46.64 187.60 46.37 C 188.09 44.00 183.88 39.17 183.10 41.90 C 167.90 31.06 150.74 21.78 131.82 20.08 C 131.58 17.76 127.48 18.16 126.11 19.42 C 124.22 16.14 112.09 17.76 109.94 19.34 Z" />
</g>
<g id="#85bf75ff">
<path fill="#85bf75" opacity="1.00" d=" M 109.94 19.34 C 112.09 17.76 124.22 16.14 126.11 19.42 C 120.73 19.15 115.31 18.63 109.94 19.34 Z" />
<path fill="#85bf75" opacity="1.00" d=" M 53.20 42.12 C 51.53 39.31 57.66 37.81 55.00 41.10 C 54.55 41.35 53.65 41.86 53.20 42.12 Z" />
<path fill="#85bf75" opacity="1.00" d=" M 105.84 41.90 C 107.87 40.92 110.08 40.92 112.13 41.86 C 112.12 42.65 112.10 44.25 112.10 45.05 C 109.82 45.84 107.37 46.37 105.62 44.28 C 105.67 43.68 105.78 42.49 105.84 41.90 Z" />
<path fill="#85bf75" opacity="1.00" d=" M 126.70 42.03 C 129.47 41.00 135.70 38.83 131.98 46.03 C 129.50 46.49 127.35 45.74 126.55 43.21 L 126.70 42.03 Z" />
<path fill="#85bf75" opacity="1.00" d=" M 183.10 41.90 C 183.88 39.17 188.09 44.00 187.60 46.37 C 186.11 44.87 184.65 43.34 183.10 41.90 Z" />
<path fill="#85bf75" opacity="1.00" d=" M 118.87 43.82 C 124.93 40.15 128.39 46.14 123.96 50.01 C 123.09 51.35 121.76 50.68 120.96 49.66 C 120.34 49.06 119.72 48.47 119.09 47.89 C 118.93 46.54 118.85 45.18 118.87 43.82 Z" />
<path fill="#85bf75" opacity="1.00" d=" M 41.12 53.24 C 42.47 49.45 45.92 45.06 49.97 44.10 C 49.74 44.55 49.30 45.44 49.07 45.88 C 46.93 47.73 44.95 49.74 43.04 51.83 C 42.56 52.18 41.60 52.89 41.12 53.24 Z" />
<path fill="#85bf75" opacity="1.00" d=" M 98.73 45.89 C 104.86 42.16 108.38 48.01 103.99 52.11 C 103.22 52.10 101.70 52.09 100.93 52.09 C 100.03 50.50 99.24 48.85 98.72 47.09 L 98.73 45.89 Z" />
<path fill="#85bf75" opacity="1.00" d=" M 85.95 50.91 C 85.22 48.00 86.84 45.10 90.16 45.82 C 91.07 47.88 90.64 50.07 90.05 52.14 C 89.55 52.13 88.56 52.09 88.06 52.07 C 87.53 51.78 86.47 51.20 85.95 50.91 Z" />
<path fill="#85bf75" opacity="1.00" d=" M 138.52 50.77 C 139.34 48.59 141.56 44.35 144.29 46.67 C 148.96 49.85 142.31 55.11 138.78 51.89 L 138.52 50.77 Z" />
<path fill="#85bf75" opacity="1.00" d=" M 149.92 50.91 C 145.02 51.34 149.48 42.74 153.31 47.06 L 153.56 48.36 C 152.49 49.34 151.48 50.76 149.92 50.91 Z" />
<path fill="#85bf75" opacity="1.00" d=" M 109.88 49.99 C 113.03 47.11 119.39 47.71 119.20 52.93 L 118.98 53.80 C 116.51 55.93 112.54 56.60 110.15 54.04 C 109.97 52.70 109.88 51.35 109.88 49.99 Z" />
<path fill="#85bf75" opacity="1.00" d=" M 128.74 54.89 C 127.93 49.38 136.02 46.51 137.88 52.15 C 137.94 52.60 138.06 53.49 138.13 53.94 C 136.35 56.18 133.74 57.32 130.88 57.17 L 129.86 57.05 C 129.65 56.74 129.24 56.13 129.03 55.83 L 128.74 54.89 Z" />
<path fill="#85bf75" opacity="1.00" d=" M 95.06 51.28 C 95.78 51.20 97.21 51.04 97.92 50.96 C 98.92 52.39 99.94 53.82 100.92 55.26 C 100.88 55.68 100.78 56.52 100.73 56.93 C 99.74 57.58 98.98 58.52 98.86 59.73 L 98.06 60.10 C 94.22 60.90 91.22 57.82 91.84 54.02 L 92.26 53.17 C 93.47 53.02 94.41 52.26 95.06 51.28 Z" />
<path fill="#85bf75" opacity="1.00" d=" M 79.81 56.17 C 80.89 53.73 80.87 49.15 85.72 52.11 C 88.46 53.85 86.46 57.25 84.98 59.17 C 84.22 59.08 82.71 58.89 81.96 58.79 C 81.43 58.21 80.90 57.63 80.37 57.05 L 79.81 56.17 Z" />
<path fill="#85bf75" opacity="1.00" d=" M 193.70 52.24 C 197.19 52.33 198.46 55.46 198.94 58.43 C 197.09 56.45 195.45 54.30 193.70 52.24 Z" />
<path fill="#85bf75" opacity="1.00" d=" M 118.90 57.10 C 120.90 56.23 122.91 55.36 125.03 54.80 L 125.76 55.54 C 126.54 56.66 127.72 57.37 128.91 58.00 C 129.10 59.67 129.09 61.38 128.80 63.05 C 127.36 63.65 126.01 64.43 124.98 65.61 C 124.21 65.75 122.67 66.02 121.90 66.16 C 119.62 64.04 118.60 61.19 118.85 58.09 L 118.90 57.10 Z" />
<path fill="#85bf75" opacity="1.00" d=" M 148.25 55.10 C 153.02 52.27 157.77 59.56 153.08 62.13 C 147.66 67.05 144.31 57.87 148.25 55.10 Z" />
<path fill="#85bf75" opacity="1.00" d=" M 156.98 57.28 C 158.83 55.78 162.06 53.47 163.89 56.24 C 165.56 61.34 160.49 61.66 156.73 60.08 L 156.72 58.93 C 156.78 58.52 156.91 57.69 156.98 57.28 Z" />
<path fill="#85bf75" opacity="1.00" d=" M 106.12 55.94 C 106.82 56.05 108.22 56.28 108.92 56.39 C 109.82 56.87 110.74 57.32 111.65 57.79 C 112.59 59.85 114.38 63.43 111.62 64.79 C 110.44 65.05 109.52 65.83 108.84 66.80 L 107.83 67.30 C 101.57 66.52 100.54 58.56 106.12 55.94 Z" />
<path fill="#85bf75" opacity="1.00" d=" M 69.22 57.11 C 72.83 55.27 74.77 61.63 70.94 61.99 C 68.02 62.84 66.82 58.39 69.22 57.11 Z" />
<path fill="#85bf75" opacity="1.00" d=" M 167.22 57.11 C 170.83 55.27 172.77 61.63 168.94 61.99 C 166.01 62.84 164.82 58.39 167.22 57.11 Z" />
<path fill="#85bf75" opacity="1.00" d=" M 198.94 58.43 C 201.00 56.94 203.20 60.16 201.69 61.88 C 200.77 60.73 199.86 59.57 198.94 58.43 Z" />
<path fill="#85bf75" opacity="1.00" d=" M 137.63 68.79 C 132.60 65.08 135.90 56.91 142.69 59.15 C 146.77 61.35 144.24 66.32 141.69 68.79 C 140.83 70.71 138.84 69.77 137.63 68.79 Z" />
<path fill="#85bf75" opacity="1.00" d=" M 83.28 66.95 C 78.34 75.05 70.21 61.73 78.34 59.94 C 78.97 59.91 80.24 59.85 80.88 59.82 C 82.35 60.39 83.63 61.76 84.18 63.23 C 83.88 64.47 83.57 65.71 83.28 66.95 Z" />
<path fill="#85bf75" opacity="1.00" d=" M 91.31 60.98 L 92.31 61.29 C 93.91 62.20 95.52 63.08 97.06 64.09 L 97.28 65.13 C 96.78 68.89 94.40 72.91 90.02 72.19 L 89.03 72.20 C 85.54 68.62 86.54 62.79 91.31 60.98 Z" />
<path fill="#85bf75" opacity="1.00" d=" M 66.05 62.84 C 66.57 62.83 67.61 62.81 68.14 62.80 C 68.97 63.53 69.79 64.27 70.61 65.02 C 70.73 65.73 70.96 67.17 71.08 67.89 C 66.77 73.99 60.80 66.82 66.05 62.84 Z" />
<path fill="#85bf75" opacity="1.00" d=" M 165.17 65.39 C 167.05 64.16 168.41 66.19 169.63 67.31 C 169.83 68.39 169.97 69.48 170.03 70.58 C 169.11 71.44 168.24 72.39 167.82 73.61 C 167.15 73.74 165.79 74.00 165.11 74.13 C 163.89 72.53 162.70 70.90 161.58 69.23 L 162.32 68.32 C 163.75 67.94 164.85 66.85 165.17 65.39 Z" />
<path fill="#85bf75" opacity="1.00" d=" M 114.17 66.40 L 114.92 65.95 C 120.80 63.99 125.74 71.97 121.23 76.23 C 117.04 80.67 109.19 75.94 110.88 70.14 L 111.36 69.23 C 112.80 68.93 113.88 67.84 114.17 66.40 Z" />
<path fill="#85bf75" opacity="1.00" d=" M 150.00 72.91 C 147.05 66.19 156.82 63.47 159.08 69.07 C 158.77 70.31 158.77 71.55 159.09 72.78 C 157.19 76.27 151.09 77.46 150.00 72.91 Z" />
<path fill="#85bf75" opacity="1.00" d=" M 129.31 67.31 C 135.52 65.11 139.02 75.63 133.05 78.10 C 124.83 83.58 120.67 67.71 129.31 67.31 Z" />
<path fill="#85bf75" opacity="1.00" d=" M 101.95 68.27 C 102.52 68.09 103.65 67.73 104.22 67.55 C 112.20 70.40 110.93 82.93 100.76 80.45 L 99.90 80.29 C 98.24 77.80 98.08 74.82 97.96 71.89 L 98.48 71.18 C 99.72 70.32 100.84 69.29 101.95 68.27 Z" />
<path fill="#85bf75" opacity="1.00" d=" M 173.79 73.55 C 170.23 69.43 176.60 65.61 179.53 69.77 C 178.04 71.61 176.22 73.21 173.79 73.55 Z" />
<path fill="#85bf75" opacity="1.00" d=" M 75.07 70.84 L 76.16 70.90 C 77.38 71.05 78.60 71.05 79.82 70.90 L 80.87 70.84 C 85.63 75.19 82.47 82.99 75.89 81.12 C 73.36 81.70 72.40 80.29 72.79 77.88 C 73.00 75.38 73.83 73.00 75.07 70.84 Z" />
<path fill="#85bf75" opacity="1.00" d=" M 56.67 77.50 C 51.96 77.19 51.89 71.67 56.75 71.65 C 59.12 72.71 59.90 76.79 56.67 77.50 Z" />
<path fill="#85bf75" opacity="1.00" d=" M 63.05 72.73 C 65.57 71.49 68.02 72.83 70.26 74.01 L 70.21 75.07 C 70.06 77.25 69.42 79.34 68.00 81.03 C 66.62 82.30 64.17 82.49 63.02 80.82 C 62.54 79.81 61.99 78.84 61.27 77.99 C 60.61 76.18 61.47 73.73 63.05 72.73 Z" />
<path fill="#85bf75" opacity="1.00" d=" M 140.32 72.20 C 147.14 68.71 152.75 80.41 145.66 82.75 C 138.39 86.29 133.71 75.37 140.32 72.20 Z" />
<path fill="#85bf75" opacity="1.00" d=" M 89.24 74.00 L 90.12 73.79 C 94.22 73.29 96.17 77.15 98.20 79.97 C 98.14 80.47 98.01 81.46 97.94 81.95 C 96.71 83.14 95.67 84.52 95.09 86.14 L 94.29 86.27 C 90.68 86.42 86.85 85.39 85.10 81.94 C 85.09 81.26 85.07 79.89 85.06 79.21 C 86.48 77.50 87.90 75.78 89.24 74.00 Z" />
<path fill="#85bf75" opacity="1.00" d=" M 165.17 77.22 C 166.45 77.10 167.74 77.03 169.03 77.00 C 170.70 79.21 169.23 79.77 167.09 80.04 C 165.69 82.04 164.79 84.74 161.74 83.96 C 161.88 82.61 162.01 81.27 162.14 79.92 C 163.86 80.27 165.10 78.83 165.17 77.22 Z" />
<path fill="#85bf75" opacity="1.00" d=" M 52.98 86.23 C 48.64 87.00 50.14 79.31 53.26 78.57 C 59.26 78.79 59.12 86.63 52.98 86.23 Z" />
<path fill="#85bf75" opacity="1.00" d=" M 150.96 91.11 C 147.24 87.61 147.56 82.62 152.01 79.96 C 153.38 80.16 154.75 80.10 156.11 79.78 L 156.80 80.12 C 156.96 81.84 158.26 83.42 160.13 83.14 C 161.10 88.19 156.71 92.07 151.79 91.35 L 150.96 91.11 Z" />
<path fill="#85bf75" opacity="1.00" d=" M 65.92 83.31 C 66.74 83.28 68.37 83.23 69.19 83.21 C 70.45 84.34 71.65 85.54 72.78 86.81 C 73.16 88.66 73.43 90.98 71.61 92.18 C 70.68 92.72 69.75 93.28 68.83 93.85 C 68.10 93.81 66.65 93.73 65.92 93.69 C 64.71 92.79 63.49 91.90 62.23 91.08 C 61.87 89.39 61.87 87.61 62.23 85.92 C 63.49 85.09 64.71 84.21 65.92 83.31 Z" />
<path fill="#85bf75" opacity="1.00" d=" M 74.96 87.12 C 76.55 84.30 79.50 82.77 82.71 82.87 L 83.82 83.07 C 93.18 89.22 79.86 101.08 75.21 90.92 C 74.95 89.66 74.86 88.40 74.96 87.12 Z" />
<path fill="#85bf75" opacity="1.00" d=" M 50.64 91.24 C 51.49 89.94 52.52 88.24 54.15 87.95 C 54.85 87.95 56.24 87.94 56.93 87.93 L 58.06 88.10 C 58.66 89.75 59.28 91.38 60.06 92.95 C 60.24 96.08 56.77 97.65 54.05 97.10 C 52.21 95.63 51.20 93.48 50.64 91.24 Z" />
<path fill="#85bf75" opacity="1.00" d=" M 42.37 93.01 C 42.07 90.06 47.66 88.45 48.29 92.21 C 47.60 93.43 46.86 94.62 46.13 95.81 C 45.60 95.84 44.54 95.90 44.00 95.93 C 43.60 94.88 43.02 93.92 42.37 93.01 Z" />
<path fill="#85bf75" opacity="1.00" d=" M 67.85 97.05 C 71.28 93.40 77.54 92.80 79.79 98.03 C 79.86 99.35 79.91 100.67 79.95 101.99 C 78.73 103.14 77.70 104.48 77.02 106.03 L 76.19 106.15 C 71.19 107.23 66.88 103.05 67.84 98.03 L 67.85 97.05 Z" />
<path fill="#85bf75" opacity="1.00" d=" M 41.78 102.01 C 42.11 99.35 44.15 96.60 47.11 97.19 C 47.99 98.11 48.89 99.01 49.81 99.89 C 50.31 101.52 49.90 103.23 48.65 104.40 C 46.20 104.12 43.80 103.48 41.78 102.01 Z" />
<path fill="#85bf75" opacity="1.00" d=" M 55.64 100.05 C 57.00 98.22 59.83 97.50 61.99 98.30 C 62.87 99.02 63.87 99.57 64.93 99.96 L 65.11 100.88 C 65.46 103.96 64.37 106.73 62.07 108.77 C 60.71 109.11 59.35 109.10 58.00 108.73 C 57.22 107.64 56.28 106.69 55.21 105.88 L 54.83 104.88 C 55.07 103.26 55.32 101.65 55.64 100.05 Z" />
<path fill="#85bf75" opacity="1.00" d=" M 44.99 108.03 C 47.45 105.47 51.59 105.69 54.15 108.01 C 54.16 109.31 53.98 110.59 53.61 111.83 C 52.17 112.07 51.07 113.17 50.83 114.62 C 46.60 116.70 43.83 111.65 44.99 108.03 Z" />
<path fill="#85bf75" opacity="1.00" d=" M 66.05 106.97 L 66.93 106.87 C 74.55 105.01 77.89 114.97 71.81 119.10 L 70.90 119.35 C 67.59 119.30 64.93 117.39 63.00 114.84 C 62.84 113.58 62.94 112.36 63.27 111.15 C 64.17 109.74 65.12 108.36 66.05 106.97 Z" />
<path fill="#85bf75" opacity="1.00" d=" M 219.77 107.44 C 221.56 107.02 221.62 110.12 220.55 110.96 L 220.03 110.97 C 219.91 109.79 219.83 108.62 219.77 107.44 Z" />
<path fill="#85bf75" opacity="1.00" d=" M 15.35 114.90 C 14.42 113.74 14.23 110.54 15.96 110.23 C 16.01 111.76 16.03 113.29 15.96 114.83 L 15.35 114.90 Z" />
<path fill="#85bf75" opacity="1.00" d=" M 36.89 111.84 C 38.57 111.31 40.31 110.95 42.09 110.95 C 42.27 114.54 40.43 117.28 36.79 115.21 C 36.81 114.37 36.86 112.68 36.89 111.84 Z" />
<path fill="#85bf75" opacity="1.00" d=" M 55.34 114.14 C 56.02 114.18 57.39 114.27 58.08 114.31 C 59.29 115.21 60.52 116.09 61.78 116.92 L 62.15 117.77 C 62.50 120.77 60.81 122.98 58.56 124.70 L 57.77 125.14 C 56.52 124.86 55.27 124.57 54.01 124.34 C 52.37 124.37 51.65 123.57 51.83 121.95 C 51.42 118.75 53.40 116.39 55.34 114.14 Z" />
<path fill="#85bf75" opacity="1.00" d=" M 44.72 123.90 C 38.56 126.80 37.60 118.74 41.73 116.62 C 42.24 116.74 43.24 116.97 43.74 117.08 C 45.32 118.87 47.51 122.14 44.72 123.90 Z" />
<path fill="#85bf75" opacity="1.00" d=" M 66.07 121.03 C 72.94 117.37 76.34 127.77 71.85 132.22 L 70.86 132.48 C 63.78 134.20 58.56 123.81 66.07 121.03 Z" />
<path fill="#85bf75" opacity="1.00" d=" M 44.26 129.68 C 42.93 124.22 50.21 124.21 53.15 126.99 C 53.07 127.84 52.91 129.55 52.83 130.41 C 50.44 133.37 45.12 134.48 44.26 129.68 Z" />
<path fill="#85bf75" opacity="1.00" d=" M 15.30 129.13 L 15.96 129.19 C 16.03 130.39 16.02 131.58 15.94 132.78 C 14.34 132.84 14.33 129.98 15.30 129.13 Z" />
<path fill="#85bf75" opacity="1.00" d=" M 52.85 132.89 C 55.63 131.46 59.91 129.45 61.70 133.32 C 65.13 137.28 60.70 142.68 55.99 141.16 L 54.99 141.17 C 53.30 139.11 52.79 136.52 52.84 133.92 L 52.85 132.89 Z" />
<path fill="#85bf75" opacity="1.00" d=" M 36.88 132.83 C 43.44 129.02 43.66 140.77 36.85 136.16 C 36.86 135.33 36.88 133.66 36.88 132.83 Z" />
<path fill="#85bf75" opacity="1.00" d=" M 219.99 133.02 L 220.52 133.03 C 221.53 133.85 221.77 136.84 220.07 136.79 C 219.97 135.53 219.94 134.28 219.99 133.02 Z" />
<path fill="#85bf75" opacity="1.00" d=" M 64.93 142.22 C 62.68 134.88 73.56 130.83 76.47 137.87 C 75.93 139.15 75.78 140.48 76.03 141.86 C 74.52 143.81 73.02 146.27 70.21 146.14 L 69.13 145.67 C 68.06 144.47 66.66 143.68 65.19 143.07 L 64.93 142.22 Z" />
<path fill="#85bf75" opacity="1.00" d=" M 41.08 138.56 C 43.76 138.33 48.53 136.92 48.05 141.00 C 48.57 146.19 39.35 144.91 40.83 139.74 L 41.08 138.56 Z" />
<path fill="#85bf75" opacity="1.00" d=" M 50.28 143.19 C 55.20 141.46 58.06 149.43 53.84 152.11 L 52.85 152.23 C 51.37 151.46 49.92 150.64 48.42 149.92 L 47.91 149.15 C 47.86 146.87 48.08 144.43 50.28 143.19 Z" />
<path fill="#85bf75" opacity="1.00" d=" M 74.31 157.31 C 67.93 154.62 71.34 144.67 77.99 145.76 L 78.70 146.15 C 80.47 148.40 82.92 150.63 81.99 153.81 C 79.51 155.14 77.02 156.48 74.31 157.31 Z" />
<path fill="#85bf75" opacity="1.00" d=" M 61.36 146.79 C 65.71 146.74 71.47 150.14 67.30 155.26 C 62.66 160.38 54.75 152.44 59.67 147.71 C 60.09 147.48 60.94 147.02 61.36 146.79 Z" />
<path fill="#85bf75" opacity="1.00" d=" M 46.35 152.58 C 51.83 157.55 39.25 159.17 43.67 152.63 C 44.34 152.62 45.68 152.59 46.35 152.58 Z" />
<path fill="#85bf75" opacity="1.00" d=" M 47.61 160.71 C 49.27 157.76 52.10 155.74 55.29 158.04 L 55.27 159.31 C 55.20 164.01 51.14 163.12 47.68 162.00 L 47.61 160.71 Z" />
<path fill="#85bf75" opacity="1.00" d=" M 56.64 166.18 C 56.10 160.21 62.71 158.15 65.59 163.43 C 64.42 167.28 59.58 169.99 56.64 166.18 Z" />
<path fill="#85bf75" opacity="1.00" d=" M 68.00 164.10 C 69.34 162.48 70.81 160.42 73.24 161.08 C 71.86 162.69 70.24 164.09 68.00 164.10 Z" />
<path fill="#85bf75" opacity="1.00" d=" M 53.79 173.98 C 53.07 170.10 56.41 170.75 58.44 172.64 C 57.28 173.18 56.35 174.00 55.67 175.10 C 55.20 174.82 54.26 174.26 53.79 173.98 Z" />
<path fill="#85bf75" opacity="1.00" d=" M 195.97 188.66 C 196.74 187.63 197.62 186.70 198.66 185.95 C 200.08 187.51 197.54 190.10 195.97 188.66 Z" />
<path fill="#85bf75" opacity="1.00" d=" M 38.88 188.05 C 39.39 188.28 40.41 188.74 40.92 188.97 C 44.54 192.08 47.74 195.62 51.01 199.09 C 51.25 199.60 51.74 200.61 51.99 201.11 C 47.58 197.86 42.24 192.38 38.88 188.05 Z" />
<path fill="#85bf75" opacity="1.00" d=" M 182.76 200.87 C 183.22 200.69 184.15 200.34 184.62 200.17 C 185.74 201.42 183.69 203.79 182.31 202.88 C 182.42 202.38 182.64 201.37 182.76 200.87 Z" />
<path fill="#85bf75" opacity="1.00" d=" M 54.40 201.64 C 55.65 202.30 56.38 203.51 57.05 204.70 C 55.33 205.92 53.48 203.11 54.40 201.64 Z" />
<path fill="#85bf75" opacity="1.00" d=" M 108.08 223.94 C 109.70 223.83 111.33 223.99 112.91 224.40 C 111.80 225.61 108.27 226.01 108.08 223.94 Z" />
<path fill="#85bf75" opacity="1.00" d=" M 123.19 224.07 C 125.07 223.96 126.96 223.92 128.85 223.84 C 128.13 225.77 124.69 225.48 123.12 224.63 L 123.19 224.07 Z" />
</g>
<g id="#2e5b53ff">
<path fill="#2e5b53" opacity="1.00" d=" M 105.18 20.01 C 105.32 18.04 108.74 18.40 109.94 19.34 C 108.46 20.08 106.80 20.19 105.18 20.01 Z" />
<path fill="#2e5b53" opacity="1.00" d=" M 126.11 19.42 C 127.48 18.16 131.58 17.76 131.82 20.08 C 130.39 19.91 127.54 19.58 126.11 19.42 Z" />
<path fill="#2e5b53" opacity="1.00" d=" M 105.84 41.90 C 105.15 38.93 112.81 38.93 112.13 41.86 C 110.08 40.92 107.87 40.92 105.84 41.90 Z" />
<path fill="#2e5b53" opacity="1.00" d=" M 126.70 42.03 C 128.94 35.64 136.61 41.48 132.94 46.82 C 127.45 43.52 127.71 50.17 123.96 50.01 C 128.39 46.14 124.93 40.15 118.87 43.82 C 118.10 39.95 125.29 41.16 126.55 43.21 C 127.35 45.74 129.50 46.49 131.98 46.03 C 135.70 38.83 129.47 41.00 126.70 42.03 Z" />
<path fill="#2e5b53" opacity="1.00" d=" M 49.97 44.10 C 50.82 43.24 51.84 41.91 53.20 42.12 C 52.86 44.22 51.29 45.89 49.07 45.88 C 49.30 45.44 49.74 44.55 49.97 44.10 Z" />
<path fill="#2e5b53" opacity="1.00" d=" M 98.73 45.89 C 98.41 42.21 103.22 43.71 105.62 44.28 C 107.37 46.37 109.82 45.84 112.10 45.05 C 111.27 47.10 109.12 46.97 107.27 47.26 C 107.06 49.34 106.87 52.41 103.99 52.11 C 108.38 48.01 104.86 42.16 98.73 45.89 Z" />
<path fill="#2e5b53" opacity="1.00" d=" M 137.71 48.46 C 139.45 45.24 143.22 44.03 146.28 46.45 C 148.53 45.71 153.63 42.83 153.31 47.06 C 149.48 42.74 145.02 51.34 149.92 50.91 C 151.48 50.76 152.49 49.34 153.56 48.36 C 154.56 46.99 154.43 52.15 152.32 51.33 C 147.68 49.10 141.75 57.81 138.78 51.89 C 142.31 55.11 148.96 49.85 144.29 46.67 C 141.56 44.35 139.34 48.59 138.52 50.77 C 138.36 51.11 138.04 51.80 137.88 52.15 C 136.02 46.51 127.93 49.38 128.74 54.89 C 124.87 49.79 132.94 46.49 137.71 48.46 Z" />
<path fill="#2e5b53" opacity="1.00" d=" M 90.16 45.82 C 93.29 45.52 92.63 51.41 90.05 52.14 C 90.64 50.07 91.07 47.88 90.16 45.82 Z" />
<path fill="#2e5b53" opacity="1.00" d=" M 187.60 46.37 C 189.94 46.64 192.29 49.13 192.69 51.42 C 190.61 50.17 188.88 48.44 187.60 46.37 Z" />
<path fill="#2e5b53" opacity="1.00" d=" M 97.92 50.96 C 98.28 49.91 96.93 46.57 98.72 47.09 C 99.24 48.85 100.03 50.50 100.93 52.09 C 100.93 52.88 100.93 54.47 100.92 55.26 C 99.94 53.82 98.92 52.39 97.92 50.96 Z" />
<path fill="#2e5b53" opacity="1.00" d=" M 109.88 49.99 C 110.29 45.80 116.01 47.25 119.09 47.89 C 119.72 48.47 120.34 49.06 120.96 49.66 C 120.32 50.68 120.49 52.53 119.20 52.93 C 119.39 47.71 113.03 47.11 109.88 49.99 Z" />
<path fill="#2e5b53" opacity="1.00" d=" M 79.81 56.17 C 77.01 53.97 81.96 47.52 85.95 50.91 C 86.47 51.20 87.53 51.78 88.06 52.07 C 88.57 55.09 88.80 59.11 84.98 59.17 C 86.46 57.25 88.46 53.85 85.72 52.11 C 80.87 49.15 80.89 53.73 79.81 56.17 Z" />
<path fill="#2e5b53" opacity="1.00" d=" M 92.26 53.17 C 91.39 51.67 93.93 50.07 95.06 51.28 C 94.41 52.26 93.47 53.02 92.26 53.17 Z" />
<path fill="#2e5b53" opacity="1.00" d=" M 41.12 53.24 C 41.60 52.89 42.56 52.18 43.04 51.83 C 42.51 54.45 40.50 56.16 38.28 57.40 C 38.37 55.62 39.99 54.44 41.12 53.24 Z" />
<path fill="#2e5b53" opacity="1.00" d=" M 92.31 61.29 C 92.49 59.27 88.52 53.70 91.84 54.02 C 91.22 57.82 94.22 60.90 98.06 60.10 C 96.04 60.81 96.45 62.44 97.06 64.09 C 95.52 63.08 93.91 62.20 92.31 61.29 Z" />
<path fill="#2e5b53" opacity="1.00" d=" M 110.15 54.04 C 112.54 56.60 116.51 55.93 118.98 53.80 C 118.53 57.63 114.79 57.37 111.65 57.79 C 110.74 57.32 109.82 56.87 108.92 56.39 C 109.23 55.80 109.84 54.63 110.15 54.04 Z" />
<path fill="#2e5b53" opacity="1.00" d=" M 118.90 57.10 C 119.58 54.63 123.99 52.41 125.03 54.80 C 122.91 55.36 120.90 56.23 118.90 57.10 Z" />
<path fill="#2e5b53" opacity="1.00" d=" M 130.88 57.17 C 133.74 57.32 136.35 56.18 138.13 53.94 C 139.64 57.74 131.79 59.74 130.88 57.17 Z" />
<path fill="#2e5b53" opacity="1.00" d=" M 145.91 59.98 C 143.15 51.66 154.28 52.42 156.98 57.28 C 156.91 57.69 156.78 58.52 156.72 58.93 C 155.71 63.97 150.44 65.00 146.14 63.31 C 146.63 66.43 144.36 67.97 141.69 68.79 C 144.24 66.32 146.77 61.35 142.69 59.15 C 135.90 56.91 132.60 65.08 137.63 68.79 C 133.94 77.13 144.53 67.01 147.48 72.61 C 151.30 74.91 147.25 66.69 150.70 65.69 C 155.30 62.35 158.81 66.21 161.58 69.23 C 162.70 70.90 163.89 72.53 165.11 74.13 C 163.41 73.72 161.93 72.79 160.47 71.87 C 160.32 70.78 159.85 69.85 159.08 69.07 C 156.82 63.47 147.05 66.19 150.00 72.91 C 151.09 77.46 157.19 76.27 159.09 72.78 L 159.91 72.67 C 160.08 80.12 145.29 73.68 151.91 79.31 L 152.01 79.96 C 147.56 82.62 147.24 87.61 150.96 91.11 C 145.34 90.96 149.39 80.79 141.93 84.02 C 138.41 84.53 136.67 81.12 135.56 78.40 C 131.35 80.24 124.52 81.39 123.70 75.29 C 120.24 82.82 111.45 73.96 108.15 80.21 C 106.45 82.28 103.07 80.61 100.76 80.45 C 110.93 82.93 112.20 70.40 104.22 67.55 C 99.43 65.18 100.18 55.18 106.12 55.94 C 100.54 58.56 101.57 66.52 107.83 67.30 C 107.74 69.38 108.86 70.24 110.88 70.14 C 109.19 75.94 117.04 80.67 121.23 76.23 C 125.74 71.97 120.80 63.99 114.92 65.95 C 115.04 64.19 117.57 65.40 118.72 64.90 C 118.80 62.64 116.50 58.08 118.85 58.09 C 118.60 61.19 119.62 64.04 121.90 66.16 C 123.52 72.07 129.65 62.78 133.79 65.80 C 131.27 58.44 141.74 55.43 145.91 59.98 M 148.25 55.10 C 144.31 57.87 147.66 67.05 153.08 62.13 C 157.77 59.56 153.02 52.27 148.25 55.10 M 129.31 67.31 C 120.67 67.71 124.83 83.58 133.05 78.10 C 139.02 75.63 135.52 65.11 129.31 67.31 M 140.32 72.20 C 133.71 75.37 138.39 86.29 145.66 82.75 C 152.75 80.41 147.14 68.71 140.32 72.20 Z" />
<path fill="#2e5b53" opacity="1.00" d=" M 156.98 57.28 C 155.08 52.32 162.80 52.56 164.59 55.39 C 165.86 58.42 170.23 54.39 171.91 57.24 C 174.65 61.99 169.19 64.87 165.81 62.15 C 163.00 59.87 157.02 64.51 156.73 60.08 C 160.49 61.66 165.56 61.34 163.89 56.24 C 162.06 53.47 158.83 55.78 156.98 57.28 M 167.22 57.11 C 164.82 58.39 166.01 62.84 168.94 61.99 C 172.77 61.63 170.83 55.27 167.22 57.11 Z" />
<path fill="#2e5b53" opacity="1.00" d=" M 125.76 55.54 C 126.85 55.19 127.94 55.28 129.03 55.83 C 129.24 56.13 129.65 56.74 129.86 57.05 C 129.62 57.28 129.15 57.76 128.91 58.00 C 127.72 57.37 126.54 56.66 125.76 55.54 Z" />
<path fill="#2e5b53" opacity="1.00" d=" M 68.14 62.80 C 63.83 59.84 68.98 52.11 73.33 56.67 C 76.64 60.17 72.26 62.60 70.61 65.02 C 69.79 64.27 68.97 63.53 68.14 62.80 M 69.22 57.11 C 66.82 58.39 68.02 62.84 70.94 61.99 C 74.77 61.63 72.83 55.27 69.22 57.11 Z" />
<path fill="#2e5b53" opacity="1.00" d=" M 80.37 57.05 C 80.90 57.63 81.43 58.21 81.96 58.79 C 81.69 59.05 81.15 59.56 80.88 59.82 C 80.24 59.85 78.97 59.91 78.34 59.94 C 78.32 58.77 79.79 58.02 80.37 57.05 Z" />
<path fill="#2e5b53" opacity="1.00" d=" M 98.86 59.73 C 98.98 58.52 99.74 57.58 100.73 56.93 C 101.93 58.06 100.35 60.61 98.86 59.73 Z" />
<path fill="#2e5b53" opacity="1.00" d=" M 89.03 72.20 C 82.93 71.69 85.08 59.27 91.31 60.98 C 86.54 62.79 85.54 68.62 89.03 72.20 Z" />
<path fill="#2e5b53" opacity="1.00" d=" M 63.05 72.73 C 64.38 69.24 60.64 63.11 66.05 62.84 C 60.80 66.82 66.77 73.99 71.08 67.89 C 71.70 72.48 66.07 69.85 70.26 74.01 C 68.02 72.83 65.57 71.49 63.05 72.73 Z" />
<path fill="#2e5b53" opacity="1.00" d=" M 84.18 63.23 C 86.16 63.34 85.39 67.93 83.28 66.95 C 83.57 65.71 83.88 64.47 84.18 63.23 Z" />
<path fill="#2e5b53" opacity="1.00" d=" M 124.98 65.61 C 126.01 64.43 127.36 63.65 128.80 63.05 C 129.86 65.03 126.46 66.78 124.98 65.61 Z" />
<path fill="#2e5b53" opacity="1.00" d=" M 97.28 65.13 C 100.95 67.08 93.22 71.98 95.93 74.98 C 97.90 78.35 95.84 71.67 97.96 71.89 C 98.08 74.82 98.24 77.80 99.90 80.29 C 99.48 80.21 98.63 80.05 98.20 79.97 C 96.17 77.15 94.22 73.29 90.12 73.79 C 90.10 73.39 90.05 72.59 90.02 72.19 C 94.40 72.91 96.78 68.89 97.28 65.13 Z" />
<path fill="#2e5b53" opacity="1.00" d=" M 108.84 66.80 C 109.52 65.83 110.44 65.05 111.62 64.79 C 112.58 66.30 110.04 67.96 108.84 66.80 Z" />
<path fill="#2e5b53" opacity="1.00" d=" M 169.63 67.31 C 168.95 61.89 173.07 68.74 170.50 70.71 L 170.03 70.58 C 169.97 69.48 169.83 68.39 169.63 67.31 Z" />
<path fill="#2e5b53" opacity="1.00" d=" M 111.36 69.23 C 110.62 67.78 112.71 65.62 114.17 66.40 C 113.88 67.84 112.80 68.93 111.36 69.23 Z" />
<path fill="#2e5b53" opacity="1.00" d=" M 172.10 73.74 C 166.98 66.63 181.72 63.40 180.21 70.22 L 179.53 69.77 C 176.60 65.61 170.23 69.43 173.79 73.55 C 176.05 74.80 178.21 73.33 180.02 72.03 L 180.86 71.80 C 180.28 74.59 182.20 78.95 185.35 76.34 C 187.60 73.81 184.32 72.20 182.04 71.79 C 181.90 69.66 185.63 71.84 186.90 72.23 C 190.95 77.46 180.74 81.13 180.18 75.88 C 179.71 71.87 173.77 77.16 172.10 73.74 Z" />
<path fill="#2e5b53" opacity="1.00" d=" M 98.48 71.18 C 97.41 69.22 100.13 66.70 101.95 68.27 C 100.84 69.29 99.72 70.32 98.48 71.18 Z" />
<path fill="#2e5b53" opacity="1.00" d=" M 76.16 70.90 C 76.00 69.17 79.99 69.18 79.82 70.90 C 78.60 71.05 77.38 71.05 76.16 70.90 Z" />
<path fill="#2e5b53" opacity="1.00" d=" M 53.26 78.57 C 48.99 74.88 54.26 68.28 56.75 71.65 C 51.89 71.67 51.96 77.19 56.67 77.50 C 59.79 80.24 58.97 84.75 56.93 87.93 C 56.24 87.94 54.85 87.95 54.15 87.95 C 53.86 87.52 53.28 86.66 52.98 86.23 C 59.12 86.63 59.26 78.79 53.26 78.57 Z" />
<path fill="#2e5b53" opacity="1.00" d=" M 72.79 77.88 C 70.26 78.93 72.04 69.88 75.07 70.84 C 73.83 73.00 73.00 75.38 72.79 77.88 Z" />
<path fill="#2e5b53" opacity="1.00" d=" M 80.87 70.84 C 87.19 71.39 83.05 79.12 82.71 82.87 C 79.50 82.77 76.55 84.30 74.96 87.12 C 73.15 83.74 80.46 82.70 75.89 81.12 C 82.47 82.99 85.63 75.19 80.87 70.84 Z" />
<path fill="#2e5b53" opacity="1.00" d=" M 167.82 73.61 C 168.24 72.39 169.11 71.44 170.03 70.58 L 170.50 70.71 C 171.39 72.18 169.33 74.40 167.82 73.61 Z" />
<path fill="#2e5b53" opacity="1.00" d=" M 85.06 79.21 C 84.50 76.60 86.70 74.16 89.24 74.00 C 87.90 75.78 86.48 77.50 85.06 79.21 Z" />
<path fill="#2e5b53" opacity="1.00" d=" M 70.21 75.07 C 72.07 75.48 71.47 81.90 68.00 81.03 C 69.42 79.34 70.06 77.25 70.21 75.07 Z" />
<path fill="#2e5b53" opacity="1.00" d=" M 161.92 79.31 C 161.04 74.26 170.30 75.14 170.77 76.94 C 170.34 76.95 169.47 76.98 169.03 77.00 C 167.74 77.03 166.45 77.10 165.17 77.22 C 163.76 77.17 162.73 78.30 161.92 79.31 Z" />
<path fill="#2e5b53" opacity="1.00" d=" M 61.27 77.99 C 61.99 78.84 62.54 79.81 63.02 80.82 C 61.30 82.09 59.82 79.10 61.27 77.99 Z" />
<path fill="#2e5b53" opacity="1.00" d=" M 152.66 78.73 C 154.99 76.63 160.49 78.97 160.24 82.43 C 159.33 81.34 158.10 80.62 156.80 80.12 L 156.11 79.78 C 155.08 79.03 153.93 78.68 152.66 78.73 Z" />
<path fill="#2e5b53" opacity="1.00" d=" M 171.87 80.32 C 174.46 80.83 178.57 75.61 179.77 78.67 C 173.81 78.76 173.34 84.57 177.01 88.13 C 174.10 88.49 174.42 84.67 172.23 83.64 C 172.10 82.54 171.98 81.43 171.87 80.32 Z" />
<path fill="#2e5b53" opacity="1.00" d=" M 160.13 83.14 C 160.76 82.07 160.79 80.37 162.14 79.92 C 162.01 81.27 161.88 82.61 161.74 83.96 C 156.84 92.22 169.18 86.35 169.12 93.24 C 166.43 90.73 162.93 89.44 159.21 90.06 C 156.20 93.04 156.96 97.74 158.92 101.11 C 153.65 99.81 158.40 90.81 151.79 91.35 C 156.71 92.07 161.10 88.19 160.13 83.14 Z" />
<path fill="#2e5b53" opacity="1.00" d=" M 85.10 81.94 C 86.85 85.39 90.68 86.42 94.29 86.27 C 92.81 86.54 89.87 87.07 88.40 87.34 C 89.69 94.10 83.19 95.38 79.79 98.03 C 77.54 92.80 71.28 93.40 67.85 97.05 C 68.10 95.96 68.43 94.89 68.83 93.85 C 69.75 93.28 70.68 92.72 71.61 92.18 C 73.27 92.84 75.54 93.67 75.21 90.92 C 79.86 101.08 93.18 89.22 83.82 83.07 C 84.14 82.79 84.78 82.23 85.10 81.94 Z" />
<path fill="#2e5b53" opacity="1.00" d=" M 95.09 86.14 C 95.67 84.52 96.71 83.14 97.94 81.95 C 98.65 84.02 97.52 86.41 95.09 86.14 Z" />
<path fill="#2e5b53" opacity="1.00" d=" M 183.15 82.02 C 183.94 85.35 188.71 81.32 188.99 83.74 C 186.77 83.88 185.08 85.24 183.70 86.86 C 182.86 88.21 181.21 87.87 179.87 88.01 C 182.22 86.79 183.46 84.70 183.15 82.02 Z" />
<path fill="#2e5b53" opacity="1.00" d=" M 62.23 85.92 C 60.96 83.82 64.28 81.80 65.92 83.31 C 64.71 84.21 63.49 85.09 62.23 85.92 Z" />
<path fill="#2e5b53" opacity="1.00" d=" M 69.19 83.21 C 71.39 81.78 74.22 84.60 72.78 86.81 C 71.65 85.54 70.45 84.34 69.19 83.21 Z" />
<path fill="#2e5b53" opacity="1.00" d=" M 190.20 83.73 C 190.60 83.84 191.38 84.05 191.77 84.16 C 188.83 90.90 194.87 87.66 196.94 90.21 C 200.57 95.28 192.29 98.43 190.89 94.00 C 192.67 94.43 195.83 95.94 195.97 92.93 C 196.71 89.35 192.14 89.42 190.59 91.69 C 190.46 91.59 190.20 91.38 190.07 91.28 C 190.53 88.79 190.34 86.24 190.20 83.73 Z" />
<path fill="#2e5b53" opacity="1.00" d=" M 165.21 87.04 C 166.40 86.95 167.59 86.95 168.79 87.04 C 169.05 88.82 164.94 88.82 165.21 87.04 Z" />
<path fill="#2e5b53" opacity="1.00" d=" M 58.06 88.10 C 60.21 87.33 61.96 92.18 60.06 92.95 C 59.28 91.38 58.66 89.75 58.06 88.10 Z" />
<path fill="#2e5b53" opacity="1.00" d=" M 184.17 89.21 C 185.63 90.09 187.18 90.85 188.83 91.32 C 187.78 93.33 183.11 91.78 184.17 89.21 Z" />
<path fill="#2e5b53" opacity="1.00" d=" M 169.41 94.24 C 171.02 85.52 187.06 90.65 181.18 98.01 C 181.82 93.65 178.36 88.86 173.27 91.19 C 169.16 93.41 171.78 98.46 174.44 100.84 C 172.07 99.16 169.00 98.28 166.80 100.77 C 168.14 101.33 170.68 100.22 171.20 101.95 C 168.30 102.01 165.28 101.84 163.16 104.04 C 163.02 102.18 161.18 101.93 159.76 101.39 C 164.31 102.04 169.37 99.09 169.41 94.24 Z" />
<path fill="#2e5b53" opacity="1.00" d=" M 54.05 97.10 C 50.36 98.77 48.88 91.43 50.64 91.24 C 51.20 93.48 52.21 95.63 54.05 97.10 Z" />
<path fill="#2e5b53" opacity="1.00" d=" M 62.23 91.08 C 63.49 91.90 64.71 92.79 65.92 93.69 C 64.28 95.19 60.96 93.18 62.23 91.08 Z" />
<path fill="#2e5b53" opacity="1.00" d=" M 48.29 92.21 C 50.53 92.98 48.17 97.10 46.13 95.81 C 46.86 94.62 47.60 93.43 48.29 92.21 Z" />
<path fill="#2e5b53" opacity="1.00" d=" M 42.37 93.01 C 43.02 93.92 43.60 94.88 44.00 95.93 C 42.24 97.12 40.90 94.07 42.37 93.01 Z" />
<path fill="#2e5b53" opacity="1.00" d=" M 183.08 98.21 C 183.16 93.48 189.99 93.62 191.65 97.30 C 188.74 103.98 194.37 100.65 196.26 102.76 C 194.32 103.09 192.56 103.91 190.92 104.96 C 189.44 104.74 186.48 104.32 185.00 104.10 C 189.31 105.40 194.18 101.34 189.82 97.18 C 187.90 94.62 184.90 96.68 183.08 98.21 Z" />
<path fill="#2e5b53" opacity="1.00" d=" M 47.11 97.19 C 48.81 95.68 51.32 98.19 49.81 99.89 C 48.89 99.01 47.99 98.11 47.11 97.19 Z" />
<path fill="#2e5b53" opacity="1.00" d=" M 61.99 98.30 C 63.06 96.90 66.07 98.20 64.93 99.96 C 63.87 99.57 62.87 99.02 61.99 98.30 Z" />
<path fill="#2e5b53" opacity="1.00" d=" M 66.93 106.87 C 71.19 105.84 63.65 98.85 67.84 98.03 C 66.88 103.05 71.19 107.23 76.19 106.15 C 72.66 108.51 80.03 118.53 71.81 119.10 C 77.89 114.97 74.55 105.01 66.93 106.87 Z" />
<path fill="#2e5b53" opacity="1.00" d=" M 175.29 101.35 C 177.29 100.67 179.25 99.89 181.18 99.02 C 181.77 101.96 174.86 102.92 175.29 101.35 Z" />
<path fill="#2e5b53" opacity="1.00" d=" M 54.83 104.88 C 53.08 104.36 53.28 99.48 55.64 100.05 C 55.32 101.65 55.07 103.26 54.83 104.88 Z" />
<path fill="#2e5b53" opacity="1.00" d=" M 65.11 100.88 C 65.35 102.40 65.81 105.44 66.05 106.97 C 65.12 108.36 64.17 109.74 63.27 111.15 C 62.97 110.56 62.37 109.37 62.07 108.77 C 64.37 106.73 65.46 103.96 65.11 100.88 Z" />
<path fill="#2e5b53" opacity="1.00" d=" M 41.78 102.01 C 43.80 103.48 46.20 104.12 48.65 104.40 C 50.84 104.86 54.34 104.91 54.15 108.01 C 51.59 105.69 47.45 105.47 44.99 108.03 C 47.73 104.03 41.54 105.72 41.78 102.01 Z" />
<path fill="#2e5b53" opacity="1.00" d=" M 77.02 106.03 C 77.70 104.48 78.73 103.14 79.95 101.99 C 80.72 104.09 79.44 106.42 77.02 106.03 Z" />
<path fill="#2e5b53" opacity="1.00" d=" M 172.08 102.21 C 174.19 100.97 176.18 104.29 174.69 105.94 C 173.79 104.72 172.90 103.48 172.08 102.21 Z" />
<path fill="#2e5b53" opacity="1.00" d=" M 197.28 103.03 C 199.65 102.41 199.95 107.28 198.22 107.81 C 197.94 106.21 197.63 104.62 197.28 103.03 Z" />
<path fill="#2e5b53" opacity="1.00" d=" M 162.36 110.17 C 162.42 108.83 162.54 106.16 162.60 104.82 C 163.74 106.43 163.64 108.66 162.36 110.17 Z" />
<path fill="#2e5b53" opacity="1.00" d=" M 55.21 105.88 C 56.28 106.69 57.22 107.64 58.00 108.73 C 56.38 110.04 53.95 107.48 55.21 105.88 Z" />
<path fill="#2e5b53" opacity="1.00" d=" M 175.28 108.09 C 176.28 106.96 177.46 105.90 179.08 105.94 C 177.64 107.66 176.33 109.52 175.53 111.64 C 173.71 111.86 172.86 113.00 172.70 114.78 C 162.89 113.01 162.96 128.66 172.78 127.34 C 174.85 130.21 178.03 132.83 177.04 136.95 C 176.63 139.31 181.56 136.68 180.84 138.83 C 174.88 138.12 172.01 144.94 176.00 149.13 C 172.25 148.90 173.37 143.40 172.14 140.69 C 175.02 138.65 177.88 134.61 174.39 131.65 C 170.63 124.85 161.34 132.14 164.51 138.33 C 157.21 133.59 171.75 128.40 164.99 124.97 C 162.43 120.37 168.05 114.76 162.81 110.92 C 167.19 115.95 172.91 113.58 175.28 108.09 Z" />
<path fill="#2e5b53" opacity="1.00" d=" M 182.87 106.00 C 187.89 104.12 188.62 113.09 186.07 113.90 C 186.66 110.47 185.96 107.54 182.87 106.00 Z" />
<path fill="#2e5b53" opacity="1.00" d=" M 190.89 107.98 C 192.94 109.91 195.74 110.67 198.20 108.94 L 197.91 109.84 C 196.83 111.85 197.40 114.07 197.92 116.15 C 195.93 115.25 196.02 113.12 195.73 111.27 C 193.65 111.06 190.59 110.87 190.89 107.98 Z" />
<path fill="#2e5b53" opacity="1.00" d=" M 36.89 111.84 C 39.20 105.27 46.84 112.21 41.73 116.62 C 37.60 118.74 38.56 126.80 44.72 123.90 C 47.51 122.14 45.32 118.87 43.74 117.08 C 46.03 118.08 49.71 118.29 47.10 122.89 C 47.69 125.28 53.61 123.21 53.15 126.99 C 50.21 124.21 42.93 124.22 44.26 129.68 C 45.12 134.48 50.44 133.37 52.83 130.41 C 58.06 129.46 63.12 129.75 64.29 135.79 C 70.60 134.12 62.22 132.05 61.46 128.61 C 62.28 124.82 61.32 123.51 58.56 124.70 C 60.81 122.98 62.50 120.77 62.15 117.77 C 63.26 119.74 63.04 121.87 65.85 119.88 C 64.51 118.45 62.91 116.97 63.00 114.84 C 64.93 117.39 67.59 119.30 70.90 119.35 C 75.99 120.97 77.31 130.83 71.85 132.22 C 76.34 127.77 72.94 117.37 66.07 121.03 C 58.56 123.81 63.78 134.20 70.86 132.48 C 73.49 133.63 77.73 134.20 77.12 138.02 L 76.47 137.87 C 73.56 130.83 62.68 134.88 64.93 142.22 C 64.50 135.07 59.46 146.78 55.99 141.16 C 60.70 142.68 65.13 137.28 61.70 133.32 C 59.91 129.45 55.63 131.46 52.85 132.89 C 46.69 136.95 40.70 131.91 43.66 125.07 C 34.97 127.41 41.03 118.28 36.79 115.21 C 40.43 117.28 42.27 114.54 42.09 110.95 C 40.31 110.95 38.57 111.31 36.89 111.84 Z" />
<path fill="#2e5b53" opacity="1.00" d=" M 199.95 109.88 C 204.17 109.36 204.19 116.62 199.97 116.11 C 202.13 114.13 202.11 111.85 199.95 109.88 Z" />
<path fill="#2e5b53" opacity="1.00" d=" M 220.03 110.97 L 220.55 110.96 C 221.68 112.32 221.56 114.57 220.53 115.95 C 219.91 114.36 219.84 112.64 220.03 110.97 Z" />
<path fill="#2e5b53" opacity="1.00" d=" M 50.83 114.62 C 51.07 113.17 52.17 112.07 53.61 111.83 C 54.38 113.26 52.25 115.38 50.83 114.62 Z" />
<path fill="#2e5b53" opacity="1.00" d=" M 175.87 112.72 C 177.58 114.19 179.34 115.62 181.15 116.98 C 178.43 117.61 175.86 115.49 175.87 112.72 Z" />
<path fill="#2e5b53" opacity="1.00" d=" M 51.83 121.95 C 47.77 119.88 51.94 114.57 55.34 114.14 C 53.40 116.39 51.42 118.75 51.83 121.95 Z" />
<path fill="#2e5b53" opacity="1.00" d=" M 58.08 114.31 C 59.72 112.81 63.04 114.82 61.78 116.92 C 60.52 116.09 59.29 115.21 58.08 114.31 Z" />
<path fill="#2e5b53" opacity="1.00" d=" M 185.94 114.80 C 187.03 114.58 188.12 114.39 189.22 114.20 C 184.27 117.44 189.46 126.53 193.71 121.68 C 195.96 119.25 194.35 116.26 193.00 113.87 C 197.04 114.23 195.97 119.83 195.09 122.79 C 190.33 126.21 195.86 131.83 200.03 129.08 C 200.35 130.03 200.65 130.98 200.93 131.94 C 196.63 130.82 196.40 133.93 197.84 137.14 C 193.64 137.53 197.87 130.98 194.19 129.85 C 191.07 128.89 193.59 123.70 190.01 123.95 C 184.10 123.95 188.78 113.67 182.49 116.50 C 183.54 115.74 184.71 115.19 185.94 114.80 Z" />
<path fill="#2e5b53" opacity="1.00" d=" M 15.35 114.90 L 15.96 114.83 C 15.98 119.62 15.97 124.40 15.96 129.19 L 15.30 129.13 C 15.05 124.42 14.44 119.57 15.35 114.90 Z" />
<path fill="#2e5b53" opacity="1.00" d=" M 173.66 115.01 C 176.58 116.21 179.24 119.11 178.08 122.68 C 184.72 119.15 190.38 125.77 187.31 131.99 C 189.83 131.23 194.31 131.49 194.12 135.01 C 191.35 131.93 187.39 132.90 185.25 136.11 C 184.09 132.40 176.85 135.57 177.16 129.70 C 179.49 133.07 185.70 134.92 186.74 129.68 C 188.58 123.64 180.02 120.68 177.01 126.05 C 176.01 126.63 174.94 126.99 173.79 127.13 C 178.11 124.03 176.87 118.49 173.66 115.01 Z" />
<path fill="#2e5b53" opacity="1.00" d=" M 196.35 122.44 C 197.01 119.52 203.23 127.15 200.36 127.88 C 199.31 125.87 197.99 124.00 196.35 122.44 Z" />
<path fill="#2e5b53" opacity="1.00" d=" M 54.01 124.34 C 55.27 124.57 56.52 124.86 57.77 125.14 C 57.69 127.12 53.11 126.44 54.01 124.34 Z" />
<path fill="#2e5b53" opacity="1.00" d=" M 219.99 133.02 C 219.82 131.34 219.92 129.64 220.53 128.05 C 221.57 129.42 221.67 131.68 220.52 133.03 L 219.99 133.02 Z" />
<path fill="#2e5b53" opacity="1.00" d=" M 36.88 132.83 C 36.35 127.37 46.86 132.17 43.32 136.69 C 47.93 134.95 49.17 138.69 49.29 141.77 C 54.58 139.81 57.18 144.89 57.17 149.03 C 57.35 148.05 60.63 145.79 59.67 147.71 C 54.75 152.44 62.66 160.38 67.30 155.26 C 71.47 150.14 65.71 146.74 61.36 146.79 C 61.32 144.18 73.62 147.44 69.05 153.02 C 69.72 159.98 57.78 159.33 57.11 152.94 C 57.50 150.28 55.28 151.80 53.84 152.11 C 58.06 149.43 55.20 141.46 50.28 143.19 C 48.08 144.43 47.86 146.87 47.91 149.15 C 45.20 147.90 49.61 140.85 42.05 144.89 C 39.64 145.06 39.04 140.40 40.83 139.74 C 39.35 144.91 48.57 146.19 48.05 141.00 C 48.53 136.92 43.76 138.33 41.08 138.56 C 39.48 138.03 36.58 138.62 36.85 136.16 C 43.66 140.77 43.44 129.02 36.88 132.83 Z" />
<path fill="#2e5b53" opacity="1.00" d=" M 54.99 141.17 C 51.25 141.56 50.17 134.77 52.84 133.92 C 52.79 136.52 53.30 139.11 54.99 141.17 Z" />
<path fill="#2e5b53" opacity="1.00" d=" M 185.31 138.08 C 186.21 139.29 187.10 140.51 187.93 141.78 C 185.83 143.04 183.81 139.73 185.31 138.08 Z" />
<path fill="#2e5b53" opacity="1.00" d=" M 165.10 138.86 C 166.75 139.54 168.37 140.29 169.97 141.09 C 175.12 144.42 168.55 153.15 173.93 153.90 C 171.45 153.85 168.86 154.10 167.14 156.10 C 167.45 153.42 164.64 154.23 162.93 153.87 C 159.28 153.51 154.28 151.16 152.71 155.75 C 148.46 163.95 160.28 166.72 164.06 160.90 C 163.84 162.67 162.73 164.10 161.70 165.49 C 154.51 166.50 154.49 176.50 161.70 177.50 C 166.01 179.28 164.96 184.10 163.79 187.73 C 157.51 186.61 162.27 195.05 156.69 196.13 C 157.80 194.08 160.94 189.69 156.90 188.99 C 151.95 188.39 150.34 195.16 155.59 196.37 C 153.53 197.08 154.34 205.81 148.26 201.90 C 144.92 199.52 147.27 195.24 150.61 194.61 C 150.03 191.20 152.62 188.41 155.62 187.71 C 155.77 185.46 153.52 181.19 155.88 181.03 C 153.56 186.87 162.06 190.46 163.50 184.38 C 165.70 179.54 159.33 177.76 155.99 180.05 C 158.22 178.07 157.46 176.26 155.37 174.60 C 155.83 163.83 154.40 174.04 150.84 173.15 C 154.88 169.60 154.67 164.13 150.16 161.13 C 150.64 155.65 153.10 149.62 159.98 151.24 C 163.27 153.23 168.56 154.55 170.86 150.67 C 172.96 145.95 169.68 141.36 165.14 140.57 C 165.13 140.14 165.11 139.29 165.10 138.86 M 155.30 165.30 C 153.28 171.23 161.23 163.28 155.30 165.30 M 150.30 196.29 C 146.72 196.19 147.57 201.91 150.94 200.99 C 154.15 201.15 153.47 194.81 150.30 196.29 Z" />
<path fill="#2e5b53" opacity="1.00" d=" M 189.95 142.13 C 191.19 141.46 192.41 140.76 193.65 140.09 C 194.71 141.82 196.95 142.80 197.12 145.01 C 195.05 142.91 192.40 142.86 189.86 144.12 C 189.89 143.63 189.93 142.63 189.95 142.13 Z" />
<path fill="#2e5b53" opacity="1.00" d=" M 159.71 150.36 C 157.73 146.27 158.82 140.58 164.15 140.79 C 160.85 142.95 158.66 146.01 159.71 150.36 Z" />
<path fill="#2e5b53" opacity="1.00" d=" M 70.21 146.14 C 73.02 146.27 74.52 143.81 76.03 141.86 L 76.64 141.82 C 76.22 143.46 76.08 145.14 77.99 145.76 C 71.34 144.67 67.93 154.62 74.31 157.31 L 73.99 158.13 C 68.08 156.83 70.53 150.64 70.21 146.14 Z" />
<path fill="#2e5b53" opacity="1.00" d=" M 184.16 142.08 C 187.74 141.78 184.61 148.18 183.18 149.75 C 186.50 149.92 192.43 154.38 188.21 156.99 C 189.24 152.14 181.63 148.42 180.36 154.37 C 177.94 159.70 184.76 159.79 188.28 158.12 C 189.27 160.82 182.92 159.49 186.08 160.92 C 191.24 161.31 189.51 168.25 186.47 169.83 C 192.83 179.62 176.40 176.20 180.51 172.36 C 181.27 175.66 187.70 176.53 185.96 172.06 C 185.79 169.15 182.52 170.97 180.85 171.20 C 184.54 169.17 180.30 169.00 180.89 165.92 C 183.34 170.62 190.88 167.11 187.33 162.64 C 185.10 160.65 182.47 163.50 180.82 165.02 C 180.61 162.64 182.54 161.53 184.15 160.26 C 178.55 161.45 177.35 155.16 180.49 151.60 C 182.80 148.58 176.88 151.35 176.98 149.12 C 181.59 150.16 185.15 146.72 184.16 142.08 Z" />
<path fill="#2e5b53" opacity="1.00" d=" M 65.19 143.07 C 66.66 143.68 68.06 144.47 69.13 145.67 C 67.60 146.71 64.20 145.10 65.19 143.07 Z" />
<path fill="#2e5b53" opacity="1.00" d=" M 190.80 150.00 C 188.40 150.63 188.04 145.78 189.77 145.22 C 190.06 146.83 190.39 148.42 190.80 150.00 Z" />
<path fill="#2e5b53" opacity="1.00" d=" M 78.70 146.15 C 83.28 147.35 84.19 151.32 83.15 155.96 C 79.38 159.25 77.86 164.49 82.05 168.14 C 78.43 167.23 78.56 163.27 77.06 168.18 C 77.32 165.40 76.98 160.91 73.24 161.08 C 70.81 160.42 69.34 162.48 68.00 164.10 C 67.64 164.54 66.91 165.42 66.55 165.86 C 64.27 169.44 55.70 171.44 56.06 165.67 L 56.64 166.18 C 59.58 169.99 64.42 167.28 65.59 163.43 C 67.83 158.67 74.32 158.87 77.95 161.89 C 81.35 158.29 75.74 159.81 75.01 158.09 C 78.16 158.52 80.81 156.67 81.99 153.81 C 82.92 150.63 80.47 148.40 78.70 146.15 Z" />
<path fill="#2e5b53" opacity="1.00" d=" M 192.01 150.33 C 193.82 149.82 195.53 149.02 197.13 148.04 C 197.13 149.63 196.00 150.76 194.72 151.53 C 189.58 153.55 192.31 159.50 197.19 156.14 C 193.43 163.07 188.16 155.03 192.01 150.33 Z" />
<path fill="#2e5b53" opacity="1.00" d=" M 48.42 149.92 C 49.92 150.64 51.37 151.46 52.85 152.23 C 51.86 154.54 47.74 152.05 48.42 149.92 Z" />
<path fill="#2e5b53" opacity="1.00" d=" M 42.01 157.78 C 38.36 156.88 43.48 149.26 43.67 152.63 C 39.25 159.17 51.83 157.55 46.35 152.58 C 45.23 150.85 49.24 152.49 48.84 154.08 C 48.90 158.16 55.74 153.72 55.29 158.04 C 52.10 155.74 49.27 157.76 47.61 160.71 C 45.92 162.05 48.61 151.51 42.01 157.78 Z" />
<path fill="#2e5b53" opacity="1.00" d=" M 86.99 156.07 C 89.07 155.30 91.38 156.52 91.11 158.92 C 89.51 158.33 88.15 157.30 86.99 156.07 Z" />
<path fill="#2e5b53" opacity="1.00" d=" M 166.95 160.79 C 165.16 161.02 165.19 156.94 166.97 157.16 C 167.04 158.37 167.03 159.58 166.95 160.79 Z" />
<path fill="#2e5b53" opacity="1.00" d=" M 177.03 157.24 C 178.83 156.92 178.84 161.07 177.05 160.79 C 176.96 159.60 176.95 158.42 177.03 157.24 Z" />
<path fill="#2e5b53" opacity="1.00" d=" M 55.27 159.31 C 59.49 159.19 65.70 157.23 65.59 163.43 C 62.71 158.15 56.10 160.21 56.64 166.18 L 56.06 165.67 C 54.10 162.40 47.96 166.24 47.68 162.00 C 51.14 163.12 55.20 164.01 55.27 159.31 Z" />
<path fill="#2e5b53" opacity="1.00" d=" M 91.27 159.73 C 91.34 163.71 93.91 164.79 98.02 163.68 C 94.46 163.77 91.90 166.30 89.76 168.88 C 86.19 170.08 83.94 169.84 83.02 168.15 C 88.12 169.16 92.17 164.73 91.27 159.73 Z" />
<path fill="#2e5b53" opacity="1.00" d=" M 140.77 167.88 C 140.33 165.29 141.67 160.69 145.07 161.01 C 139.24 165.08 142.35 174.71 149.76 173.15 C 149.76 174.07 149.74 174.99 149.72 175.91 C 146.61 175.56 143.84 176.06 142.15 178.68 C 141.11 178.81 140.05 178.89 139.00 178.97 C 143.89 174.23 140.27 166.57 133.89 166.49 C 136.29 166.42 138.63 166.80 140.77 167.88 M 142.27 173.33 C 140.43 178.87 148.19 172.34 142.27 173.33 Z" />
<path fill="#2e5b53" opacity="1.00" d=" M 98.76 164.03 C 101.26 165.04 103.33 166.72 103.24 169.64 C 107.22 166.98 113.77 166.74 114.89 172.38 C 111.07 167.06 100.84 168.63 103.21 176.65 C 106.06 182.61 116.04 179.77 115.30 173.17 C 116.90 169.05 120.87 167.47 125.23 169.59 C 115.77 166.13 113.36 180.82 122.10 181.72 C 119.52 181.44 120.66 183.57 120.94 185.12 C 118.08 180.64 112.20 181.57 109.95 186.11 C 107.63 179.75 119.56 183.15 115.85 178.16 C 112.82 180.74 109.05 181.15 105.16 181.16 C 104.94 183.72 106.23 189.23 101.96 189.22 C 104.34 186.39 105.43 181.27 101.70 179.16 C 98.10 177.48 96.36 180.58 94.14 182.30 C 93.67 175.82 103.24 180.85 102.09 175.18 C 101.00 175.46 99.91 175.74 98.82 176.02 C 103.27 173.01 102.12 167.45 98.76 164.03 Z" />
<path fill="#2e5b53" opacity="1.00" d=" M 170.21 164.04 C 171.40 163.95 172.59 163.95 173.79 164.04 C 174.06 165.82 169.94 165.82 170.21 164.04 Z" />
<path fill="#2e5b53" opacity="1.00" d=" M 162.77 165.82 C 168.99 164.99 169.08 177.21 162.54 176.91 C 166.59 174.32 167.10 168.40 162.77 165.82 Z" />
<path fill="#2e5b53" opacity="1.00" d=" M 168.98 170.14 C 167.20 162.24 183.16 165.98 178.98 172.94 C 178.46 175.62 175.16 176.16 172.87 176.66 C 172.41 176.69 171.49 176.74 171.03 176.76 C 169.46 175.56 168.78 173.82 168.96 171.86 C 170.42 175.60 175.82 176.40 177.80 172.71 C 180.11 167.27 170.44 164.57 168.98 170.14 Z" />
<path fill="#2e5b53" opacity="1.00" d=" M 67.18 166.94 C 68.13 168.17 69.04 169.44 69.93 170.72 C 67.77 171.98 65.89 168.66 67.18 166.94 Z" />
<path fill="#2e5b53" opacity="1.00" d=" M 126.07 169.89 C 129.51 173.86 129.62 167.15 133.04 166.79 C 127.95 171.41 130.37 180.74 138.08 179.10 C 136.06 179.81 136.43 181.43 137.05 183.09 C 133.13 178.57 126.03 182.20 126.77 187.90 C 123.19 185.94 128.02 179.53 131.85 179.74 C 129.86 172.67 127.26 184.09 122.87 181.99 C 127.87 179.77 129.17 174.34 126.07 169.89 Z" />
<path fill="#2e5b53" opacity="1.00" d=" M 74.03 170.74 C 74.83 169.92 75.85 169.41 76.92 169.05 C 78.04 170.76 75.11 172.09 74.03 170.74 Z" />
<path fill="#2e5b53" opacity="1.00" d=" M 52.88 173.91 C 50.55 168.53 60.83 167.68 59.06 173.03 L 58.44 172.64 C 56.41 170.75 53.07 170.10 53.79 173.98 L 52.88 173.91 Z" />
<path fill="#2e5b53" opacity="1.00" d=" M 82.08 171.88 C 81.30 168.76 88.29 170.99 90.07 171.90 C 92.30 173.98 94.53 176.36 97.84 176.28 C 95.96 179.87 90.16 171.97 90.19 178.20 C 90.02 173.90 87.33 169.89 82.08 171.88 Z" />
<path fill="#2e5b53" opacity="1.00" d=" M 61.99 172.77 C 63.08 169.90 71.11 173.82 67.04 178.02 C 68.22 181.03 62.11 182.21 62.14 180.25 C 67.71 180.76 67.56 172.03 61.99 172.77 Z" />
<path fill="#2e5b53" opacity="1.00" d=" M 83.06 182.14 C 78.30 182.92 77.77 174.14 81.05 171.86 C 79.92 175.40 79.77 179.66 83.06 182.14 Z" />
<path fill="#2e5b53" opacity="1.00" d=" M 59.06 173.03 C 59.51 172.95 60.41 172.81 60.86 172.73 C 60.41 174.46 60.08 176.22 59.88 178.00 C 58.19 175.17 53.81 178.26 52.88 173.91 L 53.79 173.98 C 54.26 174.26 55.20 174.82 55.67 175.10 C 57.22 176.56 58.58 174.34 59.06 173.03 Z" />
<path fill="#2e5b53" opacity="1.00" d=" M 69.23 182.85 C 63.99 179.90 71.34 170.00 73.71 173.60 C 70.66 174.29 68.26 177.61 69.09 180.76 C 70.87 183.48 74.68 181.73 77.27 181.12 C 77.48 185.22 71.86 182.70 69.23 182.85 Z" />
<path fill="#2e5b53" opacity="1.00" d=" M 74.71 174.01 C 78.12 173.69 79.32 178.92 77.21 180.00 C 77.14 177.73 76.09 175.75 74.71 174.01 Z" />
<path fill="#2e5b53" opacity="1.00" d=" M 169.23 184.71 C 167.25 182.92 166.54 176.56 169.90 176.85 C 169.35 179.63 167.66 184.48 172.00 184.05 C 176.41 184.47 174.61 179.52 174.07 176.72 C 178.06 176.31 177.16 184.45 173.92 184.83 C 169.88 184.86 174.22 191.61 170.13 191.20 C 171.11 188.96 171.54 186.29 169.23 184.71 Z" />
<path fill="#2e5b53" opacity="1.00" d=" M 86.09 181.68 C 87.30 180.78 88.53 179.89 89.79 179.06 C 91.04 181.17 87.73 183.19 86.09 181.68 Z" />
<path fill="#2e5b53" opacity="1.00" d=" M 142.30 182.10 C 143.21 183.28 144.10 184.48 144.96 185.71 C 142.88 187.05 140.78 183.76 142.30 182.10 Z" />
<path fill="#2e5b53" opacity="1.00" d=" M 149.20 185.77 C 150.46 184.64 151.66 183.45 152.79 182.19 C 154.21 184.38 151.40 187.22 149.20 185.77 Z" />
<path fill="#2e5b53" opacity="1.00" d=" M 82.77 186.66 C 84.12 185.56 85.20 183.93 87.12 183.91 C 83.83 186.44 83.47 190.04 86.07 193.26 C 83.32 188.28 76.07 198.96 74.79 190.83 C 77.17 195.19 84.95 190.90 80.83 187.17 C 78.50 184.11 75.98 187.80 74.58 189.76 C 74.03 190.62 73.23 191.09 72.19 191.18 C 74.27 186.75 72.27 184.91 67.92 186.97 C 69.00 183.58 73.39 184.80 75.00 186.84 C 76.74 184.43 80.33 185.00 82.77 186.66 Z" />
<path fill="#2e5b53" opacity="1.00" d=" M 89.54 184.30 C 91.10 184.70 92.65 186.26 94.27 185.21 C 95.78 187.62 97.84 189.57 100.91 189.22 C 100.61 192.58 94.62 188.51 92.82 187.25 C 91.54 186.49 90.49 185.43 89.54 184.30 Z" />
<path fill="#2e5b53" opacity="1.00" d=" M 137.21 184.10 C 140.27 187.49 134.40 194.77 128.62 192.93 C 128.02 192.30 127.44 191.67 126.86 191.03 C 126.85 190.51 126.84 189.47 126.83 188.94 C 131.31 193.30 137.71 190.08 137.21 184.10 Z" />
<path fill="#2e5b53" opacity="1.00" d=" M 38.28 185.91 C 40.01 185.83 41.03 187.37 40.92 188.97 C 40.41 188.74 39.39 188.28 38.88 188.05 C 38.73 187.51 38.43 186.44 38.28 185.91 Z" />
<path fill="#2e5b53" opacity="1.00" d=" M 137.77 194.70 C 138.53 192.87 137.17 186.62 141.01 186.87 C 138.13 190.03 138.27 196.79 143.87 196.05 C 147.86 194.31 147.56 188.90 143.82 187.03 C 149.48 186.38 149.74 194.41 145.50 196.48 C 138.50 193.29 142.79 200.18 140.07 201.07 C 141.49 195.70 135.80 194.61 132.78 198.05 C 132.66 195.17 135.62 194.91 137.77 194.70 Z" />
<path fill="#2e5b53" opacity="1.00" d=" M 110.07 187.78 C 112.43 192.24 117.74 192.49 121.03 188.86 C 120.20 195.15 109.62 194.42 110.07 187.78 Z" />
<path fill="#2e5b53" opacity="1.00" d=" M 184.62 200.17 C 187.13 195.27 191.57 191.79 195.97 188.66 C 192.85 192.99 189.09 197.17 184.62 200.17 Z" />
<path fill="#2e5b53" opacity="1.00" d=" M 87.19 193.34 C 89.47 192.81 91.33 191.37 93.10 189.91 C 93.71 193.14 87.72 195.57 87.19 193.34 Z" />
<path fill="#2e5b53" opacity="1.00" d=" M 107.85 189.97 C 112.14 191.06 113.04 199.09 107.98 199.11 C 110.98 196.47 109.76 192.84 107.85 189.97 Z" />
<path fill="#2e5b53" opacity="1.00" d=" M 119.80 196.83 C 117.40 192.38 120.96 192.10 123.18 191.05 C 121.16 193.46 120.19 197.47 122.96 199.65 C 120.42 200.64 120.75 204.35 117.85 205.01 C 118.61 202.93 121.55 199.80 118.75 198.13 C 116.43 197.26 114.67 199.13 113.00 200.39 C 113.43 196.74 116.31 196.33 119.80 196.83 Z" />
<path fill="#2e5b53" opacity="1.00" d=" M 94.26 195.27 C 96.14 192.04 100.58 196.82 101.79 192.99 C 101.89 195.19 102.51 197.30 104.01 198.95 C 100.35 196.58 100.36 202.67 97.01 202.03 C 95.02 202.39 92.33 198.60 91.51 201.73 C 85.64 205.97 83.56 197.56 87.99 195.84 C 87.89 197.73 85.35 201.96 89.00 201.02 C 92.59 201.98 90.24 198.04 89.94 196.22 C 91.55 196.99 93.22 196.83 94.26 195.27 M 96.25 195.20 C 93.29 196.67 93.20 200.89 97.02 200.94 C 101.04 200.23 100.74 194.15 96.25 195.20 Z" />
<path fill="#2e5b53" opacity="1.00" d=" M 129.15 193.87 C 131.13 194.82 130.44 200.80 126.97 200.02 C 128.51 198.32 129.11 196.13 129.15 193.87 Z" />
<path fill="#2e5b53" opacity="1.00" d=" M 51.01 199.09 C 52.63 199.03 54.02 200.06 54.40 201.64 C 53.80 201.51 52.59 201.25 51.99 201.11 C 51.74 200.61 51.25 199.60 51.01 199.09 Z" />
<path fill="#2e5b53" opacity="1.00" d=" M 133.43 200.11 C 133.97 201.02 134.51 201.93 135.06 202.84 C 134.51 203.57 133.93 204.29 133.33 204.98 C 131.97 199.45 125.35 202.20 128.84 207.13 C 122.77 205.22 128.52 197.92 133.43 200.11 Z" />
<path fill="#2e5b53" opacity="1.00" d=" M 107.85 207.14 C 101.53 204.02 107.81 198.76 112.73 201.41 C 113.48 202.64 114.27 203.85 115.08 205.06 C 114.42 204.97 113.11 204.80 112.45 204.72 C 109.72 200.19 104.81 202.13 107.85 207.14 Z" />
<path fill="#2e5b53" opacity="1.00" d=" M 179.89 203.66 C 179.96 202.09 181.25 201.03 182.76 200.87 C 182.64 201.37 182.42 202.38 182.31 202.88 C 181.70 203.08 180.49 203.47 179.89 203.66 Z" />
<path fill="#2e5b53" opacity="1.00" d=" M 135.94 202.98 C 137.11 202.40 138.37 202.04 139.67 201.89 C 140.17 203.60 136.20 205.14 135.94 202.98 Z" />
<path fill="#2e5b53" opacity="1.00" d=" M 102.99 223.54 C 104.24 222.66 105.90 222.65 107.11 223.62 C 105.71 224.62 104.34 224.60 102.99 223.54 Z" />
<path fill="#2e5b53" opacity="1.00" d=" M 128.85 223.84 C 129.98 222.72 131.71 222.65 133.01 223.54 C 131.69 224.57 130.30 224.67 128.85 223.84 Z" />
<path fill="#2e5b53" opacity="1.00" d=" M 113.57 224.43 C 116.77 224.11 119.97 224.10 123.19 224.07 L 123.12 224.63 C 119.98 225.32 116.67 225.26 113.57 224.43 Z" />
</g>
<g id="#081226ff">
<path fill="#081226" opacity="1.00" d=" M 109.94 19.34 C 115.31 18.63 120.73 19.15 126.11 19.42 C 127.54 19.58 130.39 19.91 131.82 20.08 C 150.74 21.78 167.90 31.06 183.10 41.90 C 184.65 43.34 186.11 44.87 187.60 46.37 C 188.88 48.44 190.61 50.17 192.69 51.42 C 192.95 51.63 193.45 52.03 193.70 52.24 C 195.45 54.30 197.09 56.45 198.94 58.43 C 199.86 59.57 200.77 60.73 201.69 61.88 C 210.84 75.61 217.49 91.00 219.77 107.44 C 219.83 108.62 219.91 109.79 220.03 110.97 C 219.84 112.64 219.91 114.36 220.53 115.95 C 221.25 119.98 221.25 124.01 220.53 128.05 C 219.92 129.64 219.82 131.34 219.99 133.02 C 219.94 134.28 219.97 135.53 220.07 136.79 C 217.90 154.44 210.48 172.60 198.66 185.95 C 197.62 186.70 196.74 187.63 195.97 188.66 C 191.57 191.79 187.13 195.27 184.62 200.17 C 184.15 200.34 183.22 200.69 182.76 200.87 C 181.25 201.03 179.96 202.09 179.89 203.66 C 167.85 215.57 149.32 221.29 133.01 223.54 C 131.71 222.65 129.98 222.72 128.85 223.84 C 126.96 223.92 125.07 223.96 123.19 224.07 C 119.97 224.10 116.77 224.11 113.57 224.43 L 112.91 224.40 C 111.33 223.99 109.70 223.83 108.08 223.94 L 107.11 223.62 C 105.90 222.65 104.24 222.66 102.99 223.54 C 86.85 221.25 69.61 215.24 57.05 204.70 C 56.38 203.51 55.65 202.30 54.40 201.64 C 54.02 200.06 52.63 199.03 51.01 199.09 C 47.74 195.62 44.54 192.08 40.92 188.97 C 41.03 187.37 40.01 185.83 38.28 185.91 C 36.76 185.61 35.24 184.77 34.68 183.24 C 25.06 168.04 16.58 151.10 15.94 132.78 C 16.02 131.58 16.03 130.39 15.96 129.19 C 15.97 124.40 15.98 119.62 15.96 114.83 C 16.03 113.29 16.01 111.76 15.96 110.23 C 18.57 91.01 26.31 72.54 38.28 57.40 C 40.50 56.16 42.51 54.45 43.04 51.83 C 44.95 49.74 46.93 47.73 49.07 45.88 C 51.29 45.89 52.86 44.22 53.20 42.12 C 53.65 41.86 54.55 41.35 55.00 41.10 C 69.48 29.79 86.82 22.18 105.18 20.01 C 106.80 20.19 108.46 20.08 109.94 19.34 M 105.84 41.90 C 105.78 42.49 105.67 43.68 105.62 44.28 C 103.22 43.71 98.41 42.21 98.73 45.89 L 98.72 47.09 C 96.93 46.57 98.28 49.91 97.92 50.96 C 97.21 51.04 95.78 51.20 95.06 51.28 C 93.93 50.07 91.39 51.67 92.26 53.17 L 91.84 54.02 C 88.52 53.70 92.49 59.27 92.31 61.29 L 91.31 60.98 C 85.08 59.27 82.93 71.69 89.03 72.20 L 90.02 72.19 C 90.05 72.59 90.10 73.39 90.12 73.79 L 89.24 74.00 C 86.70 74.16 84.50 76.60 85.06 79.21 C 85.07 79.89 85.09 81.26 85.10 81.94 C 84.78 82.23 84.14 82.79 83.82 83.07 L 82.71 82.87 C 83.05 79.12 87.19 71.39 80.87 70.84 L 79.82 70.90 C 79.99 69.18 76.00 69.17 76.16 70.90 L 75.07 70.84 C 72.04 69.88 70.26 78.93 72.79 77.88 C 72.40 80.29 73.36 81.70 75.89 81.12 C 80.46 82.70 73.15 83.74 74.96 87.12 C 74.86 88.40 74.95 89.66 75.21 90.92 C 75.54 93.67 73.27 92.84 71.61 92.18 C 73.43 90.98 73.16 88.66 72.78 86.81 C 74.22 84.60 71.39 81.78 69.19 83.21 C 68.37 83.23 66.74 83.28 65.92 83.31 C 64.28 81.80 60.96 83.82 62.23 85.92 C 61.87 87.61 61.87 89.39 62.23 91.08 C 60.96 93.18 64.28 95.19 65.92 93.69 C 66.65 93.73 68.10 93.81 68.83 93.85 C 68.43 94.89 68.10 95.96 67.85 97.05 L 67.84 98.03 C 63.65 98.85 71.19 105.84 66.93 106.87 L 66.05 106.97 C 65.81 105.44 65.35 102.40 65.11 100.88 L 64.93 99.96 C 66.07 98.20 63.06 96.90 61.99 98.30 C 59.83 97.50 57.00 98.22 55.64 100.05 C 53.28 99.48 53.08 104.36 54.83 104.88 L 55.21 105.88 C 53.95 107.48 56.38 110.04 58.00 108.73 C 59.35 109.10 60.71 109.11 62.07 108.77 C 62.37 109.37 62.97 110.56 63.27 111.15 C 62.94 112.36 62.84 113.58 63.00 114.84 C 62.91 116.97 64.51 118.45 65.85 119.88 C 63.04 121.87 63.26 119.74 62.15 117.77 L 61.78 116.92 C 63.04 114.82 59.72 112.81 58.08 114.31 C 57.39 114.27 56.02 114.18 55.34 114.14 C 51.94 114.57 47.77 119.88 51.83 121.95 C 51.65 123.57 52.37 124.37 54.01 124.34 C 53.11 126.44 57.69 127.12 57.77 125.14 L 58.56 124.70 C 61.32 123.51 62.28 124.82 61.46 128.61 C 62.22 132.05 70.60 134.12 64.29 135.79 C 63.12 129.75 58.06 129.46 52.83 130.41 C 52.91 129.55 53.07 127.84 53.15 126.99 C 53.61 123.21 47.69 125.28 47.10 122.89 C 49.71 118.29 46.03 118.08 43.74 117.08 C 43.24 116.97 42.24 116.74 41.73 116.62 C 46.84 112.21 39.20 105.27 36.89 111.84 C 36.86 112.68 36.81 114.37 36.79 115.21 C 41.03 118.28 34.97 127.41 43.66 125.07 C 40.70 131.91 46.69 136.95 52.85 132.89 L 52.84 133.92 C 50.17 134.77 51.25 141.56 54.99 141.17 L 55.99 141.16 C 59.46 146.78 64.50 135.07 64.93 142.22 L 65.19 143.07 C 64.20 145.10 67.60 146.71 69.13 145.67 L 70.21 146.14 C 70.53 150.64 68.08 156.83 73.99 158.13 L 75.01 158.09 C 75.74 159.81 81.35 158.29 77.95 161.89 C 74.32 158.87 67.83 158.67 65.59 163.43 C 65.70 157.23 59.49 159.19 55.27 159.31 L 55.29 158.04 C 55.74 153.72 48.90 158.16 48.84 154.08 C 49.24 152.49 45.23 150.85 46.35 152.58 C 45.68 152.59 44.34 152.62 43.67 152.63 C 43.48 149.26 38.36 156.88 42.01 157.78 C 48.61 151.51 45.92 162.05 47.61 160.71 L 47.68 162.00 C 47.96 166.24 54.10 162.40 56.06 165.67 C 55.70 171.44 64.27 169.44 66.55 165.86 L 67.18 166.94 C 65.89 168.66 67.77 171.98 69.93 170.72 C 70.94 172.39 72.93 172.21 74.03 170.74 C 75.11 172.09 78.04 170.76 76.92 169.05 L 77.06 168.18 C 78.56 163.27 78.43 167.23 82.05 168.14 L 83.02 168.15 C 83.94 169.84 86.19 170.08 89.76 168.88 C 89.84 169.63 90.00 171.14 90.07 171.90 C 88.29 170.99 81.30 168.76 82.08 171.88 L 81.05 171.86 C 77.77 174.14 78.30 182.92 83.06 182.14 C 83.81 182.02 85.33 181.80 86.09 181.68 C 87.73 183.19 91.04 181.17 89.79 179.06 L 90.19 178.20 C 90.16 171.97 95.96 179.87 97.84 176.28 L 98.82 176.02 C 99.91 175.74 101.00 175.46 102.09 175.18 C 103.24 180.85 93.67 175.82 94.14 182.30 C 94.17 183.03 94.24 184.49 94.27 185.21 C 92.65 186.26 91.10 184.70 89.54 184.30 C 88.94 184.21 87.73 184.01 87.12 183.91 C 85.20 183.93 84.12 185.56 82.77 186.66 C 80.33 185.00 76.74 184.43 75.00 186.84 C 73.39 184.80 69.00 183.58 67.92 186.97 C 67.07 190.41 68.84 191.82 72.19 191.18 C 73.23 191.09 74.03 190.62 74.58 189.76 L 74.79 190.83 C 76.07 198.96 83.32 188.28 86.07 193.26 L 87.19 193.34 C 87.72 195.57 93.71 193.14 93.10 189.91 C 93.03 189.25 92.89 187.92 92.82 187.25 C 94.62 188.51 100.61 192.58 100.91 189.22 L 101.96 189.22 C 106.23 189.23 104.94 183.72 105.16 181.16 C 109.05 181.15 112.82 180.74 115.85 178.16 C 119.56 183.15 107.63 179.75 109.95 186.11 C 109.98 186.53 110.04 187.36 110.07 187.78 C 109.62 194.42 120.20 195.15 121.03 188.86 C 121.11 187.61 121.08 186.36 120.94 185.12 C 120.66 183.57 119.52 181.44 122.10 181.72 L 122.87 181.99 C 127.26 184.09 129.86 172.67 131.85 179.74 C 128.02 179.53 123.19 185.94 126.77 187.90 L 126.83 188.94 C 126.84 189.47 126.85 190.51 126.86 191.03 C 125.63 190.92 124.40 190.92 123.18 191.05 C 120.96 192.10 117.40 192.38 119.80 196.83 C 116.31 196.33 113.43 196.74 113.00 200.39 L 112.73 201.41 C 107.81 198.76 101.53 204.02 107.85 207.14 C 109.82 207.01 112.88 207.76 112.45 204.72 C 113.11 204.80 114.42 204.97 115.08 205.06 C 115.77 205.05 117.16 205.02 117.85 205.01 C 120.75 204.35 120.42 200.64 122.96 199.65 C 124.26 200.11 125.86 201.62 126.97 200.02 C 130.44 200.80 131.13 194.82 129.15 193.87 L 128.62 192.93 C 134.40 194.77 140.27 187.49 137.21 184.10 L 137.05 183.09 C 136.43 181.43 136.06 179.81 138.08 179.10 L 139.00 178.97 C 140.05 178.89 141.11 178.81 142.15 178.68 C 142.19 179.54 142.26 181.24 142.30 182.10 C 140.78 183.76 142.88 187.05 144.96 185.71 C 146.35 186.29 148.10 187.50 149.20 185.77 C 151.40 187.22 154.21 184.38 152.79 182.19 C 153.44 179.91 152.09 176.40 149.72 175.91 C 149.74 174.99 149.76 174.07 149.76 173.15 L 150.84 173.15 C 154.40 174.04 155.83 163.83 155.37 174.60 C 157.46 176.26 158.22 178.07 155.99 180.05 L 155.88 181.03 C 153.52 181.19 155.77 185.46 155.62 187.71 C 152.62 188.41 150.03 191.20 150.61 194.61 C 147.27 195.24 144.92 199.52 148.26 201.90 C 154.34 205.81 153.53 197.08 155.59 196.37 L 156.69 196.13 C 162.27 195.05 157.51 186.61 163.79 187.73 C 164.96 184.10 166.01 179.28 161.70 177.50 L 162.54 176.91 C 169.08 177.21 168.99 164.99 162.77 165.82 L 161.70 165.49 C 162.73 164.10 163.84 162.67 164.06 160.90 C 164.25 158.49 163.78 156.11 162.93 153.87 C 164.64 154.23 167.45 153.42 167.14 156.10 L 166.97 157.16 C 165.19 156.94 165.16 161.02 166.95 160.79 C 166.27 163.51 167.49 164.73 170.21 164.04 C 169.94 165.82 174.06 165.82 173.79 164.04 C 176.51 164.73 177.72 163.51 177.05 160.79 C 178.84 161.07 178.83 156.92 177.03 157.24 C 176.79 155.73 175.31 154.40 173.93 153.90 C 168.55 153.15 175.12 144.42 169.97 141.09 C 170.51 140.99 171.60 140.79 172.14 140.69 C 173.37 143.40 172.25 148.90 176.00 149.13 L 176.98 149.12 C 176.88 151.35 182.80 148.58 180.49 151.60 C 177.35 155.16 178.55 161.45 184.15 160.26 C 182.54 161.53 180.61 162.64 180.82 165.02 L 180.89 165.92 C 180.30 169.00 184.54 169.17 180.85 171.20 L 180.51 172.36 C 176.40 176.20 192.83 179.62 186.47 169.83 C 189.51 168.25 191.24 161.31 186.08 160.92 C 182.92 159.49 189.27 160.82 188.28 158.12 L 188.21 156.99 C 192.43 154.38 186.50 149.92 183.18 149.75 C 184.61 148.18 187.74 141.78 184.16 142.08 C 183.59 140.64 182.27 139.38 180.84 138.83 C 181.56 136.68 176.63 139.31 177.04 136.95 C 178.03 132.83 174.85 130.21 172.78 127.34 L 173.79 127.13 C 174.94 126.99 176.01 126.63 177.01 126.05 C 176.88 127.27 176.93 128.49 177.16 129.70 C 176.85 135.57 184.09 132.40 185.25 136.11 C 185.27 136.60 185.29 137.59 185.31 138.08 C 183.81 139.73 185.83 143.04 187.93 141.78 C 188.44 141.87 189.44 142.04 189.95 142.13 C 189.93 142.63 189.89 143.63 189.86 144.12 L 189.77 145.22 C 188.04 145.78 188.40 150.63 190.80 150.00 L 192.01 150.33 C 188.16 155.03 193.43 163.07 197.19 156.14 C 197.37 154.14 196.71 152.30 194.72 151.53 C 196.00 150.76 197.13 149.63 197.13 148.04 C 197.13 147.28 197.12 145.76 197.12 145.01 C 196.95 142.80 194.71 141.82 193.65 140.09 C 194.10 138.43 194.11 136.71 194.12 135.01 C 194.31 131.49 189.83 131.23 187.31 131.99 C 190.38 125.77 184.72 119.15 178.08 122.68 C 179.24 119.11 176.58 116.21 173.66 115.01 L 172.70 114.78 C 172.86 113.00 173.71 111.86 175.53 111.64 L 175.87 112.72 C 175.86 115.49 178.43 117.61 181.15 116.98 C 181.48 116.86 182.15 116.62 182.49 116.50 C 188.78 113.67 184.10 123.95 190.01 123.95 C 193.59 123.70 191.07 128.89 194.19 129.85 C 197.87 130.98 193.64 137.53 197.84 137.14 C 201.36 139.01 205.52 133.16 200.93 131.94 C 200.65 130.98 200.35 130.03 200.03 129.08 L 200.36 127.88 C 203.23 127.15 197.01 119.52 196.35 122.44 L 195.09 122.79 C 195.97 119.83 197.04 114.23 193.00 113.87 C 191.72 113.86 190.46 113.97 189.22 114.20 C 188.12 114.39 187.03 114.58 185.94 114.80 L 186.07 113.90 C 188.62 113.09 187.89 104.12 182.87 106.00 C 181.61 105.90 180.34 105.88 179.08 105.94 C 177.46 105.90 176.28 106.96 175.28 108.09 C 175.14 107.55 174.84 106.48 174.69 105.94 C 176.18 104.29 174.19 100.97 172.08 102.21 L 171.20 101.95 C 170.68 100.22 168.14 101.33 166.80 100.77 C 169.00 98.28 172.07 99.16 174.44 100.84 L 175.29 101.35 C 174.86 102.92 181.77 101.96 181.18 99.02 L 181.18 98.01 C 187.06 90.65 171.02 85.52 169.41 94.24 L 169.12 93.24 C 169.18 86.35 156.84 92.22 161.74 83.96 C 161.33 86.59 162.65 87.67 165.21 87.04 C 164.94 88.82 169.05 88.82 168.79 87.04 C 171.58 87.79 172.68 86.36 172.23 83.64 C 174.42 84.67 174.10 88.49 177.01 88.13 C 177.72 88.10 179.16 88.04 179.87 88.01 C 181.21 87.87 182.86 88.21 183.70 86.86 C 183.82 87.45 184.05 88.62 184.17 89.21 C 183.11 91.78 187.78 93.33 188.83 91.32 L 190.07 91.28 C 190.20 91.38 190.46 91.59 190.59 91.69 C 190.67 92.27 190.82 93.42 190.89 94.00 C 192.29 98.43 200.57 95.28 196.94 90.21 C 194.87 87.66 188.83 90.90 191.77 84.16 C 191.38 84.05 190.60 83.84 190.20 83.73 L 188.99 83.74 C 188.71 81.32 183.94 85.35 183.15 82.02 C 182.53 80.54 181.14 79.43 179.77 78.67 C 178.57 75.61 174.46 80.83 171.87 80.32 C 171.62 79.16 171.26 78.03 170.77 76.94 C 170.30 75.14 161.04 74.26 161.92 79.31 L 162.14 79.92 C 160.79 80.37 160.76 82.07 160.13 83.14 L 160.24 82.43 C 160.49 78.97 154.99 76.63 152.66 78.73 L 151.91 79.31 C 145.29 73.68 160.08 80.12 159.91 72.67 L 160.47 71.87 C 161.93 72.79 163.41 73.72 165.11 74.13 C 165.79 74.00 167.15 73.74 167.82 73.61 C 169.33 74.40 171.39 72.18 170.50 70.71 C 173.07 68.74 168.95 61.89 169.63 67.31 C 168.41 66.19 167.05 64.16 165.17 65.39 C 163.67 64.66 161.63 66.84 162.32 68.32 L 161.58 69.23 C 158.81 66.21 155.30 62.35 150.70 65.69 C 147.25 66.69 151.30 74.91 147.48 72.61 C 144.53 67.01 133.94 77.13 137.63 68.79 C 138.84 69.77 140.83 70.71 141.69 68.79 C 144.36 67.97 146.63 66.43 146.14 63.31 C 150.44 65.00 155.71 63.97 156.72 58.93 L 156.73 60.08 C 157.02 64.51 163.00 59.87 165.81 62.15 C 169.19 64.87 174.65 61.99 171.91 57.24 C 170.23 54.39 165.86 58.42 164.59 55.39 C 162.80 52.56 155.08 52.32 156.98 57.28 C 154.28 52.42 143.15 51.66 145.91 59.98 C 141.74 55.43 131.27 58.44 133.79 65.80 C 129.65 62.78 123.52 72.07 121.90 66.16 C 122.67 66.02 124.21 65.75 124.98 65.61 C 126.46 66.78 129.86 65.03 128.80 63.05 C 129.09 61.38 129.10 59.67 128.91 58.00 C 129.15 57.76 129.62 57.28 129.86 57.05 L 130.88 57.17 C 131.79 59.74 139.64 57.74 138.13 53.94 C 138.06 53.49 137.94 52.60 137.88 52.15 C 138.04 51.80 138.36 51.11 138.52 50.77 L 138.78 51.89 C 141.75 57.81 147.68 49.10 152.32 51.33 C 154.43 52.15 154.56 46.99 153.56 48.36 L 153.31 47.06 C 153.63 42.83 148.53 45.71 146.28 46.45 C 143.22 44.03 139.45 45.24 137.71 48.46 C 132.94 46.49 124.87 49.79 128.74 54.89 L 129.03 55.83 C 127.94 55.28 126.85 55.19 125.76 55.54 L 125.03 54.80 C 123.99 52.41 119.58 54.63 118.90 57.10 L 118.85 58.09 C 116.50 58.08 118.80 62.64 118.72 64.90 C 117.57 65.40 115.04 64.19 114.92 65.95 L 114.17 66.40 C 112.71 65.62 110.62 67.78 111.36 69.23 L 110.88 70.14 C 108.86 70.24 107.74 69.38 107.83 67.30 L 108.84 66.80 C 110.04 67.96 112.58 66.30 111.62 64.79 C 114.38 63.43 112.59 59.85 111.65 57.79 C 114.79 57.37 118.53 57.63 118.98 53.80 L 119.20 52.93 C 120.49 52.53 120.32 50.68 120.96 49.66 C 121.76 50.68 123.09 51.35 123.96 50.01 C 127.71 50.17 127.45 43.52 132.94 46.82 C 136.61 41.48 128.94 35.64 126.70 42.03 L 126.55 43.21 C 125.29 41.16 118.10 39.95 118.87 43.82 C 118.85 45.18 118.93 46.54 119.09 47.89 C 116.01 47.25 110.29 45.80 109.88 49.99 C 109.88 51.35 109.97 52.70 110.15 54.04 C 109.84 54.63 109.23 55.80 108.92 56.39 C 108.22 56.28 106.82 56.05 106.12 55.94 C 100.18 55.18 99.43 65.18 104.22 67.55 C 103.65 67.73 102.52 68.09 101.95 68.27 C 100.13 66.70 97.41 69.22 98.48 71.18 L 97.96 71.89 C 95.84 71.67 97.90 78.35 95.93 74.98 C 93.22 71.98 100.95 67.08 97.28 65.13 L 97.06 64.09 C 96.45 62.44 96.04 60.81 98.06 60.10 L 98.86 59.73 C 100.35 60.61 101.93 58.06 100.73 56.93 C 100.78 56.52 100.88 55.68 100.92 55.26 C 100.93 54.47 100.93 52.88 100.93 52.09 C 101.70 52.09 103.22 52.10 103.99 52.11 C 106.87 52.41 107.06 49.34 107.27 47.26 C 109.12 46.97 111.27 47.10 112.10 45.05 C 112.10 44.25 112.12 42.65 112.13 41.86 C 112.81 38.93 105.15 38.93 105.84 41.90 M 85.95 50.91 C 81.96 47.52 77.01 53.97 79.81 56.17 L 80.37 57.05 C 79.79 58.02 78.32 58.77 78.34 59.94 C 70.21 61.73 78.34 75.05 83.28 66.95 C 85.39 67.93 86.16 63.34 84.18 63.23 C 83.63 61.76 82.35 60.39 80.88 59.82 C 81.15 59.56 81.69 59.05 81.96 58.79 C 82.71 58.89 84.22 59.08 84.98 59.17 C 88.80 59.11 88.57 55.09 88.06 52.07 C 88.56 52.09 89.55 52.13 90.05 52.14 C 92.63 51.41 93.29 45.52 90.16 45.82 C 86.84 45.10 85.22 48.00 85.95 50.91 M 68.14 62.80 C 67.61 62.81 66.57 62.83 66.05 62.84 C 60.64 63.11 64.38 69.24 63.05 72.73 C 61.47 73.73 60.61 76.18 61.27 77.99 C 59.82 79.10 61.30 82.09 63.02 80.82 C 64.17 82.49 66.62 82.30 68.00 81.03 C 71.47 81.90 72.07 75.48 70.21 75.07 L 70.26 74.01 C 66.07 69.85 71.70 72.48 71.08 67.89 C 70.96 67.17 70.73 65.73 70.61 65.02 C 72.26 62.60 76.64 60.17 73.33 56.67 C 68.98 52.11 63.83 59.84 68.14 62.80 M 172.10 73.74 C 173.77 77.16 179.71 71.87 180.18 75.88 C 180.74 81.13 190.95 77.46 186.90 72.23 C 185.63 71.84 181.90 69.66 182.04 71.79 L 180.86 71.80 L 180.02 72.03 C 180.07 71.58 180.16 70.67 180.21 70.22 C 181.72 63.40 166.98 66.63 172.10 73.74 M 53.26 78.57 C 50.14 79.31 48.64 87.00 52.98 86.23 C 53.28 86.66 53.86 87.52 54.15 87.95 C 52.52 88.24 51.49 89.94 50.64 91.24 C 48.88 91.43 50.36 98.77 54.05 97.10 C 56.77 97.65 60.24 96.08 60.06 92.95 C 61.96 92.18 60.21 87.33 58.06 88.10 L 56.93 87.93 C 58.97 84.75 59.79 80.24 56.67 77.50 C 59.90 76.79 59.12 72.71 56.75 71.65 C 54.26 68.28 48.99 74.88 53.26 78.57 M 42.37 93.01 C 40.90 94.07 42.24 97.12 44.00 95.93 C 44.54 95.90 45.60 95.84 46.13 95.81 C 48.17 97.10 50.53 92.98 48.29 92.21 C 47.66 88.45 42.07 90.06 42.37 93.01 M 183.08 98.21 C 181.45 102.26 182.09 104.22 185.00 104.10 C 186.48 104.32 189.44 104.74 190.92 104.96 C 190.91 105.71 190.90 107.23 190.89 107.98 C 190.59 110.87 193.65 111.06 195.73 111.27 C 196.02 113.12 195.93 115.25 197.92 116.15 C 198.44 116.14 199.46 116.12 199.97 116.11 C 204.19 116.62 204.17 109.36 199.95 109.88 C 199.44 109.87 198.42 109.85 197.91 109.84 L 198.20 108.94 L 198.22 107.81 C 199.95 107.28 199.65 102.41 197.28 103.03 L 196.26 102.76 C 194.37 100.65 188.74 103.98 191.65 97.30 C 189.99 93.62 183.16 93.48 183.08 98.21 M 41.78 102.01 C 41.54 105.72 47.73 104.03 44.99 108.03 C 43.83 111.65 46.60 116.70 50.83 114.62 C 52.25 115.38 54.38 113.26 53.61 111.83 C 53.98 110.59 54.16 109.31 54.15 108.01 C 54.34 104.91 50.84 104.86 48.65 104.40 C 49.90 103.23 50.31 101.52 49.81 99.89 C 51.32 98.19 48.81 95.68 47.11 97.19 C 44.15 96.60 42.11 99.35 41.78 102.01 M 36.88 132.83 C 36.88 133.66 36.86 135.33 36.85 136.16 C 36.58 138.62 39.48 138.03 41.08 138.56 L 40.83 139.74 C 39.04 140.40 39.64 145.06 42.05 144.89 C 49.61 140.85 45.20 147.90 47.91 149.15 L 48.42 149.92 C 47.74 152.05 51.86 154.54 52.85 152.23 L 53.84 152.11 C 55.28 151.80 57.50 150.28 57.11 152.94 C 57.78 159.33 69.72 159.98 69.05 153.02 C 73.62 147.44 61.32 144.18 61.36 146.79 C 60.94 147.02 60.09 147.48 59.67 147.71 C 60.63 145.79 57.35 148.05 57.17 149.03 C 57.18 144.89 54.58 139.81 49.29 141.77 C 49.17 138.69 47.93 134.95 43.32 136.69 C 46.86 132.17 36.35 127.37 36.88 132.83 M 168.98 170.14 C 168.98 170.57 168.97 171.43 168.96 171.86 C 168.78 173.82 169.46 175.56 171.03 176.76 L 169.90 176.85 C 166.54 176.56 167.25 182.92 169.23 184.71 C 165.41 186.29 164.83 192.10 170.13 191.20 C 174.22 191.61 169.88 184.86 173.92 184.83 C 177.16 184.45 178.06 176.31 174.07 176.72 L 172.87 176.66 C 175.16 176.16 178.46 175.62 178.98 172.94 C 183.16 165.98 167.20 162.24 168.98 170.14 M 52.88 173.91 C 53.81 178.26 58.19 175.17 59.88 178.00 C 59.56 179.76 60.31 180.51 62.14 180.25 C 62.11 182.21 68.22 181.03 67.04 178.02 C 71.11 173.82 63.08 169.90 61.99 172.77 L 60.86 172.73 C 60.41 172.81 59.51 172.95 59.06 173.03 C 60.83 167.68 50.55 168.53 52.88 173.91 M 69.23 182.85 C 71.86 182.70 77.48 185.22 77.27 181.12 L 77.21 180.00 C 79.32 178.92 78.12 173.69 74.71 174.01 L 73.71 173.60 C 71.34 170.00 63.99 179.90 69.23 182.85 M 137.77 194.70 C 135.62 194.91 132.66 195.17 132.78 198.05 C 132.95 198.57 133.27 199.60 133.43 200.11 C 128.52 197.92 122.77 205.22 128.84 207.13 C 130.64 206.91 133.82 207.89 133.33 204.98 C 133.93 204.29 134.51 203.57 135.06 202.84 L 135.94 202.98 C 136.20 205.14 140.17 203.60 139.67 201.89 L 140.07 201.07 C 142.79 200.18 138.50 193.29 145.50 196.48 C 149.74 194.41 149.48 186.38 143.82 187.03 C 143.12 186.99 141.71 186.91 141.01 186.87 C 137.17 186.62 138.53 192.87 137.77 194.70 M 101.79 192.99 C 100.58 196.82 96.14 192.04 94.26 195.27 C 93.22 196.83 91.55 196.99 89.94 196.22 C 89.45 196.12 88.48 195.94 87.99 195.84 C 83.56 197.56 85.64 205.97 91.51 201.73 C 92.33 198.60 95.02 202.39 97.01 202.03 C 100.36 202.67 100.35 196.58 104.01 198.95 C 105.33 199.09 106.65 199.15 107.98 199.11 C 113.04 199.09 112.14 191.06 107.85 189.97 C 105.29 189.43 102.87 190.60 101.79 192.99 Z" />
<path fill="#081226" opacity="1.00" d=" M 108.15 80.21 C 111.45 73.96 120.24 82.82 123.70 75.29 C 124.52 81.39 131.35 80.24 135.56 78.40 C 136.67 81.12 138.41 84.53 141.93 84.02 C 149.39 80.79 145.34 90.96 150.96 91.11 L 151.79 91.35 C 158.40 90.81 153.65 99.81 158.92 101.11 L 159.76 101.39 C 161.18 101.93 163.02 102.18 163.16 104.04 L 162.60 104.82 C 162.54 106.16 162.42 108.83 162.36 110.17 L 162.81 110.92 C 168.05 114.76 162.43 120.37 164.99 124.97 C 171.75 128.40 157.21 133.59 164.51 138.33 L 165.10 138.86 C 165.11 139.29 165.13 140.14 165.14 140.57 L 164.15 140.79 C 158.82 140.58 157.73 146.27 159.71 150.36 L 159.98 151.24 C 153.10 149.62 150.64 155.65 150.16 161.13 C 148.46 161.04 146.77 160.93 145.07 161.01 C 141.67 160.69 140.33 165.29 140.77 167.88 C 138.63 166.80 136.29 166.42 133.89 166.49 L 133.04 166.79 C 129.62 167.15 129.51 173.86 126.07 169.89 L 125.23 169.59 C 120.87 167.47 116.90 169.05 115.30 173.17 L 114.89 172.38 C 113.77 166.74 107.22 166.98 103.24 169.64 C 103.33 166.72 101.26 165.04 98.76 164.03 L 98.02 163.68 C 93.91 164.79 91.34 163.71 91.27 159.73 L 91.11 158.92 C 91.38 156.52 89.07 155.30 86.99 156.07 C 85.71 156.03 84.43 155.99 83.15 155.96 C 84.19 151.32 83.28 147.35 78.70 146.15 L 77.99 145.76 C 76.08 145.14 76.22 143.46 76.64 141.82 C 77.18 140.60 77.34 139.33 77.12 138.02 C 77.73 134.20 73.49 133.63 70.86 132.48 L 71.85 132.22 C 77.31 130.83 75.99 120.97 70.90 119.35 L 71.81 119.10 C 80.03 118.53 72.66 108.51 76.19 106.15 L 77.02 106.03 C 79.44 106.42 80.72 104.09 79.95 101.99 C 79.91 100.67 79.86 99.35 79.79 98.03 C 83.19 95.38 89.69 94.10 88.40 87.34 C 89.87 87.07 92.81 86.54 94.29 86.27 L 95.09 86.14 C 97.52 86.41 98.65 84.02 97.94 81.95 C 98.01 81.46 98.14 80.47 98.20 79.97 C 98.63 80.05 99.48 80.21 99.90 80.29 L 100.76 80.45 C 103.07 80.61 106.45 82.28 108.15 80.21 Z" />
<path fill="#081226" opacity="1.00" d=" M 155.30 165.30 C 161.23 163.28 153.28 171.23 155.30 165.30 Z" />
<path fill="#081226" opacity="1.00" d=" M 142.27 173.33 C 148.19 172.34 140.43 178.87 142.27 173.33 Z" />
</g>
<g id="#389f9dff">
<path fill="#389f9d" opacity="1.00" d=" M 162.32 68.32 C 161.63 66.84 163.67 64.66 165.17 65.39 C 164.85 66.85 163.75 67.94 162.32 68.32 Z" />
<path fill="#389f9d" opacity="1.00" d=" M 159.08 69.07 C 159.85 69.85 160.32 70.78 160.47 71.87 L 159.91 72.67 L 159.09 72.78 C 158.77 71.55 158.77 70.31 159.08 69.07 Z" />
<path fill="#389f9d" opacity="1.00" d=" M 179.53 69.77 L 180.21 70.22 C 180.16 70.67 180.07 71.58 180.02 72.03 C 178.21 73.33 176.05 74.80 173.79 73.55 C 176.22 73.21 178.04 71.61 179.53 69.77 Z" />
<path fill="#389f9d" opacity="1.00" d=" M 180.86 71.80 L 182.04 71.79 C 184.32 72.20 187.60 73.81 185.35 76.34 C 182.20 78.95 180.28 74.59 180.86 71.80 Z" />
<path fill="#389f9d" opacity="1.00" d=" M 161.92 79.31 C 162.73 78.30 163.76 77.17 165.17 77.22 C 165.10 78.83 163.86 80.27 162.14 79.92 L 161.92 79.31 Z" />
<path fill="#389f9d" opacity="1.00" d=" M 169.03 77.00 C 169.47 76.98 170.34 76.95 170.77 76.94 C 171.26 78.03 171.62 79.16 171.87 80.32 C 171.98 81.43 172.10 82.54 172.23 83.64 C 172.68 86.36 171.58 87.79 168.79 87.04 C 167.59 86.95 166.40 86.95 165.21 87.04 C 162.65 87.67 161.33 86.59 161.74 83.96 C 164.79 84.74 165.69 82.04 167.09 80.04 C 169.23 79.77 170.70 79.21 169.03 77.00 Z" />
<path fill="#389f9d" opacity="1.00" d=" M 151.91 79.31 L 152.66 78.73 C 153.93 78.68 155.08 79.03 156.11 79.78 C 154.75 80.10 153.38 80.16 152.01 79.96 L 151.91 79.31 Z" />
<path fill="#389f9d" opacity="1.00" d=" M 177.01 88.13 C 173.34 84.57 173.81 78.76 179.77 78.67 C 181.14 79.43 182.53 80.54 183.15 82.02 C 183.46 84.70 182.22 86.79 179.87 88.01 C 179.16 88.04 177.72 88.10 177.01 88.13 Z" />
<path fill="#389f9d" opacity="1.00" d=" M 156.80 80.12 C 158.10 80.62 159.33 81.34 160.24 82.43 L 160.13 83.14 C 158.26 83.42 156.96 81.84 156.80 80.12 Z" />
<path fill="#389f9d" opacity="1.00" d=" M 183.70 86.86 C 185.08 85.24 186.77 83.88 188.99 83.74 L 190.20 83.73 C 190.34 86.24 190.53 88.79 190.07 91.28 L 188.83 91.32 C 187.18 90.85 185.63 90.09 184.17 89.21 C 184.05 88.62 183.82 87.45 183.70 86.86 Z" />
<path fill="#389f9d" opacity="1.00" d=" M 159.21 90.06 C 162.93 89.44 166.43 90.73 169.12 93.24 L 169.41 94.24 C 169.37 99.09 164.31 102.04 159.76 101.39 L 158.92 101.11 C 156.96 97.74 156.20 93.04 159.21 90.06 Z" />
<path fill="#389f9d" opacity="1.00" d=" M 190.59 91.69 C 192.14 89.42 196.71 89.35 195.97 92.93 C 195.83 95.94 192.67 94.43 190.89 94.00 C 190.82 93.42 190.67 92.27 190.59 91.69 Z" />
<path fill="#389f9d" opacity="1.00" d=" M 173.27 91.19 C 178.36 88.86 181.82 93.65 181.18 98.01 L 181.18 99.02 C 179.25 99.89 177.29 100.67 175.29 101.35 L 174.44 100.84 C 171.78 98.46 169.16 93.41 173.27 91.19 Z" />
<path fill="#389f9d" opacity="1.00" d=" M 183.08 98.21 C 184.90 96.68 187.90 94.62 189.82 97.18 C 194.18 101.34 189.31 105.40 185.00 104.10 C 182.09 104.22 181.45 102.26 183.08 98.21 Z" />
<path fill="#389f9d" opacity="1.00" d=" M 163.16 104.04 C 165.28 101.84 168.30 102.01 171.20 101.95 L 172.08 102.21 C 172.90 103.48 173.79 104.72 174.69 105.94 C 174.84 106.48 175.14 107.55 175.28 108.09 C 172.91 113.58 167.19 115.95 162.81 110.92 L 162.36 110.17 C 163.64 108.66 163.74 106.43 162.60 104.82 L 163.16 104.04 Z" />
<path fill="#389f9d" opacity="1.00" d=" M 190.92 104.96 C 192.56 103.91 194.32 103.09 196.26 102.76 L 197.28 103.03 C 197.63 104.62 197.94 106.21 198.22 107.81 L 198.20 108.94 C 195.74 110.67 192.94 109.91 190.89 107.98 C 190.90 107.23 190.91 105.71 190.92 104.96 Z" />
<path fill="#389f9d" opacity="1.00" d=" M 179.08 105.94 C 180.34 105.88 181.61 105.90 182.87 106.00 C 185.96 107.54 186.66 110.47 186.07 113.90 L 185.94 114.80 C 184.71 115.19 183.54 115.74 182.49 116.50 C 182.15 116.62 181.48 116.86 181.15 116.98 C 179.34 115.62 177.58 114.19 175.87 112.72 L 175.53 111.64 C 176.33 109.52 177.64 107.66 179.08 105.94 Z" />
<path fill="#389f9d" opacity="1.00" d=" M 197.91 109.84 C 198.42 109.85 199.44 109.87 199.95 109.88 C 202.11 111.85 202.13 114.13 199.97 116.11 C 199.46 116.12 198.44 116.14 197.92 116.15 C 197.40 114.07 196.83 111.85 197.91 109.84 Z" />
<path fill="#389f9d" opacity="1.00" d=" M 189.22 114.20 C 190.46 113.97 191.72 113.86 193.00 113.87 C 194.35 116.26 195.96 119.25 193.71 121.68 C 189.46 126.53 184.27 117.44 189.22 114.20 Z" />
<path fill="#389f9d" opacity="1.00" d=" M 172.78 127.34 C 162.96 128.66 162.89 113.01 172.70 114.78 L 173.66 115.01 C 176.87 118.49 178.11 124.03 173.79 127.13 L 172.78 127.34 Z" />
<path fill="#389f9d" opacity="1.00" d=" M 177.01 126.05 C 180.02 120.68 188.58 123.64 186.74 129.68 C 185.70 134.92 179.49 133.07 177.16 129.70 C 176.93 128.49 176.88 127.27 177.01 126.05 Z" />
<path fill="#389f9d" opacity="1.00" d=" M 195.09 122.79 L 196.35 122.44 C 197.99 124.00 199.31 125.87 200.36 127.88 L 200.03 129.08 C 195.86 131.83 190.33 126.21 195.09 122.79 Z" />
<path fill="#389f9d" opacity="1.00" d=" M 164.51 138.33 C 161.34 132.14 170.63 124.85 174.39 131.65 C 177.88 134.61 175.02 138.65 172.14 140.69 C 171.60 140.79 170.51 140.99 169.97 141.09 C 168.37 140.29 166.75 139.54 165.10 138.86 L 164.51 138.33 Z" />
<path fill="#389f9d" opacity="1.00" d=" M 197.84 137.14 C 196.40 133.93 196.63 130.82 200.93 131.94 C 205.52 133.16 201.36 139.01 197.84 137.14 Z" />
<path fill="#389f9d" opacity="1.00" d=" M 185.25 136.11 C 187.39 132.90 191.35 131.93 194.12 135.01 C 194.11 136.71 194.10 138.43 193.65 140.09 C 192.41 140.76 191.19 141.46 189.95 142.13 C 189.44 142.04 188.44 141.87 187.93 141.78 C 187.10 140.51 186.21 139.29 185.31 138.08 C 185.29 137.59 185.27 136.60 185.25 136.11 Z" />
<path fill="#389f9d" opacity="1.00" d=" M 76.47 137.87 L 77.12 138.02 C 77.34 139.33 77.18 140.60 76.64 141.82 L 76.03 141.86 C 75.78 140.48 75.93 139.15 76.47 137.87 Z" />
<path fill="#389f9d" opacity="1.00" d=" M 176.00 149.13 C 172.01 144.94 174.88 138.12 180.84 138.83 C 182.27 139.38 183.59 140.64 184.16 142.08 C 185.15 146.72 181.59 150.16 176.98 149.12 L 176.00 149.13 Z" />
<path fill="#389f9d" opacity="1.00" d=" M 164.15 140.79 L 165.14 140.57 C 169.68 141.36 172.96 145.95 170.86 150.67 C 168.56 154.55 163.27 153.23 159.98 151.24 L 159.71 150.36 C 158.66 146.01 160.85 142.95 164.15 140.79 Z" />
<path fill="#389f9d" opacity="1.00" d=" M 189.86 144.12 C 192.40 142.86 195.05 142.91 197.12 145.01 C 197.12 145.76 197.13 147.28 197.13 148.04 C 195.53 149.02 193.82 149.82 192.01 150.33 L 190.80 150.00 C 190.39 148.42 190.06 146.83 189.77 145.22 L 189.86 144.12 Z" />
<path fill="#389f9d" opacity="1.00" d=" M 180.36 154.37 C 181.63 148.42 189.24 152.14 188.21 156.99 L 188.28 158.12 C 184.76 159.79 177.94 159.70 180.36 154.37 Z" />
<path fill="#389f9d" opacity="1.00" d=" M 197.19 156.14 C 192.31 159.50 189.58 153.55 194.72 151.53 C 196.71 152.30 197.37 154.14 197.19 156.14 Z" />
<path fill="#389f9d" opacity="1.00" d=" M 152.71 155.75 C 154.28 151.16 159.28 153.51 162.93 153.87 C 163.78 156.11 164.25 158.49 164.06 160.90 C 160.28 166.72 148.46 163.95 152.71 155.75 Z" />
<path fill="#389f9d" opacity="1.00" d=" M 74.31 157.31 C 77.02 156.48 79.51 155.14 81.99 153.81 C 80.81 156.67 78.16 158.52 75.01 158.09 L 73.99 158.13 L 74.31 157.31 Z" />
<path fill="#389f9d" opacity="1.00" d=" M 167.14 156.10 C 168.86 154.10 171.45 153.85 173.93 153.90 C 175.31 154.40 176.79 155.73 177.03 157.24 C 176.95 158.42 176.96 159.60 177.05 160.79 C 177.72 163.51 176.51 164.73 173.79 164.04 C 172.59 163.95 171.40 163.95 170.21 164.04 C 167.49 164.73 166.27 163.51 166.95 160.79 C 167.03 159.58 167.04 158.37 166.97 157.16 L 167.14 156.10 Z" />
<path fill="#389f9d" opacity="1.00" d=" M 83.15 155.96 C 84.43 155.99 85.71 156.03 86.99 156.07 C 88.15 157.30 89.51 158.33 91.11 158.92 L 91.27 159.73 C 92.17 164.73 88.12 169.16 83.02 168.15 L 82.05 168.14 C 77.86 164.49 79.38 159.25 83.15 155.96 Z" />
<path fill="#389f9d" opacity="1.00" d=" M 73.24 161.08 C 76.98 160.91 77.32 165.40 77.06 168.18 L 76.92 169.05 C 75.85 169.41 74.83 169.92 74.03 170.74 C 72.93 172.21 70.94 172.39 69.93 170.72 C 69.04 169.44 68.13 168.17 67.18 166.94 L 66.55 165.86 C 66.91 165.42 67.64 164.54 68.00 164.10 C 70.24 164.09 71.86 162.69 73.24 161.08 Z" />
<path fill="#389f9d" opacity="1.00" d=" M 145.07 161.01 C 146.77 160.93 148.46 161.04 150.16 161.13 C 154.67 164.13 154.88 169.60 150.84 173.15 L 149.76 173.15 C 142.35 174.71 139.24 165.08 145.07 161.01 Z" />
<path fill="#389f9d" opacity="1.00" d=" M 180.82 165.02 C 182.47 163.50 185.10 160.65 187.33 162.64 C 190.88 167.11 183.34 170.62 180.89 165.92 L 180.82 165.02 Z" />
<path fill="#389f9d" opacity="1.00" d=" M 89.76 168.88 C 91.90 166.30 94.46 163.77 98.02 163.68 L 98.76 164.03 C 102.12 167.45 103.27 173.01 98.82 176.02 L 97.84 176.28 C 94.53 176.36 92.30 173.98 90.07 171.90 C 90.00 171.14 89.84 169.63 89.76 168.88 Z" />
<path fill="#389f9d" opacity="1.00" d=" M 161.70 177.50 C 154.49 176.50 154.51 166.50 161.70 165.49 L 162.77 165.82 C 167.10 168.40 166.59 174.32 162.54 176.91 L 161.70 177.50 Z" />
<path fill="#389f9d" opacity="1.00" d=" M 133.04 166.79 L 133.89 166.49 C 140.27 166.57 143.89 174.23 139.00 178.97 L 138.08 179.10 C 130.37 180.74 127.95 171.41 133.04 166.79 Z" />
<path fill="#389f9d" opacity="1.00" d=" M 168.98 170.14 C 170.44 164.57 180.11 167.27 177.80 172.71 C 175.82 176.40 170.42 175.60 168.96 171.86 C 168.97 171.43 168.98 170.57 168.98 170.14 Z" />
<path fill="#389f9d" opacity="1.00" d=" M 103.21 176.65 C 100.84 168.63 111.07 167.06 114.89 172.38 L 115.30 173.17 C 116.04 179.77 106.06 182.61 103.21 176.65 Z" />
<path fill="#389f9d" opacity="1.00" d=" M 122.10 181.72 C 113.36 180.82 115.77 166.13 125.23 169.59 L 126.07 169.89 C 129.17 174.34 127.87 179.77 122.87 181.99 L 122.10 181.72 Z" />
<path fill="#389f9d" opacity="1.00" d=" M 180.85 171.20 C 182.52 170.97 185.79 169.15 185.96 172.06 C 187.70 176.53 181.27 175.66 180.51 172.36 L 180.85 171.20 Z" />
<path fill="#389f9d" opacity="1.00" d=" M 81.05 171.86 L 82.08 171.88 C 87.33 169.89 90.02 173.90 90.19 178.20 L 89.79 179.06 C 88.53 179.89 87.30 180.78 86.09 181.68 C 85.33 181.80 83.81 182.02 83.06 182.14 C 79.77 179.66 79.92 175.40 81.05 171.86 Z" />
<path fill="#389f9d" opacity="1.00" d=" M 55.67 175.10 C 56.35 174.00 57.28 173.18 58.44 172.64 L 59.06 173.03 C 58.58 174.34 57.22 176.56 55.67 175.10 Z" />
<path fill="#389f9d" opacity="1.00" d=" M 60.86 172.73 L 61.99 172.77 C 67.56 172.03 67.71 180.76 62.14 180.25 C 60.31 180.51 59.56 179.76 59.88 178.00 C 60.08 176.22 60.41 174.46 60.86 172.73 Z" />
<path fill="#389f9d" opacity="1.00" d=" M 69.09 180.76 C 68.26 177.61 70.66 174.29 73.71 173.60 L 74.71 174.01 C 76.09 175.75 77.14 177.73 77.21 180.00 L 77.27 181.12 C 74.68 181.73 70.87 183.48 69.09 180.76 Z" />
<path fill="#389f9d" opacity="1.00" d=" M 142.15 178.68 C 143.84 176.06 146.61 175.56 149.72 175.91 C 152.09 176.40 153.44 179.91 152.79 182.19 C 151.66 183.45 150.46 184.64 149.20 185.77 C 148.10 187.50 146.35 186.29 144.96 185.71 C 144.10 184.48 143.21 183.28 142.30 182.10 C 142.26 181.24 142.19 179.54 142.15 178.68 Z" />
<path fill="#389f9d" opacity="1.00" d=" M 169.90 176.85 L 171.03 176.76 C 171.49 176.74 172.41 176.69 172.87 176.66 L 174.07 176.72 C 174.61 179.52 176.41 184.47 172.00 184.05 C 167.66 184.48 169.35 179.63 169.90 176.85 Z" />
<path fill="#389f9d" opacity="1.00" d=" M 94.14 182.30 C 96.36 180.58 98.10 177.48 101.70 179.16 C 105.43 181.27 104.34 186.39 101.96 189.22 L 100.91 189.22 C 97.84 189.57 95.78 187.62 94.27 185.21 C 94.24 184.49 94.17 183.03 94.14 182.30 Z" />
<path fill="#389f9d" opacity="1.00" d=" M 155.99 180.05 C 159.33 177.76 165.70 179.54 163.50 184.38 C 162.06 190.46 153.56 186.87 155.88 181.03 L 155.99 180.05 Z" />
<path fill="#389f9d" opacity="1.00" d=" M 126.77 187.90 C 126.03 182.20 133.13 178.57 137.05 183.09 L 137.21 184.10 C 137.71 190.08 131.31 193.30 126.83 188.94 L 126.77 187.90 Z" />
<path fill="#389f9d" opacity="1.00" d=" M 109.95 186.11 C 112.20 181.57 118.08 180.64 120.94 185.12 C 121.08 186.36 121.11 187.61 121.03 188.86 C 117.74 192.49 112.43 192.24 110.07 187.78 C 110.04 187.36 109.98 186.53 109.95 186.11 Z" />
<path fill="#389f9d" opacity="1.00" d=" M 87.12 183.91 C 87.73 184.01 88.94 184.21 89.54 184.30 C 90.49 185.43 91.54 186.49 92.82 187.25 C 92.89 187.92 93.03 189.25 93.10 189.91 C 91.33 191.37 89.47 192.81 87.19 193.34 L 86.07 193.26 C 83.47 190.04 83.83 186.44 87.12 183.91 Z" />
<path fill="#389f9d" opacity="1.00" d=" M 170.13 191.20 C 164.83 192.10 165.41 186.29 169.23 184.71 C 171.54 186.29 171.11 188.96 170.13 191.20 Z" />
<path fill="#389f9d" opacity="1.00" d=" M 67.92 186.97 C 72.27 184.91 74.27 186.75 72.19 191.18 C 68.84 191.82 67.07 190.41 67.92 186.97 Z" />
<path fill="#389f9d" opacity="1.00" d=" M 74.58 189.76 C 75.98 187.80 78.50 184.11 80.83 187.17 C 84.95 190.90 77.17 195.19 74.79 190.83 L 74.58 189.76 Z" />
<path fill="#389f9d" opacity="1.00" d=" M 141.01 186.87 C 141.71 186.91 143.12 186.99 143.82 187.03 C 147.56 188.90 147.86 194.31 143.87 196.05 C 138.27 196.79 138.13 190.03 141.01 186.87 Z" />
<path fill="#389f9d" opacity="1.00" d=" M 155.59 196.37 C 150.34 195.16 151.95 188.39 156.90 188.99 C 160.94 189.69 157.80 194.08 156.69 196.13 L 155.59 196.37 Z" />
<path fill="#389f9d" opacity="1.00" d=" M 101.79 192.99 C 102.87 190.60 105.29 189.43 107.85 189.97 C 109.76 192.84 110.98 196.47 107.98 199.11 C 106.65 199.15 105.33 199.09 104.01 198.95 C 102.51 197.30 101.89 195.19 101.79 192.99 Z" />
<path fill="#389f9d" opacity="1.00" d=" M 123.18 191.05 C 124.40 190.92 125.63 190.92 126.86 191.03 C 127.44 191.67 128.02 192.30 128.62 192.93 L 129.15 193.87 C 129.11 196.13 128.51 198.32 126.97 200.02 C 125.86 201.62 124.26 200.11 122.96 199.65 C 120.19 197.47 121.16 193.46 123.18 191.05 Z" />
<path fill="#389f9d" opacity="1.00" d=" M 96.25 195.20 C 100.74 194.15 101.04 200.23 97.02 200.94 C 93.20 200.89 93.29 196.67 96.25 195.20 Z" />
<path fill="#389f9d" opacity="1.00" d=" M 87.99 195.84 C 88.48 195.94 89.45 196.12 89.94 196.22 C 90.24 198.04 92.59 201.98 89.00 201.02 C 85.35 201.96 87.89 197.73 87.99 195.84 Z" />
<path fill="#389f9d" opacity="1.00" d=" M 132.78 198.05 C 135.80 194.61 141.49 195.70 140.07 201.07 L 139.67 201.89 C 138.37 202.04 137.11 202.40 135.94 202.98 L 135.06 202.84 C 134.51 201.93 133.97 201.02 133.43 200.11 C 133.27 199.60 132.95 198.57 132.78 198.05 Z" />
<path fill="#389f9d" opacity="1.00" d=" M 150.30 196.29 C 153.47 194.81 154.15 201.15 150.94 200.99 C 147.57 201.91 146.72 196.19 150.30 196.29 Z" />
<path fill="#389f9d" opacity="1.00" d=" M 113.00 200.39 C 114.67 199.13 116.43 197.26 118.75 198.13 C 121.55 199.80 118.61 202.93 117.85 205.01 C 117.16 205.02 115.77 205.05 115.08 205.06 C 114.27 203.85 113.48 202.64 112.73 201.41 L 113.00 200.39 Z" />
<path fill="#389f9d" opacity="1.00" d=" M 107.85 207.14 C 104.81 202.13 109.72 200.19 112.45 204.72 C 112.88 207.76 109.82 207.01 107.85 207.14 Z" />
<path fill="#389f9d" opacity="1.00" d=" M 128.84 207.13 C 125.35 202.20 131.97 199.45 133.33 204.98 C 133.82 207.89 130.64 206.91 128.84 207.13 Z" />
</g>
</svg>
