<?xml version="1.0" encoding="utf-8"?>
<!-- Generator: Adobe Illustrator 26.0.3, SVG Export Plug-In . SVG Version: 6.00 Build 0)  -->
<svg version="1.1" id="Layer_1" xmlns="http://www.w3.org/2000/svg" xmlns:xlink="http://www.w3.org/1999/xlink" x="0px" y="0px"
	 viewBox="0 0 250 250" style="enable-background:new 0 0 250 250;" xml:space="preserve">
<style type="text/css">
	.st0{fill:#FEFEFE;}
	.st1{fill:#E6420F;}
	.st2{fill:#FEB872;}
	.st3{fill:#C05324;}
	.st4{fill:#241304;}
	.st5{fill:#B5783C;}
</style>
<g id="_x23_fefefeff">
	<path class="st0" d="M88.2,108.9c1.6-0.7,4-0.5,4.9,1.3c1.4,2.2-0.4,5.6-3.1,5.4C86.4,115.8,85.2,110.5,88.2,108.9z"/>
	<path class="st0" d="M155.2,108.9c2-1.1,5-0.1,5.4,2.3c0.8,2.9-3,5.6-5.4,3.8C152.9,113.8,153.1,110.3,155.2,108.9z"/>
	<path class="st0" d="M115.9,131.6c4.7-2.4,10.6-2.9,15.3,0C126.1,131.2,121,131.3,115.9,131.6z"/>
</g>
<g id="_x23_e6420fff">
	<path class="st1" d="M117.6,0h14.9c14.6,1.1,29,4.4,42.4,10.3c21.4,9.2,39.7,24.7,53.1,43.6c13.1,19.4,21,42.3,22,65.7v10.9
		c-1.2,19.6-6.4,39.2-16.3,56.3c-8.4,15.7-21,29-35.2,39.6c-19.6,13.9-43,22.2-67,23.6h-11.9c-21.2-1-42.1-7.4-60.2-18.4
		C38,218.4,21,198.5,10.5,175.7C4.4,162.1,1.1,147.3,0,132.4v-19.8c1.2-5,1.8-10.1,2.9-15.2c1.4-5.9,3.3-11.6,5.4-17.3
		c10.9-28.6,32.9-52.6,60-66.7C83.6,5.8,100.4,1.1,117.6,0 M48.4,38.5c-3.4,1.2-4.3,5.3-4.5,8.5c-0.7,12,2.8,23.6,5.1,35.2
		c0.7,2.8-1.4,5.1-2.5,7.4c-9.5,17-13,37.1-11.2,56.4c1.4,15.6,6.2,31.3,16,43.8c12,16,30.6,25.9,49.9,30.2
		c22.8,5,47.4,2.9,68.5-7.2c13.2-6.3,25-15.9,32.7-28.4c11.2-17.5,13.9-39.2,12.1-59.5c-1-12.9-5.5-25.2-11.7-36.5
		c-1.2-2.2-2.7-4.6-1.8-7.2c2.6-10.2,4.8-20.6,5.2-31.1c-0.1-3.6-0.3-7.6-2.7-10.4c-1.7-2-4.6-1.4-6.9-1
		c-9.5,2.5-16.9,9.4-25.6,13.7c-4.6-1.9-8.6-5.2-13.3-7.1c-10.7-5.3-22.8-7.5-34.7-6.9c-8.4-0.4-16.6,1.8-24.6,4.3
		c-6.9,2.3-12.9,6.7-19.4,9.8c-5.2-2.4-9.6-6.2-14.6-8.8C59.5,41,54.2,37.4,48.4,38.5z"/>
</g>
<g id="_x23_feb872ff">
	<path class="st2" d="M48.4,38.5c5.8-1.1,11.1,2.5,16,5.1c5.1,2.6,9.5,6.4,14.6,8.8c6.5-3.1,12.5-7.5,19.4-9.8
		c7.9-2.5,16.2-4.7,24.6-4.3c11.9-0.5,24,1.7,34.7,6.9c4.7,1.9,8.6,5.2,13.3,7.1c8.7-4.3,16.1-11.2,25.6-13.7c2.3-0.4,5.1-0.9,6.9,1
		c2.4,2.8,2.6,6.8,2.7,10.4c-0.4,10.5-2.6,20.9-5.2,31.1c-0.9,2.6,0.6,5,1.8,7.2c6.2,11.2,10.7,23.6,11.7,36.5
		c1.9,20.4-0.8,42-12.1,59.5c-7.7,12.5-19.5,22.1-32.7,28.4c-21.2,10.1-45.7,12.1-68.5,7.2c-19.3-4.3-37.9-14.2-49.9-30.2
		c-9.8-12.5-14.6-28.1-16-43.8c-1.8-19.3,1.6-39.4,11.2-56.4c1.1-2.3,3.3-4.7,2.5-7.4c-2.4-11.6-5.8-23.2-5.1-35.2
		C44.1,43.7,45,39.7,48.4,38.5 M52.4,49.4c-0.8,6.3,1,12.5,2.6,18.5c1.9,5.9,3.1,12.1,5.9,17.6c4-7.3,8.6-14.4,13.2-21.4
		c-5.1-5.3-10.3-10.6-16.4-14.7C56.2,48.4,53.2,46.9,52.4,49.4 M192.2,49.2c-5,3.2-9.1,7.6-13.4,11.6c-1,1.2-2.8,2.2-2.6,4
		c1.2,2.3,2.9,4.3,4.4,6.5c3.2,4.5,5.1,9.7,8.4,14.2c2.2-4.7,3.4-9.7,5-14.6c2.2-7.3,4.4-14.9,3.5-22.6
		C195.7,48.3,193.8,48.1,192.2,49.2 M105.9,80.5c1.4,2.5,3.6,4.7,3.8,7.7c0.3,3.5-1.7,7.4-5.3,8.1c-4.4,1-9.2,0.9-13.4,2.8
		c-12.6,5.1-22.9,17.8-21.8,31.9c1.7-4.5,2.7-9.3,4.9-13.6c0.4,0,1.1,0.1,1.5,0.2c1.2,5.2,6.5,8.8,11.8,8.1
		c1.7-4.9,5.2-8.8,8.4-12.7c3.9-1.7,7.2-4.5,11.3-5.9c7.5-3.1,15.9-2.7,23.9-2.2c7,0.6,13.1,4.1,19.2,7.2c-1.1-1.3-2.2-2.6-3.7-3.6
		c-14.9-10-36.5-8.7-50,3.2c-1.7-3.4-4.6-5.7-8-7.3c5.3-3.5,11.8-3.5,17.7-5.3C114,96.2,113.9,83.1,105.9,80.5 M141.6,99.3
		c5.7,1.4,11.8,1.9,16.9,5.1c-2.2,1.4-5,2.5-6.3,4.9c-0.6,1.2-1.8,2.8-0.6,4.1c2.2,2.8,4.9,5.2,6.4,8.5c1,1.6,1.6,4.5,4.1,3.8
		c5.2,0,8.6-4.8,10.2-9.2c3.1,4.3,3.9,9.7,5.5,14.6c1.6-16.7-12.9-31.7-28.9-33.7c-3.8-0.6-8.7-0.6-10.5-4.7
		c-2.1-4.2,0.4-8.5,2.6-12C133.1,83.6,133.5,97.1,141.6,99.3 M118.3,113.4c-6.2,0.9-12.1,4-16.1,8.9c-2.9,4-8.2,4.5-12.2,6.8
		c-12.2,6.4-22.2,18.7-22.9,32.8c-0.9,10.4,4.5,20.2,11.7,27.2c10,9.6,23.2,16.6,37.2,17.2c10.1,0.2,20.6,0.7,30.3-2.9
		c10.6-4,20.4-10.6,27.3-19.7c5.7-7.5,8.5-17.4,6.4-26.6c-3-14.2-14.5-25.3-27.8-30.3c-2.8-1-5.4-2.4-7.2-4.8
		C138.8,114.2,127.9,111.9,118.3,113.4z"/>
</g>
<g id="_x23_c05324ff">
	<path class="st3" d="M52.4,49.4c0.8-2.5,3.8-1,5.3-0.1c6.1,4.1,11.3,9.4,16.4,14.7c-4.6,7-9.1,14.1-13.2,21.4
		c-2.9-5.5-4-11.7-5.9-17.6C53.4,61.9,51.6,55.6,52.4,49.4z"/>
	<path class="st3" d="M192.2,49.2c1.5-1.2,3.5-1,5.2-0.9c0.9,7.7-1.3,15.3-3.5,22.6c-1.6,4.9-2.8,9.9-5,14.6
		c-3.3-4.5-5.2-9.7-8.4-14.2c-1.5-2.2-3.2-4.1-4.4-6.5c-0.2-1.7,1.6-2.8,2.6-4C183.2,56.8,187.3,52.5,192.2,49.2z"/>
	<path class="st3" d="M105.9,80.5c8,2.6,8.1,15.7,0.3,18.6c-5.9,1.8-12.4,1.8-17.7,5.3c-5.2,3.1-11.8,6.7-12.9,13.3
		c-0.4,0-1.1-0.1-1.5-0.2c-2.2,4.3-3.2,9.1-4.9,13.6c-1.2-14.1,9.1-26.9,21.8-31.9c4.2-1.8,9-1.7,13.4-2.8c3.6-0.8,5.6-4.7,5.3-8.1
		C109.5,85.2,107.3,83,105.9,80.5z"/>
	<path class="st3" d="M141.6,99.3c-8.2-2.2-8.6-15.8-0.7-18.7c-2.2,3.5-4.7,7.8-2.6,12c1.8,4.1,6.7,4.1,10.5,4.7
		c16,2.1,30.6,17,28.9,33.7c-1.6-4.9-2.4-10.3-5.5-14.6c-3.3-5.2-8.1-9.4-13.7-12.1C153.4,101.2,147.4,100.7,141.6,99.3z"/>
	<path class="st3" d="M96.5,111.6c13.5-11.9,35.1-13.2,50-3.2c1.5,0.9,2.6,2.3,3.7,3.6c-6.1-3.1-12.2-6.6-19.2-7.2
		c-8-0.5-16.3-0.9-23.9,2.2c-4,1.4-7.4,4.3-11.3,5.9C96,112.7,96.3,112,96.5,111.6z"/>
</g>
<g id="_x23_241304ff">
	<path class="st4" d="M75.6,117.6c1.1-6.6,7.7-10.1,12.9-13.3c3.3,1.6,6.3,3.9,8,7.3c-0.2,0.3-0.5,1-0.6,1.4
		c-3.2,3.9-6.8,7.8-8.4,12.7C82.1,126.4,76.8,122.9,75.6,117.6 M88.2,108.9c-3,1.6-1.8,6.9,1.8,6.6c2.7,0.2,4.5-3.2,3.1-5.4
		C92.2,108.4,89.8,108.2,88.2,108.9z"/>
	<path class="st4" d="M152.2,109.3c1.4-2.4,4.1-3.5,6.3-4.9c5.6,2.7,10.3,6.9,13.7,12.1c-1.6,4.4-4.9,9.2-10.2,9.2
		c-2.5,0.7-3.1-2.2-4.1-3.8c-1.5-3.3-4.2-5.7-6.4-8.5C150.4,112.1,151.6,110.5,152.2,109.3 M155.2,108.9c-2.1,1.4-2.3,4.9,0,6.1
		c2.4,1.8,6.2-0.9,5.4-3.8C160.2,108.8,157.2,107.8,155.2,108.9z"/>
	<path class="st4" d="M117.4,127.7c6.4-0.3,14.7-2.1,19.3,3.7c4.9,9.1-4.5,21.8-14.7,19.9c-7.1-1.1-12.1-8.3-12.2-15.2
		C109.8,131.7,113.5,128.4,117.4,127.7 M115.9,131.6c5.1-0.3,10.2-0.4,15.3,0C126.6,128.7,120.6,129.3,115.9,131.6z"/>
	<path class="st4" d="M123.6,154.1c4.8,8.3,7.9,17.6,14,25.1c4.5,4.8,11.3,8.9,18.1,6.6c6.2-2.1,9.1-8.3,13.2-12.9
		c-1.4,6.1-5.2,11.8-10.7,15c-4.6,2.5-9.8,0.9-14.3-0.9c-4.4,2.4-8.9,5.1-14,5.5c-6.8,0.5-13.9,0.5-20.1-2.7
		c-1.9-0.9-3.7-2.3-5.8-2.8c-4.2,1.2-8.9,2.6-13.2,1c-4.8-2.5-8.2-7.1-9.9-12.1c5,4.4,9.5,11,16.9,10.9c7.2-1,13.1-6.3,16.7-12.4
		C118.2,168,121.3,161.2,123.6,154.1 M116.9,173.9c-2,3.5-4.8,6.3-7.4,9.2c7.7,8.2,21.9,8.1,30.2,0.8c-2.7-3.8-6.2-6.9-8.5-11.1
		c-2.7-4.4-4.3-9.4-7.2-13.7C121.5,164.1,119.7,169.2,116.9,173.9z"/>
</g>
<g id="_x23_b5783cff">
	<path class="st5" d="M118.3,113.4c9.5-1.5,20.4,0.8,26.7,8.5c1.8,2.4,4.4,3.8,7.2,4.8c13.2,5.1,24.7,16.2,27.8,30.3
		c2.1,9.3-0.7,19.2-6.4,26.6c-6.8,9.1-16.7,15.7-27.3,19.7c-9.7,3.7-20.2,3.1-30.3,2.9c-14.1-0.6-27.2-7.6-37.2-17.2
		c-7.2-7.1-12.6-16.9-11.7-27.2c0.8-14.1,10.7-26.4,22.9-32.8c4.1-2.3,9.3-2.8,12.2-6.8C106.2,117.4,112.1,114.3,118.3,113.4
		 M117.4,127.7c-4,0.8-7.6,4.1-7.6,8.3c0,6.9,5.1,14.1,12.2,15.2c10.2,1.9,19.6-10.8,14.7-19.9C132.1,125.6,123.8,127.3,117.4,127.7
		 M123.6,154.1c-2.4,7-5.4,13.9-9.1,20.3c-3.6,6.1-9.4,11.5-16.7,12.4c-7.4,0-11.9-6.5-16.9-10.9c1.6,5.1,5.1,9.6,9.9,12.1
		c4.3,1.7,9,0.2,13.2-1c2.1,0.5,3.8,1.9,5.8,2.8c6.2,3.1,13.3,3.2,20.1,2.7c5.1-0.4,9.6-3.1,14-5.5c4.5,1.8,9.7,3.4,14.3,0.9
		c5.5-3.2,9.3-8.8,10.7-15c-4.1,4.6-7.1,10.8-13.2,12.9c-6.8,2.2-13.6-1.9-18.1-6.6C131.6,171.8,128.4,162.5,123.6,154.1z"/>
	<path class="st5" d="M116.9,173.9c2.8-4.7,4.6-9.9,7.1-14.7c2.8,4.3,4.5,9.3,7.2,13.7c2.3,4.1,5.8,7.2,8.5,11.1
		c-8.3,7.3-22.4,7.4-30.2-0.8C112.1,180.2,114.9,177.4,116.9,173.9z"/>
</g>
</svg>
