<?xml version="1.0" encoding="UTF-8" ?>
<!DOCTYPE svg PUBLIC "-//W3C//DTD SVG 1.1//EN" "http://www.w3.org/Graphics/SVG/1.1/DTD/svg11.dtd">
<svg width="250pt" height="249pt" viewBox="0 0 250 249" version="1.1" xmlns="http://www.w3.org/2000/svg">
<g id="#ffffffff">
<path fill="#ffffff" opacity="1.00" d=" M 0.00 0.00 L 250.00 0.00 L 250.00 93.14 C 248.92 92.07 247.85 90.99 246.78 89.92 C 247.89 86.99 249.10 84.08 249.89 81.03 C 239.66 74.66 229.60 68.00 219.46 61.48 C 192.31 43.63 164.93 26.14 137.78 8.29 C 133.84 5.58 129.56 3.33 125.89 0.24 C 124.37 0.77 122.86 1.38 121.51 2.27 C 81.03 28.50 40.76 55.06 0.11 81.03 C 1.03 84.46 2.41 87.73 3.60 91.07 C 2.40 91.50 1.20 91.93 0.00 92.36 L 0.00 0.00 Z" />
<path fill="#ffffff" opacity="1.00" d=" M 0.00 92.96 C 14.08 130.31 28.24 167.64 41.98 205.13 C 43.03 207.74 43.60 211.18 46.69 212.15 C 70.13 222.96 93.28 234.38 116.66 245.30 C 119.04 246.34 121.29 247.62 123.48 249.00 L 0.00 249.00 L 0.00 92.96 Z" />
<path fill="#ffffff" opacity="1.00" d=" M 248.01 97.99 C 248.62 96.48 249.34 95.01 250.00 93.52 L 250.00 249.00 L 125.81 249.00 C 151.83 236.52 177.86 224.05 203.99 211.80 C 206.15 210.98 206.68 208.55 207.47 206.63 C 220.70 170.31 234.57 134.23 248.01 97.99 Z" />
</g>
<g id="#000000ff">
<path fill="#000000" opacity="1.00" d=" M 121.51 2.27 C 122.86 1.38 124.37 0.77 125.89 0.24 C 129.56 3.33 133.84 5.58 137.78 8.29 C 164.93 26.14 192.31 43.63 219.46 61.48 C 229.60 68.00 239.66 74.66 249.89 81.03 C 249.10 84.08 247.89 86.99 246.78 89.92 C 233.65 125.38 220.10 160.67 207.12 196.19 C 206.49 197.77 206.07 199.78 204.23 200.40 C 178.48 212.60 152.64 224.65 126.98 237.05 C 125.66 237.83 124.34 237.83 123.03 237.05 C 97.38 224.66 71.55 212.62 45.81 200.42 C 43.96 199.81 43.50 197.81 42.88 196.20 C 30.02 161.07 16.70 126.11 3.60 91.07 C 2.41 87.73 1.03 84.46 0.11 81.03 C 40.76 55.06 81.03 28.50 121.51 2.27 M 124.37 6.49 C 118.45 10.04 112.95 14.41 106.93 17.71 C 95.07 26.11 82.52 33.47 70.47 41.59 C 53.78 52.19 37.42 63.30 20.70 73.85 C 15.87 76.80 11.40 80.36 6.34 82.92 C 6.56 84.80 7.32 86.54 7.91 88.33 L 8.17 87.43 L 7.95 88.21 C 9.24 91.47 10.41 94.77 11.68 98.04 C 12.96 101.77 14.60 105.36 15.75 109.12 C 16.64 110.68 17.10 112.43 17.66 114.12 C 18.32 114.99 18.68 116.00 18.76 117.14 C 19.59 118.24 19.53 119.73 20.31 120.86 C 20.77 122.31 21.51 123.65 21.83 125.15 C 22.32 126.35 22.76 127.57 23.29 128.76 C 31.46 151.08 40.03 173.27 47.95 195.67 L 49.04 195.16 L 48.36 196.03 C 52.17 197.13 55.37 199.93 59.27 200.62 L 59.10 201.15 C 60.25 201.62 61.33 202.40 62.57 202.58 C 64.78 203.64 66.91 205.45 69.44 205.46 L 69.01 205.73 C 87.66 214.58 106.31 223.43 124.94 232.31 L 124.76 233.26 C 125.25 232.09 125.89 231.06 127.35 231.53 L 127.31 230.83 C 132.28 229.35 136.62 226.32 141.42 224.40 C 156.65 217.32 171.73 209.93 187.05 203.04 L 186.71 202.17 L 187.75 202.86 C 188.70 202.14 189.75 201.58 190.88 201.18 L 190.78 200.29 L 191.99 200.88 C 194.78 198.68 198.34 197.47 201.61 196.09 L 201.51 194.52 C 201.75 194.57 202.23 194.68 202.47 194.73 C 202.61 192.72 203.53 190.91 204.35 189.11 C 211.27 170.46 218.07 151.76 225.15 133.16 C 225.64 131.71 226.14 130.26 226.67 128.83 C 227.41 127.71 227.45 126.29 228.20 125.17 C 228.29 123.61 229.54 122.44 229.53 120.88 C 230.28 120.03 230.67 119.01 230.71 117.80 C 231.92 116.91 231.18 115.04 232.39 114.14 C 232.59 112.56 233.61 111.23 233.70 109.62 C 233.87 109.54 234.21 109.39 234.38 109.31 C 234.30 108.03 234.66 106.98 235.45 106.15 C 235.82 104.67 236.41 103.26 236.86 101.81 C 239.14 95.52 241.98 89.36 243.66 82.88 C 243.21 82.69 242.33 82.32 241.89 82.13 C 228.44 73.27 214.77 64.75 201.40 55.76 C 179.54 41.57 157.71 27.32 135.77 13.24 C 134.82 12.55 133.89 11.84 132.97 11.10 L 132.21 11.70 L 132.61 10.92 C 130.45 9.75 128.51 8.20 126.27 7.18 C 126.28 6.99 126.31 6.62 126.32 6.44 C 125.83 6.45 124.86 6.48 124.37 6.49 Z" />
</g>
<g id="#ffafffff">
<path fill="#ffafff" opacity="1.00" d=" M 124.37 6.49 C 124.86 6.48 125.83 6.45 126.32 6.44 C 126.31 6.62 126.28 6.99 126.27 7.18 C 125.76 20.14 125.61 33.13 125.92 46.10 C 125.78 47.50 126.56 48.61 127.52 49.52 C 126.40 50.77 125.29 52.04 124.11 53.23 C 118.69 56.69 113.46 60.42 108.06 63.92 C 90.37 75.37 73.07 87.42 55.46 99.01 C 56.99 102.89 58.50 106.79 59.90 110.72 C 66.16 128.00 72.53 145.23 78.66 162.54 C 79.36 164.38 79.79 166.64 81.81 167.49 C 81.33 167.74 80.37 168.24 79.89 168.49 C 79.80 168.85 79.63 169.58 79.54 169.95 C 78.81 169.59 78.10 169.23 77.39 168.85 C 74.83 165.55 73.61 161.49 72.10 157.66 C 66.60 142.45 61.08 127.26 55.18 112.20 C 53.74 108.49 52.21 104.79 51.07 100.97 C 50.12 98.48 51.52 95.80 53.78 94.63 C 62.23 89.17 70.41 83.27 79.06 78.12 C 94.31 68.29 109.17 57.87 124.47 48.12 C 124.80 34.42 123.85 20.63 125.46 6.99 C 120.54 8.74 116.59 12.36 112.16 15.04 C 97.20 25.54 81.67 35.18 66.44 45.28 C 50.89 55.89 35.04 66.03 19.20 76.19 C 16.53 77.88 13.83 79.52 11.37 81.52 C 9.94 83.26 8.71 85.21 8.17 87.43 L 7.91 88.33 C 7.32 86.54 6.56 84.80 6.34 82.92 C 11.40 80.36 15.87 76.80 20.70 73.85 C 37.42 63.30 53.78 52.19 70.47 41.59 C 82.52 33.47 95.07 26.11 106.93 17.71 C 112.95 14.41 118.45 10.04 124.37 6.49 Z" />
</g>
<g id="#d71cffff">
<path fill="#d71cff" opacity="1.00" d=" M 112.16 15.04 C 116.59 12.36 120.54 8.74 125.46 6.99 C 123.85 20.63 124.80 34.42 124.47 48.12 C 109.17 57.87 94.31 68.29 79.06 78.12 C 70.41 83.27 62.23 89.17 53.78 94.63 C 51.52 95.80 50.12 98.48 51.07 100.97 C 50.40 99.44 50.02 97.36 48.19 96.82 C 40.52 94.06 33.32 90.15 25.63 87.43 C 20.89 85.42 15.66 84.50 11.37 81.52 C 13.83 79.52 16.53 77.88 19.20 76.19 C 35.04 66.03 50.89 55.89 66.44 45.28 C 81.67 35.18 97.20 25.54 112.16 15.04 Z" />
</g>
<g id="#ffddffff">
<path fill="#ffddff" opacity="1.00" d=" M 125.92 46.10 C 125.61 33.13 125.76 20.14 126.27 7.18 C 128.51 8.20 130.45 9.75 132.61 10.92 L 132.21 11.70 C 130.99 13.67 130.29 15.96 130.58 18.29 C 131.41 26.55 131.71 34.93 133.90 42.98 C 135.15 47.57 135.72 53.11 140.01 56.00 C 146.75 60.61 153.63 65.00 160.39 69.58 C 163.33 71.58 166.30 73.91 169.98 74.21 C 177.18 75.44 184.56 72.66 190.11 68.13 C 194.50 64.63 198.10 60.28 201.40 55.76 C 214.77 64.75 228.44 73.27 241.89 82.13 C 242.33 82.32 243.21 82.69 243.66 82.88 C 241.98 89.36 239.14 95.52 236.86 101.81 C 236.41 103.26 235.82 104.67 235.45 106.15 C 234.66 106.98 234.30 108.03 234.38 109.31 C 234.21 109.39 233.87 109.54 233.70 109.62 C 233.61 111.23 232.59 112.56 232.39 114.14 C 231.18 115.04 231.92 116.91 230.71 117.80 C 230.67 119.01 230.28 120.03 229.53 120.88 C 229.54 122.44 228.29 123.61 228.20 125.17 C 227.45 126.29 227.41 127.71 226.67 128.83 C 226.14 130.26 225.64 131.71 225.15 133.16 C 218.07 151.76 211.27 170.46 204.35 189.11 C 203.53 190.91 202.61 192.72 202.47 194.73 C 202.23 194.68 201.75 194.57 201.51 194.52 C 200.72 194.08 199.93 193.65 199.15 193.21 C 201.52 189.79 202.58 185.74 204.06 181.91 C 215.12 153.91 225.78 125.75 237.02 97.82 C 238.45 93.92 240.93 90.21 240.75 85.90 C 227.71 89.72 214.52 93.05 201.44 96.75 C 199.42 97.31 199.03 99.68 198.23 101.33 C 189.86 123.64 181.28 145.88 173.22 168.30 C 171.71 169.45 170.13 170.53 168.40 171.32 C 154.80 177.66 141.21 184.05 127.86 190.92 C 126.80 191.39 125.68 191.69 124.57 192.03 C 109.64 184.51 94.57 177.25 79.54 169.95 C 79.63 169.58 79.80 168.85 79.89 168.49 C 80.37 168.24 81.33 167.74 81.81 167.49 C 96.55 174.22 110.97 181.67 125.74 188.33 C 126.26 188.08 127.29 187.59 127.81 187.34 C 139.74 181.50 151.71 175.77 163.68 170.04 C 165.12 169.35 166.57 168.69 168.01 168.01 C 169.27 167.34 170.91 166.84 171.28 165.26 C 177.16 149.11 183.07 132.97 188.90 116.80 C 190.31 112.90 191.75 109.00 193.21 105.11 C 193.94 103.02 194.73 100.96 195.59 98.92 C 195.25 98.71 194.56 98.28 194.22 98.06 C 194.96 97.92 196.43 97.63 197.17 97.48 C 195.99 95.48 194.40 93.76 192.41 92.55 C 170.76 78.23 149.21 63.77 127.52 49.52 C 126.56 48.61 125.78 47.50 125.92 46.10 Z" />
</g>
<g id="#ffedffff">
<path fill="#ffedff" opacity="1.00" d=" M 130.58 18.29 C 130.29 15.96 130.99 13.67 132.21 11.70 L 132.97 11.10 C 133.89 11.84 134.82 12.55 135.77 13.24 C 157.71 27.32 179.54 41.57 201.40 55.76 C 198.10 60.28 194.50 64.63 190.11 68.13 C 184.56 72.66 177.18 75.44 169.98 74.21 C 166.30 73.91 163.33 71.58 160.39 69.58 C 153.63 65.00 146.75 60.61 140.01 56.00 C 135.72 53.11 135.15 47.57 133.90 42.98 C 131.71 34.93 131.41 26.55 130.58 18.29 Z" />
</g>
<g id="#f772f8ff">
<path fill="#f772f8" opacity="1.00" d=" M 124.11 53.23 C 125.29 52.04 126.40 50.77 127.52 49.52 C 149.21 63.77 170.76 78.23 192.41 92.55 C 194.40 93.76 195.99 95.48 197.17 97.48 C 196.43 97.63 194.96 97.92 194.22 98.06 C 171.57 82.76 148.49 68.06 125.96 52.58 C 125.50 52.74 124.57 53.06 124.11 53.23 Z" />
</g>
<g id="#610f90ff">
<path fill="#610f90" opacity="1.00" d=" M 108.06 63.92 C 113.46 60.42 118.69 56.69 124.11 53.23 C 124.57 53.06 125.50 52.74 125.96 52.58 C 148.49 68.06 171.57 82.76 194.22 98.06 C 194.56 98.28 195.25 98.71 195.59 98.92 C 194.73 100.96 193.94 103.02 193.21 105.11 C 192.33 102.74 191.27 100.27 189.01 98.91 C 170.74 87.75 153.13 75.53 135.51 63.37 C 131.09 60.10 125.21 58.73 119.94 60.65 C 115.93 61.63 112.43 65.40 108.06 63.92 Z" />
</g>
<g id="#74109fff">
<path fill="#74109f" opacity="1.00" d=" M 119.94 60.65 C 125.21 58.73 131.09 60.10 135.51 63.37 C 153.13 75.53 170.74 87.75 189.01 98.91 C 191.27 100.27 192.33 102.74 193.21 105.11 C 191.75 109.00 190.31 112.90 188.90 116.80 C 186.72 111.68 193.08 105.93 188.58 101.49 C 183.14 96.63 176.20 93.89 170.24 89.74 C 159.59 82.34 148.44 75.68 137.97 68.02 C 133.90 65.08 129.41 61.63 124.07 62.24 C 117.98 62.87 113.00 66.87 107.82 69.78 C 96.94 75.96 86.72 83.21 76.65 90.62 C 72.62 93.58 68.22 96.09 64.61 99.60 C 61.57 102.51 61.14 106.92 59.90 110.72 C 58.50 106.79 56.99 102.89 55.46 99.01 C 73.07 87.42 90.37 75.37 108.06 63.92 C 112.43 65.40 115.93 61.63 119.94 60.65 Z" />
</g>
<g id="#8d0eb2ff">
<path fill="#8d0eb2" opacity="1.00" d=" M 107.82 69.78 C 113.00 66.87 117.98 62.87 124.07 62.24 C 129.41 61.63 133.90 65.08 137.97 68.02 C 148.44 75.68 159.59 82.34 170.24 89.74 C 176.20 93.89 183.14 96.63 188.58 101.49 C 193.08 105.93 186.72 111.68 188.90 116.80 C 183.07 132.97 177.16 149.11 171.28 165.26 C 170.91 166.84 169.27 167.34 168.01 168.01 C 165.91 166.71 167.25 164.56 167.83 162.84 C 171.96 152.63 175.66 142.23 178.75 131.66 C 180.78 124.75 183.42 118.01 185.11 111.01 C 186.11 107.76 184.40 104.21 181.75 102.29 C 178.79 100.15 175.52 98.47 172.50 96.41 C 165.53 91.83 159.74 85.66 152.46 81.54 C 145.08 76.91 137.93 71.90 130.31 67.65 C 126.27 65.33 121.28 66.41 117.37 68.45 C 110.36 72.31 103.18 75.90 96.64 80.55 C 91.73 83.48 87.89 87.77 83.39 91.23 C 78.00 94.81 72.62 98.49 67.79 102.81 C 64.47 105.52 65.11 110.22 66.24 113.85 C 69.30 123.32 72.04 132.91 75.91 142.10 C 79.61 150.93 83.15 160.16 89.80 167.26 C 90.98 168.57 92.66 169.22 94.20 170.00 C 105.31 175.96 116.88 181.05 127.81 187.34 C 127.29 187.59 126.26 188.08 125.74 188.33 C 110.97 181.67 96.55 174.22 81.81 167.49 C 79.79 166.64 79.36 164.38 78.66 162.54 C 72.53 145.23 66.16 128.00 59.90 110.72 C 61.14 106.92 61.57 102.51 64.61 99.60 C 68.22 96.09 72.62 93.58 76.65 90.62 C 86.72 83.21 96.94 75.96 107.82 69.78 Z" />
</g>
<g id="#a721c7ff">
<path fill="#a721c7" opacity="1.00" d=" M 117.37 68.45 C 121.28 66.41 126.27 65.33 130.31 67.65 C 137.93 71.90 145.08 76.91 152.46 81.54 C 159.74 85.66 165.53 91.83 172.50 96.41 C 170.84 96.90 168.99 97.92 167.36 96.75 C 162.77 94.29 158.85 90.71 153.95 88.82 C 147.34 84.62 140.50 80.47 132.88 78.41 C 123.14 76.58 112.64 78.04 104.01 83.02 C 101.35 84.51 98.82 86.20 96.27 87.87 C 90.55 88.68 87.31 93.72 82.94 96.87 C 82.06 96.46 81.18 96.05 80.30 95.65 C 81.30 94.15 82.29 92.66 83.39 91.23 C 87.89 87.77 91.73 83.48 96.64 80.55 C 103.18 75.90 110.36 72.31 117.37 68.45 Z" />
</g>
<g id="#b933d1ff">
<path fill="#b933d1" opacity="1.00" d=" M 104.01 83.02 C 112.64 78.04 123.14 76.58 132.88 78.41 C 140.50 80.47 147.34 84.62 153.95 88.82 C 158.58 94.14 163.07 99.67 165.88 106.20 C 152.14 97.37 138.95 87.65 125.01 79.15 C 121.58 79.66 119.01 82.30 116.10 83.98 C 104.63 91.31 93.64 99.37 82.14 106.66 C 85.49 99.40 91.70 94.25 96.27 87.87 C 98.82 86.20 101.35 84.51 104.01 83.02 Z" />
</g>
<g id="#f1aefdff">
<path fill="#f1aefd" opacity="1.00" d=" M 116.10 83.98 C 119.01 82.30 121.58 79.66 125.01 79.15 C 138.95 87.65 152.14 97.37 165.88 106.20 C 167.04 107.03 168.21 107.86 169.32 108.76 C 169.35 109.34 169.41 110.49 169.44 111.06 C 166.31 109.93 163.70 107.86 160.99 106.01 C 154.94 102.13 148.64 98.62 142.84 94.37 C 140.96 92.74 138.96 91.23 136.70 90.16 C 132.71 87.29 128.66 84.48 124.16 82.46 C 119.74 84.79 115.46 87.42 111.40 90.34 C 110.49 90.96 109.57 91.55 108.63 92.13 C 98.67 98.19 89.09 104.93 78.58 110.05 C 78.58 109.83 78.58 109.39 78.58 109.17 C 79.74 108.29 80.95 107.49 82.14 106.66 C 93.64 99.37 104.63 91.31 116.10 83.98 Z" />
</g>
<g id="#dc5bfeff">
<path fill="#dc5bfe" opacity="1.00" d=" M 8.17 87.43 C 8.71 85.21 9.94 83.26 11.37 81.52 C 15.66 84.50 20.89 85.42 25.63 87.43 C 33.32 90.15 40.52 94.06 48.19 96.82 C 42.04 95.19 35.68 94.40 29.65 92.29 C 22.91 90.37 16.44 87.66 9.78 85.50 C 10.19 86.98 10.60 88.46 11.13 89.91 C 10.08 89.33 9.02 88.76 7.95 88.21 L 8.17 87.43 Z" />
</g>
<g id="#e362feff">
<path fill="#e362fe" opacity="1.00" d=" M 124.16 82.46 C 128.66 84.48 132.71 87.29 136.70 90.16 C 128.28 90.63 119.83 90.49 111.40 90.34 C 115.46 87.42 119.74 84.79 124.16 82.46 Z" />
</g>
<g id="#ba1dfeff">
<path fill="#ba1dfe" opacity="1.00" d=" M 9.78 85.50 C 16.44 87.66 22.91 90.37 29.65 92.29 C 35.68 94.40 42.04 95.19 48.19 96.82 C 50.02 97.36 50.40 99.44 51.07 100.97 C 52.21 104.79 53.74 108.49 55.18 112.20 C 51.86 113.39 48.37 114.02 45.02 115.09 C 41.23 116.60 38.25 119.50 34.71 121.46 C 32.54 119.59 30.68 117.04 27.83 116.20 C 25.98 116.36 24.22 117.02 22.46 117.56 C 18.77 108.32 15.88 98.67 11.13 89.91 C 10.60 88.46 10.19 86.98 9.78 85.50 Z" />
</g>
<g id="#f76ef8ff">
<path fill="#f76ef8" opacity="1.00" d=" M 201.44 96.75 C 214.52 93.05 227.71 89.72 240.75 85.90 C 240.93 90.21 238.45 93.92 237.02 97.82 C 225.78 125.75 215.12 153.91 204.06 181.91 C 202.58 185.74 201.52 189.79 199.15 193.21 L 198.11 193.24 C 190.56 185.99 182.49 179.29 175.15 171.81 C 174.11 170.89 173.67 169.56 173.22 168.30 C 181.28 145.88 189.86 123.64 198.23 101.33 C 199.03 99.68 199.42 97.31 201.44 96.75 Z" />
</g>
<g id="#ac17c9ff">
<path fill="#ac17c9" opacity="1.00" d=" M 82.94 96.87 C 87.31 93.72 90.55 88.68 96.27 87.87 C 91.70 94.25 85.49 99.40 82.14 106.66 C 80.95 107.49 79.74 108.29 78.58 109.17 C 78.58 109.39 78.58 109.83 78.58 110.05 L 78.58 110.16 C 78.62 111.87 78.66 113.59 78.72 115.31 C 75.32 125.53 79.37 136.10 82.99 145.65 C 83.51 151.30 87.05 155.92 89.74 160.70 C 89.31 161.54 88.88 162.39 88.45 163.23 C 90.28 165.56 92.18 167.84 94.20 170.00 C 92.66 169.22 90.98 168.57 89.80 167.26 C 83.15 160.16 79.61 150.93 75.91 142.10 C 72.04 132.91 69.30 123.32 66.24 113.85 C 65.11 110.22 64.47 105.52 67.79 102.81 C 72.62 98.49 78.00 94.81 83.39 91.23 C 82.29 92.66 81.30 94.15 80.30 95.65 C 81.18 96.05 82.06 96.46 82.94 96.87 Z" />
</g>
<g id="#ff89ffff">
<path fill="#ff89ff" opacity="1.00" d=" M 7.95 88.21 C 9.02 88.76 10.08 89.33 11.13 89.91 C 15.88 98.67 18.77 108.32 22.46 117.56 C 26.66 129.50 31.40 141.24 35.70 153.15 C 39.14 161.78 41.86 170.71 45.97 179.07 C 47.91 182.89 48.79 187.15 50.79 190.96 C 56.10 186.55 61.21 181.87 66.94 178.00 C 62.08 182.37 57.74 187.27 53.40 192.15 C 56.18 194.19 59.03 196.15 61.95 198.01 C 61.57 197.80 60.81 197.37 60.43 197.16 C 57.97 195.84 55.63 194.27 53.03 193.25 C 51.62 193.72 50.34 194.47 49.04 195.16 L 47.95 195.67 C 40.03 173.27 31.46 151.08 23.29 128.76 C 22.76 127.57 22.32 126.35 21.83 125.15 C 21.51 123.65 20.77 122.31 20.31 120.86 C 19.53 119.73 19.59 118.24 18.76 117.14 C 18.68 116.00 18.32 114.99 17.66 114.12 C 17.10 112.43 16.64 110.68 15.75 109.12 C 14.60 105.36 12.96 101.77 11.68 98.04 C 10.41 94.77 9.24 91.47 7.95 88.21 Z" />
</g>
<g id="#ae14cbff">
<path fill="#ae14cb" opacity="1.00" d=" M 153.95 88.82 C 158.85 90.71 162.77 94.29 167.36 96.75 C 168.99 97.92 170.84 96.90 172.50 96.41 C 175.52 98.47 178.79 100.15 181.75 102.29 C 184.40 104.21 186.11 107.76 185.11 111.01 C 183.42 118.01 180.78 124.75 178.75 131.66 C 175.66 142.23 171.96 152.63 167.83 162.84 C 167.25 164.56 165.91 166.71 168.01 168.01 C 166.57 168.69 165.12 169.35 163.68 170.04 C 163.53 164.97 166.37 160.58 167.81 155.89 C 169.30 151.11 171.89 146.44 171.31 141.27 C 172.21 136.99 174.15 132.87 174.06 128.43 C 173.80 125.30 173.09 122.23 172.68 119.13 C 172.27 119.94 171.88 120.75 171.48 121.56 C 170.89 119.74 170.29 117.91 169.69 116.09 C 170.44 114.14 171.07 112.13 171.72 110.14 C 170.95 111.28 170.19 112.42 169.46 113.59 C 169.46 112.96 169.45 111.69 169.44 111.06 C 169.41 110.49 169.35 109.34 169.32 108.76 C 168.21 107.86 167.04 107.03 165.88 106.20 C 163.07 99.67 158.58 94.14 153.95 88.82 Z" />
</g>
<g id="#b354d4ff">
<path fill="#b354d4" opacity="1.00" d=" M 108.63 92.13 C 109.57 91.55 110.49 90.96 111.40 90.34 C 119.83 90.49 128.28 90.63 136.70 90.16 C 138.96 91.23 140.96 92.74 142.84 94.37 C 142.75 96.36 142.71 98.36 142.58 100.35 C 139.92 112.66 138.41 125.17 136.04 137.53 C 140.05 137.82 144.07 137.77 148.09 137.73 C 149.44 139.05 151.68 139.95 151.82 142.08 C 152.28 146.75 150.87 151.43 151.73 156.10 C 150.40 156.78 149.02 157.34 147.66 157.95 C 149.65 153.15 150.91 147.95 150.55 142.72 C 150.25 142.46 149.65 141.93 149.35 141.66 C 149.27 141.60 149.12 141.47 149.05 141.41 C 148.55 140.97 147.55 140.09 147.05 139.66 C 143.37 139.16 139.59 139.86 135.94 139.14 C 135.56 138.66 134.79 137.72 134.41 137.24 C 137.44 125.31 138.26 112.99 140.85 100.97 C 141.88 97.82 141.23 93.54 137.77 92.26 C 133.28 91.19 128.60 91.94 124.03 91.74 C 120.18 91.91 116.08 91.11 112.44 92.65 C 109.04 94.83 109.23 99.33 108.50 102.83 C 106.53 113.88 105.50 125.14 102.70 136.02 C 102.56 135.48 102.29 134.39 102.15 133.84 C 103.57 123.93 105.42 114.08 106.74 104.14 C 107.46 100.15 108.23 96.17 108.63 92.13 Z" />
</g>
<g id="#c9c9c9ff">
<path fill="#c9c9c9" opacity="1.00" d=" M 207.12 196.19 C 220.10 160.67 233.65 125.38 246.78 89.92 C 247.85 90.99 248.92 92.07 250.00 93.14 L 250.00 93.52 C 249.34 95.01 248.62 96.48 248.01 97.99 C 234.57 134.23 220.70 170.31 207.47 206.63 C 206.68 208.55 206.15 210.98 203.99 211.80 C 177.86 224.05 151.83 236.52 125.81 249.00 L 123.48 249.00 C 121.29 247.62 119.04 246.34 116.66 245.30 C 93.28 234.38 70.13 222.96 46.69 212.15 C 43.60 211.18 43.03 207.74 41.98 205.13 C 28.24 167.64 14.08 130.31 0.00 92.96 L 0.00 92.36 C 1.20 91.93 2.40 91.50 3.60 91.07 C 16.70 126.11 30.02 161.07 42.88 196.20 C 43.50 197.81 43.96 199.81 45.81 200.42 C 71.55 212.62 97.38 224.66 123.03 237.05 C 124.34 237.83 125.66 237.83 126.98 237.05 C 152.64 224.65 178.48 212.60 204.23 200.40 C 206.07 199.78 206.49 197.77 207.12 196.19 Z" />
</g>
<g id="#641a95ff">
<path fill="#641a95" opacity="1.00" d=" M 112.44 92.65 C 116.08 91.11 120.18 91.91 124.03 91.74 C 128.60 91.94 133.28 91.19 137.77 92.26 C 141.23 93.54 141.88 97.82 140.85 100.97 C 138.26 112.99 137.44 125.31 134.41 137.24 C 134.79 137.72 135.56 138.66 135.94 139.14 C 139.59 139.86 143.37 139.16 147.05 139.66 C 147.55 140.09 148.55 140.97 149.05 141.41 C 143.42 141.42 137.79 141.42 132.15 141.33 C 132.46 134.80 134.81 128.62 135.45 122.13 C 136.51 112.93 138.58 103.90 139.78 94.73 C 137.79 93.31 135.26 93.87 132.98 93.78 C 126.08 93.75 119.17 93.97 112.27 93.62 C 108.24 113.98 105.52 134.63 102.01 155.10 C 101.39 152.93 100.79 150.77 100.36 148.56 C 101.26 144.41 102.01 140.22 102.70 136.02 C 105.50 125.14 106.53 113.88 108.50 102.83 C 109.23 99.33 109.04 94.83 112.44 92.65 Z" />
<path fill="#641a95" opacity="1.00" d=" M 169.46 113.59 C 170.19 112.42 170.95 111.28 171.72 110.14 C 171.07 112.13 170.44 114.14 169.69 116.09 C 164.27 128.73 160.37 141.93 156.08 154.97 C 153.31 156.55 150.55 158.16 147.67 159.53 C 145.64 158.63 143.57 157.82 141.43 157.23 C 143.30 156.83 145.18 156.51 147.08 156.27 C 147.43 151.34 148.39 146.50 149.35 141.66 C 149.65 141.93 150.25 142.46 150.55 142.72 C 150.91 147.95 149.65 153.15 147.66 157.95 C 149.02 157.34 150.40 156.78 151.73 156.10 C 152.90 155.20 154.59 154.65 155.17 153.16 C 160.32 140.12 164.61 126.75 169.46 113.59 Z" />
</g>
<g id="#e469feff">
<path fill="#e469fe" opacity="1.00" d=" M 78.58 110.05 C 89.09 104.93 98.67 98.19 108.63 92.13 C 108.23 96.17 107.46 100.15 106.74 104.14 C 106.45 103.62 105.85 102.59 105.56 102.07 C 94.30 110.29 90.84 127.74 99.22 139.16 C 100.24 137.41 101.25 135.65 102.15 133.84 C 102.29 134.39 102.56 135.48 102.70 136.02 C 102.01 140.22 101.26 144.41 100.36 148.56 C 99.96 150.26 99.54 151.95 99.14 153.65 C 98.02 153.58 96.90 153.50 95.78 153.43 C 94.64 151.42 93.57 149.35 92.79 147.17 C 89.35 137.94 85.91 128.71 82.71 119.39 C 81.58 116.21 80.82 112.79 78.58 110.16 L 78.58 110.05 Z" />
</g>
<g id="#ffe3ffff">
<path fill="#ffe3ff" opacity="1.00" d=" M 102.01 155.10 C 105.52 134.63 108.24 113.98 112.27 93.62 C 119.17 93.97 126.08 93.75 132.98 93.78 C 135.26 93.87 137.79 93.31 139.78 94.73 C 138.58 103.90 136.51 112.93 135.45 122.13 C 134.81 128.62 132.46 134.80 132.15 141.33 C 137.79 141.42 143.42 141.42 149.05 141.41 C 149.12 141.47 149.27 141.60 149.35 141.66 C 148.39 146.50 147.43 151.34 147.08 156.27 C 145.18 156.51 143.30 156.83 141.43 157.23 C 128.47 157.44 115.50 157.33 102.53 157.28 C 102.36 156.55 102.18 155.82 102.01 155.10 Z" />
</g>
<g id="#e261feff">
<path fill="#e261fe" opacity="1.00" d=" M 142.84 94.37 C 148.64 98.62 154.94 102.13 160.99 106.01 C 163.70 107.86 166.31 109.93 169.44 111.06 C 169.45 111.69 169.46 112.96 169.46 113.59 C 164.61 126.75 160.32 140.12 155.17 153.16 C 154.59 154.65 152.90 155.20 151.73 156.10 C 150.87 151.43 152.28 146.75 151.82 142.08 C 151.68 139.95 149.44 139.05 148.09 137.73 C 151.97 137.27 152.75 132.75 153.43 129.62 C 153.88 124.23 154.30 118.57 152.49 113.38 C 150.50 108.24 147.47 103.19 142.58 100.35 C 142.71 98.36 142.75 96.36 142.84 94.37 Z" />
</g>
<g id="#e983feff">
<path fill="#e983fe" opacity="1.00" d=" M 142.58 100.35 C 147.47 103.19 150.50 108.24 152.49 113.38 C 154.30 118.57 153.88 124.23 153.43 129.62 C 152.75 132.75 151.97 137.27 148.09 137.73 C 144.07 137.77 140.05 137.82 136.04 137.53 C 138.41 125.17 139.92 112.66 142.58 100.35 Z" />
</g>
<g id="#e986feff">
<path fill="#e986fe" opacity="1.00" d=" M 99.22 139.16 C 90.84 127.74 94.30 110.29 105.56 102.07 C 105.85 102.59 106.45 103.62 106.74 104.14 C 105.42 114.08 103.57 123.93 102.15 133.84 C 101.25 135.65 100.24 137.41 99.22 139.16 Z" />
</g>
<g id="#912cb4ff">
<path fill="#912cb4" opacity="1.00" d=" M 78.72 115.31 C 78.66 113.59 78.62 111.87 78.58 110.16 C 80.82 112.79 81.58 116.21 82.71 119.39 C 85.91 128.71 89.35 137.94 92.79 147.17 C 93.57 149.35 94.64 151.42 95.78 153.43 C 96.90 153.50 98.02 153.58 99.14 153.65 C 99.54 151.95 99.96 150.26 100.36 148.56 C 100.79 150.77 101.39 152.93 102.01 155.10 C 102.18 155.82 102.36 156.55 102.53 157.28 C 102.20 157.73 101.53 158.62 101.19 159.07 C 103.68 161.18 107.13 160.28 110.11 160.51 C 113.77 162.88 117.90 164.37 121.76 166.35 C 123.48 167.08 125.42 168.23 127.33 167.43 C 132.19 165.41 136.85 162.94 141.48 160.43 C 142.81 160.43 144.14 160.53 145.48 160.58 C 140.33 163.98 134.52 166.12 129.08 168.98 C 127.41 169.61 125.63 171.08 123.78 170.26 C 121.89 169.59 120.10 168.66 118.29 167.82 C 110.52 162.82 101.06 161.03 93.85 155.16 C 91.84 151.56 90.99 147.45 89.50 143.62 C 86.02 134.14 82.87 124.53 78.72 115.31 Z" />
</g>
<g id="#c321ffff">
<path fill="#c321ff" opacity="1.00" d=" M 45.02 115.09 C 48.37 114.02 51.86 113.39 55.18 112.20 C 61.08 127.26 66.60 142.45 72.10 157.66 C 73.61 161.49 74.83 165.55 77.39 168.85 C 74.03 172.04 70.77 175.37 66.94 178.00 C 61.21 181.87 56.10 186.55 50.79 190.96 C 48.79 187.15 47.91 182.89 45.97 179.07 C 41.86 170.71 39.14 161.78 35.70 153.15 C 31.40 141.24 26.66 129.50 22.46 117.56 C 24.22 117.02 25.98 116.36 27.83 116.20 C 30.68 117.04 32.54 119.59 34.71 121.46 C 38.25 119.50 41.23 116.60 45.02 115.09 Z" />
</g>
<g id="#be28d2ff">
<path fill="#be28d2" opacity="1.00" d=" M 82.99 145.65 C 79.37 136.10 75.32 125.53 78.72 115.31 C 82.87 124.53 86.02 134.14 89.50 143.62 C 90.99 147.45 91.84 151.56 93.85 155.16 C 101.06 161.03 110.52 162.82 118.29 167.82 C 110.86 168.31 104.32 164.32 98.00 161.02 C 91.46 157.59 87.76 150.98 82.99 145.65 Z" />
</g>
<g id="#bb1ad0ff">
<path fill="#bb1ad0" opacity="1.00" d=" M 169.69 116.09 C 170.29 117.91 170.89 119.74 171.48 121.56 C 171.88 120.75 172.27 119.94 172.68 119.13 C 173.09 122.23 173.80 125.30 174.06 128.43 C 174.15 132.87 172.21 136.99 171.31 141.27 C 167.79 149.47 162.73 157.18 155.37 162.41 C 142.41 173.27 123.81 175.88 107.85 171.08 C 101.10 169.03 95.56 164.51 89.74 160.70 C 87.05 155.92 83.51 151.30 82.99 145.65 C 87.76 150.98 91.46 157.59 98.00 161.02 C 104.32 164.32 110.86 168.31 118.29 167.82 C 120.10 168.66 121.89 169.59 123.78 170.26 C 125.63 171.08 127.41 169.61 129.08 168.98 C 134.52 166.12 140.33 163.98 145.48 160.58 C 146.03 160.32 147.12 159.79 147.67 159.53 C 150.55 158.16 153.31 156.55 156.08 154.97 C 160.37 141.93 164.27 128.73 169.69 116.09 Z" />
</g>
<g id="#b60bcdff">
<path fill="#b60bcd" opacity="1.00" d=" M 155.37 162.41 C 162.73 157.18 167.79 149.47 171.31 141.27 C 171.89 146.44 169.30 151.11 167.81 155.89 C 166.37 160.58 163.53 164.97 163.68 170.04 C 151.71 175.77 139.74 181.50 127.81 187.34 C 116.88 181.05 105.31 175.96 94.20 170.00 C 92.18 167.84 90.28 165.56 88.45 163.23 C 88.88 162.39 89.31 161.54 89.74 160.70 C 95.56 164.51 101.10 169.03 107.85 171.08 C 123.81 175.88 142.41 173.27 155.37 162.41 Z" />
</g>
<g id="#500780ff">
<path fill="#500780" opacity="1.00" d=" M 102.53 157.28 C 115.50 157.33 128.47 157.44 141.43 157.23 C 143.57 157.82 145.64 158.63 147.67 159.53 C 147.12 159.79 146.03 160.32 145.48 160.58 C 144.14 160.53 142.81 160.43 141.48 160.43 C 131.02 160.49 120.57 160.35 110.11 160.51 C 107.13 160.28 103.68 161.18 101.19 159.07 C 101.53 158.62 102.20 157.73 102.53 157.28 Z" />
</g>
<g id="#e158feff">
<path fill="#e158fe" opacity="1.00" d=" M 110.11 160.51 C 120.57 160.35 131.02 160.49 141.48 160.43 C 136.85 162.94 132.19 165.41 127.33 167.43 C 125.42 168.23 123.48 167.08 121.76 166.35 C 117.90 164.37 113.77 162.88 110.11 160.51 Z" />
</g>
<g id="#ff7bfcff">
<path fill="#ff7bfc" opacity="1.00" d=" M 168.40 171.32 C 170.13 170.53 171.71 169.45 173.22 168.30 C 173.67 169.56 174.11 170.89 175.15 171.81 C 182.49 179.29 190.56 185.99 198.11 193.24 C 195.49 194.79 193.02 196.58 190.58 198.40 C 188.37 198.04 186.20 198.49 184.31 199.67 C 165.60 209.44 146.06 217.49 127.15 226.85 C 127.07 218.20 126.64 209.56 126.52 200.91 C 126.08 204.07 125.64 207.23 125.21 210.40 C 123.80 204.30 126.11 198.06 124.57 192.03 C 125.68 191.69 126.80 191.39 127.86 190.92 C 141.21 184.05 154.80 177.66 168.40 171.32 Z" />
</g>
<g id="#f433f6ff">
<path fill="#f433f6" opacity="1.00" d=" M 77.39 168.85 C 78.10 169.23 78.81 169.59 79.54 169.95 C 94.57 177.25 109.64 184.51 124.57 192.03 C 126.11 198.06 123.80 204.30 125.21 210.40 C 124.60 216.21 124.58 222.07 125.28 227.87 C 107.44 220.22 89.95 211.74 72.33 203.58 C 70.32 202.60 68.30 201.64 66.33 200.58 C 64.85 199.75 63.40 198.87 61.95 198.01 C 59.03 196.15 56.18 194.19 53.40 192.15 C 57.74 187.27 62.08 182.37 66.94 178.00 C 70.77 175.37 74.03 172.04 77.39 168.85 Z" />
</g>
<g id="#faa5faff">
<path fill="#faa5fa" opacity="1.00" d=" M 198.11 193.24 L 199.15 193.21 C 199.93 193.65 200.72 194.08 201.51 194.52 L 201.61 196.09 C 198.34 197.47 194.78 198.68 191.99 200.88 L 190.78 200.29 C 190.73 199.81 190.63 198.87 190.58 198.40 C 193.02 196.58 195.49 194.79 198.11 193.24 Z" />
<path fill="#faa5fa" opacity="1.00" d=" M 126.52 200.91 C 126.64 209.56 127.07 218.20 127.15 226.85 C 127.18 228.17 127.24 229.50 127.31 230.83 L 127.35 231.53 C 125.89 231.06 125.25 232.09 124.76 233.26 L 124.94 232.31 C 125.21 230.84 125.30 229.35 125.28 227.87 C 124.58 222.07 124.60 216.21 125.21 210.40 C 125.64 207.23 126.08 204.07 126.52 200.91 Z" />
</g>
<g id="#d559d5ff">
<path fill="#d559d5" opacity="1.00" d=" M 49.04 195.16 C 50.34 194.47 51.62 193.72 53.03 193.25 C 55.63 194.27 57.97 195.84 60.43 197.16 C 60.14 198.02 59.56 199.75 59.27 200.62 C 55.37 199.93 52.17 197.13 48.36 196.03 L 49.04 195.16 Z" />
</g>
<g id="#c247c3ff">
<path fill="#c247c3" opacity="1.00" d=" M 60.43 197.16 C 60.81 197.37 61.57 197.80 61.95 198.01 C 63.40 198.87 64.85 199.75 66.33 200.58 C 65.09 201.25 63.84 201.94 62.57 202.58 C 61.33 202.40 60.25 201.62 59.10 201.15 L 59.27 200.62 C 59.56 199.75 60.14 198.02 60.43 197.16 Z" />
</g>
<g id="#e56ce5ff">
<path fill="#e56ce5" opacity="1.00" d=" M 184.31 199.67 C 186.20 198.49 188.37 198.04 190.58 198.40 C 190.63 198.87 190.73 199.81 190.78 200.29 L 190.88 201.18 C 189.75 201.58 188.70 202.14 187.75 202.86 L 186.71 202.17 C 185.91 201.34 185.11 200.50 184.31 199.67 Z" />
</g>
<g id="#d63fd5ff">
<path fill="#d63fd5" opacity="1.00" d=" M 127.15 226.85 C 146.06 217.49 165.60 209.44 184.31 199.67 C 185.11 200.50 185.91 201.34 186.71 202.17 L 187.05 203.04 C 171.73 209.93 156.65 217.32 141.42 224.40 C 136.62 226.32 132.28 229.35 127.31 230.83 C 127.24 229.50 127.18 228.17 127.15 226.85 Z" />
</g>
<g id="#ad2faeff">
<path fill="#ad2fae" opacity="1.00" d=" M 62.57 202.58 C 63.84 201.94 65.09 201.25 66.33 200.58 C 68.30 201.64 70.32 202.60 72.33 203.58 C 71.38 204.21 70.41 204.84 69.44 205.46 C 66.91 205.45 64.78 203.64 62.57 202.58 Z" />
</g>
<g id="#961897ff">
<path fill="#961897" opacity="1.00" d=" M 69.44 205.46 C 70.41 204.84 71.38 204.21 72.33 203.58 C 89.95 211.74 107.44 220.22 125.28 227.87 C 125.30 229.35 125.21 230.84 124.94 232.31 C 106.31 223.43 87.66 214.58 69.01 205.73 L 69.44 205.46 Z" />
</g>
</svg>
