<?xml version="1.0" encoding="utf-8"?>
<!-- Generator: Adobe Illustrator 26.0.3, SVG Export Plug-In . SVG Version: 6.00 Build 0)  -->
<svg version="1.1" id="Layer_1" xmlns="http://www.w3.org/2000/svg" xmlns:xlink="http://www.w3.org/1999/xlink" x="0px" y="0px"
	 viewBox="0 0 250 250" style="enable-background:new 0 0 250 250;" xml:space="preserve">
<style type="text/css">
	.st0{fill:#8A8A80;}
	.st1{fill:#9E845A;}
	.st2{fill:#865E1E;}
	.st3{fill:#8E7C5F;}
	.st4{fill:#F0C06C;}
	.st5{fill:#A37940;}
	.st6{fill:#2F361E;}
	.st7{fill:#12130E;}
	.st8{fill:#FAFAAA;}
	.st9{fill:#555A47;}
	.st10{fill:#F8EFFA;}
	.st11{fill:#30372B;}
	.st12{fill:#F5DD97;}
	.st13{fill:#1B1B1C;}
	.st14{fill:#1D1D1E;}
	.st15{fill:#4C5245;}
	.st16{fill:#302F31;}
	.st17{fill:#9E9FA0;}
	.st18{fill:#DADBDC;}
	.st19{fill:#6F7072;}
	.st20{fill:#1C1D1B;}
	.st21{fill:#ECEBEB;}
	.st22{fill:#52543E;}
	.st23{fill:#D0A05E;}
	.st24{fill:#393D27;}
	.st25{fill:#D2BB6D;}
	.st26{fill:#040505;}
	.st27{fill:#6B6C6E;}
	.st28{fill:#070808;}
	.st29{fill:#090A0B;}
	.st30{fill:#EFEFEF;}
	.st31{fill:#F6F6F6;}
	.st32{fill:#997332;}
	.st33{fill:#EAEAEA;}
	.st34{fill:#E8E8E8;}
	.st35{fill:#AEAEAF;}
	.st36{fill:#C7C7C8;}
	.st37{fill:#3B3A3C;}
	.st38{fill:#A1853D;}
	.st39{fill:#050606;}
	.st40{fill:#3A393B;}
	.st41{fill:#050505;}
	.st42{fill:#EAEBEB;}
	.st43{fill:#F2F2F2;}
	.st44{fill:#2B2A2C;}
	.st45{fill:#EDEDED;}
	.st46{fill:#0A0B0C;}
	.st47{fill:#080B0C;}
	.st48{fill:#060809;}
	.st49{fill:#EFF0EF;}
	.st50{fill:#060607;}
	.st51{fill:#8D8D8F;}
	.st52{fill:#A2A2A3;}
	.st53{fill:#7A7B7D;}
	.st54{fill:#EFEEEF;}
	.st55{fill:#7D7E7F;}
	.st56{fill:#040405;}
	.st57{fill:#7C7C7E;}
	.st58{fill:#070809;}
	.st59{fill:#B0B0B1;}
	.st60{fill:#010102;}
	.st61{fill:#E9E8E9;}
	.st62{fill:#E9E9E9;}
	.st63{fill:#EDEDEE;}
	.st64{fill:#2F2F31;}
	.st65{fill:#ABACAC;}
	.st66{fill:#9C9C9E;}
	.st67{fill:#9A9B9C;}
	.st68{fill:#5B5C5E;}
	.st69{fill:#9A9B9B;}
	.st70{fill:#A5A5A6;}
	.st71{fill:#7E5F12;}
	.st72{fill:#171718;}
	.st73{fill:#969797;}
	.st74{fill:#E4E4E4;}
	.st75{fill:#2D2D2F;}
	.st76{fill:#30362D;}
	.st77{fill:#684C1E;}
	.st78{fill:#424143;}
	.st79{fill:#EAEAEB;}
	.st80{fill:#2A292B;}
	.st81{fill:#C6C6C6;}
	.st82{fill:#D9D9D9;}
	.st83{fill:#3E3D3C;}
	.st84{fill:#2C2D28;}
	.st85{fill:#77654A;}
	.st86{fill:#6C6240;}
	.st87{fill:#817953;}
	.st88{fill:#9C986B;}
	.st89{fill:#CBA157;}
	.st90{fill:#B19C84;}
	.st91{fill:#C4BC7C;}
	.st92{fill:#9D9867;}
	.st93{fill:#A99E69;}
	.st94{fill:#FDEDFC;}
	.st95{fill:#E5D3BC;}
	.st96{fill:#13140F;}
	.st97{fill:#7C5733;}
	.st98{fill:#66512F;}
	.st99{fill:#434229;}
	.st100{fill:#918357;}
	.st101{fill:#8E8053;}
	.st102{fill:#373D31;}
	.st103{fill:#2B2926;}
	.st104{fill:#242325;}
	.st105{fill:#816434;}
	.st106{fill:#866F3F;}
	.st107{fill:#7A6326;}
	.st108{fill:#CBB655;}
	.st109{fill:#1B1B23;}
	.st110{fill:#D1BF68;}
	.st111{fill:#5B4F26;}
	.st112{fill:#B19F51;}
	.st113{fill:#D9C357;}
	.st114{fill:#E9DA74;}
	.st115{fill:#0D0E13;}
	.st116{fill:#535545;}
	.st117{fill:#CBBEB1;}
	.st118{fill:#5F5D44;}
	.st119{fill:#B8A066;}
	.st120{fill:#8B827F;}
	.st121{fill:#D9D18A;}
	.st122{fill:#434940;}
	.st123{fill:#F0DFF3;}
	.st124{fill:#9B6F1E;}
	.st125{fill:#977038;}
	.st126{fill:#B09F57;}
	.st127{fill:#91864F;}
	.st128{fill:#D0C496;}
	.st129{fill:#AF9F66;}
	.st130{fill:#6D5B27;}
	.st131{fill:#40433A;}
	.st132{fill:#A08D5D;}
	.st133{fill:#5D4922;}
	.st134{fill:#1A1C1C;}
	.st135{fill:#14182A;}
	.st136{fill:#262A19;}
	.st137{fill:#C7B771;}
	.st138{fill:#AE9674;}
	.st139{fill:#D7CB7B;}
	.st140{fill:#444027;}
	.st141{fill:#13150F;}
	.st142{fill:#997532;}
	.st143{fill:#0D0C0C;}
	.st144{fill:#987727;}
	.st145{fill:#9B8C5E;}
	.st146{fill:#7A612E;}
	.st147{fill:#343A21;}
	.st148{fill:#474C43;}
	.st149{fill:#69562E;}
	.st150{fill:#505346;}
	.st151{fill:#B99550;}
	.st152{fill:#8C7341;}
	.st153{fill:#434731;}
	.st154{fill:#353C28;}
	.st155{fill:#222518;}
	.st156{fill:#C1B289;}
	.st157{fill:#AB8341;}
	.st158{fill:#71521D;}
	.st159{fill:#A18946;}
	.st160{fill:#4E3B18;}
	.st161{fill:#CBB38F;}
	.st162{fill:#41432C;}
	.st163{fill:#8C682D;}
	.st164{fill:#9B8C5D;}
	.st165{fill:#7B6F44;}
	.st166{fill:#5E4825;}
	.st167{fill:#7D643A;}
	.st168{fill:#7B6339;}
	.st169{fill:#F3F0F0;}
	.st170{fill:#785418;}
	.st171{fill:#EFED9D;}
	.st172{fill:#5D5947;}
	.st173{fill:#988050;}
	.st174{fill:#4C3418;}
	.st175{fill:#2C271A;}
	.st176{fill:#11120F;}
	.st177{fill:#11130B;}
	.st178{fill:#7F6D48;}
	.st179{fill:#624510;}
	.st180{fill:#D1C68F;}
	.st181{fill:#77776B;}
	.st182{fill:#E9E778;}
	.st183{fill:#635F55;}
	.st184{fill:#F1E1F6;}
	.st185{fill:#B7853E;}
	.st186{fill:#7E4C20;}
	.st187{fill:#11140E;}
	.st188{fill:#86632A;}
	.st189{fill:#A37E50;}
	.st190{fill:#DFD186;}
	.st191{fill:#AC803C;}
	.st192{fill:#595D4D;}
	.st193{fill:#7A7C70;}
	.st194{fill:#624814;}
	.st195{fill:#2D331E;}
	.st196{fill:#A57E3A;}
</style>
<g id="_x23_8a8a80ff">
	<path class="st0" d="M99.6,19.6c5.4-1.1,10.7-3.5,16.3-3.3c11.8,0.1,24.1-1.5,35.1,3.8c-3-0.3-6-0.5-8.9-1
		c-4.9-1.9-10.1-2.4-15.4-1.9c-0.6,0-1.9,0-2.5,0c-4.2-0.3-8.5,0-12.6,1.3c-6,1.1-12.1,2.1-17.7,4.4c-16.1,4.7-30.7,13.6-42.9,25
		l-0.8,0.4c0.9-1.7,2.1-3.3,3.6-4.6C66.8,32.2,82.6,23.5,99.6,19.6z"/>
	<path class="st0" d="M151.9,25.2l0.8,0.3c2.1,0.7,4.3,1.5,6.4,2.3c-0.9,0-2.6-0.1-3.4-0.1c-0.1,2.4-0.2,4.9,0.1,7.3
		c2.2,2.5,5.7,3.3,8.6,4.7c5.3,2.1,10,5.3,14.8,8.4c1.1,0.4,2.3,0.8,3.4,1.2c0.1-3.2,0.2-6.4,0.4-9.6c2,1.2,4,2.4,5.9,3.7
		c-2.4,3-1.2,7.1-1.6,10.6c-1.8-0.6-3.6-1.2-5.3-1.9c-8.4-6.5-17.8-11.9-28-15c-1.1-1.4-2.4-2.7-3-4.4
		C150.7,30.2,151.4,27.7,151.9,25.2z"/>
</g>
<g id="_x23_9e845aff">
	<path class="st1" d="M111.7,18.5c4.1-1.3,8.3-1.6,12.6-1.3c-2.9,1.5-5.9,3-9.1,3.9c0.1-0.5,0.4-1.5,0.5-2
		C114.3,18.9,113,18.7,111.7,18.5z"/>
</g>
<g id="_x23_865e1eff">
	<path class="st2" d="M124.2,17.2c0.6,0,1.9,0,2.5,0c5,1.5,10.2,2,15.4,1.9c4.4,1.3,8.6,3.3,12.7,5.2c-0.5,0.3-1.6,0.8-2.1,1.1
		l-0.8-0.3c-1.3-0.4-2.6-0.8-3.9-1.1c-11.1-3.2-22.9-3.7-34.2-1.4c-10,1.1-19.4,4.5-28.9,7.2c3.5-2,7.3-3.6,11.1-4.8
		c6.4-1.5,12.8-2.7,19.2-4C118.4,20.2,121.3,18.7,124.2,17.2z"/>
</g>
<g id="_x23_8e7c5fff">
	<path class="st3" d="M126.8,17.2c5.2-0.5,10.5,0,15.4,1.9C136.9,19.2,131.7,18.7,126.8,17.2z"/>
</g>
<g id="_x23_f0c06cff">
	<path class="st4" d="M93.9,22.9c5.7-2.4,11.7-3.4,17.7-4.4c1.3,0.2,2.7,0.4,4,0.5c-0.1,0.5-0.4,1.5-0.5,2c-6.4,1.3-12.9,2.5-19.2,4
		c0.7-0.6,1.4-1.3,2.1-1.9C96.7,23,95.3,23,93.9,22.9z"/>
</g>
<g id="_x23_a37940ff">
	<path class="st5" d="M142.1,19.1c3,0.5,5.9,0.7,8.9,1c14.7,2.7,28.2,10,39.9,19c-3.4-1.6-6.8-3.5-10.1-5.4c-0.5,1.2-1,2.4-1.6,3.6
		c-6.5-3.6-13.2-7-20.3-9.6c-2.1-0.8-4.2-1.6-6.4-2.3c0.5-0.3,1.6-0.8,2.1-1.1C150.7,22.4,146.5,20.4,142.1,19.1z"/>
</g>
<g id="_x23_2f361eff">
	<path class="st6" d="M113.7,22.6c11.3-2.3,23.2-1.8,34.2,1.4c0,4.1-1,9.2,2.9,12.1c-4.4-1.4-9.4-2.7-12.4-6.4
		c0.2-1.8,0.7-3.4,1.2-5.1C131.4,20.9,122.3,22.5,113.7,22.6z"/>
</g>
<g id="_x23_12130eff">
	<path class="st7" d="M113.7,22.6c8.6-0.2,17.7-1.8,25.8,1.9c-0.5,1.7-1,3.4-1.2,5.1c3.1,3.7,8,4.9,12.4,6.4c1,0.3,2.1,0.6,3.1,1
		c10.2,3.1,19.6,8.5,28,15c1.1,0.9,2.1,1.9,3.2,2.9c1,1,1.9,2,2.8,3c0.9,1.7,1.8,3.4,2.7,5.1c-4.3-1.8-8.4-3.9-12.1-6.7
		c-3.8-2.9-8.4-4.6-11.7-8.2c-1.7-2.1-4.3-2.8-6.8-3.5c-5-1.3-9.3-4.2-14.3-5.4l-0.8-0.1c-0.5,0.2-1.6,0.5-2.2,0.7
		c-1,1.2-1.9,2.5-2.7,3.7c-1-0.9-2.1-1.7-3.1-2.6c0.6-1.5,1.2-2.9,1.8-4.4c-2.2-0.3-4.5-0.9-6.8-0.6c-2.5,0.5-4.5,2.1-6.6,3.4
		c-4.4-1.7-8.9-4.3-13.8-3.7c-4.1,0.6-8.9,1.2-11.1,5.2c-2.2,3-3.9,6.3-6.6,8.9l-0.8-0.3c-2.5-1.2-4.8-3.1-7.6-3.7
		c-3.1,0.1-5.8,2-8.6,3.1c2.1-3.9,4.8-7.6,6.2-11.9c-2.5-0.3-4.9-0.9-7.2-2.1l0.6-0.7c2.7-1.5,5.4-3,8.2-4.3
		C94.3,27.1,103.8,23.8,113.7,22.6z"/>
</g>
<g id="_x23_fafaaaff">
	<path class="st8" d="M51.1,47.9c12.2-11.4,26.8-20.3,42.9-25c1.3,0,2.7,0.1,4.1,0.2c-0.7,0.7-1.4,1.3-2.1,1.9
		c-3.8,1.3-7.6,2.9-11.1,4.8c-2.8,1.3-5.5,2.8-8.2,4.3C75,35,73.5,35.8,72,36.7c-6.6,3.9-12.5,8.8-18,14.2c-1.9,1-3.8,2-5.8,3
		C49.2,51.9,50.1,49.9,51.1,47.9z"/>
</g>
<g id="_x23_555a47ff">
	<path class="st9" d="M148,24c1.3,0.4,2.6,0.8,3.9,1.1c-0.4,2.5-1.2,5-0.9,7.5c0.6,1.7,1.9,3,3,4.4c-1.1-0.3-2.1-0.6-3.1-1
		C147,33.3,147.9,28.2,148,24z"/>
</g>
<g id="_x23_f8effaff">
	<path class="st10" d="M155.7,27.6c0.9,0,2.6,0.1,3.4,0.1c7,2.6,13.7,6,20.3,9.6c3.2,2.7,3,7,2.9,10.8c-0.8,0-2.3-0.1-3.1-0.1
		c-4.8-3.1-9.5-6.3-14.8-8.4c-2.9-1.4-6.4-2.2-8.6-4.7C155.4,32.5,155.6,30,155.7,27.6z"/>
</g>
<g id="_x23_30372bff">
	<path class="st11" d="M72,36.7c1.5-0.9,3-1.7,4.6-2.5L76,34.9c-0.1,0.2-0.3,0.7-0.4,0.9c0.6,3.2,2.2,6.8,0.2,9.9
		c-1.9,4.1-6,6.3-9.8,8.3c2.7-2.7,6-5,7.8-8.4C74.1,42.5,72.8,39.6,72,36.7z"/>
</g>
<g id="_x23_f5dd97ff">
	<path class="st12" d="M180.9,33.8c3.3,1.9,6.6,3.7,10.1,5.4c2.4,1,4.4,2.6,6.1,4.6c-0.8,0.8-1.6,1.5-2.4,2.3
		c-1.2-0.5-2.4-0.9-3.6-1.4c-0.6-0.3-1.7-1-2.3-1.4c-2-1.3-3.9-2.5-5.9-3.7c-0.2,3.2-0.3,6.4-0.4,9.6c-1.2-0.4-2.3-0.8-3.4-1.2
		c0.8,0,2.3,0.1,3.1,0.1c0.2-3.8,0.3-8.1-2.9-10.8C179.9,36.2,180.4,35,180.9,33.8z"/>
</g>
<g id="_x23_1b1b1cff">
	<path class="st13" d="M75.6,35.8c0.1-0.2,0.3-0.7,0.4-0.9c2.2,1.2,4.7,1.8,7.2,2.1c-1.4,4.3-4,8-6.2,11.9c2.8-1.1,5.5-3,8.6-3.1
		c2.8,0.6,5.1,2.5,7.6,3.7c-0.5,2.3-0.8,4.7-1,7c2.1-0.3,4.2-0.7,6.2-1c0.3,1.6,0.7,3.2,1,4.8c-3.2-0.4-6.4-0.9-9.6-1.5
		c-1-1.1-1.9-2.3-2.8-3.5c-0.8,0.2-1.6,0.3-2.4,0.5c-0.9,2.1-1.5,4.3-2.1,6.4c-1.7-0.9-3.4-1.8-5.1-2.6c-0.8,2.3-1.4,4.7-2,7
		c-1.5,0.4-3.1,0.9-4.6,1.3c0,1.4,0.1,2.8,0.2,4.2c1.7,0.4,3.3,0.8,5,1.1c0.3,0.4,1,1.3,1.3,1.7c0.9,1.6,1.8,3.3,2.9,4.8
		c2,0.7,4,1.1,6.1,1.5c0,1.6,0,3.2,0,4.9c-1.9-0.4-4.4,0.2-5.7-1.6c-1.8-2.1-3.2-4.5-4.6-6.8c-1.5,0.1-3.1,0.1-4.6,0.2l0,0.9
		c0,1.5,0,3,0.1,4.5c1.3,0.2,2.6,0.5,3.9,0.8c0.3,0.1,0.9,0.4,1.3,0.6c1.9,3.5,2.9,7.5,5.2,10.9c3.4,3,7.8,4.5,11.7,6.8
		c3.5-4.1,4.3-9.7,7.6-13.9c-0.3-1.2-0.7-2.5-1-3.7c-2.5-1.4-5.4-1.7-8.2-1.9c-0.1-1.8-0.4-3.5,0-5.3c1.5-1,3.3-1.3,5.1-1.8
		c0.5,1.6,1.1,3.3,1.6,4.9c0.8,0,2.3,0,3.1,0c0.7,0,2,0,2.6,0c0.9,1.7,1.8,3.4,2.8,5.1c1.6-0.4,3.2-0.9,4.8-1.3
		c1.2-1.4,1-3.2,0.9-4.9c0.6-1.7,2.1-2.8,3.3-4c0.7,0.2,2.1,0.8,2.8,1c1.4,3.7,2.7,7.4,3.9,11.2c-2.9,4.3-5.4,8.9-7.8,13.5
		c-1.9,0-3.8-0.1-5.7,0.1c-3.2,0.4-5.8,2.7-9,2.9c-1.8,0.2-3.6,0.1-5.2,0.6c-2.7,2.1-3.8,6.7-7.7,6.6c-4.1,0.2-8.3,0.4-12.4,0.9
		c-11.6-0.2-23.1-0.3-34.7,0.1c-1.5-0.2-3.6,0.5-4.5-1c0.6-6.6,2.7-13,4.6-19.3c1.6-2.2,3.4-4.2,5.1-6.4c0.4,2.3-0.1,5.4,2.3,6.8
		c2.5,1.8,5.5,2.7,8.4,3.7c5.2-5.8,8.5-12.9,12.5-19.4c-3.7-2.7-8.2-5.2-12.9-4.5c-3.6,3.1-5.7,7.6-9.1,11C49,75.6,54,69,57.9,61.9
		c2.5-2.8,5.1-5.5,8-7.8c3.9-1.9,7.9-4.2,9.8-8.3C77.8,42.7,76.1,39.1,75.6,35.8 M70.6,89.7c-0.4,1.3-0.8,2.6-1.2,3.8
		c-3.9,1.7-8,3.1-11.9,5c-3.4,1.7-4.4,5.8-5.6,9.1c2.6,0.7,5.2,1.7,7.9,1.8c3.3-0.6,4.6-4,6.1-6.6c1.4-2.9,3.8-5.2,5.3-8
		C71.1,93.2,70.9,91.4,70.6,89.7 M72,91.3c-0.3,1.9-0.5,3.9,0.8,5.5c2.4-1,5.7-2.3,4-5.5C75.2,91.3,73.6,91.2,72,91.3z"/>
	<path class="st13" d="M72.2,118.8c0.1-0.9,0.2-1.8,0.3-2.8c2.8,2.6,5.8,5,8.9,7.4c-1,0.7-1.9,1.3-2.9,1.9
		C76.3,123.2,74.2,121.1,72.2,118.8z"/>
</g>
<g id="_x23_1d1d1eff">
	<path class="st14" d="M111.7,35.7c4.9-0.6,9.4,2,13.8,3.7c2.1-1.3,4.1-2.9,6.6-3.4c2.3-0.2,4.5,0.3,6.8,0.6
		c-0.6,1.5-1.2,2.9-1.8,4.4c1,0.9,2.1,1.7,3.1,2.6c0.9-1.3,1.8-2.5,2.7-3.7c-0.5,3.1-1.4,6.1-2.8,9c-1.6,3.2-2.8,6.6-3.8,10
		c-2.1-0.7-4.4-2.2-6.6-1.3c-4.2,1.6-7.7,4.3-11.3,6.8c-0.5-0.3-1.1-0.6-1.7-1c-1.1-3.3-2.2-6.6-3.3-9.8c1.4,0.5,2.7,1,4.1,1.6
		c1.9-4,4.3-8.1,3.9-12.7c-1.3-2.2-3.4-3.9-5.8-4.9c-5.2-1-10.4,0.8-14.9,3.3C102.8,36.9,107.7,36.3,111.7,35.7z"/>
</g>
<g id="_x23_4c5245ff">
	<path class="st15" d="M54,50.9c5.5-5.4,11.4-10.3,18-14.2c0.8,2.9,2.1,5.8,1.7,8.9C72,49,68.6,51.3,65.9,54c-2.9,2.4-5.5,5.1-8,7.8
		C49.2,70,43.6,80.9,40,92.2c-1.9,6.3-4,12.7-4.6,19.3c1,1.5,3.1,0.8,4.5,1c11.6-0.4,23.1-0.3,34.7-0.1c3,0.4,6,0.8,9.1,1
		c-0.2,0.4-0.6,1.3-0.8,1.7c-2.2,0-4.7-0.2-6.4,1.6c-1.2-1.2-2.5-2.5-3.7-3.7c-5.7,0.1-11.5,0.2-17.2,0.2c-0.5,0-1.4,0-1.9-0.1
		c-6.2,0.1-12.7-0.6-18.6,1.9c-0.1,3.7-0.5,7.5,0.8,11.1c0.2,0.5,0.5,1.4,0.6,1.9c-1.8,4.2-1.7,9,0.5,13.1c1.6,2.7,1.4,5.9,2,8.9
		c0.5,1.4,1.4,2.7,2.2,3.9c1.8,2.2,2.3,4.9,2.8,7.6c0.4,2.7,2.5,4.5,4.1,6.5c2.3,2.9,2.9,6.9,5.5,9.6c4.5,4.1,7.5,9.7,12.5,13.2
		c2.9,2.1,5.5,4.6,8.3,6.8c-1.7,3.9-1.5,8.5-3.8,12.2c-9.3-5.9-17.7-13.4-24.6-22c-4.3-5.8-8.8-11.6-12-18.2
		c-3.6-7.3-6.2-15.1-8.5-22.9c-0.8-8.6-2.4-17.1-2-25.7c0.4-8.1,1.5-16.2,3.3-24.1c3-12.2,9.3-23.3,16.3-33.6
		C46.9,59.2,50.4,55,54,50.9z"/>
</g>
<g id="_x23_302f31ff">
	<path class="st16" d="M100.6,40.8c4.5-2.5,9.7-4.3,14.9-3.3c2.4,0.9,4.5,2.6,5.8,4.9c0.4,4.6-2,8.7-3.9,12.7
		c-1.4-0.5-2.7-1-4.1-1.6c-1.5-3.9-2.6-7.9-4.1-11.8c-0.5-1.2-1.3-2.8-2.9-2.5c-0.2,1.5-0.1,3-0.2,4.5c-1.2,1.7-2.2,3.4-3.2,5.3
		c-0.6-0.3-1.8-1-2.5-1.4c-0.7,1.7-1.3,3.4-1.7,5.2c-1.1-1.8-2.9-2.6-4.8-3C96.7,47.2,98.4,43.8,100.6,40.8z"/>
</g>
<g id="_x23_9e9fa0ff">
	<path class="st17" d="M106.3,39.2c1.6-0.3,2.4,1.3,2.9,2.5c1.5,3.9,2.6,7.9,4.1,11.8c1.1,3.2,2.2,6.5,3.3,9.8
		c2.7,8,5.2,16.2,8.7,23.9c2.8-4.3,4.7-9.1,6.3-14c1.5,0.9,3,1.8,4.6,2.5l-1,0c-0.5,0-1.6,0-2.2,0c-1.9,5.7-4.3,11.3-5.3,17.3
		c0.9,5.8,3.7,11,5.3,16.6c-0.2,0.2-0.7,0.5-1,0.7c-0.3,0.2-0.9,0.6-1.2,0.8c-1.1-4.7-2.9-9.3-5.5-13.4c-1.6,4.9-2.9,10.2-6.7,13.8
		c0.1-0.4,0.2-1.2,0.3-1.7c0.2-0.7,0.4-2.1,0.6-2.8c1.1-4.3,2.9-8.3,4.1-12.5c0.7-2.3-0.4-4.5-1-6.7c-1.2-3.8-2.5-7.5-3.9-11.2
		c-0.7-0.2-2.1-0.8-2.8-1c1.1-0.2,2.1-0.5,3.1-0.8c-0.6-2.4-1.2-4.8-1.8-7.2c-1.9,0.6-3.7,1.1-5.6,1.7c1.2-0.7,2.3-1.5,3.5-2.3
		c-0.4-1.6-0.7-3.1-1.1-4.7c-0.8-0.2-2.4-0.5-3.2-0.6l-0.8-0.2c1.4-0.3,2.7-0.6,4.1-1c-0.5-2.1-1-4.3-1.5-6.4
		c-0.4,0.2-1.2,0.5-1.6,0.7c-0.5-2.3-1.8-4.2-3.6-5.7c1.2,0,2.5,0.1,3.7,0.2c-0.8-1.8-1.7-3.5-2.5-5.3c-1.6,1.6-3.2,3.3-4.8,4.9
		h-0.7c0.9-1.8,2-3.6,3.2-5.3C106.2,42.2,106.2,40.7,106.3,39.2z"/>
	<path class="st17" d="M136.2,58.8c1-3.4,2.2-6.8,3.8-10c0.1,0.6,0.3,1.8,0.4,2.3c0.2,1.2,0.3,2.5,0.5,3.7c-0.6-0.4-1.1-0.8-1.7-1.2
		c-0.6,2.3-1.3,4.7-2,7c1.3,0.3,2.6,0.7,3.8,1l-0.9,0.2c-2.8,0.1-3.4,3.1-4.5,5c1.7,0.8,3.4,1.6,5.1,2.5c-2-0.2-4-0.7-6.1-0.4
		c-1,1.1-1.9,2.3-2.7,3.6C133.5,67.9,134.8,63.3,136.2,58.8z"/>
	<path class="st17" d="M182.4,214.9c0.8-0.4,1.7-0.7,2.6-1.1c-1.2,1.2-2.5,2.4-3.9,3.2c-11.9,7.2-25.2,11.9-38.8,14.2
		c-7.6,1.9-15.5,1.1-23.3,1.3c-6.3,0.2-12.4-1.8-18.6-3c-7.8-1.6-15.2-4.5-22.4-7.8c-1.6-0.7-2.9-1.8-4-3.1
		c11.6,5.1,23.3,10.2,36.1,11.3c8.9,1.1,17.9,0.9,26.9,0.5c11.2-1.2,22.3-4.3,32.6-8.9C174.1,219.6,178.1,216.9,182.4,214.9z"/>
</g>
<g id="_x23_dadbdcff">
	<path class="st18" d="M142.9,39.8c0.5-0.2,1.6-0.5,2.2-0.7c-0.4,1.6-0.8,3.2-1.2,4.8c1.5,1.5,3,3.1,4.4,4.7
		c-1.4,0.5-2.9,0.9-4.3,1.4c-1.2,0.4-2.3,0.8-3.5,1.2c-0.1-0.6-0.3-1.8-0.4-2.3C141.5,46,142.4,42.9,142.9,39.8z"/>
</g>
<g id="_x23_6f7072ff">
	<path class="st19" d="M145,39.1l0.8,0.1c-0.1,1.5-0.2,3-0.3,4.5c0.9,0.9,1.9,1.7,2.9,2.6c-0.4,3.4,0.1,6.8,3.4,8.6
		c0.7-1.6,1.4-3.2,2-4.9c1.5,0.1,3,0.2,4.5,0.4c-1.4,0.3-2.7,0.7-4.1,1.1c0.1,1.1,0.2,2.1,0.4,3.2c1.4-0.1,2.7-0.3,4.1-0.5
		c0,0.4,0.1,1.1,0.1,1.5c-2.1,0-4.3-0.1-6.4-0.2c-0.1,1.6-0.3,3.2-0.4,4.8c3.4,0.1,6.8-0.5,10.1-1.1c-0.8,1.4-1.5,2.9-2.2,4.3
		c0.7,0,2.1,0.1,2.8,0.1c0.3-0.9,0.6-1.7,1-2.6c0.9,3.5,1.9,6.9,2.5,10.5c-1.3,0.5-2.5,1-3.8,1.5c-0.8-1-1.6-1.9-2.4-2.8
		c-0.8,2.1-2.1,4.4-1,6.6c1.1-0.8,2.2-1.7,3-2.8c0,2.2,1.3,3.9,2.6,5.6c0.7-1.9,1.3-3.8,1.9-5.7c3-0.8,5.9-1.9,8.7-3.1
		c-1.1,3.5-2.6,6.9-4.3,10.1c-1.1-0.4-2.3-0.8-3.4-1.1c0.8-0.1,2.5-0.2,3.4-0.2c-0.2-1.5-0.2-3-0.6-4.5c-1-0.4-1.9-0.8-2.9-1.1
		c-0.3,1.9-0.6,3.9-0.9,5.8c-1,1.6-2,3.2-3,4.8c-1.1,0.3-2.2,0.7-3.4,1c-1.1-0.4-2.2-0.8-3.3-1.2c-0.2,1.4-0.3,2.9-0.5,4.3
		c0.6,0.1,1.9,0.3,2.6,0.5l-0.3,0.9c-2.2-0.3-4.3-0.7-6.4-1.2c0.1-1.7,0.2-3.5,0.3-5.2c2.5-0.2,5-0.4,7.5-0.6
		c0.2-1.8,0.4-3.5,0.6-5.3c-1.8-0.6-3.5-1.3-5.3-1.9c-0.6,2-1.2,4.1-1.8,6.1c-2.3-0.5-4.6-1.1-6.9-1.7c0.5-2.4,1-4.8,1.5-7.2
		c-1.7-1.1-3.4-2.1-5.1-3.2c-1.1,2.5-1.9,5.2-1.8,7.9c-1,1.7-1.8,3.5-2.7,5.2c0.9,0.1,2.7,0.2,3.6,0.3c0.3-1.4,0.7-2.9,1-4.4
		c1.2,0.8,2.4,1.6,3.5,2.3c-0.9,1.4-1.3,3.1-2.7,4c-2-0.3-3.9-0.9-5.9-1.4c0.3-1.9,0.6-3.9,0.9-5.8c-1.5-0.6-3-1.3-4.5-1.9l0.8-0.4
		l1,0c0.8,0.2,2.4,0.5,3.2,0.7c0.7-2.3,1.2-4.8,1.3-7.2c0.9-1.7,1.8-3.3,2.5-5.1c-0.9-0.9-2-1.7-3-2.4l0.9-0.2c3,0.4,5-3.4,2.2-5.1
		c2-1,3.2-2.7,3.9-4.8c-1.1-0.6-2.1-1.1-3.2-1.7c1.4-0.5,2.9-0.9,4.3-1.4c-1.4-1.6-2.9-3.1-4.4-4.7C144.2,42.3,144.6,40.7,145,39.1
		 M146.3,56.9c-0.4,1.7-1,3.4-1.1,5.1c0.4,2.2,2.8,3.1,4.5,4.1c0.4-1.9,0.9-3.8,0.8-5.7C149.6,58.8,147.8,57.9,146.3,56.9 M153,61.2
		c-0.6,1.3-1.3,2.6-1.9,3.8c1.2,0.6,2.3,1.3,3.6,1.6c1.4-1.1,1.5-3.1,2.1-4.6C155.6,61.8,154.3,61.5,153,61.2 M158.2,63.1
		c-0.8,1.6-1.5,3.2-2.6,4.6c-1.9,0-3.7-0.2-5.6-0.4c-0.5,1.8-0.9,3.5-1.3,5.3c1.8,0.2,3.6,0.5,5.3,0.7c0.6-1.3,1.3-2.6,1.9-3.9
		c1.8,0.2,3.6,0.4,5.4,0C162.7,66.5,160.8,64.3,158.2,63.1 M163.1,66.6c-1,0.9-0.6,2.9,0.7,3.2C165.8,69.7,165,65.8,163.1,66.6
		 M149.8,74.2c-0.2,1.7-0.7,3.5-0.3,5.2c1.1,0.6,2.2,1,3.3,1.5c0.3-2.2,0.7-4.4,1-6.6C152.5,74.3,151.2,74.3,149.8,74.2 M160.8,78
		c0,2.1,0.1,4.2,0.2,6.3c1.8-1.2,2.2-3.1,2.4-5.1C162.7,78.9,161.4,78.3,160.8,78z"/>
</g>
<g id="_x23_1c1d1bff">
	<path class="st20" d="M145.9,39.2c5,1.2,9.3,4.1,14.3,5.4c2.5,0.7,5.1,1.4,6.8,3.5c3.2,3.6,7.9,5.3,11.7,8.2
		c3.7,2.9,7.8,4.9,12.1,6.7c-0.9-1.7-1.8-3.4-2.7-5.1c4.7,3,8.9,7,14.1,9.4c-0.8-4.2-1.7-8.4-2.4-12.6c8.9,9,16.2,19.8,20.5,31.8
		c-0.4,9.9-2.8,20.5,1.4,29.9c-1.7-0.1-3.5-0.1-5.2-0.4c-1-0.9-1.8-2.1-2.6-3.2c-2.9-0.4-5.8-0.6-8.7-0.7c-3-0.1-5.9-0.1-8.9-0.2
		c1.8-5.4,2.5-11.4,5.7-16.3c2.4-0.5,5-0.2,7.4-0.2c-1.2-2.9-2.6-5.8-4.3-8.4c-1.4,2-2.8,4.1-4.1,6.2c-3.7-0.4-7.5-0.6-11.2,0.3
		c-2.5,0.4-5.1,1.4-7.6,0.7c-1.1-1.1-1.8-2.5-2.7-3.7c-1.6-0.4-3.2-0.7-4.9-1.1c-0.3-0.7-0.9-2.2-1.2-2.9c0.3-0.6,0.9-1.8,1.2-2.4
		c0.5-0.1,1.6-0.2,2.1-0.3c0.8-0.1,2.4-0.3,3.1-0.5c0-1.4,0-2.9,0-4.4l-0.1-0.9c-1.4-0.1-2.9-0.1-4.3-0.1c-0.6,1.4-1.1,2.7-1.6,4.1
		c-0.7,0.2-1.5,0.4-2.2,0.6c-0.7,1.4-1.3,2.7-2,4.1c-1.8-0.2-3.6-0.5-5.3-0.7c-0.2,2-0.4,4-0.4,6l0.5,0.8c1.9,0,3.9-0.2,5.8-0.3
		c0.3-0.6,1-1.8,1.3-2.4c0.4-0.1,1.2-0.2,1.6-0.2c0.9,6.7-3.8,12.3-4,18.8c6,0.7,12.6-2.3,18.1,1.4c-1.8,0.7-3.6,1.3-5.4,1.9
		c-10.9-0.6-21.9,1.4-32.7-0.9c-2.7-0.6-5.4-1.2-8.1-1.8c2.6-6.9,6-13.5,8.2-20.6c-3.1-1.4-6.7,0.4-9.6-1.4
		c-2.6-1.5-5.2-3.3-7.2-5.6c-0.4-2.2,1-4.1,2.1-5.8c1.5,0.6,3,1.3,4.5,1.9c-0.3,1.9-0.6,3.9-0.9,5.8c1.9,0.5,3.9,1.1,5.9,1.4
		c1.4-1,1.8-2.7,2.7-4c-1.2-0.8-2.4-1.6-3.5-2.3c-0.5-0.3-1.4-0.9-1.9-1.2c-0.1-2.8,0.7-5.4,1.8-7.9c1.7,1.1,3.4,2.1,5.1,3.2
		c-0.5,2.4-1,4.8-1.5,7.2c2.3,0.6,4.6,1.2,6.9,1.7c0.6-2,1.2-4.1,1.8-6.1c1.8,0.6,3.5,1.3,5.3,1.9c-0.2,1.8-0.4,3.5-0.6,5.3
		c-2.5,0.2-5,0.4-7.5,0.6c-0.1,1.7-0.2,3.4-0.3,5.2c2.1,0.4,4.3,0.9,6.4,1.2l0.3-0.9c0.4-1.2,0.8-2.4,1.2-3.6c1.1-0.3,2.2-0.7,3.4-1
		c1-1.6,2-3.2,3-4.8l1,0c1.1,0.4,2.3,0.7,3.4,1.1c1.7-3.2,3.2-6.6,4.3-10.1c-2.8,1.2-5.8,2.3-8.7,3.1c-0.6,1.9-1.2,3.8-1.9,5.7
		c-1.3-1.6-2.6-3.4-2.6-5.6l0.4-1c1.3-0.5,2.5-1,3.8-1.5c-0.6-3.6-1.6-7-2.5-10.5l0.2-0.8c1.1,0.1,2.2,0.1,3.3,0.2
		c-0.4-1.9-0.8-3.9-1.2-5.8c-1.3,1.5-2.6,3-3.8,4.5c-3.3,0.7-6.7,1.3-10.1,1.1c0.1-1.6,0.3-3.2,0.4-4.8c2.1,0.1,4.3,0.2,6.4,0.2
		c0-0.4-0.1-1.1-0.1-1.5c-0.1-1.3-0.2-2.5-0.4-3.8c-1.5-0.1-3-0.2-4.5-0.4c-0.7,1.6-1.3,3.2-2,4.9c-3.2-1.8-3.8-5.2-3.4-8.6
		c-0.9-0.9-1.9-1.7-2.9-2.6C145.7,42.2,145.8,40.7,145.9,39.2 M168.4,63c0,1.5,0,3,0.1,4.5c1.1,0.1,2.2,0.2,3.4,0.2
		c0.7-1.4,1.4-2.8,2.1-4.2C172.1,62.9,170.2,62.5,168.4,63 M174.9,68.8c1.2,2.1,2.8,3.8,5.3,3.9c0-1.5,1.1-3.6-0.4-4.8
		C178.2,67.2,176.5,68.5,174.9,68.8z"/>
</g>
<g id="_x23_ecebebff">
	<path class="st21" d="M103.6,49c1.6-1.6,3.2-3.3,4.8-4.9c0.8,1.8,1.6,3.5,2.5,5.3c-1.2-0.1-2.5-0.1-3.7-0.2
		C106,49.2,104.8,49.1,103.6,49z"/>
	<path class="st21" d="M96.7,75.8c1.4-0.9,2.9-2.1,4.7-1.2c1.4,1.9,0.9,4.2,0,6.2c-0.8,0-2.3,0-3.1,0C97.7,79.1,97.2,77.5,96.7,75.8
		z"/>
</g>
<g id="_x23_52543eff">
	<path class="st22" d="M187.3,53.9c0.4-3.5-0.8-7.6,1.6-10.6c0.6,0.3,1.7,1,2.3,1.4l-0.4,0.8c-0.2,0.5-0.6,1.4-0.9,1.8
		c0.5,2.9,1,5.8,1.3,8.8c-2-0.4-4.1-0.7-6.1-1.2c-1.1-1-2.1-2-3.2-2.9C183.7,52.7,185.5,53.3,187.3,53.9z"/>
</g>
<g id="_x23_d0a05eff">
	<path class="st23" d="M194.7,46.1c0.8-0.8,1.6-1.6,2.4-2.3c2.9,3.1,6.6,5.7,8.8,9.5c-0.1,0.4-0.1,1.3-0.2,1.7
		c-2.6-0.8-5.1-1.8-7.5-3c-2.4-2.2-5-4.2-7.4-6.4l0.4-0.8C192.3,45.2,193.5,45.6,194.7,46.1z"/>
</g>
<g id="_x23_393d27ff">
	<path class="st24" d="M189.9,47.3c0.2-0.5,0.6-1.4,0.9-1.8c2.4,2.2,4.9,4.2,7.4,6.4c0.5,0.9,1,1.9,1.5,2.8
		c0.7,4.2,1.6,8.4,2.4,12.6c-5.2-2.3-9.3-6.3-14.1-9.4c-0.9-1-1.9-2-2.8-3c2,0.5,4.1,0.8,6.1,1.2C190.9,53.2,190.5,50.2,189.9,47.3z
		"/>
</g>
<g id="_x23_d2bb6dff">
	<path class="st25" d="M42.7,55.2c2.2-2.6,4.3-5.5,7.5-6.9l0.8-0.4c-1,2-1.9,4-2.8,6c1.9-1,3.9-1.9,5.8-3
		c-3.6,4.1-7.1,8.2-10.7,12.3c-1.2,0.6-2.3,1.1-3.5,1.7c1.1-2.8,2.1-5.6,2.7-8.5C42.5,56.1,42.7,55.5,42.7,55.2z"/>
</g>
<g id="_x23_040505ff">
	<path class="st26" d="M98.8,52.8c0.4-1.8,1-3.5,1.7-5.2c0.6,0.3,1.8,1,2.5,1.4c-0.6,2-1.6,3.9-2.8,5.7
		C99.8,54.2,99.2,53.3,98.8,52.8z"/>
</g>
<g id="_x23_6b6c6eff">
	<path class="st27" d="M102.9,49h0.7c1.2,0.1,2.4,0.2,3.6,0.2c-1.1,1.1-2.2,2.2-3.3,3.3c1.1,1.3,2.2,2.6,3.2,3.9
		c0.2,2.1-0.5,5.5,2.7,5.1l0.8,0.2c-0.8,0.8-1.7,1.7-2.4,2.6c0.4,1.9,1.3,3.6,2,5.3c0.3,2.2,0.5,4.5,2,6.3c1.2,0,2.3-0.2,3.4-0.4
		c-1.3,1.2-2.7,2.3-3.3,4c-1.1-0.5-2.2-1.1-3.3-1.7c1.2-2.5,0.9-5.4-0.9-7.5c-1.6,0.7-3.2,1.6-4.5,2.8c0.1,2.2,0.8,4.4,1.2,6.5
		c1.2-0.1,2.5-0.2,3.7-0.3c-0.1,1.2-0.1,2.4-0.1,3.6c0.7,0.3,2.2,1,3,1.4c-1.6,0.5-3.2,0.9-4.8,1.3c-0.9-1.7-1.8-3.4-2.8-5.1
		c-0.7,0-2,0-2.6,0c1-2,1.4-4.2,0-6.2c-1.7-0.9-3.3,0.4-4.7,1.2c-1.7,0.5-3.5,0.8-5.1,1.8c-0.3,1.7-0.1,3.5,0,5.3
		c2.8,0.3,5.7,0.5,8.2,1.9c-0.7,1.3-1.2,2.7-2.1,3.9c-1.4,1.1-3.3,1-5,1.2l-0.4-0.8c0.8-0.2,2.3-0.6,3-0.8c-0.7-1.7-1.7-3.3-2.8-4.8
		c-0.3,1.6-0.5,3.2-0.7,4.8l-0.4-0.7c-0.4-0.4-1.2-1.2-1.6-1.7c-0.3-0.3-0.9-1-1.2-1.3c-2-1.5-1.5-4-0.9-6.1c0.6-2.2,1-4.5,1.4-6.8
		c0.5,2.2,1.5,4.3,4,4.8c-0.3-1.9-0.6-3.8-1-5.6c1.1-1.7,2.9-3.5,2.1-5.8c-1.1-0.8-2.2-1.6-3.4-2.3c-0.4-1.4-0.8-2.7-1.2-4.1
		c3.2,0.6,6.4,1,9.6,1.5c-0.3-1.6-0.7-3.2-1-4.8c-2.1,0.4-4.2,0.7-6.2,1c0.2-2.4,0.5-4.7,1-7l0.8,0.3c1.9,0.4,3.8,1.3,4.8,3
		c0.3,0.5,1,1.4,1.4,1.8C101.4,52.9,102.4,51,102.9,49 M93.7,51.7c-1.9,1-0.3,2.7,0.2,4.2c1.2-0.9,2.5-1.8,3.6-2.8
		C97.1,51.3,94.9,49.8,93.7,51.7 M100.3,61.1c0.3,1.8,0.6,4.3,2.7,4.9c1.4-1.1,2.5-2.5,3.3-4.1c-0.2-1.7-0.8-3.3-1.3-5
		C103.3,58.2,101.2,59.2,100.3,61.1 M94.4,62c0.4,1.6,0.8,3.2,1.2,4.8c1.4-0.3,2.9-0.7,4.3-1c-0.4-1.5-0.7-3-1.1-4.5
		C97.3,61.5,95.9,61.7,94.4,62 M108.3,69.4c-0.5-1.9-1-3.8-1.7-5.6C104.6,65.6,105.2,69.3,108.3,69.4 M95.8,68.8
		c0.3,1.4,0.7,2.9,1,4.3c1.9-0.3,3.8-0.7,5.8-1c-0.5-1.7-1-3.4-1.8-4.9C99.1,67.2,97,67.4,95.8,68.8z"/>
</g>
<g id="_x23_070808ff">
	<path class="st28" d="M107.2,49.2c1.9,1.4,3.1,3.4,3.6,5.7c-0.9,0.4-2.7,1.2-3.6,1.5c-1.1-1.3-2.2-2.6-3.2-3.9
		C105,51.4,106.1,50.3,107.2,49.2z"/>
</g>
<g id="_x23_090a0bff">
	<path class="st29" d="M140.4,51.1c1.2-0.4,2.3-0.8,3.5-1.2c1.1,0.6,2.1,1.2,3.2,1.7c-0.7,2.1-1.9,3.8-3.9,4.8
		c-0.6-0.4-1.8-1.2-2.3-1.6C140.7,53.6,140.6,52.3,140.4,51.1z"/>
	<path class="st29" d="M95.8,68.8c1.2-1.5,3.2-1.6,5-1.7c0.8,1.6,1.3,3.3,1.8,4.9c-1.9,0.3-3.8,0.7-5.8,1
		C96.5,71.7,96.1,70.3,95.8,68.8z"/>
</g>
<g id="_x23_efefefff">
	<path class="st30" d="M93.7,51.7c1.2-1.8,3.4-0.4,3.8,1.3c-1.1,1-2.4,1.9-3.6,2.8C93.4,54.4,91.8,52.7,93.7,51.7z"/>
	<path class="st30" d="M111.5,69.2c1.9-0.6,3.8-1.1,5.6-1.7c0.6,2.4,1.2,4.8,1.8,7.2c-1,0.3-2.1,0.5-3.1,0.8
		c-1.1,0.2-2.3,0.3-3.4,0.4c-1.5-1.7-1.7-4.1-2-6.3L111.5,69.2z"/>
</g>
<g id="_x23_f6f6f6ff">
	<path class="st31" d="M154.2,51.5c1.4-0.4,2.7-0.7,4.1-1.1c0.1,1.3,0.3,2.5,0.4,3.8c-1.4,0.2-2.7,0.3-4.1,0.5
		C154.5,53.7,154.4,52.6,154.2,51.5z"/>
</g>
<g id="_x23_997332ff">
	<path class="st32" d="M198.1,51.9c2.4,1.3,4.9,2.3,7.5,3c0.1-0.4,0.1-1.3,0.2-1.7c10.3,11.1,17.6,24.7,22.3,39
		c1.1,3.3,2.6,6.8,2.1,10.3c-0.1,0.4-0.4,1.2-0.5,1.6c-0.9-3.1-1.2-6.3-2.6-9.2c-1.9-2.8-4.6-4.9-6.6-7.6l-0.3-0.8
		c-4.3-12-11.6-22.8-20.5-31.8C199.2,53.7,198.7,52.8,198.1,51.9z"/>
	<path class="st32" d="M131.2,129.3c3.1,1.1,6.6,1.4,9.6-0.3c1.7,2,5.6,3.6,4.7,6.6c-3.8,0-5.7-4.8-9.6-4.5c-3-0.5-4.5,2.4-6.3,4.2
		c-1.3-0.2-2.6-0.3-3.9-0.5C127.5,132.9,129.4,131.1,131.2,129.3z"/>
</g>
<g id="_x23_eaeaeaff">
	<path class="st33" d="M139.2,53.6c0.6,0.4,1.1,0.8,1.7,1.2c0.6,0.4,1.8,1.2,2.3,1.6c2.8,1.8,0.8,5.5-2.2,5.1
		c-1.3-0.3-2.6-0.6-3.8-1C137.9,58.2,138.5,55.9,139.2,53.6z"/>
</g>
<g id="_x23_e8e8e8ff">
	<path class="st34" d="M110.8,54.9c0.4-0.2,1.2-0.5,1.6-0.7c0.5,2.1,1,4.3,1.5,6.4c-1.4,0.4-2.7,0.7-4.1,1c-3.2,0.4-2.5-3-2.7-5.1
		C108.1,56,109.9,55.3,110.8,54.9z"/>
	<path class="st34" d="M92.6,83.5c1.1,1.5,2.1,3.1,2.8,4.8c-0.8,0.2-2.3,0.6-3,0.8l-0.4-0.8C92.1,86.7,92.3,85.1,92.6,83.5z"/>
	<path class="st34" d="M156.7,84.3c1.1,0.4,2.2,0.8,3.3,1.2c-0.4,1.2-0.8,2.4-1.2,3.6c-0.6-0.1-1.9-0.3-2.6-0.5
		C156.4,87.2,156.5,85.7,156.7,84.3z"/>
</g>
<g id="_x23_aeaeafff">
	<path class="st35" d="M84.5,55.8c0.8-0.2,1.6-0.3,2.4-0.5c0.9,1.2,1.8,2.5,2.8,3.5c0.4,1.4,0.8,2.7,1.2,4.1
		c-0.7,1.7-2.2,3.5-1.5,5.5c0.9,1,1.8,1.8,2.8,2.6c0.4,1.9,0.7,3.8,1,5.6c-2.4-0.5-3.4-2.6-4-4.8c-1.2-0.7-2.3-1.4-3.5-2
		c0.8-2.7,2.5-5.4,2-8.2c-0.9-1.1-1.9-2-2.8-3C84.8,57.9,84.6,56.5,84.5,55.8z"/>
</g>
<g id="_x23_c7c7c8ff">
	<path class="st36" d="M162.1,59.2c1.2-1.6,2.5-3.1,3.8-4.5c0.4,1.9,0.8,3.9,1.2,5.8c-1.1-0.1-2.2-0.1-3.3-0.2l-0.2,0.8
		c-0.3,0.9-0.6,1.8-1,2.6c-0.7,0-2.1-0.1-2.8-0.1C160.5,62,161.2,60.6,162.1,59.2z"/>
</g>
<g id="_x23_3b3a3cff">
	<path class="st37" d="M82.4,62.2c0.6-2.2,1.2-4.3,2.1-6.4c0.1,0.7,0.3,2.1,0.4,2.8c1,1,2,1.9,2.8,3c0.5,2.9-1.2,5.6-2,8.2
		c1.2,0.7,2.3,1.4,3.5,2c-1.2,0.6-2.4,1.2-3.6,1.7c0.7,1.7,1.4,3.4,2.2,5.1c-0.6,2.1-1.1,4.6,0.9,6.1c-0.8,2.4-1.1,5,0.6,7.2
		c0.8-1.4,1.5-2.8,2.2-4.2l0.4,0.7l0.4,0.8l0.4,0.8c1.7-0.2,3.6-0.1,5-1.2c0.8-1.2,1.4-2.6,2.1-3.9c0.4,1.2,0.7,2.5,1,3.7
		c-3.3,4.2-4.1,9.8-7.6,13.9c-3.9-2.3-8.3-3.8-11.7-6.8c-2.2-3.3-3.2-7.3-5.2-10.9c-0.3-0.2-0.9-0.4-1.3-0.6
		c0.3-1.6,0.6-3.3,0.9-4.9c-1.6-0.1-3.2-0.2-4.8-0.3l0-0.9c1.5-0.1,3.1-0.2,4.6-0.2c1.4,2.3,2.8,4.8,4.6,6.8
		c1.3,1.8,3.8,1.2,5.7,1.6c0-1.6,0-3.2,0-4.9c-2-0.5-4.1-0.9-6.1-1.5l0.8,0c1.5-0.1,2.9-0.1,4.4-0.2c0.1-1.6,0.1-3.2,0.1-4.7
		c-0.8-0.5-1.6-1.1-2.4-1.5c0.7-0.7,1.4-1.5,2.1-2.2c-0.3-0.6-0.9-1.8-1.2-2.5c-1.4,0.4-2.9,0.8-4.3,1.2c0.2,0.7,0.7,2,0.9,2.6
		c-1.1-0.3-2.2-0.7-3.4-1c0,1.2,0.1,2.4,0.1,3.5c-0.3-0.4-1-1.3-1.3-1.7c-1.7-0.3-3.3-0.7-5-1.1c1.4-0.1,2.8-0.2,4.1-0.4
		c0.1-1.2,0.1-2.4,0.2-3.6c-1.5-0.1-3-0.2-4.5-0.2c1.5-0.4,3.1-0.9,4.6-1.3c0.6-2.4,1.2-4.7,2-7C79,60.4,80.7,61.3,82.4,62.2
		 M77,62.3c0.9,1.8,1.8,3.6,2.6,5.4c1.3-0.1,2.6-0.2,3.9-0.4c-0.3-1.3-0.4-2.6-1.1-3.8C80.7,62.9,78.9,62.6,77,62.3 M81.2,88.6
		c0.3,0.8,0.8,2.4,1.1,3.2c1.6,0,3.3-0.1,4.9-0.1c-0.2-1.5-0.3-3-0.4-4.5C84.8,87.2,82.9,87.7,81.2,88.6z"/>
</g>
<g id="_x23_a1853dff">
	<path class="st38" d="M30.2,74.3c3.3-6.4,7.1-12.7,12.2-17.8c-0.6,2.9-1.6,5.7-2.7,8.5c1.2-0.5,2.3-1.1,3.5-1.7
		c-7,10.3-13.4,21.4-16.3,33.6c-0.5,0.2-1.5,0.6-2,0.8c1.1-6.1,3.5-11.9,3.4-18.2C28.4,77.6,29.4,75.9,30.2,74.3z"/>
</g>
<g id="_x23_050606ff">
	<path class="st39" d="M100.3,61.1c0.9-1.9,3-2.9,4.6-4.1c0.5,1.6,1.1,3.2,1.3,5c-0.7,1.6-1.9,3-3.3,4.1
		C101,65.3,100.6,62.9,100.3,61.1z"/>
</g>
<g id="_x23_3a393bff">
	<path class="st40" d="M129.6,57.5c2.3-0.9,4.5,0.6,6.6,1.3c-1.4,4.5-2.7,9.1-4.3,13.6l-0.3,0.8c-1.6,4.8-3.5,9.7-6.3,14
		c-3.5-7.7-6-15.9-8.7-23.9c0.5,0.3,1.1,0.6,1.7,1C121.9,61.8,125.4,59,129.6,57.5z"/>
</g>
<g id="_x23_050505ff">
	<path class="st41" d="M146.3,56.9c1.5,1,3.3,1.9,4.3,3.5c0.1,1.9-0.4,3.8-0.8,5.7c-1.8-1-4.1-1.9-4.5-4.1
		C145.3,60.2,145.9,58.6,146.3,56.9z"/>
</g>
<g id="_x23_eaebebff">
	<path class="st42" d="M94.4,62c1.5-0.2,2.9-0.5,4.4-0.8c0.4,1.5,0.7,3,1.1,4.5c-1.4,0.4-2.9,0.7-4.3,1C95.2,65.2,94.8,63.6,94.4,62
		z"/>
</g>
<g id="_x23_f2f2f2ff">
	<path class="st43" d="M153,61.2c1.3,0.3,2.6,0.6,3.9,0.9c-0.7,1.5-0.7,3.5-2.1,4.6c-1.3-0.4-2.5-1-3.6-1.6
		C151.7,63.8,152.4,62.5,153,61.2z"/>
</g>
<g id="_x23_2b2a2cff">
	<path class="st44" d="M40,92.2c3.6-11.2,9.2-22.2,17.9-30.3C54,69,49,75.6,46.3,83.3c3.4-3.3,5.4-7.8,9.1-11
		c4.8-0.7,9.2,1.8,12.9,4.5c-4,6.6-7.3,13.7-12.5,19.4c-2.9-1-5.9-1.9-8.4-3.7c-2.4-1.4-1.9-4.5-2.3-6.8C43.4,87.9,41.6,90,40,92.2z
		"/>
</g>
<g id="_x23_edededff">
	<path class="st45" d="M77,62.3c1.9,0.3,3.7,0.6,5.5,1.2c0.7,1.2,0.8,2.5,1.1,3.8c-1.3,0.1-2.6,0.3-3.9,0.4
		C78.8,65.9,77.9,64.1,77,62.3z"/>
</g>
<g id="_x23_0a0b0cff">
	<path class="st46" d="M110.7,61.7c0.8,0.1,2.4,0.4,3.2,0.6c0.4,1.5,0.7,3.1,1.1,4.7c-1.2,0.8-2.3,1.5-3.5,2.3l-1.2,0.4
		c-0.8-1.7-1.7-3.4-2-5.3C109,63.4,109.8,62.5,110.7,61.7z"/>
</g>
<g id="_x23_080b0cff">
	<path class="st47" d="M135.6,66.8c1.2-1.9,1.8-5,4.5-5c1.1,0.8,2.1,1.5,3,2.4c-0.7,1.8-1.6,3.4-2.5,5.1
		C139,68.4,137.3,67.6,135.6,66.8z"/>
</g>
<g id="_x23_060809ff">
	<path class="st48" d="M158.2,63.1c2.5,1.2,4.5,3.4,3.1,6.3c-1.8,0.4-3.6,0.1-5.4,0c-0.6,1.3-1.3,2.6-1.9,3.9
		c-1.8-0.2-3.6-0.5-5.3-0.7c0.4-1.8,0.9-3.5,1.3-5.3c1.9,0.2,3.7,0.4,5.6,0.4C156.8,66.4,157.4,64.7,158.2,63.1z"/>
</g>
<g id="_x23_eff0efff">
	<path class="st49" d="M168.4,63c1.9-0.5,3.7-0.1,5.5,0.6c-0.7,1.4-1.4,2.8-2.1,4.2c-1.1-0.1-2.2-0.2-3.4-0.2
		C168.4,66,168.4,64.5,168.4,63z"/>
</g>
<g id="_x23_060607ff">
	<path class="st50" d="M89.4,68.4c-0.7-2,0.8-3.8,1.5-5.5c1.2,0.7,2.3,1.5,3.4,2.3c0.8,2.2-1,4.1-2.1,5.8
		C91.2,70.2,90.3,69.4,89.4,68.4z"/>
</g>
<g id="_x23_8d8d8fff">
	<path class="st51" d="M108.3,69.4c-3.1-0.1-3.7-3.8-1.7-5.6C107.2,65.6,107.8,67.5,108.3,69.4z"/>
</g>
<g id="_x23_a2a2a3ff">
	<path class="st52" d="M163.1,66.6c1.9-0.9,2.7,3.1,0.7,3.2C162.5,69.6,162.2,67.5,163.1,66.6z"/>
</g>
<g id="_x23_7a7b7dff">
	<path class="st53" d="M70.6,67.9c1.5,0.1,3,0.2,4.5,0.2c-0.1,1.2-0.1,2.4-0.2,3.6c-1.4,0.1-2.8,0.2-4.1,0.4
		C70.7,70.7,70.7,69.3,70.6,67.9z"/>
</g>
<g id="_x23_efeeefff">
	<path class="st54" d="M134.6,68.8c2-0.2,4,0.2,6.1,0.4c-0.1,2.4-0.6,4.8-1.3,7.2c-0.8-0.2-2.4-0.5-3.2-0.7
		c-1.6-0.7-3.1-1.6-4.6-2.5l0.3-0.8C132.8,71.1,133.6,69.9,134.6,68.8z"/>
</g>
<g id="_x23_7d7e7fff">
	<path class="st55" d="M174.9,68.8c1.6-0.3,3.3-1.6,4.9-0.9c1.6,1.1,0.4,3.2,0.4,4.8C177.7,72.6,176.1,70.9,174.9,68.8z"/>
</g>
<g id="_x23_040405ff">
	<path class="st56" d="M79.5,69.8c1.4-0.4,2.9-0.8,4.3-1.2c0.3,0.6,0.9,1.8,1.2,2.5c-0.7,0.7-1.4,1.5-2.1,2.2
		c-0.6-0.2-1.9-0.6-2.5-0.8C80.2,71.8,79.7,70.5,79.5,69.8z"/>
</g>
<g id="_x23_7c7c7eff">
	<path class="st57" d="M77,71.4c1.1,0.3,2.2,0.7,3.4,1c0.6,0.2,1.9,0.6,2.5,0.8c0.8,0.5,1.6,1,2.4,1.5c-1.3-0.2-2.7-0.3-4-0.5
		c-0.2,1.8-0.3,3.6-0.5,5.5l-0.8,0c-1.1-1.5-2-3.2-2.9-4.8C77.1,73.8,77.1,72.6,77,71.4z"/>
</g>
<g id="_x23_070809ff">
	<path class="st58" d="M103.7,73.2c1.3-1.2,2.8-2.1,4.5-2.8c1.9,2.1,2.1,5,0.9,7.5c-0.1,0.4-0.3,1.1-0.4,1.5
		c-1.2,0.1-2.5,0.2-3.7,0.3C104.4,77.5,103.8,75.4,103.7,73.2z"/>
</g>
<g id="_x23_b0b0b1ff">
	<path class="st59" d="M158.9,76.7c-1.1-2.3,0.2-4.5,1-6.6c0.8,0.9,1.6,1.9,2.4,2.8l-0.4,1C161,75,160,76,158.9,76.7z"/>
</g>
<g id="_x23_010102ff">
	<path class="st60" d="M85.7,73.6c1.2-0.6,2.4-1.1,3.6-1.7c-0.3,2.3-0.8,4.6-1.4,6.8C87.1,76.9,86.4,75.3,85.7,73.6z"/>
</g>
<g id="_x23_e9e8e9ff">
	<path class="st61" d="M81.3,74.3c1.3,0.2,2.7,0.3,4,0.5c0,1.6,0,3.2-0.1,4.7c-1.5,0.1-2.9,0.2-4.4,0.2C81,77.9,81.2,76.1,81.3,74.3
		z"/>
</g>
<g id="_x23_e9e9e9ff">
	<path class="st62" d="M149.8,74.2c1.3,0.1,2.7,0.1,4,0.1c-0.3,2.2-0.6,4.4-1,6.6c-1.1-0.5-2.3-0.9-3.3-1.5
		C149.1,77.7,149.6,75.9,149.8,74.2z"/>
</g>
<g id="_x23_ededeeff">
	<path class="st63" d="M167.2,73.9c1,0.3,2,0.7,2.9,1.1c0.4,1.5,0.4,3,0.6,4.5c-0.8,0.1-2.5,0.2-3.4,0.2l-1,0
		C166.7,77.7,166.9,75.8,167.2,73.9z"/>
</g>
<g id="_x23_2f2f31ff">
	<path class="st64" d="M127.7,92.9c1-5.9,3.4-11.6,5.3-17.3c0.6,0,1.7,0,2.2,0l-0.8,0.4c-1.1,1.7-2.5,3.6-2.1,5.8
		c2,2.3,4.6,4.1,7.2,5.6c2.9,1.8,6.6,0,9.6,1.4c-2.2,7.1-5.6,13.7-8.2,20.6c2.7,0.5,5.4,1.1,8.1,1.8c-1.6-0.1-3.3-0.1-4.9-0.1
		c-3.8-0.4-7.5-1.2-11.2-1.6C131.4,103.9,128.5,98.7,127.7,92.9z"/>
</g>
<g id="_x23_abacacff">
	<path class="st65" d="M108.6,79.4c0.1-0.4,0.3-1.1,0.4-1.5c1.1,0.5,2.2,1.1,3.3,1.7c0.1,1.7,0.2,3.5-0.9,4.9c-0.7-0.3-2.2-1-3-1.4
		C108.5,81.8,108.6,80.6,108.6,79.4z"/>
</g>
<g id="_x23_9c9c9eff">
	<path class="st66" d="M138.4,82.9c0.9-1.8,1.8-3.5,2.7-5.2c0.5,0.3,1.4,0.9,1.9,1.2c-0.3,1.5-0.7,2.9-1,4.4
		C141.1,83.1,139.3,83,138.4,82.9z"/>
</g>
<g id="_x23_9a9b9cff">
	<path class="st67" d="M160.8,78c0.7,0.3,2,0.9,2.6,1.2c-0.2,2-0.6,3.9-2.4,5.1C160.8,82.2,160.8,80.1,160.8,78z"/>
</g>
<g id="_x23_5b5c5eff">
	<path class="st68" d="M175.4,78.1c1.4,0,2.9,0.1,4.3,0.1l0.1,0.9c-1.3,0.1-2.7,0.2-4,0.3c0.3,1.5,0.6,3,0.9,4.5
		c-0.5,0.1-1.6,0.3-2.1,0.3c-0.3,0.6-0.9,1.8-1.2,2.4c-0.6,1.2-1.2,2.4-1.8,3.6c-0.3,0.6-1,1.8-1.3,2.4c-1.9,0.1-3.9,0.3-5.8,0.3
		l-0.5-0.8c2.1-0.3,4.3-0.6,6.4-0.9c-0.2-1.5-0.5-2.9-0.7-4.4c0.7-1.3,1.3-2.7,2-4.1c0.7-0.2,1.4-0.4,2.2-0.6
		C174.2,80.8,174.8,79.5,175.4,78.1z"/>
</g>
<g id="_x23_9a9b9bff">
	<path class="st69" d="M71.2,78.9c1.6,0.1,3.2,0.2,4.8,0.3c-0.3,1.6-0.6,3.3-0.9,4.9c-1.3-0.3-2.6-0.5-3.9-0.8
		C71.2,81.9,71.2,80.4,71.2,78.9z"/>
</g>
<g id="_x23_a5a5a6ff">
	<path class="st70" d="M175.8,79.4c1.3-0.1,2.6-0.2,4-0.3c0,1.4,0,2.9,0,4.4c-0.8,0.1-2.4,0.3-3.1,0.5C176.3,82.5,176,81,175.8,79.4
		z"/>
</g>
<g id="_x23_7e5f12ff">
	<path class="st71" d="M22.2,95.1c1.3-5.4,3.1-10.8,6.2-15.5c0,6.2-2.3,12.1-3.4,18.2c0.5-0.2,1.5-0.6,2-0.8
		c-1.8,7.9-2.9,16-3.3,24.1c-0.4,8.6,1.2,17.2,2,25.7c-0.6,1.7-1.3,3.5-0.7,5.4c1.6,6.5,4,12.9,7,18.9c2.8,5.5,5.4,11.3,9.9,15.8
		c-1.1,0.4-2.2,0.7-3.3,1.1c-15.1-21.1-23.3-47.9-19.2-73.9C19.2,107.6,19.7,101.1,22.2,95.1z"/>
</g>
<g id="_x23_171718ff">
	<path class="st72" d="M88.8,84.7c0.3,0.3,0.9,1,1.2,1.3c0.4,0.4,1.2,1.2,1.6,1.7c-0.7,1.4-1.5,2.8-2.2,4.2
		C87.7,89.7,87.9,87.1,88.8,84.7z"/>
</g>
<g id="_x23_969797ff">
	<path class="st73" d="M164.2,86.2c1.8,0.2,3.5,0.5,5.3,0.7c0.2,1.5,0.5,2.9,0.7,4.4c-2.1,0.3-4.3,0.7-6.4,0.9
		C163.9,90.2,164.1,88.2,164.2,86.2 M164.9,87.5c0,1.1-0.1,3.2-0.1,4.2c1.4-0.3,2.7-0.9,3.8-1.6C168.9,87.6,166.7,87.8,164.9,87.5z"
		/>
</g>
<g id="_x23_e4e4e4ff">
	<path class="st74" d="M81.2,88.6c1.7-0.9,3.6-1.3,5.6-1.4c0.1,1.5,0.3,3,0.4,4.5c-1.7,0-3.3,0-4.9,0.1C82,90.9,81.5,89.4,81.2,88.6
		z"/>
</g>
<g id="_x23_2d2d2fff">
	<path class="st75" d="M171.4,90.3c0.6-1.2,1.2-2.4,1.8-3.6c0.3,0.7,0.9,2.2,1.2,2.9c1.6,0.3,3.3,0.7,4.9,1.1
		c0.9,1.3,1.6,2.6,2.7,3.7c2.5,0.7,5.1-0.3,7.6-0.7c3.7-0.9,7.5-0.7,11.2-0.3c1.3-2.1,2.7-4.2,4.1-6.2c1.7,2.6,3.2,5.4,4.3,8.4
		c-2.5-0.1-5-0.4-7.4,0.2c-3.2,4.9-3.9,10.8-5.7,16.3c3,0.1,5.9,0.1,8.9,0.2c-0.2,0.4-0.5,1.2-0.6,1.6c2.7,0.5,5.2,1.4,7.2,3.2
		c-3.4,0.2-6.8,0-10-1.1c0-0.7-0.1-2.1-0.1-2.8c-6.5-0.9-13.2-0.9-19.8-1.1c1.8-0.6,3.6-1.2,5.4-1.9c-5.6-3.7-12.1-0.7-18.1-1.4
		c0.1-6.5,4.8-12.1,4-18.8C172.6,90.1,171.8,90.2,171.4,90.3 M175.1,91.5c-1,2.4,0.4,4.6,2.9,5c2.1-1.1,1.2-3.4,1.3-5.2
		C177.9,91.3,176.5,91.4,175.1,91.5z"/>
</g>
<g id="_x23_30362dff">
	<path class="st76" d="M220.2,86.5l0.3,0.8c3.5,9.5,6.3,19.5,6.9,29.7c-0.1,0.3-0.4,0.8-0.5,1.1c-4.2-0.6-8.5-0.9-12.8-0.9
		c-0.2-1.4-0.3-2.9-0.4-4.3c0.8,1.1,1.6,2.2,2.6,3.2c1.7,0.3,3.5,0.3,5.2,0.4C217.4,107,219.7,96.4,220.2,86.5z"/>
</g>
<g id="_x23_684c1eff">
	<path class="st77" d="M220.5,87.3c2,2.7,4.8,4.8,6.6,7.6c1.5,2.9,1.8,6.1,2.6,9.2c0.1-0.4,0.4-1.2,0.5-1.6c2.8,8.2,2.4,17,2.4,25.5
		c0.2,11.9-3,23.6-6.6,34.8c-0.1-0.2-0.3-0.6-0.4-0.8c-1.2-2.4-1.4-5-1.6-7.6c-6.3-2.9-12.8-6.3-20-5.6c-0.6-2.7-0.6-5.4-0.3-8.1
		c2.2,0.9,4.4,1.8,6.5,2.8c0.3-3,0.9-6.1,1.6-9c2.1,2,2.9,4.8,3.4,7.5c1.9-0.1,3.9-0.2,5.8-0.3c0.2-1.5,0.4-3,0.5-4.6
		c1.1,1.9,2.2,3.8,3.3,5.7c2.2-5,0.5-10.2-0.9-15.1c2.2-2.8,2.2-6.3,2.5-9.6c0.1-0.3,0.4-0.8,0.5-1.1
		C226.8,106.8,224,96.8,220.5,87.3z"/>
</g>
<g id="_x23_424143ff">
	<path class="st78" d="M122.5,87.8c0.6,2.2,1.7,4.4,1,6.7c-1.2,4.2-3.1,8.3-4.1,12.5c-1.4-2-3-3.9-4.7-5.7
		C117.1,96.7,119.6,92.1,122.5,87.8z"/>
</g>
<g id="_x23_eaeaebff">
	<path class="st79" d="M164.9,87.5c1.8,0.2,4,0.1,3.7,2.6c-1.2,0.8-2.4,1.3-3.8,1.6C164.8,90.7,164.9,88.6,164.9,87.5z"/>
</g>
<g id="_x23_2a292bff">
	<path class="st80" d="M70.6,89.7c0.3,1.7,0.6,3.5,0.6,5.2c-1.6,2.8-3.9,5-5.3,8c-1.5,2.6-2.8,6-6.1,6.6c-2.7-0.1-5.3-1.1-7.9-1.8
		c1.2-3.3,2.1-7.4,5.6-9.1c3.9-1.9,7.9-3.3,11.9-5C69.7,92.3,70.2,91,70.6,89.7z"/>
</g>
<g id="_x23_c6c6c6ff">
	<path class="st81" d="M72,91.3c1.6-0.1,3.2,0,4.8,0c1.7,3.2-1.6,4.5-4,5.5C71.5,95.2,71.7,93.2,72,91.3z"/>
</g>
<g id="_x23_d9d9d9ff">
	<path class="st82" d="M175.1,91.5c1.4-0.1,2.8-0.2,4.2-0.3c0,1.9,0.8,4.2-1.3,5.2C175.6,96,174.1,93.8,175.1,91.5z"/>
</g>
<g id="_x23_3e3d3cff">
	<path class="st83" d="M125.2,97.5c2.7,4.1,4.4,8.7,5.5,13.4c0.3-0.2,0.9-0.6,1.2-0.8c0.2-0.2,0.7-0.5,1-0.7
		c3.8,0.4,7.5,1.2,11.2,1.6c-1.5,0.7-2.9,1.4-4.3,2.1c2.4,0.6,4.9,1.1,7.3,1.8c-9.9-0.3-19.7-1.3-29.6-1.1c-9.6,0.4-19.4,1-29-0.2
		c5.1-2.3,10.8-2.3,16.2-3.8c-0.4-1.6-0.8-3.2-1.2-4.8c3.2-0.9,6.4-1.6,9.6-2.1c-0.7,2.8-1.4,5.6-2.1,8.4c2.6-0.3,5.2-0.8,7.8-1.6
		c-0.1,0.4-0.2,1.2-0.3,1.7C122.4,107.7,123.6,102.4,125.2,97.5z"/>
	<path class="st83" d="M65,124.9c0.1-1,0.3-2.1,0.4-3.1c2.9,3.1,5.9,6.1,8.6,9.4C70.2,130.6,67.1,128.1,65,124.9z"/>
	<path class="st83" d="M40.4,142.4c1.6-1.2,2.9-2.6,3.8-4.3c0.7,3.6,1.7,7.1,2.7,10.6c-0.4-0.2-1.2-0.5-1.6-0.7
		c-0.9-1.5-2-3-3.2-4.2C41.7,143.3,40.9,142.7,40.4,142.4z"/>
</g>
<g id="_x23_2c2d28ff">
	<path class="st84" d="M100,104.3c3.2-0.2,5.8-2.5,9-2.9c1.9-0.2,3.8-0.1,5.7-0.1c1.7,1.8,3.3,3.6,4.7,5.7c-0.1,0.7-0.4,2.1-0.6,2.8
		c-2.5,0.7-5.1,1.2-7.8,1.6c0.7-2.8,1.4-5.6,2.1-8.4c-3.3,0.5-6.5,1.2-9.6,2.1c0.4,1.6,0.8,3.2,1.2,4.8c-5.3,1.5-11.1,1.5-16.2,3.8
		c9.6,1.3,19.3,0.6,29,0.2c9.9-0.2,19.8,0.8,29.6,1.1c2.6,0.9,4.1,3.4,6,5.3c-4.2,0-8.4-0.1-12.6-0.6c-1.7-2.1-3.6-4.4-6.6-4.3
		c-17-0.9-34,0.3-51-0.3c0.2-0.4,0.6-1.2,0.8-1.7c-3-0.2-6.1-0.6-9.1-1c4.1-0.5,8.2-0.7,12.4-0.9c3.9,0.1,5-4.6,7.7-6.6
		C96.5,104.3,98.3,104.5,100,104.3z"/>
</g>
<g id="_x23_77654aff">
	<path class="st85" d="M144.2,111.1c1.6,0,3.2,0,4.9,0.1c10.8,2.3,21.8,0.3,32.7,0.9c6.6,0.2,13.2,0.2,19.8,1.1c0,0.7,0,2.1,0.1,2.8
		c0,0.3,0,0.8,0,1.1c-1.6-0.8-3.2-1.5-4.9-2.3c0.7,1.5,1.4,3.1,2.1,4.6c-0.2,0.1-0.8,0.3-1,0.4c-1.3-1.9-2.9-3.8-5-4.9
		c-2,0.2-3.6,1.6-5.3,2.6c1.3,1.8,2.5,3.7,3.7,5.5c1,2,1.8,4.2,2.5,6.3c-2.8-1.5-5.9-2.7-8-5.2c-1.4-2.3-1.6-5.1-1.7-7.8
		c0.1-0.7,0.3-2,0.4-2.7c-9.6-1.1-19.5-1.8-29.1,0c0,1.9,0.1,3.8,0.3,5.7l0.1,1c-0.7,0-2,0-2.7,0c-1.8-1.9-3.4-4.3-6-5.3
		c-2.4-0.7-4.9-1.3-7.3-1.8C141.3,112.4,142.7,111.7,144.2,111.1z"/>
</g>
<g id="_x23_6c6240ff">
	<path class="st86" d="M205,112.2c2.9,0.1,5.8,0.3,8.7,0.7c0.1,1.4,0.3,2.9,0.4,4.3c-0.6,0-1.9-0.1-2.6-0.1c-2-1.8-4.6-2.8-7.2-3.2
		C204.5,113.4,204.8,112.6,205,112.2z"/>
</g>
<g id="_x23_817953ff">
	<path class="st87" d="M35.2,114.9c5.9-2.4,12.4-1.8,18.6-1.9c1.8,8,0.6,16.1,0.4,24.2c4.1-6.3,2.8-14.1,2.7-21.3
		c2.5,0,4.9-0.6,7.2-1.5c-2.8-0.6-5.6-1.1-8.4-1.4c5.7,0,11.5-0.1,17.2-0.2c-0.1,1-0.3,2.1-0.4,3.1c-0.1,0.9-0.2,1.8-0.3,2.8
		c-0.6-1.6-1.1-3.1-1.6-4.7c-1.6,0-3.3,0-4.9,0.1c0,2.6,0,5.1-0.2,7.7c-0.1,1-0.2,2.1-0.4,3.1c-0.6-0.8-1.2-1.7-1.8-2.5
		c-0.2,1-0.5,2-0.8,3c-0.6,0.9-1.2,1.8-1.9,2.7c-0.3,0.4-0.9,1.2-1.2,1.6c-0.2,0.2-0.5,0.7-0.6,0.9c0.2,3.5,1.2,6.8,2.7,10
		c0.4,0.8,0.8,1.6,1.2,2.4c3.2-4.6,8.1-7.3,13.3-8.8c-0.5,2.1-0.9,4.2-1.3,6.3c-2.9,2-4.5,5.1-4.5,8.6c-0.7-0.6-1.4-1.2-2.1-1.7
		c-0.5,1.4-1,2.8-1.5,4.2c0.7,0.6,1.5,1.2,2.2,1.8c-1.1,0.4-2.2,0.8-3.2,1.1c-0.2-0.3-0.5-1-0.7-1.3c-0.1-1.5-0.1-3-0.1-4.6
		c-0.5,0.3-1,0.6-1.4,0.9c-0.6-1-1.2-1.9-1.8-2.9c-1,2.2-2.9,4.6-2.2,7.2c1.4,4.7,4.6,8.7,7,12.9c0.5,0.8,0.9,1.6,1.4,2.4
		c1.2,1.7,2.5,3.2,3.8,4.8c-0.1,0.4-0.3,1.3-0.4,1.7c0.6,2.4,1.6,4.5,2.7,6.7c-0.6,1.5-1.3,2.9-1.9,4.4
		c-11.1-8.8-18.5-21.4-23.9-34.4c-0.8,0.5-1.5,1.1-2.3,1.6l0-0.8c0-1.7-0.1-3.4-0.3-5.1c0.4,0.2,1.2,0.6,1.6,0.7
		c-1-3.5-2-7-2.7-10.6c-1,1.7-2.2,3.2-3.8,4.3c0.4,0.3,1.3,1,1.7,1.3c-1.1,0.5-2.2,1-3.3,1.6c0,1.6,0,3.1,0.2,4.7
		c-0.6-3-0.4-6.2-2-8.9c-2.1-4.1-2.3-8.9-0.5-13.1c1.6-1.2,4.4-1.6,4.7-4c0.4-3.3,0.1-6.8-1.5-9.8c-4.9,1.6-4.3,7.8-3.8,11.8
		C34.8,122.5,35.1,118.7,35.2,114.9 M50.7,113.4c0.2,6.6-0.1,13.3,0.5,19.9C54.3,127.3,54.5,119,50.7,113.4 M37.6,130.1
		c-0.2,3-1,5.9-0.8,8.9c0.5,2.2,3.5,1.8,5,0.8c1-2.4,0.2-5.1-0.3-7.5C41.2,130.5,39,130.5,37.6,130.1 M65.9,145.1
		c2.3-1.5,4.3-3.4,5.5-6C68.4,139.8,66.5,142.1,65.9,145.1z"/>
</g>
<g id="_x23_9c986bff">
	<path class="st88" d="M53.8,113.1c0.5,0,1.4,0,1.9,0.1c2.8,0.3,5.6,0.8,8.4,1.4c-2.3,0.9-4.7,1.4-7.2,1.5
		c0.1,7.1,1.5,14.9-2.7,21.3C54.4,129.2,55.7,121.1,53.8,113.1z"/>
</g>
<g id="_x23_cba157ff">
	<path class="st89" d="M72.9,112.9c1.2,1.2,2.4,2.5,3.7,3.7c0.8,0.8,1.6,1.5,2.4,2.2c2.4,0.8,4.8,1.4,7.3,2c0,6,0.2,12,0,18
		c-0.8,1.5-1.6,2.9-2.4,4.4c-0.6-3.7-0.8-7.5-0.8-11.3c-0.1-2.9,0.2-6.1-1.7-8.6c-3.1-2.3-6.1-4.8-8.9-7.4
		C72.6,115,72.8,113.9,72.9,112.9z"/>
</g>
<g id="_x23_b19c84ff">
	<path class="st90" d="M155.5,113.6c9.6-1.7,19.4-1.1,29.1,0c-0.1,0.7-0.3,2-0.4,2.7c-0.8-0.2-2.3-0.6-3-0.8c-1.2-0.7-2.3-1.3-3.5-2
		c0.5,3.2,1,6.4,1.4,9.7c-0.9-1.6-1.9-3.2-2.9-4.7c-0.1-1.2-0.1-2.4-0.1-3.6c-1.5,0-3,0.1-4.5,0.2c-0.4,1.5-0.8,2.9-1.2,4.4
		c0-1.9-0.1-3.8-0.1-5.7C165.2,113.7,160.3,113.7,155.5,113.6z"/>
</g>
<g id="_x23_c4bc7cff">
	<path class="st91" d="M36,126c-0.5-4.1-1.1-10.2,3.8-11.8c1.5,3,1.9,6.5,1.5,9.8c-0.2,2.4-3.1,2.8-4.7,4
		C36.5,127.4,36.2,126.5,36,126z"/>
	<path class="st91" d="M150.4,139.3c0.5-0.1,1.5-0.2,2-0.3c0,2-0.5,3.9-1.9,5.3C150.5,142.7,150.4,141,150.4,139.3z"/>
</g>
<g id="_x23_9d9867ff">
	<path class="st92" d="M50.7,113.4c3.9,5.7,3.7,14,0.5,19.9C50.6,126.7,50.9,120,50.7,113.4z"/>
</g>
<g id="_x23_a99e69ff">
	<path class="st93" d="M65.6,114.1c1.6,0,3.3-0.1,4.9-0.1c0.5,1.6,1,3.2,1.6,4.7c2,2.3,4.1,4.4,6.3,6.5c0.6,0.6,1.2,1.2,1.9,1.9
		c0,0.5,0,1.6,0,2.2c-4.9-3.3-8.7-7.9-12.7-12.1c0.8,6.2,6.2,9.9,10.4,13.9c0.7,0.6,1.3,1.2,1.9,1.7c-1.3,0.4-2.6,0.8-3.9,1.2
		c-5.2,1.5-10.2,4.3-13.3,8.8c-0.4-0.8-0.8-1.6-1.2-2.4c1.5-1.3,3-2.5,4.5-3.8c-2.2-2.4-4.4-4.8-6.5-7.1c0.3-0.4,0.9-1.2,1.2-1.6
		c2.3,2.2,4.9,4.1,7.9,5.2c-1.6-2.9-3.7-5.5-6-7.9c0.3-1,0.5-2,0.8-3c0.6,0.8,1.2,1.7,1.8,2.5c2.1,3.2,5.2,5.7,9,6.3
		c-2.7-3.3-5.7-6.3-8.6-9.4C65.6,119.2,65.7,116.7,65.6,114.1z"/>
	<path class="st93" d="M154.8,138.9c4.4-0.2,8.9-0.2,13.4,0.4c-4.1,0.9-8.2,1.6-12.3,2.6c-0.6,0.1-1.7,0.4-2.3,0.6
		C154.1,141.2,154.4,140,154.8,138.9z"/>
</g>
<g id="_x23_fdedfcff">
	<path class="st94" d="M155.5,113.6c4.9,0.1,9.8,0.1,14.6,0.1c0,1.9,0.1,3.8,0.1,5.7c-4.8,0.2-9.6,0.1-14.4-0.1
		C155.6,117.4,155.5,115.5,155.5,113.6z"/>
</g>
<g id="_x23_e5d3bcff">
	<path class="st95" d="M177.6,113.5c1.2,0.7,2.3,1.3,3.5,2c-0.2,3.8-0.4,7.6-0.4,11.3c-0.3-0.2-1-0.5-1.4-0.7
		c-0.1-0.7-0.3-2.2-0.4-3C178.6,119.9,178.1,116.7,177.6,113.5z"/>
</g>
<g id="_x23_13140fff">
	<path class="st96" d="M76.6,116.6c1.7-1.7,4.2-1.5,6.4-1.6c17,0.6,34-0.6,51,0.3c3-0.1,4.9,2.2,6.6,4.3c4.2,0.5,8.4,0.6,12.6,0.6
		c0.7,0,2,0,2.7,0c5.8,0.1,11.6,0.1,17.3,0c-0.4,1.8-0.9,3.7-1.3,5.5c-2-0.9-4-1.8-6-2.5c-6.6-1.1-13.3-0.7-19.8,1
		c-4.3-2.7-6.7,4.4-10.9,3.2c-2.9-1.5-5.3-3.8-8.5-4.5c-1.7,0-3.3,0.1-4.9,0.3c-0.3,2.8-0.6,5.6-0.9,8.5c-3.4,0-6.8-0.1-10.3-0.1
		c-0.1-0.6-0.3-1.9-0.4-2.5c-0.3-1.9-0.4-3.8-0.6-5.7c-1,0.1-1.9,0.3-2.9,0.4c-0.2,2.7-0.3,5.4-0.5,8.1c-3.8,0-7.7,0.3-11.4-0.4
		c-0.5-2.6-0.6-5.3-0.8-8c-0.8-0.2-2.4-0.8-3.2-1c-0.4,2.4-0.8,4.9-1.2,7.3c-0.6,0-1.8,0.1-2.4,0.1c-0.2-3.5-0.4-7.1-0.6-10.7
		c-2.5-0.2-5-0.3-7.5-0.4C78.2,118.1,77.4,117.4,76.6,116.6z"/>
</g>
<g id="_x23_7c5733ff">
	<path class="st97" d="M171.4,115c1.5-0.1,3-0.1,4.5-0.2c0,1.2,0.1,2.4,0.1,3.6c1,1.5,2,3.1,2.9,4.7c0.1,0.7,0.3,2.2,0.4,3
		c-1.9,1-3.9,1.9-5.8,2.9c0.2-2.9,0.4-5.9,0.6-8.8l-1,0c-5.8,0.2-11.6,0.1-17.3,0l-0.1-1c4.8,0.2,9.6,0.2,14.4,0.1
		C170.6,117.9,171,116.5,171.4,115z"/>
</g>
<g id="_x23_66512fff">
	<path class="st98" d="M187.6,117.5c1.7-1,3.2-2.4,5.3-2.6c2.1,1.1,3.6,3,5,4.9c0.7,1.2,1.3,2.4,1.9,3.6l0.4,0.7c-2.1-0.9-4-2-6-3.1
		c1.4,2,2.7,4.1,3.8,6.3c-2.5-1-4.8-2.3-6.6-4.4C190.1,121.2,188.9,119.3,187.6,117.5z"/>
</g>
<g id="_x23_434229ff">
	<path class="st99" d="M196.8,114.8c1.6,0.8,3.2,1.5,4.9,2.3c0.1,0.9,0.1,1.8,0.2,2.7c-1-0.1-2-0.3-3-0.4
		C198.2,117.9,197.5,116.3,196.8,114.8z"/>
</g>
<g id="_x23_918357ff">
	<path class="st100" d="M181.1,115.5c0.8,0.2,2.3,0.6,3,0.8c0.1,2.7,0.3,5.5,1.7,7.8c2.1,2.5,5.2,3.7,8,5.2
		c-0.8-2.1-1.5-4.3-2.5-6.3c1.8,2,4.2,3.4,6.6,4.4c-1.2-2.2-2.5-4.2-3.8-6.3c2,1.1,3.9,2.2,6,3.1c3.2,1.3,6.7,1.1,10,1.3
		c0.7,2.2,1.3,4.4,1.1,6.7c-2.7-0.2-5.4-0.5-8.2-0.8c0.5-0.8,1-1.6,1.5-2.4c-2.8-0.3-5.5-0.7-8.3-1c-1.8,1.9-3.6,3.7-5.4,5.6
		c-0.1,0.9-0.1,1.7-0.1,2.5c-2.7,0.7-5.4,1.6-8,2.5l-0.5-0.6c-2.7-2.8-5.7-5.3-8.3-8.2l-0.5-0.8c2-0.9,3.9-1.9,5.8-2.9
		c0.3,0.2,1,0.5,1.4,0.7C180.7,123.1,180.9,119.3,181.1,115.5 M176.6,128.8c1.7,2.5,4.1,4.4,6.9,5.5c-0.4-1.6-0.7-3.5-2.2-4.5
		C179.8,128.9,177.9,126.5,176.6,128.8 M186.3,128.6c1.7,2,3.7,4.7,6.4,2.7C190.9,129.9,189,127.3,186.3,128.6z"/>
</g>
<g id="_x23_8e8053ff">
	<path class="st101" d="M201.6,117.1c0-0.3,0-0.8,0-1.1c3.2,1.1,6.6,1.3,10,1.1c0.6,0,1.9,0.1,2.6,0.1c4.3,0.1,8.5,0.3,12.8,0.9
		c-0.3,3.3-0.4,6.8-2.5,9.6c-1.3-0.4-2.5-0.8-3.8-1.1c-0.1-0.9-0.3-1.8-0.4-2.7c-2.5-0.9-5.1-1.9-7.5-2.9c-3.5,3.5-8.5,2.9-12.9,2.5
		c-0.6-1.2-1.2-2.5-1.9-3.6c0.2-0.1,0.8-0.3,1-0.4c1,0.1,2,0.2,3,0.4C201.8,118.9,201.7,118,201.6,117.1z"/>
</g>
<g id="_x23_373d31ff">
	<path class="st102" d="M67.6,117.2c4.1,4.2,7.8,8.9,12.7,12.1c0,0.4,0,1,0,1.4c-0.6,0.1-1.8,0.3-2.4,0.4
		C73.8,127.1,68.4,123.4,67.6,117.2z"/>
	<path class="st102" d="M70.8,209.7c2.3-3.7,2.1-8.3,3.8-12.2c2.1,1.1,4.2,2.1,6.2,3.3c-1.4,0.3-2.8,0.6-4.1,0.9
		c0,3.8-0.4,7.6-0.3,11.4C74.4,212.1,72.6,210.9,70.8,209.7z"/>
</g>
<g id="_x23_2b2926ff">
	<path class="st103" d="M79,118.8c2.5,0.1,5,0.2,7.5,0.4c0.2,3.6,0.4,7.1,0.6,10.7c0.6,0,1.8-0.1,2.4-0.1c0.4-2.4,0.8-4.9,1.2-7.3
		l0.5,0.9c-0.2,2.3-0.5,4.7-0.6,7c0.6,3.1,3.1,5,6.1,5.2c3.1,0,6.3-0.2,9.4-0.3c-2.3,0.3-4.6,0.8-7,1.2c0.5,0.8,1.1,1.5,1.6,2.3
		c-3.8-0.4-7.6-0.3-11.4-0.2c-0.2,1.4-0.3,2.7-0.4,4.1c0.1,2.3-1.2,5.7,1.8,6.5c1.4-1.1,2.6-2.4,3.8-3.6c1.9,1.1,3.8,2.2,5.6,3.5
		c-0.8,0-2.2,0.1-3,0.1c1,1.1,2.1,2.2,3.1,3.4c-4.8,0.9-9.7,1-14.6,0.4c0.4-4.6,0.5-9.3,0.5-13.9c0.2-6-0.1-12,0-18
		C83.8,120.2,81.4,119.6,79,118.8z"/>
</g>
<g id="_x23_242325ff">
	<path class="st104" d="M173.2,120.2l1,0c-0.2,2.9-0.4,5.9-0.6,8.8c-0.8,7.3-0.1,14.7-0.4,22l-1,0.1c-0.1-1.7-0.2-3.4-0.3-5.1
		c-1.5,0.4-2.9,0.9-4.4,1.3c0.1-0.5,0.4-1.6,0.6-2.2c0.5-2.3,0.7-4.6,0.9-6.9c-4.7,0-9.3,0-14-0.3c-0.1-0.5-0.2-1.6-0.2-2.1
		c3.8,0,7.5-0.3,11.3-0.8c-0.3-4-0.3-7.9-0.1-11.9c2.1,0.8,4,1.7,6,2.5C172.3,123.9,172.7,122.1,173.2,120.2z"/>
</g>
<g id="_x23_816434ff">
	<path class="st105" d="M199.7,123.5c4.5,0.4,9.5,0.9,12.9-2.5c2.5,1,5,2,7.5,2.9c0.1,0.9,0.3,1.8,0.4,2.7c1.2,0.4,2.5,0.8,3.8,1.1
		c1.3,4.9,3.1,10.2,0.9,15.1c-1.2-1.9-2.2-3.8-3.3-5.7c-0.2,1.5-0.3,3-0.5,4.6c-1.9,0.1-3.9,0.2-5.8,0.3c-0.5-2.8-1.3-5.5-3.4-7.5
		c-0.8,3-1.3,6-1.6,9c-2.2-1-4.3-1.9-6.5-2.8c0.2-1.9,0.5-3.9,0.9-5.8c1.9,0.2,3.9,0.4,5.8,0.7c0.2-1.1,0.4-2.3,0.6-3.4
		c0.2-2.3-0.4-4.5-1.1-6.7c-3.3-0.2-6.8,0-10-1.3L199.7,123.5z"/>
</g>
<g id="_x23_866f3fff">
	<path class="st106" d="M81.4,123.4c1.9,2.4,1.7,5.7,1.7,8.6c0,3.8,0.2,7.5,0.8,11.3c0.8-1.4,1.7-2.9,2.4-4.4
		c0,4.7-0.1,9.3-0.5,13.9c-0.1,1.2-0.2,2.4-0.2,3.6c-2-1-3.8-2.4-5.7-3.5c-0.4,0.3-1.2,0.8-1.6,1.1c-0.8-0.2-1.7-0.4-2.5-0.5
		c-1.9,3.5-0.1,7.1,1.4,10.3c-1.7-1.6-3.4-3.2-5.1-4.8c1.3,2.5,2.6,5,3.9,7.6c-0.8-0.2-1.5-0.3-2.3-0.5c0.3,1.8,0.7,3.5,0.6,5.3
		c-0.8,1.5-2,2.8-3.1,4.1c0.1-0.4,0.3-1.3,0.4-1.7c0.3-1.4,0.8-2.8,0.8-4.2c-0.9-1-1.9-1.8-2.9-2.7c-0.4,0.5-1.3,1.6-1.7,2.1
		c-0.5-0.8-1-1.6-1.4-2.4c1.6-2.4-0.2-4.8-1.1-7.1c0.6-0.1,1.7-0.2,2.2-0.3c-0.6-1.7-1.2-3.3-1.9-4.9c1.1-0.4,2.2-0.7,3.2-1.1
		c1,0.8,2,1.6,3.1,2.5c-0.1-1.1-0.2-2.3-0.4-3.4c0.7,0.1,1.5,0.1,2.2,0.1c-0.4-1.7-1-3.5-1.1-5.3c0.3-1.9,1.3-3.7,1.8-5.6
		c0.1-0.3,0.2-0.9,0.2-1.1c0.4-2.1,0.8-4.2,1.3-6.3c1.3-0.4,2.6-0.8,3.9-1.2c-0.7-0.6-1.3-1.2-1.9-1.7c0.6-0.1,1.8-0.3,2.4-0.4
		c0-0.4,0-1,0-1.4c0-0.5,0-1.6,0-2.2c-0.6-0.6-1.3-1.2-1.9-1.9C79.4,124.7,80.4,124.1,81.4,123.4 M76.7,148.1
		c0.1,1.3,1.3,2.1,1.9,3.1c0.9-1.7,1.8-3.5,2.6-5.3C79.6,146.5,77.5,146.4,76.7,148.1z"/>
</g>
<g id="_x23_7a6326ff">
	<path class="st107" d="M90.7,122.4c0.8,0.2,2.4,0.8,3.2,1c0.2,2.7,0.3,5.3,0.8,8c3.8,0.7,7.6,0.4,11.4,0.4c0.1-2.7,0.3-5.4,0.5-8.1
		c0.2,2.1,0.3,4.1,0.5,6.2c1-0.3,2-0.6,3-0.9c0.1,0.6,0.3,1.9,0.4,2.5c3.4,0.1,6.8,0.1,10.3,0.1c0.3-2.8,0.6-5.6,0.9-8.5
		c0.2,2.2,0.3,4.4,0.5,6.6c1-0.2,2.1-0.4,3.1-0.6c-0.3,2.3-1.1,4.4-2,6.5c-5.7,0-11.3-0.6-17-0.5c-0.3-0.6-1-1.8-1.3-2.4
		c-2.9,0.1-5.8,0.2-8.6,0.3c0.1,0.6,0.4,1.8,0.5,2.4c-3.1-0.2-5.5-2.1-6.1-5.2c0.8-0.4,2.5-1.2,3.3-1.6c-0.7-1.9-1.7-3.7-2.7-5.4
		L90.7,122.4z"/>
</g>
<g id="_x23_cbb655ff">
	<path class="st108" d="M106.5,123.7c1-0.1,1.9-0.3,2.9-0.4c0.2,1.9,0.3,3.8,0.6,5.7c-1,0.3-2,0.6-3,0.9
		C106.9,127.8,106.7,125.8,106.5,123.7z"/>
</g>
<g id="_x23_1b1b23ff">
	<path class="st109" d="M121.7,123.2c1.6-0.1,3.3-0.2,4.9-0.3c1.4,2.2,2.9,4.4,4.6,6.4c-1.9,1.8-3.7,3.6-5.5,5.5
		c1.3,0.2,2.6,0.3,3.9,0.5c-2.1,0.4-4.3,0.4-6.5,0.4c0.9-2.1,1.8-4.2,2-6.5c-0.2-1.7-0.4-3.3-0.6-5
		C123.9,123.9,122.4,123.4,121.7,123.2z"/>
</g>
<g id="_x23_d1bf68ff">
	<path class="st110" d="M126.6,122.9c3.2,0.7,5.7,3,8.5,4.5c4.2,1.2,6.6-5.9,10.9-3.2c-1.7,1.6-3.4,3.3-5.2,4.8
		c-3,1.8-6.5,1.4-9.6,0.3C129.5,127.3,128,125.2,126.6,122.9z"/>
</g>
<g id="_x23_5b4f26ff">
	<path class="st111" d="M146,124.2c6.5-1.7,13.2-2.1,19.8-1c-0.2,4-0.2,7.9,0.1,11.9c-3.7,0.4-7.5,0.8-11.3,0.8
		c-2.2-0.3-5.1,0-6.6-2C146,131.1,146.3,127.4,146,124.2 M147.4,130.6c6-0.6,12-0.8,18-1.2c-4.5-2.2-9.6-0.3-14.3-1.2
		c-1.7-0.5-1.9-3,0.1-3.2c4.7-0.9,9.5,1,14.2-0.5c-4.9-1.3-10.2-1.2-15.1-0.3C147.1,124.8,147.1,128.1,147.4,130.6z"/>
</g>
<g id="_x23_b19f51ff">
	<path class="st112" d="M91.2,123.3c1.1,1.7,2,3.5,2.7,5.4c-0.8,0.4-2.5,1.2-3.3,1.6C90.8,128,91,125.6,91.2,123.3z"/>
</g>
<g id="_x23_d9c357ff">
	<path class="st113" d="M121.7,123.2c0.8,0.2,2.3,0.7,3,0.9c0.2,1.7,0.4,3.3,0.6,5c-1,0.2-2.1,0.4-3.1,0.6
		C122,127.6,121.8,125.4,121.7,123.2z"/>
</g>
<g id="_x23_e9da74ff">
	<path class="st114" d="M147.4,130.6c-0.2-2.5-0.3-5.8,2.9-6.4c4.9-0.8,10.2-1,15.1,0.3c-4.7,1.5-9.5-0.4-14.2,0.5
		c-1.9,0.2-1.8,2.7-0.1,3.2c4.7,0.9,9.8-1,14.3,1.2C159.4,129.8,153.3,130,147.4,130.6z"/>
</g>
<g id="_x23_0d0e13ff">
	<path class="st115" d="M140.8,129c1.8-1.5,3.5-3.1,5.2-4.8c0.2,3.2,0,6.9,2.1,9.7c1.5,2,4.3,1.8,6.6,2c0.1,0.5,0.2,1.6,0.2,2.1
		l-0.1,0.9c-0.6,0-1.8,0.2-2.4,0.2c-0.5,0.1-1.5,0.2-2,0.3l-0.8,0.2c-0.4,1.2-0.7,2.4-1.1,3.6c-1-0.6-2.1-1.3-3.1-1.9
		c-2-1.1-4-2.4-6.4-2.5c-5.9-0.4-11.9-0.6-17.7,0.5c-3.5,0.7-6.8-1.2-10.3-0.8c-3.4,0.3-6.8,0.9-10.1,0.2c-0.5-0.8-1.1-1.5-1.6-2.3
		c2.3-0.4,4.6-0.9,7-1.2c5.7-0.1,11.3,0.5,17,0.5c2.2,0.1,4.3,0,6.5-0.4c1.8-1.7,3.3-4.6,6.3-4.2c3.9-0.3,5.7,4.5,9.6,4.5
		C146.4,132.6,142.5,131,140.8,129z"/>
</g>
<g id="_x23_535545ff">
	<path class="st116" d="M60.6,128c0.6-0.9,1.3-1.8,1.9-2.7c2.3,2.4,4.4,5,6,7.9C65.4,132.2,62.8,130.3,60.6,128z"/>
</g>
<g id="_x23_cbbeb1ff">
	<path class="st117" d="M176.6,128.8c1.3-2.2,3.2,0.1,4.6,1c1.5,1,1.8,2.8,2.2,4.5C180.7,133.1,178.3,131.2,176.6,128.8z"/>
</g>
<g id="_x23_5f5d44ff">
	<path class="st118" d="M186.3,128.6c2.6-1.3,4.6,1.3,6.4,2.7C190,133.3,188,130.6,186.3,128.6z"/>
</g>
<g id="_x23_b8a066ff">
	<path class="st119" d="M190.9,133.5c1.8-1.9,3.6-3.7,5.4-5.6c2.8,0.3,5.5,0.7,8.3,1c-0.5,0.8-1,1.6-1.5,2.4
		c2.7,0.3,5.4,0.6,8.2,0.8c-0.2,1.1-0.4,2.3-0.6,3.4c-1.9-0.2-3.9-0.5-5.8-0.7c-2.4-0.2-4.8-0.2-7.2-0.2c0.2,4.7-0.4,9.4-1.1,14
		c-1.1,0-2.3,0-3.4,0c0.3-4.1,0.8-8.1,1.4-12.1c-1.2,1.1-2.3,2.2-3.5,3.2c-2.5,0.5-5,1.2-7.3,2.3c1.7,0.6,3.3,1.2,5,1.8
		c-1.9,0.2-3.9,0.3-5.8,0.5c0-1.9,0-3.9-0.2-5.9c2.6-0.9,5.3-1.8,8-2.5C190.9,135.2,190.9,134.4,190.9,133.5 M193.8,143.8
		c0.3,1.6,0.1,3.4,1.3,4.7C197.1,147.7,196.2,143.5,193.8,143.8z"/>
</g>
<g id="_x23_8b827fff">
	<path class="st120" d="M173.2,151c0.2-7.3-0.4-14.7,0.4-22l0.5,0.8c0.4,7.6,0.5,15.2-0.1,22.8c-6.1-0.1-12.1-0.1-18.2,0.1
		c0.3,6.8,0.6,13.5,0.3,20.3c-0.4,0.3-1.4,0.9-1.8,1.2c-0.1-7.5,0.2-15-0.5-22.5c0.6-0.1,1.9-0.3,2.5-0.3c5.3-0.1,10.6,0.1,15.9-0.3
		L173.2,151z"/>
</g>
<g id="_x23_d9d18aff">
	<path class="st121" d="M37.6,130.1c1.4,0.4,3.6,0.4,3.9,2.3c0.5,2.4,1.3,5.1,0.3,7.5c-1.4,1.1-4.5,1.4-5-0.8
		C36.7,136,37.4,133.1,37.6,130.1z"/>
</g>
<g id="_x23_434940ff">
	<path class="st122" d="M58.8,130.6c0.2-0.2,0.5-0.7,0.6-0.9c2.2,2.4,4.3,4.8,6.5,7.1c-1.5,1.2-3,2.5-4.5,3.8
		C60,137.4,59,134,58.8,130.6z"/>
</g>
<g id="_x23_f0dff3ff">
	<path class="st123" d="M174,129.8c2.6,2.9,5.6,5.4,8.3,8.2c-0.2,2.8-0.1,5.7-1,8.4c-0.9,1.9-2.6,3.3-4,4.9c-3.9,4-6.6,9-10.4,13.1
		c-3.3,3.3-7.1,6-10.9,8.6c0.3-6.8,0-13.5-0.3-20.3c6.1-0.3,12.1-0.2,18.2-0.1C174.5,145,174.4,137.4,174,129.8z"/>
</g>
<g id="_x23_9b6f1eff">
	<path class="st124" d="M96.3,133c2.9-0.1,5.8-0.2,8.6-0.3c0.3,0.6,1,1.8,1.3,2.4c-3.1,0.2-6.3,0.3-9.4,0.3
		C96.7,134.9,96.4,133.6,96.3,133z"/>
</g>
<g id="_x23_977038ff">
	<path class="st125" d="M197.6,134.7c2.4,0,4.8,0,7.2,0.2c-0.3,1.9-0.6,3.8-0.9,5.8c-0.3,2.7-0.3,5.4,0.3,8.1c0.5,0.9,1,1.8,1.5,2.7
		c-6.2-0.3-12.4,0.1-18.3,2c1.4-3,1.9-6.2,2.4-9.4c0.1-0.3,0.2-0.8,0.3-1.1c0.3-1,0.6-2.1,0.9-3.1c1.2-1.1,2.3-2.2,3.5-3.2
		c-0.6,4-1.1,8.1-1.4,12.1c1.1,0,2.3,0,3.4,0C197.2,144.1,197.8,139.4,197.6,134.7z"/>
</g>
<g id="_x23_b09f57ff">
	<path class="st126" d="M89.5,138.4c3.8-0.1,7.6-0.2,11.4,0.2c3.4,0.7,6.8,0.1,10.1-0.2c3.5-0.4,6.8,1.5,10.3,0.8
		c5.8-1.1,11.8-0.9,17.7-0.5c2.4,0.1,4.4,1.4,6.4,2.5c-0.8,0.6-1.7,1.2-2.5,1.9c-0.4,0-1.2,0.1-1.6,0.1c-1.7,0.1-3.4,0.1-5.1,0.1
		l-1.1-0.8c-5.4-4.6-12.3,0.7-18.4-0.3c-2.9-1.6-6.1-1.3-9.2-0.6c-3.5,0.3-7-0.7-10.5-0.8c-2.7,0.2-5.3,1.1-8,1.7
		C89.2,141.1,89.3,139.8,89.5,138.4z"/>
</g>
<g id="_x23_91864fff">
	<path class="st127" d="M154.9,138c4.7,0.3,9.4,0.3,14,0.3c-0.2,2.3-0.4,4.6-0.9,6.9c-0.6-0.1-2-0.2-2.6-0.3c-0.9-1-1.9-2-2.8-3
		c-2.2-0.1-4.5-0.2-6.7-0.1c4.1-1.1,8.2-1.8,12.3-2.6c-4.4-0.5-8.9-0.6-13.4-0.4L154.9,138z"/>
</g>
<g id="_x23_d0c496ff">
	<path class="st128" d="M182.3,138l0.5,0.6c0.1,1.9,0.1,3.9,0.2,5.9c1.9-0.2,3.9-0.4,5.8-0.5c-2.2,1.7-4.1,3.8-5.9,5.9
		c1.4-0.2,2.8-0.4,4.2-0.6c-2.1,3.2-4.1,6.4-6.4,9.5c-3.5,4.9-8.6,8.2-14.2,10.1c0.1-1.5,0.3-2.9,0.4-4.4c3.8-4.1,6.5-9,10.4-13.1
		c1.4-1.6,3-3,4-4.9C182.2,143.7,182.1,140.8,182.3,138z"/>
</g>
<g id="_x23_af9f66ff">
	<path class="st129" d="M65.9,145.1c0.6-2.9,2.5-5.2,5.5-6C70.2,141.6,68.2,143.6,65.9,145.1z"/>
</g>
<g id="_x23_6d5b27ff">
	<path class="st130" d="M149.6,139.5l0.8-0.2c-0.1,1.7,0,3.4,0.1,5.1c1.4-1.5,1.9-3.4,1.9-5.3c0.6-0.1,1.8-0.2,2.4-0.2
		c-0.4,1.2-0.8,2.4-1.2,3.6c0.6-0.1,1.7-0.4,2.3-0.6c2.2-0.1,4.5,0,6.7,0.1c0.9,1,1.9,2,2.8,3c0.7,0.1,2,0.2,2.6,0.3
		c-0.1,0.6-0.4,1.7-0.6,2.2c-4.6,1.8-9.7,1.6-14.2-0.6c-0.6,0.5-1.2,1-1.8,1.5c-0.9,0-1.7-0.1-2.6-0.1c-1.9-1.9-3.8-3.7-6.1-5.1
		c0.9-0.6,1.7-1.2,2.5-1.9c1,0.6,2.1,1.2,3.1,1.9C148.9,141.9,149.2,140.7,149.6,139.5z"/>
</g>
<g id="_x23_40433aff">
	<path class="st131" d="M183.7,142.1c2.3-1.1,4.8-1.9,7.3-2.3c-0.3,1.1-0.6,2.1-0.9,3.1c-0.1,0.3-0.2,0.8-0.3,1.1l-1.1-0.1
		C187.1,143.3,185.4,142.7,183.7,142.1z"/>
</g>
<g id="_x23_a08d5dff">
	<path class="st132" d="M70.1,149c0.1-3.5,1.6-6.6,4.5-8.6c-0.1,0.3-0.2,0.8-0.2,1.1c-0.6,1.9-1.5,3.6-1.8,5.6
		c0.1,1.8,0.6,3.5,1.1,5.3c-0.7-0.1-1.5-0.1-2.2-0.1c0.1,1.1,0.2,2.3,0.4,3.4c-1-0.8-2-1.6-3.1-2.5c-0.7-0.6-1.5-1.2-2.2-1.8
		c0.5-1.4,1-2.8,1.5-4.2C68.7,147.9,69.4,148.4,70.1,149z"/>
</g>
<g id="_x23_5d4922ff">
	<path class="st133" d="M89,142.5c2.6-0.6,5.2-1.5,8-1.7c3.5,0.1,6.9,1.1,10.5,0.8c0,0.6-0.1,1.8-0.1,2.4c3.2-0.1,6.4-0.3,9.3-1.8
		c6.1,1,13-4.3,18.4,0.3c-4.5-1.3-9.4-0.9-13.8,0.7c4.5,2.5,10.4,3.2,14.8,0c1.7,0,3.4,0,5.1-0.1c0.1,1.6,0.3,3.2,0.4,4.8
		c-8,1-16.4,1.7-24.2-0.5c-2.6-0.6-5.3-1.6-7.9-0.5c-3,1-6.1,2-9.3,2c-1.8-1.2-3.7-2.4-5.6-3.5c-1.2,1.2-2.5,2.5-3.8,3.6
		C87.8,148.2,89.1,144.8,89,142.5 M121.6,146c0.5,1.4,1.8,2.4,3.4,2.3c3.8,0.1,8.3,0.9,11.3-2C131.4,145.4,126.5,145.4,121.6,146z"
		/>
</g>
<g id="_x23_1a1c1cff">
	<path class="st134" d="M107.5,141.6c3.1-0.7,6.3-1,9.2,0.6c-2.9,1.5-6.1,1.7-9.3,1.8C107.4,143.4,107.5,142.2,107.5,141.6z"/>
</g>
<g id="_x23_14182aff">
	<path class="st135" d="M121.4,143.2c4.4-1.7,9.2-2,13.8-0.7l1.1,0.8C131.8,146.4,125.9,145.7,121.4,143.2z"/>
</g>
<g id="_x23_262a19ff">
	<path class="st136" d="M141.3,143.2c0.4,0,1.2-0.1,1.6-0.1c2.2,1.5,4.2,3.3,6.1,5.1c-0.4,0-1.2-0.1-1.6-0.1
		c0.2,0.9,0.3,1.9,0.5,2.8c-3.3,0-6.6,0.5-9.9,1.1c1.8,1.2,3.7,2.3,5.6,3.5c-0.7,6.4-1,12.8-0.4,19.2c1.4,0.2,2.9,0.4,4.3,0.6
		c0.1,0.6,0.1,1.7,0.2,2.2c-1.5,0.6-3,1.1-4.5,1.5c-3,0.9-6.1,1.5-9.2,2c1-0.6,2-1.2,3-1.9c-1.6-8.1-1.1-16.5-0.3-24.7
		c-10-1.7-20.4-0.4-30.3-2.5c4.2-1,8.4-1.4,12.7-1.6c-0.5-1-1-2-1.4-3c7.9,2.2,16.2,1.5,24.2,0.5
		C141.6,146.3,141.4,144.8,141.3,143.2z"/>
</g>
<g id="_x23_c7b771ff">
	<path class="st137" d="M38.9,145.2c1.1-0.5,2.2-1,3.3-1.6c1.2,1.3,2.3,2.7,3.2,4.2c0.2,1.7,0.2,3.4,0.3,5.1
		c-1.5,0.3-2.9,0.6-4.4,0.9c-0.8-1.3-1.7-2.5-2.2-3.9C39,148.3,38.9,146.8,38.9,145.2z"/>
</g>
<g id="_x23_ae9674ff">
	<path class="st138" d="M188.8,143.9l1.1,0.1c-0.6,3.2-1.1,6.4-2.4,9.4c-2.1,3.4-3,7.4-4,11.2c-0.7,3-2.9,5.5-3.2,8.6
		c1,2.1,3.3,3.2,4.9,4.7c-0.8,1-1.6,2-2.4,3c-4.8,5.2-10.8,9.8-17.9,11.1c-2,2.3-4.7,3.8-7.5,4.9c-0.9-2.5-1.7-5-2.6-7.5
		c-2.4-0.1-4.8-0.2-7.2-0.4c3.5-3.3,8.9-4.4,11.1-9c-2,0.2-4,0.4-6,0.6c0.2-1.9,0.3-3.9,0.4-5.8c0.3-0.2,0.9-0.5,1.1-0.7
		c0.4-0.3,1.4-0.9,1.8-1.2c-0.4,2-0.7,4.1-1,6.1c5.3-0.6,11.4-0.6,15.6-4.5c4.5-4.1,8.5-8.8,12.3-13.5c-0.8-0.8-1.5-1.6-2.2-2.4
		c2.3-3.1,4.2-6.3,6.4-9.5c-1.4,0.2-2.8,0.4-4.2,0.6C184.7,147.7,186.6,145.6,188.8,143.9 M178.1,174.3c-1.3,1.4-2.5,2.9-3.8,4.3
		c0.4,0.3,1.3,1.1,1.7,1.4c-0.9,1.4-1.9,2.7-2.8,4.1c3.3-2.1,6.6-4.4,8.9-7.6C180.8,175.7,179.5,175,178.1,174.3 M161.1,181.9
		c0.5,1,1.2,2,1.9,3c1.3-0.7,2.5-1.4,3.8-2.2c-0.3-1.3-0.7-2.6-1-4C164.1,179.5,161.3,179.7,161.1,181.9z"/>
</g>
<g id="_x23_d7cb7bff">
	<path class="st139" d="M193.8,143.8c2.5-0.3,3.4,3.8,1.3,4.7C193.8,147.2,194,145.4,193.8,143.8z"/>
</g>
<g id="_x23_444027ff">
	<path class="st140" d="M76.7,148.1c0.8-1.7,2.9-1.7,4.5-2.2c-0.8,1.8-1.7,3.5-2.6,5.3C77.9,150.2,76.8,149.4,76.7,148.1z"/>
</g>
<g id="_x23_13150fff">
	<path class="st141" d="M100.3,148.9c3.2-0.1,6.3-1,9.3-2c2.6-1,5.3-0.1,7.9,0.5c0.5,1,0.9,2,1.4,3c-4.3,0.2-8.5,0.6-12.7,1.6
		c10,2.1,20.3,0.8,30.3,2.5c-0.7,8.2-1.2,16.5,0.3,24.7c-1,0.6-2,1.3-3,1.9c-5.3,0.9-10.8,0.6-16.2,0.1c-0.5-0.1-1.5-0.2-2-0.3
		c-2.3-0.4-4.5-0.9-6.8-1.4c-0.5,1.9-1,3.7-1.4,5.6c-3.4-0.8-6.8-1.8-10-3.4c-5.4-3.1-11-6.1-15.1-10.8c0.5-4.9,3.1-9.3,3.2-14.3
		c0.1-1.2,0.2-2.4,0.2-3.6c4.9,0.6,9.8,0.6,14.6-0.4c-1-1.1-2.1-2.3-3.1-3.4C98.1,149,99.5,148.9,100.3,148.9z"/>
</g>
<g id="_x23_997532ff">
	<path class="st142" d="M121.6,146c4.9-0.6,9.9-0.6,14.8,0.3c-3,2.9-7.5,2.1-11.3,2C123.4,148.4,122.1,147.4,121.6,146z"/>
</g>
<g id="_x23_0d0c0cff">
	<path class="st143" d="M153.3,146.8c4.5,2.2,9.5,2.4,14.2,0.6c1.5-0.4,2.9-0.9,4.4-1.3c0.1,1.7,0.2,3.4,0.3,5.1
		c-5.3,0.4-10.6,0.2-15.9,0.3c-2.8-0.1-5.6-0.4-8.4-0.5c-0.2-0.9-0.3-1.9-0.5-2.8c0.4,0,1.2,0,1.6,0.1c0.9,0,1.7,0.1,2.6,0.1
		C152.1,147.8,152.7,147.3,153.3,146.8z"/>
</g>
<g id="_x23_987727ff">
	<path class="st144" d="M25,152.1c-0.6-1.8,0.1-3.7,0.7-5.4c2.4,7.8,4.9,15.6,8.5,22.9c-0.5,0.1-1.6,0.2-2.1,0.2
		c0,0.3-0.1,0.9-0.1,1.2C29,165,26.6,158.6,25,152.1z"/>
</g>
<g id="_x23_9b8c5eff">
	<path class="st145" d="M59.3,153.7c-0.8-2.6,1.2-4.9,2.2-7.2c0.6,1,1.2,1.9,1.8,2.9c0.5-0.3,1-0.6,1.4-0.9c0,1.5,0,3,0.1,4.6
		c0.2,0.3,0.5,1,0.7,1.3c0.7,1.6,1.3,3.2,1.9,4.9c-0.6,0.1-1.7,0.2-2.2,0.3c0.9,2.2,2.7,4.7,1.1,7.1
		C63.9,162.4,60.7,158.5,59.3,153.7z"/>
</g>
<g id="_x23_7a612eff">
	<path class="st146" d="M204.2,148.8c7.2-0.8,13.6,2.7,20,5.6c0.1,2.6,0.3,5.3,1.6,7.6c-2.6,8.7-7.3,16.8-12.4,24.3
		c-1.6,2.3-3.2,4.7-5.4,6.5c-4.8,3.6-8.3,9-14.1,11.1c3.4-3.7,6.7-7.4,9.4-11.6c-1.9,1.3-3.7,2.6-5.4,4.1l0-0.9
		c3-3.9,6.5-7.3,9.4-11.2c4.2-5.4,7.5-11.3,10.6-17.4c1.1-2.4,2.5-4.9,2.3-7.6c-4.3-1.4-9-1.5-13.3-0.4c-1.3,3.9-1.3,8.4-4.4,11.4
		c0.9-2.8,1.3-5.8,1.2-8.8c0-1.3,0-2.7-0.1-4.1c-1.6,0.9-3.2,1.9-4.4,3.4c-0.1-0.2-0.2-0.7-0.3-0.9c-0.3-0.3-0.8-0.9-1.1-1.2
		c-3.8-1.1-6.6,1.9-9.3,4c0.2-2.3,0.6-4.6,1-6.9c-0.7-0.8-1.4-1.7-2-2.5c5.9-1.9,12.1-2.3,18.3-2
		C205.2,150.6,204.7,149.7,204.2,148.8z"/>
</g>
<g id="_x23_343a21ff">
	<path class="st147" d="M138,152.1c3.2-0.6,6.5-1.1,9.9-1.1c2.8,0.1,5.6,0.3,8.4,0.5c-0.6,0.1-1.8,0.3-2.5,0.3
		c-1.4,0.2-2.8,0.5-4.2,0.7c0.5,7.9,0.3,15.9,0.8,23.9c-0.4,0.2-1,0.5-1.4,0.6c-0.4,0.1-1.1,0.4-1.4,0.6c-0.1-0.6-0.1-1.7-0.2-2.2
		c-1.4-0.2-2.9-0.4-4.3-0.6c-0.6-6.4-0.2-12.8,0.4-19.2C141.7,154.4,139.8,153.2,138,152.1z"/>
</g>
<g id="_x23_474c43ff">
	<path class="st148" d="M45.7,153.8c0.8-0.5,1.5-1.1,2.3-1.6c5.4,12.9,12.8,25.6,23.9,34.4c1.4,1.1,2.8,2.3,4.2,3.4
		c-0.6,0.3-1.8,0.9-2.5,1.2c-5.8-4.6-11.7-9.6-15.3-16.1c-2-3-5.1-5.4-6.2-8.9c-0.8-4-3-7.4-6.4-9.6
		C45.7,155.6,45.7,154.7,45.7,153.8z"/>
</g>
<g id="_x23_69562eff">
	<path class="st149" d="M79.8,152.9c2,1.1,3.7,2.5,5.7,3.5c-0.1,5-2.7,9.4-3.2,14.3c4.1,4.7,9.8,7.8,15.1,10.8c0.3,1,0.7,1.9,1,2.9
		c-0.3-0.1-1-0.4-1.3-0.5c-7.7-2.6-13.5-8.3-19.7-13.2c-0.5,1.8-1.8,3.7-0.8,5.5c1.6,4,5.3,6.6,7.5,10.2c0.1,2.8-0.8,5.4-1.3,8.1
		c-2.4-1.4-4.6-2.9-6.8-4.6c-1.4-1.1-2.8-2.2-4.2-3.4c0.7-1.5,1.3-2.9,1.9-4.4c-1-2.2-2.1-4.3-2.7-6.7c1.1-1.3,2.3-2.6,3.1-4.1
		c0.1-1.8-0.3-3.5-0.6-5.3c0.8,0.2,1.5,0.3,2.3,0.5c-1.3-2.5-2.6-5-3.9-7.6c1.7,1.6,3.4,3.2,5.1,4.8c-1.5-3.2-3.3-6.8-1.4-10.3
		c0.8,0.2,1.7,0.4,2.5,0.5C78.7,153.7,79.5,153.2,79.8,152.9z"/>
</g>
<g id="_x23_505346ff">
	<path class="st150" d="M149.6,152.4c1.4-0.2,2.8-0.5,4.2-0.7c0.7,7.5,0.4,15,0.5,22.5c-0.3,0.2-0.9,0.5-1.1,0.7
		c-0.9,0.5-1.8,0.9-2.7,1.4C149.9,168.4,150.1,160.4,149.6,152.4z"/>
</g>
<g id="_x23_b99550ff">
	<path class="st151" d="M41.3,153.9c1.5-0.3,2.9-0.6,4.4-0.9l0,0.8c0,0.9,0,1.8,0,2.7c3.4,2.2,5.6,5.6,6.4,9.6
		c-1.3,0.6-2.6,1.2-3.8,1.9c-1.6-2-3.7-3.8-4.1-6.5C43.6,158.8,43.1,156,41.3,153.9z"/>
</g>
<g id="_x23_8c7341ff">
	<path class="st152" d="M183.4,164.7c0.9-3.9,1.9-7.8,4-11.2c0.7,0.8,1.3,1.7,2,2.5c-0.4,2.3-0.8,4.6-1,6.9c-0.2,2.7-0.3,5.3-0.4,8
		c0.6-0.1,1.9-0.2,2.6-0.2c2.6-3.8,5-7.7,7.1-11.8c0.3,0.3,0.8,0.9,1.1,1.2c0.1,0.2,0.2,0.7,0.3,0.9c-2.3,6.4-6.8,11.5-10.1,17.3
		c2.8-1.3,5.8-2.8,7-5.9c1.8-4,3.5-8.4,7.5-10.7c0,3-0.3,5.9-1.2,8.8c-1,1.3-2.1,2.6-3.2,3.9c-3.4,4.6-7.4,8.7-10.9,13.3
		c-0.8-0.7-1.6-1.5-2.3-2.2c0.3-1.1,0.6-2.2,0.9-3.3c-1.4-0.3-2.7-0.7-4-1c0.8-1,1.6-2,2.4-3c-1.7-1.5-3.9-2.6-4.9-4.7
		C180.6,170.2,182.8,167.7,183.4,164.7z"/>
</g>
<g id="_x23_434731ff">
	<path class="st153" d="M188.5,162.8c2.7-2.1,5.5-5.1,9.3-4c-2.1,4.1-4.5,8-7.1,11.8c-0.7,0.1-1.9,0.2-2.6,0.2
		C188.2,168.1,188.3,165.5,188.5,162.8z"/>
</g>
<g id="_x23_353c28ff">
	<path class="st154" d="M199.2,160.9c1.2-1.5,2.8-2.5,4.4-3.4c0,1.4,0.1,2.7,0.1,4.1c-4,2.3-5.7,6.7-7.5,10.7
		c-1.2,3.1-4.2,4.6-7,5.9C192.4,172.4,196.9,167.3,199.2,160.9z"/>
</g>
<g id="_x23_222518ff">
	<path class="st155" d="M206.8,158.9c4.3-1.1,9.1-1,13.3,0.4c0.2,2.7-1.2,5.2-2.3,7.6c-3.1,6-6.4,12-10.6,17.4
		c-2.9,3.9-6.5,7.3-9.4,11.2c0.3-7.1,1.9-14.1,1.4-21.2c1.1-1.3,2.2-2.6,3.2-3.9C205.5,167.2,205.5,162.8,206.8,158.9z"/>
</g>
<g id="_x23_c1b289ff">
	<path class="st156" d="M166.5,168.8c5.6-1.9,10.7-5.2,14.2-10.1c0.8,0.8,1.5,1.6,2.2,2.4c-3.9,4.7-7.8,9.4-12.3,13.5
		c-4.2,3.8-10.2,3.9-15.6,4.5c0.3-2,0.6-4.1,1-6.1c3.8-2.7,7.6-5.3,10.9-8.6C166.8,165.9,166.7,167.4,166.5,168.8z"/>
</g>
<g id="_x23_ab8341ff">
	<path class="st157" d="M48.2,167.9c1.3-0.6,2.6-1.3,3.8-1.9c1.1,3.5,4.2,5.9,6.2,8.9c-1.5,0.8-3,1.7-4.5,2.5
		C51.1,174.8,50.6,170.8,48.2,167.9z"/>
</g>
<g id="_x23_71521dff">
	<path class="st158" d="M69.5,166.8c1,0.9,2,1.7,2.9,2.7c0,1.4-0.5,2.8-0.8,4.2c-1.3-1.6-2.6-3.1-3.8-4.8
		C68.2,168.4,69,167.4,69.5,166.8z"/>
</g>
<g id="_x23_a18946ff">
	<path class="st159" d="M32.1,169.8c0.5-0.1,1.6-0.2,2.1-0.2c3.2,6.6,7.6,12.4,12,18.2c-1.4-0.4-2.9-0.7-4.3-1
		c-4.4-4.4-7-10.2-9.9-15.8C32,170.7,32,170.1,32.1,169.8z"/>
</g>
<g id="_x23_4e3b18ff">
	<path class="st160" d="M76.7,176.2c-0.9-1.9,0.3-3.8,0.8-5.5c6.2,5,12,10.7,19.7,13.2c3,3.1,2.2,7.7,2.1,11.6
		c-2.3,1.3-4.6,2.6-6.9,3.9c-3.3-1.5-6.4-3.1-9.5-4.9c0.6-2.7,1.4-5.4,1.3-8.1C82,182.8,78.3,180.2,76.7,176.2z"/>
</g>
<g id="_x23_cbb38fff">
	<path class="st161" d="M178.1,174.3c1.3,0.7,2.6,1.5,4,2.2c-2.3,3.2-5.6,5.5-8.9,7.6c0.9-1.4,1.9-2.7,2.8-4.1
		c-0.4-0.3-1.3-1.1-1.7-1.4C175.6,177.1,176.9,175.7,178.1,174.3z"/>
</g>
<g id="_x23_41432cff">
	<path class="st162" d="M188.3,187.6c3.4-4.6,7.5-8.7,10.9-13.3c0.6,7.1-1.1,14.1-1.4,21.2l0,0.9c-3.8,3.8-7.8,7.3-12.3,10.1
		c0.6-5,1.6-10.1,0-15C186.4,190.2,187.3,188.9,188.3,187.6z"/>
</g>
<g id="_x23_8c682dff">
	<path class="st163" d="M58.3,175c3.7,6.5,9.5,11.5,15.3,16.1c4.3,2.3,7.7,6.1,12.4,7.7c-1.2,0.4-3.2,0.3-2.7,2.1
		c0.3,1.3,0.9,2.4,1.5,3.6c-1.3-1.2-2.6-2.5-4-3.7c-2-1.2-4.1-2.2-6.2-3.3c-2.8-2.2-5.4-4.7-8.3-6.8c-5-3.6-8-9.1-12.5-13.2
		C55.3,176.7,56.8,175.8,58.3,175z"/>
</g>
<g id="_x23_9b8c5dff">
	<path class="st164" d="M150.4,176.3c0.9-0.4,1.8-0.9,2.7-1.4c-0.1,1.9-0.2,3.9-0.4,5.8c2-0.2,4-0.4,6-0.6c-2.2,4.5-7.6,5.6-11.1,9
		c2.4,0.2,4.8,0.3,7.2,0.4c0.9,2.5,1.8,5,2.6,7.5c2.8-1.1,5.4-2.7,7.5-4.9c7.1-1.3,13.1-5.9,17.9-11.1c1.3,0.3,2.7,0.7,4,1
		c-0.3,1.1-0.6,2.2-0.9,3.3c-1.1,0-2.2,0-3.2,0c-0.1-0.3-0.2-1-0.3-1.3c-8,6.9-16.9,12.7-26.5,16.9c0.5,0.3,1.6,0.9,2.1,1.2
		c-0.6,0.3-1.7,0.8-2.2,1c-0.8-0.2-1.6-0.3-2.5-0.5c1.7-3,1.2-6.4,0.3-9.5c-2.2,0.2-4.5,0.2-6.6,0.9c-3.1,1.4-5.1,4.4-8.3,5.7
		c-2.1,0.7-4.3-0.1-6.4-0.3c4.2-3.3,9-5.7,13.1-9.2c2.9-2.4-1.1-6.3,0.6-9.1c0.8-1.5,1.9-2.8,3.1-4.1
		C149.4,176.8,150.1,176.5,150.4,176.3z"/>
</g>
<g id="_x23_7b6f44ff">
	<path class="st165" d="M147.6,177.5c0.3-0.1,1.1-0.4,1.4-0.6c-1.1,1.3-2.2,2.6-3.1,4.1c-1.8,2.9,2.2,6.7-0.6,9.1
		c-4.1,3.5-8.9,5.9-13.1,9.2c2.1,0.2,4.3,1,6.4,0.3c3.2-1.3,5.2-4.3,8.3-5.7c2.1-0.7,4.4-0.7,6.6-0.9c0.9,3.1,1.4,6.5-0.3,9.5
		c0.8,0.1,1.6,0.3,2.5,0.5c-2.1,1.2-3.6,3.1-4.8,5.1c-0.9-0.5-1.9-1.1-2.8-1.6c0.5-1.3,0.9-2.6,1.3-4c-3.2,0.6-6.4,1.4-9.4,2.5
		c-6.3,1.7-12.9,1.3-19.3,1c1-1.1,2-2.2,3-3.3c-1.2-0.6-2.4-1.3-3.6-1.9c1.7,0.3,3.3,0.5,5,0.7c0-3,0.3-6,1.3-8.9
		c0.8,1.8,1.8,3.6,2.7,5.3c0.6-0.1,1.9-0.2,2.5-0.2c0-1.6,0-3.1,0.1-4.7c2.5,0.3,5-0.2,7.3-1.1c-0.3-0.5-1-1.6-1.4-2.2
		c-0.4-0.6-0.7-1.1-1.1-1.7c2.7-2.7,4.9-5.8,6.5-9.3C144.6,178.6,146.1,178.1,147.6,177.5z"/>
</g>
<g id="_x23_5e4825ff">
	<path class="st166" d="M108.9,179.3c2.3,0.5,4.5,1,6.8,1.4c0,2,0.1,4.1,0.2,6.1c2.5,0,4.9,0,7.4,0c-0.3-1.4-0.6-2.8-1.1-4.1
		c-1.4-0.9-2.9-1.2-4.5-1.7c5.4,0.6,10.8,0.9,16.2-0.1c3.1-0.5,6.2-1.1,9.2-2c-1.5,3.5-3.8,6.6-6.5,9.3c0.4,0.6,0.7,1.1,1.1,1.7
		c-1.8,0.2-3.5,0.4-5.3,0.6c-0.2,0.7-0.5,2-0.7,2.6c-0.1,1.6-0.1,3.1-0.1,4.7c-0.6,0.1-1.9,0.2-2.5,0.2c-0.9-1.8-1.8-3.5-2.7-5.3
		c-0.1-0.3-0.2-0.9-0.3-1.3l-0.2-0.8c-1.4-3.2-5.6-3.4-8.5-2.5c-1.8,1.5-3.3,3.4-4.9,5.1c0.1-0.5,0.3-1.4,0.4-1.8
		c-1,0.3-2,0.5-3,0.8c0.3-1.2,0.7-2.4,1-3.6c-1.5,0.4-3,0.9-4.4,1.3c-0.8-0.7-1.6-1.4-2.4-2.2c0.2,1.7,0.3,3.5,0.7,5.2
		c1.3,1.8,4,1.6,6,2.2c-2.5,2.5-4.9,5.1-7,8c-3.9-0.9-7.8-2.2-11.4-3.9c2.3-1.3,4.6-2.6,6.9-3.9c0-3.9,0.8-8.5-2.1-11.6
		c0.3,0.1,1,0.4,1.3,0.5c-0.3-1-0.7-1.9-1-2.9c3.1,1.6,6.5,2.6,10,3.4C107.9,183.1,108.4,181.2,108.9,179.3z"/>
</g>
<g id="_x23_7d643aff">
	<path class="st167" d="M161.1,181.9c0.2-2.3,3-2.5,4.7-3.2c0.3,1.3,0.7,2.6,1,4c-1.3,0.7-2.5,1.4-3.8,2.2
		C162.3,183.9,161.7,183,161.1,181.9z"/>
</g>
<g id="_x23_7b6339ff">
	<path class="st168" d="M115.7,180.7c0.5,0.1,1.5,0.2,2,0.3c1.5,0.4,3.1,0.8,4.5,1.7c0.5,1.3,0.8,2.7,1.1,4.1c-2.5,0-4.9,0-7.4,0
		C115.8,184.8,115.7,182.8,115.7,180.7z"/>
</g>
<g id="_x23_f3f0f0ff">
	<path class="st169" d="M155.9,200.9c9.7-4.2,18.5-10,26.5-16.9c0.1,0.3,0.2,1,0.3,1.3c-1.6,2-3.3,3.8-4.9,5.7
		c-1.7,2.5-4.9,3.1-7.4,4.4c-2.3,1.2-4.1,3.1-6.2,4.6c-1.9,1-4.2,1.2-6.2,1.9C157.5,201.8,156.4,201.2,155.9,200.9z"/>
</g>
<g id="_x23_785418ff">
	<path class="st170" d="M182.7,185.4c1.1,0,2.1,0,3.2,0c0.8,0.7,1.6,1.5,2.3,2.2c-0.9,1.3-1.8,2.6-2.8,3.9c-1.5,1.2-3.1,2.3-4.8,3.2
		l-0.8,0.3c-0.7-1.3-1.3-2.6-2-3.9C179.4,189.2,181.1,187.3,182.7,185.4z"/>
</g>
<g id="_x23_efed9dff">
	<path class="st171" d="M41.8,186.8c1.4,0.3,2.9,0.6,4.3,1c6.9,8.6,15.3,16.1,24.6,22c1.8,1.2,3.7,2.3,5.6,3.4
		c3.2,1.7,6.4,3.3,9.7,4.9c7.9,4.9,17.1,6.7,26.1,8.5c-2.4,0.1-4.7,0.1-7,0.1c-8.7-2-17.4-4.3-25.4-8.3c-9.2-4.7-18-10.3-25.4-17.6
		C49.8,196.4,46.1,191.3,41.8,186.8z"/>
</g>
<g id="_x23_5d5947ff">
	<path class="st172" d="M38.6,187.8c1.1-0.4,2.2-0.7,3.3-1.1c4.3,4.6,8,9.6,12.5,14c7.3,7.3,16.2,12.9,25.4,17.6
		c8,4,16.7,6.2,25.4,8.3c0.5,0.3,1.5,0.9,2,1.2c1,0.7,2,1.5,3,2.2c-12.7-1.1-24.5-6.2-36.1-11.3C60.2,211.2,48,200.5,38.6,187.8z"/>
</g>
<g id="_x23_988050ff">
	<path class="st173" d="M104.1,187.9c0.8,0.7,1.6,1.5,2.4,2.2c1.1,0.9,2.2,1.7,3.5,2.3c1-0.2,2-0.5,3-0.8c-0.1,0.5-0.3,1.4-0.4,1.8
		c-0.4,0.5-1.3,1.4-1.7,1.8c-2-0.6-4.7-0.3-6-2.2C104.4,191.4,104.3,189.6,104.1,187.9z"/>
</g>
<g id="_x23_4c3418ff">
	<path class="st174" d="M117.5,188.4c2.9-0.9,7.1-0.7,8.5,2.5c-3.5,0.6-7,1.3-10.4,2.2c1.3,0.8,2.7,1.6,4.1,2.4
		c0.1,0.6,0.3,1.8,0.3,2.4c-1.2,0.4-2.5,0.8-3.7,1.3c1.3,0.6,2.5,1.3,3.8,1.9c1.2,0.6,2.4,1.2,3.6,1.9c-1,1.1-2,2.2-3,3.3
		c-5.7-0.5-11.3-1.7-16.9-2.9c2.1-2.8,4.5-5.5,7-8c0.4-0.5,1.3-1.4,1.7-1.8C114.2,191.7,115.6,189.8,117.5,188.4z"/>
</g>
<g id="_x23_2c271aff">
	<path class="st175" d="M106.5,190.1c1.5-0.4,2.9-0.9,4.4-1.3c-0.3,1.2-0.6,2.4-1,3.6C108.7,191.8,107.6,191,106.5,190.1z"/>
</g>
<g id="_x23_11120fff">
	<path class="st176" d="M73.6,191.1c0.6-0.3,1.8-0.9,2.5-1.2c2.2,1.6,4.5,3.2,6.8,4.6c3.1,1.8,6.3,3.4,9.5,4.9
		c3.7,1.7,7.5,3,11.4,3.9c5.6,1.2,11.2,2.4,16.9,2.9c6.4,0.3,13,0.7,19.3-1c2-0.1,4-0.1,6.1-0.1c-3.5,1.2-6.9,2.7-10.6,3.5
		c-5.5-1.1-11,1.4-16.3-0.4c-2.8-0.8-5.8-0.7-8.7-0.7c-3.5-0.6-6.8-2.1-10.3-2.7c-1.8-0.3-3.7-0.6-5.5-0.8c-1.7-1.5-3.5-3-5.4-4.2
		c-1.1-0.4-2.2-0.7-3.3-1.1C81.3,197.2,77.9,193.4,73.6,191.1z"/>
</g>
<g id="_x23_11130bff">
	<path class="st177" d="M132.4,190.6c1.8-0.2,3.5-0.4,5.3-0.6c0.3,0.6,1,1.7,1.4,2.2c-2.3,0.9-4.8,1.4-7.3,1.1
		C131.9,192.6,132.3,191.3,132.4,190.6z"/>
</g>
<g id="_x23_7f6d48ff">
	<path class="st178" d="M115.7,193c3.4-0.9,6.9-1.6,10.4-2.2l0.2,0.8c-2,0.5-3.9,1-5.9,1.5c0.9,1.2,1.8,2.5,2.7,3.8
		c-1,0.3-1.9,0.7-2.9,1c-0.1-0.6-0.3-1.8-0.3-2.4C118.4,194.7,117,193.9,115.7,193z"/>
</g>
<g id="_x23_624510ff">
	<path class="st179" d="M170.4,195.6c2.6-1.4,5.7-1.9,7.4-4.4c0.7,1.3,1.3,2.6,2,3.9c-0.4,0.1-1.1,0.4-1.5,0.5l-0.6,0.2
		c-2.1,3-4.8,5.6-8.3,6.6c-4.2,1.1-7.5,3.9-11.2,5.9c-1.9,0-3.7,0-5.6,0c-0.4,0-1.3,0-1.7,0.1c1.2-2,2.8-3.9,4.8-5.1
		c0.6-0.3,1.7-0.8,2.2-1c2-0.7,4.3-1,6.2-1.9C166.3,198.7,168.1,196.7,170.4,195.6z"/>
</g>
<g id="_x23_d1c68fff">
	<path class="st180" d="M120.3,193.1c2-0.5,4-1,5.9-1.5c0.1,0.3,0.2,0.9,0.3,1.3c-0.9,2.9-1.3,5.9-1.3,8.9c-1.7-0.2-3.4-0.4-5-0.7
		c-1.3-0.6-2.6-1.2-3.8-1.9c1.2-0.4,2.5-0.8,3.7-1.3c1-0.3,1.9-0.7,2.9-1C122.1,195.6,121.2,194.4,120.3,193.1z"/>
</g>
<g id="_x23_77776bff">
	<path class="st181" d="M180.6,194.7c1.7-1,3.3-2.1,4.8-3.2c1.6,4.9,0.6,10,0,15c-0.9,0.6-1.8,1.2-2.8,1.7c-0.2-4.3,0-8.6-0.2-12.8
		C182,195.2,181.1,194.9,180.6,194.7z"/>
</g>
<g id="_x23_e9e778ff">
	<path class="st182" d="M197.8,196.4c1.8-1.4,3.6-2.8,5.4-4.1c-2.7,4.2-6,8-9.4,11.6c-4.6,3-8.8,8.7-14.9,7.2
		c4.7-3.7,3.4-10.1,3.2-15.2c-1.2-0.2-2.4-0.3-3.7-0.4c0.4-0.1,1.1-0.4,1.5-0.5l0.8-0.3c0.5,0.2,1.4,0.5,1.8,0.6
		c0.2,4.3,0.1,8.6,0.2,12.8c0.9-0.6,1.8-1.1,2.8-1.7C190,203.6,194,200.1,197.8,196.4z"/>
</g>
<g id="_x23_635f55ff">
	<path class="st183" d="M193.8,203.9c5.9-2.1,9.3-7.5,14.1-11.1c-1.3,2.3-3,4.3-4.9,6.2c-5.5,5.5-11.1,11.1-18,14.8
		c-0.9,0.4-1.7,0.7-2.6,1.1c-1.8-1-3.7-1.9-5.6-2.7c0.7-0.3,1.3-0.7,2-1C185,212.6,189.2,206.9,193.8,203.9z"/>
</g>
<g id="_x23_f1e1f6ff">
	<path class="st184" d="M177.8,195.7l0.6-0.2c1.2,0.1,2.4,0.3,3.7,0.4c0.2,5.2,1.5,11.6-3.2,15.2c-0.7,0.4-1.3,0.7-2,1
		c-6.3,2.9-12.4,6.7-19.1,8.4c-0.4-0.2-1.1-0.6-1.5-0.8c-1.4-3.1-0.5-6.7-0.7-10c0.9-0.5,1.8-1.1,2.7-1.6c3.8-2,7-4.8,11.2-5.9
		C173,201.3,175.7,198.7,177.8,195.7z"/>
</g>
<g id="_x23_b7853eff">
	<path class="st185" d="M83.2,200.9c-0.4-1.8,1.6-1.7,2.7-2.1c1.1,0.3,2.2,0.7,3.3,1.1c0.5,1,1,2.1,1.6,3.1c-2,0.5-4.1,1-6.1,1.5
		C84.2,203.3,83.6,202.1,83.2,200.9z"/>
</g>
<g id="_x23_7e4c20ff">
	<path class="st186" d="M89.3,199.8c2,1.2,3.7,2.7,5.4,4.2c1.8,0.3,3.7,0.5,5.5,0.8c-0.7,0.1-2.1,0.3-2.8,0.4
		c-0.1,1.1-0.3,2.3-0.4,3.4c-3.8-2.3-8.3-2.6-12.3-4.2c2-0.5,4.1-1,6.1-1.5C90.3,201.9,89.8,200.9,89.3,199.8z"/>
</g>
<g id="_x23_11140eff">
	<path class="st187" d="M76.6,201.7c1.4-0.3,2.8-0.6,4.1-0.9c1.4,1.2,2.6,2.5,4,3.7c4,1.7,8.5,1.9,12.3,4.2
		c4.6,2.9,10.2,2.3,15.1,4.1l0.8,0.2c3.8,1,7.8,0.3,11.6,0.4c3.6,0.1,7.3,0.5,10.7-0.7l0.7-0.2c0.8,0.6,1.6,1.3,2.3,1.9
		c0,2.8,0.1,5.5,0.2,8.3c-0.8,0.8-1.7,1.6-2.5,2.4c-7.3,0.6-14.8,0.7-22.1,0c-9.6-1.1-18.7-4.2-27.8-7.1c-3.2-1.6-6.5-3.2-9.7-4.9
		C76.3,209.3,76.6,205.5,76.6,201.7z"/>
</g>
<g id="_x23_86632aff">
	<path class="st188" d="M140,205.2c3.1-1.1,6.2-1.9,9.4-2.5c-0.4,1.3-0.9,2.6-1.3,4c0.9,0.5,1.9,1.1,2.8,1.6
		c-1.3,1.1-2.5,2.3-3.7,3.4c-3.2,0.8-6.6,0.8-9.9,0.4c-0.4,0.1-1.1,0.4-1.4,0.5l-0.7,0.2c0.1-1.4,0.2-2.8,0.2-4.1
		c3.6-0.8,7.1-2.3,10.6-3.5C144.1,205.1,142.1,205.1,140,205.2z"/>
</g>
<g id="_x23_a37e50ff">
	<path class="st189" d="M97.4,205.3c0.7-0.1,2.1-0.3,2.8-0.4c3.5,0.5,6.8,2.1,10.3,2.7c-0.4,0.9-0.8,1.7-1.2,2.6
		c0.9,0.9,1.8,1.8,2.8,2.7c-4.9-1.8-10.5-1.2-15.1-4.1C97.1,207.6,97.3,206.4,97.4,205.3z"/>
</g>
<g id="_x23_dfd186ff">
	<path class="st190" d="M110.5,207.5c2.9,0,5.8-0.1,8.7,0.7c0.6,1.4,1.2,2.8,1.8,4.2c-2.7,0.3-5.3,0.6-8,0.7l-0.8-0.2
		c-0.9-0.9-1.8-1.8-2.8-2.7C109.7,209.2,110.1,208.4,110.5,207.5z"/>
</g>
<g id="_x23_ac803cff">
	<path class="st191" d="M119.2,208.2c5.3,1.8,10.9-0.7,16.3,0.4c-0.1,1.4-0.2,2.8-0.2,4.1c-3.4,1.3-7.2,0.9-10.7,0.7
		c-3.9-0.2-7.8,0.6-11.6-0.4c2.7-0.1,5.4-0.4,8-0.7C120.4,211,119.8,209.6,119.2,208.2z"/>
</g>
<g id="_x23_595d4dff">
	<path class="st192" d="M150.9,208.2c0.4,0,1.3,0,1.7-0.1c-1,4.8-1,9.7,0.2,14.4c-1.5,0-3,0-4.5,0c0-3.7-0.3-7.4-1.2-11
		C148.5,210.5,149.7,209.3,150.9,208.2z"/>
</g>
<g id="_x23_7a7c70ff">
	<path class="st193" d="M152.6,208.2c1.9,0,3.7,0.1,5.6,0c-0.9,0.5-1.8,1.1-2.7,1.6c-0.2,3.6-0.3,7.2,0,10.9
		c1.2,0.5,2.4,0.9,3.6,1.4c-2.1,0.2-4.1,0.4-6.2,0.5C151.6,217.9,151.7,212.9,152.6,208.2z"/>
</g>
<g id="_x23_624814ff">
	<path class="st194" d="M155.5,220.7c-0.3-3.6-0.2-7.2,0-10.9c0.2,3.3-0.6,6.9,0.7,10c0.4,0.2,1.1,0.6,1.5,0.8
		c6.8-1.8,12.8-5.5,19.1-8.4c1.9,0.9,3.8,1.8,5.6,2.7c-4.4,2-8.4,4.8-12.8,6.7c-10.3,4.6-21.4,7.7-32.6,8.9c-9,0.5-18,0.7-26.9-0.5
		c-1-0.7-2-1.5-3-2.2c4.8,1,9.7,1.2,14.5,0.1c-2.4-1.2-5-2.2-7.7-2.8c7.3,0.7,14.7,0.7,22.1,0c4.2-0.3,8.4-1.3,12.4-2.5
		c1.5,0,3,0,4.5,0c2.1-0.1,4.1-0.3,6.2-0.5C157.8,221.6,156.6,221.2,155.5,220.7z"/>
</g>
<g id="_x23_2d331eff">
	<path class="st195" d="M137.4,212c3.3,0.4,6.6,0.5,9.9-0.4c0.8,3.6,1.1,7.3,1.2,11c-4.1,1.2-8.2,2.2-12.4,2.5
		c0.8-0.8,1.7-1.6,2.5-2.4c-0.1-2.8-0.1-5.5-0.2-8.3c-0.8-0.7-1.6-1.3-2.3-1.9C136.3,212.4,137,212.1,137.4,212z"/>
</g>
<g id="_x23_a57e3aff">
	<path class="st196" d="M86,218c9.1,2.9,18.3,6,27.8,7.1c2.7,0.6,5.2,1.6,7.7,2.8c-4.8,1.1-9.7,0.9-14.5-0.1c-0.5-0.3-1.5-0.9-2-1.2
		c2.3,0,4.7-0.1,7-0.1C103.1,224.7,93.9,223,86,218z"/>
</g>
</svg>
