<?xml version="1.0" encoding="utf-8"?>
<!-- Generator: Adobe Illustrator 26.0.3, SVG Export Plug-In . SVG Version: 6.00 Build 0)  -->
<svg version="1.1" id="Layer_1" xmlns="http://www.w3.org/2000/svg" xmlns:xlink="http://www.w3.org/1999/xlink" x="0px" y="0px"
	 viewBox="0 0 250 250" style="enable-background:new 0 0 250 250;" xml:space="preserve">
<style type="text/css">
	.st0{fill:#FFFFFF;}
	.st1{fill:#8062E1;}
</style>
<g id="_x23_ffffffff">
	<path class="st0" d="M113.4,14.6c9.4-0.6,18.9-0.7,28.3,0.6c26.7,4,51.8,18.2,68.9,39.2c16.2,19.6,25.7,45,25.1,70.6
		c0.6,26.3-9.5,52.4-26.5,72.3c-18,21.1-44.2,35.1-71.9,38c-10,0.7-20.1,0.8-30-0.6c-25.2-4-49-17.1-65.8-36.3
		c-14.5-16.6-24.2-37.4-26.8-59.3c-0.9-9.6-0.9-19.4,0.1-29c3.7-27.8,18.5-54,40.5-71.5C72,25.2,92.3,16.6,113.4,14.6 M115.3,35.9
		c-22.4,2.4-43.9,13.6-58.4,31C43.7,82.1,36.2,101.9,35.4,122c-0.7,20.2,5.8,40.5,17.9,56.7c12.2,16.3,30.1,28.4,50,33.2
		c22,5.8,46,2.3,65.8-8.9c16.5-9.3,29.9-24,37.7-41.3c7.9-17.5,10.1-37.7,5.7-56.4C208.1,86.1,197.3,68.4,182,56
		C163.8,40.6,139,33.3,115.3,35.9z"/>
	<path class="st0" d="M106.5,67c-0.4-6.8,3.4-14.7,10.5-16.4c4.3-0.7,8.7,1.3,13,0.4c6.9-1.2,13.4,3.3,17.1,8.9
		c5.8,8.7,9.2,18.9,9.8,29.4c6.9,1.4,13.5,3.6,20.2,5.7c4.9,1.4,8.8,5.4,10.4,10.2c0.9,2.8,1,5.7,1.7,8.5c1.7,1.1,3.6,1.7,5.5,2.4
		c0.1,3.7-0.2,8.1-3.9,10.2c-2.4-0.3-4.5-1.8-6.8-2.3c-3.7,1.6-6.9,4.6-11.1,4.7c-6.8,0.5-12.9-3.3-19.2-5.3
		c-1.8,3.3-4.2,6.6-4.7,10.4c6.8,7.5,16.3,13.1,20.3,22.9c2.3,6.2,4.2,13.5,1,19.7c-1.8,3.7-5.8,5.3-9.3,6.9
		c-3.1,6.5-9.8,10.7-17,10.5c-6.4,0.8-12.6-2.2-16.9-6.9c-8.9-9.6-13.8-22.6-13.9-35.6c-0.1,0-0.4,0-0.5,0
		c-0.3,6.9-0.1,14.1-2.8,20.6c-1.1,2.9-4.3,4-6.7,5.5c-4.3,2.2-7,6.7-11.5,8.3c-6,2.4-13.2,2.9-19.2-0.1c-5.3-2.7-7.9-8.9-8.1-14.6
		c-1-13.6,5.8-26.7,15.2-36.2c-5.4-5.8-12.4-10.9-14.6-18.9c-1.5-5,0.3-9.9,1.1-14.8c-2.1-6.8-7.8-12.2-7.7-19.6
		c1.5-0.3,2.8,0,3.8,1.2c3.5,3.6,5.7,8.3,8.8,12.4c2.3,3.5,7.1,3.4,10.5,5.5c6.6,3.9,10.2,11.1,12.2,18.2c9-1.3,18-1.1,27.1-0.9
		c3.1-5.3,6.8-10.3,9.6-15.8c-3.5-4.9-8.9-8.1-13-12.4C111.6,83.4,107.3,75.5,106.5,67z"/>
</g>
<g id="_x23_8062e1ff">
	<path class="st1" d="M116.7,0h16.7c26.3,2.2,52.1,12.2,72.3,29.4c25.8,21.5,41.9,53.8,44.4,87.3v16.6
		c-2.1,25.9-11.8,51.2-28.6,71.1C200,231,167.2,247.4,133.3,250h-16.6c-26.3-2.1-52.1-12.2-72.2-29.4C18.5,199.1,2.6,166.7,0,133.3
		v-16.6C1.6,98,6.9,79.6,16.3,63.3C29,40.7,49,22.4,72.5,11.5C86.4,5,101.5,1.5,116.7,0 M113.4,14.6c-21.1,1.9-41.5,10.6-58,23.8
		C33.5,56,18.7,82.2,15,110c-1,9.6-1,19.4-0.1,29c2.6,21.9,12.3,42.8,26.8,59.3c16.8,19.2,40.5,32.3,65.8,36.3
		c9.9,1.4,20,1.3,30,0.6c27.6-2.9,53.8-16.9,71.9-38c17-19.9,27.1-46,26.5-72.3c0.6-25.6-8.9-51-25.1-70.6
		c-17.1-21-42.2-35.1-68.9-39.2C132.4,13.9,122.8,14,113.4,14.6z"/>
	<path class="st1" d="M115.3,35.9C139,33.3,163.8,40.6,182,56c15.2,12.4,26.1,30.1,30.4,49.3c4.4,18.8,2.2,38.9-5.7,56.4
		c-7.8,17.3-21.2,32-37.7,41.3c-19.7,11.2-43.8,14.6-65.8,8.9c-19.8-4.8-37.8-16.9-50-33.2c-12.1-16.1-18.6-36.5-17.9-56.7
		c0.7-20.1,8.3-39.9,21.5-55.1C71.4,49.5,92.9,38.4,115.3,35.9 M106.5,67c0.8,8.5,5.1,16.4,11,22.5c4.1,4.4,9.4,7.5,13,12.4
		c-2.8,5.5-6.5,10.5-9.6,15.8c-9-0.2-18.1-0.4-27.1,0.9c-2-7.1-5.6-14.3-12.2-18.2c-3.4-2-8.1-1.9-10.5-5.5c-3-4.1-5.2-8.7-8.8-12.4
		c-1-1.1-2.3-1.5-3.8-1.2c-0.1,7.4,5.6,12.9,7.7,19.6c-0.8,4.9-2.7,9.8-1.1,14.8c2.1,8,9.1,13.1,14.6,18.9
		c-9.4,9.5-16.2,22.6-15.2,36.2c0.2,5.7,2.8,11.9,8.1,14.6c5.9,3,13.1,2.5,19.2,0.1c4.6-1.7,7.3-6.1,11.5-8.3
		c2.5-1.5,5.7-2.5,6.7-5.5c2.7-6.5,2.5-13.7,2.8-20.6c0.1,0,0.4,0,0.5,0c0.1,13,5,26,13.9,35.6c4.3,4.6,10.5,7.7,16.9,6.9
		c7.2,0.2,14-4,17-10.5c3.5-1.6,7.5-3.2,9.3-6.9c3.2-6.2,1.3-13.5-1-19.7c-4-9.8-13.5-15.3-20.3-22.9c0.5-3.9,2.9-7.1,4.7-10.4
		c6.3,1.9,12.3,5.7,19.2,5.3c4.2-0.1,7.4-3.1,11.1-4.7c2.4,0.6,4.4,2.1,6.8,2.3c3.6-2.1,3.9-6.5,3.9-10.2c-1.9-0.8-3.8-1.3-5.5-2.4
		c-0.7-2.8-0.8-5.8-1.7-8.5c-1.6-4.8-5.6-8.8-10.4-10.2c-6.7-2.1-13.3-4.3-20.2-5.7c-0.5-10.4-4-20.7-9.8-29.4
		C143.4,54.3,137,49.7,130,51c-4.4,0.9-8.7-1-13-0.4C109.9,52.3,106.1,60.2,106.5,67z"/>
</g>
</svg>
