<?xml version="1.0" encoding="UTF-8" ?>
<!DOCTYPE svg PUBLIC "-//W3C//DTD SVG 1.1//EN" "http://www.w3.org/Graphics/SVG/1.1/DTD/svg11.dtd">
<svg width="250pt" height="250pt" viewBox="0 0 250 250" version="1.1" xmlns="http://www.w3.org/2000/svg">
<g id="#ffffffff">
<path fill="#ffffff" opacity="1.00" d=" M 0.00 0.00 L 111.92 0.00 C 102.43 2.25 92.62 3.46 83.50 7.18 C 43.39 20.44 12.01 56.17 3.06 97.33 C 1.56 102.06 1.72 107.14 0.00 111.81 L 0.00 0.00 Z" />
<path fill="#ffffff" opacity="1.00" d=" M 142.51 0.00 L 250.00 0.00 L 250.00 115.70 C 248.59 109.20 248.40 102.49 246.59 96.06 C 240.03 69.16 224.73 44.31 202.89 27.16 C 187.46 15.15 169.34 6.36 150.12 2.56 C 147.59 1.69 145.10 0.70 142.51 0.00 Z" />
<path fill="#ffffff" opacity="1.00" d=" M 185.50 39.52 C 184.44 36.24 189.08 35.14 190.98 37.05 C 195.57 41.44 200.13 45.86 204.67 50.30 C 206.36 51.58 206.24 54.36 204.55 55.59 C 199.86 59.96 195.43 64.61 190.60 68.82 C 188.50 71.40 183.70 67.84 186.12 65.32 C 188.61 62.13 191.78 59.54 194.65 56.70 C 192.01 55.16 188.89 55.80 186.00 55.69 C 145.65 55.71 105.31 55.69 64.97 55.70 C 61.71 55.75 58.25 56.38 55.82 58.71 C 52.64 61.09 51.79 65.24 51.69 68.98 C 51.70 106.65 51.70 144.32 51.69 182.00 C 51.73 185.71 51.46 189.45 52.06 193.14 C 55.96 191.21 58.22 187.24 61.70 184.76 C 63.31 183.91 65.65 184.15 66.36 186.07 C 67.05 188.42 64.76 189.88 63.41 191.41 C 59.05 195.39 54.96 199.66 50.52 203.55 C 48.84 203.96 46.71 203.94 45.57 202.41 C 40.93 197.66 36.20 192.99 31.30 188.50 C 31.44 187.28 31.31 185.98 31.86 184.85 C 33.01 184.45 34.29 184.14 35.48 184.53 C 39.23 187.00 41.66 191.04 45.63 193.22 C 45.71 154.15 45.65 115.08 45.66 76.00 C 45.73 70.93 45.22 65.68 46.93 60.81 C 49.09 57.19 52.27 54.25 55.55 51.66 C 58.49 50.35 61.75 49.88 64.95 49.74 C 108.35 49.65 151.75 49.87 195.14 49.62 C 192.42 45.79 188.10 43.44 185.50 39.52 Z" />
<path fill="#ffffff" opacity="1.00" d=" M 176.90 76.85 C 179.54 74.12 183.60 74.62 187.04 74.66 C 189.43 74.62 191.94 75.51 193.44 77.44 C 194.12 82.79 193.72 88.21 193.68 93.59 C 189.95 95.51 186.10 97.26 182.67 99.69 C 181.33 100.75 181.60 102.50 181.64 104.00 C 182.31 106.42 185.23 105.31 187.03 105.59 C 187.69 104.58 188.36 103.57 189.03 102.56 C 190.60 102.66 192.18 102.75 193.75 102.87 C 193.76 105.67 193.77 108.47 193.85 111.27 C 187.81 111.64 181.75 111.56 175.71 111.31 C 175.63 106.55 175.42 101.77 175.74 97.02 C 175.94 96.67 176.35 95.97 176.56 95.62 C 180.22 93.56 183.99 91.71 187.64 89.64 C 187.71 86.83 187.70 84.03 187.66 81.22 C 185.84 80.85 184.00 80.86 182.19 81.22 C 181.84 83.03 181.66 84.87 181.52 86.70 C 179.64 86.70 177.77 86.70 175.90 86.71 C 175.52 83.43 175.10 79.81 176.90 76.85 Z" />
<path fill="#ffffff" opacity="1.00" d=" M 200.53 76.39 C 202.18 76.25 203.84 76.24 205.50 76.36 C 205.92 78.20 206.37 80.06 206.31 81.97 C 206.22 118.99 206.36 156.02 206.24 193.05 C 205.98 202.54 197.76 211.63 188.00 211.37 C 152.32 211.35 116.63 211.38 80.95 211.35 C 79.26 211.47 77.93 210.30 76.56 209.53 C 76.57 208.50 76.58 207.49 76.57 206.47 C 79.95 204.11 84.15 204.86 88.00 204.77 C 121.34 204.77 154.68 204.82 188.02 204.75 C 192.29 204.86 196.65 202.51 198.43 198.54 C 199.87 195.94 199.79 192.90 199.82 190.03 C 199.77 154.35 199.83 118.66 199.78 82.98 C 199.76 80.76 200.16 78.57 200.53 76.39 Z" />
<path fill="#ffffff" opacity="1.00" d=" M 246.06 156.18 C 248.00 150.74 248.82 145.01 250.00 139.38 L 250.00 250.00 L 0.00 250.00 L 0.00 143.41 C 1.10 148.04 2.34 152.66 3.99 157.13 C 6.92 167.74 11.52 177.79 16.66 187.49 C 31.29 212.84 55.06 232.92 82.78 242.48 C 110.13 252.58 141.13 252.36 168.42 242.14 C 185.66 235.77 201.48 225.48 214.15 212.15 C 229.76 196.92 240.35 177.12 246.06 156.18 Z" />
</g>
<g id="#231f20ff">
<path fill="#231f20" opacity="1.00" d=" M 111.92 0.00 L 132.51 0.00 C 138.33 1.20 144.25 1.65 150.12 2.56 C 169.34 6.36 187.46 15.15 202.89 27.16 C 224.73 44.31 240.03 69.16 246.59 96.06 C 248.40 102.49 248.59 109.20 250.00 115.70 L 250.00 133.21 C 248.56 134.80 248.45 136.91 248.45 138.94 C 248.42 144.78 246.56 150.39 246.06 156.18 C 240.35 177.12 229.76 196.92 214.15 212.15 C 201.48 225.48 185.66 235.77 168.42 242.14 C 141.13 252.36 110.13 252.58 82.78 242.48 C 55.06 232.92 31.29 212.84 16.66 187.49 C 11.52 177.79 6.92 167.74 3.99 157.13 C 2.33 148.64 1.33 140.06 0.00 131.52 L 0.00 111.81 C 1.72 107.14 1.56 102.06 3.06 97.33 C 12.01 56.17 43.39 20.44 83.50 7.18 C 92.62 3.46 102.43 2.25 111.92 0.00 M 185.50 39.52 C 188.10 43.44 192.42 45.79 195.14 49.62 C 151.75 49.87 108.35 49.65 64.95 49.74 C 61.75 49.88 58.49 50.35 55.55 51.66 C 52.27 54.25 49.09 57.19 46.93 60.81 C 45.22 65.68 45.73 70.93 45.66 76.00 C 45.65 115.08 45.71 154.15 45.63 193.22 C 41.66 191.04 39.23 187.00 35.48 184.53 C 34.29 184.14 33.01 184.45 31.86 184.85 C 31.31 185.98 31.44 187.28 31.30 188.50 C 36.20 192.99 40.93 197.66 45.57 202.41 C 46.71 203.94 48.84 203.96 50.52 203.55 C 54.96 199.66 59.05 195.39 63.41 191.41 C 64.76 189.88 67.05 188.42 66.36 186.07 C 65.65 184.15 63.31 183.91 61.70 184.76 C 58.22 187.24 55.96 191.21 52.06 193.14 C 51.46 189.45 51.73 185.71 51.69 182.00 C 51.70 144.32 51.70 106.65 51.69 68.98 C 51.79 65.24 52.64 61.09 55.82 58.71 C 58.25 56.38 61.71 55.75 64.97 55.70 C 105.31 55.69 145.65 55.71 186.00 55.69 C 188.89 55.80 192.01 55.16 194.65 56.70 C 191.78 59.54 188.61 62.13 186.12 65.32 C 183.70 67.84 188.50 71.40 190.60 68.82 C 195.43 64.61 199.86 59.96 204.55 55.59 C 206.24 54.36 206.36 51.58 204.67 50.30 C 200.13 45.86 195.57 41.44 190.98 37.05 C 189.08 35.14 184.44 36.24 185.50 39.52 M 176.90 76.85 C 175.10 79.81 175.52 83.43 175.90 86.71 C 177.77 86.70 179.64 86.70 181.52 86.70 C 181.66 84.87 181.84 83.03 182.19 81.22 C 184.00 80.86 185.84 80.85 187.66 81.22 C 187.70 84.03 187.71 86.83 187.64 89.64 C 183.99 91.71 180.22 93.56 176.56 95.62 C 176.35 95.97 175.94 96.67 175.74 97.02 C 175.42 101.77 175.63 106.55 175.71 111.31 C 181.75 111.56 187.81 111.64 193.85 111.27 C 193.77 108.47 193.76 105.67 193.75 102.87 C 192.18 102.75 190.60 102.66 189.03 102.56 C 188.36 103.57 187.69 104.58 187.03 105.59 C 185.23 105.31 182.31 106.42 181.64 104.00 C 181.60 102.50 181.33 100.75 182.67 99.69 C 186.10 97.26 189.95 95.51 193.68 93.59 C 193.72 88.21 194.12 82.79 193.44 77.44 C 191.94 75.51 189.43 74.62 187.04 74.66 C 183.60 74.62 179.54 74.12 176.90 76.85 M 200.53 76.39 C 200.16 78.57 199.76 80.76 199.78 82.98 C 199.83 118.66 199.77 154.35 199.82 190.03 C 199.79 192.90 199.87 195.94 198.43 198.54 C 196.65 202.51 192.29 204.86 188.02 204.75 C 154.68 204.82 121.34 204.77 88.00 204.77 C 84.15 204.86 79.95 204.11 76.57 206.47 C 76.58 207.49 76.57 208.50 76.56 209.53 C 77.93 210.30 79.26 211.47 80.95 211.35 C 116.63 211.38 152.32 211.35 188.00 211.37 C 197.76 211.63 205.98 202.54 206.24 193.05 C 206.36 156.02 206.22 118.99 206.31 81.97 C 206.37 80.06 205.92 78.20 205.50 76.36 C 203.84 76.24 202.18 76.25 200.53 76.39 M 144.41 96.50 C 139.89 100.95 135.47 105.49 130.98 109.98 C 128.57 112.32 126.45 115.18 123.21 116.41 C 117.80 110.63 112.03 105.18 106.58 99.42 C 105.27 98.25 104.04 96.47 102.06 96.64 C 94.32 96.63 86.57 96.44 78.84 96.79 C 78.41 119.52 78.81 142.26 78.64 164.99 C 78.61 167.55 78.66 170.11 78.95 172.65 C 87.83 172.52 96.71 172.59 105.60 172.61 C 105.62 161.01 105.22 149.38 105.80 137.79 C 107.41 138.54 108.83 139.62 109.98 140.98 C 113.90 145.29 118.18 149.25 122.09 153.57 C 122.81 154.15 123.57 155.09 124.63 154.60 C 130.79 149.32 135.72 142.67 142.20 137.75 C 142.74 149.36 142.41 161.01 142.37 172.64 C 151.45 172.58 160.54 172.59 169.62 172.63 C 169.35 147.28 169.70 121.92 169.45 96.56 C 161.10 96.41 152.76 96.53 144.41 96.50 Z" />
</g>
<g id="#d9d9d9ff">
<path fill="#d9d9d9" opacity="1.00" d=" M 132.51 0.00 L 142.51 0.00 C 145.10 0.70 147.59 1.69 150.12 2.56 C 144.25 1.65 138.33 1.20 132.51 0.00 Z" />
<path fill="#d9d9d9" opacity="1.00" d=" M 78.84 96.79 C 86.57 96.44 94.32 96.63 102.06 96.64 C 104.04 96.47 105.27 98.25 106.58 99.42 C 112.03 105.18 117.80 110.63 123.21 116.41 C 124.28 120.52 123.96 124.80 123.96 129.00 C 123.85 135.69 124.04 142.37 123.96 149.06 C 123.84 150.73 124.12 152.95 122.09 153.57 C 118.18 149.25 113.90 145.29 109.98 140.98 C 108.83 139.62 107.41 138.54 105.80 137.79 C 105.22 149.38 105.62 161.01 105.60 172.61 C 96.71 172.59 87.83 172.52 78.95 172.65 C 78.66 170.11 78.61 167.55 78.64 164.99 C 78.81 142.26 78.41 119.52 78.84 96.79 Z" />
<path fill="#d9d9d9" opacity="1.00" d=" M 0.00 131.52 C 1.33 140.06 2.33 148.64 3.99 157.13 C 2.34 152.66 1.10 148.04 0.00 143.41 L 0.00 131.52 Z" />
</g>
<g id="#a6a6a6ff">
<path fill="#a6a6a6" opacity="1.00" d=" M 144.41 96.50 C 152.76 96.53 161.10 96.41 169.45 96.56 C 169.70 121.92 169.35 147.28 169.62 172.63 C 160.54 172.59 151.45 172.58 142.37 172.64 C 142.41 161.01 142.74 149.36 142.20 137.75 C 135.72 142.67 130.79 149.32 124.63 154.60 C 123.57 155.09 122.81 154.15 122.09 153.57 C 124.12 152.95 123.84 150.73 123.96 149.06 C 124.04 142.37 123.85 135.69 123.96 129.00 C 123.96 124.80 124.28 120.52 123.21 116.41 C 126.45 115.18 128.57 112.32 130.98 109.98 C 135.47 105.49 139.89 100.95 144.41 96.50 Z" />
<path fill="#a6a6a6" opacity="1.00" d=" M 248.45 138.94 C 248.45 136.91 248.56 134.80 250.00 133.21 L 250.00 139.38 C 248.82 145.01 248.00 150.74 246.06 156.18 C 246.56 150.39 248.42 144.78 248.45 138.94 Z" />
</g>
</svg>
