<?xml version="1.0" encoding="UTF-8" ?>
<!DOCTYPE svg PUBLIC "-//W3C//DTD SVG 1.1//EN" "http://www.w3.org/Graphics/SVG/1.1/DTD/svg11.dtd">
<svg width="250pt" height="250pt" viewBox="0 0 250 250" version="1.1" xmlns="http://www.w3.org/2000/svg">
<g id="#ffffffff">
<path fill="#ffffff" opacity="1.00" d=" M 0.00 0.00 L 250.00 0.00 L 250.00 250.00 L 0.00 250.00 L 0.00 0.00 M 117.20 8.21 C 107.18 14.21 97.16 20.24 86.94 25.91 C 64.99 39.13 42.84 52.04 20.84 65.18 L 20.22 64.97 C 20.05 105.52 20.36 146.07 20.06 186.62 L 20.65 186.57 C 25.27 190.45 30.86 192.90 35.95 196.09 C 46.47 202.67 57.45 208.45 68.09 214.83 C 84.21 224.40 100.50 233.65 116.70 243.07 C 119.61 244.82 122.36 247.49 125.87 247.79 C 130.28 246.21 134.05 243.31 138.07 240.96 C 145.19 237.23 152.00 232.95 159.01 229.01 C 166.64 225.13 173.85 220.49 181.31 216.29 C 197.42 207.10 213.55 197.94 229.54 188.55 C 231.31 187.75 231.29 185.71 231.30 184.06 C 231.27 147.37 231.27 110.69 231.30 74.00 C 231.10 70.83 231.88 67.39 230.70 64.40 C 209.63 51.26 187.59 39.65 166.37 26.70 C 156.41 21.38 146.81 15.45 136.93 9.98 C 133.26 8.01 129.90 5.41 125.97 3.97 C 122.70 4.38 120.02 6.66 117.20 8.21 Z" />
</g>
<g id="#ebc22fff">
<path fill="#ebc22f" opacity="1.00" d=" M 117.20 8.21 C 120.02 6.66 122.70 4.38 125.97 3.97 C 129.90 5.41 133.26 8.01 136.93 9.98 C 146.81 15.45 156.41 21.38 166.37 26.70 C 187.59 39.65 209.63 51.26 230.70 64.40 C 231.88 67.39 231.10 70.83 231.30 74.00 C 231.27 110.69 231.27 147.37 231.30 184.06 C 231.29 185.71 231.31 187.75 229.54 188.55 C 213.55 197.94 197.42 207.10 181.31 216.29 C 173.85 220.49 166.64 225.13 159.01 229.01 C 152.00 232.95 145.19 237.23 138.07 240.96 C 137.26 240.25 136.45 239.55 135.64 238.85 C 148.61 230.54 162.40 223.63 175.54 215.60 C 188.20 208.22 201.06 201.18 213.61 193.60 C 218.00 190.83 222.63 188.47 227.22 186.05 C 227.53 185.87 228.16 185.49 228.47 185.31 C 228.94 175.88 228.42 166.43 228.64 157.00 C 228.32 148.57 229.45 140.04 227.64 131.73 L 227.59 130.88 C 227.97 117.41 228.90 103.91 227.75 90.44 C 227.66 83.80 228.70 77.18 228.12 70.53 C 226.77 71.02 225.43 71.51 224.10 72.05 C 223.90 72.13 223.49 72.29 223.29 72.37 C 222.92 71.19 222.56 70.01 222.24 68.82 C 223.74 67.92 225.19 66.96 226.66 66.01 C 218.69 61.65 210.95 56.89 203.06 52.40 C 197.52 49.23 192.17 45.75 186.46 42.89 C 183.49 41.28 180.55 39.64 177.64 37.92 C 164.68 29.86 151.23 22.63 138.05 14.93 C 134.00 12.67 130.30 9.64 125.86 8.17 C 123.59 8.33 121.65 9.70 119.70 10.74 C 103.92 20.69 87.08 28.85 71.55 39.21 C 61.23 44.04 51.71 50.33 41.77 55.87 C 36.12 59.60 29.86 62.35 24.49 66.50 C 23.30 65.99 22.07 65.59 20.84 65.18 C 42.84 52.04 64.99 39.13 86.94 25.91 C 97.16 20.24 107.18 14.21 117.20 8.21 Z" />
</g>
<g id="#2d2c2bff">
<path fill="#2d2c2b" opacity="1.00" d=" M 119.70 10.74 C 121.65 9.70 123.59 8.33 125.86 8.17 C 130.30 9.64 134.00 12.67 138.05 14.93 C 151.23 22.63 164.68 29.86 177.64 37.92 C 176.44 38.84 175.27 39.83 173.94 40.57 C 172.49 39.98 171.16 39.14 169.82 38.36 C 168.81 39.06 167.81 39.77 166.82 40.49 C 163.01 39.62 159.02 39.14 155.49 37.37 C 152.41 35.49 150.07 32.62 146.92 30.85 C 145.61 32.37 145.32 34.41 144.83 36.29 C 139.50 33.32 134.43 29.94 129.18 26.85 C 126.26 24.89 122.60 25.03 119.40 26.19 C 118.57 27.20 117.78 28.26 116.99 29.30 C 118.37 29.53 119.76 29.76 121.14 29.99 C 120.41 31.79 120.20 34.39 117.93 34.89 C 114.28 33.64 111.72 30.37 108.01 29.22 C 107.75 31.73 107.31 34.21 106.64 36.64 C 109.76 37.33 112.92 37.80 116.10 38.10 C 115.09 39.61 114.09 41.11 113.09 42.62 C 109.55 40.73 106.12 38.17 102.04 37.67 C 96.09 39.94 90.93 43.87 85.16 46.57 C 84.58 46.35 83.41 45.92 82.83 45.71 C 82.66 43.01 82.47 40.31 82.30 37.62 C 78.80 38.62 75.18 39.09 71.55 39.21 C 87.08 28.85 103.92 20.69 119.70 10.74 Z" />
</g>
<g id="#b39b19ff">
<path fill="#b39b19" opacity="1.00" d=" M 119.40 26.19 C 122.60 25.03 126.26 24.89 129.18 26.85 C 134.43 29.94 139.50 33.32 144.83 36.29 C 149.21 38.87 153.59 41.48 158.06 43.91 C 170.93 50.94 183.35 58.73 196.15 65.87 C 201.62 68.87 206.77 72.59 212.81 74.42 C 210.40 75.84 207.95 77.19 205.52 78.57 C 202.81 76.10 199.65 74.24 196.43 72.53 C 192.43 70.23 188.59 67.64 184.49 65.53 C 171.41 58.75 159.28 50.28 146.22 43.50 C 140.16 40.47 134.69 36.42 128.68 33.32 C 125.19 31.52 121.79 29.39 119.40 26.19 Z" />
<path fill="#b39b19" opacity="1.00" d=" M 85.16 46.57 C 90.93 43.87 96.09 39.94 102.04 37.67 C 106.12 38.17 109.55 40.73 113.09 42.62 C 129.07 51.87 144.72 61.71 161.21 70.06 C 166.61 74.13 172.71 77.11 178.48 80.62 C 182.43 83.04 186.48 85.32 190.76 87.12 C 188.63 88.38 186.47 89.59 184.30 90.79 C 181.03 88.21 177.40 86.15 173.74 84.19 C 163.09 78.02 152.47 71.79 141.76 65.74 C 131.64 60.13 121.64 54.28 111.82 48.17 C 108.44 46.28 105.08 43.67 101.07 43.60 C 97.23 44.87 94.13 47.63 90.60 49.52 C 80.54 55.09 70.82 61.24 60.70 66.72 C 54.96 70.33 48.49 72.88 43.47 77.55 C 41.60 76.47 39.76 75.34 37.92 74.21 C 44.69 70.22 51.32 66.00 58.27 62.33 C 67.56 57.64 76.17 51.77 85.16 46.57 Z" />
<path fill="#b39b19" opacity="1.00" d=" M 96.85 64.83 C 99.29 63.55 102.13 61.53 104.93 63.08 C 111.41 65.98 117.16 70.23 123.41 73.57 C 130.56 77.36 137.07 82.32 144.58 85.42 C 151.55 90.04 158.81 94.23 166.07 98.39 C 163.20 99.18 160.27 99.66 157.33 100.05 C 153.80 97.06 149.70 94.90 145.53 92.96 C 143.74 92.00 141.98 90.97 140.25 89.91 C 135.41 86.95 130.69 83.70 125.42 81.53 C 121.95 80.06 118.79 83.06 115.84 84.51 C 113.57 85.89 111.39 87.41 109.25 88.98 C 114.15 94.26 121.27 96.44 126.57 101.22 C 122.53 101.67 118.40 101.63 114.49 100.41 C 110.74 97.41 106.63 94.42 101.85 93.42 C 98.25 93.40 95.62 96.45 92.79 98.29 C 93.90 98.86 95.00 99.44 96.13 99.98 C 92.04 99.51 87.99 98.68 84.10 97.30 C 91.43 93.29 98.40 88.68 105.80 84.80 C 109.45 82.73 113.46 81.02 116.39 77.90 C 116.37 77.48 116.32 76.64 116.30 76.22 C 113.26 73.62 109.68 71.73 106.23 69.74 C 104.52 68.92 102.53 67.66 100.63 68.64 C 97.68 69.83 95.08 71.69 92.37 73.34 C 83.22 78.85 73.54 83.54 64.80 89.72 C 62.86 88.66 60.93 87.56 59.02 86.43 C 65.95 83.63 72.11 79.37 78.49 75.55 C 84.55 71.88 90.74 68.42 96.85 64.83 Z" />
</g>
<g id="#363636ff">
<path fill="#363636" opacity="1.00" d=" M 116.99 29.30 C 117.78 28.26 118.57 27.20 119.40 26.19 C 121.79 29.39 125.19 31.52 128.68 33.32 C 134.69 36.42 140.16 40.47 146.22 43.50 C 143.02 46.40 141.64 50.49 141.10 54.65 C 142.97 54.54 144.84 54.42 146.72 54.31 C 148.58 57.59 150.05 61.39 153.31 63.58 C 156.14 65.49 158.87 67.55 161.21 70.06 C 144.72 61.71 129.07 51.87 113.09 42.62 C 114.09 41.11 115.09 39.61 116.10 38.10 C 112.92 37.80 109.76 37.33 106.64 36.64 C 107.31 34.21 107.75 31.73 108.01 29.22 C 111.72 30.37 114.28 33.64 117.93 34.89 C 120.20 34.39 120.41 31.79 121.14 29.99 C 119.76 29.76 118.37 29.53 116.99 29.30 Z" />
</g>
<g id="#383839ff">
<path fill="#383839" opacity="1.00" d=" M 144.83 36.29 C 145.32 34.41 145.61 32.37 146.92 30.85 C 150.07 32.62 152.41 35.49 155.49 37.37 C 159.02 39.14 163.01 39.62 166.82 40.49 C 167.81 39.77 168.81 39.06 169.82 38.36 C 171.16 39.14 172.49 39.98 173.94 40.57 C 175.27 39.83 176.44 38.84 177.64 37.92 C 180.55 39.64 183.49 41.28 186.46 42.89 C 185.92 43.69 185.38 44.49 184.84 45.29 C 182.69 45.33 180.54 45.39 178.39 45.45 C 178.30 47.78 178.00 50.15 178.52 52.45 C 180.56 56.02 185.32 55.64 188.45 57.71 C 190.90 59.51 192.79 62.00 195.39 63.62 C 198.43 65.50 201.83 66.66 205.13 67.99 C 206.13 66.64 207.13 65.28 208.13 63.93 C 205.16 61.69 201.62 60.48 197.93 60.18 C 198.53 58.89 199.14 57.60 199.75 56.31 C 203.46 58.13 207.31 59.61 211.28 60.76 C 208.53 58.58 205.71 56.50 202.88 54.44 C 202.92 53.93 203.01 52.91 203.06 52.40 C 210.95 56.89 218.69 61.65 226.66 66.01 C 225.19 66.96 223.74 67.92 222.24 68.82 C 219.08 70.66 215.92 72.49 212.81 74.42 C 206.77 72.59 201.62 68.87 196.15 65.87 C 183.35 58.73 170.93 50.94 158.06 43.91 C 153.59 41.48 149.21 38.87 144.83 36.29 Z" />
</g>
<g id="#363634ff">
<path fill="#363634" opacity="1.00" d=" M 71.55 39.21 C 75.18 39.09 78.80 38.62 82.30 37.62 C 82.47 40.31 82.66 43.01 82.83 45.71 C 83.41 45.92 84.58 46.35 85.16 46.57 C 76.17 51.77 67.56 57.64 58.27 62.33 C 51.32 66.00 44.69 70.22 37.92 74.21 C 33.52 71.51 29.09 68.85 24.49 66.50 C 29.86 62.35 36.12 59.60 41.77 55.87 C 51.71 50.33 61.23 44.04 71.55 39.21 Z" />
</g>
<g id="#434446ff">
<path fill="#434446" opacity="1.00" d=" M 186.46 42.89 C 192.17 45.75 197.52 49.23 203.06 52.40 C 203.01 52.91 202.92 53.93 202.88 54.44 C 205.71 56.50 208.53 58.58 211.28 60.76 C 207.31 59.61 203.46 58.13 199.75 56.31 C 199.14 57.60 198.53 58.89 197.93 60.18 C 201.62 60.48 205.16 61.69 208.13 63.93 C 207.13 65.28 206.13 66.64 205.13 67.99 C 201.83 66.66 198.43 65.50 195.39 63.62 C 192.79 62.00 190.90 59.51 188.45 57.71 C 185.32 55.64 180.56 56.02 178.52 52.45 C 178.00 50.15 178.30 47.78 178.39 45.45 C 180.54 45.39 182.69 45.33 184.84 45.29 C 185.38 44.49 185.92 43.69 186.46 42.89 Z" />
</g>
<g id="#3a3938ff">
<path fill="#3a3938" opacity="1.00" d=" M 90.60 49.52 C 94.13 47.63 97.23 44.87 101.07 43.60 C 105.08 43.67 108.44 46.28 111.82 48.17 C 121.64 54.28 131.64 60.13 141.76 65.74 C 141.22 68.02 140.99 70.57 139.38 72.41 C 136.22 73.57 132.78 73.53 129.47 73.91 C 131.33 75.43 133.26 76.87 135.25 78.22 C 135.45 77.06 135.64 75.90 135.82 74.74 C 136.39 75.24 136.97 75.74 137.55 76.24 C 137.56 77.45 137.58 78.65 137.60 79.86 C 140.32 81.17 142.92 82.83 144.58 85.42 C 137.07 82.32 130.56 77.36 123.41 73.57 C 117.16 70.23 111.41 65.98 104.93 63.08 C 102.13 61.53 99.29 63.55 96.85 64.83 C 90.74 68.42 84.55 71.88 78.49 75.55 C 72.11 79.37 65.95 83.63 59.02 86.43 C 53.89 83.37 48.66 80.51 43.47 77.55 C 48.49 72.88 54.96 70.33 60.70 66.72 C 70.82 61.24 80.54 55.09 90.60 49.52 Z" />
</g>
<g id="#414141ff">
<path fill="#414141" opacity="1.00" d=" M 146.22 43.50 C 159.28 50.28 171.41 58.75 184.49 65.53 C 185.02 66.50 185.55 67.47 186.09 68.45 C 184.15 69.81 182.32 71.77 179.80 71.87 C 177.03 72.02 174.30 72.56 171.81 73.84 C 172.19 74.30 172.95 75.23 173.33 75.70 C 180.93 73.93 188.79 74.05 196.43 72.53 C 199.65 74.24 202.81 76.10 205.52 78.57 C 200.58 81.40 195.62 84.18 190.76 87.12 C 186.48 85.32 182.43 83.04 178.48 80.62 C 172.71 77.11 166.61 74.13 161.21 70.06 C 158.87 67.55 156.14 65.49 153.31 63.58 C 150.05 61.39 148.58 57.59 146.72 54.31 C 144.84 54.42 142.97 54.54 141.10 54.65 C 141.64 50.49 143.02 46.40 146.22 43.50 Z" />
<path fill="#414141" opacity="1.00" d=" M 22.72 69.88 C 28.75 72.82 34.44 76.37 40.20 79.79 C 51.52 86.43 63.30 92.37 74.04 99.94 C 77.19 103.16 80.25 106.47 83.43 109.67 C 81.14 110.94 78.89 112.28 76.67 113.67 C 72.33 110.61 67.89 107.69 63.19 105.21 C 63.03 105.82 62.70 107.04 62.54 107.65 L 62.36 108.35 C 62.10 105.41 59.78 103.81 57.34 102.66 C 57.28 104.15 57.22 105.63 57.16 107.12 C 57.60 110.81 54.98 113.47 52.49 115.77 C 55.74 117.05 59.16 116.44 62.38 115.46 C 62.86 118.49 63.34 121.52 63.82 124.55 C 62.98 124.22 62.14 123.88 61.29 123.56 C 58.00 126.31 53.97 128.05 50.81 130.95 C 49.68 133.76 50.61 136.84 50.96 139.72 C 47.54 137.56 43.97 135.65 40.17 134.24 C 42.24 138.96 47.20 141.05 51.23 143.76 C 49.49 143.18 47.74 142.67 45.98 142.16 C 44.28 143.92 42.56 145.67 40.85 147.42 C 39.96 147.09 39.08 146.77 38.19 146.45 C 39.98 149.90 40.77 153.74 40.38 157.61 C 36.44 153.20 34.20 147.58 33.82 141.70 C 35.23 141.96 36.65 142.21 38.07 142.46 C 37.22 141.31 36.37 140.16 35.53 139.01 C 35.86 138.73 36.51 138.18 36.84 137.90 C 38.09 138.20 39.33 138.49 40.58 138.77 C 40.27 137.01 40.05 135.22 39.50 133.51 C 38.30 132.38 36.84 131.60 35.45 130.75 C 35.22 132.21 34.98 133.67 34.75 135.14 C 34.23 134.49 33.70 133.85 33.15 133.23 C 33.55 132.15 33.95 131.07 34.35 130.00 C 31.40 127.70 28.19 125.60 24.45 124.88 C 24.34 125.37 24.12 126.36 24.01 126.85 C 23.85 127.62 23.54 129.15 23.38 129.91 C 23.02 117.30 22.10 104.67 22.97 92.06 C 23.93 84.67 22.23 77.28 22.72 69.88 M 35.12 94.60 C 36.86 95.42 38.60 96.22 40.36 96.99 C 40.17 95.15 40.07 93.29 39.57 91.51 C 38.36 90.61 37.00 89.94 35.68 89.21 C 35.43 91.00 35.31 92.81 35.12 94.60 M 41.04 91.94 C 40.97 92.69 40.82 94.17 40.75 94.92 C 45.91 98.07 50.94 101.48 56.48 103.94 C 55.90 101.75 55.13 99.61 54.13 97.58 C 48.90 98.71 45.21 94.22 41.04 91.94 Z" />
</g>
<g id="#fdbd2bff">
<path fill="#fdbd2b" opacity="1.00" d=" M 20.22 64.97 L 20.84 65.18 C 22.07 65.59 23.30 65.99 24.49 66.50 C 29.09 68.85 33.52 71.51 37.92 74.21 C 39.76 75.34 41.60 76.47 43.47 77.55 C 48.66 80.51 53.89 83.37 59.02 86.43 C 60.93 87.56 62.86 88.66 64.80 89.72 C 68.15 91.55 71.57 93.22 75.06 94.75 C 82.74 100.25 91.70 103.59 99.21 109.35 C 107.42 114.21 115.44 119.90 124.80 122.33 C 123.02 117.78 120.15 113.70 118.65 109.05 C 119.67 106.59 121.95 104.99 123.81 103.20 C 119.36 103.24 114.93 102.95 110.52 102.43 L 111.27 101.96 C 112.65 102.04 114.03 102.12 115.41 102.18 C 119.78 102.48 124.15 102.35 128.52 102.36 C 138.19 102.73 147.78 101.35 157.33 100.05 C 160.27 99.66 163.20 99.18 166.07 98.39 C 172.41 96.56 178.62 94.18 184.30 90.79 C 186.47 89.59 188.63 88.38 190.76 87.12 C 195.62 84.18 200.58 81.40 205.52 78.57 C 207.95 77.19 210.40 75.84 212.81 74.42 C 215.92 72.49 219.08 70.66 222.24 68.82 C 222.56 70.01 222.92 71.19 223.29 72.37 C 223.49 72.29 223.90 72.13 224.10 72.05 C 213.78 78.72 202.87 84.38 192.31 90.64 C 186.84 94.03 180.97 96.83 175.95 100.90 C 172.69 103.52 169.90 106.63 167.10 109.71 C 165.58 111.32 163.97 112.86 162.45 114.46 C 163.30 111.98 164.03 109.46 164.81 106.95 C 160.60 108.47 156.51 110.34 152.71 112.72 C 145.53 117.17 137.84 120.84 131.22 126.14 C 132.10 132.43 133.38 138.80 136.80 144.27 C 134.46 145.29 132.01 146.34 130.20 148.21 C 128.69 150.25 128.51 152.92 128.15 155.35 C 127.42 163.63 126.83 171.95 127.32 180.26 C 127.44 189.31 127.23 198.36 127.51 207.41 C 127.07 219.34 127.28 231.29 127.36 243.22 C 130.18 241.88 132.98 240.49 135.64 238.85 C 136.45 239.55 137.26 240.25 138.07 240.96 C 134.05 243.31 130.28 246.21 125.87 247.79 C 122.36 247.49 119.61 244.82 116.70 243.07 C 117.09 242.45 117.87 241.23 118.26 240.62 C 119.33 241.20 120.41 241.76 121.52 242.28 C 122.19 242.58 122.88 242.88 123.56 243.18 C 123.67 231.50 123.52 219.82 123.61 208.14 C 123.67 198.55 123.82 188.96 123.46 179.37 C 123.46 178.88 123.47 177.90 123.47 177.40 C 123.77 163.94 123.87 150.46 123.34 137.00 C 122.96 133.54 123.26 129.22 120.13 126.90 C 115.92 123.63 111.13 121.22 106.61 118.43 C 95.89 112.01 84.97 105.97 74.04 99.94 C 63.30 92.37 51.52 86.43 40.20 79.79 C 34.44 76.37 28.75 72.82 22.72 69.88 C 22.23 77.28 23.93 84.67 22.97 92.06 C 22.10 104.67 23.02 117.30 23.38 129.91 C 22.11 138.55 22.86 147.31 22.68 156.00 C 22.47 162.69 23.77 169.37 22.98 176.05 C 22.66 179.46 22.66 182.88 22.78 186.30 C 22.25 186.37 21.18 186.50 20.65 186.57 L 20.06 186.62 C 20.36 146.07 20.05 105.52 20.22 64.97 Z" />
</g>
<g id="#4c4c4bff">
<path fill="#4c4c4b" opacity="1.00" d=" M 141.76 65.74 C 152.47 71.79 163.09 78.02 173.74 84.19 C 177.40 86.15 181.03 88.21 184.30 90.79 C 178.62 94.18 172.41 96.56 166.07 98.39 C 158.81 94.23 151.55 90.04 144.58 85.42 C 142.92 82.83 140.32 81.17 137.60 79.86 C 137.58 78.65 137.56 77.45 137.55 76.24 C 136.97 75.74 136.39 75.24 135.82 74.74 C 135.64 75.90 135.45 77.06 135.25 78.22 C 133.26 76.87 131.33 75.43 129.47 73.91 C 132.78 73.53 136.22 73.57 139.38 72.41 C 140.99 70.57 141.22 68.02 141.76 65.74 Z" />
</g>
<g id="#4f5051ff">
<path fill="#4f5051" opacity="1.00" d=" M 184.49 65.53 C 188.59 67.64 192.43 70.23 196.43 72.53 C 188.79 74.05 180.93 73.93 173.33 75.70 C 172.95 75.23 172.19 74.30 171.81 73.84 C 174.30 72.56 177.03 72.02 179.80 71.87 C 182.32 71.77 184.15 69.81 186.09 68.45 C 185.55 67.47 185.02 66.50 184.49 65.53 Z" />
</g>
<g id="#424241ff">
<path fill="#424241" opacity="1.00" d=" M 100.63 68.64 C 102.53 67.66 104.52 68.92 106.23 69.74 C 109.68 71.73 113.26 73.62 116.30 76.22 C 116.32 76.64 116.37 77.48 116.39 77.90 C 113.46 81.02 109.45 82.73 105.80 84.80 C 98.40 88.68 91.43 93.29 84.10 97.30 C 81.14 96.28 78.09 95.55 75.06 94.75 C 71.57 93.22 68.15 91.55 64.80 89.72 C 73.54 83.54 83.22 78.85 92.37 73.34 C 95.08 71.69 97.68 69.83 100.63 68.64 Z" />
</g>
<g id="#444444ff">
<path fill="#444444" opacity="1.00" d=" M 224.10 72.05 C 225.43 71.51 226.77 71.02 228.12 70.53 C 228.70 77.18 227.66 83.80 227.75 90.44 C 228.90 103.91 227.97 117.41 227.59 130.88 C 227.53 130.37 227.42 129.33 227.36 128.82 C 227.20 127.49 227.04 126.17 226.88 124.85 C 221.61 127.24 216.40 129.98 212.25 134.08 L 211.89 133.17 C 211.25 131.55 210.65 129.92 210.05 128.29 C 212.08 127.18 214.12 126.07 216.12 124.89 C 212.92 123.32 209.36 124.07 206.02 124.61 C 206.79 120.33 208.47 116.29 210.63 112.53 C 212.67 112.49 214.72 112.44 216.77 112.39 C 216.87 110.08 216.83 107.76 216.92 105.45 C 214.60 105.93 212.29 106.41 209.98 106.89 C 211.49 104.93 213.26 103.11 214.34 100.85 C 214.79 98.65 214.00 96.42 213.43 94.32 C 213.10 93.79 212.44 92.74 212.12 92.21 C 211.11 92.55 210.10 92.89 209.10 93.22 C 208.54 91.93 207.98 90.65 207.42 89.37 C 202.97 90.54 198.76 92.40 194.43 93.93 C 193.72 92.83 193.02 91.74 192.31 90.64 C 202.87 84.38 213.78 78.72 224.10 72.05 M 212.73 91.09 C 213.09 91.59 213.82 92.60 214.18 93.11 C 218.59 90.80 222.86 88.26 227.16 85.77 C 227.15 84.54 227.13 83.31 227.09 82.08 C 222.27 85.03 217.54 88.12 212.73 91.09 Z" />
</g>
<g id="#515150ff">
<path fill="#515150" opacity="1.00" d=" M 115.84 84.51 C 118.79 83.06 121.95 80.06 125.42 81.53 C 130.69 83.70 135.41 86.95 140.25 89.91 C 136.81 90.63 132.91 91.34 130.07 88.72 C 129.15 89.53 128.24 90.34 127.33 91.16 C 124.55 89.34 123.72 86.19 123.47 83.05 C 122.06 84.55 120.64 86.04 119.22 87.54 C 118.09 86.52 116.96 85.52 115.84 84.51 Z" />
</g>
<g id="#292929ff">
<path fill="#292929" opacity="1.00" d=" M 212.73 91.09 C 217.54 88.12 222.27 85.03 227.09 82.08 C 227.13 83.31 227.15 84.54 227.16 85.77 C 222.86 88.26 218.59 90.80 214.18 93.11 C 213.82 92.60 213.09 91.59 212.73 91.09 Z" />
</g>
<g id="#403f3dff">
<path fill="#403f3d" opacity="1.00" d=" M 119.22 87.54 C 120.64 86.04 122.06 84.55 123.47 83.05 C 123.72 86.19 124.55 89.34 127.33 91.16 C 128.24 90.34 129.15 89.53 130.07 88.72 C 132.91 91.34 136.81 90.63 140.25 89.91 C 141.98 90.97 143.74 92.00 145.53 92.96 C 143.16 93.12 140.77 93.18 138.39 93.18 C 135.87 94.80 133.29 96.33 130.66 97.75 C 129.69 96.43 128.72 95.12 127.75 93.81 C 126.60 94.08 125.46 94.37 124.32 94.69 C 125.91 97.14 127.30 99.71 128.52 102.36 C 124.15 102.35 119.78 102.48 115.41 102.18 C 115.18 101.74 114.72 100.85 114.49 100.41 C 118.40 101.63 122.53 101.67 126.57 101.22 C 121.27 96.44 114.15 94.26 109.25 88.98 C 111.39 87.41 113.57 85.89 115.84 84.51 C 116.96 85.52 118.09 86.52 119.22 87.54 Z" />
</g>
<g id="#4f4f4eff">
<path fill="#4f4f4e" opacity="1.00" d=" M 194.43 93.93 C 198.76 92.40 202.97 90.54 207.42 89.37 C 207.98 90.65 208.54 91.93 209.10 93.22 C 208.66 94.06 208.22 94.89 207.83 95.75 C 203.15 96.29 199.14 98.92 195.17 101.25 C 193.24 102.22 192.22 104.16 191.22 105.98 C 196.95 104.05 202.24 101.01 207.21 97.61 C 207.19 98.24 207.15 99.49 207.13 100.12 C 209.77 98.84 212.06 96.95 213.43 94.32 C 214.00 96.42 214.79 98.65 214.34 100.85 C 213.26 103.11 211.49 104.93 209.98 106.89 C 212.29 106.41 214.60 105.93 216.92 105.45 C 216.83 107.76 216.87 110.08 216.77 112.39 C 214.72 112.44 212.67 112.49 210.63 112.53 C 208.47 116.29 206.79 120.33 206.02 124.61 C 209.36 124.07 212.92 123.32 216.12 124.89 C 214.12 126.07 212.08 127.18 210.05 128.29 C 210.65 129.92 211.25 131.55 211.89 133.17 C 209.87 134.94 208.01 136.92 206.76 139.32 C 206.91 138.54 207.21 136.99 207.36 136.22 C 206.70 136.57 205.39 137.26 204.74 137.61 C 201.86 135.20 199.46 131.67 195.47 131.14 C 196.08 134.85 196.59 138.59 196.69 142.36 C 193.67 144.15 190.52 145.68 187.44 147.34 C 185.44 144.97 183.45 142.60 181.47 140.22 C 180.00 140.26 178.54 140.31 177.08 140.36 C 176.77 139.91 176.15 139.01 175.84 138.56 C 178.60 138.39 181.37 138.58 184.07 139.19 C 183.52 137.81 182.98 136.42 182.45 135.04 C 184.36 134.78 186.26 134.51 188.16 134.25 C 186.81 132.11 185.50 129.95 184.12 127.84 C 185.25 127.61 186.38 127.42 187.53 127.24 C 187.87 125.39 188.19 123.54 188.54 121.69 C 187.10 122.90 185.67 124.13 184.24 125.36 C 182.93 124.85 181.62 124.34 180.32 123.84 C 179.91 124.99 179.50 126.15 179.09 127.31 C 178.80 126.66 178.21 125.36 177.92 124.71 C 176.27 125.40 174.36 125.75 173.00 126.98 C 172.35 130.34 173.76 133.68 174.37 136.96 C 175.90 142.33 175.95 147.96 177.08 153.41 C 176.67 153.66 175.84 154.17 175.43 154.42 C 173.94 149.89 171.84 145.52 171.04 140.79 C 170.53 136.35 170.64 131.88 170.35 127.43 C 169.14 127.73 167.95 128.05 166.76 128.38 C 166.48 128.07 165.93 127.43 165.66 127.11 C 167.57 124.55 169.40 121.81 170.06 118.62 C 175.45 116.29 180.51 113.26 185.38 109.98 C 185.29 109.27 185.11 107.84 185.02 107.12 C 182.58 108.50 180.15 109.87 177.69 111.21 C 176.18 106.77 179.62 102.82 181.00 98.83 C 178.08 101.24 176.22 104.57 175.32 108.21 C 174.74 110.84 173.05 112.95 170.96 114.57 C 170.70 112.55 170.10 110.48 170.53 108.45 C 171.59 105.49 173.80 103.13 175.95 100.90 C 180.97 96.83 186.84 94.03 192.31 90.64 C 193.02 91.74 193.72 92.83 194.43 93.93 M 186.78 106.80 C 185.38 108.17 185.87 110.30 185.63 112.06 C 187.32 111.30 189.06 110.60 190.61 109.55 C 190.97 107.99 191.00 106.39 191.12 104.81 C 189.65 105.40 188.09 105.87 186.78 106.80 Z" />
</g>
<g id="#bfa723ff">
<path fill="#bfa723" opacity="1.00" d=" M 35.12 94.60 C 35.31 92.81 35.43 91.00 35.68 89.21 C 37.00 89.94 38.36 90.61 39.57 91.51 C 40.07 93.29 40.17 95.15 40.36 96.99 C 38.60 96.22 36.86 95.42 35.12 94.60 Z" />
</g>
<g id="#222221ff">
<path fill="#222221" opacity="1.00" d=" M 41.04 91.94 C 45.21 94.22 48.90 98.71 54.13 97.58 C 55.13 99.61 55.90 101.75 56.48 103.94 C 50.94 101.48 45.91 98.07 40.75 94.92 C 40.82 94.17 40.97 92.69 41.04 91.94 Z" />
</g>
<g id="#4d4d4dff">
<path fill="#4d4d4d" opacity="1.00" d=" M 138.39 93.18 C 140.77 93.18 143.16 93.12 145.53 92.96 C 149.70 94.90 153.80 97.06 157.33 100.05 C 147.78 101.35 138.19 102.73 128.52 102.36 C 127.30 99.71 125.91 97.14 124.32 94.69 C 125.46 94.37 126.60 94.08 127.75 93.81 C 128.72 95.12 129.69 96.43 130.66 97.75 C 133.29 96.33 135.87 94.80 138.39 93.18 Z" />
</g>
<g id="#c1a823ff">
<path fill="#c1a823" opacity="1.00" d=" M 209.10 93.22 C 210.10 92.89 211.11 92.55 212.12 92.21 C 212.44 92.74 213.10 93.79 213.43 94.32 C 212.06 96.95 209.77 98.84 207.13 100.12 C 207.15 99.49 207.19 98.24 207.21 97.61 C 207.37 97.15 207.68 96.21 207.83 95.75 C 208.22 94.89 208.66 94.06 209.10 93.22 Z" />
</g>
<g id="#474746ff">
<path fill="#474746" opacity="1.00" d=" M 92.79 98.29 C 95.62 96.45 98.25 93.40 101.85 93.42 C 106.63 94.42 110.74 97.41 114.49 100.41 C 114.72 100.85 115.18 101.74 115.41 102.18 C 114.03 102.12 112.65 102.04 111.27 101.96 C 106.21 101.38 101.17 100.68 96.13 99.98 C 95.00 99.44 93.90 98.86 92.79 98.29 Z" />
</g>
<g id="#f2a11cff">
<path fill="#f2a11c" opacity="1.00" d=" M 75.06 94.75 C 78.09 95.55 81.14 96.28 84.10 97.30 C 87.99 98.68 92.04 99.51 96.13 99.98 C 101.17 100.68 106.21 101.38 111.27 101.96 L 110.52 102.43 C 106.94 105.00 104.02 109.21 99.21 109.35 C 91.70 103.59 82.74 100.25 75.06 94.75 Z" />
</g>
<g id="#2d2c2aff">
<path fill="#2d2c2a" opacity="1.00" d=" M 195.17 101.25 C 199.14 98.92 203.15 96.29 207.83 95.75 C 207.68 96.21 207.37 97.15 207.21 97.61 C 202.24 101.01 196.95 104.05 191.22 105.98 C 192.22 104.16 193.24 102.22 195.17 101.25 Z" />
</g>
<g id="#282726ff">
<path fill="#282726" opacity="1.00" d=" M 175.32 108.21 C 176.22 104.57 178.08 101.24 181.00 98.83 C 179.62 102.82 176.18 106.77 177.69 111.21 C 180.15 109.87 182.58 108.50 185.02 107.12 C 185.11 107.84 185.29 109.27 185.38 109.98 C 180.51 113.26 175.45 116.29 170.06 118.62 C 169.88 118.09 169.52 117.04 169.34 116.51 C 168.57 114.25 167.83 111.98 167.10 109.71 C 169.90 106.63 172.69 103.52 175.95 100.90 C 173.80 103.13 171.59 105.49 170.53 108.45 C 170.10 110.48 170.70 112.55 170.96 114.57 C 173.05 112.95 174.74 110.84 175.32 108.21 Z" />
</g>
<g id="#fa842dff">
<path fill="#fa842d" opacity="1.00" d=" M 74.04 99.94 C 84.97 105.97 95.89 112.01 106.61 118.43 C 111.13 121.22 115.92 123.63 120.13 126.90 C 123.26 129.22 122.96 133.54 123.34 137.00 C 123.87 150.46 123.77 163.94 123.47 177.40 C 123.49 171.23 123.28 165.05 123.16 158.88 C 123.04 154.28 122.90 149.48 120.73 145.31 C 118.65 141.16 116.52 136.99 113.70 133.29 C 109.79 128.25 103.04 126.87 98.69 122.33 C 96.59 120.10 94.00 118.36 90.91 117.92 C 88.49 115.10 85.99 112.35 83.43 109.67 C 80.25 106.47 77.19 103.16 74.04 99.94 Z" />
</g>
<g id="#c1a822ff">
<path fill="#c1a822" opacity="1.00" d=" M 57.34 102.66 C 59.78 103.81 62.10 105.41 62.36 108.35 C 62.25 108.80 62.03 109.72 61.92 110.18 C 60.32 109.18 58.73 108.16 57.16 107.12 C 57.22 105.63 57.28 104.15 57.34 102.66 Z" />
</g>
<g id="#fcab23ff">
<path fill="#fcab23" opacity="1.00" d=" M 99.21 109.35 C 104.02 109.21 106.94 105.00 110.52 102.43 C 114.93 102.95 119.36 103.24 123.81 103.20 C 121.95 104.99 119.67 106.59 118.65 109.05 C 120.15 113.70 123.02 117.78 124.80 122.33 C 115.44 119.90 107.42 114.21 99.21 109.35 Z" />
</g>
<g id="#232323ff">
<path fill="#232323" opacity="1.00" d=" M 63.19 105.21 C 67.89 107.69 72.33 110.61 76.67 113.67 C 76.77 114.47 76.97 116.06 77.07 116.86 C 72.07 114.04 67.00 111.29 62.54 107.65 C 62.70 107.04 63.03 105.82 63.19 105.21 Z" />
</g>
<g id="#c0a824ff">
<path fill="#c0a824" opacity="1.00" d=" M 186.78 106.80 C 188.09 105.87 189.65 105.40 191.12 104.81 C 191.00 106.39 190.97 107.99 190.61 109.55 C 189.06 110.60 187.32 111.30 185.63 112.06 C 185.87 110.30 185.38 108.17 186.78 106.80 Z" />
</g>
<g id="#4d4d4eff">
<path fill="#4d4d4e" opacity="1.00" d=" M 57.16 107.12 C 58.73 108.16 60.32 109.18 61.92 110.18 C 62.03 109.72 62.25 108.80 62.36 108.35 L 62.54 107.65 C 67.00 111.29 72.07 114.04 77.07 116.86 C 76.97 116.06 76.77 114.47 76.67 113.67 C 78.89 112.28 81.14 110.94 83.43 109.67 C 85.99 112.35 88.49 115.10 90.91 117.92 C 91.33 118.46 92.15 119.54 92.57 120.08 C 91.86 122.09 91.14 124.09 90.39 126.08 C 93.30 129.72 95.79 133.69 98.83 137.22 C 100.59 139.35 103.50 139.68 106.00 140.38 C 108.18 143.84 110.16 147.42 111.97 151.09 C 110.09 149.13 107.64 147.89 104.96 147.54 C 103.51 146.45 102.07 145.34 100.67 144.19 C 100.38 143.95 99.79 143.46 99.49 143.21 C 98.74 144.54 97.96 145.85 97.32 147.23 C 94.68 147.84 92.06 148.50 89.43 149.13 C 86.91 147.23 84.16 144.40 80.70 145.26 C 78.59 146.92 77.31 149.38 75.74 151.52 C 73.23 150.03 70.77 148.47 68.35 146.83 C 69.78 144.08 71.52 141.40 72.17 138.33 C 72.36 134.38 70.29 130.62 70.79 126.65 C 71.03 124.43 72.71 122.83 73.99 121.15 C 75.34 122.82 76.57 124.64 78.28 125.97 C 80.44 125.93 82.21 124.37 84.08 123.45 C 83.74 119.75 82.00 116.48 78.61 114.78 C 78.34 116.57 78.07 118.35 77.80 120.14 C 74.56 118.15 71.31 115.83 67.38 115.58 C 67.39 119.01 68.46 123.03 65.97 125.90 C 62.18 130.66 57.04 134.04 52.63 138.17 C 54.28 138.27 55.92 138.36 57.57 138.45 C 58.26 139.51 58.96 140.56 59.65 141.61 C 61.33 140.42 63.02 139.24 64.72 138.09 C 65.16 141.11 64.15 143.95 62.20 146.26 C 60.36 145.86 58.52 145.47 56.68 145.11 C 57.37 147.25 58.10 149.39 58.85 151.52 C 56.54 151.87 54.08 151.92 51.96 153.00 C 50.04 154.53 48.70 156.67 46.75 158.16 C 45.10 158.25 43.47 157.94 41.84 157.76 C 42.64 159.07 43.43 160.39 44.22 161.71 C 43.58 162.42 42.94 163.13 42.30 163.84 C 44.96 163.95 47.62 164.06 50.29 164.18 C 50.28 168.71 49.29 173.14 47.99 177.46 C 50.59 177.26 53.72 175.73 56.01 177.59 C 56.37 179.73 56.06 181.91 56.12 184.07 C 50.59 181.84 45.65 178.50 40.47 175.59 C 38.69 174.63 36.86 173.74 35.03 172.87 C 35.35 175.11 35.68 177.36 36.05 179.60 C 35.45 180.38 34.84 181.17 34.24 181.97 C 33.27 179.79 32.31 177.62 31.34 175.44 C 30.51 175.17 29.68 174.91 28.86 174.65 C 28.96 175.60 29.06 176.55 29.16 177.51 C 27.70 179.06 26.23 180.60 24.76 182.16 C 26.57 183.23 28.38 184.30 30.20 185.37 C 28.29 185.61 26.39 185.85 24.49 186.10 C 24.06 186.15 23.20 186.25 22.78 186.30 C 22.66 182.88 22.66 179.46 22.98 176.05 C 23.77 169.37 22.47 162.69 22.68 156.00 C 22.86 147.31 22.11 138.55 23.38 129.91 C 23.54 129.15 23.85 127.62 24.01 126.85 C 27.02 129.03 30.27 130.86 33.15 133.23 C 33.70 133.85 34.23 134.49 34.75 135.14 C 35.46 136.05 36.15 136.98 36.84 137.90 C 36.51 138.18 35.86 138.73 35.53 139.01 C 36.37 140.16 37.22 141.31 38.07 142.46 C 36.65 142.21 35.23 141.96 33.82 141.70 C 34.20 147.58 36.44 153.20 40.38 157.61 C 40.77 153.74 39.98 149.90 38.19 146.45 C 39.08 146.77 39.96 147.09 40.85 147.42 C 42.56 145.67 44.28 143.92 45.98 142.16 C 47.74 142.67 49.49 143.18 51.23 143.76 C 52.84 144.51 54.46 145.26 56.08 146.01 C 56.13 145.26 56.24 143.75 56.29 142.99 C 54.52 141.90 52.74 140.81 50.96 139.72 C 50.61 136.84 49.68 133.76 50.81 130.95 C 53.97 128.05 58.00 126.31 61.29 123.56 C 62.14 123.88 62.98 124.22 63.82 124.55 C 63.34 121.52 62.86 118.49 62.38 115.46 C 59.16 116.44 55.74 117.05 52.49 115.77 C 54.98 113.47 57.60 110.81 57.16 107.12 M 24.22 166.21 C 24.25 166.83 24.32 168.07 24.36 168.69 C 27.56 171.02 30.89 173.19 34.49 174.86 C 34.11 169.42 28.48 167.80 24.22 166.21 Z" />
</g>
<g id="#f9cf1bff">
<path fill="#f9cf1b" opacity="1.00" d=" M 152.71 112.72 C 156.51 110.34 160.60 108.47 164.81 106.95 C 164.03 109.46 163.30 111.98 162.45 114.46 C 161.09 116.27 159.73 118.08 158.37 119.90 C 153.01 127.06 147.87 134.40 143.25 142.06 C 141.08 142.75 138.92 143.45 136.80 144.27 C 133.38 138.80 132.10 132.43 131.22 126.14 C 137.84 120.84 145.53 117.17 152.71 112.72 Z" />
</g>
<g id="#4c4c49ff">
<path fill="#4c4c49" opacity="1.00" d=" M 162.45 114.46 C 163.97 112.86 165.58 111.32 167.10 109.71 C 167.83 111.98 168.57 114.25 169.34 116.51 C 166.31 119.48 164.31 123.25 161.85 126.66 C 160.38 124.58 159.24 122.29 158.37 119.90 C 159.73 118.08 161.09 116.27 162.45 114.46 Z" />
</g>
<g id="#5b5b5bff">
<path fill="#5b5b5b" opacity="1.00" d=" M 67.38 115.58 C 71.31 115.83 74.56 118.15 77.80 120.14 C 79.85 121.32 81.96 122.39 84.08 123.45 C 82.21 124.37 80.44 125.93 78.28 125.97 C 76.57 124.64 75.34 122.82 73.99 121.15 C 72.71 122.83 71.03 124.43 70.79 126.65 C 70.29 130.62 72.36 134.38 72.17 138.33 C 71.52 141.40 69.78 144.08 68.35 146.83 C 70.77 148.47 73.23 150.03 75.74 151.52 C 77.31 149.38 78.59 146.92 80.70 145.26 C 84.16 144.40 86.91 147.23 89.43 149.13 C 92.06 148.50 94.68 147.84 97.32 147.23 C 97.17 153.72 97.81 160.23 97.13 166.71 C 92.48 164.86 88.13 162.39 83.77 159.97 C 83.78 160.75 83.81 162.29 83.83 163.07 C 83.30 160.04 80.96 158.03 78.45 156.55 C 73.41 153.23 68.37 149.92 63.07 147.02 C 63.01 148.37 62.95 149.72 62.89 151.07 L 62.24 151.14 C 62.22 149.51 62.20 147.89 62.20 146.26 C 64.15 143.95 65.16 141.11 64.72 138.09 C 63.02 139.24 61.33 140.42 59.65 141.61 C 58.96 140.56 58.26 139.51 57.57 138.45 C 55.92 138.36 54.28 138.27 52.63 138.17 C 57.04 134.04 62.18 130.66 65.97 125.90 C 68.46 123.03 67.39 119.01 67.38 115.58 Z" />
</g>
<g id="#c2a922ff">
<path fill="#c2a922" opacity="1.00" d=" M 78.61 114.78 C 82.00 116.48 83.74 119.75 84.08 123.45 C 81.96 122.39 79.85 121.32 77.80 120.14 C 78.07 118.35 78.34 116.57 78.61 114.78 Z" />
</g>
<g id="#bda520ff">
<path fill="#bda520" opacity="1.00" d=" M 161.85 126.66 C 164.31 123.25 166.31 119.48 169.34 116.51 C 169.52 117.04 169.88 118.09 170.06 118.62 C 169.40 121.81 167.57 124.55 165.66 127.11 C 163.64 129.88 161.29 132.39 159.21 135.12 C 157.98 135.30 156.75 135.49 155.52 135.68 C 157.43 132.54 159.65 129.60 161.85 126.66 Z" />
</g>
<g id="#f76c2fff">
<path fill="#f76c2f" opacity="1.00" d=" M 90.91 117.92 C 94.00 118.36 96.59 120.10 98.69 122.33 C 103.04 126.87 109.79 128.25 113.70 133.29 C 116.52 136.99 118.65 141.16 120.73 145.31 C 122.90 149.48 123.04 154.28 123.16 158.88 C 120.41 158.29 117.65 157.72 114.88 157.21 C 114.73 156.90 114.42 156.27 114.27 155.96 C 113.51 154.33 112.78 152.68 111.97 151.09 C 110.16 147.42 108.18 143.84 106.00 140.38 C 101.96 133.33 97.32 126.66 92.57 120.08 C 92.15 119.54 91.33 118.46 90.91 117.92 Z" />
</g>
<g id="#605f5eff">
<path fill="#605f5e" opacity="1.00" d=" M 92.57 120.08 C 97.32 126.66 101.96 133.33 106.00 140.38 C 103.50 139.68 100.59 139.35 98.83 137.22 C 95.79 133.69 93.30 129.72 90.39 126.08 C 91.14 124.09 91.86 122.09 92.57 120.08 Z" />
</g>
<g id="#5f5f5cff">
<path fill="#5f5f5c" opacity="1.00" d=" M 143.25 142.06 C 147.87 134.40 153.01 127.06 158.37 119.90 C 159.24 122.29 160.38 124.58 161.85 126.66 C 159.65 129.60 157.43 132.54 155.52 135.68 C 152.08 141.70 146.17 147.17 147.17 154.75 C 145.82 154.84 144.47 154.94 143.12 155.05 C 142.56 153.58 141.99 152.12 141.43 150.65 C 140.84 150.45 139.66 150.04 139.07 149.84 C 140.41 147.22 141.78 144.61 143.25 142.06 Z" />
</g>
<g id="#5c5b58ff">
<path fill="#5c5b58" opacity="1.00" d=" M 184.24 125.36 C 185.67 124.13 187.10 122.90 188.54 121.69 C 188.19 123.54 187.87 125.39 187.53 127.24 C 186.38 127.42 185.25 127.61 184.12 127.84 C 185.50 129.95 186.81 132.11 188.16 134.25 C 186.26 134.51 184.36 134.78 182.45 135.04 C 182.98 136.42 183.52 137.81 184.07 139.19 C 181.37 138.58 178.60 138.39 175.84 138.56 C 176.15 139.01 176.77 139.91 177.08 140.36 C 178.54 140.31 180.00 140.26 181.47 140.22 C 183.45 142.60 185.44 144.97 187.44 147.34 C 183.96 149.31 180.54 151.39 177.08 153.41 C 175.95 147.96 175.90 142.33 174.37 136.96 C 173.76 133.68 172.35 130.34 173.00 126.98 C 174.36 125.75 176.27 125.40 177.92 124.71 C 178.21 125.36 178.80 126.66 179.09 127.31 C 179.50 126.15 179.91 124.99 180.32 123.84 C 181.62 124.34 182.93 124.85 184.24 125.36 Z" />
</g>
<g id="#212120ff">
<path fill="#212120" opacity="1.00" d=" M 24.45 124.88 C 28.19 125.60 31.40 127.70 34.35 130.00 C 33.95 131.07 33.55 132.15 33.15 133.23 C 30.27 130.86 27.02 129.03 24.01 126.85 C 24.12 126.36 24.34 125.37 24.45 124.88 Z" />
<path fill="#212120" opacity="1.00" d=" M 98.18 175.56 C 99.22 176.99 100.39 178.36 101.06 180.02 C 100.83 181.59 100.14 183.04 99.58 184.51 L 98.50 184.11 C 98.39 183.74 98.17 182.98 98.06 182.60 C 97.88 180.26 98.02 177.90 98.18 175.56 Z" />
</g>
<g id="#202021ff">
<path fill="#202021" opacity="1.00" d=" M 212.25 134.08 C 216.40 129.98 221.61 127.24 226.88 124.85 C 227.04 126.17 227.20 127.49 227.36 128.82 C 222.28 130.61 217.54 133.21 213.12 136.27 C 212.90 135.72 212.46 134.62 212.25 134.08 Z" />
</g>
<g id="#5e5d5aff">
<path fill="#5e5d5a" opacity="1.00" d=" M 159.21 135.12 C 161.29 132.39 163.64 129.88 165.66 127.11 C 165.93 127.43 166.48 128.07 166.76 128.38 C 167.95 128.05 169.14 127.73 170.35 127.43 C 170.64 131.88 170.53 136.35 171.04 140.79 C 171.84 145.52 173.94 149.89 175.43 154.42 C 168.64 159.00 161.04 162.25 154.51 167.22 C 153.74 166.29 152.99 165.34 152.24 164.40 C 153.44 161.82 153.91 158.99 152.36 156.44 C 151.40 153.93 150.09 151.10 151.49 148.49 C 153.64 143.81 156.52 139.50 159.21 135.12 Z" />
</g>
<g id="#514f4eff">
<path fill="#514f4e" opacity="1.00" d=" M 213.12 136.27 C 217.54 133.21 222.28 130.61 227.36 128.82 C 227.42 129.33 227.53 130.37 227.59 130.88 L 227.64 131.73 C 227.44 138.41 227.39 145.09 227.22 151.77 L 226.90 152.52 C 224.42 150.26 221.84 146.35 217.94 147.80 C 212.61 149.22 208.97 153.62 205.48 157.57 C 202.81 156.46 200.07 157.24 197.64 158.53 C 195.99 156.51 194.87 153.81 192.64 152.41 C 187.69 152.64 183.17 155.45 179.29 158.35 C 175.69 160.87 178.90 165.51 179.32 168.87 C 180.28 168.62 181.23 168.35 182.18 168.08 C 182.26 171.62 182.34 175.16 182.41 178.70 C 180.74 178.17 179.09 177.26 177.30 177.31 C 174.60 177.72 172.96 180.27 172.21 182.69 C 170.62 186.94 171.22 191.55 171.04 195.98 C 171.03 199.22 170.49 202.82 172.77 205.49 C 172.29 206.31 171.79 207.12 171.26 207.92 C 171.00 207.13 170.49 205.55 170.24 204.76 C 170.11 197.87 170.55 190.96 169.90 184.07 C 168.49 184.78 167.09 185.50 165.69 186.22 C 167.13 191.68 162.07 195.67 161.89 200.90 C 161.60 204.21 161.64 207.55 161.82 210.87 C 161.04 204.73 161.05 198.52 161.45 192.36 C 161.68 188.51 163.18 184.77 165.70 181.85 C 170.11 179.01 174.97 176.99 179.93 175.33 C 178.47 174.39 177.01 173.46 175.56 172.52 C 176.22 168.54 176.26 164.50 175.82 160.50 C 172.88 161.55 170.19 163.25 168.67 166.06 C 170.04 166.54 171.41 167.02 172.79 167.50 C 172.69 168.00 172.49 169.00 172.39 169.50 C 170.74 169.92 169.09 170.33 167.45 170.75 C 167.34 169.22 167.24 167.70 167.13 166.17 C 162.48 168.60 157.76 170.89 153.04 173.19 C 152.99 175.76 152.97 178.32 152.93 180.89 L 152.12 181.48 C 150.20 176.06 150.72 170.25 150.04 164.63 C 150.59 164.57 151.69 164.46 152.24 164.40 C 152.99 165.34 153.74 166.29 154.51 167.22 C 154.87 167.66 155.58 168.52 155.94 168.96 C 173.33 160.44 189.11 148.97 206.51 140.45 C 208.01 140.36 209.69 140.87 211.08 140.13 C 211.92 138.94 212.50 137.58 213.12 136.27 Z" />
</g>
<g id="#bea521ff">
<path fill="#bea521" opacity="1.00" d=" M 35.45 130.75 C 36.84 131.60 38.30 132.38 39.50 133.51 C 40.05 135.22 40.27 137.01 40.58 138.77 C 39.33 138.49 38.09 138.20 36.84 137.90 C 36.15 136.98 35.46 136.05 34.75 135.14 C 34.98 133.67 35.22 132.21 35.45 130.75 Z" />
<path fill="#bea521" opacity="1.00" d=" M 78.45 156.55 C 80.96 158.03 83.30 160.04 83.83 163.07 L 83.89 164.08 L 83.95 165.21 C 81.91 164.29 79.89 163.25 78.21 161.74 C 78.28 160.01 78.36 158.28 78.45 156.55 Z" />
</g>
<g id="#413c36ff">
<path fill="#413c36" opacity="1.00" d=" M 195.47 131.14 C 199.46 131.67 201.86 135.20 204.74 137.61 C 202.00 139.10 199.36 140.76 196.69 142.36 C 196.59 138.59 196.08 134.85 195.47 131.14 Z" />
</g>
<g id="#988034ff">
<path fill="#988034" opacity="1.00" d=" M 227.64 131.73 C 229.45 140.04 228.32 148.57 228.64 157.00 C 228.42 166.43 228.94 175.88 228.47 185.31 C 228.16 185.49 227.53 185.87 227.22 186.05 C 227.24 184.64 227.26 183.23 227.27 181.82 C 227.27 180.17 227.25 178.53 227.19 176.89 C 226.93 172.52 226.89 168.13 227.14 163.76 C 227.16 163.30 227.20 162.38 227.22 161.92 C 227.26 158.54 227.14 155.15 227.22 151.77 C 227.39 145.09 227.44 138.41 227.64 131.73 Z" />
</g>
<g id="#201f1fff">
<path fill="#201f1f" opacity="1.00" d=" M 40.17 134.24 C 43.97 135.65 47.54 137.56 50.96 139.72 C 52.74 140.81 54.52 141.90 56.29 142.99 C 56.24 143.75 56.13 145.26 56.08 146.01 C 54.46 145.26 52.84 144.51 51.23 143.76 C 47.20 141.05 42.24 138.96 40.17 134.24 Z" />
</g>
<g id="#c0a822ff">
<path fill="#c0a822" opacity="1.00" d=" M 206.76 139.32 C 208.01 136.92 209.87 134.94 211.89 133.17 L 212.25 134.08 C 212.46 134.62 212.90 135.72 213.12 136.27 C 212.50 137.58 211.92 138.94 211.08 140.13 C 209.69 140.87 208.01 140.36 206.51 140.45 L 206.76 139.32 Z" />
</g>
<g id="#20201fff">
<path fill="#20201f" opacity="1.00" d=" M 155.52 135.68 C 156.75 135.49 157.98 135.30 159.21 135.12 C 156.52 139.50 153.64 143.81 151.49 148.49 C 150.09 151.10 151.40 153.93 152.36 156.44 C 149.91 158.67 146.91 161.10 147.55 164.83 C 148.17 164.78 149.41 164.68 150.04 164.63 C 150.72 170.25 150.20 176.06 152.12 181.48 C 150.58 182.55 148.96 183.49 147.34 184.43 C 147.39 179.36 147.30 174.30 147.40 169.23 C 147.56 164.40 147.37 159.57 147.17 154.75 C 146.17 147.17 152.08 141.70 155.52 135.68 Z" />
</g>
<g id="#202020ff">
<path fill="#202020" opacity="1.00" d=" M 204.74 137.61 C 205.39 137.26 206.70 136.57 207.36 136.22 C 207.21 136.99 206.91 138.54 206.76 139.32 L 206.51 140.45 C 189.11 148.97 173.33 160.44 155.94 168.96 C 155.58 168.52 154.87 167.66 154.51 167.22 C 161.04 162.25 168.64 159.00 175.43 154.42 C 175.84 154.17 176.67 153.66 177.08 153.41 C 180.54 151.39 183.96 149.31 187.44 147.34 C 190.52 145.68 193.67 144.15 196.69 142.36 C 199.36 140.76 202.00 139.10 204.74 137.61 Z" />
</g>
<g id="#e2af1fff">
<path fill="#e2af1f" opacity="1.00" d=" M 136.80 144.27 C 138.92 143.45 141.08 142.75 143.25 142.06 C 141.78 144.61 140.41 147.22 139.07 149.84 C 137.40 153.05 135.92 156.35 134.66 159.74 C 132.11 166.54 128.65 173.05 127.32 180.26 C 126.83 171.95 127.42 163.63 128.15 155.35 C 128.51 152.92 128.69 150.25 130.20 148.21 C 132.01 146.34 134.46 145.29 136.80 144.27 Z" />
</g>
<g id="#22211fff">
<path fill="#22211f" opacity="1.00" d=" M 97.32 147.23 C 97.96 145.85 98.74 144.54 99.49 143.21 C 99.79 143.46 100.38 143.95 100.67 144.19 C 99.93 147.10 99.65 150.09 99.53 153.08 C 99.45 156.77 97.78 160.19 97.49 163.85 C 98.57 165.32 100.16 166.28 101.62 167.34 C 101.24 168.98 100.86 170.62 100.49 172.26 C 94.73 170.00 89.65 166.35 83.89 164.08 L 83.83 163.07 C 83.81 162.29 83.78 160.75 83.77 159.97 C 88.13 162.39 92.48 164.86 97.13 166.71 C 97.81 160.23 97.17 153.72 97.32 147.23 Z" />
</g>
<g id="#bea622ff">
<path fill="#bea622" opacity="1.00" d=" M 56.68 145.11 C 58.52 145.47 60.36 145.86 62.20 146.26 C 62.20 147.89 62.22 149.51 62.24 151.14 C 61.11 151.27 59.98 151.39 58.85 151.52 C 58.10 149.39 57.37 147.25 56.68 145.11 Z" />
</g>
<g id="#c4ab27ff">
<path fill="#c4ab27" opacity="1.00" d=" M 99.53 153.08 C 99.65 150.09 99.93 147.10 100.67 144.19 C 102.07 145.34 103.51 146.45 104.96 147.54 C 104.91 148.41 104.80 150.16 104.75 151.03 C 104.31 156.67 104.11 162.42 102.39 167.86 L 101.62 167.34 C 100.16 166.28 98.57 165.32 97.49 163.85 C 97.78 160.19 99.45 156.77 99.53 153.08 Z" />
</g>
<g id="#212020ff">
<path fill="#212020" opacity="1.00" d=" M 63.07 147.02 C 68.37 149.92 73.41 153.23 78.45 156.55 C 78.36 158.28 78.28 160.01 78.21 161.74 C 74.08 156.93 68.45 153.90 62.89 151.07 C 62.95 149.72 63.01 148.37 63.07 147.02 Z" />
</g>
<g id="#242525ff">
<path fill="#242525" opacity="1.00" d=" M 104.96 147.54 C 107.64 147.89 110.09 149.13 111.97 151.09 C 112.78 152.68 113.51 154.33 114.27 155.96 C 111.01 154.50 107.79 152.93 104.75 151.03 C 104.80 150.16 104.91 148.41 104.96 147.54 Z" />
</g>
<g id="#2c2c2bff">
<path fill="#2c2c2b" opacity="1.00" d=" M 217.94 147.80 C 221.84 146.35 224.42 150.26 226.90 152.52 C 225.22 154.99 222.76 156.70 220.23 158.19 C 219.07 156.62 217.92 155.04 216.77 153.47 C 215.08 153.85 213.39 154.22 211.71 154.59 C 214.37 151.83 217.70 149.88 220.91 147.85 C 220.17 147.83 218.68 147.81 217.94 147.80 Z" />
</g>
<g id="#0a0803ff">
<path fill="#0a0803" opacity="1.00" d=" M 205.48 157.57 C 208.97 153.62 212.61 149.22 217.94 147.80 C 218.68 147.81 220.17 147.83 220.91 147.85 C 217.70 149.88 214.37 151.83 211.71 154.59 C 209.32 157.41 207.08 160.58 206.42 164.30 C 205.46 169.58 205.80 174.98 205.93 180.32 C 206.15 183.17 205.76 186.80 208.40 188.69 C 210.71 188.82 212.97 188.19 215.13 187.47 C 220.27 185.43 223.87 181.11 227.19 176.89 C 227.25 178.53 227.27 180.17 227.27 181.82 C 221.30 185.68 215.85 191.96 208.17 191.71 C 203.48 191.22 203.37 185.41 202.17 181.92 C 199.99 183.54 197.82 185.18 195.48 186.56 C 195.23 186.30 194.73 185.79 194.47 185.53 C 197.76 183.17 201.75 181.13 203.44 177.23 C 205.59 171.93 205.00 166.11 203.79 160.67 C 199.50 161.55 195.54 163.48 191.98 165.98 C 189.72 167.40 187.49 168.88 185.24 170.31 C 184.87 181.49 185.23 192.67 184.99 203.85 C 185.96 203.30 186.93 202.75 187.93 202.24 C 189.45 201.56 190.98 200.90 192.57 200.39 C 192.98 200.32 193.78 200.16 194.19 200.08 C 191.61 203.34 187.99 205.53 183.96 206.50 C 183.21 204.33 182.49 202.14 182.03 199.90 C 182.21 197.00 182.28 194.10 182.29 191.20 C 179.42 192.95 176.53 194.66 173.65 196.39 C 173.54 199.43 173.53 202.52 172.77 205.49 C 170.49 202.82 171.03 199.22 171.04 195.98 C 171.22 191.55 170.62 186.94 172.21 182.69 C 172.71 185.50 173.30 188.28 173.77 191.09 C 176.74 189.61 179.65 187.99 182.48 186.25 C 182.45 183.74 182.44 181.22 182.41 178.70 C 182.34 175.16 182.26 171.62 182.18 168.08 C 187.02 166.45 191.11 163.30 194.97 160.06 C 198.60 160.13 203.13 161.17 205.48 157.57 Z" />
</g>
<g id="#6a6a69ff">
<path fill="#6a6a69" opacity="1.00" d=" M 139.07 149.84 C 139.66 150.04 140.84 150.45 141.43 150.65 C 141.99 152.12 142.56 153.58 143.12 155.05 C 144.47 154.94 145.82 154.84 147.17 154.75 C 147.37 159.57 147.56 164.40 147.40 169.23 C 142.80 170.59 137.76 171.48 134.45 175.33 C 135.67 176.44 136.90 177.56 138.11 178.69 C 135.93 179.19 136.75 182.73 138.96 182.04 C 138.73 182.89 138.51 183.74 138.30 184.59 C 141.01 185.75 143.69 186.99 146.43 188.07 C 146.00 188.25 145.13 188.61 144.70 188.78 C 143.94 190.14 143.26 191.55 142.57 192.94 C 142.30 192.96 141.76 193.00 141.49 193.02 C 136.95 193.01 132.91 195.61 129.70 198.60 C 128.09 200.88 128.10 203.89 127.62 206.56 L 127.51 207.41 C 127.23 198.36 127.44 189.31 127.32 180.26 C 128.65 173.05 132.11 166.54 134.66 159.74 C 135.92 156.35 137.40 153.05 139.07 149.84 Z" />
</g>
<g id="#636363ff">
<path fill="#636363" opacity="1.00" d=" M 58.85 151.52 C 59.98 151.39 61.11 151.27 62.24 151.14 L 62.89 151.07 C 68.45 153.90 74.08 156.93 78.21 161.74 C 79.89 163.25 81.91 164.29 83.95 165.21 C 84.05 166.69 84.18 168.17 84.31 169.65 C 87.43 170.10 90.61 170.34 93.61 171.38 C 95.95 172.12 96.22 174.93 96.83 176.94 C 95.12 178.03 93.42 179.12 91.71 180.21 C 91.53 179.15 91.35 178.09 91.18 177.03 C 88.15 177.10 85.13 177.17 82.11 177.27 C 82.27 178.52 82.43 179.79 82.60 181.05 C 86.24 180.27 89.61 181.87 92.62 183.76 C 91.91 185.93 91.20 188.10 90.49 190.27 C 86.18 189.65 81.83 190.55 78.23 193.05 C 84.19 195.68 90.82 195.19 97.12 194.42 C 92.98 196.60 88.60 198.27 84.45 200.43 C 74.63 197.80 67.21 190.31 57.89 186.53 C 57.80 188.10 57.72 189.68 57.63 191.25 C 57.17 189.29 56.68 187.33 56.27 185.36 C 56.23 185.03 56.16 184.39 56.12 184.07 C 56.06 181.91 56.37 179.73 56.01 177.59 C 53.72 175.73 50.59 177.26 47.99 177.46 C 49.29 173.14 50.28 168.71 50.29 164.18 C 47.62 164.06 44.96 163.95 42.30 163.84 C 42.94 163.13 43.58 162.42 44.22 161.71 C 43.43 160.39 42.64 159.07 41.84 157.76 C 43.47 157.94 45.10 158.25 46.75 158.16 C 48.70 156.67 50.04 154.53 51.96 153.00 C 54.08 151.92 56.54 151.87 58.85 151.52 M 50.05 171.97 C 50.39 173.05 50.75 174.14 51.11 175.23 C 52.32 174.39 53.97 173.81 54.11 172.11 C 52.75 172.00 51.40 171.95 50.05 171.97 Z" />
</g>
<g id="#636260ff">
<path fill="#636260" opacity="1.00" d=" M 104.75 151.03 C 107.79 152.93 111.01 154.50 114.27 155.96 C 114.42 156.27 114.73 156.90 114.88 157.21 C 116.55 160.76 118.01 164.40 119.35 168.08 C 115.85 170.71 111.26 169.93 107.44 171.49 C 105.19 174.63 105.22 178.89 103.68 182.42 C 103.10 178.13 103.55 173.78 105.36 169.82 C 104.37 169.16 103.38 168.51 102.39 167.86 C 104.11 162.42 104.31 156.67 104.75 151.03 Z" />
<path fill="#636260" opacity="1.00" d=" M 168.67 166.06 C 170.19 163.25 172.88 161.55 175.82 160.50 C 176.26 164.50 176.22 168.54 175.56 172.52 C 174.29 172.94 173.03 173.39 171.77 173.84 C 165.96 175.77 161.89 180.88 159.16 186.14 C 158.70 185.94 157.80 185.55 157.34 185.35 C 156.36 184.93 155.38 184.53 154.39 184.13 C 153.88 183.06 153.39 181.98 152.93 180.89 C 152.97 178.32 152.99 175.76 153.04 173.19 C 157.76 170.89 162.48 168.60 167.13 166.17 C 167.24 167.70 167.34 169.22 167.45 170.75 C 169.09 170.33 170.74 169.92 172.39 169.50 C 172.49 169.00 172.69 168.00 172.79 167.50 C 171.41 167.02 170.04 166.54 168.67 166.06 Z" />
</g>
<g id="#646463ff">
<path fill="#646463" opacity="1.00" d=" M 179.29 158.35 C 183.17 155.45 187.69 152.64 192.64 152.41 C 194.87 153.81 195.99 156.51 197.64 158.53 C 200.07 157.24 202.81 156.46 205.48 157.57 C 203.13 161.17 198.60 160.13 194.97 160.06 C 191.11 163.30 187.02 166.45 182.18 168.08 C 181.23 168.35 180.28 168.62 179.32 168.87 C 178.90 165.51 175.69 160.87 179.29 158.35 Z" />
</g>
<g id="#42413eff">
<path fill="#42413e" opacity="1.00" d=" M 226.90 152.52 L 227.22 151.77 C 227.14 155.15 227.26 158.54 227.22 161.92 C 224.16 163.44 221.07 164.91 217.96 166.33 C 217.76 163.37 217.53 160.40 217.15 157.45 C 213.95 161.91 216.16 167.62 215.42 172.67 C 212.78 171.86 210.03 171.55 207.29 171.70 C 206.84 174.57 206.32 177.43 205.93 180.32 C 205.80 174.98 205.46 169.58 206.42 164.30 C 207.08 160.58 209.32 157.41 211.71 154.59 C 213.39 154.22 215.08 153.85 216.77 153.47 C 217.92 155.04 219.07 156.62 220.23 158.19 C 222.76 156.70 225.22 154.99 226.90 152.52 Z" />
</g>
<g id="#cd5925ff">
<path fill="#cd5925" opacity="1.00" d=" M 114.88 157.21 C 117.65 157.72 120.41 158.29 123.16 158.88 C 123.28 165.05 123.49 171.23 123.47 177.40 C 123.47 177.90 123.46 178.88 123.46 179.37 C 122.13 175.60 120.67 171.86 119.35 168.08 C 118.01 164.40 116.55 160.76 114.88 157.21 Z" />
</g>
<g id="#c0a826ff">
<path fill="#c0a826" opacity="1.00" d=" M 147.55 164.83 C 146.91 161.10 149.91 158.67 152.36 156.44 C 153.91 158.99 153.44 161.82 152.24 164.40 C 151.69 164.46 150.59 164.57 150.04 164.63 C 149.41 164.68 148.17 164.78 147.55 164.83 Z" />
</g>
<g id="#0b0803ff">
<path fill="#0b0803" opacity="1.00" d=" M 215.42 172.67 C 216.16 167.62 213.95 161.91 217.15 157.45 C 217.53 160.40 217.76 163.37 217.96 166.33 C 221.07 164.91 224.16 163.44 227.22 161.92 C 227.20 162.38 227.16 163.30 227.14 163.76 C 224.73 166.93 221.45 169.24 218.07 171.28 C 217.79 173.94 217.55 176.60 217.32 179.27 C 216.70 179.40 215.46 179.67 214.84 179.81 C 214.98 177.42 215.25 175.05 215.42 172.67 Z" />
</g>
<g id="#443f29ff">
<path fill="#443f29" opacity="1.00" d=" M 191.98 165.98 C 195.54 163.48 199.50 161.55 203.79 160.67 C 205.00 166.11 205.59 171.93 203.44 177.23 C 203.64 172.89 203.22 168.56 202.55 164.28 C 198.99 164.61 195.43 165.06 191.98 165.98 Z" />
</g>
<g id="#534e4cff">
<path fill="#534e4c" opacity="1.00" d=" M 83.89 164.08 C 89.65 166.35 94.73 170.00 100.49 172.26 C 100.86 170.62 101.24 168.98 101.62 167.34 L 102.39 167.86 C 103.38 168.51 104.37 169.16 105.36 169.82 C 103.55 173.78 103.10 178.13 103.68 182.42 C 103.67 183.57 103.65 184.72 103.67 185.87 C 102.30 185.42 100.94 184.98 99.58 184.51 C 100.14 183.04 100.83 181.59 101.06 180.02 C 100.39 178.36 99.22 176.99 98.18 175.56 C 98.02 177.90 97.88 180.26 98.06 182.60 C 97.57 180.73 97.23 178.83 96.83 176.94 C 96.22 174.93 95.95 172.12 93.61 171.38 C 90.61 170.34 87.43 170.10 84.31 169.65 C 84.18 168.17 84.05 166.69 83.95 165.21 L 83.89 164.08 Z" />
</g>
<g id="#5a5a58ff">
<path fill="#5a5a58" opacity="1.00" d=" M 191.98 165.98 C 195.43 165.06 198.99 164.61 202.55 164.28 C 203.22 168.56 203.64 172.89 203.44 177.23 C 201.75 181.13 197.76 183.17 194.47 185.53 L 193.92 184.93 C 193.50 184.47 192.67 183.54 192.25 183.08 C 189.93 184.72 186.62 185.93 186.07 189.07 C 185.19 193.30 185.58 197.67 186.10 201.91 C 186.56 201.99 187.47 202.16 187.93 202.24 C 186.93 202.75 185.96 203.30 184.99 203.85 C 185.23 192.67 184.87 181.49 185.24 170.31 C 187.49 168.88 189.72 167.40 191.98 165.98 M 195.03 178.99 C 196.73 176.14 196.50 172.83 196.01 169.69 C 192.87 171.73 193.78 176.10 195.03 178.99 Z" />
</g>
<g id="#40403eff">
<path fill="#40403e" opacity="1.00" d=" M 218.07 171.28 C 221.45 169.24 224.73 166.93 227.14 163.76 C 226.89 168.13 226.93 172.52 227.19 176.89 C 223.87 181.11 220.27 185.43 215.13 187.47 C 214.94 184.92 214.73 182.36 214.84 179.81 C 215.46 179.67 216.70 179.40 217.32 179.27 C 217.55 176.60 217.79 173.94 218.07 171.28 Z" />
</g>
<g id="#222121ff">
<path fill="#222121" opacity="1.00" d=" M 24.22 166.21 C 28.48 167.80 34.11 169.42 34.49 174.86 C 30.89 173.19 27.56 171.02 24.36 168.69 C 24.32 168.07 24.25 166.83 24.22 166.21 Z" />
</g>
<g id="#6e6f6eff">
<path fill="#6e6f6e" opacity="1.00" d=" M 119.35 168.08 C 120.67 171.86 122.13 175.60 123.46 179.37 C 123.82 188.96 123.67 198.55 123.61 208.14 C 116.96 205.49 111.38 200.84 104.81 198.03 C 104.48 196.42 104.25 194.78 104.07 193.14 C 103.85 190.72 103.72 188.30 103.67 185.87 C 103.65 184.72 103.67 183.57 103.68 182.42 C 105.22 178.89 105.19 174.63 107.44 171.49 C 111.26 169.93 115.85 170.71 119.35 168.08 Z" />
</g>
<g id="#7a7b7aff">
<path fill="#7a7b7a" opacity="1.00" d=" M 134.45 175.33 C 137.76 171.48 142.80 170.59 147.40 169.23 C 147.30 174.30 147.39 179.36 147.34 184.43 C 147.31 185.54 147.28 186.65 147.23 187.77 L 146.43 188.07 C 143.69 186.99 141.01 185.75 138.30 184.59 C 138.51 183.74 138.73 182.89 138.96 182.04 C 139.47 180.70 139.19 179.58 138.11 178.69 C 136.90 177.56 135.67 176.44 134.45 175.33 Z" />
</g>
<g id="#2a220bff">
<path fill="#2a220b" opacity="1.00" d=" M 195.03 178.99 C 193.78 176.10 192.87 171.73 196.01 169.69 C 196.50 172.83 196.73 176.14 195.03 178.99 Z" />
</g>
<g id="#535251ff">
<path fill="#535251" opacity="1.00" d=" M 207.29 171.70 C 210.03 171.55 212.78 171.86 215.42 172.67 C 215.25 175.05 214.98 177.42 214.84 179.81 C 214.73 182.36 214.94 184.92 215.13 187.47 C 212.97 188.19 210.71 188.82 208.40 188.69 C 205.76 186.80 206.15 183.17 205.93 180.32 C 206.32 177.43 206.84 174.57 207.29 171.70 Z" />
</g>
<g id="#313131ff">
<path fill="#313131" opacity="1.00" d=" M 50.05 171.97 C 51.40 171.95 52.75 172.00 54.11 172.11 C 53.97 173.81 52.32 174.39 51.11 175.23 C 50.75 174.14 50.39 173.05 50.05 171.97 Z" />
</g>
<g id="#bea522ff">
<path fill="#bea522" opacity="1.00" d=" M 35.03 172.87 C 36.86 173.74 38.69 174.63 40.47 175.59 C 40.37 176.14 40.15 177.22 40.04 177.76 C 39.93 178.18 39.72 179.01 39.62 179.42 C 38.43 179.51 37.24 179.55 36.05 179.60 C 35.68 177.36 35.35 175.11 35.03 172.87 Z" />
</g>
<g id="#3c3725ff">
<path fill="#3c3725" opacity="1.00" d=" M 171.77 173.84 C 173.03 173.39 174.29 172.94 175.56 172.52 C 177.01 173.46 178.47 174.39 179.93 175.33 C 174.97 176.99 170.11 179.01 165.70 181.85 C 168.30 178.59 171.71 176.14 175.04 173.68 C 174.22 173.72 172.59 173.80 171.77 173.84 Z" />
</g>
<g id="#0c0b09ff">
<path fill="#0c0b09" opacity="1.00" d=" M 159.16 186.14 C 161.89 180.88 165.96 175.77 171.77 173.84 C 172.59 173.80 174.22 173.72 175.04 173.68 C 171.71 176.14 168.30 178.59 165.70 181.85 C 163.18 184.77 161.68 188.51 161.45 192.36 C 161.05 198.52 161.04 204.73 161.82 210.87 C 161.87 211.26 161.98 212.03 162.03 212.42 C 167.83 216.25 173.41 210.84 177.90 207.60 C 178.30 207.60 179.09 207.60 179.48 207.60 C 176.85 210.55 174.29 213.80 170.65 215.56 C 167.35 217.15 163.58 216.83 160.02 216.97 C 158.19 206.82 158.34 196.38 159.16 186.14 Z" />
</g>
<g id="#535455ff">
<path fill="#535455" opacity="1.00" d=" M 28.86 174.65 C 29.68 174.91 30.51 175.17 31.34 175.44 C 32.31 177.62 33.27 179.79 34.24 181.97 C 34.84 181.17 35.45 180.38 36.05 179.60 C 37.24 179.55 38.43 179.51 39.62 179.42 C 39.72 179.01 39.93 178.18 40.04 177.76 C 44.61 182.24 50.38 185.21 56.13 187.88 C 56.18 187.04 56.23 186.20 56.27 185.36 C 56.68 187.33 57.17 189.29 57.63 191.25 C 62.88 194.30 68.11 197.37 73.32 200.46 C 71.91 201.48 70.49 202.51 69.08 203.55 C 67.83 201.80 66.58 200.06 65.32 198.33 C 64.85 199.28 64.38 200.24 63.92 201.21 C 62.49 199.81 60.88 198.63 59.09 197.75 C 57.65 199.84 56.09 201.85 54.29 203.64 C 44.36 197.79 34.49 191.82 24.49 186.10 C 26.39 185.85 28.29 185.61 30.20 185.37 C 28.38 184.30 26.57 183.23 24.76 182.16 C 26.23 180.60 27.70 179.06 29.16 177.51 C 29.06 176.55 28.96 175.60 28.86 174.65 Z" />
</g>
<g id="#212121ff">
<path fill="#212121" opacity="1.00" d=" M 40.47 175.59 C 45.65 178.50 50.59 181.84 56.12 184.07 C 56.16 184.39 56.23 185.03 56.27 185.36 C 56.23 186.20 56.18 187.04 56.13 187.88 C 50.38 185.21 44.61 182.24 40.04 177.76 C 40.15 177.22 40.37 176.14 40.47 175.59 Z" />
</g>
<g id="#737473ff">
<path fill="#737473" opacity="1.00" d=" M 82.11 177.27 C 85.13 177.17 88.15 177.10 91.18 177.03 C 91.35 178.09 91.53 179.15 91.71 180.21 C 93.42 179.12 95.12 178.03 96.83 176.94 C 97.23 178.83 97.57 180.73 98.06 182.60 C 98.17 182.98 98.39 183.74 98.50 184.11 C 98.21 186.06 97.98 188.02 97.75 189.97 C 97.55 191.45 97.36 192.94 97.12 194.42 C 90.82 195.19 84.19 195.68 78.23 193.05 C 81.83 190.55 86.18 189.65 90.49 190.27 C 91.20 188.10 91.91 185.93 92.62 183.76 C 89.61 181.87 86.24 180.27 82.60 181.05 C 82.43 179.79 82.27 178.52 82.11 177.27 Z" />
</g>
<g id="#656562ff">
<path fill="#656562" opacity="1.00" d=" M 177.30 177.31 C 179.09 177.26 180.74 178.17 182.41 178.70 C 182.44 181.22 182.45 183.74 182.48 186.25 C 179.65 187.99 176.74 189.61 173.77 191.09 C 173.30 188.28 172.71 185.50 172.21 182.69 C 172.96 180.27 174.60 177.72 177.30 177.31 Z" />
</g>
<g id="#3d3d3eff">
<path fill="#3d3d3e" opacity="1.00" d=" M 138.96 182.04 C 136.75 182.73 135.93 179.19 138.11 178.69 C 139.19 179.58 139.47 180.70 138.96 182.04 Z" />
</g>
<g id="#b9a122ff">
<path fill="#b9a122" opacity="1.00" d=" M 152.12 181.48 L 152.93 180.89 C 153.39 181.98 153.88 183.06 154.39 184.13 C 152.11 185.53 149.74 186.81 147.23 187.77 C 147.28 186.65 147.31 185.54 147.34 184.43 C 148.96 183.49 150.58 182.55 152.12 181.48 Z" />
</g>
<g id="#565654ff">
<path fill="#565654" opacity="1.00" d=" M 195.48 186.56 C 197.82 185.18 199.99 183.54 202.17 181.92 C 203.37 185.41 203.48 191.22 208.17 191.71 C 215.85 191.96 221.30 185.68 227.27 181.82 C 227.26 183.23 227.24 184.64 227.22 186.05 C 222.63 188.47 218.00 190.83 213.61 193.60 C 201.06 201.18 188.20 208.22 175.54 215.60 C 162.40 223.63 148.61 230.54 135.64 238.85 C 132.98 240.49 130.18 241.88 127.36 243.22 C 127.28 231.29 127.07 219.34 127.51 207.41 L 127.62 206.56 C 127.80 215.47 128.55 224.39 127.95 233.31 C 127.93 234.84 127.97 236.37 128.00 237.91 C 131.40 237.00 134.72 235.69 137.62 233.66 C 143.54 229.68 150.22 226.99 156.13 223.01 C 157.69 222.15 158.26 220.42 158.56 218.78 C 158.30 213.13 157.97 207.48 157.58 201.83 C 154.59 208.20 151.09 214.81 152.06 222.11 C 151.78 222.30 151.21 222.69 150.93 222.88 C 150.89 218.84 150.74 214.80 150.39 210.78 C 149.19 215.43 149.25 220.33 147.90 224.93 C 146.32 226.13 144.49 226.94 142.75 227.86 C 142.41 226.31 142.09 224.76 141.78 223.20 C 141.79 220.88 142.13 218.53 141.72 216.23 C 141.01 213.89 139.49 211.92 138.24 209.85 C 139.17 209.95 140.11 210.04 141.05 210.13 C 142.50 209.48 143.97 208.85 145.43 208.22 C 145.46 206.27 145.48 204.31 145.48 202.36 C 145.97 199.05 146.62 195.76 147.29 192.48 C 150.95 190.57 154.37 188.22 157.34 185.35 C 157.80 185.55 158.70 185.94 159.16 186.14 C 158.34 196.38 158.19 206.82 160.02 216.97 C 163.58 216.83 167.35 217.15 170.65 215.56 C 174.29 213.80 176.85 210.55 179.48 207.60 C 180.99 207.28 182.48 206.92 183.96 206.50 C 187.99 205.53 191.61 203.34 194.19 200.08 C 193.78 200.16 192.98 200.32 192.57 200.39 C 193.72 195.32 193.91 190.11 193.92 184.93 L 194.47 185.53 C 194.73 185.79 195.23 186.30 195.48 186.56 Z" />
</g>
<g id="#797874ff">
<path fill="#797874" opacity="1.00" d=" M 186.07 189.07 C 186.62 185.93 189.93 184.72 192.25 183.08 C 192.67 183.54 193.50 184.47 193.92 184.93 C 193.91 190.11 193.72 195.32 192.57 200.39 C 190.98 200.90 189.45 201.56 187.93 202.24 C 187.47 202.16 186.56 201.99 186.10 201.91 C 185.58 197.67 185.19 193.30 186.07 189.07 Z" />
</g>
<g id="#bfa724ff">
<path fill="#bfa724" opacity="1.00" d=" M 97.75 189.97 C 97.98 188.02 98.21 186.06 98.50 184.11 L 99.58 184.51 C 100.94 184.98 102.30 185.42 103.67 185.87 C 103.72 188.30 103.85 190.72 104.07 193.14 C 103.16 192.70 102.24 192.25 101.33 191.80 C 100.13 191.20 98.94 190.58 97.75 189.97 Z" />
</g>
<g id="#110e05ff">
<path fill="#110e05" opacity="1.00" d=" M 154.39 184.13 C 155.38 184.53 156.36 184.93 157.34 185.35 C 154.37 188.22 150.95 190.57 147.29 192.48 C 146.62 195.76 145.97 199.05 145.48 202.36 C 143.85 198.00 143.43 193.30 144.70 188.78 C 145.13 188.61 146.00 188.25 146.43 188.07 L 147.23 187.77 C 149.74 186.81 152.11 185.53 154.39 184.13 Z" />
</g>
<g id="#6b6966ff">
<path fill="#6b6966" opacity="1.00" d=" M 165.69 186.22 C 167.09 185.50 168.49 184.78 169.90 184.07 C 170.55 190.96 170.11 197.87 170.24 204.76 C 169.59 204.67 168.30 204.49 167.66 204.39 C 167.89 206.40 168.17 208.40 168.13 210.42 C 166.78 210.86 165.34 210.88 163.94 210.97 C 163.46 211.33 162.51 212.06 162.03 212.42 C 161.98 212.03 161.87 211.26 161.82 210.87 C 161.64 207.55 161.60 204.21 161.89 200.90 C 162.07 195.67 167.13 191.68 165.69 186.22 Z" />
</g>
<g id="#e7be2fff">
<path fill="#e7be2f" opacity="1.00" d=" M 20.65 186.57 C 21.18 186.50 22.25 186.37 22.78 186.30 C 23.20 186.25 24.06 186.15 24.49 186.10 C 34.49 191.82 44.36 197.79 54.29 203.64 C 70.66 212.46 86.34 222.50 102.74 231.29 C 108.02 234.22 113.10 237.48 118.26 240.62 C 117.87 241.23 117.09 242.45 116.70 243.07 C 100.50 233.65 84.21 224.40 68.09 214.83 C 57.45 208.45 46.47 202.67 35.95 196.09 C 30.86 192.90 25.27 190.45 20.65 186.57 Z" />
</g>
<g id="#bca320ff">
<path fill="#bca320" opacity="1.00" d=" M 57.89 186.53 C 67.21 190.31 74.63 197.80 84.45 200.43 C 86.41 201.27 88.27 202.32 90.08 203.42 C 91.18 204.09 92.26 204.77 93.35 205.46 C 90.73 206.54 87.76 208.41 84.89 207.07 C 80.82 205.27 77.21 202.61 73.32 200.46 C 68.11 197.37 62.88 194.30 57.63 191.25 C 57.72 189.68 57.80 188.10 57.89 186.53 Z" />
</g>
<g id="#474543ff">
<path fill="#474543" opacity="1.00" d=" M 142.57 192.94 C 143.26 191.55 143.94 190.14 144.70 188.78 C 143.43 193.30 143.85 198.00 145.48 202.36 C 145.48 204.31 145.46 206.27 145.43 208.22 C 143.97 208.85 142.50 209.48 141.05 210.13 C 140.11 210.04 139.17 209.95 138.24 209.85 C 139.49 211.92 141.01 213.89 141.72 216.23 C 142.13 218.53 141.79 220.88 141.78 223.20 C 141.29 221.40 140.74 219.63 140.18 217.86 C 139.80 221.73 139.55 225.62 139.48 229.51 C 138.57 230.41 137.68 231.33 136.74 232.21 C 134.96 232.85 133.15 233.41 131.35 233.99 C 131.33 224.30 131.37 214.61 131.28 204.92 C 131.50 203.13 130.99 200.82 132.65 199.59 C 135.40 197.14 138.61 195.30 141.49 193.02 C 141.76 193.00 142.30 192.96 142.57 192.94 Z" />
</g>
<g id="#1c1c1cff">
<path fill="#1c1c1c" opacity="1.00" d=" M 97.75 189.97 C 98.94 190.58 100.13 191.20 101.33 191.80 C 101.12 194.48 100.92 197.15 100.72 199.83 C 97.36 201.51 93.79 202.75 90.08 203.42 C 88.27 202.32 86.41 201.27 84.45 200.43 C 88.60 198.27 92.98 196.60 97.12 194.42 C 97.36 192.94 97.55 191.45 97.75 189.97 Z" />
</g>
<g id="#828281ff">
<path fill="#828281" opacity="1.00" d=" M 173.65 196.39 C 176.53 194.66 179.42 192.95 182.29 191.20 C 182.28 194.10 182.21 197.00 182.03 199.90 C 180.83 202.56 179.42 205.11 177.90 207.60 C 173.41 210.84 167.83 216.25 162.03 212.42 C 162.51 212.06 163.46 211.33 163.94 210.97 C 165.34 210.88 166.78 210.86 168.13 210.42 C 168.17 208.40 167.89 206.40 167.66 204.39 C 168.30 204.49 169.59 204.67 170.24 204.76 C 170.49 205.55 171.00 207.13 171.26 207.92 C 171.79 207.12 172.29 206.31 172.77 205.49 C 173.53 202.52 173.54 199.43 173.65 196.39 Z" />
</g>
<g id="#545250ff">
<path fill="#545250" opacity="1.00" d=" M 101.33 191.80 C 102.24 192.25 103.16 192.70 104.07 193.14 C 104.25 194.78 104.48 196.42 104.81 198.03 C 105.78 200.26 107.22 202.34 109.32 203.64 C 113.86 206.60 118.73 209.02 123.31 211.92 C 122.61 222.02 124.34 232.43 121.52 242.28 C 120.41 241.76 119.33 241.20 118.26 240.62 C 113.10 237.48 108.02 234.22 102.74 231.29 C 102.95 229.59 102.03 226.93 104.26 226.32 C 106.38 225.78 108.58 226.32 110.71 226.49 C 114.45 224.49 118.34 222.79 122.41 221.58 C 122.44 217.01 120.35 212.14 116.03 210.15 C 112.20 209.25 108.22 209.29 104.36 208.47 C 106.34 207.57 108.33 206.68 110.31 205.79 C 107.64 204.39 105.05 202.43 101.96 202.15 C 98.88 202.56 96.15 204.20 93.35 205.46 C 92.26 204.77 91.18 204.09 90.08 203.42 C 93.79 202.75 97.36 201.51 100.72 199.83 C 100.92 197.15 101.12 194.48 101.33 191.80 Z" />
</g>
<g id="#050404ff">
<path fill="#050404" opacity="1.00" d=" M 129.70 198.60 C 132.91 195.61 136.95 193.01 141.49 193.02 C 138.61 195.30 135.40 197.14 132.65 199.59 C 130.99 200.82 131.50 203.13 131.28 204.92 C 131.37 214.61 131.33 224.30 131.35 233.99 C 133.15 233.41 134.96 232.85 136.74 232.21 C 135.78 233.11 134.83 234.03 133.71 234.74 C 131.71 234.66 129.83 233.90 127.95 233.31 C 128.55 224.39 127.80 215.47 127.62 206.56 C 128.10 203.89 128.09 200.88 129.70 198.60 Z" />
</g>
<g id="#666766ff">
<path fill="#666766" opacity="1.00" d=" M 59.09 197.75 C 60.88 198.63 62.49 199.81 63.92 201.21 C 64.38 200.24 64.85 199.28 65.32 198.33 C 66.58 200.06 67.83 201.80 69.08 203.55 C 70.49 202.51 71.91 201.48 73.32 200.46 C 77.21 202.61 80.82 205.27 84.89 207.07 C 87.76 208.41 90.73 206.54 93.35 205.46 C 96.15 204.20 98.88 202.56 101.96 202.15 C 105.05 202.43 107.64 204.39 110.31 205.79 C 108.33 206.68 106.34 207.57 104.36 208.47 C 108.22 209.29 112.20 209.25 116.03 210.15 C 120.35 212.14 122.44 217.01 122.41 221.58 C 118.34 222.79 114.45 224.49 110.71 226.49 C 108.58 226.32 106.38 225.78 104.26 226.32 C 102.03 226.93 102.95 229.59 102.74 231.29 C 86.34 222.50 70.66 212.46 54.29 203.64 C 56.09 201.85 57.65 199.84 59.09 197.75 Z" />
</g>
<g id="#242423ff">
<path fill="#242423" opacity="1.00" d=" M 104.81 198.03 C 111.38 200.84 116.96 205.49 123.61 208.14 C 123.52 219.82 123.67 231.50 123.56 243.18 C 122.88 242.88 122.19 242.58 121.52 242.28 C 124.34 232.43 122.61 222.02 123.31 211.92 C 118.73 209.02 113.86 206.60 109.32 203.64 C 107.22 202.34 105.78 200.26 104.81 198.03 Z" />
</g>
<g id="#39362bff">
<path fill="#39362b" opacity="1.00" d=" M 177.90 207.60 C 179.42 205.11 180.83 202.56 182.03 199.90 C 182.49 202.14 183.21 204.33 183.96 206.50 C 182.48 206.92 180.99 207.28 179.48 207.60 C 179.09 207.60 178.30 207.60 177.90 207.60 Z" />
</g>
<g id="#79797aff">
<path fill="#79797a" opacity="1.00" d=" M 152.06 222.11 C 151.09 214.81 154.59 208.20 157.58 201.83 C 157.97 207.48 158.30 213.13 158.56 218.78 C 156.38 219.85 154.18 220.91 152.06 222.11 Z" />
</g>
<g id="#1e1c18ff">
<path fill="#1e1c18" opacity="1.00" d=" M 147.90 224.93 C 149.25 220.33 149.19 215.43 150.39 210.78 C 150.74 214.80 150.89 218.84 150.93 222.88 C 151.21 222.69 151.78 222.30 152.06 222.11 C 154.18 220.91 156.38 219.85 158.56 218.78 C 158.26 220.42 157.69 222.15 156.13 223.01 C 150.22 226.99 143.54 229.68 137.62 233.66 C 134.72 235.69 131.40 237.00 128.00 237.91 C 127.97 236.37 127.93 234.84 127.95 233.31 C 129.83 233.90 131.71 234.66 133.71 234.74 C 134.83 234.03 135.78 233.11 136.74 232.21 C 137.68 231.33 138.57 230.41 139.48 229.51 C 139.55 225.62 139.80 221.73 140.18 217.86 C 140.74 219.63 141.29 221.40 141.78 223.20 C 142.09 224.76 142.41 226.31 142.75 227.86 C 144.49 226.94 146.32 226.13 147.90 224.93 Z" />
</g>
</svg>
