<?xml version="1.0" encoding="UTF-8" ?>
<!DOCTYPE svg PUBLIC "-//W3C//DTD SVG 1.1//EN" "http://www.w3.org/Graphics/SVG/1.1/DTD/svg11.dtd">
<svg width="250pt" height="195pt" viewBox="0 0 250 195" version="1.1" xmlns="http://www.w3.org/2000/svg">
<g id="#000000ff">
<path fill="#000000" opacity="1.00" d=" M 0.00 0.00 L 250.00 0.00 L 250.00 195.00 L 0.00 195.00 L 0.00 0.00 M 29.17 48.04 C 27.59 48.65 28.36 50.67 28.14 51.93 C 28.14 65.95 28.26 79.98 28.08 94.00 C 28.27 116.05 28.11 138.10 28.17 160.15 C 35.47 164.19 42.72 168.35 49.97 172.49 C 73.97 158.55 98.19 145.00 122.23 131.14 C 123.09 130.65 124.17 129.97 125.11 130.73 C 149.40 144.74 173.70 158.75 198.01 172.74 C 205.18 168.40 212.82 164.61 219.72 159.95 C 219.88 123.62 219.72 87.28 219.80 50.94 C 219.80 49.72 219.96 48.12 218.46 47.75 C 211.56 44.01 204.97 39.67 197.96 36.19 C 173.20 50.12 148.66 64.48 124.04 78.66 C 99.45 64.44 74.89 50.12 50.15 36.18 C 43.00 39.82 36.20 44.16 29.17 48.04 Z" />
<path fill="#000000" opacity="1.00" d=" M 43.48 57.39 C 45.56 55.88 47.90 54.80 50.06 53.42 C 72.96 66.62 95.87 79.81 118.77 93.01 C 120.50 93.94 122.08 95.20 123.97 95.79 C 125.69 95.42 127.10 94.25 128.63 93.45 C 151.73 80.06 174.90 66.81 198.00 53.42 C 200.18 54.75 202.48 55.88 204.60 57.32 C 204.75 88.70 204.80 120.11 204.58 151.49 C 202.44 152.88 200.14 154.00 197.98 155.36 C 178.45 143.97 158.86 132.67 139.20 121.51 C 148.06 116.25 157.02 111.17 165.95 106.04 C 166.84 105.50 167.66 104.86 168.41 104.12 C 163.72 101.60 159.26 98.67 154.51 96.26 C 153.36 95.55 152.17 96.64 151.14 97.07 C 142.13 102.32 133.05 107.47 124.04 112.72 C 109.35 104.12 94.51 95.80 79.86 87.15 C 74.74 89.97 69.56 92.73 64.72 96.01 C 79.53 104.29 94.05 113.11 108.93 121.26 C 89.46 132.87 69.61 143.87 50.08 155.38 C 47.90 153.99 45.65 152.73 43.38 151.48 C 43.47 120.12 43.27 88.75 43.48 57.39 Z" />
</g>
<g id="#ffffffff">
<path fill="#ffffff" opacity="1.00" d=" M 29.17 48.04 C 36.20 44.16 43.00 39.82 50.15 36.18 C 74.89 50.12 99.45 64.44 124.04 78.66 C 148.66 64.48 173.20 50.12 197.96 36.19 C 204.97 39.67 211.56 44.01 218.46 47.75 C 219.96 48.12 219.80 49.72 219.80 50.94 C 219.72 87.28 219.88 123.62 219.72 159.95 C 212.82 164.61 205.18 168.40 198.01 172.74 C 173.70 158.75 149.40 144.74 125.11 130.73 C 124.17 129.97 123.09 130.65 122.23 131.14 C 98.19 145.00 73.97 158.55 49.97 172.49 C 42.72 168.35 35.47 164.19 28.17 160.15 C 28.11 138.10 28.27 116.05 28.08 94.00 C 28.26 79.98 28.14 65.95 28.14 51.93 C 28.36 50.67 27.59 48.65 29.17 48.04 M 43.48 57.39 C 43.27 88.75 43.47 120.12 43.38 151.48 C 45.65 152.73 47.90 153.99 50.08 155.38 C 69.61 143.87 89.46 132.87 108.93 121.26 C 94.05 113.11 79.53 104.29 64.72 96.01 C 69.56 92.73 74.74 89.97 79.86 87.15 C 94.51 95.80 109.35 104.12 124.04 112.72 C 133.05 107.47 142.13 102.32 151.14 97.07 C 152.17 96.64 153.36 95.55 154.51 96.26 C 159.26 98.67 163.72 101.60 168.41 104.12 C 167.66 104.86 166.84 105.50 165.95 106.04 C 157.02 111.17 148.06 116.25 139.20 121.51 C 158.86 132.67 178.45 143.97 197.98 155.36 C 200.14 154.00 202.44 152.88 204.58 151.49 C 204.80 120.11 204.75 88.70 204.60 57.32 C 202.48 55.88 200.18 54.75 198.00 53.42 C 174.90 66.81 151.73 80.06 128.63 93.45 C 127.10 94.25 125.69 95.42 123.97 95.79 C 122.08 95.20 120.50 93.94 118.77 93.01 C 95.87 79.81 72.96 66.62 50.06 53.42 C 47.90 54.80 45.56 55.88 43.48 57.39 Z" />
</g>
</svg>
