<?xml version="1.0" encoding="UTF-8" ?>
<!DOCTYPE svg PUBLIC "-//W3C//DTD SVG 1.1//EN" "http://www.w3.org/Graphics/SVG/1.1/DTD/svg11.dtd">
<svg width="250pt" height="250pt" viewBox="0 0 250 250" version="1.1" xmlns="http://www.w3.org/2000/svg">
<g id="#ffffffff">
<path fill="#ffffff" opacity="1.00" d=" M 0.00 0.00 L 250.00 0.00 L 250.00 250.00 L 0.00 250.00 L 0.00 0.00 M 40.41 61.00 C 40.23 101.34 40.36 141.68 40.45 182.02 C 44.74 179.12 49.01 176.19 53.29 173.28 C 62.15 166.69 71.70 161.09 80.38 154.25 L 80.93 154.34 C 85.24 152.26 88.72 148.74 93.07 146.66 C 94.28 147.11 95.36 147.85 96.41 148.59 C 105.24 155.10 114.08 161.57 122.95 168.02 C 124.60 169.63 126.77 168.42 128.26 167.25 C 137.55 160.51 147.43 154.58 156.34 147.33 C 161.24 149.57 165.15 153.41 169.59 156.40 C 176.12 160.81 182.07 166.11 189.06 169.81 C 191.25 173.05 194.81 174.84 197.84 177.15 C 201.77 179.92 205.35 183.25 209.74 185.31 C 210.49 149.88 209.61 114.44 210.07 79.01 C 210.05 76.57 209.88 74.13 209.69 71.69 C 209.93 68.12 209.89 64.52 209.69 60.94 C 199.27 67.72 189.11 74.89 178.82 81.86 C 175.19 84.42 171.22 86.54 168.03 89.69 C 153.86 98.88 139.98 108.52 126.02 118.04 C 109.11 129.64 92.02 140.99 75.28 152.82 C 73.27 154.62 71.06 156.18 68.75 157.57 C 60.75 162.50 53.40 168.47 45.25 173.15 C 44.38 167.13 44.94 161.04 44.81 155.00 C 44.93 144.00 44.59 132.99 45.14 122.01 C 45.24 104.94 45.04 87.86 45.26 70.79 C 50.20 73.70 54.49 77.56 59.22 80.80 C 72.20 90.06 84.83 99.84 98.03 108.78 C 99.00 107.84 99.96 106.89 100.91 105.94 C 80.82 90.86 60.66 75.87 40.41 61.00 Z" />
<path fill="#ffffff" opacity="1.00" d=" M 172.12 91.93 C 183.59 85.12 193.87 76.45 205.49 69.89 C 205.47 81.62 205.45 93.34 205.57 105.06 C 205.44 106.78 205.80 109.02 204.08 110.09 C 200.49 112.88 196.38 114.95 192.80 117.77 C 187.72 121.75 181.94 124.73 176.91 128.78 C 168.32 133.95 160.01 139.60 152.04 145.68 C 146.81 149.67 141.00 152.84 135.66 156.68 C 132.07 159.00 128.79 161.89 124.83 163.58 C 123.36 163.09 122.16 162.05 120.93 161.13 C 113.40 155.05 105.45 149.52 97.76 143.64 C 99.19 142.42 100.63 141.21 102.14 140.10 C 125.44 124.01 148.91 108.15 172.12 91.93 Z" />
<path fill="#ffffff" opacity="1.00" d=" M 170.92 137.91 C 181.66 130.45 192.79 123.52 203.11 115.49 C 203.51 115.70 204.30 116.13 204.69 116.34 C 205.70 119.79 205.25 123.44 205.30 126.99 C 204.97 143.42 205.79 159.87 205.00 176.28 C 200.20 173.41 195.86 169.86 191.21 166.77 C 181.66 159.03 171.18 152.48 161.95 144.36 C 164.95 142.23 167.96 140.10 170.92 137.91 Z" />
</g>
<g id="#2f6e77ff">
<path fill="#2f6e77" opacity="1.00" d=" M 40.41 61.00 C 60.66 75.87 80.82 90.86 100.91 105.94 C 99.96 106.89 99.00 107.84 98.03 108.78 C 84.83 99.84 72.20 90.06 59.22 80.80 C 54.49 77.56 50.20 73.70 45.26 70.79 C 45.04 87.86 45.24 104.94 45.14 122.01 C 44.59 132.99 44.93 144.00 44.81 155.00 C 44.94 161.04 44.38 167.13 45.25 173.15 C 53.40 168.47 60.75 162.50 68.75 157.57 C 71.06 156.18 73.27 154.62 75.28 152.82 C 76.98 153.30 78.67 153.81 80.38 154.25 C 71.70 161.09 62.15 166.69 53.29 173.28 C 49.01 176.19 44.74 179.12 40.45 182.02 C 40.36 141.68 40.23 101.34 40.41 61.00 Z" />
</g>
<g id="#8e9e8cff">
<path fill="#8e9e8c" opacity="1.00" d=" M 178.82 81.86 C 189.11 74.89 199.27 67.72 209.69 60.94 C 209.89 64.52 209.93 68.12 209.69 71.69 C 208.74 87.43 209.39 103.22 208.63 118.97 C 208.51 122.40 208.58 125.89 207.58 129.22 C 206.22 124.95 206.58 120.45 205.98 116.08 C 206.08 114.09 204.10 115.00 203.11 115.49 C 192.79 123.52 181.66 130.45 170.92 137.91 C 170.44 137.90 169.49 137.90 169.02 137.89 C 171.73 134.92 174.41 131.93 176.91 128.78 C 181.94 124.73 187.72 121.75 192.80 117.77 C 196.38 114.95 200.49 112.88 204.08 110.09 C 205.80 109.02 205.44 106.78 205.57 105.06 C 205.45 93.34 205.47 81.62 205.49 69.89 C 193.87 76.45 183.59 85.12 172.12 91.93 C 170.76 91.18 169.40 90.43 168.03 89.69 C 171.22 86.54 175.19 84.42 178.82 81.86 Z" />
</g>
<g id="#b2b6a1ff">
<path fill="#b2b6a1" opacity="1.00" d=" M 208.63 118.97 C 209.39 103.22 208.74 87.43 209.69 71.69 C 209.88 74.13 210.05 76.57 210.07 79.01 C 209.61 114.44 210.49 149.88 209.74 185.31 C 205.35 183.25 201.77 179.92 197.84 177.15 C 194.81 174.84 191.25 173.05 189.06 169.81 C 190.92 170.62 192.81 171.34 194.70 172.07 C 193.56 170.29 192.43 168.50 191.21 166.77 C 195.86 169.86 200.20 173.41 205.00 176.28 C 205.79 159.87 204.97 143.42 205.30 126.99 C 205.25 123.44 205.70 119.79 204.69 116.34 C 204.30 116.13 203.51 115.70 203.11 115.49 C 204.10 115.00 206.08 114.09 205.98 116.08 C 206.58 120.45 206.22 124.95 207.58 129.22 C 208.58 125.89 208.51 122.40 208.63 118.97 Z" />
</g>
<g id="#698e87ff">
<path fill="#698e87" opacity="1.00" d=" M 168.03 89.69 C 169.40 90.43 170.76 91.18 172.12 91.93 C 148.91 108.15 125.44 124.01 102.14 140.10 C 100.63 141.21 99.19 142.42 97.76 143.64 C 105.45 149.52 113.40 155.05 120.93 161.13 C 122.16 162.05 123.36 163.09 124.83 163.58 C 128.79 161.89 132.07 159.00 135.66 156.68 C 141.00 152.84 146.81 149.67 152.04 145.68 C 153.48 146.21 154.92 146.74 156.34 147.33 C 147.43 154.58 137.55 160.51 128.26 167.25 C 126.77 168.42 124.60 169.63 122.95 168.02 C 114.08 161.57 105.24 155.10 96.41 148.59 C 95.36 147.85 94.28 147.11 93.07 146.66 C 88.72 148.74 85.24 152.26 80.93 154.34 L 80.38 154.25 C 78.67 153.81 76.98 153.30 75.28 152.82 C 92.02 140.99 109.11 129.64 126.02 118.04 C 139.98 108.52 153.86 98.88 168.03 89.69 Z" />
</g>
<g id="#94a696ff">
<path fill="#94a696" opacity="1.00" d=" M 152.04 145.68 C 160.01 139.60 168.32 133.95 176.91 128.78 C 174.41 131.93 171.73 134.92 169.02 137.89 C 169.49 137.90 170.44 137.90 170.92 137.91 C 167.96 140.10 164.95 142.23 161.95 144.36 C 171.18 152.48 181.66 159.03 191.21 166.77 C 192.43 168.50 193.56 170.29 194.70 172.07 C 192.81 171.34 190.92 170.62 189.06 169.81 C 182.07 166.11 176.12 160.81 169.59 156.40 C 165.15 153.41 161.24 149.57 156.34 147.33 C 154.92 146.74 153.48 146.21 152.04 145.68 Z" />
</g>
</svg>
