<?xml version="1.0" encoding="UTF-8" ?>
<!DOCTYPE svg PUBLIC "-//W3C//DTD SVG 1.1//EN" "http://www.w3.org/Graphics/SVG/1.1/DTD/svg11.dtd">
<svg width="250pt" height="250pt" viewBox="0 0 250 250" version="1.1" xmlns="http://www.w3.org/2000/svg">
<g id="#fffefeff">
<path fill="#fffefe" opacity="1.00" d=" M 0.00 0.00 L 250.00 0.00 L 250.00 250.00 L 0.00 250.00 L 0.00 0.00 M 138.99 5.98 C 137.93 9.22 141.29 9.73 143.71 9.61 C 151.80 13.26 159.37 17.81 167.12 22.13 C 165.89 23.84 168.76 26.00 170.15 24.45 L 170.85 24.89 C 172.28 27.34 173.88 31.35 177.31 30.80 C 178.85 32.53 180.57 34.10 182.20 35.75 C 181.56 39.02 185.46 40.95 187.92 42.10 C 190.10 45.81 192.15 49.60 195.35 52.56 C 196.25 57.09 199.67 60.55 201.19 64.85 C 220.31 106.44 207.13 159.95 170.73 187.75 C 136.84 216.19 85.48 217.70 48.62 194.28 C 48.16 193.98 47.24 193.37 46.77 193.07 C 47.58 191.63 45.14 190.08 44.03 191.20 C 42.32 189.21 40.16 187.58 37.95 186.15 C 35.06 180.96 30.86 176.72 25.60 173.94 C 27.33 172.14 24.71 169.38 22.76 170.60 C 23.51 168.30 22.81 165.62 19.92 165.95 C 19.62 165.56 19.00 164.78 18.69 164.38 C 19.58 162.11 18.70 159.70 15.96 159.93 C 15.27 158.38 14.46 156.88 13.47 155.50 C 12.85 153.53 14.16 149.07 10.83 150.07 C 10.48 149.07 10.11 148.07 9.71 147.09 C 10.02 145.81 9.61 144.78 8.47 144.02 C 8.07 137.66 4.67 148.95 8.95 151.12 C 9.57 153.77 9.41 156.98 11.45 159.00 C 11.03 160.70 11.35 164.03 12.97 164.77 C 12.95 168.08 15.23 170.88 16.65 173.74 C 15.81 175.14 16.71 178.73 18.83 177.93 C 20.24 183.71 23.92 188.29 27.38 192.94 C 26.06 194.39 28.20 197.01 29.88 196.04 L 30.30 196.86 C 28.98 198.55 31.51 201.01 33.20 199.77 C 33.35 200.31 33.65 201.39 33.80 201.94 C 36.57 207.49 42.01 212.50 47.58 215.06 L 48.34 214.81 C 47.79 216.71 49.78 219.85 51.97 218.67 C 58.07 223.83 65.40 228.55 73.17 230.96 C 72.41 232.49 75.03 233.85 76.09 232.66 C 84.52 237.25 94.45 240.56 104.17 240.99 C 104.00 242.83 107.14 242.66 107.97 241.54 L 108.80 241.81 C 115.76 246.12 126.58 243.72 134.58 243.27 L 135.09 242.46 C 136.89 243.42 137.82 243.39 137.90 242.36 C 138.41 242.17 139.43 241.78 139.94 241.58 C 140.83 242.51 143.78 242.75 143.78 241.07 C 148.67 240.77 153.73 239.85 158.14 237.69 C 159.56 238.85 163.14 238.31 162.79 236.06 C 164.97 235.60 167.28 235.10 169.06 233.67 C 170.25 234.92 173.41 233.92 172.81 232.03 C 175.38 231.56 178.11 230.50 179.79 228.42 C 181.20 229.13 184.69 228.28 183.94 226.19 C 187.53 223.87 193.62 222.82 195.02 218.75 C 195.60 218.53 196.76 218.08 197.34 217.86 C 199.21 218.37 201.37 215.76 200.78 213.92 C 202.19 214.18 203.50 212.82 203.99 211.60 C 207.16 212.78 209.22 208.19 209.94 205.76 L 210.08 204.79 C 211.59 205.23 213.23 202.96 212.64 201.56 C 214.60 202.27 217.89 200.26 216.62 197.99 C 218.37 196.69 220.29 195.41 220.27 192.97 C 221.87 193.99 223.87 191.34 222.66 189.97 C 226.24 184.24 230.09 178.23 231.97 171.73 C 233.73 171.70 234.76 168.60 233.80 167.17 C 235.43 166.02 235.66 163.58 236.00 161.73 C 238.12 161.37 238.78 157.87 237.69 156.16 C 240.19 151.15 240.84 145.33 241.09 139.78 C 242.83 139.03 242.52 135.59 241.62 134.09 C 241.91 132.75 242.04 131.38 242.02 130.00 C 243.85 126.65 243.85 123.32 242.03 120.01 C 242.04 118.62 241.91 117.25 241.63 115.90 C 242.50 114.43 242.86 110.83 240.94 110.31 C 240.08 106.66 239.48 102.96 238.63 99.32 C 239.30 95.63 238.57 89.94 235.89 88.03 C 235.09 85.24 233.94 82.56 232.55 80.02 C 233.98 78.84 232.93 75.50 230.93 76.25 C 230.38 74.41 229.46 72.69 228.47 71.06 C 229.38 69.49 228.48 65.43 226.14 66.13 C 225.39 64.70 224.40 63.41 223.48 62.09 C 224.84 60.61 223.02 57.05 220.98 58.30 C 220.61 57.79 219.87 56.76 219.50 56.25 C 220.36 54.89 218.42 52.62 216.96 53.27 C 216.61 52.76 215.92 51.74 215.57 51.23 C 215.46 50.66 215.25 49.53 215.15 48.96 C 212.28 43.39 205.45 37.88 200.76 35.32 C 199.54 34.78 198.26 34.30 197.49 33.14 C 199.05 31.57 196.54 28.89 194.86 30.28 L 193.84 29.98 C 194.78 27.33 189.58 25.82 191.77 29.18 C 189.33 27.62 187.58 25.09 184.88 23.89 C 185.78 21.73 182.15 20.78 180.73 21.66 C 179.26 20.53 177.62 19.57 175.86 19.00 C 177.40 17.00 173.02 15.61 172.98 17.98 C 164.78 13.77 155.74 11.27 146.85 9.07 C 145.69 6.94 141.44 7.03 138.99 5.98 M 104.28 40.15 C 100.42 47.10 93.01 52.45 91.41 60.40 L 91.04 60.99 C 87.70 62.41 85.12 67.46 85.21 71.24 L 84.92 71.93 C 80.94 72.43 81.06 79.01 80.21 82.46 L 79.68 83.27 C 78.43 85.92 87.13 92.84 91.14 95.16 L 91.54 95.93 C 90.06 97.81 92.87 100.84 94.88 99.75 L 95.35 100.39 C 97.09 106.63 101.44 111.93 104.91 117.25 L 105.14 118.21 C 105.51 122.95 109.72 117.80 108.82 114.76 C 109.31 113.94 109.74 113.08 110.12 112.20 C 113.20 111.24 114.22 107.46 114.54 104.55 L 114.90 103.98 C 121.00 99.17 125.86 90.60 132.69 85.62 C 133.88 83.15 133.78 79.86 131.01 78.94 C 130.33 77.36 129.48 75.86 128.65 74.36 C 128.36 71.80 128.26 67.10 125.01 66.91 C 124.57 66.07 124.10 65.25 123.57 64.47 C 122.84 59.29 119.20 53.21 115.01 50.96 L 114.67 50.34 C 113.41 46.04 109.20 39.81 104.28 40.15 M 46.30 72.31 C 45.66 75.58 44.80 78.81 44.17 82.08 C 40.52 89.85 41.61 102.43 40.95 112.01 C 38.17 117.58 43.83 118.36 47.22 118.85 C 48.01 119.43 48.89 119.83 49.86 120.05 C 52.41 123.06 56.90 123.26 60.45 124.57 L 60.99 124.99 C 61.42 128.11 66.11 127.98 68.44 129.65 L 68.98 130.05 C 68.45 132.39 71.11 132.64 72.61 133.49 C 76.56 137.50 79.62 142.78 84.95 145.09 C 85.29 145.47 85.97 146.23 86.31 146.60 C 87.98 152.07 92.38 156.38 95.09 161.35 L 95.52 162.44 C 94.19 163.46 97.19 163.90 97.88 164.09 C 97.81 157.93 99.15 151.82 98.68 145.68 C 99.67 142.21 100.57 138.70 101.01 135.12 C 103.34 133.09 103.36 129.50 103.66 126.62 C 103.67 126.05 103.70 124.92 103.71 124.36 C 102.60 118.64 99.84 110.87 94.94 108.00 L 94.56 107.42 C 94.23 105.22 94.17 101.69 91.07 101.92 L 90.70 101.34 C 88.08 95.01 81.91 88.32 75.79 85.30 L 75.05 84.99 C 73.74 82.99 72.48 79.73 69.59 80.19 L 68.90 79.81 C 70.13 78.11 67.22 75.97 65.86 77.52 C 64.51 76.80 63.22 75.99 61.95 75.14 C 61.88 71.78 57.12 71.28 54.49 70.44 C 53.74 69.84 52.97 69.29 52.16 68.78 C 50.26 63.73 43.31 67.02 46.30 72.31 M 160.20 69.21 C 159.15 69.78 158.14 70.41 157.14 71.07 C 156.54 69.48 148.87 72.31 150.40 75.45 C 149.67 76.06 148.94 76.66 148.20 77.25 C 151.31 72.65 141.39 77.68 143.17 80.53 C 142.57 80.65 141.36 80.91 140.76 81.03 C 138.93 80.60 136.31 83.12 137.50 84.93 C 136.79 85.69 136.06 86.43 135.31 87.15 C 132.99 84.92 126.62 91.38 127.31 95.25 C 124.21 96.30 120.81 98.50 121.15 102.24 C 119.06 106.02 117.06 109.85 114.32 113.24 C 110.88 112.06 110.85 117.07 111.26 119.30 C 110.60 120.60 109.94 121.90 109.37 123.25 C 106.24 123.28 106.55 127.86 106.45 130.14 C 105.43 131.10 104.91 133.01 105.64 134.25 C 104.61 137.49 104.20 140.89 103.26 144.16 C 101.72 141.84 101.30 147.16 102.32 148.08 L 101.74 148.98 C 100.42 150.60 100.60 153.87 101.36 155.89 C 100.88 157.96 100.89 160.10 100.93 162.22 C 99.15 162.71 99.14 167.28 100.93 167.78 C 100.93 169.57 100.93 173.13 100.93 174.91 C 101.34 178.63 102.13 183.24 104.08 186.09 C 104.13 188.25 104.85 190.31 105.46 192.37 C 106.60 194.82 109.27 189.19 107.93 186.84 C 109.19 182.89 110.37 178.88 111.15 174.81 C 112.97 175.18 113.80 172.17 112.54 171.06 C 113.89 170.31 114.44 169.19 114.18 167.68 C 115.70 167.55 115.48 164.27 116.26 162.93 C 118.05 163.44 119.04 160.38 118.47 159.11 C 119.95 158.40 120.39 157.34 119.77 155.95 C 123.01 154.06 124.17 149.88 126.18 146.83 C 127.56 147.66 129.36 145.32 128.56 144.14 C 128.85 143.58 129.42 142.46 129.71 141.90 C 132.74 141.28 136.33 137.67 136.95 134.63 C 137.52 134.46 138.66 134.13 139.24 133.96 C 140.97 134.39 143.55 132.08 142.76 130.31 L 143.42 129.76 C 145.34 128.63 148.79 128.74 149.18 126.11 C 150.87 125.52 152.84 125.08 153.82 123.42 C 155.48 123.91 158.93 123.27 158.77 121.05 C 161.92 120.35 165.03 119.36 167.97 118.02 C 173.76 119.42 169.67 110.66 170.98 107.98 C 170.64 103.79 172.50 97.43 169.84 94.82 L 169.57 93.95 C 170.58 92.53 170.64 90.31 169.55 88.92 C 170.39 88.07 170.64 85.27 168.96 85.42 C 169.24 83.71 170.23 79.66 167.90 79.38 C 168.11 76.94 168.18 71.65 165.64 71.31 C 165.36 70.14 165.06 68.98 164.74 67.82 C 166.67 64.28 158.37 66.35 160.20 69.21 M 10.66 118.73 C 10.83 119.47 11.16 120.95 11.33 121.69 C 11.13 126.55 11.68 132.44 14.83 136.17 C 15.04 137.44 15.18 138.84 16.35 139.63 C 16.95 142.62 17.00 146.38 19.94 148.14 C 20.12 149.12 20.58 149.95 21.31 150.64 C 21.98 153.36 22.72 157.65 26.04 158.01 L 26.41 158.57 C 26.77 161.36 28.03 164.26 30.97 165.04 L 31.33 165.76 C 33.58 170.60 39.72 177.67 45.29 179.72 L 45.87 180.11 C 46.15 183.39 49.62 184.40 52.39 184.62 L 52.97 185.02 C 52.90 188.65 57.86 188.51 60.38 189.67 C 61.02 190.45 61.85 190.90 62.87 191.02 C 64.05 193.42 66.95 193.47 69.27 193.80 C 70.84 195.16 72.81 195.93 74.87 196.14 C 77.29 198.41 81.91 198.95 85.38 198.70 L 86.23 198.90 C 86.02 200.78 89.20 200.68 90.11 199.60 L 91.12 199.87 C 91.86 202.27 96.02 201.54 97.87 200.65 L 98.83 200.83 C 104.93 206.77 103.47 191.75 100.85 190.09 C 99.94 186.85 99.14 183.58 98.69 180.24 C 97.37 176.97 99.37 170.15 94.75 169.16 C 94.49 168.71 93.96 167.80 93.69 167.34 C 93.45 165.17 93.61 161.53 90.79 161.15 C 90.20 156.71 87.56 150.68 82.87 149.12 C 82.49 143.85 74.72 138.22 70.74 136.35 L 70.03 135.98 C 69.23 132.84 66.66 131.30 63.51 131.45 C 62.77 130.85 61.97 130.36 61.11 129.95 C 60.14 126.55 54.81 125.93 51.61 125.39 C 50.70 124.98 49.77 124.61 48.83 124.27 C 48.40 121.02 44.03 121.77 41.62 121.45 C 38.44 120.48 35.18 119.80 31.93 119.13 C 30.75 115.73 22.68 118.10 20.01 116.95 C 18.69 117.17 6.74 115.99 10.66 118.73 M 183.11 119.21 C 179.21 120.03 175.26 120.57 171.37 121.44 C 168.80 121.71 165.14 121.15 163.96 124.05 L 163.24 124.27 C 159.32 124.43 153.46 126.47 151.91 130.03 C 149.92 131.08 148.20 132.57 146.14 133.52 C 144.76 131.95 141.87 134.13 143.12 135.83 L 142.44 136.22 C 137.60 138.56 132.61 143.54 130.13 148.23 C 129.82 148.70 129.20 149.64 128.89 150.11 C 127.15 149.03 125.50 151.99 126.60 153.31 C 125.62 154.52 124.54 155.70 123.88 157.12 C 121.73 156.22 120.78 159.84 121.65 161.27 C 120.53 162.66 119.73 164.28 119.14 165.96 C 116.51 166.87 116.36 170.04 116.44 172.40 C 115.41 174.81 114.63 177.33 114.00 179.88 C 111.16 181.51 111.33 185.45 111.41 188.32 C 110.86 190.58 110.39 192.87 110.07 195.18 C 108.19 194.98 108.31 198.17 109.47 199.02 C 109.41 199.52 109.28 200.52 109.22 201.01 C 109.70 202.86 114.27 202.83 114.84 201.07 C 115.38 200.94 116.46 200.68 117.00 200.54 C 118.17 201.55 121.62 201.98 121.81 200.01 C 124.19 200.24 126.63 200.03 128.70 198.73 C 131.66 198.99 134.95 198.08 137.14 196.03 C 138.42 195.87 139.83 195.88 140.74 194.81 C 143.71 194.20 147.19 193.57 149.14 191.04 C 150.85 190.76 152.41 189.89 153.65 188.69 C 155.78 188.19 159.48 188.10 159.00 184.99 L 159.53 184.58 C 161.85 183.51 166.06 183.30 166.12 180.06 C 166.55 179.77 167.40 179.20 167.83 178.91 C 172.78 177.11 176.97 171.02 179.84 166.86 L 180.17 166.18 C 183.31 165.86 183.47 161.85 184.66 159.57 C 184.99 159.11 185.66 158.19 185.99 157.73 C 187.85 158.23 189.22 155.25 188.44 153.78 C 190.17 152.79 190.71 150.73 191.23 148.94 C 193.48 149.44 194.27 145.58 193.57 144.01 C 195.40 142.24 195.58 139.51 196.11 137.15 C 198.83 135.40 198.43 131.65 198.87 128.81 C 200.91 125.62 200.49 121.59 201.00 117.95 C 197.79 115.07 186.46 117.71 183.11 119.21 Z" />
</g>
<g id="#fff0b3ff">
<path fill="#fff0b3" opacity="1.00" d=" M 138.99 5.98 C 141.44 7.03 145.69 6.94 146.85 9.07 C 145.80 9.24 144.76 9.42 143.71 9.61 C 141.29 9.73 137.93 9.22 138.99 5.98 Z" />
<path fill="#fff0b3" opacity="1.00" d=" M 172.98 17.98 C 173.02 15.61 177.40 17.00 175.86 19.00 C 174.81 18.90 173.85 18.56 172.98 17.98 Z" />
<path fill="#fff0b3" opacity="1.00" d=" M 180.73 21.66 C 182.15 20.78 185.78 21.73 184.88 23.89 C 183.37 23.39 181.75 22.96 180.73 21.66 Z" />
<path fill="#fff0b3" opacity="1.00" d=" M 167.12 22.13 C 168.31 22.64 169.24 23.56 170.15 24.45 C 168.76 26.00 165.89 23.84 167.12 22.13 Z" />
<path fill="#fff0b3" opacity="1.00" d=" M 170.85 24.89 C 172.77 25.93 174.26 27.53 175.92 28.91 C 176.27 29.38 176.96 30.32 177.31 30.80 C 173.88 31.35 172.28 27.34 170.85 24.89 Z" />
<path fill="#fff0b3" opacity="1.00" d=" M 191.77 29.18 C 189.58 25.82 194.78 27.33 193.84 29.98 C 193.33 29.78 192.29 29.38 191.77 29.18 Z" />
<path fill="#fff0b3" opacity="1.00" d=" M 194.86 30.28 C 196.54 28.89 199.05 31.57 197.49 33.14 C 196.56 32.23 195.69 31.28 194.86 30.28 Z" />
<path fill="#fff0b3" opacity="1.00" d=" M 200.76 35.32 C 205.45 37.88 212.28 43.39 215.15 48.96 C 214.64 48.72 213.62 48.23 213.11 47.99 C 208.84 43.90 204.56 39.85 200.76 35.32 Z" />
<path fill="#fff0b3" opacity="1.00" d=" M 182.20 35.75 C 184.24 37.74 186.20 39.82 187.92 42.10 C 185.46 40.95 181.56 39.02 182.20 35.75 Z" />
<path fill="#fff0b3" opacity="1.00" d=" M 195.35 52.56 C 205.56 65.95 215.82 79.91 220.64 96.29 C 235.64 139.03 216.44 189.66 177.97 212.99 C 137.50 239.12 80.52 229.72 48.62 194.28 C 85.48 217.70 136.84 216.19 170.73 187.75 C 207.13 159.95 220.31 106.44 201.19 64.85 C 199.67 60.55 196.25 57.09 195.35 52.56 Z" />
<path fill="#fff0b3" opacity="1.00" d=" M 220.98 58.30 C 223.02 57.05 224.84 60.61 223.48 62.09 C 222.47 60.95 221.68 59.64 220.98 58.30 Z" />
<path fill="#fff0b3" opacity="1.00" d=" M 226.14 66.13 C 228.48 65.43 229.38 69.49 228.47 71.06 C 227.21 69.68 226.66 67.89 226.14 66.13 Z" />
<path fill="#fff0b3" opacity="1.00" d=" M 230.93 76.25 C 232.93 75.50 233.98 78.84 232.55 80.02 C 231.83 78.84 231.17 77.62 230.93 76.25 Z" />
<path fill="#fff0b3" opacity="1.00" d=" M 235.89 88.03 C 238.57 89.94 239.30 95.63 238.63 99.32 C 237.63 95.58 236.78 91.79 235.89 88.03 Z" />
<path fill="#fff0b3" opacity="1.00" d=" M 240.94 110.31 C 242.86 110.83 242.50 114.43 241.63 115.90 L 241.07 115.80 C 240.97 113.97 240.96 112.14 240.94 110.31 Z" />
<path fill="#fff0b3" opacity="1.00" d=" M 242.03 120.01 C 243.85 123.32 243.85 126.65 242.02 130.00 C 242.00 126.67 242.00 123.33 242.03 120.01 Z" />
<path fill="#fff0b3" opacity="1.00" d=" M 241.05 134.16 L 241.62 134.09 C 242.52 135.59 242.83 139.03 241.09 139.78 C 240.98 137.91 240.95 136.03 241.05 134.16 Z" />
<path fill="#fff0b3" opacity="1.00" d=" M 8.95 151.12 C 4.67 148.95 8.07 137.66 8.47 144.02 C 7.77 145.33 7.93 146.85 8.60 148.14 C 8.69 148.88 8.86 150.37 8.95 151.12 Z" />
<path fill="#fff0b3" opacity="1.00" d=" M 10.83 150.07 C 14.16 149.07 12.85 153.53 13.47 155.50 C 12.22 153.90 11.46 151.99 10.83 150.07 Z" />
<path fill="#fff0b3" opacity="1.00" d=" M 236.00 161.73 C 235.98 159.74 236.64 157.83 237.69 156.16 C 238.78 157.87 238.12 161.37 236.00 161.73 Z" />
<path fill="#fff0b3" opacity="1.00" d=" M 15.96 159.93 C 18.70 159.70 19.58 162.11 18.69 164.38 C 17.31 163.23 16.69 161.51 15.96 159.93 Z" />
<path fill="#fff0b3" opacity="1.00" d=" M 19.92 165.95 C 22.81 165.62 23.51 168.30 22.76 170.60 C 21.53 169.24 20.74 167.57 19.92 165.95 Z" />
<path fill="#fff0b3" opacity="1.00" d=" M 22.76 170.60 C 24.71 169.38 27.33 172.14 25.60 173.94 C 24.65 172.83 23.64 171.77 22.76 170.60 Z" />
<path fill="#fff0b3" opacity="1.00" d=" M 16.65 173.74 C 17.99 174.74 18.43 176.39 18.83 177.93 C 16.71 178.73 15.81 175.14 16.65 173.74 Z" />
<path fill="#fff0b3" opacity="1.00" d=" M 25.60 173.94 C 30.86 176.72 35.06 180.96 37.95 186.15 C 35.21 184.61 33.29 181.98 30.92 179.98 C 29.02 178.08 26.87 176.37 25.60 173.94 Z" />
<path fill="#fff0b3" opacity="1.00" d=" M 220.27 192.97 C 220.40 191.57 221.65 190.75 222.66 189.97 C 223.87 191.34 221.87 193.99 220.27 192.97 Z" />
<path fill="#fff0b3" opacity="1.00" d=" M 44.03 191.20 C 45.14 190.08 47.58 191.63 46.77 193.07 C 45.53 193.06 44.55 192.29 44.03 191.20 Z" />
<path fill="#fff0b3" opacity="1.00" d=" M 27.38 192.94 C 28.43 193.77 29.39 194.75 29.88 196.04 C 28.20 197.01 26.06 194.39 27.38 192.94 Z" />
<path fill="#fff0b3" opacity="1.00" d=" M 30.30 196.86 C 31.33 197.76 32.30 198.74 33.20 199.77 C 31.51 201.01 28.98 198.55 30.30 196.86 Z" />
<path fill="#fff0b3" opacity="1.00" d=" M 212.64 201.56 C 213.77 200.17 215.18 199.04 216.62 197.99 C 217.89 200.26 214.60 202.27 212.64 201.56 Z" />
<path fill="#fff0b3" opacity="1.00" d=" M 33.80 201.94 C 34.81 202.63 35.84 203.28 36.86 203.95 C 39.23 206.97 42.11 209.53 44.93 212.13 C 45.63 213.25 46.36 214.43 47.58 215.06 C 42.01 212.50 36.57 207.49 33.80 201.94 Z" />
<path fill="#fff0b3" opacity="1.00" d=" M 203.81 211.01 C 205.90 209.32 207.95 207.58 209.94 205.76 C 209.22 208.19 207.16 212.78 203.99 211.60 L 203.81 211.01 Z" />
<path fill="#fff0b3" opacity="1.00" d=" M 197.80 215.97 C 198.83 215.34 199.82 214.65 200.78 213.92 C 201.37 215.76 199.21 218.37 197.34 217.86 C 197.45 217.38 197.68 216.44 197.80 215.97 Z" />
<path fill="#fff0b3" opacity="1.00" d=" M 48.34 214.81 C 49.94 215.67 50.95 217.23 51.97 218.67 C 49.78 219.85 47.79 216.71 48.34 214.81 Z" />
<path fill="#fff0b3" opacity="1.00" d=" M 179.79 228.42 C 180.63 226.90 182.42 226.62 183.94 226.19 C 184.69 228.28 181.20 229.13 179.79 228.42 Z" />
<path fill="#fff0b3" opacity="1.00" d=" M 73.17 230.96 C 74.42 230.93 75.39 231.70 76.09 232.66 C 75.03 233.85 72.41 232.49 73.17 230.96 Z" />
<path fill="#fff0b3" opacity="1.00" d=" M 169.06 233.67 C 170.14 232.79 171.38 232.05 172.81 232.03 C 173.41 233.92 170.25 234.92 169.06 233.67 Z" />
<path fill="#fff0b3" opacity="1.00" d=" M 158.14 237.69 C 159.54 236.80 161.14 236.26 162.79 236.06 C 163.14 238.31 159.56 238.85 158.14 237.69 Z" />
<path fill="#fff0b3" opacity="1.00" d=" M 104.17 240.99 C 105.46 240.78 106.80 240.92 107.97 241.54 C 107.14 242.66 104.00 242.83 104.17 240.99 Z" />
<path fill="#fff0b3" opacity="1.00" d=" M 139.97 241.03 C 141.24 240.97 142.51 240.99 143.78 241.07 C 143.78 242.75 140.83 242.51 139.94 241.58 L 139.97 241.03 Z" />
<path fill="#fff0b3" opacity="1.00" d=" M 108.80 241.81 C 115.80 242.70 122.86 243.28 129.92 242.61 C 131.39 243.53 132.94 243.75 134.58 243.27 C 126.58 243.72 115.76 246.12 108.80 241.81 Z" />
</g>
<g id="#ffd46bff">
<path fill="#ffd46b" opacity="1.00" d=" M 143.71 9.61 C 144.76 9.42 145.80 9.24 146.85 9.07 C 155.74 11.27 164.78 13.77 172.98 17.98 C 173.85 18.56 174.81 18.90 175.86 19.00 C 177.62 19.57 179.26 20.53 180.73 21.66 C 181.75 22.96 183.37 23.39 184.88 23.89 C 187.58 25.09 189.33 27.62 191.77 29.18 C 192.29 29.38 193.33 29.78 193.84 29.98 L 194.86 30.28 C 195.69 31.28 196.56 32.23 197.49 33.14 C 198.26 34.30 199.54 34.78 200.76 35.32 C 204.56 39.85 208.84 43.90 213.11 47.99 C 212.97 49.57 213.95 51.01 215.57 51.23 C 215.92 51.74 216.61 52.76 216.96 53.27 C 216.97 54.79 218.13 55.85 219.50 56.25 C 219.87 56.76 220.61 57.79 220.98 58.30 C 221.68 59.64 222.47 60.95 223.48 62.09 C 224.40 63.41 225.39 64.70 226.14 66.13 C 226.66 67.89 227.21 69.68 228.47 71.06 C 229.46 72.69 230.38 74.41 230.93 76.25 C 231.17 77.62 231.83 78.84 232.55 80.02 C 233.94 82.56 235.09 85.24 235.89 88.03 C 236.78 91.79 237.63 95.58 238.63 99.32 C 239.48 102.96 240.08 106.66 240.94 110.31 C 240.96 112.14 240.97 113.97 241.07 115.80 C 241.02 121.92 241.02 128.04 241.05 134.16 C 240.95 136.03 240.98 137.91 241.09 139.78 C 240.84 145.33 240.19 151.15 237.69 156.16 C 236.64 157.83 235.98 159.74 236.00 161.73 C 235.66 163.58 235.43 166.02 233.80 167.17 C 231.83 167.84 231.77 169.99 231.97 171.73 C 230.09 178.23 226.24 184.24 222.66 189.97 C 221.65 190.75 220.40 191.57 220.27 192.97 C 220.29 195.41 218.37 196.69 216.62 197.99 C 215.18 199.04 213.77 200.17 212.64 201.56 C 211.28 202.12 209.91 203.15 210.08 204.79 L 209.94 205.76 C 207.95 207.58 205.90 209.32 203.81 211.01 C 202.17 211.08 201.03 212.37 200.78 213.92 C 199.82 214.65 198.83 215.34 197.80 215.97 C 196.28 216.04 194.79 217.07 195.02 218.75 C 193.62 222.82 187.53 223.87 183.94 226.19 C 182.42 226.62 180.63 226.90 179.79 228.42 C 178.11 230.50 175.38 231.56 172.81 232.03 C 171.38 232.05 170.14 232.79 169.06 233.67 C 167.28 235.10 164.97 235.60 162.79 236.06 C 161.14 236.26 159.54 236.80 158.14 237.69 C 153.73 239.85 148.67 240.77 143.78 241.07 C 142.51 240.99 141.24 240.97 139.97 241.03 C 138.37 240.35 134.41 241.28 137.90 242.36 C 137.82 243.39 136.89 243.42 135.09 242.46 C 133.80 242.50 131.21 242.58 129.92 242.61 C 122.86 243.28 115.80 242.70 108.80 241.81 L 107.97 241.54 C 106.80 240.92 105.46 240.78 104.17 240.99 C 94.45 240.56 84.52 237.25 76.09 232.66 C 75.39 231.70 74.42 230.93 73.17 230.96 C 65.40 228.55 58.07 223.83 51.97 218.67 C 50.95 217.23 49.94 215.67 48.34 214.81 C 48.26 213.01 46.66 211.89 44.93 212.13 C 42.11 209.53 39.23 206.97 36.86 203.95 C 36.88 201.77 35.29 200.13 33.20 199.77 C 32.30 198.74 31.33 197.76 30.30 196.86 L 29.88 196.04 C 29.39 194.75 28.43 193.77 27.38 192.94 C 23.92 188.29 20.24 183.71 18.83 177.93 C 18.43 176.39 17.99 174.74 16.65 173.74 C 15.23 170.88 12.95 168.08 12.97 164.77 C 13.26 162.72 13.36 160.33 11.45 159.00 C 9.41 156.98 9.57 153.77 8.95 151.12 C 8.86 150.37 8.69 148.88 8.60 148.14 C 8.88 147.87 9.43 147.35 9.71 147.09 C 10.11 148.07 10.48 149.07 10.83 150.07 C 11.46 151.99 12.22 153.90 13.47 155.50 C 14.46 156.88 15.27 158.38 15.96 159.93 C 16.69 161.51 17.31 163.23 18.69 164.38 C 19.00 164.78 19.62 165.56 19.92 165.95 C 20.74 167.57 21.53 169.24 22.76 170.60 C 23.64 171.77 24.65 172.83 25.60 173.94 C 26.87 176.37 29.02 178.08 30.92 179.98 C 48.67 214.79 88.24 236.34 127.01 235.09 C 179.51 235.45 227.74 191.32 231.96 138.96 C 235.99 109.77 225.88 79.40 206.93 57.10 C 197.56 46.83 186.91 37.24 175.92 28.91 C 174.26 27.53 172.77 25.93 170.85 24.89 L 170.15 24.45 C 169.24 23.56 168.31 22.64 167.12 22.13 C 159.37 17.81 151.80 13.26 143.71 9.61 Z" />
</g>
<g id="#ffe290ff">
<path fill="#ffe290" opacity="1.00" d=" M 175.92 28.91 C 186.91 37.24 197.56 46.83 206.93 57.10 C 225.88 79.40 235.99 109.77 231.96 138.96 C 227.74 191.32 179.51 235.45 127.01 235.09 C 88.24 236.34 48.67 214.79 30.92 179.98 C 33.29 181.98 35.21 184.61 37.95 186.15 C 40.16 187.58 42.32 189.21 44.03 191.20 C 44.55 192.29 45.53 193.06 46.77 193.07 C 47.24 193.37 48.16 193.98 48.62 194.28 C 80.52 229.72 137.50 239.12 177.97 212.99 C 216.44 189.66 235.64 139.03 220.64 96.29 C 215.82 79.91 205.56 65.95 195.35 52.56 C 192.15 49.60 190.10 45.81 187.92 42.10 C 186.20 39.82 184.24 37.74 182.20 35.75 C 180.57 34.10 178.85 32.53 177.31 30.80 C 176.96 30.32 176.27 29.38 175.92 28.91 Z" />
<path fill="#ffe290" opacity="1.00" d=" M 213.11 47.99 C 213.62 48.23 214.64 48.72 215.15 48.96 C 215.25 49.53 215.46 50.66 215.57 51.23 C 213.95 51.01 212.97 49.57 213.11 47.99 Z" />
<path fill="#ffe290" opacity="1.00" d=" M 216.96 53.27 C 218.42 52.62 220.36 54.89 219.50 56.25 C 218.13 55.85 216.97 54.79 216.96 53.27 Z" />
<path fill="#ffe290" opacity="1.00" d=" M 241.07 115.80 L 241.63 115.90 C 241.91 117.25 242.04 118.62 242.03 120.01 C 242.00 123.33 242.00 126.67 242.02 130.00 C 242.04 131.38 241.91 132.75 241.62 134.09 L 241.05 134.16 C 241.02 128.04 241.02 121.92 241.07 115.80 Z" />
<path fill="#ffe290" opacity="1.00" d=" M 8.60 148.14 C 7.93 146.85 7.77 145.33 8.47 144.02 C 9.61 144.78 10.02 145.81 9.71 147.09 C 9.43 147.35 8.88 147.87 8.60 148.14 Z" />
<path fill="#ffe290" opacity="1.00" d=" M 11.45 159.00 C 13.36 160.33 13.26 162.72 12.97 164.77 C 11.35 164.03 11.03 160.70 11.45 159.00 Z" />
<path fill="#ffe290" opacity="1.00" d=" M 231.97 171.73 C 231.77 169.99 231.83 167.84 233.80 167.17 C 234.76 168.60 233.73 171.70 231.97 171.73 Z" />
<path fill="#ffe290" opacity="1.00" d=" M 33.20 199.77 C 35.29 200.13 36.88 201.77 36.86 203.95 C 35.84 203.28 34.81 202.63 33.80 201.94 C 33.65 201.39 33.35 200.31 33.20 199.77 Z" />
<path fill="#ffe290" opacity="1.00" d=" M 210.08 204.79 C 209.91 203.15 211.28 202.12 212.64 201.56 C 213.23 202.96 211.59 205.23 210.08 204.79 Z" />
<path fill="#ffe290" opacity="1.00" d=" M 200.78 213.92 C 201.03 212.37 202.17 211.08 203.81 211.01 L 203.99 211.60 C 203.50 212.82 202.19 214.18 200.78 213.92 Z" />
<path fill="#ffe290" opacity="1.00" d=" M 44.93 212.13 C 46.66 211.89 48.26 213.01 48.34 214.81 L 47.58 215.06 C 46.36 214.43 45.63 213.25 44.93 212.13 Z" />
<path fill="#ffe290" opacity="1.00" d=" M 195.02 218.75 C 194.79 217.07 196.28 216.04 197.80 215.97 C 197.68 216.44 197.45 217.38 197.34 217.86 C 196.76 218.08 195.60 218.53 195.02 218.75 Z" />
<path fill="#ffe290" opacity="1.00" d=" M 137.90 242.36 C 134.41 241.28 138.37 240.35 139.97 241.03 L 139.94 241.58 C 139.43 241.78 138.41 242.17 137.90 242.36 Z" />
<path fill="#ffe290" opacity="1.00" d=" M 129.92 242.61 C 131.21 242.58 133.80 242.50 135.09 242.46 L 134.58 243.27 C 132.94 243.75 131.39 243.53 129.92 242.61 Z" />
</g>
<g id="#cba1efff">
<path fill="#cba1ef" opacity="1.00" d=" M 104.28 40.15 C 109.20 39.81 113.41 46.04 114.67 50.34 C 111.38 47.50 109.33 42.87 105.31 41.12 C 100.54 47.46 95.97 53.92 91.41 60.40 C 93.01 52.45 100.42 47.10 104.28 40.15 Z" />
<path fill="#cba1ef" opacity="1.00" d=" M 115.01 50.96 C 119.20 53.21 122.84 59.29 123.57 64.47 C 121.01 59.77 117.43 55.73 115.01 50.96 Z" />
<path fill="#cba1ef" opacity="1.00" d=" M 85.21 71.24 C 85.12 67.46 87.70 62.41 91.04 60.99 C 89.16 64.44 87.27 67.89 85.21 71.24 Z" />
<path fill="#cba1ef" opacity="1.00" d=" M 46.30 72.31 C 43.31 67.02 50.26 63.73 52.16 68.78 C 48.73 67.08 46.15 68.36 46.30 72.31 Z" />
<path fill="#cba1ef" opacity="1.00" d=" M 160.20 69.21 C 158.37 66.35 166.67 64.28 164.74 67.82 C 163.21 68.24 161.70 68.70 160.20 69.21 Z" />
<path fill="#cba1ef" opacity="1.00" d=" M 125.01 66.91 C 128.26 67.10 128.36 71.80 128.65 74.36 C 127.21 71.99 126.17 69.42 125.01 66.91 Z" />
<path fill="#cba1ef" opacity="1.00" d=" M 54.49 70.44 C 57.12 71.28 61.88 71.78 61.95 75.14 C 59.39 73.70 56.68 72.45 54.49 70.44 Z" />
<path fill="#cba1ef" opacity="1.00" d=" M 150.40 75.45 C 148.87 72.31 156.54 69.48 157.14 71.07 C 154.92 72.57 152.60 73.93 150.40 75.45 Z" />
<path fill="#cba1ef" opacity="1.00" d=" M 165.64 71.31 C 168.18 71.65 168.11 76.94 167.90 79.38 L 167.66 80.17 C 166.97 77.21 166.27 74.27 165.64 71.31 Z" />
<path fill="#cba1ef" opacity="1.00" d=" M 80.21 82.46 C 81.06 79.01 80.94 72.43 84.92 71.93 C 83.66 75.56 82.70 79.42 80.21 82.46 Z" />
<path fill="#cba1ef" opacity="1.00" d=" M 143.17 80.53 C 141.39 77.68 151.31 72.65 148.20 77.25 C 146.66 78.54 144.96 79.63 143.17 80.53 Z" />
<path fill="#cba1ef" opacity="1.00" d=" M 65.86 77.52 C 67.22 75.97 70.13 78.11 68.90 79.81 C 67.72 79.29 66.74 78.45 65.86 77.52 Z" />
<path fill="#cba1ef" opacity="1.00" d=" M 131.01 78.94 C 133.78 79.86 133.88 83.15 132.69 85.62 C 125.86 90.60 121.00 99.17 114.90 103.98 C 118.94 96.04 126.22 90.44 132.01 83.87 C 131.95 82.19 131.44 80.56 131.01 78.94 Z" />
<path fill="#cba1ef" opacity="1.00" d=" M 167.90 79.38 C 170.23 79.66 169.24 83.71 168.96 85.42 L 168.64 85.98 C 168.39 84.53 167.90 81.62 167.66 80.17 L 167.90 79.38 Z" />
<path fill="#cba1ef" opacity="1.00" d=" M 69.59 80.19 C 72.48 79.73 73.74 82.99 75.05 84.99 C 72.62 84.24 71.22 81.96 69.59 80.19 Z" />
<path fill="#cba1ef" opacity="1.00" d=" M 137.50 84.93 C 136.31 83.12 138.93 80.60 140.76 81.03 C 140.21 82.04 139.49 82.98 139.21 84.11 C 138.79 84.32 137.93 84.73 137.50 84.93 Z" />
<path fill="#cba1ef" opacity="1.00" d=" M 40.95 112.01 C 41.61 102.43 40.52 89.85 44.17 82.08 C 42.84 93.20 41.81 104.41 42.13 115.62 C 43.77 116.78 45.56 117.70 47.22 118.85 C 43.83 118.36 38.17 117.58 40.95 112.01 Z" />
<path fill="#cba1ef" opacity="1.00" d=" M 91.14 95.16 C 87.13 92.84 78.43 85.92 79.68 83.27 C 83.33 87.36 88.35 90.41 91.14 95.16 Z" />
<path fill="#cba1ef" opacity="1.00" d=" M 75.79 85.30 C 81.91 88.32 88.08 95.01 90.70 101.34 C 85.50 96.22 81.27 90.17 75.79 85.30 Z" />
<path fill="#cba1ef" opacity="1.00" d=" M 168.96 85.42 C 170.64 85.27 170.39 88.07 169.55 88.92 L 169.05 88.91 C 168.95 88.18 168.74 86.71 168.64 85.98 L 168.96 85.42 Z" />
<path fill="#cba1ef" opacity="1.00" d=" M 127.31 95.25 C 126.62 91.38 132.99 84.92 135.31 87.15 C 135.05 87.39 134.54 87.89 134.28 88.13 C 132.09 89.31 130.34 91.10 129.02 93.20 C 128.45 93.88 127.88 94.57 127.31 95.25 Z" />
<path fill="#cba1ef" opacity="1.00" d=" M 121.15 102.24 C 120.81 98.50 124.21 96.30 127.31 95.25 C 125.50 97.79 123.31 100.01 121.15 102.24 Z" />
<path fill="#cba1ef" opacity="1.00" d=" M 169.84 94.82 C 172.50 97.43 170.64 103.79 170.98 107.98 L 170.04 108.02 C 169.97 103.61 169.96 99.21 169.84 94.82 Z" />
<path fill="#cba1ef" opacity="1.00" d=" M 91.54 95.93 C 92.75 97.11 93.95 98.32 94.88 99.75 C 92.87 100.84 90.06 97.81 91.54 95.93 Z" />
<path fill="#cba1ef" opacity="1.00" d=" M 95.35 100.39 C 98.87 105.74 103.61 110.77 104.91 117.25 C 101.44 111.93 97.09 106.63 95.35 100.39 Z" />
<path fill="#cba1ef" opacity="1.00" d=" M 91.07 101.92 C 94.17 101.69 94.23 105.22 94.56 107.42 C 93.26 105.68 92.17 103.79 91.07 101.92 Z" />
<path fill="#cba1ef" opacity="1.00" d=" M 110.12 112.20 C 111.25 109.47 112.77 106.91 114.54 104.55 C 114.22 107.46 113.20 111.24 110.12 112.20 Z" />
<path fill="#cba1ef" opacity="1.00" d=" M 94.94 108.00 C 99.84 110.87 102.60 118.64 103.71 124.36 C 100.48 119.08 98.20 113.27 94.94 108.00 Z" />
<path fill="#cba1ef" opacity="1.00" d=" M 170.04 108.02 L 170.98 107.98 C 169.67 110.66 173.76 119.42 167.97 118.02 C 171.33 115.81 169.74 111.35 170.04 108.02 Z" />
<path fill="#cba1ef" opacity="1.00" d=" M 111.26 119.30 C 110.85 117.07 110.88 112.06 114.32 113.24 C 113.32 115.27 112.32 117.30 111.26 119.30 Z" />
<path fill="#cba1ef" opacity="1.00" d=" M 105.14 118.21 C 107.38 119.23 107.63 115.98 108.82 114.76 C 109.72 117.80 105.51 122.95 105.14 118.21 Z" />
<path fill="#cba1ef" opacity="1.00" d=" M 10.66 118.73 C 6.74 115.99 18.69 117.17 20.01 116.95 C 22.68 118.10 30.75 115.73 31.93 119.13 C 24.89 118.29 17.71 117.37 10.66 118.73 Z" />
<path fill="#cba1ef" opacity="1.00" d=" M 183.11 119.21 C 186.46 117.71 197.79 115.07 201.00 117.95 C 195.01 118.09 189.04 118.47 183.11 119.21 Z" />
<path fill="#cba1ef" opacity="1.00" d=" M 49.86 120.05 C 53.56 121.06 57.71 121.61 60.45 124.57 C 56.90 123.26 52.41 123.06 49.86 120.05 Z" />
<path fill="#cba1ef" opacity="1.00" d=" M 41.62 121.45 C 44.03 121.77 48.40 121.02 48.83 124.27 C 46.39 123.43 43.93 122.62 41.62 121.45 Z" />
<path fill="#cba1ef" opacity="1.00" d=" M 153.82 123.42 C 154.82 121.66 156.96 121.38 158.77 121.05 C 158.93 123.27 155.48 123.91 153.82 123.42 Z" />
<path fill="#cba1ef" opacity="1.00" d=" M 163.96 124.05 C 165.14 121.15 168.80 121.71 171.37 121.44 C 169.07 122.73 166.50 123.40 163.96 124.05 Z" />
<path fill="#cba1ef" opacity="1.00" d=" M 11.33 121.69 C 12.87 126.42 13.99 131.27 14.83 136.17 C 11.68 132.44 11.13 126.55 11.33 121.69 Z" />
<path fill="#cba1ef" opacity="1.00" d=" M 106.45 130.14 C 106.55 127.86 106.24 123.28 109.37 123.25 C 108.61 125.58 107.84 127.91 107.09 130.24 L 106.45 130.14 Z" />
<path fill="#cba1ef" opacity="1.00" d=" M 151.91 130.03 C 153.46 126.47 159.32 124.43 163.24 124.27 C 159.62 126.48 155.83 128.39 151.91 130.03 Z" />
<path fill="#cba1ef" opacity="1.00" d=" M 51.61 125.39 C 54.81 125.93 60.14 126.55 61.11 129.95 C 57.88 128.57 54.55 127.36 51.61 125.39 Z" />
<path fill="#cba1ef" opacity="1.00" d=" M 60.99 124.99 C 63.73 126.11 66.95 126.80 68.44 129.65 C 66.11 127.98 61.42 128.11 60.99 124.99 Z" />
<path fill="#cba1ef" opacity="1.00" d=" M 143.42 129.76 C 144.64 127.57 146.85 126.65 149.18 126.11 C 148.79 128.74 145.34 128.63 143.42 129.76 Z" />
<path fill="#cba1ef" opacity="1.00" d=" M 101.01 135.12 C 101.30 132.15 101.94 129.12 103.66 126.62 C 103.36 129.50 103.34 133.09 101.01 135.12 Z" />
<path fill="#cba1ef" opacity="1.00" d=" M 196.11 137.15 C 196.59 134.25 197.15 131.27 198.87 128.81 C 198.43 131.65 198.83 135.40 196.11 137.15 Z" />
<path fill="#cba1ef" opacity="1.00" d=" M 68.98 130.05 C 75.94 133.00 79.82 139.90 84.95 145.09 C 79.62 142.78 76.56 137.50 72.61 133.49 C 71.11 132.64 68.45 132.39 68.98 130.05 Z" />
<path fill="#cba1ef" opacity="1.00" d=" M 140.81 130.92 C 141.30 130.77 142.27 130.46 142.76 130.31 C 143.55 132.08 140.97 134.39 139.24 133.96 C 139.73 132.93 140.45 132.01 140.81 130.92 Z" />
<path fill="#cba1ef" opacity="1.00" d=" M 63.51 131.45 C 66.66 131.30 69.23 132.84 70.03 135.98 C 67.63 134.84 65.50 133.20 63.51 131.45 Z" />
<path fill="#cba1ef" opacity="1.00" d=" M 143.12 135.83 C 141.87 134.13 144.76 131.95 146.14 133.52 C 145.25 134.44 144.28 135.29 143.12 135.83 Z" />
<path fill="#cba1ef" opacity="1.00" d=" M 129.71 141.90 C 131.74 139.11 134.19 136.70 136.95 134.63 C 136.33 137.67 132.74 141.28 129.71 141.90 Z" />
<path fill="#cba1ef" opacity="1.00" d=" M 70.74 136.35 C 74.72 138.22 82.49 143.85 82.87 149.12 C 78.85 144.84 74.60 140.78 70.74 136.35 Z" />
<path fill="#cba1ef" opacity="1.00" d=" M 130.13 148.23 C 132.61 143.54 137.60 138.56 142.44 136.22 C 138.77 140.66 134.71 144.72 130.13 148.23 Z" />
<path fill="#cba1ef" opacity="1.00" d=" M 16.35 139.63 C 18.64 141.83 18.91 145.27 19.94 148.14 C 17.00 146.38 16.95 142.62 16.35 139.63 Z" />
<path fill="#cba1ef" opacity="1.00" d=" M 102.32 148.08 C 101.30 147.16 101.72 141.84 103.26 144.16 C 103.11 145.44 102.97 146.72 102.84 148.01 L 102.32 148.08 Z" />
<path fill="#cba1ef" opacity="1.00" d=" M 127.14 144.05 C 127.49 144.07 128.20 144.12 128.56 144.14 C 129.36 145.32 127.56 147.66 126.18 146.83 C 126.49 145.90 126.81 144.97 127.14 144.05 Z" />
<path fill="#cba1ef" opacity="1.00" d=" M 191.23 148.94 C 191.62 147.14 192.06 145.23 193.57 144.01 C 194.27 145.58 193.48 149.44 191.23 148.94 Z" />
<path fill="#cba1ef" opacity="1.00" d=" M 95.52 162.44 C 99.19 157.94 96.19 150.94 98.68 145.68 C 99.15 151.82 97.81 157.93 97.88 164.09 C 97.19 163.90 94.19 163.46 95.52 162.44 Z" />
<path fill="#cba1ef" opacity="1.00" d=" M 86.31 146.60 C 90.55 150.62 93.41 155.78 95.09 161.35 C 92.38 156.38 87.98 152.07 86.31 146.60 Z" />
<path fill="#cba1ef" opacity="1.00" d=" M 82.87 149.12 C 87.56 150.68 90.20 156.71 90.79 161.15 C 88.24 157.08 85.62 153.06 82.87 149.12 Z" />
<path fill="#cba1ef" opacity="1.00" d=" M 101.36 155.89 C 100.60 153.87 100.42 150.60 101.74 148.98 C 101.65 150.39 101.88 151.75 102.42 153.06 C 102.29 153.73 102.03 155.06 101.90 155.73 L 101.36 155.89 Z" />
<path fill="#cba1ef" opacity="1.00" d=" M 126.60 153.31 C 125.50 151.99 127.15 149.03 128.89 150.11 C 128.44 151.37 127.82 152.63 126.60 153.31 Z" />
<path fill="#cba1ef" opacity="1.00" d=" M 21.31 150.64 C 23.32 152.78 24.60 155.47 26.04 158.01 C 22.72 157.65 21.98 153.36 21.31 150.64 Z" />
<path fill="#cba1ef" opacity="1.00" d=" M 185.99 157.73 C 186.16 156.11 186.93 154.52 188.44 153.78 C 189.22 155.25 187.85 158.23 185.99 157.73 Z" />
<path fill="#cba1ef" opacity="1.00" d=" M 121.65 161.27 C 120.78 159.84 121.73 156.22 123.88 157.12 C 123.39 158.62 122.96 160.25 121.65 161.27 Z" />
<path fill="#cba1ef" opacity="1.00" d=" M 26.41 158.57 C 28.20 160.51 29.87 162.62 30.97 165.04 C 28.03 164.26 26.77 161.36 26.41 158.57 Z" />
<path fill="#cba1ef" opacity="1.00" d=" M 117.20 159.09 C 117.52 159.09 118.15 159.10 118.47 159.11 C 119.04 160.38 118.05 163.44 116.26 162.93 C 116.57 161.65 116.88 160.36 117.20 159.09 Z" />
<path fill="#cba1ef" opacity="1.00" d=" M 180.17 166.18 C 181.35 163.77 182.24 161.04 184.66 159.57 C 183.47 161.85 183.31 165.86 180.17 166.18 Z" />
<path fill="#cba1ef" opacity="1.00" d=" M 90.79 161.15 C 93.61 161.53 93.45 165.17 93.69 167.34 C 92.40 165.44 91.59 163.28 90.79 161.15 Z" />
<path fill="#cba1ef" opacity="1.00" d=" M 100.93 167.78 C 99.14 167.28 99.15 162.71 100.93 162.22 C 101.06 164.07 101.06 165.93 100.93 167.78 Z" />
<path fill="#cba1ef" opacity="1.00" d=" M 31.33 165.76 C 36.18 170.21 41.01 174.71 45.29 179.72 C 39.72 177.67 33.58 170.60 31.33 165.76 Z" />
<path fill="#cba1ef" opacity="1.00" d=" M 116.44 172.40 C 116.36 170.04 116.51 166.87 119.14 165.96 C 118.43 168.18 117.57 170.36 116.44 172.40 Z" />
<path fill="#cba1ef" opacity="1.00" d=" M 167.83 178.91 C 171.43 174.50 175.37 170.42 179.84 166.86 C 176.97 171.02 172.78 177.11 167.83 178.91 Z" />
<path fill="#cba1ef" opacity="1.00" d=" M 94.75 169.16 C 99.37 170.15 97.37 176.97 98.69 180.24 C 97.38 176.54 96.23 172.79 94.75 169.16 Z" />
<path fill="#cba1ef" opacity="1.00" d=" M 111.98 170.94 L 112.54 171.06 C 113.80 172.17 112.97 175.18 111.15 174.81 C 111.32 173.50 111.67 172.22 111.98 170.94 Z" />
<path fill="#cba1ef" opacity="1.00" d=" M 100.93 174.91 L 101.88 175.14 C 102.77 178.75 104.07 182.31 104.08 186.09 C 102.13 183.24 101.34 178.63 100.93 174.91 Z" />
<path fill="#cba1ef" opacity="1.00" d=" M 45.87 180.11 C 48.09 181.54 50.31 182.99 52.39 184.62 C 49.62 184.40 46.15 183.39 45.87 180.11 Z" />
<path fill="#cba1ef" opacity="1.00" d=" M 111.41 188.32 C 111.33 185.45 111.16 181.51 114.00 179.88 C 113.37 182.76 112.56 185.60 111.41 188.32 Z" />
<path fill="#cba1ef" opacity="1.00" d=" M 159.53 184.58 C 161.18 182.36 163.77 181.33 166.12 180.06 C 166.06 183.30 161.85 183.51 159.53 184.58 Z" />
<path fill="#cba1ef" opacity="1.00" d=" M 52.97 185.02 C 55.45 186.55 58.40 187.42 60.38 189.67 C 57.86 188.51 52.90 188.65 52.97 185.02 Z" />
<path fill="#cba1ef" opacity="1.00" d=" M 153.65 188.69 C 155.24 187.19 157.18 186.17 159.00 184.99 C 159.48 188.10 155.78 188.19 153.65 188.69 Z" />
<path fill="#cba1ef" opacity="1.00" d=" M 105.46 192.37 C 106.40 190.58 107.15 188.70 107.93 186.84 C 109.27 189.19 106.60 194.82 105.46 192.37 Z" />
<path fill="#cba1ef" opacity="1.00" d=" M 100.85 190.09 C 103.47 191.75 104.93 206.77 98.83 200.83 C 105.42 202.75 99.66 192.97 100.85 190.09 Z" />
<path fill="#cba1ef" opacity="1.00" d=" M 62.87 191.02 C 65.15 191.55 67.53 192.12 69.27 193.80 C 66.95 193.47 64.05 193.42 62.87 191.02 Z" />
<path fill="#cba1ef" opacity="1.00" d=" M 140.74 194.81 C 143.01 192.57 146.09 191.62 149.14 191.04 C 147.19 193.57 143.71 194.20 140.74 194.81 Z" />
<path fill="#cba1ef" opacity="1.00" d=" M 109.47 199.02 C 108.31 198.17 108.19 194.98 110.07 195.18 C 110.18 196.49 110.03 197.81 109.47 199.02 Z" />
<path fill="#cba1ef" opacity="1.00" d=" M 74.87 196.14 C 78.42 196.74 81.92 197.67 85.38 198.70 C 81.91 198.95 77.29 198.41 74.87 196.14 Z" />
<path fill="#cba1ef" opacity="1.00" d=" M 128.70 198.73 C 131.31 197.31 134.14 196.19 137.14 196.03 C 134.95 198.08 131.66 198.99 128.70 198.73 Z" />
<path fill="#cba1ef" opacity="1.00" d=" M 86.23 198.90 C 87.56 198.82 88.91 198.98 90.11 199.60 C 89.20 200.68 86.02 200.78 86.23 198.90 Z" />
<path fill="#cba1ef" opacity="1.00" d=" M 91.12 199.87 C 93.39 199.76 95.64 200.01 97.87 200.65 C 96.02 201.54 91.86 202.27 91.12 199.87 Z" />
<path fill="#cba1ef" opacity="1.00" d=" M 117.00 200.54 C 118.52 199.90 120.19 199.79 121.81 200.01 C 121.62 201.98 118.17 201.55 117.00 200.54 Z" />
<path fill="#cba1ef" opacity="1.00" d=" M 109.22 201.01 C 111.09 200.93 112.97 200.97 114.84 201.07 C 114.27 202.83 109.70 202.86 109.22 201.01 Z" />
</g>
<g id="#7902ffff">
<path fill="#7902ff" opacity="1.00" d=" M 105.31 41.12 C 109.33 42.87 111.38 47.50 114.67 50.34 L 115.01 50.96 C 117.43 55.73 121.01 59.77 123.57 64.47 C 124.10 65.25 124.57 66.07 125.01 66.91 C 126.17 69.42 127.21 71.99 128.65 74.36 C 129.48 75.86 130.33 77.36 131.01 78.94 C 131.44 80.56 131.95 82.19 132.01 83.87 C 126.22 90.44 118.94 96.04 114.90 103.98 L 114.54 104.55 C 112.77 106.91 111.25 109.47 110.12 112.20 C 109.74 113.08 109.31 113.94 108.82 114.76 C 107.63 115.98 107.38 119.23 105.14 118.21 L 104.91 117.25 C 103.61 110.77 98.87 105.74 95.35 100.39 L 94.88 99.75 C 93.95 98.32 92.75 97.11 91.54 95.93 L 91.14 95.16 C 88.35 90.41 83.33 87.36 79.68 83.27 L 80.21 82.46 C 82.70 79.42 83.66 75.56 84.92 71.93 L 85.21 71.24 C 87.27 67.89 89.16 64.44 91.04 60.99 L 91.41 60.40 C 95.97 53.92 100.54 47.46 105.31 41.12 Z" />
</g>
<g id="#cd03d5ff">
<path fill="#cd03d5" opacity="1.00" d=" M 46.30 72.31 C 46.15 68.36 48.73 67.08 52.16 68.78 C 52.97 69.29 53.74 69.84 54.49 70.44 C 56.68 72.45 59.39 73.70 61.95 75.14 C 63.22 75.99 64.51 76.80 65.86 77.52 C 66.74 78.45 67.72 79.29 68.90 79.81 L 69.59 80.19 C 71.22 81.96 72.62 84.24 75.05 84.99 L 75.79 85.30 C 81.27 90.17 85.50 96.22 90.70 101.34 L 91.07 101.92 C 92.17 103.79 93.26 105.68 94.56 107.42 L 94.94 108.00 C 98.20 113.27 100.48 119.08 103.71 124.36 C 103.70 124.92 103.67 126.05 103.66 126.62 C 101.94 129.12 101.30 132.15 101.01 135.12 C 100.57 138.70 99.67 142.21 98.68 145.68 C 96.19 150.94 99.19 157.94 95.52 162.44 L 95.09 161.35 C 93.41 155.78 90.55 150.62 86.31 146.60 C 85.97 146.23 85.29 145.47 84.95 145.09 C 79.82 139.90 75.94 133.00 68.98 130.05 L 68.44 129.65 C 66.95 126.80 63.73 126.11 60.99 124.99 L 60.45 124.57 C 57.71 121.61 53.56 121.06 49.86 120.05 C 48.89 119.83 48.01 119.43 47.22 118.85 C 45.56 117.70 43.77 116.78 42.13 115.62 C 41.81 104.41 42.84 93.20 44.17 82.08 C 44.80 78.81 45.66 75.58 46.30 72.31 Z" />
</g>
<g id="#5133ffff">
<path fill="#5133ff" opacity="1.00" d=" M 160.20 69.21 C 161.70 68.70 163.21 68.24 164.74 67.82 C 165.06 68.98 165.36 70.14 165.64 71.31 C 166.27 74.27 166.97 77.21 167.66 80.17 C 167.90 81.62 168.39 84.53 168.64 85.98 C 168.74 86.71 168.95 88.18 169.05 88.91 C 168.86 90.60 168.86 92.36 169.57 93.95 L 169.84 94.82 C 169.96 99.21 169.97 103.61 170.04 108.02 C 169.74 111.35 171.33 115.81 167.97 118.02 C 165.03 119.36 161.92 120.35 158.77 121.05 C 156.96 121.38 154.82 121.66 153.82 123.42 C 152.84 125.08 150.87 125.52 149.18 126.11 C 146.85 126.65 144.64 127.57 143.42 129.76 L 142.76 130.31 C 142.27 130.46 141.30 130.77 140.81 130.92 C 138.79 131.12 137.17 132.58 136.95 134.63 C 134.19 136.70 131.74 139.11 129.71 141.90 C 128.42 141.88 127.31 142.74 127.14 144.05 C 126.81 144.97 126.49 145.90 126.18 146.83 C 124.17 149.88 123.01 154.06 119.77 155.95 C 118.04 155.96 117.40 157.63 117.20 159.09 C 116.88 160.36 116.57 161.65 116.26 162.93 C 115.48 164.27 115.70 167.55 114.18 167.68 C 112.11 166.62 111.80 169.56 111.98 170.94 C 111.67 172.22 111.32 173.50 111.15 174.81 C 110.37 178.88 109.19 182.89 107.93 186.84 C 107.15 188.70 106.40 190.58 105.46 192.37 C 104.85 190.31 104.13 188.25 104.08 186.09 C 104.07 182.31 102.77 178.75 101.88 175.14 C 101.96 168.66 101.99 162.20 101.90 155.73 C 102.03 155.06 102.29 153.73 102.42 153.06 C 103.22 151.48 103.30 149.69 102.84 148.01 C 102.97 146.72 103.11 145.44 103.26 144.16 C 104.20 140.89 104.61 137.49 105.64 134.25 C 107.07 133.42 107.21 131.72 107.09 130.24 C 107.84 127.91 108.61 125.58 109.37 123.25 C 109.94 121.90 110.60 120.60 111.26 119.30 C 112.32 117.30 113.32 115.27 114.32 113.24 C 117.06 109.85 119.06 106.02 121.15 102.24 C 123.31 100.01 125.50 97.79 127.31 95.25 C 127.88 94.57 128.45 93.88 129.02 93.20 C 131.46 92.34 133.23 90.45 134.28 88.13 C 134.54 87.89 135.05 87.39 135.31 87.15 C 136.06 86.43 136.79 85.69 137.50 84.93 C 137.93 84.73 138.79 84.32 139.21 84.11 C 141.15 83.79 142.71 82.47 143.17 80.53 C 144.96 79.63 146.66 78.54 148.20 77.25 C 148.94 76.66 149.67 76.06 150.40 75.45 C 152.60 73.93 154.92 72.57 157.14 71.07 C 158.14 70.41 159.15 69.78 160.20 69.21 Z" />
</g>
<g id="#5377ffff">
<path fill="#5377ff" opacity="1.00" d=" M 140.76 81.03 C 141.36 80.91 142.57 80.65 143.17 80.53 C 142.71 82.47 141.15 83.79 139.21 84.11 C 139.49 82.98 140.21 82.04 140.76 81.03 Z" />
<path fill="#5377ff" opacity="1.00" d=" M 129.02 93.20 C 130.34 91.10 132.09 89.31 134.28 88.13 C 133.23 90.45 131.46 92.34 129.02 93.20 Z" />
<path fill="#5377ff" opacity="1.00" d=" M 169.05 88.91 L 169.55 88.92 C 170.64 90.31 170.58 92.53 169.57 93.95 C 168.86 92.36 168.86 90.60 169.05 88.91 Z" />
<path fill="#5377ff" opacity="1.00" d=" M 183.11 119.21 C 189.04 118.47 195.01 118.09 201.00 117.95 C 200.49 121.59 200.91 125.62 198.87 128.81 C 197.15 131.27 196.59 134.25 196.11 137.15 C 195.58 139.51 195.40 142.24 193.57 144.01 C 192.06 145.23 191.62 147.14 191.23 148.94 C 190.71 150.73 190.17 152.79 188.44 153.78 C 186.93 154.52 186.16 156.11 185.99 157.73 C 185.66 158.19 184.99 159.11 184.66 159.57 C 182.24 161.04 181.35 163.77 180.17 166.18 L 179.84 166.86 C 175.37 170.42 171.43 174.50 167.83 178.91 C 167.40 179.20 166.55 179.77 166.12 180.06 C 163.77 181.33 161.18 182.36 159.53 184.58 L 159.00 184.99 C 157.18 186.17 155.24 187.19 153.65 188.69 C 152.41 189.89 150.85 190.76 149.14 191.04 C 146.09 191.62 143.01 192.57 140.74 194.81 C 139.83 195.88 138.42 195.87 137.14 196.03 C 134.14 196.19 131.31 197.31 128.70 198.73 C 126.63 200.03 124.19 200.24 121.81 200.01 C 120.19 199.79 118.52 199.90 117.00 200.54 C 116.46 200.68 115.38 200.94 114.84 201.07 C 112.97 200.97 111.09 200.93 109.22 201.01 C 109.28 200.52 109.41 199.52 109.47 199.02 C 110.03 197.81 110.18 196.49 110.07 195.18 C 110.39 192.87 110.86 190.58 111.41 188.32 C 112.56 185.60 113.37 182.76 114.00 179.88 C 114.63 177.33 115.41 174.81 116.44 172.40 C 117.57 170.36 118.43 168.18 119.14 165.96 C 119.73 164.28 120.53 162.66 121.65 161.27 C 122.96 160.25 123.39 158.62 123.88 157.12 C 124.54 155.70 125.62 154.52 126.60 153.31 C 127.82 152.63 128.44 151.37 128.89 150.11 C 129.20 149.64 129.82 148.70 130.13 148.23 C 134.71 144.72 138.77 140.66 142.44 136.22 L 143.12 135.83 C 144.28 135.29 145.25 134.44 146.14 133.52 C 148.20 132.57 149.92 131.08 151.91 130.03 C 155.83 128.39 159.62 126.48 163.24 124.27 L 163.96 124.05 C 166.50 123.40 169.07 122.73 171.37 121.44 C 175.26 120.57 179.21 120.03 183.11 119.21 Z" />
<path fill="#5377ff" opacity="1.00" d=" M 106.45 130.14 L 107.09 130.24 C 107.21 131.72 107.07 133.42 105.64 134.25 C 104.91 133.01 105.43 131.10 106.45 130.14 Z" />
<path fill="#5377ff" opacity="1.00" d=" M 136.95 134.63 C 137.17 132.58 138.79 131.12 140.81 130.92 C 140.45 132.01 139.73 132.93 139.24 133.96 C 138.66 134.13 137.52 134.46 136.95 134.63 Z" />
<path fill="#5377ff" opacity="1.00" d=" M 127.14 144.05 C 127.31 142.74 128.42 141.88 129.71 141.90 C 129.42 142.46 128.85 143.58 128.56 144.14 C 128.20 144.12 127.49 144.07 127.14 144.05 Z" />
<path fill="#5377ff" opacity="1.00" d=" M 102.32 148.08 L 102.84 148.01 C 103.30 149.69 103.22 151.48 102.42 153.06 C 101.88 151.75 101.65 150.39 101.74 148.98 L 102.32 148.08 Z" />
<path fill="#5377ff" opacity="1.00" d=" M 101.36 155.89 L 101.90 155.73 C 101.99 162.20 101.96 168.66 101.88 175.14 L 100.93 174.91 C 100.93 173.13 100.93 169.57 100.93 167.78 C 101.06 165.93 101.06 164.07 100.93 162.22 C 100.89 160.10 100.88 157.96 101.36 155.89 Z" />
<path fill="#5377ff" opacity="1.00" d=" M 117.20 159.09 C 117.40 157.63 118.04 155.96 119.77 155.95 C 120.39 157.34 119.95 158.40 118.47 159.11 C 118.15 159.10 117.52 159.09 117.20 159.09 Z" />
<path fill="#5377ff" opacity="1.00" d=" M 111.98 170.94 C 111.80 169.56 112.11 166.62 114.18 167.68 C 114.44 169.19 113.89 170.31 112.54 171.06 L 111.98 170.94 Z" />
</g>
<g id="#b80284ff">
<path fill="#b80284" opacity="1.00" d=" M 10.66 118.73 C 17.71 117.37 24.89 118.29 31.93 119.13 C 35.18 119.80 38.44 120.48 41.62 121.45 C 43.93 122.62 46.39 123.43 48.83 124.27 C 49.77 124.61 50.70 124.98 51.61 125.39 C 54.55 127.36 57.88 128.57 61.11 129.95 C 61.97 130.36 62.77 130.85 63.51 131.45 C 65.50 133.20 67.63 134.84 70.03 135.98 L 70.74 136.35 C 74.60 140.78 78.85 144.84 82.87 149.12 C 85.62 153.06 88.24 157.08 90.79 161.15 C 91.59 163.28 92.40 165.44 93.69 167.34 C 93.96 167.80 94.49 168.71 94.75 169.16 C 96.23 172.79 97.38 176.54 98.69 180.24 C 99.14 183.58 99.94 186.85 100.85 190.09 C 99.66 192.97 105.42 202.75 98.83 200.83 L 97.87 200.65 C 95.64 200.01 93.39 199.76 91.12 199.87 L 90.11 199.60 C 88.91 198.98 87.56 198.82 86.23 198.90 L 85.38 198.70 C 81.92 197.67 78.42 196.74 74.87 196.14 C 72.81 195.93 70.84 195.16 69.27 193.80 C 67.53 192.12 65.15 191.55 62.87 191.02 C 61.85 190.90 61.02 190.45 60.38 189.67 C 58.40 187.42 55.45 186.55 52.97 185.02 L 52.39 184.62 C 50.31 182.99 48.09 181.54 45.87 180.11 L 45.29 179.72 C 41.01 174.71 36.18 170.21 31.33 165.76 L 30.97 165.04 C 29.87 162.62 28.20 160.51 26.41 158.57 L 26.04 158.01 C 24.60 155.47 23.32 152.78 21.31 150.64 C 20.58 149.95 20.12 149.12 19.94 148.14 C 18.91 145.27 18.64 141.83 16.35 139.63 C 15.18 138.84 15.04 137.44 14.83 136.17 C 13.99 131.27 12.87 126.42 11.33 121.69 C 11.16 120.95 10.83 119.47 10.66 118.73 Z" />
</g>
</svg>
