<?xml version="1.0" encoding="UTF-8" ?>
<!DOCTYPE svg PUBLIC "-//W3C//DTD SVG 1.1//EN" "http://www.w3.org/Graphics/SVG/1.1/DTD/svg11.dtd">
<svg width="250pt" height="240pt" viewBox="0 0 250 240" version="1.1" xmlns="http://www.w3.org/2000/svg">
<g id="#ffffffff">
<path fill="#ffffff" opacity="1.00" d=" M 0.00 0.00 L 250.00 0.00 L 250.00 240.00 L 0.00 240.00 L 0.00 0.00 M 178.94 4.86 C 170.48 5.18 163.88 14.11 166.29 22.26 C 168.02 30.84 178.75 35.44 186.29 31.22 C 193.06 27.93 195.81 18.77 192.13 12.25 C 189.76 7.37 184.23 4.66 178.94 4.86 M 85.55 27.77 C 81.87 28.72 78.94 32.10 78.66 35.90 C 78.45 40.12 81.62 44.19 85.78 44.98 C 91.88 46.66 98.18 39.85 95.95 33.88 C 94.80 29.52 89.89 26.72 85.55 27.77 M 107.49 30.52 C 103.13 31.84 101.08 37.61 103.51 41.42 C 105.35 44.52 109.52 46.21 112.89 44.61 C 117.40 42.96 119.17 36.73 116.05 33.01 C 114.20 30.20 110.52 29.78 107.49 30.52 M 57.65 31.70 C 53.61 33.30 50.85 37.65 51.35 42.01 C 51.66 47.23 56.65 51.65 61.93 50.83 C 68.61 51.22 73.39 43.14 70.63 37.27 C 68.70 32.21 62.62 29.91 57.65 31.70 M 125.42 37.36 C 121.77 39.30 121.23 45.10 124.54 47.60 C 128.09 50.89 135.17 48.17 134.75 43.05 C 135.58 38.20 129.32 34.71 125.42 37.36 M 182.64 43.88 C 179.71 44.33 176.84 45.64 174.91 47.94 C 170.24 53.00 171.52 62.07 177.48 65.60 C 183.67 69.90 193.06 66.31 195.03 59.11 C 197.78 51.45 190.57 42.93 182.64 43.88 M 140.43 45.63 C 136.53 47.14 136.03 53.34 139.67 55.41 C 143.09 57.79 148.25 55.08 148.29 50.95 C 148.63 46.90 144.06 43.98 140.43 45.63 M 209.38 49.65 C 205.99 51.21 203.64 54.58 203.11 58.25 C 201.64 65.12 207.90 72.43 214.99 71.73 C 222.65 72.10 228.63 63.30 225.78 56.25 C 223.71 49.71 215.42 46.27 209.38 49.65 M 86.53 55.74 C 80.57 59.73 82.77 70.33 89.95 71.43 C 96.57 73.18 102.79 65.63 99.86 59.48 C 97.97 54.22 90.89 52.58 86.53 55.74 M 150.39 56.42 C 147.90 58.05 147.94 62.06 150.33 63.76 C 152.85 65.79 157.36 64.18 157.62 60.81 C 158.47 57.02 153.33 53.72 150.39 56.42 M 62.50 57.74 C 59.20 58.76 56.64 61.60 55.74 64.90 C 54.42 70.01 57.82 75.80 63.01 76.95 C 69.10 78.84 76.11 73.46 75.52 67.02 C 75.69 60.57 68.54 55.62 62.50 57.74 M 107.39 66.91 C 108.81 70.35 112.69 71.72 116.17 71.48 C 118.67 70.07 121.40 68.21 121.70 65.09 C 122.67 60.59 118.61 55.85 113.99 56.35 C 108.88 56.10 104.94 62.43 107.39 66.91 M 126.56 69.04 C 126.19 73.57 131.95 77.04 135.78 74.60 C 138.05 73.64 138.63 71.06 139.48 69.00 C 138.70 66.94 138.07 64.49 135.89 63.46 C 132.04 60.96 126.07 64.42 126.56 69.04 M 35.69 67.85 C 31.96 68.38 28.42 70.51 26.58 73.85 C 23.27 79.75 25.97 88.04 32.37 90.52 C 39.20 93.74 47.99 88.41 48.53 80.94 C 49.61 73.75 42.83 66.98 35.69 67.85 M 144.15 72.16 C 140.67 74.18 140.80 79.93 144.42 81.75 C 147.75 84.04 153.00 81.10 152.63 77.03 C 153.17 72.68 147.62 69.78 144.15 72.16 M 178.52 76.83 C 171.35 77.51 167.27 86.64 171.51 92.44 C 175.44 98.76 186.25 97.92 188.97 90.90 C 192.27 84.12 185.95 75.56 178.52 76.83 M 207.37 81.53 C 200.81 83.61 198.33 92.80 203.28 97.73 C 208.45 104.00 220.47 100.43 220.62 92.03 C 221.82 84.89 214.00 79.06 207.37 81.53 M 95.23 88.20 C 92.85 93.26 96.65 98.93 101.69 100.32 C 102.87 100.30 104.05 100.29 105.23 100.30 C 111.03 98.78 114.30 91.51 110.62 86.49 C 107.04 80.71 97.48 81.86 95.23 88.20 M 123.45 85.57 C 120.39 86.58 118.09 89.74 118.42 93.01 C 118.28 97.22 122.57 100.73 126.65 100.30 C 131.27 99.86 134.84 94.56 133.01 90.16 C 131.78 86.28 127.21 84.37 123.45 85.57 M 73.72 86.73 C 69.92 88.05 67.04 91.89 67.22 95.97 C 66.87 100.34 70.06 104.49 74.17 105.75 C 79.22 107.55 85.37 104.29 86.74 99.11 C 88.31 94.94 86.19 90.01 82.52 87.70 C 79.93 86.03 76.61 86.04 73.72 86.73 M 233.19 90.86 C 228.67 91.84 225.17 96.25 225.44 100.90 C 225.41 106.33 230.61 111.12 236.02 110.61 C 241.39 110.51 246.00 105.29 245.42 99.95 C 245.27 93.95 238.95 89.37 233.19 90.86 M 141.40 92.37 C 137.14 94.47 137.18 101.47 141.50 103.48 C 145.27 105.89 151.01 102.52 150.67 98.04 C 151.19 93.41 145.29 89.78 141.40 92.37 M 46.72 96.89 C 42.84 97.50 39.29 100.11 37.73 103.76 C 35.01 109.69 38.13 117.50 44.39 119.57 C 50.83 122.28 58.79 117.74 60.00 110.92 C 61.91 103.26 54.46 95.44 46.72 96.89 M 163.53 106.55 C 160.73 110.29 161.61 115.99 165.37 118.75 C 167.49 120.74 170.53 120.38 173.21 120.47 C 175.50 119.08 178.04 117.58 178.93 114.88 C 180.71 110.60 178.27 105.50 174.18 103.62 C 170.47 102.52 165.81 103.10 163.53 106.55 M 198.60 107.66 C 193.70 109.25 191.17 115.59 193.82 120.06 C 196.01 124.90 202.94 126.07 206.99 122.93 C 210.72 120.08 211.59 114.16 208.51 110.53 C 206.28 107.47 202.09 106.64 198.60 107.66 M 101.74 115.68 C 96.19 118.11 97.91 127.63 104.08 127.65 C 109.47 128.53 112.98 121.40 109.55 117.45 C 107.81 114.94 104.40 114.90 101.74 115.68 M 14.57 116.66 C 6.75 118.95 2.48 128.64 6.13 135.93 C 9.49 144.14 21.25 146.52 27.80 140.76 C 34.41 135.58 34.37 124.38 27.71 119.25 C 24.18 116.02 19.04 115.73 14.57 116.66 M 225.60 116.76 C 219.28 117.36 215.30 125.45 219.35 130.58 C 222.87 136.22 232.24 135.22 234.64 129.07 C 237.65 123.25 231.88 115.92 225.60 116.76 M 79.49 130.08 C 79.57 133.09 82.52 134.55 84.97 135.49 C 87.95 134.71 91.28 132.49 90.57 128.93 C 90.64 125.82 87.44 124.48 85.01 123.55 C 82.16 124.48 78.93 126.61 79.49 130.08 M 152.11 134.87 C 154.33 138.42 159.59 139.46 162.96 136.93 C 164.99 135.60 165.63 133.13 166.44 131.00 C 165.82 126.89 162.52 122.61 157.93 123.34 C 152.31 123.30 149.36 130.38 152.11 134.87 M 63.72 129.95 C 61.71 131.68 63.04 134.26 63.73 136.28 C 65.62 136.73 67.85 138.11 69.63 136.64 C 72.65 135.05 72.40 130.15 69.46 128.59 C 67.51 128.05 64.91 127.99 63.72 129.95 M 182.47 138.63 C 185.06 144.57 194.78 143.77 196.42 137.51 C 197.82 133.21 194.88 129.29 191.12 127.54 C 185.17 126.49 179.31 133.00 182.47 138.63 M 105.37 133.46 C 100.79 136.07 100.53 143.27 105.02 146.11 C 109.56 149.78 117.25 145.85 116.77 139.99 C 117.33 134.28 109.99 130.24 105.37 133.46 M 206.54 142.79 C 206.40 146.30 207.68 150.31 211.30 151.58 C 215.79 153.91 221.70 149.93 221.69 144.99 C 222.11 140.80 218.22 136.73 213.98 137.17 C 210.38 136.85 207.93 139.87 206.54 142.79 M 138.83 142.01 C 136.83 146.40 141.17 151.65 145.84 150.57 C 148.89 150.23 150.39 147.36 151.37 144.80 C 150.74 143.11 150.47 141.15 149.09 139.86 C 146.18 136.76 140.21 137.91 138.83 142.01 M 63.64 140.76 C 60.79 141.32 58.59 144.01 59.20 146.98 C 59.00 152.14 67.00 153.62 69.30 149.33 C 72.16 145.56 68.08 139.88 63.64 140.76 M 82.41 140.39 C 77.98 142.67 78.37 149.92 83.06 151.65 C 87.20 153.89 92.70 149.64 91.74 145.05 C 91.62 140.67 85.96 138.06 82.41 140.39 M 173.48 142.61 C 168.95 143.96 167.86 150.56 171.52 153.44 C 175.14 156.65 181.83 154.10 181.84 149.09 C 182.48 144.63 177.60 141.02 173.48 142.61 M 111.07 162.92 C 112.13 166.51 115.63 168.38 119.01 169.27 C 122.56 168.73 126.48 167.13 127.62 163.38 C 129.93 158.20 125.82 151.37 120.01 151.50 C 114.02 150.64 108.99 157.37 111.07 162.92 M 158.41 161.57 C 160.96 163.62 164.33 162.21 166.32 160.10 C 166.60 159.29 167.15 157.66 167.43 156.85 C 166.53 153.99 164.37 150.77 160.89 151.51 C 155.93 151.58 154.26 159.15 158.41 161.57 M 196.29 162.79 C 199.93 166.40 206.93 163.11 206.59 158.05 C 206.97 155.06 204.43 153.04 202.17 151.66 C 201.30 151.65 199.56 151.64 198.69 151.63 C 194.07 153.07 192.41 159.68 196.29 162.79 M 59.33 165.81 C 60.36 168.03 62.96 168.55 65.02 169.38 C 67.64 168.39 70.92 166.84 70.87 163.54 C 71.62 159.99 68.74 156.13 65.00 156.39 C 60.29 155.86 56.60 161.86 59.33 165.81 M 87.40 157.49 C 83.38 158.89 81.23 163.97 83.14 167.80 C 84.66 170.96 88.63 173.18 92.06 171.94 C 96.44 170.74 99.09 165.29 96.77 161.23 C 95.20 157.67 90.93 156.49 87.40 157.49 M 181.19 168.70 C 182.62 172.47 188.44 173.00 190.66 169.73 C 192.11 168.09 191.45 165.74 191.58 163.75 C 190.24 162.63 188.98 161.28 187.27 160.73 C 183.15 160.01 178.94 164.82 181.19 168.70 M 171.50 166.52 C 168.23 167.66 167.44 172.59 170.41 174.51 C 173.40 177.13 178.40 173.94 177.64 170.18 C 177.48 167.19 174.15 165.57 171.50 166.52 M 126.67 178.73 C 126.68 179.90 126.68 181.07 126.67 182.24 C 127.79 185.46 129.71 188.70 133.17 189.75 C 139.50 192.65 147.47 186.87 146.72 179.98 C 146.87 173.37 139.07 168.47 133.10 171.12 C 129.68 172.24 127.77 175.50 126.67 178.73 M 67.14 174.26 C 62.97 175.42 60.63 180.67 62.64 184.53 C 63.74 187.64 67.07 188.68 69.98 189.32 C 73.34 188.33 76.99 186.05 76.90 182.09 C 77.79 176.91 71.95 172.32 67.14 174.26 M 95.55 177.34 C 89.97 180.71 90.53 189.80 96.44 192.50 C 102.52 196.07 110.73 189.77 109.08 183.00 C 108.13 177.00 100.48 173.78 95.55 177.34 M 159.02 188.02 C 155.09 188.78 151.65 191.77 150.43 195.60 C 148.20 201.47 151.63 208.72 157.65 210.56 C 163.95 212.91 171.72 208.78 172.94 202.10 C 175.22 194.11 167.05 185.86 159.02 188.02 M 77.50 192.95 C 70.96 194.48 68.93 203.83 74.04 208.05 C 78.74 212.58 87.69 209.62 88.50 203.06 C 89.98 196.92 83.46 190.97 77.50 192.95 M 114.42 195.59 C 108.24 197.43 105.29 205.58 109.20 210.82 C 113.24 217.37 124.49 216.15 126.83 208.73 C 130.14 201.28 122.02 192.88 114.42 195.59 M 191.70 200.81 C 184.75 202.52 180.17 210.07 181.67 217.04 C 182.96 224.77 191.61 230.06 199.07 227.76 C 206.53 225.91 211.34 217.22 208.65 209.94 C 206.66 202.93 198.62 198.86 191.70 200.81 M 89.88 214.88 C 87.83 216.70 87.27 219.47 86.61 222.00 C 87.31 224.50 87.81 227.29 89.91 229.05 C 93.56 232.89 100.37 232.86 104.03 229.05 C 107.26 226.15 107.56 221.00 105.84 217.24 C 104.18 213.82 100.49 212.41 96.99 211.69 C 94.49 212.37 91.71 212.85 89.88 214.88 M 137.71 213.46 C 132.66 215.42 130.24 221.04 130.58 226.20 C 132.06 231.24 136.33 235.88 141.90 235.84 C 149.57 236.64 156.32 228.23 153.76 220.96 C 152.12 214.24 143.91 210.49 137.71 213.46 Z" />
</g>
<g id="#131f37ff">
<path fill="#131f37" opacity="1.00" d=" M 178.94 4.86 C 184.23 4.66 189.76 7.37 192.13 12.25 C 195.81 18.77 193.06 27.93 186.29 31.22 C 178.75 35.44 168.02 30.84 166.29 22.26 C 163.88 14.11 170.48 5.18 178.94 4.86 Z" />
<path fill="#131f37" opacity="1.00" d=" M 85.55 27.77 C 89.89 26.72 94.80 29.52 95.95 33.88 C 98.18 39.85 91.88 46.66 85.78 44.98 C 81.62 44.19 78.45 40.12 78.66 35.90 C 78.94 32.10 81.87 28.72 85.55 27.77 Z" />
<path fill="#131f37" opacity="1.00" d=" M 107.49 30.52 C 110.52 29.78 114.20 30.20 116.05 33.01 C 119.17 36.73 117.40 42.96 112.89 44.61 C 109.52 46.21 105.35 44.52 103.51 41.42 C 101.08 37.61 103.13 31.84 107.49 30.52 Z" />
<path fill="#131f37" opacity="1.00" d=" M 57.65 31.70 C 62.62 29.91 68.70 32.21 70.63 37.27 C 73.39 43.14 68.61 51.22 61.93 50.83 C 56.65 51.65 51.66 47.23 51.35 42.01 C 50.85 37.65 53.61 33.30 57.65 31.70 Z" />
<path fill="#131f37" opacity="1.00" d=" M 125.42 37.36 C 129.32 34.71 135.58 38.20 134.75 43.05 C 135.17 48.17 128.09 50.89 124.54 47.60 C 121.23 45.10 121.77 39.30 125.42 37.36 Z" />
<path fill="#131f37" opacity="1.00" d=" M 182.64 43.88 C 190.57 42.93 197.78 51.45 195.03 59.11 C 193.06 66.31 183.67 69.90 177.48 65.60 C 171.52 62.07 170.24 53.00 174.91 47.94 C 176.84 45.64 179.71 44.33 182.64 43.88 Z" />
<path fill="#131f37" opacity="1.00" d=" M 140.43 45.63 C 144.06 43.98 148.63 46.90 148.29 50.95 C 148.25 55.08 143.09 57.79 139.67 55.41 C 136.03 53.34 136.53 47.14 140.43 45.63 Z" />
<path fill="#131f37" opacity="1.00" d=" M 209.38 49.65 C 215.42 46.27 223.71 49.71 225.78 56.25 C 228.63 63.30 222.65 72.10 214.99 71.73 C 207.90 72.43 201.64 65.12 203.11 58.25 C 203.64 54.58 205.99 51.21 209.38 49.65 Z" />
<path fill="#131f37" opacity="1.00" d=" M 86.53 55.74 C 90.89 52.58 97.97 54.22 99.86 59.48 C 102.79 65.63 96.57 73.18 89.95 71.43 C 82.77 70.33 80.57 59.73 86.53 55.74 Z" />
<path fill="#131f37" opacity="1.00" d=" M 150.39 56.42 C 153.33 53.72 158.47 57.02 157.62 60.81 C 157.36 64.18 152.85 65.79 150.33 63.76 C 147.94 62.06 147.90 58.05 150.39 56.42 Z" />
<path fill="#131f37" opacity="1.00" d=" M 62.50 57.74 C 68.54 55.62 75.69 60.57 75.52 67.02 C 76.11 73.46 69.10 78.84 63.01 76.95 C 57.82 75.80 54.42 70.01 55.74 64.90 C 56.64 61.60 59.20 58.76 62.50 57.74 Z" />
<path fill="#131f37" opacity="1.00" d=" M 107.39 66.91 C 104.94 62.43 108.88 56.10 113.99 56.35 C 118.61 55.85 122.67 60.59 121.70 65.09 C 121.40 68.21 118.67 70.07 116.17 71.48 C 112.69 71.72 108.81 70.35 107.39 66.91 Z" />
<path fill="#131f37" opacity="1.00" d=" M 126.56 69.04 C 126.07 64.42 132.04 60.96 135.89 63.46 C 138.07 64.49 138.70 66.94 139.48 69.00 C 138.63 71.06 138.05 73.64 135.78 74.60 C 131.95 77.04 126.19 73.57 126.56 69.04 Z" />
<path fill="#131f37" opacity="1.00" d=" M 35.69 67.85 C 42.83 66.98 49.61 73.75 48.53 80.94 C 47.99 88.41 39.20 93.74 32.37 90.52 C 25.97 88.04 23.27 79.75 26.58 73.85 C 28.42 70.51 31.96 68.38 35.69 67.85 Z" />
<path fill="#131f37" opacity="1.00" d=" M 144.15 72.16 C 147.62 69.78 153.17 72.68 152.63 77.03 C 153.00 81.10 147.75 84.04 144.42 81.75 C 140.80 79.93 140.67 74.18 144.15 72.16 Z" />
<path fill="#131f37" opacity="1.00" d=" M 178.52 76.83 C 185.95 75.56 192.27 84.12 188.97 90.90 C 186.25 97.92 175.44 98.76 171.51 92.44 C 167.27 86.64 171.35 77.51 178.52 76.83 Z" />
<path fill="#131f37" opacity="1.00" d=" M 207.37 81.53 C 214.00 79.06 221.82 84.89 220.62 92.03 C 220.47 100.43 208.45 104.00 203.28 97.73 C 198.33 92.80 200.81 83.61 207.37 81.53 Z" />
<path fill="#131f37" opacity="1.00" d=" M 95.23 88.20 C 97.48 81.86 107.04 80.71 110.62 86.49 C 114.30 91.51 111.03 98.78 105.23 100.30 C 104.05 100.29 102.87 100.30 101.69 100.32 C 96.65 98.93 92.85 93.26 95.23 88.20 Z" />
<path fill="#131f37" opacity="1.00" d=" M 123.45 85.57 C 127.21 84.37 131.78 86.28 133.01 90.16 C 134.84 94.56 131.27 99.86 126.65 100.30 C 122.57 100.73 118.28 97.22 118.42 93.01 C 118.09 89.74 120.39 86.58 123.45 85.57 Z" />
<path fill="#131f37" opacity="1.00" d=" M 73.72 86.73 C 76.61 86.04 79.93 86.03 82.52 87.70 C 86.19 90.01 88.31 94.94 86.74 99.11 C 85.37 104.29 79.22 107.55 74.17 105.75 C 70.06 104.49 66.87 100.34 67.22 95.97 C 67.04 91.89 69.92 88.05 73.72 86.73 Z" />
<path fill="#131f37" opacity="1.00" d=" M 233.19 90.86 C 238.95 89.37 245.27 93.95 245.42 99.95 C 246.00 105.29 241.39 110.51 236.02 110.61 C 230.61 111.12 225.41 106.33 225.44 100.90 C 225.17 96.25 228.67 91.84 233.19 90.86 Z" />
<path fill="#131f37" opacity="1.00" d=" M 141.40 92.37 C 145.29 89.78 151.19 93.41 150.67 98.04 C 151.01 102.52 145.27 105.89 141.50 103.48 C 137.18 101.47 137.14 94.47 141.40 92.37 Z" />
<path fill="#131f37" opacity="1.00" d=" M 46.72 96.89 C 54.46 95.44 61.91 103.26 60.00 110.92 C 58.79 117.74 50.83 122.28 44.39 119.57 C 38.13 117.50 35.01 109.69 37.73 103.76 C 39.29 100.11 42.84 97.50 46.72 96.89 Z" />
<path fill="#131f37" opacity="1.00" d=" M 163.53 106.55 C 165.81 103.10 170.47 102.52 174.18 103.62 C 178.27 105.50 180.71 110.60 178.93 114.88 C 178.04 117.58 175.50 119.08 173.21 120.47 C 170.53 120.38 167.49 120.74 165.37 118.75 C 161.61 115.99 160.73 110.29 163.53 106.55 Z" />
<path fill="#131f37" opacity="1.00" d=" M 198.60 107.66 C 202.09 106.64 206.28 107.47 208.51 110.53 C 211.59 114.16 210.72 120.08 206.99 122.93 C 202.94 126.07 196.01 124.90 193.82 120.06 C 191.17 115.59 193.70 109.25 198.60 107.66 Z" />
<path fill="#131f37" opacity="1.00" d=" M 101.74 115.68 C 104.40 114.90 107.81 114.94 109.55 117.45 C 112.98 121.40 109.47 128.53 104.08 127.65 C 97.91 127.63 96.19 118.11 101.74 115.68 Z" />
<path fill="#131f37" opacity="1.00" d=" M 14.57 116.66 C 19.04 115.73 24.18 116.02 27.71 119.25 C 34.37 124.38 34.41 135.58 27.80 140.76 C 21.25 146.52 9.49 144.14 6.13 135.93 C 2.48 128.64 6.75 118.95 14.57 116.66 Z" />
<path fill="#131f37" opacity="1.00" d=" M 225.60 116.76 C 231.88 115.92 237.65 123.25 234.64 129.07 C 232.24 135.22 222.87 136.22 219.35 130.58 C 215.30 125.45 219.28 117.36 225.60 116.76 Z" />
<path fill="#131f37" opacity="1.00" d=" M 79.49 130.08 C 78.93 126.61 82.16 124.48 85.01 123.55 C 87.44 124.48 90.64 125.82 90.57 128.93 C 91.28 132.49 87.95 134.71 84.97 135.49 C 82.52 134.55 79.57 133.09 79.49 130.08 Z" />
<path fill="#131f37" opacity="1.00" d=" M 152.11 134.87 C 149.36 130.38 152.31 123.30 157.93 123.34 C 162.52 122.61 165.82 126.89 166.44 131.00 C 165.63 133.13 164.99 135.60 162.96 136.93 C 159.59 139.46 154.33 138.42 152.11 134.87 Z" />
<path fill="#131f37" opacity="1.00" d=" M 63.72 129.95 C 64.91 127.99 67.51 128.05 69.46 128.59 C 72.40 130.15 72.65 135.05 69.63 136.64 C 67.85 138.11 65.62 136.73 63.73 136.28 C 63.04 134.26 61.71 131.68 63.72 129.95 Z" />
<path fill="#131f37" opacity="1.00" d=" M 182.47 138.63 C 179.31 133.00 185.17 126.49 191.12 127.54 C 194.88 129.29 197.82 133.21 196.42 137.51 C 194.78 143.77 185.06 144.57 182.47 138.63 Z" />
<path fill="#131f37" opacity="1.00" d=" M 105.37 133.46 C 109.99 130.24 117.33 134.28 116.77 139.99 C 117.25 145.85 109.56 149.78 105.02 146.11 C 100.53 143.27 100.79 136.07 105.37 133.46 Z" />
<path fill="#131f37" opacity="1.00" d=" M 206.54 142.79 C 207.93 139.87 210.38 136.85 213.98 137.17 C 218.22 136.73 222.11 140.80 221.69 144.99 C 221.70 149.93 215.79 153.91 211.30 151.58 C 207.68 150.31 206.40 146.30 206.54 142.79 Z" />
<path fill="#131f37" opacity="1.00" d=" M 138.83 142.01 C 140.21 137.91 146.18 136.76 149.09 139.86 C 150.47 141.15 150.74 143.11 151.37 144.80 C 150.39 147.36 148.89 150.23 145.84 150.57 C 141.17 151.65 136.83 146.40 138.83 142.01 Z" />
<path fill="#131f37" opacity="1.00" d=" M 63.64 140.76 C 68.08 139.88 72.16 145.56 69.30 149.33 C 67.00 153.62 59.00 152.14 59.20 146.98 C 58.59 144.01 60.79 141.32 63.64 140.76 Z" />
<path fill="#131f37" opacity="1.00" d=" M 82.41 140.39 C 85.96 138.06 91.62 140.67 91.74 145.05 C 92.70 149.64 87.20 153.89 83.06 151.65 C 78.37 149.92 77.98 142.67 82.41 140.39 Z" />
<path fill="#131f37" opacity="1.00" d=" M 173.48 142.61 C 177.60 141.02 182.48 144.63 181.84 149.09 C 181.83 154.10 175.14 156.65 171.52 153.44 C 167.86 150.56 168.95 143.96 173.48 142.61 Z" />
<path fill="#131f37" opacity="1.00" d=" M 111.07 162.92 C 108.99 157.37 114.02 150.64 120.01 151.50 C 125.82 151.37 129.93 158.20 127.62 163.38 C 126.48 167.13 122.56 168.73 119.01 169.27 C 115.63 168.38 112.13 166.51 111.07 162.92 Z" />
<path fill="#131f37" opacity="1.00" d=" M 158.41 161.57 C 154.26 159.15 155.93 151.58 160.89 151.51 C 164.37 150.77 166.53 153.99 167.43 156.85 C 167.15 157.66 166.60 159.29 166.32 160.10 C 164.33 162.21 160.96 163.62 158.41 161.57 Z" />
<path fill="#131f37" opacity="1.00" d=" M 196.29 162.79 C 192.41 159.68 194.07 153.07 198.69 151.63 C 199.56 151.64 201.30 151.65 202.17 151.66 C 204.43 153.04 206.97 155.06 206.59 158.05 C 206.93 163.11 199.93 166.40 196.29 162.79 Z" />
<path fill="#131f37" opacity="1.00" d=" M 59.33 165.81 C 56.60 161.86 60.29 155.86 65.00 156.39 C 68.74 156.13 71.62 159.99 70.87 163.54 C 70.92 166.84 67.64 168.39 65.02 169.38 C 62.96 168.55 60.36 168.03 59.33 165.81 Z" />
<path fill="#131f37" opacity="1.00" d=" M 87.40 157.49 C 90.93 156.49 95.20 157.67 96.77 161.23 C 99.09 165.29 96.44 170.74 92.06 171.94 C 88.63 173.18 84.66 170.96 83.14 167.80 C 81.23 163.97 83.38 158.89 87.40 157.49 Z" />
<path fill="#131f37" opacity="1.00" d=" M 181.19 168.70 C 178.94 164.82 183.15 160.01 187.27 160.73 C 188.98 161.28 190.24 162.63 191.58 163.75 C 191.45 165.74 192.11 168.09 190.66 169.73 C 188.44 173.00 182.62 172.47 181.19 168.70 Z" />
<path fill="#131f37" opacity="1.00" d=" M 171.50 166.52 C 174.15 165.57 177.48 167.19 177.64 170.18 C 178.40 173.94 173.40 177.13 170.41 174.51 C 167.44 172.59 168.23 167.66 171.50 166.52 Z" />
<path fill="#131f37" opacity="1.00" d=" M 126.67 178.73 C 127.77 175.50 129.68 172.24 133.10 171.12 C 139.07 168.47 146.87 173.37 146.72 179.98 C 147.47 186.87 139.50 192.65 133.17 189.75 C 129.71 188.70 127.79 185.46 126.67 182.24 C 126.68 181.07 126.68 179.90 126.67 178.73 Z" />
<path fill="#131f37" opacity="1.00" d=" M 67.14 174.26 C 71.95 172.32 77.79 176.91 76.90 182.09 C 76.99 186.05 73.34 188.33 69.98 189.32 C 67.07 188.68 63.74 187.64 62.64 184.53 C 60.63 180.67 62.97 175.42 67.14 174.26 Z" />
<path fill="#131f37" opacity="1.00" d=" M 95.55 177.34 C 100.48 173.78 108.13 177.00 109.08 183.00 C 110.73 189.77 102.52 196.07 96.44 192.50 C 90.53 189.80 89.97 180.71 95.55 177.34 Z" />
<path fill="#131f37" opacity="1.00" d=" M 159.02 188.02 C 167.05 185.86 175.22 194.11 172.94 202.10 C 171.72 208.78 163.95 212.91 157.65 210.56 C 151.63 208.72 148.20 201.47 150.43 195.60 C 151.65 191.77 155.09 188.78 159.02 188.02 Z" />
<path fill="#131f37" opacity="1.00" d=" M 77.50 192.95 C 83.46 190.97 89.98 196.92 88.50 203.06 C 87.69 209.62 78.74 212.58 74.04 208.05 C 68.93 203.83 70.96 194.48 77.50 192.95 Z" />
<path fill="#131f37" opacity="1.00" d=" M 114.42 195.59 C 122.02 192.88 130.14 201.28 126.83 208.73 C 124.49 216.15 113.24 217.37 109.20 210.82 C 105.29 205.58 108.24 197.43 114.42 195.59 Z" />
<path fill="#131f37" opacity="1.00" d=" M 191.70 200.81 C 198.62 198.86 206.66 202.93 208.65 209.94 C 211.34 217.22 206.53 225.91 199.07 227.76 C 191.61 230.06 182.96 224.77 181.67 217.04 C 180.17 210.07 184.75 202.52 191.70 200.81 Z" />
<path fill="#131f37" opacity="1.00" d=" M 89.88 214.88 C 91.71 212.85 94.49 212.37 96.99 211.69 C 100.49 212.41 104.18 213.82 105.84 217.24 C 107.56 221.00 107.26 226.15 104.03 229.05 C 100.37 232.86 93.56 232.89 89.91 229.05 C 87.81 227.29 87.31 224.50 86.61 222.00 C 87.27 219.47 87.83 216.70 89.88 214.88 Z" />
<path fill="#131f37" opacity="1.00" d=" M 137.71 213.46 C 143.91 210.49 152.12 214.24 153.76 220.96 C 156.32 228.23 149.57 236.64 141.90 235.84 C 136.33 235.88 132.06 231.24 130.58 226.20 C 130.24 221.04 132.66 215.42 137.71 213.46 Z" />
</g>
</svg>
