<?xml version="1.0" encoding="UTF-8" ?>
<!DOCTYPE svg PUBLIC "-//W3C//DTD SVG 1.1//EN" "http://www.w3.org/Graphics/SVG/1.1/DTD/svg11.dtd">
<svg width="250pt" height="250pt" viewBox="0 0 250 250" version="1.1" xmlns="http://www.w3.org/2000/svg">
<g id="#ffffffff">
<path fill="#ffffff" opacity="1.00" d=" M 0.00 0.00 L 108.61 0.00 C 109.45 0.34 110.28 0.70 111.11 1.07 C 102.08 1.20 93.35 3.79 84.77 6.34 C 61.07 14.41 39.89 29.70 24.88 49.75 C 22.41 52.99 20.02 56.30 18.03 59.86 C 16.46 62.41 15.01 65.02 13.78 67.75 C 9.84 74.72 6.86 82.19 4.79 89.92 C 2.83 96.23 1.15 102.65 0.73 109.26 C 0.47 110.96 0.23 112.66 0.00 114.37 L 0.00 0.00 Z" />
<path fill="#ffffff" opacity="1.00" d=" M 135.34 0.00 L 250.00 0.00 L 250.00 114.55 C 249.78 112.77 249.52 111.00 249.28 109.22 C 248.87 102.67 247.20 96.32 245.20 90.09 C 243.22 82.28 240.17 74.78 236.24 67.76 C 234.99 65.05 233.60 62.41 232.03 59.88 C 230.18 56.79 228.12 53.83 225.97 50.94 C 210.71 29.94 188.66 14.03 164.02 5.93 C 154.69 2.98 145.05 1.14 135.34 0.00 Z" />
<path fill="#ffffff" opacity="1.00" d=" M 0.00 132.41 C 1.26 153.14 7.57 173.59 18.67 191.18 C 27.13 204.77 38.19 216.83 51.24 226.13 C 63.70 235.37 77.97 242.15 92.97 246.10 C 97.44 247.67 101.97 249.13 106.65 250.00 L 0.00 250.00 L 0.00 132.41 Z" />
<path fill="#ffffff" opacity="1.00" d=" M 217.13 209.83 C 236.06 189.57 247.41 162.85 250.00 135.33 L 250.00 250.00 L 142.97 250.00 C 143.59 249.63 144.85 248.90 145.47 248.54 C 164.58 245.34 182.97 237.82 198.59 226.32 C 205.36 221.54 211.49 215.89 217.13 209.83 Z" />
</g>
<g id="#b10b0bff">
<path fill="#b10b0b" opacity="1.00" d=" M 108.61 0.00 L 135.34 0.00 C 145.05 1.14 154.69 2.98 164.02 5.93 C 163.07 6.57 162.13 7.20 161.18 7.82 C 164.14 9.40 167.03 11.15 169.60 13.33 C 167.52 13.43 165.41 13.29 163.42 12.63 C 150.70 8.52 137.41 5.66 123.97 6.11 C 111.17 6.21 98.79 9.72 86.32 12.18 C 87.63 10.70 88.94 9.23 90.24 7.75 C 88.42 7.27 86.61 6.73 84.77 6.34 C 93.35 3.79 102.08 1.20 111.11 1.07 C 110.28 0.70 109.45 0.34 108.61 0.00 Z" />
</g>
<g id="#a20909ff">
<path fill="#a20909" opacity="1.00" d=" M 86.32 12.18 C 98.79 9.72 111.17 6.21 123.97 6.11 C 137.41 5.66 150.70 8.52 163.42 12.63 C 165.41 13.29 167.52 13.43 169.60 13.33 C 167.03 11.15 164.14 9.40 161.18 7.82 C 162.13 7.20 163.07 6.57 164.02 5.93 C 188.66 14.03 210.71 29.94 225.97 50.94 C 227.34 57.10 227.84 63.45 229.57 69.52 C 231.81 74.57 234.00 79.67 236.39 84.66 C 236.28 85.28 236.06 86.50 235.94 87.11 C 232.53 81.35 230.29 75.00 226.98 69.18 C 219.46 56.15 209.50 44.57 198.00 34.90 C 178.81 19.99 155.39 8.80 130.69 8.82 C 127.82 8.74 124.95 8.77 122.09 8.82 C 121.39 8.84 119.99 8.87 119.29 8.88 C 109.23 8.21 99.40 10.88 89.86 13.74 C 83.99 15.50 78.54 18.34 73.10 21.10 C 54.40 30.27 38.85 45.07 27.09 62.12 C 21.78 69.61 18.44 78.21 14.10 86.24 C 13.95 85.82 13.66 84.96 13.52 84.53 C 16.05 77.27 21.21 70.84 21.60 62.94 C 22.07 58.41 23.41 54.03 24.88 49.75 C 39.89 29.70 61.07 14.41 84.77 6.34 C 86.61 6.73 88.42 7.27 90.24 7.75 C 88.94 9.23 87.63 10.70 86.32 12.18 Z" />
</g>
<g id="#aa3738ff">
<path fill="#aa3738" opacity="1.00" d=" M 89.86 13.74 C 99.40 10.88 109.23 8.21 119.29 8.88 C 106.86 11.04 94.28 13.35 82.73 18.64 C 78.06 20.79 73.39 22.93 68.91 25.46 C 58.44 31.45 48.89 39.01 40.94 48.10 C 30.07 59.79 21.46 73.60 15.97 88.60 C 15.11 91.01 14.30 93.44 13.60 95.90 C 13.08 97.67 12.54 99.44 12.07 101.24 C 11.70 102.64 11.37 104.04 11.07 105.46 C 10.14 103.97 9.22 102.47 8.32 100.96 C 10.15 95.25 11.55 89.41 13.28 83.66 L 13.52 84.53 C 13.66 84.96 13.95 85.82 14.10 86.24 C 18.44 78.21 21.78 69.61 27.09 62.12 C 38.85 45.07 54.40 30.27 73.10 21.10 C 78.54 18.34 83.99 15.50 89.86 13.74 Z" />
</g>
<g id="#cc1414ff">
<path fill="#cc1414" opacity="1.00" d=" M 119.29 8.88 C 119.99 8.87 121.39 8.84 122.09 8.82 C 122.61 10.29 123.14 11.75 123.70 13.21 C 121.78 14.80 119.37 15.43 117.05 16.16 C 114.82 16.95 113.68 20.02 111.05 19.71 C 107.58 19.44 105.06 16.69 102.33 14.84 C 101.94 15.75 101.61 16.69 101.30 17.64 C 103.42 20.83 106.85 23.18 108.06 26.94 C 107.50 27.99 106.35 28.51 105.51 29.30 C 103.90 27.77 102.15 26.40 100.50 24.92 C 98.76 27.75 96.65 30.32 94.14 32.49 C 98.55 36.98 104.43 39.42 110.14 41.76 C 121.68 46.49 135.34 46.30 146.50 40.60 C 151.10 38.52 155.90 36.55 159.45 32.83 C 156.89 30.60 154.78 27.92 153.11 24.98 C 151.66 26.31 150.28 27.72 148.82 29.05 C 147.77 28.32 146.71 27.61 145.64 26.92 C 147.59 23.88 150.07 21.22 152.01 18.18 C 152.86 17.03 151.70 15.83 151.33 14.74 C 149.00 16.37 146.93 18.53 144.21 19.50 C 141.94 20.17 139.76 18.92 138.35 17.20 C 141.00 14.62 144.65 14.19 148.17 14.27 C 147.46 13.49 146.74 12.71 146.02 11.94 C 174.83 18.35 201.25 35.47 218.21 59.71 C 228.60 73.77 235.60 90.20 239.03 107.32 C 240.35 117.92 240.06 128.59 240.46 139.23 C 239.98 143.25 239.35 147.25 238.47 151.20 C 237.97 150.10 237.47 149.00 236.98 147.90 C 236.51 147.72 235.59 147.37 235.13 147.19 C 232.53 150.59 230.16 154.17 227.35 157.40 C 227.67 152.95 230.39 149.24 231.89 145.15 C 231.38 144.82 230.36 144.15 229.86 143.82 C 226.16 148.00 224.05 153.36 219.92 157.18 C 220.62 152.49 223.30 148.56 225.30 144.38 C 226.33 142.94 224.73 141.64 224.13 140.41 C 221.19 144.16 219.28 148.59 216.29 152.31 C 215.91 149.68 215.50 147.04 214.99 144.43 C 212.95 147.24 211.57 150.44 210.54 153.73 C 209.78 153.36 209.03 152.98 208.28 152.61 C 208.54 150.53 208.87 148.45 209.15 146.36 C 209.94 139.97 209.58 133.50 209.55 127.07 C 209.89 124.51 207.27 123.51 205.33 122.85 C 204.16 125.60 203.75 128.57 203.48 131.53 C 198.95 131.53 194.41 131.53 189.87 131.53 C 189.34 104.39 189.81 77.23 189.64 50.09 C 181.73 49.88 173.97 51.98 166.06 51.46 C 165.45 50.69 164.81 49.96 164.13 49.25 C 159.68 51.19 155.66 54.20 150.79 55.05 C 151.41 53.66 151.95 52.18 153.00 51.03 C 160.13 43.46 168.33 36.96 175.27 29.20 C 168.77 32.52 163.22 37.36 156.80 40.80 C 145.70 47.09 132.68 51.54 119.81 49.29 C 111.52 48.07 103.71 44.72 96.54 40.49 C 90.62 37.08 85.37 32.57 79.02 29.92 C 84.67 35.95 91.42 40.85 96.73 47.21 C 98.87 49.84 102.21 51.60 103.23 55.03 C 98.20 54.65 94.73 50.48 90.02 49.30 C 88.69 50.06 87.82 51.39 86.80 52.50 C 78.16 51.22 69.44 50.28 60.69 50.07 C 60.56 77.22 60.68 104.38 60.64 131.53 C 57.19 131.52 53.75 131.53 50.31 131.54 C 50.24 130.95 50.12 129.76 50.05 129.17 C 51.84 127.52 55.35 126.30 54.89 123.37 C 52.09 120.31 48.21 118.56 45.10 115.85 C 40.04 111.57 36.94 105.41 31.55 101.46 C 26.17 97.41 21.18 92.88 15.97 88.60 C 21.46 73.60 30.07 59.79 40.94 48.10 C 43.61 49.45 46.13 51.69 49.30 51.47 C 51.92 51.32 54.83 52.29 57.16 50.68 C 60.24 48.70 61.85 45.22 63.63 42.15 C 65.17 39.69 64.66 36.72 64.48 33.99 C 66.60 36.43 68.86 38.76 71.15 41.04 C 71.45 40.76 72.05 40.20 72.35 39.92 C 72.14 38.51 71.93 37.09 71.72 35.67 C 74.04 37.89 76.38 40.09 78.86 42.13 C 78.33 38.46 76.04 35.49 74.00 32.53 C 75.30 32.52 76.61 32.53 77.92 32.53 C 75.02 30.05 72.02 27.67 68.91 25.46 C 73.39 22.93 78.06 20.79 82.73 18.64 C 94.28 13.35 106.86 11.04 119.29 8.88 Z" />
</g>
<g id="#bc1414ff">
<path fill="#bc1414" opacity="1.00" d=" M 122.09 8.82 C 124.95 8.77 127.82 8.74 130.69 8.82 C 135.78 9.92 140.91 10.87 146.02 11.94 C 146.74 12.71 147.46 13.49 148.17 14.27 C 144.65 14.19 141.00 14.62 138.35 17.20 C 139.76 18.92 141.94 20.17 144.21 19.50 C 146.93 18.53 149.00 16.37 151.33 14.74 C 151.70 15.83 152.86 17.03 152.01 18.18 C 150.07 21.22 147.59 23.88 145.64 26.92 C 146.71 27.61 147.77 28.32 148.82 29.05 C 150.28 27.72 151.66 26.31 153.11 24.98 C 154.78 27.92 156.89 30.60 159.45 32.83 C 155.90 36.55 151.10 38.52 146.50 40.60 C 135.34 46.30 121.68 46.49 110.14 41.76 C 104.43 39.42 98.55 36.98 94.14 32.49 C 96.65 30.32 98.76 27.75 100.50 24.92 C 102.15 26.40 103.90 27.77 105.51 29.30 C 106.35 28.51 107.50 27.99 108.06 26.94 C 106.85 23.18 103.42 20.83 101.30 17.64 C 101.61 16.69 101.94 15.75 102.33 14.84 C 105.06 16.69 107.58 19.44 111.05 19.71 C 113.68 20.02 114.82 16.95 117.05 16.16 C 119.37 15.43 121.78 14.80 123.70 13.21 C 123.14 11.75 122.61 10.29 122.09 8.82 Z" />
</g>
<g id="#b03736ff">
<path fill="#b03736" opacity="1.00" d=" M 130.69 8.82 C 155.39 8.80 178.81 19.99 198.00 34.90 C 209.50 44.57 219.46 56.15 226.98 69.18 C 230.29 75.00 232.53 81.35 235.94 87.11 C 236.06 86.50 236.28 85.28 236.39 84.66 L 236.85 85.44 C 238.82 90.73 240.12 96.29 240.84 101.89 C 240.28 103.71 239.61 105.50 239.03 107.32 C 235.60 90.20 228.60 73.77 218.21 59.71 C 201.25 35.47 174.83 18.35 146.02 11.94 C 140.91 10.87 135.78 9.92 130.69 8.82 Z" />
</g>
<g id="#db1514ff">
<path fill="#db1514" opacity="1.00" d=" M 40.94 48.10 C 48.89 39.01 58.44 31.45 68.91 25.46 C 72.02 27.67 75.02 30.05 77.92 32.53 C 76.61 32.53 75.30 32.52 74.00 32.53 C 76.04 35.49 78.33 38.46 78.86 42.13 C 76.38 40.09 74.04 37.89 71.72 35.67 C 71.93 37.09 72.14 38.51 72.35 39.92 C 72.05 40.20 71.45 40.76 71.15 41.04 C 68.86 38.76 66.60 36.43 64.48 33.99 C 64.66 36.72 65.17 39.69 63.63 42.15 C 61.85 45.22 60.24 48.70 57.16 50.68 C 54.83 52.29 51.92 51.32 49.30 51.47 C 46.13 51.69 43.61 49.45 40.94 48.10 Z" />
</g>
<g id="#bf1414ff">
<path fill="#bf1414" opacity="1.00" d=" M 156.80 40.80 C 163.22 37.36 168.77 32.52 175.27 29.20 C 168.33 36.96 160.13 43.46 153.00 51.03 C 151.95 52.18 151.41 53.66 150.79 55.05 C 155.66 54.20 159.68 51.19 164.13 49.25 C 164.81 49.96 165.45 50.69 166.06 51.46 C 162.23 54.35 160.17 58.76 157.67 62.71 C 148.24 77.62 138.82 92.54 129.49 107.52 C 128.22 109.56 126.77 111.47 125.27 113.35 C 112.22 93.22 99.61 72.79 86.80 52.50 C 87.82 51.39 88.69 50.06 90.02 49.30 C 94.73 50.48 98.20 54.65 103.23 55.03 C 102.21 51.60 98.87 49.84 96.73 47.21 C 91.42 40.85 84.67 35.95 79.02 29.92 C 85.37 32.57 90.62 37.08 96.54 40.49 C 103.71 44.72 111.52 48.07 119.81 49.29 C 132.68 51.54 145.70 47.09 156.80 40.80 Z" />
<path fill="#bf1414" opacity="1.00" d=" M 189.69 138.52 C 194.34 138.32 198.99 138.32 203.64 138.57 C 203.74 141.72 203.74 145.05 205.73 147.69 C 206.87 147.26 208.01 146.82 209.15 146.36 C 208.87 148.45 208.54 150.53 208.28 152.61 C 209.03 152.98 209.78 153.36 210.54 153.73 C 211.57 150.44 212.95 147.24 214.99 144.43 C 215.50 147.04 215.91 149.68 216.29 152.31 C 219.28 148.59 221.19 144.16 224.13 140.41 C 224.73 141.64 226.33 142.94 225.30 144.38 C 223.30 148.56 220.62 152.49 219.92 157.18 C 224.05 153.36 226.16 148.00 229.86 143.82 C 230.36 144.15 231.38 144.82 231.89 145.15 C 230.39 149.24 227.67 152.95 227.35 157.40 C 230.16 154.17 232.53 150.59 235.13 147.19 C 235.59 147.37 236.51 147.72 236.98 147.90 C 237.47 149.00 237.97 150.10 238.47 151.20 C 237.97 153.37 237.34 155.51 236.70 157.64 C 235.22 158.49 234.00 159.75 233.37 161.35 C 230.48 167.55 228.24 174.04 225.13 180.14 C 214.53 172.04 202.40 165.83 189.67 161.86 C 189.65 154.08 189.59 146.30 189.69 138.52 Z" />
</g>
<g id="#d03434ff">
<path fill="#d03434" opacity="1.00" d=" M 18.03 59.86 C 20.02 56.30 22.41 52.99 24.88 49.75 C 23.41 54.03 22.07 58.41 21.60 62.94 C 21.21 70.84 16.05 77.27 13.52 84.53 L 13.28 83.66 C 13.98 75.52 18.58 68.18 18.03 59.86 Z" />
</g>
<g id="#e6e6e6ff">
<path fill="#e6e6e6" opacity="1.00" d=" M 60.69 50.07 C 69.44 50.28 78.16 51.22 86.80 52.50 C 99.61 72.79 112.22 93.22 125.27 113.35 C 126.77 111.47 128.22 109.56 129.49 107.52 C 138.82 92.54 148.24 77.62 157.67 62.71 C 160.17 58.76 162.23 54.35 166.06 51.46 C 173.97 51.98 181.73 49.88 189.64 50.09 C 189.81 77.23 189.34 104.39 189.87 131.53 C 194.41 131.53 198.95 131.53 203.48 131.53 C 203.75 128.57 204.16 125.60 205.33 122.85 C 207.27 123.51 209.89 124.51 209.55 127.07 C 209.58 133.50 209.94 139.97 209.15 146.36 C 208.01 146.82 206.87 147.26 205.73 147.69 C 203.74 145.05 203.74 141.72 203.64 138.57 C 198.99 138.32 194.34 138.32 189.69 138.52 C 189.59 146.30 189.65 154.08 189.67 161.86 C 189.63 174.32 189.67 186.77 189.66 199.22 C 181.54 199.60 173.40 199.54 165.28 199.26 C 165.21 183.88 165.28 168.49 165.25 153.10 C 165.27 148.24 165.28 143.38 165.21 138.52 C 156.18 138.35 147.14 138.28 138.12 138.55 C 136.71 140.95 135.26 143.34 133.75 145.69 C 128.23 145.77 122.70 145.75 117.18 145.71 C 115.70 143.45 114.34 141.11 112.97 138.78 C 110.47 137.65 107.70 137.61 105.00 137.65 C 98.38 137.79 91.75 137.55 85.14 137.97 C 84.90 157.50 85.61 177.06 84.86 196.58 C 77.13 197.42 69.42 198.56 61.67 199.23 C 61.19 178.89 61.54 158.53 61.54 138.18 C 57.74 137.73 53.90 137.54 50.09 137.86 L 49.99 138.86 C 49.52 141.94 50.73 146.34 47.00 147.74 C 45.92 147.02 44.40 146.29 44.41 144.76 C 44.05 138.87 44.23 132.95 44.30 127.06 C 44.16 125.21 45.67 123.02 47.68 123.27 C 49.86 124.41 49.69 127.08 50.05 129.17 C 50.12 129.76 50.24 130.95 50.31 131.54 C 53.75 131.53 57.19 131.52 60.64 131.53 C 60.68 104.38 60.56 77.22 60.69 50.07 M 85.29 92.87 C 85.45 105.76 85.39 118.65 85.33 131.54 C 92.92 131.46 100.51 131.59 108.10 131.47 C 105.92 126.37 102.59 121.90 99.89 117.08 C 95.01 109.02 90.33 100.84 85.29 92.87 M 157.73 105.76 C 152.47 114.30 147.62 123.08 142.16 131.49 C 149.77 131.56 157.38 131.47 164.99 131.55 C 165.45 119.18 165.39 106.76 165.02 94.38 C 162.09 97.83 160.08 101.92 157.73 105.76 Z" />
</g>
<g id="#d23535ff">
<path fill="#d23535" opacity="1.00" d=" M 225.97 50.94 C 228.12 53.83 230.18 56.79 232.03 59.88 C 231.04 68.80 236.16 76.71 236.85 85.44 L 236.39 84.66 C 234.00 79.67 231.81 74.57 229.57 69.52 C 227.84 63.45 227.34 57.10 225.97 50.94 Z" />
</g>
<g id="#e16766ff">
<path fill="#e16766" opacity="1.00" d=" M 13.78 67.75 C 15.01 65.02 16.46 62.41 18.03 59.86 C 18.58 68.18 13.98 75.52 13.28 83.66 C 11.55 89.41 10.15 95.25 8.32 100.96 C 7.80 102.39 7.23 103.81 6.64 105.22 C 5.82 102.40 5.05 99.57 4.25 96.75 C 3.67 98.59 3.15 100.45 2.74 102.33 C 2.13 104.66 1.43 106.96 0.73 109.26 C 1.15 102.65 2.83 96.23 4.79 89.92 C 6.12 89.83 7.45 89.74 8.78 89.63 C 11.45 82.62 13.60 75.30 13.78 67.75 Z" />
</g>
<g id="#de6868ff">
<path fill="#de6868" opacity="1.00" d=" M 232.03 59.88 C 233.60 62.41 234.99 65.05 236.24 67.76 C 236.46 73.82 237.15 79.98 239.46 85.64 C 240.35 88.11 243.12 88.91 245.20 90.09 C 247.20 96.32 248.87 102.67 249.28 109.22 C 248.57 106.90 247.73 104.62 247.07 102.28 C 246.84 100.74 246.65 99.19 246.49 97.64 C 246.04 97.56 245.15 97.41 244.70 97.33 C 244.14 99.14 243.62 100.95 243.08 102.76 C 242.52 102.54 241.40 102.11 240.84 101.89 C 240.12 96.29 238.82 90.73 236.85 85.44 C 236.16 76.71 231.04 68.80 232.03 59.88 Z" />
</g>
<g id="#ec8686ff">
<path fill="#ec8686" opacity="1.00" d=" M 4.79 89.92 C 6.86 82.19 9.84 74.72 13.78 67.75 C 13.60 75.30 11.45 82.62 8.78 89.63 C 7.45 89.74 6.12 89.83 4.79 89.92 Z" />
<path fill="#ec8686" opacity="1.00" d=" M 240.46 139.23 C 240.80 137.78 241.22 136.35 241.63 134.93 C 241.78 138.33 241.94 141.73 241.86 145.13 C 240.46 153.46 238.15 161.64 234.70 169.36 C 234.81 165.38 235.59 161.46 236.70 157.64 C 237.34 155.51 237.97 153.37 238.47 151.20 C 239.35 147.25 239.98 143.25 240.46 139.23 Z" />
</g>
<g id="#ed8787ff">
<path fill="#ed8787" opacity="1.00" d=" M 236.24 67.76 C 240.17 74.78 243.22 82.28 245.20 90.09 C 243.12 88.91 240.35 88.11 239.46 85.64 C 237.15 79.98 236.46 73.82 236.24 67.76 Z" />
</g>
<g id="#c21414ff">
<path fill="#c21414" opacity="1.00" d=" M 13.60 95.90 C 14.30 93.44 15.11 91.01 15.97 88.60 C 21.18 92.88 26.17 97.41 31.55 101.46 C 36.94 105.41 40.04 111.57 45.10 115.85 C 48.21 118.56 52.09 120.31 54.89 123.37 C 55.35 126.30 51.84 127.52 50.05 129.17 C 49.69 127.08 49.86 124.41 47.68 123.27 C 45.67 123.02 44.16 125.21 44.30 127.06 C 44.23 132.95 44.05 138.87 44.41 144.76 C 44.40 146.29 45.92 147.02 47.00 147.74 C 50.73 146.34 49.52 141.94 49.99 138.86 C 53.38 138.75 56.77 138.75 60.17 138.82 C 60.52 147.11 60.27 155.41 60.23 163.71 C 50.15 166.98 40.99 172.50 31.94 177.91 C 29.46 179.21 27.68 181.40 26.43 183.85 C 22.06 177.45 21.21 168.90 15.17 163.68 C 11.20 154.51 9.91 144.46 8.83 134.61 C 9.24 124.87 9.61 115.12 11.07 105.46 C 11.37 104.04 11.70 102.64 12.07 101.24 C 15.28 104.00 16.86 108.13 20.03 110.93 C 22.45 113.06 24.30 115.73 25.54 118.71 C 26.31 113.62 29.51 109.56 32.12 105.30 C 29.31 104.59 26.51 103.87 23.69 103.24 C 23.22 100.57 22.66 97.92 22.20 95.25 C 19.49 95.76 16.85 96.60 14.19 97.35 C 14.05 96.99 13.75 96.26 13.60 95.90 Z" />
</g>
<g id="#cb1515ff">
<path fill="#cb1515" opacity="1.00" d=" M 85.29 92.87 C 90.33 100.84 95.01 109.02 99.89 117.08 C 102.59 121.90 105.92 126.37 108.10 131.47 C 100.51 131.59 92.92 131.46 85.33 131.54 C 85.39 118.65 85.45 105.76 85.29 92.87 Z" />
</g>
<g id="#d21514ff">
<path fill="#d21514" opacity="1.00" d=" M 14.19 97.35 C 16.85 96.60 19.49 95.76 22.20 95.25 C 22.66 97.92 23.22 100.57 23.69 103.24 C 26.51 103.87 29.31 104.59 32.12 105.30 C 29.51 109.56 26.31 113.62 25.54 118.71 C 24.30 115.73 22.45 113.06 20.03 110.93 C 16.86 108.13 15.28 104.00 12.07 101.24 C 12.54 99.44 13.08 97.67 13.60 95.90 C 13.75 96.26 14.05 96.99 14.19 97.35 Z" />
</g>
<g id="#ca1515ff">
<path fill="#ca1515" opacity="1.00" d=" M 157.73 105.76 C 160.08 101.92 162.09 97.83 165.02 94.38 C 165.39 106.76 165.45 119.18 164.99 131.55 C 157.38 131.47 149.77 131.56 142.16 131.49 C 147.62 123.08 152.47 114.30 157.73 105.76 Z" />
</g>
<g id="#c62a2aff">
<path fill="#c62a2a" opacity="1.00" d=" M 2.74 102.33 C 3.15 100.45 3.67 98.59 4.25 96.75 C 5.05 99.57 5.82 102.40 6.64 105.22 C 7.23 103.81 7.80 102.39 8.32 100.96 C 9.22 102.47 10.14 103.97 11.07 105.46 C 9.61 115.12 9.24 124.87 8.83 134.61 C 8.16 135.86 7.45 137.08 6.76 138.31 C 6.03 133.97 5.32 129.62 4.82 125.24 C 4.85 117.56 5.30 109.72 2.74 102.33 Z" />
</g>
<g id="#bf2b2bff">
<path fill="#bf2b2b" opacity="1.00" d=" M 244.70 97.33 C 245.15 97.41 246.04 97.56 246.49 97.64 C 246.65 99.19 246.84 100.74 247.07 102.28 C 243.86 107.61 245.48 114.08 245.02 119.95 C 244.87 128.43 243.18 136.78 241.86 145.13 C 241.94 141.73 241.78 138.33 241.63 134.93 C 241.22 136.35 240.80 137.78 240.46 139.23 C 240.06 128.59 240.35 117.92 239.03 107.32 C 239.61 105.50 240.28 103.71 240.84 101.89 C 241.40 102.11 242.52 102.54 243.08 102.76 C 243.62 100.95 244.14 99.14 244.70 97.33 Z" />
</g>
<g id="#bf0b0bff">
<path fill="#bf0b0b" opacity="1.00" d=" M 0.73 109.26 C 1.43 106.96 2.13 104.66 2.74 102.33 C 5.30 109.72 4.85 117.56 4.82 125.24 C 4.19 121.78 2.46 118.65 0.00 116.15 L 0.00 114.37 C 0.23 112.66 0.47 110.96 0.73 109.26 Z" />
</g>
<g id="#b00a0bff">
<path fill="#b00a0b" opacity="1.00" d=" M 245.02 119.95 C 245.48 114.08 243.86 107.61 247.07 102.28 C 247.73 104.62 248.57 106.90 249.28 109.22 C 249.52 111.00 249.78 112.77 250.00 114.55 L 250.00 118.25 C 248.34 118.83 246.67 119.37 245.02 119.95 Z" />
</g>
<g id="#8f0807ff">
<path fill="#8f0807" opacity="1.00" d=" M 0.00 116.15 C 2.46 118.65 4.19 121.78 4.82 125.24 C 5.32 129.62 6.03 133.97 6.76 138.31 C 8.04 149.33 10.71 160.15 15.27 170.29 C 17.67 178.14 22.43 184.99 25.02 192.78 C 22.91 192.22 20.78 191.74 18.67 191.18 C 7.57 173.59 1.26 153.14 0.00 132.41 L 0.00 116.15 Z" />
</g>
<g id="#940807ff">
<path fill="#940807" opacity="1.00" d=" M 245.02 119.95 C 246.67 119.37 248.34 118.83 250.00 118.25 L 250.00 135.33 C 247.41 162.85 236.06 189.57 217.13 209.83 C 214.58 207.21 212.24 204.39 209.79 201.67 C 212.63 198.24 215.44 194.78 218.29 191.35 C 218.75 193.13 219.16 194.92 219.54 196.72 C 226.42 188.78 231.47 179.34 234.70 169.36 C 238.15 161.64 240.46 153.46 241.86 145.13 C 243.18 136.78 244.87 128.43 245.02 119.95 Z" />
</g>
<g id="#ea7171ff">
<path fill="#ea7171" opacity="1.00" d=" M 6.76 138.31 C 7.45 137.08 8.16 135.86 8.83 134.61 C 9.91 144.46 11.20 154.51 15.17 163.68 C 15.26 165.88 15.21 168.09 15.27 170.29 C 10.71 160.15 8.04 149.33 6.76 138.31 Z" />
</g>
<g id="#ce8180ff">
<path fill="#ce8180" opacity="1.00" d=" M 50.09 137.86 C 53.90 137.54 57.74 137.73 61.54 138.18 C 61.54 158.53 61.19 178.89 61.67 199.23 C 69.42 198.56 77.13 197.42 84.86 196.58 C 85.61 177.06 84.90 157.50 85.14 137.97 C 91.75 137.55 98.38 137.79 105.00 137.65 C 107.70 137.61 110.47 137.65 112.97 138.78 C 103.91 138.78 94.84 138.53 85.78 138.88 C 85.58 143.91 85.59 148.95 85.65 153.99 C 85.57 168.48 85.64 182.96 85.64 197.45 C 77.19 198.32 68.80 199.92 60.30 200.04 C 60.24 187.93 60.41 175.82 60.23 163.71 C 60.27 155.41 60.52 147.11 60.17 138.82 C 56.77 138.75 53.38 138.75 49.99 138.86 L 50.09 137.86 Z" />
</g>
<g id="#c51414ff">
<path fill="#c51414" opacity="1.00" d=" M 85.78 138.88 C 94.84 138.53 103.91 138.78 112.97 138.78 C 114.34 141.11 115.70 143.45 117.18 145.71 C 122.70 145.75 128.23 145.77 133.75 145.69 C 135.26 143.34 136.71 140.95 138.12 138.55 C 147.14 138.28 156.18 138.35 165.21 138.52 C 165.28 143.38 165.27 148.24 165.25 153.10 C 156.32 151.13 147.17 150.75 138.10 149.83 C 129.09 149.14 119.99 148.76 111.02 150.13 C 102.49 150.92 93.97 151.91 85.65 153.99 C 85.59 148.95 85.58 143.91 85.78 138.88 Z" />
</g>
<g id="#de1514ff">
<path fill="#de1514" opacity="1.00" d=" M 111.02 150.13 C 119.99 148.76 129.09 149.14 138.10 149.83 C 147.17 150.75 156.32 151.13 165.25 153.10 C 165.28 168.49 165.21 183.88 165.28 199.26 C 173.40 199.54 181.54 199.60 189.66 199.22 C 189.67 186.77 189.63 174.32 189.67 161.86 C 202.40 165.83 214.53 172.04 225.13 180.14 C 223.06 184.00 220.80 187.76 218.29 191.35 C 215.44 194.78 212.63 198.24 209.79 201.67 C 201.76 210.09 192.44 217.18 182.69 223.48 C 179.42 225.38 176.00 226.99 172.62 228.67 C 167.57 231.25 161.87 232.07 156.71 234.40 C 155.01 231.85 153.49 229.18 152.12 226.44 C 152.63 225.60 153.13 224.74 153.60 223.88 C 152.48 222.23 151.42 220.54 150.28 218.91 C 152.24 216.49 154.22 214.09 156.22 211.72 C 154.83 211.02 153.43 210.32 152.04 209.62 C 148.89 213.23 146.15 217.36 145.28 222.16 C 144.22 227.72 143.15 233.32 140.75 238.49 C 140.59 232.25 141.38 226.04 141.46 219.81 C 137.41 224.72 130.77 226.42 127.06 231.71 C 123.20 226.56 116.96 224.25 112.43 219.84 C 112.79 225.27 113.32 230.71 112.83 236.15 C 110.42 231.53 109.59 226.36 108.53 221.32 C 107.72 217.16 105.33 213.62 102.91 210.24 C 100.61 210.51 98.29 210.94 96.40 212.38 C 98.92 214.06 102.64 215.16 103.38 218.52 C 102.72 220.65 101.22 222.37 100.06 224.24 C 101.49 228.23 98.88 232.01 98.09 235.84 C 97.04 234.97 96.04 234.02 94.87 233.34 C 92.47 232.70 89.93 233.17 87.51 232.61 C 84.00 231.77 80.62 230.48 77.18 229.42 C 68.29 223.70 59.27 218.20 50.75 211.94 C 41.24 203.94 33.41 194.08 26.43 183.85 C 27.68 181.40 29.46 179.21 31.94 177.91 C 40.99 172.50 50.15 166.98 60.23 163.71 C 60.41 175.82 60.24 187.93 60.30 200.04 C 68.80 199.92 77.19 198.32 85.64 197.45 C 85.64 182.96 85.57 168.48 85.65 153.99 C 93.97 151.91 102.49 150.92 111.02 150.13 Z" />
</g>
<g id="#a50909ff">
<path fill="#a50909" opacity="1.00" d=" M 233.37 161.35 C 234.00 159.75 235.22 158.49 236.70 157.64 C 235.59 161.46 234.81 165.38 234.70 169.36 C 231.47 179.34 226.42 188.78 219.54 196.72 C 219.16 194.92 218.75 193.13 218.29 191.35 C 220.80 187.76 223.06 184.00 225.13 180.14 C 228.24 174.04 230.48 167.55 233.37 161.35 Z" />
</g>
<g id="#9d0807ff">
<path fill="#9d0807" opacity="1.00" d=" M 15.17 163.68 C 21.21 168.90 22.06 177.45 26.43 183.85 C 33.41 194.08 41.24 203.94 50.75 211.94 C 50.69 213.69 50.19 215.54 50.80 217.24 C 52.22 219.62 54.60 221.22 56.87 222.71 C 54.97 223.81 53.09 224.95 51.24 226.13 C 38.19 216.83 27.13 204.77 18.67 191.18 C 20.78 191.74 22.91 192.22 25.02 192.78 C 22.43 184.99 17.67 178.14 15.27 170.29 C 15.21 168.09 15.26 165.88 15.17 163.68 Z" />
</g>
<g id="#a50908ff">
<path fill="#a50908" opacity="1.00" d=" M 182.69 223.48 C 192.44 217.18 201.76 210.09 209.79 201.67 C 212.24 204.39 214.58 207.21 217.13 209.83 C 211.49 215.89 205.36 221.54 198.59 226.32 C 198.29 224.56 197.98 222.80 197.67 221.04 C 193.43 222.53 189.43 224.61 185.56 226.86 C 184.61 225.72 183.66 224.59 182.69 223.48 Z" />
</g>
<g id="#c61414ff">
<path fill="#c61414" opacity="1.00" d=" M 96.40 212.38 C 98.29 210.94 100.61 210.51 102.91 210.24 C 105.33 213.62 107.72 217.16 108.53 221.32 C 109.59 226.36 110.42 231.53 112.83 236.15 C 113.32 230.71 112.79 225.27 112.43 219.84 C 116.96 224.25 123.20 226.56 127.06 231.71 C 130.77 226.42 137.41 224.72 141.46 219.81 C 141.38 226.04 140.59 232.25 140.75 238.49 C 143.15 233.32 144.22 227.72 145.28 222.16 C 146.15 217.36 148.89 213.23 152.04 209.62 C 153.43 210.32 154.83 211.02 156.22 211.72 C 154.22 214.09 152.24 216.49 150.28 218.91 C 151.42 220.54 152.48 222.23 153.60 223.88 C 153.13 224.74 152.63 225.60 152.12 226.44 C 153.49 229.18 155.01 231.85 156.71 234.40 C 161.87 232.07 167.57 231.25 172.62 228.67 C 176.00 226.99 179.42 225.38 182.69 223.48 C 183.66 224.59 184.61 225.72 185.56 226.86 C 179.14 230.80 172.50 234.55 165.08 236.23 C 165.75 235.28 166.42 234.34 167.11 233.40 C 151.33 238.66 134.69 242.36 117.97 241.11 C 106.14 240.41 94.77 237.03 83.41 233.93 C 83.56 234.47 83.85 235.56 84.00 236.10 C 77.63 234.40 71.74 231.33 66.21 227.80 C 69.80 225.76 73.57 228.80 77.18 229.42 C 80.62 230.48 84.00 231.77 87.51 232.61 C 89.93 233.17 92.47 232.70 94.87 233.34 C 96.04 234.02 97.04 234.97 98.09 235.84 C 98.88 232.01 101.49 228.23 100.06 224.24 C 101.22 222.37 102.72 220.65 103.38 218.52 C 102.64 215.16 98.92 214.06 96.40 212.38 Z" />
</g>
<g id="#ba0908ff">
<path fill="#ba0908" opacity="1.00" d=" M 50.75 211.94 C 59.27 218.20 68.29 223.70 77.18 229.42 C 73.57 228.80 69.80 225.76 66.21 227.80 C 63.10 226.10 59.91 224.55 56.87 222.71 C 54.60 221.22 52.22 219.62 50.80 217.24 C 50.19 215.54 50.69 213.69 50.75 211.94 Z" />
</g>
<g id="#900706ff">
<path fill="#900706" opacity="1.00" d=" M 185.56 226.86 C 189.43 224.61 193.43 222.53 197.67 221.04 C 197.98 222.80 198.29 224.56 198.59 226.32 C 182.97 237.82 164.58 245.34 145.47 248.54 C 141.10 248.59 136.81 249.42 132.50 250.00 L 117.51 250.00 C 109.29 248.94 101.12 247.57 92.97 246.10 C 77.97 242.15 63.70 235.37 51.24 226.13 C 53.09 224.95 54.97 223.81 56.87 222.71 C 59.91 224.55 63.10 226.10 66.21 227.80 C 71.74 231.33 77.63 234.40 84.00 236.10 C 98.23 240.53 112.99 243.98 127.99 243.39 C 140.66 243.08 153.06 240.05 165.08 236.23 C 172.50 234.55 179.14 230.80 185.56 226.86 Z" />
</g>
<g id="#d75252ff">
<path fill="#d75252" opacity="1.00" d=" M 117.97 241.11 C 134.69 242.36 151.33 238.66 167.11 233.40 C 166.42 234.34 165.75 235.28 165.08 236.23 C 153.06 240.05 140.66 243.08 127.99 243.39 C 112.99 243.98 98.23 240.53 84.00 236.10 C 83.85 235.56 83.56 234.47 83.41 233.93 C 94.77 237.03 106.14 240.41 117.97 241.11 Z" />
</g>
<g id="#e6c2c1ff">
<path fill="#e6c2c1" opacity="1.00" d=" M 92.97 246.10 C 101.12 247.57 109.29 248.94 117.51 250.00 L 106.65 250.00 C 101.97 249.13 97.44 247.67 92.97 246.10 Z" />
</g>
<g id="#e7c2c1ff">
<path fill="#e7c2c1" opacity="1.00" d=" M 132.50 250.00 C 136.81 249.42 141.10 248.59 145.47 248.54 C 144.85 248.90 143.59 249.63 142.97 250.00 L 132.50 250.00 Z" />
</g>
</svg>
