<?xml version="1.0" encoding="UTF-8" ?>
<!DOCTYPE svg PUBLIC "-//W3C//DTD SVG 1.1//EN" "http://www.w3.org/Graphics/SVG/1.1/DTD/svg11.dtd">
<svg width="250pt" height="250pt" viewBox="0 0 250 250" version="1.1" xmlns="http://www.w3.org/2000/svg">
<g id="#ffffffff">
<path fill="#ffffff" opacity="1.00" d=" M 0.00 0.00 L 105.80 0.00 C 100.94 1.55 96.09 3.26 90.99 3.80 C 84.31 4.35 79.17 9.18 72.85 10.93 C 66.76 13.94 60.87 17.41 55.08 20.98 C 52.31 22.50 49.23 23.64 47.05 26.03 C 40.51 32.85 33.62 39.33 27.08 46.15 C 20.72 53.49 16.18 62.19 12.13 70.96 C 8.71 76.86 7.66 83.72 4.70 89.82 C 1.07 97.02 3.00 105.45 0.00 112.87 L 0.00 0.00 Z" />
<path fill="#ffffff" opacity="1.00" d=" M 144.32 0.00 L 250.00 0.00 L 250.00 113.20 C 248.61 108.58 247.75 103.83 247.63 99.00 C 247.62 93.28 244.31 88.41 242.66 83.11 C 241.37 78.95 240.04 74.78 237.88 70.97 C 233.07 60.49 227.46 50.02 218.95 42.04 C 213.56 36.74 208.16 31.44 202.91 26.01 C 201.07 24.01 198.60 22.83 196.20 21.68 C 188.46 17.33 181.13 12.09 172.67 9.19 C 168.51 7.33 164.71 4.41 160.04 3.96 C 154.63 3.34 149.43 1.78 144.32 0.00 Z" />
<path fill="#ffffff" opacity="1.00" d=" M 104.92 61.41 C 105.77 61.36 106.62 61.31 107.48 61.26 C 107.49 62.44 107.51 63.62 107.54 64.81 C 105.95 65.91 104.13 66.42 102.20 66.47 C 103.19 64.83 104.10 63.14 104.92 61.41 Z" />
<path fill="#ffffff" opacity="1.00" d=" M 82.22 67.39 C 83.93 67.47 85.64 67.53 87.36 67.54 C 87.21 73.90 90.71 79.33 93.09 84.97 C 97.60 88.19 102.17 92.01 107.91 92.60 C 106.49 95.24 104.84 97.76 103.51 100.44 C 104.69 100.40 105.89 100.35 107.04 100.01 C 109.69 99.15 112.47 98.95 115.23 98.95 C 115.21 98.50 115.17 97.60 115.15 97.15 C 112.74 96.90 110.33 96.63 107.92 96.46 C 108.47 95.72 109.57 94.24 110.11 93.51 C 118.07 94.67 125.84 96.94 133.86 97.71 C 134.14 98.00 134.70 98.58 134.98 98.88 C 135.73 105.64 133.63 112.25 134.02 119.00 C 133.98 119.18 133.91 119.54 133.87 119.72 C 133.76 120.40 133.54 121.75 133.43 122.42 C 128.64 125.65 124.70 130.08 119.26 132.31 C 116.60 133.73 113.88 135.02 111.17 136.33 C 110.30 136.27 108.58 136.17 107.72 136.12 C 107.07 136.58 106.43 137.04 105.79 137.50 C 103.82 137.50 101.84 137.53 99.87 137.62 C 97.97 138.46 95.90 138.74 93.87 139.07 C 88.10 140.65 82.04 139.62 76.14 139.88 C 73.81 139.13 71.42 138.54 69.13 137.65 C 67.39 137.52 65.66 137.42 63.92 137.33 L 63.62 136.56 C 62.54 132.40 58.31 130.40 56.48 126.69 C 54.04 122.05 51.02 117.60 49.96 112.38 C 57.01 113.71 61.38 106.81 67.90 105.76 C 68.19 107.01 68.49 108.28 68.78 109.54 C 69.78 110.52 70.78 111.51 71.78 112.51 C 73.68 112.52 75.58 112.53 77.48 112.55 C 79.23 108.74 78.80 104.46 78.66 100.39 C 78.32 100.09 77.64 99.49 77.29 99.19 C 79.47 93.57 84.59 89.44 85.59 83.34 C 86.92 77.78 84.21 72.43 82.22 67.39 M 120.53 106.40 C 118.98 107.48 117.43 108.56 115.92 109.69 C 117.25 110.24 118.57 110.82 119.95 111.24 C 122.61 110.78 125.01 109.48 127.47 108.42 C 127.48 107.91 127.51 106.90 127.53 106.40 C 125.19 106.40 122.86 106.40 120.53 106.40 M 91.22 111.19 C 90.58 111.24 89.30 111.33 88.66 111.38 C 88.65 111.87 88.65 112.84 88.64 113.32 C 90.37 114.48 92.13 115.58 93.81 116.79 C 92.05 118.87 89.74 120.29 87.27 121.39 C 84.83 119.86 82.25 118.58 79.71 117.23 C 79.77 120.75 83.16 121.64 85.80 122.87 C 87.05 124.65 88.90 125.80 90.88 126.62 C 91.57 127.34 92.27 128.06 92.96 128.79 C 95.59 128.75 98.66 129.26 100.36 126.72 C 102.27 125.93 104.20 124.75 103.94 122.33 C 103.89 121.94 103.80 121.15 103.76 120.76 L 105.11 121.46 C 105.12 120.86 105.14 119.66 105.16 119.07 C 108.53 118.81 109.69 115.26 110.09 112.42 C 109.53 112.46 108.41 112.53 107.85 112.57 C 106.74 116.04 103.69 119.39 99.73 118.96 L 99.55 118.90 C 99.42 116.88 97.53 116.40 95.94 115.85 C 96.90 114.99 97.85 114.12 98.81 113.26 C 98.76 112.39 98.64 110.65 98.58 109.78 C 96.06 109.81 93.43 109.79 91.22 111.19 M 59.58 119.79 C 63.11 119.90 66.70 119.85 70.04 118.56 C 69.54 117.77 69.04 116.98 68.54 116.19 C 65.22 116.38 62.43 118.30 59.58 119.79 Z" />
<path fill="#ffffff" opacity="1.00" d=" M 205.21 92.41 C 205.80 92.43 206.98 92.47 207.57 92.49 C 207.70 96.83 206.28 100.95 205.17 105.07 C 205.06 105.51 204.85 106.37 204.74 106.80 C 203.92 112.41 199.34 116.24 194.96 119.28 C 194.51 119.17 193.62 118.94 193.17 118.82 C 187.08 118.65 181.27 120.79 175.73 123.08 C 175.95 123.56 176.39 124.51 176.61 124.99 C 176.72 125.40 176.93 126.20 177.03 126.61 C 178.28 128.21 180.02 129.31 181.34 130.86 C 181.28 134.94 185.89 136.54 186.88 140.22 C 189.14 145.72 191.91 151.01 193.71 156.69 C 191.47 160.44 188.34 163.63 183.92 164.58 C 181.98 163.42 180.02 162.24 177.87 161.51 C 174.33 161.02 170.74 161.37 167.19 161.21 C 164.91 159.31 162.12 158.21 159.76 156.46 C 158.46 154.63 157.53 152.58 156.42 150.64 C 156.36 150.14 156.24 149.15 156.18 148.66 C 155.10 146.84 155.47 143.31 152.60 143.47 C 152.94 145.66 153.54 147.83 153.62 150.06 C 152.65 152.41 150.42 154.87 151.51 157.58 C 152.76 160.39 155.25 162.37 157.32 164.55 C 153.67 166.66 149.84 168.56 145.69 169.45 C 135.93 171.57 126.03 173.77 116.01 173.65 C 109.78 172.37 102.94 172.78 97.33 169.41 C 100.06 166.74 103.49 165.06 106.75 163.15 C 106.53 162.89 106.08 162.37 105.86 162.11 C 105.50 162.54 104.77 163.38 104.41 163.80 C 103.19 163.75 101.98 163.70 100.76 163.66 C 100.40 164.00 99.68 164.68 99.32 165.02 C 93.48 164.85 87.61 166.36 82.87 169.85 C 79.65 171.77 77.18 175.81 72.95 175.15 C 69.22 175.11 67.30 171.43 65.19 168.95 C 68.38 164.94 70.70 159.99 75.45 157.54 C 75.89 157.52 76.77 157.47 77.20 157.44 C 77.65 156.86 78.54 155.69 78.99 155.11 C 77.63 153.35 76.05 151.66 75.33 149.51 C 74.88 146.66 75.17 143.75 75.21 140.88 C 76.06 141.43 76.91 141.97 77.76 142.52 C 81.51 142.51 85.25 142.57 88.99 142.34 C 91.34 141.22 93.96 141.24 96.51 141.22 C 96.90 141.00 97.69 140.54 98.08 140.31 C 101.60 139.73 105.06 138.83 108.49 137.87 L 109.40 137.67 C 115.88 140.45 122.83 142.85 129.98 142.42 C 136.02 141.79 141.92 140.25 147.70 138.46 C 152.85 136.92 158.32 136.99 163.50 135.58 C 167.44 134.39 171.02 132.28 174.75 130.58 C 174.98 128.82 175.21 127.06 175.45 125.30 C 175.20 125.08 174.70 124.66 174.45 124.44 L 174.90 124.13 C 176.08 120.70 171.18 119.60 169.26 117.54 C 168.55 117.51 167.13 117.43 166.42 117.39 C 166.36 116.02 166.33 114.65 166.27 113.29 C 167.82 110.57 169.14 107.65 171.36 105.39 C 177.07 110.49 186.36 113.10 192.81 107.81 C 193.87 105.77 193.94 103.37 194.59 101.17 L 195.14 100.52 C 196.53 100.02 197.92 99.55 199.31 99.09 C 199.59 99.01 200.13 98.84 200.40 98.76 C 202.26 98.53 203.58 97.16 204.96 96.04 C 205.02 95.13 205.15 93.32 205.21 92.41 M 78.72 151.75 C 78.71 152.42 78.69 153.78 78.68 154.46 C 79.70 153.40 80.70 152.32 81.70 151.24 C 82.36 151.27 83.70 151.34 84.37 151.38 C 85.62 150.08 86.89 148.79 88.09 147.44 C 84.41 147.26 81.94 150.50 78.72 151.75 Z" />
<path fill="#ffffff" opacity="1.00" d=" M 73.73 99.91 C 75.86 99.96 77.30 101.26 77.99 103.25 C 76.67 104.09 75.27 104.80 73.73 105.10 C 73.71 103.37 73.71 101.64 73.73 99.91 Z" />
<path fill="#ffffff" opacity="1.00" d=" M 0.00 135.28 C 2.11 141.47 2.37 148.01 3.33 154.42 C 5.23 160.78 7.84 166.92 9.88 173.25 C 12.31 177.69 14.52 182.23 16.24 186.99 C 20.10 192.67 23.30 198.88 28.18 203.80 C 34.95 210.68 41.89 217.39 48.61 224.32 C 51.51 227.55 56.09 228.10 59.48 230.64 C 68.82 236.39 78.84 240.98 89.07 244.88 C 97.30 246.68 105.65 247.98 113.83 250.00 L 0.00 250.00 L 0.00 135.28 Z" />
<path fill="#ffffff" opacity="1.00" d=" M 247.35 150.06 C 247.57 145.01 248.57 140.05 250.00 135.21 L 250.00 250.00 L 135.97 250.00 C 143.19 248.41 150.41 246.79 157.72 245.65 C 161.83 244.97 165.58 243.09 169.33 241.38 C 177.62 238.11 185.49 233.84 193.05 229.13 C 196.12 227.61 199.58 226.60 201.88 223.88 C 208.69 216.69 215.96 209.94 222.77 202.75 C 226.82 198.61 229.37 193.37 232.70 188.70 C 233.93 187.00 234.69 185.02 235.39 183.05 C 237.03 178.20 240.40 174.13 241.58 169.10 C 243.34 162.70 247.00 156.81 247.35 150.06 Z" />
<path fill="#ffffff" opacity="1.00" d=" M 59.31 146.72 C 62.60 144.65 65.71 142.29 68.67 139.76 C 69.87 140.50 71.10 141.17 72.40 141.70 C 72.47 142.30 72.61 143.48 72.69 144.08 C 73.76 146.27 73.74 148.81 74.89 150.99 C 73.78 153.10 72.26 155.09 70.10 156.21 C 64.18 159.23 57.55 163.25 50.80 160.22 C 50.75 159.25 50.65 157.32 50.60 156.36 L 50.59 156.13 C 52.08 154.81 54.02 153.58 53.88 151.29 C 54.48 151.29 55.68 151.29 56.28 151.29 C 56.29 150.70 56.32 149.50 56.34 148.91 C 57.34 148.19 58.32 147.45 59.31 146.72 Z" />
</g>
<g id="#fee2d4ff">
<path fill="#fee2d4" opacity="1.00" d=" M 105.80 0.00 L 144.32 0.00 C 149.43 1.78 154.63 3.34 160.04 3.96 C 164.71 4.41 168.51 7.33 172.67 9.19 C 181.13 12.09 188.46 17.33 196.20 21.68 C 198.60 22.83 201.07 24.01 202.91 26.01 C 208.16 31.44 213.56 36.74 218.95 42.04 C 227.46 50.02 233.07 60.49 237.88 70.97 C 240.04 74.78 241.37 78.95 242.66 83.11 C 244.31 88.41 247.62 93.28 247.63 99.00 C 247.75 103.83 248.61 108.58 250.00 113.20 L 250.00 135.21 C 248.57 140.05 247.57 145.01 247.35 150.06 C 247.00 156.81 243.34 162.70 241.58 169.10 C 240.40 174.13 237.03 178.20 235.39 183.05 C 234.69 185.02 233.93 187.00 232.70 188.70 C 229.37 193.37 226.82 198.61 222.77 202.75 C 215.96 209.94 208.69 216.69 201.88 223.88 C 199.58 226.60 196.12 227.61 193.05 229.13 C 185.49 233.84 177.62 238.11 169.33 241.38 C 165.58 243.09 161.83 244.97 157.72 245.65 C 150.41 246.79 143.19 248.41 135.97 250.00 L 113.83 250.00 C 105.65 247.98 97.30 246.68 89.07 244.88 C 78.84 240.98 68.82 236.39 59.48 230.64 C 56.09 228.10 51.51 227.55 48.61 224.32 C 41.89 217.39 34.95 210.68 28.18 203.80 C 23.30 198.88 20.10 192.67 16.24 186.99 C 14.52 182.23 12.31 177.69 9.88 173.25 C 7.84 166.92 5.23 160.78 3.33 154.42 C 2.37 148.01 2.11 141.47 0.00 135.28 L 0.00 112.87 C 3.00 105.45 1.07 97.02 4.70 89.82 C 7.66 83.72 8.71 76.86 12.13 70.96 C 16.18 62.19 20.72 53.49 27.08 46.15 C 33.62 39.33 40.51 32.85 47.05 26.03 C 49.23 23.64 52.31 22.50 55.08 20.98 C 60.87 17.41 66.76 13.94 72.85 10.93 C 79.17 9.18 84.31 4.35 90.99 3.80 C 96.09 3.26 100.94 1.55 105.80 0.00 M 108.92 57.94 C 107.14 59.75 104.72 60.66 102.50 61.77 C 101.59 62.73 100.68 63.68 99.72 64.58 C 96.12 65.28 92.39 64.69 88.74 64.96 C 86.21 66.70 82.89 65.65 80.35 67.32 C 79.70 67.46 79.07 67.65 78.45 67.89 C 75.41 67.34 72.29 67.38 69.23 67.65 C 67.66 67.45 66.09 67.25 64.51 67.20 C 61.45 66.07 58.12 66.02 54.99 65.07 C 53.36 64.26 52.00 65.95 51.02 67.00 C 46.53 73.44 45.79 81.53 46.27 89.15 C 45.46 90.44 44.70 91.75 43.94 93.06 C 43.64 94.40 43.30 95.75 42.72 97.01 C 42.62 97.55 42.42 98.64 42.33 99.19 C 40.54 101.78 41.46 105.09 41.24 108.03 C 40.77 112.75 43.96 116.60 44.91 121.02 C 45.25 122.65 45.81 124.23 46.46 125.76 C 48.06 127.50 49.10 129.67 50.73 131.37 C 52.83 132.87 55.08 134.21 56.89 136.09 C 60.15 137.11 63.42 138.09 66.64 139.22 C 64.50 140.11 62.00 140.98 62.23 143.81 C 61.53 143.75 60.12 143.63 59.42 143.57 C 56.61 145.88 55.66 149.93 52.11 151.38 C 49.52 152.45 50.00 155.79 48.80 157.94 C 48.73 159.65 48.71 161.36 48.71 163.07 C 49.90 165.61 50.43 169.25 54.02 169.10 C 56.75 170.78 59.69 169.10 62.44 168.42 C 62.48 172.17 62.48 175.93 62.43 179.68 C 64.48 180.87 66.41 182.81 68.96 182.57 C 71.63 182.50 74.61 183.14 76.91 181.42 C 77.51 181.39 78.72 181.35 79.32 181.33 C 80.53 180.16 81.76 179.00 83.01 177.87 C 86.11 176.24 88.74 173.75 91.97 172.41 C 95.11 173.21 98.10 174.55 100.87 176.25 C 102.82 176.29 104.78 176.32 106.73 176.36 C 107.32 176.80 107.91 177.25 108.51 177.68 C 110.09 177.59 111.64 177.90 113.14 178.35 C 115.74 179.08 118.79 178.15 121.01 180.02 C 125.41 180.20 129.82 180.09 134.23 180.13 C 134.61 179.79 135.38 179.11 135.76 178.77 C 138.23 178.69 140.87 179.07 143.13 177.81 C 144.39 177.31 147.11 178.21 146.86 176.11 C 147.17 175.99 147.81 175.74 148.13 175.62 L 148.00 175.84 C 152.97 177.42 157.66 174.06 162.09 172.21 C 162.73 171.56 163.37 170.91 164.01 170.26 C 165.69 169.93 167.84 170.52 169.06 169.02 C 171.04 166.89 173.32 165.09 175.87 163.69 C 177.54 163.72 179.22 163.75 180.89 163.79 C 181.89 166.73 184.28 168.69 186.96 170.08 C 189.40 170.11 191.85 170.12 194.30 170.16 C 196.01 168.55 197.71 166.78 198.09 164.35 C 199.38 158.95 199.24 152.92 196.42 147.99 C 196.40 147.40 196.34 146.22 196.31 145.63 C 195.46 144.77 194.60 143.90 193.76 143.04 C 193.74 141.78 193.72 140.51 193.71 139.25 C 193.31 138.83 192.52 138.00 192.12 137.58 C 191.68 137.53 190.79 137.43 190.35 137.38 C 189.52 136.48 188.68 135.60 187.83 134.72 C 187.31 133.27 186.21 131.89 186.33 130.29 C 192.19 130.77 196.85 126.96 201.91 124.69 C 204.22 123.66 204.40 120.68 205.46 118.68 C 205.89 118.68 206.75 118.68 207.18 118.68 C 208.04 116.10 209.27 113.62 211.27 111.72 C 211.29 109.74 211.28 107.77 211.24 105.81 C 211.50 105.59 212.00 105.17 212.25 104.95 L 212.12 104.64 C 212.41 102.63 212.58 100.60 212.82 98.58 C 212.32 97.97 211.83 97.36 211.34 96.76 C 211.32 94.77 211.30 92.79 211.27 90.81 C 210.14 89.35 209.11 87.81 208.18 86.22 C 207.71 86.23 206.77 86.27 206.31 86.28 C 206.28 86.98 206.22 88.36 206.19 89.05 C 205.16 90.90 204.25 92.82 203.40 94.76 C 201.95 95.99 200.49 97.22 199.08 98.49 L 200.40 98.76 C 200.13 98.84 199.59 99.01 199.31 99.09 C 196.19 98.54 193.01 98.64 189.86 98.80 C 185.62 101.18 180.33 98.48 176.19 101.21 C 175.35 101.22 173.65 101.22 172.81 101.23 C 171.53 102.68 170.38 104.24 169.39 105.91 C 165.36 107.07 165.06 112.00 163.30 115.19 C 162.30 114.78 161.30 114.36 160.31 113.93 C 155.78 111.94 150.77 112.38 145.98 112.67 C 144.34 113.89 142.22 113.70 140.29 113.86 C 140.09 112.35 139.87 110.85 139.66 109.34 C 140.41 105.84 139.93 102.22 140.07 98.67 C 140.03 97.21 140.19 95.71 139.87 94.27 C 139.96 93.17 140.14 90.97 140.23 89.87 C 137.12 84.77 133.41 80.02 129.05 75.93 C 126.35 73.66 126.82 69.61 124.26 67.26 C 124.21 65.02 123.16 62.99 122.21 61.03 L 122.23 62.00 L 121.99 60.79 C 119.96 58.16 117.85 54.18 113.88 54.82 C 111.63 54.54 110.41 56.68 108.92 57.94 M 110.26 201.97 C 110.17 208.39 109.87 214.81 109.96 221.23 C 112.05 221.24 114.14 221.25 116.23 221.25 C 116.24 214.85 116.58 208.44 116.15 202.05 C 114.78 200.30 110.83 198.85 110.26 201.97 M 118.84 203.94 C 118.49 208.65 118.56 213.39 118.81 218.10 C 118.80 222.72 127.60 222.75 127.40 218.06 C 127.49 213.02 127.65 207.94 127.25 202.91 C 126.18 201.50 124.43 200.88 122.99 199.94 C 121.53 201.12 119.02 201.77 118.84 203.94 M 96.25 201.27 C 96.25 207.96 96.30 214.64 96.26 221.33 C 96.85 221.20 98.03 220.95 98.62 220.82 C 98.80 217.45 98.62 214.05 99.39 210.74 C 99.70 212.14 100.01 213.55 100.31 214.97 C 101.43 214.96 102.55 214.95 103.67 214.94 C 103.73 212.65 103.80 210.35 103.87 208.06 L 104.91 208.13 C 104.92 212.39 104.62 216.68 105.14 220.94 C 107.34 222.54 108.37 219.70 108.51 217.91 C 109.00 212.39 108.68 206.85 108.73 201.32 C 107.23 201.27 105.74 201.22 104.24 201.17 C 103.73 203.98 102.96 206.75 101.62 209.28 C 100.92 206.62 100.28 203.94 99.66 201.27 C 98.52 201.27 97.39 201.27 96.25 201.27 M 128.75 202.71 C 129.03 208.23 127.84 214.00 129.52 219.35 C 130.33 222.28 133.82 221.03 136.03 221.29 C 136.83 219.08 139.20 215.23 135.32 214.65 C 135.07 216.17 134.82 217.70 134.56 219.23 C 129.26 216.02 131.89 208.90 131.29 203.84 C 133.45 204.19 135.62 204.65 137.83 204.54 C 137.29 199.78 131.71 201.11 128.75 202.71 M 143.91 202.66 C 143.55 206.26 143.68 209.89 143.68 213.51 C 142.34 213.75 141.01 213.99 139.68 214.23 C 140.98 214.65 142.27 215.06 143.57 215.48 C 144.13 217.52 142.58 222.18 145.80 221.85 C 146.72 215.54 146.38 209.07 146.07 202.72 C 145.53 202.70 144.45 202.67 143.91 202.66 M 147.78 202.93 C 147.37 209.39 147.42 215.90 147.76 222.37 C 148.32 222.34 149.43 222.30 149.98 222.28 C 150.36 215.64 149.98 208.99 150.19 202.35 C 149.59 202.49 148.38 202.78 147.78 202.93 M 151.02 203.90 C 151.32 210.13 151.24 216.36 151.29 222.60 C 151.89 222.62 153.09 222.67 153.69 222.70 C 153.63 216.48 153.94 210.25 153.68 204.03 C 154.36 201.87 150.23 201.95 151.02 203.90 Z" />
<path fill="#fee2d4" opacity="1.00" d=" M 111.33 220.16 C 111.65 214.21 110.28 208.18 111.65 202.30 C 112.46 202.45 114.08 202.75 114.89 202.90 C 114.77 207.93 115.24 212.99 114.71 218.00 C 114.62 219.72 112.48 219.58 111.33 220.16 Z" />
<path fill="#fee2d4" opacity="1.00" d=" M 122.73 220.15 C 121.47 214.42 119.66 207.57 122.95 202.25 C 123.81 203.37 125.00 204.46 124.85 206.02 C 125.03 209.71 125.06 213.41 124.86 217.10 C 125.02 218.54 123.58 219.26 122.73 220.15 Z" />
</g>
<g id="#542722ff">
<path fill="#542722" opacity="1.00" d=" M 108.92 57.94 C 110.41 56.68 111.63 54.54 113.88 54.82 C 117.85 54.18 119.96 58.16 121.99 60.79 L 122.23 62.00 C 122.26 62.70 122.29 63.41 122.31 64.12 C 119.97 61.23 117.54 58.43 115.04 55.67 C 113.56 56.86 111.78 57.81 110.65 59.36 C 109.67 62.00 109.18 64.79 108.55 67.53 C 101.49 67.56 94.42 67.46 87.36 67.54 C 85.64 67.53 83.93 67.47 82.22 67.39 C 81.76 67.38 80.82 67.34 80.35 67.32 C 82.89 65.65 86.21 66.70 88.74 64.96 C 92.39 64.69 96.12 65.28 99.72 64.58 C 100.68 63.68 101.59 62.73 102.50 61.77 C 104.72 60.66 107.14 59.75 108.92 57.94 M 104.92 61.41 C 104.10 63.14 103.19 64.83 102.20 66.47 C 104.13 66.42 105.95 65.91 107.54 64.81 C 107.51 63.62 107.49 62.44 107.48 61.26 C 106.62 61.31 105.77 61.36 104.92 61.41 Z" />
<path fill="#542722" opacity="1.00" d=" M 51.02 67.00 C 52.00 65.95 53.36 64.26 54.99 65.07 C 58.12 66.02 61.45 66.07 64.51 67.20 C 63.72 67.25 62.14 67.34 61.36 67.39 C 61.92 69.21 62.47 71.04 62.99 72.87 C 65.49 71.70 68.43 70.63 69.23 67.65 C 72.29 67.38 75.41 67.34 78.45 67.89 C 75.07 69.27 71.52 70.32 68.45 72.34 C 66.90 73.50 64.96 73.74 63.12 74.09 C 60.63 76.47 57.90 78.55 55.19 80.66 C 51.48 83.89 48.49 87.89 45.80 91.97 C 43.86 98.94 42.71 106.49 44.60 113.61 C 45.02 115.76 45.44 117.91 46.08 120.01 C 46.19 121.06 46.30 122.11 46.41 123.16 C 50.91 128.87 56.06 135.17 63.62 136.56 L 63.92 137.33 C 65.66 137.42 67.39 137.52 69.13 137.65 C 71.42 138.54 73.81 139.13 76.14 139.88 C 82.04 139.62 88.10 140.65 93.87 139.07 C 95.90 138.74 97.97 138.46 99.87 137.62 C 101.84 137.53 103.82 137.50 105.79 137.50 C 106.43 137.04 107.07 136.58 107.72 136.12 C 108.58 136.17 110.30 136.27 111.17 136.33 C 113.88 135.02 116.60 133.73 119.26 132.31 C 124.70 130.08 128.64 125.65 133.43 122.42 C 133.54 121.75 133.76 120.40 133.87 119.72 C 133.91 119.54 133.98 119.18 134.02 119.00 C 136.40 116.11 138.27 112.82 139.66 109.34 C 139.87 110.85 140.09 112.35 140.29 113.86 C 142.22 113.70 144.34 113.89 145.98 112.67 C 150.77 112.38 155.78 111.94 160.31 113.93 C 161.30 114.36 162.30 114.78 163.30 115.19 C 165.06 112.00 165.36 107.07 169.39 105.91 C 170.38 104.24 171.53 102.68 172.81 101.23 C 173.65 101.22 175.35 101.22 176.19 101.21 C 180.33 98.48 185.62 101.18 189.86 98.80 C 193.01 98.64 196.19 98.54 199.31 99.09 C 197.92 99.55 196.53 100.02 195.14 100.52 L 194.59 101.17 C 191.57 101.22 188.49 101.21 185.65 102.33 C 182.38 102.54 179.10 102.54 175.83 102.50 C 174.32 103.44 172.80 104.35 171.36 105.39 C 169.14 107.65 167.82 110.57 166.27 113.29 C 166.33 114.65 166.36 116.02 166.42 117.39 C 167.13 117.43 168.55 117.51 169.26 117.54 C 171.18 119.60 176.08 120.70 174.90 124.13 L 174.45 124.44 C 172.01 123.40 170.63 121.07 169.27 118.95 C 164.68 119.28 160.93 116.41 156.66 115.33 C 152.53 114.62 148.31 114.86 144.16 115.21 L 143.31 116.27 C 141.92 116.26 140.53 116.25 139.15 116.23 C 136.95 118.76 135.04 121.50 133.32 124.36 C 130.45 126.35 127.98 128.83 125.59 131.35 C 124.98 131.36 123.76 131.36 123.15 131.37 C 122.03 133.63 119.77 134.83 117.60 135.89 C 114.85 136.41 112.13 137.06 109.40 137.67 L 108.49 137.87 C 105.06 138.83 101.60 139.73 98.08 140.31 C 97.69 140.54 96.90 141.00 96.51 141.22 C 93.96 141.24 91.34 141.22 88.99 142.34 C 85.25 142.57 81.51 142.51 77.76 142.52 C 76.91 141.97 76.06 141.43 75.21 140.88 C 75.17 143.75 74.88 146.66 75.33 149.51 C 76.05 151.66 77.63 153.35 78.99 155.11 C 78.54 155.69 77.65 156.86 77.20 157.44 C 76.77 157.47 75.89 157.52 75.45 157.54 C 70.70 159.99 68.38 164.94 65.19 168.95 C 64.68 169.61 64.16 170.27 63.64 170.92 C 63.40 174.65 64.30 178.26 66.30 181.41 C 71.32 181.21 78.23 182.34 80.63 176.58 C 82.54 175.95 84.44 175.30 86.34 174.67 C 86.34 174.24 86.33 173.39 86.33 172.96 C 90.57 170.16 95.54 168.49 99.32 165.02 C 99.68 164.68 100.40 164.00 100.76 163.66 C 101.98 163.70 103.19 163.75 104.41 163.80 C 104.77 163.38 105.50 162.54 105.86 162.11 C 106.08 162.37 106.53 162.89 106.75 163.15 C 103.49 165.06 100.06 166.74 97.33 169.41 C 96.07 170.09 94.55 170.16 93.19 170.59 C 98.85 172.05 103.97 175.25 109.79 176.09 C 115.91 176.24 121.87 178.00 128.02 177.55 C 134.37 178.00 140.50 175.84 146.86 176.11 C 147.11 178.21 144.39 177.31 143.13 177.81 C 140.87 179.07 138.23 178.69 135.76 178.77 C 135.38 179.11 134.61 179.79 134.23 180.13 C 129.82 180.09 125.41 180.20 121.01 180.02 C 118.79 178.15 115.74 179.08 113.14 178.35 C 111.64 177.90 110.09 177.59 108.51 177.68 C 107.91 177.25 107.32 176.80 106.73 176.36 C 104.78 176.32 102.82 176.29 100.87 176.25 C 98.10 174.55 95.11 173.21 91.97 172.41 C 88.74 173.75 86.11 176.24 83.01 177.87 C 81.76 179.00 80.53 180.16 79.32 181.33 C 78.72 181.35 77.51 181.39 76.91 181.42 C 74.61 183.14 71.63 182.50 68.96 182.57 C 66.41 182.81 64.48 180.87 62.43 179.68 C 62.48 175.93 62.48 172.17 62.44 168.42 C 59.69 169.10 56.75 170.78 54.02 169.10 C 50.43 169.25 49.90 165.61 48.71 163.07 C 48.71 161.36 48.73 159.65 48.80 157.94 C 50.00 155.79 49.52 152.45 52.11 151.38 C 55.66 149.93 56.61 145.88 59.42 143.57 C 60.12 143.63 61.53 143.75 62.23 143.81 C 62.00 140.98 64.50 140.11 66.64 139.22 C 63.42 138.09 60.15 137.11 56.89 136.09 C 55.08 134.21 52.83 132.87 50.73 131.37 C 49.10 129.67 48.06 127.50 46.46 125.76 C 45.81 124.23 45.25 122.65 44.91 121.02 C 43.96 116.60 40.77 112.75 41.24 108.03 C 41.46 105.09 40.54 101.78 42.33 99.19 C 42.42 98.64 42.62 97.55 42.72 97.01 C 43.30 95.75 43.64 94.40 43.94 93.06 C 44.70 91.75 45.46 90.44 46.27 89.15 C 45.79 81.53 46.53 73.44 51.02 67.00 M 51.56 67.35 C 51.09 68.55 50.60 69.74 50.12 70.94 C 49.33 76.17 48.31 81.37 47.48 86.60 C 49.73 85.48 50.02 82.95 51.04 80.95 C 53.64 79.94 56.20 78.81 56.95 75.85 C 58.62 74.97 60.30 74.12 61.99 73.26 C 60.74 71.40 59.83 69.22 58.08 67.74 C 55.93 67.43 53.74 67.43 51.56 67.35 M 59.31 146.72 C 58.32 147.45 57.34 148.19 56.34 148.91 C 56.32 149.50 56.29 150.70 56.28 151.29 C 55.68 151.29 54.48 151.29 53.88 151.29 C 54.02 153.58 52.08 154.81 50.59 156.13 L 50.60 156.36 C 48.89 159.40 50.10 163.00 51.53 165.90 C 52.63 166.39 53.73 166.91 54.81 167.45 C 56.61 167.47 58.40 167.46 60.20 167.46 C 62.19 166.34 64.30 165.43 66.26 164.27 C 68.72 162.77 68.99 159.00 72.05 158.27 C 73.00 157.90 73.95 157.53 74.90 157.17 C 74.90 155.11 74.94 153.04 74.89 150.99 C 73.74 148.81 73.76 146.27 72.69 144.08 C 72.61 143.48 72.47 142.30 72.40 141.70 C 71.10 141.17 69.87 140.50 68.67 139.76 C 65.71 142.29 62.60 144.65 59.31 146.72 Z" />
<path fill="#542722" opacity="1.00" d=" M 110.20 67.50 C 115.00 67.09 120.76 68.07 123.24 72.76 C 122.54 72.58 121.15 72.23 120.45 72.05 C 117.44 70.50 114.30 69.22 111.07 68.20 L 110.20 67.50 Z" />
<path fill="#542722" opacity="1.00" d=" M 123.12 73.51 C 123.54 71.43 123.95 69.35 124.26 67.26 C 126.82 69.61 126.35 73.66 129.05 75.93 C 133.41 80.02 137.12 84.77 140.23 89.87 C 140.14 90.97 139.96 93.17 139.87 94.27 C 139.37 93.01 138.85 91.76 138.33 90.51 C 135.98 87.50 134.06 84.19 132.28 80.83 C 129.09 78.56 126.48 75.55 123.12 73.51 Z" />
<path fill="#542722" opacity="1.00" d=" M 206.31 86.28 C 206.77 86.27 207.71 86.23 208.18 86.22 C 209.11 87.81 210.14 89.35 211.27 90.81 C 211.30 92.79 211.32 94.77 211.34 96.76 C 211.83 97.36 212.32 97.97 212.82 98.58 C 212.58 100.60 212.41 102.63 212.12 104.64 C 211.98 104.33 211.71 103.71 211.58 103.40 C 211.49 102.67 211.32 101.22 211.23 100.49 L 211.10 99.44 C 210.84 98.67 210.57 97.91 210.27 97.15 C 210.00 94.38 209.30 91.66 207.72 89.34 C 207.68 90.13 207.61 91.70 207.57 92.49 C 206.98 92.47 205.80 92.43 205.21 92.41 C 205.15 93.32 205.02 95.13 204.96 96.04 C 203.58 97.16 202.26 98.53 200.40 98.76 L 199.08 98.49 C 200.49 97.22 201.95 95.99 203.40 94.76 C 204.25 92.82 205.16 90.90 206.19 89.05 C 206.22 88.36 206.28 86.98 206.31 86.28 Z" />
<path fill="#542722" opacity="1.00" d=" M 109.13 92.78 C 110.13 91.77 111.12 90.74 112.21 89.83 C 113.51 90.03 113.70 91.43 114.28 92.37 C 113.10 92.45 111.93 92.52 110.75 92.59 L 110.11 93.51 C 109.57 94.24 108.47 95.72 107.92 96.46 C 107.82 96.59 107.63 96.84 107.53 96.97 C 107.35 97.98 107.19 98.99 107.04 100.01 C 105.89 100.35 104.69 100.40 103.51 100.44 C 104.84 97.76 106.49 95.24 107.91 92.60 C 108.21 92.65 108.83 92.74 109.13 92.78 Z" />
<path fill="#542722" opacity="1.00" d=" M 68.67 98.82 C 71.51 97.42 74.69 97.14 77.29 99.19 C 77.64 99.49 78.32 100.09 78.66 100.39 C 78.80 104.46 79.23 108.74 77.48 112.55 C 75.58 112.53 73.68 112.52 71.78 112.51 C 70.78 111.51 69.78 110.52 68.78 109.54 C 68.76 105.97 68.71 102.39 68.67 98.82 M 73.73 99.91 C 73.71 101.64 73.71 103.37 73.73 105.10 C 75.27 104.80 76.67 104.09 77.99 103.25 C 77.30 101.26 75.86 99.96 73.73 99.91 Z" />
<path fill="#542722" opacity="1.00" d=" M 210.48 106.49 L 211.24 105.81 C 211.28 107.77 211.29 109.74 211.27 111.72 C 209.27 113.62 208.04 116.10 207.18 118.68 C 206.75 118.68 205.89 118.68 205.46 118.68 C 204.40 120.68 204.22 123.66 201.91 124.69 C 196.85 126.96 192.19 130.77 186.33 130.29 C 186.21 131.89 187.31 133.27 187.83 134.72 C 188.68 135.60 189.52 136.48 190.35 137.38 C 190.79 137.43 191.68 137.53 192.12 137.58 C 192.52 138.00 193.31 138.83 193.71 139.25 C 193.72 140.51 193.74 141.78 193.76 143.04 C 194.60 143.90 195.46 144.77 196.31 145.63 C 196.34 146.22 196.40 147.40 196.42 147.99 C 199.24 152.92 199.38 158.95 198.09 164.35 C 197.71 166.78 196.01 168.55 194.30 170.16 C 191.85 170.12 189.40 170.11 186.96 170.08 C 184.28 168.69 181.89 166.73 180.89 163.79 C 179.22 163.75 177.54 163.72 175.87 163.69 C 173.32 165.09 171.04 166.89 169.06 169.02 C 167.84 170.52 165.69 169.93 164.01 170.26 C 163.37 170.91 162.73 171.56 162.09 172.21 C 157.66 174.06 152.97 177.42 148.00 175.84 L 148.13 175.62 C 153.58 173.73 158.74 171.13 164.16 169.15 C 167.02 168.11 169.40 166.17 171.74 164.27 C 169.43 163.70 167.15 163.03 164.93 162.20 C 163.21 159.78 160.53 158.51 157.93 157.28 C 156.75 154.72 155.35 152.28 153.62 150.06 C 153.54 147.83 152.94 145.66 152.60 143.47 C 155.47 143.31 155.10 146.84 156.18 148.66 C 156.24 149.15 156.36 150.14 156.42 150.64 C 157.53 152.58 158.46 154.63 159.76 156.46 C 162.12 158.21 164.91 159.31 167.19 161.21 C 170.74 161.37 174.33 161.02 177.87 161.51 C 180.02 162.24 181.98 163.42 183.92 164.58 C 185.36 165.92 186.69 167.36 188.04 168.80 C 190.59 168.60 194.31 169.39 195.20 166.13 C 197.40 159.74 196.64 152.42 193.84 146.30 C 193.78 145.72 193.66 144.55 193.60 143.96 C 192.22 142.01 190.84 140.05 189.42 138.13 C 186.23 136.21 185.05 131.94 181.34 130.86 C 180.02 129.31 178.28 128.21 177.03 126.61 C 176.93 126.20 176.72 125.40 176.61 124.99 C 177.13 125.08 178.17 125.27 178.69 125.36 C 179.65 126.49 180.57 127.65 181.48 128.82 C 185.34 128.71 189.14 128.03 192.88 127.11 C 194.87 125.68 197.19 124.91 199.59 124.47 C 200.58 123.45 201.58 122.43 202.61 121.46 L 203.42 121.54 C 204.03 119.81 204.66 118.08 205.26 116.35 C 206.52 114.34 208.07 112.54 209.62 110.76 C 209.89 109.33 210.14 107.90 210.48 106.49 Z" />
<path fill="#542722" opacity="1.00" d=" M 91.22 111.19 C 93.43 109.79 96.06 109.81 98.58 109.78 C 98.64 110.65 98.76 112.39 98.81 113.26 C 97.85 114.12 96.90 114.99 95.94 115.85 C 97.53 116.40 99.42 116.88 99.55 118.90 C 98.12 118.57 96.68 118.29 95.24 118.00 C 93.14 119.96 90.90 121.78 88.58 123.46 C 90.88 124.76 93.19 126.65 96.01 126.39 C 99.10 126.23 101.56 124.09 103.94 122.33 C 104.20 124.75 102.27 125.93 100.36 126.72 C 98.66 129.26 95.59 128.75 92.96 128.79 C 92.27 128.06 91.57 127.34 90.88 126.62 C 88.90 125.80 87.05 124.65 85.80 122.87 C 83.16 121.64 79.77 120.75 79.71 117.23 C 82.25 118.58 84.83 119.86 87.27 121.39 C 89.74 120.29 92.05 118.87 93.81 116.79 C 92.13 115.58 90.37 114.48 88.64 113.32 C 88.65 112.84 88.65 111.87 88.66 111.38 C 89.30 111.33 90.58 111.24 91.22 111.19 M 93.22 112.04 C 91.35 112.46 92.66 114.97 94.17 114.20 C 96.06 113.77 94.75 111.26 93.22 112.04 Z" />
<path fill="#542722" opacity="1.00" d=" M 107.85 112.57 C 108.41 112.53 109.53 112.46 110.09 112.42 C 109.69 115.26 108.53 118.81 105.16 119.07 C 105.14 119.66 105.12 120.86 105.11 121.46 L 103.76 120.76 C 102.45 120.08 101.10 119.51 99.73 118.96 C 103.69 119.39 106.74 116.04 107.85 112.57 Z" />
<path fill="#542722" opacity="1.00" d=" M 78.72 151.75 C 81.94 150.50 84.41 147.26 88.09 147.44 C 86.89 148.79 85.62 150.08 84.37 151.38 C 83.70 151.34 82.36 151.27 81.70 151.24 C 80.70 152.32 79.70 153.40 78.68 154.46 C 78.69 153.78 78.71 152.42 78.72 151.75 Z" />
</g>
<g id="#eb6256ff">
<path fill="#eb6256" opacity="1.00" d=" M 110.65 59.36 C 111.78 57.81 113.56 56.86 115.04 55.67 C 117.54 58.43 119.97 61.23 122.31 64.12 C 122.29 63.41 122.26 62.70 122.23 62.00 L 122.21 61.03 C 123.16 62.99 124.21 65.02 124.26 67.26 C 123.95 69.35 123.54 71.43 123.12 73.51 C 122.24 73.00 121.36 72.51 120.45 72.05 C 121.15 72.23 122.54 72.58 123.24 72.76 C 120.76 68.07 115.00 67.09 110.20 67.50 C 109.79 67.51 108.97 67.52 108.55 67.53 C 109.18 64.79 109.67 62.00 110.65 59.36 Z" />
<path fill="#eb6256" opacity="1.00" d=" M 51.56 67.35 C 53.74 67.43 55.93 67.43 58.08 67.74 C 59.83 69.22 60.74 71.40 61.99 73.26 C 60.30 74.12 58.62 74.97 56.95 75.85 C 56.20 78.81 53.64 79.94 51.04 80.95 C 50.02 82.95 49.73 85.48 47.48 86.60 C 48.31 81.37 49.33 76.17 50.12 70.94 C 50.60 69.74 51.09 68.55 51.56 67.35 Z" />
<path fill="#eb6256" opacity="1.00" d=" M 120.53 106.40 C 122.86 106.40 125.19 106.40 127.53 106.40 C 127.51 106.90 127.48 107.91 127.47 108.42 C 125.01 109.48 122.61 110.78 119.95 111.24 C 118.57 110.82 117.25 110.24 115.92 109.69 C 117.43 108.56 118.98 107.48 120.53 106.40 Z" />
<path fill="#eb6256" opacity="1.00" d=" M 93.22 112.04 C 94.75 111.26 96.06 113.77 94.17 114.20 C 92.66 114.97 91.35 112.46 93.22 112.04 Z" />
<path fill="#eb6256" opacity="1.00" d=" M 59.58 119.79 C 62.43 118.30 65.22 116.38 68.54 116.19 C 69.04 116.98 69.54 117.77 70.04 118.56 C 66.70 119.85 63.11 119.90 59.58 119.79 Z" />
<path fill="#eb6256" opacity="1.00" d=" M 95.24 118.00 C 96.68 118.29 98.12 118.57 99.55 118.90 L 99.73 118.96 C 101.10 119.51 102.45 120.08 103.76 120.76 C 103.80 121.15 103.89 121.94 103.94 122.33 C 101.56 124.09 99.10 126.23 96.01 126.39 C 93.19 126.65 90.88 124.76 88.58 123.46 C 90.90 121.78 93.14 119.96 95.24 118.00 Z" />
</g>
<g id="#f7d1b5ff">
<path fill="#f7d1b5" opacity="1.00" d=" M 64.51 67.20 C 66.09 67.25 67.66 67.45 69.23 67.65 C 68.43 70.63 65.49 71.70 62.99 72.87 C 62.47 71.04 61.92 69.21 61.36 67.39 C 62.14 67.34 63.72 67.25 64.51 67.20 Z" />
<path fill="#f7d1b5" opacity="1.00" d=" M 78.45 67.89 C 79.07 67.65 79.70 67.46 80.35 67.32 C 80.82 67.34 81.76 67.38 82.22 67.39 C 84.21 72.43 86.92 77.78 85.59 83.34 C 84.59 89.44 79.47 93.57 77.29 99.19 C 74.69 97.14 71.51 97.42 68.67 98.82 C 68.71 102.39 68.76 105.97 68.78 109.54 C 68.49 108.28 68.19 107.01 67.90 105.76 C 61.38 106.81 57.01 113.71 49.96 112.38 C 48.95 105.05 48.90 97.57 50.64 90.33 C 52.09 87.08 54.36 84.20 55.19 80.66 C 57.90 78.55 60.63 76.47 63.12 74.09 C 64.96 73.74 66.90 73.50 68.45 72.34 C 71.52 70.32 75.07 69.27 78.45 67.89 Z" />
<path fill="#f7d1b5" opacity="1.00" d=" M 87.36 67.54 C 94.42 67.46 101.49 67.56 108.55 67.53 C 108.97 67.52 109.79 67.51 110.20 67.50 L 111.07 68.20 C 113.10 69.98 115.19 71.68 117.45 73.17 C 121.07 75.43 123.69 78.84 126.80 81.69 C 128.04 84.47 130.02 86.78 132.01 89.03 C 134.34 91.30 133.58 94.80 133.86 97.71 C 125.84 96.94 118.07 94.67 110.11 93.51 L 110.75 92.59 C 111.93 92.52 113.10 92.45 114.28 92.37 C 113.70 91.43 113.51 90.03 112.21 89.83 C 111.12 90.74 110.13 91.77 109.13 92.78 C 108.83 92.74 108.21 92.65 107.91 92.60 C 102.17 92.01 97.60 88.19 93.09 84.97 C 90.71 79.33 87.21 73.90 87.36 67.54 Z" />
<path fill="#f7d1b5" opacity="1.00" d=" M 185.65 102.33 C 188.49 101.21 191.57 101.22 194.59 101.17 C 193.94 103.37 193.87 105.77 192.81 107.81 C 186.36 113.10 177.07 110.49 171.36 105.39 C 172.80 104.35 174.32 103.44 175.83 102.50 C 179.10 102.54 182.38 102.54 185.65 102.33 Z" />
<path fill="#f7d1b5" opacity="1.00" d=" M 144.16 115.21 C 148.31 114.86 152.53 114.62 156.66 115.33 C 160.93 116.41 164.68 119.28 169.27 118.95 C 170.63 121.07 172.01 123.40 174.45 124.44 C 174.70 124.66 175.20 125.08 175.45 125.30 C 175.21 127.06 174.98 128.82 174.75 130.58 C 171.02 132.28 167.44 134.39 163.50 135.58 C 158.32 136.99 152.85 136.92 147.70 138.46 C 141.92 140.25 136.02 141.79 129.98 142.42 C 122.83 142.85 115.88 140.45 109.40 137.67 C 112.13 137.06 114.85 136.41 117.60 135.89 C 120.01 135.63 122.62 135.95 124.81 134.69 C 130.05 131.87 135.23 128.77 139.28 124.33 C 140.34 121.52 141.53 118.72 143.31 116.27 L 144.16 115.21 Z" />
<path fill="#f7d1b5" opacity="1.00" d=" M 175.73 123.08 C 181.27 120.79 187.08 118.65 193.17 118.82 C 188.59 121.49 183.86 124.02 178.69 125.36 C 178.17 125.27 177.13 125.08 176.61 124.99 C 176.39 124.51 175.95 123.56 175.73 123.08 Z" />
</g>
<g id="#dcb8a0ff">
<path fill="#dcb8a0" opacity="1.00" d=" M 111.07 68.20 C 114.30 69.22 117.44 70.50 120.45 72.05 C 121.36 72.51 122.24 73.00 123.12 73.51 C 126.48 75.55 129.09 78.56 132.28 80.83 C 134.06 84.19 135.98 87.50 138.33 90.51 C 138.85 91.76 139.37 93.01 139.87 94.27 C 140.19 95.71 140.03 97.21 140.07 98.67 C 138.37 98.74 136.67 98.81 134.98 98.88 C 134.70 98.58 134.14 98.00 133.86 97.71 C 133.58 94.80 134.34 91.30 132.01 89.03 C 130.02 86.78 128.04 84.47 126.80 81.69 C 123.69 78.84 121.07 75.43 117.45 73.17 C 115.19 71.68 113.10 69.98 111.07 68.20 Z" />
<path fill="#dcb8a0" opacity="1.00" d=" M 45.80 91.97 C 48.49 87.89 51.48 83.89 55.19 80.66 C 54.36 84.20 52.09 87.08 50.64 90.33 C 48.90 97.57 48.95 105.05 49.96 112.38 C 48.17 112.76 46.38 113.17 44.60 113.61 C 42.71 106.49 43.86 98.94 45.80 91.97 Z" />
<path fill="#dcb8a0" opacity="1.00" d=" M 107.53 96.97 C 107.63 96.84 107.82 96.59 107.92 96.46 C 110.33 96.63 112.74 96.90 115.15 97.15 C 115.17 97.60 115.21 98.50 115.23 98.95 C 112.47 98.95 109.69 99.15 107.04 100.01 C 107.19 98.99 107.35 97.98 107.53 96.97 Z" />
<path fill="#dcb8a0" opacity="1.00" d=" M 205.17 105.07 C 207.02 103.34 209.13 101.91 211.23 100.49 C 211.32 101.22 211.49 102.67 211.58 103.40 C 211.71 103.71 211.98 104.33 212.12 104.64 L 212.25 104.95 C 212.00 105.17 211.50 105.59 211.24 105.81 L 210.48 106.49 C 210.14 107.90 209.89 109.33 209.62 110.76 C 208.07 112.54 206.52 114.34 205.26 116.35 C 205.10 113.16 204.76 109.99 204.74 106.80 C 204.85 106.37 205.06 105.51 205.17 105.07 Z" />
<path fill="#dcb8a0" opacity="1.00" d=" M 139.15 116.23 C 140.53 116.25 141.92 116.26 143.31 116.27 C 141.53 118.72 140.34 121.52 139.28 124.33 C 135.23 128.77 130.05 131.87 124.81 134.69 C 122.62 135.95 120.01 135.63 117.60 135.89 C 119.77 134.83 122.03 133.63 123.15 131.37 C 123.76 131.36 124.98 131.36 125.59 131.35 C 127.98 128.83 130.45 126.35 133.32 124.36 C 135.04 121.50 136.95 118.76 139.15 116.23 Z" />
<path fill="#dcb8a0" opacity="1.00" d=" M 193.17 118.82 C 193.62 118.94 194.51 119.17 194.96 119.28 C 197.51 120.00 200.03 120.82 202.61 121.46 C 201.58 122.43 200.58 123.45 199.59 124.47 C 197.19 124.91 194.87 125.68 192.88 127.11 C 189.14 128.03 185.34 128.71 181.48 128.82 C 180.57 127.65 179.65 126.49 178.69 125.36 C 183.86 124.02 188.59 121.49 193.17 118.82 Z" />
<path fill="#dcb8a0" opacity="1.00" d=" M 110.26 201.97 C 110.83 198.85 114.78 200.30 116.15 202.05 C 116.58 208.44 116.24 214.85 116.23 221.25 C 114.14 221.25 112.05 221.24 109.96 221.23 C 109.87 214.81 110.17 208.39 110.26 201.97 M 111.33 220.16 C 112.48 219.58 114.62 219.72 114.71 218.00 C 115.24 212.99 114.77 207.93 114.89 202.90 C 114.08 202.75 112.46 202.45 111.65 202.30 C 110.28 208.18 111.65 214.21 111.33 220.16 Z" />
<path fill="#dcb8a0" opacity="1.00" d=" M 118.84 203.94 C 119.02 201.77 121.53 201.12 122.99 199.94 C 124.43 200.88 126.18 201.50 127.25 202.91 C 127.65 207.94 127.49 213.02 127.40 218.06 C 127.60 222.75 118.80 222.72 118.81 218.10 C 118.56 213.39 118.49 208.65 118.84 203.94 M 122.73 220.15 C 123.58 219.26 125.02 218.54 124.86 217.10 C 125.06 213.41 125.03 209.71 124.85 206.02 C 125.00 204.46 123.81 203.37 122.95 202.25 C 119.66 207.57 121.47 214.42 122.73 220.15 Z" />
<path fill="#dcb8a0" opacity="1.00" d=" M 96.25 201.27 C 97.39 201.27 98.52 201.27 99.66 201.27 C 100.28 203.94 100.92 206.62 101.62 209.28 C 102.96 206.75 103.73 203.98 104.24 201.17 C 105.74 201.22 107.23 201.27 108.73 201.32 C 108.68 206.85 109.00 212.39 108.51 217.91 C 108.37 219.70 107.34 222.54 105.14 220.94 C 104.62 216.68 104.92 212.39 104.91 208.13 L 103.87 208.06 C 103.80 210.35 103.73 212.65 103.67 214.94 C 102.55 214.95 101.43 214.96 100.31 214.97 C 100.01 213.55 99.70 212.14 99.39 210.74 C 98.62 214.05 98.80 217.45 98.62 220.82 C 98.03 220.95 96.85 221.20 96.26 221.33 C 96.30 214.64 96.25 207.96 96.25 201.27 Z" />
<path fill="#dcb8a0" opacity="1.00" d=" M 128.75 202.71 C 131.71 201.11 137.29 199.78 137.83 204.54 C 135.62 204.65 133.45 204.19 131.29 203.84 C 131.89 208.90 129.26 216.02 134.56 219.23 C 134.82 217.70 135.07 216.17 135.32 214.65 C 139.20 215.23 136.83 219.08 136.03 221.29 C 133.82 221.03 130.33 222.28 129.52 219.35 C 127.84 214.00 129.03 208.23 128.75 202.71 Z" />
<path fill="#dcb8a0" opacity="1.00" d=" M 143.91 202.66 C 144.45 202.67 145.53 202.70 146.07 202.72 C 146.38 209.07 146.72 215.54 145.80 221.85 C 142.58 222.18 144.13 217.52 143.57 215.48 C 142.27 215.06 140.98 214.65 139.68 214.23 C 141.01 213.99 142.34 213.75 143.68 213.51 C 143.68 209.89 143.55 206.26 143.91 202.66 Z" />
<path fill="#dcb8a0" opacity="1.00" d=" M 147.78 202.93 C 148.38 202.78 149.59 202.49 150.19 202.35 C 149.98 208.99 150.36 215.64 149.98 222.28 C 149.43 222.30 148.32 222.34 147.76 222.37 C 147.42 215.90 147.37 209.39 147.78 202.93 Z" />
<path fill="#dcb8a0" opacity="1.00" d=" M 151.02 203.90 C 150.23 201.95 154.36 201.87 153.68 204.03 C 153.94 210.25 153.63 216.48 153.69 222.70 C 153.09 222.67 151.89 222.62 151.29 222.60 C 151.24 216.36 151.32 210.13 151.02 203.90 Z" />
</g>
<g id="#dad8d8ff">
<path fill="#dad8d8" opacity="1.00" d=" M 207.72 89.34 C 209.30 91.66 210.00 94.38 210.27 97.15 C 210.57 97.91 210.84 98.67 211.10 99.44 L 211.23 100.49 C 209.13 101.91 207.02 103.34 205.17 105.07 C 206.28 100.95 207.70 96.83 207.57 92.49 C 207.61 91.70 207.68 90.13 207.72 89.34 Z" />
<path fill="#dad8d8" opacity="1.00" d=" M 134.98 98.88 C 136.67 98.81 138.37 98.74 140.07 98.67 C 139.93 102.22 140.41 105.84 139.66 109.34 C 138.27 112.82 136.40 116.11 134.02 119.00 C 133.63 112.25 135.73 105.64 134.98 98.88 Z" />
<path fill="#dad8d8" opacity="1.00" d=" M 194.96 119.28 C 199.34 116.24 203.92 112.41 204.74 106.80 C 204.76 109.99 205.10 113.16 205.26 116.35 C 204.66 118.08 204.03 119.81 203.42 121.54 L 202.61 121.46 C 200.03 120.82 197.51 120.00 194.96 119.28 Z" />
<path fill="#dad8d8" opacity="1.00" d=" M 44.60 113.61 C 46.38 113.17 48.17 112.76 49.96 112.38 C 51.02 117.60 54.04 122.05 56.48 126.69 C 58.31 130.40 62.54 132.40 63.62 136.56 C 56.06 135.17 50.91 128.87 46.41 123.16 C 46.30 122.11 46.19 121.06 46.08 120.01 C 45.44 117.91 45.02 115.76 44.60 113.61 Z" />
<path fill="#dad8d8" opacity="1.00" d=" M 181.34 130.86 C 185.05 131.94 186.23 136.21 189.42 138.13 C 190.84 140.05 192.22 142.01 193.60 143.96 C 193.66 144.55 193.78 145.72 193.84 146.30 C 196.64 152.42 197.40 159.74 195.20 166.13 C 194.31 169.39 190.59 168.60 188.04 168.80 C 186.69 167.36 185.36 165.92 183.92 164.58 C 188.34 163.63 191.47 160.44 193.71 156.69 C 191.91 151.01 189.14 145.72 186.88 140.22 C 185.89 136.54 181.28 134.94 181.34 130.86 Z" />
<path fill="#dad8d8" opacity="1.00" d=" M 74.89 150.99 C 74.94 153.04 74.90 155.11 74.90 157.17 C 73.95 157.53 73.00 157.90 72.05 158.27 C 68.99 159.00 68.72 162.77 66.26 164.27 C 64.30 165.43 62.19 166.34 60.20 167.46 C 58.40 167.46 56.61 167.47 54.81 167.45 C 53.73 166.91 52.63 166.39 51.53 165.90 C 50.10 163.00 48.89 159.40 50.60 156.36 C 50.65 157.32 50.75 159.25 50.80 160.22 C 57.55 163.25 64.18 159.23 70.10 156.21 C 72.26 155.09 73.78 153.10 74.89 150.99 Z" />
<path fill="#dad8d8" opacity="1.00" d=" M 153.62 150.06 C 155.35 152.28 156.75 154.72 157.93 157.28 C 160.53 158.51 163.21 159.78 164.93 162.20 C 167.15 163.03 169.43 163.70 171.74 164.27 C 169.40 166.17 167.02 168.11 164.16 169.15 C 158.74 171.13 153.58 173.73 148.13 175.62 C 147.81 175.74 147.17 175.99 146.86 176.11 C 140.50 175.84 134.37 178.00 128.02 177.55 C 121.87 178.00 115.91 176.24 109.79 176.09 C 103.97 175.25 98.85 172.05 93.19 170.59 C 94.55 170.16 96.07 170.09 97.33 169.41 C 102.94 172.78 109.78 172.37 116.01 173.65 C 126.03 173.77 135.93 171.57 145.69 169.45 C 149.84 168.56 153.67 166.66 157.32 164.55 C 155.25 162.37 152.76 160.39 151.51 157.58 C 150.42 154.87 152.65 152.41 153.62 150.06 Z" />
<path fill="#dad8d8" opacity="1.00" d=" M 82.87 169.85 C 87.61 166.36 93.48 164.85 99.32 165.02 C 95.54 168.49 90.57 170.16 86.33 172.96 C 86.33 173.39 86.34 174.24 86.34 174.67 C 84.44 175.30 82.54 175.95 80.63 176.58 C 78.23 182.34 71.32 181.21 66.30 181.41 C 64.30 178.26 63.40 174.65 63.64 170.92 C 64.16 170.27 64.68 169.61 65.19 168.95 C 67.30 171.43 69.22 175.11 72.95 175.15 C 77.18 175.81 79.65 171.77 82.87 169.85 Z" />
</g>
</svg>
