<?xml version="1.0" encoding="UTF-8" ?>
<!DOCTYPE svg PUBLIC "-//W3C//DTD SVG 1.1//EN" "http://www.w3.org/Graphics/SVG/1.1/DTD/svg11.dtd">
<svg width="250pt" height="250pt" viewBox="0 0 250 250" version="1.1" xmlns="http://www.w3.org/2000/svg">
<g id="#ffffffff">
<path fill="#ffffff" opacity="1.00" d=" M 0.00 0.00 L 250.00 0.00 L 250.00 250.00 L 0.00 250.00 L 0.00 0.00 M 90.80 53.08 C 88.52 55.07 86.23 57.06 84.13 59.25 C 64.01 54.72 41.85 59.71 25.99 72.99 C 13.11 83.19 4.58 98.32 1.55 114.38 C 0.57 119.56 1.76 124.79 1.18 129.99 C 0.70 136.62 2.70 143.04 4.82 149.23 C 8.72 160.49 15.77 170.65 24.94 178.25 C 32.75 184.81 41.92 190.16 52.01 192.18 C 63.81 195.65 76.53 195.20 88.26 191.66 C 100.33 203.55 115.76 211.84 132.20 215.81 C 150.81 220.37 170.86 218.90 188.58 211.61 C 205.75 205.12 220.48 192.99 231.21 178.21 C 231.89 177.21 232.52 176.17 232.94 175.03 C 241.50 163.49 245.95 149.26 247.73 135.13 C 249.84 119.69 247.70 103.72 242.15 89.20 C 237.10 76.10 229.09 64.08 218.70 54.61 C 212.57 48.43 205.25 43.53 197.64 39.36 C 182.32 31.81 165.13 27.16 147.96 28.43 C 127.04 30.57 106.22 38.49 90.80 53.08 Z" />
<path fill="#ffffff" opacity="1.00" d=" M 101.58 54.22 C 118.37 41.45 139.91 35.12 160.94 37.09 C 178.46 38.15 195.43 45.29 208.92 56.45 C 220.13 65.82 229.31 77.86 234.44 91.61 C 239.43 103.57 241.46 116.64 240.55 129.56 C 239.36 145.30 233.67 160.70 224.71 173.67 C 211.98 191.58 192.33 204.49 170.73 208.68 C 154.19 211.49 136.65 210.54 121.12 203.84 C 112.29 200.27 104.13 195.16 96.91 188.97 C 101.43 186.31 106.06 183.79 110.35 180.75 C 121.20 189.43 134.70 194.49 148.54 195.44 C 155.91 195.76 163.43 195.54 170.57 193.49 C 174.63 192.35 178.63 191.02 182.77 190.21 C 184.99 190.51 187.18 190.95 189.40 191.25 C 192.20 190.78 194.91 189.84 197.43 188.53 C 200.40 185.82 201.51 181.90 202.58 178.18 C 203.86 172.94 208.37 169.55 211.23 165.21 C 218.19 155.16 222.33 143.19 223.34 131.03 C 224.93 110.19 216.67 88.80 201.23 74.66 C 194.19 68.01 185.72 63.00 176.64 59.68 C 165.56 55.60 153.47 54.65 141.85 56.60 C 130.25 58.68 119.44 63.93 109.95 70.81 C 104.57 67.36 98.89 64.45 93.20 61.56 C 95.86 58.97 98.65 56.50 101.58 54.22 Z" />
<path fill="#ffffff" opacity="1.00" d=" M 116.31 76.11 C 125.28 70.15 135.23 65.06 146.13 64.20 C 155.82 63.37 165.83 64.05 175.01 67.45 C 183.90 71.08 192.19 76.33 198.80 83.35 C 208.89 94.29 215.09 108.83 215.52 123.75 C 216.06 138.03 211.21 152.30 202.67 163.69 C 201.38 165.50 199.30 166.43 197.48 167.61 C 194.20 164.92 189.99 163.50 185.80 164.72 C 184.06 165.06 182.44 165.81 180.87 166.60 C 176.73 170.76 174.63 176.67 176.34 182.46 C 168.08 187.75 157.90 188.02 148.42 187.60 C 136.90 186.75 125.88 182.14 116.52 175.47 C 131.70 160.72 139.83 138.77 136.86 117.70 C 135.34 105.54 130.76 93.67 122.98 84.12 C 120.85 81.37 118.53 78.77 116.31 76.11 Z" />
<path fill="#ffffff" opacity="1.00" d=" M 35.68 75.67 C 48.16 67.55 63.56 63.54 78.37 66.11 C 75.63 69.88 73.14 73.83 70.89 77.90 C 64.93 88.40 61.40 100.09 60.03 112.06 C 58.65 122.74 59.20 133.66 61.56 144.18 C 64.18 156.87 69.74 169.01 77.61 179.31 C 78.86 181.09 80.19 182.82 81.57 184.51 C 74.05 187.27 65.92 186.71 58.12 185.79 C 49.44 183.51 40.82 180.45 33.56 175.04 C 23.29 167.52 15.66 156.75 11.49 144.76 C 7.31 132.28 7.48 118.36 12.07 106.02 C 16.40 93.69 24.88 82.97 35.68 75.67 Z" />
<path fill="#ffffff" opacity="1.00" d=" M 79.20 79.39 C 81.57 75.61 83.99 71.86 86.83 68.42 C 92.86 70.16 98.68 72.85 103.52 76.90 C 93.59 87.49 86.16 100.82 84.40 115.38 C 80.87 137.04 88.76 159.75 104.17 175.23 C 99.99 178.50 95.19 180.85 90.16 182.49 C 87.62 179.74 85.32 176.78 83.15 173.73 C 76.58 164.07 71.31 153.31 69.19 141.75 C 66.74 132.15 67.21 122.14 67.65 112.33 C 69.75 100.84 73.01 89.40 79.20 79.39 Z" />
</g>
<g id="#fb91deff">
<path fill="#fb91de" opacity="1.00" d=" M 90.80 53.08 C 106.22 38.49 127.04 30.57 147.96 28.43 C 165.13 27.16 182.32 31.81 197.64 39.36 C 205.25 43.53 212.57 48.43 218.70 54.61 C 215.44 55.21 212.17 55.81 208.92 56.45 C 195.43 45.29 178.46 38.15 160.94 37.09 C 139.91 35.12 118.37 41.45 101.58 54.22 C 97.99 53.86 94.39 53.46 90.80 53.08 Z" />
</g>
<g id="#ea94e4ff">
<path fill="#ea94e4" opacity="1.00" d=" M 84.13 59.25 C 86.23 57.06 88.52 55.07 90.80 53.08 C 94.39 53.46 97.99 53.86 101.58 54.22 C 98.65 56.50 95.86 58.97 93.20 61.56 C 90.98 63.75 88.83 66.02 86.83 68.42 C 83.99 71.86 81.57 75.61 79.20 79.39 C 76.70 80.72 73.93 81.36 71.18 81.96 C 71.08 80.61 70.98 79.26 70.89 77.90 C 73.14 73.83 75.63 69.88 78.37 66.11 C 80.21 63.76 82.10 61.44 84.13 59.25 Z" />
</g>
<g id="#e595e5ff">
<path fill="#e595e5" opacity="1.00" d=" M 218.70 54.61 C 229.09 64.08 237.10 76.10 242.15 89.20 C 239.37 89.18 236.51 89.56 234.44 91.61 C 229.31 77.86 220.13 65.82 208.92 56.45 C 212.17 55.81 215.44 55.21 218.70 54.61 Z" />
</g>
<g id="#cc99ecff">
<path fill="#cc99ec" opacity="1.00" d=" M 141.85 56.60 C 153.47 54.65 165.56 55.60 176.64 59.68 C 176.10 62.27 175.56 64.86 175.01 67.45 C 165.83 64.05 155.82 63.37 146.13 64.20 C 147.61 62.60 149.05 60.96 150.47 59.31 C 147.61 58.36 144.85 57.06 141.85 56.60 Z" />
</g>
<g id="#b19df4ff">
<path fill="#b19df4" opacity="1.00" d=" M 109.95 70.81 C 119.44 63.93 130.25 58.68 141.85 56.60 C 144.85 57.06 147.61 58.36 150.47 59.31 C 149.05 60.96 147.61 62.60 146.13 64.20 C 135.23 65.06 125.28 70.15 116.31 76.11 C 118.53 78.77 120.85 81.37 122.98 84.12 C 122.26 86.52 121.52 88.92 120.76 91.32 C 120.27 91.35 119.30 91.41 118.82 91.44 C 116.30 87.64 113.28 84.18 109.54 81.55 C 107.56 79.96 105.54 78.43 103.52 76.90 C 98.68 72.85 92.86 70.16 86.83 68.42 C 88.83 66.02 90.98 63.75 93.20 61.56 C 98.89 64.45 104.57 67.36 109.95 70.81 Z" />
<path fill="#b19df4" opacity="1.00" d=" M 240.55 129.56 C 242.19 129.28 243.83 128.93 245.49 128.76 C 247.28 130.31 247.20 133.00 247.73 135.13 C 245.95 149.26 241.50 163.49 232.94 175.03 C 232.88 173.19 232.72 171.37 232.59 169.54 C 229.92 170.83 227.25 172.14 224.71 173.67 C 233.67 160.70 239.36 145.30 240.55 129.56 Z" />
</g>
<g id="#8da2feff">
<path fill="#8da2fe" opacity="1.00" d=" M 25.99 72.99 C 41.85 59.71 64.01 54.72 84.13 59.25 C 82.10 61.44 80.21 63.76 78.37 66.11 C 63.56 63.54 48.16 67.55 35.68 75.67 C 24.88 82.97 16.40 93.69 12.07 106.02 C 7.48 118.36 7.31 132.28 11.49 144.76 C 10.61 146.39 9.73 148.03 8.85 149.67 C 7.50 149.52 6.16 149.37 4.82 149.23 C 2.70 143.04 0.70 136.62 1.18 129.99 C 1.76 124.79 0.57 119.56 1.55 114.38 C 4.58 98.32 13.11 83.19 25.99 72.99 Z" />
</g>
<g id="#e295e6ff">
<path fill="#e295e6" opacity="1.00" d=" M 176.64 59.68 C 185.72 63.00 194.19 68.01 201.23 74.66 C 200.42 77.56 199.61 80.45 198.80 83.35 C 192.19 76.33 183.90 71.08 175.01 67.45 C 175.56 64.86 176.10 62.27 176.64 59.68 Z" />
</g>
<g id="#f792dfff">
<path fill="#f792df" opacity="1.00" d=" M 201.23 74.66 C 216.67 88.80 224.93 110.19 223.34 131.03 C 222.33 143.19 218.19 155.16 211.23 165.21 C 208.37 169.55 203.86 172.94 202.58 178.18 C 201.51 181.90 200.40 185.82 197.43 188.53 C 196.90 181.57 196.59 174.56 197.48 167.61 C 199.30 166.43 201.38 165.50 202.67 163.69 C 211.21 152.30 216.06 138.03 215.52 123.75 C 215.09 108.83 208.89 94.29 198.80 83.35 C 199.61 80.45 200.42 77.56 201.23 74.66 Z" />
</g>
<g id="#8fa1fdff">
<path fill="#8fa1fd" opacity="1.00" d=" M 103.52 76.90 C 105.54 78.43 107.56 79.96 109.54 81.55 C 103.81 88.18 98.69 95.49 95.71 103.79 C 94.30 107.64 93.09 111.59 92.59 115.67 C 92.04 119.61 91.68 123.58 91.74 127.56 C 91.80 130.64 92.19 133.71 92.71 136.74 C 93.29 139.96 93.95 143.16 94.85 146.30 C 97.36 152.02 99.57 158.46 104.70 162.38 C 108.87 163.49 113.34 162.44 117.57 162.01 C 113.80 167.06 109.27 171.52 104.17 175.23 C 88.76 159.75 80.87 137.04 84.40 115.38 C 86.16 100.82 93.59 87.49 103.52 76.90 Z" />
</g>
<g id="#d797e9ff">
<path fill="#d797e9" opacity="1.00" d=" M 60.03 112.06 C 61.40 100.09 64.93 88.40 70.89 77.90 C 70.98 79.26 71.08 80.61 71.18 81.96 C 73.93 81.36 76.70 80.72 79.20 79.39 C 73.01 89.40 69.75 100.84 67.65 112.33 C 67.74 109.47 67.61 106.62 67.46 103.77 C 62.78 103.65 60.93 108.21 60.03 112.06 Z" />
</g>
<g id="#f192e1ff">
<path fill="#f192e1" opacity="1.00" d=" M 109.54 81.55 C 113.28 84.18 116.30 87.64 118.82 91.44 C 120.38 93.87 121.75 96.42 123.04 99.01 C 123.12 100.48 123.15 101.95 123.18 103.42 C 117.77 103.25 112.37 102.57 106.95 102.85 C 103.12 103.01 99.46 104.21 95.74 105.00 C 95.73 104.70 95.72 104.09 95.71 103.79 C 98.69 95.49 103.81 88.18 109.54 81.55 Z" />
</g>
<g id="#d097eaff">
<path fill="#d097ea" opacity="1.00" d=" M 122.98 84.12 C 130.76 93.67 135.34 105.54 136.86 117.70 C 132.12 124.28 130.22 132.24 128.17 139.94 C 128.93 135.69 128.40 131.39 128.12 127.13 C 115.98 126.75 103.85 126.92 91.74 127.56 C 91.68 123.58 92.04 119.61 92.59 115.67 C 92.69 115.99 92.87 116.65 92.97 116.97 C 104.68 115.23 116.49 116.37 128.26 115.80 C 127.61 109.92 126.15 104.10 123.04 99.01 C 121.75 96.42 120.38 93.87 118.82 91.44 C 119.30 91.41 120.27 91.35 120.76 91.32 C 121.52 88.92 122.26 86.52 122.98 84.12 Z" />
</g>
<g id="#cd98ebff">
<path fill="#cd98eb" opacity="1.00" d=" M 234.44 91.61 C 236.51 89.56 239.37 89.18 242.15 89.20 C 247.70 103.72 249.84 119.69 247.73 135.13 C 247.20 133.00 247.28 130.31 245.49 128.76 C 243.83 128.93 242.19 129.28 240.55 129.56 C 241.46 116.64 239.43 103.57 234.44 91.61 Z" />
</g>
<g id="#e095e6ff">
<path fill="#e095e6" opacity="1.00" d=" M 123.04 99.01 C 126.15 104.10 127.61 109.92 128.26 115.80 C 116.49 116.37 104.68 115.23 92.97 116.97 C 92.87 116.65 92.69 115.99 92.59 115.67 C 93.09 111.59 94.30 107.64 95.71 103.79 C 95.72 104.09 95.73 104.70 95.74 105.00 C 99.46 104.21 103.12 103.01 106.95 102.85 C 112.37 102.57 117.77 103.25 123.18 103.42 C 123.15 101.95 123.12 100.48 123.04 99.01 Z" />
</g>
<g id="#c49aeeff">
<path fill="#c49aee" opacity="1.00" d=" M 60.03 112.06 C 60.93 108.21 62.78 103.65 67.46 103.77 C 67.61 106.62 67.74 109.47 67.65 112.33 C 67.21 122.14 66.74 132.15 69.19 141.75 C 67.62 139.82 65.84 138.08 64.11 136.30 C 63.26 138.93 62.35 141.53 61.56 144.18 C 59.20 133.66 58.65 122.74 60.03 112.06 Z" />
</g>
<g id="#eb94e3ff">
<path fill="#eb94e3" opacity="1.00" d=" M 136.86 117.70 C 139.83 138.77 131.70 160.72 116.52 175.47 C 114.56 177.34 112.50 179.10 110.35 180.75 C 106.06 183.79 101.43 186.31 96.91 188.97 C 94.54 186.93 92.30 184.76 90.16 182.49 C 95.19 180.85 99.99 178.50 104.17 175.23 C 109.27 171.52 113.80 167.06 117.57 162.01 C 120.19 158.60 122.48 154.93 124.26 151.02 C 125.46 148.17 126.56 145.29 127.48 142.34 C 127.65 141.74 128.00 140.54 128.17 139.94 C 130.22 132.24 132.12 124.28 136.86 117.70 Z" />
</g>
<g id="#c399eeff">
<path fill="#c399ee" opacity="1.00" d=" M 91.74 127.56 C 103.85 126.92 115.98 126.75 128.12 127.13 C 128.40 131.39 128.93 135.69 128.17 139.94 C 128.00 140.54 127.65 141.74 127.48 142.34 C 127.29 140.58 127.03 138.83 126.78 137.08 C 119.52 137.16 112.25 136.59 105.00 137.19 C 100.89 137.57 96.80 137.03 92.71 136.74 C 92.19 133.71 91.80 130.64 91.74 127.56 Z" />
</g>
<g id="#b69bf2ff">
<path fill="#b69bf2" opacity="1.00" d=" M 92.71 136.74 C 96.80 137.03 100.89 137.57 105.00 137.19 C 112.25 136.59 119.52 137.16 126.78 137.08 C 127.03 138.83 127.29 140.58 127.48 142.34 C 126.56 145.29 125.46 148.17 124.26 151.02 C 123.80 150.22 123.35 149.42 122.89 148.62 C 116.23 148.76 109.57 149.28 102.91 149.11 C 99.95 149.18 97.35 147.68 94.85 146.30 C 93.95 143.16 93.29 139.96 92.71 136.74 Z" />
</g>
<g id="#ae9df5ff">
<path fill="#ae9df5" opacity="1.00" d=" M 64.11 136.30 C 65.84 138.08 67.62 139.82 69.19 141.75 C 71.31 153.31 76.58 164.07 83.15 173.73 C 80.50 173.17 77.86 172.56 75.23 171.93 C 75.99 174.40 76.70 176.88 77.61 179.31 C 69.74 169.01 64.18 156.87 61.56 144.18 C 62.35 141.53 63.26 138.93 64.11 136.30 Z" />
</g>
<g id="#b29cf3ff">
<path fill="#b29cf3" opacity="1.00" d=" M 11.49 144.76 C 15.66 156.75 23.29 167.52 33.56 175.04 C 32.36 176.58 31.25 178.23 29.75 179.49 C 28.09 179.35 26.50 178.80 24.94 178.25 C 15.77 170.65 8.72 160.49 4.82 149.23 C 6.16 149.37 7.50 149.52 8.85 149.67 C 9.73 148.03 10.61 146.39 11.49 144.76 Z" />
</g>
<g id="#a79df6ff">
<path fill="#a79df6" opacity="1.00" d=" M 94.85 146.30 C 97.35 147.68 99.95 149.18 102.91 149.11 C 109.57 149.28 116.23 148.76 122.89 148.62 C 123.35 149.42 123.80 150.22 124.26 151.02 C 122.48 154.93 120.19 158.60 117.57 162.01 C 113.34 162.44 108.87 163.49 104.70 162.38 C 99.57 158.46 97.36 152.02 94.85 146.30 Z" />
</g>
<g id="#d696e8ff">
<path fill="#d696e8" opacity="1.00" d=" M 185.80 164.72 C 189.99 163.50 194.20 164.92 197.48 167.61 C 196.59 174.56 196.90 181.57 197.43 188.53 C 194.91 189.84 192.20 190.78 189.40 191.25 C 190.44 182.52 190.26 173.73 189.89 164.96 C 188.53 164.86 187.16 164.78 185.80 164.72 Z" />
</g>
<g id="#bc9bf2ff">
<path fill="#bc9bf2" opacity="1.00" d=" M 180.87 166.60 C 182.44 165.81 184.06 165.06 185.80 164.72 C 187.16 164.78 188.53 164.86 189.89 164.96 C 190.26 173.73 190.44 182.52 189.40 191.25 C 187.18 190.95 184.99 190.51 182.77 190.21 L 182.96 189.49 C 184.86 182.26 184.02 174.75 183.75 167.39 C 183.03 167.19 181.59 166.80 180.87 166.60 Z" />
</g>
<g id="#9c9ff9ff">
<path fill="#9c9ff9" opacity="1.00" d=" M 176.34 182.46 C 174.63 176.67 176.73 170.76 180.87 166.60 C 181.59 166.80 183.03 167.19 183.75 167.39 C 184.02 174.75 184.86 182.26 182.96 189.49 C 180.51 187.39 178.14 185.15 176.34 182.46 Z" />
</g>
<g id="#8ea2fdff">
<path fill="#8ea2fd" opacity="1.00" d=" M 224.71 173.67 C 227.25 172.14 229.92 170.83 232.59 169.54 C 232.72 171.37 232.88 173.19 232.94 175.03 C 232.52 176.17 231.89 177.21 231.21 178.21 C 220.48 192.99 205.75 205.12 188.58 211.61 C 170.86 218.90 150.81 220.37 132.20 215.81 C 115.76 211.84 100.33 203.55 88.26 191.66 C 85.95 189.35 83.68 187.00 81.57 184.51 C 80.19 182.82 78.86 181.09 77.61 179.31 C 76.70 176.88 75.99 174.40 75.23 171.93 C 77.86 172.56 80.50 173.17 83.15 173.73 C 85.32 176.78 87.62 179.74 90.16 182.49 C 92.30 184.76 94.54 186.93 96.91 188.97 C 104.13 195.16 112.29 200.27 121.12 203.84 C 136.65 210.54 154.19 211.49 170.73 208.68 C 192.33 204.49 211.98 191.58 224.71 173.67 Z" />
</g>
<g id="#cd99ecff">
<path fill="#cd99ec" opacity="1.00" d=" M 33.56 175.04 C 40.82 180.45 49.44 183.51 58.12 185.79 C 59.67 186.62 61.17 187.54 62.68 188.46 C 59.47 190.53 55.94 192.35 52.01 192.18 C 41.92 190.16 32.75 184.81 24.94 178.25 C 26.50 178.80 28.09 179.35 29.75 179.49 C 31.25 178.23 32.36 176.58 33.56 175.04 Z" />
</g>
<g id="#b09df4ff">
<path fill="#b09df4" opacity="1.00" d=" M 110.35 180.75 C 112.50 179.10 114.56 177.34 116.52 175.47 C 125.88 182.14 136.90 186.75 148.42 187.60 C 148.98 190.19 148.96 192.84 148.54 195.44 C 134.70 194.49 121.20 189.43 110.35 180.75 Z" />
</g>
<g id="#ce98ebff">
<path fill="#ce98eb" opacity="1.00" d=" M 176.34 182.46 C 178.14 185.15 180.51 187.39 182.96 189.49 L 182.77 190.21 C 178.63 191.02 174.63 192.35 170.57 193.49 C 163.43 195.54 155.91 195.76 148.54 195.44 C 148.96 192.84 148.98 190.19 148.42 187.60 C 157.90 188.02 168.08 187.75 176.34 182.46 Z" />
</g>
<g id="#e096e6ff">
<path fill="#e096e6" opacity="1.00" d=" M 81.57 184.51 C 83.68 187.00 85.95 189.35 88.26 191.66 C 76.53 195.20 63.81 195.65 52.01 192.18 C 55.94 192.35 59.47 190.53 62.68 188.46 C 61.17 187.54 59.67 186.62 58.12 185.79 C 65.92 186.71 74.05 187.27 81.57 184.51 Z" />
</g>
</svg>
