<?xml version="1.0" encoding="UTF-8" ?>
<!DOCTYPE svg PUBLIC "-//W3C//DTD SVG 1.1//EN" "http://www.w3.org/Graphics/SVG/1.1/DTD/svg11.dtd">
<svg width="250pt" height="250pt" viewBox="0 0 250 250" version="1.1" xmlns="http://www.w3.org/2000/svg">
<g id="#ffffffff">
<path fill="#ffffff" opacity="1.00" d=" M 0.00 0.00 L 118.56 0.00 C 93.81 1.79 69.42 10.22 49.69 25.41 C 48.67 26.19 47.67 26.98 46.68 27.78 C 44.63 29.43 42.64 31.14 40.69 32.90 C 34.74 38.29 29.39 44.33 24.65 50.81 C 19.98 57.00 15.91 63.65 12.57 70.66 C 8.59 78.65 5.89 87.19 3.57 95.79 C 3.34 96.61 3.11 97.44 2.90 98.28 C 1.46 103.98 1.22 109.90 0.00 115.66 L 0.00 0.00 Z" />
<path fill="#ffffff" opacity="1.00" d=" M 132.51 0.00 L 250.00 0.00 L 250.00 114.66 C 249.48 111.45 248.78 108.27 248.24 105.06 C 246.73 95.32 244.25 85.68 240.23 76.66 C 235.87 66.36 230.26 56.57 223.28 47.82 C 215.89 38.08 206.52 30.08 196.84 22.71 C 193.41 20.24 189.83 17.98 186.13 15.94 C 169.70 6.70 151.22 1.73 132.51 0.00 Z" />
<path fill="#ffffff" opacity="1.00" d=" M 122.66 85.26 C 123.13 85.25 124.07 85.22 124.55 85.21 C 124.76 85.92 125.18 87.34 125.39 88.04 C 125.87 88.05 126.83 88.07 127.31 88.08 C 130.44 92.81 136.54 95.93 136.70 102.20 C 134.68 102.25 132.67 102.29 130.66 102.32 C 130.60 101.88 130.48 101.00 130.43 100.56 C 129.62 99.64 128.77 98.76 127.93 97.87 C 127.84 95.48 127.77 93.10 127.71 90.71 C 125.89 91.10 123.63 90.66 122.27 92.19 C 119.48 94.97 116.88 97.95 113.77 100.40 C 113.75 102.42 113.74 104.44 113.78 106.46 C 115.82 108.28 116.67 110.82 116.91 113.47 C 117.44 113.58 118.50 113.78 119.03 113.89 C 119.26 110.06 119.39 106.24 119.43 102.41 C 121.26 102.35 123.08 102.29 124.90 102.24 C 124.86 103.99 124.83 105.74 124.80 107.50 C 124.17 107.74 122.93 108.22 122.31 108.46 C 122.22 111.87 122.13 115.27 122.03 118.68 C 121.49 118.95 120.42 119.50 119.89 119.77 C 118.23 125.07 116.73 131.01 111.63 134.10 C 110.83 129.17 109.18 123.19 112.82 118.98 L 113.41 118.16 C 113.61 116.04 113.61 113.92 113.63 111.80 C 112.24 110.45 110.85 109.09 109.47 107.72 C 107.18 109.85 105.43 113.72 101.78 113.39 C 101.99 111.86 102.21 110.34 102.42 108.81 C 105.11 106.50 107.74 104.12 110.18 101.53 C 110.83 99.63 111.50 97.70 112.63 96.02 C 115.49 92.99 118.53 90.16 121.57 87.33 C 121.85 86.81 122.39 85.78 122.66 85.26 Z" />
<path fill="#ffffff" opacity="1.00" d=" M 127.70 111.19 C 128.42 111.10 129.85 110.92 130.56 110.82 C 131.29 110.76 132.76 110.62 133.49 110.56 C 133.50 112.50 133.52 114.45 133.53 116.40 C 134.24 116.44 135.68 116.53 136.40 116.57 C 136.38 119.28 136.36 121.98 136.34 124.69 C 137.05 124.83 138.49 125.10 139.20 125.23 C 139.22 126.99 139.24 128.75 139.26 130.52 C 139.71 130.61 140.63 130.79 141.08 130.88 C 142.17 132.11 143.33 133.29 144.68 134.24 C 144.77 135.89 144.85 137.54 144.93 139.19 C 145.60 139.22 146.94 139.27 147.61 139.30 C 147.66 139.93 147.78 141.18 147.84 141.81 C 148.53 141.95 149.91 142.22 150.60 142.36 C 150.60 143.89 150.62 145.43 150.62 146.98 C 150.61 147.87 150.58 149.66 150.57 150.56 C 148.73 150.56 146.91 150.57 145.08 150.58 C 144.97 149.86 144.76 148.42 144.66 147.70 C 143.91 147.39 143.16 147.08 142.41 146.78 C 142.16 145.34 141.91 143.90 141.67 142.47 C 141.00 142.11 139.65 141.41 138.98 141.06 C 138.93 139.89 138.88 138.72 138.84 137.55 C 136.46 133.95 134.26 130.10 130.75 127.46 C 130.74 125.22 130.60 122.98 130.45 120.75 C 127.64 118.32 127.64 114.61 127.70 111.19 Z" />
<path fill="#ffffff" opacity="1.00" d=" M 98.35 115.65 C 99.65 114.88 100.98 114.19 102.32 113.49 C 102.23 115.30 102.16 117.11 101.99 118.92 C 101.04 119.60 100.10 120.28 99.16 120.96 C 101.06 121.46 102.97 121.95 104.88 122.44 C 104.87 123.08 104.85 124.34 104.84 124.97 C 104.24 125.08 103.06 125.31 102.47 125.42 C 102.36 126.86 102.26 128.31 102.16 129.75 C 101.39 130.54 100.62 131.32 99.85 132.11 C 99.69 133.26 99.53 134.41 99.38 135.57 C 98.49 136.00 97.61 136.43 96.72 136.87 C 96.49 138.14 96.26 139.40 96.02 140.67 C 95.33 141.52 94.66 142.38 94.00 143.26 C 93.99 143.46 93.95 143.87 93.94 144.08 C 93.81 146.18 93.72 148.28 93.62 150.38 C 92.94 150.50 91.59 150.74 90.92 150.86 C 90.87 152.51 90.82 154.16 90.77 155.81 C 90.21 155.99 89.08 156.37 88.52 156.56 C 88.31 157.07 87.87 158.10 87.65 158.62 C 87.22 158.88 86.35 159.41 85.91 159.68 C 85.05 160.50 84.19 161.32 83.33 162.14 C 81.45 159.59 79.24 157.30 76.86 155.22 C 77.33 153.63 77.64 151.92 78.82 150.67 C 81.85 147.14 85.04 143.72 88.51 140.60 C 88.39 138.12 87.13 136.14 85.09 134.76 C 86.88 133.22 88.67 131.68 90.48 130.16 C 90.70 128.82 90.92 127.48 91.14 126.14 C 93.14 124.09 95.05 121.92 96.34 119.35 C 97.00 118.11 97.64 116.86 98.35 115.65 Z" />
<path fill="#ffffff" opacity="1.00" d=" M 0.00 133.33 C 1.58 142.06 2.25 150.98 4.96 159.47 C 8.91 172.71 14.90 185.34 22.82 196.66 C 25.27 200.04 27.84 203.33 30.55 206.51 C 33.50 209.97 36.67 213.25 40.04 216.31 C 44.18 220.18 48.62 223.74 53.25 227.01 C 54.76 228.12 56.31 229.20 57.91 230.19 C 60.11 231.59 62.33 232.97 64.63 234.22 C 67.52 235.76 70.45 237.22 73.43 238.59 C 75.80 239.65 78.19 240.66 80.62 241.60 C 84.33 243.00 88.11 244.22 91.93 245.28 C 98.18 247.00 104.57 248.16 110.99 249.00 C 123.43 250.43 136.07 249.89 148.37 247.56 C 153.15 246.66 157.84 245.39 162.49 244.01 C 163.66 243.65 164.82 243.28 165.98 242.88 C 170.51 241.29 174.95 239.47 179.27 237.39 C 181.26 236.41 183.23 235.41 185.18 234.36 C 186.97 233.37 188.73 232.34 190.48 231.28 C 192.79 229.85 195.05 228.33 197.28 226.77 C 198.35 226.00 199.41 225.22 200.46 224.43 C 203.04 222.46 205.54 220.40 207.95 218.24 C 209.44 216.90 210.92 215.56 212.37 214.17 C 214.52 212.08 216.54 209.87 218.54 207.65 C 219.63 206.42 220.72 205.18 221.79 203.92 C 223.99 201.30 226.00 198.53 227.78 195.61 C 230.09 192.21 232.58 188.93 234.50 185.28 C 237.35 179.55 240.21 173.80 242.47 167.80 C 245.15 160.36 247.27 152.69 248.18 144.82 C 248.79 141.70 249.46 138.60 250.00 135.48 L 250.00 250.00 L 0.00 250.00 L 0.00 133.33 Z" />
<path fill="#ffffff" opacity="1.00" d=" M 71.47 148.71 C 75.03 145.43 78.49 142.04 81.94 138.64 C 81.80 140.23 82.16 141.95 81.60 143.47 C 79.28 146.06 76.49 148.21 74.34 150.97 C 72.77 152.81 71.28 154.71 69.73 156.57 C 69.15 155.70 68.59 154.83 68.03 153.96 L 67.49 153.03 C 68.77 151.55 70.06 150.07 71.47 148.71 Z" />
</g>
<g id="#7ac9f9ff">
<path fill="#7ac9f9" opacity="1.00" d=" M 118.56 0.00 L 132.51 0.00 C 151.22 1.73 169.70 6.70 186.13 15.94 C 185.56 17.06 184.98 18.19 184.41 19.31 C 182.08 19.78 179.74 20.43 177.96 22.08 C 175.74 22.75 173.59 23.67 172.00 25.41 C 169.98 25.52 167.96 25.60 165.94 25.67 C 165.25 26.53 164.57 27.40 163.89 28.27 C 162.34 28.32 160.79 28.37 159.25 28.42 C 159.25 32.42 157.30 37.50 160.97 40.45 C 160.04 41.94 159.11 43.43 158.18 44.91 C 156.83 43.76 155.49 42.60 154.15 41.44 C 153.39 43.10 152.62 44.76 151.86 46.42 C 151.34 44.82 150.83 43.22 150.31 41.62 C 148.80 42.65 147.30 43.71 145.81 44.78 C 145.10 43.68 144.38 42.57 143.66 41.47 C 142.68 42.84 141.68 44.20 140.71 45.58 C 139.66 44.48 139.29 42.09 137.44 42.24 C 136.50 42.99 135.66 43.85 134.79 44.68 C 133.86 43.55 132.93 42.43 132.01 41.31 C 131.11 42.75 130.21 44.19 129.33 45.64 C 129.09 44.64 128.83 43.65 128.57 42.67 C 128.37 42.65 127.96 42.62 127.75 42.60 C 122.35 42.46 116.94 42.64 111.53 42.58 C 111.03 41.61 110.53 40.63 110.03 39.66 C 108.55 39.65 107.07 39.65 105.60 39.65 C 105.37 39.02 104.93 37.76 104.71 37.14 C 103.06 36.90 101.41 36.66 99.75 36.42 C 99.50 35.89 99.00 34.81 98.75 34.27 C 97.26 34.11 95.77 33.94 94.29 33.77 C 94.07 33.17 93.63 31.98 93.41 31.38 C 91.92 31.34 90.44 31.31 88.95 31.27 C 88.42 30.33 87.90 29.40 87.38 28.46 C 84.99 28.40 82.61 28.34 80.23 28.27 C 79.53 27.37 78.83 26.48 78.14 25.58 C 68.66 25.52 59.17 25.77 49.69 25.41 C 69.42 10.22 93.81 1.79 118.56 0.00 Z" />
</g>
<g id="#c9e5f7ff">
<path fill="#c9e5f7" opacity="1.00" d=" M 186.13 15.94 C 189.83 17.98 193.41 20.24 196.84 22.71 C 192.75 23.03 188.79 24.12 185.01 25.66 C 184.91 29.14 184.87 32.62 184.84 36.10 C 188.72 39.57 193.85 40.37 198.89 40.20 C 198.91 42.87 198.93 45.54 198.95 48.21 C 194.37 48.33 189.78 48.33 185.20 48.16 C 185.00 47.46 184.59 46.06 184.39 45.36 C 177.07 45.33 169.75 45.52 162.43 45.23 C 162.15 43.85 161.88 42.47 161.53 41.10 L 160.97 40.45 C 157.30 37.50 159.25 32.42 159.25 28.42 C 160.79 28.37 162.34 28.32 163.89 28.27 C 164.57 27.40 165.25 26.53 165.94 25.67 C 167.96 25.60 169.98 25.52 172.00 25.41 C 173.59 23.67 175.74 22.75 177.96 22.08 C 179.74 20.43 182.08 19.78 184.41 19.31 C 184.98 18.19 185.56 17.06 186.13 15.94 Z" />
</g>
<g id="#bedbf9ff">
<path fill="#bedbf9" opacity="1.00" d=" M 185.01 25.66 C 188.79 24.12 192.75 23.03 196.84 22.71 C 206.52 30.08 215.89 38.08 223.28 47.82 C 215.18 48.42 207.06 48.07 198.95 48.21 C 198.93 45.54 198.91 42.87 198.89 40.20 C 193.85 40.37 188.72 39.57 184.84 36.10 C 184.87 32.62 184.91 29.14 185.01 25.66 Z" />
</g>
<g id="#cae6f7ff">
<path fill="#cae6f7" opacity="1.00" d=" M 46.68 27.78 C 47.67 26.98 48.67 26.19 49.69 25.41 C 59.17 25.77 68.66 25.52 78.14 25.58 C 78.83 26.48 79.53 27.37 80.23 28.27 C 82.61 28.34 84.99 28.40 87.38 28.46 C 87.90 29.40 88.42 30.33 88.95 31.27 C 90.44 31.31 91.92 31.34 93.41 31.38 C 93.63 31.98 94.07 33.17 94.29 33.77 C 95.77 33.94 97.26 34.11 98.75 34.27 C 99.00 34.81 99.50 35.89 99.75 36.42 C 101.41 36.66 103.06 36.90 104.71 37.14 C 104.93 37.76 105.37 39.02 105.60 39.65 C 107.07 39.65 108.55 39.65 110.03 39.66 C 110.53 40.63 111.03 41.61 111.53 42.58 C 116.94 42.64 122.35 42.46 127.75 42.60 C 127.75 45.33 127.75 48.06 127.75 50.79 C 125.95 50.96 124.16 51.13 122.37 51.30 C 122.19 53.08 122.01 54.85 121.83 56.62 C 120.25 56.73 118.66 56.84 117.08 56.94 C 116.60 57.83 116.13 58.71 115.66 59.60 C 113.45 59.64 111.24 59.69 109.03 59.74 C 108.33 60.63 107.63 61.52 106.93 62.41 C 99.25 62.49 91.55 62.66 83.87 62.06 C 88.68 58.21 95.21 60.65 100.82 59.62 C 102.66 57.26 105.59 56.72 108.36 56.20 C 106.97 54.48 105.62 52.69 103.86 51.32 C 98.28 56.14 90.61 53.22 83.98 53.97 C 81.66 53.73 80.05 55.44 78.49 56.85 C 69.95 57.32 61.38 56.55 52.84 57.26 C 51.52 58.63 51.12 62.63 48.72 61.75 C 48.18 60.24 47.82 58.68 47.41 57.14 C 44.06 57.00 40.71 56.90 37.36 56.80 C 37.06 54.97 36.75 53.15 36.45 51.32 C 32.52 51.11 28.59 50.95 24.65 50.81 C 29.39 44.33 34.74 38.29 40.69 32.90 C 43.76 34.59 46.88 36.19 49.93 37.90 C 52.85 40.53 56.93 39.94 60.53 40.26 C 62.46 41.55 64.52 42.60 66.65 43.49 C 67.47 42.33 68.29 41.17 69.11 40.01 C 74.39 39.98 79.66 39.94 84.94 39.87 C 84.92 39.33 84.90 38.23 84.88 37.69 C 80.38 36.41 76.24 34.21 72.57 31.32 C 70.86 31.13 69.14 30.94 67.43 30.73 C 65.75 29.64 64.18 28.03 62.03 28.09 C 56.92 27.84 51.79 28.14 46.68 27.78 Z" />
</g>
<g id="#bfdbf9ff">
<path fill="#bfdbf9" opacity="1.00" d=" M 40.69 32.90 C 42.64 31.14 44.63 29.43 46.68 27.78 C 51.79 28.14 56.92 27.84 62.03 28.09 C 64.18 28.03 65.75 29.64 67.43 30.73 C 69.14 30.94 70.86 31.13 72.57 31.32 C 76.24 34.21 80.38 36.41 84.88 37.69 C 84.90 38.23 84.92 39.33 84.94 39.87 C 79.66 39.94 74.39 39.98 69.11 40.01 C 68.29 41.17 67.47 42.33 66.65 43.49 C 64.52 42.60 62.46 41.55 60.53 40.26 C 56.93 39.94 52.85 40.53 49.93 37.90 C 46.88 36.19 43.76 34.59 40.69 32.90 Z" />
</g>
<g id="#8ad1f9ff">
<path fill="#8ad1f9" opacity="1.00" d=" M 160.97 40.45 L 161.53 41.10 C 161.88 42.47 162.15 43.85 162.43 45.23 C 169.75 45.52 177.07 45.33 184.39 45.36 C 184.59 46.06 185.00 47.46 185.20 48.16 C 189.78 48.33 194.37 48.33 198.95 48.21 C 207.06 48.07 215.18 48.42 223.28 47.82 C 230.26 56.57 235.87 66.36 240.23 76.66 C 238.18 76.61 236.14 76.56 234.11 76.48 C 231.57 72.40 226.37 73.93 222.38 73.66 C 222.11 73.12 221.59 72.05 221.32 71.51 C 219.83 71.17 218.34 70.82 216.86 70.45 C 215.23 68.68 212.90 68.29 210.63 68.00 C 210.40 68.74 209.92 70.23 209.69 70.98 C 207.65 70.96 205.62 70.95 203.59 70.90 C 197.79 69.36 191.93 71.21 186.07 71.11 C 141.73 71.02 97.39 71.03 53.05 71.05 C 47.70 71.10 42.24 71.60 37.04 70.03 C 40.61 69.07 44.31 68.84 47.99 68.92 C 48.70 67.96 49.40 67.00 50.11 66.04 C 60.87 66.09 71.63 66.17 82.39 66.04 C 82.39 65.75 82.39 65.18 82.39 64.89 C 82.39 64.30 82.39 63.13 82.39 62.55 C 82.76 62.43 83.50 62.19 83.87 62.06 C 91.55 62.66 99.25 62.49 106.93 62.41 C 107.63 61.52 108.33 60.63 109.03 59.74 C 111.24 59.69 113.45 59.64 115.66 59.60 C 116.13 58.71 116.60 57.83 117.08 56.94 C 118.66 56.84 120.25 56.73 121.83 56.62 C 122.01 54.85 122.19 53.08 122.37 51.30 C 124.16 51.13 125.95 50.96 127.75 50.79 C 127.75 48.06 127.75 45.33 127.75 42.60 C 127.96 42.62 128.37 42.65 128.57 42.67 C 128.83 43.65 129.09 44.64 129.33 45.64 C 130.21 44.19 131.11 42.75 132.01 41.31 C 132.93 42.43 133.86 43.55 134.79 44.68 C 135.66 43.85 136.50 42.99 137.44 42.24 C 139.29 42.09 139.66 44.48 140.71 45.58 C 141.68 44.20 142.68 42.84 143.66 41.47 C 144.38 42.57 145.10 43.68 145.81 44.78 C 147.30 43.71 148.80 42.65 150.31 41.62 C 150.83 43.22 151.34 44.82 151.86 46.42 C 152.62 44.76 153.39 43.10 154.15 41.44 C 155.49 42.60 156.83 43.76 158.18 44.91 C 159.11 43.43 160.04 41.94 160.97 40.45 Z" />
</g>
<g id="#c2ddf9ff">
<path fill="#c2ddf9" opacity="1.00" d=" M 12.57 70.66 C 15.91 63.65 19.98 57.00 24.65 50.81 C 28.59 50.95 32.52 51.11 36.45 51.32 C 36.75 53.15 37.06 54.97 37.36 56.80 C 40.71 56.90 44.06 57.00 47.41 57.14 C 47.82 58.68 48.18 60.24 48.72 61.75 C 51.12 62.63 51.52 58.63 52.84 57.26 C 61.38 56.55 69.95 57.32 78.49 56.85 C 80.05 55.44 81.66 53.73 83.98 53.97 C 90.61 53.22 98.28 56.14 103.86 51.32 C 105.62 52.69 106.97 54.48 108.36 56.20 C 105.59 56.72 102.66 57.26 100.82 59.62 C 95.21 60.65 88.68 58.21 83.87 62.06 C 83.50 62.19 82.76 62.43 82.39 62.55 C 82.39 63.13 82.39 64.30 82.39 64.89 C 72.62 65.39 62.84 65.03 53.07 65.10 C 50.15 64.97 47.77 66.88 45.05 67.58 C 42.49 68.04 39.88 67.98 37.30 68.06 C 37.07 68.72 36.63 70.04 36.41 70.71 C 28.46 70.89 20.52 70.82 12.57 70.66 Z" />
</g>
<g id="#9bd7f9ff">
<path fill="#9bd7f9" opacity="1.00" d=" M 45.05 67.58 C 47.77 66.88 50.15 64.97 53.07 65.10 C 62.84 65.03 72.62 65.39 82.39 64.89 C 82.39 65.18 82.39 65.75 82.39 66.04 C 71.63 66.17 60.87 66.09 50.11 66.04 C 49.40 67.00 48.70 67.96 47.99 68.92 C 44.31 68.84 40.61 69.07 37.04 70.03 C 42.24 71.60 47.70 71.10 53.05 71.05 C 97.39 71.03 141.73 71.02 186.07 71.11 C 191.93 71.21 197.79 69.36 203.59 70.90 C 201.37 71.08 199.15 71.31 196.93 71.53 C 195.49 73.18 194.04 74.82 192.57 76.45 C 190.27 76.80 187.81 76.72 185.69 77.77 C 182.75 79.74 180.46 82.50 177.91 84.93 C 176.81 85.17 175.71 85.42 174.62 85.68 C 172.75 87.21 170.56 88.39 168.06 88.10 C 154.48 87.68 140.89 87.91 127.31 88.08 C 126.83 88.07 125.87 88.05 125.39 88.04 C 125.18 87.34 124.76 85.92 124.55 85.21 C 124.07 85.22 123.13 85.25 122.66 85.26 C 122.39 85.78 121.85 86.81 121.57 87.33 C 118.53 90.16 115.49 92.99 112.63 96.02 C 76.29 95.73 39.92 96.09 3.57 95.79 C 5.89 87.19 8.59 78.65 12.57 70.66 C 20.52 70.82 28.46 70.89 36.41 70.71 C 36.63 70.04 37.07 68.72 37.30 68.06 C 39.88 67.98 42.49 68.04 45.05 67.58 Z" />
</g>
<g id="#d6ebf7ff">
<path fill="#d6ebf7" opacity="1.00" d=" M 210.63 68.00 C 212.90 68.29 215.23 68.68 216.86 70.45 C 218.34 70.82 219.83 71.17 221.32 71.51 C 221.59 72.05 222.11 73.12 222.38 73.66 C 226.37 73.93 231.57 72.40 234.11 76.48 C 236.14 76.56 238.18 76.61 240.23 76.66 C 244.25 85.68 246.73 95.32 248.24 105.06 C 245.27 105.03 242.31 104.98 239.35 104.92 C 239.05 103.07 238.76 101.22 238.46 99.37 C 232.88 99.41 226.92 101.12 221.58 99.02 C 221.59 97.41 221.81 95.81 221.98 94.21 C 224.64 94.06 227.30 93.89 229.96 93.72 C 229.95 93.12 229.91 91.92 229.90 91.32 C 227.06 91.11 224.06 91.02 221.67 89.29 C 218.59 87.12 214.69 87.97 211.19 87.98 C 209.85 89.38 208.51 90.78 207.17 92.17 C 207.06 94.45 206.94 96.72 206.83 99.00 C 204.21 99.12 201.57 99.34 198.95 99.11 C 194.95 98.84 193.22 93.27 189.00 93.92 C 186.03 95.35 184.16 98.29 181.86 100.55 C 183.75 102.49 185.65 104.42 187.57 106.33 C 186.59 107.77 185.61 109.22 184.65 110.67 C 177.42 110.84 170.20 111.10 162.97 110.94 C 161.04 111.11 159.43 110.01 157.92 108.97 C 153.43 104.86 146.76 105.62 142.19 101.71 C 142.12 102.52 141.99 104.14 141.92 104.95 C 141.37 104.95 140.28 104.94 139.74 104.94 C 139.44 104.01 139.16 103.08 138.89 102.15 C 138.34 102.16 137.25 102.18 136.70 102.20 C 136.54 95.93 130.44 92.81 127.31 88.08 C 140.89 87.91 154.48 87.68 168.06 88.10 C 170.56 88.39 172.75 87.21 174.62 85.68 C 175.71 85.42 176.81 85.17 177.91 84.93 C 180.46 82.50 182.75 79.74 185.69 77.77 C 187.81 76.72 190.27 76.80 192.57 76.45 C 194.04 74.82 195.49 73.18 196.93 71.53 C 199.15 71.31 201.37 71.08 203.59 70.90 C 205.62 70.95 207.65 70.96 209.69 70.98 C 209.92 70.23 210.40 68.74 210.63 68.00 Z" />
</g>
<g id="#cfe1f9ff">
<path fill="#cfe1f9" opacity="1.00" d=" M 207.17 92.17 C 208.51 90.78 209.85 89.38 211.19 87.98 C 214.69 87.97 218.59 87.12 221.67 89.29 C 224.06 91.02 227.06 91.11 229.90 91.32 C 229.91 91.92 229.95 93.12 229.96 93.72 C 227.30 93.89 224.64 94.06 221.98 94.21 C 221.81 95.81 221.59 97.41 221.58 99.02 C 226.92 101.12 232.88 99.41 238.46 99.37 C 238.76 101.22 239.05 103.07 239.35 104.92 C 242.31 104.98 245.27 105.03 248.24 105.06 C 248.78 108.27 249.48 111.45 250.00 114.66 L 250.00 119.79 C 248.46 119.60 246.93 119.32 245.39 119.34 C 243.38 120.94 242.03 123.28 239.81 124.62 C 234.07 125.61 228.20 124.84 222.40 124.77 C 221.81 122.90 221.21 121.03 220.62 119.16 C 212.90 118.87 205.17 119.24 197.44 118.95 C 193.87 115.25 189.54 112.30 184.65 110.67 C 185.61 109.22 186.59 107.77 187.57 106.33 C 185.65 104.42 183.75 102.49 181.86 100.55 C 184.16 98.29 186.03 95.35 189.00 93.92 C 193.22 93.27 194.95 98.84 198.95 99.11 C 201.57 99.34 204.21 99.12 206.83 99.00 C 206.94 96.72 207.06 94.45 207.17 92.17 Z" />
</g>
<g id="#cbf1f3ff">
<path fill="#cbf1f3" opacity="1.00" d=" M 122.27 92.19 C 123.63 90.66 125.89 91.10 127.71 90.71 C 127.77 93.10 127.84 95.48 127.93 97.87 C 128.77 98.76 129.62 99.64 130.43 100.56 C 130.48 101.00 130.60 101.88 130.66 102.32 C 130.76 105.16 130.63 107.99 130.56 110.82 C 129.85 110.92 128.42 111.10 127.70 111.19 L 127.46 111.24 C 126.98 114.12 126.54 117.01 125.95 119.88 C 124.97 119.58 123.01 118.98 122.03 118.68 C 122.13 115.27 122.22 111.87 122.31 108.46 C 122.93 108.22 124.17 107.74 124.80 107.50 C 124.83 105.74 124.86 103.99 124.90 102.24 C 123.08 102.29 121.26 102.35 119.43 102.41 C 119.39 106.24 119.26 110.06 119.03 113.89 C 118.50 113.78 117.44 113.58 116.91 113.47 C 116.67 110.82 115.82 108.28 113.78 106.46 C 113.74 104.44 113.75 102.42 113.77 100.40 C 116.88 97.95 119.48 94.97 122.27 92.19 Z" />
<path fill="#cbf1f3" opacity="1.00" d=" M 101.78 113.39 C 105.43 113.72 107.18 109.85 109.47 107.72 C 110.85 109.09 112.24 110.45 113.63 111.80 C 113.61 113.92 113.61 116.04 113.41 118.16 L 112.82 118.98 C 109.21 119.23 105.60 118.93 101.99 118.92 C 102.16 117.11 102.23 115.30 102.32 113.49 C 100.98 114.19 99.65 114.88 98.35 115.65 C 98.66 115.09 99.29 113.97 99.60 113.41 C 100.15 113.41 101.24 113.40 101.78 113.39 Z" />
<path fill="#cbf1f3" opacity="1.00" d=" M 132.55 147.63 C 134.52 145.28 136.65 143.07 138.98 141.06 C 139.65 141.41 141.00 142.11 141.67 142.47 C 141.91 143.90 142.16 145.34 142.41 146.78 C 143.16 147.08 143.91 147.39 144.66 147.70 C 143.97 147.74 142.59 147.81 141.90 147.85 C 141.22 147.89 139.86 147.96 139.18 148.00 C 139.20 149.79 139.21 151.58 139.22 153.38 C 138.51 153.39 137.09 153.43 136.38 153.45 C 136.38 155.29 136.37 157.12 136.37 158.96 C 135.64 159.06 134.19 159.26 133.46 159.36 C 133.50 161.13 133.53 162.89 133.57 164.66 C 132.90 164.69 131.56 164.77 130.89 164.80 C 130.81 165.26 130.66 166.16 130.58 166.61 C 127.00 168.08 123.50 170.51 119.45 170.05 C 118.70 169.99 117.22 169.87 116.47 169.82 C 116.52 167.53 116.54 165.25 116.54 162.97 C 117.46 162.30 118.38 161.63 119.30 160.96 C 119.32 158.62 119.35 156.29 119.40 153.95 C 119.96 153.63 121.10 152.98 121.66 152.66 C 121.73 152.16 121.85 151.18 121.92 150.68 L 122.00 150.00 C 122.43 150.14 123.31 150.40 123.74 150.53 C 124.53 149.68 125.32 148.83 126.11 147.99 C 128.25 147.87 130.40 147.76 132.55 147.63 Z" />
<path fill="#cbf1f3" opacity="1.00" d=" M 99.36 149.83 L 99.82 150.30 C 103.00 150.87 106.27 150.84 109.45 150.28 L 108.95 150.71 C 107.74 151.90 106.59 153.13 105.43 154.37 C 105.22 155.79 105.00 157.21 104.79 158.63 C 104.19 158.86 103.01 159.31 102.42 159.54 C 102.32 160.95 102.23 162.36 102.13 163.77 C 100.40 165.21 98.49 166.50 97.15 168.34 C 96.71 169.89 96.54 171.50 96.30 173.10 C 95.64 173.10 94.33 173.11 93.67 173.12 C 93.68 169.77 93.05 165.82 96.26 163.67 C 96.44 162.45 96.62 161.24 96.79 160.03 C 97.67 159.33 98.55 158.64 99.44 157.95 C 99.45 155.24 99.49 152.53 99.36 149.83 Z" />
<path fill="#cbf1f3" opacity="1.00" d=" M 74.34 150.97 C 74.64 151.06 75.24 151.25 75.54 151.35 C 75.99 152.62 76.39 153.90 76.84 155.18 L 76.86 155.22 C 79.24 157.30 81.45 159.59 83.33 162.14 C 82.74 163.88 82.14 165.62 81.41 167.31 C 81.15 167.16 80.65 166.85 80.39 166.70 C 79.81 165.49 79.56 164.18 79.17 162.92 L 78.95 162.61 C 78.61 162.20 77.95 161.38 77.61 160.97 C 77.20 160.56 76.37 159.73 75.95 159.32 C 74.46 159.25 72.96 159.18 71.47 159.12 C 71.25 159.66 70.82 160.75 70.61 161.29 C 70.08 161.68 69.03 162.45 68.50 162.83 C 68.38 159.87 68.27 156.91 68.03 153.96 C 68.59 154.83 69.15 155.70 69.73 156.57 C 71.28 154.71 72.77 152.81 74.34 150.97 Z" />
</g>
<g id="#b0dff9ff">
<path fill="#b0dff9" opacity="1.00" d=" M 2.90 98.28 C 3.11 97.44 3.34 96.61 3.57 95.79 C 39.92 96.09 76.29 95.73 112.63 96.02 C 111.50 97.70 110.83 99.63 110.18 101.53 C 107.74 104.12 105.11 106.50 102.42 108.81 C 102.21 110.34 101.99 111.86 101.78 113.39 C 101.24 113.40 100.15 113.41 99.60 113.41 C 99.29 113.97 98.66 115.09 98.35 115.65 C 97.64 116.86 97.00 118.11 96.34 119.35 C 89.22 119.30 82.10 119.07 74.99 119.46 C 71.64 123.39 65.99 121.60 61.53 121.64 C 59.84 120.61 58.18 119.21 56.08 119.29 C 51.08 119.06 46.09 119.40 41.09 119.31 C 40.29 118.36 39.50 117.41 38.70 116.46 C 37.42 116.44 36.14 116.42 34.86 116.41 C 34.57 115.83 33.98 114.67 33.69 114.08 C 32.10 113.81 30.52 113.54 28.93 113.26 C 28.32 112.46 27.71 111.65 27.09 110.85 C 24.28 110.70 21.17 110.83 19.04 108.64 C 17.53 108.21 16.02 107.81 14.51 107.41 C 14.21 106.93 13.59 105.96 13.28 105.47 C 12.06 105.37 10.84 105.26 9.62 105.17 C 7.65 102.62 5.37 100.33 2.90 98.28 Z" />
</g>
<g id="#e6f4fcff">
<path fill="#e6f4fc" opacity="1.00" d=" M 0.00 115.66 C 1.22 109.90 1.46 103.98 2.90 98.28 C 2.93 100.46 2.96 102.64 3.00 104.83 C 5.21 104.93 7.42 105.03 9.62 105.17 C 10.84 105.26 12.06 105.37 13.28 105.47 C 13.59 105.96 14.21 106.93 14.51 107.41 C 16.02 107.81 17.53 108.21 19.04 108.64 C 21.17 110.83 24.28 110.70 27.09 110.85 C 27.71 111.65 28.32 112.46 28.93 113.26 C 30.52 113.54 32.10 113.81 33.69 114.08 C 33.98 114.67 34.57 115.83 34.86 116.41 C 36.14 116.42 37.42 116.44 38.70 116.46 C 39.50 117.41 40.29 118.36 41.09 119.31 C 46.09 119.40 51.08 119.06 56.08 119.29 C 58.18 119.21 59.84 120.61 61.53 121.64 C 65.99 121.60 71.64 123.39 74.99 119.46 C 82.10 119.07 89.22 119.30 96.34 119.35 C 95.05 121.92 93.14 124.09 91.14 126.14 C 90.92 127.48 90.70 128.82 90.48 130.16 C 88.67 131.68 86.88 133.22 85.09 134.76 C 87.13 136.14 88.39 138.12 88.51 140.60 C 85.04 143.72 81.85 147.14 78.82 150.67 C 77.64 151.92 77.33 153.63 76.86 155.22 L 76.84 155.18 C 76.39 153.90 75.99 152.62 75.54 151.35 C 75.24 151.25 74.64 151.06 74.34 150.97 C 76.49 148.21 79.28 146.06 81.60 143.47 C 82.16 141.95 81.80 140.23 81.94 138.64 C 78.49 142.04 75.03 145.43 71.47 148.71 C 68.59 147.98 65.76 146.94 63.58 144.84 C 60.52 144.75 57.45 144.81 54.39 144.94 C 54.14 145.61 53.64 146.96 53.39 147.64 C 49.39 147.63 45.40 147.63 41.41 147.81 C 38.73 151.48 34.04 150.21 30.21 151.12 C 27.87 151.74 25.71 152.86 23.50 153.82 C 22.94 154.53 22.38 155.23 21.82 155.93 C 18.79 156.02 15.76 156.14 12.73 156.38 C 10.59 158.36 7.78 159.09 4.96 159.47 C 2.25 150.98 1.58 142.06 0.00 133.33 L 0.00 115.66 Z" />
</g>
<g id="#d0e2f9ff">
<path fill="#d0e2f9" opacity="1.00" d=" M 2.90 98.28 C 5.37 100.33 7.65 102.62 9.62 105.17 C 7.42 105.03 5.21 104.93 3.00 104.83 C 2.96 102.64 2.93 100.46 2.90 98.28 Z" />
</g>
<g id="#5b7b9cff">
<path fill="#5b7b9c" opacity="1.00" d=" M 130.56 110.82 C 130.63 107.99 130.76 105.16 130.66 102.32 C 132.67 102.29 134.68 102.25 136.70 102.20 C 137.25 102.18 138.34 102.16 138.89 102.15 C 139.16 103.08 139.44 104.01 139.74 104.94 C 140.28 104.94 141.37 104.95 141.92 104.95 L 141.94 105.77 C 141.13 105.83 139.50 105.94 138.68 106.00 C 139.44 111.92 145.07 115.13 149.00 118.92 C 149.46 118.97 150.37 119.07 150.83 119.13 C 151.43 119.18 152.64 119.28 153.25 119.34 C 153.50 119.81 153.99 120.77 154.24 121.25 C 154.57 121.69 155.23 122.57 155.56 123.01 C 153.36 122.60 153.55 125.51 153.09 126.90 C 156.29 128.95 159.11 131.71 159.78 135.62 C 163.16 139.17 167.73 142.17 168.43 147.44 C 169.50 147.67 170.57 147.91 171.64 148.16 C 174.07 149.72 176.87 150.50 179.75 150.68 C 176.79 150.48 173.82 150.57 170.86 150.59 C 170.51 151.49 170.15 152.39 169.80 153.29 C 167.21 153.56 164.63 153.87 162.06 154.23 C 161.50 154.15 160.38 154.00 159.82 153.92 C 159.37 154.46 158.46 155.54 158.00 156.08 C 157.69 156.12 157.07 156.20 156.76 156.24 C 155.84 154.90 154.91 153.58 153.99 152.25 C 153.37 150.19 152.60 148.11 150.62 146.98 C 150.62 145.43 150.60 143.89 150.60 142.36 C 149.91 142.22 148.53 141.95 147.84 141.81 C 147.78 141.18 147.66 139.93 147.61 139.30 C 146.94 139.27 145.60 139.22 144.93 139.19 C 144.85 137.54 144.77 135.89 144.68 134.24 C 143.33 133.29 142.17 132.11 141.08 130.88 C 140.63 130.79 139.71 130.61 139.26 130.52 C 139.24 128.75 139.22 126.99 139.20 125.23 C 138.49 125.10 137.05 124.83 136.34 124.69 C 136.36 121.98 136.38 119.28 136.40 116.57 C 135.68 116.53 134.24 116.44 133.53 116.40 C 133.52 114.45 133.50 112.50 133.49 110.56 C 132.76 110.62 131.29 110.76 130.56 110.82 M 156.10 144.71 C 156.15 145.57 156.25 147.29 156.30 148.14 C 157.25 147.73 158.20 147.31 159.14 146.86 C 159.90 144.57 157.60 144.93 156.10 144.71 M 158.81 147.76 C 159.17 149.68 160.43 151.26 161.35 152.94 C 162.65 152.98 163.95 153.00 165.25 153.01 C 163.87 150.65 162.07 147.17 158.81 147.76 Z" />
<path fill="#5b7b9c" opacity="1.00" d=" M 81.93 167.91 C 83.59 167.79 84.86 168.78 86.05 169.81 C 86.33 170.19 86.90 170.96 87.18 171.34 C 87.51 171.70 88.18 172.42 88.51 172.77 L 89.04 173.28 C 90.72 173.61 92.41 173.85 94.11 174.11 C 92.85 175.64 91.59 177.19 90.35 178.74 C 92.40 178.78 94.45 178.83 96.51 178.87 C 96.62 177.16 96.72 175.45 96.83 173.74 C 98.58 173.71 100.33 173.69 102.09 173.67 C 102.21 174.58 102.45 176.39 102.57 177.29 C 102.30 177.53 101.75 178.01 101.47 178.25 C 101.11 178.57 100.38 179.21 100.02 179.53 C 99.26 180.23 98.52 180.93 97.78 181.65 C 94.59 181.74 91.51 180.96 88.85 179.19 C 88.20 179.99 87.54 180.80 86.88 181.61 C 84.23 181.37 81.59 181.10 78.95 180.81 C 80.09 179.83 81.23 178.86 82.38 177.89 C 82.41 174.56 82.38 171.22 81.93 167.91 Z" />
<path fill="#5b7b9c" opacity="1.00" d=" M 68.62 173.36 C 69.24 173.30 70.48 173.19 71.10 173.13 C 70.78 175.02 71.41 177.38 69.82 178.81 C 65.67 183.02 61.63 187.36 57.14 191.21 C 56.90 192.55 56.66 193.90 56.42 195.25 C 53.86 197.61 51.31 199.99 48.93 202.54 C 48.09 206.13 45.65 208.89 42.89 211.18 C 42.73 212.59 42.57 214.00 42.41 215.42 C 41.82 215.64 40.64 216.09 40.04 216.31 C 36.67 213.25 33.50 209.97 30.55 206.51 C 32.12 205.00 33.69 203.49 35.26 201.97 C 36.57 201.77 37.88 201.56 39.18 201.35 C 40.57 199.81 41.96 198.27 43.40 196.78 C 49.59 195.25 52.93 189.40 57.56 185.55 C 59.82 184.02 59.54 181.28 59.61 178.90 C 60.10 178.78 61.10 178.56 61.59 178.45 C 62.18 177.78 62.76 177.11 63.35 176.45 C 64.80 176.23 66.26 176.02 67.71 175.81 C 67.94 175.19 68.40 173.97 68.62 173.36 Z" />
<path fill="#5b7b9c" opacity="1.00" d=" M 77.22 181.05 C 80.48 183.19 80.14 188.22 77.65 190.82 C 74.34 194.49 70.37 197.55 67.46 201.59 C 69.34 201.59 71.21 201.59 73.09 201.57 C 76.21 198.15 79.17 194.54 82.72 191.54 C 84.11 190.24 86.10 191.12 87.74 191.24 C 87.81 191.65 87.94 192.46 88.00 192.87 C 87.43 192.99 86.28 193.21 85.70 193.32 C 81.11 199.54 75.14 204.51 69.80 210.05 C 68.49 210.21 67.18 210.38 65.87 210.56 C 63.79 213.92 60.62 216.30 56.59 216.69 C 57.41 217.52 58.23 218.37 59.07 219.19 C 57.54 218.93 56.01 218.72 54.48 218.51 C 54.23 217.93 53.73 216.78 53.48 216.20 C 51.75 216.00 50.02 215.80 48.29 215.60 C 48.31 214.19 48.32 212.77 48.34 211.35 C 49.67 210.06 51.00 208.76 52.33 207.47 C 53.52 207.37 54.72 207.28 55.92 207.19 C 56.48 206.46 57.05 205.73 57.62 205.01 C 60.31 204.07 62.87 202.78 65.21 201.14 C 65.31 199.71 65.43 198.28 65.54 196.85 C 69.22 193.49 72.76 189.97 76.46 186.64 C 76.70 184.77 76.95 182.90 77.22 181.05 Z" />
<path fill="#5b7b9c" opacity="1.00" d=" M 111.63 193.24 C 112.90 193.23 114.18 193.22 115.46 193.22 C 122.40 193.22 129.35 193.25 136.29 193.24 C 136.24 193.87 136.13 195.13 136.07 195.77 C 134.45 195.93 132.83 196.10 131.22 196.28 C 131.01 196.88 130.60 198.10 130.39 198.70 C 127.59 198.77 124.78 198.83 121.98 198.90 C 122.00 198.09 122.06 196.47 122.09 195.66 C 119.57 195.96 117.15 196.76 115.25 198.49 C 113.28 198.73 111.31 198.94 109.34 199.15 C 107.46 200.99 105.76 203.13 103.39 204.36 C 99.36 205.33 95.15 204.68 91.04 204.62 C 94.30 204.32 97.61 204.56 100.84 203.95 C 105.18 201.26 108.33 197.07 111.63 193.24 Z" />
<path fill="#5b7b9c" opacity="1.00" d=" M 82.62 204.87 C 83.08 204.52 84.01 203.82 84.47 203.47 C 82.71 205.63 82.59 208.33 83.28 210.93 C 84.31 209.78 85.33 208.63 86.33 207.47 C 87.87 207.34 89.40 207.23 90.93 207.11 C 90.72 209.24 91.22 211.84 89.29 213.33 C 85.57 216.99 81.83 220.64 78.35 224.54 C 76.87 223.30 75.39 222.05 73.92 220.81 C 75.41 218.75 76.57 216.48 77.35 214.05 C 80.02 211.58 82.31 208.65 82.62 204.87 Z" />
</g>
<g id="#bbe4faff">
<path fill="#bbe4fa" opacity="1.00" d=" M 142.19 101.71 C 146.76 105.62 153.43 104.86 157.92 108.97 C 159.43 110.01 161.04 111.11 162.97 110.94 C 170.20 111.10 177.42 110.84 184.65 110.67 C 189.54 112.30 193.87 115.25 197.44 118.95 C 205.17 119.24 212.90 118.87 220.62 119.16 C 221.21 121.03 221.81 122.90 222.40 124.77 C 228.20 124.84 234.07 125.61 239.81 124.62 C 242.03 123.28 243.38 120.94 245.39 119.34 C 246.93 119.32 248.46 119.60 250.00 119.79 L 250.00 135.48 C 249.46 138.60 248.79 141.70 248.18 144.82 C 247.49 145.97 246.76 147.11 246.03 148.25 C 244.99 147.09 243.95 145.93 242.92 144.77 C 236.97 144.88 231.00 144.79 225.05 144.99 C 222.91 144.68 221.78 146.66 220.42 147.90 C 207.66 147.72 194.88 147.42 182.12 147.81 C 181.94 148.59 181.58 150.16 181.41 150.95 C 180.85 150.85 180.30 150.76 179.75 150.68 C 179.36 150.06 178.60 148.84 178.22 148.22 C 177.76 147.97 176.83 147.47 176.37 147.22 C 176.27 146.72 176.07 145.72 175.98 145.21 C 175.33 145.08 174.03 144.81 173.38 144.68 C 173.32 144.10 173.20 142.93 173.14 142.35 C 172.65 142.18 171.68 141.84 171.20 141.67 C 170.24 140.40 169.03 139.38 167.78 138.42 C 167.71 137.92 167.57 136.93 167.50 136.43 C 166.83 136.40 165.49 136.34 164.82 136.30 C 164.78 135.62 164.69 134.25 164.65 133.56 C 163.94 133.53 162.54 133.47 161.84 133.44 C 161.83 131.64 161.83 129.84 161.83 128.04 C 161.21 127.95 159.96 127.76 159.34 127.66 C 159.21 127.16 158.96 126.16 158.83 125.65 C 158.32 125.28 157.29 124.52 156.78 124.14 C 156.47 123.86 155.86 123.29 155.56 123.01 C 155.23 122.57 154.57 121.69 154.24 121.25 C 153.99 120.77 153.50 119.81 153.25 119.34 C 152.64 119.28 151.43 119.18 150.83 119.13 C 150.70 116.60 150.78 113.71 147.86 112.84 C 147.74 112.53 147.50 111.91 147.38 111.60 C 146.28 110.52 145.15 109.47 143.97 108.47 C 143.56 108.18 142.73 107.61 142.31 107.32 C 142.22 106.93 142.04 106.15 141.94 105.77 L 141.92 104.95 C 141.99 104.14 142.12 102.52 142.19 101.71 Z" />
</g>
<g id="#425a72ff">
<path fill="#425a72" opacity="1.00" d=" M 138.68 106.00 C 139.50 105.94 141.13 105.83 141.94 105.77 C 142.04 106.15 142.22 106.93 142.31 107.32 C 142.73 107.61 143.56 108.18 143.97 108.47 C 145.15 109.47 146.28 110.52 147.38 111.60 C 147.50 111.91 147.74 112.53 147.86 112.84 C 150.78 113.71 150.70 116.60 150.83 119.13 C 150.37 119.07 149.46 118.97 149.00 118.92 C 145.07 115.13 139.44 111.92 138.68 106.00 Z" />
<path fill="#425a72" opacity="1.00" d=" M 153.09 126.90 C 153.55 125.51 153.36 122.60 155.56 123.01 C 155.86 123.29 156.47 123.86 156.78 124.14 C 157.29 124.52 158.32 125.28 158.83 125.65 C 158.96 126.16 159.21 127.16 159.34 127.66 C 159.96 127.76 161.21 127.95 161.83 128.04 C 161.83 129.84 161.83 131.64 161.84 133.44 C 162.54 133.47 163.94 133.53 164.65 133.56 C 164.69 134.25 164.78 135.62 164.82 136.30 C 165.49 136.34 166.83 136.40 167.50 136.43 C 167.57 136.93 167.71 137.92 167.78 138.42 C 169.03 139.38 170.24 140.40 171.20 141.67 C 171.68 141.84 172.65 142.18 173.14 142.35 C 173.20 142.93 173.32 144.10 173.38 144.68 C 174.03 144.81 175.33 145.08 175.98 145.21 C 176.07 145.72 176.27 146.72 176.37 147.22 C 176.83 147.47 177.76 147.97 178.22 148.22 C 178.60 148.84 179.36 150.06 179.75 150.68 C 176.87 150.50 174.07 149.72 171.64 148.16 C 170.57 147.91 169.50 147.67 168.43 147.44 C 167.73 142.17 163.16 139.17 159.78 135.62 C 159.11 131.71 156.29 128.95 153.09 126.90 Z" />
<path fill="#425a72" opacity="1.00" d=" M 136.38 153.45 C 137.09 153.43 138.51 153.39 139.22 153.38 C 139.23 154.03 139.24 155.34 139.25 155.99 C 139.94 156.10 141.33 156.33 142.03 156.44 C 142.09 158.24 142.14 160.04 142.20 161.84 C 141.57 161.87 140.32 161.94 139.70 161.98 C 139.52 162.65 139.18 163.99 139.00 164.66 C 137.20 164.70 135.40 164.73 133.60 164.77 C 133.56 165.45 133.49 166.81 133.45 167.49 C 132.41 167.58 131.37 167.68 130.34 167.78 L 130.58 166.61 C 130.66 166.16 130.81 165.26 130.89 164.80 C 131.56 164.77 132.90 164.69 133.57 164.66 C 133.53 162.89 133.50 161.13 133.46 159.36 C 134.19 159.26 135.64 159.06 136.37 158.96 C 136.37 157.12 136.38 155.29 136.38 153.45 Z" />
</g>
<g id="#cde4efff">
<path fill="#cde4ef" opacity="1.00" d=" M 127.46 111.24 L 127.70 111.19 C 127.64 114.61 127.64 118.32 130.45 120.75 C 130.60 122.98 130.74 125.22 130.75 127.46 C 130.70 129.08 130.61 130.70 130.53 132.32 C 129.68 132.88 128.82 133.44 127.97 134.00 C 127.70 135.29 127.41 136.58 127.13 137.87 C 126.09 139.86 125.07 141.85 124.03 143.84 C 122.73 145.66 122.10 147.79 122.00 150.00 L 121.92 150.68 C 117.59 150.57 113.27 150.57 108.95 150.71 L 109.45 150.28 C 109.73 150.06 110.31 149.62 110.59 149.41 C 110.71 146.05 110.85 142.69 111.01 139.33 C 112.51 139.13 114.01 138.92 115.51 138.71 C 116.01 134.71 118.87 131.99 122.08 129.90 C 122.27 128.66 122.46 127.41 122.67 126.17 C 124.58 124.56 125.41 122.24 125.95 119.88 C 126.54 117.01 126.98 114.12 127.46 111.24 Z" />
<path fill="#cde4ef" opacity="1.00" d=" M 102.47 125.42 C 103.06 125.31 104.24 125.08 104.84 124.97 C 104.75 129.27 104.89 133.58 105.08 137.88 C 104.28 138.71 103.50 139.54 102.71 140.38 C 102.09 143.77 101.13 147.10 99.82 150.30 L 99.36 149.83 C 97.64 147.83 95.78 145.96 93.94 144.08 C 93.95 143.87 93.99 143.46 94.00 143.26 C 94.66 142.38 95.33 141.52 96.02 140.67 C 96.26 139.40 96.49 138.14 96.72 136.87 C 97.61 136.43 98.49 136.00 99.38 135.57 C 99.53 134.41 99.69 133.26 99.85 132.11 C 100.62 131.32 101.39 130.54 102.16 129.75 C 102.26 128.31 102.36 126.86 102.47 125.42 Z" />
</g>
<g id="#e8f6f7ff">
<path fill="#e8f6f7" opacity="1.00" d=" M 99.16 120.96 C 100.10 120.28 101.04 119.60 101.99 118.92 C 105.60 118.93 109.21 119.23 112.82 118.98 C 109.18 123.19 110.83 129.17 111.63 134.10 C 116.73 131.01 118.23 125.07 119.89 119.77 C 120.42 119.50 121.49 118.95 122.03 118.68 C 123.01 118.98 124.97 119.58 125.95 119.88 C 125.41 122.24 124.58 124.56 122.67 126.17 C 122.46 127.41 122.27 128.66 122.08 129.90 C 118.87 131.99 116.01 134.71 115.51 138.71 C 114.01 138.92 112.51 139.13 111.01 139.33 C 110.85 142.69 110.71 146.05 110.59 149.41 C 110.31 149.62 109.73 150.06 109.45 150.28 C 106.27 150.84 103.00 150.87 99.82 150.30 C 101.13 147.10 102.09 143.77 102.71 140.38 C 103.50 139.54 104.28 138.71 105.08 137.88 C 104.89 133.58 104.75 129.27 104.84 124.97 C 104.85 124.34 104.87 123.08 104.88 122.44 C 102.97 121.95 101.06 121.46 99.16 120.96 Z" />
</g>
<g id="#e6f4f4ff">
<path fill="#e6f4f4" opacity="1.00" d=" M 130.75 127.46 C 134.26 130.10 136.46 133.95 138.84 137.55 C 138.88 138.72 138.93 139.89 138.98 141.06 C 136.65 143.07 134.52 145.28 132.55 147.63 C 130.40 147.76 128.25 147.87 126.11 147.99 C 125.32 148.83 124.53 149.68 123.74 150.53 C 123.31 150.40 122.43 150.14 122.00 150.00 C 122.10 147.79 122.73 145.66 124.03 143.84 C 125.07 141.85 126.09 139.86 127.13 137.87 C 127.41 136.58 127.70 135.29 127.97 134.00 C 128.82 133.44 129.68 132.88 130.53 132.32 C 130.61 130.70 130.70 129.08 130.75 127.46 Z" />
</g>
<g id="#bde4f9ff">
<path fill="#bde4f9" opacity="1.00" d=" M 54.39 144.94 C 57.45 144.81 60.52 144.75 63.58 144.84 C 65.76 146.94 68.59 147.98 71.47 148.71 C 70.06 150.07 68.77 151.55 67.49 153.03 C 66.98 153.16 65.95 153.43 65.43 153.56 C 65.39 154.22 65.31 155.53 65.27 156.19 C 64.60 156.23 63.26 156.33 62.59 156.38 C 62.52 156.84 62.36 157.76 62.29 158.22 C 61.10 159.29 59.94 160.39 58.87 161.58 C 58.40 161.75 57.46 162.11 56.99 162.28 C 56.90 162.87 56.72 164.05 56.64 164.64 C 56.05 164.70 54.89 164.83 54.31 164.89 C 54.14 165.38 53.80 166.36 53.63 166.84 C 52.40 167.84 51.34 169.02 50.34 170.25 C 49.85 170.32 48.88 170.48 48.39 170.55 C 48.35 171.22 48.28 172.57 48.24 173.24 C 47.57 173.28 46.24 173.35 45.57 173.39 C 45.48 173.87 45.32 174.83 45.24 175.30 C 44.03 176.32 42.85 177.38 41.86 178.61 C 41.36 178.79 40.37 179.15 39.87 179.32 C 39.81 179.90 39.70 181.06 39.65 181.64 C 39.03 181.73 37.80 181.93 37.18 182.02 C 37.05 182.69 36.77 184.03 36.63 184.69 C 34.87 184.66 33.11 184.64 31.35 184.62 C 31.33 185.32 31.28 186.72 31.26 187.42 C 30.58 187.45 29.22 187.51 28.53 187.54 C 28.48 188.20 28.36 189.54 28.30 190.20 C 27.83 190.30 26.87 190.50 26.40 190.61 C 25.36 191.96 24.12 193.14 22.72 194.14 C 22.75 194.77 22.80 196.03 22.82 196.66 C 14.90 185.34 8.91 172.71 4.96 159.47 C 7.78 159.09 10.59 158.36 12.73 156.38 C 15.76 156.14 18.79 156.02 21.82 155.93 C 22.38 155.23 22.94 154.53 23.50 153.82 C 25.71 152.86 27.87 151.74 30.21 151.12 C 34.04 150.21 38.73 151.48 41.41 147.81 C 45.40 147.63 49.39 147.63 53.39 147.64 C 53.64 146.96 54.14 145.61 54.39 144.94 Z" />
<path fill="#bde4f9" opacity="1.00" d=" M 222.60 187.93 C 223.61 186.76 224.69 185.66 225.75 184.54 C 226.64 185.39 227.54 186.25 228.43 187.10 C 230.15 185.65 232.20 184.68 234.50 185.28 C 232.58 188.93 230.09 192.21 227.78 195.61 C 227.65 195.13 227.39 194.16 227.25 193.67 C 226.58 193.45 225.23 193.02 224.55 192.80 C 224.51 192.23 224.43 191.10 224.39 190.53 C 223.80 190.41 222.63 190.18 222.04 190.06 C 222.18 189.53 222.46 188.47 222.60 187.93 Z" />
</g>
<g id="#87c6e4ff">
<path fill="#87c6e4" opacity="1.00" d=" M 93.94 144.08 C 95.78 145.96 97.64 147.83 99.36 149.83 C 99.49 152.53 99.45 155.24 99.44 157.95 C 98.55 158.64 97.67 159.33 96.79 160.03 C 96.62 161.24 96.44 162.45 96.26 163.67 C 93.05 165.82 93.68 169.77 93.67 173.12 C 91.94 173.07 90.22 172.97 88.51 172.77 C 88.18 172.42 87.51 171.70 87.18 171.34 C 86.90 170.96 86.33 170.19 86.05 169.81 C 84.86 168.78 83.59 167.79 81.93 167.91 C 81.30 167.88 80.05 167.82 79.43 167.79 C 79.26 166.06 79.09 164.34 78.95 162.61 L 79.17 162.92 C 79.56 164.18 79.81 165.49 80.39 166.70 C 80.65 166.85 81.15 167.16 81.41 167.31 C 82.14 165.62 82.74 163.88 83.33 162.14 C 84.19 161.32 85.05 160.50 85.91 159.68 C 86.35 159.41 87.22 158.88 87.65 158.62 C 87.87 158.10 88.31 157.07 88.52 156.56 C 89.08 156.37 90.21 155.99 90.77 155.81 C 90.82 154.16 90.87 152.51 90.92 150.86 C 91.59 150.74 92.94 150.50 93.62 150.38 C 93.72 148.28 93.81 146.18 93.94 144.08 Z" />
<path fill="#87c6e4" opacity="1.00" d=" M 105.43 154.37 C 106.59 153.13 107.74 151.90 108.95 150.71 C 113.27 150.57 117.59 150.57 121.92 150.68 C 121.85 151.18 121.73 152.16 121.66 152.66 C 121.10 152.98 119.96 153.63 119.40 153.95 C 119.35 156.29 119.32 158.62 119.30 160.96 C 118.38 161.63 117.46 162.30 116.54 162.97 C 116.54 165.25 116.52 167.53 116.47 169.82 C 115.04 170.79 113.71 171.90 112.39 173.02 C 110.01 173.17 107.64 173.28 105.26 173.38 C 105.21 173.90 105.09 174.92 105.03 175.44 C 104.20 176.04 103.38 176.65 102.57 177.29 C 102.45 176.39 102.21 174.58 102.09 173.67 L 101.90 173.03 C 100.03 173.00 98.16 173.06 96.30 173.10 C 96.54 171.50 96.71 169.89 97.15 168.34 C 98.49 166.50 100.40 165.21 102.13 163.77 C 102.23 162.36 102.32 160.95 102.42 159.54 C 103.01 159.31 104.19 158.86 104.79 158.63 C 105.00 157.21 105.22 155.79 105.43 154.37 Z" />
</g>
<g id="#47627bff">
<path fill="#47627b" opacity="1.00" d=" M 156.10 144.71 C 157.60 144.93 159.90 144.57 159.14 146.86 C 158.20 147.31 157.25 147.73 156.30 148.14 C 156.25 147.29 156.15 145.57 156.10 144.71 Z" />
</g>
<g id="#e4f4fdff">
<path fill="#e4f4fd" opacity="1.00" d=" M 220.42 147.90 C 221.78 146.66 222.91 144.68 225.05 144.99 C 231.00 144.79 236.97 144.88 242.92 144.77 C 243.95 145.93 244.99 147.09 246.03 148.25 C 246.76 147.11 247.49 145.97 248.18 144.82 C 247.27 152.69 245.15 160.36 242.47 167.80 C 238.67 167.90 234.87 168.00 231.08 168.10 C 230.31 167.02 229.54 165.94 228.78 164.86 C 226.93 165.00 225.06 165.02 223.25 165.42 C 219.98 167.27 218.01 170.77 214.73 172.61 C 212.20 173.45 209.48 173.11 206.86 173.10 C 206.35 173.08 205.32 173.04 204.81 173.03 C 201.77 169.36 198.44 165.96 195.31 162.36 C 193.83 162.07 192.35 161.79 190.87 161.51 C 187.76 157.95 184.52 154.50 181.41 150.95 C 181.58 150.16 181.94 148.59 182.12 147.81 C 194.88 147.42 207.66 147.72 220.42 147.90 Z" />
</g>
<g id="#88c7e5ff">
<path fill="#88c7e5" opacity="1.00" d=" M 139.18 148.00 C 139.86 147.96 141.22 147.89 141.90 147.85 C 142.01 149.65 142.11 151.45 142.21 153.25 C 142.79 153.32 143.95 153.46 144.53 153.53 C 144.71 154.15 145.08 155.41 145.26 156.03 C 145.85 156.15 147.04 156.38 147.63 156.50 C 147.69 157.16 147.79 158.49 147.85 159.16 L 147.39 159.18 C 146.86 159.22 145.81 159.29 145.28 159.33 C 145.25 159.94 145.18 161.15 145.14 161.76 C 144.40 161.78 142.94 161.82 142.20 161.84 C 142.14 160.04 142.09 158.24 142.03 156.44 C 141.33 156.33 139.94 156.10 139.25 155.99 C 139.24 155.34 139.23 154.03 139.22 153.38 C 139.21 151.58 139.20 149.79 139.18 148.00 Z" />
</g>
<g id="#425b73ff">
<path fill="#425b73" opacity="1.00" d=" M 141.90 147.85 C 142.59 147.81 143.97 147.74 144.66 147.70 C 144.76 148.42 144.97 149.86 145.08 150.58 C 146.91 150.57 148.73 150.56 150.57 150.56 C 150.58 149.66 150.61 147.87 150.62 146.98 C 152.60 148.11 153.37 150.19 153.99 152.25 C 154.91 153.58 155.84 154.90 156.76 156.24 C 155.95 156.30 154.32 156.43 153.51 156.49 C 153.48 157.13 153.42 158.42 153.39 159.07 C 151.54 159.09 149.69 159.11 147.85 159.16 C 147.79 158.49 147.69 157.16 147.63 156.50 C 147.04 156.38 145.85 156.15 145.26 156.03 C 145.08 155.41 144.71 154.15 144.53 153.53 C 143.95 153.46 142.79 153.32 142.21 153.25 C 142.11 151.45 142.01 149.65 141.90 147.85 Z" />
<path fill="#425b73" opacity="1.00" d=" M 65.43 153.56 C 65.95 153.43 66.98 153.16 67.49 153.03 L 68.03 153.96 C 68.27 156.91 68.38 159.87 68.50 162.83 C 68.30 163.05 67.90 163.49 67.70 163.71 C 63.86 168.23 59.26 172.01 55.14 176.26 C 53.59 177.68 54.16 180.02 53.78 181.88 C 54.38 181.84 55.57 181.74 56.16 181.69 C 56.49 181.13 57.14 180.00 57.47 179.43 C 58.00 179.30 59.07 179.03 59.61 178.90 C 59.54 181.28 59.82 184.02 57.56 185.55 C 52.93 189.40 49.59 195.25 43.40 196.78 C 41.96 198.27 40.57 199.81 39.18 201.35 C 37.88 201.56 36.57 201.77 35.26 201.97 C 33.69 203.49 32.12 205.00 30.55 206.51 C 27.84 203.33 25.27 200.04 22.82 196.66 C 22.80 196.03 22.75 194.77 22.72 194.14 C 24.12 193.14 25.36 191.96 26.40 190.61 C 26.87 190.50 27.83 190.30 28.30 190.20 C 28.36 189.54 28.48 188.20 28.53 187.54 C 29.22 187.51 30.58 187.45 31.26 187.42 C 31.28 186.72 31.33 185.32 31.35 184.62 C 33.11 184.64 34.87 184.66 36.63 184.69 C 36.77 184.03 37.05 182.69 37.18 182.02 C 37.80 181.93 39.03 181.73 39.65 181.64 C 39.70 181.06 39.81 179.90 39.87 179.32 C 40.37 179.15 41.36 178.79 41.86 178.61 C 42.85 177.38 44.03 176.32 45.24 175.30 C 45.32 174.83 45.48 173.87 45.57 173.39 C 46.24 173.35 47.57 173.28 48.24 173.24 C 48.28 172.57 48.35 171.22 48.39 170.55 C 48.88 170.48 49.85 170.32 50.34 170.25 C 51.34 169.02 52.40 167.84 53.63 166.84 C 53.80 166.36 54.14 165.38 54.31 164.89 C 54.89 164.83 56.05 164.70 56.64 164.64 C 56.72 164.05 56.90 162.87 56.99 162.28 C 57.46 162.11 58.40 161.75 58.87 161.58 C 59.94 160.39 61.10 159.29 62.29 158.22 C 62.36 157.76 62.52 156.84 62.59 156.38 C 63.26 156.33 64.60 156.23 65.27 156.19 C 65.31 155.53 65.39 154.22 65.43 153.56 Z" />
<path fill="#425b73" opacity="1.00" d=" M 204.31 184.68 C 208.10 184.61 211.90 184.64 215.70 184.73 C 215.83 185.36 216.10 186.61 216.24 187.23 C 217.71 187.57 219.21 187.86 220.68 188.26 C 221.02 188.71 221.70 189.61 222.04 190.06 C 222.63 190.18 223.80 190.41 224.39 190.53 C 224.43 191.10 224.51 192.23 224.55 192.80 C 225.23 193.02 226.58 193.45 227.25 193.67 C 227.39 194.16 227.65 195.13 227.78 195.61 C 226.00 198.53 223.99 201.30 221.79 203.92 C 218.93 200.88 215.77 197.76 215.27 193.38 C 213.90 193.26 212.53 193.14 211.16 193.03 C 208.68 190.41 206.37 187.64 204.31 184.68 Z" />
<path fill="#425b73" opacity="1.00" d=" M 85.70 193.32 C 86.28 193.21 87.43 192.99 88.00 192.87 C 88.98 193.61 89.99 194.30 91.03 194.96 C 90.12 195.52 89.20 196.08 88.28 196.65 C 88.19 198.07 88.09 199.50 88.00 200.93 C 86.81 201.76 85.62 202.58 84.47 203.47 C 84.01 203.82 83.08 204.52 82.62 204.87 C 82.31 208.65 80.02 211.58 77.35 214.05 C 76.57 216.48 75.41 218.75 73.92 220.81 C 75.39 222.05 76.87 223.30 78.35 224.54 C 81.83 220.64 85.57 216.99 89.29 213.33 C 91.22 211.84 90.72 209.24 90.93 207.11 C 90.96 206.49 91.02 205.25 91.04 204.62 C 95.15 204.68 99.36 205.33 103.39 204.36 C 105.76 203.13 107.46 200.99 109.34 199.15 C 111.31 198.94 113.28 198.73 115.25 198.49 C 117.15 196.76 119.57 195.96 122.09 195.66 C 122.06 196.47 122.00 198.09 121.98 198.90 C 121.97 199.57 121.96 200.91 121.95 201.58 C 120.39 201.74 118.84 201.91 117.29 202.08 C 114.83 204.78 112.33 207.44 109.80 210.07 C 107.58 210.10 105.35 210.13 103.13 210.16 C 99.81 214.04 96.82 218.99 91.23 219.63 C 91.03 221.09 90.84 222.54 90.65 224.01 C 87.16 224.24 83.45 223.73 80.12 225.02 C 77.10 226.55 77.12 230.18 76.50 233.05 C 76.19 235.22 74.58 236.83 73.43 238.59 C 70.45 237.22 67.52 235.76 64.63 234.22 C 64.68 232.95 64.72 231.68 64.77 230.42 C 62.48 230.37 60.19 230.34 57.91 230.19 C 56.31 229.20 54.76 228.12 53.25 227.01 C 54.06 224.06 57.27 224.58 59.63 224.18 C 59.64 222.57 59.66 220.96 59.68 219.36 L 59.07 219.19 C 58.23 218.37 57.41 217.52 56.59 216.69 C 60.62 216.30 63.79 213.92 65.87 210.56 C 67.18 210.38 68.49 210.21 69.80 210.05 C 75.14 204.51 81.11 199.54 85.70 193.32 Z" />
<path fill="#425b73" opacity="1.00" d=" M 175.50 193.40 C 179.23 193.22 182.96 193.20 186.70 193.23 C 187.24 194.05 187.78 194.87 188.32 195.69 C 189.76 195.91 191.20 196.13 192.65 196.35 C 192.89 196.90 193.38 198.00 193.62 198.55 C 196.93 198.78 200.83 198.38 203.01 201.46 C 204.99 201.59 206.99 201.69 208.98 201.79 C 210.70 203.59 212.42 205.40 214.14 207.22 C 215.60 207.36 217.07 207.50 218.54 207.65 C 216.54 209.87 214.52 212.08 212.37 214.17 C 210.15 211.68 207.85 209.25 205.47 206.90 C 204.95 208.14 204.44 209.38 203.92 210.62 C 201.79 208.76 199.75 206.80 197.78 204.77 C 196.48 204.64 195.19 204.51 193.91 204.38 C 192.37 202.50 190.96 200.43 188.92 199.05 C 186.37 198.68 183.78 199.01 181.22 199.07 C 178.78 197.79 177.08 195.58 175.50 193.40 Z" />
<path fill="#425b73" opacity="1.00" d=" M 88.40 233.02 C 91.35 233.00 94.30 232.99 97.25 233.01 C 97.41 237.45 94.06 240.28 90.91 242.79 C 91.17 243.41 91.68 244.66 91.93 245.28 C 88.11 244.22 84.33 243.00 80.62 241.60 C 81.44 240.75 82.25 239.91 83.07 239.07 C 84.61 238.89 86.15 238.72 87.68 238.54 C 87.92 236.70 88.16 234.86 88.40 233.02 Z" />
</g>
<g id="#47627cff">
<path fill="#47627c" opacity="1.00" d=" M 158.81 147.76 C 162.07 147.17 163.87 150.65 165.25 153.01 C 163.95 153.00 162.65 152.98 161.35 152.94 C 160.43 151.26 159.17 149.68 158.81 147.76 Z" />
</g>
<g id="#bac3ccff">
<path fill="#bac3cc" opacity="1.00" d=" M 179.75 150.68 C 180.30 150.76 180.85 150.85 181.41 150.95 C 184.52 154.50 187.76 157.95 190.87 161.51 C 192.35 161.79 193.83 162.07 195.31 162.36 C 198.44 165.96 201.77 169.36 204.81 173.03 C 201.67 172.96 198.54 173.14 195.41 173.32 C 188.83 174.20 183.41 169.72 177.27 168.38 C 176.68 168.81 175.50 169.68 174.91 170.11 C 171.18 169.47 167.61 168.00 163.79 167.95 C 165.28 166.34 166.90 164.82 168.06 162.94 C 168.22 159.39 164.57 157.69 162.01 156.12 C 162.02 155.65 162.04 154.70 162.06 154.23 C 164.63 153.87 167.21 153.56 169.80 153.29 C 170.15 152.39 170.51 151.49 170.86 150.59 C 173.82 150.57 176.79 150.48 179.75 150.68 Z" />
<path fill="#bac3cc" opacity="1.00" d=" M 139.70 161.98 C 140.32 161.94 141.57 161.87 142.20 161.84 C 142.94 161.82 144.40 161.78 145.14 161.76 C 145.05 164.54 145.01 167.32 144.94 170.10 C 143.06 170.23 141.19 170.37 139.32 170.50 C 139.15 171.70 139.00 172.90 138.86 174.10 C 138.45 173.92 137.62 173.55 137.21 173.36 C 135.45 175.43 134.20 177.83 133.72 180.52 C 135.18 180.86 136.65 181.20 138.09 181.64 L 138.60 182.44 C 137.06 182.31 135.52 182.25 133.98 182.18 C 133.41 181.26 132.85 180.34 132.29 179.43 C 130.75 179.33 129.21 179.24 127.67 179.13 C 127.39 175.12 128.10 171.17 130.34 167.78 C 131.37 167.68 132.41 167.58 133.45 167.49 C 133.49 166.81 133.56 165.45 133.60 164.77 C 135.40 164.73 137.20 164.70 139.00 164.66 C 139.18 163.99 139.52 162.65 139.70 161.98 Z" />
</g>
<g id="#bec4d9ff">
<path fill="#bec4d9" opacity="1.00" d=" M 159.82 153.92 C 160.38 154.00 161.50 154.15 162.06 154.23 C 162.04 154.70 162.02 155.65 162.01 156.12 C 164.57 157.69 168.22 159.39 168.06 162.94 C 166.90 164.82 165.28 166.34 163.79 167.95 C 161.63 167.84 159.44 168.00 157.32 167.54 C 155.72 166.60 154.44 165.24 153.08 164.01 C 153.19 162.36 153.30 160.72 153.39 159.07 C 153.42 158.42 153.48 157.13 153.51 156.49 C 154.32 156.43 155.95 156.30 156.76 156.24 C 157.07 156.20 157.69 156.12 158.00 156.08 C 158.46 155.54 159.37 154.46 159.82 153.92 Z" />
</g>
<g id="#6fa7c5ff">
<path fill="#6fa7c5" opacity="1.00" d=" M 71.47 159.12 C 72.96 159.18 74.46 159.25 75.95 159.32 C 76.37 159.73 77.20 160.56 77.61 160.97 C 77.95 161.38 78.61 162.20 78.95 162.61 C 79.09 164.34 79.26 166.06 79.43 167.79 C 80.05 167.82 81.30 167.88 81.93 167.91 C 82.38 171.22 82.41 174.56 82.38 177.89 C 81.23 178.86 80.09 179.83 78.95 180.81 C 81.59 181.10 84.23 181.37 86.88 181.61 C 87.54 180.80 88.20 179.99 88.85 179.19 C 91.51 180.96 94.59 181.74 97.78 181.65 C 98.52 180.93 99.26 180.23 100.02 179.53 C 99.88 180.09 99.61 181.21 99.48 181.77 C 96.61 181.85 93.74 181.94 90.88 182.02 C 90.64 183.19 90.43 184.37 90.23 185.55 C 89.30 184.37 88.33 183.21 87.37 182.06 C 84.83 182.10 82.29 182.13 79.75 182.16 C 79.72 184.93 79.70 187.70 79.69 190.47 C 81.52 190.26 83.35 190.05 85.18 189.85 L 87.96 189.75 C 87.90 190.12 87.80 190.87 87.74 191.24 C 86.10 191.12 84.11 190.24 82.72 191.54 C 79.17 194.54 76.21 198.15 73.09 201.57 C 71.21 201.59 69.34 201.59 67.46 201.59 C 70.37 197.55 74.34 194.49 77.65 190.82 C 80.14 188.22 80.48 183.19 77.22 181.05 C 76.95 182.90 76.70 184.77 76.46 186.64 C 72.76 189.97 69.22 193.49 65.54 196.85 C 65.43 198.28 65.31 199.71 65.21 201.14 C 62.87 202.78 60.31 204.07 57.62 205.01 C 57.05 205.73 56.48 206.46 55.92 207.19 C 54.72 207.28 53.52 207.37 52.33 207.47 C 51.00 208.76 49.67 210.06 48.34 211.35 C 48.32 212.77 48.31 214.19 48.29 215.60 C 50.02 215.80 51.75 216.00 53.48 216.20 C 53.73 216.78 54.23 217.93 54.48 218.51 C 56.01 218.72 57.54 218.93 59.07 219.19 L 59.68 219.36 C 59.66 220.96 59.64 222.57 59.63 224.18 C 57.27 224.58 54.06 224.06 53.25 227.01 C 48.62 223.74 44.18 220.18 40.04 216.31 C 40.64 216.09 41.82 215.64 42.41 215.42 C 42.57 214.00 42.73 212.59 42.89 211.18 C 45.65 208.89 48.09 206.13 48.93 202.54 C 51.31 199.99 53.86 197.61 56.42 195.25 C 56.66 193.90 56.90 192.55 57.14 191.21 C 61.63 187.36 65.67 183.02 69.82 178.81 C 71.41 177.38 70.78 175.02 71.10 173.13 C 70.48 173.19 69.24 173.30 68.62 173.36 C 68.40 173.97 67.94 175.19 67.71 175.81 C 66.26 176.02 64.80 176.23 63.35 176.45 C 62.76 177.11 62.18 177.78 61.59 178.45 C 61.10 178.56 60.10 178.78 59.61 178.90 C 59.07 179.03 58.00 179.30 57.47 179.43 C 57.14 180.00 56.49 181.13 56.16 181.69 C 55.57 181.74 54.38 181.84 53.78 181.88 C 54.16 180.02 53.59 177.68 55.14 176.26 C 59.26 172.01 63.86 168.23 67.70 163.71 C 67.90 163.49 68.30 163.05 68.50 162.83 C 69.03 162.45 70.08 161.68 70.61 161.29 C 70.82 160.75 71.25 159.66 71.47 159.12 Z" />
<path fill="#6fa7c5" opacity="1.00" d=" M 88.00 192.87 C 89.90 193.02 91.80 193.10 93.70 193.17 C 99.68 193.27 105.65 193.22 111.63 193.24 C 108.33 197.07 105.18 201.26 100.84 203.95 C 97.61 204.56 94.30 204.32 91.04 204.62 C 91.02 205.25 90.96 206.49 90.93 207.11 C 89.40 207.23 87.87 207.34 86.33 207.47 C 85.33 208.63 84.31 209.78 83.28 210.93 C 82.59 208.33 82.71 205.63 84.47 203.47 C 85.62 202.58 86.81 201.76 88.00 200.93 C 88.09 199.50 88.19 198.07 88.28 196.65 C 89.20 196.08 90.12 195.52 91.03 194.96 C 89.99 194.30 88.98 193.61 88.00 192.87 Z" />
</g>
<g id="#d3eaf5ff">
<path fill="#d3eaf5" opacity="1.00" d=" M 145.28 159.33 C 145.81 159.29 146.86 159.22 147.39 159.18 C 147.63 163.39 147.31 167.67 148.27 171.80 C 149.35 175.08 152.79 176.25 155.87 176.79 C 155.92 178.43 155.96 180.08 156.01 181.72 C 152.63 181.71 149.26 181.66 145.89 181.58 C 143.50 179.13 141.00 176.78 138.86 174.10 C 139.00 172.90 139.15 171.70 139.32 170.50 C 141.19 170.37 143.06 170.23 144.94 170.10 C 145.01 167.32 145.05 164.54 145.14 161.76 C 145.18 161.15 145.25 159.94 145.28 159.33 Z" />
</g>
<g id="#b3bdc5ff">
<path fill="#b3bdc5" opacity="1.00" d=" M 147.39 159.18 L 147.85 159.16 C 149.69 159.11 151.54 159.09 153.39 159.07 C 153.30 160.72 153.19 162.36 153.08 164.01 C 154.44 165.24 155.72 166.60 157.32 167.54 C 159.44 168.00 161.63 167.84 163.79 167.95 C 167.61 168.00 171.18 169.47 174.91 170.11 C 179.29 175.36 184.44 179.89 189.15 184.84 C 188.78 184.91 188.05 185.06 187.68 185.14 C 185.78 185.07 183.33 185.83 181.91 184.16 C 179.51 181.68 177.50 178.86 175.11 176.37 C 169.04 175.84 162.96 176.72 157.55 179.64 C 157.03 180.33 156.52 181.03 156.01 181.72 C 155.96 180.08 155.92 178.43 155.87 176.79 C 152.79 176.25 149.35 175.08 148.27 171.80 C 147.31 167.67 147.63 163.39 147.39 159.18 Z" />
</g>
<g id="#e2e9fcff">
<path fill="#e2e9fc" opacity="1.00" d=" M 214.73 172.61 C 218.01 170.77 219.98 167.27 223.25 165.42 C 225.06 165.02 226.93 165.00 228.78 164.86 C 229.54 165.94 230.31 167.02 231.08 168.10 C 234.87 168.00 238.67 167.90 242.47 167.80 C 240.21 173.80 237.35 179.55 234.50 185.28 C 232.20 184.68 230.15 185.65 228.43 187.10 C 227.54 186.25 226.64 185.39 225.75 184.54 C 224.69 185.66 223.61 186.76 222.60 187.93 C 216.46 185.23 212.71 179.46 207.68 175.30 C 207.47 174.75 207.07 173.65 206.86 173.10 C 209.48 173.11 212.20 173.45 214.73 172.61 Z" />
</g>
<g id="#ecfafbff">
<path fill="#ecfafb" opacity="1.00" d=" M 119.45 170.05 C 123.50 170.51 127.00 168.08 130.58 166.61 L 130.34 167.78 C 128.10 171.17 127.39 175.12 127.67 179.13 C 125.15 178.86 122.23 178.75 120.53 176.56 C 118.49 174.94 119.28 172.26 119.45 170.05 Z" />
</g>
<g id="#a6a8bcff">
<path fill="#a6a8bc" opacity="1.00" d=" M 174.91 170.11 C 175.50 169.68 176.68 168.81 177.27 168.38 C 183.41 169.72 188.83 174.20 195.41 173.32 C 196.38 174.50 197.36 175.69 198.33 176.87 C 198.74 178.30 199.15 179.72 199.57 181.15 C 200.53 182.32 201.49 183.49 202.46 184.67 C 198.03 184.61 193.57 184.31 189.15 184.84 C 184.44 179.89 179.29 175.36 174.91 170.11 Z" />
</g>
<g id="#cde2f1ff">
<path fill="#cde2f1" opacity="1.00" d=" M 112.39 173.02 C 113.71 171.90 115.04 170.79 116.47 169.82 C 117.22 169.87 118.70 169.99 119.45 170.05 C 119.28 172.26 118.49 174.94 120.53 176.56 C 122.23 178.75 125.15 178.86 127.67 179.13 C 129.21 179.24 130.75 179.33 132.29 179.43 C 132.85 180.34 133.41 181.26 133.98 182.18 C 135.52 182.25 137.06 182.31 138.60 182.44 C 138.89 182.94 139.46 183.96 139.75 184.47 C 133.07 183.89 126.46 185.64 120.46 188.49 C 118.38 189.55 116.98 191.51 115.46 193.22 C 114.18 193.22 112.90 193.23 111.63 193.24 C 105.65 193.22 99.68 193.27 93.70 193.17 C 93.91 192.61 94.32 191.50 94.53 190.95 C 99.59 187.17 105.27 182.40 105.03 175.44 C 105.09 174.92 105.21 173.90 105.26 173.38 C 107.64 173.28 110.01 173.17 112.39 173.02 Z" />
</g>
<g id="#6fa8c6ff">
<path fill="#6fa8c6" opacity="1.00" d=" M 88.51 172.77 C 90.22 172.97 91.94 173.07 93.67 173.12 C 94.33 173.11 95.64 173.10 96.30 173.10 C 98.16 173.06 100.03 173.00 101.90 173.03 L 102.09 173.67 C 100.33 173.69 98.58 173.71 96.83 173.74 C 96.72 175.45 96.62 177.16 96.51 178.87 C 94.45 178.83 92.40 178.78 90.35 178.74 C 91.59 177.19 92.85 175.64 94.11 174.11 C 92.41 173.85 90.72 173.61 89.04 173.28 L 88.51 172.77 Z" />
</g>
<g id="#a6a9bcff">
<path fill="#a6a9bc" opacity="1.00" d=" M 137.21 173.36 C 137.62 173.55 138.45 173.92 138.86 174.10 C 141.00 176.78 143.50 179.13 145.89 181.58 C 149.26 181.66 152.63 181.71 156.01 181.72 C 156.52 181.03 157.03 180.33 157.55 179.64 C 162.96 176.72 169.04 175.84 175.11 176.37 C 177.50 178.86 179.51 181.68 181.91 184.16 C 183.33 185.83 185.78 185.07 187.68 185.14 C 187.54 185.71 187.28 186.85 187.14 187.42 C 175.22 187.51 163.29 187.28 151.36 187.46 C 150.91 188.40 150.45 189.33 149.98 190.26 C 149.52 190.28 148.60 190.33 148.14 190.36 C 147.97 188.56 147.80 186.77 147.63 184.98 C 145.00 184.78 142.37 184.62 139.75 184.47 C 139.46 183.96 138.89 182.94 138.60 182.44 L 138.09 181.64 C 136.65 181.20 135.18 180.86 133.72 180.52 C 134.20 177.83 135.45 175.43 137.21 173.36 Z" />
</g>
<g id="#b5b7caff">
<path fill="#b5b7ca" opacity="1.00" d=" M 195.41 173.32 C 198.54 173.14 201.67 172.96 204.81 173.03 C 205.32 173.04 206.35 173.08 206.86 173.10 C 207.07 173.65 207.47 174.75 207.68 175.30 C 212.71 179.46 216.46 185.23 222.60 187.93 C 222.46 188.47 222.18 189.53 222.04 190.06 C 221.70 189.61 221.02 188.71 220.68 188.26 C 219.21 187.86 217.71 187.57 216.24 187.23 C 216.10 186.61 215.83 185.36 215.70 184.73 C 211.90 184.64 208.10 184.61 204.31 184.68 L 204.10 184.69 C 203.69 184.68 202.87 184.67 202.46 184.67 C 201.49 183.49 200.53 182.32 199.57 181.15 C 199.15 179.72 198.74 178.30 198.33 176.87 C 197.36 175.69 196.38 174.50 195.41 173.32 Z" />
</g>
<g id="#bdc8d4ff">
<path fill="#bdc8d4" opacity="1.00" d=" M 102.57 177.29 C 103.38 176.65 104.20 176.04 105.03 175.44 C 105.27 182.40 99.59 187.17 94.53 190.95 C 94.32 191.50 93.91 192.61 93.70 193.17 C 91.80 193.10 89.90 193.02 88.00 192.87 C 87.94 192.46 87.81 191.65 87.74 191.24 C 87.80 190.87 87.90 190.12 87.96 189.75 L 85.18 189.85 C 87.09 189.03 88.92 188.05 90.78 187.14 C 90.60 186.60 90.42 186.07 90.23 185.55 C 90.43 184.37 90.64 183.19 90.88 182.02 C 93.74 181.94 96.61 181.85 99.48 181.77 C 99.61 181.21 99.88 180.09 100.02 179.53 C 100.38 179.21 101.11 178.57 101.47 178.25 C 101.75 178.01 102.30 177.53 102.57 177.29 Z" />
</g>
<g id="#c9dce7ff">
<path fill="#c9dce7" opacity="1.00" d=" M 79.75 182.16 C 82.29 182.13 84.83 182.10 87.37 182.06 C 88.33 183.21 89.30 184.37 90.23 185.55 C 90.42 186.07 90.60 186.60 90.78 187.14 C 88.92 188.05 87.09 189.03 85.18 189.85 C 83.35 190.05 81.52 190.26 79.69 190.47 C 79.70 187.70 79.72 184.93 79.75 182.16 Z" />
</g>
<g id="#bec3d9ff">
<path fill="#bec3d9" opacity="1.00" d=" M 139.75 184.47 C 142.37 184.62 145.00 184.78 147.63 184.98 C 147.80 186.77 147.97 188.56 148.14 190.36 C 146.21 190.39 144.28 190.36 142.35 190.34 C 142.20 191.06 141.91 192.49 141.76 193.21 C 139.94 193.22 138.11 193.23 136.29 193.24 C 129.35 193.25 122.40 193.22 115.46 193.22 C 116.98 191.51 118.38 189.55 120.46 188.49 C 126.46 185.64 133.07 183.89 139.75 184.47 Z" />
</g>
<g id="#344c64ff">
<path fill="#344c64" opacity="1.00" d=" M 189.15 184.84 C 193.57 184.31 198.03 184.61 202.46 184.67 C 202.87 184.67 203.69 184.68 204.10 184.69 C 199.94 184.87 195.78 185.06 191.62 185.27 C 190.24 186.31 188.97 187.83 187.08 187.79 C 179.76 188.10 172.43 187.78 165.10 187.89 C 164.45 187.89 163.14 187.89 162.49 187.89 C 159.47 187.89 156.45 187.98 153.43 188.09 C 153.35 189.36 153.28 190.63 153.20 191.90 C 149.83 195.56 146.25 199.02 142.78 202.58 C 141.68 206.83 138.28 209.68 135.32 212.66 C 131.71 216.22 128.16 219.83 124.67 223.50 C 121.44 224.15 118.65 225.86 116.40 228.22 C 116.36 230.42 116.31 232.62 116.25 234.83 C 115.41 235.58 114.57 236.34 113.74 237.10 C 113.74 241.22 114.51 245.99 110.99 249.00 C 104.57 248.16 98.18 247.00 91.93 245.28 C 91.68 244.66 91.17 243.41 90.91 242.79 C 94.06 240.28 97.41 237.45 97.25 233.01 C 94.30 232.99 91.35 233.00 88.40 233.02 C 88.16 234.86 87.92 236.70 87.68 238.54 C 86.15 238.72 84.61 238.89 83.07 239.07 C 82.25 239.91 81.44 240.75 80.62 241.60 C 78.19 240.66 75.80 239.65 73.43 238.59 C 74.58 236.83 76.19 235.22 76.50 233.05 C 77.12 230.18 77.10 226.55 80.12 225.02 C 83.45 223.73 87.16 224.24 90.65 224.01 C 90.84 222.54 91.03 221.09 91.23 219.63 C 96.82 218.99 99.81 214.04 103.13 210.16 C 105.35 210.13 107.58 210.10 109.80 210.07 C 112.33 207.44 114.83 204.78 117.29 202.08 C 118.84 201.91 120.39 201.74 121.95 201.58 C 121.96 200.91 121.97 199.57 121.98 198.90 C 124.78 198.83 127.59 198.77 130.39 198.70 C 130.60 198.10 131.01 196.88 131.22 196.28 C 132.83 196.10 134.45 195.93 136.07 195.77 C 136.13 195.13 136.24 193.87 136.29 193.24 C 138.11 193.23 139.94 193.22 141.76 193.21 C 141.91 192.49 142.20 191.06 142.35 190.34 C 144.28 190.36 146.21 190.39 148.14 190.36 C 148.60 190.33 149.52 190.28 149.98 190.26 C 150.45 189.33 150.91 188.40 151.36 187.46 C 163.29 187.28 175.22 187.51 187.14 187.42 C 187.28 186.85 187.54 185.71 187.68 185.14 C 188.05 185.06 188.78 184.91 189.15 184.84 Z" />
<path fill="#344c64" opacity="1.00" d=" M 165.00 192.35 C 169.93 195.01 170.15 201.29 174.45 204.52 C 182.54 211.44 189.20 219.83 197.28 226.77 C 195.05 228.33 192.79 229.85 190.48 231.28 C 190.40 230.50 190.25 228.94 190.17 228.16 C 189.43 227.61 188.69 227.05 187.96 226.50 C 187.13 222.99 185.17 219.89 181.95 218.13 C 181.78 217.49 181.60 216.86 181.42 216.24 C 179.51 215.74 177.21 215.85 175.79 214.23 C 172.32 210.92 169.05 207.42 165.71 203.98 C 164.15 204.80 162.61 205.64 161.11 206.56 C 159.94 206.92 158.78 207.30 157.62 207.68 C 155.71 209.88 153.05 210.42 150.27 209.83 C 151.02 208.83 151.78 207.85 152.54 206.88 C 152.94 206.36 153.75 205.34 154.15 204.83 C 155.50 204.69 156.85 204.56 158.21 204.43 C 159.33 203.20 160.46 201.97 161.59 200.75 C 161.82 199.30 162.05 197.86 162.28 196.42 C 162.90 196.19 164.13 195.72 164.75 195.49 C 164.81 194.71 164.94 193.13 165.00 192.35 Z" />
<path fill="#344c64" opacity="1.00" d=" M 205.47 206.90 C 207.85 209.25 210.15 211.68 212.37 214.17 C 210.92 215.56 209.44 216.90 207.95 218.24 C 206.95 217.08 205.95 215.94 204.95 214.80 C 204.61 213.40 204.27 212.01 203.92 210.62 C 204.44 209.38 204.95 208.14 205.47 206.90 Z" />
<path fill="#344c64" opacity="1.00" d=" M 156.40 225.48 C 158.77 223.25 161.06 220.94 163.28 218.56 C 163.93 219.19 164.58 219.81 165.23 220.45 C 165.81 221.17 166.37 221.90 166.93 222.65 C 164.28 226.00 163.32 231.46 167.45 234.11 C 167.53 235.28 167.60 236.45 167.67 237.62 C 166.65 238.43 165.62 239.24 164.60 240.05 C 164.94 240.76 165.64 242.17 165.98 242.88 C 164.82 243.28 163.66 243.65 162.49 244.01 C 160.36 241.76 157.72 239.83 156.29 237.03 C 155.85 233.19 156.29 229.33 156.40 225.48 Z" />
</g>
<g id="#1a334cff">
<path fill="#1a334c" opacity="1.00" d=" M 187.08 187.79 C 188.97 187.83 190.24 186.31 191.62 185.27 C 195.78 185.06 199.94 184.87 204.10 184.69 L 204.31 184.68 C 206.37 187.64 208.68 190.41 211.16 193.03 C 212.53 193.14 213.90 193.26 215.27 193.38 C 215.77 197.76 218.93 200.88 221.79 203.92 C 220.72 205.18 219.63 206.42 218.54 207.65 C 217.07 207.50 215.60 207.36 214.14 207.22 C 212.42 205.40 210.70 203.59 208.98 201.79 C 206.99 201.69 204.99 201.59 203.01 201.46 C 200.83 198.38 196.93 198.78 193.62 198.55 C 193.38 198.00 192.89 196.90 192.65 196.35 C 191.20 196.13 189.76 195.91 188.32 195.69 C 187.78 194.87 187.24 194.05 186.70 193.23 C 182.96 193.20 179.23 193.22 175.50 193.40 C 177.08 195.58 178.78 197.79 181.22 199.07 C 182.95 201.24 184.51 203.59 186.62 205.43 C 188.44 206.79 190.72 207.31 192.69 208.44 C 193.14 210.59 193.14 212.80 193.27 214.99 C 194.04 215.55 194.81 216.11 195.58 216.68 C 195.88 218.18 196.18 219.69 196.48 221.21 C 197.81 222.28 199.13 223.35 200.46 224.43 C 199.41 225.22 198.35 226.00 197.28 226.77 C 189.20 219.83 182.54 211.44 174.45 204.52 C 170.15 201.29 169.93 195.01 165.00 192.35 C 165.07 190.86 165.08 189.38 165.10 187.89 C 172.43 187.78 179.76 188.10 187.08 187.79 Z" />
<path fill="#1a334c" opacity="1.00" d=" M 153.43 188.09 C 156.45 187.98 159.47 187.89 162.49 187.89 C 161.75 196.30 150.82 198.35 149.80 206.59 C 150.48 206.67 151.86 206.81 152.54 206.88 C 151.78 207.85 151.02 208.83 150.27 209.83 C 153.05 210.42 155.71 209.88 157.62 207.68 C 158.78 207.30 159.94 206.92 161.11 206.56 C 160.06 208.56 159.17 210.63 158.25 212.69 C 156.86 212.88 155.48 213.07 154.09 213.26 C 152.90 214.56 151.72 215.86 150.53 217.16 C 150.58 218.39 150.63 219.61 150.68 220.84 C 149.17 222.00 147.75 223.32 145.99 224.10 C 143.58 224.42 141.15 224.15 138.73 224.06 C 138.76 220.70 140.84 218.27 143.26 216.23 C 145.26 214.83 144.79 212.21 145.14 210.11 C 144.62 210.20 143.58 210.39 143.06 210.49 C 142.35 211.26 141.60 212.00 140.83 212.72 C 139.73 212.30 138.68 211.75 137.63 211.24 C 136.85 211.70 136.09 212.18 135.32 212.66 C 138.28 209.68 141.68 206.83 142.78 202.58 C 146.25 199.02 149.83 195.56 153.20 191.90 C 153.28 190.63 153.35 189.36 153.43 188.09 Z" />
<path fill="#1a334c" opacity="1.00" d=" M 181.95 218.13 C 185.17 219.89 187.13 222.99 187.96 226.50 C 188.69 227.05 189.43 227.61 190.17 228.16 C 190.25 228.94 190.40 230.50 190.48 231.28 C 188.73 232.34 186.97 233.37 185.18 234.36 C 184.99 232.10 184.82 229.85 184.64 227.59 C 183.98 227.35 182.67 226.87 182.02 226.63 C 182.06 223.79 182.11 220.96 181.95 218.13 Z" />
<path fill="#1a334c" opacity="1.00" d=" M 165.23 220.45 C 165.81 220.76 166.97 221.40 167.55 221.72 C 168.77 224.39 169.78 227.18 171.41 229.64 C 173.60 232.62 176.58 234.89 179.27 237.39 C 174.95 239.47 170.51 241.29 165.98 242.88 C 165.64 242.17 164.94 240.76 164.60 240.05 C 165.62 239.24 166.65 238.43 167.67 237.62 C 167.60 236.45 167.53 235.28 167.45 234.11 C 163.32 231.46 164.28 226.00 166.93 222.65 C 166.37 221.90 165.81 221.17 165.23 220.45 Z" />
<path fill="#1a334c" opacity="1.00" d=" M 116.40 228.22 C 118.65 225.86 121.44 224.15 124.67 223.50 C 123.82 224.42 122.98 225.36 122.15 226.29 C 122.08 230.05 122.50 233.90 121.64 237.60 C 120.16 239.38 118.15 240.65 116.74 242.50 C 116.28 243.94 116.10 245.45 115.82 246.94 C 118.44 246.99 121.07 247.03 123.69 247.07 C 126.92 243.85 130.26 240.73 133.57 237.60 C 133.72 234.92 133.87 232.25 134.04 229.59 C 137.02 229.91 139.55 231.44 141.64 233.50 C 141.84 234.94 142.06 236.38 142.28 237.82 C 145.44 240.26 148.27 243.31 148.37 247.56 C 136.07 249.89 123.43 250.43 110.99 249.00 C 114.51 245.99 113.74 241.22 113.74 237.10 C 114.57 236.34 115.41 235.58 116.25 234.83 C 116.31 232.62 116.36 230.42 116.40 228.22 Z" />
</g>
<g id="#0d243bff">
<path fill="#0d243b" opacity="1.00" d=" M 162.49 187.89 C 163.14 187.89 164.45 187.89 165.10 187.89 C 165.08 189.38 165.07 190.86 165.00 192.35 C 164.94 193.13 164.81 194.71 164.75 195.49 C 164.13 195.72 162.90 196.19 162.28 196.42 C 162.05 197.86 161.82 199.30 161.59 200.75 C 160.46 201.97 159.33 203.20 158.21 204.43 C 156.85 204.56 155.50 204.69 154.15 204.83 C 153.75 205.34 152.94 206.36 152.54 206.88 C 151.86 206.81 150.48 206.67 149.80 206.59 C 150.82 198.35 161.75 196.30 162.49 187.89 Z" />
<path fill="#0d243b" opacity="1.00" d=" M 181.22 199.07 C 183.78 199.01 186.37 198.68 188.92 199.05 C 190.96 200.43 192.37 202.50 193.91 204.38 C 195.19 204.51 196.48 204.64 197.78 204.77 C 199.75 206.80 201.79 208.76 203.92 210.62 C 204.27 212.01 204.61 213.40 204.95 214.80 C 205.95 215.94 206.95 217.08 207.95 218.24 C 205.54 220.40 203.04 222.46 200.46 224.43 C 199.13 223.35 197.81 222.28 196.48 221.21 C 196.18 219.69 195.88 218.18 195.58 216.68 C 194.81 216.11 194.04 215.55 193.27 214.99 C 193.14 212.80 193.14 210.59 192.69 208.44 C 190.72 207.31 188.44 206.79 186.62 205.43 C 184.51 203.59 182.95 201.24 181.22 199.07 Z" />
<path fill="#0d243b" opacity="1.00" d=" M 161.11 206.56 C 162.61 205.64 164.15 204.80 165.71 203.98 C 169.05 207.42 172.32 210.92 175.79 214.23 C 177.21 215.85 179.51 215.74 181.42 216.24 C 181.60 216.86 181.78 217.49 181.95 218.13 C 182.11 220.96 182.06 223.79 182.02 226.63 C 182.67 226.87 183.98 227.35 184.64 227.59 C 184.82 229.85 184.99 232.10 185.18 234.36 C 183.23 235.41 181.26 236.41 179.27 237.39 C 176.58 234.89 173.60 232.62 171.41 229.64 C 169.78 227.18 168.77 224.39 167.55 221.72 C 166.97 221.40 165.81 220.76 165.23 220.45 C 164.58 219.81 163.93 219.19 163.28 218.56 C 161.06 220.94 158.77 223.25 156.40 225.48 C 156.29 229.33 155.85 233.19 156.29 237.03 C 157.72 239.83 160.36 241.76 162.49 244.01 C 157.84 245.39 153.15 246.66 148.37 247.56 C 148.27 243.31 145.44 240.26 142.28 237.82 C 142.06 236.38 141.84 234.94 141.64 233.50 C 139.55 231.44 137.02 229.91 134.04 229.59 C 133.87 232.25 133.72 234.92 133.57 237.60 C 130.26 240.73 126.92 243.85 123.69 247.07 C 121.07 247.03 118.44 246.99 115.82 246.94 C 116.10 245.45 116.28 243.94 116.74 242.50 C 118.15 240.65 120.16 239.38 121.64 237.60 C 122.50 233.90 122.08 230.05 122.15 226.29 C 122.98 225.36 123.82 224.42 124.67 223.50 C 128.16 219.83 131.71 216.22 135.32 212.66 C 136.09 212.18 136.85 211.70 137.63 211.24 C 138.68 211.75 139.73 212.30 140.83 212.72 C 141.60 212.00 142.35 211.26 143.06 210.49 C 143.58 210.39 144.62 210.20 145.14 210.11 C 144.79 212.21 145.26 214.83 143.26 216.23 C 140.84 218.27 138.76 220.70 138.73 224.06 C 141.15 224.15 143.58 224.42 145.99 224.10 C 147.75 223.32 149.17 222.00 150.68 220.84 C 150.63 219.61 150.58 218.39 150.53 217.16 C 151.72 215.86 152.90 214.56 154.09 213.26 C 155.48 213.07 156.86 212.88 158.25 212.69 C 159.17 210.63 160.06 208.56 161.11 206.56 Z" />
</g>
<g id="#6b85a0ff">
<path fill="#6b85a0" opacity="1.00" d=" M 57.91 230.19 C 60.19 230.34 62.48 230.37 64.77 230.42 C 64.72 231.68 64.68 232.95 64.63 234.22 C 62.33 232.97 60.11 231.59 57.91 230.19 Z" />
</g>
</svg>
