<?xml version="1.0" encoding="UTF-8" ?>
<!DOCTYPE svg PUBLIC "-//W3C//DTD SVG 1.1//EN" "http://www.w3.org/Graphics/SVG/1.1/DTD/svg11.dtd">
<svg width="250pt" height="250pt" viewBox="0 0 250 250" version="1.1" xmlns="http://www.w3.org/2000/svg">
<g id="#ffffffff">
<path fill="#ffffff" opacity="1.00" d=" M 0.00 0.00 L 250.00 0.00 L 250.00 250.00 L 0.00 250.00 L 0.00 0.00 M 52.70 41.69 C 29.78 59.44 15.13 88.05 15.21 116.99 C 10.89 168.16 50.36 217.50 100.12 227.83 C 106.11 229.66 112.52 230.82 118.20 227.55 C 122.68 228.54 127.33 227.90 131.85 227.62 C 135.60 230.94 140.44 229.55 144.91 228.80 C 196.45 220.49 238.23 170.51 235.05 117.99 C 234.75 85.45 217.59 53.40 189.91 36.12 C 149.11 33.52 107.94 35.70 67.00 35.04 C 61.18 34.00 56.98 38.76 52.70 41.69 Z" />
</g>
<g id="#fbfefeff">
<path fill="#fbfefe" opacity="1.00" d=" M 52.70 41.69 C 56.98 38.76 61.18 34.00 67.00 35.04 C 107.94 35.70 149.11 33.52 189.91 36.12 C 217.59 53.40 234.75 85.45 235.05 117.99 C 238.23 170.51 196.45 220.49 144.91 228.80 C 140.44 229.55 135.60 230.94 131.85 227.62 C 147.45 226.65 162.61 221.97 176.18 214.27 C 184.86 210.13 192.70 204.25 199.21 197.18 C 205.69 191.26 211.58 184.67 216.17 177.16 C 219.24 172.75 221.57 167.90 224.03 163.14 C 235.30 139.52 236.54 109.73 223.91 86.39 C 217.02 86.78 210.12 87.29 203.21 86.98 C 199.86 78.39 200.81 68.72 199.36 59.71 C 199.27 59.27 199.08 58.39 198.99 57.95 C 152.00 55.68 102.10 57.72 53.99 56.94 C 52.84 57.39 49.81 56.06 50.05 58.03 C 49.99 59.39 49.97 60.75 50.00 62.12 C 49.96 67.66 49.94 73.20 49.78 78.73 C 47.52 82.94 49.73 92.74 42.00 89.97 C 36.72 91.99 26.20 85.96 23.91 92.99 C 31.02 93.08 38.13 92.91 45.23 93.10 C 39.52 97.56 30.45 94.52 23.31 94.22 C 12.13 119.29 16.53 150.29 30.85 173.20 C 36.34 181.42 41.75 190.28 49.69 196.33 C 57.59 205.50 67.94 212.33 78.96 217.19 C 90.99 223.77 104.78 225.82 118.20 227.55 C 112.52 230.82 106.11 229.66 100.12 227.83 C 50.36 217.50 10.89 168.16 15.21 116.99 C 15.13 88.05 29.78 59.44 52.70 41.69 Z" />
</g>
<g id="#c8def7ff">
<path fill="#c8def7" opacity="1.00" d=" M 50.05 58.03 C 49.81 56.06 52.84 57.39 53.99 56.94 C 102.10 57.72 152.00 55.68 198.99 57.95 L 198.04 58.00 C 196.43 58.05 194.83 58.13 193.22 58.22 C 187.22 58.11 181.22 57.98 175.22 58.18 C 169.85 58.13 164.48 57.96 159.11 58.00 C 152.34 58.02 145.57 57.80 138.82 58.11 C 144.19 63.40 154.20 64.74 157.28 71.74 C 156.74 74.24 156.10 76.72 155.39 79.19 C 155.07 73.79 148.30 73.01 144.78 70.20 C 128.93 59.49 108.76 57.18 90.25 60.30 C 90.10 60.76 89.79 61.69 89.64 62.16 C 89.28 60.84 88.98 59.50 88.58 58.20 C 75.74 57.73 62.89 58.06 50.05 58.03 Z" />
</g>
<g id="#6a8ed6ff">
<path fill="#6a8ed6" opacity="1.00" d=" M 50.05 58.03 C 62.89 58.06 75.74 57.73 88.58 58.20 C 88.98 59.50 89.28 60.84 89.64 62.16 C 91.28 68.95 93.80 75.48 95.66 82.20 C 102.35 105.17 109.91 127.91 116.22 150.95 C 110.53 143.35 106.12 134.84 101.38 126.64 C 94.29 113.49 96.46 97.83 90.57 84.32 C 87.44 76.31 85.58 67.66 86.94 59.08 C 85.22 59.06 81.78 59.01 80.05 58.99 C 77.39 58.98 74.72 58.99 72.06 59.02 C 65.97 60.51 54.53 56.10 51.07 60.76 L 50.96 61.73 L 50.00 62.12 C 49.97 60.75 49.99 59.39 50.05 58.03 Z" />
</g>
<g id="#a0c9f3ff">
<path fill="#a0c9f3" opacity="1.00" d=" M 138.82 58.11 C 145.57 57.80 152.34 58.02 159.11 58.00 C 159.99 62.84 159.04 67.61 157.80 72.27 L 157.28 71.74 C 154.20 64.74 144.19 63.40 138.82 58.11 Z" />
</g>
<g id="#7c99d5ff">
<path fill="#7c99d5" opacity="1.00" d=" M 159.11 58.00 C 164.48 57.96 169.85 58.13 175.22 58.18 C 172.76 58.51 170.30 58.80 167.83 59.06 C 162.07 57.23 159.86 58.78 161.21 63.70 C 167.84 71.02 175.98 76.77 184.36 81.89 C 183.53 83.85 182.49 85.70 181.26 87.43 C 173.55 82.26 164.57 78.69 157.80 72.27 C 159.04 67.61 159.99 62.84 159.11 58.00 Z" />
</g>
<g id="#4171d5ff">
<path fill="#4171d5" opacity="1.00" d=" M 175.22 58.18 C 181.22 57.98 187.22 58.11 193.22 58.22 C 188.44 58.73 183.64 58.80 178.85 59.19 C 181.17 64.33 186.53 67.55 191.19 70.51 C 190.67 71.63 190.16 72.75 189.66 73.87 C 188.93 74.99 188.18 76.10 187.41 77.19 C 180.98 71.12 172.50 66.78 167.83 59.06 C 170.30 58.80 172.76 58.51 175.22 58.18 Z" />
</g>
<g id="#1a56d5ff">
<path fill="#1a56d5" opacity="1.00" d=" M 193.22 58.22 C 194.83 58.13 196.43 58.05 198.04 58.00 C 197.98 58.45 197.87 59.34 197.82 59.78 C 195.62 63.37 193.59 67.06 191.19 70.51 C 186.53 67.55 181.17 64.33 178.85 59.19 C 183.64 58.80 188.44 58.73 193.22 58.22 Z" />
</g>
<g id="#75b9f3ff">
<path fill="#75b9f3" opacity="1.00" d=" M 198.04 58.00 L 198.99 57.95 C 199.08 58.39 199.27 59.27 199.36 59.71 C 198.83 78.38 198.80 97.08 199.18 115.76 C 198.98 126.42 198.84 137.09 199.21 147.75 C 199.08 154.19 199.01 160.64 198.97 167.09 L 198.02 166.85 C 197.99 162.49 197.95 158.14 197.91 153.79 C 197.97 148.78 197.99 143.78 197.88 138.77 C 197.96 134.80 197.97 130.84 197.92 126.87 C 195.97 128.57 194.10 130.35 192.27 132.16 C 191.98 128.25 191.58 124.35 191.06 120.46 C 193.33 108.71 188.22 97.58 180.78 88.84 C 180.90 88.49 181.14 87.78 181.26 87.43 C 182.49 85.70 183.53 83.85 184.36 81.89 L 184.95 82.23 C 190.27 87.15 193.45 93.71 197.83 99.35 C 198.01 93.63 198.04 87.90 197.93 82.17 C 198.01 74.71 197.95 67.24 197.82 59.78 C 197.87 59.34 197.98 58.45 198.04 58.00 Z" />
</g>
<g id="#093fd4ff">
<path fill="#093fd4" opacity="1.00" d=" M 51.07 60.76 C 54.53 56.10 65.97 60.51 72.06 59.02 C 70.18 67.60 72.10 78.97 65.91 85.54 L 65.21 85.01 C 61.43 76.42 55.80 68.83 51.07 60.76 Z" />
</g>
<g id="#3465d4ff">
<path fill="#3465d4" opacity="1.00" d=" M 72.06 59.02 C 74.72 58.99 77.39 58.98 80.05 58.99 C 77.83 74.34 79.40 89.83 80.75 105.17 C 79.00 104.81 77.53 103.80 76.04 102.89 C 72.75 97.05 68.84 91.57 65.91 85.54 C 72.10 78.97 70.18 67.60 72.06 59.02 Z" />
</g>
<g id="#527cd5ff">
<path fill="#527cd5" opacity="1.00" d=" M 80.05 58.99 C 81.78 59.01 85.22 59.06 86.94 59.08 C 85.58 67.66 87.44 76.31 90.57 84.32 C 96.46 97.83 94.29 113.49 101.38 126.64 C 106.12 134.84 110.53 143.35 116.22 150.95 C 117.27 153.31 118.08 155.77 118.82 158.25 C 120.03 162.84 121.64 167.32 123.17 171.82 C 122.47 174.50 124.74 179.75 120.94 180.32 C 118.16 175.44 115.25 170.64 112.41 165.79 C 102.94 149.39 93.37 133.05 83.88 116.66 C 83.57 116.20 82.96 115.29 82.65 114.83 C 79.57 111.73 78.94 107.16 76.39 103.67 L 76.04 102.89 C 77.53 103.80 79.00 104.81 80.75 105.17 C 79.40 89.83 77.83 74.34 80.05 58.99 Z" />
</g>
<g id="#e1f0fdff">
<path fill="#e1f0fd" opacity="1.00" d=" M 90.25 60.30 C 108.76 57.18 128.93 59.49 144.78 70.20 C 148.30 73.01 155.07 73.79 155.39 79.19 C 154.88 81.04 154.26 82.87 153.70 84.71 C 153.25 85.88 152.80 87.05 152.35 88.21 C 145.31 77.94 131.53 73.28 119.58 71.40 C 110.77 68.37 97.76 72.25 95.66 82.20 C 93.80 75.48 91.28 68.95 89.64 62.16 C 89.79 61.69 90.10 60.76 90.25 60.30 Z" />
</g>
<g id="#6085d4ff">
<path fill="#6085d4" opacity="1.00" d=" M 161.21 63.70 C 159.86 58.78 162.07 57.23 167.83 59.06 C 172.50 66.78 180.98 71.12 187.41 77.19 C 186.57 78.86 185.74 80.54 184.95 82.23 L 184.36 81.89 C 175.98 76.77 167.84 71.02 161.21 63.70 Z" />
</g>
<g id="#1195f3ff">
<path fill="#1195f3" opacity="1.00" d=" M 191.19 70.51 C 193.59 67.06 195.62 63.37 197.82 59.78 C 197.95 67.24 198.01 74.71 197.93 82.17 C 195.09 79.49 192.17 76.88 189.66 73.87 C 190.16 72.75 190.67 71.63 191.19 70.51 Z" />
</g>
<g id="#effcfcff">
<path fill="#effcfc" opacity="1.00" d=" M 199.36 59.71 C 200.81 68.72 199.86 78.39 203.21 86.98 C 210.12 87.29 217.02 86.78 223.91 86.39 C 236.54 109.73 235.30 139.52 224.03 163.14 C 227.25 151.48 231.33 139.58 229.85 127.24 C 223.96 124.07 215.66 127.09 209.00 125.94 C 201.53 128.32 200.73 120.52 199.18 115.76 C 198.80 97.08 198.83 78.38 199.36 59.71 Z" />
</g>
<g id="#4c99e0ff">
<path fill="#4c99e0" opacity="1.00" d=" M 51.07 60.76 C 55.80 68.83 61.43 76.42 65.21 85.01 C 60.41 82.44 55.74 79.64 51.06 76.87 C 51.00 71.82 50.98 66.78 50.96 61.73 L 51.07 60.76 Z" />
</g>
<g id="#a0c7e5ff">
<path fill="#a0c7e5" opacity="1.00" d=" M 50.00 62.12 L 50.96 61.73 C 50.98 66.78 51.00 71.82 51.06 76.87 C 51.03 80.49 50.98 84.13 51.07 87.75 C 51.96 106.24 50.83 124.64 51.08 143.17 C 51.06 144.50 51.05 145.84 51.05 147.18 C 50.99 151.50 51.05 155.82 51.07 160.14 C 50.86 162.84 50.74 165.58 50.32 168.28 C 49.87 157.15 50.01 146.02 49.98 134.90 C 49.87 116.18 50.33 97.45 49.78 78.73 C 49.94 73.20 49.96 67.66 50.00 62.12 Z" />
</g>
<g id="#f7fafdff">
<path fill="#f7fafd" opacity="1.00" d=" M 95.66 82.20 C 97.76 72.25 110.77 68.37 119.58 71.40 C 131.53 73.28 145.31 77.94 152.35 88.21 C 150.40 94.37 149.12 100.74 146.83 106.79 C 143.48 120.25 137.67 133.08 134.95 146.67 C 133.54 150.07 132.26 153.54 131.10 157.04 C 127.16 158.18 122.90 159.49 118.82 158.25 C 118.08 155.77 117.27 153.31 116.22 150.95 C 109.91 127.91 102.35 105.17 95.66 82.20 Z" />
</g>
<g id="#98add5ff">
<path fill="#98add5" opacity="1.00" d=" M 157.28 71.74 L 157.80 72.27 C 164.57 78.69 173.55 82.26 181.26 87.43 C 181.14 87.78 180.90 88.49 180.78 88.84 C 179.70 90.71 178.57 92.55 177.34 94.33 C 170.93 89.84 162.97 89.29 155.40 88.69 C 154.78 87.38 154.25 86.04 153.70 84.71 C 154.26 82.87 154.88 81.04 155.39 79.19 C 156.10 76.72 156.74 74.24 157.28 71.74 Z" />
</g>
<g id="#48adf7ff">
<path fill="#48adf7" opacity="1.00" d=" M 187.41 77.19 C 188.18 76.10 188.93 74.99 189.66 73.87 C 192.17 76.88 195.09 79.49 197.93 82.17 C 198.04 87.90 198.01 93.63 197.83 99.35 C 193.45 93.71 190.27 87.15 184.95 82.23 C 185.74 80.54 186.57 78.86 187.41 77.19 Z" />
</g>
<g id="#71abddff">
<path fill="#71abdd" opacity="1.00" d=" M 51.06 76.87 C 55.74 79.64 60.41 82.44 65.21 85.01 L 65.91 85.54 C 68.84 91.57 72.75 97.05 76.04 102.89 L 76.39 103.67 C 78.46 122.38 65.16 137.19 51.05 147.18 C 51.05 145.84 51.06 144.50 51.08 143.17 C 59.63 135.06 68.33 124.61 68.46 112.19 C 68.62 101.36 60.85 91.73 51.07 87.75 C 50.98 84.13 51.03 80.49 51.06 76.87 Z" />
</g>
<g id="#ecfcfbff">
<path fill="#ecfcfb" opacity="1.00" d=" M 42.00 89.97 C 49.73 92.74 47.52 82.94 49.78 78.73 C 50.33 97.45 49.87 116.18 49.98 134.90 C 42.87 142.52 30.06 134.35 22.06 139.29 C 20.97 151.30 27.05 162.21 30.85 173.20 C 16.53 150.29 12.13 119.29 23.31 94.22 C 30.45 94.52 39.52 97.56 45.23 93.10 C 38.13 92.91 31.02 93.08 23.91 92.99 C 26.20 85.96 36.72 91.99 42.00 89.97 Z" />
</g>
<g id="#aebcd5ff">
<path fill="#aebcd5" opacity="1.00" d=" M 152.35 88.21 C 152.80 87.05 153.25 85.88 153.70 84.71 C 154.25 86.04 154.78 87.38 155.40 88.69 C 162.97 89.29 170.93 89.84 177.34 94.33 C 176.93 95.16 176.53 96.00 176.12 96.84 C 174.02 100.70 171.69 104.42 169.22 108.05 C 162.14 110.00 155.71 114.21 148.21 114.79 C 145.19 113.06 146.82 109.54 146.83 106.79 C 149.12 100.74 150.40 94.37 152.35 88.21 Z" />
</g>
<g id="#89b7dfff">
<path fill="#89b7df" opacity="1.00" d=" M 51.07 87.75 C 60.85 91.73 68.62 101.36 68.46 112.19 C 68.33 124.61 59.63 135.06 51.08 143.17 C 50.83 124.64 51.96 106.24 51.07 87.75 Z" />
</g>
<g id="#93c6f3ff">
<path fill="#93c6f3" opacity="1.00" d=" M 177.34 94.33 C 178.57 92.55 179.70 90.71 180.78 88.84 C 188.22 97.58 193.33 108.71 191.06 120.46 C 186.04 133.01 174.53 140.48 167.07 151.18 C 167.05 148.16 167.02 145.18 167.10 142.18 C 174.63 131.54 186.20 120.33 182.98 106.02 C 181.66 102.60 180.94 96.64 176.12 96.84 C 176.53 96.00 176.93 95.16 177.34 94.33 Z" />
</g>
<g id="#a6d2f8ff">
<path fill="#a6d2f8" opacity="1.00" d=" M 176.12 96.84 C 180.94 96.64 181.66 102.60 182.98 106.02 C 186.20 120.33 174.63 131.54 167.10 142.18 C 166.87 132.98 167.60 123.71 166.20 114.58 C 167.27 112.43 168.28 110.25 169.22 108.05 C 171.69 104.42 174.02 100.70 176.12 96.84 Z" />
</g>
<g id="#6b9cceff">
<path fill="#6b9cce" opacity="1.00" d=" M 76.39 103.67 C 78.94 107.16 79.57 111.73 82.65 114.83 C 81.37 128.85 82.24 142.95 82.00 157.00 L 81.02 157.00 C 80.98 152.60 80.92 148.20 80.90 143.81 C 81.06 136.76 81.06 129.70 80.84 122.65 C 75.38 138.02 66.35 152.85 51.07 160.14 C 51.05 155.82 50.99 151.50 51.05 147.18 C 65.16 137.19 78.46 122.38 76.39 103.67 Z" />
</g>
<g id="#c0c8d5ff">
<path fill="#c0c8d5" opacity="1.00" d=" M 134.95 146.67 C 137.67 133.08 143.48 120.25 146.83 106.79 C 146.82 109.54 145.19 113.06 148.21 114.79 C 155.71 114.21 162.14 110.00 169.22 108.05 C 168.28 110.25 167.27 112.43 166.20 114.58 C 157.07 129.15 149.24 144.49 140.36 159.22 C 139.97 154.62 138.96 149.53 134.95 146.67 Z" />
</g>
<g id="#b1d6e8ff">
<path fill="#b1d6e8" opacity="1.00" d=" M 82.00 157.00 C 82.24 142.95 81.37 128.85 82.65 114.83 C 82.96 115.29 83.57 116.20 83.88 116.66 C 82.09 136.78 83.20 157.06 83.16 177.25 C 83.01 183.23 83.04 189.22 83.22 195.21 C 82.89 195.39 82.22 195.74 81.89 195.92 C 82.09 182.94 82.00 169.97 82.00 157.00 Z" />
</g>
<g id="#dcf8f8ff">
<path fill="#dcf8f8" opacity="1.00" d=" M 140.36 159.22 C 149.24 144.49 157.07 129.15 166.20 114.58 C 167.60 123.71 166.87 132.98 167.10 142.18 C 167.02 145.18 167.05 148.16 167.07 151.18 C 167.02 155.51 167.14 159.86 167.12 164.20 C 167.05 164.85 166.89 166.14 166.82 166.79 C 166.42 169.57 166.02 172.39 165.77 175.21 C 164.99 159.19 140.92 176.09 137.75 163.96 C 138.66 162.40 139.54 160.82 140.36 159.22 Z" />
</g>
<g id="#e2fafaff">
<path fill="#e2fafa" opacity="1.00" d=" M 199.18 115.76 C 200.73 120.52 201.53 128.32 209.00 125.94 C 215.66 127.09 223.96 124.07 229.85 127.24 C 231.33 139.58 227.25 151.48 224.03 163.14 C 221.57 167.90 219.24 172.75 216.17 177.16 C 216.93 171.20 224.36 163.83 219.76 158.13 C 213.93 157.76 208.06 158.40 202.26 157.80 C 200.50 154.71 199.98 151.16 199.21 147.75 C 198.84 137.09 198.98 126.42 199.18 115.76 Z" />
</g>
<g id="#dbf8f8ff">
<path fill="#dbf8f8" opacity="1.00" d=" M 83.16 177.25 C 83.20 157.06 82.09 136.78 83.88 116.66 C 93.37 133.05 102.94 149.39 112.41 165.79 C 112.25 166.56 111.92 168.10 111.76 168.87 C 103.23 169.23 94.69 168.77 86.16 169.08 C 84.63 171.57 84.07 174.50 83.16 177.25 Z" />
</g>
<g id="#89b6e5ff">
<path fill="#89b6e5" opacity="1.00" d=" M 167.07 151.18 C 174.53 140.48 186.04 133.01 191.06 120.46 C 191.58 124.35 191.98 128.25 192.27 132.16 C 188.16 141.34 182.16 150.05 173.69 155.70 C 170.50 157.64 167.76 160.41 167.12 164.20 C 167.14 159.86 167.02 155.51 167.07 151.18 Z" />
</g>
<g id="#578bbfff">
<path fill="#578bbf" opacity="1.00" d=" M 51.07 160.14 C 66.35 152.85 75.38 138.02 80.84 122.65 C 81.06 129.70 81.06 136.76 80.90 143.81 C 75.46 155.13 65.44 163.52 53.70 167.73 C 49.27 168.67 51.36 173.77 51.00 177.12 C 50.97 180.08 50.98 183.07 50.99 186.04 C 50.98 188.99 50.86 191.97 51.10 194.93 C 61.03 195.12 70.97 195.12 80.91 194.91 C 81.12 187.92 81.03 180.94 81.01 173.96 C 81.01 169.93 81.00 165.91 80.97 161.90 C 81.00 160.26 81.01 158.63 81.02 157.00 L 82.00 157.00 C 82.00 169.97 82.09 182.94 81.89 195.92 C 71.16 196.25 60.41 195.72 49.69 196.33 C 50.12 186.98 49.82 177.62 50.32 168.28 C 50.74 165.58 50.86 162.84 51.07 160.14 Z" />
</g>
<g id="#76a7dbff">
<path fill="#76a7db" opacity="1.00" d=" M 192.27 132.16 C 194.10 130.35 195.97 128.57 197.92 126.87 C 197.97 130.84 197.96 134.80 197.88 138.77 C 191.78 151.47 181.45 161.41 168.31 166.39 C 168.23 167.84 168.07 170.73 167.98 172.18 C 167.79 173.69 167.39 176.71 167.19 178.21 C 167.12 174.39 166.94 170.60 166.82 166.79 C 166.89 166.14 167.05 164.85 167.12 164.20 C 167.76 160.41 170.50 157.64 173.69 155.70 C 182.16 150.05 188.16 141.34 192.27 132.16 Z" />
</g>
<g id="#d8f9f8ff">
<path fill="#d8f9f8" opacity="1.00" d=" M 22.06 139.29 C 30.06 134.35 42.87 142.52 49.98 134.90 C 50.01 146.02 49.87 157.15 50.32 168.28 C 49.82 177.62 50.12 186.98 49.69 196.33 C 41.75 190.28 36.34 181.42 30.85 173.20 C 27.05 162.21 20.97 151.30 22.06 139.29 Z" />
</g>
<g id="#6598d1ff">
<path fill="#6598d1" opacity="1.00" d=" M 168.31 166.39 C 181.45 161.41 191.78 151.47 197.88 138.77 C 197.99 143.78 197.97 148.78 197.91 153.79 C 190.40 162.93 179.67 170.01 167.98 172.18 C 168.07 170.73 168.23 167.84 168.31 166.39 Z" />
</g>
<g id="#4076b1ff">
<path fill="#4076b1" opacity="1.00" d=" M 53.70 167.73 C 65.44 163.52 75.46 155.13 80.90 143.81 C 80.92 148.20 80.98 152.60 81.02 157.00 C 81.01 158.63 81.00 160.26 80.97 161.90 C 72.59 169.74 61.74 173.75 51.00 177.12 C 51.36 173.77 49.27 168.67 53.70 167.73 Z" />
</g>
<g id="#abbad6ff">
<path fill="#abbad6" opacity="1.00" d=" M 134.95 146.67 C 138.96 149.53 139.97 154.62 140.36 159.22 C 139.54 160.82 138.66 162.40 137.75 163.96 C 136.88 165.37 135.99 166.79 135.10 168.19 C 133.80 165.57 134.22 160.55 130.21 160.91 C 130.53 159.62 130.81 158.33 131.10 157.04 C 132.26 153.54 133.54 150.07 134.95 146.67 Z" />
</g>
<g id="#d2f8f7ff">
<path fill="#d2f8f7" opacity="1.00" d=" M 199.21 147.75 C 199.98 151.16 200.50 154.71 202.26 157.80 C 208.06 158.40 213.93 157.76 219.76 158.13 C 224.36 163.83 216.93 171.20 216.17 177.16 C 211.58 184.67 205.69 191.26 199.21 197.18 L 199.15 196.14 C 198.91 186.46 199.05 176.77 198.97 167.09 C 199.01 160.64 199.08 154.19 199.21 147.75 Z" />
</g>
<g id="#4f8cc8ff">
<path fill="#4f8cc8" opacity="1.00" d=" M 167.98 172.18 C 179.67 170.01 190.40 162.93 197.91 153.79 C 197.95 158.14 197.99 162.49 198.02 166.85 C 188.91 172.47 179.17 178.94 168.15 179.48 C 167.99 182.35 167.88 185.27 167.91 188.15 C 167.95 189.84 168.04 193.23 168.08 194.92 C 178.02 195.12 187.97 195.12 197.91 194.91 C 198.09 189.25 198.04 183.59 198.00 177.94 C 198.01 174.23 198.00 170.55 198.02 166.85 L 198.97 167.09 C 199.05 176.77 198.91 186.46 199.15 196.14 C 188.47 195.82 177.78 196.25 167.11 195.90 C 166.99 190.00 166.98 184.10 167.19 178.21 C 167.39 176.71 167.79 173.69 167.98 172.18 Z" />
</g>
<g id="#c9e0f9ff">
<path fill="#c9e0f9" opacity="1.00" d=" M 118.82 158.25 C 122.90 159.49 127.16 158.18 131.10 157.04 C 130.81 158.33 130.53 159.62 130.21 160.91 C 128.88 165.61 127.19 170.18 125.66 174.81 C 123.74 175.34 123.84 172.98 123.17 171.82 C 121.64 167.32 120.03 162.84 118.82 158.25 Z" />
</g>
<g id="#88a0d7ff">
<path fill="#88a0d7" opacity="1.00" d=" M 130.21 160.91 C 134.22 160.55 133.80 165.57 135.10 168.19 C 131.53 173.95 128.93 180.33 124.80 185.71 C 122.81 185.48 122.13 182.00 120.94 180.32 C 124.74 179.75 122.47 174.50 123.17 171.82 C 123.84 172.98 123.74 175.34 125.66 174.81 C 127.19 170.18 128.88 165.61 130.21 160.91 Z" />
</g>
<g id="#2364a6ff">
<path fill="#2364a6" opacity="1.00" d=" M 51.00 177.12 C 61.74 173.75 72.59 169.74 80.97 161.90 C 81.00 165.91 81.01 169.93 81.01 173.96 C 71.42 179.12 61.94 184.55 50.99 186.04 C 50.98 183.07 50.97 180.08 51.00 177.12 Z" />
</g>
<g id="#ccf7f6ff">
<path fill="#ccf7f6" opacity="1.00" d=" M 135.10 168.19 C 135.99 166.79 136.88 165.37 137.75 163.96 C 140.92 176.09 164.99 159.19 165.77 175.21 C 165.97 181.87 166.15 188.55 165.79 195.22 C 163.35 194.02 160.99 192.28 157.99 193.09 C 136.32 192.81 114.65 193.12 92.98 192.95 C 89.32 191.90 86.16 193.47 83.22 195.21 C 83.04 189.22 83.01 183.23 83.16 177.25 C 84.07 174.50 84.63 171.57 86.16 169.08 C 94.69 168.77 103.23 169.23 111.76 168.87 C 111.92 168.10 112.25 166.56 112.41 165.79 C 115.25 170.64 118.16 175.44 120.94 180.32 C 122.13 182.00 122.81 185.48 124.80 185.71 C 128.93 180.33 131.53 173.95 135.10 168.19 Z" />
</g>
<g id="#a0d3e8ff">
<path fill="#a0d3e8" opacity="1.00" d=" M 165.77 175.21 C 166.02 172.39 166.42 169.57 166.82 166.79 C 166.94 170.60 167.12 174.39 167.19 178.21 C 166.98 184.10 166.99 190.00 167.11 195.90 C 166.78 195.73 166.12 195.39 165.79 195.22 C 166.15 188.55 165.97 181.87 165.77 175.21 Z" />
</g>
<g id="#3277bdff">
<path fill="#3277bd" opacity="1.00" d=" M 168.15 179.48 C 179.17 178.94 188.91 172.47 198.02 166.85 C 198.00 170.55 198.01 174.23 198.00 177.94 C 188.60 182.35 178.84 190.10 167.91 188.15 C 167.88 185.27 167.99 182.35 168.15 179.48 Z" />
</g>
<g id="#06509cff">
<path fill="#06509c" opacity="1.00" d=" M 50.99 186.04 C 61.94 184.55 71.42 179.12 81.01 173.96 C 81.03 180.94 81.12 187.92 80.91 194.91 C 70.97 195.12 61.03 195.12 51.10 194.93 C 50.86 191.97 50.98 188.99 50.99 186.04 Z" />
</g>
<g id="#1467b4ff">
<path fill="#1467b4" opacity="1.00" d=" M 167.91 188.15 C 178.84 190.10 188.60 182.35 198.00 177.94 C 198.04 183.59 198.09 189.25 197.91 194.91 C 187.97 195.12 178.02 195.12 168.08 194.92 C 168.04 193.23 167.95 189.84 167.91 188.15 Z" />
</g>
<g id="#c2f5f4ff">
<path fill="#c2f5f4" opacity="1.00" d=" M 83.22 195.21 C 86.16 193.47 89.32 191.90 92.98 192.95 C 114.65 193.12 136.32 192.81 157.99 193.09 C 160.99 192.28 163.35 194.02 165.79 195.22 C 166.12 195.39 166.78 195.73 167.11 195.90 C 177.78 196.25 188.47 195.82 199.15 196.14 L 199.21 197.18 C 192.70 204.25 184.86 210.13 176.18 214.27 C 178.55 211.56 181.43 209.24 183.20 206.06 C 144.44 205.97 105.67 205.92 66.90 206.08 C 67.52 212.03 75.88 212.46 78.96 217.19 C 67.94 212.33 57.59 205.50 49.69 196.33 C 60.41 195.72 71.16 196.25 81.89 195.92 C 82.22 195.74 82.89 195.39 83.22 195.21 Z" />
</g>
<g id="#b8f4f2ff">
<path fill="#b8f4f2" opacity="1.00" d=" M 66.90 206.08 C 105.67 205.92 144.44 205.97 183.20 206.06 C 181.43 209.24 178.55 211.56 176.18 214.27 C 162.61 221.97 147.45 226.65 131.85 227.62 C 127.33 227.90 122.68 228.54 118.20 227.55 C 104.78 225.82 90.99 223.77 78.96 217.19 C 75.88 212.46 67.52 212.03 66.90 206.08 Z" />
</g>
</svg>
