<?xml version="1.0" encoding="UTF-8" ?>
<!DOCTYPE svg PUBLIC "-//W3C//DTD SVG 1.1//EN" "http://www.w3.org/Graphics/SVG/1.1/DTD/svg11.dtd">
<svg width="250pt" height="250pt" viewBox="0 0 250 250" version="1.1" xmlns="http://www.w3.org/2000/svg">
<g id="#031103ff">
<path fill="#031103" opacity="1.00" d=" M 0.00 0.00 L 62.45 0.00 C 61.98 2.61 60.28 4.64 58.05 6.06 C 52.62 9.67 52.33 17.34 46.96 21.00 C 43.40 27.16 39.84 15.89 36.20 20.14 C 33.88 27.34 35.37 37.96 25.20 39.26 C 20.09 42.71 18.41 35.28 14.12 35.00 C 9.88 38.57 4.66 40.52 0.00 43.47 L 0.00 0.00 Z" />
</g>
<g id="#0e2e0aff">
<path fill="#0e2e0a" opacity="1.00" d=" M 62.45 0.00 L 67.03 0.00 C 65.28 3.40 66.57 6.90 68.25 10.02 C 64.56 10.59 61.45 4.30 58.18 8.21 C 54.54 10.52 61.31 11.89 59.23 14.74 C 58.93 15.07 58.33 15.74 58.03 16.07 C 55.84 17.67 54.82 24.34 59.02 22.13 C 63.98 22.02 64.84 15.25 70.13 17.18 C 67.39 20.76 62.52 24.72 65.35 29.52 C 68.87 34.72 62.74 36.47 60.00 39.04 C 59.09 35.67 59.15 31.86 56.84 29.04 C 52.64 29.74 49.00 32.19 44.84 33.03 C 46.44 29.45 56.73 25.07 49.00 22.92 C 41.86 27.37 36.28 34.96 29.92 40.84 C 26.93 42.32 23.85 43.57 20.74 44.78 C 20.85 50.15 18.03 54.76 14.16 58.21 C 9.08 60.26 4.90 55.50 0.00 54.95 L 0.00 43.47 C 4.66 40.52 9.88 38.57 14.12 35.00 C 18.41 35.28 20.09 42.71 25.20 39.26 C 35.37 37.96 33.88 27.34 36.20 20.14 C 39.84 15.89 43.40 27.16 46.96 21.00 C 52.33 17.34 52.62 9.67 58.05 6.06 C 60.28 4.64 61.98 2.61 62.45 0.00 M 13.22 37.12 C 11.57 39.28 7.34 43.58 10.30 45.69 C 16.19 51.23 19.55 36.85 13.22 37.12 Z" />
</g>
<g id="#0b1405ff">
<path fill="#0b1405" opacity="1.00" d=" M 67.03 0.00 L 83.56 0.00 C 81.85 4.09 77.82 5.81 73.79 6.76 C 72.17 7.76 70.74 9.03 69.20 10.13 L 68.25 10.02 C 66.57 6.90 65.28 3.40 67.03 0.00 Z" />
</g>
<g id="#112d0aff">
<path fill="#112d0a" opacity="1.00" d=" M 83.56 0.00 L 96.53 0.00 C 97.13 7.50 109.67 7.24 110.42 0.00 L 138.57 0.00 C 139.40 7.15 150.93 7.29 151.48 0.00 L 184.69 0.00 C 188.76 2.76 189.92 6.85 187.10 10.97 C 190.20 15.00 197.66 19.56 202.58 14.55 C 205.90 11.70 210.42 13.83 214.08 14.71 C 210.39 14.90 206.43 14.42 203.07 16.25 C 199.89 24.95 213.09 27.66 217.91 22.77 C 218.69 19.50 215.34 17.39 214.08 14.71 C 217.28 15.60 219.45 18.33 221.02 21.10 C 220.80 25.60 211.62 26.95 214.71 32.28 C 227.54 44.24 234.87 60.15 244.38 74.52 C 244.04 79.34 246.18 83.59 250.00 86.39 L 250.00 107.66 C 248.30 108.40 246.60 109.13 244.96 109.98 C 243.20 111.02 239.70 113.10 237.94 114.14 C 237.15 118.29 242.00 119.22 244.94 120.17 C 245.02 122.71 245.11 125.24 245.22 127.79 C 246.09 132.79 243.83 133.98 240.04 130.98 C 238.51 134.79 238.39 139.02 236.84 142.83 C 233.22 143.68 236.08 135.94 232.06 137.01 C 228.68 137.54 230.38 142.21 230.00 144.87 C 229.18 149.61 223.35 152.25 220.75 147.24 C 216.84 138.95 219.57 128.78 219.22 119.73 C 221.39 126.09 216.73 135.34 223.19 139.77 C 225.67 138.99 228.08 137.72 229.82 135.75 C 228.07 130.14 231.62 124.76 230.77 119.18 C 227.57 112.84 230.47 105.74 230.10 99.01 C 230.92 100.12 231.78 101.22 232.85 102.11 C 239.42 94.56 228.89 82.21 236.70 75.76 C 234.95 79.95 238.10 84.96 242.30 82.49 C 247.22 78.63 237.53 75.61 239.37 70.77 C 238.61 68.15 234.04 69.77 235.03 66.09 C 236.61 59.45 226.38 62.32 231.15 67.05 C 236.76 69.86 229.62 75.64 231.27 80.02 C 233.75 87.15 225.12 92.60 230.10 99.01 C 227.39 96.88 222.48 95.39 222.97 91.19 C 226.50 89.61 232.35 89.02 230.03 82.99 C 229.61 77.66 232.45 71.66 229.31 66.76 C 222.82 52.94 211.34 42.84 201.61 31.53 C 200.38 27.61 195.82 27.51 192.83 25.52 C 193.38 25.20 194.50 24.56 195.05 24.23 C 196.24 22.57 196.15 20.49 195.17 18.76 C 190.90 17.29 185.48 17.27 184.00 12.06 C 183.55 11.69 182.63 10.95 182.18 10.58 C 176.34 13.16 178.09 3.98 172.65 5.73 C 169.68 7.19 167.03 6.94 165.13 4.08 C 159.87 -1.37 155.58 10.36 162.92 8.95 C 166.65 7.16 168.08 10.42 170.43 12.49 C 176.44 12.79 180.30 17.77 186.03 18.92 C 189.24 19.30 190.02 22.51 191.12 25.00 C 187.57 23.58 182.83 24.00 180.45 20.58 C 176.91 15.43 169.70 15.12 163.98 14.99 C 164.09 18.11 166.39 23.02 161.91 23.98 C 156.05 23.93 154.70 16.96 158.07 13.06 C 154.43 9.36 149.28 6.53 144.15 6.14 C 138.67 9.48 132.26 9.27 127.06 5.12 C 121.31 10.46 108.20 16.78 103.89 7.02 C 98.96 4.21 91.87 7.39 94.41 13.44 C 87.46 19.35 97.26 18.36 101.17 19.80 C 100.01 28.68 109.12 24.74 114.04 27.05 C 117.44 35.60 107.02 33.86 101.83 32.13 C 99.45 29.24 95.82 28.29 92.20 28.13 C 87.15 33.83 91.00 41.59 89.91 48.20 C 89.66 44.26 88.51 40.57 86.99 36.99 C 87.60 34.48 90.73 31.23 87.77 29.11 C 84.45 29.01 84.56 34.31 82.04 36.11 C 81.88 30.67 84.01 27.06 89.18 25.39 C 84.31 23.39 80.83 19.91 81.69 14.07 C 77.20 12.49 73.55 14.84 70.13 17.18 L 70.19 16.33 C 71.03 14.11 71.29 11.61 68.70 10.51 L 69.20 10.13 C 70.74 9.03 72.17 7.76 73.79 6.76 C 74.35 9.65 72.51 15.51 79.03 11.98 C 80.17 8.27 77.23 6.25 73.79 6.76 C 77.82 5.81 81.85 4.09 83.56 0.00 M 86.19 3.09 C 83.63 5.45 82.38 12.18 87.72 9.72 C 92.98 9.08 91.55 0.82 86.19 3.09 M 94.22 20.09 C 93.07 22.60 91.38 27.30 95.31 27.72 C 101.18 29.00 102.24 16.04 94.22 20.09 M 105.26 27.09 C 99.81 31.69 112.22 35.36 112.97 29.94 C 113.77 26.21 106.78 27.13 105.26 27.09 M 203.12 28.22 C 202.73 30.73 204.90 33.92 207.02 34.82 C 209.81 37.44 213.01 39.67 215.31 42.77 C 218.38 44.47 220.66 41.35 217.75 39.37 C 216.78 35.43 212.99 33.46 210.60 30.49 C 207.90 30.27 205.44 25.06 203.12 28.22 M 223.23 50.11 C 219.24 53.72 226.20 55.59 227.30 58.84 C 235.41 59.38 227.01 49.52 223.23 50.11 M 243.25 88.17 C 239.59 90.47 239.57 97.65 244.00 98.98 C 249.62 98.21 248.31 88.14 243.25 88.17 Z" />
</g>
<g id="#516b28ff">
<path fill="#516b28" opacity="1.00" d=" M 96.53 0.00 L 98.46 0.00 C 99.39 4.42 107.92 5.00 107.33 0.00 L 110.42 0.00 C 109.67 7.24 97.13 7.50 96.53 0.00 Z" />
</g>
<g id="#90b24bff">
<path fill="#90b24b" opacity="1.00" d=" M 98.46 0.00 L 107.33 0.00 C 107.92 5.00 99.39 4.42 98.46 0.00 Z" />
</g>
<g id="#4b6a23ff">
<path fill="#4b6a23" opacity="1.00" d=" M 138.57 0.00 L 140.45 0.00 C 141.58 4.50 148.52 4.50 149.52 0.00 L 151.48 0.00 C 150.93 7.29 139.40 7.15 138.57 0.00 Z" />
</g>
<g id="#94b94eff">
<path fill="#94b94e" opacity="1.00" d=" M 140.45 0.00 L 149.52 0.00 C 148.52 4.50 141.58 4.50 140.45 0.00 Z" />
</g>
<g id="#020402ff">
<path fill="#020402" opacity="1.00" d=" M 184.69 0.00 L 250.00 0.00 L 250.00 86.39 C 246.18 83.59 244.04 79.34 244.38 74.52 C 234.87 60.15 227.54 44.24 214.71 32.28 C 211.62 26.95 220.80 25.60 221.02 21.10 C 219.45 18.33 217.28 15.60 214.08 14.71 C 210.42 13.83 205.90 11.70 202.58 14.55 C 197.66 19.56 190.20 15.00 187.10 10.97 C 189.92 6.85 188.76 2.76 184.69 0.00 Z" />
<path fill="#020402" opacity="1.00" d=" M 4.21 194.32 C 5.53 191.39 9.59 193.04 11.75 194.28 C 17.59 202.06 22.64 210.48 30.24 216.76 C 38.40 228.07 53.00 232.71 59.30 245.68 C 65.08 244.73 70.16 248.30 75.44 250.00 L 8.60 250.00 C 9.96 248.20 11.50 246.55 12.92 244.80 C 12.61 240.67 5.42 237.98 7.56 233.47 C 10.82 228.12 1.81 224.56 2.34 219.15 C 3.73 210.93 2.32 202.47 4.21 194.32 Z" />
</g>
<g id="#4b8429ff">
<path fill="#4b8429" opacity="1.00" d=" M 86.19 3.09 C 91.55 0.82 92.98 9.08 87.72 9.72 C 82.38 12.18 83.63 5.45 86.19 3.09 Z" />
</g>
<g id="#54842aff">
<path fill="#54842a" opacity="1.00" d=" M 162.92 8.95 C 155.58 10.36 159.87 -1.37 165.13 4.08 C 165.04 5.99 164.85 8.04 162.92 8.95 Z" />
</g>
<g id="#284110ff">
<path fill="#284110" opacity="1.00" d=" M 165.13 4.08 C 167.03 6.94 169.68 7.19 172.65 5.73 C 178.09 3.98 176.34 13.16 182.18 10.58 C 173.55 13.09 186.08 20.60 184.00 12.06 C 185.48 17.27 190.90 17.29 195.17 18.76 C 189.45 16.88 189.70 25.03 195.05 24.23 C 194.50 24.56 193.38 25.20 192.83 25.52 C 192.40 25.39 191.55 25.13 191.12 25.00 C 190.02 22.51 189.24 19.30 186.03 18.92 C 180.30 17.77 176.44 12.79 170.43 12.49 C 168.08 10.42 166.65 7.16 162.92 8.95 C 164.85 8.04 165.04 5.99 165.13 4.08 M 172.22 7.11 C 169.79 8.45 171.03 12.77 173.99 12.03 C 178.07 13.09 175.96 4.93 172.22 7.11 Z" />
</g>
<g id="#051004ff">
<path fill="#051004" opacity="1.00" d=" M 127.06 5.12 C 132.26 9.27 138.67 9.48 144.15 6.14 C 149.28 6.53 154.43 9.36 158.07 13.06 C 154.70 16.96 156.05 23.93 161.91 23.98 C 166.39 23.02 164.09 18.11 163.98 14.99 C 169.70 15.12 176.91 15.43 180.45 20.58 C 182.83 24.00 187.57 23.58 191.12 25.00 C 191.55 25.13 192.40 25.39 192.83 25.52 C 195.82 27.51 200.38 27.61 201.61 31.53 C 211.34 42.84 222.82 52.94 229.31 66.76 C 232.45 71.66 229.61 77.66 230.03 82.99 C 232.35 89.02 226.50 89.61 222.97 91.19 C 222.48 95.39 227.39 96.88 230.10 99.01 C 230.47 105.74 227.57 112.84 230.77 119.18 C 231.62 124.76 228.07 130.14 229.82 135.75 C 228.08 137.72 225.67 138.99 223.19 139.77 C 216.73 135.34 221.39 126.09 219.22 119.73 L 219.16 118.80 C 218.89 108.17 218.98 97.54 219.03 86.90 C 218.30 83.83 221.76 71.34 215.02 74.89 C 214.58 78.04 213.83 84.97 209.30 84.77 C 202.16 83.23 212.34 70.41 201.96 73.99 C 196.68 75.65 190.45 70.58 192.06 64.97 C 192.79 58.33 183.24 54.13 187.36 47.49 C 191.64 39.02 182.20 41.16 177.80 42.61 C 174.31 43.18 171.76 45.15 172.23 49.29 C 167.63 50.70 161.42 50.95 156.82 48.26 C 152.99 45.94 146.95 48.99 144.32 44.67 C 141.75 35.75 145.97 26.60 143.22 17.72 C 141.69 13.93 134.87 17.83 138.61 21.59 C 139.55 25.92 133.56 26.90 131.17 29.26 C 132.38 33.80 132.47 38.51 136.97 41.21 C 135.58 43.99 132.56 45.06 129.79 45.93 C 129.36 46.05 128.48 46.29 128.05 46.41 C 123.21 41.93 123.10 32.86 128.92 29.22 C 125.42 26.83 121.65 24.31 121.36 19.73 C 122.15 23.89 118.55 29.72 114.04 27.05 C 109.12 24.74 100.01 28.68 101.17 19.80 C 97.26 18.36 87.46 19.35 94.41 13.44 C 91.87 7.39 98.96 4.21 103.89 7.02 C 108.20 16.78 121.31 10.46 127.06 5.12 M 146.08 13.93 C 147.93 18.12 144.28 22.87 147.20 26.80 C 150.18 30.76 143.29 34.55 145.95 38.99 C 141.50 47.01 159.19 47.94 155.12 40.23 C 158.80 34.63 166.15 37.68 166.23 43.96 C 170.80 42.27 175.61 41.44 180.34 40.34 C 183.24 39.77 183.22 34.75 186.81 36.06 C 191.83 41.72 186.30 50.64 192.01 55.99 C 196.85 60.01 191.92 72.20 199.97 72.05 C 208.12 75.92 203.35 65.28 209.01 65.05 C 213.24 65.45 211.35 73.66 216.04 71.32 C 224.85 72.40 218.76 84.10 222.12 88.73 C 231.78 89.25 228.14 78.68 226.95 72.98 C 222.95 64.29 218.78 51.87 207.73 51.22 C 204.13 48.47 205.63 42.71 202.41 39.61 C 197.59 34.82 192.07 29.03 184.98 30.07 C 180.97 24.73 174.52 21.33 168.28 19.08 C 166.43 23.15 164.47 26.88 165.45 31.35 C 164.97 39.96 151.86 33.98 153.28 28.35 C 159.30 23.76 151.52 14.85 146.08 13.93 Z" />
</g>
<g id="#225116ff">
<path fill="#225116" opacity="1.00" d=" M 58.18 8.21 C 61.45 4.30 64.56 10.59 68.25 10.02 L 69.20 10.13 L 68.70 10.51 C 64.38 11.83 65.84 16.81 70.19 16.33 L 70.13 17.18 C 64.84 15.25 63.98 22.02 59.02 22.13 C 54.82 24.34 55.84 17.67 58.03 16.07 C 56.83 19.52 59.53 21.41 62.35 19.32 C 64.55 16.99 61.76 14.68 59.23 14.74 C 61.31 11.89 54.54 10.52 58.18 8.21 Z" />
</g>
<g id="#5d772eff">
<path fill="#5d772e" opacity="1.00" d=" M 73.79 6.76 C 77.23 6.25 80.17 8.27 79.03 11.98 C 72.51 15.51 74.35 9.65 73.79 6.76 Z" />
</g>
<g id="#526f2cff">
<path fill="#526f2c" opacity="1.00" d=" M 172.22 7.11 C 175.96 4.93 178.07 13.09 173.99 12.03 C 171.03 12.77 169.79 8.45 172.22 7.11 Z" />
</g>
<g id="#678130ff">
<path fill="#678130" opacity="1.00" d=" M 70.19 16.33 C 65.84 16.81 64.38 11.83 68.70 10.51 C 71.29 11.61 71.03 14.11 70.19 16.33 Z" />
</g>
<g id="#607e37ff">
<path fill="#607e37" opacity="1.00" d=" M 184.00 12.06 C 186.08 20.60 173.55 13.09 182.18 10.58 C 182.63 10.95 183.55 11.69 184.00 12.06 Z" />
</g>
<g id="#050e04ff">
<path fill="#050e04" opacity="1.00" d=" M 70.13 17.18 C 73.55 14.84 77.20 12.49 81.69 14.07 C 80.83 19.91 84.31 23.39 89.18 25.39 C 84.01 27.06 81.88 30.67 82.04 36.11 C 80.73 37.64 78.92 38.61 77.45 39.95 C 73.36 44.62 84.25 46.63 79.69 49.85 C 76.26 49.60 69.23 50.92 67.36 48.08 C 70.03 40.87 60.74 42.18 56.14 42.82 C 52.45 38.52 41.04 40.97 44.84 33.03 C 49.00 32.19 52.64 29.74 56.84 29.04 C 59.15 31.86 59.09 35.67 60.00 39.04 C 62.74 36.47 68.87 34.72 65.35 29.52 C 62.52 24.72 67.39 20.76 70.13 17.18 Z" />
</g>
<g id="#020301ff">
<path fill="#020301" opacity="1.00" d=" M 146.08 13.93 C 151.52 14.85 159.30 23.76 153.28 28.35 C 151.86 33.98 164.97 39.96 165.45 31.35 C 164.47 26.88 166.43 23.15 168.28 19.08 C 174.52 21.33 180.97 24.73 184.98 30.07 C 192.07 29.03 197.59 34.82 202.41 39.61 C 205.63 42.71 204.13 48.47 207.73 51.22 C 218.78 51.87 222.95 64.29 226.95 72.98 C 228.14 78.68 231.78 89.25 222.12 88.73 C 218.76 84.10 224.85 72.40 216.04 71.32 C 211.35 73.66 213.24 65.45 209.01 65.05 C 203.35 65.28 208.12 75.92 199.97 72.05 C 191.92 72.20 196.85 60.01 192.01 55.99 C 186.30 50.64 191.83 41.72 186.81 36.06 C 183.22 34.75 183.24 39.77 180.34 40.34 C 175.61 41.44 170.80 42.27 166.23 43.96 C 166.15 37.68 158.80 34.63 155.12 40.23 C 159.19 47.94 141.50 47.01 145.95 38.99 C 143.29 34.55 150.18 30.76 147.20 26.80 C 144.28 22.87 147.93 18.12 146.08 13.93 Z" />
</g>
<g id="#668d3dff">
<path fill="#668d3d" opacity="1.00" d=" M 59.23 14.74 C 61.76 14.68 64.55 16.99 62.35 19.32 C 59.53 21.41 56.83 19.52 58.03 16.07 C 58.33 15.74 58.93 15.07 59.23 14.74 Z" />
</g>
<g id="#0b7125ff">
<path fill="#0b7125" opacity="1.00" d=" M 203.07 16.25 C 206.43 14.42 210.39 14.90 214.08 14.71 C 215.34 17.39 218.69 19.50 217.91 22.77 C 213.09 27.66 199.89 24.95 203.07 16.25 M 207.24 16.14 C 201.27 21.26 211.35 26.70 214.91 21.76 C 215.94 17.32 210.77 15.46 207.24 16.14 Z" />
</g>
<g id="#052907ff">
<path fill="#052907" opacity="1.00" d=" M 138.61 21.59 C 134.87 17.83 141.69 13.93 143.22 17.72 C 145.97 26.60 141.75 35.75 144.32 44.67 C 146.95 48.99 152.99 45.94 156.82 48.26 C 161.42 50.95 167.63 50.70 172.23 49.29 C 171.76 45.15 174.31 43.18 177.80 42.61 C 179.61 54.92 165.18 52.38 157.75 52.43 C 154.38 47.82 148.27 49.56 143.46 48.48 C 139.78 45.05 134.39 46.22 129.79 45.93 C 132.56 45.06 135.58 43.99 136.97 41.21 C 132.47 38.51 132.38 33.80 131.17 29.26 C 133.56 26.90 139.55 25.92 138.61 21.59 Z" />
</g>
<g id="#0db751ff">
<path fill="#0db751" opacity="1.00" d=" M 207.24 16.14 C 210.77 15.46 215.94 17.32 214.91 21.76 C 211.35 26.70 201.27 21.26 207.24 16.14 Z" />
</g>
<g id="#657e31ff">
<path fill="#657e31" opacity="1.00" d=" M 195.05 24.23 C 189.70 25.03 189.45 16.88 195.17 18.76 C 196.15 20.49 196.24 22.57 195.05 24.23 Z" />
</g>
<g id="#0f7a26ff">
<path fill="#0f7a26" opacity="1.00" d=" M 94.22 20.09 C 102.24 16.04 101.18 29.00 95.31 27.72 C 91.38 27.30 93.07 22.60 94.22 20.09 Z" />
</g>
<g id="#092006ff">
<path fill="#092006" opacity="1.00" d=" M 121.36 19.73 C 121.65 24.31 125.42 26.83 128.92 29.22 C 123.10 32.86 123.21 41.93 128.05 46.41 C 124.99 48.12 125.08 42.31 122.07 43.02 C 118.54 43.31 116.38 49.34 120.38 50.58 C 130.21 49.88 137.90 57.45 147.78 56.30 C 152.28 58.81 159.04 60.51 158.24 67.08 C 153.26 72.61 146.05 80.71 137.88 75.10 C 132.45 71.60 123.71 71.53 118.46 75.54 C 115.18 76.02 111.73 73.63 108.64 75.55 C 100.76 80.01 94.99 69.58 89.92 65.03 C 90.52 60.18 89.87 54.06 96.91 55.01 C 98.29 48.73 111.36 53.80 107.55 58.57 C 103.85 62.11 111.49 64.27 113.87 61.75 C 113.19 56.70 114.60 50.57 111.78 46.18 C 107.26 46.92 102.72 46.28 98.18 46.05 C 103.91 46.88 108.48 43.19 107.76 37.39 C 105.73 35.69 103.61 34.10 101.83 32.13 C 107.02 33.86 117.44 35.60 114.04 27.05 C 118.55 29.72 122.15 23.89 121.36 19.73 Z" />
</g>
<g id="#638738ff">
<path fill="#638738" opacity="1.00" d=" M 29.92 40.84 C 36.28 34.96 41.86 27.37 49.00 22.92 C 56.73 25.07 46.44 29.45 44.84 33.03 C 42.52 35.29 40.29 37.62 37.87 39.77 C 33.45 43.42 29.80 47.93 24.94 51.07 C 20.10 48.30 28.39 44.01 29.92 40.84 Z" />
</g>
<g id="#08832eff">
<path fill="#08832e" opacity="1.00" d=" M 105.26 27.09 C 106.78 27.13 113.77 26.21 112.97 29.94 C 112.22 35.36 99.81 31.69 105.26 27.09 Z" />
</g>
<g id="#3d5221ff">
<path fill="#3d5221" opacity="1.00" d=" M 203.12 28.22 C 205.44 25.06 207.90 30.27 210.60 30.49 C 212.99 33.46 216.78 35.43 217.75 39.37 C 214.18 37.44 207.00 25.58 207.02 34.82 C 204.90 33.92 202.73 30.73 203.12 28.22 Z" />
</g>
<g id="#020b02ff">
<path fill="#020b02" opacity="1.00" d=" M 92.20 28.13 C 95.82 28.29 99.45 29.24 101.83 32.13 C 103.61 34.10 105.73 35.69 107.76 37.39 C 108.48 43.19 103.91 46.88 98.18 46.05 C 97.93 46.30 97.41 46.79 97.16 47.03 C 95.66 49.08 90.65 50.56 89.91 48.20 C 91.00 41.59 87.15 33.83 92.20 28.13 Z" />
</g>
<g id="#0e450fff">
<path fill="#0e450f" opacity="1.00" d=" M 82.04 36.11 C 84.56 34.31 84.45 29.01 87.77 29.11 C 90.73 31.23 87.60 34.48 86.99 36.99 C 88.51 40.57 89.66 44.26 89.91 48.20 C 90.65 50.56 95.66 49.08 97.16 47.03 C 97.68 51.56 92.19 48.75 90.12 51.00 C 87.11 55.28 79.96 53.81 80.45 61.12 C 77.52 57.21 71.40 55.53 67.03 57.94 C 63.00 59.88 59.90 62.75 60.67 67.74 C 59.45 69.80 58.78 72.09 59.37 74.47 C 62.62 82.19 51.55 85.58 53.11 93.05 C 53.49 95.37 52.01 96.58 49.96 97.18 C 51.45 93.64 52.68 89.82 50.88 86.13 C 50.02 81.54 43.77 85.71 41.21 85.14 C 38.82 85.82 39.22 90.50 36.17 90.00 C 34.49 85.10 32.24 80.11 28.33 76.60 C 25.09 74.53 24.11 79.96 22.92 81.97 C 21.12 87.36 12.74 79.49 10.93 84.95 C 8.29 89.11 10.06 98.44 17.00 96.13 C 25.98 97.46 35.28 95.94 44.09 98.20 C 42.84 102.28 37.54 104.86 38.38 109.41 C 42.75 113.69 33.47 117.48 32.98 112.91 C 32.94 110.15 35.53 107.97 35.07 105.08 C 27.97 101.31 20.59 105.07 13.21 104.16 C 10.31 107.03 11.44 111.48 10.78 115.17 C 8.81 114.12 7.24 112.46 5.14 111.64 C 4.29 107.56 4.67 103.61 7.45 100.54 C 7.89 93.03 6.96 83.69 12.94 77.93 C 16.29 75.28 19.80 83.38 22.71 78.68 C 26.42 74.75 20.18 72.05 20.00 68.18 C 24.14 64.95 30.00 65.71 34.87 65.21 C 38.72 66.12 46.63 69.50 43.96 61.23 C 38.44 55.23 27.54 64.65 24.11 55.90 C 24.04 54.09 25.26 52.64 26.64 51.63 C 22.70 62.17 37.93 56.29 43.40 58.58 C 47.63 59.37 45.03 67.06 49.83 65.95 C 52.07 59.43 52.14 52.03 49.50 45.62 C 47.79 43.01 53.10 41.79 53.80 44.30 C 54.12 48.78 53.63 53.30 54.22 57.76 C 56.23 60.56 60.84 57.69 62.40 55.52 C 63.67 50.94 69.87 53.96 73.03 52.90 C 76.34 51.99 77.77 58.33 80.79 54.83 C 88.11 50.80 79.95 44.21 77.45 39.95 C 78.92 38.61 80.73 37.64 82.04 36.11 Z" />
</g>
<g id="#698141ff">
<path fill="#698141" opacity="1.00" d=" M 207.02 34.82 C 207.00 25.58 214.18 37.44 217.75 39.37 C 220.66 41.35 218.38 44.47 215.31 42.77 C 213.01 39.67 209.81 37.44 207.02 34.82 Z" />
</g>
<g id="#0e2e0dff">
<path fill="#0e2e0d" opacity="1.00" d=" M 37.87 39.77 C 40.29 37.62 42.52 35.29 44.84 33.03 C 41.04 40.97 52.45 38.52 56.14 42.82 C 60.74 42.18 70.03 40.87 67.36 48.08 C 69.23 50.92 76.26 49.60 79.69 49.85 C 84.25 46.63 73.36 44.62 77.45 39.95 C 79.95 44.21 88.11 50.80 80.79 54.83 C 77.77 58.33 76.34 51.99 73.03 52.90 C 69.87 53.96 63.67 50.94 62.40 55.52 C 60.84 57.69 56.23 60.56 54.22 57.76 C 53.63 53.30 54.12 48.78 53.80 44.30 C 53.10 41.79 47.79 43.01 49.50 45.62 C 52.14 52.03 52.07 59.43 49.83 65.95 C 45.03 67.06 47.63 59.37 43.40 58.58 C 37.93 56.29 22.70 62.17 26.64 51.63 C 30.46 47.75 37.00 45.78 37.87 39.77 Z" />
</g>
<g id="#0a5516ff">
<path fill="#0a5516" opacity="1.00" d=" M 13.22 37.12 C 19.55 36.85 16.19 51.23 10.30 45.69 C 7.34 43.58 11.57 39.28 13.22 37.12 Z" />
</g>
<g id="#2c651cff">
<path fill="#2c651c" opacity="1.00" d=" M 24.94 51.07 C 29.80 47.93 33.45 43.42 37.87 39.77 C 37.00 45.78 30.46 47.75 26.64 51.63 C 25.26 52.64 24.04 54.09 24.11 55.90 C 24.28 61.96 19.94 66.37 17.34 71.39 C 14.90 73.00 12.20 74.50 12.94 77.93 C 6.96 83.69 7.89 93.03 7.45 100.54 C 4.67 103.61 4.29 107.56 5.14 111.64 C 4.08 113.59 2.02 114.07 0.00 114.42 L 0.00 113.49 C 6.00 111.73 6.49 100.78 0.00 99.86 L 0.00 89.50 C 4.00 81.42 8.77 73.60 10.66 64.67 C 11.22 62.24 12.38 59.98 14.16 58.21 C 18.03 54.76 20.85 50.15 20.74 44.78 C 23.85 43.57 26.93 42.32 29.92 40.84 C 28.39 44.01 20.10 48.30 24.94 51.07 M 21.23 54.31 C 19.04 56.32 15.66 58.25 14.48 60.71 C 17.71 65.11 6.43 67.98 13.07 71.00 C 19.56 72.49 13.67 63.94 18.29 63.27 C 21.03 61.95 25.25 55.30 21.23 54.31 M 7.99 74.03 C 7.72 76.01 7.85 79.68 10.79 78.91 C 13.55 76.41 11.92 72.37 7.99 74.03 M 4.22 85.09 C 1.90 86.56 2.60 91.80 5.94 90.99 C 9.74 90.56 8.26 83.21 4.22 85.09 Z" />
</g>
<g id="#0e240dff">
<path fill="#0e240d" opacity="1.00" d=" M 177.80 42.61 C 182.20 41.16 191.64 39.02 187.36 47.49 C 183.24 54.13 192.79 58.33 192.06 64.97 C 190.45 70.58 196.68 75.65 201.96 73.99 C 212.34 70.41 202.16 83.23 209.30 84.77 C 213.83 84.97 214.58 78.04 215.02 74.89 C 214.71 77.74 212.14 93.97 219.03 86.90 C 218.98 97.54 218.89 108.17 219.16 118.80 C 214.09 115.96 214.83 121.52 214.33 125.31 C 212.75 113.68 215.97 101.25 213.06 89.96 C 206.82 83.87 196.80 96.43 202.73 102.39 C 197.91 100.63 201.66 94.52 198.72 91.26 C 195.20 85.96 194.07 79.06 189.16 74.77 C 190.13 67.79 188.55 61.51 183.03 57.07 C 181.07 54.61 179.46 51.88 178.14 49.03 C 180.98 45.78 188.95 49.58 186.90 43.14 C 184.03 41.90 180.82 42.61 177.80 42.61 Z" />
</g>
<g id="#125b1bff">
<path fill="#125b1b" opacity="1.00" d=" M 177.80 42.61 C 180.82 42.61 184.03 41.90 186.90 43.14 C 188.95 49.58 180.98 45.78 178.14 49.03 C 179.46 51.88 181.07 54.61 183.03 57.07 C 177.85 53.69 172.68 57.31 167.84 59.44 C 164.50 53.45 157.27 55.51 153.09 50.86 C 144.82 52.25 138.19 46.40 130.22 47.12 C 126.18 51.12 134.03 50.66 136.42 52.62 C 139.82 56.04 144.94 54.80 149.30 54.76 C 153.20 58.02 160.42 58.19 163.09 62.03 C 161.48 63.72 159.82 65.37 158.24 67.08 C 159.04 60.51 152.28 58.81 147.78 56.30 C 137.90 57.45 130.21 49.88 120.38 50.58 C 116.38 49.34 118.54 43.31 122.07 43.02 C 125.08 42.31 124.99 48.12 128.05 46.41 C 128.48 46.29 129.36 46.05 129.79 45.93 C 134.39 46.22 139.78 45.05 143.46 48.48 C 148.27 49.56 154.38 47.82 157.75 52.43 C 165.18 52.38 179.61 54.92 177.80 42.61 Z" />
</g>
<g id="#12701dff">
<path fill="#12701d" opacity="1.00" d=" M 98.18 46.05 C 102.72 46.28 107.26 46.92 111.78 46.18 C 114.60 50.57 113.19 56.70 113.87 61.75 C 111.49 64.27 103.85 62.11 107.55 58.57 C 111.36 53.80 98.29 48.73 96.91 55.01 C 89.87 54.06 90.52 60.18 89.92 65.03 C 88.42 64.09 86.95 63.11 85.57 62.01 C 88.40 58.41 90.78 54.23 95.91 53.83 C 97.34 49.83 93.29 50.69 90.12 51.00 C 92.19 48.75 97.68 51.56 97.16 47.03 C 97.41 46.79 97.93 46.30 98.18 46.05 M 99.25 47.10 C 96.74 48.30 98.52 51.71 100.99 51.04 C 110.55 55.36 104.89 41.97 99.25 47.10 Z" />
</g>
<g id="#24b56aff">
<path fill="#24b56a" opacity="1.00" d=" M 99.25 47.10 C 104.89 41.97 110.55 55.36 100.99 51.04 C 98.52 51.71 96.74 48.30 99.25 47.10 Z" />
</g>
<g id="#0f993eff">
<path fill="#0f993e" opacity="1.00" d=" M 130.22 47.12 C 138.19 46.40 144.82 52.25 153.09 50.86 C 148.73 50.92 144.37 50.78 140.03 51.09 C 138.50 56.64 146.32 52.63 149.30 54.76 C 144.94 54.80 139.82 56.04 136.42 52.62 C 134.03 50.66 126.18 51.12 130.22 47.12 Z" />
</g>
<g id="#5f7634ff">
<path fill="#5f7634" opacity="1.00" d=" M 223.23 50.11 C 227.01 49.52 235.41 59.38 227.30 58.84 C 226.20 55.59 219.24 53.72 223.23 50.11 Z" />
</g>
<g id="#1e983fff">
<path fill="#1e983f" opacity="1.00" d=" M 90.12 51.00 C 93.29 50.69 97.34 49.83 95.91 53.83 C 90.78 54.23 88.40 58.41 85.57 62.01 C 85.35 62.27 84.93 62.80 84.71 63.06 C 83.32 62.39 81.65 62.14 80.45 61.12 C 79.96 53.81 87.11 55.28 90.12 51.00 Z" />
</g>
<g id="#18c061ff">
<path fill="#18c061" opacity="1.00" d=" M 140.03 51.09 C 144.37 50.78 148.73 50.92 153.09 50.86 C 157.27 55.51 164.50 53.45 167.84 59.44 C 168.22 60.25 168.61 61.06 169.00 61.86 C 167.67 62.17 166.34 62.46 165.01 62.77 C 164.60 62.84 163.77 62.96 163.36 63.02 L 163.09 62.03 C 160.42 58.19 153.20 58.02 149.30 54.76 C 146.32 52.63 138.50 56.64 140.03 51.09 Z" />
</g>
<g id="#579b3aff">
<path fill="#579b3a" opacity="1.00" d=" M 21.23 54.31 C 25.25 55.30 21.03 61.95 18.29 63.27 C 13.67 63.94 19.56 72.49 13.07 71.00 C 6.43 67.98 17.71 65.11 14.48 60.71 C 15.66 58.25 19.04 56.32 21.23 54.31 Z" />
</g>
<g id="#134f10ff">
<path fill="#134f10" opacity="1.00" d=" M 0.00 54.95 C 4.90 55.50 9.08 60.26 14.16 58.21 C 12.38 59.98 11.22 62.24 10.66 64.67 C 8.77 73.60 4.00 81.42 0.00 89.50 L 0.00 70.43 C 6.12 67.11 12.83 55.74 0.00 57.82 L 0.00 54.95 Z" />
</g>
<g id="#497d37ff">
<path fill="#497d37" opacity="1.00" d=" M 167.84 59.44 C 172.68 57.31 177.85 53.69 183.03 57.07 C 188.55 61.51 190.13 67.79 189.16 74.77 C 190.03 77.73 193.13 82.65 187.97 83.01 C 191.95 78.84 186.06 73.07 188.04 67.97 C 189.21 60.30 174.73 52.93 171.99 61.05 C 171.01 61.36 170.01 61.64 169.00 61.86 C 168.61 61.06 168.22 60.25 167.84 59.44 Z" />
</g>
<g id="#135a19ff">
<path fill="#135a19" opacity="1.00" d=" M 24.11 55.90 C 27.54 64.65 38.44 55.23 43.96 61.23 C 46.63 69.50 38.72 66.12 34.87 65.21 C 30.00 65.71 24.14 64.95 20.00 68.18 C 20.18 72.05 26.42 74.75 22.71 78.68 C 19.80 83.38 16.29 75.28 12.94 77.93 C 12.20 74.50 14.90 73.00 17.34 71.39 C 19.94 66.37 24.28 61.96 24.11 55.90 Z" />
</g>
<g id="#8dae4fff">
<path fill="#8dae4f" opacity="1.00" d=" M 67.03 57.94 C 71.40 55.53 77.52 57.21 80.45 61.12 C 81.65 62.14 83.32 62.39 84.71 63.06 C 91.35 68.51 97.35 74.67 103.10 81.02 C 107.45 76.53 113.69 76.52 119.88 76.87 L 120.93 76.83 C 120.67 77.37 120.14 78.44 119.88 78.97 C 115.73 79.26 111.47 78.49 107.36 79.26 C 105.89 80.69 104.99 83.94 102.36 82.77 C 94.97 73.31 85.65 65.52 75.12 59.84 C 72.02 58.61 67.62 57.73 66.75 61.71 C 61.20 66.39 63.19 74.69 64.13 80.90 C 69.72 87.05 64.85 96.82 69.69 103.29 C 70.85 107.29 74.09 116.85 67.91 118.02 C 71.47 114.13 70.74 107.45 67.55 103.50 C 65.26 98.08 66.57 91.93 65.84 86.20 C 63.57 84.62 59.46 85.83 59.74 82.10 C 65.07 76.94 58.47 63.79 67.03 57.94 Z" />
</g>
<g id="#0e8c26ff">
<path fill="#0e8c26" opacity="1.00" d=" M 0.00 57.82 C 12.83 55.74 6.12 67.11 0.00 70.43 L 0.00 57.82 Z" />
</g>
<g id="#4c7f2cff">
<path fill="#4c7f2c" opacity="1.00" d=" M 60.67 67.74 C 59.90 62.75 63.00 59.88 67.03 57.94 C 58.47 63.79 65.07 76.94 59.74 82.10 C 61.62 77.50 60.27 72.52 60.67 67.74 Z" />
</g>
<g id="#91c053ff">
<path fill="#91c053" opacity="1.00" d=" M 171.99 61.05 C 174.73 52.93 189.21 60.30 188.04 67.97 C 186.06 73.07 191.95 78.84 187.97 83.01 C 179.96 86.34 188.29 96.29 181.91 100.88 C 178.80 103.25 180.07 107.81 180.22 111.20 C 180.96 113.25 182.08 115.14 183.08 117.07 C 182.90 127.12 189.54 135.28 187.33 145.78 C 187.27 146.39 187.13 147.59 187.07 148.20 C 186.78 147.65 186.22 146.55 185.94 146.00 C 186.09 139.30 187.86 131.48 181.92 126.75 C 184.43 118.23 175.20 110.98 178.66 102.66 C 185.31 96.51 179.65 86.18 186.84 79.97 C 186.62 75.97 185.97 72.01 185.99 68.00 C 186.75 61.05 177.14 56.34 171.99 61.05 Z" />
</g>
<g id="#f5fc88ff">
<path fill="#f5fc88" opacity="1.00" d=" M 66.75 61.71 C 67.62 57.73 72.02 58.61 75.12 59.84 C 85.65 65.52 94.97 73.31 102.36 82.77 C 104.99 83.94 105.89 80.69 107.36 79.26 C 111.47 78.49 115.73 79.26 119.88 78.97 C 125.30 79.01 130.73 79.01 136.15 78.95 C 142.38 74.29 144.64 87.38 149.27 81.27 C 153.82 74.60 162.25 70.34 165.01 62.77 C 167.50 62.46 172.00 64.57 171.99 61.05 C 177.14 56.34 186.75 61.05 185.99 68.00 C 183.29 69.67 181.15 67.64 178.99 66.18 C 169.49 68.92 162.69 76.22 156.24 83.33 C 155.11 85.58 157.59 86.88 158.97 88.13 C 160.16 96.06 150.76 98.97 144.86 100.82 C 125.82 105.79 101.92 105.74 87.75 90.03 C 88.83 86.70 95.32 87.45 93.77 83.31 C 90.01 80.19 87.27 74.32 81.92 74.07 C 77.96 70.57 71.55 61.86 66.84 69.09 C 63.33 67.84 66.34 64.12 66.75 61.71 Z" />
</g>
<g id="#95ce75ff">
<path fill="#95ce75" opacity="1.00" d=" M 169.00 61.86 C 170.01 61.64 171.01 61.36 171.99 61.05 C 172.00 64.57 167.50 62.46 165.01 62.77 C 166.34 62.46 167.67 62.17 169.00 61.86 Z" />
</g>
<g id="#daf473ff">
<path fill="#daf473" opacity="1.00" d=" M 64.13 80.90 C 63.19 74.69 61.20 66.39 66.75 61.71 C 66.34 64.12 63.33 67.84 66.84 69.09 C 71.55 61.86 77.96 70.57 81.92 74.07 C 78.42 72.69 70.18 64.80 69.80 72.76 C 69.55 76.25 69.68 84.63 64.13 80.90 Z" />
</g>
<g id="#406225ff">
<path fill="#406225" opacity="1.00" d=" M 84.71 63.06 C 84.93 62.80 85.35 62.27 85.57 62.01 C 86.95 63.11 88.42 64.09 89.92 65.03 C 94.99 69.58 100.76 80.01 108.64 75.55 C 111.73 73.63 115.18 76.02 118.46 75.54 C 123.71 71.53 132.45 71.60 137.88 75.10 C 146.05 80.71 153.26 72.61 158.24 67.08 C 159.82 65.37 161.48 63.72 163.09 62.03 L 163.36 63.02 C 158.71 69.74 152.20 74.87 146.89 81.04 C 144.05 78.86 140.79 77.48 137.16 76.86 C 132.61 73.00 123.61 71.39 119.88 76.87 C 113.69 76.52 107.45 76.53 103.10 81.02 C 97.35 74.67 91.35 68.51 84.71 63.06 Z" />
</g>
<g id="#677f39ff">
<path fill="#677f39" opacity="1.00" d=" M 231.15 67.05 C 226.38 62.32 236.61 59.45 235.03 66.09 C 233.75 66.46 232.45 66.78 231.15 67.05 Z" />
</g>
<g id="#9db15dff">
<path fill="#9db15d" opacity="1.00" d=" M 163.36 63.02 C 163.77 62.96 164.60 62.84 165.01 62.77 C 162.25 70.34 153.82 74.60 149.27 81.27 C 144.64 87.38 142.38 74.29 136.15 78.95 C 135.85 78.42 135.26 77.36 134.96 76.83 C 135.51 76.84 136.61 76.85 137.16 76.86 C 140.79 77.48 144.05 78.86 146.89 81.04 C 152.20 74.87 158.71 69.74 163.36 63.02 Z" />
</g>
<g id="#dbf674ff">
<path fill="#dbf674" opacity="1.00" d=" M 156.24 83.33 C 162.69 76.22 169.49 68.92 178.99 66.18 C 181.15 67.64 183.29 69.67 185.99 68.00 C 185.97 72.01 186.62 75.97 186.84 79.97 C 183.48 81.86 180.80 80.64 180.24 76.80 C 183.27 67.28 170.92 68.54 167.75 73.75 C 164.73 78.22 155.69 81.56 158.97 88.13 C 157.59 86.88 155.11 85.58 156.24 83.33 Z" />
</g>
<g id="#204a19ff">
<path fill="#204a19" opacity="1.00" d=" M 231.15 67.05 C 232.45 66.78 233.75 66.46 235.03 66.09 C 234.04 69.77 238.61 68.15 239.37 70.77 C 236.82 69.43 232.86 70.04 234.09 73.77 C 236.36 76.91 239.75 73.92 239.37 70.77 C 237.53 75.61 247.22 78.63 242.30 82.49 C 243.00 79.23 240.86 76.01 238.12 79.23 C 237.15 81.78 240.69 81.92 242.30 82.49 C 238.10 84.96 234.95 79.95 236.70 75.76 C 228.89 82.21 239.42 94.56 232.85 102.11 C 231.78 101.22 230.92 100.12 230.10 99.01 C 225.12 92.60 233.75 87.15 231.27 80.02 C 229.62 75.64 236.76 69.86 231.15 67.05 Z" />
</g>
<g id="#196421ff">
<path fill="#196421" opacity="1.00" d=" M 59.37 74.47 C 58.78 72.09 59.45 69.80 60.67 67.74 C 60.27 72.52 61.62 77.50 59.74 82.10 C 57.09 86.19 62.11 86.22 64.87 87.23 C 64.98 91.20 65.02 95.18 64.99 99.15 C 61.84 99.15 58.92 97.98 56.00 96.96 C 55.82 99.60 55.83 102.24 56.03 104.88 C 57.09 108.33 63.31 111.38 58.79 114.79 C 55.18 118.79 54.60 110.60 51.32 109.92 C 50.04 105.92 48.55 101.35 49.96 97.18 C 52.01 96.58 53.49 95.37 53.11 93.05 C 51.55 85.58 62.62 82.19 59.37 74.47 M 55.22 89.11 C 52.79 90.45 54.03 94.77 56.99 94.03 C 61.07 95.09 58.96 86.93 55.22 89.11 M 51.17 98.05 C 50.32 100.88 50.10 103.83 51.21 106.70 C 55.88 114.04 58.09 95.41 51.17 98.05 Z" />
</g>
<g id="#a9d65aff">
<path fill="#a9d65a" opacity="1.00" d=" M 69.80 72.76 C 70.18 64.80 78.42 72.69 81.92 74.07 C 93.11 78.39 87.85 88.78 81.12 94.12 C 80.61 94.37 79.58 94.88 79.07 95.13 C 80.48 90.32 87.38 88.01 85.05 82.00 C 83.23 76.26 76.68 74.17 72.05 70.98 C 67.98 80.98 72.44 90.58 73.99 100.10 C 69.19 91.72 69.94 82.08 69.80 72.76 Z" />
</g>
<g id="#acd95bff">
<path fill="#acd95b" opacity="1.00" d=" M 167.75 73.75 C 170.92 68.54 183.27 67.28 180.24 76.80 C 179.94 79.54 181.07 82.85 179.11 85.05 C 178.25 81.14 182.22 68.84 174.31 71.29 C 169.28 76.41 160.05 80.53 160.90 88.96 L 160.06 88.86 C 159.79 88.68 159.24 88.31 158.97 88.13 C 155.69 81.56 164.73 78.22 167.75 73.75 Z" />
</g>
<g id="#698438ff">
<path fill="#698438" opacity="1.00" d=" M 234.09 73.77 C 232.86 70.04 236.82 69.43 239.37 70.77 C 239.75 73.92 236.36 76.91 234.09 73.77 Z" />
</g>
<g id="#7daf43ff">
<path fill="#7daf43" opacity="1.00" d=" M 72.05 70.98 C 76.68 74.17 83.23 76.26 85.05 82.00 C 87.38 88.01 80.48 90.32 79.07 95.13 C 78.56 97.83 76.87 105.30 73.99 100.10 C 72.44 90.58 67.98 80.98 72.05 70.98 Z" />
</g>
<g id="#7fb144ff">
<path fill="#7fb144" opacity="1.00" d=" M 174.31 71.29 C 182.22 68.84 178.25 81.14 179.11 85.05 C 172.35 88.35 179.47 98.32 174.02 102.22 C 167.99 99.14 168.22 89.82 160.90 88.96 C 160.05 80.53 169.28 76.41 174.31 71.29 Z" />
</g>
<g id="#c8f85cff">
<path fill="#c8f85c" opacity="1.00" d=" M 64.13 80.90 C 69.68 84.63 69.55 76.25 69.80 72.76 C 69.94 82.08 69.19 91.72 73.99 100.10 C 76.87 105.30 78.56 97.83 79.07 95.13 C 79.58 94.88 80.61 94.37 81.12 94.12 C 77.52 101.73 89.67 104.93 88.58 113.09 C 88.57 113.48 88.56 114.25 88.55 114.64 C 88.00 117.46 89.55 121.67 94.01 119.10 C 100.48 120.61 106.65 117.60 113.02 117.05 C 126.82 118.66 142.04 113.96 153.90 123.20 C 151.40 123.84 148.36 124.00 147.91 126.97 C 147.64 127.17 147.09 127.58 146.82 127.79 C 138.13 124.98 136.59 142.64 146.78 137.75 C 151.68 132.77 160.16 136.41 163.27 129.33 C 171.21 123.58 159.06 115.12 155.98 121.89 C 155.46 122.21 154.42 122.87 153.90 123.20 C 151.57 115.10 165.99 123.21 161.98 112.98 C 159.17 105.94 169.38 103.15 166.65 96.42 C 165.86 92.87 162.88 90.78 160.06 88.86 L 160.90 88.96 C 168.22 89.82 167.99 99.14 174.02 102.22 C 179.47 98.32 172.35 88.35 179.11 85.05 C 181.07 82.85 179.94 79.54 180.24 76.80 C 180.80 80.64 183.48 81.86 186.84 79.97 C 179.65 86.18 185.31 96.51 178.66 102.66 C 175.20 110.98 184.43 118.23 181.92 126.75 C 181.71 129.52 181.02 132.47 182.75 134.88 C 170.35 134.73 157.32 141.22 146.71 146.88 C 140.81 134.67 126.08 134.62 114.40 136.32 C 110.68 140.63 106.29 144.30 102.19 148.23 C 102.43 146.87 103.94 144.68 101.61 144.51 C 92.96 142.54 85.41 137.59 76.97 135.03 C 70.98 135.37 68.12 130.32 67.82 124.88 C 67.84 123.16 67.88 119.73 67.91 118.02 C 74.09 116.85 70.85 107.29 69.69 103.29 C 64.85 96.82 69.72 87.05 64.13 80.90 M 88.96 131.01 C 89.02 136.60 97.24 132.75 100.08 133.92 C 99.65 138.23 105.70 139.09 108.70 137.85 C 114.11 134.72 109.53 124.21 102.99 128.01 C 102.34 123.01 94.99 123.08 92.00 119.98 C 83.53 115.65 81.82 129.98 88.96 131.01 Z" />
</g>
<g id="#629936ff">
<path fill="#629936" opacity="1.00" d=" M 7.99 74.03 C 11.92 72.37 13.55 76.41 10.79 78.91 C 7.85 79.68 7.72 76.01 7.99 74.03 Z" />
</g>
<g id="#dffe72ff">
<path fill="#dffe72" opacity="1.00" d=" M 81.92 74.07 C 87.27 74.32 90.01 80.19 93.77 83.31 C 95.32 87.45 88.83 86.70 87.75 90.03 C 101.92 105.74 125.82 105.79 144.86 100.82 C 150.76 98.97 160.16 96.06 158.97 88.13 C 159.24 88.31 159.79 88.68 160.06 88.86 C 162.88 90.78 165.86 92.87 166.65 96.42 C 169.38 103.15 159.17 105.94 161.98 112.98 C 165.99 123.21 151.57 115.10 153.90 123.20 C 142.04 113.96 126.82 118.66 113.02 117.05 C 106.65 117.60 100.48 120.61 94.01 119.10 C 89.55 121.67 88.00 117.46 88.55 114.64 C 92.26 122.44 111.67 118.09 104.32 108.66 C 99.52 100.94 89.54 105.40 88.58 113.09 C 89.67 104.93 77.52 101.73 81.12 94.12 C 87.85 88.78 93.11 78.39 81.92 74.07 M 152.99 118.03 C 161.96 120.95 163.44 108.59 155.80 106.88 C 155.85 106.42 155.95 105.50 156.00 105.03 C 144.58 99.87 138.42 122.80 152.99 118.03 Z" />
</g>
<g id="#40b272ff">
<path fill="#40b272" opacity="1.00" d=" M 119.88 76.87 C 123.61 71.39 132.61 73.00 137.16 76.86 C 136.61 76.85 135.51 76.84 134.96 76.83 C 130.29 76.10 125.59 76.12 120.93 76.83 L 119.88 76.87 Z" />
</g>
<g id="#104615ff">
<path fill="#104615" opacity="1.00" d=" M 215.02 74.89 C 221.76 71.34 218.30 83.83 219.03 86.90 C 212.14 93.97 214.71 77.74 215.02 74.89 Z" />
</g>
<g id="#106333ff">
<path fill="#106333" opacity="1.00" d=" M 189.16 74.77 C 194.07 79.06 195.20 85.96 198.72 91.26 C 201.66 94.52 197.91 100.63 202.73 102.39 C 203.22 103.19 203.70 104.01 204.15 104.84 C 202.42 118.32 206.65 133.15 202.75 146.08 C 201.78 145.92 200.83 145.71 199.88 145.45 C 202.16 144.15 205.79 143.27 203.05 138.99 C 203.13 130.23 201.40 121.50 202.87 112.77 C 204.68 110.61 202.73 102.61 199.74 105.74 C 199.23 111.74 199.47 118.01 196.06 123.24 C 195.85 119.60 198.11 116.40 197.87 112.75 C 196.88 109.28 200.89 103.59 196.43 101.54 C 192.41 98.90 196.30 91.98 191.03 90.41 C 190.94 90.10 190.76 89.47 190.67 89.16 C 193.78 90.56 196.22 90.09 194.86 86.20 C 192.78 83.09 190.46 86.74 190.67 89.16 C 190.10 87.25 189.48 85.33 188.34 83.67 L 187.97 83.01 C 193.13 82.65 190.03 77.73 189.16 74.77 M 196.21 93.11 C 193.88 94.46 195.21 99.62 198.02 99.01 C 201.48 99.80 199.23 91.61 196.21 93.11 Z" />
</g>
<g id="#0a2809ff">
<path fill="#0a2809" opacity="1.00" d=" M 22.92 81.97 C 24.11 79.96 25.09 74.53 28.33 76.60 C 32.24 80.11 34.49 85.10 36.17 90.00 C 39.22 90.50 38.82 85.82 41.21 85.14 C 43.77 85.71 50.02 81.54 50.88 86.13 C 52.68 89.82 51.45 93.64 49.96 97.18 C 48.55 101.35 50.04 105.92 51.32 109.92 C 47.39 113.20 44.65 116.39 45.91 122.12 C 43.89 116.40 39.21 120.89 36.02 122.84 C 28.98 116.49 19.60 117.93 12.04 122.20 C 10.83 126.43 15.74 128.40 17.73 131.38 C 18.10 134.71 16.45 137.65 15.95 140.83 C 19.03 142.01 22.35 142.84 24.50 145.57 C 27.69 146.80 31.45 141.54 34.68 144.26 C 37.43 146.31 37.11 150.12 36.14 153.08 C 36.03 151.27 35.93 149.45 35.53 147.67 C 34.45 143.45 30.43 145.95 27.53 146.37 C 23.31 147.81 15.70 144.42 14.28 150.36 C 11.94 155.49 16.50 157.11 20.01 158.13 C 15.25 163.46 22.81 166.65 22.77 172.29 C 24.59 177.11 30.88 173.86 34.01 172.05 C 35.04 171.11 35.98 170.08 36.99 169.12 C 44.10 168.13 41.63 155.93 33.95 158.99 C 29.36 158.91 33.80 153.87 36.14 153.08 C 36.17 159.44 45.65 159.50 45.34 165.86 C 51.09 164.40 57.54 164.55 53.18 155.69 L 53.56 156.31 C 58.19 162.58 60.26 170.30 66.31 175.65 C 61.57 175.22 56.56 174.42 51.98 175.97 L 51.07 176.28 C 48.13 174.08 46.93 168.88 41.95 171.01 C 37.54 173.02 33.92 176.98 30.14 180.16 C 34.12 173.24 18.72 173.34 18.14 179.16 C 17.64 177.34 17.00 175.56 16.17 173.86 C 10.04 164.20 11.69 151.93 6.07 141.94 C 4.94 140.81 4.62 137.81 6.88 138.33 C 11.01 141.61 17.50 134.17 13.72 130.30 C 10.17 125.76 4.49 130.74 0.00 130.21 L 0.00 114.42 C 2.02 114.07 4.08 113.59 5.14 111.64 C 7.24 112.46 8.81 114.12 10.78 115.17 C 11.44 111.48 10.31 107.03 13.21 104.16 C 20.59 105.07 27.97 101.31 35.07 105.08 C 35.53 107.97 32.94 110.15 32.98 112.91 C 33.47 117.48 42.75 113.69 38.38 109.41 C 37.54 104.86 42.84 102.28 44.09 98.20 C 35.28 95.94 25.98 97.46 17.00 96.13 C 10.06 98.44 8.29 89.11 10.93 84.95 C 12.74 79.49 21.12 87.36 22.92 81.97 Z" />
</g>
<g id="#94f29fff">
<path fill="#94f29f" opacity="1.00" d=" M 120.93 76.83 C 125.59 76.12 130.29 76.10 134.96 76.83 C 135.26 77.36 135.85 78.42 136.15 78.95 C 130.73 79.01 125.30 79.01 119.88 78.97 C 120.14 78.44 120.67 77.37 120.93 76.83 Z" />
</g>
<g id="#779443ff">
<path fill="#779443" opacity="1.00" d=" M 238.12 79.23 C 240.86 76.01 243.00 79.23 242.30 82.49 C 240.69 81.92 237.15 81.78 238.12 79.23 Z" />
</g>
<g id="#547b2fff">
<path fill="#547b2f" opacity="1.00" d=" M 64.87 87.23 C 62.11 86.22 57.09 86.19 59.74 82.10 C 59.46 85.83 63.57 84.62 65.84 86.20 C 66.57 91.93 65.26 98.08 67.55 103.50 C 70.74 107.45 71.47 114.13 67.91 118.02 C 64.65 120.19 66.60 124.73 65.98 128.03 C 65.39 128.76 64.77 129.47 64.13 130.16 C 60.29 135.78 62.83 143.65 61.91 150.03 C 61.88 151.71 61.88 153.40 61.90 155.08 C 60.20 148.56 61.35 141.47 60.80 134.69 C 60.56 131.67 62.18 129.25 63.88 126.94 C 63.98 118.54 73.22 110.62 65.22 102.78 C 65.13 101.57 65.05 100.36 64.99 99.15 C 65.02 95.18 64.98 91.20 64.87 87.23 Z" />
</g>
<g id="#498733ff">
<path fill="#498733" opacity="1.00" d=" M 181.91 100.88 C 188.29 96.29 179.96 86.34 187.97 83.01 L 188.34 83.67 C 182.56 88.22 188.41 94.79 185.98 100.44 C 180.39 101.91 185.85 109.95 180.22 111.20 C 180.07 107.81 178.80 103.25 181.91 100.88 Z" />
</g>
<g id="#1b4815ff">
<path fill="#1b4815" opacity="1.00" d=" M 188.34 83.67 C 189.48 85.33 190.10 87.25 190.67 89.16 C 190.76 89.47 190.94 90.10 191.03 90.41 C 184.97 96.49 191.26 107.45 187.32 115.01 C 192.14 118.80 185.61 128.97 193.69 129.03 C 194.20 123.40 195.40 117.84 197.87 112.75 C 198.11 116.40 195.85 119.60 196.06 123.24 C 196.03 130.85 200.32 137.59 199.88 145.45 C 200.83 145.71 201.78 145.92 202.75 146.08 C 201.79 150.71 199.87 162.43 206.94 163.19 C 206.58 165.69 205.80 168.09 205.15 170.53 C 199.91 171.52 200.32 180.48 205.84 180.25 C 209.68 180.45 209.97 184.71 212.28 186.92 C 220.43 190.49 221.83 180.13 222.99 174.95 C 219.07 174.16 216.73 179.49 213.00 176.03 C 211.63 175.31 210.04 174.92 208.89 173.86 C 211.28 168.50 209.99 162.39 211.91 156.94 C 212.58 157.62 213.25 158.30 213.90 159.00 C 216.99 162.31 220.84 164.98 223.09 169.00 C 223.89 170.79 225.79 169.09 227.04 168.87 C 233.02 170.49 232.15 179.69 228.26 183.29 C 225.33 185.53 230.02 187.36 230.04 189.86 C 228.33 191.71 225.42 192.98 225.88 195.97 C 234.37 199.17 231.79 187.17 238.62 186.55 C 244.48 185.50 240.22 178.51 241.75 174.68 C 242.65 171.15 243.49 167.12 240.82 164.08 C 235.20 163.57 241.36 179.32 234.17 173.79 C 235.32 168.21 233.89 162.63 234.04 157.03 C 234.64 155.36 235.15 153.64 235.15 151.86 C 234.54 148.50 235.02 141.80 230.00 144.87 C 230.38 142.21 228.68 137.54 232.06 137.01 C 236.08 135.94 233.22 143.68 236.84 142.83 C 238.39 139.02 238.51 134.79 240.04 130.98 C 243.83 133.98 246.09 132.79 245.22 127.79 C 246.11 132.46 244.69 139.04 250.00 141.40 L 250.00 148.15 C 242.52 152.20 244.69 142.05 240.20 142.07 C 236.35 148.08 238.90 155.30 240.27 161.71 C 243.65 161.65 247.50 160.08 250.00 163.10 L 250.00 179.43 C 244.86 180.85 244.01 188.92 250.00 189.37 L 250.00 206.46 C 244.21 205.25 250.27 199.62 248.97 196.10 C 247.22 191.83 244.02 186.39 238.34 188.17 C 233.34 191.28 234.88 197.81 233.71 202.71 C 231.96 205.37 228.59 205.83 225.84 206.86 C 219.44 208.70 215.28 214.19 210.87 218.80 C 208.02 220.10 205.41 224.05 202.03 221.86 C 204.51 214.71 213.14 211.34 214.67 203.71 C 221.62 201.82 222.66 194.80 227.10 189.96 C 222.81 185.57 209.66 185.67 210.94 194.82 C 212.56 189.64 207.73 190.84 204.88 192.81 C 200.47 190.80 197.88 181.95 191.79 184.51 C 187.77 188.89 194.12 192.39 196.91 194.95 C 198.99 201.40 206.35 201.12 209.73 195.87 C 208.17 198.70 210.89 201.04 210.99 203.80 C 207.72 207.46 202.31 203.44 198.86 206.54 L 198.04 206.92 C 200.21 201.94 193.36 199.40 190.71 196.13 C 190.23 195.35 189.74 194.56 189.26 193.78 C 188.82 192.89 188.38 191.99 187.94 191.10 C 192.64 190.20 186.84 179.16 196.06 183.00 C 201.26 183.33 193.22 177.19 197.98 176.00 C 202.47 174.45 199.37 170.47 198.65 167.34 C 197.70 164.28 200.62 161.11 198.85 158.14 C 196.27 157.19 195.66 158.80 195.97 161.14 C 195.16 159.61 192.36 156.06 191.58 159.41 C 191.67 163.60 187.12 164.52 186.13 168.10 C 184.34 168.32 182.56 168.60 180.79 168.89 C 181.50 166.08 182.86 163.52 183.91 160.84 C 185.04 158.10 186.42 155.48 188.11 153.04 C 192.11 140.14 187.10 128.51 183.97 116.56 C 185.20 111.29 191.07 105.73 185.98 100.44 C 188.41 94.79 182.56 88.22 188.34 83.67 M 190.11 140.75 C 191.61 143.19 196.24 142.55 195.84 146.17 C 196.66 146.20 199.46 148.18 198.80 146.17 C 197.39 141.63 200.12 133.40 193.93 132.01 C 189.70 131.72 188.99 137.86 190.11 140.75 M 191.17 147.70 C 196.61 149.17 192.93 159.25 199.77 156.85 C 202.78 153.21 199.07 148.27 195.84 146.17 C 194.42 142.97 189.70 143.96 191.17 147.70 Z" />
</g>
<g id="#6ba13aff">
<path fill="#6ba13a" opacity="1.00" d=" M 4.22 85.09 C 8.26 83.21 9.74 90.56 5.94 90.99 C 2.60 91.80 1.90 86.56 4.22 85.09 Z" />
</g>
<g id="#17ab6cff">
<path fill="#17ab6c" opacity="1.00" d=" M 190.67 89.16 C 190.46 86.74 192.78 83.09 194.86 86.20 C 196.22 90.09 193.78 90.56 190.67 89.16 Z" />
</g>
<g id="#030903ff">
<path fill="#030903" opacity="1.00" d=" M 202.73 102.39 C 196.80 96.43 206.82 83.87 213.06 89.96 C 215.97 101.25 212.75 113.68 214.33 125.31 C 214.28 125.77 214.18 126.70 214.13 127.17 C 211.17 127.26 207.06 129.61 205.17 126.67 C 204.11 119.52 206.48 111.70 204.15 104.84 C 203.70 104.01 203.22 103.19 202.73 102.39 Z" />
</g>
<g id="#436027ff">
<path fill="#436027" opacity="1.00" d=" M 243.25 88.17 C 248.31 88.14 249.62 98.21 244.00 98.98 C 239.57 97.65 239.59 90.47 243.25 88.17 M 243.21 90.10 C 239.92 92.34 241.90 98.38 245.99 97.02 C 246.18 94.44 247.03 89.44 243.21 90.10 Z" />
</g>
<g id="#16aa57ff">
<path fill="#16aa57" opacity="1.00" d=" M 55.22 89.11 C 58.96 86.93 61.07 95.09 56.99 94.03 C 54.03 94.77 52.79 90.45 55.22 89.11 Z" />
</g>
<g id="#7ca24aff">
<path fill="#7ca24a" opacity="1.00" d=" M 243.21 90.10 C 247.03 89.44 246.18 94.44 245.99 97.02 C 241.90 98.38 239.92 92.34 243.21 90.10 Z" />
</g>
<g id="#061407ff">
<path fill="#061407" opacity="1.00" d=" M 187.32 115.01 C 191.26 107.45 184.97 96.49 191.03 90.41 C 196.30 91.98 192.41 98.90 196.43 101.54 C 200.89 103.59 196.88 109.28 197.87 112.75 C 195.40 117.84 194.20 123.40 193.69 129.03 C 185.61 128.97 192.14 118.80 187.32 115.01 Z" />
</g>
<g id="#12ad75ff">
<path fill="#12ad75" opacity="1.00" d=" M 196.21 93.11 C 199.23 91.61 201.48 99.80 198.02 99.01 C 195.21 99.62 193.88 94.46 196.21 93.11 Z" />
</g>
<g id="#0e2407ff">
<path fill="#0e2407" opacity="1.00" d=" M 56.00 96.96 C 58.92 97.98 61.84 99.15 64.99 99.15 C 65.05 100.36 65.13 101.57 65.22 102.78 C 67.85 113.76 59.34 109.07 56.03 104.88 C 55.83 102.24 55.82 99.60 56.00 96.96 Z" />
</g>
<g id="#15b367ff">
<path fill="#15b367" opacity="1.00" d=" M 51.17 98.05 C 58.09 95.41 55.88 114.04 51.21 106.70 C 50.10 103.83 50.32 100.88 51.17 98.05 Z" />
</g>
<g id="#6d9a35ff">
<path fill="#6d9a35" opacity="1.00" d=" M 0.00 99.86 C 6.49 100.78 6.00 111.73 0.00 113.49 L 0.00 111.49 C 3.58 109.25 4.95 102.69 0.00 101.49 L 0.00 99.86 Z" />
</g>
<g id="#34a55dff">
<path fill="#34a55d" opacity="1.00" d=" M 180.22 111.20 C 185.85 109.95 180.39 101.91 185.98 100.44 C 191.07 105.73 185.20 111.29 183.97 116.56 L 183.08 117.07 C 182.08 115.14 180.96 113.25 180.22 111.20 Z" />
</g>
<g id="#a3d254ff">
<path fill="#a3d254" opacity="1.00" d=" M 0.00 101.49 C 4.95 102.69 3.58 109.25 0.00 111.49 L 0.00 101.49 Z" />
</g>
<g id="#154611ff">
<path fill="#154611" opacity="1.00" d=" M 65.22 102.78 C 73.22 110.62 63.98 118.54 63.88 126.94 C 62.18 129.25 60.56 131.67 60.80 134.69 C 55.88 138.40 64.08 149.06 55.97 151.79 C 54.25 152.70 53.84 154.55 53.56 156.31 L 53.18 155.69 C 51.67 149.89 47.54 144.73 50.02 138.33 C 53.68 131.67 62.53 130.17 63.89 121.87 C 62.18 120.91 66.51 112.51 62.08 114.07 C 59.36 114.42 58.10 121.47 55.11 117.94 C 51.43 112.94 52.19 122.35 51.36 125.23 C 50.26 122.75 53.11 114.87 48.19 115.01 C 45.29 117.57 45.75 135.60 51.09 126.88 C 52.39 131.52 48.35 135.42 45.98 129.91 C 45.94 127.31 45.91 124.71 45.91 122.12 C 44.65 116.39 47.39 113.20 51.32 109.92 C 54.60 110.60 55.18 118.79 58.79 114.79 C 63.31 111.38 57.09 108.33 56.03 104.88 C 59.34 109.07 67.85 113.76 65.22 102.78 M 52.21 139.09 C 49.51 141.06 52.02 145.31 51.12 147.75 C 55.78 152.86 57.81 137.80 52.21 139.09 Z" />
</g>
<g id="#eafeadff">
<path fill="#eafead" opacity="1.00" d=" M 88.58 113.09 C 89.54 105.40 99.52 100.94 104.32 108.66 C 111.67 118.09 92.26 122.44 88.55 114.64 C 88.56 114.25 88.57 113.48 88.58 113.09 M 95.21 106.14 C 92.00 108.81 87.93 113.26 92.15 116.85 C 95.48 115.67 99.29 117.66 102.25 115.22 C 108.65 111.96 99.36 105.15 95.21 106.14 Z" />
</g>
<g id="#ebfeb1ff">
<path fill="#ebfeb1" opacity="1.00" d=" M 152.99 118.03 C 138.42 122.80 144.58 99.87 156.00 105.03 C 155.95 105.50 155.85 106.42 155.80 106.88 C 150.97 104.51 147.37 108.54 144.98 112.12 C 144.00 118.21 153.69 116.72 156.91 115.97 C 161.56 114.93 157.41 109.23 155.80 106.88 C 163.44 108.59 161.96 120.95 152.99 118.03 Z" />
</g>
<g id="#1cc483ff">
<path fill="#1cc483" opacity="1.00" d=" M 199.74 105.74 C 202.73 102.61 204.68 110.61 202.87 112.77 C 202.13 114.38 202.47 117.21 200.06 117.17 C 199.98 114.31 199.82 108.60 199.74 105.74 Z" />
</g>
<g id="#09250cff">
<path fill="#09250c" opacity="1.00" d=" M 204.15 104.84 C 206.48 111.70 204.11 119.52 205.17 126.67 C 207.06 129.61 211.17 127.26 214.13 127.17 C 214.20 133.44 215.26 139.88 213.93 146.09 C 210.85 145.76 210.78 139.31 207.69 141.66 C 205.04 148.41 207.46 156.10 206.94 163.19 C 199.87 162.43 201.79 150.71 202.75 146.08 C 206.65 133.15 202.42 118.32 204.15 104.84 Z" />
</g>
<g id="#fbfeeeff">
<path fill="#fbfeee" opacity="1.00" d=" M 95.21 106.14 C 99.36 105.15 108.65 111.96 102.25 115.22 C 99.29 117.66 95.48 115.67 92.15 116.85 C 87.93 113.26 92.00 108.81 95.21 106.14 Z" />
</g>
<g id="#fcfef1ff">
<path fill="#fcfef1" opacity="1.00" d=" M 144.98 112.12 C 147.37 108.54 150.97 104.51 155.80 106.88 C 157.41 109.23 161.56 114.93 156.91 115.97 C 153.69 116.72 144.00 118.21 144.98 112.12 Z" />
</g>
<g id="#20a057ff">
<path fill="#20a057" opacity="1.00" d=" M 196.06 123.24 C 199.47 118.01 199.23 111.74 199.74 105.74 C 199.82 108.60 199.98 114.31 200.06 117.17 C 202.47 117.21 202.13 114.38 202.87 112.77 C 201.40 121.50 203.13 130.23 203.05 138.99 C 205.79 143.27 202.16 144.15 199.88 145.45 C 200.32 137.59 196.03 130.85 196.06 123.24 M 200.21 130.20 C 198.76 133.40 198.37 142.82 201.94 142.98 C 201.25 139.25 204.55 129.89 200.21 130.20 Z" />
</g>
<g id="#486e25ff">
<path fill="#486e25" opacity="1.00" d=" M 244.96 109.98 C 246.60 109.13 248.30 108.40 250.00 107.66 L 250.00 109.51 C 243.45 109.88 246.62 117.37 246.30 121.68 C 247.23 126.34 245.33 132.47 250.00 135.48 L 250.00 141.40 C 244.69 139.04 246.11 132.46 245.22 127.79 C 245.11 125.24 245.02 122.71 244.94 120.17 C 244.93 116.76 244.95 113.38 244.96 109.98 Z" />
</g>
<g id="#14550bff">
<path fill="#14550b" opacity="1.00" d=" M 237.94 114.14 C 239.70 113.10 243.20 111.02 244.96 109.98 C 244.95 113.38 244.93 116.76 244.94 120.17 C 242.00 119.22 237.15 118.29 237.94 114.14 Z" />
</g>
<g id="#70983bff">
<path fill="#70983b" opacity="1.00" d=" M 246.30 121.68 C 246.62 117.37 243.45 109.88 250.00 109.51 L 250.00 110.48 C 244.40 112.65 246.43 121.14 250.00 124.56 L 250.00 135.48 C 245.33 132.47 247.23 126.34 246.30 121.68 Z" />
</g>
<g id="#99c850ff">
<path fill="#99c850" opacity="1.00" d=" M 250.00 124.56 C 246.43 121.14 244.40 112.65 250.00 110.48 L 250.00 124.56 Z" />
</g>
<g id="#092806ff">
<path fill="#092806" opacity="1.00" d=" M 55.11 117.94 C 58.10 121.47 59.36 114.42 62.08 114.07 C 66.51 112.51 62.18 120.91 63.89 121.87 C 62.53 130.17 53.68 131.67 50.02 138.33 C 48.23 135.78 45.80 133.26 45.98 129.91 C 48.35 135.42 52.39 131.52 51.09 126.88 C 51.16 126.47 51.29 125.64 51.36 125.23 C 52.19 122.35 51.43 112.94 55.11 117.94 Z" />
</g>
<g id="#117a34ff">
<path fill="#117a34" opacity="1.00" d=" M 48.19 115.01 C 53.11 114.87 50.26 122.75 51.36 125.23 C 51.29 125.64 51.16 126.47 51.09 126.88 C 45.75 135.60 45.29 117.57 48.19 115.01 Z" />
</g>
<g id="#59772bff">
<path fill="#59772b" opacity="1.00" d=" M 183.08 117.07 L 183.97 116.56 C 187.10 128.51 192.11 140.14 188.11 153.04 C 187.87 150.61 187.61 148.19 187.33 145.78 C 189.54 135.28 182.90 127.12 183.08 117.07 Z" />
</g>
<g id="#020e03ff">
<path fill="#020e03" opacity="1.00" d=" M 12.04 122.20 C 19.60 117.93 28.98 116.49 36.02 122.84 C 39.21 120.89 43.89 116.40 45.91 122.12 C 45.91 124.71 45.94 127.31 45.98 129.91 C 45.80 133.26 48.23 135.78 50.02 138.33 C 47.54 144.73 51.67 149.89 53.18 155.69 C 57.54 164.55 51.09 164.40 45.34 165.86 C 45.65 159.50 36.17 159.44 36.14 153.08 C 37.11 150.12 37.43 146.31 34.68 144.26 C 31.45 141.54 27.69 146.80 24.50 145.57 C 22.35 142.84 19.03 142.01 15.95 140.83 C 16.45 137.65 18.10 134.71 17.73 131.38 C 15.74 128.40 10.83 126.43 12.04 122.20 Z" />
</g>
<g id="#8cb33fff">
<path fill="#8cb33f" opacity="1.00" d=" M 65.98 128.03 C 66.60 124.73 64.65 120.19 67.91 118.02 C 67.88 119.73 67.84 123.16 67.82 124.88 C 67.24 125.95 66.70 127.04 65.98 128.03 Z" />
</g>
<g id="#1e6423ff">
<path fill="#1e6423" opacity="1.00" d=" M 214.33 125.31 C 214.83 121.52 214.09 115.96 219.16 118.80 L 219.22 119.73 C 219.57 128.78 216.84 138.95 220.75 147.24 C 223.35 152.25 229.18 149.61 230.00 144.87 C 235.02 141.80 234.54 148.50 235.15 151.86 C 228.02 152.14 210.63 145.37 213.90 159.00 C 213.25 158.30 212.58 157.62 211.91 156.94 C 209.99 162.39 211.28 168.50 208.89 173.86 C 207.66 172.72 206.47 171.55 205.15 170.53 C 205.80 168.09 206.58 165.69 206.94 163.19 C 207.46 156.10 205.04 148.41 207.69 141.66 C 210.78 139.31 210.85 145.76 213.93 146.09 C 215.26 139.88 214.20 133.44 214.13 127.17 C 214.18 126.70 214.28 125.77 214.33 125.31 Z" />
</g>
<g id="#89a743ff">
<path fill="#89a743" opacity="1.00" d=" M 88.96 131.01 C 81.82 129.98 83.53 115.65 92.00 119.98 C 94.99 123.08 102.34 123.01 102.99 128.01 C 102.49 127.72 101.49 127.14 101.00 126.85 C 100.72 126.68 100.17 126.34 99.89 126.17 C 94.86 125.50 93.07 118.72 87.21 121.05 C 84.40 123.39 85.09 128.70 88.90 129.19 C 88.91 129.65 88.95 130.55 88.96 131.01 Z" />
</g>
<g id="#8bab41ff">
<path fill="#8bab41" opacity="1.00" d=" M 155.98 121.89 C 159.06 115.12 171.21 123.58 163.27 129.33 C 166.59 122.81 162.23 118.60 155.98 121.89 Z" />
</g>
<g id="#495826ff">
<path fill="#495826" opacity="1.00" d=" M 87.21 121.05 C 93.07 118.72 94.86 125.50 99.89 126.17 C 93.84 129.37 93.38 120.30 88.26 122.11 C 85.56 123.89 87.53 127.21 88.90 129.19 C 85.09 128.70 84.40 123.39 87.21 121.05 Z" />
</g>
<g id="#4c5b2aff">
<path fill="#4c5b2a" opacity="1.00" d=" M 155.98 121.89 C 162.23 118.60 166.59 122.81 163.27 129.33 C 162.73 129.24 161.64 129.05 161.10 128.96 C 162.57 127.10 164.37 123.82 161.75 122.11 C 156.60 120.31 156.13 129.42 150.04 126.12 C 152.61 125.37 155.80 125.03 155.98 121.89 Z" />
</g>
<g id="#0d1008ff">
<path fill="#0d1008" opacity="1.00" d=" M 88.26 122.11 C 93.38 120.30 93.84 129.37 99.89 126.17 C 100.17 126.34 100.72 126.68 101.00 126.85 C 101.01 130.84 105.17 129.99 108.24 129.93 C 108.69 133.41 107.37 137.11 103.18 136.11 C 102.95 135.77 102.50 135.09 102.27 134.75 C 100.00 129.55 92.27 134.03 88.90 129.19 C 87.53 127.21 85.56 123.89 88.26 122.11 Z" />
</g>
<g id="#879f4bff">
<path fill="#879f4b" opacity="1.00" d=" M 153.90 123.20 C 154.42 122.87 155.46 122.21 155.98 121.89 C 155.80 125.03 152.61 125.37 150.04 126.12 C 149.72 126.25 149.09 126.50 148.77 126.63 L 147.91 126.97 C 148.36 124.00 151.40 123.84 153.90 123.20 Z" />
</g>
<g id="#0e100aff">
<path fill="#0e100a" opacity="1.00" d=" M 150.04 126.12 C 156.13 129.42 156.60 120.31 161.75 122.11 C 164.37 123.82 162.57 127.10 161.10 128.96 C 160.88 129.26 160.43 129.87 160.20 130.17 C 156.51 133.30 149.67 129.59 147.74 134.75 C 147.51 135.09 147.06 135.77 146.83 136.11 C 144.88 136.06 142.60 136.17 141.76 134.01 C 143.06 130.41 148.88 130.77 148.77 126.63 C 149.09 126.50 149.72 126.25 150.04 126.12 Z" />
</g>
<g id="#bce958ff">
<path fill="#bce958" opacity="1.00" d=" M 65.98 128.03 C 66.70 127.04 67.24 125.95 67.82 124.88 C 68.12 130.32 70.98 135.37 76.97 135.03 C 85.41 137.59 92.96 142.54 101.61 144.51 C 103.94 144.68 102.43 146.87 102.19 148.23 C 101.13 149.97 101.05 152.01 100.84 153.97 C 98.70 157.07 94.55 156.37 92.90 153.21 C 90.31 149.28 85.99 147.55 81.35 147.57 C 76.28 143.85 69.92 142.94 63.81 144.76 C 63.98 139.89 63.86 135.02 64.13 130.16 C 64.77 129.47 65.39 128.76 65.98 128.03 Z" />
</g>
<g id="#495927ff">
<path fill="#495927" opacity="1.00" d=" M 101.00 126.85 C 101.49 127.14 102.49 127.72 102.99 128.01 C 104.30 128.49 106.92 129.45 108.24 129.93 C 105.17 129.99 101.01 130.84 101.00 126.85 Z" />
</g>
<g id="#4e5f28ff">
<path fill="#4e5f28" opacity="1.00" d=" M 146.82 127.79 C 147.09 127.58 147.64 127.17 147.91 126.97 L 148.77 126.63 C 148.88 130.77 143.06 130.41 141.76 134.01 C 142.60 136.17 144.88 136.06 146.83 136.11 C 138.02 140.51 140.49 128.56 146.82 127.79 Z" />
</g>
<g id="#bce959ff">
<path fill="#bce959" opacity="1.00" d=" M 181.92 126.75 C 187.86 131.48 186.09 139.30 185.94 146.00 C 178.70 139.86 172.41 149.00 164.99 147.97 C 162.09 147.54 160.51 150.09 158.80 151.94 C 156.15 154.52 152.23 158.26 149.12 153.99 C 149.20 151.35 148.60 148.80 146.71 146.88 C 157.32 141.22 170.35 134.73 182.75 134.88 C 181.02 132.47 181.71 129.52 181.92 126.75 Z" />
</g>
<g id="#194912ff">
<path fill="#194912" opacity="1.00" d=" M 0.00 130.21 C 4.49 130.74 10.17 125.76 13.72 130.30 C 17.50 134.17 11.01 141.61 6.88 138.33 C 4.62 137.81 4.94 140.81 6.07 141.94 C 11.69 151.93 10.04 164.20 16.17 173.86 C 16.11 175.97 16.00 178.07 15.81 180.17 C 16.84 175.56 9.01 164.96 6.34 173.25 C 7.50 176.25 8.10 179.40 7.19 182.74 C 8.83 185.91 12.40 184.91 15.12 184.02 C 12.99 188.95 4.44 186.37 0.00 189.36 L 0.00 149.46 C 7.33 149.17 4.81 139.51 0.00 137.42 L 0.00 130.21 M 4.23 152.12 C 1.26 155.11 3.84 161.72 5.19 164.95 C 12.50 164.52 10.79 151.47 4.23 152.12 Z" />
</g>
<g id="#85a443ff">
<path fill="#85a443" opacity="1.00" d=" M 102.99 128.01 C 109.53 124.21 114.11 134.72 108.70 137.85 C 105.70 139.09 99.65 138.23 100.08 133.92 C 100.63 134.12 101.72 134.54 102.27 134.75 C 102.50 135.09 102.95 135.77 103.18 136.11 C 107.53 141.04 111.83 132.41 108.24 129.93 C 106.92 129.45 104.30 128.49 102.99 128.01 Z" />
</g>
<g id="#87a641ff">
<path fill="#87a641" opacity="1.00" d=" M 146.78 137.75 C 136.59 142.64 138.13 124.98 146.82 127.79 C 140.49 128.56 138.02 140.51 146.83 136.11 C 147.06 135.77 147.51 135.09 147.74 134.75 C 151.52 131.82 158.43 135.43 160.20 130.17 C 160.43 129.87 160.88 129.26 161.10 128.96 C 161.64 129.05 162.73 129.24 163.27 129.33 C 160.16 136.41 151.68 132.77 146.78 137.75 Z" />
</g>
<g id="#516329ff">
<path fill="#516329" opacity="1.00" d=" M 88.90 129.19 C 92.27 134.03 100.00 129.55 102.27 134.75 C 101.72 134.54 100.63 134.12 100.08 133.92 C 96.40 133.00 92.02 133.69 88.96 131.01 C 88.95 130.55 88.91 129.65 88.90 129.19 Z" />
</g>
<g id="#89b349ff">
<path fill="#89b349" opacity="1.00" d=" M 61.91 150.03 C 62.83 143.65 60.29 135.78 64.13 130.16 C 63.86 135.02 63.98 139.89 63.81 144.76 C 63.43 146.48 63.09 148.20 62.80 149.94 L 61.91 150.03 Z" />
</g>
<g id="#465724ff">
<path fill="#465724" opacity="1.00" d=" M 108.24 129.93 C 111.83 132.41 107.53 141.04 103.18 136.11 C 107.37 137.11 108.69 133.41 108.24 129.93 Z" />
</g>
<g id="#4c5d28ff">
<path fill="#4c5d28" opacity="1.00" d=" M 147.74 134.75 C 149.67 129.59 156.51 133.30 160.20 130.17 C 158.43 135.43 151.52 131.82 147.74 134.75 Z" />
</g>
<g id="#23cd81ff">
<path fill="#23cd81" opacity="1.00" d=" M 200.21 130.20 C 204.55 129.89 201.25 139.25 201.94 142.98 C 198.37 142.82 198.76 133.40 200.21 130.20 Z" />
</g>
<g id="#8cad43ff">
<path fill="#8cad43" opacity="1.00" d=" M 88.96 131.01 C 92.02 133.69 96.40 133.00 100.08 133.92 C 97.24 132.75 89.02 136.60 88.96 131.01 Z" />
</g>
<g id="#0b1f07ff">
<path fill="#0b1f07" opacity="1.00" d=" M 190.11 140.75 C 188.99 137.86 189.70 131.72 193.93 132.01 C 200.12 133.40 197.39 141.63 198.80 146.17 C 199.46 148.18 196.66 146.20 195.84 146.17 C 196.24 142.55 191.61 143.19 190.11 140.75 Z" />
</g>
<g id="#29621aff">
<path fill="#29621a" opacity="1.00" d=" M 55.97 151.79 C 64.08 149.06 55.88 138.40 60.80 134.69 C 61.35 141.47 60.20 148.56 61.90 155.08 C 66.10 159.24 67.52 165.41 72.06 169.24 C 69.01 175.23 66.55 165.79 62.32 166.63 C 63.16 163.63 63.17 160.57 59.98 159.06 C 57.91 156.85 60.85 150.88 55.97 151.79 Z" />
</g>
<g id="#dbf4a0ff">
<path fill="#dbf4a0" opacity="1.00" d=" M 114.40 136.32 C 126.08 134.62 140.81 134.67 146.71 146.88 C 148.60 148.80 149.20 151.35 149.12 153.99 C 148.33 152.71 147.84 151.29 147.17 149.96 C 143.02 145.42 139.35 140.16 133.86 137.09 C 128.27 136.96 122.62 136.53 117.05 137.16 C 111.51 140.48 107.30 145.46 102.89 150.09 C 102.17 151.36 101.63 152.73 100.84 153.97 C 101.05 152.01 101.13 149.97 102.19 148.23 C 106.29 144.30 110.68 140.63 114.40 136.32 Z" />
</g>
<g id="#f1f3ebff">
<path fill="#f1f3eb" opacity="1.00" d=" M 117.05 137.16 C 122.62 136.53 128.27 136.96 133.86 137.09 C 139.35 140.16 143.02 145.42 147.17 149.96 C 147.70 156.23 136.25 159.11 138.19 149.82 C 135.42 140.65 123.34 142.00 116.81 143.77 C 114.21 147.76 116.41 153.16 113.79 156.99 C 109.73 156.17 102.77 155.59 102.89 150.09 C 107.30 145.46 111.51 140.48 117.05 137.16 Z" />
</g>
<g id="#456c26ff">
<path fill="#456c26" opacity="1.00" d=" M 0.00 137.42 C 4.81 139.51 7.33 149.17 0.00 149.46 L 0.00 137.42 Z" />
</g>
<g id="#14a038ff">
<path fill="#14a038" opacity="1.00" d=" M 52.21 139.09 C 57.81 137.80 55.78 152.86 51.12 147.75 C 52.02 145.31 49.51 141.06 52.21 139.09 Z" />
</g>
<g id="#29621dff">
<path fill="#29621d" opacity="1.00" d=" M 240.20 142.07 C 244.69 142.05 242.52 152.20 250.00 148.15 L 250.00 163.10 C 247.50 160.08 243.65 161.65 240.27 161.71 C 238.90 155.30 236.35 148.08 240.20 142.07 Z" />
</g>
<g id="#b5b5b5ff">
<path fill="#b5b5b5" opacity="1.00" d=" M 116.81 143.77 C 123.34 142.00 135.42 140.65 138.19 149.82 C 137.91 151.34 137.34 154.39 137.06 155.92 C 137.72 153.28 137.38 151.01 136.02 149.11 C 134.64 147.75 133.26 146.40 131.87 145.05 C 127.30 143.29 121.69 143.54 116.83 144.74 L 116.81 143.77 Z" />
</g>
<g id="#c5dd95ff">
<path fill="#c5dd95" opacity="1.00" d=" M 63.81 144.76 C 69.92 142.94 76.28 143.85 81.35 147.57 C 85.99 147.55 90.31 149.28 92.90 153.21 C 85.36 148.86 76.59 146.94 68.10 146.02 C 63.50 146.63 63.48 151.04 64.02 154.89 C 62.57 153.66 63.09 151.59 62.80 149.94 C 63.09 148.20 63.43 146.48 63.81 144.76 Z" />
</g>
<g id="#cfd1ccff">
<path fill="#cfd1cc" opacity="1.00" d=" M 113.79 156.99 C 116.41 153.16 114.21 147.76 116.81 143.77 L 116.83 144.74 C 116.94 147.50 116.33 150.19 116.11 152.92 C 117.11 157.77 124.00 159.60 123.90 164.76 C 123.29 165.96 122.65 167.14 122.03 168.33 C 117.18 165.12 111.81 163.56 106.18 165.33 C 96.02 163.33 84.82 158.94 74.92 163.80 C 72.70 162.10 71.16 159.38 68.10 158.82 C 66.72 157.53 65.34 156.24 64.02 154.89 C 63.48 151.04 63.50 146.63 68.10 146.02 C 76.59 146.94 85.36 148.86 92.90 153.21 C 94.55 156.37 98.70 157.07 100.84 153.97 C 101.63 152.73 102.17 151.36 102.89 150.09 C 102.77 155.59 109.73 156.17 113.79 156.99 Z" />
</g>
<g id="#7c7c7cff">
<path fill="#7c7c7c" opacity="1.00" d=" M 116.83 144.74 C 121.69 143.54 127.30 143.29 131.87 145.05 C 127.60 145.57 122.77 143.74 118.75 145.71 C 114.54 152.14 120.58 156.99 125.05 160.91 C 124.17 165.22 124.03 169.38 128.89 167.97 C 128.92 166.22 128.96 162.72 128.98 160.97 C 129.90 159.93 130.94 159.02 131.90 158.03 C 132.51 157.84 133.73 157.47 134.34 157.28 C 133.49 158.43 132.63 159.56 131.70 160.65 C 128.32 164.57 130.61 171.15 129.85 176.22 C 122.24 180.23 123.73 169.40 123.90 164.76 C 124.00 159.60 117.11 157.77 116.11 152.92 C 116.33 150.19 116.94 147.50 116.83 144.74 M 126.21 171.10 C 124.51 172.12 124.51 174.88 126.21 175.90 C 129.94 177.08 129.94 169.92 126.21 171.10 Z" />
</g>
<g id="#c7de93ff">
<path fill="#c7de93" opacity="1.00" d=" M 164.99 147.97 C 172.41 149.00 178.70 139.86 185.94 146.00 C 186.22 146.55 186.78 147.65 187.07 148.20 C 186.92 149.43 186.89 150.75 186.15 151.81 C 186.10 144.90 177.82 146.92 173.30 148.15 C 168.09 148.06 163.46 150.02 158.80 151.94 C 160.51 150.09 162.09 147.54 164.99 147.97 Z" />
</g>
<g id="#268849ff">
<path fill="#268849" opacity="1.00" d=" M 191.17 147.70 C 189.70 143.96 194.42 142.97 195.84 146.17 C 199.07 148.27 202.78 153.21 199.77 156.85 C 192.93 159.25 196.61 149.17 191.17 147.70 M 196.04 150.02 C 195.87 152.55 195.16 156.29 198.96 154.98 C 199.12 152.44 199.84 148.71 196.04 150.02 Z" />
</g>
<g id="#466623ff">
<path fill="#466623" opacity="1.00" d=" M 27.53 146.37 C 30.43 145.95 34.45 143.45 35.53 147.67 C 29.32 146.84 22.71 147.13 16.69 148.75 C 14.91 150.83 14.58 153.62 16.23 155.89 C 19.95 156.86 22.37 152.55 26.08 152.92 C 26.28 155.42 23.95 156.84 22.63 158.64 C 21.91 159.38 21.23 160.15 20.57 160.95 C 16.57 168.21 32.39 161.93 29.29 167.26 C 25.43 167.07 23.00 168.15 24.10 171.85 C 27.24 173.26 30.71 172.18 34.01 172.05 C 30.88 173.86 24.59 177.11 22.77 172.29 C 22.81 166.65 15.25 163.46 20.01 158.13 C 16.50 157.11 11.94 155.49 14.28 150.36 C 15.70 144.42 23.31 147.81 27.53 146.37 Z" />
</g>
<g id="#3d3d3dff">
<path fill="#3d3d3d" opacity="1.00" d=" M 118.75 145.71 C 122.77 143.74 127.60 145.57 131.87 145.05 C 133.26 146.40 134.64 147.75 136.02 149.11 C 135.84 151.91 135.61 154.74 134.34 157.28 C 133.73 157.47 132.51 157.84 131.90 158.03 C 133.23 155.18 137.33 151.31 133.33 148.66 C 130.00 143.94 123.46 146.69 118.75 145.71 Z" />
</g>
<g id="#090909ff">
<path fill="#090909" opacity="1.00" d=" M 125.05 160.91 C 120.58 156.99 114.54 152.14 118.75 145.71 C 123.46 146.69 130.00 143.94 133.33 148.66 C 137.33 151.31 133.23 155.18 131.90 158.03 C 130.94 159.02 129.90 159.93 128.98 160.97 C 128.44 169.94 125.86 167.12 125.05 160.91 Z" />
</g>
<g id="#7a8369ff">
<path fill="#7a8369" opacity="1.00" d=" M 187.33 145.78 C 187.61 148.19 187.87 150.61 188.11 153.04 C 186.42 155.48 185.04 158.10 183.91 160.84 C 180.53 164.78 177.96 169.64 173.18 172.12 C 178.87 166.22 182.73 159.13 186.15 151.81 C 186.89 150.75 186.92 149.43 187.07 148.20 C 187.13 147.59 187.27 146.39 187.33 145.78 Z" />
</g>
<g id="#88a640ff">
<path fill="#88a640" opacity="1.00" d=" M 16.69 148.75 C 22.71 147.13 29.32 146.84 35.53 147.67 C 35.44 152.94 30.19 154.95 27.81 158.90 C 31.08 160.52 35.02 159.28 38.36 160.76 C 35.26 159.49 28.39 163.52 27.20 158.77 C 26.91 155.84 24.20 158.23 22.63 158.64 C 23.95 156.84 26.28 155.42 26.08 152.92 C 22.37 152.55 19.95 156.86 16.23 155.89 C 14.58 153.62 14.91 150.83 16.69 148.75 C 13.54 162.85 23.20 146.96 27.60 153.39 C 29.75 157.54 32.98 151.15 34.26 149.18 C 28.40 148.97 22.55 148.93 16.69 148.75 Z" />
</g>
<g id="#cfd1cbff">
<path fill="#cfd1cb" opacity="1.00" d=" M 173.30 148.15 C 177.82 146.92 186.10 144.90 186.15 151.81 C 181.46 152.51 183.02 158.36 179.52 160.50 C 177.30 161.84 178.17 167.81 174.73 165.26 C 165.73 159.81 155.18 165.13 145.55 164.54 C 140.67 162.76 136.86 166.97 132.23 166.96 C 130.06 165.47 131.32 162.70 131.70 160.65 C 132.63 159.56 133.49 158.43 134.34 157.28 C 135.25 156.84 136.16 156.39 137.06 155.92 C 137.34 154.39 137.91 151.34 138.19 149.82 C 136.25 159.11 147.70 156.23 147.17 149.96 C 147.84 151.29 148.33 152.71 149.12 153.99 C 152.23 158.26 156.15 154.52 158.80 151.94 C 163.46 150.02 168.09 148.06 173.30 148.15 Z" />
</g>
<g id="#48651eff">
<path fill="#48651e" opacity="1.00" d=" M 35.53 147.67 C 35.93 149.45 36.03 151.27 36.14 153.08 C 33.80 153.87 29.36 158.91 33.95 158.99 C 41.63 155.93 44.10 168.13 36.99 169.12 C 38.55 166.74 41.87 163.02 38.36 160.76 C 35.02 159.28 31.08 160.52 27.81 158.90 C 30.19 154.95 35.44 152.94 35.53 147.67 Z" />
</g>
<g id="#cae365ff">
<path fill="#cae365" opacity="1.00" d=" M 16.69 148.75 C 22.55 148.93 28.40 148.97 34.26 149.18 C 32.98 151.15 29.75 157.54 27.60 153.39 C 23.20 146.96 13.54 162.85 16.69 148.75 Z" />
</g>
<g id="#757575ff">
<path fill="#757575" opacity="1.00" d=" M 136.02 149.11 C 137.38 151.01 137.72 153.28 137.06 155.92 C 136.16 156.39 135.25 156.84 134.34 157.28 C 135.61 154.74 135.84 151.91 136.02 149.11 Z" />
</g>
<g id="#738567ff">
<path fill="#738567" opacity="1.00" d=" M 61.91 150.03 L 62.80 149.94 C 63.09 151.59 62.57 153.66 64.02 154.89 C 65.34 156.24 66.72 157.53 68.10 158.82 C 70.31 163.33 71.96 168.70 76.82 171.06 C 84.45 174.03 89.54 180.89 97.41 183.68 C 101.60 186.93 108.45 184.30 111.12 189.96 C 119.25 192.00 128.43 188.80 136.98 190.84 C 147.13 184.85 159.59 183.91 168.26 175.22 C 170.18 174.68 171.68 173.36 173.18 172.12 C 172.45 176.91 167.06 176.93 164.03 179.70 C 158.85 185.21 150.80 185.88 144.87 189.85 C 142.08 193.25 137.60 193.92 133.45 194.02 C 129.26 190.74 120.89 190.23 116.62 193.95 C 114.24 193.43 111.93 192.60 109.54 192.10 C 108.83 191.03 109.20 188.58 107.58 188.50 C 95.77 188.70 88.04 178.42 77.92 174.02 C 75.75 172.70 73.89 170.98 72.06 169.24 C 67.52 165.41 66.10 159.24 61.90 155.08 C 61.88 153.40 61.88 151.71 61.91 150.03 Z" />
</g>
<g id="#28ce84ff">
<path fill="#28ce84" opacity="1.00" d=" M 196.04 150.02 C 199.84 148.71 199.12 152.44 198.96 154.98 C 195.16 156.29 195.87 152.55 196.04 150.02 Z" />
</g>
<g id="#6a9236ff">
<path fill="#6a9236" opacity="1.00" d=" M 213.90 159.00 C 210.63 145.37 228.02 152.14 235.15 151.86 C 235.15 153.64 234.64 155.36 234.04 157.03 C 230.98 157.72 225.08 157.99 227.26 162.62 C 231.18 164.26 232.34 168.64 227.04 168.87 C 225.79 169.09 223.89 170.79 223.09 169.00 C 220.84 164.98 216.99 162.31 213.90 159.00 M 216.27 152.14 C 213.69 153.81 213.40 160.88 217.74 158.85 C 218.49 156.67 221.23 154.56 222.89 157.22 C 224.15 159.96 220.98 160.34 220.05 162.08 C 221.09 163.27 223.16 165.65 224.19 166.84 C 230.47 168.53 222.74 157.51 228.07 156.11 C 230.59 158.32 236.52 154.30 232.79 152.16 C 227.31 151.58 221.75 152.03 216.27 152.14 Z" />
</g>
<g id="#2b802aff">
<path fill="#2b802a" opacity="1.00" d=" M 4.23 152.12 C 10.79 151.47 12.50 164.52 5.19 164.95 C 3.84 161.72 1.26 155.11 4.23 152.12 Z" />
</g>
<g id="#1d892cff">
<path fill="#1d892c" opacity="1.00" d=" M 53.56 156.31 C 53.84 154.55 54.25 152.70 55.97 151.79 C 60.85 150.88 57.91 156.85 59.98 159.06 C 63.17 160.57 63.16 163.63 62.32 166.63 C 66.55 165.79 69.01 175.23 72.06 169.24 C 73.89 170.98 75.75 172.70 77.92 174.02 C 79.90 177.32 82.30 180.34 84.66 183.37 C 79.21 179.90 74.31 175.59 68.82 172.15 C 64.59 171.27 68.86 176.55 70.02 178.10 C 68.78 177.28 67.53 176.49 66.31 175.65 C 60.26 170.30 58.19 162.58 53.56 156.31 Z" />
</g>
<g id="#b6b6b6ff">
<path fill="#b6b6b6" opacity="1.00" d=" M 179.52 160.50 C 183.02 158.36 181.46 152.51 186.15 151.81 C 182.73 159.13 178.87 166.22 173.18 172.12 C 171.68 173.36 170.18 174.68 168.26 175.22 C 162.21 172.21 157.85 183.83 153.25 177.64 C 149.61 176.17 142.54 179.49 141.84 173.95 C 144.44 168.71 139.89 164.96 135.86 167.94 C 133.37 169.90 135.46 174.52 135.55 177.38 C 137.20 181.43 129.67 179.41 129.85 176.22 C 130.61 171.15 128.32 164.57 131.70 160.65 C 131.32 162.70 130.06 165.47 132.23 166.96 C 136.86 166.97 140.67 162.76 145.55 164.54 C 155.18 165.13 165.73 159.81 174.73 165.26 C 178.17 167.81 177.30 161.84 179.52 160.50 Z" />
</g>
<g id="#b0d858ff">
<path fill="#b0d858" opacity="1.00" d=" M 216.27 152.14 C 221.75 152.03 227.31 151.58 232.79 152.16 C 236.52 154.30 230.59 158.32 228.07 156.11 C 222.74 157.51 230.47 168.53 224.19 166.84 C 223.16 165.65 221.09 163.27 220.05 162.08 C 220.98 160.34 224.15 159.96 222.89 157.22 C 221.23 154.56 218.49 156.67 217.74 158.85 C 213.40 160.88 213.69 153.81 216.27 152.14 Z" />
</g>
<g id="#b5e252ff">
<path fill="#b5e252" opacity="1.00" d=" M 22.63 158.64 C 24.20 158.23 26.91 155.84 27.20 158.77 C 28.39 163.52 35.26 159.49 38.36 160.76 C 38.52 165.41 34.23 173.12 28.96 170.11 C 30.33 168.73 32.63 167.55 31.95 165.22 C 29.02 161.64 22.25 165.26 20.57 160.95 C 21.23 160.15 21.91 159.38 22.63 158.64 Z" />
</g>
<g id="#2b6923ff">
<path fill="#2b6923" opacity="1.00" d=" M 227.26 162.62 C 225.08 157.99 230.98 157.72 234.04 157.03 C 233.89 162.63 235.32 168.21 234.17 173.79 C 241.36 179.32 235.20 163.57 240.82 164.08 C 243.49 167.12 242.65 171.15 241.75 174.68 C 240.22 178.51 244.48 185.50 238.62 186.55 C 231.79 187.17 234.37 199.17 225.88 195.97 C 225.42 192.98 228.33 191.71 230.04 189.86 C 230.02 187.36 225.33 185.53 228.26 183.29 C 232.15 179.69 233.02 170.49 227.04 168.87 C 232.34 168.64 231.18 164.26 227.26 162.62 Z" />
</g>
<g id="#18a361ff">
<path fill="#18a361" opacity="1.00" d=" M 191.58 159.41 C 192.36 156.06 195.16 159.61 195.97 161.14 C 193.16 168.31 187.27 175.28 181.39 181.35 C 179.64 182.13 177.86 182.95 175.92 183.09 C 177.01 177.06 184.44 174.31 186.13 168.10 C 187.12 164.52 191.67 163.60 191.58 159.41 Z" />
</g>
<g id="#0e280eff">
<path fill="#0e280e" opacity="1.00" d=" M 195.97 161.14 C 195.66 158.80 196.27 157.19 198.85 158.14 C 200.62 161.11 197.70 164.28 198.65 167.34 C 199.37 170.47 202.47 174.45 197.98 176.00 C 193.22 177.19 201.26 183.33 196.06 183.00 C 186.84 179.16 192.64 190.20 187.94 191.10 C 184.52 190.50 179.89 191.20 182.53 196.60 C 182.60 200.87 176.40 197.43 173.95 198.69 C 169.74 198.80 165.37 202.85 167.75 207.16 C 168.75 213.95 179.31 201.60 174.71 212.92 C 172.98 216.72 176.13 219.20 179.83 219.01 C 176.29 219.05 173.39 220.52 170.96 222.86 C 173.11 219.33 168.83 217.27 166.71 215.18 C 164.87 212.97 163.42 210.48 161.93 208.03 C 161.10 205.48 158.24 206.06 156.13 205.72 C 156.84 201.05 151.63 204.10 148.99 203.91 L 148.98 203.03 C 152.56 202.13 157.92 203.64 159.25 199.30 C 161.19 193.39 170.13 195.36 172.80 189.77 C 174.85 186.14 178.69 184.33 181.39 181.35 C 187.27 175.28 193.16 168.31 195.97 161.14 Z" />
</g>
<g id="#b8b8b8ff">
<path fill="#b8b8b8" opacity="1.00" d=" M 68.10 158.82 C 71.16 159.38 72.70 162.10 74.92 163.80 C 84.82 158.94 96.02 163.33 106.18 165.33 C 111.81 163.56 117.18 165.12 122.03 168.33 C 122.29 171.57 122.75 174.79 122.96 178.05 C 117.38 179.14 119.84 172.17 118.34 168.81 C 114.26 163.52 109.76 170.00 111.76 175.10 C 106.48 179.78 99.07 172.42 92.98 175.99 C 86.19 179.75 83.62 168.86 76.82 171.06 C 71.96 168.70 70.31 163.33 68.10 158.82 Z" />
</g>
<g id="#80a73eff">
<path fill="#80a73e" opacity="1.00" d=" M 29.29 167.26 C 32.39 161.93 16.57 168.21 20.57 160.95 C 22.25 165.26 29.02 161.64 31.95 165.22 C 32.63 167.55 30.33 168.73 28.96 170.11 C 34.23 173.12 38.52 165.41 38.36 160.76 C 41.87 163.02 38.55 166.74 36.99 169.12 C 35.98 170.08 35.04 171.11 34.01 172.05 C 30.71 172.18 27.24 173.26 24.10 171.85 C 23.00 168.15 25.43 167.07 29.29 167.26 Z" />
</g>
<g id="#4b4b4bff">
<path fill="#4b4b4b" opacity="1.00" d=" M 125.05 160.91 C 125.86 167.12 128.44 169.94 128.98 160.97 C 128.96 162.72 128.92 166.22 128.89 167.97 C 124.03 169.38 124.17 165.22 125.05 160.91 Z" />
</g>
<g id="#497d43ff">
<path fill="#497d43" opacity="1.00" d=" M 173.18 172.12 C 177.96 169.64 180.53 164.78 183.91 160.84 C 182.86 163.52 181.50 166.08 180.79 168.89 C 179.86 175.55 173.68 179.29 169.04 183.37 C 167.28 182.18 166.39 179.91 164.03 179.70 C 167.06 176.93 172.45 176.91 173.18 172.12 Z" />
</g>
<g id="#a4a5a4ff">
<path fill="#a4a5a4" opacity="1.00" d=" M 122.03 168.33 C 122.65 167.14 123.29 165.96 123.90 164.76 C 123.73 169.40 122.24 180.23 129.85 176.22 C 129.67 179.41 137.20 181.43 135.55 177.38 C 135.46 174.52 133.37 169.90 135.86 167.94 C 132.30 173.14 139.14 180.79 141.84 173.95 C 142.54 179.49 149.61 176.17 153.25 177.64 C 157.85 183.83 162.21 172.21 168.26 175.22 C 159.59 183.91 147.13 184.85 136.98 190.84 C 128.43 188.80 119.25 192.00 111.12 189.96 C 108.45 184.30 101.60 186.93 97.41 183.68 C 89.54 180.89 84.45 174.03 76.82 171.06 C 83.62 168.86 86.19 179.75 92.98 175.99 C 99.07 172.42 106.48 179.78 111.76 175.10 C 115.96 180.46 120.14 173.91 118.34 168.81 C 119.84 172.17 117.38 179.14 122.96 178.05 C 122.75 174.79 122.29 171.57 122.03 168.33 Z" />
</g>
<g id="#7e7e7eff">
<path fill="#7e7e7e" opacity="1.00" d=" M 111.76 175.10 C 109.76 170.00 114.26 163.52 118.34 168.81 C 120.14 173.91 115.96 180.46 111.76 175.10 M 114.21 168.11 C 112.06 169.81 111.81 174.21 114.22 175.91 C 118.58 176.84 118.71 167.06 114.21 168.11 Z" />
</g>
<g id="#6e6e6eff">
<path fill="#6e6e6e" opacity="1.00" d=" M 135.86 167.94 C 139.89 164.96 144.44 168.71 141.84 173.95 C 139.14 180.79 132.30 173.14 135.86 167.94 M 137.06 169.02 C 137.10 171.61 135.70 176.40 139.94 174.98 C 139.90 172.39 141.29 167.60 137.06 169.02 Z" />
</g>
<g id="#3b3b3bff">
<path fill="#3b3b3b" opacity="1.00" d=" M 114.21 168.11 C 118.71 167.06 118.58 176.84 114.22 175.91 C 111.81 174.21 112.06 169.81 114.21 168.11 Z" />
</g>
<g id="#1f7f41ff">
<path fill="#1f7f41" opacity="1.00" d=" M 180.79 168.89 C 182.56 168.60 184.34 168.32 186.13 168.10 C 184.44 174.31 177.01 177.06 175.92 183.09 C 177.86 182.95 179.64 182.13 181.39 181.35 C 178.69 184.33 174.85 186.14 172.80 189.77 C 170.13 195.36 161.19 193.39 159.25 199.30 C 157.92 203.64 152.56 202.13 148.98 203.03 C 145.62 202.88 142.30 202.60 139.03 201.89 C 138.70 199.31 137.46 194.79 141.36 194.51 C 144.40 194.46 145.52 192.77 144.87 189.85 C 147.23 190.56 149.94 190.45 152.00 191.91 C 143.98 189.89 152.59 200.28 155.76 199.89 C 159.10 197.51 154.84 194.72 153.15 192.90 C 159.15 197.31 153.69 184.12 159.07 187.86 C 160.86 192.32 165.54 191.36 167.61 187.70 C 170.58 187.59 172.25 184.84 169.04 183.37 C 173.68 179.29 179.86 175.55 180.79 168.89 M 142.38 195.33 C 137.17 195.46 142.21 202.69 146.01 199.02 C 157.69 201.80 146.24 191.31 142.38 195.33 Z" />
</g>
<g id="#2a2a2aff">
<path fill="#2a2a2a" opacity="1.00" d=" M 137.06 169.02 C 141.29 167.60 139.90 172.39 139.94 174.98 C 135.70 176.40 137.10 171.61 137.06 169.02 Z" />
</g>
<g id="#2e681fff">
<path fill="#2e681f" opacity="1.00" d=" M 6.34 173.25 C 9.01 164.96 16.84 175.56 15.81 180.17 C 15.70 181.47 15.41 182.75 15.12 184.02 C 12.40 184.91 8.83 185.91 7.19 182.74 C 8.10 179.40 7.50 176.25 6.34 173.25 Z" />
</g>
<g id="#58782cff">
<path fill="#58782c" opacity="1.00" d=" M 30.14 180.16 C 33.92 176.98 37.54 173.02 41.95 171.01 C 46.93 168.88 48.13 174.08 51.07 176.28 C 52.17 181.99 46.64 181.68 44.39 177.77 C 46.13 183.49 41.58 183.71 38.23 185.00 C 38.58 186.99 42.07 191.89 38.04 191.02 C 35.35 190.93 34.52 187.47 31.91 186.91 C 30.61 184.93 29.53 182.58 30.14 180.16 M 41.29 172.19 C 38.49 176.23 31.89 178.61 31.95 184.02 C 37.03 183.56 43.30 183.88 43.32 177.31 C 48.24 176.61 48.22 169.56 41.29 172.19 Z" />
</g>
<g id="#4a4a4aff">
<path fill="#4a4a4a" opacity="1.00" d=" M 126.21 171.10 C 129.94 169.92 129.94 177.08 126.21 175.90 C 124.51 174.88 124.51 172.12 126.21 171.10 Z" />
</g>
<g id="#598731ff">
<path fill="#598731" opacity="1.00" d=" M 205.84 180.25 C 200.32 180.48 199.91 171.52 205.15 170.53 C 206.47 171.55 207.66 172.72 208.89 173.86 C 210.04 174.92 211.63 175.31 213.00 176.03 C 208.21 178.73 206.41 169.58 203.16 173.30 C 199.87 180.46 208.75 177.93 211.29 181.62 C 212.79 184.03 215.23 185.57 217.98 186.18 C 219.45 181.46 215.00 179.34 213.00 176.03 C 216.73 179.49 219.07 174.16 222.99 174.95 C 221.83 180.13 220.43 190.49 212.28 186.92 C 209.97 184.71 209.68 180.45 205.84 180.25 Z" />
</g>
<g id="#92be44ff">
<path fill="#92be44" opacity="1.00" d=" M 41.29 172.19 C 48.22 169.56 48.24 176.61 43.32 177.31 C 43.30 183.88 37.03 183.56 31.95 184.02 C 31.89 178.61 38.49 176.23 41.29 172.19 Z" />
</g>
<g id="#21bc6bff">
<path fill="#21bc6b" opacity="1.00" d=" M 70.02 178.10 C 68.86 176.55 64.59 171.27 68.82 172.15 C 74.31 175.59 79.21 179.90 84.66 183.37 C 85.95 186.92 89.32 186.93 92.66 187.29 C 95.46 193.15 103.89 191.79 109.54 192.10 C 111.93 192.60 114.24 193.43 116.62 193.95 C 118.46 194.61 120.37 195.14 122.05 196.17 C 122.31 203.23 112.42 199.15 107.87 200.19 C 104.47 194.71 97.35 197.16 92.65 193.43 C 86.43 188.98 77.48 189.65 74.07 181.96 C 73.85 181.71 73.40 181.21 73.17 180.96 C 72.16 179.96 71.06 179.06 70.02 178.10 M 108.25 195.13 C 102.79 200.93 125.13 201.22 119.01 195.97 C 115.56 194.77 111.85 194.73 108.25 195.13 Z" />
</g>
<g id="#92c248ff">
<path fill="#92c248" opacity="1.00" d=" M 203.16 173.30 C 206.41 169.58 208.21 178.73 213.00 176.03 C 215.00 179.34 219.45 181.46 217.98 186.18 C 215.23 185.57 212.79 184.03 211.29 181.62 C 208.75 177.93 199.87 180.46 203.16 173.30 Z" />
</g>
<g id="#1e3010ff">
<path fill="#1e3010" opacity="1.00" d=" M 16.17 173.86 C 17.00 175.56 17.64 177.34 18.14 179.16 C 16.83 185.24 22.90 188.86 25.12 193.90 C 28.36 200.71 35.72 204.46 38.80 211.34 C 33.36 207.88 30.44 200.28 23.99 198.91 C 22.91 204.30 29.49 206.39 31.28 210.86 C 23.08 206.88 21.39 197.64 15.30 191.75 C 10.97 188.35 5.01 190.57 0.00 191.07 L 0.00 189.36 C 4.44 186.37 12.99 188.95 15.12 184.02 C 15.41 182.75 15.70 181.47 15.81 180.17 C 16.00 178.07 16.11 175.97 16.17 173.86 Z" />
</g>
<g id="#34672eff">
<path fill="#34672e" opacity="1.00" d=" M 77.92 174.02 C 88.04 178.42 95.77 188.70 107.58 188.50 C 109.20 188.58 108.83 191.03 109.54 192.10 C 103.89 191.79 95.46 193.15 92.66 187.29 C 89.32 186.93 85.95 186.92 84.66 183.37 C 82.30 180.34 79.90 177.32 77.92 174.02 Z" />
</g>
<g id="#081406ff">
<path fill="#081406" opacity="1.00" d=" M 51.98 175.97 C 56.56 174.42 61.57 175.22 66.31 175.65 C 67.53 176.49 68.78 177.28 70.02 178.10 C 71.06 179.06 72.16 179.96 73.17 180.96 C 72.82 184.02 72.03 186.99 71.12 189.92 C 72.77 192.33 75.28 194.90 73.07 197.86 C 68.99 197.64 59.56 203.48 59.98 196.29 C 61.55 196.10 64.68 195.74 66.25 195.55 C 69.51 191.40 62.77 190.56 61.86 187.04 C 57.95 185.09 52.49 186.49 47.90 185.86 C 48.42 182.05 53.74 180.67 51.98 175.97 Z" />
</g>
<g id="#0b1106ff">
<path fill="#0b1106" opacity="1.00" d=" M 18.14 179.16 C 18.72 173.34 34.12 173.24 30.14 180.16 C 29.53 182.58 30.61 184.93 31.91 186.91 C 33.85 190.16 35.84 194.16 40.76 191.97 C 41.17 188.43 45.50 186.06 46.03 190.86 C 40.21 198.34 49.24 208.17 57.12 208.86 C 58.31 215.61 66.36 212.61 69.89 217.22 L 70.27 218.04 C 71.18 221.88 76.19 217.00 77.73 220.89 C 80.44 224.27 84.40 226.81 88.84 226.04 C 92.63 226.97 94.34 223.54 96.91 221.65 C 101.04 236.28 80.45 229.37 73.00 231.11 C 65.18 233.15 59.53 226.46 52.26 225.67 C 49.52 219.78 43.40 215.90 38.80 211.34 C 35.72 204.46 28.36 200.71 25.12 193.90 C 22.90 188.86 16.83 185.24 18.14 179.16 Z" />
</g>
<g id="#2f4215ff">
<path fill="#2f4215" opacity="1.00" d=" M 51.07 176.28 L 51.98 175.97 C 53.74 180.67 48.42 182.05 47.90 185.86 C 52.49 186.49 57.95 185.09 61.86 187.04 C 56.66 187.90 48.00 183.89 46.03 190.86 C 45.50 186.06 41.17 188.43 40.76 191.97 C 35.84 194.16 33.85 190.16 31.91 186.91 C 34.52 187.47 35.35 190.93 38.04 191.02 C 42.07 191.89 38.58 186.99 38.23 185.00 C 41.58 183.71 46.13 183.49 44.39 177.77 C 46.64 181.68 52.17 181.99 51.07 176.28 Z" />
</g>
<g id="#25491dff">
<path fill="#25491d" opacity="1.00" d=" M 144.87 189.85 C 150.80 185.88 158.85 185.21 164.03 179.70 C 166.39 179.91 167.28 182.18 169.04 183.37 C 172.25 184.84 170.58 187.59 167.61 187.70 C 165.54 191.36 160.86 192.32 159.07 187.86 C 153.69 184.12 159.15 197.31 153.15 192.90 C 152.86 192.65 152.29 192.16 152.00 191.91 C 149.94 190.45 147.23 190.56 144.87 189.85 Z" />
</g>
<g id="#0ca231ff">
<path fill="#0ca231" opacity="1.00" d=" M 250.00 189.37 C 244.01 188.92 244.86 180.85 250.00 179.43 L 250.00 189.37 Z" />
</g>
<g id="#143211ff">
<path fill="#143211" opacity="1.00" d=" M 73.17 180.96 C 73.40 181.21 73.85 181.71 74.07 181.96 C 74.50 184.73 72.03 194.29 77.64 193.55 C 85.84 189.38 93.36 197.36 101.62 197.31 C 101.35 199.37 101.39 201.43 103.01 202.96 C 96.86 201.02 83.47 205.47 97.23 206.84 C 92.80 208.27 84.75 203.94 82.57 209.63 C 81.02 211.78 83.79 213.63 85.03 215.12 C 86.58 220.68 80.00 217.59 77.73 220.89 C 76.19 217.00 71.18 221.88 70.27 218.04 C 76.08 218.60 77.90 210.46 78.01 205.83 C 78.63 203.56 79.68 200.99 78.09 198.86 C 77.06 197.36 74.66 198.24 73.07 197.86 C 75.28 194.90 72.77 192.33 71.12 189.92 C 72.03 186.99 72.82 184.02 73.17 180.96 Z" />
</g>
<g id="#166226ff">
<path fill="#166226" opacity="1.00" d=" M 74.07 181.96 C 77.48 189.65 86.43 188.98 92.65 193.43 C 97.35 197.16 104.47 194.71 107.87 200.19 C 118.11 201.89 128.68 203.48 139.03 201.89 C 142.30 202.60 145.62 202.88 148.98 203.03 L 148.99 203.91 C 133.63 205.57 118.36 203.22 103.01 202.96 C 101.39 201.43 101.35 199.37 101.62 197.31 C 93.36 197.36 85.84 189.38 77.64 193.55 C 72.03 194.29 74.50 184.73 74.07 181.96 Z" />
</g>
<g id="#547b2cff">
<path fill="#547b2c" opacity="1.00" d=" M 191.79 184.51 C 197.88 181.95 200.47 190.80 204.88 192.81 C 207.73 190.84 212.56 189.64 210.94 194.82 C 210.64 195.08 210.04 195.61 209.73 195.87 C 206.35 201.12 198.99 201.40 196.91 194.95 C 199.59 196.20 201.97 198.53 205.16 198.04 C 202.54 192.31 198.11 186.31 191.79 184.51 Z" />
</g>
<g id="#81aa49ff">
<path fill="#81aa49" opacity="1.00" d=" M 196.91 194.95 C 194.12 192.39 187.77 188.89 191.79 184.51 C 198.11 186.31 202.54 192.31 205.16 198.04 C 201.97 198.53 199.59 196.20 196.91 194.95 Z" />
</g>
<g id="#608131ff">
<path fill="#608131" opacity="1.00" d=" M 46.03 190.86 C 48.00 183.89 56.66 187.90 61.86 187.04 C 62.77 190.56 69.51 191.40 66.25 195.55 C 62.03 193.91 58.09 190.83 53.22 192.08 C 50.60 194.69 50.96 198.55 50.99 201.98 C 55.04 203.21 54.17 199.13 54.18 196.02 C 62.93 193.26 59.09 211.27 51.57 205.47 C 46.33 202.46 45.43 196.49 46.03 190.86 M 49.27 188.11 C 48.98 188.40 48.39 188.98 48.10 189.28 C 45.64 201.08 52.92 187.17 57.02 191.07 C 70.22 190.42 52.98 185.10 49.27 188.11 Z" />
</g>
<g id="#8db64cff">
<path fill="#8db64c" opacity="1.00" d=" M 49.27 188.11 C 52.98 185.10 70.22 190.42 57.02 191.07 C 52.92 187.17 45.64 201.08 48.10 189.28 C 48.39 188.98 48.98 188.40 49.27 188.11 Z" />
</g>
<g id="#1b320fff">
<path fill="#1b320f" opacity="1.00" d=" M 210.94 194.82 C 209.66 185.67 222.81 185.57 227.10 189.96 C 222.66 194.80 221.62 201.82 214.67 203.71 C 213.14 211.34 204.51 214.71 202.03 221.86 C 205.41 224.05 208.02 220.10 210.87 218.80 C 207.52 223.48 202.68 226.68 198.75 230.81 C 196.91 232.91 200.99 237.63 197.37 238.46 C 193.75 240.29 191.17 235.98 188.05 234.98 C 182.00 238.80 174.74 246.23 167.14 242.30 C 166.39 243.56 165.84 244.91 165.11 246.18 C 163.28 250.35 156.58 244.75 155.46 250.00 L 150.54 250.00 C 149.40 244.84 140.86 244.38 140.59 250.00 L 108.55 250.00 C 107.69 246.50 114.85 245.74 111.74 243.16 C 101.26 243.28 90.81 242.23 80.36 242.71 C 78.67 238.33 72.70 236.01 74.03 242.82 C 80.37 244.95 87.25 248.12 94.05 246.17 C 96.51 245.39 97.01 248.61 98.31 250.00 L 83.55 250.00 C 79.76 245.28 72.94 247.69 68.54 244.50 C 65.86 240.31 62.70 236.23 57.50 235.42 C 55.53 232.50 53.73 229.38 50.71 227.43 C 51.10 226.99 51.87 226.11 52.26 225.67 C 59.53 226.46 65.18 233.15 73.00 231.11 C 80.45 229.37 101.04 236.28 96.91 221.65 C 94.34 223.54 92.63 226.97 88.84 226.04 C 92.47 224.59 96.48 219.64 93.17 216.09 C 90.94 215.82 88.21 212.47 91.38 211.51 C 96.18 212.88 97.38 210.33 97.23 206.84 C 102.31 215.39 118.20 202.66 118.92 216.11 C 120.15 220.35 119.65 211.49 121.77 210.46 C 121.34 216.90 119.80 223.78 122.19 229.97 C 130.06 230.51 126.09 219.49 126.19 214.93 C 126.60 212.12 124.24 210.70 121.77 210.46 C 124.80 209.97 128.10 211.31 130.42 208.55 C 135.25 208.80 140.22 210.39 145.13 210.79 C 144.33 210.82 142.71 210.88 141.90 210.91 C 139.05 211.57 134.91 209.84 132.64 211.82 C 132.11 217.58 131.16 224.80 134.27 229.96 C 139.30 230.25 146.39 231.55 148.66 225.65 C 149.34 220.51 147.43 215.34 145.13 210.79 C 147.73 210.89 149.65 217.68 151.46 213.60 C 150.33 209.41 153.11 207.23 156.13 205.72 C 158.24 206.06 161.10 205.48 161.93 208.03 C 159.89 207.50 157.47 206.22 155.51 207.63 C 150.66 210.54 155.36 217.25 152.57 221.41 C 149.04 226.93 154.98 227.23 158.16 227.27 C 155.75 231.18 151.02 226.13 148.29 229.29 C 140.83 234.75 130.94 225.86 123.83 232.82 C 116.69 234.17 120.65 213.89 117.85 227.99 C 116.56 234.86 108.52 236.12 102.80 234.44 C 112.94 237.25 117.84 227.19 115.93 218.71 C 116.22 216.46 117.34 213.99 116.48 211.80 C 115.54 210.39 113.50 211.11 112.08 210.90 C 107.50 209.84 109.29 214.93 108.83 217.96 C 103.32 219.80 108.44 208.98 102.21 211.04 C 99.70 215.27 97.62 220.08 97.85 225.10 C 97.52 228.85 96.98 233.33 101.39 234.20 C 94.73 235.91 86.77 232.81 80.90 237.15 C 93.65 244.68 111.44 239.93 126.00 242.06 C 130.93 239.94 133.11 244.48 134.29 247.96 C 141.14 245.95 149.17 241.87 156.01 246.52 C 157.56 245.06 157.57 242.65 159.14 241.20 C 176.16 236.76 191.19 226.98 203.22 214.23 C 207.31 210.26 203.85 206.12 198.86 206.54 C 202.31 203.44 207.72 207.46 210.99 203.80 C 210.89 201.04 208.17 198.70 209.73 195.87 C 210.04 195.61 210.64 195.08 210.94 194.82 Z" />
</g>
<g id="#0b1c08ff">
<path fill="#0b1c08" opacity="1.00" d=" M 238.34 188.17 C 244.02 186.39 247.22 191.83 248.97 196.10 C 250.27 199.62 244.21 205.25 250.00 206.46 L 250.00 208.67 C 244.10 208.92 238.93 215.10 233.12 212.98 C 221.61 207.96 213.19 219.87 208.69 228.52 C 210.20 236.18 200.92 232.84 200.47 238.61 C 196.28 242.05 190.27 237.89 185.78 240.74 C 181.15 244.11 175.04 245.70 171.37 250.00 L 155.46 250.00 C 156.58 244.75 163.28 250.35 165.11 246.18 C 165.84 244.91 166.39 243.56 167.14 242.30 C 174.74 246.23 182.00 238.80 188.05 234.98 C 191.17 235.98 193.75 240.29 197.37 238.46 C 200.99 237.63 196.91 232.91 198.75 230.81 C 202.68 226.68 207.52 223.48 210.87 218.80 C 215.28 214.19 219.44 208.70 225.84 206.86 C 228.59 205.83 231.96 205.37 233.71 202.71 C 234.88 197.81 233.34 191.28 238.34 188.17 M 238.34 203.26 C 236.68 205.45 231.68 208.10 235.24 210.91 C 242.29 215.19 246.72 200.55 238.34 203.26 Z" />
</g>
<g id="#0c1608ff">
<path fill="#0c1608" opacity="1.00" d=" M 0.00 191.07 C 5.01 190.57 10.97 188.35 15.30 191.75 C 21.39 197.64 23.08 206.88 31.28 210.86 C 38.05 215.82 42.49 224.96 50.71 227.43 C 53.73 229.38 55.53 232.50 57.50 235.42 C 62.70 236.23 65.86 240.31 68.54 244.50 C 72.94 247.69 79.76 245.28 83.55 250.00 L 75.44 250.00 C 70.16 248.30 65.08 244.73 59.30 245.68 C 53.00 232.71 38.40 228.07 30.24 216.76 C 22.64 210.48 17.59 202.06 11.75 194.28 C 9.59 193.04 5.53 191.39 4.21 194.32 C 2.32 202.47 3.73 210.93 2.34 219.15 C 1.81 224.56 10.82 228.12 7.56 233.47 C 5.42 237.98 12.61 240.67 12.92 244.80 C 11.50 246.55 9.96 248.20 8.60 250.00 L 0.00 250.00 L 0.00 191.07 Z" />
</g>
<g id="#3c9a4bff">
<path fill="#3c9a4b" opacity="1.00" d=" M 133.45 194.02 C 137.60 193.92 142.08 193.25 144.87 189.85 C 145.52 192.77 144.40 194.46 141.36 194.51 C 137.46 194.79 138.70 199.31 139.03 201.89 C 128.68 203.48 118.11 201.89 107.87 200.19 C 112.42 199.15 122.31 203.23 122.05 196.17 C 124.92 201.10 131.69 198.67 133.45 194.02 Z" />
</g>
<g id="#304619ff">
<path fill="#304619" opacity="1.00" d=" M 57.12 208.86 C 49.24 208.17 40.21 198.34 46.03 190.86 C 45.43 196.49 46.33 202.46 51.57 205.47 C 59.09 211.27 62.93 193.26 54.18 196.02 C 54.17 199.13 55.04 203.21 50.99 201.98 C 50.96 198.55 50.60 194.69 53.22 192.08 C 58.09 190.83 62.03 193.91 66.25 195.55 C 64.68 195.74 61.55 196.10 59.98 196.29 C 59.56 203.48 68.99 197.64 73.07 197.86 C 74.66 198.24 77.06 197.36 78.09 198.86 C 70.97 196.54 67.20 202.28 64.10 206.96 C 61.55 206.71 57.93 207.36 59.01 210.79 C 62.54 213.07 72.05 209.63 69.89 217.22 C 66.36 212.61 58.31 215.61 57.12 208.86 Z" />
</g>
<g id="#406323ff">
<path fill="#406323" opacity="1.00" d=" M 182.53 196.60 C 179.89 191.20 184.52 190.50 187.94 191.10 C 188.38 191.99 188.82 192.89 189.26 193.78 C 187.31 192.09 182.44 190.76 183.01 194.93 C 185.24 199.58 189.62 204.44 195.01 205.09 C 196.49 200.79 190.95 199.92 190.71 196.13 C 193.36 199.40 200.21 201.94 198.04 206.92 C 191.44 214.23 190.26 200.35 183.22 202.09 C 179.80 205.39 179.66 213.66 187.10 211.12 C 189.12 211.08 187.11 213.92 187.12 215.09 C 184.27 215.49 182.06 217.37 179.83 219.01 C 176.13 219.20 172.98 216.72 174.71 212.92 C 179.31 201.60 168.75 213.95 167.75 207.16 C 165.37 202.85 169.74 198.80 173.95 198.69 C 171.65 201.18 167.21 202.60 169.06 207.21 C 171.75 207.85 173.92 201.50 175.45 205.40 C 176.21 223.43 186.58 195.15 173.95 198.69 C 176.40 197.43 182.60 200.87 182.53 196.60 Z" />
</g>
<g id="#335e2bff">
<path fill="#335e2b" opacity="1.00" d=" M 116.62 193.95 C 120.89 190.23 129.26 190.74 133.45 194.02 C 131.69 198.67 124.92 201.10 122.05 196.17 C 120.37 195.14 118.46 194.61 116.62 193.95 Z" />
</g>
<g id="#27ae5dff">
<path fill="#27ae5d" opacity="1.00" d=" M 155.76 199.89 C 152.59 200.28 143.98 189.89 152.00 191.91 C 152.29 192.16 152.86 192.65 153.15 192.90 C 154.84 194.72 159.10 197.51 155.76 199.89 Z" />
</g>
<g id="#77a13fff">
<path fill="#77a13f" opacity="1.00" d=" M 183.01 194.93 C 182.44 190.76 187.31 192.09 189.26 193.78 C 189.74 194.56 190.23 195.35 190.71 196.13 C 190.95 199.92 196.49 200.79 195.01 205.09 C 189.62 204.44 185.24 199.58 183.01 194.93 Z" />
</g>
<g id="#28e591ff">
<path fill="#28e591" opacity="1.00" d=" M 108.25 195.13 C 111.85 194.73 115.56 194.77 119.01 195.97 C 125.13 201.22 102.79 200.93 108.25 195.13 Z" />
</g>
<g id="#144118ff">
<path fill="#144118" opacity="1.00" d=" M 142.38 195.33 C 146.24 191.31 157.69 201.80 146.01 199.02 C 142.21 202.69 137.17 195.46 142.38 195.33 Z" />
</g>
<g id="#324619ff">
<path fill="#324619" opacity="1.00" d=" M 23.99 198.91 C 30.44 200.28 33.36 207.88 38.80 211.34 C 43.40 215.90 49.52 219.78 52.26 225.67 C 51.87 226.11 51.10 226.99 50.71 227.43 C 42.49 224.96 38.05 215.82 31.28 210.86 C 29.49 206.39 22.91 204.30 23.99 198.91 Z" />
</g>
<g id="#648c32ff">
<path fill="#648c32" opacity="1.00" d=" M 64.10 206.96 C 67.20 202.28 70.97 196.54 78.09 198.86 C 79.68 200.99 78.63 203.56 78.01 205.83 C 76.79 208.29 75.82 210.99 73.76 212.90 C 69.44 212.20 65.34 210.34 60.99 209.67 C 61.20 208.05 62.99 207.78 64.10 206.96 Z" />
</g>
<g id="#699539ff">
<path fill="#699539" opacity="1.00" d=" M 173.95 198.69 C 186.58 195.15 176.21 223.43 175.45 205.40 C 173.92 201.50 171.75 207.85 169.06 207.21 C 167.21 202.60 171.65 201.18 173.95 198.69 Z" />
</g>
<g id="#1e2b12ff">
<path fill="#1e2b12" opacity="1.00" d=" M 183.22 202.09 C 190.26 200.35 191.44 214.23 198.04 206.92 L 198.86 206.54 C 195.48 209.94 192.05 214.23 187.12 215.09 C 187.11 213.92 189.12 211.08 187.10 211.12 C 179.66 213.66 179.80 205.39 183.22 202.09 Z" />
</g>
<g id="#081107ff">
<path fill="#081107" opacity="1.00" d=" M 97.23 206.84 C 83.47 205.47 96.86 201.02 103.01 202.96 C 118.36 203.22 133.63 205.57 148.99 203.91 C 151.63 204.10 156.84 201.05 156.13 205.72 C 153.11 207.23 150.33 209.41 151.46 213.60 C 149.65 217.68 147.73 210.89 145.13 210.79 C 140.22 210.39 135.25 208.80 130.42 208.55 C 128.10 211.31 124.80 209.97 121.77 210.46 C 119.65 211.49 120.15 220.35 118.92 216.11 C 118.20 202.66 102.31 215.39 97.23 206.84 Z" />
</g>
<g id="#0a4f19ff">
<path fill="#0a4f19" opacity="1.00" d=" M 238.34 203.26 C 246.72 200.55 242.29 215.19 235.24 210.91 C 231.68 208.10 236.68 205.45 238.34 203.26 Z" />
</g>
<g id="#496825ff">
<path fill="#496825" opacity="1.00" d=" M 73.76 212.90 C 75.82 210.99 76.79 208.29 78.01 205.83 C 77.90 210.46 76.08 218.60 70.27 218.04 L 69.89 217.22 C 72.05 209.63 62.54 213.07 59.01 210.79 C 57.93 207.36 61.55 206.71 64.10 206.96 C 62.99 207.78 61.20 208.05 60.99 209.67 C 65.34 210.34 69.44 212.20 73.76 212.90 Z" />
</g>
<g id="#618534ff">
<path fill="#618534" opacity="1.00" d=" M 82.57 209.63 C 84.75 203.94 92.80 208.27 97.23 206.84 C 97.38 210.33 96.18 212.88 91.38 211.51 C 88.21 212.47 90.94 215.82 93.17 216.09 C 92.91 217.76 93.24 219.76 91.77 220.96 C 87.87 222.00 87.49 216.95 85.03 215.12 C 83.79 213.63 81.02 211.78 82.57 209.63 Z" />
</g>
<g id="#5a802bff">
<path fill="#5a802b" opacity="1.00" d=" M 155.51 207.63 C 157.47 206.22 159.89 207.50 161.93 208.03 C 163.42 210.48 164.87 212.97 166.71 215.18 C 167.61 217.45 168.75 219.65 169.11 222.10 C 166.39 221.89 164.01 220.08 161.29 220.14 C 159.30 221.96 158.41 225.58 155.11 225.12 C 155.52 219.29 155.51 213.46 155.51 207.63 Z" />
</g>
<g id="#0a1306ff">
<path fill="#0a1306" opacity="1.00" d=" M 198.86 206.54 C 203.85 206.12 207.31 210.26 203.22 214.23 C 191.19 226.98 176.16 236.76 159.14 241.20 C 157.57 242.65 157.56 245.06 156.01 246.52 C 149.17 241.87 141.14 245.95 134.29 247.96 C 133.11 244.48 130.93 239.94 126.00 242.06 C 111.44 239.93 93.65 244.68 80.90 237.15 C 86.77 232.81 94.73 235.91 101.39 234.20 C 101.74 234.26 102.45 234.38 102.80 234.44 C 108.52 236.12 116.56 234.86 117.85 227.99 C 120.65 213.89 116.69 234.17 123.83 232.82 C 130.94 225.86 140.83 234.75 148.29 229.29 C 151.02 226.13 155.75 231.18 158.16 227.27 C 161.08 222.73 166.13 223.05 170.96 222.86 C 173.39 220.52 176.29 219.05 179.83 219.01 C 182.06 217.37 184.27 215.49 187.12 215.09 C 192.05 214.23 195.48 209.94 198.86 206.54 Z" />
</g>
<g id="#3c581dff">
<path fill="#3c581d" opacity="1.00" d=" M 152.57 221.41 C 155.36 217.25 150.66 210.54 155.51 207.63 C 155.51 213.46 155.52 219.29 155.11 225.12 C 158.41 225.58 159.30 221.96 161.29 220.14 C 164.01 220.08 166.39 221.89 169.11 222.10 C 168.75 219.65 167.61 217.45 166.71 215.18 C 168.83 217.27 173.11 219.33 170.96 222.86 C 166.13 223.05 161.08 222.73 158.16 227.27 C 154.98 227.23 149.04 226.93 152.57 221.41 Z" />
</g>
<g id="#020902ff">
<path fill="#020902" opacity="1.00" d=" M 233.12 212.98 C 238.93 215.10 244.10 208.92 250.00 208.67 L 250.00 250.00 L 171.37 250.00 C 175.04 245.70 181.15 244.11 185.78 240.74 C 190.27 237.89 196.28 242.05 200.47 238.61 C 200.92 232.84 210.20 236.18 208.69 228.52 C 213.19 219.87 221.61 207.96 233.12 212.98 Z" />
</g>
<g id="#507726ff">
<path fill="#507726" opacity="1.00" d=" M 102.21 211.04 C 108.44 208.98 103.32 219.80 108.83 217.96 C 109.29 214.93 107.50 209.84 112.08 210.90 C 109.44 212.23 108.61 217.67 112.07 218.00 C 115.37 218.31 116.25 214.33 116.48 211.80 C 117.34 213.99 116.22 216.46 115.93 218.71 C 112.60 221.27 115.86 229.60 110.36 228.95 C 111.02 216.44 102.90 228.53 97.85 225.10 C 97.62 220.08 99.70 215.27 102.21 211.04 Z" />
</g>
<g id="#749748ff">
<path fill="#749748" opacity="1.00" d=" M 112.08 210.90 C 113.50 211.11 115.54 210.39 116.48 211.80 C 116.25 214.33 115.37 218.31 112.07 218.00 C 108.61 217.67 109.44 212.23 112.08 210.90 Z" />
</g>
<g id="#4a6f24ff">
<path fill="#4a6f24" opacity="1.00" d=" M 121.77 210.46 C 124.24 210.70 126.60 212.12 126.19 214.93 C 126.09 219.49 130.06 230.51 122.19 229.97 C 119.80 223.78 121.34 216.90 121.77 210.46 Z" />
</g>
<g id="#67913aff">
<path fill="#67913a" opacity="1.00" d=" M 132.64 211.82 C 134.91 209.84 139.05 211.57 141.90 210.91 C 144.92 212.74 147.83 218.18 144.68 220.83 C 135.60 224.94 144.17 215.84 139.00 214.83 C 134.81 215.72 139.99 221.19 136.00 222.04 C 132.30 220.46 133.27 215.18 132.64 211.82 Z" />
</g>
<g id="#476c22ff">
<path fill="#476c22" opacity="1.00" d=" M 141.90 210.91 C 142.71 210.88 144.33 210.82 145.13 210.79 C 147.43 215.34 149.34 220.51 148.66 225.65 C 146.39 231.55 139.30 230.25 134.27 229.96 C 131.16 224.80 132.11 217.58 132.64 211.82 C 133.27 215.18 132.30 220.46 136.00 222.04 C 139.99 221.19 134.81 215.72 139.00 214.83 C 144.17 215.84 135.60 224.94 144.68 220.83 C 147.83 218.18 144.92 212.74 141.90 210.91 Z" />
</g>
<g id="#3b5a1eff">
<path fill="#3b5a1e" opacity="1.00" d=" M 85.03 215.12 C 87.49 216.95 87.87 222.00 91.77 220.96 C 93.24 219.76 92.91 217.76 93.17 216.09 C 96.48 219.64 92.47 224.59 88.84 226.04 C 84.40 226.81 80.44 224.27 77.73 220.89 C 80.00 217.59 86.58 220.68 85.03 215.12 Z" />
</g>
<g id="#2b4e1dff">
<path fill="#2b4e1d" opacity="1.00" d=" M 110.36 228.95 C 115.86 229.60 112.60 221.27 115.93 218.71 C 117.84 227.19 112.94 237.25 102.80 234.44 C 102.45 234.38 101.74 234.26 101.39 234.20 C 96.98 233.33 97.52 228.85 97.85 225.10 C 102.90 228.53 111.02 216.44 110.36 228.95 Z" />
</g>
<g id="#32581fff">
<path fill="#32581f" opacity="1.00" d=" M 74.03 242.82 C 72.70 236.01 78.67 238.33 80.36 242.71 C 90.81 242.23 101.26 243.28 111.74 243.16 C 114.85 245.74 107.69 246.50 108.55 250.00 L 98.31 250.00 C 97.01 248.61 96.51 245.39 94.05 246.17 C 87.25 248.12 80.37 244.95 74.03 242.82 Z" />
</g>
<g id="#3f5e1eff">
<path fill="#3f5e1e" opacity="1.00" d=" M 140.59 250.00 C 140.86 244.38 149.40 244.84 150.54 250.00 L 140.59 250.00 Z" />
</g>
</svg>
