<?xml version="1.0" encoding="UTF-8" ?>
<!DOCTYPE svg PUBLIC "-//W3C//DTD SVG 1.1//EN" "http://www.w3.org/Graphics/SVG/1.1/DTD/svg11.dtd">
<svg width="250pt" height="250pt" viewBox="0 0 250 250" version="1.1" xmlns="http://www.w3.org/2000/svg">
<g id="#ffffffff">
<path fill="#ffffff" opacity="1.00" d=" M 0.00 0.00 L 250.00 0.00 L 250.00 250.00 L 0.00 250.00 L 0.00 0.00 M 61.71 73.88 C 59.50 74.81 58.05 76.78 56.87 78.78 C 54.93 81.12 55.62 84.27 55.59 87.05 C 55.54 98.77 55.43 110.50 55.65 122.22 C 55.39 136.82 55.62 151.44 55.52 166.04 C 55.09 172.82 63.02 179.64 69.39 175.52 C 70.38 174.68 71.25 173.75 72.00 172.70 C 73.92 172.45 73.19 169.45 73.58 168.02 C 73.65 141.02 73.52 114.01 73.58 87.01 C 73.54 84.35 73.75 81.65 73.18 79.03 C 71.56 74.68 66.10 71.69 61.71 73.88 M 177.33 77.80 C 176.57 79.43 176.27 81.19 176.34 82.98 C 176.40 111.33 176.34 139.68 176.38 168.03 C 176.00 172.69 180.12 177.11 184.84 176.76 C 190.40 175.97 194.48 170.56 194.36 165.05 C 194.37 139.36 194.31 113.68 194.39 88.00 C 194.31 85.25 194.84 82.24 193.13 79.86 C 192.40 76.68 189.48 74.54 186.62 73.37 C 182.92 72.33 179.56 75.18 177.33 77.80 M 99.40 95.48 C 97.43 97.06 96.44 99.46 96.57 101.96 C 96.50 117.98 96.61 134.01 96.52 150.03 C 96.45 152.10 96.65 154.19 97.69 156.02 C 99.54 159.61 103.55 160.24 107.20 159.54 C 109.20 159.94 110.85 158.76 112.09 157.32 L 112.54 158.01 C 113.39 155.42 113.74 152.71 113.70 149.99 C 113.63 133.99 113.69 117.99 113.67 101.98 C 113.97 98.50 112.16 94.57 108.57 93.64 C 105.50 93.28 101.58 92.73 99.40 95.48 M 140.35 110.34 C 133.95 113.25 135.80 121.37 135.58 127.00 C 136.12 132.60 134.18 138.83 137.13 143.94 C 141.01 150.42 153.04 147.90 153.21 140.06 C 153.46 132.37 153.48 124.63 153.19 116.94 C 153.06 110.72 145.40 107.68 140.35 110.34 Z" />
</g>
<g id="#8a1db7ff">
<path fill="#8a1db7" opacity="1.00" d=" M 61.71 73.88 C 66.10 71.69 71.56 74.68 73.18 79.03 C 73.75 81.65 73.54 84.35 73.58 87.01 C 73.52 114.01 73.65 141.02 73.58 168.02 C 73.19 169.45 73.92 172.45 72.00 172.70 C 72.57 164.59 72.50 156.43 72.01 148.31 C 72.41 138.59 72.40 128.82 71.69 119.12 C 69.48 108.71 66.77 98.39 65.16 87.86 C 64.36 83.80 64.12 79.45 61.93 75.83 C 60.19 76.72 58.47 77.66 56.87 78.78 C 58.05 76.78 59.50 74.81 61.71 73.88 Z" />
</g>
<g id="#fc9733ff">
<path fill="#fc9733" opacity="1.00" d=" M 177.33 77.80 C 179.56 75.18 182.92 72.33 186.62 73.37 C 189.48 74.54 192.40 76.68 193.13 79.86 C 193.07 93.91 192.94 107.95 192.90 122.00 C 192.88 128.33 193.06 134.72 191.75 140.95 C 188.70 134.45 188.36 127.16 186.73 120.26 C 184.94 112.48 183.65 104.60 182.30 96.74 C 181.27 90.26 178.51 84.24 177.33 77.80 Z" />
</g>
<g id="#7916c1ff">
<path fill="#7916c1" opacity="1.00" d=" M 56.87 78.78 C 58.47 77.66 60.19 76.72 61.93 75.83 C 64.12 79.45 64.36 83.80 65.16 87.86 C 66.77 98.39 69.48 108.71 71.69 119.12 C 72.40 128.82 72.41 138.59 72.01 148.31 C 68.80 142.64 68.52 136.03 67.16 129.80 C 64.12 114.54 61.55 99.17 58.08 84.00 C 57.25 85.01 56.42 86.03 55.59 87.05 C 55.62 84.27 54.93 81.12 56.87 78.78 Z" />
</g>
<g id="#fc8b3dff">
<path fill="#fc8b3d" opacity="1.00" d=" M 176.34 82.98 C 176.27 81.19 176.57 79.43 177.33 77.80 C 178.51 84.24 181.27 90.26 182.30 96.74 C 183.65 104.60 184.94 112.48 186.73 120.26 C 188.36 127.16 188.70 134.45 191.75 140.95 C 193.06 134.72 192.88 128.33 192.90 122.00 C 192.94 107.95 193.07 93.91 193.13 79.86 C 194.84 82.24 194.31 85.25 194.39 88.00 C 194.31 113.68 194.37 139.36 194.36 165.05 C 194.48 170.56 190.40 175.97 184.84 176.76 C 180.12 177.11 176.00 172.69 176.38 168.03 C 176.34 139.68 176.40 111.33 176.34 82.98 Z" />
</g>
<g id="#6a10cbff">
<path fill="#6a10cb" opacity="1.00" d=" M 55.59 87.05 C 56.42 86.03 57.25 85.01 58.08 84.00 C 61.55 99.17 64.12 114.54 67.16 129.80 C 68.52 136.03 68.80 142.64 72.01 148.31 C 72.50 156.43 72.57 164.59 72.00 172.70 C 71.25 173.75 70.38 174.68 69.39 175.52 C 66.93 161.55 64.03 147.65 61.29 133.72 C 60.27 128.47 59.82 123.02 57.61 118.07 C 56.93 119.44 56.25 120.81 55.65 122.22 C 55.43 110.50 55.54 98.77 55.59 87.05 Z" />
</g>
<g id="#f24b72ff">
<path fill="#f24b72" opacity="1.00" d=" M 99.40 95.48 C 101.58 92.73 105.50 93.28 108.57 93.64 C 112.16 94.57 113.97 98.50 113.67 101.98 C 113.69 117.99 113.63 133.99 113.70 149.99 C 113.74 152.71 113.39 155.42 112.54 158.01 L 112.09 157.32 C 111.09 138.82 106.54 120.77 103.42 102.56 C 103.12 99.71 101.56 97.29 99.40 95.48 Z" />
</g>
<g id="#e0437dff">
<path fill="#e0437d" opacity="1.00" d=" M 99.40 95.48 C 101.56 97.29 103.12 99.71 103.42 102.56 C 106.54 120.77 111.09 138.82 112.09 157.32 C 110.85 158.76 109.20 159.94 107.20 159.54 C 106.57 150.98 104.30 142.67 102.75 134.25 C 101.46 128.42 101.01 122.30 98.35 116.86 C 97.32 129.88 97.73 142.97 97.69 156.02 C 96.65 154.19 96.45 152.10 96.52 150.03 C 96.61 134.01 96.50 117.98 96.57 101.96 C 96.44 99.46 97.43 97.06 99.40 95.48 Z" />
</g>
<g id="#fa625dff">
<path fill="#fa625d" opacity="1.00" d=" M 140.35 110.34 C 145.40 107.68 153.06 110.72 153.19 116.94 C 153.48 124.63 153.46 132.37 153.21 140.06 C 153.04 147.90 141.01 150.42 137.13 143.94 C 134.18 138.83 136.12 132.60 135.58 127.00 C 135.80 121.37 133.95 113.25 140.35 110.34 Z" />
</g>
<g id="#ce3b89ff">
<path fill="#ce3b89" opacity="1.00" d=" M 98.35 116.86 C 101.01 122.30 101.46 128.42 102.75 134.25 C 104.30 142.67 106.57 150.98 107.20 159.54 C 103.55 160.24 99.54 159.61 97.69 156.02 C 97.73 142.97 97.32 129.88 98.35 116.86 Z" />
</g>
<g id="#5a09d5ff">
<path fill="#5a09d5" opacity="1.00" d=" M 57.61 118.07 C 59.82 123.02 60.27 128.47 61.29 133.72 C 64.03 147.65 66.93 161.55 69.39 175.52 C 63.02 179.64 55.09 172.82 55.52 166.04 C 55.62 151.44 55.39 136.82 55.65 122.22 C 56.25 120.81 56.93 119.44 57.61 118.07 Z" />
</g>
</svg>
