<?xml version="1.0" encoding="UTF-8" ?>
<!DOCTYPE svg PUBLIC "-//W3C//DTD SVG 1.1//EN" "http://www.w3.org/Graphics/SVG/1.1/DTD/svg11.dtd">
<svg width="250pt" height="250pt" viewBox="0 0 250 250" version="1.1" xmlns="http://www.w3.org/2000/svg">
<g id="#ffffffff">
<path fill="#ffffff" opacity="1.00" d=" M 0.00 0.00 L 250.00 0.00 L 250.00 250.00 L 0.00 250.00 L 0.00 0.00 M 43.48 33.04 C 36.17 34.66 28.49 36.69 22.71 41.70 C 18.45 45.72 13.90 49.83 11.70 55.41 C 9.31 61.65 6.97 68.17 7.38 74.97 C 7.72 80.07 6.16 86.03 9.85 90.26 C 13.63 94.70 19.45 98.98 25.60 97.28 C 29.42 96.20 33.70 94.50 35.21 90.46 C 38.66 84.55 36.70 77.58 37.75 71.19 C 39.96 66.83 44.54 62.30 49.85 63.45 C 54.15 65.83 57.66 69.99 58.56 74.92 C 67.52 112.03 77.34 148.91 86.45 185.98 C 89.67 201.68 103.39 214.45 119.14 216.98 C 125.85 217.80 132.88 217.58 139.21 214.97 C 146.24 212.10 153.47 208.34 157.65 201.72 C 162.90 194.49 165.00 185.66 167.19 177.16 C 170.26 164.02 173.88 151.03 177.28 137.98 C 180.78 123.32 184.18 108.62 188.21 94.09 C 190.36 86.27 191.76 78.24 194.38 70.55 C 196.06 65.57 201.70 62.16 206.87 63.57 C 210.31 65.33 213.14 68.85 212.71 72.91 C 212.78 114.64 212.72 156.36 212.73 198.09 C 212.82 205.44 216.69 213.02 223.50 216.25 C 228.28 216.89 234.26 217.86 238.02 214.03 C 243.01 209.53 244.73 202.53 245.30 196.09 C 245.36 158.04 245.27 120.00 245.35 81.96 C 245.34 75.87 243.24 70.08 242.50 64.09 C 241.80 58.50 238.85 53.62 235.77 49.04 C 230.78 40.70 221.23 36.71 212.34 33.98 C 203.06 30.94 193.04 33.67 184.56 37.80 C 175.50 43.47 167.60 52.09 164.99 62.68 C 158.98 84.87 153.84 107.29 148.03 129.53 C 144.93 139.21 143.06 149.22 140.46 159.03 C 138.53 166.37 137.33 174.00 134.04 180.89 C 131.57 185.95 124.52 187.31 120.07 184.15 C 116.46 181.26 115.17 176.54 114.06 172.25 C 106.55 141.83 98.75 111.48 91.32 81.04 C 88.77 70.94 86.88 60.39 81.42 51.35 C 76.60 43.94 69.19 38.34 60.79 35.61 C 55.27 33.68 49.37 31.81 43.48 33.04 M 19.56 110.29 C 15.66 113.07 12.38 116.66 9.41 120.40 C 6.71 123.50 6.72 128.55 9.31 131.72 C 11.96 135.14 15.02 138.60 19.06 140.35 C 22.57 140.78 26.60 141.02 29.31 138.30 C 33.44 134.73 38.69 130.15 37.40 124.05 C 35.88 118.81 32.13 114.38 27.65 111.36 C 25.36 109.82 22.07 108.45 19.56 110.29 M 19.62 152.93 C 12.92 155.33 7.24 161.60 6.87 168.92 C 6.49 176.60 6.91 184.31 6.73 192.00 C 6.72 198.20 6.36 204.95 9.75 210.45 C 11.94 214.32 16.27 216.38 20.49 217.17 C 28.48 218.20 37.91 211.77 37.39 203.11 C 37.41 191.37 37.43 179.62 37.38 167.88 C 37.68 162.07 33.39 157.28 28.57 154.69 C 25.83 153.40 22.69 151.81 19.62 152.93 Z" />
</g>
<g id="#7c8f98ff">
<path fill="#7c8f98" opacity="1.00" d=" M 43.48 33.04 C 49.37 31.81 55.27 33.68 60.79 35.61 C 69.19 38.34 76.60 43.94 81.42 51.35 C 86.88 60.39 88.77 70.94 91.32 81.04 C 98.75 111.48 106.55 141.83 114.06 172.25 C 115.17 176.54 116.46 181.26 120.07 184.15 C 124.52 187.31 131.57 185.95 134.04 180.89 C 137.33 174.00 138.53 166.37 140.46 159.03 C 143.06 149.22 144.93 139.21 148.03 129.53 C 153.84 107.29 158.98 84.87 164.99 62.68 C 167.60 52.09 175.50 43.47 184.56 37.80 C 193.04 33.67 203.06 30.94 212.34 33.98 C 221.23 36.71 230.78 40.70 235.77 49.04 C 238.85 53.62 241.80 58.50 242.50 64.09 C 243.24 70.08 245.34 75.87 245.35 81.96 C 245.27 120.00 245.36 158.04 245.30 196.09 C 244.73 202.53 243.01 209.53 238.02 214.03 C 234.26 217.86 228.28 216.89 223.50 216.25 C 216.69 213.02 212.82 205.44 212.73 198.09 C 212.72 156.36 212.78 114.64 212.71 72.91 C 213.14 68.85 210.31 65.33 206.87 63.57 C 201.70 62.16 196.06 65.57 194.38 70.55 C 191.76 78.24 190.36 86.27 188.21 94.09 C 184.18 108.62 180.78 123.32 177.28 137.98 C 173.88 151.03 170.26 164.02 167.19 177.16 C 165.00 185.66 162.90 194.49 157.65 201.72 C 153.47 208.34 146.24 212.10 139.21 214.97 C 132.88 217.58 125.85 217.80 119.14 216.98 C 103.39 214.45 89.67 201.68 86.45 185.98 C 77.34 148.91 67.52 112.03 58.56 74.92 C 57.66 69.99 54.15 65.83 49.85 63.45 C 44.54 62.30 39.96 66.83 37.75 71.19 C 36.70 77.58 38.66 84.55 35.21 90.46 C 33.70 94.50 29.42 96.20 25.60 97.28 C 19.45 98.98 13.63 94.70 9.85 90.26 C 6.16 86.03 7.72 80.07 7.38 74.97 C 6.97 68.17 9.31 61.65 11.70 55.41 C 13.90 49.83 18.45 45.72 22.71 41.70 C 28.49 36.69 36.17 34.66 43.48 33.04 M 45.40 35.64 C 35.81 37.18 25.92 40.85 19.54 48.53 C 11.69 57.70 9.36 70.27 10.38 82.03 C 9.45 91.16 21.49 97.91 28.92 92.84 C 32.64 90.52 34.18 85.96 34.37 81.78 C 34.64 77.09 33.84 71.91 36.78 67.85 C 39.58 63.70 44.46 59.49 49.81 60.72 C 56.35 63.19 60.50 69.73 61.89 76.36 C 70.05 110.55 79.18 144.51 87.52 178.66 C 89.51 187.50 91.97 196.82 98.57 203.43 C 103.77 208.28 110.15 211.96 117.05 213.73 C 128.73 216.43 141.17 212.67 150.51 205.48 C 158.53 198.54 161.51 187.91 164.01 178.01 C 168.52 159.35 173.77 140.89 178.17 122.21 C 180.81 110.96 184.05 99.86 186.69 88.61 C 188.34 82.30 189.44 75.82 191.75 69.70 C 193.56 64.95 198.02 61.29 203.05 60.50 C 210.18 59.95 216.14 67.12 215.61 74.01 C 215.62 112.00 215.63 150.00 215.60 188.00 C 215.64 193.66 215.02 199.53 217.15 204.92 C 218.48 208.75 221.26 212.61 225.44 213.48 C 229.36 214.00 234.05 214.16 236.90 210.90 C 241.20 206.08 242.15 199.25 242.38 193.03 C 242.36 156.68 242.36 120.33 242.38 83.98 C 242.35 78.24 240.95 72.63 240.04 66.99 C 238.53 56.24 232.23 45.56 222.13 40.91 C 214.54 37.27 205.88 34.05 197.41 36.44 C 186.30 38.53 176.00 45.50 170.81 55.66 C 166.79 63.85 165.36 72.95 162.87 81.65 C 155.95 111.36 147.66 140.73 140.58 170.40 C 139.06 176.20 137.59 182.79 132.39 186.47 C 128.73 189.43 123.26 189.33 119.44 186.73 C 115.45 184.42 113.34 180.05 112.10 175.78 C 109.81 167.84 108.08 159.75 106.05 151.74 C 99.16 124.57 92.54 97.32 85.59 70.16 C 83.23 59.90 78.96 49.24 69.85 43.19 C 62.63 38.61 54.05 35.34 45.40 35.64 Z" />
<path fill="#7c8f98" opacity="1.00" d=" M 19.62 152.93 C 22.69 151.81 25.83 153.40 28.57 154.69 C 33.39 157.28 37.68 162.07 37.38 167.88 C 37.43 179.62 37.41 191.37 37.39 203.11 C 37.91 211.77 28.48 218.20 20.49 217.17 C 16.27 216.38 11.94 214.32 9.75 210.45 C 6.36 204.95 6.72 198.20 6.73 192.00 C 6.91 184.31 6.49 176.60 6.87 168.92 C 7.24 161.60 12.92 155.33 19.62 152.93 M 22.15 155.57 C 16.91 156.40 12.04 160.39 10.83 165.67 C 10.10 169.74 10.49 173.90 9.94 177.99 C 8.97 185.68 10.69 193.34 10.38 201.04 C 10.14 205.99 12.56 211.75 17.72 213.15 C 22.35 214.25 27.96 214.12 31.56 210.57 C 34.23 207.81 34.40 203.67 34.47 200.04 C 34.43 190.35 34.42 180.65 34.48 170.95 C 34.53 166.88 33.90 162.26 30.57 159.49 C 28.17 157.54 25.29 155.83 22.15 155.57 Z" />
</g>
<g id="#082f40ff">
<path fill="#082f40" opacity="1.00" d=" M 45.40 35.64 C 54.05 35.34 62.63 38.61 69.85 43.19 C 78.96 49.24 83.23 59.90 85.59 70.16 C 92.54 97.32 99.16 124.57 106.05 151.74 C 108.08 159.75 109.81 167.84 112.10 175.78 C 113.34 180.05 115.45 184.42 119.44 186.73 C 123.26 189.33 128.73 189.43 132.39 186.47 C 137.59 182.79 139.06 176.20 140.58 170.40 C 147.66 140.73 155.95 111.36 162.87 81.65 C 165.36 72.95 166.79 63.85 170.81 55.66 C 176.00 45.50 186.30 38.53 197.41 36.44 C 205.88 34.05 214.54 37.27 222.13 40.91 C 232.23 45.56 238.53 56.24 240.04 66.99 C 240.95 72.63 242.35 78.24 242.38 83.98 C 242.36 120.33 242.36 156.68 242.38 193.03 C 242.15 199.25 241.20 206.08 236.90 210.90 C 234.05 214.16 229.36 214.00 225.44 213.48 C 221.26 212.61 218.48 208.75 217.15 204.92 C 215.02 199.53 215.64 193.66 215.60 188.00 C 215.63 150.00 215.62 112.00 215.61 74.01 C 216.14 67.12 210.18 59.95 203.05 60.50 C 198.02 61.29 193.56 64.95 191.75 69.70 C 189.44 75.82 188.34 82.30 186.69 88.61 C 184.05 99.86 180.81 110.96 178.17 122.21 C 173.77 140.89 168.52 159.35 164.01 178.01 C 161.51 187.91 158.53 198.54 150.51 205.48 C 141.17 212.67 128.73 216.43 117.05 213.73 C 110.15 211.96 103.77 208.28 98.57 203.43 C 91.97 196.82 89.51 187.50 87.52 178.66 C 79.18 144.51 70.05 110.55 61.89 76.36 C 60.50 69.73 56.35 63.19 49.81 60.72 C 44.46 59.49 39.58 63.70 36.78 67.85 C 33.84 71.91 34.64 77.09 34.37 81.78 C 34.18 85.96 32.64 90.52 28.92 92.84 C 21.49 97.91 9.45 91.16 10.38 82.03 C 9.36 70.27 11.69 57.70 19.54 48.53 C 25.92 40.85 35.81 37.18 45.40 35.64 Z" />
<path fill="#082f40" opacity="1.00" d=" M 22.15 155.57 C 25.29 155.83 28.17 157.54 30.57 159.49 C 33.90 162.26 34.53 166.88 34.48 170.95 C 34.42 180.65 34.43 190.35 34.47 200.04 C 34.40 203.67 34.23 207.81 31.56 210.57 C 27.96 214.12 22.35 214.25 17.72 213.15 C 12.56 211.75 10.14 205.99 10.38 201.04 C 10.69 193.34 8.97 185.68 9.94 177.99 C 10.49 173.90 10.10 169.74 10.83 165.67 C 12.04 160.39 16.91 156.40 22.15 155.57 Z" />
</g>
<g id="#f5c326ff">
<path fill="#f5c326" opacity="1.00" d=" M 19.56 110.29 C 22.07 108.45 25.36 109.82 27.65 111.36 C 32.13 114.38 35.88 118.81 37.40 124.05 C 38.69 130.15 33.44 134.73 29.31 138.30 C 26.60 141.02 22.57 140.78 19.06 140.35 C 15.02 138.60 11.96 135.14 9.31 131.72 C 6.72 128.55 6.71 123.50 9.41 120.40 C 12.38 116.66 15.66 113.07 19.56 110.29 Z" />
</g>
</svg>
