<?xml version="1.0" encoding="UTF-8" ?>
<!DOCTYPE svg PUBLIC "-//W3C//DTD SVG 1.1//EN" "http://www.w3.org/Graphics/SVG/1.1/DTD/svg11.dtd">
<svg width="250pt" height="250pt" viewBox="0 0 250 250" version="1.1" xmlns="http://www.w3.org/2000/svg">
<g id="#1d2025ff">
<path fill="#1d2025" opacity="1.00" d=" M 0.00 0.00 L 250.00 0.00 L 250.00 146.04 L 249.63 147.35 C 248.19 146.18 246.77 144.99 245.34 143.82 C 245.59 143.07 246.10 141.57 246.36 140.82 C 246.08 139.92 245.80 139.02 245.52 138.13 C 245.93 136.50 246.32 134.86 246.68 133.22 C 243.93 129.54 243.31 124.84 241.32 120.78 C 240.15 113.52 240.25 106.02 238.09 98.91 C 235.98 92.07 235.46 84.89 233.93 77.93 C 233.33 74.73 230.90 72.39 229.49 69.56 C 227.71 66.28 229.11 62.16 226.99 59.00 C 223.72 53.97 221.15 48.44 217.09 43.95 C 214.72 41.26 211.69 39.25 209.39 36.49 C 207.24 34.02 205.49 31.09 202.66 29.33 C 200.97 28.20 198.87 28.88 197.01 28.90 C 194.25 26.48 191.16 24.50 187.85 22.92 C 188.18 21.79 188.51 20.66 188.85 19.54 C 186.53 20.60 183.99 20.96 181.46 20.73 C 181.10 20.60 180.38 20.35 180.02 20.22 C 175.35 18.97 172.40 14.64 167.78 13.30 C 164.66 12.41 162.12 10.40 159.44 8.70 C 156.51 7.42 153.27 7.20 150.20 6.38 C 148.52 5.88 146.77 5.79 145.04 5.79 C 143.56 5.59 142.08 5.39 140.60 5.21 C 139.54 4.80 138.48 4.37 137.44 3.92 C 127.29 3.99 117.03 2.75 107.01 4.76 C 99.55 5.40 92.24 7.07 84.80 7.82 C 84.43 8.21 83.69 9.00 83.33 9.40 C 79.38 9.57 76.85 12.91 73.45 14.42 C 70.06 15.94 66.80 17.73 63.71 19.79 C 63.23 20.67 62.76 21.56 62.29 22.45 C 60.14 22.86 57.90 23.01 55.87 23.86 C 52.64 26.04 50.37 29.32 47.56 31.98 C 47.15 32.13 46.32 32.42 45.91 32.57 C 45.45 32.67 44.53 32.89 44.07 32.99 C 43.30 32.83 42.53 32.65 41.77 32.47 C 41.38 33.52 40.98 34.58 40.59 35.63 C 39.71 35.55 38.82 35.48 37.94 35.42 C 37.78 35.54 37.46 35.79 37.30 35.91 C 36.86 36.29 35.97 37.05 35.53 37.43 C 35.19 41.08 35.35 44.79 34.24 48.33 C 33.68 48.81 33.12 49.30 32.55 49.78 C 27.74 49.41 25.53 54.05 23.61 57.59 C 21.33 62.19 16.75 65.21 14.97 70.07 C 13.32 73.68 12.22 77.49 11.01 81.25 C 7.76 88.20 4.23 95.02 0.00 101.43 L 0.00 0.00 M 25.73 40.73 C 27.90 41.30 30.10 41.76 32.33 42.04 C 31.26 39.93 27.00 37.97 25.73 40.73 Z" />
<path fill="#1d2025" opacity="1.00" d=" M 0.00 147.83 C 1.15 147.02 2.34 146.28 3.58 145.62 C 4.47 148.73 5.51 151.78 6.38 154.89 C 7.30 157.93 6.42 161.27 7.77 164.22 C 10.12 169.53 13.70 174.33 14.98 180.09 C 18.24 194.03 28.94 204.53 39.34 213.65 C 42.94 216.68 46.72 219.56 49.79 223.17 C 52.85 226.72 57.23 228.58 61.26 230.77 C 69.82 236.08 79.21 239.84 88.54 243.57 C 92.24 245.38 97.59 243.15 99.76 247.71 C 99.90 248.29 100.18 249.43 100.31 250.00 L 0.00 250.00 L 0.00 147.83 Z" />
<path fill="#1d2025" opacity="1.00" d=" M 245.16 145.40 C 246.80 146.16 248.42 146.94 250.00 147.82 L 250.00 250.00 L 144.96 250.00 C 146.19 249.11 147.31 248.02 147.55 246.45 C 150.76 245.12 154.22 245.71 157.57 245.47 C 162.95 243.24 167.89 239.96 173.54 238.35 C 187.07 234.07 198.49 225.31 209.14 216.22 C 214.70 211.70 218.07 205.19 223.35 200.39 C 226.96 197.35 226.28 191.89 229.65 188.69 C 231.61 186.77 232.70 184.26 233.33 181.63 C 234.36 177.10 238.06 173.73 238.85 169.12 C 239.48 166.22 240.20 163.31 241.70 160.73 C 244.33 156.05 244.17 150.53 245.16 145.40 Z" />
</g>
<g id="#d4a94cff">
<path fill="#d4a94c" opacity="1.00" d=" M 107.01 4.76 C 117.03 2.75 127.29 3.99 137.44 3.92 C 138.48 4.37 139.54 4.80 140.60 5.21 C 139.40 5.48 138.20 5.76 137.01 6.05 C 134.46 5.58 131.86 5.51 129.30 5.97 C 131.75 7.10 134.46 8.00 137.09 6.90 C 143.70 7.94 150.30 9.67 157.04 9.28 C 160.71 10.80 162.69 15.33 167.01 15.20 C 168.27 15.38 169.62 15.54 170.58 16.47 C 173.71 19.10 177.28 21.12 180.48 23.64 C 176.51 23.46 173.26 21.03 170.28 18.65 C 168.29 16.88 165.51 16.77 163.18 15.71 C 160.65 14.04 158.45 11.58 155.21 11.38 C 148.13 10.40 141.15 8.40 133.96 8.46 C 130.61 8.68 128.25 5.76 125.10 5.21 C 120.37 4.53 115.49 4.55 110.82 5.65 C 106.16 6.86 101.24 6.29 96.59 7.59 C 92.75 8.65 88.62 8.24 84.87 9.72 C 79.76 11.66 75.71 15.55 70.68 17.67 C 66.82 19.18 64.65 23.31 60.57 24.33 C 58.40 25.11 55.90 25.42 54.26 27.19 C 52.28 29.11 50.39 31.33 47.56 31.98 C 50.37 29.32 52.64 26.04 55.87 23.86 C 57.90 23.01 60.14 22.86 62.29 22.45 C 62.76 21.56 63.23 20.67 63.71 19.79 C 66.80 17.73 70.06 15.94 73.45 14.42 C 76.85 12.91 79.38 9.57 83.33 9.40 C 83.69 9.00 84.43 8.21 84.80 7.82 C 92.24 7.07 99.55 5.40 107.01 4.76 Z" />
<path fill="#d4a94c" opacity="1.00" d=" M 172.89 80.49 C 174.01 84.43 175.32 88.31 177.01 92.04 C 177.84 93.48 176.88 95.03 176.42 96.40 C 175.65 92.94 174.84 89.30 172.45 86.55 C 169.94 94.55 170.70 103.03 169.44 111.21 C 169.14 107.06 169.06 102.88 169.05 98.72 C 169.50 92.51 170.39 86.24 172.89 80.49 Z" />
</g>
<g id="#e1a801ff">
<path fill="#e1a801" opacity="1.00" d=" M 110.82 5.65 C 115.49 4.55 120.37 4.53 125.10 5.21 C 128.25 5.76 130.61 8.68 133.96 8.46 C 141.15 8.40 148.13 10.40 155.21 11.38 C 158.45 11.58 160.65 14.04 163.18 15.71 C 165.51 16.77 168.29 16.88 170.28 18.65 C 173.26 21.03 176.51 23.46 180.48 23.64 C 181.51 24.36 182.59 25.01 183.72 25.55 C 187.82 25.99 190.82 28.76 193.79 31.31 C 195.74 33.17 198.63 32.38 201.06 32.63 C 207.32 39.51 213.78 46.22 219.70 53.40 C 222.99 57.24 223.77 62.34 225.24 67.01 C 226.77 72.29 230.93 76.53 231.59 82.11 C 232.41 91.57 235.45 100.63 237.11 109.95 C 237.77 115.22 237.39 120.63 238.64 125.84 C 240.80 131.40 244.94 136.69 244.24 142.96 C 243.81 143.19 242.95 143.65 242.53 143.88 C 241.68 143.35 240.84 142.82 239.98 142.33 L 241.96 142.30 C 240.50 140.99 239.01 139.69 237.33 138.67 C 228.78 133.63 219.93 129.13 210.86 125.12 C 210.94 124.99 211.09 124.74 211.17 124.61 C 212.39 123.35 213.99 122.37 214.83 120.77 C 215.26 118.32 214.52 115.75 215.35 113.35 C 216.84 109.68 215.07 105.78 213.60 102.40 C 212.39 99.43 209.03 98.69 206.43 97.44 C 201.66 95.55 198.10 91.69 194.83 87.89 C 198.81 86.69 204.13 88.77 206.87 84.84 C 208.29 83.36 208.88 81.15 207.86 79.28 C 206.47 79.29 205.09 79.43 203.71 79.55 C 203.45 78.32 203.18 77.08 202.94 75.84 C 202.88 75.54 202.75 74.92 202.69 74.62 L 202.57 74.11 C 200.48 74.95 198.44 75.91 196.39 76.84 C 194.45 73.65 190.58 72.73 187.12 73.60 C 185.52 73.06 183.71 71.76 182.04 72.86 C 181.01 75.55 180.95 78.47 180.63 81.30 C 175.88 79.80 175.65 74.58 174.22 70.62 C 171.65 65.87 166.10 64.00 161.21 62.61 C 161.02 62.19 160.63 61.34 160.44 60.92 C 152.63 58.39 147.50 51.31 143.13 44.77 C 140.86 41.10 138.22 37.68 135.91 34.04 C 134.45 32.13 136.65 29.87 136.21 27.81 C 135.61 26.46 133.95 26.39 132.74 25.98 C 131.92 26.77 131.14 27.58 130.37 28.41 C 130.20 27.88 129.85 26.83 129.68 26.30 C 128.96 26.54 128.24 26.78 127.52 27.03 C 128.09 32.04 122.06 32.48 118.66 33.74 C 118.67 35.05 118.69 36.37 118.71 37.68 C 122.20 37.35 125.66 37.94 129.03 38.85 C 129.77 41.16 130.52 43.45 131.19 45.78 C 131.13 50.63 133.07 55.05 134.65 59.52 C 136.42 64.38 135.48 69.59 135.00 74.58 C 130.86 71.54 128.12 67.06 124.12 63.88 C 120.84 61.11 116.32 61.16 112.27 60.83 C 105.04 60.65 97.09 65.09 90.44 60.60 C 86.20 57.33 82.32 63.18 78.01 63.27 C 73.72 63.35 69.12 64.74 66.53 68.39 C 63.99 72.22 61.49 76.35 61.07 81.04 C 60.29 88.14 59.22 95.22 59.16 102.38 C 55.83 102.60 52.46 102.62 49.17 103.25 C 45.70 103.92 42.58 105.83 39.06 106.26 C 35.05 106.41 31.05 105.25 27.05 105.85 C 24.76 108.24 23.24 111.60 23.32 114.94 C 24.09 117.93 27.77 117.22 30.09 117.67 C 34.56 118.24 37.62 122.06 38.40 126.33 C 28.37 130.27 18.69 135.18 9.55 140.87 C 7.86 141.51 6.15 142.11 4.44 142.69 C 4.41 141.97 4.36 140.53 4.34 139.81 C 6.75 133.28 5.32 126.21 5.46 119.42 C 5.25 115.41 7.44 111.47 6.27 107.50 C 5.77 105.32 4.84 103.07 5.55 100.82 C 6.07 97.46 9.62 95.81 10.41 92.57 C 11.63 88.83 13.82 85.34 13.77 81.28 L 13.78 81.19 C 17.29 78.50 17.01 73.68 19.08 70.09 C 21.33 66.11 24.49 62.71 26.64 58.66 C 29.21 53.67 35.25 51.71 37.49 46.44 C 39.18 44.11 37.85 41.28 37.44 38.78 C 40.37 36.95 43.42 35.34 46.56 33.90 C 46.40 33.57 46.07 32.90 45.91 32.57 C 46.32 32.42 47.15 32.13 47.56 31.98 C 50.39 31.33 52.28 29.11 54.26 27.19 C 55.90 25.42 58.40 25.11 60.57 24.33 C 64.65 23.31 66.82 19.18 70.68 17.67 C 75.71 15.55 79.76 11.66 84.87 9.72 C 88.62 8.24 92.75 8.65 96.59 7.59 C 101.24 6.29 106.16 6.86 110.82 5.65 M 106.16 44.82 C 107.63 44.49 109.11 44.18 110.58 43.88 C 110.51 42.60 110.45 41.33 110.39 40.05 C 109.13 41.77 107.74 43.39 106.16 44.82 M 162.49 43.06 C 161.37 45.97 160.97 49.07 160.76 52.17 C 164.03 53.20 167.73 55.50 171.09 53.54 C 170.64 53.37 169.74 53.02 169.29 52.84 C 169.65 52.52 170.38 51.88 170.74 51.56 L 172.09 51.18 C 170.78 50.42 169.39 49.77 168.15 48.89 C 166.54 46.65 165.68 43.41 162.49 43.06 M 85.82 46.17 C 86.58 47.68 87.38 49.16 88.16 50.65 C 90.76 50.95 93.40 51.74 96.01 51.09 C 92.22 50.44 88.59 48.88 85.82 46.17 M 118.67 48.52 C 117.64 51.16 115.89 53.38 113.20 54.45 C 113.56 55.46 113.52 56.72 114.34 57.52 C 117.30 58.32 120.14 56.55 123.10 56.54 C 122.83 53.76 122.36 51.00 121.64 48.30 C 120.65 48.37 119.66 48.45 118.67 48.52 M 171.06 55.07 C 171.43 55.51 172.16 56.39 172.53 56.83 L 171.50 55.84 C 171.36 57.60 171.94 59.08 173.22 60.28 C 172.47 60.12 170.98 59.80 170.23 59.63 C 172.72 61.18 173.35 64.05 174.79 66.35 C 177.87 66.54 180.97 66.41 184.01 67.05 C 185.60 67.14 188.26 68.14 188.63 65.82 C 188.80 65.50 189.14 64.86 189.31 64.53 C 185.67 61.52 180.90 60.46 176.84 58.18 C 175.19 56.47 173.86 53.86 171.06 55.07 M 54.03 77.76 C 53.32 80.27 51.46 81.98 49.32 83.33 C 51.53 83.43 53.66 82.83 55.77 82.27 C 55.32 80.64 55.36 78.94 55.44 77.26 C 55.09 77.38 54.38 77.63 54.03 77.76 M 43.67 91.67 C 43.47 92.24 43.08 93.38 42.88 93.95 C 42.34 94.16 41.26 94.58 40.72 94.79 C 43.96 94.63 47.20 94.27 50.45 94.39 C 50.41 93.86 50.33 92.79 50.29 92.26 C 51.13 91.46 51.95 90.65 52.78 89.84 C 52.77 89.38 52.74 88.47 52.73 88.01 C 52.29 87.84 51.41 87.49 50.97 87.32 C 48.85 89.26 46.47 90.87 43.67 91.67 Z" />
</g>
<g id="#312a00ff">
<path fill="#312a00" opacity="1.00" d=" M 129.30 5.97 C 131.86 5.51 134.46 5.58 137.01 6.05 C 138.20 5.76 139.40 5.48 140.60 5.21 C 142.08 5.39 143.56 5.59 145.04 5.79 C 146.26 7.00 149.52 9.14 150.20 6.38 C 153.27 7.20 156.51 7.42 159.44 8.70 C 162.12 10.40 164.66 12.41 167.78 13.30 C 172.40 14.64 175.35 18.97 180.02 20.22 C 181.76 21.59 182.68 23.65 183.72 25.55 C 182.59 25.01 181.51 24.36 180.48 23.64 C 177.28 21.12 173.71 19.10 170.58 16.47 C 169.62 15.54 168.27 15.38 167.01 15.20 C 162.69 15.33 160.71 10.80 157.04 9.28 C 150.30 9.67 143.70 7.94 137.09 6.90 C 134.46 8.00 131.75 7.10 129.30 5.97 Z" />
<path fill="#312a00" opacity="1.00" d=" M 2.19 141.33 C 2.13 137.60 0.14 133.23 3.40 130.23 C 3.63 130.55 4.10 131.18 4.33 131.49 C 4.22 134.26 4.09 137.04 4.34 139.81 C 4.36 140.53 4.41 141.97 4.44 142.69 C 4.43 142.93 4.43 143.41 4.43 143.65 C 2.98 144.83 1.46 145.91 0.00 147.08 L 0.00 144.77 C 0.74 143.62 1.58 142.55 2.19 141.33 Z" />
</g>
<g id="#665f41ff">
<path fill="#665f41" opacity="1.00" d=" M 145.04 5.79 C 146.77 5.79 148.52 5.88 150.20 6.38 C 149.52 9.14 146.26 7.00 145.04 5.79 Z" />
</g>
<g id="#251b00ff">
<path fill="#251b00" opacity="1.00" d=" M 181.46 20.73 C 183.99 20.96 186.53 20.60 188.85 19.54 C 188.51 20.66 188.18 21.79 187.85 22.92 C 191.16 24.50 194.25 26.48 197.01 28.90 C 198.87 28.88 200.97 28.20 202.66 29.33 C 205.49 31.09 207.24 34.02 209.39 36.49 C 211.69 39.25 214.72 41.26 217.09 43.95 C 221.15 48.44 223.72 53.97 226.99 59.00 C 229.11 62.16 227.71 66.28 229.49 69.56 C 230.90 72.39 233.33 74.73 233.93 77.93 C 235.46 84.89 235.98 92.07 238.09 98.91 C 240.25 106.02 240.15 113.52 241.32 120.78 C 243.31 124.84 243.93 129.54 246.68 133.22 C 246.32 134.86 245.93 136.50 245.52 138.13 C 243.96 133.65 242.62 128.94 239.58 125.19 C 239.35 114.94 238.07 104.68 235.16 94.83 C 233.20 88.18 234.09 80.75 230.46 74.60 C 228.34 70.99 226.02 67.25 226.18 62.88 C 225.44 62.30 224.70 61.71 223.97 61.13 C 224.20 60.23 224.44 59.34 224.69 58.44 C 220.85 51.22 215.13 45.26 209.40 39.54 C 206.67 36.02 203.99 32.36 200.20 29.88 C 199.45 30.71 198.69 31.53 197.94 32.35 C 192.71 28.12 187.27 24.15 181.46 20.73 Z" />
</g>
<g id="#d2af49ff">
<path fill="#d2af49" opacity="1.00" d=" M 180.02 20.22 C 180.38 20.35 181.10 20.60 181.46 20.73 C 187.27 24.15 192.71 28.12 197.94 32.35 C 198.69 31.53 199.45 30.71 200.20 29.88 C 203.99 32.36 206.67 36.02 209.40 39.54 C 215.13 45.26 220.85 51.22 224.69 58.44 C 224.44 59.34 224.20 60.23 223.97 61.13 C 224.70 61.71 225.44 62.30 226.18 62.88 C 226.02 67.25 228.34 70.99 230.46 74.60 C 234.09 80.75 233.20 88.18 235.16 94.83 C 238.07 104.68 239.35 114.94 239.58 125.19 C 242.62 128.94 243.96 133.65 245.52 138.13 C 245.80 139.02 246.08 139.92 246.36 140.82 C 246.10 141.57 245.59 143.07 245.34 143.82 C 245.06 143.61 244.51 143.18 244.24 142.96 C 244.94 136.69 240.80 131.40 238.64 125.84 C 237.39 120.63 237.77 115.22 237.11 109.95 C 235.45 100.63 232.41 91.57 231.59 82.11 C 230.93 76.53 226.77 72.29 225.24 67.01 C 223.77 62.34 222.99 57.24 219.70 53.40 C 213.78 46.22 207.32 39.51 201.06 32.63 C 198.63 32.38 195.74 33.17 193.79 31.31 C 190.82 28.76 187.82 25.99 183.72 25.55 C 182.68 23.65 181.76 21.59 180.02 20.22 Z" />
<path fill="#d2af49" opacity="1.00" d=" M 132.74 25.98 C 133.95 26.39 135.61 26.46 136.21 27.81 C 136.65 29.87 134.45 32.13 135.91 34.04 C 138.22 37.68 140.86 41.10 143.13 44.77 C 147.50 51.31 152.63 58.39 160.44 60.92 C 160.63 61.34 161.02 62.19 161.21 62.61 C 166.10 64.00 171.65 65.87 174.22 70.62 C 175.65 74.58 175.88 79.80 180.63 81.30 C 180.95 78.47 181.01 75.55 182.04 72.86 C 183.71 71.76 185.52 73.06 187.12 73.60 C 190.58 72.73 194.45 73.65 196.39 76.84 C 198.44 75.91 200.48 74.95 202.57 74.11 L 202.69 74.62 C 201.71 75.49 200.73 76.36 199.76 77.24 C 197.85 77.96 195.96 78.70 194.06 79.43 C 194.05 78.02 193.93 76.61 193.69 75.22 C 191.72 76.10 192.20 78.98 191.51 80.74 C 190.53 81.40 189.54 82.05 188.54 82.69 C 188.09 82.62 187.17 82.48 186.71 82.41 C 187.86 80.67 189.17 79.05 190.62 77.55 C 190.52 76.17 190.42 74.79 190.30 73.41 C 188.23 75.87 186.66 78.68 185.04 81.44 C 184.36 79.61 184.71 77.73 185.32 75.95 C 184.86 74.86 184.41 73.76 183.97 72.67 C 183.08 74.58 181.91 76.46 181.82 78.63 C 182.88 80.05 184.07 81.35 185.22 82.70 C 182.68 82.53 180.15 82.23 177.69 81.56 C 177.29 82.21 176.50 83.51 176.10 84.16 C 178.04 85.52 180.28 86.76 181.38 88.98 C 181.98 91.76 181.32 94.63 181.23 97.44 C 180.19 96.30 179.22 95.08 178.56 93.68 C 178.19 91.52 177.42 89.46 176.62 87.44 C 175.08 83.73 175.27 79.62 174.41 75.75 C 173.77 72.81 172.19 69.96 169.72 68.18 C 165.66 65.77 160.97 64.54 157.06 61.82 C 145.64 54.62 139.84 41.96 132.40 31.23 C 133.32 30.35 134.24 29.47 135.16 28.58 C 134.41 28.56 132.91 28.51 132.16 28.48 C 132.31 27.86 132.59 26.61 132.74 25.98 Z" />
<path fill="#d2af49" opacity="1.00" d=" M 41.77 32.47 C 42.53 32.65 43.30 32.83 44.07 32.99 C 44.53 32.89 45.45 32.67 45.91 32.57 C 46.07 32.90 46.40 33.57 46.56 33.90 C 43.42 35.34 40.37 36.95 37.44 38.78 C 37.85 41.28 39.18 44.11 37.49 46.44 C 35.25 51.71 29.21 53.67 26.64 58.66 C 24.49 62.71 21.33 66.11 19.08 70.09 C 17.01 73.68 17.29 78.50 13.78 81.19 C 15.05 74.36 17.41 67.40 22.60 62.52 C 25.55 57.99 27.89 52.92 32.55 49.78 C 33.12 49.30 33.68 48.81 34.24 48.33 C 35.20 47.22 36.17 46.09 36.81 44.75 C 36.71 41.79 35.71 38.69 37.30 35.91 C 37.46 35.79 37.78 35.54 37.94 35.42 C 38.82 35.48 39.71 35.55 40.59 35.63 C 40.98 34.58 41.38 33.52 41.77 32.47 Z" />
<path fill="#d2af49" opacity="1.00" d=" M 162.49 43.06 C 165.68 43.41 166.54 46.65 168.15 48.89 C 169.39 49.77 170.78 50.42 172.09 51.18 L 170.74 51.56 C 167.07 51.51 165.43 48.31 164.32 45.33 C 163.80 45.36 162.76 45.43 162.24 45.46 C 162.65 46.74 163.07 48.03 163.49 49.31 C 162.71 49.92 161.92 50.54 161.14 51.16 C 163.86 51.68 166.58 52.25 169.29 52.84 C 169.74 53.02 170.64 53.37 171.09 53.54 C 167.73 55.50 164.03 53.20 160.76 52.17 C 160.97 49.07 161.37 45.97 162.49 43.06 Z" />
<path fill="#d2af49" opacity="1.00" d=" M 118.67 48.52 C 119.66 48.45 120.65 48.37 121.64 48.30 C 122.36 51.00 122.83 53.76 123.10 56.54 C 120.14 56.55 117.30 58.32 114.34 57.52 C 113.52 56.72 113.56 55.46 113.20 54.45 C 115.89 53.38 117.64 51.16 118.67 48.52 M 117.53 53.65 C 116.65 54.85 113.91 54.57 114.12 56.35 C 117.08 56.98 120.42 55.80 122.75 53.90 L 120.89 53.62 C 121.12 51.90 121.25 50.18 121.25 48.44 C 119.17 49.48 118.64 51.82 117.53 53.65 Z" />
<path fill="#d2af49" opacity="1.00" d=" M 11.39 81.87 C 11.99 81.72 13.17 81.43 13.77 81.28 C 13.82 85.34 11.63 88.83 10.41 92.57 C 9.62 95.81 6.07 97.46 5.55 100.82 C 4.84 103.07 5.77 105.32 6.27 107.50 C 7.44 111.47 5.25 115.41 5.46 119.42 C 5.32 126.21 6.75 133.28 4.34 139.81 C 4.09 137.04 4.22 134.26 4.33 131.49 C 4.10 131.18 3.63 130.55 3.40 130.23 C 3.35 130.17 3.24 130.04 3.18 129.97 C 4.78 127.63 5.04 124.85 4.02 122.22 C 2.06 116.72 6.70 111.49 5.12 105.97 C 4.52 107.16 3.97 108.39 3.36 109.59 C 1.71 105.13 3.89 100.77 5.51 96.69 C 5.49 96.35 5.45 95.69 5.43 95.35 C 6.00 95.24 7.15 95.01 7.73 94.89 C 8.33 93.55 8.93 92.21 9.54 90.87 C 9.30 90.53 8.82 89.85 8.58 89.51 C 9.98 87.72 11.29 85.86 12.63 84.03 C 12.32 83.49 11.70 82.41 11.39 81.87 Z" />
<path fill="#d2af49" opacity="1.00" d=" M 70.99 89.57 C 72.77 88.98 74.54 88.35 76.30 87.71 C 76.63 87.86 77.28 88.16 77.60 88.31 L 78.69 88.69 C 80.31 88.53 81.93 88.34 83.54 88.10 L 84.29 87.98 C 83.93 95.31 83.94 102.73 82.70 109.97 C 82.14 110.66 81.57 111.34 81.00 112.02 C 82.10 105.12 82.30 98.12 82.84 91.17 C 79.87 90.53 76.47 88.40 73.61 90.44 C 69.07 93.57 67.85 99.40 66.14 104.29 C 68.75 105.77 74.06 105.81 73.62 109.87 C 72.93 111.95 71.30 113.56 69.95 115.23 C 69.85 115.24 69.64 115.27 69.54 115.29 C 68.74 114.78 67.94 114.28 67.13 113.79 C 68.03 113.33 68.94 112.88 69.83 112.40 C 70.83 111.38 71.77 110.31 72.72 109.23 C 72.23 108.64 71.25 107.47 70.76 106.88 C 69.74 107.44 68.71 108.01 67.69 108.58 C 66.00 107.20 63.95 105.56 64.45 103.07 C 65.84 98.24 68.49 93.89 70.99 89.57 Z" />
<path fill="#d2af49" opacity="1.00" d=" M 117.12 88.95 C 119.37 93.19 122.18 97.09 125.69 100.39 C 127.77 102.11 128.21 104.81 128.51 107.34 C 126.11 104.05 124.21 100.22 120.86 97.76 C 120.50 97.86 119.76 98.08 119.40 98.18 C 118.25 101.40 118.04 104.84 117.17 108.12 C 116.87 108.38 116.27 108.90 115.97 109.16 L 116.06 108.13 C 116.29 103.93 117.43 99.87 117.98 95.72 C 118.57 95.72 119.75 95.72 120.34 95.72 C 119.23 93.48 118.13 91.24 117.12 88.95 Z" />
<path fill="#d2af49" opacity="1.00" d=" M 49.17 103.25 C 52.46 102.62 55.83 102.60 59.16 102.38 C 58.82 103.55 58.45 104.71 58.06 105.86 C 53.83 102.37 48.31 104.95 44.01 106.88 C 39.53 109.48 34.40 106.14 29.80 108.29 C 29.31 107.97 28.32 107.31 27.83 106.98 C 26.32 109.66 24.63 112.52 25.22 115.74 C 27.12 116.42 28.99 115.35 30.89 115.23 C 34.97 117.51 38.51 120.61 40.50 124.92 L 41.02 125.23 C 40.16 125.62 39.28 125.99 38.40 126.33 C 37.62 122.06 34.56 118.24 30.09 117.67 C 27.77 117.22 24.09 117.93 23.32 114.94 C 23.24 111.60 24.76 108.24 27.05 105.85 C 31.05 105.25 35.05 106.41 39.06 106.26 C 42.58 105.83 45.70 103.92 49.17 103.25 Z" />
</g>
<g id="#010102ff">
<path fill="#010102" opacity="1.00" d=" M 127.52 27.03 C 128.24 26.78 128.96 26.54 129.68 26.30 C 129.85 26.83 130.20 27.88 130.37 28.41 C 131.14 27.58 131.92 26.77 132.74 25.98 C 132.59 26.61 132.31 27.86 132.16 28.48 C 132.91 28.51 134.41 28.56 135.16 28.58 C 134.24 29.47 133.32 30.35 132.40 31.23 C 139.84 41.96 145.64 54.62 157.06 61.82 C 160.97 64.54 165.66 65.77 169.72 68.18 C 172.19 69.96 173.77 72.81 174.41 75.75 C 173.95 77.34 173.46 78.93 172.89 80.49 C 170.39 86.24 169.50 92.51 169.05 98.72 C 168.39 103.08 168.95 107.59 167.80 111.88 C 167.43 111.60 166.69 111.06 166.32 110.78 C 166.16 110.42 165.83 109.68 165.67 109.31 C 166.33 106.87 166.51 104.33 166.35 101.81 C 166.07 100.37 165.76 98.94 165.42 97.52 C 164.59 99.69 163.85 101.90 163.21 104.13 C 162.51 106.34 162.22 108.64 161.93 110.92 C 161.27 110.80 159.94 110.57 159.28 110.45 C 160.19 107.39 161.59 104.23 160.92 100.98 C 159.64 95.99 161.04 90.47 158.02 85.96 C 156.55 82.12 151.63 83.43 148.46 82.50 C 145.64 90.61 146.65 99.37 146.27 107.80 C 146.20 107.39 146.06 106.56 145.99 106.14 L 145.34 108.79 C 144.66 108.10 143.99 107.41 143.33 106.71 C 143.61 103.31 143.78 99.87 143.35 96.47 C 141.66 100.27 142.13 104.57 141.55 108.60 C 140.77 108.52 139.99 108.44 139.21 108.37 C 139.34 104.93 139.70 101.51 139.77 98.07 C 138.88 94.09 137.47 90.13 137.91 85.99 C 138.29 81.89 137.19 77.92 136.38 73.95 C 135.42 70.06 138.78 66.32 137.05 62.54 C 135.07 56.96 133.10 51.38 131.19 45.78 C 130.52 43.45 129.77 41.16 129.03 38.85 C 125.66 37.94 122.20 37.35 118.71 37.68 C 118.69 36.37 118.67 35.05 118.66 33.74 C 122.06 32.48 128.09 32.04 127.52 27.03 Z" />
</g>
<g id="#553c0eff">
<path fill="#553c0e" opacity="1.00" d=" M 35.53 37.43 C 35.97 37.05 36.86 36.29 37.30 35.91 C 35.71 38.69 36.71 41.79 36.81 44.75 C 36.17 46.09 35.20 47.22 34.24 48.33 C 35.35 44.79 35.19 41.08 35.53 37.43 Z" />
</g>
<g id="#59564dff">
<path fill="#59564d" opacity="1.00" d=" M 25.73 40.73 C 27.00 37.97 31.26 39.93 32.33 42.04 C 30.10 41.76 27.90 41.30 25.73 40.73 Z" />
</g>
<g id="#160500ff">
<path fill="#160500" opacity="1.00" d=" M 106.16 44.82 C 107.74 43.39 109.13 41.77 110.39 40.05 C 110.45 41.33 110.51 42.60 110.58 43.88 C 109.11 44.18 107.63 44.49 106.16 44.82 Z" />
<path fill="#160500" opacity="1.00" d=" M 162.24 45.46 C 162.76 45.43 163.80 45.36 164.32 45.33 C 165.43 48.31 167.07 51.51 170.74 51.56 C 170.38 51.88 169.65 52.52 169.29 52.84 C 166.58 52.25 163.86 51.68 161.14 51.16 C 161.92 50.54 162.71 49.92 163.49 49.31 C 163.07 48.03 162.65 46.74 162.24 45.46 Z" />
<path fill="#160500" opacity="1.00" d=" M 117.53 53.65 C 118.64 51.82 119.17 49.48 121.25 48.44 C 121.25 50.18 121.12 51.90 120.89 53.62 L 122.75 53.90 C 120.42 55.80 117.08 56.98 114.12 56.35 C 113.91 54.57 116.65 54.85 117.53 53.65 Z" />
<path fill="#160500" opacity="1.00" d=" M 171.50 55.84 L 172.53 56.83 C 176.63 61.65 183.14 64.07 189.31 64.53 C 189.14 64.86 188.80 65.50 188.63 65.82 C 184.02 65.66 179.53 63.87 174.88 64.78 C 175.16 63.91 175.44 63.05 175.72 62.18 C 175.20 61.79 174.17 61.00 173.65 60.61 C 173.54 60.53 173.33 60.37 173.22 60.28 C 171.94 59.08 171.36 57.60 171.50 55.84 Z" />
<path fill="#160500" opacity="1.00" d=" M 52.73 88.01 C 52.74 88.47 52.77 89.38 52.78 89.84 C 51.95 90.65 51.13 91.46 50.29 92.26 C 50.33 92.79 50.41 93.86 50.45 94.39 C 47.20 94.27 43.96 94.63 40.72 94.79 C 41.26 94.58 42.34 94.16 42.88 93.95 C 46.56 92.71 50.42 91.36 52.73 88.01 Z" />
<path fill="#160500" opacity="1.00" d=" M 61.69 111.16 C 63.51 112.03 65.35 112.85 67.13 113.79 C 67.94 114.28 68.74 114.78 69.54 115.29 C 67.92 115.48 66.28 115.59 64.64 115.58 C 63.67 114.10 62.68 112.63 61.69 111.16 Z" />
</g>
<g id="#110000ff">
<path fill="#110000" opacity="1.00" d=" M 85.82 46.17 C 88.59 48.88 92.22 50.44 96.01 51.09 C 93.40 51.74 90.76 50.95 88.16 50.65 C 87.38 49.16 86.58 47.68 85.82 46.17 Z" />
<path fill="#110000" opacity="1.00" d=" M 174.41 75.75 C 175.27 79.62 175.08 83.73 176.62 87.44 C 177.42 89.46 178.19 91.52 178.56 93.68 C 177.78 97.23 177.94 100.86 178.50 104.44 C 178.10 104.75 177.29 105.37 176.88 105.68 C 176.39 105.68 175.42 105.66 174.94 105.66 C 175.16 102.84 175.20 99.99 176.07 97.28 C 176.16 97.06 176.33 96.62 176.42 96.40 C 176.88 95.03 177.84 93.48 177.01 92.04 C 175.32 88.31 174.01 84.43 172.89 80.49 C 173.46 78.93 173.95 77.34 174.41 75.75 Z" />
<path fill="#110000" opacity="1.00" d=" M 54.03 77.76 C 54.38 77.63 55.09 77.38 55.44 77.26 C 55.36 78.94 55.32 80.64 55.77 82.27 C 53.66 82.83 51.53 83.43 49.32 83.33 C 51.46 81.98 53.32 80.27 54.03 77.76 Z" />
</g>
<g id="#ddb05cff">
<path fill="#ddb05c" opacity="1.00" d=" M 131.19 45.78 C 133.10 51.38 135.07 56.96 137.05 62.54 C 138.78 66.32 135.42 70.06 136.38 73.95 C 137.19 77.92 138.29 81.89 137.91 85.99 C 137.47 90.13 138.88 94.09 139.77 98.07 C 138.75 97.30 137.73 96.54 136.71 95.77 C 136.63 92.13 135.39 88.62 135.56 84.96 C 135.71 81.55 134.88 78.04 132.52 75.48 C 128.35 70.62 124.70 64.22 118.01 62.64 C 109.54 61.22 101.17 64.61 92.66 63.76 L 91.78 63.70 C 90.14 61.14 86.65 60.26 84.17 62.18 C 79.71 65.63 73.03 63.56 69.13 68.00 C 62.79 73.86 61.97 82.90 61.32 90.99 C 60.95 96.84 58.10 103.12 61.30 108.64 C 62.73 111.97 66.55 112.88 69.83 112.40 C 68.94 112.88 68.03 113.33 67.13 113.79 C 65.35 112.85 63.51 112.03 61.69 111.16 L 61.61 111.13 L 61.57 111.06 C 60.39 109.34 59.27 107.57 58.06 105.86 C 58.45 104.71 58.82 103.55 59.16 102.38 C 59.22 95.22 60.29 88.14 61.07 81.04 C 61.49 76.35 63.99 72.22 66.53 68.39 C 69.12 64.74 73.72 63.35 78.01 63.27 C 82.32 63.18 86.20 57.33 90.44 60.60 C 97.09 65.09 105.04 60.65 112.27 60.83 C 116.32 61.16 120.84 61.11 124.12 63.88 C 128.12 67.06 130.86 71.54 135.00 74.58 C 135.48 69.59 136.42 64.38 134.65 59.52 C 133.07 55.05 131.13 50.63 131.19 45.78 Z" />
<path fill="#ddb05c" opacity="1.00" d=" M 132.17 78.83 C 132.69 79.04 133.73 79.48 134.25 79.69 C 134.46 85.79 134.63 91.90 135.11 97.98 C 134.96 101.19 135.35 104.38 135.62 107.57 C 132.24 98.40 132.82 88.42 132.17 78.83 Z" />
<path fill="#ddb05c" opacity="1.00" d=" M 89.91 104.77 C 90.37 101.84 92.14 99.39 93.49 96.82 C 92.57 100.32 92.35 104.06 93.93 107.42 C 93.19 106.71 92.43 106.01 91.67 105.32 C 91.09 105.78 90.51 106.25 89.93 106.71 C 89.93 106.23 89.92 105.25 89.91 104.77 Z" />
<path fill="#ddb05c" opacity="1.00" d=" M 163.21 104.13 C 163.85 101.90 164.59 99.69 165.42 97.52 C 165.76 98.94 166.07 100.37 166.35 101.81 C 165.29 102.57 164.23 103.33 163.21 104.13 Z" />
<path fill="#ddb05c" opacity="1.00" d=" M 4.44 142.69 C 6.15 142.11 7.86 141.51 9.55 140.87 C 10.26 140.96 11.68 141.15 12.39 141.24 C 10.04 142.44 7.75 143.73 5.38 144.87 C 4.93 145.06 4.03 145.43 3.58 145.62 C 2.34 146.28 1.15 147.02 0.00 147.83 L 0.00 147.08 C 1.46 145.91 2.98 144.83 4.43 143.65 C 4.43 143.41 4.43 142.93 4.44 142.69 Z" />
<path fill="#ddb05c" opacity="1.00" d=" M 242.53 143.88 C 242.95 143.65 243.81 143.19 244.24 142.96 C 244.51 143.18 245.06 143.61 245.34 143.82 C 246.77 144.99 248.19 146.18 249.63 147.35 L 250.00 146.04 L 250.00 147.82 C 248.42 146.94 246.80 146.16 245.16 145.40 C 244.99 145.32 244.63 145.15 244.45 145.07 C 243.97 144.77 243.01 144.18 242.53 143.88 Z" />
</g>
<g id="#222418ff">
<path fill="#222418" opacity="1.00" d=" M 23.61 57.59 C 25.53 54.05 27.74 49.41 32.55 49.78 C 27.89 52.92 25.55 57.99 22.60 62.52 C 17.41 67.40 15.05 74.36 13.78 81.19 L 13.77 81.28 C 13.17 81.43 11.99 81.72 11.39 81.87 C 11.70 82.41 12.32 83.49 12.63 84.03 C 11.29 85.86 9.98 87.72 8.58 89.51 C 8.82 89.85 9.30 90.53 9.54 90.87 C 8.93 92.21 8.33 93.55 7.73 94.89 C 7.15 95.01 6.00 95.24 5.43 95.35 C 5.45 95.69 5.49 96.35 5.51 96.69 C 3.89 100.77 1.71 105.13 3.36 109.59 C 3.97 108.39 4.52 107.16 5.12 105.97 C 6.70 111.49 2.06 116.72 4.02 122.22 C 5.04 124.85 4.78 127.63 3.18 129.97 C 2.86 129.63 2.23 128.94 1.91 128.60 C 3.00 123.84 -0.62 118.89 2.68 114.54 C 2.36 114.52 1.72 114.50 1.40 114.48 C 2.29 112.69 2.64 110.76 1.66 108.92 C 1.25 109.51 0.42 110.70 0.00 111.29 L 0.00 101.43 C 4.23 95.02 7.76 88.20 11.01 81.25 C 12.22 77.49 13.32 73.68 14.97 70.07 C 16.75 65.21 21.33 62.19 23.61 57.59 Z" />
</g>
<g id="#cba232ff">
<path fill="#cba232" opacity="1.00" d=" M 171.06 55.07 C 173.86 53.86 175.19 56.47 176.84 58.18 C 180.90 60.46 185.67 61.52 189.31 64.53 C 183.14 64.07 176.63 61.65 172.53 56.83 C 172.16 56.39 171.43 55.51 171.06 55.07 Z" />
</g>
<g id="#cfa039ff">
<path fill="#cfa039" opacity="1.00" d=" M 170.23 59.63 C 170.98 59.80 172.47 60.12 173.22 60.28 C 173.33 60.37 173.54 60.53 173.65 60.61 C 174.17 61.00 175.20 61.79 175.72 62.18 C 175.44 63.05 175.16 63.91 174.88 64.78 C 179.53 63.87 184.02 65.66 188.63 65.82 C 188.26 68.14 185.60 67.14 184.01 67.05 C 180.97 66.41 177.87 66.54 174.79 66.35 C 173.35 64.05 172.72 61.18 170.23 59.63 Z" />
</g>
<g id="#754900ff">
<path fill="#754900" opacity="1.00" d=" M 173.22 60.28 C 173.33 60.37 173.54 60.53 173.65 60.61 C 173.54 60.53 173.33 60.37 173.22 60.28 Z" />
</g>
<g id="#040202ff">
<path fill="#040202" opacity="1.00" d=" M 84.17 62.18 C 86.65 60.26 90.14 61.14 91.78 63.70 C 93.57 68.12 98.18 73.84 94.11 78.25 C 90.45 81.38 87.39 85.18 83.54 88.10 C 81.93 88.34 80.31 88.53 78.69 88.69 L 77.60 88.31 C 77.81 83.68 81.03 79.45 79.77 74.76 C 78.29 78.98 76.97 83.28 76.30 87.71 C 74.54 88.35 72.77 88.98 70.99 89.57 C 68.49 93.89 65.84 98.24 64.45 103.07 C 63.95 105.56 66.00 107.20 67.69 108.58 C 68.71 108.01 69.74 107.44 70.76 106.88 C 71.25 107.47 72.23 108.64 72.72 109.23 C 71.77 110.31 70.83 111.38 69.83 112.40 C 66.55 112.88 62.73 111.97 61.30 108.64 C 58.10 103.12 60.95 96.84 61.32 90.99 C 61.97 82.90 62.79 73.86 69.13 68.00 C 73.03 63.56 79.71 65.63 84.17 62.18 Z" />
</g>
<g id="#020102ff">
<path fill="#020102" opacity="1.00" d=" M 92.66 63.76 C 101.17 64.61 109.54 61.22 118.01 62.64 C 124.70 64.22 128.35 70.62 132.52 75.48 C 134.88 78.04 135.71 81.55 135.56 84.96 C 135.39 88.62 136.63 92.13 136.71 95.77 C 136.72 95.98 136.73 96.41 136.74 96.62 C 136.33 96.96 135.52 97.64 135.11 97.98 C 134.63 91.90 134.46 85.79 134.25 79.69 C 133.73 79.48 132.69 79.04 132.17 78.83 C 132.82 88.42 132.24 98.40 135.62 107.57 L 135.87 108.29 C 133.47 108.12 131.06 108.12 128.65 108.09 L 128.51 107.34 C 128.21 104.81 127.77 102.11 125.69 100.39 C 122.18 97.09 119.37 93.19 117.12 88.95 C 118.13 91.24 119.23 93.48 120.34 95.72 C 119.75 95.72 118.57 95.72 117.98 95.72 C 114.66 95.70 111.34 95.77 108.02 95.79 C 106.24 95.71 104.48 95.44 102.82 94.79 C 101.01 94.11 99.23 93.40 97.43 92.71 C 98.07 90.18 98.57 87.62 98.98 85.04 C 97.04 88.92 95.08 92.80 93.34 96.78 C 94.43 95.91 95.52 95.04 96.60 94.16 C 98.30 94.77 100.11 95.29 101.42 96.63 C 100.12 98.90 98.16 101.18 98.28 103.95 C 99.07 105.95 100.87 107.59 100.76 109.87 C 99.10 110.06 97.43 110.22 95.77 110.37 C 95.28 109.60 94.80 108.83 94.32 108.06 L 93.93 107.42 C 92.35 104.06 92.57 100.32 93.49 96.82 C 92.14 99.39 90.37 101.84 89.91 104.77 C 89.56 106.94 89.47 109.14 89.32 111.33 C 87.54 111.66 85.75 111.98 83.97 112.34 L 82.09 112.70 C 82.24 112.02 82.55 110.65 82.70 109.97 C 83.94 102.73 83.93 95.31 84.29 87.98 C 88.48 88.24 89.51 83.47 92.67 81.72 C 95.84 79.72 97.71 75.77 97.14 72.07 C 96.22 69.03 94.38 66.39 92.66 63.76 Z" />
</g>
<g id="#564f48ff">
<path fill="#564f48" opacity="1.00" d=" M 91.78 63.70 L 92.66 63.76 C 94.38 66.39 96.22 69.03 97.14 72.07 C 97.71 75.77 95.84 79.72 92.67 81.72 C 89.51 83.47 88.48 88.24 84.29 87.98 L 83.54 88.10 C 87.39 85.18 90.45 81.38 94.11 78.25 C 98.18 73.84 93.57 68.12 91.78 63.70 Z" />
</g>
<g id="#040204ff">
<path fill="#040204" opacity="1.00" d=" M 181.82 78.63 C 181.91 76.46 183.08 74.58 183.97 72.67 C 184.41 73.76 184.86 74.86 185.32 75.95 C 184.71 77.73 184.36 79.61 185.04 81.44 C 186.66 78.68 188.23 75.87 190.30 73.41 C 190.42 74.79 190.52 76.17 190.62 77.55 C 189.17 79.05 187.86 80.67 186.71 82.41 C 187.17 82.48 188.09 82.62 188.54 82.69 C 189.17 83.00 190.43 83.63 191.06 83.95 L 191.71 84.28 L 192.67 84.74 C 191.15 85.10 189.64 85.47 188.13 85.86 C 190.10 88.32 192.71 90.09 195.37 91.73 C 198.00 93.31 199.29 96.48 202.16 97.74 C 205.62 99.53 209.82 100.63 212.05 104.09 C 213.97 106.80 213.84 110.23 213.92 113.39 C 213.18 112.58 212.45 111.77 211.72 110.96 C 211.26 111.77 210.78 112.58 210.43 113.45 C 211.43 114.92 212.67 116.21 213.65 117.71 C 212.89 120.03 211.95 122.29 211.17 124.61 C 211.09 124.74 210.94 124.99 210.86 125.12 C 210.50 124.93 209.78 124.54 209.42 124.35 C 209.81 122.27 210.26 120.19 210.20 118.06 C 208.67 119.74 207.11 121.43 205.21 122.71 C 204.74 122.55 203.80 122.23 203.33 122.07 C 203.96 121.57 205.22 120.55 205.85 120.04 C 205.57 117.52 205.10 115.04 204.49 112.58 C 200.53 110.50 196.60 108.32 192.33 106.94 C 190.41 110.08 188.62 113.31 187.15 116.68 C 186.95 116.62 186.55 116.50 186.35 116.44 C 183.89 113.27 181.67 109.78 180.58 105.88 C 181.52 103.91 184.13 103.31 185.85 102.08 C 185.10 101.61 184.36 101.14 183.62 100.68 C 182.86 99.57 182.10 98.47 181.23 97.44 C 181.32 94.63 181.98 91.76 181.38 88.98 C 180.28 86.76 178.04 85.52 176.10 84.16 C 176.50 83.51 177.29 82.21 177.69 81.56 C 180.15 82.23 182.68 82.53 185.22 82.70 C 184.07 81.35 182.88 80.05 181.82 78.63 M 182.90 106.50 C 183.56 109.06 183.94 112.35 186.99 113.13 C 187.38 110.84 187.68 108.53 188.00 106.22 C 186.29 106.31 184.59 106.41 182.90 106.50 Z" />
</g>
<g id="#484139ff">
<path fill="#484139" opacity="1.00" d=" M 79.77 74.76 C 81.03 79.45 77.81 83.68 77.60 88.31 C 77.28 88.16 76.63 87.86 76.30 87.71 C 76.97 83.28 78.29 78.98 79.77 74.76 Z" />
</g>
<g id="#59431cff">
<path fill="#59431c" opacity="1.00" d=" M 191.51 80.74 C 192.20 78.98 191.72 76.10 193.69 75.22 C 193.93 76.61 194.05 78.02 194.06 79.43 C 195.96 78.70 197.85 77.96 199.76 77.24 C 200.73 76.36 201.71 75.49 202.69 74.62 C 202.75 74.92 202.88 75.54 202.94 75.84 C 201.93 77.56 200.87 79.25 199.83 80.94 C 202.29 81.12 204.76 81.29 207.24 81.47 C 206.95 81.85 206.38 82.61 206.10 82.99 C 203.27 82.93 200.44 82.93 197.63 83.27 C 200.12 83.96 202.72 84.14 205.30 84.02 C 204.93 84.50 204.19 85.47 203.83 85.95 C 200.08 85.76 196.44 84.51 192.67 84.74 L 191.71 84.28 C 193.37 84.30 193.66 81.10 191.73 82.44 C 191.56 82.82 191.23 83.57 191.06 83.95 C 190.43 83.63 189.17 83.00 188.54 82.69 C 189.54 82.05 190.53 81.40 191.51 80.74 M 195.92 81.90 C 197.35 82.60 199.39 80.72 198.91 79.24 C 197.59 78.79 195.33 80.46 195.92 81.90 Z" />
</g>
<g id="#dba525ff">
<path fill="#dba525" opacity="1.00" d=" M 199.83 80.94 C 200.87 79.25 201.93 77.56 202.94 75.84 C 203.18 77.08 203.45 78.32 203.71 79.55 C 205.09 79.43 206.47 79.29 207.86 79.28 C 208.88 81.15 208.29 83.36 206.87 84.84 C 204.13 88.77 198.81 86.69 194.83 87.89 C 198.10 91.69 201.66 95.55 206.43 97.44 C 209.03 98.69 212.39 99.43 213.60 102.40 C 215.07 105.78 216.84 109.68 215.35 113.35 C 214.52 115.75 215.26 118.32 214.83 120.77 C 213.99 122.37 212.39 123.35 211.17 124.61 C 211.95 122.29 212.89 120.03 213.65 117.71 C 212.67 116.21 211.43 114.92 210.43 113.45 C 210.78 112.58 211.26 111.77 211.72 110.96 C 212.45 111.77 213.18 112.58 213.92 113.39 C 213.84 110.23 213.97 106.80 212.05 104.09 C 209.82 100.63 205.62 99.53 202.16 97.74 C 199.29 96.48 198.00 93.31 195.37 91.73 C 192.71 90.09 190.10 88.32 188.13 85.86 C 189.64 85.47 191.15 85.10 192.67 84.74 C 196.44 84.51 200.08 85.76 203.83 85.95 C 204.19 85.47 204.93 84.50 205.30 84.02 C 205.50 83.76 205.90 83.24 206.10 82.99 C 206.38 82.61 206.95 81.85 207.24 81.47 C 204.76 81.29 202.29 81.12 199.83 80.94 Z" />
</g>
<g id="#b19169ff">
<path fill="#b19169" opacity="1.00" d=" M 195.92 81.90 C 195.33 80.46 197.59 78.79 198.91 79.24 C 199.39 80.72 197.35 82.60 195.92 81.90 Z" />
</g>
<g id="#907954ff">
<path fill="#907954" opacity="1.00" d=" M 191.73 82.44 C 193.66 81.10 193.37 84.30 191.71 84.28 L 191.06 83.95 C 191.23 83.57 191.56 82.82 191.73 82.44 Z" />
</g>
<g id="#dea807ff">
<path fill="#dea807" opacity="1.00" d=" M 146.27 107.80 C 146.65 99.37 145.64 90.61 148.46 82.50 C 151.63 83.43 156.55 82.12 158.02 85.96 C 161.04 90.47 159.64 95.99 160.92 100.98 C 161.59 104.23 160.19 107.39 159.28 110.45 C 155.30 109.86 151.31 109.28 147.29 109.31 C 145.36 109.14 143.45 108.90 141.55 108.60 C 142.13 104.57 141.66 100.27 143.35 96.47 C 143.78 99.87 143.61 103.31 143.33 106.71 C 143.99 107.41 144.66 108.10 145.34 108.79 L 145.99 106.14 C 146.06 106.56 146.20 107.39 146.27 107.80 Z" />
</g>
<g id="#bfa25fff">
<path fill="#bfa25f" opacity="1.00" d=" M 197.63 83.27 C 200.44 82.93 203.27 82.93 206.10 82.99 C 205.90 83.24 205.50 83.76 205.30 84.02 C 202.72 84.14 200.12 83.96 197.63 83.27 Z" />
</g>
<g id="#484134ff">
<path fill="#484134" opacity="1.00" d=" M 93.34 96.78 C 95.08 92.80 97.04 88.92 98.98 85.04 C 98.57 87.62 98.07 90.18 97.43 92.71 C 99.23 93.40 101.01 94.11 102.82 94.79 C 102.34 95.39 101.88 96.01 101.42 96.63 C 100.11 95.29 98.30 94.77 96.60 94.16 C 95.52 95.04 94.43 95.91 93.34 96.78 Z" />
</g>
<g id="#caa22fff">
<path fill="#caa22f" opacity="1.00" d=" M 43.67 91.67 C 46.47 90.87 48.85 89.26 50.97 87.32 C 51.41 87.49 52.29 87.84 52.73 88.01 C 50.42 91.36 46.56 92.71 42.88 93.95 C 43.08 93.38 43.47 92.24 43.67 91.67 Z" />
</g>
<g id="#e0a906ff">
<path fill="#e0a906" opacity="1.00" d=" M 172.45 86.55 C 174.84 89.30 175.65 92.94 176.42 96.40 C 176.33 96.62 176.16 97.06 176.07 97.28 C 173.14 99.41 173.21 103.28 174.23 106.41 C 175.87 106.93 177.53 107.40 179.20 107.87 C 180.50 110.41 181.79 112.97 183.07 115.54 C 177.05 113.68 170.83 112.66 164.64 111.60 C 164.90 111.02 165.41 109.88 165.67 109.31 C 165.83 109.68 166.16 110.42 166.32 110.78 C 166.69 111.06 167.43 111.60 167.80 111.88 C 168.95 107.59 168.39 103.08 169.05 98.72 C 169.06 102.88 169.14 107.06 169.44 111.21 C 170.70 103.03 169.94 94.55 172.45 86.55 Z" />
</g>
<g id="#e1a803ff">
<path fill="#e1a803" opacity="1.00" d=" M 73.61 90.44 C 76.47 88.40 79.87 90.53 82.84 91.17 C 82.30 98.12 82.10 105.12 81.00 112.02 C 81.57 111.34 82.14 110.66 82.70 109.97 C 82.55 110.65 82.24 112.02 82.09 112.70 L 83.97 112.34 C 79.29 113.28 74.63 114.31 69.95 115.23 C 71.30 113.56 72.93 111.95 73.62 109.87 C 74.06 105.81 68.75 105.77 66.14 104.29 C 67.85 99.40 69.07 93.57 73.61 90.44 Z" />
</g>
<g id="#dda524ff">
<path fill="#dda524" opacity="1.00" d=" M 178.50 104.44 C 177.94 100.86 177.78 97.23 178.56 93.68 C 179.22 95.08 180.19 96.30 181.23 97.44 C 182.10 98.47 182.86 99.57 183.62 100.68 C 184.36 101.14 185.10 101.61 185.85 102.08 C 184.13 103.31 181.52 103.91 180.58 105.88 C 181.67 109.78 183.89 113.27 186.35 116.44 C 185.53 116.21 183.89 115.76 183.07 115.54 C 181.79 112.97 180.50 110.41 179.20 107.87 C 177.53 107.40 175.87 106.93 174.23 106.41 L 174.94 105.66 C 175.42 105.66 176.39 105.68 176.88 105.68 C 177.29 105.37 178.10 104.75 178.50 104.44 Z" />
</g>
<g id="#dda80aff">
<path fill="#dda80a" opacity="1.00" d=" M 101.42 96.63 C 101.88 96.01 102.34 95.39 102.82 94.79 C 104.48 95.44 106.24 95.71 108.02 95.79 C 109.01 100.15 110.88 104.27 111.58 108.71 C 113.07 108.52 114.56 108.32 116.06 108.13 L 115.97 109.16 C 114.07 108.57 112.09 108.84 110.17 109.15 C 107.02 109.19 103.88 109.47 100.76 109.87 C 100.87 107.59 99.07 105.95 98.28 103.95 C 98.16 101.18 100.12 98.90 101.42 96.63 Z" />
</g>
<g id="#080400ff">
<path fill="#080400" opacity="1.00" d=" M 108.02 95.79 C 111.34 95.77 114.66 95.70 117.98 95.72 C 117.43 99.87 116.29 103.93 116.06 108.13 C 114.56 108.32 113.07 108.52 111.58 108.71 C 110.88 104.27 109.01 100.15 108.02 95.79 Z" />
</g>
<g id="#dec039ff">
<path fill="#dec039" opacity="1.00" d=" M 136.71 95.77 C 137.73 96.54 138.75 97.30 139.77 98.07 C 139.70 101.51 139.34 104.93 139.21 108.37 C 139.99 108.44 140.77 108.52 141.55 108.60 C 143.45 108.90 145.36 109.14 147.29 109.31 C 144.01 109.55 140.61 109.99 137.46 108.80 C 138.21 104.72 138.35 100.52 136.74 96.62 C 136.73 96.41 136.72 95.98 136.71 95.77 Z" />
</g>
<g id="#dfa802ff">
<path fill="#dfa802" opacity="1.00" d=" M 119.40 98.18 C 119.76 98.08 120.50 97.86 120.86 97.76 C 124.21 100.22 126.11 104.05 128.51 107.34 L 128.65 108.09 C 124.83 108.04 121.00 108.15 117.17 108.12 C 118.04 104.84 118.25 101.40 119.40 98.18 Z" />
</g>
<g id="#dca413ff">
<path fill="#dca413" opacity="1.00" d=" M 135.11 97.98 C 135.52 97.64 136.33 96.96 136.74 96.62 C 138.35 100.52 138.21 104.72 137.46 108.80 C 137.06 108.67 136.26 108.42 135.87 108.29 L 135.62 107.57 C 135.35 104.38 134.96 101.19 135.11 97.98 Z" />
</g>
<g id="#b69331ff">
<path fill="#b69331" opacity="1.00" d=" M 174.23 106.41 C 173.21 103.28 173.14 99.41 176.07 97.28 C 175.20 99.99 175.16 102.84 174.94 105.66 L 174.23 106.41 Z" />
</g>
<g id="#cfb226ff">
<path fill="#cfb226" opacity="1.00" d=" M 163.21 104.13 C 164.23 103.33 165.29 102.57 166.35 101.81 C 166.51 104.33 166.33 106.87 165.67 109.31 C 165.41 109.88 164.90 111.02 164.64 111.60 C 163.96 111.43 162.61 111.09 161.93 110.92 C 162.22 108.64 162.51 106.34 163.21 104.13 Z" />
</g>
<g id="#070405ff">
<path fill="#070405" opacity="1.00" d=" M 44.01 106.88 C 48.31 104.95 53.83 102.37 58.06 105.86 C 59.27 107.57 60.39 109.34 61.57 111.06 C 60.80 110.98 59.26 110.81 58.50 110.72 C 59.83 112.34 61.16 113.96 62.57 115.52 C 62.88 115.87 63.49 116.56 63.80 116.91 C 62.07 117.51 60.35 118.16 58.66 118.86 C 56.00 116.82 53.29 114.88 50.60 112.90 C 47.41 114.86 44.17 116.88 40.42 117.54 C 40.96 119.95 42.93 122.49 41.64 124.97 L 41.02 125.23 L 40.50 124.92 C 38.51 120.61 34.97 117.51 30.89 115.23 C 28.99 115.35 27.12 116.42 25.22 115.74 C 24.63 112.52 26.32 109.66 27.83 106.98 C 28.32 107.31 29.31 107.97 29.80 108.29 C 34.40 106.14 39.53 109.48 44.01 106.88 Z" />
</g>
<g id="#d9ab16ff">
<path fill="#d9ab16" opacity="1.00" d=" M 89.32 111.33 C 89.47 109.14 89.56 106.94 89.91 104.77 C 89.92 105.25 89.93 106.23 89.93 106.71 C 90.51 106.25 91.09 105.78 91.67 105.32 C 92.43 106.01 93.19 106.71 93.93 107.42 L 94.32 108.06 C 94.60 108.59 95.18 109.63 95.46 110.16 C 93.42 110.56 91.37 110.96 89.32 111.33 Z" />
</g>
<g id="#caae4bff">
<path fill="#caae4b" opacity="1.00" d=" M 182.90 106.50 C 184.59 106.41 186.29 106.31 188.00 106.22 C 187.68 108.53 187.38 110.84 186.99 113.13 C 183.94 112.35 183.56 109.06 182.90 106.50 Z" />
</g>
<g id="#dfa809ff">
<path fill="#dfa809" opacity="1.00" d=" M 192.33 106.94 C 196.60 108.32 200.53 110.50 204.49 112.58 C 205.10 115.04 205.57 117.52 205.85 120.04 C 205.22 120.55 203.96 121.57 203.33 122.07 C 202.47 121.76 201.61 121.44 200.75 121.12 C 196.29 119.44 191.73 118.00 187.15 116.68 C 188.62 113.31 190.41 110.08 192.33 106.94 Z" />
</g>
<g id="#fbed0dff">
<path fill="#fbed0d" opacity="1.00" d=" M 94.32 108.06 C 94.80 108.83 95.28 109.60 95.77 110.37 C 97.43 110.22 99.10 110.06 100.76 109.87 C 103.88 109.47 107.02 109.19 110.17 109.15 C 111.83 110.58 114.41 111.00 115.97 109.16 C 116.27 108.90 116.87 108.38 117.17 108.12 C 121.00 108.15 124.83 108.04 128.65 108.09 C 131.06 108.12 133.47 108.12 135.87 108.29 C 136.26 108.42 137.06 108.67 137.46 108.80 C 140.61 109.99 144.01 109.55 147.29 109.31 C 151.31 109.28 155.30 109.86 159.28 110.45 C 159.94 110.57 161.27 110.80 161.93 110.92 C 162.61 111.09 163.96 111.43 164.64 111.60 C 170.83 112.66 177.05 113.68 183.07 115.54 C 183.89 115.76 185.53 116.21 186.35 116.44 C 186.55 116.50 186.95 116.62 187.15 116.68 C 191.73 118.00 196.29 119.44 200.75 121.12 C 201.71 122.34 202.67 123.56 203.63 124.78 C 202.24 125.12 200.85 125.45 199.46 125.76 C 173.44 117.89 146.16 113.96 118.97 114.97 C 82.13 116.30 45.78 125.76 12.39 141.24 C 11.68 141.15 10.26 140.96 9.55 140.87 C 18.69 135.18 28.37 130.27 38.40 126.33 C 39.28 125.99 40.16 125.62 41.02 125.23 L 41.64 124.97 C 47.10 122.33 52.97 120.84 58.66 118.86 C 60.35 118.16 62.07 117.51 63.80 116.91 C 63.49 116.56 62.88 115.87 62.57 115.52 L 64.64 115.58 C 66.28 115.59 67.92 115.48 69.54 115.29 C 69.64 115.27 69.85 115.24 69.95 115.23 C 74.63 114.31 79.29 113.28 83.97 112.34 C 85.75 111.98 87.54 111.66 89.32 111.33 C 91.37 110.96 93.42 110.56 95.46 110.16 C 95.18 109.63 94.60 108.59 94.32 108.06 Z" />
</g>
<g id="#181c27ff">
<path fill="#181c27" opacity="1.00" d=" M 1.66 108.92 C 2.64 110.76 2.29 112.69 1.40 114.48 C 1.72 114.50 2.36 114.52 2.68 114.54 C -0.62 118.89 3.00 123.84 1.91 128.60 C 2.23 128.94 2.86 129.63 3.18 129.97 C 3.24 130.04 3.35 130.17 3.40 130.23 C 0.14 133.23 2.13 137.60 2.19 141.33 C 1.58 142.55 0.74 143.62 0.00 144.77 L 0.00 111.29 C 0.42 110.70 1.25 109.51 1.66 108.92 Z" />
</g>
<g id="#fcee47ff">
<path fill="#fcee47" opacity="1.00" d=" M 110.17 109.15 C 112.09 108.84 114.07 108.57 115.97 109.16 C 114.41 111.00 111.83 110.58 110.17 109.15 Z" />
</g>
<g id="#675a45ff">
<path fill="#675a45" opacity="1.00" d=" M 58.50 110.72 C 59.26 110.81 60.80 110.98 61.57 111.06 L 61.57 111.18 L 61.69 111.16 C 62.68 112.63 63.67 114.10 64.64 115.58 L 62.57 115.52 C 61.16 113.96 59.83 112.34 58.50 110.72 Z" />
</g>
<g id="#110800ff">
<path fill="#110800" opacity="1.00" d=" M 61.57 111.06 L 61.61 111.13 L 61.69 111.16 L 61.57 111.18 L 61.57 111.06 Z" />
</g>
<g id="#dda60bff">
<path fill="#dda60b" opacity="1.00" d=" M 40.42 117.54 C 44.17 116.88 47.41 114.86 50.60 112.90 C 53.29 114.88 56.00 116.82 58.66 118.86 C 52.97 120.84 47.10 122.33 41.64 124.97 C 42.93 122.49 40.96 119.95 40.42 117.54 Z" />
</g>
<g id="#67770cff">
<path fill="#67770c" opacity="1.00" d=" M 12.39 141.24 C 45.78 125.76 82.13 116.30 118.97 114.97 C 146.16 113.96 173.44 117.89 199.46 125.76 C 213.40 130.15 226.99 135.62 239.98 142.33 C 240.84 142.82 241.68 143.35 242.53 143.88 C 243.01 144.18 243.97 144.77 244.45 145.07 C 237.23 143.90 231.21 139.26 224.46 136.65 C 209.87 130.88 195.12 125.22 179.61 122.49 C 168.59 119.71 157.23 118.93 146.03 117.26 C 116.12 115.40 85.70 118.02 56.99 126.89 C 43.09 129.66 30.19 135.71 17.16 141.08 C 13.27 142.50 9.80 145.65 5.38 144.87 C 7.75 143.73 10.04 142.44 12.39 141.24 Z" />
<path fill="#67770c" opacity="1.00" d=" M 89.05 176.28 C 90.27 173.28 90.71 169.29 94.01 167.78 C 96.47 167.52 99.02 167.85 101.35 168.68 C 102.82 170.33 103.82 172.33 105.19 174.07 C 105.70 172.65 106.20 171.23 106.72 169.82 C 106.85 170.63 107.11 172.25 107.23 173.06 C 107.01 175.11 106.67 177.14 106.31 179.17 C 103.87 175.99 101.77 172.56 99.61 169.19 C 97.26 169.54 94.93 170.00 92.62 170.53 C 91.84 174.45 90.97 178.36 89.94 182.23 C 88.21 179.72 86.62 177.12 85.18 174.44 C 84.50 172.10 81.83 172.32 80.13 173.35 C 77.36 174.41 74.59 175.49 71.87 176.67 C 78.92 184.38 85.71 192.40 91.15 201.36 C 93.17 200.91 95.19 200.45 97.21 199.99 C 97.77 195.19 98.32 190.35 99.80 185.73 C 102.51 189.90 104.67 194.42 107.68 198.40 C 109.52 198.02 111.37 197.66 113.21 197.30 C 114.69 188.47 117.08 179.82 119.18 171.12 C 119.64 169.99 120.16 168.89 120.74 167.81 C 121.56 174.69 117.70 181.21 116.98 188.03 C 116.12 191.90 116.67 197.36 112.37 199.27 C 109.14 201.61 106.06 198.25 103.36 196.70 C 103.05 195.32 102.73 193.94 102.42 192.56 C 101.87 192.47 100.76 192.29 100.21 192.20 C 99.06 195.35 99.89 199.65 96.81 201.77 C 94.71 203.62 91.59 202.79 89.29 201.81 C 85.71 196.69 82.83 190.95 78.14 186.72 C 75.95 184.54 74.14 182.02 72.04 179.77 C 70.34 181.82 68.98 184.13 68.12 186.66 C 70.81 189.76 74.26 192.06 77.20 194.89 C 78.10 198.63 77.53 202.69 76.51 206.36 C 75.28 210.53 70.13 211.23 66.62 209.69 C 68.92 209.35 71.19 208.87 73.48 208.43 C 75.00 204.88 76.89 200.96 75.93 197.03 C 73.93 193.28 69.74 191.49 66.77 188.63 C 66.59 184.68 68.38 181.17 70.25 177.84 C 67.38 178.28 64.51 178.80 61.69 179.55 C 58.80 180.00 56.25 181.55 55.17 184.37 C 55.24 182.64 55.09 180.71 56.36 179.33 C 60.95 178.10 65.55 176.45 70.35 176.44 C 73.19 173.07 77.92 171.97 82.11 171.57 C 85.34 171.25 87.03 174.34 89.05 176.28 Z" />
</g>
<g id="#627736ff">
<path fill="#627736" opacity="1.00" d=" M 56.99 126.89 C 85.70 118.02 116.12 115.40 146.03 117.26 C 157.23 118.93 168.59 119.71 179.61 122.49 C 195.12 125.22 209.87 130.88 224.46 136.65 C 231.21 139.26 237.23 143.90 244.45 145.07 C 244.63 145.15 244.99 145.32 245.16 145.40 C 244.17 150.53 244.33 156.05 241.70 160.73 C 240.20 163.31 239.48 166.22 238.85 169.12 C 238.06 173.73 234.36 177.10 233.33 181.63 C 232.70 184.26 231.61 186.77 229.65 188.69 C 226.28 191.89 226.96 197.35 223.35 200.39 C 218.07 205.19 214.70 211.70 209.14 216.22 C 198.49 225.31 187.07 234.07 173.54 238.35 C 167.89 239.96 162.95 243.24 157.57 245.47 C 154.22 245.71 150.76 245.12 147.55 246.45 C 140.93 248.63 133.90 248.63 127.03 248.22 C 117.95 247.62 108.85 247.84 99.76 247.71 C 97.59 243.15 92.24 245.38 88.54 243.57 C 79.21 239.84 69.82 236.08 61.26 230.77 C 57.23 228.58 52.85 226.72 49.79 223.17 C 46.72 219.56 42.94 216.68 39.34 213.65 C 28.94 204.53 18.24 194.03 14.98 180.09 C 13.70 174.33 10.12 169.53 7.77 164.22 C 6.42 161.27 7.30 157.93 6.38 154.89 C 5.51 151.78 4.47 148.73 3.58 145.62 C 4.03 145.43 4.93 145.06 5.38 144.87 C 9.80 145.65 13.27 142.50 17.16 141.08 C 30.19 135.71 43.09 129.66 56.99 126.89 M 94.07 126.09 C 92.57 126.44 90.71 127.83 91.47 129.57 C 92.91 134.60 93.53 139.79 93.58 145.01 C 94.53 148.27 95.52 151.65 94.55 155.05 C 89.68 147.96 86.18 139.95 80.67 133.33 C 80.10 133.26 78.94 133.13 78.37 133.06 C 78.23 132.90 77.96 132.58 77.83 132.42 C 77.91 131.23 77.96 129.24 76.22 129.43 C 72.46 128.95 68.77 130.27 65.21 131.31 C 63.97 131.56 63.27 132.68 62.83 133.76 C 59.89 139.98 61.00 147.06 59.50 153.63 C 59.55 158.40 56.91 164.37 61.00 168.14 C 64.06 168.80 67.11 167.08 69.89 165.93 C 72.14 165.09 72.68 162.50 73.74 160.61 C 75.40 160.27 77.05 159.75 78.75 159.70 C 80.83 160.31 82.57 162.31 84.88 161.88 C 88.71 161.16 93.60 162.46 95.75 158.31 C 99.89 160.04 104.73 160.21 109.01 159.02 C 111.20 156.74 110.54 153.06 110.32 150.14 C 114.38 148.66 119.19 151.61 122.73 148.94 C 122.44 146.61 122.53 144.26 122.99 141.95 C 122.07 140.75 121.15 139.55 120.22 138.36 C 121.49 137.12 123.71 136.20 123.41 134.06 C 123.19 131.39 122.58 128.76 122.63 126.08 C 121.43 125.31 120.28 124.42 118.92 123.94 C 110.70 125.42 102.19 123.87 94.07 126.09 M 134.59 132.41 C 133.31 135.97 130.57 138.74 129.27 142.30 C 127.29 147.36 123.77 152.15 124.18 157.83 C 127.80 158.26 131.57 159.17 135.19 158.20 C 137.46 157.59 138.31 154.34 140.97 154.80 C 144.26 154.47 146.12 157.72 148.50 159.40 L 148.33 158.57 C 149.49 158.85 150.65 159.11 151.81 159.34 C 152.55 160.49 153.31 161.63 154.07 162.76 C 156.22 161.86 158.40 161.03 160.60 160.27 C 161.48 161.47 162.13 163.18 163.91 163.14 C 166.84 163.52 169.72 164.71 172.66 164.60 C 174.29 163.32 174.50 160.70 175.97 159.13 C 177.29 160.81 178.43 162.61 179.45 164.49 C 179.29 164.88 178.98 165.65 178.83 166.03 C 180.77 170.68 186.05 169.87 189.94 171.32 C 193.49 174.00 197.89 174.92 202.07 176.20 C 205.19 176.25 206.08 172.71 204.60 170.38 C 207.73 162.30 212.17 154.83 215.88 147.01 C 213.23 145.76 210.66 143.68 207.61 143.83 C 207.44 141.98 202.15 141.04 202.91 143.63 C 201.97 146.09 201.17 148.60 200.32 151.10 C 201.02 149.29 199.55 148.06 198.49 146.87 C 197.93 142.56 195.50 138.47 191.75 136.20 C 186.17 132.57 179.33 132.24 173.02 130.78 C 170.66 129.98 167.46 131.38 167.19 134.04 C 165.80 141.11 164.51 148.21 162.33 155.09 C 161.99 156.25 161.20 157.19 160.55 158.18 C 159.76 152.03 158.09 146.04 157.13 139.91 C 156.55 135.45 154.87 131.18 152.78 127.23 C 149.62 125.32 145.58 124.83 141.93 124.95 C 137.91 125.27 135.98 129.14 134.59 132.41 M 35.17 142.64 L 35.40 143.31 L 34.60 143.47 C 32.70 147.27 30.69 151.62 32.00 155.93 C 34.26 159.54 39.30 160.07 41.33 163.84 C 42.38 166.77 41.29 169.90 40.46 172.74 C 43.96 172.70 47.46 172.36 50.91 171.70 C 53.09 168.08 54.60 163.64 53.44 159.44 C 51.24 155.59 46.56 153.98 44.44 150.07 C 44.09 148.16 44.86 146.34 45.60 144.63 L 45.25 144.35 C 46.13 143.08 46.99 141.81 47.85 140.53 C 43.51 140.28 39.37 141.84 35.17 142.64 M 89.05 176.28 C 87.03 174.34 85.34 171.25 82.11 171.57 C 77.92 171.97 73.19 173.07 70.35 176.44 C 65.55 176.45 60.95 178.10 56.36 179.33 C 55.09 180.71 55.24 182.64 55.17 184.37 C 54.19 187.14 53.36 190.10 53.72 193.07 C 55.41 197.19 60.76 197.38 63.35 200.67 C 65.35 203.46 63.70 206.87 63.15 209.86 C 64.31 209.83 65.46 209.78 66.62 209.69 C 70.13 211.23 75.28 210.53 76.51 206.36 C 77.53 202.69 78.10 198.63 77.20 194.89 C 74.26 192.06 70.81 189.76 68.12 186.66 C 68.98 184.13 70.34 181.82 72.04 179.77 C 74.14 182.02 75.95 184.54 78.14 186.72 C 82.83 190.95 85.71 196.69 89.29 201.81 C 91.59 202.79 94.71 203.62 96.81 201.77 C 99.89 199.65 99.06 195.35 100.21 192.20 C 100.76 192.29 101.87 192.47 102.42 192.56 C 102.73 193.94 103.05 195.32 103.36 196.70 C 106.06 198.25 109.14 201.61 112.37 199.27 C 116.67 197.36 116.12 191.90 116.98 188.03 C 117.70 181.21 121.56 174.69 120.74 167.81 C 120.16 168.89 119.64 169.99 119.18 171.12 C 119.33 170.23 119.62 168.45 119.76 167.56 C 115.91 167.67 111.83 166.99 108.15 168.33 C 107.48 169.80 107.50 171.48 107.23 173.06 C 107.11 172.25 106.85 170.63 106.72 169.82 C 106.20 171.23 105.70 172.65 105.19 174.07 C 103.82 172.33 102.82 170.33 101.35 168.68 C 99.02 167.85 96.47 167.52 94.01 167.78 C 90.71 169.29 90.27 173.28 89.05 176.28 M 124.13 197.39 C 127.32 197.49 130.52 197.78 133.71 197.56 C 134.65 196.59 135.18 195.32 135.88 194.19 C 139.20 194.47 142.49 194.88 145.78 195.36 C 146.28 196.75 146.25 198.47 147.28 199.61 C 150.54 200.83 154.00 201.51 157.46 201.85 C 157.44 195.46 156.10 189.20 154.98 182.94 C 154.03 178.49 153.27 173.93 151.32 169.79 C 147.17 169.40 143.07 168.62 138.92 168.27 C 133.41 177.63 127.09 186.83 124.13 197.39 M 163.63 191.61 C 162.56 195.33 160.82 198.88 160.20 202.72 C 163.35 204.20 166.62 205.42 169.93 206.47 C 170.50 203.50 171.48 200.60 173.14 198.05 C 177.79 199.38 183.13 201.62 187.67 198.76 C 192.73 195.40 192.24 187.71 188.11 183.83 C 183.08 178.80 175.84 177.35 169.58 174.45 C 167.21 180.03 165.66 185.91 163.63 191.61 Z" />
</g>
<g id="#f6eb18ff">
<path fill="#f6eb18" opacity="1.00" d=" M 210.20 118.06 C 210.26 120.19 209.81 122.27 209.42 124.35 C 209.78 124.54 210.50 124.93 210.86 125.12 C 219.93 129.13 228.78 133.63 237.33 138.67 C 239.01 139.69 240.50 140.99 241.96 142.30 L 239.98 142.33 C 226.99 135.62 213.40 130.15 199.46 125.76 C 200.85 125.45 202.24 125.12 203.63 124.78 C 202.67 123.56 201.71 122.34 200.75 121.12 C 201.61 121.44 202.47 121.76 203.33 122.07 C 203.80 122.23 204.74 122.55 205.21 122.71 C 207.11 121.43 208.67 119.74 210.20 118.06 Z" />
</g>
<g id="#6a7612ff">
<path fill="#6a7612" opacity="1.00" d=" M 94.07 126.09 C 102.19 123.87 110.70 125.42 118.92 123.94 C 120.28 124.42 121.43 125.31 122.63 126.08 C 122.58 128.76 123.19 131.39 123.41 134.06 C 123.71 136.20 121.49 137.12 120.22 138.36 C 121.15 139.55 122.07 140.75 122.99 141.95 C 122.53 144.26 122.44 146.61 122.73 148.94 C 119.19 151.61 114.38 148.66 110.32 150.14 C 110.54 153.06 111.20 156.74 109.01 159.02 C 104.73 160.21 99.89 160.04 95.75 158.31 C 93.60 162.46 88.71 161.16 84.88 161.88 C 82.57 162.31 80.83 160.31 78.75 159.70 C 77.05 159.75 75.40 160.27 73.74 160.61 C 72.68 162.50 72.14 165.09 69.89 165.93 C 67.11 167.08 64.06 168.80 61.00 168.14 C 56.91 164.37 59.55 158.40 59.50 153.63 C 61.00 147.06 59.89 139.98 62.83 133.76 C 63.27 132.68 63.97 131.56 65.21 131.31 C 68.77 130.27 72.46 128.95 76.22 129.43 C 77.96 129.24 77.91 131.23 77.83 132.42 C 77.39 131.96 76.50 131.02 76.06 130.55 C 72.15 131.49 68.25 132.46 64.36 133.48 C 62.40 144.48 60.50 155.57 60.47 166.77 C 63.86 165.93 67.20 164.94 70.49 163.78 C 70.51 162.43 70.53 161.09 70.55 159.75 C 73.94 158.74 77.36 157.84 80.83 157.11 C 81.80 158.27 82.63 159.59 83.88 160.49 C 87.34 160.20 90.74 159.42 94.16 158.90 C 89.93 149.71 84.28 141.24 78.37 133.06 C 78.94 133.13 80.10 133.26 80.67 133.33 C 86.18 139.95 89.68 147.96 94.55 155.05 C 95.52 151.65 94.53 148.27 93.58 145.01 C 93.53 139.79 92.91 134.60 91.47 129.57 C 90.71 127.83 92.57 126.44 94.07 126.09 M 93.42 127.65 C 93.44 131.82 94.68 135.84 95.20 139.95 C 96.14 145.86 96.36 151.84 97.16 157.76 C 101.00 157.88 104.85 157.74 108.69 157.51 C 108.37 154.52 107.96 151.55 107.52 148.59 C 111.86 147.89 116.25 148.21 120.61 148.47 C 120.52 145.45 120.31 142.41 119.41 139.50 C 115.04 139.91 110.64 139.97 106.25 139.75 C 106.32 138.31 106.31 136.86 106.31 135.42 C 111.46 134.27 116.67 135.34 121.83 135.82 C 121.82 135.19 121.81 133.92 121.80 133.29 L 121.57 133.31 C 121.42 131.04 121.26 128.77 121.10 126.50 C 111.86 125.64 102.63 127.09 93.42 127.65 Z" />
</g>
<g id="#6f7400ff">
<path fill="#6f7400" opacity="1.00" d=" M 134.59 132.41 C 135.98 129.14 137.91 125.27 141.93 124.95 C 145.58 124.83 149.62 125.32 152.78 127.23 C 154.87 131.18 156.55 135.45 157.13 139.91 C 158.09 146.04 159.76 152.03 160.55 158.18 C 161.20 157.19 161.99 156.25 162.33 155.09 C 164.51 148.21 165.80 141.11 167.19 134.04 C 167.46 131.38 170.66 129.98 173.02 130.78 C 179.33 132.24 186.17 132.57 191.75 136.20 C 195.50 138.47 197.93 142.56 198.49 146.87 C 197.99 150.54 195.94 154.41 191.71 154.29 C 198.06 151.56 197.61 142.58 192.69 138.64 C 187.03 134.62 179.99 133.92 173.35 132.80 C 171.89 132.56 170.43 132.33 168.98 132.11 C 166.99 141.74 165.22 151.44 162.21 160.82 C 165.57 161.72 168.93 162.60 172.30 163.47 C 173.30 160.33 174.43 157.22 175.90 154.25 C 177.70 157.05 179.13 160.09 179.93 163.34 L 179.45 164.49 C 178.43 162.61 177.29 160.81 175.97 159.13 C 174.50 160.70 174.29 163.32 172.66 164.60 C 169.72 164.71 166.84 163.52 163.91 163.14 C 162.13 163.18 161.48 161.47 160.60 160.27 C 158.40 161.03 156.22 161.86 154.07 162.76 C 153.31 161.63 152.55 160.49 151.81 159.34 C 153.94 159.71 156.08 160.00 158.23 160.23 L 158.77 160.29 C 159.76 158.35 159.00 156.18 158.43 154.25 C 156.94 146.39 155.34 138.53 152.93 130.89 C 152.39 129.63 152.18 127.71 150.41 127.76 C 146.80 126.92 143.04 126.32 139.36 127.06 C 135.31 134.12 131.45 141.32 128.08 148.73 C 126.77 151.34 125.68 154.04 124.86 156.84 C 128.21 157.10 131.56 157.36 134.91 157.35 L 135.38 156.55 C 135.98 155.45 136.54 154.34 137.12 153.23 C 140.58 153.60 144.03 154.00 147.49 154.42 C 147.77 155.80 148.05 157.19 148.33 158.57 L 148.50 159.40 C 146.12 157.72 144.26 154.47 140.97 154.80 C 138.31 154.34 137.46 157.59 135.19 158.20 C 131.57 159.17 127.80 158.26 124.18 157.83 C 123.77 152.15 127.29 147.36 129.27 142.30 C 130.57 138.74 133.31 135.97 134.59 132.41 Z" />
<path fill="#6f7400" opacity="1.00" d=" M 99.55 131.67 C 103.86 131.07 108.20 130.63 112.56 130.57 C 114.06 130.59 115.55 130.67 117.05 130.74 C 115.21 130.99 113.37 131.19 111.53 131.32 C 107.86 131.36 104.20 131.53 100.56 131.92 C 100.96 135.90 101.42 139.88 101.80 143.87 C 103.20 143.82 104.60 143.77 106.01 143.73 C 109.35 143.63 112.69 143.63 116.03 143.80 C 111.30 144.59 106.49 144.46 101.72 144.81 C 102.22 147.94 102.56 151.11 102.28 154.28 C 100.67 146.85 100.88 139.15 99.55 131.67 Z" />
<path fill="#6f7400" opacity="1.00" d=" M 143.01 131.98 C 143.95 130.51 145.90 131.66 147.27 131.63 C 149.63 139.75 152.92 147.74 153.83 156.20 C 153.27 154.65 152.76 153.09 152.28 151.53 C 146.27 150.06 140.03 149.75 133.87 149.47 C 133.07 150.69 132.26 151.91 131.30 153.02 C 134.63 145.72 138.54 138.65 143.01 131.98 M 143.00 133.97 C 140.08 138.69 137.06 143.40 135.00 148.58 C 140.58 149.22 146.21 149.50 151.74 150.56 C 150.22 144.29 148.70 137.94 146.07 132.03 C 144.59 131.04 143.76 133.09 143.00 133.97 Z" />
<path fill="#6f7400" opacity="1.00" d=" M 69.53 136.34 C 71.09 136.03 73.09 134.86 74.05 136.83 C 78.90 143.06 83.90 149.26 87.74 156.19 C 86.49 155.03 85.35 153.74 84.25 152.44 C 78.38 153.75 72.51 155.05 66.79 156.89 C 66.39 158.28 65.98 159.68 65.54 161.07 C 65.72 152.69 67.78 144.49 69.53 136.34 M 69.81 140.03 C 68.65 145.22 67.63 150.47 67.24 155.79 C 72.70 154.39 78.16 152.95 83.73 152.02 C 80.41 146.22 76.15 141.00 71.90 135.86 C 70.75 136.99 70.07 138.44 69.81 140.03 Z" />
<path fill="#6f7400" opacity="1.00" d=" M 173.73 136.08 C 178.60 136.40 183.47 137.46 187.79 139.82 C 190.21 141.89 192.13 145.46 190.36 148.54 C 188.61 151.90 184.53 152.33 181.19 152.73 C 182.41 156.53 183.83 160.28 184.78 164.17 C 182.87 160.46 181.60 156.47 180.20 152.54 C 177.17 151.77 174.11 151.10 171.04 150.57 C 170.44 153.56 169.69 156.55 168.36 159.32 C 169.33 151.40 172.25 143.89 173.73 136.08 M 174.92 137.19 C 173.73 141.47 171.97 145.65 171.65 150.13 C 176.63 150.72 181.86 152.83 186.77 150.95 C 190.74 149.12 190.86 143.11 187.27 140.82 C 185.21 139.79 183.21 138.11 180.73 138.57 L 181.19 137.89 C 179.09 137.68 177.00 137.45 174.92 137.19 Z" />
<path fill="#6f7400" opacity="1.00" d=" M 177.51 148.49 C 177.95 145.64 178.40 142.72 179.72 140.12 C 180.88 140.59 182.05 141.05 183.19 141.56 C 180.18 141.67 179.52 144.33 178.98 146.75 C 180.40 146.63 181.83 146.52 183.25 146.41 C 183.70 145.11 184.14 143.81 184.56 142.51 C 184.97 143.69 185.35 144.87 185.70 146.07 C 183.51 148.23 180.41 148.44 177.51 148.49 Z" />
<path fill="#6f7400" opacity="1.00" d=" M 37.45 151.57 C 37.42 149.34 38.35 147.18 39.84 145.54 C 39.59 147.78 39.13 149.99 38.60 152.18 C 41.05 155.76 45.14 157.67 47.77 161.05 C 49.52 163.21 48.48 166.00 47.50 168.24 C 47.49 166.48 47.57 164.72 47.43 162.98 C 45.63 157.90 38.65 157.01 37.45 151.57 Z" />
<path fill="#6f7400" opacity="1.00" d=" M 203.81 156.72 C 205.55 153.91 205.56 149.32 208.88 147.96 C 205.92 155.14 202.67 162.22 199.10 169.12 C 199.83 164.70 202.22 160.84 203.81 156.72 Z" />
<path fill="#6f7400" opacity="1.00" d=" M 113.53 170.81 C 112.89 178.36 110.69 185.70 109.34 193.16 C 105.13 187.63 102.46 180.79 96.95 176.36 C 95.76 182.88 94.41 189.38 93.56 195.96 C 90.81 192.21 87.98 188.53 85.28 184.74 C 83.48 182.12 80.87 179.98 79.93 176.85 C 85.05 181.72 88.00 188.39 93.07 193.28 C 93.93 186.77 95.02 180.29 96.74 173.95 C 102.05 178.45 103.91 185.75 108.95 190.36 C 110.10 183.77 111.23 177.11 113.53 170.81 Z" />
<path fill="#6f7400" opacity="1.00" d=" M 130.19 194.75 C 132.97 186.60 138.20 179.57 143.07 172.57 C 144.31 172.83 145.54 173.10 146.78 173.38 C 148.85 181.23 151.62 188.97 152.52 197.08 C 151.32 195.97 151.46 194.23 151.13 192.77 C 145.08 191.38 138.90 190.44 132.69 190.31 C 131.86 191.79 131.03 193.28 130.19 194.75 M 143.32 174.35 C 139.72 179.06 136.32 184.03 133.96 189.50 C 139.57 189.85 145.10 190.97 150.66 191.77 C 149.28 186.07 147.88 180.37 146.15 174.77 C 145.87 174.50 145.30 173.96 145.02 173.69 C 144.60 173.86 143.75 174.18 143.32 174.35 Z" />
<path fill="#6f7400" opacity="1.00" d=" M 173.14 179.58 C 177.65 181.45 183.07 182.72 185.81 187.15 C 187.76 190.05 186.77 195.03 183.06 195.92 C 178.19 197.47 173.70 193.82 168.92 193.38 C 168.07 196.13 167.39 199.04 165.49 201.29 C 167.74 193.95 170.68 186.85 173.14 179.58 M 173.51 181.49 C 171.96 185.05 170.63 188.75 169.96 192.58 C 174.08 194.12 178.46 196.30 182.96 195.03 C 185.87 194.22 185.88 190.38 185.38 187.96 C 183.61 184.77 180.15 183.10 176.94 181.73 C 175.90 181.59 174.30 180.39 173.51 181.49 Z" />
<path fill="#6f7400" opacity="1.00" d=" M 59.91 190.90 C 59.05 188.37 60.27 185.54 61.87 183.56 C 61.78 185.91 60.85 188.35 61.42 190.68 C 63.82 193.94 67.98 195.39 70.37 198.68 C 71.42 200.78 70.76 203.22 69.55 205.09 C 69.57 203.05 70.21 200.84 69.25 198.91 C 66.63 195.69 62.38 194.27 59.91 190.90 Z" />
</g>
<g id="#f6ec0eff">
<path fill="#f6ec0e" opacity="1.00" d=" M 93.42 127.65 C 102.63 127.09 111.86 125.64 121.10 126.50 C 121.26 128.77 121.42 131.04 121.57 133.31 C 118.07 133.93 114.45 133.47 111.53 131.32 C 113.37 131.19 115.21 130.99 117.05 130.74 C 115.55 130.67 114.06 130.59 112.56 130.57 C 111.50 129.55 110.79 127.66 109.02 127.76 C 103.83 127.39 98.62 127.88 93.42 127.65 Z" />
</g>
<g id="#f5ee14ff">
<path fill="#f5ee14" opacity="1.00" d=" M 128.08 148.73 C 131.45 141.32 135.31 134.12 139.36 127.06 C 142.96 128.09 146.71 128.11 150.41 127.76 C 152.18 127.71 152.39 129.63 152.93 130.89 C 155.34 138.53 156.94 146.39 158.43 154.25 C 157.97 156.19 157.27 158.32 158.23 160.23 C 156.08 160.00 153.94 159.71 151.81 159.34 C 150.65 159.11 149.49 158.85 148.33 158.57 C 148.05 157.19 147.77 155.80 147.49 154.42 C 144.03 154.00 140.58 153.60 137.12 153.23 C 136.54 154.34 135.98 155.45 135.38 156.55 C 132.47 156.53 129.57 156.21 126.74 155.50 C 127.20 153.25 127.61 150.99 128.08 148.73 M 143.01 131.98 C 138.54 138.65 134.63 145.72 131.30 153.02 C 132.26 151.91 133.07 150.69 133.87 149.47 C 140.03 149.75 146.27 150.06 152.28 151.53 C 152.76 153.09 153.27 154.65 153.83 156.20 C 152.92 147.74 149.63 139.75 147.27 131.63 C 145.90 131.66 143.95 130.51 143.01 131.98 Z" />
</g>
<g id="#d0d435ff">
<path fill="#d0d435" opacity="1.00" d=" M 139.36 127.06 C 143.04 126.32 146.80 126.92 150.41 127.76 C 146.71 128.11 142.96 128.09 139.36 127.06 Z" />
</g>
<g id="#f7ed15ff">
<path fill="#f7ed15" opacity="1.00" d=" M 93.42 127.65 C 98.62 127.88 103.83 127.39 109.02 127.76 C 110.79 127.66 111.50 129.55 112.56 130.57 C 108.20 130.63 103.86 131.07 99.55 131.67 C 100.88 139.15 100.67 146.85 102.28 154.28 C 102.56 151.11 102.22 147.94 101.72 144.81 C 106.49 144.46 111.30 144.59 116.03 143.80 C 112.69 143.63 109.35 143.63 106.01 143.73 C 106.07 142.74 106.19 140.75 106.25 139.75 C 110.64 139.97 115.04 139.91 119.41 139.50 C 120.31 142.41 120.52 145.45 120.61 148.47 C 116.25 148.21 111.86 147.89 107.52 148.59 C 107.96 151.55 108.37 154.52 108.69 157.51 C 104.85 157.74 101.00 157.88 97.16 157.76 C 96.36 151.84 96.14 145.86 95.20 139.95 C 94.68 135.84 93.44 131.82 93.42 127.65 Z" />
<path fill="#f7ed15" opacity="1.00" d=" M 64.36 133.48 C 68.25 132.46 72.15 131.49 76.06 130.55 C 76.50 131.02 77.39 131.96 77.83 132.42 C 77.96 132.58 78.23 132.90 78.37 133.06 C 84.28 141.24 89.93 149.71 94.16 158.90 C 90.74 159.42 87.34 160.20 83.88 160.49 C 82.63 159.59 81.80 158.27 80.83 157.11 C 77.36 157.84 73.94 158.74 70.55 159.75 C 70.53 161.09 70.51 162.43 70.49 163.78 C 67.20 164.94 63.86 165.93 60.47 166.77 C 60.50 155.57 62.40 144.48 64.36 133.48 M 69.53 136.34 C 67.78 144.49 65.72 152.69 65.54 161.07 C 65.98 159.68 66.39 158.28 66.79 156.89 C 72.51 155.05 78.38 153.75 84.25 152.44 C 85.35 153.74 86.49 155.03 87.74 156.19 C 83.90 149.26 78.90 143.06 74.05 136.83 C 73.09 134.86 71.09 136.03 69.53 136.34 Z" />
</g>
<g id="#f6f017ff">
<path fill="#f6f017" opacity="1.00" d=" M 100.56 131.92 C 104.20 131.53 107.86 131.36 111.53 131.32 C 114.45 133.47 118.07 133.93 121.57 133.31 L 121.80 133.29 C 121.81 133.92 121.82 135.19 121.83 135.82 C 116.67 135.34 111.46 134.27 106.31 135.42 C 106.31 136.86 106.32 138.31 106.25 139.75 C 106.19 140.75 106.07 142.74 106.01 143.73 C 104.60 143.77 103.20 143.82 101.80 143.87 C 101.42 139.88 100.96 135.90 100.56 131.92 Z" />
</g>
<g id="#f4ee17ff">
<path fill="#f4ee17" opacity="1.00" d=" M 143.00 133.97 C 143.76 133.09 144.59 131.04 146.07 132.03 C 148.70 137.94 150.22 144.29 151.74 150.56 C 146.21 149.50 140.58 149.22 135.00 148.58 C 137.06 143.40 140.08 138.69 143.00 133.97 M 143.47 140.97 C 142.49 142.73 141.52 144.51 140.59 146.30 C 142.51 146.89 144.48 147.30 146.48 147.53 C 145.89 145.24 146.32 141.78 143.47 140.97 Z" />
</g>
<g id="#f4ed15ff">
<path fill="#f4ed15" opacity="1.00" d=" M 168.98 132.11 C 170.43 132.33 171.89 132.56 173.35 132.80 C 173.49 133.89 173.62 134.98 173.73 136.08 C 172.25 143.89 169.33 151.40 168.36 159.32 C 169.69 156.55 170.44 153.56 171.04 150.57 C 174.11 151.10 177.17 151.77 180.20 152.54 C 181.60 156.47 182.87 160.46 184.78 164.17 C 183.83 160.28 182.41 156.53 181.19 152.73 C 184.53 152.33 188.61 151.90 190.36 148.54 C 192.13 145.46 190.21 141.89 187.79 139.82 C 189.42 139.43 191.05 139.03 192.69 138.64 C 197.61 142.58 198.06 151.56 191.71 154.29 C 190.10 154.76 188.52 155.29 186.94 155.83 C 188.05 160.20 189.49 164.51 190.03 169.00 C 186.25 168.23 181.07 167.85 179.93 163.34 C 179.13 160.09 177.70 157.05 175.90 154.25 C 174.43 157.22 173.30 160.33 172.30 163.47 C 168.93 162.60 165.57 161.72 162.21 160.82 C 165.22 151.44 166.99 141.74 168.98 132.11 Z" />
</g>
<g id="#f6f134ff">
<path fill="#f6f134" opacity="1.00" d=" M 173.35 132.80 C 179.99 133.92 187.03 134.62 192.69 138.64 C 191.05 139.03 189.42 139.43 187.79 139.82 C 183.47 137.46 178.60 136.40 173.73 136.08 C 173.62 134.98 173.49 133.89 173.35 132.80 Z" />
<path fill="#f6f134" opacity="1.00" d=" M 179.72 140.12 C 179.97 139.73 180.48 138.96 180.73 138.57 C 183.21 138.11 185.21 139.79 187.27 140.82 C 186.75 142.57 186.26 144.33 185.70 146.07 C 185.35 144.87 184.97 143.69 184.56 142.51 C 184.22 142.28 183.54 141.80 183.19 141.56 C 182.05 141.05 180.88 140.59 179.72 140.12 Z" />
<path fill="#f6f134" opacity="1.00" d=" M 35.17 142.64 C 39.37 141.84 43.51 140.28 47.85 140.53 C 46.99 141.81 46.13 143.08 45.25 144.35 C 42.82 141.05 38.70 142.87 35.40 143.31 L 35.17 142.64 Z" />
</g>
<g id="#f8ed15ff">
<path fill="#f8ed15" opacity="1.00" d=" M 69.81 140.03 C 70.07 138.44 70.75 136.99 71.90 135.86 C 76.15 141.00 80.41 146.22 83.73 152.02 C 78.16 152.95 72.70 154.39 67.24 155.79 C 67.63 150.47 68.65 145.22 69.81 140.03 M 71.86 151.89 C 73.77 151.61 75.68 151.33 77.58 151.01 C 76.91 148.68 75.40 146.81 73.76 145.09 C 72.27 147.05 72.07 149.52 71.86 151.89 Z" />
</g>
<g id="#f6ec18ff">
<path fill="#f6ec18" opacity="1.00" d=" M 174.92 137.19 C 177.00 137.45 179.09 137.68 181.19 137.89 L 180.73 138.57 C 180.48 138.96 179.97 139.73 179.72 140.12 C 178.40 142.72 177.95 145.64 177.51 148.49 C 180.41 148.44 183.51 148.23 185.70 146.07 C 186.26 144.33 186.75 142.57 187.27 140.82 C 190.86 143.11 190.74 149.12 186.77 150.95 C 181.86 152.83 176.63 150.72 171.65 150.13 C 171.97 145.65 173.73 141.47 174.92 137.19 Z" />
</g>
<g id="#717404ff">
<path fill="#717404" opacity="1.00" d=" M 143.47 140.97 C 146.32 141.78 145.89 145.24 146.48 147.53 C 144.48 147.30 142.51 146.89 140.59 146.30 C 141.52 144.51 142.49 142.73 143.47 140.97 Z" />
</g>
<g id="#f7ee11ff">
<path fill="#f7ee11" opacity="1.00" d=" M 35.40 143.31 C 38.70 142.87 42.82 141.05 45.25 144.35 L 45.60 144.63 C 44.86 146.34 44.09 148.16 44.44 150.07 C 46.56 153.98 51.24 155.59 53.44 159.44 C 54.60 163.64 53.09 168.08 50.91 171.70 C 47.46 172.36 43.96 172.70 40.46 172.74 C 41.29 169.90 42.38 166.77 41.33 163.84 C 39.30 160.07 34.26 159.54 32.00 155.93 C 30.69 151.62 32.70 147.27 34.60 143.47 L 35.40 143.31 M 37.45 151.57 C 38.65 157.01 45.63 157.90 47.43 162.98 C 47.57 164.72 47.49 166.48 47.50 168.24 C 48.48 166.00 49.52 163.21 47.77 161.05 C 45.14 157.67 41.05 155.76 38.60 152.18 C 39.13 149.99 39.59 147.78 39.84 145.54 C 38.35 147.18 37.42 149.34 37.45 151.57 Z" />
</g>
<g id="#687734ff">
<path fill="#687734" opacity="1.00" d=" M 178.98 146.75 C 179.52 144.33 180.18 141.67 183.19 141.56 C 183.54 141.80 184.22 142.28 184.56 142.51 C 184.14 143.81 183.70 145.11 183.25 146.41 C 181.83 146.52 180.40 146.63 178.98 146.75 Z" />
</g>
<g id="#dce33eff">
<path fill="#dce33e" opacity="1.00" d=" M 202.91 143.63 C 202.15 141.04 207.44 141.98 207.61 143.83 C 206.04 143.91 204.42 144.13 202.91 143.63 Z" />
</g>
<g id="#f7ed0eff">
<path fill="#f7ed0e" opacity="1.00" d=" M 200.32 151.10 C 201.17 148.60 201.97 146.09 202.91 143.63 C 204.42 144.13 206.04 143.91 207.61 143.83 C 210.66 143.68 213.23 145.76 215.88 147.01 C 212.17 154.83 207.73 162.30 204.60 170.38 C 203.92 171.80 203.19 173.19 202.45 174.58 C 198.99 173.30 195.55 171.95 192.20 170.39 C 194.70 163.87 198.10 157.73 200.32 151.10 M 203.81 156.72 C 202.22 160.84 199.83 164.70 199.10 169.12 C 202.67 162.22 205.92 155.14 208.88 147.96 C 205.56 149.32 205.55 153.91 203.81 156.72 Z" />
</g>
<g id="#6d7716ff">
<path fill="#6d7716" opacity="1.00" d=" M 71.86 151.89 C 72.07 149.52 72.27 147.05 73.76 145.09 C 75.40 146.81 76.91 148.68 77.58 151.01 C 75.68 151.33 73.77 151.61 71.86 151.89 Z" />
</g>
<g id="#69762eff">
<path fill="#69762e" opacity="1.00" d=" M 198.49 146.87 C 199.55 148.06 201.02 149.29 200.32 151.10 C 198.10 157.73 194.70 163.87 192.20 170.39 C 195.55 171.95 198.99 173.30 202.45 174.58 C 203.19 173.19 203.92 171.80 204.60 170.38 C 206.08 172.71 205.19 176.25 202.07 176.20 C 197.89 174.92 193.49 174.00 189.94 171.32 C 186.05 169.87 180.77 170.68 178.83 166.03 C 178.98 165.65 179.29 164.88 179.45 164.49 L 179.93 163.34 C 181.07 167.85 186.25 168.23 190.03 169.00 C 189.49 164.51 188.05 160.20 186.94 155.83 C 188.52 155.29 190.10 154.76 191.71 154.29 C 195.94 154.41 197.99 150.54 198.49 146.87 Z" />
</g>
<g id="#d7d731ff">
<path fill="#d7d731" opacity="1.00" d=" M 124.86 156.84 C 125.68 154.04 126.77 151.34 128.08 148.73 C 127.61 150.99 127.20 153.25 126.74 155.50 C 129.57 156.21 132.47 156.53 135.38 156.55 L 134.91 157.35 C 131.56 157.36 128.21 157.10 124.86 156.84 Z" />
</g>
<g id="#cdd13aff">
<path fill="#cdd13a" opacity="1.00" d=" M 158.43 154.25 C 159.00 156.18 159.76 158.35 158.77 160.29 L 158.23 160.23 C 157.27 158.32 157.97 156.19 158.43 154.25 Z" />
</g>
<g id="#f6ed17ff">
<path fill="#f6ed17" opacity="1.00" d=" M 108.15 168.33 C 111.83 166.99 115.91 167.67 119.76 167.56 C 119.62 168.45 119.33 170.23 119.18 171.12 C 117.08 179.82 114.69 188.47 113.21 197.30 C 111.37 197.66 109.52 198.02 107.68 198.40 C 104.67 194.42 102.51 189.90 99.80 185.73 C 98.32 190.35 97.77 195.19 97.21 199.99 C 95.19 200.45 93.17 200.91 91.15 201.36 C 85.71 192.40 78.92 184.38 71.87 176.67 C 74.59 175.49 77.36 174.41 80.13 173.35 C 81.66 174.22 83.42 174.66 85.18 174.44 C 86.62 177.12 88.21 179.72 89.94 182.23 C 90.97 178.36 91.84 174.45 92.62 170.53 C 94.93 170.00 97.26 169.54 99.61 169.19 C 101.77 172.56 103.87 175.99 106.31 179.17 C 106.67 177.14 107.01 175.11 107.23 173.06 C 107.50 171.48 107.48 169.80 108.15 168.33 M 113.53 170.81 C 111.23 177.11 110.10 183.77 108.95 190.36 C 103.91 185.75 102.05 178.45 96.74 173.95 C 95.02 180.29 93.93 186.77 93.07 193.28 C 88.00 188.39 85.05 181.72 79.93 176.85 C 80.87 179.98 83.48 182.12 85.28 184.74 C 87.98 188.53 90.81 192.21 93.56 195.96 C 94.41 189.38 95.76 182.88 96.95 176.36 C 102.46 180.79 105.13 187.63 109.34 193.16 C 110.69 185.70 112.89 178.36 113.53 170.81 Z" />
</g>
<g id="#f5ed1aff">
<path fill="#f5ed1a" opacity="1.00" d=" M 124.13 197.39 C 127.09 186.83 133.41 177.63 138.92 168.27 C 143.07 168.62 147.17 169.40 151.32 169.79 C 153.27 173.93 154.03 178.49 154.98 182.94 C 156.10 189.20 157.44 195.46 157.46 201.85 C 154.00 201.51 150.54 200.83 147.28 199.61 C 146.25 198.47 146.28 196.75 145.78 195.36 C 142.49 194.88 139.20 194.47 135.88 194.19 C 135.18 195.32 134.65 196.59 133.71 197.56 C 130.52 197.78 127.32 197.49 124.13 197.39 M 130.19 194.75 C 131.03 193.28 131.86 191.79 132.69 190.31 C 138.90 190.44 145.08 191.38 151.13 192.77 C 151.46 194.23 151.32 195.97 152.52 197.08 C 151.62 188.97 148.85 181.23 146.78 173.38 C 145.54 173.10 144.31 172.83 143.07 172.57 C 138.20 179.57 132.97 186.60 130.19 194.75 Z" />
</g>
<g id="#d3d63bff">
<path fill="#d3d63b" opacity="1.00" d=" M 80.13 173.35 C 81.83 172.32 84.50 172.10 85.18 174.44 C 83.42 174.66 81.66 174.22 80.13 173.35 Z" />
</g>
<g id="#f6eb1dff">
<path fill="#f6eb1d" opacity="1.00" d=" M 143.32 174.35 C 143.75 174.18 144.60 173.86 145.02 173.69 C 145.30 173.96 145.87 174.50 146.15 174.77 C 147.88 180.37 149.28 186.07 150.66 191.77 C 145.10 190.97 139.57 189.85 133.96 189.50 C 136.32 184.03 139.72 179.06 143.32 174.35 M 139.80 187.75 C 141.70 188.07 143.62 188.35 145.54 188.55 C 145.23 186.24 144.56 184.02 143.54 181.93 C 141.76 183.48 140.32 185.40 139.80 187.75 Z" />
</g>
<g id="#f4ee18ff">
<path fill="#f4ee18" opacity="1.00" d=" M 163.63 191.61 C 165.66 185.91 167.21 180.03 169.58 174.45 C 175.84 177.35 183.08 178.80 188.11 183.83 C 192.24 187.71 192.73 195.40 187.67 198.76 C 183.13 201.62 177.79 199.38 173.14 198.05 C 171.48 200.60 170.50 203.50 169.93 206.47 C 166.62 205.42 163.35 204.20 160.20 202.72 C 160.82 198.88 162.56 195.33 163.63 191.61 M 173.14 179.58 C 170.68 186.85 167.74 193.95 165.49 201.29 C 167.39 199.04 168.07 196.13 168.92 193.38 C 173.70 193.82 178.19 197.47 183.06 195.92 C 186.77 195.03 187.76 190.05 185.81 187.15 C 183.07 182.72 177.65 181.45 173.14 179.58 Z" />
</g>
<g id="#cdd038ff">
<path fill="#cdd038" opacity="1.00" d=" M 61.69 179.55 C 64.51 178.80 67.38 178.28 70.25 177.84 C 68.38 181.17 66.59 184.68 66.77 188.63 C 66.59 188.44 66.25 188.06 66.08 187.87 C 66.33 185.33 66.83 182.82 66.85 180.27 C 65.16 179.88 63.42 179.69 61.69 179.55 Z" />
</g>
<g id="#f7ed12ff">
<path fill="#f7ed12" opacity="1.00" d=" M 55.17 184.37 C 56.25 181.55 58.80 180.00 61.69 179.55 C 63.42 179.69 65.16 179.88 66.85 180.27 C 66.83 182.82 66.33 185.33 66.08 187.87 C 66.25 188.06 66.59 188.44 66.77 188.63 C 69.74 191.49 73.93 193.28 75.93 197.03 C 76.89 200.96 75.00 204.88 73.48 208.43 C 71.19 208.87 68.92 209.35 66.62 209.69 C 65.46 209.78 64.31 209.83 63.15 209.86 C 63.70 206.87 65.35 203.46 63.35 200.67 C 60.76 197.38 55.41 197.19 53.72 193.07 C 53.36 190.10 54.19 187.14 55.17 184.37 M 59.91 190.90 C 62.38 194.27 66.63 195.69 69.25 198.91 C 70.21 200.84 69.57 203.05 69.55 205.09 C 70.76 203.22 71.42 200.78 70.37 198.68 C 67.98 195.39 63.82 193.94 61.42 190.68 C 60.85 188.35 61.78 185.91 61.87 183.56 C 60.27 185.54 59.05 188.37 59.91 190.90 Z" />
</g>
<g id="#f6ed19ff">
<path fill="#f6ed19" opacity="1.00" d=" M 173.51 181.49 C 174.30 180.39 175.90 181.59 176.94 181.73 C 180.15 183.10 183.61 184.77 185.38 187.96 C 185.88 190.38 185.87 194.22 182.96 195.03 C 178.46 196.30 174.08 194.12 169.96 192.58 C 170.63 188.75 171.96 185.05 173.51 181.49 M 175.77 191.12 C 177.62 192.04 181.28 192.71 181.70 189.89 C 181.81 187.54 179.19 186.43 177.86 184.91 C 176.76 186.73 174.94 188.86 175.77 191.12 Z" />
</g>
<g id="#6a7c10ff">
<path fill="#6a7c10" opacity="1.00" d=" M 139.80 187.75 C 140.32 185.40 141.76 183.48 143.54 181.93 C 144.56 184.02 145.23 186.24 145.54 188.55 C 143.62 188.35 141.70 188.07 139.80 187.75 Z" />
</g>
<g id="#70781bff">
<path fill="#70781b" opacity="1.00" d=" M 175.77 191.12 C 174.94 188.86 176.76 186.73 177.86 184.91 C 179.19 186.43 181.81 187.54 181.70 189.89 C 181.28 192.71 177.62 192.04 175.77 191.12 Z" />
</g>
<g id="#1a2217ff">
<path fill="#1a2217" opacity="1.00" d=" M 127.03 248.22 C 133.90 248.63 140.93 248.63 147.55 246.45 C 147.31 248.02 146.19 249.11 144.96 250.00 L 100.31 250.00 C 100.18 249.43 99.90 248.29 99.76 247.71 C 108.85 247.84 117.95 247.62 127.03 248.22 Z" />
</g>
</svg>
