<svg id="Layer_1" data-name="Layer 1" xmlns="http://www.w3.org/2000/svg" viewBox="0 0 250.28 250"><path d="M200.42,12.78l-52.23,77.5c-3.61,5.28,3.34,11.66,8.34,7.22l51.39-44.72a2,2,0,0,1,3.33,1.66V194.17a2.08,2.08,0,0,1-3.61,1.39L52.08,9.44A25.69,25.69,0,0,0,31.81,0H26.25A26.62,26.62,0,0,0-.14,26.67V223.33a26.68,26.68,0,0,0,49.45,13.89l52.22-77.5c3.61-5.28-3.34-11.66-8.34-7.22L41.81,196.94a2,2,0,0,1-3.34-1.66V55.83a2.08,2.08,0,0,1,3.61-1.39L197.64,240.56A26.11,26.11,0,0,0,217.92,250h5.55a26.68,26.68,0,0,0,26.67-26.67V26.67a26.85,26.85,0,0,0-49.72-13.89Z" transform="translate(0.14)"/></svg>