<svg id="Layer_1" data-name="Layer 1" xmlns="http://www.w3.org/2000/svg" viewBox="0 0 250 250"><defs><style>.cls-1{fill:#50479e;}.cls-2{fill:#fff;}</style></defs><circle class="cls-1" cx="125" cy="125" r="125"/><path class="cls-2" d="M159.06,106.72v37.37l-33.65,18.5V125.23l33.64-18.5Zm40.16-9.58v55.71a21.43,21.43,0,0,1-3.15,11.2,23,23,0,0,1-8.62,8.22l-25.1,13.79V149.3l3.17-1.75V103.19l30.74-16.9a21.61,21.61,0,0,1,3,10.86ZM62.55,172.27a22.85,22.85,0,0,1-8.39-7.86,21.61,21.61,0,0,1-3.38-11.55V117.19l34.56,27v1.5l.06,1.55,2.69,1.58,34.5,19,2.84,1.56v33.78a24.36,24.36,0,0,1-12.2-3L62.55,172.27ZM61.12,78.59l36.54-20L122.5,82.66,85.34,103.15v3.12L50.86,125.21l-.08-28.08A21.36,21.36,0,0,1,54,85.91a22.79,22.79,0,0,1,7.17-7.32Zm126.33-.86a23,23,0,0,1,8.81,8.55l-30.74,16.9v-.28l-3.17-1.74L128.49,82.55l33.86-18.62ZM50.86,125.23l34.48-19v37.91l-34.48-19Zm74.57-44.14V46.88a24.31,24.31,0,0,1,11.34,3l25.58,14.06L128.49,82.54Zm-2.84,1.57L88.15,63.73l26.58-14.61a24.38,24.38,0,0,1,10.7-2.24V81.09Zm3.06,86.8,2.84-1.56L162,186.29l-25.18,13.84a24.43,24.43,0,0,1-11.34,3V169.34Zm36.7-20.17v36.77l-.4.23L128.49,167.9Z"/></svg>