<?xml version="1.0" encoding="UTF-8" ?>
<!DOCTYPE svg PUBLIC "-//W3C//DTD SVG 1.1//EN" "http://www.w3.org/Graphics/SVG/1.1/DTD/svg11.dtd">
<svg width="250pt" height="234pt" viewBox="0 0 250 234" version="1.1" xmlns="http://www.w3.org/2000/svg">
<g id="#fefdfeff">
<path fill="#fefdfe" opacity="1.00" d=" M 0.00 0.00 L 250.00 0.00 L 250.00 234.00 L 0.00 234.00 L 0.00 0.00 M 77.05 15.00 C 66.31 19.39 55.23 26.19 48.17 35.19 C 36.05 45.30 25.99 60.56 22.27 76.14 C 18.75 80.55 17.90 90.38 16.98 96.98 C 14.42 101.53 15.81 114.55 17.09 118.99 C 17.60 121.86 17.83 124.76 18.35 127.64 C 16.97 129.59 16.11 130.30 14.87 127.93 C 10.79 112.79 13.88 97.10 14.93 81.77 C 2.23 123.99 21.98 173.78 58.83 197.84 C 64.99 202.29 72.58 207.22 80.06 208.63 C 88.59 213.54 99.29 214.76 108.98 216.00 C 113.54 218.64 126.39 217.07 131.01 216.02 C 134.13 215.94 137.39 216.08 140.24 214.60 C 149.14 213.47 159.53 210.70 166.74 206.17 C 185.73 197.98 203.39 184.79 214.68 167.56 C 224.50 153.26 231.46 136.44 232.98 119.03 C 235.80 114.03 233.94 101.01 233.03 96.00 C 233.24 91.82 231.95 87.77 230.76 83.81 C 228.10 72.35 224.66 59.72 216.90 50.89 C 220.73 59.53 225.31 67.92 227.85 77.09 C 227.44 78.84 227.78 82.44 225.18 82.02 C 226.09 78.89 225.32 76.88 222.86 76.01 C 221.11 71.32 219.87 65.90 217.11 61.91 C 217.01 60.85 216.60 59.94 215.86 59.19 C 212.94 48.47 207.91 36.39 196.81 32.14 C 191.62 27.77 185.39 24.35 178.38 24.60 C 172.60 19.08 165.35 14.74 157.22 14.21 C 154.13 15.12 159.87 17.84 156.40 18.43 C 154.28 18.82 155.55 20.73 155.76 22.10 C 147.09 18.87 136.75 15.59 128.06 20.17 C 127.81 23.02 131.97 23.10 133.99 24.01 C 148.97 26.58 163.30 32.13 176.11 40.01 C 178.14 42.26 181.02 44.14 181.87 46.97 C 182.24 47.44 183.00 48.38 183.37 48.85 C 181.49 54.96 176.21 45.69 173.10 45.32 C 169.46 41.96 164.68 38.32 159.88 37.18 C 156.19 35.61 152.66 33.68 148.99 32.09 C 144.70 28.98 135.75 27.65 130.73 30.76 C 127.49 32.60 130.99 33.85 132.90 34.85 C 138.39 38.08 144.81 39.42 151.11 39.87 C 151.86 43.33 165.98 38.48 164.21 45.08 C 161.18 44.85 158.09 44.98 155.07 45.05 C 153.76 46.44 157.69 51.53 153.93 51.31 C 153.38 50.98 152.28 50.32 151.73 49.99 C 151.81 48.22 148.71 48.45 147.84 49.46 L 147.10 48.60 C 145.40 47.25 143.27 46.76 141.13 46.99 C 139.74 49.79 137.28 47.72 134.90 47.07 C 134.46 44.34 123.08 45.85 123.28 47.08 C 120.64 48.02 119.61 50.54 119.08 53.06 L 118.30 53.32 C 115.14 54.59 112.04 52.97 108.84 52.95 C 110.86 55.01 113.92 56.34 116.86 56.01 C 117.30 57.60 119.23 58.06 120.44 58.95 C 118.34 61.02 115.76 61.10 113.14 60.12 C 110.28 63.39 103.87 62.15 101.02 64.97 C 104.02 65.28 108.71 63.49 108.27 67.91 C 107.37 71.63 118.02 68.21 119.14 70.07 C 118.19 70.34 115.64 73.49 117.62 72.84 C 119.32 75.47 122.44 74.88 124.96 74.06 C 131.83 76.97 136.94 82.77 142.01 87.86 C 147.42 99.14 152.66 110.96 153.16 123.84 C 152.95 125.68 152.83 127.53 152.78 129.38 C 151.21 129.55 151.65 132.58 151.01 133.90 C 146.94 145.46 137.42 154.65 128.04 162.16 C 126.81 162.53 125.60 163.15 124.76 164.15 C 123.31 163.17 120.12 164.35 120.46 166.25 C 112.57 166.38 104.63 167.46 96.64 167.44 C 94.41 166.73 92.14 166.09 89.82 165.79 C 83.51 162.67 75.57 158.42 70.00 152.97 C 63.15 145.61 58.91 136.40 55.56 127.00 C 56.62 126.14 56.81 123.04 55.00 123.18 C 55.18 121.73 55.04 120.33 54.56 118.98 C 55.65 118.13 55.79 115.00 53.96 115.17 C 54.15 111.73 54.09 108.26 53.98 104.82 C 55.80 104.99 55.65 101.86 54.56 101.01 C 54.67 100.22 54.89 98.63 55.00 97.83 C 56.81 97.95 56.61 94.86 55.55 94.00 C 57.85 88.78 59.96 83.43 61.12 77.83 C 61.41 77.38 62.00 76.49 62.29 76.04 C 65.01 69.84 71.15 65.60 72.86 58.99 C 76.24 57.40 75.98 50.80 73.02 55.97 L 72.22 56.39 C 71.56 56.03 70.24 55.30 69.58 54.93 C 72.10 52.27 74.96 49.91 77.20 47.00 C 80.40 45.01 83.64 42.87 86.26 40.15 C 89.12 38.99 91.40 37.28 93.10 35.03 C 90.65 34.54 87.55 35.68 86.39 37.75 C 82.64 40.03 79.18 42.81 75.99 45.81 C 72.75 48.38 69.98 51.50 67.01 54.36 C 66.69 53.67 66.05 52.29 65.73 51.60 C 67.46 52.26 69.74 49.82 68.83 48.14 C 71.06 46.82 72.91 44.88 74.28 42.69 C 85.15 34.89 96.86 27.52 110.20 24.58 C 115.47 24.67 120.71 24.16 125.97 23.90 C 127.09 18.73 118.44 25.58 117.79 21.25 C 118.10 17.65 108.90 21.13 106.62 20.55 C 95.17 20.80 85.24 29.16 74.71 30.24 C 75.33 29.79 76.58 28.88 77.21 28.42 C 82.39 25.74 91.16 25.02 93.05 18.95 C 86.29 20.41 79.22 23.25 73.40 26.68 C 65.73 30.03 59.47 35.73 53.78 41.74 C 50.92 40.46 48.78 43.08 48.46 45.75 C 45.52 48.54 44.37 47.82 44.81 43.78 C 45.10 43.47 45.68 42.84 45.97 42.53 C 47.92 39.58 56.25 35.84 53.93 31.05 C 61.04 25.23 68.85 20.37 76.84 15.87 C 86.94 12.47 97.08 7.59 107.98 7.87 C 99.06 5.36 85.56 9.89 77.05 15.00 Z" />
</g>
<g id="#d38ec5ff">
<path fill="#d38ec5" opacity="1.00" d=" M 77.05 15.00 C 85.56 9.89 99.06 5.36 107.98 7.87 C 97.08 7.59 86.94 12.47 76.84 15.87 L 77.05 15.00 Z" />
</g>
<g id="#c261c7ff">
<path fill="#c261c7" opacity="1.00" d=" M 157.22 14.21 C 165.35 14.74 172.60 19.08 178.38 24.60 C 185.39 24.35 191.62 27.77 196.81 32.14 C 207.91 36.39 212.94 48.47 215.86 59.19 C 212.58 55.76 209.41 52.22 206.03 48.89 C 205.43 48.07 204.84 47.25 204.23 46.44 C 203.33 45.16 202.33 43.95 201.29 42.77 C 197.24 35.50 189.85 32.01 182.80 28.45 C 179.03 26.22 173.32 27.46 171.55 31.59 C 168.61 30.50 165.84 29.00 162.89 27.94 C 165.63 33.05 175.17 32.58 176.11 40.01 C 163.30 32.13 148.97 26.58 133.99 24.01 C 131.97 23.10 127.81 23.02 128.06 20.17 C 136.75 15.59 147.09 18.87 155.76 22.10 C 155.55 20.73 154.28 18.82 156.40 18.43 C 159.87 17.84 154.13 15.12 157.22 14.21 Z" />
</g>
<g id="#a19cd4ff">
<path fill="#a19cd4" opacity="1.00" d=" M 48.17 35.19 C 55.23 26.19 66.31 19.39 77.05 15.00 L 76.84 15.87 C 68.85 20.37 61.04 25.23 53.93 31.05 C 52.25 32.31 50.70 33.73 49.10 35.09 L 48.17 35.19 Z" />
</g>
<g id="#e5cae7ff">
<path fill="#e5cae7" opacity="1.00" d=" M 73.40 26.68 C 79.22 23.25 86.29 20.41 93.05 18.95 C 91.16 25.02 82.39 25.74 77.21 28.42 C 73.14 28.83 69.49 31.53 73.40 26.68 Z" />
</g>
<g id="#ddcee9ff">
<path fill="#ddcee9" opacity="1.00" d=" M 106.62 20.55 C 108.90 21.13 118.10 17.65 117.79 21.25 C 90.48 21.64 63.68 36.10 48.40 58.75 C 45.81 58.27 45.12 62.21 42.89 63.16 C 43.92 59.47 46.47 56.46 48.29 53.15 C 56.39 44.72 63.89 35.44 74.71 30.24 C 85.24 29.16 95.17 20.80 106.62 20.55 Z" />
</g>
<g id="#eef1faff">
<path fill="#eef1fa" opacity="1.00" d=" M 48.40 58.75 C 63.68 36.10 90.48 21.64 117.79 21.25 C 118.44 25.58 127.09 18.73 125.97 23.90 C 120.71 24.16 115.47 24.67 110.20 24.58 C 96.02 24.71 82.78 33.29 72.12 42.05 C 68.86 45.47 65.60 48.89 62.33 52.30 C 61.04 50.84 58.65 47.67 57.90 52.92 C 50.16 63.18 43.78 74.99 42.84 88.04 C 41.19 95.32 40.93 102.79 40.84 110.23 C 40.31 108.67 39.79 107.12 39.17 105.61 C 38.29 115.03 40.75 124.38 43.81 133.22 C 46.57 140.15 49.55 147.07 53.97 153.13 C 56.58 158.54 60.35 163.15 64.97 166.94 C 68.30 170.87 71.89 174.58 75.74 178.00 C 75.62 178.34 75.36 179.02 75.23 179.36 C 72.79 177.85 70.37 176.28 68.05 174.59 C 65.05 171.90 61.93 169.35 59.06 166.53 C 56.15 162.64 53.05 158.90 50.23 154.94 C 47.29 150.31 44.19 145.75 42.03 140.68 C 41.68 139.78 41.32 138.89 40.95 138.00 C 40.75 135.92 40.28 133.85 39.18 132.06 C 38.38 130.11 37.71 128.11 36.93 126.15 C 37.01 123.57 36.34 121.08 35.03 118.87 L 34.79 118.12 C 32.96 102.77 33.62 86.95 40.47 72.83 C 42.89 68.01 45.30 63.18 48.40 58.75 Z" />
</g>
<g id="#b090d9ff">
<path fill="#b090d9" opacity="1.00" d=" M 72.12 42.05 C 82.78 33.29 96.02 24.71 110.20 24.58 C 96.86 27.52 85.15 34.89 74.28 42.69 C 73.74 42.53 72.66 42.21 72.12 42.05 Z" />
</g>
<g id="#b8b6e4ff">
<path fill="#b8b6e4" opacity="1.00" d=" M 53.78 41.74 C 59.47 35.73 65.73 30.03 73.40 26.68 C 69.49 31.53 73.14 28.83 77.21 28.42 C 76.58 28.88 75.33 29.79 74.71 30.24 C 63.89 35.44 56.39 44.72 48.29 53.15 C 47.97 52.00 47.64 50.86 47.30 49.72 C 47.74 48.41 48.15 47.09 48.46 45.75 C 48.78 43.08 50.92 40.46 53.78 41.74 Z" />
</g>
<g id="#7b1879ff">
<path fill="#7b1879" opacity="1.00" d=" M 171.55 31.59 C 173.32 27.46 179.03 26.22 182.80 28.45 C 189.85 32.01 197.24 35.50 201.29 42.77 C 198.44 40.86 195.66 38.86 192.76 37.04 C 196.63 41.82 200.98 46.01 201.58 52.29 C 204.73 57.50 206.48 63.32 207.97 69.17 C 199.24 61.55 196.08 43.96 182.20 44.13 C 182.12 44.84 181.95 46.26 181.87 46.97 C 181.02 44.14 178.14 42.26 176.11 40.01 C 175.17 32.58 165.63 33.05 162.89 27.94 C 165.84 29.00 168.61 30.50 171.55 31.59 Z" />
</g>
<g id="#c264c7ff">
<path fill="#c264c7" opacity="1.00" d=" M 130.73 30.76 C 135.75 27.65 144.70 28.98 148.99 32.09 C 143.60 32.21 135.57 28.00 132.90 34.85 C 130.99 33.85 127.49 32.60 130.73 30.76 Z" />
</g>
<g id="#dae5f6ff">
<path fill="#dae5f6" opacity="1.00" d=" M 49.10 35.09 C 50.70 33.73 52.25 32.31 53.93 31.05 C 56.25 35.84 47.92 39.58 45.97 42.53 C 45.19 42.00 44.42 41.47 43.65 40.93 C 45.44 38.96 47.27 37.03 49.10 35.09 Z" />
</g>
<g id="#691f6dff">
<path fill="#691f6d" opacity="1.00" d=" M 132.90 34.85 C 135.57 28.00 143.60 32.21 148.99 32.09 C 152.66 33.68 156.19 35.61 159.88 37.18 C 160.39 42.13 154.29 39.51 151.11 39.87 C 144.81 39.42 138.39 38.08 132.90 34.85 Z" />
</g>
<g id="#72b1e9ff">
<path fill="#72b1e9" opacity="1.00" d=" M 22.27 76.14 C 25.99 60.56 36.05 45.30 48.17 35.19 L 49.10 35.09 C 47.27 37.03 45.44 38.96 43.65 40.93 C 34.47 51.13 28.02 63.49 23.30 76.30 L 22.27 76.14 Z" />
</g>
<g id="#c7adccff">
<path fill="#c7adcc" opacity="1.00" d=" M 86.39 37.75 C 87.55 35.68 90.65 34.54 93.10 35.03 C 91.40 37.28 89.12 38.99 86.26 40.15 C 86.31 39.35 86.36 38.55 86.39 37.75 Z" />
</g>
<g id="#bc94bcff">
<path fill="#bc94bc" opacity="1.00" d=" M 159.88 37.18 C 164.68 38.32 169.46 41.96 173.10 45.32 C 170.14 45.37 167.17 45.15 164.21 45.08 C 165.98 38.48 151.86 43.33 151.11 39.87 C 154.29 39.51 160.39 42.13 159.88 37.18 Z" />
</g>
<g id="#5a0e5dff">
<path fill="#5a0e5d" opacity="1.00" d=" M 192.76 37.04 C 195.66 38.86 198.44 40.86 201.29 42.77 C 202.33 43.95 203.33 45.16 204.23 46.44 C 201.31 46.82 202.12 50.20 201.58 52.29 C 200.98 46.01 196.63 41.82 192.76 37.04 Z" />
</g>
<g id="#9872a6ff">
<path fill="#9872a6" opacity="1.00" d=" M 75.99 45.81 C 79.18 42.81 82.64 40.03 86.39 37.75 C 86.36 38.55 86.31 39.35 86.26 40.15 C 83.64 42.87 80.40 45.01 77.20 47.00 C 76.89 46.70 76.29 46.11 75.99 45.81 Z" />
</g>
<g id="#9fcdf3ff">
<path fill="#9fcdf3" opacity="1.00" d=" M 23.30 76.30 C 28.02 63.49 34.47 51.13 43.65 40.93 C 44.42 41.47 45.19 42.00 45.97 42.53 C 45.68 42.84 45.10 43.47 44.81 43.78 C 40.95 48.00 38.25 53.14 35.17 57.92 C 41.37 61.41 41.68 51.01 47.30 49.72 C 47.64 50.86 47.97 52.00 48.29 53.15 C 46.47 56.46 43.92 59.47 42.89 63.16 C 45.12 62.21 45.81 58.27 48.40 58.75 C 45.30 63.18 42.89 68.01 40.47 72.83 C 34.67 75.30 41.25 67.30 41.32 64.15 C 39.01 67.15 36.26 62.51 35.95 67.44 C 33.41 72.14 31.46 77.13 29.77 82.19 C 28.52 80.03 30.64 72.59 26.17 73.01 C 24.67 75.70 24.20 78.81 23.43 81.76 C 22.94 83.90 22.43 86.04 21.94 88.18 C 21.61 87.82 20.94 87.09 20.60 86.72 C 21.11 83.15 22.48 79.80 23.30 76.30 Z" />
</g>
<g id="#3997e9ff">
<path fill="#3997e9" opacity="1.00" d=" M 72.12 42.05 C 72.66 42.21 73.74 42.53 74.28 42.69 C 72.91 44.88 71.06 46.82 68.83 48.14 C 67.31 48.78 66.26 50.06 65.73 51.60 C 62.42 55.51 59.10 59.45 56.68 63.99 C 54.52 67.53 52.34 71.11 51.06 75.08 C 48.74 82.67 45.13 90.15 46.11 98.31 C 46.05 106.90 45.40 115.74 47.66 124.15 C 50.41 133.47 53.71 142.65 58.97 150.90 C 60.60 157.18 65.10 161.92 69.73 166.19 C 70.52 167.10 71.32 168.02 72.12 168.93 C 69.76 168.19 67.39 167.47 64.97 166.94 C 60.35 163.15 56.58 158.54 53.97 153.13 C 51.10 142.90 46.55 133.10 43.00 122.97 C 42.89 111.31 41.76 99.69 42.84 88.04 C 48.10 84.15 47.17 76.13 51.01 70.99 C 53.81 64.19 58.50 58.50 62.33 52.30 C 65.60 48.89 68.86 45.47 72.12 42.05 Z" />
</g>
<g id="#d2e6f7ff">
<path fill="#d2e6f7" opacity="1.00" d=" M 35.17 57.92 C 38.25 53.14 40.95 48.00 44.81 43.78 C 44.37 47.82 45.52 48.54 48.46 45.75 C 48.15 47.09 47.74 48.41 47.30 49.72 C 41.68 51.01 41.37 61.41 35.17 57.92 Z" />
</g>
<g id="#3e053fff">
<path fill="#3e053f" opacity="1.00" d=" M 182.20 44.13 C 196.08 43.96 199.24 61.55 207.97 69.17 C 206.48 63.32 204.73 57.50 201.58 52.29 C 202.12 50.20 201.31 46.82 204.23 46.44 C 204.84 47.25 205.43 48.07 206.03 48.89 C 208.28 54.28 209.90 61.80 217.11 61.91 C 219.87 65.90 221.11 71.32 222.86 76.01 C 223.33 78.24 223.80 80.47 224.15 82.73 C 226.43 101.79 227.13 121.98 218.82 139.85 C 210.83 161.02 194.17 178.00 174.26 188.33 C 170.75 188.19 167.26 188.11 163.76 187.80 C 179.48 181.23 194.15 170.57 203.04 155.80 C 189.95 169.81 171.96 177.42 154.49 185.28 C 149.27 184.59 144.31 186.42 139.20 186.93 C 137.80 186.04 137.40 183.87 139.32 183.35 C 165.03 173.89 188.80 153.72 195.33 126.33 C 201.44 100.36 188.60 71.93 166.65 57.37 C 164.51 54.76 158.99 46.04 165.25 46.64 C 170.71 48.82 175.45 52.24 179.92 56.02 C 175.30 49.65 188.95 54.54 183.37 48.85 C 183.00 48.38 182.24 47.44 181.87 46.97 C 181.95 46.26 182.12 44.84 182.20 44.13 Z" />
</g>
<g id="#c47fc3ff">
<path fill="#c47fc3" opacity="1.00" d=" M 155.07 45.05 C 158.09 44.98 161.18 44.85 164.21 45.08 L 163.84 45.92 C 157.86 43.49 155.22 47.00 158.27 51.25 C 156.85 51.63 155.20 52.51 153.93 51.31 C 157.69 51.53 153.76 46.44 155.07 45.05 Z" />
</g>
<g id="#953289ff">
<path fill="#953289" opacity="1.00" d=" M 164.21 45.08 C 167.17 45.15 170.14 45.37 173.10 45.32 C 176.21 45.69 181.49 54.96 183.37 48.85 C 188.95 54.54 175.30 49.65 179.92 56.02 C 175.45 52.24 170.71 48.82 165.25 46.64 C 164.90 46.46 164.19 46.10 163.84 45.92 L 164.21 45.08 Z" />
</g>
<g id="#694a8aff">
<path fill="#694a8a" opacity="1.00" d=" M 67.01 54.36 C 69.98 51.50 72.75 48.38 75.99 45.81 C 76.29 46.11 76.89 46.70 77.20 47.00 C 74.96 49.91 72.10 52.27 69.58 54.93 C 67.80 56.76 66.15 58.71 64.72 60.83 C 64.09 61.66 63.52 62.54 62.96 63.44 C 62.52 63.85 61.62 64.69 61.18 65.10 C 60.87 64.77 60.27 64.12 59.96 63.79 C 62.26 60.61 64.61 57.46 67.01 54.36 Z" />
</g>
<g id="#eea6d6ff">
<path fill="#eea6d6" opacity="1.00" d=" M 123.28 47.08 C 123.08 45.85 134.46 44.34 134.90 47.07 C 131.02 47.04 127.15 47.04 123.28 47.08 Z" />
</g>
<g id="#53084eff">
<path fill="#53084e" opacity="1.00" d=" M 158.27 51.25 C 155.22 47.00 157.86 43.49 163.84 45.92 C 164.19 46.10 164.90 46.46 165.25 46.64 C 158.99 46.04 164.51 54.76 166.65 57.37 C 188.60 71.93 201.44 100.36 195.33 126.33 C 188.80 153.72 165.03 173.89 139.32 183.35 C 137.40 183.87 137.80 186.04 139.20 186.93 C 144.31 186.42 149.27 184.59 154.49 185.28 C 171.96 177.42 189.95 169.81 203.04 155.80 C 194.15 170.57 179.48 181.23 163.76 187.80 C 167.26 188.11 170.75 188.19 174.26 188.33 C 171.20 189.88 168.13 191.40 165.08 192.97 C 161.32 194.07 157.62 195.40 153.79 196.26 C 148.32 191.13 140.27 197.57 133.73 195.98 C 141.12 191.91 152.49 193.63 158.11 188.02 C 147.14 190.96 135.28 193.87 124.23 189.83 C 128.76 183.96 119.24 189.64 115.93 188.11 C 115.57 187.16 115.24 186.20 114.95 185.22 C 126.58 185.12 137.24 179.94 147.83 175.86 C 150.75 174.85 154.47 170.02 148.82 170.70 C 153.37 168.70 157.48 165.83 162.10 163.97 C 161.45 165.40 160.76 166.81 160.15 168.26 C 184.54 156.28 199.34 126.61 192.07 99.90 C 191.03 89.52 183.81 82.09 179.97 72.97 C 178.93 69.64 175.66 68.00 173.10 65.98 C 173.33 67.74 173.60 69.49 173.81 71.25 C 169.40 67.19 168.06 60.47 162.07 58.06 C 161.97 55.26 159.99 53.24 158.27 51.25 Z" />
</g>
<g id="#c72a90ff">
<path fill="#c72a90" opacity="1.00" d=" M 123.28 47.08 C 127.15 47.04 131.02 47.04 134.90 47.07 C 137.28 47.72 139.74 49.79 141.13 46.99 C 143.16 50.89 137.83 50.08 135.83 52.06 L 135.16 51.80 C 132.47 50.06 128.75 49.01 125.87 50.81 C 125.37 51.06 124.37 51.57 123.88 51.82 C 122.28 52.24 120.68 52.64 119.08 53.06 C 119.61 50.54 120.64 48.02 123.28 47.08 Z" />
</g>
<g id="#981059ff">
<path fill="#981059" opacity="1.00" d=" M 141.13 46.99 C 143.27 46.76 145.40 47.25 147.10 48.60 C 145.34 49.64 144.19 51.37 143.08 53.03 C 143.71 54.66 147.76 57.51 143.90 57.31 C 141.51 55.13 138.72 53.46 135.83 52.06 C 137.83 50.08 143.16 50.89 141.13 46.99 Z" />
</g>
<g id="#a1b9f3ff">
<path fill="#a1b9f3" opacity="1.00" d=" M 65.73 51.60 C 66.26 50.06 67.31 48.78 68.83 48.14 C 69.74 49.82 67.46 52.26 65.73 51.60 Z" />
</g>
<g id="#500234ff">
<path fill="#500234" opacity="1.00" d=" M 143.08 53.03 C 144.19 51.37 145.34 49.64 147.10 48.60 L 147.84 49.46 L 148.22 49.93 C 151.96 53.88 157.29 55.68 162.07 58.06 C 168.06 60.47 169.40 67.19 173.81 71.25 C 174.87 72.69 175.96 74.11 177.16 75.43 L 176.65 75.87 C 173.09 75.96 166.19 79.97 170.37 83.63 C 177.83 90.18 179.11 100.69 184.11 108.87 C 188.38 110.53 185.39 103.19 186.26 100.76 C 190.20 124.30 181.39 149.54 162.10 163.97 C 157.48 165.83 153.37 168.70 148.82 170.70 C 143.47 172.65 136.61 176.32 131.53 171.99 C 137.74 167.76 146.20 166.91 151.12 160.88 C 147.59 161.07 144.40 162.88 140.86 163.00 C 144.99 160.02 150.30 159.35 154.26 156.03 C 156.05 155.02 157.85 154.06 159.66 153.09 C 162.34 156.00 165.62 152.63 167.96 150.94 C 178.19 138.48 184.17 119.22 176.67 104.33 C 173.21 99.46 175.29 89.87 168.12 88.76 C 166.95 87.29 165.89 85.73 164.92 84.12 C 167.47 75.25 157.89 72.14 152.85 67.41 C 158.17 66.88 154.43 61.86 151.56 60.54 C 148.37 60.88 145.82 59.54 143.90 57.31 C 147.76 57.51 143.71 54.66 143.08 53.03 Z" />
</g>
<g id="#e988c1ff">
<path fill="#e988c1" opacity="1.00" d=" M 147.84 49.46 C 148.71 48.45 151.81 48.22 151.73 49.99 C 150.55 50.04 149.38 50.02 148.22 49.93 L 147.84 49.46 Z" />
</g>
<g id="#5b1560ff">
<path fill="#5b1560" opacity="1.00" d=" M 206.03 48.89 C 209.41 52.22 212.58 55.76 215.86 59.19 C 216.60 59.94 217.01 60.85 217.11 61.91 C 209.90 61.80 208.28 54.28 206.03 48.89 Z" />
</g>
<g id="#93c5f0ff">
<path fill="#93c5f0" opacity="1.00" d=" M 57.90 52.92 C 58.65 47.67 61.04 50.84 62.33 52.30 C 58.50 58.50 53.81 64.19 51.01 70.99 C 47.17 76.13 48.10 84.15 42.84 88.04 C 43.78 74.99 50.16 63.18 57.90 52.92 Z" />
</g>
<g id="#800b5cff">
<path fill="#800b5c" opacity="1.00" d=" M 125.87 50.81 C 128.75 49.01 132.47 50.06 135.16 51.80 C 132.06 51.56 128.96 51.12 125.87 50.81 Z" />
</g>
<g id="#a11261ff">
<path fill="#a11261" opacity="1.00" d=" M 148.22 49.93 C 149.38 50.02 150.55 50.04 151.73 49.99 C 152.28 50.32 153.38 50.98 153.93 51.31 C 155.20 52.51 156.85 51.63 158.27 51.25 C 159.99 53.24 161.97 55.26 162.07 58.06 C 157.29 55.68 151.96 53.88 148.22 49.93 Z" />
</g>
<g id="#360325ff">
<path fill="#360325" opacity="1.00" d=" M 123.88 51.82 C 124.37 51.57 125.37 51.06 125.87 50.81 C 128.96 51.12 132.06 51.56 135.16 51.80 L 135.83 52.06 C 138.72 53.46 141.51 55.13 143.90 57.31 C 145.82 59.54 148.37 60.88 151.56 60.54 C 154.43 61.86 158.17 66.88 152.85 67.41 C 148.48 65.28 143.73 63.98 138.82 64.06 C 134.63 63.07 130.34 62.42 126.32 60.86 C 125.97 60.64 125.28 60.19 124.93 59.97 C 126.25 56.50 120.99 54.10 123.88 51.82 Z" />
</g>
<g id="#d5b6d7ff">
<path fill="#d5b6d7" opacity="1.00" d=" M 216.90 50.89 C 224.66 59.72 228.10 72.35 230.76 83.81 C 229.22 89.95 229.54 82.47 225.02 83.96 C 224.80 83.65 224.37 83.04 224.15 82.73 C 223.80 80.47 223.33 78.24 222.86 76.01 C 225.32 76.88 226.09 78.89 225.18 82.02 C 227.78 82.44 227.44 78.84 227.85 77.09 C 225.31 67.92 220.73 59.53 216.90 50.89 Z" />
</g>
<g id="#adc5ecff">
<path fill="#adc5ec" opacity="1.00" d=" M 56.68 63.99 C 59.10 59.45 62.42 55.51 65.73 51.60 C 66.05 52.29 66.69 53.67 67.01 54.36 C 64.61 57.46 62.26 60.61 59.96 63.79 C 59.71 64.12 59.21 64.79 58.96 65.13 C 58.39 64.84 57.25 64.28 56.68 63.99 Z" />
</g>
<g id="#6e306eff">
<path fill="#6e306e" opacity="1.00" d=" M 119.08 53.06 C 120.68 52.64 122.28 52.24 123.88 51.82 C 120.99 54.10 126.25 56.50 124.93 59.97 C 124.44 59.97 123.47 59.99 122.98 59.99 C 122.13 59.64 121.29 59.30 120.44 58.95 C 119.23 58.06 117.30 57.60 116.86 56.01 C 117.33 55.11 117.81 54.21 118.30 53.32 L 119.08 53.06 Z" />
</g>
<g id="#c2aac3ff">
<path fill="#c2aac3" opacity="1.00" d=" M 108.84 52.95 C 112.04 52.97 115.14 54.59 118.30 53.32 C 117.81 54.21 117.33 55.11 116.86 56.01 C 113.92 56.34 110.86 55.01 108.84 52.95 Z" />
</g>
<g id="#989accff">
<path fill="#989acc" opacity="1.00" d=" M 73.02 55.97 C 75.98 50.80 76.24 57.40 72.86 58.99 C 72.90 58.24 72.98 56.73 73.02 55.97 Z" />
</g>
<g id="#b0b6e2ff">
<path fill="#b0b6e2" opacity="1.00" d=" M 64.72 60.83 C 66.15 58.71 67.80 56.76 69.58 54.93 C 70.24 55.30 71.56 56.03 72.22 56.39 C 69.71 57.86 67.25 59.40 64.72 60.83 Z" />
</g>
<g id="#3e8ae4ff">
<path fill="#3e8ae4" opacity="1.00" d=" M 72.22 56.39 L 73.02 55.97 C 72.98 56.73 72.90 58.24 72.86 58.99 C 71.15 65.60 65.01 69.84 62.29 76.04 C 55.86 73.14 65.63 67.86 62.96 63.44 C 63.52 62.54 64.09 61.66 64.72 60.83 C 67.25 59.40 69.71 57.86 72.22 56.39 Z" />
</g>
<g id="#ebe1efff">
<path fill="#ebe1ef" opacity="1.00" d=" M 120.44 58.95 C 121.29 59.30 122.13 59.64 122.98 59.99 C 124.20 62.25 125.18 64.66 125.51 67.22 C 124.97 67.45 123.89 67.90 123.35 68.13 C 118.51 67.03 113.43 69.94 108.27 67.91 C 108.71 63.49 104.02 65.28 101.02 64.97 C 103.87 62.15 110.28 63.39 113.14 60.12 C 115.76 61.10 118.34 61.02 120.44 58.95 Z" />
</g>
<g id="#ae83b0ff">
<path fill="#ae83b0" opacity="1.00" d=" M 122.98 59.99 C 123.47 59.99 124.44 59.97 124.93 59.97 C 125.28 60.19 125.97 60.64 126.32 60.86 C 126.23 63.03 128.51 66.70 125.51 67.22 C 125.18 64.66 124.20 62.25 122.98 59.99 Z" />
</g>
<g id="#742c76ff">
<path fill="#742c76" opacity="1.00" d=" M 126.32 60.86 C 130.34 62.42 134.63 63.07 138.82 64.06 C 142.77 66.29 148.71 68.50 148.09 73.86 C 147.70 81.25 156.11 85.39 155.16 92.96 C 161.34 101.60 164.32 113.47 161.90 123.89 C 159.37 125.54 156.33 126.81 153.87 124.28 C 154.42 111.85 152.84 95.45 142.01 87.86 C 136.94 82.77 131.83 76.97 124.96 74.06 C 122.44 74.88 119.32 75.47 117.62 72.84 C 120.21 72.21 122.02 70.35 123.35 68.13 C 123.89 67.90 124.97 67.45 125.51 67.22 C 128.51 66.70 126.23 63.03 126.32 60.86 Z" />
</g>
<g id="#6eb5f3ff">
<path fill="#6eb5f3" opacity="1.00" d=" M 35.95 67.44 C 36.26 62.51 39.01 67.15 41.32 64.15 C 41.25 67.30 34.67 75.30 40.47 72.83 C 33.62 86.95 32.96 102.77 34.79 118.12 C 32.01 111.15 32.03 103.58 32.83 96.23 C 33.40 88.85 31.77 80.95 35.14 74.05 C 35.78 71.92 37.60 69.57 35.95 67.44 Z" />
</g>
<g id="#7391d9ff">
<path fill="#7391d9" opacity="1.00" d=" M 51.06 75.08 C 52.34 71.11 54.52 67.53 56.68 63.99 C 57.25 64.28 58.39 64.84 58.96 65.13 C 57.28 68.03 55.56 70.90 53.89 73.80 C 52.94 74.22 52.00 74.64 51.06 75.08 Z" />
</g>
<g id="#143fa2ff">
<path fill="#143fa2" opacity="1.00" d=" M 58.96 65.13 C 59.21 64.79 59.71 64.12 59.96 63.79 C 60.27 64.12 60.87 64.77 61.18 65.10 C 54.61 75.53 48.69 87.65 49.50 100.26 C 49.75 109.02 51.01 117.68 51.72 126.40 C 50.57 124.00 49.73 121.36 49.49 118.70 C 48.71 120.46 48.09 122.28 47.66 124.15 C 45.40 115.74 46.05 106.90 46.11 98.31 C 49.55 90.62 50.32 81.67 53.89 73.80 C 55.56 70.90 57.28 68.03 58.96 65.13 Z" />
</g>
<g id="#1c6ad5ff">
<path fill="#1c6ad5" opacity="1.00" d=" M 61.18 65.10 C 61.62 64.69 62.52 63.85 62.96 63.44 C 65.63 67.86 55.86 73.14 62.29 76.04 C 62.00 76.49 61.41 77.38 61.12 77.83 C 61.02 77.35 60.82 76.40 60.72 75.93 C 52.95 81.43 50.87 91.48 49.50 100.26 C 48.69 87.65 54.61 75.53 61.18 65.10 Z" />
</g>
<g id="#68084fff">
<path fill="#68084f" opacity="1.00" d=" M 138.82 64.06 C 143.73 63.98 148.48 65.28 152.85 67.41 C 157.89 72.14 167.47 75.25 164.92 84.12 C 163.51 82.16 159.07 76.04 160.06 81.85 C 155.81 79.60 151.40 77.46 148.09 73.86 C 148.71 68.50 142.77 66.29 138.82 64.06 Z" />
</g>
<g id="#801778ff">
<path fill="#801778" opacity="1.00" d=" M 173.10 65.98 C 175.66 68.00 178.93 69.64 179.97 72.97 C 179.05 73.82 178.12 74.65 177.16 75.43 C 175.96 74.11 174.87 72.69 173.81 71.25 C 173.60 69.49 173.33 67.74 173.10 65.98 Z" />
</g>
<g id="#c2a7c3ff">
<path fill="#c2a7c3" opacity="1.00" d=" M 108.27 67.91 C 113.43 69.94 118.51 67.03 123.35 68.13 C 122.02 70.35 120.21 72.21 117.62 72.84 C 115.64 73.49 118.19 70.34 119.14 70.07 C 118.02 68.21 107.37 71.63 108.27 67.91 Z" />
</g>
<g id="#3298f3ff">
<path fill="#3298f3" opacity="1.00" d=" M 29.77 82.19 C 31.46 77.13 33.41 72.14 35.95 67.44 C 37.60 69.57 35.78 71.92 35.14 74.05 C 31.77 80.95 33.40 88.85 32.83 96.23 C 30.19 93.11 31.70 87.63 29.04 85.66 C 29.27 84.50 29.54 83.35 29.77 82.19 Z" />
</g>
<g id="#62b1f3ff">
<path fill="#62b1f3" opacity="1.00" d=" M 26.17 73.01 C 30.64 72.59 28.52 80.03 29.77 82.19 C 29.54 83.35 29.27 84.50 29.04 85.66 C 28.03 89.97 27.34 94.35 26.82 98.75 C 26.50 101.60 25.43 103.96 22.12 103.00 C 23.04 97.49 20.71 90.35 25.62 86.51 C 26.92 84.62 24.77 82.86 23.43 81.76 C 24.20 78.81 24.67 75.70 26.17 73.01 Z" />
</g>
<g id="#58085bff">
<path fill="#58085b" opacity="1.00" d=" M 177.16 75.43 C 178.12 74.65 179.05 73.82 179.97 72.97 C 183.81 82.09 191.03 89.52 192.07 99.90 C 199.34 126.61 184.54 156.28 160.15 168.26 C 160.76 166.81 161.45 165.40 162.10 163.97 C 181.39 149.54 190.20 124.30 186.26 100.76 C 184.91 91.85 181.67 83.34 176.65 75.87 L 177.16 75.43 Z" />
</g>
<g id="#336fc5ff">
<path fill="#336fc5" opacity="1.00" d=" M 51.06 75.08 C 52.00 74.64 52.94 74.22 53.89 73.80 C 50.32 81.67 49.55 90.62 46.11 98.31 C 45.13 90.15 48.74 82.67 51.06 75.08 Z" />
</g>
<g id="#641876ff">
<path fill="#641876" opacity="1.00" d=" M 148.09 73.86 C 151.40 77.46 155.81 79.60 160.06 81.85 C 161.19 83.40 162.28 85.00 163.26 86.65 C 163.96 90.12 163.60 104.26 167.92 99.06 C 167.17 103.65 170.78 106.95 172.17 110.96 C 168.70 107.41 165.73 107.50 166.83 113.24 C 166.32 111.70 165.83 110.15 165.28 108.63 C 164.87 115.03 165.07 121.54 163.83 127.86 C 161.03 129.04 162.23 125.46 161.90 123.89 C 164.32 113.47 161.34 101.60 155.16 92.96 C 156.11 85.39 147.70 81.25 148.09 73.86 Z" />
</g>
<g id="#489eeeff">
<path fill="#489eee" opacity="1.00" d=" M 16.98 96.98 C 17.90 90.38 18.75 80.55 22.27 76.14 L 23.30 76.30 C 22.48 79.80 21.11 83.15 20.60 86.72 C 17.33 101.04 17.07 116.09 20.71 130.33 C 23.00 133.82 21.41 139.21 25.77 141.26 C 25.98 146.46 30.83 151.00 28.88 156.18 C 23.32 147.52 21.44 137.28 18.35 127.64 C 17.83 124.76 17.60 121.86 17.09 118.99 C 16.96 111.65 17.00 104.31 16.98 96.98 Z" />
</g>
<g id="#192378ff">
<path fill="#192378" opacity="1.00" d=" M 49.50 100.26 C 50.87 91.48 52.95 81.43 60.72 75.93 C 60.82 76.40 61.02 77.35 61.12 77.83 C 59.96 83.43 57.85 88.78 55.55 94.00 C 54.82 95.15 54.81 96.53 55.00 97.83 C 54.89 98.63 54.67 100.22 54.56 101.01 C 53.91 102.18 53.76 103.52 53.98 104.82 C 54.09 108.26 54.15 111.73 53.96 115.17 C 53.74 116.48 53.92 117.82 54.56 118.98 C 55.04 120.33 55.18 121.73 55.00 123.18 C 54.79 124.48 54.84 125.85 55.56 127.00 C 58.91 136.40 63.15 145.61 70.00 152.97 C 71.24 156.55 71.80 160.29 71.84 164.08 L 70.98 164.23 C 66.58 160.14 63.08 155.25 58.97 150.90 C 53.71 142.65 50.41 133.47 47.66 124.15 C 48.09 122.28 48.71 120.46 49.49 118.70 C 49.73 121.36 50.57 124.00 51.72 126.40 C 51.01 117.68 49.75 109.02 49.50 100.26 Z" />
</g>
<g id="#330125ff">
<path fill="#330125" opacity="1.00" d=" M 170.37 83.63 C 166.19 79.97 173.09 75.96 176.65 75.87 C 181.67 83.34 184.91 91.85 186.26 100.76 C 185.39 103.19 188.38 110.53 184.11 108.87 C 179.11 100.69 177.83 90.18 170.37 83.63 Z" />
</g>
<g id="#8d0b76ff">
<path fill="#8d0b76" opacity="1.00" d=" M 160.06 81.85 C 159.07 76.04 163.51 82.16 164.92 84.12 C 165.89 85.73 166.95 87.29 168.12 88.76 C 169.23 91.62 171.80 96.31 168.49 98.45 C 169.57 93.83 165.71 90.13 163.26 86.65 C 162.28 85.00 161.19 83.40 160.06 81.85 Z" />
</g>
<g id="#7db3ebff">
<path fill="#7db3eb" opacity="1.00" d=" M 58.83 197.84 C 21.98 173.78 2.23 123.99 14.93 81.77 C 13.88 97.10 10.79 112.79 14.87 127.93 C 19.52 155.83 36.84 181.04 60.27 196.63 C 59.91 196.93 59.19 197.54 58.83 197.84 Z" />
</g>
<g id="#3d9ef3ff">
<path fill="#3d9ef3" opacity="1.00" d=" M 23.43 81.76 C 24.77 82.86 26.92 84.62 25.62 86.51 C 20.71 90.35 23.04 97.49 22.12 103.00 C 25.43 103.96 26.50 101.60 26.82 98.75 C 27.18 105.30 25.21 111.65 24.76 118.15 C 23.53 116.65 22.65 114.79 20.91 113.79 C 18.90 105.28 20.25 96.59 21.94 88.18 C 22.43 86.04 22.94 83.90 23.43 81.76 Z" />
</g>
<g id="#862088ff">
<path fill="#862088" opacity="1.00" d=" M 224.15 82.73 C 224.37 83.04 224.80 83.65 225.02 83.96 C 226.34 88.37 226.12 93.79 230.54 96.42 C 230.94 98.96 231.31 101.10 232.93 97.86 C 232.92 104.91 233.05 111.97 232.98 119.03 C 231.46 136.44 224.50 153.26 214.68 167.56 C 208.62 172.46 204.29 179.23 198.15 184.11 C 200.50 177.88 192.97 182.88 194.23 186.79 C 187.93 194.33 177.91 195.82 169.30 199.84 C 168.07 197.10 164.36 197.63 161.90 196.87 C 162.97 195.58 164.02 194.27 165.08 192.97 C 168.13 191.40 171.20 189.88 174.26 188.33 C 194.17 178.00 210.83 161.02 218.82 139.85 C 227.13 121.98 226.43 101.79 224.15 82.73 Z" />
</g>
<g id="#a64babff">
<path fill="#a64bab" opacity="1.00" d=" M 225.02 83.96 C 229.54 82.47 229.22 89.95 230.76 83.81 C 231.95 87.77 233.24 91.82 233.03 96.00 C 233.01 96.47 232.96 97.39 232.93 97.86 C 231.31 101.10 230.94 98.96 230.54 96.42 C 226.12 93.79 226.34 88.37 225.02 83.96 Z" />
</g>
<g id="#0a85fbff">
<path fill="#0a85fb" opacity="1.00" d=" M 29.04 85.66 C 31.70 87.63 30.19 93.11 32.83 96.23 C 32.03 103.58 32.01 111.15 34.79 118.12 L 35.03 118.87 C 35.01 121.44 35.67 123.91 36.93 126.15 C 37.71 128.11 38.38 130.11 39.18 132.06 C 38.48 134.24 38.29 137.14 40.95 138.00 C 41.32 138.89 41.68 139.78 42.03 140.68 C 38.89 149.64 47.13 162.66 38.97 169.32 C 36.87 167.66 37.30 161.48 33.76 164.07 C 33.17 163.30 32.59 162.54 32.01 161.78 C 30.98 159.90 29.94 158.03 28.88 156.18 C 30.83 151.00 25.98 146.46 25.77 141.26 C 24.01 132.13 21.59 123.10 20.91 113.79 C 22.65 114.79 23.53 116.65 24.76 118.15 C 25.21 111.65 27.18 105.30 26.82 98.75 C 27.34 94.35 28.03 89.97 29.04 85.66 Z" />
</g>
<g id="#70bbfaff">
<path fill="#70bbfa" opacity="1.00" d=" M 20.71 130.33 C 17.07 116.09 17.33 101.04 20.60 86.72 C 20.94 87.09 21.61 87.82 21.94 88.18 C 20.25 96.59 18.90 105.28 20.91 113.79 C 21.59 123.10 24.01 132.13 25.77 141.26 C 21.41 139.21 23.00 133.82 20.71 130.33 Z" />
</g>
<g id="#a045beff">
<path fill="#a045be" opacity="1.00" d=" M 163.26 86.65 C 165.71 90.13 169.57 93.83 168.49 98.45 L 167.92 99.06 C 163.60 104.26 163.96 90.12 163.26 86.65 Z" />
</g>
<g id="#82c0ebff">
<path fill="#82c0eb" opacity="1.00" d=" M 40.84 110.23 C 40.93 102.79 41.19 95.32 42.84 88.04 C 41.76 99.69 42.89 111.31 43.00 122.97 C 42.25 118.72 41.58 114.47 40.84 110.23 Z" />
</g>
<g id="#c4a3c4ff">
<path fill="#c4a3c4" opacity="1.00" d=" M 142.01 87.86 C 152.84 95.45 154.42 111.85 153.87 124.28 L 153.16 123.84 C 152.66 110.96 147.42 99.14 142.01 87.86 Z" />
</g>
<g id="#6a0652ff">
<path fill="#6a0652" opacity="1.00" d=" M 168.12 88.76 C 175.29 89.87 173.21 99.46 176.67 104.33 C 184.17 119.22 178.19 138.48 167.96 150.94 C 165.62 152.63 162.34 156.00 159.66 153.09 C 164.13 147.16 175.29 140.14 170.11 131.98 C 172.24 125.52 173.55 117.68 172.17 110.96 C 170.78 106.95 167.17 103.65 167.92 99.06 L 168.49 98.45 C 171.80 96.31 169.23 91.62 168.12 88.76 Z" />
</g>
<g id="#9482aaff">
<path fill="#9482aa" opacity="1.00" d=" M 55.00 97.83 C 54.81 96.53 54.82 95.15 55.55 94.00 C 56.61 94.86 56.81 97.95 55.00 97.83 Z" />
</g>
<g id="#cf9dd2ff">
<path fill="#cf9dd2" opacity="1.00" d=" M 233.03 96.00 C 233.94 101.01 235.80 114.03 232.98 119.03 C 233.05 111.97 232.92 104.91 232.93 97.86 C 232.96 97.39 233.01 96.47 233.03 96.00 Z" />
</g>
<g id="#c2e9ffff">
<path fill="#c2e9ff" opacity="1.00" d=" M 17.09 118.99 C 15.81 114.55 14.42 101.53 16.98 96.98 C 17.00 104.31 16.96 111.65 17.09 118.99 Z" />
</g>
<g id="#9687b4ff">
<path fill="#9687b4" opacity="1.00" d=" M 53.98 104.82 C 53.76 103.52 53.91 102.18 54.56 101.01 C 55.65 101.86 55.80 104.99 53.98 104.82 Z" />
</g>
<g id="#c3e3f4ff">
<path fill="#c3e3f4" opacity="1.00" d=" M 39.17 105.61 C 39.79 107.12 40.31 108.67 40.84 110.23 C 41.58 114.47 42.25 118.72 43.00 122.97 C 43.29 126.39 43.54 129.79 43.81 133.22 C 40.75 124.38 38.29 115.03 39.17 105.61 Z" />
</g>
<g id="#b25ad7ff">
<path fill="#b25ad7" opacity="1.00" d=" M 166.83 113.24 C 165.73 107.50 168.70 107.41 172.17 110.96 C 173.55 117.68 172.24 125.52 170.11 131.98 C 166.29 137.92 163.81 145.89 157.17 149.32 C 162.98 138.17 168.32 126.24 166.83 113.24 Z" />
</g>
<g id="#9c319eff">
<path fill="#9c319e" opacity="1.00" d=" M 165.28 108.63 C 165.83 110.15 166.32 111.70 166.83 113.24 C 168.32 126.24 162.98 138.17 157.17 149.32 C 163.81 145.89 166.29 137.92 170.11 131.98 C 175.29 140.14 164.13 147.16 159.66 153.09 C 157.85 154.06 156.05 155.02 154.26 156.03 C 148.09 151.97 141.35 165.97 136.61 158.13 C 141.66 152.94 148.36 150.54 152.33 143.97 C 155.88 139.74 159.06 134.91 160.02 129.37 C 157.60 129.36 155.18 129.64 152.78 129.38 C 152.83 127.53 152.95 125.68 153.16 123.84 L 153.87 124.28 C 156.33 126.81 159.37 125.54 161.90 123.89 C 162.23 125.46 161.03 129.04 163.83 127.86 C 165.07 121.54 164.87 115.03 165.28 108.63 Z" />
</g>
<g id="#a59dccff">
<path fill="#a59dcc" opacity="1.00" d=" M 53.96 115.17 C 55.79 115.00 55.65 118.13 54.56 118.98 C 53.92 117.82 53.74 116.48 53.96 115.17 Z" />
</g>
<g id="#66b3efff">
<path fill="#66b3ef" opacity="1.00" d=" M 35.03 118.87 C 36.34 121.08 37.01 123.57 36.93 126.15 C 35.67 123.91 35.01 121.44 35.03 118.87 Z" />
</g>
<g id="#7ab4e7ff">
<path fill="#7ab4e7" opacity="1.00" d=" M 43.00 122.97 C 46.55 133.10 51.10 142.90 53.97 153.13 C 49.55 147.07 46.57 140.15 43.81 133.22 C 43.54 129.79 43.29 126.39 43.00 122.97 Z" />
</g>
<g id="#8e79a5ff">
<path fill="#8e79a5" opacity="1.00" d=" M 55.00 123.18 C 56.81 123.04 56.62 126.14 55.56 127.00 C 54.84 125.85 54.79 124.48 55.00 123.18 Z" />
</g>
<g id="#d2e8f9ff">
<path fill="#d2e8f9" opacity="1.00" d=" M 14.87 127.93 C 16.11 130.30 16.97 129.59 18.35 127.64 C 21.44 137.28 23.32 147.52 28.88 156.18 C 29.94 158.03 30.98 159.90 32.01 161.78 C 31.68 162.91 30.74 164.18 31.79 165.23 C 40.39 177.89 51.23 189.51 64.65 197.09 C 66.28 197.65 66.99 198.65 65.98 200.23 C 64.07 199.03 62.19 197.80 60.27 196.63 C 36.84 181.04 19.52 155.83 14.87 127.93 Z" />
</g>
<g id="#d42d9bff">
<path fill="#d42d9b" opacity="1.00" d=" M 151.01 133.90 C 151.65 132.58 151.21 129.55 152.78 129.38 C 155.18 129.64 157.60 129.36 160.02 129.37 C 159.06 134.91 155.88 139.74 152.33 143.97 C 148.88 141.86 150.43 137.85 151.01 133.90 Z" />
</g>
<g id="#73b7f5ff">
<path fill="#73b7f5" opacity="1.00" d=" M 39.18 132.06 C 40.28 133.85 40.75 135.92 40.95 138.00 C 38.29 137.14 38.48 134.24 39.18 132.06 Z" />
</g>
<g id="#e46ab7ff">
<path fill="#e46ab7" opacity="1.00" d=" M 128.04 162.16 C 137.42 154.65 146.94 145.46 151.01 133.90 C 150.43 137.85 148.88 141.86 152.33 143.97 C 148.36 150.54 141.66 152.94 136.61 158.13 C 134.01 159.97 131.14 161.40 128.04 162.16 Z" />
</g>
<g id="#2378efff">
<path fill="#2378ef" opacity="1.00" d=" M 42.03 140.68 C 44.19 145.75 47.29 150.31 50.23 154.94 C 45.96 162.38 51.57 174.30 45.88 179.40 C 41.27 174.78 37.27 169.57 33.76 164.07 C 37.30 161.48 36.87 167.66 38.97 169.32 C 47.13 162.66 38.89 149.64 42.03 140.68 Z" />
</g>
<g id="#2165c8ff">
<path fill="#2165c8" opacity="1.00" d=" M 58.97 150.90 C 63.08 155.25 66.58 160.14 70.98 164.23 C 70.66 164.72 70.04 165.70 69.73 166.19 C 65.10 161.92 60.60 157.18 58.97 150.90 Z" />
</g>
<g id="#3f1765ff">
<path fill="#3f1765" opacity="1.00" d=" M 70.00 152.97 C 75.57 158.42 83.51 162.67 89.82 165.79 C 83.86 169.13 90.24 171.54 94.12 172.57 C 91.68 173.25 90.97 175.97 89.07 177.38 C 87.04 176.21 85.04 174.99 83.04 173.77 C 79.04 170.87 74.94 167.97 71.84 164.08 C 71.80 160.29 71.24 156.55 70.00 152.97 Z" />
</g>
<g id="#3c69e2ff">
<path fill="#3c69e2" opacity="1.00" d=" M 50.23 154.94 C 53.05 158.90 56.15 162.64 59.06 166.53 C 51.60 169.05 59.62 180.08 54.05 184.34 C 52.93 183.62 51.71 182.89 50.53 183.94 C 48.93 182.47 47.39 180.95 45.88 179.40 C 51.57 174.30 45.96 162.38 50.23 154.94 Z" />
</g>
<g id="#782b73ff">
<path fill="#782b73" opacity="1.00" d=" M 136.61 158.13 C 141.35 165.97 148.09 151.97 154.26 156.03 C 150.30 159.35 144.99 160.02 140.86 163.00 C 127.65 168.20 112.76 170.30 98.79 168.24 C 106.00 167.85 113.55 168.85 120.46 166.25 C 122.10 166.09 123.74 165.52 124.76 164.15 C 125.60 163.15 126.81 162.53 128.04 162.16 C 131.14 161.40 134.01 159.97 136.61 158.13 Z" />
</g>
<g id="#310435ff">
<path fill="#310435" opacity="1.00" d=" M 140.86 163.00 C 144.40 162.88 147.59 161.07 151.12 160.88 C 146.20 166.91 137.74 167.76 131.53 171.99 C 119.35 175.21 106.30 176.46 94.12 172.57 C 90.24 171.54 83.86 169.13 89.82 165.79 C 92.14 166.09 94.41 166.73 96.64 167.44 C 97.18 167.64 98.25 168.04 98.79 168.24 C 112.76 170.30 127.65 168.20 140.86 163.00 Z" />
</g>
<g id="#9bb9eeff">
<path fill="#9bb9ee" opacity="1.00" d=" M 32.01 161.78 C 32.59 162.54 33.17 163.30 33.76 164.07 C 37.27 169.57 41.27 174.78 45.88 179.40 C 47.39 180.95 48.93 182.47 50.53 183.94 C 55.04 188.87 60.79 192.29 66.25 196.03 C 65.85 196.30 65.05 196.83 64.65 197.09 C 51.23 189.51 40.39 177.89 31.79 165.23 C 30.74 164.18 31.68 162.91 32.01 161.78 Z" />
</g>
<g id="#574fb2ff">
<path fill="#574fb2" opacity="1.00" d=" M 70.98 164.23 L 71.84 164.08 C 74.94 167.97 79.04 170.87 83.04 173.77 C 82.04 174.22 81.06 174.69 80.08 175.18 C 77.26 173.31 74.62 171.19 72.12 168.93 C 71.32 168.02 70.52 167.10 69.73 166.19 C 70.04 165.70 70.66 164.72 70.98 164.23 Z" />
</g>
<g id="#ba92b7ff">
<path fill="#ba92b7" opacity="1.00" d=" M 120.46 166.25 C 120.12 164.35 123.31 163.17 124.76 164.15 C 123.74 165.52 122.10 166.09 120.46 166.25 Z" />
</g>
<g id="#cfb6d0ff">
<path fill="#cfb6d0" opacity="1.00" d=" M 96.64 167.44 C 104.63 167.46 112.57 166.38 120.46 166.25 C 113.55 168.85 106.00 167.85 98.79 168.24 C 98.25 168.04 97.18 167.64 96.64 167.44 Z" />
</g>
<g id="#5456d1ff">
<path fill="#5456d1" opacity="1.00" d=" M 54.05 184.34 C 59.62 180.08 51.60 169.05 59.06 166.53 C 61.93 169.35 65.05 171.90 68.05 174.59 C 61.14 176.75 64.78 185.53 62.97 191.03 C 59.66 189.30 56.89 186.72 54.05 184.34 Z" />
</g>
<g id="#979ad7ff">
<path fill="#979ad7" opacity="1.00" d=" M 64.97 166.94 C 67.39 167.47 69.76 168.19 72.12 168.93 C 74.62 171.19 77.26 173.31 80.08 175.18 C 78.63 176.11 77.18 177.04 75.74 178.00 C 71.89 174.58 68.30 170.87 64.97 166.94 Z" />
</g>
<g id="#a63c9cff">
<path fill="#a63c9c" opacity="1.00" d=" M 198.15 184.11 C 204.29 179.23 208.62 172.46 214.68 167.56 C 203.39 184.79 185.73 197.98 166.74 206.17 C 166.69 205.43 166.63 204.70 166.55 203.97 C 162.13 205.78 157.82 207.91 153.17 209.13 C 152.33 209.08 150.63 208.99 149.79 208.94 C 155.09 203.84 162.88 203.06 169.30 199.84 C 177.91 195.82 187.93 194.33 194.23 186.79 C 192.97 182.88 200.50 177.88 198.15 184.11 Z" />
</g>
<g id="#560e5cff">
<path fill="#560e5c" opacity="1.00" d=" M 131.53 171.99 C 136.61 176.32 143.47 172.65 148.82 170.70 C 154.47 170.02 150.75 174.85 147.83 175.86 C 137.24 179.94 126.58 185.12 114.95 185.22 C 115.24 186.20 115.57 187.16 115.93 188.11 C 114.61 187.90 113.30 187.61 111.99 187.33 C 105.49 186.71 101.19 181.34 94.94 180.06 C 92.96 179.22 90.94 178.46 89.07 177.38 C 90.97 175.97 91.68 173.25 94.12 172.57 C 106.30 176.46 119.35 175.21 131.53 171.99 Z" />
</g>
<g id="#955ebcff">
<path fill="#955ebc" opacity="1.00" d=" M 80.08 175.18 C 81.06 174.69 82.04 174.22 83.04 173.77 C 85.04 174.99 87.04 176.21 89.07 177.38 C 90.94 178.46 92.96 179.22 94.94 180.06 C 89.73 186.49 110.02 186.46 100.73 188.41 C 100.05 188.30 98.68 188.09 98.00 187.99 C 96.36 187.15 94.69 186.40 92.99 185.71 C 89.93 185.22 86.86 184.96 83.77 184.83 L 84.19 184.17 C 88.49 182.95 77.93 180.14 75.74 178.00 C 77.18 177.04 78.63 176.11 80.08 175.18 Z" />
</g>
<g id="#6b42c0ff">
<path fill="#6b42c0" opacity="1.00" d=" M 62.97 191.03 C 64.78 185.53 61.14 176.75 68.05 174.59 C 70.37 176.28 72.79 177.85 75.23 179.36 L 74.99 180.07 C 69.42 184.60 72.92 190.31 77.35 193.77 C 74.04 191.97 71.03 191.62 70.60 196.18 C 69.90 195.71 69.20 195.25 68.50 194.80 C 66.69 193.49 64.85 192.24 62.97 191.03 Z" />
</g>
<g id="#caa5e4ff">
<path fill="#caa5e4" opacity="1.00" d=" M 75.74 178.00 C 77.93 180.14 88.49 182.95 84.19 184.17 C 81.07 182.92 78.02 181.53 74.99 180.07 L 75.23 179.36 C 75.36 179.02 75.62 178.34 75.74 178.00 Z" />
</g>
<g id="#8934b0ff">
<path fill="#8934b0" opacity="1.00" d=" M 74.99 180.07 C 78.02 181.53 81.07 182.92 84.19 184.17 L 83.77 184.83 C 79.75 189.74 83.02 195.88 81.60 201.29 C 77.92 199.63 73.88 198.63 70.60 196.18 C 71.03 191.62 74.04 191.97 77.35 193.77 C 72.92 190.31 69.42 184.60 74.99 180.07 Z" />
</g>
<g id="#8b3a92ff">
<path fill="#8b3a92" opacity="1.00" d=" M 94.94 180.06 C 101.19 181.34 105.49 186.71 111.99 187.33 C 108.71 190.42 105.94 190.38 100.73 188.41 C 110.02 186.46 89.73 186.49 94.94 180.06 Z" />
</g>
<g id="#7a7bd9ff">
<path fill="#7a7bd9" opacity="1.00" d=" M 50.53 183.94 C 51.71 182.89 52.93 183.62 54.05 184.34 C 56.89 186.72 59.66 189.30 62.97 191.03 C 64.85 192.24 66.69 193.49 68.50 194.80 C 67.94 195.11 66.81 195.72 66.25 196.03 C 60.79 192.29 55.04 188.87 50.53 183.94 Z" />
</g>
<g id="#a2209aff">
<path fill="#a2209a" opacity="1.00" d=" M 81.60 201.29 C 83.02 195.88 79.75 189.74 83.77 184.83 C 86.86 184.96 89.93 185.22 92.99 185.71 C 91.29 186.90 90.56 188.73 87.85 188.37 C 89.71 189.97 91.92 191.09 94.10 192.18 C 87.10 194.05 90.87 200.23 96.17 201.97 C 92.69 201.53 88.23 200.04 91.03 204.99 C 87.79 204.03 84.65 202.75 81.60 201.29 Z" />
</g>
<g id="#9a0b71ff">
<path fill="#9a0b71" opacity="1.00" d=" M 87.85 188.37 C 90.56 188.73 91.29 186.90 92.99 185.71 C 94.69 186.40 96.36 187.15 98.00 187.99 C 102.68 191.15 109.06 191.49 112.11 196.98 C 106.01 195.76 99.92 194.43 94.10 192.18 C 91.92 191.09 89.71 189.97 87.85 188.37 Z" />
</g>
<g id="#800b5fff">
<path fill="#800b5f" opacity="1.00" d=" M 111.99 187.33 C 113.30 187.61 114.61 187.90 115.93 188.11 C 119.24 189.64 128.76 183.96 124.23 189.83 C 135.28 193.87 147.14 190.96 158.11 188.02 C 152.49 193.63 141.12 191.91 133.73 195.98 C 140.27 197.57 148.32 191.13 153.79 196.26 L 154.20 196.97 C 140.24 199.45 125.98 199.69 112.11 196.98 C 109.06 191.49 102.68 191.15 98.00 187.99 C 98.68 188.09 100.05 188.30 100.73 188.41 C 105.94 190.38 108.71 190.42 111.99 187.33 Z" />
</g>
<g id="#ca1189ff">
<path fill="#ca1189" opacity="1.00" d=" M 94.10 192.18 C 99.92 194.43 106.01 195.76 112.11 196.98 C 113.68 200.29 115.22 203.86 119.13 204.85 C 111.22 204.94 118.91 205.70 121.26 208.81 C 116.86 208.69 112.46 208.58 108.07 208.99 C 104.84 208.22 101.62 207.28 98.30 207.01 C 95.85 206.43 93.43 205.73 91.03 204.99 C 88.23 200.04 92.69 201.53 96.17 201.97 C 90.87 200.23 87.10 194.05 94.10 192.18 Z" />
</g>
<g id="#9e1c84ff">
<path fill="#9e1c84" opacity="1.00" d=" M 153.79 196.26 C 157.62 195.40 161.32 194.07 165.08 192.97 C 164.02 194.27 162.97 195.58 161.90 196.87 C 159.33 196.91 156.76 196.94 154.20 196.97 L 153.79 196.26 Z" />
</g>
<g id="#d197d5ff">
<path fill="#d197d5" opacity="1.00" d=" M 68.50 194.80 C 69.20 195.25 69.90 195.71 70.60 196.18 C 73.88 198.63 77.92 199.63 81.60 201.29 C 84.65 202.75 87.79 204.03 91.03 204.99 C 93.43 205.73 95.85 206.43 98.30 207.01 C 96.15 210.06 94.02 208.05 94.96 212.21 C 90.07 210.73 85.20 209.21 80.33 207.71 C 75.48 205.35 70.43 203.32 65.98 200.23 C 66.99 198.65 66.28 197.65 64.65 197.09 C 65.05 196.83 65.85 196.30 66.25 196.03 C 66.81 195.72 67.94 195.11 68.50 194.80 Z" />
</g>
<g id="#9873c9ff">
<path fill="#9873c9" opacity="1.00" d=" M 58.83 197.84 C 59.19 197.54 59.91 196.93 60.27 196.63 C 62.19 197.80 64.07 199.03 65.98 200.23 C 70.43 203.32 75.48 205.35 80.33 207.71 L 80.06 208.63 C 72.58 207.22 64.99 202.29 58.83 197.84 Z" />
</g>
<g id="#a91683ff">
<path fill="#a91683" opacity="1.00" d=" M 112.11 196.98 C 125.98 199.69 140.24 199.45 154.20 196.97 C 156.76 196.94 159.33 196.91 161.90 196.87 C 164.36 197.63 168.07 197.10 169.30 199.84 C 162.88 203.06 155.09 203.84 149.79 208.94 C 139.54 209.38 129.43 211.69 119.14 211.01 C 118.28 207.29 126.72 212.00 128.26 209.16 C 126.51 209.07 123.01 208.90 121.26 208.81 C 118.91 205.70 111.22 204.94 119.13 204.85 C 115.22 203.86 113.68 200.29 112.11 196.98 Z" />
</g>
<g id="#e06ebbff">
<path fill="#e06ebb" opacity="1.00" d=" M 153.17 209.13 C 157.82 207.91 162.13 205.78 166.55 203.97 C 166.63 204.70 166.69 205.43 166.74 206.17 C 159.53 210.70 149.14 213.47 140.24 214.60 C 125.15 213.95 109.73 216.84 94.96 212.21 C 94.02 208.05 96.15 210.06 98.30 207.01 C 101.62 207.28 104.84 208.22 108.07 208.99 C 107.42 209.89 105.66 210.44 106.04 211.81 C 121.74 214.08 138.08 214.80 153.17 209.13 Z" />
</g>
<g id="#cc4fa5ff">
<path fill="#cc4fa5" opacity="1.00" d=" M 80.33 207.71 C 85.20 209.21 90.07 210.73 94.96 212.21 C 109.73 216.84 125.15 213.95 140.24 214.60 C 137.39 216.08 134.13 215.94 131.01 216.02 C 123.66 215.97 116.32 216.00 108.98 216.00 C 99.29 214.76 88.59 213.54 80.06 208.63 L 80.33 207.71 Z" />
</g>
<g id="#d243a4ff">
<path fill="#d243a4" opacity="1.00" d=" M 108.07 208.99 C 112.46 208.58 116.86 208.69 121.26 208.81 C 123.01 208.90 126.51 209.07 128.26 209.16 C 126.72 212.00 118.28 207.29 119.14 211.01 C 129.43 211.69 139.54 209.38 149.79 208.94 C 150.63 208.99 152.33 209.08 153.17 209.13 C 138.08 214.80 121.74 214.08 106.04 211.81 C 105.66 210.44 107.42 209.89 108.07 208.99 Z" />
</g>
<g id="#f099d1ff">
<path fill="#f099d1" opacity="1.00" d=" M 108.98 216.00 C 116.32 216.00 123.66 215.97 131.01 216.02 C 126.39 217.07 113.54 218.64 108.98 216.00 Z" />
</g>
</svg>
