<?xml version="1.0" encoding="UTF-8" ?>
<!DOCTYPE svg PUBLIC "-//W3C//DTD SVG 1.1//EN" "http://www.w3.org/Graphics/SVG/1.1/DTD/svg11.dtd">
<svg width="250pt" height="250pt" viewBox="0 0 250 250" version="1.1" xmlns="http://www.w3.org/2000/svg">
<g id="#ffffffff">
<path fill="#ffffff" opacity="1.00" d=" M 0.00 0.00 L 250.00 0.00 L 250.00 250.00 L 0.00 250.00 L 0.00 0.00 M 182.17 59.24 C 179.34 60.10 177.75 62.74 176.10 64.98 C 168.62 75.19 161.02 85.33 153.54 95.54 C 151.97 97.65 149.97 100.10 147.06 99.96 C 144.36 100.18 142.17 98.38 140.39 96.60 C 132.37 88.64 124.44 80.59 116.37 72.68 C 113.17 69.58 108.55 67.17 104.02 68.51 C 98.69 70.15 95.44 74.97 91.84 78.87 C 81.40 90.12 71.26 101.62 60.94 112.97 C 59.16 114.90 57.43 117.17 57.34 119.91 C 56.92 125.25 61.43 129.58 65.98 131.52 C 69.19 132.99 73.01 131.81 75.24 129.19 C 84.01 119.64 92.63 109.92 101.41 100.37 C 104.04 97.39 108.87 97.58 111.57 100.36 C 121.34 109.63 130.78 119.25 140.48 128.59 C 145.11 132.74 153.96 133.26 157.60 127.54 C 170.00 110.30 182.42 93.08 194.85 75.85 C 197.51 72.50 198.31 67.17 195.22 63.84 C 191.84 60.59 187.05 57.32 182.17 59.24 M 211.12 77.24 C 208.07 78.06 205.46 80.08 203.74 82.70 C 188.09 104.69 172.23 126.53 156.65 148.56 C 154.86 150.91 153.34 154.17 150.14 154.75 C 147.48 155.11 145.32 153.13 143.61 151.37 C 135.11 141.88 126.60 132.41 118.10 122.93 C 116.09 120.57 113.32 118.57 110.09 118.64 C 106.80 118.51 103.95 120.53 101.98 122.99 C 94.53 131.88 87.06 140.76 79.63 149.66 C 78.34 151.01 77.05 152.83 74.99 152.89 C 72.85 153.06 71.01 151.74 69.50 150.40 C 61.14 142.46 53.10 134.15 44.56 126.42 C 36.35 121.37 25.68 130.17 26.96 139.07 C 27.45 142.06 30.02 143.97 31.95 146.07 C 43.32 158.00 54.76 169.88 66.15 181.80 C 69.09 184.93 73.57 186.87 77.86 185.84 C 81.71 184.81 84.21 181.48 86.57 178.52 C 92.80 170.74 99.08 163.01 105.32 155.23 C 106.90 153.40 108.51 151.24 111.01 150.67 C 113.30 151.08 114.92 152.86 116.36 154.54 C 123.23 162.66 130.25 170.66 137.13 178.77 C 143.10 187.27 157.21 187.86 163.97 179.98 C 169.25 173.53 173.32 166.17 178.77 159.83 C 194.02 138.01 208.99 115.98 224.23 94.15 C 225.46 92.35 226.70 90.32 226.39 88.04 C 225.60 80.99 218.18 75.13 211.12 77.24 Z" />
</g>
<g id="#1e5cfcff">
<path fill="#1e5cfc" opacity="1.00" d=" M 182.17 59.24 C 187.05 57.32 191.84 60.59 195.22 63.84 C 198.31 67.17 197.51 72.50 194.85 75.85 C 182.42 93.08 170.00 110.30 157.60 127.54 C 153.96 133.26 145.11 132.74 140.48 128.59 C 130.78 119.25 121.34 109.63 111.57 100.36 C 108.87 97.58 104.04 97.39 101.41 100.37 C 92.63 109.92 84.01 119.64 75.24 129.19 C 73.01 131.81 69.19 132.99 65.98 131.52 C 61.43 129.58 56.92 125.25 57.34 119.91 C 57.43 117.17 59.16 114.90 60.94 112.97 C 71.26 101.62 81.40 90.12 91.84 78.87 C 95.44 74.97 98.69 70.15 104.02 68.51 C 108.55 67.17 113.17 69.58 116.37 72.68 C 124.44 80.59 132.37 88.64 140.39 96.60 C 142.17 98.38 144.36 100.18 147.06 99.96 C 149.97 100.10 151.97 97.65 153.54 95.54 C 161.02 85.33 168.62 75.19 176.10 64.98 C 177.75 62.74 179.34 60.10 182.17 59.24 Z" />
<path fill="#1e5cfc" opacity="1.00" d=" M 211.12 77.24 C 218.18 75.13 225.60 80.99 226.39 88.04 C 226.70 90.32 225.46 92.35 224.23 94.15 C 208.99 115.98 194.02 138.01 178.77 159.83 C 173.32 166.17 169.25 173.53 163.97 179.98 C 157.21 187.86 143.10 187.27 137.13 178.77 C 130.25 170.66 123.23 162.66 116.36 154.54 C 114.92 152.86 113.30 151.08 111.01 150.67 C 108.51 151.24 106.90 153.40 105.32 155.23 C 99.08 163.01 92.80 170.74 86.57 178.52 C 84.21 181.48 81.71 184.81 77.86 185.84 C 73.57 186.87 69.09 184.93 66.15 181.80 C 54.76 169.88 43.32 158.00 31.95 146.07 C 30.02 143.97 27.45 142.06 26.96 139.07 C 25.68 130.17 36.35 121.37 44.56 126.42 C 53.10 134.15 61.14 142.46 69.50 150.40 C 71.01 151.74 72.85 153.06 74.99 152.89 C 77.05 152.83 78.34 151.01 79.63 149.66 C 87.06 140.76 94.53 131.88 101.98 122.99 C 103.95 120.53 106.80 118.51 110.09 118.64 C 113.32 118.57 116.09 120.57 118.10 122.93 C 126.60 132.41 135.11 141.88 143.61 151.37 C 145.32 153.13 147.48 155.11 150.14 154.75 C 153.34 154.17 154.86 150.91 156.65 148.56 C 172.23 126.53 188.09 104.69 203.74 82.70 C 205.46 80.08 208.07 78.06 211.12 77.24 Z" />
</g>
</svg>
