<?xml version="1.0" encoding="UTF-8" ?>
<!DOCTYPE svg PUBLIC "-//W3C//DTD SVG 1.1//EN" "http://www.w3.org/Graphics/SVG/1.1/DTD/svg11.dtd">
<svg width="250pt" height="250pt" viewBox="0 0 250 250" version="1.1" xmlns="http://www.w3.org/2000/svg">
<g id="#0a1356ff">
<path fill="#0a1356" opacity="1.00" d=" M 0.00 0.00 L 250.00 0.00 L 250.00 250.00 L 0.00 250.00 L 0.00 0.00 M 105.88 39.14 C 84.04 43.86 64.33 57.43 51.95 76.01 C 42.80 89.48 37.66 105.58 37.06 121.84 C 41.41 122.14 45.81 122.33 50.15 121.83 C 50.74 106.11 56.52 90.67 66.33 78.39 C 78.20 63.39 96.03 53.21 115.02 50.79 C 130.88 48.60 147.43 51.72 161.38 59.57 C 175.06 67.10 186.21 79.10 192.78 93.25 C 201.34 111.22 202.10 132.64 195.11 151.24 C 189.15 167.20 177.62 181.03 162.86 189.57 C 149.33 197.56 133.18 201.17 117.55 199.42 C 117.58 203.81 117.60 208.20 117.53 212.60 C 136.33 214.48 155.69 209.63 171.67 199.59 C 188.20 189.23 201.19 173.26 207.74 154.87 C 214.84 135.34 214.68 113.28 207.23 93.87 C 199.28 72.52 182.53 54.67 161.85 45.15 C 144.54 37.04 124.52 35.02 105.88 39.14 M 37.08 133.37 C 36.70 157.58 37.01 181.80 36.88 206.01 C 36.84 208.41 36.95 210.80 37.16 213.19 C 41.71 213.08 46.26 213.08 50.80 213.16 C 51.05 194.15 50.89 175.12 50.77 156.10 C 65.44 175.11 80.16 194.08 94.82 213.09 C 98.66 213.13 102.51 213.07 106.35 213.20 C 106.39 186.61 106.32 160.01 106.36 133.41 C 101.75 133.32 97.14 133.36 92.52 133.40 C 92.54 151.75 92.55 170.09 92.51 188.44 C 78.48 170.03 64.10 151.89 50.15 133.43 C 45.80 133.30 41.44 133.40 37.08 133.37 Z" />
</g>
<g id="#fefefcff">
<path fill="#fefefc" opacity="1.00" d=" M 105.88 39.14 C 124.52 35.02 144.54 37.04 161.85 45.15 C 182.53 54.67 199.28 72.52 207.23 93.87 C 214.68 113.28 214.84 135.34 207.74 154.87 C 201.19 173.26 188.20 189.23 171.67 199.59 C 155.69 209.63 136.33 214.48 117.53 212.60 C 117.60 208.20 117.58 203.81 117.55 199.42 C 133.18 201.17 149.33 197.56 162.86 189.57 C 177.62 181.03 189.15 167.20 195.11 151.24 C 202.10 132.64 201.34 111.22 192.78 93.25 C 186.21 79.10 175.06 67.10 161.38 59.57 C 147.43 51.72 130.88 48.60 115.02 50.79 C 96.03 53.21 78.20 63.39 66.33 78.39 C 56.52 90.67 50.74 106.11 50.15 121.83 C 45.81 122.33 41.41 122.14 37.06 121.84 C 37.66 105.58 42.80 89.48 51.95 76.01 C 64.33 57.43 84.04 43.86 105.88 39.14 Z" />
<path fill="#fefefc" opacity="1.00" d=" M 37.08 133.37 C 41.44 133.40 45.80 133.30 50.15 133.43 C 64.10 151.89 78.48 170.03 92.51 188.44 C 92.55 170.09 92.54 151.75 92.52 133.40 C 97.14 133.36 101.75 133.32 106.36 133.41 C 106.32 160.01 106.39 186.61 106.35 213.20 C 102.51 213.07 98.66 213.13 94.82 213.09 C 80.16 194.08 65.44 175.11 50.77 156.10 C 50.89 175.12 51.05 194.15 50.80 213.16 C 46.26 213.08 41.71 213.08 37.16 213.19 C 36.95 210.80 36.84 208.41 36.88 206.01 C 37.01 181.80 36.70 157.58 37.08 133.37 Z" />
</g>
</svg>
