<?xml version="1.0" encoding="UTF-8" ?>
<!DOCTYPE svg PUBLIC "-//W3C//DTD SVG 1.1//EN" "http://www.w3.org/Graphics/SVG/1.1/DTD/svg11.dtd">
<svg width="250pt" height="249pt" viewBox="0 0 250 249" version="1.1" xmlns="http://www.w3.org/2000/svg">
<g id="#ffffffff">
<path fill="#ffffff" opacity="1.00" d=" M 0.00 0.00 L 250.00 0.00 L 250.00 111.69 C 248.10 99.19 244.93 86.85 239.89 75.22 C 225.02 41.66 194.54 15.32 158.99 5.96 C 152.67 4.42 146.22 2.50 139.64 3.44 C 135.90 3.05 132.16 2.59 128.39 2.60 C 126.49 2.57 124.59 2.58 122.69 2.60 C 106.43 2.93 90.44 6.90 75.48 13.15 C 73.15 14.07 70.93 15.22 68.77 16.48 C 58.76 21.91 49.41 28.53 41.04 36.26 C 39.36 37.75 37.77 39.34 36.27 41.01 C 25.21 52.75 16.69 66.66 10.61 81.57 C 9.66 83.83 8.91 86.17 8.26 88.53 C 4.97 99.63 2.90 111.10 2.61 122.68 C 2.59 124.58 2.59 126.48 2.61 128.38 C 3.06 145.10 6.88 161.74 13.92 176.93 C 14.45 178.09 15.01 179.25 15.58 180.40 C 15.76 180.74 16.11 181.43 16.29 181.77 C 21.57 192.13 28.47 201.57 36.30 210.13 C 37.75 211.74 39.29 213.27 40.89 214.73 C 52.52 225.58 66.13 234.25 80.91 240.15 C 83.42 241.20 85.99 242.09 88.62 242.80 C 90.69 243.38 92.77 243.95 94.83 244.57 C 99.60 247.35 105.23 247.57 110.45 249.00 L 0.00 249.00 L 0.00 0.00 Z" />
<path fill="#ffffff" opacity="1.00" d=" M 246.78 155.87 C 248.01 150.78 248.95 145.64 250.00 140.51 L 250.00 249.00 L 142.06 249.00 C 149.03 247.25 156.15 246.18 163.00 244.00 C 203.81 231.98 236.58 197.06 246.78 155.87 Z" />
</g>
<g id="#92dddeff">
<path fill="#92ddde" opacity="1.00" d=" M 75.48 13.15 C 90.44 6.90 106.43 2.93 122.69 2.60 C 120.81 4.75 118.78 6.77 116.48 8.47 C 111.17 12.37 106.20 16.73 100.58 20.17 C 92.38 18.03 84.02 16.66 75.78 14.71 C 75.71 14.32 75.55 13.54 75.48 13.15 Z" />
</g>
<g id="#b4e6e7ff">
<path fill="#b4e6e7" opacity="1.00" d=" M 122.69 2.60 C 124.59 2.58 126.49 2.57 128.39 2.60 C 133.17 7.16 138.26 11.75 144.15 14.78 C 150.47 13.66 156.50 11.11 162.35 8.51 C 164.39 9.18 166.41 9.90 168.44 10.62 C 172.60 18.48 178.30 25.39 182.42 33.28 C 177.39 33.63 172.37 33.03 167.40 32.29 C 165.42 32.03 163.57 31.18 161.99 29.97 C 156.15 25.46 150.51 20.67 144.76 16.06 C 139.59 16.71 134.89 19.42 129.91 20.87 C 125.36 22.12 120.87 25.43 115.98 23.94 C 110.69 22.76 105.46 21.23 100.05 20.66 L 100.58 20.17 C 106.20 16.73 111.17 12.37 116.48 8.47 C 118.78 6.77 120.81 4.75 122.69 2.60 Z" />
</g>
<g id="#8fdbddff">
<path fill="#8fdbdd" opacity="1.00" d=" M 128.39 2.60 C 132.16 2.59 135.90 3.05 139.64 3.44 C 147.29 4.73 154.97 6.06 162.35 8.51 C 156.50 11.11 150.47 13.66 144.15 14.78 C 138.26 11.75 133.17 7.16 128.39 2.60 Z" />
</g>
<g id="#e0f5f5ff">
<path fill="#e0f5f5" opacity="1.00" d=" M 139.64 3.44 C 146.22 2.50 152.67 4.42 158.99 5.96 C 194.54 15.32 225.02 41.66 239.89 75.22 C 244.93 86.85 248.10 99.19 250.00 111.69 L 250.00 140.51 C 248.95 145.64 248.01 150.78 246.78 155.87 C 236.58 197.06 203.81 231.98 163.00 244.00 C 156.15 246.18 149.03 247.25 142.06 249.00 L 110.45 249.00 C 105.23 247.57 99.60 247.35 94.83 244.57 C 104.01 246.36 113.23 248.09 122.61 248.22 C 124.59 248.26 126.56 248.27 128.54 248.23 C 144.76 247.90 160.83 244.16 175.70 237.70 C 176.72 237.24 177.73 236.74 178.73 236.23 C 181.24 234.91 182.28 232.19 183.24 229.70 C 184.88 225.28 187.32 221.14 188.14 216.43 C 181.80 216.99 175.50 217.91 169.17 218.46 C 162.22 218.61 157.85 224.77 152.81 228.68 C 151.62 229.36 150.47 230.50 149.01 230.36 C 142.48 229.57 136.10 226.17 129.42 227.61 C 121.86 229.83 114.69 233.19 107.09 235.27 C 101.20 230.36 95.21 225.57 89.20 220.81 C 86.65 218.63 83.15 218.64 80.00 218.22 C 76.51 217.89 72.80 216.91 69.52 218.70 C 69.16 218.10 68.79 217.52 68.42 216.94 C 65.44 212.41 62.87 207.62 59.76 203.18 C 58.56 201.33 56.52 200.34 54.60 199.42 C 48.08 196.45 41.63 193.32 35.10 190.38 C 28.95 187.28 22.93 183.74 16.29 181.77 C 16.11 181.43 15.76 180.74 15.58 180.40 C 21.90 182.91 28.09 185.80 34.56 187.93 C 34.09 181.60 33.12 175.33 32.57 169.01 C 32.37 162.11 26.28 157.78 22.42 152.75 C 19.29 149.97 21.75 145.71 22.27 142.34 C 22.97 138.09 25.38 133.67 23.78 129.37 C 21.13 121.66 18.04 114.09 15.73 106.27 C 20.96 101.57 24.83 95.64 29.36 90.31 C 32.99 86.29 32.71 80.57 33.37 75.55 C 33.72 73.46 33.11 71.43 32.30 69.52 C 32.90 69.15 33.50 68.77 34.11 68.39 C 38.68 65.47 43.45 62.88 47.92 59.81 C 50.25 58.35 51.20 55.64 52.36 53.29 C 55.15 47.04 58.34 40.98 60.86 34.61 C 67.30 34.39 73.67 33.36 80.08 32.82 C 82.98 32.49 86.11 32.36 88.59 30.62 C 92.76 27.74 96.66 24.44 100.05 20.66 C 105.46 21.23 110.69 22.76 115.98 23.94 C 120.87 25.43 125.36 22.12 129.91 20.87 C 134.89 19.42 139.59 16.71 144.76 16.06 C 150.51 20.67 156.15 25.46 161.99 29.97 C 163.57 31.18 165.42 32.03 167.40 32.29 C 172.37 33.03 177.39 33.63 182.42 33.28 C 182.54 33.47 182.77 33.84 182.88 34.03 C 185.78 38.53 188.33 43.24 191.41 47.61 C 193.05 50.10 195.87 51.30 198.48 52.50 C 204.45 55.13 210.23 58.18 216.30 60.58 C 216.53 60.68 216.99 60.88 217.23 60.98 C 216.99 69.32 218.10 77.64 219.38 85.85 C 221.45 90.83 225.56 94.69 229.18 98.59 C 231.69 94.12 231.93 88.88 233.53 84.09 C 234.72 79.09 237.90 73.53 234.51 68.70 C 229.16 58.42 222.31 48.90 214.21 40.60 C 213.00 39.35 211.77 38.10 210.53 36.88 C 198.54 25.34 184.12 16.24 168.44 10.62 C 166.41 9.90 164.39 9.18 162.35 8.51 C 154.97 6.06 147.29 4.73 139.64 3.44 M 115.42 27.58 C 91.67 29.89 69.24 41.55 53.03 58.95 C 43.99 68.93 37.09 80.76 32.53 93.42 C 21.54 124.69 27.70 161.51 48.87 187.12 C 60.69 202.32 77.42 213.50 95.71 219.35 C 109.93 224.05 125.22 224.81 140.00 222.98 C 156.15 220.82 171.43 214.07 184.61 204.61 C 199.26 193.32 211.29 178.28 217.76 160.86 C 226.43 138.10 226.39 112.08 217.43 89.41 C 207.13 62.91 184.62 41.44 157.65 32.42 C 144.14 27.68 129.64 26.36 115.42 27.58 M 236.41 74.99 C 235.21 83.78 232.13 92.20 230.74 100.97 L 231.24 101.57 C 229.45 106.36 228.50 111.40 227.48 116.39 C 226.57 120.21 228.48 123.80 229.68 127.31 C 231.41 132.27 233.26 137.18 235.02 142.13 C 235.55 143.36 234.72 144.63 234.52 145.85 C 231.76 148.04 229.93 151.09 227.70 153.76 C 225.06 157.38 221.73 160.54 219.52 164.44 C 218.36 169.52 218.24 174.79 217.53 179.95 C 224.87 177.30 230.95 172.00 237.96 168.60 C 238.21 168.68 238.71 168.83 238.96 168.91 C 231.43 172.67 224.62 177.85 217.43 182.26 L 217.36 183.02 C 212.63 185.21 208.39 188.26 203.98 191.00 C 200.82 192.72 199.89 196.42 198.34 199.40 C 195.90 205.06 192.63 210.39 190.89 216.33 L 190.03 216.43 C 187.31 222.46 184.76 228.56 182.01 234.57 C 192.43 229.18 202.14 222.35 210.56 214.17 C 211.96 213.13 213.22 211.87 214.25 210.46 C 225.82 198.84 234.42 184.53 240.56 169.39 C 241.09 167.71 241.59 166.02 242.01 164.32 C 242.19 163.88 242.55 163.00 242.72 162.57 C 245.70 153.72 247.30 144.45 248.19 135.18 C 248.95 129.13 248.76 122.96 248.28 116.89 C 247.21 103.32 244.03 89.90 238.67 77.38 C 238.15 76.35 237.85 74.85 236.41 74.99 Z" />
</g>
<g id="#90dcddff">
<path fill="#90dcdd" opacity="1.00" d=" M 182.42 33.28 C 178.30 25.39 172.60 18.48 168.44 10.62 C 184.12 16.24 198.54 25.34 210.53 36.88 C 201.25 36.58 192.16 34.42 182.88 34.03 C 182.77 33.84 182.54 33.47 182.42 33.28 Z" />
</g>
<g id="#bceceeff">
<path fill="#bcecee" opacity="1.00" d=" M 68.77 16.48 C 70.93 15.22 73.15 14.07 75.48 13.15 C 75.55 13.54 75.71 14.32 75.78 14.71 C 84.02 16.66 92.38 18.03 100.58 20.17 L 100.05 20.66 C 96.66 24.44 92.76 27.74 88.59 30.62 C 86.11 32.36 82.98 32.49 80.08 32.82 C 73.67 33.36 67.30 34.39 60.86 34.61 C 63.27 28.46 67.24 22.96 68.77 16.48 Z" />
</g>
<g id="#91dcddff">
<path fill="#91dcdd" opacity="1.00" d=" M 41.04 36.26 C 49.41 28.53 58.76 21.91 68.77 16.48 C 67.24 22.96 63.27 28.46 60.86 34.61 C 54.24 35.07 47.71 37.18 41.04 36.26 Z" />
</g>
<g id="#fcfdfdff">
<path fill="#fcfdfd" opacity="1.00" d=" M 115.42 27.58 C 129.64 26.36 144.14 27.68 157.65 32.42 C 184.62 41.44 207.13 62.91 217.43 89.41 C 226.39 112.08 226.43 138.10 217.76 160.86 C 211.29 178.28 199.26 193.32 184.61 204.61 C 171.43 214.07 156.15 220.82 140.00 222.98 C 125.22 224.81 109.93 224.05 95.71 219.35 C 77.42 213.50 60.69 202.32 48.87 187.12 C 27.70 161.51 21.54 124.69 32.53 93.42 C 37.09 80.76 43.99 68.93 53.03 58.95 C 69.24 41.55 91.67 29.89 115.42 27.58 M 70.31 69.87 C 70.12 106.93 70.20 144.00 70.27 181.06 C 73.63 181.16 77.01 181.26 80.36 180.88 C 80.34 147.24 80.37 113.60 80.35 79.95 C 77.01 76.58 73.66 73.23 70.31 69.87 M 131.37 70.16 C 131.41 90.22 131.31 110.29 131.42 130.36 C 134.79 133.59 138.03 136.97 141.39 140.21 C 141.53 116.86 141.42 93.51 141.45 70.17 C 138.09 70.15 134.73 70.14 131.37 70.16 M 151.64 70.19 C 151.63 96.89 151.68 123.60 151.62 150.30 C 154.87 153.71 158.21 157.05 161.62 160.31 C 161.84 130.26 161.66 100.21 161.71 70.15 C 158.35 70.14 154.99 70.14 151.64 70.19 M 172.20 70.16 C 172.27 103.71 172.07 137.27 172.29 170.82 C 175.32 174.42 178.90 177.55 182.22 180.90 C 182.28 144.00 182.21 107.09 182.26 70.19 C 178.90 70.14 175.55 70.14 172.20 70.16 M 90.67 90.08 C 90.47 120.42 90.57 150.76 90.61 181.10 C 93.97 181.13 97.33 181.21 100.68 180.89 C 100.59 154.01 100.79 127.13 100.59 100.26 C 97.57 96.62 93.89 93.55 90.67 90.08 M 110.87 110.66 C 110.80 134.02 110.83 157.39 110.85 180.75 C 114.29 181.27 117.79 181.28 121.23 180.71 C 121.19 160.78 121.17 140.84 121.24 120.91 C 118.02 117.27 114.61 113.77 110.87 110.66 Z" />
</g>
<g id="#b3e7e8ff">
<path fill="#b3e7e8" opacity="1.00" d=" M 182.88 34.03 C 192.16 34.42 201.25 36.58 210.53 36.88 C 211.77 38.10 213.00 39.35 214.21 40.60 C 214.77 47.28 216.26 53.86 216.30 60.58 C 210.23 58.18 204.45 55.13 198.48 52.50 C 195.87 51.30 193.05 50.10 191.41 47.61 C 188.33 43.24 185.78 38.53 182.88 34.03 Z" />
</g>
<g id="#b1e4e5ff">
<path fill="#b1e4e5" opacity="1.00" d=" M 41.04 36.26 C 47.71 37.18 54.24 35.07 60.86 34.61 C 58.34 40.98 55.15 47.04 52.36 53.29 C 51.20 55.64 50.25 58.35 47.92 59.81 C 43.45 62.88 38.68 65.47 34.11 68.39 C 33.85 59.17 37.36 50.20 36.27 41.01 C 37.77 39.34 39.36 37.75 41.04 36.26 Z" />
</g>
<g id="#8cdbdcff">
<path fill="#8cdbdc" opacity="1.00" d=" M 214.21 40.60 C 222.31 48.90 229.16 58.42 234.51 68.70 C 228.46 66.80 223.05 63.42 217.23 60.98 C 216.99 60.88 216.53 60.68 216.30 60.58 C 216.26 53.86 214.77 47.28 214.21 40.60 Z" />
</g>
<g id="#93dcdeff">
<path fill="#93dcde" opacity="1.00" d=" M 10.61 81.57 C 16.69 66.66 25.21 52.75 36.27 41.01 C 37.36 50.20 33.85 59.17 34.11 68.39 C 33.50 68.77 32.90 69.15 32.30 69.52 C 25.25 73.50 18.68 78.24 11.84 82.56 C 11.53 82.31 10.92 81.81 10.61 81.57 Z" />
</g>
<g id="#b2e4e5ff">
<path fill="#b2e4e5" opacity="1.00" d=" M 217.23 60.98 C 223.05 63.42 228.46 66.80 234.51 68.70 C 237.90 73.53 234.72 79.09 233.53 84.09 C 231.93 88.88 231.69 94.12 229.18 98.59 C 225.56 94.69 221.45 90.83 219.38 85.85 C 218.10 77.64 216.99 69.32 217.23 60.98 Z" />
</g>
<g id="#bbeceeff">
<path fill="#bbecee" opacity="1.00" d=" M 11.84 82.56 C 18.68 78.24 25.25 73.50 32.30 69.52 C 33.11 71.43 33.72 73.46 33.37 75.55 C 32.71 80.57 32.99 86.29 29.36 90.31 C 24.83 95.64 20.96 101.57 15.73 106.27 L 15.32 106.71 C 12.91 100.67 11.52 94.21 8.26 88.53 C 8.91 86.17 9.66 83.83 10.61 81.57 C 10.92 81.81 11.53 82.31 11.84 82.56 Z" />
</g>
<g id="#2de1e8ff">
<path fill="#2de1e8" opacity="1.00" d=" M 70.31 69.87 C 73.66 73.23 77.01 76.58 80.35 79.95 C 80.37 113.60 80.34 147.24 80.36 180.88 C 77.01 181.26 73.63 181.16 70.27 181.06 C 70.20 144.00 70.12 106.93 70.31 69.87 Z" />
<path fill="#2de1e8" opacity="1.00" d=" M 90.67 90.08 C 93.89 93.55 97.57 96.62 100.59 100.26 C 100.79 127.13 100.59 154.01 100.68 180.89 C 97.33 181.21 93.97 181.13 90.61 181.10 C 90.57 150.76 90.47 120.42 90.67 90.08 Z" />
<path fill="#2de1e8" opacity="1.00" d=" M 110.87 110.66 C 114.61 113.77 118.02 117.27 121.24 120.91 C 121.17 140.84 121.19 160.78 121.23 180.71 C 117.79 181.28 114.29 181.27 110.85 180.75 C 110.83 157.39 110.80 134.02 110.87 110.66 Z" />
</g>
<g id="#1f9b99ff">
<path fill="#1f9b99" opacity="1.00" d=" M 131.37 70.16 C 134.73 70.14 138.09 70.15 141.45 70.17 C 141.42 93.51 141.53 116.86 141.39 140.21 C 138.03 136.97 134.79 133.59 131.42 130.36 C 131.31 110.29 131.41 90.22 131.37 70.16 Z" />
<path fill="#1f9b99" opacity="1.00" d=" M 151.64 70.19 C 154.99 70.14 158.35 70.14 161.71 70.15 C 161.66 100.21 161.84 130.26 161.62 160.31 C 158.21 157.05 154.87 153.71 151.62 150.30 C 151.68 123.60 151.63 96.89 151.64 70.19 Z" />
<path fill="#1f9b99" opacity="1.00" d=" M 172.20 70.16 C 175.55 70.14 178.90 70.14 182.26 70.19 C 182.21 107.09 182.28 144.00 182.22 180.90 C 178.90 177.55 175.32 174.42 172.29 170.82 C 172.07 137.27 172.27 103.71 172.20 70.16 Z" />
</g>
<g id="#8bdadbff">
<path fill="#8bdadb" opacity="1.00" d=" M 236.41 74.99 C 237.85 74.85 238.15 76.35 238.67 77.38 C 244.03 89.90 247.21 103.32 248.28 116.89 C 248.23 118.73 248.11 120.57 248.00 122.41 C 242.07 115.74 237.12 108.27 231.24 101.57 L 230.74 100.97 C 232.13 92.20 235.21 83.78 236.41 74.99 Z" />
</g>
<g id="#90dbddff">
<path fill="#90dbdd" opacity="1.00" d=" M 8.26 88.53 C 11.52 94.21 12.91 100.67 15.32 106.71 C 11.55 112.38 7.69 118.09 2.61 122.68 C 2.90 111.10 4.97 99.63 8.26 88.53 Z" />
</g>
<g id="#b2e9ebff">
<path fill="#b2e9eb" opacity="1.00" d=" M 231.24 101.57 C 237.12 108.27 242.07 115.74 248.00 122.41 C 248.11 120.57 248.23 118.73 248.28 116.89 C 248.76 122.96 248.95 129.13 248.19 135.18 C 248.20 133.02 248.10 130.86 247.99 128.70 C 243.84 133.65 239.74 138.67 236.12 144.02 C 238.03 150.30 240.20 156.51 242.72 162.57 C 242.55 163.00 242.19 163.88 242.01 164.32 C 239.20 158.30 236.60 152.17 234.52 145.85 C 234.72 144.63 235.55 143.36 235.02 142.13 C 233.26 137.18 231.41 132.27 229.68 127.31 C 228.48 123.80 226.57 120.21 227.48 116.39 C 228.50 111.40 229.45 106.36 231.24 101.57 Z" />
</g>
<g id="#b3e6e7ff">
<path fill="#b3e6e7" opacity="1.00" d=" M 15.32 106.71 L 15.73 106.27 C 18.04 114.09 21.13 121.66 23.78 129.37 C 25.38 133.67 22.97 138.09 22.27 142.34 C 21.75 145.71 19.29 149.97 22.42 152.75 C 26.28 157.78 32.37 162.11 32.57 169.01 C 33.12 175.33 34.09 181.60 34.56 187.93 C 28.09 185.80 21.90 182.91 15.58 180.40 C 15.01 179.25 14.45 178.09 13.92 176.93 C 15.98 170.96 16.79 164.67 18.27 158.55 C 18.86 155.76 19.69 152.97 19.59 150.10 C 19.01 147.80 17.19 146.08 15.82 144.22 C 11.38 138.97 7.71 133.06 2.61 128.38 C 2.59 126.48 2.59 124.58 2.61 122.68 C 7.69 118.09 11.55 112.38 15.32 106.71 Z" />
</g>
<g id="#90dcdeff">
<path fill="#90dcde" opacity="1.00" d=" M 2.61 128.38 C 7.71 133.06 11.38 138.97 15.82 144.22 C 17.19 146.08 19.01 147.80 19.59 150.10 C 19.69 152.97 18.86 155.76 18.27 158.55 C 16.79 164.67 15.98 170.96 13.92 176.93 C 6.88 161.74 3.06 145.10 2.61 128.38 Z" />
</g>
<g id="#87d8d9ff">
<path fill="#87d8d9" opacity="1.00" d=" M 236.12 144.02 C 239.74 138.67 243.84 133.65 247.99 128.70 C 248.10 130.86 248.20 133.02 248.19 135.18 C 247.30 144.45 245.70 153.72 242.72 162.57 C 240.20 156.51 238.03 150.30 236.12 144.02 Z" />
<path fill="#87d8d9" opacity="1.00" d=" M 190.89 216.33 C 197.45 215.59 203.98 214.59 210.56 214.17 C 202.14 222.35 192.43 229.18 182.01 234.57 C 184.76 228.56 187.31 222.46 190.03 216.43 L 190.89 216.33 Z" />
</g>
<g id="#addfe0ff">
<path fill="#addfe0" opacity="1.00" d=" M 227.70 153.76 C 229.93 151.09 231.76 148.04 234.52 145.85 C 236.60 152.17 239.20 158.30 242.01 164.32 C 241.59 166.02 241.09 167.71 240.56 169.39 C 240.16 169.27 239.36 169.03 238.96 168.91 C 238.71 168.83 238.21 168.68 237.96 168.60 C 230.95 172.00 224.87 177.30 217.53 179.95 C 218.24 174.79 218.36 169.52 219.52 164.44 C 221.73 160.54 225.06 157.38 227.70 153.76 Z" />
<path fill="#addfe0" opacity="1.00" d=" M 169.17 218.46 C 175.50 217.91 181.80 216.99 188.14 216.43 C 187.32 221.14 184.88 225.28 183.24 229.70 C 182.28 232.19 181.24 234.91 178.73 236.23 C 170.36 232.79 161.30 231.70 152.81 228.68 C 157.85 224.77 162.22 218.61 169.17 218.46 Z" />
</g>
<g id="#89d9daff">
<path fill="#89d9da" opacity="1.00" d=" M 217.43 182.26 C 224.62 177.85 231.43 172.67 238.96 168.91 C 239.36 169.03 240.16 169.27 240.56 169.39 C 234.42 184.53 225.82 198.84 214.25 210.46 C 215.12 201.29 216.53 192.19 217.36 183.02 L 217.43 182.26 Z" />
<path fill="#89d9da" opacity="1.00" d=" M 144.90 234.92 C 147.20 233.24 149.57 230.52 152.74 231.55 C 160.24 233.08 167.74 234.68 175.22 236.33 C 175.34 236.68 175.58 237.36 175.70 237.70 C 160.83 244.16 144.76 247.90 128.54 248.23 C 133.64 243.37 139.51 239.44 144.90 234.92 Z" />
</g>
<g id="#8ddbddff">
<path fill="#8ddbdd" opacity="1.00" d=" M 16.29 181.77 C 22.93 183.74 28.95 187.28 35.10 190.38 C 35.00 197.01 37.28 203.50 36.30 210.13 C 28.47 201.57 21.57 192.13 16.29 181.77 Z" />
</g>
<g id="#b4ebedff">
<path fill="#b4ebed" opacity="1.00" d=" M 203.98 191.00 C 208.39 188.26 212.63 185.21 217.36 183.02 C 216.53 192.19 215.12 201.29 214.25 210.46 C 213.22 211.87 211.96 213.13 210.56 214.17 C 203.98 214.59 197.45 215.59 190.89 216.33 C 192.63 210.39 195.90 205.06 198.34 199.40 C 199.89 196.42 200.82 192.72 203.98 191.00 Z" />
</g>
<g id="#b2e7e9ff">
<path fill="#b2e7e9" opacity="1.00" d=" M 35.10 190.38 C 41.63 193.32 48.08 196.45 54.60 199.42 C 56.52 200.34 58.56 201.33 59.76 203.18 C 62.87 207.62 65.44 212.41 68.42 216.94 C 59.16 217.10 50.13 214.03 40.89 214.73 C 39.29 213.27 37.75 211.74 36.30 210.13 C 37.28 203.50 35.00 197.01 35.10 190.38 Z" />
</g>
<g id="#8ddcddff">
<path fill="#8ddcdd" opacity="1.00" d=" M 40.89 214.73 C 50.13 214.03 59.16 217.10 68.42 216.94 C 68.79 217.52 69.16 218.10 69.52 218.70 C 73.40 226.15 78.70 232.71 82.89 239.98 C 82.40 240.02 81.40 240.11 80.91 240.15 C 66.13 234.25 52.52 225.58 40.89 214.73 Z" />
</g>
<g id="#b1e6e8ff">
<path fill="#b1e6e8" opacity="1.00" d=" M 69.52 218.70 C 72.80 216.91 76.51 217.89 80.00 218.22 C 83.15 218.64 86.65 218.63 89.20 220.81 C 95.21 225.57 101.20 230.36 107.09 235.27 C 114.69 233.19 121.86 229.83 129.42 227.61 C 136.10 226.17 142.48 229.57 149.01 230.36 C 150.47 230.50 151.62 229.36 152.81 228.68 C 161.30 231.70 170.36 232.79 178.73 236.23 C 177.73 236.74 176.72 237.24 175.70 237.70 C 175.58 237.36 175.34 236.68 175.22 236.33 C 167.74 234.68 160.24 233.08 152.74 231.55 C 149.57 230.52 147.20 233.24 144.90 234.92 C 139.51 239.44 133.64 243.37 128.54 248.23 C 126.56 248.27 124.59 248.26 122.61 248.22 C 118.44 244.07 113.72 240.51 108.97 237.06 C 107.27 235.58 105.03 236.69 103.18 237.19 C 98.26 238.89 93.25 240.41 88.62 242.80 C 85.99 242.09 83.42 241.20 80.91 240.15 C 81.40 240.11 82.40 240.02 82.89 239.98 C 78.70 232.71 73.40 226.15 69.52 218.70 Z" />
</g>
<g id="#88d9daff">
<path fill="#88d9da" opacity="1.00" d=" M 103.18 237.19 C 105.03 236.69 107.27 235.58 108.97 237.06 C 113.72 240.51 118.44 244.07 122.61 248.22 C 113.23 248.09 104.01 246.36 94.83 244.57 C 92.77 243.95 90.69 243.38 88.62 242.80 C 93.25 240.41 98.26 238.89 103.18 237.19 Z" />
</g>
</svg>
