<?xml version="1.0" encoding="UTF-8" ?>
<!DOCTYPE svg PUBLIC "-//W3C//DTD SVG 1.1//EN" "http://www.w3.org/Graphics/SVG/1.1/DTD/svg11.dtd">
<svg width="250pt" height="250pt" viewBox="0 0 250 250" version="1.1" xmlns="http://www.w3.org/2000/svg">
<g id="#ffffffff">
<path fill="#ffffff" opacity="1.00" d=" M 0.00 0.00 L 250.00 0.00 L 250.00 250.00 L 0.00 250.00 L 0.00 0.00 M 171.38 15.46 C 155.30 16.09 139.09 17.51 123.45 21.55 C 116.67 26.27 107.71 24.66 100.00 25.02 C 76.77 25.35 52.61 23.53 30.04 29.03 C 14.11 39.38 12.90 60.94 17.29 77.70 C 20.77 101.97 29.53 125.69 42.68 146.30 C 62.14 179.20 94.31 204.41 128.86 220.27 C 152.30 228.06 176.90 238.08 201.84 231.66 C 214.97 228.96 222.66 214.64 222.15 202.01 C 227.44 174.90 220.37 146.53 226.38 119.36 C 233.27 104.88 231.12 88.13 234.05 73.02 C 234.40 56.12 235.07 35.44 220.32 23.68 C 206.66 12.85 187.78 14.54 171.38 15.46 Z" />
</g>
<g id="#fafafaff">
<path fill="#fafafa" opacity="1.00" d=" M 171.38 15.46 C 187.78 14.54 206.66 12.85 220.32 23.68 C 235.07 35.44 234.40 56.12 234.05 73.02 C 231.12 88.13 233.27 104.88 226.38 119.36 C 220.37 146.53 227.44 174.90 222.15 202.01 C 222.66 214.64 214.97 228.96 201.84 231.66 C 176.90 238.08 152.30 228.06 128.86 220.27 C 94.31 204.41 62.14 179.20 42.68 146.30 C 29.53 125.69 20.77 101.97 17.29 77.70 C 12.90 60.94 14.11 39.38 30.04 29.03 C 52.61 23.53 76.77 25.35 100.00 25.02 C 107.71 24.66 116.67 26.27 123.45 21.55 C 139.09 17.51 155.30 16.09 171.38 15.46 M 177.98 19.02 C 165.04 20.40 152.03 21.35 139.00 21.05 C 133.81 20.76 126.41 22.81 125.94 29.05 C 94.59 28.98 63.23 28.90 31.88 29.11 L 32.21 30.03 C 31.55 31.51 30.90 33.08 31.26 34.74 C 31.12 36.46 30.84 39.91 30.70 41.64 C 23.68 47.26 22.17 57.57 23.01 66.00 C 25.67 87.11 30.95 108.15 40.76 127.15 C 66.80 180.36 120.70 218.72 179.57 225.60 C 191.75 227.24 207.39 223.97 212.19 211.12 C 221.16 182.13 211.94 151.07 218.56 121.62 C 223.43 104.42 224.66 86.55 226.75 68.88 C 227.59 54.87 225.94 37.41 213.21 28.78 C 211.17 25.84 210.40 20.76 205.85 21.07 C 205.40 20.80 204.51 20.25 204.06 19.98 C 197.07 15.06 184.41 18.51 177.98 19.02 Z" />
</g>
<g id="#fbe7b9ff">
<path fill="#fbe7b9" opacity="1.00" d=" M 177.98 19.02 C 184.41 18.51 197.07 15.06 204.06 19.98 C 197.83 19.04 191.51 18.89 185.23 19.21 C 183.42 19.16 179.79 19.07 177.98 19.02 Z" />
</g>
<g id="#fcd783ff">
<path fill="#fcd783" opacity="1.00" d=" M 139.00 21.05 C 152.03 21.35 165.04 20.40 177.98 19.02 C 179.79 19.07 183.42 19.16 185.23 19.21 C 168.20 21.02 151.12 22.32 134.01 23.06 C 130.14 23.11 127.35 26.50 127.50 30.26 C 127.07 30.19 126.23 30.05 125.81 29.98 L 125.94 29.05 C 126.41 22.81 133.81 20.76 139.00 21.05 Z" />
</g>
<g id="#feb819ff">
<path fill="#feb819" opacity="1.00" d=" M 185.23 19.21 C 191.51 18.89 197.83 19.04 204.06 19.98 C 204.51 20.25 205.40 20.80 205.85 21.07 C 208.70 23.79 210.91 27.11 212.13 30.87 C 212.20 40.97 211.85 51.06 211.08 61.13 L 210.96 61.92 C 209.16 75.38 207.78 88.85 205.08 102.16 C 204.06 103.92 202.96 105.63 201.96 107.40 C 201.51 107.75 200.59 108.43 200.14 108.77 C 199.84 109.00 199.25 109.44 198.95 109.67 C 197.27 110.95 195.16 111.32 193.09 111.08 C 191.30 109.01 189.72 106.75 188.82 104.14 C 190.71 100.12 186.55 95.32 183.18 99.24 C 175.35 116.05 165.19 131.90 152.26 145.29 C 148.95 147.90 145.04 149.96 140.79 150.32 C 140.43 147.58 140.09 144.83 139.90 142.08 C 141.78 138.69 141.98 134.67 143.00 130.99 C 143.26 130.54 143.79 129.63 144.05 129.18 C 145.99 126.27 147.92 123.32 149.11 120.02 C 149.32 119.76 149.75 119.26 149.96 119.00 C 152.49 116.13 155.67 113.64 157.11 109.98 C 157.32 109.71 157.74 109.17 157.95 108.89 C 159.87 106.75 161.51 104.42 162.90 101.91 C 163.69 100.64 164.43 99.33 165.14 98.02 C 166.59 95.74 166.93 93.41 166.14 91.04 C 166.67 87.08 163.47 83.89 159.71 83.36 C 143.41 84.55 134.97 106.22 117.71 103.32 C 114.65 101.03 116.66 97.60 118.10 95.00 C 118.77 94.42 119.43 93.83 120.08 93.24 C 123.40 91.27 126.78 89.10 128.94 85.82 C 129.19 85.61 129.68 85.17 129.93 84.96 C 133.34 83.18 136.92 80.82 138.06 76.93 C 138.65 75.95 139.25 74.98 139.88 74.02 C 144.43 69.73 147.02 58.76 140.06 55.84 C 138.20 54.77 136.26 53.75 134.72 52.22 C 134.35 47.80 134.27 43.35 134.88 38.95 C 135.88 34.32 129.55 33.54 127.50 30.26 C 127.35 26.50 130.14 23.11 134.01 23.06 C 151.12 22.32 168.20 21.02 185.23 19.21 Z" />
</g>
<g id="#f0f0f0ff">
<path fill="#f0f0f0" opacity="1.00" d=" M 205.85 21.07 C 210.40 20.76 211.17 25.84 213.21 28.78 C 225.94 37.41 227.59 54.87 226.75 68.88 C 224.66 86.55 223.43 104.42 218.56 121.62 C 211.94 151.07 221.16 182.13 212.19 211.12 C 207.39 223.97 191.75 227.24 179.57 225.60 C 120.70 218.72 66.80 180.36 40.76 127.15 C 30.95 108.15 25.67 87.11 23.01 66.00 C 22.17 57.57 23.68 47.26 30.70 41.64 C 30.84 39.91 31.12 36.46 31.26 34.74 C 31.73 39.40 31.91 44.09 32.38 48.76 C 26.62 68.77 33.05 89.41 39.67 108.36 C 59.38 160.09 105.01 201.77 159.01 214.94 C 172.46 218.15 188.00 222.44 200.69 214.73 C 205.96 210.29 207.94 202.96 208.38 196.33 C 210.70 168.30 205.55 139.41 214.11 112.09 C 217.85 86.68 225.57 58.89 213.44 34.62 C 213.02 33.37 212.61 32.11 212.13 30.87 C 210.91 27.11 208.70 23.79 205.85 21.07 Z" />
</g>
<g id="#dcc9fbff">
<path fill="#dcc9fb" opacity="1.00" d=" M 31.88 29.11 C 63.23 28.90 94.59 28.98 125.94 29.05 L 125.81 29.98 C 94.61 30.04 63.41 29.95 32.21 30.03 L 31.88 29.11 Z" />
</g>
<g id="#af7ffbff">
<path fill="#af7ffb" opacity="1.00" d=" M 32.21 30.03 C 63.41 29.95 94.61 30.04 125.81 29.98 L 125.98 30.94 C 95.00 31.16 64.01 30.81 33.03 31.09 C 32.24 41.86 34.52 52.47 34.81 63.21 C 33.46 58.49 33.21 53.58 32.38 48.76 C 31.91 44.09 31.73 39.40 31.26 34.74 C 30.90 33.08 31.55 31.51 32.21 30.03 Z" />
</g>
<g id="#ca8484ff">
<path fill="#ca8484" opacity="1.00" d=" M 125.81 29.98 C 126.23 30.05 127.07 30.19 127.50 30.26 C 129.55 33.54 135.88 34.32 134.88 38.95 C 134.27 43.35 134.35 47.80 134.72 52.22 C 130.80 48.51 134.25 41.94 133.74 37.29 C 131.25 35.06 128.38 33.28 125.98 30.94 L 125.81 29.98 Z" />
</g>
<g id="#8e46feff">
<path fill="#8e46fe" opacity="1.00" d=" M 33.03 31.09 C 64.01 30.81 95.00 31.16 125.98 30.94 C 128.38 33.28 131.25 35.06 133.74 37.29 C 134.25 41.94 130.80 48.51 134.72 52.22 C 136.26 53.75 138.20 54.77 140.06 55.84 C 144.97 61.12 142.32 68.25 139.88 74.02 C 139.25 74.98 138.65 75.95 138.06 76.93 C 135.20 79.45 132.35 82.00 129.93 84.96 C 129.68 85.17 129.19 85.61 128.94 85.82 C 125.57 87.71 122.12 89.86 120.08 93.24 C 119.43 93.83 118.77 94.42 118.10 95.00 C 113.33 96.84 113.71 104.44 118.92 105.29 C 123.64 106.31 128.88 106.76 133.15 104.11 C 136.09 102.83 139.02 101.53 141.85 100.02 C 144.47 99.54 146.74 98.23 147.99 95.81 C 148.68 95.25 149.38 94.70 150.08 94.15 C 152.44 92.84 154.16 90.76 155.91 88.77 C 159.26 88.58 162.58 88.98 165.37 90.91 C 165.31 92.69 165.20 96.24 165.14 98.02 C 164.43 99.33 163.69 100.64 162.90 101.91 C 161.22 104.22 159.57 106.55 157.95 108.89 C 157.74 109.17 157.32 109.71 157.11 109.98 C 154.01 112.34 151.32 115.30 149.96 119.00 C 149.75 119.26 149.32 119.76 149.11 120.02 C 146.34 122.31 144.08 125.44 144.05 129.18 C 143.79 129.63 143.26 130.54 143.00 130.99 C 140.34 134.04 140.16 138.24 139.90 142.08 C 139.79 144.90 137.36 149.46 140.88 151.23 C 144.04 154.03 148.82 153.23 152.15 151.13 C 157.49 148.09 162.21 143.95 165.70 138.89 C 167.76 137.86 169.48 136.33 169.99 134.00 C 171.82 132.73 173.35 131.11 174.24 129.06 C 175.90 126.81 177.58 124.58 179.09 122.23 C 180.86 120.62 181.87 118.42 181.99 116.03 C 185.28 113.41 184.30 108.43 184.73 104.68 C 184.74 102.41 186.57 103.42 187.91 103.86 C 187.44 107.22 189.60 110.68 193.09 111.08 C 195.16 111.32 197.27 110.95 198.95 109.67 C 199.40 109.84 200.28 110.19 200.72 110.37 C 201.68 140.04 200.25 169.77 201.36 199.43 C 188.00 199.51 174.93 196.56 161.73 195.22 C 128.84 187.65 99.23 169.15 76.03 144.89 C 63.08 130.51 52.60 113.89 44.96 96.12 C 42.98 86.41 38.48 77.40 36.11 67.78 C 35.63 66.27 35.15 64.76 34.81 63.21 C 34.52 52.47 32.24 41.86 33.03 31.09 Z" />
</g>
<g id="#f0ce7eff">
<path fill="#f0ce7e" opacity="1.00" d=" M 212.13 30.87 C 212.61 32.11 213.02 33.37 213.44 34.62 C 213.06 41.34 212.98 48.06 212.91 54.79 C 212.31 56.90 211.70 59.02 211.08 61.13 C 211.85 51.06 212.20 40.97 212.13 30.87 Z" />
</g>
<g id="#e4e4e4ff">
<path fill="#e4e4e4" opacity="1.00" d=" M 213.44 34.62 C 225.57 58.89 217.85 86.68 214.11 112.09 C 205.55 139.41 210.70 168.30 208.38 196.33 C 207.94 202.96 205.96 210.29 200.69 214.73 C 188.00 222.44 172.46 218.15 159.01 214.94 C 105.01 201.77 59.38 160.09 39.67 108.36 C 33.05 89.41 26.62 68.77 32.38 48.76 C 33.21 53.58 33.46 58.49 34.81 63.21 C 35.15 64.76 35.63 66.27 36.11 67.78 C 36.36 75.06 39.26 81.83 41.08 88.80 C 55.56 154.11 116.01 205.83 182.33 212.52 C 190.63 213.41 198.73 208.07 200.84 200.00 L 201.36 199.43 L 201.96 198.82 C 204.56 175.80 202.01 151.70 203.22 128.28 C 210.05 112.83 211.37 95.63 213.07 79.00 C 213.74 70.98 215.28 62.65 212.91 54.79 C 212.98 48.06 213.06 41.34 213.44 34.62 Z" />
</g>
<g id="#dcdad5ff">
<path fill="#dcdad5" opacity="1.00" d=" M 211.08 61.13 C 211.70 59.02 212.31 56.90 212.91 54.79 C 215.28 62.65 213.74 70.98 213.07 79.00 C 211.37 95.63 210.05 112.83 203.22 128.28 C 202.39 121.40 204.52 114.01 201.96 107.40 C 202.96 105.63 204.06 103.92 205.08 102.16 C 210.62 89.66 209.90 75.34 210.96 61.92 L 211.08 61.13 Z" />
</g>
<g id="#ce887aff">
<path fill="#ce887a" opacity="1.00" d=" M 140.06 55.84 C 147.02 58.76 144.43 69.73 139.88 74.02 C 142.32 68.25 144.97 61.12 140.06 55.84 Z" />
</g>
<g id="#ecc771ff">
<path fill="#ecc771" opacity="1.00" d=" M 205.08 102.16 C 207.78 88.85 209.16 75.38 210.96 61.92 C 209.90 75.34 210.62 89.66 205.08 102.16 Z" />
</g>
<g id="#b38eedff">
<path fill="#b38eed" opacity="1.00" d=" M 36.11 67.78 C 38.48 77.40 42.98 86.41 44.96 96.12 C 43.58 93.73 42.39 91.23 41.08 88.80 C 39.26 81.83 36.36 75.06 36.11 67.78 Z" />
</g>
<g id="#c88286ff">
<path fill="#c88286" opacity="1.00" d=" M 129.93 84.96 C 132.35 82.00 135.20 79.45 138.06 76.93 C 136.92 80.82 133.34 83.18 129.93 84.96 Z" />
</g>
<g id="#d99828ff">
<path fill="#d99828" opacity="1.00" d=" M 117.71 103.32 C 134.97 106.22 143.41 84.55 159.71 83.36 C 163.47 83.89 166.67 87.08 166.14 91.04 L 165.37 90.91 C 164.06 86.87 158.86 85.78 155.91 88.77 C 153.50 90.02 151.86 92.18 150.08 94.15 C 149.38 94.70 148.68 95.25 147.99 95.81 C 145.70 96.83 143.59 98.21 141.85 100.02 C 139.02 101.53 136.09 102.83 133.15 104.11 C 128.38 104.16 123.66 104.92 118.92 105.29 C 118.62 104.80 118.01 103.81 117.71 103.32 Z" />
</g>
<g id="#c27c8dff">
<path fill="#c27c8d" opacity="1.00" d=" M 120.08 93.24 C 122.12 89.86 125.57 87.71 128.94 85.82 C 126.78 89.10 123.40 91.27 120.08 93.24 Z" />
</g>
<g id="#b06c97ff">
<path fill="#b06c97" opacity="1.00" d=" M 155.91 88.77 C 158.86 85.78 164.06 86.87 165.37 90.91 C 162.58 88.98 159.26 88.58 155.91 88.77 Z" />
</g>
<g id="#d4d3d6ff">
<path fill="#d4d3d6" opacity="1.00" d=" M 41.08 88.80 C 42.39 91.23 43.58 93.73 44.96 96.12 C 52.60 113.89 63.08 130.51 76.03 144.89 C 81.97 156.15 93.64 162.79 102.60 171.43 C 124.46 187.24 149.38 200.10 176.46 203.49 C 181.44 205.24 186.06 202.54 190.23 200.23 C 193.75 200.09 197.30 200.02 200.84 200.00 C 198.73 208.07 190.63 213.41 182.33 212.52 C 116.01 205.83 55.56 154.11 41.08 88.80 Z" />
</g>
<g id="#b16d93ff">
<path fill="#b16d93" opacity="1.00" d=" M 150.08 94.15 C 151.86 92.18 153.50 90.02 155.91 88.77 C 154.16 90.76 152.44 92.84 150.08 94.15 Z" />
<path fill="#b16d93" opacity="1.00" d=" M 141.85 100.02 C 143.59 98.21 145.70 96.83 147.99 95.81 C 146.74 98.23 144.47 99.54 141.85 100.02 Z" />
</g>
<g id="#ba7497ff">
<path fill="#ba7497" opacity="1.00" d=" M 165.37 90.91 L 166.14 91.04 C 166.93 93.41 166.59 95.74 165.14 98.02 C 165.20 96.24 165.31 92.69 165.37 90.91 Z" />
</g>
<g id="#b8729fff">
<path fill="#b8729f" opacity="1.00" d=" M 118.92 105.29 C 113.71 104.44 113.33 96.84 118.10 95.00 C 116.66 97.60 114.65 101.03 117.71 103.32 C 118.01 103.81 118.62 104.80 118.92 105.29 Z" />
</g>
<g id="#d89826ff">
<path fill="#d89826" opacity="1.00" d=" M 183.18 99.24 C 186.55 95.32 190.71 100.12 188.82 104.14 L 187.91 103.86 C 186.57 103.42 184.74 102.41 184.73 104.68 C 183.31 108.32 182.61 112.19 181.99 116.03 C 180.52 117.83 179.58 119.97 179.09 122.23 C 177.58 124.58 175.90 126.81 174.24 129.06 C 172.24 130.15 170.55 131.70 169.99 134.00 C 168.20 135.28 166.68 136.90 165.70 138.89 C 162.21 143.95 157.49 148.09 152.15 151.13 C 148.40 151.38 144.64 151.50 140.88 151.23 L 140.79 150.32 C 145.04 149.96 148.95 147.90 152.26 145.29 C 165.19 131.90 175.35 116.05 183.18 99.24 Z" />
</g>
<g id="#c47d8eff">
<path fill="#c47d8e" opacity="1.00" d=" M 157.95 108.89 C 159.57 106.55 161.22 104.22 162.90 101.91 C 161.51 104.42 159.87 106.75 157.95 108.89 Z" />
</g>
<g id="#aa66a7ff">
<path fill="#aa66a7" opacity="1.00" d=" M 118.92 105.29 C 123.66 104.92 128.38 104.16 133.15 104.11 C 128.88 106.76 123.64 106.31 118.92 105.29 Z" />
</g>
<g id="#c07d6dff">
<path fill="#c07d6d" opacity="1.00" d=" M 187.91 103.86 L 188.82 104.14 C 189.72 106.75 191.30 109.01 193.09 111.08 C 189.60 110.68 187.44 107.22 187.91 103.86 Z" />
</g>
<g id="#b26e8fff">
<path fill="#b26e8f" opacity="1.00" d=" M 181.99 116.03 C 182.61 112.19 183.31 108.32 184.73 104.68 C 184.30 108.43 185.28 113.41 181.99 116.03 Z" />
</g>
<g id="#ccbedfff">
<path fill="#ccbedf" opacity="1.00" d=" M 200.14 108.77 C 200.59 108.43 201.51 107.75 201.96 107.40 C 204.52 114.01 202.39 121.40 203.22 128.28 C 202.01 151.70 204.56 175.80 201.96 198.82 C 201.82 168.99 202.41 139.11 201.74 109.31 C 201.34 109.18 200.54 108.91 200.14 108.77 Z" />
</g>
<g id="#b089ebff">
<path fill="#b089eb" opacity="1.00" d=" M 198.95 109.67 C 199.25 109.44 199.84 109.00 200.14 108.77 C 200.54 108.91 201.34 109.18 201.74 109.31 C 202.41 139.11 201.82 168.99 201.96 198.82 L 201.36 199.43 C 200.25 169.77 201.68 140.04 200.72 110.37 C 200.28 110.19 199.40 109.84 198.95 109.67 Z" />
</g>
<g id="#c78089ff">
<path fill="#c78089" opacity="1.00" d=" M 149.96 119.00 C 151.32 115.30 154.01 112.34 157.11 109.98 C 155.67 113.64 152.49 116.13 149.96 119.00 Z" />
</g>
<g id="#b3708bff">
<path fill="#b3708b" opacity="1.00" d=" M 179.09 122.23 C 179.58 119.97 180.52 117.83 181.99 116.03 C 181.87 118.42 180.86 120.62 179.09 122.23 Z" />
</g>
<g id="#bf7899ff">
<path fill="#bf7899" opacity="1.00" d=" M 144.05 129.18 C 144.08 125.44 146.34 122.31 149.11 120.02 C 147.92 123.32 145.99 126.27 144.05 129.18 Z" />
</g>
<g id="#b57286ff">
<path fill="#b57286" opacity="1.00" d=" M 169.99 134.00 C 170.55 131.70 172.24 130.15 174.24 129.06 C 173.35 131.11 171.82 132.73 169.99 134.00 Z" />
</g>
<g id="#cb8482ff">
<path fill="#cb8482" opacity="1.00" d=" M 139.90 142.08 C 140.16 138.24 140.34 134.04 143.00 130.99 C 141.98 134.67 141.78 138.69 139.90 142.08 Z" />
</g>
<g id="#b16e92ff">
<path fill="#b16e92" opacity="1.00" d=" M 165.70 138.89 C 166.68 136.90 168.20 135.28 169.99 134.00 C 169.48 136.33 167.76 137.86 165.70 138.89 Z" />
</g>
<g id="#bc7598ff">
<path fill="#bc7598" opacity="1.00" d=" M 140.88 151.23 C 137.36 149.46 139.79 144.90 139.90 142.08 C 140.09 144.83 140.43 147.58 140.79 150.32 L 140.88 151.23 Z" />
</g>
<g id="#c5c0cfff">
<path fill="#c5c0cf" opacity="1.00" d=" M 76.03 144.89 C 99.23 169.15 128.84 187.65 161.73 195.22 C 170.92 198.22 180.73 198.67 190.23 200.23 C 186.06 202.54 181.44 205.24 176.46 203.49 C 149.38 200.10 124.46 187.24 102.60 171.43 C 93.64 162.79 81.97 156.15 76.03 144.89 Z" />
</g>
<g id="#b57287ff">
<path fill="#b57287" opacity="1.00" d=" M 140.88 151.23 C 144.64 151.50 148.40 151.38 152.15 151.13 C 148.82 153.23 144.04 154.03 140.88 151.23 Z" />
</g>
<g id="#ad8ae2ff">
<path fill="#ad8ae2" opacity="1.00" d=" M 161.73 195.22 C 174.93 196.56 188.00 199.51 201.36 199.43 L 200.84 200.00 C 197.30 200.02 193.75 200.09 190.23 200.23 C 180.73 198.67 170.92 198.22 161.73 195.22 Z" />
</g>
</svg>
