<svg id="Layer_1" data-name="Layer 1" xmlns="http://www.w3.org/2000/svg" viewBox="0 0 247.1 250"><defs><style>.cls-1{fill:#141414;}</style></defs><path class="cls-1" d="M33.05,120.32A13.29,13.29,0,1,1,19.76,107h0a13.29,13.29,0,0,1,13.29,13.29m211.19,0A13.29,13.29,0,1,1,230.94,107h0a13.29,13.29,0,0,1,13.26,13.29M138.65,172.75a13.29,13.29,0,1,1-13.3-13.28h0a13.29,13.29,0,0,1,13.28,13.28M85.49,146.87a13.29,13.29,0,1,1-13.29-13.3,13.29,13.29,0,0,1,13.29,13.3h0m105.6,0a13.3,13.3,0,1,1-13.33-13.26h.06a13.29,13.29,0,0,1,13.27,13.26M28.74,160.55a9,9,0,1,1-9-9,9,9,0,0,1,9,9h0m211.19,0a9,9,0,1,1-9-9,9,9,0,0,1,9,9M134.34,213.69a9,9,0,1,1-9-9h0a9,9,0,0,1,9,9M81.19,187.1a9,9,0,1,1-9-9h0a9,9,0,0,1,9,9h0m105.59,0a9,9,0,1,1-9-9h0a9,9,0,0,1,9,9M24.44,192.15a4.7,4.7,0,1,1-4.7-4.7,4.69,4.69,0,0,1,4.7,4.7m211.18,0a4.7,4.7,0,1,1-4.69-4.7,4.69,4.69,0,0,1,4.69,4.7M130,245.31a4.7,4.7,0,1,1-4.7-4.7,4.7,4.7,0,0,1,4.7,4.7h0M76.87,218.73a4.7,4.7,0,1,1-4.69-4.7,4.69,4.69,0,0,1,4.69,4.7m105.6,0a4.7,4.7,0,1,1-4.7-4.7,4.69,4.69,0,0,1,4.7,4.7M143,18A18,18,0,1,1,125,0h0A18,18,0,0,1,143,18m0,53.13a18,18,0,1,1-18-18h0a18,18,0,0,1,17.95,18m0,52.44a18,18,0,1,1-18-18h0a18,18,0,0,1,17.95,18v0m105.6-52.46a18,18,0,1,1-18-18h0a18,18,0,0,1,18,18m-211.18,0a18,18,0,1,1-18-17.94h0a18,18,0,0,1,18,17.94M90.52,44.51a18,18,0,1,1-18-17.93,18,18,0,0,1,18,17.93m0,52.43a18,18,0,1,1-18-18,18,18,0,0,1,18,18h0M196.12,44.54a18,18,0,1,1-18-18h0a18,18,0,0,1,18,18m0,52.43a18,18,0,1,1-18-18h0a18,18,0,0,1,18,18" transform="translate(-1.45)"/></svg>