<svg id="Layer_1" data-name="Layer 1" xmlns="http://www.w3.org/2000/svg" viewBox="0 0 250 250"><defs><style>.cls-1{fill:#ff0420;}.cls-2{fill:#fff;}</style></defs><circle class="cls-1" cx="125" cy="125" r="125"/><path class="cls-2" d="M88.55,158.2q-11.17,0-18.3-5.25c-4.7-3.55-7-8.65-7-15.2a34.64,34.64,0,0,1,.45-5.05c.8-4.5,1.95-9.9,3.45-16.25q6.38-25.8,33-25.8a32.33,32.33,0,0,1,13,2.45,19.68,19.68,0,0,1,9,7.15,19.15,19.15,0,0,1,3.3,11.25,34.61,34.61,0,0,1-.45,5c-.95,5.55-2,11-3.4,16.25-2.2,8.55-6,15-11.35,19.25S97.55,158.2,88.55,158.2Zm1.35-13.5a13.4,13.4,0,0,0,8.9-3.1c2.5-2,4.3-5.2,5.35-9.5,1.45-5.9,2.55-11,3.3-15.4a21.39,21.39,0,0,0,.4-4c0-5.7-2.95-8.55-8.9-8.55a13.76,13.76,0,0,0-9,3.1c-2.45,2-4.2,5.2-5.25,9.5s-2.25,9.3-3.4,15.4a20,20,0,0,0-.4,4C80.85,141.85,83.9,144.7,89.9,144.7Z"/><path class="cls-2" d="M129.65,157.3a2,2,0,0,1-1.6-.65,2.44,2.44,0,0,1-.3-1.7L140.7,94a2.49,2.49,0,0,1,1.05-1.7,2.75,2.75,0,0,1,1.8-.65H168.5c6.95,0,12.5,1.45,16.7,4.3a14.22,14.22,0,0,1,6.4,12.5,24.52,24.52,0,0,1-.55,4.9c-1.55,7.2-4.7,12.5-9.5,16s-11.15,5.15-19.35,5.15H149.55L145.25,155a2.68,2.68,0,0,1-1.05,1.7,2.75,2.75,0,0,1-1.8.65Zm33.2-35.85a11.08,11.08,0,0,0,6.85-2.15,10.28,10.28,0,0,0,4-6.2,15.3,15.3,0,0,0,.3-2.8,5.35,5.35,0,0,0-1.6-4.15c-1-1-2.9-1.5-5.45-1.5H155.65l-3.55,16.8Z"/></svg>