<?xml version="1.0" encoding="UTF-8" ?>
<!DOCTYPE svg PUBLIC "-//W3C//DTD SVG 1.1//EN" "http://www.w3.org/Graphics/SVG/1.1/DTD/svg11.dtd">
<svg width="250pt" height="250pt" viewBox="0 0 250 250" version="1.1" xmlns="http://www.w3.org/2000/svg">
<g id="#ffffffff">
<path fill="#ffffff" opacity="1.00" d=" M 0.00 0.00 L 250.00 0.00 L 250.00 250.00 L 0.00 250.00 L 0.00 0.00 M 111.52 25.79 C 108.79 26.28 106.06 26.76 103.36 27.37 C 102.41 27.53 100.49 27.84 99.54 28.00 L 99.53 28.42 C 96.42 29.01 93.44 30.08 90.42 31.01 L 90.43 31.21 C 87.37 32.26 84.42 33.57 81.47 34.88 L 81.50 35.04 C 79.48 35.96 77.50 36.96 75.58 38.06 C 73.70 39.18 71.85 40.33 70.01 41.51 C 68.54 42.53 67.07 43.56 65.59 44.58 C 63.53 46.18 61.49 47.81 59.50 49.49 C 57.57 51.27 55.67 53.07 53.80 54.90 C 51.15 57.87 48.12 60.59 46.10 64.03 C 43.52 66.89 41.33 70.12 39.53 73.51 C 36.98 77.41 34.89 81.60 33.12 85.91 C 31.09 90.86 29.00 95.92 28.17 101.23 C 26.67 106.26 25.96 111.50 25.49 116.72 C 24.93 127.45 25.14 138.41 28.18 148.80 C 29.01 154.11 31.10 159.18 33.15 164.13 C 34.90 168.45 37.02 172.63 39.54 176.56 C 41.19 179.77 43.42 182.64 45.56 185.52 C 48.05 188.90 50.86 192.03 53.76 195.06 C 55.68 196.93 57.62 198.79 59.62 200.58 C 62.81 203.30 66.12 205.88 69.60 208.24 C 71.58 209.50 73.58 210.74 75.60 211.95 C 77.48 213.03 79.41 214.00 81.38 214.89 L 81.35 215.07 C 83.47 216.01 85.61 216.90 87.78 217.70 L 87.78 217.97 C 89.96 218.69 92.14 219.44 94.31 220.22 C 97.07 221.08 99.86 221.87 102.68 222.54 C 105.64 223.13 108.61 223.67 111.58 224.23 C 112.52 224.32 114.42 224.49 115.37 224.58 C 116.89 224.68 118.42 224.82 119.96 224.78 C 123.46 224.93 126.98 224.89 130.48 225.10 L 130.48 224.78 C 133.44 224.72 136.39 224.51 139.33 224.16 C 142.81 223.51 146.31 222.92 149.74 222.06 C 152.57 221.33 155.38 220.52 158.14 219.59 C 161.25 218.45 164.30 217.18 167.36 215.94 L 167.36 215.70 C 172.31 213.63 176.94 210.88 181.36 207.87 C 189.02 202.60 196.20 196.48 202.00 189.17 C 217.08 171.48 225.39 148.26 225.34 125.04 C 225.42 101.81 217.10 78.61 202.06 60.88 C 196.26 53.59 189.09 47.49 181.47 42.17 C 177.12 39.36 172.72 36.40 167.83 34.64 L 167.37 35.03 L 167.12 34.19 C 164.26 32.42 160.88 31.60 157.78 30.31 C 155.14 29.39 152.44 28.63 149.74 27.94 C 146.31 27.08 142.82 26.49 139.35 25.85 C 137.31 25.65 135.27 25.44 133.24 25.20 C 132.67 25.21 131.55 25.24 130.99 25.26 C 127.33 24.84 123.61 24.79 119.96 25.37 C 117.18 24.94 114.32 25.61 111.52 25.79 Z" />
</g>
<g id="#f82e80ff">
<path fill="#f82e80" opacity="1.00" d=" M 111.52 25.79 C 114.32 25.61 117.18 24.94 119.96 25.37 L 120.12 25.52 C 117.12 26.44 117.77 29.68 117.63 32.05 C 117.76 45.94 117.68 59.83 117.70 73.72 C 115.58 73.31 113.45 72.97 111.30 72.75 C 110.33 60.86 110.82 48.92 110.69 37.00 C 110.62 33.25 110.94 29.50 111.52 25.79 Z" />
</g>
<g id="#f6049bff">
<path fill="#f6049b" opacity="1.00" d=" M 119.96 25.37 C 123.61 24.79 127.33 24.84 130.99 25.26 C 129.79 25.51 128.59 25.78 127.40 26.05 C 127.32 38.03 127.38 50.01 127.38 61.99 C 127.50 66.96 127.47 71.94 126.69 76.87 C 125.33 76.25 123.95 75.67 122.56 75.15 C 121.59 59.77 122.57 44.33 122.07 28.94 C 122.18 27.47 121.25 26.32 120.12 25.52 L 119.96 25.37 Z" />
</g>
<g id="#f94e6aff">
<path fill="#f94e6a" opacity="1.00" d=" M 103.36 27.37 C 106.06 26.76 108.79 26.28 111.52 25.79 C 110.94 29.50 110.62 33.25 110.69 37.00 C 110.82 48.92 110.33 60.86 111.30 72.75 C 108.33 72.60 105.35 72.70 102.41 73.11 C 103.39 70.18 103.64 67.07 103.57 64.00 C 103.36 51.79 103.72 39.58 103.36 27.37 Z" />
<path fill="#f94e6a" opacity="1.00" d=" M 102.26 176.86 C 105.06 177.27 107.90 177.40 110.74 177.28 C 110.52 189.86 110.82 202.43 110.59 215.00 C 110.51 218.11 110.96 221.19 111.58 224.23 C 108.61 223.67 105.64 223.13 102.68 222.54 C 102.65 215.37 102.46 208.19 102.69 201.02 C 103.42 193.00 104.18 184.79 102.26 176.86 Z" />
</g>
<g id="#f71491ff">
<path fill="#f71491" opacity="1.00" d=" M 117.63 32.05 C 117.77 29.68 117.12 26.44 120.12 25.52 C 121.25 26.32 122.18 27.47 122.07 28.94 C 122.57 44.33 121.59 59.77 122.56 75.15 C 120.96 74.59 119.34 74.11 117.70 73.72 C 117.68 59.83 117.76 45.94 117.63 32.05 Z" />
</g>
<g id="#da12a4ff">
<path fill="#da12a4" opacity="1.00" d=" M 127.40 26.05 C 128.59 25.78 129.79 25.51 130.99 25.26 C 131.55 25.24 132.67 25.21 133.24 25.20 C 133.41 40.80 133.17 56.40 133.38 71.99 C 133.43 74.72 132.85 77.39 132.20 80.02 C 130.40 78.89 128.58 77.81 126.69 76.87 C 127.47 71.94 127.50 66.96 127.38 61.99 C 127.38 50.01 127.32 38.03 127.40 26.05 Z" />
</g>
<g id="#bd21abff">
<path fill="#bd21ab" opacity="1.00" d=" M 133.24 25.20 C 135.27 25.44 137.31 25.65 139.35 25.85 C 139.70 42.58 139.29 59.32 139.56 76.05 C 139.67 78.99 139.24 81.92 138.48 84.76 C 136.45 83.09 134.38 81.47 132.20 80.02 C 132.85 77.39 133.43 74.72 133.38 71.99 C 133.17 56.40 133.41 40.80 133.24 25.20 Z" />
</g>
<g id="#9c34b4ff">
<path fill="#9c34b4" opacity="1.00" d=" M 139.35 25.85 C 142.82 26.49 146.31 27.08 149.74 27.94 C 149.30 44.63 149.71 61.34 149.52 78.05 C 149.39 83.03 149.97 87.99 150.21 92.97 C 145.88 90.88 142.09 87.89 138.48 84.76 C 139.24 81.92 139.67 78.99 139.56 76.05 C 139.29 59.32 139.70 42.58 139.35 25.85 Z" />
<path fill="#9c34b4" opacity="1.00" d=" M 138.32 165.39 C 141.77 162.35 145.43 159.52 149.49 157.32 C 149.76 178.90 149.25 200.49 149.74 222.06 C 146.31 222.92 142.81 223.51 139.33 224.16 C 139.54 207.43 139.29 190.70 139.47 173.97 C 139.51 171.07 138.97 168.21 138.32 165.39 Z" />
</g>
<g id="#fa6b58ff">
<path fill="#fa6b58" opacity="1.00" d=" M 99.54 28.00 C 100.49 27.84 102.41 27.53 103.36 27.37 C 103.72 39.58 103.36 51.79 103.57 64.00 C 103.64 67.07 103.39 70.18 102.41 73.11 C 101.71 73.22 100.32 73.45 99.62 73.57 C 99.36 58.52 99.46 43.47 99.53 28.42 L 99.54 28.00 Z" />
</g>
<g id="#7b48beff">
<path fill="#7b48be" opacity="1.00" d=" M 149.74 27.94 C 152.44 28.63 155.14 29.39 157.78 30.31 C 157.55 37.20 158.44 44.09 157.87 50.98 C 157.28 59.33 158.52 67.68 157.87 76.03 C 157.46 81.86 158.23 87.69 158.15 93.54 C 155.49 93.79 152.79 93.66 150.21 92.97 C 149.97 87.99 149.39 83.03 149.52 78.05 C 149.71 61.34 149.30 44.63 149.74 27.94 Z" />
</g>
<g id="#fb8944ff">
<path fill="#fb8944" opacity="1.00" d=" M 90.42 31.01 C 93.44 30.08 96.42 29.01 99.53 28.42 C 99.46 43.47 99.36 58.52 99.62 73.57 C 96.48 74.16 93.42 75.12 90.45 76.30 C 91.14 66.23 89.79 56.09 91.18 46.06 C 91.86 41.09 90.45 36.18 90.43 31.21 L 90.42 31.01 Z" />
</g>
<g id="#5f56c5ff">
<path fill="#5f56c5" opacity="1.00" d=" M 157.78 30.31 C 160.88 31.60 164.26 32.42 167.12 34.19 L 167.37 35.03 C 167.23 53.46 167.36 71.90 167.32 90.33 C 164.30 91.51 161.29 92.73 158.15 93.54 C 158.23 87.69 157.46 81.86 157.87 76.03 C 158.52 67.68 157.28 59.33 157.87 50.98 C 158.44 44.09 157.55 37.20 157.78 30.31 Z" />
<path fill="#5f56c5" opacity="1.00" d=" M 157.85 156.42 C 161.10 157.18 164.21 158.44 167.32 159.67 C 167.33 178.34 167.27 197.02 167.36 215.70 L 167.36 215.94 C 164.30 217.18 161.25 218.45 158.14 219.59 C 158.59 212.39 157.48 205.20 158.03 198.01 C 158.41 192.70 157.52 187.40 157.79 182.09 C 158.22 173.53 157.46 164.98 157.85 156.42 Z" />
</g>
<g id="#fdb727ff">
<path fill="#fdb727" opacity="1.00" d=" M 81.47 34.88 C 84.42 33.57 87.37 32.26 90.43 31.21 C 90.45 36.18 91.86 41.09 91.18 46.06 C 89.79 56.09 91.14 66.23 90.45 76.30 C 87.69 77.45 85.03 78.87 82.51 80.48 C 82.45 70.99 82.48 61.50 82.46 52.02 C 82.41 46.35 83.00 40.58 81.50 35.04 L 81.47 34.88 Z" />
</g>
<g id="#4464ccff">
<path fill="#4464cc" opacity="1.00" d=" M 167.37 35.03 L 167.83 34.64 C 172.72 36.40 177.12 39.36 181.47 42.17 C 180.53 43.97 180.11 45.95 180.23 47.97 C 180.40 61.45 180.25 74.94 180.28 88.42 C 175.88 88.17 171.42 88.65 167.32 90.33 C 167.36 71.90 167.23 53.46 167.37 35.03 Z" />
<path fill="#4464cc" opacity="1.00" d=" M 167.32 159.67 C 171.40 161.32 175.84 161.85 180.23 161.57 C 180.34 175.05 180.34 188.53 180.22 202.01 C 180.15 204.03 180.67 205.99 181.36 207.87 C 176.94 210.88 172.31 213.63 167.36 215.70 C 167.27 197.02 167.33 178.34 167.32 159.67 Z" />
</g>
<g id="#fedb10ff">
<path fill="#fedb10" opacity="1.00" d=" M 75.58 38.06 C 77.50 36.96 79.48 35.96 81.50 35.04 C 83.00 40.58 82.41 46.35 82.46 52.02 C 82.48 61.50 82.45 70.99 82.51 80.48 C 80.71 81.66 78.99 82.96 77.34 84.34 C 77.17 70.90 77.23 57.45 77.30 44.00 C 77.47 41.85 76.61 39.88 75.58 38.06 Z" />
<path fill="#fedb10" opacity="1.00" d=" M 77.31 165.62 C 78.92 166.98 80.60 168.26 82.35 169.43 C 80.99 177.93 82.63 186.47 81.96 195.00 C 81.41 201.63 82.79 208.32 81.38 214.89 C 79.41 214.00 77.48 213.03 75.60 211.95 C 76.71 210.16 77.44 208.16 77.29 206.03 C 77.23 192.56 77.18 179.09 77.31 165.62 Z" />
</g>
<g id="#fdf202ff">
<path fill="#fdf202" opacity="1.00" d=" M 70.01 41.51 C 71.85 40.33 73.70 39.18 75.58 38.06 C 76.61 39.88 77.47 41.85 77.30 44.00 C 77.23 57.45 77.17 70.90 77.34 84.34 C 75.02 86.33 72.89 88.54 70.94 90.89 C 70.38 87.95 69.98 84.97 70.03 81.96 C 70.16 68.48 70.19 54.99 70.01 41.51 Z" />
<path fill="#fdf202" opacity="1.00" d=" M 69.58 173.95 C 69.59 168.94 68.98 163.76 70.85 158.98 C 72.81 161.37 74.95 163.61 77.31 165.62 C 77.18 179.09 77.23 192.56 77.29 206.03 C 77.44 208.16 76.71 210.16 75.60 211.95 C 73.58 210.74 71.58 209.50 69.60 208.24 C 69.58 196.81 69.57 185.38 69.58 173.95 Z" />
</g>
<g id="#f1f20eff">
<path fill="#f1f20e" opacity="1.00" d=" M 65.59 44.58 C 67.07 43.56 68.54 42.53 70.01 41.51 C 70.19 54.99 70.16 68.48 70.03 81.96 C 69.98 84.97 70.38 87.95 70.94 90.89 C 69.46 92.76 68.11 94.73 66.84 96.74 C 65.04 90.98 65.94 84.91 65.79 78.98 C 65.63 67.52 65.96 56.05 65.59 44.58 Z" />
</g>
<g id="#2973d4ff">
<path fill="#2973d4" opacity="1.00" d=" M 180.23 47.97 C 180.11 45.95 180.53 43.97 181.47 42.17 C 189.09 47.49 196.26 53.59 202.06 60.88 C 199.95 67.03 201.01 73.59 200.83 79.94 C 200.67 87.13 201.12 94.31 200.98 101.50 C 196.16 94.63 188.77 89.34 180.28 88.42 C 180.25 74.94 180.40 61.45 180.23 47.97 Z" />
<path fill="#2973d4" opacity="1.00" d=" M 180.23 161.57 C 188.75 160.64 196.20 155.32 201.00 148.38 C 201.24 154.60 200.56 160.81 200.82 167.03 C 201.12 174.41 199.90 181.96 202.00 189.17 C 196.20 196.48 189.02 202.60 181.36 207.87 C 180.67 205.99 180.15 204.03 180.22 202.01 C 180.34 188.53 180.34 175.05 180.23 161.57 Z" />
</g>
<g id="#def11cff">
<path fill="#def11c" opacity="1.00" d=" M 59.50 49.49 C 61.49 47.81 63.53 46.18 65.59 44.58 C 65.96 56.05 65.63 67.52 65.79 78.98 C 65.94 84.91 65.04 90.98 66.84 96.74 C 64.29 101.11 62.34 105.82 61.02 110.71 C 58.89 105.37 59.88 99.57 59.72 93.99 C 59.62 79.16 59.99 64.32 59.50 49.49 Z" />
</g>
<g id="#c7f12fff">
<path fill="#c7f12f" opacity="1.00" d=" M 53.80 54.90 C 55.67 53.07 57.57 51.27 59.50 49.49 C 59.99 64.32 59.62 79.16 59.72 93.99 C 59.88 99.57 58.89 105.37 61.02 110.71 C 58.73 120.08 58.89 129.93 60.96 139.33 C 60.62 141.88 60.25 144.44 60.27 147.02 C 60.44 161.34 60.23 175.67 60.38 189.99 C 60.44 193.54 60.09 197.07 59.62 200.58 C 57.62 198.79 55.68 196.93 53.76 195.06 C 53.64 148.34 53.62 101.62 53.80 54.90 Z" />
</g>
<g id="#aef043ff">
<path fill="#aef043" opacity="1.00" d=" M 46.10 64.03 C 48.12 60.59 51.15 57.87 53.80 54.90 C 53.62 101.62 53.64 148.34 53.76 195.06 C 50.86 192.03 48.05 188.90 45.56 185.52 C 46.03 183.04 46.48 180.53 46.50 177.99 C 46.41 145.33 46.50 112.66 46.45 80.00 C 46.52 74.67 46.53 69.34 46.10 64.03 Z" />
</g>
<g id="#1b7bd8ff">
<path fill="#1b7bd8" opacity="1.00" d=" M 200.83 79.94 C 201.01 73.59 199.95 67.03 202.06 60.88 C 217.10 78.61 225.42 101.81 225.34 125.04 C 225.39 148.26 217.08 171.48 202.00 189.17 C 199.90 181.96 201.12 174.41 200.82 167.03 C 200.56 160.81 201.24 154.60 201.00 148.38 C 209.99 134.51 210.06 115.35 200.98 101.50 C 201.12 94.31 200.67 87.13 200.83 79.94 Z" />
</g>
<g id="#8def5dff">
<path fill="#8def5d" opacity="1.00" d=" M 39.53 73.51 C 41.33 70.12 43.52 66.89 46.10 64.03 C 46.53 69.34 46.52 74.67 46.45 80.00 C 46.50 112.66 46.41 145.33 46.50 177.99 C 46.48 180.53 46.03 183.04 45.56 185.52 C 43.42 182.64 41.19 179.77 39.54 176.56 C 39.87 173.71 40.33 170.88 40.36 168.01 C 40.30 141.35 40.31 114.69 40.34 88.02 C 40.52 83.17 40.36 78.30 39.53 73.51 Z" />
</g>
<g id="#141529ff">
<path fill="#141529" opacity="1.00" d=" M 102.41 73.11 C 105.35 72.70 108.33 72.60 111.30 72.75 C 113.45 72.97 115.58 73.31 117.70 73.72 C 119.34 74.11 120.96 74.59 122.56 75.15 C 123.95 75.67 125.33 76.25 126.69 76.87 C 128.58 77.81 130.40 78.89 132.20 80.02 C 134.38 81.47 136.45 83.09 138.48 84.76 C 142.09 87.89 145.88 90.88 150.21 92.97 C 152.79 93.66 155.49 93.79 158.15 93.54 C 161.29 92.73 164.30 91.51 167.32 90.33 C 171.42 88.65 175.88 88.17 180.28 88.42 C 188.77 89.34 196.16 94.63 200.98 101.50 C 210.06 115.35 209.99 134.51 201.00 148.38 C 196.20 155.32 188.75 160.64 180.23 161.57 C 175.84 161.85 171.40 161.32 167.32 159.67 C 164.21 158.44 161.10 157.18 157.85 156.42 C 155.03 156.19 152.16 156.36 149.49 157.32 C 145.43 159.52 141.77 162.35 138.32 165.39 C 135.24 167.98 131.92 170.28 128.40 172.22 C 126.54 173.19 124.62 174.07 122.66 174.82 C 120.28 175.65 117.83 176.29 115.34 176.71 C 113.81 176.94 112.28 177.15 110.74 177.28 C 107.90 177.40 105.06 177.27 102.26 176.86 C 99.66 176.49 97.08 175.92 94.55 175.19 C 92.31 174.46 90.12 173.59 87.98 172.61 C 86.04 171.66 84.17 170.59 82.35 169.43 C 80.60 168.26 78.92 166.98 77.31 165.62 C 74.95 163.61 72.81 161.37 70.85 158.98 C 66.22 153.20 62.96 146.44 60.96 139.33 C 58.89 129.93 58.73 120.08 61.02 110.71 C 62.34 105.82 64.29 101.11 66.84 96.74 C 68.11 94.73 69.46 92.76 70.94 90.89 C 72.89 88.54 75.02 86.33 77.34 84.34 C 78.99 82.96 80.71 81.66 82.51 80.48 C 85.03 78.87 87.69 77.45 90.45 76.30 C 93.42 75.12 96.48 74.16 99.62 73.57 C 100.32 73.45 101.71 73.22 102.41 73.11 M 110.06 101.53 C 108.57 102.14 107.08 102.77 105.60 103.41 C 102.22 105.55 99.17 108.28 97.09 111.73 C 92.12 119.76 92.17 130.50 97.22 138.48 C 99.26 141.76 102.17 144.40 105.41 146.47 C 106.90 147.14 108.40 147.79 109.91 148.43 C 111.27 148.73 112.62 149.04 113.97 149.37 C 116.48 149.46 118.99 149.34 121.48 149.02 C 123.28 148.48 125.09 147.93 126.89 147.36 L 126.88 147.12 C 128.11 146.56 129.32 145.98 130.54 145.41 C 132.63 144.04 134.75 142.71 136.86 141.35 C 138.88 140.26 140.95 139.24 143.02 138.23 C 145.26 137.52 147.52 136.89 149.80 136.35 C 151.33 136.29 152.86 136.22 154.39 136.14 C 156.18 136.29 157.97 136.43 159.76 136.62 C 161.77 137.33 163.79 138.01 165.83 138.66 L 165.82 138.85 C 169.06 140.44 172.27 142.13 175.63 143.47 C 180.20 144.08 184.90 142.37 187.69 138.65 C 194.29 130.26 193.78 116.49 185.64 109.28 C 182.96 106.76 179.17 106.26 175.65 106.53 C 172.27 107.86 169.06 109.55 165.81 111.16 L 165.82 111.33 C 163.82 111.97 161.84 112.65 159.87 113.36 C 158.04 113.55 156.22 113.71 154.40 113.86 C 152.85 113.78 151.30 113.71 149.75 113.64 C 147.56 113.12 145.38 112.51 143.22 111.85 C 141.07 110.82 138.94 109.77 136.85 108.64 C 134.77 107.30 132.69 105.98 130.60 104.67 C 129.42 104.04 128.24 103.40 127.08 102.76 C 125.18 102.06 123.25 101.50 121.29 101.05 L 121.38 100.81 C 118.97 100.68 116.57 100.60 114.17 100.61 C 112.80 100.92 111.43 101.23 110.06 101.53 Z" />
</g>
<g id="#71ef75ff">
<path fill="#71ef75" opacity="1.00" d=" M 33.12 85.91 C 34.89 81.60 36.98 77.41 39.53 73.51 C 40.36 78.30 40.52 83.17 40.34 88.02 C 40.31 114.69 40.30 141.35 40.36 168.01 C 40.33 170.88 39.87 173.71 39.54 176.56 C 37.02 172.63 34.90 168.45 33.15 164.13 C 33.83 161.79 34.45 159.41 34.43 156.96 C 34.31 139.31 34.42 121.65 34.37 104.00 C 34.29 97.96 35.06 91.76 33.12 85.91 Z" />
</g>
<g id="#52ee8eff">
<path fill="#52ee8e" opacity="1.00" d=" M 33.12 85.91 C 35.06 91.76 34.29 97.96 34.37 104.00 C 34.42 121.65 34.31 139.31 34.43 156.96 C 34.45 159.41 33.83 161.79 33.15 164.13 C 31.10 159.18 29.01 154.11 28.18 148.80 C 28.74 146.22 29.39 143.64 29.35 140.98 C 29.23 130.65 29.18 120.32 29.33 109.98 C 29.43 107.02 28.80 104.11 28.17 101.23 C 29.00 95.92 31.09 90.86 33.12 85.91 Z" />
</g>
<g id="#f8367bff">
<path fill="#f8367b" opacity="1.00" d=" M 110.06 101.53 C 111.43 101.23 112.80 100.92 114.17 100.61 C 114.20 116.86 114.52 133.13 113.97 149.37 C 112.62 149.04 111.27 148.73 109.91 148.43 C 110.48 132.81 110.19 117.16 110.06 101.53 Z" />
</g>
<g id="#f7238aff">
<path fill="#f7238a" opacity="1.00" d=" M 114.17 100.61 C 116.57 100.60 118.97 100.68 121.38 100.81 L 121.29 101.05 C 118.24 107.38 120.81 114.39 120.21 121.05 C 119.81 126.04 119.95 131.03 120.21 136.01 C 120.45 140.36 118.77 145.14 121.48 149.02 C 118.99 149.34 116.48 149.46 113.97 149.37 C 114.52 133.13 114.20 116.86 114.17 100.61 Z" />
</g>
<g id="#3ded9fff">
<path fill="#3ded9f" opacity="1.00" d=" M 28.17 101.23 C 28.80 104.11 29.43 107.02 29.33 109.98 C 29.18 120.32 29.23 130.65 29.35 140.98 C 29.39 143.64 28.74 146.22 28.18 148.80 C 25.14 138.41 24.93 127.45 25.49 116.72 C 25.96 111.50 26.67 106.26 28.17 101.23 Z" />
</g>
<g id="#f9496eff">
<path fill="#f9496e" opacity="1.00" d=" M 105.60 103.41 C 107.08 102.77 108.57 102.14 110.06 101.53 C 110.19 117.16 110.48 132.81 109.91 148.43 C 108.40 147.79 106.90 147.14 105.41 146.47 C 105.97 132.13 105.59 117.76 105.60 103.41 Z" />
</g>
<g id="#f6069aff">
<path fill="#f6069a" opacity="1.00" d=" M 120.21 121.05 C 120.81 114.39 118.24 107.38 121.29 101.05 C 123.25 101.50 125.18 102.06 127.08 102.76 C 126.56 117.53 126.93 132.33 126.88 147.12 L 126.89 147.36 C 125.09 147.93 123.28 148.48 121.48 149.02 C 118.77 145.14 120.45 140.36 120.21 136.01 C 119.95 131.03 119.81 126.04 120.21 121.05 Z" />
</g>
<g id="#e20da2ff">
<path fill="#e20da2" opacity="1.00" d=" M 127.08 102.76 C 128.24 103.40 129.42 104.04 130.60 104.67 C 131.31 114.11 130.42 123.58 130.98 133.03 C 131.26 137.16 131.01 141.30 130.54 145.41 C 129.32 145.98 128.11 146.56 126.88 147.12 C 126.93 132.33 126.56 117.53 127.08 102.76 Z" />
</g>
<g id="#fa655cff">
<path fill="#fa655c" opacity="1.00" d=" M 97.09 111.73 C 99.17 108.28 102.22 105.55 105.60 103.41 C 105.59 117.76 105.97 132.13 105.41 146.47 C 102.17 144.40 99.26 141.76 97.22 138.48 C 99.40 132.88 98.32 126.82 98.59 120.98 C 98.74 117.82 98.36 114.65 97.09 111.73 Z" />
</g>
<g id="#c91ba8ff">
<path fill="#c91ba8" opacity="1.00" d=" M 130.60 104.67 C 132.69 105.98 134.77 107.30 136.85 108.64 C 136.62 119.54 136.62 130.45 136.86 141.35 C 134.75 142.71 132.63 144.04 130.54 145.41 C 131.01 141.30 131.26 137.16 130.98 133.03 C 130.42 123.58 131.31 114.11 130.60 104.67 Z" />
</g>
<g id="#4961cbff">
<path fill="#4961cb" opacity="1.00" d=" M 165.81 111.16 C 169.06 109.55 172.27 107.86 175.65 106.53 C 175.27 110.99 175.13 115.47 175.22 119.95 C 175.38 127.79 174.86 135.65 175.63 143.47 C 172.27 142.13 169.06 140.44 165.82 138.85 L 165.83 138.66 C 166.42 129.57 166.36 120.42 165.82 111.33 L 165.81 111.16 Z" />
</g>
<g id="#336dd1ff">
<path fill="#336dd1" opacity="1.00" d=" M 175.65 106.53 C 179.17 106.26 182.96 106.76 185.64 109.28 C 193.78 116.49 194.29 130.26 187.69 138.65 C 184.90 142.37 180.20 144.08 175.63 143.47 C 174.86 135.65 175.38 127.79 175.22 119.95 C 175.13 115.47 175.27 110.99 175.65 106.53 Z" />
</g>
<g id="#ae2ab0ff">
<path fill="#ae2ab0" opacity="1.00" d=" M 136.85 108.64 C 138.94 109.77 141.07 110.82 143.22 111.85 C 142.57 120.62 143.10 129.44 143.02 138.23 C 140.95 139.24 138.88 140.26 136.86 141.35 C 136.62 130.45 136.62 119.54 136.85 108.64 Z" />
</g>
<g id="#923ab8ff">
<path fill="#923ab8" opacity="1.00" d=" M 143.22 111.85 C 145.38 112.51 147.56 113.12 149.75 113.64 C 149.80 121.21 149.77 128.78 149.80 136.35 C 147.52 136.89 145.26 137.52 143.02 138.23 C 143.10 129.44 142.57 120.62 143.22 111.85 Z" />
</g>
<g id="#5b58c6ff">
<path fill="#5b58c6" opacity="1.00" d=" M 159.87 113.36 C 161.84 112.65 163.82 111.97 165.82 111.33 C 166.36 120.42 166.42 129.57 165.83 138.66 C 163.79 138.01 161.77 137.33 159.76 136.62 C 160.34 128.87 160.22 121.11 159.87 113.36 Z" />
</g>
<g id="#fb8449ff">
<path fill="#fb8449" opacity="1.00" d=" M 97.22 138.48 C 92.17 130.50 92.12 119.76 97.09 111.73 C 98.36 114.65 98.74 117.82 98.59 120.98 C 98.32 126.82 99.40 132.88 97.22 138.48 Z" />
</g>
<g id="#7c46bdff">
<path fill="#7c46bd" opacity="1.00" d=" M 149.75 113.64 C 151.30 113.71 152.85 113.78 154.40 113.86 C 155.29 121.25 155.59 128.77 154.39 136.14 C 152.86 136.22 151.33 136.29 149.80 136.35 C 149.77 128.78 149.80 121.21 149.75 113.64 Z" />
</g>
<g id="#6c4fc1ff">
<path fill="#6c4fc1" opacity="1.00" d=" M 154.40 113.86 C 156.22 113.71 158.04 113.55 159.87 113.36 C 160.22 121.11 160.34 128.87 159.76 136.62 C 157.97 136.43 156.18 136.29 154.39 136.14 C 155.59 128.77 155.29 121.25 154.40 113.86 Z" />
</g>
<g id="#e4f116ff">
<path fill="#e4f116" opacity="1.00" d=" M 60.27 147.02 C 60.25 144.44 60.62 141.88 60.96 139.33 C 62.96 146.44 66.22 153.20 70.85 158.98 C 68.98 163.76 69.59 168.94 69.58 173.95 C 69.57 185.38 69.58 196.81 69.60 208.24 C 66.12 205.88 62.81 203.30 59.62 200.58 C 60.09 197.07 60.44 193.54 60.38 189.99 C 60.23 175.67 60.44 161.34 60.27 147.02 Z" />
</g>
<g id="#7b47beff">
<path fill="#7b47be" opacity="1.00" d=" M 149.49 157.32 C 152.16 156.36 155.03 156.19 157.85 156.42 C 157.46 164.98 158.22 173.53 157.79 182.09 C 157.52 187.40 158.41 192.70 158.03 198.01 C 157.48 205.20 158.59 212.39 158.14 219.59 C 155.38 220.52 152.57 221.33 149.74 222.06 C 149.25 200.49 149.76 178.90 149.49 157.32 Z" />
</g>
<g id="#c71ca9ff">
<path fill="#c71ca9" opacity="1.00" d=" M 128.40 172.22 C 131.92 170.28 135.24 167.98 138.32 165.39 C 138.97 168.21 139.51 171.07 139.47 173.97 C 139.29 190.70 139.54 207.43 139.33 224.16 C 136.39 224.51 133.44 224.72 130.48 224.78 C 130.27 209.20 130.46 193.61 130.40 178.02 C 130.57 175.86 129.62 173.93 128.40 172.22 Z" />
</g>
<g id="#fdc120ff">
<path fill="#fdc120" opacity="1.00" d=" M 82.35 169.43 C 84.17 170.59 86.04 171.66 87.98 172.61 C 87.35 179.40 88.09 186.20 88.01 192.99 C 87.35 201.22 87.89 209.47 87.78 217.70 C 85.61 216.90 83.47 216.01 81.35 215.07 L 81.38 214.89 C 82.79 208.32 81.41 201.63 81.96 195.00 C 82.63 186.47 80.99 177.93 82.35 169.43 Z" />
</g>
<g id="#fc9e37ff">
<path fill="#fc9e37" opacity="1.00" d=" M 87.98 172.61 C 90.12 173.59 92.31 174.46 94.55 175.19 C 94.26 190.20 94.69 205.21 94.31 220.22 C 92.14 219.44 89.96 218.69 87.78 217.97 L 87.78 217.70 C 87.89 209.47 87.35 201.22 88.01 192.99 C 88.09 186.20 87.35 179.40 87.98 172.61 Z" />
</g>
<g id="#ef069eff">
<path fill="#ef069e" opacity="1.00" d=" M 122.66 174.82 C 124.62 174.07 126.54 173.19 128.40 172.22 C 129.62 173.93 130.57 175.86 130.40 178.02 C 130.46 193.61 130.27 209.20 130.48 224.78 L 130.48 225.10 C 126.98 224.89 123.46 224.93 119.96 224.78 C 120.63 224.49 121.96 223.91 122.63 223.62 C 122.86 207.36 122.73 191.09 122.66 174.82 Z" />
</g>
<g id="#f7188eff">
<path fill="#f7188e" opacity="1.00" d=" M 115.34 176.71 C 117.83 176.29 120.28 175.65 122.66 174.82 C 122.73 191.09 122.86 207.36 122.63 223.62 C 121.96 223.91 120.63 224.49 119.96 224.78 C 118.42 224.82 116.89 224.68 115.37 224.58 C 115.49 208.63 115.61 192.67 115.34 176.71 Z" />
</g>
<g id="#fb7a4fff">
<path fill="#fb7a4f" opacity="1.00" d=" M 94.55 175.19 C 97.08 175.92 99.66 176.49 102.26 176.86 C 104.18 184.79 103.42 193.00 102.69 201.02 C 102.46 208.19 102.65 215.37 102.68 222.54 C 99.86 221.87 97.07 221.08 94.31 220.22 C 94.69 205.21 94.26 190.20 94.55 175.19 Z" />
</g>
<g id="#f8337dff">
<path fill="#f8337d" opacity="1.00" d=" M 110.74 177.28 C 112.28 177.15 113.81 176.94 115.34 176.71 C 115.61 192.67 115.49 208.63 115.37 224.58 C 114.42 224.49 112.52 224.32 111.58 224.23 C 110.96 221.19 110.51 218.11 110.59 215.00 C 110.82 202.43 110.52 189.86 110.74 177.28 Z" />
</g>
</svg>
