<?xml version="1.0" encoding="UTF-8" ?>
<!DOCTYPE svg PUBLIC "-//W3C//DTD SVG 1.1//EN" "http://www.w3.org/Graphics/SVG/1.1/DTD/svg11.dtd">
<svg width="250pt" height="250pt" viewBox="0 0 250 250" version="1.1" xmlns="http://www.w3.org/2000/svg">
<g id="#ffffffff">
<path fill="#ffffff" opacity="1.00" d=" M 0.00 0.00 L 250.00 0.00 L 250.00 250.00 L 0.00 250.00 L 0.00 0.00 M 133.82 43.15 C 133.77 45.09 133.68 47.03 133.68 48.97 C 133.82 100.40 133.55 151.82 133.82 203.24 C 157.35 203.75 180.51 192.51 195.44 174.45 C 207.29 160.18 214.31 141.62 213.71 122.99 C 214.45 95.99 199.27 69.73 176.65 55.40 C 163.88 47.43 148.91 42.89 133.82 43.15 M 78.37 47.45 C 66.85 49.79 57.44 59.69 55.24 71.18 C 52.72 83.31 58.15 96.68 68.77 103.22 C 75.92 108.14 85.05 108.67 93.35 107.14 C 102.46 104.55 110.32 97.69 113.87 88.86 C 116.21 83.60 115.95 77.67 115.59 72.06 C 114.33 64.06 109.52 56.75 102.92 52.10 C 95.92 47.08 86.71 45.60 78.37 47.45 M 56.41 151.44 C 55.72 152.16 54.68 153.47 55.69 154.39 C 61.51 160.72 68.42 166.08 73.70 172.91 C 67.78 179.61 60.90 185.40 54.97 192.09 C 57.95 196.34 61.83 199.91 65.98 203.00 C 72.66 196.97 78.65 190.23 85.21 184.08 C 91.68 189.80 97.23 196.51 103.64 202.31 C 104.53 203.35 105.85 202.29 106.60 201.63 C 109.90 198.71 112.92 195.47 115.85 192.17 C 110.23 186.12 104.14 180.51 98.43 174.54 C 97.82 173.84 96.65 172.60 97.68 171.72 C 103.39 165.22 110.16 159.70 115.73 153.06 C 112.33 149.31 108.75 145.74 104.94 142.41 C 97.74 148.01 92.37 155.62 85.10 161.13 C 78.51 155.07 72.60 148.32 65.94 142.33 C 62.57 145.15 59.40 148.21 56.41 151.44 Z" />
</g>
<g id="#3d7af7ff">
<path fill="#3d7af7" opacity="1.00" d=" M 133.82 43.15 C 148.91 42.89 163.88 47.43 176.65 55.40 C 199.27 69.73 214.45 95.99 213.71 122.99 C 214.31 141.62 207.29 160.18 195.44 174.45 C 180.51 192.51 157.35 203.75 133.82 203.24 C 133.55 151.82 133.82 100.40 133.68 48.97 C 133.68 47.03 133.77 45.09 133.82 43.15 Z" />
<path fill="#3d7af7" opacity="1.00" d=" M 78.37 47.45 C 86.71 45.60 95.92 47.08 102.92 52.10 C 109.52 56.75 114.33 64.06 115.59 72.06 C 115.95 77.67 116.21 83.60 113.87 88.86 C 110.32 97.69 102.46 104.55 93.35 107.14 C 85.05 108.67 75.92 108.14 68.77 103.22 C 58.15 96.68 52.72 83.31 55.24 71.18 C 57.44 59.69 66.85 49.79 78.37 47.45 Z" />
<path fill="#3d7af7" opacity="1.00" d=" M 56.41 151.44 C 59.40 148.21 62.57 145.15 65.94 142.33 C 72.60 148.32 78.51 155.07 85.10 161.13 C 92.37 155.62 97.74 148.01 104.94 142.41 C 108.75 145.74 112.33 149.31 115.73 153.06 C 110.16 159.70 103.39 165.22 97.68 171.72 C 96.65 172.60 97.82 173.84 98.43 174.54 C 104.14 180.51 110.23 186.12 115.85 192.17 C 112.92 195.47 109.90 198.71 106.60 201.63 C 105.85 202.29 104.53 203.35 103.64 202.31 C 97.23 196.51 91.68 189.80 85.21 184.08 C 78.65 190.23 72.66 196.97 65.98 203.00 C 61.83 199.91 57.95 196.34 54.97 192.09 C 60.90 185.40 67.78 179.61 73.70 172.91 C 68.42 166.08 61.51 160.72 55.69 154.39 C 54.68 153.47 55.72 152.16 56.41 151.44 Z" />
</g>
</svg>
