<?xml version="1.0" encoding="UTF-8" ?>
<!DOCTYPE svg PUBLIC "-//W3C//DTD SVG 1.1//EN" "http://www.w3.org/Graphics/SVG/1.1/DTD/svg11.dtd">
<svg width="250pt" height="250pt" viewBox="0 0 250 250" version="1.1" xmlns="http://www.w3.org/2000/svg">
<g id="#ffffffff">
<path fill="#ffffff" opacity="1.00" d=" M 0.00 0.00 L 0.42 0.00 C 0.31 0.10 0.10 0.29 0.00 0.39 L 0.00 0.00 Z" />
<path fill="#ffffff" opacity="1.00" d=" M 249.61 0.00 L 250.00 0.00 L 250.00 0.42 C 249.90 0.31 249.71 0.10 249.61 0.00 Z" />
<path fill="#ffffff" opacity="1.00" d=" M 55.52 42.56 C 86.30 48.09 117.10 53.45 147.88 58.97 C 155.55 60.86 163.31 62.37 170.91 64.56 C 176.39 66.20 182.06 68.89 185.07 74.02 C 193.01 87.46 194.95 103.55 194.36 118.90 C 193.68 131.47 191.05 144.41 184.00 155.03 C 176.76 165.03 163.67 167.71 152.06 168.22 C 137.49 168.36 122.92 168.22 108.35 168.28 C 110.86 181.39 113.63 194.45 115.96 207.59 C 103.18 207.60 90.39 207.60 77.61 207.59 C 70.23 152.58 62.94 97.56 55.52 42.56 M 89.65 76.66 C 94.27 98.62 98.68 120.63 103.16 142.62 C 115.72 144.26 128.39 143.66 141.01 143.74 C 147.63 143.74 155.20 142.25 159.25 136.48 C 164.73 127.75 165.35 116.89 164.17 106.90 C 163.24 101.57 161.87 95.93 158.22 91.77 C 153.76 87.71 147.33 87.57 141.81 85.96 C 124.48 82.59 107.02 79.85 89.65 76.66 Z" />
<path fill="#ffffff" opacity="1.00" d=" M 0.00 249.58 C 0.10 249.69 0.29 249.90 0.39 250.00 L 0.00 250.00 L 0.00 249.58 Z" />
<path fill="#ffffff" opacity="1.00" d=" M 249.58 250.00 C 249.69 249.90 249.90 249.71 250.00 249.61 L 250.00 250.00 L 249.58 250.00 Z" />
</g>
<g id="#0000baff">
<path fill="#0000ba" opacity="1.00" d=" M 0.42 0.00 L 249.61 0.00 C 249.71 0.10 249.90 0.31 250.00 0.42 L 250.00 249.61 C 249.90 249.71 249.69 249.90 249.58 250.00 L 0.39 250.00 C 0.29 249.90 0.10 249.69 0.00 249.58 L 0.00 0.39 C 0.10 0.29 0.31 0.10 0.42 0.00 M 55.52 42.56 C 62.94 97.56 70.23 152.58 77.61 207.59 C 90.39 207.60 103.18 207.60 115.96 207.59 C 113.63 194.45 110.86 181.39 108.35 168.28 C 122.92 168.22 137.49 168.36 152.06 168.22 C 163.67 167.71 176.76 165.03 184.00 155.03 C 191.05 144.41 193.68 131.47 194.36 118.90 C 194.95 103.55 193.01 87.46 185.07 74.02 C 182.06 68.89 176.39 66.20 170.91 64.56 C 163.31 62.37 155.55 60.86 147.88 58.97 C 117.10 53.45 86.30 48.09 55.52 42.56 Z" />
<path fill="#0000ba" opacity="1.00" d=" M 89.65 76.66 C 107.02 79.85 124.48 82.59 141.81 85.96 C 147.33 87.57 153.76 87.71 158.22 91.77 C 161.87 95.93 163.24 101.57 164.17 106.90 C 165.35 116.89 164.73 127.75 159.25 136.48 C 155.20 142.25 147.63 143.74 141.01 143.74 C 128.39 143.66 115.72 144.26 103.16 142.62 C 98.68 120.63 94.27 98.62 89.65 76.66 Z" />
</g>
</svg>
