<?xml version="1.0" encoding="UTF-8" ?>
<!DOCTYPE svg PUBLIC "-//W3C//DTD SVG 1.1//EN" "http://www.w3.org/Graphics/SVG/1.1/DTD/svg11.dtd">
<svg width="250pt" height="250pt" viewBox="0 0 250 250" version="1.1" xmlns="http://www.w3.org/2000/svg">
<g id="#ffffffff">
<path fill="#ffffff" opacity="1.00" d=" M 0.00 0.00 L 250.00 0.00 L 250.00 250.00 L 0.00 250.00 L 0.00 0.00 M 110.32 2.94 C 69.08 7.14 31.40 34.34 13.56 71.61 C 5.49 88.50 0.63 107.20 1.26 126.00 C 0.63 146.05 6.44 165.85 15.45 183.61 C 26.77 204.61 44.03 222.51 65.02 233.95 C 79.55 242.06 95.81 246.99 112.35 248.65 C 121.60 249.09 130.89 249.11 140.12 248.45 C 165.53 245.33 189.85 234.06 208.58 216.59 C 224.02 202.31 236.09 184.16 242.30 164.00 C 246.38 152.79 247.62 140.84 248.46 129.03 C 248.85 121.76 247.81 114.54 247.00 107.34 C 240.81 61.57 206.24 20.99 161.95 7.80 C 145.38 2.26 127.61 1.36 110.32 2.94 Z" />
<path fill="#ffffff" opacity="1.00" d=" M 142.30 21.31 C 147.88 17.45 154.04 14.49 159.94 11.15 C 161.12 13.61 162.18 16.13 162.98 18.75 C 158.75 20.67 154.32 22.14 150.07 24.02 C 145.90 25.72 144.13 30.20 141.53 33.53 C 138.60 38.21 134.55 42.20 132.25 47.24 C 131.06 52.17 131.59 57.32 131.28 62.35 C 128.99 62.48 126.70 62.59 124.40 62.69 C 124.28 59.01 123.96 55.27 124.87 51.67 C 126.23 46.47 127.05 40.86 130.60 36.60 C 134.64 31.62 137.76 25.87 142.30 21.31 Z" />
<path fill="#ffffff" opacity="1.00" d=" M 82.10 22.12 C 88.31 23.97 94.38 26.26 100.48 28.46 C 105.17 30.04 107.81 34.52 111.16 37.85 C 113.28 40.36 116.40 42.48 116.78 46.01 C 117.74 51.30 118.63 56.61 119.37 61.94 C 114.24 61.19 109.17 60.08 104.16 58.75 C 101.27 58.06 99.57 55.39 97.65 53.36 C 94.69 49.65 90.74 46.51 89.17 41.87 C 86.80 35.29 84.08 28.83 82.10 22.12 Z" />
<path fill="#ffffff" opacity="1.00" d=" M 103.62 74.36 C 110.08 71.98 116.63 69.86 123.24 67.99 C 125.24 67.18 127.28 68.14 129.19 68.71 C 135.54 70.88 141.86 73.14 148.00 75.85 C 142.87 81.49 137.21 86.62 131.75 91.95 C 126.29 89.44 121.43 85.84 116.27 82.78 C 112.02 80.03 107.30 77.93 103.62 74.36 Z" />
<path fill="#ffffff" opacity="1.00" d=" M 100.20 75.26 C 109.37 80.85 118.58 86.39 127.58 92.22 C 122.56 93.94 117.19 93.60 112.00 94.35 C 103.92 94.92 95.88 96.08 87.78 96.36 C 91.41 89.04 96.05 82.28 100.20 75.26 Z" />
<path fill="#ffffff" opacity="1.00" d=" M 134.39 92.24 C 139.67 87.01 144.76 81.52 150.63 76.96 C 154.88 83.19 159.36 89.28 163.11 95.83 C 153.51 94.96 143.87 94.00 134.39 92.24 Z" />
<path fill="#ffffff" opacity="1.00" d=" M 106.76 96.67 C 114.56 96.20 122.29 94.90 130.10 94.58 C 127.51 103.79 125.06 113.07 121.94 122.12 C 115.41 118.48 109.54 113.82 103.29 109.74 C 98.36 106.13 92.86 103.25 88.48 98.94 C 94.48 97.54 100.67 97.50 106.76 96.67 Z" />
<path fill="#ffffff" opacity="1.00" d=" M 129.38 104.54 C 130.24 101.09 131.28 97.67 132.69 94.40 C 139.46 94.85 146.14 96.15 152.88 96.91 C 156.24 97.34 159.65 97.60 162.91 98.59 C 155.74 103.32 148.20 107.47 140.90 111.99 C 135.51 115.11 130.40 118.75 124.70 121.29 C 125.81 115.59 127.95 110.16 129.38 104.54 Z" />
<path fill="#ffffff" opacity="1.00" d=" M 140.57 114.50 C 148.87 109.72 156.79 104.26 165.34 99.94 C 166.49 108.53 168.52 117.03 168.80 125.72 C 154.75 125.06 140.72 124.15 126.68 123.40 C 130.77 119.67 135.99 117.54 140.57 114.50 Z" />
<path fill="#ffffff" opacity="1.00" d=" M 85.94 100.81 C 93.74 104.78 100.46 110.51 107.82 115.19 C 111.66 117.84 115.70 120.23 119.20 123.36 C 107.15 123.76 95.17 125.62 83.10 125.39 C 83.51 117.15 84.60 108.95 85.94 100.81 Z" />
<path fill="#ffffff" opacity="1.00" d=" M 84.40 127.89 C 91.90 127.02 99.44 126.47 107.00 126.18 C 111.92 125.98 117.05 124.63 121.87 125.85 C 123.33 128.74 124.19 131.88 125.15 134.97 C 127.44 142.84 130.59 150.45 132.50 158.43 C 126.71 155.90 121.68 152.00 116.33 148.70 C 105.73 141.70 94.69 135.33 84.40 127.89 Z" />
<path fill="#ffffff" opacity="1.00" d=" M 124.33 125.48 C 130.24 125.19 136.12 125.88 142.00 126.29 C 150.93 126.39 159.80 127.41 168.72 127.84 C 159.79 138.77 149.63 148.63 140.12 159.05 C 139.04 160.36 137.58 161.21 136.05 161.88 C 132.16 149.74 127.86 137.72 124.33 125.48 Z" />
<path fill="#ffffff" opacity="1.00" d=" M 66.56 151.58 C 71.65 144.08 76.24 136.22 81.87 129.10 C 97.93 138.92 113.53 149.49 129.54 159.40 C 131.40 160.50 133.04 161.94 134.43 163.61 C 124.94 163.98 115.54 162.25 106.10 161.60 C 91.71 160.66 77.37 158.86 62.96 158.34 C 63.91 155.96 65.10 153.69 66.56 151.58 Z" />
<path fill="#ffffff" opacity="1.00" d=" M 152.14 149.13 C 158.26 142.74 163.98 135.98 170.20 129.69 C 173.79 133.97 176.40 138.91 179.45 143.56 C 182.45 148.45 185.95 153.07 188.17 158.40 C 174.12 160.14 159.99 161.26 145.96 163.19 C 143.85 163.48 141.73 163.61 139.60 163.69 C 142.97 158.19 148.02 154.04 152.14 149.13 Z" />
<path fill="#ffffff" opacity="1.00" d=" M 63.78 160.19 C 84.58 161.32 105.28 163.89 126.06 165.27 C 128.53 165.36 130.99 165.76 133.32 166.59 C 125.86 176.58 117.64 185.96 109.81 195.65 C 104.13 192.37 99.35 187.80 94.07 183.94 C 84.04 175.95 73.50 168.57 63.78 160.19 Z" />
<path fill="#ffffff" opacity="1.00" d=" M 158.02 163.79 C 168.54 162.75 178.98 160.95 189.54 160.34 C 191.03 172.91 193.66 185.39 193.80 198.08 C 183.79 192.30 174.28 185.69 164.47 179.57 C 157.46 174.86 150.05 170.71 143.24 165.70 C 148.10 164.58 153.09 164.38 158.02 163.79 Z" />
<path fill="#ffffff" opacity="1.00" d=" M 59.13 177.29 C 60.01 171.98 60.12 166.54 61.55 161.33 C 73.49 170.38 85.27 179.65 97.14 188.80 C 100.24 191.12 103.35 193.45 106.19 196.08 C 89.63 198.02 73.00 199.16 56.37 200.31 C 56.45 192.56 58.15 184.95 59.13 177.29 Z" />
<path fill="#ffffff" opacity="1.00" d=" M 131.81 171.89 C 133.71 169.69 135.30 166.97 138.05 165.74 C 141.92 166.81 145.02 169.52 148.40 171.57 C 161.22 179.75 173.96 188.06 186.83 196.17 C 188.71 197.38 190.51 198.71 192.24 200.11 C 177.41 199.77 162.61 198.68 147.78 198.29 C 140.22 197.24 132.56 197.81 124.99 196.90 C 120.74 196.47 116.46 196.52 112.20 196.21 C 118.38 187.82 125.39 180.09 131.81 171.89 Z" />
<path fill="#ffffff" opacity="1.00" d=" M 69.96 201.26 C 78.96 200.41 88.00 200.02 96.99 198.99 C 100.25 198.61 103.54 198.55 106.82 198.69 C 104.47 202.60 101.32 205.92 98.47 209.45 C 92.21 217.01 86.05 224.65 79.76 232.17 C 76.08 228.79 73.37 224.57 70.42 220.57 C 66.12 214.53 61.39 208.81 57.24 202.67 C 61.39 201.55 65.69 201.43 69.96 201.26 Z" />
<path fill="#ffffff" opacity="1.00" d=" M 114.48 198.80 C 118.99 198.40 123.52 198.71 128.01 199.14 C 142.67 199.98 157.35 200.39 172.01 201.33 C 179.08 201.43 186.17 201.60 193.19 202.59 C 191.67 205.20 189.92 207.67 188.03 210.02 C 181.99 217.72 176.31 225.72 169.97 233.18 C 167.98 232.15 166.00 231.11 164.09 229.95 C 151.82 222.20 139.43 214.63 127.12 206.94 C 122.88 204.27 118.45 201.88 114.48 198.80 Z" />
<path fill="#ffffff" opacity="1.00" d=" M 100.29 210.29 C 103.28 206.74 105.91 202.85 109.50 199.85 C 113.89 214.59 118.98 229.12 122.98 243.97 C 117.48 243.55 112.28 241.62 106.96 240.33 C 98.44 238.23 89.86 236.22 81.59 233.23 C 87.65 225.45 94.09 217.96 100.29 210.29 Z" />
<path fill="#ffffff" opacity="1.00" d=" M 111.99 200.01 C 126.11 208.47 140.01 217.30 154.01 225.95 C 158.24 228.63 162.63 231.05 166.61 234.11 C 157.26 237.37 147.50 239.26 137.96 241.85 C 133.86 243.03 129.75 244.21 125.52 244.84 C 121.23 229.83 115.82 215.14 111.99 200.01 Z" />
</g>
<g id="#8247e5ff">
<path fill="#8247e5" opacity="1.00" d=" M 110.32 2.94 C 127.61 1.36 145.38 2.26 161.95 7.80 C 206.24 20.99 240.81 61.57 247.00 107.34 C 247.81 114.54 248.85 121.76 248.46 129.03 C 247.62 140.84 246.38 152.79 242.30 164.00 C 236.09 184.16 224.02 202.31 208.58 216.59 C 189.85 234.06 165.53 245.33 140.12 248.45 C 130.89 249.11 121.60 249.09 112.35 248.65 C 95.81 246.99 79.55 242.06 65.02 233.95 C 44.03 222.51 26.77 204.61 15.45 183.61 C 6.44 165.85 0.63 146.05 1.26 126.00 C 0.63 107.20 5.49 88.50 13.56 71.61 C 31.40 34.34 69.08 7.14 110.32 2.94 M 142.30 21.31 C 137.76 25.87 134.64 31.62 130.60 36.60 C 127.05 40.86 126.23 46.47 124.87 51.67 C 123.96 55.27 124.28 59.01 124.40 62.69 C 126.70 62.59 128.99 62.48 131.28 62.35 C 131.59 57.32 131.06 52.17 132.25 47.24 C 134.55 42.20 138.60 38.21 141.53 33.53 C 144.13 30.20 145.90 25.72 150.07 24.02 C 154.32 22.14 158.75 20.67 162.98 18.75 C 162.18 16.13 161.12 13.61 159.94 11.15 C 154.04 14.49 147.88 17.45 142.30 21.31 M 82.10 22.12 C 84.08 28.83 86.80 35.29 89.17 41.87 C 90.74 46.51 94.69 49.65 97.65 53.36 C 99.57 55.39 101.27 58.06 104.16 58.75 C 109.17 60.08 114.24 61.19 119.37 61.94 C 118.63 56.61 117.74 51.30 116.78 46.01 C 116.40 42.48 113.28 40.36 111.16 37.85 C 107.81 34.52 105.17 30.04 100.48 28.46 C 94.38 26.26 88.31 23.97 82.10 22.12 M 103.62 74.36 C 107.30 77.93 112.02 80.03 116.27 82.78 C 121.43 85.84 126.29 89.44 131.75 91.95 C 137.21 86.62 142.87 81.49 148.00 75.85 C 141.86 73.14 135.54 70.88 129.19 68.71 C 127.28 68.14 125.24 67.18 123.24 67.99 C 116.63 69.86 110.08 71.98 103.62 74.36 M 100.20 75.26 C 96.05 82.28 91.41 89.04 87.78 96.36 C 95.88 96.08 103.92 94.92 112.00 94.35 C 117.19 93.60 122.56 93.94 127.58 92.22 C 118.58 86.39 109.37 80.85 100.20 75.26 M 134.39 92.24 C 143.87 94.00 153.51 94.96 163.11 95.83 C 159.36 89.28 154.88 83.19 150.63 76.96 C 144.76 81.52 139.67 87.01 134.39 92.24 M 106.76 96.67 C 100.67 97.50 94.48 97.54 88.48 98.94 C 92.86 103.25 98.36 106.13 103.29 109.74 C 109.54 113.82 115.41 118.48 121.94 122.12 C 125.06 113.07 127.51 103.79 130.10 94.58 C 122.29 94.90 114.56 96.20 106.76 96.67 M 129.38 104.54 C 127.95 110.16 125.81 115.59 124.70 121.29 C 130.40 118.75 135.51 115.11 140.90 111.99 C 148.20 107.47 155.74 103.32 162.91 98.59 C 159.65 97.60 156.24 97.34 152.88 96.91 C 146.14 96.15 139.46 94.85 132.69 94.40 C 131.28 97.67 130.24 101.09 129.38 104.54 M 140.57 114.50 C 135.99 117.54 130.77 119.67 126.68 123.40 C 140.72 124.15 154.75 125.06 168.80 125.72 C 168.52 117.03 166.49 108.53 165.34 99.94 C 156.79 104.26 148.87 109.72 140.57 114.50 M 85.94 100.81 C 84.60 108.95 83.51 117.15 83.10 125.39 C 95.17 125.62 107.15 123.76 119.20 123.36 C 115.70 120.23 111.66 117.84 107.82 115.19 C 100.46 110.51 93.74 104.78 85.94 100.81 M 84.40 127.89 C 94.69 135.33 105.73 141.70 116.33 148.70 C 121.68 152.00 126.71 155.90 132.50 158.43 C 130.59 150.45 127.44 142.84 125.15 134.97 C 124.19 131.88 123.33 128.74 121.87 125.85 C 117.05 124.63 111.92 125.98 107.00 126.18 C 99.44 126.47 91.90 127.02 84.40 127.89 M 124.33 125.48 C 127.86 137.72 132.16 149.74 136.05 161.88 C 137.58 161.21 139.04 160.36 140.12 159.05 C 149.63 148.63 159.79 138.77 168.72 127.84 C 159.80 127.41 150.93 126.39 142.00 126.29 C 136.12 125.88 130.24 125.19 124.33 125.48 M 66.56 151.58 C 65.10 153.69 63.91 155.96 62.96 158.34 C 77.37 158.86 91.71 160.66 106.10 161.60 C 115.54 162.25 124.94 163.98 134.43 163.61 C 133.04 161.94 131.40 160.50 129.54 159.40 C 113.53 149.49 97.93 138.92 81.87 129.10 C 76.24 136.22 71.65 144.08 66.56 151.58 M 152.14 149.13 C 148.02 154.04 142.97 158.19 139.60 163.69 C 141.73 163.61 143.85 163.48 145.96 163.19 C 159.99 161.26 174.12 160.14 188.17 158.40 C 185.95 153.07 182.45 148.45 179.45 143.56 C 176.40 138.91 173.79 133.97 170.20 129.69 C 163.98 135.98 158.26 142.74 152.14 149.13 M 63.78 160.19 C 73.50 168.57 84.04 175.95 94.07 183.94 C 99.35 187.80 104.13 192.37 109.81 195.65 C 117.64 185.96 125.86 176.58 133.32 166.59 C 130.99 165.76 128.53 165.36 126.06 165.27 C 105.28 163.89 84.58 161.32 63.78 160.19 M 158.02 163.79 C 153.09 164.38 148.10 164.58 143.24 165.70 C 150.05 170.71 157.46 174.86 164.47 179.57 C 174.28 185.69 183.79 192.30 193.80 198.08 C 193.66 185.39 191.03 172.91 189.54 160.34 C 178.98 160.95 168.54 162.75 158.02 163.79 M 59.13 177.29 C 58.15 184.95 56.45 192.56 56.37 200.31 C 73.00 199.16 89.63 198.02 106.19 196.08 C 103.35 193.45 100.24 191.12 97.14 188.80 C 85.27 179.65 73.49 170.38 61.55 161.33 C 60.12 166.54 60.01 171.98 59.13 177.29 M 131.81 171.89 C 125.39 180.09 118.38 187.82 112.20 196.21 C 116.46 196.52 120.74 196.47 124.99 196.90 C 132.56 197.81 140.22 197.24 147.78 198.29 C 162.61 198.68 177.41 199.77 192.24 200.11 C 190.51 198.71 188.71 197.38 186.83 196.17 C 173.96 188.06 161.22 179.75 148.40 171.57 C 145.02 169.52 141.92 166.81 138.05 165.74 C 135.30 166.97 133.71 169.69 131.81 171.89 M 69.96 201.26 C 65.69 201.43 61.39 201.55 57.24 202.67 C 61.39 208.81 66.12 214.53 70.42 220.57 C 73.37 224.57 76.08 228.79 79.76 232.17 C 86.05 224.65 92.21 217.01 98.47 209.45 C 101.32 205.92 104.47 202.60 106.82 198.69 C 103.54 198.55 100.25 198.61 96.99 198.99 C 88.00 200.02 78.96 200.41 69.96 201.26 M 114.48 198.80 C 118.45 201.88 122.88 204.27 127.12 206.94 C 139.43 214.63 151.82 222.20 164.09 229.95 C 166.00 231.11 167.98 232.15 169.97 233.18 C 176.31 225.72 181.99 217.72 188.03 210.02 C 189.92 207.67 191.67 205.20 193.19 202.59 C 186.17 201.60 179.08 201.43 172.01 201.33 C 157.35 200.39 142.67 199.98 128.01 199.14 C 123.52 198.71 118.99 198.40 114.48 198.80 M 100.29 210.29 C 94.09 217.96 87.65 225.45 81.59 233.23 C 89.86 236.22 98.44 238.23 106.96 240.33 C 112.28 241.62 117.48 243.55 122.98 243.97 C 118.98 229.12 113.89 214.59 109.50 199.85 C 105.91 202.85 103.28 206.74 100.29 210.29 M 111.99 200.01 C 115.82 215.14 121.23 229.83 125.52 244.84 C 129.75 244.21 133.86 243.03 137.96 241.85 C 147.50 239.26 157.26 237.37 166.61 234.11 C 162.63 231.05 158.24 228.63 154.01 225.95 C 140.01 217.30 126.11 208.47 111.99 200.01 Z" />
</g>
</svg>
