<?xml version="1.0" encoding="UTF-8" ?>
<!DOCTYPE svg PUBLIC "-//W3C//DTD SVG 1.1//EN" "http://www.w3.org/Graphics/SVG/1.1/DTD/svg11.dtd">
<svg width="250pt" height="250pt" viewBox="0 0 250 250" version="1.1" xmlns="http://www.w3.org/2000/svg">
<g id="#ffffffff">
<path fill="#ffffff" opacity="1.00" d=" M 0.00 0.00 L 250.00 0.00 L 250.00 250.00 L 178.68 250.00 C 171.72 244.32 164.67 238.72 157.18 233.76 C 153.12 230.08 148.71 226.85 144.41 223.47 C 140.81 220.38 137.12 217.40 133.12 214.84 C 131.00 213.37 128.87 211.84 127.24 209.82 C 127.97 207.87 129.58 206.46 130.99 205.00 C 135.73 200.38 140.75 195.98 144.60 190.55 C 148.37 186.66 152.25 182.89 155.98 178.96 C 157.66 177.29 159.25 175.54 160.92 173.87 C 168.22 166.51 175.69 159.33 183.04 152.03 C 187.32 148.33 191.73 144.70 194.97 139.99 C 198.50 137.04 201.98 134.02 205.00 130.55 C 206.79 128.61 208.56 126.66 210.39 124.77 C 211.03 124.12 211.68 123.47 212.34 122.83 C 215.14 120.13 217.92 117.40 220.68 114.64 C 222.96 112.43 225.30 110.27 227.64 108.11 C 233.18 103.88 236.01 97.36 240.39 92.10 C 240.91 91.41 241.44 90.71 241.96 90.00 C 243.24 88.09 245.71 86.14 244.54 83.57 C 242.71 78.57 240.63 73.60 237.81 69.06 C 236.65 67.57 235.01 66.57 233.46 65.55 C 226.94 61.47 220.61 57.09 213.97 53.22 C 203.86 46.16 193.38 39.57 182.26 34.21 C 177.32 31.02 171.77 29.04 166.19 27.32 C 161.00 25.66 155.58 24.98 150.25 23.94 C 144.94 22.45 139.44 22.50 134.00 22.12 C 121.19 20.28 108.22 22.10 95.63 24.60 C 89.37 25.87 82.80 26.21 76.96 28.99 C 67.31 33.28 58.46 39.08 49.47 44.56 C 41.95 48.45 34.71 52.91 28.02 58.11 C 23.00 61.41 18.16 64.98 13.22 68.39 C 12.15 69.20 11.01 69.95 10.20 71.03 C 8.04 74.84 6.62 79.01 4.91 83.03 C 4.13 84.66 3.30 86.26 2.50 87.88 C 3.10 88.57 3.70 89.27 4.29 89.97 C 7.84 94.01 11.09 98.29 14.34 102.57 C 17.74 107.21 22.22 110.89 26.02 115.18 C 28.79 118.41 32.10 121.09 35.23 123.95 C 36.38 121.96 36.56 119.70 36.39 117.45 C 36.89 117.60 37.39 117.76 37.88 117.94 C 37.23 120.28 36.50 122.62 36.16 125.03 C 37.41 126.82 39.32 127.99 41.06 129.26 C 46.36 134.07 51.07 139.51 56.60 144.07 C 61.26 148.18 65.44 152.79 70.04 156.97 C 78.47 165.22 86.82 173.55 95.11 181.94 C 100.02 186.67 105.20 191.10 110.18 195.75 C 114.30 201.00 119.41 205.31 123.96 210.17 C 122.51 211.33 121.05 212.49 119.57 213.61 C 114.21 217.45 108.88 221.33 103.52 225.15 C 97.65 228.98 92.34 233.57 86.73 237.74 C 81.08 241.56 75.73 245.77 70.39 250.00 L 0.00 250.00 L 0.00 0.00 Z" />
</g>
<g id="#870002ff">
<path fill="#870002" opacity="1.00" d=" M 95.63 24.60 C 108.22 22.10 121.19 20.28 134.00 22.12 C 139.44 22.50 144.94 22.45 150.25 23.94 C 136.72 23.79 123.21 24.30 109.72 25.22 C 111.24 30.71 112.81 36.70 116.98 40.81 C 120.43 41.69 124.04 41.63 127.58 41.67 C 125.63 41.92 123.69 42.17 121.74 42.34 C 117.45 42.65 113.33 41.09 109.08 40.91 C 107.43 41.35 105.98 42.30 104.49 43.11 C 103.75 42.73 103.02 42.34 102.29 41.94 C 99.48 40.43 96.99 38.25 93.92 37.26 C 89.91 37.80 86.59 40.39 83.36 42.62 C 79.95 41.65 76.53 40.69 73.20 39.44 C 71.06 38.47 68.70 38.37 66.46 39.05 C 66.42 39.58 66.35 40.63 66.32 41.15 C 66.25 42.47 66.19 43.79 66.13 45.11 C 65.09 45.57 64.04 46.03 63.01 46.50 C 61.40 45.49 59.80 44.48 58.17 43.50 C 55.31 44.09 52.39 44.36 49.47 44.56 C 58.46 39.08 67.31 33.28 76.96 28.99 C 82.80 26.21 89.37 25.87 95.63 24.60 Z" />
</g>
<g id="#730002ff">
<path fill="#730002" opacity="1.00" d=" M 109.72 25.22 C 123.21 24.30 136.72 23.79 150.25 23.94 C 155.58 24.98 161.00 25.66 166.19 27.32 C 161.19 28.11 156.66 30.88 154.10 35.29 C 150.69 36.97 147.80 39.47 144.56 41.41 C 140.85 41.78 137.37 39.85 133.70 39.69 C 131.53 39.87 129.60 40.97 127.58 41.67 C 124.04 41.63 120.43 41.69 116.98 40.81 C 112.81 36.70 111.24 30.71 109.72 25.22 Z" />
</g>
<g id="#5d0002ff">
<path fill="#5d0002" opacity="1.00" d=" M 154.10 35.29 C 156.66 30.88 161.19 28.11 166.19 27.32 C 171.77 29.04 177.32 31.02 182.26 34.21 C 183.11 36.45 184.03 38.65 185.01 40.84 C 182.72 39.45 180.49 37.75 177.82 37.20 C 173.39 37.32 169.66 40.62 165.24 40.62 C 161.18 39.69 157.68 37.29 154.10 35.29 Z" />
</g>
<g id="#9f0206ff">
<path fill="#9f0206" opacity="1.00" d=" M 182.26 34.21 C 193.38 39.57 203.86 46.16 213.97 53.22 C 207.70 50.67 202.38 46.28 196.01 43.94 C 195.46 44.25 194.37 44.88 193.82 45.20 C 194.96 45.77 196.11 46.35 197.26 46.92 C 196.78 47.42 195.81 48.41 195.33 48.90 C 193.35 49.69 191.40 50.56 189.49 51.48 C 187.44 50.17 185.44 48.78 183.46 47.36 C 182.12 46.50 180.65 45.04 178.97 46.02 C 173.64 48.23 169.01 52.07 163.22 53.18 C 159.34 54.17 153.55 54.83 153.35 59.97 C 154.79 63.31 156.87 66.34 158.42 69.63 C 157.75 70.09 156.40 71.02 155.72 71.48 C 155.55 71.02 155.21 70.09 155.03 69.62 C 153.61 66.03 151.87 62.59 150.33 59.05 C 150.06 58.45 149.51 57.24 149.24 56.64 L 148.82 55.77 C 149.43 55.71 150.65 55.60 151.26 55.54 C 149.53 53.48 147.66 51.54 145.72 49.68 C 149.00 48.62 152.33 47.63 155.77 47.32 C 156.47 47.41 157.87 47.59 158.57 47.68 C 158.18 48.88 157.80 50.08 157.42 51.28 C 162.46 50.87 167.82 50.42 171.80 46.92 C 168.95 46.33 166.08 45.75 163.16 45.56 C 157.77 44.97 152.34 45.32 146.93 45.26 C 144.98 45.34 142.90 45.16 141.12 46.12 C 135.68 48.73 131.06 52.68 126.40 56.44 C 126.09 56.69 125.47 57.19 125.15 57.44 C 125.10 58.93 125.04 60.42 125.00 61.91 C 123.25 59.85 121.51 57.78 119.60 55.88 C 116.68 53.00 113.14 50.61 109.03 49.87 C 105.52 49.79 101.68 50.98 98.94 47.86 C 99.00 47.31 99.12 46.20 99.18 45.65 C 100.26 45.47 101.33 45.29 102.40 45.10 C 104.23 45.67 106.05 46.26 107.87 46.86 C 106.75 45.60 105.62 44.35 104.49 43.11 C 105.98 42.30 107.43 41.35 109.08 40.91 C 113.33 41.09 117.45 42.65 121.74 42.34 C 121.45 44.96 121.21 47.59 120.99 50.22 C 122.71 50.08 124.99 50.91 126.20 49.25 C 127.69 47.04 127.40 44.20 127.58 41.67 C 129.60 40.97 131.53 39.87 133.70 39.69 C 137.37 39.85 140.85 41.78 144.56 41.41 C 147.80 39.47 150.69 36.97 154.10 35.29 C 157.68 37.29 161.18 39.69 165.24 40.62 C 169.66 40.62 173.39 37.32 177.82 37.20 C 180.49 37.75 182.72 39.45 185.01 40.84 C 184.03 38.65 183.11 36.45 182.26 34.21 Z" />
<path fill="#9f0206" opacity="1.00" d=" M 179.60 87.41 C 183.72 84.35 188.22 81.66 191.30 77.44 C 193.12 78.91 194.97 80.36 196.72 81.91 C 197.43 82.96 198.09 84.05 198.73 85.14 C 199.01 85.64 199.57 86.63 199.85 87.13 C 203.32 87.90 206.70 89.21 209.38 91.62 C 206.32 93.10 203.18 94.48 199.83 95.15 C 196.74 95.51 193.64 95.81 190.57 96.30 C 190.12 94.91 189.68 93.52 189.25 92.13 C 187.56 93.09 185.86 94.04 184.17 94.99 C 181.85 94.09 179.26 93.09 176.94 94.57 C 175.84 95.10 174.74 95.63 173.64 96.14 C 172.39 96.51 171.13 96.80 169.87 97.13 C 168.34 97.53 166.91 98.19 165.48 98.86 C 163.79 97.91 162.12 96.89 160.52 95.77 L 160.94 94.90 C 162.95 94.90 164.97 94.96 166.98 94.95 C 169.93 94.89 172.22 92.90 174.52 91.31 C 176.24 90.05 177.91 88.72 179.60 87.41 Z" />
</g>
<g id="#d20106ff">
<path fill="#d20106" opacity="1.00" d=" M 83.36 42.62 C 86.59 40.39 89.91 37.80 93.92 37.26 C 96.99 38.25 99.48 40.43 102.29 41.94 C 102.32 42.73 102.37 44.31 102.40 45.10 C 101.33 45.29 100.26 45.47 99.18 45.65 C 96.85 45.41 94.51 45.13 92.16 45.26 C 89.13 44.74 86.26 43.60 83.36 42.62 Z" />
</g>
<g id="#ee9fa8ff">
<path fill="#ee9fa8" opacity="1.00" d=" M 66.46 39.05 C 68.70 38.37 71.06 38.47 73.20 39.44 C 70.92 40.07 68.62 40.63 66.32 41.15 C 66.35 40.63 66.42 39.58 66.46 39.05 Z" />
<path fill="#ee9fa8" opacity="1.00" d=" M 75.29 79.80 C 78.93 80.59 82.69 80.03 86.34 80.67 C 87.84 82.53 87.54 84.95 87.41 87.16 L 87.36 88.07 C 86.53 88.64 85.70 89.23 84.89 89.83 C 84.60 89.60 84.02 89.14 83.73 88.91 C 80.89 86.27 78.51 83.20 75.88 80.38 L 75.29 79.80 Z" />
<path fill="#ee9fa8" opacity="1.00" d=" M 122.02 99.64 C 122.38 97.07 122.92 94.42 124.79 92.49 L 125.09 93.57 C 124.95 95.46 124.70 97.35 124.45 99.23 C 123.84 99.33 122.62 99.54 122.02 99.64 Z" />
</g>
<g id="#e93d3bff">
<path fill="#e93d3b" opacity="1.00" d=" M 73.20 39.44 C 76.53 40.69 79.95 41.65 83.36 42.62 C 86.26 43.60 89.13 44.74 92.16 45.26 C 90.06 45.83 87.98 46.45 85.89 47.04 C 88.16 48.15 90.43 49.26 92.70 50.37 C 92.45 50.61 91.94 51.08 91.69 51.32 C 89.52 51.14 87.37 50.77 85.22 50.41 C 81.90 45.33 75.64 44.36 70.05 44.09 C 68.67 44.06 67.40 44.65 66.13 45.11 C 66.19 43.79 66.25 42.47 66.32 41.15 C 68.62 40.63 70.92 40.07 73.20 39.44 Z" />
</g>
<g id="#d0a7a7ff">
<path fill="#d0a7a7" opacity="1.00" d=" M 102.29 41.94 C 103.02 42.34 103.75 42.73 104.49 43.11 C 105.62 44.35 106.75 45.60 107.87 46.86 C 106.05 46.26 104.23 45.67 102.40 45.10 C 102.37 44.31 102.32 42.73 102.29 41.94 Z" />
<path fill="#d0a7a7" opacity="1.00" d=" M 132.23 170.40 C 133.51 170.44 134.79 170.49 136.07 170.56 C 136.34 171.03 136.88 171.99 137.16 172.46 C 135.52 172.52 133.88 172.53 132.24 172.62 C 132.24 172.06 132.23 170.95 132.23 170.40 Z" />
<path fill="#d0a7a7" opacity="1.00" d=" M 127.08 207.22 C 133.12 201.87 138.51 195.84 144.60 190.55 C 140.75 195.98 135.73 200.38 130.99 205.00 C 129.58 206.46 127.97 207.87 127.24 209.82 C 128.87 211.84 131.00 213.37 133.12 214.84 C 132.45 215.90 131.77 216.97 131.10 218.03 C 131.81 219.32 132.51 220.61 133.27 221.87 C 133.09 222.60 132.74 224.06 132.57 224.79 C 131.21 224.69 129.85 224.60 128.49 224.51 C 128.34 223.36 128.21 222.21 128.10 221.06 C 128.28 219.86 128.46 218.66 128.64 217.47 C 126.08 218.11 123.50 218.74 121.13 219.91 C 120.60 220.15 119.54 220.64 119.01 220.88 C 119.19 218.46 119.38 216.03 119.57 213.61 C 121.05 212.49 122.51 211.33 123.96 210.17 C 119.41 205.31 114.30 201.00 110.18 195.75 C 114.31 199.02 118.08 202.72 122.01 206.23 C 123.02 207.26 124.03 208.30 125.04 209.33 C 125.72 208.63 126.40 207.92 127.08 207.22 Z" />
</g>
<g id="#c32113ff">
<path fill="#c32113" opacity="1.00" d=" M 121.74 42.34 C 123.69 42.17 125.63 41.92 127.58 41.67 C 127.40 44.20 127.69 47.04 126.20 49.25 C 124.99 50.91 122.71 50.08 120.99 50.22 C 121.21 47.59 121.45 44.96 121.74 42.34 Z" />
</g>
<g id="#c00307ff">
<path fill="#c00307" opacity="1.00" d=" M 49.47 44.56 C 52.39 44.36 55.31 44.09 58.17 43.50 C 59.80 44.48 61.40 45.49 63.01 46.50 C 62.32 47.91 61.64 49.33 60.89 50.72 C 58.85 52.50 56.28 53.54 54.23 55.30 C 52.91 57.00 52.00 58.96 51.05 60.87 C 55.19 64.09 59.00 67.73 62.36 71.76 C 56.49 71.64 54.51 64.48 49.63 62.31 C 47.63 61.64 45.96 63.31 44.40 64.27 C 44.51 63.16 44.62 62.05 44.73 60.95 C 42.40 62.43 40.12 63.97 37.88 65.58 C 39.24 65.78 40.60 65.98 41.95 66.18 C 40.65 67.26 39.42 68.42 38.16 69.54 C 37.76 67.55 35.61 68.08 34.11 68.04 C 32.06 68.13 30.01 68.37 27.96 68.57 C 28.48 66.03 28.36 62.58 31.16 61.36 C 35.00 59.54 39.02 58.07 42.65 55.80 C 42.44 54.60 42.23 53.39 42.02 52.18 C 37.26 53.94 32.65 56.06 28.02 58.11 C 34.71 52.91 41.95 48.45 49.47 44.56 M 44.29 51.09 C 42.36 51.40 42.71 54.68 44.79 53.86 C 46.75 53.56 46.39 50.25 44.29 51.09 M 45.36 55.50 C 45.38 56.06 45.41 57.18 45.42 57.74 C 46.59 58.13 47.76 58.51 48.94 58.89 C 49.30 57.77 49.66 56.66 50.00 55.54 C 48.45 55.53 46.91 55.52 45.36 55.50 Z" />
</g>
<g id="#f9d1d6ff">
<path fill="#f9d1d6" opacity="1.00" d=" M 66.13 45.11 C 67.40 44.65 68.67 44.06 70.05 44.09 C 75.64 44.36 81.90 45.33 85.22 50.41 C 84.49 50.99 83.76 51.56 83.03 52.13 C 81.46 51.68 79.87 51.22 78.23 51.17 C 75.05 53.20 72.81 56.38 70.45 59.27 C 69.89 56.53 69.59 53.72 69.91 50.93 C 70.16 49.30 70.41 47.68 70.63 46.05 C 68.08 46.14 65.73 47.04 63.85 48.77 C 64.10 49.37 64.60 50.58 64.85 51.18 C 64.67 51.59 64.30 52.41 64.12 52.83 C 63.72 52.02 63.33 51.22 62.94 50.42 C 62.43 50.50 61.40 50.64 60.89 50.72 C 61.64 49.33 62.32 47.91 63.01 46.50 C 64.04 46.03 65.09 45.57 66.13 45.11 Z" />
</g>
<g id="#740204ff">
<path fill="#740204" opacity="1.00" d=" M 193.82 45.20 C 194.37 44.88 195.46 44.25 196.01 43.94 C 202.38 46.28 207.70 50.67 213.97 53.22 C 220.61 57.09 226.94 61.47 233.46 65.55 C 235.01 66.57 236.65 67.57 237.81 69.06 C 239.74 73.29 241.19 77.72 242.11 82.28 C 239.15 81.39 236.18 80.34 233.69 78.45 C 232.78 77.35 231.91 76.22 231.01 75.12 C 231.09 71.87 230.68 68.19 227.69 66.27 C 225.89 64.41 223.37 65.53 221.33 66.23 C 220.77 65.87 219.64 65.15 219.08 64.79 C 217.47 62.66 216.10 60.35 214.49 58.22 C 212.56 55.07 208.97 53.51 205.49 55.11 C 205.16 55.03 204.52 54.88 204.19 54.80 C 204.50 53.59 204.78 52.37 205.02 51.15 C 202.61 49.43 199.89 48.24 197.26 46.92 C 196.11 46.35 194.96 45.77 193.82 45.20 Z" />
</g>
<g id="#e33568ff">
<path fill="#e33568" opacity="1.00" d=" M 92.16 45.26 C 94.51 45.13 96.85 45.41 99.18 45.65 C 99.12 46.20 99.00 47.31 98.94 47.86 C 97.62 46.93 96.21 45.87 94.51 46.27 L 94.36 46.64 C 93.84 47.90 93.41 49.20 92.70 50.37 C 90.43 49.26 88.16 48.15 85.89 47.04 C 87.98 46.45 90.06 45.83 92.16 45.26 Z" />
</g>
<g id="#f2dcf5ff">
<path fill="#f2dcf5" opacity="1.00" d=" M 141.12 46.12 C 142.90 45.16 144.98 45.34 146.93 45.26 C 152.34 45.32 157.77 44.97 163.16 45.56 C 160.72 46.21 158.27 46.87 155.77 47.32 C 152.33 47.63 149.00 48.62 145.72 49.68 C 142.36 50.74 139.00 51.99 136.07 53.98 C 134.85 54.78 133.74 55.72 132.62 56.64 C 130.54 56.68 128.47 56.63 126.40 56.44 C 131.06 52.68 135.68 48.73 141.12 46.12 Z" />
<path fill="#f2dcf5" opacity="1.00" d=" M 144.83 114.89 C 149.11 113.24 153.67 112.51 158.22 112.19 C 155.96 116.96 149.10 114.78 144.83 114.89 Z" />
<path fill="#f2dcf5" opacity="1.00" d=" M 52.71 122.64 C 54.05 122.44 55.40 122.25 56.75 122.06 C 56.75 122.71 56.76 124.00 56.76 124.64 C 56.24 124.98 55.19 125.66 54.66 126.00 C 54.02 124.87 53.36 123.75 52.71 122.64 Z" />
</g>
<g id="#be1c12ff">
<path fill="#be1c12" opacity="1.00" d=" M 163.16 45.56 C 166.08 45.75 168.95 46.33 171.80 46.92 C 167.82 50.42 162.46 50.87 157.42 51.28 C 157.80 50.08 158.18 48.88 158.57 47.68 C 157.87 47.59 156.47 47.41 155.77 47.32 C 158.27 46.87 160.72 46.21 163.16 45.56 Z" />
</g>
<g id="#7a0103ff">
<path fill="#7a0103" opacity="1.00" d=" M 178.97 46.02 C 180.65 45.04 182.12 46.50 183.46 47.36 C 181.83 50.97 180.47 54.69 179.32 58.47 C 178.64 58.74 177.28 59.27 176.60 59.54 C 174.86 58.13 173.26 56.57 171.62 55.06 C 170.91 57.51 170.31 59.99 169.52 62.42 C 168.46 65.91 165.74 68.58 164.71 72.08 C 164.99 74.45 165.88 76.70 166.33 79.04 L 165.49 79.24 C 162.58 77.58 159.70 75.86 156.74 74.29 C 156.40 73.35 156.06 72.42 155.72 71.48 C 156.40 71.02 157.75 70.09 158.42 69.63 C 156.87 66.34 154.79 63.31 153.35 59.97 C 153.55 54.83 159.34 54.17 163.22 53.18 C 169.01 52.07 173.64 48.23 178.97 46.02 Z" />
</g>
<g id="#a80405ff">
<path fill="#a80405" opacity="1.00" d=" M 63.85 48.77 C 65.73 47.04 68.08 46.14 70.63 46.05 C 70.41 47.68 70.16 49.30 69.91 50.93 C 69.50 53.40 68.98 55.85 68.44 58.30 C 67.09 56.01 65.89 53.63 64.85 51.18 C 64.60 50.58 64.10 49.37 63.85 48.77 Z" />
</g>
<g id="#f3d4f1ff">
<path fill="#f3d4f1" opacity="1.00" d=" M 94.51 46.27 C 96.21 45.87 97.62 46.93 98.94 47.86 C 101.68 50.98 105.52 49.79 109.03 49.87 C 110.50 51.36 111.92 52.90 113.33 54.45 C 112.69 54.64 111.39 55.03 110.75 55.23 C 105.87 52.99 100.71 51.44 95.50 50.16 C 95.97 49.58 96.43 49.00 96.88 48.40 C 96.16 47.66 95.32 47.07 94.36 46.64 L 94.51 46.27 Z" />
</g>
<g id="#e16993ff">
<path fill="#e16993" opacity="1.00" d=" M 94.36 46.64 C 95.32 47.07 96.16 47.66 96.88 48.40 C 96.43 49.00 95.97 49.58 95.50 50.16 C 93.32 51.91 95.79 53.49 96.94 54.93 C 96.32 54.92 95.06 54.89 94.44 54.88 L 93.41 54.86 C 89.89 54.21 86.45 53.19 83.03 52.13 C 83.76 51.56 84.49 50.99 85.22 50.41 C 87.37 50.77 89.52 51.14 91.69 51.32 C 91.94 51.08 92.45 50.61 92.70 50.37 C 93.41 49.20 93.84 47.90 94.36 46.64 Z" />
</g>
<g id="#ecaa8cff">
<path fill="#ecaa8c" opacity="1.00" d=" M 197.26 46.92 C 199.89 48.24 202.61 49.43 205.02 51.15 C 204.78 52.37 204.50 53.59 204.19 54.80 C 201.96 54.45 199.73 54.08 197.53 53.56 C 196.78 52.01 196.04 50.46 195.33 48.90 C 195.81 48.41 196.78 47.42 197.26 46.92 Z" />
</g>
<g id="#bc0307ff">
<path fill="#bc0307" opacity="1.00" d=" M 183.46 47.36 C 185.44 48.78 187.44 50.17 189.49 51.48 C 191.40 50.56 193.35 49.69 195.33 48.90 C 196.04 50.46 196.78 52.01 197.53 53.56 C 196.05 54.77 194.71 56.21 194.22 58.11 C 192.95 62.24 190.87 66.04 188.67 69.73 C 195.15 70.84 196.52 63.43 198.06 58.84 C 203.40 62.15 207.62 66.87 212.64 70.59 C 212.44 72.23 212.24 73.86 212.02 75.49 C 213.66 74.31 215.18 72.81 217.16 72.23 C 219.31 72.36 221.36 73.07 223.43 73.65 C 223.48 72.52 223.54 71.39 223.66 70.26 L 224.12 69.66 C 225.78 73.17 227.48 76.87 230.54 79.41 C 231.64 79.28 232.66 78.82 233.69 78.45 C 236.18 80.34 239.15 81.39 242.11 82.28 C 241.19 77.72 239.74 73.29 237.81 69.06 C 240.63 73.60 242.71 78.57 244.54 83.57 C 245.71 86.14 243.24 88.09 241.96 90.00 C 242.26 88.48 242.50 86.94 242.76 85.40 C 237.38 83.52 231.65 81.86 226.03 83.80 C 224.93 83.13 223.85 82.44 222.76 81.76 C 219.64 83.06 216.51 84.35 213.42 85.74 C 210.06 84.30 206.34 84.70 202.79 84.85 C 201.43 84.92 200.08 85.02 198.73 85.14 C 198.09 84.05 197.43 82.96 196.72 81.91 C 198.83 81.04 201.53 80.99 203.06 79.10 C 199.79 77.48 196.31 76.33 192.87 75.13 C 190.18 74.11 187.28 74.36 184.47 74.57 C 184.59 71.61 184.64 68.64 184.69 65.68 C 184.71 65.03 184.74 63.74 184.76 63.10 C 182.06 61.87 179.32 60.74 176.60 59.54 C 177.28 59.27 178.64 58.74 179.32 58.47 C 180.47 54.69 181.83 50.97 183.46 47.36 M 199.77 76.21 C 202.13 76.06 205.06 75.68 205.31 72.72 C 203.08 73.21 201.13 74.36 199.77 76.21 M 215.27 74.18 C 213.55 76.12 212.83 78.67 211.95 81.05 C 214.61 80.92 217.26 80.73 219.91 80.49 C 219.38 77.94 218.50 74.22 215.27 74.18 Z" />
</g>
<g id="#fcd2f2ff">
<path fill="#fcd2f2" opacity="1.00" d=" M 60.89 50.72 C 61.40 50.64 62.43 50.50 62.94 50.42 C 63.33 51.22 63.72 52.02 64.12 52.83 C 63.31 54.57 62.47 56.30 61.63 58.03 C 63.18 60.93 65.13 63.70 65.90 66.93 C 65.71 68.71 64.85 70.32 64.06 71.90 C 63.64 71.86 62.79 71.79 62.36 71.76 C 59.00 67.73 55.19 64.09 51.05 60.87 C 52.00 58.96 52.91 57.00 54.23 55.30 C 56.28 53.54 58.85 52.50 60.89 50.72 Z" />
</g>
<g id="#ce2618ff">
<path fill="#ce2618" opacity="1.00" d=" M 109.03 49.87 C 113.14 50.61 116.68 53.00 119.60 55.88 C 119.15 56.40 118.25 57.44 117.80 57.96 C 112.50 57.35 107.19 56.72 101.85 56.49 C 104.85 56.36 107.86 56.11 110.75 55.23 C 111.39 55.03 112.69 54.64 113.33 54.45 C 111.92 52.90 110.50 51.36 109.03 49.87 Z" />
</g>
<g id="#bd5462ff">
<path fill="#bd5462" opacity="1.00" d=" M 136.07 53.98 C 139.00 51.99 142.36 50.74 145.72 49.68 C 147.66 51.54 149.53 53.48 151.26 55.54 C 150.65 55.60 149.43 55.71 148.82 55.77 C 145.95 55.96 143.09 56.20 140.23 56.37 C 140.51 55.20 140.79 54.03 141.07 52.86 C 139.40 53.21 137.72 53.55 136.07 53.98 M 141.43 55.09 C 144.08 55.14 146.73 55.02 149.39 54.88 C 147.50 51.78 143.29 52.13 141.43 55.09 Z" />
</g>
<g id="#cf835fff">
<path fill="#cf835f" opacity="1.00" d=" M 44.29 51.09 C 46.39 50.25 46.75 53.56 44.79 53.86 C 42.71 54.68 42.36 51.40 44.29 51.09 Z" />
</g>
<g id="#e94f48ff">
<path fill="#e94f48" opacity="1.00" d=" M 64.85 51.18 C 65.89 53.63 67.09 56.01 68.44 58.30 C 68.98 55.85 69.50 53.40 69.91 50.93 C 69.59 53.72 69.89 56.53 70.45 59.27 C 68.99 62.38 67.51 65.55 66.85 68.95 C 67.58 71.63 69.65 73.66 71.20 75.90 C 69.57 75.96 67.93 76.07 66.30 76.17 C 66.29 78.87 66.29 81.57 66.20 84.27 C 63.00 82.47 59.70 80.82 56.21 79.65 L 56.67 79.23 C 59.34 77.00 61.89 74.62 64.06 71.90 C 64.85 70.32 65.71 68.71 65.90 66.93 C 65.13 63.70 63.18 60.93 61.63 58.03 C 62.47 56.30 63.31 54.57 64.12 52.83 C 64.30 52.41 64.67 51.59 64.85 51.18 Z" />
</g>
<g id="#cc0108ff">
<path fill="#cc0108" opacity="1.00" d=" M 70.45 59.27 C 72.81 56.38 75.05 53.20 78.23 51.17 C 79.87 51.22 81.46 51.68 83.03 52.13 C 86.45 53.19 89.89 54.21 93.41 54.86 C 88.34 54.88 83.30 55.58 78.29 56.26 C 78.20 56.86 78.02 58.05 77.92 58.65 C 77.37 58.59 76.27 58.47 75.72 58.42 C 76.58 62.68 77.68 67.06 80.64 70.41 C 80.42 66.85 79.94 63.31 79.04 59.86 C 81.24 62.05 83.39 64.28 85.32 66.72 C 84.33 67.84 83.32 68.94 82.31 70.04 C 82.84 72.01 83.38 73.97 83.90 75.93 C 79.67 75.90 75.44 75.77 71.20 75.90 C 69.65 73.66 67.58 71.63 66.85 68.95 C 67.51 65.55 68.99 62.38 70.45 59.27 Z" />
</g>
<g id="#c16f87ff">
<path fill="#c16f87" opacity="1.00" d=" M 96.94 54.93 C 95.79 53.49 93.32 51.91 95.50 50.16 C 100.71 51.44 105.87 52.99 110.75 55.23 C 107.86 56.11 104.85 56.36 101.85 56.49 C 100.91 55.24 99.97 53.99 99.04 52.74 C 98.35 53.47 97.65 54.20 96.94 54.93 Z" />
</g>
<g id="#810306ff">
<path fill="#810306" opacity="1.00" d=" M 28.02 58.11 C 32.65 56.06 37.26 53.94 42.02 52.18 C 42.23 53.39 42.44 54.60 42.65 55.80 C 39.02 58.07 35.00 59.54 31.16 61.36 C 28.36 62.58 28.48 66.03 27.96 68.57 C 30.01 68.37 32.06 68.13 34.11 68.04 C 35.61 68.08 37.76 67.55 38.16 69.54 C 37.80 69.84 37.08 70.43 36.72 70.72 C 33.85 72.06 31.65 74.30 30.16 77.08 C 29.24 76.75 28.32 76.42 27.40 76.09 C 27.01 76.71 26.24 77.96 25.86 78.58 C 22.18 80.80 17.79 80.90 13.63 80.70 C 16.82 77.32 21.17 75.56 25.33 73.70 C 24.29 71.90 23.86 69.15 21.56 68.56 C 19.31 68.67 17.24 69.65 15.15 70.39 C 14.67 69.89 13.70 68.89 13.22 68.39 C 18.16 64.98 23.00 61.41 28.02 58.11 Z" />
</g>
<g id="#ad0004ff">
<path fill="#ad0004" opacity="1.00" d=" M 96.94 54.93 C 97.65 54.20 98.35 53.47 99.04 52.74 C 99.97 53.99 100.91 55.24 101.85 56.49 C 107.19 56.72 112.50 57.35 117.80 57.96 C 118.25 57.44 119.15 56.40 119.60 55.88 C 121.51 57.78 123.25 59.85 125.00 61.91 C 124.89 68.07 124.62 74.27 125.27 80.41 C 125.56 81.69 125.93 82.95 126.31 84.21 C 127.90 80.92 129.90 77.79 132.79 75.49 C 135.11 77.01 137.68 78.28 139.57 80.36 C 140.50 82.13 140.48 84.22 140.93 86.14 C 138.75 83.35 136.58 80.53 134.09 77.99 C 134.38 78.79 134.68 79.58 135.00 80.37 C 133.16 81.41 130.39 81.82 129.80 84.18 C 128.73 87.22 130.64 90.83 133.88 91.37 C 135.60 90.03 137.03 88.36 138.49 86.75 C 138.97 87.64 139.44 88.53 139.91 89.43 C 137.16 91.02 134.00 92.44 132.61 95.51 C 132.25 95.68 131.53 96.01 131.17 96.18 C 129.50 94.37 127.83 92.56 126.16 90.76 C 125.82 91.19 125.13 92.06 124.79 92.49 C 122.92 94.42 122.38 97.07 122.02 99.64 C 122.62 99.54 123.84 99.33 124.45 99.23 C 124.70 97.35 124.95 95.46 125.09 93.57 C 127.50 99.50 127.33 106.09 129.70 112.00 C 130.10 112.81 130.53 113.61 130.98 114.39 C 131.43 114.56 132.32 114.91 132.77 115.08 C 129.07 119.08 123.04 116.50 118.27 117.26 C 117.72 116.63 117.17 116.00 116.62 115.37 C 115.20 113.77 113.79 112.17 112.26 110.68 C 114.13 107.81 113.66 104.24 113.73 101.00 C 113.51 91.83 113.87 82.67 113.58 73.50 C 112.39 73.36 111.21 73.21 110.03 73.07 C 109.28 83.48 110.00 93.94 109.36 104.36 C 108.47 102.19 107.58 100.01 107.08 97.71 C 106.43 94.86 105.67 92.04 104.79 89.26 C 106.20 86.56 108.15 84.06 108.87 81.06 C 106.62 75.01 100.36 70.16 93.65 71.00 C 94.55 73.72 95.70 76.34 97.02 78.88 C 95.87 78.26 94.73 77.64 93.56 77.07 C 92.20 77.86 90.90 78.76 89.66 79.73 C 92.24 72.02 96.49 65.04 99.15 57.37 C 97.39 56.78 95.63 56.19 93.87 55.60 L 94.44 54.88 C 95.06 54.89 96.32 54.92 96.94 54.93 Z" />
</g>
<g id="#c52227ff">
<path fill="#c52227" opacity="1.00" d=" M 136.07 53.98 C 137.72 53.55 139.40 53.21 141.07 52.86 C 140.79 54.03 140.51 55.20 140.23 56.37 C 137.69 56.53 135.15 56.62 132.62 56.64 C 133.74 55.72 134.85 54.78 136.07 53.98 Z" />
</g>
<g id="#e6a1c3ff">
<path fill="#e6a1c3" opacity="1.00" d=" M 141.43 55.09 C 143.29 52.13 147.50 51.78 149.39 54.88 C 146.73 55.02 144.08 55.14 141.43 55.09 Z" />
</g>
<g id="#a10205ff">
<path fill="#a10205" opacity="1.00" d=" M 194.22 58.11 C 194.71 56.21 196.05 54.77 197.53 53.56 C 199.73 54.08 201.96 54.45 204.19 54.80 C 204.52 54.88 205.16 55.03 205.49 55.11 C 208.06 57.18 211.03 59.01 214.49 58.22 C 216.10 60.35 217.47 62.66 219.08 64.79 C 216.45 64.92 213.83 65.19 211.20 65.38 C 211.22 65.97 211.27 67.17 211.29 67.76 C 214.70 67.81 218.16 67.60 221.33 66.23 C 223.37 65.53 225.89 64.41 227.69 66.27 C 230.68 68.19 231.09 71.87 231.01 75.12 C 229.16 72.80 226.99 70.64 224.12 69.66 L 223.66 70.26 C 223.54 71.39 223.48 72.52 223.43 73.65 C 221.36 73.07 219.31 72.36 217.16 72.23 C 215.18 72.81 213.66 74.31 212.02 75.49 C 212.24 73.86 212.44 72.23 212.64 70.59 C 207.62 66.87 203.40 62.15 198.06 58.84 C 196.52 63.43 195.15 70.84 188.67 69.73 C 190.87 66.04 192.95 62.24 194.22 58.11 Z" />
</g>
<g id="#e65685ff">
<path fill="#e65685" opacity="1.00" d=" M 205.49 55.11 C 208.97 53.51 212.56 55.07 214.49 58.22 C 211.03 59.01 208.06 57.18 205.49 55.11 Z" />
</g>
<g id="#f2b09eff">
<path fill="#f2b09e" opacity="1.00" d=" M 45.36 55.50 C 46.91 55.52 48.45 55.53 50.00 55.54 C 49.66 56.66 49.30 57.77 48.94 58.89 C 47.76 58.51 46.59 58.13 45.42 57.74 C 45.41 57.18 45.38 56.06 45.36 55.50 Z" />
</g>
<g id="#880102ff">
<path fill="#880102" opacity="1.00" d=" M 78.29 56.26 C 83.30 55.58 88.34 54.88 93.41 54.86 L 94.44 54.88 L 93.87 55.60 C 91.09 59.35 88.42 63.21 85.32 66.72 C 83.39 64.28 81.24 62.05 79.04 59.86 C 78.76 59.56 78.20 58.95 77.92 58.65 C 78.02 58.05 78.20 56.86 78.29 56.26 Z" />
</g>
<g id="#fbd7f5ff">
<path fill="#fbd7f5" opacity="1.00" d=" M 171.62 55.06 C 173.26 56.57 174.86 58.13 176.60 59.54 C 179.32 60.74 182.06 61.87 184.76 63.10 C 184.74 63.74 184.71 65.03 184.69 65.68 C 181.92 67.59 179.67 70.12 177.76 72.86 C 176.81 74.09 175.89 75.37 174.66 76.35 C 173.25 76.11 171.89 75.63 170.53 75.19 C 170.99 77.11 171.65 79.04 171.58 81.03 C 170.31 83.26 168.57 85.21 167.54 87.59 C 169.88 88.20 172.23 88.76 174.59 89.29 C 174.57 89.79 174.54 90.80 174.52 91.31 C 172.22 92.90 169.93 94.89 166.98 94.95 C 165.91 92.91 164.78 90.90 163.70 88.87 C 162.94 85.32 165.06 82.18 166.33 79.04 C 165.88 76.70 164.99 74.45 164.71 72.08 C 165.74 68.58 168.46 65.91 169.52 62.42 C 170.31 59.99 170.91 57.51 171.62 55.06 Z" />
</g>
<g id="#460000ff">
<path fill="#460000" opacity="1.00" d=" M 85.32 66.72 C 88.42 63.21 91.09 59.35 93.87 55.60 C 95.63 56.19 97.39 56.78 99.15 57.37 C 96.49 65.04 92.24 72.02 89.66 79.73 C 88.73 82.15 87.94 84.62 87.41 87.16 C 87.54 84.95 87.84 82.53 86.34 80.67 C 82.69 80.03 78.93 80.59 75.29 79.80 L 74.61 79.18 C 78.50 78.91 82.40 78.79 86.29 78.60 C 80.14 76.26 73.48 76.80 67.03 76.83 C 66.71 79.65 66.37 82.47 66.16 85.30 L 66.20 84.27 C 66.29 81.57 66.29 78.87 66.30 76.17 C 67.93 76.07 69.57 75.96 71.20 75.90 C 75.44 75.77 79.67 75.90 83.90 75.93 C 83.38 73.97 82.84 72.01 82.31 70.04 C 83.32 68.94 84.33 67.84 85.32 66.72 Z" />
</g>
<g id="#620002ff">
<path fill="#620002" opacity="1.00" d=" M 125.15 57.44 C 125.47 57.19 126.09 56.69 126.40 56.44 C 128.47 56.63 130.54 56.68 132.62 56.64 C 135.15 56.62 137.69 56.53 140.23 56.37 C 143.09 56.20 145.95 55.96 148.82 55.77 L 149.24 56.64 C 146.23 56.87 143.22 57.09 140.22 57.31 C 139.45 62.25 138.13 67.25 138.76 72.28 C 138.87 74.66 141.11 75.87 142.70 77.25 C 145.85 71.46 148.67 65.45 150.33 59.05 C 151.87 62.59 153.61 66.03 155.03 69.62 C 154.11 69.86 153.19 70.10 152.29 70.38 C 150.97 72.20 149.90 74.18 148.72 76.08 C 147.34 78.26 145.99 80.46 144.74 82.72 C 142.30 78.45 138.63 74.43 133.92 72.75 C 129.21 71.98 127.67 77.50 125.27 80.41 C 124.62 74.27 124.89 68.07 125.00 61.91 C 125.04 60.42 125.10 58.93 125.15 57.44 Z" />
</g>
<g id="#300002ff">
<path fill="#300002" opacity="1.00" d=" M 140.22 57.31 C 143.22 57.09 146.23 56.87 149.24 56.64 C 149.51 57.24 150.06 58.45 150.33 59.05 C 148.67 65.45 145.85 71.46 142.70 77.25 C 141.11 75.87 138.87 74.66 138.76 72.28 C 138.13 67.25 139.45 62.25 140.22 57.31 Z" />
</g>
<g id="#d0334dff">
<path fill="#d0334d" opacity="1.00" d=" M 75.72 58.42 C 76.27 58.47 77.37 58.59 77.92 58.65 C 78.20 58.95 78.76 59.56 79.04 59.86 C 79.94 63.31 80.42 66.85 80.64 70.41 C 77.68 67.06 76.58 62.68 75.72 58.42 Z" />
</g>
<g id="#5b0203ff">
<path fill="#5b0203" opacity="1.00" d=" M 37.88 65.58 C 40.12 63.97 42.40 62.43 44.73 60.95 C 44.62 62.05 44.51 63.16 44.40 64.27 C 43.57 64.89 42.75 65.53 41.95 66.18 C 40.60 65.98 39.24 65.78 37.88 65.58 Z" />
<path fill="#5b0203" opacity="1.00" d=" M 86.57 150.44 C 87.96 150.75 89.34 151.05 90.74 151.35 C 94.55 152.29 98.35 153.25 102.19 154.09 C 101.92 154.31 101.39 154.75 101.12 154.97 C 100.44 155.15 99.08 155.50 98.40 155.68 C 98.29 160.01 98.26 164.34 98.23 168.68 C 99.16 169.16 100.09 169.65 101.02 170.13 C 100.72 171.36 100.44 172.59 100.18 173.82 C 97.93 173.01 95.67 172.23 93.38 171.52 C 95.14 175.90 99.87 176.73 103.95 177.67 C 105.26 175.81 106.57 173.95 107.88 172.09 C 106.90 169.90 105.93 167.70 105.16 165.43 C 104.60 162.99 104.16 160.51 103.40 158.13 C 104.75 156.58 106.12 155.05 107.51 153.54 C 109.53 153.37 111.56 153.20 113.59 153.04 C 113.91 154.75 114.25 156.47 114.53 158.19 C 114.87 160.62 115.24 163.05 115.60 165.48 C 116.80 165.85 118.02 166.19 119.24 166.53 C 116.93 166.45 114.66 166.02 112.40 165.57 C 111.72 167.94 111.36 170.38 111.12 172.83 C 112.60 172.49 114.08 172.13 115.57 171.80 C 115.53 172.34 115.45 173.40 115.41 173.93 C 121.05 173.82 126.64 173.14 132.24 172.62 C 133.88 172.53 135.52 172.52 137.16 172.46 C 138.98 172.31 140.74 171.80 142.43 171.13 C 145.46 170.41 147.80 172.21 149.54 174.48 C 151.71 173.01 153.88 171.53 156.06 170.06 C 155.44 171.97 154.82 173.89 154.20 175.80 C 156.45 175.19 158.71 174.60 160.92 173.87 C 159.25 175.54 157.66 177.29 155.98 178.96 C 153.54 180.82 151.11 182.85 148.20 183.92 C 145.37 184.59 142.42 184.29 139.54 184.48 C 134.43 186.84 133.63 193.21 130.75 197.52 C 129.18 200.61 128.17 203.94 127.08 207.22 C 126.40 207.92 125.72 208.63 125.04 209.33 C 124.03 208.30 123.02 207.26 122.01 206.23 C 120.98 203.44 120.03 200.62 118.82 197.91 C 119.25 197.89 120.12 197.84 120.55 197.81 C 123.18 199.98 126.16 198.75 128.73 197.20 C 129.04 196.32 129.35 195.46 129.67 194.59 C 131.03 191.14 132.30 187.66 133.34 184.10 C 131.29 184.10 129.25 184.11 127.20 184.17 C 123.27 184.21 119.35 184.48 115.42 184.60 C 113.95 184.46 112.49 184.25 111.04 184.03 C 108.92 183.67 106.79 183.39 104.65 183.11 C 104.55 184.05 104.44 185.00 104.34 185.96 C 101.24 184.66 98.12 183.42 95.11 181.94 C 86.82 173.55 78.47 165.22 70.04 156.97 C 69.73 155.39 69.41 153.80 69.10 152.22 C 72.14 153.46 75.22 154.64 78.20 156.03 C 80.72 158.42 83.38 160.64 86.10 162.79 C 84.91 161.20 83.68 159.64 82.46 158.08 C 83.82 155.53 85.20 152.99 86.57 150.44 Z" />
</g>
<g id="#fcd2f4ff">
<path fill="#fcd2f4" opacity="1.00" d=" M 44.40 64.27 C 45.96 63.31 47.63 61.64 49.63 62.31 C 54.51 64.48 56.49 71.64 62.36 71.76 C 62.79 71.79 63.64 71.86 64.06 71.90 C 61.89 74.62 59.34 77.00 56.67 79.23 C 49.92 76.66 43.09 74.17 36.72 70.72 C 37.08 70.43 37.80 69.84 38.16 69.54 C 39.42 68.42 40.65 67.26 41.95 66.18 C 42.75 65.53 43.57 64.89 44.40 64.27 Z" />
<path fill="#fcd2f4" opacity="1.00" d=" M 99.94 99.06 C 100.19 98.41 100.70 97.10 100.95 96.45 C 103.01 96.78 105.05 97.20 107.08 97.71 C 107.58 100.01 108.47 102.19 109.36 104.36 C 109.60 106.46 109.78 108.58 110.14 110.67 C 106.65 106.87 103.13 103.11 99.94 99.06 Z" />
</g>
<g id="#e06bc4ff">
<path fill="#e06bc4" opacity="1.00" d=" M 211.20 65.38 C 213.83 65.19 216.45 64.92 219.08 64.79 C 219.64 65.15 220.77 65.87 221.33 66.23 C 218.16 67.60 214.70 67.81 211.29 67.76 C 211.27 67.17 211.22 65.97 211.20 65.38 Z" />
</g>
<g id="#9f1818ff">
<path fill="#9f1818" opacity="1.00" d=" M 177.76 72.86 C 179.67 70.12 181.92 67.59 184.69 65.68 C 184.64 68.64 184.59 71.61 184.47 74.57 C 187.28 74.36 190.18 74.11 192.87 75.13 C 188.23 76.57 183.33 76.85 178.80 74.87 C 178.54 74.37 178.02 73.36 177.76 72.86 Z" />
</g>
<g id="#b30306ff">
<path fill="#b30306" opacity="1.00" d=" M 15.15 70.39 C 17.24 69.65 19.31 68.67 21.56 68.56 C 23.86 69.15 24.29 71.90 25.33 73.70 C 21.17 75.56 16.82 77.32 13.63 80.70 C 17.79 80.90 22.18 80.80 25.86 78.58 C 27.47 78.61 29.23 78.66 30.16 77.08 C 31.65 74.30 33.85 72.06 36.72 70.72 C 43.09 74.17 49.92 76.66 56.67 79.23 L 56.21 79.65 C 54.45 81.41 52.88 83.34 51.22 85.19 C 49.37 87.15 47.33 88.90 45.32 90.68 C 46.93 91.71 48.54 92.75 50.16 93.78 C 50.01 95.25 49.86 96.73 49.72 98.20 C 45.52 96.52 41.22 94.95 36.71 94.36 C 40.50 97.21 45.23 98.18 49.57 99.85 C 49.37 101.71 49.08 103.57 48.85 105.43 C 48.59 107.72 48.52 110.02 48.55 112.32 C 46.61 112.40 44.68 112.58 42.74 112.78 C 44.79 114.02 46.92 115.11 49.13 116.05 C 49.28 115.36 49.58 113.98 49.73 113.29 C 51.58 112.88 53.43 112.45 55.29 112.12 C 59.07 112.29 62.66 113.60 66.19 114.86 C 66.07 115.28 65.84 116.13 65.73 116.56 C 65.03 116.75 63.62 117.13 62.92 117.33 C 62.07 117.54 61.22 117.75 60.37 117.97 C 60.70 119.19 61.03 120.42 61.35 121.66 C 60.77 122.02 60.18 122.39 59.61 122.76 C 57.12 121.56 54.45 120.85 51.76 120.27 C 45.30 115.85 37.61 113.76 30.29 111.23 C 29.18 112.65 28.04 114.05 26.77 115.33 L 26.02 115.18 C 22.22 110.89 17.74 107.21 14.34 102.57 C 11.09 98.29 7.84 94.01 4.29 89.97 C 4.99 88.70 6.30 88.11 7.61 87.66 C 8.54 89.52 9.46 91.40 10.56 93.17 C 10.81 93.48 11.31 94.09 11.56 94.39 C 14.62 94.51 17.68 94.35 20.75 94.35 C 21.18 93.67 21.62 92.99 22.06 92.31 C 22.26 92.01 22.66 91.41 22.86 91.11 C 24.81 92.23 27.02 92.73 29.26 92.81 C 25.59 96.28 20.91 98.25 16.54 100.63 C 18.59 101.44 20.78 101.74 22.93 101.18 C 21.57 102.22 20.29 103.38 19.01 104.53 C 24.31 106.97 30.46 107.78 36.09 106.05 C 36.34 105.83 36.82 105.38 37.07 105.16 C 35.01 103.99 32.80 103.14 30.61 102.25 C 30.04 100.78 29.48 99.31 28.92 97.84 C 31.27 96.44 33.42 94.72 35.44 92.87 C 36.97 92.54 38.49 92.12 39.95 91.51 C 40.30 91.05 41.00 90.13 41.35 89.66 C 43.07 89.29 44.80 88.92 46.53 88.55 C 44.80 87.47 43.05 86.40 41.22 85.49 C 38.61 85.07 35.96 84.86 33.33 84.59 C 32.27 83.09 31.21 81.60 30.15 80.10 C 29.20 82.31 28.24 84.51 27.29 86.72 C 29.51 87.18 31.74 87.64 33.97 88.10 C 33.25 88.89 32.53 89.68 31.81 90.47 C 29.02 90.18 26.20 90.12 23.41 90.29 L 23.84 89.46 C 24.31 88.40 24.77 87.32 25.21 86.25 C 23.59 86.45 21.97 86.66 20.35 86.83 C 18.09 87.03 15.82 87.05 13.55 87.03 C 11.16 86.24 8.75 85.35 6.20 85.28 C 8.84 80.98 9.71 75.97 10.20 71.03 C 11.01 69.95 12.15 69.20 13.22 68.39 C 13.70 68.89 14.67 69.89 15.15 70.39 M 35.91 110.98 C 38.29 111.38 40.66 110.89 43.00 110.47 C 40.64 110.04 37.80 108.78 35.91 110.98 Z" />
</g>
<g id="#130c0eff">
<path fill="#130c0e" opacity="1.00" d=" M 152.29 70.38 C 153.19 70.10 154.11 69.86 155.03 69.62 C 155.21 70.09 155.55 71.02 155.72 71.48 C 156.06 72.42 156.40 73.35 156.74 74.29 C 159.70 75.86 162.58 77.58 165.49 79.24 C 163.34 79.84 161.20 80.51 159.11 81.28 C 157.25 80.34 155.24 78.76 153.06 79.73 C 150.29 80.56 149.54 83.58 148.39 85.87 C 147.54 85.54 146.70 85.20 145.86 84.86 C 145.58 84.33 145.02 83.26 144.74 82.72 C 145.99 80.46 147.34 78.26 148.72 76.08 C 150.81 75.84 152.92 75.63 155.02 75.43 C 154.12 73.74 153.21 72.06 152.29 70.38 Z" />
</g>
<g id="#d21d1fff">
<path fill="#d21d1f" opacity="1.00" d=" M 224.12 69.66 C 226.99 70.64 229.16 72.80 231.01 75.12 C 231.91 76.22 232.78 77.35 233.69 78.45 C 232.66 78.82 231.64 79.28 230.54 79.41 C 227.48 76.87 225.78 73.17 224.12 69.66 Z" />
</g>
<g id="#6b0304ff">
<path fill="#6b0304" opacity="1.00" d=" M 4.91 83.03 C 6.62 79.01 8.04 74.84 10.20 71.03 C 9.71 75.97 8.84 80.98 6.20 85.28 C 5.72 85.49 4.75 85.90 4.27 86.11 C 4.43 85.34 4.75 83.80 4.91 83.03 Z" />
<path fill="#6b0304" opacity="1.00" d=" M 213.42 85.74 C 216.51 84.35 219.64 83.06 222.76 81.76 C 223.85 82.44 224.93 83.13 226.03 83.80 C 231.65 81.86 237.38 83.52 242.76 85.40 C 242.50 86.94 242.26 88.48 241.96 90.00 C 241.44 90.71 240.91 91.41 240.39 92.10 C 239.85 91.83 238.77 91.28 238.23 91.01 C 235.99 93.60 233.52 95.97 230.83 98.08 C 229.97 95.89 229.10 93.70 228.20 91.52 C 230.93 90.49 233.85 90.51 236.65 91.23 C 236.57 90.88 236.40 90.17 236.32 89.82 C 232.94 89.78 229.56 89.73 226.20 89.43 C 225.80 88.79 224.99 87.53 224.59 86.89 C 221.36 86.79 218.12 86.81 214.89 86.61 C 214.53 86.39 213.79 85.96 213.42 85.74 Z" />
</g>
<g id="#e70006ff">
<path fill="#e70006" opacity="1.00" d=" M 93.65 71.00 C 100.36 70.16 106.62 75.01 108.87 81.06 C 108.15 84.06 106.20 86.56 104.79 89.26 C 102.93 89.76 101.06 90.27 99.20 90.79 C 99.35 86.72 99.03 82.51 97.02 78.88 C 95.70 76.34 94.55 73.72 93.65 71.00 Z" />
</g>
<g id="#f6d5f3ff">
<path fill="#f6d5f3" opacity="1.00" d=" M 148.72 76.08 C 149.90 74.18 150.97 72.20 152.29 70.38 C 153.21 72.06 154.12 73.74 155.02 75.43 C 152.92 75.63 150.81 75.84 148.72 76.08 Z" />
</g>
<g id="#270001ff">
<path fill="#270001" opacity="1.00" d=" M 110.03 73.07 C 111.21 73.21 112.39 73.36 113.58 73.50 C 113.87 82.67 113.51 91.83 113.73 101.00 C 113.66 104.24 114.13 107.81 112.26 110.68 C 111.95 110.94 111.33 111.46 111.02 111.72 L 110.14 110.67 C 109.78 108.58 109.60 106.46 109.36 104.36 C 110.00 93.94 109.28 83.48 110.03 73.07 Z" />
</g>
<g id="#870104ff">
<path fill="#870104" opacity="1.00" d=" M 125.27 80.41 C 127.67 77.50 129.21 71.98 133.92 72.75 C 138.63 74.43 142.30 78.45 144.74 82.72 C 145.02 83.26 145.58 84.33 145.86 84.86 C 145.02 85.89 144.19 86.92 143.36 87.95 C 142.81 87.68 142.26 87.40 141.71 87.11 C 141.52 86.87 141.13 86.39 140.93 86.14 C 140.48 84.22 140.50 82.13 139.57 80.36 C 137.68 78.28 135.11 77.01 132.79 75.49 C 129.90 77.79 127.90 80.92 126.31 84.21 C 125.93 82.95 125.56 81.69 125.27 80.41 Z" />
</g>
<g id="#bc8fa3ff">
<path fill="#bc8fa3" opacity="1.00" d=" M 174.66 76.35 C 175.89 75.37 176.81 74.09 177.76 72.86 C 178.02 73.36 178.54 74.37 178.80 74.87 C 177.82 76.00 176.84 77.14 175.85 78.27 C 176.56 81.51 177.65 84.69 179.60 87.41 C 177.91 88.72 176.24 90.05 174.52 91.31 C 174.54 90.80 174.57 89.79 174.59 89.29 C 172.23 88.76 169.88 88.20 167.54 87.59 C 168.57 85.21 170.31 83.26 171.58 81.03 C 171.65 79.04 170.99 77.11 170.53 75.19 C 171.89 75.63 173.25 76.11 174.66 76.35 M 173.49 77.72 C 173.37 79.52 173.32 81.32 173.28 83.13 C 172.11 83.71 170.93 84.26 169.76 84.83 C 169.62 85.31 169.34 86.26 169.20 86.74 C 171.41 86.74 173.63 86.71 175.84 86.69 C 175.69 83.57 175.36 80.34 173.49 77.72 Z" />
</g>
<g id="#c52b4bff">
<path fill="#c52b4b" opacity="1.00" d=" M 199.77 76.21 C 201.13 74.36 203.08 73.21 205.31 72.72 C 205.06 75.68 202.13 76.06 199.77 76.21 Z" />
</g>
<g id="#e82a0fff">
<path fill="#e82a0f" opacity="1.00" d=" M 215.27 74.18 C 218.50 74.22 219.38 77.94 219.91 80.49 C 217.26 80.73 214.61 80.92 211.95 81.05 C 212.83 78.67 213.55 76.12 215.27 74.18 Z" />
</g>
<g id="#fcd8f5ff">
<path fill="#fcd8f5" opacity="1.00" d=" M 175.85 78.27 C 176.84 77.14 177.82 76.00 178.80 74.87 C 183.33 76.85 188.23 76.57 192.87 75.13 C 196.31 76.33 199.79 77.48 203.06 79.10 C 201.53 80.99 198.83 81.04 196.72 81.91 C 194.97 80.36 193.12 78.91 191.30 77.44 C 188.22 81.66 183.72 84.35 179.60 87.41 C 177.65 84.69 176.56 81.51 175.85 78.27 Z" />
</g>
<g id="#b34c55ff">
<path fill="#b34c55" opacity="1.00" d=" M 25.86 78.58 C 26.24 77.96 27.01 76.71 27.40 76.09 C 28.32 76.42 29.24 76.75 30.16 77.08 C 29.23 78.66 27.47 78.61 25.86 78.58 Z" />
</g>
<g id="#281910ff">
<path fill="#281910" opacity="1.00" d=" M 67.03 76.83 C 73.48 76.80 80.14 76.26 86.29 78.60 C 82.40 78.79 78.50 78.91 74.61 79.18 L 75.29 79.80 L 75.88 80.38 C 74.03 80.39 72.19 80.43 70.35 80.49 C 70.44 82.88 70.55 85.27 70.77 87.65 C 71.60 88.08 72.42 88.52 73.23 88.98 C 73.33 89.57 73.54 90.76 73.64 91.35 C 71.06 91.47 68.44 91.59 65.89 91.04 C 65.97 89.12 66.05 87.21 66.16 85.30 C 66.37 82.47 66.71 79.65 67.03 76.83 Z" />
</g>
<g id="#d60006ff">
<path fill="#d60006" opacity="1.00" d=" M 89.66 79.73 C 90.90 78.76 92.20 77.86 93.56 77.07 C 94.20 77.99 94.84 78.91 95.46 79.85 C 95.36 84.72 94.65 89.81 91.38 93.66 C 90.09 93.18 88.81 92.70 87.53 92.23 C 87.46 90.84 87.38 89.46 87.36 88.07 L 87.41 87.16 C 87.94 84.62 88.73 82.15 89.66 79.73 Z" />
<path fill="#d60006" opacity="1.00" d=" M 41.06 129.26 C 46.97 132.15 51.80 136.68 56.97 140.65 C 56.84 141.79 56.72 142.93 56.60 144.07 C 51.07 139.51 46.36 134.07 41.06 129.26 Z" />
</g>
<g id="#85080bff">
<path fill="#85080b" opacity="1.00" d=" M 93.56 77.07 C 94.73 77.64 95.87 78.26 97.02 78.88 C 99.03 82.51 99.35 86.72 99.20 90.79 L 99.20 91.68 C 97.89 94.35 96.63 97.27 94.11 99.03 C 91.20 101.09 87.92 102.64 85.38 105.18 C 85.08 103.98 84.72 102.79 84.31 101.62 L 83.91 100.99 C 87.75 100.52 92.09 99.91 94.74 96.76 C 98.56 92.07 99.24 84.77 95.46 79.85 C 94.84 78.91 94.20 77.99 93.56 77.07 Z" />
</g>
<g id="#e0674dff">
<path fill="#e0674d" opacity="1.00" d=" M 134.09 77.99 C 136.58 80.53 138.75 83.35 140.93 86.14 C 141.13 86.39 141.52 86.87 141.71 87.11 C 142.26 87.40 142.81 87.68 143.36 87.95 C 145.50 88.78 147.63 89.65 149.76 90.51 C 149.49 91.58 149.22 92.65 148.96 93.72 C 147.73 93.99 146.52 94.28 145.31 94.59 C 144.17 95.62 143.13 96.76 142.19 97.98 C 142.15 97.53 142.05 96.65 142.01 96.20 C 141.84 94.48 141.74 92.75 141.63 91.03 C 138.71 92.68 135.70 94.19 132.61 95.51 C 134.00 92.44 137.16 91.02 139.91 89.43 C 139.44 88.53 138.97 87.64 138.49 86.75 C 137.31 84.63 136.06 82.55 135.00 80.37 C 134.68 79.58 134.38 78.79 134.09 77.99 Z" />
</g>
<g id="#291f25ff">
<path fill="#291f25" opacity="1.00" d=" M 173.49 77.72 C 175.36 80.34 175.69 83.57 175.84 86.69 C 173.63 86.71 171.41 86.74 169.20 86.74 C 169.34 86.26 169.62 85.31 169.76 84.83 C 170.93 84.26 172.11 83.71 173.28 83.13 C 173.32 81.32 173.37 79.52 173.49 77.72 Z" />
</g>
<g id="#f1bad7ff">
<path fill="#f1bad7" opacity="1.00" d=" M 165.49 79.24 L 166.33 79.04 C 165.06 82.18 162.94 85.32 163.70 88.87 C 161.72 90.45 159.76 92.04 157.84 93.69 C 158.87 94.09 159.90 94.50 160.94 94.90 L 160.52 95.77 L 159.74 96.13 C 156.05 95.81 152.45 94.91 148.96 93.72 C 149.22 92.65 149.49 91.58 149.76 90.51 C 147.63 89.65 145.50 88.78 143.36 87.95 C 144.19 86.92 145.02 85.89 145.86 84.86 C 146.70 85.20 147.54 85.54 148.39 85.87 C 149.54 83.58 150.29 80.56 153.06 79.73 C 155.24 78.76 157.25 80.34 159.11 81.28 C 161.20 80.51 163.34 79.84 165.49 79.24 Z" />
</g>
<g id="#d7100dff">
<path fill="#d7100d" opacity="1.00" d=" M 30.15 80.10 C 31.21 81.60 32.27 83.09 33.33 84.59 C 35.96 84.86 38.61 85.07 41.22 85.49 C 40.52 85.84 39.13 86.55 38.43 86.90 C 39.40 87.82 40.38 88.74 41.35 89.66 C 41.00 90.13 40.30 91.05 39.95 91.51 C 37.23 91.20 34.52 90.78 31.81 90.47 C 32.53 89.68 33.25 88.89 33.97 88.10 C 31.74 87.64 29.51 87.18 27.29 86.72 C 28.24 84.51 29.20 82.31 30.15 80.10 Z" />
</g>
<g id="#650102ff">
<path fill="#650102" opacity="1.00" d=" M 51.22 85.19 C 52.88 83.34 54.45 81.41 56.21 79.65 C 59.70 80.82 63.00 82.47 66.20 84.27 L 66.16 85.30 C 66.05 87.21 65.97 89.12 65.89 91.04 C 61.04 88.98 55.51 88.44 51.22 85.19 Z" />
</g>
<g id="#1a0202ff">
<path fill="#1a0202" opacity="1.00" d=" M 95.46 79.85 C 99.24 84.77 98.56 92.07 94.74 96.76 C 92.09 99.91 87.75 100.52 83.91 100.99 C 80.41 101.29 76.90 101.54 73.39 101.35 C 72.05 101.26 70.72 101.14 69.39 101.02 C 69.42 102.15 69.46 103.28 69.49 104.42 C 69.53 108.93 69.87 113.43 70.41 117.90 C 70.31 118.38 70.13 119.33 70.04 119.80 C 67.48 120.31 64.87 120.40 62.28 120.18 C 62.49 119.23 62.70 118.27 62.92 117.33 C 63.62 117.13 65.03 116.75 65.73 116.56 C 65.84 116.13 66.07 115.28 66.19 114.86 C 66.22 114.23 66.27 112.98 66.30 112.35 C 66.33 110.49 66.29 108.62 66.28 106.75 C 66.25 103.91 66.29 101.07 66.33 98.24 C 74.69 97.90 84.67 99.97 91.38 93.66 C 94.65 89.81 95.36 84.72 95.46 79.85 Z" />
<path fill="#1a0202" opacity="1.00" d=" M 132.77 115.08 C 134.20 115.41 135.65 115.67 137.09 115.97 C 136.07 117.45 135.14 118.98 134.21 120.51 C 133.37 120.55 132.54 120.58 131.71 120.60 C 130.32 120.60 128.93 120.59 127.54 120.59 C 125.44 120.61 123.33 120.64 121.22 120.61 L 120.25 120.59 C 115.82 120.33 111.39 119.92 106.94 119.80 C 107.26 119.33 107.89 118.40 108.21 117.93 C 111.56 117.73 114.91 117.47 118.27 117.26 C 123.04 116.50 129.07 119.08 132.77 115.08 Z" />
</g>
<g id="#f2da85ff">
<path fill="#f2da85" opacity="1.00" d=" M 70.35 80.49 C 72.19 80.43 74.03 80.39 75.88 80.38 C 74.85 83.23 73.39 85.96 70.77 87.65 C 70.55 85.27 70.44 82.88 70.35 80.49 Z" />
</g>
<g id="#ea4976ff">
<path fill="#ea4976" opacity="1.00" d=" M 75.88 80.38 C 78.51 83.20 80.89 86.27 83.73 88.91 C 81.43 89.54 79.21 90.39 76.97 91.20 C 75.73 90.45 74.49 89.69 73.23 88.98 C 72.42 88.52 71.60 88.08 70.77 87.65 C 73.39 85.96 74.85 83.23 75.88 80.38 Z" />
</g>
<g id="#fb0002ff">
<path fill="#fb0002" opacity="1.00" d=" M 129.80 84.18 C 130.39 81.82 133.16 81.41 135.00 80.37 C 136.06 82.55 137.31 84.63 138.49 86.75 C 137.03 88.36 135.60 90.03 133.88 91.37 C 130.64 90.83 128.73 87.22 129.80 84.18 Z" />
</g>
<g id="#e4a0a4ff">
<path fill="#e4a0a4" opacity="1.00" d=" M 2.50 87.88 C 3.30 86.26 4.13 84.66 4.91 83.03 C 4.75 83.80 4.43 85.34 4.27 86.11 C 4.75 85.90 5.72 85.49 6.20 85.28 C 8.75 85.35 11.16 86.24 13.55 87.03 C 11.57 87.21 9.59 87.41 7.61 87.66 C 6.30 88.11 4.99 88.70 4.29 89.97 C 3.70 89.27 3.10 88.57 2.50 87.88 Z" />
</g>
<g id="#9d0104ff">
<path fill="#9d0104" opacity="1.00" d=" M 45.32 90.68 C 47.33 88.90 49.37 87.15 51.22 85.19 C 55.51 88.44 61.04 88.98 65.89 91.04 C 68.44 91.59 71.06 91.47 73.64 91.35 C 73.54 90.76 73.33 89.57 73.23 88.98 C 74.49 89.69 75.73 90.45 76.97 91.20 C 79.21 90.39 81.43 89.54 83.73 88.91 C 84.02 89.14 84.60 89.60 84.89 89.83 C 85.70 89.23 86.53 88.64 87.36 88.07 C 87.38 89.46 87.46 90.84 87.53 92.23 C 88.81 92.70 90.09 93.18 91.38 93.66 C 84.67 99.97 74.69 97.90 66.33 98.24 C 66.29 101.07 66.25 103.91 66.28 106.75 C 64.76 107.76 63.26 108.78 61.76 109.81 C 58.05 108.35 54.00 108.44 50.08 108.37 C 50.05 109.49 50.02 110.61 49.99 111.73 C 51.76 111.86 53.53 111.99 55.29 112.12 C 53.43 112.45 51.58 112.88 49.73 113.29 C 49.43 113.04 48.85 112.56 48.55 112.32 C 48.52 110.02 48.59 107.72 48.85 105.43 C 53.62 104.52 58.49 104.73 63.32 104.67 C 60.46 102.21 57.07 100.50 53.52 99.30 C 52.97 97.36 52.44 95.43 51.91 93.49 C 51.47 93.56 50.60 93.71 50.16 93.78 C 48.54 92.75 46.93 91.71 45.32 90.68 M 70.90 92.26 C 73.02 93.80 75.13 95.41 77.50 96.54 C 79.83 97.07 82.25 96.59 84.61 96.47 C 80.60 93.72 75.80 92.02 70.90 92.26 Z" />
</g>
<g id="#f66f61ff">
<path fill="#f66f61" opacity="1.00" d=" M 198.73 85.14 C 200.08 85.02 201.43 84.92 202.79 84.85 C 206.28 85.66 209.60 87.39 211.24 90.73 C 210.77 90.95 209.84 91.40 209.38 91.62 C 206.70 89.21 203.32 87.90 199.85 87.13 C 199.57 86.63 199.01 85.64 198.73 85.14 Z" />
</g>
<g id="#fcd185ff">
<path fill="#fcd185" opacity="1.00" d=" M 202.79 84.85 C 206.34 84.70 210.06 84.30 213.42 85.74 C 213.79 85.96 214.53 86.39 214.89 86.61 C 216.33 88.42 217.67 90.31 219.01 92.20 C 212.73 93.01 206.89 95.54 201.03 97.79 C 200.63 96.91 200.23 96.03 199.83 95.15 C 203.18 94.48 206.32 93.10 209.38 91.62 C 209.84 91.40 210.77 90.95 211.24 90.73 C 209.60 87.39 206.28 85.66 202.79 84.85 Z" />
</g>
<g id="#b43834ff">
<path fill="#b43834" opacity="1.00" d=" M 20.35 86.83 C 21.97 86.66 23.59 86.45 25.21 86.25 C 24.77 87.32 24.31 88.40 23.84 89.46 C 22.67 88.59 21.51 87.71 20.35 86.83 Z" />
</g>
<g id="#e24b3aff">
<path fill="#e24b3a" opacity="1.00" d=" M 38.43 86.90 C 39.13 86.55 40.52 85.84 41.22 85.49 C 43.05 86.40 44.80 87.47 46.53 88.55 C 44.80 88.92 43.07 89.29 41.35 89.66 C 40.38 88.74 39.40 87.82 38.43 86.90 Z" />
</g>
<g id="#8a0203ff">
<path fill="#8a0203" opacity="1.00" d=" M 13.55 87.03 C 15.82 87.05 18.09 87.03 20.35 86.83 C 21.51 87.71 22.67 88.59 23.84 89.46 L 23.41 90.29 L 22.86 91.11 C 22.66 91.41 22.26 92.01 22.06 92.31 C 18.22 92.36 14.36 92.56 10.56 93.17 C 9.46 91.40 8.54 89.52 7.61 87.66 C 9.59 87.41 11.57 87.21 13.55 87.03 Z" />
</g>
<g id="#9c0205ff">
<path fill="#9c0205" opacity="1.00" d=" M 214.89 86.61 C 218.12 86.81 221.36 86.79 224.59 86.89 C 224.99 87.53 225.80 88.79 226.20 89.43 C 226.84 90.15 227.52 90.84 228.20 91.52 C 229.10 93.70 229.97 95.89 230.83 98.08 C 233.52 95.97 235.99 93.60 238.23 91.01 C 238.77 91.28 239.85 91.83 240.39 92.10 C 236.01 97.36 233.18 103.88 227.64 108.11 C 226.01 107.26 224.44 106.22 222.64 105.74 C 220.70 105.74 218.83 106.37 216.95 106.79 C 217.21 106.40 217.72 105.61 217.97 105.21 C 219.91 104.34 221.92 103.62 223.92 102.88 C 219.34 101.77 214.70 100.97 210.07 100.14 L 209.64 101.14 C 208.04 103.22 205.50 103.39 203.14 102.80 C 198.45 101.61 193.58 101.83 188.85 102.60 C 187.62 101.63 186.41 100.65 185.27 99.59 C 187.05 98.52 188.83 97.44 190.57 96.30 C 193.64 95.81 196.74 95.51 199.83 95.15 C 200.23 96.03 200.63 96.91 201.03 97.79 C 206.89 95.54 212.73 93.01 219.01 92.20 C 217.67 90.31 216.33 88.42 214.89 86.61 Z" />
</g>
<g id="#e73311ff">
<path fill="#e73311" opacity="1.00" d=" M 99.20 90.79 C 101.06 90.27 102.93 89.76 104.79 89.26 C 105.67 92.04 106.43 94.86 107.08 97.71 C 105.05 97.20 103.01 96.78 100.95 96.45 C 100.32 94.87 99.71 93.29 99.20 91.68 L 99.20 90.79 Z" />
</g>
<g id="#b7046dff">
<path fill="#b7046d" opacity="1.00" d=" M 157.84 93.69 C 159.76 92.04 161.72 90.45 163.70 88.87 C 164.78 90.90 165.91 92.91 166.98 94.95 C 164.97 94.96 162.95 94.90 160.94 94.90 C 159.90 94.50 158.87 94.09 157.84 93.69 Z" />
</g>
<g id="#f5ccbfff">
<path fill="#f5ccbf" opacity="1.00" d=" M 226.20 89.43 C 229.56 89.73 232.94 89.78 236.32 89.82 C 236.40 90.17 236.57 90.88 236.65 91.23 C 233.85 90.51 230.93 90.49 228.20 91.52 C 227.52 90.84 226.84 90.15 226.20 89.43 Z" />
<path fill="#f5ccbf" opacity="1.00" d=" M 133.12 214.84 C 137.12 217.40 140.81 220.38 144.41 223.47 C 141.85 224.29 139.29 225.55 136.54 225.44 C 135.23 224.47 134.23 223.17 133.27 221.87 C 132.51 220.61 131.81 219.32 131.10 218.03 C 131.77 216.97 132.45 215.90 133.12 214.84 Z" />
</g>
<g id="#e8a8b5ff">
<path fill="#e8a8b5" opacity="1.00" d=" M 22.86 91.11 L 23.41 90.29 C 26.20 90.12 29.02 90.18 31.81 90.47 C 34.52 90.78 37.23 91.20 39.95 91.51 C 38.49 92.12 36.97 92.54 35.44 92.87 C 33.38 92.89 31.32 92.87 29.26 92.81 C 27.02 92.73 24.81 92.23 22.86 91.11 Z" />
</g>
<g id="#800103ff">
<path fill="#800103" opacity="1.00" d=" M 124.79 92.49 C 125.13 92.06 125.82 91.19 126.16 90.76 C 127.83 92.56 129.50 94.37 131.17 96.18 C 131.53 96.01 132.25 95.68 132.61 95.51 C 135.70 94.19 138.71 92.68 141.63 91.03 C 141.74 92.75 141.84 94.48 142.01 96.20 C 141.49 95.12 140.97 94.05 140.43 92.98 C 137.72 96.40 134.86 99.70 131.70 102.72 C 132.43 104.06 133.15 105.39 133.92 106.69 C 132.49 108.44 131.11 110.24 129.70 112.00 C 127.33 106.09 127.50 99.50 125.09 93.57 L 124.79 92.49 Z" />
</g>
<g id="#e9909dff">
<path fill="#e9909d" opacity="1.00" d=" M 10.56 93.17 C 14.36 92.56 18.22 92.36 22.06 92.31 C 21.62 92.99 21.18 93.67 20.75 94.35 C 17.68 94.35 14.62 94.51 11.56 94.39 C 11.31 94.09 10.81 93.48 10.56 93.17 Z" />
<path fill="#e9909d" opacity="1.00" d=" M 142.19 97.98 C 143.13 96.76 144.17 95.62 145.31 94.59 C 148.40 96.41 151.56 98.12 154.77 99.74 C 152.66 102.66 149.51 104.66 145.88 104.92 C 144.44 107.84 142.25 110.26 140.03 112.60 C 139.77 112.88 139.26 113.45 139.01 113.74 C 137.75 112.11 136.48 110.50 135.31 108.83 C 135.94 108.83 137.20 108.84 137.83 108.85 C 139.44 105.29 140.91 101.67 142.19 97.98 Z" />
<path fill="#e9909d" opacity="1.00" d=" M 35.91 110.98 C 37.80 108.78 40.64 110.04 43.00 110.47 C 40.66 110.89 38.29 111.38 35.91 110.98 Z" />
</g>
<g id="#fad2eeff">
<path fill="#fad2ee" opacity="1.00" d=" M 70.90 92.26 C 75.80 92.02 80.60 93.72 84.61 96.47 C 82.25 96.59 79.83 97.07 77.50 96.54 C 75.13 95.41 73.02 93.80 70.90 92.26 Z" />
</g>
<g id="#c30206ff">
<path fill="#c30206" opacity="1.00" d=" M 94.11 99.03 C 96.63 97.27 97.89 94.35 99.20 91.68 C 99.71 93.29 100.32 94.87 100.95 96.45 C 100.70 97.10 100.19 98.41 99.94 99.06 C 103.13 103.11 106.65 106.87 110.14 110.67 L 111.02 111.72 C 109.62 112.97 108.24 114.24 106.85 115.50 C 106.26 114.22 105.72 112.93 105.03 111.71 C 99.78 108.15 94.14 104.67 87.75 103.77 C 89.59 105.47 91.59 106.99 93.81 108.15 C 93.44 108.42 92.70 108.94 92.33 109.21 C 92.65 110.05 92.97 110.89 93.29 111.74 C 92.84 112.04 91.95 112.64 91.50 112.93 C 89.30 110.71 87.12 108.47 85.05 106.12 L 85.38 105.18 C 87.92 102.64 91.20 101.09 94.11 99.03 Z" />
</g>
<g id="#eda175ff">
<path fill="#eda175" opacity="1.00" d=" M 184.17 94.99 C 185.86 94.04 187.56 93.09 189.25 92.13 C 189.68 93.52 190.12 94.91 190.57 96.30 C 188.83 97.44 187.05 98.52 185.27 99.59 C 184.13 98.49 183.02 97.36 181.90 96.25 C 182.66 95.84 183.42 95.42 184.17 94.99 Z" />
</g>
<g id="#ee5016ff">
<path fill="#ee5016" opacity="1.00" d=" M 29.26 92.81 C 31.32 92.87 33.38 92.89 35.44 92.87 C 33.42 94.72 31.27 96.44 28.92 97.84 C 26.94 98.99 24.92 100.05 22.93 101.18 C 20.78 101.74 18.59 101.44 16.54 100.63 C 20.91 98.25 25.59 96.28 29.26 92.81 Z" />
</g>
<g id="#4f0202ff">
<path fill="#4f0202" opacity="1.00" d=" M 50.16 93.78 C 50.60 93.71 51.47 93.56 51.91 93.49 C 52.44 95.43 52.97 97.36 53.52 99.30 C 57.07 100.50 60.46 102.21 63.32 104.67 C 58.49 104.73 53.62 104.52 48.85 105.43 C 49.08 103.57 49.37 101.71 49.57 99.85 C 49.61 99.44 49.69 98.62 49.72 98.20 C 49.86 96.73 50.01 95.25 50.16 93.78 Z" />
</g>
<g id="#4e0102ff">
<path fill="#4e0102" opacity="1.00" d=" M 131.70 102.72 C 134.86 99.70 137.72 96.40 140.43 92.98 C 140.97 94.05 141.49 95.12 142.01 96.20 C 142.05 96.65 142.15 97.53 142.19 97.98 C 140.91 101.67 139.44 105.29 137.83 108.85 C 137.20 108.84 135.94 108.83 135.31 108.83 C 134.96 108.29 134.27 107.23 133.92 106.69 C 133.15 105.39 132.43 104.06 131.70 102.72 Z" />
</g>
<g id="#d24868ff">
<path fill="#d24868" opacity="1.00" d=" M 176.94 94.57 C 179.26 93.09 181.85 94.09 184.17 94.99 C 183.42 95.42 182.66 95.84 181.90 96.25 C 181.36 96.52 180.28 97.04 179.74 97.31 C 178.80 96.39 177.87 95.48 176.94 94.57 Z" />
</g>
<g id="#ddaccfff">
<path fill="#ddaccf" opacity="1.00" d=" M 36.71 94.36 C 41.22 94.95 45.52 96.52 49.72 98.20 C 49.69 98.62 49.61 99.44 49.57 99.85 C 45.23 98.18 40.50 97.21 36.71 94.36 Z" />
<path fill="#ddaccf" opacity="1.00" d=" M 36.16 125.03 C 36.50 122.62 37.23 120.28 37.88 117.94 C 42.61 121.64 46.79 125.96 51.18 130.04 C 53.41 132.12 55.80 134.01 58.07 136.03 C 59.79 138.95 61.37 141.96 62.87 145.00 C 60.87 143.59 58.91 142.14 56.97 140.65 C 51.80 136.68 46.97 132.15 41.06 129.26 C 39.32 127.99 37.41 126.82 36.16 125.03 Z" />
</g>
<g id="#6c4f52ff">
<path fill="#6c4f52" opacity="1.00" d=" M 145.31 94.59 C 146.52 94.28 147.73 93.99 148.96 93.72 C 152.45 94.91 156.05 95.81 159.74 96.13 C 157.77 96.86 156.00 98.02 154.77 99.74 C 151.56 98.12 148.40 96.41 145.31 94.59 Z" />
</g>
<g id="#d25eb8ff">
<path fill="#d25eb8" opacity="1.00" d=" M 173.64 96.14 C 174.74 95.63 175.84 95.10 176.94 94.57 C 177.87 95.48 178.80 96.39 179.74 97.31 C 178.50 97.87 177.25 98.41 176.01 98.96 C 175.20 98.03 174.42 97.09 173.64 96.14 Z" />
</g>
<g id="#470406ff">
<path fill="#470406" opacity="1.00" d=" M 159.74 96.13 L 160.52 95.77 C 162.12 96.89 163.79 97.91 165.48 98.86 C 165.51 99.45 165.56 100.61 165.58 101.19 C 164.90 101.37 163.52 101.73 162.84 101.92 C 158.34 103.35 153.96 105.44 150.61 108.84 C 153.87 108.62 157.10 108.08 160.30 107.45 C 160.11 107.86 159.72 108.67 159.53 109.08 C 154.39 112.52 147.59 111.47 142.41 114.93 L 141.91 115.21 C 141.29 114.33 140.66 113.46 140.03 112.60 C 142.25 110.26 144.44 107.84 145.88 104.92 C 149.51 104.66 152.66 102.66 154.77 99.74 C 156.00 98.02 157.77 96.86 159.74 96.13 Z" />
</g>
<g id="#aa556fff">
<path fill="#aa556f" opacity="1.00" d=" M 169.87 97.13 C 171.13 96.80 172.39 96.51 173.64 96.14 C 174.42 97.09 175.20 98.03 176.01 98.96 C 177.65 100.79 179.30 102.63 180.80 104.60 C 183.56 104.74 186.32 104.85 189.08 105.00 L 189.17 105.99 C 187.68 106.21 186.18 106.38 184.68 106.46 C 182.34 106.08 179.98 106.42 177.74 107.12 C 177.86 105.79 178.08 104.46 178.02 103.12 C 177.20 101.75 175.61 101.12 174.31 100.30 C 173.98 100.12 173.32 99.76 172.99 99.58 C 171.92 98.79 170.90 97.96 169.87 97.13 Z" />
</g>
<g id="#fbb7e5ff">
<path fill="#fbb7e5" opacity="1.00" d=" M 165.48 98.86 C 166.91 98.19 168.34 97.53 169.87 97.13 C 170.90 97.96 171.92 98.79 172.99 99.58 C 169.34 103.07 165.46 106.33 161.90 109.92 C 161.30 109.71 160.12 109.29 159.53 109.08 C 159.72 108.67 160.11 107.86 160.30 107.45 C 161.13 105.60 161.96 103.75 162.84 101.92 C 163.52 101.73 164.90 101.37 165.58 101.19 C 165.56 100.61 165.51 99.45 165.48 98.86 Z" />
</g>
<g id="#f9d3efff">
<path fill="#f9d3ef" opacity="1.00" d=" M 179.74 97.31 C 180.28 97.04 181.36 96.52 181.90 96.25 C 183.02 97.36 184.13 98.49 185.27 99.59 C 186.41 100.65 187.62 101.63 188.85 102.60 C 188.91 103.20 189.02 104.40 189.08 105.00 C 186.32 104.85 183.56 104.74 180.80 104.60 C 179.30 102.63 177.65 100.79 176.01 98.96 C 177.25 98.41 178.50 97.87 179.74 97.31 Z" />
</g>
<g id="#660203ff">
<path fill="#660203" opacity="1.00" d=" M 22.93 101.18 C 24.92 100.05 26.94 98.99 28.92 97.84 C 29.48 99.31 30.04 100.78 30.61 102.25 C 32.80 103.14 35.01 103.99 37.07 105.16 C 36.82 105.38 36.34 105.83 36.09 106.05 C 30.46 107.78 24.31 106.97 19.01 104.53 C 20.29 103.38 21.57 102.22 22.93 101.18 Z" />
</g>
<g id="#850102ff">
<path fill="#850102" opacity="1.00" d=" M 172.99 99.58 C 173.32 99.76 173.98 100.12 174.31 100.30 C 173.99 102.75 173.72 105.21 173.28 107.65 C 168.78 109.25 164.58 111.58 160.06 113.14 C 160.65 112.05 161.25 110.97 161.90 109.92 C 165.46 106.33 169.34 103.07 172.99 99.58 Z" />
</g>
<g id="#1a0504ff">
<path fill="#1a0504" opacity="1.00" d=" M 174.31 100.30 C 175.61 101.12 177.20 101.75 178.02 103.12 C 178.08 104.46 177.86 105.79 177.74 107.12 C 177.51 109.16 177.28 111.20 177.04 113.25 C 175.63 114.48 174.26 115.74 172.81 116.93 C 170.18 118.53 167.58 120.19 164.91 121.72 L 164.07 121.82 C 158.63 121.13 153.22 120.17 147.81 119.26 C 147.23 118.42 146.64 117.58 146.06 116.74 C 150.07 117.25 154.18 117.93 158.21 117.07 C 162.38 115.50 166.55 113.79 170.37 111.46 C 171.83 110.64 172.66 109.14 173.28 107.65 C 173.72 105.21 173.99 102.75 174.31 100.30 Z" />
</g>
<g id="#ac0a06ff">
<path fill="#ac0a06" opacity="1.00" d=" M 210.07 100.14 C 214.70 100.97 219.34 101.77 223.92 102.88 C 221.92 103.62 219.91 104.34 217.97 105.21 C 216.37 106.19 214.87 107.32 213.33 108.40 C 208.77 107.82 203.53 106.83 199.75 110.19 C 199.89 108.39 200.04 106.58 200.18 104.79 C 202.18 104.96 204.18 105.02 206.18 105.07 C 205.18 104.30 204.17 103.52 203.14 102.80 C 205.50 103.39 208.04 103.22 209.64 101.14 C 209.31 101.92 208.65 103.48 208.31 104.26 C 209.46 104.23 211.75 104.15 212.90 104.12 C 212.05 102.72 211.11 101.39 210.07 100.14 Z" />
</g>
<g id="#5d3621ff">
<path fill="#5d3621" opacity="1.00" d=" M 69.39 101.02 C 70.72 101.14 72.05 101.26 73.39 101.35 C 72.09 102.37 70.79 103.39 69.49 104.42 C 69.46 103.28 69.42 102.15 69.39 101.02 Z" />
</g>
<g id="#8f0304ff">
<path fill="#8f0304" opacity="1.00" d=" M 73.39 101.35 C 76.90 101.54 80.41 101.29 83.91 100.99 L 84.31 101.62 C 82.10 101.62 79.88 101.67 77.67 101.78 C 79.26 103.77 81.00 105.63 82.81 107.42 C 83.37 107.09 84.49 106.44 85.05 106.12 C 87.12 108.47 89.30 110.71 91.50 112.93 C 91.19 113.13 90.59 113.51 90.28 113.71 C 88.78 114.25 87.27 114.78 85.76 115.32 C 80.93 112.71 75.80 110.66 70.56 109.00 C 70.69 110.25 70.88 111.49 71.12 112.72 C 74.46 115.11 78.62 115.94 82.46 117.22 C 78.57 117.21 74.68 116.52 70.80 117.01 L 70.41 117.90 C 69.87 113.43 69.53 108.93 69.49 104.42 C 70.79 103.39 72.09 102.37 73.39 101.35 Z" />
</g>
<g id="#e17841ff">
<path fill="#e17841" opacity="1.00" d=" M 209.64 101.14 L 210.07 100.14 C 211.11 101.39 212.05 102.72 212.90 104.12 C 211.75 104.15 209.46 104.23 208.31 104.26 C 208.65 103.48 209.31 101.92 209.64 101.14 Z" />
</g>
<g id="#edd4e2ff">
<path fill="#edd4e2" opacity="1.00" d=" M 77.67 101.78 C 79.88 101.67 82.10 101.62 84.31 101.62 C 84.72 102.79 85.08 103.98 85.38 105.18 L 85.05 106.12 C 84.49 106.44 83.37 107.09 82.81 107.42 C 81.00 105.63 79.26 103.77 77.67 101.78 Z" />
</g>
<g id="#c90206ff">
<path fill="#c90206" opacity="1.00" d=" M 150.61 108.84 C 153.96 105.44 158.34 103.35 162.84 101.92 C 161.96 103.75 161.13 105.60 160.30 107.45 C 157.10 108.08 153.87 108.62 150.61 108.84 Z" />
</g>
<g id="#d53427ff">
<path fill="#d53427" opacity="1.00" d=" M 188.85 102.60 C 193.58 101.83 198.45 101.61 203.14 102.80 C 204.17 103.52 205.18 104.30 206.18 105.07 C 204.18 105.02 202.18 104.96 200.18 104.79 C 197.07 104.34 193.80 104.05 190.96 105.69 C 190.51 105.76 189.62 105.92 189.17 105.99 L 189.08 105.00 C 189.02 104.40 188.91 103.20 188.85 102.60 Z" />
</g>
<g id="#d63e55ff">
<path fill="#d63e55" opacity="1.00" d=" M 87.75 103.77 C 94.14 104.67 99.78 108.15 105.03 111.71 C 101.03 111.54 97.30 110.01 93.81 108.15 C 91.59 106.99 89.59 105.47 87.75 103.77 Z" />
</g>
<g id="#7d0102ff">
<path fill="#7d0102" opacity="1.00" d=" M 190.96 105.69 C 193.80 104.05 197.07 104.34 200.18 104.79 C 200.04 106.58 199.89 108.39 199.75 110.19 C 195.97 110.97 193.24 108.26 190.96 105.69 Z" />
</g>
<g id="#8c0306ff">
<path fill="#8c0306" opacity="1.00" d=" M 213.33 108.40 C 214.87 107.32 216.37 106.19 217.97 105.21 C 217.72 105.61 217.21 106.40 216.95 106.79 C 218.83 106.37 220.70 105.74 222.64 105.74 C 224.44 106.22 226.01 107.26 227.64 108.11 C 225.30 110.27 222.96 112.43 220.68 114.64 C 217.93 114.05 215.16 113.05 212.32 113.36 C 210.29 113.87 208.57 115.13 206.80 116.18 C 208.34 116.39 209.88 116.59 211.43 116.78 C 211.71 118.80 212.02 120.82 212.34 122.83 C 211.68 123.47 211.03 124.12 210.39 124.77 C 209.47 123.17 208.56 121.56 207.65 119.96 C 203.87 122.50 200.41 125.47 197.14 128.63 C 195.44 130.20 193.69 131.70 192.04 133.32 C 191.26 132.67 190.48 132.00 189.71 131.33 C 190.88 129.63 192.20 128.00 193.04 126.10 C 192.11 124.00 190.69 122.18 189.41 120.31 C 194.19 118.76 199.65 118.42 203.16 114.35 C 205.40 112.67 207.93 111.45 210.42 110.17 L 211.35 109.68 C 211.84 109.36 212.84 108.72 213.33 108.40 Z" />
</g>
<g id="#950203ff">
<path fill="#950203" opacity="1.00" d=" M 177.74 107.12 C 179.98 106.42 182.34 106.08 184.68 106.46 C 186.32 107.77 187.93 109.11 189.61 110.37 C 185.70 112.31 181.31 112.73 177.04 113.25 C 177.28 111.20 177.51 109.16 177.74 107.12 Z" />
</g>
<g id="#fae2beff">
<path fill="#fae2be" opacity="1.00" d=" M 184.68 106.46 C 186.18 106.38 187.68 106.21 189.17 105.99 C 189.62 105.92 190.51 105.76 190.96 105.69 C 193.24 108.26 195.97 110.97 199.75 110.19 C 199.97 111.44 200.19 112.70 200.40 113.96 L 199.48 113.84 C 196.09 113.02 192.68 112.08 189.61 110.37 C 187.93 109.11 186.32 107.77 184.68 106.46 Z" />
</g>
<g id="#d72a2eff">
<path fill="#d72a2e" opacity="1.00" d=" M 61.76 109.81 C 63.26 108.78 64.76 107.76 66.28 106.75 C 66.29 108.62 66.33 110.49 66.30 112.35 C 65.60 112.22 64.20 111.95 63.49 111.81 C 63.06 111.31 62.19 110.31 61.76 109.81 Z" />
</g>
<g id="#efc8e7ff">
<path fill="#efc8e7" opacity="1.00" d=" M 129.70 112.00 C 131.11 110.24 132.49 108.44 133.92 106.69 C 134.27 107.23 134.96 108.29 135.31 108.83 C 136.48 110.50 137.75 112.11 139.01 113.74 C 138.35 114.47 137.71 115.21 137.09 115.97 C 135.65 115.67 134.20 115.41 132.77 115.08 C 132.32 114.91 131.43 114.56 130.98 114.39 C 130.53 113.61 130.10 112.81 129.70 112.00 Z" />
</g>
<g id="#4d0101ff">
<path fill="#4d0101" opacity="1.00" d=" M 50.08 108.37 C 54.00 108.44 58.05 108.35 61.76 109.81 C 62.19 110.31 63.06 111.31 63.49 111.81 C 64.20 111.95 65.60 112.22 66.30 112.35 C 66.27 112.98 66.22 114.23 66.19 114.86 C 62.66 113.60 59.07 112.29 55.29 112.12 C 53.53 111.99 51.76 111.86 49.99 111.73 C 50.02 110.61 50.05 109.49 50.08 108.37 Z" />
</g>
<g id="#c11532ff">
<path fill="#c11532" opacity="1.00" d=" M 93.81 108.15 C 97.30 110.01 101.03 111.54 105.03 111.71 C 105.72 112.93 106.26 114.22 106.85 115.50 C 107.01 115.84 107.32 116.51 107.48 116.85 L 106.54 116.73 C 103.95 116.37 101.36 115.99 98.78 115.58 C 100.31 115.38 101.84 115.15 103.36 114.90 C 99.48 113.31 95.24 112.40 91.10 113.54 L 90.28 113.71 C 90.59 113.51 91.19 113.13 91.50 112.93 C 91.95 112.64 92.84 112.04 93.29 111.74 C 92.97 110.89 92.65 110.05 92.33 109.21 C 92.70 108.94 93.44 108.42 93.81 108.15 Z" />
</g>
<g id="#c15b64ff">
<path fill="#c15b64" opacity="1.00" d=" M 160.06 113.14 C 164.58 111.58 168.78 109.25 173.28 107.65 C 172.66 109.14 171.83 110.64 170.37 111.46 C 166.55 113.79 162.38 115.50 158.21 117.07 C 153.48 115.41 148.47 115.78 143.59 116.24 C 143.29 115.91 142.70 115.26 142.41 114.93 C 147.59 111.47 154.39 112.52 159.53 109.08 C 160.12 109.29 161.30 109.71 161.90 109.92 C 161.25 110.97 160.65 112.05 160.06 113.14 M 144.83 114.89 C 149.10 114.78 155.96 116.96 158.22 112.19 C 153.67 112.51 149.11 113.24 144.83 114.89 Z" />
</g>
<g id="#f4644cff">
<path fill="#f4644c" opacity="1.00" d=" M 199.75 110.19 C 203.53 106.83 208.77 107.82 213.33 108.40 C 212.84 108.72 211.84 109.36 211.35 109.68 C 208.09 108.56 204.62 108.28 201.34 109.49 C 204.33 110.01 207.37 110.39 210.42 110.17 C 207.93 111.45 205.40 112.67 203.16 114.35 C 202.47 114.26 201.09 114.06 200.40 113.96 C 200.19 112.70 199.97 111.44 199.75 110.19 Z" />
</g>
<g id="#eb363dff">
<path fill="#eb363d" opacity="1.00" d=" M 70.56 109.00 C 75.80 110.66 80.93 112.71 85.76 115.32 C 86.55 115.86 87.34 116.40 88.11 116.97 C 86.23 117.12 84.35 117.28 82.46 117.22 C 78.62 115.94 74.46 115.11 71.12 112.72 C 70.88 111.49 70.69 110.25 70.56 109.00 Z" />
</g>
<g id="#f0a8b0ff">
<path fill="#f0a8b0" opacity="1.00" d=" M 201.34 109.49 C 204.62 108.28 208.09 108.56 211.35 109.68 L 210.42 110.17 C 207.37 110.39 204.33 110.01 201.34 109.49 Z" />
</g>
<g id="#e98b83ff">
<path fill="#e98b83" opacity="1.00" d=" M 189.61 110.37 C 192.68 112.08 196.09 113.02 199.48 113.84 C 197.70 114.55 195.97 115.38 194.18 116.05 C 194.37 115.47 194.75 114.30 194.93 113.71 C 187.79 114.52 180.69 115.72 173.58 116.77 L 172.81 116.93 C 174.26 115.74 175.63 114.48 177.04 113.25 C 181.31 112.73 185.70 112.31 189.61 110.37 Z" />
</g>
<g id="#8c0304ff">
<path fill="#8c0304" opacity="1.00" d=" M 30.29 111.23 C 37.61 113.76 45.30 115.85 51.76 120.27 C 51.62 123.49 52.05 126.69 52.42 129.87 C 52.11 129.92 51.49 130.00 51.18 130.04 C 46.79 125.96 42.61 121.64 37.88 117.94 C 37.39 117.76 36.89 117.60 36.39 117.45 C 33.22 116.59 29.99 115.95 26.77 115.33 C 28.04 114.05 29.18 112.65 30.29 111.23 Z" />
</g>
<g id="#fda1dfff">
<path fill="#fda1df" opacity="1.00" d=" M 111.02 111.72 C 111.33 111.46 111.95 110.94 112.26 110.68 C 113.79 112.17 115.20 113.77 116.62 115.37 C 114.06 117.59 110.61 117.37 107.48 116.85 C 107.32 116.51 107.01 115.84 106.85 115.50 C 108.24 114.24 109.62 112.97 111.02 111.72 Z" />
</g>
<g id="#f6bfd8ff">
<path fill="#f6bfd8" opacity="1.00" d=" M 42.74 112.78 C 44.68 112.58 46.61 112.40 48.55 112.32 C 48.85 112.56 49.43 113.04 49.73 113.29 C 49.58 113.98 49.28 115.36 49.13 116.05 C 46.92 115.11 44.79 114.02 42.74 112.78 Z" />
</g>
<g id="#cb5564ff">
<path fill="#cb5564" opacity="1.00" d=" M 91.10 113.54 C 95.24 112.40 99.48 113.31 103.36 114.90 C 101.84 115.15 100.31 115.38 98.78 115.58 C 96.14 115.22 93.58 114.46 91.10 113.54 Z" />
</g>
<g id="#9e0d0fff">
<path fill="#9e0d0f" opacity="1.00" d=" M 140.03 112.60 C 140.66 113.46 141.29 114.33 141.91 115.21 C 138.65 116.94 136.25 119.79 134.67 123.09 C 136.42 123.35 138.18 123.60 139.95 123.75 C 143.13 123.78 146.30 123.48 149.46 123.10 C 150.32 124.31 151.20 125.53 152.04 126.76 C 151.64 127.21 150.83 128.10 150.42 128.54 C 147.66 128.19 144.20 127.10 142.40 130.00 C 142.20 129.57 141.81 128.73 141.61 128.31 C 135.99 128.30 130.34 128.10 124.84 126.87 C 128.28 125.69 131.92 125.39 135.51 124.90 C 131.35 124.90 127.20 124.76 123.05 124.75 C 115.93 125.17 108.88 126.27 101.77 126.73 C 100.54 126.42 99.41 125.84 98.25 125.35 L 98.91 124.70 C 101.18 123.15 103.51 121.66 105.46 119.69 C 105.83 119.72 106.57 119.77 106.94 119.80 C 111.39 119.92 115.82 120.33 120.25 120.59 C 117.94 120.56 115.63 120.64 113.33 120.85 C 115.16 123.30 118.07 124.15 120.95 124.61 C 121.02 123.61 121.16 121.61 121.22 120.61 C 123.33 120.64 125.44 120.61 127.54 120.59 C 127.44 121.69 127.39 122.79 127.40 123.89 C 129.46 124.39 130.34 121.65 131.71 120.60 C 132.54 120.58 133.37 120.55 134.21 120.51 C 135.14 118.98 136.07 117.45 137.09 115.97 C 137.71 115.21 138.35 114.47 139.01 113.74 C 139.26 113.45 139.77 112.88 140.03 112.60 Z" />
</g>
<g id="#3c0303ff">
<path fill="#3c0303" opacity="1.00" d=" M 212.32 113.36 C 215.16 113.05 217.93 114.05 220.68 114.64 C 217.92 117.40 215.14 120.13 212.34 122.83 C 212.02 120.82 211.71 118.80 211.43 116.78 C 209.88 116.59 208.34 116.39 206.80 116.18 C 208.57 115.13 210.29 113.87 212.32 113.36 Z" />
</g>
<g id="#aa0407ff">
<path fill="#aa0407" opacity="1.00" d=" M 85.76 115.32 C 87.27 114.78 88.78 114.25 90.28 113.71 L 91.10 113.54 C 93.58 114.46 96.14 115.22 98.78 115.58 C 101.36 115.99 103.95 116.37 106.54 116.73 C 105.27 117.52 104.00 118.31 102.73 119.11 C 101.51 119.87 100.30 120.62 99.07 121.36 C 96.46 121.37 93.85 121.25 91.24 121.08 C 92.69 122.12 94.11 123.20 95.51 124.31 C 91.73 124.23 87.99 123.73 84.26 123.20 C 79.24 122.53 74.44 120.61 70.80 117.01 C 74.68 116.52 78.57 117.21 82.46 117.22 C 84.35 117.28 86.23 117.12 88.11 116.97 C 87.34 116.40 86.55 115.86 85.76 115.32 Z" />
</g>
<g id="#f1bdc2ff">
<path fill="#f1bdc2" opacity="1.00" d=" M 173.58 116.77 C 180.69 115.72 187.79 114.52 194.93 113.71 C 194.75 114.30 194.37 115.47 194.18 116.05 C 189.81 116.81 185.41 117.44 181.02 118.11 C 178.51 118.48 175.99 118.78 173.46 119.07 C 173.49 118.50 173.55 117.35 173.58 116.77 Z" />
</g>
<g id="#bc090dff">
<path fill="#bc090d" opacity="1.00" d=" M 194.18 116.05 C 195.97 115.38 197.70 114.55 199.48 113.84 L 200.40 113.96 C 201.09 114.06 202.47 114.26 203.16 114.35 C 199.65 118.42 194.19 118.76 189.41 120.31 C 188.95 120.46 188.02 120.76 187.56 120.91 C 184.66 121.43 181.71 121.43 178.78 121.43 C 179.52 120.32 180.27 119.21 181.02 118.11 C 185.41 117.44 189.81 116.81 194.18 116.05 Z" />
</g>
<g id="#630304ff">
<path fill="#630304" opacity="1.00" d=" M 26.02 115.18 L 26.77 115.33 C 29.99 115.95 33.22 116.59 36.39 117.45 C 36.56 119.70 36.38 121.96 35.23 123.95 C 32.10 121.09 28.79 118.41 26.02 115.18 Z" />
</g>
<g id="#79424fff">
<path fill="#79424f" opacity="1.00" d=" M 116.62 115.37 C 117.17 116.00 117.72 116.63 118.27 117.26 C 114.91 117.47 111.56 117.73 108.21 117.93 C 107.89 118.40 107.26 119.33 106.94 119.80 C 106.57 119.77 105.83 119.72 105.46 119.69 C 104.78 119.54 103.41 119.26 102.73 119.11 C 104.00 118.31 105.27 117.52 106.54 116.73 L 107.48 116.85 C 110.61 117.37 114.06 117.59 116.62 115.37 Z" />
</g>
<g id="#d72439ff">
<path fill="#d72439" opacity="1.00" d=" M 141.91 115.21 L 142.41 114.93 C 142.70 115.26 143.29 115.91 143.59 116.24 C 144.70 117.61 146.10 118.74 147.81 119.26 C 153.22 120.17 158.63 121.13 164.07 121.82 L 163.29 121.92 C 158.30 122.46 153.26 122.12 148.29 121.49 C 144.87 120.14 141.25 120.65 138.03 122.31 C 138.51 122.67 139.47 123.39 139.95 123.75 C 138.18 123.60 136.42 123.35 134.67 123.09 C 136.25 119.79 138.65 116.94 141.91 115.21 Z" />
</g>
<g id="#960605ff">
<path fill="#960605" opacity="1.00" d=" M 143.59 116.24 C 148.47 115.78 153.48 115.41 158.21 117.07 C 154.18 117.93 150.07 117.25 146.06 116.74 C 146.64 117.58 147.23 118.42 147.81 119.26 C 146.10 118.74 144.70 117.61 143.59 116.24 Z" />
<path fill="#960605" opacity="1.00" d=" M 71.63 133.33 C 70.24 130.06 67.92 126.57 69.32 122.89 C 72.76 123.44 76.21 123.88 79.69 124.04 C 80.42 124.14 81.87 124.33 82.59 124.42 C 81.24 129.02 79.67 133.56 78.03 138.07 C 81.08 139.05 84.31 140.46 87.57 139.60 C 91.07 136.09 91.30 130.78 92.10 126.16 C 93.87 126.48 95.64 126.76 97.41 127.06 C 94.75 133.12 97.24 139.68 99.79 145.31 C 100.45 146.95 102.21 147.61 103.57 148.54 C 103.87 146.94 104.14 145.33 104.38 143.72 C 105.76 146.88 107.03 150.11 107.51 153.54 C 106.12 155.05 104.75 156.58 103.40 158.13 C 102.66 157.05 101.87 156.03 101.12 154.97 C 101.39 154.75 101.92 154.31 102.19 154.09 C 98.35 153.25 94.55 152.29 90.74 151.35 C 92.59 151.16 94.43 150.89 96.27 150.63 C 90.90 146.05 84.20 143.70 77.72 141.18 C 74.31 139.97 73.14 136.26 71.63 133.33 Z" />
</g>
<g id="#a60006ff">
<path fill="#a60006" opacity="1.00" d=" M 60.37 117.97 C 61.22 117.75 62.07 117.54 62.92 117.33 C 62.70 118.27 62.49 119.23 62.28 120.18 C 64.87 120.40 67.48 120.31 70.04 119.80 C 69.83 120.84 69.57 121.86 69.32 122.89 C 67.92 126.57 70.24 130.06 71.63 133.33 C 73.14 136.26 74.31 139.97 77.72 141.18 C 84.20 143.70 90.90 146.05 96.27 150.63 C 94.43 150.89 92.59 151.16 90.74 151.35 C 89.34 151.05 87.96 150.75 86.57 150.44 C 85.20 152.99 83.82 155.53 82.46 158.08 C 81.07 156.28 79.70 154.46 78.48 152.54 C 80.74 151.79 82.99 151.03 85.24 150.25 C 82.73 149.31 80.20 148.45 77.61 147.79 C 76.01 147.38 74.40 147.06 72.78 146.75 C 66.30 140.22 61.20 132.47 54.66 126.00 C 55.19 125.66 56.24 124.98 56.76 124.64 C 57.71 124.01 58.65 123.39 59.61 122.76 C 60.18 122.39 60.77 122.02 61.35 121.66 C 61.03 120.42 60.70 119.19 60.37 117.97 Z" />
</g>
<g id="#e48fcbff">
<path fill="#e48fcb" opacity="1.00" d=" M 164.91 121.72 C 167.58 120.19 170.18 118.53 172.81 116.93 L 173.58 116.77 C 173.55 117.35 173.49 118.50 173.46 119.07 C 175.99 118.78 178.51 118.48 181.02 118.11 C 180.27 119.21 179.52 120.32 178.78 121.43 C 181.71 121.43 184.66 121.43 187.56 120.91 C 187.59 124.26 187.98 127.64 189.12 130.81 C 186.49 135.56 183.02 139.79 179.05 143.48 C 177.63 141.92 176.23 140.36 174.84 138.78 C 172.92 139.17 171.00 139.56 169.11 140.03 C 169.83 139.01 170.58 138.00 171.27 136.95 C 175.09 137.51 178.97 137.62 182.83 137.62 C 184.48 133.92 185.77 129.42 183.23 125.77 C 181.80 122.42 177.10 122.44 174.63 124.53 C 173.38 127.28 172.84 130.29 172.14 133.22 C 172.56 130.32 172.23 127.20 173.48 124.48 C 174.83 122.95 176.62 121.91 178.23 120.69 C 173.80 121.17 169.35 121.33 164.91 121.72 Z" />
</g>
<g id="#c02528ff">
<path fill="#c02528" opacity="1.00" d=" M 70.41 117.90 L 70.80 117.01 C 74.44 120.61 79.24 122.53 84.26 123.20 C 82.73 123.45 81.21 123.78 79.69 124.04 C 76.21 123.88 72.76 123.44 69.32 122.89 C 69.57 121.86 69.83 120.84 70.04 119.80 C 70.13 119.33 70.31 118.38 70.41 117.90 Z" />
</g>
<g id="#f7c0ddff">
<path fill="#f7c0dd" opacity="1.00" d=" M 99.07 121.36 C 100.30 120.62 101.51 119.87 102.73 119.11 C 103.41 119.26 104.78 119.54 105.46 119.69 C 103.51 121.66 101.18 123.15 98.91 124.70 C 98.41 124.21 97.42 123.22 96.92 122.72 C 97.63 122.26 98.35 121.81 99.07 121.36 Z" />
</g>
<g id="#a96168ff">
<path fill="#a96168" opacity="1.00" d=" M 127.54 120.59 C 128.93 120.59 130.32 120.60 131.71 120.60 C 130.34 121.65 129.46 124.39 127.40 123.89 C 127.39 122.79 127.44 121.69 127.54 120.59 Z" />
</g>
<g id="#ec89c9ff">
<path fill="#ec89c9" opacity="1.00" d=" M 138.03 122.31 C 141.25 120.65 144.87 120.14 148.29 121.49 C 148.58 121.90 149.17 122.70 149.46 123.10 C 146.30 123.48 143.13 123.78 139.95 123.75 C 139.47 123.39 138.51 122.67 138.03 122.31 Z" />
</g>
<g id="#c22520ff">
<path fill="#c22520" opacity="1.00" d=" M 197.14 128.63 C 200.41 125.47 203.87 122.50 207.65 119.96 C 208.56 121.56 209.47 123.17 210.39 124.77 C 208.56 126.66 206.79 128.61 205.00 130.55 C 203.13 130.90 201.27 131.29 199.47 131.90 C 198.69 130.81 197.91 129.72 197.14 128.63 Z" />
</g>
<g id="#c34c4eff">
<path fill="#c34c4e" opacity="1.00" d=" M 52.42 129.87 C 52.05 126.69 51.62 123.49 51.76 120.27 C 54.45 120.85 57.12 121.56 59.61 122.76 C 58.65 123.39 57.71 124.01 56.76 124.64 C 56.76 124.00 56.75 122.71 56.75 122.06 C 55.40 122.25 54.05 122.44 52.71 122.64 C 53.36 123.75 54.02 124.87 54.66 126.00 C 55.10 129.54 56.39 132.90 58.07 136.03 C 55.80 134.01 53.41 132.12 51.18 130.04 C 51.49 130.00 52.11 129.92 52.42 129.87 Z" />
</g>
<g id="#d07779ff">
<path fill="#d07779" opacity="1.00" d=" M 91.24 121.08 C 93.85 121.25 96.46 121.37 99.07 121.36 C 98.35 121.81 97.63 122.26 96.92 122.72 C 97.42 123.22 98.41 124.21 98.91 124.70 L 98.25 125.35 C 97.95 125.90 97.67 126.48 97.41 127.06 C 95.64 126.76 93.87 126.48 92.10 126.16 C 88.93 125.57 85.78 124.90 82.59 124.42 C 81.87 124.33 80.42 124.14 79.69 124.04 C 81.21 123.78 82.73 123.45 84.26 123.20 C 87.99 123.73 91.73 124.23 95.51 124.31 C 94.11 123.20 92.69 122.12 91.24 121.08 Z" />
</g>
<g id="#e2c1d6ff">
<path fill="#e2c1d6" opacity="1.00" d=" M 113.33 120.85 C 115.63 120.64 117.94 120.56 120.25 120.59 L 121.22 120.61 C 121.16 121.61 121.02 123.61 120.95 124.61 C 118.07 124.15 115.16 123.30 113.33 120.85 Z" />
</g>
<g id="#bb0106ff">
<path fill="#bb0106" opacity="1.00" d=" M 148.29 121.49 C 153.26 122.12 158.30 122.46 163.29 121.92 C 165.70 122.25 168.11 122.64 170.52 122.99 C 168.63 127.61 169.30 132.58 169.22 137.41 C 164.06 141.33 156.76 139.21 151.21 142.22 C 149.34 145.07 148.85 148.56 148.36 151.86 C 148.76 151.96 149.57 152.17 149.97 152.27 C 148.01 152.75 146.07 153.31 144.13 153.87 C 143.89 153.56 143.40 152.95 143.16 152.65 C 143.59 149.00 144.58 145.45 145.15 141.83 C 145.61 142.94 146.08 144.05 146.57 145.16 C 148.73 139.20 152.29 133.26 152.04 126.76 C 151.20 125.53 150.32 124.31 149.46 123.10 C 149.17 122.70 148.58 121.90 148.29 121.49 Z" />
</g>
<g id="#c7261eff">
<path fill="#c7261e" opacity="1.00" d=" M 164.07 121.82 L 164.91 121.72 C 169.35 121.33 173.80 121.17 178.23 120.69 C 176.62 121.91 174.83 122.95 173.48 124.48 C 172.23 127.20 172.56 130.32 172.14 133.22 C 171.88 134.47 171.59 135.71 171.27 136.95 C 170.58 138.00 169.83 139.01 169.11 140.03 L 169.14 140.91 C 169.23 142.41 169.36 143.92 169.48 145.42 C 170.04 145.73 171.18 146.33 171.74 146.63 L 172.44 146.97 C 165.41 148.47 158.52 150.52 151.47 151.95 C 151.10 152.03 150.35 152.19 149.97 152.27 C 149.57 152.17 148.76 151.96 148.36 151.86 C 148.85 148.56 149.34 145.07 151.21 142.22 C 156.76 139.21 164.06 141.33 169.22 137.41 C 169.30 132.58 168.63 127.61 170.52 122.99 C 168.11 122.64 165.70 122.25 163.29 121.92 L 164.07 121.82 Z" />
</g>
<g id="#e30ce6ff">
<path fill="#e30ce6" opacity="1.00" d=" M 187.56 120.91 C 188.02 120.76 188.95 120.46 189.41 120.31 C 190.69 122.18 192.11 124.00 193.04 126.10 C 192.20 128.00 190.88 129.63 189.71 131.33 L 189.12 130.81 C 187.98 127.64 187.59 124.26 187.56 120.91 Z" />
</g>
<g id="#f4cbecff">
<path fill="#f4cbec" opacity="1.00" d=" M 174.63 124.53 C 177.10 122.44 181.80 122.42 183.23 125.77 C 185.77 129.42 184.48 133.92 182.83 137.62 C 178.97 137.62 175.09 137.51 171.27 136.95 C 171.59 135.71 171.88 134.47 172.14 133.22 C 172.84 130.29 173.38 127.28 174.63 124.53 Z" />
</g>
<g id="#7c0002ff">
<path fill="#7c0002" opacity="1.00" d=" M 101.77 126.73 C 108.88 126.27 115.93 125.17 123.05 124.75 C 127.20 124.76 131.35 124.90 135.51 124.90 C 131.92 125.39 128.28 125.69 124.84 126.87 C 122.78 129.13 120.77 131.44 118.67 133.67 C 114.20 138.03 113.39 144.64 112.50 150.52 C 113.67 151.50 114.99 152.30 116.27 153.13 C 115.66 154.81 115.06 156.49 114.53 158.19 C 114.25 156.47 113.91 154.75 113.59 153.04 C 111.56 153.20 109.53 153.37 107.51 153.54 C 107.03 150.11 105.76 146.88 104.38 143.72 C 104.16 142.72 103.95 141.71 103.73 140.70 C 104.68 136.48 105.58 132.23 105.81 127.89 L 105.86 127.30 C 104.49 127.14 103.12 126.95 101.77 126.73 Z" />
</g>
<g id="#c62013ff">
<path fill="#c62013" opacity="1.00" d=" M 82.59 124.42 C 85.78 124.90 88.93 125.57 92.10 126.16 C 91.30 130.78 91.07 136.09 87.57 139.60 C 84.31 140.46 81.08 139.05 78.03 138.07 C 79.67 133.56 81.24 129.02 82.59 124.42 Z" />
</g>
<g id="#ca2215ff">
<path fill="#ca2215" opacity="1.00" d=" M 97.41 127.06 C 97.67 126.48 97.95 125.90 98.25 125.35 C 99.41 125.84 100.54 126.42 101.77 126.73 C 103.12 126.95 104.49 127.14 105.86 127.30 L 105.81 127.89 C 103.80 127.93 101.79 128.03 99.79 128.12 C 100.50 132.48 101.91 136.68 103.73 140.70 C 103.95 141.71 104.16 142.72 104.38 143.72 C 104.14 145.33 103.87 146.94 103.57 148.54 C 102.21 147.61 100.45 146.95 99.79 145.31 C 97.24 139.68 94.75 133.12 97.41 127.06 Z" />
</g>
<g id="#730203ff">
<path fill="#730203" opacity="1.00" d=" M 58.07 136.03 C 56.39 132.90 55.10 129.54 54.66 126.00 C 61.20 132.47 66.30 140.22 72.78 146.75 C 75.02 149.58 76.59 152.82 78.20 156.03 C 75.22 154.64 72.14 153.46 69.10 152.22 C 69.41 153.80 69.73 155.39 70.04 156.97 C 65.44 152.79 61.26 148.18 56.60 144.07 C 56.72 142.93 56.84 141.79 56.97 140.65 C 58.91 142.14 60.87 143.59 62.87 145.00 C 61.37 141.96 59.79 138.95 58.07 136.03 Z" />
</g>
<g id="#aa0002ff">
<path fill="#aa0002" opacity="1.00" d=" M 118.67 133.67 C 120.77 131.44 122.78 129.13 124.84 126.87 C 130.34 128.10 135.99 128.30 141.61 128.31 C 141.81 128.73 142.20 129.57 142.40 130.00 C 143.06 131.44 143.76 132.88 144.37 134.35 C 144.77 136.83 144.92 139.33 145.15 141.83 C 144.58 145.45 143.59 149.00 143.16 152.65 C 137.13 151.25 131.03 152.82 125.17 154.19 C 125.12 154.87 125.01 156.24 124.96 156.92 C 124.74 159.64 124.71 162.39 124.12 165.07 C 122.66 165.98 120.96 166.50 119.24 166.53 C 118.02 166.19 116.80 165.85 115.60 165.48 C 115.24 163.05 114.87 160.62 114.53 158.19 C 115.06 156.49 115.66 154.81 116.27 153.13 C 114.99 152.30 113.67 151.50 112.50 150.52 C 113.39 144.64 114.20 138.03 118.67 133.67 M 118.50 144.61 C 116.88 146.82 118.82 149.94 120.86 151.17 C 124.36 152.37 128.32 151.91 131.75 150.65 C 133.62 147.99 130.95 145.42 129.59 143.27 C 128.87 140.45 127.30 137.12 124.01 136.83 C 120.19 137.18 118.98 141.42 118.50 144.61 Z" />
</g>
<g id="#ed1c2bff">
<path fill="#ed1c2b" opacity="1.00" d=" M 152.04 126.76 C 152.29 133.26 148.73 139.20 146.57 145.16 C 146.08 144.05 145.61 142.94 145.15 141.83 C 144.92 139.33 144.77 136.83 144.37 134.35 C 146.50 132.53 148.55 130.62 150.42 128.54 C 150.83 128.10 151.64 127.21 152.04 126.76 Z" />
</g>
<g id="#efa7e7ff">
<path fill="#efa7e7" opacity="1.00" d=" M 99.79 128.12 C 101.79 128.03 103.80 127.93 105.81 127.89 C 105.58 132.23 104.68 136.48 103.73 140.70 C 101.91 136.68 100.50 132.48 99.79 128.12 Z" />
</g>
<g id="#400202ff">
<path fill="#400202" opacity="1.00" d=" M 142.40 130.00 C 144.20 127.10 147.66 128.19 150.42 128.54 C 148.55 130.62 146.50 132.53 144.37 134.35 C 143.76 132.88 143.06 131.44 142.40 130.00 Z" />
<path fill="#400202" opacity="1.00" d=" M 174.28 151.39 C 181.90 148.13 187.91 142.26 194.98 138.08 C 194.98 138.55 194.97 139.51 194.97 139.99 C 191.73 144.70 187.32 148.33 183.04 152.03 C 175.69 159.33 168.22 166.51 160.92 173.87 C 158.71 174.60 156.45 175.19 154.20 175.80 C 154.82 173.89 155.44 171.97 156.06 170.06 C 153.88 171.53 151.71 173.01 149.54 174.48 C 147.80 172.21 145.46 170.41 142.43 171.13 C 142.81 169.38 143.19 167.63 143.58 165.89 C 145.64 167.04 147.69 168.19 149.75 169.33 C 151.69 163.72 150.43 157.71 151.47 151.95 C 158.52 150.52 165.41 148.47 172.44 146.97 C 173.46 147.01 174.48 147.04 175.50 147.08 C 175.09 148.51 174.68 149.95 174.28 151.39 M 157.03 157.17 C 156.26 161.04 156.97 165.00 157.84 168.79 C 161.39 165.57 164.96 162.20 167.37 158.01 C 166.44 155.31 164.19 153.43 162.18 151.55 C 160.37 153.33 158.29 154.93 157.03 157.17 Z" />
</g>
<g id="#cb4870ff">
<path fill="#cb4870" opacity="1.00" d=" M 197.14 128.63 C 197.91 129.72 198.69 130.81 199.47 131.90 C 196.13 133.98 192.75 136.04 188.99 137.26 C 189.97 135.92 190.95 134.58 192.04 133.32 C 193.69 131.70 195.44 130.20 197.14 128.63 Z" />
</g>
<g id="#8a1217ff">
<path fill="#8a1217" opacity="1.00" d=" M 199.47 131.90 C 201.27 131.29 203.13 130.90 205.00 130.55 C 201.98 134.02 198.50 137.04 194.97 139.99 C 194.97 139.51 194.98 138.55 194.98 138.08 C 187.91 142.26 181.90 148.13 174.28 151.39 C 174.68 149.95 175.09 148.51 175.50 147.08 C 174.48 147.04 173.46 147.01 172.44 146.97 L 171.74 146.63 C 173.13 146.32 174.52 146.03 175.90 145.68 C 176.98 145.00 178.04 144.27 179.05 143.48 C 183.02 139.79 186.49 135.56 189.12 130.81 L 189.71 131.33 C 190.48 132.00 191.26 132.67 192.04 133.32 C 190.95 134.58 189.97 135.92 188.99 137.26 C 192.75 136.04 196.13 133.98 199.47 131.90 Z" />
</g>
<g id="#f20102ff">
<path fill="#f20102" opacity="1.00" d=" M 118.50 144.61 C 118.98 141.42 120.19 137.18 124.01 136.83 C 127.30 137.12 128.87 140.45 129.59 143.27 C 125.85 143.08 122.03 143.22 118.50 144.61 Z" />
</g>
<g id="#df658aff">
<path fill="#df658a" opacity="1.00" d=" M 169.11 140.03 C 171.00 139.56 172.92 139.17 174.84 138.78 C 176.23 140.36 177.63 141.92 179.05 143.48 C 178.04 144.27 176.98 145.00 175.90 145.68 C 174.41 144.15 172.98 142.57 171.59 140.96 C 170.98 140.94 169.75 140.92 169.14 140.91 L 169.11 140.03 Z" />
</g>
<g id="#da4351ff">
<path fill="#da4351" opacity="1.00" d=" M 169.14 140.91 C 169.75 140.92 170.98 140.94 171.59 140.96 C 172.98 142.57 174.41 144.15 175.90 145.68 C 174.52 146.03 173.13 146.32 171.74 146.63 C 171.18 146.33 170.04 145.73 169.48 145.42 C 169.36 143.92 169.23 142.41 169.14 140.91 Z" />
</g>
<g id="#ef2213ff">
<path fill="#ef2213" opacity="1.00" d=" M 118.50 144.61 C 122.03 143.22 125.85 143.08 129.59 143.27 C 130.95 145.42 133.62 147.99 131.75 150.65 C 128.32 151.91 124.36 152.37 120.86 151.17 C 118.82 149.94 116.88 146.82 118.50 144.61 Z" />
</g>
<g id="#ee4d64ff">
<path fill="#ee4d64" opacity="1.00" d=" M 72.78 146.75 C 74.40 147.06 76.01 147.38 77.61 147.79 C 77.86 149.38 78.13 150.97 78.48 152.54 C 79.70 154.46 81.07 156.28 82.46 158.08 C 83.68 159.64 84.91 161.20 86.10 162.79 C 83.38 160.64 80.72 158.42 78.20 156.03 C 76.59 152.82 75.02 149.58 72.78 146.75 Z" />
<path fill="#ee4d64" opacity="1.00" d=" M 98.40 155.68 C 99.08 155.50 100.44 155.15 101.12 154.97 C 101.87 156.03 102.66 157.05 103.40 158.13 C 104.16 160.51 104.60 162.99 105.16 165.43 C 103.70 166.92 102.26 168.45 101.02 170.13 C 100.09 169.65 99.16 169.16 98.23 168.68 C 98.26 164.34 98.29 160.01 98.40 155.68 Z" />
</g>
<g id="#6c0406ff">
<path fill="#6c0406" opacity="1.00" d=" M 77.61 147.79 C 80.20 148.45 82.73 149.31 85.24 150.25 C 82.99 151.03 80.74 151.79 78.48 152.54 C 78.13 150.97 77.86 149.38 77.61 147.79 Z" />
</g>
<g id="#560002ff">
<path fill="#560002" opacity="1.00" d=" M 125.17 154.19 C 131.03 152.82 137.13 151.25 143.16 152.65 C 143.40 152.95 143.89 153.56 144.13 153.87 C 144.09 154.22 144.01 154.92 143.97 155.27 C 140.60 158.70 139.60 163.42 138.22 167.85 C 136.76 166.81 135.32 165.76 133.86 164.73 C 134.18 161.17 134.48 157.61 134.68 154.05 C 131.27 154.28 127.94 155.23 124.96 156.92 C 125.01 156.24 125.12 154.87 125.17 154.19 Z" />
</g>
<g id="#7d0103ff">
<path fill="#7d0103" opacity="1.00" d=" M 149.97 152.27 C 150.35 152.19 151.10 152.03 151.47 151.95 C 150.43 157.71 151.69 163.72 149.75 169.33 C 147.69 168.19 145.64 167.04 143.58 165.89 C 143.19 167.63 142.81 169.38 142.43 171.13 C 140.74 171.80 138.98 172.31 137.16 172.46 C 136.88 171.99 136.34 171.03 136.07 170.56 C 136.80 169.66 137.52 168.76 138.22 167.85 C 139.60 163.42 140.60 158.70 143.97 155.27 C 144.01 154.92 144.09 154.22 144.13 153.87 C 146.07 153.31 148.01 152.75 149.97 152.27 Z" />
</g>
<g id="#7b0002ff">
<path fill="#7b0002" opacity="1.00" d=" M 157.03 157.17 C 158.29 154.93 160.37 153.33 162.18 151.55 C 164.19 153.43 166.44 155.31 167.37 158.01 C 164.96 162.20 161.39 165.57 157.84 168.79 C 156.97 165.00 156.26 161.04 157.03 157.17 Z" />
</g>
<g id="#430102ff">
<path fill="#430102" opacity="1.00" d=" M 124.96 156.92 C 127.94 155.23 131.27 154.28 134.68 154.05 C 134.48 157.61 134.18 161.17 133.86 164.73 C 135.32 165.76 136.76 166.81 138.22 167.85 C 137.52 168.76 136.80 169.66 136.07 170.56 C 134.79 170.49 133.51 170.44 132.23 170.40 C 126.64 170.14 121.02 170.56 115.57 171.80 C 114.08 172.13 112.60 172.49 111.12 172.83 C 111.36 170.38 111.72 167.94 112.40 165.57 C 114.66 166.02 116.93 166.45 119.24 166.53 C 120.96 166.50 122.66 165.98 124.12 165.07 C 124.71 162.39 124.74 159.64 124.96 156.92 Z" />
</g>
<g id="#830202ff">
<path fill="#830202" opacity="1.00" d=" M 101.02 170.13 C 102.26 168.45 103.70 166.92 105.16 165.43 C 105.93 167.70 106.90 169.90 107.88 172.09 C 106.57 173.95 105.26 175.81 103.95 177.67 C 99.87 176.73 95.14 175.90 93.38 171.52 C 95.67 172.23 97.93 173.01 100.18 173.82 C 100.44 172.59 100.72 171.36 101.02 170.13 Z" />
</g>
<g id="#8e0406ff">
<path fill="#8e0406" opacity="1.00" d=" M 115.57 171.80 C 121.02 170.56 126.64 170.14 132.23 170.40 C 132.23 170.95 132.24 172.06 132.24 172.62 C 126.64 173.14 121.05 173.82 115.41 173.93 C 115.45 173.40 115.53 172.34 115.57 171.80 Z" />
</g>
<g id="#9c0306ff">
<path fill="#9c0306" opacity="1.00" d=" M 148.20 183.92 C 151.11 182.85 153.54 180.82 155.98 178.96 C 152.25 182.89 148.37 186.66 144.60 190.55 C 138.51 195.84 133.12 201.87 127.08 207.22 C 128.17 203.94 129.18 200.61 130.75 197.52 C 131.82 197.77 133.02 198.82 134.06 197.93 C 137.85 195.14 140.41 191.08 143.24 187.39 C 142.00 186.42 140.77 185.45 139.54 184.48 C 142.42 184.29 145.37 184.59 148.20 183.92 Z" />
</g>
<g id="#c70107ff">
<path fill="#c70107" opacity="1.00" d=" M 95.11 181.94 C 98.12 183.42 101.24 184.66 104.34 185.96 C 104.44 185.00 104.55 184.05 104.65 183.11 C 106.79 183.39 108.92 183.67 111.04 184.03 C 115.02 187.74 116.43 193.19 118.82 197.91 C 120.03 200.62 120.98 203.44 122.01 206.23 C 118.08 202.72 114.31 199.02 110.18 195.75 C 105.20 191.10 100.02 186.67 95.11 181.94 Z" />
</g>
<g id="#880202ff">
<path fill="#880202" opacity="1.00" d=" M 111.04 184.03 C 112.49 184.25 113.95 184.46 115.42 184.60 C 117.77 187.52 118.95 191.12 120.80 194.33 C 122.86 196.44 126.03 196.53 128.73 197.20 C 126.16 198.75 123.18 199.98 120.55 197.81 C 120.12 197.84 119.25 197.89 118.82 197.91 C 116.43 193.19 115.02 187.74 111.04 184.03 Z" />
</g>
<g id="#f2c8d9ff">
<path fill="#f2c8d9" opacity="1.00" d=" M 115.42 184.60 C 119.35 184.48 123.27 184.21 127.20 184.17 C 127.82 187.64 126.02 192.45 129.67 194.59 C 129.35 195.46 129.04 196.32 128.73 197.20 C 126.03 196.53 122.86 196.44 120.80 194.33 C 118.95 191.12 117.77 187.52 115.42 184.60 Z" />
</g>
<g id="#940103ff">
<path fill="#940103" opacity="1.00" d=" M 127.20 184.17 C 129.25 184.11 131.29 184.10 133.34 184.10 C 132.30 187.66 131.03 191.14 129.67 194.59 C 126.02 192.45 127.82 187.64 127.20 184.17 Z" />
</g>
<g id="#ed693aff">
<path fill="#ed693a" opacity="1.00" d=" M 130.75 197.52 C 133.63 193.21 134.43 186.84 139.54 184.48 C 140.77 185.45 142.00 186.42 143.24 187.39 C 140.41 191.08 137.85 195.14 134.06 197.93 C 133.02 198.82 131.82 197.77 130.75 197.52 Z" />
</g>
<g id="#ecb3b5ff">
<path fill="#ecb3b5" opacity="1.00" d=" M 103.52 225.15 C 108.88 221.33 114.21 217.45 119.57 213.61 C 119.38 216.03 119.19 218.46 119.01 220.88 C 119.54 220.64 120.60 220.15 121.13 219.91 C 120.19 221.46 119.33 223.07 118.47 224.66 C 115.93 225.41 113.44 226.33 110.83 226.79 C 108.26 227.33 105.85 225.99 103.52 225.15 Z" />
</g>
<g id="#faeef3ff">
<path fill="#faeef3" opacity="1.00" d=" M 121.13 219.91 C 123.50 218.74 126.08 218.11 128.64 217.47 C 128.46 218.66 128.28 219.86 128.10 221.06 C 127.70 222.69 127.24 224.30 126.80 225.92 C 123.96 226.06 121.09 225.86 118.47 224.66 C 119.33 223.07 120.19 221.46 121.13 219.91 Z" />
</g>
<g id="#d7c1c1ff">
<path fill="#d7c1c1" opacity="1.00" d=" M 126.80 225.92 C 127.24 224.30 127.70 222.69 128.10 221.06 C 128.21 222.21 128.34 223.36 128.49 224.51 C 129.85 224.60 131.21 224.69 132.57 224.79 C 132.74 224.06 133.09 222.60 133.27 221.87 C 134.23 223.17 135.23 224.47 136.54 225.44 C 139.29 225.55 141.85 224.29 144.41 223.47 C 148.71 226.85 153.12 230.08 157.18 233.76 C 159.51 236.43 161.71 239.23 164.01 241.93 C 161.76 241.15 159.53 240.31 157.22 239.73 C 154.58 238.73 152.36 240.99 149.93 241.63 C 145.82 240.72 142.37 238.06 138.69 236.13 C 138.20 237.87 137.70 239.60 137.22 241.35 C 134.37 241.80 131.48 242.58 128.58 242.24 C 126.09 241.21 124.25 239.09 121.82 237.96 C 118.36 237.64 115.62 240.35 112.84 242.01 C 111.27 240.31 109.74 238.57 108.11 236.93 C 106.36 236.06 104.51 235.44 102.64 234.92 C 102.18 237.53 101.75 240.15 101.35 242.78 C 95.46 243.86 89.70 240.19 83.92 242.56 C 84.84 240.95 85.74 239.32 86.73 237.74 C 92.34 233.57 97.65 228.98 103.52 225.15 C 105.85 225.99 108.26 227.33 110.83 226.79 C 113.44 226.33 115.93 225.41 118.47 224.66 C 121.09 225.86 123.96 226.06 126.80 225.92 Z" />
</g>
<g id="#dfccccff">
<path fill="#dfcccc" opacity="1.00" d=" M 157.18 233.76 C 164.67 238.72 171.72 244.32 178.68 250.00 L 161.74 250.00 C 157.21 247.43 152.02 246.74 146.97 245.88 C 141.88 244.75 136.90 247.52 131.78 246.54 C 127.22 246.26 123.79 242.88 119.56 241.56 C 118.01 243.37 116.62 245.44 114.55 246.70 C 112.41 247.51 109.81 246.31 108.67 244.42 C 108.04 241.98 108.18 239.43 108.11 236.93 C 109.74 238.57 111.27 240.31 112.84 242.01 C 115.62 240.35 118.36 237.64 121.82 237.96 C 124.25 239.09 126.09 241.21 128.58 242.24 C 131.48 242.58 134.37 241.80 137.22 241.35 C 137.70 239.60 138.20 237.87 138.69 236.13 C 142.37 238.06 145.82 240.72 149.93 241.63 C 152.36 240.99 154.58 238.73 157.22 239.73 C 159.53 240.31 161.76 241.15 164.01 241.93 C 161.71 239.23 159.51 236.43 157.18 233.76 Z" />
</g>
<g id="#edd2d2ff">
<path fill="#edd2d2" opacity="1.00" d=" M 102.64 234.92 C 104.51 235.44 106.36 236.06 108.11 236.93 C 108.18 239.43 108.04 241.98 108.67 244.42 C 109.81 246.31 112.41 247.51 114.55 246.70 C 116.62 245.44 118.01 243.37 119.56 241.56 C 123.79 242.88 127.22 246.26 131.78 246.54 C 136.90 247.52 141.88 244.75 146.97 245.88 C 152.02 246.74 157.21 247.43 161.74 250.00 L 70.39 250.00 C 75.73 245.77 81.08 241.56 86.73 237.74 C 85.74 239.32 84.84 240.95 83.92 242.56 C 89.70 240.19 95.46 243.86 101.35 242.78 C 101.75 240.15 102.18 237.53 102.64 234.92 Z" />
</g>
</svg>
