<?xml version="1.0" encoding="UTF-8" ?>
<!DOCTYPE svg PUBLIC "-//W3C//DTD SVG 1.1//EN" "http://www.w3.org/Graphics/SVG/1.1/DTD/svg11.dtd">
<svg width="250pt" height="250pt" viewBox="0 0 250 250" version="1.1" xmlns="http://www.w3.org/2000/svg">
<g id="#ffffffff">
<path fill="#ffffff" opacity="1.00" d=" M 0.00 0.00 L 250.00 0.00 L 250.00 250.00 L 0.00 250.00 L 0.00 0.00 M 96.63 8.46 C 89.12 12.44 84.39 19.91 80.38 27.14 C 78.99 29.44 78.05 32.25 75.62 33.70 C 69.32 38.01 62.24 41.05 55.03 43.46 C 46.97 46.32 38.63 50.45 34.14 58.10 C 29.01 66.09 28.78 77.13 34.45 84.92 C 33.96 85.10 33.47 85.27 32.97 85.45 C 32.02 82.71 30.11 79.84 26.96 79.55 C 23.22 78.89 19.24 82.13 19.31 85.97 C 18.99 89.64 22.25 93.18 25.98 92.89 C 28.66 93.20 31.47 89.47 33.48 92.74 C 24.44 113.43 22.41 137.12 28.18 158.97 C 34.86 184.99 52.61 207.87 76.05 220.96 C 96.30 232.38 120.69 236.50 143.51 231.96 L 142.60 231.36 C 147.47 234.40 153.51 234.36 159.00 233.52 C 168.00 232.05 177.13 230.43 185.43 226.50 C 188.14 225.14 191.14 223.55 192.35 220.58 C 193.63 216.94 192.23 213.07 190.31 209.95 C 194.96 205.37 199.77 200.90 203.77 195.72 C 219.95 175.46 227.67 148.70 224.78 122.94 C 222.62 101.62 213.27 81.14 198.66 65.49 C 184.68 50.45 166.00 39.41 145.74 35.67 C 146.82 31.11 143.38 27.13 138.96 26.58 C 137.16 27.25 135.43 28.09 133.73 28.97 C 131.85 22.67 128.67 16.61 123.56 12.34 C 116.43 5.85 105.27 3.92 96.63 8.46 Z" />
<path fill="#ffffff" opacity="1.00" d=" M 136.86 74.63 C 141.74 72.39 146.96 69.70 152.50 70.70 C 152.36 72.45 151.99 74.41 150.45 75.49 C 145.53 79.44 138.82 79.52 133.53 82.72 C 138.69 82.88 143.73 81.52 148.46 79.55 C 151.91 78.07 155.95 77.93 159.27 79.86 C 155.62 83.94 149.92 84.49 144.82 85.17 C 145.57 85.39 147.08 85.83 147.83 86.05 C 153.36 86.71 156.37 92.36 159.18 96.61 C 155.49 95.12 151.00 94.45 147.47 96.69 C 143.43 99.29 141.25 103.87 140.01 108.36 C 143.14 104.82 145.40 100.05 150.12 98.34 C 154.09 96.56 158.69 98.50 161.43 101.56 C 167.31 108.22 169.49 117.55 168.42 126.25 C 166.75 120.33 164.83 114.09 160.38 109.63 C 157.63 106.74 152.01 105.82 149.51 109.47 C 146.05 114.57 145.84 121.16 146.45 127.09 C 147.50 133.34 149.59 139.36 150.85 145.57 C 144.64 144.17 138.16 145.74 133.45 150.06 C 131.99 140.60 128.62 131.48 123.95 123.15 C 120.74 117.46 115.08 112.09 108.07 112.69 C 101.68 113.12 97.55 118.61 94.65 123.72 C 92.57 125.54 90.22 127.01 87.85 128.40 C 87.66 126.49 87.40 124.56 87.42 122.64 C 91.81 116.21 95.16 107.71 103.20 105.14 C 110.33 103.27 116.11 109.00 121.75 112.36 C 118.69 104.14 108.36 100.17 100.44 103.62 C 94.85 106.16 90.94 111.31 88.44 116.78 C 86.09 115.95 83.14 115.68 81.73 113.32 C 79.01 109.59 79.75 104.69 79.54 100.35 C 87.21 92.22 97.38 86.97 107.98 83.78 C 107.01 85.00 106.01 86.19 105.05 87.42 C 108.36 86.27 110.78 83.68 113.54 81.65 C 118.91 77.88 125.14 74.62 131.91 75.18 C 128.68 77.55 125.60 80.19 123.33 83.53 C 128.18 81.09 131.87 76.86 136.86 74.63 Z" />
<path fill="#ffffff" opacity="1.00" d=" M 156.12 116.90 C 155.01 114.77 156.95 112.98 157.87 111.23 C 159.75 113.51 162.01 115.70 162.79 118.64 C 163.33 123.45 166.57 128.15 164.72 133.02 C 163.67 131.50 162.58 130.03 161.50 128.54 C 159.78 124.62 157.58 120.92 156.12 116.90 Z" />
<path fill="#ffffff" opacity="1.00" d=" M 111.27 120.25 C 112.07 118.20 114.67 118.58 116.40 118.11 C 116.59 118.08 116.97 118.03 117.16 118.00 L 117.55 118.98 C 120.08 126.03 125.42 132.55 123.96 140.51 C 119.85 137.38 117.08 132.96 114.19 128.77 C 112.56 126.25 110.79 123.40 111.27 120.25 Z" />
<path fill="#ffffff" opacity="1.00" d=" M 158.59 133.08 C 158.49 131.30 159.31 129.82 161.07 129.17 C 161.38 129.90 162.01 131.38 162.32 132.11 C 162.00 132.69 161.36 133.85 161.04 134.43 C 160.43 134.09 159.20 133.42 158.59 133.08 Z" />
<path fill="#ffffff" opacity="1.00" d=" M 116.06 142.27 C 112.72 142.73 112.30 138.03 114.46 136.31 C 115.33 136.46 117.08 136.75 117.95 136.90 C 118.12 137.15 118.45 137.65 118.62 137.91 C 117.77 139.36 117.14 140.96 116.06 142.27 Z" />
</g>
<g id="#000000ff">
<path fill="#000000" opacity="1.00" d=" M 96.63 8.46 C 105.27 3.92 116.43 5.85 123.56 12.34 C 128.67 16.61 131.85 22.67 133.73 28.97 C 135.43 28.09 137.16 27.25 138.96 26.58 C 143.38 27.13 146.82 31.11 145.74 35.67 C 145.54 36.00 145.14 36.67 144.94 37.01 C 143.56 38.40 142.00 39.61 140.54 40.91 L 140.46 41.61 C 140.46 42.01 140.46 42.80 140.46 43.20 C 140.78 51.28 140.57 59.43 141.78 67.44 C 141.94 67.96 142.25 68.98 142.41 69.49 C 145.65 68.78 149.22 66.87 152.48 68.49 C 153.92 69.11 154.30 70.77 154.93 72.05 C 154.44 73.23 153.90 74.40 153.37 75.57 C 156.13 76.24 160.49 76.37 160.85 80.04 C 161.10 83.75 156.31 84.34 154.18 86.14 C 155.96 88.70 158.11 90.97 159.94 93.49 C 161.51 96.24 162.85 99.13 164.64 101.75 C 167.08 105.22 168.91 109.09 169.92 113.21 C 170.47 115.53 170.88 117.88 171.24 120.24 C 171.64 128.47 170.89 136.77 172.87 144.87 C 172.94 148.95 178.10 150.93 177.36 155.16 C 175.84 156.83 174.36 158.54 173.04 160.39 C 174.54 160.78 176.26 162.27 177.81 161.14 C 181.27 159.27 184.43 156.88 188.02 155.23 C 189.17 154.70 190.33 154.20 191.52 153.75 C 197.64 151.40 207.33 152.52 208.86 160.14 C 208.11 162.43 207.53 164.99 205.61 166.61 C 202.49 169.25 198.37 170.13 194.59 171.37 C 192.14 172.03 189.78 172.95 187.47 173.96 C 183.62 175.61 179.82 177.35 176.02 179.11 C 177.15 182.58 178.38 186.03 179.82 189.39 C 180.43 190.81 181.08 192.23 181.75 193.64 C 183.09 196.44 184.49 199.22 185.99 201.94 C 186.18 202.27 186.56 202.92 186.75 203.25 C 190.51 200.51 193.57 196.98 196.62 193.50 C 194.53 197.84 190.69 200.83 187.14 203.91 C 187.93 205.45 188.74 206.99 189.56 208.53 C 189.74 208.88 190.12 209.59 190.31 209.95 C 192.23 213.07 193.63 216.94 192.35 220.58 C 191.14 223.55 188.14 225.14 185.43 226.50 C 177.13 230.43 168.00 232.05 159.00 233.52 C 153.51 234.36 147.47 234.40 142.60 231.36 L 141.89 230.91 C 140.29 229.27 138.86 227.47 137.55 225.61 C 137.33 225.30 136.90 224.67 136.69 224.36 C 133.66 219.19 130.49 214.05 126.36 209.68 C 122.79 205.75 119.05 201.99 115.24 198.32 C 111.50 194.88 107.73 191.12 102.84 189.38 C 98.64 188.68 94.29 189.60 90.11 188.56 C 84.71 186.24 80.43 181.90 78.22 176.46 C 75.20 170.82 70.10 166.58 67.42 160.72 C 65.76 157.25 64.53 153.59 63.62 149.86 C 62.79 145.85 62.36 141.76 62.40 137.66 C 62.40 133.69 63.34 129.80 63.56 125.85 C 63.03 124.36 62.20 123.00 61.41 121.63 C 59.10 118.00 57.29 113.90 53.97 111.04 C 51.34 108.67 48.62 106.41 46.02 104.01 C 44.34 102.49 42.61 101.03 40.87 99.60 C 37.86 107.25 35.83 115.27 34.84 123.43 C 34.15 128.12 34.17 132.87 34.24 137.60 C 34.35 140.93 34.82 144.24 35.30 147.54 C 35.76 150.76 36.19 153.99 36.69 157.20 C 34.41 146.31 32.83 135.06 34.39 123.94 C 35.27 115.53 37.45 107.31 40.49 99.43 L 39.47 98.20 C 38.03 96.75 36.47 95.41 34.95 94.05 C 34.46 93.61 33.97 93.17 33.48 92.74 C 31.47 89.47 28.66 93.20 25.98 92.89 C 22.25 93.18 18.99 89.64 19.31 85.97 C 19.24 82.13 23.22 78.89 26.96 79.55 C 30.11 79.84 32.02 82.71 32.97 85.45 C 33.47 85.27 33.96 85.10 34.45 84.92 C 28.78 77.13 29.01 66.09 34.14 58.10 C 38.63 50.45 46.97 46.32 55.03 43.46 C 62.24 41.05 69.32 38.01 75.62 33.70 C 78.05 32.25 78.99 29.44 80.38 27.14 C 84.39 19.91 89.12 12.44 96.63 8.46 M 95.89 11.77 C 83.16 20.91 79.96 37.51 69.39 48.55 L 69.07 48.70 C 67.03 50.13 64.99 51.55 62.86 52.83 C 66.98 48.21 71.32 43.69 74.12 38.09 C 67.98 41.40 61.72 44.58 54.95 46.39 C 56.80 47.37 58.90 48.10 60.30 49.73 C 61.71 51.29 61.46 53.53 61.77 55.46 C 74.26 58.58 88.93 53.36 94.61 41.33 C 92.74 39.67 90.48 37.83 90.53 35.07 C 90.16 32.33 92.38 30.41 93.85 28.43 C 95.78 28.33 97.77 27.94 99.68 28.42 C 101.20 29.22 102.37 30.56 103.88 31.38 C 103.77 33.74 103.64 36.10 103.47 38.45 C 109.89 42.34 117.75 43.66 125.02 41.53 C 127.49 40.65 129.87 39.53 132.33 38.62 C 133.14 25.27 123.59 11.23 110.01 8.90 C 105.11 7.89 100.20 9.49 95.89 11.77 M 95.25 30.41 L 95.29 30.70 C 91.53 33.06 92.95 38.48 96.98 39.58 C 100.06 38.79 102.16 36.33 101.71 33.06 C 100.13 31.02 97.81 30.07 95.25 30.41 M 134.96 34.99 C 135.70 37.96 139.66 38.75 141.92 37.04 C 143.05 35.99 143.21 34.32 143.80 32.96 C 142.50 30.28 140.06 28.84 137.07 29.39 C 135.90 30.97 133.82 32.81 134.96 34.99 M 96.96 41.83 L 96.68 42.94 C 94.69 45.89 92.68 48.85 89.98 51.20 C 84.68 56.22 77.37 58.22 70.27 58.83 C 65.94 58.60 60.83 56.81 57.31 60.23 C 56.35 66.56 54.66 73.21 50.23 78.07 C 45.67 83.66 38.77 86.36 31.98 88.07 C 32.50 88.63 33.54 89.77 34.06 90.34 C 38.97 90.11 43.21 86.84 47.16 84.14 C 54.82 78.88 59.67 69.91 59.46 60.55 C 61.31 60.73 63.17 60.94 65.02 61.14 L 64.93 61.23 C 72.22 61.77 79.78 60.82 86.38 57.51 C 92.19 54.73 96.66 49.71 99.29 43.88 C 107.38 47.38 116.18 49.77 125.05 48.39 C 127.04 47.78 129.03 47.16 131.02 46.51 C 133.41 45.13 135.89 43.78 137.84 41.78 C 138.35 39.98 136.22 39.85 135.13 39.14 C 133.78 40.00 132.34 40.73 131.09 41.74 C 122.88 45.54 113.20 45.92 104.93 42.08 C 102.64 39.54 99.65 40.70 96.96 41.83 M 133.65 47.80 C 130.47 49.39 127.06 50.49 123.53 50.95 C 121.91 51.09 120.29 51.20 118.68 51.31 C 116.48 51.05 114.29 50.76 112.10 50.50 C 108.11 49.73 104.27 48.38 100.45 47.04 C 94.77 58.05 82.32 63.55 70.37 63.77 C 67.49 63.69 64.61 63.57 61.74 63.41 C 61.25 69.21 59.15 74.77 55.76 79.50 C 52.21 83.52 48.10 87.08 43.26 89.44 C 41.84 90.08 40.49 90.83 39.14 91.60 C 38.50 91.68 37.22 91.84 36.58 91.92 C 43.12 98.56 50.21 104.72 57.43 110.62 L 57.22 109.12 C 58.37 107.42 59.43 105.67 60.47 103.91 C 62.88 100.23 65.57 96.75 68.48 93.45 C 74.73 86.65 82.11 80.95 90.20 76.50 C 98.62 72.37 107.37 68.75 116.58 66.85 L 116.60 66.63 C 117.89 66.46 119.19 66.28 120.49 66.12 L 120.52 65.76 C 121.29 65.69 122.85 65.56 123.62 65.49 C 126.97 65.07 130.33 64.72 133.70 64.65 C 135.35 64.85 137.00 65.06 138.65 65.28 C 138.77 58.53 138.30 51.79 138.20 45.05 C 136.67 45.95 135.16 46.87 133.65 47.80 M 46.74 49.87 L 46.67 50.07 C 36.65 54.89 30.84 67.32 33.98 78.05 C 35.05 80.36 36.09 84.32 39.44 83.33 C 42.73 81.04 46.34 79.05 48.83 75.82 C 52.35 71.62 54.26 66.29 54.79 60.88 C 51.88 60.05 48.63 58.36 48.31 54.96 C 47.73 52.32 49.49 50.13 50.71 48.00 C 49.39 48.62 48.06 49.23 46.74 49.87 M 51.18 56.04 C 52.56 58.60 55.81 58.48 58.08 57.27 C 58.58 56.14 59.09 55.00 59.60 53.87 C 58.93 50.52 55.80 48.68 52.53 49.71 C 51.33 51.54 49.57 53.87 51.18 56.04 M 92.77 78.08 C 89.48 79.38 86.60 81.49 83.62 83.36 C 78.85 86.75 74.38 90.58 70.38 94.87 C 67.83 97.92 65.20 100.95 63.12 104.36 C 62.39 105.81 61.58 107.22 60.67 108.57 L 60.69 108.74 C 59.94 109.84 59.19 110.94 58.46 112.04 C 59.04 113.08 59.62 114.12 60.20 115.16 C 60.40 114.63 60.80 113.56 61.00 113.03 C 61.60 111.99 62.19 110.95 62.79 109.92 C 62.97 109.54 63.31 108.79 63.49 108.41 C 66.87 104.90 69.41 100.69 72.81 97.18 C 77.07 92.78 81.80 88.85 86.86 85.39 C 96.37 79.31 106.94 74.92 117.89 72.20 L 117.74 72.10 C 118.81 71.80 119.96 71.67 120.94 71.12 C 123.75 70.82 126.56 70.51 129.33 69.93 C 130.61 69.83 131.90 69.71 133.18 69.58 C 134.34 70.75 136.85 70.70 137.83 69.32 C 138.32 69.55 139.30 70.00 139.79 70.23 C 139.69 69.57 139.49 68.25 139.39 67.59 C 123.23 65.99 107.05 70.81 92.77 78.08 M 136.86 74.63 C 131.87 76.86 128.18 81.09 123.33 83.53 C 125.60 80.19 128.68 77.55 131.91 75.18 C 125.14 74.62 118.91 77.88 113.54 81.65 C 110.78 83.68 108.36 86.27 105.05 87.42 C 106.01 86.19 107.01 85.00 107.98 83.78 C 97.38 86.97 87.21 92.22 79.54 100.35 C 69.92 109.91 65.22 123.61 65.15 137.01 C 64.88 148.13 68.33 159.76 76.11 167.94 C 76.34 163.19 75.38 157.44 79.21 153.82 C 78.95 159.84 77.59 166.00 79.65 171.87 C 81.54 179.65 88.61 186.99 97.19 185.71 C 91.72 183.03 86.34 179.27 83.80 173.54 C 82.60 170.25 82.68 165.98 85.49 163.51 C 87.76 161.35 91.03 161.11 93.95 160.61 C 90.17 148.70 89.97 135.41 94.65 123.72 C 97.55 118.61 101.68 113.12 108.07 112.69 C 115.08 112.09 120.74 117.46 123.95 123.15 C 128.62 131.48 131.99 140.60 133.45 150.06 C 138.16 145.74 144.64 144.17 150.85 145.57 C 149.59 139.36 147.50 133.34 146.45 127.09 C 145.84 121.16 146.05 114.57 149.51 109.47 C 152.01 105.82 157.63 106.74 160.38 109.63 C 164.83 114.09 166.75 120.33 168.42 126.25 C 169.49 117.55 167.31 108.22 161.43 101.56 C 158.69 98.50 154.09 96.56 150.12 98.34 C 145.40 100.05 143.14 104.82 140.01 108.36 C 141.25 103.87 143.43 99.29 147.47 96.69 C 151.00 94.45 155.49 95.12 159.18 96.61 C 156.37 92.36 153.36 86.71 147.83 86.05 C 147.08 85.83 145.57 85.39 144.82 85.17 C 149.92 84.49 155.62 83.94 159.27 79.86 C 155.95 77.93 151.91 78.07 148.46 79.55 C 143.73 81.52 138.69 82.88 133.53 82.72 C 138.82 79.52 145.53 79.44 150.45 75.49 C 151.99 74.41 152.36 72.45 152.50 70.70 C 146.96 69.70 141.74 72.39 136.86 74.63 M 118.43 74.66 C 108.32 77.08 98.29 80.86 89.67 86.75 L 89.25 86.55 C 78.45 93.44 70.07 103.33 63.23 114.04 C 61.06 117.01 62.71 120.08 64.96 122.35 C 65.09 121.71 65.36 120.45 65.50 119.82 C 69.30 105.93 79.77 95.02 91.85 87.74 C 94.53 86.94 96.94 85.45 99.55 84.48 C 105.58 81.90 112.80 81.38 117.38 76.16 C 123.43 73.29 130.03 72.53 136.64 72.36 C 130.55 72.10 124.20 72.91 118.43 74.66 M 22.43 83.31 L 22.48 83.36 C 20.49 86.25 22.36 90.73 26.04 90.60 C 29.57 90.69 31.18 86.65 30.01 83.72 C 28.70 82.98 27.39 82.24 26.08 81.52 C 24.85 82.10 23.63 82.69 22.43 83.31 M 148.74 119.03 C 147.63 128.52 152.65 137.16 153.51 146.44 C 156.16 147.67 158.95 148.83 161.02 150.98 C 162.46 152.21 163.79 154.17 165.96 153.76 C 168.77 152.96 169.48 149.65 170.28 147.22 C 168.85 137.50 166.95 127.60 162.79 118.64 C 162.01 115.70 159.75 113.51 157.87 111.23 C 156.56 110.61 155.32 109.68 153.82 109.63 C 150.39 111.38 149.24 115.51 148.74 119.03 M 97.96 123.17 C 91.87 134.77 92.89 148.87 96.67 161.06 C 103.05 162.33 109.14 167.22 115.87 164.89 C 122.16 162.50 126.62 157.00 130.85 152.03 C 130.84 145.05 128.03 138.51 125.49 132.14 C 123.44 127.45 121.44 122.48 117.55 118.98 L 117.16 118.00 C 116.97 118.03 116.59 118.08 116.40 118.11 C 110.73 112.48 101.04 116.71 97.96 123.17 M 134.25 153.25 L 134.17 153.25 C 128.74 158.87 123.86 166.03 115.95 168.26 C 107.75 169.90 100.66 163.90 92.61 163.53 C 90.57 164.35 87.95 164.60 86.67 166.64 C 84.74 169.59 86.22 173.35 88.11 175.92 C 91.67 180.63 97.47 182.56 102.36 185.48 C 108.49 188.96 113.83 193.58 118.97 198.36 L 119.23 198.46 C 123.46 203.29 128.17 207.69 132.22 212.68 C 136.36 217.61 138.38 223.96 142.89 228.62 L 143.11 228.64 C 146.77 231.41 151.51 231.95 155.95 231.38 C 164.06 230.27 172.17 228.85 179.92 226.19 C 183.87 224.74 188.73 223.28 190.48 219.04 C 190.30 211.98 185.46 206.21 182.10 200.31 C 180.32 195.68 177.73 191.37 176.08 186.66 C 175.44 184.55 174.84 182.43 174.27 180.30 C 173.48 180.51 172.70 180.71 171.91 180.92 C 172.35 183.76 173.09 186.56 174.24 189.21 C 177.28 197.57 182.02 205.31 184.16 213.99 C 184.47 219.55 178.47 222.46 173.84 223.54 C 166.37 225.22 158.58 228.08 150.90 226.08 C 142.01 222.56 138.77 212.59 132.30 206.36 C 128.96 199.20 122.03 194.77 116.16 189.86 C 112.30 187.07 109.44 182.88 104.91 181.06 C 100.79 179.07 96.14 177.38 93.33 173.55 C 92.30 172.45 92.43 170.88 92.33 169.50 C 94.68 172.78 98.23 175.20 102.20 175.99 C 104.93 178.13 108.27 179.16 111.41 180.51 C 123.24 185.34 136.34 188.29 149.07 185.74 C 166.81 182.47 181.61 171.08 198.97 166.66 C 201.20 165.97 203.71 165.16 204.93 163.00 C 205.46 161.91 206.43 160.20 205.10 159.31 C 206.31 158.00 203.45 157.15 202.67 156.48 C 196.13 153.59 189.43 157.74 183.87 160.95 C 171.66 168.19 159.15 177.37 144.36 177.35 C 149.56 175.70 154.73 173.93 159.68 171.59 C 164.14 169.40 168.43 166.87 172.79 164.48 C 172.63 163.96 172.32 162.93 172.16 162.41 L 171.40 162.93 C 170.38 159.38 172.30 156.33 174.54 153.77 C 173.77 152.54 172.98 151.31 172.18 150.09 C 170.66 153.85 167.59 157.66 163.03 156.56 C 159.38 153.63 155.81 150.21 151.11 149.10 C 145.21 147.35 138.82 149.33 134.25 153.25 M 159.50 186.16 C 159.46 187.79 159.44 189.42 159.43 191.05 C 159.68 195.10 159.68 199.16 159.33 203.20 C 155.96 201.76 153.73 198.74 150.93 196.50 C 148.28 194.25 145.62 192.02 142.95 189.79 C 133.85 190.25 124.96 188.19 116.21 185.98 C 121.66 190.78 127.77 194.93 132.15 200.83 C 137.47 206.99 141.03 214.49 146.68 220.36 C 150.57 224.65 156.77 224.04 161.97 223.45 C 167.09 222.35 172.19 221.02 177.15 219.31 C 179.76 218.51 182.04 215.72 180.95 212.90 C 178.03 203.78 172.85 195.52 170.11 186.31 C 169.79 185.02 169.49 183.73 169.18 182.44 C 166.01 183.83 162.79 185.10 159.50 186.16 M 145.60 189.65 C 148.45 193.03 152.07 195.62 155.43 198.46 C 156.06 199.41 157.27 199.99 158.11 200.80 C 158.25 196.85 158.32 192.89 157.98 188.96 C 157.91 188.47 157.76 187.48 157.69 186.99 C 153.71 188.12 149.68 188.99 145.60 189.65 Z" />
<path fill="#000000" opacity="1.00" d=" M 100.44 103.62 C 108.36 100.17 118.69 104.14 121.75 112.36 C 116.11 109.00 110.33 103.27 103.20 105.14 C 95.16 107.71 91.81 116.21 87.42 122.64 C 87.49 120.64 87.87 118.68 88.44 116.78 C 90.94 111.31 94.85 106.16 100.44 103.62 Z" />
<path fill="#000000" opacity="1.00" d=" M 155.07 130.08 C 156.51 127.90 159.30 128.36 161.50 128.54 C 162.58 130.03 163.67 131.50 164.72 133.02 C 164.70 136.02 165.41 139.59 163.01 141.92 C 161.65 143.52 159.46 143.53 157.55 143.23 C 157.63 142.38 157.77 140.68 157.84 139.84 C 157.52 139.60 156.86 139.14 156.53 138.91 C 156.51 139.94 156.47 141.99 156.45 143.02 C 153.84 139.35 151.93 134.04 155.07 130.08 M 158.59 133.08 C 159.20 133.42 160.43 134.09 161.04 134.43 C 161.36 133.85 162.00 132.69 162.32 132.11 C 162.01 131.38 161.38 129.90 161.07 129.17 C 159.31 129.82 158.49 131.30 158.59 133.08 Z" />
<path fill="#000000" opacity="1.00" d=" M 106.78 139.18 C 108.27 134.65 114.90 133.06 117.95 136.90 C 117.08 136.75 115.33 136.46 114.46 136.31 C 112.30 138.03 112.72 142.73 116.06 142.27 C 117.14 140.96 117.77 139.36 118.62 137.91 C 123.21 142.03 122.31 151.82 115.95 153.74 C 108.29 155.38 103.60 145.29 106.78 139.18 M 110.05 149.41 C 109.53 151.09 110.07 151.68 111.67 151.19 C 112.18 149.51 111.64 148.92 110.05 149.41 Z" />
<path fill="#000000" opacity="1.00" d=" M 136.89 162.27 C 139.06 162.28 141.08 163.00 142.87 164.20 C 141.09 166.56 137.88 164.26 136.89 162.27 Z" />
</g>
<g id="#5abbddff">
<path fill="#5abbdd" opacity="1.00" d=" M 95.89 11.77 C 100.20 9.49 105.11 7.89 110.01 8.90 C 123.59 11.23 133.14 25.27 132.33 38.62 C 129.53 33.66 127.84 27.44 122.65 24.36 C 117.49 22.40 110.96 25.63 106.53 21.44 C 103.49 19.12 104.00 14.96 103.65 11.60 C 101.06 11.54 98.47 11.52 95.89 11.77 Z" />
</g>
<g id="#2c7eb6ff">
<path fill="#2c7eb6" opacity="1.00" d=" M 69.39 48.55 C 79.96 37.51 83.16 20.91 95.89 11.77 C 98.47 11.52 101.06 11.54 103.65 11.60 C 104.00 14.96 103.49 19.12 106.53 21.44 C 110.96 25.63 117.49 22.40 122.65 24.36 C 127.84 27.44 129.53 33.66 132.33 38.62 C 129.87 39.53 127.49 40.65 125.02 41.53 C 121.07 41.71 117.20 40.39 114.35 37.64 C 111.36 34.79 107.79 32.70 103.88 31.38 C 102.37 30.56 101.20 29.22 99.68 28.42 C 97.77 27.94 95.78 28.33 93.85 28.43 C 92.53 25.44 91.92 22.22 91.62 18.98 C 83.90 26.18 82.10 37.33 74.76 44.81 C 73.31 46.49 71.39 47.65 69.39 48.55 Z" />
</g>
<g id="#275f7dff">
<path fill="#275f7d" opacity="1.00" d=" M 74.76 44.81 C 82.10 37.33 83.90 26.18 91.62 18.98 C 91.92 22.22 92.53 25.44 93.85 28.43 C 92.38 30.41 90.16 32.33 90.53 35.07 C 90.48 37.83 92.74 39.67 94.61 41.33 C 88.93 53.36 74.26 58.58 61.77 55.46 C 61.46 53.53 61.71 51.29 60.30 49.73 C 58.90 48.10 56.80 47.37 54.95 46.39 C 61.72 44.58 67.98 41.40 74.12 38.09 C 71.32 43.69 66.98 48.21 62.86 52.83 C 64.99 51.55 67.03 50.13 69.07 48.70 L 69.39 48.55 C 71.39 47.65 73.31 46.49 74.76 44.81 Z" />
<path fill="#275f7d" opacity="1.00" d=" M 103.88 31.38 C 107.79 32.70 111.36 34.79 114.35 37.64 C 117.20 40.39 121.07 41.71 125.02 41.53 C 117.75 43.66 109.89 42.34 103.47 38.45 C 103.64 36.10 103.77 33.74 103.88 31.38 Z" />
<path fill="#275f7d" opacity="1.00" d=" M 46.74 49.87 C 48.06 49.23 49.39 48.62 50.71 48.00 C 49.49 50.13 47.73 52.32 48.31 54.96 C 48.63 58.36 51.88 60.05 54.79 60.88 C 54.26 66.29 52.35 71.62 48.83 75.82 C 46.34 79.05 42.73 81.04 39.44 83.33 C 37.82 79.73 35.17 76.18 35.73 72.02 C 36.32 66.07 38.75 60.25 42.79 55.81 C 44.29 54.05 46.13 52.42 46.67 50.07 L 46.74 49.87 Z" />
</g>
<g id="#fff6caff">
<path fill="#fff6ca" opacity="1.00" d=" M 95.25 30.41 C 97.81 30.07 100.13 31.02 101.71 33.06 C 100.20 33.58 98.80 36.20 97.12 35.09 C 95.06 34.63 95.70 32.22 95.29 30.70 L 95.25 30.41 Z" />
<path fill="#fff6ca" opacity="1.00" d=" M 137.07 29.39 C 140.06 28.84 142.50 30.28 143.80 32.96 C 142.23 33.37 140.61 35.19 138.91 34.20 C 137.17 33.27 137.61 30.97 137.07 29.39 Z" />
<path fill="#fff6ca" opacity="1.00" d=" M 89.98 51.20 C 92.68 48.85 94.69 45.89 96.68 42.94 C 95.92 47.92 91.93 51.37 88.06 54.13 C 83.16 57.33 77.28 60.18 71.28 58.96 L 70.27 58.83 C 77.37 58.22 84.68 56.22 89.98 51.20 Z" />
<path fill="#fff6ca" opacity="1.00" d=" M 123.53 50.95 C 127.06 50.49 130.47 49.39 133.65 47.80 C 134.14 53.40 134.20 59.04 133.70 64.65 C 130.33 64.72 126.97 65.07 123.62 65.49 C 124.83 60.72 125.91 55.56 123.53 50.95 Z" />
</g>
<g id="#ffe200ff">
<path fill="#ffe200" opacity="1.00" d=" M 134.96 34.99 C 133.82 32.81 135.90 30.97 137.07 29.39 C 137.61 30.97 137.17 33.27 138.91 34.20 C 140.61 35.19 142.23 33.37 143.80 32.96 C 143.21 34.32 143.05 35.99 141.92 37.04 C 139.66 38.75 135.70 37.96 134.96 34.99 Z" />
<path fill="#ffe200" opacity="1.00" d=" M 89.67 86.75 C 98.29 80.86 108.32 77.08 118.43 74.66 L 117.38 76.16 C 112.80 81.38 105.58 81.90 99.55 84.48 C 96.94 85.45 94.53 86.94 91.85 87.74 C 91.31 87.49 90.22 87.00 89.67 86.75 Z" />
</g>
<g id="#fee100ff">
<path fill="#fee100" opacity="1.00" d=" M 96.98 39.58 C 92.95 38.48 91.53 33.06 95.29 30.70 C 95.70 32.22 95.06 34.63 97.12 35.09 C 98.80 36.20 100.20 33.58 101.71 33.06 C 102.16 36.33 100.06 38.79 96.98 39.58 Z" />
<path fill="#fee100" opacity="1.00" d=" M 51.18 56.04 C 49.57 53.87 51.33 51.54 52.53 49.71 C 52.94 51.30 53.35 52.89 53.78 54.49 C 55.72 54.30 57.66 54.10 59.60 53.87 C 59.09 55.00 58.58 56.14 58.08 57.27 C 55.81 58.48 52.56 58.60 51.18 56.04 Z" />
</g>
<g id="#ffe683ff">
<path fill="#ffe683" opacity="1.00" d=" M 144.94 37.01 C 145.14 36.67 145.54 36.00 145.74 35.67 C 166.00 39.41 184.68 50.45 198.66 65.49 C 213.27 81.14 222.62 101.62 224.78 122.94 C 227.67 148.70 219.95 175.46 203.77 195.72 C 199.77 200.90 194.96 205.37 190.31 209.95 C 190.12 209.59 189.74 208.88 189.56 208.53 C 192.23 205.56 195.28 202.94 197.97 199.98 C 205.01 192.27 210.82 183.43 215.05 173.87 C 221.09 160.95 223.78 146.58 223.64 132.35 C 223.71 118.53 220.30 104.80 214.64 92.23 C 211.31 85.29 207.43 78.57 202.54 72.60 C 190.13 56.83 172.88 44.89 153.62 39.20 C 150.76 38.33 147.85 37.67 144.94 37.01 Z" />
<path fill="#ffe683" opacity="1.00" d=" M 140.46 41.61 C 143.17 42.21 145.90 42.77 148.61 43.44 C 168.34 48.60 186.33 60.39 198.76 76.58 C 203.10 82.46 207.03 88.69 209.96 95.41 C 213.59 103.23 215.49 111.64 217.39 120.00 C 219.66 138.51 216.97 157.69 208.69 174.47 C 205.52 181.33 200.96 187.37 196.62 193.50 C 193.57 196.98 190.51 200.51 186.75 203.25 C 186.56 202.92 186.18 202.27 185.99 201.94 C 199.17 190.10 208.90 174.46 213.42 157.32 C 216.93 145.44 217.27 132.80 215.61 120.58 C 214.66 113.94 212.98 107.40 210.65 101.11 C 207.77 93.93 204.31 86.95 199.74 80.69 C 197.56 77.69 195.25 74.79 192.76 72.04 C 187.03 65.82 180.58 60.23 173.39 55.77 C 168.91 53.03 164.23 50.62 159.38 48.61 C 153.32 46.03 146.90 44.49 140.46 43.20 C 140.46 42.80 140.46 42.01 140.46 41.61 Z" />
<path fill="#ffe683" opacity="1.00" d=" M 34.66 111.75 C 35.79 107.08 37.00 102.37 39.47 98.20 L 40.49 99.43 C 37.45 107.31 35.27 115.53 34.39 123.94 C 32.83 135.06 34.41 146.31 36.69 157.20 C 37.08 159.02 37.60 160.81 38.19 162.57 C 42.41 175.18 49.50 186.73 58.65 196.36 C 62.52 200.56 66.97 204.19 71.52 207.63 C 78.27 212.72 85.95 216.44 93.83 219.45 C 100.30 221.81 107.04 223.46 113.88 224.31 C 121.46 225.26 129.11 225.23 136.69 224.36 C 136.90 224.67 137.33 225.30 137.55 225.61 C 130.86 226.71 124.06 226.66 117.31 226.42 C 113.16 225.70 108.97 225.24 104.86 224.31 C 99.20 223.01 93.66 221.20 88.30 218.97 C 81.49 216.13 75.16 212.27 69.18 207.96 C 51.64 194.96 39.15 175.40 34.29 154.14 C 33.30 149.58 32.66 144.96 32.22 140.31 C 32.07 134.65 32.06 128.97 32.55 123.32 C 33.02 119.43 33.75 115.56 34.66 111.75 Z" />
<path fill="#ffe683" opacity="1.00" d=" M 183.87 160.95 C 189.43 157.74 196.13 153.59 202.67 156.48 C 203.45 157.15 206.31 158.00 205.10 159.31 L 204.81 159.78 C 202.64 158.96 200.34 157.98 197.99 158.70 C 190.32 160.43 184.12 165.59 177.25 169.11 C 166.72 174.44 155.33 178.18 143.58 179.53 C 139.53 179.96 135.29 180.45 131.41 178.88 C 135.71 178.23 140.04 177.87 144.36 177.35 C 159.15 177.37 171.66 168.19 183.87 160.95 Z" />
</g>
<g id="#9c4f05ff">
<path fill="#9c4f05" opacity="1.00" d=" M 144.94 37.01 C 147.85 37.67 150.76 38.33 153.62 39.20 C 151.95 40.62 150.28 42.03 148.61 43.44 C 145.90 42.77 143.17 42.21 140.46 41.61 L 140.54 40.91 C 142.00 39.61 143.56 38.40 144.94 37.01 Z" />
</g>
<g id="#ffe300ff">
<path fill="#ffe300" opacity="1.00" d=" M 96.96 41.83 C 99.65 40.70 102.64 39.54 104.93 42.08 C 107.12 43.54 109.39 45.14 112.07 45.50 C 116.01 46.02 119.99 45.38 123.93 45.78 C 124.21 46.43 124.77 47.74 125.05 48.39 C 116.18 49.77 107.38 47.38 99.29 43.88 C 96.66 49.71 92.19 54.73 86.38 57.51 C 79.78 60.82 72.22 61.77 64.93 61.23 L 65.02 61.14 C 66.48 59.07 68.86 58.48 71.28 58.96 C 77.28 60.18 83.16 57.33 88.06 54.13 C 91.93 51.37 95.92 47.92 96.68 42.94 L 96.96 41.83 Z" />
</g>
<g id="#fde000ff">
<path fill="#fde000" opacity="1.00" d=" M 131.09 41.74 C 132.34 40.73 133.78 40.00 135.13 39.14 C 136.22 39.85 138.35 39.98 137.84 41.78 C 135.89 43.78 133.41 45.13 131.02 46.51 C 130.46 46.14 129.35 45.39 128.80 45.02 C 129.55 43.92 130.29 42.81 131.09 41.74 Z" />
<path fill="#fde000" opacity="1.00" d=" M 133.65 47.80 C 135.16 46.87 136.67 45.95 138.20 45.05 C 138.30 51.79 138.77 58.53 138.65 65.28 C 137.00 65.06 135.35 64.85 133.70 64.65 C 134.20 59.04 134.14 53.40 133.65 47.80 Z" />
<path fill="#fde000" opacity="1.00" d=" M 100.45 47.04 C 104.27 48.38 108.11 49.73 112.10 50.50 C 116.47 54.69 117.52 60.85 116.60 66.63 L 116.58 66.85 C 107.37 68.75 98.62 72.37 90.20 76.50 C 81.89 75.65 75.40 70.01 70.37 63.77 C 82.32 63.55 94.77 58.05 100.45 47.04 Z" />
<path fill="#fde000" opacity="1.00" d=" M 118.68 51.31 C 120.29 51.20 121.91 51.09 123.53 50.95 C 125.91 55.56 124.83 60.72 123.62 65.49 C 122.85 65.56 121.29 65.69 120.52 65.76 C 121.13 60.86 120.84 55.82 118.68 51.31 Z" />
<path fill="#fde000" opacity="1.00" d=" M 120.94 71.12 C 123.27 68.89 126.45 68.88 129.33 69.93 C 126.56 70.51 123.75 70.82 120.94 71.12 Z" />
<path fill="#fde000" opacity="1.00" d=" M 92.77 78.08 C 100.56 75.92 108.04 72.77 115.92 70.90 C 116.37 71.20 117.28 71.80 117.74 72.10 L 117.89 72.20 C 106.94 74.92 96.37 79.31 86.86 85.39 C 85.78 84.71 84.70 84.03 83.62 83.36 C 86.60 81.49 89.48 79.38 92.77 78.08 Z" />
<path fill="#fde000" opacity="1.00" d=" M 22.48 83.36 C 24.02 84.87 25.85 86.03 27.80 86.93 C 28.53 85.85 29.27 84.78 30.01 83.72 C 31.18 86.65 29.57 90.69 26.04 90.60 C 22.36 90.73 20.49 86.25 22.48 83.36 Z" />
<path fill="#fde000" opacity="1.00" d=" M 36.58 91.92 C 37.22 91.84 38.50 91.68 39.14 91.60 C 45.77 96.74 52.04 102.49 57.22 109.12 L 57.43 110.62 C 50.21 104.72 43.12 98.56 36.58 91.92 Z" />
<path fill="#fde000" opacity="1.00" d=" M 60.69 108.74 C 60.82 110.17 60.94 111.59 61.00 113.03 C 60.80 113.56 60.40 114.63 60.20 115.16 C 59.62 114.12 59.04 113.08 58.46 112.04 C 59.19 110.94 59.94 109.84 60.69 108.74 Z" />
<path fill="#fde000" opacity="1.00" d=" M 64.96 122.35 C 62.71 120.08 61.06 117.01 63.23 114.04 C 64.08 115.92 64.91 117.83 65.50 119.82 C 65.36 120.45 65.09 121.71 64.96 122.35 Z" />
</g>
<g id="#873a01ff">
<path fill="#873a01" opacity="1.00" d=" M 148.61 43.44 C 150.28 42.03 151.95 40.62 153.62 39.20 C 172.88 44.89 190.13 56.83 202.54 72.60 C 201.28 73.92 200.01 75.25 198.76 76.58 C 186.33 60.39 168.34 48.60 148.61 43.44 Z" />
</g>
<g id="#fff8ccff">
<path fill="#fff8cc" opacity="1.00" d=" M 104.93 42.08 C 113.20 45.92 122.88 45.54 131.09 41.74 C 130.29 42.81 129.55 43.92 128.80 45.02 C 129.35 45.39 130.46 46.14 131.02 46.51 C 129.03 47.16 127.04 47.78 125.05 48.39 C 124.77 47.74 124.21 46.43 123.93 45.78 C 119.99 45.38 116.01 46.02 112.07 45.50 C 109.39 45.14 107.12 43.54 104.93 42.08 Z" />
</g>
<g id="#bc7e12ff">
<path fill="#bc7e12" opacity="1.00" d=" M 140.46 43.20 C 146.90 44.49 153.32 46.03 159.38 48.61 C 158.11 50.86 156.65 53.02 154.78 54.81 C 150.41 58.98 146.24 63.36 141.78 67.44 C 140.57 59.43 140.78 51.28 140.46 43.20 Z" />
</g>
<g id="#b17003ff">
<path fill="#b17003" opacity="1.00" d=" M 154.78 54.81 C 156.65 53.02 158.11 50.86 159.38 48.61 C 164.23 50.62 168.91 53.03 173.39 55.77 C 167.08 60.62 162.92 67.58 156.84 72.69 C 156.36 72.53 155.41 72.21 154.93 72.05 C 154.30 70.77 153.92 69.11 152.48 68.49 C 149.22 66.87 145.65 68.78 142.41 69.49 C 142.25 68.98 141.94 67.96 141.78 67.44 C 146.24 63.36 150.41 58.98 154.78 54.81 Z" />
</g>
<g id="#fff6cbff">
<path fill="#fff6cb" opacity="1.00" d=" M 52.53 49.71 C 55.80 48.68 58.93 50.52 59.60 53.87 C 57.66 54.10 55.72 54.30 53.78 54.49 C 53.35 52.89 52.94 51.30 52.53 49.71 Z" />
<path fill="#fff6cb" opacity="1.00" d=" M 112.10 50.50 C 114.29 50.76 116.48 51.05 118.68 51.31 C 120.84 55.82 121.13 60.86 120.52 65.76 L 120.49 66.12 C 119.19 66.28 117.89 66.46 116.60 66.63 C 117.52 60.85 116.47 54.69 112.10 50.50 Z" />
</g>
<g id="#2d80b9ff">
<path fill="#2d80b9" opacity="1.00" d=" M 33.98 78.05 C 30.84 67.32 36.65 54.89 46.67 50.07 C 46.13 52.42 44.29 54.05 42.79 55.81 C 38.75 60.25 36.32 66.07 35.73 72.02 C 35.17 76.18 37.82 79.73 39.44 83.33 C 36.09 84.32 35.05 80.36 33.98 78.05 Z" />
</g>
<g id="#bf7c0fff">
<path fill="#bf7c0f" opacity="1.00" d=" M 173.39 55.77 C 180.58 60.23 187.03 65.82 192.76 72.04 C 190.69 73.75 188.46 75.23 186.14 76.56 C 182.52 73.98 177.81 70.49 173.30 73.21 C 165.75 77.40 164.21 86.68 159.94 93.49 C 158.11 90.97 155.96 88.70 154.18 86.14 C 156.31 84.34 161.10 83.75 160.85 80.04 C 160.49 76.37 156.13 76.24 153.37 75.57 C 153.90 74.40 154.44 73.23 154.93 72.05 C 155.41 72.21 156.36 72.53 156.84 72.69 C 162.92 67.58 167.08 60.62 173.39 55.77 Z" />
</g>
<g id="#b1a03aff">
<path fill="#b1a03a" opacity="1.00" d=" M 57.31 60.23 C 60.83 56.81 65.94 58.60 70.27 58.83 L 71.28 58.96 C 68.86 58.48 66.48 59.07 65.02 61.14 C 63.17 60.94 61.31 60.73 59.46 60.55 C 59.67 69.91 54.82 78.88 47.16 84.14 C 43.21 86.84 38.97 90.11 34.06 90.34 C 33.54 89.77 32.50 88.63 31.98 88.07 C 38.77 86.36 45.67 83.66 50.23 78.07 C 54.66 73.21 56.35 66.56 57.31 60.23 Z" />
</g>
<g id="#ae9e3bff">
<path fill="#ae9e3b" opacity="1.00" d=" M 61.74 63.41 C 64.61 63.57 67.49 63.69 70.37 63.77 C 75.40 70.01 81.89 75.65 90.20 76.50 C 82.11 80.95 74.73 86.65 68.48 93.45 C 63.57 89.44 59.93 84.22 55.76 79.50 C 59.15 74.77 61.25 69.21 61.74 63.41 Z" />
<path fill="#ae9e3b" opacity="1.00" d=" M 70.38 94.87 C 74.38 90.58 78.85 86.75 83.62 83.36 C 84.70 84.03 85.78 84.71 86.86 85.39 C 81.80 88.85 77.07 92.78 72.81 97.18 C 72.00 96.41 71.19 95.64 70.38 94.87 Z" />
<path fill="#ae9e3b" opacity="1.00" d=" M 39.14 91.60 C 40.49 90.83 41.84 90.08 43.26 89.44 C 50.41 92.21 55.10 98.75 60.47 103.91 C 59.43 105.67 58.37 107.42 57.22 109.12 C 52.04 102.49 45.77 96.74 39.14 91.60 Z" />
</g>
<g id="#fffccfff">
<path fill="#fffccf" opacity="1.00" d=" M 92.77 78.08 C 107.05 70.81 123.23 65.99 139.39 67.59 C 139.49 68.25 139.69 69.57 139.79 70.23 C 139.30 70.00 138.32 69.55 137.83 69.32 C 137.61 69.16 137.17 68.84 136.95 68.68 C 136.03 67.38 133.31 67.01 133.27 69.13 L 133.18 69.58 C 131.90 69.71 130.61 69.83 129.33 69.93 C 126.45 68.88 123.27 68.89 120.94 71.12 C 119.96 71.67 118.81 71.80 117.74 72.10 C 117.28 71.80 116.37 71.20 115.92 70.90 C 108.04 72.77 100.56 75.92 92.77 78.08 Z" />
</g>
<g id="#fff36eff">
<path fill="#fff36e" opacity="1.00" d=" M 133.27 69.13 C 133.31 67.01 136.03 67.38 136.95 68.68 C 135.75 69.10 134.52 69.25 133.27 69.13 Z" />
</g>
<g id="#ad9a11ff">
<path fill="#ad9a11" opacity="1.00" d=" M 133.27 69.13 C 134.52 69.25 135.75 69.10 136.95 68.68 C 137.17 68.84 137.61 69.16 137.83 69.32 C 136.85 70.70 134.34 70.75 133.18 69.58 L 133.27 69.13 Z" />
</g>
<g id="#ffe682ff">
<path fill="#ffe682" opacity="1.00" d=" M 118.43 74.66 C 124.20 72.91 130.55 72.10 136.64 72.36 C 130.03 72.53 123.43 73.29 117.38 76.16 L 118.43 74.66 Z" />
<path fill="#ffe682" opacity="1.00" d=" M 134.25 153.25 C 138.82 149.33 145.21 147.35 151.11 149.10 C 155.81 150.21 159.38 153.63 163.03 156.56 C 162.92 160.43 165.77 162.89 168.79 164.73 C 169.44 164.28 170.74 163.38 171.40 162.93 L 172.16 162.41 C 172.32 162.93 172.63 163.96 172.79 164.48 C 168.43 166.87 164.14 169.40 159.68 171.59 C 156.95 165.10 152.45 159.10 146.09 155.82 C 142.48 153.81 138.27 153.59 134.25 153.25 Z" />
<path fill="#ffe682" opacity="1.00" d=" M 182.10 200.31 C 185.46 206.21 190.30 211.98 190.48 219.04 C 188.73 223.28 183.87 224.74 179.92 226.19 C 172.17 228.85 164.06 230.27 155.95 231.38 C 151.51 231.95 146.77 231.41 143.11 228.64 C 154.81 230.66 166.83 228.19 177.66 223.68 C 181.40 222.14 185.73 219.48 185.73 214.91 C 185.61 209.83 182.28 205.44 182.10 200.31 Z" />
</g>
<g id="#da8c1aff">
<path fill="#da8c1a" opacity="1.00" d=" M 173.30 73.21 C 177.81 70.49 182.52 73.98 186.14 76.56 C 185.04 77.48 183.76 78.41 183.34 79.85 C 183.86 82.78 185.31 85.43 186.52 88.12 C 185.12 89.67 183.71 91.22 182.30 92.76 C 180.06 90.21 176.56 86.66 172.91 88.87 C 168.66 91.96 167.03 97.29 164.64 101.75 C 162.85 99.13 161.51 96.24 159.94 93.49 C 164.21 86.68 165.75 77.40 173.30 73.21 Z" />
</g>
<g id="#ca8c24ff">
<path fill="#ca8c24" opacity="1.00" d=" M 192.76 72.04 C 195.25 74.79 197.56 77.69 199.74 80.69 C 197.06 83.72 194.20 86.59 191.13 89.23 C 189.60 88.86 188.06 88.48 186.52 88.12 C 185.31 85.43 183.86 82.78 183.34 79.85 C 183.76 78.41 185.04 77.48 186.14 76.56 C 188.46 75.23 190.69 73.75 192.76 72.04 Z" />
</g>
<g id="#ad5909ff">
<path fill="#ad5909" opacity="1.00" d=" M 202.54 72.60 C 207.43 78.57 211.31 85.29 214.64 92.23 C 213.08 93.30 211.52 94.35 209.96 95.41 C 207.03 88.69 203.10 82.46 198.76 76.58 C 200.01 75.25 201.28 73.92 202.54 72.60 Z" />
</g>
<g id="#81742eff">
<path fill="#81742e" opacity="1.00" d=" M 43.26 89.44 C 48.10 87.08 52.21 83.52 55.76 79.50 C 59.93 84.22 63.57 89.44 68.48 93.45 C 65.57 96.75 62.88 100.23 60.47 103.91 C 55.10 98.75 50.41 92.21 43.26 89.44 Z" />
<path fill="#81742e" opacity="1.00" d=" M 63.12 104.36 C 65.20 100.95 67.83 97.92 70.38 94.87 C 71.19 95.64 72.00 96.41 72.81 97.18 C 69.41 100.69 66.87 104.90 63.49 108.41 C 63.39 107.06 63.27 105.71 63.12 104.36 Z" />
</g>
<g id="#d79b34ff">
<path fill="#d79b34" opacity="1.00" d=" M 199.74 80.69 C 204.31 86.95 207.77 93.93 210.65 101.11 C 207.95 106.65 202.78 110.26 198.78 114.76 C 197.14 116.07 195.09 119.20 192.89 117.14 C 190.74 114.43 189.17 111.31 187.32 108.39 C 185.55 103.21 184.04 97.95 182.30 92.76 C 183.71 91.22 185.12 89.67 186.52 88.12 C 188.06 88.48 189.60 88.86 191.13 89.23 C 194.20 86.59 197.06 83.72 199.74 80.69 Z" />
</g>
<g id="#fff7cbff">
<path fill="#fff7cb" opacity="1.00" d=" M 22.43 83.31 C 23.63 82.69 24.85 82.10 26.08 81.52 C 27.39 82.24 28.70 82.98 30.01 83.72 C 29.27 84.78 28.53 85.85 27.80 86.93 C 25.85 86.03 24.02 84.87 22.48 83.36 L 22.43 83.31 Z" />
</g>
<g id="#a59639ff">
<path fill="#a59639" opacity="1.00" d=" M 63.23 114.04 C 70.07 103.33 78.45 93.44 89.25 86.55 L 89.67 86.75 C 90.22 87.00 91.31 87.49 91.85 87.74 C 79.77 95.02 69.30 105.93 65.50 119.82 C 64.91 117.83 64.08 115.92 63.23 114.04 Z" />
</g>
<g id="#ffab27ff">
<path fill="#ffab27" opacity="1.00" d=" M 172.91 88.87 C 176.56 86.66 180.06 90.21 182.30 92.76 C 184.04 97.95 185.55 103.21 187.32 108.39 C 187.40 109.87 187.49 111.35 187.59 112.83 C 186.25 112.65 184.91 112.48 183.58 112.30 C 183.66 114.10 183.75 115.90 183.84 117.70 C 183.00 117.36 182.15 117.01 181.31 116.66 C 180.25 113.48 178.72 109.57 175.01 108.84 C 172.72 109.38 171.51 111.68 169.92 113.21 C 168.91 109.09 167.08 105.22 164.64 101.75 C 167.03 97.29 168.66 91.96 172.91 88.87 Z" />
</g>
<g id="#bf6910ff">
<path fill="#bf6910" opacity="1.00" d=" M 214.64 92.23 C 220.30 104.80 223.71 118.53 223.64 132.35 C 222.55 134.15 221.48 135.95 220.41 137.76 C 219.69 131.82 220.10 125.51 217.39 120.00 C 215.49 111.64 213.59 103.23 209.96 95.41 C 211.52 94.35 213.08 93.30 214.64 92.23 Z" />
</g>
<g id="#f5cf87ff">
<path fill="#f5cf87" opacity="1.00" d=" M 33.48 92.74 C 33.97 93.17 34.46 93.61 34.95 94.05 C 32.24 100.24 30.01 106.65 28.79 113.31 C 27.68 118.17 27.09 123.13 26.74 128.10 C 26.38 133.82 26.68 139.56 27.30 145.26 C 27.71 149.00 28.43 152.71 29.30 156.37 C 34.27 178.07 47.11 197.67 64.65 211.31 C 70.78 216.24 77.67 220.14 84.79 223.45 C 93.25 227.26 102.27 229.84 111.45 231.15 C 118.72 232.01 126.09 232.52 133.39 231.68 C 136.23 231.48 139.05 231.07 141.89 230.91 L 142.60 231.36 L 143.51 231.96 C 120.69 236.50 96.30 232.38 76.05 220.96 C 52.61 207.87 34.86 184.99 28.18 158.97 C 22.41 137.12 24.44 113.43 33.48 92.74 Z" />
</g>
<g id="#e1961fff">
<path fill="#e1961f" opacity="1.00" d=" M 28.79 113.31 C 30.01 106.65 32.24 100.24 34.95 94.05 C 36.47 95.41 38.03 96.75 39.47 98.20 C 37.00 102.37 35.79 107.08 34.66 111.75 C 33.62 110.72 32.58 109.69 31.52 108.67 C 30.60 110.21 29.66 111.74 28.79 113.31 Z" />
</g>
<g id="#eab548ff">
<path fill="#eab548" opacity="1.00" d=" M 40.87 99.60 C 42.61 101.03 44.34 102.49 46.02 104.01 C 43.37 109.30 41.94 115.20 42.13 121.13 C 39.86 122.35 37.42 123.26 34.84 123.43 C 35.83 115.27 37.86 107.25 40.87 99.60 Z" />
</g>
<g id="#f1dfccff">
<path fill="#f1dfcc" opacity="1.00" d=" M 65.15 137.01 C 65.22 123.61 69.92 109.91 79.54 100.35 C 79.75 104.69 79.01 109.59 81.73 113.32 C 83.14 115.68 86.09 115.95 88.44 116.78 C 87.87 118.68 87.49 120.64 87.42 122.64 C 87.40 124.56 87.66 126.49 87.85 128.40 C 90.22 127.01 92.57 125.54 94.65 123.72 C 89.97 135.41 90.17 148.70 93.95 160.61 C 91.03 161.11 87.76 161.35 85.49 163.51 C 82.68 165.98 82.60 170.25 83.80 173.54 C 86.34 179.27 91.72 183.03 97.19 185.71 C 88.61 186.99 81.54 179.65 79.65 171.87 C 77.59 166.00 78.95 159.84 79.21 153.82 C 75.38 157.44 76.34 163.19 76.11 167.94 C 68.33 159.76 64.88 148.13 65.15 137.01 Z" />
</g>
<g id="#e0a743ff">
<path fill="#e0a743" opacity="1.00" d=" M 210.65 101.11 C 212.98 107.40 214.66 113.94 215.61 120.58 C 210.21 128.99 201.68 134.66 195.52 142.42 C 193.13 145.72 191.34 149.59 191.52 153.75 C 190.33 154.20 189.17 154.70 188.02 155.23 C 189.11 145.54 191.96 135.76 189.96 126.00 C 189.26 121.60 188.18 117.26 187.59 112.83 C 187.49 111.35 187.40 109.87 187.32 108.39 C 189.17 111.31 190.74 114.43 192.89 117.14 C 195.09 119.20 197.14 116.07 198.78 114.76 C 202.78 110.26 207.95 106.65 210.65 101.11 Z" />
</g>
<g id="#ffc138ff">
<path fill="#ffc138" opacity="1.00" d=" M 42.13 121.13 C 41.94 115.20 43.37 109.30 46.02 104.01 C 48.62 106.41 51.34 108.67 53.97 111.04 C 57.29 113.90 59.10 118.00 61.41 121.63 C 61.13 123.84 60.86 126.05 60.67 128.27 C 60.00 125.88 59.19 123.53 58.43 121.17 C 56.85 121.28 55.24 121.30 53.68 121.64 C 51.15 125.56 51.18 130.44 51.19 134.94 C 50.27 134.32 49.35 133.71 48.44 133.10 C 47.69 130.17 46.85 127.23 45.45 124.53 C 44.40 124.57 43.36 124.64 42.31 124.77 C 42.23 123.55 42.16 122.34 42.13 121.13 Z" />
</g>
<g id="#ffff3dff">
<path fill="#ffff3d" opacity="1.00" d=" M 60.67 108.57 C 61.58 107.22 62.39 105.81 63.12 104.36 C 63.27 105.71 63.39 107.06 63.49 108.41 C 63.31 108.79 62.97 109.54 62.79 109.92 C 62.19 110.95 61.60 111.99 61.00 113.03 C 60.94 111.59 60.82 110.17 60.69 108.74 L 60.67 108.57 Z" />
<path fill="#ffff3d" opacity="1.00" d=" M 174.06 115.22 C 174.64 115.33 175.79 115.54 176.36 115.64 C 177.56 117.79 178.77 119.93 179.76 122.19 C 181.89 132.56 182.73 143.95 178.46 153.90 C 178.18 154.21 177.64 154.84 177.36 155.16 C 178.10 150.93 172.94 148.95 172.87 144.87 C 170.89 136.77 171.64 128.47 171.24 120.24 C 172.11 118.53 173.09 116.88 174.06 115.22 Z" />
</g>
<g id="#d08417ff">
<path fill="#d08417" opacity="1.00" d=" M 31.52 108.67 C 32.58 109.69 33.62 110.72 34.66 111.75 C 33.75 115.56 33.02 119.43 32.55 123.32 C 30.22 124.38 27.93 125.73 26.74 128.10 C 27.09 123.13 27.68 118.17 28.79 113.31 C 29.66 111.74 30.60 110.21 31.52 108.67 Z" />
</g>
<g id="#ffd32fff">
<path fill="#ffd32f" opacity="1.00" d=" M 169.92 113.21 C 171.51 111.68 172.72 109.38 175.01 108.84 C 178.72 109.57 180.25 113.48 181.31 116.66 C 181.61 118.65 181.81 120.64 182.02 122.64 C 181.46 122.53 180.33 122.30 179.76 122.19 C 178.77 119.93 177.56 117.79 176.36 115.64 C 175.79 115.54 174.64 115.33 174.06 115.22 C 173.09 116.88 172.11 118.53 171.24 120.24 C 170.88 117.88 170.47 115.53 169.92 113.21 Z" />
</g>
<g id="#caeaf2ff">
<path fill="#caeaf2" opacity="1.00" d=" M 148.74 119.03 C 149.24 115.51 150.39 111.38 153.82 109.63 C 155.32 109.68 156.56 110.61 157.87 111.23 C 156.95 112.98 155.01 114.77 156.12 116.90 C 157.58 120.92 159.78 124.62 161.50 128.54 C 159.30 128.36 156.51 127.90 155.07 130.08 C 151.93 134.04 153.84 139.35 156.45 143.02 C 156.47 141.99 156.51 139.94 156.53 138.91 C 156.86 139.14 157.52 139.60 157.84 139.84 C 157.77 140.68 157.63 142.38 157.55 143.23 C 159.46 143.53 161.65 143.52 163.01 141.92 C 165.41 139.59 164.70 136.02 164.72 133.02 C 166.57 128.15 163.33 123.45 162.79 118.64 C 166.95 127.60 168.85 137.50 170.28 147.22 C 169.48 149.65 168.77 152.96 165.96 153.76 C 163.79 154.17 162.46 152.21 161.02 150.98 C 158.95 148.83 156.16 147.67 153.51 146.44 C 152.65 137.16 147.63 128.52 148.74 119.03 Z" />
<path fill="#caeaf2" opacity="1.00" d=" M 97.96 123.17 C 101.04 116.71 110.73 112.48 116.40 118.11 C 114.67 118.58 112.07 118.20 111.27 120.25 C 110.79 123.40 112.56 126.25 114.19 128.77 C 117.08 132.96 119.85 137.38 123.96 140.51 C 125.42 132.55 120.08 126.03 117.55 118.98 C 121.44 122.48 123.44 127.45 125.49 132.14 C 128.03 138.51 130.84 145.05 130.85 152.03 C 126.62 157.00 122.16 162.50 115.87 164.89 C 109.14 167.22 103.05 162.33 96.67 161.06 C 92.89 148.87 91.87 134.77 97.96 123.17 M 106.78 139.18 C 103.60 145.29 108.29 155.38 115.95 153.74 C 122.31 151.82 123.21 142.03 118.62 137.91 C 118.45 137.65 118.12 137.15 117.95 136.90 C 114.90 133.06 108.27 134.65 106.78 139.18 M 123.91 143.37 C 123.63 145.90 122.61 149.43 124.96 151.27 C 127.58 149.66 126.33 144.95 123.91 143.37 Z" />
</g>
<g id="#ffbf41ff">
<path fill="#ffbf41" opacity="1.00" d=" M 183.58 112.30 C 184.91 112.48 186.25 112.65 187.59 112.83 C 188.18 117.26 189.26 121.60 189.96 126.00 C 191.96 135.76 189.11 145.54 188.02 155.23 C 184.43 156.88 181.27 159.27 177.81 161.14 C 176.26 162.27 174.54 160.78 173.04 160.39 C 174.36 158.54 175.84 156.83 177.36 155.16 C 177.64 154.84 178.18 154.21 178.46 153.90 C 182.73 143.95 181.89 132.56 179.76 122.19 C 180.33 122.30 181.46 122.53 182.02 122.64 C 181.81 120.64 181.61 118.65 181.31 116.66 C 182.15 117.01 183.00 117.36 183.84 117.70 C 183.75 115.90 183.66 114.10 183.58 112.30 Z" />
</g>
<g id="#e1a536ff">
<path fill="#e1a536" opacity="1.00" d=" M 34.84 123.43 C 37.42 123.26 39.86 122.35 42.13 121.13 C 42.16 122.34 42.23 123.55 42.31 124.77 C 42.58 128.40 42.86 132.02 43.11 135.66 C 43.16 137.53 43.16 139.41 43.23 141.29 C 41.92 139.79 40.82 137.83 38.88 137.11 C 37.32 137.14 35.78 137.40 34.24 137.60 C 34.17 132.87 34.15 128.12 34.84 123.43 Z" />
</g>
<g id="#fff522ff">
<path fill="#fff522" opacity="1.00" d=" M 53.68 121.64 C 55.24 121.30 56.85 121.28 58.43 121.17 C 59.19 123.53 60.00 125.88 60.67 128.27 C 60.22 132.39 60.64 137.31 57.64 140.57 C 53.70 141.97 52.04 137.97 51.19 134.94 C 51.18 130.44 51.15 125.56 53.68 121.64 Z" />
</g>
<g id="#d69b36ff">
<path fill="#d69b36" opacity="1.00" d=" M 195.52 142.42 C 201.68 134.66 210.21 128.99 215.61 120.58 C 217.27 132.80 216.93 145.44 213.42 157.32 C 213.24 156.63 212.87 155.24 212.68 154.55 C 211.21 156.27 209.80 158.07 208.86 160.14 C 207.33 152.52 197.64 151.40 191.52 153.75 C 191.34 149.59 193.13 145.72 195.52 142.42 Z" />
</g>
<g id="#954603ff">
<path fill="#954603" opacity="1.00" d=" M 217.39 120.00 C 220.10 125.51 219.69 131.82 220.41 137.76 C 221.48 135.95 222.55 134.15 223.64 132.35 C 223.78 146.58 221.09 160.95 215.05 173.87 C 212.86 175.12 211.04 176.87 209.49 178.84 C 209.22 177.38 208.96 175.92 208.69 174.47 C 216.97 157.69 219.66 138.51 217.39 120.00 Z" />
</g>
<g id="#ffc717ff">
<path fill="#ffc717" opacity="1.00" d=" M 61.41 121.63 C 62.20 123.00 63.03 124.36 63.56 125.85 C 63.34 129.80 62.40 133.69 62.40 137.66 C 60.91 140.11 59.62 142.73 57.70 144.89 C 54.73 146.59 52.18 143.28 49.79 141.96 C 49.45 138.99 49.05 136.02 48.44 133.10 C 49.35 133.71 50.27 134.32 51.19 134.94 C 52.04 137.97 53.70 141.97 57.64 140.57 C 60.64 137.31 60.22 132.39 60.67 128.27 C 60.86 126.05 61.13 123.84 61.41 121.63 Z" />
</g>
<g id="#be700fff">
<path fill="#be700f" opacity="1.00" d=" M 26.74 128.10 C 27.93 125.73 30.22 124.38 32.55 123.32 C 32.06 128.97 32.07 134.65 32.22 140.31 C 31.64 139.24 31.04 138.17 30.43 137.12 C 29.00 139.67 27.83 142.37 27.30 145.26 C 26.68 139.56 26.38 133.82 26.74 128.10 Z" />
</g>
<g id="#ffb12cff">
<path fill="#ffb12c" opacity="1.00" d=" M 42.31 124.77 C 43.36 124.64 44.40 124.57 45.45 124.53 C 46.85 127.23 47.69 130.17 48.44 133.10 C 49.05 136.02 49.45 138.99 49.79 141.96 C 46.80 140.81 44.85 138.20 43.11 135.66 C 42.86 132.02 42.58 128.40 42.31 124.77 Z" />
</g>
<g id="#ff9e0eff">
<path fill="#ff9e0e" opacity="1.00" d=" M 43.11 135.66 C 44.85 138.20 46.80 140.81 49.79 141.96 C 52.18 143.28 54.73 146.59 57.70 144.89 C 59.62 142.73 60.91 140.11 62.40 137.66 C 62.36 141.76 62.79 145.85 63.62 149.86 C 63.08 155.44 57.42 159.99 51.88 157.99 C 48.43 153.69 45.66 148.89 43.39 143.87 C 43.35 143.23 43.27 141.93 43.23 141.29 C 43.16 139.41 43.16 137.53 43.11 135.66 Z" />
</g>
<g id="#a55807ff">
<path fill="#a55807" opacity="1.00" d=" M 27.30 145.26 C 27.83 142.37 29.00 139.67 30.43 137.12 C 31.04 138.17 31.64 139.24 32.22 140.31 C 32.66 144.96 33.30 149.58 34.29 154.14 C 32.63 154.88 30.97 155.63 29.30 156.37 C 28.43 152.71 27.71 149.00 27.30 145.26 Z" />
</g>
<g id="#d59727ff">
<path fill="#d59727" opacity="1.00" d=" M 34.24 137.60 C 35.78 137.40 37.32 137.14 38.88 137.11 C 40.82 137.83 41.92 139.79 43.23 141.29 C 43.27 141.93 43.35 143.23 43.39 143.87 C 43.30 145.50 43.16 147.13 43.02 148.76 C 40.47 148.21 37.90 147.76 35.30 147.54 C 34.82 144.24 34.35 140.93 34.24 137.60 Z" />
</g>
<g id="#ca8817ff">
<path fill="#ca8817" opacity="1.00" d=" M 43.39 143.87 C 45.66 148.89 48.43 153.69 51.88 157.99 C 50.34 157.75 48.80 157.42 47.24 157.41 C 45.88 158.40 45.32 160.12 44.44 161.50 C 43.43 162.16 42.42 162.82 41.41 163.47 C 40.33 163.17 39.26 162.87 38.19 162.57 C 37.60 160.81 37.08 159.02 36.69 157.20 C 36.19 153.99 35.76 150.76 35.30 147.54 C 37.90 147.76 40.47 148.21 43.02 148.76 C 43.16 147.13 43.30 145.50 43.39 143.87 Z" />
</g>
<g id="#f7fcfdff">
<path fill="#f7fcfd" opacity="1.00" d=" M 123.91 143.37 C 126.33 144.95 127.58 149.66 124.96 151.27 C 122.61 149.43 123.63 145.90 123.91 143.37 Z" />
</g>
<g id="#d3d3d3ff">
<path fill="#d3d3d3" opacity="1.00" d=" M 110.05 149.41 C 111.64 148.92 112.18 149.51 111.67 151.19 C 110.07 151.68 109.53 151.09 110.05 149.41 Z" />
</g>
<g id="#d17a03ff">
<path fill="#d17a03" opacity="1.00" d=" M 63.62 149.86 C 64.53 153.59 65.76 157.25 67.42 160.72 C 64.60 164.01 62.23 169.96 56.95 168.94 C 52.19 167.66 48.66 163.87 44.44 161.50 C 45.32 160.12 45.88 158.40 47.24 157.41 C 48.80 157.42 50.34 157.75 51.88 157.99 C 57.42 159.99 63.08 155.44 63.62 149.86 Z" />
</g>
<g id="#fdc041ff">
<path fill="#fdc041" opacity="1.00" d=" M 172.18 150.09 C 172.98 151.31 173.77 152.54 174.54 153.77 C 172.30 156.33 170.38 159.38 171.40 162.93 C 170.74 163.38 169.44 164.28 168.79 164.73 C 165.77 162.89 162.92 160.43 163.03 156.56 C 167.59 157.66 170.66 153.85 172.18 150.09 Z" />
<path fill="#fdc041" opacity="1.00" d=" M 134.17 153.25 L 134.25 153.25 C 138.27 153.59 142.48 153.81 146.09 155.82 C 152.45 159.10 156.95 165.10 159.68 171.59 C 154.73 173.93 149.56 175.70 144.36 177.35 C 140.04 177.87 135.71 178.23 131.41 178.88 C 135.29 180.45 139.53 179.96 143.58 179.53 C 155.33 178.18 166.72 174.44 177.25 169.11 C 184.12 165.59 190.32 160.43 197.99 158.70 C 200.34 157.98 202.64 158.96 204.81 159.78 C 204.90 161.89 202.26 161.05 200.94 161.43 C 195.23 161.37 190.99 165.75 186.23 168.26 C 174.02 175.01 160.92 180.81 146.93 182.39 C 139.89 183.27 132.69 183.88 125.69 182.43 C 117.68 180.94 110.26 177.27 102.20 175.99 C 98.23 175.20 94.68 172.78 92.33 169.50 C 91.16 167.54 91.62 165.44 92.61 163.53 C 100.66 163.90 107.75 169.90 115.95 168.26 C 123.86 166.03 128.74 158.87 134.17 153.25 M 136.89 162.27 C 137.88 164.26 141.09 166.56 142.87 164.20 C 141.08 163.00 139.06 162.28 136.89 162.27 Z" />
<path fill="#fdc041" opacity="1.00" d=" M 174.24 189.21 C 174.70 188.57 175.62 187.30 176.08 186.66 C 177.73 191.37 180.32 195.68 182.10 200.31 C 182.28 205.44 185.61 209.83 185.73 214.91 C 185.73 219.48 181.40 222.14 177.66 223.68 C 166.83 228.19 154.81 230.66 143.11 228.64 L 142.89 228.62 C 138.38 223.96 136.36 217.61 132.22 212.68 C 128.17 207.69 123.46 203.29 119.23 198.46 C 124.23 199.91 127.79 203.96 132.30 206.36 C 138.77 212.59 142.01 222.56 150.90 226.08 C 158.58 228.08 166.37 225.22 173.84 223.54 C 178.47 222.46 184.47 219.55 184.16 213.99 C 182.02 205.31 177.28 197.57 174.24 189.21 Z" />
</g>
<g id="#8a3c01ff">
<path fill="#8a3c01" opacity="1.00" d=" M 29.30 156.37 C 30.97 155.63 32.63 154.88 34.29 154.14 C 39.15 175.40 51.64 194.96 69.18 207.96 C 67.67 209.07 66.16 210.19 64.65 211.31 C 47.11 197.67 34.27 178.07 29.30 156.37 Z" />
</g>
<g id="#c28219ff">
<path fill="#c28219" opacity="1.00" d=" M 208.86 160.14 C 209.80 158.07 211.21 156.27 212.68 154.55 C 212.87 155.24 213.24 156.63 213.42 157.32 C 208.90 174.46 199.17 190.10 185.99 201.94 C 184.49 199.22 183.09 196.44 181.75 193.64 C 186.86 186.44 190.21 177.90 196.85 171.88 C 196.29 171.75 195.15 171.50 194.59 171.37 C 198.37 170.13 202.49 169.25 205.61 166.61 C 207.53 164.99 208.11 162.43 208.86 160.14 Z" />
</g>
<g id="#c37c31ff">
<path fill="#c37c31" opacity="1.00" d=" M 205.10 159.31 C 206.43 160.20 205.46 161.91 204.93 163.00 C 203.71 165.16 201.20 165.97 198.97 166.66 C 181.61 171.08 166.81 182.47 149.07 185.74 C 136.34 188.29 123.24 185.34 111.41 180.51 C 108.27 179.16 104.93 178.13 102.20 175.99 C 110.26 177.27 117.68 180.94 125.69 182.43 C 132.69 183.88 139.89 183.27 146.93 182.39 C 160.92 180.81 174.02 175.01 186.23 168.26 C 190.99 165.75 195.23 161.37 200.94 161.43 C 202.26 161.05 204.90 161.89 204.81 159.78 L 205.10 159.31 Z" />
<path fill="#c37c31" opacity="1.00" d=" M 86.67 166.64 C 87.95 164.60 90.57 164.35 92.61 163.53 C 91.62 165.44 91.16 167.54 92.33 169.50 C 92.43 170.88 92.30 172.45 93.33 173.55 C 96.14 177.38 100.79 179.07 104.91 181.06 C 109.44 182.88 112.30 187.07 116.16 189.86 C 122.03 194.77 128.96 199.20 132.30 206.36 C 127.79 203.96 124.23 199.91 119.23 198.46 L 118.97 198.36 C 113.83 193.58 108.49 188.96 102.36 185.48 C 97.47 182.56 91.67 180.63 88.11 175.92 C 86.22 173.35 84.74 169.59 86.67 166.64 Z" />
</g>
<g id="#bb790dff">
<path fill="#bb790d" opacity="1.00" d=" M 67.42 160.72 C 70.10 166.58 75.20 170.82 78.22 176.46 C 71.53 182.92 64.72 189.30 58.65 196.36 C 49.50 186.73 42.41 175.18 38.19 162.57 C 39.26 162.87 40.33 163.17 41.41 163.47 C 42.42 162.82 43.43 162.16 44.44 161.50 C 48.66 163.87 52.19 167.66 56.95 168.94 C 62.23 169.96 64.60 164.01 67.42 160.72 Z" />
</g>
<g id="#d08e23ff">
<path fill="#d08e23" opacity="1.00" d=" M 187.47 173.96 C 189.78 172.95 192.14 172.03 194.59 171.37 C 195.15 171.50 196.29 171.75 196.85 171.88 C 190.21 177.90 186.86 186.44 181.75 193.64 C 181.08 192.23 180.43 190.81 179.82 189.39 C 182.41 184.26 186.25 179.68 187.47 173.96 Z" />
</g>
<g id="#803500ff">
<path fill="#803500" opacity="1.00" d=" M 209.49 178.84 C 211.04 176.87 212.86 175.12 215.05 173.87 C 210.82 183.43 205.01 192.27 197.97 199.98 C 195.28 202.94 192.23 205.56 189.56 208.53 C 188.74 206.99 187.93 205.45 187.14 203.91 C 190.69 200.83 194.53 197.84 196.62 193.50 C 200.96 187.37 205.52 181.33 208.69 174.47 C 208.96 175.92 209.22 177.38 209.49 178.84 Z" />
</g>
<g id="#e89a29ff">
<path fill="#e89a29" opacity="1.00" d=" M 176.02 179.11 C 179.82 177.35 183.62 175.61 187.47 173.96 C 186.25 179.68 182.41 184.26 179.82 189.39 C 178.38 186.03 177.15 182.58 176.02 179.11 Z" />
</g>
<g id="#c68820ff">
<path fill="#c68820" opacity="1.00" d=" M 58.65 196.36 C 64.72 189.30 71.53 182.92 78.22 176.46 C 80.43 181.90 84.71 186.24 90.11 188.56 C 83.80 194.79 77.26 200.84 71.52 207.63 C 66.97 204.19 62.52 200.56 58.65 196.36 Z" />
</g>
<g id="#c77f32ff">
<path fill="#c77f32" opacity="1.00" d=" M 171.91 180.92 C 172.70 180.71 173.48 180.51 174.27 180.30 C 174.84 182.43 175.44 184.55 176.08 186.66 C 175.62 187.30 174.70 188.57 174.24 189.21 C 173.09 186.56 172.35 183.76 171.91 180.92 Z" />
</g>
<g id="#9d6939ff">
<path fill="#9d6939" opacity="1.00" d=" M 159.50 186.16 C 162.79 185.10 166.01 183.83 169.18 182.44 C 169.49 183.73 169.79 185.02 170.11 186.31 C 166.26 187.16 162.67 188.83 159.43 191.05 C 159.44 189.42 159.46 187.79 159.50 186.16 Z" />
<path fill="#9d6939" opacity="1.00" d=" M 116.21 185.98 C 124.96 188.19 133.85 190.25 142.95 189.79 C 145.62 192.02 148.28 194.25 150.93 196.50 C 147.56 203.82 148.30 212.72 152.38 219.59 C 154.29 223.00 158.32 224.02 161.97 223.45 C 156.77 224.04 150.57 224.65 146.68 220.36 C 141.03 214.49 137.47 206.99 132.15 200.83 C 127.77 194.93 121.66 190.78 116.21 185.98 Z" />
</g>
<g id="#db9e9cff">
<path fill="#db9e9c" opacity="1.00" d=" M 145.60 189.65 C 149.68 188.99 153.71 188.12 157.69 186.99 C 157.76 187.48 157.91 188.47 157.98 188.96 C 155.04 191.24 155.43 195.15 155.43 198.46 C 152.07 195.62 148.45 193.03 145.60 189.65 Z" />
</g>
<g id="#f7961dff">
<path fill="#f7961d" opacity="1.00" d=" M 159.43 191.05 C 162.67 188.83 166.26 187.16 170.11 186.31 C 172.85 195.52 178.03 203.78 180.95 212.90 C 182.04 215.72 179.76 218.51 177.15 219.31 C 172.19 221.02 167.09 222.35 161.97 223.45 C 158.32 224.02 154.29 223.00 152.38 219.59 C 148.30 212.72 147.56 203.82 150.93 196.50 C 153.73 198.74 155.96 201.76 159.33 203.20 C 159.68 199.16 159.68 195.10 159.43 191.05 Z" />
</g>
<g id="#d49a34ff">
<path fill="#d49a34" opacity="1.00" d=" M 71.52 207.63 C 77.26 200.84 83.80 194.79 90.11 188.56 C 94.29 189.60 98.64 188.68 102.84 189.38 C 107.73 191.12 111.50 194.88 115.24 198.32 C 107.93 205.19 101.09 212.53 93.83 219.45 C 85.95 216.44 78.27 212.72 71.52 207.63 Z" />
</g>
<g id="#e3aeaaff">
<path fill="#e3aeaa" opacity="1.00" d=" M 155.43 198.46 C 155.43 195.15 155.04 191.24 157.98 188.96 C 158.32 192.89 158.25 196.85 158.11 200.80 C 157.27 199.99 156.06 199.41 155.43 198.46 Z" />
</g>
<g id="#dfa744ff">
<path fill="#dfa744" opacity="1.00" d=" M 93.83 219.45 C 101.09 212.53 107.93 205.19 115.24 198.32 C 119.05 201.99 122.79 205.75 126.36 209.68 C 121.80 213.59 117.54 217.83 113.41 222.18 C 113.53 222.71 113.77 223.77 113.88 224.31 C 107.04 223.46 100.30 221.81 93.83 219.45 Z" />
</g>
<g id="#ae5b0aff">
<path fill="#ae5b0a" opacity="1.00" d=" M 69.18 207.96 C 75.16 212.27 81.49 216.13 88.30 218.97 C 87.13 220.46 85.96 221.95 84.79 223.45 C 77.67 220.14 70.78 216.24 64.65 211.31 C 66.16 210.19 67.67 209.07 69.18 207.96 Z" />
</g>
<g id="#d89e39ff">
<path fill="#d89e39" opacity="1.00" d=" M 126.36 209.68 C 130.49 214.05 133.66 219.19 136.69 224.36 C 129.11 225.23 121.46 225.26 113.88 224.31 C 113.77 223.77 113.53 222.71 113.41 222.18 C 117.54 217.83 121.80 213.59 126.36 209.68 Z" />
</g>
<g id="#c36c11ff">
<path fill="#c36c11" opacity="1.00" d=" M 88.30 218.97 C 93.66 221.20 99.20 223.01 104.86 224.31 C 104.74 224.71 104.50 225.51 104.38 225.90 C 107.03 226.39 109.69 226.88 112.35 227.36 C 112.05 228.62 111.74 229.89 111.45 231.15 C 102.27 229.84 93.25 227.26 84.79 223.45 C 85.96 221.95 87.13 220.46 88.30 218.97 Z" />
</g>
<g id="#b05c0aff">
<path fill="#b05c0a" opacity="1.00" d=" M 104.38 225.90 C 104.50 225.51 104.74 224.71 104.86 224.31 C 108.97 225.24 113.16 225.70 117.31 226.42 C 122.35 229.30 128.29 228.19 133.81 228.31 C 132.48 229.11 131.16 229.91 129.84 230.72 C 130.73 230.96 132.51 231.44 133.39 231.68 C 126.09 232.52 118.72 232.01 111.45 231.15 C 111.74 229.89 112.05 228.62 112.35 227.36 C 109.69 226.88 107.03 226.39 104.38 225.90 Z" />
</g>
<g id="#9f4e05ff">
<path fill="#9f4e05" opacity="1.00" d=" M 137.55 225.61 C 138.86 227.47 140.29 229.27 141.89 230.91 C 139.05 231.07 136.23 231.48 133.39 231.68 C 132.51 231.44 130.73 230.96 129.84 230.72 C 131.16 229.91 132.48 229.11 133.81 228.31 C 128.29 228.19 122.35 229.30 117.31 226.42 C 124.06 226.66 130.86 226.71 137.55 225.61 Z" />
</g>
</svg>
