<?xml version="1.0" encoding="UTF-8" ?>
<!DOCTYPE svg PUBLIC "-//W3C//DTD SVG 1.1//EN" "http://www.w3.org/Graphics/SVG/1.1/DTD/svg11.dtd">
<svg width="250pt" height="250pt" viewBox="0 0 250 250" version="1.1" xmlns="http://www.w3.org/2000/svg">
<g id="#ffffffff">
<path fill="#ffffff" opacity="1.00" d=" M 0.00 0.00 L 250.00 0.00 L 250.00 250.00 L 0.00 250.00 L 0.00 0.00 M 117.12 34.20 C 95.22 36.12 74.63 48.02 61.36 65.44 C 50.87 79.24 44.84 96.54 45.18 113.93 C 45.19 148.15 45.13 182.36 45.21 216.58 C 52.43 216.42 59.37 212.22 62.74 205.81 C 63.26 204.62 63.78 203.42 64.29 202.23 C 64.45 200.80 64.68 199.37 65.17 198.02 C 65.35 169.02 65.17 140.01 65.26 111.01 C 65.29 108.61 65.47 106.21 65.72 103.81 C 66.27 101.95 66.64 100.04 67.11 98.15 C 67.61 96.07 68.25 94.02 69.13 92.07 C 74.47 78.04 85.40 66.33 98.90 59.83 C 103.65 57.49 108.74 56.01 113.89 54.85 C 118.97 54.20 124.07 53.28 129.22 53.82 C 134.22 54.63 139.26 55.27 144.09 56.88 C 146.48 57.67 148.75 58.75 151.07 59.72 C 151.59 59.97 152.63 60.48 153.15 60.73 C 164.85 66.90 174.48 77.00 179.89 89.09 C 180.61 90.73 181.28 92.40 181.93 94.08 C 182.27 95.10 182.61 96.12 182.94 97.14 C 183.30 98.45 183.57 99.78 183.89 101.11 C 184.77 103.79 184.65 106.64 184.73 109.43 L 185.33 109.55 C 185.14 113.29 185.75 117.12 184.77 120.78 C 184.56 122.83 184.45 124.91 183.83 126.90 C 183.35 129.26 182.71 131.60 181.89 133.87 C 181.05 135.96 180.19 138.03 179.32 140.10 C 173.81 151.30 164.83 160.76 153.84 166.71 C 139.22 174.88 121.10 176.04 105.32 170.73 C 105.19 151.82 105.29 132.90 105.27 113.98 C 105.21 110.91 105.64 107.80 107.12 105.07 C 111.76 95.22 125.00 90.79 134.52 96.26 C 139.48 98.62 142.35 103.39 144.77 108.04 C 142.63 109.57 141.16 111.77 139.69 113.90 C 138.93 115.85 138.37 117.87 137.76 119.88 C 137.73 121.30 137.74 122.73 137.76 124.16 C 138.24 125.75 138.69 127.36 139.18 128.96 C 141.22 133.68 145.29 137.24 150.07 139.02 C 153.61 139.91 157.38 139.94 160.91 138.98 C 168.92 136.24 174.63 127.47 172.83 119.03 C 172.13 114.04 168.87 109.75 164.73 107.02 C 163.36 100.64 160.84 94.42 156.71 89.31 C 150.18 80.59 139.88 75.21 129.16 73.85 C 112.15 72.07 94.79 82.38 88.32 98.21 C 85.31 104.68 84.87 111.91 85.11 118.93 C 85.14 138.26 85.12 157.59 85.03 176.92 C 85.12 179.29 84.62 181.77 85.66 184.02 C 88.19 184.83 90.54 186.10 92.89 187.32 C 94.55 187.92 96.18 188.58 97.81 189.27 C 101.15 190.30 104.50 191.26 107.88 192.17 C 109.55 192.43 111.24 192.68 112.88 193.16 C 120.94 194.00 129.10 193.98 137.17 193.19 C 140.14 192.44 143.18 192.02 146.13 191.18 C 147.70 190.66 149.30 190.25 150.88 189.74 C 152.59 189.20 154.29 188.59 155.92 187.84 C 180.04 178.05 198.41 155.67 203.54 130.18 C 206.94 112.98 204.95 94.65 197.20 78.85 C 187.40 58.69 168.84 43.10 147.33 36.84 C 137.53 34.31 127.21 32.67 117.12 34.20 Z" />
</g>
<g id="#000000ff">
<path fill="#000000" opacity="1.00" d=" M 117.12 34.20 C 127.21 32.67 137.53 34.31 147.33 36.84 C 168.84 43.10 187.40 58.69 197.20 78.85 C 204.95 94.65 206.94 112.98 203.54 130.18 C 198.41 155.67 180.04 178.05 155.92 187.84 C 154.29 188.59 152.59 189.20 150.88 189.74 C 149.30 190.25 147.70 190.66 146.13 191.18 C 143.18 192.02 140.14 192.44 137.17 193.19 C 129.10 193.98 120.94 194.00 112.88 193.16 C 111.24 192.68 109.55 192.43 107.88 192.17 C 104.50 191.26 101.15 190.30 97.81 189.27 C 96.18 188.58 94.55 187.92 92.89 187.32 C 90.54 186.10 88.19 184.83 85.66 184.02 C 84.62 181.77 85.12 179.29 85.03 176.92 C 85.12 157.59 85.14 138.26 85.11 118.93 C 84.87 111.91 85.31 104.68 88.32 98.21 C 94.79 82.38 112.15 72.07 129.16 73.85 C 139.88 75.21 150.18 80.59 156.71 89.31 C 160.84 94.42 163.36 100.64 164.73 107.02 C 168.87 109.75 172.13 114.04 172.83 119.03 C 174.63 127.47 168.92 136.24 160.91 138.98 C 157.38 139.94 153.61 139.91 150.07 139.02 C 145.29 137.24 141.22 133.68 139.18 128.96 C 138.69 127.36 138.24 125.75 137.76 124.16 C 137.74 122.73 137.73 121.30 137.76 119.88 C 138.37 117.87 138.93 115.85 139.69 113.90 C 141.16 111.77 142.63 109.57 144.77 108.04 C 142.35 103.39 139.48 98.62 134.52 96.26 C 125.00 90.79 111.76 95.22 107.12 105.07 C 105.64 107.80 105.21 110.91 105.27 113.98 C 105.29 132.90 105.19 151.82 105.32 170.73 C 121.10 176.04 139.22 174.88 153.84 166.71 C 164.83 160.76 173.81 151.30 179.32 140.10 C 180.19 138.03 181.05 135.96 181.89 133.87 C 182.71 131.60 183.35 129.26 183.83 126.90 C 184.45 124.91 184.56 122.83 184.77 120.78 C 185.75 117.12 185.14 113.29 185.33 109.55 L 184.73 109.43 C 184.65 106.64 184.77 103.79 183.89 101.11 C 183.57 99.78 183.30 98.45 182.94 97.14 C 182.61 96.12 182.27 95.10 181.93 94.08 C 181.28 92.40 180.61 90.73 179.89 89.09 C 174.48 77.00 164.85 66.90 153.15 60.73 C 152.63 60.48 151.59 59.97 151.07 59.72 C 148.75 58.75 146.48 57.67 144.09 56.88 C 139.26 55.27 134.22 54.63 129.22 53.82 C 124.07 53.28 118.97 54.20 113.89 54.85 C 108.74 56.01 103.65 57.49 98.90 59.83 C 85.40 66.33 74.47 78.04 69.13 92.07 C 68.25 94.02 67.61 96.07 67.11 98.15 C 66.64 100.04 66.27 101.95 65.72 103.81 C 65.47 106.21 65.29 108.61 65.26 111.01 C 65.17 140.01 65.35 169.02 65.17 198.02 C 64.68 199.37 64.45 200.80 64.29 202.23 C 63.78 203.42 63.26 204.62 62.74 205.81 C 59.37 212.22 52.43 216.42 45.21 216.58 C 45.13 182.36 45.19 148.15 45.18 113.93 C 44.84 96.54 50.87 79.24 61.36 65.44 C 74.63 48.02 95.22 36.12 117.12 34.20 Z" />
</g>
</svg>
