<?xml version="1.0" encoding="UTF-8" ?>
<!DOCTYPE svg PUBLIC "-//W3C//DTD SVG 1.1//EN" "http://www.w3.org/Graphics/SVG/1.1/DTD/svg11.dtd">
<svg width="250pt" height="250pt" viewBox="0 0 250 250" version="1.1" xmlns="http://www.w3.org/2000/svg">
<g id="#fdfefdff">
<path fill="#fdfefd" opacity="1.00" d=" M 0.00 0.00 L 250.00 0.00 L 250.00 250.00 L 129.54 250.00 C 152.55 241.52 172.24 226.12 193.98 214.94 C 210.00 205.46 230.04 197.77 236.57 178.58 C 237.47 143.45 236.94 108.25 236.85 73.11 C 233.05 59.96 221.89 50.82 210.07 44.92 C 185.83 31.26 162.07 16.72 137.64 3.42 C 123.94 -3.20 109.35 4.27 97.77 11.79 C 80.06 22.56 61.81 32.42 43.88 42.83 C 30.19 50.05 14.85 60.23 13.15 77.08 C 12.76 107.06 13.14 137.04 12.97 167.02 C 11.31 182.54 23.01 196.17 35.99 203.01 C 61.19 217.40 86.15 232.23 111.45 246.45 C 114.68 247.93 118.14 248.81 121.48 250.00 L 0.00 250.00 L 0.00 0.00 Z" />
<path fill="#fdfefd" opacity="1.00" d=" M 119.40 51.51 C 146.39 47.52 173.77 68.94 177.23 95.87 C 180.97 113.59 172.40 131.29 160.12 143.67 C 164.67 145.35 172.19 149.90 167.27 155.29 C 150.24 167.11 127.63 163.50 108.11 163.79 C 99.15 161.89 88.35 161.38 82.20 153.69 C 79.86 147.52 87.13 145.87 90.93 143.72 C 77.19 130.37 69.15 109.79 74.77 90.87 C 79.76 70.27 98.33 53.88 119.40 51.51 M 118.39 63.49 C 98.19 66.32 83.38 86.08 84.02 106.18 C 87.69 103.60 86.07 97.96 88.40 94.34 C 94.76 79.01 109.04 68.08 124.89 63.93 C 129.20 61.73 117.58 63.90 118.39 63.49 Z" />
<path fill="#fdfefd" opacity="1.00" d=" M 79.29 158.00 C 92.99 167.77 110.71 168.83 127.00 169.06 C 142.38 169.04 158.89 167.00 171.67 158.03 C 172.80 165.93 181.86 176.66 172.73 182.72 C 152.00 192.94 127.74 192.22 105.30 190.69 C 94.54 188.20 80.21 187.43 73.28 177.71 C 74.29 171.15 77.85 164.71 79.29 158.00 Z" />
</g>
<g id="#40763aff">
<path fill="#40763a" opacity="1.00" d=" M 97.77 11.79 C 109.35 4.27 123.94 -3.20 137.64 3.42 C 162.07 16.72 185.83 31.26 210.07 44.92 C 221.89 50.82 233.05 59.96 236.85 73.11 C 236.94 108.25 237.47 143.45 236.57 178.58 C 230.04 197.77 210.00 205.46 193.98 214.94 C 172.24 226.12 152.55 241.52 129.54 250.00 L 121.48 250.00 C 118.14 248.81 114.68 247.93 111.45 246.45 C 86.15 232.23 61.19 217.40 35.99 203.01 C 23.01 196.17 11.31 182.54 12.97 167.02 C 13.14 137.04 12.76 107.06 13.15 77.08 C 14.85 60.23 30.19 50.05 43.88 42.83 C 61.81 32.42 80.06 22.56 97.77 11.79 M 119.40 51.51 C 98.33 53.88 79.76 70.27 74.77 90.87 C 69.15 109.79 77.19 130.37 90.93 143.72 C 87.13 145.87 79.86 147.52 82.20 153.69 C 88.35 161.38 99.15 161.89 108.11 163.79 C 127.63 163.50 150.24 167.11 167.27 155.29 C 172.19 149.90 164.67 145.35 160.12 143.67 C 172.40 131.29 180.97 113.59 177.23 95.87 C 173.77 68.94 146.39 47.52 119.40 51.51 M 79.29 158.00 C 77.85 164.71 74.29 171.15 73.28 177.71 C 80.21 187.43 94.54 188.20 105.30 190.69 C 127.74 192.22 152.00 192.94 172.73 182.72 C 181.86 176.66 172.80 165.93 171.67 158.03 C 158.89 167.00 142.38 169.04 127.00 169.06 C 110.71 168.83 92.99 167.77 79.29 158.00 Z" />
<path fill="#40763a" opacity="1.00" d=" M 118.39 63.49 C 117.58 63.90 129.20 61.73 124.89 63.93 C 109.04 68.08 94.76 79.01 88.40 94.34 C 86.07 97.96 87.69 103.60 84.02 106.18 C 83.38 86.08 98.19 66.32 118.39 63.49 Z" />
</g>
</svg>
