<?xml version="1.0" encoding="UTF-8" ?>
<!DOCTYPE svg PUBLIC "-//W3C//DTD SVG 1.1//EN" "http://www.w3.org/Graphics/SVG/1.1/DTD/svg11.dtd">
<svg width="250pt" height="215pt" viewBox="0 0 250 215" version="1.1" xmlns="http://www.w3.org/2000/svg">
<g id="#feffffff">
<path fill="#feffff" opacity="1.00" d=" M 0.00 0.00 L 250.00 0.00 L 250.00 215.00 L 0.00 215.00 L 0.00 0.00 M 75.72 9.78 C 72.73 11.79 70.14 15.22 70.51 19.01 C 70.61 32.35 70.54 45.69 70.54 59.02 C 70.36 62.96 73.75 67.14 77.93 66.56 C 127.31 66.61 176.69 66.55 226.07 66.59 C 229.63 67.28 232.38 65.11 234.44 62.48 C 234.65 47.65 234.47 32.81 234.55 17.97 C 235.01 13.49 230.49 8.98 226.00 9.50 C 179.01 9.54 132.02 9.51 85.03 9.52 C 81.93 9.58 78.79 9.26 75.72 9.78 M 12.26 80.64 C 8.68 84.47 8.86 90.11 8.66 95.00 C 9.01 107.87 7.89 120.81 9.80 133.59 C 11.46 135.66 14.33 136.51 16.92 136.45 C 29.96 136.45 42.99 136.39 56.03 136.47 C 58.04 136.44 60.12 136.33 61.96 135.40 C 65.31 134.22 65.17 129.92 65.39 127.01 C 65.34 114.30 65.42 101.59 65.36 88.88 C 65.10 85.63 63.75 81.31 59.95 80.86 C 49.80 78.61 39.29 80.16 28.98 79.69 C 23.37 79.19 17.86 80.77 12.26 80.64 M 75.82 80.95 C 73.80 82.76 71.46 84.99 71.58 87.93 C 71.60 101.97 71.58 116.02 71.59 130.06 C 71.28 133.84 75.48 136.68 78.96 136.45 C 113.32 136.42 147.69 136.44 182.05 136.44 C 185.10 136.73 187.21 134.28 189.36 132.54 C 189.49 118.03 189.34 103.51 189.44 89.00 C 189.79 84.03 184.75 79.73 180.00 79.69 C 147.68 79.68 115.35 79.75 83.02 79.66 C 80.61 79.77 77.76 79.14 75.82 80.95 M 75.48 154.48 C 75.06 170.06 75.28 185.66 75.35 201.23 C 74.93 203.99 78.11 203.67 79.88 203.73 C 93.29 203.60 106.70 203.78 120.11 203.65 C 121.93 203.85 123.97 202.53 123.66 200.49 C 123.82 186.63 123.64 172.77 123.74 158.90 C 123.58 157.27 124.34 153.97 121.59 154.39 C 106.22 154.32 90.84 154.16 75.48 154.48 Z" />
</g>
<g id="#aeecf4ff">
<path fill="#aeecf4" opacity="1.00" d=" M 75.72 9.78 C 78.79 9.26 81.93 9.58 85.03 9.52 C 132.02 9.51 179.01 9.54 226.00 9.50 C 230.49 8.98 235.01 13.49 234.55 17.97 C 234.47 32.81 234.65 47.65 234.44 62.48 C 232.38 65.11 229.63 67.28 226.07 66.59 C 176.69 66.55 127.31 66.61 77.93 66.56 C 73.75 67.14 70.36 62.96 70.54 59.02 C 70.54 45.69 70.61 32.35 70.51 19.01 C 70.14 15.22 72.73 11.79 75.72 9.78 M 77.56 12.79 C 75.41 14.03 73.52 16.30 73.65 18.91 C 73.59 30.94 73.71 42.97 73.60 55.00 C 73.57 58.22 73.92 62.17 76.91 64.08 C 79.51 64.88 82.33 64.38 85.02 64.50 C 129.66 64.47 174.30 64.49 218.94 64.49 C 222.02 64.44 225.13 64.74 228.18 64.23 C 230.63 62.74 231.60 59.73 231.47 56.99 C 231.47 44.31 231.45 31.62 231.48 18.93 C 231.81 15.57 228.46 12.16 225.07 12.56 C 179.04 12.63 133.00 12.57 86.97 12.59 C 83.83 12.65 80.67 12.33 77.56 12.79 Z" />
<path fill="#aeecf4" opacity="1.00" d=" M 12.26 80.64 C 17.86 80.77 23.37 79.19 28.98 79.69 C 39.29 80.16 49.80 78.61 59.95 80.86 C 63.75 81.31 65.10 85.63 65.36 88.88 C 65.42 101.59 65.34 114.30 65.39 127.01 C 65.17 129.92 65.31 134.22 61.96 135.40 C 60.12 136.33 58.04 136.44 56.03 136.47 C 42.99 136.39 29.96 136.45 16.92 136.45 C 14.33 136.51 11.46 135.66 9.80 133.59 C 7.89 120.81 9.01 107.87 8.66 95.00 C 8.86 90.11 8.68 84.47 12.26 80.64 M 13.44 88.72 C 13.45 101.53 13.49 114.35 13.42 127.16 C 13.05 129.54 15.06 131.09 16.47 132.66 C 30.45 132.47 44.44 132.54 58.42 132.63 C 59.49 130.92 60.76 129.16 60.53 127.03 C 60.51 116.37 60.49 105.72 60.51 95.07 C 60.50 91.84 61.01 88.42 59.43 85.44 C 45.58 85.32 31.73 85.46 17.88 85.36 C 15.84 85.05 13.18 86.35 13.44 88.72 Z" />
<path fill="#aeecf4" opacity="1.00" d=" M 75.82 80.95 C 77.76 79.14 80.61 79.77 83.02 79.66 C 115.35 79.75 147.68 79.68 180.00 79.69 C 184.75 79.73 189.79 84.03 189.44 89.00 C 189.34 103.51 189.49 118.03 189.36 132.54 C 187.21 134.28 185.10 136.73 182.05 136.44 C 147.69 136.44 113.32 136.42 78.96 136.45 C 75.48 136.68 71.28 133.84 71.59 130.06 C 71.58 116.02 71.60 101.97 71.58 87.93 C 71.46 84.99 73.80 82.76 75.82 80.95 M 75.84 84.82 C 75.19 99.21 75.72 113.63 75.56 128.03 C 75.18 130.27 76.66 131.90 78.12 133.34 C 112.96 133.26 147.81 133.46 182.64 133.24 C 184.77 130.73 185.41 127.28 185.35 124.07 C 185.24 115.05 185.31 106.04 185.29 97.02 C 185.17 92.76 186.41 87.75 182.73 84.58 C 147.10 84.82 111.46 84.33 75.84 84.82 Z" />
<path fill="#aeecf4" opacity="1.00" d=" M 75.48 154.48 C 90.84 154.16 106.22 154.32 121.59 154.39 C 124.34 153.97 123.58 157.27 123.74 158.90 C 123.64 172.77 123.82 186.63 123.66 200.49 C 123.97 202.53 121.93 203.85 120.11 203.65 C 106.70 203.78 93.29 203.60 79.88 203.73 C 78.11 203.67 74.93 203.99 75.35 201.23 C 75.28 185.66 75.06 170.06 75.48 154.48 Z" />
</g>
<g id="#5fcadeff">
<path fill="#5fcade" opacity="1.00" d=" M 77.56 12.79 C 80.67 12.33 83.83 12.65 86.97 12.59 C 133.00 12.57 179.04 12.63 225.07 12.56 C 228.46 12.16 231.81 15.57 231.48 18.93 C 231.45 31.62 231.47 44.31 231.47 56.99 C 231.60 59.73 230.63 62.74 228.18 64.23 C 225.13 64.74 222.02 64.44 218.94 64.49 C 174.30 64.49 129.66 64.47 85.02 64.50 C 82.33 64.38 79.51 64.88 76.91 64.08 C 73.92 62.17 73.57 58.22 73.60 55.00 C 73.71 42.97 73.59 30.94 73.65 18.91 C 73.52 16.30 75.41 14.03 77.56 12.79 M 76.50 16.46 C 76.37 29.29 76.55 42.13 76.41 54.97 C 76.34 56.92 76.54 58.87 77.19 60.73 C 126.14 60.52 175.10 60.67 224.06 60.65 C 225.55 60.58 227.04 60.46 228.53 60.29 C 228.61 45.66 228.61 31.04 228.54 16.42 C 225.68 16.36 222.83 16.27 219.98 16.29 C 172.15 16.43 124.32 16.10 76.50 16.46 Z" />
<path fill="#5fcade" opacity="1.00" d=" M 75.84 84.82 C 111.46 84.33 147.10 84.82 182.73 84.58 C 186.41 87.75 185.17 92.76 185.29 97.02 C 185.31 106.04 185.24 115.05 185.35 124.07 C 185.41 127.28 184.77 130.73 182.64 133.24 C 147.81 133.46 112.96 133.26 78.12 133.34 C 76.66 131.90 75.18 130.27 75.56 128.03 C 75.72 113.63 75.19 99.21 75.84 84.82 Z" />
<path fill="#5fcade" opacity="1.00" d=" M 13.44 88.72 C 13.18 86.35 15.84 85.05 17.88 85.36 C 31.73 85.46 45.58 85.32 59.43 85.44 C 61.01 88.42 60.50 91.84 60.51 95.07 C 60.49 105.72 60.51 116.37 60.53 127.03 C 60.76 129.16 59.49 130.92 58.42 132.63 C 44.44 132.54 30.45 132.47 16.47 132.66 C 15.06 131.09 13.05 129.54 13.42 127.16 C 13.49 114.35 13.45 101.53 13.44 88.72 Z" />
</g>
<g id="#02a5c2ff">
<path fill="#02a5c2" opacity="1.00" d=" M 76.50 16.46 C 124.32 16.10 172.15 16.43 219.98 16.29 C 222.83 16.27 225.68 16.36 228.54 16.42 C 228.61 31.04 228.61 45.66 228.53 60.29 C 227.04 60.46 225.55 60.58 224.06 60.65 C 175.10 60.67 126.14 60.52 77.19 60.73 C 76.54 58.87 76.34 56.92 76.41 54.97 C 76.55 42.13 76.37 29.29 76.50 16.46 Z" />
</g>
</svg>
