<?xml version="1.0" encoding="UTF-8" ?>
<!DOCTYPE svg PUBLIC "-//W3C//DTD SVG 1.1//EN" "http://www.w3.org/Graphics/SVG/1.1/DTD/svg11.dtd">
<svg width="250pt" height="250pt" viewBox="0 0 250 250" version="1.1" xmlns="http://www.w3.org/2000/svg">
<g id="#ffffffff">
<path fill="#ffffff" opacity="1.00" d=" M 0.00 0.00 L 250.00 0.00 L 250.00 250.00 L 0.00 250.00 L 0.00 0.00 M 112.45 2.80 C 103.83 4.24 95.10 5.42 86.86 8.45 C 55.26 18.68 28.40 42.45 14.24 72.47 C 7.59 86.05 3.99 100.96 2.54 115.96 C 2.39 122.30 2.36 128.64 2.57 134.98 C 4.17 149.74 7.64 164.44 14.27 177.80 C 31.09 213.84 66.48 240.43 105.79 246.46 C 116.37 248.38 127.20 247.57 137.89 247.44 C 143.34 246.67 148.78 245.69 154.16 244.50 C 176.16 239.17 196.51 227.51 212.45 211.47 C 230.04 193.55 242.24 170.26 246.22 145.42 C 248.42 135.13 247.53 124.54 247.51 114.10 C 245.78 96.46 240.43 79.11 231.46 63.78 C 218.62 41.36 198.42 23.29 174.82 12.83 C 162.28 7.10 148.70 4.00 135.05 2.55 C 127.52 2.44 119.95 2.17 112.45 2.80 Z" />
</g>
<g id="#010101ff">
<path fill="#010101" opacity="1.00" d=" M 112.45 2.80 C 119.95 2.17 127.52 2.44 135.05 2.55 C 148.70 4.00 162.28 7.10 174.82 12.83 C 198.42 23.29 218.62 41.36 231.46 63.78 C 240.43 79.11 245.78 96.46 247.51 114.10 C 247.53 124.54 248.42 135.13 246.22 145.42 C 242.24 170.26 230.04 193.55 212.45 211.47 C 196.51 227.51 176.16 239.17 154.16 244.50 C 148.78 245.69 143.34 246.67 137.89 247.44 C 127.20 247.57 116.37 248.38 105.79 246.46 C 66.48 240.43 31.09 213.84 14.27 177.80 C 7.64 164.44 4.17 149.74 2.57 134.98 C 2.36 128.64 2.39 122.30 2.54 115.96 C 3.99 100.96 7.59 86.05 14.24 72.47 C 28.40 42.45 55.26 18.68 86.86 8.45 C 95.10 5.42 103.83 4.24 112.45 2.80 Z" />
</g>
</svg>
