<?xml version="1.0" encoding="UTF-8" ?>
<!DOCTYPE svg PUBLIC "-//W3C//DTD SVG 1.1//EN" "http://www.w3.org/Graphics/SVG/1.1/DTD/svg11.dtd">
<svg width="250pt" height="250pt" viewBox="0 0 250 250" version="1.1" xmlns="http://www.w3.org/2000/svg">
<g id="#ffffffff">
<path fill="#ffffff" opacity="1.00" d=" M 0.00 0.00 L 113.64 0.00 C 105.10 1.39 96.47 2.54 88.23 5.30 C 59.89 13.98 34.93 33.09 19.18 58.19 C 8.30 75.08 2.20 94.71 0.00 114.60 L 0.00 0.00 Z" />
<path fill="#ffffff" opacity="1.00" d=" M 137.33 0.00 L 250.00 0.00 L 250.00 114.62 C 247.80 94.73 241.71 75.09 230.82 58.20 C 214.78 32.62 189.18 13.28 160.19 4.82 C 152.75 2.42 144.98 1.46 137.33 0.00 Z" />
<path fill="#ffffff" opacity="1.00" d=" M 84.28 58.23 C 99.32 48.60 117.49 44.19 135.29 45.70 C 136.44 45.82 137.60 45.96 138.75 46.12 C 166.42 49.77 189.94 69.95 201.47 94.84 C 201.10 96.03 200.73 97.21 200.36 98.40 C 198.63 99.55 196.92 100.71 195.16 101.81 C 190.89 104.20 186.82 106.91 182.91 109.85 C 182.28 110.32 181.02 111.24 180.39 111.71 C 178.84 110.59 177.41 109.31 176.20 107.82 C 175.73 106.89 175.26 105.95 174.81 105.01 C 173.71 103.19 173.06 100.72 170.90 99.88 C 167.27 99.50 163.63 100.19 160.00 100.19 C 155.33 100.38 150.51 99.66 145.99 101.17 C 140.96 101.87 136.05 99.98 131.01 100.31 C 117.43 100.56 103.83 100.10 90.26 100.48 C 88.81 100.21 87.38 99.86 85.95 99.49 C 87.24 99.47 88.53 99.46 89.82 99.44 C 96.88 99.32 103.95 99.44 111.00 98.83 C 119.31 98.76 127.65 99.97 135.95 98.96 C 139.58 98.45 143.25 98.14 146.92 98.29 C 154.83 99.00 162.81 99.68 170.76 99.05 C 165.67 89.84 156.98 83.05 147.71 78.37 C 132.99 71.11 114.52 72.68 100.91 81.70 C 87.08 90.33 77.12 105.68 76.27 122.11 C 74.18 147.87 95.33 172.09 120.57 175.40 C 127.96 176.12 135.60 175.90 142.64 173.30 C 147.26 171.90 151.57 169.62 155.52 166.85 C 157.62 165.47 159.68 164.01 161.60 162.38 C 165.24 159.16 168.54 155.56 171.42 151.64 C 172.02 150.84 172.61 150.02 173.18 149.20 C 173.42 148.82 173.91 148.06 174.16 147.69 C 174.63 146.82 175.09 145.94 175.53 145.06 C 175.74 144.61 176.17 143.72 176.38 143.27 C 176.80 143.08 177.62 142.69 178.04 142.50 C 184.13 148.92 190.46 155.12 196.78 161.32 C 198.41 162.36 197.36 164.27 196.58 165.50 C 191.70 173.06 185.65 179.83 178.99 185.86 C 168.20 195.05 154.97 201.81 140.80 203.54 C 140.41 203.58 139.63 203.64 139.24 203.68 C 137.56 203.80 135.88 203.95 134.21 204.13 C 129.94 204.52 125.64 204.50 121.35 204.47 C 113.52 203.39 105.79 201.58 98.37 198.83 C 71.71 188.73 51.46 163.39 48.24 134.98 C 47.27 128.27 47.55 121.47 47.88 114.73 C 49.63 105.89 51.59 96.92 56.07 88.99 C 62.72 76.60 72.20 65.58 84.28 58.23 Z" />
<path fill="#ffffff" opacity="1.00" d=" M 241.51 170.34 C 246.17 158.89 248.46 146.64 250.00 134.42 L 250.00 250.00 L 133.36 250.00 C 149.72 248.17 166.01 244.33 180.73 236.80 C 208.26 223.15 230.43 199.01 241.51 170.34 Z" />
<path fill="#ffffff" opacity="1.00" d=" M 0.00 136.32 C 1.44 143.98 2.59 151.72 4.72 159.24 C 13.63 190.93 35.79 218.54 64.63 234.36 C 80.55 243.37 98.52 248.03 116.61 250.00 L 0.00 250.00 L 0.00 136.32 Z" />
</g>
<g id="#556866ff">
<path fill="#556866" opacity="1.00" d=" M 113.64 0.00 L 137.33 0.00 C 144.98 1.46 152.75 2.42 160.19 4.82 C 189.18 13.28 214.78 32.62 230.82 58.20 C 241.71 75.09 247.80 94.73 250.00 114.62 L 250.00 134.42 C 248.46 146.64 246.17 158.89 241.51 170.34 C 230.43 199.01 208.26 223.15 180.73 236.80 C 166.01 244.33 149.72 248.17 133.36 250.00 L 116.61 250.00 C 98.52 248.03 80.55 243.37 64.63 234.36 C 35.79 218.54 13.63 190.93 4.72 159.24 C 2.59 151.72 1.44 143.98 0.00 136.32 L 0.00 114.60 C 2.20 94.71 8.30 75.08 19.18 58.19 C 34.93 33.09 59.89 13.98 88.23 5.30 C 96.47 2.54 105.10 1.39 113.64 0.00 M 113.43 3.51 C 101.79 4.38 90.59 7.81 79.66 11.72 C 45.39 25.46 17.67 55.45 8.00 91.23 C 5.47 98.44 4.36 106.06 3.55 113.64 C 3.07 124.11 2.81 134.72 4.76 145.07 C 8.91 170.89 21.98 195.08 40.94 213.05 C 61.12 232.35 88.12 244.45 116.01 246.33 C 124.46 246.54 132.98 246.82 141.37 245.57 C 172.02 241.57 200.81 225.19 220.06 201.03 C 235.33 182.29 244.60 158.83 246.53 134.76 C 247.29 120.08 246.64 105.06 242.01 90.99 C 231.20 52.04 199.28 19.66 160.43 8.41 C 145.38 3.18 129.20 2.54 113.43 3.51 Z" />
</g>
<g id="#a5ababff">
<path fill="#a5abab" opacity="1.00" d=" M 113.43 3.51 C 129.20 2.54 145.38 3.18 160.43 8.41 C 199.28 19.66 231.20 52.04 242.01 90.99 C 246.64 105.06 247.29 120.08 246.53 134.76 C 244.60 158.83 235.33 182.29 220.06 201.03 C 200.81 225.19 172.02 241.57 141.37 245.57 C 132.98 246.82 124.46 246.54 116.01 246.33 C 88.12 244.45 61.12 232.35 40.94 213.05 C 21.98 195.08 8.91 170.89 4.76 145.07 C 2.81 134.72 3.07 124.11 3.55 113.64 C 4.36 106.06 5.47 98.44 8.00 91.23 C 17.67 55.45 45.39 25.46 79.66 11.72 C 90.59 7.81 101.79 4.38 113.43 3.51 M 103.12 8.86 C 100.15 9.05 97.21 9.51 94.35 10.35 C 83.37 13.53 72.57 17.77 62.99 24.10 C 51.92 30.45 42.23 39.20 34.01 48.94 C 29.99 54.04 25.89 59.15 22.92 64.97 C 19.33 71.16 15.72 77.51 13.89 84.48 C 10.49 92.45 8.63 101.03 7.71 109.62 C 7.26 116.08 6.06 122.50 6.57 129.00 C 7.28 139.19 8.32 149.57 11.92 159.20 C 23.82 201.31 61.65 234.91 104.85 241.77 C 112.36 243.94 120.27 243.67 128.00 243.67 C 141.23 243.85 154.39 241.01 166.67 236.19 C 175.12 233.54 183.03 229.21 190.19 224.07 C 197.06 220.10 202.87 214.52 208.45 208.94 C 211.82 205.96 214.70 202.48 217.39 198.88 C 222.67 192.21 227.53 185.10 231.10 177.36 C 235.76 168.04 239.69 158.17 241.18 147.81 C 244.17 137.18 243.81 126.01 243.50 115.08 C 242.68 108.97 242.11 102.74 240.23 96.84 C 238.91 89.64 236.40 82.63 233.21 76.05 C 223.92 54.93 207.75 37.02 188.29 24.74 C 178.34 18.70 167.66 13.29 156.18 10.99 C 150.20 8.61 143.62 7.64 137.21 7.51 C 134.40 5.92 131.09 6.43 128.00 6.34 C 119.69 6.34 111.09 6.25 103.12 8.86 Z" />
<path fill="#a5abab" opacity="1.00" d=" M 180.41 28.85 C 179.42 32.67 174.59 27.91 178.94 27.86 C 179.31 28.11 180.05 28.60 180.41 28.85 Z" />
<path fill="#a5abab" opacity="1.00" d=" M 24.43 168.86 C 26.03 170.17 26.82 171.67 25.42 173.47 C 25.11 172.84 24.50 171.58 24.19 170.95 C 24.25 170.43 24.37 169.38 24.43 168.86 Z" />
<path fill="#a5abab" opacity="1.00" d=" M 34.57 185.84 C 35.40 187.27 35.95 188.83 36.36 190.44 C 35.58 189.58 34.81 188.71 34.06 187.84 C 34.19 187.34 34.44 186.34 34.57 185.84 Z" />
<path fill="#a5abab" opacity="1.00" d=" M 38.04 193.70 C 38.20 189.99 42.49 193.85 39.75 195.51 C 39.32 195.05 38.47 194.15 38.04 193.70 Z" />
<path fill="#a5abab" opacity="1.00" d=" M 61.61 215.40 C 65.17 215.16 67.83 217.91 70.47 219.88 C 69.92 219.87 68.82 219.84 68.27 219.83 C 66.08 218.32 63.84 216.87 61.61 215.40 Z" />
</g>
<g id="#482778ff">
<path fill="#482778" opacity="1.00" d=" M 103.12 8.86 C 111.09 6.25 119.69 6.34 128.00 6.34 C 131.09 6.43 134.40 5.92 137.21 7.51 C 135.70 7.83 134.18 8.17 132.68 8.53 C 133.66 11.81 136.40 13.92 139.46 15.17 C 140.03 16.01 140.64 16.83 141.30 17.62 C 142.40 17.21 143.44 16.65 144.52 16.19 C 144.84 16.23 145.48 16.30 145.80 16.34 C 146.35 17.32 146.91 18.30 147.48 19.27 C 148.56 18.47 149.66 17.68 150.76 16.90 C 151.39 16.98 152.65 17.14 153.27 17.22 C 155.64 17.80 157.90 18.72 160.16 19.61 C 159.80 19.79 159.09 20.16 158.73 20.34 C 155.38 21.25 152.60 23.28 150.72 26.20 C 144.53 25.05 138.37 23.44 132.04 23.44 C 125.60 23.41 119.15 23.25 112.71 23.66 C 113.26 20.50 115.76 18.40 117.99 16.34 C 119.87 16.40 121.74 16.41 123.62 16.45 C 123.66 15.90 123.75 14.82 123.79 14.27 C 120.03 14.42 116.27 14.66 112.54 15.14 C 112.18 15.16 111.46 15.21 111.10 15.23 C 109.23 15.39 107.37 15.67 105.52 15.99 C 105.18 16.05 104.51 16.18 104.17 16.24 C 102.75 16.50 101.34 16.76 99.93 17.03 C 99.22 16.99 97.82 16.92 97.12 16.88 C 98.96 14.09 100.89 11.36 103.12 8.86 M 126.45 14.27 C 126.41 14.60 126.31 15.27 126.27 15.61 C 129.44 15.50 132.64 15.62 135.71 16.52 C 136.04 16.20 136.69 15.57 137.01 15.26 C 133.45 15.45 129.94 14.92 126.45 14.27 M 153.27 18.33 C 152.26 19.70 154.70 20.97 155.64 19.84 C 156.63 18.48 154.19 17.16 153.27 18.33 Z" />
<path fill="#482778" opacity="1.00" d=" M 132.06 28.67 C 133.53 28.73 135.01 28.79 136.48 28.84 C 146.79 31.16 157.30 33.20 166.83 37.98 C 191.38 49.24 209.95 71.80 217.53 97.59 C 221.98 111.51 221.58 126.33 220.18 140.70 C 219.86 142.60 219.48 144.50 219.08 146.39 C 218.69 145.71 217.91 144.34 217.52 143.65 C 221.15 125.31 218.95 105.94 211.75 88.72 C 209.16 81.42 205.00 74.79 200.29 68.68 C 184.02 47.02 158.12 32.53 130.96 31.14 C 131.23 30.52 131.79 29.29 132.06 28.67 Z" />
<path fill="#482778" opacity="1.00" d=" M 124.11 32.79 C 152.89 32.32 181.70 45.91 198.86 69.15 C 203.92 75.68 207.36 83.22 211.16 90.50 C 216.09 103.47 218.37 117.48 217.15 131.34 C 216.41 127.81 215.58 124.29 215.16 120.70 C 215.10 119.94 214.97 118.44 214.91 117.68 C 214.68 109.08 212.37 100.69 209.18 92.75 C 201.62 72.95 186.68 56.20 168.19 45.93 C 166.29 44.90 164.29 44.05 162.25 43.33 C 149.92 37.86 136.45 34.73 122.91 35.36 C 123.21 34.72 123.81 33.44 124.11 32.79 Z" />
</g>
<g id="#331e5bff">
<path fill="#331e5b" opacity="1.00" d=" M 132.68 8.53 C 134.18 8.17 135.70 7.83 137.21 7.51 C 143.62 7.64 150.20 8.61 156.18 10.99 C 154.55 10.99 152.92 11.04 151.29 11.07 C 152.11 12.32 152.94 13.58 153.77 14.83 C 153.65 15.43 153.40 16.62 153.27 17.22 C 152.65 17.14 151.39 16.98 150.76 16.90 C 149.10 16.70 147.45 16.53 145.80 16.34 C 145.48 16.30 144.84 16.23 144.52 16.19 C 142.82 15.87 141.14 15.53 139.46 15.17 C 136.40 13.92 133.66 11.81 132.68 8.53 Z" />
<path fill="#331e5b" opacity="1.00" d=" M 77.70 37.03 C 99.99 24.83 127.09 20.97 151.62 28.09 C 160.12 30.95 168.67 33.91 176.37 38.57 C 191.04 47.08 202.91 59.77 211.90 74.04 C 214.31 78.47 216.36 83.08 218.38 87.70 C 218.04 88.30 217.38 89.51 217.05 90.12 C 209.22 69.87 194.21 52.69 175.91 41.19 C 164.49 34.35 151.79 29.00 138.40 27.90 C 126.49 26.97 114.26 26.48 102.58 29.50 C 94.52 31.18 86.84 34.30 79.45 37.88 C 79.01 37.67 78.14 37.25 77.70 37.03 Z" />
<path fill="#331e5b" opacity="1.00" d=" M 151.00 42.71 C 152.10 42.29 153.20 41.87 154.30 41.45 C 156.39 42.25 158.47 43.06 160.58 43.77 C 166.81 47.35 173.32 50.54 179.00 55.00 C 192.37 65.46 203.19 79.55 208.47 95.79 C 208.04 96.44 207.20 97.76 206.78 98.41 C 206.56 97.76 206.11 96.46 205.89 95.82 C 197.15 70.88 176.16 50.69 151.00 42.71 Z" />
</g>
<g id="#583093ff">
<path fill="#583093" opacity="1.00" d=" M 94.35 10.35 C 97.21 9.51 100.15 9.05 103.12 8.86 C 100.89 11.36 98.96 14.09 97.12 16.88 C 97.82 16.92 99.22 16.99 99.93 17.03 C 97.43 17.73 95.01 18.67 92.70 19.83 C 96.20 19.75 99.64 19.03 103.04 18.21 C 103.32 17.72 103.88 16.73 104.17 16.24 C 104.51 16.18 105.18 16.05 105.52 15.99 C 106.88 16.59 108.22 17.23 109.56 17.87 C 110.08 16.99 110.59 16.11 111.10 15.23 C 111.46 15.21 112.18 15.16 112.54 15.14 C 114.31 15.72 116.11 16.29 117.99 16.34 C 115.76 18.40 113.26 20.50 112.71 23.66 C 99.23 25.59 85.97 29.63 74.14 36.45 C 73.23 35.02 72.24 33.65 71.33 32.22 C 71.64 31.18 71.95 30.15 72.25 29.12 C 76.71 26.48 81.69 24.86 86.10 22.13 C 80.66 23.50 75.69 26.17 70.71 28.64 C 68.36 26.79 65.82 25.12 62.99 24.10 C 72.57 17.77 83.37 13.53 94.35 10.35 M 86.75 22.30 C 88.96 22.42 91.12 21.87 92.31 19.85 C 90.05 19.74 87.69 19.89 86.75 22.30 Z" />
</g>
<g id="#181237ff">
<path fill="#181237" opacity="1.00" d=" M 151.29 11.07 C 152.92 11.04 154.55 10.99 156.18 10.99 C 167.66 13.29 178.34 18.70 188.29 24.74 C 207.75 37.02 223.92 54.93 233.21 76.05 C 233.05 76.50 232.72 77.40 232.56 77.85 C 228.68 76.07 225.14 73.64 221.73 71.09 C 220.93 70.04 220.11 69.01 219.32 67.97 C 219.17 67.71 218.89 67.20 218.75 66.95 C 216.86 63.27 214.34 59.95 211.59 56.89 C 211.40 56.66 211.03 56.20 210.84 55.97 C 209.80 54.57 208.77 53.16 207.78 51.73 C 207.21 50.83 206.62 49.94 206.03 49.06 C 205.76 48.79 205.21 48.23 204.94 47.95 C 203.98 47.27 203.02 46.61 202.05 45.94 C 200.92 44.93 199.82 43.88 198.71 42.85 C 198.22 42.39 197.72 41.92 197.23 41.46 C 196.45 40.70 195.65 39.95 194.83 39.22 C 193.63 38.14 192.39 37.08 191.14 36.06 C 190.65 35.70 189.68 34.98 189.19 34.62 C 188.16 33.88 187.16 33.12 186.16 32.36 C 185.25 31.66 184.25 31.15 183.14 30.84 C 182.20 30.21 181.30 29.54 180.41 28.85 C 180.05 28.60 179.31 28.11 178.94 27.86 C 177.67 27.20 176.38 26.58 175.12 25.91 C 174.58 25.63 173.49 25.08 172.95 24.80 C 171.76 24.32 170.56 23.88 169.36 23.44 C 168.03 22.96 166.72 22.46 165.42 21.94 C 164.70 21.63 163.98 21.30 163.27 20.96 C 162.27 20.42 161.23 19.97 160.16 19.61 C 157.90 18.72 155.64 17.80 153.27 17.22 C 153.40 16.62 153.65 15.43 153.77 14.83 C 152.94 13.58 152.11 12.32 151.29 11.07 Z" />
<path fill="#181237" opacity="1.00" d=" M 33.14 148.81 C 34.83 148.82 36.52 148.82 38.21 148.82 C 39.01 150.72 39.79 152.63 40.52 154.57 C 47.52 174.38 61.77 191.47 79.90 202.08 C 99.15 213.66 122.76 217.49 144.77 213.12 C 145.96 213.40 147.15 213.68 148.35 213.97 C 141.31 215.92 134.03 216.66 126.78 217.27 C 120.79 216.38 114.75 215.91 108.74 215.17 C 77.30 210.26 49.45 187.01 39.26 156.82 C 38.31 153.44 35.77 150.97 33.14 148.81 Z" />
</g>
<g id="#b8a2d6ff">
<path fill="#b8a2d6" opacity="1.00" d=" M 112.54 15.14 C 116.27 14.66 120.03 14.42 123.79 14.27 C 123.75 14.82 123.66 15.90 123.62 16.45 C 121.74 16.41 119.87 16.40 117.99 16.34 C 116.11 16.29 114.31 15.72 112.54 15.14 Z" />
<path fill="#b8a2d6" opacity="1.00" d=" M 99.93 17.03 C 101.34 16.76 102.75 16.50 104.17 16.24 C 103.88 16.73 103.32 17.72 103.04 18.21 C 99.64 19.03 96.20 19.75 92.70 19.83 C 95.01 18.67 97.43 17.73 99.93 17.03 Z" />
<path fill="#b8a2d6" opacity="1.00" d=" M 205.35 99.54 C 205.54 98.30 205.74 97.06 205.89 95.82 C 206.11 96.46 206.56 97.76 206.78 98.41 C 208.65 103.93 209.98 109.66 210.51 115.46 C 210.98 118.66 208.46 121.24 206.08 122.95 C 203.92 124.00 201.36 123.55 199.03 123.69 C 179.09 123.39 159.15 124.11 139.23 123.84 C 129.39 122.22 119.08 125.00 109.54 121.65 C 132.95 120.79 156.38 121.59 179.80 121.26 C 187.54 121.26 195.29 121.64 203.03 121.37 C 205.92 121.45 208.90 118.97 208.75 115.97 C 208.79 110.32 207.03 104.87 205.35 99.54 Z" />
<path fill="#b8a2d6" opacity="1.00" d=" M 235.69 128.06 C 233.18 128.00 233.07 123.79 235.73 123.97 C 235.73 125.33 235.71 126.69 235.69 128.06 Z" />
<path fill="#b8a2d6" opacity="1.00" d=" M 83.24 126.38 C 91.79 126.39 100.34 126.30 108.89 126.21 C 140.27 125.49 171.66 125.86 203.05 126.23 C 207.49 126.23 211.47 130.93 210.54 135.34 C 208.30 157.46 195.99 177.88 178.88 191.80 C 174.98 194.87 170.76 197.51 166.42 199.91 C 166.01 199.76 165.20 199.45 164.80 199.30 C 170.78 195.91 176.43 191.93 181.51 187.30 C 188.27 181.37 193.85 174.24 198.66 166.68 C 200.49 163.78 201.48 160.47 202.59 157.26 C 205.59 150.12 207.86 142.59 208.70 134.89 C 209.20 132.08 207.21 129.34 204.62 128.45 C 202.12 127.94 199.54 128.10 197.00 128.10 C 166.92 128.70 136.83 128.10 106.75 128.32 C 98.96 127.48 91.12 127.69 83.29 127.61 C 83.28 127.30 83.25 126.69 83.24 126.38 Z" />
<path fill="#b8a2d6" opacity="1.00" d=" M 201.22 202.13 C 202.13 201.76 203.05 201.39 203.98 201.03 C 203.71 201.94 203.44 202.85 203.18 203.76 C 198.91 206.75 195.31 210.65 190.66 213.09 C 193.60 208.90 198.29 206.36 201.22 202.13 Z" />
</g>
<g id="#d0d5e1ff">
<path fill="#d0d5e1" opacity="1.00" d=" M 126.45 14.27 C 129.94 14.92 133.45 15.45 137.01 15.26 C 136.69 15.57 136.04 16.20 135.71 16.52 C 132.64 15.62 129.44 15.50 126.27 15.61 C 126.31 15.27 126.41 14.60 126.45 14.27 Z" />
<path fill="#d0d5e1" opacity="1.00" d=" M 169.36 23.44 C 167.71 25.01 165.63 24.16 165.42 21.94 C 166.72 22.46 168.03 22.96 169.36 23.44 Z" />
<path fill="#d0d5e1" opacity="1.00" d=" M 79.51 47.33 C 92.83 40.15 107.68 35.38 122.91 35.36 C 136.45 34.73 149.92 37.86 162.25 43.33 C 161.84 43.44 161.00 43.66 160.58 43.77 C 158.47 43.06 156.39 42.25 154.30 41.45 C 145.28 38.13 135.60 36.60 126.00 36.41 C 117.91 36.40 109.92 38.03 102.06 39.82 C 83.87 44.64 67.54 55.94 55.95 70.67 C 50.28 77.52 45.69 85.31 42.70 93.70 C 41.22 97.64 40.26 102.94 35.58 104.27 C 29.61 105.10 23.56 104.43 17.55 104.66 C 17.53 105.66 17.50 107.67 17.49 108.68 C 24.25 108.51 31.09 109.18 37.80 108.26 C 42.77 106.48 42.99 100.56 44.61 96.34 C 47.53 87.77 52.05 79.85 57.18 72.43 C 68.44 58.25 83.96 47.71 101.33 42.57 C 108.13 40.53 115.25 39.70 122.32 39.46 C 122.35 40.38 122.37 41.30 122.40 42.23 C 120.43 41.30 118.35 40.23 116.11 40.82 C 109.46 41.92 102.88 43.57 96.58 45.96 C 85.53 49.64 75.69 56.33 67.23 64.24 C 61.24 70.06 55.61 76.42 51.72 83.87 C 48.47 90.03 45.79 96.47 43.79 103.14 C 42.90 106.61 39.65 109.44 35.99 109.35 C 29.44 109.45 22.88 109.10 16.32 109.39 C 16.33 107.73 16.33 106.07 16.34 104.41 C 21.87 104.05 27.44 104.57 32.97 104.02 C 35.83 103.86 38.30 101.82 39.36 99.22 C 40.91 95.38 41.96 91.35 43.44 87.48 C 46.16 82.33 49.15 77.33 52.29 72.42 C 56.69 67.14 60.90 61.62 66.20 57.18 C 70.43 53.62 75.00 50.51 79.51 47.33 Z" />
<path fill="#d0d5e1" opacity="1.00" d=" M 218.75 66.95 C 215.62 64.19 213.26 60.69 211.59 56.89 C 214.34 59.95 216.86 63.27 218.75 66.95 Z" />
<path fill="#d0d5e1" opacity="1.00" d=" M 221.35 73.08 C 220.44 71.48 219.81 69.74 219.32 67.97 C 220.11 69.01 220.93 70.04 221.73 71.09 C 221.64 71.59 221.44 72.59 221.35 73.08 Z" />
<path fill="#d0d5e1" opacity="1.00" d=" M 222.20 73.96 C 224.21 74.87 224.51 77.01 224.88 78.95 C 223.43 77.61 222.20 76.04 222.20 73.96 Z" />
<path fill="#d0d5e1" opacity="1.00" d=" M 227.56 86.12 C 227.91 86.30 228.62 86.64 228.97 86.82 C 229.58 89.68 230.40 92.52 231.91 95.06 C 231.62 95.55 231.05 96.55 230.76 97.04 C 230.02 94.21 229.29 91.32 227.68 88.84 C 227.65 88.16 227.59 86.80 227.56 86.12 Z" />
<path fill="#d0d5e1" opacity="1.00" d=" M 232.28 104.96 C 234.51 105.87 235.17 108.47 233.23 110.06 C 232.81 108.38 232.50 106.67 232.28 104.96 Z" />
<path fill="#d0d5e1" opacity="1.00" d=" M 233.28 112.36 C 233.64 112.32 234.34 112.25 234.70 112.21 C 234.63 115.34 234.97 118.46 235.57 121.54 C 235.25 121.90 234.62 122.62 234.30 122.99 C 234.45 119.40 234.21 115.83 233.28 112.36 Z" />
<path fill="#d0d5e1" opacity="1.00" d=" M 233.36 137.18 C 233.52 134.36 233.80 131.54 234.80 128.88 C 235.50 132.93 234.84 137.03 234.72 141.10 C 234.32 141.22 233.53 141.46 233.13 141.58 C 233.20 140.11 233.27 138.64 233.36 137.18 Z" />
<path fill="#d0d5e1" opacity="1.00" d=" M 120.71 139.42 C 121.18 139.29 122.13 139.04 122.60 138.91 C 124.88 139.02 127.16 139.15 129.44 139.33 C 132.25 139.95 135.10 140.43 137.99 140.33 C 150.65 140.16 163.33 139.34 175.99 140.20 C 180.84 140.60 185.74 139.97 190.58 140.54 C 193.68 142.28 194.63 145.90 195.23 149.14 C 193.35 146.62 191.81 143.77 189.38 141.72 C 184.97 140.93 180.46 141.52 176.02 141.53 C 169.34 141.39 162.67 141.09 156.00 141.54 C 147.27 141.69 138.52 141.06 129.80 141.78 C 127.18 141.99 124.56 142.23 121.93 142.26 C 121.62 141.55 121.02 140.13 120.71 139.42 Z" />
<path fill="#d0d5e1" opacity="1.00" d=" M 18.88 157.72 C 19.79 157.73 20.70 157.76 21.61 157.78 C 21.32 158.87 21.02 159.95 20.70 161.03 C 20.11 159.91 19.50 158.81 18.88 157.72 Z" />
<path fill="#d0d5e1" opacity="1.00" d=" M 185.77 215.27 C 186.69 214.79 187.63 214.37 188.57 213.95 C 188.40 214.74 188.23 215.53 188.05 216.33 C 182.82 218.41 178.24 221.82 173.03 223.96 C 176.93 220.59 181.55 218.20 185.77 215.27 Z" />
<path fill="#d0d5e1" opacity="1.00" d=" M 131.16 233.34 C 132.09 232.90 134.37 233.44 133.51 234.85 C 132.45 236.65 128.61 234.45 131.16 233.34 Z" />
</g>
<g id="#9f8ab9ff">
<path fill="#9f8ab9" opacity="1.00" d=" M 105.52 15.99 C 107.37 15.67 109.23 15.39 111.10 15.23 C 110.59 16.11 110.08 16.99 109.56 17.87 C 108.22 17.23 106.88 16.59 105.52 15.99 Z" />
<path fill="#9f8ab9" opacity="1.00" d=" M 102.74 34.13 C 111.70 30.57 121.50 31.06 130.96 31.14 C 158.12 32.53 184.02 47.02 200.29 68.68 C 205.00 74.79 209.16 81.42 211.75 88.72 C 211.60 89.17 211.31 90.05 211.16 90.50 C 207.36 83.22 203.92 75.68 198.86 69.15 C 181.70 45.91 152.89 32.32 124.11 32.79 C 118.05 32.83 112.09 34.01 106.07 34.49 C 104.96 34.37 103.85 34.25 102.74 34.13 Z" />
<path fill="#9f8ab9" opacity="1.00" d=" M 162.25 43.33 C 164.29 44.05 166.29 44.90 168.19 45.93 C 186.68 56.20 201.62 72.95 209.18 92.75 C 212.37 100.69 214.68 109.08 214.91 117.68 C 214.55 122.58 214.26 127.49 213.42 132.34 C 213.74 120.00 212.59 107.49 208.47 95.79 C 203.19 79.55 192.37 65.46 179.00 55.00 C 173.32 50.54 166.81 47.35 160.58 43.77 C 161.00 43.66 161.84 43.44 162.25 43.33 Z" />
<path fill="#9f8ab9" opacity="1.00" d=" M 211.90 74.04 C 212.38 74.12 213.34 74.27 213.82 74.35 C 215.66 77.48 217.32 80.70 218.95 83.95 C 226.07 101.73 229.70 121.33 226.45 140.39 L 226.17 139.65 C 225.79 137.37 225.46 135.07 225.29 132.76 C 225.95 117.49 224.49 101.85 218.38 87.70 C 216.36 83.08 214.31 78.47 211.90 74.04 Z" />
</g>
<g id="#8878a2ff">
<path fill="#8878a2" opacity="1.00" d=" M 139.46 15.17 C 141.14 15.53 142.82 15.87 144.52 16.19 C 143.44 16.65 142.40 17.21 141.30 17.62 C 140.64 16.83 140.03 16.01 139.46 15.17 Z" />
</g>
<g id="#82749cff">
<path fill="#82749c" opacity="1.00" d=" M 145.80 16.34 C 147.45 16.53 149.10 16.70 150.76 16.90 C 149.66 17.68 148.56 18.47 147.48 19.27 C 146.91 18.30 146.35 17.32 145.80 16.34 Z" />
</g>
<g id="#968dabff">
<path fill="#968dab" opacity="1.00" d=" M 153.27 18.33 C 154.19 17.16 156.63 18.48 155.64 19.84 C 154.70 20.97 152.26 19.70 153.27 18.33 Z" />
</g>
<g id="#a691c5ff">
<path fill="#a691c5" opacity="1.00" d=" M 86.75 22.30 C 87.69 19.89 90.05 19.74 92.31 19.85 C 91.12 21.87 88.96 22.42 86.75 22.30 Z" />
</g>
<g id="#857d9cff">
<path fill="#857d9c" opacity="1.00" d=" M 158.73 20.34 C 159.09 20.16 159.80 19.79 160.16 19.61 C 161.23 19.97 162.27 20.42 163.27 20.96 C 162.19 22.73 159.23 22.44 158.73 20.34 Z" />
</g>
<g id="#2c1a51ff">
<path fill="#2c1a51" opacity="1.00" d=" M 150.72 26.20 C 152.60 23.28 155.38 21.25 158.73 20.34 C 159.23 22.44 162.19 22.73 163.27 20.96 C 163.98 21.30 164.70 21.63 165.42 21.94 C 165.63 24.16 167.71 25.01 169.36 23.44 C 170.56 23.88 171.76 24.32 172.95 24.80 C 171.56 24.58 170.53 26.54 172.18 27.04 C 173.38 27.31 174.36 26.93 175.12 25.91 C 176.38 26.58 177.67 27.20 178.94 27.86 C 174.59 27.91 179.42 32.67 180.41 28.85 C 181.30 29.54 182.20 30.21 183.14 30.84 C 181.68 33.29 186.09 35.80 186.16 32.36 C 187.16 33.12 188.16 33.88 189.19 34.62 C 187.02 36.47 190.92 39.26 191.14 36.06 C 192.39 37.08 193.63 38.14 194.83 39.22 C 194.35 39.33 193.38 39.53 192.90 39.64 C 194.32 40.30 195.76 40.90 197.23 41.46 C 197.72 41.92 198.22 42.39 198.71 42.85 C 198.76 43.58 198.81 44.30 198.86 45.03 C 199.92 45.32 200.99 45.63 202.05 45.94 C 203.02 46.61 203.98 47.27 204.94 47.95 C 202.35 47.75 203.71 51.74 205.57 50.31 C 205.69 49.99 205.91 49.37 206.03 49.06 C 206.62 49.94 207.21 50.83 207.78 51.73 C 207.84 52.55 207.90 53.36 207.96 54.18 C 208.92 54.77 209.89 55.36 210.84 55.97 C 211.03 56.20 211.40 56.66 211.59 56.89 C 213.26 60.69 215.62 64.19 218.75 66.95 C 218.89 67.20 219.17 67.71 219.32 67.97 C 219.81 69.74 220.44 71.48 221.35 73.08 C 221.44 72.59 221.64 71.59 221.73 71.09 C 225.14 73.64 228.68 76.07 232.56 77.85 C 232.72 77.40 233.05 76.50 233.21 76.05 C 236.40 82.63 238.91 89.64 240.23 96.84 C 240.07 97.67 239.74 99.31 239.58 100.14 C 236.90 98.64 234.27 97.03 231.91 95.06 C 230.40 92.52 229.58 89.68 228.97 86.82 C 228.62 86.64 227.91 86.30 227.56 86.12 C 227.59 86.80 227.65 88.16 227.68 88.84 C 224.01 90.06 221.52 85.88 218.95 83.95 C 217.32 80.70 215.66 77.48 213.82 74.35 C 210.67 68.10 206.30 62.57 201.64 57.40 C 188.94 43.39 172.63 32.30 154.42 26.97 C 153.19 26.69 151.95 26.44 150.72 26.20 M 222.20 73.96 C 222.20 76.04 223.43 77.61 224.88 78.95 C 224.51 77.01 224.21 74.87 222.20 73.96 M 225.01 79.54 C 224.95 80.40 224.82 82.12 224.76 82.98 C 225.45 83.41 226.82 84.25 227.51 84.68 C 227.97 82.38 226.99 80.69 225.01 79.54 Z" />
</g>
<g id="#fbf9fcff">
<path fill="#fbf9fc" opacity="1.00" d=" M 70.71 28.64 C 75.69 26.17 80.66 23.50 86.10 22.13 C 81.69 24.86 76.71 26.48 72.25 29.12 C 60.25 35.92 49.57 45.03 40.58 55.47 C 36.43 60.43 32.69 65.75 29.61 71.45 C 27.21 75.54 25.42 79.94 23.06 84.05 C 24.41 79.27 26.66 74.81 29.08 70.50 C 31.73 66.01 34.44 61.54 37.64 57.42 C 44.11 49.40 51.21 41.75 59.74 35.88 C 63.38 33.44 66.99 30.96 70.71 28.64 Z" />
<path fill="#fbf9fc" opacity="1.00" d=" M 53.08 65.01 C 65.45 49.42 83.49 38.76 102.74 34.13 C 103.85 34.25 104.96 34.37 106.07 34.49 C 95.96 36.28 86.35 40.44 77.65 45.84 C 67.09 52.02 57.92 60.62 50.65 70.44 C 47.07 75.14 43.98 80.22 41.64 85.65 C 39.49 89.56 38.55 94.16 35.78 97.70 C 30.50 102.12 22.63 97.40 17.15 101.55 C 17.34 100.48 17.52 99.41 17.68 98.34 C 22.87 100.09 29.06 100.02 34.19 98.21 C 38.72 93.38 39.38 86.26 42.59 80.60 C 45.91 75.28 49.14 69.89 53.08 65.01 Z" />
<path fill="#fbf9fc" opacity="1.00" d=" M 131.10 107.35 C 134.16 107.32 137.22 107.43 140.28 107.59 C 140.27 108.25 140.24 109.57 140.23 110.23 C 137.07 110.71 133.86 110.68 130.67 110.39 C 130.78 109.63 131.00 108.11 131.10 107.35 Z" />
<path fill="#fbf9fc" opacity="1.00" d=" M 231.86 148.91 C 231.98 150.00 232.25 151.12 231.95 152.21 C 229.69 160.28 226.72 168.13 223.08 175.68 C 219.85 181.42 216.40 187.05 212.44 192.31 C 210.22 195.12 207.87 197.87 205.05 200.09 C 206.75 197.31 208.89 194.85 210.89 192.29 C 215.81 186.17 219.94 179.43 223.35 172.36 C 227.11 164.90 229.65 156.94 231.86 148.91 Z" />
</g>
<g id="#beabe0ff">
<path fill="#beabe0" opacity="1.00" d=" M 112.71 23.66 C 119.15 23.25 125.60 23.41 132.04 23.44 C 138.37 23.44 144.53 25.05 150.72 26.20 C 151.95 26.44 153.19 26.69 154.42 26.97 C 153.72 27.25 152.32 27.81 151.62 28.09 C 127.09 20.97 99.99 24.83 77.70 37.03 C 65.66 42.93 55.40 52.21 47.02 62.58 C 42.81 67.80 39.04 73.36 35.78 79.22 C 35.61 78.79 35.28 77.92 35.12 77.49 L 35.44 76.86 C 38.41 71.40 41.63 66.05 45.48 61.15 C 53.36 51.17 63.22 42.94 74.14 36.45 C 85.97 29.63 99.23 25.59 112.71 23.66 Z" />
<path fill="#beabe0" opacity="1.00" d=" M 102.58 29.50 C 114.26 26.48 126.49 26.97 138.40 27.90 C 137.92 28.14 136.96 28.61 136.48 28.84 C 135.01 28.79 133.53 28.73 132.06 28.67 C 110.98 27.28 89.48 33.15 72.04 45.07 C 59.50 53.87 48.17 65.04 40.98 78.69 C 40.26 79.97 39.51 81.23 38.75 82.49 C 38.30 82.63 37.40 82.92 36.95 83.06 C 39.94 76.44 43.69 70.20 47.94 64.31 C 52.59 59.18 57.10 53.87 62.54 49.54 C 67.77 45.09 73.79 41.73 79.45 37.88 C 86.84 34.30 94.52 31.18 102.58 29.50 Z" />
<path fill="#beabe0" opacity="1.00" d=" M 68.61 65.60 C 75.80 58.84 84.19 53.28 93.38 49.63 C 91.63 51.16 89.80 52.64 87.74 53.73 C 79.53 58.10 72.35 64.21 65.99 70.96 C 61.72 75.70 57.56 80.70 54.87 86.53 C 54.69 86.94 54.35 87.75 54.17 88.15 C 54.06 87.34 53.85 85.73 53.74 84.92 C 58.19 78.11 62.66 71.22 68.61 65.60 Z" />
<path fill="#beabe0" opacity="1.00" d=" M 211.16 90.50 C 211.31 90.05 211.60 89.17 211.75 88.72 C 218.95 105.94 221.15 125.31 217.52 143.65 C 213.94 159.53 206.95 174.79 195.91 186.88 C 190.85 192.44 185.15 197.41 179.04 201.78 C 173.81 205.51 167.96 208.23 162.18 210.97 C 161.65 210.82 160.59 210.50 160.07 210.34 C 171.45 206.02 181.45 198.59 190.09 190.11 C 205.59 174.58 215.93 153.37 217.15 131.34 C 218.37 117.48 216.09 103.47 211.16 90.50 Z" />
<path fill="#beabe0" opacity="1.00" d=" M 198.81 101.63 C 199.68 103.79 201.30 106.08 200.43 108.49 C 199.43 110.71 197.76 112.53 196.14 114.32 C 163.77 114.05 131.38 114.80 99.00 114.16 C 93.96 113.95 88.88 113.47 83.85 114.28 C 82.37 114.45 80.90 114.72 79.42 114.98 C 82.36 112.31 86.35 112.22 90.10 112.37 C 110.07 112.50 130.03 112.16 149.99 112.35 C 159.27 112.24 168.55 112.68 177.81 112.18 C 177.57 111.67 177.07 110.65 176.82 110.14 C 172.61 109.24 168.27 109.81 164.00 109.74 C 156.08 109.99 148.13 109.52 140.23 110.23 C 140.24 109.57 140.27 108.25 140.28 107.59 C 152.25 107.70 164.23 107.64 176.20 107.82 C 177.41 109.31 178.84 110.59 180.39 111.71 C 185.38 112.74 190.71 113.06 195.69 111.89 C 199.63 109.93 198.89 105.25 198.81 101.63 Z" />
<path fill="#beabe0" opacity="1.00" d=" M 82.60 118.26 C 83.99 117.96 85.35 117.51 86.68 116.99 C 100.44 117.93 114.23 116.92 128.00 116.73 C 143.92 116.59 159.84 116.94 175.76 117.10 C 177.29 117.67 178.79 118.32 180.32 118.90 C 167.54 118.68 154.77 119.15 142.00 119.16 C 127.26 119.35 112.53 118.48 97.80 118.79 C 92.73 118.74 87.64 118.94 82.60 118.26 Z" />
<path fill="#beabe0" opacity="1.00" d=" M 213.42 132.34 C 214.26 127.49 214.55 122.58 214.91 117.68 C 214.97 118.44 215.10 119.94 215.16 120.70 C 215.77 138.81 211.27 157.20 201.64 172.62 C 198.00 178.48 193.35 183.63 188.70 188.69 C 178.78 198.38 166.48 205.53 153.32 209.84 C 152.75 209.69 151.61 209.41 151.04 209.27 C 162.23 206.45 172.18 200.02 181.15 192.95 C 199.41 178.04 210.60 155.59 213.42 132.34 Z" />
<path fill="#beabe0" opacity="1.00" d=" M 79.87 131.79 C 80.70 131.72 82.35 131.59 83.18 131.52 C 91.37 131.15 99.60 131.64 107.76 130.71 C 111.50 130.76 115.24 130.94 118.99 130.87 C 144.33 130.43 169.68 130.75 195.02 130.70 C 197.58 130.89 200.65 130.41 202.66 132.38 C 204.18 133.89 205.92 135.72 205.79 138.03 C 205.46 144.79 202.94 151.20 200.54 157.45 C 200.18 157.49 199.46 157.58 199.11 157.62 C 199.17 157.05 199.30 155.90 199.37 155.33 C 200.94 149.88 203.33 144.59 203.88 138.88 C 204.28 135.69 201.26 132.53 198.05 132.70 C 193.03 132.44 188.02 132.75 183.00 132.71 C 150.75 133.32 118.49 132.17 86.23 132.65 C 84.10 132.48 81.98 132.19 79.87 131.79 Z" />
<path fill="#beabe0" opacity="1.00" d=" M 225.29 132.76 C 225.46 135.07 225.79 137.37 226.17 139.65 C 224.75 149.86 221.82 159.84 217.41 169.15 C 214.01 176.00 210.00 182.58 205.15 188.51 C 202.46 191.71 199.60 194.76 196.63 197.70 C 191.24 202.83 185.33 207.43 178.99 211.33 C 172.54 215.33 165.56 218.47 158.30 220.67 C 157.73 220.64 156.59 220.58 156.02 220.55 C 164.49 218.35 172.03 213.71 179.42 209.16 C 186.68 205.13 192.68 199.28 198.33 193.27 C 211.28 179.12 220.81 161.40 223.97 142.38 C 224.49 139.18 225.00 135.98 225.29 132.76 Z" />
<path fill="#beabe0" opacity="1.00" d=" M 141.22 135.34 C 158.49 134.93 175.76 135.45 193.03 135.33 C 195.65 135.05 197.83 136.69 199.20 138.76 C 202.76 142.90 199.16 148.23 198.22 152.70 C 197.72 152.98 196.72 153.54 196.22 153.82 C 196.24 153.25 196.29 152.09 196.32 151.51 C 197.25 148.45 198.82 145.46 198.76 142.19 C 198.26 139.09 195.07 137.18 192.05 137.53 C 171.82 137.47 151.58 137.88 131.36 137.36 C 126.89 136.69 122.38 136.57 117.88 136.56 C 125.66 136.09 133.46 136.06 141.22 135.34 Z" />
<path fill="#beabe0" opacity="1.00" d=" M 220.18 140.70 C 220.52 141.89 220.87 143.08 221.22 144.27 C 217.93 162.05 209.39 178.74 196.89 191.82 C 191.16 197.94 184.26 202.75 177.61 207.79 C 172.32 210.86 166.69 213.30 161.16 215.89 C 160.12 215.70 159.07 215.54 158.02 215.40 C 166.13 213.32 173.01 208.31 180.04 203.99 C 186.54 199.65 192.22 194.19 197.35 188.31 C 207.71 176.31 215.48 161.88 219.08 146.39 C 219.48 144.50 219.86 142.60 220.18 140.70 Z" />
</g>
<g id="#683ab0ff">
<path fill="#683ab0" opacity="1.00" d=" M 34.01 48.94 C 42.23 39.20 51.92 30.45 62.99 24.10 C 65.82 25.12 68.36 26.79 70.71 28.64 C 66.99 30.96 63.38 33.44 59.74 35.88 C 51.21 41.75 44.11 49.40 37.64 57.42 C 35.95 54.82 34.62 51.99 34.01 48.94 Z" />
</g>
<g id="#88839dff">
<path fill="#88839d" opacity="1.00" d=" M 172.18 27.04 C 170.53 26.54 171.56 24.58 172.95 24.80 C 173.49 25.08 174.58 25.63 175.12 25.91 C 174.36 26.93 173.38 27.31 172.18 27.04 Z" />
</g>
<g id="#7d6b96ff">
<path fill="#7d6b96" opacity="1.00" d=" M 154.42 26.97 C 172.63 32.30 188.94 43.39 201.64 57.40 C 206.30 62.57 210.67 68.10 213.82 74.35 C 213.34 74.27 212.38 74.12 211.90 74.04 C 202.91 59.77 191.04 47.08 176.37 38.57 C 168.67 33.91 160.12 30.95 151.62 28.09 C 152.32 27.81 153.72 27.25 154.42 26.97 Z" />
<path fill="#7d6b96" opacity="1.00" d=" M 182.91 109.85 C 186.82 106.91 190.89 104.20 195.16 101.81 C 194.32 104.78 192.85 107.51 191.03 109.99 C 188.33 109.92 185.62 109.88 182.91 109.85 Z" />
</g>
<g id="#9f89bbff">
<path fill="#9f89bb" opacity="1.00" d=" M 138.40 27.90 C 151.79 29.00 164.49 34.35 175.91 41.19 C 194.21 52.69 209.22 69.87 217.05 90.12 C 222.55 105.62 224.83 122.36 222.77 138.74 C 222.28 140.59 221.71 142.41 221.22 144.27 C 220.87 143.08 220.52 141.89 220.18 140.70 C 221.58 126.33 221.98 111.51 217.53 97.59 C 209.95 71.80 191.38 49.24 166.83 37.98 C 157.30 33.20 146.79 31.16 136.48 28.84 C 136.96 28.61 137.92 28.14 138.40 27.90 Z" />
</g>
<g id="#583094ff">
<path fill="#583094" opacity="1.00" d=" M 72.04 45.07 C 89.48 33.15 110.98 27.28 132.06 28.67 C 131.79 29.29 131.23 30.52 130.96 31.14 C 121.50 31.06 111.70 30.57 102.74 34.13 C 83.49 38.76 65.45 49.42 53.08 65.01 C 49.14 69.89 45.91 75.28 42.59 80.60 C 42.19 80.12 41.38 79.17 40.98 78.69 C 48.17 65.04 59.50 53.87 72.04 45.07 Z" />
<path fill="#583094" opacity="1.00" d=" M 106.07 34.49 C 112.09 34.01 118.05 32.83 124.11 32.79 C 123.81 33.44 123.21 34.72 122.91 35.36 C 107.68 35.38 92.83 40.15 79.51 47.33 C 79.05 46.96 78.12 46.21 77.65 45.84 C 86.35 40.44 95.96 36.28 106.07 34.49 Z" />
<path fill="#583094" opacity="1.00" d=" M 208.47 95.79 C 212.59 107.49 213.74 120.00 213.42 132.34 C 210.60 155.59 199.41 178.04 181.15 192.95 C 180.58 192.66 179.45 192.08 178.88 191.80 C 195.99 177.88 208.30 157.46 210.54 135.34 C 211.47 130.93 207.49 126.23 203.05 126.23 C 171.66 125.86 140.27 125.49 108.89 126.21 C 109.18 125.61 109.78 124.40 110.08 123.80 C 119.80 123.50 129.51 124.36 139.23 123.84 C 159.15 124.11 179.09 123.39 199.03 123.69 C 201.36 123.55 203.92 124.00 206.08 122.95 C 208.46 121.24 210.98 118.66 210.51 115.46 C 209.98 109.66 208.65 103.93 206.78 98.41 C 207.20 97.76 208.04 96.44 208.47 95.79 Z" />
</g>
<g id="#6839b0ff">
<path fill="#6839b0" opacity="1.00" d=" M 40.58 55.47 C 49.57 45.03 60.25 35.92 72.25 29.12 C 71.95 30.15 71.64 31.18 71.33 32.22 C 72.24 33.65 73.23 35.02 74.14 36.45 C 63.22 42.94 53.36 51.17 45.48 61.15 C 43.86 59.25 42.23 57.35 40.58 55.47 Z" />
<path fill="#6839b0" opacity="1.00" d=" M 47.02 62.58 C 55.40 52.21 65.66 42.93 77.70 37.03 C 78.14 37.25 79.01 37.67 79.45 37.88 C 73.79 41.73 67.77 45.09 62.54 49.54 C 57.10 53.87 52.59 59.18 47.94 64.31 C 47.71 63.88 47.25 63.01 47.02 62.58 Z" />
<path fill="#6839b0" opacity="1.00" d=" M 55.95 70.67 C 67.54 55.94 83.87 44.64 102.06 39.82 C 101.88 40.51 101.52 41.88 101.33 42.57 C 83.96 47.71 68.44 58.25 57.18 72.43 C 56.87 71.99 56.26 71.11 55.95 70.67 Z" />
<path fill="#6839b0" opacity="1.00" d=" M 50.65 70.44 C 57.92 60.62 67.09 52.02 77.65 45.84 C 78.12 46.21 79.05 46.96 79.51 47.33 C 75.00 50.51 70.43 53.62 66.20 57.18 C 60.90 61.62 56.69 67.14 52.29 72.42 C 51.88 71.92 51.06 70.93 50.65 70.44 Z" />
</g>
<g id="#7f7b94ff">
<path fill="#7f7b94" opacity="1.00" d=" M 183.14 30.84 C 184.25 31.15 185.25 31.66 186.16 32.36 C 186.09 35.80 181.68 33.29 183.14 30.84 Z" />
</g>
<g id="#8c899fff">
<path fill="#8c899f" opacity="1.00" d=" M 191.14 36.06 C 190.92 39.26 187.02 36.47 189.19 34.62 C 189.68 34.98 190.65 35.70 191.14 36.06 Z" />
<path fill="#8c899f" opacity="1.00" d=" M 205.57 50.31 C 203.71 51.74 202.35 47.75 204.94 47.95 C 205.21 48.23 205.76 48.79 206.03 49.06 C 205.91 49.37 205.69 49.99 205.57 50.31 Z" />
</g>
<g id="#4d2b7dff">
<path fill="#4d2b7d" opacity="1.00" d=" M 102.06 39.82 C 109.92 38.03 117.91 36.40 126.00 36.41 C 135.60 36.60 145.28 38.13 154.30 41.45 C 153.20 41.87 152.10 42.29 151.00 42.71 C 148.14 41.82 145.20 41.13 142.21 40.88 C 141.84 41.13 141.11 41.61 140.75 41.86 C 140.31 42.17 139.42 42.80 138.98 43.11 C 139.03 42.37 139.14 40.87 139.20 40.12 C 138.43 40.06 136.91 39.93 136.15 39.87 C 133.15 39.67 130.15 39.74 127.15 39.87 C 127.33 41.07 127.51 42.27 127.69 43.46 C 131.40 44.01 135.15 44.17 138.90 44.11 C 138.87 44.61 138.79 45.62 138.75 46.12 C 137.60 45.96 136.44 45.82 135.29 45.70 C 131.21 45.18 127.10 45.06 123.00 44.73 C 119.08 44.41 115.16 43.49 111.22 44.01 C 106.87 44.57 102.67 45.91 98.36 46.65 C 97.92 46.48 97.02 46.14 96.58 45.96 C 102.88 43.57 109.46 41.92 116.11 40.82 C 118.35 40.23 120.43 41.30 122.40 42.23 C 122.37 41.30 122.35 40.38 122.32 39.46 C 115.25 39.70 108.13 40.53 101.33 42.57 C 101.52 41.88 101.88 40.51 102.06 39.82 Z" />
</g>
<g id="#cbd3deff">
<path fill="#cbd3de" opacity="1.00" d=" M 192.90 39.64 C 193.38 39.53 194.35 39.33 194.83 39.22 C 195.65 39.95 196.45 40.70 197.23 41.46 C 195.76 40.90 194.32 40.30 192.90 39.64 Z" />
<path fill="#cbd3de" opacity="1.00" d=" M 198.86 45.03 C 198.81 44.30 198.76 43.58 198.71 42.85 C 199.82 43.88 200.92 44.93 202.05 45.94 C 200.99 45.63 199.92 45.32 198.86 45.03 Z" />
<path fill="#cbd3de" opacity="1.00" d=" M 207.96 54.18 C 207.90 53.36 207.84 52.55 207.78 51.73 C 208.77 53.16 209.80 54.57 210.84 55.97 C 209.89 55.36 208.92 54.77 207.96 54.18 Z" />
<path fill="#cbd3de" opacity="1.00" d=" M 20.48 87.64 C 21.37 87.16 22.25 86.70 23.15 86.24 C 22.24 87.83 21.32 89.42 20.28 90.92 C 20.33 90.10 20.43 88.46 20.48 87.64 Z" />
<path fill="#cbd3de" opacity="1.00" d=" M 19.45 92.08 C 22.24 92.56 20.49 97.01 18.11 95.34 C 18.22 94.11 18.66 93.03 19.45 92.08 Z" />
<path fill="#cbd3de" opacity="1.00" d=" M 15.14 111.57 C 15.66 111.70 16.69 111.97 17.21 112.11 C 17.15 112.62 17.05 113.64 16.99 114.16 C 16.55 114.43 15.66 114.97 15.21 115.24 L 14.68 114.83 C 14.66 113.71 14.81 112.63 15.14 111.57 Z" />
<path fill="#cbd3de" opacity="1.00" d=" M 128.93 148.69 C 134.97 148.56 140.96 149.61 147.00 149.40 C 155.72 149.20 164.45 149.27 173.18 149.20 C 172.61 150.02 172.02 150.84 171.42 151.64 C 162.65 150.63 153.80 150.81 144.99 150.58 C 142.03 150.45 139.14 151.08 136.29 151.81 C 134.09 151.70 131.88 151.59 129.67 151.49 C 129.49 150.79 129.12 149.39 128.93 148.69 Z" />
<path fill="#cbd3de" opacity="1.00" d=" M 123.01 234.84 C 124.33 233.25 126.28 233.82 127.99 234.30 C 126.48 235.42 124.73 235.52 123.01 234.84 Z" />
</g>
<g id="#9c97a3ff">
<path fill="#9c97a3" opacity="1.00" d=" M 127.15 39.87 C 130.15 39.74 133.15 39.67 136.15 39.87 C 136.01 40.54 135.74 41.90 135.60 42.57 C 132.96 42.83 130.32 43.12 127.69 43.46 C 127.51 42.27 127.33 41.07 127.15 39.87 Z" />
<path fill="#9c97a3" opacity="1.00" d=" M 21.25 162.88 C 22.19 163.45 23.13 164.03 24.07 164.61 C 23.56 165.48 23.06 166.35 22.48 167.18 C 22.04 165.75 21.65 164.31 21.25 162.88 Z" />
<path fill="#9c97a3" opacity="1.00" d=" M 26.69 175.80 C 27.26 175.71 28.39 175.54 28.96 175.45 C 29.07 176.80 29.18 178.14 29.32 179.49 C 28.45 178.25 27.52 177.06 26.69 175.80 Z" />
<path fill="#9c97a3" opacity="1.00" d=" M 45.62 201.65 C 47.91 201.64 49.46 202.75 49.52 205.14 C 48.19 204.01 46.91 202.82 45.62 201.65 Z" />
<path fill="#9c97a3" opacity="1.00" d=" M 50.70 206.19 C 52.17 206.98 53.66 207.71 55.15 208.45 C 54.68 208.57 53.74 208.79 53.28 208.90 C 52.37 208.04 51.55 207.10 50.70 206.19 Z" />
<path fill="#9c97a3" opacity="1.00" d=" M 55.53 210.94 C 56.48 210.82 57.44 210.71 58.39 210.61 C 58.87 211.39 59.34 212.17 59.81 212.96 C 59.39 212.96 58.56 212.97 58.14 212.97 C 57.25 212.32 56.38 211.65 55.53 210.94 Z" />
<path fill="#9c97a3" opacity="1.00" d=" M 84.57 228.00 C 84.96 227.53 85.73 226.59 86.12 226.12 C 87.08 227.09 88.03 228.07 89.01 229.02 C 87.53 228.67 86.04 228.37 84.57 228.00 Z" />
<path fill="#9c97a3" opacity="1.00" d=" M 96.44 231.93 C 97.40 231.39 98.31 230.65 99.43 230.47 C 100.04 231.29 100.63 232.13 101.18 232.99 C 99.60 232.63 98.02 232.27 96.44 231.93 Z" />
</g>
<g id="#736882ff">
<path fill="#736882" opacity="1.00" d=" M 136.15 39.87 C 136.91 39.93 138.43 40.06 139.20 40.12 C 139.14 40.87 139.03 42.37 138.98 43.11 L 138.90 44.11 C 135.15 44.17 131.40 44.01 127.69 43.46 C 130.32 43.12 132.96 42.83 135.60 42.57 C 135.74 41.90 136.01 40.54 136.15 39.87 Z" />
</g>
<g id="#6e5b8aff">
<path fill="#6e5b8a" opacity="1.00" d=" M 140.75 41.86 C 141.11 41.61 141.84 41.13 142.21 40.88 C 145.20 41.13 148.14 41.82 151.00 42.71 C 176.16 50.69 197.15 70.88 205.89 95.82 C 205.74 97.06 205.54 98.30 205.35 99.54 C 205.02 99.99 204.36 100.90 204.04 101.35 C 203.93 100.80 203.73 99.69 203.62 99.14 C 203.89 96.49 204.06 93.73 202.82 91.27 C 192.63 68.16 171.66 49.80 146.94 43.98 C 145.00 43.61 143.05 44.06 141.15 44.37 C 141.05 43.75 140.85 42.49 140.75 41.86 Z" />
<path fill="#6e5b8a" opacity="1.00" d=" M 98.36 46.65 C 102.67 45.91 106.87 44.57 111.22 44.01 C 115.16 43.49 119.08 44.41 123.00 44.73 C 127.10 45.06 131.21 45.18 135.29 45.70 C 117.49 44.19 99.32 48.60 84.28 58.23 C 72.20 65.58 62.72 76.60 56.07 88.99 C 55.77 88.38 55.17 87.15 54.87 86.53 C 57.56 80.70 61.72 75.70 65.99 70.96 C 72.35 64.21 79.53 58.10 87.74 53.73 C 89.80 52.64 91.63 51.16 93.38 49.63 C 95.01 48.60 96.67 47.59 98.36 46.65 Z" />
</g>
<g id="#28173eff">
<path fill="#28173e" opacity="1.00" d=" M 138.98 43.11 C 139.42 42.80 140.31 42.17 140.75 41.86 C 140.85 42.49 141.05 43.75 141.15 44.37 C 143.05 44.06 145.00 43.61 146.94 43.98 C 171.66 49.80 192.63 68.16 202.82 91.27 C 204.06 93.73 203.89 96.49 203.62 99.14 C 202.92 97.70 202.20 96.27 201.47 94.84 C 189.94 69.95 166.42 49.77 138.75 46.12 C 138.79 45.62 138.87 44.61 138.90 44.11 L 138.98 43.11 Z" />
</g>
<g id="#5f31a7ff">
<path fill="#5f31a7" opacity="1.00" d=" M 67.23 64.24 C 75.69 56.33 85.53 49.64 96.58 45.96 C 97.02 46.14 97.92 46.48 98.36 46.65 C 96.67 47.59 95.01 48.60 93.38 49.63 C 84.19 53.28 75.80 58.84 68.61 65.60 C 62.66 71.22 58.19 78.11 53.74 84.92 C 53.51 85.26 53.05 85.95 52.82 86.30 C 52.55 85.69 52.00 84.48 51.72 83.87 C 55.61 76.42 61.24 70.06 67.23 64.24 Z" />
<path fill="#5f31a7" opacity="1.00" d=" M 97.80 118.79 C 112.53 118.48 127.26 119.35 142.00 119.16 C 154.77 119.15 167.54 118.68 180.32 118.90 C 181.04 118.95 182.47 119.05 183.19 119.10 C 182.07 119.84 180.94 120.57 179.80 121.26 C 156.38 121.59 132.95 120.79 109.54 121.65 C 106.73 121.40 103.91 121.28 101.08 121.25 C 99.98 120.43 98.89 119.61 97.80 118.79 Z" />
<path fill="#5f31a7" opacity="1.00" d=" M 106.75 128.32 C 136.83 128.10 166.92 128.70 197.00 128.10 C 199.54 128.10 202.12 127.94 204.62 128.45 C 207.21 129.34 209.20 132.08 208.70 134.89 C 207.86 142.59 205.59 150.12 202.59 157.26 C 202.08 157.31 201.05 157.40 200.54 157.45 C 202.94 151.20 205.46 144.79 205.79 138.03 C 205.92 135.72 204.18 133.89 202.66 132.38 C 200.65 130.41 197.58 130.89 195.02 130.70 C 169.68 130.75 144.33 130.43 118.99 130.87 C 115.24 130.94 111.50 130.76 107.76 130.71 C 111.87 130.20 115.98 129.76 120.12 129.54 C 115.65 129.29 111.19 128.86 106.75 128.32 Z" />
</g>
<g id="#553298ff">
<path fill="#553298" opacity="1.00" d=" M 34.01 48.94 C 34.62 51.99 35.95 54.82 37.64 57.42 C 34.44 61.54 31.73 66.01 29.08 70.50 C 27.04 68.63 24.99 66.79 22.92 64.97 C 25.89 59.15 29.99 54.04 34.01 48.94 Z" />
</g>
<g id="#553199ff">
<path fill="#553199" opacity="1.00" d=" M 29.61 71.45 C 32.69 65.75 36.43 60.43 40.58 55.47 C 42.23 57.35 43.86 59.25 45.48 61.15 C 41.63 66.05 38.41 71.40 35.44 76.86 C 34.91 75.64 34.38 74.41 33.86 73.18 C 32.44 72.60 31.03 72.03 29.61 71.45 Z" />
</g>
<g id="#432683ff">
<path fill="#432683" opacity="1.00" d=" M 35.78 79.22 C 39.04 73.36 42.81 67.80 47.02 62.58 C 47.25 63.01 47.71 63.88 47.94 64.31 C 43.69 70.20 39.94 76.44 36.95 83.06 C 35.64 85.48 34.54 88.00 33.46 90.53 C 32.85 90.60 31.65 90.75 31.05 90.83 C 32.49 86.91 34.23 83.10 35.78 79.22 Z" />
<path fill="#432683" opacity="1.00" d=" M 83.01 124.36 C 91.93 122.70 101.06 124.22 110.08 123.80 C 109.78 124.40 109.18 125.61 108.89 126.21 C 100.34 126.30 91.79 126.39 83.24 126.38 C 83.25 126.69 83.28 127.30 83.29 127.61 C 91.12 127.69 98.96 127.48 106.75 128.32 C 111.19 128.86 115.65 129.29 120.12 129.54 C 115.98 129.76 111.87 130.20 107.76 130.71 C 99.60 131.64 91.37 131.15 83.18 131.52 C 83.21 130.97 83.27 129.86 83.30 129.31 C 81.88 128.50 80.46 127.69 79.05 126.87 C 80.35 126.00 81.66 125.14 83.01 124.36 Z" />
</g>
<g id="#3a2675ff">
<path fill="#3a2675" opacity="1.00" d=" M 22.92 64.97 C 24.99 66.79 27.04 68.63 29.08 70.50 C 26.66 74.81 24.41 79.27 23.06 84.05 C 25.42 79.94 27.21 75.54 29.61 71.45 C 31.03 72.03 32.44 72.60 33.86 73.18 C 34.38 74.41 34.91 75.64 35.44 76.86 L 35.12 77.49 C 32.21 82.16 29.90 87.26 29.19 92.76 C 30.87 92.64 32.56 92.60 34.22 92.25 C 36.41 89.36 37.39 85.80 38.75 82.49 C 39.51 81.23 40.26 79.97 40.98 78.69 C 41.38 79.17 42.19 80.12 42.59 80.60 C 39.38 86.26 38.72 93.38 34.19 98.21 C 29.06 100.02 22.87 100.09 17.68 98.34 C 17.79 97.59 18.00 96.09 18.11 95.34 C 20.49 97.01 22.24 92.56 19.45 92.08 C 19.65 91.79 20.07 91.21 20.28 90.92 C 21.32 89.42 22.24 87.83 23.15 86.24 C 22.25 86.70 21.37 87.16 20.48 87.64 C 18.29 86.56 16.10 85.51 13.89 84.48 C 15.72 77.51 19.33 71.16 22.92 64.97 Z" />
</g>
<g id="#4a2d89ff">
<path fill="#4a2d89" opacity="1.00" d=" M 41.64 85.65 C 43.98 80.22 47.07 75.14 50.65 70.44 C 51.06 70.93 51.88 71.92 52.29 72.42 C 49.15 77.33 46.16 82.33 43.44 87.48 C 42.99 87.02 42.09 86.11 41.64 85.65 Z" />
<path fill="#4a2d89" opacity="1.00" d=" M 42.70 93.70 C 45.69 85.31 50.28 77.52 55.95 70.67 C 56.26 71.11 56.87 71.99 57.18 72.43 C 52.05 79.85 47.53 87.77 44.61 96.34 C 44.14 95.68 43.18 94.36 42.70 93.70 Z" />
<path fill="#4a2d89" opacity="1.00" d=" M 179.04 201.78 C 185.15 197.41 190.85 192.44 195.91 186.88 C 196.27 187.24 196.99 187.96 197.35 188.31 C 192.22 194.19 186.54 199.65 180.04 203.99 C 179.79 203.43 179.29 202.33 179.04 201.78 Z" />
<path fill="#4a2d89" opacity="1.00" d=" M 178.99 211.33 C 185.33 207.43 191.24 202.83 196.63 197.70 C 198.15 199.19 199.68 200.66 201.22 202.13 C 198.29 206.36 193.60 208.90 190.66 213.09 C 195.31 210.65 198.91 206.75 203.18 203.76 C 204.94 205.48 206.70 207.20 208.45 208.94 C 202.87 214.52 197.06 220.10 190.19 224.07 C 190.79 223.04 191.36 221.99 191.92 220.94 C 190.62 219.41 189.33 217.88 188.05 216.33 C 188.23 215.53 188.40 214.74 188.57 213.95 C 187.63 214.37 186.69 214.79 185.77 215.27 C 183.79 213.52 181.46 212.24 178.99 211.33 Z" />
</g>
<g id="#5e349eff">
<path fill="#5e349e" opacity="1.00" d=" M 100.91 81.70 C 114.52 72.68 132.99 71.11 147.71 78.37 C 156.98 83.05 165.67 89.84 170.76 99.05 C 162.81 99.68 154.83 99.00 146.92 98.29 C 144.23 97.27 141.41 96.74 138.54 96.63 C 138.79 95.53 139.04 94.44 139.29 93.35 C 134.76 89.32 130.28 85.17 125.24 81.76 C 121.16 78.85 115.84 79.96 111.44 81.43 C 107.05 83.02 102.69 85.05 99.21 88.22 C 96.60 90.66 95.65 94.23 94.47 97.48 C 93.17 97.59 91.87 97.72 90.58 97.85 C 92.16 90.96 97.78 86.53 102.86 82.17 C 102.37 82.05 101.40 81.82 100.91 81.70 Z" />
</g>
<g id="#8983b4ff">
<path fill="#8983b4" opacity="1.00" d=" M 29.19 92.76 C 29.90 87.26 32.21 82.16 35.12 77.49 C 35.28 77.92 35.61 78.79 35.78 79.22 C 34.23 83.10 32.49 86.91 31.05 90.83 C 31.65 90.75 32.85 90.60 33.46 90.53 C 34.54 88.00 35.64 85.48 36.95 83.06 C 37.40 82.92 38.30 82.63 38.75 82.49 C 37.39 85.80 36.41 89.36 34.22 92.25 C 32.56 92.60 30.87 92.64 29.19 92.76 Z" />
<path fill="#8983b4" opacity="1.00" d=" M 84.72 135.03 L 85.58 134.80 C 93.02 135.74 100.52 135.30 107.99 135.32 C 119.07 135.38 130.15 135.10 141.22 135.34 C 133.46 136.06 125.66 136.09 117.88 136.56 C 122.38 136.57 126.89 136.69 131.36 137.36 C 130.88 137.85 129.92 138.84 129.44 139.33 C 127.16 139.15 124.88 139.02 122.60 138.91 C 120.45 138.34 118.29 137.68 116.05 137.61 C 105.54 137.39 94.98 138.15 84.51 136.91 C 84.56 136.44 84.67 135.50 84.72 135.03 Z" />
<path fill="#8983b4" opacity="1.00" d=" M 92.38 149.92 C 95.23 149.51 98.11 149.27 100.99 149.26 C 110.31 149.33 119.61 148.54 128.93 148.69 C 129.12 149.39 129.49 150.79 129.67 151.49 C 131.88 151.59 134.09 151.70 136.29 151.81 L 137.01 152.61 C 131.62 152.87 126.39 151.23 121.01 151.16 C 113.58 150.99 106.14 150.49 98.70 151.04 C 96.58 150.78 94.47 150.37 92.38 149.92 Z" />
<path fill="#8983b4" opacity="1.00" d=" M 142.75 233.74 C 143.45 232.14 145.11 231.58 146.61 231.00 C 146.64 231.70 146.71 233.08 146.74 233.78 C 145.41 233.78 144.08 233.77 142.75 233.74 Z" />
<path fill="#8983b4" opacity="1.00" d=" M 135.85 234.77 C 136.63 232.66 139.83 231.21 140.95 233.82 C 139.51 235.00 137.57 234.69 135.85 234.77 Z" />
</g>
<g id="#693ab1ff">
<path fill="#693ab1" opacity="1.00" d=" M 111.44 81.43 C 115.84 79.96 121.16 78.85 125.24 81.76 C 130.28 85.17 134.76 89.32 139.29 93.35 C 139.04 94.44 138.79 95.53 138.54 96.63 C 141.41 96.74 144.23 97.27 146.92 98.29 C 143.25 98.14 139.58 98.45 135.95 98.96 C 127.65 99.97 119.31 98.76 111.00 98.83 C 103.95 99.44 96.88 99.32 89.82 99.44 C 90.01 99.05 90.39 98.25 90.58 97.85 C 91.87 97.72 93.17 97.59 94.47 97.48 C 95.65 94.23 96.60 90.66 99.21 88.22 C 102.69 85.05 107.05 83.02 111.44 81.43 Z" />
<path fill="#693ab1" opacity="1.00" d=" M 90.26 100.48 C 103.83 100.10 117.43 100.56 131.01 100.31 C 136.05 99.98 140.96 101.87 145.99 101.17 C 144.84 101.76 143.72 102.41 142.60 103.04 C 137.41 101.71 132.23 103.76 127.00 103.56 C 114.58 103.33 102.15 103.85 89.73 103.40 C 89.86 102.67 90.12 101.21 90.26 100.48 Z" />
</g>
<g id="#8b7fa2ff">
<path fill="#8b7fa2" opacity="1.00" d=" M 225.01 79.54 C 226.99 80.69 227.97 82.38 227.51 84.68 C 226.82 84.25 225.45 83.41 224.76 82.98 C 224.82 82.12 224.95 80.40 225.01 79.54 Z" />
</g>
<g id="#3f2463ff">
<path fill="#3f2463" opacity="1.00" d=" M 76.27 122.11 C 77.12 105.68 87.08 90.33 100.91 81.70 C 101.40 81.82 102.37 82.05 102.86 82.17 C 97.78 86.53 92.16 90.96 90.58 97.85 C 90.39 98.25 90.01 99.05 89.82 99.44 C 88.53 99.46 87.24 99.47 85.95 99.49 C 87.38 99.86 88.81 100.21 90.26 100.48 C 90.12 101.21 89.86 102.67 89.73 103.40 C 88.10 103.66 86.49 103.94 84.88 104.26 C 85.34 104.35 86.27 104.53 86.74 104.62 C 87.57 105.53 88.39 106.45 89.21 107.38 C 86.89 107.40 84.73 108.26 82.69 109.29 C 84.39 109.50 86.10 109.69 87.81 109.78 C 88.57 110.65 89.34 111.51 90.10 112.37 C 86.35 112.22 82.36 112.31 79.42 114.98 C 80.90 114.72 82.37 114.45 83.85 114.28 C 85.91 114.59 87.93 115.05 89.96 115.49 C 88.87 116.00 87.78 116.50 86.68 116.99 C 85.35 117.51 83.99 117.96 82.60 118.26 C 87.64 118.94 92.73 118.74 97.80 118.79 C 98.89 119.61 99.98 120.43 101.08 121.25 C 94.82 121.20 88.54 121.18 82.29 121.73 C 82.47 122.39 82.83 123.70 83.01 124.36 C 80.71 123.79 78.46 123.03 76.27 122.11 Z" />
</g>
<g id="#281e5dff">
<path fill="#281e5d" opacity="1.00" d=" M 43.79 103.14 C 45.79 96.47 48.47 90.03 51.72 83.87 C 52.00 84.48 52.55 85.69 52.82 86.30 C 48.90 92.73 47.11 100.14 45.15 107.34 C 44.59 110.22 41.99 112.38 39.03 112.33 C 31.77 112.55 24.46 112.71 17.21 112.11 C 16.69 111.97 15.66 111.70 15.14 111.57 C 14.81 112.63 14.66 113.71 14.68 114.83 C 14.65 115.43 14.60 116.63 14.58 117.23 C 14.40 115.24 14.18 113.25 13.59 111.34 C 11.79 110.32 9.69 110.09 7.71 109.62 C 8.63 101.03 10.49 92.45 13.89 84.48 C 16.10 85.51 18.29 86.56 20.48 87.64 C 20.43 88.46 20.33 90.10 20.28 90.92 C 20.07 91.21 19.65 91.79 19.45 92.08 C 18.66 93.03 18.22 94.11 18.11 95.34 C 18.00 96.09 17.79 97.59 17.68 98.34 C 17.52 99.41 17.34 100.48 17.15 101.55 C 22.63 97.40 30.50 102.12 35.78 97.70 C 38.55 94.16 39.49 89.56 41.64 85.65 C 42.09 86.11 42.99 87.02 43.44 87.48 C 41.96 91.35 40.91 95.38 39.36 99.22 C 38.30 101.82 35.83 103.86 32.97 104.02 C 27.44 104.57 21.87 104.05 16.34 104.41 C 16.33 106.07 16.33 107.73 16.32 109.39 C 22.88 109.10 29.44 109.45 35.99 109.35 C 39.65 109.44 42.90 106.61 43.79 103.14 Z" />
<path fill="#281e5d" opacity="1.00" d=" M 179.04 201.78 C 179.29 202.33 179.79 203.43 180.04 203.99 C 173.01 208.31 166.13 213.32 158.02 215.40 C 153.41 216.43 148.98 218.17 144.29 218.83 C 142.78 218.45 141.29 218.00 139.78 217.62 C 147.30 215.59 155.22 214.67 162.18 210.97 C 167.96 208.23 173.81 205.51 179.04 201.78 Z" />
</g>
<g id="#4e2a81ff">
<path fill="#4e2a81" opacity="1.00" d=" M 218.95 83.95 C 221.52 85.88 224.01 90.06 227.68 88.84 C 229.29 91.32 230.02 94.21 230.76 97.04 C 231.05 96.55 231.62 95.55 231.91 95.06 C 234.27 97.03 236.90 98.64 239.58 100.14 C 239.74 99.31 240.07 97.67 240.23 96.84 C 242.11 102.74 242.68 108.97 243.50 115.08 C 243.81 126.01 244.17 137.18 241.18 147.81 C 238.86 147.65 236.55 147.48 234.23 147.46 L 234.28 146.42 C 234.44 144.65 234.61 142.88 234.72 141.10 C 234.84 137.03 235.50 132.93 234.80 128.88 C 233.80 131.54 233.52 134.36 233.36 137.18 C 232.72 138.98 232.00 140.76 231.29 142.54 C 229.95 142.50 228.62 142.46 227.29 142.43 C 227.08 141.92 226.66 140.90 226.45 140.39 C 229.70 121.33 226.07 101.73 218.95 83.95 M 231.39 99.33 C 230.40 100.29 230.79 102.47 232.25 102.73 C 234.38 102.52 233.38 98.24 231.39 99.33 M 232.28 104.96 C 232.50 106.67 232.81 108.38 233.23 110.06 C 235.17 108.47 234.51 105.87 232.28 104.96 M 233.28 112.36 C 234.21 115.83 234.45 119.40 234.30 122.99 C 234.62 122.62 235.25 121.90 235.57 121.54 C 234.97 118.46 234.63 115.34 234.70 112.21 C 234.34 112.25 233.64 112.32 233.28 112.36 M 235.69 128.06 C 235.71 126.69 235.73 125.33 235.73 123.97 C 233.07 123.79 233.18 128.00 235.69 128.06 Z" />
<path fill="#4e2a81" opacity="1.00" d=" M 218.38 87.70 C 224.49 101.85 225.95 117.49 225.29 132.76 C 225.00 135.98 224.49 139.18 223.97 142.38 C 223.57 141.16 223.17 139.95 222.77 138.74 C 224.83 122.36 222.55 105.62 217.05 90.12 C 217.38 89.51 218.04 88.30 218.38 87.70 Z" />
</g>
<g id="#66779cff">
<path fill="#66779c" opacity="1.00" d=" M 52.82 86.30 C 53.05 85.95 53.51 85.26 53.74 84.92 C 53.85 85.73 54.06 87.34 54.17 88.15 C 52.24 93.23 49.95 98.19 48.56 103.45 C 47.42 106.94 46.75 111.27 43.19 113.17 C 40.31 114.50 37.01 114.14 33.92 114.32 C 33.86 115.05 33.73 116.50 33.66 117.23 C 38.41 117.70 43.23 117.38 47.70 115.61 C 47.57 116.25 47.31 117.54 47.19 118.19 C 37.05 119.55 26.80 118.08 16.62 118.76 C 16.68 119.58 16.79 121.23 16.85 122.05 C 21.91 122.25 26.97 121.98 32.02 121.59 C 32.39 123.39 32.76 125.20 33.11 127.00 C 28.96 127.45 24.72 127.40 20.71 126.08 C 20.59 125.38 20.36 123.99 20.24 123.30 C 18.96 123.43 17.69 123.55 16.41 123.68 C 16.32 125.62 16.18 127.57 15.95 129.50 C 12.90 126.12 14.79 121.29 14.58 117.23 C 14.60 116.63 14.65 115.43 14.68 114.83 L 15.21 115.24 C 16.62 116.58 18.38 117.33 20.26 117.75 C 20.25 116.73 20.24 114.71 20.23 113.70 C 19.42 113.81 17.80 114.04 16.99 114.16 C 17.05 113.64 17.15 112.62 17.21 112.11 C 24.46 112.71 31.77 112.55 39.03 112.33 C 41.99 112.38 44.59 110.22 45.15 107.34 C 47.11 100.14 48.90 92.73 52.82 86.30 M 15.11 118.63 C 14.04 119.18 14.22 121.69 15.68 121.36 C 16.65 120.77 16.55 118.33 15.11 118.63 Z" />
<path fill="#66779c" opacity="1.00" d=" M 145.44 206.44 C 152.26 205.18 158.32 201.61 164.80 199.30 C 165.20 199.45 166.01 199.76 166.42 199.91 C 160.74 203.60 154.19 205.53 147.80 207.62 C 145.74 208.17 143.65 208.57 141.55 208.97 C 141.37 207.54 141.18 206.11 140.98 204.69 C 142.27 205.65 143.68 206.97 145.44 206.44 Z" />
</g>
<g id="#2a1f61ff">
<path fill="#2a1f61" opacity="1.00" d=" M 54.87 86.53 C 55.17 87.15 55.77 88.38 56.07 88.99 C 51.59 96.92 49.63 105.89 47.88 114.73 L 47.70 115.61 C 43.23 117.38 38.41 117.70 33.66 117.23 C 33.73 116.50 33.86 115.05 33.92 114.32 C 37.01 114.14 40.31 114.50 43.19 113.17 C 46.75 111.27 47.42 106.94 48.56 103.45 C 49.95 98.19 52.24 93.23 54.17 88.15 C 54.35 87.75 54.69 86.94 54.87 86.53 Z" />
</g>
<g id="#25185aff">
<path fill="#25185a" opacity="1.00" d=" M 42.70 93.70 C 43.18 94.36 44.14 95.68 44.61 96.34 C 42.99 100.56 42.77 106.48 37.80 108.26 C 31.09 109.18 24.25 108.51 17.49 108.68 C 17.50 107.67 17.53 105.66 17.55 104.66 C 23.56 104.43 29.61 105.10 35.58 104.27 C 40.26 102.94 41.22 97.64 42.70 93.70 Z" />
</g>
<g id="#9d88baff">
<path fill="#9d88ba" opacity="1.00" d=" M 201.47 94.84 C 202.20 96.27 202.92 97.70 203.62 99.14 C 203.73 99.69 203.93 100.80 204.04 101.35 C 204.56 105.18 206.02 108.89 205.94 112.79 C 204.80 115.69 202.47 118.92 199.06 119.02 C 193.78 119.36 188.48 119.19 183.19 119.10 C 182.47 119.05 181.04 118.95 180.32 118.90 C 178.79 118.32 177.29 117.67 175.76 117.10 C 184.27 116.30 192.83 117.30 201.34 116.41 C 206.02 111.15 202.62 103.96 200.36 98.40 C 200.73 97.21 201.10 96.03 201.47 94.84 Z" />
</g>
<g id="#542d8dff">
<path fill="#542d8d" opacity="1.00" d=" M 195.16 101.81 C 196.92 100.71 198.63 99.55 200.36 98.40 C 202.62 103.96 206.02 111.15 201.34 116.41 C 195.18 115.81 188.97 116.25 182.83 115.50 C 187.25 114.96 191.77 115.29 196.14 114.32 C 197.76 112.53 199.43 110.71 200.43 108.49 C 201.30 106.08 199.68 103.79 198.81 101.63 C 198.89 105.25 199.63 109.93 195.69 111.89 C 190.71 113.06 185.38 112.74 180.39 111.71 C 181.02 111.24 182.28 110.32 182.91 109.85 C 185.62 109.88 188.33 109.92 191.03 109.99 C 192.85 107.51 194.32 104.78 195.16 101.81 Z" />
</g>
<g id="#9e8db6ff">
<path fill="#9e8db6" opacity="1.00" d=" M 231.39 99.33 C 233.38 98.24 234.38 102.52 232.25 102.73 C 230.79 102.47 230.40 100.29 231.39 99.33 Z" />
</g>
<g id="#6338a2ff">
<path fill="#6338a2" opacity="1.00" d=" M 145.99 101.17 C 150.51 99.66 155.33 100.38 160.00 100.19 C 163.63 100.19 167.27 99.50 170.90 99.88 C 173.06 100.72 173.71 103.19 174.81 105.01 C 174.43 104.93 173.67 104.76 173.29 104.67 C 163.24 102.25 152.75 104.83 142.60 103.04 C 143.72 102.41 144.84 101.76 145.99 101.17 Z" />
</g>
<g id="#552e90ff">
<path fill="#552e90" opacity="1.00" d=" M 205.35 99.54 C 207.03 104.87 208.79 110.32 208.75 115.97 C 208.90 118.97 205.92 121.45 203.03 121.37 C 195.29 121.64 187.54 121.26 179.80 121.26 C 180.94 120.57 182.07 119.84 183.19 119.10 C 188.48 119.19 193.78 119.36 199.06 119.02 C 202.47 118.92 204.80 115.69 205.94 112.79 C 206.02 108.89 204.56 105.18 204.04 101.35 C 204.36 100.90 205.02 99.99 205.35 99.54 Z" />
</g>
<g id="#f6f5f6ff">
<path fill="#f6f5f6" opacity="1.00" d=" M 84.88 104.26 C 86.49 103.94 88.10 103.66 89.73 103.40 C 102.15 103.85 114.58 103.33 127.00 103.56 C 132.23 103.76 137.41 101.71 142.60 103.04 C 152.75 104.83 163.24 102.25 173.29 104.67 C 161.22 104.86 149.14 105.25 137.08 105.64 C 129.07 104.86 121.02 105.48 112.99 105.10 C 104.26 104.46 95.49 104.79 86.74 104.62 C 86.27 104.53 85.34 104.35 84.88 104.26 Z" />
</g>
<g id="#5929a0ff">
<path fill="#5929a0" opacity="1.00" d=" M 86.74 104.62 C 95.49 104.79 104.26 104.46 112.99 105.10 C 121.02 105.48 129.07 104.86 137.08 105.64 C 149.14 105.25 161.22 104.86 173.29 104.67 C 173.67 104.76 174.43 104.93 174.81 105.01 C 175.26 105.95 175.73 106.89 176.20 107.82 C 164.23 107.64 152.25 107.70 140.28 107.59 C 137.22 107.43 134.16 107.32 131.10 107.35 C 117.14 107.36 103.17 107.60 89.21 107.38 C 88.39 106.45 87.57 105.53 86.74 104.62 Z" />
</g>
<g id="#b29ed8ff">
<path fill="#b29ed8" opacity="1.00" d=" M 82.69 109.29 C 84.73 108.26 86.89 107.40 89.21 107.38 C 103.17 107.60 117.14 107.36 131.10 107.35 C 131.00 108.11 130.78 109.63 130.67 110.39 C 116.40 109.98 102.10 109.81 87.81 109.78 C 86.10 109.69 84.39 109.50 82.69 109.29 Z" />
</g>
<g id="#181239ff">
<path fill="#181239" opacity="1.00" d=" M 7.71 109.62 C 9.69 110.09 11.79 110.32 13.59 111.34 C 14.18 113.25 14.40 115.24 14.58 117.23 C 14.79 121.29 12.90 126.12 15.95 129.50 C 16.18 127.57 16.32 125.62 16.41 123.68 C 17.69 123.55 18.96 123.43 20.24 123.30 C 20.36 123.99 20.59 125.38 20.71 126.08 C 19.59 126.50 18.48 126.92 17.37 127.36 C 23.22 128.66 29.24 127.87 35.15 128.53 C 28.72 128.81 21.90 127.98 16.01 131.19 C 14.42 131.58 14.48 133.57 14.81 134.82 C 14.92 135.53 15.13 136.95 15.24 137.66 C 15.47 139.24 15.73 140.82 15.98 142.39 C 16.06 142.94 16.22 144.04 16.30 144.59 C 16.44 145.86 16.56 147.13 16.67 148.41 C 16.72 149.04 16.81 150.31 16.86 150.94 C 15.13 151.71 13.41 152.47 11.69 153.24 C 11.75 155.23 11.80 157.22 11.92 159.20 C 8.32 149.57 7.28 139.19 6.57 129.00 C 6.06 122.50 7.26 116.08 7.71 109.62 Z" />
</g>
<g id="#6234aaff">
<path fill="#6234aa" opacity="1.00" d=" M 87.81 109.78 C 102.10 109.81 116.40 109.98 130.67 110.39 C 133.86 110.68 137.07 110.71 140.23 110.23 C 148.13 109.52 156.08 109.99 164.00 109.74 C 168.27 109.81 172.61 109.24 176.82 110.14 C 177.07 110.65 177.57 111.67 177.81 112.18 C 168.55 112.68 159.27 112.24 149.99 112.35 C 130.03 112.16 110.07 112.50 90.10 112.37 C 89.34 111.51 88.57 110.65 87.81 109.78 Z" />
</g>
<g id="#242252ff">
<path fill="#242252" opacity="1.00" d=" M 16.99 114.16 C 17.80 114.04 19.42 113.81 20.23 113.70 C 20.24 114.71 20.25 116.73 20.26 117.75 C 18.38 117.33 16.62 116.58 15.21 115.24 C 15.66 114.97 16.55 114.43 16.99 114.16 Z" />
</g>
<g id="#6235a9ff">
<path fill="#6235a9" opacity="1.00" d=" M 83.85 114.28 C 88.88 113.47 93.96 113.95 99.00 114.16 C 131.38 114.80 163.77 114.05 196.14 114.32 C 191.77 115.29 187.25 114.96 182.83 115.50 C 188.97 116.25 195.18 115.81 201.34 116.41 C 192.83 117.30 184.27 116.30 175.76 117.10 C 159.84 116.94 143.92 116.59 128.00 116.73 C 114.23 116.92 100.44 117.93 86.68 116.99 C 87.78 116.50 88.87 116.00 89.96 115.49 C 87.93 115.05 85.91 114.59 83.85 114.28 Z" />
<path fill="#6235a9" opacity="1.00" d=" M 221.22 144.27 C 221.71 142.41 222.28 140.59 222.77 138.74 C 223.17 139.95 223.57 141.16 223.97 142.38 C 220.81 161.40 211.28 179.12 198.33 193.27 C 197.97 192.91 197.25 192.18 196.89 191.82 C 209.39 178.74 217.93 162.05 221.22 144.27 Z" />
<path fill="#6235a9" opacity="1.00" d=" M 195.91 186.88 C 206.95 174.79 213.94 159.53 217.52 143.65 C 217.91 144.34 218.69 145.71 219.08 146.39 C 215.48 161.88 207.71 176.31 197.35 188.31 C 196.99 187.96 196.27 187.24 195.91 186.88 Z" />
</g>
<g id="#454d77ff">
<path fill="#454d77" opacity="1.00" d=" M 47.70 115.61 L 47.88 114.73 C 47.55 121.47 47.27 128.27 48.24 134.98 C 45.29 133.26 41.95 132.34 38.54 133.03 C 40.64 135.09 43.11 136.73 45.34 138.65 C 47.02 140.67 47.31 143.46 48.07 145.91 C 49.91 154.13 53.69 161.77 58.09 168.91 C 60.44 172.81 64.17 175.86 65.51 180.35 C 55.29 169.75 48.60 156.20 45.00 142.02 C 44.46 138.99 41.51 137.94 38.81 137.73 C 40.26 140.61 42.34 143.11 43.83 145.96 C 45.40 149.61 46.09 153.56 47.64 157.21 C 54.32 173.50 66.13 187.82 81.40 196.72 C 92.26 203.56 104.84 207.43 117.59 208.54 C 119.97 208.80 121.39 206.50 123.02 205.18 C 122.78 206.99 122.56 208.81 122.34 210.63 C 90.35 209.66 60.29 189.00 47.10 159.97 C 44.17 154.52 43.75 147.92 39.66 143.09 C 38.98 147.44 41.16 151.39 42.57 155.34 C 49.10 173.83 62.28 189.82 79.00 200.01 C 96.83 211.12 118.82 215.10 139.45 211.35 C 143.31 210.63 147.10 209.51 151.04 209.27 C 151.61 209.41 152.75 209.69 153.32 209.84 C 150.48 210.96 147.66 212.14 144.77 213.12 C 122.76 217.49 99.15 213.66 79.90 202.08 C 61.77 191.47 47.52 174.38 40.52 154.57 C 39.79 152.63 39.01 150.72 38.21 148.82 C 36.06 148.10 33.91 147.38 31.80 146.54 C 29.06 141.80 25.08 137.86 20.46 134.97 C 22.17 139.75 26.18 143.16 30.28 145.89 C 30.29 146.56 30.31 147.90 30.32 148.57 C 26.77 145.69 24.35 141.54 20.19 139.41 C 20.62 141.91 22.07 145.13 19.48 146.95 C 18.42 146.16 17.36 145.37 16.30 144.59 C 16.22 144.04 16.06 142.94 15.98 142.39 C 16.53 141.61 17.06 140.83 17.58 140.04 C 16.80 139.25 16.02 138.45 15.24 137.66 C 15.13 136.95 14.92 135.53 14.81 134.82 C 16.09 134.18 16.69 132.47 16.01 131.19 C 21.90 127.98 28.72 128.81 35.15 128.53 C 29.24 127.87 23.22 128.66 17.37 127.36 C 18.48 126.92 19.59 126.50 20.71 126.08 C 24.72 127.40 28.96 127.45 33.11 127.00 C 32.76 125.20 32.39 123.39 32.02 121.59 C 36.91 121.24 41.82 121.01 46.71 120.74 C 46.83 120.10 47.07 118.82 47.19 118.19 C 47.31 117.54 47.57 116.25 47.70 115.61 M 33.85 123.84 C 33.85 124.40 33.83 125.52 33.82 126.09 C 38.22 126.07 42.61 125.98 47.01 125.81 C 47.01 125.38 47.01 124.53 47.02 124.10 C 42.63 123.91 38.24 123.81 33.85 123.84 M 37.93 128.25 C 38.46 128.93 39.00 129.62 39.53 130.30 C 42.19 130.77 44.84 131.27 47.49 131.80 C 47.33 130.62 47.16 129.44 47.00 128.27 C 43.98 128.21 40.95 128.20 37.93 128.25 M 20.84 130.80 C 22.39 134.76 26.05 137.17 28.82 140.19 C 31.35 142.58 33.49 145.90 37.23 146.36 C 35.05 142.47 31.41 139.79 28.41 136.60 C 26.16 134.35 24.09 131.62 20.84 130.80 M 25.96 130.83 C 28.98 135.29 32.84 139.27 37.35 142.22 C 35.16 137.29 30.81 133.15 25.96 130.83 M 31.04 130.87 C 32.50 133.53 34.61 135.79 37.35 137.16 C 36.65 133.96 34.09 131.77 31.04 130.87 Z" />
</g>
<g id="#9599b0ff">
<path fill="#9599b0" opacity="1.00" d=" M 15.11 118.63 C 16.55 118.33 16.65 120.77 15.68 121.36 C 14.22 121.69 14.04 119.18 15.11 118.63 Z" />
</g>
<g id="#1a1649ff">
<path fill="#1a1649" opacity="1.00" d=" M 16.62 118.76 C 26.80 118.08 37.05 119.55 47.19 118.19 C 47.07 118.82 46.83 120.10 46.71 120.74 C 41.82 121.01 36.91 121.24 32.02 121.59 C 26.97 121.98 21.91 122.25 16.85 122.05 C 16.79 121.23 16.68 119.58 16.62 118.76 Z" />
</g>
<g id="#968cbfff">
<path fill="#968cbf" opacity="1.00" d=" M 82.29 121.73 C 88.54 121.18 94.82 121.20 101.08 121.25 C 103.91 121.28 106.73 121.40 109.54 121.65 C 119.08 125.00 129.39 122.22 139.23 123.84 C 129.51 124.36 119.80 123.50 110.08 123.80 C 101.06 124.22 91.93 122.70 83.01 124.36 C 82.83 123.70 82.47 122.39 82.29 121.73 Z" />
<path fill="#968cbf" opacity="1.00" d=" M 83.94 140.83 C 84.42 140.71 85.37 140.47 85.85 140.35 C 97.47 140.20 109.12 140.17 120.71 139.42 C 121.02 140.13 121.62 141.55 121.93 142.26 L 120.90 142.23 C 109.98 141.35 99.01 141.71 88.06 141.63 C 86.68 141.42 85.31 141.13 83.94 140.83 Z" />
<path fill="#968cbf" opacity="1.00" d=" M 148.69 232.66 C 150.52 230.39 153.40 229.77 156.03 228.89 C 157.46 229.12 158.88 229.43 160.30 229.77 C 156.52 231.05 152.70 232.37 148.69 232.66 Z" />
</g>
<g id="#6335a7ff">
<path fill="#6335a7" opacity="1.00" d=" M 215.16 120.70 C 215.58 124.29 216.41 127.81 217.15 131.34 C 215.93 153.37 205.59 174.58 190.09 190.11 C 189.74 189.76 189.05 189.05 188.70 188.69 C 193.35 183.63 198.00 178.48 201.64 172.62 C 211.27 157.20 215.77 138.81 215.16 120.70 Z" />
<path fill="#6335a7" opacity="1.00" d=" M 129.44 139.33 C 129.92 138.84 130.88 137.85 131.36 137.36 C 151.58 137.88 171.82 137.47 192.05 137.53 C 195.07 137.18 198.26 139.09 198.76 142.19 C 198.82 145.46 197.25 148.45 196.32 151.51 C 196.05 150.91 195.50 149.73 195.23 149.14 C 194.63 145.90 193.68 142.28 190.58 140.54 C 185.74 139.97 180.84 140.60 175.99 140.20 C 163.33 139.34 150.65 140.16 137.99 140.33 C 135.10 140.43 132.25 139.95 129.44 139.33 Z" />
</g>
<g id="#1c143bff">
<path fill="#1c143b" opacity="1.00" d=" M 76.27 122.11 C 78.46 123.03 80.71 123.79 83.01 124.36 C 81.66 125.14 80.35 126.00 79.05 126.87 C 80.46 127.69 81.88 128.50 83.30 129.31 C 83.27 129.86 83.21 130.97 83.18 131.52 C 82.35 131.59 80.70 131.72 79.87 131.79 C 81.98 132.19 84.10 132.48 86.23 132.65 C 86.07 133.19 85.74 134.27 85.58 134.80 L 84.72 135.03 C 83.36 135.39 82.01 135.76 80.65 136.15 C 82.62 136.95 84.60 137.74 86.60 138.50 C 86.41 138.96 86.03 139.89 85.85 140.35 C 85.37 140.47 84.42 140.71 83.94 140.83 C 85.31 141.13 86.68 141.42 88.06 141.63 C 88.15 142.12 88.32 143.09 88.40 143.58 C 87.22 144.26 86.04 144.94 84.87 145.63 C 87.52 146.39 90.20 147.05 92.91 147.61 C 91.09 148.39 89.27 149.20 87.46 149.99 C 90.62 151.10 94.07 151.99 96.40 154.56 C 104.10 162.55 113.84 168.87 124.74 171.37 C 130.61 172.83 136.79 171.63 142.64 173.30 C 135.60 175.90 127.96 176.12 120.57 175.40 C 95.33 172.09 74.18 147.87 76.27 122.11 Z" />
</g>
<g id="#1e1750ff">
<path fill="#1e1750" opacity="1.00" d=" M 33.85 123.84 C 38.24 123.81 42.63 123.91 47.02 124.10 C 47.01 124.53 47.01 125.38 47.01 125.81 C 42.61 125.98 38.22 126.07 33.82 126.09 C 33.83 125.52 33.85 124.40 33.85 123.84 Z" />
</g>
<g id="#221c54ff">
<path fill="#221c54" opacity="1.00" d=" M 37.93 128.25 C 40.95 128.20 43.98 128.21 47.00 128.27 C 47.16 129.44 47.33 130.62 47.49 131.80 C 44.84 131.27 42.19 130.77 39.53 130.30 C 39.00 129.62 38.46 128.93 37.93 128.25 Z" />
</g>
<g id="#9899aeff">
<path fill="#9899ae" opacity="1.00" d=" M 14.81 134.82 C 14.48 133.57 14.42 131.58 16.01 131.19 C 16.69 132.47 16.09 134.18 14.81 134.82 Z" />
</g>
<g id="#201e48ff">
<path fill="#201e48" opacity="1.00" d=" M 20.84 130.80 C 24.09 131.62 26.16 134.35 28.41 136.60 C 31.41 139.79 35.05 142.47 37.23 146.36 C 33.49 145.90 31.35 142.58 28.82 140.19 C 26.05 137.17 22.39 134.76 20.84 130.80 Z" />
</g>
<g id="#1c1845ff">
<path fill="#1c1845" opacity="1.00" d=" M 25.96 130.83 C 30.81 133.15 35.16 137.29 37.35 142.22 C 32.84 139.27 28.98 135.29 25.96 130.83 Z" />
</g>
<g id="#1e1b4aff">
<path fill="#1e1b4a" opacity="1.00" d=" M 31.04 130.87 C 34.09 131.77 36.65 133.96 37.35 137.16 C 34.61 135.79 32.50 133.53 31.04 130.87 Z" />
</g>
<g id="#25234cff">
<path fill="#25234c" opacity="1.00" d=" M 38.54 133.03 C 41.95 132.34 45.29 133.26 48.24 134.98 C 51.46 163.39 71.71 188.73 98.37 198.83 C 97.19 199.51 96.01 200.20 94.83 200.89 C 86.05 197.95 78.45 192.47 71.36 186.67 C 69.12 184.85 67.14 182.73 65.51 180.35 C 64.17 175.86 60.44 172.81 58.09 168.91 C 53.69 161.77 49.91 154.13 48.07 145.91 C 47.31 143.46 47.02 140.67 45.34 138.65 C 43.11 136.73 40.64 135.09 38.54 133.03 Z" />
</g>
<g id="#5f33a1ff">
<path fill="#5f33a1" opacity="1.00" d=" M 86.23 132.65 C 118.49 132.17 150.75 133.32 183.00 132.71 C 188.02 132.75 193.03 132.44 198.05 132.70 C 201.26 132.53 204.28 135.69 203.88 138.88 C 203.33 144.59 200.94 149.88 199.37 155.33 C 199.08 154.68 198.50 153.36 198.22 152.70 C 199.16 148.23 202.76 142.90 199.20 138.76 C 197.83 136.69 195.65 135.05 193.03 135.33 C 175.76 135.45 158.49 134.93 141.22 135.34 C 130.15 135.10 119.07 135.38 107.99 135.32 C 100.52 135.30 93.02 135.74 85.58 134.80 C 85.74 134.27 86.07 133.19 86.23 132.65 Z" />
</g>
<g id="#1f1c44ff">
<path fill="#1f1c44" opacity="1.00" d=" M 20.46 134.97 C 25.08 137.86 29.06 141.80 31.80 146.54 C 31.42 146.37 30.66 146.05 30.28 145.89 C 26.18 143.16 22.17 139.75 20.46 134.97 Z" />
</g>
<g id="#452e80ff">
<path fill="#452e80" opacity="1.00" d=" M 80.65 136.15 C 82.01 135.76 83.36 135.39 84.72 135.03 C 84.67 135.50 84.56 136.44 84.51 136.91 C 94.98 138.15 105.54 137.39 116.05 137.61 C 118.29 137.68 120.45 138.34 122.60 138.91 C 122.13 139.04 121.18 139.29 120.71 139.42 C 109.12 140.17 97.47 140.20 85.85 140.35 C 86.03 139.89 86.41 138.96 86.60 138.50 C 84.60 137.74 82.62 136.95 80.65 136.15 Z" />
</g>
<g id="#5f34a0ff">
<path fill="#5f34a0" opacity="1.00" d=" M 231.29 142.54 C 232.00 140.76 232.72 138.98 233.36 137.18 C 233.27 138.64 233.20 140.11 233.13 141.58 C 233.53 141.46 234.32 141.22 234.72 141.10 C 234.61 142.88 234.44 144.65 234.28 146.42 C 234.21 145.55 234.06 143.81 233.98 142.93 C 233.44 143.30 232.36 144.04 231.82 144.40 C 231.78 145.42 231.74 146.43 231.72 147.45 C 232.34 147.45 233.60 147.46 234.23 147.46 C 236.55 147.48 238.86 147.65 241.18 147.81 C 239.69 158.17 235.76 168.04 231.10 177.36 C 228.42 176.85 225.74 176.30 223.08 175.68 C 226.72 168.13 229.69 160.28 231.95 152.21 C 232.25 151.12 231.98 150.00 231.86 148.91 C 229.65 156.94 227.11 164.90 223.35 172.36 C 221.33 171.37 219.33 170.33 217.41 169.15 C 221.82 159.84 224.75 149.86 226.17 139.65 L 226.45 140.39 C 226.66 140.90 227.08 141.92 227.29 142.43 C 228.62 142.46 229.95 142.50 231.29 142.54 Z" />
</g>
<g id="#72728cff">
<path fill="#72728c" opacity="1.00" d=" M 15.24 137.66 C 16.02 138.45 16.80 139.25 17.58 140.04 C 17.06 140.83 16.53 141.61 15.98 142.39 C 15.73 140.82 15.47 139.24 15.24 137.66 Z" />
</g>
<g id="#1a1544ff">
<path fill="#1a1544" opacity="1.00" d=" M 38.81 137.73 C 41.51 137.94 44.46 138.99 45.00 142.02 C 48.60 156.20 55.29 169.75 65.51 180.35 C 67.14 182.73 69.12 184.85 71.36 186.67 C 78.45 192.47 86.05 197.95 94.83 200.89 C 101.09 203.18 107.51 205.21 114.15 206.03 C 116.68 206.48 119.03 205.28 121.35 204.47 C 125.64 204.50 129.94 204.52 134.21 204.13 C 131.12 204.55 128.04 205.06 124.95 205.51 C 124.81 206.73 124.68 207.96 124.55 209.19 C 129.24 209.52 133.97 210.41 138.65 209.57 C 139.98 207.90 139.16 205.61 139.24 203.68 C 139.63 203.64 140.41 203.58 140.80 203.54 L 140.98 204.69 C 141.18 206.11 141.37 207.54 141.55 208.97 C 143.65 208.57 145.74 208.17 147.80 207.62 C 148.88 208.16 149.96 208.71 151.04 209.27 C 147.10 209.51 143.31 210.63 139.45 211.35 C 118.82 215.10 96.83 211.12 79.00 200.01 C 62.28 189.82 49.10 173.83 42.57 155.34 C 41.16 151.39 38.98 147.44 39.66 143.09 C 43.75 147.92 44.17 154.52 47.10 159.97 C 60.29 189.00 90.35 209.66 122.34 210.63 C 122.56 208.81 122.78 206.99 123.02 205.18 C 121.39 206.50 119.97 208.80 117.59 208.54 C 104.84 207.43 92.26 203.56 81.40 196.72 C 66.13 187.82 54.32 173.50 47.64 157.21 C 46.09 153.56 45.40 149.61 43.83 145.96 C 42.34 143.11 40.26 140.61 38.81 137.73 Z" />
</g>
<g id="#323359ff">
<path fill="#323359" opacity="1.00" d=" M 20.19 139.41 C 24.35 141.54 26.77 145.69 30.32 148.57 C 30.31 147.90 30.29 146.56 30.28 145.89 C 30.66 146.05 31.42 146.37 31.80 146.54 C 33.91 147.38 36.06 148.10 38.21 148.82 C 36.52 148.82 34.83 148.82 33.14 148.81 C 35.77 150.97 38.31 153.44 39.26 156.82 C 49.45 187.01 77.30 210.26 108.74 215.17 C 114.75 215.91 120.79 216.38 126.78 217.27 C 130.25 217.72 133.74 218.04 137.24 218.06 C 121.34 221.44 104.85 217.82 89.95 212.08 C 66.39 202.49 46.92 183.08 37.71 159.33 C 36.47 156.76 35.59 153.60 32.97 152.08 C 28.84 150.46 24.26 151.18 19.98 151.77 C 18.45 149.07 16.92 152.19 17.83 153.97 L 17.20 153.65 C 17.11 152.97 16.94 151.62 16.86 150.94 C 16.81 150.31 16.72 149.04 16.67 148.41 C 17.38 148.04 18.78 147.31 19.48 146.95 C 22.07 145.13 20.62 141.91 20.19 139.41 Z" />
</g>
<g id="#452a69ff">
<path fill="#452a69" opacity="1.00" d=" M 129.80 141.78 C 138.52 141.06 147.27 141.69 156.00 141.54 C 162.67 141.09 169.34 141.39 176.02 141.53 C 180.46 141.52 184.97 140.93 189.38 141.72 C 191.81 143.77 193.35 146.62 195.23 149.14 C 195.50 149.73 196.05 150.91 196.32 151.51 C 196.29 152.09 196.24 153.25 196.22 153.82 C 196.72 153.54 197.72 152.98 198.22 152.70 C 198.50 153.36 199.08 154.68 199.37 155.33 C 199.30 155.90 199.17 157.05 199.11 157.62 C 199.46 157.58 200.18 157.49 200.54 157.45 C 201.05 157.40 202.08 157.31 202.59 157.26 C 201.48 160.47 200.49 163.78 198.66 166.68 C 193.85 174.24 188.27 181.37 181.51 187.30 C 180.88 186.94 179.62 186.22 178.99 185.86 C 185.65 179.83 191.70 173.06 196.58 165.50 C 197.36 164.27 198.41 162.36 196.78 161.32 C 190.46 155.12 184.13 148.92 178.04 142.50 C 177.62 142.69 176.80 143.08 176.38 143.27 C 175.46 142.41 174.41 141.57 173.06 141.76 C 158.64 141.79 144.23 141.37 129.80 141.78 Z" />
</g>
<g id="#392572ff">
<path fill="#392572" opacity="1.00" d=" M 88.06 141.63 C 99.01 141.71 109.98 141.35 120.90 142.23 C 121.96 142.71 122.99 143.23 124.03 143.75 C 114.63 144.53 105.16 143.91 95.77 144.84 C 93.45 145.01 91.14 145.27 88.84 145.58 C 101.23 145.62 113.75 145.29 126.03 147.11 C 127.00 147.62 127.97 148.16 128.93 148.69 C 119.61 148.54 110.31 149.33 100.99 149.26 C 98.11 149.27 95.23 149.51 92.38 149.92 C 94.47 150.37 96.58 150.78 98.70 151.04 C 104.04 151.89 109.45 151.93 114.84 151.95 C 114.64 155.33 117.82 157.07 120.04 158.99 C 123.41 161.60 126.49 164.66 130.32 166.62 C 135.18 168.93 140.88 169.42 146.08 168.03 C 149.16 167.20 152.31 166.50 155.52 166.85 C 151.57 169.62 147.26 171.90 142.64 173.30 C 136.79 171.63 130.61 172.83 124.74 171.37 C 113.84 168.87 104.10 162.55 96.40 154.56 C 94.07 151.99 90.62 151.10 87.46 149.99 C 89.27 149.20 91.09 148.39 92.91 147.61 C 90.20 147.05 87.52 146.39 84.87 145.63 C 86.04 144.94 87.22 144.26 88.40 143.58 C 88.32 143.09 88.15 142.12 88.06 141.63 Z" />
<path fill="#392572" opacity="1.00" d=" M 166.42 199.91 C 170.76 197.51 174.98 194.87 178.88 191.80 C 179.45 192.08 180.58 192.66 181.15 192.95 C 172.18 200.02 162.23 206.45 151.04 209.27 C 149.96 208.71 148.88 208.16 147.80 207.62 C 154.19 205.53 160.74 203.60 166.42 199.91 Z" />
</g>
<g id="#6a3cb2ff">
<path fill="#6a3cb2" opacity="1.00" d=" M 120.90 142.23 L 121.93 142.26 C 124.56 142.23 127.18 141.99 129.80 141.78 C 144.23 141.37 158.64 141.79 173.06 141.76 C 174.41 141.57 175.46 142.41 176.38 143.27 C 176.17 143.72 175.74 144.61 175.53 145.06 C 160.05 143.72 144.44 145.95 129.02 143.95 C 118.01 145.65 106.85 144.72 95.77 144.84 C 105.16 143.91 114.63 144.53 124.03 143.75 C 122.99 143.23 121.96 142.71 120.90 142.23 Z" />
</g>
<g id="#a892c7ff">
<path fill="#a892c7" opacity="1.00" d=" M 231.82 144.40 C 232.36 144.04 233.44 143.30 233.98 142.93 C 234.06 143.81 234.21 145.55 234.28 146.42 L 234.23 147.46 C 233.60 147.46 232.34 147.45 231.72 147.45 C 231.74 146.43 231.78 145.42 231.82 144.40 Z" />
</g>
<g id="#cdd4dfff">
<path fill="#cdd4df" opacity="1.00" d=" M 95.77 144.84 C 106.85 144.72 118.01 145.65 129.02 143.95 C 144.44 145.95 160.05 143.72 175.53 145.06 C 175.09 145.94 174.63 146.82 174.16 147.69 C 172.99 146.04 170.79 146.48 169.05 146.35 C 159.36 146.47 149.67 146.33 139.97 146.28 C 135.30 146.18 130.70 147.29 126.03 147.11 C 113.75 145.29 101.23 145.62 88.84 145.58 C 91.14 145.27 93.45 145.01 95.77 144.84 Z" />
</g>
<g id="#717089ff">
<path fill="#717089" opacity="1.00" d=" M 16.30 144.59 C 17.36 145.37 18.42 146.16 19.48 146.95 C 18.78 147.31 17.38 148.04 16.67 148.41 C 16.56 147.13 16.44 145.86 16.30 144.59 Z" />
</g>
<g id="#5b2da6ff">
<path fill="#5b2da6" opacity="1.00" d=" M 126.03 147.11 C 130.70 147.29 135.30 146.18 139.97 146.28 C 149.67 146.33 159.36 146.47 169.05 146.35 C 170.79 146.48 172.99 146.04 174.16 147.69 C 173.91 148.06 173.42 148.82 173.18 149.20 C 164.45 149.27 155.72 149.20 147.00 149.40 C 140.96 149.61 134.97 148.56 128.93 148.69 C 127.97 148.16 127.00 147.62 126.03 147.11 Z" />
</g>
<g id="#737188ff">
<path fill="#737188" opacity="1.00" d=" M 17.83 153.97 C 16.92 152.19 18.45 149.07 19.98 151.77 C 19.91 152.41 19.75 153.67 19.67 154.31 C 19.21 154.22 18.29 154.05 17.83 153.97 Z" />
</g>
<g id="#0f0919ff">
<path fill="#0f0919" opacity="1.00" d=" M 11.69 153.24 C 13.41 152.47 15.13 151.71 16.86 150.94 C 16.94 151.62 17.11 152.97 17.20 153.65 C 17.61 155.06 18.16 156.43 18.88 157.72 C 19.50 158.81 20.11 159.91 20.70 161.03 C 20.84 161.49 21.11 162.42 21.25 162.88 C 21.65 164.31 22.04 165.75 22.48 167.18 C 22.98 168.46 23.59 169.71 24.19 170.95 C 24.50 171.58 25.11 172.84 25.42 173.47 C 25.85 174.24 26.21 175.05 26.69 175.80 C 27.52 177.06 28.45 178.25 29.32 179.49 C 29.45 179.93 29.72 180.82 29.85 181.26 C 30.06 182.38 30.51 183.39 31.20 184.28 C 32.11 185.50 33.07 186.68 34.06 187.84 C 34.81 188.71 35.58 189.58 36.36 190.44 C 36.88 191.54 37.42 192.64 38.04 193.70 C 38.47 194.15 39.32 195.05 39.75 195.51 C 40.43 196.25 41.07 197.04 41.68 197.85 C 42.32 198.84 43.12 199.68 44.08 200.38 C 44.60 200.79 45.11 201.21 45.62 201.65 C 46.91 202.82 48.19 204.01 49.52 205.14 C 49.82 205.41 50.41 205.93 50.70 206.19 C 51.55 207.10 52.37 208.04 53.28 208.90 C 54.00 209.60 54.76 210.29 55.53 210.94 C 56.38 211.65 57.25 212.32 58.14 212.97 C 59.27 213.81 60.42 214.64 61.61 215.40 C 63.84 216.87 66.08 218.32 68.27 219.83 C 69.75 220.85 71.25 221.85 72.78 222.79 C 73.76 223.38 74.80 223.80 75.92 224.07 C 77.01 224.67 78.07 225.32 79.13 225.97 L 79.83 226.38 C 81.37 227.02 82.96 227.55 84.57 228.00 C 86.04 228.37 87.53 228.67 89.01 229.02 C 89.46 229.31 90.37 229.90 90.82 230.20 C 91.13 230.38 91.76 230.75 92.07 230.93 C 93.51 231.32 94.98 231.62 96.44 231.93 C 98.02 232.27 99.60 232.63 101.18 232.99 C 101.95 233.17 102.72 233.36 103.49 233.56 C 104.35 233.78 106.06 234.24 106.91 234.46 C 108.27 234.76 109.65 235.00 111.02 235.28 L 111.83 235.46 C 114.62 236.43 115.88 239.16 117.06 241.63 C 112.99 241.72 108.92 241.85 104.85 241.77 C 61.65 234.91 23.82 201.31 11.92 159.20 C 11.80 157.22 11.75 155.23 11.69 153.24 Z" />
</g>
<g id="#140f2cff">
<path fill="#140f2c" opacity="1.00" d=" M 19.98 151.77 C 24.26 151.18 28.84 150.46 32.97 152.08 C 35.59 153.60 36.47 156.76 37.71 159.33 C 46.92 183.08 66.39 202.49 89.95 212.08 C 104.85 217.82 121.34 221.44 137.24 218.06 C 137.87 217.95 139.15 217.73 139.78 217.62 C 141.29 218.00 142.78 218.45 144.29 218.83 C 122.72 223.10 99.68 220.26 80.25 209.79 C 61.70 200.12 46.47 184.14 38.00 164.98 C 36.95 162.75 35.98 160.40 34.33 158.52 C 32.57 158.39 30.81 158.54 29.05 158.67 C 41.31 193.48 73.69 220.32 110.24 225.65 C 125.35 227.75 141.06 227.40 155.69 222.78 C 156.71 224.21 157.75 225.64 158.78 227.07 C 157.87 227.68 156.96 228.30 156.03 228.89 C 153.40 229.77 150.52 230.39 148.69 232.66 C 152.70 232.37 156.52 231.05 160.30 229.77 C 160.76 229.66 161.70 229.45 162.16 229.35 C 162.85 229.23 164.22 229.00 164.91 228.89 C 164.76 229.40 164.45 230.42 164.30 230.93 C 165.11 232.67 165.90 234.43 166.67 236.19 C 154.39 241.01 141.23 243.85 128.00 243.67 C 120.27 243.67 112.36 243.94 104.85 241.77 C 108.92 241.85 112.99 241.72 117.06 241.63 C 115.88 239.16 114.62 236.43 111.83 235.46 C 113.11 235.35 114.67 233.53 112.97 232.73 C 111.30 231.71 109.65 233.93 111.02 235.28 C 109.65 235.00 108.27 234.76 106.91 234.46 C 107.14 233.75 107.58 232.32 107.81 231.60 C 106.25 231.97 104.62 232.33 103.49 233.56 C 102.72 233.36 101.95 233.17 101.18 232.99 C 100.63 232.13 100.04 231.29 99.43 230.47 C 98.31 230.65 97.40 231.39 96.44 231.93 C 94.98 231.62 93.51 231.32 92.07 230.93 C 93.04 231.28 95.43 230.91 94.43 229.41 C 93.36 228.26 91.52 229.04 90.82 230.20 C 90.37 229.90 89.46 229.31 89.01 229.02 C 88.03 228.07 87.08 227.09 86.12 226.12 C 85.73 226.59 84.96 227.53 84.57 228.00 C 82.96 227.55 81.37 227.02 79.83 226.38 C 81.30 226.76 82.72 224.61 80.92 223.98 C 79.56 223.89 78.97 224.55 79.13 225.97 C 78.07 225.32 77.01 224.67 75.92 224.07 C 77.31 221.49 72.80 219.42 72.78 222.79 C 71.25 221.85 69.75 220.85 68.27 219.83 C 68.82 219.84 69.92 219.87 70.47 219.88 C 67.83 217.91 65.17 215.16 61.61 215.40 C 60.42 214.64 59.27 213.81 58.14 212.97 C 58.56 212.97 59.39 212.96 59.81 212.96 C 59.34 212.17 58.87 211.39 58.39 210.61 C 57.44 210.71 56.48 210.82 55.53 210.94 C 54.76 210.29 54.00 209.60 53.28 208.90 C 53.74 208.79 54.68 208.57 55.15 208.45 C 53.66 207.71 52.17 206.98 50.70 206.19 C 50.41 205.93 49.82 205.41 49.52 205.14 C 49.46 202.75 47.91 201.64 45.62 201.65 C 45.11 201.21 44.60 200.79 44.08 200.38 C 46.57 198.80 43.28 195.21 41.68 197.85 C 41.07 197.04 40.43 196.25 39.75 195.51 C 42.49 193.85 38.20 189.99 38.04 193.70 C 37.42 192.64 36.88 191.54 36.36 190.44 C 35.95 188.83 35.40 187.27 34.57 185.84 C 34.44 186.34 34.19 187.34 34.06 187.84 C 33.07 186.68 32.11 185.50 31.20 184.28 C 34.64 184.24 32.39 179.87 29.85 181.26 C 29.72 180.82 29.45 179.93 29.32 179.49 C 29.18 178.14 29.07 176.80 28.96 175.45 C 28.39 175.54 27.26 175.71 26.69 175.80 C 26.21 175.05 25.85 174.24 25.42 173.47 C 26.82 171.67 26.03 170.17 24.43 168.86 C 24.37 169.38 24.25 170.43 24.19 170.95 C 23.59 169.71 22.98 168.46 22.48 167.18 C 23.06 166.35 23.56 165.48 24.07 164.61 C 23.13 164.03 22.19 163.45 21.25 162.88 C 21.11 162.42 20.84 161.49 20.70 161.03 C 21.02 159.95 21.32 158.87 21.61 157.78 C 20.70 157.76 19.79 157.73 18.88 157.72 C 18.16 156.43 17.61 155.06 17.20 153.65 L 17.83 153.97 C 18.29 154.05 19.21 154.22 19.67 154.31 C 19.75 153.67 19.91 152.41 19.98 151.77 M 142.75 233.74 C 144.08 233.77 145.41 233.78 146.74 233.78 C 146.71 233.08 146.64 231.70 146.61 231.00 C 145.11 231.58 143.45 232.14 142.75 233.74 M 135.85 234.77 C 137.57 234.69 139.51 235.00 140.95 233.82 C 139.83 231.21 136.63 232.66 135.85 234.77 M 123.01 234.84 C 124.73 235.52 126.48 235.42 127.99 234.30 C 126.28 233.82 124.33 233.25 123.01 234.84 M 131.16 233.34 C 128.61 234.45 132.45 236.65 133.51 234.85 C 134.37 233.44 132.09 232.90 131.16 233.34 M 117.60 234.07 C 117.76 235.47 118.43 235.72 119.61 234.82 C 119.45 233.40 118.78 233.15 117.60 234.07 Z" />
</g>
<g id="#482c86ff">
<path fill="#482c86" opacity="1.00" d=" M 98.70 151.04 C 106.14 150.49 113.58 150.99 121.01 151.16 C 126.39 151.23 131.62 152.87 137.01 152.61 C 140.53 156.58 144.33 160.66 149.27 162.82 C 153.56 163.76 157.68 161.41 161.64 160.05 C 161.63 160.63 161.61 161.80 161.60 162.38 C 159.68 164.01 157.62 165.47 155.52 166.85 C 152.31 166.50 149.16 167.20 146.08 168.03 C 140.88 169.42 135.18 168.93 130.32 166.62 C 126.49 164.66 123.41 161.60 120.04 158.99 C 117.82 157.07 114.64 155.33 114.84 151.95 C 109.45 151.93 104.04 151.89 98.70 151.04 Z" />
<path fill="#482c86" opacity="1.00" d=" M 177.61 207.79 C 184.26 202.75 191.16 197.94 196.89 191.82 C 197.25 192.18 197.97 192.91 198.33 193.27 C 192.68 199.28 186.68 205.13 179.42 209.16 C 178.97 208.82 178.06 208.13 177.61 207.79 Z" />
</g>
<g id="#5a339eff">
<path fill="#5a339e" opacity="1.00" d=" M 136.29 151.81 C 139.14 151.08 142.03 150.45 144.99 150.58 C 153.80 150.81 162.65 150.63 171.42 151.64 C 168.54 155.56 165.24 159.16 161.60 162.38 C 161.61 161.80 161.63 160.63 161.64 160.05 C 157.68 161.41 153.56 163.76 149.27 162.82 C 144.33 160.66 140.53 156.58 137.01 152.61 L 136.29 151.81 Z" />
</g>
<g id="#3f426aff">
<path fill="#3f426a" opacity="1.00" d=" M 29.05 158.67 C 30.81 158.54 32.57 158.39 34.33 158.52 C 35.98 160.40 36.95 162.75 38.00 164.98 C 46.47 184.14 61.70 200.12 80.25 209.79 C 99.68 220.26 122.72 223.10 144.29 218.83 C 148.98 218.17 153.41 216.43 158.02 215.40 C 159.07 215.54 160.12 215.70 161.16 215.89 C 158.11 217.57 154.89 218.97 151.46 219.66 C 135.82 223.09 119.29 224.40 103.65 220.22 C 73.99 213.46 48.11 192.14 35.83 164.32 C 35.08 162.35 33.62 160.84 31.98 159.59 C 32.37 161.80 32.82 164.03 33.71 166.11 C 42.07 184.79 56.26 200.81 73.96 211.12 C 93.60 222.85 117.41 227.40 140.00 223.85 C 145.41 223.13 150.56 221.08 156.02 220.55 C 156.59 220.58 157.73 220.64 158.30 220.67 C 157.43 221.37 156.56 222.08 155.69 222.78 C 141.06 227.40 125.35 227.75 110.24 225.65 C 73.69 220.32 41.31 193.48 29.05 158.67 Z" />
</g>
<g id="#1b1747ff">
<path fill="#1b1747" opacity="1.00" d=" M 31.98 159.59 C 33.62 160.84 35.08 162.35 35.83 164.32 C 48.11 192.14 73.99 213.46 103.65 220.22 C 119.29 224.40 135.82 223.09 151.46 219.66 C 154.89 218.97 158.11 217.57 161.16 215.89 C 166.69 213.30 172.32 210.86 177.61 207.79 C 178.06 208.13 178.97 208.82 179.42 209.16 C 172.03 213.71 164.49 218.35 156.02 220.55 C 150.56 221.08 145.41 223.13 140.00 223.85 C 117.41 227.40 93.60 222.85 73.96 211.12 C 56.26 200.81 42.07 184.79 33.71 166.11 C 32.82 164.03 32.37 161.80 31.98 159.59 Z" />
</g>
<g id="#6b3ab6ff">
<path fill="#6b3ab6" opacity="1.00" d=" M 205.15 188.51 C 210.00 182.58 214.01 176.00 217.41 169.15 C 219.33 170.33 221.33 171.37 223.35 172.36 C 219.94 179.43 215.81 186.17 210.89 192.29 C 209.03 190.94 207.12 189.68 205.15 188.51 Z" />
</g>
<g id="#6b3bb6ff">
<path fill="#6b3bb6" opacity="1.00" d=" M 212.44 192.31 C 216.40 187.05 219.85 181.42 223.08 175.68 C 225.74 176.30 228.42 176.85 231.10 177.36 C 227.53 185.10 222.67 192.21 217.39 198.88 C 215.79 196.66 214.14 194.47 212.44 192.31 Z" />
</g>
<g id="#746f7fff">
<path fill="#746f7f" opacity="1.00" d=" M 29.85 181.26 C 32.39 179.87 34.64 184.24 31.20 184.28 C 30.51 183.39 30.06 182.38 29.85 181.26 Z" />
</g>
<g id="#271e5bff">
<path fill="#271e5b" opacity="1.00" d=" M 178.99 185.86 C 179.62 186.22 180.88 186.94 181.51 187.30 C 176.43 191.93 170.78 195.91 164.80 199.30 C 158.32 201.61 152.26 205.18 145.44 206.44 C 143.68 206.97 142.27 205.65 140.98 204.69 L 140.80 203.54 C 154.97 201.81 168.20 195.05 178.99 185.86 Z" />
</g>
<g id="#2d2064ff">
<path fill="#2d2064" opacity="1.00" d=" M 153.32 209.84 C 166.48 205.53 178.78 198.38 188.70 188.69 C 189.05 189.05 189.74 189.76 190.09 190.11 C 181.45 198.59 171.45 206.02 160.07 210.34 C 156.21 211.71 152.35 213.09 148.35 213.97 C 147.15 213.68 145.96 213.40 144.77 213.12 C 147.66 212.14 150.48 210.96 153.32 209.84 Z" />
<path fill="#2d2064" opacity="1.00" d=" M 158.30 220.67 C 165.56 218.47 172.54 215.33 178.99 211.33 C 181.46 212.24 183.79 213.52 185.77 215.27 C 181.55 218.20 176.93 220.59 173.03 223.96 C 178.24 221.82 182.82 218.41 188.05 216.33 C 189.33 217.88 190.62 219.41 191.92 220.94 C 191.36 221.99 190.79 223.04 190.19 224.07 C 183.03 229.21 175.12 233.54 166.67 236.19 C 165.90 234.43 165.11 232.67 164.30 230.93 C 164.45 230.42 164.76 229.40 164.91 228.89 C 165.22 227.89 165.54 226.89 165.85 225.90 C 164.81 226.16 163.78 226.41 162.74 226.67 C 162.60 227.34 162.31 228.68 162.16 229.35 C 161.70 229.45 160.76 229.66 160.30 229.77 C 158.88 229.43 157.46 229.12 156.03 228.89 C 156.96 228.30 157.87 227.68 158.78 227.07 C 157.75 225.64 156.71 224.21 155.69 222.78 C 156.56 222.08 157.43 221.37 158.30 220.67 M 169.28 224.06 C 166.72 225.49 170.33 227.35 171.39 225.37 C 172.50 224.01 170.17 223.20 169.28 224.06 Z" />
</g>
<g id="#5e35a4ff">
<path fill="#5e35a4" opacity="1.00" d=" M 196.63 197.70 C 199.60 194.76 202.46 191.71 205.15 188.51 C 207.12 189.68 209.03 190.94 210.89 192.29 C 208.89 194.85 206.75 197.31 205.05 200.09 C 207.87 197.87 210.22 195.12 212.44 192.31 C 214.14 194.47 215.79 196.66 217.39 198.88 C 214.70 202.48 211.82 205.96 208.45 208.94 C 206.70 207.20 204.94 205.48 203.18 203.76 C 203.44 202.85 203.71 201.94 203.98 201.03 C 203.05 201.39 202.13 201.76 201.22 202.13 C 199.68 200.66 198.15 199.19 196.63 197.70 Z" />
</g>
<g id="#74707eff">
<path fill="#74707e" opacity="1.00" d=" M 41.68 197.85 C 43.28 195.21 46.57 198.80 44.08 200.38 C 43.12 199.68 42.32 198.84 41.68 197.85 Z" />
</g>
<g id="#3a3c63ff">
<path fill="#3a3c63" opacity="1.00" d=" M 98.37 198.83 C 105.79 201.58 113.52 203.39 121.35 204.47 C 119.03 205.28 116.68 206.48 114.15 206.03 C 107.51 205.21 101.09 203.18 94.83 200.89 C 96.01 200.20 97.19 199.51 98.37 198.83 Z" />
</g>
<g id="#4d557fff">
<path fill="#4d557f" opacity="1.00" d=" M 134.21 204.13 C 135.88 203.95 137.56 203.80 139.24 203.68 C 139.16 205.61 139.98 207.90 138.65 209.57 C 133.97 210.41 129.24 209.52 124.55 209.19 C 124.68 207.96 124.81 206.73 124.95 205.51 C 128.04 205.06 131.12 204.55 134.21 204.13 M 128.16 205.97 C 128.12 206.78 128.04 208.39 128.00 209.20 C 130.61 209.28 133.23 209.24 135.83 209.10 C 135.80 208.33 135.74 206.79 135.71 206.02 C 133.20 205.90 130.68 205.89 128.16 205.97 Z" />
</g>
<g id="#637499ff">
<path fill="#637499" opacity="1.00" d=" M 128.16 205.97 C 130.68 205.89 133.20 205.90 135.71 206.02 C 135.74 206.79 135.80 208.33 135.83 209.10 C 133.23 209.24 130.61 209.28 128.00 209.20 C 128.04 208.39 128.12 206.78 128.16 205.97 Z" />
<path fill="#637499" opacity="1.00" d=" M 148.35 213.97 C 152.35 213.09 156.21 211.71 160.07 210.34 C 160.59 210.50 161.65 210.82 162.18 210.97 C 155.22 214.67 147.30 215.59 139.78 217.62 C 139.15 217.73 137.87 217.95 137.24 218.06 C 133.74 218.04 130.25 217.72 126.78 217.27 C 134.03 216.66 141.31 215.92 148.35 213.97 Z" />
</g>
<g id="#706b7bff">
<path fill="#706b7b" opacity="1.00" d=" M 72.78 222.79 C 72.80 219.42 77.31 221.49 75.92 224.07 C 74.80 223.80 73.76 223.38 72.78 222.79 Z" />
</g>
<g id="#7c7886ff">
<path fill="#7c7886" opacity="1.00" d=" M 79.13 225.97 C 78.97 224.55 79.56 223.89 80.92 223.98 C 82.72 224.61 81.30 226.76 79.83 226.38 L 79.13 225.97 Z" />
</g>
<g id="#8c8bacff">
<path fill="#8c8bac" opacity="1.00" d=" M 169.28 224.06 C 170.17 223.20 172.50 224.01 171.39 225.37 C 170.33 227.35 166.72 225.49 169.28 224.06 Z" />
</g>
<g id="#717195ff">
<path fill="#717195" opacity="1.00" d=" M 162.74 226.67 C 163.78 226.41 164.81 226.16 165.85 225.90 C 165.54 226.89 165.22 227.89 164.91 228.89 C 164.22 229.00 162.85 229.23 162.16 229.35 C 162.31 228.68 162.60 227.34 162.74 226.67 Z" />
</g>
<g id="#767384ff">
<path fill="#767384" opacity="1.00" d=" M 90.82 230.20 C 91.52 229.04 93.36 228.26 94.43 229.41 C 95.43 230.91 93.04 231.28 92.07 230.93 C 91.76 230.75 91.13 230.38 90.82 230.20 Z" />
</g>
<g id="#6d6a7dff">
<path fill="#6d6a7d" opacity="1.00" d=" M 103.49 233.56 C 104.62 232.33 106.25 231.97 107.81 231.60 C 107.58 232.32 107.14 233.75 106.91 234.46 C 106.06 234.24 104.35 233.78 103.49 233.56 Z" />
</g>
<g id="#706d82ff">
<path fill="#706d82" opacity="1.00" d=" M 111.02 235.28 C 109.65 233.93 111.30 231.71 112.97 232.73 C 114.67 233.53 113.11 235.35 111.83 235.46 L 111.02 235.28 Z" />
</g>
<g id="#a09fadff">
<path fill="#a09fad" opacity="1.00" d=" M 117.60 234.07 C 118.78 233.15 119.45 233.40 119.61 234.82 C 118.43 235.72 117.76 235.47 117.60 234.07 Z" />
</g>
</svg>
