<?xml version="1.0" encoding="UTF-8" ?>
<!DOCTYPE svg PUBLIC "-//W3C//DTD SVG 1.1//EN" "http://www.w3.org/Graphics/SVG/1.1/DTD/svg11.dtd">
<svg width="250pt" height="250pt" viewBox="0 0 250 250" version="1.1" xmlns="http://www.w3.org/2000/svg">
<g id="#ffffffff">
<path fill="#ffffff" opacity="1.00" d=" M 0.00 0.00 L 118.66 0.00 C 90.71 1.67 63.31 12.61 42.39 31.32 C 17.28 53.16 1.91 85.38 0.00 118.55 L 0.00 0.00 Z" />
<path fill="#ffffff" opacity="1.00" d=" M 129.69 0.00 L 250.00 0.00 L 250.00 116.89 C 247.71 84.03 232.14 52.29 207.14 30.79 C 185.85 12.06 158.01 1.09 129.69 0.00 Z" />
<path fill="#ffffff" opacity="1.00" d=" M 109.11 10.03 C 128.16 7.50 147.86 9.56 165.86 16.38 C 193.73 26.80 217.15 48.43 229.85 75.33 C 241.63 99.88 244.01 128.64 237.15 154.93 C 230.36 181.03 213.93 204.33 191.97 219.91 C 169.32 236.12 140.63 243.59 112.95 240.58 C 86.40 238.04 60.96 225.77 42.33 206.70 C 23.78 188.16 11.88 163.10 9.39 136.98 C 6.22 107.88 14.70 77.69 32.63 54.55 C 51.00 30.46 79.01 13.92 109.11 10.03 M 116.01 13.90 C 87.03 16.12 59.18 30.24 40.35 52.39 C 23.26 72.07 13.47 97.96 13.39 124.04 C 13.04 148.15 20.90 172.27 35.34 191.57 C 50.94 212.70 74.26 228.00 99.89 233.79 C 124.89 239.58 151.88 236.43 174.79 224.84 C 199.27 212.67 218.90 191.17 228.78 165.68 C 238.21 141.69 238.93 114.41 230.74 89.96 C 222.61 65.14 205.31 43.52 183.03 29.92 C 163.13 17.66 139.30 12.03 116.01 13.90 Z" />
<path fill="#ffffff" opacity="1.00" d=" M 118.67 21.40 C 124.46 21.45 130.27 21.25 136.06 21.47 C 141.63 21.70 146.77 27.27 145.54 32.95 C 144.86 36.87 141.35 39.29 138.01 40.89 C 140.42 44.77 142.92 48.59 145.18 52.56 C 142.85 52.00 140.47 51.59 138.23 50.75 C 135.72 47.86 134.00 44.38 131.95 41.16 C 129.47 41.11 126.99 41.10 124.51 41.08 C 124.50 43.94 124.50 46.80 124.51 49.66 C 122.56 49.72 120.62 49.78 118.67 49.84 C 118.67 40.36 118.68 30.88 118.67 21.40 M 124.50 26.47 C 124.50 29.59 124.50 32.72 124.51 35.85 C 128.57 35.74 132.67 36.11 136.72 35.63 C 140.79 34.62 140.89 28.08 136.94 26.76 C 132.83 26.12 128.64 26.59 124.50 26.47 Z" />
<path fill="#ffffff" opacity="1.00" d=" M 86.93 30.16 C 86.85 27.01 91.09 27.32 93.14 26.11 C 100.47 34.14 107.76 42.21 115.11 50.22 C 112.91 50.61 110.71 51.03 108.52 51.48 C 106.68 49.73 105.46 46.99 103.04 46.05 C 98.94 46.62 95.17 48.43 91.34 49.91 C 91.22 52.50 91.02 55.10 90.74 57.68 C 88.84 58.67 86.97 59.69 85.10 60.73 C 85.51 50.53 86.43 40.36 86.93 30.16 M 91.89 32.71 C 91.70 36.71 91.59 40.72 91.47 44.73 C 94.28 43.66 97.12 42.66 99.94 41.61 C 97.33 38.58 94.71 35.55 91.89 32.71 Z" />
<path fill="#ffffff" opacity="1.00" d=" M 161.80 28.00 C 163.64 28.67 165.46 29.36 167.29 30.04 C 163.78 39.00 159.98 47.84 156.28 56.72 C 154.49 55.95 152.71 55.20 150.92 54.44 C 154.36 45.55 158.20 36.82 161.80 28.00 Z" />
<path fill="#ffffff" opacity="1.00" d=" M 54.21 48.22 C 57.85 44.54 61.06 38.85 66.98 39.11 C 73.74 38.35 78.77 46.12 76.18 52.18 C 73.85 56.96 69.44 60.26 66.08 64.28 C 68.02 66.21 70.17 67.94 71.96 70.02 C 71.85 71.81 69.97 72.86 68.79 74.00 C 67.35 73.76 66.42 72.49 65.34 71.64 C 59.62 66.31 53.69 61.20 48.09 55.76 C 49.25 52.75 52.28 50.79 54.21 48.22 M 64.20 45.17 C 60.85 47.93 58.30 51.51 55.35 54.67 C 57.67 56.73 59.93 58.84 62.19 60.97 C 65.16 57.68 68.61 54.75 70.99 50.99 C 73.07 47.11 67.71 42.54 64.20 45.17 Z" />
<path fill="#ffffff" opacity="1.00" d=" M 176.38 42.27 C 178.98 39.71 183.09 40.27 186.15 41.65 C 192.09 44.37 196.96 49.44 199.23 55.59 C 197.90 56.44 196.58 57.30 195.25 58.16 C 192.32 52.49 187.40 45.68 180.23 46.31 C 180.40 47.78 180.12 49.48 181.25 50.65 C 185.08 55.37 190.63 59.52 191.35 66.00 C 191.67 70.77 186.50 74.49 182.01 73.10 C 174.07 71.03 168.52 64.06 165.08 56.97 C 166.46 55.93 167.85 54.90 169.23 53.86 C 172.32 59.22 175.90 65.12 181.94 67.46 C 184.15 68.33 186.30 66.13 185.41 63.94 C 183.08 58.75 177.56 55.90 175.16 50.75 C 173.84 48.04 173.85 44.29 176.38 42.27 Z" />
<path fill="#ffffff" opacity="1.00" d=" M 112.18 58.19 C 124.82 55.99 138.15 56.95 150.11 61.78 C 166.10 68.07 179.50 80.63 186.84 96.17 C 193.32 109.69 195.14 125.38 191.88 140.01 C 188.37 156.61 178.28 171.62 164.45 181.40 C 153.01 189.51 139.01 194.10 124.95 193.86 C 106.91 194.14 88.99 186.52 76.40 173.66 C 66.01 163.33 59.15 149.53 57.16 135.02 C 54.88 119.37 58.33 102.98 66.68 89.56 C 76.63 73.40 93.49 61.65 112.18 58.19 M 64.63 104.42 C 58.99 120.55 60.17 138.92 67.87 154.19 C 74.33 149.30 80.44 143.92 85.84 137.87 C 104.58 117.32 114.45 89.77 115.87 62.21 C 92.69 65.38 72.15 82.28 64.63 104.42 M 119.31 61.74 C 118.72 68.20 118.64 74.71 117.54 81.11 C 115.39 96.26 110.22 110.85 102.93 124.27 C 117.64 124.30 132.34 124.30 147.04 124.27 C 136.25 105.27 131.17 83.49 130.65 61.74 C 126.87 61.58 123.09 61.58 119.31 61.74 M 134.10 62.21 C 135.25 83.86 141.41 105.48 153.27 123.73 C 160.91 135.54 170.81 145.81 182.09 154.18 C 192.05 134.49 190.92 109.66 178.83 91.14 C 169.05 75.60 152.26 64.82 134.10 62.21 M 71.60 160.39 C 76.48 168.34 83.50 174.75 91.27 179.82 C 89.04 167.72 95.15 154.96 105.46 148.46 C 118.19 139.96 136.36 141.01 147.94 151.05 C 156.22 157.92 160.49 169.19 158.69 179.83 C 166.43 174.74 173.42 168.35 178.32 160.43 C 166.48 151.05 156.40 139.52 148.42 126.70 C 132.77 126.75 117.13 126.75 101.48 126.70 C 93.49 139.49 83.47 151.06 71.60 160.39 M 102.79 156.84 C 96.59 164.94 96.46 176.62 101.93 185.13 C 116.66 190.76 133.31 190.75 148.03 185.12 C 154.89 174.59 152.43 159.28 142.24 151.77 C 130.65 142.21 111.51 144.52 102.79 156.84 Z" />
<path fill="#ffffff" opacity="1.00" d=" M 0.00 129.52 C 1.18 163.85 17.24 197.36 43.38 219.67 C 63.85 237.55 90.31 248.20 117.39 250.00 L 0.00 250.00 L 0.00 129.52 Z" />
<path fill="#ffffff" opacity="1.00" d=" M 220.65 205.60 C 237.98 185.25 248.28 159.19 250.00 132.54 L 250.00 250.00 L 132.59 250.00 C 166.36 247.95 198.98 231.61 220.65 205.60 Z" />
<path fill="#ffffff" opacity="1.00" d=" M 54.54 179.13 C 55.20 178.73 56.52 177.94 57.18 177.54 C 60.42 178.90 63.98 181.60 63.56 185.53 C 61.58 182.96 59.92 179.64 56.25 179.32 C 56.87 182.54 59.06 185.06 60.47 187.93 C 60.15 188.65 59.51 190.08 59.18 190.79 C 54.57 191.37 50.30 186.52 50.91 182.06 C 53.05 184.64 54.17 189.34 58.32 189.07 C 58.91 185.27 54.59 182.95 54.54 179.13 Z" />
<path fill="#ffffff" opacity="1.00" d=" M 189.71 178.03 C 193.77 179.11 196.29 182.84 199.35 185.44 C 195.58 186.82 191.56 185.43 187.68 185.52 C 189.93 187.53 192.27 189.47 194.21 191.79 C 189.96 191.29 187.60 187.00 184.50 184.52 C 188.27 183.25 192.23 184.52 196.09 184.50 C 193.81 182.50 191.43 180.56 189.71 178.03 Z" />
<path fill="#ffffff" opacity="1.00" d=" M 180.26 188.49 C 181.24 188.23 182.04 188.49 182.67 189.27 C 185.03 191.60 187.37 194.03 189.08 196.89 C 185.22 195.35 182.78 191.62 180.26 188.49 Z" />
<path fill="#ffffff" opacity="1.00" d=" M 59.06 195.36 C 62.16 191.98 66.87 190.47 71.18 189.27 C 70.18 193.63 69.59 198.35 66.88 202.06 C 67.04 200.22 67.25 198.40 67.52 196.57 C 66.41 195.63 65.29 194.70 64.17 193.77 C 62.49 194.38 60.79 194.92 59.06 195.36 M 65.76 192.85 C 66.56 193.63 67.36 194.41 68.16 195.19 C 68.48 193.89 68.81 192.59 69.13 191.30 C 68.01 191.81 66.89 192.33 65.76 192.85 Z" />
<path fill="#ffffff" opacity="1.00" d=" M 173.49 193.25 C 177.66 194.86 182.18 196.74 184.96 200.39 C 183.26 199.84 181.61 199.17 179.99 198.43 C 178.79 199.30 177.59 200.16 176.39 201.03 C 176.58 202.36 176.76 203.69 176.95 205.03 C 176.64 205.24 176.04 205.66 175.73 205.86 C 174.88 201.68 173.90 197.51 173.49 193.25 M 177.73 198.44 C 178.93 197.41 177.30 195.83 176.11 196.04 C 174.05 196.64 176.20 200.08 177.73 198.44 Z" />
<path fill="#ffffff" opacity="1.00" d=" M 76.83 195.67 C 77.30 195.52 78.24 195.23 78.71 195.09 C 76.42 198.52 74.82 202.82 71.17 205.05 C 72.45 201.61 74.54 198.52 76.83 195.67 Z" />
<path fill="#ffffff" opacity="1.00" d=" M 81.73 198.16 C 82.09 198.27 82.83 198.49 83.19 198.61 C 83.77 201.97 84.42 205.33 85.01 208.70 C 86.59 206.14 87.58 203.04 90.14 201.25 C 89.17 205.29 86.85 208.81 84.80 212.37 C 83.00 208.98 82.88 205.05 82.01 201.39 C 80.38 203.83 79.43 206.89 76.88 208.59 C 77.83 204.83 79.99 201.57 81.73 198.16 Z" />
<path fill="#ffffff" opacity="1.00" d=" M 166.05 206.33 C 166.16 203.40 166.19 200.45 166.82 197.58 C 169.15 201.07 172.02 204.67 172.32 209.02 C 170.52 206.91 169.17 204.49 167.74 202.14 C 167.61 204.48 167.52 206.84 167.42 209.19 C 165.36 207.85 163.31 206.50 161.27 205.15 C 162.47 207.65 163.66 210.17 164.51 212.82 C 160.86 210.54 160.03 205.80 158.30 202.12 C 161.19 202.88 163.56 204.77 166.05 206.33 Z" />
<path fill="#ffffff" opacity="1.00" d=" M 92.12 203.97 C 95.78 204.20 99.25 205.57 102.47 207.27 C 100.83 207.61 99.18 207.40 97.54 207.21 C 96.48 210.34 95.47 213.52 93.79 216.40 C 93.17 212.96 95.19 209.83 95.98 206.59 C 94.65 205.78 93.33 204.94 92.12 203.97 Z" />
<path fill="#ffffff" opacity="1.00" d=" M 145.57 207.40 C 148.61 206.57 151.92 204.35 155.05 205.88 C 156.40 207.63 155.72 209.83 154.71 211.55 C 155.65 212.55 156.61 213.55 157.56 214.55 C 157.22 214.75 156.53 215.14 156.19 215.33 C 154.96 214.06 153.72 212.79 152.46 211.55 C 151.62 211.85 149.94 212.46 149.09 212.76 C 149.39 214.23 149.70 215.71 150.00 217.18 L 148.73 217.53 C 147.70 214.14 146.69 210.76 145.57 207.40 M 147.78 208.34 C 147.88 209.07 148.08 210.53 148.18 211.26 C 150.24 210.35 154.15 210.73 154.50 207.90 C 152.85 205.49 149.90 207.86 147.78 208.34 Z" />
<path fill="#ffffff" opacity="1.00" d=" M 133.25 209.43 C 136.36 208.86 139.49 208.38 142.66 208.32 C 140.91 210.66 137.63 210.12 135.12 210.70 C 135.18 211.34 135.29 212.63 135.35 213.27 C 136.50 213.32 138.79 213.42 139.93 213.46 C 138.63 214.30 137.16 214.79 135.71 215.29 C 135.76 215.95 135.85 217.27 135.89 217.94 C 138.76 217.75 141.63 217.39 144.52 217.60 C 141.71 219.70 138.05 219.39 134.76 219.90 C 134.29 216.40 133.72 212.92 133.25 209.43 Z" />
<path fill="#ffffff" opacity="1.00" d=" M 119.50 215.00 C 119.14 209.53 128.15 207.11 130.00 212.50 C 127.88 211.84 125.66 210.52 123.40 211.46 C 120.43 212.53 120.31 217.51 123.29 218.63 C 124.89 219.56 126.66 218.75 128.33 218.52 C 128.42 218.05 128.59 217.11 128.67 216.64 C 127.19 216.18 125.69 215.74 124.37 214.92 C 126.39 214.68 128.43 214.63 130.46 214.61 C 130.11 216.18 130.22 217.95 129.35 219.37 C 125.87 222.40 119.16 219.97 119.50 215.00 Z" />
<path fill="#ffffff" opacity="1.00" d=" M 107.53 212.50 C 109.05 213.02 110.57 213.55 112.06 214.17 C 110.48 214.64 108.84 214.58 107.22 214.56 C 107.30 214.04 107.45 213.01 107.53 212.50 Z" />
</g>
<g id="#004170ff">
<path fill="#004170" opacity="1.00" d=" M 118.66 0.00 L 129.69 0.00 C 158.01 1.09 185.85 12.06 207.14 30.79 C 232.14 52.29 247.71 84.03 250.00 116.89 L 250.00 132.54 C 248.28 159.19 237.98 185.25 220.65 205.60 C 198.98 231.61 166.36 247.95 132.59 250.00 L 117.39 250.00 C 90.31 248.20 63.85 237.55 43.38 219.67 C 17.24 197.36 1.18 163.85 0.00 129.52 L 0.00 118.55 C 1.91 85.38 17.28 53.16 42.39 31.32 C 63.31 12.61 90.71 1.67 118.66 0.00 M 109.11 10.03 C 79.01 13.92 51.00 30.46 32.63 54.55 C 14.70 77.69 6.22 107.88 9.39 136.98 C 11.88 163.10 23.78 188.16 42.33 206.70 C 60.96 225.77 86.40 238.04 112.95 240.58 C 140.63 243.59 169.32 236.12 191.97 219.91 C 213.93 204.33 230.36 181.03 237.15 154.93 C 244.01 128.64 241.63 99.88 229.85 75.33 C 217.15 48.43 193.73 26.80 165.86 16.38 C 147.86 9.56 128.16 7.50 109.11 10.03 Z" />
<path fill="#004170" opacity="1.00" d=" M 116.01 13.90 C 139.30 12.03 163.13 17.66 183.03 29.92 C 205.31 43.52 222.61 65.14 230.74 89.96 C 238.93 114.41 238.21 141.69 228.78 165.68 C 218.90 191.17 199.27 212.67 174.79 224.84 C 151.88 236.43 124.89 239.58 99.89 233.79 C 74.26 228.00 50.94 212.70 35.34 191.57 C 20.90 172.27 13.04 148.15 13.39 124.04 C 13.47 97.96 23.26 72.07 40.35 52.39 C 59.18 30.24 87.03 16.12 116.01 13.90 M 118.67 21.40 C 118.68 30.88 118.67 40.36 118.67 49.84 C 120.62 49.78 122.56 49.72 124.51 49.66 C 124.50 46.80 124.50 43.94 124.51 41.08 C 126.99 41.10 129.47 41.11 131.95 41.16 C 134.00 44.38 135.72 47.86 138.23 50.75 C 140.47 51.59 142.85 52.00 145.18 52.56 C 142.92 48.59 140.42 44.77 138.01 40.89 C 141.35 39.29 144.86 36.87 145.54 32.95 C 146.77 27.27 141.63 21.70 136.06 21.47 C 130.27 21.25 124.46 21.45 118.67 21.40 M 86.93 30.16 C 86.43 40.36 85.51 50.53 85.10 60.73 C 86.97 59.69 88.84 58.67 90.74 57.68 C 91.02 55.10 91.22 52.50 91.34 49.91 C 95.17 48.43 98.94 46.62 103.04 46.05 C 105.46 46.99 106.68 49.73 108.52 51.48 C 110.71 51.03 112.91 50.61 115.11 50.22 C 107.76 42.21 100.47 34.14 93.14 26.11 C 91.09 27.32 86.85 27.01 86.93 30.16 M 161.80 28.00 C 158.20 36.82 154.36 45.55 150.92 54.44 C 152.71 55.20 154.49 55.95 156.28 56.72 C 159.98 47.84 163.78 39.00 167.29 30.04 C 165.46 29.36 163.64 28.67 161.80 28.00 M 54.21 48.22 C 52.28 50.79 49.25 52.75 48.09 55.76 C 53.69 61.20 59.62 66.31 65.34 71.64 C 66.42 72.49 67.35 73.76 68.79 74.00 C 69.97 72.86 71.85 71.81 71.96 70.02 C 70.17 67.94 68.02 66.21 66.08 64.28 C 69.44 60.26 73.85 56.96 76.18 52.18 C 78.77 46.12 73.74 38.35 66.98 39.11 C 61.06 38.85 57.85 44.54 54.21 48.22 M 176.38 42.27 C 173.85 44.29 173.84 48.04 175.16 50.75 C 177.56 55.90 183.08 58.75 185.41 63.94 C 186.30 66.13 184.15 68.33 181.94 67.46 C 175.90 65.12 172.32 59.22 169.23 53.86 C 167.85 54.90 166.46 55.93 165.08 56.97 C 168.52 64.06 174.07 71.03 182.01 73.10 C 186.50 74.49 191.67 70.77 191.35 66.00 C 190.63 59.52 185.08 55.37 181.25 50.65 C 180.12 49.48 180.40 47.78 180.23 46.31 C 187.40 45.68 192.32 52.49 195.25 58.16 C 196.58 57.30 197.90 56.44 199.23 55.59 C 196.96 49.44 192.09 44.37 186.15 41.65 C 183.09 40.27 178.98 39.71 176.38 42.27 M 112.18 58.19 C 93.49 61.65 76.63 73.40 66.68 89.56 C 58.33 102.98 54.88 119.37 57.16 135.02 C 59.15 149.53 66.01 163.33 76.40 173.66 C 88.99 186.52 106.91 194.14 124.95 193.86 C 139.01 194.10 153.01 189.51 164.45 181.40 C 178.28 171.62 188.37 156.61 191.88 140.01 C 195.14 125.38 193.32 109.69 186.84 96.17 C 179.50 80.63 166.10 68.07 150.11 61.78 C 138.15 56.95 124.82 55.99 112.18 58.19 M 54.54 179.13 C 54.59 182.95 58.91 185.27 58.32 189.07 C 54.17 189.34 53.05 184.64 50.91 182.06 C 50.30 186.52 54.57 191.37 59.18 190.79 C 59.51 190.08 60.15 188.65 60.47 187.93 C 59.06 185.06 56.87 182.54 56.25 179.32 C 59.92 179.64 61.58 182.96 63.56 185.53 C 63.98 181.60 60.42 178.90 57.18 177.54 C 56.52 177.94 55.20 178.73 54.54 179.13 M 189.71 178.03 C 191.43 180.56 193.81 182.50 196.09 184.50 C 192.23 184.52 188.27 183.25 184.50 184.52 C 187.60 187.00 189.96 191.29 194.21 191.79 C 192.27 189.47 189.93 187.53 187.68 185.52 C 191.56 185.43 195.58 186.82 199.35 185.44 C 196.29 182.84 193.77 179.11 189.71 178.03 M 180.26 188.49 C 182.78 191.62 185.22 195.35 189.08 196.89 C 187.37 194.03 185.03 191.60 182.67 189.27 C 182.04 188.49 181.24 188.23 180.26 188.49 M 59.06 195.36 C 60.79 194.92 62.49 194.38 64.17 193.77 C 65.29 194.70 66.41 195.63 67.52 196.57 C 67.25 198.40 67.04 200.22 66.88 202.06 C 69.59 198.35 70.18 193.63 71.18 189.27 C 66.87 190.47 62.16 191.98 59.06 195.36 M 173.49 193.25 C 173.90 197.51 174.88 201.68 175.73 205.86 C 176.04 205.66 176.64 205.24 176.95 205.03 C 176.76 203.69 176.58 202.36 176.39 201.03 C 177.59 200.16 178.79 199.30 179.99 198.43 C 181.61 199.17 183.26 199.84 184.96 200.39 C 182.18 196.74 177.66 194.86 173.49 193.25 M 76.83 195.67 C 74.54 198.52 72.45 201.61 71.17 205.05 C 74.82 202.82 76.42 198.52 78.71 195.09 C 78.24 195.23 77.30 195.52 76.83 195.67 M 81.73 198.16 C 79.99 201.57 77.83 204.83 76.88 208.59 C 79.43 206.89 80.38 203.83 82.01 201.39 C 82.88 205.05 83.00 208.98 84.80 212.37 C 86.85 208.81 89.17 205.29 90.14 201.25 C 87.58 203.04 86.59 206.14 85.01 208.70 C 84.42 205.33 83.77 201.97 83.19 198.61 C 82.83 198.49 82.09 198.27 81.73 198.16 M 166.05 206.33 C 163.56 204.77 161.19 202.88 158.30 202.12 C 160.03 205.80 160.86 210.54 164.51 212.82 C 163.66 210.17 162.47 207.65 161.27 205.15 C 163.31 206.50 165.36 207.85 167.42 209.19 C 167.52 206.84 167.61 204.48 167.74 202.14 C 169.17 204.49 170.52 206.91 172.32 209.02 C 172.02 204.67 169.15 201.07 166.82 197.58 C 166.19 200.45 166.16 203.40 166.05 206.33 M 92.12 203.97 C 93.33 204.94 94.65 205.78 95.98 206.59 C 95.19 209.83 93.17 212.96 93.79 216.40 C 95.47 213.52 96.48 210.34 97.54 207.21 C 99.18 207.40 100.83 207.61 102.47 207.27 C 99.25 205.57 95.78 204.20 92.12 203.97 M 145.57 207.40 C 146.69 210.76 147.70 214.14 148.73 217.53 L 150.00 217.18 C 149.70 215.71 149.39 214.23 149.09 212.76 C 149.94 212.46 151.62 211.85 152.46 211.55 C 153.72 212.79 154.96 214.06 156.19 215.33 C 156.53 215.14 157.22 214.75 157.56 214.55 C 156.61 213.55 155.65 212.55 154.71 211.55 C 155.72 209.83 156.40 207.63 155.05 205.88 C 151.92 204.35 148.61 206.57 145.57 207.40 M 133.25 209.43 C 133.72 212.92 134.29 216.40 134.76 219.90 C 138.05 219.39 141.71 219.70 144.52 217.60 C 141.63 217.39 138.76 217.75 135.89 217.94 C 135.85 217.27 135.76 215.95 135.71 215.29 C 137.16 214.79 138.63 214.30 139.93 213.46 C 138.79 213.42 136.50 213.32 135.35 213.27 C 135.29 212.63 135.18 211.34 135.12 210.70 C 137.63 210.12 140.91 210.66 142.66 208.32 C 139.49 208.38 136.36 208.86 133.25 209.43 M 119.50 215.00 C 119.16 219.97 125.87 222.40 129.35 219.37 C 130.22 217.95 130.11 216.18 130.46 214.61 C 128.43 214.63 126.39 214.68 124.37 214.92 C 125.69 215.74 127.19 216.18 128.67 216.64 C 128.59 217.11 128.42 218.05 128.33 218.52 C 126.66 218.75 124.89 219.56 123.29 218.63 C 120.31 217.51 120.43 212.53 123.40 211.46 C 125.66 210.52 127.88 211.84 130.00 212.50 C 128.15 207.11 119.14 209.53 119.50 215.00 M 107.53 212.50 C 107.45 213.01 107.30 214.04 107.22 214.56 C 108.84 214.58 110.48 214.64 112.06 214.17 C 110.57 213.55 109.05 213.02 107.53 212.50 Z" />
<path fill="#004170" opacity="1.00" d=" M 124.50 26.47 C 128.64 26.59 132.83 26.12 136.94 26.76 C 140.89 28.08 140.79 34.62 136.72 35.63 C 132.67 36.11 128.57 35.74 124.51 35.85 C 124.50 32.72 124.50 29.59 124.50 26.47 Z" />
<path fill="#004170" opacity="1.00" d=" M 91.89 32.71 C 94.71 35.55 97.33 38.58 99.94 41.61 C 97.12 42.66 94.28 43.66 91.47 44.73 C 91.59 40.72 91.70 36.71 91.89 32.71 Z" />
<path fill="#004170" opacity="1.00" d=" M 64.20 45.17 C 67.71 42.54 73.07 47.11 70.99 50.99 C 68.61 54.75 65.16 57.68 62.19 60.97 C 59.93 58.84 57.67 56.73 55.35 54.67 C 58.30 51.51 60.85 47.93 64.20 45.17 Z" />
<path fill="#004170" opacity="1.00" d=" M 64.63 104.42 C 72.15 82.28 92.69 65.38 115.87 62.21 C 114.45 89.77 104.58 117.32 85.84 137.87 C 80.44 143.92 74.33 149.30 67.87 154.19 C 60.17 138.92 58.99 120.55 64.63 104.42 Z" />
<path fill="#004170" opacity="1.00" d=" M 134.10 62.21 C 152.26 64.82 169.05 75.60 178.83 91.14 C 190.92 109.66 192.05 134.49 182.09 154.18 C 170.81 145.81 160.91 135.54 153.27 123.73 C 141.41 105.48 135.25 83.86 134.10 62.21 Z" />
<path fill="#004170" opacity="1.00" d=" M 102.79 156.84 C 111.51 144.52 130.65 142.21 142.24 151.77 C 152.43 159.28 154.89 174.59 148.03 185.12 C 133.31 190.75 116.66 190.76 101.93 185.13 C 96.46 176.62 96.59 164.94 102.79 156.84 M 124.73 153.66 C 122.89 157.23 120.77 160.91 120.56 165.01 C 121.79 168.52 123.68 171.76 124.92 175.28 C 126.24 171.79 128.16 168.55 129.36 165.02 C 129.07 160.87 127.26 156.92 124.73 153.66 M 110.50 173.69 C 111.57 176.02 114.29 175.74 116.41 175.74 C 116.48 175.30 116.63 174.43 116.70 174.00 C 116.16 173.48 115.07 172.44 114.53 171.93 L 115.09 170.81 C 118.52 169.52 120.60 173.74 123.12 175.36 C 121.82 171.92 119.79 168.15 115.99 167.07 C 112.28 165.52 108.09 170.30 110.50 173.69 M 133.28 167.25 C 129.69 168.55 127.75 172.16 126.74 175.63 C 129.15 173.52 131.32 169.48 135.12 170.72 C 134.92 172.34 131.82 174.77 134.22 175.66 C 137.10 176.76 140.33 173.99 139.83 170.99 C 139.77 167.90 135.96 165.87 133.28 167.25 M 122.38 179.97 C 123.58 180.54 124.93 183.11 126.12 181.20 C 128.10 179.66 125.67 177.66 125.11 175.97 C 124.20 177.30 123.29 178.63 122.38 179.97 Z" />
<path fill="#004170" opacity="1.00" d=" M 65.76 192.85 C 66.89 192.33 68.01 191.81 69.13 191.30 C 68.81 192.59 68.48 193.89 68.16 195.19 C 67.36 194.41 66.56 193.63 65.76 192.85 Z" />
<path fill="#004170" opacity="1.00" d=" M 177.73 198.44 C 176.20 200.08 174.05 196.64 176.11 196.04 C 177.30 195.83 178.93 197.41 177.73 198.44 Z" />
<path fill="#004170" opacity="1.00" d=" M 147.78 208.34 C 149.90 207.86 152.85 205.49 154.50 207.90 C 154.15 210.73 150.24 210.35 148.18 211.26 C 148.08 210.53 147.88 209.07 147.78 208.34 Z" />
</g>
<g id="#e30613ff">
<path fill="#e30613" opacity="1.00" d=" M 119.31 61.74 C 123.09 61.58 126.87 61.58 130.65 61.74 C 131.17 83.49 136.25 105.27 147.04 124.27 C 132.34 124.30 117.64 124.30 102.93 124.27 C 110.22 110.85 115.39 96.26 117.54 81.11 C 118.64 74.71 118.72 68.20 119.31 61.74 Z" />
<path fill="#e30613" opacity="1.00" d=" M 71.60 160.39 C 83.47 151.06 93.49 139.49 101.48 126.70 C 117.13 126.75 132.77 126.75 148.42 126.70 C 156.40 139.52 166.48 151.05 178.32 160.43 C 173.42 168.35 166.43 174.74 158.69 179.83 C 160.49 169.19 156.22 157.92 147.94 151.05 C 136.36 141.01 118.19 139.96 105.46 148.46 C 95.15 154.96 89.04 167.72 91.27 179.82 C 83.50 174.75 76.48 168.34 71.60 160.39 Z" />
</g>
<g id="#c9aa64ff">
<path fill="#c9aa64" opacity="1.00" d=" M 124.73 153.66 C 127.26 156.92 129.07 160.87 129.36 165.02 C 128.16 168.55 126.24 171.79 124.92 175.28 C 123.68 171.76 121.79 168.52 120.56 165.01 C 120.77 160.91 122.89 157.23 124.73 153.66 Z" />
<path fill="#c9aa64" opacity="1.00" d=" M 110.50 173.69 C 108.09 170.30 112.28 165.52 115.99 167.07 C 119.79 168.15 121.82 171.92 123.12 175.36 C 120.60 173.74 118.52 169.52 115.09 170.81 L 114.53 171.93 C 115.07 172.44 116.16 173.48 116.70 174.00 C 116.63 174.43 116.48 175.30 116.41 175.74 C 114.29 175.74 111.57 176.02 110.50 173.69 Z" />
<path fill="#c9aa64" opacity="1.00" d=" M 133.28 167.25 C 135.96 165.87 139.77 167.90 139.83 170.99 C 140.33 173.99 137.10 176.76 134.22 175.66 C 131.82 174.77 134.92 172.34 135.12 170.72 C 131.32 169.48 129.15 173.52 126.74 175.63 C 127.75 172.16 129.69 168.55 133.28 167.25 Z" />
<path fill="#c9aa64" opacity="1.00" d=" M 122.38 179.97 C 123.29 178.63 124.20 177.30 125.11 175.97 C 125.67 177.66 128.10 179.66 126.12 181.20 C 124.93 183.11 123.58 180.54 122.38 179.97 Z" />
</g>
</svg>
