<?xml version="1.0" encoding="UTF-8" ?>
<!DOCTYPE svg PUBLIC "-//W3C//DTD SVG 1.1//EN" "http://www.w3.org/Graphics/SVG/1.1/DTD/svg11.dtd">
<svg width="250pt" height="250pt" viewBox="0 0 250 250" version="1.1" xmlns="http://www.w3.org/2000/svg">
<g id="#ffffffff">
<path fill="#ffffff" opacity="1.00" d=" M 0.00 0.00 L 250.00 0.00 L 250.00 250.00 L 0.00 250.00 L 0.00 0.00 M 202.51 89.47 C 200.58 89.91 199.24 91.35 198.29 93.00 C 200.39 95.43 202.76 97.60 205.04 99.85 C 198.28 105.48 191.45 111.10 184.03 115.86 C 174.69 110.73 165.17 105.91 155.29 101.89 C 127.17 90.54 96.41 83.49 66.03 87.42 C 47.42 89.13 28.94 95.63 14.14 107.22 C 11.37 109.21 8.83 111.55 6.81 114.31 C 11.91 111.62 16.07 107.40 21.46 105.23 C 36.20 97.88 52.59 94.11 69.01 93.54 C 105.68 92.14 141.59 104.71 172.84 123.18 C 160.22 131.43 146.58 138.00 132.64 143.67 C 116.66 149.88 100.02 154.71 82.93 156.46 C 63.31 159.02 43.00 157.11 24.32 150.45 C 16.15 147.02 8.73 142.02 1.99 136.29 C 15.84 151.66 35.93 160.78 56.40 162.64 C 65.18 164.22 74.16 163.47 83.04 163.59 C 115.34 161.42 146.45 150.13 174.79 134.87 C 177.83 133.44 180.48 131.01 183.80 130.28 C 191.08 135.03 197.94 140.45 204.53 146.12 C 202.44 148.66 198.48 150.49 199.20 154.36 C 214.88 160.77 231.07 165.90 246.96 171.76 C 240.33 159.63 232.95 147.94 226.12 135.92 C 225.02 134.46 224.29 131.80 222.01 132.21 C 219.15 132.46 217.40 135.28 215.12 136.75 C 209.85 132.71 204.51 128.74 198.91 125.15 C 197.66 124.40 196.59 123.40 195.72 122.24 C 202.41 118.01 208.74 113.26 215.02 108.47 C 217.32 110.40 219.58 112.39 222.11 114.01 C 223.95 112.48 225.45 110.59 226.59 108.48 C 233.35 96.80 240.38 85.28 246.99 73.53 C 232.12 78.72 217.34 84.16 202.51 89.47 M 75.65 83.25 C 83.42 84.04 91.29 82.89 99.03 84.10 C 126.39 86.24 153.00 95.41 176.58 109.33 C 177.73 109.95 178.89 110.54 180.08 111.10 C 174.03 104.88 166.60 100.22 159.10 95.96 C 143.39 87.33 125.87 82.19 108.04 80.62 C 97.20 80.26 86.14 80.09 75.65 83.25 M 55.75 98.58 C 42.91 99.65 30.60 104.22 19.44 110.53 C 13.78 114.30 8.15 118.40 4.04 123.90 C 15.09 116.74 26.99 110.96 39.36 106.48 C 45.91 104.61 52.47 102.74 59.14 101.35 C 64.12 100.24 69.25 100.11 74.23 99.03 C 68.25 96.52 61.92 98.38 55.75 98.58 M 3.67 131.37 C 12.08 141.30 24.25 147.40 36.77 150.31 C 47.22 153.51 58.27 154.23 69.11 153.27 C 69.90 153.02 71.47 152.52 72.25 152.27 C 68.30 150.88 64.02 151.77 59.97 150.90 C 40.05 148.64 20.85 141.60 3.67 131.37 M 162.09 145.01 C 142.82 155.26 121.74 162.18 100.09 165.01 C 91.74 166.04 83.32 166.19 74.94 166.88 C 101.26 171.96 128.96 166.78 152.66 154.61 C 162.62 149.21 172.51 143.08 180.16 134.61 C 173.98 137.81 168.36 141.97 162.09 145.01 Z" />
</g>
<g id="#081333ff">
<path fill="#081333" opacity="1.00" d=" M 202.51 89.47 C 217.34 84.16 232.12 78.72 246.99 73.53 C 240.38 85.28 233.35 96.80 226.59 108.48 C 225.45 110.59 223.95 112.48 222.11 114.01 C 219.58 112.39 217.32 110.40 215.02 108.47 C 208.74 113.26 202.41 118.01 195.72 122.24 C 196.59 123.40 197.66 124.40 198.91 125.15 C 204.51 128.74 209.85 132.71 215.12 136.75 C 217.40 135.28 219.15 132.46 222.01 132.21 C 224.29 131.80 225.02 134.46 226.12 135.92 C 232.95 147.94 240.33 159.63 246.96 171.76 C 231.07 165.90 214.88 160.77 199.20 154.36 C 198.48 150.49 202.44 148.66 204.53 146.12 C 197.94 140.45 191.08 135.03 183.80 130.28 C 180.48 131.01 177.83 133.44 174.79 134.87 C 146.45 150.13 115.34 161.42 83.04 163.59 C 74.16 163.47 65.18 164.22 56.40 162.64 C 35.93 160.78 15.84 151.66 1.99 136.29 C 8.73 142.02 16.15 147.02 24.32 150.45 C 43.00 157.11 63.31 159.02 82.93 156.46 C 100.02 154.71 116.66 149.88 132.64 143.67 C 146.58 138.00 160.22 131.43 172.84 123.18 C 141.59 104.71 105.68 92.14 69.01 93.54 C 52.59 94.11 36.20 97.88 21.46 105.23 C 16.07 107.40 11.91 111.62 6.81 114.31 C 8.83 111.55 11.37 109.21 14.14 107.22 C 28.94 95.63 47.42 89.13 66.03 87.42 C 96.41 83.49 127.17 90.54 155.29 101.89 C 165.17 105.91 174.69 110.73 184.03 115.86 C 191.45 111.10 198.28 105.48 205.04 99.85 C 202.76 97.60 200.39 95.43 198.29 93.00 C 199.24 91.35 200.58 89.91 202.51 89.47 Z" />
<path fill="#081333" opacity="1.00" d=" M 75.65 83.25 C 86.14 80.09 97.20 80.26 108.04 80.62 C 125.87 82.19 143.39 87.33 159.10 95.96 C 166.60 100.22 174.03 104.88 180.08 111.10 C 178.89 110.54 177.73 109.95 176.58 109.33 C 153.00 95.41 126.39 86.24 99.03 84.10 C 91.29 82.89 83.42 84.04 75.65 83.25 Z" />
<path fill="#081333" opacity="1.00" d=" M 55.75 98.58 C 61.92 98.38 68.25 96.52 74.23 99.03 C 69.25 100.11 64.12 100.24 59.14 101.35 C 52.47 102.74 45.91 104.61 39.36 106.48 C 26.99 110.96 15.09 116.74 4.04 123.90 C 8.15 118.40 13.78 114.30 19.44 110.53 C 30.60 104.22 42.91 99.65 55.75 98.58 Z" />
<path fill="#081333" opacity="1.00" d=" M 3.67 131.37 C 20.85 141.60 40.05 148.64 59.97 150.90 C 64.02 151.77 68.30 150.88 72.25 152.27 C 71.47 152.52 69.90 153.02 69.11 153.27 C 58.27 154.23 47.22 153.51 36.77 150.31 C 24.25 147.40 12.08 141.30 3.67 131.37 Z" />
<path fill="#081333" opacity="1.00" d=" M 162.09 145.01 C 168.36 141.97 173.98 137.81 180.16 134.61 C 172.51 143.08 162.62 149.21 152.66 154.61 C 128.96 166.78 101.26 171.96 74.94 166.88 C 83.32 166.19 91.74 166.04 100.09 165.01 C 121.74 162.18 142.82 155.26 162.09 145.01 Z" />
</g>
</svg>
