<?xml version="1.0" encoding="UTF-8" ?>
<!DOCTYPE svg PUBLIC "-//W3C//DTD SVG 1.1//EN" "http://www.w3.org/Graphics/SVG/1.1/DTD/svg11.dtd">
<svg width="250pt" height="250pt" viewBox="0 0 250 250" version="1.1" xmlns="http://www.w3.org/2000/svg">
<g id="#ffffffff">
<path fill="#ffffff" opacity="1.00" d=" M 0.00 0.00 L 250.00 0.00 L 250.00 250.00 L 0.00 250.00 L 0.00 0.00 M 121.83 40.88 C 99.80 53.88 77.51 66.43 55.42 79.34 C 53.75 80.46 51.21 81.51 51.57 83.95 C 51.43 110.97 51.62 138.00 51.48 165.02 C 51.62 167.00 51.02 169.71 53.24 170.75 C 59.13 174.63 65.59 177.55 71.46 181.47 C 87.11 190.11 102.32 199.48 118.00 208.08 C 121.37 209.83 124.20 212.89 128.00 213.67 C 131.81 212.85 134.75 209.89 138.16 208.12 C 150.52 201.21 162.62 193.85 174.98 186.94 C 183.55 182.28 191.70 176.89 200.36 172.38 C 201.98 171.20 205.01 170.50 204.60 167.96 C 204.61 139.10 204.58 110.24 204.61 81.38 C 190.30 73.43 176.21 65.13 162.04 56.96 C 150.59 50.69 139.63 43.55 128.00 37.60 C 125.94 38.69 123.86 39.73 121.83 40.88 Z" />
<path fill="#ffffff" opacity="1.00" d=" M 71.30 76.26 C 90.18 65.32 109.05 54.37 128.00 43.56 C 150.57 56.38 173.00 69.46 195.47 82.46 C 197.10 83.63 199.94 84.55 199.50 87.06 C 199.46 113.57 199.41 140.08 199.52 166.59 C 184.34 175.32 169.19 184.08 154.08 192.94 C 145.32 197.59 137.02 203.18 128.06 207.39 C 122.50 205.13 117.61 201.52 112.28 198.79 C 93.72 187.99 75.07 177.34 56.48 166.58 C 56.52 139.46 56.66 112.33 56.41 85.22 C 60.95 81.57 66.40 79.36 71.30 76.26 M 108.75 72.64 C 99.69 77.46 90.92 82.79 82.10 88.02 C 78.98 89.94 75.45 91.21 72.57 93.51 C 72.18 114.89 72.56 136.31 72.39 157.71 C 77.62 160.32 82.13 165.09 88.13 165.64 C 89.74 158.63 93.21 152.26 95.47 145.46 C 106.31 117.65 116.90 89.76 127.82 61.99 C 121.09 64.82 114.97 68.86 108.75 72.64 M 129.15 62.73 C 133.89 73.63 139.82 83.99 144.43 94.96 C 139.97 100.71 135.62 106.54 131.51 112.55 C 123.30 122.71 116.13 133.66 107.67 143.62 C 105.72 145.89 104.10 148.42 102.91 151.17 C 108.02 150.99 113.11 150.51 118.22 150.45 C 127.39 150.36 136.55 148.95 145.71 149.79 C 141.78 153.38 136.54 154.79 131.77 156.87 C 120.54 161.66 109.54 167.01 98.12 171.34 C 96.86 171.60 97.62 173.15 98.57 173.23 C 108.69 178.07 117.79 184.83 128.00 189.46 C 134.46 186.78 140.21 182.68 146.37 179.42 C 152.48 176.28 157.96 172.07 164.21 169.18 C 165.69 168.21 167.88 167.69 168.65 165.98 C 165.66 162.42 161.51 160.07 158.40 156.62 C 155.05 152.95 151.18 149.83 147.71 146.29 C 141.44 139.17 134.42 132.77 127.89 125.90 C 129.61 122.44 131.85 119.29 134.24 116.27 C 138.48 110.86 142.06 104.92 146.82 99.94 C 151.13 108.94 154.58 118.31 158.52 127.47 C 163.13 139.26 169.20 150.47 172.90 162.60 C 177.14 163.02 180.26 159.65 183.67 157.72 C 183.62 136.82 183.70 115.92 183.64 95.03 C 184.06 93.02 181.91 92.36 180.56 91.52 C 169.87 86.06 159.80 79.49 149.26 73.74 C 142.57 70.05 136.38 65.36 129.15 62.73 Z" />
</g>
<g id="#ff8643ff">
<path fill="#ff8643" opacity="1.00" d=" M 121.83 40.88 C 123.86 39.73 125.94 38.69 128.00 37.60 C 139.63 43.55 150.59 50.69 162.04 56.96 C 176.21 65.13 190.30 73.43 204.61 81.38 C 204.58 110.24 204.61 139.10 204.60 167.96 C 205.01 170.50 201.98 171.20 200.36 172.38 C 191.70 176.89 183.55 182.28 174.98 186.94 C 162.62 193.85 150.52 201.21 138.16 208.12 C 134.75 209.89 131.81 212.85 128.00 213.67 C 124.20 212.89 121.37 209.83 118.00 208.08 C 102.32 199.48 87.11 190.11 71.46 181.47 C 65.59 177.55 59.13 174.63 53.24 170.75 C 51.02 169.71 51.62 167.00 51.48 165.02 C 51.62 138.00 51.43 110.97 51.57 83.95 C 51.21 81.51 53.75 80.46 55.42 79.34 C 77.51 66.43 99.80 53.88 121.83 40.88 M 71.30 76.26 C 66.40 79.36 60.95 81.57 56.41 85.22 C 56.66 112.33 56.52 139.46 56.48 166.58 C 75.07 177.34 93.72 187.99 112.28 198.79 C 117.61 201.52 122.50 205.13 128.06 207.39 C 137.02 203.18 145.32 197.59 154.08 192.94 C 169.19 184.08 184.34 175.32 199.52 166.59 C 199.41 140.08 199.46 113.57 199.50 87.06 C 199.94 84.55 197.10 83.63 195.47 82.46 C 173.00 69.46 150.57 56.38 128.00 43.56 C 109.05 54.37 90.18 65.32 71.30 76.26 Z" />
<path fill="#ff8643" opacity="1.00" d=" M 108.75 72.64 C 114.97 68.86 121.09 64.82 127.82 61.99 C 116.90 89.76 106.31 117.65 95.47 145.46 C 93.21 152.26 89.74 158.63 88.13 165.64 C 82.13 165.09 77.62 160.32 72.39 157.71 C 72.56 136.31 72.18 114.89 72.57 93.51 C 75.45 91.21 78.98 89.94 82.10 88.02 C 90.92 82.79 99.69 77.46 108.75 72.64 Z" />
<path fill="#ff8643" opacity="1.00" d=" M 129.15 62.73 C 136.38 65.36 142.57 70.05 149.26 73.74 C 159.80 79.49 169.87 86.06 180.56 91.52 C 181.91 92.36 184.06 93.02 183.64 95.03 C 183.70 115.92 183.62 136.82 183.67 157.72 C 180.26 159.65 177.14 163.02 172.90 162.60 C 169.20 150.47 163.13 139.26 158.52 127.47 C 154.58 118.31 151.13 108.94 146.82 99.94 C 142.06 104.92 138.48 110.86 134.24 116.27 C 131.85 119.29 129.61 122.44 127.89 125.90 C 134.42 132.77 141.44 139.17 147.71 146.29 C 151.18 149.83 155.05 152.95 158.40 156.62 C 161.51 160.07 165.66 162.42 168.65 165.98 C 167.88 167.69 165.69 168.21 164.21 169.18 C 157.96 172.07 152.48 176.28 146.37 179.42 C 140.21 182.68 134.46 186.78 128.00 189.46 C 117.79 184.83 108.69 178.07 98.57 173.23 C 97.62 173.15 96.86 171.60 98.12 171.34 C 109.54 167.01 120.54 161.66 131.77 156.87 C 136.54 154.79 141.78 153.38 145.71 149.79 C 136.55 148.95 127.39 150.36 118.22 150.45 C 113.11 150.51 108.02 150.99 102.91 151.17 C 104.10 148.42 105.72 145.89 107.67 143.62 C 116.13 133.66 123.30 122.71 131.51 112.55 C 135.62 106.54 139.97 100.71 144.43 94.96 C 139.82 83.99 133.89 73.63 129.15 62.73 Z" />
</g>
</svg>
