<?xml version="1.0" encoding="UTF-8" ?>
<!DOCTYPE svg PUBLIC "-//W3C//DTD SVG 1.1//EN" "http://www.w3.org/Graphics/SVG/1.1/DTD/svg11.dtd">
<svg width="250pt" height="188pt" viewBox="0 0 250 188" version="1.1" xmlns="http://www.w3.org/2000/svg">
<g id="#789168ff">
<path fill="#789168" opacity="1.00" d=" M 0.00 0.00 L 1.53 0.00 C 2.29 4.49 11.12 4.99 10.18 0.00 L 10.96 0.00 C 11.18 0.52 11.62 1.56 11.85 2.07 C 9.08 7.63 14.03 5.47 17.17 3.56 C 13.59 10.05 19.26 6.95 22.61 4.68 C 21.30 8.04 23.29 9.03 25.07 5.89 C 27.37 4.68 30.55 7.97 31.44 10.15 C 29.53 13.94 39.07 8.13 33.30 16.23 C 35.28 14.20 36.81 11.45 40.11 13.05 C 41.28 14.29 42.37 15.60 43.36 16.98 C 42.28 17.40 41.19 17.82 40.11 18.23 C 37.10 19.11 33.44 20.20 35.66 24.02 C 35.23 25.61 34.50 27.10 33.28 28.23 C 34.17 23.99 30.65 19.79 28.31 17.00 C 29.14 15.59 31.45 15.06 32.20 13.25 C 26.94 16.25 25.20 10.08 20.57 10.45 C 14.63 7.02 15.29 13.88 13.79 16.93 C 8.84 17.59 9.46 11.50 5.10 10.96 C 9.87 12.61 7.99 7.38 9.95 4.86 C 7.35 5.72 0.45 6.03 2.97 9.98 C 2.11 10.82 1.30 12.31 0.00 11.16 L 0.00 0.00 Z" />
</g>
<g id="#cfe2deff">
<path fill="#cfe2de" opacity="1.00" d=" M 1.53 0.00 L 10.18 0.00 C 11.12 4.99 2.29 4.49 1.53 0.00 Z" />
</g>
<g id="#d6e2e0ff">
<path fill="#d6e2e0" opacity="1.00" d=" M 10.96 0.00 L 25.68 0.00 C 24.44 5.46 33.94 4.78 31.44 10.15 C 30.55 7.97 27.37 4.68 25.07 5.89 C 23.01 3.77 19.87 4.19 17.17 3.56 C 16.24 1.65 13.49 3.08 11.85 2.07 C 11.62 1.56 11.18 0.52 10.96 0.00 Z" />
</g>
<g id="#f7fafdff">
<path fill="#f7fafd" opacity="1.00" d=" M 25.68 0.00 L 250.00 0.00 L 250.00 102.67 C 246.82 103.24 243.44 103.82 240.82 105.86 C 240.38 106.12 239.50 106.66 239.07 106.93 C 235.30 107.24 231.67 108.34 227.94 108.89 C 227.97 107.33 228.08 105.77 228.19 104.22 C 229.03 98.41 228.97 92.54 229.15 86.68 C 231.25 85.68 233.21 83.69 230.48 82.10 C 227.35 78.71 224.51 75.08 221.32 71.74 C 217.56 67.19 214.17 62.32 210.17 57.97 C 206.56 53.54 203.10 48.99 199.57 44.49 C 194.15 44.18 188.67 45.07 183.23 45.25 C 166.95 46.29 149.50 42.67 133.74 45.78 C 132.11 45.95 130.47 46.10 128.83 46.22 C 116.80 33.88 103.59 22.81 91.78 10.24 C 89.89 8.22 85.85 4.99 83.73 8.74 C 78.97 14.17 73.45 18.66 67.76 22.96 C 67.21 23.23 66.13 23.77 65.58 24.03 C 66.71 21.72 66.89 19.64 64.35 18.18 C 63.12 20.54 61.91 22.93 60.28 25.05 C 59.40 23.02 58.44 21.36 57.00 23.97 C 56.32 23.03 55.61 22.97 54.87 23.78 C 53.25 25.37 50.85 26.63 50.23 28.91 C 49.49 29.69 48.66 29.80 47.74 29.26 C 50.59 26.37 44.98 21.94 50.02 22.81 C 47.57 16.80 42.68 25.10 40.07 19.96 C 40.08 19.53 40.10 18.67 40.11 18.23 C 41.19 17.82 42.28 17.40 43.36 16.98 C 50.36 16.50 42.46 12.31 40.11 13.05 C 36.81 11.45 35.28 14.20 33.30 16.23 C 39.07 8.13 29.53 13.94 31.44 10.15 C 33.94 4.78 24.44 5.46 25.68 0.00 Z" />
</g>
<g id="#a8bca8ff">
<path fill="#a8bca8" opacity="1.00" d=" M 11.85 2.07 C 13.49 3.08 16.24 1.65 17.17 3.56 C 14.03 5.47 9.08 7.63 11.85 2.07 Z" />
</g>
<g id="#9eb590ff">
<path fill="#9eb590" opacity="1.00" d=" M 17.17 3.56 C 19.87 4.19 23.01 3.77 25.07 5.89 C 23.29 9.03 21.30 8.04 22.61 4.68 C 19.26 6.95 13.59 10.05 17.17 3.56 Z" />
</g>
<g id="#acc4afff">
<path fill="#acc4af" opacity="1.00" d=" M 2.97 9.98 C 0.45 6.03 7.35 5.72 9.95 4.86 C 7.99 7.38 9.87 12.61 5.10 10.96 C 4.56 10.71 3.50 10.22 2.97 9.98 Z" />
</g>
<g id="#404348ff">
<path fill="#404348" opacity="1.00" d=" M 83.73 8.74 C 85.85 4.99 89.89 8.22 91.78 10.24 C 103.59 22.81 116.80 33.88 128.83 46.22 C 135.75 54.55 146.20 61.31 151.22 70.36 C 149.79 69.35 148.54 68.12 147.26 66.94 C 145.17 64.77 143.05 62.64 140.71 60.73 L 140.15 60.18 C 131.46 51.76 122.78 43.30 114.13 34.82 C 105.97 26.44 97.93 17.85 88.76 10.55 C 87.57 10.42 86.37 10.43 85.19 10.55 C 77.75 17.32 70.35 24.13 63.15 31.16 L 62.26 31.31 L 61.82 30.56 C 63.95 28.93 65.26 26.69 65.58 24.03 C 65.72 27.10 68.62 25.07 67.76 22.96 C 73.45 18.66 78.97 14.17 83.73 8.74 Z" />
</g>
<g id="#537237ff">
<path fill="#537237" opacity="1.00" d=" M 0.00 11.16 C 1.30 12.31 2.11 10.82 2.97 9.98 C 3.50 10.22 4.56 10.71 5.10 10.96 C 9.46 11.50 8.84 17.59 13.79 16.93 C 15.29 13.88 14.63 7.02 20.57 10.45 C 25.20 10.08 26.94 16.25 32.20 13.25 C 31.45 15.06 29.14 15.59 28.31 17.00 C 30.65 19.79 34.17 23.99 33.28 28.23 C 34.50 27.10 35.23 25.61 35.66 24.02 L 36.00 23.07 C 36.64 27.49 40.25 23.24 42.91 24.78 C 38.67 28.06 44.25 33.23 47.74 29.26 C 48.66 29.80 49.49 29.69 50.23 28.91 C 50.85 30.64 51.40 35.12 52.12 31.11 C 51.81 27.26 55.43 26.98 54.87 23.78 C 55.61 22.97 56.32 23.03 57.00 23.97 C 59.74 25.41 60.58 27.97 61.82 30.56 L 62.26 31.31 C 60.35 32.49 58.56 33.37 58.61 30.25 C 54.75 28.97 60.10 35.62 55.94 35.79 C 53.46 38.25 52.87 32.62 50.33 34.30 C 46.35 34.40 48.52 41.55 52.13 39.27 C 51.32 42.37 47.04 42.80 46.10 46.06 C 44.64 48.93 45.73 42.80 43.28 44.46 C 39.67 45.74 36.40 39.65 33.12 43.12 C 33.65 46.46 34.90 49.41 37.97 51.09 C 42.66 54.89 27.65 56.27 33.21 54.34 C 35.02 54.60 39.39 50.78 35.60 51.50 C 27.37 57.82 34.77 44.36 30.09 49.12 C 27.77 52.86 27.91 47.86 26.36 46.12 C 28.24 45.41 32.56 46.18 31.95 43.17 C 29.21 40.07 25.29 42.92 23.27 45.30 C 23.56 43.58 23.85 41.86 24.24 40.15 C 26.32 40.10 29.11 41.76 30.19 39.13 C 30.08 34.45 33.68 40.20 35.98 37.98 C 38.46 36.10 40.48 38.66 42.39 40.03 C 41.80 37.00 45.61 37.53 46.18 35.16 C 38.40 37.67 30.01 27.14 22.70 33.59 C 22.82 32.99 23.06 31.79 23.18 31.19 C 27.34 29.55 22.24 24.77 18.97 26.35 C 15.19 26.17 16.65 30.59 16.30 33.01 C 16.27 34.80 16.56 36.57 16.69 38.35 C 12.87 38.75 10.32 41.74 7.80 44.31 C 6.38 41.02 4.37 37.84 8.40 35.78 C 10.07 33.01 15.49 37.06 14.53 32.89 C 16.01 28.39 9.06 30.22 7.66 32.67 C 5.60 30.50 3.00 29.11 0.00 28.72 L 0.00 27.28 C 1.93 25.37 4.86 22.22 0.00 22.79 L 0.00 20.97 C 5.11 20.19 5.50 22.86 7.91 26.17 C 12.42 18.00 4.48 20.56 0.00 19.03 L 0.00 11.16 Z" />
</g>
<g id="#adb4b8ff">
<path fill="#adb4b8" opacity="1.00" d=" M 85.19 10.55 C 86.37 10.43 87.57 10.42 88.76 10.55 C 97.93 17.85 105.97 26.44 114.13 34.82 C 113.63 34.81 112.62 34.79 112.12 34.77 C 111.14 34.44 110.17 34.13 109.19 33.82 C 108.93 33.44 108.42 32.68 108.16 32.29 C 107.03 26.39 97.57 28.40 92.97 27.98 L 92.08 27.83 C 91.75 27.54 91.07 26.95 90.74 26.66 C 94.50 25.83 106.41 27.82 99.26 22.74 C 91.19 23.39 76.49 16.96 71.75 26.87 C 75.16 26.99 78.59 27.04 82.00 27.04 C 82.03 33.03 81.78 39.03 82.09 45.02 C 84.60 44.82 89.62 44.42 92.13 44.22 L 93.00 44.07 C 93.00 44.54 92.99 45.50 92.99 45.98 C 80.05 45.85 67.10 46.31 54.17 45.89 C 60.49 43.63 72.49 45.83 80.98 44.92 L 81.00 40.09 C 73.36 40.07 65.67 39.49 58.05 40.17 C 53.69 42.54 51.68 49.19 45.83 48.98 C 49.64 44.86 53.53 40.82 57.64 37.00 C 60.07 41.84 68.63 37.49 73.00 39.09 C 75.51 37.58 85.10 42.21 81.00 34.06 C 72.41 32.06 65.18 34.82 57.64 37.00 C 59.49 35.07 61.31 33.10 63.15 31.16 C 70.35 24.13 77.75 17.32 85.19 10.55 M 82.40 16.34 C 80.74 17.61 78.06 18.37 77.80 20.76 C 83.75 19.10 90.05 20.43 96.12 19.94 C 94.50 14.42 86.72 15.90 82.40 16.34 M 70.33 28.26 C 68.04 29.17 66.27 30.95 64.86 32.92 C 70.20 32.33 82.24 36.29 81.00 28.01 C 78.33 28.07 72.99 28.20 70.33 28.26 Z" />
</g>
<g id="#bdcac6ff">
<path fill="#bdcac6" opacity="1.00" d=" M 40.11 13.05 C 42.46 12.31 50.36 16.50 43.36 16.98 C 42.37 15.60 41.28 14.29 40.11 13.05 Z" />
</g>
<g id="#d6dfe4ff">
<path fill="#d6dfe4" opacity="1.00" d=" M 82.40 16.34 C 86.72 15.90 94.50 14.42 96.12 19.94 C 90.05 20.43 83.75 19.10 77.80 20.76 C 78.06 18.37 80.74 17.61 82.40 16.34 Z" />
</g>
<g id="#bccfc8ff">
<path fill="#bccfc8" opacity="1.00" d=" M 35.66 24.02 C 33.44 20.20 37.10 19.11 40.11 18.23 C 40.10 18.67 40.08 19.53 40.07 19.96 C 41.38 24.32 37.17 21.34 36.00 23.07 L 35.66 24.02 Z" />
</g>
<g id="#99aea4ff">
<path fill="#99aea4" opacity="1.00" d=" M 64.35 18.18 C 66.89 19.64 66.71 21.72 65.58 24.03 C 65.26 26.69 63.95 28.93 61.82 30.56 C 60.58 27.97 59.74 25.41 57.00 23.97 C 58.44 21.36 59.40 23.02 60.28 25.05 C 61.91 22.93 63.12 20.54 64.35 18.18 Z" />
</g>
<g id="#94aa97ff">
<path fill="#94aa97" opacity="1.00" d=" M 0.00 19.03 C 4.48 20.56 12.42 18.00 7.91 26.17 C 5.50 22.86 5.11 20.19 0.00 20.97 L 0.00 19.03 Z" />
</g>
<g id="#90a498ff">
<path fill="#90a498" opacity="1.00" d=" M 40.07 19.96 C 42.68 25.10 47.57 16.80 50.02 22.81 C 44.98 21.94 50.59 26.37 47.74 29.26 C 44.25 33.23 38.67 28.06 42.91 24.78 C 40.25 23.24 36.64 27.49 36.00 23.07 C 37.17 21.34 41.38 24.32 40.07 19.96 Z" />
</g>
<g id="#d9e0e5ff">
<path fill="#d9e0e5" opacity="1.00" d=" M 71.75 26.87 C 76.49 16.96 91.19 23.39 99.26 22.74 C 106.41 27.82 94.50 25.83 90.74 26.66 C 87.82 26.79 84.91 26.94 82.00 27.04 C 78.59 27.04 75.16 26.99 71.75 26.87 Z" />
</g>
<g id="#99b09bff">
<path fill="#99b09b" opacity="1.00" d=" M 0.00 22.79 C 4.86 22.22 1.93 25.37 0.00 27.28 L 0.00 22.79 Z" />
</g>
<g id="#96a5a8ff">
<path fill="#96a5a8" opacity="1.00" d=" M 65.58 24.03 C 66.13 23.77 67.21 23.23 67.76 22.96 C 68.62 25.07 65.72 27.10 65.58 24.03 Z" />
</g>
<g id="#8da78dff">
<path fill="#8da78d" opacity="1.00" d=" M 50.23 28.91 C 50.85 26.63 53.25 25.37 54.87 23.78 C 55.43 26.98 51.81 27.26 52.12 31.11 C 51.40 35.12 50.85 30.64 50.23 28.91 Z" />
</g>
<g id="#79a137ff">
<path fill="#79a137" opacity="1.00" d=" M 16.30 33.01 C 16.65 30.59 15.19 26.17 18.97 26.35 C 22.24 24.77 27.34 29.55 23.18 31.19 C 19.95 30.14 17.66 30.74 16.30 33.01 Z" />
</g>
<g id="#80796bff">
<path fill="#80796b" opacity="1.00" d=" M 82.00 27.04 C 84.91 26.94 87.82 26.79 90.74 26.66 C 91.07 26.95 91.75 27.54 92.08 27.83 C 92.06 33.29 91.93 38.76 92.13 44.22 C 89.62 44.42 84.60 44.82 82.09 45.02 C 81.78 39.03 82.03 33.03 82.00 27.04 Z" />
</g>
<g id="#dde4e8ff">
<path fill="#dde4e8" opacity="1.00" d=" M 70.33 28.26 C 72.99 28.20 78.33 28.07 81.00 28.01 C 82.24 36.29 70.20 32.33 64.86 32.92 C 66.27 30.95 68.04 29.17 70.33 28.26 Z" />
</g>
<g id="#bdc4c8ff">
<path fill="#bdc4c8" opacity="1.00" d=" M 92.08 27.83 L 92.97 27.98 C 91.71 35.94 103.03 30.62 108.16 32.29 C 108.42 32.68 108.93 33.44 109.19 33.82 C 104.83 36.02 91.12 29.50 93.03 37.93 C 100.33 38.09 107.63 38.10 114.94 38.04 C 114.00 36.95 113.03 35.88 112.12 34.77 C 112.62 34.79 113.63 34.81 114.13 34.82 C 122.78 43.30 131.46 51.76 140.15 60.18 C 133.57 60.87 131.39 49.83 123.99 52.05 C 98.69 51.83 73.39 52.16 48.09 51.96 C 72.19 48.95 101.16 53.16 127.10 49.84 C 119.30 40.50 103.53 48.79 92.99 45.98 C 92.99 45.50 93.00 44.54 93.00 44.07 C 102.06 43.93 111.12 44.16 120.17 43.91 C 116.73 35.75 104.63 41.86 98.01 39.95 C 91.74 36.55 93.33 41.44 93.00 44.07 L 92.13 44.22 C 91.93 38.76 92.06 33.29 92.08 27.83 Z" />
</g>
<g id="#dfe5ecff">
<path fill="#dfe5ec" opacity="1.00" d=" M 92.97 27.98 C 97.57 28.40 107.03 26.39 108.16 32.29 C 103.03 30.62 91.71 35.94 92.97 27.98 Z" />
</g>
<g id="#7fa63bff">
<path fill="#7fa63b" opacity="1.00" d=" M 0.00 28.72 C 3.00 29.11 5.60 30.50 7.66 32.67 C 9.06 30.22 16.01 28.39 14.53 32.89 C 15.49 37.06 10.07 33.01 8.40 35.78 C 5.99 33.73 2.97 32.70 0.00 31.74 L 0.00 28.72 Z" />
</g>
<g id="#345320ff">
<path fill="#345320" opacity="1.00" d=" M 55.94 35.79 C 60.10 35.62 54.75 28.97 58.61 30.25 C 58.56 33.37 60.35 32.49 62.26 31.31 L 63.15 31.16 C 61.31 33.10 59.49 35.07 57.64 37.00 C 53.53 40.82 49.64 44.86 45.83 48.98 C 37.79 56.14 30.76 64.36 22.71 71.50 C 21.09 71.76 19.45 71.81 17.82 71.93 C 14.90 70.23 12.18 73.12 9.42 73.89 C 9.02 70.97 7.11 68.78 4.94 66.93 C 2.91 67.99 1.53 69.88 0.00 71.52 L 0.00 47.80 C 3.25 47.01 8.80 46.09 9.50 50.60 C 12.04 50.15 14.34 51.22 15.22 53.76 C 10.18 53.75 1.43 50.22 3.14 59.10 C 5.73 55.45 18.44 57.41 10.77 60.04 C 8.21 61.03 5.71 62.38 2.90 62.42 C 5.07 65.92 9.99 60.84 12.23 64.76 C 14.71 68.80 17.87 65.56 20.36 63.41 C 22.63 63.14 19.87 59.46 22.40 60.55 C 27.20 62.18 17.97 53.29 22.71 55.26 C 26.39 58.25 33.32 62.12 36.12 56.21 C 33.58 56.22 29.65 57.94 28.55 54.57 C 27.92 51.76 24.35 49.53 21.92 51.67 C 20.87 49.69 20.68 47.46 20.78 45.26 C 18.61 45.71 16.43 45.88 14.53 44.54 C 12.29 43.08 8.46 48.39 7.80 44.31 C 10.32 41.74 12.87 38.75 16.69 38.35 C 16.56 36.57 16.27 34.80 16.30 33.01 C 17.66 30.74 19.95 30.14 23.18 31.19 C 23.06 31.79 22.82 32.99 22.70 33.59 C 21.15 34.26 19.54 34.80 18.00 35.51 C 21.53 38.62 26.09 37.92 30.19 39.13 C 29.11 41.76 26.32 40.10 24.24 40.15 C 23.85 41.86 23.56 43.58 23.27 45.30 C 25.29 42.92 29.21 40.07 31.95 43.17 C 32.56 46.18 28.24 45.41 26.36 46.12 C 27.91 47.86 27.77 52.86 30.09 49.12 C 34.77 44.36 27.37 57.82 35.60 51.50 C 39.39 50.78 35.02 54.60 33.21 54.34 C 27.65 56.27 42.66 54.89 37.97 51.09 C 34.90 49.41 33.65 46.46 33.12 43.12 C 36.40 39.65 39.67 45.74 43.28 44.46 C 45.73 42.80 44.64 48.93 46.10 46.06 C 47.04 42.80 51.32 42.37 52.13 39.27 C 48.52 41.55 46.35 34.40 50.33 34.30 C 52.87 32.62 53.46 38.25 55.94 35.79 Z" />
</g>
<g id="#759e32ff">
<path fill="#759e32" opacity="1.00" d=" M 22.70 33.59 C 30.01 27.14 38.40 37.67 46.18 35.16 C 45.61 37.53 41.80 37.00 42.39 40.03 C 40.48 38.66 38.46 36.10 35.98 37.98 C 33.68 40.20 30.08 34.45 30.19 39.13 C 26.09 37.92 21.53 38.62 18.00 35.51 C 19.54 34.80 21.15 34.26 22.70 33.59 Z" />
</g>
<g id="#365a16ff">
<path fill="#365a16" opacity="1.00" d=" M 0.00 31.74 C 2.97 32.70 5.99 33.73 8.40 35.78 C 5.54 36.40 2.79 37.42 0.00 38.30 L 0.00 31.74 Z" />
</g>
<g id="#dee6e8ff">
<path fill="#dee6e8" opacity="1.00" d=" M 57.64 37.00 C 65.18 34.82 72.41 32.06 81.00 34.06 C 85.10 42.21 75.51 37.58 73.00 39.09 C 68.63 37.49 60.07 41.84 57.64 37.00 Z" />
</g>
<g id="#e0e7ecff">
<path fill="#e0e7ec" opacity="1.00" d=" M 93.03 37.93 C 91.12 29.50 104.83 36.02 109.19 33.82 C 110.17 34.13 111.14 34.44 112.12 34.77 C 113.03 35.88 114.00 36.95 114.94 38.04 C 107.63 38.10 100.33 38.09 93.03 37.93 Z" />
</g>
<g id="#679433ff">
<path fill="#679433" opacity="1.00" d=" M 0.00 38.30 C 2.79 37.42 5.54 36.40 8.40 35.78 C 4.37 37.84 6.38 41.02 7.80 44.31 C 8.46 48.39 12.29 43.08 14.53 44.54 C 16.43 45.88 18.61 45.71 20.78 45.26 C 20.68 47.46 20.87 49.69 21.92 51.67 C 24.35 49.53 27.92 51.76 28.55 54.57 C 29.65 57.94 33.58 56.22 36.12 56.21 C 33.32 62.12 26.39 58.25 22.71 55.26 C 17.97 53.29 27.20 62.18 22.40 60.55 C 19.87 59.46 22.63 63.14 20.36 63.41 C 17.61 61.14 14.31 60.07 10.77 60.04 C 18.44 57.41 5.73 55.45 3.14 59.10 C 1.43 50.22 10.18 53.75 15.22 53.76 C 14.34 51.22 12.04 50.15 9.50 50.60 C 8.80 46.09 3.25 47.01 0.00 47.80 L 0.00 38.30 Z" />
</g>
<g id="#e4eaeeff">
<path fill="#e4eaee" opacity="1.00" d=" M 58.05 40.17 C 65.67 39.49 73.36 40.07 81.00 40.09 L 80.98 44.92 C 72.49 45.83 60.49 43.63 54.17 45.89 C 67.10 46.31 80.05 45.85 92.99 45.98 C 103.53 48.79 119.30 40.50 127.10 49.84 C 101.16 53.16 72.19 48.95 48.09 51.96 C 73.39 52.16 98.69 51.83 123.99 52.05 C 131.39 49.83 133.57 60.87 140.15 60.18 L 140.71 60.73 C 140.45 61.21 139.93 62.16 139.67 62.63 C 109.80 63.52 79.88 62.75 50.00 62.97 C 49.46 63.22 48.38 63.72 47.85 63.96 C 78.56 64.11 109.29 63.90 140.00 64.01 C 143.26 63.27 144.11 69.01 147.26 66.94 C 148.54 68.12 149.79 69.35 151.22 70.36 C 155.69 70.64 154.95 72.74 151.75 74.82 C 109.15 75.69 66.48 73.84 23.93 76.06 C 22.05 74.40 18.80 74.45 17.82 71.93 C 19.45 71.81 21.09 71.76 22.71 71.50 C 30.76 64.36 37.79 56.14 45.83 48.98 C 51.68 49.19 53.69 42.54 58.05 40.17 M 47.00 57.02 C 71.74 59.31 100.65 57.37 127.00 57.98 C 102.26 55.69 73.34 57.63 47.00 57.02 M 50.98 69.01 L 51.03 69.96 C 71.34 69.43 94.33 71.26 112.97 69.04 C 92.31 68.94 71.64 69.01 50.98 69.01 Z" />
</g>
<g id="#e1e9eeff">
<path fill="#e1e9ee" opacity="1.00" d=" M 93.00 44.07 C 93.33 41.44 91.74 36.55 98.01 39.95 C 104.63 41.86 116.73 35.75 120.17 43.91 C 111.12 44.16 102.06 43.93 93.00 44.07 Z" />
</g>
<g id="#b9b8beff">
<path fill="#b9b8be" opacity="1.00" d=" M 133.74 45.78 C 149.50 42.67 166.95 46.29 183.23 45.25 C 175.61 46.28 167.93 45.94 160.27 46.08 C 151.43 45.89 142.58 46.23 133.74 45.78 Z" />
</g>
<g id="#8a7c85ff">
<path fill="#8a7c85" opacity="1.00" d=" M 183.23 45.25 C 188.67 45.07 194.15 44.18 199.57 44.49 C 203.10 48.99 206.56 53.54 210.17 57.97 C 207.89 56.93 205.72 55.35 203.08 55.67 C 199.24 55.90 203.87 48.13 198.87 50.76 C 192.85 52.59 198.92 58.47 202.93 57.38 C 202.61 62.43 196.07 56.93 194.16 55.05 C 193.55 59.50 188.93 60.36 189.71 54.97 C 185.78 54.57 185.06 62.61 189.70 60.64 C 193.59 60.08 187.71 61.94 188.43 64.02 C 186.04 61.17 182.34 61.96 179.32 60.47 C 179.11 62.92 176.78 63.26 174.79 63.65 C 171.74 62.59 178.32 53.97 173.47 56.31 C 171.78 61.57 170.24 68.09 163.11 66.96 C 165.32 62.07 158.83 61.12 155.35 61.86 C 154.32 58.54 156.61 56.24 159.72 55.48 C 161.07 52.64 156.97 53.25 156.20 51.38 C 157.99 49.96 159.54 48.29 160.27 46.08 C 167.93 45.94 175.61 46.28 183.23 45.25 Z" />
</g>
<g id="#807278ff">
<path fill="#807278" opacity="1.00" d=" M 128.83 46.22 C 130.47 46.10 132.11 45.95 133.74 45.78 C 142.58 46.23 151.43 45.89 160.27 46.08 C 159.54 48.29 157.99 49.96 156.20 51.38 C 156.97 53.25 161.07 52.64 159.72 55.48 C 156.61 56.24 154.32 58.54 155.35 61.86 C 158.83 61.12 165.32 62.07 163.11 66.96 C 170.24 68.09 171.78 61.57 173.47 56.31 C 178.32 53.97 171.74 62.59 174.79 63.65 C 176.78 63.26 179.11 62.92 179.32 60.47 C 182.34 61.96 186.04 61.17 188.43 64.02 C 187.71 61.94 193.59 60.08 189.70 60.64 C 185.06 62.61 185.78 54.57 189.71 54.97 C 188.93 60.36 193.55 59.50 194.16 55.05 C 196.07 56.93 202.61 62.43 202.93 57.38 C 198.92 58.47 192.85 52.59 198.87 50.76 C 203.87 48.13 199.24 55.90 203.08 55.67 C 205.72 55.35 207.89 56.93 210.17 57.97 C 214.17 62.32 217.56 67.19 221.32 71.74 C 217.25 71.84 213.51 79.03 209.91 74.34 C 215.23 74.90 212.11 68.44 208.31 70.59 C 206.54 67.68 202.98 67.83 201.08 65.14 C 199.71 67.96 193.83 75.12 192.86 68.99 C 191.31 66.69 187.91 69.75 185.88 70.38 C 189.72 72.58 194.59 73.01 197.19 77.02 C 200.40 77.37 202.81 75.04 204.95 73.01 C 207.66 75.69 204.18 76.87 201.93 77.70 C 204.11 78.01 206.29 78.49 208.05 79.90 C 198.62 80.00 189.19 79.87 179.77 80.25 C 172.47 81.57 163.04 79.16 156.78 81.93 C 158.64 82.01 162.36 82.18 164.22 82.26 C 159.30 85.01 156.61 82.10 153.13 79.85 C 152.99 81.60 152.97 83.35 152.94 85.11 C 150.67 84.06 150.94 81.18 150.20 79.15 C 150.39 78.62 150.77 77.56 150.96 77.03 C 151.16 76.48 151.55 75.37 151.75 74.82 C 154.95 72.74 155.69 70.64 151.22 70.36 C 146.20 61.31 135.75 54.55 128.83 46.22 Z" />
</g>
<g id="#bec5c9ff">
<path fill="#bec5c9" opacity="1.00" d=" M 47.00 57.02 C 73.34 57.63 102.26 55.69 127.00 57.98 C 100.65 57.37 71.74 59.31 47.00 57.02 Z" />
</g>
<g id="#122c0eff">
<path fill="#122c0e" opacity="1.00" d=" M 2.90 62.42 C 5.71 62.38 8.21 61.03 10.77 60.04 C 14.31 60.07 17.61 61.14 20.36 63.41 C 17.87 65.56 14.71 68.80 12.23 64.76 C 9.99 60.84 5.07 65.92 2.90 62.42 Z" />
</g>
<g id="#c2c9cdff">
<path fill="#c2c9cd" opacity="1.00" d=" M 140.71 60.73 C 143.05 62.64 145.17 64.77 147.26 66.94 C 144.11 69.01 143.26 63.27 140.00 64.01 C 109.29 63.90 78.56 64.11 47.85 63.96 C 48.38 63.72 49.46 63.22 50.00 62.97 C 79.88 62.75 109.80 63.52 139.67 62.63 C 139.93 62.16 140.45 61.21 140.71 60.73 Z" />
</g>
<g id="#72666cff">
<path fill="#72666c" opacity="1.00" d=" M 201.08 65.14 C 202.98 67.83 206.54 67.68 208.31 70.59 C 212.11 68.44 215.23 74.90 209.91 74.34 C 213.51 79.03 217.25 71.84 221.32 71.74 C 224.51 75.08 227.35 78.71 230.48 82.10 C 226.41 83.85 222.18 80.75 218.08 81.03 C 214.85 82.43 211.22 83.54 207.74 82.44 C 211.74 82.47 210.93 81.33 208.05 79.90 C 206.29 78.49 204.11 78.01 201.93 77.70 C 204.18 76.87 207.66 75.69 204.95 73.01 C 202.81 75.04 200.40 77.37 197.19 77.02 C 194.59 73.01 189.72 72.58 185.88 70.38 C 187.91 69.75 191.31 66.69 192.86 68.99 C 193.83 75.12 199.71 67.96 201.08 65.14 Z" />
</g>
<g id="#608a3aff">
<path fill="#608a3a" opacity="1.00" d=" M 0.00 71.52 C 1.53 69.88 2.91 67.99 4.94 66.93 C 7.11 68.78 9.02 70.97 9.42 73.89 C 12.18 73.12 14.90 70.23 17.82 71.93 C 18.80 74.45 22.05 74.40 23.93 76.06 C 24.02 76.46 24.19 77.26 24.27 77.66 C 24.36 78.05 24.52 78.81 24.61 79.19 L 24.69 80.04 C 23.13 81.78 23.31 83.25 25.54 84.17 C 23.87 86.47 25.90 88.96 25.21 91.40 C 24.18 88.06 20.85 87.79 17.93 86.89 C 18.62 84.92 19.66 82.91 21.93 82.51 C 20.74 80.29 16.85 78.50 17.13 82.35 C 16.96 87.45 10.53 76.80 13.19 82.84 C 15.93 86.66 9.80 86.72 7.34 86.24 C 4.68 84.77 6.02 81.12 3.42 79.58 C -1.32 76.49 10.14 71.71 3.31 70.03 C 3.36 72.54 2.23 73.38 0.00 72.25 L 0.00 71.52 Z" />
</g>
<g id="#cdd4d7ff">
<path fill="#cdd4d7" opacity="1.00" d=" M 50.98 69.01 C 71.64 69.01 92.31 68.94 112.97 69.04 C 94.33 71.26 71.34 69.43 51.03 69.96 L 50.98 69.01 Z" />
</g>
<g id="#335022ff">
<path fill="#335022" opacity="1.00" d=" M 3.31 70.03 C 10.14 71.71 -1.32 76.49 3.42 79.58 C 6.02 81.12 4.68 84.77 7.34 86.24 C 5.31 89.10 2.32 87.45 0.00 85.95 L 0.00 72.25 C 2.23 73.38 3.36 72.54 3.31 70.03 Z" />
</g>
<g id="#b7bebfff">
<path fill="#b7bebf" opacity="1.00" d=" M 23.93 76.06 C 66.48 73.84 109.15 75.69 151.75 74.82 C 151.55 75.37 151.16 76.48 150.96 77.03 C 108.74 77.40 66.45 76.14 24.27 77.66 C 24.19 77.26 24.02 76.46 23.93 76.06 Z" />
</g>
<g id="#ebf1f3ff">
<path fill="#ebf1f3" opacity="1.00" d=" M 24.27 77.66 C 66.45 76.14 108.74 77.40 150.96 77.03 C 150.77 77.56 150.39 78.62 150.20 79.15 C 147.54 79.14 144.88 79.16 142.22 79.22 C 125.79 78.87 109.36 78.92 92.93 79.11 C 89.97 79.06 87.02 79.02 84.06 79.08 C 64.24 79.04 44.42 78.78 24.61 79.19 C 24.52 78.81 24.36 78.05 24.27 77.66 Z" />
</g>
<g id="#9da29eff">
<path fill="#9da29e" opacity="1.00" d=" M 24.61 79.19 C 44.42 78.78 64.24 79.04 84.06 79.08 L 83.69 80.13 C 66.49 79.92 49.28 79.96 32.08 80.02 C 29.62 80.09 27.14 80.44 24.69 80.04 L 24.61 79.19 Z" />
</g>
<g id="#5b625eff">
<path fill="#5b625e" opacity="1.00" d=" M 84.06 79.08 C 87.02 79.02 89.97 79.06 92.93 79.11 L 93.36 80.17 C 90.13 80.15 86.91 80.12 83.69 80.13 L 84.06 79.08 Z" />
</g>
<g id="#9ea3a1ff">
<path fill="#9ea3a1" opacity="1.00" d=" M 92.93 79.11 C 109.36 78.92 125.79 78.87 142.22 79.22 C 125.99 81.01 109.63 79.36 93.36 80.17 L 92.93 79.11 Z" />
</g>
<g id="#5d5f52ff">
<path fill="#5d5f52" opacity="1.00" d=" M 142.22 79.22 C 144.88 79.16 147.54 79.14 150.20 79.15 C 150.94 81.18 150.67 84.06 152.94 85.11 C 154.88 85.10 156.82 84.88 158.74 84.62 C 159.37 84.92 160.62 85.53 161.24 85.84 C 157.73 86.28 154.26 86.86 150.81 87.58 C 151.57 89.09 155.97 89.82 152.12 90.11 C 150.74 90.10 149.86 91.04 149.08 92.03 C 149.84 89.36 145.89 89.31 145.17 91.32 C 144.86 97.80 144.84 104.31 145.14 110.80 C 144.98 121.87 145.03 132.94 144.91 144.01 C 144.51 144.27 143.71 144.80 143.31 145.06 C 143.14 144.62 142.79 143.76 142.62 143.32 C 140.45 138.12 141.09 132.24 140.23 126.77 C 139.92 116.53 139.87 106.28 140.01 96.04 C 143.41 95.41 140.20 102.03 141.02 104.15 C 142.85 112.73 140.24 120.92 143.88 129.35 C 144.20 120.19 143.96 111.02 143.97 101.85 C 144.01 95.91 144.14 89.96 143.98 84.02 C 121.88 88.62 98.38 84.86 75.77 85.80 C 79.27 84.15 87.66 87.71 88.12 82.05 C 74.34 85.91 59.50 80.67 45.62 83.60 C 41.02 85.70 48.94 87.47 50.86 88.99 C 50.97 89.42 51.19 90.28 51.29 90.71 L 51.22 91.73 L 50.30 91.91 C 49.72 90.93 48.97 90.10 48.06 89.42 C 46.74 88.09 45.52 87.62 45.81 90.16 C 43.41 88.17 40.85 86.38 38.02 85.06 C 36.78 86.39 35.73 88.69 33.86 86.73 C 31.45 85.13 27.91 81.98 32.08 80.02 C 49.28 79.96 66.49 79.92 83.69 80.13 C 86.89 80.79 90.25 81.54 93.36 80.17 C 109.63 79.36 125.99 81.01 142.22 79.22 Z" />
</g>
<g id="#1d2f16ff">
<path fill="#1d2f16" opacity="1.00" d=" M 17.13 82.35 C 16.85 78.50 20.74 80.29 21.93 82.51 C 19.66 82.91 18.62 84.92 17.93 86.89 C 20.85 87.79 24.18 88.06 25.21 91.40 C 24.43 94.31 24.59 97.31 24.81 100.30 C 22.66 100.57 20.52 101.94 21.37 104.42 C 25.32 108.33 17.13 110.63 20.36 113.56 C 21.20 114.50 20.01 115.72 19.87 116.74 C 15.55 117.32 9.39 120.14 16.84 120.02 C 16.24 124.01 15.98 128.03 15.86 132.07 C 13.00 131.90 10.11 131.97 7.29 131.36 L 7.34 130.40 C 8.09 125.57 7.00 120.34 9.13 115.79 C 14.05 117.43 12.76 111.38 9.06 115.08 L 8.66 114.40 C 4.25 109.27 14.16 113.73 17.01 111.95 C 15.93 107.85 10.11 108.76 11.11 104.01 C 9.09 106.68 6.17 108.46 2.72 108.19 C 4.92 106.59 10.20 104.46 6.59 101.54 C 3.41 101.21 1.77 98.63 0.00 96.33 L 0.00 85.95 C 2.32 87.45 5.31 89.10 7.34 86.24 C 9.80 86.72 15.93 86.66 13.19 82.84 C 10.53 76.80 16.96 87.45 17.13 82.35 M 13.26 90.11 C 10.17 93.15 14.53 99.63 18.10 96.13 C 22.43 94.01 17.06 87.08 13.26 90.11 Z" />
</g>
<g id="#394536ff">
<path fill="#394536" opacity="1.00" d=" M 25.54 84.17 C 23.31 83.25 23.13 81.78 24.69 80.04 C 27.14 80.44 29.62 80.09 32.08 80.02 C 27.91 81.98 31.45 85.13 33.86 86.73 C 33.31 90.41 33.03 94.12 33.05 97.85 C 31.90 96.81 30.66 95.70 28.98 95.92 C 28.74 99.28 34.60 99.66 34.47 102.88 C 33.64 105.97 27.65 104.73 29.30 108.47 C 30.71 109.32 35.18 110.47 32.69 112.58 C 31.41 113.91 31.87 115.77 33.97 115.04 C 37.58 114.02 40.43 113.73 38.16 118.15 C 33.73 120.56 44.16 118.50 45.97 119.01 C 45.98 122.02 45.97 125.06 45.92 128.09 C 41.52 127.80 32.08 124.68 31.83 131.25 C 32.57 126.01 24.76 130.93 28.49 126.73 C 28.70 125.58 21.92 123.95 24.36 127.72 C 26.04 132.65 17.89 134.79 20.94 126.86 C 20.46 124.36 20.02 129.85 18.51 130.25 C 17.88 127.48 19.06 123.82 17.12 121.73 C 17.00 125.25 16.94 128.80 16.77 132.33 L 15.86 132.07 C 15.98 128.03 16.24 124.01 16.84 120.02 C 21.03 120.43 31.03 122.47 27.94 113.90 C 27.21 107.34 26.28 121.62 24.59 116.33 C 23.68 113.93 21.43 116.37 19.87 116.74 C 20.01 115.72 21.20 114.50 20.36 113.56 C 17.13 110.63 25.32 108.33 21.37 104.42 C 20.52 101.94 22.66 100.57 24.81 100.30 C 24.59 97.31 24.43 94.31 25.21 91.40 C 25.90 88.96 23.87 86.47 25.54 84.17 Z" />
</g>
<g id="#282c25ff">
<path fill="#282c25" opacity="1.00" d=" M 83.69 80.13 C 86.91 80.12 90.13 80.15 93.36 80.17 C 90.25 81.54 86.89 80.79 83.69 80.13 Z" />
</g>
<g id="#acafaaff">
<path fill="#acafaa" opacity="1.00" d=" M 153.13 79.85 C 156.61 82.10 159.30 85.01 164.22 82.26 C 177.24 81.62 190.28 82.44 203.29 81.67 C 204.77 81.92 206.26 82.18 207.74 82.44 C 211.22 83.54 214.85 82.43 218.08 81.03 C 222.18 80.75 226.41 83.85 230.48 82.10 C 233.21 83.69 231.25 85.68 229.15 86.68 C 228.66 86.61 227.67 86.45 227.18 86.38 C 225.42 86.17 221.89 85.75 220.13 85.54 C 199.81 83.11 179.10 83.57 158.74 84.62 C 156.82 84.88 154.88 85.10 152.94 85.11 C 152.97 83.35 152.99 81.60 153.13 79.85 Z" />
</g>
<g id="#5f5d5eff">
<path fill="#5f5d5e" opacity="1.00" d=" M 156.78 81.93 C 163.04 79.16 172.47 81.57 179.77 80.25 C 187.54 81.65 195.57 80.08 203.29 81.67 C 190.28 82.44 177.24 81.62 164.22 82.26 C 162.36 82.18 158.64 82.01 156.78 81.93 Z" />
</g>
<g id="#3d383bff">
<path fill="#3d383b" opacity="1.00" d=" M 179.77 80.25 C 189.19 79.87 198.62 80.00 208.05 79.90 C 210.93 81.33 211.74 82.47 207.74 82.44 C 206.26 82.18 204.77 81.92 203.29 81.67 C 195.57 80.08 187.54 81.65 179.77 80.25 Z" />
</g>
<g id="#4c4e40ff">
<path fill="#4c4e40" opacity="1.00" d=" M 45.62 83.60 C 59.50 80.67 74.34 85.91 88.12 82.05 C 87.66 87.71 79.27 84.15 75.77 85.80 C 67.91 86.40 60.08 85.72 52.25 85.19 C 51.70 86.42 51.26 87.70 50.86 88.99 C 48.94 87.47 41.02 85.70 45.62 83.60 Z" />
</g>
<g id="#24201cff">
<path fill="#24201c" opacity="1.00" d=" M 75.77 85.80 C 98.38 84.86 121.88 88.62 143.98 84.02 C 144.14 89.96 144.01 95.91 143.97 101.85 C 142.98 102.62 142.01 103.39 141.02 104.15 C 140.20 102.03 143.41 95.41 140.01 96.04 C 139.87 106.28 139.92 116.53 140.23 126.77 C 138.41 131.96 144.48 145.45 133.90 142.09 C 134.18 140.01 138.10 142.00 137.94 139.80 C 135.98 134.66 142.29 121.94 135.24 120.72 C 130.41 120.09 125.50 120.36 120.73 119.35 L 121.58 119.03 C 127.06 119.04 132.54 119.02 138.02 118.96 C 138.79 115.81 134.55 117.26 132.73 116.65 C 133.88 116.44 135.02 116.22 136.17 116.00 C 140.49 114.04 137.22 105.77 138.04 101.05 C 138.03 99.45 138.03 97.84 137.89 96.24 C 132.02 97.14 126.12 95.81 120.24 96.34 C 119.18 100.90 119.05 105.61 118.78 110.26 C 118.02 102.52 110.78 104.11 105.06 105.66 C 104.88 103.34 104.65 101.04 104.37 98.74 C 104.22 97.14 104.09 95.55 103.89 93.96 C 93.92 91.65 80.38 93.53 69.07 93.08 C 68.95 96.46 69.02 99.86 69.15 103.24 C 69.10 105.92 69.01 111.26 68.96 113.93 C 63.83 110.01 75.06 89.27 62.05 93.00 C 59.17 93.65 60.85 99.35 59.99 101.87 C 56.44 99.41 54.28 102.83 52.14 105.25 C 51.78 100.42 52.69 95.42 51.29 90.71 C 51.19 90.28 50.97 89.42 50.86 88.99 C 51.26 87.70 51.70 86.42 52.25 85.19 C 60.08 85.72 67.91 86.40 75.77 85.80 M 119.99 93.02 C 124.19 95.29 136.78 94.31 140.98 93.03 C 133.98 92.90 126.98 92.94 119.99 93.02 Z" />
</g>
<g id="#71776fff">
<path fill="#71776f" opacity="1.00" d=" M 158.74 84.62 C 179.10 83.57 199.81 83.11 220.13 85.54 C 218.38 85.98 217.85 87.68 217.18 89.13 C 215.32 84.65 207.74 86.75 203.31 86.02 L 202.34 85.93 C 188.73 84.25 174.89 84.65 161.24 85.84 C 160.62 85.53 159.37 84.92 158.74 84.62 Z" />
</g>
<g id="#1c2a19ff">
<path fill="#1c2a19" opacity="1.00" d=" M 33.86 86.73 C 35.73 88.69 36.78 86.39 38.02 85.06 C 40.85 86.38 43.41 88.17 45.81 90.16 C 45.91 94.41 45.97 98.67 46.04 102.93 C 41.69 100.93 36.12 102.38 33.05 97.85 C 33.03 94.12 33.31 90.41 33.86 86.73 Z" />
</g>
<g id="#b4bbb9ff">
<path fill="#b4bbb9" opacity="1.00" d=" M 161.24 85.84 C 174.89 84.65 188.73 84.25 202.34 85.93 C 191.28 85.97 180.22 86.04 169.17 85.92 C 172.05 97.55 170.40 111.60 172.88 123.91 C 169.57 131.48 158.36 127.74 151.73 127.26 C 152.03 116.77 152.26 106.26 151.79 95.77 C 151.90 93.88 152.00 92.00 152.12 90.11 C 155.97 89.82 151.57 89.09 150.81 87.58 C 154.26 86.86 157.73 86.28 161.24 85.84 M 153.04 94.14 C 155.42 100.43 152.57 109.43 154.76 113.82 C 154.30 118.48 154.71 122.19 156.00 124.92 C 159.32 125.16 162.64 125.07 165.98 124.98 C 166.23 125.23 166.72 125.74 166.96 125.99 C 167.10 115.36 167.03 104.73 166.96 94.10 C 165.59 93.91 164.22 93.79 162.84 93.76 C 162.25 91.48 154.98 96.10 153.04 94.14 Z" />
<path fill="#b4bbb9" opacity="1.00" d=" M 203.31 86.02 C 207.74 86.75 215.32 84.65 217.18 89.13 C 217.18 89.78 217.18 91.10 217.18 91.75 C 216.96 95.94 217.15 100.13 217.69 104.30 C 218.33 113.75 217.58 123.26 218.28 132.71 C 215.47 131.06 211.90 131.93 209.18 129.79 L 208.86 128.92 C 211.46 129.68 220.85 129.07 214.28 127.87 C 217.36 122.60 216.18 115.60 215.32 109.79 C 214.24 105.54 216.63 99.36 214.11 95.91 C 211.54 94.72 208.62 95.29 205.88 95.05 L 205.17 94.70 C 204.84 94.54 204.19 94.21 203.86 94.05 C 204.06 100.72 203.49 107.46 204.37 114.10 C 204.60 115.70 204.91 117.29 205.15 118.89 L 204.96 119.58 C 202.93 122.13 206.27 129.74 201.47 127.74 C 201.31 125.50 199.82 125.27 197.92 125.71 C 197.51 123.18 199.98 122.59 201.70 121.55 C 201.24 110.44 202.69 99.26 201.93 88.10 C 192.57 87.65 183.18 88.27 173.82 87.97 C 181.98 84.61 194.11 89.01 203.31 86.02 Z" />
</g>
<g id="#cfd7d7ff">
<path fill="#cfd7d7" opacity="1.00" d=" M 169.17 85.92 C 180.22 86.04 191.28 85.97 202.34 85.93 L 203.31 86.02 C 194.11 89.01 181.98 84.61 173.82 87.97 C 183.18 88.27 192.57 87.65 201.93 88.10 C 202.69 99.26 201.24 110.44 201.70 121.55 C 199.98 122.59 197.51 123.18 197.92 125.71 C 199.82 125.27 201.31 125.50 201.47 127.74 C 206.27 129.74 202.93 122.13 204.96 119.58 C 205.94 124.06 205.99 128.65 205.96 133.22 C 204.12 133.15 202.88 132.33 202.72 130.42 C 197.11 132.47 190.04 133.54 184.73 130.21 C 189.51 129.17 197.81 131.67 200.99 129.01 C 191.61 128.94 182.23 128.88 172.86 129.04 C 173.13 129.30 173.69 129.81 173.96 130.07 C 177.11 132.24 174.98 132.20 172.20 131.70 C 168.59 125.41 158.33 130.21 151.88 129.09 L 151.70 128.22 L 151.73 127.26 C 158.36 127.74 169.57 131.48 172.88 123.91 C 170.40 111.60 172.05 97.55 169.17 85.92 M 177.00 95.99 C 177.01 97.75 177.01 101.26 177.01 103.02 C 177.01 104.77 177.01 108.26 177.01 110.00 L 177.00 111.00 L 176.98 111.98 C 177.00 112.47 177.04 113.45 177.06 113.94 C 177.04 114.65 177.00 116.06 176.98 116.77 C 177.45 120.29 174.13 128.77 181.59 124.48 C 186.04 121.99 189.82 125.89 194.30 124.78 C 198.56 129.30 194.68 115.45 195.94 113.80 L 196.10 112.82 C 196.11 110.88 196.06 108.93 195.95 106.99 C 196.16 103.32 196.03 99.62 195.96 95.95 C 195.97 95.48 195.98 94.54 195.98 94.07 C 190.09 94.82 179.26 91.29 177.00 95.99 Z" />
</g>
<g id="#6c5e4eff">
<path fill="#6c5e4e" opacity="1.00" d=" M 217.18 89.13 C 217.85 87.68 218.38 85.98 220.13 85.54 C 221.89 85.75 225.42 86.17 227.18 86.38 C 224.37 86.61 221.60 86.87 218.81 87.20 C 222.01 90.02 225.45 93.98 228.10 88.05 C 227.91 93.43 227.94 98.84 228.19 104.22 C 228.08 105.77 227.97 107.33 227.94 108.89 C 226.40 113.13 229.00 119.32 229.06 112.88 C 231.29 116.07 240.09 122.76 238.26 113.06 C 241.91 111.75 240.97 115.87 241.26 118.19 C 238.25 119.72 232.32 120.11 238.05 122.72 C 235.49 123.40 233.22 124.76 230.88 125.96 C 231.72 123.93 235.27 118.44 231.05 118.98 C 228.41 118.27 229.11 121.54 228.40 123.10 C 226.73 119.70 222.92 119.20 219.63 118.34 C 231.04 121.87 226.09 109.39 226.93 103.24 C 223.56 106.20 215.06 100.59 220.49 99.43 C 232.09 103.22 218.98 96.87 223.71 95.57 C 222.51 93.36 220.33 93.35 218.14 93.98 C 217.90 93.42 217.42 92.31 217.18 91.75 C 217.18 91.10 217.18 89.78 217.18 89.13 Z" />
</g>
<g id="#3e332bff">
<path fill="#3e332b" opacity="1.00" d=" M 227.18 86.38 C 227.67 86.45 228.66 86.61 229.15 86.68 C 228.89 87.02 228.36 87.71 228.10 88.05 C 225.45 93.98 222.01 90.02 218.81 87.20 C 221.60 86.87 224.37 86.61 227.18 86.38 Z" />
</g>
<g id="#d1d1d0ff">
<path fill="#d1d1d0" opacity="1.00" d=" M 228.10 88.05 C 228.36 87.71 228.89 87.02 229.15 86.68 C 228.97 92.54 229.03 98.41 228.19 104.22 C 227.94 98.84 227.91 93.43 228.10 88.05 Z" />
</g>
<g id="#95a298ff">
<path fill="#95a298" opacity="1.00" d=" M 45.81 90.16 C 45.52 87.62 46.74 88.09 48.06 89.42 C 46.56 96.62 47.31 104.03 46.33 111.29 C 46.23 108.50 46.13 105.71 46.04 102.93 C 45.97 98.67 45.91 94.41 45.81 90.16 Z" />
</g>
<g id="#5f8637ff">
<path fill="#5f8637" opacity="1.00" d=" M 13.26 90.11 C 17.06 87.08 22.43 94.01 18.10 96.13 C 14.53 99.63 10.17 93.15 13.26 90.11 Z" />
</g>
<g id="#ced6d6ff">
<path fill="#ced6d6" opacity="1.00" d=" M 46.33 111.29 C 47.31 104.03 46.56 96.62 48.06 89.42 C 48.97 90.10 49.72 90.93 50.30 91.91 C 49.71 105.92 50.13 119.94 49.96 133.96 C 46.30 134.00 45.45 131.28 45.92 128.09 C 45.97 125.06 45.98 122.02 45.97 119.01 C 45.99 117.31 45.98 115.61 46.01 113.91 C 46.09 113.25 46.25 111.94 46.33 111.29 Z" />
</g>
<g id="#aeb3b1ff">
<path fill="#aeb3b1" opacity="1.00" d=" M 145.17 91.32 C 145.89 89.31 149.84 89.36 149.08 92.03 C 148.39 106.37 150.16 120.91 148.16 135.14 L 147.21 135.05 C 147.82 128.06 148.23 121.04 148.03 114.02 C 145.54 117.54 145.19 114.54 145.14 110.80 C 144.84 104.31 144.86 97.80 145.17 91.32 Z" />
</g>
<g id="#2e3031ff">
<path fill="#2e3031" opacity="1.00" d=" M 149.08 92.03 C 149.86 91.04 150.74 90.10 152.12 90.11 C 152.00 92.00 151.90 93.88 151.79 95.77 C 150.83 106.51 150.17 117.53 151.70 128.22 L 151.88 129.09 C 151.92 129.84 151.99 131.33 152.02 132.08 C 151.95 136.63 152.07 141.19 151.73 145.74 C 151.35 148.03 151.31 150.36 151.07 152.67 C 149.22 151.16 144.24 151.34 147.95 148.82 C 144.00 147.44 144.56 157.05 144.00 150.02 C 143.97 149.28 143.90 147.80 143.87 147.06 C 136.18 146.53 128.31 147.90 120.71 146.35 C 128.11 145.31 136.27 147.41 143.31 145.06 C 143.71 144.80 144.51 144.27 144.91 144.01 L 144.97 144.93 C 148.14 152.26 148.65 138.52 148.16 135.14 C 150.16 120.91 148.39 106.37 149.08 92.03 Z" />
</g>
<g id="#4a382fff">
<path fill="#4a382f" opacity="1.00" d=" M 51.29 90.71 C 52.69 95.42 51.78 100.42 52.14 105.25 C 54.28 102.83 56.44 99.41 59.99 101.87 C 59.98 107.70 60.02 113.54 60.22 119.37 C 59.01 114.89 53.89 115.44 50.97 112.99 C 51.02 105.90 50.76 98.81 51.22 91.73 L 51.29 90.71 Z" />
</g>
<g id="#9c9f9aff">
<path fill="#9c9f9a" opacity="1.00" d=" M 50.30 91.91 L 51.22 91.73 C 50.76 98.81 51.02 105.90 50.97 112.99 C 50.83 120.04 51.46 127.13 50.78 134.17 L 49.96 133.96 C 50.13 119.94 49.71 105.92 50.30 91.91 Z" />
</g>
<g id="#978a84ff">
<path fill="#978a84" opacity="1.00" d=" M 217.18 91.75 C 217.42 92.31 217.90 93.42 218.14 93.98 C 218.05 97.41 217.97 100.86 217.69 104.30 C 217.15 100.13 216.96 95.94 217.18 91.75 Z" />
</g>
<g id="#8f928bff">
<path fill="#8f928b" opacity="1.00" d=" M 59.99 101.87 C 60.85 99.35 59.17 93.65 62.05 93.00 C 75.06 89.27 63.83 110.01 68.96 113.93 C 69.01 111.26 69.10 105.92 69.15 103.24 C 71.76 93.36 70.41 106.92 71.63 111.30 C 72.02 115.86 72.60 120.41 72.98 124.97 C 67.25 127.15 74.34 109.73 69.20 115.35 C 68.91 119.80 69.17 124.30 68.67 128.75 C 69.17 132.21 67.54 136.95 66.89 130.90 C 66.95 130.46 67.07 129.58 67.13 129.14 C 67.97 122.03 67.14 114.88 66.92 107.76 C 66.34 105.19 68.99 98.31 64.34 100.35 C 58.92 100.23 61.52 106.53 61.05 110.12 C 61.02 113.21 61.19 116.38 60.22 119.37 C 60.02 113.54 59.98 107.70 59.99 101.87 Z" />
</g>
<g id="#64675eff">
<path fill="#64675e" opacity="1.00" d=" M 69.07 93.08 C 80.38 93.53 93.92 91.65 103.89 93.96 C 96.33 89.36 99.24 100.63 93.86 98.31 C 89.65 97.45 93.20 102.57 94.75 104.00 C 89.91 102.68 90.77 111.35 95.15 110.53 C 88.93 113.29 93.07 123.31 90.87 128.94 L 89.96 128.96 C 89.96 123.58 90.21 118.20 89.77 112.83 C 88.09 107.71 91.32 99.48 86.00 96.89 C 85.95 101.92 85.89 106.95 86.04 111.98 C 82.02 109.71 85.27 101.05 77.81 104.27 C 73.00 102.46 71.24 107.14 72.68 111.12 L 71.63 111.30 C 70.41 106.92 71.76 93.36 69.15 103.24 C 69.02 99.86 68.95 96.46 69.07 93.08 Z" />
</g>
<g id="#575350ff">
<path fill="#575350" opacity="1.00" d=" M 119.99 93.02 C 126.98 92.94 133.98 92.90 140.98 93.03 C 136.78 94.31 124.19 95.29 119.99 93.02 Z" />
</g>
<g id="#929c9bff">
<path fill="#929c9b" opacity="1.00" d=" M 153.04 94.14 C 154.98 96.10 162.25 91.48 162.84 93.76 C 159.39 94.96 160.39 95.47 165.84 95.29 C 166.09 100.85 166.05 106.42 166.00 111.98 C 162.69 111.98 159.40 111.81 156.10 112.07 C 155.76 112.51 155.09 113.38 154.76 113.82 C 152.57 109.43 155.42 100.43 153.04 94.14 M 155.09 96.02 C 155.22 100.50 153.70 107.38 155.92 109.96 C 151.88 105.23 159.99 101.06 159.98 106.02 C 160.39 110.92 161.71 103.76 161.95 102.03 C 160.03 102.17 155.09 104.80 156.09 101.15 C 159.00 100.50 161.99 100.29 164.93 99.83 C 167.12 93.35 158.65 96.74 155.09 96.02 Z" />
</g>
<g id="#594136ff">
<path fill="#594136" opacity="1.00" d=" M 218.14 93.98 C 220.33 93.35 222.51 93.36 223.71 95.57 C 218.98 96.87 232.09 103.22 220.49 99.43 C 215.06 100.59 223.56 106.20 226.93 103.24 C 226.09 109.39 231.04 121.87 219.63 118.34 C 222.92 119.20 226.73 119.70 228.40 123.10 C 226.92 125.42 229.86 127.65 227.70 129.73 C 225.98 131.21 226.72 135.71 228.62 135.68 C 228.00 141.37 227.97 147.09 228.03 152.81 C 226.03 153.64 224.10 154.66 223.34 156.82 C 223.10 154.39 220.94 153.67 218.98 152.92 C 218.60 146.21 220.04 139.28 218.28 132.71 C 217.58 123.26 218.33 113.75 217.69 104.30 C 217.97 100.86 218.05 97.41 218.14 93.98 Z" />
</g>
<g id="#8e9182ff">
<path fill="#8e9182" opacity="1.00" d=" M 93.86 98.31 C 99.24 100.63 96.33 89.36 103.89 93.96 C 104.09 95.55 104.22 97.14 104.37 98.74 C 104.28 99.26 104.10 100.31 104.02 100.84 C 95.86 94.74 97.07 113.34 94.75 104.00 C 93.20 102.57 89.65 97.45 93.86 98.31 Z" />
</g>
<g id="#dce5e6ff">
<path fill="#dce5e6" opacity="1.00" d=" M 165.84 95.29 C 160.39 95.47 159.39 94.96 162.84 93.76 C 164.22 93.79 165.59 93.91 166.96 94.10 C 167.03 104.73 167.10 115.36 166.96 125.99 C 166.72 125.74 166.23 125.23 165.98 124.98 C 165.99 120.64 166.02 116.31 166.00 111.98 C 166.05 106.42 166.09 100.85 165.84 95.29 Z" />
</g>
<g id="#6f7577ff">
<path fill="#6f7577" opacity="1.00" d=" M 177.00 95.99 C 179.26 91.29 190.09 94.82 195.98 94.07 C 195.98 94.54 195.97 95.48 195.96 95.95 C 188.62 95.78 188.17 96.27 194.61 97.43 C 196.35 100.33 188.08 95.61 189.71 100.97 C 187.23 96.84 181.02 97.11 183.00 102.94 L 182.11 102.95 C 180.47 98.39 183.15 94.29 177.00 95.99 Z" />
</g>
<g id="#dde8e9ff">
<path fill="#dde8e9" opacity="1.00" d=" M 203.86 94.05 C 204.19 94.21 204.84 94.54 205.17 94.70 C 205.12 97.73 205.04 100.77 205.11 103.80 C 205.06 106.81 205.09 109.84 204.93 112.85 C 204.79 113.17 204.51 113.79 204.37 114.10 C 203.49 107.46 204.06 100.72 203.86 94.05 Z" />
</g>
<g id="#777f7fff">
<path fill="#777f7f" opacity="1.00" d=" M 205.17 94.70 L 205.88 95.05 C 205.74 100.88 217.56 99.59 210.76 103.90 C 211.91 112.11 206.91 110.78 207.64 103.71 C 207.04 107.32 206.13 107.14 205.11 103.80 C 205.04 100.77 205.12 97.73 205.17 94.70 Z" />
</g>
<g id="#464d4aff">
<path fill="#464d4a" opacity="1.00" d=" M 205.88 95.05 C 208.62 95.29 211.54 94.72 214.11 95.91 C 213.76 99.17 215.90 105.37 210.76 103.90 C 217.56 99.59 205.74 100.88 205.88 95.05 Z" />
</g>
<g id="#456932ff">
<path fill="#456932" opacity="1.00" d=" M 28.98 95.92 C 30.66 95.70 31.90 96.81 33.05 97.85 C 36.12 102.38 41.69 100.93 46.04 102.93 C 46.13 105.71 46.23 108.50 46.33 111.29 C 45.29 109.89 42.57 107.45 42.98 110.93 C 44.23 116.83 30.00 109.10 33.97 115.04 C 31.87 115.77 31.41 113.91 32.69 112.58 C 35.18 110.47 30.71 109.32 29.30 108.47 C 27.65 104.73 33.64 105.97 34.47 102.88 C 34.60 99.66 28.74 99.28 28.98 95.92 Z" />
</g>
<g id="#5e6769ff">
<path fill="#5e6769" opacity="1.00" d=" M 120.24 96.34 C 126.12 95.81 132.02 97.14 137.89 96.24 C 138.03 97.84 138.03 99.45 138.04 101.05 C 135.77 98.52 133.44 98.90 130.83 98.82 C 128.27 98.45 125.43 99.90 123.16 98.02 C 122.94 100.44 122.67 102.84 122.36 105.25 C 121.90 103.57 122.86 100.12 120.02 100.98 C 119.98 105.63 119.70 110.30 120.12 114.95 C 125.07 115.07 130.03 115.05 134.98 114.91 C 135.28 115.18 135.88 115.73 136.17 116.00 C 135.02 116.22 133.88 116.44 132.73 116.65 C 129.57 118.25 123.09 114.69 121.58 119.03 L 120.73 119.35 C 120.26 119.49 119.31 119.76 118.84 119.90 L 118.78 118.96 L 118.77 118.22 C 118.81 115.57 118.82 112.91 118.78 110.26 C 119.05 105.61 119.18 100.90 120.24 96.34 Z" />
</g>
<g id="#595d5bff">
<path fill="#595d5b" opacity="1.00" d=" M 151.70 128.22 C 150.17 117.53 150.83 106.51 151.79 95.77 C 152.26 106.26 152.03 116.77 151.73 127.26 L 151.70 128.22 Z" />
</g>
<g id="#585e5bff">
<path fill="#585e5b" opacity="1.00" d=" M 155.09 96.02 C 158.65 96.74 167.12 93.35 164.93 99.83 C 161.99 100.29 159.00 100.50 156.09 101.15 C 155.09 104.80 160.03 102.17 161.95 102.03 C 161.71 103.76 160.39 110.92 159.98 106.02 C 159.99 101.06 151.88 105.23 155.92 109.96 C 153.70 107.38 155.22 100.50 155.09 96.02 Z" />
</g>
<g id="#8d9799ff">
<path fill="#8d9799" opacity="1.00" d=" M 177.00 95.99 C 183.15 94.29 180.47 98.39 182.11 102.95 C 180.41 102.98 178.71 103.00 177.01 103.02 C 177.01 101.26 177.01 97.75 177.00 95.99 Z" />
</g>
<g id="#8c979aff">
<path fill="#8c979a" opacity="1.00" d=" M 194.61 97.43 C 188.17 96.27 188.62 95.78 195.96 95.95 C 196.03 99.62 196.16 103.32 195.95 106.99 C 193.48 108.87 192.72 107.60 193.67 103.18 C 191.00 103.12 185.67 103.00 183.00 102.94 C 181.02 97.11 187.23 96.84 189.71 100.97 C 188.08 95.61 196.35 100.33 194.61 97.43 Z" />
</g>
<g id="#727a7cff">
<path fill="#727a7c" opacity="1.00" d=" M 214.11 95.91 C 216.63 99.36 214.24 105.54 215.32 109.79 C 210.93 111.04 209.56 108.68 210.76 103.90 C 215.90 105.37 213.76 99.17 214.11 95.91 Z" />
</g>
<g id="#334f23ff">
<path fill="#334f23" opacity="1.00" d=" M 0.00 96.33 C 1.77 98.63 3.41 101.21 6.59 101.54 C 10.20 104.46 4.92 106.59 2.72 108.19 C 2.04 108.13 0.68 108.00 0.00 107.94 L 0.00 96.33 Z" />
</g>
<g id="#909591ff">
<path fill="#909591" opacity="1.00" d=" M 86.00 96.89 C 91.32 99.48 88.09 107.71 89.77 112.83 C 88.77 117.53 87.94 114.33 86.04 111.98 C 85.89 106.95 85.95 101.92 86.00 96.89 Z" />
</g>
<g id="#8c9c9cff">
<path fill="#8c9c9c" opacity="1.00" d=" M 123.16 98.02 C 125.43 99.90 128.27 98.45 130.83 98.82 C 128.95 101.96 132.80 110.81 128.07 111.02 C 126.85 107.51 129.92 101.34 127.09 98.81 C 125.79 102.94 129.34 109.29 125.19 112.26 C 126.14 100.83 123.54 109.78 122.10 112.33 C 122.17 110.56 122.29 107.02 122.36 105.25 C 122.67 102.84 122.94 100.44 123.16 98.02 Z" />
</g>
<g id="#889697ff">
<path fill="#889697" opacity="1.00" d=" M 130.83 98.82 C 133.44 98.90 135.77 98.52 138.04 101.05 C 137.22 105.77 140.49 114.04 136.17 116.00 C 135.88 115.73 135.28 115.18 134.98 114.91 C 134.13 110.21 135.17 105.06 133.29 100.59 C 130.83 101.96 135.68 110.77 131.06 110.02 C 131.00 107.22 130.88 101.62 130.83 98.82 Z" />
</g>
<g id="#3f312bff">
<path fill="#3f312b" opacity="1.00" d=" M 104.37 98.74 C 104.65 101.04 104.88 103.34 105.06 105.66 C 110.78 104.11 118.02 102.52 118.78 110.26 C 118.82 112.91 118.81 115.57 118.77 118.22 C 117.14 114.58 112.66 117.13 108.97 116.12 C 108.55 118.15 110.60 117.90 111.96 118.22 C 109.28 119.12 107.36 124.59 108.01 118.94 C 105.20 113.54 103.02 107.52 104.02 100.84 C 104.10 100.31 104.28 99.26 104.37 98.74 Z" />
</g>
<g id="#b0c0c2ff">
<path fill="#b0c0c2" opacity="1.00" d=" M 127.09 98.81 C 129.92 101.34 126.85 107.51 128.07 111.02 C 132.80 110.81 128.95 101.96 130.83 98.82 C 130.88 101.62 131.00 107.22 131.06 110.02 C 135.68 110.77 130.83 101.96 133.29 100.59 C 135.17 105.06 134.13 110.21 134.98 114.91 C 130.03 115.05 125.07 115.07 120.12 114.95 C 119.70 110.30 119.98 105.63 120.02 100.98 C 122.86 100.12 121.90 103.57 122.36 105.25 C 122.29 107.02 122.17 110.56 122.10 112.33 C 123.54 109.78 126.14 100.83 125.19 112.26 C 129.34 109.29 125.79 102.94 127.09 98.81 Z" />
</g>
<g id="#b4bbb6ff">
<path fill="#b4bbb6" opacity="1.00" d=" M 64.34 100.35 C 68.99 98.31 66.34 105.19 66.92 107.76 C 64.90 108.38 62.97 109.23 61.05 110.12 C 61.52 106.53 58.92 100.23 64.34 100.35 Z" />
</g>
<g id="#a7adaaff">
<path fill="#a7adaa" opacity="1.00" d=" M 94.75 104.00 C 97.07 113.34 95.86 94.74 104.02 100.84 C 103.02 107.52 105.20 113.54 108.01 118.94 C 107.06 120.22 105.69 120.91 104.16 121.24 C 105.20 116.20 99.56 117.94 96.30 118.17 C 96.41 122.92 92.14 124.74 91.80 128.93 L 90.87 128.94 C 93.07 123.31 88.93 113.29 95.15 110.53 C 90.77 111.35 89.91 102.68 94.75 104.00 M 100.30 113.27 C 93.24 111.97 93.88 117.35 99.00 116.05 C 106.04 120.01 105.23 110.37 100.30 113.27 Z" />
</g>
<g id="#3d3735ff">
<path fill="#3d3735" opacity="1.00" d=" M 141.02 104.15 C 142.01 103.39 142.98 102.62 143.97 101.85 C 143.96 111.02 144.20 120.19 143.88 129.35 C 140.24 120.92 142.85 112.73 141.02 104.15 Z" />
</g>
<g id="#a7b5baff">
<path fill="#a7b5ba" opacity="1.00" d=" M 177.01 103.02 C 178.71 103.00 180.41 102.98 182.11 102.95 L 183.00 102.94 C 185.67 103.00 191.00 103.12 193.67 103.18 C 192.72 107.60 193.48 108.87 195.95 106.99 C 196.06 108.93 196.11 110.88 196.10 112.82 C 189.78 111.76 183.36 111.97 176.98 111.98 L 177.00 111.00 C 182.37 109.78 191.02 113.21 195.15 110.03 C 189.10 109.90 183.06 109.97 177.01 110.00 C 177.01 108.26 177.01 104.77 177.01 103.02 Z" />
</g>
<g id="#c1d5baff">
<path fill="#c1d5ba" opacity="1.00" d=" M 240.82 105.86 C 243.44 103.82 246.82 103.24 250.00 102.67 L 250.00 103.72 C 247.11 105.06 244.00 105.71 240.82 105.86 Z" />
</g>
<g id="#475132ff">
<path fill="#475132" opacity="1.00" d=" M 2.72 108.19 C 6.17 108.46 9.09 106.68 11.11 104.01 C 10.11 108.76 15.93 107.85 17.01 111.95 C 14.16 113.73 4.25 109.27 8.66 114.40 C 5.76 113.98 2.85 113.67 0.00 113.02 L 0.00 109.96 C 3.06 110.39 6.13 110.72 9.21 110.96 C 7.86 108.65 5.15 108.61 2.72 108.19 Z" />
</g>
<g id="#878f8bff">
<path fill="#878f8b" opacity="1.00" d=" M 72.68 111.12 C 71.24 107.14 73.00 102.46 77.81 104.27 C 85.27 101.05 82.02 109.71 86.04 111.98 C 86.04 117.65 86.00 123.32 86.00 128.99 C 85.50 128.99 84.50 129.00 84.00 129.00 C 84.01 123.39 84.14 117.78 83.89 112.18 C 80.21 111.44 76.43 111.25 72.68 111.12 Z" />
</g>
<g id="#a4b0b3ff">
<path fill="#a4b0b3" opacity="1.00" d=" M 205.11 103.80 C 206.13 107.14 207.04 107.32 207.64 103.71 C 206.91 110.78 211.91 112.11 210.76 103.90 C 209.56 108.68 210.93 111.04 215.32 109.79 L 215.18 110.88 C 211.87 112.13 207.62 110.26 204.93 112.85 C 205.09 109.84 205.06 106.81 205.11 103.80 Z" />
</g>
<g id="#6f8950ff">
<path fill="#6f8950" opacity="1.00" d=" M 240.82 105.86 C 244.00 105.71 247.11 105.06 250.00 103.72 L 250.00 112.94 C 249.56 112.99 248.69 113.09 248.26 113.14 C 244.60 111.12 240.32 113.05 241.26 118.19 C 240.97 115.87 241.91 111.75 238.26 113.06 C 240.09 122.76 231.29 116.07 229.06 112.88 C 228.77 108.48 236.41 110.77 239.07 106.93 C 239.50 106.66 240.38 106.12 240.82 105.86 Z" />
</g>
<g id="#abbb90ff">
<path fill="#abbb90" opacity="1.00" d=" M 227.94 108.89 C 231.67 108.34 235.30 107.24 239.07 106.93 C 236.41 110.77 228.77 108.48 229.06 112.88 C 229.00 119.32 226.40 113.13 227.94 108.89 Z" />
</g>
<g id="#967b74ff">
<path fill="#967b74" opacity="1.00" d=" M 0.00 107.94 C 0.68 108.00 2.04 108.13 2.72 108.19 C 5.15 108.61 7.86 108.65 9.21 110.96 C 6.13 110.72 3.06 110.39 0.00 109.96 L 0.00 107.94 Z" />
</g>
<g id="#d5dadaff">
<path fill="#d5dada" opacity="1.00" d=" M 61.05 110.12 C 62.97 109.23 64.90 108.38 66.92 107.76 C 67.14 114.88 67.97 122.03 67.13 129.14 C 64.52 128.72 60.37 130.45 59.68 127.19 C 59.83 124.58 60.01 121.97 60.22 119.37 C 61.19 116.38 61.02 113.21 61.05 110.12 Z" />
</g>
<g id="#818a5cff">
<path fill="#818a5c" opacity="1.00" d=" M 42.98 110.93 C 42.57 107.45 45.29 109.89 46.33 111.29 C 46.25 111.94 46.09 113.25 46.01 113.91 C 43.63 115.71 41.17 117.59 38.16 118.15 C 40.43 113.73 37.58 114.02 33.97 115.04 C 30.00 109.10 44.23 116.83 42.98 110.93 Z" />
</g>
<g id="#6f7a82ff">
<path fill="#6f7a82" opacity="1.00" d=" M 177.01 110.00 C 183.06 109.97 189.10 109.90 195.15 110.03 C 191.02 113.21 182.37 109.78 177.00 111.00 L 177.01 110.00 Z" />
</g>
<g id="#d0dbdcff">
<path fill="#d0dbdc" opacity="1.00" d=" M 215.32 109.79 C 216.18 115.60 217.36 122.60 214.28 127.87 C 220.85 129.07 211.46 129.68 208.86 128.92 C 208.13 124.81 210.79 124.29 214.91 125.80 C 215.04 121.53 215.03 117.27 215.06 113.00 C 215.09 112.47 215.15 111.41 215.18 110.88 L 215.32 109.79 Z" />
</g>
<g id="#bbc9c9ff">
<path fill="#bbc9c9" opacity="1.00" d=" M 71.63 111.30 L 72.68 111.12 C 76.43 111.25 80.21 111.44 83.89 112.18 C 84.14 117.78 84.01 123.39 84.00 129.00 C 82.31 129.03 78.93 129.10 77.24 129.14 C 74.38 129.03 71.53 128.90 68.67 128.75 C 69.17 124.30 68.91 119.80 69.20 115.35 C 74.34 109.73 67.25 127.15 72.98 124.97 C 72.60 120.41 72.02 115.86 71.63 111.30 Z" />
</g>
<g id="#dae2e6ff">
<path fill="#dae2e6" opacity="1.00" d=" M 145.14 110.80 C 145.19 114.54 145.54 117.54 148.03 114.02 C 148.23 121.04 147.82 128.06 147.21 135.05 C 145.44 136.74 149.98 148.94 144.97 144.93 L 144.91 144.01 C 145.03 132.94 144.98 121.87 145.14 110.80 Z" />
</g>
<g id="#5f6a71ff">
<path fill="#5f6a71" opacity="1.00" d=" M 204.93 112.85 C 207.62 110.26 211.87 112.13 215.18 110.88 C 215.15 111.41 215.09 112.47 215.06 113.00 L 214.22 112.71 C 209.43 111.23 213.99 121.16 213.12 124.96 C 209.89 123.48 214.52 111.03 205.89 115.05 C 206.10 116.27 206.40 117.47 206.74 118.66 C 206.34 118.72 205.55 118.83 205.15 118.89 C 204.91 117.29 204.60 115.70 204.37 114.10 C 204.51 113.79 204.79 113.17 204.93 112.85 Z" />
</g>
<g id="#61645eff">
<path fill="#61645e" opacity="1.00" d=" M 24.59 116.33 C 26.28 121.62 27.21 107.34 27.94 113.90 C 31.03 122.47 21.03 120.43 16.84 120.02 C 9.39 120.14 15.55 117.32 19.87 116.74 C 21.43 116.37 23.68 113.93 24.59 116.33 Z" />
</g>
<g id="#adbabbff">
<path fill="#adbabb" opacity="1.00" d=" M 86.04 111.98 C 87.94 114.33 88.77 117.53 89.77 112.83 C 90.21 118.20 89.96 123.58 89.96 128.96 C 88.64 128.99 87.32 129.00 86.00 128.99 C 86.00 123.32 86.04 117.65 86.04 111.98 Z" />
</g>
<g id="#384242ff">
<path fill="#384242" opacity="1.00" d=" M 154.76 113.82 C 155.09 113.38 155.76 112.51 156.10 112.07 C 156.03 116.35 156.01 120.63 156.00 124.92 C 154.71 122.19 154.30 118.48 154.76 113.82 Z" />
</g>
<g id="#727b7fff">
<path fill="#727b7f" opacity="1.00" d=" M 156.10 112.07 C 159.40 111.81 162.69 111.98 166.00 111.98 C 166.02 116.31 165.99 120.64 165.98 124.98 C 162.64 125.07 159.32 125.16 156.00 124.92 C 156.01 120.63 156.03 116.35 156.10 112.07 Z" />
</g>
<g id="#707d82ff">
<path fill="#707d82" opacity="1.00" d=" M 176.98 111.98 C 183.36 111.97 189.78 111.76 196.10 112.82 L 195.94 113.80 C 191.77 118.54 182.97 114.33 177.06 113.94 C 177.04 113.45 177.00 112.47 176.98 111.98 Z" />
</g>
<g id="#2f3338ff">
<path fill="#2f3338" opacity="1.00" d=" M 213.12 124.96 C 213.99 121.16 209.43 111.23 214.22 112.71 C 212.73 115.61 216.26 123.69 213.12 124.96 Z" />
</g>
<g id="#cccfcdff">
<path fill="#cccfcd" opacity="1.00" d=" M 241.26 118.19 C 240.32 113.05 244.60 111.12 248.26 113.14 C 246.82 114.77 240.02 118.64 245.03 119.03 C 249.37 118.79 244.57 121.08 243.22 122.12 C 241.48 122.24 239.76 122.41 238.05 122.72 C 232.32 120.11 238.25 119.72 241.26 118.19 Z" />
</g>
<g id="#b2b9a9ff">
<path fill="#b2b9a9" opacity="1.00" d=" M 0.00 113.02 C 2.85 113.67 5.76 113.98 8.66 114.40 L 9.06 115.08 L 9.13 115.79 C 6.09 115.50 3.05 115.17 0.00 114.88 L 0.00 113.02 Z" />
</g>
<g id="#69554aff">
<path fill="#69554a" opacity="1.00" d=" M 50.97 112.99 C 53.89 115.44 59.01 114.89 60.22 119.37 C 60.01 121.97 59.83 124.58 59.68 127.19 C 56.17 122.76 50.58 128.65 56.99 129.24 C 49.86 133.37 63.95 135.44 66.89 130.90 C 67.54 136.95 69.17 132.21 68.67 128.75 C 71.53 128.90 74.38 129.03 77.24 129.14 C 74.41 131.70 75.58 132.48 79.11 132.20 C 76.38 134.50 77.84 136.33 80.28 138.10 C 77.98 140.42 76.90 139.75 76.20 136.82 C 76.76 139.90 74.66 142.88 73.64 138.56 C 70.44 139.65 69.54 137.87 69.68 134.77 C 68.19 137.54 68.77 140.94 68.02 143.89 C 64.94 142.51 62.47 139.91 67.25 138.98 C 59.85 137.27 65.08 143.52 64.89 147.30 C 60.02 146.68 53.12 150.04 50.30 144.70 C 50.22 141.79 50.03 138.90 50.50 136.03 C 50.57 135.57 50.71 134.64 50.78 134.17 C 51.46 127.13 50.83 120.04 50.97 112.99 M 55.26 137.01 C 55.87 138.70 55.44 140.41 55.06 142.10 C 56.84 140.13 60.70 139.78 61.05 137.07 C 59.12 137.65 57.17 137.76 55.26 137.01 Z" />
</g>
<g id="#ced7d8ff">
<path fill="#ced7d8" opacity="1.00" d=" M 100.30 113.27 C 105.23 110.37 106.04 120.01 99.00 116.05 C 93.88 117.35 93.24 111.97 100.30 113.27 Z" />
</g>
<g id="#93a1a7ff">
<path fill="#93a1a7" opacity="1.00" d=" M 214.22 112.71 L 215.06 113.00 C 215.03 117.27 215.04 121.53 214.91 125.80 C 210.79 124.29 208.13 124.81 208.86 128.92 L 207.91 129.00 C 205.01 127.00 211.86 117.15 206.74 118.66 C 206.40 117.47 206.10 116.27 205.89 115.05 C 214.52 111.03 209.89 123.48 213.12 124.96 C 216.26 123.69 212.73 115.61 214.22 112.71 Z" />
</g>
<g id="#908e91ff">
<path fill="#908e91" opacity="1.00" d=" M 248.26 113.14 C 248.69 113.09 249.56 112.99 250.00 112.94 L 250.00 119.60 C 249.11 121.07 248.21 122.53 247.30 123.99 C 241.64 120.14 242.26 131.57 238.69 128.78 L 237.86 128.77 C 237.87 128.33 237.87 127.46 237.88 127.02 C 239.78 125.53 241.55 123.87 243.22 122.12 C 244.57 121.08 249.37 118.79 245.03 119.03 C 240.02 118.64 246.82 114.77 248.26 113.14 Z" />
</g>
<g id="#627755ff">
<path fill="#627755" opacity="1.00" d=" M 9.06 115.08 C 12.76 111.38 14.05 117.43 9.13 115.79 L 9.06 115.08 Z" />
</g>
<g id="#ab9895ff">
<path fill="#ab9895" opacity="1.00" d=" M 38.16 118.15 C 41.17 117.59 43.63 115.71 46.01 113.91 C 45.98 115.61 45.99 117.31 45.97 119.01 C 44.16 118.50 33.73 120.56 38.16 118.15 Z" />
</g>
<g id="#9facb3ff">
<path fill="#9facb3" opacity="1.00" d=" M 177.06 113.94 C 182.97 114.33 191.77 118.54 195.94 113.80 C 194.68 115.45 198.56 129.30 194.30 124.78 C 193.85 115.62 183.82 116.39 176.98 116.77 C 177.00 116.06 177.04 114.65 177.06 113.94 Z" />
</g>
<g id="#677065ff">
<path fill="#677065" opacity="1.00" d=" M 0.00 114.88 C 3.05 115.17 6.09 115.50 9.13 115.79 C 7.00 120.34 8.09 125.57 7.34 130.40 C 7.20 127.16 7.22 123.89 6.24 120.78 L 6.34 120.11 C 8.70 116.16 2.52 118.32 0.00 117.88 L 0.00 114.88 Z" />
</g>
<g id="#574741ff">
<path fill="#574741" opacity="1.00" d=" M 108.97 116.12 C 112.66 117.13 117.14 114.58 118.77 118.22 L 118.78 118.96 C 118.78 125.35 115.97 135.07 118.97 140.11 C 119.08 133.37 119.14 126.63 118.84 119.90 C 119.31 119.76 120.26 119.49 120.73 119.35 C 125.50 120.36 130.41 120.09 135.24 120.72 C 130.63 122.79 117.48 116.63 119.95 126.01 C 121.67 129.90 116.43 140.53 123.25 140.20 C 121.87 143.58 116.32 139.85 113.79 143.04 C 111.82 144.15 109.74 145.44 110.21 148.06 C 110.89 149.84 108.53 155.76 108.62 151.67 C 110.57 143.04 97.42 149.54 94.05 148.81 C 91.04 143.06 91.00 155.72 89.90 150.06 C 89.41 144.03 84.28 148.42 84.29 152.29 C 87.34 145.90 83.31 147.31 80.76 147.31 C 75.48 147.62 70.17 147.62 64.89 147.30 C 65.08 143.52 59.85 137.27 67.25 138.98 C 62.47 139.91 64.94 142.51 68.02 143.89 C 68.77 140.94 68.19 137.54 69.68 134.77 C 69.54 137.87 70.44 139.65 73.64 138.56 C 74.66 142.88 76.76 139.90 76.20 136.82 C 76.90 139.75 77.98 140.42 80.28 138.10 C 77.84 136.33 76.38 134.50 79.11 132.20 C 75.58 132.48 74.41 131.70 77.24 129.14 C 78.93 129.10 82.31 129.03 84.00 129.00 C 84.50 129.00 85.50 128.99 86.00 128.99 C 87.32 129.00 88.64 128.99 89.96 128.96 L 90.87 128.94 L 91.80 128.93 C 93.24 128.92 94.68 128.93 96.11 128.95 C 98.55 132.25 93.96 131.26 94.06 133.82 C 98.17 137.28 103.09 133.77 103.84 140.10 C 105.34 131.71 107.37 143.11 112.41 140.45 C 116.28 139.78 109.70 137.87 110.87 135.75 C 111.14 133.79 113.09 129.47 109.51 131.31 C 107.74 137.24 101.72 131.15 98.85 129.07 C 105.30 131.64 104.17 125.90 104.16 121.24 C 105.69 120.91 107.06 120.22 108.01 118.94 C 107.36 124.59 109.28 119.12 111.96 118.22 C 110.60 117.90 108.55 118.15 108.97 116.12 Z" />
</g>
<g id="#b5c5cbff">
<path fill="#b5c5cb" opacity="1.00" d=" M 176.98 116.77 C 183.82 116.39 193.85 115.62 194.30 124.78 C 189.82 125.89 186.04 121.99 181.59 124.48 C 174.13 128.77 177.45 120.29 176.98 116.77 Z" />
</g>
<g id="#9eabb1ff">
<path fill="#9eabb1" opacity="1.00" d=" M 121.58 119.03 C 123.09 114.69 129.57 118.25 132.73 116.65 C 134.55 117.26 138.79 115.81 138.02 118.96 C 132.54 119.02 127.06 119.04 121.58 119.03 Z" />
</g>
<g id="#a6ada4ff">
<path fill="#a6ada4" opacity="1.00" d=" M 0.00 117.88 C 2.52 118.32 8.70 116.16 6.34 120.11 C 4.24 119.59 2.13 119.13 0.00 118.78 L 0.00 117.88 Z" />
</g>
<g id="#d1d7daff">
<path fill="#d1d7da" opacity="1.00" d=" M 96.30 118.17 C 99.56 117.94 105.20 116.20 104.16 121.24 C 104.17 125.90 105.30 131.64 98.85 129.07 C 98.16 129.04 96.80 128.98 96.11 128.95 C 94.68 128.93 93.24 128.92 91.80 128.93 C 92.14 124.74 96.41 122.92 96.30 118.17 Z" />
</g>
<g id="#3a3c2eff">
<path fill="#3a3c2e" opacity="1.00" d=" M 206.74 118.66 C 211.86 117.15 205.01 127.00 207.91 129.00 C 207.86 133.11 208.19 137.21 208.67 141.29 C 209.94 145.91 205.42 156.66 214.80 152.93 C 216.19 152.92 217.58 152.92 218.98 152.92 C 220.94 153.67 223.10 154.39 223.34 156.82 C 224.10 154.66 226.03 153.64 228.03 152.81 C 229.03 154.44 229.02 157.64 231.71 156.80 C 235.50 166.51 225.46 160.90 220.80 163.14 C 217.25 162.59 213.65 162.30 210.05 162.31 C 208.61 164.79 212.09 172.36 208.14 172.88 C 205.84 170.28 207.62 166.31 206.79 163.17 C 199.23 162.08 191.39 162.80 183.89 162.68 C 178.94 163.20 174.00 165.22 169.01 164.12 C 171.54 162.69 170.58 160.74 169.09 158.89 C 171.18 159.42 173.86 161.84 175.18 158.92 C 177.91 160.88 180.67 157.32 183.68 158.23 C 191.40 157.90 201.80 161.34 207.26 154.08 C 199.20 153.17 190.71 155.53 182.86 153.16 L 184.04 152.93 C 191.34 152.96 198.65 153.16 205.97 152.98 C 208.26 150.15 207.27 143.21 206.30 138.71 C 206.13 136.88 206.03 135.05 205.96 133.22 C 205.99 128.65 205.94 124.06 204.96 119.58 L 205.15 118.89 C 205.55 118.83 206.34 118.72 206.74 118.66 Z" />
</g>
<g id="#22261fff">
<path fill="#22261f" opacity="1.00" d=" M 0.00 118.78 C 2.13 119.13 4.24 119.59 6.34 120.11 L 6.24 120.78 L 6.08 121.69 C 5.33 125.06 4.90 128.50 4.90 131.95 C 3.27 132.04 1.63 132.03 0.00 132.04 L 0.00 118.78 Z" />
</g>
<g id="#181b1dff">
<path fill="#181b1d" opacity="1.00" d=" M 118.97 140.11 C 115.97 135.07 118.78 125.35 118.78 118.96 L 118.84 119.90 C 119.14 126.63 119.08 133.37 118.97 140.11 Z" />
</g>
<g id="#2a2c27ff">
<path fill="#2a2c27" opacity="1.00" d=" M 228.40 123.10 C 229.11 121.54 228.41 118.27 231.05 118.98 C 235.27 118.44 231.72 123.93 230.88 125.96 C 233.22 124.76 235.49 123.40 238.05 122.72 C 236.97 124.09 235.86 125.44 234.79 126.82 C 228.62 129.25 232.61 129.27 237.86 128.77 L 238.69 128.78 C 238.89 130.59 239.08 132.40 239.29 134.21 C 238.28 134.38 237.27 134.51 236.25 134.61 C 234.53 134.41 231.50 132.97 232.00 135.97 C 231.81 137.88 229.94 134.10 228.62 135.68 C 226.72 135.71 225.98 131.21 227.70 129.73 C 229.86 127.65 226.92 125.42 228.40 123.10 Z" />
</g>
<g id="#dfddd7ff">
<path fill="#dfddd7" opacity="1.00" d=" M 247.30 123.99 C 248.21 122.53 249.11 121.07 250.00 119.60 L 250.00 125.70 L 249.20 126.23 C 246.84 127.56 246.71 126.11 247.30 123.99 Z" />
</g>
<g id="#9c9e9cff">
<path fill="#9c9e9c" opacity="1.00" d=" M 6.24 120.78 C 7.22 123.89 7.20 127.16 7.34 130.40 L 7.29 131.36 C 6.71 132.07 6.11 132.76 5.50 133.44 C 3.67 133.24 1.83 133.07 0.00 132.94 L 0.00 132.04 C 1.63 132.03 3.27 132.04 4.90 131.95 C 7.78 130.83 5.12 124.63 6.08 121.69 L 6.24 120.78 Z" />
</g>
<g id="#b3c9d1ff">
<path fill="#b3c9d1" opacity="1.00" d=" M 119.95 126.01 C 117.48 116.63 130.63 122.79 135.24 120.72 C 142.29 121.94 135.98 134.66 137.94 139.80 C 133.05 139.31 128.13 140.02 123.25 140.20 C 116.43 140.53 121.67 129.90 119.95 126.01 Z" />
</g>
<g id="#5a5d5aff">
<path fill="#5a5d5a" opacity="1.00" d=" M 4.90 131.95 C 4.90 128.50 5.33 125.06 6.08 121.69 C 5.12 124.63 7.78 130.83 4.90 131.95 Z" />
</g>
<g id="#d2dad8ff">
<path fill="#d2dad8" opacity="1.00" d=" M 17.12 121.73 C 19.06 123.82 17.88 127.48 18.51 130.25 C 18.88 132.10 19.03 133.74 16.77 132.33 C 16.94 128.80 17.00 125.25 17.12 121.73 Z" />
</g>
<g id="#586062ff">
<path fill="#586062" opacity="1.00" d=" M 238.05 122.72 C 239.76 122.41 241.48 122.24 243.22 122.12 C 241.55 123.87 239.78 125.53 237.88 127.02 C 237.11 126.97 235.57 126.87 234.79 126.82 C 235.86 125.44 236.97 124.09 238.05 122.72 Z" />
</g>
<g id="#7a584dff">
<path fill="#7a584d" opacity="1.00" d=" M 238.69 128.78 C 242.26 131.57 241.64 120.14 247.30 123.99 C 246.71 126.11 246.84 127.56 249.20 126.23 C 248.48 129.00 248.39 131.85 248.94 134.66 C 245.71 134.47 242.52 133.96 239.29 134.21 C 239.08 132.40 238.89 130.59 238.69 128.78 Z" />
</g>
<g id="#4c4a47ff">
<path fill="#4c4a47" opacity="1.00" d=" M 24.36 127.72 C 21.92 123.95 28.70 125.58 28.49 126.73 C 24.76 130.93 32.57 126.01 31.83 131.25 C 30.87 137.01 34.93 133.77 38.10 132.91 C 37.83 135.03 36.45 136.75 35.81 138.76 C 38.05 139.13 39.34 137.82 39.95 135.77 C 40.49 139.81 40.61 143.87 40.35 147.93 L 40.31 148.73 C 39.84 148.69 38.89 148.59 38.41 148.54 C 37.53 139.06 35.78 146.57 35.84 149.89 C 32.20 150.93 35.05 145.96 34.82 143.97 C 30.54 143.01 32.84 148.61 32.07 151.08 L 32.04 151.95 C 31.69 151.73 30.99 151.30 30.64 151.08 C 30.00 148.57 32.45 141.49 28.06 145.01 C 24.23 148.63 29.07 138.13 25.98 137.85 C 25.84 142.49 26.63 147.14 25.96 151.76 L 25.00 151.90 C 25.01 150.56 25.02 149.22 25.02 147.88 C 25.78 143.65 24.20 141.31 18.98 142.81 C 20.70 139.49 18.86 132.31 23.82 132.98 C 26.03 134.27 22.13 140.21 25.03 141.18 C 24.96 136.70 25.52 132.10 24.36 127.72 Z" />
</g>
<g id="#8d6f5bff">
<path fill="#8d6f5b" opacity="1.00" d=" M 56.99 129.24 C 50.58 128.65 56.17 122.76 59.68 127.19 C 60.37 130.45 64.52 128.72 67.13 129.14 C 67.07 129.58 66.95 130.46 66.89 130.90 C 63.95 135.44 49.86 133.37 56.99 129.24 Z" />
</g>
<g id="#77746fff">
<path fill="#77746f" opacity="1.00" d=" M 18.51 130.25 C 20.02 129.85 20.46 124.36 20.94 126.86 C 17.89 134.79 26.04 132.65 24.36 127.72 C 25.52 132.10 24.96 136.70 25.03 141.18 C 22.13 140.21 26.03 134.27 23.82 132.98 C 18.86 132.31 20.70 139.49 18.98 142.81 C 24.20 141.31 25.78 143.65 25.02 147.88 C 21.96 147.39 20.48 148.71 20.83 151.79 C 18.83 152.08 21.25 146.97 18.12 147.93 C 17.95 149.67 20.57 153.94 17.23 152.89 C 18.80 143.00 15.56 148.59 15.72 151.20 C 15.57 150.66 15.27 149.56 15.12 149.01 C 15.59 146.05 13.04 145.81 10.79 145.41 C 16.78 145.74 14.94 138.96 14.93 134.98 C 12.36 135.07 9.26 134.37 6.91 135.92 C 3.93 137.16 7.85 143.20 4.98 143.93 C 6.31 138.60 5.56 134.66 0.00 135.96 L 0.00 135.10 C 1.88 134.85 4.42 135.48 5.50 133.44 C 6.11 132.76 6.71 132.07 7.29 131.36 C 10.11 131.97 13.00 131.90 15.86 132.07 L 16.77 132.33 C 19.03 133.74 18.88 132.10 18.51 130.25 Z" />
</g>
<g id="#a8a9a8ff">
<path fill="#a8a9a8" opacity="1.00" d=" M 249.20 126.23 L 250.00 125.70 L 250.00 138.01 C 246.86 137.82 227.76 139.68 236.25 134.61 C 237.27 134.51 238.28 134.38 239.29 134.21 C 242.52 133.96 245.71 134.47 248.94 134.66 C 248.39 131.85 248.48 129.00 249.20 126.23 Z" />
</g>
<g id="#6b6d6cff">
<path fill="#6b6d6c" opacity="1.00" d=" M 31.83 131.25 C 32.08 124.68 41.52 127.80 45.92 128.09 C 45.45 131.28 46.30 134.00 49.96 133.96 L 50.78 134.17 C 50.71 134.64 50.57 135.57 50.50 136.03 C 45.81 133.34 47.62 142.80 47.04 145.94 C 47.83 149.32 42.17 150.49 40.35 147.93 C 40.61 143.87 40.49 139.81 39.95 135.77 C 39.34 137.82 38.05 139.13 35.81 138.76 C 36.45 136.75 37.83 135.03 38.10 132.91 C 34.93 133.77 30.87 137.01 31.83 131.25 M 42.06 135.02 C 42.73 137.70 39.32 145.07 43.94 143.98 C 43.27 141.30 46.67 133.92 42.06 135.02 Z" />
</g>
<g id="#898a8bff">
<path fill="#898a8b" opacity="1.00" d=" M 140.23 126.77 C 141.09 132.24 140.45 138.12 142.62 143.32 C 133.03 142.17 123.41 142.70 113.79 143.04 C 116.32 139.85 121.87 143.58 123.25 140.20 C 128.13 140.02 133.05 139.31 137.94 139.80 C 138.10 142.00 134.18 140.01 133.90 142.09 C 144.48 145.45 138.41 131.96 140.23 126.77 Z" />
</g>
<g id="#bec8c5ff">
<path fill="#bec8c5" opacity="1.00" d=" M 237.86 128.77 C 232.61 129.27 228.62 129.25 234.79 126.82 C 235.57 126.87 237.11 126.97 237.88 127.02 C 237.87 127.46 237.87 128.33 237.86 128.77 Z" />
</g>
<g id="#776156ff">
<path fill="#776156" opacity="1.00" d=" M 96.11 128.95 C 96.80 128.98 98.16 129.04 98.85 129.07 C 101.72 131.15 107.74 137.24 109.51 131.31 C 113.09 129.47 111.14 133.79 110.87 135.75 C 109.70 137.87 116.28 139.78 112.41 140.45 C 107.37 143.11 105.34 131.71 103.84 140.10 C 103.09 133.77 98.17 137.28 94.06 133.82 C 93.96 131.26 98.55 132.25 96.11 128.95 Z" />
</g>
<g id="#9ca7a7ff">
<path fill="#9ca7a7" opacity="1.00" d=" M 151.88 129.09 C 158.33 130.21 168.59 125.41 172.20 131.70 C 166.38 133.17 173.21 138.61 168.14 136.58 C 167.48 135.90 166.81 135.24 166.12 134.60 C 167.64 132.08 174.89 127.52 165.06 129.94 C 161.04 131.03 154.61 127.56 152.02 132.08 C 151.99 131.33 151.92 129.84 151.88 129.09 Z" />
</g>
<g id="#a0aaacff">
<path fill="#a0aaac" opacity="1.00" d=" M 172.86 129.04 C 182.23 128.88 191.61 128.94 200.99 129.01 C 197.81 131.67 189.51 129.17 184.73 130.21 C 181.13 130.07 177.55 130.03 173.96 130.07 C 173.69 129.81 173.13 129.30 172.86 129.04 Z" />
</g>
<g id="#5a6667ff">
<path fill="#5a6667" opacity="1.00" d=" M 207.91 129.00 L 208.86 128.92 L 209.18 129.79 C 209.10 133.62 209.00 137.47 208.67 141.29 C 208.19 137.21 207.86 133.11 207.91 129.00 Z" />
</g>
<g id="#ced7d9ff">
<path fill="#ced7d9" opacity="1.00" d=" M 152.02 132.08 C 154.61 127.56 161.04 131.03 165.06 129.94 C 174.89 127.52 167.64 132.08 166.12 134.60 C 164.71 136.72 164.05 139.21 162.93 141.48 C 159.20 139.20 158.32 141.13 158.86 144.92 C 158.52 145.23 157.84 145.85 157.50 146.15 C 155.58 146.00 153.65 145.88 151.73 145.74 C 152.07 141.19 151.95 136.63 152.02 132.08 Z" />
</g>
<g id="#dee6e7ff">
<path fill="#dee6e7" opacity="1.00" d=" M 173.96 130.07 C 177.55 130.03 181.13 130.07 184.73 130.21 C 190.04 133.54 197.11 132.47 202.72 130.42 C 202.88 132.33 204.12 133.15 205.96 133.22 C 206.03 135.05 206.13 136.88 206.30 138.71 C 206.15 143.46 206.03 148.22 205.97 152.98 C 198.65 153.16 191.34 152.96 184.04 152.93 C 180.45 152.41 176.85 152.07 173.23 151.91 C 172.34 148.93 166.15 142.21 173.14 143.74 C 172.25 139.36 169.49 138.97 166.07 141.36 C 166.36 139.61 167.15 138.02 168.14 136.58 C 173.21 138.61 166.38 133.17 172.20 131.70 C 174.98 132.20 177.11 132.24 173.96 130.07 Z" />
</g>
<g id="#d9e0e2ff">
<path fill="#d9e0e2" opacity="1.00" d=" M 209.18 129.79 C 211.90 131.93 215.47 131.06 218.28 132.71 C 215.84 138.53 222.44 150.41 214.80 152.93 C 205.42 156.66 209.94 145.91 208.67 141.29 C 209.00 137.47 209.10 133.62 209.18 129.79 Z" />
</g>
<g id="#323332ff">
<path fill="#323332" opacity="1.00" d=" M 0.00 132.94 C 1.83 133.07 3.67 133.24 5.50 133.44 C 4.42 135.48 1.88 134.85 0.00 135.10 L 0.00 132.94 Z" />
</g>
<g id="#8e8683ff">
<path fill="#8e8683" opacity="1.00" d=" M 218.28 132.71 C 220.04 139.28 218.60 146.21 218.98 152.92 C 217.58 152.92 216.19 152.92 214.80 152.93 C 222.44 150.41 215.84 138.53 218.28 132.71 Z" />
</g>
<g id="#83906eff">
<path fill="#83906e" opacity="1.00" d=" M 232.00 135.97 C 231.50 132.97 234.53 134.41 236.25 134.61 C 227.76 139.68 246.86 137.82 250.00 138.01 L 250.00 144.09 C 245.94 144.22 241.92 143.92 237.94 143.18 C 234.48 152.44 245.11 149.62 250.00 150.07 L 250.00 156.20 C 246.38 156.48 240.04 152.00 238.67 156.25 C 236.38 156.85 233.99 156.16 231.71 156.80 C 229.02 157.64 229.03 154.44 228.03 152.81 C 227.97 147.09 228.00 141.37 228.62 135.68 C 229.94 134.10 231.81 137.88 232.00 135.97 M 231.22 142.10 C 229.32 143.80 227.77 151.20 232.00 150.03 C 240.44 153.60 238.19 139.77 231.22 142.10 Z" />
</g>
<g id="#2e2f29ff">
<path fill="#2e2f29" opacity="1.00" d=" M 6.91 135.92 C 9.26 134.37 12.36 135.07 14.93 134.98 C 14.94 138.96 16.78 145.74 10.79 145.41 C 5.52 145.46 7.18 139.56 6.91 135.92 Z" />
</g>
<g id="#444647ff">
<path fill="#444647" opacity="1.00" d=" M 42.06 135.02 C 46.67 133.92 43.27 141.30 43.94 143.98 C 39.32 145.07 42.73 137.70 42.06 135.02 Z" />
</g>
<g id="#d3d8ddff">
<path fill="#d3d8dd" opacity="1.00" d=" M 47.04 145.94 C 47.62 142.80 45.81 133.34 50.50 136.03 C 50.03 138.90 50.22 141.79 50.30 144.70 C 50.24 145.28 50.11 146.45 50.05 147.04 C 48.66 147.99 47.68 147.35 47.04 145.94 Z" />
</g>
<g id="#a1a8adff">
<path fill="#a1a8ad" opacity="1.00" d=" M 147.21 135.05 L 148.16 135.14 C 148.65 138.52 148.14 152.26 144.97 144.93 C 149.98 148.94 145.44 136.74 147.21 135.05 Z" />
</g>
<g id="#6f7d75ff">
<path fill="#6f7d75" opacity="1.00" d=" M 162.93 141.48 C 164.05 139.21 164.71 136.72 166.12 134.60 C 166.81 135.24 167.48 135.90 168.14 136.58 C 167.15 138.02 166.36 139.61 166.07 141.36 C 165.09 141.93 163.95 141.92 162.93 141.48 Z" />
</g>
<g id="#31342aff">
<path fill="#31342a" opacity="1.00" d=" M 0.00 135.96 C 5.56 134.66 6.31 138.60 4.98 143.93 C 3.32 144.05 1.66 144.05 0.00 144.09 L 0.00 135.96 Z" />
</g>
<g id="#a6a290ff">
<path fill="#a6a290" opacity="1.00" d=" M 4.98 143.93 C 7.85 143.20 3.93 137.16 6.91 135.92 C 7.18 139.56 5.52 145.46 10.79 145.41 C 13.04 145.81 15.59 146.05 15.12 149.01 C 10.02 147.77 5.07 149.83 0.00 150.21 L 0.00 144.09 C 1.66 144.05 3.32 144.05 4.98 143.93 Z" />
</g>
<g id="#a68878ff">
<path fill="#a68878" opacity="1.00" d=" M 55.26 137.01 C 57.17 137.76 59.12 137.65 61.05 137.07 C 60.70 139.78 56.84 140.13 55.06 142.10 C 55.44 140.41 55.87 138.70 55.26 137.01 Z" />
</g>
<g id="#676a5fff">
<path fill="#676a5f" opacity="1.00" d=" M 25.98 137.85 C 29.07 138.13 24.23 148.63 28.06 145.01 C 32.45 141.49 30.00 148.57 30.64 151.08 C 29.08 151.29 27.52 151.56 25.96 151.76 C 26.63 147.14 25.84 142.49 25.98 137.85 Z" />
</g>
<g id="#a5b4adff">
<path fill="#a5b4ad" opacity="1.00" d=" M 166.07 141.36 C 169.49 138.97 172.25 139.36 173.14 143.74 C 166.15 142.21 172.34 148.93 173.23 151.91 C 171.46 151.94 167.93 151.98 166.16 152.00 C 164.61 148.18 164.34 144.26 158.86 144.92 C 158.32 141.13 159.20 139.20 162.93 141.48 C 163.95 141.92 165.09 141.93 166.07 141.36 Z" />
</g>
<g id="#82888aff">
<path fill="#82888a" opacity="1.00" d=" M 206.30 138.71 C 207.27 143.21 208.26 150.15 205.97 152.98 C 206.03 148.22 206.15 143.46 206.30 138.71 Z" />
</g>
<g id="#bcb9b2ff">
<path fill="#bcb9b2" opacity="1.00" d=" M 113.79 143.04 C 123.41 142.70 133.03 142.17 142.62 143.32 C 142.79 143.76 143.14 144.62 143.31 145.06 C 133.57 144.99 123.84 145.08 114.11 144.92 C 114.03 144.45 113.87 143.51 113.79 143.04 Z" />
</g>
<g id="#b8bbacff">
<path fill="#b8bbac" opacity="1.00" d=" M 231.22 142.10 C 238.19 139.77 240.44 153.60 232.00 150.03 C 227.77 151.20 229.32 143.80 231.22 142.10 Z" />
</g>
<g id="#695f5cff">
<path fill="#695f5c" opacity="1.00" d=" M 110.21 148.06 C 109.74 145.44 111.82 144.15 113.79 143.04 C 113.87 143.51 114.03 144.45 114.11 144.92 C 115.65 146.11 117.86 146.59 120.71 146.35 C 128.31 147.90 136.18 146.53 143.87 147.06 C 143.90 147.80 143.97 149.28 144.00 150.02 L 143.12 150.14 C 141.84 150.06 140.55 149.96 139.27 149.83 C 131.64 145.55 119.59 148.96 110.21 148.06 Z" />
</g>
<g id="#c8cbc3ff">
<path fill="#c8cbc3" opacity="1.00" d=" M 237.94 143.18 C 241.92 143.92 245.94 144.22 250.00 144.09 L 250.00 150.07 C 245.11 149.62 234.48 152.44 237.94 143.18 Z" />
</g>
<g id="#727766ff">
<path fill="#727766" opacity="1.00" d=" M 32.07 151.08 C 32.84 148.61 30.54 143.01 34.82 143.97 C 35.05 145.96 32.20 150.93 35.84 149.89 C 35.78 146.57 37.53 139.06 38.41 148.54 C 38.89 148.59 39.84 148.69 40.31 148.73 C 40.76 151.53 34.37 150.25 32.07 151.08 Z" />
</g>
<g id="#a19f98ff">
<path fill="#a19f98" opacity="1.00" d=" M 50.30 144.70 C 53.12 150.04 60.02 146.68 64.89 147.30 C 70.17 147.62 75.48 147.62 80.76 147.31 C 83.31 147.31 87.34 145.90 84.29 152.29 C 84.28 148.42 89.41 144.03 89.90 150.06 C 91.00 155.72 91.04 143.06 94.05 148.81 C 97.42 149.54 110.57 143.04 108.62 151.67 C 108.53 155.76 110.89 149.84 110.21 148.06 C 119.59 148.96 131.64 145.55 139.27 149.83 C 129.87 148.71 120.40 150.50 110.95 150.08 C 111.91 156.90 123.60 150.88 128.00 153.11 C 132.87 152.83 142.56 157.12 143.12 150.14 L 144.00 150.02 C 144.56 157.05 144.00 147.44 147.95 148.82 C 144.24 151.34 149.22 151.16 151.07 152.67 C 151.31 150.36 151.35 148.03 151.73 145.74 C 153.65 145.88 155.58 146.00 157.50 146.15 C 158.96 146.77 161.87 148.01 163.33 148.63 C 161.45 149.51 158.53 148.65 157.61 150.92 C 151.50 148.62 152.37 152.23 153.01 155.92 C 142.11 156.09 131.19 156.11 120.29 155.87 C 119.41 155.15 118.61 154.02 117.32 154.38 C 104.82 155.88 92.14 153.95 79.70 155.67 C 73.74 156.01 67.77 156.02 61.80 156.00 C 65.67 148.82 77.84 155.23 83.16 151.01 C 75.16 151.26 67.19 150.92 59.23 150.27 C 57.94 152.02 57.85 154.14 58.91 156.04 C 47.19 156.09 35.47 155.74 23.76 156.24 C 19.30 155.74 21.19 151.19 25.00 151.90 L 25.96 151.76 C 27.52 151.56 29.08 151.29 30.64 151.08 C 30.99 151.30 31.69 151.73 32.04 151.95 C 36.23 155.56 42.09 151.15 46.48 154.44 C 50.18 155.25 58.00 155.54 57.03 150.05 C 53.99 150.20 45.49 151.96 50.05 147.04 C 50.11 146.45 50.24 145.28 50.30 144.70 Z" />
</g>
<g id="#96908aff">
<path fill="#96908a" opacity="1.00" d=" M 114.11 144.92 C 123.84 145.08 133.57 144.99 143.31 145.06 C 136.27 147.41 128.11 145.31 120.71 146.35 C 117.86 146.59 115.65 146.11 114.11 144.92 Z" />
</g>
<g id="#647868ff">
<path fill="#647868" opacity="1.00" d=" M 157.50 146.15 C 157.84 145.85 158.52 145.23 158.86 144.92 C 164.34 144.26 164.61 148.18 166.16 152.00 C 165.13 152.35 164.10 152.69 163.08 153.02 C 161.95 150.99 159.57 151.29 157.61 150.92 C 158.53 148.65 161.45 149.51 163.33 148.63 C 161.87 148.01 158.96 146.77 157.50 146.15 Z" />
</g>
<g id="#b4b4acff">
<path fill="#b4b4ac" opacity="1.00" d=" M 47.04 145.94 C 47.68 147.35 48.66 147.99 50.05 147.04 C 45.49 151.96 53.99 150.20 57.03 150.05 C 58.00 155.54 50.18 155.25 46.48 154.44 C 42.09 151.15 36.23 155.56 32.04 151.95 L 32.07 151.08 C 34.37 150.25 40.76 151.53 40.31 148.73 L 40.35 147.93 C 42.17 150.49 47.83 149.32 47.04 145.94 Z" />
</g>
<g id="#7f8d45ff">
<path fill="#7f8d45" opacity="1.00" d=" M 0.00 150.21 C 5.07 149.83 10.02 147.77 15.12 149.01 C 15.27 149.56 15.57 150.66 15.72 151.20 C 15.42 154.53 14.01 157.61 13.16 160.81 C 16.73 162.91 21.02 161.04 24.81 161.93 C 21.89 165.96 23.74 168.94 28.76 168.22 C 29.98 168.76 31.19 169.33 32.40 169.89 C 27.73 170.67 19.32 174.24 17.32 167.42 C 11.57 166.67 5.79 166.25 0.00 165.90 L 0.00 150.21 Z" />
</g>
<g id="#6b614fff">
<path fill="#6b614f" opacity="1.00" d=" M 15.72 151.20 C 15.56 148.59 18.80 143.00 17.23 152.89 C 20.57 153.94 17.95 149.67 18.12 147.93 C 21.25 146.97 18.83 152.08 20.83 151.79 C 20.48 148.71 21.96 147.39 25.02 147.88 C 25.02 149.22 25.01 150.56 25.00 151.90 C 21.19 151.19 19.30 155.74 23.76 156.24 C 43.82 158.04 64.06 156.43 84.19 157.09 C 79.57 156.43 75.58 158.87 77.26 163.47 C 75.05 161.79 73.03 164.29 70.97 165.03 C 65.57 167.52 61.73 160.29 56.29 162.31 C 51.51 164.77 45.98 164.13 40.89 163.15 C 40.42 165.80 46.04 164.49 42.32 166.33 C 39.57 171.10 33.04 167.06 28.76 168.22 C 23.74 168.94 21.89 165.96 24.81 161.93 C 21.02 161.04 16.73 162.91 13.16 160.81 C 14.01 157.61 15.42 154.53 15.72 151.20 Z" />
</g>
<g id="#c6c5beff">
<path fill="#c6c5be" opacity="1.00" d=" M 110.95 150.08 C 120.40 150.50 129.87 148.71 139.27 149.83 C 140.55 149.96 141.84 150.06 143.12 150.14 C 142.56 157.12 132.87 152.83 128.00 153.11 C 123.60 150.88 111.91 156.90 110.95 150.08 Z" />
</g>
<g id="#b9b8b1ff">
<path fill="#b9b8b1" opacity="1.00" d=" M 59.23 150.27 C 67.19 150.92 75.16 151.26 83.16 151.01 C 77.84 155.23 65.67 148.82 61.80 156.00 C 61.08 156.01 59.63 156.03 58.91 156.04 C 57.85 154.14 57.94 152.02 59.23 150.27 Z" />
</g>
<g id="#24291bff">
<path fill="#24291b" opacity="1.00" d=" M 153.01 155.92 C 152.37 152.23 151.50 148.62 157.61 150.92 C 159.57 151.29 161.95 150.99 163.08 153.02 C 163.90 155.28 168.79 160.54 168.06 155.24 C 169.44 156.88 171.29 156.74 173.16 156.05 C 173.85 156.99 174.53 157.94 175.18 158.92 C 173.86 161.84 171.18 159.42 169.09 158.89 C 170.58 160.74 171.54 162.69 169.01 164.12 C 165.26 167.48 161.24 163.82 157.19 165.67 C 154.60 165.67 151.45 165.82 151.84 162.27 C 151.90 160.53 151.99 158.79 151.92 157.05 C 129.34 156.95 106.77 156.93 84.19 157.09 C 64.06 156.43 43.82 158.04 23.76 156.24 C 35.47 155.74 47.19 156.09 58.91 156.04 C 59.63 156.03 61.08 156.01 61.80 156.00 C 67.77 156.02 73.74 156.01 79.70 155.67 C 93.22 156.17 106.76 156.11 120.29 155.87 C 131.19 156.11 142.11 156.09 153.01 155.92 M 160.28 156.30 C 157.94 156.59 155.41 161.61 159.35 159.47 C 162.17 160.37 163.43 154.72 160.28 156.30 Z" />
</g>
<g id="#404d40ff">
<path fill="#404d40" opacity="1.00" d=" M 163.08 153.02 C 164.10 152.69 165.13 152.35 166.16 152.00 C 167.93 151.98 171.46 151.94 173.23 151.91 L 173.34 152.88 C 173.32 153.94 173.25 154.99 173.16 156.05 C 171.29 156.74 169.44 156.88 168.06 155.24 C 168.79 160.54 163.90 155.28 163.08 153.02 Z" />
</g>
<g id="#a5a7a8ff">
<path fill="#a5a7a8" opacity="1.00" d=" M 173.23 151.91 C 176.85 152.07 180.45 152.41 184.04 152.93 L 182.86 153.16 C 179.67 153.06 176.52 153.02 173.34 152.88 L 173.23 151.91 Z" />
</g>
<g id="#15140fff">
<path fill="#15140f" opacity="1.00" d=" M 173.34 152.88 C 176.52 153.02 179.67 153.06 182.86 153.16 C 190.71 155.53 199.20 153.17 207.26 154.08 C 201.80 161.34 191.40 157.90 183.68 158.23 C 180.67 157.32 177.91 160.88 175.18 158.92 C 174.53 157.94 173.85 156.99 173.16 156.05 C 173.25 154.99 173.32 153.94 173.34 152.88 Z" />
</g>
<g id="#8c867bff">
<path fill="#8c867b" opacity="1.00" d=" M 117.32 154.38 C 118.61 154.02 119.41 155.15 120.29 155.87 C 106.76 156.11 93.22 156.17 79.70 155.67 C 92.14 153.95 104.82 155.88 117.32 154.38 Z" />
</g>
<g id="#b4b4a0ff">
<path fill="#b4b4a0" opacity="1.00" d=" M 238.67 156.25 C 240.04 152.00 246.38 156.48 250.00 156.20 L 250.00 159.26 C 246.23 158.26 242.47 157.14 238.67 156.25 Z" />
</g>
<g id="#85968aff">
<path fill="#85968a" opacity="1.00" d=" M 160.28 156.30 C 163.43 154.72 162.17 160.37 159.35 159.47 C 155.41 161.61 157.94 156.59 160.28 156.30 Z" />
</g>
<g id="#70873bff">
<path fill="#70873b" opacity="1.00" d=" M 231.71 156.80 C 233.99 156.16 236.38 156.85 238.67 156.25 C 242.47 157.14 246.23 158.26 250.00 159.26 L 250.00 165.13 C 240.82 164.00 231.56 164.71 222.34 164.20 C 221.96 163.94 221.19 163.41 220.80 163.14 C 225.46 160.90 235.50 166.51 231.71 156.80 Z" />
</g>
<g id="#816859ff">
<path fill="#816859" opacity="1.00" d=" M 84.19 157.09 C 106.77 156.93 129.34 156.95 151.92 157.05 C 151.99 158.79 151.90 160.53 151.84 162.27 C 148.21 161.75 143.40 157.81 140.77 161.89 C 129.77 162.80 118.68 159.73 107.77 161.59 C 102.69 161.09 100.48 161.89 104.01 165.21 C 101.36 169.92 91.14 164.76 98.37 169.84 C 94.18 169.90 89.99 169.93 85.81 169.94 C 87.83 169.45 89.11 168.22 88.76 166.05 C 85.15 164.93 78.84 168.35 77.26 163.47 C 75.58 158.87 79.57 156.43 84.19 157.09 Z" />
</g>
<g id="#5f5540ff">
<path fill="#5f5540" opacity="1.00" d=" M 140.77 161.89 C 143.40 157.81 148.21 161.75 151.84 162.27 C 151.45 165.82 154.60 165.67 157.19 165.67 C 154.39 165.41 155.64 166.66 156.83 167.97 C 155.56 168.70 154.23 169.35 152.92 170.02 C 149.30 171.97 144.03 168.32 141.74 172.66 L 140.92 172.88 C 140.95 172.16 140.99 170.73 141.02 170.01 C 141.02 169.55 141.04 168.62 141.05 168.16 C 141.06 166.07 140.92 163.98 140.77 161.89 Z" />
</g>
<g id="#adaaa4ff">
<path fill="#adaaa4" opacity="1.00" d=" M 107.77 161.59 C 118.68 159.73 129.77 162.80 140.77 161.89 C 140.92 163.98 141.06 166.07 141.05 168.16 C 130.01 169.81 118.89 167.06 107.78 168.06 C 107.88 165.90 107.86 163.75 107.77 161.59 Z" />
</g>
<g id="#8f7c54ff">
<path fill="#8f7c54" opacity="1.00" d=" M 40.89 163.15 C 45.98 164.13 51.51 164.77 56.29 162.31 C 61.73 160.29 65.57 167.52 70.97 165.03 C 73.03 164.29 75.05 161.79 77.26 163.47 C 78.84 168.35 85.15 164.93 88.76 166.05 C 89.11 168.22 87.83 169.45 85.81 169.94 C 80.33 170.12 74.77 170.35 69.52 168.57 C 64.85 165.37 62.07 171.42 57.69 170.59 C 49.27 170.04 40.82 169.15 32.40 169.89 C 31.19 169.33 29.98 168.76 28.76 168.22 C 33.04 167.06 39.57 171.10 42.32 166.33 C 46.04 164.49 40.42 165.80 40.89 163.15 Z" />
</g>
<g id="#6d523fff">
<path fill="#6d523f" opacity="1.00" d=" M 104.01 165.21 C 100.48 161.89 102.69 161.09 107.77 161.59 C 107.86 163.75 107.88 165.90 107.78 168.06 C 107.50 168.50 106.95 169.38 106.67 169.82 C 105.08 169.71 103.49 169.77 101.90 169.89 C 100.72 169.89 99.54 169.87 98.37 169.84 C 91.14 164.76 101.36 169.92 104.01 165.21 Z" />
</g>
<g id="#8c9b47ff">
<path fill="#8c9b47" opacity="1.00" d=" M 183.89 162.68 C 191.39 162.80 199.23 162.08 206.79 163.17 C 207.62 166.31 205.84 170.28 208.14 172.88 C 212.09 172.36 208.61 164.79 210.05 162.31 C 213.65 162.30 217.25 162.59 220.80 163.14 C 221.19 163.41 221.96 163.94 222.34 164.20 C 219.98 166.42 217.20 168.18 213.85 167.20 C 214.64 169.50 216.64 171.04 218.02 172.98 C 215.19 174.16 210.81 172.04 209.31 175.42 C 207.69 178.69 204.70 174.98 202.45 176.26 C 198.74 178.23 191.83 170.00 191.38 175.90 C 189.03 175.30 186.79 174.35 184.42 173.85 C 185.94 177.41 180.86 178.29 178.41 178.70 C 176.58 174.68 170.69 176.45 170.63 180.63 C 171.00 183.51 166.36 186.00 167.54 181.81 C 163.94 180.37 150.69 187.90 156.15 180.90 C 150.36 181.39 153.52 185.16 155.53 188.00 L 144.36 188.00 C 143.53 185.37 142.41 182.85 141.67 180.19 C 140.99 177.67 145.81 172.75 141.74 172.66 C 144.03 168.32 149.30 171.97 152.92 170.02 C 160.84 172.51 168.35 165.53 175.92 168.57 C 178.60 166.63 180.88 164.17 183.89 162.68 Z" />
</g>
<g id="#6c7f40ff">
<path fill="#6c7f40" opacity="1.00" d=" M 169.01 164.12 C 174.00 165.22 178.94 163.20 183.89 162.68 C 180.88 164.17 178.60 166.63 175.92 168.57 C 168.35 165.53 160.84 172.51 152.92 170.02 C 154.23 169.35 155.56 168.70 156.83 167.97 C 155.64 166.66 154.39 165.41 157.19 165.67 C 161.24 163.82 165.26 167.48 169.01 164.12 Z" />
</g>
<g id="#a2ae4bff">
<path fill="#a2ae4b" opacity="1.00" d=" M 222.34 164.20 C 231.56 164.71 240.82 164.00 250.00 165.13 L 250.00 182.48 C 246.56 182.24 242.74 179.50 239.85 182.72 C 237.59 184.06 241.43 184.10 242.35 184.77 C 237.48 184.30 232.04 185.44 227.79 182.34 C 224.28 180.72 227.14 190.23 220.81 185.14 C 224.73 183.14 224.80 178.10 227.70 175.05 C 226.26 174.37 224.49 173.43 224.99 175.97 C 226.40 180.82 215.65 173.92 218.84 178.21 C 221.93 181.40 217.39 182.84 215.07 184.18 C 216.01 186.16 218.68 186.74 220.40 188.00 L 155.53 188.00 C 153.52 185.16 150.36 181.39 156.15 180.90 C 150.69 187.90 163.94 180.37 167.54 181.81 C 166.36 186.00 171.00 183.51 170.63 180.63 C 170.69 176.45 176.58 174.68 178.41 178.70 C 180.86 178.29 185.94 177.41 184.42 173.85 C 186.79 174.35 189.03 175.30 191.38 175.90 C 191.83 170.00 198.74 178.23 202.45 176.26 C 204.70 174.98 207.69 178.69 209.31 175.42 C 210.81 172.04 215.19 174.16 218.02 172.98 C 216.64 171.04 214.64 169.50 213.85 167.20 C 217.20 168.18 219.98 166.42 222.34 164.20 Z" />
</g>
<g id="#abb550ff">
<path fill="#abb550" opacity="1.00" d=" M 0.00 165.90 C 5.79 166.25 11.57 166.67 17.32 167.42 C 19.32 174.24 27.73 170.67 32.40 169.89 C 40.82 169.15 49.27 170.04 57.69 170.59 C 62.07 171.42 64.85 165.37 69.52 168.57 C 74.77 170.35 80.33 170.12 85.81 169.94 C 89.99 169.93 94.18 169.90 98.37 169.84 C 99.54 169.87 100.72 169.89 101.90 169.89 C 103.77 171.84 105.50 173.93 107.23 176.00 C 105.39 180.01 103.72 184.10 101.65 188.00 L 69.50 188.00 C 65.64 183.77 59.68 188.47 56.97 184.27 C 59.17 183.27 62.84 183.40 62.10 180.03 C 58.92 183.05 50.61 178.78 51.72 185.05 C 40.99 180.81 29.53 189.20 18.64 184.76 C 17.31 181.75 19.20 176.97 15.42 175.58 C 11.61 173.87 9.73 182.65 8.30 177.73 C 6.70 173.55 6.42 182.49 7.98 184.14 C 5.10 184.10 2.60 182.63 0.00 181.61 L 0.00 165.90 Z" />
</g>
<g id="#97968eff">
<path fill="#97968e" opacity="1.00" d=" M 106.67 169.82 C 106.95 169.38 107.50 168.50 107.78 168.06 C 118.81 169.39 129.90 170.26 141.02 170.01 C 140.99 170.73 140.95 172.16 140.92 172.88 C 131.51 176.68 122.53 170.94 113.04 172.92 C 108.85 175.47 108.14 171.93 106.67 169.82 Z" />
</g>
<g id="#cbc8c0ff">
<path fill="#cbc8c0" opacity="1.00" d=" M 107.78 168.06 C 118.89 167.06 130.01 169.81 141.05 168.16 C 141.04 168.62 141.02 169.55 141.02 170.01 C 129.90 170.26 118.81 169.39 107.78 168.06 Z" />
</g>
<g id="#8b896fff">
<path fill="#8b896f" opacity="1.00" d=" M 101.90 169.89 C 103.49 169.77 105.08 169.71 106.67 169.82 C 108.14 171.93 108.85 175.47 113.04 172.92 C 122.53 170.94 131.51 176.68 140.92 172.88 L 141.74 172.66 C 145.81 172.75 140.99 177.67 141.67 180.19 C 140.00 170.83 125.36 178.29 118.44 175.91 C 114.73 174.91 110.84 174.59 107.23 176.00 C 105.50 173.93 103.77 171.84 101.90 169.89 Z" />
</g>
<g id="#869639ff">
<path fill="#869639" opacity="1.00" d=" M 224.99 175.97 C 224.49 173.43 226.26 174.37 227.70 175.05 C 224.80 178.10 224.73 183.14 220.81 185.14 C 227.14 190.23 224.28 180.72 227.79 182.34 C 232.04 185.44 237.48 184.30 242.35 184.77 C 241.43 184.10 237.59 184.06 239.85 182.72 C 242.74 179.50 246.56 182.24 250.00 182.48 L 250.00 188.00 L 220.40 188.00 C 218.68 186.74 216.01 186.16 215.07 184.18 C 217.39 182.84 221.93 181.40 218.84 178.21 C 215.65 173.92 226.40 180.82 224.99 175.97 Z" />
</g>
<g id="#98a53aff">
<path fill="#98a53a" opacity="1.00" d=" M 8.30 177.73 C 9.73 182.65 11.61 173.87 15.42 175.58 C 19.20 176.97 17.31 181.75 18.64 184.76 C 29.53 189.20 40.99 180.81 51.72 185.05 C 50.61 178.78 58.92 183.05 62.10 180.03 C 62.84 183.40 59.17 183.27 56.97 184.27 C 59.68 188.47 65.64 183.77 69.50 188.00 L 0.00 188.00 L 0.00 181.61 C 2.60 182.63 5.10 184.10 7.98 184.14 C 6.42 182.49 6.70 173.55 8.30 177.73 Z" />
</g>
<g id="#b7b0a0ff">
<path fill="#b7b0a0" opacity="1.00" d=" M 107.23 176.00 C 110.84 174.59 114.73 174.91 118.44 175.91 C 113.78 177.85 108.64 180.02 109.07 185.87 C 112.18 187.78 116.29 186.33 119.59 188.00 L 101.65 188.00 C 103.72 184.10 105.39 180.01 107.23 176.00 Z" />
</g>
<g id="#cfc9bcff">
<path fill="#cfc9bc" opacity="1.00" d=" M 118.44 175.91 C 125.36 178.29 140.00 170.83 141.67 180.19 C 142.41 182.85 143.53 185.37 144.36 188.00 L 119.59 188.00 C 116.29 186.33 112.18 187.78 109.07 185.87 C 108.64 180.02 113.78 177.85 118.44 175.91 Z" />
</g>
</svg>
