<?xml version="1.0" encoding="UTF-8" ?>
<!DOCTYPE svg PUBLIC "-//W3C//DTD SVG 1.1//EN" "http://www.w3.org/Graphics/SVG/1.1/DTD/svg11.dtd">
<svg width="250pt" height="188pt" viewBox="0 0 250 188" version="1.1" xmlns="http://www.w3.org/2000/svg">
<g id="#f4f7fbff">
<path fill="#f4f7fb" opacity="1.00" d=" M 0.00 0.00 L 250.00 0.00 L 250.00 39.85 C 240.88 45.96 232.02 52.45 223.26 59.08 C 221.32 59.77 219.27 60.36 217.80 61.89 C 214.78 65.41 206.30 67.04 209.51 72.23 C 205.46 73.62 206.11 75.94 210.00 76.87 C 210.44 77.01 211.31 77.29 211.74 77.43 C 218.39 78.39 224.51 81.58 231.18 82.14 C 237.39 83.50 243.84 83.39 250.00 85.00 L 250.00 91.05 C 240.65 92.29 233.23 85.01 224.04 85.02 C 215.52 80.15 205.01 79.53 195.97 75.62 C 195.20 74.87 194.45 74.10 193.73 73.31 C 194.89 72.60 196.07 71.90 197.15 71.05 C 196.74 67.34 189.77 71.84 187.78 69.21 C 182.48 61.66 178.95 52.56 172.48 45.96 C 167.02 43.05 162.08 39.32 156.86 36.05 C 152.71 34.98 152.13 40.78 149.96 42.97 C 148.38 47.55 143.94 43.15 141.66 41.65 C 125.11 28.91 107.15 18.13 90.12 6.07 C 87.19 2.43 83.15 5.15 79.97 6.95 C 62.80 17.49 43.47 25.12 28.00 38.10 C 31.69 42.93 35.24 47.88 39.18 52.50 C 37.92 54.95 32.24 57.57 31.81 53.15 C 30.93 49.49 26.30 51.31 24.17 48.86 C 21.47 46.36 23.09 53.19 20.81 52.95 C 15.36 53.26 18.61 43.59 13.09 44.02 C 7.86 44.88 9.48 51.07 8.80 54.99 C 6.55 55.52 4.63 54.34 3.04 52.89 C 2.06 52.02 1.04 51.22 0.00 50.44 L 0.00 0.00 Z" />
</g>
<g id="#b5bbc0ff">
<path fill="#b5bbc0" opacity="1.00" d=" M 79.97 6.95 C 83.15 5.15 87.19 2.43 90.12 6.07 C 81.78 9.26 95.92 13.33 97.73 17.22 C 102.18 22.04 92.12 19.33 89.59 17.43 C 87.18 14.96 84.50 17.29 81.89 18.03 C 84.73 16.75 83.43 13.67 83.31 11.15 C 85.31 10.84 84.90 8.62 85.20 7.13 C 76.12 10.88 67.09 15.17 59.17 21.22 C 49.91 27.18 37.17 29.65 31.77 39.98 C 35.97 39.90 44.78 42.08 42.19 35.16 C 47.29 30.50 54.61 26.79 60.89 23.19 C 61.28 25.19 62.03 27.08 62.87 28.92 C 56.93 30.97 53.62 36.67 47.58 38.55 C 45.89 39.26 44.00 40.95 46.08 42.56 C 45.13 43.08 44.11 43.42 43.08 43.69 C 40.51 42.41 39.74 43.33 40.63 45.94 C 40.47 48.21 39.99 50.40 39.18 52.50 C 35.24 47.88 31.69 42.93 28.00 38.10 C 43.47 25.12 62.80 17.49 79.97 6.95 Z" />
</g>
<g id="#d0d3d6ff">
<path fill="#d0d3d6" opacity="1.00" d=" M 90.12 6.07 C 107.15 18.13 125.11 28.91 141.66 41.65 C 141.50 44.03 144.02 45.30 145.28 46.98 C 145.55 49.65 143.73 48.54 142.31 47.66 C 129.96 38.27 116.97 29.66 104.10 21.02 C 101.18 25.53 107.67 26.68 109.69 29.34 C 109.86 32.41 113.42 31.39 115.22 32.82 C 124.25 39.73 132.91 47.11 141.98 53.95 C 141.77 54.31 141.34 55.03 141.13 55.38 C 122.83 43.69 105.87 29.90 87.03 19.10 C 73.21 26.61 59.90 35.04 46.08 42.56 C 44.00 40.95 45.89 39.26 47.58 38.55 C 53.62 36.67 56.93 30.97 62.87 28.92 C 69.17 25.24 75.29 21.16 81.89 18.03 C 84.50 17.29 87.18 14.96 89.59 17.43 C 92.12 19.33 102.18 22.04 97.73 17.22 C 95.92 13.33 81.78 9.26 90.12 6.07 Z" />
</g>
<g id="#cfd5dbff">
<path fill="#cfd5db" opacity="1.00" d=" M 59.17 21.22 C 67.09 15.17 76.12 10.88 85.20 7.13 C 84.90 8.62 85.31 10.84 83.31 11.15 C 75.54 14.58 68.58 19.58 60.89 23.19 C 54.61 26.79 47.29 30.50 42.19 35.16 C 44.78 42.08 35.97 39.90 31.77 39.98 C 37.17 29.65 49.91 27.18 59.17 21.22 Z" />
</g>
<g id="#8f908cff">
<path fill="#8f908c" opacity="1.00" d=" M 60.89 23.19 C 68.58 19.58 75.54 14.58 83.31 11.15 C 83.43 13.67 84.73 16.75 81.89 18.03 C 75.29 21.16 69.17 25.24 62.87 28.92 C 62.03 27.08 61.28 25.19 60.89 23.19 Z" />
</g>
<g id="#5d3e35ff">
<path fill="#5d3e35" opacity="1.00" d=" M 46.08 42.56 C 59.90 35.04 73.21 26.61 87.03 19.10 C 105.87 29.90 122.83 43.69 141.13 55.38 C 141.40 55.61 141.93 56.06 142.20 56.28 C 137.17 62.92 134.16 70.84 129.05 77.38 C 125.89 76.06 128.33 74.23 130.02 72.92 C 127.46 70.00 125.06 66.98 123.56 63.38 C 120.63 60.12 116.94 64.86 113.50 63.81 C 112.50 60.77 110.02 57.08 111.93 53.96 C 114.29 46.76 126.21 58.26 124.01 46.68 C 119.00 44.49 113.94 45.83 109.10 47.72 C 107.81 43.28 109.67 38.36 106.35 34.54 C 104.79 29.88 98.68 35.37 96.98 31.01 C 95.39 27.08 89.61 25.02 87.51 29.57 C 85.77 33.14 83.82 28.18 81.84 27.16 C 76.08 31.14 69.89 34.68 64.02 37.76 C 67.77 41.41 64.96 42.68 60.95 41.17 C 58.51 45.55 62.56 46.54 64.94 48.11 C 63.83 54.71 63.88 61.41 63.98 68.08 C 57.09 65.20 48.87 67.35 42.85 70.84 C 45.90 72.14 43.74 73.82 42.11 75.25 C 42.37 64.74 40.88 54.05 43.08 43.69 C 44.11 43.42 45.13 43.08 46.08 42.56 Z" />
</g>
<g id="#bcc1c6ff">
<path fill="#bcc1c6" opacity="1.00" d=" M 104.10 21.02 C 116.97 29.66 129.96 38.27 142.31 47.66 C 143.73 48.54 145.55 49.65 145.28 46.98 C 145.71 47.24 146.57 47.74 147.00 48.00 C 145.52 50.83 144.01 53.65 142.20 56.28 C 141.93 56.06 141.40 55.61 141.13 55.38 C 141.34 55.03 141.77 54.31 141.98 53.95 C 132.91 47.11 124.25 39.73 115.22 32.82 C 113.42 31.39 109.86 32.41 109.69 29.34 C 107.67 26.68 101.18 25.53 104.10 21.02 Z" />
</g>
<g id="#6d4536ff">
<path fill="#6d4536" opacity="1.00" d=" M 64.02 37.76 C 69.89 34.68 76.08 31.14 81.84 27.16 C 83.82 28.18 85.77 33.14 87.51 29.57 C 89.61 25.02 95.39 27.08 96.98 31.01 C 98.68 35.37 104.79 29.88 106.35 34.54 C 109.67 38.36 107.81 43.28 109.10 47.72 C 113.94 45.83 119.00 44.49 124.01 46.68 C 126.21 58.26 114.29 46.76 111.93 53.96 C 110.02 57.08 112.50 60.77 113.50 63.81 C 116.94 64.86 120.63 60.12 123.56 63.38 C 125.06 66.98 127.46 70.00 130.02 72.92 C 128.33 74.23 125.89 76.06 129.05 77.38 C 127.36 79.32 125.80 81.38 124.05 83.27 C 122.77 82.20 118.06 80.47 121.85 79.56 C 119.57 74.44 113.61 73.50 112.78 79.59 C 114.90 78.85 117.15 79.26 117.20 81.95 C 109.85 85.99 113.69 76.66 108.32 76.87 C 107.59 80.21 107.64 88.02 102.10 87.01 C 98.76 86.59 99.62 81.83 103.05 82.65 C 99.91 77.62 92.78 76.33 88.29 80.30 C 85.75 82.44 84.46 79.18 83.59 77.25 C 77.94 76.22 72.12 82.85 67.05 78.93 C 61.99 74.53 55.08 74.65 48.97 76.12 C 49.08 84.08 54.54 92.00 63.27 90.68 C 60.09 88.58 48.92 92.56 57.19 93.15 C 52.61 93.66 54.10 97.23 57.34 98.47 C 54.55 97.89 51.97 99.14 50.00 101.06 C 48.56 100.83 47.12 100.56 45.69 100.26 C 48.55 98.75 53.89 98.30 51.07 93.01 C 53.94 85.41 46.24 87.52 42.10 86.80 C 42.05 82.95 42.05 79.10 42.11 75.25 C 43.74 73.82 45.90 72.14 42.85 70.84 C 48.87 67.35 57.09 65.20 63.98 68.08 C 64.06 68.88 64.22 70.47 64.29 71.26 C 62.66 71.88 59.60 72.19 62.35 73.80 C 78.81 74.30 95.29 73.86 111.76 74.07 C 111.36 70.29 110.72 66.54 110.25 62.77 C 108.94 57.93 113.56 47.20 105.23 48.71 C 99.52 48.00 93.75 47.92 88.00 47.95 C 83.30 47.97 78.60 47.95 73.92 48.28 C 70.92 48.38 67.93 48.18 64.94 48.11 C 62.56 46.54 58.51 45.55 60.95 41.17 C 64.96 42.68 67.77 41.41 64.02 37.76 Z" />
</g>
<g id="#a1a8b1ff">
<path fill="#a1a8b1" opacity="1.00" d=" M 149.96 42.97 C 152.13 40.78 152.71 34.98 156.86 36.05 C 162.08 39.32 167.02 43.05 172.48 45.96 C 164.18 48.51 155.15 45.14 147.00 48.00 C 146.57 47.74 145.71 47.24 145.28 46.98 C 144.02 45.30 141.50 44.03 141.66 41.65 C 143.94 43.15 148.38 47.55 149.96 42.97 Z" />
</g>
<g id="#5e6a70ff">
<path fill="#5e6a70" opacity="1.00" d=" M 223.26 59.08 C 232.02 52.45 240.88 45.96 250.00 39.85 L 250.00 56.72 C 243.09 58.04 236.37 60.41 229.35 61.12 C 229.41 60.53 229.53 59.34 229.59 58.74 C 222.94 63.30 216.07 67.54 209.51 72.23 C 206.30 67.04 214.78 65.41 217.80 61.89 C 220.34 62.27 222.66 61.92 223.26 59.08 M 236.32 55.35 C 234.65 55.85 232.53 56.12 231.86 58.01 C 234.27 59.50 241.09 55.03 236.32 55.35 Z" />
</g>
<g id="#9f9b99ff">
<path fill="#9f9b99" opacity="1.00" d=" M 40.63 45.94 C 39.74 43.33 40.51 42.41 43.08 43.69 C 40.88 54.05 42.37 64.74 42.11 75.25 C 42.05 79.10 42.05 82.95 42.10 86.80 C 41.73 86.56 40.97 86.07 40.59 85.83 C 41.01 72.56 41.57 59.19 40.63 45.94 Z" />
</g>
<g id="#d5d9e2ff">
<path fill="#d5d9e2" opacity="1.00" d=" M 8.80 54.99 C 9.48 51.07 7.86 44.88 13.09 44.02 C 18.61 43.59 15.36 53.26 20.81 52.95 C 23.09 53.19 21.47 46.36 24.17 48.86 C 26.30 51.31 30.93 49.49 31.81 53.15 C 32.24 57.57 37.92 54.95 39.18 52.50 C 39.99 50.40 40.47 48.21 40.63 45.94 C 41.57 59.19 41.01 72.56 40.59 85.83 C 39.94 86.48 39.31 87.14 38.70 87.83 C 31.90 88.12 39.79 83.11 38.62 79.18 C 37.45 76.53 42.03 70.67 37.15 71.31 C 30.59 72.51 41.62 62.19 35.10 62.06 C 34.62 65.11 34.11 68.16 33.69 71.22 L 32.87 71.00 C 32.17 64.98 32.34 58.48 28.04 53.72 C 23.68 56.70 34.99 65.63 28.89 64.30 C 29.34 66.33 31.72 68.51 29.97 70.45 C 28.72 70.36 27.46 70.30 26.20 70.27 C 21.13 69.63 27.53 62.27 23.92 59.54 C 21.88 56.05 21.48 62.66 18.21 62.36 C 17.50 58.89 17.25 55.35 16.76 51.85 C 13.38 52.26 17.21 58.19 14.41 56.54 C 8.84 53.05 15.93 60.28 16.20 62.95 C 15.48 65.51 14.35 68.64 17.44 70.05 C 20.39 72.07 21.78 75.34 22.00 78.82 C 21.96 81.54 22.51 84.19 23.34 86.76 C 23.67 93.47 21.39 85.02 18.02 88.11 C 18.80 89.77 19.91 91.24 21.03 92.68 L 21.33 93.40 C 19.51 92.99 15.42 90.76 17.98 93.99 C 20.84 98.85 15.19 92.92 13.90 95.14 C 10.47 93.15 13.61 85.72 9.10 89.80 C 8.61 83.07 3.29 88.68 0.00 90.40 L 0.00 71.85 C 0.41 72.09 1.22 72.55 1.62 72.78 C 7.70 76.48 11.91 82.36 17.00 87.17 C 16.80 85.60 14.49 83.45 16.67 82.44 C 10.80 77.99 8.44 71.04 3.67 65.60 C 3.23 60.95 4.46 61.31 7.98 63.23 C 5.63 60.15 3.59 56.80 3.04 52.89 C 4.63 54.34 6.55 55.52 8.80 54.99 Z" />
</g>
<g id="#dcdfe2ff">
<path fill="#dcdfe2" opacity="1.00" d=" M 172.48 45.96 C 178.95 52.56 182.48 61.66 187.78 69.21 C 189.77 71.84 196.74 67.34 197.15 71.05 C 194.04 71.04 190.96 70.90 187.87 71.09 C 188.41 73.82 190.30 75.95 192.06 77.99 C 192.94 79.37 193.78 80.76 194.63 82.16 C 195.67 85.02 198.19 86.52 200.99 87.25 C 200.75 90.44 198.60 93.94 195.03 92.01 C 185.18 80.97 178.75 67.49 170.99 55.01 C 170.47 51.88 167.61 51.68 164.95 51.90 C 162.40 51.91 159.85 51.96 157.31 52.07 C 154.59 52.14 151.23 50.99 149.78 53.85 C 145.12 61.41 141.04 69.31 136.67 77.03 C 133.57 82.17 130.42 87.28 126.67 91.97 C 124.41 94.11 123.92 97.14 123.38 100.09 C 123.26 99.54 123.04 98.44 122.92 97.88 C 122.70 95.29 118.06 96.85 118.69 93.32 C 118.29 89.08 121.27 86.04 124.05 83.27 C 125.80 81.38 127.36 79.32 129.05 77.38 C 134.16 70.84 137.17 62.92 142.20 56.28 C 144.01 53.65 145.52 50.83 147.00 48.00 C 155.15 45.14 164.18 48.51 172.48 45.96 Z" />
</g>
<g id="#c3c6c8ff">
<path fill="#c3c6c8" opacity="1.00" d=" M 64.94 48.11 C 67.93 48.18 70.92 48.38 73.92 48.28 C 74.99 52.69 77.09 47.52 79.18 49.77 C 76.95 56.69 77.51 63.80 78.07 70.90 C 76.09 71.13 72.37 69.95 73.50 73.19 C 66.73 75.26 67.56 68.32 68.16 64.26 C 70.04 61.18 74.36 63.70 77.29 63.60 C 75.25 60.21 69.51 62.00 66.09 60.91 C 65.05 58.10 67.47 52.84 65.02 50.83 C 65.17 57.24 64.13 63.84 65.66 70.15 C 65.32 70.43 64.63 70.99 64.29 71.26 C 64.22 70.47 64.06 68.88 63.98 68.08 C 63.88 61.41 63.83 54.71 64.94 48.11 M 67.01 52.02 C 65.81 57.44 74.10 54.09 77.05 55.74 C 78.92 49.29 70.53 52.82 67.01 52.02 Z" />
</g>
<g id="#9ea9b6ff">
<path fill="#9ea9b6" opacity="1.00" d=" M 73.92 48.28 C 78.60 47.95 83.30 47.97 88.00 47.95 L 87.99 48.94 C 79.13 49.42 88.47 51.61 92.94 51.15 C 93.04 55.10 93.05 59.06 92.98 63.01 C 89.63 63.01 86.29 63.01 82.94 63.03 L 82.02 62.99 C 81.23 58.65 83.93 52.43 79.18 49.77 C 77.09 47.52 74.99 52.69 73.92 48.28 Z" />
</g>
<g id="#7f6c67ff">
<path fill="#7f6c67" opacity="1.00" d=" M 88.00 47.95 C 93.75 47.92 99.52 48.00 105.23 48.71 C 99.49 48.88 93.74 49.00 87.99 48.94 L 88.00 47.95 Z" />
</g>
<g id="#dddedfff">
<path fill="#dddedf" opacity="1.00" d=" M 92.94 51.15 C 88.47 51.61 79.13 49.42 87.99 48.94 C 93.74 49.00 99.49 48.88 105.23 48.71 C 113.56 47.20 108.94 57.93 110.25 62.77 C 113.96 72.95 105.96 72.35 99.03 71.96 C 98.87 69.30 98.89 66.64 99.07 63.98 C 101.08 61.58 109.48 67.66 108.03 62.03 C 108.05 60.01 108.04 58.00 108.03 55.98 C 108.06 54.71 108.06 53.43 108.03 52.16 C 106.25 50.54 93.65 48.24 97.62 55.17 L 97.82 56.07 C 97.95 58.05 98.01 60.02 98.07 62.00 C 98.00 66.48 99.92 74.45 93.16 71.45 C 93.07 69.30 93.02 67.16 92.97 65.01 C 92.98 64.51 92.98 63.51 92.98 63.01 C 93.05 59.06 93.04 55.10 92.94 51.15 Z" />
</g>
<g id="#edf1f5ff">
<path fill="#edf1f5" opacity="1.00" d=" M 79.18 49.77 C 83.93 52.43 81.23 58.65 82.02 62.99 C 81.95 65.77 81.86 68.56 81.75 71.35 C 80.52 71.18 79.30 71.03 78.07 70.90 C 77.51 63.80 76.95 56.69 79.18 49.77 Z" />
</g>
<g id="#babec8ff">
<path fill="#babec8" opacity="1.00" d=" M 0.00 50.44 C 1.04 51.22 2.06 52.02 3.04 52.89 C 3.59 56.80 5.63 60.15 7.98 63.23 C 4.46 61.31 3.23 60.95 3.67 65.60 C 3.18 68.78 5.65 71.38 6.88 74.12 C 5.19 73.50 3.52 71.89 1.62 72.78 C 1.22 72.55 0.41 72.09 0.00 71.85 L 0.00 50.44 Z" />
</g>
<g id="#e9ecefff">
<path fill="#e9ecef" opacity="1.00" d=" M 65.02 50.83 C 67.47 52.84 65.05 58.10 66.09 60.91 C 65.99 63.99 66.03 67.09 65.66 70.15 C 64.13 63.84 65.17 57.24 65.02 50.83 Z" />
</g>
<g id="#a9adb3ff">
<path fill="#a9adb3" opacity="1.00" d=" M 97.62 55.17 C 93.65 48.24 106.25 50.54 108.03 52.16 C 104.94 54.75 97.22 49.72 97.62 55.17 Z" />
</g>
<g id="#7c808aff">
<path fill="#7c808a" opacity="1.00" d=" M 14.41 56.54 C 17.21 58.19 13.38 52.26 16.76 51.85 C 17.25 55.35 17.50 58.89 18.21 62.36 C 18.22 64.17 17.27 63.77 16.20 62.95 C 15.93 60.28 8.84 53.05 14.41 56.54 Z" />
</g>
<g id="#8897a6ff">
<path fill="#8897a6" opacity="1.00" d=" M 67.01 52.02 C 70.53 52.82 78.92 49.29 77.05 55.74 C 74.10 54.09 65.81 57.44 67.01 52.02 Z" />
</g>
<g id="#747a7fff">
<path fill="#747a7f" opacity="1.00" d=" M 97.62 55.17 C 97.22 49.72 104.94 54.75 108.03 52.16 C 108.06 53.43 108.06 54.71 108.03 55.98 C 104.62 56.00 101.22 56.02 97.82 56.07 L 97.62 55.17 Z" />
</g>
<g id="#9a7f76ff">
<path fill="#9a7f76" opacity="1.00" d=" M 149.78 53.85 C 151.23 50.99 154.59 52.14 157.31 52.07 C 155.83 54.55 151.61 56.90 149.78 53.85 Z" />
</g>
<g id="#6e4e46ff">
<path fill="#6e4e46" opacity="1.00" d=" M 157.31 52.07 C 159.85 51.96 162.40 51.91 164.95 51.90 C 162.38 55.71 168.84 54.39 170.99 55.01 C 178.75 67.49 185.18 80.97 195.03 92.01 C 198.81 96.34 197.63 102.75 198.06 108.13 C 198.07 109.45 198.12 110.75 198.23 112.06 C 198.45 114.67 198.74 117.28 198.98 119.89 C 196.27 118.96 194.09 120.12 192.43 122.26 C 191.05 121.29 190.88 119.54 190.42 118.06 L 190.44 117.23 C 190.91 112.16 191.09 107.09 191.00 102.01 C 185.70 99.66 182.01 104.48 177.07 103.90 C 178.02 90.44 161.49 82.01 151.00 89.92 C 149.02 90.15 147.06 90.44 145.08 90.58 C 142.31 87.63 144.69 82.22 141.25 79.73 C 139.88 78.51 137.32 79.04 136.67 77.03 C 141.04 69.31 145.12 61.41 149.78 53.85 C 151.61 56.90 155.83 54.55 157.31 52.07 M 161.16 84.16 C 160.16 88.80 165.80 83.16 161.16 84.16 Z" />
</g>
<g id="#978078ff">
<path fill="#978078" opacity="1.00" d=" M 164.95 51.90 C 167.61 51.68 170.47 51.88 170.99 55.01 C 168.84 54.39 162.38 55.71 164.95 51.90 Z" />
</g>
<g id="#9599a4ff">
<path fill="#9599a4" opacity="1.00" d=" M 28.04 53.72 C 32.34 58.48 32.17 64.98 32.87 71.00 C 31.91 70.82 30.94 70.63 29.97 70.45 C 31.72 68.51 29.34 66.33 28.89 64.30 C 34.99 65.63 23.68 56.70 28.04 53.72 Z" />
</g>
<g id="#a4b2bbff">
<path fill="#a4b2bb" opacity="1.00" d=" M 236.32 55.35 C 241.09 55.03 234.27 59.50 231.86 58.01 C 232.53 56.12 234.65 55.85 236.32 55.35 Z" />
</g>
<g id="#c0c1c3ff">
<path fill="#c0c1c3" opacity="1.00" d=" M 97.82 56.07 C 101.22 56.02 104.62 56.00 108.03 55.98 C 108.04 58.00 108.05 60.01 108.03 62.03 C 104.70 62.01 101.39 62.01 98.07 62.00 C 98.01 60.02 97.95 58.05 97.82 56.07 Z" />
</g>
<g id="#b7c2c9ff">
<path fill="#b7c2c9" opacity="1.00" d=" M 229.35 61.12 C 236.37 60.41 243.09 58.04 250.00 56.72 L 250.00 63.46 C 246.52 64.85 244.84 67.92 245.94 71.85 C 243.95 72.13 241.98 72.47 240.00 72.79 C 238.61 69.35 236.46 64.00 231.49 66.37 C 227.34 71.14 218.72 69.72 216.85 76.75 C 221.64 77.94 228.69 76.71 231.18 82.14 C 224.51 81.58 218.39 78.39 211.74 77.43 C 216.84 76.79 209.80 72.53 210.00 76.87 C 206.11 75.94 205.46 73.62 209.51 72.23 C 216.07 67.54 222.94 63.30 229.59 58.74 C 229.53 59.34 229.41 60.53 229.35 61.12 Z" />
</g>
<g id="#a2a5afff">
<path fill="#a2a5af" opacity="1.00" d=" M 18.21 62.36 C 21.48 62.66 21.88 56.05 23.92 59.54 C 22.17 63.23 22.52 67.36 22.97 71.29 C 22.38 76.24 20.89 65.67 17.44 70.05 C 14.35 68.64 15.48 65.51 16.20 62.95 C 17.27 63.77 18.22 64.17 18.21 62.36 Z" />
</g>
<g id="#9ca4aaff">
<path fill="#9ca4aa" opacity="1.00" d=" M 217.80 61.89 C 219.27 60.36 221.32 59.77 223.26 59.08 C 222.66 61.92 220.34 62.27 217.80 61.89 Z" />
</g>
<g id="#71737eff">
<path fill="#71737e" opacity="1.00" d=" M 22.97 71.29 C 22.52 67.36 22.17 63.23 23.92 59.54 C 27.53 62.27 21.13 69.63 26.20 70.27 C 25.12 70.61 24.04 70.95 22.97 71.29 Z" />
</g>
<g id="#a49f9aff">
<path fill="#a49f9a" opacity="1.00" d=" M 66.09 60.91 C 69.51 62.00 75.25 60.21 77.29 63.60 C 74.36 63.70 70.04 61.18 68.16 64.26 C 67.56 68.32 66.73 75.26 73.50 73.19 C 72.37 69.95 76.09 71.13 78.07 70.90 C 79.30 71.03 80.52 71.18 81.75 71.35 C 85.51 72.11 89.36 71.52 93.16 71.45 C 99.92 74.45 98.00 66.48 98.07 62.00 C 101.39 62.01 104.70 62.01 108.03 62.03 C 109.48 67.66 101.08 61.58 99.07 63.98 C 98.89 66.64 98.87 69.30 99.03 71.96 C 105.96 72.35 113.96 72.95 110.25 62.77 C 110.72 66.54 111.36 70.29 111.76 74.07 C 95.29 73.86 78.81 74.30 62.35 73.80 C 59.60 72.19 62.66 71.88 64.29 71.26 C 64.63 70.99 65.32 70.43 65.66 70.15 C 66.03 67.09 65.99 63.99 66.09 60.91 Z" />
</g>
<g id="#9fa8b4ff">
<path fill="#9fa8b4" opacity="1.00" d=" M 35.10 62.06 C 41.62 62.19 30.59 72.51 37.15 71.31 C 42.03 70.67 37.45 76.53 38.62 79.18 C 37.23 80.09 36.73 79.53 36.97 77.88 C 37.51 75.00 35.58 73.04 33.69 71.22 C 34.11 68.16 34.62 65.11 35.10 62.06 Z" />
</g>
<g id="#828391ff">
<path fill="#828391" opacity="1.00" d=" M 82.02 62.99 L 82.94 63.03 C 82.25 68.61 89.68 62.33 92.97 65.01 C 93.02 67.16 93.07 69.30 93.16 71.45 C 89.36 71.52 85.51 72.11 81.75 71.35 C 81.86 68.56 81.95 65.77 82.02 62.99 Z" />
</g>
<g id="#434750ff">
<path fill="#434750" opacity="1.00" d=" M 82.94 63.03 C 86.29 63.01 89.63 63.01 92.98 63.01 C 92.98 63.51 92.98 64.51 92.97 65.01 C 89.68 62.33 82.25 68.61 82.94 63.03 Z" />
</g>
<g id="#d1dce4ff">
<path fill="#d1dce4" opacity="1.00" d=" M 245.94 71.85 C 244.84 67.92 246.52 64.85 250.00 63.46 L 250.00 85.00 C 243.84 83.39 237.39 83.50 231.18 82.14 C 228.69 76.71 221.64 77.94 216.85 76.75 C 218.72 69.72 227.34 71.14 231.49 66.37 C 236.46 64.00 238.61 69.35 240.00 72.79 C 239.49 73.16 238.48 73.90 237.97 74.27 C 234.39 81.62 250.46 80.14 246.38 73.74 C 246.27 73.26 246.05 72.32 245.94 71.85 Z" />
</g>
<g id="#858992ff">
<path fill="#858992" opacity="1.00" d=" M 6.88 74.12 C 5.65 71.38 3.18 68.78 3.67 65.60 C 8.44 71.04 10.80 77.99 16.67 82.44 C 14.49 83.45 16.80 85.60 17.00 87.17 C 11.91 82.36 7.70 76.48 1.62 72.78 C 3.52 71.89 5.19 73.50 6.88 74.12 Z" />
</g>
<g id="#434556ff">
<path fill="#434556" opacity="1.00" d=" M 17.44 70.05 C 20.89 65.67 22.38 76.24 22.97 71.29 C 24.04 70.95 25.12 70.61 26.20 70.27 C 27.46 70.30 28.72 70.36 29.97 70.45 C 30.94 70.63 31.91 70.82 32.87 71.00 L 33.69 71.22 C 35.58 73.04 37.51 75.00 36.97 77.88 C 35.10 80.42 31.79 82.99 29.08 80.00 C 26.68 78.92 21.87 73.34 22.88 79.12 L 22.00 78.82 C 21.78 75.34 20.39 72.07 17.44 70.05 Z" />
</g>
<g id="#9aa0a7ff">
<path fill="#9aa0a7" opacity="1.00" d=" M 187.87 71.09 C 190.96 70.90 194.04 71.04 197.15 71.05 C 196.07 71.90 194.89 72.60 193.73 73.31 C 188.82 71.49 191.20 75.06 192.06 77.99 C 190.30 75.95 188.41 73.82 187.87 71.09 Z" />
</g>
<g id="#5e717eff">
<path fill="#5e717e" opacity="1.00" d=" M 240.00 72.79 C 241.98 72.47 243.95 72.13 245.94 71.85 C 246.05 72.32 246.27 73.26 246.38 73.74 C 246.27 74.59 246.05 76.30 245.95 77.15 C 245.00 73.29 241.03 74.55 237.97 74.27 C 238.48 73.90 239.49 73.16 240.00 72.79 Z" />
</g>
<g id="#d0d6dcff">
<path fill="#d0d6dc" opacity="1.00" d=" M 192.06 77.99 C 191.20 75.06 188.82 71.49 193.73 73.31 C 194.45 74.10 195.20 74.87 195.97 75.62 C 195.78 75.91 195.41 76.49 195.22 76.78 C 204.91 79.18 214.03 84.05 224.04 85.02 C 228.85 87.16 233.86 88.80 238.88 90.34 C 239.56 92.52 237.64 93.29 236.00 93.98 C 231.49 97.35 231.65 90.88 227.92 90.10 C 216.00 85.97 204.15 81.59 192.06 77.99 Z" />
</g>
<g id="#8fa2afff">
<path fill="#8fa2af" opacity="1.00" d=" M 237.97 74.27 C 241.03 74.55 245.00 73.29 245.95 77.15 C 246.05 76.30 246.27 74.59 246.38 73.74 C 250.46 80.14 234.39 81.62 237.97 74.27 Z" />
</g>
<g id="#7b4d3bff">
<path fill="#7b4d3b" opacity="1.00" d=" M 48.97 76.12 C 55.08 74.65 61.99 74.53 67.05 78.93 C 72.12 82.85 77.94 76.22 83.59 77.25 C 84.46 79.18 85.75 82.44 88.29 80.30 C 92.78 76.33 99.91 77.62 103.05 82.65 C 99.62 81.83 98.76 86.59 102.10 87.01 C 107.64 88.02 107.59 80.21 108.32 76.87 C 113.69 76.66 109.85 85.99 117.20 81.95 C 117.15 79.26 114.90 78.85 112.78 79.59 C 113.61 73.50 119.57 74.44 121.85 79.56 C 118.06 80.47 122.77 82.20 124.05 83.27 C 121.27 86.04 118.29 89.08 118.69 93.32 L 118.32 92.68 C 117.48 89.88 113.90 90.64 111.54 90.49 C 95.51 92.72 79.37 90.56 63.27 90.68 C 54.54 92.00 49.08 84.08 48.97 76.12 Z" />
</g>
<g id="#4a5561ff">
<path fill="#4a5561" opacity="1.00" d=" M 210.00 76.87 C 209.80 72.53 216.84 76.79 211.74 77.43 C 211.31 77.29 210.44 77.01 210.00 76.87 Z" />
</g>
<g id="#afafb7ff">
<path fill="#afafb7" opacity="1.00" d=" M 22.88 79.12 C 21.87 73.34 26.68 78.92 29.08 80.00 C 29.54 83.49 27.63 88.83 33.10 89.42 C 32.24 93.18 26.94 90.95 25.12 88.96 C 24.95 85.57 24.11 82.27 22.88 79.12 Z" />
</g>
<g id="#afb7c0ff">
<path fill="#afb7c0" opacity="1.00" d=" M 195.22 76.78 C 195.41 76.49 195.78 75.91 195.97 75.62 C 205.01 79.53 215.52 80.15 224.04 85.02 C 214.03 84.05 204.91 79.18 195.22 76.78 Z" />
</g>
<g id="#805444ff">
<path fill="#805444" opacity="1.00" d=" M 126.67 91.97 C 130.42 87.28 133.57 82.17 136.67 77.03 C 137.32 79.04 139.88 78.51 141.25 79.73 C 144.69 82.22 142.31 87.63 145.08 90.58 C 147.06 90.44 149.02 90.15 151.00 89.92 C 148.64 92.05 146.66 94.66 145.78 97.75 C 144.69 103.46 144.99 109.29 144.88 115.06 C 138.07 116.71 146.31 110.38 139.10 111.91 C 142.05 103.27 136.61 101.90 130.05 103.09 C 129.94 108.39 129.96 113.68 130.10 118.97 C 127.89 116.95 118.78 114.67 124.40 111.70 C 123.16 108.72 124.50 105.53 123.97 102.45 C 122.68 95.77 129.34 98.03 132.81 95.71 C 132.85 92.96 128.64 93.19 126.67 91.97 Z" />
</g>
<g id="#7e7f85ff">
<path fill="#7e7f85" opacity="1.00" d=" M 29.08 80.00 C 31.79 82.99 35.10 80.42 36.97 77.88 C 36.73 79.53 37.23 80.09 38.62 79.18 C 39.79 83.11 31.90 88.12 38.70 87.83 C 39.08 88.34 39.84 89.35 40.23 89.85 C 37.85 89.73 35.47 89.58 33.10 89.42 C 27.63 88.83 29.54 83.49 29.08 80.00 Z" />
</g>
<g id="#797764ff">
<path fill="#797764" opacity="1.00" d=" M 192.06 77.99 C 204.15 81.59 216.00 85.97 227.92 90.10 C 231.65 90.88 231.49 97.35 236.00 93.98 C 238.85 93.17 237.11 96.14 236.95 97.64 C 235.59 97.02 234.19 96.48 232.68 96.86 C 231.23 96.91 229.79 96.92 228.36 96.93 C 228.12 94.02 221.86 95.85 225.81 93.29 C 215.57 91.72 207.81 84.96 198.12 81.68 C 196.94 80.94 195.76 81.77 194.63 82.16 C 193.78 80.76 192.94 79.37 192.06 77.99 Z" />
</g>
<g id="#685f5eff">
<path fill="#685f5e" opacity="1.00" d=" M 22.00 78.82 L 22.88 79.12 C 24.11 82.27 24.95 85.57 25.12 88.96 C 25.24 90.10 25.39 91.24 25.56 92.37 C 25.70 95.63 26.22 98.86 26.38 102.13 C 29.10 100.20 29.51 95.90 33.11 94.72 C 33.38 95.32 33.92 96.53 34.19 97.13 C 31.71 98.39 28.15 99.53 28.97 103.08 C 28.95 103.48 28.89 104.30 28.87 104.70 C 28.71 105.27 28.41 106.41 28.26 106.98 C 27.87 110.32 27.78 113.75 28.69 117.02 C 28.74 121.62 30.24 125.93 31.80 130.19 C 32.86 134.34 32.55 138.58 32.16 142.80 L 31.30 142.83 C 28.33 140.29 24.34 139.53 20.79 138.12 C 22.99 136.23 25.24 134.36 27.03 132.06 C 28.11 127.84 27.65 120.27 22.05 120.69 C 22.14 118.42 25.85 119.02 25.25 116.14 C 25.85 113.08 26.30 109.90 25.22 106.91 C 25.47 102.00 23.11 97.78 21.33 93.40 L 21.03 92.68 C 23.80 91.76 24.68 89.32 23.34 86.76 C 22.51 84.19 21.96 81.54 22.00 78.82 Z" />
</g>
<g id="#adac96ff">
<path fill="#adac96" opacity="1.00" d=" M 194.63 82.16 C 195.76 81.77 196.94 80.94 198.12 81.68 C 202.72 85.55 207.42 89.30 212.77 92.08 C 213.90 95.49 218.91 91.25 215.07 96.10 C 219.80 93.66 225.54 97.46 219.09 100.21 C 212.36 103.55 204.94 105.14 198.06 108.13 C 197.63 102.75 198.81 96.34 195.03 92.01 C 198.60 93.94 200.75 90.44 200.99 87.25 C 198.19 86.52 195.67 85.02 194.63 82.16 Z" />
</g>
<g id="#9e9a81ff">
<path fill="#9e9a81" opacity="1.00" d=" M 198.12 81.68 C 207.81 84.96 215.57 91.72 225.81 93.29 C 221.86 95.85 228.12 94.02 228.36 96.93 C 225.30 98.12 222.25 99.33 219.09 100.21 C 225.54 97.46 219.80 93.66 215.07 96.10 C 218.91 91.25 213.90 95.49 212.77 92.08 C 207.42 89.30 202.72 85.55 198.12 81.68 Z" />
</g>
<g id="#bbb1b3ff">
<path fill="#bbb1b3" opacity="1.00" d=" M 161.16 84.16 C 165.80 83.16 160.16 88.80 161.16 84.16 Z" />
</g>
<g id="#adb3b5ff">
<path fill="#adb3b5" opacity="1.00" d=" M 224.04 85.02 C 233.23 85.01 240.65 92.29 250.00 91.05 L 250.00 92.65 C 243.48 92.41 250.12 97.44 244.87 97.76 C 241.64 98.91 238.35 99.87 235.15 101.08 C 233.72 100.06 233.02 98.53 232.68 96.86 C 234.19 96.48 235.59 97.02 236.95 97.64 C 237.11 96.14 238.85 93.17 236.00 93.98 C 237.64 93.29 239.56 92.52 238.88 90.34 C 233.86 88.80 228.85 87.16 224.04 85.02 Z" />
</g>
<g id="#c1c5cfff">
<path fill="#c1c5cf" opacity="1.00" d=" M 0.00 90.40 C 3.29 88.68 8.61 83.07 9.10 89.80 C 13.61 85.72 10.47 93.15 13.90 95.14 C 11.27 99.93 9.95 93.40 9.59 90.85 C 8.21 93.35 8.67 96.36 8.21 99.09 C 7.93 99.36 7.39 99.92 7.11 100.20 C 3.23 99.31 0.61 96.59 0.00 92.63 L 0.00 90.40 Z" />
</g>
<g id="#babebaff">
<path fill="#babeba" opacity="1.00" d=" M 38.70 87.83 C 39.31 87.14 39.94 86.48 40.59 85.83 C 40.97 86.07 41.73 86.56 42.10 86.80 C 46.24 87.52 53.94 85.41 51.07 93.01 C 53.89 98.30 48.55 98.75 45.69 100.26 C 44.07 100.58 42.45 100.96 40.83 101.33 C 36.99 96.17 46.15 98.64 44.95 94.32 C 43.44 94.01 40.41 93.39 38.90 93.08 C 41.37 92.06 47.63 94.15 47.03 90.14 C 45.33 90.07 41.93 89.93 40.23 89.85 C 39.84 89.35 39.08 88.34 38.70 87.83 Z" />
</g>
<g id="#84858bff">
<path fill="#84858b" opacity="1.00" d=" M 18.02 88.11 C 21.39 85.02 23.67 93.47 23.34 86.76 C 24.68 89.32 23.80 91.76 21.03 92.68 C 19.91 91.24 18.80 89.77 18.02 88.11 Z" />
</g>
<g id="#e2e6ecff">
<path fill="#e2e6ec" opacity="1.00" d=" M 151.00 89.92 C 161.49 82.01 178.02 90.44 177.07 103.90 C 173.62 104.25 173.47 106.61 176.93 107.15 C 177.77 117.08 175.52 129.71 178.02 138.02 C 181.24 138.17 184.45 137.70 187.27 136.10 C 200.49 146.25 210.68 159.79 223.92 169.94 C 224.71 170.59 225.49 171.25 226.26 171.93 C 226.43 173.42 226.76 176.40 226.92 177.89 C 228.86 178.31 227.52 175.04 228.02 173.94 C 232.82 173.86 242.45 178.64 238.71 169.30 C 238.90 163.53 238.98 157.76 238.97 151.99 L 239.78 151.73 C 242.54 151.80 245.32 151.87 248.09 151.95 C 248.57 151.98 249.52 152.04 250.00 152.07 L 250.00 188.00 L 206.66 188.00 C 203.98 185.36 195.88 180.52 200.87 187.16 C 193.77 186.47 185.57 181.25 178.84 185.72 C 177.71 184.49 177.47 182.69 176.82 181.20 C 188.12 183.00 198.91 177.89 210.00 178.95 C 212.15 180.57 215.44 181.71 217.16 179.18 C 219.72 177.32 226.22 171.79 219.23 172.74 C 215.43 172.37 211.63 172.17 207.82 172.15 C 207.32 171.89 206.33 171.37 205.84 171.11 C 205.10 170.36 204.36 169.61 203.62 168.87 C 205.73 166.18 211.90 167.63 211.02 163.17 C 204.75 162.22 198.42 161.75 192.21 163.24 C 189.25 161.59 184.22 164.11 182.61 161.09 C 184.73 160.91 186.85 160.71 188.96 160.44 C 190.69 160.76 192.44 160.98 194.20 161.02 C 197.94 160.11 201.24 157.55 205.28 156.89 C 208.77 152.79 197.00 155.78 194.74 155.64 C 193.44 155.79 192.15 155.94 190.86 156.09 C 187.82 156.00 184.82 155.90 181.79 155.82 C 182.58 155.12 183.37 154.42 184.17 153.73 C 189.10 155.00 192.62 151.04 197.18 151.80 C 201.35 147.70 192.53 147.04 188.72 148.69 C 183.38 148.92 178.03 149.18 172.70 148.80 L 171.73 148.72 C 175.65 146.56 180.10 148.34 184.27 147.47 C 186.93 146.75 192.05 147.18 191.06 143.08 C 188.05 142.98 185.12 142.90 182.14 143.02 C 174.11 143.33 166.08 143.64 158.06 144.13 C 157.95 149.93 171.45 142.70 172.96 146.93 C 165.55 146.48 158.23 148.24 150.85 147.87 C 153.27 146.52 155.56 144.96 157.56 143.04 C 163.09 142.53 168.62 142.13 174.17 141.85 C 173.05 141.22 171.90 140.64 170.76 140.04 C 170.84 139.53 170.98 138.52 171.05 138.01 C 171.67 134.14 172.26 130.21 171.76 126.29 C 171.60 121.43 172.79 116.36 171.26 111.63 L 171.09 110.71 C 173.31 102.27 168.22 89.31 157.63 92.58 C 146.34 95.93 150.68 109.19 150.02 117.96 C 144.35 122.22 153.74 134.43 147.04 137.50 C 146.95 134.25 147.32 130.95 146.28 127.83 L 146.09 127.05 C 145.97 124.11 145.95 121.19 145.79 118.26 C 145.96 111.42 146.11 104.58 145.78 97.75 C 146.66 94.66 148.64 92.05 151.00 89.92 M 214.95 183.97 C 215.93 186.78 221.48 185.30 224.14 186.01 C 222.86 182.10 217.51 185.06 214.95 183.97 Z" />
</g>
<g id="#dadde1ff">
<path fill="#dadde1" opacity="1.00" d=" M 25.12 88.96 C 26.94 90.95 32.24 93.18 33.10 89.42 C 35.47 89.58 37.85 89.73 40.23 89.85 C 41.93 89.93 45.33 90.07 47.03 90.14 C 47.63 94.15 41.37 92.06 38.90 93.08 C 36.07 91.83 34.62 94.83 34.19 97.13 C 33.92 96.53 33.38 95.32 33.11 94.72 C 32.37 91.32 27.61 94.76 25.56 92.37 C 25.39 91.24 25.24 90.10 25.12 88.96 Z" />
</g>
<g id="#4c332aff">
<path fill="#4c332a" opacity="1.00" d=" M 111.54 90.49 C 113.90 90.64 117.48 89.88 118.32 92.68 C 98.23 94.54 77.52 92.48 57.19 93.15 C 48.92 92.56 60.09 88.58 63.27 90.68 C 79.37 90.56 95.51 92.72 111.54 90.49 Z" />
</g>
<g id="#9a969aff">
<path fill="#9a969a" opacity="1.00" d=" M 8.21 99.09 C 8.67 96.36 8.21 93.35 9.59 90.85 C 9.95 93.40 11.27 99.93 13.90 95.14 C 15.19 92.92 20.84 98.85 17.98 93.99 C 15.42 90.76 19.51 92.99 21.33 93.40 C 23.11 97.78 25.47 102.00 25.22 106.91 C 20.94 107.74 16.48 108.41 12.13 107.81 C 10.42 105.25 12.25 95.92 8.21 99.09 Z" />
</g>
<g id="#959092ff">
<path fill="#959092" opacity="1.00" d=" M 25.56 92.37 C 27.61 94.76 32.37 91.32 33.11 94.72 C 29.51 95.90 29.10 100.20 26.38 102.13 C 26.22 98.86 25.70 95.63 25.56 92.37 Z" />
</g>
<g id="#97928dff">
<path fill="#97928d" opacity="1.00" d=" M 34.19 97.13 C 34.62 94.83 36.07 91.83 38.90 93.08 C 40.41 93.39 43.44 94.01 44.95 94.32 C 46.15 98.64 36.99 96.17 40.83 101.33 C 39.45 103.74 37.59 106.08 37.80 109.03 C 39.72 109.26 38.21 105.26 40.27 106.63 C 42.86 112.26 38.42 111.37 39.01 115.88 C 37.37 114.59 36.49 112.67 35.38 110.96 C 34.44 107.30 34.17 101.92 28.97 103.08 C 28.15 99.53 31.71 98.39 34.19 97.13 Z" />
</g>
<g id="#a98365ff">
<path fill="#a98365" opacity="1.00" d=" M 123.38 100.09 C 123.92 97.14 124.41 94.11 126.67 91.97 C 128.64 93.19 132.85 92.96 132.81 95.71 C 129.34 98.03 122.68 95.77 123.97 102.45 C 123.82 101.86 123.53 100.68 123.38 100.09 Z" />
</g>
<g id="#50565cff">
<path fill="#50565c" opacity="1.00" d=" M 157.63 92.58 C 168.22 89.31 173.31 102.27 171.09 110.71 C 170.41 111.53 169.73 112.35 169.06 113.17 C 171.51 105.27 166.82 90.85 156.13 95.88 C 149.45 98.88 152.60 107.11 151.98 113.01 C 151.91 113.47 151.78 114.40 151.72 114.87 C 151.17 115.91 150.60 116.94 150.02 117.96 C 150.68 109.19 146.34 95.93 157.63 92.58 Z" />
</g>
<g id="#989ca3ff">
<path fill="#989ca3" opacity="1.00" d=" M 0.00 92.63 C 0.61 96.59 3.23 99.31 7.11 100.20 C 3.59 100.09 5.19 106.57 2.52 103.38 C 1.62 103.87 0.82 104.50 0.00 105.10 L 0.00 92.63 Z" />
</g>
<g id="#784e3fff">
<path fill="#784e3f" opacity="1.00" d=" M 57.19 93.15 C 77.52 92.48 98.23 94.54 118.32 92.68 C 117.88 94.43 117.38 96.17 116.88 97.91 C 108.88 102.46 113.31 112.49 111.47 120.15 C 110.98 113.67 111.22 107.17 110.83 100.69 C 97.10 98.99 80.02 100.45 65.01 100.03 C 62.65 104.16 64.53 112.12 63.82 117.85 C 63.20 124.66 49.20 117.16 54.87 125.24 C 51.76 122.54 48.43 126.03 45.09 123.76 C 43.69 119.34 49.02 121.03 51.24 119.33 C 47.13 117.12 43.87 120.11 40.12 121.21 C 41.19 119.21 41.20 117.07 39.01 115.88 C 38.42 111.37 42.86 112.26 40.27 106.63 C 43.14 104.34 48.46 104.73 50.00 101.06 C 51.97 99.14 54.55 97.89 57.34 98.47 C 54.10 97.23 52.61 93.66 57.19 93.15 Z" />
</g>
<g id="#aca6a8ff">
<path fill="#aca6a8" opacity="1.00" d=" M 118.32 92.68 L 118.69 93.32 C 118.06 96.85 122.70 95.29 122.92 97.88 C 116.62 106.86 121.94 119.28 121.09 129.60 C 120.02 130.24 119.08 131.38 117.73 131.31 C 120.46 120.27 118.49 108.95 116.88 97.91 C 117.38 96.17 117.88 94.43 118.32 92.68 Z" />
</g>
<g id="#777973ff">
<path fill="#777973" opacity="1.00" d=" M 244.87 97.76 C 250.12 97.44 243.48 92.41 250.00 92.65 L 250.00 102.63 C 247.42 101.41 248.61 97.04 244.87 97.76 Z" />
</g>
<g id="#b0b4b5ff">
<path fill="#b0b4b5" opacity="1.00" d=" M 156.13 95.88 C 166.82 90.85 171.51 105.27 169.06 113.17 C 168.31 113.13 166.81 113.04 166.06 113.00 C 165.60 107.90 166.31 102.49 164.34 97.64 C 164.85 115.74 159.79 83.93 161.32 100.93 C 161.69 104.94 161.20 108.95 160.98 112.96 L 160.01 112.96 C 159.73 107.74 159.10 102.50 159.61 97.28 C 156.99 92.82 158.40 100.52 157.97 102.93 C 154.91 103.35 157.18 97.83 156.13 95.88 Z" />
</g>
<g id="#c8cdcbff">
<path fill="#c8cdcb" opacity="1.00" d=" M 151.98 113.01 C 152.60 107.11 149.45 98.88 156.13 95.88 C 157.18 97.83 154.91 103.35 157.97 102.93 C 158.40 100.52 156.99 92.82 159.61 97.28 C 159.10 102.50 159.73 107.74 160.01 112.96 C 157.33 112.98 154.65 113.00 151.98 113.01 M 154.31 103.34 C 153.76 105.14 153.19 108.51 154.69 109.66 C 155.23 107.86 155.80 104.49 154.31 103.34 Z" />
</g>
<g id="#d3d6d4ff">
<path fill="#d3d6d4" opacity="1.00" d=" M 161.32 100.93 C 159.79 83.93 164.85 115.74 164.34 97.64 C 166.31 102.49 165.60 107.90 166.06 113.00 C 164.37 112.99 162.67 112.99 160.98 112.96 C 161.20 108.95 161.69 104.94 161.32 100.93 Z" />
</g>
<g id="#ccd3d6ff">
<path fill="#ccd3d6" opacity="1.00" d=" M 219.09 100.21 C 222.25 99.33 225.30 98.12 228.36 96.93 C 229.79 96.92 231.23 96.91 232.68 96.86 C 233.02 98.53 233.72 100.06 235.15 101.08 C 234.84 101.23 234.23 101.54 233.92 101.70 C 233.00 102.01 232.08 102.32 231.17 102.64 C 227.39 103.67 223.53 104.38 219.83 105.68 C 216.92 106.75 214.01 107.86 211.08 108.88 C 206.72 109.66 202.68 111.72 198.23 112.06 C 198.12 110.75 198.07 109.45 198.06 108.13 C 204.94 105.14 212.36 103.55 219.09 100.21 Z" />
</g>
<g id="#777475ff">
<path fill="#777475" opacity="1.00" d=" M 8.21 99.09 C 12.25 95.92 10.42 105.25 12.13 107.81 C 7.83 107.82 11.54 111.60 11.17 113.84 C 9.79 115.80 8.96 118.83 6.19 119.17 C 7.20 115.95 7.14 113.03 3.10 112.80 C 6.35 117.30 3.08 115.52 0.00 113.72 L 0.00 105.10 C 0.82 104.50 1.62 103.87 2.52 103.38 C 5.19 106.57 3.59 100.09 7.11 100.20 C 7.39 99.92 7.93 99.36 8.21 99.09 Z" />
</g>
<g id="#4b3431ff">
<path fill="#4b3431" opacity="1.00" d=" M 111.47 120.15 C 113.31 112.49 108.88 102.46 116.88 97.91 C 118.49 108.95 120.46 120.27 117.73 131.31 C 116.37 133.29 112.44 137.04 111.08 133.21 C 114.41 129.87 111.73 124.97 111.47 120.86 L 111.47 120.15 Z" />
</g>
<g id="#5e443dff">
<path fill="#5e443d" opacity="1.00" d=" M 121.09 129.60 C 121.94 119.28 116.62 106.86 122.92 97.88 C 123.04 98.44 123.26 99.54 123.38 100.09 C 123.53 100.68 123.82 101.86 123.97 102.45 C 124.50 105.53 123.16 108.72 124.40 111.70 C 118.78 114.67 127.89 116.95 130.10 118.97 C 122.78 123.22 138.79 124.34 137.09 119.07 C 137.70 118.41 138.29 117.73 138.87 117.03 C 139.05 115.33 139.06 113.62 139.10 111.91 C 146.31 110.38 138.07 116.71 144.88 115.06 C 145.18 116.13 145.48 117.19 145.79 118.26 C 145.95 121.19 145.97 124.11 146.09 127.05 C 141.79 126.55 134.84 120.36 136.31 129.28 C 131.11 129.93 121.58 137.83 121.09 129.60 Z" />
</g>
<g id="#a28e85ff">
<path fill="#a28e85" opacity="1.00" d=" M 144.88 115.06 C 144.99 109.29 144.69 103.46 145.78 97.75 C 146.11 104.58 145.96 111.42 145.79 118.26 C 145.48 117.19 145.18 116.13 144.88 115.06 Z" />
</g>
<g id="#654639ff">
<path fill="#654639" opacity="1.00" d=" M 235.15 101.08 C 238.35 99.87 241.64 98.91 244.87 97.76 C 248.61 97.04 247.42 101.41 250.00 102.63 L 250.00 115.15 C 246.17 112.19 241.49 110.03 239.43 105.38 C 239.02 103.84 236.84 106.16 237.25 107.03 C 238.40 111.98 232.94 118.33 238.72 121.41 C 238.39 125.33 234.47 129.11 238.54 132.42 C 241.14 136.36 234.36 129.54 236.45 133.77 C 236.13 134.11 235.50 134.78 235.18 135.12 C 234.35 124.30 236.31 113.12 233.95 102.52 L 233.92 101.70 C 234.23 101.54 234.84 101.23 235.15 101.08 Z" />
</g>
<g id="#986e56ff">
<path fill="#986e56" opacity="1.00" d=" M 40.83 101.33 C 42.45 100.96 44.07 100.58 45.69 100.26 C 47.12 100.56 48.56 100.83 50.00 101.06 C 48.46 104.73 43.14 104.34 40.27 106.63 C 38.21 105.26 39.72 109.26 37.80 109.03 C 37.59 106.08 39.45 103.74 40.83 101.33 Z" />
</g>
<g id="#958480ff">
<path fill="#958480" opacity="1.00" d=" M 63.82 117.85 C 64.53 112.12 62.65 104.16 65.01 100.03 L 65.03 101.00 C 65.01 107.77 65.01 114.54 64.89 121.32 C 64.50 120.17 64.14 119.01 63.82 117.85 Z" />
</g>
<g id="#b6afafff">
<path fill="#b6afaf" opacity="1.00" d=" M 65.01 100.03 C 80.02 100.45 97.10 98.99 110.83 100.69 C 110.01 101.29 109.32 102.01 108.76 102.86 C 105.52 102.95 102.28 102.85 99.05 103.13 C 98.89 108.80 99.01 114.48 99.06 120.15 L 98.03 120.10 C 97.99 114.43 97.86 108.76 98.03 103.09 C 97.47 99.33 104.34 103.89 105.20 101.03 C 91.81 100.89 78.42 101.05 65.03 101.00 L 65.01 100.03 Z" />
</g>
<g id="#e1e6e9ff">
<path fill="#e1e6e9" opacity="1.00" d=" M 65.03 101.00 C 78.42 101.05 91.81 100.89 105.20 101.03 C 104.34 103.89 97.47 99.33 98.03 103.09 C 97.86 108.76 97.99 114.43 98.03 120.10 C 95.44 120.35 93.21 119.96 93.99 116.81 C 93.99 116.35 93.98 115.43 93.97 114.97 C 94.05 110.98 94.04 107.00 93.94 103.02 C 91.22 103.03 85.78 103.03 83.05 103.03 C 82.94 107.70 82.96 112.37 83.03 117.03 C 83.01 117.78 82.95 119.26 82.93 120.00 C 78.82 120.97 77.09 119.06 77.95 115.00 C 78.03 111.00 78.03 107.01 77.95 103.02 C 75.22 103.03 69.77 103.03 67.05 103.03 C 66.99 107.02 66.98 111.01 67.04 115.00 C 68.07 118.33 67.35 120.44 64.89 121.32 C 65.01 114.54 65.01 107.77 65.03 101.00 Z" />
</g>
<g id="#d0d5d9ff">
<path fill="#d0d5d9" opacity="1.00" d=" M 108.76 102.86 C 109.32 102.01 110.01 101.29 110.83 100.69 C 111.22 107.17 110.98 113.67 111.47 120.15 L 111.47 120.86 C 111.26 123.84 111.22 126.85 110.81 129.81 C 103.18 130.52 95.52 131.29 87.85 130.83 L 87.74 129.69 C 88.25 127.28 91.19 128.36 92.95 127.85 C 94.03 124.69 92.98 119.17 98.87 121.01 C 99.29 123.53 97.42 128.14 100.92 128.10 C 102.70 128.02 106.25 127.86 108.03 127.78 C 110.01 125.00 109.27 120.22 108.93 116.67 C 108.94 112.06 109.05 107.46 108.76 102.86 Z" />
</g>
<g id="#9c9390ff">
<path fill="#9c9390" opacity="1.00" d=" M 177.07 103.90 C 182.01 104.48 185.70 99.66 191.00 102.01 C 191.09 107.09 190.91 112.16 190.44 117.23 C 188.42 112.76 194.20 100.20 184.97 102.92 C 179.51 103.88 187.71 102.53 187.87 105.08 C 181.66 103.42 186.77 107.95 186.20 112.05 C 182.80 114.90 183.83 104.63 182.75 112.18 C 183.96 106.80 180.59 106.59 176.93 107.15 C 173.47 106.61 173.62 104.25 177.07 103.90 Z" />
</g>
<g id="#878183ff">
<path fill="#878183" opacity="1.00" d=" M 231.17 102.64 C 232.08 102.32 233.00 102.01 233.92 101.70 L 233.95 102.52 C 232.81 109.01 232.96 115.63 232.86 122.20 C 232.23 119.75 232.77 116.76 231.24 114.71 C 230.14 114.28 228.99 113.97 227.82 113.79 C 234.20 113.90 231.60 106.87 231.17 102.64 Z" />
</g>
<g id="#c4bfc1ff">
<path fill="#c4bfc1" opacity="1.00" d=" M 28.97 103.08 C 34.17 101.92 34.44 107.30 35.38 110.96 C 32.35 113.17 31.13 106.25 28.87 104.70 C 28.89 104.30 28.95 103.48 28.97 103.08 Z" />
</g>
<g id="#636e7eff">
<path fill="#636e7e" opacity="1.00" d=" M 67.05 103.03 C 69.77 103.03 75.22 103.03 77.95 103.02 C 78.03 107.01 78.03 111.00 77.95 115.00 C 74.31 114.99 70.68 115.00 67.04 115.00 C 66.98 111.01 66.99 107.02 67.05 103.03 Z" />
</g>
<g id="#626d7dff">
<path fill="#626d7d" opacity="1.00" d=" M 83.05 103.03 C 85.78 103.03 91.22 103.03 93.94 103.02 C 94.04 107.00 94.05 110.98 93.97 114.97 C 91.33 115.94 85.63 113.08 84.74 116.91 C 84.31 116.94 83.46 117.00 83.03 117.03 C 82.96 112.37 82.94 107.70 83.05 103.03 Z" />
</g>
<g id="#626e7dff">
<path fill="#626e7d" opacity="1.00" d=" M 99.05 103.13 C 102.28 102.85 105.52 102.95 108.76 102.86 C 109.05 107.46 108.94 112.06 108.93 116.67 C 106.53 122.32 102.70 116.44 99.06 120.15 C 99.01 114.48 98.89 108.80 99.05 103.13 M 100.03 115.05 C 100.89 117.20 105.60 115.57 107.97 115.95 C 107.10 113.80 102.40 115.43 100.03 115.05 Z" />
</g>
<g id="#d4cdcbff">
<path fill="#d4cdcb" opacity="1.00" d=" M 130.05 103.09 C 136.61 101.90 142.05 103.27 139.10 111.91 C 139.06 113.62 139.05 115.33 138.87 117.03 C 138.43 117.00 137.54 116.93 137.09 116.90 C 137.06 114.17 137.00 108.72 136.96 106.00 C 137.68 102.94 129.53 103.94 130.95 106.93 C 130.78 110.98 131.16 115.02 131.84 119.01 C 131.41 119.00 130.54 118.98 130.10 118.97 C 129.96 113.68 129.94 108.39 130.05 103.09 Z" />
</g>
<g id="#6e6f6dff">
<path fill="#6e6f6d" opacity="1.00" d=" M 154.31 103.34 C 155.80 104.49 155.23 107.86 154.69 109.66 C 153.19 108.51 153.76 105.14 154.31 103.34 Z" />
</g>
<g id="#cac7c6ff">
<path fill="#cac7c6" opacity="1.00" d=" M 187.87 105.08 C 187.71 102.53 179.51 103.88 184.97 102.92 C 194.20 100.20 188.42 112.76 190.44 117.23 L 190.42 118.06 L 189.89 118.75 C 182.84 121.71 182.28 117.45 182.75 112.18 C 183.83 104.63 182.80 114.90 186.20 112.05 C 186.36 114.01 181.88 117.93 185.97 117.01 C 191.59 116.72 187.30 108.88 187.87 105.08 Z" />
</g>
<g id="#838688ff">
<path fill="#838688" opacity="1.00" d=" M 219.83 105.68 C 223.53 104.38 227.39 103.67 231.17 102.64 C 230.93 105.80 226.94 105.51 224.77 106.83 C 224.38 106.81 223.62 106.76 223.24 106.74 C 222.11 106.36 220.97 106.01 219.83 105.68 Z" />
</g>
<g id="#35363bff">
<path fill="#35363b" opacity="1.00" d=" M 231.17 102.64 C 231.60 106.87 234.20 113.90 227.82 113.79 C 224.34 114.03 225.89 109.04 224.77 106.83 C 226.94 105.51 230.93 105.80 231.17 102.64 Z" />
</g>
<g id="#ece5e6ff">
<path fill="#ece5e6" opacity="1.00" d=" M 232.86 122.20 C 232.96 115.63 232.81 109.01 233.95 102.52 C 233.73 113.44 234.73 124.44 233.36 135.32 C 233.19 130.94 233.04 126.57 232.86 122.20 Z" />
</g>
<g id="#a19595ff">
<path fill="#a19595" opacity="1.00" d=" M 233.95 102.52 C 236.31 113.12 234.35 124.30 235.18 135.12 C 234.52 135.81 233.81 136.46 233.06 137.05 C 233.13 136.62 233.28 135.75 233.36 135.32 C 234.73 124.44 233.73 113.44 233.95 102.52 Z" />
</g>
<g id="#857976ff">
<path fill="#857976" opacity="1.00" d=" M 28.87 104.70 C 31.13 106.25 32.35 113.17 35.38 110.96 C 36.49 112.67 37.37 114.59 39.01 115.88 C 41.20 117.07 41.19 119.21 40.12 121.21 C 37.51 121.53 35.23 120.35 33.19 118.89 C 33.27 122.71 32.67 126.49 31.80 130.19 C 30.24 125.93 28.74 121.62 28.69 117.02 C 30.63 115.63 32.46 116.85 34.22 117.84 C 33.80 113.50 31.20 109.99 28.26 106.98 C 28.41 106.41 28.71 105.27 28.87 104.70 Z" />
</g>
<g id="#6b767eff">
<path fill="#6b767e" opacity="1.00" d=" M 130.95 106.93 C 129.53 103.94 137.68 102.94 136.96 106.00 C 137.00 108.72 137.06 114.17 137.09 116.90 C 134.44 114.12 138.65 104.58 130.95 106.93 Z" />
</g>
<g id="#4a4e4dff">
<path fill="#4a4e4d" opacity="1.00" d=" M 186.20 112.05 C 186.77 107.95 181.66 103.42 187.87 105.08 C 187.30 108.88 191.59 116.72 185.97 117.01 C 181.88 117.93 186.36 114.01 186.20 112.05 Z" />
</g>
<g id="#7e503dff">
<path fill="#7e503d" opacity="1.00" d=" M 237.25 107.03 C 236.84 106.16 239.02 103.84 239.43 105.38 C 241.49 110.03 246.17 112.19 250.00 115.15 L 250.00 137.64 C 247.88 138.27 245.79 139.00 243.73 139.78 C 240.44 140.28 237.13 140.25 234.57 137.99 C 235.58 136.80 237.39 135.56 236.45 133.77 C 234.36 129.54 241.14 136.36 238.54 132.42 C 234.47 129.11 238.39 125.33 238.72 121.41 C 232.94 118.33 238.40 111.98 237.25 107.03 Z" />
</g>
<g id="#5e4745ff">
<path fill="#5e4745" opacity="1.00" d=" M 211.08 108.88 C 214.01 107.86 216.92 106.75 219.83 105.68 C 220.97 106.01 222.11 106.36 223.24 106.74 C 223.10 110.10 222.88 113.48 222.99 116.86 C 225.76 116.23 228.50 115.47 231.24 114.71 C 232.77 116.76 232.23 119.75 232.86 122.20 C 233.04 126.57 233.19 130.94 233.36 135.32 C 233.28 135.75 233.13 136.62 233.06 137.05 C 231.87 137.91 230.54 138.60 229.09 138.90 C 227.74 137.45 225.66 137.67 223.95 138.21 C 221.34 138.11 218.74 138.02 216.14 137.93 C 215.16 137.39 214.17 136.89 213.25 136.26 C 213.48 129.54 213.84 122.58 211.79 116.08 C 208.06 118.72 204.46 118.05 203.81 113.09 C 206.75 112.74 210.26 112.26 211.08 108.88 Z" />
</g>
<g id="#b7b2b4ff">
<path fill="#b7b2b4" opacity="1.00" d=" M 12.13 107.81 C 16.48 108.41 20.94 107.74 25.22 106.91 C 26.30 109.90 25.85 113.08 25.25 116.14 C 21.34 114.40 17.22 112.34 12.79 113.56 C 12.38 113.63 11.58 113.77 11.17 113.84 C 11.54 111.60 7.83 107.82 12.13 107.81 Z" />
</g>
<g id="#aea8a6ff">
<path fill="#aea8a6" opacity="1.00" d=" M 28.26 106.98 C 31.20 109.99 33.80 113.50 34.22 117.84 C 32.46 116.85 30.63 115.63 28.69 117.02 C 27.78 113.75 27.87 110.32 28.26 106.98 Z" />
</g>
<g id="#9aa5afff">
<path fill="#9aa5af" opacity="1.00" d=" M 130.95 106.93 C 138.65 104.58 134.44 114.12 137.09 116.90 C 137.54 116.93 138.43 117.00 138.87 117.03 C 138.29 117.73 137.70 118.41 137.09 119.07 C 135.34 119.06 133.59 119.05 131.84 119.01 C 131.16 115.02 130.78 110.98 130.95 106.93 Z" />
</g>
<g id="#7e665eff">
<path fill="#7e665e" opacity="1.00" d=" M 176.93 107.15 C 180.59 106.59 183.96 106.80 182.75 112.18 C 182.28 117.45 182.84 121.71 189.89 118.75 C 189.26 119.54 188.62 120.33 187.97 121.11 C 185.98 120.34 177.65 122.73 181.10 119.01 C 182.95 117.43 179.93 116.17 179.04 114.96 C 177.18 122.48 178.24 130.36 178.02 138.02 C 175.52 129.71 177.77 117.08 176.93 107.15 Z" />
</g>
<g id="#b4b3b6ff">
<path fill="#b4b3b6" opacity="1.00" d=" M 223.24 106.74 C 223.62 106.76 224.38 106.81 224.77 106.83 C 225.89 109.04 224.34 114.03 227.82 113.79 C 228.99 113.97 230.14 114.28 231.24 114.71 C 228.50 115.47 225.76 116.23 222.99 116.86 C 222.88 113.48 223.10 110.10 223.24 106.74 Z" />
</g>
<g id="#7c787dff">
<path fill="#7c787d" opacity="1.00" d=" M 198.23 112.06 C 202.68 111.72 206.72 109.66 211.08 108.88 C 210.26 112.26 206.75 112.74 203.81 113.09 C 198.72 111.46 199.61 121.45 204.13 120.43 C 202.23 121.97 200.24 122.38 198.98 119.89 C 198.74 117.28 198.45 114.67 198.23 112.06 Z" />
</g>
<g id="#2e353bff">
<path fill="#2e353b" opacity="1.00" d=" M 169.06 113.17 C 169.73 112.35 170.41 111.53 171.09 110.71 L 171.26 111.63 C 171.44 116.48 170.14 121.57 171.76 126.29 C 172.26 130.21 171.67 134.14 171.05 138.01 C 164.67 138.09 158.31 138.53 151.95 138.94 C 151.48 138.68 150.54 138.16 150.07 137.90 C 150.01 131.25 149.93 124.61 150.02 117.96 C 150.60 116.94 151.17 115.91 151.72 114.87 C 153.18 120.77 156.05 113.32 158.18 114.81 C 159.07 116.71 161.35 116.43 163.00 115.86 C 165.51 116.99 174.06 119.00 163.05 117.91 C 160.48 118.11 155.34 118.51 152.77 118.71 C 151.41 124.14 151.82 130.14 152.14 135.76 C 155.82 138.63 161.60 136.52 166.17 137.06 C 168.78 136.82 173.40 138.06 170.07 132.00 C 169.92 127.23 170.71 122.30 169.24 117.67 C 169.15 116.17 169.09 114.67 169.06 113.17 Z" />
</g>
<g id="#848d96ff">
<path fill="#848d96" opacity="1.00" d=" M 171.26 111.63 C 172.79 116.36 171.60 121.43 171.76 126.29 C 170.14 121.57 171.44 116.48 171.26 111.63 Z" />
</g>
<g id="#5c5759ff">
<path fill="#5c5759" opacity="1.00" d=" M 3.10 112.80 C 7.14 113.03 7.20 115.95 6.19 119.17 C 8.96 118.83 9.79 115.80 11.17 113.84 C 11.58 113.77 12.38 113.63 12.79 113.56 C 17.20 113.70 12.67 115.46 11.21 116.62 C 14.32 117.27 10.44 119.46 10.13 121.11 C 8.48 125.51 16.30 121.93 18.76 123.22 C 21.38 125.32 20.34 129.00 20.18 131.88 C 19.95 133.90 19.08 135.74 17.92 137.39 C 19.29 133.62 18.77 127.17 12.69 129.40 C 11.68 132.84 5.89 131.27 6.09 135.32 C 4.08 136.00 2.03 136.55 0.00 137.19 L 0.00 125.16 C 3.57 125.94 7.12 123.80 4.93 120.05 C 4.71 115.28 2.36 121.34 0.00 120.32 L 0.00 113.72 C 3.08 115.52 6.35 117.30 3.10 112.80 Z" />
</g>
<g id="#897e7dff">
<path fill="#897e7d" opacity="1.00" d=" M 12.79 113.56 C 17.22 112.34 21.34 114.40 25.25 116.14 C 25.85 119.02 22.14 118.42 22.05 120.69 C 27.65 120.27 28.11 127.84 27.03 132.06 C 24.76 131.88 22.42 131.03 20.18 131.88 C 20.34 129.00 21.38 125.32 18.76 123.22 C 16.30 121.93 8.48 125.51 10.13 121.11 C 10.44 119.46 14.32 117.27 11.21 116.62 C 12.67 115.46 17.20 113.70 12.79 113.56 Z" />
</g>
<g id="#838c8fff">
<path fill="#838c8f" opacity="1.00" d=" M 151.98 113.01 C 154.65 113.00 157.33 112.98 160.01 112.96 L 160.98 112.96 C 162.67 112.99 164.37 112.99 166.06 113.00 C 166.81 113.04 168.31 113.13 169.06 113.17 C 169.09 114.67 169.15 116.17 169.24 117.67 L 169.16 118.69 C 166.27 118.55 163.61 121.30 160.99 119.03 C 161.26 123.34 162.03 127.62 161.91 131.94 L 160.99 132.38 C 160.44 130.90 159.96 129.40 159.43 127.92 C 158.97 130.22 156.10 135.78 157.83 126.49 C 162.26 127.81 159.65 121.86 160.03 119.18 C 157.64 120.21 154.31 121.20 152.77 118.71 C 155.34 118.51 160.48 118.11 163.05 117.91 C 174.06 119.00 165.51 116.99 163.00 115.86 C 161.71 114.60 159.85 114.60 158.18 114.81 C 156.05 113.32 153.18 120.77 151.72 114.87 C 151.78 114.40 151.91 113.47 151.98 113.01 Z" />
</g>
<g id="#473b3eff">
<path fill="#473b3e" opacity="1.00" d=" M 204.13 120.43 C 199.61 121.45 198.72 111.46 203.81 113.09 C 204.46 118.05 208.06 118.72 211.79 116.08 C 213.84 122.58 213.48 129.54 213.25 136.26 C 205.80 132.43 200.67 124.17 192.43 122.26 C 194.09 120.12 196.27 118.96 198.98 119.89 C 200.24 122.38 202.23 121.97 204.13 120.43 Z" />
</g>
<g id="#798492ff">
<path fill="#798492" opacity="1.00" d=" M 67.04 115.00 C 70.68 115.00 74.31 114.99 77.95 115.00 C 77.09 119.06 78.82 120.97 82.93 120.00 L 82.88 120.90 C 77.13 119.62 78.56 125.27 78.87 128.79 C 75.31 128.36 71.55 130.06 68.04 129.08 C 64.65 128.62 69.19 121.79 65.10 121.97 L 64.89 121.32 C 67.35 120.44 68.07 118.33 67.04 115.00 Z" />
</g>
<g id="#9aa5b4ff">
<path fill="#9aa5b4" opacity="1.00" d=" M 84.74 116.91 C 85.63 113.08 91.33 115.94 93.97 114.97 C 93.98 115.43 93.99 116.35 93.99 116.81 C 90.91 116.52 87.81 116.62 84.74 116.91 Z" />
</g>
<g id="#9fabb9ff">
<path fill="#9fabb9" opacity="1.00" d=" M 100.03 115.05 C 102.40 115.43 107.10 113.80 107.97 115.95 C 105.60 115.57 100.89 117.20 100.03 115.05 Z" />
</g>
<g id="#ebf0eeff">
<path fill="#ebf0ee" opacity="1.00" d=" M 158.18 114.81 C 159.85 114.60 161.71 114.60 163.00 115.86 C 161.35 116.43 159.07 116.71 158.18 114.81 Z" />
</g>
<g id="#624640ff">
<path fill="#624640" opacity="1.00" d=" M 179.04 114.96 C 179.93 116.17 182.95 117.43 181.10 119.01 C 177.65 122.73 185.98 120.34 187.97 121.11 C 187.69 125.61 187.68 130.12 187.89 134.63 C 187.74 135.00 187.42 135.73 187.27 136.10 C 184.45 137.70 181.24 138.17 178.02 138.02 C 178.24 130.36 177.18 122.48 179.04 114.96 Z" />
</g>
<g id="#636e7aff">
<path fill="#636e7a" opacity="1.00" d=" M 84.74 116.91 C 87.81 116.62 90.91 116.52 93.99 116.81 C 93.21 119.96 95.44 120.35 98.03 120.10 L 99.06 120.15 L 98.87 121.01 C 92.98 119.17 94.03 124.69 92.95 127.85 C 92.78 114.32 93.40 128.01 88.17 127.08 C 88.03 123.95 88.05 120.84 87.74 117.73 C 86.24 122.32 85.14 126.94 84.74 116.91 Z" />
</g>
<g id="#3d4651ff">
<path fill="#3d4651" opacity="1.00" d=" M 83.03 117.03 C 83.46 117.00 84.31 116.94 84.74 116.91 C 85.14 126.94 86.24 122.32 87.74 117.73 C 88.05 120.84 88.03 123.95 88.17 127.08 C 93.40 128.01 92.78 114.32 92.95 127.85 C 91.19 128.36 88.25 127.28 87.74 129.69 L 87.32 130.11 L 86.94 129.32 C 84.95 127.72 81.86 127.57 82.69 123.81 C 82.74 123.08 82.83 121.62 82.88 120.90 L 82.93 120.00 C 82.95 119.26 83.01 117.78 83.03 117.03 Z" />
</g>
<g id="#43505fff">
<path fill="#43505f" opacity="1.00" d=" M 99.06 120.15 C 102.70 116.44 106.53 122.32 108.93 116.67 C 109.27 120.22 110.01 125.00 108.03 127.78 C 105.66 126.79 102.46 125.43 100.92 128.10 C 97.42 128.14 99.29 123.53 98.87 121.01 L 99.06 120.15 Z" />
</g>
<g id="#909195ff">
<path fill="#909195" opacity="1.00" d=" M 0.00 120.32 C 2.36 121.34 4.71 115.28 4.93 120.05 C 7.12 123.80 3.57 125.94 0.00 125.16 L 0.00 120.32 Z" />
</g>
<g id="#5b423bff">
<path fill="#5b423b" opacity="1.00" d=" M 40.12 121.21 C 43.87 120.11 47.13 117.12 51.24 119.33 C 49.02 121.03 43.69 119.34 45.09 123.76 C 48.43 126.03 51.76 122.54 54.87 125.24 C 49.20 117.16 63.20 124.66 63.82 117.85 C 64.14 119.01 64.50 120.17 64.89 121.32 L 65.10 121.97 C 65.01 124.68 64.89 127.38 64.75 130.09 C 62.32 129.72 60.04 131.50 59.79 133.95 C 68.49 134.72 77.10 132.51 85.75 133.69 C 85.87 133.07 86.11 131.83 86.23 131.21 C 86.50 130.93 87.05 130.38 87.32 130.11 L 87.74 129.69 L 87.85 130.83 C 87.50 133.33 88.58 134.55 91.11 134.03 C 90.79 134.48 90.13 135.37 89.80 135.82 C 89.63 136.09 89.27 136.62 89.10 136.89 C 88.82 137.35 88.25 138.29 87.97 138.75 C 74.61 137.77 60.95 138.43 47.72 140.71 C 44.83 140.84 41.94 140.93 39.06 141.03 C 32.67 142.83 37.63 136.95 36.48 132.77 C 39.21 132.53 36.85 138.94 39.28 135.64 C 40.77 136.52 42.38 137.16 44.14 137.17 C 38.08 134.72 43.10 124.04 36.05 122.89 C 31.25 120.05 34.91 129.31 34.09 131.94 C 33.77 133.33 33.82 134.71 34.24 136.08 C 33.89 138.31 33.49 140.54 33.06 142.76 L 32.16 142.80 C 32.55 138.58 32.86 134.34 31.80 130.19 C 32.67 126.49 33.27 122.71 33.19 118.89 C 35.23 120.35 37.51 121.53 40.12 121.21 M 58.15 127.20 C 54.67 131.32 63.68 129.17 58.15 127.20 Z" />
</g>
<g id="#888c91ff">
<path fill="#888c91" opacity="1.00" d=" M 147.04 137.50 C 153.74 134.43 144.35 122.22 150.02 117.96 C 149.93 124.61 150.01 131.25 150.07 137.90 C 147.37 138.52 144.55 138.69 141.80 138.36 C 143.55 138.13 145.34 138.00 147.04 137.50 Z" />
</g>
<g id="#5e686fff">
<path fill="#5e686f" opacity="1.00" d=" M 169.24 117.67 C 170.71 122.30 169.92 127.23 170.07 132.00 C 173.40 138.06 168.78 136.82 166.17 137.06 L 165.92 136.21 C 173.04 135.63 167.13 123.69 169.16 118.69 L 169.24 117.67 Z" />
</g>
<g id="#44393cff">
<path fill="#44393c" opacity="1.00" d=" M 190.42 118.06 C 190.88 119.54 191.05 121.29 192.43 122.26 C 198.14 127.75 205.00 131.84 211.08 136.88 C 210.56 136.93 209.52 137.03 208.99 137.08 C 207.29 137.05 205.60 137.03 203.90 137.03 C 203.41 137.03 202.42 137.02 201.92 137.02 L 200.94 137.00 C 199.73 136.93 198.52 136.85 197.32 136.77 C 194.76 134.58 191.12 133.97 187.89 134.63 C 187.68 130.12 187.69 125.61 187.97 121.11 C 188.62 120.33 189.26 119.54 189.89 118.75 L 190.42 118.06 Z" />
</g>
<g id="#87807bff">
<path fill="#87807b" opacity="1.00" d=" M 130.10 118.97 C 130.54 118.98 131.41 119.00 131.84 119.01 C 133.59 119.05 135.34 119.06 137.09 119.07 C 138.79 124.34 122.78 123.22 130.10 118.97 Z" />
</g>
<g id="#8f979bff">
<path fill="#8f979b" opacity="1.00" d=" M 152.14 135.76 C 151.82 130.14 151.41 124.14 152.77 118.71 C 152.87 124.28 153.03 129.84 153.24 135.41 C 156.23 132.88 155.11 120.99 155.93 132.97 C 155.41 137.52 157.93 135.55 158.79 133.20 C 158.88 137.41 162.08 135.87 160.99 132.38 L 161.91 131.94 C 160.80 138.34 163.93 132.83 165.92 136.21 L 166.17 137.06 C 161.60 136.52 155.82 138.63 152.14 135.76 Z" />
</g>
<g id="#c4ced2ff">
<path fill="#c4ced2" opacity="1.00" d=" M 152.77 118.71 C 154.31 121.20 157.64 120.21 160.03 119.18 C 159.65 121.86 162.26 127.81 157.83 126.49 C 156.10 135.78 158.97 130.22 159.43 127.92 C 159.96 129.40 160.44 130.90 160.99 132.38 C 162.08 135.87 158.88 137.41 158.79 133.20 C 157.93 135.55 155.41 137.52 155.93 132.97 C 155.11 120.99 156.23 132.88 153.24 135.41 C 153.03 129.84 152.87 124.28 152.77 118.71 Z" />
</g>
<g id="#bac6cbff">
<path fill="#bac6cb" opacity="1.00" d=" M 160.99 119.03 C 163.61 121.30 166.27 118.55 169.16 118.69 C 167.13 123.69 173.04 135.63 165.92 136.21 C 163.93 132.83 160.80 138.34 161.91 131.94 C 162.03 127.62 161.26 123.34 160.99 119.03 Z" />
</g>
<g id="#d5dadeff">
<path fill="#d5dade" opacity="1.00" d=" M 78.87 128.79 C 78.56 125.27 77.13 119.62 82.88 120.90 C 82.83 121.62 82.74 123.08 82.69 123.81 C 79.96 128.93 83.28 129.32 86.94 129.32 L 87.32 130.11 C 87.05 130.38 86.50 130.93 86.23 131.21 C 79.07 130.95 71.83 131.43 64.75 130.09 C 64.89 127.38 65.01 124.68 65.10 121.97 C 69.19 121.79 64.65 128.62 68.04 129.08 C 71.55 130.06 75.31 128.36 78.87 128.79 Z" />
</g>
<g id="#867576ff">
<path fill="#867576" opacity="1.00" d=" M 111.47 120.86 C 111.73 124.97 114.41 129.87 111.08 133.21 C 112.44 137.04 116.37 133.29 117.73 131.31 C 119.08 131.38 120.02 130.24 121.09 129.60 C 119.29 132.95 119.19 137.27 125.11 135.81 C 120.43 134.31 116.11 136.03 112.10 138.17 C 111.65 138.16 110.73 138.14 110.27 138.13 C 110.76 136.60 110.15 135.21 109.34 133.94 C 111.49 129.35 103.65 132.10 101.74 133.79 C 103.58 133.99 105.43 134.13 107.28 134.20 C 101.89 135.29 96.52 133.86 91.11 134.03 C 88.58 134.55 87.50 133.33 87.85 130.83 C 95.52 131.29 103.18 130.52 110.81 129.81 C 111.22 126.85 111.26 123.84 111.47 120.86 Z" />
</g>
<g id="#685b59ff">
<path fill="#685b59" opacity="1.00" d=" M 34.09 131.94 C 34.91 129.31 31.25 120.05 36.05 122.89 C 43.10 124.04 38.08 134.72 44.14 137.17 C 42.38 137.16 40.77 136.52 39.28 135.64 C 36.85 138.94 39.21 132.53 36.48 132.77 C 37.63 136.95 32.67 142.83 39.06 141.03 L 38.91 141.96 C 36.95 142.19 35.02 142.59 33.06 142.76 C 33.49 140.54 33.89 138.31 34.24 136.08 C 35.64 135.03 35.72 132.82 34.09 131.94 Z" />
</g>
<g id="#686063ff">
<path fill="#686063" opacity="1.00" d=" M 192.43 122.26 C 200.67 124.17 205.80 132.43 213.25 136.26 C 214.17 136.89 215.16 137.39 216.14 137.93 C 215.30 137.98 213.64 138.06 212.80 138.11 L 212.10 138.12 C 211.56 138.10 210.48 138.07 209.94 138.05 L 209.29 137.98 L 208.99 137.08 C 209.52 137.03 210.56 136.93 211.08 136.88 C 205.00 131.84 198.14 127.75 192.43 122.26 Z" />
</g>
<g id="#8e969dff">
<path fill="#8e969d" opacity="1.00" d=" M 86.94 129.32 C 83.28 129.32 79.96 128.93 82.69 123.81 C 81.86 127.57 84.95 127.72 86.94 129.32 Z" />
</g>
<g id="#48322fff">
<path fill="#48322f" opacity="1.00" d=" M 136.31 129.28 C 134.84 120.36 141.79 126.55 146.09 127.05 L 146.28 127.83 C 146.18 131.06 145.33 134.54 147.04 137.50 C 145.34 138.00 143.55 138.13 141.80 138.36 C 141.55 136.30 138.93 136.28 137.98 137.81 C 137.56 137.78 136.73 137.74 136.32 137.71 C 133.03 136.30 129.43 136.22 125.92 135.94 L 125.11 135.81 C 119.19 137.27 119.29 132.95 121.09 129.60 C 121.58 137.83 131.11 129.93 136.31 129.28 Z" />
</g>
<g id="#ba9c97ff">
<path fill="#ba9c97" opacity="1.00" d=" M 58.15 127.20 C 63.68 129.17 54.67 131.32 58.15 127.20 Z" />
</g>
<g id="#7f8a98ff">
<path fill="#7f8a98" opacity="1.00" d=" M 100.92 128.10 C 102.46 125.43 105.66 126.79 108.03 127.78 C 106.25 127.86 102.70 128.02 100.92 128.10 Z" />
</g>
<g id="#aea7a9ff">
<path fill="#aea7a9" opacity="1.00" d=" M 146.28 127.83 C 147.32 130.95 146.95 134.25 147.04 137.50 C 145.33 134.54 146.18 131.06 146.28 127.83 Z" />
</g>
<g id="#a0a0a6ff">
<path fill="#a0a0a6" opacity="1.00" d=" M 12.69 129.40 C 18.77 127.17 19.29 133.62 17.92 137.39 C 14.86 136.99 16.15 133.06 15.45 130.85 C 12.19 132.05 9.53 134.53 6.09 135.32 C 5.89 131.27 11.68 132.84 12.69 129.40 Z" />
</g>
<g id="#7e7771ff">
<path fill="#7e7771" opacity="1.00" d=" M 59.79 133.95 C 60.04 131.50 62.32 129.72 64.75 130.09 C 71.83 131.43 79.07 130.95 86.23 131.21 C 86.11 131.83 85.87 133.07 85.75 133.69 C 77.10 132.51 68.49 134.72 59.79 133.95 Z" />
</g>
<g id="#d3d7e0ff">
<path fill="#d3d7e0" opacity="1.00" d=" M 6.09 135.32 C 9.53 134.53 12.19 132.05 15.45 130.85 C 16.15 133.06 14.86 136.99 17.92 137.39 C 18.87 137.68 19.83 137.92 20.79 138.12 C 24.34 139.53 28.33 140.29 31.30 142.83 C 29.12 143.27 26.99 143.89 24.86 144.51 C 24.46 144.53 23.65 144.57 23.24 144.59 C 21.40 144.35 19.55 144.25 17.69 144.21 C 16.97 139.05 21.52 141.99 24.15 143.04 C 23.06 141.67 22.04 139.99 20.21 139.58 C 14.75 138.67 9.16 138.74 3.70 139.64 C 2.97 139.75 1.50 139.97 0.77 140.08 L 0.00 140.19 L 0.00 137.19 C 2.03 136.55 4.08 136.00 6.09 135.32 Z" />
</g>
<g id="#aba6abff">
<path fill="#aba6ab" opacity="1.00" d=" M 20.18 131.88 C 22.42 131.03 24.76 131.88 27.03 132.06 C 25.24 134.36 22.99 136.23 20.79 138.12 C 19.83 137.92 18.87 137.68 17.92 137.39 C 19.08 135.74 19.95 133.90 20.18 131.88 Z" />
</g>
<g id="#d8d5daff">
<path fill="#d8d5da" opacity="1.00" d=" M 34.09 131.94 C 35.72 132.82 35.64 135.03 34.24 136.08 C 33.82 134.71 33.77 133.33 34.09 131.94 Z" />
</g>
<g id="#e2d6daff">
<path fill="#e2d6da" opacity="1.00" d=" M 101.74 133.79 C 103.65 132.10 111.49 129.35 109.34 133.94 C 108.83 134.00 107.80 134.13 107.28 134.20 C 105.43 134.13 103.58 133.99 101.74 133.79 Z" />
</g>
<g id="#8f3139ff">
<path fill="#8f3139" opacity="1.00" d=" M 91.11 134.03 C 96.52 133.86 101.89 135.29 107.28 134.20 C 107.80 134.13 108.83 134.00 109.34 133.94 C 110.15 135.21 110.76 136.60 110.27 138.13 C 105.45 138.10 100.67 137.61 95.92 136.88 L 95.09 136.69 C 93.47 135.84 91.62 135.49 89.80 135.82 C 90.13 135.37 90.79 134.48 91.11 134.03 Z" />
</g>
<g id="#969aa6ff">
<path fill="#969aa6" opacity="1.00" d=" M 187.89 134.63 C 191.12 133.97 194.76 134.58 197.32 136.77 C 195.49 136.86 193.67 136.97 191.85 137.14 C 193.41 138.14 196.60 143.72 197.20 140.22 C 198.29 133.44 198.76 155.06 199.08 139.10 C 200.99 132.95 198.92 151.50 201.16 143.96 C 209.16 152.53 218.23 159.72 225.84 168.67 C 225.36 168.99 224.40 169.62 223.92 169.94 C 210.68 159.79 200.49 146.25 187.27 136.10 C 187.42 135.73 187.74 135.00 187.89 134.63 Z" />
</g>
<g id="#e6e6ecff">
<path fill="#e6e6ec" opacity="1.00" d=" M 236.45 133.77 C 237.39 135.56 235.58 136.80 234.57 137.99 C 231.57 139.86 236.01 142.13 237.18 143.84 C 233.73 143.88 230.32 143.99 226.89 144.04 C 225.26 144.02 223.65 144.03 222.03 144.06 C 221.78 142.69 220.60 141.74 219.23 141.74 C 216.27 138.92 212.88 137.75 214.91 143.11 C 214.39 143.05 213.35 142.93 212.83 142.88 C 213.21 141.31 213.21 139.67 212.80 138.11 C 213.64 138.06 215.30 137.98 216.14 137.93 C 218.74 138.02 221.34 138.11 223.95 138.21 C 225.38 139.41 227.38 139.57 229.09 138.90 C 230.54 138.60 231.87 137.91 233.06 137.05 C 233.81 136.46 234.52 135.81 235.18 135.12 C 235.50 134.78 236.13 134.11 236.45 133.77 Z" />
</g>
<g id="#f0f3f6ff">
<path fill="#f0f3f6" opacity="1.00" d=" M 112.10 138.17 C 116.11 136.03 120.43 134.31 125.11 135.81 L 125.92 135.94 C 128.15 139.63 132.78 139.23 136.32 137.71 C 136.73 137.74 137.56 137.78 137.98 137.81 C 139.23 138.11 140.51 138.29 141.80 138.36 C 144.55 138.69 147.37 138.52 150.07 137.90 C 150.54 138.16 151.48 138.68 151.95 138.94 L 152.28 139.74 C 154.22 140.41 155.98 141.51 157.56 143.04 C 155.56 144.96 153.27 146.52 150.85 147.87 C 146.24 147.44 141.73 146.35 137.15 145.74 C 137.10 145.32 137.01 144.48 136.96 144.05 C 133.68 141.74 127.01 143.27 122.22 143.16 C 117.06 143.31 111.76 142.26 106.71 143.68 C 102.55 143.91 98.39 144.01 94.23 144.25 C 86.41 144.27 78.43 143.18 70.69 144.68 C 69.09 144.85 65.90 145.18 64.30 145.35 C 59.12 145.31 53.79 144.26 48.71 145.65 C 45.88 145.85 43.05 146.02 40.22 146.20 C 36.93 145.35 24.89 148.35 31.30 142.83 L 32.16 142.80 L 33.06 142.76 C 35.02 142.59 36.95 142.19 38.91 141.96 C 46.69 141.78 54.58 142.67 62.29 141.37 C 70.42 139.80 80.64 142.60 87.97 138.75 C 88.25 138.29 88.82 137.35 89.10 136.89 C 91.09 137.29 93.13 137.17 95.09 136.69 L 95.92 136.88 C 96.64 143.56 107.45 140.26 112.10 138.17 Z" />
</g>
<g id="#b18a8bff">
<path fill="#b18a8b" opacity="1.00" d=" M 89.10 136.89 C 89.27 136.62 89.63 136.09 89.80 135.82 C 91.62 135.49 93.47 135.84 95.09 136.69 C 93.13 137.17 91.09 137.29 89.10 136.89 Z" />
</g>
<g id="#b3b3b5ff">
<path fill="#b3b3b5" opacity="1.00" d=" M 125.92 135.94 C 129.43 136.22 133.03 136.30 136.32 137.71 C 132.78 139.23 128.15 139.63 125.92 135.94 Z" />
</g>
<g id="#cbb8bdff">
<path fill="#cbb8bd" opacity="1.00" d=" M 95.92 136.88 C 100.67 137.61 105.45 138.10 110.27 138.13 C 110.73 138.14 111.65 138.16 112.10 138.17 C 107.45 140.26 96.64 143.56 95.92 136.88 Z" />
</g>
<g id="#908c8fff">
<path fill="#908c8f" opacity="1.00" d=" M 137.98 137.81 C 138.93 136.28 141.55 136.30 141.80 138.36 C 140.51 138.29 139.23 138.11 137.98 137.81 Z" />
</g>
<g id="#d6dbe4ff">
<path fill="#d6dbe4" opacity="1.00" d=" M 191.85 137.14 C 193.67 136.97 195.49 136.86 197.32 136.77 C 198.52 136.85 199.73 136.93 200.94 137.00 C 200.98 139.01 201.02 141.02 201.12 143.03 L 201.16 143.96 C 198.92 151.50 200.99 132.95 199.08 139.10 C 198.76 155.06 198.29 133.44 197.20 140.22 C 196.60 143.72 193.41 138.14 191.85 137.14 Z" />
</g>
<g id="#9197a1ff">
<path fill="#9197a1" opacity="1.00" d=" M 200.94 137.00 L 201.92 137.02 C 201.94 138.70 201.51 144.14 203.87 140.96 C 205.18 137.04 205.00 140.88 205.12 142.99 C 203.79 143.01 202.45 143.02 201.12 143.03 C 201.02 141.02 200.98 139.01 200.94 137.00 Z" />
</g>
<g id="#d9dee7ff">
<path fill="#d9dee7" opacity="1.00" d=" M 201.92 137.02 C 202.42 137.02 203.41 137.03 203.90 137.03 C 206.33 138.07 205.94 140.80 206.17 142.98 L 205.12 142.99 C 205.00 140.88 205.18 137.04 203.87 140.96 C 201.51 144.14 201.94 138.70 201.92 137.02 Z" />
</g>
<g id="#90939dff">
<path fill="#90939d" opacity="1.00" d=" M 203.90 137.03 C 205.60 137.03 207.29 137.05 208.99 137.08 L 209.29 137.98 C 205.83 137.22 206.97 141.22 208.10 142.95 C 207.62 142.96 206.65 142.97 206.17 142.98 C 205.94 140.80 206.33 138.07 203.90 137.03 Z" />
</g>
<g id="#a9a8a9ff">
<path fill="#a9a8a9" opacity="1.00" d=" M 47.72 140.71 C 60.95 138.43 74.61 137.77 87.97 138.75 C 80.64 142.60 70.42 139.80 62.29 141.37 C 57.43 141.14 52.57 140.98 47.72 140.71 Z" />
</g>
<g id="#656b6cff">
<path fill="#656b6c" opacity="1.00" d=" M 151.95 138.94 C 158.31 138.53 164.67 138.09 171.05 138.01 C 170.98 138.52 170.84 139.53 170.76 140.04 C 164.62 141.28 158.42 140.34 152.28 139.74 L 151.95 138.94 Z" />
</g>
<g id="#dcdeeaff">
<path fill="#dcdeea" opacity="1.00" d=" M 208.10 142.95 C 206.97 141.22 205.83 137.22 209.29 137.98 C 208.81 139.58 208.80 141.29 209.13 142.92 L 208.10 142.95 Z" />
</g>
<g id="#8a8c98ff">
<path fill="#8a8c98" opacity="1.00" d=" M 209.29 137.98 L 209.94 138.05 C 210.16 139.66 210.18 141.30 209.85 142.90 L 209.13 142.92 C 208.80 141.29 208.81 139.58 209.29 137.98 Z" />
</g>
<g id="#dadee8ff">
<path fill="#dadee8" opacity="1.00" d=" M 209.94 138.05 C 210.48 138.07 211.56 138.10 212.10 138.12 C 211.80 139.68 211.80 141.30 212.12 142.86 C 211.55 142.87 210.42 142.89 209.85 142.90 C 210.18 141.30 210.16 139.66 209.94 138.05 Z" />
</g>
<g id="#8b909dff">
<path fill="#8b909d" opacity="1.00" d=" M 212.10 138.12 L 212.80 138.11 C 213.21 139.67 213.21 141.31 212.83 142.88 L 212.12 142.86 C 211.80 141.30 211.80 139.68 212.10 138.12 Z" />
</g>
<g id="#a79c9dff">
<path fill="#a79c9d" opacity="1.00" d=" M 223.95 138.21 C 225.66 137.67 227.74 137.45 229.09 138.90 C 227.38 139.57 225.38 139.41 223.95 138.21 Z" />
</g>
<g id="#8f877fff">
<path fill="#8f877f" opacity="1.00" d=" M 237.18 143.84 C 236.01 142.13 231.57 139.86 234.57 137.99 C 237.13 140.25 240.44 140.28 243.73 139.78 C 245.20 140.36 250.23 138.82 248.60 141.50 C 244.45 143.21 241.66 147.88 237.18 143.84 Z" />
</g>
<g id="#665452ff">
<path fill="#665452" opacity="1.00" d=" M 243.73 139.78 C 245.79 139.00 247.88 138.27 250.00 137.64 L 250.00 152.07 C 249.52 152.04 248.57 151.98 248.09 151.95 C 249.03 146.74 242.53 151.88 239.78 151.73 L 238.97 151.99 C 236.92 156.48 237.78 163.82 238.71 169.30 C 242.45 178.64 232.82 173.86 228.02 173.94 C 226.57 168.68 230.56 167.22 235.41 167.40 C 231.73 167.46 226.45 168.16 228.07 163.25 C 241.51 160.88 225.98 164.81 228.22 160.32 C 234.29 160.87 224.12 153.65 231.08 154.78 C 226.01 153.61 230.32 147.21 226.89 144.04 C 230.32 143.99 233.73 143.88 237.18 143.84 C 241.66 147.88 244.45 143.21 248.60 141.50 C 250.23 138.82 245.20 140.36 243.73 139.78 Z" />
</g>
<g id="#848c9eff">
<path fill="#848c9e" opacity="1.00" d=" M 3.70 139.64 C 9.16 138.74 14.75 138.67 20.21 139.58 C 17.24 139.12 16.60 140.92 15.43 142.86 C 13.09 138.69 7.67 140.45 3.70 139.64 Z" />
</g>
<g id="#a2a6b2ff">
<path fill="#a2a6b2" opacity="1.00" d=" M 214.91 143.11 C 212.88 137.75 216.27 138.92 219.23 141.74 C 218.10 143.30 216.72 144.53 214.91 143.11 Z" />
</g>
<g id="#8ea1afff">
<path fill="#8ea1af" opacity="1.00" d=" M 0.00 140.19 L 0.77 140.08 C 3.11 141.40 1.70 143.87 0.00 144.98 L 0.00 140.19 Z" />
</g>
<g id="#546070ff">
<path fill="#546070" opacity="1.00" d=" M 0.77 140.08 C 1.50 139.97 2.97 139.75 3.70 139.64 C 7.67 140.45 13.09 138.69 15.43 142.86 C 16.60 140.92 17.24 139.12 20.21 139.58 C 22.04 139.99 23.06 141.67 24.15 143.04 C 21.52 141.99 16.97 139.05 17.69 144.21 C 13.18 150.06 6.54 142.72 2.88 146.78 C 5.53 147.53 8.25 148.05 11.00 148.17 C 7.23 149.42 2.08 146.72 0.00 151.30 L 0.00 144.98 C 1.70 143.87 3.11 141.40 0.77 140.08 Z" />
</g>
<g id="#a9acb0ff">
<path fill="#a9acb0" opacity="1.00" d=" M 152.28 139.74 C 158.42 140.34 164.62 141.28 170.76 140.04 C 171.90 140.64 173.05 141.22 174.17 141.85 C 168.62 142.13 163.09 142.53 157.56 143.04 C 155.98 141.51 154.22 140.41 152.28 139.74 Z" />
</g>
<g id="#d0d1d6ff">
<path fill="#d0d1d6" opacity="1.00" d=" M 39.06 141.03 C 41.94 140.93 44.83 140.84 47.72 140.71 C 52.57 140.98 57.43 141.14 62.29 141.37 C 54.58 142.67 46.69 141.78 38.91 141.96 L 39.06 141.03 Z" />
</g>
<g id="#3e363dff">
<path fill="#3e363d" opacity="1.00" d=" M 214.91 143.11 C 216.72 144.53 218.10 143.30 219.23 141.74 C 218.21 143.62 220.50 144.69 222.03 144.06 C 223.65 144.03 225.26 144.02 226.89 144.04 C 230.32 147.21 226.01 153.61 231.08 154.78 C 224.12 153.65 234.29 160.87 228.22 160.32 C 225.98 164.81 241.51 160.88 228.07 163.25 C 226.45 168.16 231.73 167.46 235.41 167.40 C 230.56 167.22 226.57 168.68 228.02 173.94 C 227.52 175.04 228.86 178.31 226.92 177.89 C 226.76 176.40 226.43 173.42 226.26 171.93 C 225.49 171.25 224.71 170.59 223.92 169.94 C 224.40 169.62 225.36 168.99 225.84 168.67 C 218.23 159.72 209.16 152.53 201.16 143.96 L 201.12 143.03 C 202.45 143.02 203.79 143.01 205.12 142.99 L 206.17 142.98 C 206.65 142.97 207.62 142.96 208.10 142.95 L 209.13 142.92 L 209.85 142.90 C 210.42 142.89 211.55 142.87 212.12 142.86 L 212.83 142.88 C 213.35 142.93 214.39 143.05 214.91 143.11 Z" />
</g>
<g id="#9399a4ff">
<path fill="#9399a4" opacity="1.00" d=" M 219.23 141.74 C 220.60 141.74 221.78 142.69 222.03 144.06 C 220.50 144.69 218.21 143.62 219.23 141.74 Z" />
</g>
<g id="#949292ff">
<path fill="#949292" opacity="1.00" d=" M 24.86 144.51 C 26.99 143.89 29.12 143.27 31.30 142.83 C 24.89 148.35 36.93 145.35 40.22 146.20 C 37.35 146.63 34.28 146.45 31.60 147.71 C 34.43 147.94 37.26 148.14 40.10 148.31 C 35.46 149.06 30.80 149.63 26.11 149.99 L 26.39 149.15 C 27.14 147.37 27.64 144.50 24.86 144.51 Z" />
</g>
<g id="#b7b7b8ff">
<path fill="#b7b7b8" opacity="1.00" d=" M 106.71 143.68 C 111.76 142.26 117.06 143.31 122.22 143.16 C 119.91 143.51 117.61 143.87 115.31 144.23 C 112.44 144.05 109.58 143.87 106.71 143.68 Z" />
</g>
<g id="#706e66ff">
<path fill="#706e66" opacity="1.00" d=" M 122.22 143.16 C 127.01 143.27 133.68 141.74 136.96 144.05 C 131.56 145.84 125.98 146.83 120.31 147.17 C 118.46 147.13 114.76 147.04 112.90 147.00 C 113.73 146.09 114.54 145.18 115.31 144.23 C 117.61 143.87 119.91 143.51 122.22 143.16 Z" />
</g>
<g id="#7e8078ff">
<path fill="#7e8078" opacity="1.00" d=" M 158.06 144.13 C 166.08 143.64 174.11 143.33 182.14 143.02 C 178.38 145.92 175.38 148.98 184.27 147.47 C 180.10 148.34 175.65 146.56 171.73 148.72 C 160.05 149.98 148.57 150.04 137.18 146.99 C 136.99 150.82 140.46 157.08 135.16 158.14 C 135.08 154.78 135.00 151.45 134.98 148.10 C 135.70 147.31 136.42 146.52 137.15 145.74 C 141.73 146.35 146.24 147.44 150.85 147.87 C 158.23 148.24 165.55 146.48 172.96 146.93 C 171.45 142.70 157.95 149.93 158.06 144.13 Z" />
</g>
<g id="#4e4e4dff">
<path fill="#4e4e4d" opacity="1.00" d=" M 182.14 143.02 C 185.12 142.90 188.05 142.98 191.06 143.08 C 192.05 147.18 186.93 146.75 184.27 147.47 C 175.38 148.98 178.38 145.92 182.14 143.02 Z" />
</g>
<g id="#a4aebcff">
<path fill="#a4aebc" opacity="1.00" d=" M 2.88 146.78 C 6.54 142.72 13.18 150.06 17.69 144.21 C 19.55 144.25 21.40 144.35 23.24 144.59 C 19.51 146.06 15.60 146.98 11.75 148.10 L 11.00 148.17 C 8.25 148.05 5.53 147.53 2.88 146.78 Z" />
</g>
<g id="#adabaaff">
<path fill="#adabaa" opacity="1.00" d=" M 70.69 144.68 C 78.43 143.18 86.41 144.27 94.23 144.25 C 86.43 145.28 78.53 145.23 70.69 144.68 Z" />
</g>
<g id="#595652ff">
<path fill="#595652" opacity="1.00" d=" M 94.23 144.25 C 98.39 144.01 102.55 143.91 106.71 143.68 C 109.58 143.87 112.44 144.05 115.31 144.23 C 114.54 145.18 113.73 146.09 112.90 147.00 C 96.42 149.38 79.79 146.58 63.30 148.34 C 55.83 147.94 48.35 147.94 40.88 148.31 L 40.10 148.31 C 37.26 148.14 34.43 147.94 31.60 147.71 C 34.28 146.45 37.35 146.63 40.22 146.20 C 43.05 146.02 45.88 145.85 48.71 145.65 C 53.88 145.68 59.21 146.72 64.30 145.35 C 65.90 145.18 69.09 144.85 70.69 144.68 C 78.53 145.23 86.43 145.28 94.23 144.25 Z" />
</g>
<g id="#d3c9b0ff">
<path fill="#d3c9b0" opacity="1.00" d=" M 120.31 147.17 C 125.98 146.83 131.56 145.84 136.96 144.05 C 137.01 144.48 137.10 145.32 137.15 145.74 C 136.42 146.52 135.70 147.31 134.98 148.10 C 131.29 148.73 126.96 147.87 123.77 149.78 C 135.40 146.36 120.72 159.12 127.99 160.16 C 107.44 160.95 86.86 165.23 66.00 164.00 C 53.34 163.00 40.88 165.26 28.32 166.23 C 28.11 161.46 27.86 156.71 27.47 151.96 C 55.79 151.45 84.09 150.26 112.41 149.41 C 114.26 147.99 119.63 150.73 120.31 147.17 Z" />
</g>
<g id="#555763ff">
<path fill="#555763" opacity="1.00" d=" M 11.75 148.10 C 15.60 146.98 19.51 146.06 23.24 144.59 C 23.65 144.57 24.46 144.53 24.86 144.51 C 27.64 144.50 27.14 147.37 26.39 149.15 C 23.71 142.94 16.41 150.80 11.75 148.10 Z" />
</g>
<g id="#908f94ff">
<path fill="#908f94" opacity="1.00" d=" M 48.71 145.65 C 53.79 144.26 59.12 145.31 64.30 145.35 C 59.21 146.72 53.88 145.68 48.71 145.65 Z" />
</g>
<g id="#191b27ff">
<path fill="#191b27" opacity="1.00" d=" M 11.75 148.10 C 16.41 150.80 23.71 142.94 26.39 149.15 L 26.11 149.99 C 25.83 150.43 25.26 151.30 24.98 151.74 C 16.72 153.11 6.24 153.01 0.00 159.15 L 0.00 151.30 C 2.08 146.72 7.23 149.42 11.00 148.17 L 11.75 148.10 Z" />
</g>
<g id="#d8d3c4ff">
<path fill="#d8d3c4" opacity="1.00" d=" M 63.30 148.34 C 79.79 146.58 96.42 149.38 112.90 147.00 C 114.76 147.04 118.46 147.13 120.31 147.17 C 119.63 150.73 114.26 147.99 112.41 149.41 C 84.09 150.26 55.79 151.45 27.47 151.96 C 27.86 156.71 28.11 161.46 28.32 166.23 C 22.61 172.10 27.90 159.63 21.84 159.58 C 22.88 159.30 23.91 159.01 24.94 158.73 C 27.76 158.05 26.86 153.13 24.98 151.74 C 25.26 151.30 25.83 150.43 26.11 149.99 C 30.80 149.63 35.46 149.06 40.10 148.31 L 40.88 148.31 C 48.30 148.96 55.92 149.78 63.30 148.34 Z" />
</g>
<g id="#c9c1a9ff">
<path fill="#c9c1a9" opacity="1.00" d=" M 137.18 146.99 C 148.57 150.04 160.05 149.98 171.73 148.72 L 172.70 148.80 C 171.75 150.93 172.88 152.96 173.84 154.84 C 172.33 154.93 172.35 155.96 172.74 157.13 C 173.00 158.83 173.28 160.54 173.61 162.24 C 173.40 163.16 173.22 164.09 173.08 165.02 C 172.32 168.44 172.10 171.91 176.19 171.27 C 174.20 171.33 169.53 174.79 173.68 174.78 C 173.55 175.29 173.28 176.30 173.15 176.80 C 168.46 172.38 161.68 172.54 155.70 171.55 C 153.73 173.54 150.64 176.63 147.89 173.96 C 145.34 167.85 140.66 159.81 133.80 158.66 C 134.14 158.53 134.82 158.27 135.16 158.14 C 140.46 157.08 136.99 150.82 137.18 146.99 Z" />
</g>
<g id="#a09d96ff">
<path fill="#a09d96" opacity="1.00" d=" M 40.88 148.31 C 48.35 147.94 55.83 147.94 63.30 148.34 C 55.92 149.78 48.30 148.96 40.88 148.31 Z" />
</g>
<g id="#bcaf90ff">
<path fill="#bcaf90" opacity="1.00" d=" M 123.77 149.78 C 126.96 147.87 131.29 148.73 134.98 148.10 C 135.00 151.45 135.08 154.78 135.16 158.14 C 134.82 158.27 134.14 158.53 133.80 158.66 C 132.56 158.84 131.33 159.08 130.12 159.37 C 129.58 159.57 128.52 159.96 127.99 160.16 C 120.72 159.12 135.40 146.36 123.77 149.78 Z" />
</g>
<g id="#b5b5b5ff">
<path fill="#b5b5b5" opacity="1.00" d=" M 188.72 148.69 C 192.53 147.04 201.35 147.70 197.18 151.80 C 197.71 147.01 191.76 149.43 188.72 148.69 Z" />
</g>
<g id="#7c7b76ff">
<path fill="#7c7b76" opacity="1.00" d=" M 172.70 148.80 C 178.03 149.18 183.38 148.92 188.72 148.69 C 191.76 149.43 197.71 147.01 197.18 151.80 C 192.62 151.04 189.10 155.00 184.17 153.73 C 184.49 149.99 179.84 150.57 177.27 150.08 C 176.10 151.61 175.90 154.19 173.84 154.84 C 172.88 152.96 171.75 150.93 172.70 148.80 Z" />
</g>
<g id="#8d8e91ff">
<path fill="#8d8e91" opacity="1.00" d=" M 239.78 151.73 C 242.53 151.88 249.03 146.74 248.09 151.95 C 245.32 151.87 242.54 151.80 239.78 151.73 Z" />
</g>
<g id="#caced0ff">
<path fill="#caced0" opacity="1.00" d=" M 177.27 150.08 C 179.84 150.57 184.49 149.99 184.17 153.73 C 183.37 154.42 182.58 155.12 181.79 155.82 C 181.29 156.07 180.28 156.58 179.78 156.84 C 178.02 156.91 174.50 157.05 172.74 157.13 C 172.35 155.96 172.33 154.93 173.84 154.84 C 175.90 154.19 176.10 151.61 177.27 150.08 Z" />
</g>
<g id="#323749ff">
<path fill="#323749" opacity="1.00" d=" M 0.00 159.15 C 6.24 153.01 16.72 153.11 24.98 151.74 C 24.97 153.49 24.95 156.98 24.94 158.73 C 23.91 159.01 22.88 159.30 21.84 159.58 C 14.65 161.74 7.61 164.89 0.00 165.18 L 0.00 159.15 Z" />
</g>
<g id="#878783ff">
<path fill="#878783" opacity="1.00" d=" M 24.98 151.74 C 26.86 153.13 27.76 158.05 24.94 158.73 C 24.95 156.98 24.97 153.49 24.98 151.74 Z" />
</g>
<g id="#908685ff">
<path fill="#908685" opacity="1.00" d=" M 238.71 169.30 C 237.78 163.82 236.92 156.48 238.97 151.99 C 238.98 157.76 238.90 163.53 238.71 169.30 Z" />
</g>
<g id="#9a9ba4ff">
<path fill="#9a9ba4" opacity="1.00" d=" M 194.74 155.64 C 197.00 155.78 208.77 152.79 205.28 156.89 C 201.77 156.39 198.27 155.92 194.74 155.64 Z" />
</g>
<g id="#7e7d80ff">
<path fill="#7e7d80" opacity="1.00" d=" M 179.78 156.84 C 180.28 156.58 181.29 156.07 181.79 155.82 C 184.82 155.90 187.82 156.00 190.86 156.09 C 190.65 158.61 191.65 160.46 194.20 161.02 C 192.44 160.98 190.69 160.76 188.96 160.44 C 192.63 156.63 185.61 156.11 188.96 160.44 C 186.85 160.71 184.73 160.91 182.61 161.09 C 184.19 159.80 185.71 158.44 187.18 157.03 C 185.33 156.98 181.63 156.88 179.78 156.84 Z" />
</g>
<g id="#525054ff">
<path fill="#525054" opacity="1.00" d=" M 190.86 156.09 C 192.15 155.94 193.44 155.79 194.74 155.64 C 198.27 155.92 201.77 156.39 205.28 156.89 C 201.24 157.55 197.94 160.11 194.20 161.02 C 191.65 160.46 190.65 158.61 190.86 156.09 Z" />
</g>
<g id="#5d5955ff">
<path fill="#5d5955" opacity="1.00" d=" M 172.74 157.13 C 174.50 157.05 178.02 156.91 179.78 156.84 C 181.63 156.88 185.33 156.98 187.18 157.03 C 185.71 158.44 184.19 159.80 182.61 161.09 C 181.77 161.22 180.94 161.36 180.11 161.51 C 177.95 161.82 175.78 162.03 173.61 162.24 C 173.28 160.54 173.00 158.83 172.74 157.13 Z" />
</g>
<g id="#d2d0d3ff">
<path fill="#d2d0d3" opacity="1.00" d=" M 188.96 160.44 C 192.63 156.63 185.61 156.11 188.96 160.44 Z" />
</g>
<g id="#f0f3f7ff">
<path fill="#f0f3f7" opacity="1.00" d=" M 127.99 160.16 C 128.52 159.96 129.58 159.57 130.12 159.37 C 128.85 165.89 134.70 170.15 138.60 174.41 C 141.18 177.61 144.75 174.17 147.89 173.96 C 150.64 176.63 153.73 173.54 155.70 171.55 C 161.68 172.54 168.46 172.38 173.15 176.80 C 174.86 177.81 175.84 179.55 176.82 181.20 C 177.47 182.69 177.71 184.49 178.84 185.72 C 179.65 186.49 180.49 187.25 181.34 188.00 L 0.00 188.00 L 0.00 165.18 C 7.61 164.89 14.65 161.74 21.84 159.58 C 27.90 159.63 22.61 172.10 28.32 166.23 C 40.88 165.26 53.34 163.00 66.00 164.00 C 86.86 165.23 107.44 160.95 127.99 160.16 Z" />
</g>
<g id="#e4e7ebff">
<path fill="#e4e7eb" opacity="1.00" d=" M 130.12 159.37 C 131.33 159.08 132.56 158.84 133.80 158.66 C 140.66 159.81 145.34 167.85 147.89 173.96 C 144.75 174.17 141.18 177.61 138.60 174.41 C 134.70 170.15 128.85 165.89 130.12 159.37 Z" />
</g>
<g id="#afaeb2ff">
<path fill="#afaeb2" opacity="1.00" d=" M 180.11 161.51 C 180.94 161.36 181.77 161.22 182.61 161.09 C 184.22 164.11 189.25 161.59 192.21 163.24 C 189.03 163.66 185.85 163.99 182.73 164.72 C 181.49 164.83 180.24 164.92 179.00 164.98 C 179.65 163.90 180.92 162.86 180.11 161.51 Z" />
</g>
<g id="#e1dee3ff">
<path fill="#e1dee3" opacity="1.00" d=" M 173.61 162.24 C 175.78 162.03 177.95 161.82 180.11 161.51 C 180.92 162.86 179.65 163.90 179.00 164.98 C 177.02 165.06 175.05 165.03 173.08 165.02 C 173.22 164.09 173.40 163.16 173.61 162.24 Z" />
</g>
<g id="#7a7573ff">
<path fill="#7a7573" opacity="1.00" d=" M 192.21 163.24 C 198.42 161.75 204.75 162.22 211.02 163.17 C 211.90 167.63 205.73 166.18 203.62 168.87 C 200.34 169.65 196.07 171.59 194.09 167.93 C 191.87 163.69 186.70 165.29 182.73 164.72 C 185.85 163.99 189.03 163.66 192.21 163.24 Z" />
</g>
<g id="#5d5a55ff">
<path fill="#5d5a55" opacity="1.00" d=" M 173.08 165.02 C 175.05 165.03 177.02 165.06 179.00 164.98 C 180.24 164.92 181.49 164.83 182.73 164.72 C 186.70 165.29 191.87 163.69 194.09 167.93 C 187.82 165.88 182.64 171.34 176.19 171.27 C 172.10 171.91 172.32 168.44 173.08 165.02 Z" />
</g>
<g id="#cdcdd1ff">
<path fill="#cdcdd1" opacity="1.00" d=" M 176.19 171.27 C 182.64 171.34 187.82 165.88 194.09 167.93 C 196.07 171.59 200.34 169.65 203.62 168.87 C 204.36 169.61 205.10 170.36 205.84 171.11 C 203.92 170.56 202.95 171.10 203.52 173.13 C 199.78 173.07 196.04 172.95 192.32 172.76 C 190.07 170.97 176.65 172.70 188.91 173.07 C 193.54 174.74 183.65 173.94 181.76 174.20 C 179.02 174.10 176.25 173.74 173.68 174.78 C 169.53 174.79 174.20 171.33 176.19 171.27 Z" />
</g>
<g id="#6a6663ff">
<path fill="#6a6663" opacity="1.00" d=" M 203.52 173.13 C 202.95 171.10 203.92 170.56 205.84 171.11 C 206.33 171.37 207.32 171.89 207.82 172.15 C 211.56 172.88 215.37 173.08 219.23 172.74 C 226.22 171.79 219.72 177.32 217.16 179.18 C 215.37 179.13 211.79 179.01 210.00 178.95 C 198.91 177.89 188.12 183.00 176.82 181.20 C 175.84 179.55 174.86 177.81 173.15 176.80 C 173.28 176.30 173.55 175.29 173.68 174.78 C 176.25 173.74 179.02 174.10 181.76 174.20 C 185.31 174.62 189.93 176.49 192.32 172.76 C 196.04 172.95 199.78 173.07 203.52 173.13 Z" />
</g>
<g id="#9e9ca1ff">
<path fill="#9e9ca1" opacity="1.00" d=" M 188.91 173.07 C 176.65 172.70 190.07 170.97 192.32 172.76 C 189.93 176.49 185.31 174.62 181.76 174.20 C 183.65 173.94 193.54 174.74 188.91 173.07 Z" />
</g>
<g id="#b8b7bbff">
<path fill="#b8b7bb" opacity="1.00" d=" M 207.82 172.15 C 211.63 172.17 215.43 172.37 219.23 172.74 C 215.37 173.08 211.56 172.88 207.82 172.15 Z" />
</g>
<g id="#9195a1ff">
<path fill="#9195a1" opacity="1.00" d=" M 226.26 171.93 C 226.43 173.42 226.76 176.40 226.92 177.89 C 226.76 176.40 226.43 173.42 226.26 171.93 Z" />
</g>
<g id="#adacadff">
<path fill="#adacad" opacity="1.00" d=" M 210.00 178.95 C 211.79 179.01 215.37 179.13 217.16 179.18 C 215.44 181.71 212.15 180.57 210.00 178.95 Z" />
</g>
<g id="#a5a5abff">
<path fill="#a5a5ab" opacity="1.00" d=" M 200.87 187.16 C 195.88 180.52 203.98 185.36 206.66 188.00 L 181.34 188.00 C 180.49 187.25 179.65 186.49 178.84 185.72 C 185.57 181.25 193.77 186.47 200.87 187.16 Z" />
</g>
<g id="#8b9097ff">
<path fill="#8b9097" opacity="1.00" d=" M 214.95 183.97 C 217.51 185.06 222.86 182.10 224.14 186.01 C 221.48 185.30 215.93 186.78 214.95 183.97 Z" />
</g>
</svg>
