<?xml version="1.0" encoding="UTF-8" ?>
<!DOCTYPE svg PUBLIC "-//W3C//DTD SVG 1.1//EN" "http://www.w3.org/Graphics/SVG/1.1/DTD/svg11.dtd">
<svg width="250pt" height="187pt" viewBox="0 0 250 187" version="1.1" xmlns="http://www.w3.org/2000/svg">
<g id="#86b7d8ff">
<path fill="#86b7d8" opacity="1.00" d=" M 0.00 0.00 L 34.37 0.00 C 39.30 4.02 46.76 6.62 48.98 13.24 C 46.42 11.82 44.05 10.07 42.39 7.62 C 39.45 3.58 33.46 3.96 29.16 1.77 C 25.22 -0.89 22.11 6.14 18.53 2.51 C 12.61 2.69 6.10 6.62 0.00 3.99 L 0.00 0.00 Z" />
</g>
<g id="#6baff7ff">
<path fill="#6baff7" opacity="1.00" d=" M 34.37 0.00 L 250.00 0.00 L 250.00 11.97 C 238.06 14.53 225.47 19.13 213.17 14.77 C 208.86 11.13 203.32 16.92 198.86 13.12 C 195.98 15.18 193.52 17.82 191.64 20.83 C 181.57 18.23 170.70 20.51 160.30 20.07 C 159.31 25.26 166.98 22.85 169.94 25.11 C 167.93 27.97 165.11 29.88 161.31 29.30 C 158.30 37.07 148.40 31.63 142.69 35.74 C 139.83 38.86 134.03 31.91 134.81 38.00 L 134.07 37.62 C 132.99 34.48 130.56 36.52 127.85 35.57 C 123.06 39.00 125.47 30.16 121.12 28.97 C 117.26 31.38 112.65 33.31 112.58 38.60 C 109.27 39.52 104.72 38.17 103.01 42.01 C 101.08 42.74 99.09 43.30 97.11 43.88 C 96.85 43.67 96.33 43.26 96.07 43.05 C 93.43 40.66 90.01 42.24 87.65 43.89 C 85.51 44.75 83.34 45.51 81.15 46.23 C 78.64 47.32 81.10 53.34 75.13 50.28 C 66.40 50.29 60.98 59.86 51.95 58.01 C 51.93 55.98 52.46 54.01 53.03 52.08 C 53.57 51.84 54.66 51.35 55.20 51.11 C 62.90 49.11 56.47 40.97 53.47 37.52 C 47.86 34.87 43.16 27.19 47.70 21.57 C 48.58 20.47 48.91 19.20 48.33 17.87 L 48.17 17.18 C 48.49 15.88 48.89 14.59 48.98 13.24 C 46.76 6.62 39.30 4.02 34.37 0.00 Z" />
</g>
<g id="#859b5dff">
<path fill="#859b5d" opacity="1.00" d=" M 18.53 2.51 C 22.11 6.14 25.22 -0.89 29.16 1.77 C 33.46 3.96 39.45 3.58 42.39 7.62 C 37.54 5.79 31.52 9.50 28.91 4.02 C 27.31 1.14 26.34 5.33 25.99 6.79 C 23.08 3.44 19.12 10.55 16.18 5.18 C 14.36 9.23 8.06 11.75 5.78 7.05 C 3.38 5.27 1.63 7.69 0.00 9.25 L 0.00 3.99 C 6.10 6.62 12.61 2.69 18.53 2.51 Z" />
</g>
<g id="#6d7832ff">
<path fill="#6d7832" opacity="1.00" d=" M 25.99 6.79 C 26.34 5.33 27.31 1.14 28.91 4.02 C 31.52 9.50 37.54 5.79 42.39 7.62 C 43.20 11.45 43.06 16.88 48.17 17.18 L 48.33 17.87 C 46.68 22.60 42.16 12.91 42.17 18.78 C 45.58 21.62 40.51 20.10 41.70 23.16 C 39.54 25.37 36.31 26.57 34.01 23.83 C 37.97 20.67 32.98 16.15 30.53 21.26 C 31.57 15.92 25.22 15.59 23.00 12.94 C 25.77 16.05 20.06 22.02 20.69 16.98 C 19.49 17.05 16.57 19.16 17.58 16.65 C 18.31 12.28 13.13 15.76 11.12 16.31 C 11.87 18.95 17.88 15.77 15.61 19.47 C 11.16 21.31 7.44 25.31 2.28 24.82 C 2.30 23.21 2.39 21.59 2.45 19.98 C 4.77 21.89 7.09 21.57 9.01 19.27 C 7.40 18.64 5.96 17.73 4.76 16.49 C 2.95 17.69 0.80 20.24 0.00 16.71 L 0.00 9.25 C 1.63 7.69 3.38 5.27 5.78 7.05 C 8.06 11.75 14.36 9.23 16.18 5.18 C 19.12 10.55 23.08 3.44 25.99 6.79 Z" />
</g>
<g id="#69887fff">
<path fill="#69887f" opacity="1.00" d=" M 42.39 7.62 C 44.05 10.07 46.42 11.82 48.98 13.24 C 48.89 14.59 48.49 15.88 48.17 17.18 C 43.06 16.88 43.20 11.45 42.39 7.62 Z" />
</g>
<g id="#74b7fbff">
<path fill="#74b7fb" opacity="1.00" d=" M 213.17 14.77 C 225.47 19.13 238.06 14.53 250.00 11.97 L 250.00 36.42 C 248.50 34.37 245.77 29.73 243.25 33.28 C 240.56 41.03 233.25 38.10 227.09 37.95 C 221.12 37.24 215.22 39.53 209.30 38.74 C 195.83 33.81 182.00 38.40 168.78 41.87 C 157.73 45.06 146.26 48.10 134.70 47.76 C 135.42 47.22 136.14 46.69 136.87 46.16 C 143.07 45.92 140.60 41.94 136.98 40.06 C 136.28 39.35 135.55 38.67 134.81 38.00 C 134.03 31.91 139.83 38.86 142.69 35.74 C 148.40 31.63 158.30 37.07 161.31 29.30 C 165.11 29.88 167.93 27.97 169.94 25.11 C 166.98 22.85 159.31 25.26 160.30 20.07 C 170.70 20.51 181.57 18.23 191.64 20.83 C 193.52 17.82 195.98 15.18 198.86 13.12 C 203.32 16.92 208.86 11.13 213.17 14.77 Z" />
</g>
<g id="#454b1cff">
<path fill="#454b1c" opacity="1.00" d=" M 23.00 12.94 C 25.22 15.59 31.57 15.92 30.53 21.26 C 32.98 16.15 37.97 20.67 34.01 23.83 C 32.07 25.52 32.13 33.71 29.09 28.96 C 30.05 36.49 25.28 29.75 29.11 27.09 C 32.72 24.12 27.22 20.47 26.56 17.15 C 25.61 18.26 24.72 19.43 23.88 20.63 C 20.54 19.74 15.98 21.79 16.91 25.80 C 15.03 24.53 14.90 26.05 14.93 27.74 C 11.15 25.50 4.96 25.32 1.86 29.00 C 1.21 28.29 0.59 27.55 0.00 26.79 L 0.00 16.71 C 0.80 20.24 2.95 17.69 4.76 16.49 C 5.96 17.73 7.40 18.64 9.01 19.27 C 7.09 21.57 4.77 21.89 2.45 19.98 C 2.39 21.59 2.30 23.21 2.28 24.82 C 7.44 25.31 11.16 21.31 15.61 19.47 C 17.88 15.77 11.87 18.95 11.12 16.31 C 13.13 15.76 18.31 12.28 17.58 16.65 C 16.57 19.16 19.49 17.05 20.69 16.98 C 20.06 22.02 25.77 16.05 23.00 12.94 Z" />
</g>
<g id="#28311aff">
<path fill="#28311a" opacity="1.00" d=" M 23.88 20.63 C 24.72 19.43 25.61 18.26 26.56 17.15 C 27.22 20.47 32.72 24.12 29.11 27.09 C 25.28 29.75 30.05 36.49 29.09 28.96 C 32.13 33.71 32.07 25.52 34.01 23.83 C 36.31 26.57 39.54 25.37 41.70 23.16 C 41.83 24.33 41.96 25.50 42.09 26.67 C 41.84 29.33 43.37 31.48 44.65 33.64 C 37.42 34.41 41.99 43.95 47.06 44.63 C 46.77 45.18 46.19 46.28 45.90 46.83 C 43.35 47.20 43.47 50.70 40.86 50.67 C 42.35 53.57 46.21 58.76 40.95 59.78 C 37.64 58.35 38.27 60.83 38.29 63.24 C 36.09 68.17 31.50 57.99 32.65 64.20 C 28.90 63.96 29.46 60.97 29.91 58.13 C 26.69 57.80 20.90 57.94 22.27 53.03 C 26.83 59.23 33.08 44.20 26.39 44.79 C 27.80 48.29 23.96 45.83 22.06 46.52 C 19.80 47.49 18.11 45.55 16.01 45.58 C 11.84 42.94 13.64 50.07 16.06 46.41 C 15.51 49.50 17.72 51.83 13.63 53.20 C 14.48 47.46 8.75 49.12 6.30 52.36 C 3.69 51.47 1.97 49.25 0.00 47.47 L 0.00 43.53 C 2.64 43.90 3.39 46.48 4.93 48.24 C 4.97 45.53 0.98 40.72 5.70 40.64 C 6.57 37.25 -0.83 35.79 3.79 33.46 C 2.84 32.11 1.35 31.32 0.00 30.44 L 0.00 26.79 C 0.59 27.55 1.21 28.29 1.86 29.00 C 4.96 25.32 11.15 25.50 14.93 27.74 C 14.90 26.05 15.03 24.53 16.91 25.80 C 19.97 31.36 21.86 23.03 23.88 20.63 M 17.23 31.84 C 17.83 35.47 15.39 35.21 12.79 34.24 C 12.85 39.40 22.25 34.94 17.23 31.84 M 18.87 39.17 C 20.88 38.39 25.30 39.13 25.03 36.11 C 21.80 37.04 18.22 33.33 18.87 39.17 M 33.34 35.24 C 30.46 41.79 38.06 35.60 33.34 35.24 M 13.87 40.96 C 15.60 40.61 20.07 42.34 18.87 39.17 C 16.66 37.39 14.98 38.83 13.87 40.96 M 35.23 39.28 C 33.78 40.58 31.95 41.90 31.88 44.03 C 33.89 43.61 39.22 40.06 35.23 39.28 M 9.10 41.10 C 4.87 46.62 16.98 42.91 9.10 41.10 M 29.22 52.10 C 28.75 53.40 27.20 55.36 29.61 55.44 C 32.77 57.18 32.52 50.72 29.22 52.10 Z" />
</g>
<g id="#719189ff">
<path fill="#719189" opacity="1.00" d=" M 42.17 18.78 C 42.16 12.91 46.68 22.60 48.33 17.87 C 48.91 19.20 48.58 20.47 47.70 21.57 C 42.57 21.96 44.91 26.71 44.99 30.14 C 44.24 28.82 43.47 27.44 42.09 26.67 C 41.96 25.50 41.83 24.33 41.70 23.16 C 40.51 20.10 45.58 21.62 42.17 18.78 Z" />
</g>
<g id="#666e3bff">
<path fill="#666e3b" opacity="1.00" d=" M 16.91 25.80 C 15.98 21.79 20.54 19.74 23.88 20.63 C 21.86 23.03 19.97 31.36 16.91 25.80 Z" />
</g>
<g id="#7fb6e0ff">
<path fill="#7fb6e0" opacity="1.00" d=" M 44.99 30.14 C 44.91 26.71 42.57 21.96 47.70 21.57 C 43.16 27.19 47.86 34.87 53.47 37.52 C 56.47 40.97 62.90 49.11 55.20 51.11 C 55.61 46.53 53.15 36.85 47.97 37.87 C 45.67 36.00 45.78 32.79 44.99 30.14 Z" />
</g>
<g id="#4f634eff">
<path fill="#4f634e" opacity="1.00" d=" M 42.09 26.67 C 43.47 27.44 44.24 28.82 44.99 30.14 C 45.78 32.79 45.67 36.00 47.97 37.87 C 48.08 41.24 51.08 43.62 51.01 46.94 C 47.59 48.68 49.48 44.09 47.06 44.63 C 41.99 43.95 37.42 34.41 44.65 33.64 C 43.37 31.48 41.84 29.33 42.09 26.67 Z" />
</g>
<g id="#487057ff">
<path fill="#487057" opacity="1.00" d=" M 112.58 38.60 C 112.65 33.31 117.26 31.38 121.12 28.97 C 125.47 30.16 123.06 39.00 127.85 35.57 C 130.56 36.52 132.99 34.48 134.07 37.62 C 129.11 36.66 133.86 44.59 128.37 42.94 C 129.08 40.27 124.43 35.03 125.67 40.27 C 123.83 40.15 124.14 38.24 123.81 36.92 C 122.23 36.27 116.21 34.98 116.67 39.10 C 117.17 41.96 114.35 40.17 112.74 40.13 C 110.34 41.27 107.89 42.03 105.23 41.30 C 104.13 43.18 103.29 45.46 100.88 45.96 C 101.59 44.64 102.31 43.34 103.01 42.01 C 104.72 38.17 109.27 39.52 112.58 38.60 Z" />
</g>
<g id="#68703dff">
<path fill="#68703d" opacity="1.00" d=" M 0.00 30.44 C 1.35 31.32 2.84 32.11 3.79 33.46 C -0.83 35.79 6.57 37.25 5.70 40.64 C 0.98 40.72 4.97 45.53 4.93 48.24 C 3.39 46.48 2.64 43.90 0.00 43.53 L 0.00 30.44 Z" />
</g>
<g id="#606a43ff">
<path fill="#606a43" opacity="1.00" d=" M 17.23 31.84 C 22.25 34.94 12.85 39.40 12.79 34.24 C 15.39 35.21 17.83 35.47 17.23 31.84 Z" />
</g>
<g id="#b7b2b3ff">
<path fill="#b7b2b3" opacity="1.00" d=" M 243.25 33.28 C 245.77 29.73 248.50 34.37 250.00 36.42 L 250.00 65.36 C 247.28 55.77 247.77 46.14 247.82 36.26 C 244.91 32.63 241.86 36.50 241.20 39.70 C 239.75 40.01 238.30 40.32 236.85 40.66 C 233.51 38.81 229.75 39.19 226.15 40.26 C 226.38 39.68 226.86 38.52 227.09 37.95 C 233.25 38.10 240.56 41.03 243.25 33.28 Z" />
</g>
<g id="#606f47ff">
<path fill="#606f47" opacity="1.00" d=" M 18.87 39.17 C 18.22 33.33 21.80 37.04 25.03 36.11 C 25.30 39.13 20.88 38.39 18.87 39.17 Z" />
</g>
<g id="#5e7265ff">
<path fill="#5e7265" opacity="1.00" d=" M 33.34 35.24 C 38.06 35.60 30.46 41.79 33.34 35.24 Z" />
</g>
<g id="#cb9167ff">
<path fill="#cb9167" opacity="1.00" d=" M 241.20 39.70 C 241.86 36.50 244.91 32.63 247.82 36.26 C 247.77 46.14 247.28 55.77 250.00 65.36 L 250.00 67.58 C 245.21 67.96 253.59 76.85 243.77 71.99 C 249.93 68.84 241.84 65.01 243.73 59.31 C 243.29 52.80 244.71 45.54 241.20 39.70 Z" />
</g>
<g id="#1d311eff">
<path fill="#1d311e" opacity="1.00" d=" M 116.67 39.10 C 116.21 34.98 122.23 36.27 123.81 36.92 C 121.67 37.92 120.18 39.15 122.68 40.81 C 118.93 42.39 119.67 48.34 124.08 48.25 C 121.21 48.40 118.20 48.98 117.59 52.08 C 116.95 50.73 114.18 49.41 116.00 47.99 C 119.11 44.75 112.61 43.45 112.74 40.13 C 114.35 40.17 117.17 41.96 116.67 39.10 Z" />
</g>
<g id="#90bcdbff">
<path fill="#90bcdb" opacity="1.00" d=" M 168.78 41.87 C 182.00 38.40 195.83 33.81 209.30 38.74 C 215.22 39.53 221.12 37.24 227.09 37.95 C 226.86 38.52 226.38 39.68 226.15 40.26 C 222.17 40.20 218.19 40.18 214.22 40.22 C 209.16 40.27 204.15 39.63 199.18 38.72 C 188.92 37.16 179.14 42.83 168.78 41.87 Z" />
</g>
<g id="#618088ff">
<path fill="#618088" opacity="1.00" d=" M 47.97 37.87 C 53.15 36.85 55.61 46.53 55.20 51.11 C 54.66 51.35 53.57 51.84 53.03 52.08 C 53.82 43.42 48.04 52.30 47.94 56.18 C 47.33 54.06 46.12 52.85 43.85 53.46 C 43.53 50.92 44.84 48.90 45.90 46.83 C 46.19 46.28 46.77 45.18 47.06 44.63 C 49.48 44.09 47.59 48.68 51.01 46.94 C 51.08 43.62 48.08 41.24 47.97 37.87 Z" />
</g>
<g id="#3c5637ff">
<path fill="#3c5637" opacity="1.00" d=" M 122.68 40.81 C 120.18 39.15 121.67 37.92 123.81 36.92 C 124.14 38.24 123.83 40.15 125.67 40.27 C 124.43 35.03 129.08 40.27 128.37 42.94 C 133.86 44.59 129.11 36.66 134.07 37.62 L 134.81 38.00 C 135.55 38.67 136.28 39.35 136.98 40.06 C 136.68 42.09 136.18 44.16 136.87 46.16 C 136.14 46.69 135.42 47.22 134.70 47.76 C 133.70 48.36 132.73 49.00 131.76 49.64 C 130.28 50.07 128.80 50.51 127.31 50.87 C 126.80 49.41 125.46 48.68 124.08 48.25 C 119.67 48.34 118.93 42.39 122.68 40.81 Z" />
</g>
<g id="#7d8a51ff">
<path fill="#7d8a51" opacity="1.00" d=" M 13.87 40.96 C 14.98 38.83 16.66 37.39 18.87 39.17 C 20.07 42.34 15.60 40.61 13.87 40.96 Z" />
</g>
<g id="#9bada2ff">
<path fill="#9bada2" opacity="1.00" d=" M 168.78 41.87 C 179.14 42.83 188.92 37.16 199.18 38.72 L 199.33 39.53 C 182.73 40.70 166.10 44.76 149.73 48.30 C 146.38 48.48 142.81 48.33 139.76 49.92 C 138.11 50.76 136.28 51.00 134.46 51.16 C 133.79 50.78 132.44 50.02 131.76 49.64 C 132.73 49.00 133.70 48.36 134.70 47.76 C 146.26 48.10 157.73 45.06 168.78 41.87 Z" />
</g>
<g id="#65776fff">
<path fill="#65776f" opacity="1.00" d=" M 35.23 39.28 C 39.22 40.06 33.89 43.61 31.88 44.03 C 31.95 41.90 33.78 40.58 35.23 39.28 Z" />
</g>
<g id="#908656ff">
<path fill="#908656" opacity="1.00" d=" M 149.73 48.30 C 166.10 44.76 182.73 40.70 199.33 39.53 C 199.53 39.89 199.94 40.62 200.14 40.98 C 202.55 44.36 197.55 41.03 197.50 44.02 C 195.31 43.47 193.24 42.47 191.01 42.12 C 177.39 44.36 163.53 49.64 149.73 48.30 Z" />
</g>
<g id="#ddeaebff">
<path fill="#ddeaeb" opacity="1.00" d=" M 199.18 38.72 C 204.15 39.63 209.16 40.27 214.22 40.22 C 209.55 40.11 204.73 42.79 200.14 40.98 C 199.94 40.62 199.53 39.89 199.33 39.53 L 199.18 38.72 Z" />
</g>
<g id="#96835bff">
<path fill="#96835b" opacity="1.00" d=" M 226.15 40.26 C 229.75 39.19 233.51 38.81 236.85 40.66 C 239.56 43.42 236.10 44.74 233.73 45.46 C 233.07 44.45 232.42 43.43 231.69 42.45 C 220.98 43.01 210.62 45.97 199.99 47.13 C 200.06 46.38 200.19 44.89 200.26 44.15 C 208.90 42.92 217.69 42.56 226.15 40.26 Z" />
</g>
<g id="#475f29ff">
<path fill="#475f29" opacity="1.00" d=" M 105.23 41.30 C 107.89 42.03 110.34 41.27 112.74 40.13 C 112.61 43.45 119.11 44.75 116.00 47.99 C 114.18 49.41 116.95 50.73 117.59 52.08 L 118.04 52.86 C 112.60 53.40 107.23 54.37 101.83 55.14 C 101.15 55.07 99.78 54.92 99.09 54.85 C 98.06 53.54 96.31 53.61 94.90 54.14 C 94.20 54.07 92.81 53.93 92.11 53.86 C 91.12 52.45 89.27 52.64 87.88 53.25 C 85.57 52.84 83.29 52.32 80.99 51.87 C 81.01 49.99 81.04 48.11 81.15 46.23 C 83.34 45.51 85.51 44.75 87.65 43.89 C 90.43 45.22 93.22 43.21 96.07 43.05 C 96.33 43.26 96.85 43.67 97.11 43.88 C 98.18 44.86 99.50 45.52 100.88 45.96 C 103.29 45.46 104.13 43.18 105.23 41.30 Z" />
</g>
<g id="#497a81ff">
<path fill="#497a81" opacity="1.00" d=" M 136.98 40.06 C 140.60 41.94 143.07 45.92 136.87 46.16 C 136.18 44.16 136.68 42.09 136.98 40.06 Z" />
</g>
<g id="#bdb69fff">
<path fill="#bdb69f" opacity="1.00" d=" M 214.22 40.22 C 218.19 40.18 222.17 40.20 226.15 40.26 C 217.69 42.56 208.90 42.92 200.26 44.15 C 200.19 44.89 200.06 46.38 199.99 47.13 C 199.71 47.41 199.15 47.96 198.87 48.24 C 198.55 48.02 197.92 47.57 197.60 47.35 C 197.54 46.24 197.51 45.13 197.50 44.02 C 197.55 41.03 202.55 44.36 200.14 40.98 C 204.73 42.79 209.55 40.11 214.22 40.22 Z" />
</g>
<g id="#f2e8dfff">
<path fill="#f2e8df" opacity="1.00" d=" M 236.85 40.66 C 238.30 40.32 239.75 40.01 241.20 39.70 C 244.71 45.54 243.29 52.80 243.73 59.31 C 242.74 58.44 241.79 57.54 240.86 56.61 C 239.51 54.23 237.92 52.04 236.10 50.01 C 235.08 48.62 234.27 47.10 233.73 45.46 C 236.10 44.74 239.56 43.42 236.85 40.66 Z" />
</g>
<g id="#5a634fff">
<path fill="#5a634f" opacity="1.00" d=" M 9.10 41.10 C 16.98 42.91 4.87 46.62 9.10 41.10 Z" />
</g>
<g id="#649f8cff">
<path fill="#649f8c" opacity="1.00" d=" M 87.65 43.89 C 90.01 42.24 93.43 40.66 96.07 43.05 C 93.22 43.21 90.43 45.22 87.65 43.89 Z" />
</g>
<g id="#6c9e8fff">
<path fill="#6c9e8f" opacity="1.00" d=" M 97.11 43.88 C 99.09 43.30 101.08 42.74 103.01 42.01 C 102.31 43.34 101.59 44.64 100.88 45.96 C 99.50 45.52 98.18 44.86 97.11 43.88 Z" />
</g>
<g id="#a59b7cff">
<path fill="#a59b7c" opacity="1.00" d=" M 149.73 48.30 C 163.53 49.64 177.39 44.36 191.01 42.12 C 193.24 42.47 195.31 43.47 197.50 44.02 C 197.51 45.13 197.54 46.24 197.60 47.35 C 192.40 43.50 175.90 43.33 181.92 53.34 C 181.68 53.47 181.20 53.74 180.97 53.88 C 179.99 53.81 179.01 53.76 178.03 53.76 C 177.98 52.36 177.86 49.56 177.81 48.16 C 169.31 48.36 160.60 49.76 152.54 51.91 C 150.49 53.00 151.31 55.11 152.22 56.70 L 151.36 56.92 C 151.08 56.62 150.54 56.02 150.27 55.72 C 149.71 54.26 148.32 48.45 148.02 52.87 C 148.45 55.63 142.47 55.19 147.16 56.39 C 141.70 56.00 143.08 61.39 143.01 65.28 L 142.35 64.81 C 141.68 63.55 141.02 62.28 140.42 60.98 C 141.57 57.21 141.43 52.97 143.79 49.67 C 140.48 49.68 139.83 55.93 139.76 49.92 C 142.81 48.33 146.38 48.48 149.73 48.30 Z" />
</g>
<g id="#b5a27eff">
<path fill="#b5a27e" opacity="1.00" d=" M 199.99 47.13 C 210.62 45.97 220.98 43.01 231.69 42.45 C 232.42 43.43 233.07 44.45 233.73 45.46 C 234.27 47.10 235.08 48.62 236.10 50.01 C 235.11 49.67 234.12 49.32 233.14 48.96 C 233.47 41.54 223.61 46.49 219.69 46.65 C 216.39 47.20 213.11 47.76 209.79 48.02 C 206.20 47.81 202.05 50.33 198.87 48.24 C 199.15 47.96 199.71 47.41 199.99 47.13 Z" />
</g>
<g id="#69706dff">
<path fill="#69706d" opacity="1.00" d=" M 16.06 46.41 C 13.64 50.07 11.84 42.94 16.01 45.58 L 16.06 46.41 Z" />
</g>
<g id="#14190aff">
<path fill="#14190a" opacity="1.00" d=" M 16.01 45.58 C 18.11 45.55 19.80 47.49 22.06 46.52 C 23.07 48.69 21.36 50.92 22.27 53.03 C 20.90 57.94 26.69 57.80 29.91 58.13 C 29.46 60.97 28.90 63.96 32.65 64.20 C 31.50 57.99 36.09 68.17 38.29 63.24 C 37.40 65.64 40.13 64.93 41.59 65.10 C 40.20 61.36 45.30 62.90 44.17 66.02 C 41.15 65.19 31.32 71.53 32.54 65.62 C 29.81 71.40 22.46 69.48 17.40 71.33 C 13.17 74.08 25.76 71.86 20.08 79.00 C 20.03 80.28 19.98 81.57 19.92 82.85 L 19.09 83.19 C 18.53 83.38 17.42 83.78 16.86 83.98 L 16.11 84.01 C 13.33 79.98 8.24 83.17 5.04 80.24 C 6.04 84.31 3.04 84.65 0.00 83.17 L 0.00 76.00 C 2.88 73.28 7.47 75.28 10.18 72.25 C 17.01 69.51 4.04 65.06 4.67 70.09 C 10.14 73.63 3.49 72.52 0.00 72.72 L 0.00 53.73 C 4.33 53.84 4.52 58.67 8.90 58.38 C 9.08 60.78 3.77 62.85 7.55 64.46 C 8.93 66.01 11.62 66.78 11.27 63.80 C 10.39 59.98 15.73 61.70 16.00 58.08 C 13.97 57.36 11.95 57.58 10.09 58.61 C 6.17 52.85 16.57 59.49 17.16 54.57 C 13.65 53.39 9.23 54.64 6.30 52.36 C 8.75 49.12 14.48 47.46 13.63 53.20 C 17.72 51.83 15.51 49.50 16.06 46.41 L 16.01 45.58 Z" />
</g>
<g id="#5f6739ff">
<path fill="#5f6739" opacity="1.00" d=" M 26.39 44.79 C 33.08 44.20 26.83 59.23 22.27 53.03 C 21.36 50.92 23.07 48.69 22.06 46.52 C 23.96 45.83 27.80 48.29 26.39 44.79 Z" />
</g>
<g id="#7f5838ff">
<path fill="#7f5838" opacity="1.00" d=" M 181.92 53.34 C 175.90 43.33 192.40 43.50 197.60 47.35 C 197.92 47.57 198.55 48.02 198.87 48.24 C 202.05 50.33 206.20 47.81 209.79 48.02 C 209.56 50.24 209.93 52.46 210.18 54.66 C 207.28 56.69 203.76 56.83 200.36 56.78 C 201.19 51.87 196.21 50.73 193.41 48.32 C 192.89 54.14 185.60 50.79 181.92 53.34 Z" />
</g>
<g id="#79553bff">
<path fill="#79553b" opacity="1.00" d=" M 219.69 46.65 C 223.61 46.49 233.47 41.54 233.14 48.96 C 233.13 49.41 233.11 50.31 233.10 50.76 C 229.10 50.26 225.92 54.14 221.73 53.92 C 221.91 51.28 221.81 48.56 219.69 46.65 Z" />
</g>
<g id="#8bb6d5ff">
<path fill="#8bb6d5" opacity="1.00" d=" M 75.13 50.28 C 81.10 53.34 78.64 47.32 81.15 46.23 C 81.04 48.11 81.01 49.99 80.99 51.87 C 79.57 51.27 63.52 53.16 72.20 54.38 C 65.41 58.85 56.97 60.19 50.79 65.82 C 49.54 65.84 48.31 65.65 47.08 65.49 C 45.51 61.42 45.63 60.44 48.79 63.80 C 55.74 62.85 50.88 59.45 47.94 56.18 C 48.04 52.30 53.82 43.42 53.03 52.08 C 52.46 54.01 51.93 55.98 51.95 58.01 C 60.98 59.86 66.40 50.29 75.13 50.28 Z" />
</g>
<g id="#39525aff">
<path fill="#39525a" opacity="1.00" d=" M 40.86 50.67 C 43.47 50.70 43.35 47.20 45.90 46.83 C 44.84 48.90 43.53 50.92 43.85 53.46 C 46.12 52.85 47.33 54.06 47.94 56.18 C 50.88 59.45 55.74 62.85 48.79 63.80 C 45.63 60.44 45.51 61.42 47.08 65.49 C 46.11 65.67 45.14 65.85 44.17 66.02 C 45.30 62.90 40.20 61.36 41.59 65.10 C 40.13 64.93 37.40 65.64 38.29 63.24 C 38.27 60.83 37.64 58.35 40.95 59.78 C 46.21 58.76 42.35 53.57 40.86 50.67 Z" />
</g>
<g id="#676e6eff">
<path fill="#676e6e" opacity="1.00" d=" M 209.79 48.02 C 213.11 47.76 216.39 47.20 219.69 46.65 C 221.81 48.56 221.91 51.28 221.73 53.92 C 221.54 55.93 221.32 57.93 221.07 59.93 C 213.15 61.83 217.88 52.26 215.08 48.85 C 215.11 52.26 216.47 61.37 210.53 56.95 C 210.44 56.38 210.27 55.23 210.18 54.66 C 209.93 52.46 209.56 50.24 209.79 48.02 Z" />
</g>
<g id="#64683cff">
<path fill="#64683c" opacity="1.00" d=" M 0.00 47.47 C 1.97 49.25 3.69 51.47 6.30 52.36 C 9.23 54.64 13.65 53.39 17.16 54.57 C 16.57 59.49 6.17 52.85 10.09 58.61 C 11.95 57.58 13.97 57.36 16.00 58.08 C 15.73 61.70 10.39 59.98 11.27 63.80 C 11.62 66.78 8.93 66.01 7.55 64.46 C 3.77 62.85 9.08 60.78 8.90 58.38 C 4.52 58.67 4.33 53.84 0.00 53.73 L 0.00 47.47 Z" />
</g>
<g id="#64735fff">
<path fill="#64735f" opacity="1.00" d=" M 124.08 48.25 C 125.46 48.68 126.80 49.41 127.31 50.87 C 124.24 51.66 121.17 52.44 118.04 52.86 L 117.59 52.08 C 118.20 48.98 121.21 48.40 124.08 48.25 Z" />
</g>
<g id="#6a7a7bff">
<path fill="#6a7a7b" opacity="1.00" d=" M 152.54 51.91 C 160.60 49.76 169.31 48.36 177.81 48.16 C 177.86 49.56 177.98 52.36 178.03 53.76 C 179.43 60.53 178.50 65.63 170.95 64.86 C 172.88 56.45 166.80 57.63 169.12 65.32 C 163.38 62.87 169.71 50.19 162.42 54.51 C 160.60 49.47 154.70 56.63 152.54 51.91 Z" />
</g>
<g id="#d69664ff">
<path fill="#d69664" opacity="1.00" d=" M 193.41 48.32 C 196.21 50.73 201.19 51.87 200.36 56.78 C 203.76 56.83 207.28 56.69 210.18 54.66 C 210.27 55.23 210.44 56.38 210.53 56.95 C 210.26 58.55 210.01 60.16 209.75 61.76 C 206.99 65.17 214.00 62.54 216.09 63.00 C 219.01 62.77 212.28 65.53 214.89 65.89 C 219.81 66.08 219.43 73.69 224.98 72.18 C 220.12 68.70 228.48 68.98 231.20 68.42 C 227.95 65.82 227.36 64.25 232.40 64.81 C 232.87 68.82 233.08 72.87 232.88 76.90 C 222.71 73.27 211.97 76.91 201.73 78.26 C 206.47 81.70 210.99 82.54 215.58 78.73 C 214.03 84.58 222.41 78.37 224.99 81.09 C 220.98 87.73 211.49 84.49 205.14 84.70 C 202.09 83.23 202.01 85.47 202.15 87.94 C 199.81 87.63 200.22 85.63 200.59 83.90 C 198.06 84.15 195.57 84.71 193.06 85.14 C 197.51 87.58 196.99 89.86 192.08 90.84 C 188.50 89.90 184.77 90.37 181.11 90.18 C 181.03 86.50 181.03 82.83 180.80 79.16 C 182.18 75.76 183.36 70.74 186.92 69.73 C 185.63 68.62 180.08 66.55 183.84 65.63 C 183.00 65.03 182.13 64.48 181.27 63.92 C 181.12 60.57 181.03 57.23 180.97 53.88 C 181.20 53.74 181.68 53.47 181.92 53.34 C 185.60 50.79 192.89 54.14 193.41 48.32 M 187.43 54.50 C 181.46 55.11 186.51 55.83 188.65 58.10 C 187.15 61.47 192.31 60.23 190.50 57.32 C 185.35 56.11 200.39 51.32 187.43 54.50 Z" />
</g>
<g id="#c4b9a2ff">
<path fill="#c4b9a2" opacity="1.00" d=" M 215.08 48.85 C 217.88 52.26 213.15 61.83 221.07 59.93 C 220.53 64.19 213.08 60.43 209.75 61.76 C 210.01 60.16 210.26 58.55 210.53 56.95 C 216.47 61.37 215.11 52.26 215.08 48.85 Z" />
</g>
<g id="#ebc19cff">
<path fill="#ebc19c" opacity="1.00" d=" M 233.14 48.96 C 234.12 49.32 235.11 49.67 236.10 50.01 C 237.92 52.04 239.51 54.23 240.86 56.61 C 238.59 59.92 242.94 66.88 239.14 68.94 C 235.36 63.92 239.28 55.87 234.12 51.66 C 234.71 56.69 231.47 64.00 237.06 67.07 C 230.41 69.35 238.58 85.24 233.48 81.47 C 232.71 80.05 232.72 78.47 232.88 76.90 C 233.08 72.87 232.87 68.82 232.40 64.81 C 232.77 60.13 233.05 55.45 233.10 50.76 C 233.11 50.31 233.13 49.41 233.14 48.96 Z" />
</g>
<g id="#9f9f76ff">
<path fill="#9f9f76" opacity="1.00" d=" M 127.31 50.87 C 128.80 50.51 130.28 50.07 131.76 49.64 C 132.44 50.02 133.79 50.78 134.46 51.16 C 124.20 53.86 113.52 54.27 103.26 56.92 C 102.90 56.48 102.19 55.59 101.83 55.14 C 107.23 54.37 112.60 53.40 118.04 52.86 C 121.17 52.44 124.24 51.66 127.31 50.87 Z" />
</g>
<g id="#7b6643ff">
<path fill="#7b6643" opacity="1.00" d=" M 134.46 51.16 C 136.28 51.00 138.11 50.76 139.76 49.92 C 139.83 55.93 140.48 49.68 143.79 49.67 C 141.43 52.97 141.57 57.21 140.42 60.98 C 137.39 58.96 134.38 63.00 130.99 62.14 C 131.31 58.83 131.98 55.15 127.83 55.70 C 130.58 53.44 138.25 56.60 139.23 52.21 C 126.72 54.19 114.02 55.53 101.81 59.00 C 102.17 58.48 102.89 57.44 103.26 56.92 C 113.52 54.27 124.20 53.86 134.46 51.16 Z" />
</g>
<g id="#c98959ff">
<path fill="#c98959" opacity="1.00" d=" M 221.73 53.92 C 225.92 54.14 229.10 50.26 233.10 50.76 C 233.05 55.45 232.77 60.13 232.40 64.81 C 227.36 64.25 227.95 65.82 231.20 68.42 C 228.48 68.98 220.12 68.70 224.98 72.18 C 219.43 73.69 219.81 66.08 214.89 65.89 C 212.28 65.53 219.01 62.77 216.09 63.00 C 214.00 62.54 206.99 65.17 209.75 61.76 C 213.08 60.43 220.53 64.19 221.07 59.93 C 221.32 57.93 221.54 55.93 221.73 53.92 Z" />
</g>
<g id="#d8cfb5ff">
<path fill="#d8cfb5" opacity="1.00" d=" M 148.02 52.87 C 148.32 48.45 149.71 54.26 150.27 55.72 C 149.49 55.88 147.94 56.22 147.16 56.39 C 142.47 55.19 148.45 55.63 148.02 52.87 Z" />
</g>
<g id="#69734cff">
<path fill="#69734c" opacity="1.00" d=" M 29.22 52.10 C 32.52 50.72 32.77 57.18 29.61 55.44 C 27.20 55.36 28.75 53.40 29.22 52.10 Z" />
</g>
<g id="#ecefe9ff">
<path fill="#ecefe9" opacity="1.00" d=" M 72.20 54.38 C 63.52 53.16 79.57 51.27 80.99 51.87 C 83.29 52.32 85.57 52.84 87.88 53.25 C 89.00 54.42 90.69 54.40 92.11 53.86 C 92.81 53.93 94.20 54.07 94.90 54.14 C 95.90 55.48 97.68 55.38 99.09 54.85 C 99.78 54.92 101.15 55.07 101.83 55.14 C 102.19 55.59 102.90 56.48 103.26 56.92 C 101.78 57.09 100.31 57.25 98.87 57.59 C 94.65 58.55 90.43 59.57 86.12 60.06 C 80.96 60.61 75.84 61.51 70.77 62.64 C 64.13 63.80 57.51 65.23 50.79 65.82 C 56.97 60.19 65.41 58.85 72.20 54.38 Z" />
</g>
<g id="#a49b75ff">
<path fill="#a49b75" opacity="1.00" d=" M 101.81 59.00 C 114.02 55.53 126.72 54.19 139.23 52.21 C 138.25 56.60 130.58 53.44 127.83 55.70 C 123.86 56.35 119.92 57.14 115.97 57.87 C 115.24 57.96 113.77 58.14 113.04 58.23 C 109.48 58.80 105.95 59.63 102.69 61.20 C 102.47 60.65 102.03 59.55 101.81 59.00 Z" />
</g>
<g id="#8c9ea1ff">
<path fill="#8c9ea1" opacity="1.00" d=" M 152.22 56.70 C 151.31 55.11 150.49 53.00 152.54 51.91 C 154.70 56.63 160.60 49.47 162.42 54.51 C 169.71 50.19 163.38 62.87 169.12 65.32 C 168.11 65.58 167.10 65.78 166.07 65.94 C 166.34 62.79 162.85 64.15 162.09 66.04 C 159.57 66.47 157.04 66.90 154.49 67.09 C 154.42 63.55 155.13 59.30 152.22 56.70 Z" />
</g>
<g id="#dca574ff">
<path fill="#dca574" opacity="1.00" d=" M 234.12 51.66 C 239.28 55.87 235.36 63.92 239.14 68.94 C 242.94 66.88 238.59 59.92 240.86 56.61 C 241.79 57.54 242.74 58.44 243.73 59.31 C 241.84 65.01 249.93 68.84 243.77 71.99 C 253.59 76.85 245.21 67.96 250.00 67.58 L 250.00 85.29 C 246.21 82.49 252.87 74.29 243.79 78.05 C 241.38 78.62 246.53 80.55 247.94 80.30 C 247.54 82.20 246.16 82.76 244.37 82.45 C 244.38 85.58 242.58 84.27 240.83 83.08 C 239.79 87.64 246.22 85.54 247.50 87.87 C 247.22 91.04 249.47 86.93 250.00 85.91 L 250.00 94.12 C 247.66 90.48 241.67 92.71 244.01 97.87 C 241.62 94.82 235.96 95.61 235.55 99.87 C 235.41 100.41 235.11 101.48 234.97 102.02 C 234.16 100.09 233.24 98.20 231.79 96.67 C 232.66 94.30 237.84 93.97 234.10 91.86 C 233.66 90.89 233.25 89.90 232.87 88.90 C 232.84 87.30 233.78 84.48 231.23 85.57 C 227.64 83.47 221.85 83.48 228.85 82.90 C 224.97 78.56 230.94 79.53 233.48 81.47 C 238.58 85.24 230.41 69.35 237.06 67.07 C 231.47 64.00 234.71 56.69 234.12 51.66 Z" />
</g>
<g id="#a1a597ff">
<path fill="#a1a597" opacity="1.00" d=" M 87.88 53.25 C 89.27 52.64 91.12 52.45 92.11 53.86 C 90.69 54.40 89.00 54.42 87.88 53.25 Z" />
</g>
<g id="#ebe6d8ff">
<path fill="#ebe6d8" opacity="1.00" d=" M 178.03 53.76 C 179.01 53.76 179.99 53.81 180.97 53.88 C 181.03 57.23 181.12 60.57 181.27 63.92 C 181.02 65.73 179.28 66.12 177.86 66.71 C 168.89 66.77 160.07 69.00 151.11 68.97 C 150.99 65.52 150.96 62.07 150.81 58.62 C 150.95 58.19 151.22 57.34 151.36 56.92 L 152.22 56.70 C 155.13 59.30 154.42 63.55 154.49 67.09 C 157.04 66.90 159.57 66.47 162.09 66.04 C 163.43 66.21 164.76 66.18 166.07 65.94 C 167.10 65.78 168.11 65.58 169.12 65.32 C 169.58 65.21 170.49 64.98 170.95 64.86 C 178.50 65.63 179.43 60.53 178.03 53.76 Z" />
</g>
<g id="#989d7aff">
<path fill="#989d7a" opacity="1.00" d=" M 94.90 54.14 C 96.31 53.61 98.06 53.54 99.09 54.85 C 97.68 55.38 95.90 55.48 94.90 54.14 Z" />
</g>
<g id="#b07445ff">
<path fill="#b07445" opacity="1.00" d=" M 187.43 54.50 C 200.39 51.32 185.35 56.11 190.50 57.32 C 192.31 60.23 187.15 61.47 188.65 58.10 C 186.51 55.83 181.46 55.11 187.43 54.50 Z" />
</g>
<g id="#737963ff">
<path fill="#737963" opacity="1.00" d=" M 115.97 57.87 C 119.92 57.14 123.86 56.35 127.83 55.70 C 127.88 56.50 127.98 58.10 128.03 58.90 C 123.17 56.66 118.14 59.83 116.05 64.37 C 116.04 62.21 116.00 60.04 115.97 57.87 Z" />
</g>
<g id="#1f1b1fff">
<path fill="#1f1b1f" opacity="1.00" d=" M 127.83 55.70 C 131.98 55.15 131.31 58.83 130.99 62.14 C 130.30 62.11 128.91 62.05 128.21 62.02 C 128.16 61.24 128.07 59.68 128.03 58.90 C 127.98 58.10 127.88 56.50 127.83 55.70 Z" />
</g>
<g id="#614624ff">
<path fill="#614624" opacity="1.00" d=" M 147.16 56.39 C 147.94 56.22 149.49 55.88 150.27 55.72 C 150.54 56.02 151.08 56.62 151.36 56.92 C 151.22 57.34 150.95 58.19 150.81 58.62 C 147.08 60.49 148.53 67.40 143.06 66.20 L 143.01 65.28 C 143.08 61.39 141.70 56.00 147.16 56.39 Z" />
</g>
<g id="#a79f86ff">
<path fill="#a79f86" opacity="1.00" d=" M 98.87 57.59 C 100.31 57.25 101.78 57.09 103.26 56.92 C 102.89 57.44 102.17 58.48 101.81 59.00 C 101.37 59.29 100.50 59.88 100.06 60.17 C 94.37 62.78 87.94 62.48 81.86 63.21 C 82.41 65.05 84.14 66.09 85.18 67.62 C 84.89 67.98 84.29 68.71 83.99 69.08 L 83.34 68.46 C 80.40 63.93 74.98 70.08 78.21 74.34 C 77.85 75.31 77.49 76.28 77.13 77.25 C 74.11 73.48 81.86 62.78 74.24 63.53 C 73.08 63.22 71.93 62.92 70.77 62.64 C 75.84 61.51 80.96 60.61 86.12 60.06 C 85.36 60.71 84.61 61.38 83.88 62.07 C 89.33 61.69 94.65 60.26 99.92 58.90 C 99.66 58.57 99.13 57.92 98.87 57.59 Z" />
</g>
<g id="#6c6b55ff">
<path fill="#6c6b55" opacity="1.00" d=" M 86.12 60.06 C 90.43 59.57 94.65 58.55 98.87 57.59 C 99.13 57.92 99.66 58.57 99.92 58.90 C 94.65 60.26 89.33 61.69 83.88 62.07 C 84.61 61.38 85.36 60.71 86.12 60.06 Z" />
</g>
<g id="#765b3cff">
<path fill="#765b3c" opacity="1.00" d=" M 102.69 61.20 C 105.95 59.63 109.48 58.80 113.04 58.23 C 112.60 61.39 112.29 64.57 116.05 64.37 C 116.06 64.77 116.08 65.57 116.09 65.97 C 116.11 66.85 116.16 68.61 116.19 69.49 C 113.78 69.83 109.80 71.60 112.63 65.03 C 109.30 62.92 105.65 68.69 103.32 64.74 C 103.11 63.55 102.91 62.38 102.69 61.20 Z" />
</g>
<g id="#1d1b0eff">
<path fill="#1d1b0e" opacity="1.00" d=" M 113.04 58.23 C 113.77 58.14 115.24 57.96 115.97 57.87 C 116.00 60.04 116.04 62.21 116.05 64.37 C 112.29 64.57 112.60 61.39 113.04 58.23 Z" />
</g>
<g id="#899692ff">
<path fill="#899692" opacity="1.00" d=" M 116.05 64.37 C 118.14 59.83 123.17 56.66 128.03 58.90 C 128.07 59.68 128.16 61.24 128.21 62.02 C 127.92 63.69 127.57 65.36 127.10 67.00 C 123.59 66.83 118.37 69.62 116.09 65.97 C 116.08 65.57 116.06 64.77 116.05 64.37 Z" />
</g>
<g id="#ece0c0ff">
<path fill="#ece0c0" opacity="1.00" d=" M 100.06 60.17 C 100.50 59.88 101.37 59.29 101.81 59.00 C 102.03 59.55 102.47 60.65 102.69 61.20 C 102.91 62.38 103.11 63.55 103.32 64.74 C 104.16 70.37 103.12 75.98 102.87 81.61 C 102.35 83.80 101.81 85.99 101.26 88.17 C 100.95 87.79 100.34 87.01 100.03 86.63 L 100.02 85.72 C 100.02 85.00 100.03 83.57 100.03 82.86 C 100.04 80.20 100.02 77.54 99.98 74.88 C 99.98 74.41 99.97 73.46 99.97 72.98 C 100.02 68.71 99.98 64.44 100.06 60.17 Z" />
</g>
<g id="#ca976dff">
<path fill="#ca976d" opacity="1.00" d=" M 143.06 66.20 C 148.53 67.40 147.08 60.49 150.81 58.62 C 150.96 62.07 150.99 65.52 151.11 68.97 C 160.07 69.00 168.89 66.77 177.86 66.71 C 185.52 69.61 168.82 65.09 172.12 70.88 C 176.10 70.74 180.96 72.19 175.93 75.90 C 167.72 76.88 159.46 77.35 151.25 78.26 C 149.59 80.34 150.20 82.89 150.78 85.24 L 150.14 85.19 C 147.64 84.90 145.15 84.58 142.66 84.24 C 142.97 78.23 143.04 72.21 143.06 66.20 Z" />
</g>
<g id="#a4aab0ff">
<path fill="#a4aab0" opacity="1.00" d=" M 169.12 65.32 C 166.80 57.63 172.88 56.45 170.95 64.86 C 170.49 64.98 169.58 65.21 169.12 65.32 Z" />
</g>
<g id="#5e6c63ff">
<path fill="#5e6c63" opacity="1.00" d=" M 81.86 63.21 C 87.94 62.48 94.37 62.78 100.06 60.17 C 99.98 64.44 100.02 68.71 99.97 72.98 C 94.88 75.38 95.81 70.96 94.46 67.62 C 97.91 75.76 87.40 76.26 90.81 67.94 C 86.79 67.84 89.29 72.74 89.06 75.06 C 84.23 75.97 87.00 70.28 85.18 67.62 C 84.14 66.09 82.41 65.05 81.86 63.21 Z" />
</g>
<g id="#c68855ff">
<path fill="#c68855" opacity="1.00" d=" M 130.99 62.14 C 134.38 63.00 137.39 58.96 140.42 60.98 C 141.02 62.28 141.68 63.55 142.35 64.81 C 141.97 67.75 134.67 67.46 140.93 68.17 C 143.52 72.19 140.99 79.88 142.58 85.29 C 141.98 91.98 149.20 90.30 150.14 85.19 L 150.78 85.24 C 151.03 88.14 151.03 91.07 151.10 93.99 C 150.88 95.34 151.16 97.31 149.17 97.00 C 146.27 95.82 142.73 96.97 142.10 100.25 C 142.95 86.24 140.76 103.52 136.30 98.76 C 132.97 98.70 135.27 92.56 131.89 94.92 L 131.78 94.22 C 130.22 90.27 133.86 80.32 128.48 81.94 C 125.52 78.54 117.19 78.37 114.54 82.75 C 110.08 85.19 114.05 92.15 111.99 96.07 C 108.31 97.12 105.75 94.22 108.56 91.28 C 106.52 90.00 102.93 88.57 104.75 85.60 C 106.34 84.05 103.55 82.87 102.87 81.61 C 103.12 75.98 104.16 70.37 103.32 64.74 C 105.65 68.69 109.30 62.92 112.63 65.03 C 109.80 71.60 113.78 69.83 116.19 69.49 C 120.24 69.29 124.35 69.27 128.30 68.23 C 132.38 68.35 132.03 65.04 130.99 62.14 Z" />
</g>
<g id="#7e6c5bff">
<path fill="#7e6c5b" opacity="1.00" d=" M 128.21 62.02 C 128.91 62.05 130.30 62.11 130.99 62.14 C 132.03 65.04 132.38 68.35 128.30 68.23 C 128.00 67.92 127.40 67.30 127.10 67.00 C 127.57 65.36 127.92 63.69 128.21 62.02 Z" />
</g>
<g id="#84795eff">
<path fill="#84795e" opacity="1.00" d=" M 50.79 65.82 C 57.51 65.23 64.13 63.80 70.77 62.64 C 71.93 62.92 73.08 63.22 74.24 63.53 L 74.12 64.68 C 68.41 67.22 61.98 66.39 56.07 68.12 C 58.34 72.47 65.12 64.94 62.97 72.04 C 59.68 69.16 61.01 74.24 60.87 76.95 C 56.89 77.46 61.89 70.33 56.22 70.76 C 55.23 69.75 54.49 67.03 52.82 68.74 C 51.30 69.29 49.75 69.75 48.17 70.11 C 44.94 70.88 39.74 69.43 37.72 73.03 C 36.41 75.55 35.04 78.04 33.45 80.40 C 33.21 80.01 32.73 79.21 32.49 78.82 C 33.46 71.19 22.81 71.36 25.68 80.25 C 25.63 72.74 24.34 74.89 22.89 79.05 C 22.19 79.04 20.78 79.01 20.08 79.00 C 25.76 71.86 13.17 74.08 17.40 71.33 C 22.46 69.48 29.81 71.40 32.54 65.62 C 31.32 71.53 41.15 65.19 44.17 66.02 C 45.14 65.85 46.11 65.67 47.08 65.49 C 48.31 65.65 49.54 65.84 50.79 65.82 M 32.33 70.97 C 30.98 77.73 39.07 70.55 32.33 70.97 Z" />
</g>
<g id="#f3e2c6ff">
<path fill="#f3e2c6" opacity="1.00" d=" M 74.24 63.53 C 81.86 62.78 74.11 73.48 77.13 77.25 C 77.08 79.10 77.11 80.95 77.19 82.81 C 76.78 85.54 78.49 90.04 74.83 90.41 C 74.47 89.33 74.14 88.25 73.84 87.16 C 73.91 83.39 74.05 79.63 73.98 75.87 C 73.98 73.20 73.97 70.53 73.96 67.86 C 74.00 67.07 74.08 65.48 74.12 64.68 L 74.24 63.53 Z" />
</g>
<g id="#4f555bff">
<path fill="#4f555b" opacity="1.00" d=" M 162.09 66.04 C 162.85 64.15 166.34 62.79 166.07 65.94 C 164.76 66.18 163.43 66.21 162.09 66.04 Z" />
</g>
<g id="#dcb089ff">
<path fill="#dcb089" opacity="1.00" d=" M 181.27 63.92 C 182.13 64.48 183.00 65.03 183.84 65.63 C 180.08 66.55 185.63 68.62 186.92 69.73 C 183.36 70.74 182.18 75.76 180.80 79.16 C 180.51 76.40 178.49 75.59 175.93 75.90 C 180.96 72.19 176.10 70.74 172.12 70.88 C 168.82 65.09 185.52 69.61 177.86 66.71 C 179.28 66.12 181.02 65.73 181.27 63.92 Z" />
</g>
<g id="#4c4938ff">
<path fill="#4c4938" opacity="1.00" d=" M 56.07 68.12 C 61.98 66.39 68.41 67.22 74.12 64.68 C 74.08 65.48 74.00 67.07 73.96 67.86 C 67.50 65.20 70.81 77.09 66.06 73.01 C 64.37 71.03 65.03 73.65 65.02 74.87 C 62.93 75.35 63.02 73.56 62.97 72.04 C 65.12 64.94 58.34 72.47 56.07 68.12 Z" />
</g>
<g id="#f8ceadff">
<path fill="#f8cead" opacity="1.00" d=" M 142.35 64.81 L 143.01 65.28 L 143.06 66.20 C 143.04 72.21 142.97 78.23 142.66 84.24 L 142.58 85.29 C 140.99 79.88 143.52 72.19 140.93 68.17 C 134.67 67.46 141.97 67.75 142.35 64.81 Z" />
</g>
<g id="#cab49cff">
<path fill="#cab49c" opacity="1.00" d=" M 116.09 65.97 C 118.37 69.62 123.59 66.83 127.10 67.00 C 127.40 67.30 128.00 67.92 128.30 68.23 C 124.35 69.27 120.24 69.29 116.19 69.49 C 116.16 68.61 116.11 66.85 116.09 65.97 Z" />
</g>
<g id="#585d40ff">
<path fill="#585d40" opacity="1.00" d=" M 4.67 70.09 C 4.04 65.06 17.01 69.51 10.18 72.25 C 7.47 75.28 2.88 73.28 0.00 76.00 L 0.00 72.72 C 3.49 72.52 10.14 73.63 4.67 70.09 Z" />
</g>
<g id="#7a532fff">
<path fill="#7a532f" opacity="1.00" d=" M 78.21 74.34 C 74.98 70.08 80.40 63.93 83.34 68.46 C 82.07 70.78 80.85 73.32 78.21 74.34 Z" />
</g>
<g id="#f7e1c3ff">
<path fill="#f7e1c3" opacity="1.00" d=" M 52.82 68.74 C 54.49 67.03 55.23 69.75 56.22 70.76 C 54.06 77.20 59.84 89.31 53.07 93.16 C 52.91 86.03 53.05 78.90 52.90 71.77 C 52.88 71.01 52.84 69.50 52.82 68.74 Z" />
</g>
<g id="#a38762ff">
<path fill="#a38762" opacity="1.00" d=" M 66.06 73.01 C 70.81 77.09 67.50 65.20 73.96 67.86 C 73.97 70.53 73.98 73.20 73.98 75.87 C 71.68 75.78 69.56 76.14 69.65 78.91 C 67.09 78.63 67.03 75.72 65.02 74.87 C 65.03 73.65 64.37 71.03 66.06 73.01 Z" />
</g>
<g id="#d9caafff">
<path fill="#d9caaf" opacity="1.00" d=" M 83.99 69.08 C 84.29 68.71 84.89 67.98 85.18 67.62 C 87.00 70.28 84.23 75.97 89.06 75.06 C 89.61 75.26 90.71 75.66 91.25 75.86 C 82.76 79.60 85.03 73.62 83.99 69.08 Z" />
</g>
<g id="#969e8fff">
<path fill="#969e8f" opacity="1.00" d=" M 89.06 75.06 C 89.29 72.74 86.79 67.84 90.81 67.94 C 87.40 76.26 97.91 75.76 94.46 67.62 C 95.81 70.96 94.88 75.38 99.97 72.98 C 99.97 73.46 99.98 74.41 99.98 74.88 C 97.06 75.13 94.19 75.79 91.25 75.86 C 90.71 75.66 89.61 75.26 89.06 75.06 Z" />
</g>
<g id="#27271dff">
<path fill="#27271d" opacity="1.00" d=" M 48.17 70.11 C 49.75 69.75 51.30 69.29 52.82 68.74 C 52.84 69.50 52.88 71.01 52.90 71.77 C 52.61 72.00 52.05 72.48 51.76 72.71 C 50.09 73.65 49.80 75.67 48.98 77.24 C 47.72 76.23 46.70 76.95 45.81 78.03 C 46.08 75.14 44.91 71.31 48.17 70.11 Z" />
</g>
<g id="#bf8c60ff">
<path fill="#bf8c60" opacity="1.00" d=" M 78.21 74.34 C 80.85 73.32 82.07 70.78 83.34 68.46 L 83.99 69.08 C 85.03 73.62 82.76 79.60 91.25 75.86 C 94.19 75.79 97.06 75.13 99.98 74.88 C 100.02 77.54 100.04 80.20 100.03 82.86 C 91.59 80.63 84.51 83.43 77.86 87.83 C 77.69 86.57 77.35 84.06 77.19 82.81 C 77.11 80.95 77.08 79.10 77.13 77.25 C 77.49 76.28 77.85 75.31 78.21 74.34 Z" />
</g>
<g id="#634e35ff">
<path fill="#634e35" opacity="1.00" d=" M 37.72 73.03 C 39.74 69.43 44.94 70.88 48.17 70.11 C 44.91 71.31 46.08 75.14 45.81 78.03 C 44.08 70.40 42.99 84.53 41.96 75.90 C 42.43 73.14 38.40 75.73 37.72 73.03 Z" />
</g>
<g id="#daccb4ff">
<path fill="#daccb4" opacity="1.00" d=" M 32.33 70.97 C 39.07 70.55 30.98 77.73 32.33 70.97 Z" />
</g>
<g id="#c89463ff">
<path fill="#c89463" opacity="1.00" d=" M 56.22 70.76 C 61.89 70.33 56.89 77.46 60.87 76.95 C 61.01 74.24 59.68 69.16 62.97 72.04 C 63.02 73.56 62.93 75.35 65.02 74.87 C 67.03 75.72 67.09 78.63 69.65 78.91 C 69.56 76.14 71.68 75.78 73.98 75.87 C 74.05 79.63 73.91 83.39 73.84 87.16 C 72.18 87.64 70.64 87.27 69.34 86.17 C 66.06 86.15 61.38 82.38 60.44 87.67 L 59.98 88.32 C 58.47 90.65 56.98 93.15 54.32 94.33 C 52.85 94.83 51.38 95.38 49.88 95.77 C 49.90 95.33 49.95 94.45 49.97 94.01 C 50.08 92.42 50.22 90.82 50.33 89.23 C 52.42 84.34 42.68 86.60 44.78 89.12 C 44.01 89.84 43.33 90.68 43.50 91.81 C 43.38 93.26 43.62 94.70 43.75 96.13 L 42.74 96.20 C 39.23 96.51 38.94 101.61 37.37 104.23 C 37.67 101.06 36.41 99.22 33.10 99.92 C 32.94 98.20 32.76 96.47 32.57 94.74 C 32.69 93.86 32.84 92.97 33.02 92.10 C 33.48 92.21 34.39 92.42 34.85 92.53 C 36.78 94.09 41.71 95.37 38.35 91.99 C 41.68 87.01 33.82 75.68 41.96 75.90 C 42.99 84.53 44.08 70.40 45.81 78.03 C 46.70 76.95 47.72 76.23 48.98 77.24 C 52.81 79.85 51.99 75.39 51.76 72.71 C 52.05 72.48 52.61 72.00 52.90 71.77 C 53.05 78.90 52.91 86.03 53.07 93.16 C 59.84 89.31 54.06 77.20 56.22 70.76 Z" />
</g>
<g id="#4b5740ff">
<path fill="#4b5740" opacity="1.00" d=" M 25.68 80.25 C 22.81 71.36 33.46 71.19 32.49 78.82 C 32.48 80.30 31.98 81.33 30.98 81.91 C 32.33 77.21 27.54 80.13 25.97 82.05 C 25.90 81.60 25.75 80.70 25.68 80.25 Z" />
</g>
<g id="#cfa37aff">
<path fill="#cfa37a" opacity="1.00" d=" M 33.45 80.40 C 35.04 78.04 36.41 75.55 37.72 73.03 C 38.40 75.73 42.43 73.14 41.96 75.90 C 33.82 75.68 41.68 87.01 38.35 91.99 C 41.71 95.37 36.78 94.09 34.85 92.53 C 39.18 87.26 28.15 89.41 26.06 88.71 C 20.10 86.00 20.48 102.31 27.01 98.78 C 27.97 98.76 28.93 98.77 29.89 98.82 L 29.95 99.90 C 22.74 104.95 23.12 95.40 18.86 96.80 L 18.99 96.02 C 19.74 93.03 20.41 89.96 22.06 87.33 C 18.86 88.86 20.21 84.73 19.92 82.85 C 19.98 81.57 20.03 80.28 20.08 79.00 C 20.78 79.01 22.19 79.04 22.89 79.05 C 20.30 86.26 32.29 85.93 33.45 80.40 Z" />
</g>
<g id="#6f6456ff">
<path fill="#6f6456" opacity="1.00" d=" M 48.98 77.24 C 49.80 75.67 50.09 73.65 51.76 72.71 C 51.99 75.39 52.81 79.85 48.98 77.24 Z" />
</g>
<g id="#efe3c7ff">
<path fill="#efe3c7" opacity="1.00" d=" M 22.89 79.05 C 24.34 74.89 25.63 72.74 25.68 80.25 C 25.75 80.70 25.90 81.60 25.97 82.05 C 26.35 83.96 29.51 81.86 30.98 81.91 C 31.98 81.33 32.48 80.30 32.49 78.82 C 32.73 79.21 33.21 80.01 33.45 80.40 C 32.29 85.93 20.30 86.26 22.89 79.05 Z" />
</g>
<g id="#bc7a4bff">
<path fill="#bc7a4b" opacity="1.00" d=" M 201.73 78.26 C 211.97 76.91 222.71 73.27 232.88 76.90 C 232.72 78.47 232.71 80.05 233.48 81.47 C 230.94 79.53 224.97 78.56 228.85 82.90 C 221.85 83.48 227.64 83.47 231.23 85.57 C 221.64 87.63 211.71 85.32 202.15 87.94 C 202.01 85.47 202.09 83.23 205.14 84.70 C 211.49 84.49 220.98 87.73 224.99 81.09 C 222.41 78.37 214.03 84.58 215.58 78.73 C 210.99 82.54 206.47 81.70 201.73 78.26 Z" />
</g>
<g id="#f2e9d2ff">
<path fill="#f2e9d2" opacity="1.00" d=" M 151.25 78.26 C 159.46 77.35 167.72 76.88 175.93 75.90 C 178.49 75.59 180.51 76.40 180.80 79.16 C 181.03 82.83 181.03 86.50 181.11 90.18 C 180.28 90.20 179.45 90.20 178.61 90.19 C 178.30 86.16 178.16 82.12 177.86 78.10 C 169.72 78.70 161.61 79.65 153.50 80.51 C 153.45 81.69 153.69 82.84 153.87 84.00 C 154.30 86.94 154.90 89.87 155.05 92.85 C 153.73 93.22 152.41 93.58 151.10 93.99 C 151.03 91.07 151.03 88.14 150.78 85.24 C 150.20 82.89 149.59 80.34 151.25 78.26 Z" />
</g>
<g id="#8c9f89ff">
<path fill="#8c9f89" opacity="1.00" d=" M 153.50 80.51 C 161.61 79.65 169.72 78.70 177.86 78.10 C 178.16 82.12 178.30 86.16 178.61 90.19 C 177.14 90.14 175.69 90.28 175.45 92.05 C 177.24 83.70 168.20 88.00 169.57 94.23 C 169.13 92.69 168.66 91.17 168.15 89.66 C 169.48 87.43 172.31 84.86 170.17 82.21 C 165.32 85.22 159.13 82.40 153.87 84.00 C 153.69 82.84 153.45 81.69 153.50 80.51 Z" />
</g>
<g id="#bb8151ff">
<path fill="#bb8151" opacity="1.00" d=" M 247.94 80.30 C 246.53 80.55 241.38 78.62 243.79 78.05 C 252.87 74.29 246.21 82.49 250.00 85.29 L 250.00 85.91 C 249.47 86.93 247.22 91.04 247.50 87.87 C 246.22 85.54 239.79 87.64 240.83 83.08 C 242.58 84.27 244.38 85.58 244.37 82.45 C 246.16 82.76 247.54 82.20 247.94 80.30 Z" />
</g>
<g id="#9aa299ff">
<path fill="#9aa299" opacity="1.00" d=" M 25.97 82.05 C 27.54 80.13 32.33 77.21 30.98 81.91 C 29.51 81.86 26.35 83.96 25.97 82.05 Z" />
</g>
<g id="#d1c2a5ff">
<path fill="#d1c2a5" opacity="1.00" d=" M 114.54 82.75 C 117.19 78.37 125.52 78.54 128.48 81.94 C 123.96 81.98 118.93 85.07 114.54 82.75 Z" />
</g>
<g id="#232e10ff">
<path fill="#232e10" opacity="1.00" d=" M 5.04 80.24 C 8.24 83.17 13.33 79.98 16.11 84.01 C 12.28 87.72 20.17 87.53 16.86 83.98 C 17.42 83.78 18.53 83.38 19.09 83.19 C 19.04 86.52 19.13 89.88 18.86 93.21 C 16.91 92.03 15.60 89.71 13.04 89.80 C 13.35 93.23 16.27 94.64 18.99 96.02 L 18.86 96.80 C 16.80 98.84 15.52 101.69 12.97 103.20 C 14.33 100.89 14.83 98.45 12.59 96.50 C 6.53 97.65 7.31 86.43 0.00 89.30 L 0.00 83.17 C 3.04 84.65 6.04 84.31 5.04 80.24 Z" />
</g>
<g id="#75684aff">
<path fill="#75684a" opacity="1.00" d=" M 128.48 81.94 C 133.86 80.32 130.22 90.27 131.78 94.22 C 130.48 94.27 129.19 94.28 127.90 94.14 C 128.01 90.73 128.27 87.35 128.80 83.99 C 124.76 84.92 117.52 83.37 115.98 86.94 C 116.02 89.76 116.11 92.57 116.25 95.38 C 114.85 95.71 113.43 95.99 111.99 96.07 C 114.05 92.15 110.08 85.19 114.54 82.75 C 118.93 85.07 123.96 81.98 128.48 81.94 Z" />
</g>
<g id="#d0bd95ff">
<path fill="#d0bd95" opacity="1.00" d=" M 77.86 87.83 C 84.51 83.43 91.59 80.63 100.03 82.86 C 100.03 83.57 100.02 85.00 100.02 85.72 C 97.25 85.45 94.45 84.94 91.70 85.55 C 86.63 84.65 83.88 85.66 85.94 90.06 C 85.96 90.79 86.01 92.24 86.04 92.96 C 82.80 93.85 81.49 92.15 81.69 89.03 C 79.11 88.38 77.48 91.02 75.06 91.14 L 74.83 90.41 C 78.49 90.04 76.78 85.54 77.19 82.81 C 77.35 84.06 77.69 86.57 77.86 87.83 Z" />
</g>
<g id="#afa03cff">
<path fill="#afa03c" opacity="1.00" d=" M 101.26 88.17 C 101.81 85.99 102.35 83.80 102.87 81.61 C 103.55 82.87 106.34 84.05 104.75 85.60 C 102.93 88.57 106.52 90.00 108.56 91.28 C 105.75 94.22 108.31 97.12 111.99 96.07 C 113.43 95.99 114.85 95.71 116.25 95.38 C 119.87 95.18 123.51 94.94 127.04 94.09 L 127.90 94.14 C 129.19 94.28 130.48 94.27 131.78 94.22 L 131.89 94.92 C 131.47 97.87 130.38 100.42 127.20 101.04 C 131.75 106.27 123.98 103.39 121.30 102.13 C 120.89 103.74 120.55 105.37 120.13 106.98 C 118.58 108.45 117.08 109.97 115.69 111.58 C 114.50 111.66 113.32 111.80 112.15 111.95 C 112.07 110.24 113.81 109.65 114.83 108.64 C 114.40 105.73 109.80 105.83 110.46 102.69 C 110.37 100.65 108.25 97.30 105.95 98.94 C 105.67 98.10 105.40 97.27 105.13 96.43 C 107.25 93.08 102.78 90.80 101.26 88.17 Z" />
</g>
<g id="#b6ccb8ff">
<path fill="#b6ccb8" opacity="1.00" d=" M 153.87 84.00 C 159.13 82.40 165.32 85.22 170.17 82.21 C 172.31 84.86 169.48 87.43 168.15 89.66 C 167.46 90.76 167.02 91.95 166.83 93.25 C 164.59 91.71 162.47 90.03 160.33 88.37 C 159.71 90.82 157.33 92.18 155.05 92.85 C 154.90 89.87 154.30 86.94 153.87 84.00 Z" />
</g>
<g id="#7e7547ff">
<path fill="#7e7547" opacity="1.00" d=" M 19.09 83.19 L 19.92 82.85 C 20.21 84.73 18.86 88.86 22.06 87.33 C 20.41 89.96 19.74 93.03 18.99 96.02 C 16.27 94.64 13.35 93.23 13.04 89.80 C 15.60 89.71 16.91 92.03 18.86 93.21 C 19.13 89.88 19.04 86.52 19.09 83.19 Z" />
</g>
<g id="#9ba289ff">
<path fill="#9ba289" opacity="1.00" d=" M 16.11 84.01 L 16.86 83.98 C 20.17 87.53 12.28 87.72 16.11 84.01 Z" />
</g>
<g id="#d1b69dff">
<path fill="#d1b69d" opacity="1.00" d=" M 60.44 87.67 C 61.38 82.38 66.06 86.15 69.34 86.17 C 67.24 88.98 63.47 87.54 60.44 87.67 Z" />
</g>
<g id="#8c9a91ff">
<path fill="#8c9a91" opacity="1.00" d=" M 115.98 86.94 C 117.52 83.37 124.76 84.92 128.80 83.99 C 128.27 87.35 128.01 90.73 127.90 94.14 L 127.04 94.09 C 129.52 85.48 119.23 91.13 115.98 86.94 Z" />
</g>
<g id="#6c4a29ff">
<path fill="#6c4a29" opacity="1.00" d=" M 142.66 84.24 C 145.15 84.58 147.64 84.90 150.14 85.19 C 149.20 90.30 141.98 91.98 142.58 85.29 L 142.66 84.24 Z" />
</g>
<g id="#e3b88bff">
<path fill="#e3b88b" opacity="1.00" d=" M 193.06 85.14 C 195.57 84.71 198.06 84.15 200.59 83.90 C 200.22 85.63 199.81 87.63 202.15 87.94 C 211.71 85.32 221.64 87.63 231.23 85.57 C 233.78 84.48 232.84 87.30 232.87 88.90 C 226.67 93.05 218.58 89.58 211.71 91.68 C 207.11 91.88 202.52 92.02 197.92 92.08 C 196.46 91.77 193.54 91.15 192.08 90.84 C 196.99 89.86 197.51 87.58 193.06 85.14 Z" />
</g>
<g id="#919859ff">
<path fill="#919859" opacity="1.00" d=" M 91.70 85.55 C 94.45 84.94 97.25 85.45 100.02 85.72 L 100.03 86.63 C 99.72 90.08 97.01 91.24 94.00 91.86 C 91.92 90.24 89.65 91.44 87.88 92.86 C 87.42 92.89 86.50 92.94 86.04 92.96 C 86.01 92.24 85.96 90.79 85.94 90.06 C 88.46 85.71 93.83 89.15 97.28 86.27 C 95.42 85.99 93.56 85.77 91.70 85.55 Z" />
</g>
<g id="#dbbd99ff">
<path fill="#dbbd99" opacity="1.00" d=" M 44.78 89.12 C 42.68 86.60 52.42 84.34 50.33 89.23 C 48.48 89.17 46.63 89.13 44.78 89.12 Z" />
</g>
<g id="#85814fff">
<path fill="#85814f" opacity="1.00" d=" M 69.34 86.17 C 70.64 87.27 72.18 87.64 73.84 87.16 C 74.14 88.25 74.47 89.33 74.83 90.41 L 75.06 91.14 C 71.22 88.42 59.79 96.01 59.98 88.32 L 60.44 87.67 C 63.47 87.54 67.24 88.98 69.34 86.17 Z" />
</g>
<g id="#515135ff">
<path fill="#515135" opacity="1.00" d=" M 85.94 90.06 C 83.88 85.66 86.63 84.65 91.70 85.55 C 93.56 85.77 95.42 85.99 97.28 86.27 C 93.83 89.15 88.46 85.71 85.94 90.06 Z" />
</g>
<g id="#7b8a26ff">
<path fill="#7b8a26" opacity="1.00" d=" M 94.00 91.86 C 97.01 91.24 99.72 90.08 100.03 86.63 C 100.34 87.01 100.95 87.79 101.26 88.17 C 102.78 90.80 107.25 93.08 105.13 96.43 C 101.49 94.74 97.71 93.37 94.00 91.86 Z" />
</g>
<g id="#dbdbc1ff">
<path fill="#dbdbc1" opacity="1.00" d=" M 115.98 86.94 C 119.23 91.13 129.52 85.48 127.04 94.09 C 123.51 94.94 119.87 95.18 116.25 95.38 C 116.11 92.57 116.02 89.76 115.98 86.94 Z" />
</g>
<g id="#b0c589ff">
<path fill="#b0c589" opacity="1.00" d=" M 169.57 94.23 C 168.20 88.00 177.24 83.70 175.45 92.05 C 175.40 92.57 175.30 93.60 175.25 94.12 C 174.25 95.60 173.17 97.02 172.14 98.48 C 169.97 98.13 170.02 95.91 169.57 94.23 Z" />
</g>
<g id="#f6e1c3ff">
<path fill="#f6e1c3" opacity="1.00" d=" M 27.01 98.78 C 20.48 102.31 20.10 86.00 26.06 88.71 C 28.15 89.41 39.18 87.26 34.85 92.53 C 34.39 92.42 33.48 92.21 33.02 92.10 L 32.31 91.92 C 31.73 88.57 21.92 89.78 24.83 94.06 C 25.36 96.16 28.19 95.41 27.01 98.78 Z" />
</g>
<g id="#5f6a17ff">
<path fill="#5f6a17" opacity="1.00" d=" M 54.32 94.33 C 56.98 93.15 58.47 90.65 59.98 88.32 C 59.79 96.01 71.22 88.42 75.06 91.14 C 77.48 91.02 79.11 88.38 81.69 89.03 C 81.49 92.15 82.80 93.85 86.04 92.96 C 86.50 92.94 87.42 92.89 87.88 92.86 C 87.68 93.15 87.29 93.72 87.09 94.01 C 84.61 95.40 81.92 96.35 79.24 94.85 C 70.89 94.29 62.37 94.18 54.03 95.13 L 54.32 94.33 Z" />
</g>
<g id="#acbd7dff">
<path fill="#acbd7d" opacity="1.00" d=" M 160.33 88.37 C 162.47 90.03 164.59 91.71 166.83 93.25 C 167.27 97.10 163.93 93.26 162.94 91.98 C 162.98 93.60 163.06 95.21 163.14 96.82 C 162.82 97.43 162.17 98.66 161.85 99.28 C 160.30 97.83 159.21 96.02 158.35 94.11 C 158.00 97.11 154.84 97.63 152.67 98.96 C 151.50 98.31 150.33 97.67 149.17 97.00 C 151.16 97.31 150.88 95.34 151.10 93.99 C 152.41 93.58 153.73 93.22 155.05 92.85 C 157.33 92.18 159.71 90.82 160.33 88.37 Z" />
</g>
<g id="#485825ff">
<path fill="#485825" opacity="1.00" d=" M 0.00 89.30 C 7.31 86.43 6.53 97.65 12.59 96.50 C 14.83 98.45 14.33 100.89 12.97 103.20 C 12.01 104.71 12.36 106.44 12.60 108.09 C 9.85 106.50 1.01 103.83 7.72 107.49 C 5.91 112.55 11.49 111.14 14.91 111.53 C 21.03 111.20 17.56 114.21 14.37 116.29 C 16.59 110.87 7.72 115.24 5.51 110.65 C 0.42 110.56 5.28 116.29 8.15 116.96 C 5.43 116.96 2.72 116.96 -0.00 116.99 L 0.00 89.30 Z" />
</g>
<g id="#7b725aff">
<path fill="#7b725a" opacity="1.00" d=" M 44.78 89.12 C 46.63 89.13 48.48 89.17 50.33 89.23 C 50.22 90.82 50.08 92.42 49.97 94.01 C 46.73 96.03 48.82 88.34 43.50 91.81 C 43.33 90.68 44.01 89.84 44.78 89.12 Z" />
</g>
<g id="#9d886bff">
<path fill="#9d886b" opacity="1.00" d=" M 211.71 91.68 C 218.58 89.58 226.67 93.05 232.87 88.90 C 233.25 89.90 233.66 90.89 234.10 91.86 C 227.80 91.95 221.51 91.92 215.22 92.22 C 214.34 92.08 212.59 91.81 211.71 91.68 Z" />
</g>
<g id="#897b67ff">
<path fill="#897b67" opacity="1.00" d=" M 24.83 94.06 C 21.92 89.78 31.73 88.57 32.31 91.92 C 29.89 93.40 26.47 91.26 24.83 94.06 Z" />
</g>
<g id="#72893aff">
<path fill="#72893a" opacity="1.00" d=" M 166.83 93.25 C 167.02 91.95 167.46 90.76 168.15 89.66 C 168.66 91.17 169.13 92.69 169.57 94.23 C 170.02 95.91 169.97 98.13 172.14 98.48 C 171.46 104.63 164.07 101.11 163.14 96.82 C 163.06 95.21 162.98 93.60 162.94 91.98 C 163.93 93.26 167.27 97.10 166.83 93.25 Z" />
</g>
<g id="#838436ff">
<path fill="#838436" opacity="1.00" d=" M 175.45 92.05 C 175.69 90.28 177.14 90.14 178.61 90.19 C 179.45 90.20 180.28 90.20 181.11 90.18 C 184.77 90.37 188.50 89.90 192.08 90.84 C 193.54 91.15 196.46 91.77 197.92 92.08 L 198.04 93.01 C 195.36 93.22 189.28 91.30 191.97 94.97 C 189.14 95.06 186.88 93.99 189.93 91.85 C 185.12 93.40 180.06 93.01 175.25 94.12 C 175.30 93.60 175.40 92.57 175.45 92.05 Z" />
</g>
<g id="#b8b297ff">
<path fill="#b8b297" opacity="1.00" d=" M 43.50 91.81 C 48.82 88.34 46.73 96.03 49.97 94.01 C 49.95 94.45 49.90 95.33 49.88 95.77 C 47.85 96.07 45.79 96.06 43.75 96.13 C 43.62 94.70 43.38 93.26 43.50 91.81 Z" />
</g>
<g id="#3b4d19ff">
<path fill="#3b4d19" opacity="1.00" d=" M 87.88 92.86 C 89.65 91.44 91.92 90.24 94.00 91.86 C 97.71 93.37 101.49 94.74 105.13 96.43 C 105.40 97.27 105.67 98.10 105.95 98.94 C 108.55 108.05 96.78 106.08 92.94 111.65 C 98.88 114.31 105.49 114.11 111.88 113.93 C 117.56 114.16 106.69 119.37 105.12 116.56 C 97.18 114.08 88.86 116.40 82.92 121.81 C 80.88 121.50 78.87 121.05 76.83 120.79 C 83.71 122.41 87.05 114.83 80.40 112.66 C 82.37 117.25 78.18 115.97 75.30 114.84 C 62.81 117.36 49.73 112.85 37.01 115.06 L 35.90 114.82 C 36.91 113.29 36.49 111.35 35.55 109.91 L 35.89 109.03 C 36.56 107.49 36.98 105.86 37.37 104.23 C 38.94 101.61 39.23 96.51 42.74 96.20 C 46.04 97.00 51.27 99.22 53.71 95.99 C 53.83 99.89 61.96 94.55 60.67 99.60 C 57.65 101.51 58.23 102.68 61.66 102.93 C 61.92 94.93 71.59 98.48 76.77 96.64 C 80.10 97.66 87.24 99.16 87.09 94.01 C 87.29 93.72 87.68 93.15 87.88 92.86 Z" />
</g>
<g id="#adb0a3ff">
<path fill="#adb0a3" opacity="1.00" d=" M 24.83 94.06 C 26.47 91.26 29.89 93.40 32.31 91.92 L 33.02 92.10 C 32.84 92.97 32.69 93.86 32.57 94.74 C 30.84 95.52 29.72 96.83 29.89 98.82 C 28.93 98.77 27.97 98.76 27.01 98.78 C 28.19 95.41 25.36 96.16 24.83 94.06 Z" />
</g>
<g id="#4e6120ff">
<path fill="#4e6120" opacity="1.00" d=" M 175.25 94.12 C 180.06 93.01 185.12 93.40 189.93 91.85 C 186.88 93.99 189.14 95.06 191.97 94.97 L 192.89 95.07 C 194.32 97.51 195.72 99.99 196.88 102.57 C 195.35 106.91 196.91 111.53 197.17 115.99 C 200.24 117.43 199.64 117.81 196.53 119.99 C 196.17 120.03 195.45 120.09 195.09 120.12 C 194.26 118.70 192.92 118.47 191.42 118.75 C 193.74 114.39 180.69 114.93 185.86 111.63 C 183.42 110.54 181.10 109.04 181.95 105.94 C 186.01 105.42 189.94 112.93 192.07 107.03 C 190.67 104.02 188.45 101.44 187.44 98.24 C 183.20 99.86 177.07 97.50 180.10 104.04 C 175.68 99.14 167.50 105.00 167.82 110.14 C 164.13 112.61 165.61 107.84 163.69 105.76 C 162.08 103.55 160.77 103.28 161.58 106.39 C 160.57 104.37 155.46 100.15 158.84 99.12 C 160.03 100.06 161.35 101.61 161.85 99.28 C 162.17 98.66 162.82 97.43 163.14 96.82 C 164.07 101.11 171.46 104.63 172.14 98.48 C 173.17 97.02 174.25 95.60 175.25 94.12 Z" />
</g>
<g id="#483a25ff">
<path fill="#483a25" opacity="1.00" d=" M 197.92 92.08 C 202.52 92.02 207.11 91.88 211.71 91.68 C 212.59 91.81 214.34 92.08 215.22 92.22 C 209.53 93.06 203.77 93.08 198.04 93.01 L 197.92 92.08 Z" />
</g>
<g id="#0d0c08ff">
<path fill="#0d0c08" opacity="1.00" d=" M 215.22 92.22 C 221.51 91.92 227.80 91.95 234.10 91.86 C 237.84 93.97 232.66 94.30 231.79 96.67 C 231.57 96.93 231.14 97.44 230.92 97.69 C 222.30 100.80 231.12 115.74 224.21 119.19 C 227.29 108.85 219.60 114.15 221.83 118.84 C 215.92 119.23 210.02 119.78 204.09 119.96 C 203.81 113.79 204.19 107.57 202.97 101.48 C 197.63 103.36 198.29 93.69 192.89 95.07 L 191.97 94.97 C 189.28 91.30 195.36 93.22 198.04 93.01 C 203.77 93.08 209.53 93.06 215.22 92.22 M 219.01 109.01 C 218.93 110.67 218.93 112.33 219.01 113.99 C 222.85 113.77 222.85 109.22 219.01 109.01 Z" />
</g>
<g id="#a39232ff">
<path fill="#a39232" opacity="1.00" d=" M 244.01 97.87 C 241.67 92.71 247.66 90.48 250.00 94.12 L 250.00 106.01 C 246.67 102.85 236.75 110.91 240.65 104.12 C 240.10 101.28 236.01 102.73 235.55 99.87 C 235.96 95.61 241.62 94.82 244.01 97.87 Z" />
</g>
<g id="#8b8d42ff">
<path fill="#8b8d42" opacity="1.00" d=" M 49.88 95.77 C 51.38 95.38 52.85 94.83 54.32 94.33 L 54.03 95.13 L 53.71 95.99 C 51.27 99.22 46.04 97.00 42.74 96.20 L 43.75 96.13 C 45.79 96.06 47.85 96.07 49.88 95.77 Z" />
</g>
<g id="#273a07ff">
<path fill="#273a07" opacity="1.00" d=" M 54.03 95.13 C 62.37 94.18 70.89 94.29 79.24 94.85 C 81.92 96.35 84.61 95.40 87.09 94.01 C 87.24 99.16 80.10 97.66 76.77 96.64 C 71.59 98.48 61.92 94.93 61.66 102.93 C 58.23 102.68 57.65 101.51 60.67 99.60 C 61.96 94.55 53.83 99.89 53.71 95.99 L 54.03 95.13 Z" />
</g>
<g id="#8d902dff">
<path fill="#8d902d" opacity="1.00" d=" M 131.89 94.92 C 135.27 92.56 132.97 98.70 136.30 98.76 C 140.76 103.52 142.95 86.24 142.10 100.25 C 142.73 96.97 146.27 95.82 149.17 97.00 C 150.33 97.67 151.50 98.31 152.67 98.96 C 158.74 102.38 149.42 99.98 146.66 101.69 C 144.75 102.32 144.99 104.67 144.12 106.16 C 143.90 102.68 140.29 101.02 137.22 100.70 C 139.60 104.07 136.67 108.82 144.12 106.16 C 142.85 107.01 138.81 111.32 142.30 110.35 C 144.50 109.37 143.22 112.83 143.78 114.03 C 139.07 114.70 146.59 116.99 145.24 119.31 C 142.24 120.55 136.97 117.49 135.77 120.88 C 135.29 120.72 134.32 120.38 133.84 120.22 L 132.92 119.90 C 133.29 116.70 135.92 114.75 137.18 112.01 C 135.01 113.80 129.80 113.06 130.27 116.79 C 129.60 121.03 127.23 118.08 128.80 115.17 C 120.03 117.70 125.40 110.04 129.20 112.80 C 127.29 109.72 123.01 109.06 120.13 106.98 C 120.55 105.37 120.89 103.74 121.30 102.13 C 123.98 103.39 131.75 106.27 127.20 101.04 C 130.38 100.42 131.47 97.87 131.89 94.92 Z" />
</g>
<g id="#718527ff">
<path fill="#718527" opacity="1.00" d=" M 158.35 94.11 C 159.21 96.02 160.30 97.83 161.85 99.28 C 161.35 101.61 160.03 100.06 158.84 99.12 C 155.46 100.15 160.57 104.37 161.58 106.39 C 160.77 103.28 162.08 103.55 163.69 105.76 L 163.08 106.64 C 158.70 109.06 152.43 102.43 151.86 108.95 C 150.99 111.55 144.71 108.08 147.78 107.28 C 152.64 108.91 147.36 103.66 146.66 101.69 C 149.42 99.98 158.74 102.38 152.67 98.96 C 154.84 97.63 158.00 97.11 158.35 94.11 Z" />
</g>
<g id="#eeeebaff">
<path fill="#eeeeba" opacity="1.00" d=" M 29.89 98.82 C 29.72 96.83 30.84 95.52 32.57 94.74 C 32.76 96.47 32.94 98.20 33.10 99.92 C 32.31 99.92 30.74 99.91 29.95 99.90 L 29.89 98.82 Z" />
</g>
<g id="#453525ff">
<path fill="#453525" opacity="1.00" d=" M 192.89 95.07 C 198.29 93.69 197.63 103.36 202.97 101.48 C 204.19 107.57 203.81 113.79 204.09 119.96 C 207.60 122.26 210.95 121.72 201.99 122.13 C 200.05 121.78 196.94 122.70 196.53 119.99 C 199.64 117.81 200.24 117.43 197.17 115.99 C 201.71 117.06 198.31 112.08 199.59 109.64 C 200.80 106.78 198.63 104.54 196.88 102.57 C 195.72 99.99 194.32 97.51 192.89 95.07 Z" />
</g>
<g id="#7a8730ff">
<path fill="#7a8730" opacity="1.00" d=" M 18.86 96.80 C 23.12 95.40 22.74 104.95 29.95 99.90 C 30.74 99.91 32.31 99.92 33.10 99.92 C 36.41 99.22 37.67 101.06 37.37 104.23 C 36.98 105.86 36.56 107.49 35.89 109.03 C 34.29 109.32 32.70 109.66 31.12 110.05 C 33.13 102.19 23.01 102.12 18.45 105.36 C 16.30 101.99 13.00 111.27 17.48 110.14 C 16.84 110.49 15.55 111.18 14.91 111.53 C 11.49 111.14 5.91 112.55 7.72 107.49 C 1.01 103.83 9.85 106.50 12.60 108.09 C 12.36 106.44 12.01 104.71 12.97 103.20 C 15.52 101.69 16.80 98.84 18.86 96.80 Z" />
</g>
<g id="#c29467ff">
<path fill="#c29467" opacity="1.00" d=" M 230.92 97.69 C 231.14 97.44 231.57 96.93 231.79 96.67 C 233.24 98.20 234.16 100.09 234.97 102.02 C 235.72 104.68 235.15 107.46 235.15 110.20 C 235.02 113.44 234.98 116.71 235.00 119.96 C 229.45 121.53 227.52 119.63 229.20 114.24 C 229.86 110.16 230.35 105.91 229.41 101.83 C 229.81 100.25 232.53 99.74 230.92 97.69 Z" />
</g>
<g id="#687f1bff">
<path fill="#687f1b" opacity="1.00" d=" M 105.95 98.94 C 108.25 97.30 110.37 100.65 110.46 102.69 C 109.80 105.83 114.40 105.73 114.83 108.64 C 113.81 109.65 112.07 110.24 112.15 111.95 C 112.08 112.45 111.95 113.44 111.88 113.93 C 105.49 114.11 98.88 114.31 92.94 111.65 C 96.78 106.08 108.55 108.05 105.95 98.94 Z" />
</g>
<g id="#3a471cff">
<path fill="#3a471c" opacity="1.00" d=" M 180.10 104.04 C 177.07 97.50 183.20 99.86 187.44 98.24 C 188.45 101.44 190.67 104.02 192.07 107.03 C 189.94 112.93 186.01 105.42 181.95 105.94 C 181.10 109.04 183.42 110.54 185.86 111.63 C 180.69 114.93 193.74 114.39 191.42 118.75 C 192.92 118.47 194.26 118.70 195.09 120.12 C 194.96 120.61 194.69 121.58 194.56 122.06 C 193.39 123.72 192.05 125.28 190.19 126.18 C 190.85 124.88 191.53 123.59 192.11 122.25 C 187.06 124.16 183.72 118.02 178.86 118.74 C 175.23 119.38 173.24 115.36 170.04 114.39 C 174.13 113.28 168.10 112.67 167.82 110.14 C 167.50 105.00 175.68 99.14 180.10 104.04 Z" />
</g>
<g id="#696e36ff">
<path fill="#696e36" opacity="1.00" d=" M 224.21 119.19 C 231.12 115.74 222.30 100.80 230.92 97.69 C 232.53 99.74 229.81 100.25 229.41 101.83 C 229.14 105.96 229.07 110.10 229.20 114.24 C 227.52 119.63 229.45 121.53 235.00 119.96 C 239.70 120.05 245.31 121.21 243.09 127.04 C 242.43 127.01 241.10 126.97 240.44 126.95 C 241.48 119.55 228.78 122.06 223.78 123.19 C 218.73 123.15 213.70 122.45 208.66 122.73 C 207.00 122.81 203.67 122.97 202.00 123.05 L 201.99 122.13 C 210.95 121.72 207.60 122.26 204.09 119.96 C 210.02 119.78 215.92 119.23 221.83 118.84 C 219.60 114.15 227.29 108.85 224.21 119.19 Z" />
</g>
<g id="#5f6626ff">
<path fill="#5f6626" opacity="1.00" d=" M 234.97 102.02 C 235.11 101.48 235.41 100.41 235.55 99.87 C 236.01 102.73 240.10 101.28 240.65 104.12 C 236.75 110.91 246.67 102.85 250.00 106.01 L 250.00 109.03 C 245.99 107.72 243.88 107.61 248.03 110.75 C 242.75 112.59 239.88 106.46 235.15 110.20 C 235.15 107.46 235.72 104.68 234.97 102.02 Z" />
</g>
<g id="#5c650dff">
<path fill="#5c650d" opacity="1.00" d=" M 137.22 100.70 C 140.29 101.02 143.90 102.68 144.12 106.16 C 136.67 108.82 139.60 104.07 137.22 100.70 Z" />
</g>
<g id="#50671dff">
<path fill="#50671d" opacity="1.00" d=" M 144.12 106.16 C 144.99 104.67 144.75 102.32 146.66 101.69 C 147.36 103.66 152.64 108.91 147.78 107.28 C 144.71 108.08 150.99 111.55 151.86 108.95 C 152.43 102.43 158.70 109.06 163.08 106.64 C 157.91 111.24 150.47 111.68 143.78 114.03 C 143.22 112.83 144.50 109.37 142.30 110.35 C 138.81 111.32 142.85 107.01 144.12 106.16 Z" />
</g>
<g id="#d8c0abff">
<path fill="#d8c0ab" opacity="1.00" d=" M 229.41 101.83 C 230.35 105.91 229.86 110.16 229.20 114.24 C 229.07 110.10 229.14 105.96 229.41 101.83 Z" />
</g>
<g id="#333c0eff">
<path fill="#333c0e" opacity="1.00" d=" M 18.45 105.36 C 23.01 102.12 33.13 102.19 31.12 110.05 C 29.25 110.69 27.44 110.22 25.81 109.22 C 26.32 110.81 29.32 113.56 25.90 113.37 C 23.11 112.33 23.41 109.49 23.15 107.07 C 25.57 107.33 28.15 107.69 30.36 106.34 C 27.25 106.52 20.50 102.38 19.91 107.96 C 19.21 108.80 18.51 109.68 17.48 110.14 C 13.00 111.27 16.30 101.99 18.45 105.36 Z" />
</g>
<g id="#141302ff">
<path fill="#141302" opacity="1.00" d=" M 197.17 115.99 C 196.91 111.53 195.35 106.91 196.88 102.57 C 198.63 104.54 200.80 106.78 199.59 109.64 C 198.31 112.08 201.71 117.06 197.17 115.99 Z" />
</g>
<g id="#76804eff">
<path fill="#76804e" opacity="1.00" d=" M 19.91 107.96 C 20.50 102.38 27.25 106.52 30.36 106.34 C 28.15 107.69 25.57 107.33 23.15 107.07 C 22.04 107.25 20.96 107.55 19.91 107.96 Z" />
</g>
<g id="#222d0cff">
<path fill="#222d0c" opacity="1.00" d=" M 163.69 105.76 C 165.61 107.84 164.13 112.61 167.82 110.14 C 168.10 112.67 174.13 113.28 170.04 114.39 C 168.63 114.40 167.42 115.05 166.34 115.90 C 162.91 108.41 153.18 114.11 147.25 115.37 C 148.93 121.88 157.18 114.94 161.16 118.83 C 161.51 120.22 163.00 122.80 160.34 121.70 C 156.75 118.99 146.71 123.11 145.24 119.31 C 146.59 116.99 139.07 114.70 143.78 114.03 C 150.47 111.68 157.91 111.24 163.08 106.64 L 163.69 105.76 Z" />
</g>
<g id="#151b08ff">
<path fill="#151b08" opacity="1.00" d=" M 19.91 107.96 C 20.96 107.55 22.04 107.25 23.15 107.07 C 23.41 109.49 23.11 112.33 25.90 113.37 C 26.30 114.33 26.69 115.30 27.07 116.27 L 26.62 117.04 C 25.75 117.35 24.88 117.67 24.02 118.02 C 20.65 118.06 17.29 118.04 13.92 118.18 C 11.98 117.87 10.05 117.46 8.15 116.96 C 5.28 116.29 0.42 110.56 5.51 110.65 C 7.72 115.24 16.59 110.87 14.37 116.29 C 17.56 114.21 21.03 111.20 14.91 111.53 C 15.55 111.18 16.84 110.49 17.48 110.14 C 18.51 109.68 19.21 108.80 19.91 107.96 Z" />
</g>
<g id="#565d1cff">
<path fill="#565d1c" opacity="1.00" d=" M 120.13 106.98 C 123.01 109.06 127.29 109.72 129.20 112.80 C 125.40 110.04 120.03 117.70 128.80 115.17 C 127.23 118.08 129.60 121.03 130.27 116.79 C 129.80 113.06 135.01 113.80 137.18 112.01 C 135.92 114.75 133.29 116.70 132.92 119.90 C 129.76 119.79 127.29 120.37 128.44 124.11 C 133.31 125.95 134.53 123.74 133.84 120.22 C 134.32 120.38 135.29 120.72 135.77 120.88 C 134.88 123.19 135.80 124.53 138.21 124.79 C 130.82 124.66 123.25 125.97 116.00 124.11 C 117.49 121.91 118.23 119.37 118.95 116.84 C 117.54 122.16 121.99 121.11 126.20 119.82 C 124.47 117.58 121.43 117.71 118.95 116.84 C 119.31 114.38 117.34 112.99 115.69 111.58 C 117.08 109.97 118.58 108.45 120.13 106.98 Z" />
</g>
<g id="#1b210aff">
<path fill="#1b210a" opacity="1.00" d=" M 235.15 110.20 C 239.88 106.46 242.75 112.59 248.03 110.75 C 243.88 107.61 245.99 107.72 250.00 109.03 L 250.00 116.93 C 247.32 118.00 239.61 114.61 240.99 119.93 C 243.99 119.66 247.01 119.26 250.00 118.89 L 250.00 130.05 C 249.32 130.02 247.96 129.95 247.28 129.91 C 247.13 127.54 244.65 128.14 242.99 127.91 L 243.09 127.04 C 245.31 121.21 239.70 120.05 235.00 119.96 C 234.98 116.71 235.02 113.44 235.15 110.20 Z" />
</g>
<g id="#747754ff">
<path fill="#747754" opacity="1.00" d=" M 25.81 109.22 C 27.44 110.22 29.25 110.69 31.12 110.05 C 29.62 112.03 28.35 114.15 27.07 116.27 C 26.69 115.30 26.30 114.33 25.90 113.37 C 29.32 113.56 26.32 110.81 25.81 109.22 Z" />
</g>
<g id="#dee2cbff">
<path fill="#dee2cb" opacity="1.00" d=" M 31.12 110.05 C 32.70 109.66 34.29 109.32 35.89 109.03 L 35.55 109.91 C 35.64 111.14 35.82 113.59 35.90 114.82 L 37.01 115.06 L 37.19 115.91 C 36.46 117.10 35.68 118.27 34.86 119.41 C 32.02 119.03 29.10 118.60 26.62 117.04 L 27.07 116.27 C 28.35 114.15 29.62 112.03 31.12 110.05 Z" />
</g>
<g id="#515050ff">
<path fill="#515050" opacity="1.00" d=" M 219.01 109.01 C 222.85 109.22 222.85 113.77 219.01 113.99 C 218.93 112.33 218.93 110.67 219.01 109.01 Z" />
</g>
<g id="#8e9875ff">
<path fill="#8e9875" opacity="1.00" d=" M 35.90 114.82 C 35.82 113.59 35.64 111.14 35.55 109.91 C 36.49 111.35 36.91 113.29 35.90 114.82 Z" />
</g>
<g id="#101307ff">
<path fill="#101307" opacity="1.00" d=" M 112.15 111.95 C 113.32 111.80 114.50 111.66 115.69 111.58 C 117.34 112.99 119.31 114.38 118.95 116.84 C 118.23 119.37 117.49 121.91 116.00 124.11 C 115.30 124.02 113.92 123.86 113.23 123.78 C 107.46 122.74 101.60 123.07 95.78 123.21 C 93.93 123.08 92.08 122.96 90.23 122.85 C 87.79 122.52 85.35 122.17 82.92 121.81 C 88.86 116.40 97.18 114.08 105.12 116.56 C 106.69 119.37 117.56 114.16 111.88 113.93 C 111.95 113.44 112.08 112.45 112.15 111.95 Z" />
</g>
<g id="#56671fff">
<path fill="#56671f" opacity="1.00" d=" M 147.25 115.37 C 153.18 114.11 162.91 108.41 166.34 115.90 C 166.53 120.15 164.41 121.88 161.16 118.83 C 157.18 114.94 148.93 121.88 147.25 115.37 Z" />
</g>
<g id="#141606ff">
<path fill="#141606" opacity="1.00" d=" M 80.40 112.66 C 87.05 114.83 83.71 122.41 76.83 120.79 C 74.81 120.95 72.79 121.12 70.77 121.24 C 68.25 121.10 65.73 120.95 63.21 120.81 C 59.16 120.28 55.08 120.18 51.01 119.96 C 47.17 117.18 36.96 122.57 37.19 115.91 L 37.01 115.06 C 49.73 112.85 62.81 117.36 75.30 114.84 C 78.18 115.97 82.37 117.25 80.40 112.66 Z" />
</g>
<g id="#141507ff">
<path fill="#141507" opacity="1.00" d=" M 166.34 115.90 C 167.42 115.05 168.63 114.40 170.04 114.39 C 173.24 115.36 175.23 119.38 178.86 118.74 C 183.72 118.02 187.06 124.16 192.11 122.25 C 191.53 123.59 190.85 124.88 190.19 126.18 C 188.61 129.61 183.77 127.51 180.76 128.28 C 175.25 128.11 169.78 126.87 164.26 127.18 C 155.41 128.12 146.91 125.64 138.21 124.79 C 135.80 124.53 134.88 123.19 135.77 120.88 C 136.97 117.49 142.24 120.55 145.24 119.31 C 146.71 123.11 156.75 118.99 160.34 121.70 C 163.00 122.80 161.51 120.22 161.16 118.83 C 164.41 121.88 166.53 120.15 166.34 115.90 Z" />
</g>
<g id="#7c8d3eff">
<path fill="#7c8d3e" opacity="1.00" d=" M 37.19 115.91 C 36.96 122.57 47.17 117.18 51.01 119.96 C 45.62 119.89 40.21 120.19 34.86 119.41 C 35.68 118.27 36.46 117.10 37.19 115.91 Z" />
</g>
<g id="#b9cb49ff">
<path fill="#b9cb49" opacity="1.00" d=" M -0.00 116.99 C 2.72 116.96 5.43 116.96 8.15 116.96 C 10.05 117.46 11.98 117.87 13.92 118.18 L 14.27 119.10 C 13.57 120.37 12.80 121.61 12.12 122.90 C 16.67 121.57 19.89 124.70 22.33 127.83 C 14.86 127.35 7.51 125.76 0.00 125.90 L 0.00 116.99 Z" />
</g>
<g id="#c7de53ff">
<path fill="#c7de53" opacity="1.00" d=" M 24.02 118.02 C 24.88 117.67 25.75 117.35 26.62 117.04 C 29.10 118.60 32.02 119.03 34.86 119.41 C 40.21 120.19 45.62 119.89 51.01 119.96 C 55.00 121.08 59.12 120.85 63.21 120.81 C 65.73 120.95 68.25 121.10 70.77 121.24 C 77.23 121.93 83.70 123.24 90.23 122.85 C 92.08 122.96 93.93 123.08 95.78 123.21 C 101.55 124.22 107.41 123.94 113.23 123.78 C 113.92 123.86 115.30 124.02 116.00 124.11 C 123.25 125.97 130.82 124.66 138.21 124.79 C 146.91 125.64 155.41 128.12 164.26 127.18 C 156.87 130.98 148.71 126.48 141.00 127.87 C 133.20 130.70 125.07 131.22 116.88 129.96 C 119.70 133.11 132.49 129.67 126.85 136.29 C 98.03 135.98 69.39 128.77 40.69 129.73 C 34.52 129.81 28.45 128.37 22.33 127.83 C 19.89 124.70 16.67 121.57 12.12 122.90 C 12.80 121.61 13.57 120.37 14.27 119.10 C 17.52 118.95 21.04 119.68 24.02 118.02 Z" />
</g>
<g id="#9b9962ff">
<path fill="#9b9962" opacity="1.00" d=" M 118.95 116.84 C 121.43 117.71 124.47 117.58 126.20 119.82 C 121.99 121.11 117.54 122.16 118.95 116.84 Z" />
</g>
<g id="#5b633eff">
<path fill="#5b633e" opacity="1.00" d=" M 240.99 119.93 C 239.61 114.61 247.32 118.00 250.00 116.93 L 250.00 118.89 C 247.01 119.26 243.99 119.66 240.99 119.93 Z" />
</g>
<g id="#7a8d2aff">
<path fill="#7a8d2a" opacity="1.00" d=" M 13.92 118.18 C 17.29 118.04 20.65 118.06 24.02 118.02 C 21.04 119.68 17.52 118.95 14.27 119.10 L 13.92 118.18 Z" />
</g>
<g id="#87923fff">
<path fill="#87923f" opacity="1.00" d=" M 51.01 119.96 C 55.08 120.18 59.16 120.28 63.21 120.81 C 59.12 120.85 55.00 121.08 51.01 119.96 Z" />
</g>
<g id="#2c240bff">
<path fill="#2c240b" opacity="1.00" d=" M 128.44 124.11 C 127.29 120.37 129.76 119.79 132.92 119.90 L 133.84 120.22 C 134.53 123.74 133.31 125.95 128.44 124.11 Z" />
</g>
<g id="#af9d73ff">
<path fill="#af9d73" opacity="1.00" d=" M 195.09 120.12 C 195.45 120.09 196.17 120.03 196.53 119.99 C 196.94 122.70 200.05 121.78 201.99 122.13 L 202.00 123.05 C 199.50 122.87 197.02 122.54 194.56 122.06 C 194.69 121.58 194.96 120.61 195.09 120.12 Z" />
</g>
<g id="#959c4cff">
<path fill="#959c4c" opacity="1.00" d=" M 70.77 121.24 C 72.79 121.12 74.81 120.95 76.83 120.79 C 78.87 121.05 80.88 121.50 82.92 121.81 C 85.35 122.17 87.79 122.52 90.23 122.85 C 83.70 123.24 77.23 121.93 70.77 121.24 Z" />
</g>
<g id="#99814dff">
<path fill="#99814d" opacity="1.00" d=" M 190.19 126.18 C 192.05 125.28 193.39 123.72 194.56 122.06 C 197.69 125.75 204.27 124.11 208.96 125.03 C 203.43 126.46 198.14 128.81 192.28 127.13 C 192.16 127.61 191.93 128.57 191.81 129.05 C 188.12 128.88 184.43 128.63 180.76 128.28 C 183.77 127.51 188.61 129.61 190.19 126.18 Z" />
</g>
<g id="#eed8b3ff">
<path fill="#eed8b3" opacity="1.00" d=" M 194.56 122.06 C 197.02 122.54 199.50 122.87 202.00 123.05 C 203.67 122.97 207.00 122.81 208.66 122.73 C 209.04 123.12 209.81 123.90 210.19 124.29 C 209.89 124.48 209.27 124.84 208.96 125.03 C 204.27 124.11 197.69 125.75 194.56 122.06 Z" />
</g>
<g id="#1a1d0bff">
<path fill="#1a1d0b" opacity="1.00" d=" M 208.66 122.73 C 213.70 122.45 218.73 123.15 223.78 123.19 C 227.72 127.94 235.26 123.74 240.21 128.10 C 239.40 128.67 238.61 129.26 237.82 129.85 C 233.62 131.06 239.52 132.98 238.25 134.20 C 232.28 131.38 226.48 135.91 234.05 136.62 C 224.46 138.57 215.19 135.29 205.68 135.16 C 205.70 134.35 205.74 133.54 205.79 132.73 C 207.17 133.44 209.06 133.48 210.00 132.05 C 212.13 131.27 218.09 132.05 215.37 129.12 C 213.72 127.43 211.86 125.96 210.19 124.29 C 209.81 123.90 209.04 123.12 208.66 122.73 Z" />
</g>
<g id="#3a490fff">
<path fill="#3a490f" opacity="1.00" d=" M 223.78 123.19 C 228.78 122.06 241.48 119.55 240.44 126.95 C 241.10 126.97 242.43 127.01 243.09 127.04 L 242.99 127.91 C 242.29 127.96 240.91 128.05 240.21 128.10 C 235.26 123.74 227.72 127.94 223.78 123.19 Z" />
</g>
<g id="#5d6720ff">
<path fill="#5d6720" opacity="1.00" d=" M 95.78 123.21 C 101.60 123.07 107.46 122.74 113.23 123.78 C 107.41 123.94 101.55 124.22 95.78 123.21 Z" />
</g>
<g id="#c7af78ff">
<path fill="#c7af78" opacity="1.00" d=" M 210.19 124.29 C 211.86 125.96 213.72 127.43 215.37 129.12 C 207.56 129.48 199.62 128.55 192.09 131.11 C 192.02 130.59 191.88 129.57 191.81 129.05 C 191.93 128.57 192.16 127.61 192.28 127.13 C 198.14 128.81 203.43 126.46 208.96 125.03 C 209.27 124.84 209.89 124.48 210.19 124.29 Z" />
</g>
<g id="#f8eab1ff">
<path fill="#f8eab1" opacity="1.00" d=" M 0.00 125.90 C 7.51 125.76 14.86 127.35 22.33 127.83 C 28.45 128.37 34.52 129.81 40.69 129.73 C 70.57 132.26 100.37 135.67 130.16 139.02 C 132.64 139.45 135.12 139.90 137.63 140.09 C 144.36 140.84 151.09 142.20 157.90 141.91 C 166.65 139.28 175.35 136.40 184.23 134.18 C 186.92 133.37 189.50 132.21 192.09 131.11 C 199.62 128.55 207.56 129.48 215.37 129.12 C 218.09 132.05 212.13 131.27 210.00 132.05 C 208.59 131.70 206.86 131.50 205.79 132.73 C 205.39 133.05 204.59 133.71 204.19 134.04 C 196.53 137.74 186.94 138.70 180.86 144.85 C 183.76 145.45 186.71 145.59 189.67 145.77 C 209.63 149.27 229.93 150.37 250.00 153.10 L 250.00 161.20 L 249.21 160.79 C 245.05 157.91 239.63 159.53 234.90 159.08 L 234.08 158.94 C 228.14 157.13 221.92 156.90 215.77 157.23 C 200.85 156.07 186.08 153.42 171.22 151.68 C 125.70 144.53 79.95 138.76 34.24 132.77 C 22.94 130.47 11.35 129.97 0.00 127.84 L 0.00 125.90 Z" />
</g>
<g id="#b2d130ff">
<path fill="#b2d130" opacity="1.00" d=" M 141.00 127.87 C 148.71 126.48 156.87 130.98 164.26 127.18 C 169.78 126.87 175.25 128.11 180.76 128.28 C 184.43 128.63 188.12 128.88 191.81 129.05 C 191.88 129.57 192.02 130.59 192.09 131.11 C 189.50 132.21 186.92 133.37 184.23 134.18 C 178.00 135.47 170.57 132.50 165.05 136.54 C 169.41 139.01 161.75 138.44 160.01 137.03 C 153.16 141.69 143.56 135.14 137.63 140.09 C 135.12 139.90 132.64 139.45 130.16 139.02 C 129.04 138.12 127.94 137.22 126.85 136.29 C 132.49 129.67 119.70 133.11 116.88 129.96 C 125.07 131.22 133.20 130.70 141.00 127.87 Z" />
</g>
<g id="#d3ca70ff">
<path fill="#d3ca70" opacity="1.00" d=" M 0.00 127.84 C 11.35 129.97 22.94 130.47 34.24 132.77 C 28.01 133.04 21.84 132.10 15.62 132.19 C 18.73 134.68 22.94 133.00 26.37 134.77 L 26.03 135.87 C 17.23 136.82 8.63 131.55 0.00 134.12 L 0.00 127.84 Z" />
</g>
<g id="#6f6d30ff">
<path fill="#6f6d30" opacity="1.00" d=" M 240.21 128.10 C 240.91 128.05 242.29 127.96 242.99 127.91 C 244.65 128.14 247.13 127.54 247.28 129.91 C 244.10 129.89 240.97 129.88 237.82 129.85 C 238.61 129.26 239.40 128.67 240.21 128.10 Z" />
</g>
<g id="#b0b24cff">
<path fill="#b0b24c" opacity="1.00" d=" M 40.69 129.73 C 69.39 128.77 98.03 135.98 126.85 136.29 C 127.94 137.22 129.04 138.12 130.16 139.02 C 100.37 135.67 70.57 132.26 40.69 129.73 Z" />
</g>
<g id="#b0ca2fff">
<path fill="#b0ca2f" opacity="1.00" d=" M 238.25 134.20 C 239.52 132.98 233.62 131.06 237.82 129.85 C 240.97 129.88 244.10 129.89 247.28 129.91 C 247.96 129.95 249.32 130.02 250.00 130.05 L 250.00 150.06 C 239.16 150.14 228.29 149.39 217.63 147.39 C 214.88 142.27 221.99 145.68 223.03 142.98 C 218.50 142.45 213.86 142.83 209.43 141.65 C 208.09 144.52 201.16 145.90 203.20 141.36 C 205.62 140.49 208.30 140.10 210.33 138.40 C 203.78 141.40 205.59 137.59 205.68 135.16 C 215.19 135.29 224.46 138.57 234.05 136.62 C 235.48 135.88 236.84 135.01 238.25 134.20 Z" />
</g>
<g id="#bcb752ff">
<path fill="#bcb752" opacity="1.00" d=" M 15.62 132.19 C 21.84 132.10 28.01 133.04 34.24 132.77 C 79.95 138.76 125.70 144.53 171.22 151.68 C 167.59 151.37 166.16 152.35 169.07 155.07 C 121.62 147.43 74.08 140.66 26.37 134.77 C 22.94 133.00 18.73 134.68 15.62 132.19 Z" />
</g>
<g id="#a69f71ff">
<path fill="#a69f71" opacity="1.00" d=" M 205.79 132.73 C 206.86 131.50 208.59 131.70 210.00 132.05 C 209.06 133.48 207.17 133.44 205.79 132.73 Z" />
</g>
<g id="#b8ab87ff">
<path fill="#b8ab87" opacity="1.00" d=" M 0.00 134.12 C 8.63 131.55 17.23 136.82 26.03 135.87 C 34.63 137.59 43.40 138.22 52.07 139.49 C 49.82 142.36 56.39 142.43 58.23 143.79 C 51.01 146.63 44.63 137.90 37.02 141.95 C 29.92 137.65 21.18 139.99 13.36 137.57 C 8.95 136.84 4.49 134.76 0.00 135.76 L 0.00 134.12 Z" />
</g>
<g id="#c0d246ff">
<path fill="#c0d246" opacity="1.00" d=" M 204.19 134.04 C 204.59 133.71 205.39 133.05 205.79 132.73 C 205.74 133.54 205.70 134.35 205.68 135.16 C 205.59 137.59 203.78 141.40 210.33 138.40 C 208.30 140.10 205.62 140.49 203.20 141.36 C 201.16 145.90 208.09 144.52 209.43 141.65 C 213.86 142.83 218.50 142.45 223.03 142.98 C 221.99 145.68 214.88 142.27 217.63 147.39 C 210.77 146.81 203.74 146.82 197.06 144.94 C 196.38 144.07 195.71 143.21 195.09 142.31 C 199.53 141.89 201.33 136.98 204.19 134.04 Z" />
</g>
<g id="#bfc950ff">
<path fill="#bfc950" opacity="1.00" d=" M 165.05 136.54 C 170.57 132.50 178.00 135.47 184.23 134.18 C 175.35 136.40 166.65 139.28 157.90 141.91 C 151.09 142.20 144.36 140.84 137.63 140.09 C 143.56 135.14 153.16 141.69 160.01 137.03 C 161.75 138.44 169.41 139.01 165.05 136.54 Z" />
</g>
<g id="#cece67ff">
<path fill="#cece67" opacity="1.00" d=" M 180.86 144.85 C 186.94 138.70 196.53 137.74 204.19 134.04 C 201.33 136.98 199.53 141.89 195.09 142.31 C 195.71 143.21 196.38 144.07 197.06 144.94 C 194.59 145.16 192.12 145.43 189.67 145.77 C 186.71 145.59 183.76 145.45 180.86 144.85 Z" />
</g>
<g id="#778031ff">
<path fill="#778031" opacity="1.00" d=" M 234.05 136.62 C 226.48 135.91 232.28 131.38 238.25 134.20 C 236.84 135.01 235.48 135.88 234.05 136.62 Z" />
</g>
<g id="#c4b8a5ff">
<path fill="#c4b8a5" opacity="1.00" d=" M 0.00 135.76 C 4.49 134.76 8.95 136.84 13.36 137.57 C 21.18 139.99 29.92 137.65 37.02 141.95 C 44.63 137.90 51.01 146.63 58.23 143.79 C 58.63 143.87 59.42 144.04 59.81 144.13 C 72.30 151.61 87.55 151.38 100.86 157.00 C 111.35 162.03 123.45 163.47 135.02 163.01 C 138.26 163.13 143.90 164.44 142.91 168.76 C 140.96 170.82 137.73 170.99 135.15 171.30 C 117.71 171.94 98.99 173.04 83.91 163.11 C 79.95 163.99 74.68 166.43 72.62 161.34 C 66.70 159.37 60.15 158.97 53.96 158.17 C 44.43 159.82 40.09 147.55 30.96 148.19 C 22.12 148.91 13.72 146.19 5.41 143.65 C 6.52 140.05 2.58 140.62 0.00 140.04 L 0.00 135.76 Z" />
</g>
<g id="#e9df96ff">
<path fill="#e9df96" opacity="1.00" d=" M 26.37 134.77 C 74.08 140.66 121.62 147.43 169.07 155.07 C 170.92 155.46 172.79 155.83 174.67 156.11 C 177.01 158.02 188.19 156.08 185.98 160.45 C 175.11 158.08 164.00 157.35 153.19 154.69 C 119.56 149.43 85.84 144.14 52.07 139.49 C 43.40 138.22 34.63 137.59 26.03 135.87 L 26.37 134.77 Z" />
</g>
<g id="#bcb09eff">
<path fill="#bcb09e" opacity="1.00" d=" M 0.00 140.04 C 2.58 140.62 6.52 140.05 5.41 143.65 C 13.72 146.19 22.12 148.91 30.96 148.19 C 40.09 147.55 44.43 159.82 53.96 158.17 C 60.15 158.97 66.70 159.37 72.62 161.34 C 74.68 166.43 79.95 163.99 83.91 163.11 C 98.99 173.04 117.71 171.94 135.15 171.30 C 137.73 170.99 140.96 170.82 142.91 168.76 C 143.90 164.44 138.26 163.13 135.02 163.01 C 123.45 163.47 111.35 162.03 100.86 157.00 C 111.73 158.25 122.60 161.75 133.63 160.40 C 135.84 160.10 139.34 160.79 138.88 157.54 L 139.46 157.75 C 143.96 164.54 152.84 167.97 160.86 167.23 C 178.47 178.05 199.97 170.82 218.99 174.06 C 228.87 178.94 240.59 177.82 250.00 183.47 L 250.00 187.00 L 193.56 187.00 C 187.78 184.52 181.14 181.17 174.42 183.16 C 165.01 185.75 156.27 177.49 147.26 180.51 C 143.36 178.97 138.90 174.88 135.79 179.81 C 130.40 185.80 126.90 178.14 124.67 174.08 C 116.57 174.59 108.42 174.66 100.34 174.38 C 90.34 181.24 77.91 175.42 69.43 168.65 C 65.79 157.42 50.47 162.98 42.39 158.65 C 37.92 150.77 27.97 149.45 19.74 150.19 C 13.13 149.25 6.58 147.92 0.00 146.80 L 0.00 140.04 Z" />
</g>
<g id="#a99976ff">
<path fill="#a99976" opacity="1.00" d=" M 58.23 143.79 C 56.39 142.43 49.82 142.36 52.07 139.49 C 85.84 144.14 119.56 149.43 153.19 154.69 C 151.46 155.06 148.38 154.58 147.98 156.89 C 150.29 157.88 152.76 158.44 155.09 159.40 C 149.08 163.43 144.79 156.02 139.46 157.75 L 138.88 157.54 C 117.62 152.35 95.47 150.58 73.97 146.12 C 69.31 145.27 64.63 142.74 59.81 144.13 C 59.42 144.04 58.63 143.87 58.23 143.79 M 137.86 154.05 C 138.62 156.36 140.98 156.15 142.99 156.00 C 144.02 152.66 139.73 154.34 137.86 154.05 Z" />
</g>
<g id="#b5a98fff">
<path fill="#b5a98f" opacity="1.00" d=" M 59.81 144.13 C 64.63 142.74 69.31 145.27 73.97 146.12 C 95.47 150.58 117.62 152.35 138.88 157.54 C 139.34 160.79 135.84 160.10 133.63 160.40 C 122.60 161.75 111.73 158.25 100.86 157.00 C 87.55 151.38 72.30 151.61 59.81 144.13 Z" />
</g>
<g id="#aea946ff">
<path fill="#aea946" opacity="1.00" d=" M 189.67 145.77 C 192.12 145.43 194.59 145.16 197.06 144.94 C 203.74 146.82 210.77 146.81 217.63 147.39 C 228.29 149.39 239.16 150.14 250.00 150.06 L 250.00 153.10 C 229.93 150.37 209.63 149.27 189.67 145.77 Z" />
</g>
<g id="#aa9e8dff">
<path fill="#aa9e8d" opacity="1.00" d=" M 0.00 146.80 C 6.58 147.92 13.13 149.25 19.74 150.19 C 24.02 152.01 32.67 153.69 30.03 159.89 C 20.86 165.16 38.94 164.07 41.97 164.88 C 50.87 160.37 62.56 164.91 64.74 174.82 C 71.39 172.28 70.88 181.33 76.09 181.86 C 85.03 180.87 94.15 182.32 102.95 179.81 C 107.18 178.29 111.37 179.93 115.20 181.75 C 119.98 183.96 116.56 174.84 121.91 176.04 C 124.83 177.87 124.54 183.61 126.30 187.00 L 36.53 187.00 C 33.40 184.16 29.31 182.46 26.77 178.96 C 31.46 171.11 42.02 181.92 46.95 174.89 C 45.60 168.82 37.51 172.24 33.44 170.48 C 27.81 166.62 20.60 163.77 18.20 156.86 C 17.78 153.99 14.52 155.83 12.61 155.21 C 8.38 153.93 3.96 150.30 0.00 154.04 L 0.00 146.80 Z" />
</g>
<g id="#b3a897ff">
<path fill="#b3a897" opacity="1.00" d=" M 19.74 150.19 C 27.97 149.45 37.92 150.77 42.39 158.65 C 50.47 162.98 65.79 157.42 69.43 168.65 C 77.91 175.42 90.34 181.24 100.34 174.38 C 108.42 174.66 116.57 174.59 124.67 174.08 C 126.90 178.14 130.40 185.80 135.79 179.81 C 138.90 174.88 143.36 178.97 147.26 180.51 C 156.27 177.49 165.01 185.75 174.42 183.16 C 181.14 181.17 187.78 184.52 193.56 187.00 L 126.30 187.00 C 124.54 183.61 124.83 177.87 121.91 176.04 C 116.56 174.84 119.98 183.96 115.20 181.75 C 111.37 179.93 107.18 178.29 102.95 179.81 C 94.15 182.32 85.03 180.87 76.09 181.86 C 70.88 181.33 71.39 172.28 64.74 174.82 C 62.56 164.91 50.87 160.37 41.97 164.88 C 38.94 164.07 20.86 165.16 30.03 159.89 C 32.67 153.69 24.02 152.01 19.74 150.19 Z" />
</g>
<g id="#9b907eff">
<path fill="#9b907e" opacity="1.00" d=" M 0.00 154.04 C 3.96 150.30 8.38 153.93 12.61 155.21 C 14.52 155.83 17.78 153.99 18.20 156.86 C 20.60 163.77 27.81 166.62 33.44 170.48 C 37.51 172.24 45.60 168.82 46.95 174.89 C 42.02 181.92 31.46 171.11 26.77 178.96 C 29.31 182.46 33.40 184.16 36.53 187.00 L 0.00 187.00 L 0.00 154.04 Z" />
</g>
<g id="#aca542ff">
<path fill="#aca542" opacity="1.00" d=" M 169.07 155.07 C 166.16 152.35 167.59 151.37 171.22 151.68 C 186.08 153.42 200.85 156.07 215.77 157.23 C 221.85 157.94 227.96 158.53 234.08 158.94 L 234.90 159.08 C 239.59 160.24 244.39 160.67 249.21 160.79 L 250.00 161.20 L 250.00 171.24 C 248.95 170.98 247.90 170.71 246.86 170.44 C 247.13 170.10 247.68 169.41 247.95 169.06 C 229.17 166.04 210.55 162.22 191.74 159.34 C 195.84 153.99 183.98 156.89 181.59 155.32 C 180.22 156.90 174.61 152.13 174.67 156.11 C 172.79 155.83 170.92 155.46 169.07 155.07 Z" />
</g>
<g id="#6c5e38ff">
<path fill="#6c5e38" opacity="1.00" d=" M 137.86 154.05 C 139.73 154.34 144.02 152.66 142.99 156.00 C 140.98 156.15 138.62 156.36 137.86 154.05 Z" />
</g>
<g id="#c6b966ff">
<path fill="#c6b966" opacity="1.00" d=" M 174.67 156.11 C 174.61 152.13 180.22 156.90 181.59 155.32 C 183.98 156.89 195.84 153.99 191.74 159.34 C 189.67 158.74 188.42 158.87 189.98 160.99 C 188.63 160.90 187.29 160.77 185.98 160.45 C 188.19 156.08 177.01 158.02 174.67 156.11 Z" />
</g>
<g id="#908162ff">
<path fill="#908162" opacity="1.00" d=" M 147.98 156.89 C 148.38 154.58 151.46 155.06 153.19 154.69 C 164.00 157.35 175.11 158.08 185.98 160.45 C 187.29 160.77 188.63 160.90 189.98 160.99 C 208.90 164.12 228.04 166.52 246.86 170.44 C 247.90 170.71 248.95 170.98 250.00 171.24 L 250.00 174.11 C 231.76 172.62 214.17 167.91 196.30 165.66 C 187.49 163.31 178.10 164.24 169.30 161.76 C 164.98 160.93 160.61 158.75 156.12 159.79 C 155.87 159.69 155.35 159.50 155.09 159.40 C 152.76 158.44 150.29 157.88 147.98 156.89 Z" />
</g>
<g id="#b1a58fff">
<path fill="#b1a58f" opacity="1.00" d=" M 139.46 157.75 C 144.79 156.02 149.08 163.43 155.09 159.40 C 155.35 159.50 155.87 159.69 156.12 159.79 C 166.90 169.65 183.59 175.54 196.30 165.66 C 214.17 167.91 231.76 172.62 250.00 174.11 L 250.00 183.47 C 240.59 177.82 228.87 178.94 218.99 174.06 C 199.97 170.82 178.47 178.05 160.86 167.23 C 152.84 167.97 143.96 164.54 139.46 157.75 Z" />
</g>
<g id="#dcca7dff">
<path fill="#dcca7d" opacity="1.00" d=" M 215.77 157.23 C 221.92 156.90 228.14 157.13 234.08 158.94 C 227.96 158.53 221.85 157.94 215.77 157.23 Z" />
</g>
<g id="#a59981ff">
<path fill="#a59981" opacity="1.00" d=" M 156.12 159.79 C 160.61 158.75 164.98 160.93 169.30 161.76 C 178.10 164.24 187.49 163.31 196.30 165.66 C 183.59 175.54 166.90 169.65 156.12 159.79 Z" />
</g>
<g id="#e0d194ff">
<path fill="#e0d194" opacity="1.00" d=" M 189.98 160.99 C 188.42 158.87 189.67 158.74 191.74 159.34 C 210.55 162.22 229.17 166.04 247.95 169.06 C 247.68 169.41 247.13 170.10 246.86 170.44 C 228.04 166.52 208.90 164.12 189.98 160.99 Z" />
</g>
<g id="#d5c979ff">
<path fill="#d5c979" opacity="1.00" d=" M 234.90 159.08 C 239.63 159.53 245.05 157.91 249.21 160.79 C 244.39 160.67 239.59 160.24 234.90 159.08 Z" />
</g>
</svg>
