<?xml version="1.0" encoding="UTF-8" ?>
<!DOCTYPE svg PUBLIC "-//W3C//DTD SVG 1.1//EN" "http://www.w3.org/Graphics/SVG/1.1/DTD/svg11.dtd">
<svg width="250pt" height="250pt" viewBox="0 0 250 250" version="1.1" xmlns="http://www.w3.org/2000/svg">
<g id="#3a7dcfff">
<path fill="#3a7dcf" opacity="1.00" d=" M 0.00 0.00 L 92.51 0.00 C 100.97 4.94 111.82 3.07 120.15 7.77 C 118.38 11.61 123.77 18.36 126.46 13.57 C 125.69 3.45 137.23 12.83 139.35 5.31 C 142.20 6.27 146.34 2.24 146.80 6.73 C 153.68 12.05 160.12 5.76 166.79 5.04 C 170.86 9.50 159.58 13.22 162.57 18.35 C 165.89 22.14 172.82 22.62 177.52 20.62 C 183.84 17.55 189.49 25.18 184.95 30.11 C 191.36 26.61 197.74 27.97 204.81 29.39 C 211.03 27.71 214.81 33.72 220.43 34.51 C 230.15 36.80 240.09 36.76 250.00 37.06 L 250.00 39.09 C 235.91 38.66 221.92 36.87 208.01 34.95 C 205.14 34.36 204.44 37.62 205.15 39.73 C 214.07 45.40 228.16 39.72 234.47 49.49 C 237.75 54.41 245.23 51.38 250.00 53.03 L 250.00 62.85 C 237.11 64.58 224.21 69.45 210.83 67.15 C 204.04 62.37 199.35 55.07 192.19 50.76 C 189.03 47.57 186.15 43.95 182.18 41.72 C 180.60 40.09 178.92 38.56 177.22 37.06 C 175.11 31.41 167.07 35.80 163.04 32.80 C 159.14 30.17 154.59 30.25 150.18 31.11 C 145.36 30.58 140.44 30.05 136.04 27.87 C 132.53 25.25 127.02 25.25 124.93 21.04 C 124.10 19.35 122.30 18.01 120.35 18.50 C 115.33 19.41 110.97 15.94 106.15 15.07 C 103.80 17.62 104.77 23.34 100.05 23.00 C 96.93 22.68 98.68 19.40 99.94 17.88 C 92.80 14.98 81.20 19.49 77.52 10.47 C 69.28 9.81 61.38 6.54 52.98 7.00 C 47.83 14.18 65.77 15.23 55.24 18.41 C 57.37 25.48 65.63 19.18 67.82 14.95 C 71.98 20.92 64.33 23.72 59.82 25.51 C 52.86 24.94 45.83 22.60 38.83 23.75 L 38.03 23.76 C 24.96 20.94 12.46 15.78 0.00 10.96 L 0.00 0.00 Z" />
</g>
<g id="#4c86ceff">
<path fill="#4c86ce" opacity="1.00" d=" M 92.51 0.00 L 163.54 0.00 C 173.02 2.03 177.57 13.25 187.77 12.63 C 193.46 12.57 186.72 20.58 190.27 22.74 C 202.12 25.47 214.76 27.23 225.63 33.40 C 233.66 34.52 241.88 33.90 250.00 34.00 L 250.00 37.06 C 240.09 36.76 230.15 36.80 220.43 34.51 C 214.81 33.72 211.03 27.71 204.81 29.39 C 197.74 27.97 191.36 26.61 184.95 30.11 C 189.49 25.18 183.84 17.55 177.52 20.62 C 172.82 22.62 165.89 22.14 162.57 18.35 C 159.58 13.22 170.86 9.50 166.79 5.04 C 160.12 5.76 153.68 12.05 146.80 6.73 C 146.34 2.24 142.20 6.27 139.35 5.31 C 137.23 12.83 125.69 3.45 126.46 13.57 C 123.77 18.36 118.38 11.61 120.15 7.77 C 111.82 3.07 100.97 4.94 92.51 0.00 Z" />
</g>
<g id="#6597d4ff">
<path fill="#6597d4" opacity="1.00" d=" M 163.54 0.00 L 173.68 0.00 C 176.14 6.36 182.54 6.85 188.72 6.30 C 196.24 10.59 201.05 18.08 208.04 22.96 C 221.19 29.98 236.04 24.42 250.00 27.06 L 250.00 34.00 C 241.88 33.90 233.66 34.52 225.63 33.40 C 214.76 27.23 202.12 25.47 190.27 22.74 C 186.72 20.58 193.46 12.57 187.77 12.63 C 177.57 13.25 173.02 2.03 163.54 0.00 Z" />
</g>
<g id="#77a0d5ff">
<path fill="#77a0d5" opacity="1.00" d=" M 173.68 0.00 L 226.52 0.00 C 228.96 3.48 232.48 4.55 235.68 1.38 C 236.78 5.28 242.69 6.68 239.29 11.06 C 240.92 14.85 246.81 11.68 250.00 10.72 L 250.00 11.79 C 245.77 13.66 241.12 16.35 236.34 14.74 C 232.69 9.06 224.43 10.06 222.61 2.32 C 216.26 0.14 216.51 11.69 210.39 9.65 C 207.40 8.47 204.20 2.68 201.08 6.26 C 198.22 15.87 209.60 10.30 211.81 17.13 C 224.42 18.49 236.96 24.91 250.00 23.24 L 250.00 27.06 C 236.04 24.42 221.19 29.98 208.04 22.96 C 201.05 18.08 196.24 10.59 188.72 6.30 C 182.54 6.85 176.14 6.36 173.68 0.00 Z" />
</g>
<g id="#6b91caff">
<path fill="#6b91ca" opacity="1.00" d=" M 226.52 0.00 L 250.00 0.00 L 250.00 10.72 C 246.81 11.68 240.92 14.85 239.29 11.06 C 242.69 6.68 236.78 5.28 235.68 1.38 C 232.48 4.55 228.96 3.48 226.52 0.00 Z" />
</g>
<g id="#85abd9ff">
<path fill="#85abd9" opacity="1.00" d=" M 210.39 9.65 C 216.51 11.69 216.26 0.14 222.61 2.32 C 224.43 10.06 232.69 9.06 236.34 14.74 C 241.12 16.35 245.77 13.66 250.00 11.79 L 250.00 23.24 C 236.96 24.91 224.42 18.49 211.81 17.13 C 209.60 10.30 198.22 15.87 201.08 6.26 C 204.20 2.68 207.40 8.47 210.39 9.65 Z" />
</g>
<g id="#4b8cd8ff">
<path fill="#4b8cd8" opacity="1.00" d=" M 52.98 7.00 C 61.38 6.54 69.28 9.81 77.52 10.47 C 81.20 19.49 92.80 14.98 99.94 17.88 C 98.68 19.40 96.93 22.68 100.05 23.00 C 104.77 23.34 103.80 17.62 106.15 15.07 C 110.97 15.94 115.33 19.41 120.35 18.50 C 122.30 18.01 124.10 19.35 124.93 21.04 C 127.02 25.25 132.53 25.25 136.04 27.87 C 141.13 32.94 133.16 33.20 129.11 32.27 C 123.88 36.31 116.03 37.89 110.55 33.50 C 107.29 32.81 100.10 32.49 102.15 37.62 C 105.38 38.18 108.79 38.89 107.21 43.88 C 109.94 50.73 119.14 48.64 124.59 52.17 C 131.72 51.18 134.30 59.17 139.80 60.95 C 141.93 57.30 145.89 58.29 148.97 60.00 C 153.69 57.92 156.91 53.12 162.14 52.02 C 157.07 57.51 151.84 62.83 146.42 67.96 C 142.96 67.41 139.50 67.01 136.00 66.77 C 130.14 67.61 128.76 58.06 123.60 61.54 C 120.34 63.28 119.07 57.20 115.62 58.41 C 108.13 62.59 112.78 51.72 107.88 51.13 C 107.46 51.10 106.62 51.05 106.20 51.02 C 94.12 53.83 103.45 45.99 99.90 41.09 C 98.73 38.36 97.15 35.81 95.54 33.32 C 91.99 31.81 90.59 37.21 88.25 38.96 C 88.10 36.03 86.03 27.18 82.37 31.36 C 84.02 38.24 81.13 37.01 77.89 35.19 C 74.23 35.87 72.24 42.28 68.23 39.56 C 64.80 45.36 58.33 41.12 53.16 41.01 C 51.71 44.34 52.37 56.25 47.84 49.25 C 47.61 39.95 43.46 31.65 38.83 23.75 C 45.83 22.60 52.86 24.94 59.82 25.51 C 64.33 23.72 71.98 20.92 67.82 14.95 C 65.63 19.18 57.37 25.48 55.24 18.41 C 65.77 15.23 47.83 14.18 52.98 7.00 Z" />
</g>
<g id="#4c8cd6ff">
<path fill="#4c8cd6" opacity="1.00" d=" M 0.00 10.96 C 12.46 15.78 24.96 20.94 38.03 23.76 L 37.07 23.82 C 33.61 23.66 30.02 25.27 27.95 28.03 C 27.17 31.91 27.25 35.84 28.14 39.67 C 28.06 46.54 27.90 53.41 28.02 60.27 C 23.69 58.48 22.93 53.70 21.16 49.88 C 14.14 49.02 10.42 39.37 14.01 32.84 C 11.24 33.62 9.05 37.59 6.18 34.79 C 0.08 32.38 7.41 44.79 0.00 39.95 L 0.00 10.96 Z" />
</g>
<g id="#887f7dff">
<path fill="#887f7d" opacity="1.00" d=" M 27.95 28.03 C 30.02 25.27 33.61 23.66 37.07 23.82 C 37.78 25.17 38.46 26.53 39.11 27.92 C 35.39 27.95 31.67 27.98 27.95 28.03 Z" />
</g>
<g id="#5a87c6ff">
<path fill="#5a87c6" opacity="1.00" d=" M 37.07 23.82 L 38.03 23.76 L 38.83 23.75 C 43.46 31.65 47.61 39.95 47.84 49.25 C 52.37 56.25 51.71 44.34 53.16 41.01 C 58.33 41.12 64.80 45.36 68.23 39.56 C 72.24 42.28 74.23 35.87 77.89 35.19 C 81.13 37.01 84.02 38.24 82.37 31.36 C 86.03 27.18 88.10 36.03 88.25 38.96 C 90.59 37.21 91.99 31.81 95.54 33.32 C 97.15 35.81 98.73 38.36 99.90 41.09 C 103.45 45.99 94.12 53.83 106.20 51.02 C 103.18 59.30 94.21 53.91 88.27 52.44 C 86.73 54.80 83.52 63.79 85.02 53.22 C 85.84 51.37 92.44 48.22 88.12 47.98 C 83.21 48.12 87.31 39.61 84.03 38.07 C 80.78 37.23 84.35 43.69 81.78 44.99 C 79.65 45.29 78.01 43.69 76.31 42.70 C 74.05 39.84 74.00 42.58 73.44 44.84 C 67.22 45.55 60.97 45.69 54.82 44.35 C 55.57 51.66 59.09 57.91 57.94 64.80 C 58.54 66.94 55.61 68.24 54.88 70.11 C 53.07 72.47 51.37 74.91 49.65 77.34 C 48.75 78.38 47.86 79.42 46.97 80.47 C 45.23 70.33 46.24 60.01 45.93 49.78 C 47.03 41.76 43.78 34.22 39.11 27.92 C 38.46 26.53 37.78 25.17 37.07 23.82 Z" />
</g>
<g id="#6c3f2fff">
<path fill="#6c3f2f" opacity="1.00" d=" M 27.95 28.03 C 31.67 27.98 35.39 27.95 39.11 27.92 C 43.78 34.22 47.03 41.76 45.93 49.78 C 45.69 50.13 45.22 50.83 44.98 51.18 C 43.79 50.15 42.63 49.07 41.33 48.19 C 38.72 53.59 31.42 53.90 28.97 59.16 C 30.68 53.15 30.95 44.41 28.14 39.67 C 27.25 35.84 27.17 31.91 27.95 28.03 Z" />
</g>
<g id="#3d87d9ff">
<path fill="#3d87d9" opacity="1.00" d=" M 136.04 27.87 C 140.44 30.05 145.36 30.58 150.18 31.11 C 147.11 30.48 140.81 32.55 146.01 35.01 C 151.96 40.63 159.74 39.93 167.26 38.60 C 170.72 38.05 170.00 41.88 170.26 44.20 C 167.63 46.89 165.05 49.64 162.14 52.02 C 156.91 53.12 153.69 57.92 148.97 60.00 C 145.89 58.29 141.93 57.30 139.80 60.95 C 134.30 59.17 131.72 51.18 124.59 52.17 C 119.14 48.64 109.94 50.73 107.21 43.88 C 108.79 38.89 105.38 38.18 102.15 37.62 C 100.10 32.49 107.29 32.81 110.55 33.50 C 116.03 37.89 123.88 36.31 129.11 32.27 C 133.16 33.20 141.13 32.94 136.04 27.87 Z" />
</g>
<g id="#4f8ed6ff">
<path fill="#4f8ed6" opacity="1.00" d=" M 150.18 31.11 C 154.59 30.25 159.14 30.17 163.04 32.80 C 167.07 35.80 175.11 31.41 177.22 37.06 C 174.93 39.47 172.62 41.85 170.26 44.20 C 170.00 41.88 170.72 38.05 167.26 38.60 C 159.74 39.93 151.96 40.63 146.01 35.01 C 140.81 32.55 147.11 30.48 150.18 31.11 Z" />
</g>
<g id="#5679afff">
<path fill="#5679af" opacity="1.00" d=" M 6.18 34.79 C 9.05 37.59 11.24 33.62 14.01 32.84 C 10.42 39.37 14.14 49.02 21.16 49.88 C 22.93 53.70 23.69 58.48 28.02 60.27 C 28.08 60.77 28.20 61.76 28.26 62.25 C 28.13 64.91 28.02 67.57 27.93 70.23 C 20.11 68.17 16.60 59.69 15.51 52.34 C 12.12 51.43 7.86 49.93 8.77 54.73 C 6.88 55.38 4.98 56.01 3.09 56.67 C 2.07 63.31 13.15 69.68 8.42 75.42 C 5.75 73.20 2.39 72.20 0.00 75.36 L 0.00 39.95 C 7.41 44.79 0.08 32.38 6.18 34.79 Z" />
</g>
<g id="#3172c7ff">
<path fill="#3172c7" opacity="1.00" d=" M 205.15 39.73 C 204.44 37.62 205.14 34.36 208.01 34.95 C 221.92 36.87 235.91 38.66 250.00 39.09 L 250.00 53.03 C 245.23 51.38 237.75 54.41 234.47 49.49 C 228.16 39.72 214.07 45.40 205.15 39.73 Z" />
</g>
<g id="#ededeaff">
<path fill="#ededea" opacity="1.00" d=" M 177.22 37.06 C 178.92 38.56 180.60 40.09 182.18 41.72 C 184.87 45.65 188.25 49.06 192.15 51.81 C 208.09 67.58 224.23 83.14 240.96 98.07 C 241.03 99.29 241.10 100.51 241.18 101.74 C 238.85 102.87 236.34 102.68 233.87 102.21 C 198.22 100.93 162.62 103.68 126.97 102.99 C 124.59 102.99 122.29 103.67 119.99 104.19 C 115.60 104.27 113.84 101.50 117.04 98.19 C 118.99 96.54 120.79 94.73 122.51 92.85 C 127.93 88.22 132.04 82.37 137.05 77.35 C 140.24 74.28 143.38 71.17 146.42 67.96 C 151.84 62.83 157.07 57.51 162.14 52.02 C 165.05 49.64 167.63 46.89 170.26 44.20 C 172.62 41.85 174.93 39.47 177.22 37.06 Z" />
</g>
<g id="#5a6f9bff">
<path fill="#5a6f9b" opacity="1.00" d=" M 81.78 44.99 C 84.35 43.69 80.78 37.23 84.03 38.07 C 87.31 39.61 83.21 48.12 88.12 47.98 C 92.44 48.22 85.84 51.37 85.02 53.22 C 83.52 63.79 86.73 54.80 88.27 52.44 C 94.21 53.91 103.18 59.30 106.20 51.02 C 106.62 51.05 107.46 51.10 107.88 51.13 C 110.36 56.40 100.98 60.78 106.61 65.13 C 100.38 66.02 102.40 60.41 104.02 56.86 C 100.88 58.32 97.39 61.60 96.93 56.10 C 91.59 57.04 92.87 63.37 88.24 65.19 C 85.71 66.54 82.97 68.95 80.11 66.91 C 80.93 65.12 81.99 63.46 82.89 61.71 C 79.22 63.44 78.34 69.82 74.27 64.38 C 73.08 63.40 71.60 62.94 70.21 62.32 C 70.61 61.09 70.43 56.65 72.06 59.19 C 73.81 60.50 76.21 54.06 77.45 57.69 C 79.09 56.94 80.82 54.25 82.00 57.01 C 80.47 54.72 85.48 46.91 80.04 47.45 C 76.27 49.17 78.02 44.64 76.31 42.70 C 78.01 43.69 79.65 45.29 81.78 44.99 Z" />
</g>
<g id="#736271ff">
<path fill="#736271" opacity="1.00" d=" M 28.14 39.67 C 30.95 44.41 30.68 53.15 28.97 59.16 C 28.75 60.19 28.51 61.23 28.26 62.25 C 28.20 61.76 28.08 60.77 28.02 60.27 C 27.90 53.41 28.06 46.54 28.14 39.67 Z" />
</g>
<g id="#565c73ff">
<path fill="#565c73" opacity="1.00" d=" M 73.44 44.84 C 74.00 42.58 74.05 39.84 76.31 42.70 C 78.02 44.64 76.27 49.17 80.04 47.45 C 85.48 46.91 80.47 54.72 82.00 57.01 C 80.82 54.25 79.09 56.94 77.45 57.69 C 76.21 54.06 73.81 60.50 72.06 59.19 C 70.43 56.65 70.61 61.09 70.21 62.32 C 71.60 62.94 73.08 63.40 74.27 64.38 C 72.95 65.22 71.68 66.14 70.42 67.07 C 70.07 67.11 69.37 67.18 69.02 67.21 C 62.30 66.32 59.68 69.89 66.40 70.87 C 58.14 76.62 63.47 66.24 59.25 67.08 C 59.60 70.63 58.00 71.71 54.88 70.11 C 55.61 68.24 58.54 66.94 57.94 64.80 C 59.91 59.11 59.00 66.07 62.79 64.91 C 66.09 62.23 62.43 59.44 60.25 57.66 C 59.95 54.39 61.96 50.83 59.17 48.10 C 64.02 49.28 69.83 48.33 73.44 44.84 Z" />
</g>
<g id="#9aadc6ff">
<path fill="#9aadc6" opacity="1.00" d=" M 182.18 41.72 C 186.15 43.95 189.03 47.57 192.19 50.76 L 192.15 51.81 C 188.25 49.06 184.87 45.65 182.18 41.72 Z" />
</g>
<g id="#5e719eff">
<path fill="#5e719e" opacity="1.00" d=" M 54.82 44.35 C 60.97 45.69 67.22 45.55 73.44 44.84 C 69.83 48.33 64.02 49.28 59.17 48.10 C 61.96 50.83 59.95 54.39 60.25 57.66 C 62.43 59.44 66.09 62.23 62.79 64.91 C 59.00 66.07 59.91 59.11 57.94 64.80 C 59.09 57.91 55.57 51.66 54.82 44.35 Z" />
</g>
<g id="#83503aff">
<path fill="#83503a" opacity="1.00" d=" M 41.33 48.19 C 42.63 49.07 43.79 50.15 44.98 51.18 C 45.17 61.58 44.30 72.07 45.92 82.40 C 42.80 89.52 35.02 93.01 29.10 97.37 C 26.82 93.60 30.92 84.72 25.85 83.97 C 27.05 82.19 28.38 80.33 28.07 78.05 C 28.06 75.44 28.01 72.84 27.93 70.23 C 28.02 67.57 28.13 64.91 28.26 62.25 C 28.51 61.23 28.75 60.19 28.97 59.16 C 31.42 53.90 38.72 53.59 41.33 48.19 Z" />
</g>
<g id="#787d97ff">
<path fill="#787d97" opacity="1.00" d=" M 44.98 51.18 C 45.22 50.83 45.69 50.13 45.93 49.78 C 46.24 60.01 45.23 70.33 46.97 80.47 C 46.71 80.95 46.19 81.92 45.92 82.40 C 44.30 72.07 45.17 61.58 44.98 51.18 Z" />
</g>
<g id="#425b7fff">
<path fill="#425b7f" opacity="1.00" d=" M 8.77 54.73 C 7.86 49.93 12.12 51.43 15.51 52.34 C 16.60 59.69 20.11 68.17 27.93 70.23 C 28.01 72.84 28.06 75.44 28.07 78.05 C 25.82 74.85 19.19 78.19 23.98 73.81 C 21.66 75.31 13.37 71.57 13.29 75.92 C 14.13 78.33 14.66 81.03 16.54 82.89 C 19.53 86.33 23.28 89.44 24.72 93.92 C 24.51 94.26 24.09 94.92 23.88 95.25 L 23.29 94.76 C 19.61 84.75 6.06 86.04 0.00 92.40 L 0.00 89.24 C 2.86 87.67 5.99 86.76 9.06 85.70 C 8.57 82.94 2.01 86.22 5.05 83.96 C 8.61 80.07 11.68 87.39 16.14 86.06 C 14.46 78.87 8.46 77.10 1.84 78.94 C 3.47 76.78 6.17 76.55 8.42 75.42 C 13.15 69.68 2.07 63.31 3.09 56.67 C 4.98 56.01 6.88 55.38 8.77 54.73 C 8.02 60.30 8.40 67.23 12.36 71.70 C 14.78 68.44 19.45 72.22 22.13 69.19 C 14.77 66.30 17.83 53.22 8.77 54.73 Z" />
</g>
<g id="#6380b5ff">
<path fill="#6380b5" opacity="1.00" d=" M 107.88 51.13 C 112.78 51.72 108.13 62.59 115.62 58.41 C 119.07 57.20 120.34 63.28 123.60 61.54 C 128.76 58.06 130.14 67.61 136.00 66.77 C 131.26 66.94 126.48 66.74 121.79 67.52 C 120.61 67.59 119.43 67.62 118.26 67.61 C 116.46 67.27 114.65 66.96 112.82 66.95 C 110.32 66.70 105.50 68.73 106.61 65.13 C 100.98 60.78 110.36 56.40 107.88 51.13 Z" />
</g>
<g id="#6686a6ff">
<path fill="#6686a6" opacity="1.00" d=" M 192.19 50.76 C 199.35 55.07 204.04 62.37 210.83 67.15 C 219.56 74.05 226.07 87.06 237.67 88.91 C 233.55 93.67 243.71 94.83 242.40 99.26 C 242.04 98.96 241.32 98.36 240.96 98.07 C 224.23 83.14 208.09 67.58 192.15 51.81 L 192.19 50.76 Z" />
</g>
<g id="#597fb8ff">
<path fill="#597fb8" opacity="1.00" d=" M 8.77 54.73 C 17.83 53.22 14.77 66.30 22.13 69.19 C 19.45 72.22 14.78 68.44 12.36 71.70 C 8.40 67.23 8.02 60.30 8.77 54.73 Z" />
</g>
<g id="#5d5c64ff">
<path fill="#5d5c64" opacity="1.00" d=" M 88.24 65.19 C 92.87 63.37 91.59 57.04 96.93 56.10 C 97.39 61.60 100.88 58.32 104.02 56.86 C 102.40 60.41 100.38 66.02 106.61 65.13 C 105.50 68.73 110.32 66.70 112.82 66.95 C 111.36 70.08 114.50 71.50 117.20 71.41 C 109.64 74.39 101.33 69.56 93.57 72.59 C 95.46 71.54 109.54 74.47 97.15 74.31 C 94.30 75.24 89.16 72.45 87.87 75.71 C 85.74 74.02 83.72 72.21 81.90 70.20 C 85.49 70.79 88.84 69.33 88.24 65.19 Z" />
</g>
<g id="#2b3240ff">
<path fill="#2b3240" opacity="1.00" d=" M 74.27 64.38 C 78.34 69.82 79.22 63.44 82.89 61.71 C 81.99 63.46 80.93 65.12 80.11 66.91 C 82.97 68.95 85.71 66.54 88.24 65.19 C 88.84 69.33 85.49 70.79 81.90 70.20 C 80.67 69.21 79.45 68.05 77.76 68.11 C 75.31 67.79 72.86 67.44 70.42 67.07 C 71.68 66.14 72.95 65.22 74.27 64.38 Z" />
</g>
<g id="#4e96ddff">
<path fill="#4e96dd" opacity="1.00" d=" M 210.83 67.15 C 224.21 69.45 237.11 64.58 250.00 62.85 L 250.00 88.97 C 245.88 89.19 241.77 89.32 237.67 88.91 C 226.07 87.06 219.56 74.05 210.83 67.15 Z" />
</g>
<g id="#333536ff">
<path fill="#333536" opacity="1.00" d=" M 59.25 67.08 C 63.47 66.24 58.14 76.62 66.40 70.87 C 59.68 69.89 62.30 66.32 69.02 67.21 C 69.56 68.32 72.28 70.09 70.21 70.96 C 65.95 72.21 65.38 77.44 62.24 80.08 C 60.70 77.84 58.82 78.11 57.00 79.86 C 57.47 77.95 58.92 76.54 59.97 74.95 C 56.66 76.21 53.21 77.15 49.65 77.34 C 51.37 74.91 53.07 72.47 54.88 70.11 C 58.00 71.71 59.60 70.63 59.25 67.08 Z" />
</g>
<g id="#635f5aff">
<path fill="#635f5a" opacity="1.00" d=" M 69.02 67.21 C 69.37 67.18 70.07 67.11 70.42 67.07 C 72.86 67.44 75.31 67.79 77.76 68.11 C 79.53 75.05 85.07 80.51 86.26 87.64 C 83.03 87.35 81.00 88.55 82.02 91.99 C 85.17 92.23 88.52 92.39 91.49 91.09 C 93.42 92.49 90.13 92.75 89.28 93.52 C 88.23 95.59 90.17 97.27 91.19 98.85 C 87.13 99.01 83.09 98.73 79.09 97.98 C 74.73 96.97 70.07 96.36 65.71 97.67 C 61.50 98.06 57.18 97.91 53.05 98.98 C 49.59 99.03 46.14 98.98 42.68 98.83 C 44.49 96.57 49.13 93.96 43.85 93.10 C 42.48 87.28 62.78 87.60 57.00 79.86 C 58.82 78.11 60.70 77.84 62.24 80.08 C 65.38 77.44 65.95 72.21 70.21 70.96 C 72.28 70.09 69.56 68.32 69.02 67.21 Z" />
</g>
<g id="#585452ff">
<path fill="#585452" opacity="1.00" d=" M 112.82 66.95 C 114.65 66.96 116.46 67.27 118.26 67.61 C 106.71 69.70 130.39 72.06 121.79 67.52 C 126.48 66.74 131.26 66.94 136.00 66.77 C 135.86 68.74 137.65 69.03 139.11 69.56 C 136.77 71.13 131.13 71.86 137.11 72.29 C 133.84 73.70 134.17 75.57 137.05 77.35 C 132.04 82.37 127.93 88.22 122.51 92.85 C 119.46 92.09 110.72 93.14 112.92 96.89 C 111.74 97.28 110.55 97.66 109.38 98.08 C 109.17 92.64 104.17 90.24 99.45 89.75 C 101.34 83.53 92.63 83.35 93.34 78.23 C 90.85 78.72 89.46 76.99 87.87 75.71 C 89.16 72.45 94.30 75.24 97.15 74.31 C 109.54 74.47 95.46 71.54 93.57 72.59 C 101.33 69.56 109.64 74.39 117.20 71.41 C 114.50 71.50 111.36 70.08 112.82 66.95 Z" />
</g>
<g id="#3a3e43ff">
<path fill="#3a3e43" opacity="1.00" d=" M 136.00 66.77 C 139.50 67.01 142.96 67.41 146.42 67.96 C 143.38 71.17 140.24 74.28 137.05 77.35 C 134.17 75.57 133.84 73.70 137.11 72.29 C 131.13 71.86 136.77 71.13 139.11 69.56 C 137.65 69.03 135.86 68.74 136.00 66.77 Z" />
</g>
<g id="#736e68ff">
<path fill="#736e68" opacity="1.00" d=" M 77.76 68.11 C 79.45 68.05 80.67 69.21 81.90 70.20 C 83.72 72.21 85.74 74.02 87.87 75.71 C 89.46 76.99 90.85 78.72 93.34 78.23 C 92.63 83.35 101.34 83.53 99.45 89.75 C 104.17 90.24 109.17 92.64 109.38 98.08 C 107.83 99.67 106.95 101.86 105.18 103.23 C 100.03 103.13 96.26 98.88 91.19 98.85 C 90.17 97.27 88.23 95.59 89.28 93.52 C 90.13 92.75 93.42 92.49 91.49 91.09 C 90.24 89.29 88.41 88.06 86.26 87.64 C 85.07 80.51 79.53 75.05 77.76 68.11 Z" />
</g>
<g id="#222327ff">
<path fill="#222327" opacity="1.00" d=" M 121.79 67.52 C 130.39 72.06 106.71 69.70 118.26 67.61 C 119.43 67.62 120.61 67.59 121.79 67.52 Z" />
</g>
<g id="#6494c9ff">
<path fill="#6494c9" opacity="1.00" d=" M 0.00 75.36 C 2.39 72.20 5.75 73.20 8.42 75.42 C 6.17 76.55 3.47 76.78 1.84 78.94 C 8.46 77.10 14.46 78.87 16.14 86.06 C 11.68 87.39 8.61 80.07 5.05 83.96 C 2.01 86.22 8.57 82.94 9.06 85.70 C 5.99 86.76 2.86 87.67 0.00 89.24 L 0.00 75.36 Z" />
</g>
<g id="#537fb1ff">
<path fill="#537fb1" opacity="1.00" d=" M 13.29 75.92 C 13.37 71.57 21.66 75.31 23.98 73.81 C 19.19 78.19 25.82 74.85 28.07 78.05 C 28.38 80.33 27.05 82.19 25.85 83.97 C 22.61 84.33 19.64 81.24 16.54 82.89 C 14.66 81.03 14.13 78.33 13.29 75.92 Z" />
</g>
<g id="#474444ff">
<path fill="#474444" opacity="1.00" d=" M 49.65 77.34 C 53.21 77.15 56.66 76.21 59.97 74.95 C 58.92 76.54 57.47 77.95 57.00 79.86 C 62.78 87.60 42.48 87.28 43.85 93.10 C 49.13 93.96 44.49 96.57 42.68 98.83 C 41.16 99.04 38.14 99.45 36.62 99.66 L 35.70 99.75 C 37.16 97.80 38.99 96.12 40.25 94.01 C 34.69 96.50 30.14 101.43 23.88 102.13 C 25.00 100.60 26.12 99.01 24.21 97.57 C 24.13 96.99 23.97 95.83 23.88 95.25 C 24.09 94.92 24.51 94.26 24.72 93.92 C 25.36 96.02 26.38 99.50 29.10 97.37 C 35.02 93.01 42.80 89.52 45.92 82.40 C 46.19 81.92 46.71 80.95 46.97 80.47 C 47.86 79.42 48.75 78.38 49.65 77.34 Z" />
</g>
<g id="#70a1cdff">
<path fill="#70a1cd" opacity="1.00" d=" M 16.54 82.89 C 19.64 81.24 22.61 84.33 25.85 83.97 C 30.92 84.72 26.82 93.60 29.10 97.37 C 26.38 99.50 25.36 96.02 24.72 93.92 C 23.28 89.44 19.53 86.33 16.54 82.89 Z" />
</g>
<g id="#80afdbff">
<path fill="#80afdb" opacity="1.00" d=" M 0.00 92.40 C 6.06 86.04 19.61 84.75 23.29 94.76 C 20.94 93.18 19.29 92.62 20.67 95.96 C 14.05 95.48 6.81 91.70 0.67 95.59 C 10.02 92.60 6.71 101.50 2.75 104.10 C 1.81 103.01 0.89 101.89 0.00 100.75 L 0.00 92.40 Z" />
</g>
<g id="#322e2aff">
<path fill="#322e2a" opacity="1.00" d=" M 82.02 91.99 C 81.00 88.55 83.03 87.35 86.26 87.64 C 88.41 88.06 90.24 89.29 91.49 91.09 C 88.52 92.39 85.17 92.23 82.02 91.99 Z" />
</g>
<g id="#64a8deff">
<path fill="#64a8de" opacity="1.00" d=" M 237.67 88.91 C 241.77 89.32 245.88 89.19 250.00 88.97 L 250.00 103.24 C 246.71 103.61 244.27 101.73 242.40 99.26 C 243.71 94.83 233.55 93.67 237.67 88.91 Z" />
</g>
<g id="#2b2c2fff">
<path fill="#2b2c2f" opacity="1.00" d=" M 112.92 96.89 C 110.72 93.14 119.46 92.09 122.51 92.85 C 120.79 94.73 118.99 96.54 117.04 98.19 C 115.67 97.74 114.29 97.32 112.92 96.89 Z" />
</g>
<g id="#7792adff">
<path fill="#7792ad" opacity="1.00" d=" M 20.67 95.96 C 19.29 92.62 20.94 93.18 23.29 94.76 L 23.88 95.25 C 23.97 95.83 24.13 96.99 24.21 97.57 C 22.50 98.08 19.84 97.63 19.63 100.04 C 16.57 94.26 6.50 101.79 10.72 104.29 C 11.35 104.47 12.61 104.81 13.24 104.98 C 7.84 106.20 9.69 111.98 16.23 109.17 C 16.61 111.55 12.04 116.36 16.75 114.76 C 16.75 116.48 16.76 119.92 16.77 121.64 C 16.31 124.18 15.89 126.75 15.39 129.29 C 13.75 125.46 11.19 121.06 13.98 117.13 C 12.24 117.33 10.51 117.60 8.78 117.85 C 6.47 115.31 6.05 108.37 2.66 108.79 L 1.98 109.05 C 2.01 108.66 2.09 107.88 2.12 107.49 C 4.05 106.69 4.34 105.49 2.75 104.10 C 6.71 101.50 10.02 92.60 0.67 95.59 C 6.81 91.70 14.05 95.48 20.67 95.96 Z" />
</g>
<g id="#a0a2a6ff">
<path fill="#a0a2a6" opacity="1.00" d=" M 23.88 102.13 C 30.14 101.43 34.69 96.50 40.25 94.01 C 38.99 96.12 37.16 97.80 35.70 99.75 C 33.15 102.59 39.32 103.04 41.17 103.31 C 34.14 105.38 44.28 103.66 42.10 109.01 C 41.98 115.93 42.11 122.87 41.87 129.79 C 40.92 131.75 42.57 138.55 38.98 136.03 C 38.98 129.60 38.98 123.17 38.82 116.73 L 38.85 115.80 C 42.90 106.31 32.46 107.74 27.11 109.23 C 30.18 116.35 21.41 113.65 16.75 114.76 C 12.04 116.36 16.61 111.55 16.23 109.17 C 17.15 108.85 18.07 108.55 19.00 108.26 C 24.34 107.89 34.54 106.83 34.13 100.10 C 30.73 101.25 27.50 102.88 24.07 103.94 C 22.51 102.73 21.02 101.43 19.63 100.04 C 19.84 97.63 22.50 98.08 24.21 97.57 C 26.12 99.01 25.00 100.60 23.88 102.13 Z" />
</g>
<g id="#91908cff">
<path fill="#91908c" opacity="1.00" d=" M 65.71 97.67 C 70.07 96.36 74.73 96.97 79.09 97.98 C 74.63 97.88 70.17 97.84 65.71 97.67 Z" />
</g>
<g id="#abadb2ff">
<path fill="#abadb2" opacity="1.00" d=" M 109.38 98.08 C 110.55 97.66 111.74 97.28 112.92 96.89 C 114.29 97.32 115.67 97.74 117.04 98.19 C 113.84 101.50 115.60 104.27 119.99 104.19 L 120.06 105.09 C 120.03 108.11 120.48 111.29 119.07 114.08 C 117.97 111.53 121.44 103.37 116.10 105.19 C 114.67 105.29 113.22 105.52 111.80 105.28 C 112.12 103.58 109.72 101.71 109.10 104.04 C 108.82 104.56 108.26 105.59 107.98 106.11 L 107.23 106.08 C 108.25 104.25 106.69 103.69 105.18 103.23 C 106.95 101.86 107.83 99.67 109.38 98.08 Z" />
</g>
<g id="#a4bdd9ff">
<path fill="#a4bdd9" opacity="1.00" d=" M 10.72 104.29 C 6.50 101.79 16.57 94.26 19.63 100.04 C 21.02 101.43 22.51 102.73 24.07 103.94 C 19.62 105.14 15.16 102.71 10.72 104.29 Z" />
</g>
<g id="#dfded8ff">
<path fill="#dfded8" opacity="1.00" d=" M 53.05 98.98 C 57.18 97.91 61.50 98.06 65.71 97.67 C 70.17 97.84 74.63 97.88 79.09 97.98 C 83.09 98.73 87.13 99.01 91.19 98.85 C 96.26 98.88 100.03 103.13 105.18 103.23 C 106.69 103.69 108.25 104.25 107.23 106.08 C 104.49 106.02 101.76 105.89 99.03 105.69 C 97.08 102.06 91.34 102.76 87.99 102.09 C 72.43 102.56 56.57 100.46 41.17 103.31 C 39.32 103.04 33.15 102.59 35.70 99.75 L 36.62 99.66 C 42.10 99.67 47.71 100.73 53.05 98.98 Z" />
</g>
<g id="#c5d5e3ff">
<path fill="#c5d5e3" opacity="1.00" d=" M 240.96 98.07 C 241.32 98.36 242.04 98.96 242.40 99.26 C 244.27 101.73 246.71 103.61 250.00 103.24 L 250.00 112.02 C 246.51 111.33 238.38 114.48 240.64 108.19 C 239.94 105.67 244.86 102.77 241.18 101.74 C 241.10 100.51 241.03 99.29 240.96 98.07 Z" />
</g>
<g id="#9c9a95ff">
<path fill="#9c9a95" opacity="1.00" d=" M 36.62 99.66 C 38.14 99.45 41.16 99.04 42.68 98.83 C 46.14 98.98 49.59 99.03 53.05 98.98 C 47.71 100.73 42.10 99.67 36.62 99.66 Z" />
</g>
<g id="#787a7bff">
<path fill="#787a7b" opacity="1.00" d=" M 24.07 103.94 C 27.50 102.88 30.73 101.25 34.13 100.10 C 34.54 106.83 24.34 107.89 19.00 108.26 C 18.02 105.92 15.55 105.20 13.24 104.98 C 12.61 104.81 11.35 104.47 10.72 104.29 C 15.16 102.71 19.62 105.14 24.07 103.94 Z" />
</g>
<g id="#424c61ff">
<path fill="#424c61" opacity="1.00" d=" M 0.00 100.75 C 0.89 101.89 1.81 103.01 2.75 104.10 C 4.34 105.49 4.05 106.69 2.12 107.49 C 1.59 107.03 0.53 106.12 0.00 105.67 L 0.00 100.75 Z" />
</g>
<g id="#b9b9b6ff">
<path fill="#b9b9b6" opacity="1.00" d=" M 41.17 103.31 C 56.57 100.46 72.43 102.56 87.99 102.09 C 91.34 102.76 97.08 102.06 99.03 105.69 C 97.79 108.08 102.62 110.22 101.87 113.28 C 99.52 110.93 96.63 109.08 93.25 108.73 C 80.82 107.61 68.12 107.39 55.70 108.67 C 51.17 108.89 46.63 109.00 42.10 109.01 C 44.28 103.66 34.14 105.38 41.17 103.31 Z" />
</g>
<g id="#d0cecaff">
<path fill="#d0ceca" opacity="1.00" d=" M 126.97 102.99 C 162.62 103.68 198.22 100.93 233.87 102.21 C 234.15 104.86 234.23 107.61 235.39 110.07 C 235.40 108.04 239.66 102.90 240.07 106.64 C 240.92 111.28 236.76 111.07 235.03 113.76 C 234.89 115.82 234.94 117.89 235.05 119.95 C 233.85 115.63 233.89 109.94 228.82 108.35 C 231.83 109.40 236.35 104.89 232.13 103.34 C 215.06 104.27 198.11 104.86 180.95 103.98 C 170.00 104.16 159.04 103.64 148.11 104.12 C 146.02 105.15 143.14 106.29 142.80 108.91 C 147.86 109.04 152.94 109.01 158.01 109.00 L 157.99 109.99 C 152.37 110.03 146.76 110.01 141.15 109.95 C 141.34 99.95 126.75 106.45 120.06 105.09 L 119.99 104.19 C 122.29 103.67 124.59 102.99 126.97 102.99 Z" />
</g>
<g id="#767875ff">
<path fill="#767875" opacity="1.00" d=" M 233.87 102.21 C 236.34 102.68 238.85 102.87 241.18 101.74 C 244.86 102.77 239.94 105.67 240.64 108.19 C 240.50 107.80 240.22 107.03 240.07 106.64 C 239.66 102.90 235.40 108.04 235.39 110.07 C 234.23 107.61 234.15 104.86 233.87 102.21 Z" />
</g>
<g id="#2a2a2eff">
<path fill="#2a2a2e" opacity="1.00" d=" M 109.10 104.04 C 109.72 101.71 112.12 103.58 111.80 105.28 C 110.76 105.19 109.86 104.78 109.10 104.04 Z" />
</g>
<g id="#eae9e3ff">
<path fill="#eae9e3" opacity="1.00" d=" M 180.95 103.98 C 198.11 104.86 215.06 104.27 232.13 103.34 C 236.35 104.89 231.83 109.40 228.82 108.35 C 233.89 109.94 233.85 115.63 235.05 119.95 C 235.40 122.22 235.71 124.49 235.98 126.77 L 235.14 127.18 C 232.90 140.15 233.80 155.52 234.66 169.30 C 234.82 170.93 235.15 174.20 235.31 175.83 C 235.59 177.60 228.32 178.61 227.15 175.93 L 227.05 174.96 C 226.77 161.72 227.36 148.46 226.78 135.23 C 226.27 126.87 228.53 115.84 226.00 109.01 C 223.05 108.97 220.15 109.02 217.23 109.21 C 206.74 108.90 196.26 109.11 185.78 108.88 C 190.25 105.19 183.96 105.68 181.07 104.90 L 180.95 103.98 Z" />
</g>
<g id="#7b7b7eff">
<path fill="#7b7b7e" opacity="1.00" d=" M 109.10 104.04 C 109.86 104.78 110.76 105.19 111.80 105.28 C 113.22 105.52 114.67 105.29 116.10 105.19 C 115.69 106.43 115.29 107.67 114.91 108.92 C 105.51 105.65 109.05 115.19 112.85 118.17 C 113.12 130.09 112.98 142.01 113.03 153.93 C 108.81 153.70 110.65 158.25 107.38 158.14 C 106.73 157.01 106.05 155.91 105.37 154.80 C 105.32 154.45 105.22 153.73 105.16 153.37 C 106.09 147.17 106.03 140.89 106.18 134.64 C 107.11 140.76 106.79 146.96 107.12 153.11 C 113.74 151.92 110.57 143.16 110.60 138.34 C 109.34 130.68 113.46 118.20 105.58 115.18 C 105.52 111.77 104.49 108.19 107.98 106.11 C 108.26 105.59 108.82 104.56 109.10 104.04 Z" />
</g>
<g id="#f6f4f0ff">
<path fill="#f6f4f0" opacity="1.00" d=" M 142.80 108.91 C 143.14 106.29 146.02 105.15 148.11 104.12 C 159.04 103.64 170.00 104.16 180.95 103.98 L 181.07 104.90 C 177.71 105.04 174.36 105.51 171.04 106.03 C 173.15 109.71 174.02 113.82 174.09 118.06 C 174.50 138.05 172.94 158.23 174.63 178.13 C 174.31 179.53 172.18 178.90 171.13 179.46 C 170.67 156.00 171.34 132.52 170.88 109.06 C 166.58 108.95 162.30 108.93 158.01 109.00 C 152.94 109.01 147.86 109.04 142.80 108.91 Z" />
</g>
<g id="#dadad7ff">
<path fill="#dadad7" opacity="1.00" d=" M 13.24 104.98 C 15.55 105.20 18.02 105.92 19.00 108.26 C 18.07 108.55 17.15 108.85 16.23 109.17 C 9.69 111.98 7.84 106.20 13.24 104.98 Z" />
</g>
<g id="#211714ff">
<path fill="#211714" opacity="1.00" d=" M 116.10 105.19 C 121.44 103.37 117.97 111.53 119.07 114.08 C 116.77 136.96 118.40 160.20 118.13 183.22 C 118.73 182.14 119.27 181.04 119.80 179.94 C 119.86 184.07 120.17 188.20 120.75 192.30 C 120.95 193.88 120.35 195.17 118.94 195.94 C 117.58 195.82 116.28 195.40 114.98 195.01 C 109.03 195.16 109.15 188.76 107.27 184.82 C 106.90 176.21 106.99 167.60 107.00 159.00 C 112.43 160.87 113.75 158.24 113.03 153.93 C 112.98 142.01 113.12 130.09 112.85 118.17 C 117.57 123.94 113.78 110.91 114.91 108.92 C 115.29 107.67 115.69 106.43 116.10 105.19 Z" />
</g>
<g id="#f5f2edff">
<path fill="#f5f2ed" opacity="1.00" d=" M 120.06 105.09 C 126.75 106.45 141.34 99.95 141.15 109.95 C 138.19 110.00 135.25 110.01 132.30 110.17 C 130.49 110.15 126.86 110.10 125.05 110.08 C 125.88 127.95 123.25 146.46 125.97 164.03 C 124.51 169.25 130.32 182.44 120.85 180.00 L 119.80 179.94 L 119.66 179.17 C 119.58 172.38 121.01 165.39 119.32 158.71 C 118.79 143.84 118.93 128.95 119.07 114.08 C 120.48 111.29 120.03 108.11 120.06 105.09 Z" />
</g>
<g id="#d6d4ceff">
<path fill="#d6d4ce" opacity="1.00" d=" M 171.04 106.03 C 174.36 105.51 177.71 105.04 181.07 104.90 C 183.96 105.68 190.25 105.19 185.78 108.88 C 183.36 110.59 176.04 107.85 175.05 111.10 C 175.03 112.78 175.00 116.15 174.98 117.83 L 174.09 118.06 C 174.02 113.82 173.15 109.71 171.04 106.03 Z" />
</g>
<g id="#1d171aff">
<path fill="#1d171a" opacity="1.00" d=" M 0.00 105.67 C 0.53 106.12 1.59 107.03 2.12 107.49 C 2.09 107.88 2.01 108.66 1.98 109.05 C 1.92 109.73 1.79 111.09 1.73 111.76 C 0.84 119.51 0.68 127.35 1.10 135.15 C 1.51 134.90 2.32 134.42 2.73 134.18 C 5.37 131.17 7.83 128.00 10.37 124.90 C 11.52 127.01 12.58 129.35 15.39 129.29 C 16.40 147.85 16.42 166.48 16.02 185.07 C 10.78 186.78 5.29 187.52 0.00 189.07 L 0.00 170.55 C 4.23 169.58 -1.38 163.69 2.34 162.33 C 5.57 161.46 8.93 161.23 12.21 160.69 C 8.68 158.16 4.07 159.28 0.00 158.93 L 0.00 105.67 Z" />
</g>
<g id="#959699ff">
<path fill="#959699" opacity="1.00" d=" M 101.87 113.28 C 102.62 110.22 97.79 108.08 99.03 105.69 C 101.76 105.89 104.49 106.02 107.23 106.08 L 107.98 106.11 C 104.49 108.19 105.52 111.77 105.58 115.18 C 113.46 118.20 109.34 130.68 110.60 138.34 C 110.57 143.16 113.74 151.92 107.12 153.11 C 106.79 146.96 107.11 140.76 106.18 134.64 C 104.38 129.38 109.11 120.27 104.29 116.65 C 103.45 115.55 102.63 114.44 101.87 113.28 Z" />
</g>
<g id="#a4bfd6ff">
<path fill="#a4bfd6" opacity="1.00" d=" M 235.03 113.76 C 236.76 111.07 240.92 111.28 240.07 106.64 C 240.22 107.03 240.50 107.80 240.64 108.19 C 238.38 114.48 246.51 111.33 250.00 112.02 L 250.00 120.78 C 248.07 121.54 246.15 122.31 244.21 123.02 C 244.41 119.62 240.66 121.31 241.99 123.91 C 240.62 124.63 239.24 125.33 237.82 125.96 C 236.14 122.45 239.60 115.03 235.03 113.76 Z" />
</g>
<g id="#c1b3abff">
<path fill="#c1b3ab" opacity="1.00" d=" M 2.66 108.79 C 6.05 108.37 6.47 115.31 8.78 117.85 C 9.87 119.80 11.35 121.87 10.46 124.21 C 7.36 119.33 4.62 114.23 2.66 108.79 Z" />
</g>
<g id="#8c8c8dff">
<path fill="#8c8c8d" opacity="1.00" d=" M 27.11 109.23 C 32.46 107.74 42.90 106.31 38.85 115.80 C 36.58 116.64 33.29 116.18 31.91 118.47 C 31.41 118.61 30.40 118.87 29.89 119.00 C 28.62 119.15 27.81 120.13 27.00 121.00 C 30.46 112.19 21.36 115.67 16.75 114.76 C 21.41 113.65 30.18 116.35 27.11 109.23 Z" />
</g>
<g id="#dddcd8ff">
<path fill="#dddcd8" opacity="1.00" d=" M 55.70 108.67 C 68.12 107.39 80.82 107.61 93.25 108.73 C 80.73 109.08 68.21 109.22 55.70 108.67 Z" />
</g>
<g id="#945d44ff">
<path fill="#945d44" opacity="1.00" d=" M 1.98 109.05 L 2.66 108.79 C 4.62 114.23 7.36 119.33 10.46 124.21 L 10.37 124.90 C 7.83 128.00 5.37 131.17 2.73 134.18 C 1.87 126.74 1.91 119.24 1.73 111.76 C 1.79 111.09 1.92 109.73 1.98 109.05 Z" />
</g>
<g id="#f7f7f3ff">
<path fill="#f7f7f3" opacity="1.00" d=" M 42.10 109.01 C 46.63 109.00 51.17 108.89 55.70 108.67 C 68.21 109.22 80.73 109.08 93.25 108.73 C 96.63 109.08 99.52 110.93 101.87 113.28 C 102.63 114.44 103.45 115.55 104.29 116.65 C 101.75 116.96 96.55 114.28 96.02 116.95 C 95.93 121.34 95.94 125.74 96.08 130.14 L 96.10 130.78 C 95.17 133.84 99.08 132.12 100.05 133.83 C 98.89 134.42 95.99 133.25 96.05 135.09 L 95.99 135.98 C 95.84 141.23 95.89 146.48 96.12 151.74 C 98.79 152.20 101.50 152.71 104.19 153.17 L 105.16 153.37 C 105.22 153.73 105.32 154.45 105.37 154.80 C 107.36 159.78 101.96 156.59 99.19 157.24 C 94.68 155.66 89.94 155.29 85.23 154.72 C 83.49 139.93 84.62 124.80 84.58 109.92 C 72.43 109.98 60.28 110.01 48.13 109.95 C 49.12 111.30 50.13 112.63 51.06 114.03 L 51.07 115.04 C 50.80 126.97 51.32 138.92 50.81 150.86 C 50.26 155.25 45.67 155.38 42.26 156.23 C 41.95 147.42 42.05 138.60 41.87 129.79 C 42.11 122.87 41.98 115.93 42.10 109.01 Z" />
</g>
<g id="#605d5bff">
<path fill="#605d5b" opacity="1.00" d=" M 112.85 118.17 C 109.05 115.19 105.51 105.65 114.91 108.92 C 113.78 110.91 117.57 123.94 112.85 118.17 Z" />
</g>
<g id="#bfb1a9ff">
<path fill="#bfb1a9" opacity="1.00" d=" M 158.01 109.00 C 162.30 108.93 166.58 108.95 170.88 109.06 C 171.34 132.52 170.67 156.00 171.13 179.46 C 169.09 177.50 169.14 174.87 169.65 172.30 C 170.30 163.25 169.98 154.17 170.02 145.10 C 168.70 134.21 172.25 119.28 169.00 110.03 C 165.32 109.91 161.67 110.01 157.99 109.99 L 158.01 109.00 Z" />
</g>
<g id="#a4a098ff">
<path fill="#a4a098" opacity="1.00" d=" M 175.05 111.10 C 176.04 107.85 183.36 110.59 185.78 108.88 C 196.26 109.11 206.74 108.90 217.23 109.21 C 203.21 110.65 189.06 109.51 175.05 111.10 Z" />
</g>
<g id="#79726aff">
<path fill="#79726a" opacity="1.00" d=" M 217.23 109.21 C 220.15 109.02 223.05 108.97 226.00 109.01 C 225.97 109.70 225.92 111.07 225.89 111.75 C 224.95 112.33 224.02 112.93 223.10 113.55 C 212.40 116.35 214.80 127.00 215.08 135.94 C 210.55 133.34 218.82 115.65 211.16 119.49 C 208.45 119.19 205.75 118.99 203.04 118.90 C 193.92 123.60 184.15 121.78 174.98 117.83 C 175.00 116.15 175.03 112.78 175.05 111.10 C 189.06 109.51 203.21 110.65 217.23 109.21 M 188.91 111.04 C 189.24 116.22 195.36 114.50 197.18 111.08 C 194.42 110.92 191.67 110.91 188.91 111.04 Z" />
</g>
<g id="#b1b2b0ff">
<path fill="#b1b2b0" opacity="1.00" d=" M 226.00 109.01 C 228.53 115.84 226.27 126.87 226.78 135.23 C 225.72 127.44 226.00 119.58 225.89 111.75 C 225.92 111.07 225.97 109.70 226.00 109.01 Z" />
</g>
<g id="#ece9e1ff">
<path fill="#ece9e1" opacity="1.00" d=" M 48.13 109.95 C 60.28 110.01 72.43 109.98 84.58 109.92 C 84.62 124.80 83.49 139.93 85.23 154.72 C 89.94 155.29 94.68 155.66 99.19 157.24 C 82.45 159.28 65.50 156.71 48.76 158.79 C 45.10 158.95 41.43 159.08 37.77 158.78 C 38.36 157.41 39.79 157.05 41.07 156.59 C 41.36 156.50 41.96 156.32 42.26 156.23 C 45.67 155.38 50.26 155.25 50.81 150.86 C 56.45 156.02 69.67 151.59 78.01 153.02 L 79.00 152.99 C 81.74 153.06 82.33 151.14 80.77 147.24 C 80.45 136.54 82.23 124.92 80.31 114.67 C 70.93 113.15 60.77 114.27 51.06 114.03 C 50.13 112.63 49.12 111.30 48.13 109.95 Z" />
</g>
<g id="#d8c0b0ff">
<path fill="#d8c0b0" opacity="1.00" d=" M 125.05 110.08 C 126.86 110.10 130.49 110.15 132.30 110.17 C 130.96 112.86 126.08 109.76 126.10 112.66 C 125.84 128.43 126.10 144.20 125.97 159.97 C 125.95 161.32 125.95 162.68 125.97 164.03 C 123.25 146.46 125.88 127.95 125.05 110.08 Z" />
</g>
<g id="#b08d78ff">
<path fill="#b08d78" opacity="1.00" d=" M 132.30 110.17 C 135.25 110.01 138.19 110.00 141.15 109.95 C 146.76 110.01 152.37 110.03 157.99 109.99 C 161.67 110.01 165.32 109.91 169.00 110.03 C 168.96 111.84 168.89 115.46 168.85 117.27 C 167.00 115.89 168.82 111.63 165.93 111.91 C 162.59 111.84 159.28 111.92 155.97 112.32 C 149.93 112.18 144.05 112.22 138.29 114.29 C 139.30 112.28 143.05 108.72 135.21 112.16 C 133.35 115.22 136.90 118.09 134.87 121.09 C 131.54 118.69 129.79 114.62 126.10 112.66 C 126.08 109.76 130.96 112.86 132.30 110.17 Z" />
</g>
<g id="#8d593eff">
<path fill="#8d593e" opacity="1.00" d=" M 169.00 110.03 C 172.25 119.28 168.70 134.21 170.02 145.10 L 169.22 144.81 C 169.19 143.32 168.07 143.41 166.95 143.58 C 171.03 136.87 168.29 128.16 168.85 120.76 C 167.03 124.39 166.22 128.40 162.23 130.83 C 164.91 133.79 163.49 137.37 160.21 139.10 C 161.38 130.84 158.80 121.91 162.40 114.12 C 164.74 118.80 165.26 115.24 165.93 111.91 C 168.82 111.63 167.00 115.89 168.85 117.27 C 168.89 115.46 168.96 111.84 169.00 110.03 Z" />
</g>
<g id="#463f35ff">
<path fill="#463f35" opacity="1.00" d=" M 188.91 111.04 C 191.67 110.91 194.42 110.92 197.18 111.08 C 195.36 114.50 189.24 116.22 188.91 111.04 Z" />
</g>
<g id="#543328ff">
<path fill="#543328" opacity="1.00" d=" M 1.10 135.15 C 0.68 127.35 0.84 119.51 1.73 111.76 C 1.91 119.24 1.87 126.74 2.73 134.18 C 2.32 134.42 1.51 134.90 1.10 135.15 Z" />
</g>
<g id="#a56a4cff">
<path fill="#a56a4c" opacity="1.00" d=" M 135.21 112.16 C 143.05 108.72 139.30 112.28 138.29 114.29 L 138.15 115.00 L 138.08 115.74 C 137.94 117.09 137.84 118.44 137.75 119.79 C 137.30 127.51 135.73 135.63 137.65 143.25 L 137.92 144.04 C 143.60 144.37 144.05 144.48 142.24 148.87 C 138.46 146.56 134.65 150.46 136.08 153.52 C 139.87 152.51 142.03 153.07 139.99 157.21 C 134.92 156.66 130.61 157.89 125.97 159.97 C 126.10 144.20 125.84 128.43 126.10 112.66 C 129.79 114.62 131.54 118.69 134.87 121.09 C 136.90 118.09 133.35 115.22 135.21 112.16 Z" />
</g>
<g id="#7f5949ff">
<path fill="#7f5949" opacity="1.00" d=" M 138.29 114.29 C 144.05 112.22 149.93 112.18 155.97 112.32 C 160.58 117.61 153.51 124.58 157.74 129.81 C 153.58 133.34 159.99 137.46 157.13 141.50 C 154.75 143.96 157.49 149.75 152.89 149.22 C 145.87 153.46 140.42 143.10 150.21 144.20 C 153.82 144.26 154.63 143.77 151.13 142.15 C 151.62 141.96 152.59 141.58 153.07 141.40 C 157.84 135.25 153.71 123.24 154.94 115.10 C 154.49 115.08 153.59 115.04 153.15 115.03 C 148.14 114.95 143.15 114.98 138.15 115.00 L 138.29 114.29 Z" />
</g>
<g id="#a86e4fff">
<path fill="#a86e4f" opacity="1.00" d=" M 155.97 112.32 C 159.28 111.92 162.59 111.84 165.93 111.91 C 165.26 115.24 164.74 118.80 162.40 114.12 C 158.80 121.91 161.38 130.84 160.21 139.10 C 163.49 137.37 164.91 133.79 162.23 130.83 C 166.22 128.40 167.03 124.39 168.85 120.76 C 168.29 128.16 171.03 136.87 166.95 143.58 C 168.07 143.41 169.19 143.32 169.22 144.81 C 168.37 148.13 171.00 162.04 166.72 153.76 C 166.96 159.22 157.03 165.83 158.00 157.11 C 156.59 155.79 154.82 154.79 153.88 153.04 C 153.53 151.77 153.19 150.50 152.89 149.22 C 157.49 149.75 154.75 143.96 157.13 141.50 C 159.99 137.46 153.58 133.34 157.74 129.81 C 153.51 124.58 160.58 117.61 155.97 112.32 Z" />
</g>
<g id="#8e8d8dff">
<path fill="#8e8d8d" opacity="1.00" d=" M 223.10 113.55 C 224.02 112.93 224.95 112.33 225.89 111.75 C 226.00 119.58 225.72 127.44 226.78 135.23 C 227.36 148.46 226.77 161.72 227.05 174.96 C 226.60 174.99 225.68 175.06 225.22 175.09 C 225.10 173.38 224.85 169.95 224.73 168.24 C 225.03 159.41 225.36 150.55 224.32 141.76 C 225.77 135.79 224.13 133.11 218.92 134.96 C 227.43 131.88 224.36 120.57 223.10 113.55 Z" />
</g>
<g id="#8a8c87ff">
<path fill="#8a8c87" opacity="1.00" d=" M 51.06 114.03 C 60.77 114.27 70.93 113.15 80.31 114.67 C 82.23 124.92 80.45 136.54 80.77 147.24 C 79.08 138.11 81.15 128.63 79.20 119.60 L 79.01 118.66 C 79.36 115.58 77.69 114.69 74.00 116.00 C 66.45 115.20 58.35 117.56 51.07 115.04 L 51.06 114.03 Z" />
</g>
<g id="#5b5553ff">
<path fill="#5b5553" opacity="1.00" d=" M 118.13 183.22 C 118.40 160.20 116.77 136.96 119.07 114.08 C 118.93 128.95 118.79 143.84 119.32 158.71 C 119.39 165.49 118.02 172.49 119.66 179.17 L 119.80 179.94 C 119.27 181.04 118.73 182.14 118.13 183.22 Z" />
</g>
<g id="#b1cee5ff">
<path fill="#b1cee5" opacity="1.00" d=" M 215.08 135.94 C 214.80 127.00 212.40 116.35 223.10 113.55 C 224.36 120.57 227.43 131.88 218.92 134.96 C 217.91 135.42 216.90 135.87 215.90 136.32 L 215.08 135.94 Z" />
</g>
<g id="#4c575eff">
<path fill="#4c575e" opacity="1.00" d=" M 235.03 113.76 C 239.60 115.03 236.14 122.45 237.82 125.96 C 237.36 126.16 236.44 126.57 235.98 126.77 C 235.71 124.49 235.40 122.22 235.05 119.95 C 234.94 117.89 234.89 115.82 235.03 113.76 Z" />
</g>
<g id="#47322bff">
<path fill="#47322b" opacity="1.00" d=" M 16.75 114.76 C 21.36 115.67 30.46 112.19 27.00 121.00 C 23.58 121.01 20.13 120.88 16.77 121.64 C 16.76 119.92 16.75 116.48 16.75 114.76 Z" />
</g>
<g id="#c8cac1ff">
<path fill="#c8cac1" opacity="1.00" d=" M 51.07 115.04 C 58.35 117.56 66.45 115.20 74.00 116.00 C 77.69 114.69 79.36 115.58 79.01 118.66 C 77.11 130.01 78.26 141.57 78.01 153.02 C 69.67 151.59 56.45 156.02 50.81 150.86 C 51.32 138.92 50.80 126.97 51.07 115.04 Z" />
</g>
<g id="#c2bbb4ff">
<path fill="#c2bbb4" opacity="1.00" d=" M 138.15 115.00 C 143.15 114.98 148.14 114.95 153.15 115.03 C 152.04 116.18 150.93 117.34 149.88 118.55 L 149.11 118.56 C 144.84 118.21 140.54 119.06 138.08 115.74 L 138.15 115.00 Z" />
</g>
<g id="#9d9a9dff">
<path fill="#9d9a9d" opacity="1.00" d=" M 153.15 115.03 C 153.59 115.04 154.49 115.08 154.94 115.10 C 153.71 123.24 157.84 135.25 153.07 141.40 C 149.52 134.76 155.67 122.84 149.88 118.55 C 150.93 117.34 152.04 116.18 153.15 115.03 Z" />
</g>
<g id="#575450ff">
<path fill="#575450" opacity="1.00" d=" M 31.91 118.47 C 33.29 116.18 36.58 116.64 38.85 115.80 L 38.82 116.73 C 37.89 122.76 37.99 128.87 38.00 134.95 L 37.14 134.73 C 29.22 134.32 34.72 123.39 31.91 118.47 Z" />
</g>
<g id="#67675fff">
<path fill="#67675f" opacity="1.00" d=" M 96.02 116.95 C 96.55 114.28 101.75 116.96 104.29 116.65 C 109.11 120.27 104.38 129.38 106.18 134.64 C 99.64 137.35 104.52 146.67 102.95 151.97 C 99.20 147.12 107.46 132.29 95.99 135.98 L 96.05 135.09 C 108.90 139.69 101.64 125.47 102.88 119.12 C 103.12 116.11 97.94 118.00 96.02 116.95 Z" />
</g>
<g id="#eee9dfff">
<path fill="#eee9df" opacity="1.00" d=" M 138.08 115.74 C 140.54 119.06 144.84 118.21 149.11 118.56 C 145.39 118.73 139.57 117.45 141.08 122.64 C 141.01 128.38 140.85 134.12 141.07 139.85 C 143.87 139.97 146.77 139.97 149.58 140.30 C 149.97 140.76 150.75 141.68 151.13 142.15 C 154.63 143.77 153.82 144.26 150.21 144.20 C 146.11 144.16 142.02 144.10 137.92 144.04 L 137.65 143.25 C 138.05 135.43 138.07 127.61 137.75 119.79 C 137.84 118.44 137.94 117.09 138.08 115.74 Z" />
</g>
<g id="#4a5a69ff">
<path fill="#4a5a69" opacity="1.00" d=" M 8.78 117.85 C 10.51 117.60 12.24 117.33 13.98 117.13 C 11.19 121.06 13.75 125.46 15.39 129.29 C 12.58 129.35 11.52 127.01 10.37 124.90 L 10.46 124.21 C 11.35 121.87 9.87 119.80 8.78 117.85 Z" />
</g>
<g id="#8d8b89ff">
<path fill="#8d8b89" opacity="1.00" d=" M 38.00 134.95 C 37.99 128.87 37.89 122.76 38.82 116.73 C 38.98 123.17 38.98 129.60 38.98 136.03 C 40.65 142.27 35.69 152.70 41.07 156.59 C 39.79 157.05 38.36 157.41 37.77 158.78 C 33.40 158.81 29.09 159.50 24.75 159.97 L 24.73 159.22 C 27.79 158.15 38.16 154.97 31.17 153.95 C 31.17 147.88 30.42 141.69 31.66 135.70 C 34.14 141.09 26.58 156.71 37.94 152.98 C 38.08 146.97 38.10 140.96 38.00 134.95 Z" />
</g>
<g id="#d1d2c3ff">
<path fill="#d1d2c3" opacity="1.00" d=" M 96.02 116.95 C 97.94 118.00 103.12 116.11 102.88 119.12 C 101.64 125.47 108.90 139.69 96.05 135.09 C 95.99 133.25 98.89 134.42 100.05 133.83 C 99.08 132.12 95.17 133.84 96.10 130.78 C 100.90 134.05 102.00 128.03 96.08 130.14 C 95.94 125.74 95.93 121.34 96.02 116.95 Z" />
</g>
<g id="#d2bba9ff">
<path fill="#d2bba9" opacity="1.00" d=" M 174.09 118.06 L 174.98 117.83 C 174.99 118.33 175.02 119.32 175.03 119.82 C 175.00 123.83 175.01 127.84 175.05 131.85 C 175.01 134.90 174.98 137.97 174.99 141.03 C 174.98 150.70 174.95 160.37 175.01 170.05 C 175.02 170.78 175.02 172.25 175.03 172.99 C 175.01 174.37 174.98 175.76 174.96 177.15 L 174.63 178.13 C 172.94 158.23 174.50 138.05 174.09 118.06 Z" />
</g>
<g id="#645e55ff">
<path fill="#645e55" opacity="1.00" d=" M 174.98 117.83 C 184.15 121.78 193.92 123.60 203.04 118.90 C 199.14 122.28 201.55 128.53 200.89 133.20 C 200.32 131.54 199.69 129.86 198.48 128.55 C 194.76 120.04 200.45 138.51 195.04 137.15 C 194.33 134.50 196.24 129.84 194.22 128.12 L 193.36 127.95 C 187.48 127.30 176.42 123.28 178.24 133.32 C 176.48 129.60 181.56 119.49 175.03 119.82 C 175.02 119.32 174.99 118.33 174.98 117.83 Z" />
</g>
<g id="#8e5a3dff">
<path fill="#8e5a3d" opacity="1.00" d=" M 211.16 119.49 C 218.82 115.65 210.55 133.34 215.08 135.94 L 215.90 136.32 C 215.51 137.45 215.15 138.60 214.80 139.75 C 213.57 141.25 214.67 142.86 216.33 143.30 C 216.56 146.06 216.90 148.83 216.81 151.61 C 212.76 158.12 215.59 167.39 216.03 174.92 C 206.94 174.93 197.85 175.03 188.77 175.22 C 184.18 174.53 179.52 174.21 175.03 172.99 C 175.02 172.25 175.02 170.78 175.01 170.05 C 180.98 171.31 187.81 171.26 192.83 167.45 C 195.65 167.23 197.03 171.21 199.54 167.56 C 197.27 159.38 185.04 162.00 177.05 160.84 C 175.42 155.14 184.49 158.97 187.23 157.23 C 191.48 157.11 195.76 157.04 200.02 157.36 C 200.52 157.50 201.50 157.80 201.99 157.94 C 202.35 146.71 201.49 135.45 202.16 124.24 C 205.14 122.63 208.24 121.23 211.16 119.49 Z" />
</g>
<g id="#d2c3bbff">
<path fill="#d2c3bb" opacity="1.00" d=" M 27.00 121.00 C 27.81 120.13 28.62 119.15 29.89 119.00 C 27.90 130.80 29.73 142.83 28.74 154.71 C 28.22 154.88 27.17 155.20 26.65 155.37 C 26.86 143.91 27.17 132.46 27.00 121.00 Z" />
</g>
<g id="#e0dedbff">
<path fill="#e0dedb" opacity="1.00" d=" M 29.89 119.00 C 30.40 118.87 31.41 118.61 31.91 118.47 C 32.09 124.21 32.03 129.96 31.66 135.70 C 30.42 141.69 31.17 147.88 31.17 153.95 C 31.54 157.08 28.46 155.59 26.65 155.37 C 27.17 155.20 28.22 154.88 28.74 154.71 C 29.73 142.83 27.90 130.80 29.89 119.00 Z" />
</g>
<g id="#93918cff">
<path fill="#93918c" opacity="1.00" d=" M 31.91 118.47 C 34.72 123.39 29.22 134.32 37.14 134.73 C 35.30 134.97 33.47 135.31 31.66 135.70 C 32.03 129.96 32.09 124.21 31.91 118.47 Z" />
</g>
<g id="#9da39fff">
<path fill="#9da39f" opacity="1.00" d=" M 78.01 153.02 C 78.26 141.57 77.11 130.01 79.01 118.66 L 79.20 119.60 C 78.94 130.72 78.98 141.86 79.00 152.99 L 78.01 153.02 Z" />
</g>
<g id="#585553ff">
<path fill="#585553" opacity="1.00" d=" M 141.08 122.64 C 139.57 117.45 145.39 118.73 149.11 118.56 L 149.88 118.55 C 155.67 122.84 149.52 134.76 153.07 141.40 C 152.59 141.58 151.62 141.96 151.13 142.15 C 150.75 141.68 149.97 140.76 149.58 140.30 C 143.09 135.88 146.93 126.91 141.08 122.64 Z" />
</g>
<g id="#492f20ff">
<path fill="#492f20" opacity="1.00" d=" M 203.04 118.90 C 205.75 118.99 208.45 119.19 211.16 119.49 C 208.24 121.23 205.14 122.63 202.16 124.24 C 201.49 135.45 202.35 146.71 201.99 157.94 C 201.50 157.80 200.52 157.50 200.02 157.36 C 201.53 149.39 201.06 141.25 200.89 133.20 C 201.55 128.53 199.14 122.28 203.04 118.90 Z" />
</g>
<g id="#60645eff">
<path fill="#60645e" opacity="1.00" d=" M 79.20 119.60 C 81.15 128.63 79.08 138.11 80.77 147.24 C 82.33 151.14 81.74 153.06 79.00 152.99 C 78.98 141.86 78.94 130.72 79.20 119.60 Z" />
</g>
<g id="#b78c77ff">
<path fill="#b78c77" opacity="1.00" d=" M 137.65 143.25 C 135.73 135.63 137.30 127.51 137.75 119.79 C 138.07 127.61 138.05 135.43 137.65 143.25 Z" />
</g>
<g id="#271b12ff">
<path fill="#271b12" opacity="1.00" d=" M 175.03 119.82 C 181.56 119.49 176.48 129.60 178.24 133.32 C 178.16 133.80 178.00 134.77 177.92 135.26 C 176.93 134.14 175.97 133.01 175.05 131.85 C 175.01 127.84 175.00 123.83 175.03 119.82 Z" />
</g>
<g id="#a77456ff">
<path fill="#a77456" opacity="1.00" d=" M 16.77 121.64 C 20.13 120.88 23.58 121.01 27.00 121.00 C 27.17 132.46 26.86 143.91 26.65 155.37 C 24.27 154.69 24.80 157.72 24.73 159.22 L 24.75 159.97 C 22.99 159.91 23.50 161.59 23.47 162.75 C 23.99 169.98 22.98 177.22 23.36 184.46 L 23.38 185.35 C 21.22 185.63 20.94 187.44 20.97 189.27 C 20.38 187.78 19.37 187.04 17.82 187.78 C 17.38 187.85 16.50 187.99 16.06 188.05 C 16.05 187.31 16.03 185.81 16.02 185.07 C 16.42 166.48 16.40 147.85 15.39 129.29 C 15.89 126.75 16.31 124.18 16.77 121.64 Z" />
</g>
<g id="#677380ff">
<path fill="#677380" opacity="1.00" d=" M 241.99 123.91 C 240.66 121.31 244.41 119.62 244.21 123.02 C 243.65 123.24 242.55 123.69 241.99 123.91 Z" />
</g>
<g id="#161d2cff">
<path fill="#161d2c" opacity="1.00" d=" M 244.21 123.02 C 246.15 122.31 248.07 121.54 250.00 120.78 L 250.00 125.74 C 244.96 126.56 240.02 127.87 235.09 129.15 C 235.10 128.66 235.13 127.67 235.14 127.18 L 235.98 126.77 C 236.44 126.57 237.36 126.16 237.82 125.96 C 239.24 125.33 240.62 124.63 241.99 123.91 C 242.55 123.69 243.65 123.24 244.21 123.02 Z" />
</g>
<g id="#7d7c76ff">
<path fill="#7d7c76" opacity="1.00" d=" M 141.08 122.64 C 146.93 126.91 143.09 135.88 149.58 140.30 C 146.77 139.97 143.87 139.97 141.07 139.85 C 140.85 134.12 141.01 128.38 141.08 122.64 Z" />
</g>
<g id="#e7e2d7ff">
<path fill="#e7e2d7" opacity="1.00" d=" M 195.04 137.15 C 200.45 138.51 194.76 120.04 198.48 128.55 C 201.10 138.18 195.05 139.34 187.27 138.27 C 175.51 133.41 181.15 147.04 180.06 152.91 C 185.03 153.06 190.02 152.96 195.00 153.05 L 195.87 153.40 C 197.17 154.01 198.47 154.64 199.76 155.28 C 199.83 155.80 199.96 156.84 200.02 157.36 C 195.76 157.04 191.48 157.11 187.23 157.23 C 173.82 161.61 178.73 147.68 177.94 139.84 C 177.96 138.31 177.94 136.78 177.92 135.26 C 183.02 132.73 187.97 129.84 193.36 127.95 L 194.22 128.12 C 193.83 131.44 191.51 134.60 195.04 137.15 Z" />
</g>
<g id="#4b5672ff">
<path fill="#4b5672" opacity="1.00" d=" M 235.09 129.15 C 240.02 127.87 244.96 126.56 250.00 125.74 L 250.00 126.78 C 245.14 128.65 240.12 130.09 235.04 131.18 C 235.05 130.67 235.08 129.66 235.09 129.15 Z" />
</g>
<g id="#a4a6a1ff">
<path fill="#a4a6a1" opacity="1.00" d=" M 178.24 133.32 C 176.42 123.28 187.48 127.30 193.36 127.95 C 187.97 129.84 183.02 132.73 177.92 135.26 C 178.00 134.77 178.16 133.80 178.24 133.32 Z" />
</g>
<g id="#aca19cff">
<path fill="#aca19c" opacity="1.00" d=" M 234.66 169.30 C 233.80 155.52 232.90 140.15 235.14 127.18 C 235.13 127.67 235.10 128.66 235.09 129.15 C 235.08 129.66 235.05 130.67 235.04 131.18 C 235.01 132.86 234.96 136.21 234.94 137.88 C 234.76 148.35 235.50 158.85 234.66 169.30 Z" />
</g>
<g id="#2e2520ff">
<path fill="#2e2520" opacity="1.00" d=" M 235.04 131.18 C 240.12 130.09 245.14 128.65 250.00 126.78 L 250.00 150.09 C 247.76 147.14 244.14 149.09 241.28 147.79 C 239.07 143.60 242.42 133.88 234.94 137.88 C 234.96 136.21 235.01 132.86 235.04 131.18 Z" />
</g>
<g id="#aeaea1ff">
<path fill="#aeaea1" opacity="1.00" d=" M 194.22 128.12 C 196.24 129.84 194.33 134.50 195.04 137.15 C 191.51 134.60 193.83 131.44 194.22 128.12 Z" />
</g>
<g id="#81776bff">
<path fill="#81776b" opacity="1.00" d=" M 198.48 128.55 C 199.69 129.86 200.32 131.54 200.89 133.20 C 201.06 141.25 201.53 149.39 200.02 157.36 C 199.96 156.84 199.83 155.80 199.76 155.28 C 198.92 150.13 200.03 144.64 198.27 139.72 C 197.91 137.99 195.82 139.75 194.73 139.70 C 190.80 138.94 183.52 141.87 181.01 139.12 C 182.57 138.91 185.71 138.48 187.27 138.27 C 195.05 139.34 201.10 138.18 198.48 128.55 Z" />
</g>
<g id="#bbbcbeff">
<path fill="#bbbcbe" opacity="1.00" d=" M 38.98 136.03 C 42.57 138.55 40.92 131.75 41.87 129.79 C 42.05 138.60 41.95 147.42 42.26 156.23 C 41.96 156.32 41.36 156.50 41.07 156.59 C 35.69 152.70 40.65 142.27 38.98 136.03 Z" />
</g>
<g id="#848173ff">
<path fill="#848173" opacity="1.00" d=" M 96.08 130.14 C 102.00 128.03 100.90 134.05 96.10 130.78 L 96.08 130.14 Z" />
</g>
<g id="#604633ff">
<path fill="#604633" opacity="1.00" d=" M 175.05 131.85 C 175.97 133.01 176.93 134.14 177.92 135.26 C 177.94 136.78 177.96 138.31 177.94 139.84 C 176.95 140.23 175.97 140.62 174.99 141.03 C 174.98 137.97 175.01 134.90 175.05 131.85 Z" />
</g>
<g id="#2b2624ff">
<path fill="#2b2624" opacity="1.00" d=" M 218.92 134.96 C 224.13 133.11 225.77 135.79 224.32 141.76 C 224.20 144.50 224.08 147.24 223.97 150.00 C 221.26 148.58 218.69 149.28 216.81 151.61 C 216.90 148.83 216.56 146.06 216.33 143.30 C 217.58 141.84 216.44 140.14 214.80 139.75 C 215.15 138.60 215.51 137.45 215.90 136.32 C 216.90 135.87 217.91 135.42 218.92 134.96 Z" />
</g>
<g id="#2f2f2eff">
<path fill="#2f2f2e" opacity="1.00" d=" M 31.66 135.70 C 33.47 135.31 35.30 134.97 37.14 134.73 L 38.00 134.95 C 38.10 140.96 38.08 146.97 37.94 152.98 C 26.58 156.71 34.14 141.09 31.66 135.70 Z" />
</g>
<g id="#3c3c36ff">
<path fill="#3c3c36" opacity="1.00" d=" M 102.95 151.97 C 104.52 146.67 99.64 137.35 106.18 134.64 C 106.03 140.89 106.09 147.17 105.16 153.37 L 104.19 153.17 C 103.88 152.87 103.26 152.27 102.95 151.97 Z" />
</g>
<g id="#a19f8bff">
<path fill="#a19f8b" opacity="1.00" d=" M 95.99 135.98 C 107.46 132.29 99.20 147.12 102.95 151.97 C 103.26 152.27 103.88 152.87 104.19 153.17 C 101.50 152.71 98.79 152.20 96.12 151.74 C 95.89 146.48 95.84 141.23 95.99 135.98 Z" />
</g>
<g id="#251413ff">
<path fill="#251413" opacity="1.00" d=" M 234.94 137.88 C 242.42 133.88 239.07 143.60 241.28 147.79 C 244.14 149.09 247.76 147.14 250.00 150.09 L 250.00 179.12 C 245.31 178.89 240.61 178.77 236.00 177.85 C 235.83 177.35 235.48 176.34 235.31 175.83 C 235.15 174.20 234.82 170.93 234.66 169.30 C 235.50 158.85 234.76 148.35 234.94 137.88 Z" />
</g>
<g id="#a4a298ff">
<path fill="#a4a298" opacity="1.00" d=" M 180.06 152.91 C 181.15 147.04 175.51 133.41 187.27 138.27 C 185.71 138.48 182.57 138.91 181.01 139.12 C 183.52 141.87 190.80 138.94 194.73 139.70 C 194.86 144.14 194.93 148.60 195.00 153.05 C 190.02 152.96 185.03 153.06 180.06 152.91 Z" />
</g>
<g id="#524d45ff">
<path fill="#524d45" opacity="1.00" d=" M 194.73 139.70 C 195.82 139.75 197.91 137.99 198.27 139.72 C 196.58 143.47 201.01 152.03 195.87 153.40 L 195.00 153.05 C 194.93 148.60 194.86 144.14 194.73 139.70 Z" />
</g>
<g id="#9d694aff">
<path fill="#9d694a" opacity="1.00" d=" M 174.99 141.03 C 175.97 140.62 176.95 140.23 177.94 139.84 C 178.73 147.68 173.82 161.61 187.23 157.23 C 184.49 158.97 175.42 155.14 177.05 160.84 C 185.04 162.00 197.27 159.38 199.54 167.56 C 197.03 171.21 195.65 167.23 192.83 167.45 C 187.81 171.26 180.98 171.31 175.01 170.05 C 174.95 160.37 174.98 150.70 174.99 141.03 Z" />
</g>
<g id="#a7a299ff">
<path fill="#a7a299" opacity="1.00" d=" M 198.27 139.72 C 200.03 144.64 198.92 150.13 199.76 155.28 C 198.47 154.64 197.17 154.01 195.87 153.40 C 201.01 152.03 196.58 143.47 198.27 139.72 Z" />
</g>
<g id="#b1a19dff">
<path fill="#b1a19d" opacity="1.00" d=" M 214.80 139.75 C 216.44 140.14 217.58 141.84 216.33 143.30 C 214.67 142.86 213.57 141.25 214.80 139.75 Z" />
</g>
<g id="#544e4aff">
<path fill="#544e4a" opacity="1.00" d=" M 224.32 141.76 C 225.36 150.55 225.03 159.41 224.73 168.24 C 223.96 162.18 223.96 156.08 223.97 150.00 C 224.08 147.24 224.20 144.50 224.32 141.76 Z" />
</g>
<g id="#ad836cff">
<path fill="#ad836c" opacity="1.00" d=" M 137.92 144.04 C 142.02 144.10 146.11 144.16 150.21 144.20 C 140.42 143.10 145.87 153.46 152.89 149.22 C 153.19 150.50 153.53 151.77 153.88 153.04 C 151.34 153.37 148.80 154.48 146.24 153.69 C 144.16 155.23 139.51 163.40 139.99 157.21 C 142.03 153.07 139.87 152.51 136.08 153.52 C 134.65 150.46 138.46 146.56 142.24 148.87 C 144.05 144.48 143.60 144.37 137.92 144.04 Z" />
</g>
<g id="#68412eff">
<path fill="#68412e" opacity="1.00" d=" M 169.22 144.81 L 170.02 145.10 C 169.98 154.17 170.30 163.25 169.65 172.30 C 167.88 171.20 166.49 169.65 165.04 168.17 C 163.23 169.84 161.06 171.59 159.31 168.80 C 160.84 171.99 157.76 170.43 155.88 170.07 C 159.45 173.28 151.73 176.77 155.78 180.80 C 151.37 184.07 163.47 187.67 155.83 187.26 C 158.34 188.17 162.77 189.29 161.90 192.81 C 158.61 194.31 154.78 192.50 151.59 194.66 C 154.08 195.26 165.45 194.06 157.83 196.97 C 156.18 196.94 152.88 196.88 151.24 196.85 C 146.69 196.18 141.96 196.57 137.56 195.09 C 139.96 194.13 151.90 196.98 145.58 192.45 C 150.75 188.74 138.00 186.83 144.66 185.41 C 139.99 178.03 150.87 180.20 147.82 174.38 C 147.93 170.13 141.20 172.65 142.39 168.76 C 142.68 164.99 141.49 156.58 146.55 162.59 C 149.96 158.81 152.95 155.77 158.00 157.11 C 157.03 165.83 166.96 159.22 166.72 153.76 C 171.00 162.04 168.37 148.13 169.22 144.81 Z" />
</g>
<g id="#211210ff">
<path fill="#211210" opacity="1.00" d=" M 216.81 151.61 C 218.69 149.28 221.26 148.58 223.97 150.00 C 223.96 156.08 223.96 162.18 224.73 168.24 C 224.85 169.95 225.10 173.38 225.22 175.09 C 224.93 175.31 224.35 175.75 224.06 175.97 C 222.78 176.05 221.49 176.14 220.21 176.23 C 218.81 175.81 217.43 175.35 216.03 174.92 C 215.59 167.39 212.76 158.12 216.81 151.61 Z" />
</g>
<g id="#905b42ff">
<path fill="#905b42" opacity="1.00" d=" M 146.24 153.69 C 148.80 154.48 151.34 153.37 153.88 153.04 C 154.82 154.79 156.59 155.79 158.00 157.11 C 152.95 155.77 149.96 158.81 146.55 162.59 C 141.49 156.58 142.68 164.99 142.39 168.76 C 141.20 172.65 147.93 170.13 147.82 174.38 C 150.87 180.20 139.99 178.03 144.66 185.41 C 138.00 186.83 150.75 188.74 145.58 192.45 C 151.90 196.98 139.96 194.13 137.56 195.09 C 147.60 195.27 141.58 193.89 141.28 189.25 C 137.06 190.04 135.73 186.11 133.81 183.54 C 128.58 185.21 127.80 177.06 127.11 173.35 C 132.98 173.28 124.45 167.44 125.97 164.03 C 125.95 162.68 125.95 161.32 125.97 159.97 C 130.61 157.89 134.92 156.66 139.99 157.21 C 139.51 163.40 144.16 155.23 146.24 153.69 Z" />
</g>
<g id="#bbaea3ff">
<path fill="#bbaea3" opacity="1.00" d=" M 31.17 153.95 C 38.16 154.97 27.79 158.15 24.73 159.22 C 24.80 157.72 24.27 154.69 26.65 155.37 C 28.46 155.59 31.54 157.08 31.17 153.95 Z" />
</g>
<g id="#484546ff">
<path fill="#484546" opacity="1.00" d=" M 107.38 158.14 C 110.65 158.25 108.81 153.70 113.03 153.93 C 113.75 158.24 112.43 160.87 107.00 159.00 L 107.38 158.14 Z" />
</g>
<g id="#d7bfadff">
<path fill="#d7bfad" opacity="1.00" d=" M 105.37 154.80 C 106.05 155.91 106.73 157.01 107.38 158.14 L 107.00 159.00 L 106.05 159.03 C 100.81 159.03 95.57 158.88 90.34 159.11 C 76.48 158.76 62.61 159.34 48.76 158.79 C 65.50 156.71 82.45 159.28 99.19 157.24 C 101.96 156.59 107.36 159.78 105.37 154.80 Z" />
</g>
<g id="#484c5cff">
<path fill="#484c5c" opacity="1.00" d=" M 0.00 158.93 C 4.07 159.28 8.68 158.16 12.21 160.69 C 8.93 161.23 5.57 161.46 2.34 162.33 C -1.38 163.69 4.23 169.58 0.00 170.55 L 0.00 158.93 Z" />
</g>
<g id="#463026ff">
<path fill="#463026" opacity="1.00" d=" M 24.75 159.97 C 29.09 159.50 33.40 158.81 37.77 158.78 C 39.62 169.50 36.99 181.00 38.03 191.96 C 38.75 198.09 30.19 192.61 26.65 194.56 C 19.98 196.83 27.48 186.37 23.36 184.46 C 22.98 177.22 23.99 169.98 23.47 162.75 C 23.50 161.59 22.99 159.91 24.75 159.97 Z" />
</g>
<g id="#9c684aff">
<path fill="#9c684a" opacity="1.00" d=" M 37.77 158.78 C 41.43 159.08 45.10 158.95 48.76 158.79 C 62.61 159.34 76.48 158.76 90.34 159.11 C 88.74 162.48 79.11 161.20 89.80 162.01 C 88.59 164.43 86.71 168.07 86.83 162.91 C 84.54 166.58 81.23 168.61 77.00 168.09 C 78.64 166.46 82.51 167.10 81.03 162.95 C 79.22 165.35 70.29 168.49 74.96 163.99 C 69.47 160.34 56.91 167.35 56.12 162.23 C 52.84 165.38 46.51 161.88 43.79 164.98 C 48.43 165.17 53.10 164.65 57.73 165.13 C 60.71 168.28 50.85 164.10 50.88 167.03 C 52.94 165.26 61.97 170.32 60.53 164.86 C 73.61 161.73 57.35 168.28 63.39 167.51 C 71.77 165.52 68.81 168.05 64.65 168.64 C 68.63 163.66 75.75 176.62 73.31 168.84 C 81.58 167.49 78.83 170.13 74.60 170.77 C 77.19 170.83 82.37 170.95 84.96 171.01 C 90.53 171.88 70.86 171.98 78.97 173.48 C 78.04 177.78 78.61 181.16 83.20 180.05 C 80.08 180.14 77.63 171.97 81.70 174.42 C 85.20 177.55 93.11 167.95 89.90 177.86 C 89.92 184.83 78.19 177.05 78.72 183.81 C 80.95 182.38 87.16 179.83 85.36 184.20 C 89.87 179.22 88.08 185.73 88.62 189.16 C 86.44 189.07 87.26 186.36 86.66 184.92 C 83.96 185.12 80.20 191.34 79.54 186.51 C 78.41 184.30 79.91 190.65 78.24 189.50 C 74.86 187.64 71.30 190.05 67.93 190.94 L 67.91 190.03 C 68.31 188.44 68.73 186.86 69.10 185.27 C 70.99 184.82 72.88 184.36 74.81 184.05 C 78.95 187.48 75.14 178.83 76.35 177.92 C 79.04 166.99 73.41 178.15 70.10 174.93 C 67.72 175.82 70.39 169.48 67.80 171.78 C 66.19 173.87 59.64 172.89 62.14 176.14 C 61.78 179.78 56.17 180.96 58.64 185.17 C 58.17 190.54 65.27 186.54 66.30 189.89 C 65.68 192.71 67.22 198.12 60.98 195.02 C 53.73 196.82 68.54 193.93 66.88 197.74 C 63.84 198.26 60.82 198.89 57.85 199.71 L 57.10 199.73 C 56.65 194.35 50.77 196.65 47.03 195.99 C 44.05 194.80 40.10 194.79 38.03 191.96 C 36.99 181.00 39.62 169.50 37.77 158.78 Z" />
</g>
<g id="#b47856ff">
<path fill="#b47856" opacity="1.00" d=" M 90.34 159.11 C 95.57 158.88 100.81 159.03 106.05 159.03 C 106.17 162.34 106.55 165.81 104.69 168.71 C 107.34 170.65 103.53 169.81 102.06 170.07 C 101.37 172.28 108.07 169.87 104.91 171.99 C 101.12 173.83 98.41 183.08 105.91 180.35 C 111.06 187.94 98.38 183.77 99.52 185.45 C 104.50 186.60 99.34 191.97 98.83 195.01 C 89.40 198.62 79.72 193.30 69.89 194.75 C 67.15 195.81 68.18 192.53 67.93 190.94 C 71.30 190.05 74.86 187.64 78.24 189.50 C 79.91 190.65 78.41 184.30 79.54 186.51 C 80.20 191.34 83.96 185.12 86.66 184.92 C 87.26 186.36 86.44 189.07 88.62 189.16 C 88.08 185.73 89.87 179.22 85.36 184.20 C 87.16 179.83 80.95 182.38 78.72 183.81 C 78.19 177.05 89.92 184.83 89.90 177.86 C 93.11 167.95 85.20 177.55 81.70 174.42 C 77.63 171.97 80.08 180.14 83.20 180.05 C 78.61 181.16 78.04 177.78 78.97 173.48 C 70.86 171.98 90.53 171.88 84.96 171.01 C 82.37 170.95 77.19 170.83 74.60 170.77 C 78.83 170.13 81.58 167.49 73.31 168.84 C 75.75 176.62 68.63 163.66 64.65 168.64 C 68.81 168.05 71.77 165.52 63.39 167.51 C 57.35 168.28 73.61 161.73 60.53 164.86 C 61.97 170.32 52.94 165.26 50.88 167.03 C 50.85 164.10 60.71 168.28 57.73 165.13 C 53.10 164.65 48.43 165.17 43.79 164.98 C 46.51 161.88 52.84 165.38 56.12 162.23 C 56.91 167.35 69.47 160.34 74.96 163.99 C 70.29 168.49 79.22 165.35 81.03 162.95 C 82.51 167.10 78.64 166.46 77.00 168.09 C 81.23 168.61 84.54 166.58 86.83 162.91 C 86.71 168.07 88.59 164.43 89.80 162.01 C 79.11 161.20 88.74 162.48 90.34 159.11 Z" />
</g>
<g id="#955f40ff">
<path fill="#955f40" opacity="1.00" d=" M 106.05 159.03 L 107.00 159.00 C 106.99 167.60 106.90 176.21 107.27 184.82 C 107.73 189.39 102.07 191.49 102.57 196.01 C 101.30 195.78 100.06 195.39 98.83 195.01 C 99.34 191.97 104.50 186.60 99.52 185.45 C 98.38 183.77 111.06 187.94 105.91 180.35 C 98.41 183.08 101.12 173.83 104.91 171.99 C 108.07 169.87 101.37 172.28 102.06 170.07 C 103.53 169.81 107.34 170.65 104.69 168.71 C 106.55 165.81 106.17 162.34 106.05 159.03 Z" />
</g>
<g id="#bdb8b5ff">
<path fill="#bdb8b5" opacity="1.00" d=" M 119.32 158.71 C 121.01 165.39 119.58 172.38 119.66 179.17 C 118.02 172.49 119.39 165.49 119.32 158.71 Z" />
</g>
<g id="#b1947cff">
<path fill="#b1947c" opacity="1.00" d=" M 125.97 164.03 C 124.45 167.44 132.98 173.28 127.11 173.35 C 127.80 177.06 128.58 185.21 133.81 183.54 C 135.73 186.11 137.06 190.04 141.28 189.25 C 141.58 193.89 147.60 195.27 137.56 195.09 C 132.17 195.03 126.72 194.72 121.46 196.17 C 120.83 196.11 119.57 196.00 118.94 195.94 C 120.35 195.17 120.95 193.88 120.75 192.30 C 120.90 190.96 121.07 189.63 121.28 188.31 C 122.25 184.70 128.49 180.18 120.99 180.95 L 120.85 180.00 C 130.32 182.44 124.51 169.25 125.97 164.03 Z" />
</g>
<g id="#8c5e47ff">
<path fill="#8c5e47" opacity="1.00" d=" M 159.31 168.80 C 161.06 171.59 163.23 169.84 165.04 168.17 C 166.49 169.65 167.88 171.20 169.65 172.30 C 169.14 174.87 169.09 177.50 171.13 179.46 C 170.48 181.77 166.33 180.08 166.98 183.08 C 172.11 184.52 172.47 176.93 174.70 182.61 C 181.51 183.35 188.37 182.80 195.21 183.04 C 194.01 184.53 190.76 183.37 191.02 186.00 C 190.99 190.26 184.75 186.05 182.72 187.09 C 182.40 190.30 177.97 189.59 175.69 190.71 C 171.18 191.81 177.96 188.01 174.34 187.69 C 171.42 186.62 160.82 187.91 168.41 189.81 C 166.83 191.46 165.20 193.07 163.78 194.86 C 162.29 196.66 160.09 197.22 157.83 196.97 C 165.45 194.06 154.08 195.26 151.59 194.66 C 154.78 192.50 158.61 194.31 161.90 192.81 C 162.77 189.29 158.34 188.17 155.83 187.26 C 163.47 187.67 151.37 184.07 155.78 180.80 C 151.73 176.77 159.45 173.28 155.88 170.07 C 157.76 170.43 160.84 171.99 159.31 168.80 Z" />
</g>
<g id="#9f8e81ff">
<path fill="#9f8e81" opacity="1.00" d=" M 67.80 171.78 C 70.39 169.48 67.72 175.82 70.10 174.93 C 73.41 178.15 79.04 166.99 76.35 177.92 C 75.14 178.83 78.95 187.48 74.81 184.05 C 75.49 181.05 74.39 178.27 72.43 176.02 C 72.37 178.98 69.62 179.69 67.25 180.31 C 67.38 179.13 67.54 177.95 67.65 176.78 C 67.83 175.11 67.81 173.44 67.80 171.78 Z" />
</g>
<g id="#714b36ff">
<path fill="#714b36" opacity="1.00" d=" M 62.14 176.14 C 59.64 172.89 66.19 173.87 67.80 171.78 C 67.81 173.44 67.83 175.11 67.65 176.78 C 65.63 177.50 63.80 178.03 62.14 176.14 Z" />
</g>
<g id="#957657ff">
<path fill="#957657" opacity="1.00" d=" M 175.03 172.99 C 179.52 174.21 184.18 174.53 188.77 175.22 C 195.51 176.71 202.44 176.58 209.24 177.59 C 206.32 177.41 205.61 178.27 207.81 180.25 C 205.33 179.31 202.92 177.93 200.18 178.02 C 191.77 177.80 183.39 176.61 174.96 177.15 C 174.98 175.76 175.01 174.37 175.03 172.99 Z" />
</g>
<g id="#baa28bff">
<path fill="#baa28b" opacity="1.00" d=" M 188.77 175.22 C 197.85 175.03 206.94 174.93 216.03 174.92 C 217.43 175.35 218.81 175.81 220.21 176.23 C 218.34 176.85 216.47 177.50 214.63 178.20 C 212.83 178.01 211.03 177.82 209.24 177.59 C 202.44 176.58 195.51 176.71 188.77 175.22 Z" />
</g>
<g id="#6e5139ff">
<path fill="#6e5139" opacity="1.00" d=" M 225.22 175.09 C 225.68 175.06 226.60 174.99 227.05 174.96 L 227.15 175.93 C 227.36 179.03 223.74 179.43 222.78 182.01 C 228.00 183.70 231.53 179.27 236.23 178.57 C 236.77 180.09 237.25 181.64 237.78 183.17 C 237.94 186.19 237.61 189.41 239.11 192.15 C 235.28 192.43 227.59 188.02 227.60 193.83 C 227.31 196.60 225.28 193.74 226.04 192.15 C 227.85 189.59 233.16 185.39 227.20 184.19 C 224.99 189.02 220.20 186.20 215.73 188.76 C 208.34 192.01 208.95 186.01 213.12 183.97 C 210.29 183.97 204.63 183.97 201.80 183.96 C 202.39 181.39 211.36 183.70 207.81 180.25 C 205.61 178.27 206.32 177.41 209.24 177.59 C 211.03 177.82 212.83 178.01 214.63 178.20 C 216.51 181.03 225.51 179.63 224.06 175.97 C 224.35 175.75 224.93 175.31 225.22 175.09 Z" />
</g>
<g id="#382720ff">
<path fill="#382720" opacity="1.00" d=" M 62.14 176.14 C 63.80 178.03 65.63 177.50 67.65 176.78 C 67.54 177.95 67.38 179.13 67.25 180.31 C 67.14 182.20 66.10 185.47 69.10 185.27 C 68.73 186.86 68.31 188.44 67.91 190.03 C 67.51 190.00 66.71 189.93 66.30 189.89 C 65.27 186.54 58.17 190.54 58.64 185.17 C 56.17 180.96 61.78 179.78 62.14 176.14 Z" />
</g>
<g id="#b4b8b6ff">
<path fill="#b4b8b6" opacity="1.00" d=" M 72.43 176.02 C 74.39 178.27 75.49 181.05 74.81 184.05 C 72.88 184.36 70.99 184.82 69.10 185.27 C 66.10 185.47 67.14 182.20 67.25 180.31 C 69.62 179.69 72.37 178.98 72.43 176.02 Z" />
</g>
<g id="#8a7d73ff">
<path fill="#8a7d73" opacity="1.00" d=" M 220.21 176.23 C 221.49 176.14 222.78 176.05 224.06 175.97 C 225.51 179.63 216.51 181.03 214.63 178.20 C 216.47 177.50 218.34 176.85 220.21 176.23 Z" />
</g>
<g id="#a38d70ff">
<path fill="#a38d70" opacity="1.00" d=" M 227.15 175.93 C 228.32 178.61 235.59 177.60 235.31 175.83 C 235.48 176.34 235.83 177.35 236.00 177.85 L 236.23 178.57 C 231.53 179.27 228.00 183.70 222.78 182.01 C 223.74 179.43 227.36 179.03 227.15 175.93 Z" />
</g>
<g id="#ac9170ff">
<path fill="#ac9170" opacity="1.00" d=" M 174.96 177.15 C 183.39 176.61 191.77 177.80 200.18 178.02 C 201.95 183.13 187.57 179.79 193.99 182.02 C 198.91 182.67 193.76 186.18 191.02 186.00 C 190.76 183.37 194.01 184.53 195.21 183.04 C 188.37 182.80 181.51 183.35 174.70 182.61 C 172.47 176.93 172.11 184.52 166.98 183.08 C 166.33 180.08 170.48 181.77 171.13 179.46 C 172.18 178.90 174.31 179.53 174.63 178.13 L 174.96 177.15 Z" />
</g>
<g id="#b8a180ff">
<path fill="#b8a180" opacity="1.00" d=" M 200.18 178.02 C 202.92 177.93 205.33 179.31 207.81 180.25 C 211.36 183.70 202.39 181.39 201.80 183.96 C 204.63 183.97 210.29 183.97 213.12 183.97 C 208.95 186.01 208.34 192.01 215.73 188.76 C 218.53 190.22 227.25 186.29 226.04 192.15 C 225.28 193.74 227.31 196.60 227.60 193.83 C 227.59 188.02 235.28 192.43 239.11 192.15 C 235.09 194.84 230.26 194.36 225.92 196.16 C 224.24 195.48 222.44 195.86 220.70 196.06 C 210.79 198.25 200.89 198.67 190.77 198.21 C 191.73 193.76 186.68 185.94 184.47 192.73 C 181.11 194.45 185.22 198.65 188.16 196.48 C 192.21 200.27 181.75 195.25 181.95 198.71 C 181.63 198.37 180.99 197.67 180.67 197.33 C 183.70 193.35 178.26 192.43 175.69 190.71 C 177.97 189.59 182.40 190.30 182.72 187.09 C 184.75 186.05 190.99 190.26 191.02 186.00 C 193.76 186.18 198.91 182.67 193.99 182.02 C 187.57 179.79 201.95 183.13 200.18 178.02 Z" />
</g>
<g id="#4f505dff">
<path fill="#4f505d" opacity="1.00" d=" M 236.00 177.85 C 240.61 178.77 245.31 178.89 250.00 179.12 L 250.00 184.10 C 245.89 184.10 241.83 183.77 237.78 183.17 C 237.25 181.64 236.77 180.09 236.23 178.57 L 236.00 177.85 Z" />
</g>
<g id="#514339ff">
<path fill="#514339" opacity="1.00" d=" M 119.80 179.94 L 120.85 180.00 L 120.99 180.95 C 121.06 182.79 121.20 186.47 121.28 188.31 C 121.07 189.63 120.90 190.96 120.75 192.30 C 120.17 188.20 119.86 184.07 119.80 179.94 Z" />
</g>
<g id="#d3c5b4ff">
<path fill="#d3c5b4" opacity="1.00" d=" M 120.99 180.95 C 128.49 180.18 122.25 184.70 121.28 188.31 C 121.20 186.47 121.06 182.79 120.99 180.95 Z" />
</g>
<g id="#b6afa5ff">
<path fill="#b6afa5" opacity="1.00" d=" M 237.78 183.17 C 241.83 183.77 245.89 184.10 250.00 184.10 L 250.00 188.89 C 246.53 188.50 243.57 189.05 245.88 192.88 C 243.62 192.64 241.37 192.32 239.11 192.15 C 237.61 189.41 237.94 186.19 237.78 183.17 Z" />
</g>
<g id="#926c4eff">
<path fill="#926c4e" opacity="1.00" d=" M 227.20 184.19 C 233.16 185.39 227.85 189.59 226.04 192.15 C 227.25 186.29 218.53 190.22 215.73 188.76 C 220.20 186.20 224.99 189.02 227.20 184.19 Z" />
</g>
<g id="#5a5e76ff">
<path fill="#5a5e76" opacity="1.00" d=" M 0.00 189.07 C 5.29 187.52 10.78 186.78 16.02 185.07 C 16.03 185.81 16.05 187.31 16.06 188.05 C 16.18 191.02 17.13 194.99 13.24 193.79 C 12.96 193.67 12.41 193.41 12.13 193.29 C 8.37 191.48 4.05 191.36 0.00 190.85 L 0.00 189.07 Z" />
</g>
<g id="#866a50ff">
<path fill="#866a50" opacity="1.00" d=" M 23.36 184.46 C 27.48 186.37 19.98 196.83 26.65 194.56 C 30.19 192.61 38.75 198.09 38.03 191.96 C 40.10 194.79 44.05 194.80 47.03 195.99 C 45.03 199.01 38.72 196.09 36.72 199.88 C 29.02 199.28 21.24 202.22 13.73 199.42 C 12.05 197.79 11.66 195.66 13.24 193.79 C 17.13 194.99 16.18 191.02 16.06 188.05 C 16.50 187.99 17.38 187.85 17.82 187.78 C 16.29 192.08 21.67 197.21 21.28 190.29 C 22.34 188.84 23.81 187.31 23.38 185.35 L 23.36 184.46 Z" />
</g>
<g id="#63503aff">
<path fill="#63503a" opacity="1.00" d=" M 107.27 184.82 C 109.15 188.76 109.03 195.16 114.98 195.01 C 101.58 198.02 87.78 198.86 74.08 199.11 C 72.54 199.28 69.44 199.62 67.90 199.80 C 66.69 199.98 65.49 200.17 64.29 200.37 C 62.14 200.15 60.00 199.90 57.85 199.71 C 60.82 198.89 63.84 198.26 66.88 197.74 C 68.54 193.93 53.73 196.82 60.98 195.02 C 67.22 198.12 65.68 192.71 66.30 189.89 C 66.71 189.93 67.51 190.00 67.91 190.03 L 67.93 190.94 C 68.18 192.53 67.15 195.81 69.89 194.75 C 79.72 193.30 89.40 198.62 98.83 195.01 C 100.06 195.39 101.30 195.78 102.57 196.01 C 102.07 191.49 107.73 189.39 107.27 184.82 Z" />
</g>
<g id="#e0cbb4ff">
<path fill="#e0cbb4" opacity="1.00" d=" M 20.97 189.27 C 20.94 187.44 21.22 185.63 23.38 185.35 C 23.81 187.31 22.34 188.84 21.28 190.29 L 20.97 189.27 Z" />
</g>
<g id="#462f1aff">
<path fill="#462f1a" opacity="1.00" d=" M 17.82 187.78 C 19.37 187.04 20.38 187.78 20.97 189.27 L 21.28 190.29 C 21.67 197.21 16.29 192.08 17.82 187.78 Z" />
</g>
<g id="#a59183ff">
<path fill="#a59183" opacity="1.00" d=" M 168.41 189.81 C 160.82 187.91 171.42 186.62 174.34 187.69 C 177.96 188.01 171.18 191.81 175.69 190.71 L 175.72 191.67 C 172.96 192.00 171.70 195.43 168.80 194.95 C 169.05 192.91 172.46 189.21 168.41 189.81 Z" />
</g>
<g id="#72695eff">
<path fill="#72695e" opacity="1.00" d=" M 245.88 192.88 C 243.57 189.05 246.53 188.50 250.00 188.89 L 250.00 193.15 C 248.62 193.08 247.25 192.99 245.88 192.88 Z" />
</g>
<g id="#3a2e24ff">
<path fill="#3a2e24" opacity="1.00" d=" M 168.41 189.81 C 172.46 189.21 169.05 192.91 168.80 194.95 C 167.12 194.99 165.45 194.90 163.78 194.86 C 165.20 193.07 166.83 191.46 168.41 189.81 Z" />
</g>
<g id="#65523aff">
<path fill="#65523a" opacity="1.00" d=" M 184.47 192.73 C 186.68 185.94 191.73 193.76 190.77 198.21 C 195.70 208.20 211.70 203.01 220.68 201.62 C 225.80 198.64 230.67 201.76 235.75 200.89 C 238.90 200.57 245.16 201.97 239.09 203.61 C 232.95 202.79 226.74 202.95 220.70 204.31 C 215.34 204.64 210.10 205.97 204.74 206.27 C 198.25 203.87 196.06 210.29 199.92 213.96 C 194.55 218.22 191.67 225.84 184.82 227.99 C 172.91 234.45 160.55 240.84 150.53 250.00 L 125.36 250.00 C 136.38 244.16 145.41 232.88 158.94 232.16 C 160.18 233.83 163.01 233.65 163.21 231.29 C 166.01 221.73 178.35 223.11 182.92 214.98 C 186.03 212.61 184.90 215.80 186.90 217.22 C 190.24 215.05 193.18 208.74 186.98 212.20 C 187.74 210.49 190.18 209.08 188.84 207.05 C 188.54 203.33 192.31 206.78 194.13 207.05 C 193.78 204.14 190.30 203.33 187.88 202.89 C 186.35 201.78 184.80 200.68 183.13 199.79 C 182.84 199.52 182.25 198.98 181.95 198.71 C 181.75 195.25 192.21 200.27 188.16 196.48 C 186.58 195.62 185.51 194.15 184.47 192.73 M 144.41 242.41 C 141.91 244.24 138.87 244.93 135.85 245.28 C 138.23 249.99 150.69 242.94 144.41 242.41 Z" />
</g>
<g id="#d3d3d8ff">
<path fill="#d3d3d8" opacity="1.00" d=" M 0.00 190.85 C 4.05 191.36 8.37 191.48 12.13 193.29 C 5.63 192.63 8.52 200.81 13.73 199.42 C 21.24 202.22 29.02 199.28 36.72 199.88 C 37.48 199.97 39.01 200.15 39.77 200.24 C 47.87 200.97 56.23 201.97 64.29 200.37 C 65.49 200.17 66.69 199.98 67.90 199.80 C 69.44 199.62 72.54 199.28 74.08 199.11 C 87.78 198.86 101.58 198.02 114.98 195.01 C 116.28 195.40 117.58 195.82 118.94 195.94 C 119.57 196.00 120.83 196.11 121.46 196.17 C 131.26 196.65 141.33 196.43 151.24 196.85 C 152.88 196.88 156.18 196.94 157.83 196.97 C 160.09 197.22 162.29 196.66 163.78 194.86 C 165.45 194.90 167.12 194.99 168.80 194.95 C 171.70 195.43 172.96 192.00 175.72 191.67 C 177.23 193.67 178.94 195.51 180.67 197.33 C 180.99 197.67 181.63 198.37 181.95 198.71 C 182.25 198.98 182.84 199.52 183.13 199.79 C 173.93 202.13 164.58 196.93 155.39 200.29 C 155.13 209.23 149.38 196.16 144.93 200.88 C 140.81 205.59 151.70 199.51 149.89 203.82 C 145.63 205.10 143.23 207.97 139.52 210.04 C 143.57 213.81 134.66 213.46 132.14 216.18 C 130.77 217.49 129.11 217.87 127.32 217.23 C 126.97 215.41 124.26 210.58 123.96 214.93 C 123.87 220.58 116.22 214.91 115.39 219.50 C 114.95 220.37 114.29 221.01 113.41 221.44 C 107.16 215.23 97.90 221.64 90.30 221.21 C 89.24 224.89 85.65 225.93 82.17 225.99 C 81.03 223.79 82.05 221.11 80.85 218.86 C 78.20 219.96 80.74 223.95 77.39 224.34 C 72.90 223.74 68.41 227.53 65.00 223.06 C 60.24 228.68 54.69 222.06 49.01 222.41 C 43.58 224.58 37.82 222.82 32.22 223.86 C 29.64 215.55 17.57 222.92 12.26 217.82 C 3.40 220.21 8.03 211.37 0.00 213.90 L 0.00 190.85 Z" />
</g>
<g id="#655a4aff">
<path fill="#655a4a" opacity="1.00" d=" M 175.69 190.71 C 178.26 192.43 183.70 193.35 180.67 197.33 C 178.94 195.51 177.23 193.67 175.72 191.67 L 175.69 190.71 Z" />
</g>
<g id="#d7d7d9ff">
<path fill="#d7d7d9" opacity="1.00" d=" M 239.11 192.15 C 241.37 192.32 243.62 192.64 245.88 192.88 C 247.25 192.99 248.62 193.08 250.00 193.15 L 250.00 204.08 C 245.63 201.96 241.97 205.28 238.20 207.01 C 237.80 206.64 237.00 205.92 236.59 205.55 C 237.40 204.87 238.23 204.23 239.09 203.61 C 245.16 201.97 238.90 200.57 235.75 200.89 C 244.95 199.21 233.49 197.37 229.19 197.28 C 228.09 196.93 227.00 196.56 225.92 196.16 C 230.26 194.36 235.09 194.84 239.11 192.15 Z" />
</g>
<g id="#ab9f8eff">
<path fill="#ab9f8e" opacity="1.00" d=" M 12.13 193.29 C 12.41 193.41 12.96 193.67 13.24 193.79 C 11.66 195.66 12.05 197.79 13.73 199.42 C 8.52 200.81 5.63 192.63 12.13 193.29 Z" />
</g>
<g id="#e2dfd4ff">
<path fill="#e2dfd4" opacity="1.00" d=" M 188.16 196.48 C 185.22 198.65 181.11 194.45 184.47 192.73 C 185.51 194.15 186.58 195.62 188.16 196.48 Z" />
</g>
<g id="#716c5bff">
<path fill="#716c5b" opacity="1.00" d=" M 121.46 196.17 C 126.72 194.72 132.17 195.03 137.56 195.09 C 141.96 196.57 146.69 196.18 151.24 196.85 C 141.33 196.43 131.26 196.65 121.46 196.17 Z" />
</g>
<g id="#65553eff">
<path fill="#65553e" opacity="1.00" d=" M 220.70 196.06 C 222.44 195.86 224.24 195.48 225.92 196.16 C 227.00 196.56 228.09 196.93 229.19 197.28 C 226.14 197.94 222.73 198.95 220.70 196.06 Z" />
</g>
<g id="#605237ff">
<path fill="#605237" opacity="1.00" d=" M 36.72 199.88 C 38.72 196.09 45.03 199.01 47.03 195.99 C 50.77 196.65 56.65 194.35 57.10 199.73 C 51.33 199.98 45.55 200.14 39.77 200.24 C 39.01 200.15 37.48 199.97 36.72 199.88 Z" />
</g>
<g id="#9f8e76ff">
<path fill="#9f8e76" opacity="1.00" d=" M 190.77 198.21 C 200.89 198.67 210.79 198.25 220.70 196.06 C 222.73 198.95 226.14 197.94 229.19 197.28 C 233.49 197.37 244.95 199.21 235.75 200.89 C 230.67 201.76 225.80 198.64 220.68 201.62 C 211.70 203.01 195.70 208.20 190.77 198.21 Z" />
</g>
<g id="#968f82ff">
<path fill="#968f82" opacity="1.00" d=" M 67.90 199.80 C 69.44 199.62 72.54 199.28 74.08 199.11 C 72.54 199.28 69.44 199.62 67.90 199.80 Z" />
</g>
<g id="#e8e8e9ff">
<path fill="#e8e8e9" opacity="1.00" d=" M 155.39 200.29 C 164.58 196.93 173.93 202.13 183.13 199.79 C 184.80 200.68 186.35 201.78 187.88 202.89 C 188.11 204.29 188.36 205.70 188.84 207.05 C 190.18 209.08 187.74 210.49 186.98 212.20 C 184.54 213.18 180.42 210.93 182.92 214.98 C 178.35 223.11 166.01 221.73 163.21 231.29 C 161.77 231.49 160.34 231.79 158.94 232.16 C 145.41 232.88 136.38 244.16 125.36 250.00 L 113.38 250.00 C 119.87 243.19 129.67 240.04 136.76 233.77 C 148.97 225.34 168.29 225.04 174.71 209.69 C 176.34 207.38 172.52 204.11 171.54 207.45 C 170.45 210.17 162.46 216.17 164.84 209.89 C 164.28 207.78 159.58 211.07 157.43 211.40 C 159.47 217.92 151.25 217.47 147.98 220.92 C 145.99 219.44 149.26 214.10 145.64 216.64 C 140.28 222.14 131.51 218.85 126.41 224.35 C 127.62 228.53 126.27 229.86 122.27 227.75 C 121.27 223.18 125.53 220.83 127.32 217.23 C 129.11 217.87 130.77 217.49 132.14 216.18 C 134.66 213.46 143.57 213.81 139.52 210.04 C 143.23 207.97 145.63 205.10 149.89 203.82 C 151.70 199.51 140.81 205.59 144.93 200.88 C 149.38 196.16 155.13 209.23 155.39 200.29 Z" />
</g>
<g id="#a29d92ff">
<path fill="#a29d92" opacity="1.00" d=" M 39.77 200.24 C 45.55 200.14 51.33 199.98 57.10 199.73 L 57.85 199.71 C 60.00 199.90 62.14 200.15 64.29 200.37 C 56.23 201.97 47.87 200.97 39.77 200.24 Z" />
</g>
<g id="#988b76ff">
<path fill="#988b76" opacity="1.00" d=" M 187.88 202.89 C 190.30 203.33 193.78 204.14 194.13 207.05 C 192.31 206.78 188.54 203.33 188.84 207.05 C 188.36 205.70 188.11 204.29 187.88 202.89 Z" />
</g>
<g id="#9e8f7bff">
<path fill="#9e8f7b" opacity="1.00" d=" M 220.70 204.31 C 226.74 202.95 232.95 202.79 239.09 203.61 C 238.23 204.23 237.40 204.87 236.59 205.55 C 234.09 205.57 233.88 207.16 234.66 209.17 C 229.96 208.26 225.14 207.92 220.59 206.34 C 223.39 205.00 227.66 207.23 230.33 205.26 C 227.08 205.09 223.86 205.06 220.70 204.31 Z" />
</g>
<g id="#95a1b9ff">
<path fill="#95a1b9" opacity="1.00" d=" M 238.20 207.01 C 241.97 205.28 245.63 201.96 250.00 204.08 L 250.00 211.01 C 244.63 212.13 240.57 211.65 238.20 207.01 Z" />
</g>
<g id="#7a6c5bff">
<path fill="#7a6c5b" opacity="1.00" d=" M 204.74 206.27 C 210.10 205.97 215.34 204.64 220.70 204.31 C 223.86 205.06 227.08 205.09 230.33 205.26 C 227.66 207.23 223.39 205.00 220.59 206.34 C 225.14 207.92 229.96 208.26 234.66 209.17 C 235.12 210.05 235.60 210.93 236.10 211.79 C 225.51 210.83 215.16 208.27 204.74 206.27 Z" />
</g>
<g id="#d9dce3ff">
<path fill="#d9dce3" opacity="1.00" d=" M 171.54 207.45 C 172.52 204.11 176.34 207.38 174.71 209.69 C 168.29 225.04 148.97 225.34 136.76 233.77 C 129.67 240.04 119.87 243.19 113.38 250.00 L 69.49 250.00 C 72.00 247.80 75.31 248.24 78.37 248.93 C 78.18 243.58 86.09 243.48 88.25 239.01 C 86.34 234.81 82.82 237.99 82.10 241.11 C 75.55 244.16 66.12 247.41 59.71 243.04 C 60.71 238.89 67.48 240.42 66.60 236.12 C 68.96 234.06 71.66 235.54 73.85 237.00 C 78.98 231.33 87.81 229.81 94.84 232.55 C 99.08 231.07 103.03 228.48 106.03 225.12 C 102.06 224.30 107.60 218.54 107.09 222.98 C 107.94 225.13 111.71 222.28 113.41 221.44 C 114.29 221.01 114.95 220.37 115.39 219.50 C 116.22 214.91 123.87 220.58 123.96 214.93 C 124.26 210.58 126.97 215.41 127.32 217.23 C 125.53 220.83 121.27 223.18 122.27 227.75 C 126.27 229.86 127.62 228.53 126.41 224.35 C 131.51 218.85 140.28 222.14 145.64 216.64 C 149.26 214.10 145.99 219.44 147.98 220.92 C 151.25 217.47 159.47 217.92 157.43 211.40 C 159.58 211.07 164.28 207.78 164.84 209.89 C 162.46 216.17 170.45 210.17 171.54 207.45 Z" />
</g>
<g id="#a4947cff">
<path fill="#a4947c" opacity="1.00" d=" M 199.92 213.96 C 196.06 210.29 198.25 203.87 204.74 206.27 C 215.16 208.27 225.51 210.83 236.10 211.79 C 238.99 210.81 244.43 215.53 239.98 216.95 C 234.18 217.87 238.08 221.41 238.07 224.90 C 236.27 227.73 233.52 229.71 230.84 231.62 C 228.26 232.36 223.06 233.60 225.83 237.17 C 227.97 239.71 223.13 239.52 221.70 240.72 C 217.33 244.32 211.72 246.35 207.33 250.00 L 150.53 250.00 C 160.55 240.84 172.91 234.45 184.82 227.99 C 191.67 225.84 194.55 218.22 199.92 213.96 Z" />
</g>
<g id="#4a4747ff">
<path fill="#4a4747" opacity="1.00" d=" M 234.66 209.17 C 233.88 207.16 234.09 205.57 236.59 205.55 C 237.00 205.92 237.80 206.64 238.20 207.01 C 240.57 211.65 244.63 212.13 250.00 211.01 L 250.00 212.73 C 248.99 216.46 244.37 216.17 242.76 219.58 C 239.83 219.21 239.26 222.97 238.07 224.90 C 238.08 221.41 234.18 217.87 239.98 216.95 C 244.43 215.53 238.99 210.81 236.10 211.79 C 235.60 210.93 235.12 210.05 234.66 209.17 Z" />
</g>
<g id="#887861ff">
<path fill="#887861" opacity="1.00" d=" M 186.98 212.20 C 193.18 208.74 190.24 215.05 186.90 217.22 C 184.90 215.80 186.03 212.61 182.92 214.98 C 180.42 210.93 184.54 213.18 186.98 212.20 Z" />
</g>
<g id="#7f859eff">
<path fill="#7f859e" opacity="1.00" d=" M 242.76 219.58 C 244.37 216.17 248.99 216.46 250.00 212.73 L 250.00 218.98 C 247.66 219.78 245.20 220.07 242.76 219.58 Z" />
</g>
<g id="#cdd0daff">
<path fill="#cdd0da" opacity="1.00" d=" M 0.00 213.90 C 8.03 211.37 3.40 220.21 12.26 217.82 C 17.57 222.92 29.64 215.55 32.22 223.86 C 37.82 222.82 43.58 224.58 49.01 222.41 C 54.69 222.06 60.24 228.68 65.00 223.06 C 68.41 227.53 72.90 223.74 77.39 224.34 C 80.74 223.95 78.20 219.96 80.85 218.86 C 82.05 221.11 81.03 223.79 82.17 225.99 C 85.65 225.93 89.24 224.89 90.30 221.21 C 97.90 221.64 107.16 215.23 113.41 221.44 C 111.71 222.28 107.94 225.13 107.09 222.98 C 107.60 218.54 102.06 224.30 106.03 225.12 C 103.03 228.48 99.08 231.07 94.84 232.55 C 87.81 229.81 78.98 231.33 73.85 237.00 C 71.66 235.54 68.96 234.06 66.60 236.12 C 67.48 240.42 60.71 238.89 59.71 243.04 C 66.12 247.41 75.55 244.16 82.10 241.11 C 82.82 237.99 86.34 234.81 88.25 239.01 C 86.09 243.48 78.18 243.58 78.37 248.93 C 75.31 248.24 72.00 247.80 69.49 250.00 L 0.00 250.00 L 0.00 213.90 Z" />
</g>
<g id="#303237ff">
<path fill="#303237" opacity="1.00" d=" M 238.07 224.90 C 239.26 222.97 239.83 219.21 242.76 219.58 C 245.20 220.07 247.66 219.78 250.00 218.98 L 250.00 227.43 C 248.06 228.54 246.39 230.04 245.06 231.83 C 240.96 231.86 236.83 231.95 232.89 233.20 C 235.78 237.65 241.58 233.49 245.06 231.83 C 250.06 232.76 242.97 236.91 241.99 238.91 L 241.19 239.12 C 236.99 239.47 234.45 243.10 231.89 246.01 C 231.42 246.27 230.48 246.79 230.00 247.05 C 228.65 247.30 227.41 248.54 228.04 250.00 L 207.33 250.00 C 211.72 246.35 217.33 244.32 221.70 240.72 C 226.20 241.18 234.22 236.63 230.84 231.62 C 233.52 229.71 236.27 227.73 238.07 224.90 Z" />
</g>
<g id="#9aa7bdff">
<path fill="#9aa7bd" opacity="1.00" d=" M 245.06 231.83 C 246.39 230.04 248.06 228.54 250.00 227.43 L 250.00 237.98 C 247.22 236.51 244.65 238.10 241.99 238.91 C 242.97 236.91 250.06 232.76 245.06 231.83 Z" />
</g>
<g id="#ad9c8fff">
<path fill="#ad9c8f" opacity="1.00" d=" M 158.94 232.16 C 160.34 231.79 161.77 231.49 163.21 231.29 C 163.01 233.65 160.18 233.83 158.94 232.16 Z" />
</g>
<g id="#635745ff">
<path fill="#635745" opacity="1.00" d=" M 225.83 237.17 C 223.06 233.60 228.26 232.36 230.84 231.62 C 234.22 236.63 226.20 241.18 221.70 240.72 C 223.13 239.52 227.97 239.71 225.83 237.17 Z" />
</g>
<g id="#7c869fff">
<path fill="#7c869f" opacity="1.00" d=" M 232.89 233.20 C 236.83 231.95 240.96 231.86 245.06 231.83 C 241.58 233.49 235.78 237.65 232.89 233.20 Z" />
</g>
<g id="#cfd6e2ff">
<path fill="#cfd6e2" opacity="1.00" d=" M 241.99 238.91 C 244.65 238.10 247.22 236.51 250.00 237.98 L 250.00 250.00 L 229.79 250.00 C 229.85 249.26 229.95 247.78 230.00 247.05 C 230.48 246.79 231.42 246.27 231.89 246.01 C 235.05 243.93 241.10 243.86 241.19 239.12 L 241.99 238.91 Z" />
</g>
<g id="#949eb4ff">
<path fill="#949eb4" opacity="1.00" d=" M 231.89 246.01 C 234.45 243.10 236.99 239.47 241.19 239.12 C 241.10 243.86 235.05 243.93 231.89 246.01 Z" />
</g>
<g id="#998b7aff">
<path fill="#998b7a" opacity="1.00" d=" M 144.41 242.41 C 150.69 242.94 138.23 249.99 135.85 245.28 C 138.87 244.93 141.91 244.24 144.41 242.41 Z" />
</g>
<g id="#7a8395ff">
<path fill="#7a8395" opacity="1.00" d=" M 228.04 250.00 C 227.41 248.54 228.65 247.30 230.00 247.05 C 229.95 247.78 229.85 249.26 229.79 250.00 L 228.04 250.00 Z" />
</g>
</svg>
