<?xml version="1.0" encoding="UTF-8" ?>
<!DOCTYPE svg PUBLIC "-//W3C//DTD SVG 1.1//EN" "http://www.w3.org/Graphics/SVG/1.1/DTD/svg11.dtd">
<svg width="250pt" height="250pt" viewBox="0 0 250 250" version="1.1" xmlns="http://www.w3.org/2000/svg">
<g id="#ffffffff">
<path fill="#ffffff" opacity="1.00" d=" M 0.00 0.00 L 250.00 0.00 L 250.00 250.00 L 0.00 250.00 L 0.00 0.00 M 165.61 18.80 C 161.42 19.41 157.35 21.03 153.06 20.80 C 135.15 20.08 117.21 20.47 99.35 21.74 C 96.27 21.87 93.17 22.28 90.10 21.87 C 87.62 21.61 84.90 20.59 82.80 22.50 C 77.46 22.39 71.92 21.90 66.77 23.63 C 62.34 24.45 56.52 24.57 54.03 29.03 C 50.35 35.26 47.84 42.13 45.72 49.03 C 45.07 52.36 44.04 56.87 47.82 58.70 C 50.63 57.18 53.44 55.62 56.02 53.71 C 57.42 53.93 58.83 54.15 60.23 54.39 C 60.59 55.01 61.31 56.26 61.67 56.89 C 60.55 60.30 59.12 63.61 58.21 67.10 C 55.14 76.76 55.49 87.00 54.85 97.00 C 54.73 105.01 54.68 113.02 55.30 121.01 C 55.42 128.93 57.67 136.70 60.96 143.85 C 62.90 148.04 66.94 150.49 70.93 152.40 C 70.10 153.43 69.23 154.43 68.37 155.43 C 69.35 161.98 70.59 168.49 71.76 175.01 C 76.09 177.51 81.21 178.18 85.62 180.54 C 84.08 182.93 82.58 185.35 81.28 187.87 C 95.79 202.64 109.18 218.48 123.99 232.94 C 138.54 218.26 152.23 202.73 166.51 187.77 C 165.16 185.18 163.64 182.69 162.23 180.14 C 166.89 178.61 171.54 177.05 176.11 175.28 C 176.87 168.74 178.42 162.30 179.67 155.84 C 178.77 154.69 177.87 153.54 177.02 152.37 C 179.99 150.70 183.40 149.34 185.32 146.34 C 189.48 140.35 190.85 132.97 192.33 125.97 C 192.85 112.31 192.60 98.62 192.43 84.96 C 191.78 75.19 189.59 65.50 185.44 56.60 C 187.22 54.84 190.30 54.04 191.42 51.88 C 196.01 44.46 199.70 36.53 202.51 28.27 C 203.94 25.28 203.73 21.94 203.73 18.72 C 201.87 17.96 200.00 17.21 198.06 16.71 C 187.19 15.67 176.35 17.28 165.61 18.80 M 193.47 92.88 C 192.72 101.61 192.55 110.42 193.47 119.13 C 194.62 110.44 194.44 101.58 193.47 92.88 Z" />
<path fill="#ffffff" opacity="1.00" d=" M 89.57 85.25 C 90.90 85.32 92.23 85.42 93.57 85.53 C 93.48 86.50 93.36 87.46 93.21 88.41 C 92.00 88.67 90.77 88.76 89.55 88.88 C 89.55 87.67 89.55 86.46 89.57 85.25 Z" />
<path fill="#ffffff" opacity="1.00" d=" M 145.45 85.52 C 146.78 85.44 148.12 85.38 149.46 85.35 C 149.50 86.52 149.53 87.69 149.55 88.86 C 148.30 88.75 147.04 88.69 145.81 88.42 C 145.66 87.46 145.54 86.49 145.45 85.52 Z" />
<path fill="#ffffff" opacity="1.00" d=" M 126.32 104.31 C 128.05 103.99 130.16 102.90 131.66 104.42 C 133.36 105.14 131.98 107.28 132.16 108.62 C 130.26 108.69 128.35 108.69 126.45 108.60 C 126.38 107.17 126.34 105.74 126.32 104.31 Z" />
<path fill="#ffffff" opacity="1.00" d=" M 101.75 166.16 C 102.08 165.54 102.73 164.28 103.06 163.65 C 106.41 164.02 109.77 164.41 113.12 164.81 C 113.35 166.98 113.60 169.16 113.78 171.34 C 112.42 181.59 111.38 191.90 109.64 202.11 C 106.74 190.18 104.73 178.06 101.75 166.16 Z" />
<path fill="#ffffff" opacity="1.00" d=" M 133.92 164.93 C 137.68 164.43 141.45 164.04 145.24 163.74 C 145.21 165.89 145.21 168.04 145.10 170.19 C 142.68 180.51 141.05 191.04 138.04 201.20 C 136.21 193.29 136.05 185.15 134.76 177.16 C 134.46 173.08 134.24 169.00 133.92 164.93 Z" />
</g>
<g id="#030000ff">
<path fill="#030000" opacity="1.00" d=" M 165.61 18.80 C 176.35 17.28 187.19 15.67 198.06 16.71 C 200.00 17.21 201.87 17.96 203.73 18.72 C 203.73 21.94 203.94 25.28 202.51 28.27 C 199.70 36.53 196.01 44.46 191.42 51.88 C 191.21 51.86 190.80 51.81 190.60 51.79 C 192.33 49.57 193.74 47.11 194.69 44.46 C 197.49 36.61 200.80 28.83 201.78 20.49 C 193.37 18.36 184.65 19.92 176.15 20.50 C 168.98 21.02 162.01 22.82 155.01 24.30 C 147.70 23.50 140.34 23.46 132.99 23.27 C 121.00 21.95 108.89 23.18 96.88 22.08 C 97.70 21.95 98.52 21.84 99.35 21.74 C 117.21 20.47 135.15 20.08 153.06 20.80 C 157.35 21.03 161.42 19.41 165.61 18.80 Z" />
<path fill="#030000" opacity="1.00" d=" M 54.03 29.03 C 56.52 24.57 62.34 24.45 66.77 23.63 C 68.27 24.03 69.76 24.48 71.26 24.87 C 66.41 25.57 61.03 25.92 57.01 29.03 C 52.19 37.00 49.16 46.06 47.58 55.23 C 53.16 53.03 57.76 49.09 62.52 45.56 C 71.31 38.70 80.17 31.93 88.85 24.93 C 85.89 28.17 82.74 31.22 79.79 34.46 C 72.00 41.04 64.44 47.93 56.02 53.71 C 53.44 55.62 50.63 57.18 47.82 58.70 C 44.04 56.87 45.07 52.36 45.72 49.03 C 47.84 42.13 50.35 35.26 54.03 29.03 Z" />
<path fill="#030000" opacity="1.00" d=" M 60.23 54.39 C 61.38 54.60 62.53 54.83 63.68 55.06 C 62.95 57.36 62.26 59.67 61.54 61.97 C 58.74 69.63 58.36 77.90 58.31 85.98 C 58.27 95.92 58.24 105.86 58.49 115.80 C 58.31 125.17 59.67 134.79 63.89 143.25 C 66.92 149.20 73.90 151.49 80.16 151.78 C 77.34 150.01 73.93 148.93 71.87 146.16 C 69.43 142.78 68.04 138.80 66.38 135.01 C 65.40 130.66 65.33 126.18 65.50 121.74 C 65.86 123.72 66.12 125.70 66.35 127.69 C 67.14 133.08 69.42 138.20 72.19 142.85 C 73.58 144.83 75.50 147.84 78.34 146.56 C 80.04 144.06 80.11 140.91 80.67 138.04 C 85.76 142.61 90.88 148.41 97.98 149.40 C 104.58 147.94 108.30 141.55 113.91 138.29 C 114.49 138.36 115.64 138.50 116.22 138.57 C 113.92 139.62 111.92 141.20 110.18 143.02 C 107.59 145.69 104.97 148.34 102.55 151.17 C 101.57 152.32 100.62 153.48 99.67 154.65 C 100.37 158.49 100.91 162.35 101.75 166.16 C 104.73 178.06 106.74 190.18 109.64 202.11 C 111.38 191.90 112.42 181.59 113.78 171.34 C 115.40 166.12 113.17 160.88 113.39 155.61 C 113.44 154.54 113.51 153.47 113.59 152.41 C 116.77 152.66 119.96 152.65 123.15 152.53 C 123.55 152.53 124.35 152.52 124.75 152.52 C 128.41 152.58 132.10 152.45 135.70 153.27 C 133.29 161.02 133.00 169.24 134.76 177.16 C 136.05 185.15 136.21 193.29 138.04 201.20 C 141.05 191.04 142.68 180.51 145.10 170.19 C 145.98 165.33 147.75 160.54 147.60 155.55 C 146.56 152.71 144.52 150.34 142.42 148.20 C 143.03 147.93 144.25 147.38 144.86 147.11 C 146.89 148.44 149.34 150.08 151.87 149.12 C 157.92 147.01 162.60 142.39 167.14 138.06 C 167.73 141.18 168.51 144.26 169.51 147.28 C 171.07 146.66 173.00 146.48 174.05 145.01 C 178.10 139.98 179.88 133.68 182.05 127.72 C 181.40 133.90 180.13 140.32 176.43 145.46 C 174.47 148.30 171.26 149.77 168.57 151.78 C 174.55 151.15 181.16 148.85 184.01 143.10 C 187.38 135.84 189.14 127.83 189.42 119.85 C 189.89 107.22 189.81 94.58 189.76 81.94 C 189.79 73.32 188.12 64.77 185.44 56.60 C 189.59 65.50 191.78 75.19 192.43 84.96 C 192.60 98.62 192.85 112.31 192.33 125.97 C 190.85 132.97 189.48 140.35 185.32 146.34 C 183.40 149.34 179.99 150.70 177.02 152.37 C 177.87 153.54 178.77 154.69 179.67 155.84 C 178.42 162.30 176.87 168.74 176.11 175.28 C 171.54 177.05 166.89 178.61 162.23 180.14 C 163.64 182.69 165.16 185.18 166.51 187.77 C 152.23 202.73 138.54 218.26 123.99 232.94 C 109.18 218.48 95.79 202.64 81.28 187.87 C 82.58 185.35 84.08 182.93 85.62 180.54 C 81.21 178.18 76.09 177.51 71.76 175.01 C 70.59 168.49 69.35 161.98 68.37 155.43 C 69.23 154.43 70.10 153.43 70.93 152.40 C 66.94 150.49 62.90 148.04 60.96 143.85 C 57.67 136.70 55.42 128.93 55.30 121.01 C 54.68 113.02 54.73 105.01 54.85 97.00 C 55.49 87.00 55.14 76.76 58.21 67.10 C 59.12 63.61 60.55 60.30 61.67 56.89 C 61.31 56.26 60.59 55.01 60.23 54.39 M 80.38 148.19 C 79.79 149.78 81.44 150.66 82.35 151.65 C 85.02 154.01 88.06 156.80 91.89 156.58 C 95.10 156.77 97.06 153.84 99.10 151.84 C 92.62 152.21 87.39 147.89 82.75 143.95 C 81.92 145.33 80.99 146.68 80.38 148.19 M 149.09 152.47 C 151.19 154.10 153.01 156.84 155.99 156.58 C 160.91 156.56 164.82 152.62 167.76 149.06 C 167.11 147.30 166.20 145.66 165.41 143.97 C 160.55 147.82 155.34 151.44 149.09 152.47 M 70.94 158.04 C 71.66 163.33 72.35 168.75 74.07 173.81 C 78.58 176.41 84.03 176.90 88.80 179.02 C 87.14 181.75 85.47 184.46 83.77 187.16 C 87.78 192.14 92.46 196.53 96.61 201.39 C 100.70 205.32 104.04 210.06 108.71 213.35 C 109.16 206.86 106.94 200.67 105.82 194.37 C 104.52 187.49 102.55 180.76 101.34 173.86 C 100.39 169.01 99.78 163.97 97.51 159.52 C 94.88 159.25 92.23 159.68 89.59 159.45 C 85.30 158.66 82.55 154.11 78.00 154.15 C 75.13 153.76 70.74 154.15 70.94 158.04 M 159.18 159.23 C 156.13 160.17 152.98 159.06 150.00 158.41 C 146.63 171.62 144.14 185.04 141.16 198.34 C 140.19 203.12 138.23 207.97 139.56 212.89 C 146.01 207.91 150.68 201.13 156.50 195.51 C 159.06 192.98 161.54 190.38 164.01 187.76 C 162.49 184.81 160.86 181.91 159.23 179.03 C 163.81 177.10 168.78 176.24 173.32 174.23 C 175.84 169.50 175.83 163.79 176.64 158.56 C 177.35 155.31 173.76 153.63 171.03 154.14 C 166.33 153.63 163.23 157.72 159.18 159.23 M 116.37 156.39 C 116.41 159.16 116.42 161.92 116.40 164.69 C 121.31 164.76 126.21 164.78 131.12 164.75 C 131.37 161.96 131.57 159.17 131.77 156.39 C 126.64 156.45 121.50 156.48 116.37 156.39 M 116.43 171.26 C 114.49 183.54 113.31 195.93 111.29 208.20 C 111.00 210.73 110.33 213.32 110.79 215.88 C 114.57 221.05 119.43 225.36 123.99 229.85 C 128.52 225.05 134.11 220.79 137.22 214.92 C 135.53 200.34 133.48 185.79 131.38 171.27 C 126.48 170.13 121.34 170.16 116.43 171.26 Z" />
<path fill="#030000" opacity="1.00" d=" M 114.40 75.26 C 115.80 73.21 117.19 71.14 118.48 69.02 C 116.96 72.61 115.55 76.25 114.18 79.91 C 113.33 79.76 112.48 79.61 111.63 79.46 C 110.98 80.22 110.29 80.94 109.56 81.61 C 100.16 80.06 91.08 76.99 81.97 74.26 C 91.15 74.72 100.01 77.25 109.04 78.74 C 110.22 76.10 111.61 73.57 113.07 71.07 C 113.40 72.50 113.84 73.90 114.40 75.26 Z" />
<path fill="#030000" opacity="1.00" d=" M 135.00 82.46 C 144.41 77.57 154.65 74.24 165.10 72.47 C 158.37 76.69 150.60 78.88 143.01 80.98 C 140.39 81.72 137.73 82.41 135.00 82.46 Z" />
<path fill="#030000" opacity="1.00" d=" M 83.84 83.81 C 89.84 83.13 95.94 81.79 101.95 83.03 C 105.60 83.76 108.51 86.23 111.36 88.46 C 108.81 87.32 106.29 86.13 103.68 85.14 C 104.73 87.76 106.02 90.29 106.73 93.03 C 102.23 94.43 97.22 96.46 92.59 94.37 C 88.36 92.14 86.60 87.43 83.84 83.81 M 89.57 85.25 C 89.55 86.46 89.55 87.67 89.55 88.88 C 90.77 88.76 92.00 88.67 93.21 88.41 C 93.36 87.46 93.48 86.50 93.57 85.53 C 92.23 85.42 90.90 85.32 89.57 85.25 Z" />
<path fill="#030000" opacity="1.00" d=" M 144.21 83.99 C 149.17 83.35 154.18 83.24 159.18 83.39 C 160.90 83.46 162.61 83.65 164.33 83.75 C 161.14 86.24 160.45 90.73 157.09 93.10 C 152.53 96.98 146.20 94.69 141.20 93.06 C 141.44 91.19 142.33 89.53 143.13 87.86 C 143.56 86.59 143.88 85.29 144.21 83.99 M 145.45 85.52 C 145.54 86.49 145.66 87.46 145.81 88.42 C 147.04 88.69 148.30 88.75 149.55 88.86 C 149.53 87.69 149.50 86.52 149.46 85.35 C 148.12 85.38 146.78 85.44 145.45 85.52 Z" />
<path fill="#030000" opacity="1.00" d=" M 112.04 110.98 C 109.66 107.41 113.24 102.66 117.11 102.44 C 121.69 102.16 126.31 102.15 130.90 102.45 C 134.61 102.74 137.85 107.19 135.93 110.69 C 133.11 114.85 128.73 117.62 125.65 121.56 C 124.68 123.22 125.45 125.29 125.38 127.12 C 125.24 130.03 124.51 132.88 123.16 135.48 C 122.72 130.75 123.15 125.96 122.42 121.25 C 118.86 117.94 114.97 114.89 112.04 110.98 M 126.32 104.31 C 126.34 105.74 126.38 107.17 126.45 108.60 C 128.35 108.69 130.26 108.69 132.16 108.62 C 131.98 107.28 133.36 105.14 131.66 104.42 C 130.16 102.90 128.05 103.99 126.32 104.31 Z" />
</g>
<g id="#f7e9d8ff">
<path fill="#f7e9d8" opacity="1.00" d=" M 176.15 20.50 C 184.65 19.92 193.37 18.36 201.78 20.49 C 200.80 28.83 197.49 36.61 194.69 44.46 C 193.74 47.11 192.33 49.57 190.60 51.79 C 190.80 51.81 191.21 51.86 191.42 51.88 C 190.30 54.04 187.22 54.84 185.44 56.60 C 188.12 64.77 189.79 73.32 189.76 81.94 C 189.81 94.58 189.89 107.22 189.42 119.85 C 187.54 125.14 185.23 130.28 182.36 135.12 C 182.96 130.96 183.47 126.79 183.82 122.60 C 178.47 118.85 174.09 113.82 168.33 110.65 C 159.90 105.86 150.46 103.27 141.13 100.90 C 131.90 98.59 122.21 97.80 112.82 99.59 C 99.50 102.05 85.98 105.88 74.77 113.75 C 69.74 116.82 69.57 123.26 66.35 127.69 C 66.12 125.70 65.86 123.72 65.50 121.74 C 65.33 126.18 65.40 130.66 66.38 135.01 C 61.56 129.71 59.94 122.60 58.49 115.80 C 58.24 105.86 58.27 95.92 58.31 85.98 C 58.36 77.90 58.74 69.63 61.54 61.97 C 64.80 59.03 67.71 55.71 70.04 51.97 C 73.58 46.31 78.41 41.21 79.79 34.46 C 82.74 31.22 85.89 28.17 88.85 24.93 C 80.17 31.93 71.31 38.70 62.52 45.56 C 57.76 49.09 53.16 53.03 47.58 55.23 C 49.16 46.06 52.19 37.00 57.01 29.03 C 61.03 25.92 66.41 25.57 71.26 24.87 C 76.26 24.27 81.26 23.65 86.24 22.84 C 85.38 22.76 83.66 22.59 82.80 22.50 C 84.90 20.59 87.62 21.61 90.10 21.87 C 93.17 22.28 96.27 21.87 99.35 21.74 C 98.52 21.84 97.70 21.95 96.88 22.08 C 108.89 23.18 121.00 21.95 132.99 23.27 C 140.34 23.46 147.70 23.50 155.01 24.30 C 162.01 22.82 168.98 21.02 176.15 20.50 M 180.65 29.59 C 174.40 31.10 168.20 28.76 162.02 28.04 C 168.25 34.49 175.98 39.67 180.29 47.77 C 182.50 39.64 189.73 34.53 193.13 27.03 C 188.88 27.46 184.78 28.64 180.65 29.59 M 92.07 45.16 C 99.78 50.32 107.35 56.03 116.07 59.36 C 119.14 59.09 120.89 55.80 123.16 54.03 C 124.43 55.85 125.66 57.69 126.87 59.54 C 130.33 57.38 133.82 55.27 137.30 53.15 C 142.80 49.74 148.98 47.68 154.92 45.20 C 148.07 46.22 140.89 47.86 135.61 52.64 C 132.98 55.07 130.14 57.36 126.73 58.61 C 125.54 56.26 124.44 53.86 123.43 51.43 C 121.79 53.18 120.21 55.03 118.23 56.41 C 116.12 57.55 113.88 56.04 112.00 55.13 C 105.54 51.44 98.90 48.10 92.07 45.16 M 114.40 75.26 C 113.84 73.90 113.40 72.50 113.07 71.07 C 111.61 73.57 110.22 76.10 109.04 78.74 C 100.01 77.25 91.15 74.72 81.97 74.26 C 91.08 76.99 100.16 80.06 109.56 81.61 C 110.29 80.94 110.98 80.22 111.63 79.46 C 112.48 79.61 113.33 79.76 114.18 79.91 C 115.55 76.25 116.96 72.61 118.48 69.02 C 117.19 71.14 115.80 73.21 114.40 75.26 M 135.00 82.46 C 137.73 82.41 140.39 81.72 143.01 80.98 C 150.60 78.88 158.37 76.69 165.10 72.47 C 154.65 74.24 144.41 77.57 135.00 82.46 M 135.99 88.85 C 138.47 87.90 140.93 86.90 143.41 85.97 C 143.34 86.45 143.20 87.39 143.13 87.86 C 142.33 89.53 141.44 91.19 141.20 93.06 C 146.20 94.69 152.53 96.98 157.09 93.10 C 160.45 90.73 161.14 86.24 164.33 83.75 C 162.61 83.65 160.90 83.46 159.18 83.39 C 155.30 81.99 151.10 82.41 147.07 82.57 C 142.59 82.78 139.11 85.97 135.99 88.85 M 83.84 83.81 C 86.60 87.43 88.36 92.14 92.59 94.37 C 97.22 96.46 102.23 94.43 106.73 93.03 C 106.02 90.29 104.73 87.76 103.68 85.14 C 106.29 86.13 108.81 87.32 111.36 88.46 C 108.51 86.23 105.60 83.76 101.95 83.03 C 95.94 81.79 89.84 83.13 83.84 83.81 Z" />
<path fill="#f7e9d8" opacity="1.00" d=" M 193.47 92.88 C 194.44 101.58 194.62 110.44 193.47 119.13 C 192.55 110.42 192.72 101.61 193.47 92.88 Z" />
<path fill="#f7e9d8" opacity="1.00" d=" M 116.22 138.57 C 123.48 136.81 132.41 137.04 137.47 143.37 C 133.47 145.61 129.07 146.98 124.65 148.08 C 124.67 149.56 124.70 151.04 124.75 152.52 C 124.35 152.52 123.55 152.53 123.15 152.53 C 123.23 151.06 123.29 149.59 123.35 148.12 C 118.68 147.27 113.95 146.05 110.18 143.02 C 111.92 141.20 113.92 139.62 116.22 138.57 Z" />
</g>
<g id="#444653ff">
<path fill="#444653" opacity="1.00" d=" M 66.77 23.63 C 71.92 21.90 77.46 22.39 82.80 22.50 C 83.66 22.59 85.38 22.76 86.24 22.84 C 81.26 23.65 76.26 24.27 71.26 24.87 C 69.76 24.48 68.27 24.03 66.77 23.63 Z" />
<path fill="#444653" opacity="1.00" d=" M 92.07 45.16 C 98.90 48.10 105.54 51.44 112.00 55.13 C 113.88 56.04 116.12 57.55 118.23 56.41 C 120.21 55.03 121.79 53.18 123.43 51.43 C 124.44 53.86 125.54 56.26 126.73 58.61 C 130.14 57.36 132.98 55.07 135.61 52.64 C 140.89 47.86 148.07 46.22 154.92 45.20 C 148.98 47.68 142.80 49.74 137.30 53.15 C 133.82 55.27 130.33 57.38 126.87 59.54 C 125.66 57.69 124.43 55.85 123.16 54.03 C 120.89 55.80 119.14 59.09 116.07 59.36 C 107.35 56.03 99.78 50.32 92.07 45.16 Z" />
<path fill="#444653" opacity="1.00" d=" M 135.99 88.85 C 139.11 85.97 142.59 82.78 147.07 82.57 C 151.10 82.41 155.30 81.99 159.18 83.39 C 154.18 83.24 149.17 83.35 144.21 83.99 C 143.88 85.29 143.56 86.59 143.13 87.86 C 143.20 87.39 143.34 86.45 143.41 85.97 C 140.93 86.90 138.47 87.90 135.99 88.85 Z" />
<path fill="#444653" opacity="1.00" d=" M 106.29 116.94 C 107.91 116.05 109.68 115.51 111.53 115.36 C 111.31 116.77 111.86 118.59 110.64 119.66 C 109.34 119.70 108.04 119.60 106.74 119.53 C 106.63 118.89 106.40 117.59 106.29 116.94 Z" />
<path fill="#444653" opacity="1.00" d=" M 136.66 115.58 C 137.90 115.57 139.13 115.56 140.37 115.56 C 140.50 116.92 140.62 118.29 140.75 119.67 C 139.26 119.67 137.77 119.66 136.28 119.66 C 136.41 118.30 136.53 116.94 136.66 115.58 Z" />
<path fill="#444653" opacity="1.00" d=" M 122.42 121.25 C 123.15 125.96 122.72 130.75 123.16 135.48 C 124.51 132.88 125.24 130.03 125.38 127.12 C 125.73 129.93 126.02 132.76 126.38 135.58 C 129.82 136.61 133.53 137.29 136.41 139.59 C 139.40 141.90 141.98 144.68 144.86 147.11 C 144.25 147.38 143.03 147.93 142.42 148.20 C 140.76 146.60 139.09 145.01 137.47 143.37 C 132.41 137.04 123.48 136.81 116.22 138.57 C 115.64 138.50 114.49 138.36 113.91 138.29 C 116.35 137.08 118.97 136.30 121.55 135.45 C 122.11 130.74 122.54 126.00 122.42 121.25 Z" />
<path fill="#444653" opacity="1.00" d=" M 109.28 125.29 C 109.86 125.33 111.03 125.40 111.62 125.43 C 111.61 125.96 111.59 127.03 111.58 127.56 C 111.00 127.60 109.86 127.66 109.29 127.69 C 109.28 127.09 109.28 125.89 109.28 125.29 Z" />
<path fill="#444653" opacity="1.00" d=" M 136.35 125.36 C 136.93 125.35 138.08 125.35 138.66 125.34 C 138.66 125.92 138.66 127.08 138.66 127.65 C 138.09 127.65 136.95 127.63 136.38 127.63 C 136.37 127.06 136.36 125.93 136.35 125.36 Z" />
<path fill="#444653" opacity="1.00" d=" M 99.67 154.65 C 100.62 153.48 101.57 152.32 102.55 151.17 C 102.93 151.54 103.71 152.29 104.09 152.66 C 107.22 151.98 110.43 151.95 113.59 152.41 C 113.51 153.47 113.44 154.54 113.39 155.61 C 108.87 154.74 104.26 154.57 99.67 154.65 Z" />
<path fill="#444653" opacity="1.00" d=" M 70.94 158.04 C 70.74 154.15 75.13 153.76 78.00 154.15 C 82.55 154.11 85.30 158.66 89.59 159.45 C 92.23 159.68 94.88 159.25 97.51 159.52 C 99.78 163.97 100.39 169.01 101.34 173.86 C 102.55 180.76 104.52 187.49 105.82 194.37 C 106.94 200.67 109.16 206.86 108.71 213.35 C 104.04 210.06 100.70 205.32 96.61 201.39 C 92.46 196.53 87.78 192.14 83.77 187.16 C 85.47 184.46 87.14 181.75 88.80 179.02 C 84.03 176.90 78.58 176.41 74.07 173.81 C 72.35 168.75 71.66 163.33 70.94 158.04 Z" />
<path fill="#444653" opacity="1.00" d=" M 159.18 159.23 C 163.23 157.72 166.33 153.63 171.03 154.14 C 173.76 153.63 177.35 155.31 176.64 158.56 C 175.83 163.79 175.84 169.50 173.32 174.23 C 168.78 176.24 163.81 177.10 159.23 179.03 C 160.86 181.91 162.49 184.81 164.01 187.76 C 161.54 190.38 159.06 192.98 156.50 195.51 C 150.68 201.13 146.01 207.91 139.56 212.89 C 138.23 207.97 140.19 203.12 141.16 198.34 C 144.14 185.04 146.63 171.62 150.00 158.41 C 152.98 159.06 156.13 160.17 159.18 159.23 Z" />
</g>
<g id="#e7c0aaff">
<path fill="#e7c0aa" opacity="1.00" d=" M 180.65 29.59 C 184.78 28.64 188.88 27.46 193.13 27.03 C 189.73 34.53 182.50 39.64 180.29 47.77 C 175.98 39.67 168.25 34.49 162.02 28.04 C 168.20 28.76 174.40 31.10 180.65 29.59 Z" />
<path fill="#e7c0aa" opacity="1.00" d=" M 56.02 53.71 C 64.44 47.93 72.00 41.04 79.79 34.46 C 78.41 41.21 73.58 46.31 70.04 51.97 C 67.71 55.71 64.80 59.03 61.54 61.97 C 62.26 59.67 62.95 57.36 63.68 55.06 C 62.53 54.83 61.38 54.60 60.23 54.39 C 58.83 54.15 57.42 53.93 56.02 53.71 Z" />
<path fill="#e7c0aa" opacity="1.00" d=" M 112.82 99.59 C 122.21 97.80 131.90 98.59 141.13 100.90 C 150.46 103.27 159.90 105.86 168.33 110.65 C 174.09 113.82 178.47 118.85 183.82 122.60 C 183.47 126.79 182.96 130.96 182.36 135.12 C 185.23 130.28 187.54 125.14 189.42 119.85 C 189.14 127.83 187.38 135.84 184.01 143.10 C 181.16 148.85 174.55 151.15 168.57 151.78 C 171.26 149.77 174.47 148.30 176.43 145.46 C 180.13 140.32 181.40 133.90 182.05 127.72 C 179.88 133.68 178.10 139.98 174.05 145.01 C 173.00 146.48 171.07 146.66 169.51 147.28 C 168.51 144.26 167.73 141.18 167.14 138.06 C 162.60 142.39 157.92 147.01 151.87 149.12 C 149.34 150.08 146.89 148.44 144.86 147.11 C 141.98 144.68 139.40 141.90 136.41 139.59 C 133.53 137.29 129.82 136.61 126.38 135.58 C 126.02 132.76 125.73 129.93 125.38 127.12 C 125.45 125.29 124.68 123.22 125.65 121.56 C 128.73 117.62 133.11 114.85 135.93 110.69 C 137.85 107.19 134.61 102.74 130.90 102.45 C 126.31 102.15 121.69 102.16 117.11 102.44 C 113.24 102.66 109.66 107.41 112.04 110.98 C 114.97 114.89 118.86 117.94 122.42 121.25 C 122.54 126.00 122.11 130.74 121.55 135.45 C 118.97 136.30 116.35 137.08 113.91 138.29 C 108.30 141.55 104.58 147.94 97.98 149.40 C 90.88 148.41 85.76 142.61 80.67 138.04 C 80.11 140.91 80.04 144.06 78.34 146.56 C 75.50 147.84 73.58 144.83 72.19 142.85 C 69.42 138.20 67.14 133.08 66.35 127.69 C 69.57 123.26 69.74 116.82 74.77 113.75 C 85.98 105.88 99.50 102.05 112.82 99.59 M 106.29 116.94 C 106.40 117.59 106.63 118.89 106.74 119.53 C 108.04 119.60 109.34 119.70 110.64 119.66 C 111.86 118.59 111.31 116.77 111.53 115.36 C 109.68 115.51 107.91 116.05 106.29 116.94 M 136.66 115.58 C 136.53 116.94 136.41 118.30 136.28 119.66 C 137.77 119.66 139.26 119.67 140.75 119.67 C 140.62 118.29 140.50 116.92 140.37 115.56 C 139.13 115.56 137.90 115.57 136.66 115.58 M 109.28 125.29 C 109.28 125.89 109.28 127.09 109.29 127.69 C 109.86 127.66 111.00 127.60 111.58 127.56 C 111.59 127.03 111.61 125.96 111.62 125.43 C 111.03 125.40 109.86 125.33 109.28 125.29 M 136.35 125.36 C 136.36 125.93 136.37 127.06 136.38 127.63 C 136.95 127.63 138.09 127.65 138.66 127.65 C 138.66 127.08 138.66 125.92 138.66 125.34 C 138.08 125.35 136.93 125.35 136.35 125.36 Z" />
<path fill="#e7c0aa" opacity="1.00" d=" M 58.49 115.80 C 59.94 122.60 61.56 129.71 66.38 135.01 C 68.04 138.80 69.43 142.78 71.87 146.16 C 73.93 148.93 77.34 150.01 80.16 151.78 C 73.90 151.49 66.92 149.20 63.89 143.25 C 59.67 134.79 58.31 125.17 58.49 115.80 Z" />
<path fill="#e7c0aa" opacity="1.00" d=" M 102.55 151.17 C 104.97 148.34 107.59 145.69 110.18 143.02 C 113.95 146.05 118.68 147.27 123.35 148.12 C 123.29 149.59 123.23 151.06 123.15 152.53 C 119.96 152.65 116.77 152.66 113.59 152.41 C 110.43 151.95 107.22 151.98 104.09 152.66 C 103.71 152.29 102.93 151.54 102.55 151.17 Z" />
<path fill="#e7c0aa" opacity="1.00" d=" M 137.47 143.37 C 139.09 145.01 140.76 146.60 142.42 148.20 C 144.52 150.34 146.56 152.71 147.60 155.55 C 147.75 160.54 145.98 165.33 145.10 170.19 C 145.21 168.04 145.21 165.89 145.24 163.74 C 141.45 164.04 137.68 164.43 133.92 164.93 C 134.24 169.00 134.46 173.08 134.76 177.16 C 133.00 169.24 133.29 161.02 135.70 153.27 C 132.10 152.45 128.41 152.58 124.75 152.52 C 124.70 151.04 124.67 149.56 124.65 148.08 C 129.07 146.98 133.47 145.61 137.47 143.37 Z" />
<path fill="#e7c0aa" opacity="1.00" d=" M 80.38 148.19 C 80.99 146.68 81.92 145.33 82.75 143.95 C 87.39 147.89 92.62 152.21 99.10 151.84 C 97.06 153.84 95.10 156.77 91.89 156.58 C 88.06 156.80 85.02 154.01 82.35 151.65 C 81.44 150.66 79.79 149.78 80.38 148.19 Z" />
<path fill="#e7c0aa" opacity="1.00" d=" M 149.09 152.47 C 155.34 151.44 160.55 147.82 165.41 143.97 C 166.20 145.66 167.11 147.30 167.76 149.06 C 164.82 152.62 160.91 156.56 155.99 156.58 C 153.01 156.84 151.19 154.10 149.09 152.47 Z" />
<path fill="#e7c0aa" opacity="1.00" d=" M 99.67 154.65 C 104.26 154.57 108.87 154.74 113.39 155.61 C 113.17 160.88 115.40 166.12 113.78 171.34 C 113.60 169.16 113.35 166.98 113.12 164.81 C 109.77 164.41 106.41 164.02 103.06 163.65 C 102.73 164.28 102.08 165.54 101.75 166.16 C 100.91 162.35 100.37 158.49 99.67 154.65 Z" />
</g>
<g id="#bd1010ff">
<path fill="#bd1010" opacity="1.00" d=" M 116.37 156.39 C 121.50 156.48 126.64 156.45 131.77 156.39 C 131.57 159.17 131.37 161.96 131.12 164.75 C 126.21 164.78 121.31 164.76 116.40 164.69 C 116.42 161.92 116.41 159.16 116.37 156.39 Z" />
<path fill="#bd1010" opacity="1.00" d=" M 116.43 171.26 C 121.34 170.16 126.48 170.13 131.38 171.27 C 133.48 185.79 135.53 200.34 137.22 214.92 C 134.11 220.79 128.52 225.05 123.99 229.85 C 119.43 225.36 114.57 221.05 110.79 215.88 C 110.33 213.32 111.00 210.73 111.29 208.20 C 113.31 195.93 114.49 183.54 116.43 171.26 Z" />
</g>
</svg>
