<?xml version="1.0" encoding="UTF-8" ?>
<!DOCTYPE svg PUBLIC "-//W3C//DTD SVG 1.1//EN" "http://www.w3.org/Graphics/SVG/1.1/DTD/svg11.dtd">
<svg width="230pt" height="250pt" viewBox="0 0 230 250" version="1.1" xmlns="http://www.w3.org/2000/svg">
<g id="#ffffffff">
<path fill="#ffffff" opacity="1.00" d=" M 0.00 0.00 L 19.70 0.00 C 18.69 0.63 17.68 1.25 16.67 1.87 C 11.03 3.63 7.33 8.50 4.10 13.14 C 2.51 15.48 1.04 17.92 0.00 20.57 L 0.00 0.00 Z" />
<path fill="#ffffff" opacity="1.00" d=" M 218.52 0.00 L 230.00 0.00 L 230.00 219.73 C 229.38 218.70 228.76 217.67 228.15 216.63 C 226.00 209.87 220.31 205.35 215.52 200.48 C 197.85 182.82 180.19 165.14 162.50 147.50 C 160.36 145.31 157.98 143.33 156.19 140.84 C 156.26 139.65 157.26 138.85 157.97 137.99 C 177.53 118.55 196.99 98.98 216.54 79.53 C 221.13 74.89 224.80 68.72 224.69 62.01 C 224.71 44.33 224.73 26.64 224.72 8.96 C 224.94 6.77 223.90 4.86 222.45 3.31 C 221.21 2.13 219.88 1.03 218.52 0.00 Z" />
<path fill="#ffffff" opacity="1.00" d=" M 51.37 48.41 C 92.20 48.65 133.05 48.42 173.88 48.52 C 174.76 48.51 175.46 48.86 176.00 49.57 C 150.94 73.99 126.51 99.05 101.60 123.63 C 97.04 128.17 94.72 134.60 95.35 141.01 C 94.77 147.62 97.96 153.89 102.50 158.50 C 130.53 186.46 158.48 214.51 186.53 242.46 C 189.89 246.06 194.68 247.52 198.78 250.00 L 31.44 250.00 C 35.97 248.45 40.04 245.78 43.55 242.54 C 49.14 237.78 50.99 230.06 51.34 223.02 C 51.34 164.82 51.27 106.61 51.37 48.41 Z" />
<path fill="#ffffff" opacity="1.00" d=" M -0.00 227.47 C 0.45 228.46 0.91 229.45 1.37 230.45 C 3.13 238.13 8.85 244.53 15.73 248.13 C 16.68 248.75 17.63 249.38 18.58 250.00 L 0.00 250.00 L 0.00 227.47 Z" />
<path fill="#ffffff" opacity="1.00" d=" M 228.17 233.37 C 228.77 232.37 229.38 231.37 230.00 230.39 L 230.00 250.00 L 209.40 250.00 C 217.38 247.04 225.65 242.05 228.17 233.37 Z" />
</g>
<g id="#2deab0ff">
<path fill="#2deab0" opacity="1.00" d=" M 19.70 0.00 L 23.44 0.00 C 23.04 0.54 22.23 1.63 21.83 2.18 C 20.11 2.06 18.39 1.94 16.67 1.87 C 17.68 1.25 18.69 0.63 19.70 0.00 Z" />
<path fill="#2deab0" opacity="1.00" d=" M 0.00 20.57 C 1.04 17.92 2.51 15.48 4.10 13.14 C 1.32 19.74 2.42 27.04 2.10 34.00 C 2.06 94.00 2.10 154.00 2.08 214.00 C 2.20 219.49 2.33 225.01 1.37 230.45 C 0.91 229.45 0.45 228.46 -0.00 227.47 L 0.00 20.57 Z" />
</g>
<g id="#00e6a0ff">
<path fill="#00e6a0" opacity="1.00" d=" M 23.44 0.00 L 218.52 0.00 C 219.88 1.03 221.21 2.13 222.45 3.31 C 206.90 18.65 191.67 34.34 176.00 49.57 C 175.46 48.86 174.76 48.51 173.88 48.52 C 133.05 48.42 92.20 48.65 51.37 48.41 C 51.27 106.61 51.34 164.82 51.34 223.02 C 50.99 230.06 49.14 237.78 43.55 242.54 C 40.04 245.78 35.97 248.45 31.44 250.00 L 22.60 250.00 C 20.53 248.69 18.15 248.24 15.73 248.13 C 8.85 244.53 3.13 238.13 1.37 230.45 C 2.33 225.01 2.20 219.49 2.08 214.00 C 2.10 154.00 2.06 94.00 2.10 34.00 C 2.42 27.04 1.32 19.74 4.10 13.14 C 7.33 8.50 11.03 3.63 16.67 1.87 C 18.39 1.94 20.11 2.06 21.83 2.18 C 22.23 1.63 23.04 0.54 23.44 0.00 Z" />
</g>
<g id="#008c62ff">
<path fill="#008c62" opacity="1.00" d=" M 176.00 49.57 C 191.67 34.34 206.90 18.65 222.45 3.31 C 223.90 4.86 224.94 6.77 224.72 8.96 C 224.73 26.64 224.71 44.33 224.69 62.01 C 224.80 68.72 221.13 74.89 216.54 79.53 C 196.99 98.98 177.53 118.55 157.97 137.99 C 157.26 138.85 156.26 139.65 156.19 140.84 C 157.98 143.33 160.36 145.31 162.50 147.50 C 180.19 165.14 197.85 182.82 215.52 200.48 C 220.31 205.35 226.00 209.87 228.15 216.63 C 227.92 222.21 227.93 227.79 228.17 233.37 C 225.65 242.05 217.38 247.04 209.40 250.00 L 198.78 250.00 C 194.68 247.52 189.89 246.06 186.53 242.46 C 158.48 214.51 130.53 186.46 102.50 158.50 C 97.96 153.89 94.77 147.62 95.35 141.01 C 94.72 134.60 97.04 128.17 101.60 123.63 C 126.51 99.05 150.94 73.99 176.00 49.57 Z" />
</g>
<g id="#42ab8cff">
<path fill="#42ab8c" opacity="1.00" d=" M 228.15 216.63 C 228.76 217.67 229.38 218.70 230.00 219.73 L 230.00 230.39 C 229.38 231.37 228.77 232.37 228.17 233.37 C 227.93 227.79 227.92 222.21 228.15 216.63 Z" />
</g>
<g id="#9fe4cfff">
<path fill="#9fe4cf" opacity="1.00" d=" M 15.73 248.13 C 18.15 248.24 20.53 248.69 22.60 250.00 L 18.58 250.00 C 17.63 249.38 16.68 248.75 15.73 248.13 Z" />
</g>
</svg>
