<svg id="Layer_1" data-name="Layer 1" xmlns="http://www.w3.org/2000/svg" viewBox="0 0 229.66 250"><defs><style>.cls-1{fill:#008c62;}.cls-2{fill:#00e6a0;}</style></defs><g id="Layer_2" data-name="Layer 2"><g id="Request_Green_Logo_for_Background" data-name="Request Green Logo for Background"><path class="cls-1" d="M165.36,140.43l62.72-62.52a25,25,0,0,0,7.33-17.71l.1-50.53a10.09,10.09,0,0,0-2.79-7L112.41,122.76a24.92,24.92,0,0,0-.16,35.25l.16.16,84.82,84.56a25,25,0,1,0,35.24-35.41h0Z" transform="translate(-10.17 0)"/><path class="cls-2" d="M225.7,0h-189C21.45,0,10.17,11.55,10.17,27.3V224.46a25.09,25.09,0,0,0,24.77,25.4h.66A25,25,0,0,0,61,225.31V48.64H186.72l46-45.8A9.64,9.64,0,0,0,225.7,0Z" transform="translate(-10.17 0)"/></g></g></svg>