<?xml version="1.0" encoding="UTF-8" ?>
<!DOCTYPE svg PUBLIC "-//W3C//DTD SVG 1.1//EN" "http://www.w3.org/Graphics/SVG/1.1/DTD/svg11.dtd">
<svg width="250pt" height="250pt" viewBox="0 0 250 250" version="1.1" xmlns="http://www.w3.org/2000/svg">
<g id="#000000ff">
<path fill="#000000" opacity="1.00" d=" M 0.00 0.00 L 250.00 0.00 L 250.00 250.00 L 0.00 250.00 L 0.00 0.00 M 99.18 26.05 C 95.98 27.34 93.05 29.20 90.42 31.42 C 86.24 34.88 81.70 37.95 78.04 42.00 C 70.38 51.40 64.74 62.18 58.60 72.59 C 50.68 86.54 45.94 101.99 38.51 116.18 C 36.33 122.04 32.08 127.42 32.36 133.94 C 32.39 139.54 32.20 145.15 32.67 150.73 C 34.26 160.89 37.48 170.78 42.20 179.92 C 48.10 191.32 51.41 204.22 59.85 214.17 C 65.75 221.25 71.65 229.72 81.26 231.75 C 85.58 236.04 94.52 238.11 98.26 232.05 C 98.68 230.79 99.18 229.54 99.34 228.21 C 100.06 217.30 95.34 206.86 95.54 196.00 C 95.33 194.07 97.98 194.81 99.17 194.41 C 105.94 196.49 113.09 194.94 120.00 194.63 C 127.64 194.22 135.27 196.32 142.89 195.05 C 146.54 194.28 150.39 192.34 151.89 188.72 C 154.17 183.78 155.56 178.50 157.17 173.32 C 161.45 173.20 165.73 173.55 169.95 174.27 C 164.52 180.74 160.58 188.22 156.54 195.58 C 154.96 198.57 154.05 201.83 152.92 205.00 C 151.34 209.66 147.95 213.36 145.74 217.70 C 142.99 223.01 139.26 228.53 140.10 234.80 C 140.37 236.70 141.61 239.29 143.93 238.84 C 148.49 238.64 153.01 237.32 156.92 234.94 C 163.02 231.17 169.77 228.53 175.50 224.15 C 174.77 223.69 173.30 222.76 172.57 222.30 C 178.24 218.94 183.77 215.13 187.98 209.98 C 190.50 206.88 193.68 204.07 194.99 200.20 C 198.56 196.71 197.49 191.48 197.65 187.00 C 197.38 178.10 198.27 169.22 199.47 160.41 C 201.60 145.53 199.76 130.48 198.16 115.65 C 195.81 92.51 189.23 68.85 174.01 50.75 C 170.71 44.99 165.62 40.64 161.01 35.98 C 158.15 33.10 154.88 30.52 151.01 29.15 C 140.69 25.23 130.05 21.76 119.01 20.69 C 112.09 20.08 104.35 20.93 99.18 26.05 Z" />
</g>
<g id="#b24645ff">
<path fill="#b24645" opacity="1.00" d=" M 99.18 26.05 C 104.35 20.93 112.09 20.08 119.01 20.69 C 130.05 21.76 140.69 25.23 151.01 29.15 C 154.88 30.52 158.15 33.10 161.01 35.98 C 165.62 40.64 170.71 44.99 174.01 50.75 C 171.00 51.01 168.05 50.12 165.55 48.38 C 157.75 41.53 150.95 32.57 140.56 29.62 C 131.33 26.62 121.51 27.48 111.96 27.35 C 107.32 27.25 102.99 29.26 99.21 31.78 C 97.90 31.36 96.58 30.93 95.26 30.51 C 96.55 29.01 97.83 27.50 99.18 26.05 Z" />
</g>
<g id="#982f33ff">
<path fill="#982f33" opacity="1.00" d=" M 90.42 31.42 C 93.05 29.20 95.98 27.34 99.18 26.05 C 97.83 27.50 96.55 29.01 95.26 30.51 C 96.58 30.93 97.90 31.36 99.21 31.78 C 94.34 34.97 89.61 38.37 85.01 41.92 C 80.93 44.79 76.82 47.90 74.37 52.36 C 68.22 63.20 63.06 74.55 57.76 85.81 C 54.47 92.78 50.60 99.46 47.63 106.58 C 42.95 115.32 38.27 124.28 35.94 133.98 C 34.88 139.01 35.18 144.18 35.32 149.28 C 35.07 155.86 36.70 162.29 39.91 168.02 C 40.32 168.96 40.73 169.91 41.13 170.86 C 42.35 174.92 43.36 179.07 45.23 182.91 C 48.56 189.96 51.42 197.23 54.96 204.18 C 58.06 210.38 62.68 215.62 67.24 220.78 C 71.20 225.27 76.33 228.46 81.26 231.75 C 71.65 229.72 65.75 221.25 59.85 214.17 C 51.41 204.22 48.10 191.32 42.20 179.92 C 37.48 170.78 34.26 160.89 32.67 150.73 C 32.20 145.15 32.39 139.54 32.36 133.94 C 32.08 127.42 36.33 122.04 38.51 116.18 C 45.94 101.99 50.68 86.54 58.60 72.59 C 64.74 62.18 70.38 51.40 78.04 42.00 C 81.70 37.95 86.24 34.88 90.42 31.42 Z" />
</g>
<g id="#060202ff">
<path fill="#060202" opacity="1.00" d=" M 99.21 31.78 C 102.99 29.26 107.32 27.25 111.96 27.35 C 121.51 27.48 131.33 26.62 140.56 29.62 C 150.95 32.57 157.75 41.53 165.55 48.38 C 170.30 53.64 176.51 59.01 176.74 66.65 C 174.46 76.82 176.47 87.26 175.25 97.53 C 174.01 107.89 174.66 118.35 175.29 128.73 C 176.46 140.92 180.07 153.03 178.42 165.36 C 177.36 171.58 172.43 175.99 168.87 180.87 C 160.61 191.35 156.62 204.32 149.45 215.46 C 147.88 218.12 146.86 221.06 145.91 223.98 C 145.30 225.76 144.75 227.56 144.21 229.36 C 143.53 231.58 143.05 233.86 142.53 236.14 C 153.63 234.36 162.94 227.61 172.57 222.30 C 173.30 222.76 174.77 223.69 175.50 224.15 C 169.77 228.53 163.02 231.17 156.92 234.94 C 153.01 237.32 148.49 238.64 143.93 238.84 C 141.61 239.29 140.37 236.70 140.10 234.80 C 139.26 228.53 142.99 223.01 145.74 217.70 C 147.95 213.36 151.34 209.66 152.92 205.00 C 154.05 201.83 154.96 198.57 156.54 195.58 C 160.58 188.22 164.52 180.74 169.95 174.27 C 165.73 173.55 161.45 173.20 157.17 173.32 C 159.02 167.13 161.16 160.98 164.40 155.37 C 167.48 149.93 171.12 144.46 171.63 138.05 C 171.99 132.93 172.03 127.69 170.75 122.68 C 170.17 120.52 169.48 118.39 168.83 116.24 C 168.30 112.98 167.90 109.70 167.57 106.41 C 166.99 101.58 168.90 96.91 168.74 92.10 C 168.77 88.06 167.34 84.21 165.58 80.63 C 165.03 82.25 164.48 83.87 164.00 85.51 C 162.31 81.34 160.07 75.73 154.87 75.36 C 149.30 74.71 145.58 79.59 141.38 82.35 C 139.13 84.23 136.06 83.68 133.37 83.49 C 133.42 82.51 133.46 81.53 133.50 80.56 C 141.02 76.86 148.54 72.54 156.98 71.50 C 159.32 72.92 161.20 74.96 163.20 76.80 C 162.11 73.14 160.96 69.40 158.62 66.33 C 154.50 61.16 151.49 54.94 145.93 51.08 C 141.64 48.23 137.60 43.81 132.01 44.19 C 129.30 44.10 126.92 45.54 124.58 46.70 C 123.83 47.05 123.09 47.40 122.34 47.75 C 119.53 45.82 116.62 43.38 113.01 43.47 C 109.93 43.27 107.31 45.12 104.75 46.54 C 100.94 48.75 96.59 50.23 93.49 53.48 C 90.69 56.40 88.61 59.90 85.95 62.93 C 82.90 66.31 81.37 70.65 79.89 74.86 C 83.01 72.10 86.50 69.76 90.37 68.16 C 94.35 72.76 99.90 75.65 105.79 76.97 C 108.41 77.44 109.46 80.16 110.82 82.10 C 108.14 82.55 104.93 83.32 102.71 81.23 C 98.10 77.71 92.80 73.22 86.56 74.53 C 82.89 76.72 80.93 80.86 79.77 84.81 C 79.05 87.62 78.47 90.45 77.91 93.29 C 76.08 88.13 77.04 82.75 78.33 77.59 C 76.31 81.43 74.42 85.57 74.55 90.01 C 74.51 94.74 76.87 99.25 76.18 104.01 C 75.77 107.00 75.38 110.00 74.88 112.98 C 74.04 116.67 72.67 120.22 71.90 123.93 C 70.00 132.83 71.67 142.21 76.58 149.87 C 75.64 150.67 74.69 151.47 73.75 152.28 C 72.16 148.87 69.78 145.89 66.92 143.47 C 65.29 143.07 63.64 142.76 61.99 142.43 C 61.96 134.72 65.26 127.49 65.16 119.77 C 65.59 114.38 65.22 108.94 64.11 103.64 C 63.98 103.04 63.73 101.85 63.61 101.25 C 60.98 101.29 58.36 101.32 55.74 101.33 C 57.96 93.95 61.99 87.27 63.96 79.80 C 70.15 66.76 76.42 53.60 85.01 41.92 C 89.61 38.37 94.34 34.97 99.21 31.78 Z" />
</g>
<g id="#640d0eff">
<path fill="#640d0e" opacity="1.00" d=" M 74.37 52.36 C 76.82 47.90 80.93 44.79 85.01 41.92 C 76.42 53.60 70.15 66.76 63.96 79.80 C 58.09 90.04 53.85 101.08 48.80 111.73 C 46.00 117.53 43.49 123.50 41.95 129.78 C 42.69 129.79 44.17 129.83 44.91 129.84 C 48.39 123.17 51.00 116.10 54.30 109.35 C 55.67 106.90 56.92 104.06 59.46 102.62 C 61.05 102.76 62.57 103.25 64.11 103.64 C 65.22 108.94 65.59 114.38 65.16 119.77 C 63.00 129.53 59.02 139.04 59.12 149.16 C 61.28 146.73 63.86 144.66 66.92 143.47 C 69.78 145.89 72.16 148.87 73.75 152.28 C 76.72 159.61 74.83 167.73 76.86 175.18 C 79.56 177.30 83.00 178.24 85.64 180.45 C 86.61 184.01 86.32 187.74 86.50 191.40 C 89.07 193.05 92.59 194.34 93.25 197.72 C 96.01 208.97 96.60 220.61 98.26 232.05 C 94.52 238.11 85.58 236.04 81.26 231.75 C 84.71 233.01 88.22 234.42 91.93 234.62 C 94.46 234.74 97.01 232.55 96.86 229.94 C 96.80 225.20 94.99 220.72 93.93 216.16 C 93.12 210.90 92.89 205.52 91.42 200.38 C 90.62 196.71 86.73 195.22 84.63 192.44 C 83.58 189.60 83.64 186.50 83.41 183.52 L 83.41 182.65 C 83.41 182.38 83.41 181.84 83.41 181.56 C 80.57 180.32 76.46 180.28 75.08 177.04 C 72.66 171.10 74.00 164.58 73.39 158.37 C 73.05 153.68 69.44 149.68 65.09 148.20 C 61.73 151.23 60.84 155.97 58.75 159.82 C 57.59 157.03 56.48 154.11 56.65 151.03 C 56.90 141.96 60.21 133.36 61.56 124.44 C 62.86 118.38 62.55 112.14 61.64 106.04 C 60.65 106.16 59.66 106.27 58.67 106.39 C 57.18 110.70 55.18 114.82 52.75 118.68 C 50.36 122.48 48.85 126.75 46.51 130.58 C 45.36 132.53 42.86 132.79 40.95 133.60 C 40.25 129.71 39.86 125.49 42.02 121.95 C 44.70 117.15 46.86 112.06 47.63 106.58 C 50.60 99.46 54.47 92.78 57.76 85.81 C 63.06 74.55 68.22 63.20 74.37 52.36 Z" />
</g>
<g id="#ccb497ff">
<path fill="#ccb497" opacity="1.00" d=" M 104.75 46.54 C 107.31 45.12 109.93 43.27 113.01 43.47 C 116.62 43.38 119.53 45.82 122.34 47.75 C 123.09 47.40 123.83 47.05 124.58 46.70 C 127.68 47.25 130.75 47.91 133.85 48.47 C 133.72 48.92 133.46 49.80 133.33 50.25 C 131.19 50.67 129.05 51.09 126.91 51.52 C 129.87 52.36 132.83 53.20 135.80 54.02 C 134.84 55.06 133.88 56.10 132.92 57.14 C 137.09 57.72 141.24 58.42 145.38 59.22 C 144.53 61.18 143.64 63.13 142.68 65.04 C 142.94 65.34 143.46 65.95 143.72 66.25 C 135.25 68.64 126.33 68.65 117.60 68.32 C 110.13 68.00 102.43 64.58 95.15 67.62 C 100.82 71.39 107.60 73.26 112.71 77.90 C 112.51 79.15 112.30 80.40 112.07 81.65 C 111.76 81.76 111.13 81.99 110.82 82.10 C 109.46 80.16 108.41 77.44 105.79 76.97 C 99.90 75.65 94.35 72.76 90.37 68.16 C 86.50 69.76 83.01 72.10 79.89 74.86 C 81.37 70.65 82.90 66.31 85.95 62.93 C 88.61 59.90 90.69 56.40 93.49 53.48 C 96.59 50.23 100.94 48.75 104.75 46.54 Z" />
</g>
<g id="#ac8f72ff">
<path fill="#ac8f72" opacity="1.00" d=" M 124.58 46.70 C 126.92 45.54 129.30 44.10 132.01 44.19 C 137.60 43.81 141.64 48.23 145.93 51.08 C 151.49 54.94 154.50 61.16 158.62 66.33 C 160.96 69.40 162.11 73.14 163.20 76.80 C 161.20 74.96 159.32 72.92 156.98 71.50 C 148.54 72.54 141.02 76.86 133.50 80.56 C 133.46 81.53 133.42 82.51 133.37 83.49 C 132.67 82.51 131.97 81.50 131.56 80.36 C 137.15 73.01 147.19 72.58 154.50 67.71 C 151.06 66.50 147.38 65.32 143.72 66.25 C 143.46 65.95 142.94 65.34 142.68 65.04 C 143.64 63.13 144.53 61.18 145.38 59.22 C 141.24 58.42 137.09 57.72 132.92 57.14 C 133.88 56.10 134.84 55.06 135.80 54.02 C 132.83 53.20 129.87 52.36 126.91 51.52 C 129.05 51.09 131.19 50.67 133.33 50.25 C 133.46 49.80 133.72 48.92 133.85 48.47 C 130.75 47.91 127.68 47.25 124.58 46.70 Z" />
</g>
<g id="#903338ff">
<path fill="#903338" opacity="1.00" d=" M 165.55 48.38 C 168.05 50.12 171.00 51.01 174.01 50.75 C 189.23 68.85 195.81 92.51 198.16 115.65 C 199.76 130.48 201.60 145.53 199.47 160.41 C 198.27 169.22 197.38 178.10 197.65 187.00 C 197.49 191.48 198.56 196.71 194.99 200.20 C 197.77 187.95 195.62 175.31 197.74 163.00 C 198.90 155.39 198.79 147.68 198.72 140.00 C 198.75 128.43 196.45 117.04 195.16 105.58 C 194.66 100.45 193.06 95.52 191.01 90.81 C 188.30 82.93 186.35 74.76 182.69 67.23 C 181.54 65.49 180.12 63.94 178.60 62.51 C 177.57 73.43 179.44 84.55 176.83 95.32 C 176.10 85.76 177.82 76.19 176.74 66.65 C 176.51 59.01 170.30 53.64 165.55 48.38 Z" />
</g>
<g id="#be2327ff">
<path fill="#be2327" opacity="1.00" d=" M 178.60 62.51 C 180.12 63.94 181.54 65.49 182.69 67.23 C 181.90 69.24 181.07 71.38 181.50 73.58 C 183.49 86.48 188.09 98.91 188.93 111.99 C 186.84 109.91 184.75 107.83 182.61 105.80 C 182.62 110.07 183.27 114.32 184.63 118.37 C 187.34 126.60 190.12 134.90 194.57 142.39 C 195.75 125.13 192.94 107.92 191.01 90.81 C 193.06 95.52 194.66 100.45 195.16 105.58 C 196.45 117.04 198.75 128.43 198.72 140.00 C 198.79 147.68 198.90 155.39 197.74 163.00 C 195.62 175.31 197.77 187.95 194.99 200.20 C 193.68 204.07 190.50 206.88 187.98 209.98 C 183.77 215.13 178.24 218.94 172.57 222.30 C 162.94 227.61 153.63 234.36 142.53 236.14 C 143.05 233.86 143.53 231.58 144.21 229.36 C 148.54 223.86 152.06 217.81 156.03 212.07 C 162.61 205.27 166.88 196.51 174.29 190.47 C 176.14 195.58 178.07 200.66 180.29 205.63 C 182.13 204.44 184.56 203.63 185.41 201.41 C 187.06 197.40 187.34 193.00 187.61 188.72 C 188.19 172.59 187.79 156.31 184.63 140.43 C 182.98 132.48 180.70 124.68 178.44 116.88 C 178.33 116.36 178.12 115.30 178.01 114.78 C 176.71 108.38 176.27 101.83 176.83 95.32 C 179.44 84.55 177.57 73.43 178.60 62.51 Z" />
</g>
<g id="#d2bba0ff">
<path fill="#d2bba0" opacity="1.00" d=" M 143.72 66.25 C 147.38 65.32 151.06 66.50 154.50 67.71 C 147.19 72.58 137.15 73.01 131.56 80.36 C 131.97 81.50 132.67 82.51 133.37 83.49 C 136.06 83.68 139.13 84.23 141.38 82.35 C 145.58 79.59 149.30 74.71 154.87 75.36 C 160.07 75.73 162.31 81.34 164.00 85.51 C 164.10 86.16 164.31 87.47 164.42 88.12 C 162.99 88.85 161.54 89.56 159.97 89.96 C 155.76 89.13 152.80 85.63 148.93 84.00 C 145.87 84.84 143.35 86.87 140.71 88.55 C 137.91 87.95 135.11 87.20 132.24 87.12 C 129.41 89.90 129.13 94.27 128.74 98.01 C 128.26 101.72 130.33 104.95 131.99 108.06 C 132.12 108.49 132.39 109.35 132.52 109.78 C 132.88 110.99 133.19 112.22 133.53 113.43 C 130.87 118.86 131.82 125.31 134.49 130.54 C 135.82 133.31 138.67 134.77 141.17 136.30 C 141.56 134.61 141.94 132.92 142.33 131.24 C 144.28 130.87 146.22 130.51 148.17 130.15 C 148.48 129.56 149.11 128.39 149.43 127.80 C 149.97 127.99 151.05 128.36 151.59 128.54 C 151.93 129.17 152.60 130.42 152.94 131.05 C 153.03 129.94 153.10 128.84 153.17 127.73 C 153.67 134.88 156.29 141.80 155.59 149.05 C 155.30 152.59 155.76 157.97 151.64 159.39 C 147.68 159.18 144.80 155.75 141.51 153.86 C 142.37 150.68 143.69 147.42 143.17 144.07 C 142.47 141.64 140.41 139.96 138.78 138.14 C 133.64 141.15 128.05 143.84 121.99 144.08 C 118.25 144.25 114.96 142.19 111.76 140.55 C 109.17 141.97 106.60 143.40 104.04 144.86 C 104.66 142.75 105.28 140.65 105.89 138.53 C 99.66 137.86 94.30 141.49 88.61 143.33 C 88.89 139.39 89.63 135.51 90.50 131.68 C 93.05 128.13 96.86 125.89 100.15 123.13 C 102.53 121.17 103.83 118.30 105.16 115.61 C 100.20 117.11 95.46 119.21 90.56 120.88 C 90.16 119.91 89.75 118.96 89.33 118.01 C 89.19 117.08 89.08 116.14 88.97 115.21 C 87.68 114.81 86.38 114.41 85.08 114.03 C 84.70 111.26 84.43 108.48 83.98 105.72 C 84.58 107.40 85.26 109.05 85.90 110.72 C 86.26 110.57 86.98 110.27 87.34 110.11 C 89.51 111.67 91.49 113.64 94.09 114.44 C 96.85 114.48 98.47 111.89 100.17 110.13 C 100.14 110.90 100.09 112.44 100.06 113.21 C 104.45 111.86 108.77 110.28 112.96 108.38 C 113.57 112.89 114.60 117.65 112.88 122.05 C 111.37 126.66 108.01 130.81 108.15 135.85 C 111.30 136.53 113.43 133.29 115.26 131.23 C 118.53 127.51 117.76 122.34 117.68 117.79 C 117.35 109.85 118.81 101.93 118.11 93.99 C 117.93 91.46 116.79 88.69 114.28 87.68 C 110.66 86.40 106.75 86.40 103.00 85.75 C 98.94 85.26 94.62 84.07 90.69 85.75 C 86.74 87.40 83.21 89.86 79.52 91.99 C 79.53 89.60 79.58 87.20 79.77 84.81 C 80.93 80.86 82.89 76.72 86.56 74.53 C 92.80 73.22 98.10 77.71 102.71 81.23 C 104.93 83.32 108.14 82.55 110.82 82.10 C 111.13 81.99 111.76 81.76 112.07 81.65 C 112.30 80.40 112.51 79.15 112.71 77.90 C 107.60 73.26 100.82 71.39 95.15 67.62 C 102.43 64.58 110.13 68.00 117.60 68.32 C 126.33 68.65 135.25 68.64 143.72 66.25 M 120.90 99.64 C 119.47 107.36 118.57 115.47 120.46 123.20 C 120.64 127.63 116.73 131.28 117.13 135.78 C 117.37 138.06 119.90 138.77 121.74 139.30 C 124.10 139.93 127.55 140.44 128.65 137.56 C 129.54 133.29 126.29 129.63 125.38 125.62 C 123.68 117.99 125.90 110.08 124.52 102.43 C 123.45 101.34 122.14 100.52 120.90 99.64 Z" />
</g>
<g id="#2c080aff">
<path fill="#2c080a" opacity="1.00" d=" M 175.25 97.53 C 176.47 87.26 174.46 76.82 176.74 66.65 C 177.82 76.19 176.10 85.76 176.83 95.32 C 176.27 101.83 176.71 108.38 178.01 114.78 C 177.47 112.69 176.78 110.65 176.10 108.61 C 174.99 124.94 179.32 140.91 180.65 157.09 C 181.19 165.40 183.38 173.76 181.71 182.09 C 178.10 182.46 174.02 182.50 171.25 185.22 C 167.04 189.17 164.16 194.25 160.96 199.00 C 155.52 207.08 151.47 215.98 145.91 223.98 C 146.86 221.06 147.88 218.12 149.45 215.46 C 156.62 204.32 160.61 191.35 168.87 180.87 C 172.43 175.99 177.36 171.58 178.42 165.36 C 180.07 153.03 176.46 140.92 175.29 128.73 C 174.66 118.35 174.01 107.89 175.25 97.53 Z" />
</g>
<g id="#e4534aff">
<path fill="#e4534a" opacity="1.00" d=" M 181.50 73.58 C 181.07 71.38 181.90 69.24 182.69 67.23 C 186.35 74.76 188.30 82.93 191.01 90.81 C 192.94 107.92 195.75 125.13 194.57 142.39 C 190.12 134.90 187.34 126.60 184.63 118.37 C 183.27 114.32 182.62 110.07 182.61 105.80 C 184.75 107.83 186.84 109.91 188.93 111.99 C 188.09 98.91 183.49 86.48 181.50 73.58 Z" />
</g>
<g id="#9a7e6cff">
<path fill="#9a7e6c" opacity="1.00" d=" M 74.55 90.01 C 74.42 85.57 76.31 81.43 78.33 77.59 C 77.04 82.75 76.08 88.13 77.91 93.29 C 78.47 90.45 79.05 87.62 79.77 84.81 C 79.58 87.20 79.53 89.60 79.52 91.99 C 79.80 99.13 79.72 106.64 75.85 112.93 L 74.88 112.98 C 75.38 110.00 75.77 107.00 76.18 104.01 C 76.87 99.25 74.51 94.74 74.55 90.01 Z" />
</g>
<g id="#340101ff">
<path fill="#340101" opacity="1.00" d=" M 48.80 111.73 C 53.85 101.08 58.09 90.04 63.96 79.80 C 61.99 87.27 57.96 93.95 55.74 101.33 C 58.36 101.32 60.98 101.29 63.61 101.25 C 63.73 101.85 63.98 103.04 64.11 103.64 C 62.57 103.25 61.05 102.76 59.46 102.62 C 56.92 104.06 55.67 106.90 54.30 109.35 C 51.00 116.10 48.39 123.17 44.91 129.84 C 44.17 129.83 42.69 129.79 41.95 129.78 C 43.49 123.50 46.00 117.53 48.80 111.73 Z" />
</g>
<g id="#615451ff">
<path fill="#615451" opacity="1.00" d=" M 165.58 80.63 C 167.34 84.21 168.77 88.06 168.74 92.10 C 168.90 96.91 166.99 101.58 167.57 106.41 C 167.90 109.70 168.30 112.98 168.83 116.24 C 167.27 111.51 165.68 106.50 166.67 101.47 C 167.50 97.31 167.79 93.07 167.24 88.85 C 166.55 90.39 165.87 91.92 165.19 93.46 C 164.94 91.68 164.70 89.90 164.42 88.12 C 164.31 87.47 164.10 86.16 164.00 85.51 C 164.48 83.87 165.03 82.25 165.58 80.63 Z" />
</g>
<g id="#bfa280ff">
<path fill="#bfa280" opacity="1.00" d=" M 140.71 88.55 C 143.35 86.87 145.87 84.84 148.93 84.00 C 152.80 85.63 155.76 89.13 159.97 89.96 C 161.54 89.56 162.99 88.85 164.42 88.12 C 164.13 90.62 163.91 93.13 163.37 95.60 C 161.61 94.95 159.84 94.34 158.21 93.43 C 155.01 91.86 151.77 89.81 148.04 90.10 C 139.07 90.45 130.34 98.63 131.99 108.06 C 130.33 104.95 128.26 101.72 128.74 98.01 C 129.13 94.27 129.41 89.90 132.24 87.12 C 135.11 87.20 137.91 87.95 140.71 88.55 Z" />
</g>
<g id="#c0a686ff">
<path fill="#c0a686" opacity="1.00" d=" M 90.69 85.75 C 94.62 84.07 98.94 85.26 103.00 85.75 C 106.75 86.40 110.66 86.40 114.28 87.68 C 116.79 88.69 117.93 91.46 118.11 93.99 C 118.81 101.93 117.35 109.85 117.68 117.79 C 117.76 122.34 118.53 127.51 115.26 131.23 C 113.43 133.29 111.30 136.53 108.15 135.85 C 108.01 130.81 111.37 126.66 112.88 122.05 C 114.60 117.65 113.57 112.89 112.96 108.38 C 108.77 110.28 104.45 111.86 100.06 113.21 C 100.09 112.44 100.14 110.90 100.17 110.13 C 100.24 108.06 100.27 106.00 100.27 103.93 C 100.63 106.16 100.83 108.41 101.05 110.66 C 103.32 109.59 105.61 108.54 107.90 107.50 C 106.05 104.34 104.10 101.23 101.93 98.28 C 105.00 99.59 107.60 101.70 110.10 103.86 C 110.44 103.35 111.10 102.31 111.43 101.79 C 112.10 102.60 112.77 103.40 113.43 104.21 C 113.99 99.45 114.28 93.35 109.62 90.46 C 104.86 88.11 99.31 88.01 94.11 88.29 C 87.45 88.53 81.46 95.75 83.37 102.34 C 83.42 102.70 83.53 103.42 83.58 103.77 C 81.43 107.60 80.51 111.88 79.55 116.12 C 81.39 115.43 83.24 114.73 85.08 114.03 C 86.38 114.41 87.68 114.81 88.97 115.21 C 89.08 116.14 89.19 117.08 89.33 118.01 C 88.31 117.25 87.27 116.53 86.23 115.81 C 86.34 116.48 86.56 117.83 86.67 118.50 C 86.85 120.23 86.97 121.96 87.09 123.70 C 85.35 123.28 83.61 122.87 81.88 122.39 C 80.38 121.94 78.90 121.43 77.42 120.93 C 78.14 120.02 78.84 119.09 79.56 118.18 C 78.84 117.46 78.11 116.74 77.39 116.03 C 77.77 114.97 78.15 113.92 78.53 112.86 C 77.86 112.88 76.52 112.91 75.85 112.93 C 79.72 106.64 79.80 99.13 79.52 91.99 C 83.21 89.86 86.74 87.40 90.69 85.75 Z" />
</g>
<g id="#987b5fff">
<path fill="#987b5f" opacity="1.00" d=" M 83.37 102.34 C 81.46 95.75 87.45 88.53 94.11 88.29 C 99.31 88.01 104.86 88.11 109.62 90.46 C 114.28 93.35 113.99 99.45 113.43 104.21 C 112.77 103.40 112.10 102.60 111.43 101.79 C 106.68 95.14 98.11 89.96 89.81 92.82 C 86.03 94.44 84.93 98.92 83.37 102.34 Z" />
</g>
<g id="#b2997cff">
<path fill="#b2997c" opacity="1.00" d=" M 164.42 88.12 C 164.70 89.90 164.94 91.68 165.19 93.46 C 165.87 91.92 166.55 90.39 167.24 88.85 C 167.79 93.07 167.50 97.31 166.67 101.47 C 165.68 106.50 167.27 111.51 168.83 116.24 C 169.48 118.39 170.17 120.52 170.75 122.68 C 169.74 124.62 168.71 126.56 167.85 128.58 C 168.20 123.87 167.66 119.15 167.00 114.49 C 165.42 115.07 163.76 115.50 162.33 116.42 C 161.38 119.21 162.98 122.31 162.05 125.10 C 160.71 126.64 158.88 127.65 157.22 128.81 C 156.90 129.96 156.61 131.12 156.33 132.28 C 154.92 127.16 156.82 122.07 157.00 116.94 C 157.75 115.78 158.43 114.59 159.08 113.37 C 160.12 109.75 160.70 105.65 158.74 102.21 C 156.81 98.25 151.97 97.59 148.18 96.46 C 143.30 96.48 139.53 99.96 135.40 102.04 C 136.95 99.21 138.64 96.18 141.62 94.61 C 146.62 91.57 152.75 92.42 158.21 93.43 C 159.84 94.34 161.61 94.95 163.37 95.60 C 163.91 93.13 164.13 90.62 164.42 88.12 Z" />
</g>
<g id="#8c6f53ff">
<path fill="#8c6f53" opacity="1.00" d=" M 131.99 108.06 C 130.34 98.63 139.07 90.45 148.04 90.10 C 151.77 89.81 155.01 91.86 158.21 93.43 C 152.75 92.42 146.62 91.57 141.62 94.61 C 138.64 96.18 136.95 99.21 135.40 102.04 C 139.53 99.96 143.30 96.48 148.18 96.46 C 144.81 98.36 141.41 100.32 138.62 103.05 C 136.59 105.29 134.65 107.62 132.52 109.78 C 132.39 109.35 132.12 108.49 131.99 108.06 Z" />
</g>
<g id="#c7b29dff">
<path fill="#c7b29d" opacity="1.00" d=" M 89.81 92.82 C 98.11 89.96 106.68 95.14 111.43 101.79 C 111.10 102.31 110.44 103.35 110.10 103.86 C 107.60 101.70 105.00 99.59 101.93 98.28 C 98.55 96.79 94.83 95.67 91.10 96.05 C 87.20 96.72 85.61 100.88 83.58 103.77 C 83.53 103.42 83.42 102.70 83.37 102.34 C 84.93 98.92 86.03 94.44 89.81 92.82 Z" />
</g>
<g id="#e7ddd2ff">
<path fill="#e7ddd2" opacity="1.00" d=" M 83.58 103.77 C 85.61 100.88 87.20 96.72 91.10 96.05 C 94.83 95.67 98.55 96.79 101.93 98.28 C 104.10 101.23 106.05 104.34 107.90 107.50 C 105.61 108.54 103.32 109.59 101.05 110.66 C 100.83 108.41 100.63 106.16 100.27 103.93 C 98.69 102.30 97.12 100.43 94.89 99.71 C 91.99 99.26 89.04 101.07 87.86 103.69 C 87.28 105.78 87.51 107.98 87.34 110.11 C 86.98 110.27 86.26 110.57 85.90 110.72 C 85.26 109.05 84.58 107.40 83.98 105.72 C 83.88 105.23 83.68 104.26 83.58 103.77 Z" />
</g>
<g id="#e7dbceff">
<path fill="#e7dbce" opacity="1.00" d=" M 138.62 103.05 C 141.41 100.32 144.81 98.36 148.18 96.46 C 151.97 97.59 156.81 98.25 158.74 102.21 C 160.70 105.65 160.12 109.75 159.08 113.37 C 157.38 113.75 155.67 114.13 153.94 114.41 C 156.10 111.49 157.82 107.48 155.96 104.01 C 153.21 99.27 145.29 100.76 144.21 106.12 C 143.52 107.79 142.91 109.48 142.27 111.17 C 139.40 109.39 138.07 106.38 138.62 103.05 Z" />
</g>
<g id="#050404ff">
<path fill="#050404" opacity="1.00" d=" M 87.86 103.69 C 89.04 101.07 91.99 99.26 94.89 99.71 C 97.12 100.43 98.69 102.30 100.27 103.93 C 100.27 106.00 100.24 108.06 100.17 110.13 C 98.47 111.89 96.85 114.48 94.09 114.44 C 91.49 113.64 89.51 111.67 87.34 110.11 C 87.51 107.98 87.28 105.78 87.86 103.69 Z" />
</g>
<g id="#ddc9b2ff">
<path fill="#ddc9b2" opacity="1.00" d=" M 120.90 99.64 C 122.14 100.52 123.45 101.34 124.52 102.43 C 125.90 110.08 123.68 117.99 125.38 125.62 C 126.29 129.63 129.54 133.29 128.65 137.56 C 127.55 140.44 124.10 139.93 121.74 139.30 C 119.90 138.77 117.37 138.06 117.13 135.78 C 116.73 131.28 120.64 127.63 120.46 123.20 C 118.57 115.47 119.47 107.36 120.90 99.64 Z" />
</g>
<g id="#050505ff">
<path fill="#050505" opacity="1.00" d=" M 144.21 106.12 C 145.29 100.76 153.21 99.27 155.96 104.01 C 157.82 107.48 156.10 111.49 153.94 114.41 C 151.21 114.73 148.45 114.66 145.71 114.52 C 144.97 111.77 144.24 108.99 144.21 106.12 Z" />
</g>
<g id="#cdb7a0ff">
<path fill="#cdb7a0" opacity="1.00" d=" M 132.52 109.78 C 134.65 107.62 136.59 105.29 138.62 103.05 C 138.07 106.38 139.40 109.39 142.27 111.17 C 142.91 109.48 143.52 107.79 144.21 106.12 C 144.24 108.99 144.97 111.77 145.71 114.52 C 148.45 114.66 151.21 114.73 153.94 114.41 C 155.67 114.13 157.38 113.75 159.08 113.37 C 158.43 114.59 157.75 115.78 157.00 116.94 C 155.67 118.89 154.32 120.84 153.27 122.96 C 152.74 123.91 152.21 124.86 151.69 125.82 C 145.25 123.10 140.19 118.21 135.80 112.90 C 135.45 113.86 135.09 114.82 134.74 115.78 C 134.44 115.20 133.84 114.02 133.53 113.43 C 133.19 112.22 132.88 110.99 132.52 109.78 Z" />
</g>
<g id="#9b846dff">
<path fill="#9b846d" opacity="1.00" d=" M 79.55 116.12 C 80.51 111.88 81.43 107.60 83.58 103.77 C 83.68 104.26 83.88 105.23 83.98 105.72 C 84.43 108.48 84.70 111.26 85.08 114.03 C 83.24 114.73 81.39 115.43 79.55 116.12 Z" />
</g>
<g id="#830507ff">
<path fill="#830507" opacity="1.00" d=" M 58.67 106.39 C 59.66 106.27 60.65 106.16 61.64 106.04 C 62.55 112.14 62.86 118.38 61.56 124.44 C 60.21 133.36 56.90 141.96 56.65 151.03 C 56.48 154.11 57.59 157.03 58.75 159.82 C 60.84 155.97 61.73 151.23 65.09 148.20 C 69.44 149.68 73.05 153.68 73.39 158.37 C 74.00 164.58 72.66 171.10 75.08 177.04 C 76.46 180.28 80.57 180.32 83.41 181.56 C 83.41 181.84 83.41 182.38 83.41 182.65 C 79.52 186.00 76.04 189.93 71.45 192.36 C 69.30 181.07 73.72 169.84 72.36 158.53 C 72.08 156.01 70.29 154.10 68.92 152.10 C 66.79 155.44 65.37 159.24 65.35 163.24 C 65.06 173.00 64.84 182.78 63.51 192.47 C 61.42 191.75 58.59 191.75 57.60 189.39 C 55.34 185.20 54.83 180.37 54.18 175.73 C 52.58 163.85 53.69 151.75 56.18 140.08 C 58.14 132.09 62.22 123.39 58.01 115.38 C 52.32 121.94 49.79 130.40 46.14 138.12 C 44.25 141.94 42.92 146.41 39.50 149.18 C 38.11 149.26 36.71 149.29 35.32 149.28 C 35.18 144.18 34.88 139.01 35.94 133.98 C 38.27 124.28 42.95 115.32 47.63 106.58 C 46.86 112.06 44.70 117.15 42.02 121.95 C 39.86 125.49 40.25 129.71 40.95 133.60 C 42.86 132.79 45.36 132.53 46.51 130.58 C 48.85 126.75 50.36 122.48 52.75 118.68 C 55.18 114.82 57.18 110.70 58.67 106.39 Z" />
</g>
<g id="#640b0cff">
<path fill="#640b0c" opacity="1.00" d=" M 176.10 108.61 C 176.78 110.65 177.47 112.69 178.01 114.78 C 178.12 115.30 178.33 116.36 178.44 116.88 C 178.53 119.98 178.45 123.08 178.80 126.17 C 180.95 143.10 184.42 159.92 185.00 177.02 C 184.91 179.96 185.11 183.45 182.87 185.70 C 179.47 187.06 174.92 185.06 172.32 188.32 C 165.77 195.39 160.27 203.42 156.03 212.07 C 152.06 217.81 148.54 223.86 144.21 229.36 C 144.75 227.56 145.30 225.76 145.91 223.98 C 151.47 215.98 155.52 207.08 160.96 199.00 C 164.16 194.25 167.04 189.17 171.25 185.22 C 174.02 182.50 178.10 182.46 181.71 182.09 C 183.38 173.76 181.19 165.40 180.65 157.09 C 179.32 140.91 174.99 124.94 176.10 108.61 Z" />
</g>
<g id="#d2ba9dff">
<path fill="#d2ba9d" opacity="1.00" d=" M 74.88 112.98 L 75.85 112.93 C 76.52 112.91 77.86 112.88 78.53 112.86 C 78.15 113.92 77.77 114.97 77.39 116.03 C 78.11 116.74 78.84 117.46 79.56 118.18 C 78.84 119.09 78.14 120.02 77.42 120.93 C 78.90 121.43 80.38 121.94 81.88 122.39 C 84.61 125.78 87.90 129.38 87.34 134.10 C 86.06 138.88 85.14 143.76 85.10 148.73 C 84.59 150.27 84.00 151.79 83.49 153.33 C 83.45 150.29 83.29 147.24 83.10 144.20 C 79.93 143.13 76.27 142.59 73.79 140.17 C 71.36 135.18 71.76 129.34 71.90 123.93 C 72.67 120.22 74.04 116.67 74.88 112.98 Z" />
</g>
<g id="#a38b71ff">
<path fill="#a38b71" opacity="1.00" d=" M 134.74 115.78 C 135.09 114.82 135.45 113.86 135.80 112.90 C 140.19 118.21 145.25 123.10 151.69 125.82 C 152.21 124.86 152.74 123.91 153.27 122.96 C 153.21 124.55 153.20 126.14 153.17 127.73 C 153.10 128.84 153.03 129.94 152.94 131.05 C 152.60 130.42 151.93 129.17 151.59 128.54 C 151.05 128.36 149.97 127.99 149.43 127.80 C 142.99 126.16 138.09 121.32 134.74 115.78 Z" />
</g>
<g id="#e4d2bfff">
<path fill="#e4d2bf" opacity="1.00" d=" M 134.49 130.54 C 131.82 125.31 130.87 118.86 133.53 113.43 C 133.84 114.02 134.44 115.20 134.74 115.78 C 138.09 121.32 142.99 126.16 149.43 127.80 C 149.11 128.39 148.48 129.56 148.17 130.15 C 146.22 130.51 144.28 130.87 142.33 131.24 C 141.94 132.92 141.56 134.61 141.17 136.30 C 138.67 134.77 135.82 133.31 134.49 130.54 Z" />
</g>
<g id="#d1b99bff">
<path fill="#d1b99b" opacity="1.00" d=" M 162.33 116.42 C 163.76 115.50 165.42 115.07 167.00 114.49 C 167.66 119.15 168.20 123.87 167.85 128.58 C 166.08 138.40 164.37 148.57 159.20 157.28 C 159.00 155.80 158.83 154.32 158.68 152.83 C 159.42 145.85 157.81 139.04 156.33 132.28 C 156.61 131.12 156.90 129.96 157.22 128.81 C 158.88 127.65 160.71 126.64 162.05 125.10 C 162.98 122.31 161.38 119.21 162.33 116.42 Z" />
</g>
<g id="#be2326ff">
<path fill="#be2326" opacity="1.00" d=" M 46.14 138.12 C 49.79 130.40 52.32 121.94 58.01 115.38 C 62.22 123.39 58.14 132.09 56.18 140.08 C 53.69 151.75 52.58 163.85 54.18 175.73 C 54.83 180.37 55.34 185.20 57.60 189.39 C 58.59 191.75 61.42 191.75 63.51 192.47 C 64.84 182.78 65.06 173.00 65.35 163.24 C 65.37 159.24 66.79 155.44 68.92 152.10 C 70.29 154.10 72.08 156.01 72.36 158.53 C 73.72 169.84 69.30 181.07 71.45 192.36 C 76.04 189.93 79.52 186.00 83.41 182.65 L 83.41 183.52 C 82.06 187.37 79.49 190.82 79.01 194.94 C 78.69 196.26 79.19 197.09 80.51 197.43 C 83.38 198.48 86.50 198.44 89.51 198.72 C 90.73 204.59 92.20 210.41 93.93 216.16 C 94.99 220.72 96.80 225.20 96.86 229.94 C 97.01 232.55 94.46 234.74 91.93 234.62 C 88.22 234.42 84.71 233.01 81.26 231.75 C 76.33 228.46 71.20 225.27 67.24 220.78 C 62.68 215.62 58.06 210.38 54.96 204.18 C 51.42 197.23 48.56 189.96 45.23 182.91 C 43.36 179.07 42.35 174.92 41.13 170.86 C 42.83 174.07 45.16 176.92 47.81 179.40 C 47.15 173.25 44.86 167.20 45.68 160.96 C 46.08 157.62 46.87 154.34 47.63 151.06 C 47.15 150.71 46.20 150.02 45.72 149.68 C 43.72 152.41 41.46 155.09 40.50 158.40 C 39.66 161.53 39.72 164.81 39.91 168.02 C 36.70 162.29 35.07 155.86 35.32 149.28 C 36.71 149.29 38.11 149.26 39.50 149.18 C 42.92 146.41 44.25 141.94 46.14 138.12 M 55.97 197.81 C 56.55 201.18 57.47 204.61 59.69 207.31 C 65.65 214.94 72.49 222.30 81.32 226.61 C 84.34 228.18 87.83 227.92 91.12 227.98 C 92.00 220.70 90.74 212.08 85.07 206.96 C 83.00 205.63 79.36 202.77 77.35 205.30 C 77.46 208.72 79.41 212.29 77.48 215.53 C 70.92 211.88 67.04 205.31 61.79 200.22 C 60.29 198.55 58.02 198.29 55.97 197.81 Z" />
</g>
<g id="#1e0e03ff">
<path fill="#1e0e03" opacity="1.00" d=" M 86.23 115.81 C 87.27 116.53 88.31 117.25 89.33 118.01 C 89.75 118.96 90.16 119.91 90.56 120.88 C 91.55 124.41 91.30 128.13 90.50 131.68 C 89.63 135.51 88.89 139.39 88.61 143.33 C 88.23 148.66 89.08 154.00 90.91 159.01 C 90.25 159.75 89.59 160.50 88.92 161.24 C 86.45 157.53 85.48 153.10 85.10 148.73 C 85.14 143.76 86.06 138.88 87.34 134.10 C 88.90 128.96 88.91 123.44 86.67 118.50 C 86.56 117.83 86.34 116.48 86.23 115.81 Z" />
</g>
<g id="#b79d7dff">
<path fill="#b79d7d" opacity="1.00" d=" M 90.56 120.88 C 95.46 119.21 100.20 117.11 105.16 115.61 C 103.83 118.30 102.53 121.17 100.15 123.13 C 96.86 125.89 93.05 128.13 90.50 131.68 C 91.30 128.13 91.55 124.41 90.56 120.88 Z" />
</g>
<g id="#110503ff">
<path fill="#110503" opacity="1.00" d=" M 157.00 116.94 C 156.82 122.07 154.92 127.16 156.33 132.28 C 157.81 139.04 159.42 145.85 158.68 152.83 C 157.85 156.01 156.93 159.27 154.99 161.97 C 153.10 165.08 148.90 163.53 146.02 163.05 C 139.70 158.99 132.65 155.76 125.02 155.51 C 117.12 154.92 109.13 156.62 102.21 160.47 C 98.62 162.55 94.68 164.04 90.47 163.75 C 89.95 162.91 89.43 162.08 88.92 161.24 C 89.59 160.50 90.25 159.75 90.91 159.01 C 97.59 158.51 102.38 153.34 108.22 150.70 C 108.09 148.35 106.49 145.14 109.11 143.67 C 113.65 142.94 115.75 148.87 119.95 149.60 C 122.98 149.89 126.48 150.15 128.89 147.92 C 131.43 145.73 134.28 143.80 137.80 143.92 C 138.16 146.51 138.35 149.13 138.42 151.76 C 139.44 152.46 140.48 153.16 141.51 153.86 C 144.80 155.75 147.68 159.18 151.64 159.39 C 155.76 157.97 155.30 152.59 155.59 149.05 C 156.29 141.80 153.67 134.88 153.17 127.73 C 153.20 126.14 153.21 124.55 153.27 122.96 C 154.32 120.84 155.67 118.89 157.00 116.94 Z" />
</g>
<g id="#840506ff">
<path fill="#840506" opacity="1.00" d=" M 178.80 126.17 C 178.45 123.08 178.53 119.98 178.44 116.88 C 180.70 124.68 182.98 132.48 184.63 140.43 C 187.79 156.31 188.19 172.59 187.61 188.72 C 187.34 193.00 187.06 197.40 185.41 201.41 C 184.56 203.63 182.13 204.44 180.29 205.63 C 178.07 200.66 176.14 195.58 174.29 190.47 C 166.88 196.51 162.61 205.27 156.03 212.07 C 160.27 203.42 165.77 195.39 172.32 188.32 C 174.92 185.06 179.47 187.06 182.87 185.70 C 185.11 183.45 184.91 179.96 185.00 177.02 C 184.42 159.92 180.95 143.10 178.80 126.17 Z" />
</g>
<g id="#99856eff">
<path fill="#99856e" opacity="1.00" d=" M 86.67 118.50 C 88.91 123.44 88.90 128.96 87.34 134.10 C 87.90 129.38 84.61 125.78 81.88 122.39 C 83.61 122.87 85.35 123.28 87.09 123.70 C 86.97 121.96 86.85 120.23 86.67 118.50 Z" />
</g>
<g id="#380203ff">
<path fill="#380203" opacity="1.00" d=" M 59.12 149.16 C 59.02 139.04 63.00 129.53 65.16 119.77 C 65.26 127.49 61.96 134.72 61.99 142.43 C 63.64 142.76 65.29 143.07 66.92 143.47 C 63.86 144.66 61.28 146.73 59.12 149.16 Z" />
</g>
<g id="#aa9178ff">
<path fill="#aa9178" opacity="1.00" d=" M 170.75 122.68 C 172.03 127.69 171.99 132.93 171.63 138.05 C 171.12 144.46 167.48 149.93 164.40 155.37 C 161.16 160.98 159.02 167.13 157.17 173.32 C 155.56 178.50 154.17 183.78 151.89 188.72 C 150.39 192.34 146.54 194.28 142.89 195.05 C 135.27 196.32 127.64 194.22 120.00 194.63 C 113.09 194.94 105.94 196.49 99.17 194.41 C 96.45 193.18 93.64 191.53 92.39 188.67 C 90.14 183.93 88.91 178.78 87.31 173.80 C 85.56 167.04 82.65 160.64 79.29 154.54 C 78.41 152.97 77.48 151.43 76.58 149.87 C 71.67 142.21 70.00 132.83 71.90 123.93 C 71.76 129.34 71.36 135.18 73.79 140.17 C 76.27 142.59 79.93 143.13 83.10 144.20 C 83.29 147.24 83.45 150.29 83.49 153.33 C 83.52 156.25 83.33 159.45 84.99 162.00 C 86.65 164.10 88.98 165.52 91.09 167.10 C 90.51 169.07 89.72 171.01 89.55 173.08 C 90.13 176.60 91.96 179.75 93.17 183.07 C 94.53 183.53 95.89 184.00 97.25 184.48 C 98.06 186.42 98.71 188.46 99.94 190.20 C 102.86 191.79 106.36 191.22 109.55 191.41 C 117.45 191.26 125.01 194.59 132.94 193.86 C 137.43 193.44 142.15 192.55 145.87 189.86 C 148.54 186.60 149.53 182.31 151.61 178.68 C 151.11 176.80 150.59 174.92 150.09 173.04 C 151.57 170.49 153.07 167.94 154.65 165.44 C 151.69 165.00 148.66 164.53 146.02 163.05 C 148.90 163.53 153.10 165.08 154.99 161.97 C 156.93 159.27 157.85 156.01 158.68 152.83 C 158.83 154.32 159.00 155.80 159.20 157.28 C 164.37 148.57 166.08 138.40 167.85 128.58 C 168.71 126.56 169.74 124.62 170.75 122.68 Z" />
</g>
<g id="#c1a689ff">
<path fill="#c1a689" opacity="1.00" d=" M 88.61 143.33 C 94.30 141.49 99.66 137.86 105.89 138.53 C 105.28 140.65 104.66 142.75 104.04 144.86 C 106.60 143.40 109.17 141.97 111.76 140.55 C 114.96 142.19 118.25 144.25 121.99 144.08 C 128.05 143.84 133.64 141.15 138.78 138.14 C 140.41 139.96 142.47 141.64 143.17 144.07 C 143.69 147.42 142.37 150.68 141.51 153.86 C 140.48 153.16 139.44 152.46 138.42 151.76 C 138.35 149.13 138.16 146.51 137.80 143.92 C 134.28 143.80 131.43 145.73 128.89 147.92 C 126.48 150.15 122.98 149.89 119.95 149.60 C 115.75 148.87 113.65 142.94 109.11 143.67 C 106.49 145.14 108.09 148.35 108.22 150.70 C 102.38 153.34 97.59 158.51 90.91 159.01 C 89.08 154.00 88.23 148.66 88.61 143.33 Z" />
</g>
<g id="#c5aa8cff">
<path fill="#c5aa8c" opacity="1.00" d=" M 85.10 148.73 C 85.48 153.10 86.45 157.53 88.92 161.24 C 89.43 162.08 89.95 162.91 90.47 163.75 C 94.68 164.04 98.62 162.55 102.21 160.47 C 109.13 156.62 117.12 154.92 125.02 155.51 C 132.65 155.76 139.70 158.99 146.02 163.05 C 148.66 164.53 151.69 165.00 154.65 165.44 C 153.07 167.94 151.57 170.49 150.09 173.04 C 150.59 174.92 151.11 176.80 151.61 178.68 C 149.53 182.31 148.54 186.60 145.87 189.86 C 142.15 192.55 137.43 193.44 132.94 193.86 C 125.01 194.59 117.45 191.26 109.55 191.41 C 106.36 191.22 102.86 191.79 99.94 190.20 C 98.71 188.46 98.06 186.42 97.25 184.48 C 95.89 184.00 94.53 183.53 93.17 183.07 C 91.96 179.75 90.13 176.60 89.55 173.08 C 89.72 171.01 90.51 169.07 91.09 167.10 C 88.98 165.52 86.65 164.10 84.99 162.00 C 83.33 159.45 83.52 156.25 83.49 153.33 C 84.00 151.79 84.59 150.27 85.10 148.73 M 114.67 159.82 C 110.10 161.06 107.05 164.90 103.73 167.99 C 103.46 169.11 103.39 170.26 103.28 171.40 C 107.69 173.57 111.78 177.76 117.06 177.04 C 112.04 179.09 107.04 181.73 103.66 186.11 C 107.13 187.17 110.74 186.75 114.29 186.46 C 118.17 186.13 120.89 190.64 124.83 189.72 C 130.64 188.37 136.67 188.40 142.44 186.83 C 140.36 181.04 133.97 178.88 128.62 177.14 C 130.79 175.59 132.95 174.02 135.09 172.45 C 133.05 171.24 131.02 169.72 128.58 169.54 C 123.76 169.20 118.94 170.62 114.14 169.82 C 112.07 169.71 111.87 167.39 111.23 165.89 C 113.72 165.00 116.43 165.42 119.02 165.44 C 122.55 165.69 126.11 165.07 129.62 165.55 C 133.12 166.67 135.86 169.29 139.06 171.03 C 138.37 168.63 137.03 166.48 135.14 164.85 C 132.16 162.14 128.62 159.07 124.30 159.55 C 121.09 159.76 117.85 159.30 114.67 159.82 Z" />
</g>
<g id="#e4544aff">
<path fill="#e4544a" opacity="1.00" d=" M 40.50 158.40 C 41.46 155.09 43.72 152.41 45.72 149.68 C 46.20 150.02 47.15 150.71 47.63 151.06 C 46.87 154.34 46.08 157.62 45.68 160.96 C 44.86 167.20 47.15 173.25 47.81 179.40 C 45.16 176.92 42.83 174.07 41.13 170.86 C 40.73 169.91 40.32 168.96 39.91 168.02 C 39.72 164.81 39.66 161.53 40.50 158.40 Z" />
</g>
<g id="#1d0101ff">
<path fill="#1d0101" opacity="1.00" d=" M 76.58 149.87 C 77.48 151.43 78.41 152.97 79.29 154.54 C 78.77 154.51 77.73 154.44 77.21 154.41 C 77.21 160.12 76.54 165.92 77.59 171.58 C 78.49 175.80 83.51 176.51 86.84 178.07 C 87.02 176.64 87.18 175.22 87.31 173.80 C 88.91 178.78 90.14 183.93 92.39 188.67 C 93.64 191.53 96.45 193.18 99.17 194.41 C 97.98 194.81 95.33 194.07 95.54 196.00 C 95.34 206.86 100.06 217.30 99.34 228.21 C 99.18 229.54 98.68 230.79 98.26 232.05 C 96.60 220.61 96.01 208.97 93.25 197.72 C 92.59 194.34 89.07 193.05 86.50 191.40 C 86.32 187.74 86.61 184.01 85.64 180.45 C 83.00 178.24 79.56 177.30 76.86 175.18 C 74.83 167.73 76.72 159.61 73.75 152.28 C 74.69 151.47 75.64 150.67 76.58 149.87 Z" />
</g>
<g id="#0a0102ff">
<path fill="#0a0102" opacity="1.00" d=" M 77.21 154.41 C 77.73 154.44 78.77 154.51 79.29 154.54 C 82.65 160.64 85.56 167.04 87.31 173.80 C 87.18 175.22 87.02 176.64 86.84 178.07 C 83.51 176.51 78.49 175.80 77.59 171.58 C 76.54 165.92 77.21 160.12 77.21 154.41 Z" />
</g>
<g id="#392116ff">
<path fill="#392116" opacity="1.00" d=" M 114.67 159.82 C 117.85 159.30 121.09 159.76 124.30 159.55 C 128.62 159.07 132.16 162.14 135.14 164.85 C 137.03 166.48 138.37 168.63 139.06 171.03 C 135.86 169.29 133.12 166.67 129.62 165.55 C 126.11 165.07 122.55 165.69 119.02 165.44 C 116.43 165.42 113.72 165.00 111.23 165.89 C 108.70 167.31 106.34 169.01 104.01 170.73 C 103.94 170.05 103.80 168.68 103.73 167.99 C 107.05 164.90 110.10 161.06 114.67 159.82 Z" />
</g>
<g id="#b79675ff">
<path fill="#b79675" opacity="1.00" d=" M 104.01 170.73 C 106.34 169.01 108.70 167.31 111.23 165.89 C 111.87 167.39 112.07 169.71 114.14 169.82 C 118.94 170.62 123.76 169.20 128.58 169.54 C 131.02 169.72 133.05 171.24 135.09 172.45 C 132.95 174.02 130.79 175.59 128.62 177.14 C 124.83 176.18 120.88 176.35 117.06 177.04 C 111.78 177.76 107.69 173.57 103.28 171.40 C 103.39 170.26 103.46 169.11 103.73 167.99 C 103.80 168.68 103.94 170.05 104.01 170.73 Z" />
</g>
<g id="#d2bc9eff">
<path fill="#d2bc9e" opacity="1.00" d=" M 117.06 177.04 C 120.88 176.35 124.83 176.18 128.62 177.14 C 133.97 178.88 140.36 181.04 142.44 186.83 C 136.67 188.40 130.64 188.37 124.83 189.72 C 120.89 190.64 118.17 186.13 114.29 186.46 C 110.74 186.75 107.13 187.17 103.66 186.11 C 107.04 181.73 112.04 179.09 117.06 177.04 Z" />
</g>
<g id="#850406ff">
<path fill="#850406" opacity="1.00" d=" M 79.01 194.94 C 79.49 190.82 82.06 187.37 83.41 183.52 C 83.64 186.50 83.58 189.60 84.63 192.44 C 86.73 195.22 90.62 196.71 91.42 200.38 C 92.89 205.52 93.12 210.90 93.93 216.16 C 92.20 210.41 90.73 204.59 89.51 198.72 C 86.50 198.44 83.38 198.48 80.51 197.43 C 79.19 197.09 78.69 196.26 79.01 194.94 Z" />
</g>
<g id="#d43d39ff">
<path fill="#d43d39" opacity="1.00" d=" M 55.97 197.81 C 58.02 198.29 60.29 198.55 61.79 200.22 C 67.04 205.31 70.92 211.88 77.48 215.53 C 79.41 212.29 77.46 208.72 77.35 205.30 C 79.36 202.77 83.00 205.63 85.07 206.96 C 90.74 212.08 92.00 220.70 91.12 227.98 C 87.83 227.92 84.34 228.18 81.32 226.61 C 72.49 222.30 65.65 214.94 59.69 207.31 C 57.47 204.61 56.55 201.18 55.97 197.81 Z" />
</g>
</svg>
