<?xml version="1.0" encoding="UTF-8" ?>
<!DOCTYPE svg PUBLIC "-//W3C//DTD SVG 1.1//EN" "http://www.w3.org/Graphics/SVG/1.1/DTD/svg11.dtd">
<svg width="250pt" height="250pt" viewBox="0 0 250 250" version="1.1" xmlns="http://www.w3.org/2000/svg">
<g id="#489bccff">
<path fill="#489bcc" opacity="1.00" d=" M 0.00 0.00 L 46.84 0.00 C 44.36 3.65 49.25 3.87 51.50 5.45 C 52.43 7.96 53.26 11.22 56.70 9.89 C 57.66 5.71 65.18 1.32 67.45 6.42 C 66.57 11.72 73.34 10.77 73.37 15.50 C 81.15 15.58 74.94 24.25 79.16 27.90 C 84.33 24.58 93.87 29.98 95.11 21.98 C 96.99 19.45 97.49 25.08 99.24 25.87 C 107.82 30.41 101.01 14.64 109.57 19.64 C 112.84 20.31 115.97 19.00 118.95 17.83 C 112.47 12.76 121.04 6.70 119.09 0.00 L 158.24 0.00 C 159.12 6.93 149.33 4.18 146.73 9.64 C 144.58 13.25 135.04 9.13 136.05 14.81 C 139.25 16.83 143.43 16.14 146.99 17.25 C 147.13 20.03 144.42 26.90 141.61 22.39 C 137.96 17.23 129.07 21.02 127.66 26.70 C 121.93 27.75 116.20 27.51 111.87 31.84 C 109.38 32.32 108.88 33.86 110.06 36.01 C 110.53 42.81 103.34 41.60 100.05 45.97 C 91.17 43.11 97.30 55.38 88.98 51.95 C 77.45 46.66 87.97 64.93 79.12 62.28 C 78.34 65.52 76.51 67.61 73.21 68.41 C 73.03 71.57 73.32 74.75 73.17 77.92 C 69.55 77.24 65.96 78.62 66.86 82.92 C 66.16 82.89 64.76 82.83 64.05 82.80 C 64.58 80.00 63.17 77.51 60.05 77.85 C 59.24 76.33 58.51 74.77 57.81 73.20 C 60.31 72.73 64.57 73.76 62.51 68.39 C 63.59 65.56 70.98 68.67 67.04 61.95 C 66.85 57.57 68.83 51.23 62.70 51.30 C 62.98 43.60 45.31 44.73 46.52 51.52 C 38.57 50.35 40.00 69.70 46.84 67.98 C 42.24 66.17 41.32 72.63 37.33 71.89 C 34.00 65.41 25.65 60.54 30.25 52.16 C 31.25 46.96 31.20 41.62 30.88 36.35 C 27.50 36.61 26.30 34.06 25.47 31.26 C 20.61 30.93 15.75 30.92 10.89 31.08 C 9.17 27.15 13.48 21.17 8.90 19.10 C 5.43 17.42 4.52 12.31 0.00 12.66 L 0.00 0.00 M 46.79 20.79 L 42.03 21.20 C 42.03 23.60 42.03 28.40 42.03 30.80 L 46.79 31.21 L 47.14 35.96 C 49.81 35.96 55.14 35.96 57.80 35.96 C 52.95 26.56 67.33 35.45 62.04 25.99 C 65.56 19.73 60.69 21.14 58.03 20.96 C 61.73 12.81 43.52 13.30 46.79 20.79 Z" />
</g>
<g id="#4296c8ff">
<path fill="#4296c8" opacity="1.00" d=" M 46.84 0.00 L 119.09 0.00 C 121.04 6.70 112.47 12.76 118.95 17.83 C 115.97 19.00 112.84 20.31 109.57 19.64 C 101.01 14.64 107.82 30.41 99.24 25.87 C 97.49 25.08 96.99 19.45 95.11 21.98 C 93.87 29.98 84.33 24.58 79.16 27.90 C 74.94 24.25 81.15 15.58 73.37 15.50 C 73.34 10.77 66.57 11.72 67.45 6.42 C 65.18 1.32 57.66 5.71 56.70 9.89 C 53.26 11.22 52.43 7.96 51.50 5.45 C 49.25 3.87 44.36 3.65 46.84 0.00 Z" />
</g>
<g id="#4193c6ff">
<path fill="#4193c6" opacity="1.00" d=" M 158.24 0.00 L 186.20 0.00 C 188.64 8.21 173.18 6.64 171.44 14.37 C 171.08 19.39 166.08 20.65 162.98 22.86 C 168.38 26.14 165.55 32.06 162.72 35.93 C 157.43 37.68 155.06 36.09 155.62 31.14 C 146.12 31.29 136.35 29.90 126.98 31.86 C 124.67 31.74 125.18 34.34 124.56 35.84 C 119.73 36.06 114.89 36.03 110.06 36.01 C 108.88 33.86 109.38 32.32 111.87 31.84 C 116.20 27.51 121.93 27.75 127.66 26.70 C 129.07 21.02 137.96 17.23 141.61 22.39 C 144.42 26.90 147.13 20.03 146.99 17.25 C 143.43 16.14 139.25 16.83 136.05 14.81 C 135.04 9.13 144.58 13.25 146.73 9.64 C 149.33 4.18 159.12 6.93 158.24 0.00 Z" />
</g>
<g id="#3987bfff">
<path fill="#3987bf" opacity="1.00" d=" M 186.20 0.00 L 193.78 0.00 C 193.34 6.05 199.88 8.12 203.85 11.26 C 205.26 17.04 198.27 19.12 194.99 22.03 C 194.43 26.65 192.83 30.98 188.96 33.86 C 192.61 36.94 194.66 41.92 191.19 46.10 C 188.17 46.69 187.66 49.16 187.99 51.90 C 189.17 46.44 181.30 48.15 182.56 42.22 C 179.97 42.13 174.81 41.94 172.23 41.85 C 175.09 33.54 167.14 36.51 162.72 35.93 C 165.55 32.06 168.38 26.14 162.98 22.86 C 166.08 20.65 171.08 19.39 171.44 14.37 C 173.18 6.64 188.64 8.21 186.20 0.00 Z" />
</g>
<g id="#317fb8ff">
<path fill="#317fb8" opacity="1.00" d=" M 193.78 0.00 L 239.84 0.00 C 236.30 6.76 242.16 17.07 234.35 21.44 C 237.04 31.64 226.68 39.51 217.14 35.78 C 209.75 33.15 220.32 47.98 210.43 42.52 C 205.97 43.05 199.54 39.61 196.33 44.07 C 197.39 46.56 198.42 49.08 199.52 51.56 C 201.61 52.71 205.17 51.05 206.94 53.23 C 207.19 56.29 204.05 58.28 203.27 61.13 C 201.84 57.53 196.25 57.51 197.52 52.32 C 195.92 50.86 193.83 51.87 191.98 52.05 C 190.65 52.05 189.32 52.00 187.99 51.90 C 187.66 49.16 188.17 46.69 191.19 46.10 C 194.66 41.92 192.61 36.94 188.96 33.86 C 192.83 30.98 194.43 26.65 194.99 22.03 C 198.27 19.12 205.26 17.04 203.85 11.26 C 199.88 8.12 193.34 6.05 193.78 0.00 Z" />
</g>
<g id="#2976b1ff">
<path fill="#2976b1" opacity="1.00" d=" M 239.84 0.00 L 250.00 0.00 L 250.00 36.65 C 242.61 38.95 248.43 52.67 241.91 56.92 C 234.36 57.28 224.87 58.52 222.47 66.85 C 215.45 69.54 214.60 63.14 213.79 58.33 C 209.28 57.61 207.55 63.48 203.00 63.30 C 203.06 62.75 203.20 61.67 203.27 61.13 C 204.05 58.28 207.19 56.29 206.94 53.23 C 205.17 51.05 201.61 52.71 199.52 51.56 C 198.42 49.08 197.39 46.56 196.33 44.07 C 199.54 39.61 205.97 43.05 210.43 42.52 C 220.32 47.98 209.75 33.15 217.14 35.78 C 226.68 39.51 237.04 31.64 234.35 21.44 C 242.16 17.07 236.30 6.76 239.84 0.00 Z" />
</g>
<g id="#3f93c6ff">
<path fill="#3f93c6" opacity="1.00" d=" M 0.00 12.66 C 4.52 12.31 5.43 17.42 8.90 19.10 C 13.48 21.17 9.17 27.15 10.89 31.08 C 11.83 35.31 10.29 37.62 5.07 36.22 C 4.86 41.40 4.87 46.58 5.08 51.77 C 10.30 50.63 12.35 52.69 11.23 57.93 C 14.84 57.93 22.06 57.92 25.68 57.92 C 23.90 52.53 26.51 51.51 30.25 52.16 C 25.65 60.54 34.00 65.41 37.33 71.89 C 41.32 72.63 42.24 66.17 46.84 67.98 C 45.24 75.21 52.96 72.78 57.81 73.20 C 58.51 74.77 59.24 76.33 60.05 77.85 C 53.92 77.42 45.10 82.43 41.16 75.83 C 35.56 73.73 28.65 75.04 23.77 70.55 C 15.82 69.45 7.94 67.89 0.00 66.79 L 0.00 12.66 Z" />
</g>
<g id="#83b9dbff">
<path fill="#83b9db" opacity="1.00" d=" M 46.79 20.79 C 43.52 13.30 61.73 12.81 58.03 20.96 C 56.53 22.22 53.51 24.75 52.01 26.01 C 58.19 28.78 58.28 24.79 58.03 20.96 C 60.69 21.14 65.56 19.73 62.04 25.99 C 67.33 35.45 52.95 26.56 57.80 35.96 C 55.14 35.96 49.81 35.96 47.14 35.96 L 46.79 31.21 L 42.03 30.80 C 42.03 28.40 42.03 23.60 42.03 21.20 L 46.79 20.79 Z" />
</g>
<g id="#c7e5f6ff">
<path fill="#c7e5f6" opacity="1.00" d=" M 52.01 26.01 C 53.51 24.75 56.53 22.22 58.03 20.96 C 58.28 24.79 58.19 28.78 52.01 26.01 Z" />
</g>
<g id="#82b9dcff">
<path fill="#82b9dc" opacity="1.00" d=" M 10.89 31.08 C 15.75 30.92 20.61 30.93 25.47 31.26 C 26.30 34.06 27.50 36.61 30.88 36.35 C 31.20 41.62 31.25 46.96 30.25 52.16 C 26.51 51.51 23.90 52.53 25.68 57.92 C 22.06 57.92 14.84 57.93 11.23 57.93 C 12.35 52.69 10.30 50.63 5.08 51.77 C 4.87 46.58 4.86 41.40 5.07 36.22 C 10.29 37.62 11.83 35.31 10.89 31.08 M 16.01 36.02 C 16.02 37.46 16.03 40.35 16.03 41.79 C 22.64 39.79 17.65 51.06 25.96 47.01 C 25.97 44.26 25.97 38.77 25.97 36.02 C 23.48 36.02 18.50 36.02 16.01 36.02 Z" />
</g>
<g id="#7bb2d9ff">
<path fill="#7bb2d9" opacity="1.00" d=" M 126.98 31.86 C 136.35 29.90 146.12 31.29 155.62 31.14 C 155.06 36.09 157.43 37.68 162.72 35.93 C 167.14 36.51 175.09 33.54 172.23 41.85 C 174.81 41.94 179.97 42.13 182.56 42.22 C 181.30 48.15 189.17 46.44 187.99 51.90 C 189.32 52.00 190.65 52.05 191.98 52.05 C 192.03 53.75 192.09 55.45 192.16 57.15 C 186.63 57.23 188.24 62.82 187.84 66.79 C 188.18 70.91 183.11 80.52 191.84 78.37 C 191.95 83.59 192.03 88.81 192.10 94.03 C 195.19 94.76 198.76 93.99 200.86 91.56 C 197.16 90.18 197.97 86.29 197.98 83.01 C 199.63 83.00 201.28 83.00 202.94 83.01 C 200.66 89.78 207.97 89.09 210.92 93.05 C 216.45 93.73 213.94 101.73 208.09 99.47 C 203.80 107.79 218.41 101.53 213.98 110.03 C 214.08 123.67 213.98 137.32 213.98 150.96 L 213.90 151.79 C 211.75 156.42 207.32 155.54 203.16 157.23 C 202.99 160.44 202.97 163.68 202.97 166.90 C 197.93 166.24 198.39 173.98 192.76 172.75 C 192.61 177.48 187.18 176.85 186.35 181.39 C 182.24 183.24 182.39 188.15 182.89 192.04 C 185.54 203.01 170.20 192.98 171.50 202.48 C 165.63 204.84 165.08 210.83 156.06 208.05 C 154.37 208.02 152.67 208.00 150.98 207.99 C 150.99 206.33 150.99 204.67 151.02 203.01 C 155.58 203.00 163.04 204.97 161.01 198.05 C 166.49 199.50 168.50 197.49 167.05 192.02 C 168.67 192.00 170.30 192.00 171.93 191.87 C 172.09 179.95 172.11 168.03 171.93 156.11 C 170.27 155.98 168.61 155.98 166.94 155.96 C 166.95 154.66 166.99 153.35 167.06 152.05 C 169.52 150.93 175.65 153.57 176.95 150.95 C 177.04 149.31 177.04 147.67 177.05 146.03 C 182.06 145.50 187.49 147.13 192.31 145.28 C 192.21 141.38 195.63 141.14 197.79 139.94 C 198.45 137.49 197.38 133.25 202.86 135.59 C 202.90 132.94 203.00 127.65 203.04 125.00 C 211.73 127.06 207.28 115.56 207.95 110.02 C 194.07 107.54 176.35 109.74 161.00 109.03 C 160.98 105.74 161.20 102.46 160.92 99.18 C 159.18 97.69 156.15 97.28 156.15 93.77 C 153.41 93.33 151.29 92.32 151.89 89.14 C 153.25 89.09 154.62 89.02 155.98 88.93 C 157.71 78.37 157.64 63.54 156.27 51.77 C 152.72 51.84 152.29 48.95 150.89 47.03 C 149.30 46.88 147.69 46.88 146.11 47.02 C 144.70 48.92 144.30 51.80 140.82 51.81 C 142.19 56.94 137.79 56.22 136.06 58.10 C 135.89 61.06 135.99 64.04 135.98 67.01 C 134.50 67.26 131.54 67.77 130.06 68.03 C 129.96 69.68 129.97 71.33 129.97 72.99 C 128.33 73.00 126.69 72.99 125.06 73.13 C 124.82 81.71 125.19 90.30 124.94 98.88 C 123.29 99.02 121.64 99.03 120.00 99.06 L 120.00 98.04 C 120.02 96.74 120.00 95.45 119.93 94.16 C 109.01 92.66 118.86 73.65 113.99 67.10 C 107.70 68.40 111.27 61.26 109.26 57.69 C 105.18 57.87 105.29 54.03 103.92 52.04 C 102.31 51.89 100.68 51.89 99.07 52.04 C 98.73 55.17 96.72 56.94 94.09 58.11 C 93.97 59.48 93.91 60.85 93.89 62.23 C 92.52 61.90 89.61 61.03 89.25 63.02 C 89.09 64.34 88.98 65.66 88.89 66.99 C 87.43 67.24 84.50 67.74 83.04 67.99 C 81.42 72.86 87.05 85.18 78.05 83.05 C 78.88 79.05 77.28 77.03 73.17 77.92 C 73.32 74.75 73.03 71.57 73.21 68.41 C 76.51 67.61 78.34 65.52 79.12 62.28 C 87.97 64.93 77.45 46.66 88.98 51.95 C 97.30 55.38 91.17 43.11 100.05 45.97 C 103.34 41.60 110.53 42.81 110.06 36.01 C 114.89 36.03 119.73 36.06 124.56 35.84 C 125.18 34.34 124.67 31.74 126.98 31.86 M 166.99 57.90 C 169.49 57.95 174.48 58.03 176.97 58.08 C 176.91 60.70 178.19 65.35 172.04 62.14 C 172.04 64.84 172.02 70.26 172.02 72.97 C 176.72 72.27 186.77 76.38 183.08 67.03 C 189.13 68.94 186.51 61.54 186.95 58.19 C 183.33 58.33 180.95 57.18 182.87 52.09 C 176.26 53.94 163.99 44.72 166.99 57.90 Z" />
</g>
<g id="#cbe4f3ff">
<path fill="#cbe4f3" opacity="1.00" d=" M 16.01 36.02 C 18.50 36.02 23.48 36.02 25.97 36.02 C 25.97 38.77 25.97 44.26 25.96 47.01 C 17.65 51.06 22.64 39.79 16.03 41.79 C 16.03 40.35 16.02 37.46 16.01 36.02 Z" />
</g>
<g id="#236ba9ff">
<path fill="#236ba9" opacity="1.00" d=" M 241.91 56.92 C 248.43 52.67 242.61 38.95 250.00 36.65 L 250.00 82.81 C 244.60 79.66 244.90 86.45 243.79 89.76 C 235.91 88.76 231.90 97.67 232.35 104.27 C 223.74 107.03 222.74 96.03 219.31 90.76 C 213.38 89.05 213.36 84.64 213.84 78.24 C 201.93 82.36 213.77 63.61 203.03 66.92 C 203.01 65.71 203.00 64.50 203.00 63.30 C 207.55 63.48 209.28 57.61 213.79 58.33 C 214.60 63.14 215.45 69.54 222.47 66.85 C 224.87 58.52 234.36 57.28 241.91 56.92 Z" />
</g>
<g id="#85badcff">
<path fill="#85badc" opacity="1.00" d=" M 46.52 51.52 C 45.31 44.73 62.98 43.60 62.70 51.30 C 68.83 51.23 66.85 57.57 67.04 61.95 C 70.98 68.67 63.59 65.56 62.51 68.39 C 64.57 73.76 60.31 72.73 57.81 73.20 C 52.96 72.78 45.24 75.21 46.84 67.98 C 40.00 69.70 38.57 50.35 46.52 51.52 M 52.01 52.02 C 50.40 57.43 52.31 59.48 57.74 58.17 C 57.71 60.79 58.62 64.02 61.96 63.02 C 61.97 60.27 61.97 54.77 61.97 52.02 C 59.48 52.02 54.50 52.02 52.01 52.02 Z" />
</g>
<g id="#5c7082ff">
<path fill="#5c7082" opacity="1.00" d=" M 140.82 51.81 C 144.30 51.80 144.70 48.92 146.11 47.02 C 146.06 48.69 146.04 50.36 146.03 52.02 C 144.29 51.95 142.55 51.86 140.82 51.81 Z" />
</g>
<g id="#060707ff">
<path fill="#060707" opacity="1.00" d=" M 146.11 47.02 C 147.69 46.88 149.30 46.88 150.89 47.03 C 150.95 48.69 150.98 50.35 151.01 52.02 C 149.35 52.02 147.69 52.02 146.03 52.02 C 146.04 50.36 146.06 48.69 146.11 47.02 Z" />
</g>
<g id="#677d91ff">
<path fill="#677d91" opacity="1.00" d=" M 150.89 47.03 C 152.29 48.95 152.72 51.84 156.27 51.77 C 154.85 51.84 153.42 51.91 152.00 51.99 L 151.01 52.02 C 150.98 50.35 150.95 48.69 150.89 47.03 Z" />
</g>
<g id="#aed9f2ff">
<path fill="#aed9f2" opacity="1.00" d=" M 166.99 57.90 C 163.99 44.72 176.26 53.94 182.87 52.09 C 180.95 57.18 183.33 58.33 186.95 58.19 C 186.51 61.54 189.13 68.94 183.08 67.03 C 185.25 61.08 174.43 61.00 177.04 66.90 C 178.55 66.93 181.57 67.00 183.08 67.03 C 186.77 76.38 176.72 72.27 172.02 72.97 C 172.02 70.26 172.04 64.84 172.04 62.14 C 178.19 65.35 176.91 60.70 176.97 58.08 C 174.48 58.03 169.49 57.95 166.99 57.90 Z" />
</g>
<g id="#4f8ec3ff">
<path fill="#4f8ec3" opacity="1.00" d=" M 191.98 52.05 C 193.83 51.87 195.92 50.86 197.52 52.32 C 196.25 57.51 201.84 57.53 203.27 61.13 C 203.20 61.67 203.06 62.75 203.00 63.30 C 196.79 64.50 199.04 55.35 192.16 57.15 C 192.09 55.45 192.03 53.75 191.98 52.05 Z" />
</g>
<g id="#cbe5f3ff">
<path fill="#cbe5f3" opacity="1.00" d=" M 52.01 52.02 C 54.50 52.02 59.48 52.02 61.97 52.02 C 61.97 54.77 61.97 60.27 61.96 63.02 C 58.62 64.02 57.71 60.79 57.74 58.17 C 52.31 59.48 50.40 57.43 52.01 52.02 Z" />
</g>
<g id="#576f82ff">
<path fill="#576f82" opacity="1.00" d=" M 94.09 58.11 C 96.72 56.94 98.73 55.17 99.07 52.04 C 99.04 54.02 99.05 56.01 99.09 58.00 C 97.42 58.02 95.76 58.05 94.09 58.11 Z" />
</g>
<g id="#0b0909ff">
<path fill="#0b0909" opacity="1.00" d=" M 99.07 52.04 C 100.68 51.89 102.31 51.89 103.92 52.04 C 103.98 54.02 104.00 56.01 103.97 58.00 C 102.35 58.00 100.72 58.00 99.09 58.00 C 99.05 56.01 99.04 54.02 99.07 52.04 Z" />
</g>
<g id="#455563ff">
<path fill="#455563" opacity="1.00" d=" M 103.92 52.04 C 105.29 54.03 105.18 57.87 109.26 57.69 C 103.14 56.45 105.03 62.95 105.08 66.96 C 111.19 68.92 108.52 61.42 109.26 57.69 C 111.27 61.26 107.70 68.40 113.99 67.10 L 113.97 68.02 C 112.32 68.03 110.67 68.04 109.02 68.07 C 102.00 69.99 104.31 62.56 103.97 58.00 C 104.00 56.01 103.98 54.02 103.92 52.04 Z" />
</g>
<g id="#557288ff">
<path fill="#557288" opacity="1.00" d=" M 136.06 58.10 C 137.79 56.22 142.19 56.94 140.82 51.81 C 140.87 53.89 140.96 55.96 141.04 58.03 L 140.04 58.05 C 138.71 58.05 137.39 58.07 136.06 58.10 Z" />
</g>
<g id="#121212ff">
<path fill="#121212" opacity="1.00" d=" M 140.82 51.81 C 142.55 51.86 144.29 51.95 146.03 52.02 C 147.81 57.36 145.30 58.72 141.04 58.03 C 140.96 55.96 140.87 53.89 140.82 51.81 Z" />
</g>
<g id="#6e6c6bff">
<path fill="#6e6c6b" opacity="1.00" d=" M 146.03 52.02 C 147.69 52.02 149.35 52.02 151.01 52.02 C 150.98 64.33 151.03 76.64 150.96 88.95 C 149.29 88.98 147.63 89.01 145.97 89.04 C 146.06 83.69 146.05 78.35 145.93 73.00 C 139.47 69.54 141.30 75.10 140.95 77.90 C 141.97 81.76 138.07 90.62 144.91 89.11 C 143.93 93.37 147.55 94.74 151.12 94.11 C 152.25 98.38 148.09 97.44 146.24 99.21 C 145.80 100.88 145.42 102.56 144.89 104.21 C 142.32 104.32 137.48 102.48 141.01 108.89 C 145.89 109.09 150.81 108.80 155.69 109.29 C 157.42 109.71 159.19 109.96 160.96 110.13 C 160.98 111.42 161.00 112.71 161.02 114.00 L 161.02 115.00 C 160.99 116.68 160.99 118.37 161.01 120.07 C 160.94 125.03 161.20 130.00 160.96 134.97 C 147.65 135.90 133.87 133.47 120.77 135.69 C 119.74 136.80 120.21 138.53 119.83 139.90 C 117.14 139.95 111.77 140.05 109.09 140.10 C 109.92 146.33 107.01 156.20 110.02 160.89 C 119.43 158.96 107.87 176.77 119.89 172.13 C 120.32 176.88 117.66 185.10 125.00 182.99 C 124.05 187.09 125.86 188.94 129.97 188.07 C 128.92 192.06 131.75 192.44 135.02 192.00 C 134.23 198.52 139.10 198.64 144.02 197.99 C 146.37 194.68 144.44 187.70 145.24 182.78 C 148.10 187.67 141.77 200.05 151.03 198.19 L 151.05 199.21 C 151.03 200.48 151.02 201.74 151.02 203.01 C 150.99 204.67 150.99 206.33 150.98 207.99 C 136.99 208.02 123.00 207.96 109.00 208.02 C 107.66 208.00 106.33 207.98 104.99 207.96 C 106.38 201.01 99.19 203.11 94.38 202.81 C 95.38 197.00 87.48 199.36 88.39 193.58 C 83.96 194.46 83.24 191.30 82.50 188.36 C 79.01 187.95 71.46 188.93 72.91 183.09 C 72.94 181.05 72.97 179.01 72.96 176.97 C 77.55 177.00 85.06 178.99 83.00 172.03 C 88.35 173.83 89.71 171.29 89.06 167.02 C 98.86 170.12 89.00 154.11 97.99 155.78 C 99.66 153.95 99.40 150.02 104.21 151.20 C 104.97 143.39 106.49 131.52 103.98 125.04 C 102.33 124.95 100.66 124.96 99.01 124.95 C 97.35 119.83 103.34 106.78 94.05 108.96 C 94.98 104.74 93.04 103.00 88.89 104.17 C 88.99 92.17 89.17 80.16 88.91 68.15 C 87.44 68.11 84.50 68.03 83.04 67.99 C 84.50 67.74 87.43 67.24 88.89 66.99 C 92.32 67.53 95.16 67.04 93.93 62.92 C 97.50 63.97 99.80 61.53 99.09 58.00 C 100.72 58.00 102.35 58.00 103.97 58.00 C 104.31 62.56 102.00 69.99 109.02 68.07 C 107.76 70.89 111.57 78.70 106.06 78.16 C 104.10 78.37 105.43 81.47 104.98 82.88 L 104.06 83.05 C 103.63 80.22 105.57 74.54 99.05 78.00 C 100.52 83.06 94.49 96.63 103.97 94.00 C 105.23 91.10 105.57 87.40 104.98 82.88 C 106.31 82.92 107.64 82.98 108.97 83.07 C 109.00 88.35 108.97 93.64 109.05 98.92 C 104.84 96.74 102.04 104.75 106.98 104.03 C 110.23 104.89 108.61 100.76 109.05 98.92 C 112.69 98.96 116.35 98.99 120.00 99.06 C 117.95 106.07 125.56 103.75 130.08 103.90 L 130.25 104.74 C 126.79 105.78 117.98 102.43 119.99 109.03 C 122.50 109.76 138.93 112.61 135.98 104.17 C 134.51 104.11 131.55 103.97 130.08 103.90 C 129.90 93.60 130.08 83.29 129.97 72.99 C 135.26 74.79 136.73 72.36 136.07 68.06 C 143.01 69.95 140.70 62.52 141.04 58.03 C 145.30 58.72 147.81 57.36 146.03 52.02 M 125.06 119.92 C 125.15 124.48 122.94 132.27 130.02 129.97 C 141.13 133.89 134.20 119.30 135.96 114.03 C 131.35 114.77 121.08 110.57 125.06 119.92 M 145.39 119.82 C 145.01 124.47 142.25 133.74 151.01 130.00 L 152.02 129.98 C 159.06 132.17 155.10 122.85 156.04 119.00 C 159.60 110.44 149.13 115.42 145.91 114.25 C 144.18 114.93 144.47 118.38 145.39 119.82 Z" />
</g>
<g id="#282626ff">
<path fill="#282626" opacity="1.00" d=" M 151.01 52.02 L 152.00 51.99 C 151.97 64.38 152.09 76.76 151.89 89.14 L 150.96 88.95 C 151.03 76.64 150.98 64.33 151.01 52.02 Z" />
</g>
<g id="#030304ff">
<path fill="#030304" opacity="1.00" d=" M 152.00 51.99 C 153.42 51.91 154.85 51.84 156.27 51.77 C 155.83 64.15 156.04 76.54 155.98 88.93 C 154.62 89.02 153.25 89.09 151.89 89.14 C 152.09 76.76 151.97 64.38 152.00 51.99 Z" />
<path fill="#030304" opacity="1.00" d=" M 105.08 66.96 C 105.03 62.95 103.14 56.45 109.26 57.69 C 108.52 61.42 111.19 68.92 105.08 66.96 Z" />
</g>
<g id="#618cacff">
<path fill="#618cac" opacity="1.00" d=" M 156.27 51.77 C 157.64 63.54 157.71 78.37 155.98 88.93 C 156.04 76.54 155.83 64.15 156.27 51.77 Z" />
</g>
<g id="#70a3cfff">
<path fill="#70a3cf" opacity="1.00" d=" M 192.16 57.15 C 199.04 55.35 196.79 64.50 203.00 63.30 C 203.00 64.50 203.01 65.71 203.03 66.92 C 203.00 68.89 202.99 70.86 202.96 72.83 C 201.09 73.02 198.98 73.05 198.13 75.05 C 198.26 69.93 187.76 76.60 191.89 68.08 C 192.00 66.17 189.02 67.34 187.84 66.79 C 188.24 62.82 186.63 57.23 192.16 57.15 Z" />
</g>
<g id="#111011ff">
<path fill="#111011" opacity="1.00" d=" M 94.09 58.11 C 95.76 58.05 97.42 58.02 99.09 58.00 C 99.80 61.53 97.50 63.97 93.93 62.92 L 93.89 62.23 C 93.91 60.85 93.97 59.48 94.09 58.11 Z" />
</g>
<g id="#030407ff">
<path fill="#030407" opacity="1.00" d=" M 136.06 58.10 C 137.39 58.07 138.71 58.05 140.04 58.05 C 139.81 61.84 141.96 68.70 135.98 67.01 C 135.99 64.04 135.89 61.06 136.06 58.10 Z" />
</g>
<g id="#34373dff">
<path fill="#34373d" opacity="1.00" d=" M 140.04 58.05 L 141.04 58.03 C 140.70 62.52 143.01 69.95 136.07 68.06 C 134.07 68.03 132.06 68.02 130.06 68.03 C 131.54 67.77 134.50 67.26 135.98 67.01 C 141.96 68.70 139.81 61.84 140.04 58.05 Z" />
</g>
<g id="#4a6474ff">
<path fill="#4a6474" opacity="1.00" d=" M 89.25 63.02 C 89.61 61.03 92.52 61.90 93.89 62.23 L 93.93 62.92 C 92.38 63.13 90.81 63.12 89.25 63.02 Z" />
</g>
<g id="#070708ff">
<path fill="#070708" opacity="1.00" d=" M 89.25 63.02 C 90.81 63.12 92.38 63.13 93.93 62.92 C 95.16 67.04 92.32 67.53 88.89 66.99 C 88.98 65.66 89.09 64.34 89.25 63.02 Z" />
</g>
<g id="#7eb2d6ff">
<path fill="#7eb2d6" opacity="1.00" d=" M 177.04 66.90 C 174.43 61.00 185.25 61.08 183.08 67.03 C 181.57 67.00 178.55 66.93 177.04 66.90 Z" />
</g>
<g id="#3086c0ff">
<path fill="#3086c0" opacity="1.00" d=" M 0.00 66.79 C 7.94 67.89 15.82 69.45 23.77 70.55 C 28.65 75.04 35.56 73.73 41.16 75.83 C 45.10 82.43 53.92 77.42 60.05 77.85 C 63.17 77.51 64.58 80.00 64.05 82.80 L 63.10 83.11 C 62.82 84.55 62.25 87.43 61.96 88.87 C 55.63 87.29 60.05 97.46 52.09 94.13 C 50.79 95.90 50.98 99.43 47.26 99.28 C 45.86 103.58 46.48 111.57 39.00 109.01 C 35.64 109.42 34.87 103.49 39.01 104.01 C 42.39 104.32 43.31 99.47 39.93 99.00 C 35.08 98.33 35.83 106.92 30.06 103.98 C 26.36 103.51 27.01 99.26 25.56 96.64 C 25.97 99.45 24.74 102.16 22.70 103.91 C 13.13 107.56 14.66 94.74 7.51 92.53 C 7.92 90.65 11.65 88.57 11.00 85.17 C 7.53 83.75 3.67 84.16 0.00 83.89 L 0.00 66.79 Z" />
</g>
<g id="#69899fff">
<path fill="#69899f" opacity="1.00" d=" M 113.99 67.10 C 118.86 73.65 109.01 92.66 119.93 94.16 C 118.47 94.07 115.56 93.90 114.10 93.82 C 113.84 85.22 114.04 76.62 113.97 68.02 L 113.99 67.10 Z" />
</g>
<g id="#add8f1ff">
<path fill="#add8f1" opacity="1.00" d=" M 187.84 66.79 C 189.02 67.34 192.00 66.17 191.89 68.08 C 187.76 76.60 198.26 69.93 198.13 75.05 C 198.04 77.70 197.98 80.35 197.98 83.01 C 197.97 86.29 197.16 90.18 200.86 91.56 C 198.76 93.99 195.19 94.76 192.10 94.03 C 192.03 88.81 191.95 83.59 191.84 78.37 C 183.11 80.52 188.18 70.91 187.84 66.79 Z" />
</g>
<g id="#5e97caff">
<path fill="#5e97ca" opacity="1.00" d=" M 203.03 66.92 C 213.77 63.61 201.93 82.36 213.84 78.24 C 213.36 84.64 213.38 89.05 219.31 90.76 C 218.53 110.80 219.39 130.86 218.89 150.90 C 217.26 151.01 215.61 150.98 213.98 150.96 C 213.98 137.32 214.08 123.67 213.98 110.03 C 218.41 101.53 203.80 107.79 208.09 99.47 C 213.94 101.73 216.45 93.73 210.92 93.05 C 207.97 89.09 200.66 89.78 202.94 83.01 C 202.95 79.61 203.01 76.23 202.96 72.83 C 202.99 70.86 203.00 68.89 203.03 66.92 Z" />
</g>
<g id="#04040bff">
<path fill="#04040b" opacity="1.00" d=" M 83.04 67.99 C 84.50 68.03 87.44 68.11 88.91 68.15 C 89.17 80.16 88.99 92.17 88.89 104.17 C 87.06 103.55 85.10 103.67 83.25 104.11 C 83.75 100.10 82.21 98.00 78.04 98.93 C 78.02 93.63 77.95 88.34 78.05 83.05 C 87.05 85.18 81.42 72.86 83.04 67.99 Z" />
</g>
<g id="#060506ff">
<path fill="#060506" opacity="1.00" d=" M 109.02 68.07 C 110.67 68.04 112.32 68.03 113.97 68.02 C 114.04 76.62 113.84 85.22 114.10 93.82 C 115.56 93.90 118.47 94.07 119.93 94.16 C 120.00 95.45 120.02 96.74 120.00 98.04 C 117.00 98.02 114.02 98.13 111.04 97.96 C 107.46 95.63 112.52 85.41 108.97 83.07 C 107.64 82.98 106.31 82.92 104.98 82.88 C 105.43 81.47 104.10 78.37 106.06 78.16 C 111.57 78.70 107.76 70.89 109.02 68.07 Z" />
</g>
<g id="#06060aff">
<path fill="#06060a" opacity="1.00" d=" M 130.06 68.03 C 132.06 68.02 134.07 68.03 136.07 68.06 C 136.73 72.36 135.26 74.79 129.97 72.99 C 129.97 71.33 129.96 69.68 130.06 68.03 Z" />
</g>
<g id="#030405ff">
<path fill="#030405" opacity="1.00" d=" M 125.06 73.13 C 126.69 72.99 128.33 73.00 129.97 72.99 C 130.08 83.29 129.90 93.60 130.08 103.90 C 125.56 103.75 117.95 106.07 120.00 99.06 C 121.64 99.03 123.29 99.02 124.94 98.88 C 125.19 90.30 124.82 81.71 125.06 73.13 Z" />
</g>
<g id="#bbb7b3ff">
<path fill="#bbb7b3" opacity="1.00" d=" M 140.95 77.90 C 141.30 75.10 139.47 69.54 145.93 73.00 C 146.05 78.35 146.06 83.69 145.97 89.04 L 144.91 89.11 C 144.00 85.15 147.95 76.27 140.95 77.90 Z" />
</g>
<g id="#5783a7ff">
<path fill="#5783a7" opacity="1.00" d=" M 198.13 75.05 C 198.98 73.05 201.09 73.02 202.96 72.83 C 203.01 76.23 202.95 79.61 202.94 83.01 C 201.28 83.00 199.63 83.00 197.98 83.01 C 197.98 80.35 198.04 77.70 198.13 75.05 Z" />
</g>
<g id="#76b3d6ff">
<path fill="#76b3d6" opacity="1.00" d=" M 66.86 82.92 C 65.96 78.62 69.55 77.24 73.17 77.92 C 73.09 79.61 73.03 81.31 72.97 83.01 C 70.93 83.01 68.90 83.00 66.86 82.92 Z" />
</g>
<g id="#0a0b1fff">
<path fill="#0a0b1f" opacity="1.00" d=" M 73.17 77.92 C 77.28 77.03 78.88 79.05 78.05 83.05 C 76.36 83.03 74.66 83.02 72.97 83.01 C 73.03 81.31 73.09 79.61 73.17 77.92 Z" />
</g>
<g id="#d6d3cdff">
<path fill="#d6d3cd" opacity="1.00" d=" M 99.05 78.00 C 105.57 74.54 103.63 80.22 104.06 83.05 C 104.01 86.69 104.01 90.35 103.97 94.00 C 94.49 96.63 100.52 83.06 99.05 78.00 Z" />
</g>
<g id="#ece7e0ff">
<path fill="#ece7e0" opacity="1.00" d=" M 140.95 77.90 C 147.95 76.27 144.00 85.15 144.91 89.11 C 138.07 90.62 141.97 81.76 140.95 77.90 Z" />
</g>
<g id="#1e61a3ff">
<path fill="#1e61a3" opacity="1.00" d=" M 243.79 89.76 C 244.90 86.45 244.60 79.66 250.00 82.81 L 250.00 183.25 C 242.72 185.11 247.36 173.00 239.11 177.01 C 239.09 178.48 239.05 181.41 239.03 182.88 C 237.69 182.92 236.35 182.99 235.02 183.11 C 232.84 183.21 235.23 188.14 232.00 187.00 C 228.72 188.16 231.20 183.15 228.99 183.04 C 225.44 183.60 217.33 180.55 218.90 186.95 C 217.46 187.44 214.08 185.97 214.01 187.99 C 212.71 192.08 215.70 192.49 219.04 191.99 C 217.94 196.23 218.74 198.95 223.02 198.08 C 223.00 201.37 223.05 204.70 223.01 208.00 C 221.67 208.00 220.34 208.00 219.01 208.01 C 222.21 200.03 204.72 199.83 207.96 207.94 C 200.98 205.46 200.96 216.80 207.96 214.01 C 207.26 218.35 208.68 220.81 214.06 218.98 C 214.00 222.33 213.99 225.72 213.91 229.08 C 212.43 229.30 209.48 229.75 208.00 229.97 C 207.89 232.85 207.77 235.79 208.15 238.68 C 216.48 236.09 211.52 247.69 219.05 245.01 C 219.02 246.67 219.00 248.33 218.98 250.00 L 130.00 250.00 C 130.00 248.35 130.00 246.70 130.00 245.06 C 135.46 246.50 137.48 244.50 136.06 239.07 C 137.35 239.05 138.64 239.00 139.93 238.93 C 142.17 236.52 138.78 228.73 145.27 229.16 C 145.10 224.69 147.31 222.88 151.87 223.74 C 151.99 220.51 152.05 217.31 152.03 214.08 C 156.24 214.92 157.02 212.23 156.06 208.05 C 165.08 210.83 165.63 204.84 171.50 202.48 C 170.20 192.98 185.54 203.01 182.89 192.04 C 188.58 194.01 185.42 185.83 191.47 187.47 C 189.71 179.41 202.23 186.79 198.27 177.30 C 206.14 179.39 202.17 170.82 202.97 166.90 C 207.05 167.67 209.74 166.61 208.25 161.26 C 216.46 164.03 213.55 156.18 213.90 151.79 L 213.98 150.96 C 215.61 150.98 217.26 151.01 218.89 150.90 C 219.39 130.86 218.53 110.80 219.31 90.76 C 222.74 96.03 223.74 107.03 232.35 104.27 C 231.90 97.67 235.91 88.76 243.79 89.76 Z" />
</g>
<g id="#194545ff">
<path fill="#194545" opacity="1.00" d=" M 61.96 88.87 C 62.25 87.43 62.82 84.55 63.10 83.11 C 63.02 85.04 63.00 86.97 63.03 88.90 C 62.95 93.47 65.02 100.89 58.08 99.17 C 62.42 98.22 62.30 93.55 61.96 88.87 Z" />
</g>
<g id="#050b14ff">
<path fill="#050b14" opacity="1.00" d=" M 63.10 83.11 L 64.05 82.80 C 64.76 82.83 66.16 82.89 66.86 82.92 C 68.90 83.00 70.93 83.01 72.97 83.01 C 72.99 88.37 73.01 93.73 73.00 99.09 C 63.15 102.29 71.23 87.13 63.03 88.90 C 63.00 86.97 63.02 85.04 63.10 83.11 Z" />
</g>
<g id="#ababafff">
<path fill="#ababaf" opacity="1.00" d=" M 72.97 83.01 C 74.66 83.02 76.36 83.03 78.05 83.05 C 77.95 88.34 78.02 93.63 78.04 98.93 C 76.36 98.98 74.68 99.03 73.00 99.09 C 73.01 93.73 72.99 88.37 72.97 83.01 Z" />
</g>
<g id="#a4a19cff">
<path fill="#a4a19c" opacity="1.00" d=" M 104.06 83.05 L 104.98 82.88 C 105.57 87.40 105.23 91.10 103.97 94.00 C 104.01 90.35 104.01 86.69 104.06 83.05 Z" />
</g>
<g id="#272728ff">
<path fill="#272728" opacity="1.00" d=" M 108.97 83.07 C 112.52 85.41 107.46 95.63 111.04 97.96 C 114.02 98.13 117.00 98.02 120.00 98.04 L 120.00 99.06 C 116.35 98.99 112.69 98.96 109.05 98.92 C 108.97 93.64 109.00 88.35 108.97 83.07 Z" />
</g>
<g id="#2a78b7ff">
<path fill="#2a78b7" opacity="1.00" d=" M 0.00 83.89 C 3.67 84.16 7.53 83.75 11.00 85.17 C 11.65 88.57 7.92 90.65 7.51 92.53 C 14.66 94.74 13.13 107.56 22.70 103.91 C 24.74 102.16 25.97 99.45 25.56 96.64 C 27.01 99.26 26.36 103.51 30.06 103.98 C 35.83 106.92 35.08 98.33 39.93 99.00 C 43.31 99.47 42.39 104.32 39.01 104.01 C 34.87 103.49 35.64 109.42 39.00 109.01 C 46.48 111.57 45.86 103.58 47.26 99.28 C 50.98 99.43 50.79 95.90 52.09 94.13 C 52.01 99.08 51.99 104.04 52.00 108.99 C 44.03 105.79 43.84 123.26 51.94 120.05 C 51.29 124.31 52.67 126.81 57.99 125.05 C 57.99 128.35 58.00 131.68 58.01 134.99 L 57.99 135.97 C 54.06 136.95 45.52 133.17 46.89 139.98 C 37.95 140.05 29.00 139.84 20.06 140.05 C 20.02 141.78 20.12 143.52 20.19 145.26 C 17.50 145.90 12.67 143.62 10.95 145.99 L 10.69 146.82 C 10.88 150.77 7.15 150.73 5.20 152.02 C 5.86 155.87 3.27 156.50 0.00 156.13 L 0.00 83.89 Z" />
</g>
<g id="#040715ff">
<path fill="#040715" opacity="1.00" d=" M 52.09 94.13 C 60.05 97.46 55.63 87.29 61.96 88.87 C 62.30 93.55 62.42 98.22 58.08 99.17 C 57.33 103.57 60.71 112.46 52.00 108.99 C 51.99 104.04 52.01 99.08 52.09 94.13 Z" />
</g>
<g id="#219d72ff">
<path fill="#219d72" opacity="1.00" d=" M 63.03 88.90 C 71.23 87.13 63.15 102.29 73.00 99.09 C 73.00 100.71 73.00 102.33 73.00 103.95 C 67.88 102.29 66.34 104.59 66.80 108.80 C 63.20 108.65 60.95 110.44 63.29 113.83 C 68.20 114.04 73.12 114.08 78.03 113.95 C 76.16 119.33 78.66 120.75 82.99 120.01 C 82.25 124.34 83.67 126.81 89.05 125.05 C 86.59 131.52 94.78 148.42 83.03 146.11 C 81.58 145.60 78.19 147.00 78.07 145.02 C 81.34 145.49 84.25 145.04 83.00 141.04 C 82.93 138.98 79.47 140.45 78.00 139.93 C 78.00 138.64 78.00 137.34 78.00 136.05 C 84.99 138.57 85.08 127.20 78.06 130.00 C 78.94 125.89 77.11 124.06 73.00 124.94 C 74.84 114.31 57.85 122.55 51.94 120.05 C 51.97 116.36 52.01 112.68 52.00 108.99 C 60.71 112.46 57.33 103.57 58.08 99.17 C 65.02 100.89 62.95 93.47 63.03 88.90 Z" />
</g>
<g id="#0e0d0eff">
<path fill="#0e0d0e" opacity="1.00" d=" M 144.91 89.11 L 145.97 89.04 C 147.63 89.01 149.29 88.98 150.96 88.95 C 151.01 90.67 151.05 92.39 151.12 94.11 C 147.55 94.74 143.93 93.37 144.91 89.11 Z" />
</g>
<g id="#617f97ff">
<path fill="#617f97" opacity="1.00" d=" M 150.96 88.95 L 151.89 89.14 C 151.29 92.32 153.41 93.33 156.15 93.77 C 154.80 93.84 153.45 93.94 152.10 94.05 L 151.12 94.11 C 151.05 92.39 151.01 90.67 150.96 88.95 Z" />
</g>
<g id="#3a3838ff">
<path fill="#3a3838" opacity="1.00" d=" M 151.12 94.11 L 152.10 94.05 C 152.56 98.07 151.57 100.91 146.24 99.21 C 148.09 97.44 152.25 98.38 151.12 94.11 Z" />
</g>
<g id="#050305ff">
<path fill="#050305" opacity="1.00" d=" M 152.10 94.05 C 153.45 93.94 154.80 93.84 156.15 93.77 C 155.11 97.89 156.61 99.98 160.92 99.18 C 161.20 102.46 160.98 105.74 161.00 109.03 C 157.65 109.88 156.63 107.63 156.28 104.75 C 152.57 104.03 148.78 103.85 144.89 104.21 C 145.42 102.56 145.80 100.88 146.24 99.21 C 151.57 100.91 152.56 98.07 152.10 94.05 Z" />
</g>
<g id="#5e7e99ff">
<path fill="#5e7e99" opacity="1.00" d=" M 156.15 93.77 C 156.15 97.28 159.18 97.69 160.92 99.18 C 156.61 99.98 155.11 97.89 156.15 93.77 Z" />
</g>
<g id="#060d13ff">
<path fill="#060d13" opacity="1.00" d=" M 73.00 99.09 C 74.68 99.03 76.36 98.98 78.04 98.93 C 78.03 100.61 78.04 102.29 77.95 103.98 C 76.30 103.97 74.65 103.96 73.00 103.95 C 73.00 102.33 73.00 100.71 73.00 99.09 Z" />
</g>
<g id="#7db3d8ff">
<path fill="#7db3d8" opacity="1.00" d=" M 78.04 98.93 C 82.21 98.00 83.75 100.10 83.25 104.11 C 84.65 104.32 87.45 104.73 88.85 104.94 C 88.88 106.26 88.96 107.58 89.09 108.90 C 95.43 110.24 92.52 119.04 93.00 124.99 C 91.68 125.00 90.37 125.02 89.05 125.05 C 89.71 120.76 88.41 118.11 82.99 120.01 C 84.83 114.65 82.32 113.28 78.03 113.95 C 80.37 107.38 71.48 111.00 72.88 105.02 C 74.35 104.51 77.86 106.03 77.95 103.98 C 78.04 102.29 78.03 100.61 78.04 98.93 Z" />
</g>
<g id="#060a0dff">
<path fill="#060a0d" opacity="1.00" d=" M 106.98 104.03 C 102.04 104.75 104.84 96.74 109.05 98.92 C 108.61 100.76 110.23 104.89 106.98 104.03 Z" />
</g>
<g id="#2a5551ff">
<path fill="#2a5551" opacity="1.00" d=" M 66.80 108.80 C 66.34 104.59 67.88 102.29 73.00 103.95 C 74.65 103.96 76.30 103.97 77.95 103.98 C 77.86 106.03 74.35 104.51 72.88 105.02 C 68.82 103.74 68.21 106.63 66.80 108.80 Z" />
</g>
<g id="#495b6fff">
<path fill="#495b6f" opacity="1.00" d=" M 83.25 104.11 C 85.10 103.67 87.06 103.55 88.89 104.17 L 88.85 104.94 C 87.45 104.73 84.65 104.32 83.25 104.11 Z" />
</g>
<g id="#101012ff">
<path fill="#101012" opacity="1.00" d=" M 88.89 104.17 C 93.04 103.00 94.98 104.74 94.05 108.96 C 92.40 108.96 90.74 108.95 89.09 108.90 C 88.96 107.58 88.88 106.26 88.85 104.94 L 88.89 104.17 Z" />
</g>
<g id="#b5b2aeff">
<path fill="#b5b2ae" opacity="1.00" d=" M 130.08 103.90 C 131.55 103.97 134.51 104.11 135.98 104.17 C 138.93 112.61 122.50 109.76 119.99 109.03 C 123.48 108.74 132.08 111.06 130.25 104.74 L 130.08 103.90 Z" />
</g>
<g id="#d8d2ceff">
<path fill="#d8d2ce" opacity="1.00" d=" M 141.01 108.89 C 137.48 102.48 142.32 104.32 144.89 104.21 C 148.67 104.66 152.47 104.84 156.28 104.75 C 156.09 106.26 155.90 107.77 155.69 109.29 C 150.81 108.80 145.89 109.09 141.01 108.89 Z" />
</g>
<g id="#6d6866ff">
<path fill="#6d6866" opacity="1.00" d=" M 144.89 104.21 C 148.78 103.85 152.57 104.03 156.28 104.75 C 152.47 104.84 148.67 104.66 144.89 104.21 Z" />
</g>
<g id="#060915ff">
<path fill="#060915" opacity="1.00" d=" M 66.80 108.80 C 68.21 106.63 68.82 103.74 72.88 105.02 C 71.48 111.00 80.37 107.38 78.03 113.95 C 73.12 114.08 68.20 114.04 63.29 113.83 C 60.95 110.44 63.20 108.65 66.80 108.80 Z" />
</g>
<g id="#ece9e3ff">
<path fill="#ece9e3" opacity="1.00" d=" M 119.99 109.03 C 117.98 102.43 126.79 105.78 130.25 104.74 C 132.08 111.06 123.48 108.74 119.99 109.03 Z" />
</g>
<g id="#2f3f4bff">
<path fill="#2f3f4b" opacity="1.00" d=" M 156.28 104.75 C 156.63 107.63 157.65 109.88 161.00 109.03 C 176.35 109.74 194.07 107.54 207.95 110.02 C 192.29 110.02 176.62 109.88 160.96 110.13 C 159.19 109.96 157.42 109.71 155.69 109.29 C 155.90 107.77 156.09 106.26 156.28 104.75 Z" />
</g>
<g id="#060c18ff">
<path fill="#060c18" opacity="1.00" d=" M 51.94 120.05 C 43.84 123.26 44.03 105.79 52.00 108.99 C 52.01 112.68 51.97 116.36 51.94 120.05 Z" />
</g>
<g id="#5d86a4ff">
<path fill="#5d86a4" opacity="1.00" d=" M 89.09 108.90 C 90.74 108.95 92.40 108.96 94.05 108.96 C 94.01 114.31 93.99 119.66 94.00 125.01 L 93.00 124.99 C 92.52 119.04 95.43 110.24 89.09 108.90 Z" />
</g>
<g id="#0a0a0bff">
<path fill="#0a0a0b" opacity="1.00" d=" M 94.05 108.96 C 103.34 106.78 97.35 119.83 99.01 124.95 L 98.00 125.00 C 96.67 125.00 95.33 125.00 94.00 125.01 C 93.99 119.66 94.01 114.31 94.05 108.96 Z" />
</g>
<g id="#050303ff">
<path fill="#050303" opacity="1.00" d=" M 160.96 110.13 C 176.62 109.88 192.29 110.02 207.95 110.02 C 207.28 115.56 211.73 127.06 203.04 125.00 C 201.56 121.76 206.42 111.55 197.99 115.03 C 193.19 116.83 187.13 111.68 183.22 116.00 C 178.83 111.12 167.77 115.38 161.02 114.00 C 161.00 112.71 160.98 111.42 160.96 110.13 Z" />
<path fill="#050303" opacity="1.00" d=" M 145.88 172.10 C 147.57 172.03 149.27 171.97 150.97 172.04 C 151.01 180.75 150.98 189.47 151.03 198.19 C 141.77 200.05 148.10 187.67 145.24 182.78 C 142.45 181.41 139.06 182.28 136.05 181.94 C 135.96 180.31 135.99 178.69 136.01 177.08 C 139.01 176.99 141.99 176.96 144.99 176.77 C 146.97 176.44 146.08 173.49 145.88 172.10 Z" />
</g>
<g id="#0d273bff">
<path fill="#0d273b" opacity="1.00" d=" M 78.03 113.95 C 82.32 113.28 84.83 114.65 82.99 120.01 C 78.66 120.75 76.16 119.33 78.03 113.95 Z" />
</g>
<g id="#f7f6f6ff">
<path fill="#f7f6f6" opacity="1.00" d=" M 125.06 119.92 C 121.08 110.57 131.35 114.77 135.96 114.03 C 134.20 119.30 141.13 133.89 130.02 129.97 C 130.01 125.40 131.95 118.03 125.06 119.92 Z" />
</g>
<g id="#adadacff">
<path fill="#adadac" opacity="1.00" d=" M 145.39 119.82 C 144.47 118.38 144.18 114.93 145.91 114.25 C 146.03 116.09 146.08 117.95 145.98 119.80 L 145.39 119.82 Z" />
</g>
<g id="#faf9f9ff">
<path fill="#faf9f9" opacity="1.00" d=" M 145.91 114.25 C 149.13 115.42 159.60 110.44 156.04 119.00 C 155.10 122.85 159.06 132.17 152.02 129.98 C 150.95 127.43 153.55 121.47 150.97 120.06 C 149.31 119.92 147.65 119.87 145.98 119.80 C 146.08 117.95 146.03 116.09 145.91 114.25 Z" />
</g>
<g id="#9d9894ff">
<path fill="#9d9894" opacity="1.00" d=" M 161.02 114.00 C 167.77 115.38 178.83 111.12 183.22 116.00 C 182.69 117.12 183.82 120.00 182.00 119.88 C 183.78 109.35 166.88 117.56 161.02 115.00 L 161.02 114.00 Z" />
</g>
<g id="#2e0a03ff">
<path fill="#2e0a03" opacity="1.00" d=" M 183.22 116.00 C 187.13 111.68 193.19 116.83 197.99 115.03 C 206.42 111.55 201.56 121.76 203.04 125.00 C 193.34 121.84 202.60 138.22 192.97 136.13 L 192.07 136.14 C 188.96 136.03 185.87 136.12 182.79 135.76 L 183.28 135.20 C 189.75 136.81 188.93 129.20 186.73 125.30 C 183.46 125.04 180.08 125.20 176.93 124.12 C 175.86 120.07 178.66 119.59 182.00 119.88 C 183.82 120.00 182.69 117.12 183.22 116.00 Z" />
</g>
<g id="#d1ccc6ff">
<path fill="#d1ccc6" opacity="1.00" d=" M 161.02 115.00 C 166.88 117.56 183.78 109.35 182.00 119.88 C 178.66 119.59 175.86 120.07 176.93 124.12 C 176.89 126.12 176.84 128.11 176.80 130.11 C 175.46 126.75 177.52 121.93 174.75 119.17 C 170.16 119.21 165.59 119.84 161.01 120.07 C 160.99 118.37 160.99 116.68 161.02 115.00 Z" />
</g>
<g id="#e3dfd9ff">
<path fill="#e3dfd9" opacity="1.00" d=" M 161.01 120.07 C 165.59 119.84 170.16 119.21 174.75 119.17 C 177.52 121.93 175.46 126.75 176.80 130.11 C 177.47 133.21 175.50 138.09 179.06 139.92 C 178.57 140.21 177.60 140.78 177.11 141.06 C 177.00 142.36 176.94 143.66 176.91 144.97 C 164.95 145.04 152.99 144.98 141.02 145.01 C 140.97 143.56 140.87 142.12 140.73 140.69 C 139.60 140.72 137.33 140.78 136.20 140.81 C 136.04 142.20 135.92 143.58 135.84 144.98 C 134.42 145.20 131.58 145.64 130.15 145.86 C 129.94 149.19 129.79 152.58 130.06 155.93 C 136.63 154.07 138.44 169.91 130.01 167.02 C 123.31 164.53 123.22 174.38 129.95 172.01 C 129.29 176.29 130.65 178.82 136.01 177.08 C 135.99 178.69 135.96 180.31 136.05 181.94 C 136.38 185.17 142.74 182.11 145.24 182.78 C 144.44 187.70 146.37 194.68 144.02 197.99 C 147.27 189.71 139.58 192.25 135.02 192.00 C 131.75 192.44 128.92 192.06 129.97 188.07 C 130.96 183.92 129.19 182.01 125.00 182.99 C 126.91 177.83 123.73 174.47 119.89 172.13 C 107.87 176.77 119.43 158.96 110.02 160.89 C 110.11 154.31 109.64 147.71 110.13 141.14 C 112.56 140.83 117.40 140.21 119.83 139.90 C 120.21 138.53 119.74 136.80 120.77 135.69 C 133.39 134.89 149.95 138.22 160.96 134.97 C 161.20 130.00 160.94 125.03 161.01 120.07 Z" />
</g>
<g id="#040611ff">
<path fill="#040611" opacity="1.00" d=" M 51.94 120.05 C 57.85 122.55 74.84 114.31 73.00 124.94 C 68.00 124.98 63.00 124.98 57.99 125.05 C 52.67 126.81 51.29 124.31 51.94 120.05 Z" />
</g>
<g id="#070b1cff">
<path fill="#070b1c" opacity="1.00" d=" M 82.99 120.01 C 88.41 118.11 89.71 120.76 89.05 125.05 C 83.67 126.81 82.25 124.34 82.99 120.01 Z" />
</g>
<g id="#0d0a0aff">
<path fill="#0d0a0a" opacity="1.00" d=" M 125.06 119.92 C 131.95 118.03 130.01 125.40 130.02 129.97 C 122.94 132.27 125.15 124.48 125.06 119.92 Z" />
</g>
<g id="#110e0eff">
<path fill="#110e0e" opacity="1.00" d=" M 145.39 119.82 L 145.98 119.80 C 147.65 119.87 149.31 119.92 150.97 120.06 C 150.98 123.36 151.00 126.69 151.01 130.00 C 142.25 133.74 145.01 124.47 145.39 119.82 Z" />
</g>
<g id="#aaa7a8ff">
<path fill="#aaa7a8" opacity="1.00" d=" M 150.97 120.06 C 153.55 121.47 150.95 127.43 152.02 129.98 L 151.01 130.00 C 151.00 126.69 150.98 123.36 150.97 120.06 Z" />
</g>
<g id="#080403ff">
<path fill="#080403" opacity="1.00" d=" M 176.93 124.12 C 180.08 125.20 183.46 125.04 186.73 125.30 C 188.93 129.20 189.75 136.81 183.28 135.20 C 183.03 133.68 183.91 130.65 181.89 130.23 C 180.20 130.07 178.49 130.10 176.80 130.11 C 176.84 128.11 176.89 126.12 176.93 124.12 Z" />
</g>
<g id="#7db4dbff">
<path fill="#7db4db" opacity="1.00" d=" M 57.99 125.05 C 63.00 124.98 68.00 124.98 73.00 124.94 C 72.02 129.13 73.87 130.98 78.06 130.00 C 78.02 131.67 78.00 133.35 77.98 135.02 C 71.32 134.99 64.67 135.01 58.01 134.99 C 58.00 131.68 57.99 128.35 57.99 125.05 Z" />
</g>
<g id="#0a0c1fff">
<path fill="#0a0c1f" opacity="1.00" d=" M 73.00 124.94 C 77.11 124.06 78.94 125.89 78.06 130.00 C 73.87 130.98 72.02 129.13 73.00 124.94 Z" />
</g>
<g id="#04050fff">
<path fill="#04050f" opacity="1.00" d=" M 89.05 125.05 C 90.37 125.02 91.68 125.00 93.00 124.99 C 93.33 133.70 92.12 142.72 93.75 151.24 C 96.48 151.68 98.79 152.53 97.99 155.78 C 89.00 154.11 98.86 170.12 89.06 167.02 C 87.20 161.61 93.90 147.45 82.84 151.07 C 82.91 149.41 82.97 147.76 83.03 146.11 C 94.78 148.42 86.59 131.52 89.05 125.05 Z" />
</g>
<g id="#1c273eff">
<path fill="#1c273e" opacity="1.00" d=" M 93.00 124.99 L 94.00 125.01 C 93.91 133.75 94.29 142.51 93.75 151.24 C 92.12 142.72 93.33 133.70 93.00 124.99 Z" />
</g>
<g id="#80b8dfff">
<path fill="#80b8df" opacity="1.00" d=" M 94.00 125.01 C 95.33 125.00 96.67 125.00 98.00 125.00 C 98.00 133.65 97.99 142.32 98.01 150.98 C 96.59 151.06 95.17 151.15 93.75 151.24 C 94.29 142.51 93.91 133.75 94.00 125.01 Z" />
</g>
<g id="#5c768fff">
<path fill="#5c768f" opacity="1.00" d=" M 98.00 125.00 L 99.01 124.95 C 98.99 133.62 99.00 142.29 99.00 150.97 L 98.01 150.98 C 97.99 142.32 98.00 133.65 98.00 125.00 Z" />
</g>
<g id="#060714ff">
<path fill="#060714" opacity="1.00" d=" M 99.01 124.95 C 100.66 124.96 102.33 124.95 103.98 125.04 C 104.07 133.76 103.77 142.49 104.21 151.20 C 102.47 151.13 100.73 151.04 99.00 150.97 C 99.00 142.29 98.99 133.62 99.01 124.95 Z" />
</g>
<g id="#3a3b42ff">
<path fill="#3a3b42" opacity="1.00" d=" M 103.98 125.04 C 106.49 131.52 104.97 143.39 104.21 151.20 C 103.77 142.49 104.07 133.76 103.98 125.04 Z" />
</g>
<g id="#080507ff">
<path fill="#080507" opacity="1.00" d=" M 192.97 136.13 C 202.60 138.22 193.34 121.84 203.04 125.00 C 203.00 127.65 202.90 132.94 202.86 135.59 C 197.38 133.25 198.45 137.49 197.79 139.94 C 194.57 140.51 191.98 139.96 192.97 136.13 Z" />
</g>
<g id="#070e13ff">
<path fill="#070e13" opacity="1.00" d=" M 78.06 130.00 C 85.08 127.20 84.99 138.57 78.00 136.05 L 77.98 135.02 C 78.00 133.35 78.02 131.67 78.06 130.00 Z" />
</g>
<g id="#cfcac6ff">
<path fill="#cfcac6" opacity="1.00" d=" M 176.80 130.11 C 178.49 130.10 180.20 130.07 181.89 130.23 C 182.12 131.62 182.56 134.38 182.79 135.76 C 185.87 136.12 188.96 136.03 192.07 136.14 C 193.40 143.37 183.58 139.04 179.06 139.92 C 175.50 138.09 177.47 133.21 176.80 130.11 Z" />
</g>
<g id="#848280ff">
<path fill="#848280" opacity="1.00" d=" M 181.89 130.23 C 183.91 130.65 183.03 133.68 183.28 135.20 L 182.79 135.76 C 182.56 134.38 182.12 131.62 181.89 130.23 Z" />
</g>
<g id="#6e89a5ff">
<path fill="#6e89a5" opacity="1.00" d=" M 58.01 134.99 C 64.67 135.01 71.32 134.99 77.98 135.02 L 78.00 136.05 C 71.33 135.98 64.66 136.05 57.99 135.97 L 58.01 134.99 Z" />
</g>
<g id="#8a8783ff">
<path fill="#8a8783" opacity="1.00" d=" M 120.77 135.69 C 133.87 133.47 147.65 135.90 160.96 134.97 C 149.95 138.22 133.39 134.89 120.77 135.69 Z" />
</g>
<g id="#040310ff">
<path fill="#040310" opacity="1.00" d=" M 46.89 139.98 C 45.52 133.17 54.06 136.95 57.99 135.97 C 64.66 136.05 71.33 135.98 78.00 136.05 C 78.00 137.34 78.00 138.64 78.00 139.93 C 69.26 140.35 60.25 139.16 51.67 140.73 C 50.14 150.66 51.40 160.93 51.02 170.99 C 54.42 177.11 49.64 175.71 47.03 176.05 C 46.71 166.04 47.30 156.02 46.95 146.01 C 43.76 143.30 35.77 145.76 31.06 145.06 C 31.01 157.68 30.77 170.32 31.11 182.93 C 37.38 180.58 55.06 189.17 52.05 176.97 C 57.34 175.17 58.51 177.78 58.15 181.94 C 59.49 183.94 64.83 182.19 62.95 186.82 C 57.18 187.05 58.74 194.44 52.08 192.00 C 52.06 190.66 52.01 189.33 51.94 188.00 C 48.61 186.14 45.31 186.14 42.02 188.00 C 41.90 192.98 41.98 197.99 42.00 202.98 L 41.00 203.01 C 39.67 203.00 38.33 203.00 37.00 202.99 L 36.00 202.93 C 35.96 197.96 36.21 192.99 35.95 188.02 C 27.45 185.51 14.98 187.76 5.00 186.98 C 5.00 185.66 5.00 184.34 5.00 183.02 C 12.31 182.96 19.63 183.15 26.93 182.93 C 26.65 172.55 28.01 161.84 26.34 151.64 C 21.71 148.88 9.64 155.25 10.69 146.82 L 10.95 145.99 C 13.99 145.72 17.39 146.79 20.19 145.26 C 22.58 134.58 40.97 145.35 46.89 139.98 Z" />
<path fill="#040310" opacity="1.00" d=" M 47.03 192.94 C 48.66 192.97 50.30 192.99 51.93 193.14 C 52.13 205.04 52.10 216.94 51.78 228.83 C 50.76 235.84 50.96 242.94 50.98 250.00 L 47.00 250.00 C 46.98 234.33 47.04 218.66 46.98 203.00 C 47.02 199.65 46.99 196.28 47.03 192.94 Z" />
</g>
<g id="#676a6fff">
<path fill="#676a6f" opacity="1.00" d=" M 192.07 136.14 L 192.97 136.13 C 191.98 139.96 194.57 140.51 197.79 139.94 C 195.63 141.14 192.21 141.38 192.31 145.28 C 193.23 137.20 182.40 141.95 177.11 141.06 C 177.60 140.78 178.57 140.21 179.06 139.92 C 183.58 139.04 193.40 143.37 192.07 136.14 Z" />
</g>
<g id="#1f4b79ff">
<path fill="#1f4b79" opacity="1.00" d=" M 20.06 140.05 C 29.00 139.84 37.95 140.05 46.89 139.98 C 40.97 145.35 22.58 134.58 20.19 145.26 C 20.12 143.52 20.02 141.78 20.06 140.05 Z" />
</g>
<g id="#0a453bff">
<path fill="#0a453b" opacity="1.00" d=" M 51.67 140.73 C 60.25 139.16 69.26 140.35 78.00 139.93 C 79.47 140.45 82.93 138.98 83.00 141.04 C 81.31 141.01 79.62 141.00 77.93 141.01 C 69.17 140.84 60.40 141.35 51.67 140.73 Z" />
</g>
<g id="#a5a4a0ff">
<path fill="#a5a4a0" opacity="1.00" d=" M 109.09 140.10 C 111.77 140.05 117.14 139.95 119.83 139.90 C 117.40 140.21 112.56 140.83 110.13 141.14 C 109.64 147.71 110.11 154.31 110.02 160.89 C 107.01 156.20 109.92 146.33 109.09 140.10 Z" />
</g>
<g id="#9c9893ff">
<path fill="#9c9893" opacity="1.00" d=" M 136.20 140.81 C 137.33 140.78 139.60 140.72 140.73 140.69 L 140.20 141.32 C 138.84 141.38 137.50 141.21 136.20 140.81 Z" />
</g>
<g id="#163826ff">
<path fill="#163826" opacity="1.00" d=" M 51.02 170.99 C 51.40 160.93 50.14 150.66 51.67 140.73 C 51.87 142.73 52.04 144.74 52.22 146.76 C 52.03 155.46 51.93 164.17 51.98 172.88 C 51.98 174.24 52.01 175.60 52.05 176.97 L 51.07 177.06 C 49.90 176.59 46.86 177.96 47.03 176.05 C 49.64 175.71 54.42 177.11 51.02 170.99 Z" />
</g>
<g id="#20c589ff">
<path fill="#20c589" opacity="1.00" d=" M 51.67 140.73 C 60.40 141.35 69.17 140.84 77.93 141.01 C 77.94 142.35 77.99 143.68 78.07 145.02 C 78.19 147.00 81.58 145.60 83.03 146.11 C 82.97 147.76 82.91 149.41 82.84 151.07 C 73.01 150.67 63.13 151.55 53.32 150.79 C 52.90 149.46 52.57 148.11 52.22 146.76 C 52.04 144.74 51.87 142.73 51.67 140.73 Z" />
</g>
<g id="#03070dff">
<path fill="#03070d" opacity="1.00" d=" M 77.93 141.01 C 79.62 141.00 81.31 141.01 83.00 141.04 C 84.25 145.04 81.34 145.49 78.07 145.02 C 77.99 143.68 77.94 142.35 77.93 141.01 Z" />
</g>
<g id="#0b0606ff">
<path fill="#0b0606" opacity="1.00" d=" M 136.20 140.81 C 137.50 141.21 138.84 141.38 140.20 141.32 C 140.81 144.82 139.27 146.28 135.87 145.67 L 135.84 144.98 C 135.92 143.58 136.04 142.20 136.20 140.81 Z" />
</g>
<g id="#59202bff">
<path fill="#59202b" opacity="1.00" d=" M 140.20 141.32 L 140.73 140.69 C 140.87 142.12 140.97 143.56 141.02 145.01 L 141.03 146.01 C 138.01 159.01 163.75 143.01 161.06 155.93 C 153.89 153.25 158.62 164.03 151.35 160.93 L 150.63 156.09 C 141.14 153.12 139.39 158.67 140.94 167.01 L 139.99 166.99 C 139.03 163.09 142.90 154.25 136.00 155.94 C 135.97 152.50 135.98 149.09 135.87 145.67 C 139.27 146.28 140.81 144.82 140.20 141.32 Z" />
</g>
<g id="#040404ff">
<path fill="#040404" opacity="1.00" d=" M 177.11 141.06 C 182.40 141.95 193.23 137.20 192.31 145.28 C 187.17 145.13 182.04 145.03 176.91 144.97 C 176.94 143.66 177.00 142.36 177.11 141.06 Z" />
</g>
<g id="#1f3d65ff">
<path fill="#1f3d65" opacity="1.00" d=" M 10.95 145.99 C 12.67 143.62 17.50 145.90 20.19 145.26 C 17.39 146.79 13.99 145.72 10.95 145.99 Z" />
</g>
<g id="#9b562dff">
<path fill="#9b562d" opacity="1.00" d=" M 31.06 145.06 C 35.77 145.76 43.76 143.30 46.95 146.01 C 41.99 146.06 37.02 145.72 32.07 146.12 C 31.91 158.06 31.89 170.00 32.07 181.94 C 37.62 179.94 52.82 187.10 51.07 177.06 L 52.05 176.97 C 55.06 189.17 37.38 180.58 31.11 182.93 C 30.77 170.32 31.01 157.68 31.06 145.06 Z" />
</g>
<g id="#74716fff">
<path fill="#74716f" opacity="1.00" d=" M 130.15 145.86 C 131.58 145.64 134.42 145.20 135.84 144.98 L 135.87 145.67 C 134.06 146.47 132.02 146.38 130.15 145.86 Z" />
</g>
<g id="#62666bff">
<path fill="#62666b" opacity="1.00" d=" M 141.02 145.01 C 152.99 144.98 164.95 145.04 176.91 144.97 C 182.04 145.03 187.17 145.13 192.31 145.28 C 187.49 147.13 182.06 145.50 177.05 146.03 C 165.04 145.95 153.03 146.01 141.03 146.01 L 141.02 145.01 Z" />
</g>
<g id="#ee7d29ff">
<path fill="#ee7d29" opacity="1.00" d=" M 32.07 146.12 C 37.02 145.72 41.99 146.06 46.95 146.01 C 47.30 156.02 46.71 166.04 47.03 176.05 C 46.86 177.96 49.90 176.59 51.07 177.06 C 52.82 187.10 37.62 179.94 32.07 181.94 C 31.89 170.00 31.91 158.06 32.07 146.12 Z" />
</g>
<g id="#080404ff">
<path fill="#080404" opacity="1.00" d=" M 130.15 145.86 C 132.02 146.38 134.06 146.47 135.87 145.67 C 135.98 149.09 135.97 152.50 136.00 155.94 C 134.02 155.96 132.03 155.96 130.06 155.93 C 129.79 152.58 129.94 149.19 130.15 145.86 Z" />
</g>
<g id="#040304ff">
<path fill="#040304" opacity="1.00" d=" M 141.03 146.01 C 153.03 146.01 165.04 145.95 177.05 146.03 C 177.04 147.67 177.04 149.31 176.95 150.95 C 174.46 152.05 168.37 149.43 167.06 152.05 C 166.99 153.35 166.95 154.66 166.94 155.96 C 164.98 155.97 163.02 155.96 161.06 155.93 C 163.75 143.01 138.01 159.01 141.03 146.01 Z" />
</g>
<g id="#245b5eff">
<path fill="#245b5e" opacity="1.00" d=" M 5.20 152.02 C 7.15 150.73 10.88 150.77 10.69 146.82 C 9.64 155.25 21.71 148.88 26.34 151.64 C 21.83 153.77 9.55 147.91 10.80 156.23 C 10.73 152.68 8.61 151.29 5.20 152.02 Z" />
</g>
<g id="#28e8a4ff">
<path fill="#28e8a4" opacity="1.00" d=" M 52.22 146.76 C 52.57 148.11 52.90 149.46 53.32 150.79 C 63.13 151.55 73.01 150.67 82.84 151.07 C 84.19 151.48 86.90 152.31 88.25 152.72 C 77.47 148.55 88.44 165.18 78.10 161.19 C 73.74 160.26 74.20 165.68 71.31 167.29 C 66.59 173.72 58.80 170.86 51.98 172.88 C 51.93 164.17 52.03 155.46 52.22 146.76 Z" />
</g>
<g id="#24be87ff">
<path fill="#24be87" opacity="1.00" d=" M 82.84 151.07 C 93.90 147.45 87.20 161.61 89.06 167.02 C 83.62 165.14 82.25 167.68 83.00 172.03 C 78.41 171.98 70.98 170.03 72.96 176.97 C 71.32 176.97 69.68 176.96 68.04 177.08 C 68.64 183.11 62.86 182.11 58.15 181.94 C 58.51 177.78 57.34 175.17 52.05 176.97 C 52.01 175.60 51.98 174.24 51.98 172.88 C 58.80 170.86 66.59 173.72 71.31 167.29 C 74.20 165.68 73.74 160.26 78.10 161.19 C 88.44 165.18 77.47 148.55 88.25 152.72 C 86.90 152.31 84.19 151.48 82.84 151.07 Z" />
</g>
<g id="#343846ff">
<path fill="#343846" opacity="1.00" d=" M 93.75 151.24 C 95.17 151.15 96.59 151.06 98.01 150.98 L 99.00 150.97 C 100.73 151.04 102.47 151.13 104.21 151.20 C 99.40 150.02 99.66 153.95 97.99 155.78 C 98.79 152.53 96.48 151.68 93.75 151.24 Z" />
</g>
<g id="#5a778cff">
<path fill="#5a778c" opacity="1.00" d=" M 167.06 152.05 C 168.37 149.43 174.46 152.05 176.95 150.95 C 175.65 153.57 169.52 150.93 167.06 152.05 Z" />
</g>
<g id="#040917ff">
<path fill="#040917" opacity="1.00" d=" M 5.20 152.02 C 8.61 151.29 10.73 152.68 10.80 156.23 C 13.07 161.86 7.13 159.96 5.15 161.89 C 5.05 165.24 4.97 168.63 5.00 172.00 C 4.98 175.32 4.99 178.66 5.00 181.98 C 3.33 182.00 1.67 182.00 0.00 182.01 L 0.00 156.13 C 3.27 156.50 5.86 155.87 5.20 152.02 Z" />
</g>
<g id="#22c188ff">
<path fill="#22c188" opacity="1.00" d=" M 10.80 156.23 C 9.55 147.91 21.83 153.77 26.34 151.64 C 26.18 153.03 26.02 154.42 25.87 155.81 C 28.07 166.30 11.93 155.50 14.51 166.87 C 11.01 166.26 3.52 168.91 5.15 161.89 C 7.13 159.96 13.07 161.86 10.80 156.23 Z" />
</g>
<g id="#215548ff">
<path fill="#215548" opacity="1.00" d=" M 26.34 151.64 C 28.01 161.84 26.65 172.55 26.93 182.93 C 19.63 183.15 12.31 182.96 5.00 183.02 C 3.33 182.99 1.67 182.99 0.00 182.99 L 0.00 182.01 C 1.67 182.00 3.33 182.00 5.00 181.98 C 11.28 179.60 28.56 187.74 25.85 176.25 C 25.97 169.43 26.02 162.62 25.87 155.81 C 26.02 154.42 26.18 153.03 26.34 151.64 Z" />
</g>
<g id="#5c95cdff">
<path fill="#5c95cd" opacity="1.00" d=" M 203.16 157.23 C 207.32 155.54 211.75 156.42 213.90 151.79 C 213.55 156.18 216.46 164.03 208.25 161.26 C 209.74 166.61 207.05 167.67 202.97 166.90 C 202.97 163.68 202.99 160.44 203.16 157.23 Z" />
</g>
<g id="#2ce7a5ff">
<path fill="#2ce7a5" opacity="1.00" d=" M 14.51 166.87 C 11.93 155.50 28.07 166.30 25.87 155.81 C 26.02 162.62 25.97 169.43 25.85 176.25 C 24.35 167.50 11.79 173.41 5.00 172.00 C 4.97 168.63 5.05 165.24 5.15 161.89 C 3.52 168.91 11.01 166.26 14.51 166.87 Z" />
</g>
<g id="#cac5c1ff">
<path fill="#cac5c1" opacity="1.00" d=" M 130.06 155.93 C 132.03 155.96 134.02 155.96 136.00 155.94 C 137.00 159.79 133.04 168.89 139.99 166.99 L 140.94 167.01 C 140.42 170.46 141.16 173.08 145.20 172.13 C 144.87 173.65 144.87 175.22 144.99 176.77 C 141.99 176.96 139.01 176.99 136.01 177.08 C 136.74 172.74 135.41 170.10 129.95 172.01 C 129.97 170.35 129.99 168.68 130.01 167.02 C 138.44 169.91 136.63 154.07 130.06 155.93 Z" />
</g>
<g id="#050304ff">
<path fill="#050304" opacity="1.00" d=" M 136.00 155.94 C 142.90 154.25 139.03 163.09 139.99 166.99 C 133.04 168.89 137.00 159.79 136.00 155.94 Z" />
</g>
<g id="#b63d53ff">
<path fill="#b63d53" opacity="1.00" d=" M 140.94 167.01 C 139.39 158.67 141.14 153.12 150.63 156.09 L 151.35 160.93 C 158.62 164.03 153.89 153.25 161.06 155.93 C 163.02 155.96 164.98 155.97 166.94 155.96 C 166.99 162.97 167.05 169.98 166.98 176.99 C 165.00 177.00 163.01 177.02 161.03 177.06 C 159.52 173.82 164.48 163.42 156.01 167.00 C 155.90 171.82 154.08 178.95 161.03 177.06 C 161.03 179.69 161.01 184.96 161.01 187.59 C 158.00 187.61 155.01 187.32 152.03 186.98 C 150.97 182.66 153.82 174.87 150.97 172.04 C 149.27 171.97 147.57 172.03 145.88 172.10 C 147.01 167.87 145.18 166.00 140.94 167.01 Z" />
</g>
<g id="#0b0506ff">
<path fill="#0b0506" opacity="1.00" d=" M 166.94 155.96 C 168.61 155.98 170.27 155.98 171.93 156.11 C 172.11 168.03 172.09 179.95 171.93 191.87 C 170.30 192.00 168.67 192.00 167.05 192.02 C 167.00 187.00 167.03 182.00 166.98 176.99 C 167.05 169.98 166.99 162.97 166.94 155.96 Z" />
</g>
<g id="#040910ff">
<path fill="#040910" opacity="1.00" d=" M 83.00 172.03 C 82.25 167.68 83.62 165.14 89.06 167.02 C 89.71 171.29 88.35 173.83 83.00 172.03 Z" />
</g>
<g id="#080808ff">
<path fill="#080808" opacity="1.00" d=" M 129.95 172.01 C 123.22 174.38 123.31 164.53 130.01 167.02 C 129.99 168.68 129.97 170.35 129.95 172.01 Z" />
</g>
<g id="#1a0b0cff">
<path fill="#1a0b0c" opacity="1.00" d=" M 140.94 167.01 C 145.18 166.00 147.01 167.87 145.88 172.10 L 145.20 172.13 C 141.16 173.08 140.42 170.46 140.94 167.01 Z" />
</g>
<g id="#410807ff">
<path fill="#410807" opacity="1.00" d=" M 156.01 167.00 C 164.48 163.42 159.52 173.82 161.03 177.06 C 154.08 178.95 155.90 171.82 156.01 167.00 Z" />
</g>
<g id="#6398ccff">
<path fill="#6398cc" opacity="1.00" d=" M 192.76 172.75 C 198.39 173.98 197.93 166.24 202.97 166.90 C 202.17 170.82 206.14 179.39 198.27 177.30 C 202.23 186.79 189.71 179.41 191.47 187.47 C 185.42 185.83 188.58 194.01 182.89 192.04 C 182.39 188.15 182.24 183.24 186.35 181.39 C 187.18 176.85 192.61 177.48 192.76 172.75 Z" />
</g>
<g id="#22bf88ff">
<path fill="#22bf88" opacity="1.00" d=" M 5.00 172.00 C 11.79 173.41 24.35 167.50 25.85 176.25 C 28.56 187.74 11.28 179.60 5.00 181.98 C 4.99 178.66 4.98 175.32 5.00 172.00 Z" />
</g>
<g id="#070913ff">
<path fill="#070913" opacity="1.00" d=" M 72.96 176.97 C 70.98 170.03 78.41 171.98 83.00 172.03 C 85.06 178.99 77.55 177.00 72.96 176.97 Z" />
</g>
<g id="#c9c5c1ff">
<path fill="#c9c5c1" opacity="1.00" d=" M 119.89 172.13 C 123.73 174.47 126.91 177.83 125.00 182.99 C 117.66 185.10 120.32 176.88 119.89 172.13 Z" />
</g>
<g id="#121211ff">
<path fill="#121211" opacity="1.00" d=" M 129.95 172.01 C 135.41 170.10 136.74 172.74 136.01 177.08 C 130.65 178.82 129.29 176.29 129.95 172.01 Z" />
</g>
<g id="#686262ff">
<path fill="#686262" opacity="1.00" d=" M 145.20 172.13 L 145.88 172.10 C 146.08 173.49 146.97 176.44 144.99 176.77 C 144.87 175.22 144.87 173.65 145.20 172.13 Z" />
</g>
<g id="#853a46ff">
<path fill="#853a46" opacity="1.00" d=" M 150.97 172.04 C 153.82 174.87 150.97 182.66 152.03 186.98 C 151.99 190.62 152.02 194.29 152.06 197.94 C 151.81 198.26 151.31 198.90 151.05 199.21 L 151.03 198.19 C 150.98 189.47 151.01 180.75 150.97 172.04 Z" />
</g>
<g id="#545452ff">
<path fill="#545452" opacity="1.00" d=" M 58.15 181.94 C 62.86 182.11 68.64 183.11 68.04 177.08 C 66.11 182.40 68.74 183.64 72.91 183.09 C 71.46 188.93 79.01 187.95 82.50 188.36 C 83.24 191.30 83.96 194.46 88.39 193.58 C 87.48 199.36 95.38 197.00 94.38 202.81 C 99.19 203.11 106.38 201.01 104.99 207.96 C 105.02 209.87 105.06 211.79 105.16 213.70 C 104.84 213.63 104.19 213.50 103.86 213.43 C 106.75 204.10 94.45 209.07 89.15 208.06 C 89.11 209.54 89.04 212.50 89.01 213.99 C 80.92 209.73 80.76 222.19 88.93 218.01 C 87.47 218.27 84.54 218.79 83.07 219.05 C 81.38 219.01 79.69 218.97 78.00 218.98 C 71.45 216.73 71.43 225.21 77.99 223.06 L 78.01 224.02 C 76.37 224.02 74.73 223.99 73.08 224.01 C 67.71 222.10 66.28 224.65 66.89 228.97 C 65.63 228.98 64.37 228.98 63.10 228.98 C 62.99 226.71 63.56 222.37 60.00 222.95 C 56.44 222.38 57.01 226.71 56.91 228.98 C 55.20 228.97 53.49 228.91 51.78 228.83 C 52.10 216.94 52.13 205.04 51.93 193.14 C 50.30 192.99 48.66 192.97 47.03 192.94 L 47.03 191.99 C 48.71 192.01 50.39 192.03 52.08 192.00 C 58.74 194.44 57.18 187.05 62.95 186.82 C 64.83 182.19 59.49 183.94 58.15 181.94 Z" />
</g>
<g id="#09080cff">
<path fill="#09080c" opacity="1.00" d=" M 68.04 177.08 C 69.68 176.96 71.32 176.97 72.96 176.97 C 72.97 179.01 72.94 181.05 72.91 183.09 C 68.74 183.64 66.11 182.40 68.04 177.08 Z" />
</g>
<g id="#f35770ff">
<path fill="#f35770" opacity="1.00" d=" M 161.03 177.06 C 163.01 177.02 165.00 177.00 166.98 176.99 C 167.03 182.00 167.00 187.00 167.05 192.02 C 161.47 190.46 159.46 192.48 161.01 198.05 C 158.02 198.00 155.05 197.99 152.06 197.94 C 152.02 194.29 151.99 190.62 152.03 186.98 C 155.01 187.32 158.00 187.61 161.01 187.59 C 161.01 184.96 161.03 179.69 161.03 177.06 Z" />
</g>
<g id="#040909ff">
<path fill="#040909" opacity="1.00" d=" M 239.11 177.01 C 247.36 173.00 242.72 185.11 250.00 183.25 L 250.00 191.75 C 242.78 189.97 247.21 201.86 238.93 197.90 C 239.00 196.51 239.14 193.74 239.21 192.35 C 248.22 196.59 247.30 177.95 239.03 182.88 C 239.05 181.41 239.09 178.48 239.11 177.01 Z" />
</g>
<g id="#555452ff">
<path fill="#555452" opacity="1.00" d=" M 136.05 181.94 C 139.06 182.28 142.45 181.41 145.24 182.78 C 142.74 182.11 136.38 185.17 136.05 181.94 Z" />
</g>
<g id="#366a99ff">
<path fill="#366a99" opacity="1.00" d=" M 0.00 182.99 C 1.67 182.99 3.33 182.99 5.00 183.02 C 5.00 184.34 5.00 185.66 5.00 186.98 C 3.33 187.00 1.67 187.01 0.00 187.03 L 0.00 182.99 Z" />
</g>
<g id="#c2bebaff">
<path fill="#c2beba" opacity="1.00" d=" M 125.00 182.99 C 129.19 182.01 130.96 183.92 129.97 188.07 C 125.86 188.94 124.05 187.09 125.00 182.99 Z" />
</g>
<g id="#020206ff">
<path fill="#020206" opacity="1.00" d=" M 218.90 186.95 C 217.33 180.55 225.44 183.60 228.99 183.04 C 230.72 189.50 222.80 186.42 218.90 186.95 Z" />
</g>
<g id="#1d502dff">
<path fill="#1d502d" opacity="1.00" d=" M 228.99 183.04 C 231.20 183.15 228.72 188.16 232.00 187.00 C 235.23 188.14 232.84 183.21 235.02 183.11 C 233.06 188.57 241.10 188.25 239.03 182.88 C 247.30 177.95 248.22 196.59 239.21 192.35 C 239.14 193.74 239.00 196.51 238.93 197.90 C 237.26 198.13 235.59 198.43 233.96 198.87 L 233.95 197.98 C 233.16 194.58 236.57 185.97 230.08 188.03 C 229.96 191.34 229.94 194.69 230.02 198.00 C 228.92 200.52 231.55 206.58 228.99 207.95 C 229.02 203.36 230.94 196.00 224.04 197.95 C 225.83 192.57 223.28 191.29 219.04 191.99 C 220.07 188.00 217.33 187.49 214.01 187.99 C 214.08 185.97 217.46 187.44 218.90 186.95 C 222.80 186.42 230.72 189.50 228.99 183.04 Z" />
</g>
<g id="#020304ff">
<path fill="#020304" opacity="1.00" d=" M 235.02 183.11 C 236.35 182.99 237.69 182.92 239.03 182.88 C 241.10 188.25 233.06 188.57 235.02 183.11 Z" />
</g>
<g id="#1d1e29ff">
<path fill="#1d1e29" opacity="1.00" d=" M 0.00 187.03 C 1.67 187.01 3.33 187.00 5.00 186.98 C 14.98 187.76 27.45 185.51 35.95 188.02 C 25.80 188.06 15.64 187.74 5.49 188.18 C 5.19 191.55 3.53 194.40 0.00 192.18 L 0.00 187.03 Z" />
</g>
<g id="#6c4d42ff">
<path fill="#6c4d42" opacity="1.00" d=" M 42.02 188.00 C 45.31 186.14 48.61 186.14 51.94 188.00 C 50.28 187.99 48.63 188.00 46.98 188.02 C 45.33 188.00 43.67 187.99 42.02 188.00 Z" />
</g>
<g id="#575554ff">
<path fill="#575554" opacity="1.00" d=" M 5.49 188.18 C 15.64 187.74 25.80 188.06 35.95 188.02 C 36.21 192.99 35.96 197.96 36.00 202.93 C 34.35 202.97 32.70 202.99 31.07 203.15 C 30.76 213.34 31.26 223.54 30.90 233.74 C 24.73 231.05 26.32 236.11 25.91 238.86 C 20.17 237.06 22.08 243.01 19.99 244.94 C 24.20 236.73 11.74 236.94 15.94 245.03 C 10.63 245.03 5.31 245.00 0.00 245.00 L 0.00 192.18 C 3.53 194.40 5.19 191.55 5.49 188.18 Z" />
</g>
<g id="#f38536ff">
<path fill="#f38536" opacity="1.00" d=" M 42.02 188.00 C 43.67 187.99 45.33 188.00 46.98 188.02 C 46.99 189.34 47.00 190.66 47.03 191.99 L 47.03 192.94 C 46.99 196.28 47.02 199.65 46.98 203.00 C 45.65 203.00 44.33 203.00 43.00 203.01 L 42.00 202.98 C 41.98 197.99 41.90 192.98 42.02 188.00 Z" />
</g>
<g id="#b4b4b7ff">
<path fill="#b4b4b7" opacity="1.00" d=" M 46.98 188.02 C 48.63 188.00 50.28 187.99 51.94 188.00 C 52.01 189.33 52.06 190.66 52.08 192.00 C 50.39 192.03 48.71 192.01 47.03 191.99 C 47.00 190.66 46.99 189.34 46.98 188.02 Z" />
</g>
<g id="#030911ff">
<path fill="#030911" opacity="1.00" d=" M 214.01 187.99 C 217.33 187.49 220.07 188.00 219.04 191.99 C 215.70 192.49 212.71 192.08 214.01 187.99 Z" />
</g>
<g id="#020204ff">
<path fill="#020204" opacity="1.00" d=" M 230.08 188.03 C 236.57 185.97 233.16 194.58 233.95 197.98 C 232.64 197.99 231.33 198.00 230.02 198.00 C 229.94 194.69 229.96 191.34 230.08 188.03 Z" />
</g>
<g id="#cbc7c3ff">
<path fill="#cbc7c3" opacity="1.00" d=" M 135.02 192.00 C 139.58 192.25 147.27 189.71 144.02 197.99 C 139.10 198.64 134.23 198.52 135.02 192.00 Z" />
</g>
<g id="#1a0a0dff">
<path fill="#1a0a0d" opacity="1.00" d=" M 161.01 198.05 C 159.46 192.48 161.47 190.46 167.05 192.02 C 168.50 197.49 166.49 199.50 161.01 198.05 Z" />
</g>
<g id="#080f0cff">
<path fill="#080f0c" opacity="1.00" d=" M 219.04 191.99 C 223.28 191.29 225.83 192.57 224.04 197.95 L 223.02 198.08 C 218.74 198.95 217.94 196.23 219.04 191.99 Z" />
</g>
<g id="#1c4d27ff">
<path fill="#1c4d27" opacity="1.00" d=" M 238.93 197.90 C 247.21 201.86 242.78 189.97 250.00 191.75 L 250.00 202.88 C 243.30 200.73 243.30 210.27 250.00 208.11 L 250.00 238.87 C 245.75 238.33 243.14 239.64 244.95 244.99 C 241.27 244.98 237.62 244.99 233.94 245.05 C 230.50 236.80 241.39 241.28 239.06 234.06 C 250.55 236.65 242.91 220.36 244.92 214.15 C 243.44 214.11 240.48 214.05 239.00 214.01 C 238.98 208.63 239.05 203.27 238.93 197.90 Z" />
</g>
<g id="#13090aff">
<path fill="#13090a" opacity="1.00" d=" M 152.06 197.94 C 155.05 197.99 158.02 198.00 161.01 198.05 C 163.04 204.97 155.58 203.00 151.02 203.01 C 151.02 201.74 151.03 200.48 151.05 199.21 C 151.31 198.90 151.81 198.26 152.06 197.94 Z" />
</g>
<g id="#1b4e28ff">
<path fill="#1b4e28" opacity="1.00" d=" M 223.02 198.08 L 224.04 197.95 C 224.00 201.30 223.98 204.68 224.01 208.05 C 223.99 210.01 223.99 211.98 224.01 213.95 C 226.38 219.72 218.63 235.83 228.93 234.00 C 229.09 227.35 229.04 220.70 228.98 214.06 C 231.22 218.96 229.81 227.38 229.86 233.91 C 229.24 238.72 226.44 247.04 233.94 245.05 C 233.97 246.69 233.99 248.35 234.02 250.00 L 224.12 250.00 C 224.90 245.93 223.15 244.03 219.05 245.01 C 218.98 243.61 218.85 240.81 218.78 239.41 C 208.37 242.21 219.96 224.71 208.00 229.97 C 209.48 229.75 212.43 229.30 213.91 229.08 C 221.48 233.97 222.15 215.40 214.06 218.98 C 214.73 214.68 213.31 212.16 207.96 214.01 C 207.97 211.99 207.97 209.96 207.96 207.94 C 211.63 207.97 215.33 208.01 219.01 208.01 C 214.73 216.17 227.30 216.17 223.01 208.00 C 223.05 204.70 223.00 201.37 223.02 198.08 Z" />
</g>
<g id="#040505ff">
<path fill="#040505" opacity="1.00" d=" M 224.04 197.95 C 230.94 196.00 229.02 203.36 228.99 207.95 C 227.33 208.04 225.67 208.04 224.01 208.05 C 223.98 204.68 224.00 201.30 224.04 197.95 Z" />
</g>
<g id="#236b34ff">
<path fill="#236b34" opacity="1.00" d=" M 230.02 198.00 C 231.33 198.00 232.64 197.99 233.95 197.98 L 233.96 198.87 C 235.43 203.76 229.95 216.27 239.00 214.01 C 239.01 220.69 238.93 227.38 239.06 234.06 C 235.97 233.99 232.93 233.97 229.86 233.91 C 229.81 227.38 231.22 218.96 228.98 214.06 C 227.32 213.95 225.66 213.96 224.01 213.95 C 223.99 211.98 223.99 210.01 224.01 208.05 C 225.67 208.04 227.33 208.04 228.99 207.95 C 231.55 206.58 228.92 200.52 230.02 198.00 Z" />
</g>
<g id="#040b05ff">
<path fill="#040b05" opacity="1.00" d=" M 233.96 198.87 C 235.59 198.43 237.26 198.13 238.93 197.90 C 239.05 203.27 238.98 208.63 239.00 214.01 C 229.95 216.27 235.43 203.76 233.96 198.87 Z" />
</g>
<g id="#0b0611ff">
<path fill="#0b0611" opacity="1.00" d=" M 31.07 203.15 C 32.70 202.99 34.35 202.97 36.00 202.93 C 36.00 218.62 36.00 234.31 36.00 250.00 L 31.04 250.00 C 30.71 245.11 33.35 237.01 25.91 238.86 C 26.32 236.11 24.73 231.05 30.90 233.74 C 31.26 223.54 30.76 213.34 31.07 203.15 Z" />
</g>
<g id="#ca7d51ff">
<path fill="#ca7d51" opacity="1.00" d=" M 36.00 202.93 L 37.00 202.99 C 37.00 218.66 37.00 234.33 37.00 250.00 L 36.00 250.00 C 36.00 234.31 36.00 218.62 36.00 202.93 Z" />
</g>
<g id="#fa862bff">
<path fill="#fa862b" opacity="1.00" d=" M 37.00 202.99 C 38.33 203.00 39.67 203.00 41.00 203.01 C 41.00 218.67 41.00 234.34 41.00 250.00 L 37.00 250.00 C 37.00 234.33 37.00 218.66 37.00 202.99 Z" />
</g>
<g id="#df8d53ff">
<path fill="#df8d53" opacity="1.00" d=" M 41.00 203.01 L 42.00 202.98 C 42.00 218.65 42.00 234.33 42.00 250.00 L 41.00 250.00 C 41.00 234.34 41.00 218.67 41.00 203.01 Z" />
</g>
<g id="#d5a88fff">
<path fill="#d5a88f" opacity="1.00" d=" M 42.00 202.98 L 43.00 203.01 C 43.00 218.67 43.00 234.34 43.00 250.00 L 42.00 250.00 C 42.00 234.33 42.00 218.65 42.00 202.98 Z" />
</g>
<g id="#b0b0b0ff">
<path fill="#b0b0b0" opacity="1.00" d=" M 43.00 203.01 C 44.33 203.00 45.65 203.00 46.98 203.00 C 47.04 218.66 46.98 234.33 47.00 250.00 L 43.00 250.00 C 43.00 234.34 43.00 218.67 43.00 203.01 Z" />
</g>
<g id="#030609ff">
<path fill="#030609" opacity="1.00" d=" M 207.96 207.94 C 204.72 199.83 222.21 200.03 219.01 208.01 C 215.33 208.01 211.63 207.97 207.96 207.94 Z" />
</g>
<g id="#020602ff">
<path fill="#020602" opacity="1.00" d=" M 250.00 208.11 C 243.30 210.27 243.30 200.73 250.00 202.88 L 250.00 208.11 Z" />
<path fill="#020602" opacity="1.00" d=" M 233.94 245.05 C 237.62 244.99 241.27 244.98 244.95 244.99 C 244.97 246.66 244.99 248.33 245.02 250.00 L 234.02 250.00 C 233.99 248.35 233.97 246.69 233.94 245.05 Z" />
</g>
<g id="#c4bcb5ff">
<path fill="#c4bcb5" opacity="1.00" d=" M 89.15 208.06 C 94.45 209.07 106.75 204.10 103.86 213.43 C 98.92 213.77 93.97 214.08 89.01 213.99 C 89.04 212.50 89.11 209.54 89.15 208.06 Z" />
</g>
<g id="#090706ff">
<path fill="#090706" opacity="1.00" d=" M 104.99 207.96 C 106.33 207.98 107.66 208.00 109.00 208.02 C 109.00 210.00 109.00 211.98 108.98 213.96 C 107.70 213.98 106.43 213.90 105.16 213.70 C 105.06 211.79 105.02 209.87 104.99 207.96 Z" />
</g>
<g id="#52514fff">
<path fill="#52514f" opacity="1.00" d=" M 109.00 208.02 C 123.00 207.96 136.99 208.02 150.98 207.99 C 150.99 209.98 151.01 211.97 151.03 213.97 C 149.36 213.97 147.69 213.95 146.02 214.06 C 142.71 213.91 145.87 219.78 144.92 221.93 C 145.10 225.90 136.62 220.73 136.05 224.02 C 135.95 225.95 135.99 227.89 136.00 229.83 C 134.02 229.11 131.99 229.72 130.01 230.05 C 128.56 229.58 125.15 231.03 125.06 229.02 C 131.81 231.37 131.66 221.50 124.95 224.02 C 123.52 223.53 120.17 225.00 120.07 223.02 C 126.68 225.17 126.44 216.73 119.91 218.97 C 118.42 218.82 115.44 218.51 113.95 218.36 C 114.72 214.91 113.50 213.10 109.89 213.98 L 108.98 213.96 C 109.00 211.98 109.00 210.00 109.00 208.02 M 115.03 214.04 C 113.72 218.07 116.63 218.63 119.97 217.96 C 121.28 213.92 118.36 213.37 115.03 214.04 Z" />
</g>
<g id="#07081aff">
<path fill="#07081a" opacity="1.00" d=" M 150.98 207.99 C 152.67 208.00 154.37 208.02 156.06 208.05 C 157.02 212.23 156.24 214.92 152.03 214.08 L 151.03 213.97 C 151.01 211.97 150.99 209.98 150.98 207.99 Z" />
</g>
<g id="#040610ff">
<path fill="#040610" opacity="1.00" d=" M 207.96 214.01 C 200.96 216.80 200.98 205.46 207.96 207.94 C 207.97 209.96 207.97 211.99 207.96 214.01 Z" />
</g>
<g id="#020609ff">
<path fill="#020609" opacity="1.00" d=" M 219.01 208.01 C 220.34 208.00 221.67 208.00 223.01 208.00 C 227.30 216.17 214.73 216.17 219.01 208.01 Z" />
</g>
<g id="#ede3dbff">
<path fill="#ede3db" opacity="1.00" d=" M 89.01 213.99 C 93.97 214.08 98.92 213.77 103.86 213.43 C 104.19 213.50 104.84 213.63 105.16 213.70 C 106.43 213.90 107.70 213.98 108.98 213.96 L 109.89 213.98 C 107.64 218.10 109.73 220.17 113.95 218.36 C 115.44 218.51 118.42 218.82 119.91 218.97 C 119.93 220.32 119.99 221.67 120.07 223.02 C 120.17 225.00 123.52 223.53 124.95 224.02 C 124.96 225.68 124.95 227.35 125.06 229.02 C 125.15 231.03 128.56 229.58 130.01 230.05 C 129.99 232.99 130.00 235.98 130.00 238.93 C 125.79 238.33 123.13 239.55 124.95 244.93 C 120.86 244.06 119.10 245.94 119.88 250.00 L 99.02 250.00 C 97.52 245.28 103.12 230.21 93.98 234.88 C 95.26 228.97 93.64 227.31 89.13 229.88 L 88.79 230.73 C 87.72 232.92 87.27 236.07 83.15 234.45 C 82.97 239.63 82.91 244.81 82.98 250.00 L 52.00 250.00 C 52.00 244.68 51.99 239.37 52.02 234.06 C 56.90 235.17 59.35 234.11 57.10 229.99 C 60.36 229.95 63.64 230.06 66.90 229.85 C 70.90 230.22 74.37 228.64 73.08 224.01 C 74.73 223.99 76.37 224.02 78.01 224.02 C 82.10 224.99 83.93 223.12 83.07 219.05 C 84.54 218.79 87.47 218.27 88.93 218.01 C 88.99 216.67 89.02 215.33 89.01 213.99 Z" />
</g>
<g id="#060705ff">
<path fill="#060705" opacity="1.00" d=" M 88.93 218.01 C 80.76 222.19 80.92 209.73 89.01 213.99 C 89.02 215.33 88.99 216.67 88.93 218.01 Z" />
</g>
<g id="#c7bfb9ff">
<path fill="#c7bfb9" opacity="1.00" d=" M 109.89 213.98 C 113.50 213.10 114.72 214.91 113.95 218.36 C 109.73 220.17 107.64 218.10 109.89 213.98 Z" />
</g>
<g id="#020301ff">
<path fill="#020301" opacity="1.00" d=" M 115.03 214.04 C 118.36 213.37 121.28 213.92 119.97 217.96 C 116.63 218.63 113.72 218.07 115.03 214.04 Z" />
</g>
<g id="#232f49ff">
<path fill="#232f49" opacity="1.00" d=" M 144.92 221.93 C 145.87 219.78 142.71 213.91 146.02 214.06 C 146.00 217.01 145.88 220.01 146.09 222.98 C 154.14 226.54 150.26 217.77 151.03 213.97 L 152.03 214.08 C 152.05 217.31 151.99 220.51 151.87 223.74 C 147.31 222.88 145.10 224.69 145.27 229.16 C 146.80 222.59 140.61 223.95 136.05 224.02 C 136.62 220.73 145.10 225.90 144.92 221.93 Z" />
</g>
<g id="#020211ff">
<path fill="#020211" opacity="1.00" d=" M 146.02 214.06 C 147.69 213.95 149.36 213.97 151.03 213.97 C 150.26 217.77 154.14 226.54 146.09 222.98 C 145.88 220.01 146.00 217.01 146.02 214.06 Z" />
</g>
<g id="#04080dff">
<path fill="#04080d" opacity="1.00" d=" M 207.96 214.01 C 213.31 212.16 214.73 214.68 214.06 218.98 C 208.68 220.81 207.26 218.35 207.96 214.01 Z" />
</g>
<g id="#030203ff">
<path fill="#030203" opacity="1.00" d=" M 224.01 213.95 C 225.66 213.96 227.32 213.95 228.98 214.06 C 229.04 220.70 229.09 227.35 228.93 234.00 C 218.63 235.83 226.38 219.72 224.01 213.95 Z" />
</g>
<g id="#030604ff">
<path fill="#030604" opacity="1.00" d=" M 239.00 214.01 C 240.48 214.05 243.44 214.11 244.92 214.15 C 242.91 220.36 250.55 236.65 239.06 234.06 C 238.93 227.38 239.01 220.69 239.00 214.01 Z" />
</g>
<g id="#060605ff">
<path fill="#060605" opacity="1.00" d=" M 77.99 223.06 C 71.43 225.21 71.45 216.73 78.00 218.98 C 77.99 220.33 77.99 221.69 77.99 223.06 Z" />
</g>
<g id="#c5bbb5ff">
<path fill="#c5bbb5" opacity="1.00" d=" M 78.00 218.98 C 79.69 218.97 81.38 219.01 83.07 219.05 C 83.93 223.12 82.10 224.99 78.01 224.02 L 77.99 223.06 C 77.99 221.69 77.99 220.33 78.00 218.98 Z" />
</g>
<g id="#070705ff">
<path fill="#070705" opacity="1.00" d=" M 119.91 218.97 C 126.44 216.73 126.68 225.17 120.07 223.02 C 119.99 221.67 119.93 220.32 119.91 218.97 Z" />
</g>
<g id="#030709ff">
<path fill="#030709" opacity="1.00" d=" M 214.06 218.98 C 222.15 215.40 221.48 233.97 213.91 229.08 C 213.99 225.72 214.00 222.33 214.06 218.98 Z" />
</g>
<g id="#141412ff">
<path fill="#141412" opacity="1.00" d=" M 56.91 228.98 C 57.01 226.71 56.44 222.38 60.00 222.95 C 63.56 222.37 62.99 226.71 63.10 228.98 C 61.04 229.02 58.97 229.03 56.91 228.98 Z" />
</g>
<g id="#beb8b2ff">
<path fill="#beb8b2" opacity="1.00" d=" M 66.89 228.97 C 66.28 224.65 67.71 222.10 73.08 224.01 C 74.37 228.64 70.90 230.22 66.90 229.85 L 66.89 228.97 Z" />
</g>
<g id="#050503ff">
<path fill="#050503" opacity="1.00" d=" M 124.95 224.02 C 131.66 221.50 131.81 231.37 125.06 229.02 C 124.95 227.35 124.96 225.68 124.95 224.02 Z" />
</g>
<g id="#030210ff">
<path fill="#030210" opacity="1.00" d=" M 136.05 224.02 C 140.61 223.95 146.80 222.59 145.27 229.16 C 138.07 226.74 140.24 234.22 139.93 238.93 C 138.64 239.00 137.35 239.05 136.06 239.07 C 136.03 235.97 136.05 232.91 136.00 229.83 C 135.99 227.89 135.95 225.95 136.05 224.02 Z" />
</g>
<g id="#302c31ff">
<path fill="#302c31" opacity="1.00" d=" M 50.98 250.00 C 50.96 242.94 50.76 235.84 51.78 228.83 L 51.86 229.90 C 51.92 231.28 51.97 232.67 52.02 234.06 C 51.99 239.37 52.00 244.68 52.00 250.00 L 50.98 250.00 Z" />
</g>
<g id="#898481ff">
<path fill="#898481" opacity="1.00" d=" M 51.78 228.83 C 53.49 228.91 55.20 228.97 56.91 228.98 C 58.97 229.03 61.04 229.02 63.10 228.98 C 64.37 228.98 65.63 228.98 66.89 228.97 L 66.90 229.85 C 63.64 230.06 60.36 229.95 57.10 229.99 C 55.35 229.95 53.60 229.93 51.86 229.90 L 51.78 228.83 Z" />
</g>
<g id="#423b40ff">
<path fill="#423b40" opacity="1.00" d=" M 89.13 229.88 C 93.64 227.31 95.26 228.97 93.98 234.88 C 93.97 239.91 93.99 244.96 94.00 250.00 L 93.00 250.00 C 90.54 244.55 98.03 229.60 89.13 229.88 Z" />
</g>
<g id="#bdb5b0ff">
<path fill="#bdb5b0" opacity="1.00" d=" M 130.01 230.05 C 131.99 229.72 134.02 229.11 136.00 229.83 C 136.05 232.91 136.03 235.97 136.06 239.07 C 134.04 239.02 132.02 238.98 130.00 238.93 C 130.00 235.98 129.99 232.99 130.01 230.05 Z" />
</g>
<g id="#0d2a4fff">
<path fill="#0d2a4f" opacity="1.00" d=" M 139.93 238.93 C 140.24 234.22 138.07 226.74 145.27 229.16 C 138.78 228.73 142.17 236.52 139.93 238.93 Z" />
</g>
<g id="#c6bfbbff">
<path fill="#c6bfbb" opacity="1.00" d=" M 51.86 229.90 C 53.60 229.93 55.35 229.95 57.10 229.99 C 59.35 234.11 56.90 235.17 52.02 234.06 C 51.97 232.67 51.92 231.28 51.86 229.90 Z" />
</g>
<g id="#080408ff">
<path fill="#080408" opacity="1.00" d=" M 89.13 229.88 C 98.03 229.60 90.54 244.55 93.00 250.00 L 89.02 250.00 C 89.03 243.57 88.98 237.15 88.79 230.73 L 89.13 229.88 Z" />
</g>
<g id="#04060aff">
<path fill="#04060a" opacity="1.00" d=" M 208.00 229.97 C 219.96 224.71 208.37 242.21 218.78 239.41 C 218.85 240.81 218.98 243.61 219.05 245.01 C 211.52 247.69 216.48 236.09 208.15 238.68 C 207.77 235.79 207.89 232.85 208.00 229.97 Z" />
</g>
<g id="#c2b9b3ff">
<path fill="#c2b9b3" opacity="1.00" d=" M 83.15 234.45 C 87.27 236.07 87.72 232.92 88.79 230.73 C 88.98 237.15 89.03 243.57 89.02 250.00 L 82.98 250.00 C 82.91 244.81 82.97 239.63 83.15 234.45 Z" />
</g>
<g id="#c7beb7ff">
<path fill="#c7beb7" opacity="1.00" d=" M 93.98 234.88 C 103.12 230.21 97.52 245.28 99.02 250.00 L 94.00 250.00 C 93.99 244.96 93.97 239.91 93.98 234.88 Z" />
</g>
<g id="#050b06ff">
<path fill="#050b06" opacity="1.00" d=" M 229.86 233.91 C 232.93 233.97 235.97 233.99 239.06 234.06 C 241.39 241.28 230.50 236.80 233.94 245.05 C 226.44 247.04 229.24 238.72 229.86 233.91 Z" />
</g>
<g id="#0a0504ff">
<path fill="#0a0504" opacity="1.00" d=" M 15.94 245.03 C 11.74 236.94 24.20 236.73 19.99 244.94 C 18.64 245.02 17.29 245.05 15.94 245.03 Z" />
</g>
<g id="#c2bab3ff">
<path fill="#c2bab3" opacity="1.00" d=" M 19.99 244.94 C 22.08 243.01 20.17 237.06 25.91 238.86 C 33.35 237.01 30.71 245.11 31.04 250.00 L 0.00 250.00 L 0.00 245.00 C 5.31 245.00 10.63 245.03 15.94 245.03 C 17.29 245.05 18.64 245.02 19.99 244.94 Z" />
</g>
<g id="#c2bab4ff">
<path fill="#c2bab4" opacity="1.00" d=" M 124.95 244.93 C 123.13 239.55 125.79 238.33 130.00 238.93 C 130.00 240.97 130.00 243.01 130.00 245.06 C 128.32 245.01 126.63 244.97 124.95 244.93 Z" />
</g>
<g id="#0a0b20ff">
<path fill="#0a0b20" opacity="1.00" d=" M 130.00 238.93 C 132.02 238.98 134.04 239.02 136.06 239.07 C 137.48 244.50 135.46 246.50 130.00 245.06 C 130.00 243.01 130.00 240.97 130.00 238.93 Z" />
</g>
<g id="#030704ff">
<path fill="#030704" opacity="1.00" d=" M 244.95 244.99 C 243.14 239.64 245.75 238.33 250.00 238.87 L 250.00 245.00 C 248.31 245.00 246.63 244.99 244.95 244.99 Z" />
</g>
<g id="#c5bbb2ff">
<path fill="#c5bbb2" opacity="1.00" d=" M 119.88 250.00 C 119.10 245.94 120.86 244.06 124.95 244.93 C 124.97 246.62 124.99 248.31 125.02 250.00 L 119.88 250.00 Z" />
</g>
<g id="#060619ff">
<path fill="#060619" opacity="1.00" d=" M 124.95 244.93 C 126.63 244.97 128.32 245.01 130.00 245.06 C 130.00 246.70 130.00 248.35 130.00 250.00 L 125.02 250.00 C 124.99 248.31 124.97 246.62 124.95 244.93 Z" />
</g>
<g id="#040d06ff">
<path fill="#040d06" opacity="1.00" d=" M 219.05 245.01 C 223.15 244.03 224.90 245.93 224.12 250.00 L 218.98 250.00 C 219.00 248.33 219.02 246.67 219.05 245.01 Z" />
</g>
<g id="#236d36ff">
<path fill="#236d36" opacity="1.00" d=" M 244.95 244.99 C 246.63 244.99 248.31 245.00 250.00 245.00 L 250.00 250.00 L 245.02 250.00 C 244.99 248.33 244.97 246.66 244.95 244.99 Z" />
</g>
</svg>
