<?xml version="1.0" encoding="UTF-8" ?>
<!DOCTYPE svg PUBLIC "-//W3C//DTD SVG 1.1//EN" "http://www.w3.org/Graphics/SVG/1.1/DTD/svg11.dtd">
<svg width="250pt" height="247pt" viewBox="0 0 250 247" version="1.1" xmlns="http://www.w3.org/2000/svg">
<g id="#ffffffff">
<path fill="#ffffff" opacity="1.00" d=" M 0.00 0.00 L 250.00 0.00 L 250.00 247.00 L 0.00 247.00 L 0.00 0.00 M 38.86 44.73 C 19.96 64.09 8.18 90.20 6.08 117.17 C 3.90 142.31 10.08 168.12 23.46 189.53 C 37.57 212.32 59.71 230.03 85.09 238.69 C 101.07 244.20 118.23 246.18 135.04 244.61 C 163.87 242.25 191.56 228.57 211.11 207.27 C 229.16 187.95 240.06 162.38 242.17 136.09 C 244.50 104.71 234.11 72.51 213.14 48.95 C 189.81 21.99 153.67 6.82 118.09 9.07 C 88.40 10.12 59.42 23.32 38.86 44.73 Z" />
</g>
<g id="#010101ff">
<path fill="#010101" opacity="1.00" d=" M 38.86 44.73 C 59.42 23.32 88.40 10.12 118.09 9.07 C 153.67 6.82 189.81 21.99 213.14 48.95 C 234.11 72.51 244.50 104.71 242.17 136.09 C 240.06 162.38 229.16 187.95 211.11 207.27 C 191.56 228.57 163.87 242.25 135.04 244.61 C 118.23 246.18 101.07 244.20 85.09 238.69 C 59.71 230.03 37.57 212.32 23.46 189.53 C 10.08 168.12 3.90 142.31 6.08 117.17 C 8.18 90.20 19.96 64.09 38.86 44.73 M 113.93 64.00 C 108.37 65.24 102.66 67.45 98.86 71.88 C 96.02 75.18 95.49 79.71 93.37 83.40 C 88.26 86.64 81.54 83.99 76.58 87.59 C 73.37 89.22 71.02 91.98 69.10 94.95 C 60.09 106.92 60.06 122.67 59.23 136.96 C 58.40 141.96 58.13 147.25 60.00 152.05 C 61.50 152.84 63.14 153.31 64.71 153.92 L 64.45 154.65 C 64.24 154.79 63.82 155.09 63.61 155.24 C 63.97 155.30 64.67 155.42 65.02 155.48 C 68.92 157.23 73.77 157.88 76.41 161.58 C 77.97 164.00 77.68 167.21 79.50 169.52 C 81.89 172.77 83.89 176.39 86.91 179.10 C 93.48 184.24 101.39 187.27 109.40 189.32 C 115.75 191.30 122.46 190.28 128.99 190.54 C 134.92 190.74 140.58 188.44 145.67 185.59 C 148.74 183.88 151.36 181.22 152.52 177.85 C 153.69 175.19 153.98 172.04 155.87 169.78 C 160.47 167.06 166.29 168.51 170.90 165.85 C 174.04 164.21 177.04 162.08 178.86 158.97 C 186.51 147.22 188.60 132.74 188.62 118.97 C 189.37 113.80 189.72 108.29 187.44 103.42 C 185.57 100.28 182.43 97.16 178.47 97.73 C 178.45 97.38 178.42 96.70 178.41 96.35 C 177.61 96.51 176.82 96.66 176.03 96.82 C 175.63 96.54 174.85 95.97 174.46 95.69 C 173.68 96.05 172.91 96.41 172.13 96.77 C 170.81 92.57 169.94 88.26 168.96 83.99 C 166.55 80.54 163.64 77.39 160.46 74.63 C 147.24 64.87 130.01 61.79 113.93 64.00 Z" />
</g>
<g id="#1b1b1bff">
<path fill="#1b1b1b" opacity="1.00" d=" M 113.93 64.00 C 130.01 61.79 147.24 64.87 160.46 74.63 C 163.64 77.39 166.55 80.54 168.96 83.99 C 169.94 88.26 170.81 92.57 172.13 96.77 C 172.91 96.41 173.68 96.05 174.46 95.69 C 174.85 95.97 175.63 96.54 176.03 96.82 C 176.82 96.66 177.61 96.51 178.41 96.35 C 178.42 96.70 178.45 97.38 178.47 97.73 C 182.43 97.16 185.57 100.28 187.44 103.42 C 189.72 108.29 189.37 113.80 188.62 118.97 C 188.60 132.74 186.51 147.22 178.86 158.97 C 177.04 162.08 174.04 164.21 170.90 165.85 C 166.29 168.51 160.47 167.06 155.87 169.78 C 153.98 172.04 153.69 175.19 152.52 177.85 C 151.36 181.22 148.74 183.88 145.67 185.59 C 140.58 188.44 134.92 190.74 128.99 190.54 C 122.46 190.28 115.75 191.30 109.40 189.32 C 101.39 187.27 93.48 184.24 86.91 179.10 C 83.89 176.39 81.89 172.77 79.50 169.52 C 77.68 167.21 77.97 164.00 76.41 161.58 C 73.77 157.88 68.92 157.23 65.02 155.48 C 76.97 140.70 89.15 126.09 100.79 111.06 C 95.54 104.37 90.21 97.74 84.75 91.20 C 74.58 102.22 69.17 117.70 71.11 132.64 C 71.47 135.07 70.80 137.47 69.94 139.72 C 68.14 144.43 66.41 149.17 64.71 153.92 C 63.14 153.31 61.50 152.84 60.00 152.05 C 58.13 147.25 58.40 141.96 59.23 136.96 C 60.06 122.67 60.09 106.92 69.10 94.95 C 71.02 91.98 73.37 89.22 76.58 87.59 C 81.54 83.99 88.26 86.64 93.37 83.40 C 95.49 79.71 96.02 75.18 98.86 71.88 C 102.66 67.45 108.37 65.24 113.93 64.00 M 103.56 78.05 C 102.97 78.48 102.44 78.97 101.94 79.50 C 110.32 89.47 118.13 99.91 126.48 109.91 C 126.52 110.45 126.60 111.52 126.64 112.05 C 112.96 129.21 98.95 146.11 85.40 163.37 C 100.32 180.02 126.44 184.99 146.44 174.97 C 146.46 174.71 146.52 174.20 146.54 173.95 C 138.76 163.38 130.10 153.46 122.21 142.97 C 135.38 125.32 149.83 108.66 162.94 90.97 C 152.55 79.63 137.27 73.57 121.97 73.76 C 115.71 74.53 109.37 75.45 103.56 78.05 M 176.61 107.65 C 167.70 118.72 158.72 129.75 150.02 140.98 C 148.90 142.07 148.99 143.82 150.05 144.92 C 154.59 150.64 159.18 156.33 163.90 161.91 C 172.56 152.10 177.40 139.10 177.13 126.01 C 177.01 123.38 176.22 120.65 177.26 118.11 C 179.25 111.93 181.88 105.97 183.76 99.75 C 180.76 101.78 178.88 104.92 176.61 107.65 Z" />
</g>
<g id="#feda22ff">
<path fill="#feda22" opacity="1.00" d=" M 103.56 78.05 C 109.37 75.45 115.71 74.53 121.97 73.76 C 137.27 73.57 152.55 79.63 162.94 90.97 C 149.83 108.66 135.38 125.32 122.21 142.97 C 130.10 153.46 138.76 163.38 146.54 173.95 C 146.52 174.20 146.46 174.71 146.44 174.97 C 126.44 184.99 100.32 180.02 85.40 163.37 C 98.95 146.11 112.96 129.21 126.64 112.05 C 126.60 111.52 126.52 110.45 126.48 109.91 C 118.13 99.91 110.32 89.47 101.94 79.50 C 102.44 78.97 102.97 78.48 103.56 78.05 Z" />
<path fill="#feda22" opacity="1.00" d=" M 71.11 132.64 C 69.17 117.70 74.58 102.22 84.75 91.20 C 90.21 97.74 95.54 104.37 100.79 111.06 C 89.15 126.09 76.97 140.70 65.02 155.48 C 64.67 155.42 63.97 155.30 63.61 155.24 C 63.82 155.09 64.24 154.79 64.45 154.65 L 64.71 153.92 C 66.41 149.17 68.14 144.43 69.94 139.72 C 70.80 137.47 71.47 135.07 71.11 132.64 Z" />
<path fill="#feda22" opacity="1.00" d=" M 176.61 107.65 C 178.88 104.92 180.76 101.78 183.76 99.75 C 181.88 105.97 179.25 111.93 177.26 118.11 C 176.22 120.65 177.01 123.38 177.13 126.01 C 177.40 139.10 172.56 152.10 163.90 161.91 C 159.18 156.33 154.59 150.64 150.05 144.92 C 148.99 143.82 148.90 142.07 150.02 140.98 C 158.72 129.75 167.70 118.72 176.61 107.65 Z" />
</g>
</svg>
