<?xml version="1.0" encoding="UTF-8" ?>
<!DOCTYPE svg PUBLIC "-//W3C//DTD SVG 1.1//EN" "http://www.w3.org/Graphics/SVG/1.1/DTD/svg11.dtd">
<svg width="250pt" height="250pt" viewBox="0 0 250 250" version="1.1" xmlns="http://www.w3.org/2000/svg">
<g id="#fcfbfaff">
<path fill="#fcfbfa" opacity="1.00" d=" M 0.00 0.00 L 119.06 0.00 C 90.47 1.57 62.44 12.98 41.22 32.28 C 16.72 54.11 1.97 85.97 0.00 118.63 L 0.00 0.00 Z" />
<path fill="#fcfbfa" opacity="1.00" d=" M 131.34 0.00 L 250.00 0.00 L 250.00 119.04 C 248.16 85.99 233.14 53.73 208.23 31.80 C 187.19 12.86 159.55 1.70 131.34 0.00 Z" />
<path fill="#fcfbfa" opacity="1.00" d=" M 42.34 36.46 C 47.09 36.49 51.84 36.48 56.58 36.49 C 51.82 41.22 46.95 45.84 42.34 50.73 C 42.38 45.97 42.36 41.21 42.34 36.46 Z" />
<path fill="#fcfbfa" opacity="1.00" d=" M 60.80 36.50 C 64.77 36.48 68.75 36.48 72.72 36.46 C 62.53 46.41 52.32 56.36 42.38 66.56 C 42.41 63.02 42.22 59.48 42.40 55.94 C 42.22 54.68 43.26 53.87 44.01 53.05 C 49.62 47.55 55.24 42.06 60.80 36.50 Z" />
<path fill="#fcfbfa" opacity="1.00" d=" M 76.76 36.77 C 80.67 36.05 84.81 36.67 88.80 36.48 C 73.23 51.66 57.81 67.00 42.39 82.35 C 42.35 78.40 42.34 74.45 42.39 70.51 C 53.92 59.34 65.09 47.79 76.76 36.77 Z" />
<path fill="#fcfbfa" opacity="1.00" d=" M 92.93 36.52 C 96.91 36.44 100.90 36.47 104.88 36.53 C 83.92 56.97 63.19 77.65 42.39 98.25 C 42.35 94.31 42.34 90.38 42.38 86.44 C 59.24 69.82 76.10 53.19 92.93 36.52 Z" />
<path fill="#fcfbfa" opacity="1.00" d=" M 109.26 36.46 C 113.23 36.47 117.21 36.49 121.18 36.51 C 96.41 60.28 72.41 84.84 47.77 108.74 C 45.90 110.53 44.12 112.41 42.39 114.33 C 42.36 110.34 42.34 106.36 42.38 102.38 C 64.68 80.41 86.89 58.35 109.26 36.46 Z" />
<path fill="#fcfbfa" opacity="1.00" d=" M 125.40 36.48 C 129.71 36.47 134.02 36.47 138.33 36.51 C 110.31 63.77 82.69 91.43 54.82 118.85 C 50.67 122.99 46.33 126.94 42.38 131.27 C 42.36 126.97 42.34 122.67 42.38 118.37 C 69.99 91.01 97.74 63.79 125.40 36.48 Z" />
<path fill="#fcfbfa" opacity="1.00" d=" M 123.66 79.97 C 129.63 77.97 136.55 78.67 141.79 82.24 C 148.40 86.62 151.85 95.25 150.10 102.98 C 148.82 108.97 144.57 114.15 139.13 116.89 C 135.24 118.91 130.69 118.92 126.43 118.42 C 119.07 117.03 112.91 111.06 111.06 103.83 C 108.31 94.20 114.13 83.10 123.66 79.97 M 118.11 86.07 C 115.28 88.69 113.94 92.39 112.64 95.92 C 112.48 99.08 112.95 102.20 113.73 105.26 C 116.78 111.00 122.12 116.19 128.96 116.47 C 137.29 117.45 145.36 111.32 147.58 103.42 C 148.90 99.73 148.28 95.72 148.14 91.92 C 147.12 96.35 147.12 101.40 144.14 105.13 C 139.42 111.83 128.85 112.68 123.00 107.04 C 116.57 101.42 117.07 90.15 124.01 85.17 C 127.72 82.04 132.81 82.30 137.34 82.02 C 136.13 81.87 133.69 81.57 132.47 81.42 L 132.35 80.53 C 131.50 80.60 129.80 80.75 128.95 80.82 C 125.06 81.88 121.00 83.10 118.11 86.07 Z" />
<path fill="#fcfbfa" opacity="1.00" d=" M 218.70 207.64 C 237.95 186.05 249.05 157.52 250.00 128.65 L 250.00 250.00 L 131.94 250.00 C 164.88 247.82 197.02 232.68 218.70 207.64 Z" />
<path fill="#fcfbfa" opacity="1.00" d=" M 0.00 130.99 C 1.66 159.30 12.72 187.11 31.79 208.21 C 53.38 232.84 85.12 247.68 117.66 250.00 L 0.00 250.00 L 0.00 130.99 Z" />
</g>
<g id="#c05e4fff">
<path fill="#c05e4f" opacity="1.00" d=" M 119.06 0.00 L 131.34 0.00 C 159.55 1.70 187.19 12.86 208.23 31.80 C 233.14 53.73 248.16 85.99 250.00 119.04 L 250.00 128.65 C 249.05 157.52 237.95 186.05 218.70 207.64 C 197.02 232.68 164.88 247.82 131.94 250.00 L 117.66 250.00 C 85.12 247.68 53.38 232.84 31.79 208.21 C 12.72 187.11 1.66 159.30 0.00 130.99 L 0.00 118.63 C 1.97 85.97 16.72 54.11 41.22 32.28 C 62.44 12.98 90.47 1.57 119.06 0.00 M 42.34 36.46 C 42.36 41.21 42.38 45.97 42.34 50.73 C 46.95 45.84 51.82 41.22 56.58 36.49 C 51.84 36.48 47.09 36.49 42.34 36.46 M 60.80 36.50 C 55.24 42.06 49.62 47.55 44.01 53.05 C 43.26 53.87 42.22 54.68 42.40 55.94 C 42.22 59.48 42.41 63.02 42.38 66.56 C 52.32 56.36 62.53 46.41 72.72 36.46 C 68.75 36.48 64.77 36.48 60.80 36.50 M 76.76 36.77 C 65.09 47.79 53.92 59.34 42.39 70.51 C 42.34 74.45 42.35 78.40 42.39 82.35 C 57.81 67.00 73.23 51.66 88.80 36.48 C 84.81 36.67 80.67 36.05 76.76 36.77 M 92.93 36.52 C 76.10 53.19 59.24 69.82 42.38 86.44 C 42.34 90.38 42.35 94.31 42.39 98.25 C 63.19 77.65 83.92 56.97 104.88 36.53 C 100.90 36.47 96.91 36.44 92.93 36.52 M 109.26 36.46 C 86.89 58.35 64.68 80.41 42.38 102.38 C 42.34 106.36 42.36 110.34 42.39 114.33 C 44.12 112.41 45.90 110.53 47.77 108.74 C 72.41 84.84 96.41 60.28 121.18 36.51 C 117.21 36.49 113.23 36.47 109.26 36.46 M 125.40 36.48 C 97.74 63.79 69.99 91.01 42.38 118.37 C 42.34 122.67 42.36 126.97 42.38 131.27 C 46.33 126.94 50.67 122.99 54.82 118.85 C 82.69 91.43 110.31 63.77 138.33 36.51 C 134.02 36.47 129.71 36.47 125.40 36.48 M 96.79 82.16 C 101.89 82.15 106.99 82.33 112.09 82.17 C 113.72 82.29 114.86 80.92 116.12 80.13 C 121.90 75.36 130.06 73.70 137.25 75.80 C 144.05 77.65 149.89 82.68 152.68 89.15 C 156.58 97.66 154.79 108.45 148.21 115.14 C 142.45 121.45 133.14 124.12 124.90 121.92 C 120.59 120.92 116.92 118.32 113.60 115.50 C 96.68 115.48 79.75 115.44 62.83 115.52 C 56.37 121.87 49.94 128.24 43.50 134.61 C 42.12 135.65 42.36 137.45 42.31 138.98 C 42.41 163.93 42.30 188.88 42.37 213.84 C 60.25 196.25 78.14 178.67 95.94 161.01 C 100.98 155.90 108.73 154.42 115.61 155.62 C 121.87 156.93 126.82 161.45 130.72 166.29 C 143.26 182.03 155.65 197.89 168.24 213.59 C 182.81 213.55 197.37 213.68 211.94 213.53 C 196.28 193.04 180.36 172.75 164.86 152.14 C 174.48 148.16 183.23 141.92 189.67 133.70 C 198.15 123.10 202.87 109.53 202.65 95.94 C 202.68 79.62 195.51 63.51 183.51 52.48 C 172.61 42.25 157.77 36.56 142.85 36.49 C 127.44 51.65 112.05 66.84 96.79 82.16 M 123.66 79.97 C 114.13 83.10 108.31 94.20 111.06 103.83 C 112.91 111.06 119.07 117.03 126.43 118.42 C 130.69 118.92 135.24 118.91 139.13 116.89 C 144.57 114.15 148.82 108.97 150.10 102.98 C 151.85 95.25 148.40 86.62 141.79 82.24 C 136.55 78.67 129.63 77.97 123.66 79.97 Z" />
<path fill="#c05e4f" opacity="1.00" d=" M 118.11 86.07 C 121.00 83.10 125.06 81.88 128.95 80.82 C 129.80 80.75 131.50 80.60 132.35 80.53 L 132.47 81.42 C 133.69 81.57 136.13 81.87 137.34 82.02 C 132.81 82.30 127.72 82.04 124.01 85.17 C 117.07 90.15 116.57 101.42 123.00 107.04 C 128.85 112.68 139.42 111.83 144.14 105.13 C 147.12 101.40 147.12 96.35 148.14 91.92 C 148.28 95.72 148.90 99.73 147.58 103.42 C 145.36 111.32 137.29 117.45 128.96 116.47 C 122.12 116.19 116.78 111.00 113.73 105.26 C 112.95 102.20 112.48 99.08 112.64 95.92 C 113.94 92.39 115.28 88.69 118.11 86.07 Z" />
</g>
<g id="#2c313cff">
<path fill="#2c313c" opacity="1.00" d=" M 96.79 82.16 C 112.05 66.84 127.44 51.65 142.85 36.49 C 157.77 36.56 172.61 42.25 183.51 52.48 C 195.51 63.51 202.68 79.62 202.65 95.94 C 202.87 109.53 198.15 123.10 189.67 133.70 C 183.23 141.92 174.48 148.16 164.86 152.14 C 180.36 172.75 196.28 193.04 211.94 213.53 C 197.37 213.68 182.81 213.55 168.24 213.59 C 155.65 197.89 143.26 182.03 130.72 166.29 C 126.82 161.45 121.87 156.93 115.61 155.62 C 108.73 154.42 100.98 155.90 95.94 161.01 C 78.14 178.67 60.25 196.25 42.37 213.84 C 42.30 188.88 42.41 163.93 42.31 138.98 C 42.36 137.45 42.12 135.65 43.50 134.61 C 49.94 128.24 56.37 121.87 62.83 115.52 C 79.75 115.44 96.68 115.48 113.60 115.50 C 116.92 118.32 120.59 120.92 124.90 121.92 C 133.14 124.12 142.45 121.45 148.21 115.14 C 154.79 108.45 156.58 97.66 152.68 89.15 C 149.89 82.68 144.05 77.65 137.25 75.80 C 130.06 73.70 121.90 75.36 116.12 80.13 C 114.86 80.92 113.72 82.29 112.09 82.17 C 106.99 82.33 101.89 82.15 96.79 82.16 Z" />
</g>
</svg>
