<?xml version="1.0" encoding="UTF-8" ?>
<!DOCTYPE svg PUBLIC "-//W3C//DTD SVG 1.1//EN" "http://www.w3.org/Graphics/SVG/1.1/DTD/svg11.dtd">
<svg width="250pt" height="250pt" viewBox="0 0 250 250" version="1.1" xmlns="http://www.w3.org/2000/svg">
<g id="#fefefbff">
<path fill="#fefefb" opacity="1.00" d=" M 0.00 0.00 L 250.00 0.00 L 250.00 250.00 L 0.00 250.00 L 0.00 0.00 M 108.99 7.92 C 104.56 8.68 96.99 8.51 94.16 10.97 C 85.28 11.99 76.24 16.42 68.93 20.82 C 64.98 22.03 61.53 24.70 58.27 27.19 C 54.27 27.42 51.35 31.16 49.02 34.08 C 48.78 34.31 48.30 34.76 48.05 34.99 C 45.72 34.98 43.71 37.18 43.21 39.32 C 42.19 40.00 40.70 40.40 40.30 41.69 C 38.51 43.10 35.70 44.49 36.11 47.18 C 35.81 47.47 35.20 48.06 34.90 48.35 C 30.86 51.41 26.85 57.55 23.62 62.46 C 15.33 74.68 8.68 92.30 6.99 107.98 C 3.83 114.84 7.15 127.47 6.05 136.00 C 8.42 148.09 9.17 161.63 16.08 172.09 C 19.01 179.30 23.26 188.41 28.06 193.61 C 40.68 211.76 58.99 226.94 80.00 234.04 C 84.17 237.35 89.93 237.83 94.92 238.97 C 107.83 244.38 126.40 243.81 139.01 242.03 C 154.82 240.04 172.14 234.43 184.40 226.21 C 189.66 222.61 195.54 219.67 199.97 215.07 C 208.30 209.73 216.51 200.59 220.83 191.76 C 222.74 189.90 223.95 187.48 224.96 185.04 C 228.73 180.37 231.36 174.74 233.23 169.03 C 235.34 164.33 237.94 159.17 238.02 153.85 C 240.53 152.96 238.82 146.43 240.54 144.42 C 243.48 124.31 242.48 101.28 234.00 83.07 C 226.44 61.52 211.62 40.58 191.86 29.01 C 188.80 25.12 183.58 22.93 179.13 20.97 C 176.08 18.31 172.02 16.90 168.16 15.90 C 160.47 9.81 149.23 8.89 139.75 8.27 C 129.80 5.94 117.54 6.49 108.99 7.92 Z" />
</g>
<g id="#f1e174ff">
<path fill="#f1e174" opacity="1.00" d=" M 108.99 7.92 C 117.54 6.49 129.80 5.94 139.75 8.27 C 144.26 9.36 148.90 10.10 153.26 11.76 C 149.19 11.85 144.99 10.55 141.05 11.99 C 145.58 18.69 154.40 17.97 159.90 23.20 C 153.67 21.54 147.50 19.54 141.10 18.68 C 139.60 17.50 137.64 17.63 135.92 18.17 C 135.25 18.08 133.92 17.89 133.25 17.80 C 127.16 17.03 120.75 16.13 114.71 17.68 C 114.06 17.81 112.76 18.08 112.11 18.21 C 110.55 18.35 107.44 18.63 105.89 18.77 C 104.64 18.99 103.40 19.22 102.17 19.45 C 99.46 18.33 100.55 13.76 98.97 11.21 C 103.70 10.01 108.79 10.28 113.28 8.22 C 111.85 8.08 110.42 7.98 108.99 7.92 Z" />
</g>
<g id="#dfc15bff">
<path fill="#dfc15b" opacity="1.00" d=" M 94.16 10.97 C 96.99 8.51 104.56 8.68 108.99 7.92 C 110.42 7.98 111.85 8.08 113.28 8.22 C 108.79 10.28 103.70 10.01 98.97 11.21 C 100.55 13.76 99.46 18.33 102.17 19.45 C 97.47 20.64 92.79 21.89 88.14 23.23 C 89.54 21.13 92.27 18.76 89.27 16.73 C 83.64 12.18 100.10 12.50 94.16 10.97 Z" />
</g>
<g id="#faf0b2ff">
<path fill="#faf0b2" opacity="1.00" d=" M 139.75 8.27 C 149.23 8.89 160.47 9.81 168.16 15.90 C 163.07 15.00 158.20 13.23 153.26 11.76 C 148.90 10.10 144.26 9.36 139.75 8.27 Z" />
</g>
<g id="#d2a442ff">
<path fill="#d2a442" opacity="1.00" d=" M 68.93 20.82 C 76.24 16.42 85.28 11.99 94.16 10.97 C 100.10 12.50 83.64 12.18 89.27 16.73 C 92.27 18.76 89.54 21.13 88.14 23.23 C 84.83 24.69 81.46 26.01 78.11 27.40 C 76.03 24.77 74.51 19.25 68.93 20.82 Z" />
</g>
<g id="#e6c55dff">
<path fill="#e6c55d" opacity="1.00" d=" M 141.05 11.99 C 144.99 10.55 149.19 11.85 153.26 11.76 C 158.20 13.23 163.07 15.00 168.16 15.90 C 172.02 16.90 176.08 18.31 179.13 20.97 C 176.59 20.72 173.29 19.55 172.09 22.67 C 177.79 26.69 181.81 32.60 187.92 36.10 C 189.17 37.71 193.59 38.85 192.12 41.45 C 186.78 37.82 181.72 33.73 175.96 30.78 C 170.80 27.81 165.26 25.72 159.90 23.20 C 154.40 17.97 145.58 18.69 141.05 11.99 Z" />
</g>
<g id="#737033ff">
<path fill="#737033" opacity="1.00" d=" M 114.71 17.68 C 120.75 16.13 127.16 17.03 133.25 17.80 C 127.07 17.94 120.88 17.96 114.71 17.68 Z" />
</g>
<g id="#716636ff">
<path fill="#716636" opacity="1.00" d=" M 105.89 18.77 C 107.44 18.63 110.55 18.35 112.11 18.21 C 110.55 18.35 107.44 18.63 105.89 18.77 Z" />
</g>
<g id="#0c0805ff">
<path fill="#0c0805" opacity="1.00" d=" M 112.11 18.21 C 112.76 18.08 114.06 17.81 114.71 17.68 C 120.88 17.96 127.07 17.94 133.25 17.80 C 133.92 17.89 135.25 18.08 135.92 18.17 C 137.31 19.62 139.41 19.38 141.10 18.68 C 147.50 19.54 153.67 21.54 159.90 23.20 C 165.26 25.72 170.80 27.81 175.96 30.78 C 173.74 32.11 171.82 33.83 169.86 35.50 C 168.63 35.53 167.70 36.03 167.06 36.98 C 165.18 39.64 163.73 42.58 162.85 45.71 C 158.15 43.44 155.05 49.35 152.79 52.69 C 150.11 51.84 143.99 48.90 144.04 53.79 C 147.81 55.36 151.93 58.56 156.15 57.13 C 156.86 61.30 150.76 56.37 150.53 60.10 C 138.31 54.99 124.80 54.40 111.75 55.19 C 106.98 55.39 102.38 56.95 97.90 58.50 C 63.08 70.21 42.21 111.25 53.79 146.28 C 60.11 165.94 74.61 184.96 94.97 191.05 C 97.53 193.09 100.76 193.88 103.98 194.07 C 106.71 195.59 109.75 196.21 112.86 196.51 C 113.80 196.63 114.74 196.71 115.69 196.74 C 117.82 196.88 119.95 197.02 122.09 197.09 C 118.14 200.42 122.66 199.26 124.01 201.18 C 120.13 202.53 112.07 196.88 111.64 203.76 C 108.33 204.16 99.36 209.83 106.06 210.61 C 105.55 210.70 104.55 210.88 104.05 210.97 C 99.17 211.38 95.62 216.95 93.99 221.22 C 95.25 221.24 97.77 221.28 99.04 221.30 C 102.96 220.09 106.22 222.61 109.15 224.85 C 107.07 226.29 105.35 228.16 103.83 230.17 C 101.59 229.94 99.36 229.63 97.14 229.28 C 58.89 219.50 28.86 187.60 18.83 149.79 C 18.74 147.20 18.24 144.66 17.80 142.12 C 17.64 140.57 17.31 137.47 17.14 135.92 C 17.04 135.52 16.82 134.70 16.71 134.29 C 16.93 128.14 16.96 121.98 16.75 115.83 C 16.75 115.42 16.75 114.62 16.75 114.22 C 16.86 113.70 17.06 112.67 17.17 112.15 C 18.59 110.73 18.37 108.62 17.70 106.90 C 20.84 92.96 25.52 79.16 33.25 67.05 C 36.64 62.17 40.18 57.41 44.02 52.88 C 53.38 42.09 65.50 33.94 78.11 27.40 C 81.46 26.01 84.83 24.69 88.14 23.23 C 92.79 21.89 97.47 20.64 102.17 19.45 C 103.40 19.22 104.64 18.99 105.89 18.77 C 107.44 18.63 110.55 18.35 112.11 18.21 M 125.98 25.15 C 124.03 25.37 124.46 28.80 125.47 29.96 C 122.61 35.23 128.85 37.98 133.21 37.08 C 133.66 38.85 138.35 38.90 138.68 37.02 C 139.01 36.46 139.67 35.34 140.00 34.78 C 141.99 34.67 141.57 31.16 140.53 30.03 C 143.97 25.29 135.08 23.98 136.98 29.21 C 135.32 29.19 135.46 32.08 136.36 32.99 C 135.41 33.83 134.30 34.19 133.03 34.09 C 126.84 33.99 133.54 22.66 126.90 23.99 C 126.67 24.28 126.21 24.86 125.98 25.15 M 110.47 32.05 C 109.44 33.17 109.02 36.66 111.00 36.78 C 114.55 36.00 124.41 40.30 122.99 34.05 C 122.75 32.94 121.75 32.58 120.01 32.98 C 110.29 38.61 118.58 25.38 113.92 26.04 C 109.74 24.85 108.21 27.65 110.47 32.05 M 91.04 30.17 C 91.90 33.26 90.89 37.46 93.31 40.02 C 93.66 41.90 98.34 41.86 98.80 40.07 C 101.95 39.57 105.71 39.49 107.86 36.78 C 108.11 33.60 107.86 29.75 105.82 27.09 C 100.76 26.64 95.45 27.65 91.04 30.17 M 143.99 27.06 C 144.08 28.79 143.19 31.74 146.01 31.00 C 151.70 30.95 142.62 39.22 147.64 40.45 C 151.92 42.43 151.00 35.48 152.22 33.04 C 154.18 33.20 156.06 33.82 158.01 34.04 C 158.66 27.29 147.50 30.01 143.99 27.06 M 84.22 32.13 C 80.36 33.63 85.51 42.87 82.28 42.63 C 79.06 40.84 76.12 34.92 72.10 38.22 C 72.34 42.29 77.75 43.87 80.35 46.67 C 89.04 50.22 90.34 31.31 84.22 32.13 M 157.09 41.08 C 154.93 44.45 160.91 45.19 160.98 42.77 C 162.55 42.79 163.02 39.95 162.44 38.78 C 163.71 38.23 164.28 37.26 164.15 35.88 C 166.27 35.87 164.98 31.81 163.15 33.08 C 158.66 32.01 159.27 38.44 157.09 41.08 M 58.14 48.27 C 57.54 52.59 62.28 55.48 64.06 58.92 C 66.35 56.09 77.10 53.44 73.68 48.82 C 73.29 48.59 72.49 48.14 72.09 47.91 C 71.74 47.39 71.04 46.34 70.69 45.81 C 70.23 44.56 70.56 42.62 69.25 41.96 C 64.84 42.07 61.72 46.02 58.14 48.27 M 112.03 47.01 C 109.70 54.01 119.93 50.79 123.35 50.32 C 125.96 44.50 114.69 47.67 112.03 47.01 M 129.23 47.09 C 124.21 52.91 137.35 51.83 140.03 52.00 C 140.96 46.49 132.35 48.12 129.23 47.09 M 101.38 49.40 C 98.92 49.97 92.52 51.76 96.22 54.89 C 99.82 54.51 103.65 53.40 106.91 51.83 C 108.04 48.14 104.84 48.16 101.38 49.40 M 53.27 53.21 C 49.81 55.68 47.61 59.59 44.18 62.17 C 46.13 65.47 49.69 67.81 52.17 70.77 C 56.71 69.75 52.42 63.83 57.25 62.25 C 59.48 63.39 63.56 62.23 62.62 59.48 C 59.06 57.98 57.73 52.08 53.27 53.21 M 88.32 54.38 C 85.55 55.59 82.84 56.91 80.13 58.25 C 78.74 67.88 98.24 54.07 88.32 54.38 M 73.97 63.12 C 71.67 65.17 64.12 68.09 68.23 71.86 C 71.84 71.87 81.56 62.64 73.97 63.12 M 62.21 74.16 C 60.30 77.12 53.37 81.20 57.22 84.87 C 61.36 85.24 69.22 73.34 62.21 74.16 M 52.31 88.20 C 50.89 91.11 45.52 100.12 51.84 98.92 C 52.89 95.47 59.83 86.45 52.31 88.20 M 47.18 103.06 C 45.02 106.27 40.88 116.91 47.77 114.88 C 48.11 111.19 52.82 103.64 47.18 103.06 M 43.02 120.03 C 43.83 123.61 40.21 133.21 46.94 132.03 C 46.19 127.83 50.21 117.98 43.02 120.03 M 45.23 136.12 C 42.33 139.55 44.03 150.08 50.04 147.97 C 49.02 144.15 49.76 136.70 45.23 136.12 M 50.16 152.13 C 47.46 155.59 50.50 162.07 54.00 164.01 C 58.79 161.78 52.85 153.82 50.16 152.13 M 57.21 167.11 C 54.25 170.38 59.93 174.53 61.98 177.07 C 69.76 179.20 62.06 165.78 57.21 167.11 M 66.96 179.99 C 66.78 184.55 72.00 188.33 76.15 188.94 C 77.98 190.19 79.28 186.14 77.16 186.15 C 74.83 183.15 71.12 179.51 66.96 179.99 M 81.23 190.12 C 77.88 194.11 86.81 196.88 89.93 197.97 C 95.37 194.38 84.62 189.93 81.23 190.12 M 96.22 197.11 C 92.06 202.18 104.44 202.11 106.99 203.00 C 108.88 196.77 100.24 197.67 96.22 197.11 M 78.37 206.35 C 71.25 213.88 90.38 222.42 92.36 214.78 C 93.34 214.24 93.55 213.36 93.00 212.13 C 97.90 206.79 80.54 198.90 78.37 206.35 Z" />
</g>
<g id="#706432ff">
<path fill="#706432" opacity="1.00" d=" M 135.92 18.17 C 137.64 17.63 139.60 17.50 141.10 18.68 C 139.41 19.38 137.31 19.62 135.92 18.17 Z" />
</g>
<g id="#dbaa44ff">
<path fill="#dbaa44" opacity="1.00" d=" M 172.09 22.67 C 173.29 19.55 176.59 20.72 179.13 20.97 C 183.58 22.93 188.80 25.12 191.86 29.01 C 194.07 33.88 200.01 35.59 203.18 39.82 C 215.67 51.60 226.03 66.05 231.98 82.23 C 226.90 79.52 222.28 76.78 219.15 71.92 C 219.04 72.47 218.82 73.57 218.70 74.12 C 211.83 61.72 202.45 51.05 192.12 41.45 C 193.59 38.85 189.17 37.71 187.92 36.10 C 181.81 32.60 177.79 26.69 172.09 22.67 Z" />
</g>
<g id="#b17f2dff">
<path fill="#b17f2d" opacity="1.00" d=" M 58.27 27.19 C 61.53 24.70 64.98 22.03 68.93 20.82 C 74.51 19.25 76.03 24.77 78.11 27.40 C 65.50 33.94 53.38 42.09 44.02 52.88 C 44.76 49.89 42.15 52.51 40.81 52.82 C 37.68 54.09 36.43 50.27 34.90 48.35 C 35.20 48.06 35.81 47.47 36.11 47.18 C 37.71 45.51 39.90 44.16 40.30 41.69 C 40.70 40.40 42.19 40.00 43.21 39.32 C 45.25 38.42 46.78 36.77 48.05 34.99 C 48.30 34.76 48.78 34.31 49.02 34.08 C 52.31 32.08 55.59 29.98 58.27 27.19 Z" />
</g>
<g id="#ddce82ff">
<path fill="#ddce82" opacity="1.00" d=" M 125.98 25.15 C 126.21 24.86 126.67 24.28 126.90 23.99 C 131.39 26.34 125.75 36.01 133.03 34.09 C 134.30 34.19 135.41 33.83 136.36 32.99 C 137.62 32.21 136.97 30.41 136.98 29.21 C 135.08 23.98 143.97 25.29 140.53 30.03 C 139.88 31.53 139.83 33.18 140.00 34.78 C 139.67 35.34 139.01 36.46 138.68 37.02 C 136.85 36.94 135.03 36.94 133.21 37.08 C 128.85 37.98 122.61 35.23 125.47 29.96 C 126.12 28.44 126.21 26.78 125.98 25.15 Z" />
</g>
<g id="#796b3dff">
<path fill="#796b3d" opacity="1.00" d=" M 126.90 23.99 C 133.54 22.66 126.84 33.99 133.03 34.09 C 125.75 36.01 131.39 26.34 126.90 23.99 Z" />
</g>
<g id="#887b51ff">
<path fill="#887b51" opacity="1.00" d=" M 125.47 29.96 C 124.46 28.80 124.03 25.37 125.98 25.15 C 126.21 26.78 126.12 28.44 125.47 29.96 Z" />
</g>
<g id="#dacd82ff">
<path fill="#dacd82" opacity="1.00" d=" M 110.47 32.05 C 108.21 27.65 109.74 24.85 113.92 26.04 C 110.59 34.96 117.19 34.28 122.99 34.05 C 124.41 40.30 114.55 36.00 111.00 36.78 C 111.23 35.18 111.11 33.54 110.47 32.05 Z" />
</g>
<g id="#665b31ff">
<path fill="#665b31" opacity="1.00" d=" M 113.92 26.04 C 118.58 25.38 110.29 38.61 120.01 32.98 C 121.75 32.58 122.75 32.94 122.99 34.05 C 117.19 34.28 110.59 34.96 113.92 26.04 Z" />
</g>
<g id="#dcbf8cff">
<path fill="#dcbf8c" opacity="1.00" d=" M 49.02 34.08 C 51.35 31.16 54.27 27.42 58.27 27.19 C 55.59 29.98 52.31 32.08 49.02 34.08 Z" />
</g>
<g id="#d7c87aff">
<path fill="#d7c87a" opacity="1.00" d=" M 91.04 30.17 C 95.45 27.65 100.76 26.64 105.82 27.09 C 107.86 29.75 108.11 33.60 107.86 36.78 C 105.71 39.49 101.95 39.57 98.80 40.07 C 96.97 39.96 95.14 39.95 93.31 40.02 C 90.89 37.46 91.90 33.26 91.04 30.17 M 102.66 30.07 C 100.57 31.53 92.99 30.04 95.51 34.35 C 95.88 39.97 108.30 35.15 102.66 30.07 Z" />
</g>
<g id="#cfc079ff">
<path fill="#cfc079" opacity="1.00" d=" M 143.99 27.06 C 147.50 30.01 158.66 27.29 158.01 34.04 C 156.06 33.82 154.18 33.20 152.22 33.04 C 151.00 35.48 151.92 42.43 147.64 40.45 C 142.62 39.22 151.70 30.95 146.01 31.00 C 143.19 31.74 144.08 28.79 143.99 27.06 Z" />
</g>
<g id="#726931ff">
<path fill="#726931" opacity="1.00" d=" M 136.36 32.99 C 135.46 32.08 135.32 29.19 136.98 29.21 C 136.97 30.41 137.62 32.21 136.36 32.99 Z" />
</g>
<g id="#bf9e5aff">
<path fill="#bf9e5a" opacity="1.00" d=" M 191.86 29.01 C 211.62 40.58 226.44 61.52 234.00 83.07 C 234.29 86.62 232.87 83.61 231.98 82.23 C 226.03 66.05 215.67 51.60 203.18 39.82 C 200.01 35.59 194.07 33.88 191.86 29.01 Z" />
</g>
<g id="#2d1f0bff">
<path fill="#2d1f0b" opacity="1.00" d=" M 102.66 30.07 C 108.30 35.15 95.88 39.97 95.51 34.35 C 92.99 30.04 100.57 31.53 102.66 30.07 Z" />
</g>
<g id="#8f834cff">
<path fill="#8f834c" opacity="1.00" d=" M 140.00 34.78 C 139.83 33.18 139.88 31.53 140.53 30.03 C 141.57 31.16 141.99 34.67 140.00 34.78 Z" />
</g>
<g id="#090604ff">
<path fill="#090604" opacity="1.00" d=" M 169.86 35.50 C 171.82 33.83 173.74 32.11 175.96 30.78 C 181.72 33.73 186.78 37.82 192.12 41.45 C 202.45 51.05 211.83 61.72 218.70 74.12 C 222.69 81.70 225.58 89.76 228.21 97.89 C 227.59 99.29 227.53 101.02 228.77 102.10 C 229.01 102.64 229.49 103.71 229.73 104.25 C 229.86 104.91 230.12 106.24 230.25 106.91 C 229.62 108.61 229.43 110.65 230.76 112.09 C 230.90 112.74 231.19 114.04 231.34 114.69 C 231.06 120.87 231.07 127.05 231.18 133.24 C 231.09 133.91 230.91 135.25 230.82 135.92 C 229.42 137.31 229.62 139.38 230.23 141.08 C 230.09 141.75 229.80 143.08 229.65 143.74 C 229.32 145.11 229.02 146.49 228.74 147.87 C 227.54 148.98 227.60 150.69 228.19 152.11 C 227.69 153.63 227.20 155.16 226.72 156.70 C 225.66 159.53 224.65 162.39 223.56 165.21 C 222.22 168.13 220.93 171.06 219.58 173.97 C 213.71 185.55 205.42 195.59 196.16 204.59 C 190.51 209.45 184.34 213.66 178.08 217.68 C 166.78 224.66 153.98 228.53 141.07 231.26 C 139.37 230.61 137.30 230.40 135.91 231.82 C 135.11 231.91 133.52 232.10 132.72 232.19 C 126.18 231.99 119.63 231.96 113.09 232.03 C 112.04 230.74 110.37 230.38 108.79 230.41 C 107.21 229.73 105.46 229.62 103.83 230.17 C 105.35 228.16 107.07 226.29 109.15 224.85 C 113.45 223.47 108.15 215.92 107.82 212.11 C 107.38 211.74 106.50 210.99 106.06 210.61 C 99.36 209.83 108.33 204.16 111.64 203.76 C 115.46 204.36 124.57 207.82 124.01 201.18 C 122.66 199.26 118.14 200.42 122.09 197.09 C 151.38 197.24 180.78 177.48 189.10 149.00 C 185.12 147.74 183.75 151.53 181.92 154.15 C 182.08 147.12 187.49 141.19 195.09 144.44 C 193.47 147.80 192.16 151.32 191.23 154.93 C 196.40 158.82 198.09 148.76 198.07 145.07 C 196.31 141.66 195.98 138.62 199.03 136.20 C 194.75 136.44 196.72 134.78 198.97 133.13 C 194.78 133.45 196.73 131.81 198.90 130.16 C 196.45 129.60 194.00 129.06 191.59 128.36 C 194.49 128.24 197.38 128.05 200.27 127.79 C 198.63 127.11 196.93 126.61 195.25 126.09 L 195.29 125.05 C 196.91 124.84 199.81 125.71 199.02 123.05 C 190.58 122.67 182.06 123.67 173.68 122.41 C 175.17 127.59 181.93 123.82 185.65 124.92 L 185.69 126.02 C 185.47 126.24 185.02 126.68 184.79 126.90 C 181.84 127.89 177.19 125.68 174.73 127.86 C 177.60 128.00 180.47 128.15 183.35 128.31 L 182.94 129.07 C 181.41 129.48 179.86 129.80 178.33 130.23 C 174.97 130.83 173.61 134.73 173.40 137.69 C 170.81 149.35 163.75 159.71 154.76 167.41 C 153.76 168.13 152.82 168.92 151.91 169.75 C 144.83 173.57 137.39 176.69 129.62 178.76 C 131.22 178.87 134.41 179.10 136.01 179.22 C 132.67 180.81 128.95 181.63 125.93 178.95 C 125.82 180.62 125.94 182.39 127.88 182.80 C 128.45 183.07 129.59 183.61 130.16 183.88 C 127.35 183.75 121.80 185.57 124.99 179.11 C 124.68 179.25 124.05 179.53 123.74 179.67 C 122.60 179.43 121.46 179.17 120.30 179.07 C 114.18 174.08 107.66 183.59 114.15 185.39 C 110.44 186.30 107.57 186.85 110.91 184.00 C 112.36 179.39 112.07 177.64 110.05 178.78 L 109.37 178.79 C 101.63 179.40 95.16 174.43 88.92 170.54 C 88.04 169.94 87.11 169.43 86.17 168.95 C 76.88 159.18 66.25 146.13 67.83 131.95 C 63.05 134.74 67.96 144.53 70.26 149.74 C 70.03 150.06 69.57 150.70 69.34 151.02 C 66.27 143.55 60.79 133.78 66.95 126.73 C 57.56 129.94 64.62 141.15 66.18 147.75 C 65.96 148.08 65.52 148.74 65.30 149.06 C 57.99 131.10 58.99 108.69 70.96 92.96 L 70.99 93.77 C 67.01 102.07 62.86 110.60 62.17 119.92 C 63.19 122.02 64.35 125.20 67.16 125.05 C 60.25 115.63 67.70 103.91 72.12 94.86 C 72.41 95.11 72.97 95.61 73.26 95.85 C 70.31 101.06 67.86 106.61 66.50 112.45 C 67.98 113.45 63.83 119.47 67.58 119.22 C 66.26 111.02 71.33 103.59 74.09 96.24 C 76.01 94.27 77.71 92.09 79.42 89.94 C 82.28 86.39 85.85 83.57 89.09 80.40 C 94.60 79.31 100.14 78.05 105.08 75.17 C 107.49 74.19 103.53 73.82 102.73 73.13 C 105.15 71.35 107.23 74.06 109.46 73.03 L 110.00 73.32 C 112.00 75.00 110.69 71.00 111.06 69.96 L 111.92 70.04 C 111.46 72.91 112.14 74.54 115.10 73.04 C 116.84 72.98 118.59 72.92 120.33 72.87 C 120.79 72.94 121.70 73.08 122.16 73.15 C 123.40 73.34 125.56 74.53 124.68 72.25 C 124.71 71.71 124.78 70.64 124.81 70.10 L 125.69 69.74 C 125.77 70.56 125.94 72.21 126.03 73.03 C 128.11 68.25 133.14 71.14 137.02 71.96 C 143.23 73.58 148.85 76.85 154.27 80.19 C 153.96 80.43 153.34 80.91 153.02 81.16 C 147.47 77.60 141.65 74.02 135.04 72.94 C 134.09 73.98 127.69 69.67 129.08 73.73 C 139.13 74.15 148.44 79.25 156.18 85.43 C 157.52 87.00 158.98 88.47 160.55 89.82 C 165.04 93.81 166.82 99.90 171.12 104.00 C 172.98 109.95 171.48 119.09 178.37 121.70 C 185.23 122.23 192.12 122.14 199.00 121.96 C 199.79 119.36 196.95 120.12 195.37 119.86 L 195.25 118.75 C 204.92 118.28 190.99 115.82 186.81 116.97 C 187.16 116.55 187.86 115.73 188.21 115.32 L 188.96 115.42 C 191.38 116.95 193.43 116.95 195.13 115.41 C 196.54 115.02 198.23 115.16 199.37 114.10 C 193.50 113.85 187.65 114.08 181.79 114.22 C 180.99 112.64 180.23 111.02 179.68 109.33 C 179.90 109.00 180.34 108.35 180.56 108.02 C 182.89 114.40 194.74 112.84 197.79 111.10 C 197.62 110.57 197.30 109.51 197.13 108.98 C 197.15 108.57 197.18 107.75 197.19 107.34 C 198.09 103.95 196.97 91.51 191.06 96.17 C 191.75 99.61 193.16 102.87 194.28 106.19 C 188.39 109.43 184.32 105.82 181.95 101.01 C 180.89 93.54 175.02 88.37 171.83 81.89 C 178.52 87.04 181.40 95.57 185.29 102.80 C 186.93 102.93 190.20 103.92 188.81 101.12 C 182.58 82.91 167.99 68.01 150.53 60.10 C 150.76 56.37 156.86 61.30 156.15 57.13 C 156.61 54.68 154.75 53.52 152.79 52.69 C 155.05 49.35 158.15 43.44 162.85 45.71 C 167.38 48.76 175.27 56.29 179.03 49.00 C 185.27 42.80 175.32 39.06 170.97 36.65 C 170.70 36.36 170.14 35.79 169.86 35.50 M 177.05 54.98 C 178.71 58.97 182.99 54.95 185.03 52.99 C 183.48 57.81 183.44 63.93 188.97 66.06 C 191.87 63.59 200.95 57.80 194.69 55.27 C 192.19 54.03 188.92 62.14 188.95 56.86 C 190.76 56.97 190.60 53.90 189.57 53.01 C 190.45 51.21 190.03 49.75 188.32 48.65 C 183.69 41.86 180.29 52.52 177.05 54.98 M 159.99 58.00 C 158.97 62.61 164.92 64.01 168.07 66.01 C 175.26 65.00 164.09 56.66 159.99 58.00 M 172.96 68.00 C 172.69 72.24 177.36 74.57 179.20 77.91 C 187.78 78.22 177.82 65.91 172.96 68.00 M 185.13 80.03 C 181.84 83.61 187.32 94.05 191.91 90.78 C 191.55 86.72 189.16 81.70 185.13 80.03 M 83.02 94.01 C 79.78 101.38 83.19 114.85 82.05 123.99 C 82.39 135.10 80.79 148.49 83.01 158.00 C 84.13 160.58 94.04 159.32 94.98 158.00 C 97.56 153.42 95.11 144.22 96.05 138.04 C 99.74 138.05 107.13 138.08 110.82 138.09 C 115.30 144.36 118.23 152.61 123.00 157.99 C 124.84 160.46 134.42 159.36 136.00 158.01 L 136.99 158.01 C 137.43 159.76 146.49 159.87 146.00 157.96 C 154.46 156.48 162.09 150.70 166.89 143.74 C 169.86 139.75 167.90 124.46 166.99 120.22 C 160.44 116.55 151.30 120.29 143.99 119.00 C 134.94 115.48 137.53 129.69 139.00 131.99 C 142.51 135.98 157.83 127.65 153.02 139.93 C 152.73 140.18 152.15 140.68 151.86 140.93 C 143.63 147.35 125.05 147.30 126.66 133.79 C 129.98 134.51 132.01 130.59 133.06 128.04 C 138.19 122.27 137.16 114.11 136.01 107.04 C 143.17 105.59 149.29 108.92 154.76 112.79 C 157.29 109.27 163.30 107.00 162.84 102.29 C 157.95 98.41 152.39 94.58 146.04 93.98 C 143.55 91.69 134.05 92.61 132.00 94.02 C 127.70 96.02 124.11 95.76 120.04 93.97 C 110.14 91.81 92.78 92.67 83.02 94.01 M 188.36 160.24 C 186.88 163.84 183.24 166.80 184.00 171.02 C 189.19 172.46 196.33 158.02 188.36 160.24 M 179.31 174.25 C 176.87 176.61 169.56 181.46 174.99 184.06 C 178.22 182.02 187.52 173.83 179.31 174.25 M 168.06 185.10 C 165.37 187.49 159.03 188.28 159.98 193.01 C 161.88 196.65 176.29 186.24 168.06 185.10 M 152.33 194.40 C 149.96 195.40 147.53 196.27 145.15 197.25 C 142.16 207.44 164.46 192.64 152.33 194.40 M 135.40 199.51 C 132.08 199.65 126.86 199.37 127.97 203.99 C 132.25 203.67 137.46 205.12 140.93 201.82 C 141.70 199.16 137.35 197.25 135.40 199.51 M 158.67 203.65 C 156.47 205.40 151.87 205.47 150.98 208.24 C 149.15 207.89 149.15 212.10 150.97 211.76 C 151.54 213.74 154.71 214.17 153.17 216.93 C 155.70 221.60 163.97 214.97 166.05 212.80 C 167.85 213.10 167.85 208.91 166.03 209.27 C 162.91 207.71 163.04 200.93 158.67 203.65 M 135.03 213.17 L 134.05 212.97 C 128.66 211.35 125.46 213.80 124.77 218.90 C 120.93 217.66 121.19 209.67 114.01 214.00 C 111.38 214.22 112.71 224.82 113.99 224.99 C 114.46 227.31 119.71 226.21 118.06 222.97 C 116.58 211.41 120.44 222.65 122.14 224.95 C 127.16 226.71 127.32 220.55 129.87 217.81 C 129.97 221.53 128.72 226.64 133.96 225.00 C 136.29 224.29 134.91 219.77 135.87 217.76 C 136.42 220.79 137.49 225.79 141.67 223.62 C 144.61 222.84 154.48 221.05 149.95 217.98 C 150.39 216.09 150.22 215.21 149.43 215.34 C 149.04 214.98 148.27 214.26 147.88 213.90 C 148.99 213.42 149.86 209.24 148.42 210.29 C 145.83 207.85 138.65 211.44 135.03 213.17 Z" />
</g>
<g id="#d4c67cff">
<path fill="#d4c67c" opacity="1.00" d=" M 84.22 32.13 C 90.34 31.31 89.04 50.22 80.35 46.67 C 77.75 43.87 72.34 42.29 72.10 38.22 C 76.12 34.92 79.06 40.84 82.28 42.63 C 85.51 42.87 80.36 33.63 84.22 32.13 Z" />
</g>
<g id="#796a36ff">
<path fill="#796a36" opacity="1.00" d=" M 110.47 32.05 C 111.11 33.54 111.23 35.18 111.00 36.78 C 109.02 36.66 109.44 33.17 110.47 32.05 Z" />
</g>
<g id="#d5c67dff">
<path fill="#d5c67d" opacity="1.00" d=" M 157.09 41.08 C 159.27 38.44 158.66 32.01 163.15 33.08 C 163.46 34.02 163.79 34.95 164.15 35.88 C 164.28 37.26 163.71 38.23 162.44 38.78 C 160.74 39.37 160.74 41.29 160.98 42.77 C 160.91 45.19 154.93 44.45 157.09 41.08 Z" />
</g>
<g id="#756e45ff">
<path fill="#756e45" opacity="1.00" d=" M 163.15 33.08 C 164.98 31.81 166.27 35.87 164.15 35.88 C 163.79 34.95 163.46 34.02 163.15 33.08 Z" />
</g>
<g id="#d9ba81ff">
<path fill="#d9ba81" opacity="1.00" d=" M 43.21 39.32 C 43.71 37.18 45.72 34.98 48.05 34.99 C 46.78 36.77 45.25 38.42 43.21 39.32 Z" />
</g>
<g id="#78703fff">
<path fill="#78703f" opacity="1.00" d=" M 167.06 36.98 C 167.70 36.03 168.63 35.53 169.86 35.50 C 170.14 35.79 170.70 36.36 170.97 36.65 C 169.70 37.12 168.39 37.23 167.06 36.98 Z" />
</g>
<g id="#595324ff">
<path fill="#595324" opacity="1.00" d=" M 133.21 37.08 C 135.03 36.94 136.85 36.94 138.68 37.02 C 138.35 38.90 133.66 38.85 133.21 37.08 Z" />
</g>
<g id="#d6cb7eff">
<path fill="#d6cb7e" opacity="1.00" d=" M 167.06 36.98 C 168.39 37.23 169.70 37.12 170.97 36.65 C 175.32 39.06 185.27 42.80 179.03 49.00 C 175.27 56.29 167.38 48.76 162.85 45.71 C 163.73 42.58 165.18 39.64 167.06 36.98 M 170.12 40.05 C 165.67 43.60 170.30 48.64 174.77 47.89 C 178.68 44.38 173.23 41.26 170.12 40.05 Z" />
</g>
<g id="#787131ff">
<path fill="#787131" opacity="1.00" d=" M 160.98 42.77 C 160.74 41.29 160.74 39.37 162.44 38.78 C 163.02 39.95 162.55 42.79 160.98 42.77 Z" />
</g>
<g id="#6d633cff">
<path fill="#6d633c" opacity="1.00" d=" M 93.31 40.02 C 95.14 39.95 96.97 39.96 98.80 40.07 C 98.34 41.86 93.66 41.90 93.31 40.02 Z" />
</g>
<g id="#221a08ff">
<path fill="#221a08" opacity="1.00" d=" M 170.12 40.05 C 173.23 41.26 178.68 44.38 174.77 47.89 C 170.30 48.64 165.67 43.60 170.12 40.05 Z" />
</g>
<g id="#cfaf74ff">
<path fill="#cfaf74" opacity="1.00" d=" M 36.11 47.18 C 35.70 44.49 38.51 43.10 40.30 41.69 C 39.90 44.16 37.71 45.51 36.11 47.18 Z" />
</g>
<g id="#dfd78bff">
<path fill="#dfd78b" opacity="1.00" d=" M 58.14 48.27 C 61.72 46.02 64.84 42.07 69.25 41.96 C 68.79 46.06 64.04 47.09 61.83 50.09 C 65.03 49.22 67.71 47.19 70.69 45.81 C 71.04 46.34 71.74 47.39 72.09 47.91 C 69.60 49.70 65.15 50.58 64.93 54.14 C 68.25 53.16 70.73 50.50 73.68 48.82 C 77.10 53.44 66.35 56.09 64.06 58.92 C 62.28 55.48 57.54 52.59 58.14 48.27 Z" />
</g>
<g id="#6c5b22ff">
<path fill="#6c5b22" opacity="1.00" d=" M 69.25 41.96 C 70.56 42.62 70.23 44.56 70.69 45.81 C 67.71 47.19 65.03 49.22 61.83 50.09 C 64.04 47.09 68.79 46.06 69.25 41.96 Z" />
</g>
<g id="#d7d385ff">
<path fill="#d7d385" opacity="1.00" d=" M 177.05 54.98 C 180.29 52.52 183.69 41.86 188.32 48.65 C 190.03 49.75 190.45 51.21 189.57 53.01 C 188.96 54.19 188.64 55.54 188.95 56.86 C 188.92 62.14 192.19 54.03 194.69 55.27 C 200.95 57.80 191.87 63.59 188.97 66.06 C 183.44 63.93 183.48 57.81 185.03 52.99 C 182.99 54.95 178.71 58.97 177.05 54.98 Z" />
</g>
<g id="#907042ff">
<path fill="#907042" opacity="1.00" d=" M 112.03 47.01 C 114.69 47.67 125.96 44.50 123.35 50.32 C 119.93 50.79 109.70 54.01 112.03 47.01 Z" />
</g>
<g id="#a48b5aff">
<path fill="#a48b5a" opacity="1.00" d=" M 129.23 47.09 C 132.35 48.12 140.96 46.49 140.03 52.00 C 137.35 51.83 124.21 52.91 129.23 47.09 Z" />
</g>
<g id="#c29749ff">
<path fill="#c29749" opacity="1.00" d=" M 23.62 62.46 C 26.85 57.55 30.86 51.41 34.90 48.35 C 36.43 50.27 37.68 54.09 40.81 52.82 C 42.15 52.51 44.76 49.89 44.02 52.88 C 40.18 57.41 36.64 62.17 33.25 67.05 C 33.69 64.03 31.38 66.31 29.95 66.78 C 27.57 65.81 25.46 64.24 23.62 62.46 Z" />
</g>
<g id="#6d6219ff">
<path fill="#6d6219" opacity="1.00" d=" M 64.93 54.14 C 65.15 50.58 69.60 49.70 72.09 47.91 C 72.49 48.14 73.29 48.59 73.68 48.82 C 70.73 50.50 68.25 53.16 64.93 54.14 Z" />
</g>
<g id="#9f7c47ff">
<path fill="#9f7c47" opacity="1.00" d=" M 101.38 49.40 C 104.84 48.16 108.04 48.14 106.91 51.83 C 103.65 53.40 99.82 54.51 96.22 54.89 C 92.52 51.76 98.92 49.97 101.38 49.40 Z" />
</g>
<g id="#cab27aff">
<path fill="#cab27a" opacity="1.00" d=" M 144.04 53.79 C 143.99 48.90 150.11 51.84 152.79 52.69 C 154.75 53.52 156.61 54.68 156.15 57.13 C 151.93 58.56 147.81 55.36 144.04 53.79 Z" />
</g>
<g id="#dfde8dff">
<path fill="#dfde8d" opacity="1.00" d=" M 53.27 53.21 C 57.73 52.08 59.06 57.98 62.62 59.48 C 63.56 62.23 59.48 63.39 57.25 62.25 C 52.42 63.83 56.71 69.75 52.17 70.77 C 49.69 67.81 46.13 65.47 44.18 62.17 C 47.61 59.59 49.81 55.68 53.27 53.21 M 53.28 58.26 C 51.84 59.58 49.83 60.85 49.94 63.06 C 52.42 63.72 57.46 57.26 53.28 58.26 Z" />
</g>
<g id="#68642cff">
<path fill="#68642c" opacity="1.00" d=" M 188.95 56.86 C 188.64 55.54 188.96 54.19 189.57 53.01 C 190.60 53.90 190.76 56.97 188.95 56.86 Z" />
</g>
<g id="#c4b16dff">
<path fill="#c4b16d" opacity="1.00" d=" M 88.32 54.38 C 98.24 54.07 78.74 67.88 80.13 58.25 C 82.84 56.91 85.55 55.59 88.32 54.38 Z" />
</g>
<g id="#241910ff">
<path fill="#241910" opacity="1.00" d=" M 97.90 58.50 C 102.38 56.95 106.98 55.39 111.75 55.19 C 128.43 55.51 146.70 56.93 160.13 67.91 C 158.05 67.29 155.99 66.59 153.89 66.01 C 156.28 67.97 158.77 69.81 161.06 71.91 C 150.68 67.61 140.96 60.50 129.12 61.01 C 120.24 59.13 109.73 60.03 101.78 64.02 C 110.82 62.41 119.97 61.62 129.12 61.01 C 151.96 65.17 172.28 79.69 181.95 101.01 C 182.00 109.03 190.61 110.60 197.13 108.98 C 197.30 109.51 197.62 110.57 197.79 111.10 C 193.63 110.84 189.40 111.43 185.27 110.77 C 181.76 108.46 181.30 104.00 179.03 100.77 C 179.27 103.24 179.95 105.63 180.56 108.02 C 180.34 108.35 179.90 109.00 179.68 109.33 C 176.68 101.31 173.68 92.46 166.87 86.87 C 172.71 95.38 176.21 106.46 181.79 114.22 C 183.40 114.50 186.61 115.05 188.21 115.32 C 187.86 115.73 187.16 116.55 186.81 116.97 C 173.46 120.55 177.95 101.05 169.93 95.83 C 172.36 102.46 175.64 108.77 177.31 115.69 C 178.94 118.74 182.69 118.42 185.62 118.92 L 185.67 120.11 C 173.57 123.91 175.73 110.29 171.12 104.00 C 169.36 98.83 166.33 90.49 160.55 89.82 C 158.98 88.47 157.52 87.00 156.18 85.43 C 157.26 83.30 154.20 82.41 153.02 81.16 C 153.34 80.91 153.96 80.43 154.27 80.19 C 156.21 79.17 152.28 77.48 151.99 77.01 C 144.27 72.26 134.76 68.11 125.69 69.74 L 124.81 70.10 C 124.89 69.34 125.06 67.81 125.14 67.05 C 132.92 66.68 139.74 70.92 147.21 72.03 C 140.77 66.94 131.84 66.79 124.03 65.96 C 124.19 67.53 124.51 70.68 124.68 72.25 C 125.56 74.53 123.40 73.34 122.16 73.15 C 127.60 65.40 109.88 62.01 111.92 70.04 L 111.06 69.96 C 111.17 63.79 102.44 69.65 98.96 70.90 C 96.57 71.16 94.52 72.43 92.82 74.06 C 95.40 74.30 97.23 72.52 98.96 70.90 C 103.22 71.48 111.77 65.31 110.00 73.32 L 109.46 73.03 C 109.58 68.17 101.51 71.50 102.73 73.13 C 103.53 73.82 107.49 74.19 105.08 75.17 C 100.14 78.05 94.60 79.31 89.09 80.40 C 86.53 81.19 84.33 82.76 82.01 84.04 C 83.67 81.97 85.38 79.93 86.98 77.80 C 80.19 81.12 76.17 87.77 70.96 92.96 C 71.26 91.61 71.53 90.25 71.80 88.90 C 73.69 87.70 75.92 86.35 76.15 83.88 C 74.13 84.97 72.69 86.80 71.80 88.90 C 56.43 107.90 54.56 138.04 68.84 158.12 C 68.72 159.54 69.62 160.75 71.01 161.06 C 70.80 162.99 72.21 164.43 73.96 164.96 C 76.76 170.36 81.61 174.52 87.07 177.11 C 87.80 179.13 89.85 179.95 91.88 179.95 C 93.28 182.00 95.61 182.82 98.00 183.05 C 100.65 185.03 103.90 186.26 107.26 185.98 C 104.52 184.14 101.19 183.59 98.00 183.05 C 96.21 181.56 94.10 180.58 91.88 179.95 C 91.25 177.83 89.12 176.99 87.07 177.11 C 82.99 172.76 78.43 168.89 73.96 164.96 C 74.19 163.02 72.82 161.51 71.01 161.06 C 71.42 159.58 70.41 158.10 68.84 158.12 C 67.73 155.07 66.46 152.09 65.30 149.06 C 65.52 148.74 65.96 148.08 66.18 147.75 C 68.00 151.77 69.75 155.96 72.90 159.15 C 72.90 161.02 74.22 162.43 75.96 162.95 C 77.93 166.17 80.10 170.18 84.09 171.13 C 81.72 168.08 79.03 165.28 75.96 162.95 C 76.22 160.98 74.80 159.43 72.90 159.15 C 71.79 156.40 70.54 153.72 69.34 151.02 C 69.57 150.70 70.03 150.06 70.26 149.74 C 73.94 157.07 78.21 165.67 86.17 168.95 C 87.11 169.43 88.04 169.94 88.92 170.54 C 88.77 170.88 88.48 171.56 88.33 171.90 C 93.76 175.73 99.86 178.64 106.13 180.83 C 107.79 181.44 109.35 180.67 109.37 178.79 L 110.05 178.78 C 110.66 182.02 109.37 183.80 105.99 183.30 C 103.32 180.65 99.55 179.72 95.98 178.98 C 93.87 177.20 91.57 175.62 88.83 175.05 C 90.81 177.02 93.46 177.91 95.98 178.98 C 98.85 181.33 102.41 182.51 105.99 183.30 C 107.59 183.74 109.25 183.91 110.91 184.00 C 107.57 186.85 110.44 186.30 114.15 185.39 L 115.12 185.27 C 117.11 184.96 119.35 185.20 121.03 183.90 C 120.40 181.07 116.88 182.34 114.84 182.18 C 111.61 178.76 120.65 182.99 120.30 179.07 C 121.46 179.17 122.60 179.43 123.74 179.67 C 123.82 181.22 123.99 184.33 124.07 185.89 C 131.56 184.84 139.80 184.38 146.22 180.00 C 140.73 180.63 135.72 183.46 130.16 183.88 C 129.59 183.61 128.45 183.07 127.88 182.80 C 136.67 180.49 147.92 179.37 154.13 171.88 C 148.11 174.35 142.75 178.77 136.01 179.22 C 140.63 174.93 148.89 175.85 151.91 169.75 C 152.82 168.92 153.76 168.13 154.76 167.41 C 159.23 167.17 161.48 162.21 165.04 159.96 C 163.14 163.38 160.19 166.02 157.94 169.18 C 166.46 164.20 172.45 154.47 175.07 144.98 C 176.70 140.79 177.29 135.61 181.93 133.72 C 181.91 134.47 181.87 135.97 181.85 136.72 C 177.51 140.61 176.52 146.82 175.05 152.23 C 178.72 148.57 178.53 142.63 181.77 138.64 C 181.80 139.42 181.86 140.98 181.89 141.77 C 179.30 146.83 178.02 152.66 174.30 157.06 C 174.17 156.26 173.91 154.66 173.78 153.85 C 169.54 160.51 164.19 166.28 158.95 172.14 C 165.89 169.33 168.60 161.47 174.30 157.06 C 173.16 159.40 171.98 161.70 170.89 164.06 C 166.28 168.41 161.49 172.57 156.88 176.91 C 153.62 178.14 150.59 179.92 147.84 182.05 C 150.32 181.65 152.71 180.88 155.13 180.23 C 135.58 193.74 107.82 193.02 88.07 180.19 C 85.75 178.71 83.50 177.09 80.95 176.03 C 78.22 172.79 75.42 169.58 72.04 167.01 C 69.77 162.76 67.45 158.41 64.00 154.99 C 58.63 140.57 56.29 125.11 58.95 109.78 C 60.02 108.25 61.91 106.33 60.83 104.35 C 58.61 104.63 58.99 108.05 58.95 109.78 C 54.32 124.50 55.79 141.76 64.00 154.99 C 65.81 159.48 67.76 164.32 72.04 167.01 C 74.12 170.69 76.78 174.55 80.95 176.03 C 82.58 178.11 84.48 179.99 86.82 181.26 C 106.13 193.27 131.82 194.63 152.02 184.03 C 164.75 178.34 173.45 167.08 181.04 155.84 C 179.97 160.84 175.96 164.45 174.06 169.08 C 170.76 171.79 167.52 174.61 164.96 178.04 C 163.01 177.81 161.51 179.18 161.05 180.99 C 159.58 180.60 158.12 181.59 158.08 183.14 C 151.93 185.28 146.28 188.72 139.97 190.39 C 131.51 192.60 122.83 193.32 114.10 193.09 C 121.17 195.48 132.77 194.12 141.34 191.34 C 147.35 189.64 153.06 186.87 158.08 183.14 C 159.51 183.30 160.75 182.38 161.05 180.99 C 162.99 181.20 164.43 179.79 164.96 178.04 C 168.66 175.92 172.48 173.23 174.06 169.08 C 180.52 164.14 182.31 155.87 187.03 149.77 C 178.27 180.13 145.73 196.80 115.69 196.74 C 114.74 196.71 113.80 196.63 112.86 196.51 C 116.17 193.05 106.18 194.80 103.98 194.07 C 101.27 192.33 98.15 191.39 94.97 191.05 C 78.03 181.91 62.70 168.43 56.36 149.71 C 47.43 125.65 52.59 95.24 72.18 77.93 C 54.63 97.89 47.15 128.93 59.99 153.24 C 51.45 129.10 53.23 98.97 73.18 80.89 C 70.12 87.95 62.57 93.11 62.00 101.22 C 69.38 84.72 83.36 72.88 99.20 64.96 C 90.62 66.13 84.28 73.04 76.94 77.06 C 80.14 72.00 86.21 70.25 90.21 66.05 C 88.05 66.56 85.96 67.27 83.83 67.88 C 86.43 62.77 97.97 62.65 97.90 58.50 M 117.41 57.54 C 112.31 58.22 107.16 58.79 102.20 60.23 C 101.24 62.13 104.73 60.47 105.67 60.60 C 121.28 56.22 137.37 59.96 152.12 65.05 C 142.71 58.15 128.85 57.14 117.41 57.54 M 96.29 62.13 C 90.01 65.96 103.46 62.02 96.29 62.13 M 97.96 67.84 C 91.26 70.56 84.23 74.06 79.92 80.08 C 86.37 76.38 91.96 71.14 99.14 68.68 C 112.71 62.31 128.16 63.94 142.41 67.17 C 129.04 59.93 110.59 62.73 97.96 67.84 M 142.41 67.17 C 142.39 68.67 146.11 70.00 146.66 68.35 C 145.58 67.36 143.85 66.43 142.41 67.17 M 148.85 69.94 C 154.10 72.95 158.51 77.91 164.13 80.04 C 160.28 75.48 155.04 70.53 148.85 69.94 M 98.07 74.24 C 95.39 74.80 93.35 76.07 91.93 78.06 C 93.48 78.04 101.10 74.31 98.07 74.24 M 167.81 84.04 C 169.82 88.12 172.54 92.24 176.07 95.13 C 175.03 90.58 171.64 86.52 167.81 84.04 M 62.93 158.87 C 63.64 162.42 66.15 166.11 69.04 167.95 C 67.20 164.88 66.26 160.73 62.93 158.87 M 69.04 167.95 C 70.49 172.89 75.89 176.80 80.31 179.20 C 76.98 175.06 73.08 171.38 69.04 167.95 M 80.31 179.20 C 80.16 180.32 80.71 180.94 81.97 181.06 C 84.51 183.41 87.70 185.30 91.10 186.06 C 89.09 183.69 85.90 181.47 82.72 180.86 C 83.33 179.63 81.29 178.39 80.31 179.20 M 137.39 185.81 C 139.00 186.59 142.11 185.99 142.59 184.23 C 140.99 183.65 138.13 184.50 137.39 185.81 M 112.02 187.98 C 120.07 187.21 130.38 190.00 137.39 185.81 C 129.27 188.10 118.51 185.64 112.02 187.98 M 97.07 189.02 C 98.00 191.04 101.90 190.71 104.09 191.10 C 103.01 189.11 99.79 189.33 97.75 188.80 C 95.37 184.70 90.79 189.02 97.07 189.02 Z" />
</g>
<g id="#675c50ff">
<path fill="#675c50" opacity="1.00" d=" M 111.75 55.19 C 124.80 54.40 138.31 54.99 150.53 60.10 C 167.99 68.01 182.58 82.91 188.81 101.12 C 190.20 103.92 186.93 102.93 185.29 102.80 C 181.40 95.57 178.52 87.04 171.83 81.89 C 175.02 88.37 180.89 93.54 181.95 101.01 C 172.28 79.69 151.96 65.17 129.12 61.01 C 140.96 60.50 150.68 67.61 161.06 71.91 C 162.35 73.70 163.67 75.92 166.12 76.16 C 165.03 74.13 163.23 72.64 161.06 71.91 C 158.77 69.81 156.28 67.97 153.89 66.01 C 155.99 66.59 158.05 67.29 160.13 67.91 C 165.88 73.15 170.98 79.11 177.09 83.95 C 180.66 89.88 183.04 96.52 187.05 102.19 C 185.58 95.47 182.23 88.60 177.09 83.95 C 173.53 76.73 166.88 71.93 160.13 67.91 C 146.70 56.93 128.43 55.51 111.75 55.19 Z" />
</g>
<g id="#5c5044ff">
<path fill="#5c5044" opacity="1.00" d=" M 117.41 57.54 C 128.85 57.14 142.71 58.15 152.12 65.05 C 137.37 59.96 121.28 56.22 105.67 60.60 C 104.73 60.47 101.24 62.13 102.20 60.23 C 107.16 58.79 112.31 58.22 117.41 57.54 Z" />
</g>
<g id="#322b08ff">
<path fill="#322b08" opacity="1.00" d=" M 53.28 58.26 C 57.46 57.26 52.42 63.72 49.94 63.06 C 49.83 60.85 51.84 59.58 53.28 58.26 Z" />
</g>
<g id="#c9ad6eff">
<path fill="#c9ad6e" opacity="1.00" d=" M 159.99 58.00 C 164.09 56.66 175.26 65.00 168.07 66.01 C 164.92 64.01 158.97 62.61 159.99 58.00 Z" />
</g>
<g id="#706859ff">
<path fill="#706859" opacity="1.00" d=" M 53.79 146.28 C 42.21 111.25 63.08 70.21 97.90 58.50 C 97.97 62.65 86.43 62.77 83.83 67.88 C 81.97 67.92 80.56 69.23 80.05 70.96 C 77.47 71.97 75.64 74.05 73.87 76.09 C 76.76 75.72 78.34 73.01 80.05 70.96 C 82.02 71.22 83.59 69.80 83.83 67.88 C 85.96 67.27 88.05 66.56 90.21 66.05 C 86.21 70.25 80.14 72.00 76.94 77.06 C 84.28 73.04 90.62 66.13 99.20 64.96 C 83.36 72.88 69.38 84.72 62.00 101.22 C 62.57 93.11 70.12 87.95 73.18 80.89 C 53.23 98.97 51.45 129.10 59.99 153.24 C 47.15 128.93 54.63 97.89 72.18 77.93 C 52.59 95.24 47.43 125.65 56.36 149.71 C 62.70 168.43 78.03 181.91 94.97 191.05 C 74.61 184.96 60.11 165.94 53.79 146.28 Z" />
</g>
<g id="#514435ff">
<path fill="#514435" opacity="1.00" d=" M 101.78 64.02 C 109.73 60.03 120.24 59.13 129.12 61.01 C 119.97 61.62 110.82 62.41 101.78 64.02 Z" />
</g>
<g id="#e0b961ff">
<path fill="#e0b961" opacity="1.00" d=" M 6.99 107.98 C 8.68 92.30 15.33 74.68 23.62 62.46 C 25.46 64.24 27.57 65.81 29.95 66.78 C 31.38 66.31 33.69 64.03 33.25 67.05 C 25.52 79.16 20.84 92.96 17.70 106.90 C 16.51 108.42 16.63 110.40 17.17 112.15 C 17.06 112.67 16.86 113.70 16.75 114.22 C 14.16 111.03 14.96 106.42 12.84 102.99 C 9.83 102.20 9.45 105.46 8.57 107.52 C 7.40 117.04 8.33 126.67 7.76 136.24 C 6.49 126.87 7.09 117.40 6.99 107.98 Z" />
</g>
<g id="#6b6054ff">
<path fill="#6b6054" opacity="1.00" d=" M 96.29 62.13 C 103.46 62.02 90.01 65.96 96.29 62.13 Z" />
</g>
<g id="#d8d790ff">
<path fill="#d8d790" opacity="1.00" d=" M 73.97 63.12 C 81.56 62.64 71.84 71.87 68.23 71.86 C 64.12 68.09 71.67 65.17 73.97 63.12 Z" />
</g>
<g id="#584a40ff">
<path fill="#584a40" opacity="1.00" d=" M 97.96 67.84 C 110.59 62.73 129.04 59.93 142.41 67.17 C 128.16 63.94 112.71 62.31 99.14 68.68 C 98.85 68.47 98.25 68.05 97.96 67.84 Z" />
</g>
<g id="#614c29ff">
<path fill="#614c29" opacity="1.00" d=" M 111.92 70.04 C 109.88 62.01 127.60 65.40 122.16 73.15 C 121.70 73.08 120.79 72.94 120.33 72.87 C 119.62 69.25 109.54 70.25 115.10 73.04 C 112.14 74.54 111.46 72.91 111.92 70.04 M 113.02 67.06 C 112.31 70.69 117.78 68.48 119.98 68.94 C 120.69 65.31 115.22 67.52 113.02 67.06 Z" />
</g>
<g id="#776b5bff">
<path fill="#776b5b" opacity="1.00" d=" M 124.03 65.96 C 131.84 66.79 140.77 66.94 147.21 72.03 C 139.74 70.92 132.92 66.68 125.14 67.05 C 125.06 67.81 124.89 69.34 124.81 70.10 C 124.78 70.64 124.71 71.71 124.68 72.25 C 124.51 70.68 124.19 67.53 124.03 65.96 Z" />
</g>
<g id="#746759ff">
<path fill="#746759" opacity="1.00" d=" M 98.96 70.90 C 102.44 69.65 111.17 63.79 111.06 69.96 C 110.69 71.00 112.00 75.00 110.00 73.32 C 111.77 65.31 103.22 71.48 98.96 70.90 Z" />
</g>
<g id="#cfb682ff">
<path fill="#cfb682" opacity="1.00" d=" M 113.02 67.06 C 115.22 67.52 120.69 65.31 119.98 68.94 C 117.78 68.48 112.31 70.69 113.02 67.06 Z" />
</g>
<g id="#6c6456ff">
<path fill="#6c6456" opacity="1.00" d=" M 142.41 67.17 C 143.85 66.43 145.58 67.36 146.66 68.35 C 146.11 70.00 142.39 68.67 142.41 67.17 Z" />
</g>
<g id="#111008ff">
<path fill="#111008" opacity="1.00" d=" M 80.05 70.96 C 80.56 69.23 81.97 67.92 83.83 67.88 C 83.59 69.80 82.02 71.22 80.05 70.96 Z" />
</g>
<g id="#837b6bff">
<path fill="#837b6b" opacity="1.00" d=" M 79.92 80.08 C 84.23 74.06 91.26 70.56 97.96 67.84 C 98.25 68.05 98.85 68.47 99.14 68.68 C 91.96 71.14 86.37 76.38 79.92 80.08 Z" />
</g>
<g id="#20140bff">
<path fill="#20140b" opacity="1.00" d=" M 160.13 67.91 C 166.88 71.93 173.53 76.73 177.09 83.95 C 170.98 79.11 165.88 73.15 160.13 67.91 Z" />
</g>
<g id="#aa8a4aff">
<path fill="#aa8a4a" opacity="1.00" d=" M 172.96 68.00 C 177.82 65.91 187.78 78.22 179.20 77.91 C 177.36 74.57 172.69 72.24 172.96 68.00 Z" />
</g>
<g id="#716558ff">
<path fill="#716558" opacity="1.00" d=" M 125.69 69.74 C 134.76 68.11 144.27 72.26 151.99 77.01 C 152.28 77.48 156.21 79.17 154.27 80.19 C 148.85 76.85 143.23 73.58 137.02 71.96 C 133.14 71.14 128.11 68.25 126.03 73.03 C 125.94 72.21 125.77 70.56 125.69 69.74 Z" />
</g>
<g id="#6e6459ff">
<path fill="#6e6459" opacity="1.00" d=" M 102.73 73.13 C 101.51 71.50 109.58 68.17 109.46 73.03 C 107.23 74.06 105.15 71.35 102.73 73.13 Z" />
</g>
<g id="#756c5fff">
<path fill="#756c5f" opacity="1.00" d=" M 148.85 69.94 C 155.04 70.53 160.28 75.48 164.13 80.04 C 158.51 77.91 154.10 72.95 148.85 69.94 Z" />
</g>
<g id="#18160cff">
<path fill="#18160c" opacity="1.00" d=" M 73.87 76.09 C 75.64 74.05 77.47 71.97 80.05 70.96 C 78.34 73.01 76.76 75.72 73.87 76.09 Z" />
</g>
<g id="#796e62ff">
<path fill="#796e62" opacity="1.00" d=" M 92.82 74.06 C 94.52 72.43 96.57 71.16 98.96 70.90 C 97.23 72.52 95.40 74.30 92.82 74.06 Z" />
</g>
<g id="#bba987ff">
<path fill="#bba987" opacity="1.00" d=" M 115.10 73.04 C 109.54 70.25 119.62 69.25 120.33 72.87 C 118.59 72.92 116.84 72.98 115.10 73.04 Z" />
</g>
<g id="#686156ff">
<path fill="#686156" opacity="1.00" d=" M 129.08 73.73 C 127.69 69.67 134.09 73.98 135.04 72.94 C 141.65 74.02 147.47 77.60 153.02 81.16 C 154.20 82.41 157.26 83.30 156.18 85.43 C 148.44 79.25 139.13 74.15 129.08 73.73 Z" />
</g>
<g id="#1c0e09ff">
<path fill="#1c0e09" opacity="1.00" d=" M 161.06 71.91 C 163.23 72.64 165.03 74.13 166.12 76.16 C 163.67 75.92 162.35 73.70 161.06 71.91 Z" />
</g>
<g id="#e6ca67ff">
<path fill="#e6ca67" opacity="1.00" d=" M 219.15 71.92 C 222.28 76.78 226.90 79.52 231.98 82.23 C 232.87 83.61 234.29 86.62 234.00 83.07 C 242.48 101.28 243.48 124.31 240.54 144.42 C 238.82 146.43 240.53 152.96 238.02 153.85 C 237.57 149.20 235.98 156.43 235.59 157.96 C 232.62 157.26 229.88 155.50 226.72 156.70 C 227.20 155.16 227.69 153.63 228.19 152.11 C 229.49 151.04 229.38 149.26 228.74 147.87 C 229.02 146.49 229.32 145.11 229.65 143.74 C 228.47 149.34 234.46 147.03 237.76 149.03 C 239.62 137.63 241.55 125.69 238.64 114.33 C 237.99 111.24 234.22 111.56 232.26 109.71 C 231.63 105.71 230.19 94.91 229.73 104.25 C 229.49 103.71 229.01 102.64 228.77 102.10 C 229.39 100.70 229.49 98.95 228.21 97.89 C 225.58 89.76 222.69 81.70 218.70 74.12 C 218.82 73.57 219.04 72.47 219.15 71.92 Z" />
</g>
<g id="#cbbe7eff">
<path fill="#cbbe7e" opacity="1.00" d=" M 62.21 74.16 C 69.22 73.34 61.36 85.24 57.22 84.87 C 53.37 81.20 60.30 77.12 62.21 74.16 Z" />
</g>
<g id="#756c62ff">
<path fill="#756c62" opacity="1.00" d=" M 98.07 74.24 C 101.10 74.31 93.48 78.04 91.93 78.06 C 93.35 76.07 95.39 74.80 98.07 74.24 Z" />
</g>
<g id="#4a4134ff">
<path fill="#4a4134" opacity="1.00" d=" M 70.96 92.96 C 76.17 87.77 80.19 81.12 86.98 77.80 C 85.38 79.93 83.67 81.97 82.01 84.04 C 84.33 82.76 86.53 81.19 89.09 80.40 C 85.85 83.57 82.28 86.39 79.42 89.94 C 76.17 87.50 76.01 95.04 74.09 96.24 L 73.26 95.85 C 72.97 95.61 72.41 95.11 72.12 94.86 C 71.84 94.59 71.28 94.04 70.99 93.77 L 70.96 92.96 Z" />
</g>
<g id="#bca063ff">
<path fill="#bca063" opacity="1.00" d=" M 185.13 80.03 C 189.16 81.70 191.55 86.72 191.91 90.78 C 187.32 94.05 181.84 83.61 185.13 80.03 Z" />
</g>
<g id="#837b6eff">
<path fill="#837b6e" opacity="1.00" d=" M 71.80 88.90 C 72.69 86.80 74.13 84.97 76.15 83.88 C 75.92 86.35 73.69 87.70 71.80 88.90 Z" />
</g>
<g id="#6f6356ff">
<path fill="#6f6356" opacity="1.00" d=" M 167.81 84.04 C 171.64 86.52 175.03 90.58 176.07 95.13 C 172.54 92.24 169.82 88.12 167.81 84.04 Z" />
</g>
<g id="#1d120aff">
<path fill="#1d120a" opacity="1.00" d=" M 177.09 83.95 C 182.23 88.60 185.58 95.47 187.05 102.19 C 183.04 96.52 180.66 89.88 177.09 83.95 Z" />
</g>
<g id="#726658ff">
<path fill="#726658" opacity="1.00" d=" M 166.87 86.87 C 173.68 92.46 176.68 101.31 179.68 109.33 C 180.23 111.02 180.99 112.64 181.79 114.22 C 176.21 106.46 172.71 95.38 166.87 86.87 Z" />
</g>
<g id="#cbb26dff">
<path fill="#cbb26d" opacity="1.00" d=" M 52.31 88.20 C 59.83 86.45 52.89 95.47 51.84 98.92 C 45.52 100.12 50.89 91.11 52.31 88.20 Z" />
</g>
<g id="#685b4eff">
<path fill="#685b4e" opacity="1.00" d=" M 68.84 158.12 C 54.56 138.04 56.43 107.90 71.80 88.90 C 71.53 90.25 71.26 91.61 70.96 92.96 C 58.99 108.69 57.99 131.10 65.30 149.06 C 66.46 152.09 67.73 155.07 68.84 158.12 Z" />
</g>
<g id="#7b766aff">
<path fill="#7b766a" opacity="1.00" d=" M 74.09 96.24 C 76.01 95.04 76.17 87.50 79.42 89.94 C 77.71 92.09 76.01 94.27 74.09 96.24 Z" />
</g>
<g id="#4f473dff">
<path fill="#4f473d" opacity="1.00" d=" M 160.55 89.82 C 166.33 90.49 169.36 98.83 171.12 104.00 C 166.82 99.90 165.04 93.81 160.55 89.82 Z" />
</g>
<g id="#b6af7fff">
<path fill="#b6af7f" opacity="1.00" d=" M 83.02 94.01 C 92.78 92.67 110.14 91.81 120.04 93.97 C 107.70 94.02 95.36 93.99 83.02 94.01 Z" />
</g>
<g id="#948d62ff">
<path fill="#948d62" opacity="1.00" d=" M 132.00 94.02 C 134.05 92.61 143.55 91.69 146.04 93.98 C 141.35 93.99 136.68 93.96 132.00 94.02 Z" />
</g>
<g id="#716658ff">
<path fill="#716658" opacity="1.00" d=" M 70.99 93.77 C 71.28 94.04 71.84 94.59 72.12 94.86 C 67.70 103.91 60.25 115.63 67.16 125.05 C 64.35 125.20 63.19 122.02 62.17 119.92 C 62.86 110.60 67.01 102.07 70.99 93.77 Z" />
</g>
<g id="#aea26aff">
<path fill="#aea26a" opacity="1.00" d=" M 82.05 123.99 C 83.19 114.85 79.78 101.38 83.02 94.01 C 82.98 104.01 83.00 114.01 83.00 124.02 L 82.05 123.99 Z" />
</g>
<g id="#d8cc85ff">
<path fill="#d8cc85" opacity="1.00" d=" M 83.02 94.01 C 95.36 93.99 107.70 94.02 120.04 93.97 C 124.11 95.76 127.70 96.02 132.00 94.02 C 136.68 93.96 141.35 93.99 146.04 93.98 C 152.39 94.58 157.95 98.41 162.84 102.29 C 163.30 107.00 157.29 109.27 154.76 112.79 C 149.29 108.92 143.17 105.59 136.01 107.04 C 137.16 114.11 138.19 122.27 133.06 128.04 C 130.90 129.92 128.79 131.86 126.66 133.79 C 125.13 134.63 123.58 135.44 122.00 136.19 C 121.19 132.98 124.83 132.19 126.67 130.59 C 132.99 126.31 134.58 118.05 133.96 110.91 C 127.71 110.37 126.69 116.87 125.28 121.35 C 124.47 121.41 123.66 121.44 122.85 121.47 C 123.47 119.28 123.99 117.06 124.03 114.78 C 122.19 116.00 121.45 118.10 120.66 120.05 C 118.63 121.87 118.80 119.57 118.78 117.83 C 120.74 110.28 127.77 105.97 134.73 103.71 C 137.88 103.72 141.05 103.79 144.21 103.84 C 149.40 105.18 155.86 111.54 159.26 103.97 C 155.61 100.11 150.34 97.98 145.25 96.74 C 141.46 95.90 137.47 95.68 133.70 96.69 C 122.80 98.98 114.26 107.41 110.68 117.81 C 110.44 118.38 109.96 119.53 109.72 120.10 C 108.30 121.01 107.50 120.63 107.56 118.82 C 107.99 114.75 110.07 111.20 112.30 107.87 C 112.54 107.43 113.02 106.55 113.26 106.11 C 107.47 106.47 101.27 104.79 95.64 106.63 C 94.53 112.76 94.97 119.04 95.22 125.23 C 94.44 125.25 93.67 125.25 92.90 125.24 C 92.94 118.06 93.30 110.86 92.71 103.69 C 99.02 103.08 106.19 105.76 112.17 103.18 C 114.10 101.64 115.69 99.75 117.50 98.08 C 120.39 97.71 119.60 90.98 114.04 95.99 C 104.39 96.13 94.71 95.64 85.07 96.12 C 84.83 105.75 85.07 115.37 84.99 125.00 C 84.50 125.00 83.52 125.00 83.03 125.00 L 83.00 124.02 C 83.00 114.01 82.98 104.01 83.02 94.01 Z" />
</g>
<g id="#c3aa77ff">
<path fill="#c3aa77" opacity="1.00" d=" M 191.06 96.17 C 196.97 91.51 198.09 103.95 197.19 107.34 C 196.21 106.96 195.24 106.57 194.28 106.19 C 193.16 102.87 191.75 99.61 191.06 96.17 Z" />
</g>
<g id="#746d61ff">
<path fill="#746d61" opacity="1.00" d=" M 73.26 95.85 L 74.09 96.24 C 71.33 103.59 66.26 111.02 67.58 119.22 C 63.83 119.47 67.98 113.45 66.50 112.45 C 67.86 106.61 70.31 101.06 73.26 95.85 Z" />
</g>
<g id="#54451dff">
<path fill="#54451d" opacity="1.00" d=" M 85.07 96.12 C 94.71 95.64 104.39 96.13 114.04 95.99 C 119.60 90.98 120.39 97.71 117.50 98.08 C 107.14 96.15 96.53 97.09 86.06 97.08 C 85.99 116.38 85.84 135.69 86.10 154.98 C 98.29 158.27 88.74 140.59 92.68 134.68 C 93.00 141.77 93.16 148.87 92.94 155.97 C 83.06 159.58 84.79 150.84 84.91 144.28 C 84.99 137.85 85.05 131.43 84.99 125.00 C 85.07 115.37 84.83 105.75 85.07 96.12 Z" />
</g>
<g id="#646138ff">
<path fill="#646138" opacity="1.00" d=" M 133.70 96.69 C 137.47 95.68 141.46 95.90 145.25 96.74 C 141.39 96.86 137.54 97.01 133.70 96.69 Z" />
</g>
<g id="#756958ff">
<path fill="#756958" opacity="1.00" d=" M 169.93 95.83 C 177.95 101.05 173.46 120.55 186.81 116.97 C 190.99 115.82 204.92 118.28 195.25 118.75 C 192.06 118.28 188.62 117.26 185.62 118.92 C 182.69 118.42 178.94 118.74 177.31 115.69 C 175.64 108.77 172.36 102.46 169.93 95.83 Z" />
</g>
<g id="#0b0704ff">
<path fill="#0b0704" opacity="1.00" d=" M 86.06 97.08 C 96.53 97.09 107.14 96.15 117.50 98.08 C 115.69 99.75 114.10 101.64 112.17 103.18 C 105.78 103.76 98.89 101.56 92.71 103.69 C 92.06 111.30 90.67 119.73 92.69 127.25 C 100.66 128.26 109.26 128.92 117.30 127.37 C 120.69 126.70 123.95 124.65 125.28 121.35 C 126.69 116.87 127.71 110.37 133.96 110.91 C 134.58 118.05 132.99 126.31 126.67 130.59 C 124.83 132.19 121.19 132.98 122.00 136.19 C 125.18 142.30 128.58 148.30 132.31 154.10 C 129.55 154.48 126.82 154.87 124.05 155.10 C 120.17 148.51 117.09 141.46 112.94 135.02 C 107.01 132.97 99.14 133.85 92.68 134.68 C 88.74 140.59 98.29 158.27 86.10 154.98 C 85.84 135.69 85.99 116.38 86.06 97.08 Z" />
</g>
<g id="#110d07ff">
<path fill="#110d07" opacity="1.00" d=" M 110.68 117.81 C 114.26 107.41 122.80 98.98 133.70 96.69 C 137.54 97.01 141.39 96.86 145.25 96.74 C 150.34 97.98 155.61 100.11 159.26 103.97 C 155.86 111.54 149.40 105.18 144.21 103.84 C 141.10 103.10 137.77 102.42 134.73 103.71 C 127.77 105.97 120.74 110.28 118.78 117.83 C 118.26 119.01 117.79 120.22 117.19 121.36 C 113.83 121.50 110.18 121.88 110.68 117.81 Z" />
</g>
<g id="#7b6d34ff">
<path fill="#7b6d34" opacity="1.00" d=" M 228.21 97.89 C 229.49 98.95 229.39 100.70 228.77 102.10 C 227.53 101.02 227.59 99.29 228.21 97.89 Z" />
</g>
<g id="#f7e675ff">
<path fill="#f7e675" opacity="1.00" d=" M 229.73 104.25 C 230.19 94.91 231.63 105.71 232.26 109.71 C 234.22 111.56 237.99 111.24 238.64 114.33 C 241.55 125.69 239.62 137.63 237.76 149.03 C 234.46 147.03 228.47 149.34 229.65 143.74 C 229.80 143.08 230.09 141.75 230.23 141.08 C 231.53 139.65 231.37 137.64 230.82 135.92 C 230.91 135.25 231.09 133.91 231.18 133.24 C 231.96 127.14 232.87 120.74 231.34 114.69 C 231.19 114.04 230.90 112.74 230.76 112.09 C 231.37 110.38 231.55 108.36 230.25 106.91 C 230.12 106.24 229.86 104.91 229.73 104.25 Z" />
</g>
<g id="#695e52ff">
<path fill="#695e52" opacity="1.00" d=" M 179.03 100.77 C 181.30 104.00 181.76 108.46 185.27 110.77 C 189.40 111.43 193.63 110.84 197.79 111.10 C 194.74 112.84 182.89 114.40 180.56 108.02 C 179.95 105.63 179.27 103.24 179.03 100.77 Z" />
</g>
<g id="#635747ff">
<path fill="#635747" opacity="1.00" d=" M 181.95 101.01 C 184.32 105.82 188.39 109.43 194.28 106.19 C 195.24 106.57 196.21 106.96 197.19 107.34 C 197.18 107.75 197.15 108.57 197.13 108.98 C 190.61 110.60 182.00 109.03 181.95 101.01 Z" />
</g>
<g id="#dba83fff">
<path fill="#dba83f" opacity="1.00" d=" M 8.57 107.52 C 9.45 105.46 9.83 102.20 12.84 102.99 C 14.96 106.42 14.16 111.03 16.75 114.22 C 16.75 114.62 16.75 115.42 16.75 115.83 C 16.31 121.90 14.92 128.31 16.71 134.29 C 16.82 134.70 17.04 135.52 17.14 135.92 C 17.31 137.47 17.64 140.57 17.80 142.12 C 18.24 144.66 18.74 147.20 18.83 149.79 C 18.52 152.48 18.24 155.20 17.87 157.90 C 15.19 156.36 12.21 154.88 10.92 151.88 C 9.55 146.74 8.34 141.53 7.76 136.24 C 8.33 126.67 7.40 117.04 8.57 107.52 Z" />
</g>
<g id="#b6965cff">
<path fill="#b6965c" opacity="1.00" d=" M 47.18 103.06 C 52.82 103.64 48.11 111.19 47.77 114.88 C 40.88 116.91 45.02 106.27 47.18 103.06 Z" />
</g>
<g id="#756743ff">
<path fill="#756743" opacity="1.00" d=" M 92.71 103.69 C 98.89 101.56 105.78 103.76 112.17 103.18 C 106.19 105.76 99.02 103.08 92.71 103.69 Z" />
</g>
<g id="#5a5628ff">
<path fill="#5a5628" opacity="1.00" d=" M 134.73 103.71 C 137.77 102.42 141.10 103.10 144.21 103.84 C 141.05 103.79 137.88 103.72 134.73 103.71 Z" />
</g>
<g id="#706250ff">
<path fill="#706250" opacity="1.00" d=" M 58.95 109.78 C 58.99 108.05 58.61 104.63 60.83 104.35 C 61.91 106.33 60.02 108.25 58.95 109.78 Z" />
</g>
<g id="#6c5e33ff">
<path fill="#6c5e33" opacity="1.00" d=" M 92.69 127.25 C 90.67 119.73 92.06 111.30 92.71 103.69 C 93.30 110.86 92.94 118.06 92.90 125.24 C 92.84 125.74 92.74 126.75 92.69 127.25 Z" />
</g>
<g id="#605643ff">
<path fill="#605643" opacity="1.00" d=" M 171.12 104.00 C 175.73 110.29 173.57 123.91 185.67 120.11 C 188.82 120.52 192.52 122.08 195.37 119.86 C 196.95 120.12 199.79 119.36 199.00 121.96 C 192.12 122.14 185.23 122.23 178.37 121.70 C 171.48 119.09 172.98 109.95 171.12 104.00 Z" />
</g>
<g id="#938954ff">
<path fill="#938954" opacity="1.00" d=" M 95.64 106.63 C 101.27 104.79 107.47 106.47 113.26 106.11 C 113.02 106.55 112.54 107.43 112.30 107.87 C 106.78 107.04 101.20 106.90 95.64 106.63 Z" />
</g>
<g id="#866e3aff">
<path fill="#866e3a" opacity="1.00" d=" M 17.17 112.15 C 16.63 110.40 16.51 108.42 17.70 106.90 C 18.37 108.62 18.59 110.73 17.17 112.15 Z" />
</g>
<g id="#97894dff">
<path fill="#97894d" opacity="1.00" d=" M 95.22 125.23 C 94.97 119.04 94.53 112.76 95.64 106.63 C 95.89 112.40 95.88 118.17 96.11 123.94 C 98.79 123.95 104.16 123.96 106.85 123.97 C 104.84 126.54 98.71 124.44 95.22 125.23 Z" />
</g>
<g id="#0b0705ff">
<path fill="#0b0705" opacity="1.00" d=" M 95.64 106.63 C 101.20 106.90 106.78 107.04 112.30 107.87 C 110.07 111.20 107.99 114.75 107.56 118.82 C 107.25 120.52 107.09 122.25 106.85 123.97 C 104.16 123.96 98.79 123.95 96.11 123.94 C 95.88 118.17 95.89 112.40 95.64 106.63 Z" />
</g>
<g id="#a1935cff">
<path fill="#a1935c" opacity="1.00" d=" M 230.25 106.91 C 231.55 108.36 231.37 110.38 230.76 112.09 C 229.43 110.65 229.62 108.61 230.25 106.91 Z" />
</g>
<g id="#f5e39eff">
<path fill="#f5e39e" opacity="1.00" d=" M 6.05 136.00 C 7.15 127.47 3.83 114.84 6.99 107.98 C 7.09 117.40 6.49 126.87 7.76 136.24 C 8.34 141.53 9.55 146.74 10.92 151.88 C 11.58 158.86 15.18 165.15 16.08 172.09 C 9.17 161.63 8.42 148.09 6.05 136.00 Z" />
</g>
<g id="#6b5a4cff">
<path fill="#6b5a4c" opacity="1.00" d=" M 64.00 154.99 C 55.79 141.76 54.32 124.50 58.95 109.78 C 56.29 125.11 58.63 140.57 64.00 154.99 Z" />
</g>
<g id="#7e6f63ff">
<path fill="#7e6f63" opacity="1.00" d=" M 181.79 114.22 C 187.65 114.08 193.50 113.85 199.37 114.10 C 198.23 115.16 196.54 115.02 195.13 115.41 C 193.22 114.24 190.90 114.48 188.96 115.42 L 188.21 115.32 C 186.61 115.05 183.40 114.50 181.79 114.22 Z" />
</g>
<g id="#765e1aff">
<path fill="#765e1a" opacity="1.00" d=" M 120.66 120.05 C 121.45 118.10 122.19 116.00 124.03 114.78 C 123.99 117.06 123.47 119.28 122.85 121.47 C 121.64 121.74 120.71 121.47 120.66 120.05 Z" />
</g>
<g id="#201003ff">
<path fill="#201003" opacity="1.00" d=" M 188.96 115.42 C 190.90 114.48 193.22 114.24 195.13 115.41 C 193.43 116.95 191.38 116.95 188.96 115.42 Z" />
</g>
<g id="#aaa167ff">
<path fill="#aaa167" opacity="1.00" d=" M 231.34 114.69 C 232.87 120.74 231.96 127.14 231.18 133.24 C 231.07 127.05 231.06 120.87 231.34 114.69 Z" />
</g>
<g id="#755a2cff">
<path fill="#755a2c" opacity="1.00" d=" M 16.71 134.29 C 14.92 128.31 16.31 121.90 16.75 115.83 C 16.96 121.98 16.93 128.14 16.71 134.29 Z" />
</g>
<g id="#6f5d29ff">
<path fill="#6f5d29" opacity="1.00" d=" M 109.72 120.10 C 109.96 119.53 110.44 118.38 110.68 117.81 C 110.18 121.88 113.83 121.50 117.19 121.36 C 115.10 122.06 110.06 123.40 109.72 120.10 Z" />
</g>
<g id="#c2ae63ff">
<path fill="#c2ae63" opacity="1.00" d=" M 117.19 121.36 C 117.79 120.22 118.26 119.01 118.78 117.83 C 118.80 119.57 118.63 121.87 120.66 120.05 C 120.71 121.47 121.64 121.74 122.85 121.47 C 123.66 121.44 124.47 121.41 125.28 121.35 C 123.95 124.65 120.69 126.70 117.30 127.37 C 109.11 127.01 100.89 126.76 92.69 127.25 C 92.74 126.75 92.84 125.74 92.90 125.24 C 93.67 125.25 94.44 125.25 95.22 125.23 C 98.71 124.44 104.84 126.54 106.85 123.97 C 107.09 122.25 107.25 120.52 107.56 118.82 C 107.50 120.63 108.30 121.01 109.72 120.10 C 110.06 123.40 115.10 122.06 117.19 121.36 Z" />
</g>
<g id="#d4c281ff">
<path fill="#d4c281" opacity="1.00" d=" M 185.62 118.92 C 188.62 117.26 192.06 118.28 195.25 118.75 L 195.37 119.86 C 192.52 122.08 188.82 120.52 185.67 120.11 L 185.62 118.92 Z" />
</g>
<g id="#b9a66dff">
<path fill="#b9a66d" opacity="1.00" d=" M 139.00 131.99 C 137.53 129.69 134.94 115.48 143.99 119.00 C 151.30 120.29 160.44 116.55 166.99 120.22 C 166.97 125.40 167.11 130.60 166.86 135.78 C 165.23 142.95 164.86 137.58 164.38 132.72 C 164.19 129.48 164.16 126.26 163.92 123.03 C 158.01 120.75 148.42 122.22 141.03 122.11 C 136.89 133.58 149.20 129.23 155.84 130.12 C 155.97 133.43 156.08 136.77 156.14 140.08 C 154.45 141.07 149.75 145.30 151.86 140.93 C 152.15 140.68 152.73 140.18 153.02 139.93 C 159.05 128.86 145.82 132.35 139.00 131.99 Z" />
</g>
<g id="#b59358ff">
<path fill="#b59358" opacity="1.00" d=" M 43.02 120.03 C 50.21 117.98 46.19 127.83 46.94 132.03 C 40.21 133.21 43.83 123.61 43.02 120.03 Z" />
</g>
<g id="#352502ff">
<path fill="#352502" opacity="1.00" d=" M 166.99 120.22 C 167.90 124.46 169.86 139.75 166.89 143.74 C 166.87 141.08 166.86 138.43 166.86 135.78 C 167.11 130.60 166.97 125.40 166.99 120.22 Z" />
</g>
<g id="#5c4d2aff">
<path fill="#5c4d2a" opacity="1.00" d=" M 141.03 122.11 C 148.42 122.22 158.01 120.75 163.92 123.03 C 157.55 125.73 138.94 116.59 142.02 128.92 C 145.76 128.97 153.24 129.07 156.98 129.12 C 156.27 132.92 158.55 137.67 156.18 141.11 L 156.14 140.08 C 156.08 136.77 155.97 133.43 155.84 130.12 C 149.20 129.23 136.89 133.58 141.03 122.11 Z" />
</g>
<g id="#615343ff">
<path fill="#615343" opacity="1.00" d=" M 173.68 122.41 C 182.06 123.67 190.58 122.67 199.02 123.05 C 199.81 125.71 196.91 124.84 195.29 125.05 C 192.13 124.29 188.68 123.20 185.65 124.92 C 181.93 123.82 175.17 127.59 173.68 122.41 Z" />
</g>
<g id="#0f0703ff">
<path fill="#0f0703" opacity="1.00" d=" M 142.02 128.92 C 138.94 116.59 157.55 125.73 163.92 123.03 C 164.16 126.26 164.19 129.48 164.38 132.72 C 167.68 146.05 153.40 154.45 141.95 155.02 C 137.78 156.27 137.40 150.82 135.83 148.23 C 142.96 148.50 151.47 146.94 156.18 141.11 C 158.55 137.67 156.27 132.92 156.98 129.12 C 153.24 129.07 145.76 128.97 142.02 128.92 Z" />
</g>
<g id="#977947ff">
<path fill="#977947" opacity="1.00" d=" M 82.05 123.99 L 83.00 124.02 L 83.03 125.00 C 84.81 130.55 79.54 140.79 84.91 144.28 C 84.79 150.84 83.06 159.58 92.94 155.97 C 93.16 148.87 93.00 141.77 92.68 134.68 C 99.43 135.00 106.19 134.95 112.94 135.02 C 117.09 141.46 120.17 148.51 124.05 155.10 C 124.41 155.61 135.26 157.82 132.31 154.10 C 128.58 148.30 125.18 142.30 122.00 136.19 C 123.58 135.44 125.13 134.63 126.66 133.79 C 125.05 147.30 143.63 147.35 151.86 140.93 C 149.75 145.30 154.45 141.07 156.14 140.08 L 156.18 141.11 C 151.47 146.94 142.96 148.50 135.83 148.23 C 137.40 150.82 137.78 156.27 141.95 155.02 C 153.40 154.45 167.68 146.05 164.38 132.72 C 164.86 137.58 165.23 142.95 166.86 135.78 C 166.86 138.43 166.87 141.08 166.89 143.74 C 162.09 150.70 154.46 156.48 146.00 157.96 C 142.99 157.98 140.00 157.97 136.99 158.01 L 136.00 158.01 C 131.66 157.97 127.33 158.01 123.00 157.99 C 118.23 152.61 115.30 144.36 110.82 138.09 C 107.13 138.08 99.74 138.05 96.05 138.04 C 95.11 144.22 97.56 153.42 94.98 158.00 C 90.99 158.00 87.00 158.00 83.01 158.00 C 80.79 148.49 82.39 135.10 82.05 123.99 Z" />
</g>
<g id="#dbc47bff">
<path fill="#dbc47b" opacity="1.00" d=" M 185.65 124.92 C 188.68 123.20 192.13 124.29 195.29 125.05 L 195.25 126.09 C 192.11 126.58 188.60 127.93 185.69 126.02 L 185.65 124.92 Z" />
</g>
<g id="#baa16cff">
<path fill="#baa16c" opacity="1.00" d=" M 83.03 125.00 C 83.52 125.00 84.50 125.00 84.99 125.00 C 85.05 131.43 84.99 137.85 84.91 144.28 C 79.54 140.79 84.81 130.55 83.03 125.00 Z" />
</g>
<g id="#655947ff">
<path fill="#655947" opacity="1.00" d=" M 184.79 126.90 C 185.02 126.68 185.47 126.24 185.69 126.02 C 188.60 127.93 192.11 126.58 195.25 126.09 C 196.93 126.61 198.63 127.11 200.27 127.79 C 197.38 128.05 194.49 128.24 191.59 128.36 C 194.00 129.06 196.45 129.60 198.90 130.16 C 196.73 131.81 194.78 133.45 198.97 133.13 C 196.72 134.78 194.75 136.44 199.03 136.20 C 195.98 138.62 196.31 141.66 198.07 145.07 C 197.32 144.91 195.83 144.60 195.09 144.44 C 187.49 141.19 182.08 147.12 181.92 154.15 C 183.75 151.53 185.12 147.74 189.10 149.00 C 180.78 177.48 151.38 197.24 122.09 197.09 C 119.95 197.02 117.82 196.88 115.69 196.74 C 145.73 196.80 178.27 180.13 187.03 149.77 C 182.31 155.87 180.52 164.14 174.06 169.08 C 175.96 164.45 179.97 160.84 181.04 155.84 C 173.45 167.08 164.75 178.34 152.02 184.03 C 131.82 194.63 106.13 193.27 86.82 181.26 C 87.14 181.00 87.76 180.46 88.07 180.19 C 107.82 193.02 135.58 193.74 155.13 180.23 C 161.72 177.36 167.49 172.25 171.28 166.15 C 179.44 159.96 179.32 148.17 187.11 142.03 C 186.87 141.44 186.40 140.24 186.16 139.65 C 189.16 136.44 192.28 133.32 194.92 129.79 C 191.08 132.02 188.18 135.44 184.90 138.35 C 178.17 135.48 192.24 126.95 182.94 129.07 L 183.35 128.31 C 183.71 127.96 184.43 127.25 184.79 126.90 Z" />
</g>
<g id="#716759ff">
<path fill="#716759" opacity="1.00" d=" M 66.18 147.75 C 64.62 141.15 57.56 129.94 66.95 126.73 C 60.79 133.78 66.27 143.55 69.34 151.02 C 70.54 153.72 71.79 156.40 72.90 159.15 C 69.75 155.96 68.00 151.77 66.18 147.75 Z" />
</g>
<g id="#5e4b1eff">
<path fill="#5e4b1e" opacity="1.00" d=" M 92.69 127.25 C 100.89 126.76 109.11 127.01 117.30 127.37 C 109.26 128.92 100.66 128.26 92.69 127.25 Z" />
</g>
<g id="#998c6dff">
<path fill="#998c6d" opacity="1.00" d=" M 174.73 127.86 C 177.19 125.68 181.84 127.89 184.79 126.90 C 184.43 127.25 183.71 127.96 183.35 128.31 C 180.47 128.15 177.60 128.00 174.73 127.86 Z" />
</g>
<g id="#7a6b42ff">
<path fill="#7a6b42" opacity="1.00" d=" M 126.66 133.79 C 128.79 131.86 130.90 129.92 133.06 128.04 C 132.01 130.59 129.98 134.51 126.66 133.79 Z" />
</g>
<g id="#9e977aff">
<path fill="#9e977a" opacity="1.00" d=" M 178.33 130.23 C 179.86 129.80 181.41 129.48 182.94 129.07 C 192.24 126.95 178.17 135.48 184.90 138.35 C 183.69 140.59 183.81 141.51 186.16 139.65 C 186.40 140.24 186.87 141.44 187.11 142.03 C 185.71 141.98 184.32 141.92 182.92 141.86 L 181.89 141.77 C 181.86 140.98 181.80 139.42 181.77 138.64 C 181.79 138.16 181.83 137.20 181.85 136.72 C 181.87 135.97 181.91 134.47 181.93 133.72 L 181.94 132.75 C 182.72 130.09 179.44 131.26 177.92 130.90 L 178.33 130.23 Z" />
</g>
<g id="#665d51ff">
<path fill="#665d51" opacity="1.00" d=" M 173.40 137.69 C 173.61 134.73 174.97 130.83 178.33 130.23 L 177.92 130.90 C 173.59 138.71 172.32 148.08 168.06 156.14 C 166.18 156.44 164.78 158.00 165.04 159.96 C 161.48 162.21 159.23 167.17 154.76 167.41 C 163.75 159.71 170.81 149.35 173.40 137.69 Z" />
</g>
<g id="#231503ff">
<path fill="#231503" opacity="1.00" d=" M 184.90 138.35 C 188.18 135.44 191.08 132.02 194.92 129.79 C 192.28 133.32 189.16 136.44 186.16 139.65 C 183.81 141.51 183.69 140.59 184.90 138.35 Z" />
</g>
<g id="#21140aff">
<path fill="#21140a" opacity="1.00" d=" M 177.92 130.90 C 179.44 131.26 182.72 130.09 181.94 132.75 C 175.60 132.92 176.22 140.57 175.07 144.98 C 172.65 148.64 171.11 152.91 168.06 156.14 C 172.32 148.08 173.59 138.71 177.92 130.90 Z" />
</g>
<g id="#6a6458ff">
<path fill="#6a6458" opacity="1.00" d=" M 70.26 149.74 C 67.96 144.53 63.05 134.74 67.83 131.95 C 66.25 146.13 76.88 159.18 86.17 168.95 C 78.21 165.67 73.94 157.07 70.26 149.74 Z" />
</g>
<g id="#6d5831ff">
<path fill="#6d5831" opacity="1.00" d=" M 139.00 131.99 C 145.82 132.35 159.05 128.86 153.02 139.93 C 157.83 127.65 142.51 135.98 139.00 131.99 Z" />
</g>
<g id="#6a5d4dff">
<path fill="#6a5d4d" opacity="1.00" d=" M 175.07 144.98 C 176.22 140.57 175.60 132.92 181.94 132.75 L 181.93 133.72 C 177.29 135.61 176.70 140.79 175.07 144.98 Z" />
</g>
<g id="#432f0cff">
<path fill="#432f0c" opacity="1.00" d=" M 92.68 134.68 C 99.14 133.85 107.01 132.97 112.94 135.02 C 106.19 134.95 99.43 135.00 92.68 134.68 Z" />
</g>
<g id="#654c18ff">
<path fill="#654c18" opacity="1.00" d=" M 17.14 135.92 C 17.31 137.47 17.64 140.57 17.80 142.12 C 17.64 140.57 17.31 137.47 17.14 135.92 Z" />
</g>
<g id="#b6965bff">
<path fill="#b6965b" opacity="1.00" d=" M 45.23 136.12 C 49.76 136.70 49.02 144.15 50.04 147.97 C 44.03 150.08 42.33 139.55 45.23 136.12 Z" />
</g>
<g id="#787438ff">
<path fill="#787438" opacity="1.00" d=" M 230.23 141.08 C 229.62 139.38 229.42 137.31 230.82 135.92 C 231.37 137.64 231.53 139.65 230.23 141.08 Z" />
</g>
<g id="#6d6151ff">
<path fill="#6d6151" opacity="1.00" d=" M 175.05 152.23 C 176.52 146.82 177.51 140.61 181.85 136.72 C 181.83 137.20 181.79 138.16 181.77 138.64 C 178.53 142.63 178.72 148.57 175.05 152.23 Z" />
</g>
<g id="#67594bff">
<path fill="#67594b" opacity="1.00" d=" M 174.30 157.06 C 178.02 152.66 179.30 146.83 181.89 141.77 L 182.92 141.86 C 179.97 149.66 177.53 158.57 170.89 164.06 C 171.98 161.70 173.16 159.40 174.30 157.06 Z" />
</g>
<g id="#1c0f06ff">
<path fill="#1c0f06" opacity="1.00" d=" M 182.92 141.86 C 184.32 141.92 185.71 141.98 187.11 142.03 C 179.32 148.17 179.44 159.96 171.28 166.15 C 171.18 165.62 170.99 164.58 170.89 164.06 C 177.53 158.57 179.97 149.66 182.92 141.86 Z" />
</g>
<g id="#6e6255ff">
<path fill="#6e6255" opacity="1.00" d=" M 168.06 156.14 C 171.11 152.91 172.65 148.64 175.07 144.98 C 172.45 154.47 166.46 164.20 157.94 169.18 C 160.19 166.02 163.14 163.38 165.04 159.96 C 166.77 159.43 168.12 158.03 168.06 156.14 Z" />
</g>
<g id="#c8b47bff">
<path fill="#c8b47b" opacity="1.00" d=" M 191.23 154.93 C 192.16 151.32 193.47 147.80 195.09 144.44 C 195.83 144.60 197.32 144.91 198.07 145.07 C 198.09 148.76 196.40 158.82 191.23 154.93 Z" />
</g>
<g id="#80773dff">
<path fill="#80773d" opacity="1.00" d=" M 228.19 152.11 C 227.60 150.69 227.54 148.98 228.74 147.87 C 229.38 149.26 229.49 151.04 228.19 152.11 Z" />
</g>
<g id="#e6bf63ff">
<path fill="#e6bf63" opacity="1.00" d=" M 17.87 157.90 C 18.24 155.20 18.52 152.48 18.83 149.79 C 28.86 187.60 58.89 219.50 97.14 229.28 C 94.66 230.10 88.56 228.44 90.15 232.78 C 93.10 235.40 97.20 236.26 100.20 238.89 C 98.44 238.90 96.68 238.95 94.92 238.97 C 89.93 237.83 84.17 237.35 80.00 234.04 C 62.52 223.67 43.97 213.10 32.04 195.99 C 30.95 194.95 27.95 189.94 28.06 193.61 C 23.26 188.41 19.01 179.30 16.08 172.09 C 15.18 165.15 11.58 158.86 10.92 151.88 C 12.21 154.88 15.19 156.36 17.87 157.90 Z" />
</g>
<g id="#c6b06fff">
<path fill="#c6b06f" opacity="1.00" d=" M 50.16 152.13 C 52.85 153.82 58.79 161.78 54.00 164.01 C 50.50 162.07 47.46 155.59 50.16 152.13 Z" />
</g>
<g id="#dab553ff">
<path fill="#dab553" opacity="1.00" d=" M 235.59 157.96 C 235.98 156.43 237.57 149.20 238.02 153.85 C 237.94 159.17 235.34 164.33 233.23 169.03 C 232.98 162.83 227.47 162.52 223.56 165.21 C 224.65 162.39 225.66 159.53 226.72 156.70 C 229.88 155.50 232.62 157.26 235.59 157.96 Z" />
</g>
<g id="#583d16ff">
<path fill="#583d16" opacity="1.00" d=" M 132.31 154.10 C 135.26 157.82 124.41 155.61 124.05 155.10 C 126.82 154.87 129.55 154.48 132.31 154.10 Z" />
</g>
<g id="#706558ff">
<path fill="#706558" opacity="1.00" d=" M 158.95 172.14 C 164.19 166.28 169.54 160.51 173.78 153.85 C 173.91 154.66 174.17 156.26 174.30 157.06 C 168.60 161.47 165.89 169.33 158.95 172.14 Z" />
</g>
<g id="#7c7363ff">
<path fill="#7c7363" opacity="1.00" d=" M 64.00 154.99 C 67.45 158.41 69.77 162.76 72.04 167.01 C 67.76 164.32 65.81 159.48 64.00 154.99 Z" />
</g>
<g id="#1b1007ff">
<path fill="#1b1007" opacity="1.00" d=" M 165.04 159.96 C 164.78 158.00 166.18 156.44 168.06 156.14 C 168.12 158.03 166.77 159.43 165.04 159.96 Z" />
</g>
<g id="#797262ff">
<path fill="#797262" opacity="1.00" d=" M 68.84 158.12 C 70.41 158.10 71.42 159.58 71.01 161.06 C 69.62 160.75 68.72 159.54 68.84 158.12 Z" />
</g>
<g id="#604529ff">
<path fill="#604529" opacity="1.00" d=" M 83.01 158.00 C 87.00 158.00 90.99 158.00 94.98 158.00 C 94.04 159.32 84.13 160.58 83.01 158.00 Z" />
</g>
<g id="#604628ff">
<path fill="#604628" opacity="1.00" d=" M 123.00 157.99 C 127.33 158.01 131.66 157.97 136.00 158.01 C 134.42 159.36 124.84 160.46 123.00 157.99 Z" />
</g>
<g id="#51391bff">
<path fill="#51391b" opacity="1.00" d=" M 136.99 158.01 C 140.00 157.97 142.99 157.98 146.00 157.96 C 146.49 159.87 137.43 159.76 136.99 158.01 Z" />
</g>
<g id="#7e7667ff">
<path fill="#7e7667" opacity="1.00" d=" M 62.93 158.87 C 66.26 160.73 67.20 164.88 69.04 167.95 C 66.15 166.11 63.64 162.42 62.93 158.87 Z" />
</g>
<g id="#807866ff">
<path fill="#807866" opacity="1.00" d=" M 72.90 159.15 C 74.80 159.43 76.22 160.98 75.96 162.95 C 74.22 162.43 72.90 161.02 72.90 159.15 Z" />
<path fill="#807866" opacity="1.00" d=" M 71.01 161.06 C 72.82 161.51 74.19 163.02 73.96 164.96 C 72.21 164.43 70.80 162.99 71.01 161.06 Z" />
</g>
<g id="#bb9f66ff">
<path fill="#bb9f66" opacity="1.00" d=" M 188.36 160.24 C 196.33 158.02 189.19 172.46 184.00 171.02 C 183.24 166.80 186.88 163.84 188.36 160.24 Z" />
</g>
<g id="#63584bff">
<path fill="#63584b" opacity="1.00" d=" M 75.96 162.95 C 79.03 165.28 81.72 168.08 84.09 171.13 C 80.10 170.18 77.93 166.17 75.96 162.95 Z" />
</g>
<g id="#d09e3bff">
<path fill="#d09e3b" opacity="1.00" d=" M 223.56 165.21 C 227.47 162.52 232.98 162.83 233.23 169.03 C 231.36 174.74 228.73 180.37 224.96 185.04 C 227.58 179.93 223.21 176.52 219.58 173.97 C 220.93 171.06 222.22 168.13 223.56 165.21 Z" />
</g>
<g id="#776b5fff">
<path fill="#776b5f" opacity="1.00" d=" M 156.88 176.91 C 161.49 172.57 166.28 168.41 170.89 164.06 C 170.99 164.58 171.18 165.62 171.28 166.15 C 166.32 169.47 162.80 175.15 156.88 176.91 Z" />
</g>
<g id="#837c6cff">
<path fill="#837c6c" opacity="1.00" d=" M 73.96 164.96 C 78.43 168.89 82.99 172.76 87.07 177.11 C 81.61 174.52 76.76 170.36 73.96 164.96 Z" />
</g>
<g id="#180c06ff">
<path fill="#180c06" opacity="1.00" d=" M 156.88 176.91 C 162.80 175.15 166.32 169.47 171.28 166.15 C 167.49 172.25 161.72 177.36 155.13 180.23 C 155.70 179.12 156.29 178.01 156.88 176.91 Z" />
</g>
<g id="#cabd82ff">
<path fill="#cabd82" opacity="1.00" d=" M 57.21 167.11 C 62.06 165.78 69.76 179.20 61.98 177.07 C 59.93 174.53 54.25 170.38 57.21 167.11 Z" />
</g>
<g id="#84806fff">
<path fill="#84806f" opacity="1.00" d=" M 72.04 167.01 C 75.42 169.58 78.22 172.79 80.95 176.03 C 76.78 174.55 74.12 170.69 72.04 167.01 Z" />
</g>
<g id="#807e6dff">
<path fill="#807e6d" opacity="1.00" d=" M 69.04 167.95 C 73.08 171.38 76.98 175.06 80.31 179.20 C 75.89 176.80 70.49 172.89 69.04 167.95 Z" />
</g>
<g id="#6c5e53ff">
<path fill="#6c5e53" opacity="1.00" d=" M 164.96 178.04 C 167.52 174.61 170.76 171.79 174.06 169.08 C 172.48 173.23 168.66 175.92 164.96 178.04 Z" />
</g>
<g id="#5e584eff">
<path fill="#5e584e" opacity="1.00" d=" M 129.62 178.76 C 137.39 176.69 144.83 173.57 151.91 169.75 C 148.89 175.85 140.63 174.93 136.01 179.22 C 134.41 179.10 131.22 178.87 129.62 178.76 Z" />
</g>
<g id="#665c52ff">
<path fill="#665c52" opacity="1.00" d=" M 88.33 171.90 C 88.48 171.56 88.77 170.88 88.92 170.54 C 95.16 174.43 101.63 179.40 109.37 178.79 C 109.35 180.67 107.79 181.44 106.13 180.83 C 99.86 178.64 93.76 175.73 88.33 171.90 Z" />
</g>
<g id="#655b4cff">
<path fill="#655b4c" opacity="1.00" d=" M 136.01 179.22 C 142.75 178.77 148.11 174.35 154.13 171.88 C 147.92 179.37 136.67 180.49 127.88 182.80 C 125.94 182.39 125.82 180.62 125.93 178.95 C 128.95 181.63 132.67 180.81 136.01 179.22 Z" />
</g>
<g id="#ad9153ff">
<path fill="#ad9153" opacity="1.00" d=" M 179.31 174.25 C 187.52 173.83 178.22 182.02 174.99 184.06 C 169.56 181.46 176.87 176.61 179.31 174.25 Z" />
</g>
<g id="#ae7f2dff">
<path fill="#ae7f2d" opacity="1.00" d=" M 196.16 204.59 C 205.42 195.59 213.71 185.55 219.58 173.97 C 223.21 176.52 227.58 179.93 224.96 185.04 C 223.95 187.48 222.74 189.90 220.83 191.76 C 214.30 198.91 208.53 206.81 201.15 213.14 C 198.79 213.23 196.34 213.80 194.07 212.87 C 192.48 209.51 197.35 207.53 196.16 204.59 Z" />
</g>
<g id="#6f6358ff">
<path fill="#6f6358" opacity="1.00" d=" M 88.83 175.05 C 91.57 175.62 93.87 177.20 95.98 178.98 C 93.46 177.91 90.81 177.02 88.83 175.05 Z" />
</g>
<g id="#878471ff">
<path fill="#878471" opacity="1.00" d=" M 80.95 176.03 C 83.50 177.09 85.75 178.71 88.07 180.19 C 87.76 180.46 87.14 181.00 86.82 181.26 C 84.48 179.99 82.58 178.11 80.95 176.03 Z" />
</g>
<g id="#888372ff">
<path fill="#888372" opacity="1.00" d=" M 87.07 177.11 C 89.12 176.99 91.25 177.83 91.88 179.95 C 89.85 179.95 87.80 179.13 87.07 177.11 Z" />
</g>
<g id="#74695dff">
<path fill="#74695d" opacity="1.00" d=" M 147.84 182.05 C 150.59 179.92 153.62 178.14 156.88 176.91 C 156.29 178.01 155.70 179.12 155.13 180.23 C 152.71 180.88 150.32 181.65 147.84 182.05 Z" />
</g>
<g id="#807265ff">
<path fill="#807265" opacity="1.00" d=" M 110.05 178.78 C 112.07 177.64 112.36 179.39 110.91 184.00 C 109.25 183.91 107.59 183.74 105.99 183.30 C 109.37 183.80 110.66 182.02 110.05 178.78 Z" />
</g>
<g id="#71675cff">
<path fill="#71675c" opacity="1.00" d=" M 161.05 180.99 C 161.51 179.18 163.01 177.81 164.96 178.04 C 164.43 179.79 162.99 181.20 161.05 180.99 Z" />
</g>
<g id="#918c78ff">
<path fill="#918c78" opacity="1.00" d=" M 80.31 179.20 C 81.29 178.39 83.33 179.63 82.72 180.86 L 81.97 181.06 C 80.71 180.94 80.16 180.32 80.31 179.20 Z" />
</g>
<g id="#766b5bff">
<path fill="#766b5b" opacity="1.00" d=" M 95.98 178.98 C 99.55 179.72 103.32 180.65 105.99 183.30 C 102.41 182.51 98.85 181.33 95.98 178.98 Z" />
</g>
<g id="#85754dff">
<path fill="#85754d" opacity="1.00" d=" M 114.15 185.39 C 107.66 183.59 114.18 174.08 120.30 179.07 C 120.65 182.99 111.61 178.76 114.84 182.18 C 114.91 182.95 115.05 184.50 115.12 185.27 L 114.15 185.39 Z" />
</g>
<g id="#776c5bff">
<path fill="#776c5b" opacity="1.00" d=" M 123.74 179.67 C 124.05 179.53 124.68 179.25 124.99 179.11 C 121.80 185.57 127.35 183.75 130.16 183.88 C 135.72 183.46 140.73 180.63 146.22 180.00 C 139.80 184.38 131.56 184.84 124.07 185.89 C 123.99 184.33 123.82 181.22 123.74 179.67 Z" />
</g>
<g id="#d5d48dff">
<path fill="#d5d48d" opacity="1.00" d=" M 66.96 179.99 C 71.12 179.51 74.83 183.15 77.16 186.15 C 76.79 187.06 76.46 187.99 76.15 188.94 C 72.00 188.33 66.78 184.55 66.96 179.99 Z" />
</g>
<g id="#79745eff">
<path fill="#79745e" opacity="1.00" d=" M 91.88 179.95 C 94.10 180.58 96.21 181.56 98.00 183.05 C 95.61 182.82 93.28 182.00 91.88 179.95 Z" />
</g>
<g id="#787360ff">
<path fill="#787360" opacity="1.00" d=" M 81.97 181.06 L 82.72 180.86 C 85.90 181.47 89.09 183.69 91.10 186.06 C 87.70 185.30 84.51 183.41 81.97 181.06 Z" />
</g>
<g id="#766d5eff">
<path fill="#766d5e" opacity="1.00" d=" M 158.08 183.14 C 158.12 181.59 159.58 180.60 161.05 180.99 C 160.75 182.38 159.51 183.30 158.08 183.14 Z" />
</g>
<g id="#c6b181ff">
<path fill="#c6b181" opacity="1.00" d=" M 114.84 182.18 C 116.88 182.34 120.40 181.07 121.03 183.90 C 119.35 185.20 117.11 184.96 115.12 185.27 C 115.05 184.50 114.91 182.95 114.84 182.18 Z" />
</g>
<g id="#726454ff">
<path fill="#726454" opacity="1.00" d=" M 98.00 183.05 C 101.19 183.59 104.52 184.14 107.26 185.98 C 103.90 186.26 100.65 185.03 98.00 183.05 Z" />
</g>
<g id="#776e5fff">
<path fill="#776e5f" opacity="1.00" d=" M 139.97 190.39 C 146.28 188.72 151.93 185.28 158.08 183.14 C 153.06 186.87 147.35 189.64 141.34 191.34 C 141.00 191.10 140.31 190.62 139.97 190.39 Z" />
</g>
<g id="#6c6255ff">
<path fill="#6c6255" opacity="1.00" d=" M 137.39 185.81 C 138.13 184.50 140.99 183.65 142.59 184.23 C 142.11 185.99 139.00 186.59 137.39 185.81 Z" />
</g>
<g id="#b9a067ff">
<path fill="#b9a067" opacity="1.00" d=" M 168.06 185.10 C 176.29 186.24 161.88 196.65 159.98 193.01 C 159.03 188.28 165.37 187.49 168.06 185.10 Z" />
</g>
<g id="#60613bff">
<path fill="#60613b" opacity="1.00" d=" M 77.16 186.15 C 79.28 186.14 77.98 190.19 76.15 188.94 C 76.46 187.99 76.79 187.06 77.16 186.15 Z" />
</g>
<g id="#5e4f45ff">
<path fill="#5e4f45" opacity="1.00" d=" M 112.02 187.98 C 118.51 185.64 129.27 188.10 137.39 185.81 C 130.38 190.00 120.07 187.21 112.02 187.98 Z" />
</g>
<g id="#746355ff">
<path fill="#746355" opacity="1.00" d=" M 97.07 189.02 C 90.79 189.02 95.37 184.70 97.75 188.80 L 97.07 189.02 Z" />
</g>
<g id="#5f4f40ff">
<path fill="#5f4f40" opacity="1.00" d=" M 97.07 189.02 L 97.75 188.80 C 99.79 189.33 103.01 189.11 104.09 191.10 C 101.90 190.71 98.00 191.04 97.07 189.02 Z" />
</g>
<g id="#bcab6bff">
<path fill="#bcab6b" opacity="1.00" d=" M 81.23 190.12 C 84.62 189.93 95.37 194.38 89.93 197.97 C 86.81 196.88 77.88 194.11 81.23 190.12 Z" />
</g>
<g id="#5c5143ff">
<path fill="#5c5143" opacity="1.00" d=" M 114.10 193.09 C 122.83 193.32 131.51 192.60 139.97 190.39 C 140.31 190.62 141.00 191.10 141.34 191.34 C 132.77 194.12 121.17 195.48 114.10 193.09 Z" />
</g>
<g id="#65574aff">
<path fill="#65574a" opacity="1.00" d=" M 94.97 191.05 C 98.15 191.39 101.27 192.33 103.98 194.07 C 100.76 193.88 97.53 193.09 94.97 191.05 Z" />
</g>
<g id="#b9a05eff">
<path fill="#b9a05e" opacity="1.00" d=" M 28.06 193.61 C 27.95 189.94 30.95 194.95 32.04 195.99 C 43.97 213.10 62.52 223.67 80.00 234.04 C 58.99 226.94 40.68 211.76 28.06 193.61 Z" />
</g>
<g id="#e6ce95ff">
<path fill="#e6ce95" opacity="1.00" d=" M 201.15 213.14 C 208.53 206.81 214.30 198.91 220.83 191.76 C 216.51 200.59 208.30 209.73 199.97 215.07 C 200.27 214.58 200.85 213.62 201.15 213.14 Z" />
</g>
<g id="#56493fff">
<path fill="#56493f" opacity="1.00" d=" M 103.98 194.07 C 106.18 194.80 116.17 193.05 112.86 196.51 C 109.75 196.21 106.71 195.59 103.98 194.07 Z" />
</g>
<g id="#cfb77fff">
<path fill="#cfb77f" opacity="1.00" d=" M 152.33 194.40 C 164.46 192.64 142.16 207.44 145.15 197.25 C 147.53 196.27 149.96 195.40 152.33 194.40 Z" />
</g>
<g id="#9e7a46ff">
<path fill="#9e7a46" opacity="1.00" d=" M 96.22 197.11 C 100.24 197.67 108.88 196.77 106.99 203.00 C 104.44 202.11 92.06 202.18 96.22 197.11 Z" />
</g>
<g id="#a08459ff">
<path fill="#a08459" opacity="1.00" d=" M 135.40 199.51 C 137.35 197.25 141.70 199.16 140.93 201.82 C 137.46 205.12 132.25 203.67 127.97 203.99 C 126.86 199.37 132.08 199.65 135.40 199.51 Z" />
</g>
<g id="#896a40ff">
<path fill="#896a40" opacity="1.00" d=" M 111.64 203.76 C 112.07 196.88 120.13 202.53 124.01 201.18 C 124.57 207.82 115.46 204.36 111.64 203.76 Z" />
</g>
<g id="#d4c67fff">
<path fill="#d4c67f" opacity="1.00" d=" M 78.37 206.35 C 80.54 198.90 97.90 206.79 93.00 212.13 C 92.05 211.64 91.09 211.18 90.11 210.75 C 88.67 207.69 82.66 204.91 81.59 209.65 C 79.08 213.45 85.99 213.64 88.13 215.08 C 87.94 212.39 84.08 212.64 83.86 209.98 C 85.72 210.18 87.54 210.59 89.37 210.95 C 90.39 212.21 91.45 213.44 92.36 214.78 C 90.38 222.42 71.25 213.88 78.37 206.35 Z" />
</g>
<g id="#d7c879ff">
<path fill="#d7c879" opacity="1.00" d=" M 158.67 203.65 C 163.04 200.93 162.91 207.71 166.03 209.27 C 165.96 210.45 165.97 211.62 166.05 212.80 C 163.97 214.97 155.70 221.60 153.17 216.93 C 154.71 214.17 151.54 213.74 150.97 211.76 C 151.03 210.59 151.03 209.41 150.98 208.24 C 151.87 205.47 156.47 205.40 158.67 203.65 M 158.32 207.37 C 156.76 208.08 154.89 208.60 153.86 210.06 C 156.23 210.78 163.13 207.13 158.32 207.37 M 160.43 211.52 C 159.01 212.23 157.54 212.84 156.03 213.35 C 156.97 217.59 165.25 210.05 160.43 211.52 Z" />
</g>
<g id="#c1994aff">
<path fill="#c1994a" opacity="1.00" d=" M 178.08 217.68 C 184.34 213.66 190.51 209.45 196.16 204.59 C 197.35 207.53 192.48 209.51 194.07 212.87 C 196.34 213.80 198.79 213.23 201.15 213.14 C 200.85 213.62 200.27 214.58 199.97 215.07 C 195.54 219.67 189.66 222.61 184.40 226.21 C 182.02 223.57 180.94 219.85 178.08 217.68 Z" />
</g>
<g id="#3d300dff">
<path fill="#3d300d" opacity="1.00" d=" M 81.59 209.65 C 82.66 204.91 88.67 207.69 90.11 210.75 L 89.37 210.95 C 87.54 210.59 85.72 210.18 83.86 209.98 C 84.08 212.64 87.94 212.39 88.13 215.08 C 85.99 213.64 79.08 213.45 81.59 209.65 Z" />
</g>
<g id="#624d0dff">
<path fill="#624d0d" opacity="1.00" d=" M 158.32 207.37 C 163.13 207.13 156.23 210.78 153.86 210.06 C 154.89 208.60 156.76 208.08 158.32 207.37 Z" />
</g>
<g id="#6f6233ff">
<path fill="#6f6233" opacity="1.00" d=" M 150.97 211.76 C 149.15 212.10 149.15 207.89 150.98 208.24 C 151.03 209.41 151.03 210.59 150.97 211.76 Z" />
</g>
<g id="#dcd689ff">
<path fill="#dcd689" opacity="1.00" d=" M 135.03 213.17 C 138.65 211.44 145.83 207.85 148.42 210.29 C 147.34 214.65 140.43 211.90 139.90 215.99 C 142.61 215.47 145.25 214.68 147.88 213.90 C 148.27 214.26 149.04 214.98 149.43 215.34 C 147.25 218.14 141.38 216.44 140.97 220.07 C 144.02 219.67 146.98 218.75 149.95 217.98 C 154.48 221.05 144.61 222.84 141.67 223.62 C 137.49 225.79 136.42 220.79 135.87 217.76 C 135.65 216.21 135.34 214.69 135.03 213.17 Z" />
</g>
<g id="#6f6539ff">
<path fill="#6f6539" opacity="1.00" d=" M 166.03 209.27 C 167.85 208.91 167.85 213.10 166.05 212.80 C 165.97 211.62 165.96 210.45 166.03 209.27 Z" />
</g>
<g id="#615217ff">
<path fill="#615217" opacity="1.00" d=" M 148.42 210.29 C 149.86 209.24 148.99 213.42 147.88 213.90 C 145.25 214.68 142.61 215.47 139.90 215.99 C 140.43 211.90 147.34 214.65 148.42 210.29 Z" />
</g>
<g id="#897d34ff">
<path fill="#897d34" opacity="1.00" d=" M 89.37 210.95 L 90.11 210.75 C 91.09 211.18 92.05 211.64 93.00 212.13 C 93.55 213.36 93.34 214.24 92.36 214.78 C 91.45 213.44 90.39 212.21 89.37 210.95 Z" />
</g>
<g id="#ddd985ff">
<path fill="#ddd985" opacity="1.00" d=" M 93.99 221.22 C 95.62 216.95 99.17 211.38 104.05 210.97 C 104.87 212.25 106.47 212.34 107.82 212.11 C 108.15 215.92 113.45 223.47 109.15 224.85 C 106.22 222.61 102.96 220.09 99.04 221.30 C 97.48 220.53 95.50 220.10 93.99 221.22 M 103.21 215.18 C 100.58 216.72 102.95 218.74 105.03 218.99 C 104.80 217.43 105.97 213.84 103.21 215.18 Z" />
</g>
<g id="#766f45ff">
<path fill="#766f45" opacity="1.00" d=" M 104.05 210.97 C 104.55 210.88 105.55 210.70 106.06 210.61 C 106.50 210.99 107.38 211.74 107.82 212.11 C 106.47 212.34 104.87 212.25 104.05 210.97 Z" />
</g>
<g id="#634f0aff">
<path fill="#634f0a" opacity="1.00" d=" M 160.43 211.52 C 165.25 210.05 156.97 217.59 156.03 213.35 C 157.54 212.84 159.01 212.23 160.43 211.52 Z" />
</g>
<g id="#dfda86ff">
<path fill="#dfda86" opacity="1.00" d=" M 124.77 218.90 C 125.46 213.80 128.66 211.35 134.05 212.97 C 134.02 216.97 133.99 220.98 133.96 225.00 C 128.72 226.64 129.97 221.53 129.87 217.81 C 127.32 220.55 127.16 226.71 122.14 224.95 C 120.44 222.65 116.58 211.41 118.06 222.97 C 119.71 226.21 114.46 227.31 113.99 224.99 C 113.99 221.31 114.00 217.66 114.01 214.00 C 121.19 209.67 120.93 217.66 124.77 218.90 Z" />
</g>
<g id="#463a15ff">
<path fill="#463a15" opacity="1.00" d=" M 134.05 212.97 L 135.03 213.17 C 135.34 214.69 135.65 216.21 135.87 217.76 C 134.91 219.77 136.29 224.29 133.96 225.00 C 133.99 220.98 134.02 216.97 134.05 212.97 Z" />
</g>
<g id="#4c4520ff">
<path fill="#4c4520" opacity="1.00" d=" M 113.99 224.99 C 112.71 224.82 111.38 214.22 114.01 214.00 C 114.00 217.66 113.99 221.31 113.99 224.99 Z" />
</g>
<g id="#503c0aff">
<path fill="#503c0a" opacity="1.00" d=" M 103.21 215.18 C 105.97 213.84 104.80 217.43 105.03 218.99 C 102.95 218.74 100.58 216.72 103.21 215.18 Z" />
</g>
<g id="#5a5415ff">
<path fill="#5a5415" opacity="1.00" d=" M 149.43 215.34 C 150.22 215.21 150.39 216.09 149.95 217.98 C 146.98 218.75 144.02 219.67 140.97 220.07 C 141.38 216.44 147.25 218.14 149.43 215.34 Z" />
</g>
<g id="#e1b961ff">
<path fill="#e1b961" opacity="1.00" d=" M 141.07 231.26 C 153.98 228.53 166.78 224.66 178.08 217.68 C 180.94 219.85 182.02 223.57 184.40 226.21 C 172.14 234.43 154.82 240.04 139.01 242.03 C 129.91 241.88 120.77 242.50 111.71 241.37 C 119.76 240.81 127.86 241.37 135.90 240.87 C 138.41 240.26 141.58 238.39 141.00 235.37 C 137.95 235.17 134.92 234.35 132.72 232.19 C 133.52 232.10 135.11 231.91 135.91 231.82 C 137.62 232.38 139.61 232.50 141.07 231.26 Z" />
</g>
<g id="#717248ff">
<path fill="#717248" opacity="1.00" d=" M 93.99 221.22 C 95.50 220.10 97.48 220.53 99.04 221.30 C 97.77 221.28 95.25 221.24 93.99 221.22 Z" />
</g>
<g id="#d8a53fff">
<path fill="#d8a53f" opacity="1.00" d=" M 97.14 229.28 C 99.36 229.63 101.59 229.94 103.83 230.17 C 104.84 230.86 105.94 231.33 107.14 231.57 C 108.63 231.68 111.60 231.91 113.09 232.03 C 119.63 231.96 126.18 231.99 132.72 232.19 C 134.92 234.35 137.95 235.17 141.00 235.37 C 141.58 238.39 138.41 240.26 135.90 240.87 C 127.86 241.37 119.76 240.81 111.71 241.37 C 107.81 240.88 104.00 239.87 100.20 238.89 C 97.20 236.26 93.10 235.40 90.15 232.78 C 88.56 228.44 94.66 230.10 97.14 229.28 Z" />
</g>
<g id="#2f1f08ff">
<path fill="#2f1f08" opacity="1.00" d=" M 103.83 230.17 C 105.46 229.62 107.21 229.73 108.79 230.41 C 108.38 230.70 107.56 231.28 107.14 231.57 C 105.94 231.33 104.84 230.86 103.83 230.17 Z" />
</g>
<g id="#745a2bff">
<path fill="#745a2b" opacity="1.00" d=" M 107.14 231.57 C 107.56 231.28 108.38 230.70 108.79 230.41 C 110.37 230.38 112.04 230.74 113.09 232.03 C 111.60 231.91 108.63 231.68 107.14 231.57 Z" />
</g>
<g id="#8b7140ff">
<path fill="#8b7140" opacity="1.00" d=" M 135.91 231.82 C 137.30 230.40 139.37 230.61 141.07 231.26 C 139.61 232.50 137.62 232.38 135.91 231.82 Z" />
</g>
<g id="#efd99cff">
<path fill="#efd99c" opacity="1.00" d=" M 94.92 238.97 C 96.68 238.95 98.44 238.90 100.20 238.89 C 104.00 239.87 107.81 240.88 111.71 241.37 C 120.77 242.50 129.91 241.88 139.01 242.03 C 126.40 243.81 107.83 244.38 94.92 238.97 Z" />
</g>
</svg>
