<?xml version="1.0" encoding="UTF-8" ?>
<!DOCTYPE svg PUBLIC "-//W3C//DTD SVG 1.1//EN" "http://www.w3.org/Graphics/SVG/1.1/DTD/svg11.dtd">
<svg width="250pt" height="250pt" viewBox="0 0 250 250" version="1.1" xmlns="http://www.w3.org/2000/svg">
<g id="#ffffffff">
<path fill="#ffffff" opacity="1.00" d=" M 0.00 0.00 L 250.00 0.00 L 250.00 250.00 L 0.00 250.00 L 0.00 0.00 M 108.90 28.52 C 87.00 32.91 66.81 45.18 52.73 62.51 C 38.73 79.85 30.90 102.13 31.32 124.44 C 43.41 124.38 55.49 124.42 67.58 124.42 C 66.79 102.46 79.61 80.99 98.84 70.58 C 111.51 63.41 126.84 61.41 141.02 64.45 C 156.13 67.70 169.77 77.00 178.39 89.80 C 187.37 102.80 190.43 119.44 187.47 134.88 C 184.56 151.09 174.15 165.42 160.47 174.34 C 148.95 182.03 134.72 184.36 121.10 183.56 C 121.22 195.58 121.12 207.61 121.15 219.63 C 143.56 221.72 166.51 215.10 184.70 201.94 C 205.40 187.27 219.70 164.04 223.75 139.03 C 227.34 117.14 223.32 94.01 212.07 74.85 C 200.91 55.41 182.65 40.25 161.62 32.55 C 144.86 26.38 126.39 24.94 108.90 28.52 M 118.41 85.77 C 108.57 88.29 99.88 94.81 94.59 103.47 C 89.62 111.54 87.72 121.45 89.35 130.78 C 91.08 141.99 98.00 152.30 107.77 158.07 C 119.06 165.07 133.95 165.82 145.89 159.98 C 161.69 152.62 171.18 134.02 167.64 116.91 C 165.49 104.80 157.25 93.99 146.21 88.61 C 137.69 84.36 127.62 83.32 118.41 85.77 M 25.48 149.57 C 24.40 153.30 25.40 157.23 24.97 161.05 C 24.98 177.37 24.96 193.68 25.07 210.00 C 25.08 213.42 24.37 217.38 26.78 220.22 C 28.64 222.81 32.02 223.21 34.96 223.22 C 53.66 223.19 72.35 223.28 91.05 223.37 C 94.54 223.35 98.58 224.00 101.51 221.64 C 103.01 220.64 102.66 218.68 102.86 217.14 C 103.10 205.68 103.26 194.22 103.18 182.76 C 102.96 182.45 102.52 181.82 102.31 181.51 C 96.09 178.40 90.05 174.78 85.00 169.95 C 77.19 162.83 72.11 153.35 68.46 143.56 C 57.27 143.23 46.08 143.39 34.89 143.21 C 30.73 142.79 27.10 146.00 25.48 149.57 Z" />
</g>
<g id="#000000ff">
<path fill="#000000" opacity="1.00" d=" M 108.90 28.52 C 126.39 24.94 144.86 26.38 161.62 32.55 C 182.65 40.25 200.91 55.41 212.07 74.85 C 223.32 94.01 227.34 117.14 223.75 139.03 C 219.70 164.04 205.40 187.27 184.70 201.94 C 166.51 215.10 143.56 221.72 121.15 219.63 C 121.12 207.61 121.22 195.58 121.10 183.56 C 134.72 184.36 148.95 182.03 160.47 174.34 C 174.15 165.42 184.56 151.09 187.47 134.88 C 190.43 119.44 187.37 102.80 178.39 89.80 C 169.77 77.00 156.13 67.70 141.02 64.45 C 126.84 61.41 111.51 63.41 98.84 70.58 C 79.61 80.99 66.79 102.46 67.58 124.42 C 55.49 124.42 43.41 124.38 31.32 124.44 C 30.90 102.13 38.73 79.85 52.73 62.51 C 66.81 45.18 87.00 32.91 108.90 28.52 Z" />
<path fill="#000000" opacity="1.00" d=" M 118.41 85.77 C 127.62 83.32 137.69 84.36 146.21 88.61 C 157.25 93.99 165.49 104.80 167.64 116.91 C 171.18 134.02 161.69 152.62 145.89 159.98 C 133.95 165.82 119.06 165.07 107.77 158.07 C 98.00 152.30 91.08 141.99 89.35 130.78 C 87.72 121.45 89.62 111.54 94.59 103.47 C 99.88 94.81 108.57 88.29 118.41 85.77 Z" />
<path fill="#000000" opacity="1.00" d=" M 25.48 149.57 C 27.10 146.00 30.73 142.79 34.89 143.21 C 46.08 143.39 57.27 143.23 68.46 143.56 C 72.11 153.35 77.19 162.83 85.00 169.95 C 90.05 174.78 96.09 178.40 102.31 181.51 C 102.52 181.82 102.96 182.45 103.18 182.76 C 103.26 194.22 103.10 205.68 102.86 217.14 C 102.66 218.68 103.01 220.64 101.51 221.64 C 98.58 224.00 94.54 223.35 91.05 223.37 C 72.35 223.28 53.66 223.19 34.96 223.22 C 32.02 223.21 28.64 222.81 26.78 220.22 C 24.37 217.38 25.08 213.42 25.07 210.00 C 24.96 193.68 24.98 177.37 24.97 161.05 C 25.40 157.23 24.40 153.30 25.48 149.57 Z" />
</g>
</svg>
