<?xml version="1.0" encoding="UTF-8" ?>
<!DOCTYPE svg PUBLIC "-//W3C//DTD SVG 1.1//EN" "http://www.w3.org/Graphics/SVG/1.1/DTD/svg11.dtd">
<svg width="249pt" height="250pt" viewBox="0 0 249 250" version="1.1" xmlns="http://www.w3.org/2000/svg">
<g id="#ffffffff">
<path fill="#ffffff" opacity="1.00" d=" M 0.00 0.00 L 249.00 0.00 L 249.00 250.00 L 0.00 250.00 L 0.00 0.00 M 114.54 8.60 C 106.09 15.41 98.59 23.30 91.25 31.26 C 87.07 35.65 84.99 41.47 81.27 46.20 C 77.44 52.39 78.24 60.02 78.35 66.98 C 79.28 73.84 80.54 80.82 83.98 86.93 C 90.74 106.07 98.87 124.73 108.25 142.73 C 110.71 149.59 115.01 155.59 117.57 162.40 C 121.12 170.10 125.22 177.63 127.27 185.91 C 130.28 192.18 130.96 199.18 131.44 206.01 C 130.25 217.59 127.92 229.11 123.98 240.08 C 123.22 242.06 123.62 244.20 123.86 246.24 C 128.38 246.37 131.34 242.17 134.54 239.55 C 141.91 234.35 147.44 227.12 153.37 220.44 C 156.72 216.36 159.26 211.71 162.62 207.64 C 166.75 200.79 172.33 193.81 171.50 185.31 C 169.86 176.70 168.53 167.92 165.02 159.81 C 161.09 150.95 157.41 141.98 153.91 132.94 C 152.80 129.74 150.51 127.18 149.00 124.20 C 145.99 115.32 141.20 107.20 137.33 98.68 C 132.67 89.89 129.06 80.59 124.30 71.85 C 122.38 67.27 121.00 62.49 119.17 57.88 C 117.02 50.46 117.57 42.63 117.50 35.00 C 117.54 30.51 117.14 25.90 118.50 21.55 C 120.13 16.93 119.48 11.99 119.61 7.19 C 117.87 7.43 115.91 7.30 114.54 8.60 M 33.01 40.04 C 23.80 48.94 14.36 58.95 11.68 71.92 C 10.65 80.97 14.88 89.51 16.46 98.27 C 16.73 98.39 17.27 98.63 17.54 98.75 C 19.22 104.63 21.58 110.25 24.26 115.73 C 26.97 123.91 32.10 130.97 35.14 139.00 C 37.07 143.76 40.11 147.97 42.08 152.72 C 43.76 156.09 44.60 159.88 46.94 162.89 C 48.28 167.33 50.36 171.47 52.00 175.79 C 54.52 186.10 53.53 196.98 50.86 207.16 C 49.81 211.14 47.22 214.81 47.55 219.07 C 48.22 221.80 50.55 219.72 51.91 218.89 C 56.86 215.96 60.29 211.29 64.32 207.32 C 71.89 198.60 79.83 189.83 84.20 178.97 C 84.55 174.97 84.61 170.92 84.32 166.91 C 82.93 162.99 81.99 158.94 80.79 154.97 C 78.29 150.02 77.12 144.55 74.39 139.70 C 70.93 130.68 65.97 122.35 62.49 113.35 C 58.37 105.44 54.70 97.32 50.68 89.37 C 47.25 81.55 43.27 73.70 42.62 65.04 C 42.59 58.69 42.45 52.33 42.75 45.99 C 43.47 41.86 43.95 37.66 43.41 33.47 C 39.38 34.50 36.20 37.49 33.01 40.04 M 188.76 37.73 C 178.83 46.04 169.87 56.09 165.24 68.34 C 163.13 77.37 165.31 86.72 168.72 95.14 C 168.90 99.23 171.45 102.31 172.58 106.08 C 173.37 106.71 173.95 107.56 174.21 108.56 C 176.15 115.01 179.61 120.85 182.01 127.12 C 185.19 130.67 185.28 135.94 188.63 139.39 C 191.78 148.77 197.57 156.99 200.77 166.35 C 203.81 172.83 206.61 179.70 206.41 186.99 C 206.73 193.55 205.13 199.96 203.60 206.28 C 203.31 206.37 202.71 206.56 202.42 206.66 C 202.78 211.60 199.98 216.03 200.21 220.88 C 203.54 220.76 205.29 217.48 208.02 216.02 C 213.73 212.45 217.44 206.74 221.81 201.79 C 226.54 196.05 231.70 190.43 234.68 183.51 C 235.79 180.76 237.58 178.12 237.55 175.05 C 238.12 166.93 234.26 159.50 232.50 151.77 C 232.24 151.63 231.73 151.36 231.47 151.23 C 230.29 145.17 226.95 139.93 224.76 134.24 C 221.98 129.22 220.36 123.66 217.32 118.77 C 210.39 103.69 202.36 89.10 196.73 73.45 C 194.52 66.16 195.70 58.48 195.38 51.00 C 194.95 45.15 197.14 39.43 196.29 33.59 C 193.09 33.14 191.03 35.99 188.76 37.73 Z" />
</g>
<g id="#4ba2f2ff">
<path fill="#4ba2f2" opacity="1.00" d=" M 114.54 8.60 C 115.91 7.30 117.87 7.43 119.61 7.19 C 119.48 11.99 120.13 16.93 118.50 21.55 C 117.14 25.90 117.54 30.51 117.50 35.00 C 117.57 42.63 117.02 50.46 119.17 57.88 C 121.00 62.49 122.38 67.27 124.30 71.85 C 129.06 80.59 132.67 89.89 137.33 98.68 C 141.20 107.20 145.99 115.32 149.00 124.20 C 150.51 127.18 152.80 129.74 153.91 132.94 C 157.41 141.98 161.09 150.95 165.02 159.81 C 168.53 167.92 169.86 176.70 171.50 185.31 C 172.33 193.81 166.75 200.79 162.62 207.64 C 159.26 211.71 156.72 216.36 153.37 220.44 C 147.44 227.12 141.91 234.35 134.54 239.55 C 131.34 242.17 128.38 246.37 123.86 246.24 C 123.62 244.20 123.22 242.06 123.98 240.08 C 127.92 229.11 130.25 217.59 131.44 206.01 C 130.96 199.18 130.28 192.18 127.27 185.91 C 125.22 177.63 121.12 170.10 117.57 162.40 C 115.01 155.59 110.71 149.59 108.25 142.73 C 98.87 124.73 90.74 106.07 83.98 86.93 C 80.54 80.82 79.28 73.84 78.35 66.98 C 78.24 60.02 77.44 52.39 81.27 46.20 C 84.99 41.47 87.07 35.65 91.25 31.26 C 98.59 23.30 106.09 15.41 114.54 8.60 Z" />
</g>
<g id="#1a509aff">
<path fill="#1a509a" opacity="1.00" d=" M 33.01 40.04 C 36.20 37.49 39.38 34.50 43.41 33.47 C 43.95 37.66 43.47 41.86 42.75 45.99 C 42.45 52.33 42.59 58.69 42.62 65.04 C 43.27 73.70 47.25 81.55 50.68 89.37 C 54.70 97.32 58.37 105.44 62.49 113.35 C 65.97 122.35 70.93 130.68 74.39 139.70 C 77.12 144.55 78.29 150.02 80.79 154.97 C 81.99 158.94 82.93 162.99 84.32 166.91 C 84.61 170.92 84.55 174.97 84.20 178.97 C 79.83 189.83 71.89 198.60 64.32 207.32 C 60.29 211.29 56.86 215.96 51.91 218.89 C 50.55 219.72 48.22 221.80 47.55 219.07 C 47.22 214.81 49.81 211.14 50.86 207.16 C 53.53 196.98 54.52 186.10 52.00 175.79 C 50.36 171.47 48.28 167.33 46.94 162.89 C 44.60 159.88 43.76 156.09 42.08 152.72 C 40.11 147.97 37.07 143.76 35.14 139.00 C 32.10 130.97 26.97 123.91 24.26 115.73 C 21.58 110.25 19.22 104.63 17.54 98.75 C 17.27 98.63 16.73 98.39 16.46 98.27 C 14.88 89.51 10.65 80.97 11.68 71.92 C 14.36 58.95 23.80 48.94 33.01 40.04 Z" />
<path fill="#1a509a" opacity="1.00" d=" M 188.76 37.73 C 191.03 35.99 193.09 33.14 196.29 33.59 C 197.14 39.43 194.95 45.15 195.38 51.00 C 195.70 58.48 194.52 66.16 196.73 73.45 C 202.36 89.10 210.39 103.69 217.32 118.77 C 220.36 123.66 221.98 129.22 224.76 134.24 C 226.95 139.93 230.29 145.17 231.47 151.23 C 231.73 151.36 232.24 151.63 232.50 151.77 C 234.26 159.50 238.12 166.93 237.55 175.05 C 237.58 178.12 235.79 180.76 234.68 183.51 C 231.70 190.43 226.54 196.05 221.81 201.79 C 217.44 206.74 213.73 212.45 208.02 216.02 C 205.29 217.48 203.54 220.76 200.21 220.88 C 199.98 216.03 202.78 211.60 202.42 206.66 C 202.71 206.56 203.31 206.37 203.60 206.28 C 205.13 199.96 206.73 193.55 206.41 186.99 C 206.61 179.70 203.81 172.83 200.77 166.35 C 197.57 156.99 191.78 148.77 188.63 139.39 C 185.28 135.94 185.19 130.67 182.01 127.12 C 179.61 120.85 176.15 115.01 174.21 108.56 C 173.95 107.56 173.37 106.71 172.58 106.08 C 171.45 102.31 168.90 99.23 168.72 95.14 C 165.31 86.72 163.13 77.37 165.24 68.34 C 169.87 56.09 178.83 46.04 188.76 37.73 Z" />
</g>
</svg>
