<?xml version="1.0" encoding="UTF-8" ?>
<!DOCTYPE svg PUBLIC "-//W3C//DTD SVG 1.1//EN" "http://www.w3.org/Graphics/SVG/1.1/DTD/svg11.dtd">
<svg width="250pt" height="250pt" viewBox="0 0 250 250" version="1.1" xmlns="http://www.w3.org/2000/svg">
<g id="#ffffffff">
<path fill="#ffffff" opacity="1.00" d=" M 0.00 0.00 L 250.00 0.00 L 250.00 250.00 L 0.00 250.00 L 0.00 0.00 M 130.48 15.56 C 122.09 19.67 115.09 26.18 109.19 33.33 C 103.67 33.16 98.02 33.07 92.76 35.03 C 104.50 37.46 114.12 45.43 121.85 54.21 C 129.41 62.93 135.94 72.49 141.53 82.58 C 142.21 83.51 142.68 85.10 144.11 85.02 C 147.41 85.16 151.86 86.25 154.00 82.94 C 161.11 74.09 169.82 66.73 178.18 59.12 C 184.54 54.05 190.74 48.13 198.74 45.85 C 211.37 42.46 224.36 46.66 235.93 51.68 C 220.89 39.81 201.23 32.12 181.94 36.24 C 166.39 39.65 153.09 49.88 144.04 62.77 C 141.93 59.58 139.86 56.36 137.79 53.15 C 144.83 44.41 153.05 36.34 163.01 31.00 C 174.97 25.15 188.56 24.40 201.64 24.64 C 191.44 20.04 180.28 16.30 168.94 17.59 C 157.74 19.81 147.31 24.82 137.61 30.71 C 133.19 33.47 128.77 36.28 124.99 39.90 C 123.01 38.50 120.85 37.37 118.96 35.85 C 121.56 30.24 125.81 25.50 130.10 21.11 C 134.89 16.26 141.79 15.30 147.85 12.89 C 141.97 12.09 135.95 13.41 130.48 15.56 M 40.03 38.66 C 49.82 69.87 65.99 99.64 89.65 122.52 C 89.88 116.76 90.09 110.87 92.93 105.69 C 77.50 97.59 66.12 83.75 56.66 69.44 C 50.15 59.73 45.82 48.79 40.03 38.66 M 77.25 55.74 C 84.91 53.61 94.03 53.14 100.54 58.48 C 108.80 65.77 114.54 75.56 118.35 85.81 C 122.55 85.23 126.78 84.92 131.02 84.68 C 122.68 72.99 114.17 61.23 103.45 51.58 C 100.78 49.42 97.68 47.05 94.04 47.51 C 87.63 48.11 82.38 52.21 77.25 55.74 M 82.40 67.94 C 85.53 77.96 89.14 88.04 95.17 96.72 C 96.06 94.47 96.96 92.22 97.82 89.96 C 92.07 83.06 86.99 75.66 82.40 67.94 M 192.24 72.21 C 183.63 75.37 174.98 79.40 168.50 86.07 C 170.76 85.74 172.92 84.97 175.13 84.46 C 177.61 84.51 180.05 85.03 182.52 85.31 C 183.03 86.96 183.51 88.62 183.95 90.30 C 188.75 87.08 193.86 84.16 199.58 82.95 C 209.27 80.32 219.39 81.43 229.30 81.48 C 224.45 77.45 218.81 74.51 212.97 72.21 C 206.39 69.59 198.82 69.60 192.24 72.21 M 102.75 85.02 C 100.36 88.63 98.64 92.62 97.16 96.67 C 98.80 95.22 100.31 93.63 101.94 92.17 C 105.10 94.13 107.74 96.74 110.25 99.44 C 111.36 95.65 112.35 91.81 113.81 88.13 C 112.67 89.25 111.52 90.36 110.38 91.48 C 107.74 89.44 105.29 87.18 102.75 85.02 M 122.50 87.49 C 122.51 95.11 122.49 102.72 122.49 110.34 C 123.07 110.41 124.23 110.54 124.81 110.60 C 125.32 105.19 125.07 99.76 125.18 94.33 C 125.76 94.35 126.91 94.38 127.48 94.40 C 127.48 97.62 127.48 100.84 127.50 104.06 C 127.57 112.93 127.47 121.81 127.51 130.68 C 127.33 134.21 127.97 137.87 127.16 141.32 C 125.43 143.80 125.41 146.79 125.47 149.70 C 128.23 149.77 130.99 149.78 133.75 149.77 C 134.45 144.35 131.55 139.42 132.45 133.98 C 132.49 124.34 132.39 114.70 132.44 105.06 C 132.47 101.51 132.46 97.96 132.46 94.40 C 133.05 94.39 134.23 94.35 134.83 94.33 C 134.93 99.76 134.68 105.19 135.19 110.60 C 135.77 110.54 136.92 110.41 137.50 110.35 C 137.52 102.73 137.49 95.11 137.49 87.49 C 132.49 87.49 127.50 87.49 122.50 87.49 M 139.19 87.51 C 139.16 90.28 139.12 93.14 140.53 95.63 C 141.33 97.65 141.41 99.83 141.39 101.97 C 141.31 115.30 141.25 128.62 141.28 141.95 C 140.76 142.24 139.71 142.81 139.19 143.10 C 139.24 145.31 139.25 147.53 139.26 149.75 C 142.02 149.77 144.78 149.78 147.54 149.78 C 147.41 147.36 147.98 144.75 146.79 142.52 C 145.29 139.82 145.70 136.70 145.70 133.75 C 145.71 124.49 145.73 115.22 145.57 105.96 C 145.84 102.45 145.25 98.79 146.58 95.45 C 147.69 92.94 147.54 90.17 147.60 87.50 C 144.79 87.49 141.99 87.49 139.19 87.51 M 150.13 87.48 C 149.98 89.64 149.87 91.80 149.78 93.96 C 150.62 94.56 151.46 95.18 152.27 95.84 C 152.79 99.11 152.24 102.44 152.64 105.72 C 152.54 117.65 152.50 129.59 152.54 141.52 C 148.94 142.83 149.95 146.69 149.84 149.71 C 152.37 149.77 154.91 149.78 157.44 149.81 C 157.49 147.76 157.53 145.71 157.61 143.66 C 156.91 142.64 155.26 142.04 155.34 140.64 C 155.23 132.42 155.35 124.20 155.28 115.98 C 155.25 114.72 155.04 113.49 154.63 112.30 C 155.01 110.04 155.17 107.69 156.18 105.59 C 156.16 118.24 159.14 130.60 160.57 143.12 C 160.95 145.35 161.28 147.58 161.47 149.83 C 162.61 149.81 163.75 149.80 164.90 149.79 L 164.87 149.08 C 165.57 133.87 164.90 118.63 164.68 103.42 C 165.13 100.38 164.43 96.90 166.53 94.36 C 168.01 92.41 167.25 89.80 167.51 87.54 C 164.57 87.49 161.64 87.48 158.70 87.50 C 158.70 89.71 158.71 91.92 158.71 94.12 C 159.30 94.52 160.48 95.31 161.07 95.70 C 161.56 104.18 161.57 112.74 160.90 121.20 C 159.96 114.13 159.40 107.02 158.27 99.97 C 157.62 95.79 157.19 91.57 156.10 87.48 C 154.11 87.49 152.12 87.49 150.13 87.48 M 174.27 86.56 C 172.62 89.47 171.01 92.50 170.64 95.88 C 169.64 103.54 170.58 111.31 169.87 118.99 C 170.08 126.36 169.22 133.83 170.53 141.12 C 171.28 144.19 172.13 147.48 174.40 149.81 C 176.95 151.12 179.73 148.61 180.15 146.10 C 181.39 141.04 182.72 135.89 182.51 130.64 C 182.47 127.08 182.61 123.53 182.44 119.98 C 180.87 118.55 178.26 119.61 176.27 119.28 C 176.54 121.69 175.42 124.76 177.54 126.57 C 179.18 127.86 178.53 130.14 178.84 131.94 C 178.54 135.69 178.13 139.65 175.91 142.82 C 175.63 141.94 175.06 140.16 174.78 139.28 C 173.21 131.94 173.86 124.43 173.69 117.00 C 173.76 111.05 173.36 105.08 174.00 99.16 C 175.24 97.99 174.65 94.37 177.02 95.30 C 178.26 99.26 178.86 103.39 178.79 107.55 C 179.71 107.53 181.55 107.49 182.47 107.48 C 182.22 100.70 182.40 93.92 182.40 87.14 C 180.93 87.61 179.47 88.10 178.01 88.59 C 176.78 87.89 175.52 87.22 174.27 86.56 M 96.99 96.28 C 95.11 101.80 95.23 107.97 91.49 112.75 C 91.06 117.76 90.74 124.09 95.49 127.25 C 97.53 127.70 99.66 127.87 101.57 128.79 C 101.27 130.45 100.78 132.07 100.29 133.69 C 98.81 133.06 97.30 132.15 95.64 132.48 C 94.10 133.91 92.11 135.24 91.41 137.28 C 91.19 141.06 90.29 145.70 93.71 148.39 C 98.32 150.24 101.92 146.47 105.07 143.72 C 106.88 145.01 108.62 146.39 110.38 147.76 C 113.12 145.01 115.25 141.76 117.54 138.65 C 118.02 137.74 118.98 136.90 118.79 135.77 C 121.06 132.20 121.19 127.80 122.37 123.82 C 123.06 118.01 120.96 112.00 117.87 107.14 C 113.10 102.60 106.58 106.33 101.02 106.33 C 97.24 104.36 97.58 99.87 96.99 96.28 M 184.46 104.60 C 182.26 108.18 182.52 112.78 182.72 116.87 C 185.59 113.67 187.83 109.85 191.38 107.31 C 196.24 103.77 201.78 101.32 207.29 99.01 C 199.46 95.16 190.58 99.52 184.46 104.60 M 109.06 100.45 C 108.15 101.65 108.39 102.35 109.76 102.55 C 110.66 101.35 110.42 100.65 109.06 100.45 M 41.15 129.13 C 35.26 137.11 29.70 145.37 25.34 154.30 C 16.41 172.68 10.62 192.41 6.22 212.32 C 10.86 201.85 14.36 190.88 19.65 180.69 C 26.34 165.86 36.25 152.86 46.10 140.04 C 53.51 130.67 63.54 121.27 76.26 121.30 C 72.30 115.87 68.20 110.56 64.09 105.26 C 55.09 111.79 47.87 120.36 41.15 129.13 M 183.97 132.10 C 183.71 138.23 182.33 144.23 180.37 150.04 C 181.64 151.93 182.69 154.08 184.51 155.54 C 188.56 157.72 193.30 157.55 197.76 157.47 C 194.84 151.82 190.92 146.70 188.40 140.86 C 188.33 137.28 189.53 133.82 190.62 130.45 C 192.68 124.44 198.01 120.57 202.21 116.11 C 193.21 116.34 186.94 124.40 183.97 132.10 M 207.60 119.56 C 207.55 120.93 207.66 122.29 207.91 123.63 C 209.18 129.00 208.58 134.55 208.74 140.00 C 208.56 145.10 209.37 150.40 207.58 155.31 C 206.38 159.82 203.58 164.45 198.72 165.58 C 193.55 167.59 188.29 164.86 183.58 162.89 C 182.16 170.44 182.45 178.18 182.85 185.81 C 186.17 190.58 192.92 192.51 198.26 190.16 C 207.95 186.89 212.26 176.25 213.64 166.90 C 213.77 159.70 213.96 152.47 213.48 145.28 C 211.85 136.66 210.86 127.76 207.60 119.56 M 68.27 136.87 C 59.94 139.36 53.82 145.95 48.46 152.46 C 41.64 160.54 35.68 169.30 29.72 178.03 C 39.21 169.47 47.44 159.20 58.78 152.91 C 62.67 150.57 67.46 151.06 71.76 151.61 C 79.82 154.12 88.02 157.80 93.48 164.49 C 100.55 172.76 104.73 183.01 111.63 191.41 C 118.75 201.04 128.44 209.07 140.07 212.48 C 134.77 207.97 129.56 203.16 126.04 197.08 C 120.73 188.24 115.39 179.39 110.76 170.17 C 114.06 170.74 118.60 170.14 120.48 173.58 C 127.05 183.46 134.28 192.94 142.49 201.53 C 149.03 208.03 157.89 213.46 167.46 212.58 C 164.10 210.29 160.60 208.17 157.56 205.46 C 148.26 197.45 142.22 186.57 135.48 176.49 C 133.60 173.34 131.24 170.45 129.77 167.07 C 132.28 164.02 135.45 161.60 138.21 158.80 C 142.18 165.81 145.60 173.34 151.15 179.27 C 151.36 185.08 151.56 190.95 149.58 196.51 C 151.91 196.40 154.69 196.09 156.03 193.89 C 157.77 191.34 157.49 188.18 158.17 185.30 C 159.62 178.48 158.39 171.49 157.07 164.78 C 156.19 161.59 153.21 159.69 149.96 159.99 C 149.56 157.37 148.27 155.01 146.92 152.78 C 143.56 152.55 140.22 152.24 136.95 151.43 C 133.22 152.26 129.44 152.73 125.60 152.61 C 125.08 151.33 124.58 150.04 124.10 148.75 C 117.89 151.07 110.46 151.24 104.94 147.13 C 101.68 149.82 97.63 152.75 93.21 151.01 C 89.63 148.40 90.17 143.36 89.69 139.45 C 82.90 136.81 75.49 135.29 68.27 136.87 M 157.33 152.97 C 158.49 155.41 160.04 157.63 161.38 159.97 L 160.10 159.90 C 161.94 168.83 161.05 177.99 161.27 187.06 C 161.53 190.22 160.30 193.19 159.62 196.22 C 161.86 196.29 164.10 196.35 166.34 196.43 C 167.96 197.98 169.85 199.28 172.05 199.89 C 177.07 201.39 182.22 203.16 187.54 202.52 C 183.13 200.62 179.39 196.29 174.37 196.33 C 172.23 190.45 171.65 183.83 173.67 177.84 C 172.17 173.28 172.54 168.48 172.59 163.75 C 173.25 163.76 174.58 163.78 175.25 163.79 C 175.34 166.14 175.37 168.50 175.90 170.80 C 176.93 167.35 176.48 163.69 176.56 160.14 C 177.05 160.14 178.04 160.15 178.53 160.15 C 178.95 162.44 179.89 164.65 179.87 167.01 C 179.89 174.34 179.86 181.67 179.89 189.00 C 179.97 191.55 178.89 193.92 178.34 196.36 C 180.19 196.31 182.04 196.26 183.90 196.21 C 183.29 193.59 182.05 191.06 182.37 188.30 C 182.83 179.01 181.22 169.45 183.86 160.38 C 182.46 160.27 181.06 160.20 179.66 160.17 C 177.20 157.40 174.76 154.59 172.88 151.39 C 169.18 152.62 165.13 153.03 161.35 151.90 C 159.87 151.46 157.79 150.93 157.33 152.97 M 52.79 170.90 C 44.74 174.17 39.50 181.40 33.95 187.71 C 42.66 183.00 52.46 177.73 62.68 180.17 C 72.99 183.37 82.51 189.21 90.02 196.99 C 96.42 203.68 104.41 208.75 112.96 212.23 C 115.30 213.26 117.84 213.56 120.38 213.58 C 117.21 208.23 112.88 203.73 109.15 198.79 C 102.60 190.72 96.26 182.45 89.19 174.81 C 86.21 171.32 82.26 168.70 77.73 167.75 C 69.33 166.81 60.53 167.14 52.79 170.90 M 207.36 191.99 C 214.49 202.58 223.57 212.11 234.82 218.35 C 237.65 220.03 241.00 220.34 244.23 220.20 C 231.27 210.12 222.62 195.79 213.55 182.36 C 211.55 185.61 209.64 188.92 207.36 191.99 Z" />
<path fill="#ffffff" opacity="1.00" d=" M 93.68 115.98 C 93.73 113.94 93.73 111.90 93.73 109.87 C 95.45 111.37 96.94 113.18 98.86 114.44 C 100.75 114.93 102.73 114.59 104.66 114.50 C 105.02 115.89 105.40 117.27 105.80 118.66 C 106.12 116.96 106.36 115.26 106.59 113.56 C 109.66 113.78 113.66 112.41 115.88 115.25 C 119.94 120.14 118.57 126.89 118.46 132.74 C 117.12 135.61 115.50 138.34 113.70 140.94 C 112.45 140.35 111.21 139.77 109.96 139.19 C 112.87 135.65 116.75 131.96 116.38 126.98 C 116.61 123.92 115.68 120.38 112.83 118.79 C 107.92 118.15 103.14 120.18 98.25 119.80 C 95.98 119.70 94.84 117.60 93.68 115.98 Z" />
<path fill="#ffffff" opacity="1.00" d=" M 102.81 127.66 C 105.72 127.71 108.48 126.85 111.29 126.24 C 112.24 127.39 113.05 128.66 113.91 129.88 C 112.37 132.70 110.80 135.50 108.96 138.14 C 106.30 136.90 103.71 135.50 101.00 134.35 C 101.70 132.15 102.45 129.95 102.81 127.66 Z" />
<path fill="#ffffff" opacity="1.00" d=" M 92.38 145.08 C 92.20 142.61 93.35 140.51 94.83 138.63 C 98.09 139.69 101.35 140.87 104.08 143.02 C 101.74 144.22 99.85 146.65 97.07 146.71 C 95.32 146.92 93.89 145.72 92.38 145.08 Z" />
<path fill="#ffffff" opacity="1.00" d=" M 167.64 160.27 C 168.20 160.26 169.32 160.26 169.88 160.26 C 172.01 168.37 171.03 176.77 171.27 185.05 C 171.48 188.92 170.48 192.66 169.82 196.43 C 169.21 196.44 167.99 196.45 167.38 196.45 C 167.62 192.83 167.76 189.15 167.05 185.57 C 166.35 188.31 165.82 191.10 165.00 193.82 C 162.80 188.77 163.78 183.13 164.56 177.88 C 163.87 173.21 163.53 168.51 163.75 163.79 C 164.31 163.77 165.45 163.74 166.01 163.73 C 166.18 166.18 166.33 168.65 166.90 171.06 C 167.83 167.53 167.53 163.86 167.64 160.27 Z" />
<path fill="#ffffff" opacity="1.00" d=" M 152.87 163.27 C 155.10 164.33 155.51 166.93 156.12 169.06 C 156.42 174.39 156.19 179.73 156.25 185.07 C 156.39 187.99 155.07 190.69 154.04 193.35 C 151.93 191.04 152.70 187.83 152.56 184.99 C 152.73 177.75 152.24 170.49 152.87 163.27 Z" />
</g>
<g id="#e51111ff">
<path fill="#e51111" opacity="1.00" d=" M 130.48 15.56 C 135.95 13.41 141.97 12.09 147.85 12.89 C 141.79 15.30 134.89 16.26 130.10 21.11 C 125.81 25.50 121.56 30.24 118.96 35.85 C 120.85 37.37 123.01 38.50 124.99 39.90 C 128.77 36.28 133.19 33.47 137.61 30.71 C 147.31 24.82 157.74 19.81 168.94 17.59 C 180.28 16.30 191.44 20.04 201.64 24.64 C 188.56 24.40 174.97 25.15 163.01 31.00 C 153.05 36.34 144.83 44.41 137.79 53.15 C 139.86 56.36 141.93 59.58 144.04 62.77 C 153.09 49.88 166.39 39.65 181.94 36.24 C 201.23 32.12 220.89 39.81 235.93 51.68 C 224.36 46.66 211.37 42.46 198.74 45.85 C 190.74 48.13 184.54 54.05 178.18 59.12 C 169.82 66.73 161.11 74.09 154.00 82.94 C 151.86 86.25 147.41 85.16 144.11 85.02 C 142.68 85.10 142.21 83.51 141.53 82.58 C 135.94 72.49 129.41 62.93 121.85 54.21 C 114.12 45.43 104.50 37.46 92.76 35.03 C 98.02 33.07 103.67 33.16 109.19 33.33 C 115.09 26.18 122.09 19.67 130.48 15.56 Z" />
<path fill="#e51111" opacity="1.00" d=" M 40.03 38.66 C 45.82 48.79 50.15 59.73 56.66 69.44 C 66.12 83.75 77.50 97.59 92.93 105.69 C 90.09 110.87 89.88 116.76 89.65 122.52 C 65.99 99.64 49.82 69.87 40.03 38.66 Z" />
<path fill="#e51111" opacity="1.00" d=" M 77.25 55.74 C 82.38 52.21 87.63 48.11 94.04 47.51 C 97.68 47.05 100.78 49.42 103.45 51.58 C 114.17 61.23 122.68 72.99 131.02 84.68 C 126.78 84.92 122.55 85.23 118.35 85.81 C 114.54 75.56 108.80 65.77 100.54 58.48 C 94.03 53.14 84.91 53.61 77.25 55.74 Z" />
<path fill="#e51111" opacity="1.00" d=" M 82.40 67.94 C 86.99 75.66 92.07 83.06 97.82 89.96 C 96.96 92.22 96.06 94.47 95.17 96.72 C 89.14 88.04 85.53 77.96 82.40 67.94 Z" />
<path fill="#e51111" opacity="1.00" d=" M 192.24 72.21 C 198.82 69.60 206.39 69.59 212.97 72.21 C 218.81 74.51 224.45 77.45 229.30 81.48 C 219.39 81.43 209.27 80.32 199.58 82.95 C 193.86 84.16 188.75 87.08 183.95 90.30 C 183.51 88.62 183.03 86.96 182.52 85.31 C 180.05 85.03 177.61 84.51 175.13 84.46 C 172.92 84.97 170.76 85.74 168.50 86.07 C 174.98 79.40 183.63 75.37 192.24 72.21 Z" />
<path fill="#e51111" opacity="1.00" d=" M 122.50 87.49 C 127.50 87.49 132.49 87.49 137.49 87.49 C 137.49 95.11 137.52 102.73 137.50 110.35 C 136.92 110.41 135.77 110.54 135.19 110.60 C 134.68 105.19 134.93 99.76 134.83 94.33 C 134.23 94.35 133.05 94.39 132.46 94.40 C 132.46 97.96 132.47 101.51 132.44 105.06 C 130.79 104.72 129.15 104.39 127.50 104.06 C 127.48 100.84 127.48 97.62 127.48 94.40 C 126.91 94.38 125.76 94.35 125.18 94.33 C 125.07 99.76 125.32 105.19 124.81 110.60 C 124.23 110.54 123.07 110.41 122.49 110.34 C 122.49 102.72 122.51 95.11 122.50 87.49 Z" />
<path fill="#e51111" opacity="1.00" d=" M 139.19 87.51 C 141.99 87.49 144.79 87.49 147.60 87.50 C 147.54 90.17 147.69 92.94 146.58 95.45 C 145.25 98.79 145.84 102.45 145.57 105.96 C 143.03 102.98 141.61 99.34 140.53 95.63 C 139.12 93.14 139.16 90.28 139.19 87.51 Z" />
<path fill="#e51111" opacity="1.00" d=" M 150.13 87.48 C 152.12 87.49 154.11 87.49 156.10 87.48 C 157.19 91.57 157.62 95.79 158.27 99.97 C 157.64 101.87 156.89 103.72 156.18 105.59 C 155.17 107.69 155.01 110.04 154.63 112.30 C 153.96 110.11 153.22 107.94 152.64 105.72 C 152.24 102.44 152.79 99.11 152.27 95.84 C 151.46 95.18 150.62 94.56 149.78 93.96 C 149.87 91.80 149.98 89.64 150.13 87.48 Z" />
<path fill="#e51111" opacity="1.00" d=" M 174.27 86.56 C 175.52 87.22 176.78 87.89 178.01 88.59 C 179.47 88.10 180.93 87.61 182.40 87.14 C 182.40 93.92 182.22 100.70 182.47 107.48 C 181.55 107.49 179.71 107.53 178.79 107.55 C 178.86 103.39 178.26 99.26 177.02 95.30 C 174.65 94.37 175.24 97.99 174.00 99.16 C 173.25 100.43 172.44 101.67 171.64 102.91 C 171.25 100.58 170.87 98.24 170.64 95.88 C 171.01 92.50 172.62 89.47 174.27 86.56 Z" />
<path fill="#e51111" opacity="1.00" d=" M 158.70 87.50 C 161.64 87.48 164.57 87.49 167.51 87.54 C 167.25 89.80 168.01 92.41 166.53 94.36 C 164.43 96.90 165.13 100.38 164.68 103.42 C 163.59 100.80 162.39 98.21 161.07 95.70 C 160.48 95.31 159.30 94.52 158.71 94.12 C 158.71 91.92 158.70 89.71 158.70 87.50 Z" />
<path fill="#e51111" opacity="1.00" d=" M 184.46 104.60 C 190.58 99.52 199.46 95.16 207.29 99.01 C 201.78 101.32 196.24 103.77 191.38 107.31 C 187.83 109.85 185.59 113.67 182.72 116.87 C 182.52 112.78 182.26 108.18 184.46 104.60 Z" />
<path fill="#e51111" opacity="1.00" d=" M 41.15 129.13 C 47.87 120.36 55.09 111.79 64.09 105.26 C 68.20 110.56 72.30 115.87 76.26 121.30 C 63.54 121.27 53.51 130.67 46.10 140.04 C 36.25 152.86 26.34 165.86 19.65 180.69 C 14.36 190.88 10.86 201.85 6.22 212.32 C 10.62 192.41 16.41 172.68 25.34 154.30 C 29.70 145.37 35.26 137.11 41.15 129.13 Z" />
<path fill="#e51111" opacity="1.00" d=" M 183.97 132.10 C 186.94 124.40 193.21 116.34 202.21 116.11 C 198.01 120.57 192.68 124.44 190.62 130.45 C 189.53 133.82 188.33 137.28 188.40 140.86 C 190.92 146.70 194.84 151.82 197.76 157.47 C 193.30 157.55 188.56 157.72 184.51 155.54 C 182.69 154.08 181.64 151.93 180.37 150.04 C 182.33 144.23 183.71 138.23 183.97 132.10 Z" />
<path fill="#e51111" opacity="1.00" d=" M 207.60 119.56 C 210.86 127.76 211.85 136.66 213.48 145.28 C 213.96 152.47 213.77 159.70 213.64 166.90 C 212.26 176.25 207.95 186.89 198.26 190.16 C 192.92 192.51 186.17 190.58 182.85 185.81 C 182.45 178.18 182.16 170.44 183.58 162.89 C 188.29 164.86 193.55 167.59 198.72 165.58 C 203.58 164.45 206.38 159.82 207.58 155.31 C 209.37 150.40 208.56 145.10 208.74 140.00 C 208.58 134.55 209.18 129.00 207.91 123.63 C 207.66 122.29 207.55 120.93 207.60 119.56 Z" />
<path fill="#e51111" opacity="1.00" d=" M 68.27 136.87 C 75.49 135.29 82.90 136.81 89.69 139.45 C 90.17 143.36 89.63 148.40 93.21 151.01 C 97.63 152.75 101.68 149.82 104.94 147.13 C 110.46 151.24 117.89 151.07 124.10 148.75 C 124.58 150.04 125.08 151.33 125.60 152.61 C 129.44 152.73 133.22 152.26 136.95 151.43 C 140.22 152.24 143.56 152.55 146.92 152.78 C 148.27 155.01 149.56 157.37 149.96 159.99 C 151.38 166.32 151.16 172.83 151.15 179.27 C 145.60 173.34 142.18 165.81 138.21 158.80 C 135.45 161.60 132.28 164.02 129.77 167.07 C 131.24 170.45 133.60 173.34 135.48 176.49 C 142.22 186.57 148.26 197.45 157.56 205.46 C 160.60 208.17 164.10 210.29 167.46 212.58 C 157.89 213.46 149.03 208.03 142.49 201.53 C 134.28 192.94 127.05 183.46 120.48 173.58 C 118.60 170.14 114.06 170.74 110.76 170.17 C 115.39 179.39 120.73 188.24 126.04 197.08 C 129.56 203.16 134.77 207.97 140.07 212.48 C 128.44 209.07 118.75 201.04 111.63 191.41 C 104.73 183.01 100.55 172.76 93.48 164.49 C 88.02 157.80 79.82 154.12 71.76 151.61 C 67.46 151.06 62.67 150.57 58.78 152.91 C 47.44 159.20 39.21 169.47 29.72 178.03 C 35.68 169.30 41.64 160.54 48.46 152.46 C 53.82 145.95 59.94 139.36 68.27 136.87 Z" />
<path fill="#e51111" opacity="1.00" d=" M 157.33 152.97 C 157.79 150.93 159.87 151.46 161.35 151.90 C 165.13 153.03 169.18 152.62 172.88 151.39 C 174.76 154.59 177.20 157.40 179.66 160.17 L 178.53 160.15 C 178.04 160.15 177.05 160.14 176.56 160.14 C 174.33 160.15 172.11 160.21 169.88 160.26 C 169.32 160.26 168.20 160.26 167.64 160.27 C 165.55 160.21 163.46 160.09 161.38 159.97 C 160.04 157.63 158.49 155.41 157.33 152.97 Z" />
<path fill="#e51111" opacity="1.00" d=" M 52.79 170.90 C 60.53 167.14 69.33 166.81 77.73 167.75 C 82.26 168.70 86.21 171.32 89.19 174.81 C 96.26 182.45 102.60 190.72 109.15 198.79 C 112.88 203.73 117.21 208.23 120.38 213.58 C 117.84 213.56 115.30 213.26 112.96 212.23 C 104.41 208.75 96.42 203.68 90.02 196.99 C 82.51 189.21 72.99 183.37 62.68 180.17 C 52.46 177.73 42.66 183.00 33.95 187.71 C 39.50 181.40 44.74 174.17 52.79 170.90 Z" />
<path fill="#e51111" opacity="1.00" d=" M 207.36 191.99 C 209.64 188.92 211.55 185.61 213.55 182.36 C 222.62 195.79 231.27 210.12 244.23 220.20 C 241.00 220.34 237.65 220.03 234.82 218.35 C 223.57 212.11 214.49 202.58 207.36 191.99 Z" />
<path fill="#e51111" opacity="1.00" d=" M 166.34 196.43 L 167.38 196.45 C 167.99 196.45 169.21 196.44 169.82 196.43 C 171.34 196.38 172.85 196.35 174.37 196.33 C 179.39 196.29 183.13 200.62 187.54 202.52 C 182.22 203.16 177.07 201.39 172.05 199.89 C 169.85 199.28 167.96 197.98 166.34 196.43 Z" />
</g>
<g id="#740606ff">
<path fill="#740606" opacity="1.00" d=" M 102.75 85.02 C 105.29 87.18 107.74 89.44 110.38 91.48 C 111.52 90.36 112.67 89.25 113.81 88.13 C 112.35 91.81 111.36 95.65 110.25 99.44 C 107.74 96.74 105.10 94.13 101.94 92.17 C 100.31 93.63 98.80 95.22 97.16 96.67 C 98.64 92.62 100.36 88.63 102.75 85.02 Z" />
<path fill="#740606" opacity="1.00" d=" M 140.53 95.63 C 141.61 99.34 143.03 102.98 145.57 105.96 C 145.73 115.22 145.71 124.49 145.70 133.75 C 144.41 133.16 143.13 132.57 141.85 131.99 C 141.65 135.31 141.44 138.63 141.28 141.95 C 141.25 128.62 141.31 115.30 141.39 101.97 C 141.41 99.83 141.33 97.65 140.53 95.63 Z" />
<path fill="#740606" opacity="1.00" d=" M 161.07 95.70 C 162.39 98.21 163.59 100.80 164.68 103.42 C 164.90 118.63 165.57 133.87 164.87 149.08 C 164.65 143.32 164.43 137.55 164.20 131.78 C 163.02 132.24 161.84 132.69 160.66 133.15 C 160.55 136.47 160.40 139.80 160.57 143.12 C 159.14 130.60 156.16 118.24 156.18 105.59 C 156.89 103.72 157.64 101.87 158.27 99.97 C 159.40 107.02 159.96 114.13 160.90 121.20 C 161.57 112.74 161.56 104.18 161.07 95.70 Z" />
<path fill="#740606" opacity="1.00" d=" M 169.87 118.99 C 170.58 111.31 169.64 103.54 170.64 95.88 C 170.87 98.24 171.25 100.58 171.64 102.91 C 172.44 101.67 173.25 100.43 174.00 99.16 C 173.36 105.08 173.76 111.05 173.69 117.00 C 173.86 124.43 173.21 131.94 174.78 139.28 C 173.74 135.84 172.74 132.39 171.62 128.98 C 170.92 132.99 170.32 137.04 170.53 141.12 C 169.22 133.83 170.08 126.36 169.87 118.99 Z" />
<path fill="#740606" opacity="1.00" d=" M 96.99 96.28 C 97.58 99.87 97.24 104.36 101.02 106.33 C 106.58 106.33 113.10 102.60 117.87 107.14 C 120.96 112.00 123.06 118.01 122.37 123.82 C 121.19 127.80 121.06 132.20 118.79 135.77 C 118.71 135.02 118.54 133.50 118.46 132.74 C 118.57 126.89 119.94 120.14 115.88 115.25 C 113.66 112.41 109.66 113.78 106.59 113.56 C 106.36 115.26 106.12 116.96 105.80 118.66 C 105.40 117.27 105.02 115.89 104.66 114.50 C 102.73 114.59 100.75 114.93 98.86 114.44 C 96.94 113.18 95.45 111.37 93.73 109.87 C 93.73 111.90 93.73 113.94 93.68 115.98 C 92.93 114.91 92.21 113.83 91.49 112.75 C 95.23 107.97 95.11 101.80 96.99 96.28 Z" />
<path fill="#740606" opacity="1.00" d=" M 109.06 100.45 C 110.42 100.65 110.66 101.35 109.76 102.55 C 108.39 102.35 108.15 101.65 109.06 100.45 Z" />
<path fill="#740606" opacity="1.00" d=" M 127.50 104.06 C 129.15 104.39 130.79 104.72 132.44 105.06 C 132.39 114.70 132.49 124.34 132.45 133.98 C 130.80 132.88 129.16 131.78 127.51 130.68 C 127.47 121.81 127.57 112.93 127.50 104.06 Z" />
<path fill="#740606" opacity="1.00" d=" M 176.27 119.28 C 178.26 119.61 180.87 118.55 182.44 119.98 C 182.61 123.53 182.47 127.08 182.51 130.64 C 181.29 131.07 180.06 131.50 178.84 131.94 C 178.53 130.14 179.18 127.86 177.54 126.57 C 175.42 124.76 176.54 121.69 176.27 119.28 Z" />
</g>
<g id="#2a0404ff">
<path fill="#2a0404" opacity="1.00" d=" M 152.64 105.72 C 153.22 107.94 153.96 110.11 154.63 112.30 C 155.04 113.49 155.25 114.72 155.28 115.98 C 155.35 124.20 155.23 132.42 155.34 140.64 C 155.26 142.04 156.91 142.64 157.61 143.66 C 157.53 145.71 157.49 147.76 157.44 149.81 C 154.91 149.78 152.37 149.77 149.84 149.71 C 149.95 146.69 148.94 142.83 152.54 141.52 C 152.50 129.59 152.54 117.65 152.64 105.72 Z" />
<path fill="#2a0404" opacity="1.00" d=" M 95.49 127.25 C 90.74 124.09 91.06 117.76 91.49 112.75 C 92.21 113.83 92.93 114.91 93.68 115.98 C 94.84 117.60 95.98 119.70 98.25 119.80 C 103.14 120.18 107.92 118.15 112.83 118.79 C 115.68 120.38 116.61 123.92 116.38 126.98 C 116.75 131.96 112.87 135.65 109.96 139.19 C 111.21 139.77 112.45 140.35 113.70 140.94 C 115.50 138.34 117.12 135.61 118.46 132.74 C 118.54 133.50 118.71 135.02 118.79 135.77 C 118.98 136.90 118.02 137.74 117.54 138.65 C 115.25 141.76 113.12 145.01 110.38 147.76 C 108.62 146.39 106.88 145.01 105.07 143.72 C 101.92 146.47 98.32 150.24 93.71 148.39 C 90.29 145.70 91.19 141.06 91.41 137.28 C 92.11 135.24 94.10 133.91 95.64 132.48 C 97.30 132.15 98.81 133.06 100.29 133.69 C 100.78 132.07 101.27 130.45 101.57 128.79 C 99.66 127.87 97.53 127.70 95.49 127.25 M 102.81 127.66 C 102.45 129.95 101.70 132.15 101.00 134.35 C 103.71 135.50 106.30 136.90 108.96 138.14 C 110.80 135.50 112.37 132.70 113.91 129.88 C 113.05 128.66 112.24 127.39 111.29 126.24 C 108.48 126.85 105.72 127.71 102.81 127.66 M 92.38 145.08 C 93.89 145.72 95.32 146.92 97.07 146.71 C 99.85 146.65 101.74 144.22 104.08 143.02 C 101.35 140.87 98.09 139.69 94.83 138.63 C 93.35 140.51 92.20 142.61 92.38 145.08 Z" />
<path fill="#2a0404" opacity="1.00" d=" M 170.53 141.12 C 170.32 137.04 170.92 132.99 171.62 128.98 C 172.74 132.39 173.74 135.84 174.78 139.28 C 175.06 140.16 175.63 141.94 175.91 142.82 C 178.13 139.65 178.54 135.69 178.84 131.94 C 180.06 131.50 181.29 131.07 182.51 130.64 C 182.72 135.89 181.39 141.04 180.15 146.10 C 179.73 148.61 176.95 151.12 174.40 149.81 C 172.13 147.48 171.28 144.19 170.53 141.12 Z" />
<path fill="#2a0404" opacity="1.00" d=" M 127.51 130.68 C 129.16 131.78 130.80 132.88 132.45 133.98 C 131.55 139.42 134.45 144.35 133.75 149.77 C 130.99 149.78 128.23 149.77 125.47 149.70 C 125.41 146.79 125.43 143.80 127.16 141.32 C 127.97 137.87 127.33 134.21 127.51 130.68 Z" />
<path fill="#2a0404" opacity="1.00" d=" M 141.85 131.99 C 143.13 132.57 144.41 133.16 145.70 133.75 C 145.70 136.70 145.29 139.82 146.79 142.52 C 147.98 144.75 147.41 147.36 147.54 149.78 C 144.78 149.78 142.02 149.77 139.26 149.75 C 139.25 147.53 139.24 145.31 139.19 143.10 C 139.71 142.81 140.76 142.24 141.28 141.95 C 141.44 138.63 141.65 135.31 141.85 131.99 Z" />
<path fill="#2a0404" opacity="1.00" d=" M 160.66 133.15 C 161.84 132.69 163.02 132.24 164.20 131.78 C 164.43 137.55 164.65 143.32 164.87 149.08 L 164.90 149.79 C 163.75 149.80 162.61 149.81 161.47 149.83 C 161.28 147.58 160.95 145.35 160.57 143.12 C 160.40 139.80 160.55 136.47 160.66 133.15 Z" />
<path fill="#2a0404" opacity="1.00" d=" M 149.96 159.99 C 153.21 159.69 156.19 161.59 157.07 164.78 C 158.39 171.49 159.62 178.48 158.17 185.30 C 157.49 188.18 157.77 191.34 156.03 193.89 C 154.69 196.09 151.91 196.40 149.58 196.51 C 151.56 190.95 151.36 185.08 151.15 179.27 C 151.16 172.83 151.38 166.32 149.96 159.99 M 152.87 163.27 C 152.24 170.49 152.73 177.75 152.56 184.99 C 152.70 187.83 151.93 191.04 154.04 193.35 C 155.07 190.69 156.39 187.99 156.25 185.07 C 156.19 179.73 156.42 174.39 156.12 169.06 C 155.51 166.93 155.10 164.33 152.87 163.27 Z" />
<path fill="#2a0404" opacity="1.00" d=" M 160.10 159.90 L 161.38 159.97 C 163.46 160.09 165.55 160.21 167.64 160.27 C 167.53 163.86 167.83 167.53 166.90 171.06 C 166.33 168.65 166.18 166.18 166.01 163.73 C 165.45 163.74 164.31 163.77 163.75 163.79 C 163.53 168.51 163.87 173.21 164.56 177.88 C 163.78 183.13 162.80 188.77 165.00 193.82 C 165.82 191.10 166.35 188.31 167.05 185.57 C 167.76 189.15 167.62 192.83 167.38 196.45 L 166.34 196.43 C 164.10 196.35 161.86 196.29 159.62 196.22 C 160.30 193.19 161.53 190.22 161.27 187.06 C 161.05 177.99 161.94 168.83 160.10 159.90 Z" />
<path fill="#2a0404" opacity="1.00" d=" M 169.88 160.26 C 172.11 160.21 174.33 160.15 176.56 160.14 C 176.48 163.69 176.93 167.35 175.90 170.80 C 175.37 168.50 175.34 166.14 175.25 163.79 C 174.58 163.78 173.25 163.76 172.59 163.75 C 172.54 168.48 172.17 173.28 173.67 177.84 C 171.65 183.83 172.23 190.45 174.37 196.33 C 172.85 196.35 171.34 196.38 169.82 196.43 C 170.48 192.66 171.48 188.92 171.27 185.05 C 171.03 176.77 172.01 168.37 169.88 160.26 Z" />
<path fill="#2a0404" opacity="1.00" d=" M 178.53 160.15 L 179.66 160.17 C 181.06 160.20 182.46 160.27 183.86 160.38 C 181.22 169.45 182.83 179.01 182.37 188.30 C 182.05 191.06 183.29 193.59 183.90 196.21 C 182.04 196.26 180.19 196.31 178.34 196.36 C 178.89 193.92 179.97 191.55 179.89 189.00 C 179.86 181.67 179.89 174.34 179.87 167.01 C 179.89 164.65 178.95 162.44 178.53 160.15 Z" />
</g>
</svg>
