<?xml version="1.0" encoding="UTF-8" ?>
<!DOCTYPE svg PUBLIC "-//W3C//DTD SVG 1.1//EN" "http://www.w3.org/Graphics/SVG/1.1/DTD/svg11.dtd">
<svg width="250pt" height="250pt" viewBox="0 0 250 250" version="1.1" xmlns="http://www.w3.org/2000/svg">
<g id="#272a2eff">
<path fill="#272a2e" opacity="1.00" d=" M 0.00 0.00 L 250.00 0.00 L 250.00 250.00 L 0.00 250.00 L 0.00 0.00 M 134.05 31.11 C 104.17 45.13 74.16 58.89 44.29 72.96 C 42.99 76.88 45.05 80.98 43.82 84.97 C 43.81 111.31 43.37 137.65 43.18 163.99 C 42.69 167.00 42.81 170.05 42.70 173.09 C 43.55 174.68 45.37 175.24 46.73 176.27 C 54.24 180.92 61.47 186.24 69.16 190.49 C 75.20 186.62 82.19 184.43 88.52 181.05 C 88.61 188.69 88.12 196.37 88.49 203.99 C 96.98 209.40 105.43 214.88 113.85 220.41 L 114.85 220.37 L 114.79 219.58 L 115.83 219.61 C 121.03 216.66 126.65 214.54 132.02 211.94 C 156.55 200.70 181.11 189.49 205.62 178.22 L 206.26 177.59 L 206.62 177.84 C 206.84 156.54 206.72 135.24 206.84 113.94 C 207.33 101.90 207.38 89.74 207.06 77.71 C 206.91 77.40 206.62 76.78 206.47 76.47 C 199.10 71.57 191.72 66.68 184.41 61.70 C 183.34 61.23 182.37 59.71 181.07 60.35 C 174.59 63.31 168.15 66.38 161.69 69.37 C 161.65 61.97 161.60 54.56 161.76 47.16 L 161.75 47.17 C 153.96 41.32 145.54 36.28 137.55 30.67 C 136.52 29.63 135.09 30.65 134.05 31.11 Z" />
<path fill="#272a2e" opacity="1.00" d=" M 69.62 90.11 C 91.56 79.77 113.74 69.94 135.72 59.67 C 136.21 62.10 136.33 64.57 135.86 67.02 C 135.73 71.79 135.72 76.57 135.80 81.35 C 120.40 88.65 104.89 95.71 89.47 102.98 C 89.12 119.34 89.61 135.75 88.78 152.09 C 82.28 154.98 75.88 158.09 69.42 161.06 C 69.33 137.41 69.49 113.76 69.62 90.11 Z" />
<path fill="#272a2e" opacity="1.00" d=" M 161.53 98.69 C 168.07 95.52 174.75 92.60 181.35 89.55 C 181.38 98.35 181.17 107.16 181.18 115.96 C 180.34 130.80 180.99 145.70 180.34 160.55 C 158.41 170.63 136.59 180.93 114.67 191.02 C 114.60 183.86 114.62 176.70 114.67 169.55 C 114.92 169.34 115.42 168.92 115.67 168.72 C 130.78 161.67 146.11 155.02 161.10 147.74 C 161.80 146.72 161.25 145.25 161.45 144.08 C 161.48 128.95 161.58 113.82 161.53 98.69 Z" />
<path fill="#272a2e" opacity="1.00" d=" M 114.80 120.12 C 121.60 116.82 128.51 113.75 135.38 110.60 C 135.34 117.22 135.42 123.86 135.13 130.47 C 129.01 133.42 122.77 136.12 116.68 139.11 C 116.18 139.21 115.19 139.41 114.69 139.51 C 114.81 133.04 114.69 126.58 114.80 120.12 Z" />
</g>
<g id="#ef8b95ff">
<path fill="#ef8b95" opacity="1.00" d=" M 134.05 31.11 C 135.09 30.65 136.52 29.63 137.55 30.67 C 145.54 36.28 153.96 41.32 161.75 47.17 C 159.61 49.11 156.82 50.03 154.26 51.26 C 148.04 53.98 141.96 56.99 135.72 59.67 C 113.74 69.94 91.56 79.77 69.62 90.11 C 61.26 84.29 52.18 79.42 44.29 72.96 C 74.16 58.89 104.17 45.13 134.05 31.11 Z" />
<path fill="#ef8b95" opacity="1.00" d=" M 161.69 69.37 C 168.15 66.38 174.59 63.31 181.07 60.35 C 182.37 59.71 183.34 61.23 184.41 61.70 C 191.72 66.68 199.10 71.57 206.47 76.47 C 206.62 76.78 206.91 77.40 207.06 77.71 C 198.55 81.78 189.92 85.60 181.35 89.55 C 174.75 92.60 168.07 95.52 161.53 98.69 C 152.76 102.56 144.07 106.57 135.38 110.60 C 128.51 113.75 121.60 116.82 114.80 120.12 C 106.43 114.30 97.56 109.20 89.47 102.98 C 104.89 95.71 120.40 88.65 135.80 81.35 C 144.46 77.42 153.06 73.37 161.69 69.37 Z" />
<path fill="#ef8b95" opacity="1.00" d=" M 116.68 139.11 C 122.77 136.12 129.01 133.42 135.13 130.47 C 143.62 136.47 152.73 141.58 161.10 147.74 C 146.11 155.02 130.78 161.67 115.67 168.72 C 115.44 168.29 114.99 167.45 114.76 167.03 C 114.59 158.69 114.76 150.35 114.78 142.01 C 114.48 140.63 115.76 139.82 116.68 139.11 Z" />
<path fill="#ef8b95" opacity="1.00" d=" M 69.42 161.06 C 75.88 158.09 82.28 154.98 88.78 152.09 C 88.80 161.74 88.71 171.40 88.52 181.05 C 82.19 184.43 75.20 186.62 69.16 190.49 C 69.54 180.68 69.16 170.87 69.42 161.06 Z" />
<path fill="#ef8b95" opacity="1.00" d=" M 114.67 191.02 C 136.59 180.93 158.41 170.63 180.34 160.55 C 188.95 166.27 197.86 171.55 206.26 177.59 L 205.62 178.22 C 181.11 189.49 156.55 200.70 132.02 211.94 C 126.65 214.54 121.03 216.66 115.83 219.61 L 114.79 219.58 C 114.37 210.07 114.74 200.54 114.67 191.02 Z" />
</g>
<g id="#ea4e65ff">
<path fill="#ea4e65" opacity="1.00" d=" M 161.75 47.17 L 161.76 47.16 C 161.60 54.56 161.65 61.97 161.69 69.37 C 153.06 73.37 144.46 77.42 135.80 81.35 C 135.72 76.57 135.73 71.79 135.86 67.02 C 136.33 64.57 136.21 62.10 135.72 59.67 C 141.96 56.99 148.04 53.98 154.26 51.26 C 156.82 50.03 159.61 49.11 161.75 47.17 Z" />
<path fill="#ea4e65" opacity="1.00" d=" M 43.82 84.97 C 45.05 80.98 42.99 76.88 44.29 72.96 C 52.18 79.42 61.26 84.29 69.62 90.11 C 69.49 113.76 69.33 137.41 69.42 161.06 C 69.16 170.87 69.54 180.68 69.16 190.49 C 61.47 186.24 54.24 180.92 46.73 176.27 C 45.37 175.24 43.55 174.68 42.70 173.09 C 42.81 170.05 42.69 167.00 43.18 163.99 C 43.37 137.65 43.81 111.31 43.82 84.97 Z" />
<path fill="#ea4e65" opacity="1.00" d=" M 181.35 89.55 C 189.92 85.60 198.55 81.78 207.06 77.71 C 207.38 89.74 207.33 101.90 206.84 113.94 C 206.72 135.24 206.84 156.54 206.62 177.84 L 206.26 177.59 C 197.86 171.55 188.95 166.27 180.34 160.55 C 180.99 145.70 180.34 130.80 181.18 115.96 C 181.17 107.16 181.38 98.35 181.35 89.55 Z" />
<path fill="#ea4e65" opacity="1.00" d=" M 135.38 110.60 C 144.07 106.57 152.76 102.56 161.53 98.69 C 161.58 113.82 161.48 128.95 161.45 144.08 C 161.25 145.25 161.80 146.72 161.10 147.74 C 152.73 141.58 143.62 136.47 135.13 130.47 C 135.42 123.86 135.34 117.22 135.38 110.60 Z" />
<path fill="#ea4e65" opacity="1.00" d=" M 88.78 152.09 C 89.61 135.75 89.12 119.34 89.47 102.98 C 97.56 109.20 106.43 114.30 114.80 120.12 C 114.69 126.58 114.81 133.04 114.69 139.51 C 115.19 139.41 116.18 139.21 116.68 139.11 C 115.76 139.82 114.48 140.63 114.78 142.01 C 114.76 150.35 114.59 158.69 114.76 167.03 C 114.99 167.45 115.44 168.29 115.67 168.72 C 115.42 168.92 114.92 169.34 114.67 169.55 C 114.62 176.70 114.60 183.86 114.67 191.02 C 114.74 200.54 114.37 210.07 114.79 219.58 L 114.85 220.37 L 113.85 220.41 C 105.43 214.88 96.98 209.40 88.49 203.99 C 88.12 196.37 88.61 188.69 88.52 181.05 C 88.71 171.40 88.80 161.74 88.78 152.09 Z" />
</g>
</svg>
