<?xml version="1.0" encoding="UTF-8" ?>
<!DOCTYPE svg PUBLIC "-//W3C//DTD SVG 1.1//EN" "http://www.w3.org/Graphics/SVG/1.1/DTD/svg11.dtd">
<svg width="245pt" height="250pt" viewBox="0 0 245 250" version="1.1" xmlns="http://www.w3.org/2000/svg">
<g id="#fefdfdff">
<path fill="#fefdfd" opacity="1.00" d=" M 0.00 0.00 L 245.00 0.00 L 245.00 250.00 L 0.00 250.00 L 0.00 0.00 M 104.22 16.65 C 82.67 19.59 61.79 28.14 44.95 42.00 C 23.52 59.17 8.67 84.54 4.70 111.75 C 0.67 136.59 6.03 162.69 18.88 184.29 C 30.45 203.62 47.85 219.40 68.20 229.07 C 100.03 244.38 138.78 244.39 170.52 228.84 C 194.19 217.60 213.76 197.96 224.78 174.16 C 234.74 152.72 237.33 128.06 232.39 104.97 C 227.02 79.74 212.26 56.85 192.04 40.94 C 175.15 27.50 154.40 19.15 133.01 16.57 C 123.43 16.16 113.81 16.15 104.22 16.65 Z" />
<path fill="#fefdfd" opacity="1.00" d=" M 86.16 53.35 C 95.85 48.75 106.39 46.21 116.97 44.72 C 128.51 44.19 140.02 47.47 150.24 52.68 C 150.28 53.05 150.36 53.79 150.40 54.16 C 145.33 54.31 140.55 56.08 135.66 57.21 C 115.09 62.35 94.57 67.72 73.94 72.64 C 69.84 73.72 65.25 74.05 61.77 76.66 C 61.19 78.16 60.83 79.74 60.26 81.26 C 58.25 83.21 55.58 84.42 52.84 84.95 C 60.37 71.37 71.94 59.82 86.16 53.35 Z" />
<path fill="#fefdfd" opacity="1.00" d=" M 167.65 54.78 C 169.39 54.23 171.12 53.64 172.89 53.16 C 172.40 56.20 171.03 58.99 169.44 61.60 C 168.38 61.57 166.24 61.50 165.17 61.47 C 166.02 59.25 166.87 57.03 167.65 54.78 Z" />
<path fill="#fefdfd" opacity="1.00" d=" M 144.57 60.74 C 147.20 59.78 149.87 58.96 152.56 58.19 C 152.60 63.38 151.26 68.42 150.35 73.49 C 148.05 73.57 145.75 73.66 143.45 73.72 C 143.93 69.40 144.60 65.10 144.57 60.74 Z" />
<path fill="#fefdfd" opacity="1.00" d=" M 107.87 69.79 C 114.35 67.89 120.91 65.94 127.64 65.14 C 126.85 70.04 126.38 74.99 125.33 79.84 C 121.16 83.89 116.43 87.58 113.61 92.79 C 111.48 96.18 110.46 100.53 106.80 102.70 C 104.02 104.61 100.80 108.11 97.27 105.57 C 100.08 96.04 102.66 86.45 105.36 76.90 C 106.10 74.50 106.28 71.83 107.87 69.79 Z" />
<path fill="#fefdfd" opacity="1.00" d=" M 157.81 70.64 C 163.36 66.46 170.56 67.36 177.07 67.42 C 180.38 67.44 182.51 70.34 184.71 72.40 C 183.14 72.47 181.58 72.54 180.02 72.61 C 182.18 74.25 184.37 75.85 186.59 77.42 C 186.99 82.47 185.95 87.39 185.19 92.34 C 188.22 93.74 191.58 94.67 194.14 96.92 C 195.75 100.79 194.04 104.95 192.83 108.68 C 190.01 118.50 188.05 129.02 190.19 139.15 C 192.53 149.08 201.37 155.62 204.28 165.25 C 204.88 169.32 204.89 173.54 204.24 177.61 C 201.66 187.02 194.44 194.25 186.53 199.53 C 172.17 209.23 154.89 213.52 137.85 215.34 C 128.62 215.71 119.37 215.70 110.14 215.38 C 91.66 213.64 73.02 208.30 58.01 197.02 C 45.01 187.49 35.66 172.82 33.49 156.76 C 32.13 138.67 37.22 120.86 43.72 104.16 C 44.63 102.05 45.27 99.53 47.44 98.34 C 52.02 95.49 56.95 93.24 61.58 90.45 C 63.10 89.65 64.55 88.54 66.29 88.26 C 68.09 87.84 69.31 89.52 70.66 90.39 C 80.47 97.77 89.87 105.70 100.00 112.66 C 103.76 110.08 108.23 108.06 110.83 104.18 C 117.97 89.81 133.19 79.17 149.48 79.24 C 152.91 77.05 154.13 72.60 157.81 70.64 M 159.34 75.37 C 159.33 76.72 159.36 78.08 159.40 79.44 C 160.31 79.50 161.22 79.57 162.13 79.63 C 162.24 77.33 162.79 75.10 163.55 72.93 C 162.14 73.73 160.73 74.54 159.34 75.37 M 177.74 76.66 C 177.62 78.27 177.53 79.88 177.45 81.49 C 178.05 81.51 179.24 81.54 179.83 81.56 C 180.84 79.97 181.69 78.28 181.84 76.38 C 180.47 76.45 179.10 76.54 177.74 76.66 M 169.14 77.43 C 169.97 79.16 170.83 80.88 171.63 82.62 C 172.66 82.64 173.69 82.66 174.73 82.67 C 174.43 81.26 174.66 79.58 173.50 78.52 C 172.42 77.23 170.61 77.68 169.14 77.43 M 153.90 84.24 C 157.43 92.82 167.30 96.60 176.04 95.80 C 174.03 97.31 171.75 98.38 169.64 99.74 C 164.61 103.22 161.50 108.83 156.41 112.23 C 151.86 114.03 146.50 115.29 143.78 119.79 C 138.61 126.98 140.55 136.56 143.60 144.19 C 148.18 155.10 157.95 162.55 167.95 168.24 C 171.52 169.57 170.89 175.15 175.01 175.54 C 180.17 175.91 185.84 176.49 190.44 173.60 C 194.17 171.37 198.94 167.98 197.54 162.95 C 195.18 159.95 190.16 160.47 188.52 156.76 C 186.27 152.12 183.19 147.43 183.48 142.07 C 183.02 130.63 187.05 119.72 189.25 108.64 C 189.95 104.93 188.57 100.78 185.43 98.58 C 182.80 96.62 179.51 96.39 176.37 96.15 C 178.35 94.82 180.47 93.70 182.52 92.47 C 182.52 91.62 182.53 90.77 182.54 89.92 C 178.52 90.99 174.49 92.87 170.25 92.33 C 165.55 91.11 160.92 89.09 157.52 85.53 C 156.66 84.35 155.19 84.44 153.90 84.24 M 141.66 86.02 C 141.63 86.76 141.57 88.25 141.54 88.99 C 142.71 88.75 143.89 88.49 145.06 88.21 C 144.16 87.13 142.97 86.46 141.66 86.02 M 136.13 93.44 C 136.84 93.42 138.27 93.37 138.98 93.35 C 138.71 91.91 138.16 90.61 136.70 90.05 C 136.50 91.18 136.31 92.31 136.13 93.44 M 147.30 91.24 C 147.28 91.91 147.23 93.24 147.21 93.91 C 147.79 93.85 148.96 93.74 149.54 93.69 C 149.52 93.13 149.47 92.00 149.45 91.44 C 148.91 91.39 147.84 91.29 147.30 91.24 M 120.60 101.47 C 115.14 105.30 109.51 109.04 104.96 113.97 C 102.98 116.27 101.34 119.09 101.31 122.20 C 105.25 119.18 108.23 115.09 112.36 112.29 C 117.30 108.51 123.14 106.03 127.80 101.87 C 129.14 100.76 129.46 98.96 129.69 97.34 C 126.11 97.14 123.41 99.66 120.60 101.47 M 132.27 102.17 C 120.09 111.70 109.21 123.13 101.58 136.66 C 99.37 140.95 95.53 145.09 96.52 150.26 C 99.07 148.02 100.40 144.84 102.17 142.02 C 110.75 127.76 122.96 116.12 135.79 105.70 C 138.25 103.56 141.61 101.69 142.04 98.11 C 138.32 97.98 135.13 100.05 132.27 102.17 M 145.58 103.53 C 140.11 108.78 134.24 113.74 129.79 119.94 C 126.56 124.72 123.30 130.21 124.35 136.25 C 128.23 131.10 131.05 125.20 135.35 120.35 C 140.23 113.61 147.79 109.47 152.75 102.82 C 153.92 101.54 153.48 99.72 153.62 98.16 C 150.27 98.70 147.97 101.37 145.58 103.53 M 129.08 168.47 C 135.61 178.33 144.95 186.27 155.31 191.90 C 162.28 195.36 170.06 198.16 177.96 197.22 C 183.37 196.37 189.55 192.23 188.76 186.09 C 186.92 187.66 185.60 190.61 182.86 190.56 C 179.04 190.66 175.02 190.95 171.43 189.37 C 163.46 186.59 156.94 181.06 150.41 175.91 C 153.47 183.27 159.95 188.57 166.96 192.02 C 163.00 190.62 158.90 189.59 155.17 187.63 C 145.31 183.00 137.18 175.60 129.08 168.47 M 163.75 170.23 C 162.36 177.48 169.93 182.29 176.18 183.28 C 183.22 183.97 190.61 182.32 196.58 178.49 C 196.54 177.34 196.49 176.19 196.44 175.04 C 193.35 175.90 191.09 178.42 188.02 179.34 C 182.42 181.55 176.31 179.80 170.76 178.32 C 167.05 177.10 165.84 173.12 163.75 170.23 Z" />
<path fill="#fefdfd" opacity="1.00" d=" M 65.41 80.68 C 72.85 78.42 80.38 75.96 88.15 75.17 C 85.40 80.69 82.49 86.14 79.12 91.30 C 74.53 87.80 69.82 84.42 65.41 80.68 Z" />
<path fill="#fefdfd" opacity="1.00" d=" M 167.08 123.34 C 168.22 123.40 169.35 123.46 170.49 123.51 C 170.92 127.81 170.30 132.05 169.51 136.25 C 168.59 140.57 172.41 143.41 174.33 146.75 C 174.91 150.05 174.90 153.55 173.81 156.75 C 170.84 156.94 168.35 155.30 165.84 153.97 C 164.82 155.53 164.96 159.45 162.22 158.53 C 151.42 154.13 144.25 142.41 145.42 130.77 C 151.01 127.78 157.67 129.63 163.24 131.77 C 164.28 128.86 165.47 125.99 167.08 123.34 Z" />
</g>
<g id="#090404ff">
<path fill="#090404" opacity="1.00" d=" M 104.22 16.65 C 113.81 16.15 123.43 16.16 133.01 16.57 C 154.40 19.15 175.15 27.50 192.04 40.94 C 212.26 56.85 227.02 79.74 232.39 104.97 C 237.33 128.06 234.74 152.72 224.78 174.16 C 213.76 197.96 194.19 217.60 170.52 228.84 C 138.78 244.39 100.03 244.38 68.20 229.07 C 47.85 219.40 30.45 203.62 18.88 184.29 C 6.03 162.69 0.67 136.59 4.70 111.75 C 8.67 84.54 23.52 59.17 44.95 42.00 C 61.79 28.14 82.67 19.59 104.22 16.65 M 86.16 53.35 C 71.94 59.82 60.37 71.37 52.84 84.95 C 55.58 84.42 58.25 83.21 60.26 81.26 C 60.83 79.74 61.19 78.16 61.77 76.66 C 65.25 74.05 69.84 73.72 73.94 72.64 C 94.57 67.72 115.09 62.35 135.66 57.21 C 140.55 56.08 145.33 54.31 150.40 54.16 C 150.36 53.79 150.28 53.05 150.24 52.68 C 140.02 47.47 128.51 44.19 116.97 44.72 C 106.39 46.21 95.85 48.75 86.16 53.35 M 167.65 54.78 C 166.87 57.03 166.02 59.25 165.17 61.47 C 166.24 61.50 168.38 61.57 169.44 61.60 C 171.03 58.99 172.40 56.20 172.89 53.16 C 171.12 53.64 169.39 54.23 167.65 54.78 M 144.57 60.74 C 144.60 65.10 143.93 69.40 143.45 73.72 C 145.75 73.66 148.05 73.57 150.35 73.49 C 151.26 68.42 152.60 63.38 152.56 58.19 C 149.87 58.96 147.20 59.78 144.57 60.74 M 107.87 69.79 C 106.28 71.83 106.10 74.50 105.36 76.90 C 102.66 86.45 100.08 96.04 97.27 105.57 C 100.80 108.11 104.02 104.61 106.80 102.70 C 110.46 100.53 111.48 96.18 113.61 92.79 C 116.43 87.58 121.16 83.89 125.33 79.84 C 126.38 74.99 126.85 70.04 127.64 65.14 C 120.91 65.94 114.35 67.89 107.87 69.79 M 157.81 70.64 C 154.13 72.60 152.91 77.05 149.48 79.24 C 133.19 79.17 117.97 89.81 110.83 104.18 C 108.23 108.06 103.76 110.08 100.00 112.66 C 89.87 105.70 80.47 97.77 70.66 90.39 C 69.31 89.52 68.09 87.84 66.29 88.26 C 64.55 88.54 63.10 89.65 61.58 90.45 C 56.95 93.24 52.02 95.49 47.44 98.34 C 45.27 99.53 44.63 102.05 43.72 104.16 C 37.22 120.86 32.13 138.67 33.49 156.76 C 35.66 172.82 45.01 187.49 58.01 197.02 C 73.02 208.30 91.66 213.64 110.14 215.38 C 119.37 215.70 128.62 215.71 137.85 215.34 C 154.89 213.52 172.17 209.23 186.53 199.53 C 194.44 194.25 201.66 187.02 204.24 177.61 C 204.89 173.54 204.88 169.32 204.28 165.25 C 201.37 155.62 192.53 149.08 190.19 139.15 C 188.05 129.02 190.01 118.50 192.83 108.68 C 194.04 104.95 195.75 100.79 194.14 96.92 C 191.58 94.67 188.22 93.74 185.19 92.34 C 185.95 87.39 186.99 82.47 186.59 77.42 C 184.37 75.85 182.18 74.25 180.02 72.61 C 181.58 72.54 183.14 72.47 184.71 72.40 C 182.51 70.34 180.38 67.44 177.07 67.42 C 170.56 67.36 163.36 66.46 157.81 70.64 M 65.41 80.68 C 69.82 84.42 74.53 87.80 79.12 91.30 C 82.49 86.14 85.40 80.69 88.15 75.17 C 80.38 75.96 72.85 78.42 65.41 80.68 Z" />
<path fill="#090404" opacity="1.00" d=" M 159.34 75.37 C 160.73 74.54 162.14 73.73 163.55 72.93 C 162.79 75.10 162.24 77.33 162.13 79.63 C 161.22 79.57 160.31 79.50 159.40 79.44 C 159.36 78.08 159.33 76.72 159.34 75.37 Z" />
<path fill="#090404" opacity="1.00" d=" M 177.74 76.66 C 179.10 76.54 180.47 76.45 181.84 76.38 C 181.69 78.28 180.84 79.97 179.83 81.56 C 179.24 81.54 178.05 81.51 177.45 81.49 C 177.53 79.88 177.62 78.27 177.74 76.66 Z" />
<path fill="#090404" opacity="1.00" d=" M 169.14 77.43 C 170.61 77.68 172.42 77.23 173.50 78.52 C 174.66 79.58 174.43 81.26 174.73 82.67 C 173.69 82.66 172.66 82.64 171.63 82.62 C 170.83 80.88 169.97 79.16 169.14 77.43 Z" />
<path fill="#090404" opacity="1.00" d=" M 153.90 84.24 C 155.19 84.44 156.66 84.35 157.52 85.53 C 160.92 89.09 165.55 91.11 170.25 92.33 C 174.49 92.87 178.52 90.99 182.54 89.92 C 182.53 90.77 182.52 91.62 182.52 92.47 C 180.47 93.70 178.35 94.82 176.37 96.15 C 179.51 96.39 182.80 96.62 185.43 98.58 C 188.57 100.78 189.95 104.93 189.25 108.64 C 187.05 119.72 183.02 130.63 183.48 142.07 C 183.19 147.43 186.27 152.12 188.52 156.76 C 190.16 160.47 195.18 159.95 197.54 162.95 C 198.94 167.98 194.17 171.37 190.44 173.60 C 185.84 176.49 180.17 175.91 175.01 175.54 C 170.89 175.15 171.52 169.57 167.95 168.24 C 157.95 162.55 148.18 155.10 143.60 144.19 C 140.55 136.56 138.61 126.98 143.78 119.79 C 146.50 115.29 151.86 114.03 156.41 112.23 C 161.50 108.83 164.61 103.22 169.64 99.74 C 171.75 98.38 174.03 97.31 176.04 95.80 C 167.30 96.60 157.43 92.82 153.90 84.24 M 167.08 123.34 C 165.47 125.99 164.28 128.86 163.24 131.77 C 157.67 129.63 151.01 127.78 145.42 130.77 C 144.25 142.41 151.42 154.13 162.22 158.53 C 164.96 159.45 164.82 155.53 165.84 153.97 C 168.35 155.30 170.84 156.94 173.81 156.75 C 174.90 153.55 174.91 150.05 174.33 146.75 C 172.41 143.41 168.59 140.57 169.51 136.25 C 170.30 132.05 170.92 127.81 170.49 123.51 C 169.35 123.46 168.22 123.40 167.08 123.34 Z" />
<path fill="#090404" opacity="1.00" d=" M 141.66 86.02 C 142.97 86.46 144.16 87.13 145.06 88.21 C 143.89 88.49 142.71 88.75 141.54 88.99 C 141.57 88.25 141.63 86.76 141.66 86.02 Z" />
<path fill="#090404" opacity="1.00" d=" M 136.13 93.44 C 136.31 92.31 136.50 91.18 136.70 90.05 C 138.16 90.61 138.71 91.91 138.98 93.35 C 138.27 93.37 136.84 93.42 136.13 93.44 Z" />
<path fill="#090404" opacity="1.00" d=" M 147.30 91.24 C 147.84 91.29 148.91 91.39 149.45 91.44 C 149.47 92.00 149.52 93.13 149.54 93.69 C 148.96 93.74 147.79 93.85 147.21 93.91 C 147.23 93.24 147.28 91.91 147.30 91.24 Z" />
<path fill="#090404" opacity="1.00" d=" M 120.60 101.47 C 123.41 99.66 126.11 97.14 129.69 97.34 C 129.46 98.96 129.14 100.76 127.80 101.87 C 123.14 106.03 117.30 108.51 112.36 112.29 C 108.23 115.09 105.25 119.18 101.31 122.20 C 101.34 119.09 102.98 116.27 104.96 113.97 C 109.51 109.04 115.14 105.30 120.60 101.47 Z" />
<path fill="#090404" opacity="1.00" d=" M 132.27 102.17 C 135.13 100.05 138.32 97.98 142.04 98.11 C 141.61 101.69 138.25 103.56 135.79 105.70 C 122.96 116.12 110.75 127.76 102.17 142.02 C 100.40 144.84 99.07 148.02 96.52 150.26 C 95.53 145.09 99.37 140.95 101.58 136.66 C 109.21 123.13 120.09 111.70 132.27 102.17 Z" />
<path fill="#090404" opacity="1.00" d=" M 145.58 103.53 C 147.97 101.37 150.27 98.70 153.62 98.16 C 153.48 99.72 153.92 101.54 152.75 102.82 C 147.79 109.47 140.23 113.61 135.35 120.35 C 131.05 125.20 128.23 131.10 124.35 136.25 C 123.30 130.21 126.56 124.72 129.79 119.94 C 134.24 113.74 140.11 108.78 145.58 103.53 Z" />
<path fill="#090404" opacity="1.00" d=" M 129.08 168.47 C 137.18 175.60 145.31 183.00 155.17 187.63 C 158.90 189.59 163.00 190.62 166.96 192.02 C 159.95 188.57 153.47 183.27 150.41 175.91 C 156.94 181.06 163.46 186.59 171.43 189.37 C 175.02 190.95 179.04 190.66 182.86 190.56 C 185.60 190.61 186.92 187.66 188.76 186.09 C 189.55 192.23 183.37 196.37 177.96 197.22 C 170.06 198.16 162.28 195.36 155.31 191.90 C 144.95 186.27 135.61 178.33 129.08 168.47 Z" />
<path fill="#090404" opacity="1.00" d=" M 163.75 170.23 C 165.84 173.12 167.05 177.10 170.76 178.32 C 176.31 179.80 182.42 181.55 188.02 179.34 C 191.09 178.42 193.35 175.90 196.44 175.04 C 196.49 176.19 196.54 177.34 196.58 178.49 C 190.61 182.32 183.22 183.97 176.18 183.28 C 169.93 182.29 162.36 177.48 163.75 170.23 Z" />
</g>
</svg>
