<?xml version="1.0" encoding="UTF-8" ?>
<!DOCTYPE svg PUBLIC "-//W3C//DTD SVG 1.1//EN" "http://www.w3.org/Graphics/SVG/1.1/DTD/svg11.dtd">
<svg width="250pt" height="250pt" viewBox="0 0 250 250" version="1.1" xmlns="http://www.w3.org/2000/svg">
<g id="#ffffffff">
<path fill="#ffffff" opacity="1.00" d=" M 0.00 0.00 L 250.00 0.00 L 250.00 117.63 C 248.04 93.88 239.92 70.54 225.73 51.32 C 211.01 30.95 189.77 15.47 166.07 7.22 C 150.59 2.31 134.29 -0.46 118.02 0.45 C 91.61 2.32 65.63 12.17 45.33 29.32 C 24.15 46.63 9.31 71.31 3.34 97.96 C 1.53 105.06 0.96 112.37 0.00 119.62 L 0.00 0.00 Z" />
<path fill="#ffffff" opacity="1.00" d=" M 203.25 222.35 C 231.23 200.45 248.24 165.76 250.00 130.42 L 250.00 250.00 L 121.87 250.00 C 137.13 250.04 152.36 247.58 166.78 242.57 C 179.95 237.91 192.15 230.79 203.25 222.35 Z" />
<path fill="#ffffff" opacity="1.00" d=" M 0.00 131.35 C 1.11 138.81 1.65 146.38 3.62 153.69 C 7.80 171.49 16.05 188.28 27.40 202.60 C 39.18 217.74 54.88 229.50 72.07 237.85 C 87.46 244.96 104.25 248.91 121.15 250.00 L 0.00 250.00 L 0.00 131.35 Z" />
</g>
<g id="#fc6f06ff">
<path fill="#fc6f06" opacity="1.00" d=" M 45.33 29.32 C 65.63 12.17 91.61 2.32 118.02 0.45 C 134.29 -0.46 150.59 2.31 166.07 7.22 C 189.77 15.47 211.01 30.95 225.73 51.32 C 239.92 70.54 248.04 93.88 250.00 117.63 L 250.00 130.42 C 248.24 165.76 231.23 200.45 203.25 222.35 C 192.15 230.79 179.95 237.91 166.78 242.57 C 152.36 247.58 137.13 250.04 121.87 250.00 L 121.15 250.00 C 104.25 248.91 87.46 244.96 72.07 237.85 C 54.88 229.50 39.18 217.74 27.40 202.60 C 16.05 188.28 7.80 171.49 3.62 153.69 C 1.65 146.38 1.11 138.81 0.00 131.35 L 0.00 119.62 C 0.96 112.37 1.53 105.06 3.34 97.96 C 9.31 71.31 24.15 46.63 45.33 29.32 M 143.00 4.86 C 141.96 7.05 142.23 9.57 142.02 11.93 C 144.47 12.71 147.14 14.05 149.68 12.78 C 150.86 10.58 151.03 7.93 150.39 5.54 C 148.17 4.33 145.39 3.82 143.00 4.86 M 152.28 14.57 C 153.55 13.66 154.82 12.75 156.09 11.83 C 157.07 13.42 158.07 15.00 159.10 16.55 C 160.44 13.80 161.17 10.83 161.38 7.78 C 159.85 8.56 158.34 9.37 156.83 10.18 C 155.99 8.64 155.14 7.12 154.29 5.59 C 152.13 8.10 151.64 11.39 152.28 14.57 M 163.06 9.17 C 162.30 11.75 161.47 14.33 161.22 17.01 C 161.65 17.09 162.52 17.24 162.96 17.32 C 165.24 15.23 165.38 11.92 166.12 9.11 C 165.35 9.13 163.82 9.16 163.06 9.17 M 167.96 9.96 C 166.83 12.60 165.81 15.29 164.90 18.02 C 167.62 19.56 170.66 20.32 173.80 20.12 C 174.27 17.85 174.91 15.58 174.91 13.25 C 172.84 11.69 170.34 10.88 167.96 9.96 M 50.36 41.38 C 32.94 57.20 20.65 78.57 15.65 101.56 C 12.31 119.21 12.61 137.60 17.16 155.01 C 20.65 166.53 25.88 177.52 32.42 187.62 C 39.40 197.76 48.46 206.21 57.53 214.44 C 64.22 218.91 71.16 222.99 78.32 226.67 C 80.25 227.66 82.34 228.27 84.45 228.74 C 92.43 233.81 102.37 233.92 111.41 235.74 C 114.88 236.38 118.41 236.53 121.94 236.56 C 124.91 236.65 127.89 236.67 130.86 236.60 C 133.30 236.42 135.74 236.36 138.17 236.07 C 144.21 234.99 150.31 234.15 156.12 232.09 C 158.94 231.02 162.21 230.62 164.58 228.68 C 173.79 226.83 181.71 221.44 189.61 216.66 C 195.50 210.85 202.20 205.89 207.63 199.62 C 211.16 195.52 214.58 191.30 217.58 186.80 C 221.20 184.55 222.93 180.52 224.94 176.96 C 231.33 164.87 235.40 151.59 237.26 138.06 C 238.78 123.59 238.51 108.54 233.60 94.71 C 229.75 81.15 223.67 68.16 215.18 56.88 C 214.01 55.24 212.30 54.14 210.60 53.14 C 207.94 49.46 204.90 45.88 200.76 43.83 C 200.88 44.37 201.10 45.44 201.22 45.97 C 200.26 42.57 196.85 41.94 193.79 42.76 C 195.57 42.37 197.35 41.98 199.13 41.58 C 186.16 30.54 170.98 21.71 154.37 17.55 C 145.13 14.97 135.56 13.52 125.97 13.56 C 98.40 12.71 71.03 23.28 50.36 41.38 M 174.10 21.48 C 177.28 22.45 180.21 24.02 182.87 26.00 C 183.07 22.70 185.43 17.25 180.98 15.82 C 178.04 16.77 176.14 19.34 174.10 21.48 M 186.74 29.43 C 190.44 29.21 191.71 25.48 193.26 22.74 C 189.13 20.76 187.75 26.61 186.74 29.43 M 189.96 31.39 C 191.53 31.13 193.09 30.84 194.65 30.53 C 195.13 32.44 195.61 34.36 196.12 36.27 C 198.55 34.25 200.89 31.97 202.00 28.93 C 200.49 28.81 199.00 29.13 197.53 29.45 C 196.96 27.54 196.39 25.63 195.79 23.73 C 193.35 25.88 191.37 28.47 189.96 31.39 M 199.68 36.06 C 198.96 39.51 203.52 42.72 206.43 40.56 C 208.20 39.55 211.26 36.88 208.89 34.97 C 206.69 36.13 204.98 38.41 202.38 38.63 C 203.06 35.90 204.40 33.39 205.28 30.73 C 202.72 31.53 200.09 33.16 199.68 36.06 M 36.48 40.53 C 36.54 42.19 36.52 43.86 36.80 45.51 C 37.72 46.44 38.94 47.07 40.22 47.34 C 41.85 46.79 43.14 45.59 44.55 44.66 C 43.62 43.05 42.71 41.43 41.80 39.81 C 40.03 40.07 38.25 40.31 36.48 40.53 M 207.85 46.06 C 210.18 46.29 212.50 46.73 214.66 47.67 C 214.21 49.47 213.80 51.28 213.52 53.12 C 216.20 51.71 218.54 49.75 220.44 47.40 C 218.98 46.64 217.53 45.88 216.07 45.12 C 215.42 43.60 214.76 42.07 213.97 40.61 C 211.48 41.85 209.65 44.00 207.85 46.06 M 220.32 50.29 C 218.57 51.06 216.77 52.25 216.07 54.11 C 216.10 56.65 217.68 59.27 220.12 60.17 C 223.21 60.81 226.90 57.63 225.64 54.40 C 224.91 52.29 222.75 49.65 220.32 50.29 M 222.49 66.14 C 225.65 65.31 228.96 64.40 232.18 65.54 C 230.93 62.96 229.67 60.37 227.89 58.11 C 225.92 60.67 224.31 63.48 222.49 66.14 M 225.44 71.77 C 227.01 72.08 228.58 72.38 230.16 72.66 C 229.51 74.31 228.86 75.95 228.22 77.60 C 229.98 77.43 231.82 77.40 233.42 76.55 C 234.62 75.82 236.76 75.22 235.85 73.41 C 234.61 73.02 233.36 72.67 232.10 72.36 C 232.63 70.70 233.18 69.03 233.56 67.33 C 230.23 67.26 227.26 69.04 225.44 71.77 M 229.91 79.24 C 230.46 82.16 231.15 85.22 233.51 87.26 C 233.42 85.26 233.27 83.27 233.09 81.28 C 234.00 82.14 234.92 83.01 235.84 83.86 C 235.97 82.65 236.10 81.43 236.23 80.21 C 237.43 81.87 238.67 83.50 239.96 85.08 C 239.71 82.04 238.74 79.13 237.21 76.51 C 234.77 77.41 232.34 78.32 229.91 79.24 M 232.78 89.55 C 233.80 89.96 234.84 90.37 235.88 90.78 C 235.52 92.47 235.16 94.17 234.82 95.87 C 237.42 95.23 240.80 95.80 242.72 93.61 C 242.69 90.93 241.67 88.39 240.89 85.86 C 237.92 86.41 234.89 87.24 232.78 89.55 M 5.88 148.89 C 6.11 151.61 6.08 154.44 7.24 156.97 C 10.31 157.87 13.41 156.38 15.77 154.50 C 14.64 153.85 13.50 153.21 12.36 152.57 C 12.99 151.13 13.59 149.68 14.19 148.22 C 11.41 148.34 8.64 148.55 5.88 148.89 M 14.68 161.65 C 13.93 161.18 13.18 160.72 12.42 160.26 C 12.22 160.88 11.81 162.12 11.60 162.74 C 10.45 161.41 9.28 160.10 8.08 158.82 C 8.56 161.63 9.27 164.40 10.17 167.11 C 12.84 166.38 15.48 165.57 18.10 164.70 C 17.62 161.91 16.84 159.17 15.48 156.67 C 14.95 158.28 14.75 159.96 14.68 161.65 M 11.21 169.10 C 11.34 171.31 14.28 171.11 15.81 172.03 C 15.10 173.64 14.41 175.26 13.74 176.89 C 16.69 176.03 19.56 174.94 22.29 173.55 C 20.65 172.70 18.97 171.94 17.28 171.21 C 17.91 169.49 18.53 167.78 19.13 166.06 C 16.40 166.81 13.62 167.57 11.21 169.10 M 14.87 178.37 C 15.97 181.11 17.38 183.72 19.18 186.07 C 20.25 183.29 22.29 181.17 24.80 179.63 C 24.59 179.23 24.18 178.41 23.97 178.01 C 21.02 179.10 17.88 179.48 14.87 178.37 M 25.17 184.42 C 22.98 184.78 20.48 186.52 20.67 188.99 C 20.91 192.33 25.15 195.95 28.26 193.35 C 32.50 190.93 29.73 184.00 25.17 184.42 M 25.68 197.40 C 26.98 198.10 28.29 198.81 29.60 199.51 C 30.20 201.16 30.80 202.81 31.40 204.46 C 34.28 203.25 36.60 201.16 38.21 198.50 C 35.68 198.62 33.01 198.53 31.15 196.55 C 32.05 195.38 32.95 194.21 33.85 193.05 C 33.39 192.79 32.46 192.27 32.00 192.01 C 29.63 193.47 27.44 195.23 25.68 197.40 M 208.65 201.40 C 208.62 203.11 208.59 204.83 208.56 206.55 C 210.20 207.51 211.83 208.47 213.45 209.46 C 214.38 207.96 215.44 206.53 216.16 204.91 C 215.82 203.39 215.14 201.97 214.59 200.52 C 212.61 200.85 210.63 201.14 208.65 201.40 M 35.91 210.04 C 38.12 209.35 40.09 208.12 42.03 206.90 C 42.46 207.16 43.32 207.68 43.75 207.94 C 42.16 209.87 40.77 211.97 39.73 214.26 C 43.65 214.48 48.24 209.56 44.93 206.08 C 42.18 201.69 35.18 205.54 35.91 210.04 M 42.84 216.23 C 44.41 216.33 45.98 216.42 47.55 216.49 C 48.20 218.21 47.88 220.81 50.04 221.42 C 52.40 219.75 53.83 217.18 55.18 214.70 C 53.57 214.93 51.97 215.21 50.38 215.50 C 50.13 213.56 49.88 211.63 49.61 209.70 C 46.86 211.31 44.63 213.61 42.84 216.23 M 51.80 224.30 C 53.32 223.77 55.10 223.45 56.03 221.98 C 57.06 220.38 59.29 218.07 57.11 216.47 C 54.22 218.15 52.59 221.15 51.80 224.30 M 61.97 220.80 C 61.37 223.90 61.04 227.04 60.95 230.20 C 65.02 231.56 67.90 228.20 70.37 225.54 C 67.48 224.12 64.68 222.53 61.97 220.80 M 68.91 233.64 C 71.29 234.81 73.69 235.96 76.10 237.08 C 77.50 234.51 78.61 231.80 79.46 229.00 C 76.98 228.00 74.47 227.11 71.91 226.33 C 70.75 228.70 69.73 231.13 68.91 233.64 M 78.74 238.63 C 82.44 237.28 82.67 233.06 83.04 229.74 C 79.09 230.84 78.97 235.26 78.74 238.63 M 82.09 238.91 C 82.49 239.13 83.30 239.57 83.70 239.80 C 85.04 239.08 86.38 238.38 87.72 237.68 C 88.12 238.90 88.51 240.12 88.90 241.35 C 89.37 241.46 90.30 241.68 90.77 241.80 C 91.59 239.15 92.31 236.48 92.90 233.78 C 91.11 234.47 89.32 235.19 87.54 235.92 C 86.96 234.36 86.37 232.81 85.77 231.26 C 84.29 233.68 83.06 236.25 82.09 238.91 M 94.07 235.75 C 94.03 237.76 93.74 239.76 93.07 241.67 C 95.21 244.41 98.76 244.78 101.73 243.18 C 101.07 241.20 100.87 239.10 102.12 237.30 C 99.87 235.25 96.93 234.49 94.07 235.75 Z" />
</g>
<g id="#fdaa0cff">
<path fill="#fdaa0c" opacity="1.00" d=" M 143.00 4.86 C 145.39 3.82 148.17 4.33 150.39 5.54 C 151.03 7.93 150.86 10.58 149.68 12.78 C 147.14 14.05 144.47 12.71 142.02 11.93 C 142.23 9.57 141.96 7.05 143.00 4.86 Z" />
</g>
<g id="#feb90dff">
<path fill="#feb90d" opacity="1.00" d=" M 152.28 14.57 C 151.64 11.39 152.13 8.10 154.29 5.59 C 155.14 7.12 155.99 8.64 156.83 10.18 C 158.34 9.37 159.85 8.56 161.38 7.78 C 161.17 10.83 160.44 13.80 159.10 16.55 C 158.07 15.00 157.07 13.42 156.09 11.83 C 154.82 12.75 153.55 13.66 152.28 14.57 Z" />
<path fill="#feb90d" opacity="1.00" d=" M 189.96 31.39 C 191.37 28.47 193.35 25.88 195.79 23.73 C 196.39 25.63 196.96 27.54 197.53 29.45 C 199.00 29.13 200.49 28.81 202.00 28.93 C 200.89 31.97 198.55 34.25 196.12 36.27 C 195.61 34.36 195.13 32.44 194.65 30.53 C 193.09 30.84 191.53 31.13 189.96 31.39 Z" />
<path fill="#feb90d" opacity="1.00" d=" M 225.44 71.77 C 227.26 69.04 230.23 67.26 233.56 67.33 C 233.18 69.03 232.63 70.70 232.10 72.36 C 233.36 72.67 234.61 73.02 235.85 73.41 C 236.76 75.22 234.62 75.82 233.42 76.55 C 231.82 77.40 229.98 77.43 228.22 77.60 C 228.86 75.95 229.51 74.31 230.16 72.66 C 228.58 72.38 227.01 72.08 225.44 71.77 Z" />
<path fill="#feb90d" opacity="1.00" d=" M 229.91 79.24 C 232.34 78.32 234.77 77.41 237.21 76.51 C 238.74 79.13 239.71 82.04 239.96 85.08 C 238.67 83.50 237.43 81.87 236.23 80.21 C 236.10 81.43 235.97 82.65 235.84 83.86 C 234.92 83.01 234.00 82.14 233.09 81.28 C 233.27 83.27 233.42 85.26 233.51 87.26 C 231.15 85.22 230.46 82.16 229.91 79.24 Z" />
<path fill="#feb90d" opacity="1.00" d=" M 11.21 169.10 C 13.62 167.57 16.40 166.81 19.13 166.06 C 18.53 167.78 17.91 169.49 17.28 171.21 C 18.97 171.94 20.65 172.70 22.29 173.55 C 19.56 174.94 16.69 176.03 13.74 176.89 C 14.41 175.26 15.10 173.64 15.81 172.03 C 14.28 171.11 11.34 171.31 11.21 169.10 Z" />
<path fill="#feb90d" opacity="1.00" d=" M 25.68 197.40 C 27.44 195.23 29.63 193.47 32.00 192.01 C 32.46 192.27 33.39 192.79 33.85 193.05 C 32.95 194.21 32.05 195.38 31.15 196.55 C 33.01 198.53 35.68 198.62 38.21 198.50 C 36.60 201.16 34.28 203.25 31.40 204.46 C 30.80 202.81 30.20 201.16 29.60 199.51 C 28.29 198.81 26.98 198.10 25.68 197.40 Z" />
<path fill="#feb90d" opacity="1.00" d=" M 42.84 216.23 C 44.63 213.61 46.86 211.31 49.61 209.70 C 49.88 211.63 50.13 213.56 50.38 215.50 C 51.97 215.21 53.57 214.93 55.18 214.70 C 53.83 217.18 52.40 219.75 50.04 221.42 C 47.88 220.81 48.20 218.21 47.55 216.49 C 45.98 216.42 44.41 216.33 42.84 216.23 Z" />
<path fill="#feb90d" opacity="1.00" d=" M 82.09 238.91 C 83.06 236.25 84.29 233.68 85.77 231.26 C 86.37 232.81 86.96 234.36 87.54 235.92 C 89.32 235.19 91.11 234.47 92.90 233.78 C 92.31 236.48 91.59 239.15 90.77 241.80 C 90.30 241.68 89.37 241.46 88.90 241.35 C 88.51 240.12 88.12 238.90 87.72 237.68 C 86.38 238.38 85.04 239.08 83.70 239.80 C 83.30 239.57 82.49 239.13 82.09 238.91 Z" />
</g>
<g id="#fdab0bff">
<path fill="#fdab0b" opacity="1.00" d=" M 163.06 9.17 C 163.82 9.16 165.35 9.13 166.12 9.11 C 165.38 11.92 165.24 15.23 162.96 17.32 C 162.52 17.24 161.65 17.09 161.22 17.01 C 161.47 14.33 162.30 11.75 163.06 9.17 Z" />
</g>
<g id="#feb10cff">
<path fill="#feb10c" opacity="1.00" d=" M 167.96 9.96 C 170.34 10.88 172.84 11.69 174.91 13.25 C 174.91 15.58 174.27 17.85 173.80 20.12 C 170.66 20.32 167.62 19.56 164.90 18.02 C 165.81 15.29 166.83 12.60 167.96 9.96 Z" />
</g>
<g id="#c84509ff">
<path fill="#c84509" opacity="1.00" d=" M 50.36 41.38 C 71.03 23.28 98.40 12.71 125.97 13.56 C 135.56 13.52 145.13 14.97 154.37 17.55 C 170.98 21.71 186.16 30.54 199.13 41.58 C 197.35 41.98 195.57 42.37 193.79 42.76 C 186.44 44.26 179.99 48.54 174.41 53.40 C 167.75 59.19 162.55 66.39 156.16 72.45 C 141.85 68.21 126.65 66.70 111.82 68.66 C 105.83 69.43 100.07 71.35 94.23 72.82 C 87.58 66.79 81.52 60.16 75.19 53.81 C 71.83 50.47 68.31 47.15 64.03 45.00 C 60.40 43.16 56.52 41.88 52.71 40.48 C 46.23 52.15 47.18 66.08 49.06 78.83 C 50.37 87.86 52.56 96.76 55.78 105.31 C 57.24 108.77 56.90 112.54 56.11 116.11 C 54.16 116.46 52.23 116.93 50.30 117.40 C 50.38 120.45 50.61 123.50 50.72 126.55 C 48.61 136.16 45.77 145.68 45.50 155.60 C 45.34 160.10 44.69 164.91 46.85 169.07 C 50.45 176.37 56.35 182.26 62.38 187.58 C 67.29 191.73 72.27 195.83 77.74 199.23 C 74.41 201.88 70.53 203.63 66.77 205.54 C 63.19 207.94 60.30 211.18 57.53 214.44 C 48.46 206.21 39.40 197.76 32.42 187.62 C 25.88 177.52 20.65 166.53 17.16 155.01 C 12.61 137.60 12.31 119.21 15.65 101.56 C 20.65 78.57 32.94 57.20 50.36 41.38 M 112.43 31.38 C 112.71 33.86 112.95 36.35 113.15 38.84 C 110.97 39.15 108.80 39.45 106.62 39.72 C 106.25 37.74 105.87 35.77 105.50 33.80 C 103.79 34.05 102.09 34.31 100.40 34.58 C 101.39 40.49 103.00 46.28 105.20 51.84 C 108.75 50.60 107.79 46.41 108.67 43.50 C 110.39 42.35 112.54 42.88 114.48 42.84 C 114.59 44.94 114.72 47.05 114.86 49.15 C 115.73 49.17 117.47 49.22 118.35 49.25 C 118.67 43.27 118.26 37.30 117.59 31.36 C 115.87 31.38 114.15 31.38 112.43 31.38 M 130.39 31.39 C 130.03 37.20 129.33 43.01 129.89 48.83 C 134.08 49.29 138.35 50.13 142.55 49.43 C 144.60 49.02 144.42 46.54 144.85 44.98 C 145.23 41.78 146.74 38.72 146.58 35.48 C 142.70 30.93 135.78 31.98 130.39 31.39 M 121.64 31.60 C 121.67 37.42 121.16 43.38 122.89 49.03 C 128.56 44.99 126.13 37.45 125.26 31.74 C 124.35 31.70 122.54 31.64 121.64 31.60 M 151.25 36.09 C 149.45 40.17 148.50 44.59 147.73 48.97 C 147.27 50.76 149.30 51.80 150.15 53.08 C 151.90 50.07 153.31 46.90 154.73 43.73 C 155.58 45.07 156.43 46.40 157.28 47.74 C 158.65 47.97 160.02 48.20 161.39 48.43 C 160.91 50.96 160.35 53.47 159.76 55.97 C 160.89 56.47 162.02 56.96 163.15 57.46 C 166.16 52.61 169.10 47.67 171.08 42.30 C 169.67 41.67 168.30 40.94 166.81 40.53 C 164.39 40.59 162.17 41.79 159.91 42.53 C 158.83 40.49 157.97 38.28 156.46 36.51 C 154.93 35.73 152.79 35.00 151.25 36.09 M 84.25 40.25 C 82.36 42.15 80.38 45.90 83.32 47.78 C 87.24 49.42 91.65 48.29 95.77 48.29 C 95.67 49.35 95.58 50.41 95.49 51.47 C 92.24 51.89 88.24 50.84 85.56 52.98 C 85.97 55.18 88.41 55.48 90.24 55.72 C 94.33 56.17 98.99 54.02 100.45 49.98 C 99.92 48.00 99.04 45.60 96.93 44.85 C 93.51 44.44 90.06 44.80 86.63 44.69 C 87.33 43.70 87.99 42.68 88.81 41.77 C 91.62 41.10 94.57 41.87 97.42 41.45 C 98.01 40.50 97.95 39.61 97.26 38.76 C 93.16 36.65 87.77 37.28 84.25 40.25 Z" />
<path fill="#c84509" opacity="1.00" d=" M 200.76 43.83 C 204.90 45.88 207.94 49.46 210.60 53.14 C 215.51 60.43 220.65 67.61 224.46 75.56 C 228.32 82.69 230.67 90.48 232.76 98.27 C 236.38 110.82 236.22 124.08 235.32 136.99 C 234.76 146.05 232.15 154.80 229.26 163.34 C 226.41 171.64 221.91 179.22 217.58 186.80 C 214.58 191.30 211.16 195.52 207.63 199.62 C 202.20 205.89 195.50 210.85 189.61 216.66 C 186.30 212.41 182.00 209.12 177.42 206.36 C 175.46 205.15 173.48 203.99 171.50 202.83 C 171.53 202.39 171.60 201.51 171.64 201.07 C 177.35 197.85 182.51 193.77 187.31 189.34 C 193.91 184.18 198.68 177.12 202.54 169.77 C 204.88 165.29 204.32 160.11 204.40 155.23 C 204.64 148.66 204.36 141.96 202.12 135.71 C 205.76 132.70 209.26 129.42 211.46 125.17 C 209.88 124.36 208.31 123.53 206.72 122.76 C 203.02 121.13 199.55 118.93 196.98 115.77 C 196.63 111.62 196.37 107.41 194.84 103.49 C 198.74 84.67 206.10 65.34 201.22 45.97 C 201.10 45.44 200.88 44.37 200.76 43.83 Z" />
</g>
<g id="#feb50cff">
<path fill="#feb50c" opacity="1.00" d=" M 174.10 21.48 C 176.14 19.34 178.04 16.77 180.98 15.82 C 185.43 17.25 183.07 22.70 182.87 26.00 C 180.21 24.02 177.28 22.45 174.10 21.48 Z" />
</g>
<g id="#fdb00cff">
<path fill="#fdb00c" opacity="1.00" d=" M 186.74 29.43 C 187.75 26.61 189.13 20.76 193.26 22.74 C 191.71 25.48 190.44 29.21 186.74 29.43 Z" />
</g>
<g id="#edbd09ff">
<path fill="#edbd09" opacity="1.00" d=" M 112.43 31.38 C 114.15 31.38 115.87 31.38 117.59 31.36 C 118.26 37.30 118.67 43.27 118.35 49.25 C 117.47 49.22 115.73 49.17 114.86 49.15 C 114.72 47.05 114.59 44.94 114.48 42.84 C 112.54 42.88 110.39 42.35 108.67 43.50 C 107.79 46.41 108.75 50.60 105.20 51.84 C 103.00 46.28 101.39 40.49 100.40 34.58 C 102.09 34.31 103.79 34.05 105.50 33.80 C 105.87 35.77 106.25 37.74 106.62 39.72 C 108.80 39.45 110.97 39.15 113.15 38.84 C 112.95 36.35 112.71 33.86 112.43 31.38 Z" />
</g>
<g id="#eebe09ff">
<path fill="#eebe09" opacity="1.00" d=" M 130.39 31.39 C 135.78 31.98 142.70 30.93 146.58 35.48 C 146.74 38.72 145.23 41.78 144.85 44.98 C 144.42 46.54 144.60 49.02 142.55 49.43 C 138.35 50.13 134.08 49.29 129.89 48.83 C 129.33 43.01 130.03 37.20 130.39 31.39 M 134.74 38.89 C 137.24 38.85 139.74 38.61 142.19 38.06 C 141.44 36.72 140.67 35.39 139.90 34.05 C 137.28 34.67 134.89 35.87 134.74 38.89 M 134.85 42.70 C 134.51 43.69 134.21 44.69 133.94 45.70 C 135.83 46.08 137.73 46.45 139.64 46.80 C 140.09 45.50 140.53 44.20 140.98 42.90 C 138.98 42.69 136.75 41.63 134.85 42.70 Z" />
</g>
<g id="#fdaf0cff">
<path fill="#fdaf0c" opacity="1.00" d=" M 199.68 36.06 C 200.09 33.16 202.72 31.53 205.28 30.73 C 204.40 33.39 203.06 35.90 202.38 38.63 C 204.98 38.41 206.69 36.13 208.89 34.97 C 211.26 36.88 208.20 39.55 206.43 40.56 C 203.52 42.72 198.96 39.51 199.68 36.06 Z" />
</g>
<g id="#f1c409ff">
<path fill="#f1c409" opacity="1.00" d=" M 121.64 31.60 C 122.54 31.64 124.35 31.70 125.26 31.74 C 126.13 37.45 128.56 44.99 122.89 49.03 C 121.16 43.38 121.67 37.42 121.64 31.60 Z" />
</g>
<g id="#c54a07ff">
<path fill="#c54a07" opacity="1.00" d=" M 134.74 38.89 C 134.89 35.87 137.28 34.67 139.90 34.05 C 140.67 35.39 141.44 36.72 142.19 38.06 C 139.74 38.61 137.24 38.85 134.74 38.89 Z" />
</g>
<g id="#eebf09ff">
<path fill="#eebf09" opacity="1.00" d=" M 151.25 36.09 C 152.79 35.00 154.93 35.73 156.46 36.51 C 157.97 38.28 158.83 40.49 159.91 42.53 C 162.17 41.79 164.39 40.59 166.81 40.53 C 168.30 40.94 169.67 41.67 171.08 42.30 C 169.10 47.67 166.16 52.61 163.15 57.46 C 162.02 56.96 160.89 56.47 159.76 55.97 C 160.35 53.47 160.91 50.96 161.39 48.43 C 160.02 48.20 158.65 47.97 157.28 47.74 C 156.43 46.40 155.58 45.07 154.73 43.73 C 153.31 46.90 151.90 50.07 150.15 53.08 C 149.30 51.80 147.27 50.76 147.73 48.97 C 148.50 44.59 149.45 40.17 151.25 36.09 Z" />
</g>
<g id="#edc009ff">
<path fill="#edc009" opacity="1.00" d=" M 84.25 40.25 C 87.77 37.28 93.16 36.65 97.26 38.76 C 97.95 39.61 98.01 40.50 97.42 41.45 C 94.57 41.87 91.62 41.10 88.81 41.77 C 87.99 42.68 87.33 43.70 86.63 44.69 C 90.06 44.80 93.51 44.44 96.93 44.85 C 99.04 45.60 99.92 48.00 100.45 49.98 C 98.99 54.02 94.33 56.17 90.24 55.72 C 88.41 55.48 85.97 55.18 85.56 52.98 C 88.24 50.84 92.24 51.89 95.49 51.47 C 95.58 50.41 95.67 49.35 95.77 48.29 C 91.65 48.29 87.24 49.42 83.32 47.78 C 80.38 45.90 82.36 42.15 84.25 40.25 Z" />
</g>
<g id="#febb0dff">
<path fill="#febb0d" opacity="1.00" d=" M 36.48 40.53 C 38.25 40.31 40.03 40.07 41.80 39.81 C 42.71 41.43 43.62 43.05 44.55 44.66 C 43.14 45.59 41.85 46.79 40.22 47.34 C 38.94 47.07 37.72 46.44 36.80 45.51 C 36.52 43.86 36.54 42.19 36.48 40.53 Z" />
<path fill="#febb0d" opacity="1.00" d=" M 207.85 46.06 C 209.65 44.00 211.48 41.85 213.97 40.61 C 214.76 42.07 215.42 43.60 216.07 45.12 C 217.53 45.88 218.98 46.64 220.44 47.40 C 218.54 49.75 216.20 51.71 213.52 53.12 C 213.80 51.28 214.21 49.47 214.66 47.67 C 212.50 46.73 210.18 46.29 207.85 46.06 Z" />
<path fill="#febb0d" opacity="1.00" d=" M 208.65 201.40 C 210.63 201.14 212.61 200.85 214.59 200.52 C 215.14 201.97 215.82 203.39 216.16 204.91 C 215.44 206.53 214.38 207.96 213.45 209.46 C 211.83 208.47 210.20 207.51 208.56 206.55 C 208.59 204.83 208.62 203.11 208.65 201.40 Z" />
</g>
<g id="#ffbc0dff">
<path fill="#ffbc0d" opacity="1.00" d=" M 49.06 78.83 C 47.18 66.08 46.23 52.15 52.71 40.48 C 56.52 41.88 60.40 43.16 64.03 45.00 C 68.31 47.15 71.83 50.47 75.19 53.81 C 81.52 60.16 87.58 66.79 94.23 72.82 C 100.07 71.35 105.83 69.43 111.82 68.66 C 126.65 66.70 141.85 68.21 156.16 72.45 C 162.55 66.39 167.75 59.19 174.41 53.40 C 179.99 48.54 186.44 44.26 193.79 42.76 C 196.85 41.94 200.26 42.57 201.22 45.97 C 206.10 65.34 198.74 84.67 194.84 103.49 C 189.26 105.60 183.77 108.94 181.68 114.86 C 177.97 114.80 174.26 114.70 170.55 114.62 C 170.96 109.48 167.83 103.33 162.06 103.32 C 155.30 102.10 148.99 108.84 150.60 115.52 C 145.46 116.20 140.23 116.67 135.26 118.25 C 131.48 119.48 128.53 123.51 124.20 122.65 C 120.56 121.75 117.93 118.66 114.30 117.71 C 109.45 116.39 104.41 116.08 99.45 115.47 C 101.08 108.83 94.70 101.96 87.95 103.29 C 82.31 103.63 79.04 109.40 79.09 114.59 C 71.43 115.20 63.75 115.35 56.11 116.11 C 56.90 112.54 57.24 108.77 55.78 105.31 C 52.56 96.76 50.37 87.86 49.06 78.83 M 184.12 58.77 C 179.01 62.38 174.12 66.31 169.43 70.43 C 167.27 72.09 166.26 75.52 168.38 77.63 C 172.51 82.30 177.28 86.36 181.62 90.84 C 183.44 93.10 185.30 95.32 187.26 97.47 C 188.86 95.08 190.06 92.45 190.76 89.66 C 192.44 83.21 194.81 76.80 194.70 70.04 C 194.60 64.56 194.98 58.92 193.29 53.63 C 192.96 53.54 192.32 53.36 192.00 53.27 C 189.08 54.64 186.67 56.85 184.12 58.77 M 54.59 53.61 C 54.49 60.61 52.91 67.67 54.34 74.63 C 55.92 82.67 58.19 90.61 61.46 98.13 C 64.02 95.86 66.17 93.17 68.07 90.33 C 72.55 86.05 77.40 82.02 81.05 76.99 C 82.71 74.53 80.55 71.87 78.68 70.32 C 73.94 66.42 69.23 62.46 64.17 58.98 C 61.27 56.73 58.38 54.13 54.59 53.61 Z" />
<path fill="#ffbc0d" opacity="1.00" d=" M 67.57 121.52 C 75.91 118.10 85.14 118.52 93.98 118.51 C 100.12 118.71 106.87 119.20 111.91 123.11 C 115.75 126.02 114.99 131.44 114.45 135.63 C 113.40 139.60 111.86 143.79 108.80 146.66 C 104.73 149.27 101.27 152.65 98.00 156.18 C 95.11 158.19 91.32 157.42 88.01 157.70 C 80.47 158.02 72.14 156.95 66.37 151.65 C 62.12 146.52 62.30 139.29 62.47 132.98 C 62.86 128.88 63.29 123.48 67.57 121.52 M 78.09 122.67 C 75.51 125.05 76.51 128.89 76.62 131.98 C 79.14 135.83 83.68 137.59 87.78 139.22 C 94.23 141.21 100.91 143.17 107.74 142.37 C 107.70 136.72 102.08 133.84 97.95 131.13 C 91.74 127.61 85.42 123.00 78.09 122.67 Z" />
<path fill="#ffbc0d" opacity="1.00" d=" M 138.94 122.94 C 143.24 119.75 148.80 119.00 154.00 118.60 C 163.34 118.32 172.94 118.21 181.94 121.09 C 184.37 121.73 186.32 123.61 186.96 126.06 C 189.21 133.27 188.93 141.26 186.35 148.35 C 184.79 152.77 180.15 154.80 176.03 156.17 C 170.55 158.10 164.65 157.70 158.95 157.62 C 156.97 157.40 154.58 157.75 153.06 156.19 C 149.58 151.91 145.46 148.25 140.94 145.10 C 138.35 142.31 137.03 138.56 136.09 134.93 C 135.07 130.86 135.32 125.68 138.94 122.94 M 159.21 128.10 C 153.55 131.60 146.69 134.61 144.17 141.29 C 146.87 142.71 149.99 142.74 152.93 142.16 C 158.39 141.01 163.97 139.88 168.87 137.07 C 171.20 135.68 174.03 134.54 175.28 131.96 C 176.10 128.70 175.47 125.31 174.37 122.20 C 168.81 122.53 163.92 125.39 159.21 128.10 Z" />
<path fill="#ffbc0d" opacity="1.00" d=" M 50.72 126.55 C 52.58 127.87 54.74 129.13 55.59 131.38 C 59.04 139.41 57.88 149.19 63.85 156.16 C 57.77 155.31 51.62 155.57 45.50 155.60 C 45.77 145.68 48.61 136.16 50.72 126.55 Z" />
<path fill="#ffbc0d" opacity="1.00" d=" M 195.61 132.04 C 197.42 133.82 199.71 134.96 202.12 135.71 C 204.36 141.96 204.64 148.66 204.40 155.23 C 198.91 155.32 193.42 155.27 187.94 155.12 C 192.01 148.02 193.48 139.84 195.61 132.04 Z" />
</g>
<g id="#c74909ff">
<path fill="#c74909" opacity="1.00" d=" M 134.85 42.70 C 136.75 41.63 138.98 42.69 140.98 42.90 C 140.53 44.20 140.09 45.50 139.64 46.80 C 137.73 46.45 135.83 46.08 133.94 45.70 C 134.21 44.69 134.51 43.69 134.85 42.70 Z" />
</g>
<g id="#fca20bff">
<path fill="#fca20b" opacity="1.00" d=" M 220.32 50.29 C 222.75 49.65 224.91 52.29 225.64 54.40 C 226.90 57.63 223.21 60.81 220.12 60.17 C 217.68 59.27 216.10 56.65 216.07 54.11 C 216.77 52.25 218.57 51.06 220.32 50.29 Z" />
</g>
<g id="#ef969bff">
<path fill="#ef969b" opacity="1.00" d=" M 184.12 58.77 C 186.67 56.85 189.08 54.64 192.00 53.27 C 192.32 53.36 192.96 53.54 193.29 53.63 C 194.98 58.92 194.60 64.56 194.70 70.04 C 194.81 76.80 192.44 83.21 190.76 89.66 C 190.06 92.45 188.86 95.08 187.26 97.47 C 185.30 95.32 183.44 93.10 181.62 90.84 C 183.23 85.36 185.55 80.08 186.51 74.43 C 187.42 69.09 185.77 63.80 184.12 58.77 Z" />
</g>
<g id="#f76e1cff">
<path fill="#f76e1c" opacity="1.00" d=" M 210.60 53.14 C 212.30 54.14 214.01 55.24 215.18 56.88 C 223.67 68.16 229.75 81.15 233.60 94.71 C 238.51 108.54 238.78 123.59 237.26 138.06 C 235.40 151.59 231.33 164.87 224.94 176.96 C 222.93 180.52 221.20 184.55 217.58 186.80 C 221.91 179.22 226.41 171.64 229.26 163.34 C 232.15 154.80 234.76 146.05 235.32 136.99 C 236.22 124.08 236.38 110.82 232.76 98.27 C 230.67 90.48 228.32 82.69 224.46 75.56 C 220.65 67.61 215.51 60.43 210.60 53.14 Z" />
</g>
<g id="#ef959aff">
<path fill="#ef959a" opacity="1.00" d=" M 54.59 53.61 C 58.38 54.13 61.27 56.73 64.17 58.98 C 62.98 63.53 61.68 68.18 62.03 72.93 C 62.42 79.17 65.13 84.92 68.07 90.33 C 66.17 93.17 64.02 95.86 61.46 98.13 C 58.19 90.61 55.92 82.67 54.34 74.63 C 52.91 67.67 54.49 60.61 54.59 53.61 Z" />
</g>
<g id="#fdac0cff">
<path fill="#fdac0c" opacity="1.00" d=" M 222.49 66.14 C 224.31 63.48 225.92 60.67 227.89 58.11 C 229.67 60.37 230.93 62.96 232.18 65.54 C 228.96 64.40 225.65 65.31 222.49 66.14 Z" />
</g>
<g id="#ef7680ff">
<path fill="#ef7680" opacity="1.00" d=" M 64.17 58.98 C 69.23 62.46 73.94 66.42 78.68 70.32 C 80.55 71.87 82.71 74.53 81.05 76.99 C 77.40 82.02 72.55 86.05 68.07 90.33 C 65.13 84.92 62.42 79.17 62.03 72.93 C 61.68 68.18 62.98 63.53 64.17 58.98 Z" />
</g>
<g id="#ee767fff">
<path fill="#ee767f" opacity="1.00" d=" M 169.43 70.43 C 174.12 66.31 179.01 62.38 184.12 58.77 C 185.77 63.80 187.42 69.09 186.51 74.43 C 185.55 80.08 183.23 85.36 181.62 90.84 C 177.28 86.36 172.51 82.30 168.38 77.63 C 166.26 75.52 167.27 72.09 169.43 70.43 Z" />
</g>
<g id="#fdb20cff">
<path fill="#fdb20c" opacity="1.00" d=" M 232.78 89.55 C 234.89 87.24 237.92 86.41 240.89 85.86 C 241.67 88.39 242.69 90.93 242.72 93.61 C 240.80 95.80 237.42 95.23 234.82 95.87 C 235.16 94.17 235.52 92.47 235.88 90.78 C 234.84 90.37 233.80 89.96 232.78 89.55 Z" />
</g>
<g id="#fffefeff">
<path fill="#fffefe" opacity="1.00" d=" M 79.09 114.59 C 79.04 109.40 82.31 103.63 87.95 103.29 C 94.70 101.96 101.08 108.83 99.45 115.47 C 92.69 114.72 85.89 114.41 79.09 114.59 Z" />
</g>
<g id="#fffffdff">
<path fill="#fffffd" opacity="1.00" d=" M 150.60 115.52 C 148.99 108.84 155.30 102.10 162.06 103.32 C 167.83 103.33 170.96 109.48 170.55 114.62 C 163.88 114.42 157.22 114.78 150.60 115.52 Z" />
</g>
<g id="#f091aeff">
<path fill="#f091ae" opacity="1.00" d=" M 181.68 114.86 C 183.77 108.94 189.26 105.60 194.84 103.49 C 196.37 107.41 196.63 111.62 196.98 115.77 C 196.06 113.10 195.34 110.38 194.57 107.67 C 192.27 108.55 189.73 109.12 187.86 110.80 C 186.29 112.58 185.76 114.97 184.95 117.15 C 183.85 116.41 182.77 115.63 181.68 114.86 Z" />
</g>
<g id="#ea2670ff">
<path fill="#ea2670" opacity="1.00" d=" M 187.86 110.80 C 189.73 109.12 192.27 108.55 194.57 107.67 C 195.34 110.38 196.06 113.10 196.98 115.77 C 199.55 118.93 203.02 121.13 206.72 122.76 C 206.51 122.79 206.11 122.84 205.91 122.87 C 206.65 125.24 206.86 127.93 204.56 129.53 C 202.39 132.39 198.74 131.91 195.67 131.22 C 195.84 128.89 195.98 126.57 196.13 124.24 C 197.36 123.37 198.59 122.50 199.82 121.64 C 198.80 120.16 197.82 118.66 196.64 117.32 C 195.09 117.74 193.89 118.85 192.62 119.76 C 189.97 119.20 187.33 118.47 184.95 117.15 C 185.76 114.97 186.29 112.58 187.86 110.80 Z" />
</g>
<g id="#e61063ff">
<path fill="#e61063" opacity="1.00" d=" M 56.11 116.11 C 63.75 115.35 71.43 115.20 79.09 114.59 C 85.89 114.41 92.69 114.72 99.45 115.47 C 104.41 116.08 109.45 116.39 114.30 117.71 C 117.93 118.66 120.56 121.75 124.20 122.65 C 128.53 123.51 131.48 119.48 135.26 118.25 C 140.23 116.67 145.46 116.20 150.60 115.52 C 157.22 114.78 163.88 114.42 170.55 114.62 C 174.26 114.70 177.97 114.80 181.68 114.86 C 182.77 115.63 183.85 116.41 184.95 117.15 C 187.33 118.47 189.97 119.20 192.62 119.76 C 193.80 121.24 194.97 122.74 196.13 124.24 C 195.98 126.57 195.84 128.89 195.67 131.22 L 195.61 132.04 C 193.48 139.84 192.01 148.02 187.94 155.12 C 181.80 159.99 174.05 162.68 166.22 162.75 C 163.15 162.77 160.08 162.73 157.01 162.54 C 151.22 160.79 145.12 158.68 140.99 154.02 C 138.12 150.70 136.00 146.79 134.32 142.76 C 132.70 138.84 132.07 134.18 128.84 131.17 C 126.55 129.06 122.81 129.59 120.97 132.02 C 118.43 135.37 117.64 139.64 116.08 143.48 C 114.18 147.82 111.72 152.02 108.30 155.34 C 104.48 159.03 99.32 160.75 94.36 162.27 C 90.84 162.55 87.30 162.61 83.78 162.54 C 76.71 162.13 69.91 159.76 63.85 156.16 C 57.88 149.19 59.04 139.41 55.59 131.38 C 54.74 129.13 52.58 127.87 50.72 126.55 C 50.61 123.50 50.38 120.45 50.30 117.40 C 52.23 116.93 54.16 116.46 56.11 116.11 M 67.57 121.52 C 63.29 123.48 62.86 128.88 62.47 132.98 C 62.30 139.29 62.12 146.52 66.37 151.65 C 72.14 156.95 80.47 158.02 88.01 157.70 C 91.32 157.42 95.11 158.19 98.00 156.18 C 103.06 155.30 106.75 151.13 108.80 146.66 C 111.86 143.79 113.40 139.60 114.45 135.63 C 114.99 131.44 115.75 126.02 111.91 123.11 C 106.87 119.20 100.12 118.71 93.98 118.51 C 85.14 118.52 75.91 118.10 67.57 121.52 M 138.94 122.94 C 135.32 125.68 135.07 130.86 136.09 134.93 C 137.03 138.56 138.35 142.31 140.94 145.10 C 143.61 149.87 147.22 155.29 153.06 156.19 C 154.58 157.75 156.97 157.40 158.95 157.62 C 164.65 157.70 170.55 158.10 176.03 156.17 C 180.15 154.80 184.79 152.77 186.35 148.35 C 188.93 141.26 189.21 133.27 186.96 126.06 C 186.32 123.61 184.37 121.73 181.94 121.09 C 172.94 118.21 163.34 118.32 154.00 118.60 C 148.80 119.00 143.24 119.75 138.94 122.94 Z" />
</g>
<g id="#f49ec2ff">
<path fill="#f49ec2" opacity="1.00" d=" M 192.62 119.76 C 193.89 118.85 195.09 117.74 196.64 117.32 C 197.82 118.66 198.80 120.16 199.82 121.64 C 198.59 122.50 197.36 123.37 196.13 124.24 C 194.97 122.74 193.80 121.24 192.62 119.76 Z" />
</g>
<g id="#07040aff">
<path fill="#07040a" opacity="1.00" d=" M 78.09 122.67 C 85.42 123.00 91.74 127.61 97.95 131.13 C 102.08 133.84 107.70 136.72 107.74 142.37 C 100.91 143.17 94.23 141.21 87.78 139.22 C 83.68 137.59 79.14 135.83 76.62 131.98 C 76.51 128.89 75.51 125.05 78.09 122.67 Z" />
</g>
<g id="#08030aff">
<path fill="#08030a" opacity="1.00" d=" M 159.21 128.10 C 163.92 125.39 168.81 122.53 174.37 122.20 C 175.47 125.31 176.10 128.70 175.28 131.96 C 174.03 134.54 171.20 135.68 168.87 137.07 C 163.97 139.88 158.39 141.01 152.93 142.16 C 149.99 142.74 146.87 142.71 144.17 141.29 C 146.69 134.61 153.55 131.60 159.21 128.10 Z" />
</g>
<g id="#f193afff">
<path fill="#f193af" opacity="1.00" d=" M 205.91 122.87 C 206.11 122.84 206.51 122.79 206.72 122.76 C 208.31 123.53 209.88 124.36 211.46 125.17 C 209.26 129.42 205.76 132.70 202.12 135.71 C 199.71 134.96 197.42 133.82 195.61 132.04 L 195.67 131.22 C 198.74 131.91 202.39 132.39 204.56 129.53 C 206.86 127.93 206.65 125.24 205.91 122.87 Z" />
</g>
<g id="#ffbd0dff">
<path fill="#ffbd0d" opacity="1.00" d=" M 120.97 132.02 C 122.81 129.59 126.55 129.06 128.84 131.17 C 132.07 134.18 132.70 138.84 134.32 142.76 C 128.23 142.34 122.10 142.39 116.08 143.48 C 117.64 139.64 118.43 135.37 120.97 132.02 Z" />
</g>
<g id="#fefefeff">
<path fill="#fefefe" opacity="1.00" d=" M 116.08 143.48 C 122.10 142.39 128.23 142.34 134.32 142.76 C 136.00 146.79 138.12 150.70 140.99 154.02 C 145.12 158.68 151.22 160.79 157.01 162.54 L 157.28 163.54 C 159.03 170.17 159.17 178.37 165.27 182.75 C 172.08 187.88 181.08 186.79 189.03 186.05 C 188.46 187.15 187.91 188.25 187.31 189.34 C 182.51 193.77 177.35 197.85 171.64 201.07 C 164.54 205.61 156.88 209.14 149.00 212.10 C 148.23 216.04 148.20 220.42 145.84 223.83 C 143.33 226.52 139.38 224.52 136.29 224.26 C 137.69 227.06 139.34 229.85 139.83 232.99 C 140.17 234.33 138.92 235.18 138.17 236.07 C 135.74 236.36 133.30 236.42 130.86 236.60 C 130.13 231.45 129.00 226.31 126.55 221.69 C 124.77 226.57 123.30 231.55 121.94 236.56 C 118.41 236.53 114.88 236.38 111.41 235.74 C 113.21 231.54 115.65 227.67 118.19 223.89 C 119.24 222.21 120.19 220.48 121.13 218.75 C 122.83 217.94 124.53 217.13 126.22 216.32 C 119.71 215.35 113.25 214.04 106.69 213.37 C 110.80 215.37 115.09 216.92 119.30 218.68 C 118.36 220.28 117.43 221.88 116.51 223.50 C 113.35 224.59 109.13 226.74 106.47 223.52 C 104.35 220.24 104.43 216.12 103.71 212.39 C 94.60 208.96 86.02 204.33 77.74 199.23 C 72.27 195.83 67.29 191.73 62.38 187.58 C 69.33 185.59 77.27 187.99 83.54 183.53 C 89.04 180.54 90.01 173.98 91.93 168.62 C 92.71 166.49 93.56 164.39 94.36 162.27 C 99.32 160.75 104.48 159.03 108.30 155.34 C 111.72 152.02 114.18 147.82 116.08 143.48 M 115.98 157.00 C 112.10 159.44 113.76 164.71 116.35 167.47 C 115.88 170.59 116.20 173.79 118.05 176.44 C 115.31 176.62 112.01 177.26 109.82 175.16 C 107.69 173.36 106.47 170.79 105.24 168.36 C 103.94 168.42 102.65 168.49 101.36 168.57 C 101.39 170.17 101.08 171.86 101.67 173.40 C 104.01 176.80 106.88 179.84 110.16 182.36 C 110.17 182.96 110.21 184.17 110.23 184.78 C 117.22 191.13 127.42 190.81 136.12 189.17 C 140.70 188.41 144.45 184.91 145.56 180.40 C 148.65 177.28 152.10 173.38 151.50 168.65 C 150.23 168.49 148.97 168.34 147.70 168.20 C 146.30 171.05 145.08 174.56 141.78 175.69 C 139.33 176.54 136.37 177.13 133.89 176.35 C 134.32 176.21 135.20 175.92 135.63 175.77 C 136.24 171.32 138.19 167.22 139.22 162.87 C 139.84 160.19 138.86 157.17 136.51 155.64 C 129.68 155.21 122.37 153.76 115.98 157.00 Z" />
<path fill="#fefefe" opacity="1.00" d=" M 140.94 145.10 C 145.46 148.25 149.58 151.91 153.06 156.19 C 147.22 155.29 143.61 149.87 140.94 145.10 Z" />
</g>
<g id="#e7dad6ff">
<path fill="#e7dad6" opacity="1.00" d=" M 98.00 156.18 C 101.27 152.65 104.73 149.27 108.80 146.66 C 106.75 151.13 103.06 155.30 98.00 156.18 Z" />
<path fill="#e7dad6" opacity="1.00" d=" M 110.16 182.36 C 114.84 182.87 119.42 181.72 123.97 180.80 C 128.76 179.83 133.26 182.46 138.01 182.48 C 140.68 182.58 143.17 181.44 145.56 180.40 C 144.45 184.91 140.70 188.41 136.12 189.17 C 127.42 190.81 117.22 191.13 110.23 184.78 C 110.21 184.17 110.17 182.96 110.16 182.36 Z" />
</g>
<g id="#feb40cff">
<path fill="#feb40c" opacity="1.00" d=" M 5.88 148.89 C 8.64 148.55 11.41 148.34 14.19 148.22 C 13.59 149.68 12.99 151.13 12.36 152.57 C 13.50 153.21 14.64 153.85 15.77 154.50 C 13.41 156.38 10.31 157.87 7.24 156.97 C 6.08 154.44 6.11 151.61 5.88 148.89 Z" />
</g>
<g id="#0a0809ff">
<path fill="#0a0809" opacity="1.00" d=" M 115.98 157.00 C 122.37 153.76 129.68 155.21 136.51 155.64 C 138.86 157.17 139.84 160.19 139.22 162.87 C 137.90 166.75 134.59 169.17 131.65 171.76 C 130.52 173.70 132.25 175.48 133.89 176.35 C 136.37 177.13 139.33 176.54 141.78 175.69 C 145.08 174.56 146.30 171.05 147.70 168.20 C 148.97 168.34 150.23 168.49 151.50 168.65 C 152.10 173.38 148.65 177.28 145.56 180.40 C 143.17 181.44 140.68 182.58 138.01 182.48 C 133.26 182.46 128.76 179.83 123.97 180.80 C 119.42 181.72 114.84 182.87 110.16 182.36 C 106.88 179.84 104.01 176.80 101.67 173.40 C 101.08 171.86 101.39 170.17 101.36 168.57 C 102.65 168.49 103.94 168.42 105.24 168.36 C 106.47 170.79 107.69 173.36 109.82 175.16 C 112.01 177.26 115.31 176.62 118.05 176.44 C 119.25 175.66 120.43 174.82 121.49 173.85 C 121.19 170.91 118.10 169.53 116.35 167.47 C 113.76 164.71 112.10 159.44 115.98 157.00 Z" />
</g>
<g id="#f8c2c4ff">
<path fill="#f8c2c4" opacity="1.00" d=" M 166.22 162.75 C 174.05 162.68 181.80 159.99 187.94 155.12 C 193.42 155.27 198.91 155.32 204.40 155.23 C 204.32 160.11 204.88 165.29 202.54 169.77 C 198.68 177.12 193.91 184.18 187.31 189.34 C 187.91 188.25 188.46 187.15 189.03 186.05 C 181.08 186.79 172.08 187.88 165.27 182.75 C 159.17 178.37 159.03 170.17 157.28 163.54 C 158.04 165.14 158.89 166.69 159.74 168.24 C 161.90 166.42 164.08 164.60 166.22 162.75 Z" />
<path fill="#f8c2c4" opacity="1.00" d=" M 46.85 169.07 C 44.69 164.91 45.34 160.10 45.50 155.60 C 51.62 155.57 57.77 155.31 63.85 156.16 C 69.91 159.76 76.71 162.13 83.78 162.54 C 86.08 165.06 88.69 167.39 91.93 168.62 C 90.01 173.98 89.04 180.54 83.54 183.53 C 77.27 187.99 69.33 185.59 62.38 187.58 C 56.35 182.26 50.45 176.37 46.85 169.07 Z" />
</g>
<g id="#feb60cff">
<path fill="#feb60c" opacity="1.00" d=" M 14.68 161.65 C 14.75 159.96 14.95 158.28 15.48 156.67 C 16.84 159.17 17.62 161.91 18.10 164.70 C 15.48 165.57 12.84 166.38 10.17 167.11 C 9.27 164.40 8.56 161.63 8.08 158.82 C 9.28 160.10 10.45 161.41 11.60 162.74 C 11.81 162.12 12.22 160.88 12.42 160.26 C 13.18 160.72 13.93 161.18 14.68 161.65 Z" />
</g>
<g id="#febc0cff">
<path fill="#febc0c" opacity="1.00" d=" M 83.78 162.54 C 87.30 162.61 90.84 162.55 94.36 162.27 C 93.56 164.39 92.71 166.49 91.93 168.62 C 88.69 167.39 86.08 165.06 83.78 162.54 Z" />
</g>
<g id="#e1d8d5ff">
<path fill="#e1d8d5" opacity="1.00" d=" M 131.65 171.76 C 134.59 169.17 137.90 166.75 139.22 162.87 C 138.19 167.22 136.24 171.32 135.63 175.77 C 135.20 175.92 134.32 176.21 133.89 176.35 C 132.25 175.48 130.52 173.70 131.65 171.76 Z" />
</g>
<g id="#fdbd0dff">
<path fill="#fdbd0d" opacity="1.00" d=" M 157.01 162.54 C 160.08 162.73 163.15 162.77 166.22 162.75 C 164.08 164.60 161.90 166.42 159.74 168.24 C 158.89 166.69 158.04 165.14 157.28 163.54 L 157.01 162.54 Z" />
</g>
<g id="#e3dad6ff">
<path fill="#e3dad6" opacity="1.00" d=" M 116.35 167.47 C 118.10 169.53 121.19 170.91 121.49 173.85 C 120.43 174.82 119.25 175.66 118.05 176.44 C 116.20 173.79 115.88 170.59 116.35 167.47 Z" />
</g>
<g id="#fdad0cff">
<path fill="#fdad0c" opacity="1.00" d=" M 14.87 178.37 C 17.88 179.48 21.02 179.10 23.97 178.01 C 24.18 178.41 24.59 179.23 24.80 179.63 C 22.29 181.17 20.25 183.29 19.18 186.07 C 17.38 183.72 15.97 181.11 14.87 178.37 Z" />
</g>
<g id="#fda20bff">
<path fill="#fda20b" opacity="1.00" d=" M 25.17 184.42 C 29.73 184.00 32.50 190.93 28.26 193.35 C 25.15 195.95 20.91 192.33 20.67 188.99 C 20.48 186.52 22.98 184.78 25.17 184.42 Z" />
</g>
<g id="#ed8bb4ff">
<path fill="#ed8bb4" opacity="1.00" d=" M 77.74 199.23 C 86.02 204.33 94.60 208.96 103.71 212.39 C 104.43 216.12 104.35 220.24 106.47 223.52 C 109.13 226.74 113.35 224.59 116.51 223.50 C 116.93 223.59 117.77 223.79 118.19 223.89 C 115.65 227.67 113.21 231.54 111.41 235.74 C 102.37 233.92 92.43 233.81 84.45 228.74 C 78.16 221.35 71.10 214.35 66.77 205.54 C 70.53 203.63 74.41 201.88 77.74 199.23 Z" />
<path fill="#ed8bb4" opacity="1.00" d=" M 149.00 212.10 C 156.88 209.14 164.54 205.61 171.64 201.07 C 171.60 201.51 171.53 202.39 171.50 202.83 C 173.48 203.99 175.46 205.15 177.42 206.36 C 174.26 214.39 169.15 221.42 164.58 228.68 C 162.21 230.62 158.94 231.02 156.12 232.09 C 150.31 234.15 144.21 234.99 138.17 236.07 C 138.92 235.18 140.17 234.33 139.83 232.99 C 139.34 229.85 137.69 227.06 136.29 224.26 C 139.38 224.52 143.33 226.52 145.84 223.83 C 148.20 220.42 148.23 216.04 149.00 212.10 Z" />
</g>
<g id="#fdae0cff">
<path fill="#fdae0c" opacity="1.00" d=" M 35.91 210.04 C 35.18 205.54 42.18 201.69 44.93 206.08 C 48.24 209.56 43.65 214.48 39.73 214.26 C 40.77 211.97 42.16 209.87 43.75 207.94 C 43.32 207.68 42.46 207.16 42.03 206.90 C 40.09 208.12 38.12 209.35 35.91 210.04 Z" />
</g>
<g id="#b4202cff">
<path fill="#b4202c" opacity="1.00" d=" M 57.53 214.44 C 60.30 211.18 63.19 207.94 66.77 205.54 C 71.10 214.35 78.16 221.35 84.45 228.74 C 82.34 228.27 80.25 227.66 78.32 226.67 C 71.16 222.99 64.22 218.91 57.53 214.44 Z" />
<path fill="#b4202c" opacity="1.00" d=" M 177.42 206.36 C 182.00 209.12 186.30 212.41 189.61 216.66 C 181.71 221.44 173.79 226.83 164.58 228.68 C 169.15 221.42 174.26 214.39 177.42 206.36 Z" />
</g>
<g id="#f2dad6ff">
<path fill="#f2dad6" opacity="1.00" d=" M 106.69 213.37 C 113.25 214.04 119.71 215.35 126.22 216.32 C 124.53 217.13 122.83 217.94 121.13 218.75 C 120.19 220.48 119.24 222.21 118.19 223.89 C 117.77 223.79 116.93 223.59 116.51 223.50 C 117.43 221.88 118.36 220.28 119.30 218.68 C 115.09 216.92 110.80 215.37 106.69 213.37 Z" />
</g>
<g id="#feaf0cff">
<path fill="#feaf0c" opacity="1.00" d=" M 51.80 224.30 C 52.59 221.15 54.22 218.15 57.11 216.47 C 59.29 218.07 57.06 220.38 56.03 221.98 C 55.10 223.45 53.32 223.77 51.80 224.30 Z" />
</g>
<g id="#feb50dff">
<path fill="#feb50d" opacity="1.00" d=" M 61.97 220.80 C 64.68 222.53 67.48 224.12 70.37 225.54 C 67.90 228.20 65.02 231.56 60.95 230.20 C 61.04 227.04 61.37 223.90 61.97 220.80 Z" />
</g>
<g id="#ed8ab4ff">
<path fill="#ed8ab4" opacity="1.00" d=" M 126.55 221.69 C 129.00 226.31 130.13 231.45 130.86 236.60 C 127.89 236.67 124.91 236.65 121.94 236.56 C 123.30 231.55 124.77 226.57 126.55 221.69 Z" />
</g>
<g id="#fdb10cff">
<path fill="#fdb10c" opacity="1.00" d=" M 68.91 233.64 C 69.73 231.13 70.75 228.70 71.91 226.33 C 74.47 227.11 76.98 228.00 79.46 229.00 C 78.61 231.80 77.50 234.51 76.10 237.08 C 73.69 235.96 71.29 234.81 68.91 233.64 Z" />
</g>
<g id="#feb00cff">
<path fill="#feb00c" opacity="1.00" d=" M 78.74 238.63 C 78.97 235.26 79.09 230.84 83.04 229.74 C 82.67 233.06 82.44 237.28 78.74 238.63 Z" />
</g>
<g id="#fdaa0bff">
<path fill="#fdaa0b" opacity="1.00" d=" M 94.07 235.75 C 96.93 234.49 99.87 235.25 102.12 237.30 C 100.87 239.10 101.07 241.20 101.73 243.18 C 98.76 244.78 95.21 244.41 93.07 241.67 C 93.74 239.76 94.03 237.76 94.07 235.75 Z" />
</g>
</svg>
