<?xml version="1.0" encoding="UTF-8" ?>
<!DOCTYPE svg PUBLIC "-//W3C//DTD SVG 1.1//EN" "http://www.w3.org/Graphics/SVG/1.1/DTD/svg11.dtd">
<svg width="250pt" height="250pt" viewBox="0 0 250 250" version="1.1" xmlns="http://www.w3.org/2000/svg">
<g id="#ffffffff">
<path fill="#ffffff" opacity="1.00" d=" M 0.00 0.00 L 250.00 0.00 L 250.00 250.00 L 0.00 250.00 L 0.00 0.00 M 99.78 70.23 C 85.67 75.19 74.55 88.30 68.78 101.92 C 66.34 106.38 65.20 111.88 64.93 117.00 C 62.06 121.84 64.46 131.60 65.31 138.23 C 65.31 140.99 66.42 143.66 67.45 146.19 C 68.93 151.39 71.48 158.48 76.01 160.93 C 77.51 167.05 83.60 171.45 88.66 174.62 C 90.93 176.83 93.95 178.49 96.84 179.80 C 99.08 180.80 101.34 182.13 103.80 182.39 C 106.22 183.68 108.95 184.64 111.72 184.55 C 118.17 186.98 125.37 186.11 132.02 185.55 C 132.86 186.66 135.99 186.82 135.83 184.99 C 137.66 185.52 138.71 185.22 139.00 184.08 C 144.77 183.00 150.68 180.74 155.28 176.97 C 158.49 176.63 161.21 173.05 163.22 170.84 C 175.82 163.44 183.39 146.57 185.03 132.02 C 186.73 129.88 186.83 118.97 184.97 117.01 C 184.91 116.19 184.77 114.55 184.71 113.72 C 184.27 108.14 182.45 102.53 179.43 97.79 C 178.82 94.39 176.68 91.41 174.49 88.81 C 170.12 81.40 162.81 75.36 155.20 71.54 C 150.42 68.45 144.72 66.34 139.18 65.27 C 136.59 64.60 133.96 63.69 131.26 64.21 C 120.92 64.04 108.27 63.52 99.78 70.23 Z" />
</g>
<g id="#576841ff">
<path fill="#576841" opacity="1.00" d=" M 99.78 70.23 C 108.27 63.52 120.92 64.04 131.26 64.21 C 127.62 65.22 120.05 63.08 122.14 69.29 C 114.65 69.05 107.13 70.56 99.78 70.23 Z" />
</g>
<g id="#708b52ff">
<path fill="#708b52" opacity="1.00" d=" M 131.26 64.21 C 133.96 63.69 136.59 64.60 139.18 65.27 C 135.05 65.58 133.13 68.92 128.76 68.74 C 127.11 68.88 123.80 69.15 122.14 69.29 C 120.05 63.08 127.62 65.22 131.26 64.21 Z" />
</g>
<g id="#9bb075ff">
<path fill="#9bb075" opacity="1.00" d=" M 139.18 65.27 C 144.72 66.34 150.42 68.45 155.20 71.54 C 150.76 70.58 146.34 69.43 141.80 71.21 C 144.21 73.71 152.19 73.86 150.21 78.33 C 147.29 76.87 144.29 75.54 141.17 74.57 C 139.75 74.11 138.30 73.71 136.87 73.31 C 142.68 70.73 131.42 69.49 128.76 68.74 C 133.13 68.92 135.05 65.58 139.18 65.27 Z" />
</g>
<g id="#47512fff">
<path fill="#47512f" opacity="1.00" d=" M 99.78 70.23 C 107.13 70.56 114.65 69.05 122.14 69.29 C 123.80 69.15 127.11 68.88 128.76 68.74 C 131.42 69.49 142.68 70.73 136.87 73.31 C 136.20 73.17 134.87 72.91 134.21 72.78 C 122.45 70.31 110.08 72.96 99.73 78.79 C 88.22 85.45 78.62 96.01 74.70 108.87 C 73.76 112.33 72.62 115.74 71.79 119.22 C 67.74 118.70 72.58 112.74 71.10 110.96 C 71.99 107.72 69.55 104.93 68.78 101.92 C 74.55 88.30 85.67 75.19 99.78 70.23 Z" />
</g>
<g id="#dbe8bfff">
<path fill="#dbe8bf" opacity="1.00" d=" M 141.80 71.21 C 146.34 69.43 150.76 70.58 155.20 71.54 C 162.81 75.36 170.12 81.40 174.49 88.81 C 174.10 93.00 178.24 99.78 175.29 102.08 C 174.52 100.60 173.66 99.17 172.84 97.72 C 171.83 94.78 170.16 92.17 166.73 92.08 C 162.35 86.18 156.54 81.92 150.21 78.33 C 152.19 73.86 144.21 73.71 141.80 71.21 Z" />
</g>
<g id="#a8a688ff">
<path fill="#a8a688" opacity="1.00" d=" M 99.73 78.79 C 110.08 72.96 122.45 70.31 134.21 72.78 C 130.78 72.74 125.72 71.44 126.96 76.08 C 127.86 79.19 128.94 73.77 130.70 74.02 C 129.76 79.12 138.07 79.67 139.85 75.73 C 139.87 76.28 139.90 77.37 139.92 77.91 C 139.01 79.39 137.51 80.08 135.85 80.36 C 132.01 79.56 128.10 79.00 124.17 78.98 C 107.10 77.85 92.21 89.49 82.92 102.86 C 85.90 94.80 92.39 89.00 99.21 84.19 C 101.59 83.11 99.96 80.66 99.73 78.79 Z" />
</g>
<g id="#d7d5b4ff">
<path fill="#d7d5b4" opacity="1.00" d=" M 126.96 76.08 C 125.72 71.44 130.78 72.74 134.21 72.78 C 134.87 72.91 136.20 73.17 136.87 73.31 C 138.30 73.71 139.75 74.11 141.17 74.57 C 140.84 74.86 140.18 75.44 139.85 75.73 C 138.07 79.67 129.76 79.12 130.70 74.02 C 128.94 73.77 127.86 79.19 126.96 76.08 Z" />
</g>
<g id="#f4f4e8ff">
<path fill="#f4f4e8" opacity="1.00" d=" M 139.85 75.73 C 140.18 75.44 140.84 74.86 141.17 74.57 C 144.29 75.54 147.29 76.87 150.21 78.33 C 156.54 81.92 162.35 86.18 166.73 92.08 C 168.11 95.24 169.97 98.15 171.82 101.06 C 172.36 102.32 172.86 103.60 173.33 104.89 C 170.73 102.53 168.36 102.54 165.16 101.45 C 164.37 106.02 162.18 110.61 157.90 112.85 C 153.01 113.07 148.11 113.10 143.21 112.83 C 128.59 118.60 122.86 92.23 136.76 90.75 C 138.34 86.79 130.30 91.29 129.34 89.60 C 124.43 87.81 115.56 81.94 124.17 78.98 C 128.10 79.00 132.01 79.56 135.85 80.36 C 140.91 81.09 150.22 89.32 149.99 79.88 C 148.24 80.74 145.30 83.63 146.69 79.83 C 148.26 73.99 141.37 84.00 143.21 79.18 C 145.37 72.83 139.02 83.48 139.92 77.91 C 139.90 77.37 139.87 76.28 139.85 75.73 Z" />
</g>
<g id="#d3d4bdff">
<path fill="#d3d4bd" opacity="1.00" d=" M 139.92 77.91 C 139.02 83.48 145.37 72.83 143.21 79.18 C 141.37 84.00 148.26 73.99 146.69 79.83 C 145.30 83.63 148.24 80.74 149.99 79.88 C 150.22 89.32 140.91 81.09 135.85 80.36 C 137.51 80.08 139.01 79.39 139.92 77.91 Z" />
</g>
<g id="#807f60ff">
<path fill="#807f60" opacity="1.00" d=" M 74.70 108.87 C 78.62 96.01 88.22 85.45 99.73 78.79 C 99.96 80.66 101.59 83.11 99.21 84.19 C 92.39 89.00 85.90 94.80 82.92 102.86 C 80.26 105.74 79.90 110.69 74.70 108.87 Z" />
</g>
<g id="#d7dac5ff">
<path fill="#d7dac5" opacity="1.00" d=" M 82.92 102.86 C 92.21 89.49 107.10 77.85 124.17 78.98 C 115.56 81.94 124.43 87.81 129.34 89.60 C 130.30 91.29 138.34 86.79 136.76 90.75 C 122.86 92.23 128.59 118.60 143.21 112.83 C 131.15 112.63 118.97 113.95 106.98 112.29 C 113.43 109.45 120.22 107.44 126.70 104.66 C 127.89 100.64 128.48 96.43 128.82 92.26 C 123.74 88.15 116.37 79.99 109.99 86.95 C 104.86 89.20 108.23 96.92 103.99 99.95 C 100.63 101.53 95.66 102.54 94.91 106.82 C 98.77 108.94 102.63 111.29 106.98 112.29 C 100.72 113.62 93.86 111.58 87.85 113.88 C 87.33 114.15 86.30 114.70 85.78 114.98 C 79.28 117.01 79.94 124.25 79.69 129.80 C 78.94 134.42 82.20 141.57 74.98 141.32 L 74.15 141.09 C 73.49 137.99 72.96 134.86 72.32 131.76 C 72.12 129.79 71.99 127.82 71.91 125.85 C 71.93 125.39 71.95 124.48 71.96 124.02 C 75.20 124.03 79.64 126.91 75.20 129.28 C 72.14 131.00 76.85 130.73 78.17 131.58 C 76.15 121.50 80.59 112.31 82.92 102.86 Z" />
</g>
<g id="#e4e2d5ff">
<path fill="#e4e2d5" opacity="1.00" d=" M 109.99 86.95 C 116.37 79.99 123.74 88.15 128.82 92.26 C 128.48 96.43 127.89 100.64 126.70 104.66 C 120.22 107.44 113.43 109.45 106.98 112.29 C 102.63 111.29 98.77 108.94 94.91 106.82 C 95.66 102.54 100.63 101.53 103.99 99.95 C 108.23 96.92 104.86 89.20 109.99 86.95 Z" />
</g>
<g id="#a2bf80ff">
<path fill="#a2bf80" opacity="1.00" d=" M 175.29 102.08 C 178.24 99.78 174.10 93.00 174.49 88.81 C 176.68 91.41 178.82 94.39 179.43 97.79 C 179.32 102.64 185.02 108.88 178.11 111.21 C 177.99 110.63 177.75 109.45 177.62 108.87 C 177.13 106.52 176.22 104.29 175.29 102.08 Z" />
</g>
<g id="#bdc69cff">
<path fill="#bdc69c" opacity="1.00" d=" M 166.73 92.08 C 170.16 92.17 171.83 94.78 172.84 97.72 C 172.47 98.82 172.13 99.93 171.82 101.06 C 169.97 98.15 168.11 95.24 166.73 92.08 Z" />
</g>
<g id="#85915eff">
<path fill="#85915e" opacity="1.00" d=" M 171.82 101.06 C 172.13 99.93 172.47 98.82 172.84 97.72 C 173.66 99.17 174.52 100.60 175.29 102.08 C 176.22 104.29 177.13 106.52 177.62 108.87 C 177.02 109.51 176.43 110.16 175.86 110.82 L 175.23 111.14 C 174.78 109.00 174.17 106.90 173.33 104.89 C 172.86 103.60 172.36 102.32 171.82 101.06 Z" />
</g>
<g id="#708e54ff">
<path fill="#708e54" opacity="1.00" d=" M 178.11 111.21 C 185.02 108.88 179.32 102.64 179.43 97.79 C 182.45 102.53 184.27 108.14 184.71 113.72 C 184.30 118.14 184.15 122.59 183.98 127.02 C 182.97 125.91 181.68 125.17 180.27 124.70 C 180.03 120.12 178.86 115.70 178.11 111.21 Z" />
</g>
<g id="#dce3c5ff">
<path fill="#dce3c5" opacity="1.00" d=" M 165.16 101.45 C 168.36 102.54 170.73 102.53 173.33 104.89 C 174.17 106.90 174.78 109.00 175.23 111.14 C 173.57 113.66 167.25 111.83 171.98 111.01 C 175.78 112.07 173.15 106.09 170.97 108.92 C 166.24 110.12 172.09 116.93 168.20 118.22 C 166.41 116.51 164.50 114.95 162.50 113.50 C 161.33 112.10 159.43 112.94 157.90 112.85 C 162.18 110.61 164.37 106.02 165.16 101.45 Z" />
</g>
<g id="#657546ff">
<path fill="#657546" opacity="1.00" d=" M 64.93 117.00 C 65.20 111.88 66.34 106.38 68.78 101.92 C 69.55 104.93 71.99 107.72 71.10 110.96 C 72.58 112.74 67.74 118.70 71.79 119.22 C 71.88 120.82 71.91 122.42 71.96 124.02 C 71.95 124.48 71.93 125.39 71.91 125.85 C 68.56 132.45 70.63 119.50 68.48 119.59 C 66.39 122.46 67.09 118.54 66.88 116.87 C 65.64 119.55 64.62 121.11 64.93 117.00 Z" />
</g>
<g id="#abab87ff">
<path fill="#abab87" opacity="1.00" d=" M 74.70 108.87 C 79.90 110.69 80.26 105.74 82.92 102.86 C 80.59 112.31 76.15 121.50 78.17 131.58 C 76.85 130.73 72.14 131.00 75.20 129.28 C 79.64 126.91 75.20 124.03 71.96 124.02 C 71.91 122.42 71.88 120.82 71.79 119.22 C 72.62 115.74 73.76 112.33 74.70 108.87 Z" />
</g>
<g id="#afb38dff">
<path fill="#afb38d" opacity="1.00" d=" M 170.97 108.92 C 173.15 106.09 175.78 112.07 171.98 111.01 C 167.25 111.83 173.57 113.66 175.23 111.14 L 175.86 110.82 C 176.99 119.83 178.17 129.18 175.26 137.98 C 173.62 137.18 171.83 137.12 170.12 137.73 C 170.88 135.45 171.09 133.30 168.21 132.78 L 168.46 132.16 C 170.62 127.81 170.78 122.40 168.20 118.22 C 172.09 116.93 166.24 110.12 170.97 108.92 Z" />
</g>
<g id="#3f4928ff">
<path fill="#3f4928" opacity="1.00" d=" M 175.86 110.82 C 176.43 110.16 177.02 109.51 177.62 108.87 C 177.75 109.45 177.99 110.63 178.11 111.21 C 178.86 115.70 180.03 120.12 180.27 124.70 C 180.08 132.19 176.27 139.39 177.66 146.92 C 177.06 149.79 174.24 152.02 175.07 155.24 C 180.67 147.08 183.42 136.89 183.98 127.02 C 184.15 122.59 184.30 118.14 184.71 113.72 C 184.77 114.55 184.91 116.19 184.97 117.01 C 185.00 122.01 184.98 127.02 185.03 132.02 C 183.39 146.57 175.82 163.44 163.22 170.84 C 160.18 169.13 150.78 175.33 155.28 176.97 C 150.68 180.74 144.77 183.00 139.00 184.08 C 129.97 183.66 151.25 180.71 147.48 178.49 C 138.92 179.93 128.60 182.44 120.67 178.38 C 127.74 178.66 134.52 176.60 141.23 174.69 C 152.62 171.11 162.56 163.04 169.01 153.04 C 172.00 148.47 173.92 143.25 175.26 137.98 C 178.17 129.18 176.99 119.83 175.86 110.82 Z" />
</g>
<g id="#94cc7dff">
<path fill="#94cc7d" opacity="1.00" d=" M 106.98 112.29 C 118.97 113.95 131.15 112.63 143.21 112.83 C 148.11 113.10 153.01 113.07 157.90 112.85 C 159.43 112.94 161.33 112.10 162.50 113.50 C 157.74 113.78 152.99 113.93 148.23 114.10 C 128.10 113.84 107.97 114.18 87.85 113.88 C 93.86 111.58 100.72 113.62 106.98 112.29 Z" />
</g>
<g id="#578848ff">
<path fill="#578848" opacity="1.00" d=" M 85.78 114.98 C 86.30 114.70 87.33 114.15 87.85 113.88 C 107.97 114.18 128.10 113.84 148.23 114.10 C 147.91 114.34 147.28 114.83 146.97 115.07 C 127.29 115.62 107.32 113.75 87.80 115.77 L 87.04 116.00 C 86.72 115.74 86.09 115.23 85.78 114.98 Z" />
</g>
<g id="#76bc52ff">
<path fill="#76bc52" opacity="1.00" d=" M 148.23 114.10 C 152.99 113.93 157.74 113.78 162.50 113.50 C 164.50 114.95 166.41 116.51 168.20 118.22 C 170.78 122.40 170.62 127.81 168.46 132.16 C 168.21 131.89 167.71 131.33 167.46 131.06 C 169.59 125.11 167.84 115.77 160.05 115.85 C 161.34 121.73 157.57 131.06 162.04 135.49 C 157.05 136.02 152.02 136.08 147.01 136.01 C 146.97 133.93 146.91 131.86 146.89 129.79 C 146.95 125.19 147.00 120.60 146.95 116.01 L 146.97 115.07 C 147.28 114.83 147.91 114.34 148.23 114.10 M 148.22 118.20 C 148.57 121.15 148.80 124.10 149.11 127.06 C 147.94 127.29 147.58 128.24 148.00 129.92 C 146.44 135.97 158.50 136.65 159.08 131.34 C 159.10 129.15 159.01 126.96 158.87 124.78 C 160.08 119.58 152.63 113.35 148.22 118.20 Z" />
</g>
<g id="#74b85eff">
<path fill="#74b85e" opacity="1.00" d=" M 79.69 129.80 C 79.94 124.25 79.28 117.01 85.78 114.98 C 86.09 115.23 86.72 115.74 87.04 116.00 C 79.43 120.68 79.79 132.08 88.79 135.21 L 89.12 136.03 C 88.75 136.31 88.00 136.87 87.63 137.15 C 84.04 135.97 81.63 132.87 79.69 129.80 Z" />
</g>
<g id="#a0c593ff">
<path fill="#a0c593" opacity="1.00" d=" M 87.80 115.77 C 107.32 113.75 127.29 115.62 146.97 115.07 L 146.95 116.01 C 127.23 115.87 107.51 116.28 87.80 115.77 Z" />
</g>
<g id="#d4efc2ff">
<path fill="#d4efc2" opacity="1.00" d=" M 87.04 116.00 L 87.80 115.77 C 107.51 116.28 127.23 115.87 146.95 116.01 C 147.00 120.60 146.95 125.19 146.89 129.79 C 151.10 137.32 128.78 137.70 136.09 132.20 C 141.59 132.95 146.39 124.89 142.09 120.93 C 138.88 115.93 130.83 117.48 128.53 122.63 C 124.86 117.96 115.57 115.26 113.29 122.40 C 109.43 131.08 122.82 135.84 127.03 128.98 C 129.34 124.86 130.78 132.66 134.20 132.43 C 132.18 134.10 130.32 136.56 126.99 134.95 C 114.26 135.25 101.52 134.69 88.79 135.21 C 79.79 132.08 79.43 120.68 87.04 116.00 M 90.32 118.26 C 87.68 119.10 84.04 122.32 87.19 124.82 C 88.68 127.90 94.51 125.86 94.04 130.01 C 91.30 131.61 85.82 124.98 86.12 129.82 C 89.58 133.03 97.17 133.83 97.98 127.93 C 98.66 122.67 90.02 125.03 89.98 120.97 C 92.69 119.35 96.13 125.13 96.96 121.01 C 96.34 118.55 92.88 116.46 90.32 118.26 M 100.22 118.10 C 97.04 121.25 99.86 126.82 99.12 130.75 C 101.72 134.24 104.97 130.27 104.24 127.06 C 108.81 125.19 105.42 133.12 109.94 131.99 C 114.65 130.41 110.87 122.84 111.88 119.25 C 109.55 115.62 104.40 120.17 106.78 123.96 C 101.59 125.86 105.93 115.90 100.22 118.10 Z" />
</g>
<g id="#d7ecc6ff">
<path fill="#d7ecc6" opacity="1.00" d=" M 160.05 115.85 C 167.84 115.77 169.59 125.11 167.46 131.06 C 165.79 132.69 164.02 134.24 162.04 135.49 C 157.57 131.06 161.34 121.73 160.05 115.85 Z" />
</g>
<g id="#889b64ff">
<path fill="#889b64" opacity="1.00" d=" M 65.31 138.23 C 64.46 131.60 62.06 121.84 64.93 117.00 C 64.62 121.11 65.64 119.55 66.88 116.87 C 67.09 118.54 66.39 122.46 68.48 119.59 C 70.63 119.50 68.56 132.45 71.91 125.85 C 71.99 127.82 72.12 129.79 72.32 131.76 C 72.29 145.20 66.81 118.37 68.06 134.03 C 68.34 137.98 66.97 134.23 66.07 132.79 C 65.88 134.15 65.50 136.87 65.31 138.23 Z" />
</g>
<g id="#c5e9acff">
<path fill="#c5e9ac" opacity="1.00" d=" M 148.22 118.20 C 152.63 113.35 160.08 119.58 158.87 124.78 C 158.25 127.63 155.72 129.42 152.80 129.05 C 153.80 127.01 155.75 125.72 157.14 123.98 C 155.37 123.17 153.75 124.81 152.05 125.14 C 152.23 123.33 152.55 121.55 152.77 119.75 C 149.43 121.67 154.20 128.09 149.11 127.06 C 148.80 124.10 148.57 121.15 148.22 118.20 Z" />
</g>
<g id="#89957cff">
<path fill="#89957c" opacity="1.00" d=" M 184.97 117.01 C 186.83 118.97 186.73 129.88 185.03 132.02 C 184.98 127.02 185.00 122.01 184.97 117.01 Z" />
</g>
<g id="#77c749ff">
<path fill="#77c749" opacity="1.00" d=" M 90.32 118.26 C 92.88 116.46 96.34 118.55 96.96 121.01 C 96.13 125.13 92.69 119.35 89.98 120.97 C 90.02 125.03 98.66 122.67 97.98 127.93 C 97.17 133.83 89.58 133.03 86.12 129.82 C 85.82 124.98 91.30 131.61 94.04 130.01 C 94.51 125.86 88.68 127.90 87.19 124.82 C 84.04 122.32 87.68 119.10 90.32 118.26 Z" />
</g>
<g id="#85d74cff">
<path fill="#85d74c" opacity="1.00" d=" M 100.22 118.10 C 105.93 115.90 101.59 125.86 106.78 123.96 C 104.40 120.17 109.55 115.62 111.88 119.25 C 110.87 122.84 114.65 130.41 109.94 131.99 C 105.42 133.12 108.81 125.19 104.24 127.06 C 104.97 130.27 101.72 134.24 99.12 130.75 C 99.86 126.82 97.04 121.25 100.22 118.10 Z" />
</g>
<g id="#7ed04aff">
<path fill="#7ed04a" opacity="1.00" d=" M 113.29 122.40 C 115.57 115.26 124.86 117.96 128.53 122.63 C 130.83 117.48 138.88 115.93 142.09 120.93 C 146.39 124.89 141.59 132.95 136.09 132.20 C 135.61 132.26 134.67 132.37 134.20 132.43 C 130.78 132.66 129.34 124.86 127.03 128.98 C 122.82 135.84 109.43 131.08 113.29 122.40 M 119.22 121.10 C 117.18 123.13 116.68 128.00 119.23 129.90 C 124.34 131.54 125.17 119.03 119.22 121.10 M 134.24 121.15 C 130.75 123.59 133.11 131.07 137.74 129.96 C 138.90 126.44 140.53 119.13 134.24 121.15 Z" />
</g>
<g id="#a8e37aff">
<path fill="#a8e37a" opacity="1.00" d=" M 149.11 127.06 C 154.20 128.09 149.43 121.67 152.77 119.75 C 152.55 121.55 152.23 123.33 152.05 125.14 C 153.75 124.81 155.37 123.17 157.14 123.98 C 155.75 125.72 153.80 127.01 152.80 129.05 C 155.72 129.42 158.25 127.63 158.87 124.78 C 159.01 126.96 159.10 129.15 159.08 131.34 C 155.35 131.22 151.70 130.30 148.00 129.92 C 147.58 128.24 147.94 127.29 149.11 127.06 Z" />
</g>
<g id="#d2eec0ff">
<path fill="#d2eec0" opacity="1.00" d=" M 119.22 121.10 C 125.17 119.03 124.34 131.54 119.23 129.90 C 116.68 128.00 117.18 123.13 119.22 121.10 Z" />
</g>
<g id="#ccebbbff">
<path fill="#ccebbb" opacity="1.00" d=" M 134.24 121.15 C 140.53 119.13 138.90 126.44 137.74 129.96 C 133.11 131.07 130.75 123.59 134.24 121.15 Z" />
</g>
<g id="#4f643aff">
<path fill="#4f643a" opacity="1.00" d=" M 180.27 124.70 C 181.68 125.17 182.97 125.91 183.98 127.02 C 183.42 136.89 180.67 147.08 175.07 155.24 C 174.24 152.02 177.06 149.79 177.66 146.92 C 176.27 139.39 180.08 132.19 180.27 124.70 Z" />
</g>
<g id="#b7c992ff">
<path fill="#b7c992" opacity="1.00" d=" M 68.06 134.03 C 66.81 118.37 72.29 145.20 72.32 131.76 C 72.96 134.86 73.49 137.99 74.15 141.09 C 73.19 145.81 70.72 139.63 70.22 137.69 C 72.96 148.96 66.83 138.31 67.45 146.19 C 66.42 143.66 65.31 140.99 65.31 138.23 C 65.50 136.87 65.88 134.15 66.07 132.79 C 66.97 134.23 68.34 137.98 68.06 134.03 Z" />
</g>
<g id="#f7f8edff">
<path fill="#f7f8ed" opacity="1.00" d=" M 74.98 141.32 C 82.20 141.57 78.94 134.42 79.69 129.80 C 81.63 132.87 84.04 135.97 87.63 137.15 C 94.63 138.55 101.80 137.82 108.88 138.09 C 117.54 143.72 117.19 155.29 113.81 163.93 C 109.38 163.34 105.29 161.13 100.79 160.95 C 101.26 162.73 106.02 165.56 101.84 165.25 C 99.20 163.78 96.54 162.37 93.86 161.01 C 96.59 163.70 100.34 166.09 95.86 169.35 C 95.39 168.99 94.44 168.28 93.96 167.92 C 90.69 165.59 84.17 159.74 86.86 166.98 C 82.41 166.71 78.75 164.31 76.01 160.93 C 73.15 156.77 72.23 151.87 72.24 146.93 C 77.70 151.15 75.15 145.12 74.98 141.32 Z" />
</g>
<g id="#a0d089ff">
<path fill="#a0d089" opacity="1.00" d=" M 136.09 132.20 C 128.78 137.70 151.10 137.32 146.89 129.79 C 146.91 131.86 146.97 133.93 147.01 136.01 C 127.71 136.03 108.41 135.95 89.12 136.03 L 88.79 135.21 C 101.52 134.69 114.26 135.25 126.99 134.95 C 130.32 136.56 132.18 134.10 134.20 132.43 C 134.67 132.37 135.61 132.26 136.09 132.20 Z" />
</g>
<g id="#a2f235ff">
<path fill="#a2f235" opacity="1.00" d=" M 148.00 129.92 C 151.70 130.30 155.35 131.22 159.08 131.34 C 158.50 136.65 146.44 135.97 148.00 129.92 Z" />
</g>
<g id="#578d43ff">
<path fill="#578d43" opacity="1.00" d=" M 167.46 131.06 C 167.71 131.33 168.21 131.89 168.46 132.16 L 168.21 132.78 C 166.57 134.29 164.80 135.65 163.04 137.01 C 137.90 137.10 112.77 136.78 87.63 137.15 C 88.00 136.87 88.75 136.31 89.12 136.03 C 108.41 135.95 127.71 136.03 147.01 136.01 C 152.02 136.08 157.05 136.02 162.04 135.49 C 164.02 134.24 165.79 132.69 167.46 131.06 Z" />
</g>
<g id="#c6c7b5ff">
<path fill="#c6c7b5" opacity="1.00" d=" M 163.04 137.01 C 164.80 135.65 166.57 134.29 168.21 132.78 C 171.09 133.30 170.88 135.45 170.12 137.73 C 170.27 140.42 181.03 138.87 169.52 140.43 C 167.60 144.18 166.12 148.17 164.00 151.82 C 159.32 157.93 153.69 163.15 147.06 167.03 C 140.98 168.28 135.11 171.13 128.79 170.92 C 133.32 167.28 145.65 168.20 145.95 161.17 C 139.18 160.07 131.03 156.66 125.32 162.10 C 125.27 161.68 125.16 160.85 125.10 160.43 C 126.79 159.48 128.49 158.33 128.79 156.26 C 132.83 157.69 140.75 159.22 146.74 158.78 C 151.39 155.44 153.55 149.15 158.96 146.92 C 156.69 152.14 149.72 156.60 148.60 161.29 C 155.71 157.27 162.67 149.12 166.15 140.88 C 162.90 141.55 161.80 145.40 158.96 146.92 C 160.37 143.98 163.08 141.46 162.94 137.97 L 163.04 137.01 Z" />
</g>
<g id="#98c187ff">
<path fill="#98c187" opacity="1.00" d=" M 87.63 137.15 C 112.77 136.78 137.90 137.10 163.04 137.01 L 162.94 137.97 C 145.88 138.14 128.81 137.77 111.75 138.15 C 111.03 138.13 109.59 138.10 108.88 138.09 C 101.80 137.82 94.63 138.55 87.63 137.15 Z" />
</g>
<g id="#929372ff">
<path fill="#929372" opacity="1.00" d=" M 170.12 137.73 C 171.83 137.12 173.62 137.18 175.26 137.98 C 173.92 143.25 172.00 148.47 169.01 153.04 C 167.34 152.62 165.67 152.19 164.00 151.82 C 166.12 148.17 167.60 144.18 169.52 140.43 C 181.03 138.87 170.27 140.42 170.12 137.73 Z" />
</g>
<g id="#dce7c3ff">
<path fill="#dce7c3" opacity="1.00" d=" M 70.22 137.69 C 70.72 139.63 73.19 145.81 74.15 141.09 L 74.98 141.32 C 75.15 145.12 77.70 151.15 72.24 146.93 C 72.23 151.87 73.15 156.77 76.01 160.93 C 71.48 158.48 68.93 151.39 67.45 146.19 C 66.83 138.31 72.96 148.96 70.22 137.69 Z" />
</g>
<g id="#ebecdfff">
<path fill="#ebecdf" opacity="1.00" d=" M 108.88 138.09 C 109.59 138.10 111.03 138.13 111.75 138.15 C 116.19 140.28 120.89 141.76 125.55 143.36 C 126.19 147.75 126.99 152.17 128.79 156.26 C 128.49 158.33 126.79 159.48 125.10 160.43 C 120.78 164.44 115.83 167.33 109.83 164.97 C 111.74 166.95 116.51 169.78 110.81 169.29 C 108.22 168.59 105.72 167.59 103.15 166.81 C 102.83 166.42 102.17 165.64 101.84 165.25 C 106.02 165.56 101.26 162.73 100.79 160.95 C 105.29 161.13 109.38 163.34 113.81 163.93 C 117.19 155.29 117.54 143.72 108.88 138.09 Z" />
</g>
<g id="#dcdcceff">
<path fill="#dcdcce" opacity="1.00" d=" M 111.75 138.15 C 128.81 137.77 145.88 138.14 162.94 137.97 C 163.08 141.46 160.37 143.98 158.96 146.92 C 153.55 149.15 151.39 155.44 146.74 158.78 C 140.75 159.22 132.83 157.69 128.79 156.26 C 126.99 152.17 126.19 147.75 125.55 143.36 C 120.89 141.76 116.19 140.28 111.75 138.15 Z" />
</g>
<g id="#dbdacdff">
<path fill="#dbdacd" opacity="1.00" d=" M 158.96 146.92 C 161.80 145.40 162.90 141.55 166.15 140.88 C 162.67 149.12 155.71 157.27 148.60 161.29 C 149.72 156.60 156.69 152.14 158.96 146.92 Z" />
</g>
<g id="#767559ff">
<path fill="#767559" opacity="1.00" d=" M 147.06 167.03 C 153.69 163.15 159.32 157.93 164.00 151.82 C 165.67 152.19 167.34 152.62 169.01 153.04 C 162.56 163.04 152.62 171.11 141.23 174.69 C 138.23 170.44 131.32 178.69 132.18 173.75 C 137.34 172.04 142.45 169.92 147.06 167.03 Z" />
</g>
<g id="#deddcfff">
<path fill="#deddcf" opacity="1.00" d=" M 125.32 162.10 C 131.03 156.66 139.18 160.07 145.95 161.17 C 145.65 168.20 133.32 167.28 128.79 170.92 C 124.58 170.96 120.37 170.91 116.16 170.72 C 114.82 170.36 112.15 169.64 110.81 169.29 C 116.51 169.78 111.74 166.95 109.83 164.97 C 115.83 167.33 120.78 164.44 125.10 160.43 C 125.16 160.85 125.27 161.68 125.32 162.10 Z" />
</g>
<g id="#d5e0b9ff">
<path fill="#d5e0b9" opacity="1.00" d=" M 76.01 160.93 C 78.75 164.31 82.41 166.71 86.86 166.98 C 84.17 159.74 90.69 165.59 93.96 167.92 C 88.12 167.17 93.78 170.91 95.72 172.53 C 94.25 174.58 90.69 172.85 88.66 174.62 C 83.60 171.45 77.51 167.05 76.01 160.93 Z" />
</g>
<g id="#d3d3b5ff">
<path fill="#d3d3b5" opacity="1.00" d=" M 93.86 161.01 C 96.54 162.37 99.20 163.78 101.84 165.25 C 102.17 165.64 102.83 166.42 103.15 166.81 C 105.39 169.69 109.28 170.10 112.51 171.25 C 111.87 172.89 111.27 174.56 111.32 176.36 C 107.11 174.85 102.89 173.39 98.76 171.69 C 97.79 170.91 96.82 170.14 95.86 169.35 C 100.34 166.09 96.59 163.70 93.86 161.01 Z" />
</g>
<g id="#b2b291ff">
<path fill="#b2b291" opacity="1.00" d=" M 103.15 166.81 C 105.72 167.59 108.22 168.59 110.81 169.29 C 112.15 169.64 114.82 170.36 116.16 170.72 C 113.98 172.11 119.72 172.59 118.27 175.95 C 119.67 173.28 124.80 170.97 124.25 175.81 C 120.64 171.88 120.67 179.07 115.76 177.38 C 114.54 177.16 113.32 176.95 112.10 176.72 L 111.32 176.36 C 111.27 174.56 111.87 172.89 112.51 171.25 C 109.28 170.10 105.39 169.69 103.15 166.81 Z" />
</g>
<g id="#949273ff">
<path fill="#949273" opacity="1.00" d=" M 128.79 170.92 C 135.11 171.13 140.98 168.28 147.06 167.03 C 142.45 169.92 137.34 172.04 132.18 173.75 C 131.32 178.69 138.23 170.44 141.23 174.69 C 134.52 176.60 127.74 178.66 120.67 178.38 C 119.03 178.04 117.40 177.72 115.76 177.38 C 120.67 179.07 120.64 171.88 124.25 175.81 C 124.80 170.97 119.67 173.28 118.27 175.95 C 119.72 172.59 113.98 172.11 116.16 170.72 C 120.37 170.91 124.58 170.96 128.79 170.92 Z" />
</g>
<g id="#abbe86ff">
<path fill="#abbe86" opacity="1.00" d=" M 95.72 172.53 C 93.78 170.91 88.12 167.17 93.96 167.92 C 94.44 168.28 95.39 168.99 95.86 169.35 C 96.82 170.14 97.79 170.91 98.76 171.69 C 97.78 174.21 101.73 175.00 103.20 176.34 C 101.28 177.83 99.10 178.91 96.84 179.80 C 93.95 178.49 90.93 176.83 88.66 174.62 C 90.69 172.85 94.25 174.58 95.72 172.53 Z" />
</g>
<g id="#5a6c48ff">
<path fill="#5a6c48" opacity="1.00" d=" M 155.28 176.97 C 150.78 175.33 160.18 169.13 163.22 170.84 C 161.21 173.05 158.49 176.63 155.28 176.97 Z" />
</g>
<g id="#738451ff">
<path fill="#738451" opacity="1.00" d=" M 103.20 176.34 C 101.73 175.00 97.78 174.21 98.76 171.69 C 102.89 173.39 107.11 174.85 111.32 176.36 L 112.10 176.72 C 111.53 176.86 110.39 177.13 109.83 177.27 C 114.01 180.15 120.03 179.56 123.31 183.76 C 119.44 184.01 115.58 184.27 111.72 184.55 C 108.95 184.64 106.22 183.68 103.80 182.39 C 106.23 182.01 115.64 183.95 109.39 181.78 C 113.30 177.97 105.69 177.93 103.20 176.34 Z" />
</g>
<g id="#8ca266ff">
<path fill="#8ca266" opacity="1.00" d=" M 103.20 176.34 C 105.69 177.93 113.30 177.97 109.39 181.78 C 115.64 183.95 106.23 182.01 103.80 182.39 C 101.34 182.13 99.08 180.80 96.84 179.80 C 99.10 178.91 101.28 177.83 103.20 176.34 Z" />
</g>
<g id="#55633dff">
<path fill="#55633d" opacity="1.00" d=" M 109.83 177.27 C 110.39 177.13 111.53 176.86 112.10 176.72 C 113.32 176.95 114.54 177.16 115.76 177.38 C 117.40 177.72 119.03 178.04 120.67 178.38 C 128.60 182.44 138.92 179.93 147.48 178.49 C 151.25 180.71 129.97 183.66 139.00 184.08 C 138.71 185.22 137.66 185.52 135.83 184.99 C 134.53 184.76 133.19 184.93 132.02 185.55 C 125.37 186.11 118.17 186.98 111.72 184.55 C 115.58 184.27 119.44 184.01 123.31 183.76 C 120.03 179.56 114.01 180.15 109.83 177.27 Z" />
</g>
<g id="#b4b9a9ff">
<path fill="#b4b9a9" opacity="1.00" d=" M 132.02 185.55 C 133.19 184.93 134.53 184.76 135.83 184.99 C 135.99 186.82 132.86 186.66 132.02 185.55 Z" />
</g>
</svg>
