<?xml version="1.0" encoding="UTF-8" ?>
<!DOCTYPE svg PUBLIC "-//W3C//DTD SVG 1.1//EN" "http://www.w3.org/Graphics/SVG/1.1/DTD/svg11.dtd">
<svg width="250pt" height="250pt" viewBox="0 0 250 250" version="1.1" xmlns="http://www.w3.org/2000/svg">
<g id="#ffffffff">
<path fill="#ffffff" opacity="1.00" d=" M 0.00 0.00 L 229.56 0.00 C 226.85 2.35 223.47 4.58 222.55 8.27 C 222.14 10.89 221.99 13.68 222.86 16.23 C 224.39 19.50 227.99 20.96 230.27 23.60 C 230.94 28.36 230.41 33.20 230.54 38.00 C 230.41 50.77 230.83 63.56 230.33 76.32 C 227.74 73.07 226.44 69.07 224.52 65.43 C 220.30 57.65 215.44 50.11 209.06 43.91 C 190.86 24.43 165.54 11.59 139.02 8.73 C 122.92 7.72 106.37 7.83 90.94 13.10 C 73.98 18.11 58.91 28.09 46.03 40.02 C 32.45 54.04 21.61 71.13 16.86 90.20 C 14.62 99.62 13.22 109.32 13.55 119.02 C 13.95 130.51 16.39 141.86 20.10 152.73 C 21.44 156.59 23.45 160.28 23.82 164.43 C 17.60 167.15 9.71 167.25 5.16 172.86 C 11.93 187.95 22.23 201.51 34.88 212.16 C 45.73 222.53 59.05 229.90 72.56 236.20 C 96.92 245.91 124.07 249.27 149.92 244.28 C 169.34 240.89 188.03 233.34 204.37 222.30 C 216.77 213.20 227.93 202.28 236.63 189.55 C 239.59 185.10 243.11 180.89 245.05 175.85 C 246.28 173.67 244.25 171.51 242.33 170.69 C 237.36 168.40 232.00 167.05 227.09 164.59 C 227.46 159.46 230.59 155.21 232.19 150.46 C 235.79 140.39 237.15 129.64 237.58 119.00 C 237.51 88.65 237.57 58.29 237.50 27.94 C 236.70 21.80 244.50 20.12 245.92 14.78 C 247.82 8.60 243.21 2.51 237.77 0.00 L 250.00 0.00 L 250.00 250.00 L 0.00 250.00 L 0.00 0.00 Z" />
<path fill="#ffffff" opacity="1.00" d=" M 232.37 7.18 C 236.07 4.62 241.25 9.95 238.80 13.62 C 237.27 16.98 231.74 16.98 230.23 13.62 C 228.76 11.39 230.10 8.26 232.37 7.18 Z" />
<path fill="#ffffff" opacity="1.00" d=" M 109.19 17.78 C 116.72 16.49 124.41 16.20 132.01 16.82 C 139.18 17.82 146.71 18.50 153.11 22.16 C 149.47 23.11 145.68 22.56 141.99 22.32 C 130.62 20.91 119.12 20.85 107.78 19.15 C 108.14 18.81 108.84 18.12 109.19 17.78 Z" />
<path fill="#ffffff" opacity="1.00" d=" M 58.82 54.43 C 63.08 54.19 66.74 56.77 70.21 58.89 C 75.60 62.72 80.87 66.80 85.46 71.57 C 86.28 72.25 86.48 73.29 86.71 74.28 C 78.92 78.58 71.81 84.27 66.47 91.43 C 65.62 92.27 65.03 93.78 63.61 93.62 C 59.06 81.22 55.42 67.58 58.82 54.43 Z" />
<path fill="#ffffff" opacity="1.00" d=" M 176.87 60.94 C 181.40 57.91 186.14 53.96 191.91 54.28 C 194.18 68.05 191.96 82.49 185.98 95.06 C 182.68 91.65 179.91 87.76 176.45 84.52 C 172.24 80.47 167.33 77.24 162.26 74.39 C 166.38 69.17 171.72 65.08 176.87 60.94 Z" />
<path fill="#ffffff" opacity="1.00" d=" M 83.46 101.76 C 86.10 101.10 88.93 101.11 91.59 101.63 C 95.81 103.45 99.02 108.65 97.08 113.14 C 93.92 116.27 88.96 115.37 84.92 115.56 C 81.81 115.83 78.29 114.23 77.55 110.96 C 77.36 107.04 79.72 103.13 83.46 101.76 Z" />
<path fill="#ffffff" opacity="1.00" d=" M 155.38 101.53 C 159.05 101.01 163.44 100.84 166.11 103.91 C 168.98 106.03 169.21 110.10 168.20 113.23 C 165.20 116.07 160.77 115.60 156.97 115.52 C 153.74 115.39 149.28 114.90 148.75 110.91 C 148.70 106.84 151.68 103.01 155.38 101.53 Z" />
<path fill="#ffffff" opacity="1.00" d=" M 72.63 130.96 C 72.10 127.43 71.77 123.47 73.79 120.32 C 83.06 121.74 92.28 125.30 99.05 131.97 C 101.09 134.09 103.52 136.31 103.74 139.44 C 93.69 140.87 83.60 138.11 74.93 133.08 C 74.05 132.49 73.29 131.79 72.63 130.96 Z" />
<path fill="#ffffff" opacity="1.00" d=" M 162.31 123.03 C 165.55 121.85 168.95 121.22 172.26 120.25 C 174.94 123.16 175.45 127.98 173.44 131.37 C 170.13 134.62 165.48 135.94 161.26 137.59 C 155.21 140.04 148.48 140.17 142.10 139.16 C 146.50 131.51 153.93 125.73 162.31 123.03 Z" />
<path fill="#ffffff" opacity="1.00" d=" M 118.82 140.06 C 128.89 137.61 139.54 141.28 147.40 147.67 C 153.40 152.45 156.80 159.64 158.87 166.87 C 160.54 165.93 162.12 164.84 163.61 163.64 C 168.89 159.31 175.28 156.50 181.86 154.77 C 189.34 153.26 197.02 152.92 204.61 153.62 C 202.59 169.58 191.97 182.88 179.79 192.69 C 165.52 203.43 148.03 208.82 130.68 212.07 C 127.24 212.76 123.65 212.97 120.19 212.27 C 107.85 209.74 95.94 205.44 84.45 200.33 C 76.49 196.49 68.90 191.71 62.34 185.75 C 52.41 177.86 45.98 165.99 43.53 153.66 C 52.39 152.76 61.37 153.11 70.11 154.88 C 77.03 157.58 83.20 161.72 88.49 166.92 C 94.25 154.33 105.10 143.41 118.82 140.06 M 115.54 166.61 C 116.44 169.39 119.28 170.39 121.70 171.47 C 121.54 173.67 121.56 176.14 119.66 177.66 C 117.74 180.17 114.26 179.85 111.51 179.30 C 108.49 177.81 108.04 174.25 107.31 171.34 C 105.99 171.34 104.68 171.33 103.37 171.31 C 101.69 178.98 109.74 185.70 117.03 184.41 C 119.66 183.67 121.84 181.93 123.99 180.32 C 125.32 181.28 126.64 182.26 128.08 183.07 C 135.45 187.92 146.56 179.94 144.58 171.39 C 143.47 171.07 142.38 170.72 141.29 170.36 C 140.32 172.53 139.85 174.88 138.89 177.05 C 136.95 180.11 132.79 180.07 129.71 179.14 C 126.66 177.81 126.23 174.38 126.26 171.45 C 131.19 170.25 133.40 165.46 134.58 160.98 C 135.02 159.34 133.74 157.49 132.00 157.57 C 126.34 157.46 120.66 157.31 115.01 157.67 C 111.54 159.62 114.42 163.94 115.54 166.61 Z" />
<path fill="#ffffff" opacity="1.00" d=" M 15.33 174.60 C 19.25 173.45 22.86 171.25 26.93 170.67 C 30.56 172.09 31.67 176.22 33.90 179.06 C 43.29 191.90 55.15 203.15 69.25 210.66 C 73.49 212.67 77.56 215.00 81.86 216.88 C 93.43 221.40 105.68 224.03 118.03 225.23 C 150.16 226.93 183.76 215.79 206.10 192.11 C 210.11 188.05 214.31 184.10 217.33 179.21 C 219.47 176.40 221.25 172.47 224.96 171.60 C 228.89 172.29 232.55 174.10 235.80 176.37 C 235.73 179.14 234.19 181.46 232.56 183.58 C 225.25 193.46 217.31 203.03 207.65 210.71 C 186.78 228.81 159.18 237.29 132.03 239.46 C 115.19 240.40 98.38 237.22 82.31 232.43 C 67.17 226.88 52.77 219.01 40.60 208.35 C 32.61 200.92 25.07 192.90 19.22 183.65 C 17.56 180.82 14.56 178.22 15.33 174.60 Z" />
</g>
<g id="#00aaa6ff">
<path fill="#00aaa6" opacity="1.00" d=" M 229.56 0.00 L 237.77 0.00 C 243.21 2.51 247.82 8.60 245.92 14.78 C 244.50 20.12 236.70 21.80 237.50 27.94 C 237.57 58.29 237.51 88.65 237.58 119.00 C 237.15 129.64 235.79 140.39 232.19 150.46 C 230.59 155.21 227.46 159.46 227.09 164.59 C 232.00 167.05 237.36 168.40 242.33 170.69 C 244.25 171.51 246.28 173.67 245.05 175.85 C 243.11 180.89 239.59 185.10 236.63 189.55 C 227.93 202.28 216.77 213.20 204.37 222.30 C 188.03 233.34 169.34 240.89 149.92 244.28 C 124.07 249.27 96.92 245.91 72.56 236.20 C 59.05 229.90 45.73 222.53 34.88 212.16 C 22.23 201.51 11.93 187.95 5.16 172.86 C 9.71 167.25 17.60 167.15 23.82 164.43 C 23.45 160.28 21.44 156.59 20.10 152.73 C 16.39 141.86 13.95 130.51 13.55 119.02 C 13.22 109.32 14.62 99.62 16.86 90.20 C 21.61 71.13 32.45 54.04 46.03 40.02 C 58.91 28.09 73.98 18.11 90.94 13.10 C 106.37 7.83 122.92 7.72 139.02 8.73 C 165.54 11.59 190.86 24.43 209.06 43.91 C 215.44 50.11 220.30 57.65 224.52 65.43 C 226.44 69.07 227.74 73.07 230.33 76.32 C 230.83 63.56 230.41 50.77 230.54 38.00 C 230.41 33.20 230.94 28.36 230.27 23.60 C 227.99 20.96 224.39 19.50 222.86 16.23 C 221.99 13.68 222.14 10.89 222.55 8.27 C 223.47 4.58 226.85 2.35 229.56 0.00 M 232.37 7.18 C 230.10 8.26 228.76 11.39 230.23 13.62 C 231.74 16.98 237.27 16.98 238.80 13.62 C 241.25 9.95 236.07 4.62 232.37 7.18 M 109.19 17.78 C 108.84 18.12 108.14 18.81 107.78 19.15 C 119.12 20.85 130.62 20.91 141.99 22.32 C 145.68 22.56 149.47 23.11 153.11 22.16 C 146.71 18.50 139.18 17.82 132.01 16.82 C 124.41 16.20 116.72 16.49 109.19 17.78 M 51.26 39.23 C 46.00 45.26 47.51 53.67 47.33 61.00 C 47.10 71.77 50.87 81.99 53.46 92.28 C 54.36 96.66 56.33 100.71 57.42 105.02 C 55.60 109.55 52.90 113.71 51.40 118.40 C 46.78 129.14 44.89 140.80 43.57 152.35 C 52.42 152.71 61.70 151.42 70.11 154.88 C 61.37 153.11 52.39 152.76 43.53 153.66 C 45.98 165.99 52.41 177.86 62.34 185.75 C 68.90 191.71 76.49 196.49 84.45 200.33 C 95.94 205.44 107.85 209.74 120.19 212.27 C 123.65 212.97 127.24 212.76 130.68 212.07 C 148.03 208.82 165.52 203.43 179.79 192.69 C 191.97 182.88 202.59 169.58 204.61 153.62 C 197.02 152.92 189.34 153.26 181.86 154.77 C 189.21 151.94 197.11 152.35 204.82 152.59 C 204.53 137.68 199.83 123.30 194.34 109.59 C 193.49 107.91 193.61 106.07 194.29 104.37 C 199.33 88.34 204.06 71.89 204.16 54.96 C 203.51 49.76 203.61 43.93 200.55 39.47 C 194.66 38.56 189.07 41.33 184.06 44.07 C 172.19 50.55 164.21 61.82 154.13 70.48 C 145.28 66.62 135.62 64.99 126.00 65.18 C 115.79 64.70 105.52 65.95 95.90 69.48 C 90.78 63.81 85.28 58.52 79.93 53.07 C 73.70 47.66 66.56 43.24 58.85 40.26 C 56.43 39.30 53.80 39.37 51.26 39.23 M 15.33 174.60 C 14.56 178.22 17.56 180.82 19.22 183.65 C 25.07 192.90 32.61 200.92 40.60 208.35 C 52.77 219.01 67.17 226.88 82.31 232.43 C 98.38 237.22 115.19 240.40 132.03 239.46 C 159.18 237.29 186.78 228.81 207.65 210.71 C 217.31 203.03 225.25 193.46 232.56 183.58 C 234.19 181.46 235.73 179.14 235.80 176.37 C 232.55 174.10 228.89 172.29 224.96 171.60 C 221.25 172.47 219.47 176.40 217.33 179.21 C 214.31 184.10 210.11 188.05 206.10 192.11 C 183.76 215.79 150.16 226.93 118.03 225.23 C 105.68 224.03 93.43 221.40 81.86 216.88 C 77.56 215.00 73.49 212.67 69.25 210.66 C 55.15 203.15 43.29 191.90 33.90 179.06 C 31.67 176.22 30.56 172.09 26.93 170.67 C 22.86 171.25 19.25 173.45 15.33 174.60 Z" />
</g>
<g id="#221f35ff">
<path fill="#221f35" opacity="1.00" d=" M 51.26 39.23 C 53.80 39.37 56.43 39.30 58.85 40.26 C 66.56 43.24 73.70 47.66 79.93 53.07 C 85.28 58.52 90.78 63.81 95.90 69.48 C 105.52 65.95 115.79 64.70 126.00 65.18 C 135.62 64.99 145.28 66.62 154.13 70.48 C 164.21 61.82 172.19 50.55 184.06 44.07 C 189.07 41.33 194.66 38.56 200.55 39.47 C 203.61 43.93 203.51 49.76 204.16 54.96 C 204.06 71.89 199.33 88.34 194.29 104.37 C 193.61 106.07 193.49 107.91 194.34 109.59 C 199.83 123.30 204.53 137.68 204.82 152.59 C 197.11 152.35 189.21 151.94 181.86 154.77 C 175.28 156.50 168.89 159.31 163.61 163.64 C 162.12 164.84 160.54 165.93 158.87 166.87 C 156.80 159.64 153.40 152.45 147.40 147.67 C 139.54 141.28 128.89 137.61 118.82 140.06 C 105.10 143.41 94.25 154.33 88.49 166.92 C 83.20 161.72 77.03 157.58 70.11 154.88 C 61.70 151.42 52.42 152.71 43.57 152.35 C 44.89 140.80 46.78 129.14 51.40 118.40 C 52.90 113.71 55.60 109.55 57.42 105.02 C 56.33 100.71 54.36 96.66 53.46 92.28 C 50.87 81.99 47.10 71.77 47.33 61.00 C 47.51 53.67 46.00 45.26 51.26 39.23 M 58.82 54.43 C 55.42 67.58 59.06 81.22 63.61 93.62 C 65.03 93.78 65.62 92.27 66.47 91.43 C 71.81 84.27 78.92 78.58 86.71 74.28 C 86.48 73.29 86.28 72.25 85.46 71.57 C 80.87 66.80 75.60 62.72 70.21 58.89 C 66.74 56.77 63.08 54.19 58.82 54.43 M 176.87 60.94 C 171.72 65.08 166.38 69.17 162.26 74.39 C 167.33 77.24 172.24 80.47 176.45 84.52 C 179.91 87.76 182.68 91.65 185.98 95.06 C 191.96 82.49 194.18 68.05 191.91 54.28 C 186.14 53.96 181.40 57.91 176.87 60.94 M 83.46 101.76 C 79.72 103.13 77.36 107.04 77.55 110.96 C 78.29 114.23 81.81 115.83 84.92 115.56 C 88.96 115.37 93.92 116.27 97.08 113.14 C 99.02 108.65 95.81 103.45 91.59 101.63 C 88.93 101.11 86.10 101.10 83.46 101.76 M 155.38 101.53 C 151.68 103.01 148.70 106.84 148.75 110.91 C 149.28 114.90 153.74 115.39 156.97 115.52 C 160.77 115.60 165.20 116.07 168.20 113.23 C 169.21 110.10 168.98 106.03 166.11 103.91 C 163.44 100.84 159.05 101.01 155.38 101.53 M 72.63 130.96 C 73.29 131.79 74.05 132.49 74.93 133.08 C 83.60 138.11 93.69 140.87 103.74 139.44 C 103.52 136.31 101.09 134.09 99.05 131.97 C 92.28 125.30 83.06 121.74 73.79 120.32 C 71.77 123.47 72.10 127.43 72.63 130.96 M 162.31 123.03 C 153.93 125.73 146.50 131.51 142.10 139.16 C 148.48 140.17 155.21 140.04 161.26 137.59 C 165.48 135.94 170.13 134.62 173.44 131.37 C 175.45 127.98 174.94 123.16 172.26 120.25 C 168.95 121.22 165.55 121.85 162.31 123.03 Z" />
<path fill="#221f35" opacity="1.00" d=" M 115.54 166.61 C 114.42 163.94 111.54 159.62 115.01 157.67 C 120.66 157.31 126.34 157.46 132.00 157.57 C 133.74 157.49 135.02 159.34 134.58 160.98 C 133.40 165.46 131.19 170.25 126.26 171.45 C 126.23 174.38 126.66 177.81 129.71 179.14 C 132.79 180.07 136.95 180.11 138.89 177.05 C 139.85 174.88 140.32 172.53 141.29 170.36 C 142.38 170.72 143.47 171.07 144.58 171.39 C 146.56 179.94 135.45 187.92 128.08 183.07 C 126.64 182.26 125.32 181.28 123.99 180.32 C 121.84 181.93 119.66 183.67 117.03 184.41 C 109.74 185.70 101.69 178.98 103.37 171.31 C 104.68 171.33 105.99 171.34 107.31 171.34 C 108.04 174.25 108.49 177.81 111.51 179.30 C 114.26 179.85 117.74 180.17 119.66 177.66 C 121.56 176.14 121.54 173.67 121.70 171.47 C 119.28 170.39 116.44 169.39 115.54 166.61 Z" />
</g>
</svg>
