<?xml version="1.0" encoding="UTF-8" ?>
<!DOCTYPE svg PUBLIC "-//W3C//DTD SVG 1.1//EN" "http://www.w3.org/Graphics/SVG/1.1/DTD/svg11.dtd">
<svg width="250pt" height="250pt" viewBox="0 0 250 250" version="1.1" xmlns="http://www.w3.org/2000/svg">
<g id="#fefffdff">
<path fill="#fefffd" opacity="1.00" d=" M 0.00 0.00 L 0.28 0.00 C 0.21 -0.00 0.07 -0.00 0.00 -0.00 L 0.00 0.00 Z" />
<path fill="#fefffd" opacity="1.00" d=" M 45.14 34.28 C 53.32 30.65 63.50 32.99 69.62 39.40 C 75.72 45.37 77.90 54.92 74.90 62.93 C 72.78 69.24 67.50 73.70 61.75 76.67 C 61.91 96.11 61.60 115.55 61.90 134.98 C 61.70 147.71 61.89 160.43 61.78 173.16 C 70.02 176.71 76.14 184.93 76.23 194.04 C 76.45 203.89 69.53 213.48 59.98 216.10 C 52.00 218.73 42.86 215.91 37.12 209.94 C 31.01 203.61 29.15 193.54 32.75 185.48 C 35.07 179.84 39.88 175.74 45.28 173.14 C 45.10 157.78 45.36 142.41 45.13 127.04 C 45.46 110.28 45.09 93.50 45.32 76.74 C 41.65 74.50 37.71 72.30 35.30 68.60 C 30.27 61.91 29.50 52.31 33.44 44.92 C 35.89 40.11 40.10 36.24 45.14 34.28 Z" />
<path fill="#fefffd" opacity="1.00" d=" M 117.43 33.93 C 122.75 31.73 128.66 32.55 134.02 34.15 C 134.18 34.24 134.50 34.41 134.65 34.50 C 142.73 38.83 148.54 47.71 147.52 57.07 C 147.34 64.77 142.08 71.12 136.00 75.31 C 135.39 75.46 134.17 75.76 133.56 75.91 C 133.45 108.52 133.30 141.13 133.60 173.73 C 136.93 174.98 139.94 176.97 142.30 179.65 C 142.51 179.88 142.92 180.35 143.13 180.58 C 145.63 184.63 147.75 189.15 147.57 194.03 C 148.23 206.14 137.13 217.50 124.97 216.91 C 112.78 217.41 101.73 206.08 102.39 193.93 C 102.40 184.96 108.47 176.79 116.55 173.24 C 116.52 160.10 116.66 146.96 116.45 133.82 C 116.67 114.62 116.62 95.41 116.45 76.21 C 108.50 72.84 102.38 64.88 102.43 56.07 C 101.83 46.46 108.30 36.97 117.43 33.93 Z" />
<path fill="#fefffd" opacity="1.00" d=" M 188.02 34.11 C 193.87 31.80 200.45 32.07 206.14 34.70 C 206.65 34.95 207.66 35.44 208.17 35.69 C 213.36 39.29 217.78 44.59 218.72 51.00 C 219.81 54.94 218.86 58.96 218.00 62.84 C 215.55 68.42 211.51 73.85 205.49 75.79 C 204.25 78.72 204.86 81.93 204.76 85.01 C 204.73 114.38 204.82 143.76 204.71 173.14 C 212.84 176.69 219.23 184.86 218.88 193.99 C 219.49 203.02 213.59 211.81 205.30 215.20 C 196.64 218.90 185.70 216.69 179.52 209.47 C 174.54 203.75 172.37 195.40 174.75 188.08 C 176.55 181.28 181.95 175.98 188.27 173.18 C 188.07 141.76 188.26 110.33 188.18 78.90 C 188.07 77.87 187.86 76.86 187.56 75.86 C 179.85 73.41 175.14 65.69 173.75 58.06 C 173.51 54.64 174.05 51.25 174.74 47.91 C 177.28 41.86 181.88 36.64 188.02 34.11 Z" />
<path fill="#fefffd" opacity="1.00" d=" M -0.00 248.16 C 1.21 248.15 1.83 248.77 1.85 250.00 L 0.00 250.00 L 0.00 248.16 Z" />
<path fill="#fefffd" opacity="1.00" d=" M 248.35 250.00 C 248.08 248.76 248.63 248.14 250.00 248.14 L 250.00 250.00 L 248.35 250.00 Z" />
</g>
<g id="#0183ccff">
<path fill="#0183cc" opacity="1.00" d=" M 0.28 0.00 L 250.00 0.00 L 250.00 84.24 C 236.37 83.05 222.66 84.28 209.01 83.52 C 208.44 81.70 207.85 79.89 207.13 78.12 C 211.85 74.14 217.16 70.18 219.21 64.08 C 221.52 56.46 221.33 47.30 215.82 41.05 C 210.00 32.33 198.11 29.69 188.46 32.60 C 185.06 33.81 182.16 36.03 179.01 37.73 C 175.10 39.17 172.31 42.41 168.96 44.76 C 168.87 45.95 168.78 47.15 168.69 48.34 C 165.48 48.48 162.19 48.96 159.03 48.21 C 157.69 46.66 156.76 44.82 155.77 43.05 C 154.76 46.33 153.21 49.40 151.27 52.22 C 150.18 48.25 149.90 43.42 146.26 40.79 C 142.65 38.26 139.63 33.79 134.65 34.50 C 134.50 34.41 134.18 34.24 134.02 34.15 C 129.02 29.27 120.92 30.42 114.99 32.88 C 107.62 35.57 102.29 42.43 100.78 50.02 C 99.71 54.78 101.40 60.03 98.55 64.35 C 98.33 63.60 97.89 62.09 97.67 61.33 C 96.33 63.06 95.58 65.96 93.06 66.19 C 88.27 66.57 83.37 66.89 78.60 66.25 C 76.29 64.83 77.61 61.86 77.77 59.73 C 79.53 52.20 76.99 43.96 71.51 38.55 C 61.46 26.88 39.83 28.72 32.46 42.47 C 30.08 47.24 27.94 52.55 28.73 57.99 C 29.31 62.86 32.11 67.02 34.58 71.13 C 32.08 73.35 29.84 76.85 26.02 76.35 C 17.35 76.26 8.67 76.45 0.00 76.08 L 0.00 -0.00 C 0.07 -0.00 0.21 -0.00 0.28 0.00 Z" />
</g>
<g id="#016ab5ff">
<path fill="#016ab5" opacity="1.00" d=" M 32.46 42.47 C 39.83 28.72 61.46 26.88 71.51 38.55 C 76.99 43.96 79.53 52.20 77.77 59.73 C 77.61 61.86 76.29 64.83 78.60 66.25 C 83.37 66.89 88.27 66.57 93.06 66.19 C 95.58 65.96 96.33 63.06 97.67 61.33 C 97.89 62.09 98.33 63.60 98.55 64.35 C 101.40 60.03 99.71 54.78 100.78 50.02 C 102.29 42.43 107.62 35.57 114.99 32.88 C 120.92 30.42 129.02 29.27 134.02 34.15 C 128.66 32.55 122.75 31.73 117.43 33.93 C 108.30 36.97 101.83 46.46 102.43 56.07 C 102.38 64.88 108.50 72.84 116.45 76.21 C 116.62 95.41 116.67 114.62 116.45 133.82 C 113.87 138.13 114.74 143.23 114.63 148.00 C 114.59 155.36 114.57 162.72 114.48 170.08 C 112.40 171.21 110.36 172.51 108.05 173.12 C 105.02 172.63 102.13 171.42 99.04 171.28 C 94.36 171.00 89.68 171.59 85.00 171.35 C 81.87 171.29 79.33 169.23 76.70 167.77 C 76.29 170.16 75.88 172.56 75.50 174.96 C 72.88 171.74 68.72 171.24 65.05 169.95 C 64.10 167.42 64.37 164.66 64.32 162.02 C 64.54 155.00 63.98 147.98 63.51 140.98 C 63.40 138.88 62.58 136.94 61.90 134.98 C 61.60 115.55 61.91 96.11 61.75 76.67 C 67.50 73.70 72.78 69.24 74.90 62.93 C 77.90 54.92 75.72 45.37 69.62 39.40 C 63.50 32.99 53.32 30.65 45.14 34.28 C 40.10 36.24 35.89 40.11 33.44 44.92 C 29.50 52.31 30.27 61.91 35.30 68.60 C 37.71 72.30 41.65 74.50 45.32 76.74 C 45.09 93.50 45.46 110.28 45.13 127.04 C 44.27 129.27 43.38 131.56 43.51 134.01 C 43.64 143.34 43.49 152.67 43.54 161.99 C 43.41 164.80 43.62 167.85 42.20 170.39 C 39.92 173.53 36.81 175.93 33.99 178.55 C 33.41 178.13 32.23 177.27 31.64 176.84 C 30.32 179.56 29.03 182.29 27.77 185.04 C 27.18 184.98 26.58 184.92 25.99 184.87 C 25.76 186.27 25.54 187.68 25.32 189.09 C 24.28 184.39 23.56 179.62 22.71 174.88 C 21.07 177.03 19.53 179.26 18.07 181.55 C 12.05 181.83 6.02 181.58 0.00 181.90 L 0.00 76.08 C 8.67 76.45 17.35 76.26 26.02 76.35 C 29.84 76.85 32.08 73.35 34.58 71.13 C 32.11 67.02 29.31 62.86 28.73 57.99 C 27.94 52.55 30.08 47.24 32.46 42.47 Z" />
<path fill="#016ab5" opacity="1.00" d=" M 134.65 34.50 C 139.63 33.79 142.65 38.26 146.26 40.79 C 149.90 43.42 150.18 48.25 151.27 52.22 C 153.21 49.40 154.76 46.33 155.77 43.05 C 156.76 44.82 157.69 46.66 159.03 48.21 C 162.19 48.96 165.48 48.48 168.69 48.34 C 168.78 47.15 168.87 45.95 168.96 44.76 C 172.31 42.41 175.10 39.17 179.01 37.73 C 175.08 43.09 172.15 49.50 172.33 56.27 C 173.04 61.28 174.81 66.19 177.41 70.53 C 179.38 74.10 183.53 75.34 186.28 78.10 C 186.85 80.68 186.75 83.34 186.75 85.96 C 186.34 113.29 186.83 140.65 185.60 167.97 C 185.80 170.64 183.44 172.23 181.79 173.91 C 177.03 178.17 173.09 183.66 171.68 189.97 C 170.55 195.10 172.26 200.18 173.34 205.15 C 174.03 206.84 172.61 208.09 171.81 209.40 C 171.43 205.08 171.44 200.57 169.13 196.73 C 167.91 200.27 167.01 203.92 166.15 207.57 C 165.87 207.54 165.32 207.50 165.04 207.47 C 164.30 205.81 163.57 204.15 162.84 202.49 C 161.40 204.31 159.96 206.12 158.53 207.94 C 156.55 205.96 154.60 203.97 152.64 201.98 C 151.34 204.16 150.19 206.42 149.07 208.69 C 148.59 207.96 148.10 207.23 147.60 206.51 C 148.55 202.67 149.91 198.88 150.20 194.91 C 150.19 188.56 147.95 181.91 142.79 177.90 C 142.88 178.57 143.04 179.91 143.13 180.58 C 142.92 180.35 142.51 179.88 142.30 179.65 C 142.46 179.03 142.77 177.79 142.93 177.17 C 140.45 175.02 137.99 172.85 135.54 170.66 C 135.99 165.10 135.47 159.53 135.38 153.97 C 135.43 131.98 134.88 110.00 134.59 88.01 C 134.63 84.78 134.13 81.40 135.17 78.28 C 136.44 76.62 138.23 75.48 139.88 74.24 C 138.59 74.61 137.30 74.97 136.00 75.31 C 142.08 71.12 147.34 64.77 147.52 57.07 C 148.54 47.71 142.73 38.83 134.65 34.50 Z" />
<path fill="#016ab5" opacity="1.00" d=" M 207.13 78.12 C 207.85 79.89 208.44 81.70 209.01 83.52 C 222.66 84.28 236.37 83.05 250.00 84.24 L 250.00 198.44 C 241.20 198.49 232.39 198.47 223.59 198.50 C 223.49 196.40 223.35 194.30 223.26 192.20 C 222.65 192.57 222.04 192.94 221.44 193.32 C 221.10 185.97 216.96 179.78 213.19 173.76 C 211.91 171.74 209.41 171.17 207.42 170.12 C 206.24 144.42 206.63 118.68 206.37 92.97 C 206.38 88.02 205.83 82.97 207.13 78.12 Z" />
</g>
<g id="#014e9eff">
<path fill="#014e9e" opacity="1.00" d=" M 188.46 32.60 C 198.11 29.69 210.00 32.33 215.82 41.05 C 221.33 47.30 221.52 56.46 219.21 64.08 C 217.16 70.18 211.85 74.14 207.13 78.12 C 205.83 82.97 206.38 88.02 206.37 92.97 C 206.63 118.68 206.24 144.42 207.42 170.12 C 209.41 171.17 211.91 171.74 213.19 173.76 C 216.96 179.78 221.10 185.97 221.44 193.32 C 222.04 192.94 222.65 192.57 223.26 192.20 C 223.35 194.30 223.49 196.40 223.59 198.50 C 232.39 198.47 241.20 198.49 250.00 198.44 L 250.00 248.14 C 248.63 248.14 248.08 248.76 248.35 250.00 L 1.85 250.00 C 1.83 248.77 1.21 248.15 -0.00 248.16 L 0.00 181.90 C 6.02 181.58 12.05 181.83 18.07 181.55 C 19.53 179.26 21.07 177.03 22.71 174.88 C 23.56 179.62 24.28 184.39 25.32 189.09 C 25.54 187.68 25.76 186.27 25.99 184.87 C 26.58 184.92 27.18 184.98 27.77 185.04 C 29.03 182.29 30.32 179.56 31.64 176.84 C 32.23 177.27 33.41 178.13 33.99 178.55 C 36.81 175.93 39.92 173.53 42.20 170.39 C 43.62 167.85 43.41 164.80 43.54 161.99 C 43.49 152.67 43.64 143.34 43.51 134.01 C 43.38 131.56 44.27 129.27 45.13 127.04 C 45.36 142.41 45.10 157.78 45.28 173.14 C 39.88 175.74 35.07 179.84 32.75 185.48 C 29.15 193.54 31.01 203.61 37.12 209.94 C 42.86 215.91 52.00 218.73 59.98 216.10 C 69.53 213.48 76.45 203.89 76.23 194.04 C 76.14 184.93 70.02 176.71 61.78 173.16 C 61.89 160.43 61.70 147.71 61.90 134.98 C 62.58 136.94 63.40 138.88 63.51 140.98 C 63.98 147.98 64.54 155.00 64.32 162.02 C 64.37 164.66 64.10 167.42 65.05 169.95 C 68.72 171.24 72.88 171.74 75.50 174.96 C 75.88 172.56 76.29 170.16 76.70 167.77 C 79.33 169.23 81.87 171.29 85.00 171.35 C 89.68 171.59 94.36 171.00 99.04 171.28 C 102.13 171.42 105.02 172.63 108.05 173.12 C 110.36 172.51 112.40 171.21 114.48 170.08 C 114.57 162.72 114.59 155.36 114.63 148.00 C 114.74 143.23 113.87 138.13 116.45 133.82 C 116.66 146.96 116.52 160.10 116.55 173.24 C 108.47 176.79 102.40 184.96 102.39 193.93 C 101.73 206.08 112.78 217.41 124.97 216.91 C 137.13 217.50 148.23 206.14 147.57 194.03 C 147.75 189.15 145.63 184.63 143.13 180.58 C 143.04 179.91 142.88 178.57 142.79 177.90 C 147.95 181.91 150.19 188.56 150.20 194.91 C 149.91 198.88 148.55 202.67 147.60 206.51 C 148.10 207.23 148.59 207.96 149.07 208.69 C 150.19 206.42 151.34 204.16 152.64 201.98 C 154.60 203.97 156.55 205.96 158.53 207.94 C 159.96 206.12 161.40 204.31 162.84 202.49 C 163.57 204.15 164.30 205.81 165.04 207.47 C 165.32 207.50 165.87 207.54 166.15 207.57 C 167.01 203.92 167.91 200.27 169.13 196.73 C 171.44 200.57 171.43 205.08 171.81 209.40 C 172.61 208.09 174.03 206.84 173.34 205.15 C 172.26 200.18 170.55 195.10 171.68 189.97 C 173.09 183.66 177.03 178.17 181.79 173.91 C 183.44 172.23 185.80 170.64 185.60 167.97 C 186.83 140.65 186.34 113.29 186.75 85.96 C 186.75 83.34 186.85 80.68 186.28 78.10 C 183.53 75.34 179.38 74.10 177.41 70.53 C 174.81 66.19 173.04 61.28 172.33 56.27 C 172.15 49.50 175.08 43.09 179.01 37.73 C 182.16 36.03 185.06 33.81 188.46 32.60 M 188.02 34.11 C 181.88 36.64 177.28 41.86 174.74 47.91 C 174.05 51.25 173.51 54.64 173.75 58.06 C 175.14 65.69 179.85 73.41 187.56 75.86 C 187.86 76.86 188.07 77.87 188.18 78.90 C 188.26 110.33 188.07 141.76 188.27 173.18 C 181.95 175.98 176.55 181.28 174.75 188.08 C 172.37 195.40 174.54 203.75 179.52 209.47 C 185.70 216.69 196.64 218.90 205.30 215.20 C 213.59 211.81 219.49 203.02 218.88 193.99 C 219.23 184.86 212.84 176.69 204.71 173.14 C 204.82 143.76 204.73 114.38 204.76 85.01 C 204.86 81.93 204.25 78.72 205.49 75.79 C 211.51 73.85 215.55 68.42 218.00 62.84 C 218.86 58.96 219.81 54.94 218.72 51.00 C 217.78 44.59 213.36 39.29 208.17 35.69 C 207.66 35.44 206.65 34.95 206.14 34.70 C 200.45 32.07 193.87 31.80 188.02 34.11 Z" />
<path fill="#014e9e" opacity="1.00" d=" M 136.00 75.31 C 137.30 74.97 138.59 74.61 139.88 74.24 C 138.23 75.48 136.44 76.62 135.17 78.28 C 134.13 81.40 134.63 84.78 134.59 88.01 C 134.88 110.00 135.43 131.98 135.38 153.97 C 135.47 159.53 135.99 165.10 135.54 170.66 C 137.99 172.85 140.45 175.02 142.93 177.17 C 142.77 177.79 142.46 179.03 142.30 179.65 C 139.94 176.97 136.93 174.98 133.60 173.73 C 133.30 141.13 133.45 108.52 133.56 75.91 C 134.17 75.76 135.39 75.46 136.00 75.31 Z" />
</g>
</svg>
