<?xml version="1.0" encoding="UTF-8" ?>
<!DOCTYPE svg PUBLIC "-//W3C//DTD SVG 1.1//EN" "http://www.w3.org/Graphics/SVG/1.1/DTD/svg11.dtd">
<svg width="250pt" height="250pt" viewBox="0 0 250 250" version="1.1" xmlns="http://www.w3.org/2000/svg">
<g id="#ffffffff">
<path fill="#ffffff" opacity="1.00" d=" M 0.00 0.00 L 250.00 0.00 L 250.00 250.00 L 0.00 250.00 L 0.00 0.00 M 105.85 2.94 L 106.18 3.82 C 104.01 3.08 101.78 4.61 99.59 4.83 C 94.97 5.64 90.33 6.47 85.90 8.04 L 86.74 7.93 C 83.33 8.99 79.98 10.27 76.65 11.57 L 75.56 11.75 L 75.31 12.84 L 74.85 11.92 C 72.91 13.14 71.16 14.63 69.53 16.22 L 68.48 15.91 C 61.71 18.51 56.68 24.20 51.65 29.21 C 49.73 31.78 47.91 34.61 44.88 36.01 C 44.77 38.16 44.26 40.19 42.51 41.60 L 41.64 41.10 C 41.71 41.49 41.85 42.28 41.92 42.68 C 37.42 52.59 33.63 63.02 32.45 73.86 C 31.60 76.35 31.50 78.98 31.44 81.57 C 31.28 87.39 31.62 93.20 31.64 99.02 C 31.82 106.49 34.55 113.55 35.47 120.91 C 36.83 129.64 39.93 137.95 41.90 146.53 C 43.33 150.83 45.54 155.10 49.08 158.03 C 51.05 153.78 53.31 149.37 57.78 147.28 C 58.25 148.43 58.73 149.58 59.20 150.74 C 61.00 151.39 62.76 152.12 64.53 152.86 C 64.41 155.93 65.06 159.41 62.93 161.97 C 59.34 166.25 54.17 168.69 49.63 171.78 C 43.39 176.66 34.50 174.65 28.04 179.04 C 26.51 180.15 24.14 182.06 25.86 184.06 C 31.85 186.69 38.56 187.08 45.00 187.47 C 53.21 187.94 59.61 182.08 66.17 178.09 C 73.95 176.64 81.98 178.72 89.87 178.51 C 90.49 185.19 89.04 191.83 88.34 198.45 C 110.08 210.35 131.97 222.24 155.40 230.51 C 168.25 235.18 181.15 239.73 194.15 243.96 C 193.28 241.01 192.00 238.21 190.53 235.52 C 190.65 233.25 189.17 231.47 187.74 229.89 C 187.76 229.29 187.78 228.09 187.79 227.49 C 191.82 231.32 194.59 236.31 196.80 241.36 C 198.01 241.31 199.22 241.30 200.43 241.16 C 202.19 240.35 201.25 238.53 201.02 237.12 C 199.38 229.54 196.28 222.39 193.93 215.02 C 190.65 206.92 188.32 198.42 184.40 190.59 L 184.63 189.92 C 180.73 178.94 176.27 168.11 173.43 156.79 C 172.19 151.64 169.43 146.42 170.93 141.03 C 171.54 137.98 173.86 135.68 174.82 132.78 C 175.10 129.96 172.32 128.32 171.28 126.00 C 172.03 121.67 173.84 116.80 171.39 112.66 L 171.54 111.97 C 169.98 109.71 168.53 107.37 167.15 105.00 C 168.45 103.45 169.72 101.87 170.96 100.27 C 173.49 100.34 176.03 100.48 178.57 100.56 C 179.63 99.34 180.83 98.21 181.71 96.83 C 181.52 94.38 179.98 92.28 179.21 89.99 C 181.57 85.94 185.16 82.87 188.16 79.33 C 190.28 78.77 192.03 76.94 193.48 75.32 C 204.01 67.93 215.62 62.02 227.99 58.46 C 226.24 53.68 223.52 49.36 220.81 45.08 C 220.37 44.12 219.42 43.70 218.51 43.32 C 217.33 42.29 216.21 41.19 215.05 40.13 C 214.84 36.29 210.90 34.71 208.12 32.89 C 204.62 30.81 202.00 27.67 198.95 25.04 C 194.78 22.45 189.73 21.47 185.94 18.22 C 183.99 16.48 181.39 16.23 178.94 15.72 C 177.46 14.33 175.83 12.99 173.75 12.67 C 170.53 12.10 167.68 10.30 164.40 9.96 C 162.11 8.85 159.58 8.56 157.10 8.24 C 151.50 5.73 145.19 5.54 139.15 5.31 C 136.09 3.40 132.58 3.46 129.11 3.43 C 123.45 1.73 117.41 2.67 111.59 2.58 C 110.78 2.58 109.17 2.59 108.37 2.59 C 107.74 2.68 106.48 2.86 105.85 2.94 Z" />
</g>
<g id="#941014ff">
<path fill="#941014" opacity="1.00" d=" M 105.85 2.94 C 106.48 2.86 107.74 2.68 108.37 2.59 C 109.10 9.04 111.23 15.29 114.27 21.02 C 116.91 14.68 110.86 9.04 111.59 2.58 C 117.41 2.67 123.45 1.73 129.11 3.43 C 131.59 4.35 134.73 4.66 136.03 7.32 C 132.65 8.06 129.28 7.24 126.03 6.31 C 121.71 5.02 117.19 4.81 112.77 4.00 C 115.21 11.37 116.47 19.17 119.95 26.16 C 120.06 19.93 117.89 13.72 119.42 7.53 C 119.10 5.78 121.38 6.13 122.39 6.31 C 124.77 13.46 125.24 21.05 127.39 28.26 C 128.31 26.76 129.66 25.28 129.47 23.39 C 129.25 18.18 127.69 13.16 126.92 8.02 C 129.51 8.39 132.08 8.80 134.66 9.24 C 137.31 16.96 136.01 25.69 140.28 32.87 C 140.73 31.69 141.20 30.53 141.67 29.36 C 144.55 27.52 143.77 23.94 143.74 21.03 C 143.57 18.46 143.64 15.82 142.94 13.32 C 141.33 11.15 139.03 9.59 137.13 7.68 C 146.22 5.75 155.35 9.14 164.40 9.96 C 167.68 10.30 170.53 12.10 173.75 12.67 C 175.83 12.99 177.46 14.33 178.94 15.72 C 178.21 17.32 177.48 18.92 176.77 20.53 C 178.49 20.04 180.22 19.55 181.95 19.08 C 181.14 21.86 180.31 24.63 179.56 27.42 C 181.73 25.60 183.55 23.41 185.02 20.99 C 185.23 22.26 185.46 23.52 185.68 24.79 C 190.04 24.79 194.42 25.53 198.04 28.12 C 196.27 30.66 194.48 33.19 192.86 35.83 C 194.67 34.67 196.48 33.50 198.27 32.30 C 199.68 34.27 200.63 36.50 199.91 38.92 C 201.74 38.00 203.60 37.16 205.48 36.38 C 205.84 39.73 204.54 42.75 202.58 45.37 C 205.47 44.57 208.51 43.08 208.98 39.76 C 206.62 36.25 202.16 34.61 200.44 30.57 C 206.32 31.89 210.37 36.70 215.05 40.13 C 216.21 41.19 217.33 42.29 218.51 43.32 C 217.56 44.76 216.90 46.50 215.48 47.53 C 212.53 48.97 209.24 49.48 206.03 49.97 C 205.78 50.37 205.28 51.18 205.03 51.58 C 206.85 51.48 208.67 51.36 210.49 51.26 C 210.04 52.62 209.57 53.97 209.11 55.33 C 207.83 55.29 206.55 55.26 205.27 55.22 C 206.38 56.11 207.48 57.01 208.58 57.93 C 208.23 58.34 207.54 59.16 207.19 59.57 C 203.35 58.52 199.47 59.92 195.62 59.58 C 191.31 57.69 190.12 52.60 190.13 48.31 C 191.43 47.60 192.75 46.90 194.06 46.21 C 191.56 46.12 189.48 47.24 187.80 49.02 C 185.91 46.96 184.02 44.90 182.13 42.85 C 182.51 41.82 182.90 40.79 183.29 39.76 C 181.63 40.61 179.70 41.11 178.37 42.46 C 176.80 44.66 175.92 47.25 174.84 49.71 C 176.35 48.72 177.86 47.72 179.38 46.75 C 177.48 51.22 175.30 55.55 173.08 59.87 C 177.27 55.82 180.37 50.61 185.46 47.57 C 183.16 52.29 179.68 56.28 176.81 60.65 C 178.69 59.32 180.60 58.02 182.56 56.80 C 181.35 59.09 180.00 61.32 178.37 63.34 C 174.62 67.85 171.56 73.13 166.39 76.21 C 166.84 74.12 167.33 72.04 167.80 69.96 C 166.34 71.54 164.89 73.13 163.49 74.76 C 163.30 73.01 163.08 71.28 162.84 69.54 C 159.88 72.93 158.84 77.38 156.77 81.27 C 156.07 77.27 158.80 73.93 159.35 70.14 C 159.44 64.83 158.67 59.48 156.86 54.48 C 155.09 55.37 153.24 56.06 151.48 56.97 C 151.33 53.79 151.17 50.62 150.89 47.45 C 149.04 47.60 147.19 47.75 145.35 47.88 C 145.04 49.20 144.72 50.52 144.40 51.84 C 141.63 53.21 138.93 54.71 136.30 56.33 C 136.08 59.62 135.83 62.92 135.37 66.19 C 134.62 60.35 136.15 54.31 134.27 48.67 C 133.31 54.13 133.99 59.76 132.57 65.15 C 132.20 58.31 132.31 51.35 130.41 44.69 C 127.13 50.66 129.09 57.77 127.02 64.09 C 125.04 63.72 125.22 61.55 124.93 60.01 C 124.37 55.71 124.70 51.31 123.74 47.06 C 122.68 44.00 120.39 41.58 118.66 38.89 C 118.84 44.33 119.71 49.72 119.87 55.16 C 119.31 51.62 118.99 47.92 116.92 44.87 C 116.32 47.24 115.84 49.64 115.46 52.05 C 115.02 47.74 114.59 42.57 110.08 40.54 C 109.91 42.58 109.76 44.61 109.60 46.65 C 108.97 45.86 108.43 45.00 107.81 44.20 C 108.08 46.38 108.33 48.56 108.58 50.74 C 107.38 51.11 106.18 51.46 104.99 51.83 C 104.84 53.53 104.71 55.23 104.59 56.93 C 103.80 53.50 102.55 50.13 100.14 47.49 C 99.97 49.34 99.84 51.20 99.75 53.06 C 99.00 50.05 97.79 47.17 95.93 44.67 C 96.34 51.30 99.35 57.41 99.89 64.02 C 98.36 60.05 97.05 55.99 95.57 52.00 C 95.31 52.67 94.81 54.03 94.56 54.70 C 92.94 48.98 89.60 43.96 85.04 40.17 C 85.40 41.97 85.78 43.77 86.17 45.57 C 85.12 45.13 84.08 44.69 83.04 44.25 C 85.90 52.42 89.70 60.34 91.00 68.98 C 87.58 61.90 85.82 54.07 81.58 47.38 C 78.58 42.66 76.00 37.68 73.08 32.91 C 70.26 28.25 66.25 24.40 63.92 19.45 C 70.36 22.33 72.79 29.62 77.86 34.13 C 76.82 27.04 71.02 22.32 68.48 15.91 L 69.53 16.22 C 72.28 18.66 73.97 21.98 76.18 24.87 C 78.60 28.09 81.73 30.66 84.87 33.15 C 83.16 25.75 78.56 19.58 75.31 12.84 L 75.56 11.75 L 76.65 11.57 C 81.79 18.59 83.84 27.35 89.11 34.25 C 88.59 30.40 87.45 26.69 86.11 23.06 C 87.77 26.33 89.64 29.52 92.02 32.34 C 91.57 24.19 86.34 17.54 84.16 9.89 C 88.66 15.08 89.02 22.66 94.08 27.39 C 93.92 22.37 91.51 17.94 89.52 13.46 C 88.56 11.63 88.87 9.55 89.10 7.59 C 88.31 7.69 87.53 7.81 86.74 7.93 L 85.90 8.04 C 90.33 6.47 94.97 5.64 99.59 4.83 C 101.83 9.82 103.52 15.07 106.22 19.84 C 107.46 22.20 110.15 23.01 112.39 24.09 C 112.63 16.74 108.02 10.67 106.18 3.82 L 105.85 2.94 M 93.12 6.73 C 95.28 11.51 97.17 16.47 100.22 20.78 C 102.02 15.63 97.93 11.06 95.88 6.65 C 95.19 6.67 93.81 6.71 93.12 6.73 M 145.11 13.74 C 145.30 18.59 145.79 23.43 146.66 28.20 C 148.94 24.90 147.65 20.31 148.89 16.55 C 149.73 17.75 150.53 18.96 151.33 20.18 C 151.44 19.52 151.64 18.21 151.75 17.55 C 156.01 20.43 153.68 26.45 154.24 30.78 C 154.82 30.79 155.99 30.80 156.58 30.81 C 156.70 27.29 157.06 23.78 157.55 20.29 C 154.31 16.67 149.75 14.81 145.11 13.74 M 159.88 21.37 C 160.10 26.95 159.31 32.49 159.19 38.07 C 159.91 34.63 160.57 30.77 163.82 28.77 C 165.06 27.06 167.64 28.10 167.51 30.15 C 167.73 35.83 166.15 41.38 165.27 46.95 C 167.82 41.93 168.96 36.38 170.72 31.07 C 169.68 28.71 168.28 26.46 166.54 24.55 C 164.41 23.32 162.07 22.50 159.88 21.37 Z" />
<path fill="#941014" opacity="1.00" d=" M 59.45 22.58 C 61.28 22.76 63.27 22.95 64.37 24.64 C 72.09 34.04 80.51 43.66 82.97 55.96 C 80.93 53.77 78.90 51.58 76.81 49.44 C 74.96 51.61 74.13 54.30 74.13 57.12 C 73.12 57.72 72.13 58.33 71.11 58.92 C 70.53 61.00 69.93 63.08 69.34 65.17 C 68.31 65.42 67.29 65.67 66.27 65.92 C 66.40 67.43 66.53 68.94 66.67 70.46 C 65.98 70.44 65.29 70.42 64.61 70.40 C 64.97 71.29 65.33 72.17 65.69 73.06 C 62.44 77.85 60.58 83.46 57.27 88.18 C 55.08 88.66 52.80 88.54 50.57 88.70 C 51.96 90.40 53.21 92.20 54.75 93.78 C 52.40 93.14 50.02 92.60 47.60 92.24 C 50.70 95.02 54.13 97.40 57.28 100.11 C 55.78 102.55 54.62 105.20 53.92 107.99 C 46.70 107.60 40.32 103.75 33.20 102.80 C 35.96 102.52 38.72 102.29 41.48 102.05 C 41.25 101.16 41.02 100.29 40.79 99.41 C 41.93 98.56 43.07 97.71 44.22 96.86 C 40.57 94.01 37.63 90.25 33.45 88.11 C 34.63 86.55 35.79 84.97 36.91 83.37 C 35.09 82.76 33.27 82.16 31.44 81.57 C 31.50 78.98 31.60 76.35 32.45 73.86 C 32.58 75.23 32.73 76.60 32.91 77.97 C 36.73 78.95 40.62 79.74 44.59 79.76 C 43.45 76.72 40.44 75.27 37.64 73.87 C 41.42 73.81 45.20 73.34 48.76 72.02 C 47.53 71.02 46.30 70.02 45.07 69.03 C 47.01 69.26 48.96 69.50 50.91 69.73 C 50.74 68.36 50.62 66.98 50.47 65.60 C 46.05 62.95 41.19 61.22 36.45 59.24 C 36.84 58.52 37.61 57.07 38.00 56.35 C 42.66 58.10 47.24 60.07 51.87 61.93 C 50.99 60.13 50.11 58.34 49.25 56.53 C 53.29 57.06 57.24 58.15 60.99 59.76 C 57.20 55.82 52.70 52.70 47.94 50.06 C 44.97 48.55 43.06 45.72 41.92 42.68 C 41.85 42.28 41.71 41.49 41.64 41.10 L 42.51 41.60 C 48.67 45.01 54.05 49.66 60.36 52.81 C 56.58 47.31 50.23 44.75 45.40 40.41 C 46.59 40.52 47.94 40.16 48.93 41.04 C 52.71 43.74 55.91 47.28 60.23 49.19 C 56.91 43.04 50.26 40.03 44.88 36.01 C 47.91 34.61 49.73 31.78 51.65 29.21 C 55.56 32.07 58.92 35.66 63.13 38.10 C 62.41 33.15 58.16 30.11 55.76 26.03 C 59.88 28.89 63.04 32.85 66.93 35.98 C 67.37 30.15 61.51 27.39 59.45 22.58 Z" />
<path fill="#941014" opacity="1.00" d=" M 212.24 51.06 C 214.70 49.82 217.56 49.95 219.77 51.63 C 217.52 54.35 215.93 58.03 212.37 59.27 C 212.32 56.54 211.69 53.76 212.24 51.06 Z" />
<path fill="#941014" opacity="1.00" d=" M 173.74 72.28 C 177.35 66.39 181.92 60.88 188.00 57.42 C 186.44 59.98 184.73 62.45 183.04 64.92 C 185.53 63.68 188.02 62.44 190.56 61.28 C 188.36 64.81 185.72 68.02 183.19 71.30 C 186.20 70.08 189.03 68.47 191.78 66.75 C 195.52 64.39 199.89 63.39 204.11 62.23 C 199.42 65.81 194.25 68.75 189.86 72.73 C 191.87 72.13 193.88 71.50 195.89 70.90 C 195.11 72.38 194.34 73.87 193.48 75.32 C 192.03 76.94 190.28 78.77 188.16 79.33 C 185.63 79.35 183.10 79.41 180.59 79.67 C 180.26 77.96 179.92 76.24 179.59 74.53 C 178.21 74.61 176.83 74.70 175.45 74.79 C 175.44 74.14 175.43 73.50 175.44 72.85 C 175.01 72.71 174.17 72.43 173.74 72.28 Z" />
<path fill="#941014" opacity="1.00" d=" M 86.99 89.95 C 95.69 85.59 105.05 81.47 115.02 82.25 C 126.68 81.66 137.85 87.00 146.42 94.59 C 150.26 97.80 152.70 102.31 156.57 105.50 C 157.15 104.14 157.75 102.79 158.33 101.44 C 159.50 101.76 160.68 102.07 161.86 102.37 C 160.60 103.07 159.52 104.02 158.74 105.23 C 157.93 106.18 157.39 107.49 156.11 107.90 C 152.86 104.78 150.44 100.91 147.13 97.85 C 136.93 87.86 122.24 81.01 107.78 84.35 C 106.14 84.60 104.52 84.99 102.90 85.38 C 115.55 85.13 128.28 89.04 138.48 96.56 C 142.62 99.65 146.09 103.64 148.55 108.18 C 148.65 108.93 148.83 110.41 148.92 111.16 C 148.23 111.14 146.85 111.10 146.16 111.08 C 144.60 107.49 142.74 103.89 139.61 101.41 C 136.73 98.55 132.74 97.15 129.91 94.29 C 128.64 92.75 127.24 91.20 125.26 90.64 C 119.08 88.46 112.56 87.16 106.02 86.87 C 94.09 87.04 82.44 92.34 74.18 100.90 C 74.22 99.92 74.25 98.94 74.28 97.95 L 74.73 97.70 C 78.98 95.38 82.65 92.13 86.99 89.95 Z" />
<path fill="#941014" opacity="1.00" d=" M 65.18 126.04 C 65.77 118.91 66.41 111.70 68.73 104.89 C 68.90 105.49 69.25 106.69 69.42 107.28 C 69.42 108.97 69.41 110.65 69.36 112.34 C 68.29 116.96 65.93 121.27 65.18 126.04 Z" />
<path fill="#941014" opacity="1.00" d=" M 42.21 109.45 C 45.69 108.71 50.24 108.15 52.72 111.31 C 54.28 113.41 56.47 114.83 58.90 115.74 C 57.59 115.91 56.28 116.08 54.98 116.26 C 56.73 117.53 58.49 118.77 60.21 120.07 C 58.14 120.15 56.06 120.18 53.99 120.18 C 56.25 120.88 58.39 121.93 60.17 123.52 C 58.29 123.52 56.40 123.46 54.52 123.39 C 54.49 124.63 54.46 125.87 54.44 127.11 C 52.42 127.34 50.40 127.55 48.38 127.74 C 47.21 125.92 46.27 123.78 44.43 122.54 C 41.86 121.61 39.09 121.54 36.42 121.04 C 41.53 119.38 46.92 119.85 52.19 119.58 C 47.16 118.01 41.79 118.51 36.71 117.38 C 36.49 117.16 36.05 116.70 35.83 116.48 C 39.22 116.13 42.60 115.78 45.97 115.24 C 43.84 113.86 41.52 112.36 42.21 109.45 Z" />
<path fill="#941014" opacity="1.00" d=" M 171.39 112.66 C 173.84 116.80 172.03 121.67 171.28 126.00 C 172.32 128.32 175.10 129.96 174.82 132.78 C 173.86 135.68 171.54 137.98 170.93 141.03 C 169.43 146.42 172.19 151.64 173.43 156.79 C 176.27 168.11 180.73 178.94 184.63 189.92 L 184.40 190.59 C 184.22 191.05 183.86 191.96 183.67 192.42 C 179.85 184.73 178.47 176.04 174.32 168.52 C 174.01 168.40 173.39 168.15 173.08 168.03 C 170.02 166.92 167.08 165.52 164.17 164.07 C 167.59 164.61 171.04 165.08 174.51 165.16 C 173.46 163.53 172.06 162.21 170.40 161.23 C 168.49 153.47 167.19 145.59 165.39 137.82 C 164.99 138.35 164.19 139.41 163.79 139.94 C 162.86 138.09 161.78 136.31 160.58 134.62 C 158.70 132.90 156.58 131.14 153.93 130.90 C 149.71 130.59 145.60 131.92 141.51 132.78 C 140.99 132.48 139.94 131.87 139.41 131.56 L 138.73 131.18 C 142.81 130.63 146.82 129.65 150.93 129.27 C 153.86 129.54 157.02 129.82 159.45 131.67 C 161.63 133.38 163.31 135.63 165.13 137.71 C 167.23 134.42 170.09 131.14 169.95 126.99 C 169.47 126.89 168.51 126.70 168.03 126.60 C 169.21 124.43 170.43 122.28 171.42 120.02 C 171.23 118.56 170.98 117.11 170.76 115.66 C 170.97 114.66 171.18 113.66 171.39 112.66 M 168.59 140.29 C 171.31 137.75 173.37 134.51 174.00 130.80 C 170.43 132.58 169.09 136.59 168.59 140.29 Z" />
<path fill="#941014" opacity="1.00" d=" M 46.19 135.03 C 49.00 131.56 54.04 130.21 58.20 132.01 C 55.24 133.74 51.53 134.58 49.55 137.61 C 47.77 140.22 45.44 142.49 42.24 143.17 C 43.76 140.56 44.86 137.73 46.19 135.03 Z" />
<path fill="#941014" opacity="1.00" d=" M 47.81 143.99 C 49.59 140.88 52.70 138.89 56.32 138.83 C 53.96 141.24 50.91 142.75 47.81 143.99 Z" />
</g>
<g id="#090101ff">
<path fill="#090101" opacity="1.00" d=" M 108.37 2.59 C 109.17 2.59 110.78 2.58 111.59 2.58 C 110.86 9.04 116.91 14.68 114.27 21.02 C 111.23 15.29 109.10 9.04 108.37 2.59 Z" />
<path fill="#090101" opacity="1.00" d=" M 99.59 4.83 C 101.78 4.61 104.01 3.08 106.18 3.82 C 108.02 10.67 112.63 16.74 112.39 24.09 C 110.15 23.01 107.46 22.20 106.22 19.84 C 103.52 15.07 101.83 9.82 99.59 4.83 Z" />
<path fill="#090101" opacity="1.00" d=" M 112.77 4.00 C 117.19 4.81 121.71 5.02 126.03 6.31 C 129.28 7.24 132.65 8.06 136.03 7.32 C 134.73 4.66 131.59 4.35 129.11 3.43 C 132.58 3.46 136.09 3.40 139.15 5.31 C 145.19 5.54 151.50 5.73 157.10 8.24 C 159.58 8.56 162.11 8.85 164.40 9.96 C 155.35 9.14 146.22 5.75 137.13 7.68 C 139.03 9.59 141.33 11.15 142.94 13.32 C 143.64 15.82 143.57 18.46 143.74 21.03 C 143.77 23.94 144.55 27.52 141.67 29.36 C 141.20 30.53 140.73 31.69 140.28 32.87 C 136.01 25.69 137.31 16.96 134.66 9.24 C 132.08 8.80 129.51 8.39 126.92 8.02 C 127.69 13.16 129.25 18.18 129.47 23.39 C 129.66 25.28 128.31 26.76 127.39 28.26 C 125.24 21.05 124.77 13.46 122.39 6.31 C 121.38 6.13 119.10 5.78 119.42 7.53 C 117.89 13.72 120.06 19.93 119.95 26.16 C 116.47 19.17 115.21 11.37 112.77 4.00 Z" />
<path fill="#090101" opacity="1.00" d=" M 93.12 6.73 C 93.81 6.71 95.19 6.67 95.88 6.65 C 97.93 11.06 102.02 15.63 100.22 20.78 C 97.17 16.47 95.28 11.51 93.12 6.73 Z" />
<path fill="#090101" opacity="1.00" d=" M 86.74 7.93 C 87.53 7.81 88.31 7.69 89.10 7.59 C 88.87 9.55 88.56 11.63 89.52 13.46 C 91.51 17.94 93.92 22.37 94.08 27.39 C 89.02 22.66 88.66 15.08 84.16 9.89 C 86.34 17.54 91.57 24.19 92.02 32.34 C 89.64 29.52 87.77 26.33 86.11 23.06 C 87.45 26.69 88.59 30.40 89.11 34.25 C 83.84 27.35 81.79 18.59 76.65 11.57 C 79.98 10.27 83.33 8.99 86.74 7.93 Z" />
<path fill="#090101" opacity="1.00" d=" M 69.53 16.22 C 71.16 14.63 72.91 13.14 74.85 11.92 L 75.31 12.84 C 78.56 19.58 83.16 25.75 84.87 33.15 C 81.73 30.66 78.60 28.09 76.18 24.87 C 73.97 21.98 72.28 18.66 69.53 16.22 Z" />
<path fill="#090101" opacity="1.00" d=" M 145.11 13.74 C 149.75 14.81 154.31 16.67 157.55 20.29 C 157.06 23.78 156.70 27.29 156.58 30.81 C 155.99 30.80 154.82 30.79 154.24 30.78 C 153.68 26.45 156.01 20.43 151.75 17.55 C 151.64 18.21 151.44 19.52 151.33 20.18 C 150.53 18.96 149.73 17.75 148.89 16.55 C 147.65 20.31 148.94 24.90 146.66 28.20 C 145.79 23.43 145.30 18.59 145.11 13.74 Z" />
<path fill="#090101" opacity="1.00" d=" M 51.65 29.21 C 56.68 24.20 61.71 18.51 68.48 15.91 C 71.02 22.32 76.82 27.04 77.86 34.13 C 72.79 29.62 70.36 22.33 63.92 19.45 C 66.25 24.40 70.26 28.25 73.08 32.91 C 76.00 37.68 78.58 42.66 81.58 47.38 C 85.82 54.07 87.58 61.90 91.00 68.98 C 89.70 60.34 85.90 52.42 83.04 44.25 C 84.08 44.69 85.12 45.13 86.17 45.57 C 85.78 43.77 85.40 41.97 85.04 40.17 C 89.60 43.96 92.94 48.98 94.56 54.70 C 94.81 54.03 95.31 52.67 95.57 52.00 C 97.05 55.99 98.36 60.05 99.89 64.02 C 99.35 57.41 96.34 51.30 95.93 44.67 C 97.79 47.17 99.00 50.05 99.75 53.06 C 99.84 51.20 99.97 49.34 100.14 47.49 C 102.55 50.13 103.80 53.50 104.59 56.93 C 104.71 55.23 104.84 53.53 104.99 51.83 C 106.18 51.46 107.38 51.11 108.58 50.74 C 108.33 48.56 108.08 46.38 107.81 44.20 C 108.43 45.00 108.97 45.86 109.60 46.65 C 109.76 44.61 109.91 42.58 110.08 40.54 C 114.59 42.57 115.02 47.74 115.46 52.05 C 115.84 49.64 116.32 47.24 116.92 44.87 C 118.99 47.92 119.31 51.62 119.87 55.16 C 119.71 49.72 118.84 44.33 118.66 38.89 C 120.39 41.58 122.68 44.00 123.74 47.06 C 124.70 51.31 124.37 55.71 124.93 60.01 C 125.22 61.55 125.04 63.72 127.02 64.09 C 129.09 57.77 127.13 50.66 130.41 44.69 C 132.31 51.35 132.20 58.31 132.57 65.15 C 133.99 59.76 133.31 54.13 134.27 48.67 C 136.15 54.31 134.62 60.35 135.37 66.19 C 135.83 62.92 136.08 59.62 136.30 56.33 C 138.93 54.71 141.63 53.21 144.40 51.84 C 144.72 50.52 145.04 49.20 145.35 47.88 C 147.19 47.75 149.04 47.60 150.89 47.45 C 151.17 50.62 151.33 53.79 151.48 56.97 C 153.24 56.06 155.09 55.37 156.86 54.48 C 158.67 59.48 159.44 64.83 159.35 70.14 C 158.80 73.93 156.07 77.27 156.77 81.27 C 158.84 77.38 159.88 72.93 162.84 69.54 C 163.08 71.28 163.30 73.01 163.49 74.76 C 164.89 73.13 166.34 71.54 167.80 69.96 C 167.33 72.04 166.84 74.12 166.39 76.21 C 171.56 73.13 174.62 67.85 178.37 63.34 C 180.00 61.32 181.35 59.09 182.56 56.80 C 180.60 58.02 178.69 59.32 176.81 60.65 C 179.68 56.28 183.16 52.29 185.46 47.57 C 180.37 50.61 177.27 55.82 173.08 59.87 C 175.30 55.55 177.48 51.22 179.38 46.75 C 177.86 47.72 176.35 48.72 174.84 49.71 C 175.92 47.25 176.80 44.66 178.37 42.46 C 179.70 41.11 181.63 40.61 183.29 39.76 C 182.90 40.79 182.51 41.82 182.13 42.85 C 184.02 44.90 185.91 46.96 187.80 49.02 C 189.48 47.24 191.56 46.12 194.06 46.21 C 192.75 46.90 191.43 47.60 190.13 48.31 C 190.12 52.60 191.31 57.69 195.62 59.58 C 199.47 59.92 203.35 58.52 207.19 59.57 C 207.54 59.16 208.23 58.34 208.58 57.93 C 207.48 57.01 206.38 56.11 205.27 55.22 C 206.55 55.26 207.83 55.29 209.11 55.33 C 209.57 53.97 210.04 52.62 210.49 51.26 C 208.67 51.36 206.85 51.48 205.03 51.58 C 205.28 51.18 205.78 50.37 206.03 49.97 C 209.24 49.48 212.53 48.97 215.48 47.53 C 216.90 46.50 217.56 44.76 218.51 43.32 C 219.42 43.70 220.37 44.12 220.81 45.08 C 223.52 49.36 226.24 53.68 227.99 58.46 C 215.62 62.02 204.01 67.93 193.48 75.32 C 194.34 73.87 195.11 72.38 195.89 70.90 C 193.88 71.50 191.87 72.13 189.86 72.73 C 194.25 68.75 199.42 65.81 204.11 62.23 C 199.89 63.39 195.52 64.39 191.78 66.75 C 189.03 68.47 186.20 70.08 183.19 71.30 C 185.72 68.02 188.36 64.81 190.56 61.28 C 188.02 62.44 185.53 63.68 183.04 64.92 C 184.73 62.45 186.44 59.98 188.00 57.42 C 181.92 60.88 177.35 66.39 173.74 72.28 C 174.17 72.43 175.01 72.71 175.44 72.85 C 175.43 73.50 175.44 74.14 175.45 74.79 C 176.83 74.70 178.21 74.61 179.59 74.53 C 179.92 76.24 180.26 77.96 180.59 79.67 C 183.10 79.41 185.63 79.35 188.16 79.33 C 185.16 82.87 181.57 85.94 179.21 89.99 C 179.98 92.28 181.52 94.38 181.71 96.83 C 180.83 98.21 179.63 99.34 178.57 100.56 C 176.03 100.48 173.49 100.34 170.96 100.27 C 169.72 101.87 168.45 103.45 167.15 105.00 C 168.53 107.37 169.98 109.71 171.54 111.97 L 171.39 112.66 C 171.18 113.66 170.97 114.66 170.76 115.66 C 169.60 117.97 167.94 119.94 166.20 121.83 C 159.53 118.23 153.26 111.94 145.17 112.61 C 138.83 113.87 132.88 116.57 126.66 118.30 C 119.04 120.16 111.15 120.37 103.47 121.94 C 92.77 124.21 82.02 126.57 71.86 130.71 C 68.94 132.05 66.01 133.68 63.98 136.23 C 63.35 137.91 63.63 139.76 63.49 141.52 L 64.39 140.89 C 73.41 134.44 84.55 132.23 95.13 129.68 C 100.48 128.69 105.80 127.50 111.18 126.58 C 118.33 125.84 125.65 125.22 132.40 122.55 C 137.41 120.75 142.46 118.25 147.92 118.52 C 155.34 119.26 160.67 125.64 168.03 126.60 C 168.51 126.70 169.47 126.89 169.95 126.99 C 167.94 127.59 165.80 129.39 163.66 128.22 C 157.10 125.19 151.30 118.57 143.37 120.39 C 135.55 122.35 128.44 126.70 120.31 127.68 C 106.24 128.36 92.48 131.83 79.05 135.91 C 75.24 137.29 71.21 138.45 67.93 140.90 C 65.59 142.47 66.26 145.55 66.13 147.94 C 66.32 153.32 65.40 158.70 63.52 163.74 C 59.64 166.24 55.92 168.98 51.98 171.37 C 47.08 174.61 41.52 176.69 36.80 180.21 C 41.33 180.85 45.99 180.91 50.47 179.90 C 53.93 178.73 57.12 176.88 59.98 174.64 C 65.27 170.45 69.65 164.92 76.18 162.54 C 80.01 162.59 83.84 162.45 87.68 162.38 C 90.85 163.48 93.58 165.49 96.25 167.47 C 98.44 176.43 97.87 185.72 96.17 194.72 C 99.59 196.59 103.01 198.47 106.50 200.22 C 119.61 207.25 133.01 213.76 146.79 219.36 C 149.49 220.48 152.19 221.62 154.89 222.75 C 159.41 224.72 164.10 226.23 168.77 227.79 C 171.16 228.83 173.60 229.73 176.09 230.53 C 177.94 231.16 179.81 231.71 181.70 232.25 C 179.81 226.17 176.85 220.52 174.43 214.65 C 172.11 209.38 170.03 203.99 167.47 198.82 C 162.81 186.11 157.28 173.72 151.87 161.31 C 145.57 161.50 139.21 162.17 132.96 161.07 C 128.48 157.69 123.52 153.06 123.73 146.99 C 124.73 138.90 132.41 134.13 139.41 131.56 C 139.94 131.87 140.99 132.48 141.51 132.78 C 135.97 134.46 130.44 137.23 127.22 142.26 C 123.27 147.99 127.58 155.16 132.89 158.18 C 139.14 161.64 146.60 160.36 153.34 159.43 C 162.10 180.36 170.98 201.25 179.79 222.16 C 181.57 226.37 183.52 230.50 184.92 234.86 C 180.32 233.42 175.92 231.40 171.24 230.21 C 158.94 225.90 146.59 221.67 134.73 216.24 C 120.86 210.01 107.34 203.01 94.08 195.58 C 94.90 187.15 97.31 178.19 94.03 170.01 C 90.97 163.03 81.92 162.33 75.50 164.29 C 69.71 165.91 66.30 171.20 61.73 174.69 C 57.57 178.25 52.55 180.79 47.13 181.68 C 40.81 181.63 34.44 181.55 28.28 180.01 C 27.67 180.58 26.45 181.73 25.84 182.30 C 29.11 184.56 33.08 185.24 36.98 185.45 C 42.82 185.75 49.19 186.60 54.39 183.26 C 58.64 181.21 62.60 178.56 66.02 175.30 C 69.79 172.50 73.38 169.07 78.09 167.95 C 83.23 166.56 89.54 169.80 90.45 175.27 C 91.28 182.54 90.20 189.82 89.43 197.04 C 89.80 197.35 90.55 197.95 90.92 198.25 C 99.49 203.43 108.35 208.15 117.39 212.46 C 133.15 221.59 150.49 227.51 167.52 233.78 C 175.33 236.36 182.94 239.56 190.89 241.73 C 190.75 239.66 190.60 237.59 190.53 235.52 C 192.00 238.21 193.28 241.01 194.15 243.96 C 181.15 239.73 168.25 235.18 155.40 230.51 C 131.97 222.24 110.08 210.35 88.34 198.45 C 89.04 191.83 90.49 185.19 89.87 178.51 C 81.98 178.72 73.95 176.64 66.17 178.09 C 59.61 182.08 53.21 187.94 45.00 187.47 C 38.56 187.08 31.85 186.69 25.86 184.06 C 24.14 182.06 26.51 180.15 28.04 179.04 C 34.50 174.65 43.39 176.66 49.63 171.78 C 54.17 168.69 59.34 166.25 62.93 161.97 C 65.06 159.41 64.41 155.93 64.53 152.86 C 62.76 152.12 61.00 151.39 59.20 150.74 C 58.73 149.58 58.25 148.43 57.78 147.28 C 53.31 149.37 51.05 153.78 49.08 158.03 C 45.54 155.10 43.33 150.83 41.90 146.53 C 39.93 137.95 36.83 129.64 35.47 120.91 C 34.55 113.55 31.82 106.49 31.64 99.02 C 31.62 93.20 31.28 87.39 31.44 81.57 C 33.27 82.16 35.09 82.76 36.91 83.37 C 35.79 84.97 34.63 86.55 33.45 88.11 C 37.63 90.25 40.57 94.01 44.22 96.86 C 43.07 97.71 41.93 98.56 40.79 99.41 C 41.02 100.29 41.25 101.16 41.48 102.05 C 38.72 102.29 35.96 102.52 33.20 102.80 C 40.32 103.75 46.70 107.60 53.92 107.99 C 54.62 105.20 55.78 102.55 57.28 100.11 C 54.13 97.40 50.70 95.02 47.60 92.24 C 50.02 92.60 52.40 93.14 54.75 93.78 C 53.21 92.20 51.96 90.40 50.57 88.70 C 52.80 88.54 55.08 88.66 57.27 88.18 C 60.58 83.46 62.44 77.85 65.69 73.06 C 65.33 72.17 64.97 71.29 64.61 70.40 C 65.29 70.42 65.98 70.44 66.67 70.46 C 66.53 68.94 66.40 67.43 66.27 65.92 C 67.29 65.67 68.31 65.42 69.34 65.17 C 69.93 63.08 70.53 61.00 71.11 58.92 C 72.13 58.33 73.12 57.72 74.13 57.12 C 74.13 54.30 74.96 51.61 76.81 49.44 C 78.90 51.58 80.93 53.77 82.97 55.96 C 80.51 43.66 72.09 34.04 64.37 24.64 C 63.27 22.95 61.28 22.76 59.45 22.58 C 61.51 27.39 67.37 30.15 66.93 35.98 C 63.04 32.85 59.88 28.89 55.76 26.03 C 58.16 30.11 62.41 33.15 63.13 38.10 C 58.92 35.66 55.56 32.07 51.65 29.21 M 212.24 51.06 C 211.69 53.76 212.32 56.54 212.37 59.27 C 215.93 58.03 217.52 54.35 219.77 51.63 C 217.56 49.95 214.70 49.82 212.24 51.06 M 120.86 65.19 C 105.12 62.13 88.82 68.62 77.42 79.41 C 70.13 86.41 66.24 96.13 64.05 105.82 C 62.76 111.56 61.48 117.35 61.31 123.25 C 60.52 126.05 60.34 128.99 60.44 131.89 C 59.38 137.95 59.50 144.14 59.62 150.27 C 60.63 150.36 62.66 150.55 63.67 150.65 C 63.90 146.16 63.35 141.67 61.98 137.38 C 64.31 134.03 64.82 129.99 65.18 126.04 C 65.93 121.27 68.29 116.96 69.36 112.34 C 71.44 108.26 73.48 104.05 76.74 100.75 C 80.37 97.21 84.75 93.26 90.18 93.55 C 87.27 94.76 84.71 96.64 82.22 98.54 C 72.63 106.57 68.38 119.34 67.13 131.41 C 69.38 130.74 71.60 129.97 73.73 128.98 C 79.77 126.15 86.40 125.05 92.77 123.21 C 96.52 122.04 100.61 122.14 104.23 120.52 C 106.81 120.77 109.39 120.31 111.91 119.76 C 116.00 119.50 120.07 118.99 124.04 117.97 C 129.71 116.59 135.48 115.05 140.63 112.23 C 141.83 113.55 143.65 111.39 145.02 111.19 C 141.58 102.03 132.23 96.20 123.23 93.62 C 116.88 89.63 109.00 90.78 101.92 89.43 C 108.56 89.18 115.42 89.18 121.74 91.56 C 124.42 92.58 127.09 93.67 129.91 94.29 C 132.74 97.15 136.73 98.55 139.61 101.41 C 142.74 103.89 144.60 107.49 146.16 111.08 C 146.85 111.10 148.23 111.14 148.92 111.16 C 152.66 113.08 156.74 114.44 160.10 117.04 C 161.99 118.47 163.98 119.76 166.05 120.93 C 166.89 119.04 167.72 117.15 168.56 115.26 C 169.00 111.85 169.17 107.92 165.83 105.85 C 165.68 106.42 165.37 107.56 165.22 108.13 C 162.22 108.01 158.94 108.86 156.11 107.90 C 157.39 107.49 157.93 106.18 158.74 105.23 L 158.15 106.22 C 160.43 106.70 162.76 106.62 165.07 106.59 C 165.65 105.18 166.22 103.77 166.79 102.36 C 165.15 102.31 163.50 102.32 161.86 102.37 C 160.68 102.07 159.50 101.76 158.33 101.44 C 151.84 93.31 143.95 86.31 135.08 80.87 C 130.32 78.02 125.37 75.16 119.79 74.33 C 101.82 70.75 82.48 81.36 74.73 97.70 L 74.28 97.95 C 74.25 98.94 74.22 99.92 74.18 100.90 C 72.30 102.79 70.73 104.97 69.42 107.28 C 69.25 106.69 68.90 105.49 68.73 104.89 C 70.98 97.26 74.12 89.57 79.86 83.87 C 91.12 72.13 108.83 67.79 124.49 71.24 C 139.93 76.42 152.32 87.69 163.13 99.49 C 164.01 98.73 164.86 97.94 165.70 97.12 C 165.34 94.19 162.55 92.52 160.76 90.43 C 163.07 91.74 165.07 93.49 166.93 95.37 C 171.37 94.13 175.97 94.50 180.50 94.85 C 179.83 93.72 179.18 92.57 178.34 91.55 C 174.20 90.91 169.98 91.27 165.83 91.57 C 156.83 82.36 147.33 73.01 135.22 68.06 L 136.10 68.02 C 131.36 66.05 126.05 63.86 120.86 65.19 M 165.17 99.26 C 169.71 99.19 174.39 100.09 178.86 99.27 C 179.30 98.65 180.19 97.41 180.64 96.80 C 175.81 95.01 167.98 93.74 165.17 99.26 M 42.21 109.45 C 41.52 112.36 43.84 113.86 45.97 115.24 C 42.60 115.78 39.22 116.13 35.83 116.48 C 36.05 116.70 36.49 117.16 36.71 117.38 C 41.79 118.51 47.16 118.01 52.19 119.58 C 46.92 119.85 41.53 119.38 36.42 121.04 C 39.09 121.54 41.86 121.61 44.43 122.54 C 46.27 123.78 47.21 125.92 48.38 127.74 C 50.40 127.55 52.42 127.34 54.44 127.11 C 54.46 125.87 54.49 124.63 54.52 123.39 C 56.40 123.46 58.29 123.52 60.17 123.52 C 58.39 121.93 56.25 120.88 53.99 120.18 C 56.06 120.18 58.14 120.15 60.21 120.07 C 58.49 118.77 56.73 117.53 54.98 116.26 C 56.28 116.08 57.59 115.91 58.90 115.74 C 56.47 114.83 54.28 113.41 52.72 111.31 C 50.24 108.15 45.69 108.71 42.21 109.45 M 46.19 135.03 C 44.86 137.73 43.76 140.56 42.24 143.17 C 45.44 142.49 47.77 140.22 49.55 137.61 C 51.53 134.58 55.24 133.74 58.20 132.01 C 54.04 130.21 49.00 131.56 46.19 135.03 M 47.81 143.99 C 50.91 142.75 53.96 141.24 56.32 138.83 C 52.70 138.89 49.59 140.88 47.81 143.99 Z" />
<path fill="#090101" opacity="1.00" d=" M 178.94 15.72 C 181.39 16.23 183.99 16.48 185.94 18.22 C 189.73 21.47 194.78 22.45 198.95 25.04 C 202.00 27.67 204.62 30.81 208.12 32.89 C 210.90 34.71 214.84 36.29 215.05 40.13 C 210.37 36.70 206.32 31.89 200.44 30.57 C 202.16 34.61 206.62 36.25 208.98 39.76 C 208.51 43.08 205.47 44.57 202.58 45.37 C 204.54 42.75 205.84 39.73 205.48 36.38 C 203.60 37.16 201.74 38.00 199.91 38.92 C 200.63 36.50 199.68 34.27 198.27 32.30 C 196.48 33.50 194.67 34.67 192.86 35.83 C 194.48 33.19 196.27 30.66 198.04 28.12 C 194.42 25.53 190.04 24.79 185.68 24.79 C 185.46 23.52 185.23 22.26 185.02 20.99 C 183.55 23.41 181.73 25.60 179.56 27.42 C 180.31 24.63 181.14 21.86 181.95 19.08 C 180.22 19.55 178.49 20.04 176.77 20.53 C 177.48 18.92 178.21 17.32 178.94 15.72 Z" />
<path fill="#090101" opacity="1.00" d=" M 159.88 21.37 C 162.07 22.50 164.41 23.32 166.54 24.55 C 168.28 26.46 169.68 28.71 170.72 31.07 C 168.96 36.38 167.82 41.93 165.27 46.95 C 166.15 41.38 167.73 35.83 167.51 30.15 C 167.64 28.10 165.06 27.06 163.82 28.77 C 160.57 30.77 159.91 34.63 159.19 38.07 C 159.31 32.49 160.10 26.95 159.88 21.37 Z" />
<path fill="#090101" opacity="1.00" d=" M 44.88 36.01 C 50.26 40.03 56.91 43.04 60.23 49.19 C 55.91 47.28 52.71 43.74 48.93 41.04 C 47.94 40.16 46.59 40.52 45.40 40.41 C 50.23 44.75 56.58 47.31 60.36 52.81 C 54.05 49.66 48.67 45.01 42.51 41.60 C 44.26 40.19 44.77 38.16 44.88 36.01 Z" />
<path fill="#090101" opacity="1.00" d=" M 32.45 73.86 C 33.63 63.02 37.42 52.59 41.92 42.68 C 43.06 45.72 44.97 48.55 47.94 50.06 C 52.70 52.70 57.20 55.82 60.99 59.76 C 57.24 58.15 53.29 57.06 49.25 56.53 C 50.11 58.34 50.99 60.13 51.87 61.93 C 47.24 60.07 42.66 58.10 38.00 56.35 C 37.61 57.07 36.84 58.52 36.45 59.24 C 41.19 61.22 46.05 62.95 50.47 65.60 C 50.62 66.98 50.74 68.36 50.91 69.73 C 48.96 69.50 47.01 69.26 45.07 69.03 C 46.30 70.02 47.53 71.02 48.76 72.02 C 45.20 73.34 41.42 73.81 37.64 73.87 C 40.44 75.27 43.45 76.72 44.59 79.76 C 40.62 79.74 36.73 78.95 32.91 77.97 C 32.73 76.60 32.58 75.23 32.45 73.86 Z" />
<path fill="#090101" opacity="1.00" d=" M 137.76 138.78 C 143.02 137.14 148.45 135.21 154.04 135.55 C 157.88 136.69 160.74 140.28 161.40 144.19 C 162.71 150.76 163.00 157.48 164.17 164.07 C 167.08 165.52 170.02 166.92 173.08 168.03 C 174.97 175.99 178.13 183.56 180.69 191.32 C 186.08 207.28 191.51 223.25 196.58 239.31 C 197.35 239.70 198.87 240.47 199.64 240.85 C 199.03 236.43 197.44 232.25 195.99 228.06 C 191.94 216.16 187.67 204.34 183.67 192.42 C 183.86 191.96 184.22 191.05 184.40 190.59 C 188.32 198.42 190.65 206.92 193.93 215.02 C 196.28 222.39 199.38 229.54 201.02 237.12 C 201.25 238.53 202.19 240.35 200.43 241.16 C 199.22 241.30 198.01 241.31 196.80 241.36 C 194.59 236.31 191.82 231.32 187.79 227.49 C 187.78 228.09 187.76 229.29 187.74 229.89 C 185.22 226.56 184.13 222.44 182.49 218.66 C 177.93 207.57 173.61 196.37 168.79 185.40 C 164.71 175.03 160.39 164.77 156.26 154.42 C 147.92 155.64 138.67 157.07 131.23 152.03 C 130.54 150.13 129.46 148.18 129.74 146.10 C 130.49 143.98 132.16 142.37 133.77 140.88 C 135.09 140.16 136.41 139.44 137.76 138.78 Z" />
<path fill="#090101" opacity="1.00" d=" M 163.79 139.94 C 164.19 139.41 164.99 138.35 165.39 137.82 C 167.19 145.59 168.49 153.47 170.40 161.23 C 169.25 160.50 168.21 159.53 167.93 158.15 C 165.98 152.22 165.40 145.96 163.79 139.94 Z" />
</g>
<g id="#bb9217ff">
<path fill="#bb9217" opacity="1.00" d=" M 120.86 65.19 C 126.05 63.86 131.36 66.05 136.10 68.02 L 135.22 68.06 C 134.69 68.11 133.63 68.21 133.10 68.26 C 141.51 71.76 148.66 77.55 155.54 83.40 C 157.29 85.10 159.92 86.73 159.47 89.55 C 158.91 89.17 157.78 88.42 157.21 88.04 C 147.60 77.17 134.59 69.61 120.86 65.19 Z" />
<path fill="#bb9217" opacity="1.00" d=" M 74.73 97.70 C 82.48 81.36 101.82 70.75 119.79 74.33 C 125.37 75.16 130.32 78.02 135.08 80.87 C 143.95 86.31 151.84 93.31 158.33 101.44 C 157.75 102.79 157.15 104.14 156.57 105.50 C 152.70 102.31 150.26 97.80 146.42 94.59 C 137.85 87.00 126.68 81.66 115.02 82.25 C 105.05 81.47 95.69 85.59 86.99 89.95 C 82.65 92.13 78.98 95.38 74.73 97.70 Z" />
<path fill="#bb9217" opacity="1.00" d=" M 74.18 100.90 C 82.44 92.34 94.09 87.04 106.02 86.87 C 112.56 87.16 119.08 88.46 125.26 90.64 C 127.24 91.20 128.64 92.75 129.91 94.29 C 127.09 93.67 124.42 92.58 121.74 91.56 C 115.42 89.18 108.56 89.18 101.92 89.43 C 109.00 90.78 116.88 89.63 123.23 93.62 C 116.16 93.94 109.15 92.47 102.08 92.91 C 98.11 93.12 94.14 93.34 90.18 93.55 C 84.75 93.26 80.37 97.21 76.74 100.75 C 73.48 104.05 71.44 108.26 69.36 112.34 C 69.41 110.65 69.42 108.97 69.42 107.28 C 70.73 104.97 72.30 102.79 74.18 100.90 Z" />
<path fill="#bb9217" opacity="1.00" d=" M 67.13 131.41 C 68.38 119.34 72.63 106.57 82.22 98.54 C 82.28 99.00 82.41 99.91 82.48 100.36 C 84.15 100.83 86.68 100.50 87.23 102.65 C 88.12 106.13 86.67 109.85 87.73 113.28 C 91.10 118.99 98.53 118.94 104.23 120.52 C 100.61 122.14 96.52 122.04 92.77 123.21 C 86.40 125.05 79.77 126.15 73.73 128.98 C 71.60 129.97 69.38 130.74 67.13 131.41 Z" />
<path fill="#bb9217" opacity="1.00" d=" M 158.74 105.23 C 159.52 104.02 160.60 103.07 161.86 102.37 C 163.50 102.32 165.15 102.31 166.79 102.36 C 166.22 103.77 165.65 105.18 165.07 106.59 C 162.76 106.62 160.43 106.70 158.15 106.22 L 158.74 105.23 Z" />
<path fill="#bb9217" opacity="1.00" d=" M 79.05 135.91 C 92.48 131.83 106.24 128.36 120.31 127.68 C 113.49 131.35 105.61 130.94 98.21 132.32 C 96.10 132.80 93.50 133.15 92.41 135.29 C 90.06 139.36 88.82 144.06 85.72 147.69 C 81.78 152.36 77.59 156.85 74.30 162.03 C 74.77 162.15 75.71 162.41 76.18 162.54 C 69.65 164.92 65.27 170.45 59.98 174.64 C 59.02 170.52 62.46 167.45 63.52 163.74 C 65.40 158.70 66.32 153.32 66.13 147.94 C 66.26 145.55 65.59 142.47 67.93 140.90 C 71.21 138.45 75.24 137.29 79.05 135.91 M 67.12 143.52 C 66.56 148.37 66.10 153.55 67.42 158.22 C 68.28 153.55 70.41 147.55 67.12 143.52 Z" />
<path fill="#bb9217" opacity="1.00" d=" M 168.59 140.29 C 169.09 136.59 170.43 132.58 174.00 130.80 C 173.37 134.51 171.31 137.75 168.59 140.29 Z" />
<path fill="#bb9217" opacity="1.00" d=" M 59.62 150.27 C 59.50 144.14 59.38 137.95 60.44 131.89 C 60.89 133.74 61.44 135.56 61.98 137.38 C 63.35 141.67 63.90 146.16 63.67 150.65 C 62.66 150.55 60.63 150.36 59.62 150.27 Z" />
<path fill="#bb9217" opacity="1.00" d=" M 132.96 161.07 C 139.21 162.17 145.57 161.50 151.87 161.31 C 157.28 173.72 162.81 186.11 167.47 198.82 C 162.83 192.58 160.33 185.13 156.65 178.34 C 154.25 174.03 153.12 168.84 149.66 165.24 C 144.10 163.89 137.76 164.77 132.96 161.07 Z" />
</g>
<g id="#eed386ff">
<path fill="#eed386" opacity="1.00" d=" M 77.42 79.41 C 88.82 68.62 105.12 62.13 120.86 65.19 C 134.59 69.61 147.60 77.17 157.21 88.04 C 146.48 80.61 135.91 72.32 123.12 68.74 C 110.81 65.39 97.57 68.49 86.61 74.52 C 76.72 79.99 71.46 90.67 67.70 100.85 C 64.86 108.11 63.72 115.86 61.31 123.25 C 61.48 117.35 62.76 111.56 64.05 105.82 C 66.24 96.13 70.13 86.41 77.42 79.41 Z" />
<path fill="#eed386" opacity="1.00" d=" M 133.10 68.26 C 133.63 68.21 134.69 68.11 135.22 68.06 C 147.33 73.01 156.83 82.36 165.83 91.57 C 169.98 91.27 174.20 90.91 178.34 91.55 C 179.18 92.57 179.83 93.72 180.50 94.85 C 175.97 94.50 171.37 94.13 166.93 95.37 C 165.07 93.49 163.07 91.74 160.76 90.43 C 160.33 90.13 159.90 89.84 159.47 89.55 C 159.92 86.73 157.29 85.10 155.54 83.40 C 148.66 77.55 141.51 71.76 133.10 68.26 Z" />
<path fill="#eed386" opacity="1.00" d=" M 102.90 85.38 C 104.52 84.99 106.14 84.60 107.78 84.35 C 119.19 84.76 131.22 87.31 140.07 94.95 C 143.93 98.51 148.35 102.54 148.55 108.18 C 146.09 103.64 142.62 99.65 138.48 96.56 C 128.28 89.04 115.55 85.13 102.90 85.38 Z" />
<path fill="#eed386" opacity="1.00" d=" M 103.69 94.73 C 115.32 93.90 127.86 96.25 136.72 104.32 C 139.12 106.28 139.58 109.50 140.63 112.23 C 135.48 115.05 129.71 116.59 124.04 117.97 C 118.75 116.66 117.57 110.90 115.20 106.78 C 112.76 101.58 107.52 98.76 103.69 94.73 Z" />
<path fill="#eed386" opacity="1.00" d=" M 165.22 108.13 C 165.37 107.56 165.68 106.42 165.83 105.85 C 169.17 107.92 169.00 111.85 168.56 115.26 C 167.90 115.29 166.58 115.35 165.92 115.38 C 165.60 112.97 165.29 110.56 165.22 108.13 Z" />
<path fill="#eed386" opacity="1.00" d=" M 144.07 125.04 C 145.63 124.16 147.09 122.74 148.97 122.67 C 151.14 122.47 152.48 124.45 154.08 125.57 C 153.02 126.80 151.97 128.03 150.93 129.27 C 146.82 129.65 142.81 130.63 138.73 131.18 C 135.49 130.42 132.20 129.91 128.91 129.44 C 133.98 128.08 139.68 128.26 144.07 125.04 Z" />
<path fill="#eed386" opacity="1.00" d=" M 110.60 152.31 C 114.57 152.29 118.74 152.06 122.28 154.13 C 120.12 154.52 117.98 154.98 115.81 155.33 C 117.20 155.55 118.58 155.81 119.96 156.06 C 119.50 156.91 119.03 157.75 118.57 158.60 C 119.23 158.96 119.90 159.33 120.56 159.69 C 119.96 159.94 118.75 160.42 118.15 160.67 C 120.44 161.52 122.73 162.36 125.03 163.18 C 124.94 163.84 124.85 164.50 124.77 165.17 C 126.99 165.48 129.20 165.78 131.42 166.04 C 131.88 166.09 132.79 166.19 133.25 166.24 C 131.71 166.89 130.22 167.66 128.73 168.42 C 131.83 169.34 134.96 170.14 138.10 170.90 C 134.41 170.53 130.73 170.15 127.03 169.83 C 127.97 170.88 128.91 171.95 129.90 172.96 C 129.41 172.79 128.43 172.44 127.94 172.27 C 124.05 171.10 120.03 170.48 116.02 169.85 C 118.85 172.49 121.12 175.66 123.91 178.34 C 122.67 178.58 121.43 178.81 120.19 179.04 C 121.73 181.20 123.02 183.51 124.29 185.84 C 125.37 188.03 128.15 188.25 130.16 189.16 C 131.34 189.56 132.52 189.95 133.71 190.34 C 133.07 190.68 131.79 191.36 131.14 191.71 C 133.08 193.34 135.05 194.95 137.19 196.34 C 135.54 196.21 133.90 196.16 132.25 196.11 C 132.66 197.07 133.09 198.03 133.51 199.00 C 130.61 197.84 127.66 196.79 124.65 195.96 C 128.94 200.04 134.51 202.24 139.96 204.30 C 141.81 205.00 143.66 205.70 145.55 206.33 C 144.36 206.66 143.15 207.42 141.88 206.98 C 137.81 205.93 133.84 204.42 129.66 203.81 C 132.34 206.26 136.06 207.26 138.60 209.85 C 141.40 213.51 145.89 215.28 148.89 218.77 C 148.36 218.92 147.32 219.22 146.79 219.36 C 133.01 213.76 119.61 207.25 106.50 200.22 C 107.94 200.01 109.38 199.82 110.82 199.63 C 108.91 197.63 107.06 195.57 105.25 193.47 C 105.82 193.21 106.97 192.69 107.54 192.42 C 106.33 191.32 105.12 190.22 103.92 189.11 C 105.45 189.36 106.97 189.62 108.50 189.88 C 108.12 188.32 107.75 186.76 107.38 185.20 C 107.96 184.29 108.54 183.38 109.11 182.46 C 106.49 179.73 107.06 175.84 107.51 172.44 C 107.79 169.19 110.51 167.04 112.40 164.66 C 111.09 163.60 109.79 162.53 108.48 161.47 C 108.99 158.38 109.69 155.31 110.60 152.31 Z" />
<path fill="#eed386" opacity="1.00" d=" M 140.21 157.53 C 136.68 157.00 132.61 155.70 131.23 152.03 C 138.67 157.07 147.92 155.64 156.26 154.42 C 160.39 164.77 164.71 175.03 168.79 185.40 C 167.24 183.53 165.65 181.65 164.68 179.39 C 161.44 172.05 158.55 164.53 154.85 157.39 C 149.98 157.65 145.07 158.15 140.21 157.53 Z" />
<path fill="#eed386" opacity="1.00" d=" M 75.50 164.29 C 81.92 162.33 90.97 163.03 94.03 170.01 C 97.31 178.19 94.90 187.15 94.08 195.58 C 107.34 203.01 120.86 210.01 134.73 216.24 C 146.59 221.67 158.94 225.90 171.24 230.21 C 164.86 230.72 159.02 227.80 153.12 225.88 C 143.65 222.70 134.46 218.77 125.40 214.61 C 122.86 213.45 120.11 212.94 117.39 212.46 C 108.35 208.15 99.49 203.43 90.92 198.25 C 92.11 189.36 94.13 180.16 91.87 171.28 C 91.07 167.70 87.61 165.02 83.94 165.19 C 76.87 165.62 69.53 168.85 66.02 175.30 C 62.60 178.56 58.64 181.21 54.39 183.26 C 48.18 183.29 41.97 183.94 35.76 183.54 C 39.56 183.01 43.38 182.53 47.13 181.68 C 52.55 180.79 57.57 178.25 61.73 174.69 C 66.30 171.20 69.71 165.91 75.50 164.29 Z" />
</g>
<g id="#e1b631ff">
<path fill="#e1b631" opacity="1.00" d=" M 86.61 74.52 C 97.57 68.49 110.81 65.39 123.12 68.74 C 135.91 72.32 146.48 80.61 157.21 88.04 C 157.78 88.42 158.91 89.17 159.47 89.55 C 159.90 89.84 160.33 90.13 160.76 90.43 C 162.55 92.52 165.34 94.19 165.70 97.12 C 164.86 97.94 164.01 98.73 163.13 99.49 C 152.32 87.69 139.93 76.42 124.49 71.24 C 108.83 67.79 91.12 72.13 79.86 83.87 C 74.12 89.57 70.98 97.26 68.73 104.89 C 66.41 111.70 65.77 118.91 65.18 126.04 C 64.82 129.99 64.31 134.03 61.98 137.38 C 61.44 135.56 60.89 133.74 60.44 131.89 C 60.34 128.99 60.52 126.05 61.31 123.25 C 63.72 115.86 64.86 108.11 67.70 100.85 C 71.46 90.67 76.72 79.99 86.61 74.52 Z" />
<path fill="#e1b631" opacity="1.00" d=" M 107.78 84.35 C 122.24 81.01 136.93 87.86 147.13 97.85 C 150.44 100.91 152.86 104.78 156.11 107.90 C 158.94 108.86 162.22 108.01 165.22 108.13 C 165.29 110.56 165.60 112.97 165.92 115.38 C 166.58 115.35 167.90 115.29 168.56 115.26 C 167.72 117.15 166.89 119.04 166.05 120.93 C 163.98 119.76 161.99 118.47 160.10 117.04 C 156.74 114.44 152.66 113.08 148.92 111.16 C 148.83 110.41 148.65 108.93 148.55 108.18 C 148.35 102.54 143.93 98.51 140.07 94.95 C 131.22 87.31 119.19 84.76 107.78 84.35 Z" />
<path fill="#e1b631" opacity="1.00" d=" M 90.18 93.55 C 94.14 93.34 98.11 93.12 102.08 92.91 C 109.15 92.47 116.16 93.94 123.23 93.62 C 132.23 96.20 141.58 102.03 145.02 111.19 C 143.65 111.39 141.83 113.55 140.63 112.23 C 139.58 109.50 139.12 106.28 136.72 104.32 C 127.86 96.25 115.32 93.90 103.69 94.73 C 100.36 94.81 97.06 95.38 93.84 96.22 C 96.55 98.48 99.70 100.19 102.31 102.57 C 103.11 104.11 102.57 106.01 102.68 107.69 C 104.99 108.89 107.31 110.08 109.60 111.31 C 109.67 114.28 110.35 117.21 111.91 119.76 C 109.39 120.31 106.81 120.77 104.23 120.52 C 98.53 118.94 91.10 118.99 87.73 113.28 C 86.67 109.85 88.12 106.13 87.23 102.65 C 86.68 100.50 84.15 100.83 82.48 100.36 C 82.41 99.91 82.28 99.00 82.22 98.54 C 84.71 96.64 87.27 94.76 90.18 93.55 Z" />
<path fill="#e1b631" opacity="1.00" d=" M 165.17 99.26 C 167.98 93.74 175.81 95.01 180.64 96.80 C 180.19 97.41 179.30 98.65 178.86 99.27 C 174.39 100.09 169.71 99.19 165.17 99.26 Z" />
<path fill="#e1b631" opacity="1.00" d=" M 140.63 115.82 C 150.17 112.54 158.39 119.83 165.94 124.48 C 167.77 123.00 169.60 121.51 171.42 120.02 C 170.43 122.28 169.21 124.43 168.03 126.60 C 160.67 125.64 155.34 119.26 147.92 118.52 C 142.46 118.25 137.41 120.75 132.40 122.55 C 125.65 125.22 118.33 125.84 111.18 126.58 C 112.42 125.87 113.64 125.12 114.86 124.37 C 113.97 124.01 113.08 123.66 112.19 123.30 C 121.90 121.79 131.51 119.55 140.63 115.82 Z" />
<path fill="#e1b631" opacity="1.00" d=" M 143.37 120.39 C 151.30 118.57 157.10 125.19 163.66 128.22 C 165.80 129.39 167.94 127.59 169.95 126.99 C 170.09 131.14 167.23 134.42 165.13 137.71 C 163.31 135.63 161.63 133.38 159.45 131.67 C 157.02 129.82 153.86 129.54 150.93 129.27 C 151.97 128.03 153.02 126.80 154.08 125.57 C 152.48 124.45 151.14 122.47 148.97 122.67 C 147.09 122.74 145.63 124.16 144.07 125.04 C 139.68 128.26 133.98 128.08 128.91 129.44 C 132.20 129.91 135.49 130.42 138.73 131.18 L 139.41 131.56 C 132.41 134.13 124.73 138.90 123.73 146.99 C 123.52 153.06 128.48 157.69 132.96 161.07 C 137.76 164.77 144.10 163.89 149.66 165.24 C 153.12 168.84 154.25 174.03 156.65 178.34 C 160.33 185.13 162.83 192.58 167.47 198.82 C 170.03 203.99 172.11 209.38 174.43 214.65 C 176.85 220.52 179.81 226.17 181.70 232.25 C 179.81 231.71 177.94 231.16 176.09 230.53 C 175.29 228.30 173.93 226.38 172.53 224.51 C 170.83 222.27 170.68 219.26 169.03 217.00 C 166.87 215.29 163.95 215.17 161.37 214.50 C 162.21 215.85 163.05 217.20 163.89 218.56 C 155.60 217.35 148.45 212.48 140.92 209.11 C 146.28 209.59 151.61 210.38 156.98 210.87 C 153.37 208.89 149.52 207.40 145.55 206.33 C 143.66 205.70 141.81 205.00 139.96 204.30 C 140.44 203.54 140.92 202.79 141.40 202.05 C 141.15 201.38 140.89 200.71 140.64 200.04 C 143.45 200.70 146.27 201.31 149.11 201.81 C 145.50 199.27 141.44 197.46 137.19 196.34 C 135.05 194.95 133.08 193.34 131.14 191.71 C 131.79 191.36 133.07 190.68 133.71 190.34 C 132.52 189.95 131.34 189.56 130.16 189.16 C 129.07 186.88 127.96 184.60 126.87 182.33 C 127.71 181.72 128.55 181.12 129.40 180.52 C 127.65 178.93 125.90 177.32 124.15 175.73 C 125.21 174.38 126.51 173.23 127.94 172.27 C 128.43 172.44 129.41 172.79 129.90 172.96 C 132.52 173.88 135.45 175.26 138.19 173.99 C 141.07 172.77 144.21 173.08 147.24 173.44 C 142.74 170.75 138.91 166.15 133.25 166.24 C 132.79 166.19 131.88 166.09 131.42 166.04 C 128.46 163.12 125.79 159.93 123.52 156.45 C 122.33 156.31 121.15 156.18 119.96 156.06 C 118.58 155.81 117.20 155.55 115.81 155.33 C 117.98 154.98 120.12 154.52 122.28 154.13 C 118.74 152.06 114.57 152.29 110.60 152.31 C 109.69 155.31 108.99 158.38 108.48 161.47 C 109.79 162.53 111.09 163.60 112.40 164.66 C 110.51 167.04 107.79 169.19 107.51 172.44 C 107.06 175.84 106.49 179.73 109.11 182.46 C 108.54 183.38 107.96 184.29 107.38 185.20 C 107.75 186.76 108.12 188.32 108.50 189.88 C 106.97 189.62 105.45 189.36 103.92 189.11 C 105.12 190.22 106.33 191.32 107.54 192.42 C 106.97 192.69 105.82 193.21 105.25 193.47 C 107.06 195.57 108.91 197.63 110.82 199.63 C 109.38 199.82 107.94 200.01 106.50 200.22 C 103.01 198.47 99.59 196.59 96.17 194.72 C 97.87 185.72 98.44 176.43 96.25 167.47 C 96.23 165.88 96.68 164.21 96.20 162.66 C 94.96 161.55 93.49 160.73 92.10 159.82 C 94.17 160.17 96.24 160.50 98.30 160.86 C 97.99 159.70 97.45 158.57 97.50 157.35 C 98.76 156.52 100.17 155.98 101.55 155.40 C 98.99 153.43 96.33 151.59 93.52 149.99 C 90.99 153.81 88.45 157.77 87.68 162.38 C 83.84 162.45 80.01 162.59 76.18 162.54 C 75.71 162.41 74.77 162.15 74.30 162.03 C 77.59 156.85 81.78 152.36 85.72 147.69 C 88.82 144.06 90.06 139.36 92.41 135.29 C 93.50 133.15 96.10 132.80 98.21 132.32 C 105.61 130.94 113.49 131.35 120.31 127.68 C 128.44 126.70 135.55 122.35 143.37 120.39 M 105.31 132.10 C 104.90 133.44 104.49 134.79 104.06 136.13 C 102.62 137.06 101.24 138.09 99.90 139.16 C 102.14 139.82 104.42 140.35 106.71 140.83 C 108.17 138.48 109.32 135.94 109.99 133.25 C 108.43 132.86 106.87 132.47 105.31 132.10 M 100.73 148.09 C 102.04 149.25 103.03 151.17 105.00 151.21 C 110.24 151.54 115.69 151.75 120.74 150.02 C 119.28 149.51 117.82 149.02 116.35 148.56 C 117.60 147.75 118.85 146.95 120.10 146.14 C 117.71 145.98 115.32 145.77 112.93 145.66 C 115.30 145.17 117.74 144.85 120.07 144.14 C 118.78 142.38 117.75 139.51 115.03 140.02 C 109.00 139.54 104.61 144.21 100.73 148.09 M 130.79 175.05 C 132.54 178.90 137.61 178.42 141.07 179.65 C 139.42 179.74 137.78 179.82 136.14 179.92 C 137.95 182.08 139.47 184.82 142.29 185.76 C 147.06 187.49 152.00 189.07 157.13 188.96 C 154.96 187.35 152.52 186.17 149.98 185.28 C 151.71 185.16 153.44 185.02 155.18 184.87 C 152.55 183.47 149.82 182.28 147.01 181.34 C 148.74 181.15 150.47 180.93 152.19 180.69 C 145.44 177.74 138.17 175.55 130.79 175.05 M 147.82 188.97 C 149.48 193.23 155.40 192.74 159.22 193.00 C 156.36 189.79 151.83 189.39 147.82 188.97 M 158.58 201.85 C 158.97 204.76 158.30 208.18 160.46 210.54 C 162.29 212.82 165.49 212.58 168.10 212.89 C 167.20 211.99 166.32 211.07 165.46 210.15 C 166.07 209.95 167.28 209.55 167.89 209.35 C 167.35 204.71 162.87 202.19 158.58 201.85 Z" />
<path fill="#e1b631" opacity="1.00" d=" M 87.94 127.67 C 90.53 126.88 92.84 128.79 95.13 129.68 C 84.55 132.23 73.41 134.44 64.39 140.89 C 65.55 138.69 66.32 135.98 68.70 134.77 C 74.65 131.34 81.33 129.40 87.94 127.67 Z" />
<path fill="#e1b631" opacity="1.00" d=" M 149.44 133.49 C 153.15 132.31 156.94 133.88 160.58 134.62 C 161.78 136.31 162.86 138.09 163.79 139.94 C 165.40 145.96 165.98 152.22 167.93 158.15 C 168.21 159.53 169.25 160.50 170.40 161.23 C 172.06 162.21 173.46 163.53 174.51 165.16 C 171.04 165.08 167.59 164.61 164.17 164.07 C 163.00 157.48 162.71 150.76 161.40 144.19 C 160.74 140.28 157.88 136.69 154.04 135.55 C 148.45 135.21 143.02 137.14 137.76 138.78 C 141.57 136.85 145.33 134.73 149.44 133.49 Z" />
<path fill="#e1b631" opacity="1.00" d=" M 127.22 142.26 C 129.45 142.07 131.68 141.70 133.77 140.88 C 132.16 142.37 130.49 143.98 129.74 146.10 C 129.46 148.18 130.54 150.13 131.23 152.03 C 132.61 155.70 136.68 157.00 140.21 157.53 C 145.07 158.15 149.98 157.65 154.85 157.39 C 158.55 164.53 161.44 172.05 164.68 179.39 C 165.65 181.65 167.24 183.53 168.79 185.40 C 173.61 196.37 177.93 207.57 182.49 218.66 C 184.13 222.44 185.22 226.56 187.74 229.89 C 189.17 231.47 190.65 233.25 190.53 235.52 C 190.60 237.59 190.75 239.66 190.89 241.73 C 182.94 239.56 175.33 236.36 167.52 233.78 C 150.49 227.51 133.15 221.59 117.39 212.46 C 120.11 212.94 122.86 213.45 125.40 214.61 C 134.46 218.77 143.65 222.70 153.12 225.88 C 159.02 227.80 164.86 230.72 171.24 230.21 C 175.92 231.40 180.32 233.42 184.92 234.86 C 183.52 230.50 181.57 226.37 179.79 222.16 C 170.98 201.25 162.10 180.36 153.34 159.43 C 146.60 160.36 139.14 161.64 132.89 158.18 C 127.58 155.16 123.27 147.99 127.22 142.26 Z" />
<path fill="#e1b631" opacity="1.00" d=" M 67.12 143.52 C 70.41 147.55 68.28 153.55 67.42 158.22 C 66.10 153.55 66.56 148.37 67.12 143.52 Z" />
<path fill="#e1b631" opacity="1.00" d=" M 63.52 163.74 C 62.46 167.45 59.02 170.52 59.98 174.64 C 57.12 176.88 53.93 178.73 50.47 179.90 C 51.59 177.58 52.73 175.27 53.88 172.98 C 53.40 172.58 52.45 171.77 51.98 171.37 C 55.92 168.98 59.64 166.24 63.52 163.74 Z" />
<path fill="#e1b631" opacity="1.00" d=" M 66.02 175.30 C 69.53 168.85 76.87 165.62 83.94 165.19 C 87.61 165.02 91.07 167.70 91.87 171.28 C 94.13 180.16 92.11 189.36 90.92 198.25 C 90.55 197.95 89.80 197.35 89.43 197.04 C 90.20 189.82 91.28 182.54 90.45 175.27 C 89.54 169.80 83.23 166.56 78.09 167.95 C 73.38 169.07 69.79 172.50 66.02 175.30 Z" />
<path fill="#e1b631" opacity="1.00" d=" M 173.08 168.03 C 173.39 168.15 174.01 168.40 174.32 168.52 C 178.47 176.04 179.85 184.73 183.67 192.42 C 187.67 204.34 191.94 216.16 195.99 228.06 C 197.44 232.25 199.03 236.43 199.64 240.85 C 198.87 240.47 197.35 239.70 196.58 239.31 C 191.51 223.25 186.08 207.28 180.69 191.32 C 178.13 183.56 174.97 175.99 173.08 168.03 Z" />
<path fill="#e1b631" opacity="1.00" d=" M 28.28 180.01 C 34.44 181.55 40.81 181.63 47.13 181.68 C 43.38 182.53 39.56 183.01 35.76 183.54 C 41.97 183.94 48.18 183.29 54.39 183.26 C 49.19 186.60 42.82 185.75 36.98 185.45 C 33.08 185.24 29.11 184.56 25.84 182.30 C 26.45 181.73 27.67 180.58 28.28 180.01 Z" />
<path fill="#e1b631" opacity="1.00" d=" M 154.34 218.07 C 157.02 218.86 159.77 219.51 162.26 220.84 C 165.09 222.43 166.80 225.31 168.77 227.79 C 164.10 226.23 159.41 224.72 154.89 222.75 C 154.71 221.19 154.53 219.63 154.34 218.07 Z" />
</g>
<g id="#e8c65fff">
<path fill="#e8c65f" opacity="1.00" d=" M 93.84 96.22 C 97.06 95.38 100.36 94.81 103.69 94.73 C 107.52 98.76 112.76 101.58 115.20 106.78 C 117.57 110.90 118.75 116.66 124.04 117.97 C 120.07 118.99 116.00 119.50 111.91 119.76 C 110.35 117.21 109.67 114.28 109.60 111.31 C 107.31 110.08 104.99 108.89 102.68 107.69 C 102.57 106.01 103.11 104.11 102.31 102.57 C 99.70 100.19 96.55 98.48 93.84 96.22 Z" />
<path fill="#e8c65f" opacity="1.00" d=" M 126.66 118.30 C 132.88 116.57 138.83 113.87 145.17 112.61 C 153.26 111.94 159.53 118.23 166.20 121.83 C 167.94 119.94 169.60 117.97 170.76 115.66 C 170.98 117.11 171.23 118.56 171.42 120.02 C 169.60 121.51 167.77 123.00 165.94 124.48 C 158.39 119.83 150.17 112.54 140.63 115.82 C 131.51 119.55 121.90 121.79 112.19 123.30 C 113.08 123.66 113.97 124.01 114.86 124.37 C 113.64 125.12 112.42 125.87 111.18 126.58 C 105.80 127.50 100.48 128.69 95.13 129.68 C 92.84 128.79 90.53 126.88 87.94 127.67 C 81.33 129.40 74.65 131.34 68.70 134.77 C 66.32 135.98 65.55 138.69 64.39 140.89 L 63.49 141.52 C 63.63 139.76 63.35 137.91 63.98 136.23 C 66.01 133.68 68.94 132.05 71.86 130.71 C 82.02 126.57 92.77 124.21 103.47 121.94 C 111.15 120.37 119.04 120.16 126.66 118.30 Z" />
<path fill="#e8c65f" opacity="1.00" d=" M 141.51 132.78 C 145.60 131.92 149.71 130.59 153.93 130.90 C 156.58 131.14 158.70 132.90 160.58 134.62 C 156.94 133.88 153.15 132.31 149.44 133.49 C 145.33 134.73 141.57 136.85 137.76 138.78 C 136.41 139.44 135.09 140.16 133.77 140.88 C 131.68 141.70 129.45 142.07 127.22 142.26 C 130.44 137.23 135.97 134.46 141.51 132.78 Z" />
<path fill="#e8c65f" opacity="1.00" d=" M 105.31 132.10 C 106.87 132.47 108.43 132.86 109.99 133.25 C 109.32 135.94 108.17 138.48 106.71 140.83 C 104.42 140.35 102.14 139.82 99.90 139.16 C 101.24 138.09 102.62 137.06 104.06 136.13 C 104.49 134.79 104.90 133.44 105.31 132.10 Z" />
<path fill="#e8c65f" opacity="1.00" d=" M 100.73 148.09 C 104.61 144.21 109.00 139.54 115.03 140.02 C 117.75 139.51 118.78 142.38 120.07 144.14 C 117.74 144.85 115.30 145.17 112.93 145.66 C 115.32 145.77 117.71 145.98 120.10 146.14 C 118.85 146.95 117.60 147.75 116.35 148.56 C 117.82 149.02 119.28 149.51 120.74 150.02 C 115.69 151.75 110.24 151.54 105.00 151.21 C 103.03 151.17 102.04 149.25 100.73 148.09 Z" />
<path fill="#e8c65f" opacity="1.00" d=" M 93.52 149.99 C 96.33 151.59 98.99 153.43 101.55 155.40 C 100.17 155.98 98.76 156.52 97.50 157.35 C 97.45 158.57 97.99 159.70 98.30 160.86 C 96.24 160.50 94.17 160.17 92.10 159.82 C 93.49 160.73 94.96 161.55 96.20 162.66 C 96.68 164.21 96.23 165.88 96.25 167.47 C 93.58 165.49 90.85 163.48 87.68 162.38 C 88.45 157.77 90.99 153.81 93.52 149.99 Z" />
<path fill="#e8c65f" opacity="1.00" d=" M 119.96 156.06 C 121.15 156.18 122.33 156.31 123.52 156.45 C 125.79 159.93 128.46 163.12 131.42 166.04 C 129.20 165.78 126.99 165.48 124.77 165.17 C 124.85 164.50 124.94 163.84 125.03 163.18 C 122.73 162.36 120.44 161.52 118.15 160.67 C 118.75 160.42 119.96 159.94 120.56 159.69 C 119.90 159.33 119.23 158.96 118.57 158.60 C 119.03 157.75 119.50 156.91 119.96 156.06 Z" />
<path fill="#e8c65f" opacity="1.00" d=" M 133.25 166.24 C 138.91 166.15 142.74 170.75 147.24 173.44 C 144.21 173.08 141.07 172.77 138.19 173.99 C 135.45 175.26 132.52 173.88 129.90 172.96 C 128.91 171.95 127.97 170.88 127.03 169.83 C 130.73 170.15 134.41 170.53 138.10 170.90 C 134.96 170.14 131.83 169.34 128.73 168.42 C 130.22 167.66 131.71 166.89 133.25 166.24 Z" />
<path fill="#e8c65f" opacity="1.00" d=" M 116.02 169.85 C 120.03 170.48 124.05 171.10 127.94 172.27 C 126.51 173.23 125.21 174.38 124.15 175.73 C 125.90 177.32 127.65 178.93 129.40 180.52 C 128.55 181.12 127.71 181.72 126.87 182.33 C 127.96 184.60 129.07 186.88 130.16 189.16 C 128.15 188.25 125.37 188.03 124.29 185.84 C 123.02 183.51 121.73 181.20 120.19 179.04 C 121.43 178.81 122.67 178.58 123.91 178.34 C 121.12 175.66 118.85 172.49 116.02 169.85 Z" />
<path fill="#e8c65f" opacity="1.00" d=" M 36.80 180.21 C 41.52 176.69 47.08 174.61 51.98 171.37 C 52.45 171.77 53.40 172.58 53.88 172.98 C 52.73 175.27 51.59 177.58 50.47 179.90 C 45.99 180.91 41.33 180.85 36.80 180.21 Z" />
<path fill="#e8c65f" opacity="1.00" d=" M 130.79 175.05 C 138.17 175.55 145.44 177.74 152.19 180.69 C 150.47 180.93 148.74 181.15 147.01 181.34 C 149.82 182.28 152.55 183.47 155.18 184.87 C 153.44 185.02 151.71 185.16 149.98 185.28 C 152.52 186.17 154.96 187.35 157.13 188.96 C 152.00 189.07 147.06 187.49 142.29 185.76 C 139.47 184.82 137.95 182.08 136.14 179.92 C 137.78 179.82 139.42 179.74 141.07 179.65 C 137.61 178.42 132.54 178.90 130.79 175.05 Z" />
<path fill="#e8c65f" opacity="1.00" d=" M 147.82 188.97 C 151.83 189.39 156.36 189.79 159.22 193.00 C 155.40 192.74 149.48 193.23 147.82 188.97 Z" />
<path fill="#e8c65f" opacity="1.00" d=" M 124.65 195.96 C 127.66 196.79 130.61 197.84 133.51 199.00 C 133.09 198.03 132.66 197.07 132.25 196.11 C 133.90 196.16 135.54 196.21 137.19 196.34 C 141.44 197.46 145.50 199.27 149.11 201.81 C 146.27 201.31 143.45 200.70 140.64 200.04 C 140.89 200.71 141.15 201.38 141.40 202.05 C 140.92 202.79 140.44 203.54 139.96 204.30 C 134.51 202.24 128.94 200.04 124.65 195.96 Z" />
<path fill="#e8c65f" opacity="1.00" d=" M 158.58 201.85 C 162.87 202.19 167.35 204.71 167.89 209.35 C 167.28 209.55 166.07 209.95 165.46 210.15 C 166.32 211.07 167.20 211.99 168.10 212.89 C 165.49 212.58 162.29 212.82 160.46 210.54 C 158.30 208.18 158.97 204.76 158.58 201.85 Z" />
<path fill="#e8c65f" opacity="1.00" d=" M 129.66 203.81 C 133.84 204.42 137.81 205.93 141.88 206.98 C 143.15 207.42 144.36 206.66 145.55 206.33 C 149.52 207.40 153.37 208.89 156.98 210.87 C 151.61 210.38 146.28 209.59 140.92 209.11 C 148.45 212.48 155.60 217.35 163.89 218.56 C 163.05 217.20 162.21 215.85 161.37 214.50 C 163.95 215.17 166.87 215.29 169.03 217.00 C 170.68 219.26 170.83 222.27 172.53 224.51 C 173.93 226.38 175.29 228.30 176.09 230.53 C 173.60 229.73 171.16 228.83 168.77 227.79 C 166.80 225.31 165.09 222.43 162.26 220.84 C 159.77 219.51 157.02 218.86 154.34 218.07 C 154.53 219.63 154.71 221.19 154.89 222.75 C 152.19 221.62 149.49 220.48 146.79 219.36 C 147.32 219.22 148.36 218.92 148.89 218.77 C 145.89 215.28 141.40 213.51 138.60 209.85 C 136.06 207.26 132.34 206.26 129.66 203.81 Z" />
</g>
</svg>
