<?xml version="1.0" encoding="UTF-8" ?>
<!DOCTYPE svg PUBLIC "-//W3C//DTD SVG 1.1//EN" "http://www.w3.org/Graphics/SVG/1.1/DTD/svg11.dtd">
<svg width="250pt" height="250pt" viewBox="0 0 250 250" version="1.1" xmlns="http://www.w3.org/2000/svg">
<g id="#ffffffff">
<path fill="#ffffff" opacity="1.00" d=" M 0.00 0.00 L 250.00 0.00 L 250.00 250.00 L 0.00 250.00 L 0.00 0.00 M 115.95 5.37 L 115.61 5.76 C 111.70 6.55 108.39 8.94 104.54 9.89 C 101.12 10.82 97.52 10.65 94.03 10.29 C 93.02 9.71 92.00 9.17 90.97 8.64 C 86.95 9.72 83.06 11.28 79.30 13.05 C 72.93 15.15 66.84 18.20 61.50 22.28 C 56.13 24.63 51.46 28.29 46.88 31.88 C 44.51 33.89 41.87 35.83 40.51 38.70 C 34.22 43.75 29.26 50.22 24.95 56.99 C 20.32 63.26 16.81 70.25 13.55 77.30 C 13.29 78.05 13.02 78.80 12.76 79.55 C 11.10 83.69 9.72 87.93 8.56 92.23 C 5.43 101.81 4.12 111.93 4.52 122.00 C 4.29 130.71 4.48 139.53 6.92 147.96 C 7.93 151.45 9.09 154.95 9.26 158.61 C 9.39 161.31 9.79 164.13 11.78 166.14 C 14.53 172.42 16.26 179.19 19.90 185.05 C 24.35 192.11 28.93 199.21 35.16 204.85 C 42.85 212.14 49.52 220.94 59.12 225.84 C 60.90 227.32 62.76 229.89 65.36 229.31 C 67.50 230.92 69.75 232.37 72.01 233.80 C 77.68 236.97 83.91 238.86 89.98 241.07 C 101.85 245.31 114.50 246.62 127.01 247.31 C 129.47 247.50 131.92 247.05 134.22 246.18 C 140.66 245.66 147.12 244.57 153.16 242.20 C 158.62 240.01 164.44 238.99 170.07 237.33 L 169.23 237.04 C 172.43 236.05 176.40 235.22 178.35 232.24 C 185.53 229.50 192.01 225.15 197.93 220.30 C 201.85 217.50 205.53 214.34 208.84 210.83 C 209.44 210.05 210.37 209.33 210.40 208.27 C 217.25 203.84 221.57 196.73 226.31 190.29 C 229.62 185.81 231.50 180.51 234.50 175.83 C 235.15 174.27 235.83 172.72 236.44 171.13 C 237.11 168.52 238.16 166.01 238.73 163.37 C 241.63 156.90 242.42 149.77 244.21 142.96 C 245.99 136.44 245.27 129.65 245.47 122.99 C 245.70 118.63 244.43 114.40 244.28 110.06 C 244.22 108.75 243.75 107.59 242.87 106.60 C 243.12 101.51 241.58 96.60 239.18 92.16 C 240.07 90.39 239.18 88.26 239.18 86.38 C 238.77 85.39 238.38 84.40 237.98 83.41 C 237.25 81.79 236.56 80.17 235.84 78.56 C 233.36 71.40 230.01 64.50 226.01 58.08 C 223.56 54.16 221.25 50.08 217.99 46.76 C 212.75 41.68 207.91 36.11 202.19 31.56 C 194.50 25.39 186.26 19.66 177.14 15.84 C 175.48 14.71 173.77 13.63 171.90 12.91 C 161.87 9.39 151.62 5.92 141.01 4.79 C 132.67 5.32 124.31 5.42 115.95 5.37 Z" />
</g>
<g id="#fb8003ff">
<path fill="#fb8003" opacity="1.00" d=" M 115.95 5.37 C 124.31 5.42 132.67 5.32 141.01 4.79 C 151.62 5.92 161.87 9.39 171.90 12.91 C 168.74 13.37 165.78 14.59 162.97 16.04 C 161.48 16.43 159.96 16.71 158.43 16.94 C 155.36 17.36 152.27 17.62 149.17 17.63 L 148.27 17.60 C 139.71 16.12 131.04 17.21 122.43 16.51 C 112.15 15.67 102.00 18.24 91.73 18.13 C 87.46 16.76 83.27 15.15 79.30 13.05 C 83.06 11.28 86.95 9.72 90.97 8.64 C 92.00 9.17 93.02 9.71 94.03 10.29 C 97.42 12.30 101.52 11.83 105.21 11.08 C 109.02 10.22 113.18 9.08 115.61 5.76 L 115.95 5.37 Z" />
</g>
<g id="#b13518ff">
<path fill="#b13518" opacity="1.00" d=" M 104.54 9.89 C 108.39 8.94 111.70 6.55 115.61 5.76 C 113.18 9.08 109.02 10.22 105.21 11.08 C 101.52 11.83 97.42 12.30 94.03 10.29 C 97.52 10.65 101.12 10.82 104.54 9.89 Z" />
<path fill="#b13518" opacity="1.00" d=" M 125.87 88.79 C 126.20 88.85 126.86 88.97 127.18 89.04 C 129.35 89.53 131.60 89.26 133.76 88.88 C 132.63 89.70 131.53 90.57 130.53 91.55 C 130.42 92.04 130.21 93.02 130.10 93.51 C 128.89 98.57 129.22 103.81 129.13 108.97 C 128.86 121.26 128.15 133.54 126.98 145.77 C 126.13 146.28 125.29 146.78 124.46 147.29 C 124.60 144.79 124.73 142.29 124.94 139.79 C 125.54 134.78 125.74 129.74 125.84 124.69 C 126.02 122.54 126.18 120.38 126.23 118.21 C 126.34 115.70 126.46 113.19 126.53 110.68 C 126.63 106.38 126.65 102.09 126.96 97.80 C 127.33 94.75 127.16 91.62 125.87 88.79 Z" />
</g>
<g id="#fd4a55ff">
<path fill="#fd4a55" opacity="1.00" d=" M 61.50 22.28 C 66.84 18.20 72.93 15.15 79.30 13.05 C 83.27 15.15 87.46 16.76 91.73 18.13 C 92.99 19.20 94.19 20.36 95.42 21.48 C 89.78 21.27 86.30 26.32 81.85 28.88 C 79.93 30.36 77.57 29.10 75.50 28.71 C 75.52 30.01 75.53 31.30 75.55 32.60 L 75.32 33.42 C 74.55 28.99 73.78 24.54 72.28 20.29 C 68.62 20.48 65.00 21.19 61.50 22.28 Z" />
</g>
<g id="#fd394aff">
<path fill="#fd394a" opacity="1.00" d=" M 162.97 16.04 C 165.78 14.59 168.74 13.37 171.90 12.91 C 173.77 13.63 175.48 14.71 177.14 15.84 C 175.40 15.66 173.66 15.56 171.92 15.44 C 173.63 17.51 175.41 19.53 177.31 21.43 C 177.30 21.96 177.26 23.02 177.25 23.55 C 176.53 25.53 175.77 27.49 175.19 29.52 C 169.05 27.31 166.30 20.52 160.07 18.42 C 161.01 17.60 161.97 16.80 162.97 16.04 Z" />
</g>
<g id="#f90b10ff">
<path fill="#f90b10" opacity="1.00" d=" M 171.92 15.44 C 173.66 15.56 175.40 15.66 177.14 15.84 C 186.26 19.66 194.50 25.39 202.19 31.56 C 200.00 30.70 197.65 30.78 195.49 31.65 C 189.49 28.18 184.42 22.54 177.31 21.43 C 175.41 19.53 173.63 17.51 171.92 15.44 Z" />
</g>
<g id="#f7962cff">
<path fill="#f7962c" opacity="1.00" d=" M 91.73 18.13 C 102.00 18.24 112.15 15.67 122.43 16.51 C 131.04 17.21 139.71 16.12 148.27 17.60 C 143.85 17.38 139.36 17.50 135.11 18.86 C 140.27 20.28 145.64 20.14 150.94 19.97 C 150.35 19.19 149.76 18.41 149.17 17.63 C 152.27 17.62 155.36 17.36 158.43 16.94 C 156.58 19.03 154.90 21.27 153.55 23.72 C 154.06 23.38 155.08 22.71 155.59 22.37 C 155.90 22.74 156.52 23.48 156.83 23.85 C 157.01 24.30 157.37 25.20 157.55 25.65 C 154.71 25.75 151.87 25.83 149.03 25.91 C 137.33 26.35 125.63 25.09 114.02 23.89 C 108.18 22.11 102.10 22.50 96.11 22.09 L 95.42 21.48 C 94.19 20.36 92.99 19.20 91.73 18.13 M 106.14 19.24 C 106.18 19.59 106.26 20.29 106.30 20.64 C 110.62 21.25 115.02 21.19 119.34 20.63 C 115.40 18.19 110.52 19.09 106.14 19.24 Z" />
</g>
<g id="#a81202ff">
<path fill="#a81202" opacity="1.00" d=" M 158.43 16.94 C 159.96 16.71 161.48 16.43 162.97 16.04 C 161.97 16.80 161.01 17.60 160.07 18.42 C 158.58 19.75 157.14 21.12 155.59 22.37 C 155.08 22.71 154.06 23.38 153.55 23.72 C 154.90 21.27 156.58 19.03 158.43 16.94 Z" />
<path fill="#a81202" opacity="1.00" d=" M 207.50 65.61 C 208.54 66.40 209.62 67.15 210.67 67.95 C 210.72 68.95 210.79 69.94 210.86 70.94 C 211.37 76.30 211.11 81.70 210.29 87.02 C 209.54 86.76 208.85 86.39 208.23 85.90 C 210.63 79.31 209.21 72.18 207.50 65.61 Z" />
<path fill="#a81202" opacity="1.00" d=" M 229.37 104.72 C 230.21 111.18 230.57 117.79 229.15 124.20 C 228.62 127.74 227.03 132.09 230.05 134.98 C 231.76 137.22 234.87 136.16 237.23 136.04 C 237.62 135.96 238.40 135.80 238.79 135.72 C 237.10 140.26 235.76 145.09 236.10 149.98 C 236.47 154.53 237.90 158.90 238.73 163.37 C 238.16 166.01 237.11 168.52 236.44 171.13 L 236.02 170.69 C 233.57 167.60 231.01 164.60 228.29 161.74 C 227.43 158.02 224.12 155.74 222.39 152.50 C 220.91 148.93 221.57 144.97 221.78 141.23 C 223.96 136.98 226.20 132.61 226.61 127.76 C 227.17 120.04 227.62 112.29 229.37 104.72 Z" />
</g>
<g id="#fbb46aff">
<path fill="#fbb46a" opacity="1.00" d=" M 135.11 18.86 C 139.36 17.50 143.85 17.38 148.27 17.60 L 149.17 17.63 C 149.76 18.41 150.35 19.19 150.94 19.97 C 145.64 20.14 140.27 20.28 135.11 18.86 Z" />
</g>
<g id="#df791eff">
<path fill="#df791e" opacity="1.00" d=" M 106.14 19.24 C 110.52 19.09 115.40 18.19 119.34 20.63 C 115.02 21.19 110.62 21.25 106.30 20.64 C 106.26 20.29 106.18 19.59 106.14 19.24 Z" />
</g>
<g id="#fc485eff">
<path fill="#fc485e" opacity="1.00" d=" M 155.59 22.37 C 157.14 21.12 158.58 19.75 160.07 18.42 C 166.30 20.52 169.05 27.31 175.19 29.52 C 174.48 32.57 173.61 35.58 172.36 38.46 C 169.35 33.19 165.56 28.41 160.88 24.54 C 160.48 24.95 159.68 25.79 159.28 26.21 C 158.48 25.40 157.64 24.64 156.83 23.85 C 156.52 23.48 155.90 22.74 155.59 22.37 Z" />
</g>
<g id="#f6675aff">
<path fill="#f6675a" opacity="1.00" d=" M 61.50 22.28 C 65.00 21.19 68.62 20.48 72.28 20.29 C 61.68 24.97 51.64 31.18 43.63 39.63 C 40.03 43.57 37.10 48.04 34.00 52.36 C 35.27 47.40 38.51 43.34 40.51 38.70 C 41.87 35.83 44.51 33.89 46.88 31.88 C 51.46 28.29 56.13 24.63 61.50 22.28 Z" />
</g>
<g id="#020203ff">
<path fill="#020203" opacity="1.00" d=" M 43.63 39.63 C 51.64 31.18 61.68 24.97 72.28 20.29 C 73.78 24.54 74.55 28.99 75.32 33.42 C 72.22 38.31 67.42 41.69 62.99 45.26 C 62.87 46.54 62.75 47.82 62.64 49.10 C 61.99 48.37 61.35 47.64 60.72 46.90 C 59.58 43.45 59.49 39.80 59.57 36.21 C 57.64 39.61 55.01 42.53 52.38 45.40 C 48.28 49.91 45.57 55.43 42.90 60.85 C 41.77 61.45 40.65 62.05 39.56 62.70 C 35.64 65.71 31.88 68.92 28.45 72.48 C 27.90 65.31 31.73 58.92 34.00 52.36 C 37.10 48.04 40.03 43.57 43.63 39.63 Z" />
<path fill="#020203" opacity="1.00" d=" M 117.07 195.68 C 121.76 194.97 126.56 194.98 131.25 195.66 C 132.48 196.13 133.69 196.66 134.91 197.19 C 136.69 198.56 138.40 200.01 140.16 201.42 C 137.36 204.15 135.28 207.84 131.52 209.38 C 127.33 211.33 122.60 210.74 118.16 210.34 C 113.91 208.73 110.76 205.34 108.70 201.37 L 108.65 200.46 C 111.22 198.52 113.73 196.11 117.07 195.68 Z" />
</g>
<g id="#fd7994ff">
<path fill="#fd7994" opacity="1.00" d=" M 81.85 28.88 C 86.30 26.32 89.78 21.27 95.42 21.48 L 96.11 22.09 C 96.04 22.47 95.91 23.23 95.85 23.61 C 93.96 26.58 92.26 29.68 90.91 32.94 C 87.60 40.78 83.45 48.25 80.36 56.18 C 79.81 52.13 78.83 48.16 77.84 44.20 C 77.69 43.59 77.39 42.37 77.24 41.76 C 76.56 38.73 75.97 35.68 75.55 32.60 C 75.53 31.30 75.52 30.01 75.50 28.71 C 77.57 29.10 79.93 30.36 81.85 28.88 Z" />
<path fill="#fd7994" opacity="1.00" d=" M 177.31 21.43 C 184.42 22.54 189.49 28.18 195.49 31.65 C 201.86 37.27 207.94 43.44 212.06 50.95 C 216.33 57.84 218.98 65.54 221.43 73.22 C 221.47 73.60 221.55 74.36 221.59 74.74 L 221.31 75.42 C 216.82 56.82 205.43 40.13 189.70 29.24 C 185.70 26.43 181.26 24.31 177.31 21.43 Z" />
</g>
<g id="#fca85fff">
<path fill="#fca85f" opacity="1.00" d=" M 96.11 22.09 C 102.10 22.50 108.18 22.11 114.02 23.89 C 125.63 25.09 137.33 26.35 149.03 25.91 C 145.97 28.56 142.89 31.20 140.05 34.09 C 136.24 34.24 131.48 33.32 128.78 36.76 C 126.34 38.85 126.40 42.21 126.89 45.10 C 122.54 45.75 118.19 46.46 113.95 47.64 C 113.94 48.88 113.99 50.13 113.79 51.36 C 111.45 53.97 108.07 55.30 105.20 57.21 C 101.75 59.23 98.94 62.12 96.37 65.13 C 93.07 63.66 92.72 59.91 93.76 56.85 C 94.82 49.71 104.59 48.31 104.98 40.87 C 106.53 34.55 98.54 32.53 97.44 26.91 C 97.00 26.80 96.10 26.57 95.65 26.46 C 95.70 25.75 95.80 24.32 95.85 23.61 C 95.91 23.23 96.04 22.47 96.11 22.09 Z" />
</g>
<g id="#020202ff">
<path fill="#020202" opacity="1.00" d=" M 177.31 21.43 C 181.26 24.31 185.70 26.43 189.70 29.24 C 205.43 40.13 216.82 56.82 221.31 75.42 C 221.04 75.93 220.50 76.96 220.23 77.48 L 219.51 76.90 C 216.73 73.75 213.98 70.54 210.67 67.95 C 209.62 67.15 208.54 66.40 207.50 65.61 C 203.08 56.74 197.64 48.41 190.84 41.16 C 190.68 47.24 189.97 53.28 189.08 59.29 C 188.80 57.41 188.42 55.55 187.82 53.75 C 187.49 53.35 186.82 52.53 186.49 52.13 C 182.97 49.35 178.80 47.60 175.11 45.08 C 175.10 37.83 177.12 30.78 177.25 23.55 C 177.26 23.02 177.30 21.96 177.31 21.43 Z" />
</g>
<g id="#d63b0cff">
<path fill="#d63b0c" opacity="1.00" d=" M 90.91 32.94 C 92.26 29.68 93.96 26.58 95.85 23.61 C 95.80 24.32 95.70 25.75 95.65 26.46 C 95.44 27.58 95.17 28.69 94.87 29.79 C 90.81 38.85 85.69 47.46 82.61 56.95 C 82.07 58.48 81.51 60.01 80.97 61.55 C 82.69 62.15 84.40 62.77 86.12 63.38 C 85.47 63.40 84.17 63.46 83.52 63.48 C 79.26 63.34 75.18 64.77 71.60 66.99 C 71.86 66.12 72.14 65.26 72.43 64.39 C 75.74 62.43 79.29 60.15 80.36 56.18 C 83.45 48.25 87.60 40.78 90.91 32.94 Z" />
</g>
<g id="#ab0102ff">
<path fill="#ab0102" opacity="1.00" d=" M 156.83 23.85 C 157.64 24.64 158.48 25.40 159.28 26.21 C 164.79 34.67 168.63 44.13 172.53 53.41 C 173.33 55.56 174.14 57.70 175.03 59.81 C 174.57 60.59 174.11 61.38 173.65 62.16 C 176.64 63.13 179.62 64.10 182.61 65.06 C 182.60 65.59 182.59 66.65 182.58 67.18 C 181.52 66.71 180.45 66.27 179.36 65.87 C 177.63 65.43 175.88 65.09 174.13 64.77 C 172.86 64.54 171.59 64.34 170.33 64.13 C 171.88 61.99 172.50 59.34 171.67 56.78 C 168.34 45.81 162.03 36.12 157.55 25.65 C 157.37 25.20 157.01 24.30 156.83 23.85 Z" />
<path fill="#ab0102" opacity="1.00" d=" M 226.01 58.08 C 230.01 64.50 233.36 71.40 235.84 78.56 C 230.92 82.79 226.23 87.31 221.05 91.24 C 221.38 86.63 220.89 82.03 220.23 77.48 C 220.50 76.96 221.04 75.93 221.31 75.42 L 221.59 74.74 C 222.38 76.26 223.25 77.74 224.11 79.22 C 226.59 72.56 228.19 65.04 226.01 58.08 Z" />
<path fill="#ab0102" opacity="1.00" d=" M 99.20 209.29 C 103.93 210.58 108.85 210.83 113.73 210.83 L 114.48 211.30 C 111.21 211.61 107.97 212.09 104.72 212.56 C 114.91 223.23 134.20 223.47 144.17 212.37 C 141.03 211.91 137.88 211.49 134.71 211.37 C 139.69 210.78 144.70 210.36 149.60 209.28 C 149.53 209.58 149.37 210.18 149.30 210.48 C 145.21 213.64 141.76 217.82 136.82 219.71 C 128.10 223.43 117.79 223.01 109.46 218.45 C 105.42 216.17 102.43 212.54 99.20 209.29 Z" />
</g>
<g id="#fc90abff">
<path fill="#fc90ab" opacity="1.00" d=" M 159.28 26.21 C 159.68 25.79 160.48 24.95 160.88 24.54 C 165.56 28.41 169.35 33.19 172.36 38.46 C 173.61 35.58 174.48 32.57 175.19 29.52 C 175.77 27.49 176.53 25.53 177.25 23.55 C 177.12 30.78 175.10 37.83 175.11 45.08 C 174.51 47.93 173.54 50.68 172.53 53.41 C 168.63 44.13 164.79 34.67 159.28 26.21 Z" />
</g>
<g id="#feb36aff">
<path fill="#feb36a" opacity="1.00" d=" M 95.65 26.46 C 96.10 26.57 97.00 26.80 97.44 26.91 C 98.54 32.53 106.53 34.55 104.98 40.87 C 104.59 48.31 94.82 49.71 93.76 56.85 C 92.72 59.91 93.07 63.66 96.37 65.13 C 104.29 69.84 112.69 73.69 120.49 78.59 C 122.12 79.42 122.72 81.17 123.24 82.79 C 117.45 79.60 111.89 75.99 105.93 73.09 C 99.31 69.89 93.17 65.64 86.12 63.38 C 84.40 62.77 82.69 62.15 80.97 61.55 C 81.51 60.01 82.07 58.48 82.61 56.95 C 82.74 57.48 82.99 58.56 83.12 59.10 C 85.02 56.57 86.70 53.86 87.97 50.96 C 91.12 43.83 94.31 36.70 96.99 29.37 C 96.46 29.47 95.40 29.68 94.87 29.79 C 95.17 28.69 95.44 27.58 95.65 26.46 Z" />
</g>
<g id="#fdb174ff">
<path fill="#fdb174" opacity="1.00" d=" M 149.03 25.91 C 151.87 25.83 154.71 25.75 157.55 25.65 C 162.03 36.12 168.34 45.81 171.67 56.78 C 171.35 57.61 170.71 59.27 170.39 60.10 C 168.54 55.87 166.84 51.54 164.29 47.67 C 157.06 52.97 150.00 58.48 142.85 63.87 C 140.96 65.43 138.39 64.76 136.16 64.84 C 136.14 60.37 136.83 55.95 137.45 51.53 C 138.23 45.71 136.52 39.29 140.05 34.09 C 142.89 31.20 145.97 28.56 149.03 25.91 Z" />
</g>
<g id="#f8ce7eff">
<path fill="#f8ce7e" opacity="1.00" d=" M 94.87 29.79 C 95.40 29.68 96.46 29.47 96.99 29.37 C 94.31 36.70 91.12 43.83 87.97 50.96 C 86.70 53.86 85.02 56.57 83.12 59.10 C 82.99 58.56 82.74 57.48 82.61 56.95 C 85.69 47.46 90.81 38.85 94.87 29.79 Z" />
</g>
<g id="#ed0203ff">
<path fill="#ed0203" opacity="1.00" d=" M 195.49 31.65 C 197.65 30.78 200.00 30.70 202.19 31.56 C 207.91 36.11 212.75 41.68 217.99 46.76 C 217.01 47.92 215.99 49.04 215.17 50.32 C 215.70 54.93 218.35 58.92 219.80 63.26 C 221.03 66.43 221.21 69.86 221.43 73.22 C 218.98 65.54 216.33 57.84 212.06 50.95 C 207.94 43.44 201.86 37.27 195.49 31.65 Z" />
</g>
<g id="#070f48ff">
<path fill="#070f48" opacity="1.00" d=" M 75.32 33.42 L 75.55 32.60 C 75.97 35.68 76.56 38.73 77.24 41.76 C 73.77 44.38 69.64 45.80 65.56 47.15 C 64.70 46.52 63.84 45.89 62.99 45.26 C 67.42 41.69 72.22 38.31 75.32 33.42 Z" />
</g>
<g id="#fca367ff">
<path fill="#fca367" opacity="1.00" d=" M 128.78 36.76 C 131.48 33.32 136.24 34.24 140.05 34.09 C 136.52 39.29 138.23 45.71 137.45 51.53 C 136.83 55.95 136.14 60.37 136.16 64.84 C 138.39 64.76 140.96 65.43 142.85 63.87 C 150.00 58.48 157.06 52.97 164.29 47.67 C 166.84 51.54 168.54 55.87 170.39 60.10 C 170.71 59.27 171.35 57.61 171.67 56.78 C 172.50 59.34 171.88 61.99 170.33 64.13 C 168.64 65.25 166.90 66.29 165.15 67.31 C 164.60 67.01 163.51 66.43 162.96 66.14 C 163.77 64.85 164.52 63.51 165.23 62.16 C 160.50 62.46 155.52 62.82 151.41 65.43 C 147.62 67.87 144.35 71.00 140.82 73.78 C 138.34 75.72 135.85 77.66 133.46 79.71 C 128.60 74.35 127.60 66.73 128.87 59.83 C 129.90 54.80 127.99 49.93 126.89 45.10 C 126.40 42.21 126.34 38.85 128.78 36.76 Z" />
<path fill="#fca367" opacity="1.00" d=" M 237.98 83.41 C 238.38 84.40 238.77 85.39 239.18 86.38 C 234.08 88.89 229.17 91.80 224.68 95.29 C 223.64 96.04 222.58 96.76 221.49 97.42 C 220.92 97.74 220.34 98.05 219.77 98.35 C 220.10 97.31 220.45 96.28 220.82 95.26 C 226.28 90.91 233.28 88.70 237.98 83.41 Z" />
</g>
<g id="#fefffeff">
<path fill="#fefffe" opacity="1.00" d=" M 52.38 45.40 C 55.01 42.53 57.64 39.61 59.57 36.21 C 59.49 39.80 59.58 43.45 60.72 46.90 C 61.37 49.32 62.21 51.69 63.07 54.05 C 64.49 58.28 66.16 62.53 66.57 67.01 C 65.38 69.32 62.80 70.40 60.71 71.73 C 55.01 74.78 49.56 78.25 44.01 81.57 C 43.13 80.35 42.27 79.12 41.40 77.89 C 41.35 72.17 42.04 66.50 42.90 60.85 C 45.57 55.43 48.28 49.91 52.38 45.40 Z" />
</g>
<g id="#fb030dff">
<path fill="#fb030d" opacity="1.00" d=" M 24.95 56.99 C 29.26 50.22 34.22 43.75 40.51 38.70 C 38.51 43.34 35.27 47.40 34.00 52.36 C 31.73 58.92 27.90 65.31 28.45 72.48 L 28.38 73.17 C 27.62 77.46 27.71 81.84 28.91 86.04 C 23.75 83.20 18.82 79.94 13.55 77.30 C 16.81 70.25 20.32 63.26 24.95 56.99 Z" />
</g>
<g id="#f4deaeff">
<path fill="#f4deae" opacity="1.00" d=" M 65.56 47.15 C 69.64 45.80 73.77 44.38 77.24 41.76 C 77.39 42.37 77.69 43.59 77.84 44.20 C 73.45 46.51 68.87 48.41 64.20 50.04 C 64.61 49.06 65.08 48.10 65.56 47.15 Z" />
<path fill="#f4deae" opacity="1.00" d=" M 131.57 150.56 C 131.98 150.50 132.80 150.40 133.20 150.35 C 140.11 154.28 146.64 158.84 153.38 163.06 C 157.95 166.61 162.88 169.63 167.90 172.49 C 168.93 173.13 169.96 173.79 170.98 174.44 C 170.64 174.64 169.95 175.05 169.60 175.25 C 164.40 172.20 159.11 169.31 154.15 165.88 C 146.61 160.79 138.70 156.23 131.57 150.56 Z" />
<path fill="#f4deae" opacity="1.00" d=" M 95.55 163.45 C 99.64 161.45 103.75 159.48 107.75 157.30 C 108.19 157.45 109.06 157.75 109.50 157.90 C 101.44 163.07 93.27 168.10 84.77 172.54 C 87.38 168.50 91.87 166.35 95.55 163.45 Z" />
<path fill="#f4deae" opacity="1.00" d=" M 112.96 195.06 C 116.77 193.77 120.77 193.15 124.78 193.09 C 126.94 193.38 129.08 193.81 131.21 194.24 C 131.22 194.59 131.24 195.31 131.25 195.66 C 126.56 194.98 121.76 194.97 117.07 195.68 C 113.73 196.11 111.22 198.52 108.65 200.46 C 108.66 199.91 108.67 198.82 108.68 198.27 C 109.11 197.93 109.96 197.26 110.39 196.92 C 111.23 196.27 112.08 195.64 112.96 195.06 Z" />
<path fill="#f4deae" opacity="1.00" d=" M 65.36 229.31 C 68.87 228.09 72.53 227.45 76.24 227.23 C 75.44 227.67 74.65 228.12 73.87 228.58 C 75.39 228.78 76.91 228.99 78.42 229.21 C 76.62 231.17 74.47 232.76 72.01 233.80 C 69.75 232.37 67.50 230.92 65.36 229.31 Z" />
</g>
<g id="#fdfefdff">
<path fill="#fdfefd" opacity="1.00" d=" M 190.84 41.16 C 197.64 48.41 203.08 56.74 207.50 65.61 C 209.21 72.18 210.63 79.31 208.23 85.90 C 207.92 86.60 207.61 87.30 207.30 88.00 C 205.22 78.37 194.16 76.15 188.67 69.17 C 187.53 65.97 188.77 62.54 189.08 59.29 C 189.97 53.28 190.68 47.24 190.84 41.16 Z" />
</g>
<g id="#fdb95dff">
<path fill="#fdb95d" opacity="1.00" d=" M 64.20 50.04 C 68.87 48.41 73.45 46.51 77.84 44.20 C 78.83 48.16 79.81 52.13 80.36 56.18 C 79.29 60.15 75.74 62.43 72.43 64.39 C 68.08 60.97 65.95 55.77 64.00 50.76 L 64.20 50.04 Z" />
</g>
<g id="#7d665bff">
<path fill="#7d665b" opacity="1.00" d=" M 62.99 45.26 C 63.84 45.89 64.70 46.52 65.56 47.15 C 65.08 48.10 64.61 49.06 64.20 50.04 L 64.00 50.76 C 63.69 51.86 63.38 52.95 63.07 54.05 C 62.21 51.69 61.37 49.32 60.72 46.90 C 61.35 47.64 61.99 48.37 62.64 49.10 C 62.75 47.82 62.87 46.54 62.99 45.26 Z" />
</g>
<g id="#fc9e5dff">
<path fill="#fc9e5d" opacity="1.00" d=" M 113.95 47.64 C 118.19 46.46 122.54 45.75 126.89 45.10 C 127.99 49.93 129.90 54.80 128.87 59.83 C 127.60 66.73 128.60 74.35 133.46 79.71 C 135.85 77.66 138.34 75.72 140.82 73.78 C 139.52 75.54 138.37 77.39 137.23 79.25 C 146.17 75.66 154.44 70.60 162.96 66.14 C 163.51 66.43 164.60 67.01 165.15 67.31 C 155.95 72.47 146.25 76.72 137.36 82.44 C 133.18 85.32 127.48 85.81 123.24 82.79 C 122.72 81.17 122.12 79.42 120.49 78.59 C 112.69 73.69 104.29 69.84 96.37 65.13 C 98.94 62.12 101.75 59.23 105.20 57.21 C 108.07 55.30 111.45 53.97 113.79 51.36 C 113.99 50.13 113.94 48.88 113.95 47.64 Z" />
</g>
<g id="#feb981ff">
<path fill="#feb981" opacity="1.00" d=" M 175.11 45.08 C 178.80 47.60 182.97 49.35 186.49 52.13 C 185.24 51.92 183.99 51.70 182.74 51.47 C 180.26 50.73 177.86 49.74 175.45 48.80 C 176.22 52.42 177.82 56.61 175.03 59.81 C 174.14 57.70 173.33 55.56 172.53 53.41 C 173.54 50.68 174.51 47.93 175.11 45.08 Z" />
</g>
<g id="#ce0103ff">
<path fill="#ce0103" opacity="1.00" d=" M 215.17 50.32 C 215.99 49.04 217.01 47.92 217.99 46.76 C 221.25 50.08 223.56 54.16 226.01 58.08 C 228.19 65.04 226.59 72.56 224.11 79.22 C 223.25 77.74 222.38 76.26 221.59 74.74 C 221.55 74.36 221.47 73.60 221.43 73.22 C 221.21 69.86 221.03 66.43 219.80 63.26 C 218.35 58.92 215.70 54.93 215.17 50.32 Z" />
</g>
<g id="#fc9d51ff">
<path fill="#fc9d51" opacity="1.00" d=" M 175.45 48.80 C 177.86 49.74 180.26 50.73 182.74 51.47 C 180.16 54.96 182.57 59.46 182.63 63.36 C 182.63 63.78 182.61 64.64 182.61 65.06 C 179.62 64.10 176.64 63.13 173.65 62.16 C 174.11 61.38 174.57 60.59 175.03 59.81 C 177.82 56.61 176.22 52.42 175.45 48.80 Z" />
</g>
<g id="#ef8431ff">
<path fill="#ef8431" opacity="1.00" d=" M 64.00 50.76 C 65.95 55.77 68.08 60.97 72.43 64.39 C 72.14 65.26 71.86 66.12 71.60 66.99 C 71.46 67.50 71.17 68.51 71.03 69.02 C 66.60 71.69 62.00 74.04 57.40 76.41 C 51.96 79.20 47.27 83.56 41.23 85.10 C 38.20 84.93 35.63 86.62 33.17 88.17 C 32.03 87.60 30.89 87.03 29.75 86.47 C 34.31 86.14 36.86 82.38 38.52 78.58 C 38.87 78.70 39.57 78.94 39.92 79.06 C 40.27 79.22 40.98 79.53 41.34 79.69 C 41.35 79.24 41.38 78.34 41.40 77.89 C 42.27 79.12 43.13 80.35 44.01 81.57 C 49.56 78.25 55.01 74.78 60.71 71.73 C 62.80 70.40 65.38 69.32 66.57 67.01 C 66.16 62.53 64.49 58.28 63.07 54.05 C 63.38 52.95 63.69 51.86 64.00 50.76 Z" />
</g>
<g id="#fd8421ff">
<path fill="#fd8421" opacity="1.00" d=" M 182.63 63.36 C 182.57 59.46 180.16 54.96 182.74 51.47 C 183.99 51.70 185.24 51.92 186.49 52.13 C 186.82 52.53 187.49 53.35 187.82 53.75 C 185.97 56.88 184.16 60.05 182.63 63.36 Z" />
</g>
<g id="#ee5d11ff">
<path fill="#ee5d11" opacity="1.00" d=" M 187.82 53.75 C 188.42 55.55 188.80 57.41 189.08 59.29 C 188.77 62.54 187.53 65.97 188.67 69.17 C 194.16 76.15 205.22 78.37 207.30 88.00 C 207.61 87.30 207.92 86.60 208.23 85.90 C 208.85 86.39 209.54 86.76 210.29 87.02 C 210.68 87.16 211.47 87.46 211.87 87.60 C 213.12 89.76 214.41 91.89 215.53 94.12 C 213.45 93.44 211.38 92.69 209.22 92.33 C 206.55 94.64 207.32 98.47 207.20 101.58 C 207.56 107.71 205.81 114.08 208.10 119.99 C 208.99 123.05 211.26 126.32 209.54 129.51 C 207.36 134.14 205.61 139.01 205.30 144.17 C 203.41 144.12 201.52 144.05 199.64 143.98 C 199.81 140.46 199.96 136.89 199.34 133.41 C 198.56 129.79 195.59 127.26 192.96 124.91 C 193.79 123.54 194.61 122.18 195.44 120.81 C 193.50 115.73 190.74 110.14 192.63 104.65 C 195.73 100.15 201.96 98.18 203.58 92.54 C 204.99 89.46 202.95 86.52 201.45 83.95 C 199.12 85.85 196.91 88.26 193.83 88.85 C 189.36 89.78 184.85 88.53 180.67 87.02 C 181.41 80.67 182.16 74.31 182.57 67.94 L 182.58 67.18 C 182.59 66.65 182.60 65.59 182.61 65.06 C 182.61 64.64 182.63 63.78 182.63 63.36 C 184.16 60.05 185.97 56.88 187.82 53.75 Z" />
</g>
<g id="#da5003ff">
<path fill="#da5003" opacity="1.00" d=" M 39.56 62.70 C 40.65 62.05 41.77 61.45 42.90 60.85 C 42.04 66.50 41.35 72.17 41.40 77.89 C 41.38 78.34 41.35 79.24 41.34 79.69 C 40.98 79.53 40.27 79.22 39.92 79.06 C 39.52 74.37 39.86 69.66 39.80 64.97 C 39.82 64.20 39.66 63.45 39.56 62.70 Z" />
<path fill="#da5003" opacity="1.00" d=" M 209.22 92.33 C 211.38 92.69 213.45 93.44 215.53 94.12 C 216.58 96.93 216.92 99.95 216.90 102.94 C 216.88 109.88 216.53 116.82 215.62 123.71 C 214.47 132.26 215.84 141.09 213.21 149.44 C 210.56 147.70 207.94 145.93 205.30 144.17 C 205.61 139.01 207.36 134.14 209.54 129.51 C 211.26 126.32 208.99 123.05 208.10 119.99 C 205.81 114.08 207.56 107.71 207.20 101.58 C 207.32 98.47 206.55 94.64 209.22 92.33 Z" />
</g>
<g id="#fd8d4eff">
<path fill="#fd8d4e" opacity="1.00" d=" M 151.41 65.43 C 155.52 62.82 160.50 62.46 165.23 62.16 C 164.52 63.51 163.77 64.85 162.96 66.14 C 154.44 70.60 146.17 75.66 137.23 79.25 C 138.37 77.39 139.52 75.54 140.82 73.78 C 144.35 71.00 147.62 67.87 151.41 65.43 Z" />
</g>
<g id="#fdd59bff">
<path fill="#fdd59b" opacity="1.00" d=" M 28.45 72.48 C 31.88 68.92 35.64 65.71 39.56 62.70 C 39.66 63.45 39.82 64.20 39.80 64.97 C 36.02 67.75 32.35 70.67 28.38 73.17 L 28.45 72.48 Z" />
<path fill="#fdd59b" opacity="1.00" d=" M 82.07 65.16 C 82.86 64.96 84.45 64.57 85.25 64.38 C 96.44 70.18 107.75 75.81 118.46 82.50 C 122.08 84.58 125.86 86.72 130.05 87.30 C 133.00 87.03 135.71 85.67 138.29 84.30 C 143.91 81.20 149.53 78.09 155.28 75.24 C 161.72 72.02 167.58 67.77 174.13 64.77 C 175.88 65.09 177.63 65.43 179.36 65.87 C 177.53 66.52 175.69 67.15 173.87 67.84 C 168.12 69.96 163.59 74.25 158.30 77.21 C 150.46 81.81 141.73 84.55 133.76 88.88 C 131.60 89.26 129.35 89.53 127.18 89.04 C 120.06 86.59 114.02 81.96 107.43 78.44 C 99.00 73.97 90.98 68.66 82.07 65.16 Z" />
<path fill="#fdd59b" opacity="1.00" d=" M 182.21 123.20 C 185.83 123.47 189.48 123.80 192.96 124.91 C 195.59 127.26 198.56 129.79 199.34 133.41 C 199.96 136.89 199.81 140.46 199.64 143.98 C 196.44 151.78 190.06 158.26 181.90 160.72 C 177.40 161.65 172.84 160.84 168.37 160.12 C 165.61 157.05 162.07 154.11 161.37 149.81 C 160.29 144.10 162.58 138.42 165.93 133.89 C 169.78 128.40 175.96 125.19 182.21 123.20 M 180.41 125.55 C 172.45 127.83 165.87 134.46 163.61 142.43 C 160.71 149.38 165.60 158.21 173.00 159.53 C 183.20 161.43 193.22 154.35 197.22 145.25 C 199.96 139.60 198.96 132.08 193.95 128.00 C 190.35 124.57 184.97 124.87 180.41 125.55 Z" />
<path fill="#fdd59b" opacity="1.00" d=" M 105.71 162.63 C 113.18 157.68 120.49 152.29 128.88 148.94 L 129.21 149.73 C 127.84 150.82 126.40 151.83 124.90 152.73 C 124.44 152.97 123.53 153.46 123.07 153.70 C 117.13 156.40 111.97 160.62 105.71 162.63 Z" />
</g>
<g id="#790302ff">
<path fill="#790302" opacity="1.00" d=" M 83.52 63.48 C 84.17 63.46 85.47 63.40 86.12 63.38 C 93.17 65.64 99.31 69.89 105.93 73.09 C 111.89 75.99 117.45 79.60 123.24 82.79 C 127.48 85.81 133.18 85.32 137.36 82.44 C 146.25 76.72 155.95 72.47 165.15 67.31 C 166.90 66.29 168.64 65.25 170.33 64.13 C 171.59 64.34 172.86 64.54 174.13 64.77 C 167.58 67.77 161.72 72.02 155.28 75.24 C 149.53 78.09 143.91 81.20 138.29 84.30 C 135.71 85.67 133.00 87.03 130.05 87.30 C 125.86 86.72 122.08 84.58 118.46 82.50 C 107.75 75.81 96.44 70.18 85.25 64.38 C 84.81 64.15 83.95 63.71 83.52 63.48 Z" />
<path fill="#790302" opacity="1.00" d=" M 13.55 77.30 C 18.82 79.94 23.75 83.20 28.91 86.04 L 29.75 86.47 C 30.89 87.03 32.03 87.60 33.17 88.17 C 33.00 88.84 32.84 89.51 32.68 90.18 C 26.50 85.59 18.78 83.12 13.55 77.30 Z" />
<path fill="#790302" opacity="1.00" d=" M 221.05 91.24 C 226.23 87.31 230.92 82.79 235.84 78.56 C 236.56 80.17 237.25 81.79 237.98 83.41 C 233.28 88.70 226.28 90.91 220.82 95.26 C 220.48 94.46 220.14 93.66 219.80 92.87 C 220.11 92.46 220.73 91.64 221.05 91.24 Z" />
<path fill="#790302" opacity="1.00" d=" M 109.50 157.90 C 115.69 154.30 121.71 150.37 128.23 147.35 C 128.39 147.75 128.72 148.54 128.88 148.94 C 120.49 152.29 113.18 157.68 105.71 162.63 C 99.50 165.47 93.95 169.45 88.14 172.98 C 86.12 173.85 83.93 174.41 81.72 174.19 C 82.74 173.64 83.75 173.08 84.77 172.54 C 93.27 168.10 101.44 163.07 109.50 157.90 Z" />
<path fill="#790302" opacity="1.00" d=" M 129.60 150.43 C 130.09 150.46 131.08 150.53 131.57 150.56 C 138.70 156.23 146.61 160.79 154.15 165.88 C 159.11 169.31 164.40 172.20 169.60 175.25 L 168.75 175.75 C 164.92 174.66 161.41 172.73 158.08 170.60 C 156.08 169.35 154.10 168.07 152.14 166.77 C 148.34 164.24 144.65 161.56 140.75 159.18 C 136.70 156.74 132.58 154.19 129.60 150.43 Z" />
<path fill="#790302" opacity="1.00" d=" M 172.24 176.91 C 175.01 176.76 177.79 176.56 180.55 176.19 C 178.94 177.02 177.33 177.85 175.64 178.50 C 174.42 178.47 173.20 178.45 171.99 178.42 C 168.20 179.29 165.99 182.82 163.11 185.12 C 156.30 191.67 148.23 196.62 140.16 201.42 C 138.40 200.01 136.69 198.56 134.91 197.19 C 135.28 197.32 136.02 197.57 136.39 197.70 C 137.06 197.80 138.39 198.02 139.06 198.13 C 140.49 197.99 141.92 197.80 143.32 197.46 C 146.97 195.76 150.34 193.53 153.60 191.19 C 160.32 187.06 164.55 179.47 172.24 176.91 Z" />
<path fill="#790302" opacity="1.00" d=" M 85.22 209.89 C 86.78 210.78 88.31 211.71 89.86 212.62 C 91.72 215.55 93.06 219.63 96.98 220.22 C 95.49 220.29 93.59 220.91 92.50 219.51 C 89.75 216.56 88.54 212.39 85.22 209.89 Z" />
<path fill="#790302" opacity="1.00" d=" M 138.18 225.59 C 139.71 225.62 141.23 225.58 142.76 225.48 C 146.64 225.43 150.94 224.48 154.43 226.69 C 159.36 229.74 163.72 233.78 169.19 235.89 C 169.00 236.11 168.61 236.54 168.41 236.76 C 166.41 236.03 164.47 235.13 162.50 234.30 C 158.90 231.40 155.28 228.29 150.91 226.60 C 148.05 226.13 145.12 226.36 142.23 226.40 C 140.59 226.38 138.94 226.34 137.30 226.33 C 137.52 226.15 137.96 225.78 138.18 225.59 Z" />
</g>
<g id="#fd9d5fff">
<path fill="#fd9d5f" opacity="1.00" d=" M 71.60 66.99 C 75.18 64.77 79.26 63.34 83.52 63.48 C 83.95 63.71 84.81 64.15 85.25 64.38 C 84.45 64.57 82.86 64.96 82.07 65.16 C 90.98 68.66 99.00 73.97 107.43 78.44 C 114.02 81.96 120.06 86.59 127.18 89.04 C 126.86 88.97 126.20 88.85 125.87 88.79 C 127.16 91.62 127.33 94.75 126.96 97.80 C 126.61 100.97 126.02 104.10 125.42 107.22 C 125.19 103.96 124.98 100.70 124.80 97.44 C 124.77 96.81 124.70 95.56 124.67 94.94 C 116.46 95.87 109.20 100.09 101.40 102.46 C 95.74 104.70 89.11 105.15 84.48 109.46 C 81.34 112.22 77.99 115.28 73.63 115.69 C 71.74 116.01 69.27 115.44 68.81 113.28 C 67.50 109.31 66.94 105.14 65.85 101.11 C 62.25 101.30 58.45 102.31 54.95 101.09 C 51.04 98.42 48.65 94.14 45.70 90.53 C 49.66 87.73 54.51 88.78 59.00 88.82 C 62.10 88.77 64.54 86.56 67.23 85.31 C 70.69 83.36 74.71 82.38 77.81 79.81 C 80.39 77.49 81.73 72.81 78.80 70.21 C 76.84 67.95 73.61 68.60 71.03 69.02 C 71.17 68.51 71.46 67.50 71.60 66.99 Z" />
<path fill="#fd9d5f" opacity="1.00" d=" M 210.86 70.94 C 210.79 69.94 210.72 68.95 210.67 67.95 C 213.98 70.54 216.73 73.75 219.51 76.90 C 216.53 75.06 213.61 73.11 210.86 70.94 Z" />
</g>
<g id="#fd7a04ff">
<path fill="#fd7a04" opacity="1.00" d=" M 28.38 73.17 C 32.35 70.67 36.02 67.75 39.80 64.97 C 39.86 69.66 39.52 74.37 39.92 79.06 C 39.57 78.94 38.87 78.70 38.52 78.58 C 36.86 82.38 34.31 86.14 29.75 86.47 L 28.91 86.04 C 27.71 81.84 27.62 77.46 28.38 73.17 Z" />
</g>
<g id="#fe8346ff">
<path fill="#fe8346" opacity="1.00" d=" M 179.36 65.87 C 180.45 66.27 181.52 66.71 182.58 67.18 L 182.57 67.94 C 181.21 68.15 179.86 68.37 178.51 68.59 C 178.12 73.70 178.38 78.82 179.06 83.90 C 179.70 88.23 177.55 92.23 176.55 96.32 C 175.73 98.84 175.39 101.61 173.83 103.82 C 171.20 105.19 168.12 105.12 165.27 105.73 C 158.97 106.67 154.64 112.16 148.49 113.52 C 142.74 114.81 136.96 112.94 131.30 112.02 C 131.40 111.64 131.60 110.87 131.70 110.48 C 137.46 109.51 143.98 109.67 148.69 105.68 C 151.36 101.94 151.00 96.70 154.10 93.14 C 158.79 86.89 168.01 85.89 171.70 78.68 C 173.85 75.48 174.16 71.57 173.87 67.84 C 175.69 67.15 177.53 66.52 179.36 65.87 Z" />
</g>
<g id="#fe9950ff">
<path fill="#fe9950" opacity="1.00" d=" M 71.03 69.02 C 73.61 68.60 76.84 67.95 78.80 70.21 C 81.73 72.81 80.39 77.49 77.81 79.81 C 74.71 82.38 70.69 83.36 67.23 85.31 C 64.54 86.56 62.10 88.77 59.00 88.82 C 54.51 88.78 49.66 87.73 45.70 90.53 C 48.65 94.14 51.04 98.42 54.95 101.09 C 58.45 102.31 62.25 101.30 65.85 101.11 C 66.94 105.14 67.50 109.31 68.81 113.28 C 69.27 115.44 71.74 116.01 73.63 115.69 C 77.99 115.28 81.34 112.22 84.48 109.46 C 89.11 105.15 95.74 104.70 101.40 102.46 C 109.20 100.09 116.46 95.87 124.67 94.94 C 124.70 95.56 124.77 96.81 124.80 97.44 C 119.93 97.60 117.92 103.16 113.41 104.21 C 110.06 105.07 106.57 105.25 103.25 106.25 C 100.08 107.21 97.22 108.94 94.14 110.11 C 90.76 111.42 87.06 111.78 83.79 113.40 C 81.10 115.45 78.81 118.13 75.69 119.54 C 72.24 119.77 68.99 118.22 65.75 117.26 C 64.38 113.77 63.43 109.95 61.02 106.99 C 56.63 105.45 51.63 106.70 47.39 104.51 C 43.86 102.74 40.20 101.20 36.33 100.34 C 35.75 98.52 35.18 96.69 34.70 94.85 C 35.26 90.73 38.01 87.50 41.23 85.10 C 47.27 83.56 51.96 79.20 57.40 76.41 C 62.00 74.04 66.60 71.69 71.03 69.02 Z" />
</g>
<g id="#fd9455ff">
<path fill="#fd9455" opacity="1.00" d=" M 158.30 77.21 C 163.59 74.25 168.12 69.96 173.87 67.84 C 174.16 71.57 173.85 75.48 171.70 78.68 C 168.01 85.89 158.79 86.89 154.10 93.14 C 151.00 96.70 151.36 101.94 148.69 105.68 C 143.98 109.67 137.46 109.51 131.70 110.48 C 131.60 110.87 131.40 111.64 131.30 112.02 C 131.06 113.16 130.84 114.30 130.67 115.44 C 129.79 121.85 129.93 128.34 129.46 134.78 C 128.97 139.22 128.79 144.06 131.52 147.88 C 131.94 148.50 132.78 149.73 133.20 150.35 C 132.80 150.40 131.98 150.50 131.57 150.56 C 131.08 150.53 130.09 150.46 129.60 150.43 L 129.21 149.73 L 128.88 148.94 C 128.72 148.54 128.39 147.75 128.23 147.35 C 121.71 150.37 115.69 154.30 109.50 157.90 C 109.06 157.75 108.19 157.45 107.75 157.30 C 111.27 154.49 115.14 152.19 118.92 149.77 C 122.50 147.68 123.68 143.46 124.94 139.79 C 124.73 142.29 124.60 144.79 124.46 147.29 C 125.29 146.78 126.13 146.28 126.98 145.77 C 128.15 133.54 128.86 121.26 129.13 108.97 C 129.22 103.81 128.89 98.57 130.10 93.51 C 130.30 99.05 130.39 104.59 130.41 110.14 C 130.54 103.96 132.44 97.61 130.53 91.55 C 131.53 90.57 132.63 89.70 133.76 88.88 C 141.73 84.55 150.46 81.81 158.30 77.21 Z" />
</g>
<g id="#fe7a31ff">
<path fill="#fe7a31" opacity="1.00" d=" M 178.51 68.59 C 179.86 68.37 181.21 68.15 182.57 67.94 C 182.16 74.31 181.41 80.67 180.67 87.02 C 179.44 93.57 178.69 100.21 178.75 106.88 C 177.58 109.70 175.92 112.27 174.23 114.80 C 172.00 114.24 169.77 113.14 167.44 113.46 C 164.66 114.32 161.99 116.04 160.45 118.55 C 158.59 123.70 160.73 128.98 162.08 133.95 C 160.65 140.12 156.43 146.09 150.33 148.43 C 144.26 151.73 137.90 146.52 131.52 147.88 C 128.79 144.06 128.97 139.22 129.46 134.78 C 129.80 136.07 130.17 137.36 130.55 138.64 C 134.26 138.81 138.52 140.04 141.84 137.83 C 144.24 133.04 144.60 127.14 142.98 122.04 C 140.70 117.55 135.12 116.58 130.67 115.44 C 130.84 114.30 131.06 113.16 131.30 112.02 C 136.96 112.94 142.74 114.81 148.49 113.52 C 154.64 112.16 158.97 106.67 165.27 105.73 C 168.12 105.12 171.20 105.19 173.83 103.82 C 175.39 101.61 175.73 98.84 176.55 96.32 C 177.55 92.23 179.70 88.23 179.06 83.90 C 178.38 78.82 178.12 73.70 178.51 68.59 Z" />
</g>
<g id="#e43904ff">
<path fill="#e43904" opacity="1.00" d=" M 210.86 70.94 C 213.61 73.11 216.53 75.06 219.51 76.90 L 220.23 77.48 C 220.89 82.03 221.38 86.63 221.05 91.24 C 220.73 91.64 220.11 92.46 219.80 92.87 C 217.29 90.93 214.92 88.65 211.87 87.60 C 211.47 87.46 210.68 87.16 210.29 87.02 C 211.11 81.70 211.37 76.30 210.86 70.94 Z" />
</g>
<g id="#fd9650ff">
<path fill="#fd9650" opacity="1.00" d=" M 12.76 79.55 C 13.02 78.80 13.29 78.05 13.55 77.30 C 18.78 83.12 26.50 85.59 32.68 90.18 C 30.61 97.92 30.38 105.96 29.67 113.90 C 29.27 115.29 28.80 116.65 28.33 118.02 C 27.48 112.96 26.87 107.84 26.77 102.71 C 27.32 98.75 28.27 94.86 29.38 91.03 C 23.94 87.06 18.25 83.45 12.76 79.55 Z" />
</g>
<g id="#fb5f02ff">
<path fill="#fb5f02" opacity="1.00" d=" M 8.56 92.23 C 9.72 87.93 11.10 83.69 12.76 79.55 C 18.25 83.45 23.94 87.06 29.38 91.03 C 28.27 94.86 27.32 98.75 26.77 102.71 C 25.69 110.02 23.43 117.32 24.39 124.78 C 25.17 130.90 26.60 136.98 29.12 142.63 C 29.90 137.70 29.57 132.71 29.58 127.75 C 30.59 130.01 31.45 132.34 32.14 134.73 C 31.94 139.04 32.59 143.33 33.96 147.42 C 32.46 147.05 30.78 146.14 29.27 146.97 C 25.76 148.43 22.47 150.37 19.13 152.17 C 18.35 151.34 17.57 150.52 16.80 149.70 C 18.50 146.52 20.85 143.53 21.52 139.92 C 21.70 132.50 16.74 126.19 16.11 118.89 C 15.18 111.51 17.05 103.93 15.23 96.66 C 14.55 93.51 11.33 92.61 8.56 92.23 Z" />
</g>
<g id="#e5620dff">
<path fill="#e5620d" opacity="1.00" d=" M 33.17 88.17 C 35.63 86.62 38.20 84.93 41.23 85.10 C 38.01 87.50 35.26 90.73 34.70 94.85 C 34.25 96.80 33.82 98.76 33.46 100.73 C 32.70 108.71 30.30 116.95 32.42 124.90 C 31.65 125.61 30.89 126.32 30.13 127.03 C 29.70 122.67 29.45 118.28 29.67 113.90 C 30.38 105.96 30.61 97.92 32.68 90.18 C 32.84 89.51 33.00 88.84 33.17 88.17 Z" />
</g>
<g id="#f36820ff">
<path fill="#f36820" opacity="1.00" d=" M 193.83 88.85 C 196.91 88.26 199.12 85.85 201.45 83.95 C 202.95 86.52 204.99 89.46 203.58 92.54 C 201.96 98.18 195.73 100.15 192.63 104.65 C 190.74 110.14 193.50 115.73 195.44 120.81 C 194.61 122.18 193.79 123.54 192.96 124.91 C 189.48 123.80 185.83 123.47 182.21 123.20 C 181.38 123.09 179.72 122.86 178.90 122.74 C 181.35 121.40 183.76 119.96 186.25 118.67 C 181.72 116.36 179.32 111.79 178.75 106.88 C 178.69 100.21 179.44 93.57 180.67 87.02 C 184.85 88.53 189.36 89.78 193.83 88.85 Z" />
</g>
<g id="#c03604ff">
<path fill="#c03604" opacity="1.00" d=" M 211.87 87.60 C 214.92 88.65 217.29 90.93 219.80 92.87 C 220.14 93.66 220.48 94.46 220.82 95.26 C 220.45 96.28 220.10 97.31 219.77 98.35 C 218.79 104.23 220.74 110.10 220.41 116.01 C 220.01 128.30 219.13 140.58 219.31 152.89 C 219.30 153.24 219.30 153.94 219.29 154.28 C 218.57 153.52 217.84 152.76 217.11 152.02 C 216.05 153.21 214.99 154.41 213.87 155.55 C 204.32 163.67 193.65 170.64 182.04 175.43 C 185.58 170.79 191.36 169.14 196.02 165.98 C 200.60 162.97 205.16 159.89 209.32 156.31 C 211.46 154.60 212.51 152.00 213.21 149.44 C 215.84 141.09 214.47 132.26 215.62 123.71 C 216.53 116.82 216.88 109.88 216.90 102.94 C 216.92 99.95 216.58 96.93 215.53 94.12 C 214.41 91.89 213.12 89.76 211.87 87.60 Z" />
</g>
<g id="#a00301ff">
<path fill="#a00301" opacity="1.00" d=" M 224.68 95.29 C 229.17 91.80 234.08 88.89 239.18 86.38 C 239.18 88.26 240.07 90.39 239.18 92.16 C 235.05 97.41 235.47 104.31 234.58 110.57 C 234.25 115.09 232.82 119.73 234.02 124.22 C 235.43 128.06 237.00 131.89 237.23 136.04 C 234.87 136.16 231.76 137.22 230.05 134.98 C 227.03 132.09 228.62 127.74 229.15 124.20 C 230.57 117.79 230.21 111.18 229.37 104.72 C 229.17 102.05 228.90 99.39 228.61 96.73 C 227.30 96.26 225.99 95.78 224.68 95.29 Z" />
</g>
<g id="#f74201ff">
<path fill="#f74201" opacity="1.00" d=" M 8.56 92.23 C 11.33 92.61 14.55 93.51 15.23 96.66 C 17.05 103.93 15.18 111.51 16.11 118.89 C 16.74 126.19 21.70 132.50 21.52 139.92 C 20.85 143.53 18.50 146.52 16.80 149.70 C 17.57 150.52 18.35 151.34 19.13 152.17 C 17.56 153.04 15.97 153.89 14.41 154.80 C 12.58 155.91 10.87 157.20 9.26 158.61 C 9.09 154.95 7.93 151.45 6.92 147.96 C 4.48 139.53 4.29 130.71 4.52 122.00 C 4.12 111.93 5.43 101.81 8.56 92.23 Z" />
</g>
<g id="#e5f1d2ff">
<path fill="#e5f1d2" opacity="1.00" d=" M 130.53 91.55 C 132.44 97.61 130.54 103.96 130.41 110.14 C 130.39 104.59 130.30 99.05 130.10 93.51 C 130.21 93.02 130.42 92.04 130.53 91.55 Z" />
<path fill="#e5f1d2" opacity="1.00" d=" M 182.04 175.43 C 193.65 170.64 204.32 163.67 213.87 155.55 C 214.37 155.73 215.38 156.08 215.89 156.25 C 213.10 159.38 210.05 162.30 206.62 164.71 C 203.95 166.66 200.92 168.19 198.68 170.66 C 196.42 173.56 195.44 177.25 193.08 180.08 C 191.25 182.24 188.98 183.96 187.09 186.07 C 184.65 188.78 183.00 192.06 180.92 195.04 C 178.83 197.04 176.05 197.95 173.38 196.54 C 171.23 195.39 169.07 194.28 166.87 193.25 C 167.59 192.21 168.36 191.21 169.10 190.19 C 169.23 190.71 169.50 191.75 169.63 192.27 C 173.61 188.76 174.96 183.55 175.64 178.50 C 177.33 177.85 178.94 177.02 180.55 176.19 C 180.92 176.00 181.67 175.62 182.04 175.43 Z" />
</g>
<g id="#900201ff">
<path fill="#900201" opacity="1.00" d=" M 234.58 110.57 C 235.47 104.31 235.05 97.41 239.18 92.16 C 241.58 96.60 243.12 101.51 242.87 106.60 C 242.54 116.39 243.30 126.68 238.79 135.72 C 238.40 135.80 237.62 135.96 237.23 136.04 C 237.00 131.89 235.43 128.06 234.02 124.22 C 232.82 119.73 234.25 115.09 234.58 110.57 Z" />
<path fill="#900201" opacity="1.00" d=" M 83.50 181.50 L 84.12 180.89 C 84.81 181.62 85.50 182.36 86.19 183.09 C 88.76 185.77 91.63 188.14 94.64 190.31 C 98.84 193.70 103.21 197.29 108.68 198.27 C 108.67 198.82 108.66 199.91 108.65 200.46 L 108.70 201.37 C 99.52 195.95 89.56 190.60 83.50 181.50 Z" />
</g>
<g id="#fe9339ff">
<path fill="#fe9339" opacity="1.00" d=" M 33.46 100.73 C 33.82 98.76 34.25 96.80 34.70 94.85 C 35.18 96.69 35.75 98.52 36.33 100.34 C 40.20 101.20 43.86 102.74 47.39 104.51 C 51.63 106.70 56.63 105.45 61.02 106.99 C 63.43 109.95 64.38 113.77 65.75 117.26 C 68.99 118.22 72.24 119.77 75.69 119.54 C 78.81 118.13 81.10 115.45 83.79 113.40 C 89.23 114.40 94.79 115.01 100.33 114.51 C 95.50 117.33 89.97 116.56 84.66 116.75 C 81.78 118.37 80.02 121.34 77.93 123.79 C 73.13 121.14 67.62 119.52 62.11 120.45 C 56.87 121.02 52.84 125.20 50.80 129.83 C 48.69 128.00 46.14 126.81 43.94 125.10 C 41.36 121.66 42.00 117.13 41.62 113.11 C 41.68 110.79 39.56 109.38 38.23 107.77 C 36.17 105.77 34.69 103.30 33.46 100.73 Z" />
</g>
<g id="#bb2a02ff">
<path fill="#bb2a02" opacity="1.00" d=" M 221.49 97.42 C 222.58 96.76 223.64 96.04 224.68 95.29 C 225.99 95.78 227.30 96.26 228.61 96.73 C 228.90 99.39 229.17 102.05 229.37 104.72 C 227.62 112.29 227.17 120.04 226.61 127.76 C 226.20 132.61 223.96 136.98 221.78 141.23 C 221.52 134.50 221.57 127.77 221.75 121.04 C 222.03 113.16 220.58 105.29 221.49 97.42 Z" />
</g>
<g id="#fd8c49ff">
<path fill="#fd8c49" opacity="1.00" d=" M 113.41 104.21 C 117.92 103.16 119.93 97.60 124.80 97.44 C 124.98 100.70 125.19 103.96 125.42 107.22 C 126.02 104.10 126.61 100.97 126.96 97.80 C 126.65 102.09 126.63 106.38 126.53 110.68 C 124.67 110.09 122.77 109.42 120.78 109.52 C 113.72 109.87 106.92 112.07 100.33 114.51 C 94.79 115.01 89.23 114.40 83.79 113.40 C 87.06 111.78 90.76 111.42 94.14 110.11 C 97.22 108.94 100.08 107.21 103.25 106.25 C 106.57 105.25 110.06 105.07 113.41 104.21 Z" />
</g>
<g id="#f25931ff">
<path fill="#f25931" opacity="1.00" d=" M 220.41 116.01 C 220.74 110.10 218.79 104.23 219.77 98.35 C 220.34 98.05 220.92 97.74 221.49 97.42 C 220.58 105.29 222.03 113.16 221.75 121.04 C 221.57 127.77 221.52 134.50 221.78 141.23 C 221.57 144.97 220.91 148.93 222.39 152.50 C 224.12 155.74 227.43 158.02 228.29 161.74 C 225.15 158.94 222.09 156.05 219.31 152.89 C 219.13 140.58 220.01 128.30 220.41 116.01 Z" />
</g>
<g id="#fe8d2cff">
<path fill="#fe8d2c" opacity="1.00" d=" M 32.42 124.90 C 30.30 116.95 32.70 108.71 33.46 100.73 C 34.69 103.30 36.17 105.77 38.23 107.77 C 39.56 109.38 41.68 110.79 41.62 113.11 C 42.00 117.13 41.36 121.66 43.94 125.10 C 46.14 126.81 48.69 128.00 50.80 129.83 C 50.37 132.42 50.09 135.04 49.78 137.66 C 48.36 141.29 47.86 146.28 43.92 148.09 C 39.23 147.78 36.99 143.21 35.80 139.27 C 36.41 134.16 34.97 129.27 32.42 124.90 Z" />
</g>
<g id="#fc7f25ff">
<path fill="#fc7f25" opacity="1.00" d=" M 24.39 124.78 C 23.43 117.32 25.69 110.02 26.77 102.71 C 26.87 107.84 27.48 112.96 28.33 118.02 C 28.80 116.65 29.27 115.29 29.67 113.90 C 29.45 118.28 29.70 122.67 30.13 127.03 C 30.89 126.32 31.65 125.61 32.42 124.90 C 34.97 129.27 36.41 134.16 35.80 139.27 C 34.62 137.72 33.33 136.27 32.14 134.73 C 31.45 132.34 30.59 130.01 29.58 127.75 C 29.57 132.71 29.90 137.70 29.12 142.63 C 26.60 136.98 25.17 130.90 24.39 124.78 Z" />
<path fill="#fc7f25" opacity="1.00" d=" M 94.64 190.31 C 100.10 191.95 105.72 193.50 110.39 196.92 C 109.96 197.26 109.11 197.93 108.68 198.27 C 103.21 197.29 98.84 193.70 94.64 190.31 Z" />
</g>
<g id="#fe7723ff">
<path fill="#fe7723" opacity="1.00" d=" M 174.23 114.80 C 175.92 112.27 177.58 109.70 178.75 106.88 C 179.32 111.79 181.72 116.36 186.25 118.67 C 183.76 119.96 181.35 121.40 178.90 122.74 C 179.72 122.86 181.38 123.09 182.21 123.20 C 175.96 125.19 169.78 128.40 165.93 133.89 C 162.58 138.42 160.29 144.10 161.37 149.81 C 162.07 154.11 165.61 157.05 168.37 160.12 C 164.02 163.32 158.59 164.01 153.38 163.06 C 146.64 158.84 140.11 154.28 133.20 150.35 C 132.78 149.73 131.94 148.50 131.52 147.88 C 137.90 146.52 144.26 151.73 150.33 148.43 C 156.43 146.09 160.65 140.12 162.08 133.95 C 160.73 128.98 158.59 123.70 160.45 118.55 C 161.99 116.04 164.66 114.32 167.44 113.46 C 169.77 113.14 172.00 114.24 174.23 114.80 Z" />
</g>
<g id="#952e12ff">
<path fill="#952e12" opacity="1.00" d=" M 242.87 106.60 C 243.75 107.59 244.22 108.75 244.28 110.06 C 244.43 114.40 245.70 118.63 245.47 122.99 C 245.27 129.65 245.99 136.44 244.21 142.96 C 242.42 149.77 241.63 156.90 238.73 163.37 C 237.90 158.90 236.47 154.53 236.10 149.98 C 235.76 145.09 237.10 140.26 238.79 135.72 C 243.30 126.68 242.54 116.39 242.87 106.60 Z" />
</g>
<g id="#fe8630ff">
<path fill="#fe8630" opacity="1.00" d=" M 120.78 109.52 C 122.77 109.42 124.67 110.09 126.53 110.68 C 126.46 113.19 126.34 115.70 126.23 118.21 C 125.52 116.22 124.71 114.27 123.92 112.32 C 119.99 112.71 115.91 113.25 112.64 115.66 C 105.86 120.34 97.58 122.46 89.40 122.60 C 88.22 123.65 87.05 124.71 85.88 125.77 C 83.82 125.44 81.75 125.14 79.72 124.70 C 79.27 124.47 78.37 124.02 77.93 123.79 C 80.02 121.34 81.78 118.37 84.66 116.75 C 89.97 116.56 95.50 117.33 100.33 114.51 C 106.92 112.07 113.72 109.87 120.78 109.52 Z" />
</g>
<g id="#fe771eff">
<path fill="#fe771e" opacity="1.00" d=" M 112.64 115.66 C 115.91 113.25 119.99 112.71 123.92 112.32 C 124.71 114.27 125.52 116.22 126.23 118.21 C 126.18 120.38 126.02 122.54 125.84 124.69 C 124.21 129.72 124.01 135.02 123.03 140.17 C 122.72 142.34 120.64 144.73 118.29 143.61 C 114.07 142.02 109.89 140.30 105.48 139.24 C 101.46 138.26 98.68 134.84 94.86 133.45 C 92.57 133.49 90.39 134.29 88.20 134.88 C 85.63 131.28 82.77 127.90 79.72 124.70 C 81.75 125.14 83.82 125.44 85.88 125.77 C 87.05 124.71 88.22 123.65 89.40 122.60 C 97.58 122.46 105.86 120.34 112.64 115.66 Z" />
</g>
<g id="#fd711dff">
<path fill="#fd711d" opacity="1.00" d=" M 130.67 115.44 C 135.12 116.58 140.70 117.55 142.98 122.04 C 144.60 127.14 144.24 133.04 141.84 137.83 C 138.52 140.04 134.26 138.81 130.55 138.64 C 130.17 137.36 129.80 136.07 129.46 134.78 C 129.93 128.34 129.79 121.85 130.67 115.44 Z" />
</g>
<g id="#a98e64ff">
<path fill="#a98e64" opacity="1.00" d=" M 50.80 129.83 C 52.84 125.20 56.87 121.02 62.11 120.45 C 67.62 119.52 73.13 121.14 77.93 123.79 C 78.37 124.02 79.27 124.47 79.72 124.70 C 82.77 127.90 85.63 131.28 88.20 134.88 C 90.36 141.37 91.35 149.79 86.09 155.09 C 82.41 159.01 76.61 158.91 71.65 159.16 C 61.09 156.72 52.31 148.25 49.78 137.66 C 50.09 135.04 50.37 132.42 50.80 129.83 M 60.54 122.81 C 56.18 124.23 52.54 128.27 52.35 132.96 C 51.02 145.65 62.92 156.61 75.02 157.43 C 81.24 157.80 87.24 153.08 87.89 146.79 C 89.19 132.69 74.55 119.26 60.54 122.81 Z" />
<path fill="#a98e64" opacity="1.00" d=" M 77.39 176.56 C 78.31 177.21 79.21 177.87 80.10 178.55 C 81.23 184.00 82.87 189.33 84.88 194.51 C 83.65 194.16 82.43 193.80 81.19 193.50 C 80.28 193.25 79.37 193.01 78.46 192.77 C 79.36 191.87 80.25 190.96 81.14 190.05 C 80.58 188.59 80.01 187.13 79.49 185.66 C 78.43 182.72 77.79 179.65 77.39 176.56 Z" />
<path fill="#a98e64" opacity="1.00" d=" M 171.99 178.42 C 173.20 178.45 174.42 178.47 175.64 178.50 C 174.96 183.55 173.61 188.76 169.63 192.27 C 169.50 191.75 169.23 190.71 169.10 190.19 C 171.46 186.72 172.15 182.54 171.99 178.42 Z" />
<path fill="#a98e64" opacity="1.00" d=" M 157.72 209.43 C 160.61 208.10 163.67 208.83 166.44 210.08 C 165.83 210.26 164.62 210.64 164.01 210.83 C 161.89 210.51 159.80 209.98 157.72 209.43 Z" />
<path fill="#a98e64" opacity="1.00" d=" M 76.24 227.23 C 80.74 225.15 85.20 222.96 89.76 221.00 C 89.52 221.91 89.28 222.82 89.04 223.74 C 85.30 225.10 81.49 226.60 78.42 229.21 C 76.91 228.99 75.39 228.78 73.87 228.58 C 74.65 228.12 75.44 227.67 76.24 227.23 Z" />
</g>
<g id="#010104ff">
<path fill="#010104" opacity="1.00" d=" M 60.54 122.81 C 74.55 119.26 89.19 132.69 87.89 146.79 C 87.24 153.08 81.24 157.80 75.02 157.43 C 62.92 156.61 51.02 145.65 52.35 132.96 C 52.54 128.27 56.18 124.23 60.54 122.81 M 71.76 128.74 C 68.66 131.08 68.95 135.33 69.05 138.79 C 74.32 140.49 79.58 142.18 84.86 143.83 C 85.18 141.76 86.44 139.18 84.56 137.48 C 82.11 134.91 79.52 132.47 77.05 129.92 C 75.75 128.60 73.40 127.15 71.76 128.74 Z" />
</g>
<g id="#fe8731ff">
<path fill="#fe8731" opacity="1.00" d=" M 123.03 140.17 C 124.01 135.02 124.21 129.72 125.84 124.69 C 125.74 129.74 125.54 134.78 124.94 139.79 C 123.68 143.46 122.50 147.68 118.92 149.77 C 115.14 152.19 111.27 154.49 107.75 157.30 C 103.75 159.48 99.64 161.45 95.55 163.45 C 96.55 161.55 97.78 159.79 99.03 158.06 C 97.43 157.55 95.62 156.94 94.13 158.10 C 90.76 160.17 87.15 162.28 84.74 165.50 C 83.12 168.63 81.60 171.93 78.63 174.06 C 78.21 174.21 77.37 174.51 76.96 174.66 C 76.72 173.98 76.26 172.61 76.02 171.92 C 77.19 170.86 78.36 169.79 79.52 168.73 C 78.55 166.08 77.69 163.38 76.98 160.65 C 75.20 160.15 73.43 159.66 71.65 159.16 C 76.61 158.91 82.41 159.01 86.09 155.09 C 91.35 149.79 90.36 141.37 88.20 134.88 C 90.39 134.29 92.57 133.49 94.86 133.45 C 98.68 134.84 101.46 138.26 105.48 139.24 C 109.89 140.30 114.07 142.02 118.29 143.61 C 120.64 144.73 122.72 142.34 123.03 140.17 Z" />
</g>
<g id="#010103ff">
<path fill="#010103" opacity="1.00" d=" M 180.41 125.55 C 184.97 124.87 190.35 124.57 193.95 128.00 C 198.96 132.08 199.96 139.60 197.22 145.25 C 193.22 154.35 183.20 161.43 173.00 159.53 C 165.60 158.21 160.71 149.38 163.61 142.43 C 165.87 134.46 172.45 127.83 180.41 125.55 Z" />
</g>
<g id="#010023ff">
<path fill="#010023" opacity="1.00" d=" M 71.76 128.74 C 73.40 127.15 75.75 128.60 77.05 129.92 C 79.52 132.47 82.11 134.91 84.56 137.48 C 86.44 139.18 85.18 141.76 84.86 143.83 C 79.58 142.18 74.32 140.49 69.05 138.79 C 68.95 135.33 68.66 131.08 71.76 128.74 Z" />
<path fill="#010023" opacity="1.00" d=" M 219.29 154.28 C 219.30 153.94 219.30 153.24 219.31 152.89 C 222.09 156.05 225.15 158.94 228.29 161.74 C 231.01 164.60 233.57 167.60 236.02 170.69 C 230.50 165.17 224.44 160.17 219.29 154.28 Z" />
</g>
<g id="#fd7c05ff">
<path fill="#fd7c05" opacity="1.00" d=" M 32.14 134.73 C 33.33 136.27 34.62 137.72 35.80 139.27 C 36.99 143.21 39.23 147.78 43.92 148.09 C 47.86 146.28 48.36 141.29 49.78 137.66 C 52.31 148.25 61.09 156.72 71.65 159.16 C 73.43 159.66 75.20 160.15 76.98 160.65 C 77.69 163.38 78.55 166.08 79.52 168.73 C 78.36 169.79 77.19 170.86 76.02 171.92 C 76.26 172.61 76.72 173.98 76.96 174.66 C 76.57 174.80 75.81 175.06 75.43 175.20 C 69.34 171.39 62.91 168.14 57.11 163.88 C 49.45 158.31 41.64 152.96 33.96 147.42 C 32.59 143.33 31.94 139.04 32.14 134.73 Z" />
</g>
<g id="#f83f02ff">
<path fill="#f83f02" opacity="1.00" d=" M 199.64 143.98 C 201.52 144.05 203.41 144.12 205.30 144.17 C 207.94 145.93 210.56 147.70 213.21 149.44 C 212.51 152.00 211.46 154.60 209.32 156.31 C 205.16 159.89 200.60 162.97 196.02 165.98 C 191.36 169.14 185.58 170.79 182.04 175.43 C 181.67 175.62 180.92 176.00 180.55 176.19 C 177.79 176.56 175.01 176.76 172.24 176.91 C 171.07 176.53 169.90 176.15 168.75 175.75 L 169.60 175.25 C 169.95 175.05 170.64 174.64 170.98 174.44 C 169.96 173.79 168.93 173.13 167.90 172.49 C 173.39 169.45 175.64 162.54 181.90 160.72 C 190.06 158.26 196.44 151.78 199.64 143.98 Z" />
</g>
<g id="#fefeeeff">
<path fill="#fefeee" opacity="1.00" d=" M 19.13 152.17 C 22.47 150.37 25.76 148.43 29.27 146.97 C 30.78 146.14 32.46 147.05 33.96 147.42 C 41.64 152.96 49.45 158.31 57.11 163.88 C 62.91 168.14 69.34 171.39 75.43 175.20 C 75.92 175.54 76.90 176.22 77.39 176.56 C 77.79 179.65 78.43 182.72 79.49 185.66 C 78.49 187.52 77.50 189.38 76.52 191.25 C 69.87 189.91 64.61 185.38 58.81 182.17 C 52.13 177.94 44.42 175.02 39.10 168.93 C 35.65 164.72 29.75 163.91 26.22 159.81 C 24.70 158.40 23.42 156.59 21.48 155.73 C 19.19 155.03 16.77 155.00 14.41 154.80 C 15.97 153.89 17.56 153.04 19.13 152.17 Z" />
</g>
<g id="#ea2c4dff">
<path fill="#ea2c4d" opacity="1.00" d=" M 129.21 149.73 L 129.60 150.43 C 132.58 154.19 136.70 156.74 140.75 159.18 C 144.65 161.56 148.34 164.24 152.14 166.77 C 148.81 171.49 146.78 177.02 145.73 182.68 C 144.97 187.62 146.83 193.21 143.32 197.46 C 141.92 197.80 140.49 197.99 139.06 198.13 C 142.18 190.91 143.26 182.75 142.04 174.98 C 140.57 167.38 133.89 162.40 127.11 159.65 C 126.49 163.15 126.17 166.70 125.81 170.24 C 125.71 171.00 125.52 172.51 125.42 173.27 C 124.53 166.46 124.54 159.58 124.90 152.73 C 126.40 151.83 127.84 150.82 129.21 149.73 Z" />
</g>
<g id="#c5d9bdff">
<path fill="#c5d9bd" opacity="1.00" d=" M 213.87 155.55 C 214.99 154.41 216.05 153.21 217.11 152.02 C 217.84 152.76 218.57 153.52 219.29 154.28 C 224.44 160.17 230.50 165.17 236.02 170.69 L 236.44 171.13 C 235.83 172.72 235.15 174.27 234.50 175.83 C 233.72 171.66 230.86 168.47 227.63 165.93 C 225.70 164.29 223.75 162.68 221.82 161.06 C 218.12 166.21 214.96 171.77 210.70 176.49 C 209.87 177.42 209.04 178.34 208.26 179.31 C 207.17 178.74 206.09 178.18 205.02 177.61 C 205.72 173.34 206.22 169.03 206.62 164.71 C 210.05 162.30 213.10 159.38 215.89 156.25 C 215.38 156.08 214.37 155.73 213.87 155.55 Z" />
</g>
<g id="#e05d53ff">
<path fill="#e05d53" opacity="1.00" d=" M 123.07 153.70 C 123.53 153.46 124.44 152.97 124.90 152.73 C 124.54 159.58 124.53 166.46 125.42 173.27 C 125.31 177.96 124.82 182.62 124.34 187.28 C 123.84 180.74 123.82 174.19 123.95 167.64 C 124.50 163.68 124.31 159.66 123.41 155.77 C 123.33 155.25 123.15 154.22 123.07 153.70 Z" />
</g>
<g id="#fd8a33ff">
<path fill="#fd8a33" opacity="1.00" d=" M 105.71 162.63 C 111.97 160.62 117.13 156.40 123.07 153.70 C 123.15 154.22 123.33 155.25 123.41 155.77 C 122.46 159.71 122.19 163.86 120.61 167.62 C 117.03 169.42 112.87 169.15 109.04 170.08 C 103.50 171.03 100.22 176.49 94.75 177.67 C 91.33 178.46 88.23 180.16 86.19 183.09 C 85.50 182.36 84.81 181.62 84.12 180.89 C 85.88 179.14 87.63 177.40 89.39 175.67 C 88.98 174.77 88.56 173.87 88.14 172.98 C 93.95 169.45 99.50 165.47 105.71 162.63 Z" />
</g>
<g id="#fbf3d7ff">
<path fill="#fbf3d7" opacity="1.00" d=" M 9.26 158.61 C 10.87 157.20 12.58 155.91 14.41 154.80 C 16.77 155.00 19.19 155.03 21.48 155.73 C 23.42 156.59 24.70 158.40 26.22 159.81 C 29.75 163.91 35.65 164.72 39.10 168.93 C 44.42 175.02 52.13 177.94 58.81 182.17 C 64.61 185.38 69.87 189.91 76.52 191.25 C 77.50 189.38 78.49 187.52 79.49 185.66 C 80.01 187.13 80.58 188.59 81.14 190.05 C 80.25 190.96 79.36 191.87 78.46 192.77 C 79.37 193.01 80.28 193.25 81.19 193.50 C 80.40 193.63 78.82 193.90 78.02 194.03 C 78.27 194.50 78.76 195.43 79.01 195.90 C 80.27 199.61 84.57 199.07 87.70 199.18 C 87.63 199.93 87.57 200.69 87.50 201.45 C 85.07 201.44 82.64 201.44 80.22 201.71 C 82.91 203.28 85.91 204.20 89.01 204.50 C 89.37 205.23 89.72 205.96 90.06 206.72 C 87.55 206.28 85.01 206.09 82.47 205.98 C 84.83 207.57 87.77 210.34 90.73 208.42 C 90.52 209.84 90.20 211.23 89.86 212.62 C 88.31 211.71 86.78 210.78 85.22 209.89 C 82.75 208.44 79.81 211.82 77.48 209.73 C 74.27 205.83 72.81 200.52 68.47 197.54 C 62.90 193.69 56.69 190.83 50.39 188.40 C 45.67 186.54 42.86 182.06 39.22 178.78 C 34.28 173.65 27.61 170.50 23.05 164.96 C 20.81 162.27 18.73 159.42 16.14 157.05 C 15.76 157.21 14.99 157.54 14.61 157.70 C 13.45 158.52 12.29 159.38 11.36 160.46 C 11.12 162.36 11.47 164.27 11.78 166.14 C 9.79 164.13 9.39 161.31 9.26 158.61 Z" />
</g>
<g id="#fe924fff">
<path fill="#fe924f" opacity="1.00" d=" M 120.61 167.62 C 122.19 163.86 122.46 159.71 123.41 155.77 C 124.31 159.66 124.50 163.68 123.95 167.64 C 122.87 170.36 121.76 173.08 120.48 175.71 C 118.49 179.83 114.96 182.99 113.09 187.17 C 111.88 189.66 112.65 192.46 112.96 195.06 C 112.08 195.64 111.23 196.27 110.39 196.92 C 105.72 193.50 100.10 191.95 94.64 190.31 C 91.63 188.14 88.76 185.77 86.19 183.09 C 88.23 180.16 91.33 178.46 94.75 177.67 C 100.22 176.49 103.50 171.03 109.04 170.08 C 112.87 169.15 117.03 169.42 120.61 167.62 Z" />
</g>
<g id="#fbebcbff">
<path fill="#fbebcb" opacity="1.00" d=" M 14.61 157.70 C 14.99 157.54 15.76 157.21 16.14 157.05 C 18.73 159.42 20.81 162.27 23.05 164.96 C 27.61 170.50 34.28 173.65 39.22 178.78 C 42.86 182.06 45.67 186.54 50.39 188.40 C 56.69 190.83 62.90 193.69 68.47 197.54 C 72.81 200.52 74.27 205.83 77.48 209.73 C 79.81 211.82 82.75 208.44 85.22 209.89 C 88.54 212.39 89.75 216.56 92.50 219.51 C 93.59 220.91 95.49 220.29 96.98 220.22 C 97.69 220.11 99.10 219.89 99.81 219.78 C 101.69 221.34 104.25 222.61 105.02 225.10 C 104.81 226.62 104.40 228.11 103.96 229.59 C 102.95 227.47 102.13 225.29 101.24 223.13 C 100.15 223.88 99.06 224.64 97.97 225.39 C 96.83 224.30 95.70 223.21 94.57 222.11 C 92.72 222.64 90.87 223.15 89.04 223.74 C 89.28 222.82 89.52 221.91 89.76 221.00 C 85.20 222.96 80.74 225.15 76.24 227.23 C 72.53 227.45 68.87 228.09 65.36 229.31 C 62.76 229.89 60.90 227.32 59.12 225.84 C 60.30 224.24 61.98 222.66 61.64 220.48 C 61.41 215.90 61.21 210.71 57.77 207.24 C 52.00 200.99 46.54 194.44 39.96 189.01 C 34.01 182.62 27.17 177.15 21.24 170.75 C 17.74 167.17 16.10 162.35 14.61 157.70 Z" />
</g>
<g id="#fd9746ff">
<path fill="#fd9746" opacity="1.00" d=" M 94.13 158.10 C 95.62 156.94 97.43 157.55 99.03 158.06 C 97.78 159.79 96.55 161.55 95.55 163.45 C 91.87 166.35 87.38 168.50 84.77 172.54 C 83.75 173.08 82.74 173.64 81.72 174.19 C 80.94 174.16 79.40 174.09 78.63 174.06 C 81.60 171.93 83.12 168.63 84.74 165.50 C 87.15 162.28 90.76 160.17 94.13 158.10 Z" />
</g>
<g id="#f2dfbdff">
<path fill="#f2dfbd" opacity="1.00" d=" M 11.36 160.46 C 12.29 159.38 13.45 158.52 14.61 157.70 C 16.10 162.35 17.74 167.17 21.24 170.75 C 27.17 177.15 34.01 182.62 39.96 189.01 C 46.54 194.44 52.00 200.99 57.77 207.24 C 61.21 210.71 61.41 215.90 61.64 220.48 C 61.98 222.66 60.30 224.24 59.12 225.84 C 49.52 220.94 42.85 212.14 35.16 204.85 C 28.93 199.21 24.35 192.11 19.90 185.05 C 16.26 179.19 14.53 172.42 11.78 166.14 C 11.47 164.27 11.12 162.36 11.36 160.46 Z" />
</g>
<g id="#f74059ff">
<path fill="#f74059" opacity="1.00" d=" M 127.11 159.65 C 133.89 162.40 140.57 167.38 142.04 174.98 C 143.26 182.75 142.18 190.91 139.06 198.13 C 138.39 198.02 137.06 197.80 136.39 197.70 C 135.77 195.66 135.22 193.58 135.25 191.44 C 135.25 185.60 133.55 179.89 131.39 174.53 C 130.52 172.09 128.06 171.03 125.81 170.24 C 126.17 166.70 126.49 163.15 127.11 159.65 Z" />
</g>
<g id="#fc6503ff">
<path fill="#fc6503" opacity="1.00" d=" M 153.38 163.06 C 158.59 164.01 164.02 163.32 168.37 160.12 C 172.84 160.84 177.40 161.65 181.90 160.72 C 175.64 162.54 173.39 169.45 167.90 172.49 C 162.88 169.63 157.95 166.61 153.38 163.06 Z" />
</g>
<g id="#bcc8acff">
<path fill="#bcc8ac" opacity="1.00" d=" M 210.70 176.49 C 214.96 171.77 218.12 166.21 221.82 161.06 C 223.75 162.68 225.70 164.29 227.63 165.93 C 226.51 170.18 224.23 173.98 221.25 177.19 C 218.30 178.89 215.25 180.41 212.25 182.01 C 211.74 180.16 211.22 178.32 210.70 176.49 Z" />
</g>
<g id="#dce2c7ff">
<path fill="#dce2c7" opacity="1.00" d=" M 198.68 170.66 C 200.92 168.19 203.95 166.66 206.62 164.71 C 206.22 169.03 205.72 173.34 205.02 177.61 C 195.99 183.75 191.24 193.90 183.96 201.74 C 182.86 199.55 181.86 197.31 180.92 195.04 C 183.00 192.06 184.65 188.78 187.09 186.07 C 188.98 183.96 191.25 182.24 193.08 180.08 C 195.44 177.25 196.42 173.56 198.68 170.66 Z" />
</g>
<g id="#afaf90ff">
<path fill="#afaf90" opacity="1.00" d=" M 227.63 165.93 C 230.86 168.47 233.72 171.66 234.50 175.83 C 231.50 180.51 229.62 185.81 226.31 190.29 C 221.57 196.73 217.25 203.84 210.40 208.27 C 210.58 204.36 211.21 200.44 213.03 196.92 C 216.18 190.51 217.93 183.51 221.25 177.19 C 224.23 173.98 226.51 170.18 227.63 165.93 Z" />
</g>
<g id="#f11935ff">
<path fill="#f11935" opacity="1.00" d=" M 152.14 166.77 C 154.10 168.07 156.08 169.35 158.08 170.60 C 153.96 173.86 151.74 179.01 151.41 184.16 C 151.67 186.62 152.76 188.89 153.60 191.19 C 150.34 193.53 146.97 195.76 143.32 197.46 C 146.83 193.21 144.97 187.62 145.73 182.68 C 146.78 177.02 148.81 171.49 152.14 166.77 Z" />
</g>
<g id="#fea263ff">
<path fill="#fea263" opacity="1.00" d=" M 120.48 175.71 C 121.76 173.08 122.87 170.36 123.95 167.64 C 123.82 174.19 123.84 180.74 124.34 187.28 C 124.43 189.21 124.61 191.15 124.78 193.09 C 120.77 193.15 116.77 193.77 112.96 195.06 C 112.65 192.46 111.88 189.66 113.09 187.17 C 114.96 182.99 118.49 179.83 120.48 175.71 Z" />
</g>
<g id="#fe5772ff">
<path fill="#fe5772" opacity="1.00" d=" M 125.81 170.24 C 128.06 171.03 130.52 172.09 131.39 174.53 C 133.55 179.89 135.25 185.60 135.25 191.44 C 135.22 193.58 135.77 195.66 136.39 197.70 C 136.02 197.57 135.28 197.32 134.91 197.19 C 133.69 196.66 132.48 196.13 131.25 195.66 C 131.24 195.31 131.22 194.59 131.21 194.24 C 129.08 193.81 126.94 193.38 124.78 193.09 C 124.61 191.15 124.43 189.21 124.34 187.28 C 124.82 182.62 125.31 177.96 125.42 173.27 C 125.52 172.51 125.71 171.00 125.81 170.24 Z" />
</g>
<g id="#ec041fff">
<path fill="#ec041f" opacity="1.00" d=" M 158.08 170.60 C 161.41 172.73 164.92 174.66 168.75 175.75 C 169.90 176.15 171.07 176.53 172.24 176.91 C 164.55 179.47 160.32 187.06 153.60 191.19 C 152.76 188.89 151.67 186.62 151.41 184.16 C 151.74 179.01 153.96 173.86 158.08 170.60 Z" />
</g>
<g id="#fa6317ff">
<path fill="#fa6317" opacity="1.00" d=" M 81.72 174.19 C 83.93 174.41 86.12 173.85 88.14 172.98 C 88.56 173.87 88.98 174.77 89.39 175.67 C 87.63 177.40 85.88 179.14 84.12 180.89 L 83.50 181.50 C 82.44 180.44 81.29 179.47 80.10 178.55 C 79.21 177.87 78.31 177.21 77.39 176.56 C 76.90 176.22 75.92 175.54 75.43 175.20 C 75.81 175.06 76.57 174.80 76.96 174.66 C 77.37 174.51 78.21 174.21 78.63 174.06 C 79.40 174.09 80.94 174.16 81.72 174.19 Z" />
</g>
<g id="#d3c7a7ff">
<path fill="#d3c7a7" opacity="1.00" d=" M 208.26 179.31 C 209.04 178.34 209.87 177.42 210.70 176.49 C 211.22 178.32 211.74 180.16 212.25 182.01 C 209.79 186.18 207.92 190.64 206.01 195.07 C 204.07 199.59 200.25 203.08 198.91 207.88 C 197.70 211.83 196.75 215.86 195.50 219.81 C 196.11 219.93 197.32 220.18 197.93 220.30 C 192.01 225.15 185.53 229.50 178.35 232.24 C 180.79 226.95 185.27 222.87 187.29 217.37 C 189.63 211.38 192.05 205.41 194.66 199.54 C 196.52 195.37 199.70 192.03 202.43 188.43 C 204.62 185.55 206.22 182.29 208.26 179.31 Z" />
</g>
<g id="#c6bb9cff">
<path fill="#c6bb9c" opacity="1.00" d=" M 212.25 182.01 C 215.25 180.41 218.30 178.89 221.25 177.19 C 217.93 183.51 216.18 190.51 213.03 196.92 C 211.21 200.44 210.58 204.36 210.40 208.27 C 210.37 209.33 209.44 210.05 208.84 210.83 C 205.53 214.34 201.85 217.50 197.93 220.30 C 197.32 220.18 196.11 219.93 195.50 219.81 C 196.75 215.86 197.70 211.83 198.91 207.88 C 200.25 203.08 204.07 199.59 206.01 195.07 C 207.92 190.64 209.79 186.18 212.25 182.01 Z" />
</g>
<g id="#dfd5b4ff">
<path fill="#dfd5b4" opacity="1.00" d=" M 183.96 201.74 C 191.24 193.90 195.99 183.75 205.02 177.61 C 206.09 178.18 207.17 178.74 208.26 179.31 C 206.22 182.29 204.62 185.55 202.43 188.43 C 199.70 192.03 196.52 195.37 194.66 199.54 C 192.05 205.41 189.63 211.38 187.29 217.37 C 185.27 222.87 180.79 226.95 178.35 232.24 C 176.40 235.22 172.43 236.05 169.23 237.04 L 168.41 236.76 C 168.61 236.54 169.00 236.11 169.19 235.89 C 169.51 235.59 170.13 234.98 170.44 234.67 C 169.51 233.47 168.59 232.27 167.66 231.06 C 173.59 225.83 175.59 218.02 179.22 211.29 C 180.86 208.14 182.25 204.86 183.96 201.74 Z" />
</g>
<g id="#fdfef3ff">
<path fill="#fdfef3" opacity="1.00" d=" M 80.10 178.55 C 81.29 179.47 82.44 180.44 83.50 181.50 C 89.56 190.60 99.52 195.95 108.70 201.37 C 110.76 205.34 113.91 208.73 118.16 210.34 C 116.68 210.47 115.21 210.67 113.73 210.83 C 108.85 210.83 103.93 210.58 99.20 209.29 C 102.43 212.54 105.42 216.17 109.46 218.45 C 117.79 223.01 128.10 223.43 136.82 219.71 C 141.76 217.82 145.21 213.64 149.30 210.48 C 148.69 214.11 146.33 217.02 144.15 219.85 C 145.05 221.11 145.96 222.37 146.86 223.63 C 145.52 224.32 144.15 224.92 142.76 225.48 C 141.23 225.58 139.71 225.62 138.18 225.59 C 135.07 225.45 131.95 225.30 128.84 225.19 C 124.58 224.96 120.32 224.87 116.06 224.89 C 110.18 224.64 105.64 219.87 99.81 219.78 C 99.10 219.89 97.69 220.11 96.98 220.22 C 93.06 219.63 91.72 215.55 89.86 212.62 C 90.20 211.23 90.52 209.84 90.73 208.42 C 90.56 208.00 90.22 207.14 90.06 206.72 C 89.72 205.96 89.37 205.23 89.01 204.50 C 88.50 203.48 88.00 202.46 87.50 201.45 C 87.57 200.69 87.63 199.93 87.70 199.18 C 85.42 196.75 82.24 195.92 79.01 195.90 C 78.76 195.43 78.27 194.50 78.02 194.03 C 78.82 193.90 80.40 193.63 81.19 193.50 C 82.43 193.80 83.65 194.16 84.88 194.51 C 82.87 189.33 81.23 184.00 80.10 178.55 Z" />
</g>
<g id="#f7fde2ff">
<path fill="#f7fde2" opacity="1.00" d=" M 163.11 185.12 C 165.99 182.82 168.20 179.29 171.99 178.42 C 172.15 182.54 171.46 186.72 169.10 190.19 C 168.36 191.21 167.59 192.21 166.87 193.25 C 166.22 194.21 165.58 195.18 164.95 196.15 C 167.33 196.26 169.71 196.35 172.09 196.44 C 172.77 197.79 173.46 199.13 174.15 200.47 C 173.27 200.35 172.39 200.22 171.51 200.11 C 168.92 199.37 166.08 198.07 163.48 199.55 C 165.33 200.01 167.20 200.39 169.09 200.70 C 170.17 201.73 171.20 202.82 172.11 204.00 C 171.28 204.70 170.33 205.24 169.34 205.69 C 166.67 203.90 163.55 203.00 160.38 203.93 C 162.20 204.76 164.05 205.55 165.90 206.31 C 167.38 207.06 168.81 207.90 170.24 208.74 C 168.97 209.20 167.71 209.65 166.44 210.08 C 163.67 208.83 160.61 208.10 157.72 209.43 C 159.80 209.98 161.89 210.51 164.01 210.83 C 164.97 211.77 165.92 212.71 166.88 213.66 C 165.77 213.79 164.66 213.92 163.55 214.06 C 160.52 213.25 157.32 212.89 154.52 214.61 C 156.28 214.84 158.06 215.04 159.83 215.24 C 161.35 215.93 162.83 216.71 164.30 217.50 C 160.99 217.36 157.67 216.75 154.36 217.11 C 153.30 217.91 152.41 218.90 151.48 219.83 C 154.71 220.15 157.95 220.37 161.19 220.60 C 160.37 221.06 159.55 221.51 158.73 221.96 C 156.07 221.48 153.35 220.99 150.64 221.38 C 149.36 222.09 148.13 222.89 146.86 223.63 C 145.96 222.37 145.05 221.11 144.15 219.85 C 146.33 217.02 148.69 214.11 149.30 210.48 C 149.37 210.18 149.53 209.58 149.60 209.28 C 144.70 210.36 139.69 210.78 134.71 211.37 C 128.01 212.36 121.13 213.09 114.48 211.30 L 113.73 210.83 C 115.21 210.67 116.68 210.47 118.16 210.34 C 122.60 210.74 127.33 211.33 131.52 209.38 C 135.28 207.84 137.36 204.15 140.16 201.42 C 148.23 196.62 156.30 191.67 163.11 185.12 Z" />
</g>
<g id="#c5c4a5ff">
<path fill="#c5c4a5" opacity="1.00" d=" M 164.95 196.15 C 165.58 195.18 166.22 194.21 166.87 193.25 C 169.07 194.28 171.23 195.39 173.38 196.54 C 173.06 196.52 172.41 196.47 172.09 196.44 C 169.71 196.35 167.33 196.26 164.95 196.15 Z" />
</g>
<g id="#eae4c1ff">
<path fill="#eae4c1" opacity="1.00" d=" M 173.38 196.54 C 176.05 197.95 178.83 197.04 180.92 195.04 C 181.86 197.31 182.86 199.55 183.96 201.74 C 182.25 204.86 180.86 208.14 179.22 211.29 C 175.59 218.02 173.59 225.83 167.66 231.06 C 168.59 232.27 169.51 233.47 170.44 234.67 C 170.13 234.98 169.51 235.59 169.19 235.89 C 163.72 233.78 159.36 229.74 154.43 226.69 C 150.94 224.48 146.64 225.43 142.76 225.48 C 144.15 224.92 145.52 224.32 146.86 223.63 C 148.13 222.89 149.36 222.09 150.64 221.38 C 152.83 223.17 155.59 223.81 158.32 224.21 C 158.42 223.65 158.62 222.53 158.73 221.96 C 159.55 221.51 160.37 221.06 161.19 220.60 C 157.95 220.37 154.71 220.15 151.48 219.83 C 152.41 218.90 153.30 217.91 154.36 217.11 C 157.67 216.75 160.99 217.36 164.30 217.50 C 162.83 216.71 161.35 215.93 159.83 215.24 C 161.07 214.84 162.31 214.45 163.55 214.06 C 164.66 213.92 165.77 213.79 166.88 213.66 C 165.92 212.71 164.97 211.77 164.01 210.83 C 164.62 210.64 165.83 210.26 166.44 210.08 C 167.71 209.65 168.97 209.20 170.24 208.74 C 168.81 207.90 167.38 207.06 165.90 206.31 C 167.06 206.14 168.20 205.93 169.34 205.69 C 170.33 205.24 171.28 204.70 172.11 204.00 C 171.20 202.82 170.17 201.73 169.09 200.70 C 169.70 200.55 170.91 200.25 171.51 200.11 C 172.39 200.22 173.27 200.35 174.15 200.47 C 173.46 199.13 172.77 197.79 172.09 196.44 C 172.41 196.47 173.06 196.52 173.38 196.54 Z" />
</g>
<g id="#d2ceb3ff">
<path fill="#d2ceb3" opacity="1.00" d=" M 79.01 195.90 C 82.24 195.92 85.42 196.75 87.70 199.18 C 84.57 199.07 80.27 199.61 79.01 195.90 Z" />
</g>
<g id="#b3ae8fff">
<path fill="#b3ae8f" opacity="1.00" d=" M 163.48 199.55 C 166.08 198.07 168.92 199.37 171.51 200.11 C 170.91 200.25 169.70 200.55 169.09 200.70 C 167.20 200.39 165.33 200.01 163.48 199.55 Z" />
</g>
<g id="#d7cdb3ff">
<path fill="#d7cdb3" opacity="1.00" d=" M 80.22 201.71 C 82.64 201.44 85.07 201.44 87.50 201.45 C 88.00 202.46 88.50 203.48 89.01 204.50 C 85.91 204.20 82.91 203.28 80.22 201.71 Z" />
</g>
<g id="#bebd9bff">
<path fill="#bebd9b" opacity="1.00" d=" M 160.38 203.93 C 163.55 203.00 166.67 203.90 169.34 205.69 C 168.20 205.93 167.06 206.14 165.90 206.31 C 164.05 205.55 162.20 204.76 160.38 203.93 Z" />
</g>
<g id="#d2c7acff">
<path fill="#d2c7ac" opacity="1.00" d=" M 82.47 205.98 C 85.01 206.09 87.55 206.28 90.06 206.72 C 90.22 207.14 90.56 208.00 90.73 208.42 C 87.77 210.34 84.83 207.57 82.47 205.98 Z" />
</g>
<g id="#fe5604ff">
<path fill="#fe5604" opacity="1.00" d=" M 104.72 212.56 C 107.97 212.09 111.21 211.61 114.48 211.30 C 121.13 213.09 128.01 212.36 134.71 211.37 C 137.88 211.49 141.03 211.91 144.17 212.37 C 134.20 223.47 114.91 223.23 104.72 212.56 Z" />
</g>
<g id="#b0a588ff">
<path fill="#b0a588" opacity="1.00" d=" M 154.52 214.61 C 157.32 212.89 160.52 213.25 163.55 214.06 C 162.31 214.45 161.07 214.84 159.83 215.24 C 158.06 215.04 156.28 214.84 154.52 214.61 Z" />
</g>
<g id="#fefad6ff">
<path fill="#fefad6" opacity="1.00" d=" M 99.81 219.78 C 105.64 219.87 110.18 224.64 116.06 224.89 C 115.52 224.97 114.44 225.12 113.89 225.20 C 115.79 226.01 117.69 226.89 119.74 227.24 C 127.21 227.82 134.94 228.59 142.23 226.40 C 145.12 226.36 148.05 226.13 150.91 226.60 C 155.28 228.29 158.90 231.40 162.50 234.30 C 158.18 233.67 154.50 230.95 150.23 230.29 C 147.14 232.53 144.51 235.37 141.22 237.35 C 137.51 239.57 134.16 242.81 129.74 243.50 C 126.95 244.05 124.13 244.45 121.35 245.05 C 125.57 245.96 129.90 246.33 134.22 246.18 C 131.92 247.05 129.47 247.50 127.01 247.31 C 114.50 246.62 101.85 245.31 89.98 241.07 C 83.91 238.86 77.68 236.97 72.01 233.80 C 74.47 232.76 76.62 231.17 78.42 229.21 C 81.49 226.60 85.30 225.10 89.04 223.74 C 90.87 223.15 92.72 222.64 94.57 222.11 C 95.70 223.21 96.83 224.30 97.97 225.39 C 99.06 224.64 100.15 223.88 101.24 223.13 C 102.13 225.29 102.95 227.47 103.96 229.59 C 104.40 228.11 104.81 226.62 105.02 225.10 C 104.25 222.61 101.69 221.34 99.81 219.78 Z" />
</g>
<g id="#c7ba9bff">
<path fill="#c7ba9b" opacity="1.00" d=" M 150.64 221.38 C 153.35 220.99 156.07 221.48 158.73 221.96 C 158.62 222.53 158.42 223.65 158.32 224.21 C 155.59 223.81 152.83 223.17 150.64 221.38 Z" />
</g>
<g id="#c1b79eff">
<path fill="#c1b79e" opacity="1.00" d=" M 113.89 225.20 C 114.44 225.12 115.52 224.97 116.06 224.89 C 120.32 224.87 124.58 224.96 128.84 225.19 C 129.98 225.71 131.09 226.28 132.21 226.86 C 128.07 227.29 123.90 227.59 119.74 227.24 C 117.69 226.89 115.79 226.01 113.89 225.20 Z" />
</g>
<g id="#dccdaeff">
<path fill="#dccdae" opacity="1.00" d=" M 128.84 225.19 C 131.95 225.30 135.07 225.45 138.18 225.59 C 137.96 225.78 137.52 226.15 137.30 226.33 C 138.94 226.34 140.59 226.38 142.23 226.40 C 134.94 228.59 127.21 227.82 119.74 227.24 C 123.90 227.59 128.07 227.29 132.21 226.86 C 131.09 226.28 129.98 225.71 128.84 225.19 Z" />
</g>
<g id="#f2e8c0ff">
<path fill="#f2e8c0" opacity="1.00" d=" M 141.22 237.35 C 144.51 235.37 147.14 232.53 150.23 230.29 C 154.50 230.95 158.18 233.67 162.50 234.30 C 164.47 235.13 166.41 236.03 168.41 236.76 L 169.23 237.04 L 170.07 237.33 C 164.44 238.99 158.62 240.01 153.16 242.20 C 147.12 244.57 140.66 245.66 134.22 246.18 C 129.90 246.33 125.57 245.96 121.35 245.05 C 124.13 244.45 126.95 244.05 129.74 243.50 C 134.16 242.81 137.51 239.57 141.22 237.35 Z" />
</g>
</svg>
