<?xml version="1.0" encoding="UTF-8" ?>
<!DOCTYPE svg PUBLIC "-//W3C//DTD SVG 1.1//EN" "http://www.w3.org/Graphics/SVG/1.1/DTD/svg11.dtd">
<svg width="250pt" height="250pt" viewBox="0 0 250 250" version="1.1" xmlns="http://www.w3.org/2000/svg">
<g id="#000000ff">
<path fill="#000000" opacity="1.00" d=" M 0.00 0.00 L 250.00 0.00 L 250.00 250.00 L 0.00 250.00 L 0.00 0.00 M 118.65 66.82 C 118.61 80.03 118.67 93.23 118.61 106.44 C 126.20 114.54 134.70 121.63 142.47 129.54 C 143.39 130.35 144.35 131.47 145.76 131.20 C 158.36 131.17 170.96 131.18 183.56 131.19 C 183.59 127.06 183.59 122.94 183.56 118.81 C 169.18 118.80 154.79 118.87 140.41 118.77 C 154.83 104.56 169.07 90.16 183.53 75.99 C 183.59 72.93 183.60 69.87 183.55 66.81 C 180.70 66.81 177.85 66.84 175.00 66.82 C 160.45 81.29 145.75 95.61 131.23 110.11 C 131.11 98.43 131.23 86.73 131.17 75.05 C 131.17 72.24 131.51 69.38 130.65 66.66 C 126.65 66.92 122.65 66.80 118.65 66.82 M 66.64 118.82 C 66.63 122.94 66.63 127.06 66.64 131.18 C 81.10 131.19 95.55 131.16 110.00 131.20 C 95.51 145.59 81.05 160.00 66.61 174.44 C 66.62 177.41 66.65 180.39 66.63 183.37 C 69.53 183.34 72.44 183.38 75.34 183.39 C 89.80 169.14 104.20 154.82 118.60 140.50 C 118.69 154.73 118.60 168.95 118.65 183.18 C 122.65 183.20 126.66 183.07 130.66 183.34 C 130.78 182.81 131.03 181.76 131.16 181.23 C 131.26 168.74 131.07 156.24 131.25 143.75 C 123.03 135.25 114.49 127.07 106.02 118.82 C 92.90 118.82 79.77 118.82 66.64 118.82 Z" />
</g>
<g id="#ffffffff">
<path fill="#ffffff" opacity="1.00" d=" M 118.65 66.82 C 122.65 66.80 126.65 66.92 130.65 66.66 C 131.51 69.38 131.17 72.24 131.17 75.05 C 131.23 86.73 131.11 98.43 131.23 110.11 C 145.75 95.61 160.45 81.29 175.00 66.82 C 177.85 66.84 180.70 66.81 183.55 66.81 C 183.60 69.87 183.59 72.93 183.53 75.99 C 169.07 90.16 154.83 104.56 140.41 118.77 C 154.79 118.87 169.18 118.80 183.56 118.81 C 183.59 122.94 183.59 127.06 183.56 131.19 C 170.96 131.18 158.36 131.17 145.76 131.20 C 144.35 131.47 143.39 130.35 142.47 129.54 C 134.70 121.63 126.20 114.54 118.61 106.44 C 118.67 93.23 118.61 80.03 118.65 66.82 Z" />
<path fill="#ffffff" opacity="1.00" d=" M 66.64 118.82 C 79.77 118.82 92.90 118.82 106.02 118.82 C 114.49 127.07 123.03 135.25 131.25 143.75 C 131.07 156.24 131.26 168.74 131.16 181.23 C 131.03 181.76 130.78 182.81 130.66 183.34 C 126.66 183.07 122.65 183.20 118.65 183.18 C 118.60 168.95 118.69 154.73 118.60 140.50 C 104.20 154.82 89.80 169.14 75.34 183.39 C 72.44 183.38 69.53 183.34 66.63 183.37 C 66.65 180.39 66.62 177.41 66.61 174.44 C 81.05 160.00 95.51 145.59 110.00 131.20 C 95.55 131.16 81.10 131.19 66.64 131.18 C 66.63 127.06 66.63 122.94 66.64 118.82 Z" />
</g>
</svg>
