<?xml version="1.0" encoding="UTF-8" ?>
<!DOCTYPE svg PUBLIC "-//W3C//DTD SVG 1.1//EN" "http://www.w3.org/Graphics/SVG/1.1/DTD/svg11.dtd">
<svg width="250pt" height="250pt" viewBox="0 0 250 250" version="1.1" xmlns="http://www.w3.org/2000/svg">
<g id="#ffffffff">
<path fill="#ffffff" opacity="1.00" d=" M 0.00 0.00 L 250.00 0.00 L 250.00 250.00 L 0.00 250.00 L 0.00 0.00 M 141.57 55.91 C 147.19 55.90 152.82 56.02 158.44 55.87 C 153.22 53.65 146.66 52.95 141.57 55.91 M 141.61 61.55 C 146.49 62.00 151.67 62.71 156.43 61.29 C 151.51 60.97 146.48 60.56 141.61 61.55 M 144.46 66.38 C 135.38 69.19 127.19 74.13 119.29 79.30 C 114.85 82.10 111.49 86.24 107.19 89.24 C 107.11 89.59 106.94 90.30 106.85 90.66 C 106.35 91.20 105.35 92.29 104.85 92.83 C 104.15 90.07 103.79 87.24 103.87 84.39 C 105.25 80.45 102.46 77.50 99.61 75.30 C 97.76 75.17 95.91 75.05 94.06 74.93 C 85.38 75.66 76.37 74.51 68.59 70.42 C 62.30 68.06 54.62 68.21 48.79 71.77 C 46.77 72.74 47.76 75.10 48.37 76.63 C 49.96 80.00 51.14 84.34 55.17 85.51 C 51.93 88.36 46.94 91.07 47.01 95.95 C 48.57 99.59 52.82 100.86 56.16 102.37 C 55.06 104.88 53.79 107.35 53.25 110.06 C 52.80 111.30 53.15 112.22 54.29 112.84 C 56.95 113.18 59.64 113.02 62.31 113.00 C 60.72 116.17 60.93 119.76 60.95 123.20 C 63.78 123.56 66.53 122.71 69.20 121.87 C 69.37 124.75 69.87 127.62 71.02 130.29 C 76.62 129.11 81.05 124.78 84.11 120.13 C 84.62 120.32 85.64 120.71 86.15 120.91 C 86.61 121.23 87.53 121.88 87.99 122.20 C 87.09 123.80 85.68 125.36 85.88 127.34 L 85.63 126.63 C 85.38 127.33 84.87 128.72 84.62 129.41 C 84.17 130.42 83.47 131.38 83.35 132.49 C 80.33 136.48 75.92 139.01 71.98 141.96 C 63.88 146.79 55.51 151.39 46.63 154.59 L 47.11 154.71 C 46.82 155.05 46.23 155.72 45.94 156.06 L 45.03 155.53 C 45.13 158.13 44.59 161.02 46.10 163.33 C 46.16 163.86 46.27 164.93 46.33 165.47 C 46.75 166.49 47.14 167.52 47.51 168.56 C 48.86 170.42 49.91 172.69 52.01 173.85 C 58.28 177.20 64.72 180.34 70.33 184.78 C 80.25 193.11 89.07 202.65 98.37 211.66 C 113.31 201.27 128.12 189.72 137.68 173.94 C 138.31 172.43 139.70 171.61 141.29 171.41 L 140.60 171.31 C 141.58 169.82 142.51 168.29 143.37 166.72 L 143.77 166.91 C 144.33 165.80 144.68 164.64 144.80 163.43 C 145.36 163.71 146.49 164.26 147.05 164.53 C 146.36 171.05 144.56 177.50 145.06 184.13 C 147.45 184.61 149.83 183.94 152.17 183.51 C 152.08 186.37 152.37 189.23 153.19 191.97 C 156.04 192.20 158.72 191.33 161.13 189.85 C 161.74 192.24 162.15 194.71 163.08 197.00 C 163.55 197.93 164.24 199.50 165.55 198.71 C 167.72 197.58 169.69 196.12 171.78 194.87 C 173.49 198.56 174.87 203.34 179.05 204.92 C 182.53 202.62 185.26 199.27 187.34 195.68 C 191.30 198.86 194.24 205.16 200.00 204.78 C 204.28 200.87 204.77 194.74 206.49 189.53 C 207.28 187.69 206.68 185.83 205.96 184.10 C 204.57 169.94 199.65 156.46 196.20 142.73 C 194.93 139.20 194.62 135.32 192.86 132.00 C 191.00 130.19 188.44 129.22 185.98 128.52 C 182.05 128.74 178.51 130.90 174.62 131.48 C 169.91 131.14 166.12 135.82 161.16 135.37 C 162.20 133.40 163.22 131.40 164.60 129.64 C 164.64 129.27 164.73 128.51 164.78 128.13 C 169.02 125.78 173.31 123.39 177.98 121.98 C 183.75 120.08 189.91 120.14 195.81 118.85 C 196.05 114.24 197.34 109.71 196.90 105.06 C 197.07 101.21 195.50 97.56 195.63 93.71 L 195.41 94.21 C 191.81 89.56 186.93 86.22 182.63 82.29 C 173.73 75.29 164.33 68.08 152.90 65.97 C 150.09 66.02 147.22 65.74 144.46 66.38 Z" />
</g>
<g id="#bfb9a1ff">
<path fill="#bfb9a1" opacity="1.00" d=" M 141.57 55.91 C 146.66 52.95 153.22 53.65 158.44 55.87 C 152.82 56.02 147.19 55.90 141.57 55.91 Z" />
</g>
<g id="#b2ab92ff">
<path fill="#b2ab92" opacity="1.00" d=" M 141.61 61.55 C 146.48 60.56 151.51 60.97 156.43 61.29 C 151.67 62.71 146.49 62.00 141.61 61.55 Z" />
</g>
<g id="#c2bca4ff">
<path fill="#c2bca4" opacity="1.00" d=" M 144.46 66.38 C 147.22 65.74 150.09 66.02 152.90 65.97 C 153.32 67.40 153.73 68.84 154.15 70.27 C 153.33 70.25 151.68 70.20 150.86 70.18 C 144.29 69.65 138.30 72.94 132.55 75.61 C 122.86 80.19 114.41 86.86 106.78 94.31 L 106.01 94.31 C 106.29 93.09 106.57 91.87 106.85 90.66 C 106.94 90.30 107.11 89.59 107.19 89.24 C 111.49 86.24 114.85 82.10 119.29 79.30 C 127.19 74.13 135.38 69.19 144.46 66.38 M 144.88 67.12 C 143.36 70.11 148.21 67.24 144.88 67.12 Z" />
</g>
<g id="#b9b296ff">
<path fill="#b9b296" opacity="1.00" d=" M 152.90 65.97 C 164.33 68.08 173.73 75.29 182.63 82.29 C 186.93 86.22 191.81 89.56 195.41 94.21 C 195.11 94.91 194.51 96.30 194.21 97.00 C 193.71 96.64 192.71 95.91 192.20 95.54 L 192.39 96.47 C 188.80 93.57 185.69 90.01 181.55 87.85 C 177.04 84.93 173.13 81.21 168.63 78.30 C 163.19 74.63 157.01 72.32 150.86 70.18 C 151.68 70.20 153.33 70.25 154.15 70.27 C 153.73 68.84 153.32 67.40 152.90 65.97 Z" />
<path fill="#b9b296" opacity="1.00" d=" M 174.62 131.48 C 178.51 130.90 182.05 128.74 185.98 128.52 C 188.44 129.22 191.00 130.19 192.86 132.00 C 194.62 135.32 194.93 139.20 196.20 142.73 C 199.65 156.46 204.57 169.94 205.96 184.10 C 206.68 185.83 207.28 187.69 206.49 189.53 C 204.77 194.74 204.28 200.87 200.00 204.78 C 194.24 205.16 191.30 198.86 187.34 195.68 C 185.26 199.27 182.53 202.62 179.05 204.92 C 174.87 203.34 173.49 198.56 171.78 194.87 C 169.69 196.12 167.72 197.58 165.55 198.71 C 164.24 199.50 163.55 197.93 163.08 197.00 C 162.15 194.71 161.74 192.24 161.13 189.85 C 158.72 191.33 156.04 192.20 153.19 191.97 C 152.37 189.23 152.08 186.37 152.17 183.51 C 149.83 183.94 147.45 184.61 145.06 184.13 C 144.56 177.50 146.36 171.05 147.05 164.53 C 146.49 164.26 145.36 163.71 144.80 163.43 L 144.72 162.92 C 146.78 163.39 148.84 164.02 150.97 164.07 C 154.28 162.52 157.08 160.10 160.07 158.03 C 163.45 156.16 162.67 151.46 165.80 149.30 C 165.24 151.28 164.63 153.23 164.02 155.19 C 165.20 155.02 166.38 154.83 167.55 154.61 C 169.12 152.40 170.02 149.82 171.10 147.36 C 169.94 147.56 168.78 147.75 167.62 147.95 C 169.91 145.25 173.15 143.83 176.55 143.10 C 176.65 143.35 176.87 143.85 176.98 144.10 C 177.29 144.67 177.92 145.80 178.24 146.37 C 179.24 144.79 180.23 143.20 181.21 141.60 L 179.98 141.38 C 179.16 139.85 178.51 138.24 177.93 136.61 C 179.01 136.10 180.09 135.58 181.17 135.07 C 180.29 135.02 178.53 134.94 177.65 134.90 C 178.38 134.10 179.12 133.30 179.86 132.50 C 178.09 132.32 176.33 131.98 174.62 131.48 M 183.49 134.26 C 183.88 135.65 186.58 135.37 187.59 134.62 C 187.27 133.09 184.49 133.45 183.49 134.26 M 181.15 147.27 C 183.10 145.90 184.22 143.80 185.01 141.60 C 182.46 142.20 179.59 144.33 181.15 147.27 M 184.40 146.46 C 183.97 148.39 185.84 149.53 187.07 150.60 C 188.18 147.71 189.17 144.78 190.03 141.81 C 187.62 142.48 185.00 143.78 184.40 146.46 M 192.34 142.89 C 190.59 144.82 188.67 147.23 189.70 150.01 C 190.02 152.13 192.76 154.57 194.73 152.82 C 195.48 149.46 194.90 145.39 192.34 142.89 M 170.14 158.97 C 172.89 160.53 173.31 156.76 173.92 154.98 C 174.45 152.05 177.30 149.46 176.26 146.37 C 172.86 149.34 166.99 154.07 170.14 158.97 M 179.20 148.23 C 177.08 152.12 173.05 156.45 175.76 161.07 C 175.85 162.86 178.70 162.73 178.54 160.92 C 179.30 156.49 181.54 152.54 182.98 148.32 C 181.72 148.29 180.46 148.26 179.20 148.23 M 183.17 152.23 C 181.31 155.80 178.51 160.04 180.71 164.09 C 181.22 166.02 183.44 165.41 184.70 164.71 C 189.44 162.17 188.57 155.93 188.98 151.40 C 187.08 151.63 184.17 149.93 183.17 152.23 M 190.16 154.26 C 189.89 157.47 188.79 160.84 189.72 164.02 C 191.22 166.01 193.43 168.29 195.90 168.64 C 201.11 164.90 198.61 158.19 197.06 153.19 C 195.07 154.87 192.55 154.71 190.16 154.26 M 162.80 157.77 C 159.05 160.30 155.30 162.86 151.87 165.80 C 146.94 169.99 145.20 176.94 145.91 183.18 C 147.88 183.12 150.05 183.17 151.64 181.81 C 153.09 176.44 155.80 171.53 159.03 167.04 C 161.65 163.48 165.03 160.51 167.32 156.70 C 165.77 156.83 164.07 156.73 162.80 157.77 M 153.46 179.56 C 152.93 183.20 153.64 186.89 153.84 190.53 C 156.29 190.45 159.22 190.02 160.69 187.82 C 162.39 177.70 168.82 169.39 173.67 160.62 C 172.56 160.60 171.45 160.58 170.34 160.57 C 169.53 159.87 168.73 159.16 167.92 158.46 C 162.16 164.75 156.26 171.35 153.46 179.56 M 173.99 162.24 C 170.66 168.22 167.05 174.05 164.05 180.20 C 161.98 184.13 162.07 188.76 162.76 193.02 C 163.04 194.70 163.86 197.03 165.97 196.89 C 168.41 195.82 171.41 194.02 171.28 190.98 C 172.23 181.70 176.64 173.29 178.98 164.35 C 177.28 163.72 175.62 163.02 173.99 162.24 M 187.13 163.83 C 186.18 171.83 186.57 179.93 186.63 187.97 C 186.55 194.41 191.61 199.15 196.26 202.85 C 198.30 204.67 200.81 202.74 201.73 200.73 C 203.87 196.19 205.06 191.09 204.45 186.06 C 203.50 179.17 202.48 172.23 200.12 165.65 C 198.75 167.33 197.83 169.48 196.03 170.74 C 192.56 169.16 190.10 166.12 187.13 163.83 M 179.86 166.80 C 177.23 173.75 174.79 180.79 172.88 187.98 C 171.63 192.01 173.56 196.02 175.43 199.51 C 176.30 200.97 177.15 202.78 178.99 203.18 C 182.25 201.34 184.37 198.00 186.35 194.93 C 186.61 192.26 185.47 189.66 185.48 186.98 C 185.29 180.04 185.59 173.09 185.35 166.15 C 183.52 166.37 181.68 166.59 179.86 166.80 Z" />
</g>
<g id="#a1997cff">
<path fill="#a1997c" opacity="1.00" d=" M 144.88 67.12 C 148.21 67.24 143.36 70.11 144.88 67.12 Z" />
</g>
<g id="#c7bfa9ff">
<path fill="#c7bfa9" opacity="1.00" d=" M 48.79 71.77 C 54.62 68.21 62.30 68.06 68.59 70.42 C 76.37 74.51 85.38 75.66 94.06 74.93 C 94.25 75.30 94.61 76.05 94.80 76.43 C 94.20 76.81 93.00 77.58 92.40 77.96 C 93.35 78.60 94.30 79.24 95.24 79.89 C 92.34 79.41 89.39 79.32 86.49 79.79 C 81.50 77.72 76.07 77.00 71.16 74.73 C 67.26 73.08 63.37 70.59 58.94 71.21 C 55.75 71.60 52.12 71.57 49.50 73.66 C 49.35 78.00 52.34 82.79 56.35 84.53 C 62.47 85.40 68.69 84.46 74.86 84.75 C 73.91 83.17 72.88 81.61 72.27 79.86 C 72.62 78.70 73.60 78.00 74.82 78.36 C 78.25 78.68 81.55 79.90 85.01 79.97 C 84.82 80.42 84.43 81.33 84.24 81.79 C 85.04 82.54 85.85 83.28 86.62 84.07 C 82.30 83.48 77.78 85.53 75.77 89.48 C 76.92 89.84 78.06 90.20 79.20 90.56 C 82.08 88.96 84.88 87.23 87.54 85.28 C 87.84 85.71 88.44 86.57 88.74 86.99 C 85.72 88.92 81.26 89.99 80.62 94.11 C 83.31 93.62 85.93 92.79 88.44 91.70 C 86.66 93.96 85.12 96.40 83.88 98.99 C 88.49 99.29 89.81 93.87 92.94 91.46 C 93.21 91.82 93.74 92.54 94.01 92.90 C 91.23 95.05 89.45 98.13 88.11 101.32 C 92.35 100.43 94.45 96.56 96.42 93.13 C 96.82 93.17 97.61 93.23 98.00 93.27 L 97.88 93.88 C 96.21 97.66 93.01 100.32 90.44 103.44 C 88.40 106.97 87.02 110.86 85.63 114.68 C 84.74 116.64 86.16 118.51 86.84 120.28 C 86.67 120.43 86.32 120.75 86.15 120.91 C 85.64 120.71 84.62 120.32 84.11 120.13 C 81.05 124.78 76.62 129.11 71.02 130.29 C 69.87 127.62 69.37 124.75 69.20 121.87 C 66.53 122.71 63.78 123.56 60.95 123.20 C 60.93 119.76 60.72 116.17 62.31 113.00 C 59.64 113.02 56.95 113.18 54.29 112.84 C 53.15 112.22 52.80 111.30 53.25 110.06 C 53.79 107.35 55.06 104.88 56.16 102.37 C 52.82 100.86 48.57 99.59 47.01 95.95 C 46.94 91.07 51.93 88.36 55.17 85.51 C 51.14 84.34 49.96 80.00 48.37 76.63 C 47.76 75.10 46.77 72.74 48.79 71.77 M 74.08 80.18 C 75.26 81.48 76.20 83.44 78.12 83.69 C 80.02 83.62 81.96 83.00 83.22 81.52 C 80.27 80.55 77.18 80.17 74.08 80.18 M 55.65 87.76 C 52.90 89.81 48.96 92.08 49.00 95.93 C 51.49 98.86 56.20 102.62 60.04 99.91 C 65.26 97.08 70.39 94.08 75.74 91.50 C 75.09 90.93 74.45 90.37 73.80 89.80 C 74.10 88.57 74.40 87.33 74.71 86.10 C 68.39 86.72 61.62 85.18 55.65 87.76 M 63.00 100.17 C 58.48 102.20 54.88 106.78 55.09 111.89 C 58.17 111.84 61.87 112.74 64.26 110.23 C 70.00 105.07 76.93 101.27 82.08 95.47 C 80.65 95.28 79.23 95.10 77.81 94.93 C 78.00 94.23 78.38 92.82 78.57 92.12 C 73.16 94.36 68.28 97.66 63.00 100.17 M 81.31 99.22 C 76.42 103.04 71.23 106.46 66.51 110.50 C 63.26 113.20 62.82 117.70 62.27 121.61 C 65.79 121.77 69.66 120.87 71.62 117.66 C 75.88 111.86 81.15 106.90 85.44 101.15 C 84.06 100.50 82.69 99.86 81.31 99.22 M 79.75 110.69 C 77.33 113.61 74.44 116.17 72.47 119.43 C 70.89 122.10 71.55 125.26 72.08 128.12 C 77.99 126.49 82.96 121.25 83.89 115.12 C 84.52 111.23 86.91 107.95 87.87 104.16 C 87.60 103.89 87.05 103.34 86.78 103.07 C 84.00 105.17 82.05 108.12 79.75 110.69 Z" />
</g>
<g id="#8e8c7dff">
<path fill="#8e8c7d" opacity="1.00" d=" M 132.55 75.61 C 138.30 72.94 144.29 69.65 150.86 70.18 C 157.01 72.32 163.19 74.63 168.63 78.30 C 173.13 81.21 177.04 84.93 181.55 87.85 C 184.66 90.76 187.78 93.67 190.54 96.92 C 183.78 99.62 177.56 103.42 171.46 107.35 L 170.38 106.85 C 169.88 106.61 168.89 106.13 168.39 105.88 C 168.44 105.36 168.55 104.30 168.60 103.78 C 164.37 106.45 161.30 111.17 156.10 112.06 C 162.05 106.25 168.82 101.31 176.09 97.29 C 178.19 97.31 180.94 98.53 182.53 96.63 C 183.82 93.34 181.75 89.79 178.99 87.99 C 176.24 86.83 172.81 87.51 170.50 85.31 C 167.01 82.44 163.19 80.04 159.16 78.01 C 156.15 75.37 153.38 71.94 148.97 71.98 C 151.91 73.16 155.50 74.19 156.20 77.77 C 153.76 78.08 151.27 78.82 148.81 78.33 C 146.32 77.17 144.33 74.64 145.32 71.79 C 143.82 72.89 142.30 73.96 140.71 74.94 C 128.78 78.94 118.19 86.75 110.70 96.85 C 109.41 95.99 108.12 95.10 106.78 94.31 C 114.41 86.86 122.86 80.19 132.55 75.61 M 148.37 74.20 C 148.86 75.68 151.38 76.72 152.92 76.42 C 153.22 74.54 149.85 73.55 148.37 74.20 Z" />
</g>
<g id="#e5e2d1ff">
<path fill="#e5e2d1" opacity="1.00" d=" M 49.50 73.66 C 52.12 71.57 55.75 71.60 58.94 71.21 C 63.37 70.59 67.26 73.08 71.16 74.73 C 76.07 77.00 81.50 77.72 86.49 79.79 L 85.01 79.97 C 81.55 79.90 78.25 78.68 74.82 78.36 C 73.60 78.00 72.62 78.70 72.27 79.86 C 72.88 81.61 73.91 83.17 74.86 84.75 C 68.69 84.46 62.47 85.40 56.35 84.53 C 52.34 82.79 49.35 78.00 49.50 73.66 Z" />
<path fill="#e5e2d1" opacity="1.00" d=" M 74.08 80.18 C 77.18 80.17 80.27 80.55 83.22 81.52 C 81.96 83.00 80.02 83.62 78.12 83.69 C 76.20 83.44 75.26 81.48 74.08 80.18 Z" />
<path fill="#e5e2d1" opacity="1.00" d=" M 75.77 89.48 C 77.78 85.53 82.30 83.48 86.62 84.07 L 87.54 85.28 C 84.88 87.23 82.08 88.96 79.20 90.56 C 78.06 90.20 76.92 89.84 75.77 89.48 Z" />
<path fill="#e5e2d1" opacity="1.00" d=" M 55.65 87.76 C 61.62 85.18 68.39 86.72 74.71 86.10 C 74.40 87.33 74.10 88.57 73.80 89.80 C 74.45 90.37 75.09 90.93 75.74 91.50 C 70.39 94.08 65.26 97.08 60.04 99.91 C 56.20 102.62 51.49 98.86 49.00 95.93 C 48.96 92.08 52.90 89.81 55.65 87.76 Z" />
<path fill="#e5e2d1" opacity="1.00" d=" M 88.74 86.99 L 89.62 87.66 C 89.87 87.83 90.36 88.19 90.61 88.37 C 89.89 89.52 89.26 90.72 88.60 91.90 C 89.70 91.31 90.81 90.71 91.91 90.10 C 92.17 90.44 92.68 91.12 92.94 91.46 C 89.81 93.87 88.49 99.29 83.88 98.99 C 85.12 96.40 86.66 93.96 88.44 91.70 C 85.93 92.79 83.31 93.62 80.62 94.11 C 81.26 89.99 85.72 88.92 88.74 86.99 Z" />
<path fill="#e5e2d1" opacity="1.00" d=" M 88.11 101.32 C 89.45 98.13 91.23 95.05 94.01 92.90 C 94.61 92.96 95.82 93.07 96.42 93.13 C 94.45 96.56 92.35 100.43 88.11 101.32 Z" />
<path fill="#e5e2d1" opacity="1.00" d=" M 90.44 103.44 C 93.01 100.32 96.21 97.66 97.88 93.88 C 97.77 98.44 97.57 103.01 96.75 107.51 C 94.34 112.39 91.04 116.80 86.84 120.28 C 86.16 118.51 84.74 116.64 85.63 114.68 C 87.02 110.86 88.40 106.97 90.44 103.44 Z" />
<path fill="#e5e2d1" opacity="1.00" d=" M 148.73 142.85 C 150.48 141.59 152.52 140.18 154.80 140.87 C 156.99 141.69 159.10 142.67 161.21 143.67 C 159.31 144.67 157.43 145.74 155.40 146.48 C 153.27 147.44 151.14 145.99 149.12 145.39 C 149.02 144.75 148.83 143.48 148.73 142.85 Z" />
<path fill="#e5e2d1" opacity="1.00" d=" M 150.68 152.15 C 158.23 146.41 166.94 141.54 176.54 140.56 C 176.54 141.20 176.54 142.46 176.55 143.10 C 173.15 143.83 169.91 145.25 167.62 147.95 C 168.78 147.75 169.94 147.56 171.10 147.36 C 170.02 149.82 169.12 152.40 167.55 154.61 C 166.38 154.83 165.20 155.02 164.02 155.19 C 164.63 153.23 165.24 151.28 165.80 149.30 C 162.67 151.46 163.45 156.16 160.07 158.03 C 157.08 160.10 154.28 162.52 150.97 164.07 C 148.84 164.02 146.78 163.39 144.72 162.92 C 143.83 160.17 145.51 157.68 147.01 155.53 C 148.18 154.35 149.40 153.22 150.68 152.15 Z" />
<path fill="#e5e2d1" opacity="1.00" d=" M 184.40 146.46 C 185.00 143.78 187.62 142.48 190.03 141.81 C 189.17 144.78 188.18 147.71 187.07 150.60 C 185.84 149.53 183.97 148.39 184.40 146.46 Z" />
<path fill="#e5e2d1" opacity="1.00" d=" M 192.34 142.89 C 194.90 145.39 195.48 149.46 194.73 152.82 C 192.76 154.57 190.02 152.13 189.70 150.01 C 188.67 147.23 190.59 144.82 192.34 142.89 Z" />
<path fill="#e5e2d1" opacity="1.00" d=" M 170.14 158.97 C 166.99 154.07 172.86 149.34 176.26 146.37 C 177.30 149.46 174.45 152.05 173.92 154.98 C 173.31 156.76 172.89 160.53 170.14 158.97 Z" />
<path fill="#e5e2d1" opacity="1.00" d=" M 179.20 148.23 C 180.46 148.26 181.72 148.29 182.98 148.32 C 181.54 152.54 179.30 156.49 178.54 160.92 C 178.70 162.73 175.85 162.86 175.76 161.07 C 173.05 156.45 177.08 152.12 179.20 148.23 Z" />
<path fill="#e5e2d1" opacity="1.00" d=" M 183.17 152.23 C 184.17 149.93 187.08 151.63 188.98 151.40 C 188.57 155.93 189.44 162.17 184.70 164.71 C 183.44 165.41 181.22 166.02 180.71 164.09 C 178.51 160.04 181.31 155.80 183.17 152.23 Z" />
<path fill="#e5e2d1" opacity="1.00" d=" M 190.16 154.26 C 192.55 154.71 195.07 154.87 197.06 153.19 C 198.61 158.19 201.11 164.90 195.90 168.64 C 193.43 168.29 191.22 166.01 189.72 164.02 C 188.79 160.84 189.89 157.47 190.16 154.26 Z" />
<path fill="#e5e2d1" opacity="1.00" d=" M 162.80 157.77 C 164.07 156.73 165.77 156.83 167.32 156.70 C 165.03 160.51 161.65 163.48 159.03 167.04 C 155.80 171.53 153.09 176.44 151.64 181.81 C 150.05 183.17 147.88 183.12 145.91 183.18 C 145.20 176.94 146.94 169.99 151.87 165.80 C 155.30 162.86 159.05 160.30 162.80 157.77 Z" />
<path fill="#e5e2d1" opacity="1.00" d=" M 153.46 179.56 C 156.26 171.35 162.16 164.75 167.92 158.46 C 168.73 159.16 169.53 159.87 170.34 160.57 C 171.45 160.58 172.56 160.60 173.67 160.62 C 168.82 169.39 162.39 177.70 160.69 187.82 C 159.22 190.02 156.29 190.45 153.84 190.53 C 153.64 186.89 152.93 183.20 153.46 179.56 Z" />
<path fill="#e5e2d1" opacity="1.00" d=" M 173.99 162.24 C 175.62 163.02 177.28 163.72 178.98 164.35 C 176.64 173.29 172.23 181.70 171.28 190.98 C 171.41 194.02 168.41 195.82 165.97 196.89 C 163.86 197.03 163.04 194.70 162.76 193.02 C 162.07 188.76 161.98 184.13 164.05 180.20 C 167.05 174.05 170.66 168.22 173.99 162.24 Z" />
</g>
<g id="#cbc6aeff">
<path fill="#cbc6ae" opacity="1.00" d=" M 140.71 74.94 C 142.30 73.96 143.82 72.89 145.32 71.79 C 144.33 74.64 146.32 77.17 148.81 78.33 C 151.27 78.82 153.76 78.08 156.20 77.77 C 155.50 74.19 151.91 73.16 148.97 71.98 C 153.38 71.94 156.15 75.37 159.16 78.01 C 153.08 80.53 145.70 81.01 140.15 76.94 C 140.49 76.43 141.18 75.40 141.52 74.89 C 141.31 74.90 140.91 74.93 140.71 74.94 Z" />
</g>
<g id="#d2cfb8ff">
<path fill="#d2cfb8" opacity="1.00" d=" M 148.37 74.20 C 149.85 73.55 153.22 74.54 152.92 76.42 C 151.38 76.72 148.86 75.68 148.37 74.20 Z" />
</g>
<g id="#b3ad93ff">
<path fill="#b3ad93" opacity="1.00" d=" M 94.06 74.93 C 95.91 75.05 97.76 75.17 99.61 75.30 C 102.46 77.50 105.25 80.45 103.87 84.39 C 102.48 84.89 101.03 84.59 99.63 84.32 C 100.31 85.15 100.98 85.99 101.65 86.83 C 100.87 87.98 100.07 89.12 99.37 90.33 C 98.54 95.72 98.72 101.19 98.50 106.62 C 98.06 106.84 97.19 107.29 96.75 107.51 C 97.57 103.01 97.77 98.44 97.88 93.88 L 98.00 93.27 C 97.61 93.23 96.82 93.17 96.42 93.13 C 95.82 93.07 94.61 92.96 94.01 92.90 C 93.74 92.54 93.21 91.82 92.94 91.46 C 92.68 91.12 92.17 90.44 91.91 90.10 C 90.81 90.71 89.70 91.31 88.60 91.90 C 89.26 90.72 89.89 89.52 90.61 88.37 C 91.21 87.84 92.40 86.79 93.00 86.26 C 92.87 86.89 92.61 88.14 92.48 88.77 C 93.10 88.84 94.36 88.98 94.99 89.05 C 95.12 89.74 95.38 91.14 95.52 91.83 C 95.92 91.72 96.73 91.50 97.14 91.38 C 97.63 90.27 98.12 89.16 98.61 88.05 C 97.62 86.54 96.74 84.95 95.94 83.33 C 93.58 81.50 90.78 81.31 88.37 83.14 C 89.33 84.52 90.79 85.90 89.62 87.66 L 88.74 86.99 C 88.44 86.57 87.84 85.71 87.54 85.28 L 86.62 84.07 C 85.85 83.28 85.04 82.54 84.24 81.79 C 84.43 81.33 84.82 80.42 85.01 79.97 L 86.49 79.79 C 89.39 79.32 92.34 79.41 95.24 79.89 C 94.30 79.24 93.35 78.60 92.40 77.96 C 93.00 77.58 94.20 76.81 94.80 76.43 C 94.61 76.05 94.25 75.30 94.06 74.93 Z" />
</g>
<g id="#d9d6bdff">
<path fill="#d9d6bd" opacity="1.00" d=" M 110.70 96.85 C 118.19 86.75 128.78 78.94 140.71 74.94 C 140.91 74.93 141.31 74.90 141.52 74.89 C 141.18 75.40 140.49 76.43 140.15 76.94 C 145.70 81.01 153.08 80.53 159.16 78.01 C 163.19 80.04 167.01 82.44 170.50 85.31 C 172.81 87.51 176.24 86.83 178.99 87.99 C 181.75 89.79 183.82 93.34 182.53 96.63 C 180.94 98.53 178.19 97.31 176.09 97.29 C 168.82 101.31 162.05 106.25 156.10 112.06 C 153.13 114.59 150.56 117.54 148.00 120.48 C 135.40 112.87 122.74 105.34 110.70 96.85 M 134.29 79.80 C 134.23 80.58 134.10 82.15 134.03 82.93 C 133.19 84.98 130.29 85.37 129.33 83.18 C 130.33 82.63 131.30 82.03 132.23 81.37 C 130.26 82.04 127.98 83.08 128.27 85.61 C 127.44 85.47 125.78 85.20 124.95 85.06 C 126.14 86.17 127.36 87.25 128.61 88.29 C 128.67 87.72 128.78 86.58 128.84 86.01 C 131.43 85.33 134.83 84.61 135.95 81.87 C 136.76 81.79 138.39 81.64 139.21 81.56 C 137.74 80.57 136.01 80.16 134.29 79.80 M 120.85 88.59 C 121.79 89.51 122.71 90.44 123.66 91.37 C 124.67 90.66 125.68 89.96 126.70 89.26 C 126.01 88.45 125.33 87.63 124.65 86.82 C 123.37 87.39 122.12 88.01 120.85 88.59 M 138.55 91.46 C 138.58 92.49 138.61 93.52 138.64 94.56 C 140.54 95.62 142.69 95.99 144.87 95.92 C 143.31 94.74 141.64 93.70 139.89 92.83 C 140.35 92.19 140.81 91.55 141.27 90.91 C 141.75 93.60 144.39 94.57 146.53 95.67 C 148.72 94.41 151.03 93.22 152.65 91.21 C 152.31 90.54 151.63 89.21 151.29 88.54 C 146.87 88.00 141.67 87.60 138.55 91.46 M 173.18 88.18 C 169.12 92.18 177.72 99.72 181.37 95.30 C 182.36 90.99 177.34 86.81 173.18 88.18 M 118.27 92.19 C 117.73 93.41 119.57 95.19 120.76 94.54 C 121.42 93.23 119.54 91.45 118.27 92.19 Z" />
<path fill="#d9d6bd" opacity="1.00" d=" M 181.55 87.85 C 185.69 90.01 188.80 93.57 192.39 96.47 C 192.47 96.88 192.62 97.69 192.70 98.10 C 179.41 105.33 164.40 111.47 155.65 124.53 C 154.95 124.19 153.56 123.50 152.86 123.15 C 153.51 122.53 154.81 121.27 155.45 120.64 C 156.70 119.46 157.87 118.21 159.09 117.00 C 162.92 113.42 167.09 110.23 171.46 107.35 C 177.56 103.42 183.78 99.62 190.54 96.92 C 187.78 93.67 184.66 90.76 181.55 87.85 Z" />
<path fill="#d9d6bd" opacity="1.00" d=" M 174.96 89.36 C 176.49 90.88 181.04 91.92 179.52 94.61 C 177.38 95.26 175.93 92.70 174.17 91.86 C 174.37 91.23 174.77 89.98 174.96 89.36 Z" />
<path fill="#d9d6bd" opacity="1.00" d=" M 70.03 150.90 C 76.64 147.94 82.14 143.12 87.75 138.65 C 99.39 147.33 111.33 155.69 123.70 163.32 C 117.78 171.57 108.45 176.20 99.85 181.09 C 99.66 181.64 99.30 182.74 99.11 183.28 C 98.37 180.45 96.95 177.52 94.01 176.43 C 91.80 175.95 89.27 175.90 87.29 177.13 C 86.75 178.89 86.47 180.72 86.17 182.53 C 85.66 180.74 85.61 178.88 85.66 177.03 C 80.93 172.85 76.17 168.67 71.13 164.87 C 72.26 162.31 73.05 159.61 73.58 156.87 C 72.48 154.83 71.29 152.84 70.03 150.90 M 91.26 152.26 C 88.02 152.95 84.07 155.98 85.28 159.68 C 88.49 165.72 99.77 163.79 100.78 157.03 C 100.69 152.46 94.87 151.15 91.26 152.26 Z" />
<path fill="#d9d6bd" opacity="1.00" d=" M 89.82 155.33 C 92.14 154.83 94.52 154.74 96.85 155.20 C 96.37 156.61 97.15 159.18 95.27 159.62 C 93.10 158.74 91.10 157.33 89.82 155.33 Z" />
<path fill="#d9d6bd" opacity="1.00" d=" M 62.21 158.07 C 62.77 157.39 63.32 156.69 63.88 156.01 C 65.54 157.38 67.23 158.71 68.93 160.04 C 66.57 162.83 64.50 158.95 62.21 158.07 Z" />
</g>
<g id="#868279ff">
<path fill="#868279" opacity="1.00" d=" M 134.29 79.80 C 136.01 80.16 137.74 80.57 139.21 81.56 C 138.39 81.64 136.76 81.79 135.95 81.87 C 134.83 84.61 131.43 85.33 128.84 86.01 C 128.78 86.58 128.67 87.72 128.61 88.29 C 127.36 87.25 126.14 86.17 124.95 85.06 C 125.78 85.20 127.44 85.47 128.27 85.61 C 127.98 83.08 130.26 82.04 132.23 81.37 C 131.30 82.03 130.33 82.63 129.33 83.18 C 130.29 85.37 133.19 84.98 134.03 82.93 C 134.10 82.15 134.23 80.58 134.29 79.80 Z" />
<path fill="#868279" opacity="1.00" d=" M 120.85 88.59 C 122.12 88.01 123.37 87.39 124.65 86.82 C 125.33 87.63 126.01 88.45 126.70 89.26 C 125.68 89.96 124.67 90.66 123.66 91.37 C 122.71 90.44 121.79 89.51 120.85 88.59 Z" />
<path fill="#868279" opacity="1.00" d=" M 54.66 155.60 C 58.28 153.31 62.00 151.16 66.01 149.63 C 65.94 151.02 65.87 152.41 65.80 153.81 C 63.66 153.73 61.18 152.81 59.28 154.23 C 58.12 156.00 59.08 158.08 59.62 159.88 C 60.20 158.28 59.95 156.28 61.11 154.94 C 65.31 153.60 71.05 157.10 70.11 161.87 C 68.40 163.04 66.06 162.68 64.13 163.22 C 66.44 163.85 68.78 164.37 71.13 164.87 C 76.17 168.67 80.93 172.85 85.66 177.03 C 85.61 178.88 85.66 180.74 86.17 182.53 C 88.99 186.36 96.70 188.64 99.11 183.28 C 99.30 182.74 99.66 181.64 99.85 181.09 C 108.45 176.20 117.78 171.57 123.70 163.32 C 124.04 163.53 124.71 163.95 125.04 164.16 C 126.02 165.24 126.97 166.35 127.95 167.44 C 126.87 168.88 125.80 170.35 124.48 171.60 C 114.96 180.43 103.20 186.25 91.57 191.77 C 80.59 181.21 70.17 169.64 56.64 162.24 C 56.13 162.36 55.11 162.61 54.61 162.73 C 52.05 161.37 49.50 159.99 46.86 158.79 C 48.79 158.15 50.66 157.35 52.54 156.58 C 52.81 155.52 53.09 154.48 53.38 153.43 C 53.84 154.13 54.23 154.87 54.66 155.60 M 62.21 158.07 C 64.50 158.95 66.57 162.83 68.93 160.04 C 67.23 158.71 65.54 157.38 63.88 156.01 C 63.32 156.69 62.77 157.39 62.21 158.07 Z" />
</g>
<g id="#cbc6b1ff">
<path fill="#cbc6b1" opacity="1.00" d=" M 88.37 83.14 C 90.78 81.31 93.58 81.50 95.94 83.33 C 96.74 84.95 97.62 86.54 98.61 88.05 C 98.12 89.16 97.63 90.27 97.14 91.38 C 96.73 91.50 95.92 91.72 95.52 91.83 C 95.38 91.14 95.12 89.74 94.99 89.05 C 94.36 88.98 93.10 88.84 92.48 88.77 C 92.61 88.14 92.87 86.89 93.00 86.26 C 92.40 86.79 91.21 87.84 90.61 88.37 C 90.36 88.19 89.87 87.83 89.62 87.66 C 90.79 85.90 89.33 84.52 88.37 83.14 Z" />
</g>
<g id="#c6c1b1ff">
<path fill="#c6c1b1" opacity="1.00" d=" M 99.63 84.32 C 101.03 84.59 102.48 84.89 103.87 84.39 C 103.79 87.24 104.15 90.07 104.85 92.83 C 104.74 94.55 104.62 96.27 104.48 97.98 L 103.98 98.60 C 103.01 99.75 102.10 100.94 101.31 102.22 C 101.43 98.18 101.51 93.92 99.37 90.33 C 100.07 89.12 100.87 87.98 101.65 86.83 C 100.98 85.99 100.31 85.15 99.63 84.32 Z" />
</g>
<g id="#57906dff">
<path fill="#57906d" opacity="1.00" d=" M 138.55 91.46 C 141.67 87.60 146.87 88.00 151.29 88.54 C 151.63 89.21 152.31 90.54 152.65 91.21 C 151.03 93.22 148.72 94.41 146.53 95.67 C 144.39 94.57 141.75 93.60 141.27 90.91 C 140.81 91.55 140.35 92.19 139.89 92.83 C 141.64 93.70 143.31 94.74 144.87 95.92 C 142.69 95.99 140.54 95.62 138.64 94.56 C 138.61 93.52 138.58 92.49 138.55 91.46 M 149.25 90.37 C 148.38 91.60 148.61 92.34 149.92 92.58 C 150.79 91.35 150.57 90.61 149.25 90.37 Z" />
</g>
<g id="#747166ff">
<path fill="#747166" opacity="1.00" d=" M 173.18 88.18 C 177.34 86.81 182.36 90.99 181.37 95.30 C 177.72 99.72 169.12 92.18 173.18 88.18 M 174.96 89.36 C 174.77 89.98 174.37 91.23 174.17 91.86 C 175.93 92.70 177.38 95.26 179.52 94.61 C 181.04 91.92 176.49 90.88 174.96 89.36 Z" />
<path fill="#747166" opacity="1.00" d=" M 84.63 136.24 C 85.68 137.02 86.73 137.82 87.75 138.65 C 82.14 143.12 76.64 147.94 70.03 150.90 C 69.51 151.11 68.48 151.55 67.96 151.77 C 67.77 150.59 66.65 148.94 68.48 148.55 C 74.70 145.68 80.19 141.46 84.63 136.24 Z" />
</g>
<g id="#bec5adff">
<path fill="#bec5ad" opacity="1.00" d=" M 149.25 90.37 C 150.57 90.61 150.79 91.35 149.92 92.58 C 148.61 92.34 148.38 91.60 149.25 90.37 Z" />
</g>
<g id="#e0dcc9ff">
<path fill="#e0dcc9" opacity="1.00" d=" M 99.37 90.33 C 101.51 93.92 101.43 98.18 101.31 102.22 C 100.43 103.72 99.58 105.25 98.50 106.62 C 98.72 101.19 98.54 95.72 99.37 90.33 Z" />
</g>
<g id="#836507ff">
<path fill="#836507" opacity="1.00" d=" M 104.85 92.83 C 105.35 92.29 106.35 91.20 106.85 90.66 C 106.57 91.87 106.29 93.09 106.01 94.31 L 106.78 94.31 C 108.12 95.10 109.41 95.99 110.70 96.85 C 122.74 105.34 135.40 112.87 148.00 120.48 C 150.29 121.93 153.12 122.10 155.45 120.64 C 154.81 121.27 153.51 122.53 152.86 123.15 C 153.56 123.50 154.95 124.19 155.65 124.53 C 156.62 125.00 157.60 125.44 158.59 125.89 C 159.72 126.39 160.84 126.93 161.95 127.50 C 162.85 128.18 163.72 128.91 164.60 129.64 C 163.22 131.40 162.20 133.40 161.16 135.37 C 158.15 134.18 155.27 132.68 152.47 131.08 C 153.64 129.28 154.82 127.48 156.00 125.69 C 139.12 116.66 123.31 105.84 107.00 95.86 C 106.15 96.55 105.31 97.26 104.48 97.98 C 104.62 96.27 104.74 94.55 104.85 92.83 Z" />
</g>
<g id="#e3e0d1ff">
<path fill="#e3e0d1" opacity="1.00" d=" M 63.00 100.17 C 68.28 97.66 73.16 94.36 78.57 92.12 C 78.38 92.82 78.00 94.23 77.81 94.93 C 79.23 95.10 80.65 95.28 82.08 95.47 C 76.93 101.27 70.00 105.07 64.26 110.23 C 61.87 112.74 58.17 111.84 55.09 111.89 C 54.88 106.78 58.48 102.20 63.00 100.17 Z" />
<path fill="#e3e0d1" opacity="1.00" d=" M 81.31 99.22 C 82.69 99.86 84.06 100.50 85.44 101.15 C 81.15 106.90 75.88 111.86 71.62 117.66 C 69.66 120.87 65.79 121.77 62.27 121.61 C 62.82 117.70 63.26 113.20 66.51 110.50 C 71.23 106.46 76.42 103.04 81.31 99.22 Z" />
<path fill="#e3e0d1" opacity="1.00" d=" M 79.75 110.69 C 82.05 108.12 84.00 105.17 86.78 103.07 C 87.05 103.34 87.60 103.89 87.87 104.16 C 86.91 107.95 84.52 111.23 83.89 115.12 C 82.96 121.25 77.99 126.49 72.08 128.12 C 71.55 125.26 70.89 122.10 72.47 119.43 C 74.44 116.17 77.33 113.61 79.75 110.69 Z" />
<path fill="#e3e0d1" opacity="1.00" d=" M 187.13 163.83 C 190.10 166.12 192.56 169.16 196.03 170.74 C 197.83 169.48 198.75 167.33 200.12 165.65 C 202.48 172.23 203.50 179.17 204.45 186.06 C 205.06 191.09 203.87 196.19 201.73 200.73 C 200.81 202.74 198.30 204.67 196.26 202.85 C 191.61 199.15 186.55 194.41 186.63 187.97 C 186.57 179.93 186.18 171.83 187.13 163.83 Z" />
<path fill="#e3e0d1" opacity="1.00" d=" M 179.86 166.80 C 181.68 166.59 183.52 166.37 185.35 166.15 C 185.59 173.09 185.29 180.04 185.48 186.98 C 185.47 189.66 186.61 192.26 186.35 194.93 C 184.37 198.00 182.25 201.34 178.99 203.18 C 177.15 202.78 176.30 200.97 175.43 199.51 C 173.56 196.02 171.63 192.01 172.88 187.98 C 174.79 180.79 177.23 173.75 179.86 166.80 Z" />
</g>
<g id="#8f8b7dff">
<path fill="#8f8b7d" opacity="1.00" d=" M 118.27 92.19 C 119.54 91.45 121.42 93.23 120.76 94.54 C 119.57 95.19 117.73 93.41 118.27 92.19 Z" />
</g>
<g id="#6a6762ff">
<path fill="#6a6762" opacity="1.00" d=" M 195.41 94.21 L 195.63 93.71 C 195.50 97.56 197.07 101.21 196.90 105.06 C 197.34 109.71 196.05 114.24 195.81 118.85 C 189.91 120.14 183.75 120.08 177.98 121.98 C 173.31 123.39 169.02 125.78 164.78 128.13 C 164.73 128.51 164.64 129.27 164.60 129.64 C 163.72 128.91 162.85 128.18 161.95 127.50 C 167.43 125.22 172.34 121.58 178.23 120.34 C 183.39 118.66 189.06 118.97 194.09 117.02 C 195.45 113.19 195.50 108.99 195.42 104.97 C 195.51 103.13 194.24 101.73 193.34 100.28 C 182.50 105.69 171.22 110.91 162.43 119.46 C 160.51 121.16 159.49 123.54 158.59 125.89 C 157.60 125.44 156.62 125.00 155.65 124.53 C 164.40 111.47 179.41 105.33 192.70 98.10 C 192.62 97.69 192.47 96.88 192.39 96.47 L 192.20 95.54 C 192.71 95.91 193.71 96.64 194.21 97.00 C 194.51 96.30 195.11 94.91 195.41 94.21 Z" />
</g>
<g id="#faca0eff">
<path fill="#faca0e" opacity="1.00" d=" M 104.48 97.98 C 105.31 97.26 106.15 96.55 107.00 95.86 C 123.31 105.84 139.12 116.66 156.00 125.69 C 154.82 127.48 153.64 129.28 152.47 131.08 L 152.13 130.89 C 135.56 121.50 119.44 111.36 103.62 100.76 C 103.71 100.22 103.89 99.14 103.98 98.60 L 104.48 97.98 Z" />
</g>
<g id="#c5b179ff">
<path fill="#c5b179" opacity="1.00" d=" M 101.31 102.22 C 102.10 100.94 103.01 99.75 103.98 98.60 C 103.89 99.14 103.71 100.22 103.62 100.76 C 102.47 104.08 100.56 107.05 98.94 110.15 C 98.21 109.27 97.48 108.39 96.75 107.51 C 97.19 107.29 98.06 106.84 98.50 106.62 C 99.58 105.25 100.43 103.72 101.31 102.22 Z" />
</g>
<g id="#fbf3d4ff">
<path fill="#fbf3d4" opacity="1.00" d=" M 98.94 110.15 C 100.56 107.05 102.47 104.08 103.62 100.76 C 119.44 111.36 135.56 121.50 152.13 130.89 C 145.79 140.92 140.18 151.40 134.95 162.04 L 134.87 162.22 C 118.64 152.10 102.77 141.40 87.59 129.77 C 91.41 123.26 95.17 116.70 98.94 110.15 M 104.06 117.31 C 103.56 117.13 102.55 116.76 102.05 116.57 C 101.35 117.70 100.66 118.83 99.97 119.96 C 100.27 120.40 100.88 121.30 101.18 121.74 C 98.49 126.24 96.72 133.72 102.29 136.79 C 107.58 139.60 112.71 135.12 116.68 132.03 C 119.08 133.80 121.53 135.50 123.94 137.26 C 121.77 138.46 119.33 138.89 116.87 138.73 C 115.27 141.02 113.84 143.44 112.77 146.03 C 118.62 147.98 124.31 144.72 127.99 140.30 C 128.97 140.89 129.98 141.43 131.00 141.93 C 132.51 141.49 133.01 139.65 133.93 138.51 C 132.89 137.72 131.84 136.96 130.81 136.17 C 132.87 132.23 134.67 127.54 133.03 123.12 C 131.75 119.58 127.57 117.55 123.99 118.68 C 120.43 119.89 117.70 122.63 114.97 125.09 C 112.52 123.54 110.12 121.90 107.95 119.96 C 109.81 119.44 111.68 118.99 113.57 118.58 C 114.77 116.35 115.99 114.14 117.12 111.87 C 111.88 110.37 107.49 113.84 104.06 117.31 Z" />
<path fill="#fbf3d4" opacity="1.00" d=" M 105.16 124.06 C 107.22 125.44 109.26 126.85 111.31 128.26 C 109.88 129.63 107.44 130.92 105.70 129.31 C 104.22 127.89 104.83 125.81 105.16 124.06 Z" />
<path fill="#fbf3d4" opacity="1.00" d=" M 119.96 128.63 C 121.63 127.04 124.07 125.26 126.44 126.58 C 128.62 128.24 127.54 131.24 127.10 133.46 C 124.62 132.00 122.27 130.34 119.96 128.63 Z" />
</g>
<g id="#939185ff">
<path fill="#939185" opacity="1.00" d=" M 162.43 119.46 C 171.22 110.91 182.50 105.69 193.34 100.28 C 194.24 101.73 195.51 103.13 195.42 104.97 C 195.50 108.99 195.45 113.19 194.09 117.02 C 189.06 118.97 183.39 118.66 178.23 120.34 C 172.34 121.58 167.43 125.22 161.95 127.50 C 160.84 126.93 159.72 126.39 158.59 125.89 C 159.49 123.54 160.51 121.16 162.43 119.46 Z" />
<path fill="#939185" opacity="1.00" d=" M 156.10 112.06 C 161.30 111.17 164.37 106.45 168.60 103.78 C 168.55 104.30 168.44 105.36 168.39 105.88 C 168.89 106.13 169.88 106.61 170.38 106.85 C 165.73 109.69 161.47 113.16 157.77 117.15 L 159.09 117.00 C 157.87 118.21 156.70 119.46 155.45 120.64 C 153.12 122.10 150.29 121.93 148.00 120.48 C 150.56 117.54 153.13 114.59 156.10 112.06 Z" />
</g>
<g id="#d0c398ff">
<path fill="#d0c398" opacity="1.00" d=" M 86.84 120.28 C 91.04 116.80 94.34 112.39 96.75 107.51 C 97.48 108.39 98.21 109.27 98.94 110.15 C 95.17 116.70 91.41 123.26 87.59 129.77 L 86.50 129.58 C 86.33 128.82 86.13 128.07 85.88 127.34 C 85.68 125.36 87.09 123.80 87.99 122.20 C 87.53 121.88 86.61 121.23 86.15 120.91 C 86.32 120.75 86.67 120.43 86.84 120.28 Z" />
</g>
<g id="#595750ff">
<path fill="#595750" opacity="1.00" d=" M 157.77 117.15 C 161.47 113.16 165.73 109.69 170.38 106.85 L 171.46 107.35 C 167.09 110.23 162.92 113.42 159.09 117.00 L 157.77 117.15 Z" />
<path fill="#595750" opacity="1.00" d=" M 48.70 165.04 C 49.31 163.77 50.92 162.80 52.27 163.55 C 58.37 167.32 64.14 171.64 69.56 176.34 C 74.94 182.00 81.29 186.64 86.25 192.73 C 87.64 193.77 87.37 195.41 86.43 196.66 C 84.04 193.69 80.94 191.47 78.23 188.82 C 73.48 183.77 67.45 180.15 61.50 176.71 C 56.09 174.45 50.49 170.98 48.70 165.04 Z" />
</g>
<g id="#8a6914ff">
<path fill="#8a6914" opacity="1.00" d=" M 104.06 117.31 C 107.49 113.84 111.88 110.37 117.12 111.87 C 115.99 114.14 114.77 116.35 113.57 118.58 C 111.68 118.99 109.81 119.44 107.95 119.96 C 110.12 121.90 112.52 123.54 114.97 125.09 C 117.70 122.63 120.43 119.89 123.99 118.68 C 127.57 117.55 131.75 119.58 133.03 123.12 C 134.67 127.54 132.87 132.23 130.81 136.17 C 131.84 136.96 132.89 137.72 133.93 138.51 C 133.01 139.65 132.51 141.49 131.00 141.93 C 129.98 141.43 128.97 140.89 127.99 140.30 C 124.31 144.72 118.62 147.98 112.77 146.03 C 113.84 143.44 115.27 141.02 116.87 138.73 C 119.33 138.89 121.77 138.46 123.94 137.26 C 121.53 135.50 119.08 133.80 116.68 132.03 C 112.71 135.12 107.58 139.60 102.29 136.79 C 96.72 133.72 98.49 126.24 101.18 121.74 C 100.88 121.30 100.27 120.40 99.97 119.96 C 100.66 118.83 101.35 117.70 102.05 116.57 C 102.55 116.76 103.56 117.13 104.06 117.31 M 105.16 124.06 C 104.83 125.81 104.22 127.89 105.70 129.31 C 107.44 130.92 109.88 129.63 111.31 128.26 C 109.26 126.85 107.22 125.44 105.16 124.06 M 119.96 128.63 C 122.27 130.34 124.62 132.00 127.10 133.46 C 127.54 131.24 128.62 128.24 126.44 126.58 C 124.07 125.26 121.63 127.04 119.96 128.63 Z" />
<path fill="#8a6914" opacity="1.00" d=" M 85.63 126.63 L 85.88 127.34 C 86.13 128.07 86.33 128.82 86.50 129.58 C 85.75 131.04 84.94 132.48 84.36 134.03 C 85.37 136.15 87.60 137.33 89.34 138.81 C 98.58 145.65 107.90 152.38 117.63 158.50 C 120.28 160.13 122.89 161.88 125.04 164.16 C 124.71 163.95 124.04 163.53 123.70 163.32 C 111.33 155.69 99.39 147.33 87.75 138.65 C 86.73 137.82 85.68 137.02 84.63 136.24 C 84.17 135.00 83.75 133.75 83.35 132.49 C 83.47 131.38 84.17 130.42 84.62 129.41 C 84.87 128.72 85.38 127.33 85.63 126.63 Z" />
</g>
<g id="#facb10ff">
<path fill="#facb10" opacity="1.00" d=" M 84.36 134.03 C 84.94 132.48 85.75 131.04 86.50 129.58 L 87.59 129.77 C 102.77 141.40 118.64 152.10 134.87 162.22 C 133.86 164.62 132.64 166.97 130.66 168.72 C 130.36 168.20 129.75 167.15 129.45 166.63 C 127.95 165.87 126.45 165.08 125.04 164.16 C 122.89 161.88 120.28 160.13 117.63 158.50 C 107.90 152.38 98.58 145.65 89.34 138.81 C 87.60 137.33 85.37 136.15 84.36 134.03 Z" />
</g>
<g id="#84816dff">
<path fill="#84816d" opacity="1.00" d=" M 152.13 130.89 L 152.47 131.08 C 155.27 132.68 158.15 134.18 161.16 135.37 C 160.16 137.40 159.15 139.42 158.13 141.45 C 157.30 141.30 155.63 141.02 154.80 140.87 C 152.52 140.18 150.48 141.59 148.73 142.85 C 147.97 144.11 147.24 145.40 146.71 146.78 C 145.33 149.61 145.99 152.70 147.01 155.53 C 145.51 157.68 143.83 160.17 144.72 162.92 L 144.80 163.43 C 144.68 164.64 144.33 165.80 143.77 166.91 L 143.37 166.72 C 140.45 165.37 137.64 163.81 134.95 162.04 C 140.18 151.40 145.79 140.92 152.13 130.89 Z" />
</g>
<g id="#cecab3ff">
<path fill="#cecab3" opacity="1.00" d=" M 161.16 135.37 C 166.12 135.82 169.91 131.14 174.62 131.48 C 176.33 131.98 178.09 132.32 179.86 132.50 C 179.12 133.30 178.38 134.10 177.65 134.90 C 178.53 134.94 180.29 135.02 181.17 135.07 C 180.09 135.58 179.01 136.10 177.93 136.61 C 178.51 138.24 179.16 139.85 179.98 141.38 C 178.95 142.25 177.97 143.18 176.98 144.10 C 176.87 143.85 176.65 143.35 176.55 143.10 C 176.54 142.46 176.54 141.20 176.54 140.56 C 166.94 141.54 158.23 146.41 150.68 152.15 C 149.43 151.44 148.19 150.73 146.95 150.02 C 146.89 149.21 146.77 147.59 146.71 146.78 C 147.24 145.40 147.97 144.11 148.73 142.85 C 148.83 143.48 149.02 144.75 149.12 145.39 C 151.14 145.99 153.27 147.44 155.40 146.48 C 157.43 145.74 159.31 144.67 161.21 143.67 C 159.10 142.67 156.99 141.69 154.80 140.87 C 155.63 141.02 157.30 141.30 158.13 141.45 C 159.15 139.42 160.16 137.40 161.16 135.37 Z" />
<path fill="#cecab3" opacity="1.00" d=" M 54.61 162.73 C 55.11 162.61 56.13 162.36 56.64 162.24 C 70.17 169.64 80.59 181.21 91.57 191.77 C 103.20 186.25 114.96 180.43 124.48 171.60 C 125.80 170.35 126.87 168.88 127.95 167.44 C 128.53 168.07 129.12 168.71 129.71 169.34 C 121.18 178.72 110.02 185.16 98.75 190.71 C 96.10 192.12 93.32 193.31 90.37 193.96 C 83.74 186.50 76.42 179.71 68.96 173.10 C 64.49 169.24 59.85 165.50 54.61 162.73 Z" />
</g>
<g id="#bcb69eff">
<path fill="#bcb69e" opacity="1.00" d=" M 71.98 141.96 C 75.92 139.01 80.33 136.48 83.35 132.49 C 83.75 133.75 84.17 135.00 84.63 136.24 C 80.19 141.46 74.70 145.68 68.48 148.55 C 66.65 148.94 67.77 150.59 67.96 151.77 C 68.48 151.55 69.51 151.11 70.03 150.90 C 71.29 152.84 72.48 154.83 73.58 156.87 C 73.05 159.61 72.26 162.31 71.13 164.87 C 68.78 164.37 66.44 163.85 64.13 163.22 C 66.06 162.68 68.40 163.04 70.11 161.87 C 71.05 157.10 65.31 153.60 61.11 154.94 C 59.95 156.28 60.20 158.28 59.62 159.88 C 59.08 158.08 58.12 156.00 59.28 154.23 C 61.18 152.81 63.66 153.73 65.80 153.81 C 65.87 152.41 65.94 151.02 66.01 149.63 C 62.00 151.16 58.28 153.31 54.66 155.60 C 54.23 154.87 53.84 154.13 53.38 153.43 C 53.09 154.48 52.81 155.52 52.54 156.58 C 50.66 157.35 48.79 158.15 46.86 158.79 L 45.88 158.92 C 45.94 160.39 46.01 161.86 46.10 163.33 C 44.59 161.02 45.13 158.13 45.03 155.53 L 45.94 156.06 C 46.43 156.29 47.41 156.74 47.90 156.96 C 49.60 156.87 48.11 154.73 47.11 154.71 L 46.63 154.59 C 55.51 151.39 63.88 146.79 71.98 141.96 Z" />
</g>
<g id="#cec8b2ff">
<path fill="#cec8b2" opacity="1.00" d=" M 183.49 134.26 C 184.49 133.45 187.27 133.09 187.59 134.62 C 186.58 135.37 183.88 135.65 183.49 134.26 Z" />
</g>
<g id="#dfdbc7ff">
<path fill="#dfdbc7" opacity="1.00" d=" M 179.98 141.38 L 181.21 141.60 C 180.23 143.20 179.24 144.79 178.24 146.37 C 177.92 145.80 177.29 144.67 176.98 144.10 C 177.97 143.18 178.95 142.25 179.98 141.38 Z" />
</g>
<g id="#dedac8ff">
<path fill="#dedac8" opacity="1.00" d=" M 181.15 147.27 C 179.59 144.33 182.46 142.20 185.01 141.60 C 184.22 143.80 183.10 145.90 181.15 147.27 Z" />
</g>
<g id="#afaa95ff">
<path fill="#afaa95" opacity="1.00" d=" M 147.01 155.53 C 145.99 152.70 145.33 149.61 146.71 146.78 C 146.77 147.59 146.89 149.21 146.95 150.02 C 148.19 150.73 149.43 151.44 150.68 152.15 C 149.40 153.22 148.18 154.35 147.01 155.53 Z" />
</g>
<g id="#999585ff">
<path fill="#999585" opacity="1.00" d=" M 91.26 152.26 C 94.87 151.15 100.69 152.46 100.78 157.03 C 99.77 163.79 88.49 165.72 85.28 159.68 C 84.07 155.98 88.02 152.95 91.26 152.26 M 89.82 155.33 C 91.10 157.33 93.10 158.74 95.27 159.62 C 97.15 159.18 96.37 156.61 96.85 155.20 C 94.52 154.74 92.14 154.83 89.82 155.33 M 98.25 155.43 C 97.45 156.15 97.36 158.68 98.78 158.55 C 99.59 157.82 99.69 155.29 98.25 155.43 M 88.40 158.22 C 88.15 159.97 91.02 161.12 92.47 160.65 C 92.33 159.05 89.92 157.48 88.40 158.22 Z" />
</g>
<g id="#8b8674ff">
<path fill="#8b8674" opacity="1.00" d=" M 45.94 156.06 C 46.23 155.72 46.82 155.05 47.11 154.71 C 48.11 154.73 49.60 156.87 47.90 156.96 C 47.41 156.74 46.43 156.29 45.94 156.06 Z" />
</g>
<g id="#b7b29dff">
<path fill="#b7b29d" opacity="1.00" d=" M 98.25 155.43 C 99.69 155.29 99.59 157.82 98.78 158.55 C 97.36 158.68 97.45 156.15 98.25 155.43 Z" />
</g>
<g id="#c6c2afff">
<path fill="#c6c2af" opacity="1.00" d=" M 88.40 158.22 C 89.92 157.48 92.33 159.05 92.47 160.65 C 91.02 161.12 88.15 159.97 88.40 158.22 Z" />
</g>
<g id="#413e39ff">
<path fill="#413e39" opacity="1.00" d=" M 45.88 158.92 L 46.86 158.79 C 49.50 159.99 52.05 161.37 54.61 162.73 C 59.85 165.50 64.49 169.24 68.96 173.10 C 76.42 179.71 83.74 186.50 90.37 193.96 C 93.32 193.31 96.10 192.12 98.75 190.71 C 110.02 185.16 121.18 178.72 129.71 169.34 C 129.12 168.71 128.53 168.07 127.95 167.44 C 126.97 166.35 126.02 165.24 125.04 164.16 C 126.45 165.08 127.95 165.87 129.45 166.63 C 129.75 167.15 130.36 168.20 130.66 168.72 C 131.33 168.92 132.00 169.13 132.67 169.35 C 129.47 170.63 127.52 173.62 124.94 175.74 C 119.02 180.70 112.41 184.77 105.70 188.56 C 101.00 191.24 95.86 193.01 91.16 195.69 C 90.46 201.43 93.66 206.45 98.03 209.86 C 100.59 209.14 102.64 207.38 104.76 205.87 C 116.38 197.29 127.42 187.59 135.67 175.63 C 136.80 174.20 136.77 172.34 136.73 170.62 C 138.01 170.89 139.30 171.11 140.60 171.31 L 141.29 171.41 C 139.70 171.61 138.31 172.43 137.68 173.94 C 128.12 189.72 113.31 201.27 98.37 211.66 C 89.07 202.65 80.25 193.11 70.33 184.78 C 64.72 180.34 58.28 177.20 52.01 173.85 C 49.91 172.69 48.86 170.42 47.51 168.56 C 47.14 167.52 46.75 166.49 46.33 165.47 C 46.27 164.93 46.16 163.86 46.10 163.33 C 46.01 161.86 45.94 160.39 45.88 158.92 M 48.70 165.04 C 50.49 170.98 56.09 174.45 61.50 176.71 C 67.45 180.15 73.48 183.77 78.23 188.82 C 80.94 191.47 84.04 193.69 86.43 196.66 C 87.37 195.41 87.64 193.77 86.25 192.73 C 81.29 186.64 74.94 182.00 69.56 176.34 C 64.14 171.64 58.37 167.32 52.27 163.55 C 50.92 162.80 49.31 163.77 48.70 165.04 Z" />
</g>
<g id="#836607ff">
<path fill="#836607" opacity="1.00" d=" M 134.87 162.22 L 134.95 162.04 C 137.64 163.81 140.45 165.37 143.37 166.72 C 142.51 168.29 141.58 169.82 140.60 171.31 C 139.30 171.11 138.01 170.89 136.73 170.62 C 135.37 170.21 134.02 169.78 132.67 169.35 C 132.00 169.13 131.33 168.92 130.66 168.72 C 132.64 166.97 133.86 164.62 134.87 162.22 Z" />
</g>
<g id="#918f83ff">
<path fill="#918f83" opacity="1.00" d=" M 124.94 175.74 C 127.52 173.62 129.47 170.63 132.67 169.35 C 134.02 169.78 135.37 170.21 136.73 170.62 C 136.77 172.34 136.80 174.20 135.67 175.63 C 127.42 187.59 116.38 197.29 104.76 205.87 C 102.64 207.38 100.59 209.14 98.03 209.86 C 93.66 206.45 90.46 201.43 91.16 195.69 C 95.86 193.01 101.00 191.24 105.70 188.56 C 112.41 184.77 119.02 180.70 124.94 175.74 Z" />
</g>
<g id="#999589ff">
<path fill="#999589" opacity="1.00" d=" M 87.29 177.13 C 89.27 175.90 91.80 175.95 94.01 176.43 C 96.95 177.52 98.37 180.45 99.11 183.28 C 96.70 188.64 88.99 186.36 86.17 182.53 C 86.47 180.72 86.75 178.89 87.29 177.13 M 89.21 179.96 C 90.62 180.93 91.99 181.95 93.32 183.03 C 93.90 182.78 95.05 182.29 95.63 182.04 C 94.28 180.61 92.94 179.18 91.58 177.76 C 90.79 178.50 90.02 179.25 89.21 179.96 Z" />
</g>
<g id="#ccc7b2ff">
<path fill="#ccc7b2" opacity="1.00" d=" M 89.21 179.96 C 90.02 179.25 90.79 178.50 91.58 177.76 C 92.94 179.18 94.28 180.61 95.63 182.04 C 95.05 182.29 93.90 182.78 93.32 183.03 C 91.99 181.95 90.62 180.93 89.21 179.96 Z" />
</g>
</svg>
