<?xml version="1.0" encoding="UTF-8" ?>
<!DOCTYPE svg PUBLIC "-//W3C//DTD SVG 1.1//EN" "http://www.w3.org/Graphics/SVG/1.1/DTD/svg11.dtd">
<svg width="250pt" height="250pt" viewBox="0 0 250 250" version="1.1" xmlns="http://www.w3.org/2000/svg">
<g id="#ffffffff">
<path fill="#ffffff" opacity="1.00" d=" M 0.00 0.00 L 250.00 0.00 L 250.00 250.00 L 0.00 250.00 L 0.00 0.00 M 146.30 62.29 C 146.83 62.79 146.83 62.79 146.30 62.29 M 152.32 62.24 C 152.81 62.77 152.81 62.77 152.32 62.24 M 145.76 68.74 C 137.66 70.78 130.50 75.17 123.36 79.33 C 116.89 83.38 110.92 88.22 105.96 94.03 C 105.25 94.78 104.68 95.64 104.26 96.62 C 103.00 91.88 103.28 86.90 101.96 82.19 C 100.57 80.82 99.20 79.44 97.79 78.09 C 93.99 77.99 90.40 76.66 86.71 75.89 C 81.34 74.56 75.75 73.75 70.79 71.17 C 64.10 67.50 54.74 68.01 48.93 73.05 C 50.25 76.02 50.61 80.07 53.60 81.85 C 54.47 83.03 55.33 84.22 56.19 85.42 C 55.46 85.87 53.99 86.78 53.25 87.24 L 53.04 87.19 C 51.66 88.51 50.32 89.87 48.98 91.23 C 48.94 92.75 48.89 94.27 48.84 95.80 L 49.32 95.69 C 51.62 97.78 54.26 99.46 57.17 100.57 C 56.57 103.77 53.87 106.40 54.03 109.71 C 55.96 112.11 59.53 110.63 62.19 111.05 C 61.60 114.04 60.99 117.02 60.77 120.06 C 63.34 121.57 66.19 120.12 68.88 119.82 C 68.89 122.36 69.02 124.93 69.92 127.33 C 73.61 126.92 76.73 124.77 79.71 122.73 C 81.60 121.57 82.18 119.13 83.96 117.91 C 84.80 118.59 85.61 119.30 86.40 120.03 C 89.55 118.18 91.91 115.43 94.20 112.65 C 91.81 117.81 88.42 122.43 85.91 127.53 L 86.23 127.79 C 85.17 129.76 84.14 131.75 83.30 133.82 C 83.11 135.47 82.22 136.90 80.93 137.92 C 73.86 143.86 65.92 148.70 57.64 152.77 C 55.22 153.99 52.50 154.69 50.43 156.51 C 48.97 156.77 47.56 157.24 46.12 157.59 C 45.13 164.02 47.84 171.32 53.95 174.22 C 60.55 177.69 67.18 181.32 72.85 186.21 C 80.41 193.96 88.64 200.99 96.33 208.59 C 97.43 209.61 98.20 210.90 98.73 212.29 C 98.80 211.81 98.92 210.84 98.98 210.35 C 114.77 199.93 129.06 186.79 139.32 170.78 C 139.58 170.85 140.11 170.98 140.37 171.05 C 141.39 169.26 142.47 167.50 143.49 165.70 L 143.79 165.87 C 144.22 164.71 144.91 163.67 145.59 162.65 C 146.77 163.76 148.39 163.96 149.91 164.25 C 146.44 169.36 145.15 175.59 146.11 181.68 C 147.61 184.99 151.26 180.72 153.45 182.59 C 154.14 185.12 154.11 187.83 155.16 190.29 C 157.79 189.79 160.20 188.58 162.72 187.75 C 162.66 190.92 163.88 193.85 166.16 196.06 C 168.43 194.82 170.66 193.48 172.82 192.05 C 174.38 195.21 176.27 198.20 178.25 201.12 C 183.30 200.92 185.48 195.29 188.42 191.94 C 190.47 196.30 194.59 199.47 199.06 201.07 C 202.17 199.90 203.01 195.91 204.36 193.14 C 204.73 193.34 205.46 193.75 205.82 193.95 C 206.21 191.08 207.46 188.20 206.65 185.29 C 204.04 169.63 200.33 154.10 194.67 139.26 C 193.18 137.11 190.64 135.91 188.43 134.60 C 186.13 133.16 183.48 134.68 181.11 135.15 C 177.28 136.40 173.02 135.50 169.37 137.45 C 166.01 139.08 162.24 139.41 158.56 139.34 C 159.55 138.05 160.30 136.60 161.11 135.20 C 162.39 132.76 163.64 130.28 164.39 127.61 L 164.59 127.71 C 166.79 126.08 169.07 124.57 171.46 123.22 C 174.52 122.31 177.57 121.37 180.55 120.22 C 185.66 119.24 190.95 119.33 195.97 118.01 C 195.82 111.09 198.53 104.08 195.85 97.29 C 194.60 96.12 193.36 94.94 192.11 93.76 L 192.05 93.20 C 185.03 85.96 176.89 79.90 168.44 74.44 C 163.52 71.02 157.63 69.39 151.83 68.18 C 149.79 67.69 147.68 67.95 145.76 68.74 Z" />
</g>
<g id="#d9d6bdff">
<path fill="#d9d6bd" opacity="1.00" d=" M 146.30 62.29 C 146.83 62.79 146.83 62.79 146.30 62.29 Z" />
<path fill="#d9d6bd" opacity="1.00" d=" M 152.32 62.24 C 152.81 62.77 152.81 62.77 152.32 62.24 Z" />
<path fill="#d9d6bd" opacity="1.00" d=" M 145.76 68.74 C 147.68 67.95 149.79 67.69 151.83 68.18 C 157.63 69.39 163.52 71.02 168.44 74.44 C 176.89 79.90 185.03 85.96 192.05 93.20 L 192.11 93.76 C 192.24 94.92 192.38 96.07 192.51 97.23 C 178.87 103.91 164.15 110.58 155.16 123.42 C 154.70 123.21 153.76 122.79 153.30 122.58 C 155.13 119.89 157.32 117.48 159.75 115.32 C 162.58 112.67 165.69 110.35 168.87 108.13 C 175.00 104.41 180.93 100.30 187.49 97.32 C 188.46 96.94 189.37 96.44 190.21 95.82 C 189.88 95.01 189.38 94.31 188.71 93.72 C 185.87 90.66 182.76 87.85 179.43 85.33 C 171.46 78.04 162.04 72.15 151.62 69.13 C 149.71 68.60 147.71 68.65 145.76 68.74 Z" />
<path fill="#d9d6bd" opacity="1.00" d=" M 136.55 75.69 C 139.77 74.43 142.94 72.97 145.64 70.77 C 145.20 71.89 144.77 73.02 144.34 74.15 C 146.51 75.75 148.54 77.93 151.34 78.31 C 153.46 78.48 155.01 76.70 156.61 75.60 C 161.44 78.19 166.31 80.80 170.57 84.30 C 172.91 86.59 176.60 86.81 179.43 85.33 C 179.37 88.91 184.37 90.95 182.96 94.91 C 181.88 97.78 178.34 96.96 176.02 96.52 C 166.08 102.09 156.66 109.05 149.44 117.92 C 149.12 118.36 148.48 119.25 148.16 119.70 C 135.44 112.14 122.77 104.48 110.84 95.71 C 117.77 87.24 126.37 79.91 136.55 75.69 M 134.39 79.30 C 133.90 81.15 138.25 81.99 138.72 80.32 C 137.76 79.16 135.74 78.52 134.39 79.30 M 128.92 82.51 C 127.67 83.93 130.95 86.24 131.59 84.42 C 131.17 83.44 130.09 82.19 128.92 82.51 M 125.67 83.45 C 126.43 84.48 126.81 85.60 126.80 86.80 C 125.80 86.77 124.86 86.49 123.99 85.94 C 123.00 86.62 122.02 87.31 121.05 88.00 C 121.98 88.87 122.92 89.75 123.86 90.63 C 125.61 89.21 127.44 87.89 129.24 86.54 C 128.64 84.92 127.11 84.17 125.67 83.45 M 141.25 88.33 C 140.57 89.06 139.88 89.78 139.19 90.50 C 139.33 91.79 139.48 93.07 139.64 94.36 C 141.65 94.53 143.67 94.66 145.69 94.75 C 144.17 94.11 142.59 93.62 141.14 92.84 C 139.79 91.99 140.77 90.41 141.05 89.30 C 141.85 92.05 144.41 93.21 146.66 94.52 C 146.84 94.47 147.18 94.36 147.36 94.31 C 149.32 93.53 151.55 92.68 152.71 90.79 C 152.77 89.59 152.12 88.50 151.80 87.38 C 148.26 87.08 144.47 86.36 141.25 88.33 M 171.73 89.04 C 171.55 92.31 174.49 94.50 177.05 95.95 C 178.40 95.97 179.75 96.00 181.10 96.03 C 182.07 93.67 182.25 90.70 180.04 88.96 C 178.05 86.49 173.07 85.42 171.73 89.04 M 118.36 91.17 C 117.86 92.40 119.70 94.07 120.91 93.62 C 121.65 92.27 119.65 90.55 118.36 91.17 Z" />
<path fill="#d9d6bd" opacity="1.00" d=" M 148.26 73.16 C 149.79 72.61 153.05 73.61 152.99 75.44 C 151.39 75.74 148.78 74.71 148.26 73.16 Z" />
<path fill="#d9d6bd" opacity="1.00" d=" M 86.71 75.89 C 90.40 76.66 93.99 77.99 97.79 78.09 C 99.20 79.44 100.57 80.82 101.96 82.19 C 103.28 86.90 103.00 91.88 104.26 96.62 C 103.95 97.73 103.72 98.86 103.48 99.98 C 103.04 102.66 101.81 105.09 100.34 107.33 C 95.87 114.39 91.22 121.36 87.72 128.97 C 87.35 128.67 86.60 128.08 86.23 127.79 L 85.91 127.53 C 88.42 122.43 91.81 117.81 94.20 112.65 C 91.91 115.43 89.55 118.18 86.40 120.03 C 85.61 119.30 84.80 118.59 83.96 117.91 C 82.18 119.13 81.60 121.57 79.71 122.73 C 76.73 124.77 73.61 126.92 69.92 127.33 C 69.02 124.93 68.89 122.36 68.88 119.82 C 66.19 120.12 63.34 121.57 60.77 120.06 C 60.99 117.02 61.60 114.04 62.19 111.05 C 59.53 110.63 55.96 112.11 54.03 109.71 C 53.87 106.40 56.57 103.77 57.17 100.57 C 54.26 99.46 51.62 97.78 49.32 95.69 C 52.82 94.41 55.36 98.22 58.29 99.49 C 63.88 95.67 70.27 93.30 76.15 89.98 C 76.17 88.36 76.21 86.75 76.25 85.14 C 71.12 85.44 65.98 85.15 60.85 85.38 C 58.10 85.31 56.07 88.65 53.25 87.24 C 53.99 86.78 55.46 85.87 56.19 85.42 C 55.33 84.22 54.47 83.03 53.60 81.85 C 56.03 82.82 58.63 83.65 61.27 83.18 C 66.37 82.49 71.51 82.63 76.63 82.89 C 75.57 81.18 74.52 79.47 73.49 77.75 C 77.74 75.72 82.13 78.28 86.41 78.88 C 86.48 78.14 86.64 76.64 86.71 75.89 M 76.91 79.26 C 77.68 80.69 78.76 82.30 80.58 82.30 C 82.07 81.94 83.47 81.31 84.88 80.75 C 82.33 79.77 79.65 79.23 76.91 79.26 M 78.51 86.44 C 77.78 87.90 79.43 89.14 80.81 88.61 C 83.49 87.49 85.96 85.93 88.56 84.65 C 88.59 84.03 88.64 82.81 88.66 82.20 C 85.09 83.03 81.35 83.97 78.51 86.44 M 81.88 91.66 C 86.11 92.55 90.15 89.75 92.05 86.11 C 88.31 87.01 84.15 88.34 81.88 91.66 M 85.28 96.83 C 85.98 97.10 86.68 97.37 87.38 97.65 C 89.31 94.56 92.21 92.22 94.05 89.08 C 90.28 90.49 87.04 93.17 85.28 96.83 M 61.63 99.71 C 58.92 102.06 55.93 105.56 56.58 109.41 C 58.50 109.42 60.56 109.99 62.41 109.34 C 69.16 103.84 76.31 98.78 83.79 94.32 C 82.53 94.21 81.26 94.11 80.00 94.01 C 79.84 93.29 79.52 91.84 79.36 91.11 C 73.12 93.25 67.56 96.90 61.63 99.71 M 89.16 99.03 C 93.14 98.71 95.51 95.44 97.01 92.10 C 93.07 92.25 90.97 96.05 89.16 99.03 M 89.20 105.06 C 87.29 108.92 83.55 113.41 86.32 117.78 C 90.31 114.95 93.31 110.98 96.01 106.97 C 97.72 102.58 97.90 97.77 98.84 93.18 C 96.84 98.17 91.21 100.15 89.20 105.06 M 82.44 97.61 C 79.03 99.76 75.71 102.07 72.42 104.41 C 69.56 106.45 65.95 107.96 64.54 111.45 C 63.14 113.67 63.25 116.32 63.28 118.84 C 66.93 118.94 69.95 116.83 72.05 114.00 C 76.23 108.87 80.80 104.09 85.66 99.61 C 84.59 98.94 83.52 98.28 82.44 97.61 M 84.90 103.89 C 81.72 107.03 78.64 110.27 75.46 113.41 C 74.01 114.97 72.26 116.43 71.58 118.53 C 71.11 120.68 71.33 122.91 71.32 125.10 C 74.98 124.01 78.43 121.97 80.82 118.96 C 82.60 116.90 82.66 114.07 83.51 111.61 C 84.73 108.12 86.83 105.05 88.67 101.88 C 87.32 102.35 85.88 102.78 84.90 103.89 Z" />
<path fill="#d9d6bd" opacity="1.00" d=" M 174.87 88.70 C 176.87 89.67 178.67 90.98 180.39 92.40 C 178.57 95.69 174.66 91.15 174.87 88.70 Z" />
<path fill="#d9d6bd" opacity="1.00" d=" M 181.11 135.15 C 183.48 134.68 186.13 133.16 188.43 134.60 C 190.64 135.91 193.18 137.11 194.67 139.26 C 200.33 154.10 204.04 169.63 206.65 185.29 C 207.46 188.20 206.21 191.08 205.82 193.95 C 205.46 193.75 204.73 193.34 204.36 193.14 C 203.01 195.91 202.17 199.90 199.06 201.07 C 194.59 199.47 190.47 196.30 188.42 191.94 C 185.48 195.29 183.30 200.92 178.25 201.12 C 176.27 198.20 174.38 195.21 172.82 192.05 C 170.66 193.48 168.43 194.82 166.16 196.06 C 163.88 193.85 162.66 190.92 162.72 187.75 C 160.20 188.58 157.79 189.79 155.16 190.29 C 154.11 187.83 154.14 185.12 153.45 182.59 C 151.26 180.72 147.61 184.99 146.11 181.68 C 145.15 175.59 146.44 169.36 149.91 164.25 C 148.39 163.96 146.77 163.76 145.59 162.65 C 145.45 161.14 145.44 159.62 145.61 158.12 C 145.98 161.06 148.45 162.05 150.99 162.67 C 154.07 160.17 157.23 157.77 160.33 155.30 C 163.59 153.26 162.17 148.47 165.08 146.10 C 168.26 141.98 173.97 141.19 177.09 137.06 C 165.76 139.70 154.79 145.80 147.66 155.13 C 147.27 151.51 146.07 147.79 147.39 144.22 C 148.86 145.25 150.52 146.35 152.41 146.21 C 155.40 145.04 157.98 143.04 160.73 141.41 C 159.62 141.05 158.51 140.70 157.40 140.37 C 157.69 140.11 158.27 139.60 158.56 139.34 C 162.24 139.41 166.01 139.08 169.37 137.45 C 173.02 135.50 177.28 136.40 181.11 135.15 M 184.22 142.94 C 184.67 143.80 185.12 144.67 185.57 145.53 C 186.03 145.57 186.95 145.64 187.41 145.68 C 187.73 143.10 188.13 140.53 188.55 137.97 C 186.61 139.15 185.21 140.92 184.22 142.94 M 191.35 139.29 C 190.35 141.19 188.57 143.28 189.65 145.55 C 190.24 147.44 192.07 149.99 194.14 148.09 C 195.37 145.43 193.56 142.44 193.10 139.74 C 192.66 139.63 191.79 139.40 191.35 139.29 M 173.05 146.03 C 171.09 148.74 167.89 152.18 170.41 155.56 C 170.90 155.59 171.89 155.64 172.38 155.67 C 173.00 151.58 174.54 147.73 176.63 144.19 C 175.28 144.43 173.82 144.74 173.05 146.03 M 175.29 152.95 C 174.93 155.20 176.37 157.08 177.40 158.93 C 177.56 154.11 180.26 150.03 181.78 145.60 C 181.20 145.28 180.04 144.64 179.46 144.32 C 177.89 147.09 175.91 149.77 175.29 152.95 M 183.54 147.32 C 181.72 151.53 178.90 156.17 181.34 160.74 C 182.77 160.55 184.56 160.99 185.55 159.63 C 188.51 156.47 187.47 151.73 188.27 147.81 C 186.69 147.65 185.11 147.49 183.54 147.32 M 196.54 149.61 C 194.55 150.17 192.50 150.44 190.44 150.50 C 189.80 153.39 188.78 156.47 189.61 159.42 C 190.90 161.50 193.15 162.67 195.14 163.99 C 196.02 163.02 197.11 162.16 197.63 160.91 C 199.48 157.23 196.92 153.35 196.54 149.61 M 157.34 160.29 C 154.31 162.81 150.68 165.20 149.41 169.14 C 148.44 172.28 147.60 175.51 147.40 178.81 C 147.23 181.42 150.48 180.53 152.11 180.42 C 153.95 172.77 157.42 165.46 162.65 159.55 C 164.24 157.81 165.73 155.96 166.82 153.85 C 163.09 155.05 160.39 158.00 157.34 160.29 M 168.22 156.36 C 162.62 161.99 158.18 168.73 155.49 176.20 C 154.97 180.11 154.97 184.21 156.37 187.95 C 158.14 187.24 161.08 187.16 161.49 184.86 C 162.24 174.67 168.76 166.32 173.01 157.37 C 172.49 157.59 171.44 158.04 170.92 158.26 C 170.01 157.62 169.11 156.99 168.22 156.36 M 165.55 176.52 C 163.85 179.75 164.23 183.54 164.28 187.06 C 164.47 189.30 164.76 191.92 166.47 193.55 C 168.43 193.29 169.96 191.58 171.36 190.29 C 171.56 179.98 175.70 170.35 178.64 160.61 C 177.25 160.25 175.86 159.90 174.47 159.54 C 171.10 164.98 168.44 170.82 165.55 176.52 M 187.30 160.26 C 187.38 169.14 186.85 178.04 187.49 186.89 C 189.49 192.17 193.73 196.84 198.93 199.17 C 202.51 194.95 204.30 189.21 204.22 183.72 C 203.18 176.14 201.47 168.65 199.61 161.24 C 198.45 163.13 197.98 166.71 195.05 166.31 C 192.04 164.91 189.64 162.55 187.30 160.26 M 179.75 163.77 C 178.01 171.65 174.46 179.06 173.47 187.10 C 174.02 191.68 176.34 196.09 179.95 199.02 C 182.60 196.75 184.89 194.08 186.65 191.06 C 185.67 188.46 184.70 185.79 184.71 182.97 C 184.57 176.13 184.73 169.28 184.82 162.44 C 183.13 162.89 181.43 163.33 179.75 163.77 Z" />
<path fill="#d9d6bd" opacity="1.00" d=" M 70.98 150.03 C 77.24 146.78 82.65 142.19 88.12 137.80 C 99.58 146.52 111.52 154.68 123.72 162.35 C 117.70 170.76 108.02 175.11 99.43 180.32 C 98.83 181.43 98.30 182.59 97.55 183.62 C 92.62 186.83 83.56 182.67 85.66 176.09 C 85.00 175.60 84.34 175.12 83.68 174.63 C 81.53 172.85 79.44 170.99 77.28 169.21 C 77.07 169.03 76.86 168.85 76.66 168.68 C 75.16 167.37 73.64 166.09 72.11 164.83 C 71.40 164.15 70.70 163.47 70.01 162.78 C 68.25 162.73 66.49 162.69 64.73 162.65 C 66.81 162.25 68.88 161.87 70.96 161.51 C 72.18 156.12 64.98 150.98 60.42 154.43 C 59.93 156.03 60.41 157.72 60.46 159.35 C 59.84 157.55 58.74 155.60 59.67 153.70 C 61.45 152.08 63.94 152.99 66.05 153.04 C 66.14 152.38 66.32 151.08 66.41 150.42 C 67.93 150.45 69.58 150.88 70.98 150.03 M 75.02 151.22 C 76.77 151.98 78.55 152.68 80.36 153.31 C 79.65 152.26 77.87 151.65 78.12 150.15 C 79.49 149.64 80.69 150.56 81.92 151.02 C 83.24 149.79 84.54 148.54 85.85 147.29 C 85.52 146.82 84.87 145.87 84.54 145.40 C 80.71 145.69 78.13 149.29 75.02 151.22 M 91.37 151.44 C 87.86 152.17 83.62 156.08 86.10 159.80 C 90.19 164.51 100.03 162.36 101.08 155.99 C 100.70 151.57 94.97 150.16 91.37 151.44 M 87.95 175.72 C 84.76 177.81 86.86 182.17 89.82 183.22 C 92.47 184.73 97.29 184.44 98.08 180.94 C 98.02 176.06 91.92 173.99 87.95 175.72 Z" />
<path fill="#d9d6bd" opacity="1.00" d=" M 89.88 155.04 C 92.01 153.68 94.44 153.61 96.85 154.14 C 96.77 155.71 96.68 157.27 96.57 158.84 C 93.95 158.39 91.89 156.66 89.88 155.04 Z" />
<path fill="#d9d6bd" opacity="1.00" d=" M 63.80 155.24 C 65.58 156.46 67.31 157.74 69.01 159.07 C 66.63 161.99 64.96 157.70 62.45 157.24 C 62.90 156.57 63.35 155.90 63.80 155.24 Z" />
<path fill="#d9d6bd" opacity="1.00" d=" M 87.26 156.46 C 88.60 156.72 88.81 157.44 87.89 158.62 C 86.55 158.36 86.34 157.64 87.26 156.46 Z" />
<path fill="#d9d6bd" opacity="1.00" d=" M 89.08 157.27 C 90.45 156.60 92.86 158.20 92.64 159.71 C 91.23 160.51 88.43 159.02 89.08 157.27 Z" />
<path fill="#d9d6bd" opacity="1.00" d=" M 52.72 160.26 C 60.04 162.38 66.12 167.38 71.79 172.29 C 78.57 178.14 84.75 184.62 91.12 190.91 C 105.02 184.95 118.30 177.24 129.21 166.65 L 130.57 167.28 C 123.36 175.16 114.34 181.16 104.97 186.16 C 100.19 188.67 95.45 191.37 90.22 192.86 C 86.36 188.38 82.07 184.29 77.85 180.15 C 69.97 172.94 62.27 165.27 52.72 160.26 Z" />
<path fill="#d9d6bd" opacity="1.00" d=" M 88.37 179.39 C 89.28 178.60 90.20 177.82 91.11 177.04 C 92.58 178.31 94.01 179.62 95.39 180.98 C 93.20 183.04 91.55 180.82 89.99 179.24 C 89.59 179.28 88.77 179.35 88.37 179.39 Z" />
</g>
<g id="#ebe6d2ff">
<path fill="#ebe6d2" opacity="1.00" d=" M 48.93 73.05 C 54.74 68.01 64.10 67.50 70.79 71.17 C 75.75 73.75 81.34 74.56 86.71 75.89 C 86.64 76.64 86.48 78.14 86.41 78.88 C 82.13 78.28 77.74 75.72 73.49 77.75 C 74.52 79.47 75.57 81.18 76.63 82.89 C 71.51 82.63 66.37 82.49 61.27 83.18 C 58.63 83.65 56.03 82.82 53.60 81.85 C 50.61 80.07 50.25 76.02 48.93 73.05 Z" />
<path fill="#ebe6d2" opacity="1.00" d=" M 76.91 79.26 C 79.65 79.23 82.33 79.77 84.88 80.75 C 83.47 81.31 82.07 81.94 80.58 82.30 C 78.76 82.30 77.68 80.69 76.91 79.26 Z" />
<path fill="#ebe6d2" opacity="1.00" d=" M 78.51 86.44 C 81.35 83.97 85.09 83.03 88.66 82.20 C 88.64 82.81 88.59 84.03 88.56 84.65 C 85.96 85.93 83.49 87.49 80.81 88.61 C 79.43 89.14 77.78 87.90 78.51 86.44 Z" />
<path fill="#ebe6d2" opacity="1.00" d=" M 53.25 87.24 C 56.07 88.65 58.10 85.31 60.85 85.38 C 65.98 85.15 71.12 85.44 76.25 85.14 C 76.21 86.75 76.17 88.36 76.15 89.98 C 70.27 93.30 63.88 95.67 58.29 99.49 C 55.36 98.22 52.82 94.41 49.32 95.69 L 48.84 95.80 C 48.89 94.27 48.94 92.75 48.98 91.23 C 50.32 89.87 51.66 88.51 53.04 87.19 L 53.25 87.24 Z" />
<path fill="#ebe6d2" opacity="1.00" d=" M 81.88 91.66 C 84.15 88.34 88.31 87.01 92.05 86.11 C 90.15 89.75 86.11 92.55 81.88 91.66 Z" />
<path fill="#ebe6d2" opacity="1.00" d=" M 85.28 96.83 C 87.04 93.17 90.28 90.49 94.05 89.08 C 92.21 92.22 89.31 94.56 87.38 97.65 C 86.68 97.37 85.98 97.10 85.28 96.83 Z" />
<path fill="#ebe6d2" opacity="1.00" d=" M 61.63 99.71 C 67.56 96.90 73.12 93.25 79.36 91.11 C 79.52 91.84 79.84 93.29 80.00 94.01 C 81.26 94.11 82.53 94.21 83.79 94.32 C 76.31 98.78 69.16 103.84 62.41 109.34 C 60.56 109.99 58.50 109.42 56.58 109.41 C 55.93 105.56 58.92 102.06 61.63 99.71 Z" />
<path fill="#ebe6d2" opacity="1.00" d=" M 89.16 99.03 C 90.97 96.05 93.07 92.25 97.01 92.10 C 95.51 95.44 93.14 98.71 89.16 99.03 Z" />
<path fill="#ebe6d2" opacity="1.00" d=" M 89.20 105.06 C 91.21 100.15 96.84 98.17 98.84 93.18 C 97.90 97.77 97.72 102.58 96.01 106.97 C 93.31 110.98 90.31 114.95 86.32 117.78 C 83.55 113.41 87.29 108.92 89.20 105.06 Z" />
<path fill="#ebe6d2" opacity="1.00" d=" M 82.44 97.61 C 83.52 98.28 84.59 98.94 85.66 99.61 C 80.80 104.09 76.23 108.87 72.05 114.00 C 69.95 116.83 66.93 118.94 63.28 118.84 C 63.25 116.32 63.14 113.67 64.54 111.45 C 65.95 107.96 69.56 106.45 72.42 104.41 C 75.71 102.07 79.03 99.76 82.44 97.61 Z" />
<path fill="#ebe6d2" opacity="1.00" d=" M 103.48 99.98 C 108.10 102.39 112.18 105.66 116.58 108.43 C 128.04 116.13 140.01 123.06 151.91 130.05 C 145.76 140.13 140.55 150.74 134.99 161.15 C 118.80 151.09 102.82 140.61 87.72 128.97 C 91.22 121.36 95.87 114.39 100.34 107.33 C 101.81 105.09 103.04 102.66 103.48 99.98 M 103.92 116.35 C 103.43 116.20 102.46 115.92 101.98 115.78 C 101.16 116.84 100.35 117.91 99.54 118.99 C 99.89 119.37 100.59 120.13 100.94 120.51 C 99.83 123.56 98.04 126.57 98.54 129.96 C 98.58 134.20 103.01 137.47 107.08 136.61 C 110.83 136.04 113.61 133.21 116.52 131.02 C 118.61 133.10 122.19 134.06 123.51 136.64 C 121.53 137.84 119.17 137.85 116.92 137.82 C 115.46 140.15 114.12 142.55 112.89 145.01 C 118.75 147.08 124.58 143.79 128.14 139.21 C 129.21 139.94 130.28 140.67 131.35 141.40 C 132.21 140.12 133.07 138.85 133.92 137.57 C 132.84 136.81 131.77 136.04 130.70 135.27 C 132.23 132.06 133.68 128.60 133.42 124.96 C 133.20 120.78 129.27 116.87 124.94 117.55 C 120.78 118.26 117.76 121.56 114.73 124.23 C 112.40 122.68 110.09 121.10 107.83 119.45 C 109.29 118.24 111.18 118.06 113.00 117.91 C 114.34 115.65 115.69 113.39 117.00 111.11 C 111.81 109.40 107.35 112.94 103.92 116.35 Z" />
<path fill="#ebe6d2" opacity="1.00" d=" M 84.90 103.89 C 85.88 102.78 87.32 102.35 88.67 101.88 C 86.83 105.05 84.73 108.12 83.51 111.61 C 82.66 114.07 82.60 116.90 80.82 118.96 C 78.43 121.97 74.98 124.01 71.32 125.10 C 71.33 122.91 71.11 120.68 71.58 118.53 C 72.26 116.43 74.01 114.97 75.46 113.41 C 78.64 110.27 81.72 107.03 84.90 103.89 Z" />
<path fill="#ebe6d2" opacity="1.00" d=" M 104.64 123.18 C 107.06 124.42 109.36 125.93 111.27 127.88 C 109.65 128.35 107.82 129.92 106.13 128.90 C 103.89 127.92 104.82 125.04 104.64 123.18 Z" />
<path fill="#ebe6d2" opacity="1.00" d=" M 119.75 127.81 C 121.37 126.16 123.85 124.17 126.22 125.67 C 128.48 127.37 127.40 130.40 127.04 132.70 C 124.54 131.17 122.13 129.51 119.75 127.81 Z" />
<path fill="#ebe6d2" opacity="1.00" d=" M 147.66 155.13 C 154.79 145.80 165.76 139.70 177.09 137.06 C 173.97 141.19 168.26 141.98 165.08 146.10 C 162.17 148.47 163.59 153.26 160.33 155.30 C 157.23 157.77 154.07 160.17 150.99 162.67 C 148.45 162.05 145.98 161.06 145.61 158.12 C 146.28 157.12 146.96 156.12 147.66 155.13 Z" />
<path fill="#ebe6d2" opacity="1.00" d=" M 184.22 142.94 C 185.21 140.92 186.61 139.15 188.55 137.97 C 188.13 140.53 187.73 143.10 187.41 145.68 C 186.95 145.64 186.03 145.57 185.57 145.53 C 185.12 144.67 184.67 143.80 184.22 142.94 Z" />
<path fill="#ebe6d2" opacity="1.00" d=" M 151.59 139.71 C 153.52 139.05 155.53 139.89 157.40 140.37 C 158.51 140.70 159.62 141.05 160.73 141.41 C 157.98 143.04 155.40 145.04 152.41 146.21 C 150.52 146.35 148.86 145.25 147.39 144.22 C 148.41 142.43 149.71 140.65 151.59 139.71 Z" />
<path fill="#ebe6d2" opacity="1.00" d=" M 191.35 139.29 C 191.79 139.40 192.66 139.63 193.10 139.74 C 193.56 142.44 195.37 145.43 194.14 148.09 C 192.07 149.99 190.24 147.44 189.65 145.55 C 188.57 143.28 190.35 141.19 191.35 139.29 Z" />
<path fill="#ebe6d2" opacity="1.00" d=" M 173.05 146.03 C 173.82 144.74 175.28 144.43 176.63 144.19 C 174.54 147.73 173.00 151.58 172.38 155.67 C 171.89 155.64 170.90 155.59 170.41 155.56 C 167.89 152.18 171.09 148.74 173.05 146.03 Z" />
<path fill="#ebe6d2" opacity="1.00" d=" M 175.29 152.95 C 175.91 149.77 177.89 147.09 179.46 144.32 C 180.04 144.64 181.20 145.28 181.78 145.60 C 180.26 150.03 177.56 154.11 177.40 158.93 C 176.37 157.08 174.93 155.20 175.29 152.95 Z" />
<path fill="#ebe6d2" opacity="1.00" d=" M 183.54 147.32 C 185.11 147.49 186.69 147.65 188.27 147.81 C 187.47 151.73 188.51 156.47 185.55 159.63 C 184.56 160.99 182.77 160.55 181.34 160.74 C 178.90 156.17 181.72 151.53 183.54 147.32 Z" />
<path fill="#ebe6d2" opacity="1.00" d=" M 196.54 149.61 C 196.92 153.35 199.48 157.23 197.63 160.91 C 197.11 162.16 196.02 163.02 195.14 163.99 C 193.15 162.67 190.90 161.50 189.61 159.42 C 188.78 156.47 189.80 153.39 190.44 150.50 C 192.50 150.44 194.55 150.17 196.54 149.61 Z" />
<path fill="#ebe6d2" opacity="1.00" d=" M 157.34 160.29 C 160.39 158.00 163.09 155.05 166.82 153.85 C 165.73 155.96 164.24 157.81 162.65 159.55 C 157.42 165.46 153.95 172.77 152.11 180.42 C 150.48 180.53 147.23 181.42 147.40 178.81 C 147.60 175.51 148.44 172.28 149.41 169.14 C 150.68 165.20 154.31 162.81 157.34 160.29 Z" />
<path fill="#ebe6d2" opacity="1.00" d=" M 168.22 156.36 C 169.11 156.99 170.01 157.62 170.92 158.26 C 171.44 158.04 172.49 157.59 173.01 157.37 C 168.76 166.32 162.24 174.67 161.49 184.86 C 161.08 187.16 158.14 187.24 156.37 187.95 C 154.97 184.21 154.97 180.11 155.49 176.20 C 158.18 168.73 162.62 161.99 168.22 156.36 Z" />
<path fill="#ebe6d2" opacity="1.00" d=" M 165.55 176.52 C 168.44 170.82 171.10 164.98 174.47 159.54 C 175.86 159.90 177.25 160.25 178.64 160.61 C 175.70 170.35 171.56 179.98 171.36 190.29 C 169.96 191.58 168.43 193.29 166.47 193.55 C 164.76 191.92 164.47 189.30 164.28 187.06 C 164.23 183.54 163.85 179.75 165.55 176.52 Z" />
<path fill="#ebe6d2" opacity="1.00" d=" M 187.30 160.26 C 189.64 162.55 192.04 164.91 195.05 166.31 C 197.98 166.71 198.45 163.13 199.61 161.24 C 201.47 168.65 203.18 176.14 204.22 183.72 C 204.30 189.21 202.51 194.95 198.93 199.17 C 193.73 196.84 189.49 192.17 187.49 186.89 C 186.85 178.04 187.38 169.14 187.30 160.26 Z" />
<path fill="#ebe6d2" opacity="1.00" d=" M 179.75 163.77 C 181.43 163.33 183.13 162.89 184.82 162.44 C 184.73 169.28 184.57 176.13 184.71 182.97 C 184.70 185.79 185.67 188.46 186.65 191.06 C 184.89 194.08 182.60 196.75 179.95 199.02 C 176.34 196.09 174.02 191.68 173.47 187.10 C 174.46 179.06 178.01 171.65 179.75 163.77 Z" />
</g>
<g id="#918f82ff">
<path fill="#918f82" opacity="1.00" d=" M 123.36 79.33 C 130.50 75.17 137.66 70.78 145.76 68.74 C 147.71 68.65 149.71 68.60 151.62 69.13 C 162.04 72.15 171.46 78.04 179.43 85.33 C 176.60 86.81 172.91 86.59 170.57 84.30 C 166.31 80.80 161.44 78.19 156.61 75.60 C 155.01 76.70 153.46 78.48 151.34 78.31 C 148.54 77.93 146.51 75.75 144.34 74.15 C 144.77 73.02 145.20 71.89 145.64 70.77 C 142.94 72.97 139.77 74.43 136.55 75.69 C 126.37 79.91 117.77 87.24 110.84 95.71 C 110.43 94.67 110.05 93.62 109.67 92.57 C 108.42 93.05 107.18 93.52 105.96 94.03 C 110.92 88.22 116.89 83.38 123.36 79.33 M 148.26 73.16 C 148.78 74.71 151.39 75.74 152.99 75.44 C 153.05 73.61 149.79 72.61 148.26 73.16 Z" />
<path fill="#918f82" opacity="1.00" d=" M 134.39 79.30 C 135.74 78.52 137.76 79.16 138.72 80.32 C 138.25 81.99 133.90 81.15 134.39 79.30 Z" />
<path fill="#918f82" opacity="1.00" d=" M 128.92 82.51 C 130.09 82.19 131.17 83.44 131.59 84.42 C 130.95 86.24 127.67 83.93 128.92 82.51 Z" />
<path fill="#918f82" opacity="1.00" d=" M 125.67 83.45 C 127.11 84.17 128.64 84.92 129.24 86.54 C 127.44 87.89 125.61 89.21 123.86 90.63 C 122.92 89.75 121.98 88.87 121.05 88.00 C 122.02 87.31 123.00 86.62 123.99 85.94 C 124.86 86.49 125.80 86.77 126.80 86.80 C 126.81 85.60 126.43 84.48 125.67 83.45 Z" />
<path fill="#918f82" opacity="1.00" d=" M 179.43 85.33 C 182.76 87.85 185.87 90.66 188.71 93.72 C 188.02 94.83 187.62 96.03 187.49 97.32 C 180.93 100.30 175.00 104.41 168.87 108.13 C 164.79 108.92 161.96 112.07 159.03 114.72 L 159.75 115.32 C 157.32 117.48 155.13 119.89 153.30 122.58 C 151.99 121.81 150.75 120.94 149.54 120.03 C 149.52 119.50 149.47 118.45 149.44 117.92 C 156.66 109.05 166.08 102.09 176.02 96.52 C 178.34 96.96 181.88 97.78 182.96 94.91 C 184.37 90.95 179.37 88.91 179.43 85.33 Z" />
<path fill="#918f82" opacity="1.00" d=" M 141.25 88.33 C 144.47 86.36 148.26 87.08 151.80 87.38 C 152.12 88.50 152.77 89.59 152.71 90.79 C 151.55 92.68 149.32 93.53 147.36 94.31 C 145.79 92.53 147.31 91.52 148.96 90.70 C 146.83 88.07 142.44 91.94 141.25 88.33 Z" />
<path fill="#918f82" opacity="1.00" d=" M 171.73 89.04 C 173.07 85.42 178.05 86.49 180.04 88.96 C 182.25 90.70 182.07 93.67 181.10 96.03 C 179.75 96.00 178.40 95.97 177.05 95.95 C 174.49 94.50 171.55 92.31 171.73 89.04 M 174.87 88.70 C 174.66 91.15 178.57 95.69 180.39 92.40 C 178.67 90.98 176.87 89.67 174.87 88.70 Z" />
<path fill="#918f82" opacity="1.00" d=" M 118.36 91.17 C 119.65 90.55 121.65 92.27 120.91 93.62 C 119.70 94.07 117.86 92.40 118.36 91.17 Z" />
<path fill="#918f82" opacity="1.00" d=" M 192.11 93.76 C 193.36 94.94 194.60 96.12 195.85 97.29 C 198.53 104.08 195.82 111.09 195.97 118.01 C 190.95 119.33 185.66 119.24 180.55 120.22 C 177.57 121.37 174.52 122.31 171.46 123.22 C 169.07 124.57 166.79 126.08 164.59 127.71 L 164.39 127.61 C 161.36 126.12 158.29 124.71 155.16 123.42 C 164.15 110.58 178.87 103.91 192.51 97.23 C 192.38 96.07 192.24 94.92 192.11 93.76 Z" />
<path fill="#918f82" opacity="1.00" d=" M 151.91 130.05 L 152.25 130.25 C 155.13 132.02 158.10 133.65 161.11 135.20 C 160.30 136.60 159.55 138.05 158.56 139.34 C 158.27 139.60 157.69 140.11 157.40 140.37 C 155.53 139.89 153.52 139.05 151.59 139.71 C 149.71 140.65 148.41 142.43 147.39 144.22 C 146.07 147.79 147.27 151.51 147.66 155.13 C 146.96 156.12 146.28 157.12 145.61 158.12 C 145.44 159.62 145.45 161.14 145.59 162.65 C 144.91 163.67 144.22 164.71 143.79 165.87 L 143.49 165.70 C 140.69 164.12 137.80 162.70 134.89 161.36 L 134.99 161.15 C 140.55 150.74 145.76 140.13 151.91 130.05 Z" />
<path fill="#918f82" opacity="1.00" d=" M 83.30 133.82 C 84.93 135.12 86.54 136.44 88.12 137.80 C 82.65 142.19 77.24 146.78 70.98 150.03 C 69.58 150.88 67.93 150.45 66.41 150.42 C 66.32 151.08 66.14 152.38 66.05 153.04 C 63.94 152.99 61.45 152.08 59.67 153.70 C 58.74 155.60 59.84 157.55 60.46 159.35 C 60.41 157.72 59.93 156.03 60.42 154.43 C 64.98 150.98 72.18 156.12 70.96 161.51 C 68.88 161.87 66.81 162.25 64.73 162.65 C 66.49 162.69 68.25 162.73 70.01 162.78 C 70.70 163.47 71.40 164.15 72.11 164.83 L 70.63 165.11 C 72.35 166.73 74.06 168.77 76.66 168.68 C 76.86 168.85 77.07 169.03 77.28 169.21 C 77.82 172.16 80.56 174.85 83.68 174.63 C 84.34 175.12 85.00 175.60 85.66 176.09 C 83.56 182.67 92.62 186.83 97.55 183.62 C 98.30 182.59 98.83 181.43 99.43 180.32 C 108.02 175.11 117.70 170.76 123.72 162.35 C 124.43 162.78 125.15 163.22 125.86 163.67 C 126.94 164.69 128.02 165.74 129.21 166.65 C 118.30 177.24 105.02 184.95 91.12 190.91 C 84.75 184.62 78.57 178.14 71.79 172.29 C 66.12 167.38 60.04 162.38 52.72 160.26 C 51.38 159.80 50.03 159.32 48.71 158.82 C 49.74 158.03 50.99 157.61 52.22 157.25 C 51.77 157.06 50.88 156.69 50.43 156.51 C 52.50 154.69 55.22 153.99 57.64 152.77 C 65.92 148.70 73.86 143.86 80.93 137.92 C 82.22 136.90 83.11 135.47 83.30 133.82 M 63.80 155.24 C 63.35 155.90 62.90 156.57 62.45 157.24 C 64.96 157.70 66.63 161.99 69.01 159.07 C 67.31 157.74 65.58 156.46 63.80 155.24 Z" />
<path fill="#918f82" opacity="1.00" d=" M 75.02 151.22 C 78.13 149.29 80.71 145.69 84.54 145.40 C 84.87 145.87 85.52 146.82 85.85 147.29 C 84.54 148.54 83.24 149.79 81.92 151.02 C 80.69 150.56 79.49 149.64 78.12 150.15 C 77.87 151.65 79.65 152.26 80.36 153.31 C 78.55 152.68 76.77 151.98 75.02 151.22 Z" />
<path fill="#918f82" opacity="1.00" d=" M 91.37 151.44 C 94.97 150.16 100.70 151.57 101.08 155.99 C 100.03 162.36 90.19 164.51 86.10 159.80 C 83.62 156.08 87.86 152.17 91.37 151.44 M 89.88 155.04 C 91.89 156.66 93.95 158.39 96.57 158.84 C 96.68 157.27 96.77 155.71 96.85 154.14 C 94.44 153.61 92.01 153.68 89.88 155.04 M 87.26 156.46 C 86.34 157.64 86.55 158.36 87.89 158.62 C 88.81 157.44 88.60 156.72 87.26 156.46 M 89.08 157.27 C 88.43 159.02 91.23 160.51 92.64 159.71 C 92.86 158.20 90.45 156.60 89.08 157.27 Z" />
<path fill="#918f82" opacity="1.00" d=" M 119.38 179.27 C 124.25 176.11 128.04 171.65 132.77 168.32 C 134.13 168.96 135.51 169.56 136.90 170.12 C 135.96 175.52 131.64 179.22 128.37 183.29 C 121.37 191.72 112.67 198.47 104.19 205.34 C 102.38 206.85 100.29 207.97 98.14 208.95 C 95.61 205.49 91.26 202.70 91.38 197.94 C 91.03 196.08 91.80 194.34 93.63 193.70 C 102.43 189.29 111.44 185.17 119.38 179.27 Z" />
<path fill="#918f82" opacity="1.00" d=" M 87.95 175.72 C 91.92 173.99 98.02 176.06 98.08 180.94 C 97.29 184.44 92.47 184.73 89.82 183.22 C 86.86 182.17 84.76 177.81 87.95 175.72 M 88.37 179.39 C 88.77 179.35 89.59 179.28 89.99 179.24 C 91.55 180.82 93.20 183.04 95.39 180.98 C 94.01 179.62 92.58 178.31 91.11 177.04 C 90.20 177.82 89.28 178.60 88.37 179.39 Z" />
</g>
<g id="#585750ff">
<path fill="#585750" opacity="1.00" d=" M 139.19 90.50 C 139.88 89.78 140.57 89.06 141.25 88.33 C 142.44 91.94 146.83 88.07 148.96 90.70 C 147.31 91.52 145.79 92.53 147.36 94.31 C 147.18 94.36 146.84 94.47 146.66 94.52 C 144.41 93.21 141.85 92.05 141.05 89.30 C 140.77 90.41 139.79 91.99 141.14 92.84 C 142.59 93.62 144.17 94.11 145.69 94.75 C 143.67 94.66 141.65 94.53 139.64 94.36 C 139.48 93.07 139.33 91.79 139.19 90.50 Z" />
<path fill="#585750" opacity="1.00" d=" M 188.71 93.72 C 189.38 94.31 189.88 95.01 190.21 95.82 C 189.37 96.44 188.46 96.94 187.49 97.32 C 187.62 96.03 188.02 94.83 188.71 93.72 Z" />
<path fill="#585750" opacity="1.00" d=" M 159.03 114.72 C 161.96 112.07 164.79 108.92 168.87 108.13 C 165.69 110.35 162.58 112.67 159.75 115.32 L 159.03 114.72 Z" />
<path fill="#585750" opacity="1.00" d=" M 46.12 157.59 C 47.56 157.24 48.97 156.77 50.43 156.51 C 50.88 156.69 51.77 157.06 52.22 157.25 C 50.99 157.61 49.74 158.03 48.71 158.82 C 50.03 159.32 51.38 159.80 52.72 160.26 C 62.27 165.27 69.97 172.94 77.85 180.15 C 82.07 184.29 86.36 188.38 90.22 192.86 C 95.45 191.37 100.19 188.67 104.97 186.16 C 114.34 181.16 123.36 175.16 130.57 167.28 C 131.30 167.62 132.03 167.97 132.77 168.32 C 128.04 171.65 124.25 176.11 119.38 179.27 C 111.44 185.17 102.43 189.29 93.63 193.70 C 91.80 194.34 91.03 196.08 91.38 197.94 C 91.26 202.70 95.61 205.49 98.14 208.95 C 100.29 207.97 102.38 206.85 104.19 205.34 C 112.67 198.47 121.37 191.72 128.37 183.29 C 131.64 179.22 135.96 175.52 136.90 170.12 C 137.70 170.36 138.51 170.58 139.32 170.78 C 129.06 186.79 114.77 199.93 98.98 210.35 C 98.92 210.84 98.80 211.81 98.73 212.29 C 98.20 210.90 97.43 209.61 96.33 208.59 C 88.64 200.99 80.41 193.96 72.85 186.21 C 67.18 181.32 60.55 177.69 53.95 174.22 C 47.84 171.32 45.13 164.02 46.12 157.59 Z" />
<path fill="#585750" opacity="1.00" d=" M 70.63 165.11 L 72.11 164.83 C 73.64 166.09 75.16 167.37 76.66 168.68 C 74.06 168.77 72.35 166.73 70.63 165.11 Z" />
<path fill="#585750" opacity="1.00" d=" M 83.68 174.63 C 80.56 174.85 77.82 172.16 77.28 169.21 C 79.44 170.99 81.53 172.85 83.68 174.63 Z" />
</g>
<g id="#896913ff">
<path fill="#896913" opacity="1.00" d=" M 109.67 92.57 C 110.05 93.62 110.43 94.67 110.84 95.71 C 122.77 104.48 135.44 112.14 148.16 119.70 C 148.48 119.25 149.12 118.36 149.44 117.92 C 149.47 118.45 149.52 119.50 149.54 120.03 C 150.75 120.94 151.99 121.81 153.30 122.58 C 153.76 122.79 154.70 123.21 155.16 123.42 C 158.29 124.71 161.36 126.12 164.39 127.61 C 163.64 130.28 162.39 132.76 161.11 135.20 C 158.10 133.65 155.13 132.02 152.25 130.25 C 153.34 128.47 154.45 126.69 155.55 124.92 C 142.84 117.17 129.80 109.91 117.56 101.40 C 113.77 99.09 110.44 95.60 105.83 95.03 C 105.07 96.69 104.29 98.34 103.48 99.98 C 103.72 98.86 103.95 97.73 104.26 96.62 C 104.68 95.64 105.25 94.78 105.96 94.03 C 107.18 93.52 108.42 93.05 109.67 92.57 Z" />
<path fill="#896913" opacity="1.00" d=" M 103.92 116.35 C 107.35 112.94 111.81 109.40 117.00 111.11 C 115.69 113.39 114.34 115.65 113.00 117.91 C 111.18 118.06 109.29 118.24 107.83 119.45 C 110.09 121.10 112.40 122.68 114.73 124.23 C 117.76 121.56 120.78 118.26 124.94 117.55 C 129.27 116.87 133.20 120.78 133.42 124.96 C 133.68 128.60 132.23 132.06 130.70 135.27 C 131.77 136.04 132.84 136.81 133.92 137.57 C 133.07 138.85 132.21 140.12 131.35 141.40 C 130.28 140.67 129.21 139.94 128.14 139.21 C 124.58 143.79 118.75 147.08 112.89 145.01 C 114.12 142.55 115.46 140.15 116.92 137.82 C 119.17 137.85 121.53 137.84 123.51 136.64 C 122.19 134.06 118.61 133.10 116.52 131.02 C 113.61 133.21 110.83 136.04 107.08 136.61 C 103.01 137.47 98.58 134.20 98.54 129.96 C 98.04 126.57 99.83 123.56 100.94 120.51 C 100.59 120.13 99.89 119.37 99.54 118.99 C 100.35 117.91 101.16 116.84 101.98 115.78 C 102.46 115.92 103.43 116.20 103.92 116.35 M 104.64 123.18 C 104.82 125.04 103.89 127.92 106.13 128.90 C 107.82 129.92 109.65 128.35 111.27 127.88 C 109.36 125.93 107.06 124.42 104.64 123.18 M 119.75 127.81 C 122.13 129.51 124.54 131.17 127.04 132.70 C 127.40 130.40 128.48 127.37 126.22 125.67 C 123.85 124.17 121.37 126.16 119.75 127.81 Z" />
<path fill="#896913" opacity="1.00" d=" M 132.17 167.02 C 133.07 165.13 133.97 163.24 134.89 161.36 C 137.80 162.70 140.69 164.12 143.49 165.70 C 142.47 167.50 141.39 169.26 140.37 171.05 C 140.11 170.98 139.58 170.85 139.32 170.78 C 138.51 170.58 137.70 170.36 136.90 170.12 C 135.51 169.56 134.13 168.96 132.77 168.32 C 132.03 167.97 131.30 167.62 130.57 167.28 L 129.21 166.65 C 128.02 165.74 126.94 164.69 125.86 163.67 C 127.97 164.76 130.08 165.87 132.17 167.02 Z" />
</g>
<g id="#fbcb0fff">
<path fill="#fbcb0f" opacity="1.00" d=" M 105.83 95.03 C 110.44 95.60 113.77 99.09 117.56 101.40 C 129.80 109.91 142.84 117.17 155.55 124.92 C 154.45 126.69 153.34 128.47 152.25 130.25 L 151.91 130.05 C 140.01 123.06 128.04 116.13 116.58 108.43 C 112.18 105.66 108.10 102.39 103.48 99.98 C 104.29 98.34 105.07 96.69 105.83 95.03 Z" />
<path fill="#fbcb0f" opacity="1.00" d=" M 86.23 127.79 C 86.60 128.08 87.35 128.67 87.72 128.97 C 102.82 140.61 118.80 151.09 134.99 161.15 L 134.89 161.36 C 133.97 163.24 133.07 165.13 132.17 167.02 C 130.08 165.87 127.97 164.76 125.86 163.67 C 125.15 163.22 124.43 162.78 123.72 162.35 C 111.52 154.68 99.58 146.52 88.12 137.80 C 86.54 136.44 84.93 135.12 83.30 133.82 C 84.14 131.75 85.17 129.76 86.23 127.79 Z" />
</g>
</svg>
