<svg id="Layer_1" data-name="Layer 1" xmlns="http://www.w3.org/2000/svg" viewBox="0 0 250 250"><defs><style>.cls-1{fill:#fefdfd;}.cls-2{fill:#fd9017;}.cls-3{fill:#fe8916;}.cls-4{fill:#fe500d;}.cls-5{fill:#fe4a0c;}.cls-6{fill:#fe8415;}.cls-7{fill:#fd440d;}.cls-8{fill:#fe470c;}.cls-9{fill:#fe7f15;}.cls-10{fill:#fe5f0f;}.cls-11{fill:#fe570e;}.cls-12{fill:#fd6311;}.cls-13{fill:#fd7a14;}.cls-14{fill:#fe7714;}.cls-15{fill:#fd7513;}.cls-16{fill:#fe6a11;}.cls-17{fill:#fd6e12;}.cls-18{fill:#feee01;}.cls-19{fill:#fd7b0d;}.cls-20{fill:#fecb05;}.cls-21{fill:#febe06;}.cls-22{fill:#fda509;}.cls-23{fill:#fe890b;}.cls-24{fill:#fd820c;}.cls-25{fill:#fee901;}.cls-26{fill:#fee202;}.cls-27{fill:#fdd703;}.cls-28{fill:#feb307;}.cls-29{fill:#fe990a;}.cls-30{fill:#fe910b;}</style></defs><path class="cls-1" d="M1,2H249V248H1ZM235.72,92.76q-3.66-9-7.33-17.94-4-6.79-7.94-13.58L207.38,45.51a14.72,14.72,0,0,0-1.51-1.89C173.59,14.53,136.47,5.23,94.61,17.28,76.67,22.44,60.79,31.7,48,45.7L31.76,66.22,22.35,84.86q-2.59,9.35-5.2,18.67l-1.87,28.86,1.3,10,1.8,9.93,1,3,1.9,6.86.94,2.06.81,2,1.35,3.82.89,2,3.24,6.15,2.91,5,1.66,2.7,9.47,12.6c6,7.53,12.65,14.34,21.22,19Q76.14,224,88.55,230.4a19.18,19.18,0,0,0,3.37,1.79c20.75,6.25,41.63,7.63,62.89,2.34,17.75-4.42,33-13.2,46.87-24.83l2.82-2.46.8-.76,8.28-8.8,6.12-7.82,8-13.85,2.54-5.07,1.35-4.78,1.54-4.11,2.12-3.93.7-2,.47-1.89.63-4c.16-1.28.32-2.56.49-3.83.48-1.58.95-3.17,1.43-4.75l1.1-9.21c.07-1,.13-1.92.2-2.88q-.9-12.47-1.78-24.93Z"/><path class="cls-2" d="M48,45.7c12.77-14,28.65-23.26,46.59-28.42,41.86-12,79-2.75,111.26,26.34a14.72,14.72,0,0,1,1.51,1.89c-3.37.22-6.74.64-10.11.62-4.64,0-9.39-1.12-13.89-.41-6.19,1-12.15,1.49-18.33.09-1.07-.25-2.66,1.78-4,2.76a62,62,0,0,1-6.21-1.39c-14.63-4.84-29.55-6.33-44.57-2.67-8.24,2-16.18,5.27-24.26,8-1.2-5.55-5.48-5.17-9.64-5-7.33.31-14.66.86-22,.82C52.25,48.28,50.14,46.61,48,45.7Z"/><path class="cls-3" d="M240.26,129.53c-.07,1-.13,1.92-.2,2.88-5.45.54-10.9,1.22-16.36,1.56-2.58.15-5.23-.7-7.8-.49-9.75.81-19.46,2.13-29.21,2.79-17.61,1.2-35.23,2.38-52.87,3-27.36.94-54.74,1.37-82.11,2.06-11.71.3-23.42.7-35.13,1.06-.43-3.33-.86-6.65-1.3-10l24.26-4.92c2,0,4,0,5.9-.19q34.11-3.33,68.2-6.73l47.43,1c3.28.06,6.58-.07,9.84.21,9.57.83,19.13,1.82,28.7,2.75,2.42.21,4.86.35,7.28.66C218,126.58,229.14,128.07,240.26,129.53Z"/><path class="cls-4" d="M227.69,176l-8,13.85c-2.55-1-5.12-2.94-7.65-2.88-12.84.3-25.68.94-38.5,1.82-7.32.5-14.62,1.51-21.87,2.63-7.87,1.21-15.71,2.67-23.51,4.31-5.91,1.25-12.34,1.84-17.47,4.67-9.17,5.06-19,5.09-28.75,6a12.9,12.9,0,0,1-4.76-.89c-8-2.47-16.06-5.09-24.13-7.5-2.16-.65-4.81-.19-6.63-1.27-2.7-1.62-3,.19-3.9,1.73l-9.47-12.6c5.16.24,10.33.55,15.49.7,14.35.42,28.73,1.58,43,.92,15.45-.71,30.81-3.33,46.24-4.76,16.42-1.53,32.88-2.65,49.33-3.9,2.95-.23,5.92-.1,8.86-.32C206.57,177.75,217.13,176.86,227.69,176Z"/><path class="cls-5" d="M42.53,198.51c.85-1.54,1.2-3.35,3.9-1.73,1.82,1.08,4.47.62,6.63,1.27,8.07,2.41,16.08,5,24.13,7.5a12.9,12.9,0,0,0,4.76.89c9.78-.94,19.58-1,28.75-6,5.13-2.83,11.56-3.42,17.47-4.67,7.8-1.64,15.64-3.1,23.51-4.31,7.25-1.12,14.55-2.13,21.87-2.63,12.82-.88,25.66-1.52,38.5-1.82,2.53-.06,5.1,1.87,7.65,2.88l-6.12,7.82c-10.71.93-21.41,2.1-32.15,2.73-11.12.66-22.32.32-33.4,1.34a71.89,71.89,0,0,0-19.26,4.76c-5.38,2.09-9.82,6.86-15.26,8.49-7.9,2.38-15.77,6.36-24.54,4.36-3.4-.78-6.81-1.51-10.22-2.27l.22-1.36-6.66,4.05c.12-2.4.19-3.73.32-6.18l-8.89,3.92C55.18,212.85,48.53,206,42.53,198.51Z"/><path class="cls-6" d="M16.58,142.37c11.71-.36,23.42-.76,35.13-1.06,27.37-.69,54.75-1.12,82.11-2.06,17.64-.6,35.26-1.78,52.87-3,9.75-.66,19.46-2,29.21-2.79,2.57-.21,5.22.64,7.8.49,5.46-.34,10.91-1,16.36-1.56q-.54,4.6-1.1,9.21a23.25,23.25,0,0,0-3.43-.17c-10.9.91-21.78,2.17-32.7,2.74-12.71.66-25.47.51-38.19,1.12-15.18.73-30.34,2.08-45.52,2.85-22.73,1.15-45.47,2.06-68.21,3-10.84.45-21.69.76-32.53,1.13Z"/><path class="cls-7" d="M201.68,209.7c-13.84,11.63-29.12,20.41-46.87,24.83-21.26,5.29-42.14,3.91-62.89-2.34a19.18,19.18,0,0,1-3.37-1.79c3.91-.94,7.8-2,11.74-2.78,3.18-.66,6.52-.7,9.61-1.6,7.63-2.24,15.16-4.82,22.74-7.23,1.68-.54,3.89-.41,5-1.47,6.4-5.92,14.47-6.16,22.33-6.8,10.9-.88,21.82-1.47,32.75-1.92C195.71,208.48,198.7,209.31,201.68,209.7Z"/><path class="cls-8" d="M201.68,209.7c-3-.39-6-1.22-8.93-1.1-10.93.45-21.85,1-32.75,1.92-7.86.64-15.93.88-22.33,6.8-1.14,1.06-3.35.93-5,1.47-7.58,2.41-15.11,5-22.74,7.23-3.09.9-6.43.94-9.61,1.6-3.94.81-7.83,1.84-11.74,2.78L63.74,217.52l8.89-3.92c-.13,2.45-.2,3.78-.32,6.18L79,215.73l-.22,1.36c3.41.76,6.82,1.49,10.22,2.27,8.77,2,16.64-2,24.54-4.36,5.44-1.63,9.88-6.4,15.26-8.49A71.89,71.89,0,0,1,148,201.75c11.08-1,22.28-.68,33.4-1.34,10.74-.63,21.44-1.8,32.15-2.73l-8.28,8.8-.8.76Z"/><path class="cls-9" d="M18.38,152.3c10.84-.37,21.69-.68,32.53-1.13,22.74-.95,45.48-1.86,68.21-3,15.18-.77,30.34-2.12,45.52-2.85,12.72-.61,25.48-.46,38.19-1.12,10.92-.57,21.8-1.83,32.7-2.74a23.25,23.25,0,0,1,3.43.17c-.48,1.58-1,3.17-1.43,4.75a59.82,59.82,0,0,0-6.42-.05c-13.5,1.24-27,3-40.5,3.78-22.82,1.33-45.68,2.05-68.53,3.06-14.08.63-28.15,1.48-42.23,1.93-16.41.51-32.84.77-49.26,1-3.74.05-7.49-.52-11.23-.8Z"/><path class="cls-10" d="M231.58,166.16l-1.35,4.78c-4.4.35-8.79.75-13.19,1.05q-29.11,2-58.24,3.9-14.43,1-28.86,2.07c-16.45,1.26-32.88,3.13-49.36,3.68-14.41.48-28.86-.58-43.3-.71-2,0-3.92,1.49-5.88,2.28l-2.91-5c4.64-3.92,10.32-1.85,15.35-2.08,19.48-.91,39-.5,58.51-1.35,16.62-.73,33.17-2.68,49.78-3.77,14.19-.92,28.41-1.37,42.62-2.05,4.16-.2,8.32-.41,12.47-.74C215.35,167.58,223.46,166.85,231.58,166.16Z"/><path class="cls-11" d="M31.4,183.21c2-.79,3.92-2.29,5.88-2.28,14.44.13,28.89,1.19,43.3.71,16.48-.55,32.91-2.42,49.36-3.68q14.43-1.1,28.86-2.07,29.12-2,58.24-3.9c4.4-.3,8.79-.7,13.19-1.05L227.69,176c-10.56.85-21.12,1.74-31.68,2.54-2.94.22-5.91.09-8.86.32-16.45,1.25-32.91,2.37-49.33,3.9-15.43,1.43-30.79,4-46.24,4.76-14.3.66-28.68-.5-43-.92-5.16-.15-10.33-.46-15.49-.7Z"/><path class="cls-12" d="M231.58,166.16c-8.12.69-16.23,1.42-24.36,2.05-4.15.33-8.31.54-12.47.74-14.21.68-28.43,1.13-42.62,2.05-16.61,1.09-33.16,3-49.78,3.77-19.48.85-39,.44-58.51,1.35-5,.23-10.71-1.84-15.35,2.08l-3.24-6.15c11-.37,22-.81,32.92-1.09,16.07-.4,32.16-.3,48.21-1.12,15.64-.8,31.22-2.76,46.85-3.72,12.27-.75,24.58-.76,36.86-1.1,1.32,0,2.64,0,3.95-.09q19.54-1.43,39.08-2.88Z"/><path class="cls-13" d="M19.36,155.27c3.74.28,7.49.85,11.23.8,16.42-.21,32.85-.47,49.26-1,14.08-.45,28.15-1.3,42.23-1.93,22.85-1,45.71-1.73,68.53-3.06,13.53-.79,27-2.54,40.5-3.78a59.82,59.82,0,0,1,6.42.05c-.17,1.27-.33,2.55-.49,3.83-13.47,1.31-26.92,3.17-40.42,3.82-23.08,1.1-46.19,1.41-69.28,2.12-7.43.23-14.87.64-22.3,1-13.07.64-26.13,1.37-39.2,1.91-5.17.22-10.35-.08-15.52.06-8.35.24-16.69.55-25,1-1.38.09-2.7,1.28-4,2Q20.3,158.7,19.36,155.27Z"/><path class="cls-6" d="M48,45.7c2.12.91,4.23,2.58,6.36,2.59,7.32,0,14.65-.51,22-.82,4.16-.17,8.44-.55,9.64,5l-5.76,3-1.14,1L63.22,70c-.64-.88-1.29-2.54-1.92-2.53-7.25.08-14.51.61-21.76.59-2.6,0-5.19-1.21-7.78-1.87Z"/><path class="cls-14" d="M21.26,162.13c1.34-.69,2.66-1.88,4-2,8.33-.5,16.67-.81,25-1,5.17-.14,10.35.16,15.52-.06,13.07-.54,26.13-1.27,39.2-1.91,7.43-.36,14.87-.77,22.3-1,23.09-.71,46.2-1,69.28-2.12,13.5-.65,26.95-2.51,40.42-3.82l-.63,4c-4.27,0-8.57-.23-12.83.09-10.92.79-21.8,2.08-32.73,2.71-11.14.64-22.31.67-33.46,1.09-7,.26-14.08.61-21.1,1.18-9.76.78-19.49,2.11-29.26,2.65-8.54.47-17.12.08-25.68.24q-18.8.33-37.57.92c-7.2.23-14.39.71-21.58,1.07Z"/><path class="cls-12" d="M39.54,127.47l-24.26,4.92q.95-14.43,1.87-28.86a37.72,37.72,0,0,1,3.8-.33c7.46.16,14.91.38,22.37.58a7.52,7.52,0,0,1,.15,1l-1,2.94c-.65,1.08-1.73,2.12-1.86,3.26a67.09,67.09,0,0,0-.07,7.64l-1,4,0,2Z"/><path class="cls-3" d="M161,48.57c1.35-1,2.94-3,4-2.76,6.18,1.4,12.14.88,18.33-.09,4.5-.71,9.25.39,13.89.41,3.37,0,6.74-.4,10.11-.62l13.07,15.73c-10.18-.13-20.39.11-30.53-.59-3.66-.25-4.37.59-4.18,3.64L164,50.37l-2.3-1.79A1.83,1.83,0,0,1,161,48.57Z"/><path class="cls-12" d="M240.26,129.53c-11.12-1.46-22.24-3-33.37-4.38-2.42-.31-4.86-.45-7.28-.66,1.32-1.31,2.44-3.15,4-3.77s3.89-.07,5.85-.19c4.48-.26,5.58-2.24,3.93-6.89l-1-2v-2l0-2a40.33,40.33,0,0,1,6.35-1.64c6.54-.63,13.1-1,19.66-1.47Q239.37,117.07,240.26,129.53Z"/><path class="cls-15" d="M22.2,164.19c7.19-.36,14.38-.84,21.58-1.07q18.78-.59,37.57-.92c8.56-.16,17.14.23,25.68-.24,9.77-.54,19.5-1.87,29.26-2.65,7-.57,14.06-.92,21.1-1.18,11.15-.42,22.32-.45,33.46-1.09,10.93-.63,21.81-1.92,32.73-2.71,4.26-.32,8.56-.08,12.83-.09-.15.63-.31,1.26-.47,1.89-3.12,0-6.26-.11-9.36.15-14.79,1.2-29.56,2.65-44.36,3.74-8.49.63-17,.68-25.51,1.08-5.22.24-10.43.7-15.65,1-16.8,1-33.6,2-50.4,2.88-2.23.12-4.5-.52-6.72-.39-5.7.35-11.38,1.25-17.07,1.35-14.62.26-29.25.22-43.87.29Z"/><path class="cls-16" d="M233.12,162.05q-19.55,1.44-39.08,2.88c-1.31.09-2.63,0-3.95.09-12.28.34-24.59.35-36.86,1.1-15.63,1-31.21,2.92-46.85,3.72-16,.82-32.14.72-48.21,1.12-11,.28-21.94.72-32.92,1.09-.29-.67-.59-1.33-.89-2,2.75-.36,5.5-.94,8.26-1,20.73-.73,41.47-1.26,62.2-2.06,11.6-.44,23.18-1.33,34.77-1.89,21.91-1.05,43.81-2,65.72-3,2.27-.1,4.54-.44,6.81-.66l33.12-3.25Z"/><path class="cls-9" d="M185.74,64.29c-.19-3.05.52-3.89,4.18-3.64,10.14.7,20.35.46,30.53.59q4,6.79,7.94,13.58c-2,.75-4.08,2.18-6.1,2.14-7.79-.13-15.7,1.07-23.38-1.43-.23-.08-.86,1-1.3,1.59l-5.9-6Z"/><path class="cls-13" d="M31.76,66.22c2.59.66,5.18,1.86,7.78,1.87,7.25,0,14.51-.51,21.76-.59.63,0,1.28,1.65,1.92,2.54L52.31,85.88,50.44,87c-2.06-.68-4.1-1.87-6.19-2-7.29-.28-14.6-.18-21.9-.22Z"/><path class="cls-17" d="M235.24,158.12l-33.12,3.25c-2.27.22-4.54.56-6.81.66-21.91,1-43.81,2-65.72,3-11.59.56-23.17,1.45-34.77,1.89-20.73.8-41.47,1.33-62.2,2.06-2.76.1-5.51.68-8.26,1-.45-1.27-.9-2.54-1.36-3.82,14.62-.07,29.25,0,43.87-.29,5.69-.1,11.37-1,17.07-1.35,2.22-.13,4.49.51,6.72.39,16.8-.9,33.6-1.89,50.4-2.88,5.22-.3,10.43-.76,15.65-1,8.5-.4,17-.45,25.51-1.08,14.8-1.09,29.57-2.54,44.36-3.74,3.1-.26,6.24-.11,9.36-.15Z"/><path class="cls-17" d="M22.35,84.86c7.3,0,14.61-.06,21.9.22,2.09.08,4.13,1.27,6.19,2l-1,1.91-1,1.83c-.33,1-.67,2-1,3.06-.55,1-1.09,2-1.64,3l-.44,2.86-2,4c-7.46-.2-14.91-.42-22.37-.58a37.72,37.72,0,0,0-3.8.33Q19.76,94.2,22.35,84.86Z"/><path class="cls-15" d="M197.61,77.12c.44-.56,1.07-1.67,1.3-1.59,7.68,2.5,15.59,1.3,23.38,1.43,2,0,4.07-1.39,6.1-2.14q3.68,9,7.33,17.94c-3.33-.26-6.67-.79-10-.73-6.1.11-12.19.57-18.28.88l-.91,0-2.79-4.2-.87-1.77-3.34-5.84,0-1.79-1-1.17Z"/><path class="cls-16" d="M207.44,92.91c6.09-.31,12.18-.77,18.28-.88,3.33-.06,6.67.47,10,.73l2.76,11.84c-6.56.47-13.12.84-19.66,1.47a40.33,40.33,0,0,0-6.35,1.64l-1-1c0-.33,0-.66,0-1l-.94-2h0l-.91-2-1.11-3.94C208.13,96.19,207.79,94.55,207.44,92.91Z"/><path class="cls-7" d="M204.5,207.24l.8-.76Z"/><path class="cls-18" d="M52.31,85.88,63.22,70,79.1,56.43l1.14-1,5.76-3c8.08-2.69,16-6,24.26-8,15-3.66,29.94-2.17,44.57,2.67A62,62,0,0,0,161,48.57a1.7,1.7,0,0,0,.71,0l2.29,1.8,21.7,13.92,6,6.83c-.78,2.2-1.38,6.2-2.35,6.3-7,.66-14,.43-21,.68-5.56.2-11.11.59-16.66,1.07-14.32,1.23-28.63,2.62-43,3.81-7,.58-14.06.76-21.08,1.29-10.59.82-21.16,1.83-31.75,2.63C54.74,87,53.51,86.24,52.31,85.88Z"/><path class="cls-19" d="M39.54,127.47c0-1,0-2,0-3l9.85-2h2l5.93-2h5.93l4.94-1h5.92l8.9-2h3c2.54,1.27,5,1.86,6.92-1h2c1.7.33,3.4,1,5.08.93,12.47-.55,24.94-1.26,37.41-1.91-1.27.65-2.51,1.8-3.82,1.88-4.09.25-8.24-.26-12.29.22-2.61.31-5.07,1.85-7.6,2.83q-34.1,3.38-68.2,6.73C43.49,127.48,41.51,127.42,39.54,127.47Z"/><path class="cls-15" d="M113.64,120.55c2.53-1,5-2.52,7.6-2.83,4.05-.48,8.2,0,12.29-.22,1.31-.08,2.55-1.23,3.82-1.88h2c.71.32,1.44.94,2.14.92q16.13-.47,32.25-1.12c.4,0,.78-.52,1.18-.79h3.95c.25.19.51.58.75.56q16.43-.73,32.84-1.55c-1.32,1-2.57,2.67-4,2.81-5.82.57-11.7.69-17.55,1-8.88.4-17.77.69-26.64,1.31-1.13.07-2.14,1.83-3.21,2.81Z"/><path class="cls-17" d="M161.07,121.53c1.07-1,2.08-2.74,3.21-2.81,8.87-.62,17.76-.91,26.64-1.31,5.85-.27,11.73-.39,17.55-1,1.4-.14,2.65-1.83,4-2.81h1c1.65,4.65.55,6.63-3.93,6.89-2,.12-4.13-.47-5.85.19s-2.72,2.46-4,3.77c-9.57-.93-19.13-1.92-28.7-2.75C167.65,121.46,164.35,121.59,161.07,121.53Z"/><path class="cls-2" d="M80.24,55.43l-1.14,1Z"/><path class="cls-20" d="M203.74,88.67l2.79,4.2c-1.86,1-3.67,2.74-5.57,2.85-10.39.6-20.79.76-31.19,1.13-8.5.3-17,.51-25.51,1.06-18.41,1.19-36.82,2.42-55.2,3.93-11,.9-22,2.64-33.07,3.36-4.09.27-8.55,3.76-12.52-.47a7.52,7.52,0,0,0-.15-1l2-4c1.63,1.81,2.9,3,6.1,2.4,10.58-1.9,21.3-3.24,32-4.22,11.23-1,22.52-1.51,33.79-2,23.56-1.07,47.12-2,70.68-3a109.38,109.38,0,0,0,12.68-1.13C201.78,91.54,202.7,89.74,203.74,88.67Z"/><path class="cls-21" d="M43.47,104.73c4,4.23,8.43.74,12.52.47,11-.72,22-2.46,33.07-3.36,18.38-1.51,36.79-2.74,55.2-3.93,8.49-.55,17-.76,25.51-1.06,10.4-.37,20.8-.53,31.19-1.13,1.9-.11,3.71-1.86,5.57-2.85l.91,0c.35,1.64.69,3.28,1,4.92-3.19.25-6.38.52-9.57.73-10.94.76-21.87,1.67-32.82,2.19-12.87.6-25.76.73-38.64,1.28-9,.39-18,1-26.92,1.77-8.78.75-17.53,1.83-26.3,2.72-10.57,1.08-21.14,2.11-31.7,3.15l-.05-2Z"/><path class="cls-22" d="M42.47,107.67c0,.67,0,1.34.05,2,0,4.26,3.16,4.17,5.89,3.86,6.29-.71,12.52-2,18.82-2.62,4.24-.43,8.54-.19,12.82-.25-.24.22-.46.6-.73.63-10.65,1.46-21.28,3.07-32,4.21-3,.32-4.26,1.08-3.88,4v0h-2l-1-1a67.09,67.09,0,0,1,.07-7.64C40.74,109.79,41.82,108.75,42.47,107.67Z"/><path class="cls-23" d="M40.54,118.57c.32.33.65.66,1,1h2v0l3,0,3.95-2h2c2,1.36,3.84,2.08,4.94-1h5.93l4.94-1h9.87l1,1-5,3H68.19l-4.94,1H57.32l-5.93,2H39.58Z"/><path class="cls-24" d="M39.58,122.52h9.83l-9.85,2C39.57,123.84,39.58,123.18,39.58,122.52Z"/><path class="cls-2" d="M164,50.37l-2.29-1.8Z"/><path class="cls-19" d="M213.43,113.64h-1q-16.41.8-32.84,1.55c-.24,0-.5-.37-.75-.56,2.19-.66,4.39-1.28,6.57-2,1.78-.59,3.53-1.3,5.29-2h3.94c1.65,3.14,3.3,3.15,4.95,0h2l10.88,1Z"/><path class="cls-24" d="M212.45,111.67l-10.88-1v-1h10.87Z"/><path class="cls-23" d="M212.44,109.69h-6.92l2-3h4l1,1Z"/><path class="cls-25" d="M52.31,85.88c1.2.36,2.43,1.11,3.6,1,10.59-.8,21.16-1.81,31.75-2.63,7-.53,14.07-.71,21.08-1.29,14.33-1.19,28.64-2.58,43-3.81,5.55-.48,11.1-.87,16.66-1.07,7-.25,14,0,21-.68,1-.1,1.57-4.1,2.35-6.3l5.9,6c.3.33.61.65.92,1l1,1.17c0,.6,0,1.2,0,1.79-2.06,1-4,2.44-6.19,2.82-2.87.5-5.9,0-8.85.2-14.16.92-28.31,2.1-42.48,2.82-12.1.62-24.22.66-36.33,1.08-6.85.24-13.73.48-20.55,1.16-10.53,1-21,2.57-31.53,3.63-1.33.13-2.82-1.27-4.23-2l.05-1.87,1-1.91Z"/><path class="cls-26" d="M49.37,90.81c1.41.69,2.9,2.09,4.23,2,10.52-1.06,21-2.58,31.53-3.63,6.82-.68,13.7-.92,20.55-1.16,12.11-.42,24.23-.46,36.33-1.08,14.17-.72,28.32-1.9,42.48-2.82,2.95-.18,6,.3,8.85-.2,2.16-.38,4.13-1.84,6.19-2.82l3.33,5.84c-8.12.68-16.24,1.44-24.37,2-10.42.73-20.85,1.35-31.28,2-18.1,1-36.21,1.87-54.3,3.06-9.25.61-18.46,2-27.71,2.67-5.9.43-11.84.18-17.77.24l0-3c.33-1,.67-2,1-3.06l.48.06Z"/><path class="cls-27" d="M47.43,96.84c5.93-.06,11.87.19,17.77-.24,9.25-.67,18.46-2.06,27.71-2.67,18.09-1.19,36.2-2,54.3-3.06,10.43-.6,20.86-1.22,31.28-2,8.13-.58,16.25-1.34,24.37-2,.3.59.59,1.18.88,1.77-1,1.07-2,2.87-3.15,3.07a109.38,109.38,0,0,1-12.68,1.13c-23.56,1-47.12,1.95-70.68,3-11.27.52-22.56,1-33.79,2-10.71,1-21.43,2.32-32,4.22-3.2.57-4.47-.59-6.1-2.4.15-.95.29-1.91.44-2.86Z"/><path class="cls-20" d="M47.43,96.84l-1.66,0c.55-1,1.09-2,1.64-3C47.42,94.83,47.42,95.83,47.43,96.84Z"/><path class="cls-13" d="M49.37,90.81l-.48,0-.48-.06,1-1.83Z"/><path class="cls-9" d="M199.51,79.27l-1-1.17Z"/><path class="cls-28" d="M80.05,110.66c-4.28.06-8.58-.18-12.82.25-6.3.65-12.53,1.91-18.82,2.62-2.73.31-5.89.4-5.89-3.86,10.56-1,21.13-2.07,31.7-3.15,8.77-.89,17.52-2,26.3-2.72,9-.77,17.94-1.38,26.92-1.77,12.88-.55,25.77-.68,38.64-1.28,10.95-.52,21.88-1.43,32.82-2.19,3.19-.21,6.38-.48,9.57-.73l1.11,3.94q-10.07.49-20.12,1c-7.2.35-14.4.6-21.59,1.08-1,.07-1.91,1.23-2.87,1.88h-9.86c-4.39-1-8.84-2.77-12.86,1h-6.9c-1.53-.33-3.08-1-4.59-.92-12,.57-24,1.19-36,2-3,.21-5.91,1.23-8.86,1.88Z"/><path class="cls-22" d="M165,105.72c1-.65,1.87-1.81,2.87-1.88,7.19-.48,14.39-.73,21.59-1.08q10.06-.48,20.12-1c.31.66.61,1.32.91,2l-3,2H180.83Z"/><path class="cls-29" d="M207.5,105.73l3-2h0c.31.67.63,1.33.94,2,0,.33,0,.66,0,1h-4Z"/><path class="cls-23" d="M211.45,105.73c-.31-.66-.63-1.32-.94-2Z"/><path class="cls-24" d="M139.33,115.62h-2c-12.47.65-24.94,1.36-37.41,1.91-1.68.08-3.38-.6-5.08-.93,1.87-.33,3.73-.69,5.6-1q9.56-1.5,19.11-3h20.75v1C140,114.3,139.66,115,139.33,115.62Z"/><path class="cls-23" d="M119.57,112.65q-9.55,1.48-19.11,3c-1.87.29-3.73.65-5.6,1h-2l-6.92,1H83v-1c2.3-.66,4.56-1.5,6.9-1.94,4.26-.79,8.57-1.35,12.86-2h7.9l5.93-1h3Z"/><path class="cls-24" d="M83,116.6v1l-8.9,2,5-3Z"/><path class="cls-24" d="M86,117.59l6.92-1C90.94,119.45,88.51,118.86,86,117.59Z"/><path class="cls-24" d="M51.39,122.53l5.93-2Z"/><path class="cls-24" d="M60.28,120.56h0Z"/><path class="cls-24" d="M68.19,119.57h0Z"/><path class="cls-24" d="M190.71,110.68c-1.76.66-3.51,1.37-5.29,2-2.18.71-4.38,1.33-6.57,2H174.9c-2.32-.33-4.62-.7-6.94-1-3-.37-5.92-.67-8.87-1l2-1H167c3.22-1,7.29,2.22,9.89-2h11.85Z"/><path class="cls-19" d="M159.09,112.65c2.95.33,5.92.63,8.87,1,2.32.28,4.62.65,6.94,1-.4.27-.78.78-1.18.79q-16.12.63-32.25,1.12c-.7,0-1.43-.6-2.14-.92.33-.66.66-1.32,1-2h2c4.39,1,8.83,2.79,12.85-1Z"/><path class="cls-29" d="M80.05,110.66l5.92-1,7.91,1c-1.76.66-3.49,1.41-5.28,1.95-3.5,1.06-7,2-10.54,3H68.19l-4.94,1H57.32l-4.94,1h-2l-3.95,2-3,0c-.38-3,.91-3.72,3.88-4,10.68-1.14,21.31-2.75,32-4.21C79.59,111.26,79.81,110.88,80.05,110.66Z"/><path class="cls-30" d="M43.48,119.56h0Z"/><path class="cls-30" d="M78.06,115.61c3.52-1,7-1.92,10.54-3,1.79-.54,3.52-1.29,5.28-1.95h4l4.94,2c-4.29.66-8.6,1.22-12.86,2-2.34.44-4.6,1.28-6.9,1.94h-4Z"/><path class="cls-30" d="M68.19,115.62h0Z"/><path class="cls-30" d="M52.38,117.59l4.94-1C56.22,119.67,54.36,119,52.38,117.59Z"/><path class="cls-30" d="M46.45,119.56l3.95-2Z"/><path class="cls-30" d="M61.27,116.6h0Z"/><path class="cls-23" d="M190.71,110.68l-2-1h12.84v1H190.71Z"/><path class="cls-24" d="M194.65,110.68h4.95C198,113.83,196.3,113.82,194.65,110.68Z"/><path class="cls-30" d="M201.57,109.68H176.88c-3.22,1-7.3-2.22-9.89,2h-5.92v-2c5.18-.65,10.38-1.21,15.53-2,1.48-.23,2.83-1.25,4.24-1.9h3l.76,1.53,1.22-1.53H207.5v1l-2,3Z"/><path class="cls-29" d="M180.83,105.74c-1.41.65-2.76,1.67-4.24,1.9-5.15.83-10.35,1.39-15.53,2H142.29l-9.88,1h-8.89l-4,1h-3c-2.21-1.08-4.47-2.46-5.93,1h-7.9l-4.94-2a6.88,6.88,0,0,1,2.15-.94c6-.4,12.08-.58,18.1-1.08,5.78-.49,11.53-1.29,17.3-2h6.9l12.86-1H165Z"/><path class="cls-22" d="M135.38,106.71c-5.77.66-11.52,1.46-17.3,2-6,.5-12.07.68-18.1,1.08a6.88,6.88,0,0,0-2.15.94h-4l-7.91-1c3-.65,5.88-1.67,8.86-1.88,12-.83,24-1.45,36-2C132.3,105.71,133.85,106.38,135.38,106.71Z"/><path class="cls-22" d="M155.14,105.72l-12.86,1C146.3,103,150.75,104.71,155.14,105.72Z"/><path class="cls-29" d="M204.54,105.73h0Z"/><path class="cls-29" d="M185.77,105.74l-1.22,1.53-.76-1.53Z"/><path class="cls-23" d="M142.29,109.69h18.77v2l-2,1h-4l-12.85,1h-2v-1C141,111.66,141.63,110.68,142.29,109.69Z"/><path class="cls-23" d="M123.52,110.68h8.89l3,2H123.52Z"/><path class="cls-30" d="M135.37,112.65l-3-2,9.88-1c-.66,1-1.32,2-2,3Z"/><path class="cls-30" d="M123.52,110.68v2h-4v-1Z"/><path class="cls-30" d="M110.67,112.65c1.46-3.45,3.72-2.07,5.93-1Z"/><path class="cls-23" d="M167,111.66c2.59-4.19,6.67-.93,9.89-2C174.28,113.88,170.21,110.61,167,111.66Z"/><path class="cls-24" d="M142.29,113.64l12.85-1C151.12,116.43,146.68,114.67,142.29,113.64Z"/><path class="cls-30" d="M158.1,109.68h0Z"/></svg>