<?xml version="1.0" encoding="UTF-8" ?>
<!DOCTYPE svg PUBLIC "-//W3C//DTD SVG 1.1//EN" "http://www.w3.org/Graphics/SVG/1.1/DTD/svg11.dtd">
<svg width="250pt" height="250pt" viewBox="0 0 250 250" version="1.1" xmlns="http://www.w3.org/2000/svg">
<g id="#ffffffff">
<path fill="#ffffff" opacity="1.00" d=" M 0.00 0.00 L 250.00 0.00 L 250.00 250.00 L 0.00 250.00 L 0.00 0.00 M 6.33 40.01 C 6.42 85.21 6.26 130.41 6.41 175.61 C 41.61 194.34 76.64 213.37 111.80 232.18 C 116.34 234.76 121.11 236.93 125.45 239.84 C 126.87 239.56 128.31 239.27 129.56 238.51 C 142.19 231.34 154.86 224.21 167.79 217.60 C 184.75 207.77 202.20 198.82 219.25 189.15 C 226.84 184.56 235.33 181.33 242.39 175.97 C 242.83 171.99 242.50 167.99 242.57 164.00 C 242.61 122.87 242.50 81.74 242.62 40.61 C 239.22 39.32 235.54 39.96 232.00 39.84 C 159.67 39.86 87.35 39.82 15.02 39.89 C 13.25 39.92 11.49 40.05 9.73 40.20 C 8.60 40.06 7.46 40.00 6.33 40.01 Z" />
</g>
<g id="#2790f9ff">
<path fill="#2790f9" opacity="1.00" d=" M 6.33 40.01 C 7.46 40.00 8.60 40.06 9.73 40.20 C 14.02 42.72 18.40 45.10 22.98 47.08 C 35.04 52.95 46.95 59.11 59.02 64.96 C 61.93 66.37 64.67 68.10 67.48 69.69 C 60.78 78.17 53.33 86.02 46.25 94.18 C 35.53 106.91 24.05 118.99 13.63 131.96 C 28.16 146.89 43.31 161.22 58.18 175.82 C 62.06 179.60 65.38 183.99 69.90 187.06 C 67.75 182.26 64.52 177.97 62.97 172.90 C 61.47 168.75 60.98 164.34 60.72 159.96 C 72.36 159.70 84.05 159.48 95.68 160.07 C 97.48 173.43 109.99 182.74 122.83 184.18 C 124.13 184.50 125.44 184.85 126.74 185.21 C 127.12 201.15 126.67 217.10 126.96 233.04 C 127.12 235.42 126.60 237.75 125.45 239.84 C 121.11 236.93 116.34 234.76 111.80 232.18 C 76.64 213.37 41.61 194.34 6.41 175.61 C 6.26 130.41 6.42 85.21 6.33 40.01 Z" />
<path fill="#2790f9" opacity="1.00" d=" M 64.16 99.91 C 62.77 89.98 62.99 78.92 69.04 70.44 C 79.24 74.36 88.42 80.52 98.69 84.28 C 96.74 90.38 98.13 97.62 103.17 101.83 C 109.74 108.12 118.91 109.81 127.22 112.63 C 126.47 122.49 127.18 132.39 126.70 142.26 C 113.56 138.42 100.15 135.10 87.75 129.19 C 76.49 123.16 66.21 113.02 64.16 99.91 Z" />
</g>
<g id="#2a6defff">
<path fill="#2a6def" opacity="1.00" d=" M 9.73 40.20 C 11.49 40.05 13.25 39.92 15.02 39.89 C 87.35 39.82 159.67 39.86 232.00 39.84 C 235.54 39.96 239.22 39.32 242.62 40.61 C 223.21 50.02 203.89 59.68 184.78 69.70 C 184.36 69.91 183.52 70.34 183.09 70.55 C 175.72 73.91 168.59 77.77 161.27 81.24 C 158.58 82.52 156.05 84.11 153.64 85.87 C 150.58 80.53 145.78 76.08 139.90 74.08 C 130.07 70.79 119.19 71.08 109.40 74.36 C 104.59 75.99 100.66 79.60 98.69 84.28 C 88.42 80.52 79.24 74.36 69.04 70.44 C 68.65 70.25 67.87 69.88 67.48 69.69 C 64.67 68.10 61.93 66.37 59.02 64.96 C 46.95 59.11 35.04 52.95 22.98 47.08 C 18.40 45.10 14.02 42.72 9.73 40.20 Z" />
</g>
<g id="#2cbcf8ff">
<path fill="#2cbcf8" opacity="1.00" d=" M 184.78 69.70 C 203.89 59.68 223.21 50.02 242.62 40.61 C 242.50 81.74 242.61 122.87 242.57 164.00 C 242.50 167.99 242.83 171.99 242.39 175.97 C 235.33 181.33 226.84 184.56 219.25 189.15 C 202.20 198.82 184.75 207.77 167.79 217.60 C 154.86 224.21 142.19 231.34 129.56 238.51 C 128.31 239.27 126.87 239.56 125.45 239.84 C 126.60 237.75 127.12 235.42 126.96 233.04 C 126.67 217.10 127.12 201.15 126.74 185.21 C 125.44 184.85 124.13 184.50 122.83 184.18 C 131.21 184.89 139.87 184.01 147.66 180.70 C 154.16 177.95 159.61 171.35 158.85 163.97 C 159.28 158.45 155.41 153.66 150.73 151.23 C 143.10 147.31 134.84 144.85 126.70 142.26 C 127.18 132.39 126.47 122.49 127.22 112.63 C 135.80 115.04 144.34 117.58 152.86 120.20 C 161.03 123.25 169.48 126.17 176.36 131.70 C 181.70 136.05 186.54 141.29 189.28 147.69 C 193.91 159.69 193.51 173.71 187.30 185.09 C 196.48 176.34 204.59 166.55 213.50 157.52 C 221.32 148.99 229.39 140.70 237.02 132.01 C 226.26 118.47 214.63 105.64 203.70 92.23 C 197.23 84.86 190.80 77.45 184.78 69.70 Z" />
<path fill="#2cbcf8" opacity="1.00" d=" M 161.27 81.24 C 168.59 77.77 175.72 73.91 183.09 70.55 C 187.81 78.04 189.84 87.02 190.21 95.78 C 178.97 95.81 167.74 95.92 156.51 95.71 C 155.74 92.38 154.96 89.03 153.64 85.87 C 156.05 84.11 158.58 82.52 161.27 81.24 Z" />
</g>
<g id="#0f2755ff">
<path fill="#0f2755" opacity="1.00" d=" M 67.48 69.69 C 67.87 69.88 68.65 70.25 69.04 70.44 C 62.99 78.92 62.77 89.98 64.16 99.91 C 66.21 113.02 76.49 123.16 87.75 129.19 C 100.15 135.10 113.56 138.42 126.70 142.26 C 134.84 144.85 143.10 147.31 150.73 151.23 C 155.41 153.66 159.28 158.45 158.85 163.97 C 159.61 171.35 154.16 177.95 147.66 180.70 C 139.87 184.01 131.21 184.89 122.83 184.18 C 109.99 182.74 97.48 173.43 95.68 160.07 C 84.05 159.48 72.36 159.70 60.72 159.96 C 60.98 164.34 61.47 168.75 62.97 172.90 C 64.52 177.97 67.75 182.26 69.90 187.06 C 65.38 183.99 62.06 179.60 58.18 175.82 C 43.31 161.22 28.16 146.89 13.63 131.96 C 24.05 118.99 35.53 106.91 46.25 94.18 C 53.33 86.02 60.78 78.17 67.48 69.69 Z" />
<path fill="#0f2755" opacity="1.00" d=" M 183.09 70.55 C 183.52 70.34 184.36 69.91 184.78 69.70 C 190.80 77.45 197.23 84.86 203.70 92.23 C 214.63 105.64 226.26 118.47 237.02 132.01 C 229.39 140.70 221.32 148.99 213.50 157.52 C 204.59 166.55 196.48 176.34 187.30 185.09 C 193.51 173.71 193.91 159.69 189.28 147.69 C 186.54 141.29 181.70 136.05 176.36 131.70 C 169.48 126.17 161.03 123.25 152.86 120.20 C 144.34 117.58 135.80 115.04 127.22 112.63 C 118.91 109.81 109.74 108.12 103.17 101.83 C 98.13 97.62 96.74 90.38 98.69 84.28 C 100.66 79.60 104.59 75.99 109.40 74.36 C 119.19 71.08 130.07 70.79 139.90 74.08 C 145.78 76.08 150.58 80.53 153.64 85.87 C 154.96 89.03 155.74 92.38 156.51 95.71 C 167.74 95.92 178.97 95.81 190.21 95.78 C 189.84 87.02 187.81 78.04 183.09 70.55 Z" />
</g>
</svg>
