<?xml version="1.0" encoding="UTF-8" ?>
<!DOCTYPE svg PUBLIC "-//W3C//DTD SVG 1.1//EN" "http://www.w3.org/Graphics/SVG/1.1/DTD/svg11.dtd">
<svg width="250pt" height="250pt" viewBox="0 0 250 250" version="1.1" xmlns="http://www.w3.org/2000/svg">
<g id="#ffffffff">
<path fill="#ffffff" opacity="1.00" d=" M 0.00 0.00 L 9.27 0.00 C 9.15 68.85 9.30 137.71 9.21 206.56 C 24.91 206.68 40.62 206.57 56.32 206.62 C 56.33 193.74 56.33 180.87 56.30 167.99 C 55.83 161.80 61.25 157.19 61.36 151.09 C 61.59 144.70 61.27 138.30 61.49 131.90 C 62.42 131.33 63.35 130.77 64.28 130.20 C 63.84 111.25 65.23 92.03 71.50 74.01 C 71.91 74.16 72.73 74.45 73.14 74.59 C 75.81 83.88 78.31 93.31 78.99 103.00 C 80.29 112.20 79.57 121.50 80.34 130.74 C 80.90 130.99 82.02 131.48 82.58 131.72 C 82.82 138.16 82.33 144.61 82.82 151.04 C 83.31 156.73 88.14 161.17 87.66 167.02 C 87.61 180.20 87.65 193.37 87.63 206.54 C 112.60 206.71 137.58 206.54 162.56 206.63 C 162.59 193.76 162.56 180.88 162.56 168.01 C 162.18 161.50 167.80 156.52 167.54 150.05 C 167.61 144.03 167.40 138.01 167.61 132.00 C 168.48 131.44 169.35 130.89 170.23 130.33 C 170.15 111.38 171.47 92.05 177.77 74.03 C 178.15 74.18 178.91 74.46 179.29 74.60 C 185.14 92.60 186.83 111.67 186.44 130.51 C 187.35 130.97 188.26 131.44 189.18 131.90 C 189.51 138.58 189.07 145.27 189.41 151.94 C 189.39 157.07 194.19 160.78 193.76 165.98 C 193.75 179.50 193.75 193.03 193.75 206.56 C 209.59 206.68 225.44 206.57 241.29 206.62 C 241.29 137.75 241.29 68.87 241.29 0.00 L 250.00 0.00 L 250.00 250.00 L 228.72 250.00 C 234.07 249.46 239.32 245.75 240.49 240.31 C 242.54 233.65 240.62 224.98 233.97 221.65 C 228.57 219.08 222.37 219.92 216.57 219.74 C 216.31 229.83 216.49 239.91 216.47 250.00 L 206.28 250.00 C 206.28 239.92 206.31 229.85 206.27 219.77 C 204.05 219.77 201.83 219.78 199.62 219.78 C 199.56 225.83 199.61 231.87 199.54 237.92 C 196.01 231.91 192.50 225.89 189.11 219.80 C 186.88 219.78 184.65 219.77 182.43 219.75 C 182.31 229.83 182.38 239.92 182.38 250.00 L 173.98 250.00 C 170.35 239.95 167.32 229.67 163.44 219.71 C 160.93 220.18 156.93 218.45 155.69 221.45 C 152.34 230.93 149.34 240.54 145.94 250.00 L 139.37 250.00 C 139.37 247.90 139.36 245.81 139.35 243.72 C 136.02 243.69 132.69 243.68 129.36 243.67 C 129.39 235.84 129.29 228.01 129.44 220.18 C 127.14 219.86 124.82 219.83 122.52 220.14 C 122.66 230.09 122.53 240.04 122.60 250.00 L 105.62 250.00 C 108.98 249.24 112.55 247.29 113.48 243.73 C 113.79 241.72 113.86 239.60 113.35 237.62 C 112.35 235.95 110.83 234.70 109.47 233.35 C 111.39 229.63 111.93 223.71 107.69 221.38 C 102.61 218.99 96.80 219.97 91.37 219.77 C 91.22 229.85 91.30 239.92 91.33 250.00 L 71.00 250.00 C 80.13 247.87 85.40 236.47 80.91 228.18 C 77.40 220.00 66.11 216.77 58.85 221.96 C 50.50 227.07 49.71 240.61 57.29 246.73 C 59.00 248.32 61.13 249.37 63.37 250.00 L 44.77 250.00 C 42.99 240.06 40.67 230.22 39.10 220.23 C 36.74 220.19 34.37 220.22 32.00 220.31 C 30.57 225.04 28.65 229.60 26.92 234.22 C 25.10 229.81 23.81 225.19 21.69 220.92 C 20.25 218.50 17.02 220.33 14.81 220.28 C 13.39 230.26 10.97 240.08 9.16 250.00 L 0.00 250.00 L 0.00 0.00 Z" />
<path fill="#ffffff" opacity="1.00" d=" M 109.59 0.00 L 141.18 0.00 C 140.13 8.57 141.19 17.24 140.63 25.84 C 140.25 30.57 136.28 34.19 136.23 39.01 C 135.91 45.33 136.45 51.66 136.21 57.98 C 135.29 58.83 134.38 59.69 133.47 60.55 C 133.59 66.71 133.55 72.90 132.73 79.02 C 132.18 91.71 130.14 104.37 125.98 116.40 C 125.65 116.47 124.99 116.62 124.66 116.70 C 118.36 98.76 116.86 79.53 117.38 60.64 C 116.46 60.06 115.54 59.48 114.62 58.90 C 114.23 52.25 114.72 45.59 114.36 38.94 C 114.05 33.88 109.82 30.03 109.67 24.94 C 109.48 16.63 109.71 8.31 109.59 0.00 Z" />
<path fill="#ffffff" opacity="1.00" d=" M 97.62 226.36 C 99.45 226.40 101.28 226.46 103.10 226.52 C 103.59 227.36 104.08 228.20 104.57 229.04 C 104.09 229.82 103.62 230.61 103.14 231.40 C 101.31 231.45 99.47 231.50 97.63 231.54 C 97.63 229.81 97.63 228.09 97.62 226.36 Z" />
<path fill="#ffffff" opacity="1.00" d=" M 222.72 226.49 C 225.45 226.47 228.67 225.76 230.90 227.82 C 235.82 231.07 235.62 239.58 230.61 242.65 C 228.33 244.32 225.32 243.57 222.70 243.57 C 222.77 237.87 222.76 232.18 222.72 226.49 Z" />
<path fill="#ffffff" opacity="1.00" d=" M 62.45 227.77 C 67.74 223.67 75.97 228.53 75.54 235.00 C 75.96 241.32 67.86 246.18 62.64 242.28 C 57.58 239.06 57.43 231.11 62.45 227.77 Z" />
<path fill="#ffffff" opacity="1.00" d=" M 157.86 234.90 C 158.57 232.75 159.35 230.62 160.08 228.48 C 160.68 230.66 161.34 232.83 162.11 234.96 C 162.68 236.53 163.26 238.11 163.79 239.70 C 161.25 239.77 158.71 239.76 156.17 239.71 C 156.80 238.13 157.36 236.52 157.86 234.90 Z" />
<path fill="#ffffff" opacity="1.00" d=" M 16.10 250.00 C 17.18 243.93 18.36 237.88 19.88 231.90 C 21.06 235.44 22.45 238.91 23.92 242.34 C 25.77 242.36 27.62 242.40 29.47 242.44 C 31.14 238.63 32.70 234.77 34.32 230.94 C 35.17 237.36 36.85 243.61 37.86 250.00 L 16.10 250.00 Z" />
<path fill="#ffffff" opacity="1.00" d=" M 188.83 232.07 C 192.25 238.07 195.66 244.07 199.19 250.00 L 188.72 250.00 C 188.72 244.02 188.64 238.05 188.83 232.07 Z" />
<path fill="#ffffff" opacity="1.00" d=" M 97.69 236.60 C 100.65 236.63 104.20 236.14 106.40 238.61 C 106.73 240.14 106.38 241.71 106.27 243.25 C 103.40 243.70 100.49 243.83 97.59 243.67 C 97.62 241.31 97.65 238.95 97.69 236.60 Z" />
<path fill="#ffffff" opacity="1.00" d=" M 154.02 245.77 C 158.02 245.59 162.04 245.59 166.04 245.74 C 166.20 247.05 166.37 248.35 166.56 249.66 C 166.97 249.75 167.79 249.92 168.20 250.00 L 153.31 250.00 C 153.57 248.59 153.79 247.18 154.02 245.77 Z" />
</g>
<g id="#ffee00ff">
<path fill="#ffee00" opacity="1.00" d=" M 9.27 0.00 L 109.59 0.00 C 109.71 8.31 109.48 16.63 109.67 24.94 C 109.82 30.03 114.05 33.88 114.36 38.94 C 114.72 45.59 114.23 52.25 114.62 58.90 C 115.54 59.48 116.46 60.06 117.38 60.64 C 116.86 79.53 118.36 98.76 124.66 116.70 C 124.99 116.62 125.65 116.47 125.98 116.40 C 130.14 104.37 132.18 91.71 132.73 79.02 C 133.55 72.90 133.59 66.71 133.47 60.55 C 134.38 59.69 135.29 58.83 136.21 57.98 C 136.45 51.66 135.91 45.33 136.23 39.01 C 136.28 34.19 140.25 30.57 140.63 25.84 C 141.19 17.24 140.13 8.57 141.18 0.00 L 241.29 0.00 C 241.29 68.87 241.29 137.75 241.29 206.62 C 225.44 206.57 209.59 206.68 193.75 206.56 C 193.75 193.03 193.75 179.50 193.76 165.98 C 194.19 160.78 189.39 157.07 189.41 151.94 C 189.07 145.27 189.51 138.58 189.18 131.90 C 188.26 131.44 187.35 130.97 186.44 130.51 C 186.83 111.67 185.14 92.60 179.29 74.60 C 178.91 74.46 178.15 74.18 177.77 74.03 C 171.47 92.05 170.15 111.38 170.23 130.33 C 169.35 130.89 168.48 131.44 167.61 132.00 C 167.40 138.01 167.61 144.03 167.54 150.05 C 167.80 156.52 162.18 161.50 162.56 168.01 C 162.56 180.88 162.59 193.76 162.56 206.63 C 137.58 206.54 112.60 206.71 87.63 206.54 C 87.65 193.37 87.61 180.20 87.66 167.02 C 88.14 161.17 83.31 156.73 82.82 151.04 C 82.33 144.61 82.82 138.16 82.58 131.72 C 82.02 131.48 80.90 130.99 80.34 130.74 C 79.57 121.50 80.29 112.20 78.99 103.00 C 78.31 93.31 75.81 83.88 73.14 74.59 C 72.73 74.45 71.91 74.16 71.50 74.01 C 65.23 92.03 63.84 111.25 64.28 130.20 C 63.35 130.77 62.42 131.33 61.49 131.90 C 61.27 138.30 61.59 144.70 61.36 151.09 C 61.25 157.19 55.83 161.80 56.30 167.99 C 56.33 180.87 56.33 193.74 56.32 206.62 C 40.62 206.57 24.91 206.68 9.21 206.56 C 9.30 137.71 9.15 68.85 9.27 0.00 Z" />
<path fill="#ffee00" opacity="1.00" d=" M 58.85 221.96 C 66.11 216.77 77.40 220.00 80.91 228.18 C 85.40 236.47 80.13 247.87 71.00 250.00 L 63.37 250.00 C 61.13 249.37 59.00 248.32 57.29 246.73 C 49.71 240.61 50.50 227.07 58.85 221.96 M 62.45 227.77 C 57.43 231.11 57.58 239.06 62.64 242.28 C 67.86 246.18 75.96 241.32 75.54 235.00 C 75.97 228.53 67.74 223.67 62.45 227.77 Z" />
<path fill="#ffee00" opacity="1.00" d=" M 91.37 219.77 C 96.80 219.97 102.61 218.99 107.69 221.38 C 111.93 223.71 111.39 229.63 109.47 233.35 C 110.83 234.70 112.35 235.95 113.35 237.62 C 113.86 239.60 113.79 241.72 113.48 243.73 C 112.55 247.29 108.98 249.24 105.62 250.00 L 91.33 250.00 C 91.30 239.92 91.22 229.85 91.37 219.77 M 97.62 226.36 C 97.63 228.09 97.63 229.81 97.63 231.54 C 99.47 231.50 101.31 231.45 103.14 231.40 C 103.62 230.61 104.09 229.82 104.57 229.04 C 104.08 228.20 103.59 227.36 103.10 226.52 C 101.28 226.46 99.45 226.40 97.62 226.36 M 97.69 236.60 C 97.65 238.95 97.62 241.31 97.59 243.67 C 100.49 243.83 103.40 243.70 106.27 243.25 C 106.38 241.71 106.73 240.14 106.40 238.61 C 104.20 236.14 100.65 236.63 97.69 236.60 Z" />
<path fill="#ffee00" opacity="1.00" d=" M 155.69 221.45 C 156.93 218.45 160.93 220.18 163.44 219.71 C 167.32 229.67 170.35 239.95 173.98 250.00 L 168.20 250.00 C 167.79 249.92 166.97 249.75 166.56 249.66 C 166.37 248.35 166.20 247.05 166.04 245.74 C 162.04 245.59 158.02 245.59 154.02 245.77 C 153.79 247.18 153.57 248.59 153.31 250.00 L 145.94 250.00 C 149.34 240.54 152.34 230.93 155.69 221.45 M 157.86 234.90 C 157.36 236.52 156.80 238.13 156.17 239.71 C 158.71 239.76 161.25 239.77 163.79 239.70 C 163.26 238.11 162.68 236.53 162.11 234.96 C 161.34 232.83 160.68 230.66 160.08 228.48 C 159.35 230.62 158.57 232.75 157.86 234.90 Z" />
<path fill="#ffee00" opacity="1.00" d=" M 182.43 219.75 C 184.65 219.77 186.88 219.78 189.11 219.80 C 192.50 225.89 196.01 231.91 199.54 237.92 C 199.61 231.87 199.56 225.83 199.62 219.78 C 201.83 219.78 204.05 219.77 206.27 219.77 C 206.31 229.85 206.28 239.92 206.28 250.00 L 199.19 250.00 C 195.66 244.07 192.25 238.07 188.83 232.07 C 188.64 238.05 188.72 244.02 188.72 250.00 L 182.38 250.00 C 182.38 239.92 182.31 229.83 182.43 219.75 Z" />
<path fill="#ffee00" opacity="1.00" d=" M 32.00 220.31 C 34.37 220.22 36.74 220.19 39.10 220.23 C 40.67 230.22 42.99 240.06 44.77 250.00 L 37.86 250.00 C 36.85 243.61 35.17 237.36 34.32 230.94 C 32.70 234.77 31.14 238.63 29.47 242.44 C 27.62 242.40 25.77 242.36 23.92 242.34 C 22.45 238.91 21.06 235.44 19.88 231.90 C 18.36 237.88 17.18 243.93 16.10 250.00 L 9.16 250.00 C 10.97 240.08 13.39 230.26 14.81 220.28 C 17.02 220.33 20.25 218.50 21.69 220.92 C 23.81 225.19 25.10 229.81 26.92 234.22 C 28.65 229.60 30.57 225.04 32.00 220.31 Z" />
<path fill="#ffee00" opacity="1.00" d=" M 122.52 220.14 C 124.82 219.83 127.14 219.86 129.44 220.18 C 129.29 228.01 129.39 235.84 129.36 243.67 C 132.69 243.68 136.02 243.69 139.35 243.72 C 139.36 245.81 139.37 247.90 139.37 250.00 L 122.60 250.00 C 122.53 240.04 122.66 230.09 122.52 220.14 Z" />
<path fill="#ffee00" opacity="1.00" d=" M 216.47 250.00 C 216.49 239.91 216.31 229.83 216.57 219.74 C 222.37 219.92 228.57 219.08 233.97 221.65 C 240.62 224.98 242.54 233.65 240.49 240.31 C 239.32 245.75 234.07 249.46 228.72 250.00 L 216.47 250.00 M 222.72 226.49 C 222.76 232.18 222.77 237.87 222.70 243.57 C 225.32 243.57 228.33 244.32 230.61 242.65 C 235.62 239.58 235.82 231.07 230.90 227.82 C 228.67 225.76 225.45 226.47 222.72 226.49 Z" />
</g>
</svg>
