<?xml version="1.0" encoding="UTF-8" ?>
<!DOCTYPE svg PUBLIC "-//W3C//DTD SVG 1.1//EN" "http://www.w3.org/Graphics/SVG/1.1/DTD/svg11.dtd">
<svg width="250pt" height="250pt" viewBox="0 0 250 250" version="1.1" xmlns="http://www.w3.org/2000/svg">
<g id="#010101ff">
<path fill="#010101" opacity="1.00" d=" M 0.00 0.00 L 250.00 0.00 L 250.00 250.00 L 0.00 250.00 L 0.00 0.00 M 115.73 30.54 C 115.65 30.70 115.48 31.02 115.40 31.19 C 110.91 32.19 106.94 34.63 102.99 36.90 C 90.02 44.36 78.89 55.58 73.19 69.56 C 72.64 69.60 71.55 69.69 71.01 69.73 C 70.22 68.12 69.41 66.53 68.54 64.96 C 68.53 64.56 68.52 63.76 68.52 63.36 C 68.35 63.36 68.02 63.35 67.85 63.35 C 66.45 72.03 64.94 80.77 64.82 89.58 C 61.77 95.58 59.27 101.86 56.04 107.77 C 54.58 105.78 53.38 103.59 52.64 101.22 C 50.19 93.87 47.96 86.45 45.32 79.17 C 44.44 76.15 43.74 73.06 43.75 69.91 C 45.35 66.94 44.04 63.85 42.79 61.05 C 39.93 61.11 37.13 61.74 34.40 62.59 L 35.26 63.01 C 33.10 63.68 30.96 64.41 28.85 65.23 C 26.53 65.79 22.79 66.92 23.25 69.97 C 23.67 72.09 24.25 74.73 26.21 75.92 C 26.95 76.43 27.70 76.95 28.45 77.47 C 29.11 78.30 29.77 79.13 30.43 79.95 C 31.72 84.89 32.92 90.12 35.36 94.57 C 36.88 101.58 39.51 108.37 42.04 115.07 C 42.52 117.38 43.29 119.63 44.28 121.78 L 44.55 120.97 C 45.09 126.41 40.53 130.75 41.15 136.28 C 34.23 138.10 27.11 140.74 21.89 145.79 C 19.39 147.21 17.36 149.28 15.73 151.63 C 18.04 152.66 20.31 153.81 22.68 154.71 C 23.08 155.05 23.88 155.72 24.28 156.06 C 26.29 157.62 28.32 159.31 30.79 160.09 C 31.81 161.14 32.82 162.24 34.01 163.11 C 38.65 167.73 42.97 172.75 48.08 176.87 C 51.09 181.16 55.18 184.48 59.00 188.01 C 68.49 196.47 78.65 204.43 90.32 209.69 C 94.49 211.50 98.72 213.90 103.40 213.83 C 109.09 216.82 115.74 217.05 122.01 217.41 C 146.53 216.88 168.28 202.91 185.69 186.70 C 190.48 181.84 195.87 177.42 199.90 171.91 C 206.48 165.73 213.89 160.58 220.92 154.97 C 223.40 154.11 225.78 153.01 228.14 151.88 C 226.46 148.93 224.15 146.32 221.00 144.91 C 216.02 139.74 208.58 138.78 202.41 135.81 C 201.91 131.74 200.23 127.99 199.30 124.04 C 199.54 119.77 201.61 115.91 202.88 111.90 C 204.89 105.64 207.03 99.42 209.05 93.17 C 210.29 88.76 212.46 84.56 212.81 79.94 C 214.10 77.91 215.90 76.52 218.02 75.47 C 219.67 72.87 220.78 69.72 219.68 66.70 C 218.36 66.33 217.05 65.96 215.74 65.58 L 215.70 65.03 C 212.88 64.25 210.19 63.03 207.30 62.54 C 205.12 61.45 202.70 61.22 200.31 61.31 C 199.60 63.48 198.99 65.68 198.49 67.91 C 199.20 69.77 200.97 71.67 199.83 73.72 C 196.32 84.29 192.75 94.83 189.32 105.41 C 188.48 105.91 187.65 106.41 186.82 106.91 C 183.56 101.19 180.83 95.09 179.37 88.65 C 178.21 81.05 178.94 73.14 176.30 65.78 C 176.09 67.63 175.53 69.52 175.96 71.37 C 175.15 73.56 174.55 75.82 174.14 78.11 C 175.35 73.27 176.26 68.24 175.02 63.30 C 173.59 65.59 172.77 68.17 171.97 70.74 C 170.32 69.08 168.95 67.15 167.95 65.03 C 164.81 58.63 160.80 52.37 154.97 48.09 C 150.28 43.35 144.69 39.43 138.74 36.41 L 138.78 35.74 C 133.35 32.54 127.43 30.38 121.33 28.86 C 119.47 29.44 117.60 29.99 115.73 30.54 Z" />
</g>
<g id="#f3b9efff">
<path fill="#f3b9ef" opacity="1.00" d=" M 115.73 30.54 C 117.60 29.99 119.47 29.44 121.33 28.86 C 123.44 30.90 125.52 32.97 127.38 35.24 C 126.04 35.71 124.69 36.15 123.34 36.58 C 119.91 41.00 116.72 45.92 111.71 48.72 C 107.74 51.17 103.09 52.07 98.91 54.06 C 95.47 56.25 94.97 61.23 91.27 63.16 C 87.56 65.01 83.56 66.20 79.74 67.79 C 81.10 64.93 82.53 62.03 84.70 59.70 C 88.03 56.38 93.28 56.03 96.51 52.57 C 99.09 49.79 101.27 46.64 104.03 44.03 C 108.04 39.97 113.14 36.65 115.40 31.19 C 115.48 31.02 115.65 30.70 115.73 30.54 Z" />
</g>
<g id="#813c95ff">
<path fill="#813c95" opacity="1.00" d=" M 121.33 28.86 C 127.43 30.38 133.35 32.54 138.78 35.74 L 138.74 36.41 C 138.68 37.51 138.64 38.61 138.61 39.71 C 138.60 40.01 138.58 40.61 138.58 40.92 C 135.92 39.62 132.97 39.17 130.05 39.03 C 129.22 37.72 128.34 36.45 127.38 35.24 C 125.52 32.97 123.44 30.90 121.33 28.86 Z" />
</g>
<g id="#fbecfaff">
<path fill="#fbecfa" opacity="1.00" d=" M 102.99 36.90 C 106.94 34.63 110.91 32.19 115.40 31.19 C 113.14 36.65 108.04 39.97 104.03 44.03 C 101.27 46.64 99.09 49.79 96.51 52.57 C 93.28 56.03 88.03 56.38 84.70 59.70 C 82.53 62.03 81.10 64.93 79.74 67.79 C 78.29 71.04 77.18 74.43 75.76 77.69 L 75.44 78.34 C 75.05 78.35 74.25 78.35 73.86 78.36 C 72.67 75.56 71.84 72.47 73.19 69.56 C 78.89 55.58 90.02 44.36 102.99 36.90 Z" />
</g>
<g id="#e79ae7ff">
<path fill="#e79ae7" opacity="1.00" d=" M 127.38 35.24 C 128.34 36.45 129.22 37.72 130.05 39.03 L 130.53 39.90 C 129.13 42.36 127.53 44.71 125.69 46.86 C 124.25 46.03 122.84 45.14 121.31 44.49 C 121.02 44.46 120.46 44.41 120.17 44.38 C 119.52 47.96 119.09 51.58 118.34 55.14 C 118.03 54.64 117.41 53.63 117.10 53.13 C 110.69 57.27 103.36 59.55 95.86 60.73 C 94.52 63.82 93.68 67.72 90.37 69.35 C 85.42 71.96 79.41 73.07 75.76 77.69 C 77.18 74.43 78.29 71.04 79.74 67.79 C 83.56 66.20 87.56 65.01 91.27 63.16 C 94.97 61.23 95.47 56.25 98.91 54.06 C 103.09 52.07 107.74 51.17 111.71 48.72 C 116.72 45.92 119.91 41.00 123.34 36.58 C 124.69 36.15 126.04 35.71 127.38 35.24 Z" />
</g>
<g id="#bb66bdff">
<path fill="#bb66bd" opacity="1.00" d=" M 138.61 39.71 C 138.64 38.61 138.68 37.51 138.74 36.41 C 144.69 39.43 150.28 43.35 154.97 48.09 C 157.55 52.10 159.57 56.44 161.44 60.83 C 161.03 61.42 160.22 62.62 159.82 63.21 C 151.79 56.23 147.15 46.16 138.61 39.71 Z" />
</g>
<g id="#8b2bb6ff">
<path fill="#8b2bb6" opacity="1.00" d=" M 130.05 39.03 C 132.97 39.17 135.92 39.62 138.58 40.92 C 143.87 48.26 148.28 56.20 153.46 63.62 C 156.04 67.44 160.14 69.75 164.10 71.89 C 164.17 71.11 164.29 69.56 164.36 68.78 C 165.06 70.85 165.77 72.91 166.35 75.01 C 163.49 76.04 160.56 76.83 157.72 77.89 C 152.45 79.79 148.38 83.88 143.29 86.12 C 140.44 87.57 137.04 88.41 135.00 91.04 C 133.02 93.38 134.20 96.90 136.25 98.78 C 138.45 100.30 141.25 100.44 143.83 100.71 C 149.54 101.36 155.26 101.80 160.99 102.10 C 160.50 102.36 159.51 102.89 159.02 103.16 C 158.00 103.53 156.97 103.88 155.94 104.20 C 148.84 106.28 141.29 107.21 134.87 111.15 C 132.29 109.80 129.71 108.44 127.30 106.80 C 125.92 104.71 124.49 102.67 123.15 100.56 C 122.24 98.45 121.67 96.20 121.57 93.90 C 122.23 93.66 123.53 93.18 124.18 92.94 C 125.40 88.41 126.69 83.81 126.61 79.07 C 126.53 73.48 125.26 68.00 123.91 62.61 C 123.38 62.66 122.30 62.74 121.77 62.79 L 121.57 62.14 C 121.75 57.01 122.26 51.90 122.67 46.79 C 123.09 48.79 123.53 50.79 123.97 52.79 C 124.90 59.08 126.92 65.12 128.07 71.36 C 128.69 75.41 129.60 79.42 130.96 83.29 C 133.27 81.96 136.26 81.03 137.37 78.35 C 139.97 72.15 139.00 65.18 137.45 58.84 C 136.59 55.19 135.56 51.58 134.30 48.05 C 133.13 45.29 131.87 42.57 130.53 39.90 L 130.05 39.03 Z" />
</g>
<g id="#d86de5ff">
<path fill="#d86de5" opacity="1.00" d=" M 130.53 39.90 C 131.87 42.57 133.13 45.29 134.30 48.05 C 133.56 52.62 130.68 56.28 127.21 59.16 C 126.09 57.05 124.96 54.96 123.97 52.79 C 123.53 50.79 123.09 48.79 122.67 46.79 C 122.26 51.90 121.75 57.01 121.57 62.14 L 121.56 62.19 C 121.03 56.31 121.34 50.38 121.31 44.49 C 122.84 45.14 124.25 46.03 125.69 46.86 C 127.53 44.71 129.13 42.36 130.53 39.90 Z" />
</g>
<g id="#a441c3ff">
<path fill="#a441c3" opacity="1.00" d=" M 138.61 39.71 C 147.15 46.16 151.79 56.23 159.82 63.21 C 160.22 62.62 161.03 61.42 161.44 60.83 C 162.51 63.44 163.48 66.09 164.36 68.78 C 164.29 69.56 164.17 71.11 164.10 71.89 C 160.14 69.75 156.04 67.44 153.46 63.62 C 148.28 56.20 143.87 48.26 138.58 40.92 C 138.58 40.61 138.60 40.01 138.61 39.71 Z" />
</g>
<g id="#fac2fcff">
<path fill="#fac2fc" opacity="1.00" d=" M 120.17 44.38 C 120.46 44.41 121.02 44.46 121.31 44.49 C 121.34 50.38 121.03 56.31 121.56 62.19 C 121.11 69.08 121.38 75.99 121.27 82.90 C 119.83 82.46 118.39 82.02 116.95 81.59 C 115.69 84.09 114.41 86.58 113.08 89.04 C 112.99 87.61 112.92 86.19 112.87 84.76 C 113.32 81.57 113.86 78.40 114.31 75.21 C 114.94 71.84 115.65 68.48 116.17 65.09 C 116.79 61.75 117.63 58.46 118.34 55.14 C 119.09 51.58 119.52 47.96 120.17 44.38 Z" />
</g>
<g id="#bc4ed4ff">
<path fill="#bc4ed4" opacity="1.00" d=" M 134.30 48.05 C 135.56 51.58 136.59 55.19 137.45 58.84 C 137.17 61.49 137.25 64.45 135.64 66.71 C 133.63 68.96 130.72 70.06 128.07 71.36 C 126.92 65.12 124.90 59.08 123.97 52.79 C 124.96 54.96 126.09 57.05 127.21 59.16 C 130.68 56.28 133.56 52.62 134.30 48.05 Z" />
</g>
<g id="#6c327fff">
<path fill="#6c327f" opacity="1.00" d=" M 154.97 48.09 C 160.80 52.37 164.81 58.63 167.95 65.03 C 168.95 67.15 170.32 69.08 171.97 70.74 C 170.45 75.50 168.42 80.10 165.83 84.38 C 165.98 81.26 166.42 78.14 166.35 75.01 C 165.77 72.91 165.06 70.85 164.36 68.78 C 163.48 66.09 162.51 63.44 161.44 60.83 C 159.57 56.44 157.55 52.10 154.97 48.09 Z" />
</g>
<g id="#d97edcff">
<path fill="#d97edc" opacity="1.00" d=" M 95.86 60.73 C 103.36 59.55 110.69 57.27 117.10 53.13 C 117.41 53.63 118.03 54.64 118.34 55.14 C 117.63 58.46 116.79 61.75 116.17 65.09 L 116.21 64.13 C 116.20 62.86 116.19 61.59 116.16 60.33 C 110.54 63.12 104.40 64.40 98.25 65.40 C 95.30 65.41 94.77 68.63 93.68 70.73 C 92.82 72.69 91.83 74.74 89.96 75.94 C 85.82 78.82 81.19 80.91 76.80 83.39 C 76.02 82.15 75.17 80.97 74.37 79.75 C 74.24 79.40 73.99 78.71 73.86 78.36 C 74.25 78.35 75.05 78.35 75.44 78.34 L 75.76 77.69 C 79.41 73.07 85.42 71.96 90.37 69.35 C 93.68 67.72 94.52 63.82 95.86 60.73 Z" />
</g>
<g id="#a33ac8ff">
<path fill="#a33ac8" opacity="1.00" d=" M 137.45 58.84 C 139.00 65.18 139.97 72.15 137.37 78.35 C 136.26 81.03 133.27 81.96 130.96 83.29 C 129.60 79.42 128.69 75.41 128.07 71.36 C 130.72 70.06 133.63 68.96 135.64 66.71 C 137.25 64.45 137.17 61.49 137.45 58.84 Z" />
</g>
<g id="#ca6bd7ff">
<path fill="#ca6bd7" opacity="1.00" d=" M 98.25 65.40 C 104.40 64.40 110.54 63.12 116.16 60.33 C 116.19 61.59 116.20 62.86 116.21 64.13 C 109.81 69.27 101.37 69.33 93.68 70.73 C 94.77 68.63 95.30 65.41 98.25 65.40 Z" />
</g>
<g id="#c24d57ff">
<path fill="#c24d57" opacity="1.00" d=" M 34.40 62.59 C 37.13 61.74 39.93 61.11 42.79 61.05 C 44.04 63.85 45.35 66.94 43.75 69.91 C 43.28 71.47 42.82 73.03 42.37 74.60 C 40.72 74.46 39.07 74.33 37.43 74.21 C 35.98 74.10 34.54 74.02 33.10 73.98 C 35.81 71.44 37.63 68.13 38.25 64.46 C 37.51 64.09 36.01 63.37 35.26 63.01 L 34.40 62.59 Z" />
</g>
<g id="#fbdbd6ff">
<path fill="#fbdbd6" opacity="1.00" d=" M 200.31 61.31 C 202.70 61.22 205.12 61.45 207.30 62.54 L 206.79 63.45 C 205.79 65.31 204.90 67.23 204.04 69.16 C 202.19 68.75 200.34 68.33 198.49 67.91 C 198.99 65.68 199.60 63.48 200.31 61.31 Z" />
</g>
<g id="#c453d8ff">
<path fill="#c453d8" opacity="1.00" d=" M 121.56 62.19 L 121.57 62.14 L 121.77 62.79 C 121.47 73.16 121.85 83.53 121.57 93.90 C 121.67 96.20 122.24 98.45 123.15 100.56 C 122.09 100.64 121.02 100.72 119.95 100.81 C 119.99 100.10 120.05 98.66 120.08 97.94 C 116.85 98.06 113.27 97.55 110.44 99.46 C 107.49 101.34 104.94 103.76 102.30 106.04 C 101.09 105.09 99.87 104.13 98.66 103.19 C 98.51 102.16 98.35 101.14 98.20 100.11 C 101.17 100.69 104.60 101.20 107.21 99.25 C 110.40 97.17 111.01 93.14 111.62 89.68 L 112.12 90.27 C 112.03 91.31 111.93 92.36 111.83 93.41 C 114.83 92.68 117.84 92.01 120.87 91.40 C 121.05 88.57 121.21 85.73 121.27 82.90 C 121.38 75.99 121.11 69.08 121.56 62.19 Z" />
</g>
<g id="#721898ff">
<path fill="#721898" opacity="1.00" d=" M 121.77 62.79 C 122.30 62.74 123.38 62.66 123.91 62.61 C 125.26 68.00 126.53 73.48 126.61 79.07 C 126.69 83.81 125.40 88.41 124.18 92.94 C 123.53 93.18 122.23 93.66 121.57 93.90 C 121.85 83.53 121.47 73.16 121.77 62.79 Z" />
</g>
<g id="#eca8e7ff">
<path fill="#eca8e7" opacity="1.00" d=" M 67.85 63.35 C 68.02 63.35 68.35 63.36 68.52 63.36 C 68.52 63.76 68.53 64.56 68.54 64.96 C 68.94 74.42 69.04 84.31 72.82 93.16 C 74.14 95.37 75.69 97.43 77.21 99.52 C 74.24 99.25 71.41 98.29 68.64 97.27 C 67.84 98.18 67.04 99.08 66.29 100.02 C 66.12 96.50 65.47 93.03 64.82 89.58 C 64.94 80.77 66.45 72.03 67.85 63.35 Z" />
</g>
<g id="#e0c279ff">
<path fill="#e0c279" opacity="1.00" d=" M 207.30 62.54 C 210.19 63.03 212.88 64.25 215.70 65.03 L 215.74 65.58 C 215.96 68.84 216.14 72.10 216.00 75.37 C 214.65 75.10 213.32 74.78 212.02 74.38 C 212.64 72.26 214.32 70.01 213.43 67.75 C 211.44 66.00 209.03 64.83 206.79 63.45 L 207.30 62.54 Z" />
</g>
<g id="#f3a73eff">
<path fill="#f3a73e" opacity="1.00" d=" M 28.85 65.23 C 30.96 64.41 33.10 63.68 35.26 63.01 C 36.01 63.37 37.51 64.09 38.25 64.46 C 37.63 68.13 35.81 71.44 33.10 73.98 C 32.00 74.33 30.91 74.68 29.81 75.01 C 29.91 71.95 30.18 68.90 30.26 65.84 C 29.91 65.69 29.20 65.39 28.85 65.23 Z" />
</g>
<g id="#bb58cdff">
<path fill="#bb58cd" opacity="1.00" d=" M 93.68 70.73 C 101.37 69.33 109.81 69.27 116.21 64.13 L 116.17 65.09 C 115.65 68.48 114.94 71.84 114.31 75.21 C 114.34 74.55 114.39 73.21 114.41 72.55 C 110.92 74.04 107.30 75.51 103.45 75.58 C 99.98 75.88 96.38 75.22 93.01 76.22 C 89.16 79.76 86.29 84.27 82.95 88.28 C 81.44 87.99 79.94 87.71 78.43 87.43 C 77.97 86.05 77.43 84.70 76.80 83.39 C 81.19 80.91 85.82 78.82 89.96 75.94 C 91.83 74.74 92.82 72.69 93.68 70.73 Z" />
</g>
<g id="#e898f5ff">
<path fill="#e898f5" opacity="1.00" d=" M 171.97 70.74 C 172.77 68.17 173.59 65.59 175.02 63.30 C 176.26 68.24 175.35 73.27 174.14 78.11 C 173.68 80.55 173.34 83.01 172.86 85.44 C 172.42 87.56 171.88 89.65 171.23 91.71 C 169.46 91.14 167.70 90.53 165.96 89.87 C 163.66 91.86 161.40 93.91 158.98 95.75 C 155.80 98.35 151.74 99.18 147.75 99.50 C 154.97 96.15 162.15 91.75 165.83 84.38 C 168.42 80.10 170.45 75.50 171.97 70.74 Z" />
</g>
<g id="#f1a83aff">
<path fill="#f1a83a" opacity="1.00" d=" M 204.04 69.16 C 204.90 67.23 205.79 65.31 206.79 63.45 C 209.03 64.83 211.44 66.00 213.43 67.75 C 214.32 70.01 212.64 72.26 212.02 74.38 C 210.25 73.81 208.51 73.18 206.75 72.60 C 205.74 72.27 204.73 71.96 203.72 71.66 C 203.80 71.04 203.96 69.79 204.04 69.16 Z" />
</g>
<g id="#652180ff">
<path fill="#652180" opacity="1.00" d=" M 68.54 64.96 C 69.41 66.53 70.22 68.12 71.01 69.73 C 71.55 69.69 72.64 69.60 73.19 69.56 C 71.84 72.47 72.67 75.56 73.86 78.36 C 73.99 78.71 74.24 79.40 74.37 79.75 C 74.53 84.53 74.65 89.33 75.44 94.06 C 74.57 93.76 73.69 93.45 72.82 93.16 C 69.04 84.31 68.94 74.42 68.54 64.96 Z" />
</g>
<g id="#fae2acff">
<path fill="#fae2ac" opacity="1.00" d=" M 23.25 69.97 C 22.79 66.92 26.53 65.79 28.85 65.23 C 29.20 65.39 29.91 65.69 30.26 65.84 C 30.18 68.90 29.91 71.95 29.81 75.01 C 28.62 75.36 27.42 75.66 26.21 75.92 C 24.25 74.73 23.67 72.09 23.25 69.97 Z" />
</g>
<g id="#391358ff">
<path fill="#391358" opacity="1.00" d=" M 176.30 65.78 C 178.94 73.14 178.21 81.05 179.37 88.65 C 180.83 95.09 183.56 101.19 186.82 106.91 C 187.65 106.41 188.48 105.91 189.32 105.41 C 188.57 107.64 188.19 110.06 189.22 112.27 C 189.89 113.52 190.63 114.73 191.36 115.96 C 189.81 117.80 188.24 119.64 186.67 121.48 C 182.26 118.67 178.78 114.74 175.30 110.90 C 171.07 115.27 164.96 116.30 159.56 118.53 C 158.32 118.29 157.08 118.03 155.85 117.78 C 158.14 116.62 160.39 115.36 162.65 114.13 C 168.42 110.76 175.69 107.64 177.70 100.64 C 179.54 93.13 177.83 85.36 177.36 77.78 C 177.10 75.60 176.47 73.49 175.96 71.37 C 175.53 69.52 176.09 67.63 176.30 65.78 Z" />
</g>
<g id="#faf1cdff">
<path fill="#faf1cd" opacity="1.00" d=" M 216.00 75.37 C 216.14 72.10 215.96 68.84 215.74 65.58 C 217.05 65.96 218.36 66.33 219.68 66.70 C 220.78 69.72 219.67 72.87 218.02 75.47 C 217.52 75.44 216.50 75.39 216.00 75.37 Z" />
</g>
<g id="#d2aebcff">
<path fill="#d2aebc" opacity="1.00" d=" M 198.49 67.91 C 200.34 68.33 202.19 68.75 204.04 69.16 C 203.96 69.79 203.80 71.04 203.72 71.66 C 201.43 82.09 196.16 91.59 193.54 101.95 C 192.27 105.46 190.85 108.92 189.22 112.27 C 188.19 110.06 188.57 107.64 189.32 105.41 C 192.75 94.83 196.32 84.29 199.83 73.72 C 200.97 71.67 199.20 69.77 198.49 67.91 Z" />
</g>
<g id="#7e445fff">
<path fill="#7e445f" opacity="1.00" d=" M 42.37 74.60 C 42.82 73.03 43.28 71.47 43.75 69.91 C 43.74 73.06 44.44 76.15 45.32 79.17 C 43.52 79.54 41.72 79.91 39.92 80.28 C 39.15 79.37 38.33 78.50 37.47 77.67 C 36.29 77.48 35.11 77.33 33.93 77.22 C 35.13 76.26 36.28 75.24 37.43 74.21 C 39.07 74.33 40.72 74.46 42.37 74.60 Z" />
</g>
<g id="#a03fc1ff">
<path fill="#a03fc1" opacity="1.00" d=" M 103.45 75.58 C 107.30 75.51 110.92 74.04 114.41 72.55 C 114.39 73.21 114.34 74.55 114.31 75.21 C 113.86 78.40 113.32 81.57 112.87 84.76 C 112.60 86.59 112.32 88.43 112.12 90.27 L 111.62 89.68 C 109.58 87.97 106.77 88.03 104.29 87.55 C 99.08 86.95 94.02 85.54 89.02 84.01 C 86.95 85.68 84.90 87.37 82.87 89.09 L 82.95 88.28 C 86.29 84.27 89.16 79.76 93.01 76.22 C 96.38 75.22 99.98 75.88 103.45 75.58 Z" />
</g>
<g id="#852ca0ff">
<path fill="#852ca0" opacity="1.00" d=" M 175.96 71.37 C 176.47 73.49 177.10 75.60 177.36 77.78 C 177.36 80.25 177.20 82.72 177.02 85.18 C 175.63 85.26 174.24 85.34 172.86 85.44 C 173.34 83.01 173.68 80.55 174.14 78.11 C 174.55 75.82 175.15 73.56 175.96 71.37 Z" />
</g>
<g id="#99578aff">
<path fill="#99578a" opacity="1.00" d=" M 203.72 71.66 C 204.73 71.96 205.74 72.27 206.75 72.60 C 206.44 73.70 204.35 75.05 205.26 76.10 C 206.29 77.20 207.45 78.17 208.57 79.19 C 206.44 79.76 204.32 80.34 202.19 80.90 C 203.57 82.23 204.93 83.59 206.16 85.06 C 204.19 86.83 201.93 88.23 199.46 89.19 C 198.10 93.69 197.08 98.57 193.54 101.95 C 196.16 91.59 201.43 82.09 203.72 71.66 Z" />
</g>
<g id="#73362eff">
<path fill="#73362e" opacity="1.00" d=" M 205.26 76.10 C 204.35 75.05 206.44 73.70 206.75 72.60 C 208.51 73.18 210.25 73.81 212.02 74.38 C 213.32 74.78 214.65 75.10 216.00 75.37 C 216.50 75.39 217.52 75.44 218.02 75.47 C 215.90 76.52 214.10 77.91 212.81 79.94 C 212.87 79.30 213.00 78.03 213.06 77.40 C 210.46 76.91 207.87 76.44 205.26 76.10 Z" />
</g>
<g id="#663330ff">
<path fill="#663330" opacity="1.00" d=" M 29.81 75.01 C 30.91 74.68 32.00 74.33 33.10 73.98 C 34.54 74.02 35.98 74.10 37.43 74.21 C 36.28 75.24 35.13 76.26 33.93 77.22 C 32.64 77.37 31.35 77.51 30.06 77.66 C 30.15 78.23 30.34 79.38 30.43 79.95 C 29.77 79.13 29.11 78.30 28.45 77.47 C 27.70 76.95 26.95 76.43 26.21 75.92 C 27.42 75.66 28.62 75.36 29.81 75.01 Z" />
</g>
<g id="#7624a8ff">
<path fill="#7624a8" opacity="1.00" d=" M 157.72 77.89 C 160.56 76.83 163.49 76.04 166.35 75.01 C 166.42 78.14 165.98 81.26 165.83 84.38 C 162.15 91.75 154.97 96.15 147.75 99.50 C 146.45 99.91 145.15 100.33 143.83 100.71 C 141.25 100.44 138.45 100.30 136.25 98.78 C 134.20 96.90 133.02 93.38 135.00 91.04 C 137.04 88.41 140.44 87.57 143.29 86.12 C 148.38 83.88 152.45 79.79 157.72 77.89 Z" />
</g>
<g id="#6e3d6bff">
<path fill="#6e3d6b" opacity="1.00" d=" M 205.26 76.10 C 207.87 76.44 210.46 76.91 213.06 77.40 C 213.00 78.03 212.87 79.30 212.81 79.94 C 212.46 84.56 210.29 88.76 209.05 93.17 C 208.53 93.29 207.48 93.53 206.96 93.65 C 206.92 92.25 206.88 90.86 206.85 89.47 C 206.30 89.51 205.19 89.60 204.63 89.65 C 205.16 88.13 205.68 86.60 206.16 85.06 C 204.93 83.59 203.57 82.23 202.19 80.90 C 204.32 80.34 206.44 79.76 208.57 79.19 C 207.45 78.17 206.29 77.20 205.26 76.10 Z" />
</g>
<g id="#e4b0d3ff">
<path fill="#e4b0d3" opacity="1.00" d=" M 30.06 77.66 C 31.35 77.51 32.64 77.37 33.93 77.22 C 35.11 77.33 36.29 77.48 37.47 77.67 C 37.48 78.14 37.50 79.08 37.52 79.55 C 35.73 80.10 33.94 80.66 32.16 81.24 C 34.20 82.14 36.28 82.98 38.39 83.74 C 37.81 87.83 37.42 91.94 37.09 96.06 C 36.66 95.69 35.79 94.94 35.36 94.57 C 32.92 90.12 31.72 84.89 30.43 79.95 C 30.34 79.38 30.15 78.23 30.06 77.66 Z" />
</g>
<g id="#b25fbbff">
<path fill="#b25fbb" opacity="1.00" d=" M 37.47 77.67 C 38.33 78.50 39.15 79.37 39.92 80.28 C 40.77 82.66 41.42 85.10 42.15 87.52 C 41.08 89.46 40.04 91.40 39.04 93.38 C 41.81 96.24 42.33 100.13 41.90 103.93 C 44.14 105.37 46.71 106.50 48.38 108.64 C 49.08 111.14 46.67 113.18 45.51 115.17 C 42.35 108.96 40.95 101.88 37.09 96.06 C 37.42 91.94 37.81 87.83 38.39 83.74 C 36.28 82.98 34.20 82.14 32.16 81.24 C 33.94 80.66 35.73 80.10 37.52 79.55 C 37.50 79.08 37.48 78.14 37.47 77.67 Z" />
</g>
<g id="#561382ff">
<path fill="#561382" opacity="1.00" d=" M 177.36 77.78 C 177.83 85.36 179.54 93.13 177.70 100.64 C 175.69 107.64 168.42 110.76 162.65 114.13 C 163.17 110.69 160.73 108.38 158.16 106.59 C 158.44 105.44 158.73 104.30 159.02 103.16 C 159.51 102.89 160.50 102.36 160.99 102.10 C 162.76 100.93 164.45 99.66 166.04 98.26 C 168.03 96.30 169.85 94.14 171.23 91.71 C 171.88 89.65 172.42 87.56 172.86 85.44 C 174.24 85.34 175.63 85.26 177.02 85.18 C 177.20 82.72 177.36 80.25 177.36 77.78 Z" />
</g>
<g id="#50235dff">
<path fill="#50235d" opacity="1.00" d=" M 45.32 79.17 C 47.96 86.45 50.19 93.87 52.64 101.22 C 53.38 103.59 54.58 105.78 56.04 107.77 C 55.08 109.61 54.09 111.43 53.08 113.25 C 52.57 113.34 51.54 113.52 51.02 113.60 C 48.06 104.91 44.99 96.26 42.15 87.52 C 41.42 85.10 40.77 82.66 39.92 80.28 C 41.72 79.91 43.52 79.54 45.32 79.17 Z" />
</g>
<g id="#873997ff">
<path fill="#873997" opacity="1.00" d=" M 74.37 79.75 C 75.17 80.97 76.02 82.15 76.80 83.39 C 77.43 84.70 77.97 86.05 78.43 87.43 C 79.37 91.22 80.03 95.07 80.80 98.90 C 80.11 99.03 78.72 99.28 78.03 99.41 L 77.21 99.52 C 75.69 97.43 74.14 95.37 72.82 93.16 C 73.69 93.45 74.57 93.76 75.44 94.06 C 74.65 89.33 74.53 84.53 74.37 79.75 Z" />
</g>
<g id="#e780e7ff">
<path fill="#e780e7" opacity="1.00" d=" M 113.08 89.04 C 114.41 86.58 115.69 84.09 116.95 81.59 C 118.39 82.02 119.83 82.46 121.27 82.90 C 121.21 85.73 121.05 88.57 120.87 91.40 C 117.84 92.01 114.83 92.68 111.83 93.41 C 111.93 92.36 112.03 91.31 112.12 90.27 C 112.32 88.43 112.60 86.59 112.87 84.76 C 112.92 86.19 112.99 87.61 113.08 89.04 Z" />
</g>
<g id="#832dadff">
<path fill="#832dad" opacity="1.00" d=" M 82.87 89.09 C 84.90 87.37 86.95 85.68 89.02 84.01 C 94.02 85.54 99.08 86.95 104.29 87.55 C 106.77 88.03 109.58 87.97 111.62 89.68 C 111.01 93.14 110.40 97.17 107.21 99.25 C 104.60 101.20 101.17 100.69 98.20 100.11 C 93.56 98.42 89.29 95.86 84.64 94.19 C 84.01 92.51 83.38 90.81 82.87 89.09 Z" />
</g>
<g id="#7a338eff">
<path fill="#7a338e" opacity="1.00" d=" M 199.46 89.19 C 201.93 88.23 204.19 86.83 206.16 85.06 C 205.68 86.60 205.16 88.13 204.63 89.65 C 202.68 95.37 200.13 100.89 198.60 106.75 C 197.76 110.03 196.45 113.16 194.88 116.16 C 193.86 114.43 192.83 112.71 191.80 110.99 C 193.15 110.44 194.49 109.89 195.85 109.34 C 195.08 106.87 194.31 104.41 193.54 101.95 C 197.08 98.57 198.10 93.69 199.46 89.19 Z" />
</g>
<g id="#a754b2ff">
<path fill="#a754b2" opacity="1.00" d=" M 78.43 87.43 C 79.94 87.71 81.44 87.99 82.95 88.28 L 82.87 89.09 C 83.38 90.81 84.01 92.51 84.64 94.19 C 84.34 94.22 83.73 94.27 83.43 94.29 C 83.84 96.54 84.38 98.77 84.89 101.00 C 84.38 101.36 83.35 102.07 82.84 102.43 C 81.19 101.49 79.61 100.45 78.03 99.41 C 78.72 99.28 80.11 99.03 80.80 98.90 C 80.03 95.07 79.37 91.22 78.43 87.43 Z" />
</g>
<g id="#9f4aaeff">
<path fill="#9f4aae" opacity="1.00" d=" M 39.04 93.38 C 40.04 91.40 41.08 89.46 42.15 87.52 C 44.99 96.26 48.06 104.91 51.02 113.60 C 51.54 113.52 52.57 113.34 53.08 113.25 C 51.26 116.32 49.26 120.67 44.92 119.76 C 44.83 120.06 44.64 120.67 44.55 120.97 L 44.28 121.78 C 43.29 119.63 42.52 117.38 42.04 115.07 C 42.62 115.85 43.21 116.63 43.81 117.39 C 44.24 116.84 45.08 115.73 45.51 115.17 C 46.67 113.18 49.08 111.14 48.38 108.64 C 46.71 106.50 44.14 105.37 41.90 103.93 C 42.33 100.13 41.81 96.24 39.04 93.38 Z" />
</g>
<g id="#bb64d3ff">
<path fill="#bb64d3" opacity="1.00" d=" M 165.96 89.87 C 167.70 90.53 169.46 91.14 171.23 91.71 C 169.85 94.14 168.03 96.30 166.04 98.26 C 163.69 97.42 161.33 96.58 158.98 95.75 C 161.40 93.91 163.66 91.86 165.96 89.87 Z" />
</g>
<g id="#5b2176ff">
<path fill="#5b2176" opacity="1.00" d=" M 204.63 89.65 C 205.19 89.60 206.30 89.51 206.85 89.47 C 206.88 90.86 206.92 92.25 206.96 93.65 C 207.48 93.53 208.53 93.29 209.05 93.17 C 207.03 99.42 204.89 105.64 202.88 111.90 C 201.61 115.91 199.54 119.77 199.30 124.04 C 200.23 127.99 201.91 131.74 202.41 135.81 L 201.88 135.31 C 198.90 130.70 192.26 131.45 188.42 134.46 C 184.07 138.97 181.97 145.13 177.78 149.79 C 174.23 153.60 173.18 158.80 171.08 163.40 C 171.40 157.13 170.69 150.77 171.74 144.56 C 173.27 141.34 176.36 139.25 178.46 136.44 C 181.11 133.33 181.79 129.19 182.67 125.34 C 187.08 125.69 191.54 125.31 195.76 123.91 C 194.81 122.10 193.86 120.29 192.85 118.50 C 193.88 118.33 194.91 118.17 195.94 118.00 C 195.68 117.54 195.14 116.62 194.88 116.16 C 196.45 113.16 197.76 110.03 198.60 106.75 C 200.13 100.89 202.68 95.37 204.63 89.65 Z" />
</g>
<g id="#e7beccff">
<path fill="#e7becc" opacity="1.00" d=" M 56.04 107.77 C 59.27 101.86 61.77 95.58 64.82 89.58 C 65.47 93.03 66.12 96.50 66.29 100.02 C 66.19 100.44 66.00 101.26 65.90 101.67 C 62.80 109.21 57.16 115.30 53.38 122.48 C 49.86 129.18 44.83 135.00 41.78 141.94 L 41.28 141.30 C 41.11 139.63 41.10 137.95 41.15 136.28 C 40.53 130.75 45.09 126.41 44.55 120.97 C 44.64 120.67 44.83 120.06 44.92 119.76 C 49.26 120.67 51.26 116.32 53.08 113.25 C 54.09 111.43 55.08 109.61 56.04 107.77 Z" />
</g>
<g id="#c777b9ff">
<path fill="#c777b9" opacity="1.00" d=" M 83.43 94.29 C 83.73 94.27 84.34 94.22 84.64 94.19 C 89.29 95.86 93.56 98.42 98.20 100.11 C 98.35 101.14 98.51 102.16 98.66 103.19 C 96.89 109.04 97.08 115.60 92.99 120.57 C 92.63 120.40 91.91 120.05 91.54 119.87 C 89.34 118.77 87.16 117.62 85.00 116.45 C 81.62 114.60 78.31 112.64 75.01 110.66 C 74.02 110.07 73.02 109.49 72.02 108.92 C 70.46 107.55 69.00 106.09 67.60 104.57 L 67.93 103.84 C 72.12 106.26 76.74 107.82 81.10 109.90 C 83.60 110.98 86.07 112.35 88.81 112.72 C 91.00 112.27 93.33 109.93 92.56 107.56 C 89.60 105.36 86.03 104.23 82.84 102.43 C 83.35 102.07 84.38 101.36 84.89 101.00 C 84.38 98.77 83.84 96.54 83.43 94.29 Z" />
</g>
<g id="#d79cddff">
<path fill="#d79cdd" opacity="1.00" d=" M 35.36 94.57 C 35.79 94.94 36.66 95.69 37.09 96.06 C 40.95 101.88 42.35 108.96 45.51 115.17 C 45.08 115.73 44.24 116.84 43.81 117.39 C 43.21 116.63 42.62 115.85 42.04 115.07 C 39.51 108.37 36.88 101.58 35.36 94.57 Z" />
</g>
<g id="#9b47bcff">
<path fill="#9b47bc" opacity="1.00" d=" M 147.75 99.50 C 151.74 99.18 155.80 98.35 158.98 95.75 C 161.33 96.58 163.69 97.42 166.04 98.26 C 164.45 99.66 162.76 100.93 160.99 102.10 C 155.26 101.80 149.54 101.36 143.83 100.71 C 145.15 100.33 146.45 99.91 147.75 99.50 Z" />
</g>
<g id="#db82caff">
<path fill="#db82ca" opacity="1.00" d=" M 66.29 100.02 C 67.04 99.08 67.84 98.18 68.64 97.27 C 71.41 98.29 74.24 99.25 77.21 99.52 L 78.03 99.41 C 79.61 100.45 81.19 101.49 82.84 102.43 C 86.03 104.23 89.60 105.36 92.56 107.56 C 93.33 109.93 91.00 112.27 88.81 112.72 C 86.07 112.35 83.60 110.98 81.10 109.90 C 76.74 107.82 72.12 106.26 67.93 103.84 C 67.23 103.14 66.55 102.42 65.90 101.67 C 66.00 101.26 66.19 100.44 66.29 100.02 Z" />
</g>
<g id="#a13fc3ff">
<path fill="#a13fc3" opacity="1.00" d=" M 110.44 99.46 C 113.27 97.55 116.85 98.06 120.08 97.94 C 120.05 98.66 119.99 100.10 119.95 100.81 C 119.63 102.19 119.20 103.54 118.66 104.86 C 116.92 103.84 115.16 102.87 113.38 101.93 C 108.21 107.67 106.65 115.73 101.09 121.14 C 101.64 116.12 101.83 111.07 102.30 106.04 C 104.94 103.76 107.49 101.34 110.44 99.46 Z" />
</g>
<g id="#ffefe3ff">
<path fill="#ffefe3" opacity="1.00" d=" M 119.95 100.81 C 121.02 100.72 122.09 100.64 123.15 100.56 C 123.51 101.69 123.88 102.81 124.26 103.94 C 122.49 107.42 120.31 110.70 117.54 113.46 C 117.29 112.51 116.79 110.61 116.54 109.66 C 116.68 109.21 116.97 108.31 117.11 107.86 C 117.64 106.87 118.16 105.87 118.66 104.86 C 119.20 103.54 119.63 102.19 119.95 100.81 Z" />
</g>
<g id="#824080ff">
<path fill="#824080" opacity="1.00" d=" M 123.15 100.56 C 124.49 102.67 125.92 104.71 127.30 106.80 C 127.78 108.04 128.21 109.30 128.64 110.57 C 128.82 112.44 128.90 114.31 129.06 116.19 C 128.68 115.35 128.30 114.52 127.92 113.68 C 126.96 111.42 126.05 109.13 125.23 106.81 C 124.90 105.85 124.57 104.89 124.26 103.94 C 123.88 102.81 123.51 101.69 123.15 100.56 Z" />
<path fill="#824080" opacity="1.00" d=" M 64.89 109.90 C 65.79 108.12 66.72 106.36 67.60 104.57 C 69.00 106.09 70.46 107.55 72.02 108.92 C 70.85 108.51 69.67 108.14 68.50 107.78 C 68.96 110.88 70.37 114.42 68.29 117.26 C 64.79 122.81 60.78 128.18 58.71 134.49 C 57.92 133.97 56.34 132.93 55.55 132.42 C 57.06 128.26 57.56 123.72 59.95 119.92 C 61.92 116.75 63.53 113.38 64.89 109.90 Z" />
</g>
<g id="#c384aaff">
<path fill="#c384aa" opacity="1.00" d=" M 53.38 122.48 C 57.16 115.30 62.80 109.21 65.90 101.67 C 66.55 102.42 67.23 103.14 67.93 103.84 L 67.60 104.57 C 66.72 106.36 65.79 108.12 64.89 109.90 C 59.98 116.90 55.27 124.04 50.54 131.16 C 47.97 135.25 45.45 139.38 43.19 143.65 C 42.84 143.23 42.13 142.37 41.78 141.94 C 44.83 135.00 49.86 129.18 53.38 122.48 Z" />
</g>
<g id="#8b31aeff">
<path fill="#8b31ae" opacity="1.00" d=" M 113.38 101.93 C 115.16 102.87 116.92 103.84 118.66 104.86 C 118.16 105.87 117.64 106.87 117.11 107.86 C 113.39 112.52 111.30 118.14 109.69 123.81 C 108.08 123.94 106.47 124.08 104.86 124.15 C 103.19 123.55 101.52 122.95 99.81 122.49 C 100.13 122.15 100.77 121.48 101.09 121.14 C 106.65 115.73 108.21 107.67 113.38 101.93 Z" />
</g>
<g id="#965298ff">
<path fill="#965298" opacity="1.00" d=" M 189.22 112.27 C 190.85 108.92 192.27 105.46 193.54 101.95 C 194.31 104.41 195.08 106.87 195.85 109.34 C 194.49 109.89 193.15 110.44 191.80 110.99 C 192.83 112.71 193.86 114.43 194.88 116.16 C 195.14 116.62 195.68 117.54 195.94 118.00 C 194.91 118.17 193.88 118.33 192.85 118.50 C 192.36 117.65 191.87 116.80 191.36 115.96 C 190.63 114.73 189.89 113.52 189.22 112.27 Z" />
</g>
<g id="#69238eff">
<path fill="#69238e" opacity="1.00" d=" M 155.94 104.20 C 156.97 103.88 158.00 103.53 159.02 103.16 C 158.73 104.30 158.44 105.44 158.16 106.59 C 160.73 108.38 163.17 110.69 162.65 114.13 C 160.39 115.36 158.14 116.62 155.85 117.78 C 155.29 118.04 154.17 118.54 153.62 118.80 C 144.49 121.62 135.57 125.00 126.91 129.04 C 120.98 132.34 114.70 128.42 108.82 127.10 C 107.50 126.12 106.20 125.10 104.86 124.15 C 106.47 124.08 108.08 123.94 109.69 123.81 C 111.30 118.14 113.39 112.52 117.11 107.86 C 116.97 108.31 116.68 109.21 116.54 109.66 C 115.85 111.81 115.07 113.94 114.36 116.09 C 114.11 117.31 113.89 118.55 113.86 119.80 C 116.11 121.73 118.96 123.22 121.96 123.30 C 124.82 122.75 127.30 121.14 129.82 119.77 C 129.57 118.57 129.32 117.38 129.06 116.19 C 128.90 114.31 128.82 112.44 128.64 110.57 C 130.72 114.60 132.16 121.85 138.00 121.18 C 144.24 119.37 150.10 116.21 155.36 112.40 C 154.36 109.66 154.29 106.71 155.94 104.20 Z" />
</g>
<g id="#b05ab7ff">
<path fill="#b05ab7" opacity="1.00" d=" M 92.99 120.57 C 97.08 115.60 96.89 109.04 98.66 103.19 C 99.87 104.13 101.09 105.09 102.30 106.04 C 101.83 111.07 101.64 116.12 101.09 121.14 C 100.77 121.48 100.13 122.15 99.81 122.49 C 98.76 122.38 97.71 122.26 96.66 122.12 C 95.42 121.65 94.20 121.12 92.99 120.57 Z" />
</g>
<g id="#ffdba2ff">
<path fill="#ffdba2" opacity="1.00" d=" M 124.26 103.94 C 124.57 104.89 124.90 105.85 125.23 106.81 C 122.29 110.60 121.27 115.33 120.86 120.01 C 117.83 120.33 115.46 118.93 114.36 116.09 C 115.07 113.94 115.85 111.81 116.54 109.66 C 116.79 110.61 117.29 112.51 117.54 113.46 C 120.31 110.70 122.49 107.42 124.26 103.94 Z" />
</g>
<g id="#7724a7ff">
<path fill="#7724a7" opacity="1.00" d=" M 134.87 111.15 C 141.29 107.21 148.84 106.28 155.94 104.20 C 154.29 106.71 154.36 109.66 155.36 112.40 C 150.10 116.21 144.24 119.37 138.00 121.18 C 132.16 121.85 130.72 114.60 128.64 110.57 C 128.21 109.30 127.78 108.04 127.30 106.80 C 129.71 108.44 132.29 109.80 134.87 111.15 Z" />
</g>
<g id="#f7be6dff">
<path fill="#f7be6d" opacity="1.00" d=" M 125.23 106.81 C 126.05 109.13 126.96 111.42 127.92 113.68 C 127.13 117.23 124.37 119.47 120.86 120.01 C 121.27 115.33 122.29 110.60 125.23 106.81 Z" />
</g>
<g id="#64247eff">
<path fill="#64247e" opacity="1.00" d=" M 68.50 107.78 C 69.67 108.14 70.85 108.51 72.02 108.92 C 73.02 109.49 74.02 110.07 75.01 110.66 C 73.95 111.18 72.89 111.70 71.84 112.22 C 73.81 114.05 75.79 115.88 77.77 117.70 C 72.77 122.77 68.22 128.58 65.77 135.31 C 65.40 139.99 72.13 142.09 71.61 146.90 C 71.08 152.59 70.20 158.33 71.14 164.03 C 66.57 160.63 61.98 157.00 58.89 152.13 C 55.15 146.86 58.30 140.26 58.71 134.49 C 60.78 128.18 64.79 122.81 68.29 117.26 C 70.37 114.42 68.96 110.88 68.50 107.78 Z" />
</g>
<g id="#9a5097ff">
<path fill="#9a5097" opacity="1.00" d=" M 50.54 131.16 C 55.27 124.04 59.98 116.90 64.89 109.90 C 63.53 113.38 61.92 116.75 59.95 119.92 C 57.56 123.72 57.06 128.26 55.55 132.42 C 55.10 133.48 54.65 134.54 54.19 135.60 C 52.93 134.15 51.72 132.67 50.54 131.16 Z" />
</g>
<g id="#441a5fff">
<path fill="#441a5f" opacity="1.00" d=" M 71.84 112.22 C 72.89 111.70 73.95 111.18 75.01 110.66 C 78.31 112.64 81.62 114.60 85.00 116.45 C 81.02 124.22 75.72 131.32 72.80 139.60 C 72.23 141.36 72.58 143.22 72.65 145.03 C 73.13 150.29 72.73 155.69 74.26 160.82 C 74.99 165.96 74.68 171.20 73.61 176.27 C 72.56 175.34 71.53 174.40 70.46 173.51 C 71.87 170.52 71.60 167.20 71.14 164.03 C 70.20 158.33 71.08 152.59 71.61 146.90 C 72.13 142.09 65.40 139.99 65.77 135.31 C 68.22 128.58 72.77 122.77 77.77 117.70 C 75.79 115.88 73.81 114.05 71.84 112.22 Z" />
</g>
<g id="#461b62ff">
<path fill="#461b62" opacity="1.00" d=" M 159.56 118.53 C 164.96 116.30 171.07 115.27 175.30 110.90 C 178.78 114.74 182.26 118.67 186.67 121.48 C 188.24 119.64 189.81 117.80 191.36 115.96 C 191.87 116.80 192.36 117.65 192.85 118.50 C 193.86 120.29 194.81 122.10 195.76 123.91 C 191.54 125.31 187.08 125.69 182.67 125.34 C 181.79 129.19 181.11 133.33 178.46 136.44 C 176.36 139.25 173.27 141.34 171.74 144.56 C 170.69 150.77 171.40 157.13 171.08 163.40 C 170.72 165.32 170.38 167.24 170.14 169.18 C 170.11 168.33 170.05 166.65 170.01 165.81 C 169.98 164.59 169.92 163.37 169.86 162.16 L 169.80 161.25 C 169.42 154.34 170.49 147.42 169.87 140.54 C 168.15 132.53 163.59 125.54 159.56 118.53 Z" />
</g>
<g id="#ea8ba5ff">
<path fill="#ea8ba5" opacity="1.00" d=" M 127.92 113.68 C 128.30 114.52 128.68 115.35 129.06 116.19 C 129.32 117.38 129.57 118.57 129.82 119.77 C 127.30 121.14 124.82 122.75 121.96 123.30 C 118.96 123.22 116.11 121.73 113.86 119.80 C 113.89 118.55 114.11 117.31 114.36 116.09 C 115.46 118.93 117.83 120.33 120.86 120.01 C 124.37 119.47 127.13 117.23 127.92 113.68 Z" />
</g>
<g id="#2b0e3eff">
<path fill="#2b0e3e" opacity="1.00" d=" M 72.80 139.60 C 75.72 131.32 81.02 124.22 85.00 116.45 C 87.16 117.62 89.34 118.77 91.54 119.87 C 89.96 122.06 88.70 124.60 86.56 126.32 C 84.72 127.01 82.81 127.47 80.97 128.16 C 79.89 129.59 79.33 131.32 78.74 133.00 C 78.69 134.66 78.70 136.32 78.78 137.98 C 78.20 136.90 77.58 135.84 76.96 134.79 C 75.64 142.81 74.99 150.93 75.15 159.05 C 78.63 158.82 82.93 159.55 85.28 156.29 L 85.69 155.78 C 88.09 161.83 90.88 167.85 95.19 172.80 C 98.49 176.66 102.73 179.52 106.89 182.35 C 107.89 183.04 108.88 183.73 109.88 184.43 C 110.62 184.95 111.37 185.47 112.11 186.00 C 113.73 187.65 115.22 189.43 116.72 191.20 C 104.43 189.28 91.49 187.24 81.18 179.73 C 78.01 177.68 78.47 173.47 77.83 170.22 C 77.56 166.79 75.99 163.71 74.26 160.82 C 72.73 155.69 73.13 150.29 72.65 145.03 C 72.58 143.22 72.23 141.36 72.80 139.60 Z" />
</g>
<g id="#240640ff">
<path fill="#240640" opacity="1.00" d=" M 153.62 118.80 C 154.17 118.54 155.29 118.04 155.85 117.78 C 157.08 118.03 158.32 118.29 159.56 118.53 C 163.59 125.54 168.15 132.53 169.87 140.54 C 170.49 147.42 169.42 154.34 169.80 161.25 C 168.63 153.56 169.11 145.31 165.18 138.32 C 156.88 150.10 156.76 166.58 145.15 176.19 C 145.95 170.78 147.46 165.51 149.35 160.39 C 151.35 154.80 152.12 148.89 152.96 143.05 C 155.56 139.93 159.07 137.06 159.86 132.87 C 160.43 127.40 156.33 123.10 153.62 118.80 Z" />
</g>
<g id="#521f42ff">
<path fill="#521f42" opacity="1.00" d=" M 126.91 129.04 C 135.57 125.00 144.49 121.62 153.62 118.80 C 156.33 123.10 160.43 127.40 159.86 132.87 C 159.07 137.06 155.56 139.93 152.96 143.05 C 150.06 143.80 147.17 144.58 144.22 145.06 C 142.86 144.96 141.51 144.79 140.17 144.58 C 139.51 144.38 138.19 144.00 137.52 143.81 C 135.51 142.96 133.56 141.97 131.59 141.02 C 127.10 138.64 121.80 136.88 116.80 138.80 C 114.88 139.40 113.05 140.26 111.24 141.13 C 109.52 141.98 107.83 142.88 106.10 143.69 C 104.62 144.19 103.10 144.57 101.58 144.89 C 99.02 144.71 96.48 144.33 93.93 144.16 C 91.90 142.25 89.87 140.34 88.09 138.20 C 86.43 135.61 84.94 132.93 83.25 130.36 C 81.75 131.24 80.25 132.12 78.74 133.00 C 79.33 131.32 79.89 129.59 80.97 128.16 C 82.81 127.47 84.72 127.01 86.56 126.32 C 88.70 124.60 89.96 122.06 91.54 119.87 C 91.91 120.05 92.63 120.40 92.99 120.57 C 94.20 121.12 95.42 121.65 96.66 122.12 C 94.44 123.26 92.14 124.25 89.81 125.17 C 90.10 125.52 90.66 126.21 90.94 126.56 C 89.76 129.73 88.87 133.77 91.56 136.46 C 96.46 141.27 104.83 142.51 110.67 138.69 C 112.97 137.26 113.92 134.58 115.13 132.30 C 114.19 131.54 113.25 130.78 112.32 130.01 C 111.15 129.04 110.00 128.05 108.82 127.10 C 114.70 128.42 120.98 132.34 126.91 129.04 M 132.76 128.99 C 131.35 129.89 129.97 130.84 128.59 131.80 C 129.27 132.97 129.94 134.15 130.67 135.30 C 134.44 142.06 144.73 141.98 149.97 137.00 C 153.22 134.76 154.38 130.10 151.93 126.83 C 152.35 126.27 153.17 125.15 153.58 124.60 C 146.33 123.19 139.00 125.30 132.76 128.99 Z" />
</g>
<g id="#9d585fff">
<path fill="#9d585f" opacity="1.00" d=" M 96.66 122.12 C 97.71 122.26 98.76 122.38 99.81 122.49 C 101.52 122.95 103.19 123.55 104.86 124.15 C 106.20 125.10 107.50 126.12 108.82 127.10 C 110.00 128.05 111.15 129.04 112.32 130.01 C 112.07 131.53 111.82 133.06 111.57 134.58 C 111.01 134.84 109.90 135.36 109.34 135.62 C 105.47 135.58 101.59 135.25 97.79 134.48 C 101.70 134.52 105.62 134.21 109.44 133.34 C 104.26 129.67 98.44 124.21 91.58 125.82 L 90.94 126.56 C 90.66 126.21 90.10 125.52 89.81 125.17 C 92.14 124.25 94.44 123.26 96.66 122.12 Z" />
</g>
<g id="#a3615aff">
<path fill="#a3615a" opacity="1.00" d=" M 132.76 128.99 C 139.00 125.30 146.33 123.19 153.58 124.60 C 153.17 125.15 152.35 126.27 151.93 126.83 L 151.47 126.05 C 144.67 123.89 138.66 129.73 133.87 133.79 C 138.54 134.58 143.33 134.52 147.91 133.21 C 146.23 134.84 144.39 136.79 141.90 136.95 C 138.60 136.97 135.50 135.66 132.41 134.69 C 132.53 132.79 132.65 130.89 132.76 128.99 Z" />
</g>
<g id="#fec2abff">
<path fill="#fec2ab" opacity="1.00" d=" M 91.58 125.82 C 98.44 124.21 104.26 129.67 109.44 133.34 C 105.62 134.21 101.70 134.52 97.79 134.48 C 96.44 133.38 95.13 132.23 93.88 131.02 C 93.15 129.27 92.38 127.54 91.58 125.82 Z" />
</g>
<g id="#fdc2aaff">
<path fill="#fdc2aa" opacity="1.00" d=" M 133.87 133.79 C 138.66 129.73 144.67 123.89 151.47 126.05 C 150.27 128.43 149.15 130.85 147.91 133.21 C 143.33 134.52 138.54 134.58 133.87 133.79 Z" />
</g>
<g id="#794041ff">
<path fill="#794041" opacity="1.00" d=" M 90.94 126.56 L 91.58 125.82 C 92.38 127.54 93.15 129.27 93.88 131.02 C 94.90 133.47 95.56 136.75 98.61 137.39 C 102.27 139.00 106.07 137.29 109.34 135.62 C 109.90 135.36 111.01 134.84 111.57 134.58 C 111.82 133.06 112.07 131.53 112.32 130.01 C 113.25 130.78 114.19 131.54 115.13 132.30 C 113.92 134.58 112.97 137.26 110.67 138.69 C 104.83 142.51 96.46 141.27 91.56 136.46 C 88.87 133.77 89.76 129.73 90.94 126.56 Z" />
</g>
<g id="#7f4544ff">
<path fill="#7f4544" opacity="1.00" d=" M 147.91 133.21 C 149.15 130.85 150.27 128.43 151.47 126.05 L 151.93 126.83 C 154.38 130.10 153.22 134.76 149.97 137.00 C 144.73 141.98 134.44 142.06 130.67 135.30 C 129.94 134.15 129.27 132.97 128.59 131.80 C 129.97 130.84 131.35 129.89 132.76 128.99 C 132.65 130.89 132.53 132.79 132.41 134.69 C 135.50 135.66 138.60 136.97 141.90 136.95 C 144.39 136.79 146.23 134.84 147.91 133.21 Z" />
</g>
<g id="#a648b3ff">
<path fill="#a648b3" opacity="1.00" d=" M 43.19 143.65 C 45.45 139.38 47.97 135.25 50.54 131.16 C 51.72 132.67 52.93 134.15 54.19 135.60 C 52.07 141.45 52.21 147.78 51.35 153.87 C 49.44 152.71 47.50 151.58 45.61 150.36 L 45.03 149.90 C 44.29 148.02 43.54 146.16 42.88 144.26 L 43.19 143.65 Z" />
</g>
<g id="#733669ff">
<path fill="#733669" opacity="1.00" d=" M 78.74 133.00 C 80.25 132.12 81.75 131.24 83.25 130.36 C 84.94 132.93 86.43 135.61 88.09 138.20 C 85.14 140.04 82.96 142.78 81.63 145.98 C 80.68 143.32 79.77 140.63 78.78 137.98 C 78.70 136.32 78.69 134.66 78.74 133.00 Z" />
</g>
<g id="#9e5c4eff">
<path fill="#9e5c4e" opacity="1.00" d=" M 93.88 131.02 C 95.13 132.23 96.44 133.38 97.79 134.48 C 101.59 135.25 105.47 135.58 109.34 135.62 C 106.07 137.29 102.27 139.00 98.61 137.39 C 95.56 136.75 94.90 133.47 93.88 131.02 Z" />
</g>
<g id="#702591ff">
<path fill="#702591" opacity="1.00" d=" M 188.42 134.46 C 192.26 131.45 198.90 130.70 201.88 135.31 C 202.11 139.11 202.15 143.22 199.74 146.40 L 199.30 147.08 C 199.08 144.33 198.90 141.57 198.75 138.81 C 196.42 138.76 193.42 137.42 191.80 139.78 C 187.35 145.13 184.82 151.87 179.78 156.79 C 175.60 160.86 172.01 165.69 171.04 171.60 C 171.84 171.82 173.43 172.27 174.23 172.49 C 172.83 173.59 171.47 174.74 170.11 175.89 C 170.12 173.65 170.13 171.41 170.14 169.18 C 170.38 167.24 170.72 165.32 171.08 163.40 C 173.18 158.80 174.23 153.60 177.78 149.79 C 181.97 145.13 184.07 138.97 188.42 134.46 Z" />
</g>
<g id="#882fa8ff">
<path fill="#882fa8" opacity="1.00" d=" M 54.19 135.60 C 54.65 134.54 55.10 133.48 55.55 132.42 C 56.34 132.93 57.92 133.97 58.71 134.49 C 58.30 140.26 55.15 146.86 58.89 152.13 C 61.98 157.00 66.57 160.63 71.14 164.03 C 71.60 167.20 71.87 170.52 70.46 173.51 C 65.31 169.61 60.19 165.67 54.96 161.87 C 54.98 162.37 55.03 163.35 55.05 163.84 C 53.83 162.62 52.56 161.44 51.39 160.17 C 48.94 157.23 47.37 153.72 45.61 150.36 C 47.50 151.58 49.44 152.71 51.35 153.87 C 52.21 147.78 52.07 141.45 54.19 135.60 Z" />
</g>
<g id="#290f27ff">
<path fill="#290f27" opacity="1.00" d=" M 76.96 134.79 C 77.58 135.84 78.20 136.90 78.78 137.98 C 79.77 140.63 80.68 143.32 81.63 145.98 C 82.90 149.40 84.13 152.83 85.28 156.29 C 82.93 159.55 78.63 158.82 75.15 159.05 C 74.99 150.93 75.64 142.81 76.96 134.79 Z" />
</g>
<g id="#652b7cff">
<path fill="#652b7c" opacity="1.00" d=" M 201.88 135.31 L 202.41 135.81 C 208.58 138.78 216.02 139.74 221.00 144.91 C 222.59 146.69 224.04 148.59 225.60 150.41 C 223.55 150.84 221.52 151.80 219.40 151.57 C 215.16 150.59 211.63 147.81 207.50 146.54 C 204.97 145.81 202.31 146.22 199.74 146.40 C 202.15 143.22 202.11 139.11 201.88 135.31 Z" />
</g>
<g id="#f5cfc3ff">
<path fill="#f5cfc3" opacity="1.00" d=" M 21.89 145.79 C 27.11 140.74 34.23 138.10 41.15 136.28 C 41.10 137.95 41.11 139.63 41.28 141.30 C 38.05 143.95 35.30 147.39 31.44 149.15 C 27.68 149.77 23.88 148.84 20.12 148.53 C 20.71 147.61 21.28 146.69 21.89 145.79 Z" />
</g>
<g id="#b55eabff">
<path fill="#b55eab" opacity="1.00" d=" M 116.80 138.80 C 121.80 136.88 127.10 138.64 131.59 141.02 C 129.36 143.86 126.86 146.51 124.01 148.74 C 123.60 149.07 122.78 149.73 122.37 150.06 C 122.43 147.08 122.55 144.09 122.97 141.14 C 123.11 140.55 123.41 139.39 123.55 138.80 C 121.30 138.77 119.05 138.73 116.80 138.80 Z" />
</g>
<g id="#892daaff">
<path fill="#892daa" opacity="1.00" d=" M 191.80 139.78 C 193.42 137.42 196.42 138.76 198.75 138.81 C 198.90 141.57 199.08 144.33 199.30 147.08 C 196.83 150.69 194.41 154.33 191.71 157.77 C 188.76 160.48 185.96 163.37 183.09 166.17 C 180.52 167.96 177.92 169.72 175.41 171.58 C 175.12 171.81 174.52 172.27 174.23 172.49 C 173.43 172.27 171.84 171.82 171.04 171.60 C 172.01 165.69 175.60 160.86 179.78 156.79 C 184.82 151.87 187.35 145.13 191.80 139.78 Z" />
</g>
<g id="#8a408dff">
<path fill="#8a408d" opacity="1.00" d=" M 81.63 145.98 C 82.96 142.78 85.14 140.04 88.09 138.20 C 89.87 140.34 91.90 142.25 93.93 144.16 C 92.77 144.13 91.61 144.13 90.46 144.16 C 90.38 144.55 90.22 145.33 90.14 145.72 C 89.76 147.60 89.41 149.49 89.07 151.38 C 87.92 152.83 86.81 154.31 85.69 155.78 L 85.28 156.29 C 84.13 152.83 82.90 149.40 81.63 145.98 Z" />
</g>
<g id="#e47ae7ff">
<path fill="#e47ae7" opacity="1.00" d=" M 111.24 141.13 C 113.05 140.26 114.88 139.40 116.80 138.80 C 119.05 138.73 121.30 138.77 123.55 138.80 C 123.41 139.39 123.11 140.55 122.97 141.14 C 122.17 144.07 121.28 146.97 120.45 149.89 C 116.66 147.85 112.72 145.42 111.24 141.13 Z" />
</g>
<g id="#0f031cff">
<path fill="#0f031c" opacity="1.00" d=" M 145.15 176.19 C 156.76 166.58 156.88 150.10 165.18 138.32 C 169.11 145.31 168.63 153.56 169.80 161.25 L 169.86 162.16 C 163.40 171.57 152.96 177.34 142.49 181.24 C 142.57 180.13 142.65 179.02 142.74 177.92 C 143.55 177.36 144.35 176.78 145.15 176.19 Z" />
</g>
<g id="#c252d9ff">
<path fill="#c252d9" opacity="1.00" d=" M 106.10 143.69 C 107.83 142.88 109.52 141.98 111.24 141.13 C 112.72 145.42 116.66 147.85 120.45 149.89 C 121.28 146.97 122.17 144.07 122.97 141.14 C 122.55 144.09 122.43 147.08 122.37 150.06 C 122.34 151.48 122.30 152.91 122.24 154.33 C 120.51 154.87 118.56 156.48 116.77 155.28 C 112.14 152.64 108.25 148.59 106.10 143.69 Z" />
</g>
<g id="#8e3b97ff">
<path fill="#8e3b97" opacity="1.00" d=" M 131.59 141.02 C 133.56 141.97 135.51 142.96 137.52 143.81 C 137.04 144.25 136.08 145.14 135.60 145.58 C 132.96 147.65 130.26 149.69 127.94 152.13 C 126.63 151.00 125.32 149.87 124.01 148.74 C 126.86 146.51 129.36 143.86 131.59 141.02 Z" />
</g>
<g id="#d697b1ff">
<path fill="#d697b1" opacity="1.00" d=" M 31.44 149.15 C 35.30 147.39 38.05 143.95 41.28 141.30 L 41.78 141.94 C 42.13 142.37 42.84 143.23 43.19 143.65 L 42.88 144.26 C 40.22 147.76 35.38 148.25 32.26 151.24 C 29.68 153.73 26.15 154.53 22.68 154.71 C 20.31 153.81 18.04 152.66 15.73 151.63 C 17.36 149.28 19.39 147.21 21.89 145.79 C 21.28 146.69 20.71 147.61 20.12 148.53 C 23.88 148.84 27.68 149.77 31.44 149.15 Z" />
</g>
<g id="#3a0865ff">
<path fill="#3a0865" opacity="1.00" d=" M 144.22 145.06 C 147.17 144.58 150.06 143.80 152.96 143.05 C 152.12 148.89 151.35 154.80 149.35 160.39 C 147.46 165.51 145.95 170.78 145.15 176.19 C 144.35 176.78 143.55 177.36 142.74 177.92 C 140.55 179.40 138.33 180.83 136.20 182.38 C 137.12 176.39 141.25 171.84 144.50 166.99 C 146.43 163.81 147.39 160.19 148.16 156.59 C 145.77 155.47 142.56 155.19 141.03 152.81 C 141.65 150.07 143.03 147.58 144.22 145.06 Z" />
</g>
<g id="#bf7496ff">
<path fill="#bf7496" opacity="1.00" d=" M 32.26 151.24 C 35.38 148.25 40.22 147.76 42.88 144.26 C 43.54 146.16 44.29 148.02 45.03 149.90 C 44.80 151.11 44.58 152.32 44.36 153.54 C 37.80 155.08 31.09 157.30 24.28 156.06 C 23.88 155.72 23.08 155.05 22.68 154.71 C 26.15 154.53 29.68 153.73 32.26 151.24 Z" />
</g>
<g id="#8829b6ff">
<path fill="#8829b6" opacity="1.00" d=" M 90.46 144.16 C 91.61 144.13 92.77 144.13 93.93 144.16 C 96.48 144.33 99.02 144.71 101.58 144.89 C 104.50 152.14 109.82 159.00 117.38 161.68 C 121.65 162.98 121.76 157.11 122.24 154.33 C 122.30 152.91 122.34 151.48 122.37 150.06 C 122.78 149.73 123.60 149.07 124.01 148.74 C 125.32 149.87 126.63 151.00 127.94 152.13 C 122.81 156.56 121.11 163.47 121.92 170.02 C 121.75 175.64 128.31 176.83 131.72 179.94 C 127.39 182.85 123.33 186.71 117.92 187.35 C 115.94 187.08 114.01 186.58 112.11 186.00 C 111.37 185.47 110.62 184.95 109.88 184.43 C 113.90 183.98 117.83 182.95 121.58 181.42 C 116.49 179.68 111.72 176.88 108.55 172.43 C 101.97 163.85 96.60 154.40 90.14 145.72 C 90.22 145.33 90.38 144.55 90.46 144.16 Z" />
</g>
<g id="#a338c8ff">
<path fill="#a338c8" opacity="1.00" d=" M 101.58 144.89 C 103.10 144.57 104.62 144.19 106.10 143.69 C 108.25 148.59 112.14 152.64 116.77 155.28 C 118.56 156.48 120.51 154.87 122.24 154.33 C 121.76 157.11 121.65 162.98 117.38 161.68 C 109.82 159.00 104.50 152.14 101.58 144.89 Z" />
</g>
<g id="#5d158eff">
<path fill="#5d158e" opacity="1.00" d=" M 137.52 143.81 C 138.19 144.00 139.51 144.38 140.17 144.58 C 137.79 150.07 132.94 155.82 134.72 162.08 C 137.99 163.69 141.49 164.87 144.50 166.99 C 141.25 171.84 137.12 176.39 136.20 182.38 C 135.47 182.93 134.76 183.49 134.05 184.06 C 129.20 186.88 123.50 188.26 117.92 187.35 C 123.33 186.71 127.39 182.85 131.72 179.94 C 134.21 178.02 137.68 176.06 137.62 172.47 C 134.71 170.72 131.25 170.29 128.31 168.62 C 126.30 166.19 126.85 162.79 128.21 160.20 C 130.64 155.31 133.21 150.49 135.60 145.58 C 136.08 145.14 137.04 144.25 137.52 143.81 Z" />
</g>
<g id="#490e7bff">
<path fill="#490e7b" opacity="1.00" d=" M 140.17 144.58 C 141.51 144.79 142.86 144.96 144.22 145.06 C 143.03 147.58 141.65 150.07 141.03 152.81 C 142.56 155.19 145.77 155.47 148.16 156.59 C 147.39 160.19 146.43 163.81 144.50 166.99 C 141.49 164.87 137.99 163.69 134.72 162.08 C 132.94 155.82 137.79 150.07 140.17 144.58 Z" />
</g>
<g id="#3c115aff">
<path fill="#3c115a" opacity="1.00" d=" M 221.00 144.91 C 224.15 146.32 226.46 148.93 228.14 151.88 C 225.78 153.01 223.40 154.11 220.92 154.97 C 216.45 156.40 212.14 158.25 207.72 159.81 C 203.63 161.34 199.44 159.04 195.28 159.33 C 190.89 160.94 187.19 163.97 183.09 166.17 C 185.96 163.37 188.76 160.48 191.71 157.77 C 194.92 155.30 198.02 152.39 201.95 151.13 C 205.13 152.31 207.64 155.11 211.06 155.60 C 216.48 155.45 221.50 153.12 226.56 151.43 C 226.32 151.17 225.84 150.66 225.60 150.41 C 224.04 148.59 222.59 146.69 221.00 144.91 Z" />
</g>
<g id="#9c3cc0ff">
<path fill="#9c3cc0" opacity="1.00" d=" M 90.14 145.72 C 96.60 154.40 101.97 163.85 108.55 172.43 C 111.72 176.88 116.49 179.68 121.58 181.42 C 117.83 182.95 113.90 183.98 109.88 184.43 C 108.88 183.73 107.89 183.04 106.89 182.35 C 107.40 182.00 108.43 181.29 108.94 180.93 C 100.89 172.09 95.93 161.07 89.07 151.38 C 89.41 149.49 89.76 147.60 90.14 145.72 Z" />
</g>
<g id="#6e1ca0ff">
<path fill="#6e1ca0" opacity="1.00" d=" M 127.94 152.13 C 130.26 149.69 132.96 147.65 135.60 145.58 C 133.21 150.49 130.64 155.31 128.21 160.20 C 126.85 162.79 126.30 166.19 128.31 168.62 C 131.25 170.29 134.71 170.72 137.62 172.47 C 137.68 176.06 134.21 178.02 131.72 179.94 C 128.31 176.83 121.75 175.64 121.92 170.02 C 121.11 163.47 122.81 156.56 127.94 152.13 Z" />
</g>
<g id="#511b72ff">
<path fill="#511b72" opacity="1.00" d=" M 199.74 146.40 C 202.31 146.22 204.97 145.81 207.50 146.54 C 211.63 147.81 215.16 150.59 219.40 151.57 C 221.52 151.80 223.55 150.84 225.60 150.41 C 225.84 150.66 226.32 151.17 226.56 151.43 C 221.50 153.12 216.48 155.45 211.06 155.60 C 207.64 155.11 205.13 152.31 201.95 151.13 C 198.02 152.39 194.92 155.30 191.71 157.77 C 194.41 154.33 196.83 150.69 199.30 147.08 L 199.74 146.40 Z" />
</g>
<g id="#a45896ff">
<path fill="#a45896" opacity="1.00" d=" M 45.03 149.90 L 45.61 150.36 C 47.37 153.72 48.94 157.23 51.39 160.17 C 48.92 161.63 46.39 163.91 43.31 163.36 C 39.05 162.65 34.95 161.21 30.79 160.09 C 28.32 159.31 26.29 157.62 24.28 156.06 C 31.09 157.30 37.80 155.08 44.36 153.54 C 44.58 152.32 44.80 151.11 45.03 149.90 Z" />
</g>
<g id="#b55cc0ff">
<path fill="#b55cc0" opacity="1.00" d=" M 85.69 155.78 C 86.81 154.31 87.92 152.83 89.07 151.38 C 95.93 161.07 100.89 172.09 108.94 180.93 C 108.43 181.29 107.40 182.00 106.89 182.35 C 102.73 179.52 98.49 176.66 95.19 172.80 C 90.88 167.85 88.09 161.83 85.69 155.78 Z" />
</g>
<g id="#270741ff">
<path fill="#270741" opacity="1.00" d=" M 207.72 159.81 C 212.14 158.25 216.45 156.40 220.92 154.97 C 213.89 160.58 206.48 165.73 199.90 171.91 C 199.91 171.40 199.91 170.39 199.91 169.88 C 196.12 172.35 192.87 175.50 189.76 178.75 C 175.13 193.03 158.03 205.48 138.18 211.23 C 127.62 212.22 116.79 212.56 106.62 209.08 C 106.94 207.63 107.26 206.19 107.58 204.74 C 105.76 204.14 103.93 203.54 102.15 202.83 C 99.99 201.74 97.97 200.42 95.98 199.07 C 102.72 200.47 109.14 203.16 115.97 204.19 C 124.04 205.47 132.50 205.89 140.40 203.44 C 149.39 200.65 157.44 195.51 164.88 189.84 C 170.79 185.41 175.78 179.83 182.15 176.01 C 180.11 179.04 177.95 182.00 175.98 185.09 C 183.48 181.28 189.84 175.55 195.67 169.56 C 189.90 167.04 184.13 170.43 179.16 173.17 C 177.91 173.50 176.66 173.78 175.41 174.06 C 175.41 173.44 175.41 172.20 175.41 171.58 C 177.92 169.72 180.52 167.96 183.09 166.17 C 187.19 163.97 190.89 160.94 195.28 159.33 C 199.44 159.04 203.63 161.34 207.72 159.81 Z" />
</g>
<g id="#7e3b8dff">
<path fill="#7e3b8d" opacity="1.00" d=" M 30.79 160.09 C 34.95 161.21 39.05 162.65 43.31 163.36 C 46.39 163.91 48.92 161.63 51.39 160.17 C 52.56 161.44 53.83 162.62 55.05 163.84 C 56.17 165.00 57.31 166.12 58.47 167.24 C 58.00 170.14 55.90 173.44 52.51 172.36 C 46.15 169.73 40.06 166.39 34.01 163.11 C 32.82 162.24 31.81 161.14 30.79 160.09 Z" />
</g>
<g id="#320f50ff">
<path fill="#320f50" opacity="1.00" d=" M 74.26 160.82 C 75.99 163.71 77.56 166.79 77.83 170.22 C 78.47 173.47 78.01 177.68 81.18 179.73 C 91.49 187.24 104.43 189.28 116.72 191.20 C 115.22 189.43 113.73 187.65 112.11 186.00 C 114.01 186.58 115.94 187.08 117.92 187.35 C 123.50 188.26 129.20 186.88 134.05 184.06 C 132.50 185.94 131.13 187.95 129.77 189.96 C 142.22 189.12 154.52 184.96 164.58 177.51 C 167.93 174.56 168.75 169.88 170.01 165.81 C 170.05 166.65 170.11 168.33 170.14 169.18 C 170.13 171.41 170.12 173.65 170.11 175.89 C 171.47 174.74 172.83 173.59 174.23 172.49 C 174.52 172.27 175.12 171.81 175.41 171.58 C 175.41 172.20 175.41 173.44 175.41 174.06 C 176.66 173.78 177.91 173.50 179.16 173.17 C 172.34 179.49 164.46 184.92 155.49 187.64 C 146.08 190.57 136.25 191.68 126.63 193.73 C 118.96 195.38 111.51 192.23 103.99 191.20 C 93.44 189.35 82.16 187.41 73.71 180.30 C 68.56 176.03 63.31 171.87 58.47 167.24 C 57.31 166.12 56.17 165.00 55.05 163.84 C 55.03 163.35 54.98 162.37 54.96 161.87 C 60.19 165.67 65.31 169.61 70.46 173.51 C 71.53 174.40 72.56 175.34 73.61 176.27 C 74.68 171.20 74.99 165.96 74.26 160.82 Z" />
</g>
<g id="#280d3fff">
<path fill="#280d3f" opacity="1.00" d=" M 142.49 181.24 C 152.96 177.34 163.40 171.57 169.86 162.16 C 169.92 163.37 169.98 164.59 170.01 165.81 C 168.75 169.88 167.93 174.56 164.58 177.51 C 154.52 184.96 142.22 189.12 129.77 189.96 C 131.13 187.95 132.50 185.94 134.05 184.06 C 134.76 183.49 135.47 182.93 136.20 182.38 C 138.33 180.83 140.55 179.40 142.74 177.92 C 142.65 179.02 142.57 180.13 142.49 181.24 Z" />
</g>
<g id="#4e1e70ff">
<path fill="#4e1e70" opacity="1.00" d=" M 34.01 163.11 C 40.06 166.39 46.15 169.73 52.51 172.36 C 55.90 173.44 58.00 170.14 58.47 167.24 C 63.31 171.87 68.56 176.03 73.71 180.30 C 82.16 187.41 93.44 189.35 103.99 191.20 C 111.51 192.23 118.96 195.38 126.63 193.73 C 136.25 191.68 146.08 190.57 155.49 187.64 C 164.46 184.92 172.34 179.49 179.16 173.17 C 184.13 170.43 189.90 167.04 195.67 169.56 C 189.84 175.55 183.48 181.28 175.98 185.09 C 177.95 182.00 180.11 179.04 182.15 176.01 C 175.78 179.83 170.79 185.41 164.88 189.84 C 157.44 195.51 149.39 200.65 140.40 203.44 C 132.50 205.89 124.04 205.47 115.97 204.19 C 109.14 203.16 102.72 200.47 95.98 199.07 C 97.97 200.42 99.99 201.74 102.15 202.83 C 102.25 203.46 102.45 204.70 102.55 205.32 C 89.14 201.42 77.27 193.84 65.68 186.28 C 60.13 182.57 54.00 179.91 48.08 176.87 C 42.97 172.75 38.65 167.73 34.01 163.11 Z" />
</g>
<g id="#4a2b51ff">
<path fill="#4a2b51" opacity="1.00" d=" M 189.76 178.75 C 192.87 175.50 196.12 172.35 199.91 169.88 C 199.91 170.39 199.91 171.40 199.90 171.91 C 195.87 177.42 190.48 181.84 185.69 186.70 C 168.28 202.91 146.53 216.88 122.01 217.41 C 115.74 217.05 109.09 216.82 103.40 213.83 C 110.93 213.12 118.43 214.85 125.96 214.07 C 130.16 213.80 134.23 212.62 138.18 211.23 C 158.03 205.48 175.13 193.03 189.76 178.75 Z" />
</g>
<g id="#361155ff">
<path fill="#361155" opacity="1.00" d=" M 48.08 176.87 C 54.00 179.91 60.13 182.57 65.68 186.28 C 77.27 193.84 89.14 201.42 102.55 205.32 C 102.45 204.70 102.25 203.46 102.15 202.83 C 103.93 203.54 105.76 204.14 107.58 204.74 C 107.26 206.19 106.94 207.63 106.62 209.08 C 116.79 212.56 127.62 212.22 138.18 211.23 C 134.23 212.62 130.16 213.80 125.96 214.07 C 118.43 214.85 110.93 213.12 103.40 213.83 C 98.72 213.90 94.49 211.50 90.32 209.69 C 78.65 204.43 68.49 196.47 59.00 188.01 C 55.18 184.48 51.09 181.16 48.08 176.87 Z" />
</g>
</svg>
