<?xml version="1.0" encoding="UTF-8" ?>
<!DOCTYPE svg PUBLIC "-//W3C//DTD SVG 1.1//EN" "http://www.w3.org/Graphics/SVG/1.1/DTD/svg11.dtd">
<svg width="250pt" height="250pt" viewBox="0 0 250 250" version="1.1" xmlns="http://www.w3.org/2000/svg">
<g id="#fcfeffff">
<path fill="#fcfeff" opacity="1.00" d=" M 0.00 0.00 L 13.37 0.00 C 6.49 0.42 0.42 6.42 0.00 13.32 L 0.00 0.00 Z" />
</g>
<g id="#0f1417ff">
<path fill="#0f1417" opacity="1.00" d=" M 13.37 0.00 L 237.33 0.00 C 243.72 0.86 249.21 6.10 250.00 12.55 L 250.00 237.57 C 249.16 243.89 243.87 249.18 237.54 250.00 L 12.29 250.00 C 5.90 248.99 0.63 243.55 0.00 237.08 L 0.00 13.32 C 0.42 6.42 6.49 0.42 13.37 0.00 M 108.40 44.53 C 108.41 45.05 108.43 46.08 108.44 46.60 C 113.18 47.95 118.11 48.47 123.03 48.45 C 130.76 48.40 138.65 48.40 146.06 45.89 C 144.18 44.29 141.99 43.06 139.52 42.71 C 129.22 40.91 118.35 41.14 108.40 44.53 M 63.81 69.88 C 62.16 73.34 60.99 77.58 62.74 81.23 C 64.25 84.59 68.86 84.21 71.57 82.65 C 77.98 78.86 81.75 71.91 83.99 65.03 C 85.10 61.46 85.83 56.85 82.40 54.31 C 74.00 55.92 67.56 62.50 63.81 69.88 M 166.97 58.84 C 165.86 64.40 168.90 69.77 171.51 74.48 C 174.27 78.87 177.42 83.40 182.25 85.69 C 184.11 86.65 186.78 87.04 188.28 85.23 C 190.03 82.37 189.25 78.84 188.18 75.88 C 185.51 69.10 180.39 63.36 174.19 59.59 C 172.07 58.44 169.18 57.40 166.97 58.84 M 125.42 71.84 C 125.24 73.95 125.27 76.07 125.27 78.18 C 123.58 78.25 121.89 78.33 120.20 78.41 C 120.19 79.55 120.18 80.68 120.16 81.81 C 121.90 81.84 123.65 81.86 125.40 81.88 C 125.33 84.13 125.47 86.38 125.39 88.63 C 126.09 88.73 127.50 88.95 128.20 89.05 C 128.31 86.71 128.32 84.37 128.38 82.04 C 130.14 81.86 131.90 81.67 133.66 81.47 C 133.53 80.66 133.25 79.03 133.12 78.22 C 131.41 78.21 129.71 78.22 128.00 78.22 C 127.36 76.07 129.14 70.99 125.42 71.84 M 201.58 103.03 C 200.77 104.61 199.47 106.05 199.24 107.85 C 199.37 109.95 200.04 111.97 200.55 114.00 C 201.87 113.02 203.20 112.04 204.55 111.10 C 202.92 102.35 200.85 93.42 196.15 85.75 C 196.88 91.82 200.44 97.05 201.58 103.03 M 48.12 100.12 C 45.93 108.66 43.48 117.69 45.18 126.53 C 46.31 121.18 46.17 115.68 47.15 110.32 C 48.12 111.09 49.09 111.88 50.06 112.66 L 49.82 113.85 C 52.60 113.24 53.03 110.38 52.88 108.00 C 53.09 105.58 50.52 104.46 49.16 102.89 C 50.20 96.89 53.67 91.65 54.46 85.60 C 50.77 89.60 49.78 95.12 48.12 100.12 M 161.18 100.63 C 161.41 105.92 162.35 111.14 163.60 116.28 C 159.57 117.48 155.25 117.11 151.23 118.31 C 148.27 119.30 149.69 123.07 149.44 125.38 C 154.37 126.29 159.31 125.23 164.20 124.55 C 164.44 129.47 164.32 134.44 165.14 139.32 C 165.14 139.57 165.16 140.07 165.17 140.32 C 165.97 140.64 167.58 141.29 168.39 141.61 C 169.57 140.26 171.18 138.97 171.15 136.99 C 171.43 132.46 170.72 127.96 170.43 123.45 C 174.10 122.51 178.07 122.30 181.42 120.40 C 182.97 118.04 181.64 115.39 180.50 113.21 C 176.84 113.99 173.19 114.76 169.54 115.53 C 168.75 110.57 167.90 105.60 166.55 100.76 C 165.92 100.39 164.65 99.65 164.02 99.28 C 163.31 99.62 161.89 100.30 161.18 100.63 M 85.38 109.50 C 76.14 114.04 76.84 130.49 86.97 133.53 C 94.51 135.14 99.92 126.72 98.87 119.95 C 99.16 113.17 92.25 106.06 85.38 109.50 M 205.10 126.31 C 205.87 121.32 205.47 116.24 204.60 111.29 C 204.06 116.29 204.61 121.33 205.10 126.31 M 190.80 145.85 C 186.41 153.27 182.91 162.23 185.36 170.91 C 187.88 170.84 190.41 170.16 192.05 168.11 C 197.61 162.11 201.34 154.23 202.12 146.06 C 202.08 143.69 202.36 140.35 199.88 139.07 C 195.58 138.64 193.01 142.85 190.80 145.85 M 51.35 141.59 C 48.51 143.72 48.59 147.77 49.08 150.94 C 50.41 158.27 53.96 165.44 59.72 170.29 C 61.91 172.05 65.23 173.92 67.89 172.01 C 70.03 169.61 69.86 166.11 69.52 163.12 C 68.53 156.68 65.71 150.47 61.45 145.53 C 58.91 142.91 55.19 139.92 51.35 141.59 M 124.37 151.50 C 118.68 152.73 113.60 157.24 112.43 163.05 C 110.32 171.22 116.64 180.18 125.08 180.75 C 134.18 182.15 143.75 174.33 142.91 164.88 C 143.02 155.71 132.84 149.35 124.37 151.50 M 149.20 198.76 C 153.21 198.77 157.58 197.27 159.73 193.67 C 160.51 192.59 160.56 191.48 159.88 190.34 C 154.94 190.25 149.85 193.63 149.20 198.76 M 92.99 192.07 C 92.64 197.31 99.65 200.52 104.05 198.50 C 102.48 194.34 97.66 189.63 92.99 192.07 M 126.42 201.29 C 126.28 202.68 126.14 204.06 126.01 205.45 C 123.14 205.50 120.13 205.22 117.47 206.52 C 119.71 206.85 121.97 206.99 124.23 207.11 C 124.59 207.44 125.30 208.11 125.65 208.45 C 129.14 206.87 133.02 206.95 136.71 206.22 C 134.37 205.55 131.92 205.48 129.50 205.38 C 130.03 203.97 130.55 202.57 131.05 201.15 C 129.51 201.19 127.96 201.24 126.42 201.29 Z" />
</g>
<g id="#fbfcfdff">
<path fill="#fbfcfd" opacity="1.00" d=" M 237.33 0.00 L 250.00 0.00 L 250.00 12.55 C 249.21 6.10 243.72 0.86 237.33 0.00 Z" />
</g>
<g id="#5db66bff">
<path fill="#5db66b" opacity="1.00" d=" M 108.40 44.53 C 118.35 41.14 129.22 40.91 139.52 42.71 C 141.99 43.06 144.18 44.29 146.06 45.89 C 138.65 48.40 130.76 48.40 123.03 48.45 C 118.11 48.47 113.18 47.95 108.44 46.60 C 108.43 46.08 108.41 45.05 108.40 44.53 Z" />
</g>
<g id="#57ba67ff">
<path fill="#57ba67" opacity="1.00" d=" M 63.81 69.88 C 67.56 62.50 74.00 55.92 82.40 54.31 C 85.83 56.85 85.10 61.46 83.99 65.03 C 81.75 71.91 77.98 78.86 71.57 82.65 C 68.86 84.21 64.25 84.59 62.74 81.23 C 60.99 77.58 62.16 73.34 63.81 69.88 Z" />
<path fill="#57ba67" opacity="1.00" d=" M 51.35 141.59 C 55.19 139.92 58.91 142.91 61.45 145.53 C 65.71 150.47 68.53 156.68 69.52 163.12 C 69.86 166.11 70.03 169.61 67.89 172.01 C 65.23 173.92 61.91 172.05 59.72 170.29 C 53.96 165.44 50.41 158.27 49.08 150.94 C 48.59 147.77 48.51 143.72 51.35 141.59 Z" />
</g>
<g id="#58ba66ff">
<path fill="#58ba66" opacity="1.00" d=" M 166.97 58.84 C 169.18 57.40 172.07 58.44 174.19 59.59 C 180.39 63.36 185.51 69.10 188.18 75.88 C 189.25 78.84 190.03 82.37 188.28 85.23 C 186.78 87.04 184.11 86.65 182.25 85.69 C 177.42 83.40 174.27 78.87 171.51 74.48 C 168.90 69.77 165.86 64.40 166.97 58.84 Z" />
</g>
<g id="#70b07cff">
<path fill="#70b07c" opacity="1.00" d=" M 125.42 71.84 C 129.14 70.99 127.36 76.07 128.00 78.22 C 129.71 78.22 131.41 78.21 133.12 78.22 C 133.25 79.03 133.53 80.66 133.66 81.47 C 131.90 81.67 130.14 81.86 128.38 82.04 C 128.32 84.37 128.31 86.71 128.20 89.05 C 127.50 88.95 126.09 88.73 125.39 88.63 C 125.47 86.38 125.33 84.13 125.40 81.88 C 123.65 81.86 121.90 81.84 120.16 81.81 C 120.18 80.68 120.19 79.55 120.20 78.41 C 121.89 78.33 123.58 78.25 125.27 78.18 C 125.27 76.07 125.24 73.95 125.42 71.84 Z" />
</g>
<g id="#67b373ff">
<path fill="#67b373" opacity="1.00" d=" M 201.58 103.03 C 200.44 97.05 196.88 91.82 196.15 85.75 C 200.85 93.42 202.92 102.35 204.55 111.10 C 203.20 112.04 201.87 113.02 200.55 114.00 C 200.04 111.97 199.37 109.95 199.24 107.85 C 199.47 106.05 200.77 104.61 201.58 103.03 Z" />
</g>
<g id="#74ae7eff">
<path fill="#74ae7e" opacity="1.00" d=" M 48.12 100.12 C 49.78 95.12 50.77 89.60 54.46 85.60 C 53.67 91.65 50.20 96.89 49.16 102.89 C 50.52 104.46 53.09 105.58 52.88 108.00 C 53.03 110.38 52.60 113.24 49.82 113.85 L 50.06 112.66 C 51.06 109.70 50.85 106.64 49.18 103.97 C 48.43 106.06 47.67 108.15 47.15 110.32 C 46.17 115.68 46.31 121.18 45.18 126.53 C 43.48 117.69 45.93 108.66 48.12 100.12 Z" />
<path fill="#74ae7e" opacity="1.00" d=" M 205.10 126.31 C 204.61 121.33 204.06 116.29 204.60 111.29 C 205.47 116.24 205.87 121.32 205.10 126.31 Z" />
<path fill="#74ae7e" opacity="1.00" d=" M 126.42 201.29 C 127.96 201.24 129.51 201.19 131.05 201.15 C 130.55 202.57 130.03 203.97 129.50 205.38 C 131.92 205.48 134.37 205.55 136.71 206.22 C 133.02 206.95 129.14 206.87 125.65 208.45 C 125.30 208.11 124.59 207.44 124.23 207.11 C 121.97 206.99 119.71 206.85 117.47 206.52 C 120.13 205.22 123.14 205.50 126.01 205.45 C 126.14 204.06 126.28 202.68 126.42 201.29 Z" />
</g>
<g id="#70af7aff">
<path fill="#70af7a" opacity="1.00" d=" M 161.18 100.63 C 161.89 100.30 163.31 99.62 164.02 99.28 C 164.65 99.65 165.92 100.39 166.55 100.76 C 167.90 105.60 168.75 110.57 169.54 115.53 C 173.19 114.76 176.84 113.99 180.50 113.21 C 181.64 115.39 182.97 118.04 181.42 120.40 C 178.07 122.30 174.10 122.51 170.43 123.45 C 170.72 127.96 171.43 132.46 171.15 136.99 C 171.18 138.97 169.57 140.26 168.39 141.61 C 167.58 141.29 165.97 140.64 165.17 140.32 C 165.16 140.07 165.14 139.57 165.14 139.32 C 164.94 134.46 165.04 129.58 165.46 124.73 C 165.92 129.89 166.15 135.07 167.08 140.17 C 172.34 135.51 167.29 127.92 170.43 122.43 C 173.03 120.42 176.62 120.41 179.73 119.64 C 179.66 118.42 179.64 117.19 179.67 115.96 C 176.05 116.16 172.37 116.87 168.76 116.21 C 167.21 114.90 167.20 112.65 166.76 110.82 C 166.40 108.08 165.30 105.54 163.96 103.15 C 163.77 107.52 164.23 111.93 163.60 116.28 C 162.35 111.14 161.41 105.92 161.18 100.63 Z" />
</g>
<g id="#56ba64ff">
<path fill="#56ba64" opacity="1.00" d=" M 163.96 103.15 C 165.30 105.54 166.40 108.08 166.76 110.82 C 167.20 112.65 167.21 114.90 168.76 116.21 C 172.37 116.87 176.05 116.16 179.67 115.96 C 179.64 117.19 179.66 118.42 179.73 119.64 C 176.62 120.41 173.03 120.42 170.43 122.43 C 167.29 127.92 172.34 135.51 167.08 140.17 C 166.15 135.07 165.92 129.89 165.46 124.73 C 165.04 129.58 164.94 134.46 165.14 139.32 C 164.32 134.44 164.44 129.47 164.20 124.55 C 159.31 125.23 154.37 126.29 149.44 125.38 C 149.69 123.07 148.27 119.30 151.23 118.31 C 155.25 117.11 159.57 117.48 163.60 116.28 C 164.23 111.93 163.77 107.52 163.96 103.15 Z" />
</g>
<g id="#5fbe6dff">
<path fill="#5fbe6d" opacity="1.00" d=" M 47.15 110.32 C 47.67 108.15 48.43 106.06 49.18 103.97 C 50.85 106.64 51.06 109.70 50.06 112.66 C 49.09 111.88 48.12 111.09 47.15 110.32 Z" />
</g>
<g id="#57bb67ff">
<path fill="#57bb67" opacity="1.00" d=" M 85.38 109.50 C 92.25 106.06 99.16 113.17 98.87 119.95 C 99.92 126.72 94.51 135.14 86.97 133.53 C 76.84 130.49 76.14 114.04 85.38 109.50 Z" />
</g>
<g id="#73b17eff">
<path fill="#73b17e" opacity="1.00" d=" M 190.80 145.85 C 193.01 142.85 195.58 138.64 199.88 139.07 C 202.36 140.35 202.08 143.69 202.12 146.06 C 201.34 154.23 197.61 162.11 192.05 168.11 C 190.41 170.16 187.88 170.84 185.36 170.91 C 182.91 162.23 186.41 153.27 190.80 145.85 M 193.74 144.82 C 189.76 150.47 186.85 157.09 186.24 164.01 C 185.66 166.66 188.57 167.38 190.43 168.13 C 195.53 160.26 201.83 151.50 200.40 141.62 C 197.61 140.15 195.20 142.73 193.74 144.82 Z" />
</g>
<g id="#56bc62ff">
<path fill="#56bc62" opacity="1.00" d=" M 193.74 144.82 C 195.20 142.73 197.61 140.15 200.40 141.62 C 201.83 151.50 195.53 160.26 190.43 168.13 C 188.57 167.38 185.66 166.66 186.24 164.01 C 186.85 157.09 189.76 150.47 193.74 144.82 Z" />
</g>
<g id="#57bb66ff">
<path fill="#57bb66" opacity="1.00" d=" M 124.37 151.50 C 132.84 149.35 143.02 155.71 142.91 164.88 C 143.75 174.33 134.18 182.15 125.08 180.75 C 116.64 180.18 110.32 171.22 112.43 163.05 C 113.60 157.24 118.68 152.73 124.37 151.50 Z" />
</g>
<g id="#62b26fff">
<path fill="#62b26f" opacity="1.00" d=" M 149.20 198.76 C 149.85 193.63 154.94 190.25 159.88 190.34 C 160.56 191.48 160.51 192.59 159.73 193.67 C 157.58 197.27 153.21 198.77 149.20 198.76 Z" />
</g>
<g id="#66b573ff">
<path fill="#66b573" opacity="1.00" d=" M 92.99 192.07 C 97.66 189.63 102.48 194.34 104.05 198.50 C 99.65 200.52 92.64 197.31 92.99 192.07 Z" />
</g>
<g id="#fcfdffff">
<path fill="#fcfdff" opacity="1.00" d=" M 0.00 237.08 C 0.63 243.55 5.90 248.99 12.29 250.00 L 0.00 250.00 L 0.00 237.08 Z" />
</g>
<g id="#fafefeff">
<path fill="#fafefe" opacity="1.00" d=" M 237.54 250.00 C 243.87 249.18 249.16 243.89 250.00 237.57 L 250.00 250.00 L 237.54 250.00 Z" />
</g>
</svg>
