<svg id="Layer_1" data-name="Layer 1" xmlns="http://www.w3.org/2000/svg" xmlns:xlink="http://www.w3.org/1999/xlink" viewBox="0 0 250 250"><defs><style>.cls-1{fill:url(#linear-gradient);}.cls-2{fill:#fff;}.cls-3{fill:url(#linear-gradient-2);}</style><linearGradient id="linear-gradient" x1="181" y1="-604" x2="431" y2="-604" gradientTransform="translate(-181 729)" gradientUnits="userSpaceOnUse"><stop offset="0" stop-color="#ffa50d"/><stop offset="1" stop-color="#fe5413"/></linearGradient><linearGradient id="linear-gradient-2" x1="268.25" y1="73.5" x2="344" y2="73.5" gradientTransform="matrix(1, 0, 0, -1, -181, 229)" xlink:href="#linear-gradient"/></defs><path id="SVGID" class="cls-1" d="M125,0A125,125,0,1,1,0,125,125,125,0,0,1,125,0Z"/><path id="SVGID-2" data-name="SVGID" class="cls-2" d="M173,86.75c-1.57,1.87-1.48,6-4,4.75,0,0-17.57-6.72-6.75-26.5,2.93-4.58,5.95-4.88,5.5-16,2.7,4.1,11.55,12.33,12.25,25.25.7,8.63-4.45,9.78-7,12.5Z"/><path id="SVGID-3" data-name="SVGID" class="cls-2" d="M159,117.5c4.32-1.45,11.32-3.75,11.75-18.5,6.68,10.22,29.32,24.57,18.5,68.5-4.4,17.12-20.8,25.45-36.25,31.75-9.65,4.1-19.5,10.95-23.5,21.25,0,0-73-9.23-70.75-81.75,1.83-37.63,37.07-52,52-79.5C118.7,41.9,116,24.5,116,24.5S162.5,53.42,141.5,98c-6.82,15.75,9.48,21.07,17.5,19.5Z"/><polygon id="SVGID-4" data-name="SVGID" class="cls-3" points="87.25 130.5 87.25 154.75 113 154.75 113 180.5 137.25 180.5 137.25 154.75 163 154.75 163 130.5 87.25 130.5"/></svg>