<?xml version="1.0" encoding="UTF-8" ?>
<!DOCTYPE svg PUBLIC "-//W3C//DTD SVG 1.1//EN" "http://www.w3.org/Graphics/SVG/1.1/DTD/svg11.dtd">
<svg width="250pt" height="250pt" viewBox="0 0 250 250" version="1.1" xmlns="http://www.w3.org/2000/svg">
<g id="#ffffffff">
<path fill="#ffffff" opacity="1.00" d=" M 0.00 0.00 L 119.98 0.00 C 91.77 1.28 64.02 12.13 42.83 30.88 C 17.22 52.91 1.62 85.74 0.00 119.43 L 0.00 0.00 Z" />
<path fill="#ffffff" opacity="1.00" d=" M 127.51 0.00 L 250.00 0.00 L 250.00 122.74 C 249.51 87.89 233.55 53.59 207.12 30.85 C 185.32 11.61 156.57 0.55 127.51 0.00 Z" />
<path fill="#ffffff" opacity="1.00" d=" M 0.00 127.30 C 0.50 162.38 16.68 196.87 43.40 219.61 C 65.17 238.59 93.74 249.48 122.59 250.00 L 0.00 250.00 L 0.00 127.30 Z" />
<path fill="#ffffff" opacity="1.00" d=" M 219.16 207.11 C 238.41 185.30 249.46 156.53 250.00 127.47 L 250.00 250.00 L 127.38 250.00 C 162.20 249.47 196.44 233.51 219.16 207.11 Z" />
</g>
<g id="#030303ff">
<path fill="#030303" opacity="1.00" d=" M 119.98 0.00 L 127.51 0.00 C 156.57 0.55 185.32 11.61 207.12 30.85 C 233.55 53.59 249.51 87.89 250.00 122.74 L 250.00 127.47 C 249.46 156.53 238.41 185.30 219.16 207.11 C 196.44 233.51 162.20 249.47 127.38 250.00 L 122.59 250.00 C 93.74 249.48 65.17 238.59 43.40 219.61 C 16.68 196.87 0.50 162.38 0.00 127.30 L 0.00 119.43 C 1.62 85.74 17.22 52.91 42.83 30.88 C 64.02 12.13 91.77 1.28 119.98 0.00 M 148.06 84.61 C 121.77 86.56 95.61 90.79 70.08 97.46 C 66.62 98.49 62.97 99.17 59.85 101.08 C 62.51 101.85 65.30 101.69 68.03 101.74 C 80.01 101.75 91.98 101.51 103.96 101.77 C 115.06 102.66 126.59 102.61 137.01 107.07 C 140.31 108.57 144.14 111.57 143.34 115.66 C 142.03 120.56 138.01 124.05 134.48 127.42 C 123.53 136.86 111.11 144.38 98.78 151.84 C 82.74 161.56 66.09 170.24 50.14 180.12 C 47.97 181.66 45.16 182.86 44.07 185.46 C 49.50 185.84 54.69 183.71 59.88 182.43 C 86.97 174.24 112.93 162.73 138.25 150.17 C 158.60 139.57 179.18 128.67 196.46 113.38 C 200.75 108.98 206.54 103.84 205.55 97.07 C 203.78 91.23 197.45 88.60 192.07 87.03 C 177.73 83.26 162.73 84.12 148.06 84.61 Z" />
</g>
<g id="#48fdaeff">
<path fill="#48fdae" opacity="1.00" d=" M 148.06 84.61 C 162.73 84.12 177.73 83.26 192.07 87.03 C 197.45 88.60 203.78 91.23 205.55 97.07 C 206.54 103.84 200.75 108.98 196.46 113.38 C 179.18 128.67 158.60 139.57 138.25 150.17 C 112.93 162.73 86.97 174.24 59.88 182.43 C 54.69 183.71 49.50 185.84 44.07 185.46 C 45.16 182.86 47.97 181.66 50.14 180.12 C 66.09 170.24 82.74 161.56 98.78 151.84 C 111.11 144.38 123.53 136.86 134.48 127.42 C 138.01 124.05 142.03 120.56 143.34 115.66 C 144.14 111.57 140.31 108.57 137.01 107.07 C 126.59 102.61 115.06 102.66 103.96 101.77 C 91.98 101.51 80.01 101.75 68.03 101.74 C 65.30 101.69 62.51 101.85 59.85 101.08 C 62.97 99.17 66.62 98.49 70.08 97.46 C 95.61 90.79 121.77 86.56 148.06 84.61 Z" />
</g>
</svg>
