<?xml version="1.0" encoding="UTF-8" ?>
<!DOCTYPE svg PUBLIC "-//W3C//DTD SVG 1.1//EN" "http://www.w3.org/Graphics/SVG/1.1/DTD/svg11.dtd">
<svg width="250pt" height="250pt" viewBox="0 0 250 250" version="1.1" xmlns="http://www.w3.org/2000/svg">
<g id="#ffffffff">
<path fill="#ffffff" opacity="1.00" d=" M 0.00 0.00 L 121.39 0.00 C 92.97 0.81 64.89 11.59 43.44 30.30 C 28.18 43.30 16.26 60.16 8.83 78.76 C 3.80 91.16 1.15 104.39 0.00 117.68 L 0.00 0.00 Z" />
<path fill="#ffffff" opacity="1.00" d=" M 130.49 0.00 L 250.00 0.00 L 250.00 250.00 L 131.28 250.00 C 142.02 249.24 152.72 247.42 162.98 244.11 C 188.01 236.16 210.34 220.03 225.81 198.80 C 241.80 177.05 250.45 149.99 249.89 122.98 C 249.54 88.32 233.80 54.17 207.69 31.39 C 186.58 12.43 158.77 1.42 130.49 0.00 Z" />
<path fill="#ffffff" opacity="1.00" d=" M 41.84 60.86 C 69.56 52.12 97.28 43.39 124.99 34.63 C 152.61 43.40 180.27 52.06 207.90 60.80 C 214.46 62.64 219.30 69.12 219.17 75.95 C 219.12 85.64 219.31 95.35 219.08 105.03 C 218.99 109.32 215.39 113.24 211.04 113.33 C 198.84 113.47 186.64 113.33 174.44 113.39 C 174.41 146.93 174.49 180.46 174.40 214.00 C 174.53 218.51 170.56 222.66 166.00 222.50 C 138.65 222.55 111.29 222.54 83.94 222.51 C 79.41 222.66 75.41 218.54 75.55 214.03 C 75.45 180.49 75.54 146.94 75.51 113.39 C 63.33 113.34 51.15 113.46 38.97 113.34 C 34.60 113.27 30.97 109.37 30.86 105.06 C 30.65 95.39 30.84 85.71 30.77 76.04 C 30.60 69.26 35.34 62.76 41.84 60.86 M 43.87 65.72 C 40.11 66.80 36.71 70.09 36.27 74.07 C 36.02 79.36 36.26 84.66 36.18 89.96 C 36.38 95.74 35.68 101.58 36.67 107.32 C 38.34 107.77 40.06 108.59 41.75 107.73 C 54.71 103.59 67.73 99.63 80.66 95.40 C 80.82 134.62 80.67 173.83 80.73 213.05 C 80.23 215.98 83.35 218.39 86.04 216.97 C 98.17 213.15 110.37 209.51 122.42 205.47 C 122.27 150.66 122.49 95.86 122.29 41.05 C 96.12 49.16 70.02 57.53 43.87 65.72 M 127.62 41.05 C 127.53 95.87 127.64 150.69 127.54 205.50 C 138.65 209.21 149.88 212.52 161.03 216.11 C 162.68 216.62 164.32 217.22 166.06 217.35 C 168.18 217.20 169.39 215.09 169.23 213.13 C 169.30 173.89 169.13 134.64 169.31 95.40 C 182.26 99.65 195.29 103.63 208.28 107.75 C 210.41 108.80 213.88 107.86 213.69 105.04 C 213.90 95.35 213.71 85.64 213.78 75.94 C 214.13 71.29 210.55 67.02 206.21 65.76 C 180.00 57.55 153.85 49.17 127.62 41.05 M 58.99 107.74 C 64.42 108.64 69.94 107.99 75.41 108.22 C 75.46 106.37 75.50 104.52 75.54 102.68 C 69.98 104.20 64.54 106.17 58.99 107.74 M 174.40 102.67 C 174.44 104.52 174.48 106.37 174.55 108.22 C 180.13 108.13 185.71 108.28 191.30 108.11 C 185.75 106.06 180.08 104.32 174.40 102.67 M 103.62 217.16 C 117.89 217.41 132.17 217.39 146.44 217.17 C 139.35 214.75 132.21 212.43 125.00 210.42 C 117.80 212.40 110.67 214.70 103.62 217.16 Z" />
<path fill="#ffffff" opacity="1.00" d=" M 0.00 131.20 C 1.74 164.21 16.89 196.33 41.70 218.24 C 62.72 237.21 90.34 248.38 118.56 250.00 L 0.00 250.00 L 0.00 131.20 Z" />
</g>
<g id="#f12aa7ff">
<path fill="#f12aa7" opacity="1.00" d=" M 121.39 0.00 L 130.49 0.00 C 158.77 1.42 186.58 12.43 207.69 31.39 C 233.80 54.17 249.54 88.32 249.89 122.98 C 250.45 149.99 241.80 177.05 225.81 198.80 C 210.34 220.03 188.01 236.16 162.98 244.11 C 152.72 247.42 142.02 249.24 131.28 250.00 L 118.56 250.00 C 90.34 248.38 62.72 237.21 41.70 218.24 C 16.89 196.33 1.74 164.21 0.00 131.20 L 0.00 117.68 C 1.15 104.39 3.80 91.16 8.83 78.76 C 16.26 60.16 28.18 43.30 43.44 30.30 C 64.89 11.59 92.97 0.81 121.39 0.00 M 41.84 60.86 C 35.34 62.76 30.60 69.26 30.77 76.04 C 30.84 85.71 30.65 95.39 30.86 105.06 C 30.97 109.37 34.60 113.27 38.97 113.34 C 51.15 113.46 63.33 113.34 75.51 113.39 C 75.54 146.94 75.45 180.49 75.55 214.03 C 75.41 218.54 79.41 222.66 83.94 222.51 C 111.29 222.54 138.65 222.55 166.00 222.50 C 170.56 222.66 174.53 218.51 174.40 214.00 C 174.49 180.46 174.41 146.93 174.44 113.39 C 186.64 113.33 198.84 113.47 211.04 113.33 C 215.39 113.24 218.99 109.32 219.08 105.03 C 219.31 95.35 219.12 85.64 219.17 75.95 C 219.30 69.12 214.46 62.64 207.90 60.80 C 180.27 52.06 152.61 43.40 124.99 34.63 C 97.28 43.39 69.56 52.12 41.84 60.86 Z" />
<path fill="#f12aa7" opacity="1.00" d=" M 43.87 65.72 C 70.02 57.53 96.12 49.16 122.29 41.05 C 122.49 95.86 122.27 150.66 122.42 205.47 C 110.37 209.51 98.17 213.15 86.04 216.97 C 83.35 218.39 80.23 215.98 80.73 213.05 C 80.67 173.83 80.82 134.62 80.66 95.40 C 67.73 99.63 54.71 103.59 41.75 107.73 C 40.06 108.59 38.34 107.77 36.67 107.32 C 35.68 101.58 36.38 95.74 36.18 89.96 C 36.26 84.66 36.02 79.36 36.27 74.07 C 36.71 70.09 40.11 66.80 43.87 65.72 Z" />
<path fill="#f12aa7" opacity="1.00" d=" M 127.62 41.05 C 153.85 49.17 180.00 57.55 206.21 65.76 C 210.55 67.02 214.13 71.29 213.78 75.94 C 213.71 85.64 213.90 95.35 213.69 105.04 C 213.88 107.86 210.41 108.80 208.28 107.75 C 195.29 103.63 182.26 99.65 169.31 95.40 C 169.13 134.64 169.30 173.89 169.23 213.13 C 169.39 215.09 168.18 217.20 166.06 217.35 C 164.32 217.22 162.68 216.62 161.03 216.11 C 149.88 212.52 138.65 209.21 127.54 205.50 C 127.64 150.69 127.53 95.87 127.62 41.05 Z" />
<path fill="#f12aa7" opacity="1.00" d=" M 58.99 107.74 C 64.54 106.17 69.98 104.20 75.54 102.68 C 75.50 104.52 75.46 106.37 75.41 108.22 C 69.94 107.99 64.42 108.64 58.99 107.74 Z" />
<path fill="#f12aa7" opacity="1.00" d=" M 174.40 102.67 C 180.08 104.32 185.75 106.06 191.30 108.11 C 185.71 108.28 180.13 108.13 174.55 108.22 C 174.48 106.37 174.44 104.52 174.40 102.67 Z" />
<path fill="#f12aa7" opacity="1.00" d=" M 103.62 217.16 C 110.67 214.70 117.80 212.40 125.00 210.42 C 132.21 212.43 139.35 214.75 146.44 217.17 C 132.17 217.39 117.89 217.41 103.62 217.16 Z" />
</g>
</svg>
