<?xml version="1.0" encoding="UTF-8" ?>
<!DOCTYPE svg PUBLIC "-//W3C//DTD SVG 1.1//EN" "http://www.w3.org/Graphics/SVG/1.1/DTD/svg11.dtd">
<svg width="237pt" height="250pt" viewBox="0 0 237 250" version="1.1" xmlns="http://www.w3.org/2000/svg">
<g id="#ffffffff">
<path fill="#ffffff" opacity="1.00" d=" M 0.00 0.00 L 237.00 0.00 L 237.00 250.00 L 0.00 250.00 L 0.00 0.00 M 73.58 31.50 C 73.60 46.66 73.50 61.82 73.62 76.97 C 73.50 79.11 76.39 79.30 77.94 79.34 C 124.64 79.34 171.34 79.31 218.05 79.35 C 219.65 79.34 221.20 78.91 222.75 78.53 C 222.55 62.83 222.77 47.12 222.63 31.42 C 172.95 31.41 123.26 31.25 73.58 31.50 M 14.73 97.59 C 14.57 113.47 14.39 129.37 14.83 145.25 C 20.54 145.66 26.28 145.51 32.00 145.50 C 42.30 145.25 52.64 146.04 62.91 145.09 C 63.75 139.09 63.31 133.03 63.38 127.00 C 63.25 117.23 63.66 107.44 63.17 97.67 C 55.46 97.09 47.72 97.51 40.00 97.40 C 31.58 97.50 23.15 97.15 14.73 97.59 M 73.71 97.63 C 73.52 113.50 73.40 129.39 73.77 145.25 C 76.84 145.43 79.92 145.57 83.00 145.54 C 115.47 145.35 147.96 145.70 180.43 145.37 C 180.76 129.44 180.69 113.49 180.46 97.55 C 147.98 97.17 115.49 97.56 83.00 97.36 C 79.90 97.33 76.80 97.46 73.71 97.63 M 73.67 163.67 C 73.10 171.77 73.62 179.89 73.50 188.00 C 73.61 195.78 73.09 203.57 73.69 211.33 C 79.11 211.95 84.56 211.87 90.00 211.80 C 100.53 211.57 111.08 212.18 121.60 211.55 C 122.25 203.71 121.77 195.85 121.87 188.00 C 121.75 179.83 122.26 171.65 121.61 163.50 C 111.75 163.10 101.87 163.54 92.00 163.39 C 85.89 163.39 79.77 163.10 73.67 163.67 Z" />
</g>
<g id="#02a5c2ff">
<path fill="#02a5c2" opacity="1.00" d=" M 73.58 31.50 C 123.26 31.25 172.95 31.41 222.63 31.42 C 222.77 47.12 222.55 62.83 222.75 78.53 C 221.20 78.91 219.65 79.34 218.05 79.35 C 171.34 79.31 124.64 79.34 77.94 79.34 C 76.39 79.30 73.50 79.11 73.62 76.97 C 73.50 61.82 73.60 46.66 73.58 31.50 Z" />
</g>
<g id="#5fcadeff">
<path fill="#5fcade" opacity="1.00" d=" M 14.73 97.59 C 23.15 97.15 31.58 97.50 40.00 97.40 C 47.72 97.51 55.46 97.09 63.17 97.67 C 63.66 107.44 63.25 117.23 63.38 127.00 C 63.31 133.03 63.75 139.09 62.91 145.09 C 52.64 146.04 42.30 145.25 32.00 145.50 C 26.28 145.51 20.54 145.66 14.83 145.25 C 14.39 129.37 14.57 113.47 14.73 97.59 Z" />
<path fill="#5fcade" opacity="1.00" d=" M 73.71 97.63 C 76.80 97.46 79.90 97.33 83.00 97.36 C 115.49 97.56 147.98 97.17 180.46 97.55 C 180.69 113.49 180.76 129.44 180.43 145.37 C 147.96 145.70 115.47 145.35 83.00 145.54 C 79.92 145.57 76.84 145.43 73.77 145.25 C 73.40 129.39 73.52 113.50 73.71 97.63 Z" />
</g>
<g id="#abebf4ff">
<path fill="#abebf4" opacity="1.00" d=" M 73.67 163.67 C 79.77 163.10 85.89 163.39 92.00 163.39 C 101.87 163.54 111.75 163.10 121.61 163.50 C 122.26 171.65 121.75 179.83 121.87 188.00 C 121.77 195.85 122.25 203.71 121.60 211.55 C 111.08 212.18 100.53 211.57 90.00 211.80 C 84.56 211.87 79.11 211.95 73.69 211.33 C 73.09 203.57 73.61 195.78 73.50 188.00 C 73.62 179.89 73.10 171.77 73.67 163.67 Z" />
</g>
</svg>
