<?xml version="1.0" encoding="UTF-8" ?>
<!DOCTYPE svg PUBLIC "-//W3C//DTD SVG 1.1//EN" "http://www.w3.org/Graphics/SVG/1.1/DTD/svg11.dtd">
<svg width="250pt" height="250pt" viewBox="0 0 250 250" version="1.1" xmlns="http://www.w3.org/2000/svg">
<g id="#ffffffff">
<path fill="#ffffff" opacity="1.00" d=" M 0.00 0.00 L 83.28 0.00 C 55.55 16.72 27.77 33.34 0.00 49.99 L 0.00 0.00 Z" />
<path fill="#ffffff" opacity="1.00" d=" M 83.53 0.00 L 233.31 0.00 C 211.12 13.99 188.78 27.75 166.62 41.79 C 166.65 78.19 166.64 114.59 166.63 150.98 C 166.66 164.63 164.15 178.33 158.69 190.86 C 141.22 189.36 124.28 180.32 113.86 166.11 C 105.35 154.49 101.35 140.12 100.38 125.90 C 99.72 112.61 99.76 99.28 99.98 85.97 C 99.61 60.03 100.20 34.05 99.78 8.14 C 94.31 5.54 88.88 2.83 83.53 0.00 Z" />
<path fill="#ffffff" opacity="1.00" d=" M 233.52 0.00 L 250.00 0.00 L 250.00 8.36 C 244.53 5.51 238.94 2.94 233.52 0.00 Z" />
<path fill="#ffffff" opacity="1.00" d=" M 16.83 58.09 C 39.12 45.05 61.19 31.60 83.33 18.29 C 83.45 51.53 83.32 84.76 83.39 118.00 C 83.42 137.69 88.50 157.82 100.17 173.91 C 111.78 190.16 129.58 201.52 148.92 206.19 C 139.62 218.30 125.69 226.37 111.13 230.51 C 79.93 239.83 43.38 224.86 27.58 196.39 C 19.12 181.45 16.34 163.96 16.64 146.97 C 16.77 117.35 16.39 87.70 16.83 58.09 Z" />
<path fill="#ffffff" opacity="1.00" d=" M 183.50 49.80 C 200.19 39.66 216.59 29.01 233.29 18.88 C 233.45 48.57 233.32 78.26 233.36 107.95 C 233.30 114.95 233.63 122.00 232.67 128.96 C 231.18 145.25 225.18 161.68 213.30 173.27 C 203.29 183.02 189.90 189.08 176.09 190.82 C 180.70 178.73 182.94 165.85 183.32 152.94 C 183.51 118.57 183.15 84.18 183.50 49.80 Z" />
<path fill="#ffffff" opacity="1.00" d=" M 234.75 171.63 C 244.83 156.67 249.38 138.57 250.00 120.69 L 250.00 250.00 L 94.74 250.00 C 105.70 249.48 116.54 246.85 126.60 242.46 C 133.16 239.67 139.15 235.78 145.35 232.30 C 163.80 221.76 182.13 211.00 200.63 200.58 C 214.31 194.19 226.36 184.22 234.75 171.63 Z" />
<path fill="#ffffff" opacity="1.00" d=" M 0.00 155.57 C 1.11 177.97 8.44 200.54 23.28 217.66 C 38.95 236.29 62.29 247.95 86.49 250.00 L 0.00 250.00 L 0.00 155.57 Z" />
</g>
<g id="#00a2e8ff">
<path fill="#00a2e8" opacity="1.00" d=" M 83.28 0.00 L 83.53 0.00 C 88.88 2.83 94.31 5.54 99.78 8.14 C 100.20 34.05 99.61 60.03 99.98 85.97 C 99.76 99.28 99.72 112.61 100.38 125.90 C 101.35 140.12 105.35 154.49 113.86 166.11 C 124.28 180.32 141.22 189.36 158.69 190.86 C 164.15 178.33 166.66 164.63 166.63 150.98 C 166.64 114.59 166.65 78.19 166.62 41.79 C 188.78 27.75 211.12 13.99 233.31 0.00 L 233.52 0.00 C 238.94 2.94 244.53 5.51 250.00 8.36 L 250.00 120.69 C 249.38 138.57 244.83 156.67 234.75 171.63 C 226.36 184.22 214.31 194.19 200.63 200.58 C 182.13 211.00 163.80 221.76 145.35 232.30 C 139.15 235.78 133.16 239.67 126.60 242.46 C 116.54 246.85 105.70 249.48 94.74 250.00 L 86.49 250.00 C 62.29 247.95 38.95 236.29 23.28 217.66 C 8.44 200.54 1.11 177.97 0.00 155.57 L 0.00 49.99 C 27.77 33.34 55.55 16.72 83.28 0.00 M 16.83 58.09 C 16.39 87.70 16.77 117.35 16.64 146.97 C 16.34 163.96 19.12 181.45 27.58 196.39 C 43.38 224.86 79.93 239.83 111.13 230.51 C 125.69 226.37 139.62 218.30 148.92 206.19 C 129.58 201.52 111.78 190.16 100.17 173.91 C 88.50 157.82 83.42 137.69 83.39 118.00 C 83.32 84.76 83.45 51.53 83.33 18.29 C 61.19 31.60 39.12 45.05 16.83 58.09 M 183.50 49.80 C 183.15 84.18 183.51 118.57 183.32 152.94 C 182.94 165.85 180.70 178.73 176.09 190.82 C 189.90 189.08 203.29 183.02 213.30 173.27 C 225.18 161.68 231.18 145.25 232.67 128.96 C 233.63 122.00 233.30 114.95 233.36 107.95 C 233.32 78.26 233.45 48.57 233.29 18.88 C 216.59 29.01 200.19 39.66 183.50 49.80 Z" />
</g>
</svg>
