<?xml version="1.0" encoding="UTF-8" ?>
<!DOCTYPE svg PUBLIC "-//W3C//DTD SVG 1.1//EN" "http://www.w3.org/Graphics/SVG/1.1/DTD/svg11.dtd">
<svg width="250pt" height="250pt" viewBox="0 0 250 250" version="1.1" xmlns="http://www.w3.org/2000/svg">
<g id="#ffffffff">
<path fill="#ffffff" opacity="1.00" d=" M 0.00 0.00 L 119.38 0.00 C 91.39 1.39 63.91 12.22 42.86 30.78 C 17.65 52.41 2.26 84.47 0.00 117.52 L 0.00 0.00 Z" />
<path fill="#ffffff" opacity="1.00" d=" M 130.70 0.00 L 250.00 0.00 L 250.00 119.42 C 248.43 85.23 232.33 51.95 206.11 29.88 C 185.23 11.86 158.20 1.39 130.70 0.00 Z" />
<path fill="#ffffff" opacity="1.00" d=" M 0.00 130.60 C 0.97 148.01 5.28 165.31 13.18 180.90 C 26.24 207.23 48.95 228.59 76.02 240.04 C 89.14 245.75 103.28 248.74 117.50 250.00 L 0.00 250.00 L 0.00 130.60 Z" />
<path fill="#ffffff" opacity="1.00" d=" M 219.18 207.20 C 237.59 186.38 248.31 159.25 250.00 131.57 L 250.00 250.00 L 129.73 250.00 C 163.73 248.75 196.93 232.98 219.18 207.20 Z" />
</g>
<g id="#dd5a57ff">
<path fill="#dd5a57" opacity="1.00" d=" M 119.38 0.00 L 130.70 0.00 C 158.20 1.39 185.23 11.86 206.11 29.88 C 232.33 51.95 248.43 85.23 250.00 119.42 L 250.00 131.57 C 248.31 159.25 237.59 186.38 219.18 207.20 C 196.93 232.98 163.73 248.75 129.73 250.00 L 117.50 250.00 C 103.28 248.74 89.14 245.75 76.02 240.04 C 48.95 228.59 26.24 207.23 13.18 180.90 C 5.28 165.31 0.97 148.01 0.00 130.60 L 0.00 117.52 C 2.26 84.47 17.65 52.41 42.86 30.78 C 63.91 12.22 91.39 1.39 119.38 0.00 M 106.63 49.40 C 108.20 51.57 111.41 51.11 113.58 52.42 C 118.05 54.33 119.78 59.45 119.78 63.97 C 120.23 78.18 120.14 92.42 119.88 106.63 C 110.18 106.59 100.49 106.55 90.80 106.66 C 90.11 108.18 90.06 109.78 90.79 111.30 C 100.61 111.55 110.44 111.05 120.24 111.56 C 119.79 131.70 120.82 151.87 119.52 171.98 C 118.83 179.10 117.29 186.80 112.09 192.08 C 106.16 197.93 97.05 198.85 89.17 197.76 C 79.57 196.67 70.41 191.06 65.98 182.34 C 74.90 188.90 87.35 190.04 97.39 185.44 C 103.32 182.72 107.85 176.68 107.82 170.02 C 108.23 164.97 106.45 159.77 102.76 156.25 C 97.86 151.39 90.68 149.88 84.01 149.78 C 76.49 149.94 68.28 152.32 63.71 158.69 C 59.65 164.28 59.99 171.71 61.47 178.13 C 63.30 186.41 69.14 193.66 76.92 197.09 C 87.26 201.99 98.98 200.61 110.04 200.45 C 123.81 199.50 138.51 197.40 149.71 188.63 C 158.40 181.92 162.73 170.79 162.73 160.01 C 162.76 143.85 162.76 127.69 162.72 111.54 C 171.17 111.25 179.63 111.68 188.08 111.33 C 190.63 110.44 189.73 106.33 187.04 106.64 C 178.93 106.47 170.82 106.74 162.71 106.51 C 162.79 93.34 162.71 80.16 162.75 66.98 C 163.02 62.45 163.17 57.07 166.98 53.94 C 169.37 51.79 172.67 51.42 175.55 50.31 C 175.68 50.07 175.94 49.60 176.07 49.36 C 152.92 49.29 129.77 49.22 106.63 49.40 Z" />
</g>
<g id="#0a2359ff">
<path fill="#0a2359" opacity="1.00" d=" M 106.63 49.40 C 129.77 49.22 152.92 49.29 176.07 49.36 C 175.94 49.60 175.68 50.07 175.55 50.31 C 172.67 51.42 169.37 51.79 166.98 53.94 C 163.17 57.07 163.02 62.45 162.75 66.98 C 162.71 80.16 162.79 93.34 162.71 106.51 C 170.82 106.74 178.93 106.47 187.04 106.64 C 189.73 106.33 190.63 110.44 188.08 111.33 C 179.63 111.68 171.17 111.25 162.72 111.54 C 162.76 127.69 162.76 143.85 162.73 160.01 C 162.73 170.79 158.40 181.92 149.71 188.63 C 138.51 197.40 123.81 199.50 110.04 200.45 C 98.98 200.61 87.26 201.99 76.92 197.09 C 69.14 193.66 63.30 186.41 61.47 178.13 C 59.99 171.71 59.65 164.28 63.71 158.69 C 68.28 152.32 76.49 149.94 84.01 149.78 C 90.68 149.88 97.86 151.39 102.76 156.25 C 106.45 159.77 108.23 164.97 107.82 170.02 C 107.85 176.68 103.32 182.72 97.39 185.44 C 87.35 190.04 74.90 188.90 65.98 182.34 C 70.41 191.06 79.57 196.67 89.17 197.76 C 97.05 198.85 106.16 197.93 112.09 192.08 C 117.29 186.80 118.83 179.10 119.52 171.98 C 120.82 151.87 119.79 131.70 120.24 111.56 C 110.44 111.05 100.61 111.55 90.79 111.30 C 90.06 109.78 90.11 108.18 90.80 106.66 C 100.49 106.55 110.18 106.59 119.88 106.63 C 120.14 92.42 120.23 78.18 119.78 63.97 C 119.78 59.45 118.05 54.33 113.58 52.42 C 111.41 51.11 108.20 51.57 106.63 49.40 Z" />
</g>
</svg>
