<?xml version="1.0" encoding="UTF-8" ?>
<!DOCTYPE svg PUBLIC "-//W3C//DTD SVG 1.1//EN" "http://www.w3.org/Graphics/SVG/1.1/DTD/svg11.dtd">
<svg width="250pt" height="250pt" viewBox="0 0 250 250" version="1.1" xmlns="http://www.w3.org/2000/svg">
<g id="#000000ff">
<path fill="#000000" opacity="1.00" d=" M 41.33 0.00 L 42.51 0.00 C 43.25 1.98 44.38 3.79 45.70 5.43 C 55.18 17.19 64.20 29.31 73.76 41.00 C 62.23 52.79 51.06 64.91 39.67 76.82 C 40.20 61.56 40.52 46.29 40.69 31.02 C 41.40 20.70 41.49 10.34 41.33 0.00 Z" />
<path fill="#000000" opacity="1.00" d=" M 174.49 41.07 C 185.26 27.53 195.95 13.90 206.39 0.09 C 206.82 12.67 206.26 25.28 207.41 37.82 C 207.49 47.54 207.67 57.26 207.67 66.98 C 207.62 70.03 208.10 73.05 208.53 76.06 C 206.26 75.73 205.26 73.63 203.79 72.21 C 194.54 62.77 185.36 53.27 175.98 43.96 C 175.22 43.15 174.02 42.36 174.49 41.07 Z" />
<path fill="#000000" opacity="1.00" d=" M 69.97 68.00 C 72.93 65.26 75.67 62.27 78.98 59.94 C 95.56 87.27 112.80 114.20 129.57 141.41 C 132.48 146.66 137.49 150.16 141.78 154.20 C 153.05 164.59 164.46 174.84 175.68 185.30 C 171.24 201.78 166.80 218.27 162.28 234.73 C 153.73 239.88 145.04 244.78 136.53 250.00 L 127.61 250.00 C 126.37 249.10 125.17 248.16 123.97 247.21 C 122.87 248.15 121.79 249.10 120.66 250.00 L 111.41 250.00 C 103.94 245.73 96.62 241.20 89.11 237.01 C 87.51 235.95 85.30 235.15 85.05 232.96 C 80.89 217.97 76.48 203.05 72.41 188.04 C 72.06 185.52 69.88 184.15 67.85 183.01 C 53.46 174.67 39.32 165.92 24.90 157.64 C 30.63 157.21 36.37 157.67 42.10 157.27 C 29.11 150.94 16.19 144.46 3.09 138.36 C 3.27 138.02 3.61 137.35 3.78 137.01 C 15.76 130.73 26.94 123.01 39.04 116.97 C 39.27 116.57 39.72 115.79 39.95 115.39 C 31.75 116.49 23.55 117.97 15.24 117.76 C 20.26 113.98 24.54 109.36 29.29 105.28 C 42.84 92.84 56.35 80.36 69.97 68.00 M 63.28 123.43 C 66.18 128.62 68.25 134.31 72.03 138.98 C 76.44 144.52 82.58 149.78 90.06 149.69 C 96.73 150.14 102.76 146.68 108.02 142.98 C 93.78 136.71 79.61 130.25 65.42 123.89 C 64.88 123.77 63.82 123.54 63.28 123.43 M 110.06 222.62 C 109.28 224.20 108.40 225.73 107.45 227.21 C 112.01 233.60 116.72 239.88 121.09 246.40 C 123.11 246.48 125.13 246.52 127.16 246.55 C 131.66 240.07 136.01 233.50 140.58 227.07 C 139.76 225.57 138.95 224.08 138.15 222.58 C 128.79 222.55 119.42 222.48 110.06 222.62 Z" />
<path fill="#000000" opacity="1.00" d=" M 151.50 87.92 C 157.50 78.71 163.19 69.29 169.08 60.01 C 174.83 64.51 179.71 70.00 185.31 74.69 C 201.21 89.35 217.16 103.96 233.13 118.55 C 224.69 118.29 216.37 116.23 207.94 115.45 C 212.09 118.72 217.06 120.67 221.46 123.56 C 229.36 128.00 236.98 132.94 245.08 136.98 C 245.27 137.31 245.66 137.95 245.85 138.27 C 237.83 141.63 230.05 145.53 222.17 149.18 C 221.17 149.60 219.78 150.21 218.92 149.18 C 196.39 128.82 174.23 108.05 151.50 87.92 Z" />
<path fill="#000000" opacity="1.00" d=" M 170.50 130.35 C 176.38 128.06 181.86 124.84 187.90 122.95 C 186.12 130.90 182.03 138.41 176.52 144.40 C 171.33 149.90 163.24 152.81 155.83 150.68 C 150.60 149.78 146.28 146.62 141.74 144.11 C 141.70 143.78 141.63 143.12 141.59 142.79 C 142.18 142.65 143.38 142.37 143.98 142.23 C 152.82 138.28 161.67 134.33 170.50 130.35 Z" />
</g>
</svg>
