<?xml version="1.0" encoding="UTF-8" ?>
<!DOCTYPE svg PUBLIC "-//W3C//DTD SVG 1.1//EN" "http://www.w3.org/Graphics/SVG/1.1/DTD/svg11.dtd">
<svg width="250pt" height="250pt" viewBox="0 0 250 250" version="1.1" xmlns="http://www.w3.org/2000/svg">
<g id="#ffffffff">
<path fill="#ffffff" opacity="1.00" d=" M 116.40 0.00 L 133.76 0.00 L 134.11 0.49 C 136.71 2.26 140.08 0.93 143.02 1.47 C 147.62 2.41 152.27 3.05 156.87 4.05 C 157.19 4.21 157.83 4.52 158.15 4.67 C 150.06 3.93 142.16 1.38 133.99 1.58 C 125.36 1.07 116.62 0.84 108.07 2.28 C 102.61 2.92 97.25 4.23 91.76 4.58 C 99.72 2.28 107.97 1.05 116.26 1.33 L 116.40 0.00 Z" />
<path fill="#ffffff" opacity="1.00" d=" M 92.52 55.71 C 96.18 53.81 99.35 50.96 103.36 49.74 C 103.74 80.48 103.38 111.24 103.53 141.99 C 103.53 147.54 107.08 153.68 113.01 154.36 C 117.78 154.97 123.65 155.08 127.13 151.19 C 130.15 148.37 130.49 143.98 130.55 140.10 C 130.51 112.06 130.58 84.02 130.51 55.98 C 130.71 54.75 130.05 52.18 132.11 52.65 C 153.93 52.52 175.77 52.75 197.59 52.53 C 208.52 68.52 219.17 84.69 230.09 100.68 C 220.84 101.05 211.54 100.42 202.32 101.18 C 202.41 116.12 202.37 131.06 202.35 146.00 C 201.07 156.31 200.73 167.58 194.25 176.24 C 186.91 187.16 175.77 195.67 162.98 199.04 C 156.40 200.48 149.77 201.73 143.07 202.37 C 132.71 202.67 122.35 202.78 111.99 202.43 C 93.85 200.73 74.48 194.81 63.12 179.60 C 65.83 178.23 68.20 176.21 71.01 175.06 C 73.32 175.77 74.59 178.19 76.47 179.60 C 87.02 188.59 101.18 191.47 114.63 192.55 C 117.76 192.53 120.87 192.88 123.96 193.28 C 128.34 193.79 132.66 191.98 137.03 192.81 C 148.16 194.82 159.85 193.08 170.04 188.24 C 179.46 183.45 186.97 175.29 191.66 165.89 C 194.54 158.62 195.11 150.70 195.34 142.96 C 195.29 126.62 195.41 110.28 195.27 93.95 C 202.24 93.42 209.23 93.85 216.20 93.69 C 215.24 90.94 213.41 88.67 211.74 86.33 C 206.02 77.71 200.15 69.18 194.44 60.55 C 187.44 60.16 180.42 60.34 173.40 60.39 C 172.65 61.06 171.90 61.72 171.14 62.39 C 160.76 62.29 150.38 62.47 140.00 62.29 C 139.83 63.85 139.67 65.42 139.64 66.99 C 139.71 92.00 139.64 117.01 139.68 142.02 C 139.57 148.39 137.35 155.08 132.21 159.15 C 125.14 165.44 114.47 165.41 105.99 162.32 C 97.98 158.58 93.68 149.60 93.70 141.03 C 93.71 119.70 93.71 98.36 93.70 77.03 C 93.73 73.51 93.84 69.98 93.41 66.48 C 81.98 73.01 70.99 80.27 59.53 86.72 C 59.22 96.92 59.76 107.14 59.23 117.34 C 56.16 115.90 57.90 112.02 57.56 109.37 C 55.08 109.26 52.60 109.11 50.13 108.85 C 49.46 101.92 50.45 94.97 50.05 88.03 C 50.06 85.78 49.56 83.40 50.39 81.24 C 64.25 72.45 78.51 64.28 92.52 55.71 Z" />
<path fill="#ffffff" opacity="1.00" d=" M 175.41 62.70 C 180.27 62.47 185.15 62.67 190.02 62.62 C 192.00 62.38 193.52 63.90 194.49 65.45 C 200.01 74.12 206.30 82.29 211.53 91.13 C 205.23 91.57 198.90 90.97 192.60 91.52 C 192.68 108.34 192.62 125.15 192.63 141.97 C 192.68 149.03 192.16 156.23 189.84 162.94 C 185.16 173.83 176.30 183.23 165.05 187.34 C 158.33 189.97 151.05 191.06 143.85 190.71 C 161.53 184.01 175.50 166.30 174.97 146.99 C 175.20 128.33 175.10 109.67 174.84 91.01 C 168.58 90.36 162.29 91.17 156.02 90.77 C 160.96 83.42 165.93 76.09 170.75 68.66 C 172.14 66.58 173.26 64.11 175.41 62.70 M 176.72 69.48 C 173.24 74.59 169.91 79.82 166.22 84.79 C 170.87 84.86 175.52 85.12 180.17 85.13 C 180.54 106.41 180.24 127.70 180.33 148.99 C 180.22 159.99 175.31 170.15 169.10 178.96 C 175.70 175.19 180.76 168.97 184.24 162.29 C 187.28 153.23 187.54 143.50 187.36 134.03 C 187.50 117.86 187.09 101.67 187.57 85.51 C 192.06 85.57 196.56 85.56 201.06 85.58 C 200.48 83.98 199.80 82.41 198.73 81.08 C 195.61 77.10 192.99 72.78 190.17 68.59 C 186.79 68.51 183.41 68.45 180.03 68.49 C 178.89 68.65 177.28 68.13 176.72 69.48 Z" />
<path fill="#ffffff" opacity="1.00" d=" M 9.15 76.96 C 9.28 76.63 9.54 75.98 9.68 75.65 C 7.97 83.38 4.46 90.60 3.02 98.40 C 1.55 104.61 1.36 111.02 0.00 117.25 L 0.00 107.00 L 1.22 108.19 C 1.70 105.20 0.63 101.83 2.37 99.13 C 2.86 95.63 3.30 91.95 5.15 88.86 C 5.13 88.41 5.08 87.52 5.05 87.07 C 6.74 83.85 7.93 80.38 9.15 76.96 Z" />
<path fill="#ffffff" opacity="1.00" d=" M 242.85 81.81 C 243.33 83.09 243.74 84.39 244.19 85.68 C 245.76 88.49 245.97 91.78 247.22 94.72 C 247.65 98.61 248.92 102.37 248.74 106.33 L 250.00 106.33 L 250.00 115.34 C 248.33 104.02 246.22 92.76 242.85 81.81 Z" />
<path fill="#ffffff" opacity="1.00" d=" M 45.34 113.24 C 47.70 111.80 50.94 112.81 53.60 113.12 C 53.59 115.41 53.25 117.77 53.85 120.02 C 61.58 120.88 69.61 125.65 71.82 133.48 C 67.55 134.88 63.18 135.93 58.96 137.47 C 57.29 135.43 55.65 133.05 52.97 132.28 C 50.46 131.12 47.75 132.04 45.22 132.56 C 44.34 134.28 43.76 136.32 44.77 138.13 C 52.39 141.54 61.55 141.34 68.34 146.60 C 75.31 152.94 74.95 164.87 68.03 171.13 C 64.11 175.01 58.61 176.21 53.47 177.56 C 53.51 179.92 53.51 182.29 53.51 184.65 C 50.76 185.08 47.98 185.14 45.22 184.82 C 45.13 182.30 45.30 179.71 44.57 177.27 C 41.80 176.16 38.69 176.08 36.04 174.61 C 30.60 171.86 26.34 166.55 25.18 160.53 C 30.08 159.75 35.07 159.22 39.77 157.52 C 41.10 160.25 42.61 163.32 45.88 164.05 C 49.23 164.74 53.18 165.09 56.21 163.15 C 56.94 161.22 56.95 158.34 54.57 157.63 C 47.90 155.10 40.31 154.90 34.22 150.88 C 28.20 146.99 25.87 138.51 28.83 132.02 C 30.84 125.16 37.91 121.08 44.68 120.33 C 44.83 117.96 44.83 115.57 45.34 113.24 Z" />
<path fill="#ffffff" opacity="1.00" d=" M 0.00 134.72 C 1.50 143.76 2.76 152.85 4.75 161.80 C 4.55 161.49 4.15 160.86 3.95 160.54 C 3.42 158.17 2.61 155.86 2.38 153.43 C 0.90 150.43 1.97 146.81 0.00 143.97 L 0.00 134.72 Z" />
</g>
<g id="#99be54ff">
<path fill="#99be54" opacity="1.00" d=" M 108.07 2.28 C 116.62 0.84 125.36 1.07 133.99 1.58 C 142.16 1.38 150.06 3.93 158.15 4.67 C 158.64 4.80 159.61 5.04 160.10 5.17 C 166.07 6.18 171.33 9.27 177.05 11.10 C 182.48 12.90 187.01 16.49 192.07 19.04 C 194.07 20.41 196.09 21.74 198.09 23.11 C 200.35 24.48 202.27 26.32 204.15 28.16 C 209.27 31.08 212.63 36.15 217.01 39.98 C 220.67 43.03 223.10 47.17 226.31 50.64 C 230.99 56.51 234.18 63.35 238.14 69.68 C 239.30 73.89 241.87 77.56 242.85 81.81 C 246.22 92.76 248.33 104.02 250.00 115.34 L 250.00 144.22 C 248.42 146.52 248.72 149.29 248.82 151.92 C 248.53 152.34 247.93 153.19 247.64 153.61 C 247.55 155.25 247.45 156.93 246.69 158.42 C 244.69 167.62 241.19 176.43 236.52 184.60 C 235.28 187.28 234.11 190.02 232.36 192.42 C 229.08 196.89 226.52 201.88 222.62 205.87 C 219.50 210.86 214.85 214.52 210.89 218.79 C 209.33 220.46 207.62 222.05 205.49 222.96 C 203.53 224.84 201.59 226.80 199.20 228.15 C 198.54 228.66 197.88 229.18 197.23 229.70 C 193.73 231.60 190.68 234.24 187.09 235.98 C 182.88 238.25 178.43 240.04 174.33 242.50 C 173.77 242.53 172.65 242.60 172.09 242.64 C 170.79 243.47 169.48 244.27 168.17 245.09 C 167.64 245.14 166.58 245.24 166.05 245.30 C 164.45 246.13 162.68 246.40 160.90 246.53 C 159.68 247.05 158.46 247.57 157.24 248.11 C 155.23 248.70 153.12 248.78 151.05 249.04 C 150.62 249.28 149.74 249.76 149.31 250.00 L 100.63 250.00 C 98.32 248.36 95.33 249.03 92.79 248.02 C 90.54 247.01 88.17 246.31 85.71 246.13 C 82.61 244.30 79.09 243.49 75.74 242.26 C 71.37 240.33 67.10 238.16 62.88 235.91 C 59.62 233.68 56.11 231.87 52.81 229.71 C 45.15 223.25 36.58 217.68 30.44 209.62 C 29.16 207.24 27.26 205.31 25.20 203.60 C 25.05 203.06 24.73 201.96 24.58 201.42 C 23.59 200.51 22.60 199.61 21.62 198.70 C 19.99 195.93 18.19 193.25 17.02 190.24 C 16.60 189.86 15.77 189.08 15.35 188.69 C 13.41 184.18 10.83 179.99 8.93 175.47 C 7.86 171.93 6.08 168.66 4.95 165.14 C 4.90 164.31 4.80 162.64 4.75 161.80 C 2.76 152.85 1.50 143.76 0.00 134.72 L 0.00 117.25 C 1.36 111.02 1.55 104.61 3.02 98.40 C 4.46 90.60 7.97 83.38 9.68 75.65 C 11.75 70.82 14.42 66.28 16.57 61.49 C 20.50 56.73 23.00 50.93 27.42 46.55 C 30.66 41.56 35.39 37.87 39.40 33.54 C 43.24 29.17 48.44 26.38 52.80 22.59 C 54.49 21.07 56.65 20.25 58.72 19.40 C 59.25 18.81 59.78 18.22 60.30 17.64 C 63.46 16.26 66.73 14.97 69.39 12.71 C 73.19 11.82 76.37 9.33 80.15 8.38 C 84.00 7.05 87.84 5.68 91.76 4.58 C 97.25 4.23 102.61 2.92 108.07 2.28 M 92.52 55.71 C 78.51 64.28 64.25 72.45 50.39 81.24 C 49.56 83.40 50.06 85.78 50.05 88.03 C 50.45 94.97 49.46 101.92 50.13 108.85 C 52.60 109.11 55.08 109.26 57.56 109.37 C 57.90 112.02 56.16 115.90 59.23 117.34 C 59.76 107.14 59.22 96.92 59.53 86.72 C 70.99 80.27 81.98 73.01 93.41 66.48 C 93.84 69.98 93.73 73.51 93.70 77.03 C 93.71 98.36 93.71 119.70 93.70 141.03 C 93.68 149.60 97.98 158.58 105.99 162.32 C 114.47 165.41 125.14 165.44 132.21 159.15 C 137.35 155.08 139.57 148.39 139.68 142.02 C 139.64 117.01 139.71 92.00 139.64 66.99 C 139.67 65.42 139.83 63.85 140.00 62.29 C 150.38 62.47 160.76 62.29 171.14 62.39 C 171.90 61.72 172.65 61.06 173.40 60.39 C 180.42 60.34 187.44 60.16 194.44 60.55 C 200.15 69.18 206.02 77.71 211.74 86.33 C 213.41 88.67 215.24 90.94 216.20 93.69 C 209.23 93.85 202.24 93.42 195.27 93.95 C 195.41 110.28 195.29 126.62 195.34 142.96 C 195.11 150.70 194.54 158.62 191.66 165.89 C 186.97 175.29 179.46 183.45 170.04 188.24 C 159.85 193.08 148.16 194.82 137.03 192.81 C 132.66 191.98 128.34 193.79 123.96 193.28 C 120.87 192.88 117.76 192.53 114.63 192.55 C 101.18 191.47 87.02 188.59 76.47 179.60 C 74.59 178.19 73.32 175.77 71.01 175.06 C 68.20 176.21 65.83 178.23 63.12 179.60 C 74.48 194.81 93.85 200.73 111.99 202.43 C 122.35 202.78 132.71 202.67 143.07 202.37 C 149.77 201.73 156.40 200.48 162.98 199.04 C 175.77 195.67 186.91 187.16 194.25 176.24 C 200.73 167.58 201.07 156.31 202.35 146.00 C 202.37 131.06 202.41 116.12 202.32 101.18 C 211.54 100.42 220.84 101.05 230.09 100.68 C 219.17 84.69 208.52 68.52 197.59 52.53 C 175.77 52.75 153.93 52.52 132.11 52.65 C 130.05 52.18 130.71 54.75 130.51 55.98 C 130.58 84.02 130.51 112.06 130.55 140.10 C 130.49 143.98 130.15 148.37 127.13 151.19 C 123.65 155.08 117.78 154.97 113.01 154.36 C 107.08 153.68 103.53 147.54 103.53 141.99 C 103.38 111.24 103.74 80.48 103.36 49.74 C 99.35 50.96 96.18 53.81 92.52 55.71 M 175.41 62.70 C 173.26 64.11 172.14 66.58 170.75 68.66 C 165.93 76.09 160.96 83.42 156.02 90.77 C 162.29 91.17 168.58 90.36 174.84 91.01 C 175.10 109.67 175.20 128.33 174.97 146.99 C 175.50 166.30 161.53 184.01 143.85 190.71 C 151.05 191.06 158.33 189.97 165.05 187.34 C 176.30 183.23 185.16 173.83 189.84 162.94 C 192.16 156.23 192.68 149.03 192.63 141.97 C 192.62 125.15 192.68 108.34 192.60 91.52 C 198.90 90.97 205.23 91.57 211.53 91.13 C 206.30 82.29 200.01 74.12 194.49 65.45 C 193.52 63.90 192.00 62.38 190.02 62.62 C 185.15 62.67 180.27 62.47 175.41 62.70 M 45.34 113.24 C 44.83 115.57 44.83 117.96 44.68 120.33 C 37.91 121.08 30.84 125.16 28.83 132.02 C 25.87 138.51 28.20 146.99 34.22 150.88 C 40.31 154.90 47.90 155.10 54.57 157.63 C 56.95 158.34 56.94 161.22 56.21 163.15 C 53.18 165.09 49.23 164.74 45.88 164.05 C 42.61 163.32 41.10 160.25 39.77 157.52 C 35.07 159.22 30.08 159.75 25.18 160.53 C 26.34 166.55 30.60 171.86 36.04 174.61 C 38.69 176.08 41.80 176.16 44.57 177.27 C 45.30 179.71 45.13 182.30 45.22 184.82 C 47.98 185.14 50.76 185.08 53.51 184.65 C 53.51 182.29 53.51 179.92 53.47 177.56 C 58.61 176.21 64.11 175.01 68.03 171.13 C 74.95 164.87 75.31 152.94 68.34 146.60 C 61.55 141.34 52.39 141.54 44.77 138.13 C 43.76 136.32 44.34 134.28 45.22 132.56 C 47.75 132.04 50.46 131.12 52.97 132.28 C 55.65 133.05 57.29 135.43 58.96 137.47 C 63.18 135.93 67.55 134.88 71.82 133.48 C 69.61 125.65 61.58 120.88 53.85 120.02 C 53.25 117.77 53.59 115.41 53.60 113.12 C 50.94 112.81 47.70 111.80 45.34 113.24 Z" />
<path fill="#99be54" opacity="1.00" d=" M 176.72 69.48 C 177.28 68.13 178.89 68.65 180.03 68.49 C 183.41 68.45 186.79 68.51 190.17 68.59 C 192.99 72.78 195.61 77.10 198.73 81.08 C 199.80 82.41 200.48 83.98 201.06 85.58 C 196.56 85.56 192.06 85.57 187.57 85.51 C 187.09 101.67 187.50 117.86 187.36 134.03 C 187.54 143.50 187.28 153.23 184.24 162.29 C 180.76 168.97 175.70 175.19 169.10 178.96 C 175.31 170.15 180.22 159.99 180.33 148.99 C 180.24 127.70 180.54 106.41 180.17 85.13 C 175.52 85.12 170.87 84.86 166.22 84.79 C 169.91 79.82 173.24 74.59 176.72 69.48 Z" />
</g>
</svg>
