<?xml version="1.0" encoding="UTF-8" ?>
<!DOCTYPE svg PUBLIC "-//W3C//DTD SVG 1.1//EN" "http://www.w3.org/Graphics/SVG/1.1/DTD/svg11.dtd">
<svg width="219pt" height="250pt" viewBox="0 0 219 250" version="1.1" xmlns="http://www.w3.org/2000/svg">
<g id="#3b86cef9">
<path fill="#3b86ce" opacity="0.98" d=" M 97.09 13.35 C 101.31 11.00 106.50 4.09 110.92 9.34 C 111.60 10.30 112.55 11.05 113.77 11.09 C 115.30 11.49 116.85 12.13 117.92 13.34 C 118.60 14.30 119.55 15.05 120.77 15.09 C 122.30 15.49 123.85 16.13 124.92 17.34 C 125.60 18.30 126.55 19.05 127.78 19.09 C 129.32 19.48 130.84 20.18 131.97 21.33 C 132.60 22.02 133.28 22.65 134.01 23.23 C 132.65 25.31 131.48 27.51 129.95 29.47 C 122.41 25.69 115.70 20.33 107.90 17.08 C 101.47 18.75 96.14 23.47 90.23 26.50 C 84.81 27.04 88.37 21.10 83.83 20.59 C 84.91 19.99 86.00 19.33 87.22 19.09 C 88.45 19.05 89.40 18.30 90.08 17.34 C 91.15 16.13 92.70 15.49 94.22 15.09 C 95.45 15.05 96.39 14.29 97.09 13.35 Z" />
</g>
<g id="#1d4e7b94">
<path fill="#1d4e7b" opacity="0.58" d=" M 110.92 9.34 C 111.99 8.11 114.61 9.56 113.77 11.09 C 112.55 11.05 111.60 10.30 110.92 9.34 Z" />
</g>
<g id="#23477891">
<path fill="#234778" opacity="0.57" d=" M 94.22 15.09 C 93.39 13.56 96.02 12.11 97.09 13.35 C 96.39 14.29 95.45 15.05 94.22 15.09 Z" />
</g>
<g id="#1c4f768f">
<path fill="#1c4f76" opacity="0.56" d=" M 117.92 13.34 C 118.99 12.11 121.61 13.56 120.77 15.09 C 119.55 15.05 118.60 14.30 117.92 13.34 Z" />
</g>
<g id="#2642748c">
<path fill="#264274" opacity="0.55" d=" M 87.22 19.09 C 86.40 17.57 89.00 16.12 90.08 17.34 C 89.40 18.30 88.45 19.05 87.22 19.09 Z" />
</g>
<g id="#f3f7fbff">
<path fill="#f3f7fb" opacity="1.00" d=" M 90.23 26.50 C 96.14 23.47 101.47 18.75 107.90 17.08 C 115.70 20.33 122.41 25.69 129.95 29.47 C 144.41 38.47 159.57 46.27 174.07 55.20 C 174.88 57.20 176.99 57.91 179.00 57.87 C 179.50 58.18 180.48 58.80 180.97 59.11 C 181.83 61.12 183.92 62.00 186.01 61.88 C 189.07 63.50 192.03 65.31 194.98 67.12 C 195.84 69.15 197.98 70.16 200.11 69.68 C 201.31 71.95 202.77 74.16 201.93 77.02 C 202.12 110.68 201.91 144.36 202.04 178.03 C 202.21 179.99 201.04 181.62 200.06 183.19 C 199.54 183.42 198.51 183.89 198.00 184.12 C 195.91 184.00 193.83 184.88 192.98 186.89 C 192.49 187.19 191.51 187.81 191.02 188.11 C 188.93 188.00 186.83 188.87 185.98 190.89 C 185.49 191.19 184.51 191.80 184.02 192.11 C 181.94 192.01 179.89 192.88 178.95 194.81 C 177.52 195.75 176.11 196.69 174.74 197.70 C 159.35 206.16 144.16 214.97 128.94 223.73 C 121.94 227.83 114.91 231.90 107.86 235.91 C 101.87 233.96 96.70 229.60 91.05 226.74 C 82.47 221.64 73.69 216.89 65.10 211.80 C 56.52 206.62 47.67 201.91 39.06 196.76 C 30.46 191.29 20.97 187.11 12.69 181.24 C 13.42 145.50 12.77 109.75 13.01 74.01 C 13.03 72.41 14.20 71.17 14.94 69.85 C 22.63 66.23 29.57 61.27 37.05 57.26 C 45.62 52.15 54.39 47.39 62.98 42.32 C 71.95 36.84 81.30 32.04 90.23 26.50 M 103.21 27.14 C 97.20 29.80 91.22 33.55 85.96 37.03 C 80.90 39.85 75.32 42.36 70.80 45.79 C 63.63 49.40 56.63 53.61 49.82 57.84 C 40.22 62.69 31.11 68.70 21.65 73.88 C 21.24 74.16 20.42 74.73 20.01 75.01 C 19.76 75.25 19.25 75.75 19.00 75.99 L 18.03 76.02 C 17.98 109.69 17.96 143.36 18.04 177.02 L 19.01 176.94 C 18.82 178.55 20.82 179.05 22.06 179.02 C 28.06 182.17 33.50 186.44 39.70 189.18 C 43.01 191.31 46.22 193.83 49.97 195.10 C 55.41 198.75 61.11 202.29 67.17 204.88 C 72.02 208.52 77.38 211.54 82.85 214.16 C 91.47 218.92 99.76 224.98 109.04 228.20 L 108.79 227.40 C 115.63 224.57 122.43 219.95 128.03 216.08 C 132.63 213.87 138.77 211.43 141.93 208.07 C 145.66 207.21 148.77 204.57 151.99 202.58 C 153.65 203.49 157.00 202.06 156.70 199.98 C 159.72 198.86 162.33 196.84 165.10 195.23 C 170.83 192.06 176.80 188.78 182.18 185.00 C 185.98 183.66 189.40 181.02 192.94 179.01 C 194.17 179.05 196.17 178.55 195.99 176.95 L 196.95 176.99 C 197.05 143.00 197.01 109.01 196.96 75.01 L 195.98 74.97 L 194.98 75.09 C 189.92 71.20 183.16 67.74 177.08 64.67 C 173.86 61.70 169.64 59.87 165.69 58.03 C 166.01 55.94 162.66 54.50 160.99 55.42 C 155.68 52.12 150.47 48.41 144.68 45.97 C 145.04 43.91 141.64 42.64 140.03 43.41 C 139.45 43.05 138.28 42.33 137.70 41.96 C 137.84 40.04 134.69 38.48 133.08 39.38 C 132.49 39.03 131.31 38.33 130.72 37.99 C 130.97 35.92 127.64 34.51 125.98 35.43 C 123.85 33.64 121.46 32.08 118.83 31.12 C 114.51 28.08 108.03 22.34 103.21 27.14 Z" />
</g>
<g id="#1b4f6e8b">
<path fill="#1b4f6e" opacity="0.55" d=" M 124.92 17.34 C 125.99 16.11 128.61 17.56 127.78 19.09 C 126.55 19.05 125.60 18.30 124.92 17.34 Z" />
</g>
<g id="#293f7088">
<path fill="#293f70" opacity="0.53" d=" M 80.24 23.09 C 79.43 21.58 81.98 20.11 83.10 21.26 C 82.44 22.26 81.48 23.04 80.24 23.09 Z" />
</g>
<g id="#5c75cffb">
<path fill="#5c75cf" opacity="1.00" d=" M 83.10 21.26 L 83.83 20.59 C 88.37 21.10 84.81 27.04 90.23 26.50 C 81.30 32.04 71.95 36.84 62.98 42.32 C 60.32 41.38 58.61 39.09 57.02 36.89 L 56.86 36.32 C 57.47 35.99 58.68 35.33 59.29 35.00 C 61.12 34.72 62.85 33.91 64.00 32.41 C 64.57 32.06 65.71 31.34 66.28 30.99 C 68.12 30.73 69.85 29.91 71.00 28.41 C 71.55 28.07 72.65 27.39 73.21 27.06 C 74.44 27.07 75.40 26.31 76.08 25.34 C 77.15 24.12 78.70 23.49 80.24 23.09 C 81.48 23.04 82.44 22.26 83.10 21.26 Z" />
</g>
<g id="#1a516886">
<path fill="#1a5168" opacity="0.53" d=" M 131.97 21.33 C 132.98 20.18 135.62 21.47 134.73 22.98 L 134.01 23.23 C 133.28 22.65 132.60 22.02 131.97 21.33 Z" />
</g>
<g id="#39a9b9fc">
<path fill="#39a9b9" opacity="1.00" d=" M 134.01 23.23 L 134.73 22.98 C 135.30 23.34 136.44 24.05 137.01 24.40 C 138.13 25.93 139.88 26.72 141.72 26.99 C 142.29 27.34 143.43 28.06 144.00 28.41 C 145.15 29.90 146.88 30.74 148.72 30.99 C 149.29 31.34 150.43 32.06 151.00 32.41 C 152.15 33.90 153.88 34.73 155.72 34.99 C 156.29 35.35 157.44 36.06 158.01 36.42 C 159.24 37.91 161.03 38.66 162.81 39.27 C 164.05 40.77 165.79 41.69 167.71 41.99 C 168.29 42.34 169.47 43.04 170.05 43.39 C 171.01 44.28 172.00 45.12 173.00 45.96 C 172.08 49.15 173.36 52.70 175.78 54.89 C 175.35 54.97 174.50 55.13 174.07 55.20 C 159.57 46.27 144.41 38.47 129.95 29.47 C 131.48 27.51 132.65 25.31 134.01 23.23 Z" />
</g>
<g id="#1b57698b">
<path fill="#1b5769" opacity="0.55" d=" M 137.01 24.40 C 138.67 23.54 141.96 24.93 141.72 26.99 C 139.88 26.72 138.13 25.93 137.01 24.40 Z" />
</g>
<g id="#2c3a6b82">
<path fill="#2c3a6b" opacity="0.51" d=" M 73.21 27.06 C 72.40 25.53 75.02 24.14 76.08 25.34 C 75.40 26.31 74.44 27.07 73.21 27.06 Z" />
</g>
<g id="#3587d4ff">
<path fill="#3587d4" opacity="1.00" d=" M 103.21 27.14 C 108.03 22.34 114.51 28.08 118.83 31.12 C 120.02 33.94 121.43 36.78 120.92 40.01 C 121.13 63.35 120.95 86.69 121.01 110.04 C 122.83 117.36 113.21 122.62 117.03 129.98 C 121.12 135.27 120.69 141.68 120.20 147.90 C 118.88 149.28 118.20 151.11 118.12 153.00 C 117.81 153.49 117.20 154.48 116.89 154.98 C 114.87 155.83 114.00 157.92 114.13 160.02 C 112.38 162.80 110.70 165.61 109.21 168.54 C 108.74 168.31 107.80 167.85 107.33 167.62 C 106.33 153.86 107.61 140.04 106.81 126.29 C 104.55 124.50 102.03 123.07 99.76 121.30 C 103.04 90.96 99.41 60.10 101.56 29.63 C 102.09 28.79 102.64 27.96 103.21 27.14 Z" />
</g>
<g id="#427dd4ff">
<path fill="#427dd4" opacity="1.00" d=" M 85.96 37.03 C 91.22 33.55 97.20 29.80 103.21 27.14 C 102.64 27.96 102.09 28.79 101.56 29.63 C 99.41 60.10 103.04 90.96 99.76 121.30 C 95.19 118.89 90.70 116.32 86.10 113.95 C 82.49 107.48 85.81 99.94 85.03 93.00 C 86.00 74.42 83.18 55.43 85.96 37.03 Z" />
</g>
<g id="#313b6f89">
<path fill="#313b6f" opacity="0.54" d=" M 66.28 30.99 C 66.04 28.93 69.34 27.53 71.00 28.41 C 69.85 29.91 68.12 30.73 66.28 30.99 Z" />
</g>
<g id="#1a586287">
<path fill="#1a5862" opacity="0.53" d=" M 144.00 28.41 C 145.66 27.53 148.96 28.93 148.72 30.99 C 146.88 30.74 145.15 29.90 144.00 28.41 Z" />
</g>
<g id="#3395cdff">
<path fill="#3395cd" opacity="1.00" d=" M 118.83 31.12 C 121.46 32.08 123.85 33.64 125.98 35.43 C 127.17 36.88 128.87 37.74 130.72 37.99 C 131.31 38.33 132.49 39.03 133.08 39.38 L 133.09 40.00 C 132.76 62.65 133.29 85.32 132.88 107.96 C 130.80 115.14 128.56 122.77 131.09 130.16 C 127.70 136.14 124.30 142.12 120.85 148.07 L 120.20 147.90 C 120.69 141.68 121.12 135.27 117.03 129.98 C 113.21 122.62 122.83 117.36 121.01 110.04 C 120.95 86.69 121.13 63.35 120.92 40.01 C 121.43 36.78 120.02 33.94 118.83 31.12 Z" />
</g>
<g id="#33386a84">
<path fill="#33386a" opacity="0.52" d=" M 59.29 35.00 C 59.02 32.93 62.34 31.52 64.00 32.41 C 62.85 33.91 61.12 34.72 59.29 35.00 Z" />
</g>
<g id="#19565d82">
<path fill="#19565d" opacity="0.51" d=" M 151.00 32.41 C 152.66 31.53 155.97 32.93 155.72 34.99 C 153.88 34.73 152.15 33.90 151.00 32.41 Z" />
</g>
<g id="#89c2e1ff">
<path fill="#89c2e1" opacity="1.00" d=" M 125.98 35.43 C 127.64 34.51 130.97 35.92 130.72 37.99 C 128.87 37.74 127.17 36.88 125.98 35.43 Z" />
</g>
<g id="#3535657f">
<path fill="#353565" opacity="0.50" d=" M 52.29 38.97 C 52.18 37.06 55.22 35.53 56.86 36.32 L 57.02 36.89 C 55.59 37.87 53.99 38.61 52.29 38.97 Z" />
</g>
<g id="#1854587d">
<path fill="#185458" opacity="0.49" d=" M 158.01 36.42 C 159.81 35.53 163.05 37.07 162.81 39.27 C 161.03 38.66 159.24 37.91 158.01 36.42 Z" />
</g>
<g id="#756bcafb">
<path fill="#756bca" opacity="1.00" d=" M 52.29 38.97 C 53.99 38.61 55.59 37.87 57.02 36.89 C 58.61 39.09 60.32 41.38 62.98 42.32 C 54.39 47.39 45.62 52.15 37.05 57.26 C 33.98 57.23 31.92 54.90 29.91 52.93 C 30.17 52.50 30.69 51.66 30.95 51.24 C 31.53 50.92 32.70 50.30 33.28 49.99 C 35.12 49.73 36.85 48.90 38.00 47.41 C 38.57 47.05 39.71 46.34 40.29 45.98 C 42.21 45.71 43.95 44.76 45.19 43.27 C 46.97 42.66 48.76 41.90 49.99 40.42 C 50.56 40.06 51.71 39.33 52.29 38.97 Z" />
</g>
<g id="#5476d4ff">
<path fill="#5476d4" opacity="1.00" d=" M 70.80 45.79 C 75.32 42.36 80.90 39.85 85.96 37.03 C 83.18 55.43 86.00 74.42 85.03 93.00 C 85.81 99.94 82.49 107.48 86.10 113.95 C 85.12 113.55 84.15 113.16 83.17 112.77 C 78.73 110.15 74.22 107.64 69.69 105.17 C 69.20 104.21 68.96 103.18 68.96 102.09 C 72.35 102.04 75.75 102.14 79.14 101.88 C 78.78 99.88 77.46 98.29 76.16 96.81 C 74.21 93.66 72.44 90.40 70.93 87.02 C 67.88 81.13 70.76 74.27 70.04 68.00 C 71.15 60.68 68.00 52.82 70.80 45.79 Z" />
</g>
<g id="#8cc8dfff">
<path fill="#8cc8df" opacity="1.00" d=" M 133.08 39.38 C 134.69 38.48 137.84 40.04 137.70 41.96 C 136.06 41.59 134.48 40.94 133.09 40.00 L 133.08 39.38 Z" />
</g>
<g id="#1a5d6089">
<path fill="#1a5d60" opacity="0.54" d=" M 162.81 39.27 C 164.56 38.61 167.88 39.86 167.71 41.99 C 165.79 41.69 164.05 40.77 162.81 39.27 Z" />
</g>
<g id="#35316079">
<path fill="#353160" opacity="0.47" d=" M 45.19 43.27 C 44.95 41.07 48.19 39.53 49.99 40.42 C 48.76 41.90 46.97 42.66 45.19 43.27 Z" />
</g>
<g id="#35a1c4ff">
<path fill="#35a1c4" opacity="1.00" d=" M 133.09 40.00 C 134.48 40.94 136.06 41.59 137.70 41.96 C 138.28 42.33 139.45 43.05 140.03 43.41 C 141.15 44.61 142.57 45.44 144.02 46.18 C 143.91 59.78 144.15 73.39 143.92 86.99 L 143.85 87.90 C 141.90 88.85 141.04 90.92 141.13 93.01 C 139.66 95.93 137.38 98.54 136.81 101.84 C 139.41 101.92 144.62 102.08 147.23 102.16 C 146.28 104.20 145.04 106.07 143.89 107.99 C 141.86 108.83 141.00 110.92 141.12 113.01 C 139.50 116.08 137.69 119.03 135.87 121.98 C 133.86 122.84 132.99 124.93 133.14 127.03 C 132.46 128.07 131.77 129.11 131.09 130.16 C 128.56 122.77 130.80 115.14 132.88 107.96 C 133.29 85.32 132.76 62.65 133.09 40.00 Z" />
</g>
<g id="#3d356b87">
<path fill="#3d356b" opacity="0.53" d=" M 40.29 45.98 C 40.14 43.85 43.43 42.61 45.19 43.27 C 43.95 44.76 42.21 45.71 40.29 45.98 Z" />
</g>
<g id="#8fcddbff">
<path fill="#8fcddb" opacity="1.00" d=" M 140.03 43.41 C 141.64 42.64 145.04 43.91 144.68 45.97 L 144.02 46.18 C 142.57 45.44 141.15 44.61 140.03 43.41 Z" />
</g>
<g id="#1a5c5c85">
<path fill="#1a5c5c" opacity="0.52" d=" M 170.05 43.39 C 171.61 42.67 175.03 43.93 174.64 45.86 C 174.23 45.89 173.41 45.94 173.00 45.96 C 172.00 45.12 171.01 44.28 170.05 43.39 Z" />
</g>
<g id="#676ecfff">
<path fill="#676ecf" opacity="1.00" d=" M 49.82 57.84 C 56.63 53.61 63.63 49.40 70.80 45.79 C 68.00 52.82 71.15 60.68 70.04 68.00 C 70.76 74.27 67.88 81.13 70.93 87.02 L 70.19 86.74 C 69.23 86.34 68.25 86.01 67.24 85.75 C 60.91 84.51 54.45 85.35 48.06 84.87 C 48.21 75.89 46.71 66.49 49.82 57.84 Z" />
</g>
<g id="#35adb7ff">
<path fill="#35adb7" opacity="1.00" d=" M 144.02 46.18 L 144.68 45.97 C 150.47 48.41 155.68 52.12 160.99 55.42 C 162.16 56.89 163.88 57.69 165.69 58.03 C 169.64 59.87 173.86 61.70 177.08 64.67 C 175.67 64.99 174.11 65.11 173.07 66.26 C 173.58 72.86 170.47 81.02 176.06 86.10 C 165.65 86.17 155.14 85.21 144.81 86.87 L 143.92 86.99 C 144.15 73.39 143.91 59.78 144.02 46.18 Z" />
</g>
<g id="#33b9a7fb">
<path fill="#33b9a7" opacity="1.00" d=" M 173.00 45.96 C 173.41 45.94 174.23 45.89 174.64 45.86 C 175.23 46.25 176.42 47.02 177.01 47.41 C 178.13 48.92 179.88 49.73 181.72 49.99 C 182.29 50.34 183.43 51.06 184.00 51.41 C 185.15 52.90 186.88 53.74 188.72 53.99 C 189.29 54.34 190.43 55.06 191.00 55.41 C 192.15 56.90 193.88 57.74 195.73 57.98 C 196.27 58.32 197.37 59.00 197.92 59.34 C 198.60 60.30 199.55 61.05 200.78 61.09 C 202.36 61.47 203.87 62.24 205.01 63.41 C 206.13 64.69 207.65 65.44 209.18 66.11 C 211.09 99.66 209.44 133.38 210.01 167.00 C 209.54 173.64 211.18 180.59 209.15 187.06 C 208.56 187.28 207.37 187.71 206.78 187.92 C 205.55 187.95 204.60 188.70 203.91 189.65 C 199.46 192.77 194.88 195.97 189.77 197.90 C 188.55 197.96 187.61 198.71 186.91 199.65 C 184.13 201.79 181.13 203.82 177.77 204.90 C 176.55 204.96 175.59 205.69 174.92 206.67 C 174.38 207.01 173.31 207.71 172.78 208.05 L 172.17 207.91 C 172.94 204.44 172.26 200.68 174.74 197.70 C 176.11 196.69 177.52 195.75 178.95 194.81 C 181.06 195.04 183.17 194.13 184.02 192.11 C 184.51 191.80 185.49 191.19 185.98 190.89 C 188.07 190.99 190.16 190.13 191.02 188.11 C 191.51 187.81 192.49 187.19 192.98 186.89 C 195.06 187.00 197.15 186.14 198.00 184.12 C 198.51 183.89 199.54 183.42 200.06 183.19 C 202.33 182.08 205.77 181.22 203.02 177.01 C 202.93 142.04 203.11 107.07 202.94 72.11 C 203.16 70.56 200.99 70.50 200.11 69.68 C 199.00 67.93 197.05 67.00 194.98 67.12 C 192.03 65.31 189.07 63.50 186.01 61.88 C 185.16 59.87 183.06 59.00 180.97 59.11 C 180.48 58.80 179.50 58.18 179.00 57.87 C 178.16 56.65 177.03 55.68 175.78 54.89 C 173.36 52.70 172.08 49.15 173.00 45.96 Z" />
</g>
<g id="#3e326682">
<path fill="#3e3266" opacity="0.51" d=" M 33.28 49.99 C 33.04 47.93 36.34 46.53 38.00 47.41 C 36.85 48.90 35.12 49.73 33.28 49.99 Z" />
</g>
<g id="#195a5780">
<path fill="#195a57" opacity="0.50" d=" M 177.01 47.41 C 178.67 46.54 181.96 47.93 181.72 49.99 C 179.88 49.73 178.13 48.92 177.01 47.41 Z" />
</g>
<g id="#43346b88">
<path fill="#43346b" opacity="0.53" d=" M 28.30 52.90 C 27.47 51.54 29.96 50.23 30.95 51.24 C 30.69 51.66 30.17 52.50 29.91 52.93 C 29.51 52.92 28.70 52.91 28.30 52.90 Z" />
</g>
<g id="#1957527b">
<path fill="#195752" opacity="0.48" d=" M 184.00 51.41 C 185.66 50.53 188.96 51.93 188.72 53.99 C 186.88 53.74 185.15 52.90 184.00 51.41 Z" />
</g>
<g id="#8866c6fc">
<path fill="#8866c6" opacity="1.00" d=" M 24.00 55.41 C 25.17 54.20 26.72 53.43 28.30 52.90 C 28.70 52.91 29.51 52.92 29.91 52.93 C 31.92 54.90 33.98 57.23 37.05 57.26 C 29.57 61.27 22.63 66.23 14.94 69.85 C 12.70 71.00 9.14 71.65 11.98 75.99 C 12.48 111.06 11.06 146.24 12.69 181.24 C 20.97 187.11 30.46 191.29 39.06 196.76 C 35.13 196.41 32.90 200.55 28.97 200.23 C 27.73 200.20 26.76 199.68 26.07 198.67 C 25.42 197.68 24.45 196.95 23.23 196.91 C 18.22 194.80 13.73 191.47 9.09 188.65 C 8.38 187.65 7.34 186.91 6.06 187.03 C 3.57 148.20 5.74 108.96 4.96 69.97 C 4.38 66.98 7.39 65.79 9.18 64.09 C 10.69 62.85 12.26 61.50 14.22 61.08 C 15.45 61.06 16.40 60.30 17.08 59.34 C 17.63 59.00 18.73 58.32 19.27 57.98 C 21.12 57.74 22.85 56.90 24.00 55.41 Z" />
</g>
<g id="#3e2d5d78">
<path fill="#3e2d5d" opacity="0.47" d=" M 19.27 57.98 C 19.04 55.93 22.34 54.53 24.00 55.41 C 22.85 56.90 21.12 57.74 19.27 57.98 Z" />
</g>
<g id="#9bd7daff">
<path fill="#9bd7da" opacity="1.00" d=" M 160.99 55.42 C 162.66 54.50 166.01 55.94 165.69 58.03 C 163.88 57.69 162.16 56.89 160.99 55.42 Z" />
</g>
<g id="#9ddad8ff">
<path fill="#9ddad8" opacity="1.00" d=" M 174.07 55.20 C 174.50 55.13 175.35 54.97 175.78 54.89 C 177.03 55.68 178.16 56.65 179.00 57.87 C 176.99 57.91 174.88 57.20 174.07 55.20 Z" />
</g>
<g id="#18554e76">
<path fill="#18554e" opacity="0.46" d=" M 191.00 55.41 C 192.66 54.53 195.95 55.93 195.73 57.98 C 193.88 57.74 192.15 56.90 191.00 55.41 Z" />
</g>
<g id="#7c6acdff">
<path fill="#7c6acd" opacity="1.00" d=" M 21.65 73.88 C 31.11 68.70 40.22 62.69 49.82 57.84 C 46.71 66.49 48.21 75.89 48.06 84.87 C 54.45 85.35 60.91 84.51 67.24 85.75 C 57.78 85.97 48.31 86.01 38.85 86.17 C 33.84 82.09 22.37 80.92 21.65 73.88 Z" />
</g>
<g id="#432f627e">
<path fill="#432f62" opacity="0.49" d=" M 14.22 61.08 C 13.40 59.56 16.01 58.12 17.08 59.34 C 16.40 60.30 15.45 61.06 14.22 61.08 Z" />
</g>
<g id="#99dad6ff">
<path fill="#99dad6" opacity="1.00" d=" M 180.97 59.11 C 183.06 59.00 185.16 59.87 186.01 61.88 C 183.92 62.00 181.83 61.12 180.97 59.11 Z" />
</g>
<g id="#1a5a517c">
<path fill="#1a5a51" opacity="0.49" d=" M 197.92 59.34 C 198.99 58.11 201.60 59.57 200.78 61.09 C 199.55 61.05 198.60 60.30 197.92 59.34 Z" />
</g>
<g id="#1751476e">
<path fill="#175147" opacity="0.43" d=" M 205.01 63.41 C 206.70 62.61 209.92 63.91 209.82 65.97 L 209.18 66.11 C 207.65 65.44 206.13 64.69 205.01 63.41 Z" />
</g>
<g id="#654b91bb">
<path fill="#654b91" opacity="0.73" d=" M 4.02 66.20 C 5.50 65.03 7.25 64.10 9.18 64.09 C 7.39 65.79 4.38 66.98 4.96 69.97 C 5.74 108.96 3.57 148.20 6.06 187.03 C 5.54 186.77 4.52 186.23 4.01 185.97 C 4.00 146.04 3.98 106.12 4.02 66.20 Z" />
</g>
<g id="#30b9aeff">
<path fill="#30b9ae" opacity="1.00" d=" M 173.07 66.26 C 174.11 65.11 175.67 64.99 177.08 64.67 C 183.16 67.74 189.92 71.20 194.98 75.09 C 195.03 107.07 194.97 139.05 195.03 171.03 C 196.19 174.13 194.77 176.82 192.94 179.01 C 189.40 181.02 185.98 183.66 182.18 185.00 C 174.91 184.86 181.52 174.47 177.95 170.04 C 173.78 164.03 171.22 156.42 174.15 149.24 C 175.71 135.02 175.14 120.45 174.73 106.16 C 171.71 100.95 174.45 95.31 175.13 89.89 L 175.36 89.07 C 175.66 88.10 175.89 87.11 176.06 86.10 C 170.47 81.02 173.58 72.86 173.07 66.26 Z" />
</g>
<g id="#1a142631">
<path fill="#1a1426" opacity="0.19" d=" M 3.10 65.91 L 4.02 66.20 C 3.98 106.12 4.00 146.04 4.01 185.97 L 3.03 186.01 C 3.02 145.98 2.89 105.94 3.10 65.91 Z" />
</g>
<g id="#228976b7">
<path fill="#228976" opacity="0.72" d=" M 209.18 66.11 L 209.82 65.97 L 210.87 65.86 C 211.16 105.90 210.94 145.94 210.99 185.99 C 210.53 186.26 209.61 186.79 209.15 187.06 C 211.18 180.59 209.54 173.64 210.01 167.00 C 209.44 133.38 211.09 99.66 209.18 66.11 Z" />
</g>
<g id="#08211c2c">
<path fill="#08211c" opacity="0.17" d=" M 210.87 65.86 L 211.91 66.04 C 212.10 106.02 211.99 146.01 211.97 186.00 L 210.99 185.99 C 210.94 145.94 211.16 105.90 210.87 65.86 Z" />
</g>
<g id="#93dad0ff">
<path fill="#93dad0" opacity="1.00" d=" M 194.98 67.12 C 197.05 67.00 199.00 67.93 200.11 69.68 C 197.98 70.16 195.84 69.15 194.98 67.12 Z" />
</g>
<g id="#c8b9e6ff">
<path fill="#c8b9e6" opacity="1.00" d=" M 11.98 75.99 C 9.14 71.65 12.70 71.00 14.94 69.85 C 14.20 71.17 13.03 72.41 13.01 74.01 C 12.77 109.75 13.42 145.50 12.69 181.24 C 11.06 146.24 12.48 111.06 11.98 75.99 Z" />
</g>
<g id="#9ce0d6ff">
<path fill="#9ce0d6" opacity="1.00" d=" M 200.11 69.68 C 200.99 70.50 203.16 70.56 202.94 72.11 C 203.11 107.07 202.93 142.04 203.02 177.01 C 205.77 181.22 202.33 182.08 200.06 183.19 C 201.04 181.62 202.21 179.99 202.04 178.03 C 201.91 144.36 202.12 110.68 201.93 77.02 C 202.77 74.16 201.31 71.95 200.11 69.68 Z" />
</g>
<g id="#8c72e8ff">
<path fill="#8c72e8" opacity="1.00" d=" M 20.01 75.01 C 20.42 74.73 21.24 74.16 21.65 73.88 C 22.37 80.92 33.84 82.09 38.85 86.17 C 38.89 86.61 38.96 87.49 39.00 87.92 C 37.70 87.27 36.38 86.63 35.02 86.10 C 32.85 103.19 41.71 121.27 35.32 137.90 C 37.04 146.99 34.97 155.92 34.12 164.93 C 34.26 169.20 42.63 167.88 38.96 174.00 C 39.21 179.04 38.41 184.23 39.70 189.18 C 33.50 186.44 28.06 182.17 22.06 179.02 C 20.64 176.99 18.72 174.93 20.05 171.99 C 19.91 139.66 20.04 107.33 20.01 75.01 Z" />
</g>
<g id="#ae96edff">
<path fill="#ae96ed" opacity="1.00" d=" M 19.00 75.99 C 19.25 75.75 19.76 75.25 20.01 75.01 C 20.04 107.33 19.91 139.66 20.05 171.99 C 18.72 174.93 20.64 176.99 22.06 179.02 C 20.82 179.05 18.82 178.55 19.01 176.94 C 18.98 143.29 19.02 109.64 19.00 75.99 Z" />
</g>
<g id="#67cfc1ff">
<path fill="#67cfc1" opacity="1.00" d=" M 194.98 75.09 L 195.98 74.97 C 196.02 108.97 196.01 142.96 195.99 176.95 C 196.17 178.55 194.17 179.05 192.94 179.01 C 194.77 176.82 196.19 174.13 195.03 171.03 C 194.97 139.05 195.03 107.07 194.98 75.09 Z" />
</g>
<g id="#d4f1edff">
<path fill="#d4f1ed" opacity="1.00" d=" M 195.98 74.97 L 196.96 75.01 C 197.01 109.01 197.05 143.00 196.95 176.99 L 195.99 176.95 C 196.01 142.96 196.02 108.97 195.98 74.97 Z" />
</g>
<g id="#e7dff9ff">
<path fill="#e7dff9" opacity="1.00" d=" M 18.03 76.02 L 19.00 75.99 C 19.02 109.64 18.98 143.29 19.01 176.94 L 18.04 177.02 C 17.96 143.36 17.98 109.69 18.03 76.02 Z" />
</g>
<g id="#8278ecff">
<path fill="#8278ec" opacity="1.00" d=" M 35.02 86.10 C 36.38 86.63 37.70 87.27 39.00 87.92 C 39.18 88.21 39.54 88.78 39.71 89.07 C 46.93 100.68 53.56 112.64 60.33 124.51 C 51.52 124.50 54.49 137.47 52.47 143.15 C 53.25 153.62 44.79 161.28 46.95 171.98 C 48.11 179.44 44.17 189.03 49.97 195.10 C 46.22 193.83 43.01 191.31 39.70 189.18 C 38.41 184.23 39.21 179.04 38.96 174.00 C 42.63 167.88 34.26 169.20 34.12 164.93 C 34.97 155.92 37.04 146.99 35.32 137.90 C 41.71 121.27 32.85 103.19 35.02 86.10 Z" />
</g>
<g id="#cecdefff">
<path fill="#cecdef" opacity="1.00" d=" M 38.85 86.17 C 48.31 86.01 57.78 85.97 67.24 85.75 C 68.25 86.01 69.23 86.34 70.19 86.74 C 60.22 87.39 50.18 86.40 40.23 87.24 C 40.10 87.70 39.84 88.61 39.71 89.07 C 39.54 88.78 39.18 88.21 39.00 87.92 C 38.96 87.49 38.89 86.61 38.85 86.17 Z" />
</g>
<g id="#bbe4e7ff">
<path fill="#bbe4e7" opacity="1.00" d=" M 144.81 86.87 C 155.14 85.21 165.65 86.17 176.06 86.10 C 175.89 87.11 175.66 88.10 175.36 89.07 C 167.78 84.35 154.72 88.09 144.81 86.87 Z" />
</g>
<g id="#fafcfeff">
<path fill="#fafcfe" opacity="1.00" d=" M 40.23 87.24 C 50.18 86.40 60.22 87.39 70.19 86.74 L 70.93 87.02 C 72.44 90.40 74.21 93.66 76.16 96.81 C 79.70 103.31 70.53 99.18 68.96 102.09 C 68.96 103.18 69.20 104.21 69.69 105.17 C 75.71 116.39 81.92 127.57 88.77 138.30 C 94.03 148.76 100.39 158.63 106.27 168.75 C 106.78 170.35 109.00 170.29 109.21 168.54 C 110.70 165.61 112.38 162.80 114.13 160.02 C 116.13 159.15 116.99 157.06 116.89 154.98 C 117.20 154.48 117.81 153.49 118.12 153.00 C 119.99 152.09 121.08 150.14 120.85 148.07 C 124.30 142.12 127.70 136.14 131.09 130.16 C 131.77 129.11 132.46 128.07 133.14 127.03 C 135.13 126.15 136.00 124.07 135.87 121.98 C 137.69 119.03 139.50 116.08 141.12 113.01 C 143.14 112.17 143.99 110.07 143.89 107.99 C 145.04 106.07 146.28 104.20 147.23 102.16 C 144.62 102.08 139.41 101.92 136.81 101.84 C 137.38 98.54 139.66 95.93 141.13 93.01 C 143.12 92.11 144.09 90.02 143.85 87.90 L 143.92 86.99 L 144.81 86.87 C 154.72 88.09 167.78 84.35 175.36 89.07 L 175.13 89.89 C 173.95 91.52 172.87 93.23 171.84 94.96 C 169.88 95.88 169.00 97.94 169.11 100.02 C 168.80 100.51 168.19 101.49 167.89 101.98 C 165.87 102.83 165.00 104.93 165.11 107.02 C 164.81 107.51 164.20 108.49 163.89 108.98 C 161.87 109.83 160.99 111.92 161.14 114.02 C 158.63 118.25 155.79 122.30 153.70 126.76 C 149.29 134.85 144.03 142.43 139.83 150.63 C 134.76 159.04 130.21 167.76 124.79 175.97 C 122.84 176.89 122.05 178.96 122.12 181.02 C 121.82 181.51 121.20 182.49 120.89 182.98 C 118.88 183.83 118.01 185.91 118.10 188.00 C 115.11 193.81 111.47 199.26 108.56 205.10 C 102.65 201.35 100.87 193.55 96.89 188.00 C 96.99 185.92 96.13 183.83 94.11 182.99 C 90.94 177.07 87.27 171.42 83.97 165.57 C 79.90 158.69 76.21 151.59 71.96 144.82 C 68.25 137.96 64.49 131.10 60.33 124.51 C 53.56 112.64 46.93 100.68 39.71 89.07 C 39.84 88.61 40.10 87.70 40.23 87.24 Z" />
</g>
<g id="#8cccdbff">
<path fill="#8cccdb" opacity="1.00" d=" M 141.13 93.01 C 141.04 90.92 141.90 88.85 143.85 87.90 C 144.09 90.02 143.12 92.11 141.13 93.01 Z" />
</g>
<g id="#31b3b5ff">
<path fill="#31b3b5" opacity="1.00" d=" M 171.84 94.96 C 172.87 93.23 173.95 91.52 175.13 89.89 C 174.45 95.31 171.71 100.95 174.73 106.16 C 175.14 120.45 175.71 135.02 174.15 149.24 C 171.22 156.42 173.78 164.03 177.95 170.04 C 181.52 174.47 174.91 184.86 182.18 185.00 C 176.80 188.78 170.83 192.06 165.10 195.23 C 164.38 195.13 162.95 194.94 162.23 194.85 C 162.19 183.61 165.35 170.84 161.59 160.35 C 150.76 152.13 155.98 138.34 153.70 126.76 C 155.79 122.30 158.63 118.25 161.14 114.02 C 163.13 113.14 164.00 111.06 163.89 108.98 C 164.20 108.49 164.81 107.51 165.11 107.02 C 167.13 106.16 167.99 104.07 167.89 101.98 C 168.19 101.49 168.80 100.51 169.11 100.02 C 171.13 99.17 172.03 97.07 171.84 94.96 Z" />
</g>
<g id="#8ed7d6ff">
<path fill="#8ed7d6" opacity="1.00" d=" M 169.11 100.02 C 169.00 97.94 169.88 95.88 171.84 94.96 C 172.03 97.07 171.13 99.17 169.11 100.02 Z" />
</g>
<g id="#c8d2f0ff">
<path fill="#c8d2f0" opacity="1.00" d=" M 76.16 96.81 C 77.46 98.29 78.78 99.88 79.14 101.88 C 75.75 102.14 72.35 102.04 68.96 102.09 C 70.53 99.18 79.70 103.31 76.16 96.81 Z" />
</g>
<g id="#8ad5d6ff">
<path fill="#8ad5d6" opacity="1.00" d=" M 165.11 107.02 C 165.00 104.93 165.87 102.83 167.89 101.98 C 167.99 104.07 167.13 106.16 165.11 107.02 Z" />
</g>
<g id="#6691f6ff">
<path fill="#6691f6" opacity="1.00" d=" M 69.69 105.17 C 74.22 107.64 78.73 110.15 83.17 112.77 C 84.93 121.31 86.49 129.87 88.77 138.30 C 81.92 127.57 75.71 116.39 69.69 105.17 Z" />
</g>
<g id="#8ed0dcff">
<path fill="#8ed0dc" opacity="1.00" d=" M 141.12 113.01 C 141.00 110.92 141.86 108.83 143.89 107.99 C 143.99 110.07 143.14 112.17 141.12 113.01 Z" />
</g>
<g id="#87d3d6ff">
<path fill="#87d3d6" opacity="1.00" d=" M 161.14 114.02 C 160.99 111.92 161.87 109.83 163.89 108.98 C 164.00 111.06 163.13 113.14 161.14 114.02 Z" />
</g>
<g id="#458ff4ff">
<path fill="#458ff4" opacity="1.00" d=" M 83.17 112.77 C 84.15 113.16 85.12 113.55 86.10 113.95 C 90.70 116.32 95.19 118.89 99.76 121.30 C 102.03 123.07 104.55 124.50 106.81 126.29 C 107.61 140.04 106.33 153.86 107.33 167.62 C 107.80 167.85 108.74 168.31 109.21 168.54 C 109.00 170.29 106.78 170.35 106.27 168.75 C 100.39 158.63 94.03 148.76 88.77 138.30 C 86.49 129.87 84.93 121.31 83.17 112.77 Z" />
</g>
<g id="#96cfe3ff">
<path fill="#96cfe3" opacity="1.00" d=" M 133.14 127.03 C 132.99 124.93 133.86 122.84 135.87 121.98 C 136.00 124.07 135.13 126.15 133.14 127.03 Z" />
</g>
<g id="#7278eeff">
<path fill="#7278ee" opacity="1.00" d=" M 52.47 143.15 C 54.49 137.47 51.52 124.50 60.33 124.51 C 64.49 131.10 68.25 137.96 71.96 144.82 C 66.42 144.96 65.68 152.93 65.10 157.02 C 66.52 172.81 61.02 189.69 67.17 204.88 C 61.11 202.29 55.41 198.75 49.97 195.10 C 44.17 189.03 48.11 179.44 46.95 171.98 C 44.79 161.28 53.25 153.62 52.47 143.15 Z" />
</g>
<g id="#33aabaff">
<path fill="#33aaba" opacity="1.00" d=" M 139.83 150.63 C 144.03 142.43 149.29 134.85 153.70 126.76 C 155.98 138.34 150.76 152.13 161.59 160.35 C 165.35 170.84 162.19 183.61 162.23 194.85 C 162.95 194.94 164.38 195.13 165.10 195.23 C 162.33 196.84 159.72 198.86 156.70 199.98 C 154.88 200.30 153.16 201.11 151.99 202.58 C 148.77 204.57 145.66 207.21 141.93 208.07 C 138.74 189.13 143.62 169.32 139.83 150.63 Z" />
</g>
<g id="#5e7df2ff">
<path fill="#5e7df2" opacity="1.00" d=" M 65.10 157.02 C 65.68 152.93 66.42 144.96 71.96 144.82 C 76.21 151.59 79.90 158.69 83.97 165.57 C 77.89 168.79 82.44 177.71 80.97 183.00 C 82.65 193.11 77.82 204.82 82.85 214.16 C 77.38 211.54 72.02 208.52 67.17 204.88 C 61.02 189.69 66.52 172.81 65.10 157.02 Z" />
</g>
<g id="#96c4e8ff">
<path fill="#96c4e8" opacity="1.00" d=" M 120.20 147.90 L 120.85 148.07 C 121.08 150.14 119.99 152.09 118.12 153.00 C 118.20 151.11 118.88 149.28 120.20 147.90 Z" />
</g>
<g id="#369ec6ff">
<path fill="#369ec6" opacity="1.00" d=" M 124.79 175.97 C 130.21 167.76 134.76 159.04 139.83 150.63 C 143.62 169.32 138.74 189.13 141.93 208.07 C 138.77 211.43 132.63 213.87 128.03 216.08 C 127.85 203.41 128.26 190.72 127.92 178.06 C 128.04 176.42 126.27 176.17 125.08 176.53 L 124.79 175.97 Z" />
</g>
<g id="#9ac4e9ff">
<path fill="#9ac4e9" opacity="1.00" d=" M 114.13 160.02 C 114.00 157.92 114.87 155.83 116.89 154.98 C 116.99 157.06 116.13 159.15 114.13 160.02 Z" />
</g>
<g id="#4889f5ff">
<path fill="#4889f5" opacity="1.00" d=" M 80.97 183.00 C 82.44 177.71 77.89 168.79 83.97 165.57 C 87.27 171.42 90.94 177.07 94.11 182.99 C 94.00 185.08 94.87 187.17 96.89 188.00 C 100.87 193.55 102.65 201.35 108.56 205.10 C 106.58 211.81 105.08 221.97 108.79 227.40 L 109.04 228.20 C 99.76 224.98 91.47 218.92 82.85 214.16 C 77.82 204.82 82.65 193.11 80.97 183.00 Z" />
</g>
<g id="#a5cfe9ff">
<path fill="#a5cfe9" opacity="1.00" d=" M 122.12 181.02 C 122.05 178.96 122.84 176.89 124.79 175.97 L 125.08 176.53 C 124.73 178.38 123.88 180.15 122.12 181.02 Z" />
</g>
<g id="#368ed3ff">
<path fill="#368ed3" opacity="1.00" d=" M 125.08 176.53 C 126.27 176.17 128.04 176.42 127.92 178.06 C 128.26 190.72 127.85 203.41 128.03 216.08 C 122.43 219.95 115.63 224.57 108.79 227.40 C 105.08 221.97 106.58 211.81 108.56 205.10 C 111.47 199.26 115.11 193.81 118.10 188.00 C 120.14 187.17 121.00 185.07 120.89 182.98 C 121.20 182.49 121.82 181.51 122.12 181.02 C 123.88 180.15 124.73 178.38 125.08 176.53 Z" />
</g>
<g id="#99c0faff">
<path fill="#99c0fa" opacity="1.00" d=" M 94.11 182.99 C 96.13 183.83 96.99 185.92 96.89 188.00 C 94.87 187.17 94.00 185.08 94.11 182.99 Z" />
</g>
<g id="#a2cbeaff">
<path fill="#a2cbea" opacity="1.00" d=" M 118.10 188.00 C 118.01 185.91 118.88 183.83 120.89 182.98 C 121.00 185.07 120.14 187.17 118.10 188.00 Z" />
</g>
<g id="#8fd8cfff">
<path fill="#8fd8cf" opacity="1.00" d=" M 192.98 186.89 C 193.83 184.88 195.91 184.00 198.00 184.12 C 197.15 186.14 195.06 187.00 192.98 186.89 Z" />
</g>
<g id="#462f6381">
<path fill="#462f63" opacity="0.51" d=" M 6.06 187.03 C 7.34 186.91 8.38 187.65 9.09 188.65 C 8.03 189.79 5.49 188.56 6.06 187.03 Z" />
</g>
<g id="#92d8d1ff">
<path fill="#92d8d1" opacity="1.00" d=" M 185.98 190.89 C 186.83 188.87 188.93 188.00 191.02 188.11 C 190.16 190.13 188.07 190.99 185.98 190.89 Z" />
</g>
<g id="#1f6a5e91">
<path fill="#1f6a5e" opacity="0.57" d=" M 203.91 189.65 C 204.60 188.70 205.55 187.95 206.78 187.92 C 207.61 189.45 204.97 190.88 203.91 189.65 Z" />
</g>
<g id="#95d8d4ff">
<path fill="#95d8d4" opacity="1.00" d=" M 178.95 194.81 C 179.89 192.88 181.94 192.01 184.02 192.11 C 183.17 194.13 181.06 195.04 178.95 194.81 Z" />
</g>
<g id="#3b2c5a73">
<path fill="#3b2c5a" opacity="0.45" d=" M 23.23 196.91 C 24.45 196.95 25.42 197.68 26.07 198.67 C 24.99 199.88 22.40 198.42 23.23 196.91 Z" />
</g>
<g id="#736ac8f9">
<path fill="#736ac8" opacity="0.98" d=" M 28.97 200.23 C 32.90 200.55 35.13 196.41 39.06 196.76 C 47.67 201.91 56.52 206.62 65.10 211.80 C 61.16 211.02 59.12 213.14 58.95 216.94 C 58.10 216.48 57.18 216.16 56.22 216.00 C 55.67 215.64 54.56 214.94 54.00 214.59 C 52.85 213.09 51.12 212.26 49.28 212.01 C 48.71 211.66 47.57 210.94 47.00 210.59 C 45.85 209.09 44.12 208.25 42.27 208.02 C 41.73 207.68 40.63 207.00 40.08 206.66 C 39.40 205.70 38.45 204.95 37.23 204.91 C 35.69 204.51 34.14 203.87 33.08 202.65 C 32.40 201.69 31.45 200.87 30.19 201.00 C 29.88 200.81 29.27 200.42 28.97 200.23 Z" />
</g>
<g id="#38a9b9fb">
<path fill="#38a9b9" opacity="1.00" d=" M 128.94 223.73 C 144.16 214.97 159.35 206.16 174.74 197.70 C 172.26 200.68 172.94 204.44 172.17 207.91 C 170.64 208.55 169.12 209.31 168.01 210.59 C 167.44 210.94 166.29 211.66 165.71 212.02 C 163.79 212.30 162.05 213.23 160.81 214.73 C 159.03 215.34 157.24 216.09 156.01 217.58 C 155.44 217.94 154.29 218.65 153.72 219.01 C 151.88 219.27 150.15 220.09 149.00 221.59 C 148.43 221.94 147.29 222.66 146.72 223.01 C 144.88 223.26 143.15 224.09 142.00 225.59 C 141.43 225.95 140.29 226.66 139.72 227.02 C 137.84 227.28 136.12 228.18 134.88 229.63 L 134.05 230.20 C 133.76 226.96 132.69 223.40 128.94 223.73 Z" />
</g>
<g id="#1a5c5680">
<path fill="#1a5c56" opacity="0.50" d=" M 186.91 199.65 C 187.61 198.71 188.55 197.96 189.77 197.90 C 190.61 199.43 187.98 200.89 186.91 199.65 Z" />
</g>
<g id="#9bd6dcff">
<path fill="#9bd6dc" opacity="1.00" d=" M 151.99 202.58 C 153.16 201.11 154.88 200.30 156.70 199.98 C 157.00 202.06 153.65 203.49 151.99 202.58 Z" />
</g>
<g id="#3b2f5e78">
<path fill="#3b2f5e" opacity="0.47" d=" M 30.19 201.00 C 31.45 200.87 32.40 201.69 33.08 202.65 C 32.05 203.82 29.42 202.52 30.19 201.00 Z" />
</g>
<g id="#3a31617c">
<path fill="#3a3161" opacity="0.49" d=" M 37.23 204.91 C 38.45 204.95 39.40 205.70 40.08 206.66 C 39.00 207.88 36.39 206.43 37.23 204.91 Z" />
</g>
<g id="#1855537b">
<path fill="#185553" opacity="0.48" d=" M 174.92 206.67 C 175.59 205.69 176.55 204.96 177.77 204.90 C 178.60 206.42 176.00 207.88 174.92 206.67 Z" />
</g>
<g id="#35305e76">
<path fill="#35305e" opacity="0.46" d=" M 42.27 208.02 C 44.12 208.25 45.85 209.09 47.00 210.59 C 45.34 211.47 42.04 210.07 42.27 208.02 Z" />
</g>
<g id="#17505074">
<path fill="#175050" opacity="0.45" d=" M 168.01 210.59 C 169.12 209.31 170.64 208.55 172.17 207.91 L 172.78 208.05 C 172.93 210.11 169.67 211.41 168.01 210.59 Z" />
</g>
<g id="#3432627a">
<path fill="#343262" opacity="0.48" d=" M 49.28 212.01 C 51.12 212.26 52.85 213.09 54.00 214.59 C 52.34 215.47 49.04 214.07 49.28 212.01 Z" />
</g>
<g id="#5a74cffa">
<path fill="#5a74cf" opacity="0.98" d=" M 58.95 216.94 C 59.12 213.14 61.16 211.02 65.10 211.80 C 73.69 216.89 82.47 221.64 91.05 226.74 C 87.13 226.32 86.49 229.91 86.86 232.98 C 85.48 232.04 83.92 231.39 82.29 231.04 C 81.72 230.68 80.57 229.95 80.00 229.59 C 78.85 228.10 77.12 227.26 75.28 227.01 C 74.71 226.66 73.57 225.94 73.00 225.59 C 71.85 224.09 70.12 223.25 68.27 223.02 C 67.73 222.68 66.63 222.00 66.08 221.66 C 65.40 220.70 64.45 219.95 63.22 219.91 C 61.62 219.53 60.13 218.70 58.86 217.66 L 58.95 216.94 Z" />
</g>
<g id="#17525579">
<path fill="#175255" opacity="0.47" d=" M 160.81 214.73 C 162.05 213.23 163.79 212.30 165.71 212.02 C 165.87 214.14 162.56 215.39 160.81 214.73 Z" />
</g>
<g id="#15494d6c">
<path fill="#15494d" opacity="0.42" d=" M 156.01 217.58 C 157.24 216.09 159.03 215.34 160.81 214.73 C 161.05 216.93 157.81 218.46 156.01 217.58 Z" />
</g>
<g id="#30326077">
<path fill="#303260" opacity="0.47" d=" M 56.22 216.00 C 57.18 216.16 58.10 216.48 58.95 216.94 L 58.86 217.66 C 57.87 218.92 55.51 217.37 56.22 216.00 Z" />
</g>
<g id="#164b5171">
<path fill="#164b51" opacity="0.44" d=" M 149.00 221.59 C 150.15 220.09 151.88 219.27 153.72 219.01 C 153.97 221.07 150.66 222.47 149.00 221.59 Z" />
</g>
<g id="#2f35657d">
<path fill="#2f3565" opacity="0.49" d=" M 63.22 219.91 C 64.45 219.95 65.40 220.70 66.08 221.66 C 65.00 222.88 62.39 221.43 63.22 219.91 Z" />
</g>
<g id="#2a346178">
<path fill="#2a3461" opacity="0.47" d=" M 68.27 223.02 C 70.12 223.25 71.85 224.09 73.00 225.59 C 71.34 226.47 68.04 225.07 68.27 223.02 Z" />
</g>
<g id="#164c5675">
<path fill="#164c56" opacity="0.46" d=" M 142.00 225.59 C 143.15 224.09 144.88 223.26 146.72 223.01 C 146.96 225.07 143.66 226.47 142.00 225.59 Z" />
</g>
<g id="#3c88cffb">
<path fill="#3c88cf" opacity="1.00" d=" M 107.86 235.91 C 114.91 231.90 121.94 227.83 128.94 223.73 C 132.69 223.40 133.76 226.96 134.05 230.20 C 133.73 230.43 133.11 230.88 132.79 231.11 C 130.88 231.10 129.18 232.12 128.01 233.59 C 127.44 233.94 126.29 234.66 125.72 235.01 C 123.88 235.26 122.15 236.09 121.00 237.59 C 120.43 237.95 119.29 238.66 118.71 239.02 C 116.79 239.29 115.05 240.23 113.81 241.74 C 112.03 242.35 110.18 243.04 109.03 244.62 C 108.28 246.07 106.71 246.13 105.98 244.62 C 104.91 243.04 103.11 242.28 101.27 242.02 C 100.73 241.68 99.63 241.00 99.08 240.66 C 98.40 239.69 97.44 238.92 96.21 238.94 C 95.65 238.61 94.55 237.93 94.00 237.59 C 92.86 236.09 91.12 235.27 89.29 235.01 C 88.68 234.66 87.47 233.96 86.87 233.62 L 86.86 232.98 C 86.49 229.91 87.13 226.32 91.05 226.74 C 96.70 229.60 101.87 233.96 107.86 235.91 Z" />
</g>
<g id="#2738667d">
<path fill="#273866" opacity="0.49" d=" M 75.28 227.01 C 77.12 227.26 78.85 228.10 80.00 229.59 C 78.34 230.47 75.04 229.07 75.28 227.01 Z" />
</g>
<g id="#174b5d7a">
<path fill="#174b5d" opacity="0.48" d=" M 134.88 229.63 C 136.12 228.18 137.84 227.28 139.72 227.02 C 139.91 229.10 136.58 230.46 134.88 229.63 Z" />
</g>
<g id="#253c6a81">
<path fill="#253c6a" opacity="0.51" d=" M 82.29 231.04 C 83.92 231.39 85.48 232.04 86.86 232.98 L 86.87 233.62 C 85.28 234.54 82.15 232.93 82.29 231.04 Z" />
</g>
<g id="#194a647f">
<path fill="#194a64" opacity="0.50" d=" M 128.01 233.59 C 129.18 232.12 130.88 231.10 132.79 231.11 C 132.86 233.08 129.66 234.42 128.01 233.59 Z" />
</g>
<g id="#22406e85">
<path fill="#22406e" opacity="0.52" d=" M 89.29 235.01 C 91.12 235.27 92.86 236.09 94.00 237.59 C 92.34 238.47 89.03 237.07 89.29 235.01 Z" />
</g>
<g id="#19496a83">
<path fill="#19496a" opacity="0.51" d=" M 121.00 237.59 C 122.15 236.09 123.88 235.26 125.72 235.01 C 125.96 237.07 122.66 238.47 121.00 237.59 Z" />
</g>
<g id="#1e406b82">
<path fill="#1e406b" opacity="0.51" d=" M 96.21 238.94 C 97.44 238.92 98.40 239.69 99.08 240.66 C 98.02 241.86 95.41 240.46 96.21 238.94 Z" />
</g>
<g id="#1a497088">
<path fill="#1a4970" opacity="0.53" d=" M 113.81 241.74 C 115.05 240.23 116.79 239.29 118.71 239.02 C 118.86 241.14 115.57 242.38 113.81 241.74 Z" />
</g>
<g id="#1b3f687d">
<path fill="#1b3f68" opacity="0.49" d=" M 101.27 242.02 C 103.11 242.28 104.91 243.04 105.98 244.62 C 104.31 245.43 101.06 244.06 101.27 242.02 Z" />
</g>
<g id="#1840667c">
<path fill="#184066" opacity="0.49" d=" M 109.03 244.62 C 110.18 243.04 112.03 242.35 113.81 241.74 C 114.03 243.92 110.84 245.42 109.03 244.62 Z" />
</g>
</svg>
