<?xml version="1.0" encoding="UTF-8" ?>
<!DOCTYPE svg PUBLIC "-//W3C//DTD SVG 1.1//EN" "http://www.w3.org/Graphics/SVG/1.1/DTD/svg11.dtd">
<svg width="250pt" height="250pt" viewBox="0 0 250 250" version="1.1" xmlns="http://www.w3.org/2000/svg">
<g id="#ff1f43ff">
<path fill="#ff1f43" opacity="1.00" d=" M 0.00 0.00 L 250.00 0.00 L 250.00 250.00 L 0.00 250.00 L 0.00 0.00 M 154.03 50.36 C 153.43 55.22 153.75 60.12 153.69 65.00 C 153.66 99.05 153.77 133.11 153.63 167.16 C 152.21 165.28 151.03 163.23 149.90 161.17 C 131.10 127.27 112.28 93.39 93.45 59.52 C 91.65 56.56 90.56 53.03 87.97 50.66 C 78.57 50.41 69.14 50.43 59.73 50.69 C 60.18 51.79 60.66 52.88 61.16 53.95 C 86.77 100.95 112.53 147.86 138.13 194.86 C 139.36 196.98 140.39 199.29 142.12 201.07 C 146.71 201.71 151.38 201.20 156.00 201.34 C 164.55 201.16 173.13 201.75 181.65 200.98 C 181.45 150.79 181.52 100.59 181.61 50.39 C 172.42 50.49 163.22 50.56 154.03 50.36 Z" />
</g>
<g id="#fefefeff">
<path fill="#fefefe" opacity="1.00" d=" M 154.03 50.36 C 163.22 50.56 172.42 50.49 181.61 50.39 C 181.52 100.59 181.45 150.79 181.65 200.98 C 173.13 201.75 164.55 201.16 156.00 201.34 C 151.38 201.20 146.71 201.71 142.12 201.07 C 140.39 199.29 139.36 196.98 138.13 194.86 C 112.53 147.86 86.77 100.95 61.16 53.95 C 60.66 52.88 60.18 51.79 59.73 50.69 C 69.14 50.43 78.57 50.41 87.97 50.66 C 90.56 53.03 91.65 56.56 93.45 59.52 C 112.28 93.39 131.10 127.27 149.90 161.17 C 151.03 163.23 152.21 165.28 153.63 167.16 C 153.77 133.11 153.66 99.05 153.69 65.00 C 153.75 60.12 153.43 55.22 154.03 50.36 Z" />
</g>
</svg>
