<?xml version="1.0" encoding="UTF-8" ?>
<!DOCTYPE svg PUBLIC "-//W3C//DTD SVG 1.1//EN" "http://www.w3.org/Graphics/SVG/1.1/DTD/svg11.dtd">
<svg width="250pt" height="250pt" viewBox="0 0 250 250" version="1.1" xmlns="http://www.w3.org/2000/svg">
<g id="#2f3347ff">
<path fill="#2f3347" opacity="1.00" d=" M 102.47 2.17 C 131.95 -3.33 163.32 2.43 188.98 17.92 C 213.23 32.45 232.33 55.42 241.98 82.01 C 251.46 107.77 252.11 136.67 243.71 162.81 C 235.20 189.90 217.00 213.75 193.26 229.29 C 167.02 246.70 133.96 253.47 102.98 247.82 C 73.85 242.83 46.80 226.88 28.17 203.95 C 10.79 182.87 0.78 155.92 0.00 128.62 L 0.00 118.78 C 1.54 91.92 11.59 65.54 28.99 44.96 C 47.46 22.68 73.97 7.21 102.47 2.17 M 108.15 19.49 C 108.19 20.55 108.24 21.61 108.28 22.67 C 109.90 22.60 111.52 22.54 113.15 22.48 C 113.44 26.57 113.85 30.66 114.38 34.73 C 115.26 34.62 117.02 34.41 117.90 34.30 C 117.50 30.16 117.06 26.03 116.61 21.89 C 118.23 21.73 119.85 21.56 121.46 21.39 C 121.35 20.59 121.14 18.99 121.03 18.19 C 116.72 18.53 112.44 19.00 108.15 19.49 M 128.66 17.94 C 126.32 23.21 123.81 28.40 121.26 33.58 C 122.47 33.65 123.68 33.73 124.89 33.81 C 125.50 32.68 126.11 31.56 126.73 30.43 C 128.69 30.54 130.66 30.65 132.63 30.78 C 133.62 33.15 135.44 34.74 138.11 34.72 C 136.22 29.59 134.58 24.34 132.27 19.38 C 131.74 17.95 129.83 18.43 128.66 17.94 M 142.94 19.42 C 141.89 24.53 140.75 29.62 139.50 34.68 C 143.43 35.60 147.52 37.38 151.57 36.29 C 154.49 35.01 153.63 31.54 152.97 29.16 C 153.75 27.13 155.62 24.41 153.44 22.57 C 150.43 20.37 146.45 20.30 142.94 19.42 M 95.84 22.86 C 93.58 24.59 93.67 28.47 95.99 30.11 C 98.99 30.99 102.27 30.99 105.05 32.60 C 103.80 33.14 102.55 33.65 101.30 34.15 C 98.80 33.59 96.34 33.56 95.48 36.51 C 98.86 37.24 102.87 38.27 105.87 35.88 C 108.38 34.25 108.38 29.79 105.74 28.30 C 102.75 27.34 99.56 27.20 96.60 26.10 C 98.87 24.84 101.43 24.48 103.99 24.47 C 104.19 23.72 104.58 22.23 104.78 21.48 C 101.80 21.48 98.25 20.57 95.84 22.86 M 160.37 24.10 C 158.46 28.92 156.51 33.71 154.84 38.62 C 158.32 40.00 161.80 41.37 165.28 42.74 C 165.61 42.00 166.26 40.51 166.58 39.76 C 164.31 38.86 161.98 38.05 159.85 36.82 C 160.24 32.70 162.65 28.91 163.92 24.94 C 162.73 24.66 161.55 24.38 160.37 24.10 M 167.29 43.40 C 170.26 46.11 174.07 47.65 177.41 49.83 C 177.89 48.78 178.41 47.75 178.98 46.75 C 176.46 45.38 173.96 43.96 171.49 42.52 C 172.21 41.84 172.83 41.04 173.63 40.44 C 175.87 41.27 177.89 42.57 179.98 43.71 C 180.26 42.99 180.83 41.56 181.11 40.85 C 178.94 39.54 176.77 38.23 174.63 36.89 C 175.11 36.48 176.07 35.67 176.55 35.27 C 179.26 35.88 181.56 37.57 183.99 38.82 C 184.28 38.10 184.86 36.65 185.14 35.92 C 181.77 33.91 178.38 31.92 174.96 30.00 C 172.48 34.51 169.47 38.73 167.29 43.40 M 63.26 38.15 C 66.05 42.67 68.89 47.15 71.82 51.59 C 72.77 50.96 73.72 50.34 74.66 49.72 C 73.77 47.95 72.90 46.17 72.05 44.37 C 74.87 44.43 77.57 45.27 80.14 46.39 C 81.11 45.59 82.09 44.79 83.07 43.99 C 81.14 43.16 79.20 42.33 77.27 41.51 C 77.59 40.56 78.24 38.66 78.56 37.71 C 77.21 35.72 75.92 32.74 72.99 33.13 C 69.27 33.57 66.37 36.29 63.26 38.15 M 182.60 53.18 C 184.07 56.77 188.03 57.90 191.47 58.64 C 191.46 57.79 191.42 56.11 191.41 55.27 C 189.48 54.41 186.82 54.12 185.87 51.94 C 184.29 48.79 187.55 44.69 190.97 45.20 C 193.52 45.30 194.37 48.20 195.74 49.88 C 196.85 49.69 197.98 49.50 199.10 49.31 C 197.67 45.78 195.27 41.92 191.06 41.61 C 185.03 40.59 179.70 47.75 182.60 53.18 M 56.44 44.54 C 50.46 45.88 47.86 54.27 52.38 58.55 C 56.76 63.40 65.76 60.30 66.60 53.91 C 67.88 48.27 61.98 42.78 56.44 44.54 M 198.18 54.33 C 195.33 55.72 193.42 58.86 193.65 62.04 C 193.85 67.36 199.85 71.89 204.96 69.72 C 209.19 68.36 211.62 63.14 209.77 59.06 C 208.19 54.55 202.49 51.98 198.18 54.33 M 37.99 64.99 C 36.66 70.90 43.31 76.48 48.91 74.18 C 53.05 72.72 54.59 68.23 55.00 64.25 C 53.01 62.85 51.04 61.44 49.05 60.04 C 47.73 61.92 46.41 63.80 45.09 65.68 C 45.56 66.06 46.51 66.81 46.98 67.19 C 48.24 66.46 49.46 65.68 50.79 65.08 C 52.03 66.97 50.48 68.89 49.07 70.12 C 46.04 72.26 41.32 69.64 41.43 65.96 C 41.32 63.43 44.05 62.25 45.60 60.73 C 45.48 59.91 45.25 58.28 45.14 57.46 C 41.83 58.82 38.58 61.21 37.99 64.99 M 123.47 64.40 C 116.32 74.96 109.58 85.81 102.51 96.43 C 101.17 98.57 99.56 100.63 98.79 103.07 C 98.73 105.62 99.98 108.01 100.70 110.42 C 108.20 132.62 115.66 154.82 123.11 177.03 C 123.57 178.45 124.23 179.80 125.07 181.03 C 125.92 179.18 126.60 177.26 127.24 175.33 C 134.84 152.21 142.63 129.15 150.20 106.02 C 151.06 103.90 150.40 101.64 149.14 99.84 C 141.72 88.28 134.32 76.69 126.90 65.13 C 126.47 63.73 124.26 62.76 123.47 64.40 M 202.37 75.84 C 203.03 76.82 203.69 77.80 204.36 78.78 C 208.87 76.09 213.32 73.31 217.78 70.54 C 217.18 69.49 216.59 68.44 216.00 67.39 C 211.42 70.15 206.86 72.95 202.37 75.84 M 30.91 75.77 C 35.59 78.22 40.19 80.80 44.89 83.21 C 45.44 82.15 46.00 81.09 46.56 80.03 C 41.98 77.54 37.37 75.12 32.84 72.55 C 32.22 73.64 31.60 74.72 30.91 75.77 M 206.16 81.70 C 206.57 82.49 207.38 84.09 207.78 84.88 C 210.60 83.60 213.43 82.33 216.29 81.13 C 214.29 85.42 211.15 89.38 210.96 94.30 C 216.33 92.94 221.24 90.36 226.24 88.06 C 225.83 86.99 225.43 85.91 225.02 84.83 C 222.26 85.99 219.49 87.15 216.69 88.24 C 218.30 83.96 223.12 79.89 220.83 75.03 C 215.94 77.26 211.04 79.45 206.16 81.70 M 28.92 79.22 C 28.44 80.44 27.95 81.66 27.47 82.89 C 30.31 85.38 33.11 87.91 35.87 90.49 C 32.08 90.50 28.29 90.44 24.51 90.39 C 24.05 91.64 23.60 92.89 23.14 94.15 C 28.90 94.09 34.66 93.94 40.42 93.73 C 40.68 93.04 41.20 91.64 41.45 90.95 C 37.23 87.08 33.11 83.12 28.92 79.22 M 23.67 102.26 C 18.76 124.37 21.59 147.95 31.04 168.48 C 33.53 167.36 36.02 166.22 38.50 165.08 C 29.61 146.16 27.10 124.36 31.56 103.92 C 28.92 103.43 26.29 102.85 23.67 102.26 M 218.07 104.08 C 218.42 107.71 219.26 111.29 219.56 114.93 C 221.59 132.03 218.65 149.66 211.45 165.29 C 213.92 166.46 216.41 167.62 218.93 168.68 C 228.24 148.08 230.84 124.45 225.66 102.41 C 223.14 103.00 220.61 103.56 218.07 104.08 M 88.42 118.41 C 87.01 120.56 85.48 122.67 84.47 125.06 C 84.71 126.68 85.66 128.07 86.47 129.46 C 98.68 148.23 110.48 167.27 122.72 186.01 C 114.12 159.84 105.41 133.69 96.46 107.63 C 92.96 110.55 90.95 114.70 88.42 118.41 M 150.17 116.11 C 142.68 139.51 134.28 162.62 127.07 186.10 C 139.94 166.06 152.66 145.92 165.54 125.88 C 161.84 119.69 157.93 113.62 153.73 107.77 C 152.27 110.42 151.04 113.21 150.17 116.11 M 34.50 180.01 C 36.47 182.77 38.11 185.96 40.99 187.90 C 45.23 190.45 51.55 187.94 52.52 183.00 C 53.60 178.26 50.01 174.48 47.39 171.03 C 43.13 174.08 38.80 177.02 34.50 180.01 M 205.27 175.33 C 201.08 176.38 199.15 180.69 196.79 183.88 C 201.07 186.97 205.33 190.07 209.70 193.04 C 211.98 189.71 215.41 186.40 214.84 181.99 C 214.66 177.40 209.59 174.17 205.27 175.33 M 46.08 195.85 C 48.80 198.65 51.53 201.44 54.27 204.22 C 55.15 203.54 56.04 202.85 56.92 202.17 C 54.91 200.07 52.88 197.99 50.82 195.94 C 51.68 195.34 52.51 194.73 53.30 194.05 C 54.79 195.64 56.21 197.33 57.96 198.64 C 58.95 198.28 59.93 197.87 60.89 197.43 C 59.20 194.99 54.56 192.60 57.29 189.27 C 59.33 191.30 61.31 193.38 63.29 195.46 C 64.14 194.71 64.98 193.96 65.82 193.21 C 63.02 190.42 60.27 187.58 57.56 184.70 C 53.59 188.26 49.80 192.02 46.08 195.85 M 186.76 194.05 C 190.57 197.56 193.66 201.89 197.91 204.89 C 201.05 202.36 204.12 199.55 206.25 196.08 C 205.71 195.82 204.65 195.29 204.11 195.03 C 201.85 196.47 199.99 198.43 198.02 200.23 C 197.37 199.56 196.71 198.89 196.06 198.21 C 197.71 196.53 199.47 194.92 200.86 193.00 C 200.23 192.22 199.53 191.50 198.85 190.78 C 196.85 192.75 194.78 194.63 192.57 196.35 C 191.27 192.31 195.51 190.13 197.68 187.54 C 196.80 187.06 195.90 186.63 194.98 186.24 C 191.78 188.29 189.46 191.41 186.76 194.05 M 174.33 203.11 C 174.90 204.01 175.47 204.91 176.05 205.82 C 178.28 204.26 180.50 202.70 182.74 201.15 C 182.46 205.47 182.03 209.78 181.56 214.08 C 181.95 214.61 182.72 215.66 183.11 216.18 C 186.63 213.71 190.56 211.68 193.50 208.47 C 193.25 207.79 192.75 206.44 192.50 205.77 C 190.07 207.44 187.66 209.15 185.24 210.83 C 185.46 205.72 187.04 200.49 185.36 195.48 C 181.60 197.90 177.96 200.50 174.33 203.11 M 61.91 210.02 C 63.73 213.21 67.48 213.91 70.84 214.11 C 70.74 213.09 70.63 212.07 70.52 211.05 C 68.49 210.26 65.79 210.12 64.67 207.96 C 63.41 204.98 65.67 200.97 69.05 201.10 C 71.87 200.64 73.00 203.58 74.39 205.37 C 75.24 205.28 76.92 205.09 77.76 205.00 C 76.47 201.15 73.48 197.35 69.04 197.44 C 62.85 196.98 58.15 204.94 61.91 210.02 M 73.36 218.16 C 76.94 219.97 80.53 221.77 84.11 223.58 C 84.51 222.87 85.32 221.47 85.72 220.77 C 83.24 219.48 80.75 218.21 78.26 216.95 C 78.43 216.28 78.77 214.94 78.94 214.27 C 81.45 215.33 84.03 216.23 86.59 217.17 C 86.67 216.41 86.84 214.91 86.93 214.15 C 84.99 213.22 83.05 212.29 81.11 211.36 C 81.41 210.46 81.72 209.56 82.02 208.67 C 84.69 209.85 87.35 211.04 90.01 212.23 C 90.32 211.25 90.63 210.26 90.95 209.28 C 87.51 207.52 84.08 205.75 80.63 204.00 C 78.06 208.64 75.72 213.41 73.36 218.16 M 168.07 206.46 C 170.62 210.89 173.02 215.41 175.39 219.94 C 176.55 219.64 177.70 219.36 178.86 219.07 C 176.67 214.20 173.98 209.58 171.53 204.85 C 170.39 205.43 169.23 205.94 168.07 206.46 M 88.94 225.71 C 89.73 225.90 91.33 226.29 92.13 226.48 C 93.04 223.50 94.03 220.55 95.08 217.62 C 97.21 221.83 97.30 227.70 102.00 230.07 C 103.68 224.94 105.19 219.76 106.81 214.62 C 106.01 214.29 104.40 213.62 103.60 213.28 C 102.59 216.20 101.57 219.11 100.49 222.00 C 99.15 218.48 97.87 214.94 96.56 211.40 C 95.80 211.11 94.28 210.53 93.51 210.23 C 91.73 215.31 90.09 220.44 88.94 225.71 M 155.57 211.95 C 157.53 216.84 159.41 221.76 161.52 226.58 C 165.13 225.07 168.75 223.62 172.35 222.11 C 171.94 221.50 171.10 220.30 170.68 219.70 C 168.17 220.10 165.81 221.09 163.44 221.97 C 161.98 218.01 160.42 214.09 158.61 210.28 C 157.85 210.70 156.33 211.53 155.57 211.95 M 144.33 214.36 C 143.13 220.03 142.04 225.73 141.02 231.44 C 142.07 231.23 143.12 231.02 144.17 230.81 C 144.60 229.61 145.08 228.43 145.60 227.27 C 147.50 226.32 149.68 226.25 151.73 225.85 C 152.40 226.84 153.07 227.83 153.75 228.83 C 154.67 228.63 156.51 228.24 157.43 228.04 C 154.22 223.40 150.95 218.80 147.72 214.17 C 146.59 214.23 145.46 214.29 144.33 214.36 M 107.90 215.03 C 107.93 218.01 110.31 218.63 112.80 218.90 C 112.37 223.03 111.83 227.15 111.38 231.27 C 112.31 231.28 114.17 231.29 115.09 231.30 C 115.44 227.27 115.93 223.26 116.52 219.27 C 118.11 219.38 119.70 219.50 121.30 219.62 C 121.39 218.83 121.58 217.27 121.67 216.49 C 117.11 215.79 112.52 215.18 107.90 215.03 M 123.55 216.49 C 123.84 221.85 123.24 227.35 124.63 232.59 C 128.51 233.16 127.54 229.29 127.77 226.82 C 130.38 227.36 131.78 229.68 133.60 231.37 C 135.00 231.75 136.43 232.03 137.88 232.21 C 136.73 230.43 135.54 228.67 134.34 226.93 C 136.72 224.37 138.35 219.46 134.83 217.14 C 131.31 215.61 127.27 216.55 123.55 216.49 Z" />
<path fill="#2f3347" opacity="1.00" d=" M 128.06 27.37 C 128.72 25.85 129.37 24.32 130.04 22.80 C 130.64 24.34 131.26 25.89 131.87 27.43 C 130.60 27.41 129.33 27.39 128.06 27.37 Z" />
<path fill="#2f3347" opacity="1.00" d=" M 145.59 23.26 C 147.27 23.67 148.95 24.08 150.63 24.50 C 150.65 25.09 150.69 26.26 150.71 26.84 C 148.90 26.77 147.09 26.69 145.28 26.60 C 145.38 25.49 145.48 24.38 145.59 23.26 Z" />
<path fill="#2f3347" opacity="1.00" d=" M 143.95 32.75 C 144.15 31.52 144.35 30.28 144.55 29.04 C 146.64 30.18 151.25 29.80 150.22 33.34 C 148.11 33.31 146.03 33.01 143.95 32.75 Z" />
<path fill="#2f3347" opacity="1.00" d=" M 67.94 38.93 C 69.64 38.03 71.33 37.11 73.13 36.44 C 76.55 38.66 72.68 41.32 70.82 42.87 C 69.85 41.56 68.89 40.25 67.94 38.93 Z" />
<path fill="#2f3347" opacity="1.00" d=" M 54.23 50.20 C 55.31 48.96 56.71 48.08 58.01 47.09 C 60.57 48.42 62.60 50.48 63.92 53.04 C 62.48 54.61 61.45 57.22 59.02 57.39 C 55.44 57.87 52.10 53.34 54.23 50.20 Z" />
<path fill="#2f3347" opacity="1.00" d=" M 200.36 57.46 C 203.07 56.33 206.52 58.09 206.71 61.12 C 207.32 64.92 202.37 68.22 199.22 65.80 C 196.10 63.81 196.95 58.64 200.36 57.46 Z" />
<path fill="#2f3347" opacity="1.00" d=" M 39.10 181.25 C 41.79 179.38 44.51 177.56 47.26 175.77 C 48.02 177.95 50.24 180.38 48.72 182.71 C 47.69 184.60 45.22 185.95 43.10 185.13 C 41.52 184.11 40.37 182.60 39.10 181.25 Z" />
<path fill="#2f3347" opacity="1.00" d=" M 201.37 182.72 C 202.79 181.28 204.02 179.52 205.93 178.70 C 208.20 178.48 210.50 179.89 211.40 181.98 C 211.82 184.22 210.34 186.22 209.63 188.24 C 206.79 186.54 204.04 184.67 201.37 182.72 Z" />
<path fill="#2f3347" opacity="1.00" d=" M 146.77 218.72 C 147.65 220.14 148.53 221.57 149.41 223.00 C 148.55 223.12 146.82 223.35 145.95 223.46 C 146.22 221.88 146.50 220.30 146.77 218.72 Z" />
<path fill="#2f3347" opacity="1.00" d=" M 127.37 219.28 C 129.68 219.53 134.61 219.34 133.17 223.07 C 131.31 223.65 129.35 223.88 127.44 224.24 C 127.41 222.58 127.39 220.93 127.37 219.28 Z" />
</g>
<g id="#4468ccff">
<path fill="#4468cc" opacity="1.00" d=" M 108.15 19.49 C 112.44 19.00 116.72 18.53 121.03 18.19 C 121.14 18.99 121.35 20.59 121.46 21.39 C 119.85 21.56 118.23 21.73 116.61 21.89 C 117.06 26.03 117.50 30.16 117.90 34.30 C 117.02 34.41 115.26 34.62 114.38 34.73 C 113.85 30.66 113.44 26.57 113.15 22.48 C 111.52 22.54 109.90 22.60 108.28 22.67 C 108.24 21.61 108.19 20.55 108.15 19.49 Z" />
<path fill="#4468cc" opacity="1.00" d=" M 128.66 17.94 C 129.83 18.43 131.74 17.95 132.27 19.38 C 134.58 24.34 136.22 29.59 138.11 34.72 C 135.44 34.74 133.62 33.15 132.63 30.78 C 130.66 30.65 128.69 30.54 126.73 30.43 C 126.11 31.56 125.50 32.68 124.89 33.81 C 123.68 33.73 122.47 33.65 121.26 33.58 C 123.81 28.40 126.32 23.21 128.66 17.94 M 128.06 27.37 C 129.33 27.39 130.60 27.41 131.87 27.43 C 131.26 25.89 130.64 24.34 130.04 22.80 C 129.37 24.32 128.72 25.85 128.06 27.37 Z" />
<path fill="#4468cc" opacity="1.00" d=" M 142.94 19.42 C 146.45 20.30 150.43 20.37 153.44 22.57 C 155.62 24.41 153.75 27.13 152.97 29.16 C 153.63 31.54 154.49 35.01 151.57 36.29 C 147.52 37.38 143.43 35.60 139.50 34.68 C 140.75 29.62 141.89 24.53 142.94 19.42 M 145.59 23.26 C 145.48 24.38 145.38 25.49 145.28 26.60 C 147.09 26.69 148.90 26.77 150.71 26.84 C 150.69 26.26 150.65 25.09 150.63 24.50 C 148.95 24.08 147.27 23.67 145.59 23.26 M 143.95 32.75 C 146.03 33.01 148.11 33.31 150.22 33.34 C 151.25 29.80 146.64 30.18 144.55 29.04 C 144.35 30.28 144.15 31.52 143.95 32.75 Z" />
<path fill="#4468cc" opacity="1.00" d=" M 95.84 22.86 C 98.25 20.57 101.80 21.48 104.78 21.48 C 104.58 22.23 104.19 23.72 103.99 24.47 C 101.43 24.48 98.87 24.84 96.60 26.10 C 99.56 27.20 102.75 27.34 105.74 28.30 C 108.38 29.79 108.38 34.25 105.87 35.88 C 102.87 38.27 98.86 37.24 95.48 36.51 C 96.34 33.56 98.80 33.59 101.30 34.15 C 102.55 33.65 103.80 33.14 105.05 32.60 C 102.27 30.99 98.99 30.99 95.99 30.11 C 93.67 28.47 93.58 24.59 95.84 22.86 Z" />
<path fill="#4468cc" opacity="1.00" d=" M 160.37 24.10 C 161.55 24.38 162.73 24.66 163.92 24.94 C 162.65 28.91 160.24 32.70 159.85 36.82 C 161.98 38.05 164.31 38.86 166.58 39.76 C 166.26 40.51 165.61 42.00 165.28 42.74 C 161.80 41.37 158.32 40.00 154.84 38.62 C 156.51 33.71 158.46 28.92 160.37 24.10 Z" />
<path fill="#4468cc" opacity="1.00" d=" M 167.29 43.40 C 169.47 38.73 172.48 34.51 174.96 30.00 C 178.38 31.92 181.77 33.91 185.14 35.92 C 184.86 36.65 184.28 38.10 183.99 38.82 C 181.56 37.57 179.26 35.88 176.55 35.27 C 176.07 35.67 175.11 36.48 174.63 36.89 C 176.77 38.23 178.94 39.54 181.11 40.85 C 180.83 41.56 180.26 42.99 179.98 43.71 C 177.89 42.57 175.87 41.27 173.63 40.44 C 172.83 41.04 172.21 41.84 171.49 42.52 C 173.96 43.96 176.46 45.38 178.98 46.75 C 178.41 47.75 177.89 48.78 177.41 49.83 C 174.07 47.65 170.26 46.11 167.29 43.40 Z" />
<path fill="#4468cc" opacity="1.00" d=" M 63.26 38.15 C 66.37 36.29 69.27 33.57 72.99 33.13 C 75.92 32.74 77.21 35.72 78.56 37.71 C 78.24 38.66 77.59 40.56 77.27 41.51 C 79.20 42.33 81.14 43.16 83.07 43.99 C 82.09 44.79 81.11 45.59 80.14 46.39 C 77.57 45.27 74.87 44.43 72.05 44.37 C 72.90 46.17 73.77 47.95 74.66 49.72 C 73.72 50.34 72.77 50.96 71.82 51.59 C 68.89 47.15 66.05 42.67 63.26 38.15 M 67.94 38.93 C 68.89 40.25 69.85 41.56 70.82 42.87 C 72.68 41.32 76.55 38.66 73.13 36.44 C 71.33 37.11 69.64 38.03 67.94 38.93 Z" />
<path fill="#4468cc" opacity="1.00" d=" M 182.60 53.18 C 179.70 47.75 185.03 40.59 191.06 41.61 C 195.27 41.92 197.67 45.78 199.10 49.31 C 197.98 49.50 196.85 49.69 195.74 49.88 C 194.37 48.20 193.52 45.30 190.97 45.20 C 187.55 44.69 184.29 48.79 185.87 51.94 C 186.82 54.12 189.48 54.41 191.41 55.27 C 191.42 56.11 191.46 57.79 191.47 58.64 C 188.03 57.90 184.07 56.77 182.60 53.18 Z" />
<path fill="#4468cc" opacity="1.00" d=" M 56.44 44.54 C 61.98 42.78 67.88 48.27 66.60 53.91 C 65.76 60.30 56.76 63.40 52.38 58.55 C 47.86 54.27 50.46 45.88 56.44 44.54 M 54.23 50.20 C 52.10 53.34 55.44 57.87 59.02 57.39 C 61.45 57.22 62.48 54.61 63.92 53.04 C 62.60 50.48 60.57 48.42 58.01 47.09 C 56.71 48.08 55.31 48.96 54.23 50.20 Z" />
<path fill="#4468cc" opacity="1.00" d=" M 198.18 54.33 C 202.49 51.98 208.19 54.55 209.77 59.06 C 211.62 63.14 209.19 68.36 204.96 69.72 C 199.85 71.89 193.85 67.36 193.65 62.04 C 193.42 58.86 195.33 55.72 198.18 54.33 M 200.36 57.46 C 196.95 58.64 196.10 63.81 199.22 65.80 C 202.37 68.22 207.32 64.92 206.71 61.12 C 206.52 58.09 203.07 56.33 200.36 57.46 Z" />
<path fill="#4468cc" opacity="1.00" d=" M 37.99 64.99 C 38.58 61.21 41.83 58.82 45.14 57.46 C 45.25 58.28 45.48 59.91 45.60 60.73 C 44.05 62.25 41.32 63.43 41.43 65.96 C 41.32 69.64 46.04 72.26 49.07 70.12 C 50.48 68.89 52.03 66.97 50.79 65.08 C 49.46 65.68 48.24 66.46 46.98 67.19 C 46.51 66.81 45.56 66.06 45.09 65.68 C 46.41 63.80 47.73 61.92 49.05 60.04 C 51.04 61.44 53.01 62.85 55.00 64.25 C 54.59 68.23 53.05 72.72 48.91 74.18 C 43.31 76.48 36.66 70.90 37.99 64.99 Z" />
<path fill="#4468cc" opacity="1.00" d=" M 202.37 75.84 C 206.86 72.95 211.42 70.15 216.00 67.39 C 216.59 68.44 217.18 69.49 217.78 70.54 C 213.32 73.31 208.87 76.09 204.36 78.78 C 203.69 77.80 203.03 76.82 202.37 75.84 Z" />
<path fill="#4468cc" opacity="1.00" d=" M 30.91 75.77 C 31.60 74.72 32.22 73.64 32.84 72.55 C 37.37 75.12 41.98 77.54 46.56 80.03 C 46.00 81.09 45.44 82.15 44.89 83.21 C 40.19 80.80 35.59 78.22 30.91 75.77 Z" />
<path fill="#4468cc" opacity="1.00" d=" M 206.16 81.70 C 211.04 79.45 215.94 77.26 220.83 75.03 C 223.12 79.89 218.30 83.96 216.69 88.24 C 219.49 87.15 222.26 85.99 225.02 84.83 C 225.43 85.91 225.83 86.99 226.24 88.06 C 221.24 90.36 216.33 92.94 210.96 94.30 C 211.15 89.38 214.29 85.42 216.29 81.13 C 213.43 82.33 210.60 83.60 207.78 84.88 C 207.38 84.09 206.57 82.49 206.16 81.70 Z" />
<path fill="#4468cc" opacity="1.00" d=" M 28.92 79.22 C 33.11 83.12 37.23 87.08 41.45 90.95 C 41.20 91.64 40.68 93.04 40.42 93.73 C 34.66 93.94 28.90 94.09 23.14 94.15 C 23.60 92.89 24.05 91.64 24.51 90.39 C 28.29 90.44 32.08 90.50 35.87 90.49 C 33.11 87.91 30.31 85.38 27.47 82.89 C 27.95 81.66 28.44 80.44 28.92 79.22 Z" />
<path fill="#4468cc" opacity="1.00" d=" M 88.42 118.41 C 90.95 114.70 92.96 110.55 96.46 107.63 C 105.41 133.69 114.12 159.84 122.72 186.01 C 110.48 167.27 98.68 148.23 86.47 129.46 C 85.66 128.07 84.71 126.68 84.47 125.06 C 85.48 122.67 87.01 120.56 88.42 118.41 Z" />
<path fill="#4468cc" opacity="1.00" d=" M 150.17 116.11 C 151.04 113.21 152.27 110.42 153.73 107.77 C 157.93 113.62 161.84 119.69 165.54 125.88 C 152.66 145.92 139.94 166.06 127.07 186.10 C 134.28 162.62 142.68 139.51 150.17 116.11 Z" />
<path fill="#4468cc" opacity="1.00" d=" M 34.50 180.01 C 38.80 177.02 43.13 174.08 47.39 171.03 C 50.01 174.48 53.60 178.26 52.52 183.00 C 51.55 187.94 45.23 190.45 40.99 187.90 C 38.11 185.96 36.47 182.77 34.50 180.01 M 39.10 181.25 C 40.37 182.60 41.52 184.11 43.10 185.13 C 45.22 185.95 47.69 184.60 48.72 182.71 C 50.24 180.38 48.02 177.95 47.26 175.77 C 44.51 177.56 41.79 179.38 39.10 181.25 Z" />
<path fill="#4468cc" opacity="1.00" d=" M 205.27 175.33 C 209.59 174.17 214.66 177.40 214.84 181.99 C 215.41 186.40 211.98 189.71 209.70 193.04 C 205.33 190.07 201.07 186.97 196.79 183.88 C 199.15 180.69 201.08 176.38 205.27 175.33 M 201.37 182.72 C 204.04 184.67 206.79 186.54 209.63 188.24 C 210.34 186.22 211.82 184.22 211.40 181.98 C 210.50 179.89 208.20 178.48 205.93 178.70 C 204.02 179.52 202.79 181.28 201.37 182.72 Z" />
<path fill="#4468cc" opacity="1.00" d=" M 46.08 195.85 C 49.80 192.02 53.59 188.26 57.56 184.70 C 60.27 187.58 63.02 190.42 65.82 193.21 C 64.98 193.96 64.14 194.71 63.29 195.46 C 61.31 193.38 59.33 191.30 57.29 189.27 C 54.56 192.60 59.20 194.99 60.89 197.43 C 59.93 197.87 58.95 198.28 57.96 198.64 C 56.21 197.33 54.79 195.64 53.30 194.05 C 52.51 194.73 51.68 195.34 50.82 195.94 C 52.88 197.99 54.91 200.07 56.92 202.17 C 56.04 202.85 55.15 203.54 54.27 204.22 C 51.53 201.44 48.80 198.65 46.08 195.85 Z" />
<path fill="#4468cc" opacity="1.00" d=" M 186.76 194.05 C 189.46 191.41 191.78 188.29 194.98 186.24 C 195.90 186.63 196.80 187.06 197.68 187.54 C 195.51 190.13 191.27 192.31 192.57 196.35 C 194.78 194.63 196.85 192.75 198.85 190.78 C 199.53 191.50 200.23 192.22 200.86 193.00 C 199.47 194.92 197.71 196.53 196.06 198.21 C 196.71 198.89 197.37 199.56 198.02 200.23 C 199.99 198.43 201.85 196.47 204.11 195.03 C 204.65 195.29 205.71 195.82 206.25 196.08 C 204.12 199.55 201.05 202.36 197.91 204.89 C 193.66 201.89 190.57 197.56 186.76 194.05 Z" />
<path fill="#4468cc" opacity="1.00" d=" M 174.33 203.11 C 177.96 200.50 181.60 197.90 185.36 195.48 C 187.04 200.49 185.46 205.72 185.24 210.83 C 187.66 209.15 190.07 207.44 192.50 205.77 C 192.75 206.44 193.25 207.79 193.50 208.47 C 190.56 211.68 186.63 213.71 183.11 216.18 C 182.72 215.66 181.95 214.61 181.56 214.08 C 182.03 209.78 182.46 205.47 182.74 201.15 C 180.50 202.70 178.28 204.26 176.05 205.82 C 175.47 204.91 174.90 204.01 174.33 203.11 Z" />
<path fill="#4468cc" opacity="1.00" d=" M 61.91 210.02 C 58.15 204.94 62.85 196.98 69.04 197.44 C 73.48 197.35 76.47 201.15 77.76 205.00 C 76.92 205.09 75.24 205.28 74.39 205.37 C 73.00 203.58 71.87 200.64 69.05 201.10 C 65.67 200.97 63.41 204.98 64.67 207.96 C 65.79 210.12 68.49 210.26 70.52 211.05 C 70.63 212.07 70.74 213.09 70.84 214.11 C 67.48 213.91 63.73 213.21 61.91 210.02 Z" />
<path fill="#4468cc" opacity="1.00" d=" M 73.36 218.16 C 75.72 213.41 78.06 208.64 80.63 204.00 C 84.08 205.75 87.51 207.52 90.95 209.28 C 90.63 210.26 90.32 211.25 90.01 212.23 C 87.35 211.04 84.69 209.85 82.02 208.67 C 81.72 209.56 81.41 210.46 81.11 211.36 C 83.05 212.29 84.99 213.22 86.93 214.15 C 86.84 214.91 86.67 216.41 86.59 217.17 C 84.03 216.23 81.45 215.33 78.94 214.27 C 78.77 214.94 78.43 216.28 78.26 216.95 C 80.75 218.21 83.24 219.48 85.72 220.77 C 85.32 221.47 84.51 222.87 84.11 223.58 C 80.53 221.77 76.94 219.97 73.36 218.16 Z" />
<path fill="#4468cc" opacity="1.00" d=" M 168.07 206.46 C 169.23 205.94 170.39 205.43 171.53 204.85 C 173.98 209.58 176.67 214.20 178.86 219.07 C 177.70 219.36 176.55 219.64 175.39 219.94 C 173.02 215.41 170.62 210.89 168.07 206.46 Z" />
<path fill="#4468cc" opacity="1.00" d=" M 88.94 225.71 C 90.09 220.44 91.73 215.31 93.51 210.23 C 94.28 210.53 95.80 211.11 96.56 211.40 C 97.87 214.94 99.15 218.48 100.49 222.00 C 101.57 219.11 102.59 216.20 103.60 213.28 C 104.40 213.62 106.01 214.29 106.81 214.62 C 105.19 219.76 103.68 224.94 102.00 230.07 C 97.30 227.70 97.21 221.83 95.08 217.62 C 94.03 220.55 93.04 223.50 92.13 226.48 C 91.33 226.29 89.73 225.90 88.94 225.71 Z" />
<path fill="#4468cc" opacity="1.00" d=" M 155.57 211.95 C 156.33 211.53 157.85 210.70 158.61 210.28 C 160.42 214.09 161.98 218.01 163.44 221.97 C 165.81 221.09 168.17 220.10 170.68 219.70 C 171.10 220.30 171.94 221.50 172.35 222.11 C 168.75 223.62 165.13 225.07 161.52 226.58 C 159.41 221.76 157.53 216.84 155.57 211.95 Z" />
<path fill="#4468cc" opacity="1.00" d=" M 144.33 214.36 C 145.46 214.29 146.59 214.23 147.72 214.17 C 150.95 218.80 154.22 223.40 157.43 228.04 C 156.51 228.24 154.67 228.63 153.75 228.83 C 153.07 227.83 152.40 226.84 151.73 225.85 C 149.68 226.25 147.50 226.32 145.60 227.27 C 145.08 228.43 144.60 229.61 144.17 230.81 C 143.12 231.02 142.07 231.23 141.02 231.44 C 142.04 225.73 143.13 220.03 144.33 214.36 M 146.77 218.72 C 146.50 220.30 146.22 221.88 145.95 223.46 C 146.82 223.35 148.55 223.12 149.41 223.00 C 148.53 221.57 147.65 220.14 146.77 218.72 Z" />
<path fill="#4468cc" opacity="1.00" d=" M 107.90 215.03 C 112.52 215.18 117.11 215.79 121.67 216.49 C 121.58 217.27 121.39 218.83 121.30 219.62 C 119.70 219.50 118.11 219.38 116.52 219.27 C 115.93 223.26 115.44 227.27 115.09 231.30 C 114.17 231.29 112.31 231.28 111.38 231.27 C 111.83 227.15 112.37 223.03 112.80 218.90 C 110.31 218.63 107.93 218.01 107.90 215.03 Z" />
<path fill="#4468cc" opacity="1.00" d=" M 123.55 216.49 C 127.27 216.55 131.31 215.61 134.83 217.14 C 138.35 219.46 136.72 224.37 134.34 226.93 C 135.54 228.67 136.73 230.43 137.88 232.21 C 136.43 232.03 135.00 231.75 133.60 231.37 C 131.78 229.68 130.38 227.36 127.77 226.82 C 127.54 229.29 128.51 233.16 124.63 232.59 C 123.24 227.35 123.84 221.85 123.55 216.49 M 127.37 219.28 C 127.39 220.93 127.41 222.58 127.44 224.24 C 129.35 223.88 131.31 223.65 133.17 223.07 C 134.61 219.34 129.68 219.53 127.37 219.28 Z" />
</g>
<g id="#ffffffff">
<path fill="#ffffff" opacity="1.00" d=" M 123.47 64.40 C 124.26 62.76 126.47 63.73 126.90 65.13 C 134.32 76.69 141.72 88.28 149.14 99.84 C 150.40 101.64 151.06 103.90 150.20 106.02 C 142.63 129.15 134.84 152.21 127.24 175.33 C 126.60 177.26 125.92 179.18 125.07 181.03 C 124.23 179.80 123.57 178.45 123.11 177.03 C 115.66 154.82 108.20 132.62 100.70 110.42 C 99.98 108.01 98.73 105.62 98.79 103.07 C 99.56 100.63 101.17 98.57 102.51 96.43 C 109.58 85.81 116.32 74.96 123.47 64.40 Z" />
<path fill="#ffffff" opacity="1.00" d=" M 23.67 102.26 C 26.29 102.85 28.92 103.43 31.56 103.92 C 27.10 124.36 29.61 146.16 38.50 165.08 C 36.02 166.22 33.53 167.36 31.04 168.48 C 21.59 147.95 18.76 124.37 23.67 102.26 Z" />
<path fill="#ffffff" opacity="1.00" d=" M 218.07 104.08 C 220.61 103.56 223.14 103.00 225.66 102.41 C 230.84 124.45 228.24 148.08 218.93 168.68 C 216.41 167.62 213.92 166.46 211.45 165.29 C 218.65 149.66 221.59 132.03 219.56 114.93 C 219.26 111.29 218.42 107.71 218.07 104.08 Z" />
</g>
</svg>
