<?xml version="1.0" encoding="UTF-8" ?>
<!DOCTYPE svg PUBLIC "-//W3C//DTD SVG 1.1//EN" "http://www.w3.org/Graphics/SVG/1.1/DTD/svg11.dtd">
<svg width="250pt" height="250pt" viewBox="0 0 250 250" version="1.1" xmlns="http://www.w3.org/2000/svg">
<g id="#f8f9f0ff">
<path fill="#f8f9f0" opacity="1.00" d=" M 119.44 0.00 L 127.80 0.00 C 156.83 0.57 185.51 11.69 207.28 30.91 C 232.83 52.97 248.45 85.77 250.00 119.45 L 250.00 127.82 C 249.43 156.58 238.51 185.01 219.60 206.70 C 196.95 233.23 162.71 249.38 127.84 250.00 L 120.32 250.00 C 92.21 248.89 64.53 238.14 43.32 219.61 C 16.79 196.97 0.63 162.74 0.00 127.87 L 0.00 121.23 C 0.93 86.42 17.23 52.33 43.90 29.90 C 64.81 11.85 91.89 1.37 119.44 0.00 M 120.12 25.20 C 94.62 26.12 69.79 37.71 52.37 56.31 C 34.90 74.56 24.78 99.72 25.09 125.01 C 24.83 146.76 32.28 168.42 45.49 185.66 C 59.85 204.49 81.01 218.03 104.23 222.84 C 124.42 227.00 145.96 225.07 164.87 216.73 C 187.46 206.98 206.12 188.53 216.20 166.09 C 226.40 143.62 227.73 117.31 220.06 93.88 C 212.97 71.99 197.96 52.82 178.52 40.53 C 161.28 29.48 140.56 24.06 120.12 25.20 Z" />
<path fill="#f8f9f0" opacity="1.00" d=" M 118.28 35.01 C 122.05 34.79 125.83 34.96 129.60 35.16 C 129.59 40.00 129.64 44.84 129.55 49.68 C 130.08 49.88 131.13 50.29 131.66 50.49 C 131.32 51.26 130.64 52.79 130.29 53.55 C 131.74 52.37 133.15 51.16 134.60 49.99 C 135.06 53.14 131.35 54.58 130.01 57.07 C 133.84 56.38 135.15 51.65 139.03 51.00 C 136.77 54.89 132.91 57.44 130.16 60.95 C 130.98 61.58 131.79 62.21 132.61 62.85 C 131.44 63.67 130.60 64.75 130.09 66.09 C 134.71 63.41 137.55 58.58 141.91 55.53 C 141.22 55.58 139.84 55.67 139.15 55.72 C 137.19 57.90 135.05 59.90 133.18 62.14 C 132.72 61.68 132.25 61.22 131.78 60.77 C 135.06 57.95 137.97 54.72 141.12 51.76 C 141.68 52.73 142.24 53.71 142.82 54.68 L 143.94 53.13 C 146.03 52.49 144.32 55.22 143.64 55.68 C 139.07 60.32 134.23 64.71 129.95 69.62 C 131.29 70.07 132.21 68.98 133.06 68.19 C 137.66 63.69 142.00 58.91 146.78 54.61 C 147.31 54.57 148.37 54.50 148.90 54.46 C 145.55 58.26 141.82 61.69 138.28 65.30 C 135.48 68.04 132.93 71.08 129.65 73.27 C 129.54 84.57 129.62 95.88 129.61 107.19 C 139.55 109.57 149.69 112.01 158.57 117.26 C 167.52 122.75 175.35 131.25 177.26 141.87 C 178.04 148.58 179.10 155.52 177.13 162.14 C 174.45 173.70 165.68 182.93 155.45 188.45 C 147.62 193.08 138.49 194.54 129.58 195.45 C 129.61 200.90 129.59 206.35 129.60 211.80 C 125.82 211.79 122.03 211.79 118.25 211.80 C 118.27 206.36 118.23 200.93 118.28 195.49 C 110.65 194.58 102.92 193.34 95.94 189.95 C 87.93 186.27 81.20 180.02 76.67 172.49 C 72.74 164.63 70.47 155.92 70.12 147.14 C 79.19 147.19 88.27 147.13 97.34 147.17 C 97.35 152.94 98.49 159.05 102.34 163.55 C 106.31 168.44 112.11 171.58 118.24 172.82 C 118.26 159.20 118.28 145.58 118.23 131.95 C 106.59 128.80 94.21 126.11 84.65 118.29 C 76.88 112.02 72.69 101.94 73.19 92.02 C 72.63 81.21 77.14 70.42 84.98 63.02 C 93.89 54.42 106.32 51.11 118.30 49.71 C 118.23 44.81 118.24 39.91 118.28 35.01 M 105.46 77.34 C 100.20 82.02 99.10 90.57 102.73 96.54 C 106.32 101.50 112.67 102.96 118.24 104.52 C 118.26 93.86 118.27 83.20 118.23 72.53 C 113.68 73.00 108.84 74.02 105.46 77.34 M 129.61 135.33 C 129.60 147.83 129.58 160.33 129.62 172.83 C 136.42 171.86 143.56 169.30 147.62 163.42 C 151.81 157.59 151.87 148.51 146.85 143.15 C 142.03 138.89 135.62 137.21 129.61 135.33 Z" />
<path fill="#f8f9f0" opacity="1.00" d=" M 147.27 58.18 C 148.57 57.03 149.77 55.26 151.81 55.66 C 146.06 62.10 139.82 68.12 133.54 74.04 C 133.16 72.92 133.38 71.99 134.23 71.26 C 138.55 66.88 142.98 62.60 147.27 58.18 Z" />
<path fill="#f8f9f0" opacity="1.00" d=" M 137.88 71.88 C 142.94 66.88 147.94 61.83 153.00 56.82 C 153.75 58.34 154.98 59.54 156.84 59.42 C 151.96 64.32 147.04 69.18 142.20 74.11 C 141.00 75.15 139.94 76.78 138.06 76.45 C 142.66 70.83 148.14 65.97 153.29 60.85 C 153.33 60.17 153.41 58.81 153.46 58.13 C 150.36 62.13 146.47 65.40 142.99 69.05 C 140.75 71.17 138.85 73.80 135.97 75.11 C 136.33 73.89 136.91 72.74 137.88 71.88 Z" />
<path fill="#f8f9f0" opacity="1.00" d=" M 142.56 75.63 C 147.87 70.42 153.01 65.03 158.43 59.94 C 159.43 62.16 157.00 63.38 155.82 64.81 C 150.74 69.49 146.34 74.92 140.86 79.16 C 141.09 77.84 141.47 76.50 142.56 75.63 Z" />
<path fill="#f8f9f0" opacity="1.00" d=" M 142.04 80.54 C 148.29 74.31 154.31 67.82 160.90 61.94 C 161.21 64.45 158.89 65.84 157.42 67.46 C 152.81 71.81 148.61 76.61 143.84 80.78 C 143.39 80.72 142.49 80.60 142.04 80.54 Z" />
<path fill="#f8f9f0" opacity="1.00" d=" M 159.88 66.86 C 161.02 65.84 162.08 64.40 163.85 64.59 C 161.40 68.16 157.99 70.88 155.04 74.00 C 151.35 77.56 147.96 81.43 143.99 84.68 C 143.68 82.40 145.66 81.27 146.91 79.84 C 151.28 75.55 155.59 71.22 159.88 66.86 Z" />
<path fill="#f8f9f0" opacity="1.00" d=" M 161.98 68.99 C 162.97 67.90 164.22 67.12 165.67 66.78 C 164.30 69.55 161.88 71.54 159.74 73.69 C 154.90 78.41 150.27 83.35 145.32 87.95 C 145.24 86.69 145.30 85.31 146.45 84.53 C 151.64 79.36 156.84 74.20 161.98 68.99 Z" />
<path fill="#f8f9f0" opacity="1.00" d=" M 149.62 85.56 C 155.31 80.02 160.76 74.25 166.55 68.81 C 167.50 71.65 164.31 73.05 162.84 74.92 C 156.96 80.36 151.87 86.70 145.48 91.56 C 145.59 88.87 147.98 87.34 149.62 85.56 Z" />
<path fill="#f8f9f0" opacity="1.00" d=" M 167.20 72.42 C 167.70 72.45 168.70 72.49 169.20 72.52 C 163.84 78.37 158.02 83.78 152.49 89.48 C 151.34 90.19 150.31 92.67 148.74 91.16 C 154.50 84.56 160.98 78.57 167.20 72.42 Z" />
<path fill="#f8f9f0" opacity="1.00" d=" M 163.86 79.92 C 165.97 78.14 167.48 75.16 170.54 74.97 C 166.32 80.26 161.39 85.05 156.22 89.41 C 156.87 89.38 158.17 89.33 158.82 89.30 C 162.82 85.21 166.72 80.99 171.07 77.26 C 171.21 79.99 168.88 81.51 167.22 83.24 C 164.16 86.15 161.39 89.37 158.02 91.92 C 157.37 91.13 156.74 90.32 156.10 89.52 L 155.18 90.94 L 152.73 91.83 C 155.70 87.25 160.22 83.96 163.86 79.92 Z" />
<path fill="#f8f9f0" opacity="1.00" d=" M 160.85 91.60 C 164.42 87.79 167.91 83.82 172.11 80.67 C 171.94 83.93 168.84 85.62 166.92 87.86 C 165.12 89.42 163.63 91.98 160.85 91.60 Z" />
<path fill="#f8f9f0" opacity="1.00" d=" M 165.06 91.59 C 167.46 88.95 170.00 86.42 172.63 84.01 C 173.15 87.25 169.78 88.98 167.83 90.96 C 167.14 91.12 165.75 91.43 165.06 91.59 Z" />
<path fill="#f8f9f0" opacity="1.00" d=" M 169.85 91.63 C 170.69 90.27 171.57 88.14 173.52 88.41 C 173.18 89.38 172.75 90.32 172.35 91.28 C 171.73 91.37 170.47 91.54 169.85 91.63 Z" />
</g>
<g id="#011023ff">
<path fill="#011023" opacity="1.00" d=" M 120.12 25.20 C 140.56 24.06 161.28 29.48 178.52 40.53 C 197.96 52.82 212.97 71.99 220.06 93.88 C 227.73 117.31 226.40 143.62 216.20 166.09 C 206.12 188.53 187.46 206.98 164.87 216.73 C 145.96 225.07 124.42 227.00 104.23 222.84 C 81.01 218.03 59.85 204.49 45.49 185.66 C 32.28 168.42 24.83 146.76 25.09 125.01 C 24.78 99.72 34.90 74.56 52.37 56.31 C 69.79 37.71 94.62 26.12 120.12 25.20 M 118.28 35.01 C 118.24 39.91 118.23 44.81 118.30 49.71 C 106.32 51.11 93.89 54.42 84.98 63.02 C 77.14 70.42 72.63 81.21 73.19 92.02 C 72.69 101.94 76.88 112.02 84.65 118.29 C 94.21 126.11 106.59 128.80 118.23 131.95 C 118.28 145.58 118.26 159.20 118.24 172.82 C 112.11 171.58 106.31 168.44 102.34 163.55 C 98.49 159.05 97.35 152.94 97.34 147.17 C 88.27 147.13 79.19 147.19 70.12 147.14 C 70.47 155.92 72.74 164.63 76.67 172.49 C 81.20 180.02 87.93 186.27 95.94 189.95 C 102.92 193.34 110.65 194.58 118.28 195.49 C 118.23 200.93 118.27 206.36 118.25 211.80 C 122.03 211.79 125.82 211.79 129.60 211.80 C 129.59 206.35 129.61 200.90 129.58 195.45 C 138.49 194.54 147.62 193.08 155.45 188.45 C 165.68 182.93 174.45 173.70 177.13 162.14 C 179.10 155.52 178.04 148.58 177.26 141.87 C 175.35 131.25 167.52 122.75 158.57 117.26 C 149.69 112.01 139.55 109.57 129.61 107.19 C 129.62 95.88 129.54 84.57 129.65 73.27 C 132.93 71.08 135.48 68.04 138.28 65.30 C 141.82 61.69 145.55 58.26 148.90 54.46 C 148.37 54.50 147.31 54.57 146.78 54.61 C 142.00 58.91 137.66 63.69 133.06 68.19 C 132.21 68.98 131.29 70.07 129.95 69.62 C 134.23 64.71 139.07 60.32 143.64 55.68 C 144.32 55.22 146.03 52.49 143.94 53.13 L 142.82 54.68 C 142.24 53.71 141.68 52.73 141.12 51.76 C 137.97 54.72 135.06 57.95 131.78 60.77 C 132.25 61.22 132.72 61.68 133.18 62.14 C 135.05 59.90 137.19 57.90 139.15 55.72 C 139.84 55.67 141.22 55.58 141.91 55.53 C 137.55 58.58 134.71 63.41 130.09 66.09 C 130.60 64.75 131.44 63.67 132.61 62.85 C 131.79 62.21 130.98 61.58 130.16 60.95 C 132.91 57.44 136.77 54.89 139.03 51.00 C 135.15 51.65 133.84 56.38 130.01 57.07 C 131.35 54.58 135.06 53.14 134.60 49.99 C 133.15 51.16 131.74 52.37 130.29 53.55 C 130.64 52.79 131.32 51.26 131.66 50.49 C 131.13 50.29 130.08 49.88 129.55 49.68 C 129.64 44.84 129.59 40.00 129.60 35.16 C 125.83 34.96 122.05 34.79 118.28 35.01 M 147.27 58.18 C 142.98 62.60 138.55 66.88 134.23 71.26 C 133.38 71.99 133.16 72.92 133.54 74.04 C 139.82 68.12 146.06 62.10 151.81 55.66 C 149.77 55.26 148.57 57.03 147.27 58.18 M 137.88 71.88 C 136.91 72.74 136.33 73.89 135.97 75.11 C 138.85 73.80 140.75 71.17 142.99 69.05 C 146.47 65.40 150.36 62.13 153.46 58.13 C 153.41 58.81 153.33 60.17 153.29 60.85 C 148.14 65.97 142.66 70.83 138.06 76.45 C 139.94 76.78 141.00 75.15 142.20 74.11 C 147.04 69.18 151.96 64.32 156.84 59.42 C 154.98 59.54 153.75 58.34 153.00 56.82 C 147.94 61.83 142.94 66.88 137.88 71.88 M 142.56 75.63 C 141.47 76.50 141.09 77.84 140.86 79.16 C 146.34 74.92 150.74 69.49 155.82 64.81 C 157.00 63.38 159.43 62.16 158.43 59.94 C 153.01 65.03 147.87 70.42 142.56 75.63 M 142.04 80.54 C 142.49 80.60 143.39 80.72 143.84 80.78 C 148.61 76.61 152.81 71.81 157.42 67.46 C 158.89 65.84 161.21 64.45 160.90 61.94 C 154.31 67.82 148.29 74.31 142.04 80.54 M 159.88 66.86 C 155.59 71.22 151.28 75.55 146.91 79.84 C 145.66 81.27 143.68 82.40 143.99 84.68 C 147.96 81.43 151.35 77.56 155.04 74.00 C 157.99 70.88 161.40 68.16 163.85 64.59 C 162.08 64.40 161.02 65.84 159.88 66.86 M 161.98 68.99 C 156.84 74.20 151.64 79.36 146.45 84.53 C 145.30 85.31 145.24 86.69 145.32 87.95 C 150.27 83.35 154.90 78.41 159.74 73.69 C 161.88 71.54 164.30 69.55 165.67 66.78 C 164.22 67.12 162.97 67.90 161.98 68.99 M 149.62 85.56 C 147.98 87.34 145.59 88.87 145.48 91.56 C 151.87 86.70 156.96 80.36 162.84 74.92 C 164.31 73.05 167.50 71.65 166.55 68.81 C 160.76 74.25 155.31 80.02 149.62 85.56 M 167.20 72.42 C 160.98 78.57 154.50 84.56 148.74 91.16 C 150.31 92.67 151.34 90.19 152.49 89.48 C 158.02 83.78 163.84 78.37 169.20 72.52 C 168.70 72.49 167.70 72.45 167.20 72.42 M 163.86 79.92 C 160.22 83.96 155.70 87.25 152.73 91.83 L 155.18 90.94 L 156.10 89.52 C 156.74 90.32 157.37 91.13 158.02 91.92 C 161.39 89.37 164.16 86.15 167.22 83.24 C 168.88 81.51 171.21 79.99 171.07 77.26 C 166.72 80.99 162.82 85.21 158.82 89.30 C 158.17 89.33 156.87 89.38 156.22 89.41 C 161.39 85.05 166.32 80.26 170.54 74.97 C 167.48 75.16 165.97 78.14 163.86 79.92 M 160.85 91.60 C 163.63 91.98 165.12 89.42 166.92 87.86 C 168.84 85.62 171.94 83.93 172.11 80.67 C 167.91 83.82 164.42 87.79 160.85 91.60 M 165.06 91.59 C 165.75 91.43 167.14 91.12 167.83 90.96 C 169.78 88.98 173.15 87.25 172.63 84.01 C 170.00 86.42 167.46 88.95 165.06 91.59 M 169.85 91.63 C 170.47 91.54 171.73 91.37 172.35 91.28 C 172.75 90.32 173.18 89.38 173.52 88.41 C 171.57 88.14 170.69 90.27 169.85 91.63 Z" />
<path fill="#011023" opacity="1.00" d=" M 105.46 77.34 C 108.84 74.02 113.68 73.00 118.23 72.53 C 118.27 83.20 118.26 93.86 118.24 104.52 C 112.67 102.96 106.32 101.50 102.73 96.54 C 99.10 90.57 100.20 82.02 105.46 77.34 Z" />
<path fill="#011023" opacity="1.00" d=" M 129.61 135.33 C 135.62 137.21 142.03 138.89 146.85 143.15 C 151.87 148.51 151.81 157.59 147.62 163.42 C 143.56 169.30 136.42 171.86 129.62 172.83 C 129.58 160.33 129.60 147.83 129.61 135.33 Z" />
</g>
</svg>
