<?xml version="1.0" encoding="UTF-8" ?>
<!DOCTYPE svg PUBLIC "-//W3C//DTD SVG 1.1//EN" "http://www.w3.org/Graphics/SVG/1.1/DTD/svg11.dtd">
<svg width="250pt" height="250pt" viewBox="0 0 250 250" version="1.1" xmlns="http://www.w3.org/2000/svg">
<g id="#ffffffff">
<path fill="#ffffff" opacity="1.00" d=" M 0.00 0.00 L 250.00 0.00 L 250.00 250.00 L 0.00 250.00 L 0.00 0.00 M 95.96 17.12 C 84.92 17.77 73.72 16.62 62.71 17.57 C 56.70 27.24 51.57 37.49 45.28 46.99 C 36.67 51.74 28.22 56.76 19.65 61.59 C 18.78 62.23 17.15 62.63 17.40 64.03 C 17.37 73.35 17.39 82.66 17.39 91.97 C 17.26 93.61 17.78 95.41 16.95 96.92 C 11.76 106.34 5.88 115.44 0.98 124.98 C 6.17 134.46 11.88 143.66 17.11 153.12 C 17.85 164.24 17.02 175.53 17.52 186.69 C 26.50 192.32 35.98 197.24 45.07 202.73 C 46.85 203.53 47.37 205.55 48.48 207.01 C 53.34 215.23 57.95 223.79 63.01 231.81 C 71.67 231.85 80.37 231.71 89.04 231.84 C 91.81 231.89 94.88 230.96 97.36 232.67 C 106.58 237.92 115.69 243.37 124.97 248.50 C 133.88 243.21 142.99 238.23 151.88 232.89 C 155.84 230.66 160.42 232.23 164.66 231.68 C 172.05 231.84 179.45 231.62 186.84 231.76 C 192.42 222.37 197.68 212.75 203.37 203.44 C 211.50 198.41 219.97 193.87 228.22 189.01 C 229.11 188.28 230.80 188.21 230.99 186.84 L 231.90 186.82 C 231.55 177.89 231.89 168.95 231.76 160.02 C 231.66 157.51 231.32 154.82 232.66 152.55 C 237.92 143.34 243.20 134.14 248.61 125.02 C 243.45 115.50 237.66 106.22 232.41 96.71 C 230.96 93.62 232.08 90.21 231.85 86.97 C 231.95 78.98 231.67 70.97 231.86 63.01 C 230.83 62.11 229.54 61.31 228.20 61.04 L 228.71 62.64 C 223.80 63.52 218.81 62.96 213.86 63.47 C 210.56 60.34 208.93 55.76 206.54 51.91 C 206.47 51.39 206.31 50.34 206.24 49.81 C 213.03 53.26 219.47 57.37 226.10 61.14 L 227.67 61.43 C 228.69 59.36 225.85 59.13 224.79 58.18 C 218.17 54.47 211.60 50.66 205.03 46.87 C 202.35 45.48 201.69 42.27 200.12 39.94 C 195.62 32.43 191.58 24.63 186.75 17.34 C 178.24 16.64 169.64 17.35 161.09 17.19 C 158.19 17.00 155.10 17.79 152.36 16.59 C 143.21 11.43 134.21 5.96 124.95 1.02 C 115.05 5.80 105.85 12.29 95.96 17.12 Z" />
<path fill="#ffffff" opacity="1.00" d=" M 122.30 6.95 C 124.34 5.90 122.37 2.74 125.03 2.67 C 125.53 3.66 125.97 4.68 126.32 5.74 C 127.21 5.56 128.06 5.25 128.88 4.82 C 135.59 8.52 142.14 12.54 148.81 16.33 L 149.03 17.15 C 132.98 17.32 116.93 17.39 100.84 17.21 C 100.65 17.05 100.26 16.72 100.06 16.55 C 107.46 12.69 114.60 8.34 121.82 4.15 C 121.94 4.85 122.18 6.25 122.30 6.95 M 129.34 10.10 C 128.72 11.28 130.19 13.53 131.55 12.68 C 132.70 11.45 130.73 8.97 129.34 10.10 M 118.34 11.24 C 117.69 12.76 118.08 13.19 119.52 12.54 C 120.16 11.06 119.77 10.63 118.34 11.24 Z" />
<path fill="#ffffff" opacity="1.00" d=" M 62.70 20.65 C 63.40 18.92 65.52 19.14 67.04 19.05 C 75.42 19.03 83.81 18.76 92.18 19.04 L 91.80 19.74 C 78.82 27.47 65.58 34.80 52.53 42.43 C 51.49 42.91 50.51 43.90 49.27 43.65 C 53.99 36.13 58.22 28.31 62.70 20.65 M 69.10 21.18 C 67.99 22.59 70.59 24.08 71.60 22.90 C 72.20 21.63 70.11 20.41 69.10 21.18 M 62.38 24.23 C 61.41 25.21 62.19 27.91 63.82 26.92 C 65.16 26.00 63.94 22.69 62.38 24.23 M 75.40 25.19 C 74.79 26.48 76.95 27.81 77.95 26.83 C 78.87 25.38 76.38 24.06 75.40 25.19 M 62.41 32.19 C 61.59 33.09 62.38 35.32 63.76 34.70 C 65.05 33.85 63.91 30.73 62.41 32.19 Z" />
<path fill="#ffffff" opacity="1.00" d=" M 53.72 43.63 C 67.82 35.49 81.85 27.15 96.05 19.21 C 102.27 18.78 108.63 18.44 114.82 19.46 C 119.49 18.45 124.29 19.01 129.04 18.85 C 137.31 19.37 145.66 18.37 153.91 19.27 C 162.76 24.36 171.53 29.60 180.41 34.63 C 182.63 35.98 185.55 36.96 186.10 39.86 C 187.13 39.64 188.28 38.97 189.24 39.81 C 193.06 41.94 196.80 44.21 200.62 46.34 C 203.59 47.52 203.69 51.29 206.17 53.05 C 208.30 55.96 209.65 59.37 211.81 62.27 C 207.44 64.10 202.57 62.95 197.98 63.29 C 194.17 63.03 190.04 64.08 186.50 62.32 C 186.59 61.69 186.77 60.42 186.86 59.79 C 186.34 60.70 185.94 61.66 185.64 62.67 C 180.50 63.75 175.22 63.18 170.01 63.29 C 157.62 63.54 145.22 63.23 132.84 63.52 C 132.39 63.04 131.50 62.07 131.05 61.59 C 130.37 60.21 129.59 58.88 129.03 57.46 C 129.79 57.39 131.31 57.26 132.07 57.19 C 130.85 56.47 129.42 56.64 128.08 56.45 C 126.53 54.23 125.79 50.44 123.17 49.58 C 121.12 54.03 117.76 57.65 115.99 62.24 C 114.22 62.73 112.64 62.20 112.45 60.18 C 110.86 60.71 109.81 62.56 108.01 62.40 C 84.84 62.41 61.67 62.40 38.50 62.30 C 40.70 57.78 43.51 53.60 45.87 49.16 C 47.76 46.43 50.98 45.29 53.72 43.63 M 137.23 23.41 C 136.57 24.36 137.63 26.48 138.88 25.77 C 139.72 24.81 138.42 22.71 137.23 23.41 M 111.27 24.09 C 110.22 24.31 109.31 26.56 110.77 26.79 C 111.99 26.69 112.94 24.18 111.27 24.09 M 82.35 29.20 C 81.81 30.41 83.87 31.49 84.79 30.75 C 85.47 29.47 83.28 28.29 82.35 29.20 M 165.33 29.09 C 165.01 29.38 164.36 29.97 164.04 30.26 C 164.60 33.64 169.27 28.41 165.33 29.09 M 141.24 30.35 C 140.50 31.29 141.66 33.26 142.85 32.73 C 143.74 31.78 142.49 29.63 141.24 30.35 M 107.28 31.05 C 105.97 31.83 105.88 32.55 107.01 33.22 C 108.45 32.43 108.54 31.71 107.28 31.05 M 89.17 33.06 C 88.57 34.28 90.62 35.35 91.57 34.71 C 92.25 33.48 90.14 32.17 89.17 33.06 M 158.31 33.13 C 156.66 33.50 157.13 35.95 158.88 35.20 C 160.95 35.05 160.15 31.94 158.31 33.13 M 96.19 36.98 C 95.95 38.28 96.52 38.82 97.91 38.59 C 98.28 37.19 97.70 36.65 96.19 36.98 M 102.32 41.68 C 103.09 42.23 103.94 42.60 104.86 42.80 L 105.20 42.14 C 103.77 40.78 104.68 38.74 103.81 37.25 C 102.07 37.85 101.99 40.16 102.32 41.68 M 145.13 37.17 C 144.45 38.14 145.63 40.08 146.80 39.58 C 147.62 38.60 146.41 36.40 145.13 37.17 M 151.19 37.34 C 149.58 38.95 152.68 39.81 153.41 38.33 C 154.70 36.89 151.91 36.20 151.19 37.34 M 63.21 39.20 C 61.59 39.62 61.62 42.33 63.20 42.77 C 64.61 42.51 64.70 39.39 63.21 39.20 M 144.21 41.35 C 142.89 42.84 145.65 43.69 146.43 42.44 C 147.98 41.00 144.98 40.05 144.21 41.35 M 149.18 43.35 C 147.95 44.30 149.35 47.14 150.82 45.98 C 151.51 44.97 150.46 42.96 149.18 43.35 M 99.21 43.99 C 98.11 44.49 97.33 46.69 98.96 47.04 C 101.22 47.57 101.77 42.95 99.21 43.99 M 109.20 44.36 C 108.22 45.77 110.63 47.30 111.81 46.56 C 112.72 45.13 110.47 43.31 109.20 44.36 M 137.30 45.38 C 136.23 46.84 138.78 47.58 139.53 46.44 C 141.24 44.93 138.05 43.90 137.30 45.38 M 186.13 45.10 C 185.32 46.40 185.52 47.25 186.74 47.65 C 187.60 46.28 187.40 45.43 186.13 45.10 M 62.40 47.29 C 61.39 48.24 62.20 51.18 63.83 50.05 C 65.03 49.10 64.00 45.98 62.40 47.29 M 116.11 48.35 C 115.82 49.73 116.40 50.24 117.86 49.90 C 118.11 48.55 117.53 48.03 116.11 48.35 M 131.23 49.15 C 130.57 50.52 130.98 50.93 132.45 50.38 C 133.25 48.97 132.84 48.56 131.23 49.15 M 152.96 50.24 C 151.79 51.25 153.38 53.83 154.73 52.73 C 155.48 51.69 154.27 49.62 152.96 50.24 M 95.18 51.34 C 94.60 52.92 95.02 53.32 96.44 52.54 C 97.00 51.08 96.58 50.68 95.18 51.34 M 186.08 53.14 C 186.07 53.57 186.06 54.42 186.05 54.85 L 186.83 54.87 C 186.84 54.44 186.86 53.59 186.87 53.16 L 186.08 53.14 M 62.35 55.22 C 61.33 56.15 62.17 59.01 63.75 57.90 C 65.04 56.96 63.97 53.69 62.35 55.22 M 92.24 57.27 C 91.05 57.41 89.97 59.96 91.72 60.01 C 92.74 59.75 93.62 57.55 92.24 57.27 M 156.42 57.09 C 155.76 58.27 157.21 60.54 158.59 59.65 C 159.75 58.44 157.80 55.95 156.42 57.09 Z" />
<path fill="#ffffff" opacity="1.00" d=" M 157.02 19.21 C 162.98 18.88 168.97 19.16 174.95 19.07 C 178.85 19.17 182.94 18.55 186.64 20.15 C 191.09 28.04 195.96 35.74 200.05 43.79 C 190.95 39.13 182.33 33.58 173.37 28.66 C 171.54 28.05 172.63 26.62 173.59 25.80 C 172.37 24.20 171.26 26.67 169.98 26.72 C 165.68 24.18 161.27 21.82 157.02 19.21 M 179.32 21.31 C 178.12 21.27 176.76 23.72 178.60 23.72 C 179.73 23.72 181.01 21.43 179.32 21.31 M 186.00 22.18 C 186.01 22.61 186.05 23.47 186.07 23.90 L 186.83 23.88 C 186.82 23.44 186.79 22.57 186.78 22.14 L 186.00 22.18 M 186.18 29.37 C 185.28 30.76 185.50 31.59 186.82 31.86 C 187.58 30.52 187.37 29.69 186.18 29.37 Z" />
<path fill="#ffffff" opacity="1.00" d=" M 24.92 59.99 C 31.34 56.45 37.51 52.40 44.02 49.10 C 44.01 51.16 42.53 52.72 41.61 54.45 C 39.91 57.13 38.68 60.14 36.62 62.59 C 31.45 62.70 26.27 62.44 21.10 62.69 C 21.98 61.32 23.63 60.85 24.92 59.99 Z" />
<path fill="#ffffff" opacity="1.00" d=" M 19.60 63.88 C 24.95 63.83 30.62 63.27 35.79 64.08 C 33.71 68.62 30.74 72.87 28.37 77.33 C 28.09 77.47 27.53 77.76 27.25 77.90 C 24.86 73.16 21.48 68.75 19.60 63.88 Z" />
<path fill="#ffffff" opacity="1.00" d=" M 28.69 79.10 C 31.89 74.08 34.27 68.42 37.95 63.78 C 45.31 63.74 52.68 63.73 60.04 63.74 C 61.54 63.73 63.12 65.22 64.49 63.97 C 72.21 64.36 80.02 63.43 87.68 64.36 C 87.51 65.06 87.18 66.47 87.01 67.18 C 88.34 66.71 88.74 65.36 89.35 64.25 C 94.36 63.65 99.48 63.96 104.52 64.07 C 104.45 64.62 104.32 65.71 104.25 66.26 C 106.96 63.95 111.56 62.54 114.49 64.97 C 111.38 69.73 108.63 74.72 105.77 79.64 C 102.78 84.78 99.72 89.89 96.77 95.06 C 93.16 101.30 89.45 107.49 85.88 113.76 C 81.48 121.37 76.92 128.89 72.61 136.55 C 70.65 139.87 68.81 143.27 66.72 146.52 C 54.12 124.29 41.11 102.28 28.61 79.99 L 28.69 79.10 M 98.24 68.01 C 96.59 68.32 97.08 70.85 98.75 69.84 C 100.38 69.53 99.89 67.07 98.24 68.01 M 63.12 70.22 C 61.59 70.69 61.69 73.36 63.19 73.80 C 64.68 73.54 64.66 70.40 63.12 70.22 M 84.22 71.03 C 83.12 71.24 82.28 73.50 83.73 73.76 C 84.91 73.62 85.86 71.16 84.22 71.03 M 91.24 72.01 C 89.78 72.43 90.31 74.66 91.83 73.82 C 93.66 73.54 92.92 70.84 91.24 72.01 M 84.24 76.25 C 83.62 77.64 84.05 78.02 85.54 77.39 C 86.29 75.97 85.86 75.60 84.24 76.25 M 62.35 78.28 C 61.25 79.24 62.25 82.11 63.84 81.00 C 65.01 80.03 63.94 76.98 62.35 78.28 M 80.31 78.05 C 79.25 78.98 77.75 79.71 77.10 80.97 C 77.98 82.99 82.80 78.97 80.31 78.05 M 71.35 83.16 C 69.59 83.43 69.59 86.58 71.64 85.86 C 73.78 85.74 73.66 82.08 71.35 83.16 M 76.34 84.26 C 75.17 84.53 74.23 86.92 75.93 87.14 C 77.43 87.21 78.18 84.16 76.34 84.26 M 62.26 86.28 C 62.30 86.64 62.37 87.36 62.41 87.72 C 62.32 90.31 67.47 89.75 66.12 87.12 C 65.68 87.23 64.82 87.44 64.39 87.55 C 64.12 86.32 63.41 85.90 62.26 86.28 M 58.21 91.15 C 56.37 91.43 56.95 94.14 58.73 92.96 C 60.18 92.57 59.77 90.28 58.21 91.15 M 72.22 90.98 C 71.20 91.45 70.44 93.59 71.94 93.92 C 73.80 94.10 74.72 89.96 72.22 90.98 M 62.42 94.12 C 61.59 95.02 62.39 97.37 63.78 96.68 C 64.93 95.80 63.92 92.72 62.42 94.12 M 51.24 95.09 C 49.65 95.45 50.20 97.87 51.80 96.92 C 53.49 96.58 52.91 94.08 51.24 95.09 M 68.15 98.29 C 67.51 99.92 67.92 100.33 69.36 99.51 C 69.94 98.08 69.54 97.67 68.15 98.29 M 44.29 99.12 C 42.80 99.51 43.20 101.69 44.79 100.92 C 46.64 100.66 46.05 97.88 44.29 99.12 M 63.17 101.13 C 61.85 101.49 61.59 103.90 63.07 104.25 C 64.61 104.20 64.68 101.24 63.17 101.13 M 65.30 104.27 C 63.98 104.26 62.88 107.01 64.73 106.98 C 65.64 106.65 66.56 104.63 65.30 104.27 M 59.94 114.17 C 61.44 113.63 62.31 112.08 63.98 111.84 C 63.94 111.14 63.87 109.74 63.83 109.04 C 61.85 109.67 59.06 111.83 59.94 114.17 M 62.34 117.17 C 61.37 118.13 62.15 120.81 63.76 119.83 C 65.18 118.95 63.92 115.63 62.34 117.17 M 56.37 118.21 C 55.26 118.92 55.89 121.68 57.36 120.45 C 58.91 119.78 57.98 116.69 56.37 118.21 M 63.17 124.24 C 61.42 124.66 61.80 128.29 63.73 127.69 C 64.52 126.81 64.59 124.48 63.17 124.24 M 63.19 132.14 C 61.90 132.53 61.65 134.90 63.08 135.28 C 64.61 135.22 64.75 132.18 63.19 132.14 Z" />
<path fill="#ffffff" opacity="1.00" d=" M 132.99 63.80 C 136.01 63.61 139.05 63.49 142.08 63.82 C 143.38 63.63 143.88 65.01 144.59 65.79 C 144.51 65.31 144.36 64.36 144.28 63.88 C 149.51 63.62 154.76 63.58 160.00 63.83 C 160.70 64.41 161.22 65.16 161.54 66.08 C 161.52 65.53 161.50 64.44 161.48 63.89 C 176.98 63.34 192.44 63.85 207.94 63.70 C 209.87 63.52 213.31 62.80 213.59 65.56 C 216.14 70.44 219.26 75.02 221.59 80.00 C 210.26 99.41 198.92 118.82 187.97 138.43 C 187.54 138.45 186.69 138.48 186.26 138.49 C 186.28 139.13 186.32 140.42 186.34 141.06 C 184.79 143.31 184.00 146.07 182.04 148.01 C 178.28 143.13 175.56 137.25 172.24 131.94 C 168.56 125.52 164.74 119.16 161.03 112.75 C 157.77 106.96 154.30 101.29 151.00 95.53 C 148.74 91.50 146.31 87.58 144.03 83.56 C 140.53 76.88 135.87 70.74 132.99 63.80 M 149.25 67.50 C 148.63 68.86 150.71 70.22 151.86 69.57 C 152.63 68.25 150.32 66.70 149.25 67.50 M 186.14 68.23 C 185.29 69.57 185.51 70.41 186.78 70.77 C 187.59 69.43 187.37 68.59 186.14 68.23 M 164.35 70.23 C 163.43 71.21 164.61 73.57 165.99 72.91 C 166.98 71.92 165.76 69.39 164.35 70.23 M 156.08 71.36 C 154.74 72.96 158.36 75.06 158.94 73.02 C 158.85 71.78 157.19 70.80 156.08 71.36 M 163.00 75.41 C 162.76 76.81 163.38 77.33 164.87 76.97 C 165.03 75.64 164.41 75.12 163.00 75.41 M 186.11 76.13 C 186.02 76.60 185.85 77.54 185.76 78.01 C 186.83 80.54 188.27 75.48 186.11 76.13 M 168.06 76.94 C 168.06 79.01 169.83 81.88 172.23 81.15 C 171.36 79.50 170.08 77.27 168.06 76.94 M 176.28 83.22 C 175.60 84.46 177.73 85.69 178.69 84.84 C 179.31 83.62 177.21 82.50 176.28 83.22 M 172.09 84.00 C 171.36 85.03 172.53 87.09 173.80 86.62 C 174.91 85.62 173.53 82.86 172.09 84.00 M 186.08 84.09 C 186.07 84.52 186.05 85.37 186.04 85.80 L 186.84 85.84 C 186.85 85.41 186.86 84.56 186.87 84.14 L 186.08 84.09 M 183.17 87.10 C 182.38 88.35 184.57 89.61 185.55 88.80 C 186.11 87.62 184.15 86.41 183.17 87.10 M 176.13 90.35 C 175.05 91.36 176.45 93.87 177.87 92.95 C 178.71 91.91 177.43 89.78 176.13 90.35 M 186.17 91.34 C 185.28 92.70 185.49 93.52 186.81 93.81 C 187.59 92.48 187.38 91.65 186.17 91.34 M 189.37 91.04 C 188.89 92.32 190.90 93.52 191.94 92.79 C 193.06 91.34 190.37 89.90 189.37 91.04 M 196.16 94.51 C 195.30 95.93 197.59 97.69 198.84 96.73 C 199.89 95.28 197.32 93.86 196.16 94.51 M 180.04 97.19 C 179.05 98.19 180.30 100.64 181.70 99.82 C 182.66 98.84 181.40 96.49 180.04 97.19 M 203.05 98.33 C 201.90 99.70 204.44 101.66 205.64 100.61 C 206.46 99.20 204.26 97.74 203.05 98.33 M 186.08 99.20 C 185.99 99.64 185.80 100.53 185.71 100.97 C 186.75 103.65 188.30 98.61 186.08 99.20 M 184.04 104.01 C 183.97 105.31 184.53 106.22 185.71 106.76 C 185.87 107.81 185.55 109.17 186.63 109.83 C 187.42 107.52 185.72 105.34 184.04 104.01 M 187.46 111.03 C 186.94 112.14 188.55 113.82 189.59 112.84 C 190.19 111.75 188.44 109.95 187.46 111.03 M 186.19 114.39 C 185.27 115.77 185.48 116.60 186.82 116.89 C 187.57 115.57 187.36 114.73 186.19 114.39 M 191.31 117.20 C 190.37 118.45 192.13 120.90 193.57 119.89 C 194.18 118.71 192.71 116.30 191.31 117.20 M 186.15 122.31 C 185.29 123.67 185.50 124.51 186.79 124.81 C 187.58 123.45 187.37 122.61 186.15 122.31 M 186.13 130.14 C 185.31 131.47 185.54 132.32 186.82 132.69 C 187.60 131.33 187.37 130.48 186.13 130.14 Z" />
<path fill="#ffffff" opacity="1.00" d=" M 213.82 63.93 C 219.42 63.69 225.05 63.54 230.65 63.63 C 228.56 68.52 225.10 72.85 222.97 77.77 C 222.58 77.77 221.81 77.77 221.42 77.76 C 218.94 73.17 215.73 68.81 213.82 63.93 Z" />
<path fill="#ffffff" opacity="1.00" d=" M 122.38 65.78 C 122.78 65.62 123.58 65.31 123.98 65.15 C 125.49 65.88 125.89 67.86 126.89 69.13 C 130.74 75.79 134.54 82.49 138.47 89.10 C 140.84 93.09 143.09 97.16 145.51 101.13 C 148.80 106.77 152.03 112.45 155.36 118.07 C 159.50 125.08 163.49 132.17 167.65 139.17 C 170.93 144.55 173.81 150.18 177.27 155.44 C 177.32 155.70 177.41 156.21 177.45 156.46 C 167.03 173.28 157.75 190.83 147.58 207.79 C 146.71 207.74 145.84 207.65 144.98 207.49 C 145.54 208.29 146.09 209.10 146.64 209.91 C 142.18 216.91 138.37 224.30 134.08 231.41 C 128.07 230.99 122.02 231.09 116.00 231.36 C 111.20 224.57 107.49 216.97 103.21 209.81 L 103.23 209.12 C 104.16 208.45 105.15 207.85 106.03 207.11 C 104.83 207.34 103.78 207.88 102.87 208.72 L 102.16 208.09 C 92.52 191.32 82.86 174.58 73.21 157.82 C 72.32 156.30 70.88 154.89 71.62 152.97 C 73.32 150.48 74.80 147.85 76.14 145.15 C 79.67 142.01 84.71 143.84 88.96 143.37 C 98.67 143.45 108.38 143.33 118.08 143.35 C 122.05 143.56 124.19 138.96 124.47 135.73 C 111.89 135.76 99.30 135.60 86.72 135.72 C 85.16 135.70 83.60 135.72 82.04 135.64 C 85.59 129.00 89.58 122.59 93.31 116.05 C 96.82 110.13 100.23 104.16 103.68 98.21 C 107.01 92.68 110.20 87.07 113.42 81.47 C 116.47 76.28 119.71 71.18 122.38 65.78 M 84.32 172.39 C 83.47 173.76 85.68 175.20 86.85 174.59 C 88.02 173.22 85.53 171.15 84.32 172.39 M 164.35 172.12 C 162.83 172.46 163.18 174.80 164.82 173.96 C 166.57 173.69 166.07 171.00 164.35 172.12 M 91.17 176.29 C 90.17 177.70 92.77 179.15 93.73 177.93 C 94.30 176.61 92.15 175.45 91.17 176.29 M 157.28 176.35 C 156.67 177.78 157.10 178.17 158.59 177.53 C 159.25 176.12 158.81 175.72 157.28 176.35 M 98.08 180.26 C 97.83 181.64 98.42 182.18 99.86 181.88 C 100.09 180.52 99.50 179.98 98.08 180.26 M 150.14 180.28 C 148.86 181.86 151.63 182.58 152.39 181.31 C 153.86 179.83 150.89 178.96 150.14 180.28 M 139.99 186.04 L 139.98 187.14 C 142.38 188.13 144.01 185.74 145.92 184.76 C 145.90 184.37 145.86 183.58 145.84 183.18 C 143.72 183.84 142.29 185.79 139.99 186.04 M 104.46 184.19 C 103.83 185.36 105.80 186.55 106.74 185.81 C 107.57 184.56 105.39 183.28 104.46 184.19 M 94.14 186.13 C 93.45 188.27 98.49 186.78 96.01 185.76 C 95.54 185.85 94.61 186.04 94.14 186.13 M 102.15 186.05 L 102.11 186.83 C 102.52 186.85 103.34 186.90 103.75 186.92 L 103.79 186.14 C 103.38 186.12 102.56 186.07 102.15 186.05 M 109.31 186.12 C 108.79 188.28 113.75 186.70 111.06 185.69 C 110.62 185.80 109.75 186.01 109.31 186.12 M 117.21 186.15 C 117.55 187.42 118.36 187.61 119.66 186.72 C 119.30 185.48 118.48 185.29 117.21 186.15 M 125.19 186.09 L 125.17 186.86 C 125.58 186.86 126.42 186.85 126.83 186.85 L 126.86 186.08 C 126.44 186.09 125.61 186.09 125.19 186.09 M 132.36 186.19 C 132.02 188.38 136.84 186.58 134.05 185.69 C 133.63 185.81 132.78 186.06 132.36 186.19 M 148.18 186.10 C 148.45 187.36 149.28 187.59 150.68 186.79 C 150.36 185.55 149.53 185.33 148.18 186.10 M 156.19 186.06 L 156.18 186.86 C 156.59 186.86 157.41 186.85 157.82 186.85 L 157.83 186.05 C 157.42 186.05 156.60 186.06 156.19 186.06 M 138.24 187.24 C 137.04 187.27 136.00 189.60 137.64 189.75 C 138.85 189.74 139.85 187.40 138.24 187.24 M 111.28 188.10 C 110.65 189.31 112.66 190.43 113.62 189.78 C 114.31 188.57 112.26 187.19 111.28 188.10 M 131.32 191.24 C 129.85 191.90 129.72 192.57 130.93 193.25 C 132.43 192.54 132.57 191.87 131.32 191.24 M 118.18 192.05 C 118.01 193.36 118.61 193.87 119.99 193.59 C 120.29 192.17 119.68 191.66 118.18 192.05 M 124.26 195.31 C 121.48 196.71 125.46 198.09 126.83 197.51 C 127.64 196.13 125.54 194.48 124.26 195.31 M 117.29 199.09 C 115.62 199.49 116.15 201.99 117.90 201.23 C 119.84 201.01 119.06 197.99 117.29 199.09 M 131.22 199.40 C 130.31 200.77 132.63 202.32 133.80 201.58 C 134.88 200.17 132.46 198.33 131.22 199.40 M 110.17 203.37 C 108.68 205.04 111.79 205.79 112.46 204.29 C 113.69 202.79 110.86 202.25 110.17 203.37 M 138.19 203.26 C 137.01 204.67 139.54 206.32 140.75 205.53 C 141.48 204.15 139.49 202.29 138.19 203.26 Z" />
<path fill="#ffffff" opacity="1.00" d=" M 18.95 66.78 C 22.17 70.38 23.99 75.25 26.72 79.32 C 25.27 83.93 21.72 87.79 19.84 92.31 L 18.82 92.47 C 18.79 83.91 18.55 75.31 18.95 66.78 Z" />
<path fill="#ffffff" opacity="1.00" d=" M 229.54 67.45 C 229.90 67.35 230.63 67.17 231.00 67.07 C 231.31 75.69 231.40 84.36 230.91 92.97 C 229.51 92.76 229.27 91.09 228.54 90.14 C 226.51 86.77 224.81 83.18 222.46 80.03 C 224.70 75.77 227.30 71.71 229.54 67.45 Z" />
<path fill="#ffffff" opacity="1.00" d=" M 27.16 81.56 L 28.01 81.68 C 36.22 95.58 44.19 109.62 52.36 123.55 C 53.02 124.43 52.46 125.55 52.54 126.54 C 55.46 127.16 56.04 130.35 57.51 132.49 C 60.59 137.35 62.80 142.68 66.28 147.28 C 64.32 150.84 62.20 154.31 60.17 157.83 C 59.42 157.70 57.92 157.45 57.16 157.32 C 57.98 157.83 58.81 158.33 59.65 158.80 C 54.43 167.54 49.35 176.36 44.18 185.13 L 44.33 186.20 C 45.34 186.30 47.35 186.51 48.36 186.62 C 50.46 184.58 53.57 183.78 55.21 181.22 C 57.22 178.04 59.39 174.86 60.75 171.36 C 61.70 172.05 62.37 173.04 63.29 173.76 C 63.39 173.14 63.59 171.89 63.69 171.26 C 63.06 171.24 61.81 171.19 61.19 171.17 C 64.17 165.89 67.52 160.83 70.18 155.39 C 71.78 156.42 72.47 158.24 73.41 159.81 C 75.15 163.01 77.30 165.99 78.48 169.46 C 82.07 173.82 84.27 179.10 87.35 183.81 C 88.31 185.19 87.62 186.24 86.05 186.46 C 87.21 186.74 88.45 186.83 89.49 187.48 C 96.56 200.03 103.91 212.41 111.04 224.92 C 112.14 226.89 113.71 228.69 113.97 231.02 C 108.28 231.21 102.58 231.18 96.89 231.34 C 86.42 226.00 76.54 219.51 66.19 213.91 C 64.69 213.35 63.94 211.97 63.32 210.60 C 62.39 210.56 61.39 210.96 60.52 210.50 C 56.87 208.57 53.42 206.24 49.80 204.23 C 48.60 203.41 47.15 202.81 46.49 201.43 C 37.70 186.51 29.27 171.39 20.55 156.44 C 17.47 152.23 19.20 146.80 18.75 142.00 C 18.09 138.53 20.36 135.30 18.77 132.00 C 18.85 120.29 18.74 108.67 18.81 96.95 C 20.98 91.55 24.66 86.84 27.16 81.56 M 37.28 103.28 C 36.68 104.66 37.12 105.06 38.58 104.47 C 39.31 103.02 38.87 102.62 37.28 103.28 M 32.33 106.26 C 31.19 106.29 29.26 107.40 30.17 108.73 C 31.55 109.91 34.44 107.02 32.33 106.26 M 25.31 110.15 C 24.21 110.21 22.54 111.36 23.40 112.60 C 24.82 113.97 27.70 110.65 25.31 110.15 M 49.26 131.14 C 48.09 131.45 47.24 133.93 48.94 134.08 C 50.38 134.02 51.08 131.07 49.26 131.14 M 24.06 137.39 C 23.03 138.79 25.45 140.65 26.69 139.61 C 27.60 138.23 25.23 136.73 24.06 137.39 M 45.22 137.98 C 43.98 138.29 43.24 140.68 44.94 140.87 C 46.66 140.95 47.69 137.20 45.22 137.98 M 31.08 141.38 C 30.11 142.38 31.84 144.05 32.91 143.54 C 33.96 142.50 32.19 140.82 31.08 141.38 M 38.02 145.52 C 37.20 148.19 43.14 147.86 42.52 145.15 C 41.03 145.02 39.66 146.36 38.02 145.52 M 44.20 149.23 C 43.33 150.62 45.76 151.99 46.78 150.96 C 47.44 149.64 45.21 148.30 44.20 149.23 M 37.40 151.30 C 36.66 151.85 35.46 153.73 36.94 154.15 C 39.05 154.68 39.93 150.14 37.40 151.30 M 51.03 153.15 C 49.99 154.58 52.60 155.88 53.60 154.85 C 54.19 153.55 52.07 152.27 51.03 153.15 M 33.28 158.24 C 31.94 158.98 32.83 161.95 34.30 160.45 C 35.61 159.69 34.86 156.91 33.28 158.24 M 71.11 164.44 C 69.99 165.82 72.42 167.85 73.66 166.65 C 74.57 165.27 72.27 163.85 71.11 164.44 M 29.29 165.16 C 28.17 165.89 28.82 168.72 30.26 167.37 C 31.74 166.61 30.95 163.50 29.29 165.16 M 62.38 179.19 C 61.52 180.11 62.41 182.38 63.80 181.67 C 64.98 180.78 63.85 177.76 62.38 179.19 M 40.13 186.05 L 40.14 186.84 C 40.56 186.84 41.40 186.85 41.83 186.86 L 41.81 186.06 C 41.39 186.06 40.55 186.05 40.13 186.05 M 55.23 186.12 C 55.59 187.39 56.41 187.60 57.72 186.76 C 57.34 185.50 56.51 185.28 55.23 186.12 M 62.32 186.31 C 62.09 187.48 62.28 188.53 62.89 189.47 C 64.21 188.75 64.77 187.14 65.84 186.12 C 64.63 185.39 63.46 185.45 62.32 186.31 M 71.16 186.07 L 71.17 186.86 C 71.58 186.85 72.41 186.85 72.82 186.85 L 72.81 186.05 C 72.40 186.06 71.57 186.06 71.16 186.07 M 78.36 186.16 C 77.88 188.35 82.80 186.64 80.08 185.68 C 79.65 185.80 78.79 186.04 78.36 186.16 M 62.39 194.32 C 61.42 195.30 62.30 198.17 63.89 197.01 C 65.13 196.03 63.94 192.94 62.39 194.32 M 62.32 202.22 C 61.42 203.20 62.26 205.88 63.83 204.91 C 65.20 203.95 63.90 200.75 62.32 202.22 M 97.19 210.96 C 95.73 211.38 96.18 213.57 97.73 212.78 C 99.58 212.60 98.90 209.81 97.19 210.96 M 91.27 214.26 C 90.13 214.37 88.93 216.73 90.69 216.79 C 91.88 216.74 92.87 214.37 91.27 214.26 M 84.31 218.16 C 82.99 218.23 81.86 220.78 83.75 220.85 C 85.57 221.09 86.81 217.58 84.31 218.16 Z" />
<path fill="#ffffff" opacity="1.00" d=" M 209.60 102.21 C 213.63 95.09 217.61 87.90 221.95 80.99 C 223.97 82.77 224.74 85.60 226.34 87.77 C 228.16 91.76 231.87 95.31 231.29 100.01 C 230.59 104.89 231.82 109.93 230.46 114.72 C 231.79 120.04 230.76 125.59 231.26 131.01 C 231.51 132.37 231.29 133.66 230.62 134.87 C 231.48 139.87 230.82 144.96 231.30 149.98 C 231.57 152.51 230.54 155.01 229.03 156.99 C 223.42 166.43 218.05 176.02 212.56 185.52 C 211.95 185.67 210.73 185.99 210.12 186.14 C 210.38 186.59 210.91 187.49 211.18 187.94 C 208.70 192.18 206.23 196.42 203.85 200.72 C 202.33 203.79 198.76 204.72 196.06 206.44 C 183.54 213.44 171.25 220.87 158.80 228.00 C 156.32 229.35 153.98 231.26 151.04 231.40 C 145.94 230.76 140.80 231.33 135.68 231.10 L 135.49 230.07 C 147.24 210.52 158.43 190.62 169.99 170.95 C 171.11 169.87 172.76 169.03 172.37 167.19 C 173.61 164.06 175.78 161.32 177.19 158.24 C 177.68 158.30 178.64 158.41 179.13 158.47 C 183.02 165.91 187.46 173.08 191.66 180.36 C 194.43 184.93 199.89 186.34 204.86 186.91 C 204.11 186.07 203.32 185.27 202.80 184.27 C 197.62 175.40 192.42 166.53 187.22 157.68 C 186.29 154.79 184.10 152.61 182.52 150.02 C 182.79 149.15 183.34 147.40 183.62 146.52 C 184.49 146.99 186.94 149.32 186.59 146.81 L 187.65 145.48 C 187.02 145.29 185.75 144.91 185.12 144.72 C 188.04 138.59 192.03 133.00 195.05 126.91 C 196.23 126.39 196.87 125.45 196.86 124.16 C 200.77 117.06 205.04 110.17 208.93 103.06 C 210.00 103.40 211.07 103.71 212.16 104.00 C 211.52 103.55 210.24 102.66 209.60 102.21 M 216.25 106.34 C 215.45 107.72 217.91 108.94 218.93 108.06 C 219.58 106.71 217.24 105.34 216.25 106.34 M 223.12 110.14 C 222.18 111.55 224.69 112.91 225.74 111.94 C 226.35 110.64 224.15 109.33 223.12 110.14 M 199.24 131.04 C 198.97 132.43 199.52 133.04 200.89 132.86 C 201.20 131.38 200.65 130.78 199.24 131.04 M 203.20 137.31 C 202.38 138.28 203.54 140.49 204.83 139.80 C 205.54 138.84 204.39 136.82 203.20 137.31 M 225.26 137.14 C 223.68 137.89 223.54 138.57 224.84 139.15 C 226.40 138.39 226.54 137.71 225.26 137.14 M 218.21 141.11 C 217.89 141.38 217.27 141.94 216.96 142.21 C 217.48 145.19 221.83 140.27 218.21 141.11 M 207.09 144.20 C 206.27 145.18 207.54 147.30 208.77 146.62 C 209.49 145.67 208.29 143.60 207.09 144.20 M 211.24 145.10 C 209.63 145.42 210.10 147.81 211.73 146.89 C 213.50 146.55 213.04 143.99 211.24 145.10 M 204.30 149.10 C 202.90 149.52 203.08 151.57 204.71 150.88 C 206.69 150.71 206.20 147.75 204.30 149.10 M 210.99 151.15 C 210.67 152.65 211.22 153.30 212.64 153.09 C 212.87 151.66 212.32 151.01 210.99 151.15 M 197.23 153.24 C 195.74 154.79 198.38 155.28 199.12 154.09 C 200.78 152.92 197.89 152.01 197.23 153.24 M 192.29 156.19 C 191.13 156.19 189.13 157.36 190.17 158.69 C 191.55 159.83 194.28 156.99 192.29 156.19 M 214.47 157.39 C 213.54 158.62 215.37 161.20 216.80 160.01 C 217.44 158.79 215.81 156.65 214.47 157.39 M 178.30 164.20 C 176.78 164.90 176.64 165.58 177.87 166.25 C 179.37 165.53 179.51 164.85 178.30 164.20 M 218.30 164.28 C 217.65 165.62 219.15 167.69 220.65 166.71 C 221.40 165.46 219.50 162.65 218.30 164.28 M 186.18 176.38 C 185.27 177.74 185.47 178.57 186.78 178.88 C 187.57 177.56 187.37 176.72 186.18 176.38 M 186.14 184.35 C 184.16 186.28 188.46 188.55 188.87 186.30 C 187.49 186.18 187.23 184.43 186.14 184.35 M 163.36 186.19 C 163.71 187.35 164.54 187.57 165.87 186.85 C 165.58 185.52 164.75 185.30 163.36 186.19 M 171.27 186.15 C 171.61 187.38 172.43 187.58 173.75 186.75 C 173.42 185.47 172.59 185.27 171.27 186.15 M 179.13 186.12 C 178.44 188.28 183.51 186.78 181.00 185.74 C 180.53 185.84 179.59 186.03 179.13 186.12 M 194.34 186.08 L 194.32 186.73 C 194.77 186.86 195.66 187.10 196.11 187.22 C 198.45 186.61 195.09 184.92 194.34 186.08 M 186.12 192.11 C 186.02 192.56 185.83 193.48 185.74 193.93 C 186.75 196.54 188.32 191.53 186.12 192.11 M 186.05 200.13 C 186.05 200.56 186.07 201.41 186.07 201.84 L 186.86 201.82 C 186.86 201.40 186.84 200.54 186.83 200.12 L 186.05 200.13 M 186.20 207.31 C 185.29 208.66 185.49 209.52 186.80 209.89 C 187.57 208.59 187.37 207.73 186.20 207.31 M 151.41 211.26 C 150.87 212.46 152.84 213.68 153.80 212.87 C 154.52 211.62 152.34 210.44 151.41 211.26 M 158.25 215.12 C 157.56 216.32 159.60 217.58 160.57 216.81 C 161.25 215.62 159.23 214.32 158.25 215.12 M 165.14 219.11 C 165.02 220.45 165.66 220.98 167.05 220.71 C 167.25 219.29 166.61 218.76 165.14 219.11 Z" />
<path fill="#ffffff" opacity="1.00" d=" M 17.48 99.07 C 17.20 115.85 17.47 132.57 17.37 149.38 L 16.26 149.35 C 12.66 142.33 8.55 135.56 4.54 128.77 L 4.60 127.77 C 5.20 127.72 6.41 127.62 7.01 127.57 C 6.69 127.27 6.04 126.68 5.72 126.38 C 4.01 126.71 2.92 126.21 2.45 124.87 C 3.19 123.48 6.07 124.38 5.81 122.32 C 5.40 122.23 4.58 122.06 4.17 121.97 C 8.48 114.29 12.72 106.47 17.48 99.07 M 11.25 118.26 C 9.30 118.48 10.03 121.21 11.81 120.02 C 13.35 119.62 12.78 117.45 11.25 118.26 M 11.11 130.07 C 10.87 131.39 11.49 131.96 12.95 131.76 C 13.24 130.39 12.63 129.83 11.11 130.07 Z" />
<path fill="#ffffff" opacity="1.00" d=" M 232.21 99.27 L 233.02 99.15 C 236.89 107.26 242.36 114.69 246.03 122.84 C 245.27 122.69 243.76 122.39 243.00 122.24 C 243.71 124.03 245.78 123.20 247.22 123.34 C 248.45 125.90 246.31 127.09 244.14 126.27 C 244.17 126.56 244.23 127.15 244.25 127.45 L 246.19 127.17 C 241.93 135.07 236.98 142.62 232.99 150.64 L 231.96 150.55 C 231.57 145.69 231.88 140.81 231.58 135.94 C 231.83 135.46 232.33 134.49 232.58 134.00 C 231.03 128.82 232.15 123.29 231.69 117.96 C 232.04 111.76 231.14 105.38 232.21 99.27 M 236.29 118.06 C 235.79 119.35 237.87 120.59 238.93 119.87 C 239.89 118.45 237.32 117.00 236.29 118.06 M 237.21 131.63 C 238.45 132.05 240.43 130.84 239.67 129.38 C 238.34 128.79 236.42 130.14 237.21 131.63 Z" />
<path fill="#ffffff" opacity="1.00" d=" M 18.74 157.87 C 18.97 157.67 19.42 157.27 19.64 157.07 C 27.59 171.68 36.47 185.80 44.42 200.42 L 43.12 200.41 C 35.39 195.58 27.30 191.31 19.59 186.48 C 19.39 185.86 19.00 184.62 18.80 184.00 C 18.68 175.29 18.81 166.58 18.74 157.87 M 25.37 172.26 C 24.73 173.76 25.11 174.20 26.50 173.57 C 27.23 172.00 26.85 171.56 25.37 172.26 M 22.31 178.10 C 21.35 178.42 20.26 180.67 21.82 180.85 C 23.03 180.73 23.96 178.14 22.31 178.10 M 24.23 186.13 C 23.74 188.34 28.75 186.67 25.98 185.70 C 25.54 185.80 24.67 186.02 24.23 186.13 M 32.14 186.10 C 32.40 187.37 33.23 187.60 34.63 186.76 C 34.32 185.53 33.49 185.31 32.14 186.10 Z" />
<path fill="#ffffff" opacity="1.00" d=" M 229.00 157.95 C 229.50 157.64 230.49 157.02 230.99 156.70 C 231.27 165.67 231.11 174.66 231.05 183.63 L 230.46 184.48 C 230.44 185.07 230.38 186.25 230.35 186.84 C 221.69 191.09 213.78 197.03 205.03 200.92 C 210.16 190.79 216.38 181.12 221.94 171.16 C 222.53 171.66 223.72 172.66 224.31 173.16 C 223.93 172.01 223.28 171.02 222.35 170.18 C 224.64 166.18 227.69 162.40 229.00 157.95 M 226.30 177.99 C 226.55 178.50 227.05 179.52 227.30 180.04 C 229.25 180.15 227.56 176.76 226.30 177.99 M 218.13 186.03 L 218.11 186.83 C 218.55 186.84 219.42 186.86 219.85 186.87 L 219.87 186.07 C 219.44 186.06 218.57 186.04 218.13 186.03 M 225.29 186.13 C 224.84 188.28 229.96 186.75 227.11 185.71 C 226.65 185.82 225.75 186.03 225.29 186.13 Z" />
<path fill="#ffffff" opacity="1.00" d=" M 49.38 205.13 C 58.83 210.51 68.30 215.92 77.68 221.40 C 78.58 222.86 76.91 223.13 75.97 223.74 C 77.36 224.10 78.31 223.66 78.80 222.41 L 79.91 222.51 C 84.06 225.22 88.55 227.38 92.69 230.09 L 92.95 230.93 C 85.38 231.58 77.69 230.96 70.07 231.21 C 67.60 231.50 65.32 230.32 62.88 230.41 C 62.00 229.15 61.57 227.76 63.52 227.43 C 63.57 226.88 63.66 225.79 63.70 225.25 C 62.78 225.64 62.45 227.37 61.19 226.96 C 57.12 220.65 53.60 213.33 49.33 206.87 L 49.38 205.13 M 63.25 217.19 C 61.91 217.53 61.61 219.96 63.06 220.39 C 64.57 220.30 64.70 217.40 63.25 217.19 M 70.28 226.24 C 68.53 226.63 69.35 229.01 71.00 228.25 C 73.13 228.02 72.01 224.98 70.28 226.24 Z" />
<path fill="#ffffff" opacity="1.00" d=" M 197.01 206.97 C 198.17 206.06 199.45 205.41 200.86 205.02 L 200.47 206.92 C 195.75 214.47 191.54 222.35 187.04 230.05 C 185.82 230.68 184.43 231.13 183.05 231.12 C 177.13 231.12 171.21 231.28 165.29 231.15 C 162.52 231.06 159.75 231.21 156.99 230.91 C 157.14 230.59 157.45 229.95 157.60 229.63 C 170.78 222.15 184.01 214.73 197.01 206.97 M 186.14 215.18 C 185.31 216.52 185.52 217.39 186.77 217.79 C 187.57 216.43 187.36 215.57 186.14 215.18 M 172.07 223.02 C 171.83 224.36 172.41 224.90 173.82 224.66 C 174.12 223.24 173.54 222.69 172.07 223.02 M 186.12 223.10 C 185.32 224.42 185.54 225.28 186.77 225.67 C 187.60 224.29 187.38 223.43 186.12 223.10 M 178.14 226.41 C 177.17 227.82 179.55 229.59 180.78 228.64 C 181.76 227.21 179.33 225.73 178.14 226.41 Z" />
<path fill="#ffffff" opacity="1.00" d=" M 99.38 231.95 C 104.25 231.49 109.15 231.92 114.03 231.59 C 114.38 231.81 115.10 232.25 115.46 232.48 C 117.80 236.97 120.67 241.18 122.91 245.72 L 121.06 245.67 C 114.00 241.20 106.61 237.26 99.41 233.03 L 99.38 231.95 Z" />
<path fill="#ffffff" opacity="1.00" d=" M 116.63 231.87 C 122.19 231.70 127.79 231.46 133.34 231.97 C 131.67 237.06 127.65 241.01 126.08 246.13 L 125.03 246.73 L 123.86 246.31 C 121.91 241.61 118.94 237.35 116.39 232.94 L 116.63 231.87 Z" />
<path fill="#ffffff" opacity="1.00" d=" M 131.74 236.86 C 133.14 235.19 133.48 232.18 135.86 231.62 C 140.76 231.94 145.70 231.33 150.58 231.99 L 150.43 232.99 C 143.23 237.12 135.92 241.11 128.92 245.57 L 127.11 245.82 C 127.66 242.46 130.36 239.94 131.74 236.86 Z" />
</g>
<g id="#d2cdc1ff">
<path fill="#d2cdc1" opacity="1.00" d=" M 95.96 17.12 C 105.85 12.29 115.05 5.80 124.95 1.02 C 134.21 5.96 143.21 11.43 152.36 16.59 C 155.10 17.79 158.19 17.00 161.09 17.19 C 169.64 17.35 178.24 16.64 186.75 17.34 C 191.58 24.63 195.62 32.43 200.12 39.94 C 201.69 42.27 202.35 45.48 205.03 46.87 C 211.60 50.66 218.17 54.47 224.79 58.18 C 225.85 59.13 228.69 59.36 227.67 61.43 L 226.10 61.14 C 219.47 57.37 213.03 53.26 206.24 49.81 C 206.31 50.34 206.47 51.39 206.54 51.91 C 206.45 52.19 206.26 52.76 206.17 53.05 C 203.69 51.29 203.59 47.52 200.62 46.34 C 196.80 44.21 193.06 41.94 189.24 39.81 C 188.28 38.97 187.13 39.64 186.10 39.86 C 185.55 36.96 182.63 35.98 180.41 34.63 C 171.53 29.60 162.76 24.36 153.91 19.27 C 145.66 18.37 137.31 19.37 129.04 18.85 C 124.29 19.01 119.49 18.45 114.82 19.46 C 108.63 18.44 102.27 18.78 96.05 19.21 C 81.85 27.15 67.82 35.49 53.72 43.63 C 50.98 45.29 47.76 46.43 45.87 49.16 C 45.72 48.62 45.43 47.53 45.28 46.99 C 51.57 37.49 56.70 27.24 62.71 17.57 C 73.72 16.62 84.92 17.77 95.96 17.12 M 122.30 6.95 C 122.18 6.25 121.94 4.85 121.82 4.15 C 114.60 8.34 107.46 12.69 100.06 16.55 C 100.26 16.72 100.65 17.05 100.84 17.21 C 116.93 17.39 132.98 17.32 149.03 17.15 L 148.81 16.33 C 142.14 12.54 135.59 8.52 128.88 4.82 C 128.06 5.25 127.21 5.56 126.32 5.74 C 125.97 4.68 125.53 3.66 125.03 2.67 C 122.37 2.74 124.34 5.90 122.30 6.95 M 62.70 20.65 C 58.22 28.31 53.99 36.13 49.27 43.65 C 50.51 43.90 51.49 42.91 52.53 42.43 C 65.58 34.80 78.82 27.47 91.80 19.74 L 92.18 19.04 C 83.81 18.76 75.42 19.03 67.04 19.05 C 65.52 19.14 63.40 18.92 62.70 20.65 M 157.02 19.21 C 161.27 21.82 165.68 24.18 169.98 26.72 C 171.26 26.67 172.37 24.20 173.59 25.80 C 172.63 26.62 171.54 28.05 173.37 28.66 C 182.33 33.58 190.95 39.13 200.05 43.79 C 195.96 35.74 191.09 28.04 186.64 20.15 C 182.94 18.55 178.85 19.17 174.95 19.07 C 168.97 19.16 162.98 18.88 157.02 19.21 Z" />
<path fill="#d2cdc1" opacity="1.00" d=" M 108.01 62.40 C 109.81 62.56 110.86 60.71 112.45 60.18 C 112.64 62.20 114.22 62.73 115.99 62.24 C 115.79 62.66 115.37 63.50 115.17 63.92 C 115.00 64.18 114.66 64.71 114.49 64.97 C 111.56 62.54 106.96 63.95 104.25 66.26 C 104.32 65.71 104.45 64.62 104.52 64.07 C 99.48 63.96 94.36 63.65 89.35 64.25 C 88.74 65.36 88.34 66.71 87.01 67.18 C 87.18 66.47 87.51 65.06 87.68 64.36 C 80.02 63.43 72.21 64.36 64.49 63.97 C 57.43 62.54 50.12 63.56 42.95 63.24 C 41.52 62.93 39.36 63.87 38.50 62.30 C 61.67 62.40 84.84 62.41 108.01 62.40 Z" />
</g>
<g id="#e5e1d8ff">
<path fill="#e5e1d8" opacity="1.00" d=" M 129.34 10.10 C 130.73 8.97 132.70 11.45 131.55 12.68 C 130.19 13.53 128.72 11.28 129.34 10.10 Z" />
</g>
<g id="#dad4c8ff">
<path fill="#dad4c8" opacity="1.00" d=" M 118.34 11.24 C 119.77 10.63 120.16 11.06 119.52 12.54 C 118.08 13.19 117.69 12.76 118.34 11.24 Z" />
</g>
<g id="#d9d9d1ff">
<path fill="#d9d9d1" opacity="1.00" d=" M 69.10 21.18 C 70.11 20.41 72.20 21.63 71.60 22.90 C 70.59 24.08 67.99 22.59 69.10 21.18 Z" />
</g>
<g id="#d5cbc3ff">
<path fill="#d5cbc3" opacity="1.00" d=" M 179.32 21.31 C 181.01 21.43 179.73 23.72 178.60 23.72 C 176.76 23.72 178.12 21.27 179.32 21.31 Z" />
</g>
<g id="#baab9fff">
<path fill="#baab9f" opacity="1.00" d=" M 186.00 22.18 L 186.78 22.14 C 186.79 22.57 186.82 23.44 186.83 23.88 L 186.07 23.90 C 186.05 23.47 186.01 22.61 186.00 22.18 Z" />
<path fill="#baab9f" opacity="1.00" d=" M 186.05 200.13 L 186.83 200.12 C 186.84 200.54 186.86 201.40 186.86 201.82 L 186.07 201.84 C 186.07 201.41 186.05 200.56 186.05 200.13 Z" />
</g>
<g id="#ddd9ceff">
<path fill="#ddd9ce" opacity="1.00" d=" M 137.23 23.41 C 138.42 22.71 139.72 24.81 138.88 25.77 C 137.63 26.48 136.57 24.36 137.23 23.41 Z" />
</g>
<g id="#ddddd5ff">
<path fill="#ddddd5" opacity="1.00" d=" M 62.38 24.23 C 63.94 22.69 65.16 26.00 63.82 26.92 C 62.19 27.91 61.41 25.21 62.38 24.23 Z" />
</g>
<g id="#dcd7ccff">
<path fill="#dcd7cc" opacity="1.00" d=" M 111.27 24.09 C 112.94 24.18 111.99 26.69 110.77 26.79 C 109.31 26.56 110.22 24.31 111.27 24.09 Z" />
</g>
<g id="#dbd9d0ff">
<path fill="#dbd9d0" opacity="1.00" d=" M 75.40 25.19 C 76.38 24.06 78.87 25.38 77.95 26.83 C 76.95 27.81 74.79 26.48 75.40 25.19 Z" />
</g>
<g id="#d9d6cdff">
<path fill="#d9d6cd" opacity="1.00" d=" M 82.35 29.20 C 83.28 28.29 85.47 29.47 84.79 30.75 C 83.87 31.49 81.81 30.41 82.35 29.20 Z" />
</g>
<g id="#dbd4cbff">
<path fill="#dbd4cb" opacity="1.00" d=" M 165.33 29.09 C 169.27 28.41 164.60 33.64 164.04 30.26 C 164.36 29.97 165.01 29.38 165.33 29.09 Z" />
</g>
<g id="#c4b7aeff">
<path fill="#c4b7ae" opacity="1.00" d=" M 186.18 29.37 C 187.37 29.69 187.58 30.52 186.82 31.86 C 185.50 31.59 185.28 30.76 186.18 29.37 Z" />
<path fill="#c4b7ae" opacity="1.00" d=" M 186.17 91.34 C 187.38 91.65 187.59 92.48 186.81 93.81 C 185.49 93.52 185.28 92.70 186.17 91.34 Z" />
<path fill="#c4b7ae" opacity="1.00" d=" M 186.12 192.11 C 188.32 191.53 186.75 196.54 185.74 193.93 C 185.83 193.48 186.02 192.56 186.12 192.11 Z" />
</g>
<g id="#dbd6ccff">
<path fill="#dbd6cc" opacity="1.00" d=" M 141.24 30.35 C 142.49 29.63 143.74 31.78 142.85 32.73 C 141.66 33.26 140.50 31.29 141.24 30.35 Z" />
</g>
<g id="#d7d2c6ff">
<path fill="#d7d2c6" opacity="1.00" d=" M 107.28 31.05 C 108.54 31.71 108.45 32.43 107.01 33.22 C 105.88 32.55 105.97 31.83 107.28 31.05 Z" />
</g>
<g id="#dadad2ff">
<path fill="#dadad2" opacity="1.00" d=" M 62.41 32.19 C 63.91 30.73 65.05 33.85 63.76 34.70 C 62.38 35.32 61.59 33.09 62.41 32.19 Z" />
<path fill="#dadad2" opacity="1.00" d=" M 62.42 94.12 C 63.92 92.72 64.93 95.80 63.78 96.68 C 62.39 97.37 61.59 95.02 62.42 94.12 Z" />
</g>
<g id="#d9d7cdff">
<path fill="#d9d7cd" opacity="1.00" d=" M 89.17 33.06 C 90.14 32.17 92.25 33.48 91.57 34.71 C 90.62 35.35 88.57 34.28 89.17 33.06 Z" />
</g>
<g id="#dbd6ceff">
<path fill="#dbd6ce" opacity="1.00" d=" M 158.31 33.13 C 160.15 31.94 160.95 35.05 158.88 35.20 C 157.13 35.95 156.66 33.50 158.31 33.13 Z" />
</g>
<g id="#d6d2c6ff">
<path fill="#d6d2c6" opacity="1.00" d=" M 96.19 36.98 C 97.70 36.65 98.28 37.19 97.91 38.59 C 96.52 38.82 95.95 38.28 96.19 36.98 Z" />
</g>
<g id="#e0dcd3ff">
<path fill="#e0dcd3" opacity="1.00" d=" M 102.32 41.68 C 101.99 40.16 102.07 37.85 103.81 37.25 C 104.68 38.74 103.77 40.78 105.20 42.14 L 104.86 42.80 C 103.94 42.60 103.09 42.23 102.32 41.68 Z" />
</g>
<g id="#dbd5cbff">
<path fill="#dbd5cb" opacity="1.00" d=" M 145.13 37.17 C 146.41 36.40 147.62 38.60 146.80 39.58 C 145.63 40.08 144.45 38.14 145.13 37.17 Z" />
</g>
<g id="#ddd7d0ff">
<path fill="#ddd7d0" opacity="1.00" d=" M 151.19 37.34 C 151.91 36.20 154.70 36.89 153.41 38.33 C 152.68 39.81 149.58 38.95 151.19 37.34 Z" />
</g>
<g id="#deded7ff">
<path fill="#deded7" opacity="1.00" d=" M 63.21 39.20 C 64.70 39.39 64.61 42.51 63.20 42.77 C 61.62 42.33 61.59 39.62 63.21 39.20 Z" />
</g>
<g id="#dedad1ff">
<path fill="#dedad1" opacity="1.00" d=" M 144.21 41.35 C 144.98 40.05 147.98 41.00 146.43 42.44 C 145.65 43.69 142.89 42.84 144.21 41.35 Z" />
</g>
<g id="#ded9d1ff">
<path fill="#ded9d1" opacity="1.00" d=" M 149.18 43.35 C 150.46 42.96 151.51 44.97 150.82 45.98 C 149.35 47.14 147.95 44.30 149.18 43.35 Z" />
</g>
<g id="#e6e3dcff">
<path fill="#e6e3dc" opacity="1.00" d=" M 99.21 43.99 C 101.77 42.95 101.22 47.57 98.96 47.04 C 97.33 46.69 98.11 44.49 99.21 43.99 Z" />
</g>
<g id="#e3e0d8ff">
<path fill="#e3e0d8" opacity="1.00" d=" M 109.20 44.36 C 110.47 43.31 112.72 45.13 111.81 46.56 C 110.63 47.30 108.22 45.77 109.20 44.36 Z" />
</g>
<g id="#e3ded4ff">
<path fill="#e3ded4" opacity="1.00" d=" M 137.30 45.38 C 138.05 43.90 141.24 44.93 139.53 46.44 C 138.78 47.58 136.23 46.84 137.30 45.38 Z" />
</g>
<g id="#c3b7aeff">
<path fill="#c3b7ae" opacity="1.00" d=" M 186.13 45.10 C 187.40 45.43 187.60 46.28 186.74 47.65 C 185.52 47.25 185.32 46.40 186.13 45.10 Z" />
</g>
<g id="#a0aba3ff">
<path fill="#a0aba3" opacity="1.00" d=" M 19.65 61.59 C 28.22 56.76 36.67 51.74 45.28 46.99 C 45.43 47.53 45.72 48.62 45.87 49.16 C 43.51 53.60 40.70 57.78 38.50 62.30 C 39.36 63.87 41.52 62.93 42.95 63.24 C 50.12 63.56 57.43 62.54 64.49 63.97 C 63.12 65.22 61.54 63.73 60.04 63.74 C 52.68 63.73 45.31 63.74 37.95 63.78 C 34.27 68.42 31.89 74.08 28.69 79.10 L 28.61 79.99 C 41.11 102.28 54.12 124.29 66.72 146.52 L 66.28 147.28 C 62.80 142.68 60.59 137.35 57.51 132.49 C 56.04 130.35 55.46 127.16 52.54 126.54 C 52.46 125.55 53.02 124.43 52.36 123.55 C 44.19 109.62 36.22 95.58 28.01 81.68 L 27.16 81.56 C 24.66 86.84 20.98 91.55 18.81 96.95 C 18.74 108.67 18.85 120.29 18.77 132.00 C 20.36 135.30 18.09 138.53 18.75 142.00 C 19.20 146.80 17.47 152.23 20.55 156.44 C 29.27 171.39 37.70 186.51 46.49 201.43 C 47.15 202.81 48.60 203.41 49.80 204.23 C 49.36 205.15 48.91 206.07 48.48 207.01 C 47.37 205.55 46.85 203.53 45.07 202.73 C 35.98 197.24 26.50 192.32 17.52 186.69 C 17.02 175.53 17.85 164.24 17.11 153.12 C 11.88 143.66 6.17 134.46 0.98 124.98 C 5.88 115.44 11.76 106.34 16.95 96.92 C 17.78 95.41 17.26 93.61 17.39 91.97 C 17.39 82.66 17.37 73.35 17.40 64.03 C 17.15 62.63 18.78 62.23 19.65 61.59 M 24.92 59.99 C 23.63 60.85 21.98 61.32 21.10 62.69 C 26.27 62.44 31.45 62.70 36.62 62.59 C 38.68 60.14 39.91 57.13 41.61 54.45 C 42.53 52.72 44.01 51.16 44.02 49.10 C 37.51 52.40 31.34 56.45 24.92 59.99 M 19.60 63.88 C 21.48 68.75 24.86 73.16 27.25 77.90 C 27.53 77.76 28.09 77.47 28.37 77.33 C 30.74 72.87 33.71 68.62 35.79 64.08 C 30.62 63.27 24.95 63.83 19.60 63.88 M 18.95 66.78 C 18.55 75.31 18.79 83.91 18.82 92.47 L 19.84 92.31 C 21.72 87.79 25.27 83.93 26.72 79.32 C 23.99 75.25 22.17 70.38 18.95 66.78 M 17.48 99.07 C 12.72 106.47 8.48 114.29 4.17 121.97 C 4.58 122.06 5.40 122.23 5.81 122.32 C 6.07 124.38 3.19 123.48 2.45 124.87 C 2.92 126.21 4.01 126.71 5.72 126.38 C 6.04 126.68 6.69 127.27 7.01 127.57 C 6.41 127.62 5.20 127.72 4.60 127.77 L 4.54 128.77 C 8.55 135.56 12.66 142.33 16.26 149.35 L 17.37 149.38 C 17.47 132.57 17.20 115.85 17.48 99.07 M 18.74 157.87 C 18.81 166.58 18.68 175.29 18.80 184.00 C 19.00 184.62 19.39 185.86 19.59 186.48 C 27.30 191.31 35.39 195.58 43.12 200.41 L 44.42 200.42 C 36.47 185.80 27.59 171.68 19.64 157.07 C 19.42 157.27 18.97 157.67 18.74 157.87 Z" />
</g>
<g id="#dcdcd6ff">
<path fill="#dcdcd6" opacity="1.00" d=" M 62.40 47.29 C 64.00 45.98 65.03 49.10 63.83 50.05 C 62.20 51.18 61.39 48.24 62.40 47.29 Z" />
<path fill="#dcdcd6" opacity="1.00" d=" M 62.35 78.28 C 63.94 76.98 65.01 80.03 63.84 81.00 C 62.25 82.11 61.25 79.24 62.35 78.28 Z" />
</g>
<g id="#d9d4c8ff">
<path fill="#d9d4c8" opacity="1.00" d=" M 116.11 48.35 C 117.53 48.03 118.11 48.55 117.86 49.90 C 116.40 50.24 115.82 49.73 116.11 48.35 Z" />
</g>
<g id="#dad5c9ff">
<path fill="#dad5c9" opacity="1.00" d=" M 131.23 49.15 C 132.84 48.56 133.25 48.97 132.45 50.38 C 130.98 50.93 130.57 50.52 131.23 49.15 Z" />
</g>
<g id="#ada288ff">
<path fill="#ada288" opacity="1.00" d=" M 123.17 49.58 C 125.79 50.44 126.53 54.23 128.08 56.45 C 129.42 56.64 130.85 56.47 132.07 57.19 C 131.31 57.26 129.79 57.39 129.03 57.46 C 129.59 58.88 130.37 60.21 131.05 61.59 C 127.41 62.39 126.83 65.95 126.89 69.13 C 125.89 67.86 125.49 65.88 123.98 65.15 C 123.58 65.31 122.78 65.62 122.38 65.78 C 120.61 63.58 117.70 63.84 115.17 63.92 C 115.37 63.50 115.79 62.66 115.99 62.24 C 117.76 57.65 121.12 54.03 123.17 49.58 Z" />
<path fill="#ada288" opacity="1.00" d=" M 70.18 155.39 C 70.59 154.54 71.10 153.75 71.62 152.97 C 70.88 154.89 72.32 156.30 73.21 157.82 C 82.86 174.58 92.52 191.32 102.16 208.09 L 102.87 208.72 C 103.78 207.88 104.83 207.34 106.03 207.11 C 105.15 207.85 104.16 208.45 103.23 209.12 L 103.21 209.81 C 107.49 216.97 111.20 224.57 116.00 231.36 C 122.02 231.09 128.07 230.99 134.08 231.41 C 138.37 224.30 142.18 216.91 146.64 209.91 C 146.09 209.10 145.54 208.29 144.98 207.49 C 145.84 207.65 146.71 207.74 147.58 207.79 C 157.75 190.83 167.03 173.28 177.45 156.46 C 178.27 156.92 178.83 157.59 179.13 158.47 C 178.64 158.41 177.68 158.30 177.19 158.24 C 175.78 161.32 173.61 164.06 172.37 167.19 C 172.76 169.03 171.11 169.87 169.99 170.95 C 158.43 190.62 147.24 210.52 135.49 230.07 L 135.68 231.10 C 140.80 231.33 145.94 230.76 151.04 231.40 C 153.98 231.26 156.32 229.35 158.80 228.00 C 171.25 220.87 183.54 213.44 196.06 206.44 C 196.30 206.57 196.77 206.83 197.01 206.97 C 184.01 214.73 170.78 222.15 157.60 229.63 C 157.45 229.95 157.14 230.59 156.99 230.91 C 159.75 231.21 162.52 231.06 165.29 231.15 L 164.66 231.68 C 160.42 232.23 155.84 230.66 151.88 232.89 C 142.99 238.23 133.88 243.21 124.97 248.50 C 115.69 243.37 106.58 237.92 97.36 232.67 C 94.88 230.96 91.81 231.89 89.04 231.84 C 80.37 231.71 71.67 231.85 63.01 231.81 C 57.95 223.79 53.34 215.23 48.48 207.01 C 48.91 206.07 49.36 205.15 49.80 204.23 C 53.42 206.24 56.87 208.57 60.52 210.50 C 61.39 210.96 62.39 210.56 63.32 210.60 C 63.94 211.97 64.69 213.35 66.19 213.91 C 76.54 219.51 86.42 226.00 96.89 231.34 C 102.58 231.18 108.28 231.21 113.97 231.02 C 113.71 228.69 112.14 226.89 111.04 224.92 C 103.91 212.41 96.56 200.03 89.49 187.48 C 88.45 186.83 87.21 186.74 86.05 186.46 C 87.62 186.24 88.31 185.19 87.35 183.81 C 84.27 179.10 82.07 173.82 78.48 169.46 C 77.30 165.99 75.15 163.01 73.41 159.81 C 72.47 158.24 71.78 156.42 70.18 155.39 M 49.38 205.13 L 49.33 206.87 C 53.60 213.33 57.12 220.65 61.19 226.96 C 62.45 227.37 62.78 225.64 63.70 225.25 C 63.66 225.79 63.57 226.88 63.52 227.43 C 61.57 227.76 62.00 229.15 62.88 230.41 C 65.32 230.32 67.60 231.50 70.07 231.21 C 77.69 230.96 85.38 231.58 92.95 230.93 L 92.69 230.09 C 88.55 227.38 84.06 225.22 79.91 222.51 L 78.80 222.41 C 78.31 223.66 77.36 224.10 75.97 223.74 C 76.91 223.13 78.58 222.86 77.68 221.40 C 68.30 215.92 58.83 210.51 49.38 205.13 M 99.38 231.95 L 99.41 233.03 C 106.61 237.26 114.00 241.20 121.06 245.67 L 122.91 245.72 C 120.67 241.18 117.80 236.97 115.46 232.48 C 115.10 232.25 114.38 231.81 114.03 231.59 C 109.15 231.92 104.25 231.49 99.38 231.95 M 116.63 231.87 L 116.39 232.94 C 118.94 237.35 121.91 241.61 123.86 246.31 L 125.03 246.73 L 126.08 246.13 C 127.65 241.01 131.67 237.06 133.34 231.97 C 127.79 231.46 122.19 231.70 116.63 231.87 M 131.74 236.86 C 130.36 239.94 127.66 242.46 127.11 245.82 L 128.92 245.57 C 135.92 241.11 143.23 237.12 150.43 232.99 L 150.58 231.99 C 145.70 231.33 140.76 231.94 135.86 231.62 C 133.48 232.18 133.14 235.19 131.74 236.86 Z" />
</g>
<g id="#ddd8cfff">
<path fill="#ddd8cf" opacity="1.00" d=" M 152.96 50.24 C 154.27 49.62 155.48 51.69 154.73 52.73 C 153.38 53.83 151.79 51.25 152.96 50.24 Z" />
</g>
<g id="#d6d2c8ff">
<path fill="#d6d2c8" opacity="1.00" d=" M 95.18 51.34 C 96.58 50.68 97.00 51.08 96.44 52.54 C 95.02 53.32 94.60 52.92 95.18 51.34 Z" />
</g>
<g id="#826557ff">
<path fill="#826557" opacity="1.00" d=" M 206.17 53.05 C 206.26 52.76 206.45 52.19 206.54 51.91 C 208.93 55.76 210.56 60.34 213.86 63.47 C 218.81 62.96 223.80 63.52 228.71 62.64 L 228.20 61.04 C 229.54 61.31 230.83 62.11 231.86 63.01 C 231.67 70.97 231.95 78.98 231.85 86.97 C 232.08 90.21 230.96 93.62 232.41 96.71 C 237.66 106.22 243.45 115.50 248.61 125.02 C 243.20 134.14 237.92 143.34 232.66 152.55 C 231.32 154.82 231.66 157.51 231.76 160.02 C 231.89 168.95 231.55 177.89 231.90 186.82 L 230.99 186.84 C 231.01 186.04 231.04 184.43 231.05 183.63 C 231.11 174.66 231.27 165.67 230.99 156.70 C 230.49 157.02 229.50 157.64 229.00 157.95 L 229.03 156.99 C 230.54 155.01 231.57 152.51 231.30 149.98 C 230.82 144.96 231.48 139.87 230.62 134.87 C 231.29 133.66 231.51 132.37 231.26 131.01 C 230.76 125.59 231.79 120.04 230.46 114.72 C 231.82 109.93 230.59 104.89 231.29 100.01 C 231.87 95.31 228.16 91.76 226.34 87.77 C 224.74 85.60 223.97 82.77 221.95 80.99 C 217.61 87.90 213.63 95.09 209.60 102.21 C 210.24 102.66 211.52 103.55 212.16 104.00 C 211.07 103.71 210.00 103.40 208.93 103.06 C 205.04 110.17 200.77 117.06 196.86 124.16 C 196.87 125.45 196.23 126.39 195.05 126.91 C 192.03 133.00 188.04 138.59 185.12 144.72 C 185.75 144.91 187.02 145.29 187.65 145.48 L 186.59 146.81 C 186.94 149.32 184.49 146.99 183.62 146.52 C 183.34 147.40 182.79 149.15 182.52 150.02 C 181.40 149.12 180.34 148.16 179.26 147.22 C 179.27 150.12 179.68 153.32 177.27 155.44 C 173.81 150.18 170.93 144.55 167.65 139.17 C 167.81 136.04 170.31 134.08 172.24 131.94 C 175.56 137.25 178.28 143.13 182.04 148.01 C 184.00 146.07 184.79 143.31 186.34 141.06 C 186.32 140.42 186.28 139.13 186.26 138.49 C 186.69 138.48 187.54 138.45 187.97 138.43 C 198.92 118.82 210.26 99.41 221.59 80.00 C 219.26 75.02 216.14 70.44 213.59 65.56 C 213.31 62.80 209.87 63.52 207.94 63.70 C 192.44 63.85 176.98 63.34 161.48 63.89 C 161.50 64.44 161.52 65.53 161.54 66.08 C 161.22 65.16 160.70 64.41 160.00 63.83 C 154.76 63.58 149.51 63.62 144.28 63.88 C 144.36 64.36 144.51 65.31 144.59 65.79 C 143.88 65.01 143.38 63.63 142.08 63.82 C 139.05 63.49 136.01 63.61 132.99 63.80 L 132.84 63.52 C 145.22 63.23 157.62 63.54 170.01 63.29 C 175.22 63.18 180.50 63.75 185.64 62.67 C 185.94 61.66 186.34 60.70 186.86 59.79 C 186.77 60.42 186.59 61.69 186.50 62.32 C 190.04 64.08 194.17 63.03 197.98 63.29 C 202.57 62.95 207.44 64.10 211.81 62.27 C 209.65 59.37 208.30 55.96 206.17 53.05 M 213.82 63.93 C 215.73 68.81 218.94 73.17 221.42 77.76 C 221.81 77.77 222.58 77.77 222.97 77.77 C 225.10 72.85 228.56 68.52 230.65 63.63 C 225.05 63.54 219.42 63.69 213.82 63.93 M 229.54 67.45 C 227.30 71.71 224.70 75.77 222.46 80.03 C 224.81 83.18 226.51 86.77 228.54 90.14 C 229.27 91.09 229.51 92.76 230.91 92.97 C 231.40 84.36 231.31 75.69 231.00 67.07 C 230.63 67.17 229.90 67.35 229.54 67.45 M 232.21 99.27 C 231.14 105.38 232.04 111.76 231.69 117.96 C 232.15 123.29 231.03 128.82 232.58 134.00 C 232.33 134.49 231.83 135.46 231.58 135.94 C 231.88 140.81 231.57 145.69 231.96 150.55 L 232.99 150.64 C 236.98 142.62 241.93 135.07 246.19 127.17 L 244.25 127.45 C 244.23 127.15 244.17 126.56 244.14 126.27 C 246.31 127.09 248.45 125.90 247.22 123.34 C 245.78 123.20 243.71 124.03 243.00 122.24 C 243.76 122.39 245.27 122.69 246.03 122.84 C 242.36 114.69 236.89 107.26 233.02 99.15 L 232.21 99.27 Z" />
</g>
<g id="#baaba0ff">
<path fill="#baaba0" opacity="1.00" d=" M 186.08 53.14 L 186.87 53.16 C 186.86 53.59 186.84 54.44 186.83 54.87 L 186.05 54.85 C 186.06 54.42 186.07 53.57 186.08 53.14 Z" />
</g>
<g id="#dcddd5ff">
<path fill="#dcddd5" opacity="1.00" d=" M 62.35 55.22 C 63.97 53.69 65.04 56.96 63.75 57.90 C 62.17 59.01 61.33 56.15 62.35 55.22 Z" />
</g>
<g id="#dbd7ceff">
<path fill="#dbd7ce" opacity="1.00" d=" M 92.24 57.27 C 93.62 57.55 92.74 59.75 91.72 60.01 C 89.97 59.96 91.05 57.41 92.24 57.27 Z" />
</g>
<g id="#e0dbd4ff">
<path fill="#e0dbd4" opacity="1.00" d=" M 156.42 57.09 C 157.80 55.95 159.75 58.44 158.59 59.65 C 157.21 60.54 155.76 58.27 156.42 57.09 Z" />
<path fill="#e0dbd4" opacity="1.00" d=" M 156.08 71.36 C 157.19 70.80 158.85 71.78 158.94 73.02 C 158.36 75.06 154.74 72.96 156.08 71.36 Z" />
</g>
<g id="#a79780ff">
<path fill="#a79780" opacity="1.00" d=" M 126.89 69.13 C 126.83 65.95 127.41 62.39 131.05 61.59 C 131.50 62.07 132.39 63.04 132.84 63.52 L 132.99 63.80 C 135.87 70.74 140.53 76.88 144.03 83.56 C 141.37 84.43 139.62 86.65 138.47 89.10 C 134.54 82.49 130.74 75.79 126.89 69.13 Z" />
<path fill="#a79780" opacity="1.00" d=" M 184.04 104.01 C 185.72 105.34 187.42 107.52 186.63 109.83 C 185.55 109.17 185.87 107.81 185.71 106.76 C 184.53 106.22 183.97 105.31 184.04 104.01 Z" />
<path fill="#a79780" opacity="1.00" d=" M 218.30 164.28 C 219.50 162.65 221.40 165.46 220.65 166.71 C 219.15 167.69 217.65 165.62 218.30 164.28 Z" />
</g>
<g id="#a29c85ff">
<path fill="#a29c85" opacity="1.00" d=" M 115.17 63.92 C 117.70 63.84 120.61 63.58 122.38 65.78 C 119.71 71.18 116.47 76.28 113.42 81.47 C 111.04 80.26 108.43 79.70 105.77 79.64 C 108.63 74.72 111.38 69.73 114.49 64.97 C 114.66 64.71 115.00 64.18 115.17 63.92 Z" />
</g>
<g id="#dfdad2ff">
<path fill="#dfdad2" opacity="1.00" d=" M 149.25 67.50 C 150.32 66.70 152.63 68.25 151.86 69.57 C 150.71 70.22 148.63 68.86 149.25 67.50 Z" />
</g>
<g id="#dad6cdff">
<path fill="#dad6cd" opacity="1.00" d=" M 98.24 68.01 C 99.89 67.07 100.38 69.53 98.75 69.84 C 97.08 70.85 96.59 68.32 98.24 68.01 Z" />
</g>
<g id="#c2b6adff">
<path fill="#c2b6ad" opacity="1.00" d=" M 186.14 68.23 C 187.37 68.59 187.59 69.43 186.78 70.77 C 185.51 70.41 185.29 69.57 186.14 68.23 Z" />
</g>
<g id="#deddd7ff">
<path fill="#deddd7" opacity="1.00" d=" M 63.12 70.22 C 64.66 70.40 64.68 73.54 63.19 73.80 C 61.69 73.36 61.59 70.69 63.12 70.22 Z" />
<path fill="#deddd7" opacity="1.00" d=" M 63.17 124.24 C 64.59 124.48 64.52 126.81 63.73 127.69 C 61.80 128.29 61.42 124.66 63.17 124.24 Z" />
</g>
<g id="#dad4ccff">
<path fill="#dad4cc" opacity="1.00" d=" M 164.35 70.23 C 165.76 69.39 166.98 71.92 165.99 72.91 C 164.61 73.57 163.43 71.21 164.35 70.23 Z" />
</g>
<g id="#d7d5caff">
<path fill="#d7d5ca" opacity="1.00" d=" M 84.22 71.03 C 85.86 71.16 84.91 73.62 83.73 73.76 C 82.28 73.50 83.12 71.24 84.22 71.03 Z" />
</g>
<g id="#d8d6ccff">
<path fill="#d8d6cc" opacity="1.00" d=" M 91.24 72.01 C 92.92 70.84 93.66 73.54 91.83 73.82 C 90.31 74.66 89.78 72.43 91.24 72.01 Z" />
</g>
<g id="#d1c8beff">
<path fill="#d1c8be" opacity="1.00" d=" M 163.00 75.41 C 164.41 75.12 165.03 75.64 164.87 76.97 C 163.38 77.33 162.76 76.81 163.00 75.41 Z" />
</g>
<g id="#d3d0c6ff">
<path fill="#d3d0c6" opacity="1.00" d=" M 84.24 76.25 C 85.86 75.60 86.29 75.97 85.54 77.39 C 84.05 78.02 83.62 77.64 84.24 76.25 Z" />
</g>
<g id="#c4b8aeff">
<path fill="#c4b8ae" opacity="1.00" d=" M 186.11 76.13 C 188.27 75.48 186.83 80.54 185.76 78.01 C 185.85 77.54 186.02 76.60 186.11 76.13 Z" />
<path fill="#c4b8ae" opacity="1.00" d=" M 186.18 176.38 C 187.37 176.72 187.57 177.56 186.78 178.88 C 185.47 178.57 185.27 177.74 186.18 176.38 Z" />
</g>
<g id="#d2c9c0ff">
<path fill="#d2c9c0" opacity="1.00" d=" M 168.06 76.94 C 170.08 77.27 171.36 79.50 172.23 81.15 C 169.83 81.88 168.06 79.01 168.06 76.94 Z" />
</g>
<g id="#d2cfc5ff">
<path fill="#d2cfc5" opacity="1.00" d=" M 80.31 78.05 C 82.80 78.97 77.98 82.99 77.10 80.97 C 77.75 79.71 79.25 78.98 80.31 78.05 Z" />
</g>
<g id="#979580ff">
<path fill="#979580" opacity="1.00" d=" M 96.77 95.06 C 99.72 89.89 102.78 84.78 105.77 79.64 C 108.43 79.70 111.04 80.26 113.42 81.47 C 110.20 87.07 107.01 92.68 103.68 98.21 C 101.62 96.67 99.19 95.83 96.77 95.06 Z" />
</g>
<g id="#e0dfd8ff">
<path fill="#e0dfd8" opacity="1.00" d=" M 71.35 83.16 C 73.66 82.08 73.78 85.74 71.64 85.86 C 69.59 86.58 69.59 83.43 71.35 83.16 Z" />
</g>
<g id="#d1c8c0ff">
<path fill="#d1c8c0" opacity="1.00" d=" M 176.28 83.22 C 177.21 82.50 179.31 83.62 178.69 84.84 C 177.73 85.69 175.60 84.46 176.28 83.22 Z" />
</g>
<g id="#dcdad2ff">
<path fill="#dcdad2" opacity="1.00" d=" M 76.34 84.26 C 78.18 84.16 77.43 87.21 75.93 87.14 C 74.23 86.92 75.17 84.53 76.34 84.26 Z" />
</g>
<g id="#9d8b75ff">
<path fill="#9d8b75" opacity="1.00" d=" M 138.47 89.10 C 139.62 86.65 141.37 84.43 144.03 83.56 C 146.31 87.58 148.74 91.50 151.00 95.53 C 148.36 96.47 146.65 98.67 145.51 101.13 C 143.09 97.16 140.84 93.09 138.47 89.10 Z" />
</g>
<g id="#d8d1c9ff">
<path fill="#d8d1c9" opacity="1.00" d=" M 172.09 84.00 C 173.53 82.86 174.91 85.62 173.80 86.62 C 172.53 87.09 171.36 85.03 172.09 84.00 Z" />
</g>
<g id="#b9aa9fff">
<path fill="#b9aa9f" opacity="1.00" d=" M 186.08 84.09 L 186.87 84.14 C 186.86 84.56 186.85 85.41 186.84 85.84 L 186.04 85.80 C 186.05 85.37 186.07 84.52 186.08 84.09 Z" />
</g>
<g id="#d3d3caff">
<path fill="#d3d3ca" opacity="1.00" d=" M 62.26 86.28 C 63.41 85.90 64.12 86.32 64.39 87.55 C 64.82 87.44 65.68 87.23 66.12 87.12 C 67.47 89.75 62.32 90.31 62.41 87.72 C 62.37 87.36 62.30 86.64 62.26 86.28 Z" />
</g>
<g id="#d0c6bfff">
<path fill="#d0c6bf" opacity="1.00" d=" M 183.17 87.10 C 184.15 86.41 186.11 87.62 185.55 88.80 C 184.57 89.61 182.38 88.35 183.17 87.10 Z" />
</g>
<g id="#d7cfc8ff">
<path fill="#d7cfc8" opacity="1.00" d=" M 176.13 90.35 C 177.43 89.78 178.71 91.91 177.87 92.95 C 176.45 93.87 175.05 91.36 176.13 90.35 Z" />
</g>
<g id="#d1d1c9ff">
<path fill="#d1d1c9" opacity="1.00" d=" M 58.21 91.15 C 59.77 90.28 60.18 92.57 58.73 92.96 C 56.95 94.14 56.37 91.43 58.21 91.15 Z" />
</g>
<g id="#deded6ff">
<path fill="#deded6" opacity="1.00" d=" M 72.22 90.98 C 74.72 89.96 73.80 94.10 71.94 93.92 C 70.44 93.59 71.20 91.45 72.22 90.98 Z" />
</g>
<g id="#d5ccc6ff">
<path fill="#d5ccc6" opacity="1.00" d=" M 189.37 91.04 C 190.37 89.90 193.06 91.34 191.94 92.79 C 190.90 93.52 188.89 92.32 189.37 91.04 Z" />
</g>
<g id="#d7cdc8ff">
<path fill="#d7cdc8" opacity="1.00" d=" M 196.16 94.51 C 197.32 93.86 199.89 95.28 198.84 96.73 C 197.59 97.69 195.30 95.93 196.16 94.51 Z" />
</g>
<g id="#cdcfc7ff">
<path fill="#cdcfc7" opacity="1.00" d=" M 51.24 95.09 C 52.91 94.08 53.49 96.58 51.80 96.92 C 50.20 97.87 49.65 95.45 51.24 95.09 Z" />
</g>
<g id="#8b8f7bff">
<path fill="#8b8f7b" opacity="1.00" d=" M 85.88 113.76 C 89.45 107.49 93.16 101.30 96.77 95.06 C 99.19 95.83 101.62 96.67 103.68 98.21 C 100.23 104.16 96.82 110.13 93.31 116.05 C 92.39 112.87 88.34 114.26 85.88 113.76 Z" />
</g>
<g id="#967f6dff">
<path fill="#967f6d" opacity="1.00" d=" M 145.51 101.13 C 146.65 98.67 148.36 96.47 151.00 95.53 C 154.30 101.29 157.77 106.96 161.03 112.75 C 159.06 114.44 157.21 116.26 155.36 118.07 C 152.03 112.45 148.80 106.77 145.51 101.13 Z" />
<path fill="#967f6d" opacity="1.00" d=" M 237.21 131.63 C 236.42 130.14 238.34 128.79 239.67 129.38 C 240.43 130.84 238.45 132.05 237.21 131.63 Z" />
<path fill="#967f6d" opacity="1.00" d=" M 212.56 185.52 C 218.05 176.02 223.42 166.43 229.03 156.99 L 229.00 157.95 C 227.69 162.40 224.64 166.18 222.35 170.18 C 223.28 171.02 223.93 172.01 224.31 173.16 C 223.72 172.66 222.53 171.66 221.94 171.16 C 216.38 181.12 210.16 190.79 205.03 200.92 C 213.78 197.03 221.69 191.09 230.35 186.84 C 230.38 186.25 230.44 185.07 230.46 184.48 L 231.05 183.63 C 231.04 184.43 231.01 186.04 230.99 186.84 C 230.80 188.21 229.11 188.28 228.22 189.01 C 219.97 193.87 211.50 198.41 203.37 203.44 C 197.68 212.75 192.42 222.37 186.84 231.76 C 179.45 231.62 172.05 231.84 164.66 231.68 L 165.29 231.15 C 171.21 231.28 177.13 231.12 183.05 231.12 C 184.43 231.13 185.82 230.68 187.04 230.05 C 191.54 222.35 195.75 214.47 200.47 206.92 L 200.86 205.02 C 199.45 205.41 198.17 206.06 197.01 206.97 C 196.77 206.83 196.30 206.57 196.06 206.44 C 198.76 204.72 202.33 203.79 203.85 200.72 C 206.23 196.42 208.70 192.18 211.18 187.94 C 210.91 187.49 210.38 186.59 210.12 186.14 C 210.73 185.99 211.95 185.67 212.56 185.52 Z" />
</g>
<g id="#d6cec6ff">
<path fill="#d6cec6" opacity="1.00" d=" M 180.04 97.19 C 181.40 96.49 182.66 98.84 181.70 99.82 C 180.30 100.64 179.05 98.19 180.04 97.19 Z" />
</g>
<g id="#d0d0c6ff">
<path fill="#d0d0c6" opacity="1.00" d=" M 68.15 98.29 C 69.54 97.67 69.94 98.08 69.36 99.51 C 67.92 100.33 67.51 99.92 68.15 98.29 Z" />
</g>
<g id="#d6cdc9ff">
<path fill="#d6cdc9" opacity="1.00" d=" M 203.05 98.33 C 204.26 97.74 206.46 99.20 205.64 100.61 C 204.44 101.66 201.90 99.70 203.05 98.33 Z" />
</g>
<g id="#cdcec8ff">
<path fill="#cdcec8" opacity="1.00" d=" M 44.29 99.12 C 46.05 97.88 46.64 100.66 44.79 100.92 C 43.20 101.69 42.80 99.51 44.29 99.12 Z" />
</g>
<g id="#c3b6adff">
<path fill="#c3b6ad" opacity="1.00" d=" M 186.08 99.20 C 188.30 98.61 186.75 103.65 185.71 100.97 C 185.80 100.53 185.99 99.64 186.08 99.20 Z" />
<path fill="#c3b6ad" opacity="1.00" d=" M 186.20 207.31 C 187.37 207.73 187.57 208.59 186.80 209.89 C 185.49 209.52 185.29 208.66 186.20 207.31 Z" />
</g>
<g id="#dadad3ff">
<path fill="#dadad3" opacity="1.00" d=" M 63.17 101.13 C 64.68 101.24 64.61 104.20 63.07 104.25 C 61.59 103.90 61.85 101.49 63.17 101.13 Z" />
<path fill="#dadad3" opacity="1.00" d=" M 63.25 217.19 C 64.70 217.40 64.57 220.30 63.06 220.39 C 61.61 219.96 61.91 217.53 63.25 217.19 Z" />
</g>
<g id="#c4c7c0ff">
<path fill="#c4c7c0" opacity="1.00" d=" M 37.28 103.28 C 38.87 102.62 39.31 103.02 38.58 104.47 C 37.12 105.06 36.68 104.66 37.28 103.28 Z" />
</g>
<g id="#d4d3caff">
<path fill="#d4d3ca" opacity="1.00" d=" M 65.30 104.27 C 66.56 104.63 65.64 106.65 64.73 106.98 C 62.88 107.01 63.98 104.26 65.30 104.27 Z" />
</g>
<g id="#d2d4d0ff">
<path fill="#d2d4d0" opacity="1.00" d=" M 32.33 106.26 C 34.44 107.02 31.55 109.91 30.17 108.73 C 29.26 107.40 31.19 106.29 32.33 106.26 Z" />
</g>
<g id="#cec2bdff">
<path fill="#cec2bd" opacity="1.00" d=" M 216.25 106.34 C 217.24 105.34 219.58 106.71 218.93 108.06 C 217.91 108.94 215.45 107.72 216.25 106.34 Z" />
</g>
<g id="#dad9d2ff">
<path fill="#dad9d2" opacity="1.00" d=" M 59.94 114.17 C 59.06 111.83 61.85 109.67 63.83 109.04 C 63.87 109.74 63.94 111.14 63.98 111.84 C 62.31 112.08 61.44 113.63 59.94 114.17 Z" />
</g>
<g id="#d1d5d1ff">
<path fill="#d1d5d1" opacity="1.00" d=" M 25.31 110.15 C 27.70 110.65 24.82 113.97 23.40 112.60 C 22.54 111.36 24.21 110.21 25.31 110.15 Z" />
</g>
<g id="#cbbebaff">
<path fill="#cbbeba" opacity="1.00" d=" M 223.12 110.14 C 224.15 109.33 226.35 110.64 225.74 111.94 C 224.69 112.91 222.18 111.55 223.12 110.14 Z" />
</g>
<g id="#d3c9c2ff">
<path fill="#d3c9c2" opacity="1.00" d=" M 187.46 111.03 C 188.44 109.95 190.19 111.75 189.59 112.84 C 188.55 113.82 186.94 112.14 187.46 111.03 Z" />
</g>
<g id="#8c7261ff">
<path fill="#8c7261" opacity="1.00" d=" M 155.36 118.07 C 157.21 116.26 159.06 114.44 161.03 112.75 C 164.74 119.16 168.56 125.52 172.24 131.94 C 170.31 134.08 167.81 136.04 167.65 139.17 C 163.49 132.17 159.50 125.08 155.36 118.07 Z" />
</g>
<g id="#7d8676ff">
<path fill="#7d8676" opacity="1.00" d=" M 72.61 136.55 C 76.92 128.89 81.48 121.37 85.88 113.76 C 88.34 114.26 92.39 112.87 93.31 116.05 C 89.58 122.59 85.59 129.00 82.04 135.64 C 83.60 135.72 85.16 135.70 86.72 135.72 C 88.28 136.47 89.98 136.74 91.65 137.15 C 91.81 139.59 90.91 141.85 88.96 143.37 C 84.71 143.84 79.67 142.01 76.14 145.15 C 75.55 142.13 76.52 137.60 72.61 136.55 Z" />
</g>
<g id="#c4b9b0ff">
<path fill="#c4b9b0" opacity="1.00" d=" M 186.19 114.39 C 187.36 114.73 187.57 115.57 186.82 116.89 C 185.48 116.60 185.27 115.77 186.19 114.39 Z" />
</g>
<g id="#ddddd6ff">
<path fill="#ddddd6" opacity="1.00" d=" M 62.34 117.17 C 63.92 115.63 65.18 118.95 63.76 119.83 C 62.15 120.81 61.37 118.13 62.34 117.17 Z" />
<path fill="#ddddd6" opacity="1.00" d=" M 62.39 194.32 C 63.94 192.94 65.13 196.03 63.89 197.01 C 62.30 198.17 61.42 195.30 62.39 194.32 Z" />
</g>
<g id="#d8cfc9ff">
<path fill="#d8cfc9" opacity="1.00" d=" M 191.31 117.20 C 192.71 116.30 194.18 118.71 193.57 119.89 C 192.13 120.90 190.37 118.45 191.31 117.20 Z" />
</g>
<g id="#bdc5c1ff">
<path fill="#bdc5c1" opacity="1.00" d=" M 11.25 118.26 C 12.78 117.45 13.35 119.62 11.81 120.02 C 10.03 121.21 9.30 118.48 11.25 118.26 Z" />
</g>
<g id="#d6d6cfff">
<path fill="#d6d6cf" opacity="1.00" d=" M 56.37 118.21 C 57.98 116.69 58.91 119.78 57.36 120.45 C 55.89 121.68 55.26 118.92 56.37 118.21 Z" />
</g>
<g id="#c9bcb8ff">
<path fill="#c9bcb8" opacity="1.00" d=" M 236.29 118.06 C 237.32 117.00 239.89 118.45 238.93 119.87 C 237.87 120.59 235.79 119.35 236.29 118.06 Z" />
</g>
<g id="#c2b5abff">
<path fill="#c2b5ab" opacity="1.00" d=" M 186.15 122.31 C 187.37 122.61 187.58 123.45 186.79 124.81 C 185.50 124.51 185.29 123.67 186.15 122.31 Z" />
<path fill="#c2b5ab" opacity="1.00" d=" M 186.14 215.18 C 187.36 215.57 187.57 216.43 186.77 217.79 C 185.52 217.39 185.31 216.52 186.14 215.18 Z" />
</g>
<g id="#b4bdb9ff">
<path fill="#b4bdb9" opacity="1.00" d=" M 11.11 130.07 C 12.63 129.83 13.24 130.39 12.95 131.76 C 11.49 131.96 10.87 131.39 11.11 130.07 Z" />
</g>
<g id="#c2b4abff">
<path fill="#c2b4ab" opacity="1.00" d=" M 186.13 130.14 C 187.37 130.48 187.60 131.33 186.82 132.69 C 185.54 132.32 185.31 131.47 186.13 130.14 Z" />
</g>
<g id="#d2d3cdff">
<path fill="#d2d3cd" opacity="1.00" d=" M 49.26 131.14 C 51.08 131.07 50.38 134.02 48.94 134.08 C 47.24 133.93 48.09 131.45 49.26 131.14 Z" />
</g>
<g id="#c5b8b0ff">
<path fill="#c5b8b0" opacity="1.00" d=" M 199.24 131.04 C 200.65 130.78 201.20 131.38 200.89 132.86 C 199.52 133.04 198.97 132.43 199.24 131.04 Z" />
</g>
<g id="#d9d9d2ff">
<path fill="#d9d9d2" opacity="1.00" d=" M 63.19 132.14 C 64.75 132.18 64.61 135.22 63.08 135.28 C 61.65 134.90 61.90 132.53 63.19 132.14 Z" />
</g>
<g id="#999781ff">
<path fill="#999781" opacity="1.00" d=" M 86.72 135.72 C 99.30 135.60 111.89 135.76 124.47 135.73 C 124.19 138.96 122.05 143.56 118.08 143.35 C 108.38 143.33 98.67 143.45 88.96 143.37 C 90.91 141.85 91.81 139.59 91.65 137.15 C 89.98 136.74 88.28 136.47 86.72 135.72 Z" />
</g>
<g id="#d0d4d0ff">
<path fill="#d0d4d0" opacity="1.00" d=" M 24.06 137.39 C 25.23 136.73 27.60 138.23 26.69 139.61 C 25.45 140.65 23.03 138.79 24.06 137.39 Z" />
</g>
<g id="#62786cff">
<path fill="#62786c" opacity="1.00" d=" M 72.61 136.55 C 76.52 137.60 75.55 142.13 76.14 145.15 C 74.80 147.85 73.32 150.48 71.62 152.97 C 71.10 153.75 70.59 154.54 70.18 155.39 C 67.52 160.83 64.17 165.89 61.19 171.17 C 61.81 171.19 63.06 171.24 63.69 171.26 C 63.59 171.89 63.39 173.14 63.29 173.76 C 62.37 173.04 61.70 172.05 60.75 171.36 C 59.39 174.86 57.22 178.04 55.21 181.22 C 53.57 183.78 50.46 184.58 48.36 186.62 C 47.35 186.51 45.34 186.30 44.33 186.20 L 44.18 185.13 C 49.35 176.36 54.43 167.54 59.65 158.80 C 58.81 158.33 57.98 157.83 57.16 157.32 C 57.92 157.45 59.42 157.70 60.17 157.83 C 62.20 154.31 64.32 150.84 66.28 147.28 L 66.72 146.52 C 68.81 143.27 70.65 139.87 72.61 136.55 Z" />
</g>
<g id="#cabeb8ff">
<path fill="#cabeb8" opacity="1.00" d=" M 203.20 137.31 C 204.39 136.82 205.54 138.84 204.83 139.80 C 203.54 140.49 202.38 138.28 203.20 137.31 Z" />
</g>
<g id="#beaea8ff">
<path fill="#beaea8" opacity="1.00" d=" M 225.26 137.14 C 226.54 137.71 226.40 138.39 224.84 139.15 C 223.54 138.57 223.68 137.89 225.26 137.14 Z" />
</g>
<g id="#d7d8d2ff">
<path fill="#d7d8d2" opacity="1.00" d=" M 45.22 137.98 C 47.69 137.20 46.66 140.95 44.94 140.87 C 43.24 140.68 43.98 138.29 45.22 137.98 Z" />
</g>
<g id="#c8ccc7ff">
<path fill="#c8ccc7" opacity="1.00" d=" M 31.08 141.38 C 32.19 140.82 33.96 142.50 32.91 143.54 C 31.84 144.05 30.11 142.38 31.08 141.38 Z" />
</g>
<g id="#c7bab5ff">
<path fill="#c7bab5" opacity="1.00" d=" M 218.21 141.11 C 221.83 140.27 217.48 145.19 216.96 142.21 C 217.27 141.94 217.89 141.38 218.21 141.11 Z" />
</g>
<g id="#c8bbb5ff">
<path fill="#c8bbb5" opacity="1.00" d=" M 207.09 144.20 C 208.29 143.60 209.49 145.67 208.77 146.62 C 207.54 147.30 206.27 145.18 207.09 144.20 Z" />
</g>
<g id="#c8cac3ff">
<path fill="#c8cac3" opacity="1.00" d=" M 38.02 145.52 C 39.66 146.36 41.03 145.02 42.52 145.15 C 43.14 147.86 37.20 148.19 38.02 145.52 Z" />
</g>
<g id="#c6b9b2ff">
<path fill="#c6b9b2" opacity="1.00" d=" M 211.24 145.10 C 213.04 143.99 213.50 146.55 211.73 146.89 C 210.10 147.81 209.63 145.42 211.24 145.10 Z" />
</g>
<g id="#75544aff">
<path fill="#75544a" opacity="1.00" d=" M 179.26 147.22 C 180.34 148.16 181.40 149.12 182.52 150.02 C 184.10 152.61 186.29 154.79 187.22 157.68 C 192.42 166.53 197.62 175.40 202.80 184.27 C 203.32 185.27 204.11 186.07 204.86 186.91 C 199.89 186.34 194.43 184.93 191.66 180.36 C 187.46 173.08 183.02 165.91 179.13 158.47 C 178.83 157.59 178.27 156.92 177.45 156.46 C 177.41 156.21 177.32 155.70 177.27 155.44 C 179.68 153.32 179.27 150.12 179.26 147.22 Z" />
</g>
<g id="#d2d3ccff">
<path fill="#d2d3cc" opacity="1.00" d=" M 44.20 149.23 C 45.21 148.30 47.44 149.64 46.78 150.96 C 45.76 151.99 43.33 150.62 44.20 149.23 Z" />
</g>
<g id="#cbbfb9ff">
<path fill="#cbbfb9" opacity="1.00" d=" M 204.30 149.10 C 206.20 147.75 206.69 150.71 204.71 150.88 C 203.08 151.57 202.90 149.52 204.30 149.10 Z" />
</g>
<g id="#d4d6d2ff">
<path fill="#d4d6d2" opacity="1.00" d=" M 37.40 151.30 C 39.93 150.14 39.05 154.68 36.94 154.15 C 35.46 153.73 36.66 151.85 37.40 151.30 Z" />
</g>
<g id="#c2b3acff">
<path fill="#c2b3ac" opacity="1.00" d=" M 210.99 151.15 C 212.32 151.01 212.87 151.66 212.64 153.09 C 211.22 153.30 210.67 152.65 210.99 151.15 Z" />
</g>
<g id="#d5d6cfff">
<path fill="#d5d6cf" opacity="1.00" d=" M 51.03 153.15 C 52.07 152.27 54.19 153.55 53.60 154.85 C 52.60 155.88 49.99 154.58 51.03 153.15 Z" />
</g>
<g id="#cec3bdff">
<path fill="#cec3bd" opacity="1.00" d=" M 197.23 153.24 C 197.89 152.01 200.78 152.92 199.12 154.09 C 198.38 155.28 195.74 154.79 197.23 153.24 Z" />
</g>
<g id="#d9d1cbff">
<path fill="#d9d1cb" opacity="1.00" d=" M 192.29 156.19 C 194.28 156.99 191.55 159.83 190.17 158.69 C 189.13 157.36 191.13 156.19 192.29 156.19 Z" />
</g>
<g id="#d3c9c6ff">
<path fill="#d3c9c6" opacity="1.00" d=" M 214.47 157.39 C 215.81 156.65 217.44 158.79 216.80 160.01 C 215.37 161.20 213.54 158.62 214.47 157.39 Z" />
</g>
<g id="#ced1cbff">
<path fill="#ced1cb" opacity="1.00" d=" M 33.28 158.24 C 34.86 156.91 35.61 159.69 34.30 160.45 C 32.83 161.95 31.94 158.98 33.28 158.24 Z" />
</g>
<g id="#deddd6ff">
<path fill="#deddd6" opacity="1.00" d=" M 71.11 164.44 C 72.27 163.85 74.57 165.27 73.66 166.65 C 72.42 167.85 69.99 165.82 71.11 164.44 Z" />
</g>
<g id="#ccc2baff">
<path fill="#ccc2ba" opacity="1.00" d=" M 178.30 164.20 C 179.51 164.85 179.37 165.53 177.87 166.25 C 176.64 165.58 176.78 164.90 178.30 164.20 Z" />
</g>
<g id="#ced2ccff">
<path fill="#ced2cc" opacity="1.00" d=" M 29.29 165.16 C 30.95 163.50 31.74 166.61 30.26 167.37 C 28.82 168.72 28.17 165.89 29.29 165.16 Z" />
</g>
<g id="#bdc3bcff">
<path fill="#bdc3bc" opacity="1.00" d=" M 25.37 172.26 C 26.85 171.56 27.23 172.00 26.50 173.57 C 25.11 174.20 24.73 173.76 25.37 172.26 Z" />
</g>
<g id="#e1ded7ff">
<path fill="#e1ded7" opacity="1.00" d=" M 84.32 172.39 C 85.53 171.15 88.02 173.22 86.85 174.59 C 85.68 175.20 83.47 173.76 84.32 172.39 Z" />
</g>
<g id="#d5cdc4ff">
<path fill="#d5cdc4" opacity="1.00" d=" M 164.35 172.12 C 166.07 171.00 166.57 173.69 164.82 173.96 C 163.18 174.80 162.83 172.46 164.35 172.12 Z" />
</g>
<g id="#dedbd2ff">
<path fill="#dedbd2" opacity="1.00" d=" M 91.17 176.29 C 92.15 175.45 94.30 176.61 93.73 177.93 C 92.77 179.15 90.17 177.70 91.17 176.29 Z" />
</g>
<g id="#d3cbc1ff">
<path fill="#d3cbc1" opacity="1.00" d=" M 157.28 176.35 C 158.81 175.72 159.25 176.12 158.59 177.53 C 157.10 178.17 156.67 177.78 157.28 176.35 Z" />
</g>
<g id="#c2c8c2ff">
<path fill="#c2c8c2" opacity="1.00" d=" M 22.31 178.10 C 23.96 178.14 23.03 180.73 21.82 180.85 C 20.26 180.67 21.35 178.42 22.31 178.10 Z" />
</g>
<g id="#bdaca7ff">
<path fill="#bdaca7" opacity="1.00" d=" M 226.30 177.99 C 227.56 176.76 229.25 180.15 227.30 180.04 C 227.05 179.52 226.55 178.50 226.30 177.99 Z" />
</g>
<g id="#d9dad2ff">
<path fill="#d9dad2" opacity="1.00" d=" M 62.38 179.19 C 63.85 177.76 64.98 180.78 63.80 181.67 C 62.41 182.38 61.52 180.11 62.38 179.19 Z" />
</g>
<g id="#d8d5c9ff">
<path fill="#d8d5c9" opacity="1.00" d=" M 98.08 180.26 C 99.50 179.98 100.09 180.52 99.86 181.88 C 98.42 182.18 97.83 181.64 98.08 180.26 Z" />
</g>
<g id="#ddd8d0ff">
<path fill="#ddd8d0" opacity="1.00" d=" M 150.14 180.28 C 150.89 178.96 153.86 179.83 152.39 181.31 C 151.63 182.58 148.86 181.86 150.14 180.28 Z" />
</g>
<g id="#dfdad1ff">
<path fill="#dfdad1" opacity="1.00" d=" M 139.99 186.04 C 142.29 185.79 143.72 183.84 145.84 183.18 C 145.86 183.58 145.90 184.37 145.92 184.76 C 144.01 185.74 142.38 188.13 139.98 187.14 L 139.99 186.04 Z" />
</g>
<g id="#dcd8cdff">
<path fill="#dcd8cd" opacity="1.00" d=" M 104.46 184.19 C 105.39 183.28 107.57 184.56 106.74 185.81 C 105.80 186.55 103.83 185.36 104.46 184.19 Z" />
</g>
<g id="#baaba1ff">
<path fill="#baaba1" opacity="1.00" d=" M 186.14 184.35 C 187.23 184.43 187.49 186.18 188.87 186.30 C 188.46 188.55 184.16 186.28 186.14 184.35 Z" />
</g>
<g id="#b2bab3ff">
<path fill="#b2bab3" opacity="1.00" d=" M 24.23 186.13 C 24.67 186.02 25.54 185.80 25.98 185.70 C 28.75 186.67 23.74 188.34 24.23 186.13 Z" />
</g>
<g id="#b9bfb7ff">
<path fill="#b9bfb7" opacity="1.00" d=" M 32.14 186.10 C 33.49 185.31 34.32 185.53 34.63 186.76 C 33.23 187.60 32.40 187.37 32.14 186.10 Z" />
</g>
<g id="#b1b6acff">
<path fill="#b1b6ac" opacity="1.00" d=" M 40.13 186.05 C 40.55 186.05 41.39 186.06 41.81 186.06 L 41.83 186.86 C 41.40 186.85 40.56 186.84 40.14 186.84 L 40.13 186.05 Z" />
</g>
<g id="#c3c4b9ff">
<path fill="#c3c4b9" opacity="1.00" d=" M 55.23 186.12 C 56.51 185.28 57.34 185.50 57.72 186.76 C 56.41 187.60 55.59 187.39 55.23 186.12 Z" />
</g>
<g id="#d1d1c8ff">
<path fill="#d1d1c8" opacity="1.00" d=" M 62.32 186.31 C 63.46 185.45 64.63 185.39 65.84 186.12 C 64.77 187.14 64.21 188.75 62.89 189.47 C 62.28 188.53 62.09 187.48 62.32 186.31 Z" />
</g>
<g id="#c1bfb1ff">
<path fill="#c1bfb1" opacity="1.00" d=" M 71.16 186.07 C 71.57 186.06 72.40 186.06 72.81 186.05 L 72.82 186.85 C 72.41 186.85 71.58 186.85 71.17 186.86 L 71.16 186.07 Z" />
</g>
<g id="#ccc9bdff">
<path fill="#ccc9bd" opacity="1.00" d=" M 78.36 186.16 C 78.79 186.04 79.65 185.80 80.08 185.68 C 82.80 186.64 77.88 188.35 78.36 186.16 Z" />
</g>
<g id="#d1cdc2ff">
<path fill="#d1cdc2" opacity="1.00" d=" M 94.14 186.13 C 94.61 186.04 95.54 185.85 96.01 185.76 C 98.49 186.78 93.45 188.27 94.14 186.13 Z" />
</g>
<g id="#cbc5b5ff">
<path fill="#cbc5b5" opacity="1.00" d=" M 102.15 186.05 C 102.56 186.07 103.38 186.12 103.79 186.14 L 103.75 186.92 C 103.34 186.90 102.52 186.85 102.11 186.83 L 102.15 186.05 Z" />
</g>
<g id="#d3cec0ff">
<path fill="#d3cec0" opacity="1.00" d=" M 109.31 186.12 C 109.75 186.01 110.62 185.80 111.06 185.69 C 113.75 186.70 108.79 188.28 109.31 186.12 Z" />
</g>
<g id="#d4cfc1ff">
<path fill="#d4cfc1" opacity="1.00" d=" M 117.21 186.15 C 118.48 185.29 119.30 185.48 119.66 186.72 C 118.36 187.61 117.55 187.42 117.21 186.15 Z" />
</g>
<g id="#cfc7b6ff">
<path fill="#cfc7b6" opacity="1.00" d=" M 125.19 186.09 C 125.61 186.09 126.44 186.09 126.86 186.08 L 126.83 186.85 C 126.42 186.85 125.58 186.86 125.17 186.86 L 125.19 186.09 Z" />
</g>
<g id="#d6cfc2ff">
<path fill="#d6cfc2" opacity="1.00" d=" M 132.36 186.19 C 132.78 186.06 133.63 185.81 134.05 185.69 C 136.84 186.58 132.02 188.38 132.36 186.19 Z" />
</g>
<g id="#d0c8bbff">
<path fill="#d0c8bb" opacity="1.00" d=" M 148.18 186.10 C 149.53 185.33 150.36 185.55 150.68 186.79 C 149.28 187.59 148.45 187.36 148.18 186.10 Z" />
</g>
<g id="#c6bbadff">
<path fill="#c6bbad" opacity="1.00" d=" M 156.19 186.06 C 156.60 186.06 157.42 186.05 157.83 186.05 L 157.82 186.85 C 157.41 186.85 156.59 186.86 156.18 186.86 L 156.19 186.06 Z" />
</g>
<g id="#ccc2b7ff">
<path fill="#ccc2b7" opacity="1.00" d=" M 163.36 186.19 C 164.75 185.30 165.58 185.52 165.87 186.85 C 164.54 187.57 163.71 187.35 163.36 186.19 Z" />
</g>
<g id="#c8bcb3ff">
<path fill="#c8bcb3" opacity="1.00" d=" M 171.27 186.15 C 172.59 185.27 173.42 185.47 173.75 186.75 C 172.43 187.58 171.61 187.38 171.27 186.15 Z" />
</g>
<g id="#c6bab1ff">
<path fill="#c6bab1" opacity="1.00" d=" M 179.13 186.12 C 179.59 186.03 180.53 185.84 181.00 185.74 C 183.51 186.78 178.44 188.28 179.13 186.12 Z" />
</g>
<g id="#c1b3a9ff">
<path fill="#c1b3a9" opacity="1.00" d=" M 194.34 186.08 C 195.09 184.92 198.45 186.61 196.11 187.22 C 195.66 187.10 194.77 186.86 194.32 186.73 L 194.34 186.08 Z" />
</g>
<g id="#ad9991ff">
<path fill="#ad9991" opacity="1.00" d=" M 218.13 186.03 C 218.57 186.04 219.44 186.06 219.87 186.07 L 219.85 186.87 C 219.42 186.86 218.55 186.84 218.11 186.83 L 218.13 186.03 Z" />
</g>
<g id="#b4a29cff">
<path fill="#b4a29c" opacity="1.00" d=" M 225.29 186.13 C 225.75 186.03 226.65 185.82 227.11 185.71 C 229.96 186.75 224.84 188.28 225.29 186.13 Z" />
</g>
<g id="#dfdbd0ff">
<path fill="#dfdbd0" opacity="1.00" d=" M 138.24 187.24 C 139.85 187.40 138.85 189.74 137.64 189.75 C 136.00 189.60 137.04 187.27 138.24 187.24 Z" />
</g>
<g id="#ddd8cdff">
<path fill="#ddd8cd" opacity="1.00" d=" M 111.28 188.10 C 112.26 187.19 114.31 188.57 113.62 189.78 C 112.66 190.43 110.65 189.31 111.28 188.10 Z" />
</g>
<g id="#dad5c8ff">
<path fill="#dad5c8" opacity="1.00" d=" M 131.32 191.24 C 132.57 191.87 132.43 192.54 130.93 193.25 C 129.72 192.57 129.85 191.90 131.32 191.24 Z" />
</g>
<g id="#d8d4c7ff">
<path fill="#d8d4c7" opacity="1.00" d=" M 118.18 192.05 C 119.68 191.66 120.29 192.17 119.99 193.59 C 118.61 193.87 118.01 193.36 118.18 192.05 Z" />
</g>
<g id="#d9d5c9ff">
<path fill="#d9d5c9" opacity="1.00" d=" M 124.26 195.31 C 125.54 194.48 127.64 196.13 126.83 197.51 C 125.46 198.09 121.48 196.71 124.26 195.31 Z" />
</g>
<g id="#e1ddd3ff">
<path fill="#e1ddd3" opacity="1.00" d=" M 117.29 199.09 C 119.06 197.99 119.84 201.01 117.90 201.23 C 116.15 201.99 115.62 199.49 117.29 199.09 Z" />
</g>
<g id="#e5e0d8ff">
<path fill="#e5e0d8" opacity="1.00" d=" M 131.22 199.40 C 132.46 198.33 134.88 200.17 133.80 201.58 C 132.63 202.32 130.31 200.77 131.22 199.40 Z" />
</g>
<g id="#dcdcd5ff">
<path fill="#dcdcd5" opacity="1.00" d=" M 62.32 202.22 C 63.90 200.75 65.20 203.95 63.83 204.91 C 62.26 205.88 61.42 203.20 62.32 202.22 Z" />
</g>
<g id="#e1ddd5ff">
<path fill="#e1ddd5" opacity="1.00" d=" M 110.17 203.37 C 110.86 202.25 113.69 202.79 112.46 204.29 C 111.79 205.79 108.68 205.04 110.17 203.37 Z" />
</g>
<g id="#e5e1d9ff">
<path fill="#e5e1d9" opacity="1.00" d=" M 138.19 203.26 C 139.49 202.29 141.48 204.15 140.75 205.53 C 139.54 206.32 137.01 204.67 138.19 203.26 Z" />
</g>
<g id="#ddd9d0ff">
<path fill="#ddd9d0" opacity="1.00" d=" M 97.19 210.96 C 98.90 209.81 99.58 212.60 97.73 212.78 C 96.18 213.57 95.73 211.38 97.19 210.96 Z" />
</g>
<g id="#d8d1c7ff">
<path fill="#d8d1c7" opacity="1.00" d=" M 151.41 211.26 C 152.34 210.44 154.52 211.62 153.80 212.87 C 152.84 213.68 150.87 212.46 151.41 211.26 Z" />
</g>
<g id="#dad8ceff">
<path fill="#dad8ce" opacity="1.00" d=" M 91.27 214.26 C 92.87 214.37 91.88 216.74 90.69 216.79 C 88.93 216.73 90.13 214.37 91.27 214.26 Z" />
</g>
<g id="#d6cfc6ff">
<path fill="#d6cfc6" opacity="1.00" d=" M 158.25 215.12 C 159.23 214.32 161.25 215.62 160.57 216.81 C 159.60 217.58 157.56 216.32 158.25 215.12 Z" />
</g>
<g id="#e1dfd8ff">
<path fill="#e1dfd8" opacity="1.00" d=" M 84.31 218.16 C 86.81 217.58 85.57 221.09 83.75 220.85 C 81.86 220.78 82.99 218.23 84.31 218.16 Z" />
</g>
<g id="#d0c7bdff">
<path fill="#d0c7bd" opacity="1.00" d=" M 165.14 219.11 C 166.61 218.76 167.25 219.29 167.05 220.71 C 165.66 220.98 165.02 220.45 165.14 219.11 Z" />
</g>
<g id="#cfc6bdff">
<path fill="#cfc6bd" opacity="1.00" d=" M 172.07 223.02 C 173.54 222.69 174.12 223.24 173.82 224.66 C 172.41 224.90 171.83 224.36 172.07 223.02 Z" />
</g>
<g id="#c3b6aeff">
<path fill="#c3b6ae" opacity="1.00" d=" M 186.12 223.10 C 187.38 223.43 187.60 224.29 186.77 225.67 C 185.54 225.28 185.32 224.42 186.12 223.10 Z" />
</g>
<g id="#dad9d0ff">
<path fill="#dad9d0" opacity="1.00" d=" M 70.28 226.24 C 72.01 224.98 73.13 228.02 71.00 228.25 C 69.35 229.01 68.53 226.63 70.28 226.24 Z" />
</g>
<g id="#dad2ccff">
<path fill="#dad2cc" opacity="1.00" d=" M 178.14 226.41 C 179.33 225.73 181.76 227.21 180.78 228.64 C 179.55 229.59 177.17 227.82 178.14 226.41 Z" />
</g>
</svg>
