<?xml version="1.0" encoding="UTF-8" ?>
<!DOCTYPE svg PUBLIC "-//W3C//DTD SVG 1.1//EN" "http://www.w3.org/Graphics/SVG/1.1/DTD/svg11.dtd">
<svg width="250pt" height="250pt" viewBox="0 0 250 250" version="1.1" xmlns="http://www.w3.org/2000/svg">
<g id="#0070bbff">
<path fill="#0070bb" opacity="1.00" d=" M 111.18 0.00 L 138.97 0.00 C 146.12 3.26 154.02 3.79 161.54 5.73 C 161.60 9.84 162.69 13.92 162.25 18.03 C 161.37 21.91 157.09 24.55 153.20 23.89 C 147.55 23.14 142.11 21.19 136.40 20.83 C 126.77 20.12 117.01 20.14 107.47 21.82 C 87.11 25.69 67.51 35.02 52.80 49.80 C 37.58 64.04 27.19 83.09 22.50 103.33 C 21.04 109.35 21.53 115.69 19.73 121.63 C 18.77 125.03 15.64 127.73 12.02 127.65 C 6.91 128.10 3.48 123.71 0.00 120.71 L 0.00 110.31 C 1.65 106.86 3.01 103.25 3.55 99.44 C 13.04 51.43 53.90 11.28 102.23 3.11 C 105.38 2.61 108.28 1.27 111.18 0.00 Z" />
<path fill="#0070bb" opacity="1.00" d=" M 182.33 24.38 C 185.17 22.14 188.75 21.16 192.01 19.72 C 216.40 34.79 235.15 58.58 244.32 85.72 C 246.41 92.06 247.56 98.68 250.00 104.91 L 250.00 146.03 C 247.37 153.35 246.13 161.07 243.43 168.37 C 238.18 182.62 230.47 196.00 220.47 207.46 C 217.56 210.60 214.72 213.81 211.84 216.98 C 207.22 215.00 200.89 214.09 199.02 208.67 C 197.15 203.55 201.48 199.12 204.48 195.49 C 218.96 179.43 227.67 158.78 231.07 137.55 C 231.86 129.57 231.99 121.45 230.95 113.48 C 228.73 101.32 225.58 89.16 219.76 78.17 C 212.23 63.87 201.69 51.00 188.56 41.49 C 185.54 39.16 182.16 36.92 180.40 33.40 C 178.81 30.43 179.96 26.59 182.33 24.38 Z" />
<path fill="#0070bb" opacity="1.00" d=" M 12.48 148.25 C 16.24 146.38 20.91 148.63 22.78 152.15 C 25.02 156.30 26.05 160.96 27.82 165.31 C 38.45 191.84 60.42 213.45 86.98 223.93 C 97.16 228.12 108.10 229.91 118.97 231.20 C 129.05 232.37 139.05 230.12 148.96 228.58 C 155.45 227.54 161.61 225.14 167.56 222.43 C 172.14 220.49 178.22 217.43 182.54 221.52 C 186.78 225.15 185.31 231.18 185.16 236.03 C 179.20 238.86 173.28 241.88 166.99 243.93 C 160.89 246.03 154.42 247.06 148.62 250.00 L 103.41 250.00 C 100.42 248.77 97.42 247.54 94.28 246.77 C 77.02 242.48 60.83 234.18 47.01 223.02 C 25.66 206.02 10.47 181.64 4.05 155.15 C 6.70 152.68 9.20 149.91 12.48 148.25 Z" />
</g>
<g id="#51ad92ff">
<path fill="#51ad92" opacity="1.00" d=" M 162.25 18.03 C 162.69 13.92 161.60 9.84 161.54 5.73 C 172.41 8.50 182.90 13.14 192.01 19.72 C 188.75 21.16 185.17 22.14 182.33 24.38 C 179.96 26.59 178.81 30.43 180.40 33.40 C 182.16 36.92 185.54 39.16 188.56 41.49 C 201.69 51.00 212.23 63.87 219.76 78.17 C 225.58 89.16 228.73 101.32 230.95 113.48 C 231.99 121.45 231.86 129.57 231.07 137.55 C 227.67 158.78 218.96 179.43 204.48 195.49 C 201.48 199.12 197.15 203.55 199.02 208.67 C 200.89 214.09 207.22 215.00 211.84 216.98 C 203.98 224.60 195.08 231.32 185.16 236.03 C 185.31 231.18 186.78 225.15 182.54 221.52 C 178.22 217.43 172.14 220.49 167.56 222.43 C 161.61 225.14 155.45 227.54 148.96 228.58 C 139.05 230.12 129.05 232.37 118.97 231.20 C 108.10 229.91 97.16 228.12 86.98 223.93 C 60.42 213.45 38.45 191.84 27.82 165.31 C 26.05 160.96 25.02 156.30 22.78 152.15 C 20.91 148.63 16.24 146.38 12.48 148.25 C 9.20 149.91 6.70 152.68 4.05 155.15 C 2.98 150.57 2.03 145.94 0.00 141.66 L 0.00 135.57 C 2.41 139.65 3.34 144.27 4.53 148.79 C 4.83 148.95 5.44 149.27 5.74 149.43 C 9.95 147.67 14.39 144.14 19.17 146.25 C 24.46 148.00 26.28 153.79 27.85 158.54 C 35.79 183.78 54.39 205.38 77.94 217.35 C 88.54 222.78 100.05 226.55 111.86 228.12 C 118.55 228.91 125.31 228.67 132.03 228.63 C 145.15 228.53 157.82 224.35 169.71 219.11 C 173.86 217.24 179.11 216.20 183.06 219.12 C 187.36 221.95 187.81 227.49 188.83 232.06 C 196.32 228.23 203.19 223.22 208.98 217.11 C 204.42 215.94 199.21 214.22 197.36 209.41 C 194.83 204.42 198.90 199.61 202.03 196.06 C 219.55 177.24 229.41 151.69 229.51 126.01 C 229.57 102.66 221.63 79.24 206.83 61.11 C 201.29 54.40 195.10 48.18 188.10 43.00 C 185.24 40.83 182.19 38.80 179.97 35.93 C 177.90 33.42 177.91 29.86 178.65 26.86 C 180.38 23.30 183.97 21.23 187.04 18.95 C 180.06 13.56 171.69 10.44 163.29 8.03 C 163.94 11.05 165.01 14.14 164.47 17.28 C 163.30 21.87 158.94 25.83 154.02 25.54 C 147.57 25.39 141.48 22.63 135.01 22.50 C 127.73 22.34 120.43 22.19 113.16 22.67 C 91.58 25.49 70.66 34.76 54.88 49.87 C 37.26 66.01 25.89 88.55 22.74 112.17 C 22.37 115.54 22.36 118.99 21.34 122.26 C 19.65 127.42 13.56 130.83 8.31 129.11 C 4.90 127.89 2.31 125.19 0.00 122.51 L 0.00 120.71 C 3.48 123.71 6.91 128.10 12.02 127.65 C 15.64 127.73 18.77 125.03 19.73 121.63 C 21.53 115.69 21.04 109.35 22.50 103.33 C 27.19 83.09 37.58 64.04 52.80 49.80 C 67.51 35.02 87.11 25.69 107.47 21.82 C 117.01 20.14 126.77 20.12 136.40 20.83 C 142.11 21.19 147.55 23.14 153.20 23.89 C 157.09 24.55 161.37 21.91 162.25 18.03 Z" />
<path fill="#51ad92" opacity="1.00" d=" M 65.82 61.11 C 66.00 59.76 66.76 58.97 68.10 58.73 C 71.71 58.23 75.37 58.54 79.00 58.49 C 113.02 58.51 147.04 58.49 181.05 58.49 C 182.74 58.44 185.41 58.85 185.43 61.01 C 185.78 68.02 185.45 75.05 185.59 82.07 C 185.49 83.91 185.88 87.01 183.44 87.40 C 169.72 88.31 155.83 86.48 142.17 88.40 C 140.53 101.31 142.22 114.42 141.33 127.38 C 140.92 129.82 138.00 129.91 136.07 130.29 C 130.38 130.64 124.66 130.41 118.96 130.44 C 116.10 130.29 112.82 130.28 110.51 128.37 C 108.80 124.85 109.80 120.76 109.56 116.99 C 109.30 107.18 110.08 97.32 109.14 87.53 C 94.93 87.67 80.71 87.50 66.50 87.62 C 65.02 82.54 65.69 77.21 65.56 72.00 C 65.64 68.37 65.28 64.71 65.82 61.11 Z" />
<path fill="#51ad92" opacity="1.00" d=" M 47.46 123.34 C 49.31 118.47 54.73 116.31 59.50 115.30 C 57.80 117.60 55.65 120.03 56.17 123.14 C 57.47 125.29 60.01 126.19 62.21 127.17 C 67.98 129.26 73.95 130.95 80.07 131.62 C 88.68 132.80 97.25 134.69 105.98 134.60 C 119.33 134.71 132.68 134.73 146.03 134.59 C 155.66 134.57 165.08 132.31 174.61 131.19 C 182.21 129.77 189.97 127.85 196.37 123.28 C 195.47 120.43 194.11 117.75 192.32 115.35 C 197.65 116.09 203.71 119.12 204.90 124.83 C 203.78 130.10 198.34 132.57 193.79 134.32 C 183.78 137.78 173.32 140.06 162.77 140.90 C 155.87 141.90 148.37 140.59 142.13 144.41 C 142.58 162.94 142.21 181.49 142.34 200.03 C 142.61 202.60 140.60 205.31 137.90 205.28 C 132.27 205.49 126.63 205.20 121.00 205.34 C 117.32 205.28 113.39 205.85 109.99 204.08 C 109.51 202.46 109.56 200.75 109.52 199.08 C 109.61 181.69 109.56 164.29 109.57 146.90 C 110.03 144.62 108.00 142.79 105.86 142.60 C 97.03 141.27 88.06 141.08 79.23 139.81 C 70.09 137.96 60.69 136.10 52.55 131.34 C 49.75 129.66 46.43 127.05 47.46 123.34 Z" />
</g>
<g id="#ffffffff">
<path fill="#ffffff" opacity="1.00" d=" M 163.29 8.03 C 171.69 10.44 180.06 13.56 187.04 18.95 C 183.97 21.23 180.38 23.30 178.65 26.86 C 177.91 29.86 177.90 33.42 179.97 35.93 C 182.19 38.80 185.24 40.83 188.10 43.00 C 195.10 48.18 201.29 54.40 206.83 61.11 C 221.63 79.24 229.57 102.66 229.51 126.01 C 229.41 151.69 219.55 177.24 202.03 196.06 C 198.90 199.61 194.83 204.42 197.36 209.41 C 199.21 214.22 204.42 215.94 208.98 217.11 C 203.19 223.22 196.32 228.23 188.83 232.06 C 187.81 227.49 187.36 221.95 183.06 219.12 C 179.11 216.20 173.86 217.24 169.71 219.11 C 157.82 224.35 145.15 228.53 132.03 228.63 C 125.31 228.67 118.55 228.91 111.86 228.12 C 100.05 226.55 88.54 222.78 77.94 217.35 C 54.39 205.38 35.79 183.78 27.85 158.54 C 26.28 153.79 24.46 148.00 19.17 146.25 C 14.39 144.14 9.95 147.67 5.74 149.43 C 5.44 149.27 4.83 148.95 4.53 148.79 C 3.34 144.27 2.41 139.65 0.00 135.57 L 0.00 122.51 C 2.31 125.19 4.90 127.89 8.31 129.11 C 13.56 130.83 19.65 127.42 21.34 122.26 C 22.36 118.99 22.37 115.54 22.74 112.17 C 25.89 88.55 37.26 66.01 54.88 49.87 C 70.66 34.76 91.58 25.49 113.16 22.67 C 120.43 22.19 127.73 22.34 135.01 22.50 C 141.48 22.63 147.57 25.39 154.02 25.54 C 158.94 25.83 163.30 21.87 164.47 17.28 C 165.01 14.14 163.94 11.05 163.29 8.03 M 65.82 61.11 C 65.28 64.71 65.64 68.37 65.56 72.00 C 65.69 77.21 65.02 82.54 66.50 87.62 C 80.71 87.50 94.93 87.67 109.14 87.53 C 110.08 97.32 109.30 107.18 109.56 116.99 C 109.80 120.76 108.80 124.85 110.51 128.37 C 112.82 130.28 116.10 130.29 118.96 130.44 C 124.66 130.41 130.38 130.64 136.07 130.29 C 138.00 129.91 140.92 129.82 141.33 127.38 C 142.22 114.42 140.53 101.31 142.17 88.40 C 155.83 86.48 169.72 88.31 183.44 87.40 C 185.88 87.01 185.49 83.91 185.59 82.07 C 185.45 75.05 185.78 68.02 185.43 61.01 C 185.41 58.85 182.74 58.44 181.05 58.49 C 147.04 58.49 113.02 58.51 79.00 58.49 C 75.37 58.54 71.71 58.23 68.10 58.73 C 66.76 58.97 66.00 59.76 65.82 61.11 M 47.46 123.34 C 46.43 127.05 49.75 129.66 52.55 131.34 C 60.69 136.10 70.09 137.96 79.23 139.81 C 88.06 141.08 97.03 141.27 105.86 142.60 C 108.00 142.79 110.03 144.62 109.57 146.90 C 109.56 164.29 109.61 181.69 109.52 199.08 C 109.56 200.75 109.51 202.46 109.99 204.08 C 113.39 205.85 117.32 205.28 121.00 205.34 C 126.63 205.20 132.27 205.49 137.90 205.28 C 140.60 205.31 142.61 202.60 142.34 200.03 C 142.21 181.49 142.58 162.94 142.13 144.41 C 148.37 140.59 155.87 141.90 162.77 140.90 C 173.32 140.06 183.78 137.78 193.79 134.32 C 198.34 132.57 203.78 130.10 204.90 124.83 C 203.71 119.12 197.65 116.09 192.32 115.35 C 194.11 117.75 195.47 120.43 196.37 123.28 C 189.97 127.85 182.21 129.77 174.61 131.19 C 165.08 132.31 155.66 134.57 146.03 134.59 C 132.68 134.73 119.33 134.71 105.98 134.60 C 97.25 134.69 88.68 132.80 80.07 131.62 C 73.95 130.95 67.98 129.26 62.21 127.17 C 60.01 126.19 57.47 125.29 56.17 123.14 C 55.65 120.03 57.80 117.60 59.50 115.30 C 54.73 116.31 49.31 118.47 47.46 123.34 Z" />
</g>
</svg>
