<?xml version="1.0" encoding="UTF-8" ?>
<!DOCTYPE svg PUBLIC "-//W3C//DTD SVG 1.1//EN" "http://www.w3.org/Graphics/SVG/1.1/DTD/svg11.dtd">
<svg width="250pt" height="250pt" viewBox="0 0 250 250" version="1.1" xmlns="http://www.w3.org/2000/svg">
<g id="#a8ebeeff">
<path fill="#a8ebee" opacity="1.00" d=" M 108.88 48.86 C 113.48 47.34 118.01 45.01 122.99 45.23 C 127.61 44.93 131.91 46.82 136.31 47.91 C 141.46 49.25 146.82 49.35 152.03 50.34 C 177.57 54.56 202.22 65.15 222.04 81.93 C 231.71 90.10 240.44 99.33 248.74 108.85 C 245.67 111.06 242.57 113.24 239.37 115.27 C 237.41 116.63 234.89 117.91 234.61 120.57 C 233.55 126.25 231.37 131.99 226.88 135.86 C 220.60 141.15 212.25 142.97 204.24 143.43 C 205.39 137.69 206.89 131.98 206.96 126.08 C 201.45 123.35 195.41 125.52 189.86 126.91 C 184.20 128.79 178.22 131.03 174.22 135.67 C 175.71 137.53 177.25 139.41 178.22 141.62 C 179.18 145.31 178.25 149.17 178.81 152.90 C 179.60 154.99 181.34 156.46 182.89 157.98 C 186.17 156.52 189.12 154.46 191.96 152.28 C 194.82 156.92 195.11 162.42 195.36 167.72 C 196.87 169.08 198.40 170.41 199.88 171.80 C 196.30 174.52 192.45 177.44 190.75 181.77 C 188.62 186.60 189.56 192.03 190.61 197.00 C 186.11 195.23 181.24 192.69 176.31 194.29 C 170.35 195.72 166.63 201.07 163.65 206.02 C 158.41 195.27 152.96 184.44 144.85 175.51 C 143.60 178.21 142.63 181.22 140.29 183.21 C 138.15 185.05 135.70 186.47 133.27 187.90 C 133.66 191.35 135.58 195.22 133.31 198.40 C 130.47 203.02 124.79 204.59 119.77 205.43 C 112.54 205.93 105.27 205.91 98.02 205.58 C 98.99 200.65 101.04 196.04 102.64 191.30 C 104.46 186.33 105.90 181.22 108.20 176.44 C 111.74 176.49 115.27 176.45 118.81 176.51 C 118.13 184.56 113.44 191.57 111.97 199.47 C 114.67 199.47 117.46 199.31 119.90 198.03 C 121.14 197.33 123.01 196.70 122.68 194.92 C 122.46 192.36 121.42 189.95 121.19 187.39 C 124.88 184.52 130.19 183.02 131.61 178.03 C 130.72 176.68 129.70 175.06 127.81 175.37 C 119.33 175.24 110.84 175.48 102.35 175.33 C 101.40 177.87 100.63 180.67 98.58 182.58 C 96.34 184.68 93.68 186.25 91.14 187.96 C 91.56 191.13 92.18 194.41 91.43 197.57 C 89.52 202.08 84.38 203.81 80.01 204.94 C 71.96 206.33 63.71 205.74 55.58 205.61 C 58.46 195.77 62.15 186.16 65.68 176.54 C 69.38 176.45 73.09 176.44 76.79 176.54 C 75.52 184.49 71.18 191.56 69.74 199.48 C 73.84 199.63 78.35 198.66 80.91 195.15 C 79.98 192.77 79.18 190.34 78.36 187.92 C 81.35 185.13 85.44 183.84 88.19 180.81 C 89.03 179.12 89.24 175.57 86.67 175.45 C 77.55 175.12 68.42 175.55 59.29 175.31 C 53.81 184.32 49.18 193.83 43.70 202.83 C 41.62 206.58 36.92 205.57 33.38 205.70 C 33.19 199.24 33.45 192.77 33.05 186.31 C 27.08 191.43 25.20 199.93 19.08 204.92 C 16.38 206.25 13.15 205.48 10.24 205.72 C 10.40 195.64 11.88 185.65 12.71 175.60 C 8.49 175.07 4.22 175.51 0.00 174.92 L 0.00 173.63 C 1.54 171.25 3.19 168.95 4.67 166.53 C 9.93 166.49 15.25 166.09 20.49 166.73 C 23.06 168.01 24.89 171.08 24.10 173.96 C 23.41 177.72 23.32 181.55 23.34 185.36 C 27.63 180.13 30.39 173.84 34.57 168.54 C 36.70 165.61 40.63 166.62 43.73 166.37 C 44.88 172.66 43.92 179.08 44.42 185.43 C 48.64 179.44 51.36 172.58 55.29 166.41 C 81.86 166.44 108.44 166.49 135.01 166.38 C 134.18 165.07 133.16 163.87 131.90 162.95 C 125.06 157.75 117.54 153.43 109.45 150.48 C 95.17 144.40 80.03 140.53 65.97 133.87 C 47.17 125.25 29.81 113.45 14.92 99.08 C 11.82 96.22 8.45 93.61 5.85 90.25 C 27.46 103.45 50.11 115.09 73.96 123.71 C 74.37 123.30 75.18 122.47 75.59 122.05 C 77.06 126.27 82.23 126.09 85.81 127.18 C 84.68 128.30 83.11 128.89 81.58 128.17 C 64.64 122.70 48.33 115.42 32.52 107.28 C 28.25 105.13 24.29 102.35 19.72 100.84 C 26.26 108.24 34.57 113.85 42.66 119.42 C 63.12 132.93 86.80 139.97 109.45 148.80 C 125.24 154.66 139.22 165.17 149.42 178.55 C 155.28 185.75 159.50 194.02 163.84 202.16 C 166.62 198.89 169.25 195.13 173.37 193.46 C 178.18 191.34 183.55 192.74 188.41 193.92 C 188.51 189.45 187.90 184.74 189.75 180.52 C 191.09 177.08 193.80 174.45 196.40 171.93 C 191.85 167.17 195.45 159.94 191.41 154.97 C 188.70 156.77 185.84 158.33 182.93 159.80 C 180.89 158.02 178.50 156.28 177.71 153.56 C 177.21 150.09 177.97 146.54 177.31 143.08 C 176.11 140.27 174.09 137.93 172.06 135.70 C 173.48 132.98 176.32 131.53 178.83 129.98 C 186.43 125.75 195.13 122.85 203.93 123.56 C 205.57 123.65 207.40 124.10 208.47 125.46 C 208.68 130.96 206.69 136.23 206.22 141.67 C 213.28 141.84 220.43 139.44 225.88 134.92 C 230.53 130.97 232.63 124.99 233.58 119.13 C 233.72 116.85 235.86 115.73 237.52 114.59 C 240.47 112.74 243.38 110.83 246.21 108.80 C 243.78 104.99 240.54 101.81 237.44 98.56 C 226.74 87.40 214.95 77.11 201.52 69.34 C 186.61 60.54 169.91 55.09 152.91 52.05 C 146.57 50.90 140.04 50.79 133.86 48.89 C 130.91 48.08 128.03 46.97 124.99 46.50 C 121.45 45.96 118.06 47.38 114.76 48.46 C 104.25 52.12 93.49 55.28 82.39 56.42 C 75.92 56.85 69.43 56.41 62.96 56.58 C 66.38 63.27 72.32 68.09 76.84 73.97 C 75.12 75.87 73.37 77.73 71.62 79.61 C 61.56 76.85 51.84 72.93 42.43 68.47 C 38.03 66.44 33.97 63.72 29.41 62.06 C 31.01 64.27 32.87 66.29 34.94 68.09 C 44.29 76.21 54.81 82.88 65.83 88.49 C 64.87 92.75 62.89 96.66 61.33 100.71 C 45.03 95.47 29.83 87.34 14.91 79.05 C 13.85 78.53 12.78 78.06 11.68 77.62 C 13.21 80.25 15.34 82.45 17.69 84.37 C 35.32 99.56 55.93 112.17 78.80 117.40 C 77.92 118.65 77.09 119.94 76.21 121.19 C 76.34 120.61 76.60 119.45 76.72 118.87 C 60.01 113.91 44.07 106.29 29.99 95.97 C 19.43 88.12 9.18 79.52 1.14 69.02 C 20.16 80.25 39.41 91.41 60.30 98.86 C 61.82 95.83 63.37 92.75 63.95 89.37 C 47.72 80.68 31.93 70.09 21.14 54.86 C 24.53 56.76 27.80 58.85 31.16 60.79 C 43.70 68.15 57.31 73.46 71.12 77.88 C 72.35 76.58 73.59 75.28 74.83 73.98 C 69.36 67.60 63.83 61.24 59.09 54.27 C 75.81 57.19 92.96 54.24 108.88 48.86 M 5.32 167.30 C 3.74 169.42 2.20 171.67 1.83 174.36 C 5.74 174.68 9.67 174.55 13.59 174.47 C 12.96 184.64 11.30 194.75 11.18 204.96 C 13.54 205.17 15.96 205.12 18.22 204.38 C 20.51 203.28 21.63 200.84 23.02 198.87 C 26.41 193.17 30.35 187.81 33.59 182.02 C 34.09 189.63 33.30 197.28 34.27 204.86 C 37.71 205.53 41.76 204.86 43.47 201.43 C 48.62 192.54 53.48 183.48 58.47 174.51 C 67.63 174.66 76.78 174.51 85.93 174.56 C 87.49 174.29 88.48 175.54 89.55 176.42 C 89.35 178.15 89.97 180.24 88.56 181.59 C 86.06 184.77 81.66 185.57 79.20 188.78 C 80.43 191.19 82.53 194.20 80.90 196.89 C 77.61 200.12 72.57 200.35 68.21 200.48 C 70.21 192.60 73.92 185.28 75.80 177.38 C 72.76 177.26 69.73 177.32 66.69 177.22 C 64.64 180.73 63.68 184.71 62.31 188.51 C 60.58 193.97 57.95 199.18 56.98 204.86 C 64.00 205.76 71.09 205.18 78.10 204.41 C 82.85 203.58 87.95 201.70 90.52 197.34 C 92.08 194.09 90.53 190.60 89.48 187.47 C 93.80 184.93 99.71 182.69 100.57 177.08 C 100.90 176.17 100.61 174.20 102.16 174.51 C 111.04 174.68 119.92 174.45 128.79 174.60 C 132.33 174.54 132.26 179.08 131.24 181.46 C 129.00 184.64 124.40 185.22 122.16 188.21 C 122.53 191.03 123.82 193.68 123.55 196.58 C 120.08 199.98 114.99 200.72 110.33 200.26 C 112.66 192.56 116.52 185.27 117.85 177.33 C 114.85 177.25 111.85 177.29 108.85 177.36 C 105.13 186.30 101.98 195.53 99.03 204.76 C 106.32 205.86 113.70 205.10 120.99 204.37 C 125.59 203.22 131.16 201.67 133.11 196.82 C 134.45 193.75 132.53 190.54 132.27 187.42 C 135.64 185.16 139.74 183.50 141.87 179.83 C 142.96 177.84 144.34 175.46 143.11 173.20 C 141.78 169.48 137.88 167.15 134.00 167.33 C 108.99 167.17 83.97 167.36 58.96 167.24 C 57.76 167.43 55.86 166.80 55.26 168.26 C 51.15 175.44 47.33 182.78 43.40 190.05 C 43.34 182.53 43.75 174.98 43.22 167.47 C 40.18 166.97 36.64 166.87 34.85 169.87 C 30.05 176.65 25.78 183.83 21.43 190.92 C 21.91 185.27 22.56 179.62 23.30 174.00 C 24.10 171.47 22.53 168.68 20.25 167.55 C 15.31 166.93 10.29 167.38 5.32 167.30 Z" />
<path fill="#a8ebee" opacity="1.00" d=" M 105.73 59.93 C 110.74 57.64 115.82 55.43 121.12 53.90 C 123.15 53.25 125.07 54.48 126.97 55.01 C 125.15 58.11 123.48 61.36 122.84 64.95 C 125.91 62.37 128.49 59.00 132.29 57.45 C 135.02 57.11 137.65 58.25 140.24 58.93 C 135.50 61.32 130.26 63.56 127.21 68.15 C 124.78 71.38 124.96 75.71 125.69 79.48 C 128.34 89.47 136.63 97.08 145.90 101.08 C 141.20 93.48 136.00 85.26 136.60 75.93 C 136.85 70.67 141.31 67.09 145.33 64.38 C 148.76 62.27 152.44 59.38 156.73 60.48 C 182.70 64.70 206.40 78.67 224.79 97.20 C 227.82 100.38 231.07 103.45 233.17 107.36 C 227.11 107.38 221.05 107.32 215.00 107.29 C 210.90 107.55 208.06 104.11 204.89 102.09 C 205.54 104.77 206.28 107.43 206.94 110.11 C 205.73 109.83 204.52 109.57 203.30 109.32 C 197.64 107.04 191.96 104.65 185.90 103.66 C 173.03 102.24 159.81 104.31 148.01 109.65 C 156.96 107.93 165.98 105.95 175.16 106.37 C 164.70 109.89 154.65 114.89 146.10 121.94 C 156.66 117.89 166.67 111.92 177.95 110.12 C 171.43 114.08 164.17 117.64 159.61 123.99 C 158.46 125.16 157.28 126.29 156.06 127.39 C 154.47 128.10 152.87 128.78 151.29 129.50 C 145.39 130.91 140.98 135.30 135.66 137.92 C 137.56 133.38 141.05 129.84 143.88 125.90 C 142.33 126.36 140.78 126.83 139.20 127.18 C 134.29 126.93 130.28 130.95 126.01 132.93 C 127.52 122.45 134.60 114.07 140.12 105.42 C 134.11 109.12 128.33 113.31 123.59 118.59 C 119.10 123.44 115.87 129.27 112.91 135.14 C 114.52 129.65 116.15 124.11 119.05 119.14 C 121.54 114.53 125.20 110.72 127.95 106.28 C 121.36 104.63 114.46 105.32 107.98 107.09 C 102.44 108.50 97.39 111.27 91.96 113.00 C 96.87 106.86 104.46 103.84 111.82 101.80 C 118.40 99.83 125.29 99.73 132.10 99.57 C 130.48 97.52 127.52 98.06 125.24 97.49 C 111.61 94.40 97.17 94.62 83.75 98.63 C 79.51 99.87 75.50 101.75 71.29 103.08 C 72.26 100.59 73.29 98.12 74.51 95.74 C 81.49 93.19 88.78 91.79 96.20 91.40 C 90.90 88.62 84.85 88.18 78.98 87.80 C 80.60 85.18 82.82 83.02 85.10 80.97 C 90.91 84.49 96.53 88.43 102.91 90.93 C 110.91 86.21 117.44 78.99 121.15 70.45 C 119.92 71.21 118.69 71.98 117.45 72.72 C 111.70 72.60 106.06 75.36 100.33 73.78 C 94.81 72.79 90.12 69.12 84.45 68.73 C 82.60 67.37 81.06 65.65 79.62 63.88 C 85.39 63.88 91.42 62.60 96.95 64.84 C 103.80 67.12 111.07 68.18 118.29 67.44 C 114.37 64.49 109.63 62.91 105.73 59.93 M 147.12 84.97 C 152.19 83.92 156.96 80.87 162.29 81.76 C 162.35 83.64 162.27 85.51 162.10 87.39 C 167.75 87.66 172.92 90.21 177.31 93.64 C 180.95 96.58 185.55 93.58 188.87 91.56 C 190.99 92.47 193.51 94.42 195.82 92.94 C 199.13 91.25 199.57 87.13 199.25 83.82 C 198.83 84.18 197.98 84.90 197.56 85.26 C 195.36 84.47 193.11 83.85 190.94 83.02 C 185.28 80.63 181.14 75.75 175.55 73.25 L 175.61 74.27 C 174.12 72.71 172.53 70.45 170.03 71.26 C 161.18 73.00 152.83 77.93 147.12 84.97 Z" />
<path fill="#a8ebee" opacity="1.00" d=" M 167.11 141.10 C 168.64 142.42 170.24 143.76 171.24 145.56 C 171.89 149.00 171.10 152.53 171.59 155.99 C 172.41 157.77 173.55 159.38 174.65 161.00 C 172.72 160.55 170.38 160.70 169.03 158.98 C 165.37 153.81 165.88 146.99 167.11 141.10 Z" />
</g>
<g id="#000000ff">
<path fill="#000000" opacity="1.00" d=" M 114.76 48.46 C 118.06 47.38 121.45 45.96 124.99 46.50 C 128.03 46.97 130.91 48.08 133.86 48.89 C 140.04 50.79 146.57 50.90 152.91 52.05 C 169.91 55.09 186.61 60.54 201.52 69.34 C 214.95 77.11 226.74 87.40 237.44 98.56 C 240.54 101.81 243.78 104.99 246.21 108.80 C 243.38 110.83 240.47 112.74 237.52 114.59 C 235.86 115.73 233.72 116.85 233.58 119.13 C 232.63 124.99 230.53 130.97 225.88 134.92 C 220.43 139.44 213.28 141.84 206.22 141.67 C 206.69 136.23 208.68 130.96 208.47 125.46 C 207.40 124.10 205.57 123.65 203.93 123.56 C 195.13 122.85 186.43 125.75 178.83 129.98 C 176.32 131.53 173.48 132.98 172.06 135.70 C 174.09 137.93 176.11 140.27 177.31 143.08 C 177.97 146.54 177.21 150.09 177.71 153.56 C 178.50 156.28 180.89 158.02 182.93 159.80 C 185.84 158.33 188.70 156.77 191.41 154.97 C 195.45 159.94 191.85 167.17 196.40 171.93 C 193.80 174.45 191.09 177.08 189.75 180.52 C 187.90 184.74 188.51 189.45 188.41 193.92 C 183.55 192.74 178.18 191.34 173.37 193.46 C 169.25 195.13 166.62 198.89 163.84 202.16 C 159.50 194.02 155.28 185.75 149.42 178.55 C 139.22 165.17 125.24 154.66 109.45 148.80 C 86.80 139.97 63.12 132.93 42.66 119.42 C 34.57 113.85 26.26 108.24 19.72 100.84 C 24.29 102.35 28.25 105.13 32.52 107.28 C 48.33 115.42 64.64 122.70 81.58 128.17 C 83.11 128.89 84.68 128.30 85.81 127.18 C 94.10 118.92 104.67 112.92 115.99 109.99 C 109.91 116.98 103.36 124.23 101.01 133.44 C 104.73 134.63 108.41 135.97 112.25 136.78 C 112.41 136.37 112.74 135.55 112.91 135.14 C 115.87 129.27 119.10 123.44 123.59 118.59 C 128.33 113.31 134.11 109.12 140.12 105.42 C 134.60 114.07 127.52 122.45 126.01 132.93 C 130.28 130.95 134.29 126.93 139.20 127.18 C 134.55 132.35 129.47 137.79 127.93 144.80 C 131.01 146.84 133.65 149.72 137.24 150.88 C 139.95 142.64 145.10 135.48 151.29 129.50 C 152.87 128.78 154.47 128.10 156.06 127.39 C 150.91 134.86 147.77 143.86 148.12 153.00 C 148.47 156.65 147.05 161.14 149.98 163.99 C 156.25 171.04 161.57 178.85 166.50 186.88 C 169.57 185.52 172.46 183.23 175.97 183.31 C 177.78 183.26 179.57 183.43 181.37 183.58 C 182.39 179.85 183.54 176.13 185.24 172.64 C 182.62 170.47 179.41 169.06 176.02 168.66 C 172.95 168.43 170.12 169.89 167.27 170.82 C 162.72 164.09 158.71 156.34 159.21 147.97 C 158.99 138.96 164.81 130.88 171.98 125.95 C 182.33 118.76 195.32 114.79 207.92 116.51 C 213.46 119.99 217.99 124.91 223.76 128.05 C 226.53 125.02 228.25 121.19 228.53 117.09 C 221.35 114.71 214.17 112.35 206.94 110.11 C 206.28 107.43 205.54 104.77 204.89 102.09 C 208.06 104.11 210.90 107.55 215.00 107.29 C 221.05 107.32 227.11 107.38 233.17 107.36 C 231.07 103.45 227.82 100.38 224.79 97.20 C 206.40 78.67 182.70 64.70 156.73 60.48 C 152.44 59.38 148.76 62.27 145.33 64.38 C 141.31 67.09 136.85 70.67 136.60 75.93 C 136.00 85.26 141.20 93.48 145.90 101.08 C 136.63 97.08 128.34 89.47 125.69 79.48 C 124.96 75.71 124.78 71.38 127.21 68.15 C 130.26 63.56 135.50 61.32 140.24 58.93 C 137.65 58.25 135.02 57.11 132.29 57.45 C 128.49 59.00 125.91 62.37 122.84 64.95 C 123.48 61.36 125.15 58.11 126.97 55.01 C 125.07 54.48 123.15 53.25 121.12 53.90 C 115.82 55.43 110.74 57.64 105.73 59.93 C 109.63 62.91 114.37 64.49 118.29 67.44 C 111.07 68.18 103.80 67.12 96.95 64.84 C 91.42 62.60 85.39 63.88 79.62 63.88 C 81.06 65.65 82.60 67.37 84.45 68.73 C 90.18 73.42 96.47 78.41 104.06 79.30 C 109.01 78.30 113.35 75.53 117.45 72.72 C 118.69 71.98 119.92 71.21 121.15 70.45 C 117.44 78.99 110.91 86.21 102.91 90.93 C 96.53 88.43 90.91 84.49 85.10 80.97 C 82.82 83.02 80.60 85.18 78.98 87.80 C 77.39 90.38 75.91 93.04 74.51 95.74 C 73.29 98.12 72.26 100.59 71.29 103.08 C 75.50 101.75 79.51 99.87 83.75 98.63 C 97.17 94.62 111.61 94.40 125.24 97.49 C 108.04 97.31 89.11 102.67 78.80 117.40 C 55.93 112.17 35.32 99.56 17.69 84.37 C 15.34 82.45 13.21 80.25 11.68 77.62 C 12.78 78.06 13.85 78.53 14.91 79.05 C 29.83 87.34 45.03 95.47 61.33 100.71 C 62.89 96.66 64.87 92.75 65.83 88.49 C 54.81 82.88 44.29 76.21 34.94 68.09 C 32.87 66.29 31.01 64.27 29.41 62.06 C 33.97 63.72 38.03 66.44 42.43 68.47 C 51.84 72.93 61.56 76.85 71.62 79.61 C 73.37 77.73 75.12 75.87 76.84 73.97 C 72.32 68.09 66.38 63.27 62.96 56.58 C 69.43 56.41 75.92 56.85 82.39 56.42 C 93.49 55.28 104.25 52.12 114.76 48.46 M 212.77 129.07 C 212.42 131.61 211.91 134.12 211.51 136.66 C 213.60 136.00 215.64 135.20 217.66 134.36 C 217.88 131.65 215.04 129.88 212.77 129.07 M 167.11 141.10 C 165.88 146.99 165.37 153.81 169.03 158.98 C 170.38 160.70 172.72 160.55 174.65 161.00 C 173.55 159.38 172.41 157.77 171.59 155.99 C 171.10 152.53 171.89 149.00 171.24 145.56 C 170.24 143.76 168.64 142.42 167.11 141.10 M 185.00 164.70 C 186.51 165.35 188.03 166.02 189.54 166.71 C 189.67 164.85 189.76 162.98 189.76 161.12 C 188.07 162.15 186.10 162.96 185.00 164.70 Z" />
<path fill="#000000" opacity="1.00" d=" M 147.12 84.97 C 152.83 77.93 161.18 73.00 170.03 71.26 C 172.53 70.45 174.12 72.71 175.61 74.27 C 179.67 78.86 183.48 84.03 189.01 86.96 C 191.91 88.53 195.41 87.65 197.56 85.26 C 197.98 84.90 198.83 84.18 199.25 83.82 C 199.57 87.13 199.13 91.25 195.82 92.94 C 193.51 94.42 190.99 92.47 188.87 91.56 C 185.55 93.58 180.95 96.58 177.31 93.64 C 172.92 90.21 167.75 87.66 162.10 87.39 C 162.27 85.51 162.35 83.64 162.29 81.76 C 156.96 80.87 152.19 83.92 147.12 84.97 M 167.24 84.22 C 168.85 84.51 170.45 84.90 172.01 85.39 C 173.06 83.78 174.82 83.50 176.60 83.38 C 176.06 81.22 174.15 79.81 172.56 78.41 C 169.37 77.84 167.64 81.60 167.24 84.22 Z" />
<path fill="#000000" opacity="1.00" d=" M 148.01 109.65 C 159.81 104.31 173.03 102.24 185.90 103.66 C 191.96 104.65 197.64 107.04 203.30 109.32 C 197.60 109.33 191.79 108.93 186.24 110.52 C 176.45 112.91 167.77 118.26 159.61 123.99 C 164.17 117.64 171.43 114.08 177.95 110.12 C 166.67 111.92 156.66 117.89 146.10 121.94 C 154.65 114.89 164.70 109.89 175.16 106.37 C 165.98 105.95 156.96 107.93 148.01 109.65 Z" />
<path fill="#000000" opacity="1.00" d=" M 5.32 167.30 C 10.29 167.38 15.31 166.93 20.25 167.55 C 22.53 168.68 24.10 171.47 23.30 174.00 C 22.56 179.62 21.91 185.27 21.43 190.92 C 25.78 183.83 30.05 176.65 34.85 169.87 C 36.64 166.87 40.18 166.97 43.22 167.47 C 43.75 174.98 43.34 182.53 43.40 190.05 C 47.33 182.78 51.15 175.44 55.26 168.26 C 55.86 166.80 57.76 167.43 58.96 167.24 C 83.97 167.36 108.99 167.17 134.00 167.33 C 137.88 167.15 141.78 169.48 143.11 173.20 C 144.34 175.46 142.96 177.84 141.87 179.83 C 139.74 183.50 135.64 185.16 132.27 187.42 C 132.53 190.54 134.45 193.75 133.11 196.82 C 131.16 201.67 125.59 203.22 120.99 204.37 C 113.70 205.10 106.32 205.86 99.03 204.76 C 101.98 195.53 105.13 186.30 108.85 177.36 C 111.85 177.29 114.85 177.25 117.85 177.33 C 116.52 185.27 112.66 192.56 110.33 200.26 C 114.99 200.72 120.08 199.98 123.55 196.58 C 123.82 193.68 122.53 191.03 122.16 188.21 C 124.40 185.22 129.00 184.64 131.24 181.46 C 132.26 179.08 132.33 174.54 128.79 174.60 C 119.92 174.45 111.04 174.68 102.16 174.51 C 100.61 174.20 100.90 176.17 100.57 177.08 C 99.71 182.69 93.80 184.93 89.48 187.47 C 90.53 190.60 92.08 194.09 90.52 197.34 C 87.95 201.70 82.85 203.58 78.10 204.41 C 71.09 205.18 64.00 205.76 56.98 204.86 C 57.95 199.18 60.58 193.97 62.31 188.51 C 63.68 184.71 64.64 180.73 66.69 177.22 C 69.73 177.32 72.76 177.26 75.80 177.38 C 73.92 185.28 70.21 192.60 68.21 200.48 C 72.57 200.35 77.61 200.12 80.90 196.89 C 82.53 194.20 80.43 191.19 79.20 188.78 C 81.66 185.57 86.06 184.77 88.56 181.59 C 89.97 180.24 89.35 178.15 89.55 176.42 C 88.48 175.54 87.49 174.29 85.93 174.56 C 76.78 174.51 67.63 174.66 58.47 174.51 C 53.48 183.48 48.62 192.54 43.47 201.43 C 41.76 204.86 37.71 205.53 34.27 204.86 C 33.30 197.28 34.09 189.63 33.59 182.02 C 30.35 187.81 26.41 193.17 23.02 198.87 C 21.63 200.84 20.51 203.28 18.22 204.38 C 15.96 205.12 13.54 205.17 11.18 204.96 C 11.30 194.75 12.96 184.64 13.59 174.47 C 9.67 174.55 5.74 174.68 1.83 174.36 C 2.20 171.67 3.74 169.42 5.32 167.30 Z" />
</g>
<g id="#ffffffff">
<path fill="#ffffff" opacity="1.00" d=" M 84.45 68.73 C 90.12 69.12 94.81 72.79 100.33 73.78 C 106.06 75.36 111.70 72.60 117.45 72.72 C 113.35 75.53 109.01 78.30 104.06 79.30 C 96.47 78.41 90.18 73.42 84.45 68.73 Z" />
<path fill="#ffffff" opacity="1.00" d=" M 175.55 73.25 C 181.14 75.75 185.28 80.63 190.94 83.02 C 193.11 83.85 195.36 84.47 197.56 85.26 C 195.41 87.65 191.91 88.53 189.01 86.96 C 183.48 84.03 179.67 78.86 175.61 74.27 L 175.55 73.25 Z" />
<path fill="#ffffff" opacity="1.00" d=" M 167.24 84.22 C 167.64 81.60 169.37 77.84 172.56 78.41 C 174.15 79.81 176.06 81.22 176.60 83.38 C 174.82 83.50 173.06 83.78 172.01 85.39 C 170.45 84.90 168.85 84.51 167.24 84.22 Z" />
<path fill="#ffffff" opacity="1.00" d=" M 74.51 95.74 C 75.91 93.04 77.39 90.38 78.98 87.80 C 84.85 88.18 90.90 88.62 96.20 91.40 C 88.78 91.79 81.49 93.19 74.51 95.74 Z" />
<path fill="#ffffff" opacity="1.00" d=" M 78.80 117.40 C 89.11 102.67 108.04 97.31 125.24 97.49 C 127.52 98.06 130.48 97.52 132.10 99.57 C 125.29 99.73 118.40 99.83 111.82 101.80 C 104.46 103.84 96.87 106.86 91.96 113.00 C 97.39 111.27 102.44 108.50 107.98 107.09 C 114.46 105.32 121.36 104.63 127.95 106.28 C 125.20 110.72 121.54 114.53 119.05 119.14 C 116.15 124.11 114.52 129.65 112.91 135.14 C 112.74 135.55 112.41 136.37 112.25 136.78 C 108.41 135.97 104.73 134.63 101.01 133.44 C 103.36 124.23 109.91 116.98 115.99 109.99 C 104.67 112.92 94.10 118.92 85.81 127.18 C 82.23 126.09 77.06 126.27 75.59 122.05 L 76.21 121.19 C 77.09 119.94 77.92 118.65 78.80 117.40 Z" />
<path fill="#ffffff" opacity="1.00" d=" M 159.61 123.99 C 167.77 118.26 176.45 112.91 186.24 110.52 C 191.79 108.93 197.60 109.33 203.30 109.32 C 204.52 109.57 205.73 109.83 206.94 110.11 C 214.17 112.35 221.35 114.71 228.53 117.09 C 228.25 121.19 226.53 125.02 223.76 128.05 C 217.99 124.91 213.46 119.99 207.92 116.51 C 195.32 114.79 182.33 118.76 171.98 125.95 C 164.81 130.88 158.99 138.96 159.21 147.97 C 158.71 156.34 162.72 164.09 167.27 170.82 C 170.12 169.89 172.95 168.43 176.02 168.66 C 179.41 169.06 182.62 170.47 185.24 172.64 C 183.54 176.13 182.39 179.85 181.37 183.58 C 179.57 183.43 177.78 183.26 175.97 183.31 C 172.46 183.23 169.57 185.52 166.50 186.88 C 161.57 178.85 156.25 171.04 149.98 163.99 C 147.05 161.14 148.47 156.65 148.12 153.00 C 147.77 143.86 150.91 134.86 156.06 127.39 C 157.28 126.29 158.46 125.16 159.61 123.99 Z" />
<path fill="#ffffff" opacity="1.00" d=" M 139.20 127.18 C 140.78 126.83 142.33 126.36 143.88 125.90 C 141.05 129.84 137.56 133.38 135.66 137.92 C 140.98 135.30 145.39 130.91 151.29 129.50 C 145.10 135.48 139.95 142.64 137.24 150.88 C 133.65 149.72 131.01 146.84 127.93 144.80 C 129.47 137.79 134.55 132.35 139.20 127.18 Z" />
<path fill="#ffffff" opacity="1.00" d=" M 212.77 129.07 C 215.04 129.88 217.88 131.65 217.66 134.36 C 215.64 135.20 213.60 136.00 211.51 136.66 C 211.91 134.12 212.42 131.61 212.77 129.07 Z" />
<path fill="#ffffff" opacity="1.00" d=" M 185.00 164.70 C 186.10 162.96 188.07 162.15 189.76 161.12 C 189.76 162.98 189.67 164.85 189.54 166.71 C 188.03 166.02 186.51 165.35 185.00 164.70 Z" />
</g>
</svg>
