<?xml version="1.0" encoding="UTF-8" ?>
<!DOCTYPE svg PUBLIC "-//W3C//DTD SVG 1.1//EN" "http://www.w3.org/Graphics/SVG/1.1/DTD/svg11.dtd">
<svg width="250pt" height="244pt" viewBox="0 0 250 244" version="1.1" xmlns="http://www.w3.org/2000/svg">
<g id="#ffffffff">
<path fill="#ffffff" opacity="1.00" d=" M 0.00 0.00 L 108.99 0.00 C 99.91 6.76 87.23 4.21 78.22 11.23 C 71.18 17.36 61.56 20.10 55.66 27.59 C 51.96 32.25 47.28 36.02 43.73 40.81 C 40.81 44.84 37.38 48.49 34.69 52.69 C 31.40 57.70 25.91 60.85 23.02 66.17 C 20.22 71.20 18.41 76.70 15.96 81.90 C 13.19 88.94 8.61 95.39 7.65 103.05 C 7.14 108.98 4.52 114.67 5.40 120.71 C 6.49 126.84 4.25 132.85 4.60 138.99 C 4.85 146.09 4.62 153.33 6.69 160.21 C 8.18 165.07 9.14 170.06 10.34 175.00 C 11.34 179.15 13.50 182.85 15.38 186.64 C 18.10 191.94 18.26 198.29 21.86 203.18 C 25.93 208.65 31.49 213.49 38.34 214.89 C 44.91 216.19 50.43 220.59 57.14 221.31 C 63.21 221.91 69.24 222.91 75.10 224.59 C 79.25 225.87 83.89 224.96 87.78 227.14 C 93.90 230.33 99.95 233.76 106.64 235.64 C 113.40 238.53 120.63 240.04 127.95 240.60 C 134.12 241.51 140.44 242.04 146.64 241.05 C 151.60 240.22 156.78 240.22 161.50 238.28 C 165.56 236.65 169.05 233.98 172.68 231.60 C 176.93 228.71 182.45 228.78 186.68 225.82 C 192.64 221.88 197.99 217.07 202.96 211.96 C 206.67 208.19 211.57 205.95 215.58 202.55 C 219.48 198.97 225.34 198.04 228.34 193.42 C 230.92 189.29 232.26 184.55 234.09 180.08 C 236.51 172.96 241.37 166.99 243.80 159.88 C 245.80 154.07 246.13 147.89 247.29 141.89 C 248.06 137.30 249.45 132.74 249.16 128.04 C 248.28 120.46 250.35 112.77 248.71 105.24 C 246.97 97.51 242.71 90.72 239.15 83.75 C 235.97 77.60 234.71 70.69 231.73 64.47 C 227.77 55.62 220.81 48.69 214.61 41.41 C 211.27 37.08 209.19 31.61 204.42 28.54 C 199.55 25.37 194.94 21.77 189.76 19.11 C 183.76 15.84 178.19 11.62 171.55 9.68 C 164.02 7.38 156.24 5.09 150.03 0.00 L 250.00 0.00 L 250.00 244.00 L 0.00 244.00 L 0.00 0.00 Z" />
</g>
<g id="#5b3913ff">
<path fill="#5b3913" opacity="1.00" d=" M 108.99 0.00 L 150.03 0.00 C 156.24 5.09 164.02 7.38 171.55 9.68 C 178.19 11.62 183.76 15.84 189.76 19.11 C 194.94 21.77 199.55 25.37 204.42 28.54 C 209.19 31.61 211.27 37.08 214.61 41.41 C 220.81 48.69 227.77 55.62 231.73 64.47 C 234.71 70.69 235.97 77.60 239.15 83.75 C 242.71 90.72 246.97 97.51 248.71 105.24 C 250.35 112.77 248.28 120.46 249.16 128.04 C 249.45 132.74 248.06 137.30 247.29 141.89 C 246.13 147.89 245.80 154.07 243.80 159.88 C 241.37 166.99 236.51 172.96 234.09 180.08 C 232.26 184.55 230.92 189.29 228.34 193.42 C 225.34 198.04 219.48 198.97 215.58 202.55 C 211.57 205.95 206.67 208.19 202.96 211.96 C 197.99 217.07 192.64 221.88 186.68 225.82 C 182.45 228.78 176.93 228.71 172.68 231.60 C 169.05 233.98 165.56 236.65 161.50 238.28 C 156.78 240.22 151.60 240.22 146.64 241.05 C 140.44 242.04 134.12 241.51 127.95 240.60 C 120.63 240.04 113.40 238.53 106.64 235.64 C 99.95 233.76 93.90 230.33 87.78 227.14 C 83.89 224.96 79.25 225.87 75.10 224.59 C 69.24 222.91 63.21 221.91 57.14 221.31 C 50.43 220.59 44.91 216.19 38.34 214.89 C 31.49 213.49 25.93 208.65 21.86 203.18 C 18.26 198.29 18.10 191.94 15.38 186.64 C 13.50 182.85 11.34 179.15 10.34 175.00 C 9.14 170.06 8.18 165.07 6.69 160.21 C 4.62 153.33 4.85 146.09 4.60 138.99 C 4.25 132.85 6.49 126.84 5.40 120.71 C 4.52 114.67 7.14 108.98 7.65 103.05 C 8.61 95.39 13.19 88.94 15.96 81.90 C 18.41 76.70 20.22 71.20 23.02 66.17 C 25.91 60.85 31.40 57.70 34.69 52.69 C 37.38 48.49 40.81 44.84 43.73 40.81 C 47.28 36.02 51.96 32.25 55.66 27.59 C 61.56 20.10 71.18 17.36 78.22 11.23 C 87.23 4.21 99.91 6.76 108.99 0.00 M 114.47 10.76 C 110.29 12.12 106.25 13.90 101.98 14.95 C 94.65 16.73 88.68 21.55 82.32 25.32 C 75.76 29.23 67.23 29.07 61.53 34.53 C 58.01 38.00 53.93 41.04 51.27 45.29 C 48.57 49.81 44.64 53.42 41.97 57.97 C 38.61 63.51 32.50 66.88 29.86 72.92 C 26.02 81.46 22.40 90.11 18.42 98.58 C 16.34 102.70 16.14 107.38 14.93 111.77 C 13.35 117.74 15.02 123.92 14.33 129.97 C 14.00 132.85 13.55 135.77 14.16 138.65 C 15.24 144.76 14.84 151.11 16.78 157.06 C 19.17 164.56 21.48 172.29 26.44 178.57 C 31.51 184.76 32.05 193.48 37.73 199.26 C 40.18 202.06 43.88 203.12 46.87 205.20 C 49.89 207.22 52.42 210.14 56.03 211.16 C 58.64 211.74 61.34 211.60 64.00 211.57 C 70.68 211.31 77.38 211.59 84.02 210.63 C 91.73 209.74 97.60 215.57 103.70 219.24 C 114.96 225.63 128.17 228.02 141.02 227.76 C 146.29 227.73 151.68 226.90 156.41 224.46 C 160.92 222.14 164.35 218.22 168.84 215.87 C 172.15 214.17 175.93 213.82 179.34 212.36 C 186.85 208.98 193.22 203.69 199.85 198.91 C 205.97 195.25 212.09 191.19 216.26 185.27 C 218.21 181.88 219.05 178.01 220.33 174.34 C 222.21 168.06 226.09 162.67 228.68 156.69 C 230.24 153.00 232.14 149.47 233.83 145.84 C 238.64 133.52 236.45 120.08 233.81 107.53 C 232.60 101.67 230.67 96.01 228.46 90.46 C 224.63 80.95 223.37 70.28 217.23 61.79 C 213.93 57.48 210.38 53.29 206.20 49.81 C 202.06 46.25 198.15 42.36 193.43 39.56 C 189.27 37.18 186.41 33.26 182.77 30.26 C 173.12 22.23 160.90 18.61 149.22 14.69 C 142.69 12.69 135.85 12.18 129.20 10.73 C 124.36 9.70 119.24 9.06 114.47 10.76 Z" />
<path fill="#5b3913" opacity="1.00" d=" M 189.53 54.25 C 189.93 53.79 190.73 52.89 191.13 52.44 C 192.19 53.38 193.26 54.33 194.32 55.28 C 197.62 54.60 200.94 54.03 204.24 53.39 C 205.27 55.67 206.13 58.03 206.90 60.40 C 208.32 62.07 210.74 63.46 210.45 65.96 C 210.49 67.98 210.00 69.95 209.48 71.88 C 208.73 74.57 207.82 77.21 206.87 79.84 C 205.80 82.84 204.74 85.85 203.80 88.89 C 202.69 92.08 201.53 95.24 200.30 98.38 C 199.43 100.56 198.54 102.74 197.76 104.96 C 196.38 108.72 195.13 112.53 193.84 116.32 C 189.23 127.77 186.94 139.95 183.10 151.65 C 181.32 156.64 180.91 161.95 180.01 167.14 C 179.50 169.74 178.79 172.29 178.04 174.83 C 176.12 177.83 174.14 180.79 172.48 183.94 C 171.33 183.70 170.19 183.45 169.04 183.20 C 168.53 183.65 168.03 184.11 167.53 184.57 C 165.64 184.44 163.75 184.37 161.86 184.34 C 161.56 184.02 160.95 183.37 160.65 183.05 C 159.98 182.34 159.31 181.64 158.64 180.93 C 156.18 180.81 153.71 180.75 151.27 180.33 C 149.80 178.64 148.42 176.88 147.14 175.04 C 146.69 173.04 146.35 171.01 145.80 169.03 C 144.45 164.61 141.33 161.13 138.26 157.82 C 136.68 155.30 135.30 152.66 134.06 149.96 C 132.64 146.20 131.27 142.42 129.97 138.62 C 129.12 136.34 128.20 134.08 127.29 131.83 C 127.04 131.23 126.54 130.03 126.29 129.43 C 125.29 127.23 124.23 125.06 123.24 122.86 C 121.32 118.55 119.10 114.39 116.75 110.32 C 114.70 115.35 113.21 120.57 111.80 125.81 C 110.31 130.72 108.81 135.63 107.60 140.62 C 107.27 141.86 106.93 143.09 106.59 144.33 C 106.00 146.47 105.44 148.61 104.88 150.76 C 104.53 152.09 104.19 153.41 103.83 154.74 C 103.14 157.37 102.44 159.99 101.82 162.63 L 101.61 163.59 C 100.76 167.35 99.95 171.14 98.81 174.84 C 97.84 176.49 96.90 178.16 96.01 179.86 C 94.84 182.09 93.82 184.40 92.73 186.67 C 92.56 186.88 92.23 187.30 92.06 187.51 C 89.79 186.68 87.49 185.83 85.09 185.46 C 83.93 187.77 83.21 190.25 82.46 192.71 C 76.49 190.34 69.90 190.36 64.01 187.70 C 58.30 184.47 57.63 177.44 56.16 171.72 C 55.29 167.43 54.29 163.16 53.04 158.96 C 51.42 148.23 49.90 137.50 48.33 126.77 C 48.18 125.65 48.03 124.54 47.87 123.42 C 47.81 122.84 47.69 121.67 47.63 121.08 C 46.81 110.89 46.12 100.69 45.29 90.49 C 45.38 86.58 45.21 82.67 45.14 78.77 C 45.26 75.43 45.12 72.10 45.23 68.76 C 45.70 67.34 46.16 65.92 46.61 64.49 C 48.56 63.30 50.41 61.92 51.86 60.13 C 52.69 59.18 53.46 58.18 54.23 57.19 C 54.73 57.48 55.72 58.08 56.21 58.38 C 56.71 59.56 57.20 60.74 57.69 61.93 C 59.65 66.69 61.36 71.55 63.20 76.36 C 62.86 74.00 62.60 71.64 62.40 69.27 C 63.04 69.31 64.32 69.37 64.95 69.40 C 64.53 66.14 64.06 62.87 63.20 59.70 C 63.04 59.12 62.73 57.98 62.58 57.41 C 63.23 56.96 64.54 56.06 65.19 55.61 C 66.98 57.65 68.65 59.79 70.16 62.05 C 71.36 63.79 72.70 65.43 74.08 67.02 C 74.36 68.61 74.61 70.19 74.86 71.78 C 74.86 75.20 74.67 78.62 74.63 82.04 C 75.43 96.65 76.95 111.23 77.99 125.83 C 81.41 121.24 82.61 115.55 84.24 110.18 C 85.50 106.31 87.34 102.67 88.74 98.86 C 89.65 95.10 90.32 91.28 91.34 87.54 C 92.25 84.41 93.27 81.30 94.16 78.16 C 94.46 77.12 94.73 76.07 94.98 75.02 C 96.00 70.80 97.44 66.57 100.18 63.13 C 101.62 61.32 103.13 59.58 104.51 57.73 C 104.97 57.14 105.43 56.55 105.89 55.96 C 106.92 56.86 107.94 57.76 108.97 58.67 C 111.72 57.60 115.09 54.55 117.82 57.13 C 120.34 58.93 122.95 60.69 126.02 61.40 C 128.33 63.93 130.62 66.49 132.58 69.31 C 136.73 77.33 137.81 86.71 143.26 94.12 C 144.20 95.76 145.09 97.42 146.01 99.07 C 150.09 107.32 154.25 115.55 157.65 124.12 C 158.42 122.91 159.22 121.73 159.88 120.46 C 160.39 119.37 160.84 118.25 161.23 117.11 C 161.86 114.75 162.21 112.33 162.84 109.97 C 163.33 108.27 163.91 106.60 164.46 104.92 C 165.32 102.35 166.21 99.79 167.19 97.27 C 168.26 94.52 169.46 91.82 170.50 89.05 C 171.75 85.76 172.97 82.46 174.24 79.18 C 174.70 78.08 175.15 76.98 175.58 75.87 C 176.15 74.37 176.67 72.85 177.20 71.34 C 178.23 68.45 179.34 65.60 180.52 62.78 C 181.37 62.20 182.23 61.63 183.07 61.02 C 185.39 58.93 187.43 56.55 189.53 54.25 Z" />
</g>
<g id="#f4cf67ff">
<path fill="#f4cf67" opacity="1.00" d=" M 114.47 10.76 C 119.24 9.06 124.36 9.70 129.20 10.73 C 135.85 12.18 142.69 12.69 149.22 14.69 C 160.90 18.61 173.12 22.23 182.77 30.26 C 186.41 33.26 189.27 37.18 193.43 39.56 C 198.15 42.36 202.06 46.25 206.20 49.81 C 210.38 53.29 213.93 57.48 217.23 61.79 C 223.37 70.28 224.63 80.95 228.46 90.46 C 230.67 96.01 232.60 101.67 233.81 107.53 C 236.45 120.08 238.64 133.52 233.83 145.84 C 232.14 149.47 230.24 153.00 228.68 156.69 C 226.09 162.67 222.21 168.06 220.33 174.34 C 219.05 178.01 218.21 181.88 216.26 185.27 C 212.09 191.19 205.97 195.25 199.85 198.91 C 193.22 203.69 186.85 208.98 179.34 212.36 C 175.93 213.82 172.15 214.17 168.84 215.87 C 164.35 218.22 160.92 222.14 156.41 224.46 C 151.68 226.90 146.29 227.73 141.02 227.76 C 128.17 228.02 114.96 225.63 103.70 219.24 C 97.60 215.57 91.73 209.74 84.02 210.63 C 77.38 211.59 70.68 211.31 64.00 211.57 C 61.34 211.60 58.64 211.74 56.03 211.16 C 52.42 210.14 49.89 207.22 46.87 205.20 C 43.88 203.12 40.18 202.06 37.73 199.26 C 32.05 193.48 31.51 184.76 26.44 178.57 C 21.48 172.29 19.17 164.56 16.78 157.06 C 14.84 151.11 15.24 144.76 14.16 138.65 C 13.55 135.77 14.00 132.85 14.33 129.97 C 15.02 123.92 13.35 117.74 14.93 111.77 C 16.14 107.38 16.34 102.70 18.42 98.58 C 22.40 90.11 26.02 81.46 29.86 72.92 C 32.50 66.88 38.61 63.51 41.97 57.97 C 44.64 53.42 48.57 49.81 51.27 45.29 C 53.93 41.04 58.01 38.00 61.53 34.53 C 67.23 29.07 75.76 29.23 82.32 25.32 C 88.68 21.55 94.65 16.73 101.98 14.95 C 106.25 13.90 110.29 12.12 114.47 10.76 M 117.96 24.58 C 111.58 25.04 104.89 24.18 98.87 26.86 C 92.94 29.48 86.53 30.55 80.36 32.39 C 74.65 34.06 69.87 37.70 65.18 41.22 C 51.82 50.11 43.52 64.53 36.81 78.73 C 33.69 85.57 28.43 91.49 27.08 99.07 C 25.48 107.45 25.77 116.13 23.41 124.39 C 21.36 131.39 20.45 138.74 21.25 146.02 C 21.77 152.14 24.79 157.61 26.65 163.37 C 28.23 167.83 29.15 172.85 32.69 176.28 C 36.78 180.68 42.47 183.08 46.83 187.15 C 50.04 190.61 52.71 194.81 57.18 196.79 C 66.37 201.83 77.09 199.58 87.00 199.11 C 92.12 198.64 96.55 201.61 100.34 204.66 C 105.48 208.85 111.73 211.21 117.31 214.69 C 120.99 216.81 124.68 219.54 129.11 219.61 C 133.09 219.73 137.06 219.35 141.03 219.05 C 149.42 218.59 156.71 213.99 164.59 211.58 C 174.56 208.48 183.67 202.31 189.66 193.68 C 195.82 184.64 205.48 178.62 211.15 169.19 C 216.38 160.48 220.86 151.17 223.19 141.24 C 225.15 133.32 224.71 125.09 224.63 117.00 C 224.52 110.36 222.30 104.05 220.04 97.89 C 217.81 91.88 217.17 85.09 213.00 79.95 C 211.08 77.63 209.69 74.92 209.48 71.88 C 210.00 69.95 210.49 67.98 210.45 65.96 C 210.74 63.46 208.32 62.07 206.90 60.40 C 206.13 58.03 205.27 55.67 204.24 53.39 C 200.62 52.51 196.93 51.43 194.06 48.93 C 188.27 44.04 180.55 42.72 174.21 38.77 C 163.19 32.08 151.58 25.89 138.80 23.42 C 131.84 22.31 124.90 24.18 117.96 24.58 Z" />
<path fill="#f4cf67" opacity="1.00" d=" M 113.09 29.70 C 121.80 30.63 130.23 26.60 138.96 27.90 C 150.45 28.82 160.28 35.28 169.82 41.17 C 175.81 45.09 182.35 48.03 188.67 51.35 C 188.89 52.08 189.32 53.52 189.53 54.25 C 187.43 56.55 185.39 58.93 183.07 61.02 C 179.69 57.98 176.24 54.83 171.97 53.09 C 166.87 50.99 161.42 49.88 156.33 47.76 C 150.18 45.38 144.83 41.28 138.47 39.38 C 132.94 37.57 127.03 38.35 121.33 38.58 C 120.73 38.00 120.14 37.43 119.54 36.85 C 106.12 44.66 89.62 38.70 75.66 44.72 C 68.42 48.08 62.46 53.53 56.21 58.38 C 55.72 58.08 54.73 57.48 54.23 57.19 C 53.46 58.18 52.69 59.18 51.86 60.13 C 51.33 60.10 50.28 60.04 49.75 60.01 C 51.99 55.71 55.13 51.94 58.78 48.77 C 65.82 42.64 73.81 37.23 82.97 34.94 C 88.47 33.56 93.95 32.12 99.34 30.36 C 103.78 28.83 108.51 29.31 113.09 29.70 Z" />
<path fill="#f4cf67" opacity="1.00" d=" M 121.63 43.05 C 125.29 40.77 129.85 41.17 133.89 42.02 C 145.54 44.25 154.06 53.77 165.60 56.36 C 170.94 57.49 176.73 58.40 180.52 62.78 C 179.34 65.60 178.23 68.45 177.20 71.34 C 171.47 68.18 166.11 64.28 159.92 62.02 C 153.59 59.45 146.68 58.52 140.54 55.45 C 137.89 54.25 137.02 51.26 135.73 48.90 C 135.48 50.04 135.24 51.19 134.99 52.33 C 130.98 51.72 126.93 51.50 122.88 51.63 C 122.33 48.80 121.72 45.95 121.63 43.05 Z" />
<path fill="#f4cf67" opacity="1.00" d=" M 97.06 44.77 C 104.48 44.56 111.75 42.98 119.10 42.10 C 119.55 45.34 119.95 48.59 120.33 51.84 C 114.26 52.71 108.18 53.57 102.05 53.80 C 90.96 54.10 80.25 57.67 70.16 62.05 C 68.65 59.79 66.98 57.65 65.19 55.61 C 64.97 55.24 64.51 54.49 64.28 54.11 C 68.82 51.72 73.25 49.07 78.02 47.15 C 84.07 44.76 90.68 45.05 97.06 44.77 Z" />
<path fill="#f4cf67" opacity="1.00" d=" M 91.62 57.57 C 95.82 56.59 100.55 55.26 104.51 57.73 C 103.13 59.58 101.62 61.32 100.18 63.13 C 99.63 62.79 98.54 62.10 97.99 61.76 C 90.14 65.51 83.08 70.62 76.62 76.42 C 76.01 74.88 75.40 73.34 74.86 71.78 C 74.61 70.19 74.36 68.61 74.08 67.02 C 73.95 66.25 73.69 64.70 73.56 63.92 C 79.20 60.83 85.42 59.10 91.62 57.57 Z" />
<path fill="#f4cf67" opacity="1.00" d=" M 123.68 56.35 C 127.40 56.44 131.78 55.64 134.82 58.34 C 135.97 62.16 134.58 66.05 132.58 69.31 C 130.62 66.49 128.33 63.93 126.02 61.40 C 125.14 59.77 124.42 58.05 123.68 56.35 Z" />
<path fill="#f4cf67" opacity="1.00" d=" M 60.32 57.08 C 61.34 57.88 62.29 58.77 63.20 59.70 C 64.06 62.87 64.53 66.14 64.95 69.40 C 64.32 69.37 63.04 69.31 62.40 69.27 C 62.60 71.64 62.86 74.00 63.20 76.36 C 61.36 71.55 59.65 66.69 57.69 61.93 C 58.52 60.29 59.34 58.64 60.32 57.08 Z" />
<path fill="#f4cf67" opacity="1.00" d=" M 136.98 58.53 C 143.91 59.57 150.44 62.21 157.26 63.74 C 164.59 65.42 170.65 70.40 175.58 75.87 C 175.15 76.98 174.70 78.08 174.24 79.18 C 173.58 79.94 172.92 80.70 172.24 81.45 C 166.00 76.29 159.46 71.37 152.15 67.84 C 147.36 65.49 141.89 65.76 136.71 65.87 C 136.78 63.42 136.87 60.98 136.98 58.53 Z" />
<path fill="#f4cf67" opacity="1.00" d=" M 74.63 82.04 C 81.08 75.85 88.20 70.33 96.12 66.12 C 95.81 69.10 95.52 72.08 94.98 75.02 C 94.73 76.07 94.46 77.12 94.16 78.16 C 90.75 83.03 85.01 86.31 83.19 92.22 C 81.80 98.19 83.83 104.22 84.24 110.18 C 82.61 115.55 81.41 121.24 77.99 125.83 C 76.95 111.23 75.43 96.65 74.63 82.04 Z" />
<path fill="#f4cf67" opacity="1.00" d=" M 39.28 79.38 C 40.90 75.64 42.97 72.13 45.23 68.76 C 45.12 72.10 45.26 75.43 45.14 78.77 C 43.54 82.34 41.71 85.84 40.67 89.63 C 37.88 99.12 38.40 109.22 35.47 118.68 C 33.82 123.83 34.33 129.30 33.53 134.58 C 32.82 139.81 31.46 145.16 32.64 150.43 C 33.70 154.75 37.03 157.92 39.58 161.39 C 43.16 165.92 45.34 171.44 49.32 175.67 C 52.03 178.59 55.39 180.77 58.64 183.04 C 57.03 184.94 55.46 186.89 53.60 188.55 C 51.36 187.55 49.79 185.59 47.98 184.02 C 43.98 180.26 38.71 178.08 35.11 173.87 C 32.19 170.55 31.18 166.13 29.85 162.03 C 28.13 156.32 25.57 150.75 25.35 144.70 C 24.80 135.31 28.53 126.42 29.29 117.16 C 29.95 110.72 29.27 104.14 30.84 97.81 C 32.54 91.20 36.57 85.57 39.28 79.38 Z" />
<path fill="#f4cf67" opacity="1.00" d=" M 136.28 72.41 C 140.16 70.68 144.88 70.55 148.75 72.36 C 149.96 75.66 148.08 79.48 146.34 82.35 C 143.62 82.87 140.85 82.34 138.13 82.09 C 137.29 78.94 135.67 75.75 136.28 72.41 Z" />
<path fill="#f4cf67" opacity="1.00" d=" M 151.21 72.94 C 154.65 74.32 158.10 75.74 161.24 77.73 C 165.33 80.43 170.11 83.66 170.50 89.05 C 169.46 91.82 168.26 94.52 167.19 97.27 C 163.20 94.06 159.11 90.96 154.78 88.22 C 152.64 86.69 150.14 85.32 148.92 82.89 C 149.05 79.46 150.27 76.20 151.21 72.94 Z" />
<path fill="#f4cf67" opacity="1.00" d=" M 206.87 79.84 C 207.47 79.55 208.67 78.98 209.27 78.69 C 213.56 85.47 215.51 93.32 216.97 101.12 C 219.34 111.89 219.85 122.97 219.71 133.97 C 219.22 145.85 213.54 156.67 207.90 166.86 C 203.21 175.56 194.40 180.77 188.62 188.60 C 185.21 193.14 181.55 197.62 176.76 200.78 C 169.35 206.07 160.25 207.79 151.89 210.99 C 144.91 213.67 137.43 214.89 129.97 215.21 C 125.62 215.39 121.90 212.83 118.22 210.88 C 113.50 208.19 108.34 206.28 103.94 203.04 C 100.23 200.35 96.72 197.11 92.19 195.88 C 83.07 193.33 73.55 196.41 64.34 194.73 C 61.05 194.14 58.04 192.62 55.09 191.12 C 57.55 188.90 60.43 186.23 64.01 187.70 C 69.90 190.36 76.49 190.34 82.46 192.71 C 83.21 190.25 83.93 187.77 85.09 185.46 C 87.49 185.83 89.79 186.68 92.06 187.51 C 92.23 187.30 92.56 186.88 92.73 186.67 C 93.40 186.09 94.08 185.53 94.77 184.98 C 98.32 187.30 102.04 189.34 105.85 191.20 C 111.61 193.97 116.53 198.32 122.63 200.40 C 128.68 202.51 135.13 203.63 140.67 207.02 C 141.73 205.99 142.75 204.89 144.06 204.19 C 147.24 205.37 149.84 207.65 152.62 209.53 C 151.38 206.90 150.13 204.27 148.91 201.62 C 150.52 201.34 152.13 201.07 153.74 200.79 C 155.42 202.57 157.11 204.34 158.83 206.09 C 157.90 204.30 156.97 202.52 156.02 200.74 C 167.44 190.86 180.95 183.58 191.23 172.38 C 194.45 173.24 197.72 173.92 201.03 174.37 C 198.57 172.72 195.94 171.22 193.92 169.02 C 198.34 161.63 205.69 156.33 209.42 148.46 C 212.12 142.01 211.58 134.83 211.68 127.99 C 211.55 122.01 212.17 115.95 211.05 110.03 C 210.15 105.26 206.79 101.53 205.06 97.10 C 207.15 94.54 209.83 92.56 212.30 90.39 C 209.39 91.16 206.50 91.98 203.60 92.77 C 203.64 91.47 203.71 90.18 203.80 88.89 C 204.74 85.85 205.80 82.84 206.87 79.84 Z" />
<path fill="#f4cf67" opacity="1.00" d=" M 86.84 99.74 C 86.54 95.29 86.37 89.50 91.34 87.54 C 90.32 91.28 89.65 95.10 88.74 98.86 C 88.27 99.08 87.31 99.52 86.84 99.74 Z" />
<path fill="#f4cf67" opacity="1.00" d=" M 146.33 89.03 C 150.17 90.36 153.37 92.98 156.60 95.37 C 159.89 97.89 163.67 100.54 164.46 104.92 C 163.91 106.60 163.33 108.27 162.84 109.97 C 161.37 109.83 159.87 109.79 158.43 109.45 C 156.16 107.45 154.67 104.68 152.21 102.88 C 150.25 101.44 148.06 100.36 146.01 99.07 C 145.09 97.42 144.20 95.76 143.26 94.12 C 144.23 92.39 145.16 90.63 146.33 89.03 Z" />
<path fill="#f4cf67" opacity="1.00" d=" M 43.07 103.01 C 43.14 98.74 43.86 94.52 45.29 90.49 C 46.12 100.69 46.81 110.89 47.63 121.08 C 45.09 121.06 42.55 121.03 40.01 120.98 C 41.43 115.07 42.91 109.12 43.07 103.01 Z" />
<path fill="#f4cf67" opacity="1.00" d=" M 200.30 98.38 C 205.70 103.75 206.16 111.80 206.44 118.96 C 206.48 128.33 208.50 137.66 207.12 147.02 C 204.02 146.34 200.92 145.63 197.82 144.91 C 198.19 141.25 198.69 137.54 200.19 134.15 C 201.61 130.58 203.73 126.66 202.06 122.80 C 199.80 117.09 197.33 111.25 197.76 104.96 C 198.54 102.74 199.43 100.56 200.30 98.38 Z" />
<path fill="#f4cf67" opacity="1.00" d=" M 111.80 125.81 C 113.21 120.57 114.70 115.35 116.75 110.32 C 119.10 114.39 121.32 118.55 123.24 122.86 C 123.06 123.19 122.69 123.87 122.51 124.20 C 118.85 125.50 115.10 126.48 111.36 127.49 C 111.47 127.07 111.69 126.23 111.80 125.81 Z" />
<path fill="#f4cf67" opacity="1.00" d=" M 159.88 120.46 C 159.14 117.43 159.20 114.24 160.58 111.39 C 160.82 113.29 161.10 115.19 161.23 117.11 C 160.84 118.25 160.39 119.37 159.88 120.46 Z" />
<path fill="#f4cf67" opacity="1.00" d=" M 183.10 151.65 C 186.94 139.95 189.23 127.77 193.84 116.32 C 196.01 119.43 199.06 122.75 198.42 126.84 C 197.45 132.12 195.58 137.18 194.20 142.36 C 192.95 147.18 189.62 150.99 186.27 154.51 C 185.21 153.55 184.15 152.60 183.10 151.65 Z" />
<path fill="#f4cf67" opacity="1.00" d=" M 39.40 124.35 C 42.22 124.02 45.05 123.72 47.87 123.42 C 48.03 124.54 48.18 125.65 48.33 126.77 C 48.01 133.56 47.18 140.46 48.62 147.19 C 49.34 151.36 51.21 155.19 53.04 158.96 C 54.29 163.16 55.29 167.43 56.16 171.72 C 56.16 173.35 56.13 174.97 56.07 176.60 C 52.15 174.00 48.82 170.55 46.71 166.32 C 44.28 161.56 40.99 157.35 38.11 152.88 C 35.73 149.29 36.13 144.78 36.74 140.73 C 37.64 135.27 38.65 129.83 39.40 124.35 Z" />
<path fill="#f4cf67" opacity="1.00" d=" M 113.55 130.57 C 117.40 128.24 122.05 128.66 126.29 129.43 C 126.54 130.03 127.04 131.23 127.29 131.83 C 127.17 132.24 126.94 133.05 126.83 133.46 C 120.96 134.65 115.06 135.77 109.15 136.71 C 110.30 134.49 111.11 131.73 113.55 130.57 Z" />
<path fill="#f4cf67" opacity="1.00" d=" M 107.60 140.62 C 115.04 139.91 122.61 135.29 129.97 138.62 C 131.27 142.42 132.64 146.20 134.06 149.96 C 134.12 150.75 134.23 152.34 134.29 153.13 C 130.47 151.33 127.04 148.87 123.60 146.45 C 118.68 142.74 112.22 145.26 106.59 144.33 C 106.93 143.09 107.27 141.86 107.60 140.62 Z" />
<path fill="#f4cf67" opacity="1.00" d=" M 189.77 157.04 C 191.81 153.18 194.19 149.42 197.21 146.25 C 200.30 146.82 203.17 148.19 206.09 149.31 C 203.03 153.94 198.93 157.69 194.86 161.40 C 193.04 160.10 191.03 158.94 189.77 157.04 Z" />
<path fill="#f4cf67" opacity="1.00" d=" M 104.88 150.76 C 110.21 149.59 115.64 148.99 121.09 149.00 C 121.55 152.87 121.87 156.75 122.15 160.64 C 116.32 159.43 110.43 158.61 104.55 157.65 C 104.37 156.93 104.01 155.47 103.83 154.74 C 104.19 153.41 104.53 152.09 104.88 150.76 Z" />
<path fill="#f4cf67" opacity="1.00" d=" M 123.61 151.90 C 128.37 154.16 133.29 156.04 138.26 157.82 C 141.33 161.13 144.45 164.61 145.80 169.03 C 143.67 169.87 141.34 171.05 139.07 169.99 C 134.59 168.32 129.93 166.74 126.02 163.94 C 123.33 160.61 123.98 155.91 123.61 151.90 Z" />
<path fill="#f4cf67" opacity="1.00" d=" M 183.90 163.69 C 185.38 161.96 186.30 158.97 188.93 158.89 C 190.63 159.77 192.27 161.11 192.90 162.99 C 192.14 164.76 190.55 165.96 189.27 167.33 C 187.48 166.11 185.69 164.90 183.90 163.69 Z" />
<path fill="#f4cf67" opacity="1.00" d=" M 101.82 162.63 C 108.20 163.49 114.93 163.45 120.93 166.01 C 126.35 169.79 126.46 177.27 127.40 183.22 C 123.11 180.74 119.27 177.61 115.18 174.83 C 111.12 172.03 106.13 171.19 101.88 168.78 C 101.59 167.06 101.58 165.32 101.61 163.59 L 101.82 162.63 Z" />
<path fill="#f4cf67" opacity="1.00" d=" M 180.01 167.14 C 180.55 166.84 181.62 166.22 182.15 165.92 C 183.91 167.30 185.67 168.68 187.43 170.06 C 184.67 173.31 181.50 176.20 177.87 178.45 C 177.91 177.54 178.00 175.73 178.04 174.83 C 178.79 172.29 179.50 169.74 180.01 167.14 Z" />
<path fill="#f4cf67" opacity="1.00" d=" M 127.11 168.69 C 133.20 171.11 139.32 174.23 146.09 173.64 C 146.35 173.99 146.88 174.69 147.14 175.04 C 148.42 176.88 149.80 178.64 151.27 180.33 C 148.25 182.42 145.18 185.22 141.27 185.18 C 139.69 183.31 138.58 181.10 137.41 178.95 C 137.85 181.15 138.29 183.37 138.38 185.62 C 136.15 185.64 133.69 185.67 131.80 184.32 C 128.82 179.67 128.26 173.97 127.11 168.69 Z" />
<path fill="#f4cf67" opacity="1.00" d=" M 98.81 174.84 C 99.45 174.10 100.11 173.37 100.78 172.65 C 104.92 173.83 109.31 174.63 112.97 177.04 C 115.94 179.01 118.64 181.37 121.67 183.26 C 124.65 185.24 128.04 186.81 130.29 189.70 C 132.58 192.70 133.93 196.26 135.39 199.72 C 129.57 198.82 123.39 198.15 118.46 194.62 C 114.44 191.78 110.31 189.04 105.72 187.19 C 101.86 185.69 98.57 183.10 96.01 179.86 C 96.90 178.16 97.84 176.49 98.81 174.84 Z" />
<path fill="#f4cf67" opacity="1.00" d=" M 150.30 187.25 C 153.23 184.82 157.05 184.00 160.65 183.05 C 160.95 183.37 161.56 184.02 161.86 184.34 C 163.75 184.37 165.64 184.44 167.53 184.57 C 163.42 188.51 159.11 192.25 154.32 195.36 C 152.82 192.75 151.14 190.17 150.30 187.25 Z" />
<path fill="#f4cf67" opacity="1.00" d=" M 142.99 190.28 C 144.95 189.52 146.91 188.77 148.87 188.02 C 150.12 190.48 151.64 192.94 151.86 195.76 C 150.59 197.02 148.91 197.86 147.12 198.01 C 144.70 196.18 144.14 192.92 142.99 190.28 Z" />
<path fill="#f4cf67" opacity="1.00" d=" M 133.95 189.02 C 135.98 189.58 138.36 189.56 140.06 190.92 C 141.86 193.48 142.81 196.50 144.04 199.35 C 143.04 199.65 142.03 199.92 141.01 200.15 C 137.70 197.16 135.96 192.91 133.95 189.02 Z" />
</g>
<g id="#c2976aff">
<path fill="#c2976a" opacity="1.00" d=" M 117.96 24.58 C 124.90 24.18 131.84 22.31 138.80 23.42 C 151.58 25.89 163.19 32.08 174.21 38.77 C 180.55 42.72 188.27 44.04 194.06 48.93 C 196.93 51.43 200.62 52.51 204.24 53.39 C 200.94 54.03 197.62 54.60 194.32 55.28 C 193.26 54.33 192.19 53.38 191.13 52.44 C 190.73 52.89 189.93 53.79 189.53 54.25 C 189.32 53.52 188.89 52.08 188.67 51.35 C 182.35 48.03 175.81 45.09 169.82 41.17 C 160.28 35.28 150.45 28.82 138.96 27.90 C 130.23 26.60 121.80 30.63 113.09 29.70 C 108.51 29.31 103.78 28.83 99.34 30.36 C 93.95 32.12 88.47 33.56 82.97 34.94 C 73.81 37.23 65.82 42.64 58.78 48.77 C 55.13 51.94 51.99 55.71 49.75 60.01 C 50.28 60.04 51.33 60.10 51.86 60.13 C 50.41 61.92 48.56 63.30 46.61 64.49 C 46.16 65.92 45.70 67.34 45.23 68.76 C 42.97 72.13 40.90 75.64 39.28 79.38 C 36.57 85.57 32.54 91.20 30.84 97.81 C 29.27 104.14 29.95 110.72 29.29 117.16 C 28.53 126.42 24.80 135.31 25.35 144.70 C 25.57 150.75 28.13 156.32 29.85 162.03 C 31.18 166.13 32.19 170.55 35.11 173.87 C 38.71 178.08 43.98 180.26 47.98 184.02 C 49.79 185.59 51.36 187.55 53.60 188.55 C 55.46 186.89 57.03 184.94 58.64 183.04 C 55.39 180.77 52.03 178.59 49.32 175.67 C 45.34 171.44 43.16 165.92 39.58 161.39 C 37.03 157.92 33.70 154.75 32.64 150.43 C 31.46 145.16 32.82 139.81 33.53 134.58 C 34.33 129.30 33.82 123.83 35.47 118.68 C 38.40 109.22 37.88 99.12 40.67 89.63 C 41.71 85.84 43.54 82.34 45.14 78.77 C 45.21 82.67 45.38 86.58 45.29 90.49 C 43.86 94.52 43.14 98.74 43.07 103.01 C 42.91 109.12 41.43 115.07 40.01 120.98 C 42.55 121.03 45.09 121.06 47.63 121.08 C 47.69 121.67 47.81 122.84 47.87 123.42 C 45.05 123.72 42.22 124.02 39.40 124.35 C 38.65 129.83 37.64 135.27 36.74 140.73 C 36.13 144.78 35.73 149.29 38.11 152.88 C 40.99 157.35 44.28 161.56 46.71 166.32 C 48.82 170.55 52.15 174.00 56.07 176.60 C 56.13 174.97 56.16 173.35 56.16 171.72 C 57.63 177.44 58.30 184.47 64.01 187.70 C 60.43 186.23 57.55 188.90 55.09 191.12 C 58.04 192.62 61.05 194.14 64.34 194.73 C 73.55 196.41 83.07 193.33 92.19 195.88 C 96.72 197.11 100.23 200.35 103.94 203.04 C 108.34 206.28 113.50 208.19 118.22 210.88 C 121.90 212.83 125.62 215.39 129.97 215.21 C 137.43 214.89 144.91 213.67 151.89 210.99 C 160.25 207.79 169.35 206.07 176.76 200.78 C 181.55 197.62 185.21 193.14 188.62 188.60 C 194.40 180.77 203.21 175.56 207.90 166.86 C 213.54 156.67 219.22 145.85 219.71 133.97 C 219.85 122.97 219.34 111.89 216.97 101.12 C 215.51 93.32 213.56 85.47 209.27 78.69 C 208.67 78.98 207.47 79.55 206.87 79.84 C 207.82 77.21 208.73 74.57 209.48 71.88 C 209.69 74.92 211.08 77.63 213.00 79.95 C 217.17 85.09 217.81 91.88 220.04 97.89 C 222.30 104.05 224.52 110.36 224.63 117.00 C 224.71 125.09 225.15 133.32 223.19 141.24 C 220.86 151.17 216.38 160.48 211.15 169.19 C 205.48 178.62 195.82 184.64 189.66 193.68 C 183.67 202.31 174.56 208.48 164.59 211.58 C 156.71 213.99 149.42 218.59 141.03 219.05 C 137.06 219.35 133.09 219.73 129.11 219.61 C 124.68 219.54 120.99 216.81 117.31 214.69 C 111.73 211.21 105.48 208.85 100.34 204.66 C 96.55 201.61 92.12 198.64 87.00 199.11 C 77.09 199.58 66.37 201.83 57.18 196.79 C 52.71 194.81 50.04 190.61 46.83 187.15 C 42.47 183.08 36.78 180.68 32.69 176.28 C 29.15 172.85 28.23 167.83 26.65 163.37 C 24.79 157.61 21.77 152.14 21.25 146.02 C 20.45 138.74 21.36 131.39 23.41 124.39 C 25.77 116.13 25.48 107.45 27.08 99.07 C 28.43 91.49 33.69 85.57 36.81 78.73 C 43.52 64.53 51.82 50.11 65.18 41.22 C 69.87 37.70 74.65 34.06 80.36 32.39 C 86.53 30.55 92.94 29.48 98.87 26.86 C 104.89 24.18 111.58 25.04 117.96 24.58 Z" />
<path fill="#c2976a" opacity="1.00" d=" M 119.54 36.85 C 120.14 37.43 120.73 38.00 121.33 38.58 C 127.03 38.35 132.94 37.57 138.47 39.38 C 144.83 41.28 150.18 45.38 156.33 47.76 C 161.42 49.88 166.87 50.99 171.97 53.09 C 176.24 54.83 179.69 57.98 183.07 61.02 C 182.23 61.63 181.37 62.20 180.52 62.78 C 176.73 58.40 170.94 57.49 165.60 56.36 C 154.06 53.77 145.54 44.25 133.89 42.02 C 129.85 41.17 125.29 40.77 121.63 43.05 C 121.72 45.95 122.33 48.80 122.88 51.63 C 126.93 51.50 130.98 51.72 134.99 52.33 C 135.24 51.19 135.48 50.04 135.73 48.90 C 137.02 51.26 137.89 54.25 140.54 55.45 C 146.68 58.52 153.59 59.45 159.92 62.02 C 166.11 64.28 171.47 68.18 177.20 71.34 C 176.67 72.85 176.15 74.37 175.58 75.87 C 170.65 70.40 164.59 65.42 157.26 63.74 C 150.44 62.21 143.91 59.57 136.98 58.53 C 136.87 60.98 136.78 63.42 136.71 65.87 C 141.89 65.76 147.36 65.49 152.15 67.84 C 159.46 71.37 166.00 76.29 172.24 81.45 C 172.92 80.70 173.58 79.94 174.24 79.18 C 172.97 82.46 171.75 85.76 170.50 89.05 C 170.11 83.66 165.33 80.43 161.24 77.73 C 158.10 75.74 154.65 74.32 151.21 72.94 C 150.27 76.20 149.05 79.46 148.92 82.89 C 150.14 85.32 152.64 86.69 154.78 88.22 C 159.11 90.96 163.20 94.06 167.19 97.27 C 166.21 99.79 165.32 102.35 164.46 104.92 C 163.67 100.54 159.89 97.89 156.60 95.37 C 153.37 92.98 150.17 90.36 146.33 89.03 C 145.16 90.63 144.23 92.39 143.26 94.12 C 137.81 86.71 136.73 77.33 132.58 69.31 C 134.58 66.05 135.97 62.16 134.82 58.34 C 131.78 55.64 127.40 56.44 123.68 56.35 C 124.42 58.05 125.14 59.77 126.02 61.40 C 122.95 60.69 120.34 58.93 117.82 57.13 C 115.09 54.55 111.72 57.60 108.97 58.67 C 107.94 57.76 106.92 56.86 105.89 55.96 C 105.43 56.55 104.97 57.14 104.51 57.73 C 100.55 55.26 95.82 56.59 91.62 57.57 C 85.42 59.10 79.20 60.83 73.56 63.92 C 73.69 64.70 73.95 66.25 74.08 67.02 C 72.70 65.43 71.36 63.79 70.16 62.05 C 80.25 57.67 90.96 54.10 102.05 53.80 C 108.18 53.57 114.26 52.71 120.33 51.84 C 119.95 48.59 119.55 45.34 119.10 42.10 C 111.75 42.98 104.48 44.56 97.06 44.77 C 90.68 45.05 84.07 44.76 78.02 47.15 C 73.25 49.07 68.82 51.72 64.28 54.11 C 64.51 54.49 64.97 55.24 65.19 55.61 C 64.54 56.06 63.23 56.96 62.58 57.41 C 62.73 57.98 63.04 59.12 63.20 59.70 C 62.29 58.77 61.34 57.88 60.32 57.08 C 59.34 58.64 58.52 60.29 57.69 61.93 C 57.20 60.74 56.71 59.56 56.21 58.38 C 62.46 53.53 68.42 48.08 75.66 44.72 C 89.62 38.70 106.12 44.66 119.54 36.85 M 136.28 72.41 C 135.67 75.75 137.29 78.94 138.13 82.09 C 140.85 82.34 143.62 82.87 146.34 82.35 C 148.08 79.48 149.96 75.66 148.75 72.36 C 144.88 70.55 140.16 70.68 136.28 72.41 Z" />
<path fill="#c2976a" opacity="1.00" d=" M 76.62 76.42 C 83.08 70.62 90.14 65.51 97.99 61.76 C 98.54 62.10 99.63 62.79 100.18 63.13 C 97.44 66.57 96.00 70.80 94.98 75.02 C 95.52 72.08 95.81 69.10 96.12 66.12 C 88.20 70.33 81.08 75.85 74.63 82.04 C 74.67 78.62 74.86 75.20 74.86 71.78 C 75.40 73.34 76.01 74.88 76.62 76.42 Z" />
<path fill="#c2976a" opacity="1.00" d=" M 83.19 92.22 C 85.01 86.31 90.75 83.03 94.16 78.16 C 93.27 81.30 92.25 84.41 91.34 87.54 C 86.37 89.50 86.54 95.29 86.84 99.74 C 87.31 99.52 88.27 99.08 88.74 98.86 C 87.34 102.67 85.50 106.31 84.24 110.18 C 83.83 104.22 81.80 98.19 83.19 92.22 Z" />
<path fill="#c2976a" opacity="1.00" d=" M 200.30 98.38 C 201.53 95.24 202.69 92.08 203.80 88.89 C 203.71 90.18 203.64 91.47 203.60 92.77 C 206.50 91.98 209.39 91.16 212.30 90.39 C 209.83 92.56 207.15 94.54 205.06 97.10 C 206.79 101.53 210.15 105.26 211.05 110.03 C 212.17 115.95 211.55 122.01 211.68 127.99 C 211.58 134.83 212.12 142.01 209.42 148.46 C 205.69 156.33 198.34 161.63 193.92 169.02 C 195.94 171.22 198.57 172.72 201.03 174.37 C 197.72 173.92 194.45 173.24 191.23 172.38 C 180.95 183.58 167.44 190.86 156.02 200.74 C 156.97 202.52 157.90 204.30 158.83 206.09 C 157.11 204.34 155.42 202.57 153.74 200.79 C 152.13 201.07 150.52 201.34 148.91 201.62 C 150.13 204.27 151.38 206.90 152.62 209.53 C 149.84 207.65 147.24 205.37 144.06 204.19 C 142.75 204.89 141.73 205.99 140.67 207.02 C 135.13 203.63 128.68 202.51 122.63 200.40 C 116.53 198.32 111.61 193.97 105.85 191.20 C 102.04 189.34 98.32 187.30 94.77 184.98 C 94.08 185.53 93.40 186.09 92.73 186.67 C 93.82 184.40 94.84 182.09 96.01 179.86 C 98.57 183.10 101.86 185.69 105.72 187.19 C 110.31 189.04 114.44 191.78 118.46 194.62 C 123.39 198.15 129.57 198.82 135.39 199.72 C 133.93 196.26 132.58 192.70 130.29 189.70 C 128.04 186.81 124.65 185.24 121.67 183.26 C 118.64 181.37 115.94 179.01 112.97 177.04 C 109.31 174.63 104.92 173.83 100.78 172.65 C 100.11 173.37 99.45 174.10 98.81 174.84 C 99.95 171.14 100.76 167.35 101.61 163.59 C 101.58 165.32 101.59 167.06 101.88 168.78 C 106.13 171.19 111.12 172.03 115.18 174.83 C 119.27 177.61 123.11 180.74 127.40 183.22 C 126.46 177.27 126.35 169.79 120.93 166.01 C 114.93 163.45 108.20 163.49 101.82 162.63 C 102.44 159.99 103.14 157.37 103.83 154.74 C 104.01 155.47 104.37 156.93 104.55 157.65 C 110.43 158.61 116.32 159.43 122.15 160.64 C 121.87 156.75 121.55 152.87 121.09 149.00 C 115.64 148.99 110.21 149.59 104.88 150.76 C 105.44 148.61 106.00 146.47 106.59 144.33 C 112.22 145.26 118.68 142.74 123.60 146.45 C 127.04 148.87 130.47 151.33 134.29 153.13 C 134.23 152.34 134.12 150.75 134.06 149.96 C 135.30 152.66 136.68 155.30 138.26 157.82 C 133.29 156.04 128.37 154.16 123.61 151.90 C 123.98 155.91 123.33 160.61 126.02 163.94 C 129.93 166.74 134.59 168.32 139.07 169.99 C 141.34 171.05 143.67 169.87 145.80 169.03 C 146.35 171.01 146.69 173.04 147.14 175.04 C 146.88 174.69 146.35 173.99 146.09 173.64 C 139.32 174.23 133.20 171.11 127.11 168.69 C 128.26 173.97 128.82 179.67 131.80 184.32 C 133.69 185.67 136.15 185.64 138.38 185.62 C 138.29 183.37 137.85 181.15 137.41 178.95 C 138.58 181.10 139.69 183.31 141.27 185.18 C 145.18 185.22 148.25 182.42 151.27 180.33 C 153.71 180.75 156.18 180.81 158.64 180.93 C 159.31 181.64 159.98 182.34 160.65 183.05 C 157.05 184.00 153.23 184.82 150.30 187.25 C 151.14 190.17 152.82 192.75 154.32 195.36 C 159.11 192.25 163.42 188.51 167.53 184.57 C 168.03 184.11 168.53 183.65 169.04 183.20 C 170.19 183.45 171.33 183.70 172.48 183.94 C 174.14 180.79 176.12 177.83 178.04 174.83 C 178.00 175.73 177.91 177.54 177.87 178.45 C 181.50 176.20 184.67 173.31 187.43 170.06 C 185.67 168.68 183.91 167.30 182.15 165.92 C 181.62 166.22 180.55 166.84 180.01 167.14 C 180.91 161.95 181.32 156.64 183.10 151.65 C 184.15 152.60 185.21 153.55 186.27 154.51 C 189.62 150.99 192.95 147.18 194.20 142.36 C 195.58 137.18 197.45 132.12 198.42 126.84 C 199.06 122.75 196.01 119.43 193.84 116.32 C 195.13 112.53 196.38 108.72 197.76 104.96 C 197.33 111.25 199.80 117.09 202.06 122.80 C 203.73 126.66 201.61 130.58 200.19 134.15 C 198.69 137.54 198.19 141.25 197.82 144.91 C 200.92 145.63 204.02 146.34 207.12 147.02 C 208.50 137.66 206.48 128.33 206.44 118.96 C 206.16 111.80 205.70 103.75 200.30 98.38 M 189.77 157.04 C 191.03 158.94 193.04 160.10 194.86 161.40 C 198.93 157.69 203.03 153.94 206.09 149.31 C 203.17 148.19 200.30 146.82 197.21 146.25 C 194.19 149.42 191.81 153.18 189.77 157.04 M 183.90 163.69 C 185.69 164.90 187.48 166.11 189.27 167.33 C 190.55 165.96 192.14 164.76 192.90 162.99 C 192.27 161.11 190.63 159.77 188.93 158.89 C 186.30 158.97 185.38 161.96 183.90 163.69 M 142.99 190.28 C 144.14 192.92 144.70 196.18 147.12 198.01 C 148.91 197.86 150.59 197.02 151.86 195.76 C 151.64 192.94 150.12 190.48 148.87 188.02 C 146.91 188.77 144.95 189.52 142.99 190.28 M 133.95 189.02 C 135.96 192.91 137.70 197.16 141.01 200.15 C 142.03 199.92 143.04 199.65 144.04 199.35 C 142.81 196.50 141.86 193.48 140.06 190.92 C 138.36 189.56 135.98 189.58 133.95 189.02 Z" />
<path fill="#c2976a" opacity="1.00" d=" M 146.01 99.07 C 148.06 100.36 150.25 101.44 152.21 102.88 C 154.67 104.68 156.16 107.45 158.43 109.45 C 159.87 109.79 161.37 109.83 162.84 109.97 C 162.21 112.33 161.86 114.75 161.23 117.11 C 161.10 115.19 160.82 113.29 160.58 111.39 C 159.20 114.24 159.14 117.43 159.88 120.46 C 159.22 121.73 158.42 122.91 157.65 124.12 C 154.25 115.55 150.09 107.32 146.01 99.07 Z" />
<path fill="#c2976a" opacity="1.00" d=" M 123.24 122.86 C 124.23 125.06 125.29 127.23 126.29 129.43 C 122.05 128.66 117.40 128.24 113.55 130.57 C 111.11 131.73 110.30 134.49 109.15 136.71 C 115.06 135.77 120.96 134.65 126.83 133.46 C 126.94 133.05 127.17 132.24 127.29 131.83 C 128.20 134.08 129.12 136.34 129.97 138.62 C 122.61 135.29 115.04 139.91 107.60 140.62 C 108.81 135.63 110.31 130.72 111.80 125.81 C 111.69 126.23 111.47 127.07 111.36 127.49 C 115.10 126.48 118.85 125.50 122.51 124.20 C 122.69 123.87 123.06 123.19 123.24 122.86 Z" />
<path fill="#c2976a" opacity="1.00" d=" M 48.33 126.77 C 49.90 137.50 51.42 148.23 53.04 158.96 C 51.21 155.19 49.34 151.36 48.62 147.19 C 47.18 140.46 48.01 133.56 48.33 126.77 Z" />
</g>
</svg>
