<?xml version="1.0" encoding="UTF-8" ?>
<!DOCTYPE svg PUBLIC "-//W3C//DTD SVG 1.1//EN" "http://www.w3.org/Graphics/SVG/1.1/DTD/svg11.dtd">
<svg width="250pt" height="250pt" viewBox="0 0 250 250" version="1.1" xmlns="http://www.w3.org/2000/svg">
<g id="#34689bff">
<path fill="#34689b" opacity="1.00" d=" M 116.53 0.00 L 135.43 0.00 C 154.39 2.05 173.09 7.63 189.42 17.62 C 213.04 31.70 231.79 53.87 241.64 79.56 C 246.19 90.71 248.32 102.67 250.00 114.55 L 250.00 135.43 C 247.98 154.16 242.50 172.64 232.73 188.82 C 218.63 212.71 196.37 231.72 170.44 241.63 C 159.30 246.23 147.32 248.30 135.45 250.00 L 114.57 250.00 C 106.55 248.94 98.57 247.46 90.74 245.40 C 63.66 237.86 39.43 220.72 23.15 197.82 C 9.91 179.63 2.33 157.74 0.00 135.44 L 0.00 114.56 C 1.10 106.27 2.63 98.02 4.81 89.94 C 11.71 65.94 26.08 44.21 45.37 28.36 C 65.28 11.60 90.71 2.09 116.53 0.00 M 85.33 31.34 C 76.28 39.90 70.36 51.67 68.65 63.99 C 68.13 70.79 68.41 77.62 68.42 84.43 C 64.86 84.53 60.28 83.62 57.79 86.84 C 56.24 88.49 56.32 90.84 56.27 92.95 C 56.32 127.63 56.28 162.31 56.29 197.00 C 56.36 200.52 56.01 204.09 56.60 207.59 C 57.62 210.14 60.22 212.38 63.06 212.40 C 104.05 212.41 145.04 212.35 186.03 212.43 C 190.01 212.78 194.05 209.15 193.70 205.06 C 193.73 167.69 193.67 130.32 193.73 92.94 C 193.68 90.84 193.75 88.49 192.21 86.84 C 189.72 83.62 185.14 84.53 181.58 84.42 C 181.55 77.27 181.98 70.08 181.20 62.95 C 179.27 51.28 173.83 40.02 165.17 31.84 C 155.77 22.05 142.46 16.44 129.02 15.43 C 113.13 14.34 96.62 19.97 85.33 31.34 Z" />
<path fill="#34689b" opacity="1.00" d=" M 98.37 57.48 C 104.83 45.75 119.68 38.76 132.73 42.66 C 144.17 45.94 153.80 55.93 155.08 67.99 C 155.52 73.50 155.57 79.09 154.94 84.59 C 134.99 84.39 115.02 84.39 95.06 84.59 C 94.41 75.55 93.56 65.62 98.37 57.48 Z" />
<path fill="#34689b" opacity="1.00" d=" M 87.41 96.50 C 111.14 96.71 134.89 96.72 158.62 96.50 C 159.56 104.23 159.33 112.06 158.95 119.82 C 146.57 120.58 134.15 119.41 121.78 120.27 C 128.58 129.03 136.18 137.14 143.29 145.66 C 144.23 146.61 143.72 148.08 142.95 148.96 C 135.94 158.37 128.20 167.21 121.05 176.51 C 133.71 176.47 146.36 176.53 159.02 176.46 C 160.40 176.64 162.92 175.98 163.11 178.05 C 163.50 184.65 163.46 191.32 163.14 197.92 C 162.85 198.26 162.27 198.96 161.98 199.31 C 137.34 199.52 112.67 199.53 88.03 199.30 C 87.74 198.96 87.16 198.26 86.87 197.92 C 86.48 193.30 86.56 188.63 86.81 184.01 C 87.83 180.71 90.73 178.48 92.79 175.82 C 100.91 166.63 108.54 157.02 116.83 147.99 C 108.84 138.41 100.43 129.18 92.40 119.62 C 90.85 117.60 88.47 116.07 87.51 113.69 C 87.09 107.97 87.46 102.23 87.41 96.50 Z" />
</g>
<g id="#ffffffff">
<path fill="#ffffff" opacity="1.00" d=" M 85.33 31.34 C 96.62 19.97 113.13 14.34 129.02 15.43 C 142.46 16.44 155.77 22.05 165.17 31.84 C 173.83 40.02 179.27 51.28 181.20 62.95 C 181.98 70.08 181.55 77.27 181.58 84.42 C 185.14 84.53 189.72 83.62 192.21 86.84 C 193.75 88.49 193.68 90.84 193.73 92.94 C 193.67 130.32 193.73 167.69 193.70 205.06 C 194.05 209.15 190.01 212.78 186.03 212.43 C 145.04 212.35 104.05 212.41 63.06 212.40 C 60.22 212.38 57.62 210.14 56.60 207.59 C 56.01 204.09 56.36 200.52 56.29 197.00 C 56.28 162.31 56.32 127.63 56.27 92.95 C 56.32 90.84 56.24 88.49 57.79 86.84 C 60.28 83.62 64.86 84.53 68.42 84.43 C 68.41 77.62 68.13 70.79 68.65 63.99 C 70.36 51.67 76.28 39.90 85.33 31.34 M 98.37 57.48 C 93.56 65.62 94.41 75.55 95.06 84.59 C 115.02 84.39 134.99 84.39 154.94 84.59 C 155.57 79.09 155.52 73.50 155.08 67.99 C 153.80 55.93 144.17 45.94 132.73 42.66 C 119.68 38.76 104.83 45.75 98.37 57.48 M 87.41 96.50 C 87.46 102.23 87.09 107.97 87.51 113.69 C 88.47 116.07 90.85 117.60 92.40 119.62 C 100.43 129.18 108.84 138.41 116.83 147.99 C 108.54 157.02 100.91 166.63 92.79 175.82 C 90.73 178.48 87.83 180.71 86.81 184.01 C 86.56 188.63 86.48 193.30 86.87 197.92 C 87.16 198.26 87.74 198.96 88.03 199.30 C 112.67 199.53 137.34 199.52 161.98 199.31 C 162.27 198.96 162.85 198.26 163.14 197.92 C 163.46 191.32 163.50 184.65 163.11 178.05 C 162.92 175.98 160.40 176.64 159.02 176.46 C 146.36 176.53 133.71 176.47 121.05 176.51 C 128.20 167.21 135.94 158.37 142.95 148.96 C 143.72 148.08 144.23 146.61 143.29 145.66 C 136.18 137.14 128.58 129.03 121.78 120.27 C 134.15 119.41 146.57 120.58 158.95 119.82 C 159.33 112.06 159.56 104.23 158.62 96.50 C 134.89 96.72 111.14 96.71 87.41 96.50 Z" />
</g>
</svg>
