<?xml version="1.0" encoding="UTF-8" ?>
<!DOCTYPE svg PUBLIC "-//W3C//DTD SVG 1.1//EN" "http://www.w3.org/Graphics/SVG/1.1/DTD/svg11.dtd">
<svg width="250pt" height="250pt" viewBox="0 0 250 250" version="1.1" xmlns="http://www.w3.org/2000/svg">
<g id="#000000ff">
<path fill="#000000" opacity="1.00" d=" M 117.93 18.74 C 124.76 16.73 131.95 17.20 138.97 17.34 C 165.37 19.61 189.53 41.78 191.94 68.53 C 181.84 69.84 171.81 71.88 161.68 72.80 C 160.19 65.14 155.51 58.05 148.75 54.07 C 141.80 49.55 132.78 48.78 125.00 51.39 C 117.17 54.17 110.62 60.47 107.82 68.33 C 105.60 73.40 106.23 79.05 106.59 84.41 C 103.07 85.19 99.58 86.07 96.05 86.74 L 95.29 87.22 C 77.32 91.27 59.62 96.43 42.01 101.80 C 38.66 102.78 35.51 104.65 31.93 104.61 C 45.12 95.98 58.40 87.47 72.37 80.15 C 71.54 66.81 75.35 53.22 83.31 42.46 C 91.82 31.07 103.85 21.79 117.93 18.74 Z" />
<path fill="#000000" opacity="1.00" d=" M 128.63 58.49 C 139.62 54.76 152.53 63.12 154.01 74.57 C 140.82 77.08 127.58 79.46 114.56 82.74 C 111.42 72.62 118.54 61.11 128.63 58.49 Z" />
<path fill="#000000" opacity="1.00" d=" M 85.69 102.11 C 95.77 100.12 106.02 99.02 116.05 96.72 C 120.64 99.57 125.96 100.76 131.07 102.35 C 145.00 106.25 159.28 109.93 171.77 117.50 C 181.64 123.59 188.24 133.72 192.70 144.20 C 194.33 147.67 194.76 151.54 196.33 155.02 C 197.05 159.64 196.67 164.32 196.75 168.96 C 196.65 173.96 197.34 179.13 195.44 183.90 C 191.19 201.18 179.13 216.07 163.81 224.89 C 151.46 231.98 136.68 233.94 122.70 232.09 C 93.90 228.00 69.49 201.92 68.36 172.69 C 76.62 171.01 84.93 169.63 93.18 167.90 C 95.91 167.40 98.62 166.85 101.32 166.17 C 103.71 176.79 107.61 188.49 117.55 194.33 C 123.96 198.44 131.82 198.06 139.09 197.45 C 150.47 195.02 159.95 185.33 162.13 173.88 C 163.78 164.66 161.36 154.12 154.03 147.87 C 150.67 144.69 146.13 143.35 141.89 141.80 C 132.61 138.74 123.07 136.53 113.77 133.51 C 105.69 130.35 97.24 127.29 90.77 121.28 C 86.00 116.89 82.09 111.57 79.04 105.86 C 78.47 104.95 78.58 103.83 78.42 102.81 C 80.86 102.74 83.30 102.61 85.69 102.11 Z" />
</g>
</svg>
