<svg id="Layer_1" data-name="Layer 1" xmlns="http://www.w3.org/2000/svg" viewBox="0 0 250 250"><defs><style>.cls-1{fill:#0f6089;}.cls-2{fill:#078fa4;}.cls-3{fill:#00aaa6;}.cls-4{fill:#cd1685;}.cls-5{fill:#1eaae2;}.cls-6{fill:#0c7392;}.cls-7{fill:#abcf3a;}.cls-8{fill:#8f9990;}.cls-9{fill:#ec1076;}.cls-10{fill:#e0e224;}.cls-11{fill:#f9a516;}.cls-12{fill:#fdcd11;}.cls-13{fill:#b9204a;}.cls-14{fill:#f05b28;}.cls-15{fill:#ab1f25;}.cls-16{fill:#cb0010;}.cls-17{fill:#fff;}</style></defs><path class="cls-1" d="M250,122.5q0,1.26,0,2.52a124.52,124.52,0,0,1-14,57.5L167.86,210l.14-.31Z" transform="translate(0)"/><path class="cls-2" d="M250,122.47l-82,87.24L244.14,87.1A124.6,124.6,0,0,1,250,122.47Z" transform="translate(0)"/><path class="cls-3" d="M244.14,87.1,168,209.71l-.2.33L158.68,51.37,235.22,80Z" transform="translate(0)"/><path class="cls-3" d="M244.14,87.1,235.22,80l7.46,2.79c.52,1.42,1,2.86,1.46,4.3Z" transform="translate(0)"/><path class="cls-4" d="M242.68,82.8" transform="translate(0)"/><path class="cls-5" d="M242.68,82.8,168.92,7.94A125.22,125.22,0,0,1,242.68,82.8ZM168.92,7.94,242.68,82.8,235.22,80,165.06,24.28l3.85-16.34Z" transform="translate(0)"/><path class="cls-6" d="M167.86,210,236,182.5a125.13,125.13,0,0,1-85.22,64.83l16.35-35.72Z" transform="translate(0)"/><path class="cls-5" d="M235.22,80,158.68,51.37l6.38-27.09Z" transform="translate(0)"/><path class="cls-7" d="M168.91,7.94l-3.86,16.34L135,.4A123.55,123.55,0,0,1,168.91,7.94Z" transform="translate(0)"/><path class="cls-4" d="M167.81,210l.2-.33-.14.31Z" transform="translate(0)"/><path class="cls-8" d="M167.87,210l-.73,1.59L78.77,147.14l1.14-1,78.77-94.75L167.81,210Z" transform="translate(0)"/><path class="cls-4" d="M167.14,211.61l-16.35,35.72A124.73,124.73,0,0,1,125,250c-3.45,0-6.82-.14-10.18-.41L37.08,182l2.26.49Z" transform="translate(0)"/><path class="cls-9" d="M167.14,211.61,39.34,182.5l39.43-35.36,88.37,64.47Z" transform="translate(0)"/><path class="cls-7" d="M165.06,24.28l-6.38,27.09L135,.4l30.08,23.88Z" transform="translate(0)"/><path class="cls-10" d="M135,.4l23.69,51-87-39.45A124.53,124.53,0,0,1,125,0C128.36,0,131.68.14,135,.4Z" transform="translate(0)"/><path class="cls-11" d="M158.68,51.37,79.91,146.12,45.66,103.88Z" transform="translate(0)"/><path class="cls-12" d="M158.68,51.37l-113,52.51,26-91.94Z" transform="translate(0)"/><path class="cls-4" d="M115.3,250l-.85-.44.37,0Z" transform="translate(0)"/><path class="cls-13" d="M37.08,182l77.74,67.6-.37,0L28,203.8l8.56-22.3ZM28,203.8l86.48,45.76A124.72,124.72,0,0,1,28,203.8Z" transform="translate(0)"/><path class="cls-14" d="M45.66,103.88l34.25,42.24-1.14,1-60.61-1.28,27.5-42Z" transform="translate(0)"/><path class="cls-14" d="M78.77,147.14,39.34,182.5,18.16,145.86Z" transform="translate(0)"/><path class="cls-12" d="M71.63,11.94l-26,91.94-27.5,42,.1-.88-18-26.82A124.92,124.92,0,0,1,71.63,11.94Z" transform="translate(0)"/><path class="cls-15" d="M18.16,145.86,39.34,182.5,37.08,182ZM37.08,182l-.55-.5L28,203.8a124.81,124.81,0,0,1-14-21.3l4.18-36.63Z" transform="translate(0)"/><path class="cls-16" d="M.18,118.16,18.26,145l-.1.88L14,182.49Z" transform="translate(0)"/><path class="cls-16" d="M.21,118.16,14,182.49A124.51,124.51,0,0,1,0,125C0,122.71.05,120.43.21,118.16Z" transform="translate(0)"/><path class="cls-17" d="M195.21,146.12l5.69-24a58.32,58.32,0,0,0,3.45-20.26,18.13,18.13,0,0,0-4.85-12.35l-.85-.92c-5.83-6.28-16.27-9.86-24.86-9.86h-3a30.82,30.82,0,0,0-21,8.23l-7.1,6.61-1.21-2.78a13.11,13.11,0,0,0-2.64-3.94,31.1,31.1,0,0,0-39.4-4l-7,5.05v-.49a8.67,8.67,0,0,0-8.66-8.66H8L1.14,103.88,63.93,105,54.7,154.61a11.4,11.4,0,0,0,21.94,6.2l17.17-53.06c1.86-6.19,10.21-10.12,16.62-9.28a13.16,13.16,0,0,1,11.36,14.77,13.46,13.46,0,0,1-.38,1.89l-9,39.42a14,14,0,0,0,9.66,17.3,13.74,13.74,0,0,0,3.83.54c6,0,9-3.8,11-9.45l17.23-51.23c2-5.8,9.11-9.26,15.14-8.11A12.36,12.36,0,0,1,179,118.06q-.12.61-.3,1.23l-9.14,33.63A15.05,15.05,0,0,0,184,172.37l59-1.14,6.85-25.11Z" transform="translate(0)"/></svg>