<svg id="Layer_1" data-name="Layer 1" xmlns="http://www.w3.org/2000/svg" viewBox="0 0 250 250"><defs><style>.cls-1{fill:#25aae3;}.cls-2{fill:#fff;}</style></defs><circle class="cls-1" cx="125" cy="125" r="125"/><path class="cls-2" d="M210.94,125A85.94,85.94,0,1,1,125,39.06,85.94,85.94,0,0,1,210.94,125Zm-29.46,2.7a5.46,5.46,0,0,0,0-1c0-28.18-20.82-53.21-47.82-57.42V52.88l-17.5,5.46v11a56.36,56.36,0,0,0,1.89,111.64v16.15l17.5-5.45v-11.3a56.45,56.45,0,0,0,42.5-36.56H159.92a39.73,39.73,0,0,1-74.66-15.94l96.23-.14ZM87.89,110.39a39.77,39.77,0,0,1,74,0h-74Z"/></svg>