<svg id="Layer_1" data-name="Layer 1" xmlns="http://www.w3.org/2000/svg" viewBox="0 0 249.83 250"><defs><style>.cls-1{fill:#8d33e5;}.cls-2{fill:#7000df;}.cls-3{fill:#3f017f;}.cls-4{fill:#f4a900;}.cls-5{fill:#78b6e4;}.cls-6{fill:#20b5ac;}.cls-7{fill:#fff;}</style></defs><path class="cls-1" d="M125,.33c42.82,0,83.22,13.05,120.44,34.38L248.16,36l-.84,2.92a233.39,233.39,0,0,1-32.87,118.94A238.28,238.28,0,0,1,127,246.65l-2,1.43-2.18-1.51c-37-21.41-65-51.61-86.23-88.66s-34-78.12-34-120.86l-.34-2L3.6,33.87C40.65,12.55,82.05.08,124.87.08" transform="translate(-0.08)"/><path class="cls-2" d="M246.74,33.54A244.19,244.19,0,0,0,125,.42V246.65l2.76,1.68a243.08,243.08,0,0,0,88.57-89.25A241,241,0,0,0,249.25,38V35Z" transform="translate(-0.08)"/><path class="cls-2" d="M249.67,37.47V34.21l-2.76-1.59a244.41,244.41,0,0,0-244,0L.08,34.21v3.26A244.3,244.3,0,0,0,122.2,248.41L125,250l2.76-1.59A243.75,243.75,0,0,0,217,159.33a243.72,243.72,0,0,0,33-121.86ZM124.79,237.62C52.94,195.63,6.94,120.53,6.44,37.3a241.86,241.86,0,0,1,237,0C243.06,120.69,197,195.63,125,237.54Z" transform="translate(-0.08)"/><path class="cls-1" d="M125,237.54c-72-41.91-118-117-118.52-200.24A242.28,242.28,0,0,1,125,6.27V0A244.56,244.56,0,0,0,2.84,32.62L.08,34.21v3.26A244.3,244.3,0,0,0,122.2,248.41L125,250Z" transform="translate(-0.08)"/><path class="cls-3" d="M203.41,77.79a7.55,7.55,0,0,0-.5-2.76A74.59,74.59,0,0,0,190.7,52.86c-1.26-1.76-2.76-3.35-4.1-5l-1.09-1.25a5.83,5.83,0,0,0-1.59-1.26,7.43,7.43,0,0,0-3.76-1,7.78,7.78,0,0,0-1.92.42,2.34,2.34,0,0,0-.84.33S132,69.67,124.87,73.35c-7-3.68-52.19-28.44-53.27-28.52a7.53,7.53,0,0,0-1.93-.42,7.23,7.23,0,0,0-3.76,1,5.4,5.4,0,0,0-1.51,1.25l-1.08,1.26a59.65,59.65,0,0,0-4.1,5,82.86,82.86,0,0,0-12,21.17,8.21,8.21,0,0,0-.83,3.68,9.11,9.11,0,0,0,.75,3.68,8.22,8.22,0,0,0,2.34,3,1.57,1.57,0,0,0,.59.41l.58.42.84.59,7.19,4.43L72.85,99.2l14.22,9,11.79,7.11L99,165.19v9.87a10,10,0,0,0,.67,2.76A10.75,10.75,0,0,0,103,182a12.92,12.92,0,0,0,4.85,2.26c1.76.42,3.6.84,5.44,1.09a82.61,82.61,0,0,0,23.08,0c2.76-.42,3.43-.59,5.27-1a11.77,11.77,0,0,0,4.94-2.34,10.06,10.06,0,0,0,3.26-4.18,11.57,11.57,0,0,0,.67-2.76v-1.59s.58-45.08.42-58.13l11.71-7.11,14.55-9,14.3-9,7.11-4.44a8.49,8.49,0,0,0,3.6-3.26,8.83,8.83,0,0,0,1.25-4.76Z" transform="translate(-0.08)"/><path class="cls-4" d="M104.3,112.41A27.74,27.74,0,0,0,93.76,90.5c-9.37-7.45-23.92-10.12-38.06-7.11-.92.17-3.51-1.42-4.43-1.59,0,0-.25-.17.25.25A1.59,1.59,0,0,1,52,83l52.2,29.94v-.5Z" transform="translate(-0.08)"/><path class="cls-5" d="M150,79.63c11.12-4.35,20.74-15.56,25.17-29.28.34-1,2.09-1.25,2.76-1.92.25-.17-.58-1.09-.33-1.26l-52.7,30.36.67.34a27.92,27.92,0,0,0,24.34,1.76Z" transform="translate(-0.08)"/><path class="cls-6" d="M144.7,113.83A27.5,27.5,0,0,0,131.31,134c-1.67,11.79,3.27,25.68,13,36.22.75.75.67,2.26.84,3.26,0,.25.33.25.58.42l.25-60.64Z" transform="translate(-0.08)"/><path class="cls-3" d="M133.82,136.17a28.5,28.5,0,0,1,4.86-11.46,27.55,27.55,0,0,1,9.36-8.2l-2.17-3.35-1.17.76a27.46,27.46,0,0,0-13.39,20.15c-1.42,10.29,2.18,22.34,9.71,32.29a48.5,48.5,0,0,1-7.2-30.19Z" transform="translate(-0.08)"/><path class="cls-3" d="M150.47,76.53A28.42,28.42,0,0,1,138.09,78a27.25,27.25,0,0,1-11.79-4.1l-1.93,3.51,1.17.75a27,27,0,0,0,11.88,3.6,26.51,26.51,0,0,0,12.21-1.92,50.56,50.56,0,0,0,25-24.84c0-.17-.75-1.09-1.51.58a47.47,47.47,0,0,1-22.66,20.91Z" transform="translate(-0.08)"/><path class="cls-3" d="M90.75,92.34a25.06,25.06,0,0,1,7.19,9.45,25.5,25.5,0,0,1,2,11.71l4,1.25,1.26-1.33c.25-8.37-3.43-19-10-24.43-7.69-6.52-23.92-8.7-34.79-7-.42,0-.59.67,2.26.58a43.14,43.14,0,0,1,28.1,9.79Z" transform="translate(-0.08)"/><path class="cls-7" d="M125,180.83a66,66,0,0,1-16.65-2.17,5.31,5.31,0,0,1-2.84-1.93,5.21,5.21,0,0,1-1.17-3.26V112.41a28.81,28.81,0,0,0-2.68-12.13,27.1,27.1,0,0,0-7.69-9.7C84.56,83.14,70,80.46,55.87,83.47a6.26,6.26,0,0,1-2.17.09,5.29,5.29,0,0,1-2-.76,5.44,5.44,0,0,1-2.51-3.43,5.13,5.13,0,0,1,.25-3.17A96.12,96.12,0,0,1,56,61.56a60,60,0,0,1,10.12-13.3,5.67,5.67,0,0,1,3.18-1.51,5.52,5.52,0,0,1,3.43.67L124.21,77l1.33.84a27.42,27.42,0,0,0,12,3.68,25.9,25.9,0,0,0,12.3-2C160.92,75.19,170.54,64,175,50.27a8.88,8.88,0,0,1,1-1.93A5.43,5.43,0,0,1,177.74,47a5.83,5.83,0,0,1,2.09-.67,4.65,4.65,0,0,1,2.17.25,5.55,5.55,0,0,1,2.59,1.75A90.49,90.49,0,0,1,194,61.48,61.16,61.16,0,0,1,200.4,77a6.25,6.25,0,0,1-.25,3.51,5.35,5.35,0,0,1-2.34,2.59L146,112.91l-1.43.84a26.56,26.56,0,0,0-9,8.53,28,28,0,0,0-4.35,11.54c-1.67,11.8,3.27,25.68,13,36.22a5.52,5.52,0,0,1,1.34,2.59,5.9,5.9,0,0,1-.17,2.93,6,6,0,0,1-1.67,2.43,6,6,0,0,1-2.76,1.25A95.1,95.1,0,0,1,125,180.83Z" transform="translate(-0.08)"/></svg>