<svg id="Layer_1" data-name="Layer 1" xmlns="http://www.w3.org/2000/svg" xmlns:xlink="http://www.w3.org/1999/xlink" viewBox="0 0 250 250"><defs><style>.cls-1{fill:url(#linear-gradient);}</style><linearGradient id="linear-gradient" x1="791.15" y1="96.05" x2="792.8" y2="96.05" gradientTransform="matrix(86.56, -86.56, -86.56, -86.56, -60109.97, 76990.29)" gradientUnits="userSpaceOnUse"><stop offset="0" stop-color="#cf8724"/><stop offset="1" stop-color="#fdce58"/></linearGradient></defs><g id="Layer_2" data-name="Layer 2"><g id="Layer_1-2" data-name="Layer 1-2"><path class="cls-1" d="M126.31,229.76c-57,0-103.46-46.54-103.46-103.45S69.39,22.85,126.31,22.85,229.76,69.39,229.76,126.31,183.27,229.76,126.31,229.76Z"/><path d="M125,250C56.25,250,0,193.75,0,125S56.25,0,125,0,250,56.25,250,125,193.75,250,125,250Zm0-222.21c-53.46,0-97.21,43.75-97.21,97.21S71.54,222.21,125,222.21s97.21-43.75,97.21-97.21S178.46,27.79,125,27.79Z"/><path d="M122.11,158.86h54.16v27.08h-32v22.92H116.52V186.65H83.18c0-9-1.37-18,.71-26.37.71-4.17,5.54-8.33,9-12.5,10.41-12.5,20.83-25,32-37.5,4.17-4.88,8.33-9,13.21-14.58H86V68.61h30.54V45.7h27.08V67.9H177c0,9,1.37,18-.71,26.37-.71,4.17-5.54,8.34-9,12.5-10.42,12.5-20.83,25-32,37.5C131.1,149.15,126.93,154,122.11,158.86Z"/></g></g></svg>